  0
SECTION
  2
HEADER
  9
$ACADVER
  1
AC1024
  9
$ACADMAINTVER
 70
6
  9
$DWGCODEPAGE
  3
ANSI_1252
  9
$LASTSAVEDBY
  1
ezdxf
  9
$INSBASE
 10
0.0
 20
0.0
 30
0.0
  9
$EXTMIN
 10
1e+20
 20
1e+20
 30
1e+20
  9
$EXTMAX
 10
-1e+20
 20
-1e+20
 30
-1e+20
  9
$LIMMIN
 10
0.0
 20
0.0
  9
$LIMMAX
 10
420.0
 20
297.0
  9
$ORTHOMODE
 70
0
  9
$REGENMODE
 70
1
  9
$FILLMODE
 70
1
  9
$QTEXTMODE
 70
0
  9
$MIRRTEXT
 70
1
  9
$LTSCALE
 40
1.0
  9
$ATTMODE
 70
1
  9
$TEXTSIZE
 40
2.5
  9
$TRACEWID
 40
1.0
  9
$TEXTSTYLE
  7
Standard
  9
$CLAYER
  8
0
  9
$CELTYPE
  6
ByLayer
  9
$CECOLOR
 62
256
  9
$CELTSCALE
 40
1.0
  9
$DISPSILH
 70
0
  9
$DIMSCALE
 40
1.0
  9
$DIMASZ
 40
2.5
  9
$DIMEXO
 40
0.625
  9
$DIMDLI
 40
3.75
  9
$DIMRND
 40
0.0
  9
$DIMDLE
 40
0.0
  9
$DIMEXE
 40
1.25
  9
$DIMTP
 40
0.0
  9
$DIMTM
 40
0.0
  9
$DIMTXT
 40
2.5
  9
$DIMCEN
 40
2.5
  9
$DIMTSZ
 40
0.0
  9
$DIMTOL
 70
0
  9
$DIMLIM
 70
0
  9
$DIMTIH
 70
0
  9
$DIMTOH
 70
0
  9
$DIMSE1
 70
0
  9
$DIMSE2
 70
0
  9
$DIMTAD
 70
1
  9
$DIMZIN
 70
8
  9
$DIMBLK
  1

  9
$DIMASO
 70
1
  9
$DIMSHO
 70
1
  9
$DIMPOST
  1

  9
$DIMAPOST
  1

  9
$DIMALT
 70
0
  9
$DIMALTD
 70
3
  9
$DIMALTF
 40
0.03937007874
  9
$DIMLFAC
 40
1.0
  9
$DIMTOFL
 70
1
  9
$DIMTVP
 40
0.0
  9
$DIMTIX
 70
0
  9
$DIMSOXD
 70
0
  9
$DIMSAH
 70
0
  9
$DIMBLK1
  1

  9
$DIMBLK2
  1

  9
$DIMSTYLE
  2
ISO-25
  9
$DIMCLRD
 70
0
  9
$DIMCLRE
 70
0
  9
$DIMCLRT
 70
0
  9
$DIMTFAC
 40
1.0
  9
$DIMGAP
 40
0.625
  9
$DIMJUST
 70
0
  9
$DIMSD1
 70
0
  9
$DIMSD2
 70
0
  9
$DIMTOLJ
 70
0
  9
$DIMTZIN
 70
8
  9
$DIMALTZ
 70
0
  9
$DIMALTTZ
 70
0
  9
$DIMUPT
 70
0
  9
$DIMDEC
 70
2
  9
$DIMTDEC
 70
2
  9
$DIMALTU
 70
2
  9
$DIMALTTD
 70
3
  9
$DIMTXSTY
  7
Standard
  9
$DIMAUNIT
 70
0
  9
$DIMADEC
 70
0
  9
$DIMALTRND
 40
0.0
  9
$DIMAZIN
 70
0
  9
$DIMDSEP
 70
44
  9
$DIMATFIT
 70
3
  9
$DIMFRAC
 70
0
  9
$DIMLDRBLK
  1

  9
$DIMLUNIT
 70
2
  9
$DIMLWD
 70
-2
  9
$DIMLWE
 70
-2
  9
$DIMTMOVE
 70
0
  9
$DIMFXL
 40
1.0
  9
$DIMFXLON
 70
0
  9
$DIMJOGANG
 40
0.785398163397
  9
$DIMTFILL
 70
0
  9
$DIMTFILLCLR
 70
0
  9
$DIMARCSYM
 70
0
  9
$DIMLTYPE
  6

  9
$DIMLTEX1
  6

  9
$DIMLTEX2
  6

  9
$DIMTXTDIRECTION
 70
0
  9
$LUNITS
 70
2
  9
$LUPREC
 70
4
  9
$SKETCHINC
 40
1.0
  9
$FILLETRAD
 40
10.0
  9
$AUNITS
 70
0
  9
$AUPREC
 70
2
  9
$MENU
  1
.
  9
$ELEVATION
 40
0.0
  9
$PELEVATION
 40
0.0
  9
$THICKNESS
 40
0.0
  9
$LIMCHECK
 70
0
  9
$CHAMFERA
 40
0.0
  9
$CHAMFERB
 40
0.0
  9
$CHAMFERC
 40
0.0
  9
$CHAMFERD
 40
0.0
  9
$SKPOLY
 70
0
  9
$TDCREATE
 40
2461138.721030093
  9
$TDUCREATE
 40
2458532.153996898
  9
$TDUPDATE
 40
2461138.721030093
  9
$TDUUPDATE
 40
2458532.1544311
  9
$TDINDWG
 40
0.0
  9
$TDUSRTIMER
 40
0.0
  9
$USRTIMER
 70
1
  9
$ANGBASE
 50
0.0
  9
$ANGDIR
 70
0
  9
$PDMODE
 70
0
  9
$PDSIZE
 40
0.0
  9
$PLINEWID
 40
0.0
  9
$SPLFRAME
 70
0
  9
$SPLINETYPE
 70
6
  9
$SPLINESEGS
 70
8
  9
$HANDSEED
  5
155
  9
$SURFTAB1
 70
6
  9
$SURFTAB2
 70
6
  9
$SURFTYPE
 70
6
  9
$SURFU
 70
6
  9
$SURFV
 70
6
  9
$UCSBASE
  2

  9
$UCSNAME
  2

  9
$UCSORG
 10
0.0
 20
0.0
 30
0.0
  9
$UCSXDIR
 10
1.0
 20
0.0
 30
0.0
  9
$UCSYDIR
 10
0.0
 20
1.0
 30
0.0
  9
$UCSORTHOREF
  2

  9
$UCSORTHOVIEW
 70
0
  9
$UCSORGTOP
 10
0.0
 20
0.0
 30
0.0
  9
$UCSORGBOTTOM
 10
0.0
 20
0.0
 30
0.0
  9
$UCSORGLEFT
 10
0.0
 20
0.0
 30
0.0
  9
$UCSORGRIGHT
 10
0.0
 20
0.0
 30
0.0
  9
$UCSORGFRONT
 10
0.0
 20
0.0
 30
0.0
  9
$UCSORGBACK
 10
0.0
 20
0.0
 30
0.0
  9
$PUCSBASE
  2

  9
$PUCSNAME
  2

  9
$PUCSORG
 10
0.0
 20
0.0
 30
0.0
  9
$PUCSXDIR
 10
1.0
 20
0.0
 30
0.0
  9
$PUCSYDIR
 10
0.0
 20
1.0
 30
0.0
  9
$PUCSORTHOREF
  2

  9
$PUCSORTHOVIEW
 70
0
  9
$PUCSORGTOP
 10
0.0
 20
0.0
 30
0.0
  9
$PUCSORGBOTTOM
 10
0.0
 20
0.0
 30
0.0
  9
$PUCSORGLEFT
 10
0.0
 20
0.0
 30
0.0
  9
$PUCSORGRIGHT
 10
0.0
 20
0.0
 30
0.0
  9
$PUCSORGFRONT
 10
0.0
 20
0.0
 30
0.0
  9
$PUCSORGBACK
 10
0.0
 20
0.0
 30
0.0
  9
$USERI1
 70
0
  9
$USERI2
 70
0
  9
$USERI3
 70
0
  9
$USERI4
 70
0
  9
$USERI5
 70
0
  9
$USERR1
 40
0.0
  9
$USERR2
 40
0.0
  9
$USERR3
 40
0.0
  9
$USERR4
 40
0.0
  9
$USERR5
 40
0.0
  9
$WORLDVIEW
 70
1
  9
$SHADEDGE
 70
3
  9
$SHADEDIF
 70
70
  9
$TILEMODE
 70
1
  9
$MAXACTVP
 70
64
  9
$PINSBASE
 10
0.0
 20
0.0
 30
0.0
  9
$PLIMCHECK
 70
0
  9
$PEXTMIN
 10
1e+20
 20
1e+20
 30
1e+20
  9
$PEXTMAX
 10
-1e+20
 20
-1e+20
 30
-1e+20
  9
$PLIMMIN
 10
0.0
 20
0.0
  9
$PLIMMAX
 10
420.0
 20
297.0
  9
$UNITMODE
 70
0
  9
$VISRETAIN
 70
1
  9
$PLINEGEN
 70
0
  9
$PSLTSCALE
 70
1
  9
$TREEDEPTH
 70
3020
  9
$CMLSTYLE
  2
Standard
  9
$CMLJUST
 70
0
  9
$CMLSCALE
 40
20.0
  9
$PROXYGRAPHICS
 70
1
  9
$MEASUREMENT
 70
1
  9
$CELWEIGHT
370
-1
  9
$ENDCAPS
280
0
  9
$JOINSTYLE
280
0
  9
$LWDISPLAY
290
0
  9
$INSUNITS
 70
6
  9
$HYPERLINKBASE
  1

  9
$STYLESHEET
  1

  9
$XEDIT
290
1
  9
$CEPSNTYPE
380
0
  9
$PSTYLEMODE
290
1
  9
$FINGERPRINTGUID
  2
{BA55CBDA-9FA4-4856-A8E5-2D20F6BC21D8}
  9
$VERSIONGUID
  2
{2A471DA3-1D0C-4626-BEF6-B606F9B8C383}
  9
$EXTNAMES
290
1
  9
$PSVPSCALE
 40
0.0
  9
$OLESTARTUP
290
0
  9
$SORTENTS
280
127
  9
$INDEXCTL
280
0
  9
$HIDETEXT
280
1
  9
$XCLIPFRAME
280
1
  9
$HALOGAP
280
0
  9
$OBSCOLOR
 70
257
  9
$OBSLTYPE
280
0
  9
$INTERSECTIONDISPLAY
280
0
  9
$INTERSECTIONCOLOR
 70
257
  9
$DIMASSOC
280
2
  9
$PROJECTNAME
  1

  9
$CAMERADISPLAY
290
0
  9
$LENSLENGTH
 40
50.0
  9
$CAMERAHEIGHT
 40
0.0
  9
$STEPSPERSEC
 40
24.0
  9
$STEPSIZE
 40
100.0
  9
$3DDWFPREC
 40
2.0
  9
$PSOLWIDTH
 40
0.005
  9
$PSOLHEIGHT
 40
0.08
  9
$LOFTANG1
 40
1.570796326795
  9
$LOFTANG2
 40
1.570796326795
  9
$LOFTMAG1
 40
0.0
  9
$LOFTMAG2
 40
0.0
  9
$LOFTPARAM
 70
7
  9
$LOFTNORMALS
280
1
  9
$LATITUDE
 40
37.795
  9
$LONGITUDE
 40
-122.394
  9
$NORTHDIRECTION
 40
0.0
  9
$TIMEZONE
 70
-8000
  9
$LIGHTGLYPHDISPLAY
280
1
  9
$TILEMODELIGHTSYNCH
280
1
  9
$CMATERIAL
347
20
  9
$SOLIDHIST
280
0
  9
$SHOWHIST
280
1
  9
$DWFFRAME
280
2
  9
$DGNFRAME
280
2
  9
$REALWORLDSCALE
290
1
  9
$INTERFERECOLOR
 62
256
  9
$CSHADOW
280
0
  9
$SHADOWPLANELOCATION
 40
0.0
  0
ENDSEC
  0
SECTION
  2
CLASSES
  0
CLASS
  1
ACDBDICTIONARYWDFLT
  2
AcDbDictionaryWithDefault
  3
ObjectDBX Classes
 90
0
 91
0
280
0
281
0
  0
CLASS
  1
SUN
  2
AcDbSun
  3
SCENEOE
 90
1153
 91
0
280
0
281
0
  0
CLASS
  1
VISUALSTYLE
  2
AcDbVisualStyle
  3
ObjectDBX Classes
 90
4095
 91
0
280
0
281
0
  0
CLASS
  1
MATERIAL
  2
AcDbMaterial
  3
ObjectDBX Classes
 90
1153
 91
0
280
0
281
0
  0
CLASS
  1
SCALE
  2
AcDbScale
  3
ObjectDBX Classes
 90
1153
 91
0
280
0
281
0
  0
CLASS
  1
TABLESTYLE
  2
AcDbTableStyle
  3
ObjectDBX Classes
 90
4095
 91
0
280
0
281
0
  0
CLASS
  1
MLEADERSTYLE
  2
AcDbMLeaderStyle
  3
ACDB_MLEADERSTYLE_CLASS
 90
4095
 91
0
280
0
281
0
  0
CLASS
  1
DICTIONARYVAR
  2
AcDbDictionaryVar
  3
ObjectDBX Classes
 90
0
 91
0
280
0
281
0
  0
CLASS
  1
CELLSTYLEMAP
  2
AcDbCellStyleMap
  3
ObjectDBX Classes
 90
1152
 91
0
280
0
281
0
  0
CLASS
  1
MENTALRAYRENDERSETTINGS
  2
AcDbMentalRayRenderSettings
  3
SCENEOE
 90
1024
 91
0
280
0
281
0
  0
CLASS
  1
ACDBDETAILVIEWSTYLE
  2
AcDbDetailViewStyle
  3
ObjectDBX Classes
 90
1025
 91
0
280
0
281
0
  0
CLASS
  1
ACDBSECTIONVIEWSTYLE
  2
AcDbSectionViewStyle
  3
ObjectDBX Classes
 90
1025
 91
0
280
0
281
0
  0
CLASS
  1
RASTERVARIABLES
  2
AcDbRasterVariables
  3
ISM
 90
0
 91
0
280
0
281
0
  0
CLASS
  1
ACDBPLACEHOLDER
  2
AcDbPlaceHolder
  3
ObjectDBX Classes
 90
0
 91
0
280
0
281
0
  0
CLASS
  1
LAYOUT
  2
AcDbLayout
  3
ObjectDBX Classes
 90
0
 91
0
280
0
281
0
  0
ENDSEC
  0
SECTION
  2
TABLES
  0
TABLE
  2
VPORT
  5
8
330
0
100
AcDbSymbolTable
 70
1
  0
VPORT
  5
23
330
8
100
AcDbSymbolTableRecord
100
AcDbViewportTableRecord
  2
*Active
 70
0
 10
0.0
 20
0.0
 11
1.0
 21
1.0
 12
0.0
 22
0.0
 13
0.0
 23
0.0
 14
0.5
 24
0.5
 15
0.5
 25
0.5
 16
0.0
 26
0.0
 36
1.0
 17
0.0
 27
0.0
 37
0.0
 40
1000.0
 41
1.34
 42
50.0
 43
0.0
 44
0.0
 50
0.0
 51
0.0
 71
0
 72
1000
 73
1
 74
3
 75
0
 76
0
 77
0
 78
0
281
0
 65
0
146
0.0
  0
ENDTAB
  0
TABLE
  2
LTYPE
  5
2
330
0
100
AcDbSymbolTable
 70
3
  0
LTYPE
  5
24
330
2
100
AcDbSymbolTableRecord
100
AcDbLinetypeTableRecord
  2
ByBlock
 70
0
  3

 72
65
 73
0
 40
0.0
  0
LTYPE
  5
25
330
2
100
AcDbSymbolTableRecord
100
AcDbLinetypeTableRecord
  2
ByLayer
 70
0
  3

 72
65
 73
0
 40
0.0
  0
LTYPE
  5
26
330
2
100
AcDbSymbolTableRecord
100
AcDbLinetypeTableRecord
  2
Continuous
 70
0
  3

 72
65
 73
0
 40
0.0
  0
ENDTAB
  0
TABLE
  2
LAYER
  5
1
330
0
100
AcDbSymbolTable
 70
2
  0
LAYER
  5
27
330
1
100
AcDbSymbolTableRecord
100
AcDbLayerTableRecord
  2
0
 70
0
 62
7
  6
Continuous
370
-3
390
13
347
21
  0
LAYER
  5
28
330
1
100
AcDbSymbolTableRecord
100
AcDbLayerTableRecord
  2
Defpoints
 70
0
 62
7
  6
Continuous
290
0
370
-3
390
13
347
21
  0
ENDTAB
  0
TABLE
  2
STYLE
  5
5
330
0
100
AcDbSymbolTable
 70
1
  0
STYLE
  5
29
330
5
100
AcDbSymbolTableRecord
100
AcDbTextStyleTableRecord
  2
Standard
 70
0
 40
0.0
 41
1.0
 50
0.0
 71
0
 42
2.5
  3
txt
  4

  0
ENDTAB
  0
TABLE
  2
VIEW
  5
7
330
0
100
AcDbSymbolTable
 70
0
  0
ENDTAB
  0
TABLE
  2
UCS
  5
6
330
0
100
AcDbSymbolTable
 70
0
  0
ENDTAB
  0
TABLE
  2
APPID
  5
3
330
0
100
AcDbSymbolTable
 70
3
  0
APPID
  5
2A
330
3
100
AcDbSymbolTableRecord
100
AcDbRegAppTableRecord
  2
ACAD
 70
0
  0
APPID
  5
152
330
3
100
AcDbSymbolTableRecord
100
AcDbRegAppTableRecord
  2
HATCHBACKGROUNDCOLOR
 70
0
  0
APPID
  5
153
330
3
100
AcDbSymbolTableRecord
100
AcDbRegAppTableRecord
  2
EZDXF
 70
0
  0
ENDTAB
  0
TABLE
  2
DIMSTYLE
  5
4
330
0
100
AcDbSymbolTable
 70
1
100
AcDbDimStyleTable
  0
DIMSTYLE
105
2B
330
4
100
AcDbSymbolTableRecord
100
AcDbDimStyleTableRecord
  2
Standard
 70
0
 40
1.0
 41
2.5
 42
0.625
 43
3.75
 44
1.25
 45
0.0
 46
0.0
 47
0.0
 48
0.0
 49
2.5
140
2.5
141
2.5
142
0.0
143
0.03937007874
144
1.0
145
0.0
146
1.0
147
0.625
148
0.0
 69
0
 70
0
 71
0
 72
0
 73
0
 74
0
 75
0
 76
0
 77
1
 78
8
 79
3
170
0
171
3
172
1
173
0
174
0
175
0
176
0
177
0
178
0
179
2
271
2
272
2
273
2
274
3
275
0
276
0
277
2
278
44
279
0
280
0
281
0
282
0
283
0
284
8
285
0
286
0
288
0
289
3
290
0
371
-2
372
-2
  0
ENDTAB
  0
TABLE
  2
BLOCK_RECORD
  5
9
330
0
100
AcDbSymbolTable
 70
2
  0
BLOCK_RECORD
  5
17
330
9
100
AcDbSymbolTableRecord
100
AcDbBlockTableRecord
  2
*Model_Space
340
1A
 70
0
280
1
281
0
  0
BLOCK_RECORD
  5
1B
330
9
100
AcDbSymbolTableRecord
100
AcDbBlockTableRecord
  2
*Paper_Space
340
1E
 70
0
280
1
281
0
  0
ENDTAB
  0
ENDSEC
  0
SECTION
  2
BLOCKS
  0
BLOCK
  5
18
330
17
100
AcDbEntity
  8
0
100
AcDbBlockBegin
  2
*Model_Space
 70
0
 10
0.0
 20
0.0
 30
0.0
  3
*Model_Space
  1

  0
ENDBLK
  5
19
330
17
100
AcDbEntity
  8
0
100
AcDbBlockEnd
  0
BLOCK
  5
1C
330
1B
100
AcDbEntity
  8
0
100
AcDbBlockBegin
  2
*Paper_Space
 70
0
 10
0.0
 20
0.0
 30
0.0
  3
*Paper_Space
  1

  0
ENDBLK
  5
1D
330
1B
100
AcDbEntity
  8
0
100
AcDbBlockEnd
  0
ENDSEC
  0
SECTION
  2
ENTITIES
  0
LINE
  5
2F
330
17
100
AcDbEntity
  8
0
100
AcDbLine
 10
138.47826
 20
-68.13169
 30
0.0
 11
138.47826
 21
-51.198018000000005
 31
0.0
  0
LINE
  5
30
330
17
100
AcDbEntity
  8
0
100
AcDbLine
 10
138.47826
 20
-51.198018000000005
 30
0.0
 11
16.72691600000001
 21
-50.954178
 31
0.0
  0
LINE
  5
31
330
17
100
AcDbEntity
  8
0
100
AcDbLine
 10
16.72691600000001
 20
-50.954178
 30
0.0
 11
16.53336800000001
 21
-50.983642
 31
0.0
  0
LINE
  5
32
330
17
100
AcDbEntity
  8
0
100
AcDbLine
 10
16.53336800000001
 20
-50.983642
 30
0.0
 11
16.34667800000001
 21
-51.031648000000004
 31
0.0
  0
LINE
  5
33
330
17
100
AcDbEntity
  8
0
100
AcDbLine
 10
16.34667800000001
 20
-51.031648000000004
 30
0.0
 11
16.167608000000012
 21
-51.09718
 31
0.0
  0
LINE
  5
34
330
17
100
AcDbEntity
  8
0
100
AcDbLine
 10
16.167608000000012
 20
-51.09718
 30
0.0
 11
15.997174000000012
 21
-51.17922200000001
 31
0.0
  0
LINE
  5
35
330
17
100
AcDbEntity
  8
0
100
AcDbLine
 10
15.997174000000012
 20
-51.17922200000001
 30
0.0
 11
15.83639200000001
 21
-51.276758
 31
0.0
  0
LINE
  5
36
330
17
100
AcDbEntity
  8
0
100
AcDbLine
 10
15.83639200000001
 20
-51.276758
 30
0.0
 11
15.68627800000001
 21
-51.38902600000001
 31
0.0
  0
LINE
  5
37
330
17
100
AcDbEntity
  8
0
100
AcDbLine
 10
15.68627800000001
 20
-51.38902600000001
 30
0.0
 11
15.54784800000001
 21
-51.514756000000006
 31
0.0
  0
LINE
  5
38
330
17
100
AcDbEntity
  8
0
100
AcDbLine
 10
15.54784800000001
 20
-51.514756000000006
 30
0.0
 11
15.42211800000001
 21
-51.653186000000005
 31
0.0
  0
LINE
  5
39
330
17
100
AcDbEntity
  8
0
100
AcDbLine
 10
15.42211800000001
 20
-51.653186000000005
 30
0.0
 11
15.309850000000012
 21
-51.80330000000001
 31
0.0
  0
LINE
  5
3A
330
17
100
AcDbEntity
  8
0
100
AcDbLine
 10
15.309850000000012
 20
-51.80330000000001
 30
0.0
 11
15.21231400000001
 21
-51.964082000000005
 31
0.0
  0
LINE
  5
3B
330
17
100
AcDbEntity
  8
0
100
AcDbLine
 10
15.21231400000001
 20
-51.964082000000005
 30
0.0
 11
15.13027200000001
 21
-52.134516000000005
 31
0.0
  0
LINE
  5
3C
330
17
100
AcDbEntity
  8
0
100
AcDbLine
 10
15.13027200000001
 20
-52.134516000000005
 30
0.0
 11
15.06474000000001
 21
-52.31358600000001
 31
0.0
  0
LINE
  5
3D
330
17
100
AcDbEntity
  8
0
100
AcDbLine
 10
15.06474000000001
 20
-52.31358600000001
 30
0.0
 11
15.01673400000001
 21
-52.500276000000014
 31
0.0
  0
LINE
  5
3E
330
17
100
AcDbEntity
  8
0
100
AcDbLine
 10
15.01673400000001
 20
-52.500276000000014
 30
0.0
 11
14.98727000000001
 21
-52.69382400000001
 31
0.0
  0
LINE
  5
3F
330
17
100
AcDbEntity
  8
0
100
AcDbLine
 10
14.98727000000001
 20
-52.69382400000001
 30
0.0
 11
14.97711000000001
 21
-68.13169000000002
 31
0.0
  0
LINE
  5
40
330
17
100
AcDbEntity
  8
0
100
AcDbLine
 10
14.97711000000001
 20
-68.13169000000002
 30
0.0
 11
67.93433200000001
 21
-68.13169000000002
 31
0.0
  0
LINE
  5
41
330
17
100
AcDbEntity
  8
0
100
AcDbLine
 10
67.93433200000001
 20
-68.13169000000002
 30
0.0
 11
78.99425400000001
 21
-66.70979800000002
 31
0.0
  0
LINE
  5
42
330
17
100
AcDbEntity
  8
0
100
AcDbLine
 10
78.99425400000001
 20
-66.70979800000002
 30
0.0
 11
88.732614
 21
-66.71386200000002
 31
0.0
  0
LINE
  5
43
330
17
100
AcDbEntity
  8
0
100
AcDbLine
 10
88.732614
 20
-66.71386200000002
 30
0.0
 11
88.80881400000001
 21
-66.72554600000002
 31
0.0
  0
LINE
  5
44
330
17
100
AcDbEntity
  8
0
100
AcDbLine
 10
88.80881400000001
 20
-66.72554600000002
 30
0.0
 11
88.88247400000002
 21
-66.74459600000002
 31
0.0
  0
LINE
  5
45
330
17
100
AcDbEntity
  8
0
100
AcDbLine
 10
88.88247400000002
 20
-66.74459600000002
 30
0.0
 11
88.95308600000001
 21
-66.770504
 31
0.0
  0
LINE
  5
46
330
17
100
AcDbEntity
  8
0
100
AcDbLine
 10
88.95308600000001
 20
-66.770504
 30
0.0
 11
89.02014200000002
 21
-66.80276200000002
 31
0.0
  0
LINE
  5
47
330
17
100
AcDbEntity
  8
0
100
AcDbLine
 10
89.02014200000002
 20
-66.80276200000002
 30
0.0
 11
89.08338800000003
 21
-66.84111600000001
 31
0.0
  0
LINE
  5
48
330
17
100
AcDbEntity
  8
0
100
AcDbLine
 10
89.08338800000003
 20
-66.84111600000001
 30
0.0
 11
89.14257000000002
 21
-66.88531200000001
 31
0.0
  0
LINE
  5
49
330
17
100
AcDbEntity
  8
0
100
AcDbLine
 10
89.14257000000002
 20
-66.88531200000001
 30
0.0
 11
89.19718000000002
 21
-66.934842
 31
0.0
  0
LINE
  5
4A
330
17
100
AcDbEntity
  8
0
100
AcDbLine
 10
89.19718000000002
 20
-66.934842
 30
0.0
 11
89.24671000000002
 21
-66.989452
 31
0.0
  0
LINE
  5
4B
330
17
100
AcDbEntity
  8
0
100
AcDbLine
 10
89.24671000000002
 20
-66.989452
 30
0.0
 11
89.290906
 21
-67.048634
 31
0.0
  0
LINE
  5
4C
330
17
100
AcDbEntity
  8
0
100
AcDbLine
 10
89.290906
 20
-67.048634
 30
0.0
 11
89.32926000000002
 21
-67.11188000000001
 31
0.0
  0
LINE
  5
4D
330
17
100
AcDbEntity
  8
0
100
AcDbLine
 10
89.32926000000002
 20
-67.11188000000001
 30
0.0
 11
89.36151800000002
 21
-67.17893600000001
 31
0.0
  0
LINE
  5
4E
330
17
100
AcDbEntity
  8
0
100
AcDbLine
 10
89.36151800000002
 20
-67.17893600000001
 30
0.0
 11
89.387426
 21
-67.24954800000002
 31
0.0
  0
LINE
  5
4F
330
17
100
AcDbEntity
  8
0
100
AcDbLine
 10
89.387426
 20
-67.24954800000002
 30
0.0
 11
89.40647600000001
 21
-67.32320800000002
 31
0.0
  0
LINE
  5
50
330
17
100
AcDbEntity
  8
0
100
AcDbLine
 10
89.40647600000001
 20
-67.32320800000002
 30
0.0
 11
89.41816
 21
-67.39940800000002
 31
0.0
  0
LINE
  5
51
330
17
100
AcDbEntity
  8
0
100
AcDbLine
 10
89.41816
 20
-67.39940800000002
 30
0.0
 11
89.42222400000001
 21
-68.13169000000002
 31
0.0
  0
LINE
  5
52
330
17
100
AcDbEntity
  8
0
100
AcDbLine
 10
89.42222400000001
 20
-68.13169000000002
 30
0.0
 11
138.47851400000002
 21
-68.13169000000002
 31
0.0
  0
LINE
  5
53
330
17
100
AcDbEntity
  8
0
100
AcDbLine
 10
179.199794
 20
-52.79136000000002
 30
0.0
 11
179.19014199999998
 21
-52.602384000000015
 31
0.0
  0
LINE
  5
54
330
17
100
AcDbEntity
  8
0
100
AcDbLine
 10
179.19014199999998
 20
-52.602384000000015
 30
0.0
 11
179.16220199999998
 21
-52.418996000000014
 31
0.0
  0
LINE
  5
55
330
17
100
AcDbEntity
  8
0
100
AcDbLine
 10
179.16220199999998
 20
-52.418996000000014
 30
0.0
 11
179.116736
 21
-52.24195800000001
 31
0.0
  0
LINE
  5
56
330
17
100
AcDbEntity
  8
0
100
AcDbLine
 10
179.116736
 20
-52.24195800000001
 30
0.0
 11
179.054506
 21
-52.07228600000001
 31
0.0
  0
LINE
  5
57
330
17
100
AcDbEntity
  8
0
100
AcDbLine
 10
179.054506
 20
-52.07228600000001
 30
0.0
 11
178.976782
 21
-51.91074200000001
 31
0.0
  0
LINE
  5
58
330
17
100
AcDbEntity
  8
0
100
AcDbLine
 10
178.976782
 20
-51.91074200000001
 30
0.0
 11
178.884326
 21
-51.75834200000001
 31
0.0
  0
LINE
  5
59
330
17
100
AcDbEntity
  8
0
100
AcDbLine
 10
178.884326
 20
-51.75834200000001
 30
0.0
 11
178.7779
 21
-51.61610200000001
 31
0.0
  0
LINE
  5
5A
330
17
100
AcDbEntity
  8
0
100
AcDbLine
 10
178.7779
 20
-51.61610200000001
 30
0.0
 11
178.65877399999997
 21
-51.48478400000001
 31
0.0
  0
LINE
  5
5B
330
17
100
AcDbEntity
  8
0
100
AcDbLine
 10
178.65877399999997
 20
-51.48478400000001
 30
0.0
 11
178.52770999999998
 21
-51.36565800000002
 31
0.0
  0
LINE
  5
5C
330
17
100
AcDbEntity
  8
0
100
AcDbLine
 10
178.52770999999998
 20
-51.36565800000002
 30
0.0
 11
178.38547
 21
-51.25923200000001
 31
0.0
  0
LINE
  5
5D
330
17
100
AcDbEntity
  8
0
100
AcDbLine
 10
178.38547
 20
-51.25923200000001
 30
0.0
 11
178.23307
 21
-51.16677600000001
 31
0.0
  0
LINE
  5
5E
330
17
100
AcDbEntity
  8
0
100
AcDbLine
 10
178.23307
 20
-51.16677600000001
 30
0.0
 11
178.071526
 21
-51.08905200000001
 31
0.0
  0
LINE
  5
5F
330
17
100
AcDbEntity
  8
0
100
AcDbLine
 10
178.071526
 20
-51.08905200000001
 30
0.0
 11
177.901854
 21
-51.02682200000001
 31
0.0
  0
LINE
  5
60
330
17
100
AcDbEntity
  8
0
100
AcDbLine
 10
177.901854
 20
-51.02682200000001
 30
0.0
 11
177.724816
 21
-50.981356000000005
 31
0.0
  0
LINE
  5
61
330
17
100
AcDbEntity
  8
0
100
AcDbLine
 10
177.724816
 20
-50.981356000000005
 30
0.0
 11
177.541428
 21
-50.953416000000004
 31
0.0
  0
LINE
  5
62
330
17
100
AcDbEntity
  8
0
100
AcDbLine
 10
177.541428
 20
-50.953416000000004
 30
0.0
 11
171.413424
 21
-50.943764
 31
0.0
  0
LINE
  5
63
330
17
100
AcDbEntity
  8
0
100
AcDbLine
 10
171.413424
 20
-50.943764
 30
0.0
 11
171.413424
 21
-68.38543600000001
 31
0.0
  0
LINE
  5
64
330
17
100
AcDbEntity
  8
0
100
AcDbLine
 10
171.413424
 20
-68.38543600000001
 30
0.0
 11
179.20004799999998
 21
-68.38543600000001
 31
0.0
  0
LINE
  5
65
330
17
100
AcDbEntity
  8
0
100
AcDbLine
 10
179.20004799999998
 20
-68.38543600000001
 30
0.0
 11
179.20004799999998
 21
-52.791106000000006
 31
0.0
  0
LINE
  5
66
330
17
100
AcDbEntity
  8
0
100
AcDbLine
 10
183.392064
 20
-147.698714
 30
0.0
 11
182.981346
 21
-143.738854
 31
0.0
  0
LINE
  5
67
330
17
100
AcDbEntity
  8
0
100
AcDbLine
 10
182.981346
 20
-143.738854
 30
0.0
 11
182.03240200000002
 21
-139.74318
 31
0.0
  0
LINE
  5
68
330
17
100
AcDbEntity
  8
0
100
AcDbLine
 10
182.03240200000002
 20
-139.74318
 30
0.0
 11
181.36235
 21
-137.79830199999998
 31
0.0
  0
LINE
  5
69
330
17
100
AcDbEntity
  8
0
100
AcDbLine
 10
181.36235
 20
-137.79830199999998
 30
0.0
 11
180.56529799999998
 21
-135.92428999999996
 31
0.0
  0
LINE
  5
6A
330
17
100
AcDbEntity
  8
0
100
AcDbLine
 10
180.56529799999998
 20
-135.92428999999996
 30
0.0
 11
164.132006
 21
-107.97997199999998
 31
0.0
  0
LINE
  5
6B
330
17
100
AcDbEntity
  8
0
100
AcDbLine
 10
164.132006
 20
-107.97997199999998
 30
0.0
 11
161.980372
 21
-102.78160799999996
 31
0.0
  0
LINE
  5
6C
330
17
100
AcDbEntity
  8
0
100
AcDbLine
 10
161.980372
 20
-102.78160799999996
 30
0.0
 11
160.40608
 21
-97.23094599999996
 31
0.0
  0
LINE
  5
6D
330
17
100
AcDbEntity
  8
0
100
AcDbLine
 10
160.40608
 20
-97.23094599999996
 30
0.0
 11
159.93033799999998
 21
-94.39020999999995
 31
0.0
  0
LINE
  5
6E
330
17
100
AcDbEntity
  8
0
100
AcDbLine
 10
159.93033799999998
 20
-94.39020999999995
 30
0.0
 11
159.705548
 21
-91.53067799999997
 31
0.0
  0
LINE
  5
6F
330
17
100
AcDbEntity
  8
0
100
AcDbLine
 10
159.705548
 20
-91.53067799999997
 30
0.0
 11
159.763968
 21
-88.67089199999997
 31
0.0
  0
LINE
  5
70
330
17
100
AcDbEntity
  8
0
100
AcDbLine
 10
159.763968
 20
-88.67089199999997
 30
0.0
 11
160.137856
 21
-85.82939399999997
 31
0.0
  0
LINE
  5
71
330
17
100
AcDbEntity
  8
0
100
AcDbLine
 10
160.137856
 20
-85.82939399999997
 30
0.0
 11
160.85972399999997
 21
-83.02447199999996
 31
0.0
  0
LINE
  5
72
330
17
100
AcDbEntity
  8
0
100
AcDbLine
 10
160.85972399999997
 20
-83.02447199999996
 30
0.0
 11
161.34359399999997
 21
-81.70646599999995
 31
0.0
  0
LINE
  5
73
330
17
100
AcDbEntity
  8
0
100
AcDbLine
 10
161.34359399999997
 20
-81.70646599999995
 30
0.0
 11
161.92169799999996
 21
-80.43138599999996
 31
0.0
  0
LINE
  5
74
330
17
100
AcDbEntity
  8
0
100
AcDbLine
 10
161.92169799999996
 20
-80.43138599999996
 30
0.0
 11
162.59251199999994
 21
-79.20634399999996
 31
0.0
  0
LINE
  5
75
330
17
100
AcDbEntity
  8
0
100
AcDbLine
 10
162.59251199999994
 20
-79.20634399999996
 30
0.0
 11
163.35425799999996
 21
-78.03870599999996
 31
0.0
  0
LINE
  5
76
330
17
100
AcDbEntity
  8
0
100
AcDbLine
 10
163.35425799999996
 20
-78.03870599999996
 30
0.0
 11
164.20515799999995
 21
-76.93558399999996
 31
0.0
  0
LINE
  5
77
330
17
100
AcDbEntity
  8
0
100
AcDbLine
 10
164.20515799999995
 20
-76.93558399999996
 30
0.0
 11
165.14317999999997
 21
-75.90434399999997
 31
0.0
  0
LINE
  5
78
330
17
100
AcDbEntity
  8
0
100
AcDbLine
 10
165.14317999999997
 20
-75.90434399999997
 30
0.0
 11
166.16679999999997
 21
-74.95184399999997
 31
0.0
  0
LINE
  5
79
330
17
100
AcDbEntity
  8
0
100
AcDbLine
 10
166.16679999999997
 20
-74.95184399999997
 30
0.0
 11
168.66946199999995
 21
-73.11034399999996
 31
0.0
  0
LINE
  5
7A
330
17
100
AcDbEntity
  8
0
100
AcDbLine
 10
168.66946199999995
 20
-73.11034399999996
 30
0.0
 11
169.78985599999993
 21
-72.45705599999997
 31
0.0
  0
LINE
  5
7B
330
17
100
AcDbEntity
  8
0
100
AcDbLine
 10
169.78985599999993
 20
-72.45705599999997
 30
0.0
 11
170.35576799999993
 21
-72.20508799999996
 31
0.0
  0
LINE
  5
7C
330
17
100
AcDbEntity
  8
0
100
AcDbLine
 10
170.35576799999993
 20
-72.20508799999996
 30
0.0
 11
170.63262799999993
 21
-72.10882199999995
 31
0.0
  0
LINE
  5
7D
330
17
100
AcDbEntity
  8
0
100
AcDbLine
 10
170.63262799999993
 20
-72.10882199999995
 30
0.0
 11
170.90262999999993
 21
-72.03643199999995
 31
0.0
  0
LINE
  5
7E
330
17
100
AcDbEntity
  8
0
100
AcDbLine
 10
170.90262999999993
 20
-72.03643199999995
 30
0.0
 11
171.16348799999994
 21
-71.99121999999994
 31
0.0
  0
LINE
  5
7F
330
17
100
AcDbEntity
  8
0
100
AcDbLine
 10
171.16348799999994
 20
-71.99121999999994
 30
0.0
 11
171.41316999999992
 21
-71.97623399999993
 31
0.0
  0
LINE
  5
80
330
17
100
AcDbEntity
  8
0
100
AcDbLine
 10
171.41316999999992
 20
-71.97623399999993
 30
0.0
 11
137.42263599999993
 21
-71.80122799999994
 31
0.0
  0
LINE
  5
81
330
17
100
AcDbEntity
  8
0
100
AcDbLine
 10
137.42263599999993
 20
-71.80122799999994
 30
0.0
 11
137.24559799999992
 21
-71.82738999999994
 31
0.0
  0
LINE
  5
82
330
17
100
AcDbEntity
  8
0
100
AcDbLine
 10
137.24559799999992
 20
-71.82738999999994
 30
0.0
 11
137.07465599999992
 21
-71.87056999999994
 31
0.0
  0
LINE
  5
83
330
17
100
AcDbEntity
  8
0
100
AcDbLine
 10
137.07465599999992
 20
-71.87056999999994
 30
0.0
 11
136.91082599999993
 21
-71.92975199999994
 31
0.0
  0
LINE
  5
84
330
17
100
AcDbEntity
  8
0
100
AcDbLine
 10
136.91082599999993
 20
-71.92975199999994
 30
0.0
 11
136.7548699999999
 21
-72.00417399999994
 31
0.0
  0
LINE
  5
85
330
17
100
AcDbEntity
  8
0
100
AcDbLine
 10
136.7548699999999
 20
-72.00417399999994
 30
0.0
 11
136.60780399999993
 21
-72.09281999999993
 31
0.0
  0
LINE
  5
86
330
17
100
AcDbEntity
  8
0
100
AcDbLine
 10
136.60780399999993
 20
-72.09281999999993
 30
0.0
 11
136.4703899999999
 21
-72.19492799999993
 31
0.0
  0
LINE
  5
87
330
17
100
AcDbEntity
  8
0
100
AcDbLine
 10
136.4703899999999
 20
-72.19492799999993
 30
0.0
 11
136.3436439999999
 21
-72.30948199999995
 31
0.0
  0
LINE
  5
88
330
17
100
AcDbEntity
  8
0
100
AcDbLine
 10
136.3436439999999
 20
-72.30948199999995
 30
0.0
 11
136.22832799999992
 21
-72.43571999999995
 31
0.0
  0
LINE
  5
89
330
17
100
AcDbEntity
  8
0
100
AcDbLine
 10
136.22832799999992
 20
-72.43571999999995
 30
0.0
 11
136.12545799999992
 21
-72.57262599999994
 31
0.0
  0
LINE
  5
8A
330
17
100
AcDbEntity
  8
0
100
AcDbLine
 10
136.12545799999992
 20
-72.57262599999994
 30
0.0
 11
136.03604999999993
 21
-72.71918399999994
 31
0.0
  0
LINE
  5
8B
330
17
100
AcDbEntity
  8
0
100
AcDbLine
 10
136.03604999999993
 20
-72.71918399999994
 30
0.0
 11
135.96086599999992
 21
-72.87463199999995
 31
0.0
  0
LINE
  5
8C
330
17
100
AcDbEntity
  8
0
100
AcDbLine
 10
135.96086599999992
 20
-72.87463199999995
 30
0.0
 11
135.9006679999999
 21
-73.03820799999995
 31
0.0
  0
LINE
  5
8D
330
17
100
AcDbEntity
  8
0
100
AcDbLine
 10
135.9006679999999
 20
-73.03820799999995
 30
0.0
 11
135.85647199999994
 21
-73.20889599999995
 31
0.0
  0
LINE
  5
8E
330
17
100
AcDbEntity
  8
0
100
AcDbLine
 10
135.85647199999994
 20
-73.20889599999995
 30
0.0
 11
135.82929399999995
 21
-73.38567999999997
 31
0.0
  0
LINE
  5
8F
330
17
100
AcDbEntity
  8
0
100
AcDbLine
 10
135.82929399999995
 20
-73.38567999999997
 30
0.0
 11
135.80871999999994
 21
-77.98485799999996
 31
0.0
  0
LINE
  5
90
330
17
100
AcDbEntity
  8
0
100
AcDbLine
 10
135.80871999999994
 20
-77.98485799999996
 30
0.0
 11
135.77569999999994
 21
-78.20075799999996
 31
0.0
  0
LINE
  5
91
330
17
100
AcDbEntity
  8
0
100
AcDbLine
 10
135.77569999999994
 20
-78.20075799999996
 30
0.0
 11
135.72210599999994
 21
-78.40929199999997
 31
0.0
  0
LINE
  5
92
330
17
100
AcDbEntity
  8
0
100
AcDbLine
 10
135.72210599999994
 20
-78.40929199999997
 30
0.0
 11
135.64895399999992
 21
-78.60918999999996
 31
0.0
  0
LINE
  5
93
330
17
100
AcDbEntity
  8
0
100
AcDbLine
 10
135.64895399999992
 20
-78.60918999999996
 30
0.0
 11
135.55725999999993
 21
-78.79918199999996
 31
0.0
  0
LINE
  5
94
330
17
100
AcDbEntity
  8
0
100
AcDbLine
 10
135.55725999999993
 20
-78.79918199999996
 30
0.0
 11
135.44829399999995
 21
-78.97850599999997
 31
0.0
  0
LINE
  5
95
330
17
100
AcDbEntity
  8
0
100
AcDbLine
 10
135.44829399999995
 20
-78.97850599999997
 30
0.0
 11
135.3230719999999
 21
-79.14589199999996
 31
0.0
  0
LINE
  5
96
330
17
100
AcDbEntity
  8
0
100
AcDbLine
 10
135.3230719999999
 20
-79.14589199999996
 30
0.0
 11
135.18260999999993
 21
-79.30032399999996
 31
0.0
  0
LINE
  5
97
330
17
100
AcDbEntity
  8
0
100
AcDbLine
 10
135.18260999999993
 20
-79.30032399999996
 30
0.0
 11
135.02817799999994
 21
-79.44078599999996
 31
0.0
  0
LINE
  5
98
330
17
100
AcDbEntity
  8
0
100
AcDbLine
 10
135.02817799999994
 20
-79.44078599999996
 30
0.0
 11
134.86079199999995
 21
-79.56600799999995
 31
0.0
  0
LINE
  5
99
330
17
100
AcDbEntity
  8
0
100
AcDbLine
 10
134.86079199999995
 20
-79.56600799999995
 30
0.0
 11
134.68146799999994
 21
-79.67497399999995
 31
0.0
  0
LINE
  5
9A
330
17
100
AcDbEntity
  8
0
100
AcDbLine
 10
134.68146799999994
 20
-79.67497399999995
 30
0.0
 11
134.49147599999992
 21
-79.76666799999995
 31
0.0
  0
LINE
  5
9B
330
17
100
AcDbEntity
  8
0
100
AcDbLine
 10
134.49147599999992
 20
-79.76666799999995
 30
0.0
 11
134.2915779999999
 21
-79.83981999999996
 31
0.0
  0
LINE
  5
9C
330
17
100
AcDbEntity
  8
0
100
AcDbLine
 10
134.2915779999999
 20
-79.83981999999996
 30
0.0
 11
134.08304399999992
 21
-79.89341399999995
 31
0.0
  0
LINE
  5
9D
330
17
100
AcDbEntity
  8
0
100
AcDbLine
 10
134.08304399999992
 20
-79.89341399999995
 30
0.0
 11
133.8671439999999
 21
-79.92643399999996
 31
0.0
  0
LINE
  5
9E
330
17
100
AcDbEntity
  8
0
100
AcDbLine
 10
133.8671439999999
 20
-79.92643399999996
 30
0.0
 11
120.7490599999999
 21
-79.92592599999995
 31
0.0
  0
LINE
  5
9F
330
17
100
AcDbEntity
  8
0
100
AcDbLine
 10
120.7490599999999
 20
-79.92592599999995
 30
0.0
 11
120.52579399999989
 21
-79.89188999999995
 31
0.0
  0
LINE
  5
A0
330
17
100
AcDbEntity
  8
0
100
AcDbLine
 10
120.52579399999989
 20
-79.89188999999995
 30
0.0
 11
120.3101479999999
 21
-79.83651799999994
 31
0.0
  0
LINE
  5
A1
330
17
100
AcDbEntity
  8
0
100
AcDbLine
 10
120.3101479999999
 20
-79.83651799999994
 30
0.0
 11
120.10339199999989
 21
-79.76082599999995
 31
0.0
  0
LINE
  5
A2
330
17
100
AcDbEntity
  8
0
100
AcDbLine
 10
120.10339199999989
 20
-79.76082599999995
 30
0.0
 11
119.90679599999989
 21
-79.66608399999994
 31
0.0
  0
LINE
  5
A3
330
17
100
AcDbEntity
  8
0
100
AcDbLine
 10
119.90679599999989
 20
-79.66608399999994
 30
0.0
 11
119.72137599999988
 21
-79.55330799999994
 31
0.0
  0
LINE
  5
A4
330
17
100
AcDbEntity
  8
0
100
AcDbLine
 10
119.72137599999988
 20
-79.55330799999994
 30
0.0
 11
119.54814799999988
 21
-79.42376799999994
 31
0.0
  0
LINE
  5
A5
330
17
100
AcDbEntity
  8
0
100
AcDbLine
 10
119.54814799999988
 20
-79.42376799999994
 30
0.0
 11
119.38838199999988
 21
-79.27847999999994
 31
0.0
  0
LINE
  5
A6
330
17
100
AcDbEntity
  8
0
100
AcDbLine
 10
119.38838199999988
 20
-79.27847999999994
 30
0.0
 11
119.24309399999987
 21
-79.11871399999994
 31
0.0
  0
LINE
  5
A7
330
17
100
AcDbEntity
  8
0
100
AcDbLine
 10
119.24309399999987
 20
-79.11871399999994
 30
0.0
 11
119.11355399999988
 21
-78.94548599999993
 31
0.0
  0
LINE
  5
A8
330
17
100
AcDbEntity
  8
0
100
AcDbLine
 10
119.11355399999988
 20
-78.94548599999993
 30
0.0
 11
119.00077799999987
 21
-78.76006599999994
 31
0.0
  0
LINE
  5
A9
330
17
100
AcDbEntity
  8
0
100
AcDbLine
 10
119.00077799999987
 20
-78.76006599999994
 30
0.0
 11
118.90603599999987
 21
-78.56346999999992
 31
0.0
  0
LINE
  5
AA
330
17
100
AcDbEntity
  8
0
100
AcDbLine
 10
118.90603599999987
 20
-78.56346999999992
 30
0.0
 11
118.83034399999987
 21
-78.35671399999993
 31
0.0
  0
LINE
  5
AB
330
17
100
AcDbEntity
  8
0
100
AcDbLine
 10
118.83034399999987
 20
-78.35671399999993
 30
0.0
 11
118.77497199999988
 21
-78.14106799999993
 31
0.0
  0
LINE
  5
AC
330
17
100
AcDbEntity
  8
0
100
AcDbLine
 10
118.77497199999988
 20
-78.14106799999993
 30
0.0
 11
118.74093599999986
 21
-77.91780199999992
 31
0.0
  0
LINE
  5
AD
330
17
100
AcDbEntity
  8
0
100
AcDbLine
 10
118.74093599999986
 20
-77.91780199999992
 30
0.0
 11
118.72010799999987
 21
-73.27696799999993
 31
0.0
  0
LINE
  5
AE
330
17
100
AcDbEntity
  8
0
100
AcDbLine
 10
118.72010799999987
 20
-73.27696799999993
 30
0.0
 11
118.69318399999987
 21
-73.10069199999991
 31
0.0
  0
LINE
  5
AF
330
17
100
AcDbEntity
  8
0
100
AcDbLine
 10
118.69318399999987
 20
-73.10069199999991
 30
0.0
 11
118.64949599999986
 21
-72.93051199999991
 31
0.0
  0
LINE
  5
B0
330
17
100
AcDbEntity
  8
0
100
AcDbLine
 10
118.64949599999986
 20
-72.93051199999991
 30
0.0
 11
118.59005999999987
 21
-72.76744399999991
 31
0.0
  0
LINE
  5
B1
330
17
100
AcDbEntity
  8
0
100
AcDbLine
 10
118.59005999999987
 20
-72.76744399999991
 30
0.0
 11
118.51563799999987
 21
-72.61224999999992
 31
0.0
  0
LINE
  5
B2
330
17
100
AcDbEntity
  8
0
100
AcDbLine
 10
118.51563799999987
 20
-72.61224999999992
 30
0.0
 11
118.42699199999987
 21
-72.46569199999992
 31
0.0
  0
LINE
  5
B3
330
17
100
AcDbEntity
  8
0
100
AcDbLine
 10
118.42699199999987
 20
-72.46569199999992
 30
0.0
 11
118.32513799999987
 21
-72.32878599999992
 31
0.0
  0
LINE
  5
B4
330
17
100
AcDbEntity
  8
0
100
AcDbLine
 10
118.32513799999987
 20
-72.32878599999992
 30
0.0
 11
118.21083799999987
 21
-72.20254799999991
 31
0.0
  0
LINE
  5
B5
330
17
100
AcDbEntity
  8
0
100
AcDbLine
 10
118.21083799999987
 20
-72.20254799999991
 30
0.0
 11
118.08510799999986
 21
-72.08773999999991
 31
0.0
  0
LINE
  5
B6
330
17
100
AcDbEntity
  8
0
100
AcDbLine
 10
118.08510799999986
 20
-72.08773999999991
 30
0.0
 11
117.94870999999988
 21
-71.98512399999991
 31
0.0
  0
LINE
  5
B7
330
17
100
AcDbEntity
  8
0
100
AcDbLine
 10
117.94870999999988
 20
-71.98512399999991
 30
0.0
 11
117.80265999999988
 21
-71.89571599999992
 31
0.0
  0
LINE
  5
B8
330
17
100
AcDbEntity
  8
0
100
AcDbLine
 10
117.80265999999988
 20
-71.89571599999992
 30
0.0
 11
117.64771999999988
 21
-71.82027799999992
 31
0.0
  0
LINE
  5
B9
330
17
100
AcDbEntity
  8
0
100
AcDbLine
 10
117.64771999999988
 20
-71.82027799999992
 30
0.0
 11
117.48490599999987
 21
-71.75982599999992
 31
0.0
  0
LINE
  5
BA
330
17
100
AcDbEntity
  8
0
100
AcDbLine
 10
117.48490599999987
 20
-71.75982599999992
 30
0.0
 11
117.31497999999988
 21
-71.7153759999999
 31
0.0
  0
LINE
  5
BB
330
17
100
AcDbEntity
  8
0
100
AcDbLine
 10
117.31497999999988
 20
-71.7153759999999
 30
0.0
 11
117.13895799999987
 21
-71.68768999999992
 31
0.0
  0
LINE
  5
BC
330
17
100
AcDbEntity
  8
0
100
AcDbLine
 10
117.13895799999987
 20
-71.68768999999992
 30
0.0
 11
94.03968999999988
 21
-71.55383199999991
 31
0.0
  0
LINE
  5
BD
330
17
100
AcDbEntity
  8
0
100
AcDbLine
 10
94.03968999999988
 20
-71.55383199999991
 30
0.0
 11
94.41611799999988
 21
-72.20153199999993
 31
0.0
  0
LINE
  5
BE
330
17
100
AcDbEntity
  8
0
100
AcDbLine
 10
94.41611799999988
 20
-72.20153199999993
 30
0.0
 11
94.76282799999989
 21
-72.97419999999991
 31
0.0
  0
LINE
  5
BF
330
17
100
AcDbEntity
  8
0
100
AcDbLine
 10
94.76282799999989
 20
-72.97419999999991
 30
0.0
 11
95.36760199999988
 21
-74.78090199999991
 31
0.0
  0
LINE
  5
C0
330
17
100
AcDbEntity
  8
0
100
AcDbLine
 10
95.36760199999988
 20
-74.78090199999991
 30
0.0
 11
96.29952799999987
 21
-78.96428199999993
 31
0.0
  0
LINE
  5
C1
330
17
100
AcDbEntity
  8
0
100
AcDbLine
 10
96.29952799999987
 20
-78.96428199999993
 30
0.0
 11
96.39528599999987
 21
-79.27085999999993
 31
0.0
  0
LINE
  5
C2
330
17
100
AcDbEntity
  8
0
100
AcDbLine
 10
96.39528599999987
 20
-79.27085999999993
 30
0.0
 11
96.51542799999987
 21
-79.56524599999992
 31
0.0
  0
LINE
  5
C3
330
17
100
AcDbEntity
  8
0
100
AcDbLine
 10
96.51542799999987
 20
-79.56524599999992
 30
0.0
 11
96.65842999999988
 21
-79.84616999999992
 31
0.0
  0
LINE
  5
C4
330
17
100
AcDbEntity
  8
0
100
AcDbLine
 10
96.65842999999988
 20
-79.84616999999992
 30
0.0
 11
96.82327599999988
 21
-80.11261599999992
 31
0.0
  0
LINE
  5
C5
330
17
100
AcDbEntity
  8
0
100
AcDbLine
 10
96.82327599999988
 20
-80.11261599999992
 30
0.0
 11
97.00869599999989
 21
-80.36331399999992
 31
0.0
  0
LINE
  5
C6
330
17
100
AcDbEntity
  8
0
100
AcDbLine
 10
97.00869599999989
 20
-80.36331399999992
 30
0.0
 11
97.21367399999988
 21
-80.59724799999992
 31
0.0
  0
LINE
  5
C7
330
17
100
AcDbEntity
  8
0
100
AcDbLine
 10
97.21367399999988
 20
-80.59724799999992
 30
0.0
 11
97.43668599999988
 21
-80.81314799999993
 31
0.0
  0
LINE
  5
C8
330
17
100
AcDbEntity
  8
0
100
AcDbLine
 10
97.43668599999988
 20
-80.81314799999993
 30
0.0
 11
97.67646199999989
 21
-81.00999799999991
 31
0.0
  0
LINE
  5
C9
330
17
100
AcDbEntity
  8
0
100
AcDbLine
 10
97.67646199999989
 20
-81.00999799999991
 30
0.0
 11
97.93198599999988
 21
-81.18652799999991
 31
0.0
  0
LINE
  5
CA
330
17
100
AcDbEntity
  8
0
100
AcDbLine
 10
97.93198599999988
 20
-81.18652799999991
 30
0.0
 11
98.20198799999987
 21
-81.34172199999992
 31
0.0
  0
LINE
  5
CB
330
17
100
AcDbEntity
  8
0
100
AcDbLine
 10
98.20198799999987
 20
-81.34172199999992
 30
0.0
 11
98.48519799999988
 21
-81.47430999999992
 31
0.0
  0
LINE
  5
CC
330
17
100
AcDbEntity
  8
0
100
AcDbLine
 10
98.48519799999988
 20
-81.47430999999992
 30
0.0
 11
98.78034599999987
 21
-81.5832759999999
 31
0.0
  0
LINE
  5
CD
330
17
100
AcDbEntity
  8
0
100
AcDbLine
 10
98.78034599999987
 20
-81.5832759999999
 30
0.0
 11
99.08641599999987
 21
-81.66734999999991
 31
0.0
  0
LINE
  5
CE
330
17
100
AcDbEntity
  8
0
100
AcDbLine
 10
99.08641599999987
 20
-81.66734999999991
 30
0.0
 11
99.40188399999987
 21
-81.72526199999992
 31
0.0
  0
LINE
  5
CF
330
17
100
AcDbEntity
  8
0
100
AcDbLine
 10
99.40188399999987
 20
-81.72526199999992
 30
0.0
 11
102.98201399999988
 21
-82.0221879999999
 31
0.0
  0
LINE
  5
D0
330
17
100
AcDbEntity
  8
0
100
AcDbLine
 10
102.98201399999988
 20
-82.0221879999999
 30
0.0
 11
107.31652399999987
 21
-82.73999199999992
 31
0.0
  0
LINE
  5
D1
330
17
100
AcDbEntity
  8
0
100
AcDbLine
 10
107.31652399999987
 20
-82.73999199999992
 30
0.0
 11
111.52377999999989
 21
-83.9729079999999
 31
0.0
  0
LINE
  5
D2
330
17
100
AcDbEntity
  8
0
100
AcDbLine
 10
111.52377999999989
 20
-83.9729079999999
 30
0.0
 11
113.53901599999989
 21
-84.81669599999991
 31
0.0
  0
LINE
  5
D3
330
17
100
AcDbEntity
  8
0
100
AcDbLine
 10
113.53901599999989
 20
-84.81669599999991
 30
0.0
 11
115.4737339999999
 21
-85.83015599999992
 31
0.0
  0
LINE
  5
D4
330
17
100
AcDbEntity
  8
0
100
AcDbLine
 10
115.4737339999999
 20
-85.83015599999992
 30
0.0
 11
117.28094399999989
 21
-87.02243199999991
 31
0.0
  0
LINE
  5
D5
330
17
100
AcDbEntity
  8
0
100
AcDbLine
 10
117.28094399999989
 20
-87.02243199999991
 30
0.0
 11
118.08510799999989
 21
-87.68613399999991
 31
0.0
  0
LINE
  5
D6
330
17
100
AcDbEntity
  8
0
100
AcDbLine
 10
118.08510799999989
 20
-87.68613399999991
 30
0.0
 11
119.5016659999999
 21
-89.13774399999991
 31
0.0
  0
LINE
  5
D7
330
17
100
AcDbEntity
  8
0
100
AcDbLine
 10
119.5016659999999
 20
-89.13774399999991
 30
0.0
 11
120.6987679999999
 21
-90.7333719999999
 31
0.0
  0
LINE
  5
D8
330
17
100
AcDbEntity
  8
0
100
AcDbLine
 10
120.6987679999999
 20
-90.7333719999999
 30
0.0
 11
121.7198479999999
 21
-92.4468559999999
 31
0.0
  0
LINE
  5
D9
330
17
100
AcDbEntity
  8
0
100
AcDbLine
 10
121.7198479999999
 20
-92.4468559999999
 30
0.0
 11
131.90905799999987
 21
-117.5847279999999
 31
0.0
  0
LINE
  5
DA
330
17
100
AcDbEntity
  8
0
100
AcDbLine
 10
131.90905799999987
 20
-117.5847279999999
 30
0.0
 11
132.10260599999987
 21
-118.4760139999999
 31
0.0
  0
LINE
  5
DB
330
17
100
AcDbEntity
  8
0
100
AcDbLine
 10
132.10260599999987
 20
-118.4760139999999
 30
0.0
 11
132.25424399999986
 21
-119.6276499999999
 31
0.0
  0
LINE
  5
DC
330
17
100
AcDbEntity
  8
0
100
AcDbLine
 10
132.25424399999986
 20
-119.6276499999999
 30
0.0
 11
132.26719799999987
 21
-120.2085479999999
 31
0.0
  0
LINE
  5
DD
330
17
100
AcDbEntity
  8
0
100
AcDbLine
 10
132.26719799999987
 20
-120.2085479999999
 30
0.0
 11
132.23214599999986
 21
-120.78614399999991
 31
0.0
  0
LINE
  5
DE
330
17
100
AcDbEntity
  8
0
100
AcDbLine
 10
132.23214599999986
 20
-120.78614399999991
 30
0.0
 11
132.14476999999985
 21
-121.3558659999999
 31
0.0
  0
LINE
  5
DF
330
17
100
AcDbEntity
  8
0
100
AcDbLine
 10
132.14476999999985
 20
-121.3558659999999
 30
0.0
 11
132.00075199999986
 21
-121.9128879999999
 31
0.0
  0
LINE
  5
E0
330
17
100
AcDbEntity
  8
0
100
AcDbLine
 10
132.00075199999986
 20
-121.9128879999999
 30
0.0
 11
131.79551999999987
 21
-122.4521299999999
 31
0.0
  0
LINE
  5
E1
330
17
100
AcDbEntity
  8
0
100
AcDbLine
 10
131.79551999999987
 20
-122.4521299999999
 30
0.0
 11
131.35355999999985
 21
-123.3129359999999
 31
0.0
  0
LINE
  5
E2
330
17
100
AcDbEntity
  8
0
100
AcDbLine
 10
131.35355999999985
 20
-123.3129359999999
 30
0.0
 11
131.27227999999985
 21
-123.55601399999989
 31
0.0
  0
LINE
  5
E3
330
17
100
AcDbEntity
  8
0
100
AcDbLine
 10
131.27227999999985
 20
-123.55601399999989
 30
0.0
 11
131.21995599999983
 21
-123.80696599999989
 31
0.0
  0
LINE
  5
E4
330
17
100
AcDbEntity
  8
0
100
AcDbLine
 10
131.21995599999983
 20
-123.80696599999989
 30
0.0
 11
131.20522399999984
 21
-123.9344739999999
 31
0.0
  0
LINE
  5
E5
330
17
100
AcDbEntity
  8
0
100
AcDbLine
 10
131.20522399999984
 20
-123.9344739999999
 30
0.0
 11
131.19938199999984
 21
-124.1925379999999
 31
0.0
  0
LINE
  5
E6
330
17
100
AcDbEntity
  8
0
100
AcDbLine
 10
131.19938199999984
 20
-124.1925379999999
 30
0.0
 11
131.2085259999998
 21
-124.31140999999991
 31
0.0
  0
LINE
  5
E7
330
17
100
AcDbEntity
  8
0
100
AcDbLine
 10
131.2085259999998
 20
-124.31140999999991
 30
0.0
 11
131.22528999999983
 21
-124.42393199999991
 31
0.0
  0
LINE
  5
E8
330
17
100
AcDbEntity
  8
0
100
AcDbLine
 10
131.22528999999983
 20
-124.42393199999991
 30
0.0
 11
131.24941999999984
 21
-124.5303579999999
 31
0.0
  0
LINE
  5
E9
330
17
100
AcDbEntity
  8
0
100
AcDbLine
 10
131.24941999999984
 20
-124.5303579999999
 30
0.0
 11
131.28040799999982
 21
-124.6309419999999
 31
0.0
  0
LINE
  5
EA
330
17
100
AcDbEntity
  8
0
100
AcDbLine
 10
131.28040799999982
 20
-124.6309419999999
 30
0.0
 11
131.31799999999984
 21
-124.72593799999991
 31
0.0
  0
LINE
  5
EB
330
17
100
AcDbEntity
  8
0
100
AcDbLine
 10
131.31799999999984
 20
-124.72593799999991
 30
0.0
 11
131.36194199999983
 21
-124.8155999999999
 31
0.0
  0
LINE
  5
EC
330
17
100
AcDbEntity
  8
0
100
AcDbLine
 10
131.36194199999983
 20
-124.8155999999999
 30
0.0
 11
131.41172599999985
 21
-124.90018199999992
 31
0.0
  0
LINE
  5
ED
330
17
100
AcDbEntity
  8
0
100
AcDbLine
 10
131.41172599999985
 20
-124.90018199999992
 30
0.0
 11
131.46709799999982
 21
-124.97993799999992
 31
0.0
  0
LINE
  5
EE
330
17
100
AcDbEntity
  8
0
100
AcDbLine
 10
131.46709799999982
 20
-124.97993799999992
 30
0.0
 11
131.59358999999984
 21
-125.12598799999992
 31
0.0
  0
LINE
  5
EF
330
17
100
AcDbEntity
  8
0
100
AcDbLine
 10
131.59358999999984
 20
-125.12598799999992
 30
0.0
 11
131.73862399999985
 21
-125.25603599999992
 31
0.0
  0
LINE
  5
F0
330
17
100
AcDbEntity
  8
0
100
AcDbLine
 10
131.73862399999985
 20
-125.25603599999992
 30
0.0
 11
131.89940599999986
 21
-125.37185999999993
 31
0.0
  0
LINE
  5
F1
330
17
100
AcDbEntity
  8
0
100
AcDbLine
 10
131.89940599999986
 20
-125.37185999999993
 30
0.0
 11
132.25805399999987
 21
-125.56972599999992
 31
0.0
  0
LINE
  5
F2
330
17
100
AcDbEntity
  8
0
100
AcDbLine
 10
132.25805399999987
 20
-125.56972599999992
 30
0.0
 11
133.43940799999984
 21
-126.04292799999992
 31
0.0
  0
LINE
  5
F3
330
17
100
AcDbEntity
  8
0
100
AcDbLine
 10
133.43940799999984
 20
-126.04292799999992
 30
0.0
 11
133.85418999999987
 21
-126.24485799999992
 31
0.0
  0
LINE
  5
F4
330
17
100
AcDbEntity
  8
0
100
AcDbLine
 10
133.85418999999987
 20
-126.24485799999992
 30
0.0
 11
134.24636599999985
 21
-126.48514199999994
 31
0.0
  0
LINE
  5
F5
330
17
100
AcDbEntity
  8
0
100
AcDbLine
 10
134.24636599999985
 20
-126.48514199999994
 30
0.0
 11
134.61618999999985
 21
-126.75996999999992
 31
0.0
  0
LINE
  5
F6
330
17
100
AcDbEntity
  8
0
100
AcDbLine
 10
134.61618999999985
 20
-126.75996999999992
 30
0.0
 11
134.96340799999984
 21
-127.06527799999994
 31
0.0
  0
LINE
  5
F7
330
17
100
AcDbEntity
  8
0
100
AcDbLine
 10
134.96340799999984
 20
-127.06527799999994
 30
0.0
 11
135.58951799999986
 21
-127.75158599999993
 31
0.0
  0
LINE
  5
F8
330
17
100
AcDbEntity
  8
0
100
AcDbLine
 10
135.58951799999986
 20
-127.75158599999993
 30
0.0
 11
136.12418799999986
 21
-128.51282399999994
 31
0.0
  0
LINE
  5
F9
330
17
100
AcDbEntity
  8
0
100
AcDbLine
 10
136.12418799999986
 20
-128.51282399999994
 30
0.0
 11
139.17853799999986
 21
-135.89101599999992
 31
0.0
  0
LINE
  5
FA
330
17
100
AcDbEntity
  8
0
100
AcDbLine
 10
139.17853799999986
 20
-135.89101599999992
 30
0.0
 11
139.26946999999984
 21
-136.28014399999992
 31
0.0
  0
LINE
  5
FB
330
17
100
AcDbEntity
  8
0
100
AcDbLine
 10
139.26946999999984
 20
-136.28014399999992
 30
0.0
 11
139.42110799999983
 21
-137.43177999999992
 31
0.0
  0
LINE
  5
FC
330
17
100
AcDbEntity
  8
0
100
AcDbLine
 10
139.42110799999983
 20
-137.43177999999992
 30
0.0
 11
139.43406199999984
 21
-138.01242399999992
 31
0.0
  0
LINE
  5
FD
330
17
100
AcDbEntity
  8
0
100
AcDbLine
 10
139.43406199999984
 20
-138.01242399999992
 30
0.0
 11
139.39900999999983
 21
-138.59001999999992
 31
0.0
  0
LINE
  5
FE
330
17
100
AcDbEntity
  8
0
100
AcDbLine
 10
139.39900999999983
 20
-138.59001999999992
 30
0.0
 11
139.31163399999983
 21
-139.15974199999994
 31
0.0
  0
LINE
  5
FF
330
17
100
AcDbEntity
  8
0
100
AcDbLine
 10
139.31163399999983
 20
-139.15974199999994
 30
0.0
 11
139.16761599999984
 21
-139.71650999999994
 31
0.0
  0
LINE
  5
100
330
17
100
AcDbEntity
  8
0
100
AcDbLine
 10
139.16761599999984
 20
-139.71650999999994
 30
0.0
 11
138.96238399999984
 21
-140.25575199999994
 31
0.0
  0
LINE
  5
101
330
17
100
AcDbEntity
  8
0
100
AcDbLine
 10
138.96238399999984
 20
-140.25575199999994
 30
0.0
 11
138.52042399999982
 21
-141.11655799999994
 31
0.0
  0
LINE
  5
102
330
17
100
AcDbEntity
  8
0
100
AcDbLine
 10
138.52042399999982
 20
-141.11655799999994
 30
0.0
 11
138.43914399999983
 21
-141.35963599999994
 31
0.0
  0
LINE
  5
103
330
17
100
AcDbEntity
  8
0
100
AcDbLine
 10
138.43914399999983
 20
-141.35963599999994
 30
0.0
 11
138.3868199999998
 21
-141.61058799999995
 31
0.0
  0
LINE
  5
104
330
17
100
AcDbEntity
  8
0
100
AcDbLine
 10
138.3868199999998
 20
-141.61058799999995
 30
0.0
 11
138.37208799999982
 21
-141.73809599999996
 31
0.0
  0
LINE
  5
105
330
17
100
AcDbEntity
  8
0
100
AcDbLine
 10
138.37208799999982
 20
-141.73809599999996
 30
0.0
 11
138.36624599999982
 21
-141.99641399999996
 31
0.0
  0
LINE
  5
106
330
17
100
AcDbEntity
  8
0
100
AcDbLine
 10
138.36624599999982
 20
-141.99641399999996
 30
0.0
 11
138.37538999999978
 21
-142.11553999999998
 31
0.0
  0
LINE
  5
107
330
17
100
AcDbEntity
  8
0
100
AcDbLine
 10
138.37538999999978
 20
-142.11553999999998
 30
0.0
 11
138.3921539999998
 21
-142.22806199999997
 31
0.0
  0
LINE
  5
108
330
17
100
AcDbEntity
  8
0
100
AcDbLine
 10
138.3921539999998
 20
-142.22806199999997
 30
0.0
 11
138.4160299999998
 21
-142.33448799999996
 31
0.0
  0
LINE
  5
109
330
17
100
AcDbEntity
  8
0
100
AcDbLine
 10
138.4160299999998
 20
-142.33448799999996
 30
0.0
 11
138.44701799999982
 21
-142.43507199999996
 31
0.0
  0
LINE
  5
10A
330
17
100
AcDbEntity
  8
0
100
AcDbLine
 10
138.44701799999982
 20
-142.43507199999996
 30
0.0
 11
138.4846099999998
 21
-142.53006799999997
 31
0.0
  0
LINE
  5
10B
330
17
100
AcDbEntity
  8
0
100
AcDbLine
 10
138.4846099999998
 20
-142.53006799999997
 30
0.0
 11
138.52855199999982
 21
-142.61972999999995
 31
0.0
  0
LINE
  5
10C
330
17
100
AcDbEntity
  8
0
100
AcDbLine
 10
138.52855199999982
 20
-142.61972999999995
 30
0.0
 11
138.5783359999998
 21
-142.70431199999993
 31
0.0
  0
LINE
  5
10D
330
17
100
AcDbEntity
  8
0
100
AcDbLine
 10
138.5783359999998
 20
-142.70431199999993
 30
0.0
 11
138.6337079999998
 21
-142.78406799999993
 31
0.0
  0
LINE
  5
10E
330
17
100
AcDbEntity
  8
0
100
AcDbLine
 10
138.6337079999998
 20
-142.78406799999993
 30
0.0
 11
138.76019999999983
 21
-142.93011799999994
 31
0.0
  0
LINE
  5
10F
330
17
100
AcDbEntity
  8
0
100
AcDbLine
 10
138.76019999999983
 20
-142.93011799999994
 30
0.0
 11
138.90523399999984
 21
-143.06016599999992
 31
0.0
  0
LINE
  5
110
330
17
100
AcDbEntity
  8
0
100
AcDbLine
 10
138.90523399999984
 20
-143.06016599999992
 30
0.0
 11
139.06601599999982
 21
-143.17598999999993
 31
0.0
  0
LINE
  5
111
330
17
100
AcDbEntity
  8
0
100
AcDbLine
 10
139.06601599999982
 20
-143.17598999999993
 30
0.0
 11
139.42466399999984
 21
-143.37410999999992
 31
0.0
  0
LINE
  5
112
330
17
100
AcDbEntity
  8
0
100
AcDbLine
 10
139.42466399999984
 20
-143.37410999999992
 30
0.0
 11
140.97609599999984
 21
-144.0202859999999
 31
0.0
  0
LINE
  5
113
330
17
100
AcDbEntity
  8
0
100
AcDbLine
 10
140.97609599999984
 20
-144.0202859999999
 30
0.0
 11
141.32305999999983
 21
-144.2133259999999
 31
0.0
  0
LINE
  5
114
330
17
100
AcDbEntity
  8
0
100
AcDbLine
 10
141.32305999999983
 20
-144.2133259999999
 30
0.0
 11
141.64767199999983
 21
-144.42541599999993
 31
0.0
  0
LINE
  5
115
330
17
100
AcDbEntity
  8
0
100
AcDbLine
 10
141.64767199999983
 20
-144.42541599999993
 30
0.0
 11
141.9509479999998
 21
-144.65579399999993
 31
0.0
  0
LINE
  5
116
330
17
100
AcDbEntity
  8
0
100
AcDbLine
 10
141.9509479999998
 20
-144.65579399999993
 30
0.0
 11
142.49603199999981
 21
-145.16709599999996
 31
0.0
  0
LINE
  5
117
330
17
100
AcDbEntity
  8
0
100
AcDbLine
 10
142.49603199999981
 20
-145.16709599999996
 30
0.0
 11
142.96491599999982
 21
-145.73986599999995
 31
0.0
  0
LINE
  5
118
330
17
100
AcDbEntity
  8
0
100
AcDbLine
 10
142.96491599999982
 20
-145.73986599999995
 30
0.0
 11
143.36394999999982
 21
-146.36622999999994
 31
0.0
  0
LINE
  5
119
330
17
100
AcDbEntity
  8
0
100
AcDbLine
 10
143.36394999999982
 20
-146.36622999999994
 30
0.0
 11
143.69973799999983
 21
-147.03856799999997
 31
0.0
  0
LINE
  5
11A
330
17
100
AcDbEntity
  8
0
100
AcDbLine
 10
143.69973799999983
 20
-147.03856799999997
 30
0.0
 11
143.97837599999983
 21
-147.74951399999995
 31
0.0
  0
LINE
  5
11B
330
17
100
AcDbEntity
  8
0
100
AcDbLine
 10
143.97837599999983
 20
-147.74951399999995
 30
0.0
 11
144.3903639999998
 21
-149.25624199999996
 31
0.0
  0
LINE
  5
11C
330
17
100
AcDbEntity
  8
0
100
AcDbLine
 10
144.3903639999998
 20
-149.25624199999996
 30
0.0
 11
145.01291799999981
 21
-154.90240799999998
 31
0.0
  0
LINE
  5
11D
330
17
100
AcDbEntity
  8
0
100
AcDbLine
 10
145.01291799999981
 20
-154.90240799999998
 30
0.0
 11
145.0766719999998
 21
-155.16936199999998
 31
0.0
  0
LINE
  5
11E
330
17
100
AcDbEntity
  8
0
100
AcDbLine
 10
145.0766719999998
 20
-155.16936199999998
 30
0.0
 11
145.1660799999998
 21
-155.424378
 31
0.0
  0
LINE
  5
11F
330
17
100
AcDbEntity
  8
0
100
AcDbLine
 10
145.1660799999998
 20
-155.424378
 30
0.0
 11
145.2793639999998
 21
-155.66618599999998
 31
0.0
  0
LINE
  5
120
330
17
100
AcDbEntity
  8
0
100
AcDbLine
 10
145.2793639999998
 20
-155.66618599999998
 30
0.0
 11
145.4152539999998
 21
-155.89351599999998
 31
0.0
  0
LINE
  5
121
330
17
100
AcDbEntity
  8
0
100
AcDbLine
 10
145.4152539999998
 20
-155.89351599999998
 30
0.0
 11
145.5719719999998
 21
-156.10509799999997
 31
0.0
  0
LINE
  5
122
330
17
100
AcDbEntity
  8
0
100
AcDbLine
 10
145.5719719999998
 20
-156.10509799999997
 30
0.0
 11
145.74799399999978
 21
-156.29966199999996
 31
0.0
  0
LINE
  5
123
330
17
100
AcDbEntity
  8
0
100
AcDbLine
 10
145.74799399999978
 20
-156.29966199999996
 30
0.0
 11
145.94179599999978
 21
-156.47593799999996
 31
0.0
  0
LINE
  5
124
330
17
100
AcDbEntity
  8
0
100
AcDbLine
 10
145.94179599999978
 20
-156.47593799999996
 30
0.0
 11
146.1515999999998
 21
-156.63240199999996
 31
0.0
  0
LINE
  5
125
330
17
100
AcDbEntity
  8
0
100
AcDbLine
 10
146.1515999999998
 20
-156.63240199999996
 30
0.0
 11
146.3761359999998
 21
-156.76803799999993
 31
0.0
  0
LINE
  5
126
330
17
100
AcDbEntity
  8
0
100
AcDbLine
 10
146.3761359999998
 20
-156.76803799999993
 30
0.0
 11
146.61362599999978
 21
-156.88132199999995
 31
0.0
  0
LINE
  5
127
330
17
100
AcDbEntity
  8
0
100
AcDbLine
 10
146.61362599999978
 20
-156.88132199999995
 30
0.0
 11
146.8627999999998
 21
-156.97123799999997
 31
0.0
  0
LINE
  5
128
330
17
100
AcDbEntity
  8
0
100
AcDbLine
 10
146.8627999999998
 20
-156.97123799999997
 30
0.0
 11
147.12187999999978
 21
-157.03626199999997
 31
0.0
  0
LINE
  5
129
330
17
100
AcDbEntity
  8
0
100
AcDbLine
 10
147.12187999999978
 20
-157.03626199999997
 30
0.0
 11
147.38934199999977
 21
-157.07512399999996
 31
0.0
  0
LINE
  5
12A
330
17
100
AcDbEntity
  8
0
100
AcDbLine
 10
147.38934199999977
 20
-157.07512399999996
 30
0.0
 11
147.6636619999998
 21
-157.08680799999996
 31
0.0
  0
LINE
  5
12B
330
17
100
AcDbEntity
  8
0
100
AcDbLine
 10
147.6636619999998
 20
-157.08680799999996
 30
0.0
 11
180.5218639999998
 21
-153.38831399999995
 31
0.0
  0
LINE
  5
12C
330
17
100
AcDbEntity
  8
0
100
AcDbLine
 10
180.5218639999998
 20
-153.38831399999995
 30
0.0
 11
180.7342079999998
 21
-153.34005399999995
 31
0.0
  0
LINE
  5
12D
330
17
100
AcDbEntity
  8
0
100
AcDbLine
 10
180.7342079999998
 20
-153.34005399999995
 30
0.0
 11
180.9371539999998
 21
-153.27350599999997
 31
0.0
  0
LINE
  5
12E
330
17
100
AcDbEntity
  8
0
100
AcDbLine
 10
180.9371539999998
 20
-153.27350599999997
 30
0.0
 11
181.1307019999998
 21
-153.18968599999997
 31
0.0
  0
LINE
  5
12F
330
17
100
AcDbEntity
  8
0
100
AcDbLine
 10
181.1307019999998
 20
-153.18968599999997
 30
0.0
 11
181.3148519999998
 21
-153.08960999999996
 31
0.0
  0
LINE
  5
130
330
17
100
AcDbEntity
  8
0
100
AcDbLine
 10
181.3148519999998
 20
-153.08960999999996
 30
0.0
 11
181.4901119999998
 21
-152.97403999999995
 31
0.0
  0
LINE
  5
131
330
17
100
AcDbEntity
  8
0
100
AcDbLine
 10
181.4901119999998
 20
-152.97403999999995
 30
0.0
 11
181.6564819999998
 21
-152.84399199999996
 31
0.0
  0
LINE
  5
132
330
17
100
AcDbEntity
  8
0
100
AcDbLine
 10
181.6564819999998
 20
-152.84399199999996
 30
0.0
 11
181.96305999999979
 21
-152.54452599999996
 31
0.0
  0
LINE
  5
133
330
17
100
AcDbEntity
  8
0
100
AcDbLine
 10
181.96305999999979
 20
-152.54452599999996
 30
0.0
 11
182.23585599999979
 21
-152.19883199999995
 31
0.0
  0
LINE
  5
134
330
17
100
AcDbEntity
  8
0
100
AcDbLine
 10
182.23585599999979
 20
-152.19883199999995
 30
0.0
 11
182.4761399999998
 21
-151.81452999999996
 31
0.0
  0
LINE
  5
135
330
17
100
AcDbEntity
  8
0
100
AcDbLine
 10
182.4761399999998
 20
-151.81452999999996
 30
0.0
 11
182.68543599999978
 21
-151.39923999999996
 31
0.0
  0
LINE
  5
136
330
17
100
AcDbEntity
  8
0
100
AcDbLine
 10
182.68543599999978
 20
-151.39923999999996
 30
0.0
 11
183.01588999999979
 21
-150.50617599999998
 31
0.0
  0
LINE
  5
137
330
17
100
AcDbEntity
  8
0
100
AcDbLine
 10
183.01588999999979
 20
-150.50617599999998
 30
0.0
 11
183.2376319999998
 21
-149.58059999999998
 31
0.0
  0
LINE
  5
138
330
17
100
AcDbEntity
  8
0
100
AcDbLine
 10
183.2376319999998
 20
-149.58059999999998
 30
0.0
 11
183.3608219999998
 21
-148.68397999999996
 31
0.0
  0
LINE
  5
139
330
17
100
AcDbEntity
  8
0
100
AcDbLine
 10
183.3608219999998
 20
-148.68397999999996
 30
0.0
 11
183.39231799999982
 21
-147.69668199999998
 31
0.0
  0
LINE
  5
13A
330
17
100
AcDbEntity
  8
0
100
AcDbLine
 10
82.55711199999982
 20
-75.820016
 30
0.0
 11
81.84159399999982
 21
-73.782682
 31
0.0
  0
LINE
  5
13B
330
17
100
AcDbEntity
  8
0
100
AcDbLine
 10
81.84159399999982
 20
-73.782682
 30
0.0
 11
81.59953199999983
 21
-72.733662
 31
0.0
  0
LINE
  5
13C
330
17
100
AcDbEntity
  8
0
100
AcDbLine
 10
81.59953199999983
 20
-72.733662
 30
0.0
 11
81.47761199999982
 21
-71.67117999999999
 31
0.0
  0
LINE
  5
13D
330
17
100
AcDbEntity
  8
0
100
AcDbLine
 10
81.47761199999982
 20
-71.67117999999999
 30
0.0
 11
81.47684999999983
 21
-71.48017199999998
 31
0.0
  0
LINE
  5
13E
330
17
100
AcDbEntity
  8
0
100
AcDbLine
 10
81.47684999999983
 20
-71.48017199999998
 30
0.0
 11
81.48954999999982
 21
-71.298054
 31
0.0
  0
LINE
  5
13F
330
17
100
AcDbEntity
  8
0
100
AcDbLine
 10
81.48954999999982
 20
-71.298054
 30
0.0
 11
55.05246799999983
 21
-71.298054
 31
0.0
  0
LINE
  5
140
330
17
100
AcDbEntity
  8
0
100
AcDbLine
 10
55.05246799999983
 20
-71.298054
 30
0.0
 11
55.07050199999983
 21
-76.623418
 31
0.0
  0
LINE
  5
141
330
17
100
AcDbEntity
  8
0
100
AcDbLine
 10
55.07050199999983
 20
-76.623418
 30
0.0
 11
55.123079999999824
 21
-76.96835
 31
0.0
  0
LINE
  5
142
330
17
100
AcDbEntity
  8
0
100
AcDbLine
 10
55.123079999999824
 20
-76.96835
 30
0.0
 11
55.20867799999982
 21
-77.30109
 31
0.0
  0
LINE
  5
143
330
17
100
AcDbEntity
  8
0
100
AcDbLine
 10
55.20867799999982
 20
-77.30109
 30
0.0
 11
55.325517999999825
 21
-77.62011399999999
 31
0.0
  0
LINE
  5
144
330
17
100
AcDbEntity
  8
0
100
AcDbLine
 10
55.325517999999825
 20
-77.62011399999999
 30
0.0
 11
55.47182199999982
 21
-77.92364399999998
 31
0.0
  0
LINE
  5
145
330
17
100
AcDbEntity
  8
0
100
AcDbLine
 10
55.47182199999982
 20
-77.92364399999998
 30
0.0
 11
55.64581199999982
 21
-78.20990199999999
 31
0.0
  0
LINE
  5
146
330
17
100
AcDbEntity
  8
0
100
AcDbLine
 10
55.64581199999982
 20
-78.20990199999999
 30
0.0
 11
55.84570999999982
 21
-78.477364
 31
0.0
  0
LINE
  5
147
330
17
100
AcDbEntity
  8
0
100
AcDbLine
 10
55.84570999999982
 20
-78.477364
 30
0.0
 11
56.06973799999982
 21
-78.723998
 31
0.0
  0
LINE
  5
148
330
17
100
AcDbEntity
  8
0
100
AcDbLine
 10
56.06973799999982
 20
-78.723998
 30
0.0
 11
56.316371999999824
 21
-78.94827999999998
 31
0.0
  0
LINE
  5
149
330
17
100
AcDbEntity
  8
0
100
AcDbLine
 10
56.316371999999824
 20
-78.94827999999998
 30
0.0
 11
56.58357999999982
 21
-79.14843199999999
 31
0.0
  0
LINE
  5
14A
330
17
100
AcDbEntity
  8
0
100
AcDbLine
 10
56.58357999999982
 20
-79.14843199999999
 30
0.0
 11
56.869837999999824
 21
-79.32242199999999
 31
0.0
  0
LINE
  5
14B
330
17
100
AcDbEntity
  8
0
100
AcDbLine
 10
56.869837999999824
 20
-79.32242199999999
 30
0.0
 11
57.173367999999826
 21
-79.46872599999999
 31
0.0
  0
LINE
  5
14C
330
17
100
AcDbEntity
  8
0
100
AcDbLine
 10
57.173367999999826
 20
-79.46872599999999
 30
0.0
 11
57.492391999999825
 21
-79.58556599999999
 31
0.0
  0
LINE
  5
14D
330
17
100
AcDbEntity
  8
0
100
AcDbLine
 10
57.492391999999825
 20
-79.58556599999999
 30
0.0
 11
57.825131999999826
 21
-79.67141799999999
 31
0.0
  0
LINE
  5
14E
330
17
100
AcDbEntity
  8
0
100
AcDbLine
 10
57.825131999999826
 20
-79.67141799999999
 30
0.0
 11
58.16980999999982
 21
-79.72425
 31
0.0
  0
LINE
  5
14F
330
17
100
AcDbEntity
  8
0
100
AcDbLine
 10
58.16980999999982
 20
-79.72425
 30
0.0
 11
84.42197999999983
 21
-79.76082600000001
 31
0.0
  0
LINE
  5
150
330
17
100
AcDbEntity
  8
0
100
AcDbLine
 10
84.42197999999983
 20
-79.76082600000001
 30
0.0
 11
84.27415199999983
 21
-79.520796
 31
0.0
  0
LINE
  5
151
330
17
100
AcDbEntity
  8
0
100
AcDbLine
 10
84.27415199999983
 20
-79.520796
 30
0.0
 11
82.55736599999983
 21
-75.819508
 31
0.0
  0
ENDSEC
  0
SECTION
  2
OBJECTS
  0
DICTIONARY
  5
A
330
0
100
AcDbDictionary
281
1
  3
ACAD_COLOR
350
B
  3
ACAD_GROUP
350
C
  3
ACAD_LAYOUT
350
D
  3
ACAD_MATERIAL
350
E
  3
ACAD_MLEADERSTYLE
350
F
  3
ACAD_MLINESTYLE
350
10
  3
ACAD_PLOTSETTINGS
350
11
  3
ACAD_PLOTSTYLENAME
350
12
  3
ACAD_SCALELIST
350
14
  3
ACAD_TABLESTYLE
350
15
  3
ACAD_VISUALSTYLE
350
16
  3
EZDXF_META
350
2D
  0
DICTIONARY
  5
B
330
A
100
AcDbDictionary
281
1
  0
DICTIONARY
  5
C
330
A
100
AcDbDictionary
281
1
  0
DICTIONARY
  5
D
330
A
100
AcDbDictionary
281
1
  3
Model
350
1A
  3
Layout1
350
1E
  0
DICTIONARY
  5
E
330
A
100
AcDbDictionary
281
1
  3
ByBlock
350
1F
  3
ByLayer
350
20
  3
Global
350
21
  0
DICTIONARY
  5
F
330
A
100
AcDbDictionary
281
1
  3
Standard
350
2C
  0
DICTIONARY
  5
10
330
A
100
AcDbDictionary
281
1
  3
Standard
350
22
  0
DICTIONARY
  5
11
330
A
100
AcDbDictionary
281
1
  0
ACDBDICTIONARYWDFLT
  5
12
330
A
100
AcDbDictionary
281
1
  3
Normal
350
13
100
AcDbDictionaryWithDefault
340
13
  0
ACDBPLACEHOLDER
  5
13
330
12
  0
DICTIONARY
  5
14
330
A
100
AcDbDictionary
281
1
  0
DICTIONARY
  5
15
330
A
100
AcDbDictionary
281
1
  0
DICTIONARY
  5
16
330
A
100
AcDbDictionary
281
1
  0
LAYOUT
  5
1A
330
D
100
AcDbPlotSettings
  1

  4
A3
  6

 40
7.5
 41
20.0
 42
7.5
 43
20.0
 44
420.0
 45
297.0
 46
0.0
 47
0.0
 48
0.0
 49
0.0
140
0.0
141
0.0
142
1.0
143
1.0
 70
1024
 72
1
 73
0
 74
5
  7

 75
16
 76
0
 77
2
 78
300
147
1.0
148
0.0
149
0.0
100
AcDbLayout
  1
Model
 70
1
 71
0
 10
0.0
 20
0.0
 11
420.0
 21
297.0
 12
0.0
 22
0.0
 32
0.0
 14
1e+20
 24
1e+20
 34
1e+20
 15
-1e+20
 25
-1e+20
 35
-1e+20
146
0.0
 13
0.0
 23
0.0
 33
0.0
 16
1.0
 26
0.0
 36
0.0
 17
0.0
 27
1.0
 37
0.0
 76
1
330
17
  0
LAYOUT
  5
1E
330
D
100
AcDbPlotSettings
  1

  4
A3
  6

 40
7.5
 41
20.0
 42
7.5
 43
20.0
 44
420.0
 45
297.0
 46
0.0
 47
0.0
 48
0.0
 49
0.0
140
0.0
141
0.0
142
1.0
143
1.0
 70
0
 72
1
 73
0
 74
5
  7

 75
16
 76
0
 77
2
 78
300
147
1.0
148
0.0
149
0.0
100
AcDbLayout
  1
Layout1
 70
1
 71
1
 10
0.0
 20
0.0
 11
420.0
 21
297.0
 12
0.0
 22
0.0
 32
0.0
 14
1e+20
 24
1e+20
 34
1e+20
 15
-1e+20
 25
-1e+20
 35
-1e+20
146
0.0
 13
0.0
 23
0.0
 33
0.0
 16
1.0
 26
0.0
 36
0.0
 17
0.0
 27
1.0
 37
0.0
 76
1
330
1B
  0
MATERIAL
  5
1F
102
{ACAD_REACTORS
330
E
102
}
330
E
100
AcDbMaterial
  1
ByBlock
  2

 70
0
 40
1.0
 71
1
 41
1.0
 91
-1023410177
 42
1.0
 72
1
  3

 73
1
 74
1
 75
1
 44
0.5
 73
0
 45
1.0
 46
1.0
 77
1
  4

 78
1
 79
1
170
1
 48
1.0
171
1
  6

172
1
173
1
174
1
140
1.0
141
1.0
175
1
  7

176
1
177
1
178
1
143
1.0
179
1
  8

270
1
271
1
272
1
145
1.0
146
1.0
273
1
  9

274
1
275
1
276
1
 42
1.0
 72
1
  3

 73
1
 74
1
 75
1
 94
63
  0
MATERIAL
  5
20
102
{ACAD_REACTORS
330
E
102
}
330
E
100
AcDbMaterial
  1
ByLayer
  2

 70
0
 40
1.0
 71
1
 41
1.0
 91
-1023410177
 42
1.0
 72
1
  3

 73
1
 74
1
 75
1
 44
0.5
 73
0
 45
1.0
 46
1.0
 77
1
  4

 78
1
 79
1
170
1
 48
1.0
171
1
  6

172
1
173
1
174
1
140
1.0
141
1.0
175
1
  7

176
1
177
1
178
1
143
1.0
179
1
  8

270
1
271
1
272
1
145
1.0
146
1.0
273
1
  9

274
1
275
1
276
1
 42
1.0
 72
1
  3

 73
1
 74
1
 75
1
 94
63
  0
MATERIAL
  5
21
102
{ACAD_REACTORS
330
E
102
}
330
E
100
AcDbMaterial
  1
Global
  2

 70
0
 40
1.0
 71
1
 41
1.0
 91
-1023410177
 42
1.0
 72
1
  3

 73
1
 74
1
 75
1
 44
0.5
 73
0
 45
1.0
 46
1.0
 77
1
  4

 78
1
 79
1
170
1
 48
1.0
171
1
  6

172
1
173
1
174
1
140
1.0
141
1.0
175
1
  7

176
1
177
1
178
1
143
1.0
179
1
  8

270
1
271
1
272
1
145
1.0
146
1.0
273
1
  9

274
1
275
1
276
1
 42
1.0
 72
1
  3

 73
1
 74
1
 75
1
 94
63
  0
MLINESTYLE
  5
22
102
{ACAD_REACTORS
330
10
102
}
330
10
100
AcDbMlineStyle
  2
Standard
 70
0
  3

 62
256
 51
90.0
 52
90.0
 71
2
 49
0.5
 62
256
  6
BYLAYER
 49
-0.5
 62
256
  6
BYLAYER
  0
MLEADERSTYLE
  5
2C
102
{ACAD_REACTORS
330
F
102
}
330
F
100
AcDbMLeaderStyle
179
2
170
2
171
1
172
0
 90
2
 40
0.0
 41
0.0
173
1
 91
-1056964608
 92
-2
290
1
 42
2.0
291
1
 43
8.0
  3
Standard
 44
4.0
300

342
29
174
1
175
1
176
0
178
1
 93
-1056964608
 45
4.0
292
0
297
0
 46
4.0
 94
-1056964608
 47
1.0
 49
1.0
140
1.0
294
1
141
0.0
177
0
142
1.0
295
0
296
0
143
3.75
271
0
272
9
273
9
  0
DICTIONARY
  5
2D
330
A
100
AcDbDictionary
280
1
281
1
  3
CREATED_BY_EZDXF
350
2E
  3
WRITTEN_BY_EZDXF
350
154
  0
DICTIONARYVAR
  5
2E
330
2D
100
DictionaryVariables
280
0
  1
1.4.3 @ 2026-04-08T00:18:17.889614+00:00
  0
DICTIONARYVAR
  5
154
330
2D
100
DictionaryVariables
280
0
  1
1.4.3 @ 2026-04-08T00:18:17.892562+00:00
  0
ENDSEC
  0
EOF
