  0
SECTION
  2
HEADER
  9
$ACADVER
  1
AC1024
  9
$ACADMAINTVER
 70
6
  9
$DWGCODEPAGE
  3
ANSI_1252
  9
$LASTSAVEDBY
  1
ezdxf
  9
$INSBASE
 10
0.0
 20
0.0
 30
0.0
  9
$EXTMIN
 10
1e+20
 20
1e+20
 30
1e+20
  9
$EXTMAX
 10
-1e+20
 20
-1e+20
 30
-1e+20
  9
$LIMMIN
 10
0.0
 20
0.0
  9
$LIMMAX
 10
420.0
 20
297.0
  9
$ORTHOMODE
 70
0
  9
$REGENMODE
 70
1
  9
$FILLMODE
 70
1
  9
$QTEXTMODE
 70
0
  9
$MIRRTEXT
 70
1
  9
$LTSCALE
 40
1.0
  9
$ATTMODE
 70
1
  9
$TEXTSIZE
 40
2.5
  9
$TRACEWID
 40
1.0
  9
$TEXTSTYLE
  7
Standard
  9
$CLAYER
  8
0
  9
$CELTYPE
  6
ByLayer
  9
$CECOLOR
 62
256
  9
$CELTSCALE
 40
1.0
  9
$DISPSILH
 70
0
  9
$DIMSCALE
 40
1.0
  9
$DIMASZ
 40
2.5
  9
$DIMEXO
 40
0.625
  9
$DIMDLI
 40
3.75
  9
$DIMRND
 40
0.0
  9
$DIMDLE
 40
0.0
  9
$DIMEXE
 40
1.25
  9
$DIMTP
 40
0.0
  9
$DIMTM
 40
0.0
  9
$DIMTXT
 40
2.5
  9
$DIMCEN
 40
2.5
  9
$DIMTSZ
 40
0.0
  9
$DIMTOL
 70
0
  9
$DIMLIM
 70
0
  9
$DIMTIH
 70
0
  9
$DIMTOH
 70
0
  9
$DIMSE1
 70
0
  9
$DIMSE2
 70
0
  9
$DIMTAD
 70
1
  9
$DIMZIN
 70
8
  9
$DIMBLK
  1

  9
$DIMASO
 70
1
  9
$DIMSHO
 70
1
  9
$DIMPOST
  1

  9
$DIMAPOST
  1

  9
$DIMALT
 70
0
  9
$DIMALTD
 70
3
  9
$DIMALTF
 40
0.03937007874
  9
$DIMLFAC
 40
1.0
  9
$DIMTOFL
 70
1
  9
$DIMTVP
 40
0.0
  9
$DIMTIX
 70
0
  9
$DIMSOXD
 70
0
  9
$DIMSAH
 70
0
  9
$DIMBLK1
  1

  9
$DIMBLK2
  1

  9
$DIMSTYLE
  2
ISO-25
  9
$DIMCLRD
 70
0
  9
$DIMCLRE
 70
0
  9
$DIMCLRT
 70
0
  9
$DIMTFAC
 40
1.0
  9
$DIMGAP
 40
0.625
  9
$DIMJUST
 70
0
  9
$DIMSD1
 70
0
  9
$DIMSD2
 70
0
  9
$DIMTOLJ
 70
0
  9
$DIMTZIN
 70
8
  9
$DIMALTZ
 70
0
  9
$DIMALTTZ
 70
0
  9
$DIMUPT
 70
0
  9
$DIMDEC
 70
2
  9
$DIMTDEC
 70
2
  9
$DIMALTU
 70
2
  9
$DIMALTTD
 70
3
  9
$DIMTXSTY
  7
Standard
  9
$DIMAUNIT
 70
0
  9
$DIMADEC
 70
0
  9
$DIMALTRND
 40
0.0
  9
$DIMAZIN
 70
0
  9
$DIMDSEP
 70
44
  9
$DIMATFIT
 70
3
  9
$DIMFRAC
 70
0
  9
$DIMLDRBLK
  1

  9
$DIMLUNIT
 70
2
  9
$DIMLWD
 70
-2
  9
$DIMLWE
 70
-2
  9
$DIMTMOVE
 70
0
  9
$DIMFXL
 40
1.0
  9
$DIMFXLON
 70
0
  9
$DIMJOGANG
 40
0.785398163397
  9
$DIMTFILL
 70
0
  9
$DIMTFILLCLR
 70
0
  9
$DIMARCSYM
 70
0
  9
$DIMLTYPE
  6

  9
$DIMLTEX1
  6

  9
$DIMLTEX2
  6

  9
$DIMTXTDIRECTION
 70
0
  9
$LUNITS
 70
2
  9
$LUPREC
 70
4
  9
$SKETCHINC
 40
1.0
  9
$FILLETRAD
 40
10.0
  9
$AUNITS
 70
0
  9
$AUPREC
 70
2
  9
$MENU
  1
.
  9
$ELEVATION
 40
0.0
  9
$PELEVATION
 40
0.0
  9
$THICKNESS
 40
0.0
  9
$LIMCHECK
 70
0
  9
$CHAMFERA
 40
0.0
  9
$CHAMFERB
 40
0.0
  9
$CHAMFERC
 40
0.0
  9
$CHAMFERD
 40
0.0
  9
$SKPOLY
 70
0
  9
$TDCREATE
 40
2461140.6092592594
  9
$TDUCREATE
 40
2458532.153996898
  9
$TDUPDATE
 40
2461140.6092592594
  9
$TDUUPDATE
 40
2458532.1544311
  9
$TDINDWG
 40
0.0
  9
$TDUSRTIMER
 40
0.0
  9
$USRTIMER
 70
1
  9
$ANGBASE
 50
0.0
  9
$ANGDIR
 70
0
  9
$PDMODE
 70
0
  9
$PDSIZE
 40
0.0
  9
$PLINEWID
 40
0.0
  9
$SPLFRAME
 70
0
  9
$SPLINETYPE
 70
6
  9
$SPLINESEGS
 70
8
  9
$HANDSEED
  5
DE
  9
$SURFTAB1
 70
6
  9
$SURFTAB2
 70
6
  9
$SURFTYPE
 70
6
  9
$SURFU
 70
6
  9
$SURFV
 70
6
  9
$UCSBASE
  2

  9
$UCSNAME
  2

  9
$UCSORG
 10
0.0
 20
0.0
 30
0.0
  9
$UCSXDIR
 10
1.0
 20
0.0
 30
0.0
  9
$UCSYDIR
 10
0.0
 20
1.0
 30
0.0
  9
$UCSORTHOREF
  2

  9
$UCSORTHOVIEW
 70
0
  9
$UCSORGTOP
 10
0.0
 20
0.0
 30
0.0
  9
$UCSORGBOTTOM
 10
0.0
 20
0.0
 30
0.0
  9
$UCSORGLEFT
 10
0.0
 20
0.0
 30
0.0
  9
$UCSORGRIGHT
 10
0.0
 20
0.0
 30
0.0
  9
$UCSORGFRONT
 10
0.0
 20
0.0
 30
0.0
  9
$UCSORGBACK
 10
0.0
 20
0.0
 30
0.0
  9
$PUCSBASE
  2

  9
$PUCSNAME
  2

  9
$PUCSORG
 10
0.0
 20
0.0
 30
0.0
  9
$PUCSXDIR
 10
1.0
 20
0.0
 30
0.0
  9
$PUCSYDIR
 10
0.0
 20
1.0
 30
0.0
  9
$PUCSORTHOREF
  2

  9
$PUCSORTHOVIEW
 70
0
  9
$PUCSORGTOP
 10
0.0
 20
0.0
 30
0.0
  9
$PUCSORGBOTTOM
 10
0.0
 20
0.0
 30
0.0
  9
$PUCSORGLEFT
 10
0.0
 20
0.0
 30
0.0
  9
$PUCSORGRIGHT
 10
0.0
 20
0.0
 30
0.0
  9
$PUCSORGFRONT
 10
0.0
 20
0.0
 30
0.0
  9
$PUCSORGBACK
 10
0.0
 20
0.0
 30
0.0
  9
$USERI1
 70
0
  9
$USERI2
 70
0
  9
$USERI3
 70
0
  9
$USERI4
 70
0
  9
$USERI5
 70
0
  9
$USERR1
 40
0.0
  9
$USERR2
 40
0.0
  9
$USERR3
 40
0.0
  9
$USERR4
 40
0.0
  9
$USERR5
 40
0.0
  9
$WORLDVIEW
 70
1
  9
$SHADEDGE
 70
3
  9
$SHADEDIF
 70
70
  9
$TILEMODE
 70
1
  9
$MAXACTVP
 70
64
  9
$PINSBASE
 10
0.0
 20
0.0
 30
0.0
  9
$PLIMCHECK
 70
0
  9
$PEXTMIN
 10
1e+20
 20
1e+20
 30
1e+20
  9
$PEXTMAX
 10
-1e+20
 20
-1e+20
 30
-1e+20
  9
$PLIMMIN
 10
0.0
 20
0.0
  9
$PLIMMAX
 10
420.0
 20
297.0
  9
$UNITMODE
 70
0
  9
$VISRETAIN
 70
1
  9
$PLINEGEN
 70
0
  9
$PSLTSCALE
 70
1
  9
$TREEDEPTH
 70
3020
  9
$CMLSTYLE
  2
Standard
  9
$CMLJUST
 70
0
  9
$CMLSCALE
 40
20.0
  9
$PROXYGRAPHICS
 70
1
  9
$MEASUREMENT
 70
1
  9
$CELWEIGHT
370
-1
  9
$ENDCAPS
280
0
  9
$JOINSTYLE
280
0
  9
$LWDISPLAY
290
0
  9
$INSUNITS
 70
4
  9
$HYPERLINKBASE
  1

  9
$STYLESHEET
  1

  9
$XEDIT
290
1
  9
$CEPSNTYPE
380
0
  9
$PSTYLEMODE
290
1
  9
$FINGERPRINTGUID
  2
{3393F5E8-B239-454F-9F3C-2431F5F3FF4D}
  9
$VERSIONGUID
  2
{6F8C921B-98A3-4EFF-B7E8-EAFB29C82655}
  9
$EXTNAMES
290
1
  9
$PSVPSCALE
 40
0.0
  9
$OLESTARTUP
290
0
  9
$SORTENTS
280
127
  9
$INDEXCTL
280
0
  9
$HIDETEXT
280
1
  9
$XCLIPFRAME
280
1
  9
$HALOGAP
280
0
  9
$OBSCOLOR
 70
257
  9
$OBSLTYPE
280
0
  9
$INTERSECTIONDISPLAY
280
0
  9
$INTERSECTIONCOLOR
 70
257
  9
$DIMASSOC
280
2
  9
$PROJECTNAME
  1

  9
$CAMERADISPLAY
290
0
  9
$LENSLENGTH
 40
50.0
  9
$CAMERAHEIGHT
 40
0.0
  9
$STEPSPERSEC
 40
24.0
  9
$STEPSIZE
 40
100.0
  9
$3DDWFPREC
 40
2.0
  9
$PSOLWIDTH
 40
0.005
  9
$PSOLHEIGHT
 40
0.08
  9
$LOFTANG1
 40
1.570796326795
  9
$LOFTANG2
 40
1.570796326795
  9
$LOFTMAG1
 40
0.0
  9
$LOFTMAG2
 40
0.0
  9
$LOFTPARAM
 70
7
  9
$LOFTNORMALS
280
1
  9
$LATITUDE
 40
37.795
  9
$LONGITUDE
 40
-122.394
  9
$NORTHDIRECTION
 40
0.0
  9
$TIMEZONE
 70
-8000
  9
$LIGHTGLYPHDISPLAY
280
1
  9
$TILEMODELIGHTSYNCH
280
1
  9
$CMATERIAL
347
20
  9
$SOLIDHIST
280
0
  9
$SHOWHIST
280
1
  9
$DWFFRAME
280
2
  9
$DGNFRAME
280
2
  9
$REALWORLDSCALE
290
1
  9
$INTERFERECOLOR
 62
256
  9
$CSHADOW
280
0
  9
$SHADOWPLANELOCATION
 40
0.0
  0
ENDSEC
  0
SECTION
  2
CLASSES
  0
CLASS
  1
ACDBDICTIONARYWDFLT
  2
AcDbDictionaryWithDefault
  3
ObjectDBX Classes
 90
0
 91
0
280
0
281
0
  0
CLASS
  1
SUN
  2
AcDbSun
  3
SCENEOE
 90
1153
 91
0
280
0
281
0
  0
CLASS
  1
VISUALSTYLE
  2
AcDbVisualStyle
  3
ObjectDBX Classes
 90
4095
 91
0
280
0
281
0
  0
CLASS
  1
MATERIAL
  2
AcDbMaterial
  3
ObjectDBX Classes
 90
1153
 91
0
280
0
281
0
  0
CLASS
  1
SCALE
  2
AcDbScale
  3
ObjectDBX Classes
 90
1153
 91
0
280
0
281
0
  0
CLASS
  1
TABLESTYLE
  2
AcDbTableStyle
  3
ObjectDBX Classes
 90
4095
 91
0
280
0
281
0
  0
CLASS
  1
MLEADERSTYLE
  2
AcDbMLeaderStyle
  3
ACDB_MLEADERSTYLE_CLASS
 90
4095
 91
0
280
0
281
0
  0
CLASS
  1
DICTIONARYVAR
  2
AcDbDictionaryVar
  3
ObjectDBX Classes
 90
0
 91
0
280
0
281
0
  0
CLASS
  1
CELLSTYLEMAP
  2
AcDbCellStyleMap
  3
ObjectDBX Classes
 90
1152
 91
0
280
0
281
0
  0
CLASS
  1
MENTALRAYRENDERSETTINGS
  2
AcDbMentalRayRenderSettings
  3
SCENEOE
 90
1024
 91
0
280
0
281
0
  0
CLASS
  1
ACDBDETAILVIEWSTYLE
  2
AcDbDetailViewStyle
  3
ObjectDBX Classes
 90
1025
 91
0
280
0
281
0
  0
CLASS
  1
ACDBSECTIONVIEWSTYLE
  2
AcDbSectionViewStyle
  3
ObjectDBX Classes
 90
1025
 91
0
280
0
281
0
  0
CLASS
  1
RASTERVARIABLES
  2
AcDbRasterVariables
  3
ISM
 90
0
 91
0
280
0
281
0
  0
CLASS
  1
LAYOUT
  2
AcDbLayout
  3
ObjectDBX Classes
 90
0
 91
0
280
0
281
0
  0
CLASS
  1
ACDBPLACEHOLDER
  2
AcDbPlaceHolder
  3
ObjectDBX Classes
 90
0
 91
0
280
0
281
0
  0
ENDSEC
  0
SECTION
  2
TABLES
  0
TABLE
  2
VPORT
  5
8
330
0
100
AcDbSymbolTable
 70
1
  0
VPORT
  5
23
330
8
100
AcDbSymbolTableRecord
100
AcDbViewportTableRecord
  2
*Active
 70
0
 10
0.0
 20
0.0
 11
1.0
 21
1.0
 12
0.0
 22
0.0
 13
0.0
 23
0.0
 14
0.5
 24
0.5
 15
0.5
 25
0.5
 16
0.0
 26
0.0
 36
1.0
 17
0.0
 27
0.0
 37
0.0
 40
1000.0
 41
1.34
 42
50.0
 43
0.0
 44
0.0
 50
0.0
 51
0.0
 71
0
 72
1000
 73
1
 74
3
 75
0
 76
0
 77
0
 78
0
281
0
 65
0
146
0.0
  0
ENDTAB
  0
TABLE
  2
LTYPE
  5
2
330
0
100
AcDbSymbolTable
 70
3
  0
LTYPE
  5
24
330
2
100
AcDbSymbolTableRecord
100
AcDbLinetypeTableRecord
  2
ByBlock
 70
0
  3

 72
65
 73
0
 40
0.0
  0
LTYPE
  5
25
330
2
100
AcDbSymbolTableRecord
100
AcDbLinetypeTableRecord
  2
ByLayer
 70
0
  3

 72
65
 73
0
 40
0.0
  0
LTYPE
  5
26
330
2
100
AcDbSymbolTableRecord
100
AcDbLinetypeTableRecord
  2
Continuous
 70
0
  3

 72
65
 73
0
 40
0.0
  0
ENDTAB
  0
TABLE
  2
LAYER
  5
1
330
0
100
AcDbSymbolTable
 70
2
  0
LAYER
  5
27
330
1
100
AcDbSymbolTableRecord
100
AcDbLayerTableRecord
  2
0
 70
0
 62
7
  6
Continuous
370
-3
390
13
347
21
  0
LAYER
  5
28
330
1
100
AcDbSymbolTableRecord
100
AcDbLayerTableRecord
  2
Defpoints
 70
0
 62
7
  6
Continuous
290
0
370
-3
390
13
347
21
  0
ENDTAB
  0
TABLE
  2
STYLE
  5
5
330
0
100
AcDbSymbolTable
 70
1
  0
STYLE
  5
29
330
5
100
AcDbSymbolTableRecord
100
AcDbTextStyleTableRecord
  2
Standard
 70
0
 40
0.0
 41
1.0
 50
0.0
 71
0
 42
2.5
  3
txt
  4

  0
ENDTAB
  0
TABLE
  2
VIEW
  5
7
330
0
100
AcDbSymbolTable
 70
0
  0
ENDTAB
  0
TABLE
  2
UCS
  5
6
330
0
100
AcDbSymbolTable
 70
0
  0
ENDTAB
  0
TABLE
  2
APPID
  5
3
330
0
100
AcDbSymbolTable
 70
3
  0
APPID
  5
2A
330
3
100
AcDbSymbolTableRecord
100
AcDbRegAppTableRecord
  2
ACAD
 70
0
  0
APPID
  5
DB
330
3
100
AcDbSymbolTableRecord
100
AcDbRegAppTableRecord
  2
HATCHBACKGROUNDCOLOR
 70
0
  0
APPID
  5
DC
330
3
100
AcDbSymbolTableRecord
100
AcDbRegAppTableRecord
  2
EZDXF
 70
0
  0
ENDTAB
  0
TABLE
  2
DIMSTYLE
  5
4
330
0
100
AcDbSymbolTable
 70
1
100
AcDbDimStyleTable
  0
DIMSTYLE
105
2B
330
4
100
AcDbSymbolTableRecord
100
AcDbDimStyleTableRecord
  2
Standard
 70
0
 40
1.0
 41
2.5
 42
0.625
 43
3.75
 44
1.25
 45
0.0
 46
0.0
 47
0.0
 48
0.0
 49
2.5
140
2.5
141
2.5
142
0.0
143
0.03937007874
144
1.0
145
0.0
146
1.0
147
0.625
148
0.0
 69
0
 70
0
 71
0
 72
0
 73
0
 74
0
 75
0
 76
0
 77
1
 78
8
 79
3
170
0
171
3
172
1
173
0
174
0
175
0
176
0
177
0
178
0
179
2
271
2
272
2
273
2
274
3
275
0
276
0
277
2
278
44
279
0
280
0
281
0
282
0
283
0
284
8
285
0
286
0
288
0
289
3
290
0
371
-2
372
-2
  0
ENDTAB
  0
TABLE
  2
BLOCK_RECORD
  5
9
330
0
100
AcDbSymbolTable
 70
3
  0
BLOCK_RECORD
  5
17
330
9
100
AcDbSymbolTableRecord
100
AcDbBlockTableRecord
  2
*Model_Space
340
1A
 70
0
280
1
281
0
  0
BLOCK_RECORD
  5
1B
330
9
100
AcDbSymbolTableRecord
100
AcDbBlockTableRecord
  2
*Paper_Space
340
1E
 70
0
280
1
281
0
  0
BLOCK_RECORD
  5
2F
330
9
100
AcDbSymbolTableRecord
100
AcDbBlockTableRecord
  2
HEX
340
0
 70
0
280
1
281
0
  0
ENDTAB
  0
ENDSEC
  0
SECTION
  2
BLOCKS
  0
BLOCK
  5
18
330
17
100
AcDbEntity
  8
0
100
AcDbBlockBegin
  2
*Model_Space
 70
0
 10
0.0
 20
0.0
 30
0.0
  3
*Model_Space
  1

  0
ENDBLK
  5
19
330
17
100
AcDbEntity
  8
0
100
AcDbBlockEnd
  0
BLOCK
  5
1C
330
1B
100
AcDbEntity
  8
0
100
AcDbBlockBegin
  2
*Paper_Space
 70
0
 10
0.0
 20
0.0
 30
0.0
  3
*Paper_Space
  1

  0
ENDBLK
  5
1D
330
1B
100
AcDbEntity
  8
0
100
AcDbBlockEnd
  0
BLOCK
  5
30
330
2F
100
AcDbEntity
  8
0
100
AcDbBlockBegin
  2
HEX
 70
0
 10
0.0
 20
0.0
 30
0.0
  3
HEX
  1

  0
LWPOLYLINE
  5
32
330
2F
100
AcDbEntity
  8
0
100
AcDbPolyline
 90
6
 70
1
 10
1.516
 20
0.875
 10
0.0
 20
1.75
 10
-1.516
 20
0.875
 10
-1.516
 20
-0.875
 10
-0.0
 20
-1.75
 10
1.516
 20
-0.875
  0
ENDBLK
  5
31
330
2F
100
AcDbEntity
  8
0
100
AcDbBlockEnd
  0
ENDSEC
  0
SECTION
  2
ENTITIES
  0
LWPOLYLINE
  5
33
330
17
100
AcDbEntity
  8
0
100
AcDbPolyline
 90
8
 70
1
 10
128.712
 20
-156.043
 10
127.345
 20
-156.23
 10
126.979
 20
-156.232
 10
126.653
 20
-156.18
 10
126.653
 20
-156.008
 10
128.169
 20
-155.133
 10
129.582
 20
-155.949
 10
128.712
 20
-156.043
  0
LWPOLYLINE
  5
34
330
17
100
AcDbEntity
  8
0
100
AcDbPolyline
 90
5
 70
1
 10
132.82
 20
-155.78
 10
131.66
 20
-155.812
 10
130.4
 20
-155.884
 10
131.7
 20
-155.133
 10
132.82
 20
-155.78
  0
LWPOLYLINE
  5
35
330
17
100
AcDbEntity
  8
0
100
AcDbPolyline
 90
5
 70
1
 10
136.418
 20
-155.818
 10
134.894
 20
-155.778
 10
134.124
 20
-155.772
 10
135.231
 20
-155.133
 10
136.418
 20
-155.818
  0
LWPOLYLINE
  5
36
330
17
100
AcDbEntity
  8
0
100
AcDbPolyline
 90
6
 70
1
 10
140.278
 20
-156.036
 10
138.217
 20
-155.899
 10
137.498
 20
-155.863
 10
138.762
 20
-155.133
 10
140.278
 20
-156.008
 10
140.278
 20
-156.036
  0
LWPOLYLINE
  5
37
330
17
100
AcDbEntity
  8
0
100
AcDbPolyline
 90
6
 70
1
 10
143.809
 20
-156.374
 10
140.778
 20
-156.077
 10
140.778
 20
-156.008
 10
142.293
 20
-155.133
 10
143.809
 20
-156.008
 10
143.809
 20
-156.374
  0
LWPOLYLINE
  5
38
330
17
100
AcDbEntity
  8
0
100
AcDbPolyline
 90
11
 70
1
 10
145.262
 20
-155.458
 10
145.237
 20
-155.772
 10
145.191
 20
-155.932
 10
145.115
 20
-156.076
 10
145.013
 20
-156.201
 10
144.82
 20
-156.344
 10
144.671
 20
-156.407
 10
144.509
 20
-156.438
 10
144.309
 20
-156.432
 10
144.309
 20
-156.008
 10
145.262
 20
-155.458
  0
LWPOLYLINE
  5
39
330
17
100
AcDbEntity
  8
0
100
AcDbPolyline
 90
7
 70
1
 10
125.921
 20
-155.296
 10
125.267
 20
-152.731
 10
126.403
 20
-152.075
 10
127.919
 20
-152.95
 10
127.919
 20
-154.7
 10
126.403
 20
-155.575
 10
125.921
 20
-155.296
  0
INSERT
  5
3A
330
17
100
AcDbEntity
  8
0
100
AcDbBlockReference
  2
HEX
 10
129.934
 20
-153.825
 30
0.0
  0
INSERT
  5
3C
330
17
100
AcDbEntity
  8
0
100
AcDbBlockReference
  2
HEX
 10
133.466
 20
-153.825
 30
0.0
  0
INSERT
  5
3E
330
17
100
AcDbEntity
  8
0
100
AcDbBlockReference
  2
HEX
 10
136.997
 20
-153.825
 30
0.0
  0
INSERT
  5
40
330
17
100
AcDbEntity
  8
0
100
AcDbBlockReference
  2
HEX
 10
140.528
 20
-153.825
 30
0.0
  0
LWPOLYLINE
  5
42
330
17
100
AcDbEntity
  8
0
100
AcDbPolyline
 90
8
 70
1
 10
145.207
 20
-152.738
 10
145.261
 20
-153.749
 10
145.277
 20
-154.872
 10
144.059
 20
-155.575
 10
142.543
 20
-154.7
 10
142.543
 20
-152.95
 10
144.059
 20
-152.075
 10
145.207
 20
-152.738
  0
LWPOLYLINE
  5
43
330
17
100
AcDbEntity
  8
0
100
AcDbPolyline
 90
6
 70
1
 10
125.138
 20
-152.228
 10
124.354
 20
-149.181
 10
124.638
 20
-149.017
 10
126.153
 20
-149.892
 10
126.153
 20
-151.642
 10
125.138
 20
-152.228
  0
INSERT
  5
44
330
17
100
AcDbEntity
  8
0
100
AcDbBlockReference
  2
HEX
 10
128.169
 20
-150.767
 30
0.0
  0
INSERT
  5
46
330
17
100
AcDbEntity
  8
0
100
AcDbBlockReference
  2
HEX
 10
131.7
 20
-150.767
 30
0.0
  0
INSERT
  5
48
330
17
100
AcDbEntity
  8
0
100
AcDbBlockReference
  2
HEX
 10
135.231
 20
-150.767
 30
0.0
  0
INSERT
  5
4A
330
17
100
AcDbEntity
  8
0
100
AcDbBlockReference
  2
HEX
 10
138.762
 20
-150.767
 30
0.0
  0
INSERT
  5
4C
330
17
100
AcDbEntity
  8
0
100
AcDbBlockReference
  2
HEX
 10
142.293
 20
-150.767
 30
0.0
  0
LWPOLYLINE
  5
4E
330
17
100
AcDbEntity
  8
0
100
AcDbPolyline
 90
6
 70
1
 10
144.848
 20
-149.581
 10
145.041
 20
-151.018
 10
145.158
 20
-152.132
 10
144.309
 20
-151.642
 10
144.309
 20
-149.892
 10
144.848
 20
-149.581
  0
LWPOLYLINE
  5
4F
330
17
100
AcDbEntity
  8
0
100
AcDbPolyline
 90
5
 70
1
 10
124.224
 20
-148.679
 10
123.633
 20
-146.398
 10
124.388
 20
-146.834
 10
124.388
 20
-148.584
 10
124.224
 20
-148.679
  0
INSERT
  5
50
330
17
100
AcDbEntity
  8
0
100
AcDbBlockReference
  2
HEX
 10
126.403
 20
-147.709
 30
0.0
  0
INSERT
  5
52
330
17
100
AcDbEntity
  8
0
100
AcDbBlockReference
  2
HEX
 10
129.934
 20
-147.709
 30
0.0
  0
INSERT
  5
54
330
17
100
AcDbEntity
  8
0
100
AcDbBlockReference
  2
HEX
 10
133.466
 20
-147.709
 30
0.0
  0
INSERT
  5
56
330
17
100
AcDbEntity
  8
0
100
AcDbBlockReference
  2
HEX
 10
136.997
 20
-147.709
 30
0.0
  0
INSERT
  5
58
330
17
100
AcDbEntity
  8
0
100
AcDbBlockReference
  2
HEX
 10
140.528
 20
-147.709
 30
0.0
  0
LWPOLYLINE
  5
5A
330
17
100
AcDbEntity
  8
0
100
AcDbPolyline
 90
7
 70
1
 10
144.277
 20
-146.085
 10
144.767
 20
-149.05
 10
144.059
 20
-149.459
 10
142.543
 20
-148.584
 10
142.543
 20
-146.834
 10
144.059
 20
-145.959
 10
144.277
 20
-146.085
  0
LWPOLYLINE
  5
5B
330
17
100
AcDbEntity
  8
0
100
AcDbPolyline
 90
8
 70
1
 10
123.456
 20
-145.719
 10
123.122
 20
-144.437
 10
123.122
 20
-143.776
 10
124.638
 20
-142.901
 10
126.153
 20
-143.776
 10
126.153
 20
-145.526
 10
124.638
 20
-146.401
 10
123.456
 20
-145.719
  0
INSERT
  5
5C
330
17
100
AcDbEntity
  8
0
100
AcDbBlockReference
  2
HEX
 10
128.169
 20
-144.651
 30
0.0
  0
INSERT
  5
5E
330
17
100
AcDbEntity
  8
0
100
AcDbBlockReference
  2
HEX
 10
131.7
 20
-144.651
 30
0.0
  0
INSERT
  5
60
330
17
100
AcDbEntity
  8
0
100
AcDbBlockReference
  2
HEX
 10
135.231
 20
-144.651
 30
0.0
  0
INSERT
  5
62
330
17
100
AcDbEntity
  8
0
100
AcDbBlockReference
  2
HEX
 10
138.762
 20
-144.651
 30
0.0
  0
INSERT
  5
64
330
17
100
AcDbEntity
  8
0
100
AcDbBlockReference
  2
HEX
 10
142.293
 20
-144.651
 30
0.0
  0
LWPOLYLINE
  5
66
330
17
100
AcDbEntity
  8
0
100
AcDbPolyline
 90
7
 70
1
 10
122.831
 20
-143.319
 10
122.048
 20
-140.319
 10
122.872
 20
-139.843
 10
124.388
 20
-140.718
 10
124.388
 20
-142.468
 10
122.872
 20
-143.343
 10
122.831
 20
-143.319
  0
INSERT
  5
67
330
17
100
AcDbEntity
  8
0
100
AcDbBlockReference
  2
HEX
 10
126.403
 20
-141.593
 30
0.0
  0
INSERT
  5
69
330
17
100
AcDbEntity
  8
0
100
AcDbBlockReference
  2
HEX
 10
129.934
 20
-141.593
 30
0.0
  0
INSERT
  5
6B
330
17
100
AcDbEntity
  8
0
100
AcDbBlockReference
  2
HEX
 10
133.466
 20
-141.593
 30
0.0
  0
INSERT
  5
6D
330
17
100
AcDbEntity
  8
0
100
AcDbBlockReference
  2
HEX
 10
136.997
 20
-141.593
 30
0.0
  0
INSERT
  5
6F
330
17
100
AcDbEntity
  8
0
100
AcDbBlockReference
  2
HEX
 10
140.528
 20
-141.593
 30
0.0
  0
LWPOLYLINE
  5
71
330
17
100
AcDbEntity
  8
0
100
AcDbPolyline
 90
6
 70
1
 10
143.0
 20
-140.455
 10
143.338
 20
-141.726
 10
143.675
 20
-143.122
 10
142.543
 20
-142.468
 10
142.543
 20
-140.718
 10
143.0
 20
-140.455
  0
LWPOLYLINE
  5
72
330
17
100
AcDbEntity
  8
0
100
AcDbPolyline
 90
5
 70
1
 10
121.916
 20
-139.818
 10
121.128
 20
-136.797
 10
122.622
 20
-137.66
 10
122.622
 20
-139.41
 10
121.916
 20
-139.818
  0
INSERT
  5
73
330
17
100
AcDbEntity
  8
0
100
AcDbBlockReference
  2
HEX
 10
124.638
 20
-138.535
 30
0.0
  0
INSERT
  5
75
330
17
100
AcDbEntity
  8
0
100
AcDbBlockReference
  2
HEX
 10
128.169
 20
-138.535
 30
0.0
  0
INSERT
  5
77
330
17
100
AcDbEntity
  8
0
100
AcDbBlockReference
  2
HEX
 10
131.7
 20
-138.535
 30
0.0
  0
INSERT
  5
79
330
17
100
AcDbEntity
  8
0
100
AcDbBlockReference
  2
HEX
 10
135.231
 20
-138.535
 30
0.0
  0
INSERT
  5
7B
330
17
100
AcDbEntity
  8
0
100
AcDbBlockReference
  2
HEX
 10
138.762
 20
-138.535
 30
0.0
  0
LWPOLYLINE
  5
7D
330
17
100
AcDbEntity
  8
0
100
AcDbPolyline
 90
7
 70
1
 10
141.928
 20
-136.996
 10
142.516
 20
-138.805
 10
142.859
 20
-139.958
 10
142.293
 20
-140.285
 10
140.778
 20
-139.41
 10
140.778
 20
-137.66
 10
141.928
 20
-136.996
  0
LWPOLYLINE
  5
7E
330
17
100
AcDbEntity
  8
0
100
AcDbPolyline
 90
4
 70
1
 10
120.502
 20
-134.397
 10
120.857
 20
-134.602
 10
120.857
 20
-135.759
 10
120.502
 20
-134.397
  0
INSERT
  5
7F
330
17
100
AcDbEntity
  8
0
100
AcDbBlockReference
  2
HEX
 10
122.872
 20
-135.477
 30
0.0
  0
INSERT
  5
81
330
17
100
AcDbEntity
  8
0
100
AcDbBlockReference
  2
HEX
 10
126.403
 20
-135.477
 30
0.0
  0
INSERT
  5
83
330
17
100
AcDbEntity
  8
0
100
AcDbBlockReference
  2
HEX
 10
129.934
 20
-135.477
 30
0.0
  0
INSERT
  5
85
330
17
100
AcDbEntity
  8
0
100
AcDbBlockReference
  2
HEX
 10
133.466
 20
-135.477
 30
0.0
  0
INSERT
  5
87
330
17
100
AcDbEntity
  8
0
100
AcDbBlockReference
  2
HEX
 10
136.997
 20
-135.477
 30
0.0
  0
LWPOLYLINE
  5
89
330
17
100
AcDbEntity
  8
0
100
AcDbPolyline
 90
7
 70
1
 10
140.809
 20
-133.889
 10
141.762
 20
-136.514
 10
140.528
 20
-137.227
 10
139.012
 20
-136.352
 10
139.012
 20
-134.602
 10
140.528
 20
-133.727
 10
140.809
 20
-133.889
  0
LWPOLYLINE
  5
8A
330
17
100
AcDbEntity
  8
0
100
AcDbPolyline
 90
7
 70
1
 10
120.325
 20
-133.718
 10
119.739
 20
-131.459
 10
121.107
 20
-130.669
 10
122.622
 20
-131.544
 10
122.622
 20
-133.294
 10
121.107
 20
-134.169
 10
120.325
 20
-133.718
  0
INSERT
  5
8B
330
17
100
AcDbEntity
  8
0
100
AcDbBlockReference
  2
HEX
 10
124.638
 20
-132.419
 30
0.0
  0
INSERT
  5
8D
330
17
100
AcDbEntity
  8
0
100
AcDbBlockReference
  2
HEX
 10
128.169
 20
-132.419
 30
0.0
  0
INSERT
  5
8F
330
17
100
AcDbEntity
  8
0
100
AcDbBlockReference
  2
HEX
 10
131.7
 20
-132.419
 30
0.0
  0
INSERT
  5
91
330
17
100
AcDbEntity
  8
0
100
AcDbBlockReference
  2
HEX
 10
135.231
 20
-132.419
 30
0.0
  0
LWPOLYLINE
  5
93
330
17
100
AcDbEntity
  8
0
100
AcDbPolyline
 90
8
 70
1
 10
139.803
 20
-131.27
 10
140.278
 20
-132.496
 10
140.278
 20
-133.294
 10
138.762
 20
-134.169
 10
137.247
 20
-133.294
 10
137.247
 20
-131.544
 10
138.762
 20
-130.669
 10
139.803
 20
-131.27
  0
LWPOLYLINE
  5
94
330
17
100
AcDbEntity
  8
0
100
AcDbPolyline
 90
6
 70
1
 10
119.609
 20
-130.956
 10
118.824
 20
-127.909
 10
119.341
 20
-127.611
 10
120.857
 20
-128.486
 10
120.857
 20
-130.236
 10
119.609
 20
-130.956
  0
INSERT
  5
95
330
17
100
AcDbEntity
  8
0
100
AcDbBlockReference
  2
HEX
 10
122.872
 20
-129.361
 30
0.0
  0
INSERT
  5
97
330
17
100
AcDbEntity
  8
0
100
AcDbBlockReference
  2
HEX
 10
126.403
 20
-129.361
 30
0.0
  0
INSERT
  5
99
330
17
100
AcDbEntity
  8
0
100
AcDbBlockReference
  2
HEX
 10
129.934
 20
-129.361
 30
0.0
  0
INSERT
  5
9B
330
17
100
AcDbEntity
  8
0
100
AcDbBlockReference
  2
HEX
 10
133.466
 20
-129.361
 30
0.0
  0
INSERT
  5
9D
330
17
100
AcDbEntity
  8
0
100
AcDbBlockReference
  2
HEX
 10
136.997
 20
-129.361
 30
0.0
  0
LWPOLYLINE
  5
9F
330
17
100
AcDbEntity
  8
0
100
AcDbPolyline
 90
4
 70
1
 10
139.012
 20
-129.237
 10
139.514
 20
-130.525
 10
139.012
 20
-130.236
 10
139.012
 20
-129.237
  0
LWPOLYLINE
  5
A0
330
17
100
AcDbEntity
  8
0
100
AcDbPolyline
 90
5
 70
1
 10
118.695
 20
-127.407
 10
118.035
 20
-124.818
 10
119.091
 20
-125.428
 10
119.091
 20
-127.178
 10
118.695
 20
-127.407
  0
INSERT
  5
A1
330
17
100
AcDbEntity
  8
0
100
AcDbBlockReference
  2
HEX
 10
121.107
 20
-126.303
 30
0.0
  0
INSERT
  5
A3
330
17
100
AcDbEntity
  8
0
100
AcDbBlockReference
  2
HEX
 10
124.638
 20
-126.303
 30
0.0
  0
INSERT
  5
A5
330
17
100
AcDbEntity
  8
0
100
AcDbBlockReference
  2
HEX
 10
128.169
 20
-126.303
 30
0.0
  0
INSERT
  5
A7
330
17
100
AcDbEntity
  8
0
100
AcDbBlockReference
  2
HEX
 10
131.7
 20
-126.303
 30
0.0
  0
INSERT
  5
A9
330
17
100
AcDbEntity
  8
0
100
AcDbBlockReference
  2
HEX
 10
135.231
 20
-126.303
 30
0.0
  0
LWPOLYLINE
  5
AB
330
17
100
AcDbEntity
  8
0
100
AcDbPolyline
 90
6
 70
1
 10
137.479
 20
-125.294
 10
138.07
 20
-126.815
 10
138.491
 20
-127.896
 10
137.247
 20
-127.178
 10
137.247
 20
-125.428
 10
137.479
 20
-125.294
  0
LWPOLYLINE
  5
AC
330
17
100
AcDbEntity
  8
0
100
AcDbPolyline
 90
8
 70
1
 10
117.832
 20
-124.011
 10
117.826
 20
-122.37
 10
119.341
 20
-121.495
 10
120.857
 20
-122.37
 10
120.857
 20
-124.12
 10
119.341
 20
-124.995
 10
117.865
 20
-124.142
 10
117.832
 20
-124.011
  0
INSERT
  5
AD
330
17
100
AcDbEntity
  8
0
100
AcDbBlockReference
  2
HEX
 10
122.872
 20
-123.245
 30
0.0
  0
INSERT
  5
AF
330
17
100
AcDbEntity
  8
0
100
AcDbBlockReference
  2
HEX
 10
126.403
 20
-123.245
 30
0.0
  0
INSERT
  5
B1
330
17
100
AcDbEntity
  8
0
100
AcDbBlockReference
  2
HEX
 10
129.934
 20
-123.245
 30
0.0
  0
INSERT
  5
B3
330
17
100
AcDbEntity
  8
0
100
AcDbBlockReference
  2
HEX
 10
133.466
 20
-123.245
 30
0.0
  0
LWPOLYLINE
  5
B5
330
17
100
AcDbEntity
  8
0
100
AcDbPolyline
 90
6
 70
1
 10
136.183
 20
-121.964
 10
137.295
 20
-124.823
 10
136.997
 20
-124.995
 10
135.481
 20
-124.12
 10
135.481
 20
-122.37
 10
136.183
 20
-121.964
  0
LWPOLYLINE
  5
B6
330
17
100
AcDbEntity
  8
0
100
AcDbPolyline
 90
7
 70
1
 10
117.334
 20
-121.797
 10
116.697
 20
-118.945
 10
117.576
 20
-118.437
 10
119.091
 20
-119.312
 10
119.091
 20
-121.062
 10
117.576
 20
-121.937
 10
117.334
 20
-121.797
  0
INSERT
  5
B7
330
17
100
AcDbEntity
  8
0
100
AcDbBlockReference
  2
HEX
 10
121.107
 20
-120.187
 30
0.0
  0
INSERT
  5
B9
330
17
100
AcDbEntity
  8
0
100
AcDbBlockReference
  2
HEX
 10
124.638
 20
-120.187
 30
0.0
  0
INSERT
  5
BB
330
17
100
AcDbEntity
  8
0
100
AcDbBlockReference
  2
HEX
 10
128.169
 20
-120.187
 30
0.0
  0
INSERT
  5
BD
330
17
100
AcDbEntity
  8
0
100
AcDbBlockReference
  2
HEX
 10
131.7
 20
-120.187
 30
0.0
  0
LWPOLYLINE
  5
BF
330
17
100
AcDbEntity
  8
0
100
AcDbPolyline
 90
6
 70
1
 10
134.888
 20
-118.635
 10
136.0
 20
-121.493
 10
135.231
 20
-121.937
 10
133.716
 20
-121.062
 10
133.716
 20
-119.312
 10
134.888
 20
-118.635
  0
LWPOLYLINE
  5
C0
330
17
100
AcDbEntity
  8
0
100
AcDbPolyline
 90
8
 70
1
 10
116.571
 20
-118.439
 10
115.939
 20
-116.189
 10
115.844
 20
-115.75
 10
115.796
 20
-115.387
 10
115.81
 20
-115.379
 10
117.326
 20
-116.254
 10
117.326
 20
-118.004
 10
116.571
 20
-118.439
  0
INSERT
  5
C1
330
17
100
AcDbEntity
  8
0
100
AcDbBlockReference
  2
HEX
 10
119.341
 20
-117.129
 30
0.0
  0
INSERT
  5
C3
330
17
100
AcDbEntity
  8
0
100
AcDbBlockReference
  2
HEX
 10
122.872
 20
-117.129
 30
0.0
  0
INSERT
  5
C5
330
17
100
AcDbEntity
  8
0
100
AcDbBlockReference
  2
HEX
 10
126.403
 20
-117.129
 30
0.0
  0
INSERT
  5
C7
330
17
100
AcDbEntity
  8
0
100
AcDbBlockReference
  2
HEX
 10
129.934
 20
-117.129
 30
0.0
  0
LWPOLYLINE
  5
C9
330
17
100
AcDbEntity
  8
0
100
AcDbPolyline
 90
7
 70
1
 10
133.667
 20
-115.495
 10
134.705
 20
-118.163
 10
133.466
 20
-118.879
 10
131.95
 20
-118.004
 10
131.95
 20
-116.254
 10
133.466
 20
-115.379
 10
133.667
 20
-115.495
  0
LWPOLYLINE
  5
CA
330
17
100
AcDbEntity
  8
0
100
AcDbPolyline
 90
11
 70
1
 10
116.266
 20
-113.519
 10
116.424
 20
-113.317
 10
116.775
 20
-112.966
 10
117.145
 20
-112.68
 10
117.663
 20
-112.371
 10
119.091
 20
-113.196
 10
119.091
 20
-114.946
 10
117.576
 20
-115.821
 10
116.06
 20
-114.946
 10
116.06
 20
-113.861
 10
116.266
 20
-113.519
  0
LWPOLYLINE
  5
CB
330
17
100
AcDbEntity
  8
0
100
AcDbPolyline
 90
11
 70
1
 10
120.954
 20
-112.409
 10
121.258
 20
-112.612
 10
121.5
 20
-112.739
 10
121.838
 20
-112.875
 10
122.27
 20
-112.992
 10
122.622
 20
-113.196
 10
122.622
 20
-114.946
 10
121.107
 20
-115.821
 10
119.591
 20
-114.946
 10
119.591
 20
-113.196
 10
120.954
 20
-112.409
  0
LWPOLYLINE
  5
CC
330
17
100
AcDbEntity
  8
0
100
AcDbPolyline
 90
8
 70
1
 10
121.981
 20
-112.88
 10
121.692
 20
-112.774
 10
121.417
 20
-112.641
 10
121.157
 20
-112.484
 10
121.012
 20
-112.375
 10
121.107
 20
-112.321
 10
122.15
 20
-112.923
 10
121.981
 20
-112.88
  0
LWPOLYLINE
  5
CD
330
17
100
AcDbEntity
  8
0
100
AcDbPolyline
 90
12
 70
1
 10
123.567
 20
-113.008
 10
123.946
 20
-112.919
 10
124.295
 20
-112.791
 10
124.612
 20
-112.626
 10
124.866
 20
-112.453
 10
126.153
 20
-113.196
 10
126.153
 20
-114.946
 10
124.638
 20
-115.821
 10
123.122
 20
-114.946
 10
123.122
 20
-113.196
 10
123.409
 20
-113.031
 10
123.567
 20
-113.008
  0
LWPOLYLINE
  5
CE
330
17
100
AcDbEntity
  8
0
100
AcDbPolyline
 90
7
 70
1
 10
124.782
 20
-112.404
 10
124.416
 20
-112.641
 10
124.141
 20
-112.774
 10
123.852
 20
-112.88
 10
123.53
 20
-112.96
 10
124.638
 20
-112.321
 10
124.782
 20
-112.404
  0
INSERT
  5
CF
330
17
100
AcDbEntity
  8
0
100
AcDbBlockReference
  2
HEX
 10
128.169
 20
-114.071
 30
0.0
  0
LWPOLYLINE
  5
D1
330
17
100
AcDbEntity
  8
0
100
AcDbPolyline
 90
13
 70
1
 10
131.696
 20
-112.331
 10
131.872
 20
-112.421
 10
132.071
 20
-112.561
 10
132.246
 20
-112.728
 10
132.401
 20
-112.916
 10
132.613
 20
-113.234
 10
132.819
 20
-113.589
 10
133.216
 20
-114.386
 10
133.216
 20
-114.946
 10
131.7
 20
-115.821
 10
130.184
 20
-114.946
 10
130.184
 20
-113.196
 10
131.696
 20
-112.331
  0
LWPOLYLINE
  5
D2
330
17
100
AcDbEntity
  8
0
100
AcDbPolyline
 90
9
 70
1
 10
118.228
 20
-112.12
 10
118.713
 20
-111.962
 10
119.181
 20
-111.866
 10
119.47
 20
-111.833
 10
119.862
 20
-111.816
 10
120.376
 20
-111.844
 10
120.562
 20
-112.058
 10
119.341
 20
-112.763
 10
118.228
 20
-112.12
  0
LWPOLYLINE
  5
D3
330
17
100
AcDbEntity
  8
0
100
AcDbPolyline
 90
13
 70
1
 10
120.488
 20
-111.876
 10
120.307
 20
-111.634
 10
120.149
 20
-111.374
 10
120.017
 20
-111.099
 10
119.911
 20
-110.81
 10
119.833
 20
-110.508
 10
119.785
 20
-110.196
 10
119.769
 20
-109.874
 10
119.79
 20
-109.522
 10
120.857
 20
-110.138
 10
120.857
 20
-111.888
 10
120.622
 20
-112.023
 10
120.488
 20
-111.876
  0
INSERT
  5
D4
330
17
100
AcDbEntity
  8
0
100
AcDbBlockReference
  2
HEX
 10
122.872
 20
-111.013
 30
0.0
  0
LWPOLYLINE
  5
D6
330
17
100
AcDbEntity
  8
0
100
AcDbPolyline
 90
5
 70
1
 10
125.252
 20
-112.098
 10
125.48
 20
-111.814
 10
127.919
 20
-111.877
 10
126.403
 20
-112.763
 10
125.252
 20
-112.098
  0
LWPOLYLINE
  5
D7
330
17
100
AcDbEntity
  8
0
100
AcDbPolyline
 90
13
 70
1
 10
125.922
 20
-110.81
 10
125.816
 20
-111.099
 10
125.684
 20
-111.374
 10
125.526
 20
-111.634
 10
125.345
 20
-111.876
 10
125.18
 20
-112.057
 10
124.888
 20
-111.888
 10
124.888
 20
-110.138
 10
126.036
 20
-109.475
 10
126.064
 20
-109.874
 10
126.048
 20
-110.196
 10
126.0
 20
-110.508
 10
125.922
 20
-110.81
  0
LWPOLYLINE
  5
D8
330
17
100
AcDbEntity
  8
0
100
AcDbPolyline
 90
5
 70
1
 10
128.443
 20
-111.902
 10
129.854
 20
-112.009
 10
130.995
 20
-112.151
 10
129.934
 20
-112.763
 10
128.443
 20
-111.902
  0
LWPOLYLINE
  5
D9
330
17
100
AcDbEntity
  8
0
100
AcDbPolyline
 90
16
 70
1
 10
119.894
 20
-109.005
 10
120.017
 20
-108.649
 10
120.149
 20
-108.374
 10
120.307
 20
-108.115
 10
120.488
 20
-107.872
 10
120.691
 20
-107.649
 10
120.915
 20
-107.446
 10
121.157
 20
-107.264
 10
121.417
 20
-107.107
 10
121.692
 20
-106.974
 10
121.981
 20
-106.868
 10
122.171
 20
-106.819
 10
122.622
 20
-107.08
 10
122.622
 20
-108.83
 10
121.107
 20
-109.705
 10
119.894
 20
-109.005
  0
LWPOLYLINE
  5
DA
330
17
100
AcDbEntity
  8
0
100
AcDbPolyline
 90
16
 70
1
 10
123.852
 20
-106.868
 10
124.141
 20
-106.974
 10
124.416
 20
-107.107
 10
124.676
 20
-107.264
 10
124.918
 20
-107.446
 10
125.142
 20
-107.649
 10
125.345
 20
-107.872
 10
125.526
 20
-108.115
 10
125.684
 20
-108.374
 10
125.816
 20
-108.649
 10
125.928
 20
-108.96
 10
124.638
 20
-109.705
 10
123.122
 20
-108.83
 10
123.122
 20
-107.08
 10
123.601
 20
-106.804
 10
123.852
 20
-106.868
  0
ENDSEC
  0
SECTION
  2
OBJECTS
  0
DICTIONARY
  5
A
330
0
100
AcDbDictionary
281
1
  3
ACAD_COLOR
350
B
  3
ACAD_GROUP
350
C
  3
ACAD_LAYOUT
350
D
  3
ACAD_MATERIAL
350
E
  3
ACAD_MLEADERSTYLE
350
F
  3
ACAD_MLINESTYLE
350
10
  3
ACAD_PLOTSETTINGS
350
11
  3
ACAD_PLOTSTYLENAME
350
12
  3
ACAD_SCALELIST
350
14
  3
ACAD_TABLESTYLE
350
15
  3
ACAD_VISUALSTYLE
350
16
  3
EZDXF_META
350
2D
  0
DICTIONARY
  5
B
330
A
100
AcDbDictionary
281
1
  0
DICTIONARY
  5
C
330
A
100
AcDbDictionary
281
1
  0
DICTIONARY
  5
D
330
A
100
AcDbDictionary
281
1
  3
Model
350
1A
  3
Layout1
350
1E
  0
DICTIONARY
  5
E
330
A
100
AcDbDictionary
281
1
  3
ByBlock
350
1F
  3
ByLayer
350
20
  3
Global
350
21
  0
DICTIONARY
  5
F
330
A
100
AcDbDictionary
281
1
  3
Standard
350
2C
  0
DICTIONARY
  5
10
330
A
100
AcDbDictionary
281
1
  3
Standard
350
22
  0
DICTIONARY
  5
11
330
A
100
AcDbDictionary
281
1
  0
ACDBDICTIONARYWDFLT
  5
12
330
A
100
AcDbDictionary
281
1
  3
Normal
350
13
100
AcDbDictionaryWithDefault
340
13
  0
ACDBPLACEHOLDER
  5
13
330
12
  0
DICTIONARY
  5
14
330
A
100
AcDbDictionary
281
1
  0
DICTIONARY
  5
15
330
A
100
AcDbDictionary
281
1
  0
DICTIONARY
  5
16
330
A
100
AcDbDictionary
281
1
  0
LAYOUT
  5
1A
330
D
100
AcDbPlotSettings
  1

  4
A3
  6

 40
7.5
 41
20.0
 42
7.5
 43
20.0
 44
420.0
 45
297.0
 46
0.0
 47
0.0
 48
0.0
 49
0.0
140
0.0
141
0.0
142
1.0
143
1.0
 70
1024
 72
1
 73
0
 74
5
  7

 75
16
 76
0
 77
2
 78
300
147
1.0
148
0.0
149
0.0
100
AcDbLayout
  1
Model
 70
1
 71
0
 10
0.0
 20
0.0
 11
420.0
 21
297.0
 12
0.0
 22
0.0
 32
0.0
 14
1e+20
 24
1e+20
 34
1e+20
 15
-1e+20
 25
-1e+20
 35
-1e+20
146
0.0
 13
0.0
 23
0.0
 33
0.0
 16
1.0
 26
0.0
 36
0.0
 17
0.0
 27
1.0
 37
0.0
 76
1
330
17
  0
LAYOUT
  5
1E
330
D
100
AcDbPlotSettings
  1

  4
A3
  6

 40
7.5
 41
20.0
 42
7.5
 43
20.0
 44
420.0
 45
297.0
 46
0.0
 47
0.0
 48
0.0
 49
0.0
140
0.0
141
0.0
142
1.0
143
1.0
 70
0
 72
1
 73
0
 74
5
  7

 75
16
 76
0
 77
2
 78
300
147
1.0
148
0.0
149
0.0
100
AcDbLayout
  1
Layout1
 70
1
 71
1
 10
0.0
 20
0.0
 11
420.0
 21
297.0
 12
0.0
 22
0.0
 32
0.0
 14
1e+20
 24
1e+20
 34
1e+20
 15
-1e+20
 25
-1e+20
 35
-1e+20
146
0.0
 13
0.0
 23
0.0
 33
0.0
 16
1.0
 26
0.0
 36
0.0
 17
0.0
 27
1.0
 37
0.0
 76
1
330
1B
  0
MATERIAL
  5
1F
102
{ACAD_REACTORS
330
E
102
}
330
E
100
AcDbMaterial
  1
ByBlock
  2

 70
0
 40
1.0
 71
1
 41
1.0
 91
-1023410177
 42
1.0
 72
1
  3

 73
1
 74
1
 75
1
 44
0.5
 73
0
 45
1.0
 46
1.0
 77
1
  4

 78
1
 79
1
170
1
 48
1.0
171
1
  6

172
1
173
1
174
1
140
1.0
141
1.0
175
1
  7

176
1
177
1
178
1
143
1.0
179
1
  8

270
1
271
1
272
1
145
1.0
146
1.0
273
1
  9

274
1
275
1
276
1
 42
1.0
 72
1
  3

 73
1
 74
1
 75
1
 94
63
  0
MATERIAL
  5
20
102
{ACAD_REACTORS
330
E
102
}
330
E
100
AcDbMaterial
  1
ByLayer
  2

 70
0
 40
1.0
 71
1
 41
1.0
 91
-1023410177
 42
1.0
 72
1
  3

 73
1
 74
1
 75
1
 44
0.5
 73
0
 45
1.0
 46
1.0
 77
1
  4

 78
1
 79
1
170
1
 48
1.0
171
1
  6

172
1
173
1
174
1
140
1.0
141
1.0
175
1
  7

176
1
177
1
178
1
143
1.0
179
1
  8

270
1
271
1
272
1
145
1.0
146
1.0
273
1
  9

274
1
275
1
276
1
 42
1.0
 72
1
  3

 73
1
 74
1
 75
1
 94
63
  0
MATERIAL
  5
21
102
{ACAD_REACTORS
330
E
102
}
330
E
100
AcDbMaterial
  1
Global
  2

 70
0
 40
1.0
 71
1
 41
1.0
 91
-1023410177
 42
1.0
 72
1
  3

 73
1
 74
1
 75
1
 44
0.5
 73
0
 45
1.0
 46
1.0
 77
1
  4

 78
1
 79
1
170
1
 48
1.0
171
1
  6

172
1
173
1
174
1
140
1.0
141
1.0
175
1
  7

176
1
177
1
178
1
143
1.0
179
1
  8

270
1
271
1
272
1
145
1.0
146
1.0
273
1
  9

274
1
275
1
276
1
 42
1.0
 72
1
  3

 73
1
 74
1
 75
1
 94
63
  0
MLINESTYLE
  5
22
102
{ACAD_REACTORS
330
10
102
}
330
10
100
AcDbMlineStyle
  2
Standard
 70
0
  3

 62
256
 51
90.0
 52
90.0
 71
2
 49
0.5
 62
256
  6
BYLAYER
 49
-0.5
 62
256
  6
BYLAYER
  0
MLEADERSTYLE
  5
2C
102
{ACAD_REACTORS
330
F
102
}
330
F
100
AcDbMLeaderStyle
179
2
170
2
171
1
172
0
 90
2
 40
0.0
 41
0.0
173
1
 91
-1056964608
 92
-2
290
1
 42
2.0
291
1
 43
8.0
  3
Standard
 44
4.0
300

342
29
174
1
175
1
176
0
178
1
 93
-1056964608
 45
4.0
292
0
297
0
 46
4.0
 94
-1056964608
 47
1.0
 49
1.0
140
1.0
294
1
141
0.0
177
0
142
1.0
295
0
296
0
143
3.75
271
0
272
9
273
9
  0
DICTIONARY
  5
2D
330
A
100
AcDbDictionary
280
1
281
1
  3
CREATED_BY_EZDXF
350
2E
  3
WRITTEN_BY_EZDXF
350
DD
  0
DICTIONARYVAR
  5
2E
330
2D
100
DictionaryVariables
280
0
  1
1.4.3 @ 2026-04-09T21:37:20.849718+00:00
  0
DICTIONARYVAR
  5
DD
330
2D
100
DictionaryVariables
280
0
  1
1.4.3 @ 2026-04-09T21:37:20.856293+00:00
  0
ENDSEC
  0
EOF
