  0
SECTION
  2
HEADER
  9
$ACADVER
  1
AC1024
  9
$ACADMAINTVER
 70
6
  9
$DWGCODEPAGE
  3
ANSI_1252
  9
$LASTSAVEDBY
  1
ezdxf
  9
$INSBASE
 10
0.0
 20
0.0
 30
0.0
  9
$EXTMIN
 10
1e+20
 20
1e+20
 30
1e+20
  9
$EXTMAX
 10
-1e+20
 20
-1e+20
 30
-1e+20
  9
$LIMMIN
 10
0.0
 20
0.0
  9
$LIMMAX
 10
420.0
 20
297.0
  9
$ORTHOMODE
 70
0
  9
$REGENMODE
 70
1
  9
$FILLMODE
 70
1
  9
$QTEXTMODE
 70
0
  9
$MIRRTEXT
 70
1
  9
$LTSCALE
 40
1.0
  9
$ATTMODE
 70
1
  9
$TEXTSIZE
 40
2.5
  9
$TRACEWID
 40
1.0
  9
$TEXTSTYLE
  7
Standard
  9
$CLAYER
  8
0
  9
$CELTYPE
  6
ByLayer
  9
$CECOLOR
 62
256
  9
$CELTSCALE
 40
1.0
  9
$DISPSILH
 70
0
  9
$DIMSCALE
 40
1.0
  9
$DIMASZ
 40
2.5
  9
$DIMEXO
 40
0.625
  9
$DIMDLI
 40
3.75
  9
$DIMRND
 40
0.0
  9
$DIMDLE
 40
0.0
  9
$DIMEXE
 40
1.25
  9
$DIMTP
 40
0.0
  9
$DIMTM
 40
0.0
  9
$DIMTXT
 40
2.5
  9
$DIMCEN
 40
2.5
  9
$DIMTSZ
 40
0.0
  9
$DIMTOL
 70
0
  9
$DIMLIM
 70
0
  9
$DIMTIH
 70
0
  9
$DIMTOH
 70
0
  9
$DIMSE1
 70
0
  9
$DIMSE2
 70
0
  9
$DIMTAD
 70
1
  9
$DIMZIN
 70
8
  9
$DIMBLK
  1

  9
$DIMASO
 70
1
  9
$DIMSHO
 70
1
  9
$DIMPOST
  1

  9
$DIMAPOST
  1

  9
$DIMALT
 70
0
  9
$DIMALTD
 70
3
  9
$DIMALTF
 40
0.03937007874
  9
$DIMLFAC
 40
1.0
  9
$DIMTOFL
 70
1
  9
$DIMTVP
 40
0.0
  9
$DIMTIX
 70
0
  9
$DIMSOXD
 70
0
  9
$DIMSAH
 70
0
  9
$DIMBLK1
  1

  9
$DIMBLK2
  1

  9
$DIMSTYLE
  2
ISO-25
  9
$DIMCLRD
 70
0
  9
$DIMCLRE
 70
0
  9
$DIMCLRT
 70
0
  9
$DIMTFAC
 40
1.0
  9
$DIMGAP
 40
0.625
  9
$DIMJUST
 70
0
  9
$DIMSD1
 70
0
  9
$DIMSD2
 70
0
  9
$DIMTOLJ
 70
0
  9
$DIMTZIN
 70
8
  9
$DIMALTZ
 70
0
  9
$DIMALTTZ
 70
0
  9
$DIMUPT
 70
0
  9
$DIMDEC
 70
2
  9
$DIMTDEC
 70
2
  9
$DIMALTU
 70
2
  9
$DIMALTTD
 70
3
  9
$DIMTXSTY
  7
Standard
  9
$DIMAUNIT
 70
0
  9
$DIMADEC
 70
0
  9
$DIMALTRND
 40
0.0
  9
$DIMAZIN
 70
0
  9
$DIMDSEP
 70
44
  9
$DIMATFIT
 70
3
  9
$DIMFRAC
 70
0
  9
$DIMLDRBLK
  1

  9
$DIMLUNIT
 70
2
  9
$DIMLWD
 70
-2
  9
$DIMLWE
 70
-2
  9
$DIMTMOVE
 70
0
  9
$DIMFXL
 40
1.0
  9
$DIMFXLON
 70
0
  9
$DIMJOGANG
 40
0.785398163397
  9
$DIMTFILL
 70
0
  9
$DIMTFILLCLR
 70
0
  9
$DIMARCSYM
 70
0
  9
$DIMLTYPE
  6

  9
$DIMLTEX1
  6

  9
$DIMLTEX2
  6

  9
$DIMTXTDIRECTION
 70
0
  9
$LUNITS
 70
2
  9
$LUPREC
 70
4
  9
$SKETCHINC
 40
1.0
  9
$FILLETRAD
 40
10.0
  9
$AUNITS
 70
0
  9
$AUPREC
 70
2
  9
$MENU
  1
.
  9
$ELEVATION
 40
0.0
  9
$PELEVATION
 40
0.0
  9
$THICKNESS
 40
0.0
  9
$LIMCHECK
 70
0
  9
$CHAMFERA
 40
0.0
  9
$CHAMFERB
 40
0.0
  9
$CHAMFERC
 40
0.0
  9
$CHAMFERD
 40
0.0
  9
$SKPOLY
 70
0
  9
$TDCREATE
 40
2461142.7371527776
  9
$TDUCREATE
 40
2458532.153996898
  9
$TDUPDATE
 40
2461142.7371527776
  9
$TDUUPDATE
 40
2458532.1544311
  9
$TDINDWG
 40
0.0
  9
$TDUSRTIMER
 40
0.0
  9
$USRTIMER
 70
1
  9
$ANGBASE
 50
0.0
  9
$ANGDIR
 70
0
  9
$PDMODE
 70
0
  9
$PDSIZE
 40
0.0
  9
$PLINEWID
 40
0.0
  9
$SPLFRAME
 70
0
  9
$SPLINETYPE
 70
6
  9
$SPLINESEGS
 70
8
  9
$HANDSEED
  5
3D
  9
$SURFTAB1
 70
6
  9
$SURFTAB2
 70
6
  9
$SURFTYPE
 70
6
  9
$SURFU
 70
6
  9
$SURFV
 70
6
  9
$UCSBASE
  2

  9
$UCSNAME
  2

  9
$UCSORG
 10
0.0
 20
0.0
 30
0.0
  9
$UCSXDIR
 10
1.0
 20
0.0
 30
0.0
  9
$UCSYDIR
 10
0.0
 20
1.0
 30
0.0
  9
$UCSORTHOREF
  2

  9
$UCSORTHOVIEW
 70
0
  9
$UCSORGTOP
 10
0.0
 20
0.0
 30
0.0
  9
$UCSORGBOTTOM
 10
0.0
 20
0.0
 30
0.0
  9
$UCSORGLEFT
 10
0.0
 20
0.0
 30
0.0
  9
$UCSORGRIGHT
 10
0.0
 20
0.0
 30
0.0
  9
$UCSORGFRONT
 10
0.0
 20
0.0
 30
0.0
  9
$UCSORGBACK
 10
0.0
 20
0.0
 30
0.0
  9
$PUCSBASE
  2

  9
$PUCSNAME
  2

  9
$PUCSORG
 10
0.0
 20
0.0
 30
0.0
  9
$PUCSXDIR
 10
1.0
 20
0.0
 30
0.0
  9
$PUCSYDIR
 10
0.0
 20
1.0
 30
0.0
  9
$PUCSORTHOREF
  2

  9
$PUCSORTHOVIEW
 70
0
  9
$PUCSORGTOP
 10
0.0
 20
0.0
 30
0.0
  9
$PUCSORGBOTTOM
 10
0.0
 20
0.0
 30
0.0
  9
$PUCSORGLEFT
 10
0.0
 20
0.0
 30
0.0
  9
$PUCSORGRIGHT
 10
0.0
 20
0.0
 30
0.0
  9
$PUCSORGFRONT
 10
0.0
 20
0.0
 30
0.0
  9
$PUCSORGBACK
 10
0.0
 20
0.0
 30
0.0
  9
$USERI1
 70
0
  9
$USERI2
 70
0
  9
$USERI3
 70
0
  9
$USERI4
 70
0
  9
$USERI5
 70
0
  9
$USERR1
 40
0.0
  9
$USERR2
 40
0.0
  9
$USERR3
 40
0.0
  9
$USERR4
 40
0.0
  9
$USERR5
 40
0.0
  9
$WORLDVIEW
 70
1
  9
$SHADEDGE
 70
3
  9
$SHADEDIF
 70
70
  9
$TILEMODE
 70
1
  9
$MAXACTVP
 70
64
  9
$PINSBASE
 10
0.0
 20
0.0
 30
0.0
  9
$PLIMCHECK
 70
0
  9
$PEXTMIN
 10
1e+20
 20
1e+20
 30
1e+20
  9
$PEXTMAX
 10
-1e+20
 20
-1e+20
 30
-1e+20
  9
$PLIMMIN
 10
0.0
 20
0.0
  9
$PLIMMAX
 10
420.0
 20
297.0
  9
$UNITMODE
 70
0
  9
$VISRETAIN
 70
1
  9
$PLINEGEN
 70
0
  9
$PSLTSCALE
 70
1
  9
$TREEDEPTH
 70
3020
  9
$CMLSTYLE
  2
Standard
  9
$CMLJUST
 70
0
  9
$CMLSCALE
 40
20.0
  9
$PROXYGRAPHICS
 70
1
  9
$MEASUREMENT
 70
1
  9
$CELWEIGHT
370
-1
  9
$ENDCAPS
280
0
  9
$JOINSTYLE
280
0
  9
$LWDISPLAY
290
0
  9
$INSUNITS
 70
4
  9
$HYPERLINKBASE
  1

  9
$STYLESHEET
  1

  9
$XEDIT
290
1
  9
$CEPSNTYPE
380
0
  9
$PSTYLEMODE
290
1
  9
$FINGERPRINTGUID
  2
{AAA6A2FC-5CA8-49D9-B4BA-157D836A4EDF}
  9
$VERSIONGUID
  2
{973A5798-BC9F-405E-9FBF-085CC39B9F35}
  9
$EXTNAMES
290
1
  9
$PSVPSCALE
 40
0.0
  9
$OLESTARTUP
290
0
  9
$SORTENTS
280
127
  9
$INDEXCTL
280
0
  9
$HIDETEXT
280
1
  9
$XCLIPFRAME
280
1
  9
$HALOGAP
280
0
  9
$OBSCOLOR
 70
257
  9
$OBSLTYPE
280
0
  9
$INTERSECTIONDISPLAY
280
0
  9
$INTERSECTIONCOLOR
 70
257
  9
$DIMASSOC
280
2
  9
$PROJECTNAME
  1

  9
$CAMERADISPLAY
290
0
  9
$LENSLENGTH
 40
50.0
  9
$CAMERAHEIGHT
 40
0.0
  9
$STEPSPERSEC
 40
24.0
  9
$STEPSIZE
 40
100.0
  9
$3DDWFPREC
 40
2.0
  9
$PSOLWIDTH
 40
0.005
  9
$PSOLHEIGHT
 40
0.08
  9
$LOFTANG1
 40
1.570796326795
  9
$LOFTANG2
 40
1.570796326795
  9
$LOFTMAG1
 40
0.0
  9
$LOFTMAG2
 40
0.0
  9
$LOFTPARAM
 70
7
  9
$LOFTNORMALS
280
1
  9
$LATITUDE
 40
37.795
  9
$LONGITUDE
 40
-122.394
  9
$NORTHDIRECTION
 40
0.0
  9
$TIMEZONE
 70
-8000
  9
$LIGHTGLYPHDISPLAY
280
1
  9
$TILEMODELIGHTSYNCH
280
1
  9
$CMATERIAL
347
20
  9
$SOLIDHIST
280
0
  9
$SHOWHIST
280
1
  9
$DWFFRAME
280
2
  9
$DGNFRAME
280
2
  9
$REALWORLDSCALE
290
1
  9
$INTERFERECOLOR
 62
256
  9
$CSHADOW
280
0
  9
$SHADOWPLANELOCATION
 40
0.0
  0
ENDSEC
  0
SECTION
  2
CLASSES
  0
CLASS
  1
ACDBDICTIONARYWDFLT
  2
AcDbDictionaryWithDefault
  3
ObjectDBX Classes
 90
0
 91
0
280
0
281
0
  0
CLASS
  1
SUN
  2
AcDbSun
  3
SCENEOE
 90
1153
 91
0
280
0
281
0
  0
CLASS
  1
VISUALSTYLE
  2
AcDbVisualStyle
  3
ObjectDBX Classes
 90
4095
 91
0
280
0
281
0
  0
CLASS
  1
MATERIAL
  2
AcDbMaterial
  3
ObjectDBX Classes
 90
1153
 91
0
280
0
281
0
  0
CLASS
  1
SCALE
  2
AcDbScale
  3
ObjectDBX Classes
 90
1153
 91
0
280
0
281
0
  0
CLASS
  1
TABLESTYLE
  2
AcDbTableStyle
  3
ObjectDBX Classes
 90
4095
 91
0
280
0
281
0
  0
CLASS
  1
MLEADERSTYLE
  2
AcDbMLeaderStyle
  3
ACDB_MLEADERSTYLE_CLASS
 90
4095
 91
0
280
0
281
0
  0
CLASS
  1
DICTIONARYVAR
  2
AcDbDictionaryVar
  3
ObjectDBX Classes
 90
0
 91
0
280
0
281
0
  0
CLASS
  1
CELLSTYLEMAP
  2
AcDbCellStyleMap
  3
ObjectDBX Classes
 90
1152
 91
0
280
0
281
0
  0
CLASS
  1
MENTALRAYRENDERSETTINGS
  2
AcDbMentalRayRenderSettings
  3
SCENEOE
 90
1024
 91
0
280
0
281
0
  0
CLASS
  1
ACDBDETAILVIEWSTYLE
  2
AcDbDetailViewStyle
  3
ObjectDBX Classes
 90
1025
 91
0
280
0
281
0
  0
CLASS
  1
ACDBSECTIONVIEWSTYLE
  2
AcDbSectionViewStyle
  3
ObjectDBX Classes
 90
1025
 91
0
280
0
281
0
  0
CLASS
  1
RASTERVARIABLES
  2
AcDbRasterVariables
  3
ISM
 90
0
 91
0
280
0
281
0
  0
CLASS
  1
ACDBPLACEHOLDER
  2
AcDbPlaceHolder
  3
ObjectDBX Classes
 90
0
 91
0
280
0
281
0
  0
CLASS
  1
LAYOUT
  2
AcDbLayout
  3
ObjectDBX Classes
 90
0
 91
0
280
0
281
0
  0
ENDSEC
  0
SECTION
  2
TABLES
  0
TABLE
  2
VPORT
  5
8
330
0
100
AcDbSymbolTable
 70
1
  0
VPORT
  5
23
330
8
100
AcDbSymbolTableRecord
100
AcDbViewportTableRecord
  2
*Active
 70
0
 10
0.0
 20
0.0
 11
1.0
 21
1.0
 12
0.0
 22
0.0
 13
0.0
 23
0.0
 14
0.5
 24
0.5
 15
0.5
 25
0.5
 16
0.0
 26
0.0
 36
1.0
 17
0.0
 27
0.0
 37
0.0
 40
1000.0
 41
1.34
 42
50.0
 43
0.0
 44
0.0
 50
0.0
 51
0.0
 71
0
 72
1000
 73
1
 74
3
 75
0
 76
0
 77
0
 78
0
281
0
 65
0
146
0.0
  0
ENDTAB
  0
TABLE
  2
LTYPE
  5
2
330
0
100
AcDbSymbolTable
 70
3
  0
LTYPE
  5
24
330
2
100
AcDbSymbolTableRecord
100
AcDbLinetypeTableRecord
  2
ByBlock
 70
0
  3

 72
65
 73
0
 40
0.0
  0
LTYPE
  5
25
330
2
100
AcDbSymbolTableRecord
100
AcDbLinetypeTableRecord
  2
ByLayer
 70
0
  3

 72
65
 73
0
 40
0.0
  0
LTYPE
  5
26
330
2
100
AcDbSymbolTableRecord
100
AcDbLinetypeTableRecord
  2
Continuous
 70
0
  3

 72
65
 73
0
 40
0.0
  0
ENDTAB
  0
TABLE
  2
LAYER
  5
1
330
0
100
AcDbSymbolTable
 70
2
  0
LAYER
  5
27
330
1
100
AcDbSymbolTableRecord
100
AcDbLayerTableRecord
  2
0
 70
0
 62
7
  6
Continuous
370
-3
390
13
347
21
  0
LAYER
  5
28
330
1
100
AcDbSymbolTableRecord
100
AcDbLayerTableRecord
  2
Defpoints
 70
0
 62
7
  6
Continuous
290
0
370
-3
390
13
347
21
  0
ENDTAB
  0
TABLE
  2
STYLE
  5
5
330
0
100
AcDbSymbolTable
 70
1
  0
STYLE
  5
29
330
5
100
AcDbSymbolTableRecord
100
AcDbTextStyleTableRecord
  2
Standard
 70
0
 40
0.0
 41
1.0
 50
0.0
 71
0
 42
2.5
  3
txt
  4

  0
ENDTAB
  0
TABLE
  2
VIEW
  5
7
330
0
100
AcDbSymbolTable
 70
0
  0
ENDTAB
  0
TABLE
  2
UCS
  5
6
330
0
100
AcDbSymbolTable
 70
0
  0
ENDTAB
  0
TABLE
  2
APPID
  5
3
330
0
100
AcDbSymbolTable
 70
3
  0
APPID
  5
2A
330
3
100
AcDbSymbolTableRecord
100
AcDbRegAppTableRecord
  2
ACAD
 70
0
  0
APPID
  5
3A
330
3
100
AcDbSymbolTableRecord
100
AcDbRegAppTableRecord
  2
HATCHBACKGROUNDCOLOR
 70
0
  0
APPID
  5
3B
330
3
100
AcDbSymbolTableRecord
100
AcDbRegAppTableRecord
  2
EZDXF
 70
0
  0
ENDTAB
  0
TABLE
  2
DIMSTYLE
  5
4
330
0
100
AcDbSymbolTable
 70
1
100
AcDbDimStyleTable
  0
DIMSTYLE
105
2B
330
4
100
AcDbSymbolTableRecord
100
AcDbDimStyleTableRecord
  2
Standard
 70
0
 40
1.0
 41
2.5
 42
0.625
 43
3.75
 44
1.25
 45
0.0
 46
0.0
 47
0.0
 48
0.0
 49
2.5
140
2.5
141
2.5
142
0.0
143
0.03937007874
144
1.0
145
0.0
146
1.0
147
0.625
148
0.0
 69
0
 70
0
 71
0
 72
0
 73
0
 74
0
 75
0
 76
0
 77
1
 78
8
 79
3
170
0
171
3
172
1
173
0
174
0
175
0
176
0
177
0
178
0
179
2
271
2
272
2
273
2
274
3
275
0
276
0
277
2
278
44
279
0
280
0
281
0
282
0
283
0
284
8
285
0
286
0
288
0
289
3
290
0
371
-2
372
-2
  0
ENDTAB
  0
TABLE
  2
BLOCK_RECORD
  5
9
330
0
100
AcDbSymbolTable
 70
2
  0
BLOCK_RECORD
  5
17
330
9
100
AcDbSymbolTableRecord
100
AcDbBlockTableRecord
  2
*Model_Space
340
1A
 70
0
280
1
281
0
  0
BLOCK_RECORD
  5
1B
330
9
100
AcDbSymbolTableRecord
100
AcDbBlockTableRecord
  2
*Paper_Space
340
1E
 70
0
280
1
281
0
  0
ENDTAB
  0
ENDSEC
  0
SECTION
  2
BLOCKS
  0
BLOCK
  5
18
330
17
100
AcDbEntity
  8
0
100
AcDbBlockBegin
  2
*Model_Space
 70
0
 10
0.0
 20
0.0
 30
0.0
  3
*Model_Space
  1

  0
ENDBLK
  5
19
330
17
100
AcDbEntity
  8
0
100
AcDbBlockEnd
  0
BLOCK
  5
1C
330
1B
100
AcDbEntity
  8
0
100
AcDbBlockBegin
  2
*Paper_Space
 70
0
 10
0.0
 20
0.0
 30
0.0
  3
*Paper_Space
  1

  0
ENDBLK
  5
1D
330
1B
100
AcDbEntity
  8
0
100
AcDbBlockEnd
  0
ENDSEC
  0
SECTION
  2
ENTITIES
  0
LWPOLYLINE
  5
2F
330
17
100
AcDbEntity
  8
0
100
AcDbPolyline
 90
65
 70
1
 10
3.94881227
 20
30.300753978000003
 10
6.035909442
 20
30.300753978000003
 10
5.798739228
 20
29.797953358
 10
9.77371045
 20
29.797953358
 10
9.546027136
 20
30.509463746
 10
18.31213127
 20
30.509463746
 10
18.31213127
 20
30.3351438
 10
17.534213343999998
 20
29.376976552
 10
15.162512219999996
 20
29.376976552
 10
15.042914201165484
 20
29.343945240760156
 10
14.932273957133761
 20
29.287789296889855
 10
14.835011349732271
 20
29.21075204075474
 10
14.755011830312407
 20
29.1159109603942
 10
14.695471223550735
 20
29.00705477188011
 10
14.65876806049002
 20
28.888532067503682
 10
14.646368560865929
 20
28.765077597999998
 10
14.658768220286225
 20
28.64162314587572
 10
14.695471367830736
 20
28.523100455355355
 10
14.755011950358792
 20
28.41424427390442
 10
14.835011439160134
 20
28.319403191037424
 10
14.932274012614604
 20
28.242365920753013
 10
15.042914222955785
 20
28.186209949890433
 10
15.16251221223752
 20
28.15317859860675
 10
18.833905689999998
 20
28.153178643999997
 10
18.86337483183545
 20
27.977982754985373
 10
18.928097973994383
 20
27.81253504506705
 10
19.02533159047626
 20
27.663848617730867
 10
19.15095408047424
 20
27.53822608848213
 10
19.299640477429765
 20
27.440992425543175
 10
19.46508816712533
 20
27.3762692316901
 10
19.64028404693231
 20
27.34680003511468
 10
24.45039052
 20
27.346800271999996
 10
24.750692211444132
 20
27.40342641950207
 10
25.03331978880746
 20
27.51965584339666
 10
25.28657647391168
 20
27.690678291967473
 10
25.499981027468422
 20
27.909415858440134
 10
25.66470152391514
 20
28.166815906061498
 10
25.769095278525207
 20
28.40712236200905
 10
25.83287257562654
 20
28.661243800073667
 10
25.854323391244307
 20
28.92236659
 10
25.828390525278014
 20
29.209274303221616
 10
25.75143236449501
 20
29.4868819291608
 10
25.625943559393882
 20
29.746190842013757
 10
25.455991818114313
 20
29.978795567087726
 10
25.455991759999996
 20
30.59543792
 10
34.830733742
 20
30.59543792
 10
34.716891958
 20
30.237014455999997
 10
34.745352404
 20
30.161120018
 10
36.98423845200001
 20
30.161120018
 10
36.98423845200001
 20
30.265474902
 10
36.82296267600001
 20
30.607
 10
37.87599790800001
 20
30.607
 10
38.27736508609682
 20
29.69114451517921
 10
38.52264264703466
 20
28.721749962465967
 10
38.605150829016246
 20
27.72521633
 10
38.604703334
 20
27.651563696
 10
38.66294735940604
 20
27.147718584832983
 10
38.68240018746101
 20
26.640891346000004
 10
38.65029835568934
 20
25.99012488420837
 10
38.55430465871477
 20
25.345677273058218
 10
38.55241464
 20
25.196037746000002
 10
0.818833261999997
 20
25.196037746000002
 10
1.6577982614948
 20
26.936911135267593
 10
2.627663042833195
 20
28.60839692155379
 10
3.251237328640802
 20
29.483459779041365
  0
LWPOLYLINE
  5
30
330
17
100
AcDbEntity
  8
0
100
AcDbPolyline
 90
4
 70
1
 10
15.573038449999997
 20
26.861409574
 10
28.841296393999997
 20
26.861409574
 10
28.841296393999997
 20
26.109362564
 10
15.573038449999997
 20
26.109362564
  0
LWPOLYLINE
  5
31
330
17
100
AcDbEntity
  8
0
100
AcDbPolyline
 90
4
 70
1
 10
7.119377937999996
 20
24.104383338
 10
21.946573073999996
 20
24.104383338
 10
21.946573073999996
 20
23.378351008
 10
7.119377937999996
 20
23.378351008
  0
LWPOLYLINE
  5
32
330
17
100
AcDbEntity
  8
0
100
AcDbPolyline
 90
32
 70
1
 10
0.7513878799999957
 20
25.040172423999998
 10
19.262219539999997
 20
25.040172423999998
 10
19.28635861742581
 20
24.928508470495995
 10
19.33313095552482
 20
24.824278522976744
 10
19.400502720110225
 20
24.732014884918392
 10
19.48554433777158
 20
24.65572952041999
 10
19.584557884557878
 20
24.598739599171484
 10
19.693237885382874
 20
24.563523253651365
 10
19.806858531999996
 20
24.551611820764403
 10
19.920479181679124
 20
24.563523239207964
 10
20.02915918543298
 20
24.59873958567714
 10
20.12817273488763
 20
24.65572950846149
 10
20.2132143548408
 20
24.732014875015732
 10
20.28058612124183
 20
24.824278515560533
 10
20.327358460601328
 20
24.92850846588871
 10
20.35149753867767
 20
25.040172422401987
 10
25.545300954
 20
25.040172423999998
 10
25.41658924300659
 20
24.593153136556015
 10
25.199407130731412
 20
24.18178362139784
 10
24.90288571457873
 20
23.823359295135536
 10
24.539491794438163
 20
23.532949573020993
 10
24.1245037247108
 20
23.322764297899887
 10
23.181499134143447
 20
23.103781018231714
 10
22.216201186
 20
23.030220274110185
 10
21.93873152186669
 20
23.03626607422441
 10
21.661788517141105
 20
23.054391663702372
 10
8.331419455999997
 20
23.054391788
 10
8.015306803999998
 20
23.052272412
 10
4.828935681959607
 20
23.268581702526287
 10
1.7010324120909874
 20
23.913540438327338
 10
0.5328213879999978
 20
24.339779615999998
 10
0.5130464719999978
 20
24.388292854
  0
LWPOLYLINE
  5
33
330
17
100
AcDbEntity
  8
0
100
AcDbPolyline
 90
5
 70
1
 10
4.651243681999998
 20
29.461764799999997
 10
3.353886103999997
 20
25.223719936
 10
13.499208713999996
 20
25.223719936
 10
14.725897141999996
 20
29.487779479999997
 10
4.658247731999996
 20
29.487779479999997
  0
LWPOLYLINE
  5
34
330
17
100
AcDbEntity
  8
0
100
AcDbPolyline
 90
30
 70
1
 10
8.809614079999998
 20
22.398541943999998
 10
12.960980681999997
 20
22.398541943999998
 10
13.056721916989089
 20
22.37166666592076
 10
13.145235415725072
 20
22.32634531123461
 10
13.223007926944382
 20
22.264376761568542
 10
13.286952527440793
 20
22.188220654023404
 10
13.334531147296154
 20
22.100899753995222
 10
13.363855310190893
 20
22.005879976477086
 10
13.373761090240093
 20
21.906932817999998
 10
13.363855380526662
 20
21.807985645297453
 10
13.33453121341604
 20
21.712965854118497
 10
13.286952586720385
 20
21.625644941536343
 10
13.223007977030772
 20
21.549488823042374
 10
13.14523545463025
 20
21.487520264467204
 10
13.056721943168839
 20
21.442198903265286
 10
12.960980694415198
 20
21.415323621322234
 10
8.809614079999998
 20
21.415323692
 10
8.712862934377087
 20
21.441208807844475
 10
8.623247360487458
 20
21.485928739844205
 10
8.544391592474197
 20
21.54767492395842
 10
8.479484716278598
 20
21.623950220248613
 10
8.431151696587253
 20
21.7116699022427
 10
8.40134721797786
 20
21.80728640948099
 10
8.391276633541455
 20
21.906932817999998
 10
8.401347173357298
 20
22.00657923563107
 10
8.43115165469213
 20
22.10219575161291
 10
8.479484678803239
 20
22.189915441628433
 10
8.544391560934178
 20
22.266190744893542
 10
8.623247336158324
 20
22.32793693465407
 10
8.712862918242752
 20
22.37265687074317
  0
LWPOLYLINE
  5
35
330
17
100
AcDbEntity
  8
0
100
AcDbPolyline
 90
4
 70
1
 10
7.147519359999996
 20
19.445769337999998
 10
14.114658079999996
 20
19.445769337999998
 10
14.114658079999996
 20
17.917057383999996
 10
7.147519359999995
 20
17.917057383999996
  0
LWPOLYLINE
  5
36
330
17
100
AcDbEntity
  8
0
100
AcDbPolyline
 90
131
 70
1
 10
14.537332875999995
 20
16.173057823999997
 10
12.284193617999996
 20
9.947981373999996
 10
11.544307726007746
 20
7.391002209816812
 10
11.219137662064123
 20
4.749063904566099
 10
12.464711417999997
 20
4.785167467999997
 10
12.482763197999997
 20
5.741912569999997
 10
12.704641361774131
 20
7.406353299810846
 10
13.204835090665735
 20
9.009287826293626
 10
14.253590237999996
 20
12.040655624
 10
14.325228263107332
 20
12.099328320416012
 10
14.406923877647934
 20
12.142920963268205
 10
14.495546614390662
 20
12.169763140494258
 10
14.587700567999995
 20
12.178826295583624
 10
14.694152888314049
 20
12.166692760617446
 10
14.795144194630918
 20
12.13091462366294
 10
14.956718405312685
 20
12.768157437202106
 10
15.24667478677779
 20
13.35816596980686
 10
15.652458544465157
 20
13.875393495849195
 10
16.24835588651086
 20
14.209647436033828
 10
16.899710976389905
 20
14.415938060412325
 10
17.579384958
 20
14.4856700727172
 10
18.30496655235426
 20
14.406081585294515
 10
18.99604332930775
 20
14.171101032428334
 10
19.167389401999998
 20
14.445254828
 10
17.888004864
 20
14.810793339999998
 10
17.23270523829021
 20
14.99399195083838
 10
16.62951059625444
 20
15.308849941506935
 10
16.104542023529564
 20
15.741732521567286
 10
15.680533059323643
 20
16.27389389628507
 10
15.375845230236862
 20
16.882289045242462
 10
15.34602964905925
 20
17.15421300441735
 10
15.33607351574918
 20
17.427585413999992
 10
15.404313111690856
 20
18.14049592846339
 10
15.606553826547136
 20
18.82751612020301
 10
15.93545096373944
 20
19.463695909060082
 10
16.41982542989358
 20
19.906946990269176
 10
16.98653695893273
 20
20.23850117778556
 10
17.610272147468365
 20
20.443548857577273
 10
18.263170483999996
 20
20.512931121591688
 10
18.34491300067018
 20
20.511855432111936
 10
18.42659891428041
 20
20.50862937125426
 10
21.973853436
 20
20.508629289999995
 10
26.441471628
 20
20.508629289999995
 10
26.475427871999997
 20
20.508894973999997
 10
26.854781449607277
 20
20.47549158879515
 10
27.22246041414725
 20
20.376309422951703
 10
27.567149438976458
 20
20.2144008093795
 10
27.87824071325308
 20
19.994748488527815
 10
28.247457731182536
 20
19.681565545851925
 10
28.549848395406602
 20
19.303458883603767
 10
28.774214022439445
 20
18.874431113812026
 10
28.912245532537277
 20
18.410370703879842
 10
28.95883111405709
 20
17.928463507999997
 10
28.931710814963775
 20
17.56005395295903
 10
28.850934707829158
 20
17.19958713097085
 10
29.564075492
 20
16.947890411999996
 10
29.742360632
 20
17.744930219999997
 10
30.19855781390365
 20
19.08111539101359
 10
30.925633420427424
 20
20.291432598365258
 10
31.891047739462905
 20
21.3217150220796
 10
32.96519570761348
 20
21.895209742374448
 10
34.13052109131122
 20
22.248348262593034
 10
35.342326572000005
 20
22.3675855945202
 10
35.51726734532849
 20
22.36512402332892
 10
35.69206958896524
 20
22.3577409606296
 10
36.82744838811905
 20
22.566992330652944
 10
37.89441644699709
 20
23.007957571366564
 10
38.15939691398727
 20
23.325248226197143
 10
38.35649561519677
 20
23.68862147838343
 10
38.477948554915365
 20
24.08376348052522
 10
38.51897152014605
 20
24.495108998
 10
38.500500551539425
 20
24.77188066535794
 10
38.445415384761134
 20
25.043743416214934
 10
25.758421178
 20
25.043743409999998
 10
25.605853333678464
 20
24.52877554791046
 10
25.354819706058738
 20
24.053958779135318
 10
24.762540425658592
 20
23.56424523471431
 10
24.08572176412365
 20
23.20019767670324
 10
23.350650691408614
 20
22.975955300794173
 10
22.585876596
 20
22.90022744536622
 10
22.28780333705719
 20
22.91163613724005
 10
21.9914741663847
 20
22.94579528268817
 10
6.63879673
 20
22.945795357999998
 10
3.5120345119676184
 20
23.335418016704434
 10
0.4620389610668347
 20
24.126603787415785
 10
0.03921836199999957
 20
22.963847138
 10
0.009858363192667948
 20
22.83322558868998
 10
4.3445598427371836e-07
 20
22.699708473999998
 10
0.020468368557992844
 20
22.50788465670886
 10
0.0809503221551217
 20
22.32469829399307
 10
0.17872298368623635
 20
22.158397912595166
 10
0.3093838397689427
 20
22.0164716962583
 10
0.467049485385407
 20
21.90531030733072
 10
0.6446205422032788
 20
21.829919127630774
 10
3.350951641999999
 20
20.765446657999995
 10
3.6532397189891124
 20
20.55097096719992
 10
3.903648295846349
 20
20.277706538358043
 10
4.090971703453788
 20
19.95788182949976
 10
4.20682730512208
 20
19.60580884985488
 10
4.246030615742745
 20
19.237242703999993
 10
4.22148734553602
 20
18.945004402263915
 10
4.1485451024343005
 20
18.660953303532303
 10
3.8122105619999997
 20
17.613511381999995
 10
2.8959256279999996
 20
14.652474885999997
 10
2.9981888303116717
 20
14.53704791896441
 10
3.0745265948134324
 20
14.403056527535906
 10
3.1216750900242896
 20
14.256229531838844
 10
3.1376184756330288
 20
14.102844539999996
 10
3.1251387274573
 20
13.966979983160922
 10
3.088116874460231
 20
13.835662404079546
 10
2.7149787863548567
 20
12.578228802860949
 10
2.2905234146987548
 20
11.337177250033287
 10
1.4859052436066769
 20
8.026234989147023
 10
1.2154266056326308
 20
4.629679335999999
 10
1.2154270839999997
 20
4.624864257999996
 10
1.4381429396792555
 20
4.2657861906749
 10
1.723003201741376
 20
3.953706005621815
 10
2.0603220018772572
 20
3.699235107718424
 10
2.4386297674176562
 20
3.5110260608139257
 10
2.845063211743336
 20
3.395478381744059
 10
3.265802714
 20
3.356520942843599
 10
3.346178474
 20
3.357931053999996
 10
3.4332027155909626
 20
3.940182175845791
 10
3.548833826485253
 20
4.517433450169652
 10
3.5689285999999996
 20
6.577130863999996
 10
4.294945004705096
 20
9.939263040327019
 10
5.633795565125258
 20
13.107624094224919
 10
6.617451938413855
 20
14.24793615144563
 10
7.8138605401130174
 20
15.162538694809454
 10
9.17226750780083
 20
15.812632430115785
 10
10.635046565136063
 20
16.170639111574083
  0
LWPOLYLINE
  5
37
330
17
100
AcDbEntity
  8
0
100
AcDbPolyline
 90
16
 70
1
 10
4.878955443999998
 20
4.696367035999997
 10
4.848520694735686
 20
4.57602987784678
 10
4.8382829182519425
 20
4.452326629999997
 10
4.86071535070885
 20
4.269963324049825
 10
4.9266751149634915
 20
4.098473096148414
 10
5.012597557212379
 20
3.9707163006876223
 10
5.122724367511322
 20
3.86312193286967
 10
5.2524451924986755
 20
3.780194435033522
 10
5.396329310492349
 20
3.7254055408856517
 10
6.494862295999998
 20
3.6261832479999976
 10
10.995304399999997
 20
3.6190958859999975
 10
11.151225347999997
 20
4.568795535999998
 10
10.01793874907499
 20
4.527914987968478
 10
8.883996964
 20
4.514285513609571
 10
7.213532443129251
 20
4.543868839276747
 10
5.54516289149165
 20
4.632581420078989
  0
LWPOLYLINE
  5
38
330
17
100
AcDbEntity
  8
0
100
AcDbPolyline
 90
49
 70
1
 10
11.155936285999996
 20
0.7173843919999975
 10
11.11138441723552
 20
1.4229988053093396
 10
11.096525042914209
 20
2.129862135999988
 10
11.142577463965232
 20
3.3736904854925736
 10
11.280482907186252
 20
4.610707820928365
 10
12.406064341999997
 20
4.6107078219999975
 10
12.285067268991476
 20
3.8834425647768382
 10
12.24457201640169
 20
3.1472936799999984
 10
12.260886553086422
 20
2.6796219563729555
 10
12.309750422033183
 20
2.214223930078387
 10
12.34737824115347
 20
2.0743608833723712
 10
12.41326824166044
 20
1.9453801269213449
 10
12.504539524613822
 20
1.8329208871518579
 10
12.617201568114165
 20
1.741900056262361
 10
12.746328613069696
 20
1.6762972060000445
 10
12.925637597999998
 20
0.5302791019999975
 10
12.8393835232905
 20
0.3809282579115853
 10
12.726426471289091
 20
0.250597354296735
 10
12.590847976676304
 20
0.14399570406353038
 10
12.437546966237953
 20
0.06497519892408479
 10
12.272062743448933
 20
0.016391127029826806
 10
12.100374833999998
 20
-9.986092588354368e-07
 10
11.974776864027632
 20
0.008734242777335359
 10
11.851597322567718
 20
0.03477181894739251
 10
11.528424940062456
 20
0.08980823963153585
 10
11.22401620590133
 20
0.2114828893997773
 10
10.95194660980214
 20
0.39436955569403453
 10
10.151497349999998
 20
1.0772528619999975
 10
9.201574728811684
 20
1.9065292046790066
 10
8.095123160978268
 20
2.51135741732399
 10
6.884247339591003
 20
2.8632551069328667
 10
3.452321517999998
 20
3.272651569999997
 10
3.401042727999998
 20
3.331434535999997
 10
3.599487339999998
 20
4.486666159999998
 10
3.705827111532986
 20
4.605062811544059
 10
3.832270603317644
 20
4.70169591918237
 10
3.9744352078987912
 20
4.773216121299116
 10
4.127393414598685
 20
4.817144484684143
 10
4.285843599999997
 20
4.831958425848591
 10
4.332537304397669
 20
4.830682050331954
 10
4.379091574249735
 20
4.826857016500156
 10
6.769818207341547
 20
4.642026743996841
 10
9.166885908000001
 20
4.580362285455981
 10
10.183060136224483
 20
4.59143798424802
 10
11.198751539014648
 20
4.624660110433775
 10
11.036699694049691
 20
3.449886595921934
 10
10.982531725750482
 20
2.2652266099999987
 10
11.004295158211526
 20
1.5138507022000625
 10
11.06951239194306
 20
0.7649941652569673
  0
LWPOLYLINE
  5
39
330
17
100
AcDbEntity
  8
0
100
AcDbPolyline
 90
45
 70
1
 10
0.4772352659999976
 20
24.075630284
 10
2.655433217196685
 20
23.464855047823153
 10
4.885042039545317
 20
23.082183905679578
 10
5.758089104820075
 20
22.96038222815094
 10
6.638025837672313
 20
22.90786389827326
 10
22.048451204
 20
22.907864014
 10
22.313477083816917
 20
22.883746502186934
 10
22.579476303999996
 20
22.875697514003537
 10
23.322988100826628
 20
22.93898142750154
 10
24.04510921330233
 20
23.127012680859483
 10
24.725064362748228
 20
23.43438159286022
 10
25.04595585647377
 20
23.657816811982375
 10
25.32086310316106
 20
23.935882722024548
 10
25.540617866168034
 20
24.259305802129408
 10
25.69789127681181
 20
24.617299822908027
 10
25.7874382329697
 20
24.997925606653197
 10
38.401016162
 20
24.997925620000004
 10
38.45177171442357
 20
24.779012129753283
 10
38.468821083428345
 20
24.554939460000003
 10
38.44068604925434
 20
24.26763628523458
 10
38.35734958412414
 20
23.991249355428668
 10
38.22197822825435
 20
23.736280146703553
 10
36.960102365179765
 20
23.57199515244292
 10
35.688761998
 20
23.517097243712694
 10
35.36099869618574
 20
23.520739719681266
 10
35.03339729211101
 20
23.531665365531705
 10
32.489135331936865
 20
23.387006095044637
 10
29.97257837928819
 20
22.98558816756538
 10
28.844657253615093
 20
22.653871556056117
 10
27.804278423228876
 20
22.106282399859676
 10
26.768215784194865
 20
21.613659027143562
 10
25.661438850498403
 20
21.311751117238845
 10
24.518740142
 20
21.210049452445862
 10
24.402556985999997
 20
21.211092706000006
 10
4.827676907999996
 20
21.211092706000006
 10
2.787132241236796
 20
21.93526109954138
 10
0.6836849504508611
 20
22.448828908253454
 10
0.5640957054754991
 20
22.477988564672618
 10
0.45223667497030245
 20
22.529363956936482
 10
0.3521925481462991
 20
22.601078992485878
 10
0.2676165840124255
 20
22.69051489090846
 10
0.20159719877781235
 20
22.794405768318715
 10
0.15654518777377519
 20
22.90895789593021
 10
0.13410569170268385
 20
23.02998823366379
 10
0.47700641199999677
 20
24.033155388000004
  0
ENDSEC
  0
SECTION
  2
OBJECTS
  0
DICTIONARY
  5
A
330
0
100
AcDbDictionary
281
1
  3
ACAD_COLOR
350
B
  3
ACAD_GROUP
350
C
  3
ACAD_LAYOUT
350
D
  3
ACAD_MATERIAL
350
E
  3
ACAD_MLEADERSTYLE
350
F
  3
ACAD_MLINESTYLE
350
10
  3
ACAD_PLOTSETTINGS
350
11
  3
ACAD_PLOTSTYLENAME
350
12
  3
ACAD_SCALELIST
350
14
  3
ACAD_TABLESTYLE
350
15
  3
ACAD_VISUALSTYLE
350
16
  3
EZDXF_META
350
2D
  0
DICTIONARY
  5
B
330
A
100
AcDbDictionary
281
1
  0
DICTIONARY
  5
C
330
A
100
AcDbDictionary
281
1
  0
DICTIONARY
  5
D
330
A
100
AcDbDictionary
281
1
  3
Model
350
1A
  3
Layout1
350
1E
  0
DICTIONARY
  5
E
330
A
100
AcDbDictionary
281
1
  3
ByBlock
350
1F
  3
ByLayer
350
20
  3
Global
350
21
  0
DICTIONARY
  5
F
330
A
100
AcDbDictionary
281
1
  3
Standard
350
2C
  0
DICTIONARY
  5
10
330
A
100
AcDbDictionary
281
1
  3
Standard
350
22
  0
DICTIONARY
  5
11
330
A
100
AcDbDictionary
281
1
  0
ACDBDICTIONARYWDFLT
  5
12
330
A
100
AcDbDictionary
281
1
  3
Normal
350
13
100
AcDbDictionaryWithDefault
340
13
  0
ACDBPLACEHOLDER
  5
13
330
12
  0
DICTIONARY
  5
14
330
A
100
AcDbDictionary
281
1
  0
DICTIONARY
  5
15
330
A
100
AcDbDictionary
281
1
  0
DICTIONARY
  5
16
330
A
100
AcDbDictionary
281
1
  0
LAYOUT
  5
1A
330
D
100
AcDbPlotSettings
  1

  4
A3
  6

 40
7.5
 41
20.0
 42
7.5
 43
20.0
 44
420.0
 45
297.0
 46
0.0
 47
0.0
 48
0.0
 49
0.0
140
0.0
141
0.0
142
1.0
143
1.0
 70
1024
 72
1
 73
0
 74
5
  7

 75
16
 76
0
 77
2
 78
300
147
1.0
148
0.0
149
0.0
100
AcDbLayout
  1
Model
 70
1
 71
0
 10
0.0
 20
0.0
 11
420.0
 21
297.0
 12
0.0
 22
0.0
 32
0.0
 14
1e+20
 24
1e+20
 34
1e+20
 15
-1e+20
 25
-1e+20
 35
-1e+20
146
0.0
 13
0.0
 23
0.0
 33
0.0
 16
1.0
 26
0.0
 36
0.0
 17
0.0
 27
1.0
 37
0.0
 76
1
330
17
  0
LAYOUT
  5
1E
330
D
100
AcDbPlotSettings
  1

  4
A3
  6

 40
7.5
 41
20.0
 42
7.5
 43
20.0
 44
420.0
 45
297.0
 46
0.0
 47
0.0
 48
0.0
 49
0.0
140
0.0
141
0.0
142
1.0
143
1.0
 70
0
 72
1
 73
0
 74
5
  7

 75
16
 76
0
 77
2
 78
300
147
1.0
148
0.0
149
0.0
100
AcDbLayout
  1
Layout1
 70
1
 71
1
 10
0.0
 20
0.0
 11
420.0
 21
297.0
 12
0.0
 22
0.0
 32
0.0
 14
1e+20
 24
1e+20
 34
1e+20
 15
-1e+20
 25
-1e+20
 35
-1e+20
146
0.0
 13
0.0
 23
0.0
 33
0.0
 16
1.0
 26
0.0
 36
0.0
 17
0.0
 27
1.0
 37
0.0
 76
1
330
1B
  0
MATERIAL
  5
1F
102
{ACAD_REACTORS
330
E
102
}
330
E
100
AcDbMaterial
  1
ByBlock
  2

 70
0
 40
1.0
 71
1
 41
1.0
 91
-1023410177
 42
1.0
 72
1
  3

 73
1
 74
1
 75
1
 44
0.5
 73
0
 45
1.0
 46
1.0
 77
1
  4

 78
1
 79
1
170
1
 48
1.0
171
1
  6

172
1
173
1
174
1
140
1.0
141
1.0
175
1
  7

176
1
177
1
178
1
143
1.0
179
1
  8

270
1
271
1
272
1
145
1.0
146
1.0
273
1
  9

274
1
275
1
276
1
 42
1.0
 72
1
  3

 73
1
 74
1
 75
1
 94
63
  0
MATERIAL
  5
20
102
{ACAD_REACTORS
330
E
102
}
330
E
100
AcDbMaterial
  1
ByLayer
  2

 70
0
 40
1.0
 71
1
 41
1.0
 91
-1023410177
 42
1.0
 72
1
  3

 73
1
 74
1
 75
1
 44
0.5
 73
0
 45
1.0
 46
1.0
 77
1
  4

 78
1
 79
1
170
1
 48
1.0
171
1
  6

172
1
173
1
174
1
140
1.0
141
1.0
175
1
  7

176
1
177
1
178
1
143
1.0
179
1
  8

270
1
271
1
272
1
145
1.0
146
1.0
273
1
  9

274
1
275
1
276
1
 42
1.0
 72
1
  3

 73
1
 74
1
 75
1
 94
63
  0
MATERIAL
  5
21
102
{ACAD_REACTORS
330
E
102
}
330
E
100
AcDbMaterial
  1
Global
  2

 70
0
 40
1.0
 71
1
 41
1.0
 91
-1023410177
 42
1.0
 72
1
  3

 73
1
 74
1
 75
1
 44
0.5
 73
0
 45
1.0
 46
1.0
 77
1
  4

 78
1
 79
1
170
1
 48
1.0
171
1
  6

172
1
173
1
174
1
140
1.0
141
1.0
175
1
  7

176
1
177
1
178
1
143
1.0
179
1
  8

270
1
271
1
272
1
145
1.0
146
1.0
273
1
  9

274
1
275
1
276
1
 42
1.0
 72
1
  3

 73
1
 74
1
 75
1
 94
63
  0
MLINESTYLE
  5
22
102
{ACAD_REACTORS
330
10
102
}
330
10
100
AcDbMlineStyle
  2
Standard
 70
0
  3

 62
256
 51
90.0
 52
90.0
 71
2
 49
0.5
 62
256
  6
BYLAYER
 49
-0.5
 62
256
  6
BYLAYER
  0
MLEADERSTYLE
  5
2C
102
{ACAD_REACTORS
330
F
102
}
330
F
100
AcDbMLeaderStyle
179
2
170
2
171
1
172
0
 90
2
 40
0.0
 41
0.0
173
1
 91
-1056964608
 92
-2
290
1
 42
2.0
291
1
 43
8.0
  3
Standard
 44
4.0
300

342
29
174
1
175
1
176
0
178
1
 93
-1056964608
 45
4.0
292
0
297
0
 46
4.0
 94
-1056964608
 47
1.0
 49
1.0
140
1.0
294
1
141
0.0
177
0
142
1.0
295
0
296
0
143
3.75
271
0
272
9
273
9
  0
DICTIONARY
  5
2D
330
A
100
AcDbDictionary
280
1
281
1
  3
CREATED_BY_EZDXF
350
2E
  3
WRITTEN_BY_EZDXF
350
3C
  0
DICTIONARYVAR
  5
2E
330
2D
100
DictionaryVariables
280
0
  1
1.4.3 @ 2026-04-12T00:41:30.590774+00:00
  0
DICTIONARYVAR
  5
3C
330
2D
100
DictionaryVariables
280
0
  1
1.4.3 @ 2026-04-12T00:41:30.592050+00:00
  0
ENDSEC
  0
EOF
