  0
SECTION
  2
HEADER
  9
$ACADVER
  1
AC1024
  9
$ACADMAINTVER
 70
6
  9
$DWGCODEPAGE
  3
ANSI_1252
  9
$LASTSAVEDBY
  1
ezdxf
  9
$INSBASE
 10
0.0
 20
0.0
 30
0.0
  9
$EXTMIN
 10
1e+20
 20
1e+20
 30
1e+20
  9
$EXTMAX
 10
-1e+20
 20
-1e+20
 30
-1e+20
  9
$LIMMIN
 10
0.0
 20
0.0
  9
$LIMMAX
 10
420.0
 20
297.0
  9
$ORTHOMODE
 70
0
  9
$REGENMODE
 70
1
  9
$FILLMODE
 70
1
  9
$QTEXTMODE
 70
0
  9
$MIRRTEXT
 70
1
  9
$LTSCALE
 40
1.0
  9
$ATTMODE
 70
1
  9
$TEXTSIZE
 40
2.5
  9
$TRACEWID
 40
1.0
  9
$TEXTSTYLE
  7
Standard
  9
$CLAYER
  8
0
  9
$CELTYPE
  6
ByLayer
  9
$CECOLOR
 62
256
  9
$CELTSCALE
 40
1.0
  9
$DISPSILH
 70
0
  9
$DIMSCALE
 40
1.0
  9
$DIMASZ
 40
2.5
  9
$DIMEXO
 40
0.625
  9
$DIMDLI
 40
3.75
  9
$DIMRND
 40
0.0
  9
$DIMDLE
 40
0.0
  9
$DIMEXE
 40
1.25
  9
$DIMTP
 40
0.0
  9
$DIMTM
 40
0.0
  9
$DIMTXT
 40
2.5
  9
$DIMCEN
 40
2.5
  9
$DIMTSZ
 40
0.0
  9
$DIMTOL
 70
0
  9
$DIMLIM
 70
0
  9
$DIMTIH
 70
0
  9
$DIMTOH
 70
0
  9
$DIMSE1
 70
0
  9
$DIMSE2
 70
0
  9
$DIMTAD
 70
1
  9
$DIMZIN
 70
8
  9
$DIMBLK
  1

  9
$DIMASO
 70
1
  9
$DIMSHO
 70
1
  9
$DIMPOST
  1

  9
$DIMAPOST
  1

  9
$DIMALT
 70
0
  9
$DIMALTD
 70
3
  9
$DIMALTF
 40
0.03937007874
  9
$DIMLFAC
 40
1.0
  9
$DIMTOFL
 70
1
  9
$DIMTVP
 40
0.0
  9
$DIMTIX
 70
0
  9
$DIMSOXD
 70
0
  9
$DIMSAH
 70
0
  9
$DIMBLK1
  1

  9
$DIMBLK2
  1

  9
$DIMSTYLE
  2
ISO-25
  9
$DIMCLRD
 70
0
  9
$DIMCLRE
 70
0
  9
$DIMCLRT
 70
0
  9
$DIMTFAC
 40
1.0
  9
$DIMGAP
 40
0.625
  9
$DIMJUST
 70
0
  9
$DIMSD1
 70
0
  9
$DIMSD2
 70
0
  9
$DIMTOLJ
 70
0
  9
$DIMTZIN
 70
8
  9
$DIMALTZ
 70
0
  9
$DIMALTTZ
 70
0
  9
$DIMUPT
 70
0
  9
$DIMDEC
 70
2
  9
$DIMTDEC
 70
2
  9
$DIMALTU
 70
2
  9
$DIMALTTD
 70
3
  9
$DIMTXSTY
  7
Standard
  9
$DIMAUNIT
 70
0
  9
$DIMADEC
 70
0
  9
$DIMALTRND
 40
0.0
  9
$DIMAZIN
 70
0
  9
$DIMDSEP
 70
44
  9
$DIMATFIT
 70
3
  9
$DIMFRAC
 70
0
  9
$DIMLDRBLK
  1

  9
$DIMLUNIT
 70
2
  9
$DIMLWD
 70
-2
  9
$DIMLWE
 70
-2
  9
$DIMTMOVE
 70
0
  9
$DIMFXL
 40
1.0
  9
$DIMFXLON
 70
0
  9
$DIMJOGANG
 40
0.785398163397
  9
$DIMTFILL
 70
0
  9
$DIMTFILLCLR
 70
0
  9
$DIMARCSYM
 70
0
  9
$DIMLTYPE
  6

  9
$DIMLTEX1
  6

  9
$DIMLTEX2
  6

  9
$DIMTXTDIRECTION
 70
0
  9
$LUNITS
 70
2
  9
$LUPREC
 70
4
  9
$SKETCHINC
 40
1.0
  9
$FILLETRAD
 40
10.0
  9
$AUNITS
 70
0
  9
$AUPREC
 70
2
  9
$MENU
  1
.
  9
$ELEVATION
 40
0.0
  9
$PELEVATION
 40
0.0
  9
$THICKNESS
 40
0.0
  9
$LIMCHECK
 70
0
  9
$CHAMFERA
 40
0.0
  9
$CHAMFERB
 40
0.0
  9
$CHAMFERC
 40
0.0
  9
$CHAMFERD
 40
0.0
  9
$SKPOLY
 70
0
  9
$TDCREATE
 40
2461142.7371527776
  9
$TDUCREATE
 40
2458532.153996898
  9
$TDUPDATE
 40
2461142.7371527776
  9
$TDUUPDATE
 40
2458532.1544311
  9
$TDINDWG
 40
0.0
  9
$TDUSRTIMER
 40
0.0
  9
$USRTIMER
 70
1
  9
$ANGBASE
 50
0.0
  9
$ANGDIR
 70
0
  9
$PDMODE
 70
0
  9
$PDSIZE
 40
0.0
  9
$PLINEWID
 40
0.0
  9
$SPLFRAME
 70
0
  9
$SPLINETYPE
 70
6
  9
$SPLINESEGS
 70
8
  9
$HANDSEED
  5
3F
  9
$SURFTAB1
 70
6
  9
$SURFTAB2
 70
6
  9
$SURFTYPE
 70
6
  9
$SURFU
 70
6
  9
$SURFV
 70
6
  9
$UCSBASE
  2

  9
$UCSNAME
  2

  9
$UCSORG
 10
0.0
 20
0.0
 30
0.0
  9
$UCSXDIR
 10
1.0
 20
0.0
 30
0.0
  9
$UCSYDIR
 10
0.0
 20
1.0
 30
0.0
  9
$UCSORTHOREF
  2

  9
$UCSORTHOVIEW
 70
0
  9
$UCSORGTOP
 10
0.0
 20
0.0
 30
0.0
  9
$UCSORGBOTTOM
 10
0.0
 20
0.0
 30
0.0
  9
$UCSORGLEFT
 10
0.0
 20
0.0
 30
0.0
  9
$UCSORGRIGHT
 10
0.0
 20
0.0
 30
0.0
  9
$UCSORGFRONT
 10
0.0
 20
0.0
 30
0.0
  9
$UCSORGBACK
 10
0.0
 20
0.0
 30
0.0
  9
$PUCSBASE
  2

  9
$PUCSNAME
  2

  9
$PUCSORG
 10
0.0
 20
0.0
 30
0.0
  9
$PUCSXDIR
 10
1.0
 20
0.0
 30
0.0
  9
$PUCSYDIR
 10
0.0
 20
1.0
 30
0.0
  9
$PUCSORTHOREF
  2

  9
$PUCSORTHOVIEW
 70
0
  9
$PUCSORGTOP
 10
0.0
 20
0.0
 30
0.0
  9
$PUCSORGBOTTOM
 10
0.0
 20
0.0
 30
0.0
  9
$PUCSORGLEFT
 10
0.0
 20
0.0
 30
0.0
  9
$PUCSORGRIGHT
 10
0.0
 20
0.0
 30
0.0
  9
$PUCSORGFRONT
 10
0.0
 20
0.0
 30
0.0
  9
$PUCSORGBACK
 10
0.0
 20
0.0
 30
0.0
  9
$USERI1
 70
0
  9
$USERI2
 70
0
  9
$USERI3
 70
0
  9
$USERI4
 70
0
  9
$USERI5
 70
0
  9
$USERR1
 40
0.0
  9
$USERR2
 40
0.0
  9
$USERR3
 40
0.0
  9
$USERR4
 40
0.0
  9
$USERR5
 40
0.0
  9
$WORLDVIEW
 70
1
  9
$SHADEDGE
 70
3
  9
$SHADEDIF
 70
70
  9
$TILEMODE
 70
1
  9
$MAXACTVP
 70
64
  9
$PINSBASE
 10
0.0
 20
0.0
 30
0.0
  9
$PLIMCHECK
 70
0
  9
$PEXTMIN
 10
1e+20
 20
1e+20
 30
1e+20
  9
$PEXTMAX
 10
-1e+20
 20
-1e+20
 30
-1e+20
  9
$PLIMMIN
 10
0.0
 20
0.0
  9
$PLIMMAX
 10
420.0
 20
297.0
  9
$UNITMODE
 70
0
  9
$VISRETAIN
 70
1
  9
$PLINEGEN
 70
0
  9
$PSLTSCALE
 70
1
  9
$TREEDEPTH
 70
3020
  9
$CMLSTYLE
  2
Standard
  9
$CMLJUST
 70
0
  9
$CMLSCALE
 40
20.0
  9
$PROXYGRAPHICS
 70
1
  9
$MEASUREMENT
 70
1
  9
$CELWEIGHT
370
-1
  9
$ENDCAPS
280
0
  9
$JOINSTYLE
280
0
  9
$LWDISPLAY
290
0
  9
$INSUNITS
 70
4
  9
$HYPERLINKBASE
  1

  9
$STYLESHEET
  1

  9
$XEDIT
290
1
  9
$CEPSNTYPE
380
0
  9
$PSTYLEMODE
290
1
  9
$FINGERPRINTGUID
  2
{F348E8AB-939F-4BEF-A8D9-EFA1376B8479}
  9
$VERSIONGUID
  2
{A9B73EB4-A378-4FC8-BE4F-11C3628645E7}
  9
$EXTNAMES
290
1
  9
$PSVPSCALE
 40
0.0
  9
$OLESTARTUP
290
0
  9
$SORTENTS
280
127
  9
$INDEXCTL
280
0
  9
$HIDETEXT
280
1
  9
$XCLIPFRAME
280
1
  9
$HALOGAP
280
0
  9
$OBSCOLOR
 70
257
  9
$OBSLTYPE
280
0
  9
$INTERSECTIONDISPLAY
280
0
  9
$INTERSECTIONCOLOR
 70
257
  9
$DIMASSOC
280
2
  9
$PROJECTNAME
  1

  9
$CAMERADISPLAY
290
0
  9
$LENSLENGTH
 40
50.0
  9
$CAMERAHEIGHT
 40
0.0
  9
$STEPSPERSEC
 40
24.0
  9
$STEPSIZE
 40
100.0
  9
$3DDWFPREC
 40
2.0
  9
$PSOLWIDTH
 40
0.005
  9
$PSOLHEIGHT
 40
0.08
  9
$LOFTANG1
 40
1.570796326795
  9
$LOFTANG2
 40
1.570796326795
  9
$LOFTMAG1
 40
0.0
  9
$LOFTMAG2
 40
0.0
  9
$LOFTPARAM
 70
7
  9
$LOFTNORMALS
280
1
  9
$LATITUDE
 40
37.795
  9
$LONGITUDE
 40
-122.394
  9
$NORTHDIRECTION
 40
0.0
  9
$TIMEZONE
 70
-8000
  9
$LIGHTGLYPHDISPLAY
280
1
  9
$TILEMODELIGHTSYNCH
280
1
  9
$CMATERIAL
347
20
  9
$SOLIDHIST
280
0
  9
$SHOWHIST
280
1
  9
$DWFFRAME
280
2
  9
$DGNFRAME
280
2
  9
$REALWORLDSCALE
290
1
  9
$INTERFERECOLOR
 62
256
  9
$CSHADOW
280
0
  9
$SHADOWPLANELOCATION
 40
0.0
  0
ENDSEC
  0
SECTION
  2
CLASSES
  0
CLASS
  1
ACDBDICTIONARYWDFLT
  2
AcDbDictionaryWithDefault
  3
ObjectDBX Classes
 90
0
 91
0
280
0
281
0
  0
CLASS
  1
SUN
  2
AcDbSun
  3
SCENEOE
 90
1153
 91
0
280
0
281
0
  0
CLASS
  1
VISUALSTYLE
  2
AcDbVisualStyle
  3
ObjectDBX Classes
 90
4095
 91
0
280
0
281
0
  0
CLASS
  1
MATERIAL
  2
AcDbMaterial
  3
ObjectDBX Classes
 90
1153
 91
0
280
0
281
0
  0
CLASS
  1
SCALE
  2
AcDbScale
  3
ObjectDBX Classes
 90
1153
 91
0
280
0
281
0
  0
CLASS
  1
TABLESTYLE
  2
AcDbTableStyle
  3
ObjectDBX Classes
 90
4095
 91
0
280
0
281
0
  0
CLASS
  1
MLEADERSTYLE
  2
AcDbMLeaderStyle
  3
ACDB_MLEADERSTYLE_CLASS
 90
4095
 91
0
280
0
281
0
  0
CLASS
  1
DICTIONARYVAR
  2
AcDbDictionaryVar
  3
ObjectDBX Classes
 90
0
 91
0
280
0
281
0
  0
CLASS
  1
CELLSTYLEMAP
  2
AcDbCellStyleMap
  3
ObjectDBX Classes
 90
1152
 91
0
280
0
281
0
  0
CLASS
  1
MENTALRAYRENDERSETTINGS
  2
AcDbMentalRayRenderSettings
  3
SCENEOE
 90
1024
 91
0
280
0
281
0
  0
CLASS
  1
ACDBDETAILVIEWSTYLE
  2
AcDbDetailViewStyle
  3
ObjectDBX Classes
 90
1025
 91
0
280
0
281
0
  0
CLASS
  1
ACDBSECTIONVIEWSTYLE
  2
AcDbSectionViewStyle
  3
ObjectDBX Classes
 90
1025
 91
0
280
0
281
0
  0
CLASS
  1
RASTERVARIABLES
  2
AcDbRasterVariables
  3
ISM
 90
0
 91
0
280
0
281
0
  0
CLASS
  1
ACDBPLACEHOLDER
  2
AcDbPlaceHolder
  3
ObjectDBX Classes
 90
0
 91
0
280
0
281
0
  0
CLASS
  1
LAYOUT
  2
AcDbLayout
  3
ObjectDBX Classes
 90
0
 91
0
280
0
281
0
  0
ENDSEC
  0
SECTION
  2
TABLES
  0
TABLE
  2
VPORT
  5
8
330
0
100
AcDbSymbolTable
 70
1
  0
VPORT
  5
23
330
8
100
AcDbSymbolTableRecord
100
AcDbViewportTableRecord
  2
*Active
 70
0
 10
0.0
 20
0.0
 11
1.0
 21
1.0
 12
0.0
 22
0.0
 13
0.0
 23
0.0
 14
0.5
 24
0.5
 15
0.5
 25
0.5
 16
0.0
 26
0.0
 36
1.0
 17
0.0
 27
0.0
 37
0.0
 40
1000.0
 41
1.34
 42
50.0
 43
0.0
 44
0.0
 50
0.0
 51
0.0
 71
0
 72
1000
 73
1
 74
3
 75
0
 76
0
 77
0
 78
0
281
0
 65
0
146
0.0
  0
ENDTAB
  0
TABLE
  2
LTYPE
  5
2
330
0
100
AcDbSymbolTable
 70
3
  0
LTYPE
  5
24
330
2
100
AcDbSymbolTableRecord
100
AcDbLinetypeTableRecord
  2
ByBlock
 70
0
  3

 72
65
 73
0
 40
0.0
  0
LTYPE
  5
25
330
2
100
AcDbSymbolTableRecord
100
AcDbLinetypeTableRecord
  2
ByLayer
 70
0
  3

 72
65
 73
0
 40
0.0
  0
LTYPE
  5
26
330
2
100
AcDbSymbolTableRecord
100
AcDbLinetypeTableRecord
  2
Continuous
 70
0
  3

 72
65
 73
0
 40
0.0
  0
ENDTAB
  0
TABLE
  2
LAYER
  5
1
330
0
100
AcDbSymbolTable
 70
2
  0
LAYER
  5
27
330
1
100
AcDbSymbolTableRecord
100
AcDbLayerTableRecord
  2
0
 70
0
 62
7
  6
Continuous
370
-3
390
13
347
21
  0
LAYER
  5
28
330
1
100
AcDbSymbolTableRecord
100
AcDbLayerTableRecord
  2
Defpoints
 70
0
 62
7
  6
Continuous
290
0
370
-3
390
13
347
21
  0
ENDTAB
  0
TABLE
  2
STYLE
  5
5
330
0
100
AcDbSymbolTable
 70
1
  0
STYLE
  5
29
330
5
100
AcDbSymbolTableRecord
100
AcDbTextStyleTableRecord
  2
Standard
 70
0
 40
0.0
 41
1.0
 50
0.0
 71
0
 42
2.5
  3
txt
  4

  0
ENDTAB
  0
TABLE
  2
VIEW
  5
7
330
0
100
AcDbSymbolTable
 70
0
  0
ENDTAB
  0
TABLE
  2
UCS
  5
6
330
0
100
AcDbSymbolTable
 70
0
  0
ENDTAB
  0
TABLE
  2
APPID
  5
3
330
0
100
AcDbSymbolTable
 70
3
  0
APPID
  5
2A
330
3
100
AcDbSymbolTableRecord
100
AcDbRegAppTableRecord
  2
ACAD
 70
0
  0
APPID
  5
3C
330
3
100
AcDbSymbolTableRecord
100
AcDbRegAppTableRecord
  2
HATCHBACKGROUNDCOLOR
 70
0
  0
APPID
  5
3D
330
3
100
AcDbSymbolTableRecord
100
AcDbRegAppTableRecord
  2
EZDXF
 70
0
  0
ENDTAB
  0
TABLE
  2
DIMSTYLE
  5
4
330
0
100
AcDbSymbolTable
 70
1
100
AcDbDimStyleTable
  0
DIMSTYLE
105
2B
330
4
100
AcDbSymbolTableRecord
100
AcDbDimStyleTableRecord
  2
Standard
 70
0
 40
1.0
 41
2.5
 42
0.625
 43
3.75
 44
1.25
 45
0.0
 46
0.0
 47
0.0
 48
0.0
 49
2.5
140
2.5
141
2.5
142
0.0
143
0.03937007874
144
1.0
145
0.0
146
1.0
147
0.625
148
0.0
 69
0
 70
0
 71
0
 72
0
 73
0
 74
0
 75
0
 76
0
 77
1
 78
8
 79
3
170
0
171
3
172
1
173
0
174
0
175
0
176
0
177
0
178
0
179
2
271
2
272
2
273
2
274
3
275
0
276
0
277
2
278
44
279
0
280
0
281
0
282
0
283
0
284
8
285
0
286
0
288
0
289
3
290
0
371
-2
372
-2
  0
ENDTAB
  0
TABLE
  2
BLOCK_RECORD
  5
9
330
0
100
AcDbSymbolTable
 70
2
  0
BLOCK_RECORD
  5
17
330
9
100
AcDbSymbolTableRecord
100
AcDbBlockTableRecord
  2
*Model_Space
340
1A
 70
0
280
1
281
0
  0
BLOCK_RECORD
  5
1B
330
9
100
AcDbSymbolTableRecord
100
AcDbBlockTableRecord
  2
*Paper_Space
340
1E
 70
0
280
1
281
0
  0
ENDTAB
  0
ENDSEC
  0
SECTION
  2
BLOCKS
  0
BLOCK
  5
18
330
17
100
AcDbEntity
  8
0
100
AcDbBlockBegin
  2
*Model_Space
 70
0
 10
0.0
 20
0.0
 30
0.0
  3
*Model_Space
  1

  0
ENDBLK
  5
19
330
17
100
AcDbEntity
  8
0
100
AcDbBlockEnd
  0
BLOCK
  5
1C
330
1B
100
AcDbEntity
  8
0
100
AcDbBlockBegin
  2
*Paper_Space
 70
0
 10
0.0
 20
0.0
 30
0.0
  3
*Paper_Space
  1

  0
ENDBLK
  5
1D
330
1B
100
AcDbEntity
  8
0
100
AcDbBlockEnd
  0
ENDSEC
  0
SECTION
  2
ENTITIES
  0
LWPOLYLINE
  5
2F
330
17
100
AcDbEntity
  8
0
100
AcDbPolyline
 90
95
 70
1
 10
0.238849916
 20
26.501810344
 10
1.3717259840000002
 20
26.501810344
 10
1.061348906
 20
26.067282638
 10
3.071040086
 20
26.067282638
 10
2.92361112
 20
26.501810344
 10
4.793632526
 20
26.501810344
 10
5.973065016
 20
26.300065255999996
 10
12.986279844
 20
26.300065255999996
 10
12.986279844
 20
25.383002827999995
 10
12.98375737
 20
25.337334897999998
 10
12.991724956926252
 20
25.256438630359682
 10
13.015321527807705
 20
25.17865116091763
 10
13.053640279658493
 20
25.106961818500793
 10
13.105208644334397
 20
25.0441255843344
 10
13.168044953664774
 20
24.99255733214934
 10
13.239734272691484
 20
24.954238592800834
 10
13.317521716753763
 20
24.93064202961825
 10
13.398417958
 20
24.922674445291587
 10
13.444085888
 20
24.925196783999997
 10
18.91904903
 20
24.925196783999997
 10
18.951687013999997
 20
24.923764731999995
 10
19.024386823129944
 20
24.930925042647395
 10
19.094292815947636
 20
24.952130807530327
 10
19.158718541066268
 20
24.986567099999704
 10
19.215188150970977
 20
25.032910551029033
 10
19.26153155692168
 20
25.089380183343863
 10
19.295967823821698
 20
25.15380590730706
 10
19.31717357227517
 20
25.223711891448037
 10
19.324333877261353
 20
25.296411688
 10
19.322901918
 20
25.329049671999996
 10
19.322901918
 20
26.260180651999995
 10
29.459974354
 20
26.260180651999995
 10
29.095281407999998
 20
25.763940089999995
 10
32.214570318
 20
25.763940089999995
 10
31.733485936
 20
26.276062255999996
 10
34.135281742000004
 20
26.276062255999996
 10
34.24182658244334
 20
26.2293596773498
 10
34.33788768485807
 20
26.163745666037105
 10
34.42014622203711
 20
26.081487128858054
 10
34.48576023334981
 20
25.98542602644333
 10
34.532462812
 20
25.878881185999994
 10
35.59405378
 20
21.991409153999996
 10
35.611325526
 20
21.920320903999993
 10
35.583935944
 20
21.832361973999994
 10
35.564651679709485
 20
21.8094879648536
 10
35.54133045869553
 20
21.79074699918813
 10
35.51484194679235
 20
21.77683794167835
 10
35.486173920488426
 20
21.768279471517555
 10
35.456395432
 20
21.765390740481177
 10
35.438865114
 20
21.766385727999996
 10
33.491249502
 20
21.766385727999996
 10
29.877827722000003
 20
22.618762229999994
 10
29.762780199999998
 20
22.611774943999997
 10
29.693042975999997
 20
22.520006267999996
 10
29.697821224
 20
22.439989663999995
 10
29.685158544114856
 20
22.310115139228596
 10
29.64764746228201
 20
22.18513252289257
 10
29.58670088667542
 20
22.06974946274811
 10
29.50461445662729
 20
21.968312025633292
 10
29.404480074112143
 20
21.884640996687907
 10
29.29006944286756
 20
21.821887964054536
 10
29.165692001815952
 20
21.782416609835
 10
17.642877845999998
 20
21.781904619999995
 10
17.566597675415974
 20
21.76534976423262
 10
17.488739724
 20
21.75979394970069
 10
17.388331079484313
 20
21.76906575353917
 10
17.291318161207894
 20
21.796567689437374
 10
17.200981855131598
 20
21.84136963800153
 10
17.120377250449998
 20
21.901956439326398
 10
17.05223031933853
 20
21.976279104582325
 10
16.998845727129726
 20
22.061824110896865
 10
16.998845605999996
 20
22.20925301599999
 10
16.950936108971877
 20
22.247715326934767
 10
16.896531133750326
 20
22.276259467122777
 10
16.83765661588308
 20
22.293822508255516
 10
16.776504927999998
 20
22.29975043681285
 10
16.719506311999996
 20
22.294606667999993
 10
14.740852915999996
 20
21.751446971999993
 10
10.425234673999995
 20
21.751446971999993
 10
10.26937216639589
 20
21.91165271811177
 10
10.087659862414306
 20
22.041805093985495
 10
9.885813364779704
 20
22.13781026966117
 10
9.670181579793567
 20
22.196648485707918
 10
9.447547017999995
 20
22.216469037134548
 10
9.224912480078544
 20
22.19664835269863
 10
9.009280718213649
 20
22.137810142960845
 10
8.807434242222158
 20
22.04180497757938
 10
8.625721957724778
 20
21.911652615661318
 10
8.46985946683312
 20
21.75144688672769
 10
0.09794747999999534
 20
21.751446971999993
 10
0.010635741999995332
 20
25.617743531999995
 10
0.002661794761799264
 20
25.697791844645618
 10
-7.367850710515711e-08
 20
25.778192283999992
 10
0.02735343048053178
 20
26.034612256155654
 10
0.10818266655674832
 20
26.27949191409951
  0
LWPOLYLINE
  5
30
330
17
100
AcDbEntity
  8
0
100
AcDbPolyline
 90
7
 70
1
 10
4.6179028799999955
 20
25.080602873999993
 10
9.142799341999996
 20
25.080602873999993
 10
9.142799341999996
 20
23.89577669399999
 10
16.079208633999997
 20
23.89577669399999
 10
16.079208633999997
 20
22.964020111999993
 10
4.104412669999996
 20
22.964020111999993
 10
4.576042409999996
 20
24.908055085999994
  0
LWPOLYLINE
  5
31
330
17
100
AcDbEntity
  8
0
100
AcDbPolyline
 90
34
 70
1
 10
31.282645333999994
 20
8.993335835999995
 10
31.205292935999996
 20
8.995116375999993
 10
30.877338788075345
 20
8.962815707311702
 10
30.56198773755454
 20
8.867154998166725
 10
30.27135855174475
 20
8.711810436967331
 10
30.01661995029883
 20
8.502751829701165
 10
29.80756134428661
 20
8.248013235127814
 10
29.652216803785866
 20
7.957384041361036
 10
29.556556108070982
 20
7.642032989629382
 10
29.524255444031144
 20
7.314078843999995
 10
29.52603594399999
 20
7.236726445999995
 10
29.56332284474578
 20
6.926294059281911
 10
29.65960863141556
 20
6.6288253601283795
 10
29.811299351580203
 20
6.355423631701796
 10
30.012733014502917
 20
6.116293836125729
 10
30.25639092996777
 20
5.920361705218022
 10
30.533178350063928
 20
5.774940579630216
 10
30.83276393872188
 20
5.685458431918043
 10
31.143965397999988
 20
5.655255262649147
 10
31.45516688163217
 20
5.685458307632538
 10
31.75475249373515
 20
5.7749404623474225
 10
32.0315399354922
 20
5.920361599315626
 10
32.27519787002528
 20
6.116293745556631
 10
32.47663154871183
 20
6.355423559846567
 10
32.62832228074752
 20
6.6288253096690815
 10
32.72460807495246
 20
6.926294032101981
 10
32.761894978616255
 20
7.236726443113947
 10
32.764252479999996
 20
7.325683341999994
 10
32.728215172545745
 20
7.67171598103997
 10
32.62164992088676
 20
8.002897384425458
 10
32.44913035619658
 20
8.305013710711595
 10
32.218060776281696
 20
8.565098550807058
 10
31.93835836350219
 20
8.771989428070524
 10
31.622027553210877
 20
8.916806876155908
  0
LWPOLYLINE
  5
32
330
17
100
AcDbEntity
  8
0
100
AcDbPolyline
 90
5
 70
1
 10
0.0660392379999924
 20
25.521874279999995
 10
0.12187808999999239
 20
21.772694071999993
 10
3.304692653999992
 20
21.772694071999993
 10
2.347455299999992
 20
25.545805143999996
 10
0.06467957599999208
 20
25.545805143999996
  0
LWPOLYLINE
  5
33
330
17
100
AcDbEntity
  8
0
100
AcDbPolyline
 90
57
 70
1
 10
2.632312743999992
 20
25.40005994399999
 10
3.3453255419999923
 20
22.912806091999993
 10
3.433557863193502
 20
22.79489248907178
 10
3.5440515605510647
 20
22.697528722182028
 10
3.6721305165515354
 20
22.624835247312983
 10
3.8123744016687358
 20
22.579888468274433
 10
3.9588480639065504
 20
22.564590542619317
 10
24.272338297999994
 20
22.564590633999995
 10
24.336756761999993
 20
22.561941667999992
 10
24.490775368672942
 20
22.577207752449755
 10
24.638800258342055
 20
22.622411917903275
 10
24.775070962727796
 20
22.695795019923544
 10
24.894284433999484
 20
22.79450131558526
 10
24.990726899894245
 20
22.91306386879492
 10
25.062353519259137
 20
23.048074451378145
 10
25.106446362612083
 20
23.194409857811983
 10
25.12133226581548
 20
23.346517187999996
 10
25.11800462799999
 20
23.418700939999994
 10
24.388410201999992
 20
25.391922291999993
 10
19.35803900799999
 20
25.391922291999993
 10
19.35803900799999
 20
25.288801593999995
 10
19.350297416906237
 20
25.362100902111596
 10
19.328470772147142
 20
25.432502026966688
 10
19.293389871551323
 20
25.497325257491624
 10
19.24639001591112
 20
25.554103196623846
 10
19.189260182801515
 20
25.60067467900492
 10
19.12417493188664
 20
25.635267032432374
 10
19.053611633634187
 20
25.656563551914157
 10
18.98025617199999
 20
25.66375361802901
 10
18.906552315649026
 20
25.656494403755154
 10
18.83568085716404
 20
25.634995781861317
 10
18.77036534694942
 20
25.600083914301297
 10
18.713115823433366
 20
25.55310044456662
 10
18.666132353698693
 20
25.495850921050568
 10
18.63122048613867
 20
25.43053541083595
 10
18.609721864244833
 20
25.35966395235096
 10
18.60246266799999
 20
25.285960095999997
 10
18.60965273377172
 20
25.21260463786646
 10
18.63094925223719
 20
25.14204134298142
 10
18.665541604013836
 20
25.076956095172534
 10
18.712113084172433
 20
25.01982626478927
 10
18.768891020595106
 20
24.97282641139199
 10
18.833714248026553
 20
24.937745512470297
 10
18.904115369521975
 20
24.91591886875281
 10
18.97741467413559
 20
24.908177278028504
 10
13.440475785999993
 20
24.908177259999995
 10
13.405322947999993
 20
24.906837663999994
 10
13.315213946080515
 20
24.91571262605416
 10
13.228567782571092
 20
24.94199645240204
 10
13.148714220943663
 20
24.984679070337233
 10
13.078721988789177
 20
25.042120210789175
 10
13.021280713359433
 20
25.11211235275438
 10
12.978598080422744
 20
25.191965942447634
 10
12.952314244836986
 20
25.27861213641025
 10
12.943439279663574
 20
25.368721169999993
 10
12.944779037999991
 20
25.403874007999995
 10
2.634903035999992
 20
25.403874007999995
  0
LWPOLYLINE
  5
34
330
17
100
AcDbEntity
  8
0
100
AcDbPolyline
 90
54
 70
1
 10
28.774461373999994
 20
25.393064275999993
 10
29.653127891999993
 20
22.50083383999999
 10
29.65768896999999
 20
22.424442577999994
 10
29.64567139571397
 20
22.30080543570432
 10
29.61006858592403
 20
22.18179701170912
 10
29.55221343602199
 20
22.07187273469729
 10
29.474271922883048
 20
21.97514794172066
 10
29.379162015181773
 20
21.895243808512078
 10
29.270444430694067
 20
21.83515178017289
 10
29.15218933040518
 20
21.79712157766981
 10
17.605022701999992
 20
21.797121505999993
 10
17.543878383709902
 20
21.785712911232547
 10
17.48179637999999
 20
21.781890803294523
 10
17.38724161097475
 20
21.79080209104704
 10
17.296016559202254
 20
21.81722184746359
 10
17.211333686961254
 20
21.8602198096132
 10
17.136175075680537
 20
21.918281817418286
 10
17.073187412854057
 20
21.98936323504387
 10
17.024588789750894
 20
22.07096095212273
 10
17.02458875999999
 20
22.24761488999999
 10
16.945389260341912
 20
22.29597982793408
 10
16.85756521282152
 20
22.325957563749075
 10
16.76532308599999
 20
22.336112267432558
 10
16.753298979999993
 20
22.33594186599999
 10
14.737600191999993
 20
21.761368211999994
 10
10.446307275999994
 20
21.761368211999994
 10
10.24272249694954
 20
21.95997233582293
 10
10.000574732254075
 20
22.109152831577184
 10
9.73162795489894
 20
22.201662243048585
 10
9.448948081999994
 20
22.233006297003552
 10
9.16626820099623
 20
22.201662279146348
 10
8.897321415930023
 20
22.10915286502258
 10
8.655173644291851
 20
21.959972364991113
 10
8.451588859404346
 20
21.761368235473928
 10
3.340919657999993
 20
21.761368211999994
 10
2.383260663999993
 20
25.522740419999995
 10
2.5968441839999934
 20
25.415948659999994
 10
3.336044889999993
 20
22.859390399999995
 10
3.4545600300618124
 20
22.743898031232447
 10
3.5917987772842053
 20
22.651432621871763
 10
3.7433468599441535
 20
22.584968313333235
 10
3.9043297478561025
 20
22.546642924007877
 10
24.32734479199999
 20
22.546642993999992
 10
24.35034093599999
 20
22.546317619999993
 10
24.50887016229891
 20
22.561931385971295
 10
24.661307199335372
 20
22.60817265561524
 10
24.801793977263745
 20
22.683264402871803
 10
24.924931667994134
 20
22.78432089400585
 10
25.025988088582537
 20
22.907458631873336
 10
25.10107982799862
 20
23.047945395133212
 10
25.14732109281442
 20
23.200382416253426
 10
25.16293485715546
 20
23.358911625999994
 10
25.16260956799999
 20
23.381907769999994
 10
24.41569462799999
 20
25.39090756199999
  0
LWPOLYLINE
  5
35
330
17
100
AcDbEntity
  8
0
100
AcDbPolyline
 90
177
 70
1
 10
0.6396560739999865
 20
21.465943859999992
 10
17.319530511999986
 20
21.465943859999992
 10
17.345852462070834
 20
21.093820024566963
 10
17.418245627281053
 20
20.72785797245805
 10
17.418245579999986
 20
18.38337395199999
 10
17.425114630278838
 20
18.321081980014405
 10
17.44380519458256
 20
18.26126445389041
 10
17.473623082958795
 20
18.206143068218708
 10
17.5134608233069
 20
18.157765097306903
 10
17.561838794218705
 20
18.1179273569588
 10
17.616960179890405
 20
18.088109468582566
 10
17.676777706014402
 20
18.06941890427884
 10
17.739069677999986
 20
18.06254985399999
 10
18.138833421440644
 20
17.985404097377327
 10
18.545151123999986
 20
17.95954983425749
 10
19.146128590256893
 20
18.016386571730184
 10
19.725795570193835
 20
18.18488145372374
 10
20.26359724114331
 20
18.459059672426818
 10
20.740463312129176
 20
18.829198947875593
 10
21.139484250843182
 20
19.28217424891863
 10
21.446510890747028
 20
19.801923203007615
 10
21.650656156406264
 20
20.370015663260485
 10
21.317492797999986
 20
21.492900117999994
 10
23.291795173999986
 20
21.492900117999994
 10
23.46454666999999
 20
21.085700271999993
 10
23.85940719599999
 20
19.456900887999993
 10
23.9379686365758
 20
19.355510181688164
 10
24.03532265889492
 20
19.271998687808303
 10
24.147487829159786
 20
19.209781729901216
 10
24.269876990217924
 20
19.17140376060576
 10
24.397484859999988
 20
19.158434302581554
 10
24.45169785799999
 20
19.16075542999999
 10
26.11190662799999
 20
19.16075542999999
 10
25.990792926806893
 20
19.17358905462104
 10
25.874474457096063
 20
19.209689527495144
 10
25.767376635165192
 20
19.267683381266625
 10
25.673574071416226
 20
19.345364199823873
 10
25.596635548996087
 20
19.439776562920077
 10
25.53948824698378
 20
19.547328487172123
 10
25.50430637384614
 20
19.66392808554249
 10
25.492428448179176
 20
19.78513924599999
 10
25.504426298866136
 20
19.906954251748665
 10
25.5399584253958
 20
20.02408797514106
 10
25.597659467893088
 20
20.13203903287656
 10
25.67531200765395
 20
20.226658926346026
 10
25.76993190112342
 20
20.30431146610689
 10
25.877882958858915
 20
20.362012508604177
 10
25.995016682251315
 20
20.39754463513384
 10
26.116831687999987
 20
20.40954236599999
 10
26.23804282519749
 20
20.39766444261236
 10
26.354642401192798
 20
20.362482576226
 10
26.462194304806005
 20
20.305335285180064
 10
26.556606649784804
 20
20.228396777524157
 10
26.634287453435373
 20
20.134594231775573
 10
26.692281296078033
 20
20.027496430396408
 10
26.728381762024586
 20
19.911177983006684
 10
26.741215384182905
 20
19.79006430505489
 10
26.482088259999987
 20
21.51431561999999
 10
29.394184035999988
 20
21.51431561999999
 10
29.52689878199999
 20
21.51431561999999
 10
29.52689878199999
 20
19.35985815599999
 10
29.587984517229238
 20
19.21361103126646
 10
29.6762330046591
 20
19.08196038368862
 10
29.788303715688617
 20
18.9698896726591
 10
29.919954363266456
 20
18.881641185229242
 10
30.066201487999987
 20
18.82055544999999
 10
31.670281337999988
 20
18.82055544999999
 10
31.77963044584658
 20
18.846168683646447
 10
31.88239746208125
 20
18.89146995845076
 10
31.97507126448387
 20
18.9549115179596
 10
32.05448557404038
 20
19.03432582751611
 10
32.11792713354922
 20
19.12699962991873
 10
32.16322840835353
 20
19.2297666461534
 10
32.188841641999986
 20
19.33911575399999
 10
32.67283127599999
 20
21.523983113999993
 10
36.014929493999986
 20
21.523983113999993
 10
37.00284347649207
 20
20.77617300523067
 10
37.92243597141217
 20
19.94578536149581
 10
38.01960375780929
 20
19.77858147936682
 10
38.07967630337508
 20
19.59476090000884
 10
38.0999997633617
 20
19.402444303999992
 10
38.07967628639687
 20
19.21012771162009
 10
38.01960374196462
 20
19.026307135730736
 10
37.922435951988845
 20
18.85910326225264
 10
37.240085346686236
 20
18.461301732605964
 10
36.64007390439379
 20
17.947653325981154
 10
36.14183003811905
 20
17.33478999192561
 10
35.76148690791398
 20
16.64255627430137
 10
35.51136004239737
 20
15.893366733759791
 10
35.44141366381337
 20
15.410083688987118
 10
35.418026688644254
 20
14.92232550199999
 10
35.46799179991148
 20
14.210320839796971
 10
35.61690769731191
 20
13.512272699831373
 10
35.21866114760163
 20
12.209481821001265
 10
35.031347544810345
 20
10.860119756193386
 10
36.04491114599999
 20
6.691751665999991
 10
36.475056081999995
 20
3.1373955539999914
 10
36.72767691512111
 20
2.5301804083505
 10
37.107394760045445
 20
1.9932056634332467
 10
37.59569692523887
 20
1.552650883751598
 10
37.99188312199999
 20
1.2696609099999914
 10
37.99188312199999
 20
0.47728860599999146
 10
37.977100240747454
 20
0.3777614449352274
 10
37.94271708135588
 20
0.28319936100095766
 10
37.89012206340319
 20
0.19742084705781376
 10
37.82143901593588
 20
0.1238897083590212
 10
37.74877412333992
 20
0.07102258575070654
 10
37.66782989953786
 20
0.031995023938268745
 10
37.581213341839835
 20
0.008064084122048183
 10
37.491714196
 20
5.339187583563998e-07
 10
37.448542069999995
 20
0.001865375999991407
 10
35.42233276199999
 20
0.001865375999991407
 10
35.34100166362401
 20
0.02341069142767699
 10
35.266307931889415
 20
0.062137873347904084
 10
35.20183139663392
 20
0.11619085274190781
 10
35.15066221039617
 20
0.1829790445102662
 10
34.85635243599999
 20
1.5413316899999916
 10
26.536442735999987
 20
1.5073729059999916
 10
26.4506055205698
 20
1.5025112342718954
 10
26.36464602599999
 20
1.50088990823938
 10
25.91572733577654
 20
1.5455311360413113
 10
25.484391645244834
 20
1.6777066273254084
 10
25.087533272861233
 20
1.8922393071010009
 10
25.908008743698506
 20
1.7733274604859155
 10
26.73610248399999
 20
1.7335682576556715
 10
27.362373277887873
 20
1.7562864973069314
 10
27.98535195742696
 20
1.8243217025378142
 10
25.888777533999992
 20
9.643109491999992
 10
25.181762851480205
 20
9.235333074943462
 10
24.56263121487565
 20
8.703517896369759
 10
24.052860535965742
 20
8.066112826943932
 10
23.670134953344007
 20
7.345229690774919
 10
23.28765891847914
 20
8.056605836816473
 10
22.758681425615087
 20
8.666955619518834
 10
22.108882532239015
 20
9.146648691564685
 10
21.36980766712912
 20
9.472397657740096
 10
21.69630927167568
 20
9.453834754666037
 10
22.023279549999987
 20
9.447644176480187
 10
22.728986766882112
 20
9.476519886941471
 10
23.429975763569885
 20
9.562954351550548
 10
23.739416058018872
 20
9.639390357883276
 10
24.024899912141386
 20
9.781146213242636
 10
24.272825208757393
 20
9.981467956423892
 10
24.471379354854186
 20
10.230811102632254
 10
24.35876343712741
 20
11.350547639371163
 10
24.029914620212136
 20
12.426814625586163
 10
23.35270873716532
 20
12.68466329659136
 10
22.633396947999984
 20
12.772323289664337
 10
22.539236800191613
 20
12.770842705429917
 10
22.44516974129912
 20
12.76640269136914
 10
22.12978127846174
 20
14.453020426934629
 10
21.62030706138842
 20
16.09149081731107
 10
21.37094621104017
 20
16.43605076640681
 10
21.05527877988541
 20
16.721105948151276
 10
20.687155154421642
 20
16.934149089572507
 10
20.28272735736531
 20
17.06583257638608
 10
19.859740315999986
 20
17.11037858146201
 10
19.716126942708136
 20
17.105293442841845
 10
19.573232882168103
 20
17.090063650917724
 10
12.007575933999986
 20
17.09006360999999
 10
11.965274773999987
 20
17.09000849199999
 10
10.161150953980789
 20
17.190681565148914
 10
8.379428272283313
 20
17.491450764274553
 10
7.469943911999987
 20
17.33285382799999
 10
5.898095580356621
 20
17.956189865215354
 10
4.224582605482428
 20
18.198283475021793
 10
1.1123642979999873
 20
18.19828364399999
 10
1.1083175699999872
 20
18.19826002199999
 10
1.0409182848802927
 20
18.2048982721767
 10
0.9761091164897935
 20
18.224557918475305
 10
0.9163806448243359
 20
18.256483451713812
 10
0.8640282015539111
 20
18.29944799155391
 10
0.8210637116251178
 20
18.351800468174005
 10
0.789138183933775
 20
18.411528929461447
 10
0.7694785410510948
 20
18.47633808659114
 10
0.7628402920278041
 20
18.543737359999987
 10
0.7628638539999872
 20
18.54778408799999
  0
LWPOLYLINE
  5
36
330
17
100
AcDbEntity
  8
0
100
AcDbPolyline
 90
56
 70
1
 10
31.66937887599999
 20
12.51990739599999
 10
30.113686221449708
 20
11.981807298471656
 10
28.51093027305344
 20
11.6064345234039
 10
26.622054197999987
 20
11.29678258799999
 10
26.49283345559925
 20
11.23028941585206
 10
26.37932539043665
 20
11.139541075085214
 10
26.286018878040824
 20
11.02812636800657
 10
26.216603888102963
 20
10.900451384627608
 10
26.17382555815321
 20
10.761565256106426
 10
26.1593756322821
 20
10.61696047799999
 10
26.16280434841621
 20
10.546251145202666
 10
26.17305896141352
 20
10.476205372876867
 10
26.82332760799999
 20
8.045438569999991
 10
26.851482967862065
 20
7.933702187731301
 10
26.901658313409047
 20
7.829970909368895
 10
26.971779170839238
 20
7.7385334511544785
 10
27.058946429441853
 20
7.66317024767186
 10
27.159556203835216
 20
7.606997151727493
 10
27.26944883475042
 20
7.572336611022076
 10
27.384080867999987
 20
7.560621647747336
 10
27.458113739999988
 20
7.565478137999992
 10
29.13023358599999
 20
7.580960707999991
 10
29.234227597872216
 20
7.96413796998011
 10
29.411944943667397
 20
8.319181789257923
 10
29.65636594875986
 20
8.632068255685365
 10
29.95783620423555
 20
8.89043863647094
 10
30.304447907323226
 20
9.084087534961276
 10
30.68251020884755
 20
9.205365994590318
 10
31.077089989404453
 20
9.249483625754348
 10
31.100683797999988
 20
9.249622851999991
 10
31.492452459523594
 20
9.210832172677122
 10
31.869006958244523
 20
9.095966553593957
 10
32.215723966647644
 20
8.909486750295274
 10
32.51913888296572
 20
8.658634623515328
 10
32.76746872303745
 20
8.353151904717231
 10
32.95106970728914
 20
8.004901880257597
 10
33.062811772651756
 20
7.627408685904606
 10
34.30141907799999
 20
7.642891241999991
 10
34.422683728245
 20
7.703045152565406
 10
34.52942456194182
 20
7.786291790798215
 10
34.61730628868373
 20
7.889250085559815
 10
34.682759582715306
 20
8.007738374667952
 10
34.7231260514807
 20
8.136944243554659
 10
34.73676620652239
 20
8.27161998199999
 10
34.72851579579908
 20
8.376574716391831
 10
34.70396655275749
 20
8.478951003197317
 10
34.05369795799999
 20
12.03994696399999
 10
34.00969475087648
 20
12.14944837758764
 10
33.946511535889805
 20
12.24912145900282
 10
33.86625551245949
 20
12.335642049141821
 10
33.77160326875883
 20
12.406124632644982
 10
33.665711515838765
 20
12.458218571624139
 10
33.55211180935582
 20
12.490186500894565
 10
33.43459276999999
 20
12.500962270181759
 10
33.37227268495892
 20
12.497950228218883
 10
33.31053356319395
 20
12.488942098136476
  0
LWPOLYLINE
  5
37
330
17
100
AcDbEntity
  8
0
100
AcDbPolyline
 90
64
 70
1
 10
27.360613807999986
 20
6.2505092159999895
 10
28.165708463999987
 20
3.0610954779999893
 10
28.19848968457432
 20
2.9525935977638404
 10
28.251825898392337
 20
2.852581024890819
 10
28.32366384252519
 20
2.764907903468756
 10
28.411238000318924
 20
2.6929493506495077
 10
28.511177064384974
 20
2.639475526111474
 10
28.619633720474702
 20
2.60654499032845
 10
28.732432755999987
 20
2.595425456988944
 10
28.769529455999987
 20
2.5966176159999894
 10
35.11739179199999
 20
2.6121001859999895
 10
35.16477879399999
 20
2.6099175639999896
 10
35.2687564517602
 20
2.620513186146119
 10
35.368459599479834
 20
2.6518644677268997
 10
35.45978945175459
 20
2.702682561014962
 10
35.538991448432185
 20
2.7708783398010657
 10
35.59909832156963
 20
2.84775539605703
 10
35.643639877630875
 20
2.9345826192118296
 10
35.67101977171711
 20
3.028248292203362
 10
35.68025674954963
 20
3.12539557799999
 10
35.674765073999986
 20
3.2004388619999897
 10
35.16383950199999
 20
6.66853936799999
 10
35.05685497384007
 20
6.813982844987218
 10
34.92352625030159
 20
6.935732365492785
 10
34.76898787647707
 20
7.029099304391983
 10
34.59919118999178
 20
7.090488061688019
 10
34.42067513249446
 20
7.1175345305767115
 10
33.274963421999985
 20
7.0710866959999885
 10
33.22241272269391
 20
7.065499454444041
 10
33.17173986007774
 20
7.050497645884928
 10
33.12461700531823
 20
7.026576320146688
 10
33.08259918165572
 20
6.994524865258828
 10
33.04707294965916
 20
6.955400958170092
 10
33.019210651638424
 20
6.910495662104198
 10
32.90899712369
 20
6.562730318358446
 10
32.734444941619174
 20
6.2423878414819125
 10
32.501969488190596
 20
5.961242095808503
 10
32.22011513359387
 20
5.729626272618579
 10
31.89924111322229
 20
5.556053147372595
 10
31.551140785788977
 20
5.4469022023565135
 10
31.18860818187587
 20
5.4061851560851615
 10
31.158467019999982
 20
5.405946261999989
 10
30.799562840076515
 20
5.440098901372511
 10
30.45354160517603
 20
5.541330902936193
 10
30.13282382415679
 20
5.706008521575587
 10
29.848921732796168
 20
5.928220617699341
 10
29.612026059537865
 20
6.199990838904944
 10
29.430640227037532
 20
6.511563932914693
 10
29.311275119923337
 20
6.851755914516647
 10
29.268244514093833
 20
6.909915858734354
 10
29.215560265372496
 20
6.95949995792351
 10
29.15490066223166
 20
6.998928697473862
 10
29.088198036654347
 20
7.026946061675813
 10
29.01757722312807
 20
7.042659548005053
 10
27.810336301999985
 20
7.0470036859999885
 10
27.7057786746162
 20
7.02571290711518
 10
27.607131829929433
 20
6.985038655517981
 10
27.517953768714968
 20
6.92644797274608
 10
27.441460971053324
 20
6.852054111335727
 10
27.380412384118614
 20
6.764540313892559
 10
27.34047764956249
 20
6.677080411873731
 10
27.316039106398154
 20
6.5840923964406475
 10
27.307812624404264
 20
6.488299189999989
 10
27.321171668824267
 20
6.366508209698675
  0
LWPOLYLINE
  5
38
330
17
100
AcDbEntity
  8
0
100
AcDbPolyline
 90
34
 70
1
 10
14.72722835599999
 20
18.771866951999986
 10
14.70246818199999
 20
18.772436927999987
 10
14.597491464084037
 20
18.76209762373262
 10
14.49654894256597
 20
18.73147704459515
 10
14.403519781938517
 20
18.68175192227162
 10
14.321979040673227
 20
18.61483316532675
 10
14.255060207680676
 20
18.533292474874898
 10
14.20533507690517
 20
18.440263298434914
 10
14.174714492563002
 20
18.339320759759246
 10
14.16437518653822
 20
18.234344023999988
 10
14.16494525399999
 20
18.209583849999987
 10
14.176880630414708
 20
18.110215772880892
 10
14.207701297579584
 20
18.01499731649759
 10
14.256256846730954
 20
17.92748259426689
 10
14.320734898890475
 20
17.85093817088921
 10
14.398728753519459
 20
17.788221134921137
 10
14.487327220753091
 20
17.741672455408633
 10
14.583223284146612
 20
17.713029603139123
 10
14.68283753799999
 20
17.703361698001906
 10
14.782451811467885
 20
17.71302950304086
 10
14.878347893743795
 20
17.74167236095028
 10
14.966946378422884
 20
17.78822104962844
 10
15.044940248409223
 20
17.850938097945793
 10
15.109418313264774
 20
17.92748253639543
 10
15.157973871976962
 20
18.014997275858192
 10
15.188794545210573
 20
18.11021575099046
 10
15.200729923975421
 20
18.209583847675596
 10
15.201484455999992
 20
18.23805851999999
 10
15.189949065531435
 20
18.348822101764142
 10
15.155837976996764
 20
18.454831865076144
 10
15.100615190742634
 20
18.551538018741862
 10
15.026650791738245
 20
18.63479006951784
 10
14.937119228833923
 20
18.701014955492802
 10
14.835863071843738
 20
18.747370396921674
  0
LWPOLYLINE
  5
39
330
17
100
AcDbEntity
  8
0
100
AcDbPolyline
 90
32
 70
1
 10
23.90448101999999
 20
6.384286443999987
 10
26.05061693599999
 20
5.525831975999987
 10
26.241910716246718
 20
5.436411135627657
 10
26.411570882145867
 20
5.3106938927329335
 10
26.55280392618469
 20
5.153714198741947
 10
26.659954615500265
 20
4.971757811568605
 10
26.72873243788541
 20
4.772110602216874
 10
26.74982980861901
 20
4.651846053623815
 10
26.756893796113335
 20
4.529949537999987
 10
26.737369126452478
 20
4.3278947035367965
 10
26.67951729139106
 20
4.1333168568932175
 10
26.585479195275596
 20
3.95341630185404
 10
26.458734693963542
 20
3.7948502127568307
 10
26.025635783984463
 20
3.0636589885248906
 10
25.49014365974427
 20
2.4037624567011346
 10
25.278071617057233
 20
2.236033504277792
 10
25.032770351173863
 20
2.1223020947297373
 10
24.87399136980274
 20
2.6298381519843255
 10
24.617882405604785
 20
3.0958980507962357
 10
24.27458028324205
 20
3.502035076446889
 10
23.8576729369541
 20
3.8321742825921996
 10
23.777288274032184
 20
3.8984957666365463
 10
23.711340147698536
 20
3.979187032297002
 10
23.66234796210359
 20
4.071165298596357
 10
23.63218339604894
 20
4.170916662875446
 10
23.621998845129085
 20
4.274630261999986
 10
23.631194886373144
 20
4.373227569304463
 10
23.658465380154134
 20
4.468423755137149
 10
23.70286976762534
 20
4.5569350199651755
 10
23.911962268078618
 20
5.134030079902671
 10
23.98292436652947
 20
5.7437207959999865
 10
23.96324057198272
 20
6.066396223410906
  0
LWPOLYLINE
  5
3A
330
17
100
AcDbEntity
  8
0
100
AcDbPolyline
 90
34
 70
1
 10
27.04541428599999
 20
24.77784020799999
 10
26.98844208599999
 20
24.77915160999999
 10
26.746894388222625
 20
24.7553612382682
 10
26.51462923300934
 20
24.684904373716705
 10
26.300572440019174
 20
24.57048863413755
 10
26.112950091762304
 20
24.416510952237672
 10
25.95897237251389
 20
24.228888628936296
 10
25.844556628783803
 20
24.01483182818028
 10
25.774099761676176
 20
23.782566664540557
 10
25.750309389081288
 20
23.541018957999988
 10
25.75162083599999
 20
23.484046757999987
 10
25.779083702875017
 20
23.255404296951927
 10
25.850000963817077
 20
23.03630996532378
 10
25.96172556885644
 20
22.834941654311574
 10
26.11008729753536
 20
22.658815615593525
 10
26.28954841610338
 20
22.514505910537263
 10
26.49341037836507
 20
22.407399027500166
 10
26.714063854886863
 20
22.34149282635069
 10
26.94327275799999
 20
22.3192473147857
 10
27.172481632804455
 20
22.341492970817526
 10
27.39313508207424
 20
22.407399163827193
 10
27.596997019157772
 20
22.514506033635957
 10
27.776458115561283
 20
22.658815720869118
 10
27.92481982591665
 20
22.83494173783456
 10
28.036544417157366
 20
23.03631002397659
 10
28.107461669340726
 20
23.25540432854529
 10
28.134924532823927
 20
23.484046761354655
 10
28.136661277999988
 20
23.549566057999986
 10
28.11011876384981
 20
23.804429091561747
 10
28.031630388573838
 20
24.04835376411509
 10
27.90456476225152
 20
24.270871173638557
 10
27.73437536188598
 20
24.462431187568743
 10
27.52836647588259
 20
24.614812320985447
 10
27.295379714319342
 20
24.72147459111874
  0
LWPOLYLINE
  5
3B
330
17
100
AcDbEntity
  8
0
100
AcDbPolyline
 90
34
 70
1
 10
35.06181455999999
 20
19.309911849999985
 10
35.037054385999994
 20
19.310481825999986
 10
34.93207766808404
 20
19.300142521732617
 10
34.83113514656597
 20
19.269521942595148
 10
34.73810598593852
 20
19.21979682027162
 10
34.65656524467323
 20
19.152878063326753
 10
34.589646411680675
 20
19.071337372874897
 10
34.539921280905176
 20
18.978308196434913
 10
34.509300696563
 20
18.877365657759245
 10
34.49896139053822
 20
18.772388921999987
 10
34.49953145799999
 20
18.747628747999986
 10
34.51146683441471
 20
18.64826067088089
 10
34.542287501579594
 20
18.553042214497584
 10
34.59084305073096
 20
18.46552749226689
 10
34.65532110289048
 20
18.388983068889207
 10
34.73331495751946
 20
18.326266032921136
 10
34.8219134247531
 20
18.279717353408625
 10
34.91780948814662
 20
18.25107450113912
 10
35.017423742
 20
18.2414065960019
 10
35.11703801546789
 20
18.25107440104086
 10
35.2129340977438
 20
18.279717258950278
 10
35.301532582422894
 20
18.32626594762844
 10
35.37952645240923
 20
18.388982995945792
 10
35.44400451726478
 20
18.46552743439543
 10
35.49256007597697
 20
18.55304217385819
 10
35.52338074921058
 20
18.64826064899046
 10
35.53531612797542
 20
18.747628745675595
 10
35.53607066
 20
18.776103417999984
 10
35.52453526953145
 20
18.88686699976414
 10
35.49042418099677
 20
18.992876763076143
 10
35.43520139474264
 20
19.08958291674186
 10
35.36123699573825
 20
19.17283496751784
 10
35.27170543283393
 20
19.2390598534928
 10
35.170449275843744
 20
19.285415294921673
  0
ENDSEC
  0
SECTION
  2
OBJECTS
  0
DICTIONARY
  5
A
330
0
100
AcDbDictionary
281
1
  3
ACAD_COLOR
350
B
  3
ACAD_GROUP
350
C
  3
ACAD_LAYOUT
350
D
  3
ACAD_MATERIAL
350
E
  3
ACAD_MLEADERSTYLE
350
F
  3
ACAD_MLINESTYLE
350
10
  3
ACAD_PLOTSETTINGS
350
11
  3
ACAD_PLOTSTYLENAME
350
12
  3
ACAD_SCALELIST
350
14
  3
ACAD_TABLESTYLE
350
15
  3
ACAD_VISUALSTYLE
350
16
  3
EZDXF_META
350
2D
  0
DICTIONARY
  5
B
330
A
100
AcDbDictionary
281
1
  0
DICTIONARY
  5
C
330
A
100
AcDbDictionary
281
1
  0
DICTIONARY
  5
D
330
A
100
AcDbDictionary
281
1
  3
Model
350
1A
  3
Layout1
350
1E
  0
DICTIONARY
  5
E
330
A
100
AcDbDictionary
281
1
  3
ByBlock
350
1F
  3
ByLayer
350
20
  3
Global
350
21
  0
DICTIONARY
  5
F
330
A
100
AcDbDictionary
281
1
  3
Standard
350
2C
  0
DICTIONARY
  5
10
330
A
100
AcDbDictionary
281
1
  3
Standard
350
22
  0
DICTIONARY
  5
11
330
A
100
AcDbDictionary
281
1
  0
ACDBDICTIONARYWDFLT
  5
12
330
A
100
AcDbDictionary
281
1
  3
Normal
350
13
100
AcDbDictionaryWithDefault
340
13
  0
ACDBPLACEHOLDER
  5
13
330
12
  0
DICTIONARY
  5
14
330
A
100
AcDbDictionary
281
1
  0
DICTIONARY
  5
15
330
A
100
AcDbDictionary
281
1
  0
DICTIONARY
  5
16
330
A
100
AcDbDictionary
281
1
  0
LAYOUT
  5
1A
330
D
100
AcDbPlotSettings
  1

  4
A3
  6

 40
7.5
 41
20.0
 42
7.5
 43
20.0
 44
420.0
 45
297.0
 46
0.0
 47
0.0
 48
0.0
 49
0.0
140
0.0
141
0.0
142
1.0
143
1.0
 70
1024
 72
1
 73
0
 74
5
  7

 75
16
 76
0
 77
2
 78
300
147
1.0
148
0.0
149
0.0
100
AcDbLayout
  1
Model
 70
1
 71
0
 10
0.0
 20
0.0
 11
420.0
 21
297.0
 12
0.0
 22
0.0
 32
0.0
 14
1e+20
 24
1e+20
 34
1e+20
 15
-1e+20
 25
-1e+20
 35
-1e+20
146
0.0
 13
0.0
 23
0.0
 33
0.0
 16
1.0
 26
0.0
 36
0.0
 17
0.0
 27
1.0
 37
0.0
 76
1
330
17
  0
LAYOUT
  5
1E
330
D
100
AcDbPlotSettings
  1

  4
A3
  6

 40
7.5
 41
20.0
 42
7.5
 43
20.0
 44
420.0
 45
297.0
 46
0.0
 47
0.0
 48
0.0
 49
0.0
140
0.0
141
0.0
142
1.0
143
1.0
 70
0
 72
1
 73
0
 74
5
  7

 75
16
 76
0
 77
2
 78
300
147
1.0
148
0.0
149
0.0
100
AcDbLayout
  1
Layout1
 70
1
 71
1
 10
0.0
 20
0.0
 11
420.0
 21
297.0
 12
0.0
 22
0.0
 32
0.0
 14
1e+20
 24
1e+20
 34
1e+20
 15
-1e+20
 25
-1e+20
 35
-1e+20
146
0.0
 13
0.0
 23
0.0
 33
0.0
 16
1.0
 26
0.0
 36
0.0
 17
0.0
 27
1.0
 37
0.0
 76
1
330
1B
  0
MATERIAL
  5
1F
102
{ACAD_REACTORS
330
E
102
}
330
E
100
AcDbMaterial
  1
ByBlock
  2

 70
0
 40
1.0
 71
1
 41
1.0
 91
-1023410177
 42
1.0
 72
1
  3

 73
1
 74
1
 75
1
 44
0.5
 73
0
 45
1.0
 46
1.0
 77
1
  4

 78
1
 79
1
170
1
 48
1.0
171
1
  6

172
1
173
1
174
1
140
1.0
141
1.0
175
1
  7

176
1
177
1
178
1
143
1.0
179
1
  8

270
1
271
1
272
1
145
1.0
146
1.0
273
1
  9

274
1
275
1
276
1
 42
1.0
 72
1
  3

 73
1
 74
1
 75
1
 94
63
  0
MATERIAL
  5
20
102
{ACAD_REACTORS
330
E
102
}
330
E
100
AcDbMaterial
  1
ByLayer
  2

 70
0
 40
1.0
 71
1
 41
1.0
 91
-1023410177
 42
1.0
 72
1
  3

 73
1
 74
1
 75
1
 44
0.5
 73
0
 45
1.0
 46
1.0
 77
1
  4

 78
1
 79
1
170
1
 48
1.0
171
1
  6

172
1
173
1
174
1
140
1.0
141
1.0
175
1
  7

176
1
177
1
178
1
143
1.0
179
1
  8

270
1
271
1
272
1
145
1.0
146
1.0
273
1
  9

274
1
275
1
276
1
 42
1.0
 72
1
  3

 73
1
 74
1
 75
1
 94
63
  0
MATERIAL
  5
21
102
{ACAD_REACTORS
330
E
102
}
330
E
100
AcDbMaterial
  1
Global
  2

 70
0
 40
1.0
 71
1
 41
1.0
 91
-1023410177
 42
1.0
 72
1
  3

 73
1
 74
1
 75
1
 44
0.5
 73
0
 45
1.0
 46
1.0
 77
1
  4

 78
1
 79
1
170
1
 48
1.0
171
1
  6

172
1
173
1
174
1
140
1.0
141
1.0
175
1
  7

176
1
177
1
178
1
143
1.0
179
1
  8

270
1
271
1
272
1
145
1.0
146
1.0
273
1
  9

274
1
275
1
276
1
 42
1.0
 72
1
  3

 73
1
 74
1
 75
1
 94
63
  0
MLINESTYLE
  5
22
102
{ACAD_REACTORS
330
10
102
}
330
10
100
AcDbMlineStyle
  2
Standard
 70
0
  3

 62
256
 51
90.0
 52
90.0
 71
2
 49
0.5
 62
256
  6
BYLAYER
 49
-0.5
 62
256
  6
BYLAYER
  0
MLEADERSTYLE
  5
2C
102
{ACAD_REACTORS
330
F
102
}
330
F
100
AcDbMLeaderStyle
179
2
170
2
171
1
172
0
 90
2
 40
0.0
 41
0.0
173
1
 91
-1056964608
 92
-2
290
1
 42
2.0
291
1
 43
8.0
  3
Standard
 44
4.0
300

342
29
174
1
175
1
176
0
178
1
 93
-1056964608
 45
4.0
292
0
297
0
 46
4.0
 94
-1056964608
 47
1.0
 49
1.0
140
1.0
294
1
141
0.0
177
0
142
1.0
295
0
296
0
143
3.75
271
0
272
9
273
9
  0
DICTIONARY
  5
2D
330
A
100
AcDbDictionary
280
1
281
1
  3
CREATED_BY_EZDXF
350
2E
  3
WRITTEN_BY_EZDXF
350
3E
  0
DICTIONARYVAR
  5
2E
330
2D
100
DictionaryVariables
280
0
  1
1.4.3 @ 2026-04-12T00:41:30.618800+00:00
  0
DICTIONARYVAR
  5
3E
330
2D
100
DictionaryVariables
280
0
  1
1.4.3 @ 2026-04-12T00:41:30.620574+00:00
  0
ENDSEC
  0
EOF
