  0
SECTION
  2
HEADER
  9
$ACADVER
  1
AC1024
  9
$ACADMAINTVER
 70
6
  9
$DWGCODEPAGE
  3
ANSI_1252
  9
$LASTSAVEDBY
  1
ezdxf
  9
$INSBASE
 10
0.0
 20
0.0
 30
0.0
  9
$EXTMIN
 10
1e+20
 20
1e+20
 30
1e+20
  9
$EXTMAX
 10
-1e+20
 20
-1e+20
 30
-1e+20
  9
$LIMMIN
 10
0.0
 20
0.0
  9
$LIMMAX
 10
420.0
 20
297.0
  9
$ORTHOMODE
 70
0
  9
$REGENMODE
 70
1
  9
$FILLMODE
 70
1
  9
$QTEXTMODE
 70
0
  9
$MIRRTEXT
 70
1
  9
$LTSCALE
 40
1.0
  9
$ATTMODE
 70
1
  9
$TEXTSIZE
 40
2.5
  9
$TRACEWID
 40
1.0
  9
$TEXTSTYLE
  7
Standard
  9
$CLAYER
  8
0
  9
$CELTYPE
  6
ByLayer
  9
$CECOLOR
 62
256
  9
$CELTSCALE
 40
1.0
  9
$DISPSILH
 70
0
  9
$DIMSCALE
 40
1.0
  9
$DIMASZ
 40
2.5
  9
$DIMEXO
 40
0.625
  9
$DIMDLI
 40
3.75
  9
$DIMRND
 40
0.0
  9
$DIMDLE
 40
0.0
  9
$DIMEXE
 40
1.25
  9
$DIMTP
 40
0.0
  9
$DIMTM
 40
0.0
  9
$DIMTXT
 40
2.5
  9
$DIMCEN
 40
2.5
  9
$DIMTSZ
 40
0.0
  9
$DIMTOL
 70
0
  9
$DIMLIM
 70
0
  9
$DIMTIH
 70
0
  9
$DIMTOH
 70
0
  9
$DIMSE1
 70
0
  9
$DIMSE2
 70
0
  9
$DIMTAD
 70
1
  9
$DIMZIN
 70
8
  9
$DIMBLK
  1

  9
$DIMASO
 70
1
  9
$DIMSHO
 70
1
  9
$DIMPOST
  1

  9
$DIMAPOST
  1

  9
$DIMALT
 70
0
  9
$DIMALTD
 70
3
  9
$DIMALTF
 40
0.03937007874
  9
$DIMLFAC
 40
1.0
  9
$DIMTOFL
 70
1
  9
$DIMTVP
 40
0.0
  9
$DIMTIX
 70
0
  9
$DIMSOXD
 70
0
  9
$DIMSAH
 70
0
  9
$DIMBLK1
  1

  9
$DIMBLK2
  1

  9
$DIMSTYLE
  2
ISO-25
  9
$DIMCLRD
 70
0
  9
$DIMCLRE
 70
0
  9
$DIMCLRT
 70
0
  9
$DIMTFAC
 40
1.0
  9
$DIMGAP
 40
0.625
  9
$DIMJUST
 70
0
  9
$DIMSD1
 70
0
  9
$DIMSD2
 70
0
  9
$DIMTOLJ
 70
0
  9
$DIMTZIN
 70
8
  9
$DIMALTZ
 70
0
  9
$DIMALTTZ
 70
0
  9
$DIMUPT
 70
0
  9
$DIMDEC
 70
2
  9
$DIMTDEC
 70
2
  9
$DIMALTU
 70
2
  9
$DIMALTTD
 70
3
  9
$DIMTXSTY
  7
Standard
  9
$DIMAUNIT
 70
0
  9
$DIMADEC
 70
0
  9
$DIMALTRND
 40
0.0
  9
$DIMAZIN
 70
0
  9
$DIMDSEP
 70
44
  9
$DIMATFIT
 70
3
  9
$DIMFRAC
 70
0
  9
$DIMLDRBLK
  1

  9
$DIMLUNIT
 70
2
  9
$DIMLWD
 70
-2
  9
$DIMLWE
 70
-2
  9
$DIMTMOVE
 70
0
  9
$DIMFXL
 40
1.0
  9
$DIMFXLON
 70
0
  9
$DIMJOGANG
 40
0.785398163397
  9
$DIMTFILL
 70
0
  9
$DIMTFILLCLR
 70
0
  9
$DIMARCSYM
 70
0
  9
$DIMLTYPE
  6

  9
$DIMLTEX1
  6

  9
$DIMLTEX2
  6

  9
$DIMTXTDIRECTION
 70
0
  9
$LUNITS
 70
2
  9
$LUPREC
 70
4
  9
$SKETCHINC
 40
1.0
  9
$FILLETRAD
 40
10.0
  9
$AUNITS
 70
0
  9
$AUPREC
 70
2
  9
$MENU
  1
.
  9
$ELEVATION
 40
0.0
  9
$PELEVATION
 40
0.0
  9
$THICKNESS
 40
0.0
  9
$LIMCHECK
 70
0
  9
$CHAMFERA
 40
0.0
  9
$CHAMFERB
 40
0.0
  9
$CHAMFERC
 40
0.0
  9
$CHAMFERD
 40
0.0
  9
$SKPOLY
 70
0
  9
$TDCREATE
 40
2461142.7371527776
  9
$TDUCREATE
 40
2458532.153996898
  9
$TDUPDATE
 40
2461142.7371527776
  9
$TDUUPDATE
 40
2458532.1544311
  9
$TDINDWG
 40
0.0
  9
$TDUSRTIMER
 40
0.0
  9
$USRTIMER
 70
1
  9
$ANGBASE
 50
0.0
  9
$ANGDIR
 70
0
  9
$PDMODE
 70
0
  9
$PDSIZE
 40
0.0
  9
$PLINEWID
 40
0.0
  9
$SPLFRAME
 70
0
  9
$SPLINETYPE
 70
6
  9
$SPLINESEGS
 70
8
  9
$HANDSEED
  5
41
  9
$SURFTAB1
 70
6
  9
$SURFTAB2
 70
6
  9
$SURFTYPE
 70
6
  9
$SURFU
 70
6
  9
$SURFV
 70
6
  9
$UCSBASE
  2

  9
$UCSNAME
  2

  9
$UCSORG
 10
0.0
 20
0.0
 30
0.0
  9
$UCSXDIR
 10
1.0
 20
0.0
 30
0.0
  9
$UCSYDIR
 10
0.0
 20
1.0
 30
0.0
  9
$UCSORTHOREF
  2

  9
$UCSORTHOVIEW
 70
0
  9
$UCSORGTOP
 10
0.0
 20
0.0
 30
0.0
  9
$UCSORGBOTTOM
 10
0.0
 20
0.0
 30
0.0
  9
$UCSORGLEFT
 10
0.0
 20
0.0
 30
0.0
  9
$UCSORGRIGHT
 10
0.0
 20
0.0
 30
0.0
  9
$UCSORGFRONT
 10
0.0
 20
0.0
 30
0.0
  9
$UCSORGBACK
 10
0.0
 20
0.0
 30
0.0
  9
$PUCSBASE
  2

  9
$PUCSNAME
  2

  9
$PUCSORG
 10
0.0
 20
0.0
 30
0.0
  9
$PUCSXDIR
 10
1.0
 20
0.0
 30
0.0
  9
$PUCSYDIR
 10
0.0
 20
1.0
 30
0.0
  9
$PUCSORTHOREF
  2

  9
$PUCSORTHOVIEW
 70
0
  9
$PUCSORGTOP
 10
0.0
 20
0.0
 30
0.0
  9
$PUCSORGBOTTOM
 10
0.0
 20
0.0
 30
0.0
  9
$PUCSORGLEFT
 10
0.0
 20
0.0
 30
0.0
  9
$PUCSORGRIGHT
 10
0.0
 20
0.0
 30
0.0
  9
$PUCSORGFRONT
 10
0.0
 20
0.0
 30
0.0
  9
$PUCSORGBACK
 10
0.0
 20
0.0
 30
0.0
  9
$USERI1
 70
0
  9
$USERI2
 70
0
  9
$USERI3
 70
0
  9
$USERI4
 70
0
  9
$USERI5
 70
0
  9
$USERR1
 40
0.0
  9
$USERR2
 40
0.0
  9
$USERR3
 40
0.0
  9
$USERR4
 40
0.0
  9
$USERR5
 40
0.0
  9
$WORLDVIEW
 70
1
  9
$SHADEDGE
 70
3
  9
$SHADEDIF
 70
70
  9
$TILEMODE
 70
1
  9
$MAXACTVP
 70
64
  9
$PINSBASE
 10
0.0
 20
0.0
 30
0.0
  9
$PLIMCHECK
 70
0
  9
$PEXTMIN
 10
1e+20
 20
1e+20
 30
1e+20
  9
$PEXTMAX
 10
-1e+20
 20
-1e+20
 30
-1e+20
  9
$PLIMMIN
 10
0.0
 20
0.0
  9
$PLIMMAX
 10
420.0
 20
297.0
  9
$UNITMODE
 70
0
  9
$VISRETAIN
 70
1
  9
$PLINEGEN
 70
0
  9
$PSLTSCALE
 70
1
  9
$TREEDEPTH
 70
3020
  9
$CMLSTYLE
  2
Standard
  9
$CMLJUST
 70
0
  9
$CMLSCALE
 40
20.0
  9
$PROXYGRAPHICS
 70
1
  9
$MEASUREMENT
 70
1
  9
$CELWEIGHT
370
-1
  9
$ENDCAPS
280
0
  9
$JOINSTYLE
280
0
  9
$LWDISPLAY
290
0
  9
$INSUNITS
 70
4
  9
$HYPERLINKBASE
  1

  9
$STYLESHEET
  1

  9
$XEDIT
290
1
  9
$CEPSNTYPE
380
0
  9
$PSTYLEMODE
290
1
  9
$FINGERPRINTGUID
  2
{37916660-3A2C-414E-AB72-452C49514C3D}
  9
$VERSIONGUID
  2
{5C843330-1302-42D0-87F6-81C625038DE2}
  9
$EXTNAMES
290
1
  9
$PSVPSCALE
 40
0.0
  9
$OLESTARTUP
290
0
  9
$SORTENTS
280
127
  9
$INDEXCTL
280
0
  9
$HIDETEXT
280
1
  9
$XCLIPFRAME
280
1
  9
$HALOGAP
280
0
  9
$OBSCOLOR
 70
257
  9
$OBSLTYPE
280
0
  9
$INTERSECTIONDISPLAY
280
0
  9
$INTERSECTIONCOLOR
 70
257
  9
$DIMASSOC
280
2
  9
$PROJECTNAME
  1

  9
$CAMERADISPLAY
290
0
  9
$LENSLENGTH
 40
50.0
  9
$CAMERAHEIGHT
 40
0.0
  9
$STEPSPERSEC
 40
24.0
  9
$STEPSIZE
 40
100.0
  9
$3DDWFPREC
 40
2.0
  9
$PSOLWIDTH
 40
0.005
  9
$PSOLHEIGHT
 40
0.08
  9
$LOFTANG1
 40
1.570796326795
  9
$LOFTANG2
 40
1.570796326795
  9
$LOFTMAG1
 40
0.0
  9
$LOFTMAG2
 40
0.0
  9
$LOFTPARAM
 70
7
  9
$LOFTNORMALS
280
1
  9
$LATITUDE
 40
37.795
  9
$LONGITUDE
 40
-122.394
  9
$NORTHDIRECTION
 40
0.0
  9
$TIMEZONE
 70
-8000
  9
$LIGHTGLYPHDISPLAY
280
1
  9
$TILEMODELIGHTSYNCH
280
1
  9
$CMATERIAL
347
20
  9
$SOLIDHIST
280
0
  9
$SHOWHIST
280
1
  9
$DWFFRAME
280
2
  9
$DGNFRAME
280
2
  9
$REALWORLDSCALE
290
1
  9
$INTERFERECOLOR
 62
256
  9
$CSHADOW
280
0
  9
$SHADOWPLANELOCATION
 40
0.0
  0
ENDSEC
  0
SECTION
  2
CLASSES
  0
CLASS
  1
ACDBDICTIONARYWDFLT
  2
AcDbDictionaryWithDefault
  3
ObjectDBX Classes
 90
0
 91
0
280
0
281
0
  0
CLASS
  1
SUN
  2
AcDbSun
  3
SCENEOE
 90
1153
 91
0
280
0
281
0
  0
CLASS
  1
VISUALSTYLE
  2
AcDbVisualStyle
  3
ObjectDBX Classes
 90
4095
 91
0
280
0
281
0
  0
CLASS
  1
MATERIAL
  2
AcDbMaterial
  3
ObjectDBX Classes
 90
1153
 91
0
280
0
281
0
  0
CLASS
  1
SCALE
  2
AcDbScale
  3
ObjectDBX Classes
 90
1153
 91
0
280
0
281
0
  0
CLASS
  1
TABLESTYLE
  2
AcDbTableStyle
  3
ObjectDBX Classes
 90
4095
 91
0
280
0
281
0
  0
CLASS
  1
MLEADERSTYLE
  2
AcDbMLeaderStyle
  3
ACDB_MLEADERSTYLE_CLASS
 90
4095
 91
0
280
0
281
0
  0
CLASS
  1
DICTIONARYVAR
  2
AcDbDictionaryVar
  3
ObjectDBX Classes
 90
0
 91
0
280
0
281
0
  0
CLASS
  1
CELLSTYLEMAP
  2
AcDbCellStyleMap
  3
ObjectDBX Classes
 90
1152
 91
0
280
0
281
0
  0
CLASS
  1
MENTALRAYRENDERSETTINGS
  2
AcDbMentalRayRenderSettings
  3
SCENEOE
 90
1024
 91
0
280
0
281
0
  0
CLASS
  1
ACDBDETAILVIEWSTYLE
  2
AcDbDetailViewStyle
  3
ObjectDBX Classes
 90
1025
 91
0
280
0
281
0
  0
CLASS
  1
ACDBSECTIONVIEWSTYLE
  2
AcDbSectionViewStyle
  3
ObjectDBX Classes
 90
1025
 91
0
280
0
281
0
  0
CLASS
  1
RASTERVARIABLES
  2
AcDbRasterVariables
  3
ISM
 90
0
 91
0
280
0
281
0
  0
CLASS
  1
ACDBPLACEHOLDER
  2
AcDbPlaceHolder
  3
ObjectDBX Classes
 90
0
 91
0
280
0
281
0
  0
CLASS
  1
LAYOUT
  2
AcDbLayout
  3
ObjectDBX Classes
 90
0
 91
0
280
0
281
0
  0
ENDSEC
  0
SECTION
  2
TABLES
  0
TABLE
  2
VPORT
  5
8
330
0
100
AcDbSymbolTable
 70
1
  0
VPORT
  5
23
330
8
100
AcDbSymbolTableRecord
100
AcDbViewportTableRecord
  2
*Active
 70
0
 10
0.0
 20
0.0
 11
1.0
 21
1.0
 12
0.0
 22
0.0
 13
0.0
 23
0.0
 14
0.5
 24
0.5
 15
0.5
 25
0.5
 16
0.0
 26
0.0
 36
1.0
 17
0.0
 27
0.0
 37
0.0
 40
1000.0
 41
1.34
 42
50.0
 43
0.0
 44
0.0
 50
0.0
 51
0.0
 71
0
 72
1000
 73
1
 74
3
 75
0
 76
0
 77
0
 78
0
281
0
 65
0
146
0.0
  0
ENDTAB
  0
TABLE
  2
LTYPE
  5
2
330
0
100
AcDbSymbolTable
 70
3
  0
LTYPE
  5
24
330
2
100
AcDbSymbolTableRecord
100
AcDbLinetypeTableRecord
  2
ByBlock
 70
0
  3

 72
65
 73
0
 40
0.0
  0
LTYPE
  5
25
330
2
100
AcDbSymbolTableRecord
100
AcDbLinetypeTableRecord
  2
ByLayer
 70
0
  3

 72
65
 73
0
 40
0.0
  0
LTYPE
  5
26
330
2
100
AcDbSymbolTableRecord
100
AcDbLinetypeTableRecord
  2
Continuous
 70
0
  3

 72
65
 73
0
 40
0.0
  0
ENDTAB
  0
TABLE
  2
LAYER
  5
1
330
0
100
AcDbSymbolTable
 70
2
  0
LAYER
  5
27
330
1
100
AcDbSymbolTableRecord
100
AcDbLayerTableRecord
  2
0
 70
0
 62
7
  6
Continuous
370
-3
390
13
347
21
  0
LAYER
  5
28
330
1
100
AcDbSymbolTableRecord
100
AcDbLayerTableRecord
  2
Defpoints
 70
0
 62
7
  6
Continuous
290
0
370
-3
390
13
347
21
  0
ENDTAB
  0
TABLE
  2
STYLE
  5
5
330
0
100
AcDbSymbolTable
 70
1
  0
STYLE
  5
29
330
5
100
AcDbSymbolTableRecord
100
AcDbTextStyleTableRecord
  2
Standard
 70
0
 40
0.0
 41
1.0
 50
0.0
 71
0
 42
2.5
  3
txt
  4

  0
ENDTAB
  0
TABLE
  2
VIEW
  5
7
330
0
100
AcDbSymbolTable
 70
0
  0
ENDTAB
  0
TABLE
  2
UCS
  5
6
330
0
100
AcDbSymbolTable
 70
0
  0
ENDTAB
  0
TABLE
  2
APPID
  5
3
330
0
100
AcDbSymbolTable
 70
3
  0
APPID
  5
2A
330
3
100
AcDbSymbolTableRecord
100
AcDbRegAppTableRecord
  2
ACAD
 70
0
  0
APPID
  5
3E
330
3
100
AcDbSymbolTableRecord
100
AcDbRegAppTableRecord
  2
HATCHBACKGROUNDCOLOR
 70
0
  0
APPID
  5
3F
330
3
100
AcDbSymbolTableRecord
100
AcDbRegAppTableRecord
  2
EZDXF
 70
0
  0
ENDTAB
  0
TABLE
  2
DIMSTYLE
  5
4
330
0
100
AcDbSymbolTable
 70
1
100
AcDbDimStyleTable
  0
DIMSTYLE
105
2B
330
4
100
AcDbSymbolTableRecord
100
AcDbDimStyleTableRecord
  2
Standard
 70
0
 40
1.0
 41
2.5
 42
0.625
 43
3.75
 44
1.25
 45
0.0
 46
0.0
 47
0.0
 48
0.0
 49
2.5
140
2.5
141
2.5
142
0.0
143
0.03937007874
144
1.0
145
0.0
146
1.0
147
0.625
148
0.0
 69
0
 70
0
 71
0
 72
0
 73
0
 74
0
 75
0
 76
0
 77
1
 78
8
 79
3
170
0
171
3
172
1
173
0
174
0
175
0
176
0
177
0
178
0
179
2
271
2
272
2
273
2
274
3
275
0
276
0
277
2
278
44
279
0
280
0
281
0
282
0
283
0
284
8
285
0
286
0
288
0
289
3
290
0
371
-2
372
-2
  0
ENDTAB
  0
TABLE
  2
BLOCK_RECORD
  5
9
330
0
100
AcDbSymbolTable
 70
2
  0
BLOCK_RECORD
  5
17
330
9
100
AcDbSymbolTableRecord
100
AcDbBlockTableRecord
  2
*Model_Space
340
1A
 70
0
280
1
281
0
  0
BLOCK_RECORD
  5
1B
330
9
100
AcDbSymbolTableRecord
100
AcDbBlockTableRecord
  2
*Paper_Space
340
1E
 70
0
280
1
281
0
  0
ENDTAB
  0
ENDSEC
  0
SECTION
  2
BLOCKS
  0
BLOCK
  5
18
330
17
100
AcDbEntity
  8
0
100
AcDbBlockBegin
  2
*Model_Space
 70
0
 10
0.0
 20
0.0
 30
0.0
  3
*Model_Space
  1

  0
ENDBLK
  5
19
330
17
100
AcDbEntity
  8
0
100
AcDbBlockEnd
  0
BLOCK
  5
1C
330
1B
100
AcDbEntity
  8
0
100
AcDbBlockBegin
  2
*Paper_Space
 70
0
 10
0.0
 20
0.0
 30
0.0
  3
*Paper_Space
  1

  0
ENDBLK
  5
1D
330
1B
100
AcDbEntity
  8
0
100
AcDbBlockEnd
  0
ENDSEC
  0
SECTION
  2
ENTITIES
  0
LWPOLYLINE
  5
2F
330
17
100
AcDbEntity
  8
0
100
AcDbPolyline
 90
75
 70
1
 10
5.010135776
 20
25.237308428
 10
4.980423872
 20
25.238448888
 10
4.908803255581731
 20
25.231774076089167
 10
4.839649497226984
 20
25.211979543622068
 10
4.775344488002206
 20
25.1797470817431
 10
4.718103111532592
 20
25.136186886265552
 10
4.669896955863216
 20
25.08279931874504
 10
4.63238640524894
 20
25.021423228915268
 10
4.606863450863219
 20
24.954172618437724
 10
3.491586108
 20
21.537029316
 10
3.491482476
 20
21.531754244
 10
3.494061822223075
 20
21.505565657407278
 10
3.5017007384000935
 20
21.480383480092687
 10
3.5141056662632892
 20
21.457175445721557
 10
3.5307998930106224
 20
21.436833423010633
 10
3.55114190742281
 20
21.420139172303863
 10
3.5743499385581052
 20
21.407734221218554
 10
3.5995321197845693
 20
21.400095290057504
 10
3.625720714
 20
21.39751593866128
 10
3.630995786
 20
21.397619638
 10
38.1
 20
21.397619638
 10
38.1
 20
24.994410005999995
 10
38.08715365578882
 20
25.051983352922
 10
38.063739871310204
 20
25.106126806189984
 10
38.030589196326254
 20
25.15491975223244
 10
37.98887757423244
 20
25.19663137432625
 10
37.94008462818999
 20
25.229782049310202
 10
37.885941174921996
 20
25.253195833788812
 10
37.828367828
 20
25.266042177999996
 10
37.070332259999994
 20
25.266042177999996
 10
37.070332259999994
 20
25.204760359999998
 10
35.126841354
 20
25.204760359999998
 10
35.126841354
 20
25.257083597999998
 10
25.583744869999997
 20
25.257083597999998
 10
25.583744869999997
 20
23.876999997999995
 10
25.584389801930126
 20
23.857906958625577
 10
25.584604815555608
 20
23.838804239999995
 10
25.568297560021392
 20
23.673232896484176
 10
25.520002180553714
 20
23.514024366846197
 10
25.441574739945533
 20
23.367296945594862
 10
25.336029160756812
 20
23.23868928524318
 10
25.20742144009769
 20
23.13314379631092
 10
25.06069403761331
 20
23.05471636573389
 10
24.901485528338657
 20
23.006420992443356
 10
24.735914205999997
 20
22.99011364055052
 10
24.71681148515858
 20
22.990328545650417
 10
24.697718443569457
 20
22.990973477655356
 10
11.084381691999997
 20
22.988481835999995
 10
10.97835660248011
 20
23.019046880073695
 10
10.880439895375783
 20
23.069917893399285
 10
10.794476315344552
 20
23.139097402180003
 10
10.723841261997386
 20
23.22386904110229
 10
10.67130825327645
 20
23.320904212672463
 10
10.638940021994122
 20
23.42639278613225
 10
10.62800752167791
 20
23.536192703999994
 10
10.628008207999997
 20
23.537097451999994
 10
10.639144799395352
 20
23.647006140340153
 10
10.671759061745067
 20
23.75255353884881
 10
10.724567393931402
 20
23.849585613402844
 10
10.795491415842791
 20
23.934283467900315
 10
10.88173976728153
 20
24.00331364474104
 10
10.979917967663516
 20
24.05395931988034
 10
11.08616201275657
 20
24.084227229005794
 10
18.222476128
 20
24.084227421999994
 10
18.980154825999996
 20
23.879951223999996
 10
18.980154825999996
 20
24.035943799999995
 10
18.865017387999995
 20
24.113940087999996
 10
18.74028172977667
 20
24.51558800676546
 10
18.698138983072987
 20
24.934042333999994
 10
18.70365314084368
 20
25.08607474247054
 10
18.720166944694427
 20
25.23730818645826
 10
9.660203945999996
 20
25.237308173999995
 10
9.917842749999995
 20
25.061359579999994
 10
7.046111637999995
 20
25.061359579999994
 10
7.222060231999995
 20
25.237308173999995
  0
LWPOLYLINE
  5
30
330
17
100
AcDbEntity
  8
0
100
AcDbPolyline
 90
12
 70
1
 10
35.71843148399999
 20
25.018014987999994
 10
37.851736844
 20
25.018014987999994
 10
37.893212447101554
 20
25.01227868293033
 10
37.93292338627597
 20
24.99900569689188
 10
37.96951248689953
 20
24.97864965198996
 10
38.00172926736939
 20
24.951906243369386
 10
38.02847267598997
 20
24.919689462899523
 10
38.04882872089188
 20
24.88310036227596
 10
38.062101706930335
 20
24.843389423101552
 10
38.067838012
 20
24.801913819999992
 10
38.067838012
 20
21.427412567999994
 10
34.737665094
 20
21.427412567999994
  0
LWPOLYLINE
  5
31
330
17
100
AcDbEntity
  8
0
100
AcDbPolyline
 90
36
 70
1
 10
34.594400712
 20
22.314703909999995
 10
34.421941062
 20
21.570971335999992
 10
9.429627825999999
 20
21.570971335999992
 10
10.32183991
 20
24.831216275999992
 10
17.313524682
 20
24.831216275999992
 10
17.423018072241312
 20
24.659117508768954
 10
17.561682573521743
 20
24.509521572080722
 10
17.724994557643072
 20
24.387308708472446
 10
17.9076263258096
 20
24.296465847193492
 10
18.103619913230485
 20
24.239956539297612
 10
18.944146770000003
 20
24.010212329999995
 10
18.969514258000004
 20
24.002616713999995
 10
18.969514258000004
 20
23.895108165999996
 10
18.223279022000003
 20
24.095369131999995
 10
11.061824714000004
 20
24.095369131999995
 10
10.955367932580344
 20
24.061872798714262
 10
10.857406524358465
 20
24.008406798742232
 10
10.771644673569776
 20
23.936992825297807
 10
10.701325266381971
 20
23.85033123272891
 10
10.649107268649827
 20
23.751698928859092
 10
10.61696518326703
 20
23.64482546629206
 10
10.606114388902892
 20
23.533752017999994
 10
10.61696497057251
 20
23.422678541664062
 10
10.649107074085807
 20
23.315805054773467
 10
10.701325100415307
 20
23.217172733779456
 10
10.771644544335507
 20
23.13051113429522
 10
10.857406436918726
 20
23.059097166481088
 10
10.955367888363153
 20
23.005631186182256
 10
11.061824710453115
 20
22.97213488714909
 10
13.847163060000003
 20
22.972134903999994
 10
13.847163060000003
 20
22.645203883999994
 10
13.997743308072902
 20
22.521928619483617
 10
14.168903549656715
 20
22.429325306085833
 10
14.35447776114639
 20
22.370729965133982
 10
14.547780657700383
 20
22.348253485536095
 10
34.599076090000004
 20
22.348253499999995
  0
LWPOLYLINE
  5
32
330
17
100
AcDbEntity
  8
0
100
AcDbPolyline
 90
19
 70
1
 10
34.700081984
 20
22.605622555999993
 10
13.909408299999999
 20
22.605622555999993
 10
13.85894104
 20
22.656089815999994
 10
13.858495015999999
 20
22.985162309999996
 10
24.684427898
 20
22.985162309999996
 10
24.73843883346111
 20
22.97969155422214
 10
24.792695397999996
 20
22.977865212905982
 10
24.950100961790834
 20
22.99336823887398
 10
25.10145751803925
 20
23.039281748254165
 10
25.240948519170345
 20
23.113841241723662
 10
25.363213404238113
 20
23.21418143976188
 10
25.463553637272607
 20
23.336446301445886
 10
25.538113134631605
 20
23.47593730985373
 10
25.58402664640693
 20
23.62729387399787
 10
25.599529742089658
 20
23.784699445999994
 10
25.597703357956814
 20
23.83895601509531
 10
25.592232600006362
 20
23.892966954938096
 10
25.592232533999997
 20
24.907916655999994
 10
35.350553377999994
 20
24.907916655999994
  0
LWPOLYLINE
  5
33
330
17
100
AcDbEntity
  8
0
100
AcDbPolyline
 90
4
 70
1
 10
6.105035795999992
 20
20.817816377999993
 10
23.18111594399999
 20
20.817816377999993
 10
23.18111594399999
 20
20.175375447999993
 10
6.105035795999992
 20
20.175375447999993
  0
LWPOLYLINE
  5
34
330
17
100
AcDbEntity
  8
0
100
AcDbPolyline
 90
26
 70
1
 10
10.370843621999992
 20
18.800551933999994
 10
16.782404077999992
 20
18.800551933999994
 10
16.900118789033385
 20
18.745323872653344
 10
17.004060514018516
 20
18.667202110250678
 10
17.08984078589899
 20
18.56948498324677
 10
17.153837922455356
 20
18.456298153331055
 10
17.19334993538098
 20
18.332420420108534
 10
17.206708609461213
 20
18.203081957999995
 10
17.19335011406632
 20
18.073743458582555
 10
17.153838089743083
 20
17.94986568962634
 10
17.089840934726144
 20
17.836678827060815
 10
17.004060638101546
 20
17.73896167186949
 10
16.900118883133445
 20
17.66083988693186
 10
16.782404138144138
 20
17.605611809654157
 10
10.370843621999994
 20
17.605611981999996
 10
10.249309127711568
 20
17.65776242989131
 10
10.14146126545305
 20
17.73430745666298
 10
10.052124551947811
 20
17.831822861278308
 10
9.985295417531063
 20
17.945946344007837
 10
9.943963427965631
 20
18.071572651586187
 10
9.92997754780856
 20
18.203081957999995
 10
9.943963476163505
 20
18.334591267312536
 10
9.985295454307474
 20
18.460217581238524
 10
10.0521245715105
 20
18.574341076899092
 10
10.141461264598322
 20
18.67185650355588
 10
10.249309106580077
 20
18.748401563146956
  0
LWPOLYLINE
  5
35
330
17
100
AcDbEntity
  8
0
100
AcDbPolyline
 90
33
 70
1
 10
32.23567848
 20
20.942450113999993
 10
24.944616353999997
 20
20.942450113999993
 10
24.933847007999994
 20
20.942612673999996
 10
24.864225267926503
 20
20.935755535538377
 10
24.79727904886181
 20
20.915447635802444
 10
24.735581053174148
 20
20.882469394993272
 10
24.681502297208244
 20
20.838088146791776
 10
24.637121053035926
 20
20.78400938042319
 10
24.60414279211529
 20
20.722311393791028
 10
24.58383487931085
 20
20.655365177129145
 10
24.576977736322867
 20
20.585743435999998
 10
24.57714033
 20
20.574974089999994
 10
24.57714033
 20
19.764856075999994
 10
24.607066547217084
 20
19.66496867967178
 10
24.65603134353041
 20
19.572906096913382
 10
24.72212668850972
 20
19.492255766509718
 10
24.802777018913382
 20
19.426160421530412
 10
24.894839601671784
 20
19.377195625217084
 10
24.994726997999997
 20
19.347269407999995
 10
32.135457953999996
 20
19.347269407999995
 10
32.22687040273796
 20
19.35980248678088
 10
32.31440390799686
 20
19.388977806917733
 10
32.39505603214449
 20
19.433794642130348
 10
32.466060371939655
 20
19.492715755309334
 10
32.524981447377066
 20
19.563720126423355
 10
32.56979823971994
 20
19.644372274392854
 10
32.598973513329334
 20
19.731905795159566
 10
32.611506543520946
 20
19.823318250559332
 10
32.61150678599999
 20
20.625084479999995
 10
32.564185444230965
 20
20.715653896557487
 10
32.50028889818493
 20
20.795399492083334
 10
32.42221518163756
 20
20.861328418867163
 10
32.33289439677531
 20
20.910966367998615
  0
LWPOLYLINE
  5
36
330
17
100
AcDbEntity
  8
0
100
AcDbPolyline
 90
69
 70
1
 10
5.1265985859999965
 20
12.873673261999992
 10
6.713186725999996
 20
12.873673261999992
 10
8.334266033999997
 20
12.408044017999993
 10
12.059299223999998
 20
11.666486445999993
 10
12.158381314774402
 20
11.638738019464366
 10
12.2493077495804
 20
11.59057559281349
 10
12.327928262215794
 20
11.524197502449438
 10
12.390654280698342
 20
11.442633524537879
 10
12.429468318952612
 20
11.363722449377248
 10
12.45328683021142
 20
11.279069253121683
 10
12.461315562637695
 20
11.191496285999994
 10
12.45562837532458
 20
11.117700431714656
 10
12.438700747074783
 20
11.045647471452734
 10
11.662652315999996
 20
8.579537577999995
 10
11.62591665163875
 20
8.463563753669613
 10
11.567462203447992
 20
8.35687488615013
 10
11.489492614150214
 20
8.263492981529309
 10
11.394947217249532
 20
8.186938393875995
 10
11.28739022868287
 20
8.130097113310308
 10
11.170876381365243
 20
8.095111968618298
 10
11.049798067999996
 20
8.083301845904993
 10
10.985100567517433
 20
8.086651083985332
 10
10.921094743876038
 20
8.096663003409413
 10
9.627680515999995
 20
8.096663003999995
 10
9.598088016842773
 20
8.092409334393471
 10
9.568225211999994
 20
8.090987153528124
 10
9.510246987880691
 20
8.096382023009518
 10
9.45425952078691
 20
8.112381491092348
 10
9.402185212536777
 20
8.1384361618978
 10
9.355812101597714
 20
8.173651414734374
 10
9.316732468481925
 20
8.216818088523837
 10
9.286288162743482
 20
8.266453999904757
 10
9.26552452884501
 20
8.3208548359079
 10
9.09607301370719
 20
8.70198635657266
 10
8.85105057693632
 20
9.039534955503429
 10
8.541175574319865
 20
9.318734765522553
 10
8.180003305905268
 20
9.527372354871922
 10
7.783333040513304
 20
9.656320994706276
 10
7.368516885999995
 20
9.699939902487799
 10
6.95370071952387
 20
9.656321050960553
 10
6.557030442692396
 20
9.527372407407471
 10
6.1958581638620105
 20
9.318734812041235
 10
5.8859831523091195
 20
9.039534993970316
 10
5.640960708472087
 20
8.701986385305034
 10
5.471509195292499
 20
8.320854851740982
 10
5.467521546213013
 20
8.283990637127008
 10
5.4565154832718274
 20
8.248582483106816
 10
5.438902345776733
 20
8.21595353614002
 10
5.415340317517274
 20
8.187323104482717
 10
5.38670988585997
 20
8.163761076223258
 10
5.3540809388931745
 20
8.146147938728163
 10
5.318672784872982
 20
8.135141875786978
 10
5.281808587999995
 20
8.131154171999995
 10
4.281568271999994
 20
8.131154171999995
 10
4.177949723912213
 20
8.143093061688539
 10
4.078953014563966
 20
8.175941077352105
 10
3.9887507527601085
 20
8.228313709138979
 10
3.911144870446646
 20
8.298003504842255
 10
3.85506141418875
 20
8.372668650873832
 10
3.81359108977623
 20
8.456337349808582
 10
3.7881348982999357
 20
8.546182891177287
 10
3.779552855475628
 20
8.639169919999995
 10
3.7800267674636814
 20
8.661110970354201
 10
3.781447887387873
 20
8.683011079627772
 10
4.626478427999994
 20
12.390798687999997
 10
4.679733692120175
 20
12.526352195583133
 10
4.760597632651798
 20
12.64747981298024
 10
4.865370923636104
 20
12.748640250261424
 10
4.989260445264999
 20
12.825205666770222
  0
LWPOLYLINE
  5
37
330
17
100
AcDbEntity
  8
0
100
AcDbPolyline
 90
57
 70
1
 10
3.9535013639999934
 20
7.587388177999996
 10
5.168999567999993
 20
7.587388177999996
 10
5.252571470041578
 20
7.5590651528319786
 10
5.328474410060119
 20
7.514062927753015
 10
5.393423203064291
 20
7.454329261761236
 10
5.444606774806769
 20
7.382449511141199
 10
5.572954557465979
 20
7.0330440917405745
 10
5.764183850060747
 20
6.713687446128985
 10
6.0115913170466735
 20
6.435574421043516
 10
6.3065042735323145
 20
6.208454061895596
 10
6.638584764996079
 20
6.040287904088005
 10
6.996191956599199
 20
5.936970887308042
 10
7.366790193999995
 20
5.902124712797682
 10
7.737388406198317
 20
5.936971020140648
 10
8.09499557348242
 20
6.040288029894554
 10
8.427076042363105
 20
6.2084541762660335
 10
8.721988978793242
 20
6.435574519968672
 10
8.969396428954262
 20
6.7136875261411095
 10
9.160625708544513
 20
7.033044150034904
 10
9.288973417282234
 20
7.382449582533066
 10
9.359249906414144
 20
7.454535229686241
 10
9.442832810029403
 20
7.5106512726629715
 10
9.536158841920555
 20
7.548405263545745
 10
9.63524920322777
 20
7.566187624247568
 10
10.631675205999992
 20
7.566187559999996
 10
10.75686782392641
 20
7.539477250505777
 10
10.873847331974375
 20
7.487492378538995
 10
10.97757195022904
 20
7.412473475691311
 10
11.063571180346568
 20
7.317653833023035
 10
11.128138482623255
 20
7.207120147237853
 10
11.168491026688157
 20
7.0856363853433635
 10
11.182889630614671
 20
6.958438459175072
 10
10.198027609999993
 20
3.651794829999996
 10
10.147017998757974
 20
3.5280360898877454
 10
10.072729263952787
 20
3.416683541312161
 10
9.978046315916114
 20
3.322061421570961
 10
9.866646048806153
 20
3.2478442626313817
 10
9.742854553010371
 20
3.196914195265665
 10
9.611479116822645
 20
3.1712490250983367
 10
3.1594447859999923
 20
3.171248927999996
 10
3.140414037358379
 20
3.1702130486297344
 10
3.1213582479999924
 20
3.169867604193133
 10
3.014077454502107
 20
3.180929288627811
 10
2.911310874469783
 20
3.2136486705890235
 10
2.817382770096335
 20
3.266649039797872
 10
2.7362454938927043
 20
3.3377002209120485
 10
2.6763581290639693
 20
3.4156295355808837
 10
2.6320210132867223
 20
3.5033432463899623
 10
2.604783463886963
 20
3.597776242752671
 10
2.5955972790334814
 20
3.695628625999996
 10
2.5969907168977846
 20
3.733881323560787
 10
2.6011635876632977
 20
3.7719312596510934
 10
3.0842793279999925
 20
6.441273375999996
 10
3.274734783768636
 20
6.915904890106566
 10
3.519211821248215
 20
7.3651034352515214
 10
3.645734921843639
 20
7.471725200084664
 10
3.7930210917473026
 20
7.547111334083322
  0
LWPOLYLINE
  5
38
330
17
100
AcDbEntity
  8
0
100
AcDbPolyline
 90
33
 70
1
 10
7.546745383999993
 20
9.471667111999997
 10
7.477879633999993
 20
9.473010009999998
 10
7.133258893671503
 20
9.43906782965906
 10
6.801881735128299
 20
9.338545667591754
 10
6.496482796734746
 20
9.17530653411285
 10
6.228798388423608
 20
8.95562361757638
 10
6.009115382022474
 20
8.687939269310894
 10
5.845876238555968
 20
8.382540312231853
 10
5.745354070338329
 20
8.051163133413716
 10
5.7114118879206766
 20
7.706542371999997
 10
5.712754893999992
 20
7.637676621999997
 10
5.798530201661879
 20
7.308488244476944
 10
5.9487423234165675
 20
7.003269126827498
 10
6.157255913484095
 20
6.734485805064591
 10
6.415554329133229
 20
6.5131166116932055
 10
6.71308748907951
 20
6.348203270713368
 10
7.0377027867559665
 20
6.246481592516546
 10
7.376141457999991
 20
6.212106352774405
 10
7.714580161168129
 20
6.246481436984673
 10
8.03919548946477
 20
6.348203124776656
 10
8.336728677476641
 20
6.513116481312375
 10
8.59502711749045
 20
6.734485695564989
 10
8.803540727226567
 20
7.003269042681583
 10
8.953752863150406
 20
7.30848818912162
 10
9.039528178903273
 20
7.637676597696226
 10
9.046558253443619
 20
7.7257903827130185
 10
9.048903866163194
 20
7.814153027999997
 10
9.012187317809197
 20
8.161943771376727
 10
8.903656317184032
 20
8.494400583988542
 10
8.72809600304204
 20
8.796865600886486
 10
8.493246747297622
 20
9.056003281328756
 10
8.20946294349447
 20
9.260388366517775
 10
7.88925648645035
 20
9.401009613902225
  0
LWPOLYLINE
  5
39
330
17
100
AcDbEntity
  8
0
100
AcDbPolyline
 90
36
 70
1
 10
24.04515485599999
 20
18.827110681999997
 10
24.00917372399999
 20
18.828511491999997
 10
23.91888360607826
 20
18.819618691576604
 10
23.83206328675298
 20
18.79328203563955
 10
23.75204922220643
 20
18.75051362710673
 10
23.68191630806672
 20
18.692957031933265
 10
23.62435971987004
 20
18.622824113131816
 10
23.581591312112625
 20
18.542810050035943
 10
23.555254656653062
 20
18.45598973228474
 10
23.546361856390895
 20
18.365699615999997
 10
23.547762657999986
 20
18.329718483999994
 10
23.557906056085812
 20
18.24101237644682
 10
23.584982451493765
 20
18.15593282042027
 10
23.627973283390972
 20
18.077680341771032
 10
23.685261321090575
 20
18.0091986451033
 10
23.754691501094886
 20
17.95306387738728
 10
23.833651996352845
 20
17.91138771836824
 10
23.919172468065582
 20
17.885737943320606
 10
24.008035803999988
 20
17.877079446420364
 10
24.09689913550653
 20
17.885738055375644
 10
24.182419605323915
 20
17.9113878202126
 10
24.26138010356729
 20
17.95306396340191
 10
24.330810293427763
 20
18.009198711374236
 10
24.388098349332058
 20
18.077680386621587
 10
24.43108920862292
 20
18.155932844802855
 10
24.458165640727625
 20
18.24101238416725
 10
24.468309084153734
 20
18.32971848175608
 10
24.471136198535103
 20
18.358401382455185
 10
24.472079963942406
 20
18.387207827999994
 10
24.4652635282194
 20
18.46436655958005
 10
24.44502500766734
 20
18.539135120032615
 10
24.411991461578438
 20
18.609197379338738
 10
24.367186180855533
 20
18.672382996100996
 10
24.300729214565965
 20
18.735721686304903
 10
24.222577618280496
 20
18.783894779695878
 10
24.136132190799483
 20
18.814806055898046
  0
LWPOLYLINE
  5
3A
330
17
100
AcDbEntity
  8
0
100
AcDbPolyline
 90
36
 70
1
 10
3.951288515999988
 20
19.287379255999994
 10
3.915307383999988
 20
19.288780065999998
 10
3.8250172660782593
 20
19.2798872655766
 10
3.738196946752981
 20
19.25355060963955
 10
3.658182882206428
 20
19.210782201106728
 10
3.5880499680667195
 20
19.15322560593326
 10
3.530493379870039
 20
19.083092687131813
 10
3.4877249721126242
 20
19.00307862403594
 10
3.4613883166530615
 20
18.91625830628474
 10
3.4524955163908957
 20
18.825968189999994
 10
3.4538963179999884
 20
18.789987057999994
 10
3.4640397160858156
 20
18.70128095044682
 10
3.4911161114937665
 20
18.61620139442027
 10
3.5341069433909706
 20
18.537948915771032
 10
3.5913949810905765
 20
18.469467219103297
 10
3.6608251610948876
 20
18.413332451387276
 10
3.7397856563528475
 20
18.371656292368236
 10
3.825306128065582
 20
18.346006517320607
 10
3.9141694639999884
 20
18.33734802042036
 10
4.00303279550653
 20
18.34600662937564
 10
4.088553265323917
 20
18.371656394212597
 10
4.167513763567291
 20
18.413332537401907
 10
4.2369439534277635
 20
18.469467285374233
 10
4.294232009332057
 20
18.537948960621588
 10
4.337222868622922
 20
18.616201418802856
 10
4.364299300727625
 20
18.701280958167246
 10
4.3744427441537335
 20
18.789987055756075
 10
4.377269858535102
 20
18.81866995645518
 10
4.378213623942405
 20
18.847476401999995
 10
4.371397188219397
 20
18.924635133580047
 10
4.351158667667339
 20
18.999403694032615
 10
4.318125121578438
 20
19.069465953338735
 10
4.273319840855532
 20
19.132651570100993
 10
4.206862874565965
 20
19.1959902603049
 10
4.128711278280499
 20
19.24416335369588
 10
4.042265850799484
 20
19.275074629898043
  0
LWPOLYLINE
  5
3B
330
17
100
AcDbEntity
  8
0
100
AcDbPolyline
 90
123
 70
1
 10
3.3216603619999887
 20
21.319241333999994
 10
37.63503318799999
 20
21.319241333999994
 10
37.63503318799999
 20
17.728759309999994
 10
37.606213085361944
 20
17.60437783262899
 10
37.55489963556853
 20
17.487466412744705
 10
37.48286112495535
 20
17.382053874507097
 10
37.392580035492884
 20
17.29177278504463
 10
37.28716749725527
 20
17.21973427443145
 10
37.170256077370986
 20
17.16842082463803
 10
37.04587459999998
 20
17.13960072199999
 10
33.86094675599998
 20
17.13960072199999
 10
31.57718260743764
 20
17.565111530358053
 10
29.259463450925583
 20
17.722642625146722
 10
27.674939840508358
 20
17.540074191632055
 10
26.110003929365718
 20
17.231817897644014
 10
18.43215211199999
 20
17.23181796199999
 10
17.989687584129015
 20
17.0589979839156
 10
17.59502485571219
 20
16.794644179237554
 10
17.266815042364435
 20
16.451249476786565
 10
17.020568803527198
 20
16.045042149049006
 10
16.575680443790056
 20
14.361855126787695
 10
16.2636329833002
 20
12.649059025837705
 10
16.41276030642351
 20
12.009853456025722
 10
16.681108822847527
 20
11.410844435414468
 10
17.058818742427572
 20
10.874040980049786
 10
17.532012107031903
 20
10.419166521836251
 10
17.46832543681724
 20
10.161466542414075
 10
17.354543542239924
 20
9.921635333813093
 10
17.195234254050852
 20
9.709300977550846
 10
16.996793020697265
 20
9.532987605801232
 10
16.767186236933323
 20
9.399773293498873
 10
16.62381000070039
 20
9.26727321674157
 10
16.50620400979386
 20
9.111446824464911
 10
16.418096405635765
 20
8.937234070291785
 10
16.36228026853448
 20
8.75015763546859
 10
16.340525013910128
 20
8.556147990029773
 10
15.728913632053724
 20
8.097581561650314
 10
15.232784048541227
 20
7.516025720518002
 10
14.876301711957671
 20
6.839806744375422
 10
14.716052004593003
 20
7.751994504682445
 10
14.395874631332564
 20
8.621047399900387
 10
13.92601114792259
 20
9.419166934802579
 10
13.705436682764514
 20
9.659585588213154
 10
13.445005092083406
 20
9.856129722764214
 10
13.15331193505577
 20
10.002312185441403
 10
12.839984715077533
 20
10.093308138493319
 10
12.733212126886865
 20
10.073957953192659
 10
12.632143563152454
 20
10.034461516655679
 10
12.540542056816301
 20
9.976289469146547
 10
12.461818141676638
 20
9.901607689176197
 10
12.39890288932881
 20
9.813196750393342
 10
12.354138778659236
 20
9.714348394461545
 10
10.334866807999989
 20
2.417664709999989
 10
10.373734395999989
 20
2.378797121999989
 10
12.42400436199999
 20
2.184458673999989
 10
12.692856056322826
 20
2.1149272516750406
 10
12.944877265453222
 20
1.9983032302247303
 10
13.17189457870278
 20
1.8383688945874372
 10
13.366545497728724
 20
1.6403111455515942
 10
13.36683915399999
 20
1.622607879999989
 10
13.356841544497852
 20
1.519774616580328
 10
13.32722316749388
 20
1.420792880866384
 10
13.279093352750014
 20
1.3293699450460117
 10
13.17220733599999
 20
1.3196529359999891
 10
13.08026038599821
 20
1.491865840025969
 10
12.957420151692808
 20
1.6435952134626397
 10
12.808115183176994
 20
1.7693710152059934
 10
12.637728118606562
 20
1.8646588641415334
 10
12.452401633098932
 20
1.9260235094764564
 10
12.258816987311985
 20
1.951252675995278
 10
11.2871275835589
 20
2.0564458371717143
 10
10.310392129999991
 20
2.0915707247782342
 10
10.001891826423243
 20
2.088070629693246
 10
9.69355033443251
 20
2.0775724605184442
 10
3.352336957999991
 20
2.176588737999989
 10
2.8859248859999913
 20
0.4081094199999889
 10
0.7870703079999913
 20
0.31094019599998884
 10
0.37764669560709085
 20
0.1956868078801389
 10
-2.2539931702603155e-07
 20
-1.3136610945441163e-06
 10
0.038867333999991274
 20
1.331216539999989
 10
1.4769713919999914
 20
2.895640639999989
 10
1.7396419819001294
 20
3.2712801257168223
 10
1.9331682252679332
 20
3.6867899994334885
 10
2.0516821021062626
 20
4.129571348436405
 10
2.0915900853196523
 20
4.586198345999989
 10
2.0885459883949764
 20
4.712757710508465
 10
2.0794204605957494
 20
4.83902435130296
 10
2.50427911801057
 20
7.301911074531121
 10
3.2167016235360273
 20
9.697484069013374
 10
3.5117098410102967
 20
10.530763064365733
 10
3.6831138203393756
 20
11.397944942508643
 10
3.7056063724915003
 20
11.565593846157965
 10
3.7131236953963516
 20
11.734577749999987
 10
3.658687242435242
 20
12.18649570891748
 10
3.4984922998756973
 20
12.612559956575714
 10
3.2944817428181197
 20
12.936853520254541
 10
3.142178586341475
 20
13.288407749616292
 10
3.332399672408159
 20
14.022457837297852
 10
3.3964149792718574
 20
14.778047405999988
 10
3.3716352490303456
 20
15.249183752811952
 10
3.297569130850156
 20
15.715121204127298
 10
3.0524514044321607
 20
16.226500373863164
 10
2.7169397511722444
 20
16.683691046243155
 10
2.3026224924218797
 20
17.070902344484892
 10
1.8238097211260509
 20
17.374760387703233
 10
1.7002083421505838
 20
17.402817821724874
 10
1.5839979752806126
 20
17.45341093387491
 10
1.4792475144546122
 20
17.524768157208083
 10
1.3896246592080854
 20
17.61439101245461
 10
1.3182674358749127
 20
17.719141473280608
 10
1.2676743237248742
 20
17.835351840150583
 10
1.2396167739999902
 20
17.95895315999999
 10
0.9376694479999905
 20
18.747870555999988
 10
0.9269276307844078
 20
18.836603831261687
 10
0.9233393138855752
 20
18.925912871999987
 10
0.9446149882245976
 20
19.14251226295336
 10
1.0076288680956873
 20
19.35083221647589
 10
1.1099722316674223
 20
19.54290977379287
 10
1.2477330389685697
 20
19.71140283615383
 10
1.4156454303886654
 20
19.849870814039043
 10
2.942513291999991
 20
21.17758223199999
 10
3.0579392813616075
 20
21.251248405747162
 10
3.186208938734601
 20
21.29917292110279
  0
LWPOLYLINE
  5
3C
330
17
100
AcDbEntity
  8
0
100
AcDbPolyline
 90
34
 70
1
 10
13.427256609999992
 20
12.361285157999987
 10
15.682224413999991
 20
12.110733207999989
 10
15.885770028210466
 20
12.046412537555035
 10
16.073038547506464
 20
11.94395050853213
 10
16.23696257292866
 20
11.80721397500802
 10
16.371355712385995
 20
11.641363289819179
 10
16.471146051295534
 20
11.452657556013534
 10
16.532567563525326
 20
11.248218412143746
 10
16.553302238908767
 20
11.035761265999987
 10
16.550848056885105
 20
10.96236292262518
 10
16.543496667497198
 20
10.889292432172144
 10
16.518437410921088
 20
10.711974588785178
 10
16.45715071344657
 20
10.54370835671406
 10
16.362301347822065
 20
10.391809765596916
 10
16.23801326640596
 20
10.262883209136861
 10
16.089690386484385
 20
10.162534280719488
 10
15.893691106061079
 20
10.08701381188065
 10
15.685222121999988
 20
10.061328232833214
 10
15.527494387845563
 20
10.075936032300701
 10
15.375132267778
 20
10.119262858003939
 10
15.233318847334672
 20
10.189834688355473
 10
14.21299578713878
 20
10.730963441875069
 10
13.161045277791755
 20
11.207701926234215
 10
13.115976495429578
 20
11.241492856639825
 10
13.078776577020223
 20
11.283791629133992
 10
13.051020106710354
 20
11.332807937033639
 10
13.033881928882032
 20
11.38646707367318
 10
13.028087448880953
 20
11.442497815999987
 10
13.030549503999987
 20
11.479133251999986
 10
13.244562537999986
 20
12.256888363999986
 10
13.271500176275133
 20
12.291308390746435
 10
13.304562450170438
 20
12.319896161592386
 10
13.342511474481874
 20
12.341581321284647
 10
13.383926399093347
 20
12.355551955360978
  0
LWPOLYLINE
  5
3D
330
17
100
AcDbEntity
  8
0
100
AcDbPolyline
 90
38
 70
1
 10
13.467810757999986
 20
1.950629829999984
 10
12.139062335999986
 20
3.8610885439999842
 10
11.98165745359387
 20
4.071864971865239
 10
11.865301471965296
 20
4.307797769687351
 10
11.793891567816784
 20
4.56098470682752
 10
11.769819513456746
 20
4.822945649999983
 10
11.771914174046762
 20
4.900518023132336
 10
11.778192127181025
 20
4.9778643099692825
 10
11.84200039502532
 20
5.272720784293277
 10
11.965945597405412
 20
5.547765189200891
 10
12.144568056829884
 20
5.790882146349458
 10
12.369999664157865
 20
5.991362639868276
 10
13.187145961400937
 20
6.255548350530728
 10
14.041276209999985
 20
6.344899888426264
 10
14.253357744269541
 20
6.339447132976983
 10
14.464878863940244
 20
6.32310313865558
 10
14.542551794348128
 20
6.300402358121535
 10
14.61416130379635
 20
6.262712984722353
 10
14.676848644060776
 20
6.211539670571228
 10
14.728111248393898
 20
6.148925326307124
 10
14.765902641567163
 20
6.077369604574606
 10
14.613613916857132
 20
5.6366409389311025
 10
14.562008244954663
 20
5.173207585999984
 10
14.60418907201825
 20
4.753750582613055
 10
14.729042521806544
 20
4.351090653455133
 10
14.795541530853221
 20
4.260547676393503
 10
14.844656149189168
 20
4.159513480864309
 10
14.874781756842934
 20
4.051288704754544
 10
14.884934182363143
 20
3.939408935999984
 10
14.878891838020118
 20
3.852953692477635
 10
14.860882348576531
 20
3.768179421017672
 10
14.8147781783961
 20
3.652552097230973
 10
14.74655733601293
 20
3.5484310601795985
 10
14.658956310886733
 20
3.459992753496566
 10
14.555488916309784
 20
3.3907845751389405
 10
14.440305390317066
 20
3.343582572723711
 10
14.030019607813804
 20
2.943518375796427
 10
13.701979734588027
 20
2.4736506939949017
  0
ENDSEC
  0
SECTION
  2
OBJECTS
  0
DICTIONARY
  5
A
330
0
100
AcDbDictionary
281
1
  3
ACAD_COLOR
350
B
  3
ACAD_GROUP
350
C
  3
ACAD_LAYOUT
350
D
  3
ACAD_MATERIAL
350
E
  3
ACAD_MLEADERSTYLE
350
F
  3
ACAD_MLINESTYLE
350
10
  3
ACAD_PLOTSETTINGS
350
11
  3
ACAD_PLOTSTYLENAME
350
12
  3
ACAD_SCALELIST
350
14
  3
ACAD_TABLESTYLE
350
15
  3
ACAD_VISUALSTYLE
350
16
  3
EZDXF_META
350
2D
  0
DICTIONARY
  5
B
330
A
100
AcDbDictionary
281
1
  0
DICTIONARY
  5
C
330
A
100
AcDbDictionary
281
1
  0
DICTIONARY
  5
D
330
A
100
AcDbDictionary
281
1
  3
Model
350
1A
  3
Layout1
350
1E
  0
DICTIONARY
  5
E
330
A
100
AcDbDictionary
281
1
  3
ByBlock
350
1F
  3
ByLayer
350
20
  3
Global
350
21
  0
DICTIONARY
  5
F
330
A
100
AcDbDictionary
281
1
  3
Standard
350
2C
  0
DICTIONARY
  5
10
330
A
100
AcDbDictionary
281
1
  3
Standard
350
22
  0
DICTIONARY
  5
11
330
A
100
AcDbDictionary
281
1
  0
ACDBDICTIONARYWDFLT
  5
12
330
A
100
AcDbDictionary
281
1
  3
Normal
350
13
100
AcDbDictionaryWithDefault
340
13
  0
ACDBPLACEHOLDER
  5
13
330
12
  0
DICTIONARY
  5
14
330
A
100
AcDbDictionary
281
1
  0
DICTIONARY
  5
15
330
A
100
AcDbDictionary
281
1
  0
DICTIONARY
  5
16
330
A
100
AcDbDictionary
281
1
  0
LAYOUT
  5
1A
330
D
100
AcDbPlotSettings
  1

  4
A3
  6

 40
7.5
 41
20.0
 42
7.5
 43
20.0
 44
420.0
 45
297.0
 46
0.0
 47
0.0
 48
0.0
 49
0.0
140
0.0
141
0.0
142
1.0
143
1.0
 70
1024
 72
1
 73
0
 74
5
  7

 75
16
 76
0
 77
2
 78
300
147
1.0
148
0.0
149
0.0
100
AcDbLayout
  1
Model
 70
1
 71
0
 10
0.0
 20
0.0
 11
420.0
 21
297.0
 12
0.0
 22
0.0
 32
0.0
 14
1e+20
 24
1e+20
 34
1e+20
 15
-1e+20
 25
-1e+20
 35
-1e+20
146
0.0
 13
0.0
 23
0.0
 33
0.0
 16
1.0
 26
0.0
 36
0.0
 17
0.0
 27
1.0
 37
0.0
 76
1
330
17
  0
LAYOUT
  5
1E
330
D
100
AcDbPlotSettings
  1

  4
A3
  6

 40
7.5
 41
20.0
 42
7.5
 43
20.0
 44
420.0
 45
297.0
 46
0.0
 47
0.0
 48
0.0
 49
0.0
140
0.0
141
0.0
142
1.0
143
1.0
 70
0
 72
1
 73
0
 74
5
  7

 75
16
 76
0
 77
2
 78
300
147
1.0
148
0.0
149
0.0
100
AcDbLayout
  1
Layout1
 70
1
 71
1
 10
0.0
 20
0.0
 11
420.0
 21
297.0
 12
0.0
 22
0.0
 32
0.0
 14
1e+20
 24
1e+20
 34
1e+20
 15
-1e+20
 25
-1e+20
 35
-1e+20
146
0.0
 13
0.0
 23
0.0
 33
0.0
 16
1.0
 26
0.0
 36
0.0
 17
0.0
 27
1.0
 37
0.0
 76
1
330
1B
  0
MATERIAL
  5
1F
102
{ACAD_REACTORS
330
E
102
}
330
E
100
AcDbMaterial
  1
ByBlock
  2

 70
0
 40
1.0
 71
1
 41
1.0
 91
-1023410177
 42
1.0
 72
1
  3

 73
1
 74
1
 75
1
 44
0.5
 73
0
 45
1.0
 46
1.0
 77
1
  4

 78
1
 79
1
170
1
 48
1.0
171
1
  6

172
1
173
1
174
1
140
1.0
141
1.0
175
1
  7

176
1
177
1
178
1
143
1.0
179
1
  8

270
1
271
1
272
1
145
1.0
146
1.0
273
1
  9

274
1
275
1
276
1
 42
1.0
 72
1
  3

 73
1
 74
1
 75
1
 94
63
  0
MATERIAL
  5
20
102
{ACAD_REACTORS
330
E
102
}
330
E
100
AcDbMaterial
  1
ByLayer
  2

 70
0
 40
1.0
 71
1
 41
1.0
 91
-1023410177
 42
1.0
 72
1
  3

 73
1
 74
1
 75
1
 44
0.5
 73
0
 45
1.0
 46
1.0
 77
1
  4

 78
1
 79
1
170
1
 48
1.0
171
1
  6

172
1
173
1
174
1
140
1.0
141
1.0
175
1
  7

176
1
177
1
178
1
143
1.0
179
1
  8

270
1
271
1
272
1
145
1.0
146
1.0
273
1
  9

274
1
275
1
276
1
 42
1.0
 72
1
  3

 73
1
 74
1
 75
1
 94
63
  0
MATERIAL
  5
21
102
{ACAD_REACTORS
330
E
102
}
330
E
100
AcDbMaterial
  1
Global
  2

 70
0
 40
1.0
 71
1
 41
1.0
 91
-1023410177
 42
1.0
 72
1
  3

 73
1
 74
1
 75
1
 44
0.5
 73
0
 45
1.0
 46
1.0
 77
1
  4

 78
1
 79
1
170
1
 48
1.0
171
1
  6

172
1
173
1
174
1
140
1.0
141
1.0
175
1
  7

176
1
177
1
178
1
143
1.0
179
1
  8

270
1
271
1
272
1
145
1.0
146
1.0
273
1
  9

274
1
275
1
276
1
 42
1.0
 72
1
  3

 73
1
 74
1
 75
1
 94
63
  0
MLINESTYLE
  5
22
102
{ACAD_REACTORS
330
10
102
}
330
10
100
AcDbMlineStyle
  2
Standard
 70
0
  3

 62
256
 51
90.0
 52
90.0
 71
2
 49
0.5
 62
256
  6
BYLAYER
 49
-0.5
 62
256
  6
BYLAYER
  0
MLEADERSTYLE
  5
2C
102
{ACAD_REACTORS
330
F
102
}
330
F
100
AcDbMLeaderStyle
179
2
170
2
171
1
172
0
 90
2
 40
0.0
 41
0.0
173
1
 91
-1056964608
 92
-2
290
1
 42
2.0
291
1
 43
8.0
  3
Standard
 44
4.0
300

342
29
174
1
175
1
176
0
178
1
 93
-1056964608
 45
4.0
292
0
297
0
 46
4.0
 94
-1056964608
 47
1.0
 49
1.0
140
1.0
294
1
141
0.0
177
0
142
1.0
295
0
296
0
143
3.75
271
0
272
9
273
9
  0
DICTIONARY
  5
2D
330
A
100
AcDbDictionary
280
1
281
1
  3
CREATED_BY_EZDXF
350
2E
  3
WRITTEN_BY_EZDXF
350
40
  0
DICTIONARYVAR
  5
2E
330
2D
100
DictionaryVariables
280
0
  1
1.4.3 @ 2026-04-12T00:41:30.614376+00:00
  0
DICTIONARYVAR
  5
40
330
2D
100
DictionaryVariables
280
0
  1
1.4.3 @ 2026-04-12T00:41:30.616143+00:00
  0
ENDSEC
  0
EOF
