  0
SECTION
  2
HEADER
  9
$ACADVER
  1
AC1024
  9
$ACADMAINTVER
 70
6
  9
$DWGCODEPAGE
  3
ANSI_1252
  9
$LASTSAVEDBY
  1
ezdxf
  9
$INSBASE
 10
0.0
 20
0.0
 30
0.0
  9
$EXTMIN
 10
1e+20
 20
1e+20
 30
1e+20
  9
$EXTMAX
 10
-1e+20
 20
-1e+20
 30
-1e+20
  9
$LIMMIN
 10
0.0
 20
0.0
  9
$LIMMAX
 10
420.0
 20
297.0
  9
$ORTHOMODE
 70
0
  9
$REGENMODE
 70
1
  9
$FILLMODE
 70
1
  9
$QTEXTMODE
 70
0
  9
$MIRRTEXT
 70
1
  9
$LTSCALE
 40
1.0
  9
$ATTMODE
 70
1
  9
$TEXTSIZE
 40
2.5
  9
$TRACEWID
 40
1.0
  9
$TEXTSTYLE
  7
Standard
  9
$CLAYER
  8
0
  9
$CELTYPE
  6
ByLayer
  9
$CECOLOR
 62
256
  9
$CELTSCALE
 40
1.0
  9
$DISPSILH
 70
0
  9
$DIMSCALE
 40
1.0
  9
$DIMASZ
 40
2.5
  9
$DIMEXO
 40
0.625
  9
$DIMDLI
 40
3.75
  9
$DIMRND
 40
0.0
  9
$DIMDLE
 40
0.0
  9
$DIMEXE
 40
1.25
  9
$DIMTP
 40
0.0
  9
$DIMTM
 40
0.0
  9
$DIMTXT
 40
2.5
  9
$DIMCEN
 40
2.5
  9
$DIMTSZ
 40
0.0
  9
$DIMTOL
 70
0
  9
$DIMLIM
 70
0
  9
$DIMTIH
 70
0
  9
$DIMTOH
 70
0
  9
$DIMSE1
 70
0
  9
$DIMSE2
 70
0
  9
$DIMTAD
 70
1
  9
$DIMZIN
 70
8
  9
$DIMBLK
  1

  9
$DIMASO
 70
1
  9
$DIMSHO
 70
1
  9
$DIMPOST
  1

  9
$DIMAPOST
  1

  9
$DIMALT
 70
0
  9
$DIMALTD
 70
3
  9
$DIMALTF
 40
0.03937007874
  9
$DIMLFAC
 40
1.0
  9
$DIMTOFL
 70
1
  9
$DIMTVP
 40
0.0
  9
$DIMTIX
 70
0
  9
$DIMSOXD
 70
0
  9
$DIMSAH
 70
0
  9
$DIMBLK1
  1

  9
$DIMBLK2
  1

  9
$DIMSTYLE
  2
ISO-25
  9
$DIMCLRD
 70
0
  9
$DIMCLRE
 70
0
  9
$DIMCLRT
 70
0
  9
$DIMTFAC
 40
1.0
  9
$DIMGAP
 40
0.625
  9
$DIMJUST
 70
0
  9
$DIMSD1
 70
0
  9
$DIMSD2
 70
0
  9
$DIMTOLJ
 70
0
  9
$DIMTZIN
 70
8
  9
$DIMALTZ
 70
0
  9
$DIMALTTZ
 70
0
  9
$DIMUPT
 70
0
  9
$DIMDEC
 70
2
  9
$DIMTDEC
 70
2
  9
$DIMALTU
 70
2
  9
$DIMALTTD
 70
3
  9
$DIMTXSTY
  7
Standard
  9
$DIMAUNIT
 70
0
  9
$DIMADEC
 70
0
  9
$DIMALTRND
 40
0.0
  9
$DIMAZIN
 70
0
  9
$DIMDSEP
 70
44
  9
$DIMATFIT
 70
3
  9
$DIMFRAC
 70
0
  9
$DIMLDRBLK
  1

  9
$DIMLUNIT
 70
2
  9
$DIMLWD
 70
-2
  9
$DIMLWE
 70
-2
  9
$DIMTMOVE
 70
0
  9
$DIMFXL
 40
1.0
  9
$DIMFXLON
 70
0
  9
$DIMJOGANG
 40
0.785398163397
  9
$DIMTFILL
 70
0
  9
$DIMTFILLCLR
 70
0
  9
$DIMARCSYM
 70
0
  9
$DIMLTYPE
  6

  9
$DIMLTEX1
  6

  9
$DIMLTEX2
  6

  9
$DIMTXTDIRECTION
 70
0
  9
$LUNITS
 70
2
  9
$LUPREC
 70
4
  9
$SKETCHINC
 40
1.0
  9
$FILLETRAD
 40
10.0
  9
$AUNITS
 70
0
  9
$AUPREC
 70
2
  9
$MENU
  1
.
  9
$ELEVATION
 40
0.0
  9
$PELEVATION
 40
0.0
  9
$THICKNESS
 40
0.0
  9
$LIMCHECK
 70
0
  9
$CHAMFERA
 40
0.0
  9
$CHAMFERB
 40
0.0
  9
$CHAMFERC
 40
0.0
  9
$CHAMFERD
 40
0.0
  9
$SKPOLY
 70
0
  9
$TDCREATE
 40
2461142.7371412036
  9
$TDUCREATE
 40
2458532.153996898
  9
$TDUPDATE
 40
2461142.7371412036
  9
$TDUUPDATE
 40
2458532.1544311
  9
$TDINDWG
 40
0.0
  9
$TDUSRTIMER
 40
0.0
  9
$USRTIMER
 70
1
  9
$ANGBASE
 50
0.0
  9
$ANGDIR
 70
0
  9
$PDMODE
 70
0
  9
$PDSIZE
 40
0.0
  9
$PLINEWID
 40
0.0
  9
$SPLFRAME
 70
0
  9
$SPLINETYPE
 70
6
  9
$SPLINESEGS
 70
8
  9
$HANDSEED
  5
36
  9
$SURFTAB1
 70
6
  9
$SURFTAB2
 70
6
  9
$SURFTYPE
 70
6
  9
$SURFU
 70
6
  9
$SURFV
 70
6
  9
$UCSBASE
  2

  9
$UCSNAME
  2

  9
$UCSORG
 10
0.0
 20
0.0
 30
0.0
  9
$UCSXDIR
 10
1.0
 20
0.0
 30
0.0
  9
$UCSYDIR
 10
0.0
 20
1.0
 30
0.0
  9
$UCSORTHOREF
  2

  9
$UCSORTHOVIEW
 70
0
  9
$UCSORGTOP
 10
0.0
 20
0.0
 30
0.0
  9
$UCSORGBOTTOM
 10
0.0
 20
0.0
 30
0.0
  9
$UCSORGLEFT
 10
0.0
 20
0.0
 30
0.0
  9
$UCSORGRIGHT
 10
0.0
 20
0.0
 30
0.0
  9
$UCSORGFRONT
 10
0.0
 20
0.0
 30
0.0
  9
$UCSORGBACK
 10
0.0
 20
0.0
 30
0.0
  9
$PUCSBASE
  2

  9
$PUCSNAME
  2

  9
$PUCSORG
 10
0.0
 20
0.0
 30
0.0
  9
$PUCSXDIR
 10
1.0
 20
0.0
 30
0.0
  9
$PUCSYDIR
 10
0.0
 20
1.0
 30
0.0
  9
$PUCSORTHOREF
  2

  9
$PUCSORTHOVIEW
 70
0
  9
$PUCSORGTOP
 10
0.0
 20
0.0
 30
0.0
  9
$PUCSORGBOTTOM
 10
0.0
 20
0.0
 30
0.0
  9
$PUCSORGLEFT
 10
0.0
 20
0.0
 30
0.0
  9
$PUCSORGRIGHT
 10
0.0
 20
0.0
 30
0.0
  9
$PUCSORGFRONT
 10
0.0
 20
0.0
 30
0.0
  9
$PUCSORGBACK
 10
0.0
 20
0.0
 30
0.0
  9
$USERI1
 70
0
  9
$USERI2
 70
0
  9
$USERI3
 70
0
  9
$USERI4
 70
0
  9
$USERI5
 70
0
  9
$USERR1
 40
0.0
  9
$USERR2
 40
0.0
  9
$USERR3
 40
0.0
  9
$USERR4
 40
0.0
  9
$USERR5
 40
0.0
  9
$WORLDVIEW
 70
1
  9
$SHADEDGE
 70
3
  9
$SHADEDIF
 70
70
  9
$TILEMODE
 70
1
  9
$MAXACTVP
 70
64
  9
$PINSBASE
 10
0.0
 20
0.0
 30
0.0
  9
$PLIMCHECK
 70
0
  9
$PEXTMIN
 10
1e+20
 20
1e+20
 30
1e+20
  9
$PEXTMAX
 10
-1e+20
 20
-1e+20
 30
-1e+20
  9
$PLIMMIN
 10
0.0
 20
0.0
  9
$PLIMMAX
 10
420.0
 20
297.0
  9
$UNITMODE
 70
0
  9
$VISRETAIN
 70
1
  9
$PLINEGEN
 70
0
  9
$PSLTSCALE
 70
1
  9
$TREEDEPTH
 70
3020
  9
$CMLSTYLE
  2
Standard
  9
$CMLJUST
 70
0
  9
$CMLSCALE
 40
20.0
  9
$PROXYGRAPHICS
 70
1
  9
$MEASUREMENT
 70
1
  9
$CELWEIGHT
370
-1
  9
$ENDCAPS
280
0
  9
$JOINSTYLE
280
0
  9
$LWDISPLAY
290
0
  9
$INSUNITS
 70
4
  9
$HYPERLINKBASE
  1

  9
$STYLESHEET
  1

  9
$XEDIT
290
1
  9
$CEPSNTYPE
380
0
  9
$PSTYLEMODE
290
1
  9
$FINGERPRINTGUID
  2
{88BDA464-2A18-4E8B-86BD-BC462BFAB0F5}
  9
$VERSIONGUID
  2
{DD9B1777-5AB3-432B-88C4-CDA41F5E152E}
  9
$EXTNAMES
290
1
  9
$PSVPSCALE
 40
0.0
  9
$OLESTARTUP
290
0
  9
$SORTENTS
280
127
  9
$INDEXCTL
280
0
  9
$HIDETEXT
280
1
  9
$XCLIPFRAME
280
1
  9
$HALOGAP
280
0
  9
$OBSCOLOR
 70
257
  9
$OBSLTYPE
280
0
  9
$INTERSECTIONDISPLAY
280
0
  9
$INTERSECTIONCOLOR
 70
257
  9
$DIMASSOC
280
2
  9
$PROJECTNAME
  1

  9
$CAMERADISPLAY
290
0
  9
$LENSLENGTH
 40
50.0
  9
$CAMERAHEIGHT
 40
0.0
  9
$STEPSPERSEC
 40
24.0
  9
$STEPSIZE
 40
100.0
  9
$3DDWFPREC
 40
2.0
  9
$PSOLWIDTH
 40
0.005
  9
$PSOLHEIGHT
 40
0.08
  9
$LOFTANG1
 40
1.570796326795
  9
$LOFTANG2
 40
1.570796326795
  9
$LOFTMAG1
 40
0.0
  9
$LOFTMAG2
 40
0.0
  9
$LOFTPARAM
 70
7
  9
$LOFTNORMALS
280
1
  9
$LATITUDE
 40
37.795
  9
$LONGITUDE
 40
-122.394
  9
$NORTHDIRECTION
 40
0.0
  9
$TIMEZONE
 70
-8000
  9
$LIGHTGLYPHDISPLAY
280
1
  9
$TILEMODELIGHTSYNCH
280
1
  9
$CMATERIAL
347
20
  9
$SOLIDHIST
280
0
  9
$SHOWHIST
280
1
  9
$DWFFRAME
280
2
  9
$DGNFRAME
280
2
  9
$REALWORLDSCALE
290
1
  9
$INTERFERECOLOR
 62
256
  9
$CSHADOW
280
0
  9
$SHADOWPLANELOCATION
 40
0.0
  0
ENDSEC
  0
SECTION
  2
CLASSES
  0
CLASS
  1
ACDBDICTIONARYWDFLT
  2
AcDbDictionaryWithDefault
  3
ObjectDBX Classes
 90
0
 91
0
280
0
281
0
  0
CLASS
  1
SUN
  2
AcDbSun
  3
SCENEOE
 90
1153
 91
0
280
0
281
0
  0
CLASS
  1
VISUALSTYLE
  2
AcDbVisualStyle
  3
ObjectDBX Classes
 90
4095
 91
0
280
0
281
0
  0
CLASS
  1
MATERIAL
  2
AcDbMaterial
  3
ObjectDBX Classes
 90
1153
 91
0
280
0
281
0
  0
CLASS
  1
SCALE
  2
AcDbScale
  3
ObjectDBX Classes
 90
1153
 91
0
280
0
281
0
  0
CLASS
  1
TABLESTYLE
  2
AcDbTableStyle
  3
ObjectDBX Classes
 90
4095
 91
0
280
0
281
0
  0
CLASS
  1
MLEADERSTYLE
  2
AcDbMLeaderStyle
  3
ACDB_MLEADERSTYLE_CLASS
 90
4095
 91
0
280
0
281
0
  0
CLASS
  1
DICTIONARYVAR
  2
AcDbDictionaryVar
  3
ObjectDBX Classes
 90
0
 91
0
280
0
281
0
  0
CLASS
  1
CELLSTYLEMAP
  2
AcDbCellStyleMap
  3
ObjectDBX Classes
 90
1152
 91
0
280
0
281
0
  0
CLASS
  1
MENTALRAYRENDERSETTINGS
  2
AcDbMentalRayRenderSettings
  3
SCENEOE
 90
1024
 91
0
280
0
281
0
  0
CLASS
  1
ACDBDETAILVIEWSTYLE
  2
AcDbDetailViewStyle
  3
ObjectDBX Classes
 90
1025
 91
0
280
0
281
0
  0
CLASS
  1
ACDBSECTIONVIEWSTYLE
  2
AcDbSectionViewStyle
  3
ObjectDBX Classes
 90
1025
 91
0
280
0
281
0
  0
CLASS
  1
RASTERVARIABLES
  2
AcDbRasterVariables
  3
ISM
 90
0
 91
0
280
0
281
0
  0
CLASS
  1
ACDBPLACEHOLDER
  2
AcDbPlaceHolder
  3
ObjectDBX Classes
 90
0
 91
0
280
0
281
0
  0
CLASS
  1
LAYOUT
  2
AcDbLayout
  3
ObjectDBX Classes
 90
0
 91
0
280
0
281
0
  0
ENDSEC
  0
SECTION
  2
TABLES
  0
TABLE
  2
VPORT
  5
8
330
0
100
AcDbSymbolTable
 70
1
  0
VPORT
  5
23
330
8
100
AcDbSymbolTableRecord
100
AcDbViewportTableRecord
  2
*Active
 70
0
 10
0.0
 20
0.0
 11
1.0
 21
1.0
 12
0.0
 22
0.0
 13
0.0
 23
0.0
 14
0.5
 24
0.5
 15
0.5
 25
0.5
 16
0.0
 26
0.0
 36
1.0
 17
0.0
 27
0.0
 37
0.0
 40
1000.0
 41
1.34
 42
50.0
 43
0.0
 44
0.0
 50
0.0
 51
0.0
 71
0
 72
1000
 73
1
 74
3
 75
0
 76
0
 77
0
 78
0
281
0
 65
0
146
0.0
  0
ENDTAB
  0
TABLE
  2
LTYPE
  5
2
330
0
100
AcDbSymbolTable
 70
3
  0
LTYPE
  5
24
330
2
100
AcDbSymbolTableRecord
100
AcDbLinetypeTableRecord
  2
ByBlock
 70
0
  3

 72
65
 73
0
 40
0.0
  0
LTYPE
  5
25
330
2
100
AcDbSymbolTableRecord
100
AcDbLinetypeTableRecord
  2
ByLayer
 70
0
  3

 72
65
 73
0
 40
0.0
  0
LTYPE
  5
26
330
2
100
AcDbSymbolTableRecord
100
AcDbLinetypeTableRecord
  2
Continuous
 70
0
  3

 72
65
 73
0
 40
0.0
  0
ENDTAB
  0
TABLE
  2
LAYER
  5
1
330
0
100
AcDbSymbolTable
 70
2
  0
LAYER
  5
27
330
1
100
AcDbSymbolTableRecord
100
AcDbLayerTableRecord
  2
0
 70
0
 62
7
  6
Continuous
370
-3
390
13
347
21
  0
LAYER
  5
28
330
1
100
AcDbSymbolTableRecord
100
AcDbLayerTableRecord
  2
Defpoints
 70
0
 62
7
  6
Continuous
290
0
370
-3
390
13
347
21
  0
ENDTAB
  0
TABLE
  2
STYLE
  5
5
330
0
100
AcDbSymbolTable
 70
1
  0
STYLE
  5
29
330
5
100
AcDbSymbolTableRecord
100
AcDbTextStyleTableRecord
  2
Standard
 70
0
 40
0.0
 41
1.0
 50
0.0
 71
0
 42
2.5
  3
txt
  4

  0
ENDTAB
  0
TABLE
  2
VIEW
  5
7
330
0
100
AcDbSymbolTable
 70
0
  0
ENDTAB
  0
TABLE
  2
UCS
  5
6
330
0
100
AcDbSymbolTable
 70
0
  0
ENDTAB
  0
TABLE
  2
APPID
  5
3
330
0
100
AcDbSymbolTable
 70
3
  0
APPID
  5
2A
330
3
100
AcDbSymbolTableRecord
100
AcDbRegAppTableRecord
  2
ACAD
 70
0
  0
APPID
  5
33
330
3
100
AcDbSymbolTableRecord
100
AcDbRegAppTableRecord
  2
HATCHBACKGROUNDCOLOR
 70
0
  0
APPID
  5
34
330
3
100
AcDbSymbolTableRecord
100
AcDbRegAppTableRecord
  2
EZDXF
 70
0
  0
ENDTAB
  0
TABLE
  2
DIMSTYLE
  5
4
330
0
100
AcDbSymbolTable
 70
1
100
AcDbDimStyleTable
  0
DIMSTYLE
105
2B
330
4
100
AcDbSymbolTableRecord
100
AcDbDimStyleTableRecord
  2
Standard
 70
0
 40
1.0
 41
2.5
 42
0.625
 43
3.75
 44
1.25
 45
0.0
 46
0.0
 47
0.0
 48
0.0
 49
2.5
140
2.5
141
2.5
142
0.0
143
0.03937007874
144
1.0
145
0.0
146
1.0
147
0.625
148
0.0
 69
0
 70
0
 71
0
 72
0
 73
0
 74
0
 75
0
 76
0
 77
1
 78
8
 79
3
170
0
171
3
172
1
173
0
174
0
175
0
176
0
177
0
178
0
179
2
271
2
272
2
273
2
274
3
275
0
276
0
277
2
278
44
279
0
280
0
281
0
282
0
283
0
284
8
285
0
286
0
288
0
289
3
290
0
371
-2
372
-2
  0
ENDTAB
  0
TABLE
  2
BLOCK_RECORD
  5
9
330
0
100
AcDbSymbolTable
 70
2
  0
BLOCK_RECORD
  5
17
330
9
100
AcDbSymbolTableRecord
100
AcDbBlockTableRecord
  2
*Model_Space
340
1A
 70
0
280
1
281
0
  0
BLOCK_RECORD
  5
1B
330
9
100
AcDbSymbolTableRecord
100
AcDbBlockTableRecord
  2
*Paper_Space
340
1E
 70
0
280
1
281
0
  0
ENDTAB
  0
ENDSEC
  0
SECTION
  2
BLOCKS
  0
BLOCK
  5
18
330
17
100
AcDbEntity
  8
0
100
AcDbBlockBegin
  2
*Model_Space
 70
0
 10
0.0
 20
0.0
 30
0.0
  3
*Model_Space
  1

  0
ENDBLK
  5
19
330
17
100
AcDbEntity
  8
0
100
AcDbBlockEnd
  0
BLOCK
  5
1C
330
1B
100
AcDbEntity
  8
0
100
AcDbBlockBegin
  2
*Paper_Space
 70
0
 10
0.0
 20
0.0
 30
0.0
  3
*Paper_Space
  1

  0
ENDBLK
  5
1D
330
1B
100
AcDbEntity
  8
0
100
AcDbBlockEnd
  0
ENDSEC
  0
SECTION
  2
ENTITIES
  0
LWPOLYLINE
  5
2F
330
17
100
AcDbEntity
  8
0
100
AcDbPolyline
 90
18
 70
1
 10
27.296110000000002
 20
-178.04612600000002
 10
27.296110000000002
 20
-194.36588
 10
20.393152000000004
 20
-194.31762
 10
20.402550000000005
 20
-179.661566
 10
20.429728000000004
 20
-179.483004
 10
20.474178000000002
 20
-179.310538
 10
20.534630000000003
 20
-179.14518400000003
 10
20.610322000000004
 20
-178.98795800000002
 10
20.700492000000004
 20
-178.83962200000002
 10
20.804124000000005
 20
-178.70119200000002
 10
20.920202000000003
 20
-178.57343000000003
 10
21.047964000000004
 20
-178.45735200000001
 10
21.186394000000004
 20
-178.35372
 10
21.334730000000004
 20
-178.26355
 10
21.491956000000005
 20
-178.187858
 10
21.657310000000003
 20
-178.127406
 10
21.829776000000006
 20
-178.08295600000002
 10
22.008338000000006
 20
-178.05577800000003
  0
LWPOLYLINE
  5
30
330
17
100
AcDbEntity
  8
0
100
AcDbPolyline
 90
20
 70
1
 10
117.94439200000002
 20
-198.37806400000002
 10
136.97432600000002
 20
-198.37806400000002
 10
136.82141800000005
 20
-200.582276
 10
136.63168000000005
 20
-201.71156000000002
 10
136.45819800000004
 20
-202.312778
 10
136.21334200000004
 20
-202.94981000000004
 10
136.05560800000003
 20
-203.27772400000003
 10
135.87018800000004
 20
-203.59268400000005
 10
135.65733600000004
 20
-203.88529200000005
 10
135.41705200000004
 20
-204.14589600000005
 10
135.28675000000004
 20
-204.26121200000003
 10
135.14959000000005
 20
-204.36509800000002
 10
135.00582600000004
 20
-204.45628400000004
 10
134.85520400000004
 20
-204.53350000000003
 10
134.69797800000003
 20
-204.59573000000003
 10
134.53389400000003
 20
-204.64145000000002
 10
134.36320600000005
 20
-204.66989800000002
 10
115.08536800000005
 20
-205.94955000000002
 10
116.72900200000004
 20
-202.33513000000002
 10
117.43080400000004
 20
-200.39177600000002
  0
LWPOLYLINE
  5
31
330
17
100
AcDbEntity
  8
0
100
AcDbPolyline
 90
150
 70
1
 10
20.428204000000026
 20
-258.93115600000004
 10
34.32352800000003
 20
-230.65054200000003
 10
36.64991400000003
 20
-224.58476800000003
 10
37.32885600000003
 20
-221.72117200000002
 10
37.713666000000025
 20
-219.04502800000006
 10
37.833046000000024
 20
-216.55227200000004
 10
37.71620600000002
 20
-214.23909400000005
 10
37.39210200000002
 20
-212.10143000000005
 10
36.889690000000016
 20
-210.13547000000005
 10
36.237926000000016
 20
-208.33689600000005
 10
35.465766000000016
 20
-206.70215200000004
 10
34.60216600000002
 20
-205.22692000000004
 10
33.67608200000002
 20
-203.90739000000002
 10
31.752286000000023
 20
-201.71968800000002
 10
29.92602600000002
 20
-200.10729600000002
 10
28.402026000000024
 20
-199.019414
 10
28.377642000000023
 20
-198.999094
 10
28.35579800000002
 20
-198.97725
 10
28.336494000000023
 20
-198.95439
 10
28.319476000000027
 20
-198.930514
 10
28.304744000000024
 20
-198.905622
 10
28.292552000000022
 20
-198.879968
 10
28.282646000000025
 20
-198.85355199999998
 10
28.27502600000002
 20
-198.82662799999997
 10
28.269438000000022
 20
-198.79944999999998
 10
28.26613600000002
 20
-198.772018
 10
28.264866000000023
 20
-198.74433199999999
 10
28.26562800000002
 20
-198.716646
 10
28.26867600000002
 20
-198.689214
 10
28.273502000000022
 20
-198.662036
 10
28.280360000000023
 20
-198.635366
 10
28.28925000000002
 20
-198.609204
 10
28.299918000000023
 20
-198.58380400000001
 10
28.312618000000022
 20
-198.559166
 10
28.327096000000022
 20
-198.53554400000002
 10
28.34335200000002
 20
-198.51293800000002
 10
28.36113200000002
 20
-198.49160200000003
 10
28.38069000000002
 20
-198.47179000000003
 10
28.40177200000002
 20
-198.45350200000001
 10
28.42463200000002
 20
-198.43673800000002
 10
28.449016000000018
 20
-198.42175200000003
 10
28.47492400000002
 20
-198.40879800000002
 10
28.50235600000002
 20
-198.39787600000002
 10
28.531058000000023
 20
-198.38924000000003
 10
28.561284000000022
 20
-198.38289000000003
 10
28.59278000000002
 20
-198.37882600000003
 10
40.30040200000002
 20
-198.37984200000002
 10
40.48252000000002
 20
-198.39838400000002
 10
40.65879600000002
 20
-198.43445200000005
 10
40.82846800000002
 20
-198.48728400000005
 10
40.99052000000002
 20
-198.55586400000004
 10
41.143936000000025
 20
-198.63917600000002
 10
41.28795400000003
 20
-198.73645800000003
 10
41.421812000000024
 20
-198.84694800000003
 10
41.54424000000002
 20
-198.969376
 10
41.65473000000002
 20
-199.10323400000001
 10
41.75201200000003
 20
-199.24725200000003
 10
41.83532400000003
 20
-199.40066800000005
 10
41.90390400000003
 20
-199.56272000000004
 10
41.95673600000003
 20
-199.73239200000006
 10
41.99280400000003
 20
-199.90866800000003
 10
42.01134600000003
 20
-200.09078600000004
 10
42.017950000000035
 20
-203.08214400000006
 10
42.05097000000003
 20
-203.40701000000004
 10
42.11523200000003
 20
-203.72146200000006
 10
42.20921200000003
 20
-204.02397600000006
 10
42.33138600000003
 20
-204.3130280000001
 10
42.47997600000003
 20
-204.58684000000008
 10
42.65371200000003
 20
-204.84388800000005
 10
42.85056200000003
 20
-205.08239400000005
 10
43.06900200000003
 20
-205.30083400000004
 10
43.307508000000034
 20
-205.49768400000005
 10
43.56455600000003
 20
-205.67116600000006
 10
43.83836800000003
 20
-205.82001000000005
 10
44.127420000000036
 20
-205.94218400000005
 10
44.42993400000003
 20
-206.03616400000004
 10
44.744386000000034
 20
-206.10042600000006
 10
45.069252000000034
 20
-206.13344600000005
 10
72.74560000000004
 20
-206.13344600000005
 10
73.07046600000004
 20
-206.10042600000006
 10
73.38491800000004
 20
-206.03616400000004
 10
73.68743200000003
 20
-205.94218400000005
 10
73.97648400000003
 20
-205.82001000000005
 10
74.25029600000002
 20
-205.67116600000006
 10
74.50734400000002
 20
-205.49768400000005
 10
74.74585000000002
 20
-205.30083400000004
 10
74.96429000000003
 20
-205.08239400000005
 10
75.16114000000002
 20
-204.84388800000005
 10
75.33487600000002
 20
-204.58684000000008
 10
75.48372000000003
 20
-204.3130280000001
 10
75.60589400000003
 20
-204.02397600000006
 10
75.69987400000004
 20
-203.72146200000006
 10
75.76413600000002
 20
-203.40701000000004
 10
75.79715600000003
 20
-203.08214400000006
 10
75.80376000000003
 20
-200.09078600000004
 10
75.82230200000002
 20
-199.90866800000003
 10
75.85837000000002
 20
-199.73239200000006
 10
75.91120200000003
 20
-199.56272000000004
 10
75.97978200000003
 20
-199.40066800000005
 10
76.06309400000002
 20
-199.24725200000003
 10
76.16037600000001
 20
-199.10323400000001
 10
76.27086600000001
 20
-198.969376
 10
76.39329400000003
 20
-198.84694800000003
 10
76.52715200000002
 20
-198.73645800000003
 10
76.67117000000002
 20
-198.63917600000002
 10
76.82458600000001
 20
-198.55586400000004
 10
76.98663800000001
 20
-198.48728400000005
 10
77.15631000000002
 20
-198.43445200000005
 10
77.33258600000002
 20
-198.39838400000002
 10
77.51470400000001
 20
-198.37984200000002
 10
104.86339200000002
 20
-198.37755600000003
 10
103.23068000000002
 20
-204.157834
 10
102.65689400000002
 20
-207.02041400000002
 10
82.45475000000002
 20
-208.76437800000002
 10
81.55838400000002
 20
-209.02269600000002
 10
80.719676
 20
-209.385916
 10
79.93532400000001
 20
-209.843624
 10
79.202026
 20
-210.38566000000003
 10
78.516226
 20
-211.00186400000004
 10
77.87487600000001
 20
-211.68207600000002
 10
76.71155600000002
 20
-213.19312200000002
 10
73.02042800000002
 20
-220.06560000000002
 10
48.53533600000002
 20
-282.69057000000004
 10
48.32705600000003
 20
-283.0804600000001
 10
48.074834000000024
 20
-283.43860000000006
 10
47.78222600000003
 20
-283.7609260000001
 10
47.45304200000003
 20
-284.0436280000001
 10
47.09083800000003
 20
-284.2828960000001
 10
46.69917000000003
 20
-284.4746660000001
 10
46.281594000000034
 20
-284.6153820000001
 10
39.78630600000003
 20
-285.49803200000014
 10
30.92602400000003
 20
-285.7723520000001
 10
14.124178000000029
 20
-284.62122400000015
 10
13.787374000000028
 20
-284.5287680000001
 10
13.46657200000003
 20
-284.4048160000001
 10
13.16304200000003
 20
-284.2511460000001
 10
12.878308000000029
 20
-284.0700440000001
 10
12.614148000000029
 20
-283.86328800000007
 10
12.372086000000028
 20
-283.6329100000001
 10
12.153646000000029
 20
-283.3809420000001
 10
11.960606000000029
 20
-283.10916200000014
 10
11.794236000000028
 20
-282.8196020000001
 10
11.656314000000028
 20
-282.5142940000001
 10
11.54836400000003
 20
-282.1952700000001
 10
11.47191000000003
 20
-281.86430800000005
 10
11.428476000000028
 20
-281.52344000000005
 10
11.419586000000029
 20
-281.17469800000003
 10
12.10640200000003
 20
-277.16988000000003
 10
13.49781400000003
 20
-272.485866
 10
15.385034000000031
 20
-267.986256
  0
LWPOLYLINE
  5
32
330
17
100
AcDbEntity
  8
0
100
AcDbPolyline
 90
67
 70
1
 10
185.16600000000003
 20
-178.04612600000002
 10
114.19128800000003
 20
-178.04612600000002
 10
114.16309400000003
 20
-180.95595000000003
 10
114.08003600000004
 20
-181.49951000000001
 10
113.94516200000004
 20
-182.02402000000004
 10
113.76101200000002
 20
-182.52694000000002
 10
113.53038000000002
 20
-183.00547600000004
 10
113.25631400000002
 20
-183.45683400000004
 10
112.94110000000002
 20
-183.87822000000006
 10
112.58778600000002
 20
-184.26684000000003
 10
112.19916600000003
 20
-184.62015400000004
 10
111.77778000000004
 20
-184.93536800000004
 10
111.32642200000004
 20
-185.20943400000002
 10
110.84788600000003
 20
-185.43981200000002
 10
110.34496600000003
 20
-185.62396200000003
 10
109.82045600000002
 20
-185.75883600000003
 10
109.27689600000002
 20
-185.84189400000002
 10
92.66936000000003
 20
-185.868818
 10
92.53143800000002
 20
-185.85815
 10
92.39529400000002
 20
-185.83706800000002
 10
92.26143600000003
 20
-185.805826
 10
92.13037200000002
 20
-185.764424
 10
92.00286400000002
 20
-185.713116
 10
91.87916600000001
 20
-185.652156
 10
91.76004000000002
 20
-185.581544
 10
90.09354600000002
 20
-184.414414
 10
74.27645800000002
 20
-184.398666
 10
73.97470600000003
 20
-184.352184
 10
73.68311400000002
 20
-184.27674599999997
 10
73.40346000000002
 20
-184.17387599999998
 10
73.13726800000002
 20
-184.045098
 10
72.88580800000001
 20
-183.89193600000002
 10
72.65111200000003
 20
-183.716168
 10
72.43445000000001
 20
-183.51906400000001
 10
72.23734600000002
 20
-183.30240200000003
 10
72.06157800000001
 20
-183.06770600000004
 10
71.90841600000002
 20
-182.81624600000004
 10
71.779638
 20
-182.55005400000005
 10
71.67676800000002
 20
-182.27040000000002
 10
71.60133
 20
-181.97880800000004
 10
71.554848
 20
-181.67705600000002
 10
71.54164
 20
-179.74132200000003
 10
71.56272200000001
 20
-179.49062400000005
 10
71.60412400000001
 20
-179.24602200000007
 10
71.66483000000001
 20
-179.00827800000005
 10
71.743824
 20
-178.77840800000004
 10
71.840344
 20
-178.55692000000008
 10
71.95362800000001
 20
-178.34483000000006
 10
72.15251000000002
 20
-178.04587200000006
 10
58.555382000000016
 20
-178.04587200000006
 10
58.555382000000016
 20
-194.58457400000003
 10
186.950858
 20
-194.90893200000005
 10
186.94171400000002
 20
-179.64835800000003
 10
186.91479000000004
 20
-179.47106600000004
 10
186.87084800000002
 20
-179.29987000000006
 10
186.81090400000002
 20
-179.13578600000005
 10
186.73572000000001
 20
-178.97983000000005
 10
186.64631200000002
 20
-178.83276400000005
 10
186.54344200000003
 20
-178.69535000000005
 10
186.42812600000005
 20
-178.56860400000005
 10
186.30138000000005
 20
-178.45328800000007
 10
186.16396600000002
 20
-178.35041800000008
 10
186.01690000000005
 20
-178.26101000000008
 10
185.86094400000002
 20
-178.18582600000005
 10
185.69686000000004
 20
-178.12588200000008
 10
185.52591800000005
 20
-178.08194000000006
 10
185.34862600000005
 20
-178.05476200000007
  0
ENDSEC
  0
SECTION
  2
OBJECTS
  0
DICTIONARY
  5
A
330
0
100
AcDbDictionary
281
1
  3
ACAD_COLOR
350
B
  3
ACAD_GROUP
350
C
  3
ACAD_LAYOUT
350
D
  3
ACAD_MATERIAL
350
E
  3
ACAD_MLEADERSTYLE
350
F
  3
ACAD_MLINESTYLE
350
10
  3
ACAD_PLOTSETTINGS
350
11
  3
ACAD_PLOTSTYLENAME
350
12
  3
ACAD_SCALELIST
350
14
  3
ACAD_TABLESTYLE
350
15
  3
ACAD_VISUALSTYLE
350
16
  3
EZDXF_META
350
2D
  0
DICTIONARY
  5
B
330
A
100
AcDbDictionary
281
1
  0
DICTIONARY
  5
C
330
A
100
AcDbDictionary
281
1
  0
DICTIONARY
  5
D
330
A
100
AcDbDictionary
281
1
  3
Model
350
1A
  3
Layout1
350
1E
  0
DICTIONARY
  5
E
330
A
100
AcDbDictionary
281
1
  3
ByBlock
350
1F
  3
ByLayer
350
20
  3
Global
350
21
  0
DICTIONARY
  5
F
330
A
100
AcDbDictionary
281
1
  3
Standard
350
2C
  0
DICTIONARY
  5
10
330
A
100
AcDbDictionary
281
1
  3
Standard
350
22
  0
DICTIONARY
  5
11
330
A
100
AcDbDictionary
281
1
  0
ACDBDICTIONARYWDFLT
  5
12
330
A
100
AcDbDictionary
281
1
  3
Normal
350
13
100
AcDbDictionaryWithDefault
340
13
  0
ACDBPLACEHOLDER
  5
13
330
12
  0
DICTIONARY
  5
14
330
A
100
AcDbDictionary
281
1
  0
DICTIONARY
  5
15
330
A
100
AcDbDictionary
281
1
  0
DICTIONARY
  5
16
330
A
100
AcDbDictionary
281
1
  0
LAYOUT
  5
1A
330
D
100
AcDbPlotSettings
  1

  4
A3
  6

 40
7.5
 41
20.0
 42
7.5
 43
20.0
 44
420.0
 45
297.0
 46
0.0
 47
0.0
 48
0.0
 49
0.0
140
0.0
141
0.0
142
1.0
143
1.0
 70
1024
 72
1
 73
0
 74
5
  7

 75
16
 76
0
 77
2
 78
300
147
1.0
148
0.0
149
0.0
100
AcDbLayout
  1
Model
 70
1
 71
0
 10
0.0
 20
0.0
 11
420.0
 21
297.0
 12
0.0
 22
0.0
 32
0.0
 14
1e+20
 24
1e+20
 34
1e+20
 15
-1e+20
 25
-1e+20
 35
-1e+20
146
0.0
 13
0.0
 23
0.0
 33
0.0
 16
1.0
 26
0.0
 36
0.0
 17
0.0
 27
1.0
 37
0.0
 76
1
330
17
  0
LAYOUT
  5
1E
330
D
100
AcDbPlotSettings
  1

  4
A3
  6

 40
7.5
 41
20.0
 42
7.5
 43
20.0
 44
420.0
 45
297.0
 46
0.0
 47
0.0
 48
0.0
 49
0.0
140
0.0
141
0.0
142
1.0
143
1.0
 70
0
 72
1
 73
0
 74
5
  7

 75
16
 76
0
 77
2
 78
300
147
1.0
148
0.0
149
0.0
100
AcDbLayout
  1
Layout1
 70
1
 71
1
 10
0.0
 20
0.0
 11
420.0
 21
297.0
 12
0.0
 22
0.0
 32
0.0
 14
1e+20
 24
1e+20
 34
1e+20
 15
-1e+20
 25
-1e+20
 35
-1e+20
146
0.0
 13
0.0
 23
0.0
 33
0.0
 16
1.0
 26
0.0
 36
0.0
 17
0.0
 27
1.0
 37
0.0
 76
1
330
1B
  0
MATERIAL
  5
1F
102
{ACAD_REACTORS
330
E
102
}
330
E
100
AcDbMaterial
  1
ByBlock
  2

 70
0
 40
1.0
 71
1
 41
1.0
 91
-1023410177
 42
1.0
 72
1
  3

 73
1
 74
1
 75
1
 44
0.5
 73
0
 45
1.0
 46
1.0
 77
1
  4

 78
1
 79
1
170
1
 48
1.0
171
1
  6

172
1
173
1
174
1
140
1.0
141
1.0
175
1
  7

176
1
177
1
178
1
143
1.0
179
1
  8

270
1
271
1
272
1
145
1.0
146
1.0
273
1
  9

274
1
275
1
276
1
 42
1.0
 72
1
  3

 73
1
 74
1
 75
1
 94
63
  0
MATERIAL
  5
20
102
{ACAD_REACTORS
330
E
102
}
330
E
100
AcDbMaterial
  1
ByLayer
  2

 70
0
 40
1.0
 71
1
 41
1.0
 91
-1023410177
 42
1.0
 72
1
  3

 73
1
 74
1
 75
1
 44
0.5
 73
0
 45
1.0
 46
1.0
 77
1
  4

 78
1
 79
1
170
1
 48
1.0
171
1
  6

172
1
173
1
174
1
140
1.0
141
1.0
175
1
  7

176
1
177
1
178
1
143
1.0
179
1
  8

270
1
271
1
272
1
145
1.0
146
1.0
273
1
  9

274
1
275
1
276
1
 42
1.0
 72
1
  3

 73
1
 74
1
 75
1
 94
63
  0
MATERIAL
  5
21
102
{ACAD_REACTORS
330
E
102
}
330
E
100
AcDbMaterial
  1
Global
  2

 70
0
 40
1.0
 71
1
 41
1.0
 91
-1023410177
 42
1.0
 72
1
  3

 73
1
 74
1
 75
1
 44
0.5
 73
0
 45
1.0
 46
1.0
 77
1
  4

 78
1
 79
1
170
1
 48
1.0
171
1
  6

172
1
173
1
174
1
140
1.0
141
1.0
175
1
  7

176
1
177
1
178
1
143
1.0
179
1
  8

270
1
271
1
272
1
145
1.0
146
1.0
273
1
  9

274
1
275
1
276
1
 42
1.0
 72
1
  3

 73
1
 74
1
 75
1
 94
63
  0
MLINESTYLE
  5
22
102
{ACAD_REACTORS
330
10
102
}
330
10
100
AcDbMlineStyle
  2
Standard
 70
0
  3

 62
256
 51
90.0
 52
90.0
 71
2
 49
0.5
 62
256
  6
BYLAYER
 49
-0.5
 62
256
  6
BYLAYER
  0
MLEADERSTYLE
  5
2C
102
{ACAD_REACTORS
330
F
102
}
330
F
100
AcDbMLeaderStyle
179
2
170
2
171
1
172
0
 90
2
 40
0.0
 41
0.0
173
1
 91
-1056964608
 92
-2
290
1
 42
2.0
291
1
 43
8.0
  3
Standard
 44
4.0
300

342
29
174
1
175
1
176
0
178
1
 93
-1056964608
 45
4.0
292
0
297
0
 46
4.0
 94
-1056964608
 47
1.0
 49
1.0
140
1.0
294
1
141
0.0
177
0
142
1.0
295
0
296
0
143
3.75
271
0
272
9
273
9
  0
DICTIONARY
  5
2D
330
A
100
AcDbDictionary
280
1
281
1
  3
CREATED_BY_EZDXF
350
2E
  3
WRITTEN_BY_EZDXF
350
35
  0
DICTIONARYVAR
  5
2E
330
2D
100
DictionaryVariables
280
0
  1
1.4.3 @ 2026-04-12T00:41:29.374685+00:00
  0
DICTIONARYVAR
  5
35
330
2D
100
DictionaryVariables
280
0
  1
1.4.3 @ 2026-04-12T00:41:29.375683+00:00
  0
ENDSEC
  0
EOF
