  0
SECTION
  2
HEADER
  9
$ACADVER
  1
AC1024
  9
$ACADMAINTVER
 70
6
  9
$DWGCODEPAGE
  3
ANSI_1252
  9
$LASTSAVEDBY
  1
ezdxf
  9
$INSBASE
 10
0.0
 20
0.0
 30
0.0
  9
$EXTMIN
 10
1e+20
 20
1e+20
 30
1e+20
  9
$EXTMAX
 10
-1e+20
 20
-1e+20
 30
-1e+20
  9
$LIMMIN
 10
0.0
 20
0.0
  9
$LIMMAX
 10
420.0
 20
297.0
  9
$ORTHOMODE
 70
0
  9
$REGENMODE
 70
1
  9
$FILLMODE
 70
1
  9
$QTEXTMODE
 70
0
  9
$MIRRTEXT
 70
1
  9
$LTSCALE
 40
1.0
  9
$ATTMODE
 70
1
  9
$TEXTSIZE
 40
2.5
  9
$TRACEWID
 40
1.0
  9
$TEXTSTYLE
  7
Standard
  9
$CLAYER
  8
0
  9
$CELTYPE
  6
ByLayer
  9
$CECOLOR
 62
256
  9
$CELTSCALE
 40
1.0
  9
$DISPSILH
 70
0
  9
$DIMSCALE
 40
1.0
  9
$DIMASZ
 40
2.5
  9
$DIMEXO
 40
0.625
  9
$DIMDLI
 40
3.75
  9
$DIMRND
 40
0.0
  9
$DIMDLE
 40
0.0
  9
$DIMEXE
 40
1.25
  9
$DIMTP
 40
0.0
  9
$DIMTM
 40
0.0
  9
$DIMTXT
 40
2.5
  9
$DIMCEN
 40
2.5
  9
$DIMTSZ
 40
0.0
  9
$DIMTOL
 70
0
  9
$DIMLIM
 70
0
  9
$DIMTIH
 70
0
  9
$DIMTOH
 70
0
  9
$DIMSE1
 70
0
  9
$DIMSE2
 70
0
  9
$DIMTAD
 70
1
  9
$DIMZIN
 70
8
  9
$DIMBLK
  1

  9
$DIMASO
 70
1
  9
$DIMSHO
 70
1
  9
$DIMPOST
  1

  9
$DIMAPOST
  1

  9
$DIMALT
 70
0
  9
$DIMALTD
 70
3
  9
$DIMALTF
 40
0.03937007874
  9
$DIMLFAC
 40
1.0
  9
$DIMTOFL
 70
1
  9
$DIMTVP
 40
0.0
  9
$DIMTIX
 70
0
  9
$DIMSOXD
 70
0
  9
$DIMSAH
 70
0
  9
$DIMBLK1
  1

  9
$DIMBLK2
  1

  9
$DIMSTYLE
  2
ISO-25
  9
$DIMCLRD
 70
0
  9
$DIMCLRE
 70
0
  9
$DIMCLRT
 70
0
  9
$DIMTFAC
 40
1.0
  9
$DIMGAP
 40
0.625
  9
$DIMJUST
 70
0
  9
$DIMSD1
 70
0
  9
$DIMSD2
 70
0
  9
$DIMTOLJ
 70
0
  9
$DIMTZIN
 70
8
  9
$DIMALTZ
 70
0
  9
$DIMALTTZ
 70
0
  9
$DIMUPT
 70
0
  9
$DIMDEC
 70
2
  9
$DIMTDEC
 70
2
  9
$DIMALTU
 70
2
  9
$DIMALTTD
 70
3
  9
$DIMTXSTY
  7
Standard
  9
$DIMAUNIT
 70
0
  9
$DIMADEC
 70
0
  9
$DIMALTRND
 40
0.0
  9
$DIMAZIN
 70
0
  9
$DIMDSEP
 70
44
  9
$DIMATFIT
 70
3
  9
$DIMFRAC
 70
0
  9
$DIMLDRBLK
  1

  9
$DIMLUNIT
 70
2
  9
$DIMLWD
 70
-2
  9
$DIMLWE
 70
-2
  9
$DIMTMOVE
 70
0
  9
$DIMFXL
 40
1.0
  9
$DIMFXLON
 70
0
  9
$DIMJOGANG
 40
0.785398163397
  9
$DIMTFILL
 70
0
  9
$DIMTFILLCLR
 70
0
  9
$DIMARCSYM
 70
0
  9
$DIMLTYPE
  6

  9
$DIMLTEX1
  6

  9
$DIMLTEX2
  6

  9
$DIMTXTDIRECTION
 70
0
  9
$LUNITS
 70
2
  9
$LUPREC
 70
4
  9
$SKETCHINC
 40
1.0
  9
$FILLETRAD
 40
10.0
  9
$AUNITS
 70
0
  9
$AUPREC
 70
2
  9
$MENU
  1
.
  9
$ELEVATION
 40
0.0
  9
$PELEVATION
 40
0.0
  9
$THICKNESS
 40
0.0
  9
$LIMCHECK
 70
0
  9
$CHAMFERA
 40
0.0
  9
$CHAMFERB
 40
0.0
  9
$CHAMFERC
 40
0.0
  9
$CHAMFERD
 40
0.0
  9
$SKPOLY
 70
0
  9
$TDCREATE
 40
2461140.590138889
  9
$TDUCREATE
 40
2458532.153996898
  9
$TDUPDATE
 40
2461140.590138889
  9
$TDUUPDATE
 40
2458532.1544311
  9
$TDINDWG
 40
0.0
  9
$TDUSRTIMER
 40
0.0
  9
$USRTIMER
 70
1
  9
$ANGBASE
 50
0.0
  9
$ANGDIR
 70
0
  9
$PDMODE
 70
0
  9
$PDSIZE
 40
0.0
  9
$PLINEWID
 40
0.0
  9
$SPLFRAME
 70
0
  9
$SPLINETYPE
 70
6
  9
$SPLINESEGS
 70
8
  9
$HANDSEED
  5
40
  9
$SURFTAB1
 70
6
  9
$SURFTAB2
 70
6
  9
$SURFTYPE
 70
6
  9
$SURFU
 70
6
  9
$SURFV
 70
6
  9
$UCSBASE
  2

  9
$UCSNAME
  2

  9
$UCSORG
 10
0.0
 20
0.0
 30
0.0
  9
$UCSXDIR
 10
1.0
 20
0.0
 30
0.0
  9
$UCSYDIR
 10
0.0
 20
1.0
 30
0.0
  9
$UCSORTHOREF
  2

  9
$UCSORTHOVIEW
 70
0
  9
$UCSORGTOP
 10
0.0
 20
0.0
 30
0.0
  9
$UCSORGBOTTOM
 10
0.0
 20
0.0
 30
0.0
  9
$UCSORGLEFT
 10
0.0
 20
0.0
 30
0.0
  9
$UCSORGRIGHT
 10
0.0
 20
0.0
 30
0.0
  9
$UCSORGFRONT
 10
0.0
 20
0.0
 30
0.0
  9
$UCSORGBACK
 10
0.0
 20
0.0
 30
0.0
  9
$PUCSBASE
  2

  9
$PUCSNAME
  2

  9
$PUCSORG
 10
0.0
 20
0.0
 30
0.0
  9
$PUCSXDIR
 10
1.0
 20
0.0
 30
0.0
  9
$PUCSYDIR
 10
0.0
 20
1.0
 30
0.0
  9
$PUCSORTHOREF
  2

  9
$PUCSORTHOVIEW
 70
0
  9
$PUCSORGTOP
 10
0.0
 20
0.0
 30
0.0
  9
$PUCSORGBOTTOM
 10
0.0
 20
0.0
 30
0.0
  9
$PUCSORGLEFT
 10
0.0
 20
0.0
 30
0.0
  9
$PUCSORGRIGHT
 10
0.0
 20
0.0
 30
0.0
  9
$PUCSORGFRONT
 10
0.0
 20
0.0
 30
0.0
  9
$PUCSORGBACK
 10
0.0
 20
0.0
 30
0.0
  9
$USERI1
 70
0
  9
$USERI2
 70
0
  9
$USERI3
 70
0
  9
$USERI4
 70
0
  9
$USERI5
 70
0
  9
$USERR1
 40
0.0
  9
$USERR2
 40
0.0
  9
$USERR3
 40
0.0
  9
$USERR4
 40
0.0
  9
$USERR5
 40
0.0
  9
$WORLDVIEW
 70
1
  9
$SHADEDGE
 70
3
  9
$SHADEDIF
 70
70
  9
$TILEMODE
 70
1
  9
$MAXACTVP
 70
64
  9
$PINSBASE
 10
0.0
 20
0.0
 30
0.0
  9
$PLIMCHECK
 70
0
  9
$PEXTMIN
 10
1e+20
 20
1e+20
 30
1e+20
  9
$PEXTMAX
 10
-1e+20
 20
-1e+20
 30
-1e+20
  9
$PLIMMIN
 10
0.0
 20
0.0
  9
$PLIMMAX
 10
420.0
 20
297.0
  9
$UNITMODE
 70
0
  9
$VISRETAIN
 70
1
  9
$PLINEGEN
 70
0
  9
$PSLTSCALE
 70
1
  9
$TREEDEPTH
 70
3020
  9
$CMLSTYLE
  2
Standard
  9
$CMLJUST
 70
0
  9
$CMLSCALE
 40
20.0
  9
$PROXYGRAPHICS
 70
1
  9
$MEASUREMENT
 70
1
  9
$CELWEIGHT
370
-1
  9
$ENDCAPS
280
0
  9
$JOINSTYLE
280
0
  9
$LWDISPLAY
290
0
  9
$INSUNITS
 70
6
  9
$HYPERLINKBASE
  1

  9
$STYLESHEET
  1

  9
$XEDIT
290
1
  9
$CEPSNTYPE
380
0
  9
$PSTYLEMODE
290
1
  9
$FINGERPRINTGUID
  2
{FEC54B85-D6F7-445E-95A5-A8904651D150}
  9
$VERSIONGUID
  2
{35584D8A-9CC7-4474-BD51-25399BD3E9C5}
  9
$EXTNAMES
290
1
  9
$PSVPSCALE
 40
0.0
  9
$OLESTARTUP
290
0
  9
$SORTENTS
280
127
  9
$INDEXCTL
280
0
  9
$HIDETEXT
280
1
  9
$XCLIPFRAME
280
1
  9
$HALOGAP
280
0
  9
$OBSCOLOR
 70
257
  9
$OBSLTYPE
280
0
  9
$INTERSECTIONDISPLAY
280
0
  9
$INTERSECTIONCOLOR
 70
257
  9
$DIMASSOC
280
2
  9
$PROJECTNAME
  1

  9
$CAMERADISPLAY
290
0
  9
$LENSLENGTH
 40
50.0
  9
$CAMERAHEIGHT
 40
0.0
  9
$STEPSPERSEC
 40
24.0
  9
$STEPSIZE
 40
100.0
  9
$3DDWFPREC
 40
2.0
  9
$PSOLWIDTH
 40
0.005
  9
$PSOLHEIGHT
 40
0.08
  9
$LOFTANG1
 40
1.570796326795
  9
$LOFTANG2
 40
1.570796326795
  9
$LOFTMAG1
 40
0.0
  9
$LOFTMAG2
 40
0.0
  9
$LOFTPARAM
 70
7
  9
$LOFTNORMALS
280
1
  9
$LATITUDE
 40
37.795
  9
$LONGITUDE
 40
-122.394
  9
$NORTHDIRECTION
 40
0.0
  9
$TIMEZONE
 70
-8000
  9
$LIGHTGLYPHDISPLAY
280
1
  9
$TILEMODELIGHTSYNCH
280
1
  9
$CMATERIAL
347
20
  9
$SOLIDHIST
280
0
  9
$SHOWHIST
280
1
  9
$DWFFRAME
280
2
  9
$DGNFRAME
280
2
  9
$REALWORLDSCALE
290
1
  9
$INTERFERECOLOR
 62
256
  9
$CSHADOW
280
0
  9
$SHADOWPLANELOCATION
 40
0.0
  0
ENDSEC
  0
SECTION
  2
CLASSES
  0
CLASS
  1
ACDBDICTIONARYWDFLT
  2
AcDbDictionaryWithDefault
  3
ObjectDBX Classes
 90
0
 91
0
280
0
281
0
  0
CLASS
  1
SUN
  2
AcDbSun
  3
SCENEOE
 90
1153
 91
0
280
0
281
0
  0
CLASS
  1
VISUALSTYLE
  2
AcDbVisualStyle
  3
ObjectDBX Classes
 90
4095
 91
0
280
0
281
0
  0
CLASS
  1
MATERIAL
  2
AcDbMaterial
  3
ObjectDBX Classes
 90
1153
 91
0
280
0
281
0
  0
CLASS
  1
SCALE
  2
AcDbScale
  3
ObjectDBX Classes
 90
1153
 91
0
280
0
281
0
  0
CLASS
  1
TABLESTYLE
  2
AcDbTableStyle
  3
ObjectDBX Classes
 90
4095
 91
0
280
0
281
0
  0
CLASS
  1
MLEADERSTYLE
  2
AcDbMLeaderStyle
  3
ACDB_MLEADERSTYLE_CLASS
 90
4095
 91
0
280
0
281
0
  0
CLASS
  1
DICTIONARYVAR
  2
AcDbDictionaryVar
  3
ObjectDBX Classes
 90
0
 91
0
280
0
281
0
  0
CLASS
  1
CELLSTYLEMAP
  2
AcDbCellStyleMap
  3
ObjectDBX Classes
 90
1152
 91
0
280
0
281
0
  0
CLASS
  1
MENTALRAYRENDERSETTINGS
  2
AcDbMentalRayRenderSettings
  3
SCENEOE
 90
1024
 91
0
280
0
281
0
  0
CLASS
  1
ACDBDETAILVIEWSTYLE
  2
AcDbDetailViewStyle
  3
ObjectDBX Classes
 90
1025
 91
0
280
0
281
0
  0
CLASS
  1
ACDBSECTIONVIEWSTYLE
  2
AcDbSectionViewStyle
  3
ObjectDBX Classes
 90
1025
 91
0
280
0
281
0
  0
CLASS
  1
RASTERVARIABLES
  2
AcDbRasterVariables
  3
ISM
 90
0
 91
0
280
0
281
0
  0
CLASS
  1
LAYOUT
  2
AcDbLayout
  3
ObjectDBX Classes
 90
0
 91
0
280
0
281
0
  0
CLASS
  1
ACDBPLACEHOLDER
  2
AcDbPlaceHolder
  3
ObjectDBX Classes
 90
0
 91
0
280
0
281
0
  0
ENDSEC
  0
SECTION
  2
TABLES
  0
TABLE
  2
VPORT
  5
8
330
0
100
AcDbSymbolTable
 70
1
  0
VPORT
  5
23
330
8
100
AcDbSymbolTableRecord
100
AcDbViewportTableRecord
  2
*Active
 70
0
 10
0.0
 20
0.0
 11
1.0
 21
1.0
 12
0.0
 22
0.0
 13
0.0
 23
0.0
 14
0.5
 24
0.5
 15
0.5
 25
0.5
 16
0.0
 26
0.0
 36
1.0
 17
0.0
 27
0.0
 37
0.0
 40
1000.0
 41
1.34
 42
50.0
 43
0.0
 44
0.0
 50
0.0
 51
0.0
 71
0
 72
1000
 73
1
 74
3
 75
0
 76
0
 77
0
 78
0
281
0
 65
0
146
0.0
  0
ENDTAB
  0
TABLE
  2
LTYPE
  5
2
330
0
100
AcDbSymbolTable
 70
3
  0
LTYPE
  5
24
330
2
100
AcDbSymbolTableRecord
100
AcDbLinetypeTableRecord
  2
ByBlock
 70
0
  3

 72
65
 73
0
 40
0.0
  0
LTYPE
  5
25
330
2
100
AcDbSymbolTableRecord
100
AcDbLinetypeTableRecord
  2
ByLayer
 70
0
  3

 72
65
 73
0
 40
0.0
  0
LTYPE
  5
26
330
2
100
AcDbSymbolTableRecord
100
AcDbLinetypeTableRecord
  2
Continuous
 70
0
  3

 72
65
 73
0
 40
0.0
  0
ENDTAB
  0
TABLE
  2
LAYER
  5
1
330
0
100
AcDbSymbolTable
 70
2
  0
LAYER
  5
27
330
1
100
AcDbSymbolTableRecord
100
AcDbLayerTableRecord
  2
0
 70
0
 62
7
  6
Continuous
370
-3
390
13
347
21
  0
LAYER
  5
28
330
1
100
AcDbSymbolTableRecord
100
AcDbLayerTableRecord
  2
Defpoints
 70
0
 62
7
  6
Continuous
290
0
370
-3
390
13
347
21
  0
ENDTAB
  0
TABLE
  2
STYLE
  5
5
330
0
100
AcDbSymbolTable
 70
1
  0
STYLE
  5
29
330
5
100
AcDbSymbolTableRecord
100
AcDbTextStyleTableRecord
  2
Standard
 70
0
 40
0.0
 41
1.0
 50
0.0
 71
0
 42
2.5
  3
txt
  4

  0
ENDTAB
  0
TABLE
  2
VIEW
  5
7
330
0
100
AcDbSymbolTable
 70
0
  0
ENDTAB
  0
TABLE
  2
UCS
  5
6
330
0
100
AcDbSymbolTable
 70
0
  0
ENDTAB
  0
TABLE
  2
APPID
  5
3
330
0
100
AcDbSymbolTable
 70
3
  0
APPID
  5
2A
330
3
100
AcDbSymbolTableRecord
100
AcDbRegAppTableRecord
  2
ACAD
 70
0
  0
APPID
  5
3D
330
3
100
AcDbSymbolTableRecord
100
AcDbRegAppTableRecord
  2
HATCHBACKGROUNDCOLOR
 70
0
  0
APPID
  5
3E
330
3
100
AcDbSymbolTableRecord
100
AcDbRegAppTableRecord
  2
EZDXF
 70
0
  0
ENDTAB
  0
TABLE
  2
DIMSTYLE
  5
4
330
0
100
AcDbSymbolTable
 70
1
100
AcDbDimStyleTable
  0
DIMSTYLE
105
2B
330
4
100
AcDbSymbolTableRecord
100
AcDbDimStyleTableRecord
  2
Standard
 70
0
 40
1.0
 41
2.5
 42
0.625
 43
3.75
 44
1.25
 45
0.0
 46
0.0
 47
0.0
 48
0.0
 49
2.5
140
2.5
141
2.5
142
0.0
143
0.03937007874
144
1.0
145
0.0
146
1.0
147
0.625
148
0.0
 69
0
 70
0
 71
0
 72
0
 73
0
 74
0
 75
0
 76
0
 77
1
 78
8
 79
3
170
0
171
3
172
1
173
0
174
0
175
0
176
0
177
0
178
0
179
2
271
2
272
2
273
2
274
3
275
0
276
0
277
2
278
44
279
0
280
0
281
0
282
0
283
0
284
8
285
0
286
0
288
0
289
3
290
0
371
-2
372
-2
  0
ENDTAB
  0
TABLE
  2
BLOCK_RECORD
  5
9
330
0
100
AcDbSymbolTable
 70
2
  0
BLOCK_RECORD
  5
17
330
9
100
AcDbSymbolTableRecord
100
AcDbBlockTableRecord
  2
*Model_Space
340
1A
 70
0
280
1
281
0
  0
BLOCK_RECORD
  5
1B
330
9
100
AcDbSymbolTableRecord
100
AcDbBlockTableRecord
  2
*Paper_Space
340
1E
 70
0
280
1
281
0
  0
ENDTAB
  0
ENDSEC
  0
SECTION
  2
BLOCKS
  0
BLOCK
  5
18
330
17
100
AcDbEntity
  8
0
100
AcDbBlockBegin
  2
*Model_Space
 70
0
 10
0.0
 20
0.0
 30
0.0
  3
*Model_Space
  1

  0
ENDBLK
  5
19
330
17
100
AcDbEntity
  8
0
100
AcDbBlockEnd
  0
BLOCK
  5
1C
330
1B
100
AcDbEntity
  8
0
100
AcDbBlockBegin
  2
*Paper_Space
 70
0
 10
0.0
 20
0.0
 30
0.0
  3
*Paper_Space
  1

  0
ENDBLK
  5
1D
330
1B
100
AcDbEntity
  8
0
100
AcDbBlockEnd
  0
ENDSEC
  0
SECTION
  2
ENTITIES
  0
LWPOLYLINE
  5
2F
330
17
100
AcDbEntity
  8
0
100
AcDbPolyline
 90
257
 70
0
 10
212.555836
 20
-84.607654
 10
212.37625799999998
 20
-84.497418
 10
212.15731
 20
-84.36864
 10
211.899246
 20
-84.22335199999999
 10
211.602828
 20
-84.06409399999998
 10
211.268564
 20
-83.89340599999998
 10
210.896962
 20
-83.71331999999998
 10
210.48827599999998
 20
-83.52637599999998
 10
210.043268
 20
-83.33485999999998
 10
209.562446
 20
-83.14105799999999
 10
209.046064
 20
-82.947256
 10
208.494884
 20
-82.755994
 10
207.90915999999999
 20
-82.569558
 10
207.289654
 20
-82.39023399999999
 10
206.63662
 20
-82.220308
 10
205.95056599999998
 20
-82.06232
 10
205.23225399999998
 20
-81.918302
 10
204.481938
 20
-81.79079399999999
 10
203.700126
 20
-81.68233599999999
 10
202.887326
 20
-81.59495999999999
 10
202.04430000000002
 20
-81.531206
 10
201.171302
 20
-81.49336
 10
200.26884
 20
-81.483708
 10
199.337422
 20
-81.50453599999999
 10
198.377556
 20
-81.55838399999999
 10
197.38975
 20
-81.64753799999998
 10
196.374512
 20
-81.774284
 10
195.33235000000002
 20
-81.940908
 10
194.26351800000003
 20
-82.14994999999999
 10
193.16877800000006
 20
-82.403696
 10
192.04863800000007
 20
-82.704432
 10
190.90360600000005
 20
-83.054444
 10
189.73393600000003
 20
-83.456018
 10
189.72199800000004
 20
-83.46059
 10
189.71006000000003
 20
-83.46541599999999
 10
189.69837600000002
 20
-83.470496
 10
189.68694600000003
 20
-83.47583
 10
189.67551600000004
 20
-83.48141799999999
 10
189.66434000000004
 20
-83.48751399999999
 10
189.65341800000004
 20
-83.49386399999999
 10
189.64249600000005
 20
-83.500468
 10
189.63182800000004
 20
-83.50732599999999
 10
189.62141400000002
 20
-83.514438
 10
189.61125400000003
 20
-83.52180399999999
 10
189.60109400000005
 20
-83.52942399999999
 10
189.59118800000005
 20
-83.53729799999999
 10
189.58153600000003
 20
-83.54542599999998
 10
189.57213800000002
 20
-83.55380799999999
 10
189.56299400000003
 20
-83.56244399999999
 10
189.55410400000005
 20
-83.571334
 10
189.54521400000004
 20
-83.58047799999999
 10
189.53657800000005
 20
-83.58987599999999
 10
189.52819600000007
 20
-83.59927399999998
 10
189.52006800000004
 20
-83.60892599999998
 10
189.51219400000005
 20
-83.61883199999998
 10
189.50457400000008
 20
-83.62899199999998
 10
189.49720800000006
 20
-83.63940599999998
 10
189.49009600000005
 20
-83.64981999999998
 10
189.48323800000006
 20
-83.66048799999997
 10
189.47663400000008
 20
-83.67140999999998
 10
189.47053800000006
 20
-83.68258599999997
 10
189.46469600000006
 20
-83.69376199999996
 10
189.45910800000004
 20
-83.70519199999997
 10
189.45377400000007
 20
-83.71687599999997
 10
189.44869400000005
 20
-83.72855999999997
 10
188.67983600000005
 20
-85.58860199999997
 10
187.91097800000003
 20
-87.44864399999996
 10
187.14212000000003
 20
-89.30868599999995
 10
186.373262
 20
-91.16872799999994
 10
185.604404
 20
-93.02876999999994
 10
184.835546
 20
-94.88881199999993
 10
184.06668799999997
 20
-96.74885399999994
 10
183.29782999999998
 20
-98.60889599999993
 10
182.52897199999995
 20
-100.46893799999992
 10
181.76011399999996
 20
-102.32897999999992
 10
180.99125599999994
 20
-104.18902199999991
 10
180.2223979999999
 20
-106.0490639999999
 10
179.45353999999992
 20
-107.9091059999999
 10
178.6846819999999
 20
-109.7691479999999
 10
177.9158239999999
 20
-111.6291899999999
 10
177.14696599999988
 20
-113.48923199999989
 10
176.37810799999986
 20
-115.34927399999988
 10
175.60924999999986
 20
-117.20931599999987
 10
174.84039199999984
 20
-119.06935799999987
 10
174.07153399999984
 20
-120.92939999999986
 10
173.30267599999982
 20
-122.78944199999985
 10
172.53381799999983
 20
-124.64948399999986
 10
171.7649599999998
 20
-126.50952599999985
 10
170.99610199999978
 20
-128.36956799999984
 10
170.22724399999979
 20
-130.22960999999984
 10
169.45838599999976
 20
-132.08965199999983
 10
168.68952799999977
 20
-133.94969399999982
 10
167.92066999999975
 20
-135.80973599999982
 10
167.15181199999972
 20
-137.6697779999998
 10
166.38295399999973
 20
-139.5298199999998
 10
165.6140959999997
 20
-141.3898619999998
 10
164.8452379999997
 20
-143.2499039999998
 10
164.8353319999997
 20
-143.2763199999998
 10
164.8269499999997
 20
-143.3027359999998
 10
164.8200919999997
 20
-143.32940599999984
 10
164.8147579999997
 20
-143.35607599999983
 10
164.8109479999997
 20
-143.38274599999983
 10
164.8086619999997
 20
-143.40941599999985
 10
164.80789999999968
 20
-143.43583199999986
 10
164.8086619999997
 20
-143.46199399999983
 10
164.8106939999997
 20
-143.48815599999983
 10
164.8142499999997
 20
-143.51406399999982
 10
164.8190759999997
 20
-143.53946399999984
 10
164.8254259999997
 20
-143.56460999999985
 10
164.8330459999997
 20
-143.58924799999983
 10
164.8419359999997
 20
-143.61337799999984
 10
164.85209599999968
 20
-143.63699999999983
 10
164.86352599999967
 20
-143.66011399999982
 10
164.87597199999968
 20
-143.68246599999983
 10
164.88968799999967
 20
-143.70430999999982
 10
164.90467399999966
 20
-143.72539199999983
 10
164.92067599999965
 20
-143.74571199999983
 10
164.93769399999965
 20
-143.76501599999983
 10
164.95598199999966
 20
-143.78355799999983
 10
164.97528599999967
 20
-143.8010839999998
 10
164.99560599999967
 20
-143.81759399999984
 10
165.01694199999966
 20
-143.83308799999983
 10
165.03903999999966
 20
-143.84731199999985
 10
165.06215399999965
 20
-143.86051999999987
 10
165.08628399999967
 20
-143.87245799999985
 10
165.11117599999966
 20
-143.88312599999986
 10
165.13682999999966
 20
-143.89252399999987
 10
165.16349999999966
 20
-143.90039799999985
 10
165.19093199999963
 20
-143.90700199999986
 10
165.47236399999963
 20
-143.96491399999985
 10
165.80688199999963
 20
-144.03298599999985
 10
166.1932159999996
 20
-144.11045599999983
 10
166.6293339999996
 20
-144.19656199999986
 10
167.1139659999996
 20
-144.29079599999986
 10
167.6455879999996
 20
-144.39264999999983
 10
168.2224219999996
 20
-144.50136199999983
 10
168.8429439999996
 20
-144.61642399999982
 10
169.5056299999996
 20
-144.73707399999984
 10
170.2089559999996
 20
-144.86280399999984
 10
170.9513979999996
 20
-144.99285199999983
 10
171.73117799999963
 20
-145.12670999999983
 10
172.54677199999963
 20
-145.26361599999981
 10
173.39665599999964
 20
-145.40306199999984
 10
174.27930599999962
 20
-145.54428599999983
 10
175.19319799999963
 20
-145.68677999999983
 10
176.13655399999962
 20
-145.83003599999984
 10
177.10784999999962
 20
-145.97303799999983
 10
178.1058159999996
 20
-146.11553199999983
 10
179.1284199999996
 20
-146.25675599999985
 10
180.1743919999996
 20
-146.39594799999986
 10
181.2422079999996
 20
-146.53259999999986
 10
182.33008999999961
 20
-146.66620399999985
 10
183.43651399999962
 20
-146.79599799999983
 10
184.5599559999996
 20
-146.92121999999983
 10
185.6988919999996
 20
-147.04136199999982
 10
186.85154399999962
 20
-147.15591599999985
 10
188.01664199999962
 20
-147.26411999999985
 10
189.19240799999963
 20
-147.36546599999986
 10
190.3773179999996
 20
-147.45919199999986
 10
191.56984799999964
 20
-147.54453599999985
 10
192.76847399999963
 20
-147.62124399999988
 10
192.78904799999964
 20
-147.62200599999989
 10
192.80962199999965
 20
-147.62200599999989
 10
192.82994199999965
 20
-147.62098999999986
 10
192.85026199999967
 20
-147.6192119999999
 10
192.87032799999966
 20
-147.61667199999988
 10
192.89013999999966
 20
-147.61311599999988
 10
192.90969799999965
 20
-147.60879799999987
 10
192.92900199999966
 20
-147.60371799999987
 10
192.94805199999968
 20
-147.59787599999987
 10
192.96684799999966
 20
-147.5912719999999
 10
192.98538999999965
 20
-147.58390599999987
 10
193.00342399999965
 20
-147.57577799999987
 10
193.02120399999967
 20
-147.5668879999999
 10
193.03847599999966
 20
-147.55748999999986
 10
193.05549399999967
 20
-147.54732999999987
 10
193.07200399999968
 20
-147.53640799999988
 10
193.08800599999967
 20
-147.5249779999999
 10
193.10349999999968
 20
-147.5127859999999
 10
193.11848599999968
 20
-147.5000859999999
 10
193.13296399999967
 20
-147.4866239999999
 10
193.14693399999967
 20
-147.47265399999992
 10
193.16039599999968
 20
-147.45817599999992
 10
193.1733499999997
 20
-147.44293599999992
 10
193.18554199999969
 20
-147.42718799999992
 10
193.1972259999997
 20
-147.41093199999992
 10
193.20814799999968
 20
-147.39416799999992
 10
193.2185619999997
 20
-147.37689599999993
 10
193.22821399999972
 20
-147.35911599999991
 10
193.2371039999997
 20
-147.3408279999999
 10
193.2452319999997
 20
-147.32203199999992
 10
193.25259799999972
 20
-147.30272799999992
 10
193.2592019999997
 20
-147.28316999999993
 10
193.8685479999997
 20
-145.3418479999999
 10
194.4778939999997
 20
-143.4005259999999
 10
195.0872399999997
 20
-141.4592039999999
 10
195.6965859999997
 20
-139.5178819999999
 10
196.3059319999997
 20
-137.5765599999999
 10
196.9152779999997
 20
-135.63523799999987
 10
197.5246239999997
 20
-133.69391599999986
 10
198.1339699999997
 20
-131.75259399999987
 10
198.7433159999997
 20
-129.81127199999986
 10
199.3526619999997
 20
-127.86994999999987
 10
199.9620079999997
 20
-125.92862799999988
 10
200.5713539999997
 20
-123.98730599999989
 10
201.1806999999997
 20
-122.04598399999989
 10
201.7900459999997
 20
-120.1046619999999
 10
202.3993919999997
 20
-118.1633399999999
 10
203.0087379999997
 20
-116.22201799999992
 10
203.6180839999997
 20
-114.28069599999992
 10
204.2274299999997
 20
-112.33937399999994
 10
204.8367759999997
 20
-110.39805199999994
 10
205.44612199999972
 20
-108.45672999999995
 10
206.0554679999997
 20
-106.51540799999995
 10
206.6648139999997
 20
-104.57408599999997
 10
207.2741599999997
 20
-102.63276399999997
 10
207.8835059999997
 20
-100.69144199999997
 10
208.49285199999971
 20
-98.75011999999998
 10
209.1021979999997
 20
-96.80879799999998
 10
209.71154399999972
 20
-94.867476
 10
210.3208899999997
 20
-92.926154
 10
210.9302359999997
 20
-90.98483200000001
 10
211.5395819999997
 20
-89.04351000000001
 10
212.1489279999997
 20
-87.10218800000003
 10
212.75827399999972
 20
-85.16086600000003
 10
212.76411599999972
 20
-85.14105400000004
 10
212.76894199999973
 20
-85.12124200000004
 10
212.7730059999997
 20
-85.10143000000005
 10
212.7760539999997
 20
-85.08161800000005
 10
212.7783399999997
 20
-85.06180600000006
 10
212.7798639999997
 20
-85.04199400000007
 10
212.7806259999997
 20
-85.02218200000007
 10
212.78037199999972
 20
-85.00237000000008
 10
212.7793559999997
 20
-84.98255800000008
 10
212.77757799999972
 20
-84.9630000000001
 10
212.7750379999997
 20
-84.94344200000009
 10
212.77173599999972
 20
-84.92413800000008
 10
212.76767199999972
 20
-84.90508800000009
 10
212.7628459999997
 20
-84.88603800000008
 10
212.7572579999997
 20
-84.86724200000009
 10
212.7509079999997
 20
-84.8487000000001
 10
212.7437959999997
 20
-84.8304120000001
 10
212.7359219999997
 20
-84.8126320000001
 10
212.7272859999997
 20
-84.79510600000009
 10
212.7178879999997
 20
-84.7778340000001
 10
212.70772799999972
 20
-84.7610700000001
 10
212.6970599999997
 20
-84.74456000000009
 10
212.68562999999972
 20
-84.7285580000001
 10
212.67343799999972
 20
-84.7130640000001
 10
212.66073799999972
 20
-84.69782400000011
 10
212.64727599999972
 20
-84.6830920000001
 10
212.63330599999975
 20
-84.66886800000012
 10
212.61857399999974
 20
-84.65515200000011
 10
212.60307999999975
 20
-84.64194400000011
 10
212.58707799999974
 20
-84.62949800000013
 10
212.57056799999972
 20
-84.61756000000011
 10
212.55329599999973
 20
-84.60638400000012
  0
LWPOLYLINE
  5
30
330
17
100
AcDbEntity
  8
0
100
AcDbPolyline
 90
129
 70
0
 10
196.35723999999973
 20
-89.72321400000011
 10
196.36079599999974
 20
-89.86367600000011
 10
196.37146399999975
 20
-90.00236000000011
 10
196.38873599999974
 20
-90.13901200000011
 10
196.41286599999975
 20
-90.2736320000001
 10
196.44334599999974
 20
-90.40571200000011
 10
196.48017599999974
 20
-90.5352520000001
 10
196.52310199999974
 20
-90.6622520000001
 10
196.57212399999972
 20
-90.7862040000001
 10
196.62673399999974
 20
-90.9071080000001
 10
196.68693199999973
 20
-91.0249640000001
 10
196.75271799999973
 20
-91.1392640000001
 10
196.82383799999974
 20
-91.2500080000001
 10
196.9000379999997
 20
-91.3571960000001
 10
196.9810639999997
 20
-91.4603200000001
 10
197.0669159999997
 20
-91.55938000000009
 10
197.1573399999997
 20
-91.6543760000001
 10
197.25208199999972
 20
-91.7448000000001
 10
197.3511419999997
 20
-91.8306520000001
 10
197.45426599999968
 20
-91.91167800000011
 10
197.56145399999969
 20
-91.98787800000011
 10
197.6721979999997
 20
-92.0589980000001
 10
197.7864979999997
 20
-92.1247840000001
 10
197.90435399999973
 20
-92.1852360000001
 10
198.02525799999972
 20
-92.2398460000001
 10
198.14920999999975
 20
-92.2888680000001
 10
198.27620999999974
 20
-92.33179400000009
 10
198.40574999999976
 20
-92.3686240000001
 10
198.53782999999973
 20
-92.3991040000001
 10
198.67244999999974
 20
-92.4232340000001
 10
198.80910199999974
 20
-92.4405060000001
 10
198.94778599999975
 20
-92.45117400000008
 10
199.08824799999974
 20
-92.45473000000008
 10
199.22870999999975
 20
-92.45117400000008
 10
199.36739399999976
 20
-92.4405060000001
 10
199.50404599999976
 20
-92.4232340000001
 10
199.63866599999974
 20
-92.3991040000001
 10
199.77074599999975
 20
-92.3686240000001
 10
199.90028599999974
 20
-92.33179400000009
 10
200.02728599999975
 20
-92.2888680000001
 10
200.15123799999975
 20
-92.2398460000001
 10
200.27214199999975
 20
-92.1852360000001
 10
200.38999799999976
 20
-92.1247840000001
 10
200.50429799999978
 20
-92.0589980000001
 10
200.6150419999998
 20
-91.98787800000011
 10
200.7222299999998
 20
-91.91167800000011
 10
200.82535399999978
 20
-91.8306520000001
 10
200.92441399999979
 20
-91.7448000000001
 10
201.0194099999998
 20
-91.6543760000001
 10
201.10983399999978
 20
-91.55938000000009
 10
201.19568599999977
 20
-91.4603200000001
 10
201.27671199999978
 20
-91.3571960000001
 10
201.35291199999975
 20
-91.2500080000001
 10
201.42403199999976
 20
-91.1392640000001
 10
201.48981799999976
 20
-91.0249640000001
 10
201.55001599999974
 20
-90.9071080000001
 10
201.60462599999977
 20
-90.7862040000001
 10
201.65364799999975
 20
-90.6622520000001
 10
201.69657399999974
 20
-90.5352520000001
 10
201.73340399999975
 20
-90.40571200000011
 10
201.76388399999973
 20
-90.2736320000001
 10
201.78801399999975
 20
-90.13901200000011
 10
201.80528599999974
 20
-90.00236000000011
 10
201.81595399999975
 20
-89.86367600000011
 10
201.81950999999975
 20
-89.72321400000011
 10
201.81595399999975
 20
-89.58275200000011
 10
201.80528599999974
 20
-89.44406800000012
 10
201.78801399999975
 20
-89.30741600000012
 10
201.76388399999973
 20
-89.17279600000012
 10
201.73340399999975
 20
-89.04071600000013
 10
201.69657399999974
 20
-88.91117600000013
 10
201.65364799999975
 20
-88.78417600000013
 10
201.60462599999977
 20
-88.66022400000013
 10
201.55001599999974
 20
-88.53932000000013
 10
201.48981799999976
 20
-88.42146400000013
 10
201.42403199999976
 20
-88.30716400000013
 10
201.35291199999975
 20
-88.19642000000013
 10
201.27671199999978
 20
-88.08923200000012
 10
201.19568599999977
 20
-87.98610800000013
 10
201.10983399999978
 20
-87.88704800000014
 10
201.0194099999998
 20
-87.79205200000013
 10
200.92441399999979
 20
-87.70162800000013
 10
200.82535399999978
 20
-87.61577600000012
 10
200.7222299999998
 20
-87.53475000000012
 10
200.6150419999998
 20
-87.45855000000012
 10
200.50429799999978
 20
-87.38743000000012
 10
200.38999799999976
 20
-87.32164400000012
 10
200.27214199999975
 20
-87.26119200000012
 10
200.15123799999975
 20
-87.20658200000013
 10
200.02728599999975
 20
-87.15756000000013
 10
199.90028599999974
 20
-87.11463400000014
 10
199.77074599999975
 20
-87.07780400000014
 10
199.63866599999974
 20
-87.04732400000013
 10
199.50404599999976
 20
-87.02319400000013
 10
199.36739399999976
 20
-87.00592200000013
 10
199.22870999999975
 20
-86.99525400000014
 10
199.08824799999974
 20
-86.99169800000014
 10
198.94778599999975
 20
-86.99525400000014
 10
198.80910199999974
 20
-87.00592200000013
 10
198.67244999999974
 20
-87.02319400000013
 10
198.53782999999973
 20
-87.04732400000013
 10
198.40574999999976
 20
-87.07780400000014
 10
198.27620999999974
 20
-87.11463400000014
 10
198.14920999999975
 20
-87.15756000000013
 10
198.02525799999972
 20
-87.20658200000013
 10
197.90435399999973
 20
-87.26119200000012
 10
197.7864979999997
 20
-87.32164400000012
 10
197.6721979999997
 20
-87.38743000000012
 10
197.56145399999969
 20
-87.45855000000012
 10
197.45426599999968
 20
-87.53475000000012
 10
197.3511419999997
 20
-87.61577600000012
 10
197.25208199999972
 20
-87.70162800000013
 10
197.1573399999997
 20
-87.79205200000013
 10
197.0669159999997
 20
-87.88704800000014
 10
196.9810639999997
 20
-87.98610800000013
 10
196.9000379999997
 20
-88.08923200000012
 10
196.82383799999974
 20
-88.19642000000013
 10
196.75271799999973
 20
-88.30716400000013
 10
196.68693199999973
 20
-88.42146400000013
 10
196.62673399999974
 20
-88.53932000000013
 10
196.57212399999972
 20
-88.66022400000013
 10
196.52310199999974
 20
-88.78417600000013
 10
196.48017599999974
 20
-88.91117600000013
 10
196.44334599999974
 20
-89.04071600000013
 10
196.41286599999975
 20
-89.17279600000012
 10
196.38873599999974
 20
-89.30741600000012
 10
196.37146399999975
 20
-89.44406800000012
 10
196.36079599999974
 20
-89.58275200000011
 10
196.35723999999973
 20
-89.72321400000011
  0
LWPOLYLINE
  5
31
330
17
100
AcDbEntity
  8
0
100
AcDbPolyline
 90
129
 70
0
 10
179.00116599999973
 20
-136.6626680000001
 10
179.00472199999973
 20
-136.8031300000001
 10
179.01538999999974
 20
-136.9418140000001
 10
179.03266199999973
 20
-137.0784660000001
 10
179.05679199999975
 20
-137.21308600000012
 10
179.08727199999973
 20
-137.3451660000001
 10
179.12410199999974
 20
-137.47470600000008
 10
179.16702799999973
 20
-137.6017060000001
 10
179.2160499999997
 20
-137.72565800000012
 10
179.27065999999974
 20
-137.84656200000012
 10
179.33085799999972
 20
-137.96441800000014
 10
179.39664399999972
 20
-138.07871800000012
 10
179.46776399999973
 20
-138.18946200000013
 10
179.5439639999997
 20
-138.29665000000014
 10
179.6249899999997
 20
-138.39977400000015
 10
179.7108419999997
 20
-138.49883400000013
 10
179.80126599999969
 20
-138.59357600000016
 10
179.8960079999997
 20
-138.68400000000014
 10
179.9950679999997
 20
-138.76985200000013
 10
180.0981919999997
 20
-138.85087800000014
 10
180.20537999999968
 20
-138.9270780000001
 10
180.3161239999997
 20
-138.99819800000012
 10
180.4304239999997
 20
-139.06398400000012
 10
180.54827999999972
 20
-139.1241820000001
 10
180.66918399999972
 20
-139.1787920000001
 10
180.79313599999975
 20
-139.2278140000001
 10
180.92013599999973
 20
-139.2707400000001
 10
181.04967599999975
 20
-139.3075700000001
 10
181.18175599999972
 20
-139.3380500000001
 10
181.31637599999974
 20
-139.3621800000001
 10
181.45302799999973
 20
-139.3794520000001
 10
181.59171199999975
 20
-139.3901200000001
 10
181.73217399999973
 20
-139.3936760000001
 10
181.87263599999974
 20
-139.3901200000001
 10
182.01131999999976
 20
-139.3794520000001
 10
182.14797199999975
 20
-139.3621800000001
 10
182.28259199999974
 20
-139.3380500000001
 10
182.41467199999974
 20
-139.3075700000001
 10
182.54421199999973
 20
-139.2707400000001
 10
182.67121199999974
 20
-139.2278140000001
 10
182.79516399999974
 20
-139.1787920000001
 10
182.91606799999977
 20
-139.1241820000001
 10
183.03392399999976
 20
-139.06398400000012
 10
183.14822399999977
 20
-138.99819800000012
 10
183.25896799999978
 20
-138.9270780000001
 10
183.3661559999998
 20
-138.85087800000014
 10
183.46927999999977
 20
-138.76985200000013
 10
183.56833999999978
 20
-138.68400000000014
 10
183.6633359999998
 20
-138.59357600000016
 10
183.75375999999977
 20
-138.49883400000013
 10
183.8396119999998
 20
-138.39977400000015
 10
183.92063799999977
 20
-138.29665000000014
 10
183.99683799999974
 20
-138.18946200000013
 10
184.06795799999975
 20
-138.07871800000012
 10
184.13374399999975
 20
-137.96441800000014
 10
184.19394199999974
 20
-137.84656200000012
 10
184.24855199999976
 20
-137.72565800000012
 10
184.29757399999974
 20
-137.6017060000001
 10
184.34049999999974
 20
-137.47470600000008
 10
184.37732999999974
 20
-137.3451660000001
 10
184.40780999999973
 20
-137.21308600000012
 10
184.43193999999974
 20
-137.0784660000001
 10
184.44921199999973
 20
-136.9418140000001
 10
184.45987999999974
 20
-136.8031300000001
 10
184.46343599999975
 20
-136.6626680000001
 10
184.45987999999974
 20
-136.5222060000001
 10
184.44921199999973
 20
-136.38352200000008
 10
184.43193999999974
 20
-136.2468700000001
 10
184.40780999999973
 20
-136.1122500000001
 10
184.37732999999974
 20
-135.9801700000001
 10
184.34049999999974
 20
-135.8506300000001
 10
184.29757399999974
 20
-135.7236300000001
 10
184.24855199999976
 20
-135.59967800000007
 10
184.19394199999974
 20
-135.47877400000007
 10
184.13374399999975
 20
-135.36091800000005
 10
184.06795799999975
 20
-135.24661800000007
 10
183.99683799999974
 20
-135.13587400000006
 10
183.92063799999977
 20
-135.02868600000005
 10
183.8396119999998
 20
-134.92556200000004
 10
183.75375999999977
 20
-134.82650200000006
 10
183.6633359999998
 20
-134.73150600000005
 10
183.56833999999978
 20
-134.64108200000004
 10
183.46927999999977
 20
-134.55523000000005
 10
183.3661559999998
 20
-134.47420400000007
 10
183.25896799999978
 20
-134.39800400000007
 10
183.14822399999977
 20
-134.3268840000001
 10
183.03392399999976
 20
-134.2610980000001
 10
182.91606799999977
 20
-134.2009000000001
 10
182.79516399999974
 20
-134.14629000000008
 10
182.67121199999974
 20
-134.0972680000001
 10
182.54421199999973
 20
-134.0543420000001
 10
182.41467199999974
 20
-134.0175120000001
 10
182.28259199999974
 20
-133.98703200000008
 10
182.14797199999975
 20
-133.9629020000001
 10
182.01131999999976
 20
-133.9456300000001
 10
181.87263599999974
 20
-133.9349620000001
 10
181.73217399999973
 20
-133.9314060000001
 10
181.59171199999975
 20
-133.9349620000001
 10
181.45302799999973
 20
-133.9456300000001
 10
181.31637599999974
 20
-133.9629020000001
 10
181.18175599999972
 20
-133.98703200000008
 10
181.04967599999975
 20
-134.0175120000001
 10
180.92013599999973
 20
-134.0543420000001
 10
180.79313599999975
 20
-134.0972680000001
 10
180.66918399999972
 20
-134.14629000000008
 10
180.54827999999972
 20
-134.2009000000001
 10
180.4304239999997
 20
-134.2610980000001
 10
180.3161239999997
 20
-134.3268840000001
 10
180.20537999999968
 20
-134.39800400000007
 10
180.0981919999997
 20
-134.47420400000007
 10
179.9950679999997
 20
-134.55523000000005
 10
179.8960079999997
 20
-134.64108200000004
 10
179.80126599999969
 20
-134.73150600000005
 10
179.7108419999997
 20
-134.82650200000006
 10
179.6249899999997
 20
-134.92556200000004
 10
179.5439639999997
 20
-135.02868600000005
 10
179.46776399999973
 20
-135.13587400000006
 10
179.39664399999972
 20
-135.24661800000007
 10
179.33085799999972
 20
-135.36091800000005
 10
179.27065999999974
 20
-135.47877400000007
 10
179.2160499999997
 20
-135.59967800000007
 10
179.16702799999973
 20
-135.7236300000001
 10
179.12410199999974
 20
-135.8506300000001
 10
179.08727199999973
 20
-135.9801700000001
 10
179.05679199999975
 20
-136.1122500000001
 10
179.03266199999973
 20
-136.2468700000001
 10
179.01538999999974
 20
-136.38352200000008
 10
179.00472199999973
 20
-136.5222060000001
 10
179.00116599999973
 20
-136.6626680000001
  0
LWPOLYLINE
  5
32
330
17
100
AcDbEntity
  8
0
100
AcDbPolyline
 90
161
 70
0
 10
175.83556399999972
 20
-145.6154060000001
 10
175.83886599999974
 20
-145.2793640000001
 10
175.84216799999976
 20
-144.9433220000001
 10
175.84546999999975
 20
-144.6072800000001
 10
175.84877199999977
 20
-144.2712380000001
 10
175.8520739999998
 20
-143.9351960000001
 10
175.85537599999978
 20
-143.5991540000001
 10
175.8586779999998
 20
-143.26311200000012
 10
175.8619799999998
 20
-142.92707000000013
 10
175.8652819999998
 20
-142.59102800000014
 10
175.86858399999983
 20
-142.25498600000014
 10
175.87188599999982
 20
-141.91894400000015
 10
175.87518799999984
 20
-141.58290200000016
 10
175.87848999999986
 20
-141.24686000000017
 10
175.88179199999985
 20
-140.91081800000015
 10
175.88509399999987
 20
-140.57477600000016
 10
175.88839599999986
 20
-140.23873400000016
 10
175.89169799999988
 20
-139.90269200000017
 10
175.8949999999999
 20
-139.56665000000018
 10
175.8983019999999
 20
-139.2306080000002
 10
175.9016039999999
 20
-138.8945660000002
 10
175.90490599999993
 20
-138.5585240000002
 10
175.90820799999992
 20
-138.2224820000002
 10
175.91150999999994
 20
-137.88644000000022
 10
175.91481199999993
 20
-137.5503980000002
 10
175.91811399999995
 20
-137.2143560000002
 10
175.92141599999997
 20
-136.87831400000022
 10
175.92471799999996
 20
-136.54227200000022
 10
175.92801999999998
 20
-136.20623000000023
 10
175.931322
 20
-135.87018800000024
 10
175.93462399999999
 20
-135.53414600000025
 10
175.937926
 20
-135.19810400000026
 10
175.941228
 20
-134.86206200000026
 10
176.30648
 20
-134.41857800000025
 10
176.671732
 20
-133.97484000000028
 10
177.036984
 20
-133.53135600000027
 10
177.402236
 20
-133.0878720000003
 10
177.767488
 20
-132.64438800000028
 10
178.13273999999998
 20
-132.2006500000003
 10
178.49799199999998
 20
-131.7571660000003
 10
178.86324399999998
 20
-131.3136820000003
 10
179.22849599999998
 20
-130.8701980000003
 10
179.59374799999998
 20
-130.42646000000033
 10
179.95899999999997
 20
-129.98297600000032
 10
180.32425199999997
 20
-129.53949200000034
 10
180.68950399999997
 20
-129.09600800000032
 10
181.05475599999997
 20
-128.65252400000034
 10
181.42000799999997
 20
-128.20904000000036
 10
181.78525999999997
 20
-127.76555600000034
 10
182.15051199999996
 20
-127.32207200000036
 10
182.51576399999996
 20
-126.87858800000036
 10
182.88101599999996
 20
-126.43510400000036
 10
183.24626799999996
 20
-125.99162000000037
 10
183.61151999999996
 20
-125.54813600000037
 10
183.97677199999995
 20
-125.10465200000039
 10
184.34202399999992
 20
-124.66116800000039
 10
184.70727599999992
 20
-124.21768400000039
 10
185.07252799999992
 20
-123.77420000000039
 10
185.43777999999992
 20
-123.3307160000004
 10
185.80303199999992
 20
-122.88723200000041
 10
186.16828399999991
 20
-122.44374800000041
 10
186.5335359999999
 20
-122.00026400000041
 10
186.8987879999999
 20
-121.55678000000042
 10
187.2640399999999
 20
-121.11329600000042
 10
187.6292919999999
 20
-120.66981200000043
 10
187.62040199999993
 20
-121.23623200000043
 10
187.61151199999992
 20
-121.80265200000044
 10
187.60262199999994
 20
-122.36907200000044
 10
187.59373199999993
 20
-122.93549200000045
 10
187.58484199999995
 20
-123.50191200000044
 10
187.57595199999997
 20
-124.06833200000045
 10
187.56706199999996
 20
-124.63475200000046
 10
187.55817199999998
 20
-125.20117200000047
 10
187.54928199999998
 20
-125.76759200000048
 10
187.540392
 20
-126.33401200000047
 10
187.531502
 20
-126.90043200000048
 10
187.522612
 20
-127.46685200000049
 10
187.51372200000003
 20
-128.0332720000005
 10
187.50483200000002
 20
-128.5996920000005
 10
187.49594200000004
 20
-129.1661120000005
 10
187.48705200000003
 20
-129.7325320000005
 10
187.47816200000005
 20
-130.2989520000005
 10
187.46927200000005
 20
-130.86537200000052
 10
187.46038200000007
 20
-131.4317920000005
 10
187.45149200000006
 20
-131.9982120000005
 10
187.44260200000008
 20
-132.56463200000053
 10
187.4337120000001
 20
-133.13105200000052
 10
187.4248220000001
 20
-133.69747200000054
 10
187.4159320000001
 20
-134.26389200000054
 10
187.4070420000001
 20
-134.83031200000053
 10
187.39815200000012
 20
-135.39673200000055
 10
187.38926200000012
 20
-135.96315200000055
 10
187.38037200000014
 20
-136.52957200000057
 10
187.37148200000016
 20
-137.09599200000056
 10
187.36259200000015
 20
-137.66241200000056
 10
187.35370200000017
 20
-138.22883200000058
 10
187.34481200000016
 20
-138.79525200000057
 10
187.14364400000017
 20
-139.0307100000006
 10
186.94247600000014
 20
-139.2661680000006
 10
186.74130800000015
 20
-139.50162600000058
 10
186.54014000000015
 20
-139.7370840000006
 10
186.33897200000013
 20
-139.9725420000006
 10
186.13780400000013
 20
-140.2080000000006
 10
185.9366360000001
 20
-140.44345800000062
 10
185.7354680000001
 20
-140.6789160000006
 10
185.5343000000001
 20
-140.91437400000063
 10
185.3331320000001
 20
-141.14983200000063
 10
185.1319640000001
 20
-141.38529000000062
 10
184.93079600000007
 20
-141.62074800000065
 10
184.72962800000008
 20
-141.85620600000064
 10
184.52846000000005
 20
-142.09166400000066
 10
184.32729200000006
 20
-142.32712200000066
 10
184.12612400000006
 20
-142.56258000000065
 10
183.92495600000004
 20
-142.79803800000067
 10
183.72378800000004
 20
-143.03349600000067
 10
183.52262000000002
 20
-143.2689540000007
 10
183.32145200000002
 20
-143.50441200000068
 10
183.120284
 20
-143.73987000000068
 10
182.919116
 20
-143.9753280000007
 10
182.717948
 20
-144.2107860000007
 10
182.51677999999998
 20
-144.44624400000072
 10
182.315612
 20
-144.6817020000007
 10
182.11444399999996
 20
-144.9171600000007
 10
181.91327599999997
 20
-145.15261800000073
 10
181.71210799999994
 20
-145.38807600000072
 10
181.51093999999995
 20
-145.62353400000072
 10
181.30977199999995
 20
-145.85899200000074
 10
181.10860399999993
 20
-146.09445000000073
 10
180.90743599999993
 20
-146.32990800000076
 10
180.74868599999994
 20
-146.30755600000074
 10
180.58993599999994
 20
-146.28520400000076
 10
180.4311859999999
 20
-146.26285200000078
 10
180.2724359999999
 20
-146.2405000000008
 10
180.11368599999992
 20
-146.21814800000078
 10
179.95493599999992
 20
-146.1957960000008
 10
179.79618599999992
 20
-146.1734440000008
 10
179.63743599999992
 20
-146.15109200000083
 10
179.47868599999993
 20
-146.12874000000082
 10
179.31993599999993
 20
-146.10638800000083
 10
179.16118599999993
 20
-146.08403600000085
 10
179.00243599999993
 20
-146.06168400000084
 10
178.84368599999993
 20
-146.03933200000085
 10
178.68493599999994
 20
-146.01698000000087
 10
178.52618599999994
 20
-145.9946280000009
 10
178.3674359999999
 20
-145.97227600000087
 10
178.20868599999991
 20
-145.9499240000009
 10
178.04993599999992
 20
-145.9275720000009
 10
177.89118599999992
 20
-145.90522000000092
 10
177.73243599999992
 20
-145.8828680000009
 10
177.57368599999992
 20
-145.86051600000093
 10
177.41493599999993
 20
-145.83816400000094
 10
177.25618599999993
 20
-145.81581200000096
 10
177.09743599999993
 20
-145.79346000000095
 10
176.93868599999993
 20
-145.77110800000096
 10
176.77993599999994
 20
-145.74875600000098
 10
176.62118599999994
 20
-145.726404000001
 10
176.4624359999999
 20
-145.70405200000098
 10
176.3036859999999
 20
-145.681700000001
 10
176.14493599999992
 20
-145.65934800000102
 10
175.98618599999992
 20
-145.636996000001
 10
175.82743599999992
 20
-145.61464400000102
  0
LWPOLYLINE
  5
36
330
17
100
AcDbEntity
  8
0
100
AcDbPolyline
 90
705
 70
0
 10
177.13528199999874
 20
-77.8281400000014
 10
176.94274999999874
 20
-78.26476600000139
 10
176.74132799999873
 20
-78.67954800000139
 10
176.53177799999872
 20
-79.07299400000139
 10
176.3146079999987
 20
-79.44561200000138
 10
176.09057999999874
 20
-79.79816400000138
 10
175.8602019999987
 20
-80.13090400000138
 10
175.62448999999873
 20
-80.44459400000137
 10
175.38369799999873
 20
-80.73974200000137
 10
175.1388419999987
 20
-81.01711000000137
 10
174.8901759999987
 20
-81.27695200000137
 10
174.6387159999987
 20
-81.52003000000137
 10
174.3849699999987
 20
-81.74685200000137
 10
174.12969999999868
 20
-81.95792600000136
 10
173.8734139999987
 20
-82.15376000000137
 10
173.6168739999987
 20
-82.33511600000138
 10
173.36084199999868
 20
-82.50224800000137
 10
173.10582599999867
 20
-82.65591800000138
 10
172.8525879999987
 20
-82.79663400000138
 10
172.60163599999868
 20
-82.92515800000136
 10
172.35373199999867
 20
-83.04174400000137
 10
172.10963799999868
 20
-83.14715400000138
 10
171.86986199999868
 20
-83.24189600000138
 10
171.6351659999987
 20
-83.32647800000137
 10
171.4063119999987
 20
-83.40166200000138
 10
171.1838079999987
 20
-83.46770200000137
 10
170.9684159999987
 20
-83.52536000000137
 10
170.7606439999987
 20
-83.57514400000137
 10
170.5612539999987
 20
-83.61781600000137
 10
170.3710079999987
 20
-83.65363000000139
 10
170.19041399999873
 20
-83.68334800000139
 10
170.02023399999874
 20
-83.70747800000139
 10
169.86097599999874
 20
-83.7265280000014
 10
169.77410799999873
 20
-83.73821200000138
 10
169.68927199999877
 20
-83.75421400000138
 10
169.60672199999874
 20
-83.77428000000138
 10
169.52620399999876
 20
-83.79815600000138
 10
169.44822599999873
 20
-83.82609600000139
 10
169.37253399999875
 20
-83.85759200000139
 10
169.29938199999873
 20
-83.89264400000138
 10
169.22876999999872
 20
-83.93125200000138
 10
169.16095199999873
 20
-83.9731620000014
 10
169.09592799999874
 20
-84.01837400000139
 10
169.03369799999874
 20
-84.06663400000139
 10
168.97451599999874
 20
-84.11794200000139
 10
168.91838199999873
 20
-84.17204400000139
 10
168.86554999999873
 20
-84.22894000000139
 10
168.81576599999875
 20
-84.28863000000139
 10
168.76953799999873
 20
-84.3506060000014
 10
168.72661199999874
 20
-84.4151220000014
 10
168.68724199999875
 20
-84.4819240000014
 10
168.65142799999876
 20
-84.55075800000141
 10
168.61942399999876
 20
-84.6216240000014
 10
168.59122999999877
 20
-84.6942680000014
 10
168.56684599999875
 20
-84.7686900000014
 10
168.54652599999875
 20
-84.84489000000141
 10
168.53026999999875
 20
-84.9226140000014
 10
168.51833199999876
 20
-85.0016080000014
 10
168.51045799999878
 20
-85.0818720000014
 10
168.50715599999876
 20
-85.1634060000014
 10
168.50817199999875
 20
-85.2459560000014
 10
168.51375999999877
 20
-85.32926800000139
 10
168.52391999999875
 20
-85.41334200000139
 10
168.53890599999875
 20
-85.49817800000139
 10
168.55871799999875
 20
-85.5835220000014
 10
168.55922599999874
 20
-85.5858080000014
 10
168.5597339999987
 20
-85.5880940000014
 10
168.5602419999987
 20
-85.5903800000014
 10
168.5607499999987
 20
-85.59266600000142
 10
168.5612579999987
 20
-85.59495200000141
 10
168.56176599999867
 20
-85.59723800000143
 10
168.56227399999867
 20
-85.59952400000142
 10
168.56278199999866
 20
-85.60181000000142
 10
168.56328999999863
 20
-85.60409600000143
 10
168.56379799999863
 20
-85.60638200000143
 10
168.56430599999862
 20
-85.60866800000144
 10
168.56481399999862
 20
-85.61095400000144
 10
168.5653219999986
 20
-85.61324000000144
 10
168.56582999999858
 20
-85.61552600000145
 10
168.56633799999858
 20
-85.61781200000145
 10
168.56684599999855
 20
-85.62009800000146
 10
168.56735399999855
 20
-85.62238400000146
 10
168.56786199999854
 20
-85.62467000000146
 10
168.5683699999985
 20
-85.62695600000147
 10
168.5688779999985
 20
-85.62924200000147
 10
168.5693859999985
 20
-85.63152800000148
 10
168.5698939999985
 20
-85.63381400000148
 10
168.57040199999847
 20
-85.63610000000148
 10
168.57116399999848
 20
-85.63838600000149
 10
168.57167199999847
 20
-85.64067200000149
 10
168.57243399999848
 20
-85.6429580000015
 10
168.5731959999985
 20
-85.6452440000015
 10
168.5737039999985
 20
-85.6475300000015
 10
168.5744659999985
 20
-85.64981600000151
 10
168.5752279999985
 20
-85.6521020000015
 10
168.5759899999985
 20
-85.65438800000152
 10
168.57675199999852
 20
-85.65667400000152
 10
168.58640399999854
 20
-85.68766200000152
 10
168.59707199999855
 20
-85.71814200000152
 10
168.60875599999855
 20
-85.74811400000152
 10
168.62145599999855
 20
-85.77757800000151
 10
168.63491799999855
 20
-85.80628000000152
 10
168.64939599999855
 20
-85.8344740000015
 10
168.66463599999852
 20
-85.86216000000151
 10
168.68089199999852
 20
-85.88933800000152
 10
168.69790999999853
 20
-85.91575400000151
 10
168.71594399999853
 20
-85.9416620000015
 10
168.7347399999985
 20
-85.9670620000015
 10
168.75429799999853
 20
-85.9917000000015
 10
168.77461799999853
 20
-86.0155760000015
 10
168.7956999999985
 20
-86.03894400000151
 10
168.81754399999852
 20
-86.0615500000015
 10
168.84014999999854
 20
-86.0833940000015
 10
168.86326399999854
 20
-86.10473000000151
 10
168.88713999999854
 20
-86.1253040000015
 10
168.91152399999856
 20
-86.14511600000151
 10
168.93666999999857
 20
-86.1641660000015
 10
168.96232399999857
 20
-86.1824540000015
 10
168.9887399999986
 20
-86.1999800000015
 10
169.01566399999857
 20
-86.2167440000015
 10
169.04309599999857
 20
-86.2327460000015
 10
169.07103599999857
 20
-86.24798600000149
 10
169.09948399999854
 20
-86.26221000000149
 10
169.12843999999856
 20
-86.27567200000149
 10
169.15790399999855
 20
-86.28837200000149
 10
169.18787599999857
 20
-86.30005600000149
 10
169.21835599999858
 20
-86.3109780000015
 10
169.24908999999857
 20
-86.32088400000148
 10
169.28033199999857
 20
-86.33002800000149
 10
170.53458399999857
 20
-86.72118800000149
 10
171.68901399999856
 20
-87.1748320000015
 10
172.74768599999857
 20
-87.68613400000149
 10
173.71440999999857
 20
-88.25026800000148
 10
174.5932499999986
 20
-88.86215400000148
 10
175.3880159999986
 20
-89.51696600000149
 10
176.1027719999986
 20
-90.20987800000148
 10
176.7413279999986
 20
-90.93581000000148
 10
177.3074939999986
 20
-91.68993600000148
 10
177.8053339999986
 20
-92.46717600000149
 10
178.2389119999986
 20
-93.26270400000149
 10
178.61203799999862
 20
-94.07169400000149
 10
178.9287759999986
 20
-94.88906600000149
 10
179.1929359999986
 20
-95.7099940000015
 10
179.4083279999986
 20
-96.52965200000149
 10
179.5790159999986
 20
-97.3429600000015
 10
179.70880999999858
 20
-98.1450920000015
 10
179.80177399999857
 20
-98.9312220000015
 10
179.86197199999856
 20
-99.6962700000015
 10
179.89295999999857
 20
-100.43541000000151
 10
179.89905599999855
 20
-101.14356200000151
 10
179.88381599999857
 20
-101.8159000000015
 10
179.8515579999986
 20
-102.44759800000152
 10
179.8058379999986
 20
-103.03383000000152
 10
179.7509739999986
 20
-103.56951600000151
 10
179.6905219999986
 20
-104.04957600000151
 10
179.62854599999858
 20
-104.4694380000015
 10
179.56910999999857
 20
-104.82402200000152
 10
179.51602399999857
 20
-105.10824800000152
 10
179.47335199999858
 20
-105.31729000000152
 10
179.4449039999986
 20
-105.44632200000152
 10
179.43448999999856
 20
-105.4905180000015
 10
179.6625819999986
 20
-104.92917800000151
 10
179.8906739999986
 20
-104.36783800000151
 10
180.1187659999986
 20
-103.80649800000153
 10
180.3468579999986
 20
-103.24515800000152
 10
180.5749499999986
 20
-102.68381800000154
 10
180.8030419999986
 20
-102.12247800000154
 10
181.03113399999862
 20
-101.56113800000153
 10
181.25922599999862
 20
-100.99979800000155
 10
181.48731799999862
 20
-100.43845800000155
 10
181.71540999999863
 20
-99.87711800000156
 10
181.94350199999863
 20
-99.31577800000156
 10
182.17159399999863
 20
-98.75443800000157
 10
182.39968599999867
 20
-98.19309800000157
 10
182.62777799999867
 20
-97.63175800000158
 10
182.85586999999867
 20
-97.07041800000158
 10
183.08396199999868
 20
-96.5090780000016
 10
183.31205399999868
 20
-95.94773800000159
 10
183.54014599999869
 20
-95.38639800000159
 10
183.7682379999987
 20
-94.8250580000016
 10
183.9963299999987
 20
-94.2637180000016
 10
184.2244219999987
 20
-93.70237800000162
 10
184.4525139999987
 20
-93.14103800000161
 10
184.6806059999987
 20
-92.57969800000163
 10
184.90869799999874
 20
-92.01835800000163
 10
185.13678999999874
 20
-91.45701800000164
 10
185.36488199999874
 20
-90.89567800000164
 10
185.59297399999875
 20
-90.33433800000165
 10
185.82106599999875
 20
-89.77299800000165
 10
186.04915799999876
 20
-89.21165800000165
 10
186.27724999999876
 20
-88.65031800000166
 10
186.50534199999876
 20
-88.08897800000166
 10
186.73343399999877
 20
-87.52763800000167
 10
186.63335799999876
 20
-87.49360200000167
 10
186.54039399999877
 20
-87.45093000000166
 10
186.45454199999878
 20
-87.40038400000167
 10
186.3758019999988
 20
-87.34247200000166
 10
186.3041739999988
 20
-87.27795600000165
 10
186.23965799999877
 20
-87.20759800000165
 10
186.18225399999878
 20
-87.13165200000167
 10
186.1319619999988
 20
-87.05113400000167
 10
186.0887819999988
 20
-86.96629800000166
 10
186.0527139999988
 20
-86.87816000000167
 10
186.02375799999876
 20
-86.78697400000168
 10
186.00191399999878
 20
-86.69375600000167
 10
185.98718199999877
 20
-86.59876000000166
 10
185.9795619999988
 20
-86.50274800000166
 10
185.9790539999988
 20
-86.40648200000166
 10
185.98565799999878
 20
-86.31047000000166
 10
185.99937399999877
 20
-86.21547400000166
 10
186.02020199999876
 20
-86.12200200000166
 10
186.0481419999988
 20
-86.03081600000166
 10
186.0831939999988
 20
-85.94242400000167
 10
186.1256119999988
 20
-85.85733400000167
 10
186.1748879999988
 20
-85.77630800000166
 10
186.23152999999877
 20
-85.70010800000166
 10
186.29528399999876
 20
-85.62924200000165
 10
186.36614999999875
 20
-85.56447200000166
 10
186.44412799999878
 20
-85.50630600000166
 10
186.5292179999988
 20
-85.45525200000166
 10
186.6214199999988
 20
-85.41207200000166
 10
186.72073399999877
 20
-85.37727400000165
 10
186.82715999999877
 20
-85.35162000000166
 10
186.94069799999878
 20
-85.33587200000166
 10
187.0613479999988
 20
-85.33053800000165
 10
187.08014399999877
 20
-85.33079200000164
 10
187.09868599999876
 20
-85.33130000000165
 10
187.11697399999878
 20
-85.33206200000164
 10
187.13500799999878
 20
-85.33307800000165
 10
187.15304199999878
 20
-85.33434800000164
 10
187.1708219999988
 20
-85.33587200000164
 10
187.1883479999988
 20
-85.33765000000164
 10
187.20587399999877
 20
-85.33968200000163
 10
187.22314599999876
 20
-85.34196800000164
 10
187.24016399999877
 20
-85.34450800000164
 10
187.25718199999878
 20
-85.34704800000164
 10
187.27394599999877
 20
-85.34984200000164
 10
187.2904559999988
 20
-85.35289000000164
 10
187.30696599999882
 20
-85.35619200000163
 10
187.3232219999988
 20
-85.35974800000163
 10
187.3392239999988
 20
-85.36355800000163
 10
187.3552259999988
 20
-85.36762200000163
 10
187.3709739999988
 20
-85.37194000000163
 10
187.3867219999988
 20
-85.37625800000164
 10
187.40221599999882
 20
-85.38083000000162
 10
187.4174559999988
 20
-85.38565600000163
 10
187.43269599999877
 20
-85.39073600000162
 10
187.44768199999876
 20
-85.39607000000163
 10
187.46241399999877
 20
-85.40140400000163
 10
187.47714599999878
 20
-85.40699200000164
 10
187.49162399999878
 20
-85.41283400000164
 10
187.50610199999878
 20
-85.41893000000164
 10
187.5203259999988
 20
-85.42502600000164
 10
187.5342959999988
 20
-85.43137600000163
 10
187.54826599999876
 20
-85.43798000000163
 10
187.56198199999875
 20
-85.44458400000164
 10
187.57569799999877
 20
-85.45144200000163
 10
187.60541599999874
 20
-85.37829000000163
 10
187.63513399999874
 20
-85.30513800000163
 10
187.66485199999872
 20
-85.23198600000163
 10
187.69456999999872
 20
-85.15883400000162
 10
187.7242879999987
 20
-85.08568200000163
 10
187.7540059999987
 20
-85.01253000000162
 10
187.78372399999867
 20
-84.93937800000161
 10
187.81344199999867
 20
-84.86622600000162
 10
187.84315999999868
 20
-84.79307400000161
 10
187.87287799999865
 20
-84.7199220000016
 10
187.90259599999865
 20
-84.64677000000161
 10
187.93231399999863
 20
-84.5736180000016
 10
187.96203199999863
 20
-84.5004660000016
 10
187.9917499999986
 20
-84.4273140000016
 10
188.0214679999986
 20
-84.3541620000016
 10
188.0511859999986
 20
-84.28101000000159
 10
188.08090399999858
 20
-84.20785800000158
 10
188.11062199999859
 20
-84.13470600000159
 10
188.14033999999856
 20
-84.06155400000158
 10
188.17005799999856
 20
-83.98840200000157
 10
188.19977599999854
 20
-83.91525000000158
 10
188.22949399999854
 20
-83.84209800000157
 10
188.25921199999854
 20
-83.76894600000156
 10
188.28892999999852
 20
-83.69579400000157
 10
188.31864799999852
 20
-83.62264200000156
 10
188.3483659999985
 20
-83.54949000000155
 10
188.3780839999985
 20
-83.47633800000156
 10
188.40780199999847
 20
-83.40318600000155
 10
188.43751999999847
 20
-83.33003400000155
 10
188.46723799999847
 20
-83.25688200000155
 10
188.49695599999845
 20
-83.18373000000155
 10
188.52667399999845
 20
-83.11057800000154
 10
189.96990199999846
 20
-82.57311400000155
 10
191.37706199999843
 20
-82.11134200000156
 10
192.74764599999844
 20
-81.72145200000155
 10
194.08089199999844
 20
-81.39938000000156
 10
195.37603799999843
 20
-81.14131600000155
 10
196.63257599999844
 20
-80.94370400000155
 10
197.84999799999844
 20
-80.80248000000155
 10
199.02754199999845
 20
-80.71383400000155
 10
200.16444599999843
 20
-80.67395600000155
 10
201.26020199999843
 20
-80.67878200000156
 10
202.31404799999842
 20
-80.72475600000155
 10
203.32547599999842
 20
-80.80806800000154
 10
204.29397799999842
 20
-80.92465400000155
 10
205.2185379999984
 20
-81.07070400000154
 10
206.09890199999842
 20
-81.24240800000155
 10
206.93430799999842
 20
-81.43595600000154
 10
207.7239939999984
 20
-81.64753800000155
 10
208.46745199999842
 20
-81.87334400000155
 10
209.16391999999843
 20
-82.10956400000155
 10
209.8126359999984
 20
-82.35213400000154
 10
210.41334599999843
 20
-82.59749800000155
 10
210.9650339999984
 20
-82.84159200000155
 10
211.46719199999842
 20
-83.08060600000155
 10
211.9193119999984
 20
-83.31073000000154
 10
212.32063199999843
 20
-83.52815400000155
 10
212.6703899999984
 20
-83.72906800000155
 10
212.9680779999984
 20
-83.90966200000155
 10
213.2131879999984
 20
-84.06612600000155
 10
213.40495799999843
 20
-84.19439600000155
 10
213.54262599999842
 20
-84.29091600000154
 10
213.62568399999842
 20
-84.35162200000154
 10
213.65362399999844
 20
-84.37270400000155
 10
213.52128999999843
 20
-84.80552000000155
 10
213.38895599999844
 20
-85.23833600000155
 10
213.25662199999846
 20
-85.67115200000156
 10
213.12428799999847
 20
-86.10396800000156
 10
212.9919539999985
 20
-86.53678400000155
 10
212.8596199999985
 20
-86.96960000000155
 10
212.72728599999851
 20
-87.40241600000155
 10
212.59495199999853
 20
-87.83523200000155
 10
212.4626179999985
 20
-88.26804800000156
 10
212.33028399999853
 20
-88.70086400000156
 10
212.19794999999854
 20
-89.13368000000156
 10
212.06561599999856
 20
-89.56649600000156
 10
211.93328199999857
 20
-89.99931200000157
 10
211.80094799999858
 20
-90.43212800000157
 10
211.6686139999986
 20
-90.86494400000157
 10
211.5362799999986
 20
-91.29776000000157
 10
211.4039459999986
 20
-91.73057600000158
 10
211.2716119999986
 20
-92.16339200000158
 10
211.13927799999863
 20
-92.59620800000158
 10
211.00694399999864
 20
-93.02902400000158
 10
210.87460999999865
 20
-93.46184000000159
 10
210.74227599999867
 20
-93.89465600000159
 10
210.60994199999868
 20
-94.32747200000159
 10
210.4776079999987
 20
-94.7602880000016
 10
210.3452739999987
 20
-95.1931040000016
 10
210.2129399999987
 20
-95.6259200000016
 10
210.0806059999987
 20
-96.0587360000016
 10
209.94827199999872
 20
-96.4915520000016
 10
209.81593799999874
 20
-96.9243680000016
 10
209.68360399999875
 20
-97.3571840000016
 10
209.55126999999877
 20
-97.7900000000016
 10
209.41893599999878
 20
-98.2228160000016
 10
209.49843799999877
 20
-98.2423740000016
 10
209.57793999999876
 20
-98.26193200000161
 10
209.65744199999875
 20
-98.28149000000161
 10
209.73694399999877
 20
-98.3010480000016
 10
209.81644599999876
 20
-98.3206060000016
 10
209.89594799999875
 20
-98.34016400000161
 10
209.97544999999874
 20
-98.3597220000016
 10
210.05495199999874
 20
-98.3792800000016
 10
210.13445399999875
 20
-98.3988380000016
 10
210.21395599999875
 20
-98.41839600000161
 10
210.29345799999874
 20
-98.4379540000016
 10
210.37295999999873
 20
-98.4575120000016
 10
210.45246199999872
 20
-98.4770700000016
 10
210.53196399999874
 20
-98.49662800000159
 10
210.61146599999873
 20
-98.5161860000016
 10
210.69096799999872
 20
-98.5357440000016
 10
210.7704699999987
 20
-98.5553020000016
 10
210.84997199999873
 20
-98.57486000000159
 10
210.92947399999872
 20
-98.5944180000016
 10
211.0089759999987
 20
-98.6139760000016
 10
211.0884779999987
 20
-98.6335340000016
 10
211.1679799999987
 20
-98.65309200000159
 10
211.2474819999987
 20
-98.6726500000016
 10
211.3269839999987
 20
-98.6922080000016
 10
211.4064859999987
 20
-98.71176600000159
 10
211.48598799999868
 20
-98.73132400000159
 10
211.5654899999987
 20
-98.7508820000016
 10
211.6449919999987
 20
-98.7704400000016
 10
211.72449399999869
 20
-98.78999800000159
 10
211.80399599999868
 20
-98.80955600000159
 10
211.88349799999867
 20
-98.8291140000016
 10
211.9629999999987
 20
-98.84867200000159
 10
212.09380999999868
 20
-98.7831400000016
 10
212.22360399999866
 20
-98.72421200000159
 10
212.35263599999868
 20
-98.67163400000159
 10
212.48065199999868
 20
-98.62515200000159
 10
212.60765199999867
 20
-98.5847660000016
 10
212.73363599999868
 20
-98.5499680000016
 10
212.85860399999865
 20
-98.5210120000016
 10
212.98230199999867
 20
-98.4973900000016
 10
213.10472999999865
 20
-98.47910200000159
 10
213.22588799999863
 20
-98.46589400000158
 10
213.34577599999864
 20
-98.45751200000159
 10
213.46439399999863
 20
-98.45370200000158
 10
213.58174199999863
 20
-98.45446400000158
 10
213.69756599999863
 20
-98.45954400000159
 10
213.81186599999864
 20
-98.46868800000158
 10
213.92464199999864
 20
-98.48189600000158
 10
214.03589399999862
 20
-98.49891400000159
 10
214.14562199999864
 20
-98.51948800000159
 10
214.25357199999863
 20
-98.54336400000159
 10
214.35999799999863
 20
-98.5705420000016
 10
214.46464599999862
 20
-98.60076800000161
 10
214.56751599999862
 20
-98.6337880000016
 10
214.66860799999864
 20
-98.6693480000016
 10
214.76766799999862
 20
-98.70744800000159
 10
214.86494999999863
 20
-98.74783400000159
 10
214.96019999999862
 20
-98.79025200000159
 10
215.05341799999863
 20
-98.83444800000159
 10
215.14460399999862
 20
-98.88042200000157
 10
215.23375799999863
 20
-98.92792000000158
 10
215.32062599999864
 20
-98.97668800000159
 10
215.4054619999986
 20
-99.02672600000159
 10
215.48801199999863
 20
-99.07778000000158
 10
215.51214199999865
 20
-99.0917500000016
 10
215.53652599999864
 20
-99.1031800000016
 10
215.56116399999863
 20
-99.1120700000016
 10
215.58580199999864
 20
-99.1186740000016
 10
215.61043999999862
 20
-99.1229920000016
 10
215.63482399999862
 20
-99.1252780000016
 10
215.65895399999863
 20
-99.1252780000016
 10
215.68282999999863
 20
-99.12324600000161
 10
215.70619799999864
 20
-99.11943600000161
 10
215.72905799999864
 20
-99.11359400000161
 10
215.75140999999863
 20
-99.10597400000161
 10
215.77299999999863
 20
-99.09683000000162
 10
215.79382799999865
 20
-99.08590800000161
 10
215.81363999999863
 20
-99.07346200000161
 10
215.83268999999865
 20
-99.05974600000162
 10
215.85046999999867
 20
-99.04450600000162
 10
215.86723399999866
 20
-99.02799600000162
 10
215.88272799999868
 20
-99.01047000000162
 10
215.8969519999987
 20
-98.99167400000162
 10
215.9096519999987
 20
-98.97186200000162
 10
215.92082799999866
 20
-98.95103400000163
 10
215.93047999999868
 20
-98.92944400000162
 10
215.93860799999868
 20
-98.90709200000163
 10
215.94495799999868
 20
-98.88397800000162
 10
215.9492759999987
 20
-98.86035600000162
 10
215.9518159999987
 20
-98.83622600000162
 10
215.95232399999867
 20
-98.81158800000162
 10
215.9505459999987
 20
-98.78644200000161
 10
215.9464819999987
 20
-98.76104200000161
 10
215.9401319999987
 20
-98.7356420000016
 10
215.9314959999987
 20
-98.7099880000016
 10
215.92031999999872
 20
-98.68433400000161
 10
215.6472699999987
 20
-98.0887040000016
 10
215.4097799999987
 20
-97.5060280000016
 10
215.20683399999874
 20
-96.93630600000161
 10
215.03690799999873
 20
-96.37979200000161
 10
214.89873199999872
 20
-95.83648600000161
 10
214.79128999999872
 20
-95.3066420000016
 10
214.71305799999874
 20
-94.79026000000161
 10
214.66301999999874
 20
-94.2875940000016
 10
214.63965199999873
 20
-93.7986440000016
 10
214.64193799999873
 20
-93.32341000000162
 10
214.66860799999876
 20
-92.86214600000162
 10
214.71813799999876
 20
-92.41485200000162
 10
214.78951199999875
 20
-91.98178200000162
 10
214.88145999999873
 20
-91.56293600000161
 10
214.99271199999873
 20
-91.15856800000162
 10
215.12199799999874
 20
-90.76842400000162
 10
215.26804799999874
 20
-90.39301200000162
 10
215.42984599999872
 20
-90.03207800000162
 10
215.60586799999874
 20
-89.68613000000161
 10
215.79484399999873
 20
-89.35491400000161
 10
215.99575799999874
 20
-89.03868400000161
 10
216.20708599999875
 20
-88.73744000000163
 10
216.42781199999877
 20
-88.45143600000162
 10
216.65666599999875
 20
-88.18067200000164
 10
216.89212399999874
 20
-87.92540200000164
 10
217.13316999999873
 20
-87.68562600000163
 10
217.37853399999875
 20
-87.46159800000163
 10
217.62694599999872
 20
-87.25306400000163
 10
217.87713599999873
 20
-87.06053200000163
 10
218.12783399999873
 20
-86.88374800000162
 10
218.37776999999872
 20
-86.72322000000162
 10
218.62567399999872
 20
-86.57869400000162
 10
218.74251399999875
 20
-86.51544800000161
 10
218.86011599999873
 20
-86.45423400000162
 10
218.97873399999872
 20
-86.39505200000161
 10
219.09811399999873
 20
-86.33764800000161
 10
219.21825599999872
 20
-86.2822760000016
 10
219.33941399999873
 20
-86.22893600000161
 10
219.46133399999871
 20
-86.17762800000162
 10
219.5840159999987
 20
-86.12835200000161
 10
219.70745999999872
 20
-86.08110800000162
 10
219.83141199999872
 20
-86.03589600000161
 10
219.9561259999987
 20
-85.99271600000161
 10
220.08160199999872
 20
-85.9513140000016
 10
220.2075859999987
 20
-85.91194400000161
 10
220.33407799999873
 20
-85.87460600000162
 10
220.46133199999872
 20
-85.83930000000161
 10
220.58909399999874
 20
-85.80602600000162
 10
220.71736399999872
 20
-85.77453000000162
 10
220.84614199999874
 20
-85.74506600000161
 10
220.97542799999871
 20
-85.71763400000162
 10
221.10496799999873
 20
-85.69223400000162
 10
221.23501599999872
 20
-85.66861200000162
 10
221.36531799999872
 20
-85.64702200000161
 10
221.49612799999872
 20
-85.62746400000161
 10
221.6271919999987
 20
-85.6099380000016
 10
221.75850999999872
 20
-85.5941900000016
 10
221.8903359999987
 20
-85.58047400000162
 10
222.0224159999987
 20
-85.56879000000161
 10
222.15449599999872
 20
-85.55888400000163
 10
222.2868299999987
 20
-85.55101000000161
 10
222.4194179999987
 20
-85.54516800000161
 10
222.5522599999987
 20
-85.54110400000161
 10
222.68510199999872
 20
-85.53907200000161
 10
223.46107199999872
 20
-85.53272200000161
 10
224.2370419999987
 20
-85.52637200000163
 10
225.0130119999987
 20
-85.52002200000163
 10
225.78898199999867
 20
-85.51367200000163
 10
226.56495199999867
 20
-85.50732200000164
 10
227.34092199999864
 20
-85.50097200000165
 10
228.11689199999864
 20
-85.49462200000166
 10
228.89286199999862
 20
-85.48827200000166
 10
229.66883199999862
 20
-85.48192200000166
 10
230.4448019999986
 20
-85.47557200000166
 10
231.2207719999986
 20
-85.46922200000168
 10
231.99674199999856
 20
-85.46287200000168
 10
232.77271199999856
 20
-85.45652200000168
 10
233.54868199999854
 20
-85.45017200000169
 10
234.32465199999854
 20
-85.4438220000017
 10
235.1006219999985
 20
-85.4374720000017
 10
235.8765919999985
 20
-85.43112200000171
 10
236.65256199999848
 20
-85.42477200000171
 10
237.42853199999848
 20
-85.41842200000173
 10
238.20450199999846
 20
-85.41207200000173
 10
238.98047199999846
 20
-85.40572200000173
 10
239.75644199999846
 20
-85.39937200000173
 10
240.53241199999843
 20
-85.39302200000175
 10
241.30838199999843
 20
-85.38667200000175
 10
242.0843519999984
 20
-85.38032200000175
 10
242.8603219999984
 20
-85.37397200000176
 10
243.63629199999838
 20
-85.36762200000177
 10
244.41226199999838
 20
-85.36127200000178
 10
245.18823199999835
 20
-85.35492200000178
 10
245.96420199999835
 20
-85.34857200000178
 10
246.74017199999832
 20
-85.3422220000018
 10
247.51614199999833
 20
-85.3358720000018
 10
247.77776199999832
 20
-85.0176100000018
 10
248.0574159999983
 20
-84.7211920000018
 10
248.3533259999983
 20
-84.44560200000181
 10
248.6637139999983
 20
-84.19007800000182
 10
248.9870559999983
 20
-83.95411200000183
 10
249.3213199999983
 20
-83.73668800000182
 10
249.6649819999983
 20
-83.53704400000183
 10
250.0162639999983
 20
-83.35467200000183
 10
250.3736419999983
 20
-83.18855600000182
 10
250.73508399999832
 20
-83.03818800000182
 10
251.09906599999832
 20
-82.90255200000183
 10
251.46380999999832
 20
-82.78088600000183
 10
251.82753799999833
 20
-82.67268200000184
 10
252.18872599999833
 20
-82.57692400000184
 10
252.54534199999833
 20
-82.49310400000184
 10
252.89586199999835
 20
-82.42020600000184
 10
253.23850799999835
 20
-82.35772200000184
 10
253.57150199999836
 20
-82.30463600000185
 10
253.89306599999836
 20
-82.26044000000185
 10
254.20167599999834
 20
-82.22411800000187
 10
254.49555399999835
 20
-82.19516200000187
 10
254.77292199999835
 20
-82.17281000000186
 10
255.03200199999836
 20
-82.15604600000187
 10
255.27126999999837
 20
-82.14436200000186
 10
255.48869399999836
 20
-82.13674200000187
 10
255.68274999999835
 20
-82.13267800000187
 10
255.85165999999836
 20
-82.13140800000187
 10
255.99389999999835
 20
-82.13191600000188
 10
256.10743799999835
 20
-82.13369400000188
 10
256.19074999999833
 20
-82.13598000000188
 10
256.24205799999834
 20
-82.13775800000188
 10
256.2595839999983
 20
-82.13852000000188
 10
257.08254399999834
 20
-82.14360000000187
 10
257.9055039999983
 20
-82.14868000000187
 10
258.7284639999983
 20
-82.15376000000187
 10
259.55142399999835
 20
-82.15884000000186
 10
260.3743839999983
 20
-82.16392000000185
 10
261.19734399999834
 20
-82.16900000000184
 10
262.02030399999836
 20
-82.17408000000185
 10
262.8432639999983
 20
-82.17916000000184
 10
263.66622399999835
 20
-82.18424000000184
 10
264.4891839999983
 20
-82.18932000000183
 10
265.31214399999834
 20
-82.19440000000182
 10
266.13510399999836
 20
-82.19948000000183
 10
266.95806399999833
 20
-82.20456000000182
 10
267.78102399999835
 20
-82.20964000000181
 10
268.6039839999984
 20
-82.2147200000018
 10
269.42694399999834
 20
-82.2198000000018
 10
270.24990399999837
 20
-82.2248800000018
 10
271.07286399999833
 20
-82.2299600000018
 10
271.89582399999836
 20
-82.23504000000179
 10
272.7187839999984
 20
-82.24012000000178
 10
273.54174399999835
 20
-82.24520000000177
 10
274.36470399999837
 20
-82.25028000000178
 10
275.1876639999984
 20
-82.25536000000177
 10
276.01062399999836
 20
-82.26044000000176
 10
276.8335839999984
 20
-82.26552000000176
 10
277.6565439999984
 20
-82.27060000000176
 10
278.47950399999837
 20
-82.27568000000176
 10
279.3024639999984
 20
-82.28076000000175
 10
280.12542399999836
 20
-82.28584000000174
 10
280.9483839999984
 20
-82.29092000000173
 10
281.7713439999984
 20
-82.29600000000174
 10
282.5943039999984
 20
-82.30108000000173
 10
282.6311339999984
 20
-82.30031800000174
 10
282.66745599999837
 20
-82.29777800000174
 10
282.70326999999844
 20
-82.29346000000173
 10
282.7385759999984
 20
-82.28736400000173
 10
282.77311999999836
 20
-82.27949000000173
 10
282.8071559999984
 20
-82.27009200000174
 10
282.8404299999984
 20
-82.25891600000175
 10
282.8729419999984
 20
-82.24621600000174
 10
282.90469199999836
 20
-82.23199200000174
 10
282.9356799999984
 20
-82.21624400000174
 10
282.9656519999984
 20
-82.19922600000174
 10
282.9946079999984
 20
-82.18068400000175
 10
283.0228019999984
 20
-82.16087200000175
 10
283.0499799999984
 20
-82.13979000000175
 10
283.07588799999843
 20
-82.11743800000174
 10
283.10077999999845
 20
-82.09381600000174
 10
283.12440199999844
 20
-82.06917800000174
 10
283.14700799999844
 20
-82.04327000000174
 10
283.16834399999846
 20
-82.01634600000175
 10
283.18840999999844
 20
-81.98840600000175
 10
283.20695199999847
 20
-81.95945000000175
 10
283.22422399999846
 20
-81.92947800000175
 10
283.23997199999843
 20
-81.89874400000176
 10
283.2544499999984
 20
-81.86699400000175
 10
283.2674039999984
 20
-81.83448200000176
 10
283.27857999999844
 20
-81.80120800000176
 10
283.28823199999846
 20
-81.76742600000178
 10
283.2963599999984
 20
-81.73288200000177
 10
283.30270999999846
 20
-81.69757600000176
 10
283.30728199999845
 20
-81.66176200000176
 10
283.31007599999845
 20
-81.62544000000176
 10
283.31109199999844
 20
-81.58861000000176
 10
283.31109199999844
 20
-81.46796000000177
 10
283.31109199999844
 20
-81.34731000000176
 10
283.31109199999844
 20
-81.22666000000176
 10
283.31109199999844
 20
-81.10601000000175
 10
283.31109199999844
 20
-80.98536000000175
 10
283.31109199999844
 20
-80.86471000000174
 10
283.31109199999844
 20
-80.74406000000172
 10
283.31109199999844
 20
-80.62341000000173
 10
283.31109199999844
 20
-80.50276000000171
 10
283.31109199999844
 20
-80.38211000000172
 10
283.31109199999844
 20
-80.2614600000017
 10
283.31109199999844
 20
-80.14081000000171
 10
283.31109199999844
 20
-80.0201600000017
 10
283.31109199999844
 20
-79.89951000000168
 10
283.31109199999844
 20
-79.77886000000169
 10
283.31109199999844
 20
-79.65821000000167
 10
283.31109199999844
 20
-79.53756000000168
 10
283.31109199999844
 20
-79.41691000000166
 10
283.31109199999844
 20
-79.29626000000167
 10
283.31109199999844
 20
-79.17561000000165
 10
283.31109199999844
 20
-79.05496000000164
 10
283.31109199999844
 20
-78.93431000000164
 10
283.31109199999844
 20
-78.81366000000163
 10
283.31109199999844
 20
-78.69301000000164
 10
283.31109199999844
 20
-78.57236000000162
 10
283.31109199999844
 20
-78.45171000000163
 10
283.31109199999844
 20
-78.33106000000161
 10
283.31109199999844
 20
-78.21041000000162
 10
283.31109199999844
 20
-78.0897600000016
 10
283.31109199999844
 20
-77.96911000000159
 10
283.31109199999844
 20
-77.8484600000016
 10
283.31109199999844
 20
-77.72781000000158
 10
279.9928359999984
 20
-77.73085800000159
 10
276.6745799999984
 20
-77.73390600000158
 10
273.35657799999836
 20
-77.73695400000159
 10
270.03832199999835
 20
-77.74000200000158
 10
266.7200659999983
 20
-77.74305000000159
 10
263.4020639999983
 20
-77.74609800000158
 10
260.08380799999827
 20
-77.74914600000159
 10
256.7655519999983
 20
-77.75219400000158
 10
253.44729599999832
 20
-77.75524200000159
 10
250.12903999999833
 20
-77.7582900000016
 10
246.81078399999834
 20
-77.76133800000159
 10
243.49252799999834
 20
-77.7643860000016
 10
240.17427199999835
 20
-77.76743400000159
 10
236.85601599999836
 20
-77.77048200000159
 10
233.53775999999837
 20
-77.77353000000159
 10
230.21950399999838
 20
-77.77657800000159
 10
226.9012479999984
 20
-77.77962600000158
 10
223.5829919999984
 20
-77.78267400000159
 10
220.2647359999984
 20
-77.78572200000158
 10
216.94647999999842
 20
-77.78877000000159
 10
213.62822399999843
 20
-77.79181800000158
 10
210.30996799999843
 20
-77.79486600000159
 10
206.99171199999844
 20
-77.79791400000158
 10
203.67345599999845
 20
-77.80096200000159
 10
200.35519999999846
 20
-77.80401000000158
 10
197.03694399999847
 20
-77.80705800000159
 10
193.71868799999848
 20
-77.81010600000158
 10
190.4004319999985
 20
-77.81315400000159
 10
187.0821759999985
 20
-77.8162020000016
 10
183.7639199999985
 20
-77.81925000000159
 10
180.44566399999852
 20
-77.8222980000016
 10
177.12740799999852
 20
-77.82534600000159
  0
LWPOLYLINE
  5
37
330
17
100
AcDbEntity
  8
0
100
AcDbPolyline
 90
65
 70
0
 10
172.5254359999985
 20
-87.16467200000159
 10
172.3450959999985
 20
-87.15578200000158
 10
172.1764399999985
 20
-87.13012800000159
 10
172.01946799999848
 20
-87.08847200000159
 10
171.8741799999985
 20
-87.03233800000159
 10
171.74032199999849
 20
-86.9624880000016
 10
171.61814799999848
 20
-86.88019200000159
 10
171.5076579999985
 20
-86.7867200000016
 10
171.4088519999985
 20
-86.68308800000159
 10
171.3217299999985
 20
-86.57031200000158
 10
171.2462919999985
 20
-86.44966200000158
 10
171.1822839999985
 20
-86.32240800000159
 10
171.1299599999985
 20
-86.18956600000158
 10
171.0893199999985
 20
-86.05215200000158
 10
171.06036399999851
 20
-85.91118200000157
 10
171.0430919999985
 20
-85.76818000000158
 10
171.0372499999985
 20
-85.62390800000158
 10
171.0430919999985
 20
-85.47963600000159
 10
171.0606179999985
 20
-85.3366340000016
 10
171.0898279999985
 20
-85.19566400000159
 10
171.1304679999985
 20
-85.05825000000159
 10
171.1827919999985
 20
-84.92540800000158
 10
171.24679999999847
 20
-84.79815400000159
 10
171.32249199999848
 20
-84.67750400000158
 10
171.40961399999847
 20
-84.56498200000159
 10
171.50841999999847
 20
-84.46135000000159
 10
171.61890999999846
 20
-84.36787800000158
 10
171.74108399999847
 20
-84.28558200000158
 10
171.87468799999846
 20
-84.2157320000016
 10
172.01997599999845
 20
-84.15959800000158
 10
172.17694799999848
 20
-84.11794200000159
 10
172.34534999999846
 20
-84.09228800000159
 10
172.52543599999845
 20
-84.08339800000158
 10
172.70577599999845
 20
-84.09228800000159
 10
172.87443199999845
 20
-84.11794200000159
 10
173.03140399999847
 20
-84.15959800000158
 10
173.17669199999847
 20
-84.2157320000016
 10
173.31054999999847
 20
-84.28558200000158
 10
173.43272399999847
 20
-84.36787800000158
 10
173.54321399999847
 20
-84.46135000000159
 10
173.64201999999847
 20
-84.56498200000159
 10
173.72914199999846
 20
-84.67750400000158
 10
173.80457999999848
 20
-84.79815400000159
 10
173.86858799999845
 20
-84.92540800000158
 10
173.92091199999845
 20
-85.05825000000159
 10
173.96155199999845
 20
-85.19566400000159
 10
173.99050799999847
 20
-85.3366340000016
 10
174.00777999999846
 20
-85.47963600000159
 10
174.01362199999846
 20
-85.62390800000158
 10
174.00777999999846
 20
-85.76818000000158
 10
173.99025399999846
 20
-85.91118200000157
 10
173.96104399999845
 20
-86.05215200000158
 10
173.92040399999848
 20
-86.18956600000158
 10
173.86807999999846
 20
-86.32240800000159
 10
173.80407199999848
 20
-86.44966200000158
 10
173.72837999999848
 20
-86.57031200000158
 10
173.6412579999985
 20
-86.68308800000159
 10
173.5424519999985
 20
-86.7867200000016
 10
173.4319619999985
 20
-86.88019200000159
 10
173.3097879999985
 20
-86.9624880000016
 10
173.1761839999985
 20
-87.03233800000159
 10
173.0308959999985
 20
-87.08847200000159
 10
172.8739239999985
 20
-87.13012800000159
 10
172.7055219999985
 20
-87.15578200000158
 10
172.5254359999985
 20
-87.16467200000159
  0
LWPOLYLINE
  5
38
330
17
100
AcDbEntity
  8
0
100
AcDbPolyline
 90
65
 70
0
 10
179.9610319999985
 20
-82.97468800000159
 10
179.7806919999985
 20
-82.96579800000158
 10
179.6120359999985
 20
-82.9401440000016
 10
179.4550639999985
 20
-82.89848800000159
 10
179.3097759999985
 20
-82.84235400000159
 10
179.1759179999985
 20
-82.7725040000016
 10
179.0537439999985
 20
-82.69020800000159
 10
178.9432539999985
 20
-82.5967360000016
 10
178.8444479999985
 20
-82.4931040000016
 10
178.7573259999985
 20
-82.3805820000016
 10
178.6818879999985
 20
-82.25993200000158
 10
178.6178799999985
 20
-82.13267800000159
 10
178.5655559999985
 20
-81.9998360000016
 10
178.5249159999985
 20
-81.86242200000159
 10
178.4959599999985
 20
-81.72145200000159
 10
178.4786879999985
 20
-81.5784500000016
 10
178.4728459999985
 20
-81.4341780000016
 10
178.4786879999985
 20
-81.2899060000016
 10
178.4962139999985
 20
-81.1469040000016
 10
178.5254239999985
 20
-81.0059340000016
 10
178.5663179999985
 20
-80.86852000000161
 10
178.6186419999985
 20
-80.7356780000016
 10
178.6826499999985
 20
-80.6084240000016
 10
178.75834199999846
 20
-80.4877740000016
 10
178.84546399999846
 20
-80.3749980000016
 10
178.94426999999848
 20
-80.27136600000159
 10
179.05475999999845
 20
-80.17789400000159
 10
179.17693399999845
 20
-80.09559800000159
 10
179.31053799999845
 20
-80.0257480000016
 10
179.45582599999844
 20
-79.96961400000158
 10
179.61279799999846
 20
-79.9279580000016
 10
179.78119999999845
 20
-79.90230400000159
 10
179.96128599999844
 20
-79.89341400000158
 10
180.14162599999847
 20
-79.90230400000159
 10
180.31028199999847
 20
-79.9279580000016
 10
180.46725399999846
 20
-79.96961400000158
 10
180.61254199999846
 20
-80.0257480000016
 10
180.7463999999985
 20
-80.09559800000159
 10
180.8685739999985
 20
-80.17789400000159
 10
180.97906399999846
 20
-80.27136600000159
 10
181.07786999999846
 20
-80.3749980000016
 10
181.16499199999845
 20
-80.4877740000016
 10
181.24042999999847
 20
-80.6084240000016
 10
181.30443799999844
 20
-80.7356780000016
 10
181.35676199999844
 20
-80.86852000000161
 10
181.39740199999844
 20
-81.0059340000016
 10
181.42635799999846
 20
-81.1469040000016
 10
181.44362999999845
 20
-81.2899060000016
 10
181.44947199999845
 20
-81.4341780000016
 10
181.44362999999845
 20
-81.5784500000016
 10
181.42610399999845
 20
-81.72145200000159
 10
181.39689399999847
 20
-81.86242200000159
 10
181.35625399999847
 20
-81.9998360000016
 10
181.30392999999847
 20
-82.13267800000159
 10
181.23992199999847
 20
-82.25993200000158
 10
181.16422999999847
 20
-82.3805820000016
 10
181.07710799999847
 20
-82.4931040000016
 10
180.97830199999848
 20
-82.5967360000016
 10
180.8678119999985
 20
-82.69020800000159
 10
180.7458919999985
 20
-82.7725040000016
 10
180.6122879999985
 20
-82.84235400000159
 10
180.4669999999985
 20
-82.89848800000159
 10
180.31002799999848
 20
-82.9401440000016
 10
180.1416259999985
 20
-82.96579800000158
 10
179.9615399999985
 20
-82.97468800000159
  0
LWPOLYLINE
  5
39
330
17
100
AcDbEntity
  8
0
100
AcDbPolyline
 90
129
 70
0
 10
235.5949059999985
 20
-83.6902060000016
 10
235.5143879999985
 20
-83.6889360000016
 10
235.4353939999985
 20
-83.68487200000159
 10
235.3581779999985
 20
-83.6782680000016
 10
235.28273999999848
 20
-83.66912400000159
 10
235.2090799999985
 20
-83.65769400000158
 10
235.1371979999985
 20
-83.64372400000158
 10
235.0670939999985
 20
-83.62746800000158
 10
234.99851399999852
 20
-83.60892600000159
 10
234.9317119999985
 20
-83.58809800000158
 10
234.8666879999985
 20
-83.5652380000016
 10
234.8034419999985
 20
-83.54034600000159
 10
234.74197399999852
 20
-83.51316800000158
 10
234.68202999999852
 20
-83.48421200000159
 10
234.6238639999985
 20
-83.45322400000158
 10
234.56747599999852
 20
-83.42045800000157
 10
234.5128659999985
 20
-83.38566000000158
 10
234.4600339999985
 20
-83.34908400000158
 10
234.4087259999985
 20
-83.31098400000158
 10
234.3591959999985
 20
-83.2711060000016
 10
234.3114439999985
 20
-83.22970400000159
 10
234.2654699999985
 20
-83.1867780000016
 10
234.2212739999985
 20
-83.14232800000158
 10
234.1786019999985
 20
-83.0963540000016
 10
234.1377079999985
 20
-83.04911000000159
 10
234.09859199999852
 20
-83.00059600000161
 10
234.06125399999848
 20
-82.95081200000159
 10
234.0254399999985
 20
-82.8997580000016
 10
233.9914039999985
 20
-82.84743400000158
 10
233.95914599999853
 20
-82.79409400000159
 10
233.92866599999851
 20
-82.7397380000016
 10
233.8999639999985
 20
-82.68436600000159
 10
233.8727859999985
 20
-82.62823200000159
 10
233.78667999999848
 20
-82.57514600000158
 10
233.7069239999985
 20
-82.51571000000159
 10
233.6335179999985
 20
-82.45043200000158
 10
233.5664619999985
 20
-82.37956600000159
 10
233.5060099999985
 20
-82.30387400000158
 10
233.4519079999985
 20
-82.2236100000016
 10
233.4041559999985
 20
-82.1395360000016
 10
233.3627539999985
 20
-82.05190600000158
 10
233.32770199999848
 20
-81.96148200000158
 10
233.29899999999847
 20
-81.86851800000159
 10
233.2766479999985
 20
-81.77352200000159
 10
233.26064599999847
 20
-81.6770020000016
 10
233.25099399999849
 20
-81.57946600000159
 10
233.2479459999985
 20
-81.48167600000158
 10
233.2512479999985
 20
-81.38388600000158
 10
233.26089999999851
 20
-81.28660400000159
 10
233.2769019999985
 20
-81.19008400000159
 10
233.29925399999848
 20
-81.09508800000158
 10
233.32795599999852
 20
-81.00212400000159
 10
233.36300799999853
 20
-80.91170000000159
 10
233.40440999999853
 20
-80.8243240000016
 10
233.4521619999985
 20
-80.7402500000016
 10
233.5062639999985
 20
-80.6602400000016
 10
233.56671599999854
 20
-80.58454800000159
 10
233.63377199999852
 20
-80.51393600000158
 10
233.70717799999852
 20
-80.44865800000159
 10
233.78693399999852
 20
-80.38947600000158
 10
233.87303999999853
 20
-80.33664400000157
 10
233.96549599999852
 20
-80.29067000000158
 10
234.06430199999855
 20
-80.25231600000157
 10
234.16945799999854
 20
-80.22183600000157
 10
234.28096399999853
 20
-80.19973800000157
 10
234.31093599999855
 20
-80.17205200000159
 10
234.34166999999854
 20
-80.14512800000159
 10
234.37291199999854
 20
-80.1187120000016
 10
234.40491599999854
 20
-80.09305800000159
 10
234.43768199999855
 20
-80.06816600000158
 10
234.47120999999854
 20
-80.04403600000158
 10
234.50549999999853
 20
-80.02041400000158
 10
234.54055199999854
 20
-79.99755400000159
 10
234.57611199999855
 20
-79.97545600000159
 10
234.61243399999853
 20
-79.95412000000158
 10
234.64951799999852
 20
-79.93354600000158
 10
234.68736399999852
 20
-79.91373400000158
 10
234.72597199999854
 20
-79.89493800000159
 10
234.76534199999853
 20
-79.87690400000157
 10
234.80521999999854
 20
-79.85963200000158
 10
234.84585999999854
 20
-79.84337600000157
 10
234.88726199999854
 20
-79.82788200000158
 10
234.92942599999856
 20
-79.81340400000157
 10
234.97235199999855
 20
-79.79968800000158
 10
235.01603999999855
 20
-79.78698800000159
 10
235.06023599999855
 20
-79.77505000000157
 10
235.10519399999856
 20
-79.76412800000158
 10
235.15091399999855
 20
-79.75422200000158
 10
235.19739599999855
 20
-79.74533200000157
 10
235.24463999999855
 20
-79.73745800000157
 10
235.29239199999856
 20
-79.73060000000157
 10
235.34090599999857
 20
-79.72475800000156
 10
235.39018199999853
 20
-79.71993200000156
 10
235.44021999999853
 20
-79.71612200000156
 10
235.49101999999857
 20
-79.71332800000155
 10
235.54258199999856
 20
-79.71155000000155
 10
235.59465199999858
 20
-79.71104200000156
 10
235.82756999999856
 20
-79.72247200000156
 10
236.04550199999855
 20
-79.75574600000155
 10
236.24819399999856
 20
-79.80934000000155
 10
236.43589999999855
 20
-79.88198400000155
 10
236.60861999999855
 20
-79.97215400000157
 10
236.76635399999856
 20
-80.07832600000157
 10
236.90910199999854
 20
-80.19897600000157
 10
237.03660999999855
 20
-80.33283400000157
 10
237.14913199999853
 20
-80.47837600000156
 10
237.24666799999855
 20
-80.63407800000157
 10
237.32921799999855
 20
-80.79841600000155
 10
237.39678199999855
 20
-80.97012000000156
 10
237.44935999999853
 20
-81.14766600000155
 10
237.48669799999854
 20
-81.32953000000155
 10
237.50904999999855
 20
-81.51444200000157
 10
237.51641599999854
 20
-81.70062400000157
 10
237.50879599999854
 20
-81.88680600000156
 10
237.48618999999854
 20
-82.07171800000157
 10
237.44859799999853
 20
-82.25358200000157
 10
237.39601999999854
 20
-82.43112800000156
 10
237.32845599999854
 20
-82.60283200000157
 10
237.24590599999854
 20
-82.76717000000157
 10
237.14836999999852
 20
-82.92287200000156
 10
237.03584799999854
 20
-83.06841400000155
 10
236.90808599999852
 20
-83.20227200000156
 10
236.7653379999985
 20
-83.32292200000157
 10
236.60760399999853
 20
-83.42909400000157
 10
236.43488399999853
 20
-83.51926400000157
 10
236.2471779999985
 20
-83.59190800000157
 10
236.04448599999853
 20
-83.64550200000157
 10
235.82680799999852
 20
-83.67877600000156
 10
235.59414399999852
 20
-83.69020600000157
  0
LWPOLYLINE
  5
3A
330
17
100
AcDbEntity
  8
0
100
AcDbPolyline
 90
97
 70
0
 10
239.19179999999852
 20
-88.12174400000157
 10
239.2090719999985
 20
-88.11844200000158
 10
239.26037999999852
 20
-88.10853600000158
 10
239.34419999999852
 20
-88.09304200000159
 10
239.4590079999985
 20
-88.07246800000158
 10
239.60378799999853
 20
-88.04757600000157
 10
239.77701599999853
 20
-88.01887400000157
 10
239.97716799999853
 20
-87.98712400000157
 10
240.20297399999853
 20
-87.95283400000157
 10
240.45316399999854
 20
-87.91676600000157
 10
240.72646799999856
 20
-87.87968200000158
 10
241.02136199999853
 20
-87.84209000000158
 10
241.33657599999853
 20
-87.80475200000157
 10
241.67058599999854
 20
-87.76843000000157
 10
242.02212199999855
 20
-87.73363200000158
 10
242.38991399999856
 20
-87.70086600000157
 10
242.77269199999853
 20
-87.67114800000157
 10
243.1689319999985
 20
-87.64473200000157
 10
243.5771099999985
 20
-87.62263400000158
 10
243.9962099999985
 20
-87.60536200000158
 10
244.4247079999985
 20
-87.59367800000159
 10
244.8610799999985
 20
-87.58809000000159
 10
245.3043099999985
 20
-87.58936000000158
 10
245.75287399999849
 20
-87.59799600000159
 10
246.20524799999848
 20
-87.61476000000158
 10
246.6604159999985
 20
-87.64041400000157
 10
247.1165999999985
 20
-87.67546600000156
 10
247.5727839999985
 20
-87.72067800000157
 10
248.0274439999985
 20
-87.77681200000157
 10
248.4793099999985
 20
-87.84437600000157
 10
248.92685799999848
 20
-87.92387800000157
 10
249.36907199999848
 20
-88.01633400000156
 10
249.80417399999848
 20
-88.12199800000157
 10
249.79375999999846
 20
-88.12885600000156
 10
249.76327999999845
 20
-88.14968400000156
 10
249.71425799999847
 20
-88.18448200000155
 10
249.64770999999848
 20
-88.23325000000156
 10
249.56515999999846
 20
-88.29598800000156
 10
249.46787799999845
 20
-88.37269600000157
 10
249.35713399999844
 20
-88.46337400000158
 10
249.23419799999843
 20
-88.56802200000158
 10
249.10059399999844
 20
-88.68638600000158
 10
248.95733799999846
 20
-88.81872000000158
 10
248.80595399999845
 20
-88.96502400000158
 10
248.64771199999845
 20
-89.12529800000158
 10
248.48362799999845
 20
-89.29954200000157
 10
248.31522599999846
 20
-89.48775600000157
 10
248.14402999999845
 20
-89.68994000000157
 10
247.97105599999844
 20
-89.90584000000158
 10
247.79782799999845
 20
-90.13571000000157
 10
247.62536199999846
 20
-90.37955000000156
 10
247.45518199999847
 20
-90.63736000000155
 10
247.28855799999846
 20
-90.90914000000156
 10
247.12675999999848
 20
-91.19489000000155
 10
246.97105799999846
 20
-91.49461000000156
 10
246.82297599999848
 20
-91.80830000000155
 10
246.68352999999848
 20
-92.13570600000155
 10
246.55424399999848
 20
-92.47708200000156
 10
246.43613399999848
 20
-92.83242800000156
 10
246.3307239999985
 20
-93.20174400000155
 10
246.2392839999985
 20
-93.58503000000155
 10
246.16333799999848
 20
-93.98228600000157
 10
246.10390199999847
 20
-94.39351200000158
 10
246.06249999999847
 20
-94.81870800000156
 10
246.04014799999848
 20
-95.25762000000157
 10
246.0335439999985
 20
-95.24009400000156
 10
246.0134779999985
 20
-95.18904000000155
 10
245.9802039999985
 20
-95.10623600000156
 10
245.93346799999853
 20
-94.99396800000154
 10
245.87352399999853
 20
-94.85401400000156
 10
245.80011799999852
 20
-94.68866000000155
 10
245.71350399999852
 20
-94.49993800000155
 10
245.61342799999852
 20
-94.28962600000156
 10
245.49988999999852
 20
-94.06001000000155
 10
245.37314399999852
 20
-93.81312200000157
 10
245.23293599999852
 20
-93.55099400000157
 10
245.0792659999985
 20
-93.27540400000157
 10
244.9123879999985
 20
-92.98863800000157
 10
244.73204799999849
 20
-92.69272800000157
 10
244.53824599999848
 20
-92.38970600000157
 10
244.33123599999846
 20
-92.08160400000156
 10
244.11076399999845
 20
-91.77045400000156
 10
243.87682999999845
 20
-91.45828800000156
 10
243.62943399999844
 20
-91.14713800000156
 10
243.36857599999843
 20
-90.83903600000156
 10
243.09450999999842
 20
-90.53601400000156
 10
242.80698199999844
 20
-90.24010400000155
 10
242.50599199999846
 20
-89.95333800000154
 10
242.19153999999844
 20
-89.67774800000154
 10
241.86362599999842
 20
-89.41536600000154
 10
241.52224999999842
 20
-89.16847800000156
 10
241.1674119999984
 20
-88.93886200000155
 10
240.7991119999984
 20
-88.72855000000156
 10
240.41734999999838
 20
-88.53957400000155
 10
240.02212599999837
 20
-88.37422000000154
 10
239.61343999999835
 20
-88.23426600000155
 10
239.19129199999836
 20
-88.12174400000156
  0
LWPOLYLINE
  5
3B
330
17
100
AcDbEntity
  8
0
100
AcDbPolyline
 90
129
 70
0
 10
207.82457799999835
 20
-102.94264400000156
 10
207.82940399999836
 20
-102.94543800000157
 10
207.84362799999838
 20
-102.95331200000157
 10
207.86674199999837
 20
-102.96575800000156
 10
207.89823799999837
 20
-102.98277600000156
 10
207.93760799999836
 20
-103.00360400000156
 10
207.98434399999837
 20
-103.02824200000155
 10
208.03819199999836
 20
-103.05592800000156
 10
208.09838999999835
 20
-103.08640800000155
 10
208.16468399999835
 20
-103.11942800000155
 10
208.23656599999833
 20
-103.15448000000154
 10
208.31352799999834
 20
-103.19131000000154
 10
208.39531599999833
 20
-103.22941000000154
 10
208.48116799999835
 20
-103.26852600000154
 10
208.57082999999832
 20
-103.30815000000153
 10
208.66353999999833
 20
-103.34777400000154
 10
208.7590439999983
 20
-103.38714400000153
 10
208.85683399999832
 20
-103.42600600000154
 10
208.95665599999833
 20
-103.46385200000154
 10
209.05774799999833
 20
-103.50042800000153
 10
209.15960199999833
 20
-103.53522600000154
 10
209.26196399999833
 20
-103.56773800000154
 10
209.36432599999833
 20
-103.59771000000154
 10
209.46617999999833
 20
-103.62488800000155
 10
209.56701799999834
 20
-103.64876400000153
 10
209.66633199999833
 20
-103.66883000000155
 10
209.76386799999833
 20
-103.68483200000153
 10
209.85886399999833
 20
-103.69651600000154
 10
209.95106599999835
 20
-103.70337400000153
 10
210.03996599999834
 20
-103.70489800000152
 10
210.12505599999835
 20
-103.70083400000152
 10
210.20582799999835
 20
-103.69092800000152
 10
210.28177399999834
 20
-103.67467200000152
 10
210.28456799999833
 20
-103.67975200000151
 10
210.29320399999833
 20
-103.69423000000153
 10
210.30768199999835
 20
-103.71759800000152
 10
210.32800199999835
 20
-103.74934800000152
 10
210.35416399999835
 20
-103.78897200000152
 10
210.38616799999835
 20
-103.83596200000152
 10
210.42401399999832
 20
-103.88955600000152
 10
210.46744799999834
 20
-103.94924600000152
 10
210.51672399999833
 20
-104.01452400000153
 10
210.57184199999833
 20
-104.08488200000153
 10
210.63280199999835
 20
-104.15955800000151
 10
210.69934999999833
 20
-104.23804400000152
 10
210.77173999999832
 20
-104.31983200000153
 10
210.8499719999983
 20
-104.40441400000154
 10
210.93379199999833
 20
-104.49102800000153
 10
211.0234539999983
 20
-104.57916600000152
 10
211.1187039999983
 20
-104.66832000000153
 10
211.21979599999833
 20
-104.75798200000153
 10
211.32672999999832
 20
-104.84739000000152
 10
211.43925199999833
 20
-104.93629000000153
 10
211.55761599999832
 20
-105.02392000000154
 10
211.68156799999835
 20
-105.10951800000153
 10
211.81136199999833
 20
-105.19283000000152
 10
211.94674399999835
 20
-105.27309400000152
 10
212.08796799999834
 20
-105.34980200000153
 10
212.23477999999835
 20
-105.42244600000153
 10
212.38743399999834
 20
-105.49026400000153
 10
212.54567599999837
 20
-105.55274800000151
 10
212.70950599999836
 20
-105.60939000000153
 10
212.87917799999835
 20
-105.65968200000152
 10
213.05443799999836
 20
-105.70311600000151
 10
213.23528599999835
 20
-105.73893000000152
 10
213.22029999999836
 20
-105.74375600000153
 10
213.17610399999836
 20
-105.75798000000152
 10
213.10422199999837
 20
-105.78211000000152
 10
213.00617799999839
 20
-105.81640000000152
 10
212.88324199999838
 20
-105.86110400000152
 10
212.73693799999836
 20
-105.91622200000151
 10
212.56853599999837
 20
-105.98226200000151
 10
212.37955999999835
 20
-106.0594780000015
 10
212.17127999999835
 20
-106.1481240000015
 10
211.94496599999835
 20
-106.2484540000015
 10
211.70239599999834
 20
-106.36046800000149
 10
211.44458599999834
 20
-106.48467400000149
 10
211.17331399999836
 20
-106.62132600000149
 10
210.88959599999836
 20
-106.7706780000015
 10
210.59520999999836
 20
-106.93273000000148
 10
210.29142599999835
 20
-107.1079900000015
 10
209.97951399999837
 20
-107.29671200000149
 10
209.66099799999836
 20
-107.49915000000149
 10
209.33714799999836
 20
-107.7153040000015
 10
209.00948799999838
 20
-107.94568200000148
 10
208.67954199999838
 20
-108.1905380000015
 10
208.3483259999984
 20
-108.45012600000149
 10
208.01761799999838
 20
-108.72444600000148
 10
207.6886879999984
 20
-109.01400600000147
 10
207.3628059999984
 20
-109.31906000000149
 10
207.0414959999984
 20
-109.63986200000149
 10
206.7262819999984
 20
-109.97641200000147
 10
206.4184339999984
 20
-110.32921800000148
 10
206.1194759999984
 20
-110.69853400000149
 10
205.83067799999841
 20
-111.08461400000148
 10
205.55330999999842
 20
-111.48745800000148
 10
205.28914999999841
 20
-111.90757400000147
 10
205.36839799999842
 20
-111.62741200000147
 10
205.44764599999843
 20
-111.34725000000148
 10
205.52689399999844
 20
-111.06708800000148
 10
205.60614199999844
 20
-110.78692600000147
 10
205.68538999999845
 20
-110.50676400000147
 10
205.76463799999843
 20
-110.22660200000146
 10
205.84388599999843
 20
-109.94644000000146
 10
205.92313399999844
 20
-109.66627800000145
 10
206.00238199999845
 20
-109.38611600000146
 10
206.08162999999846
 20
-109.10595400000146
 10
206.16087799999846
 20
-108.82579200000146
 10
206.24012599999847
 20
-108.54563000000145
 10
206.31937399999845
 20
-108.26546800000145
 10
206.39862199999845
 20
-107.98530600000144
 10
206.47786999999846
 20
-107.70514400000144
 10
206.55711799999847
 20
-107.42498200000145
 10
206.63636599999847
 20
-107.14482000000145
 10
206.71561399999848
 20
-106.86465800000144
 10
206.7948619999985
 20
-106.58449600000144
 10
206.87410999999847
 20
-106.30433400000143
 10
206.95335799999847
 20
-106.02417200000143
 10
207.03260599999848
 20
-105.74401000000142
 10
207.1118539999985
 20
-105.46384800000143
 10
207.1911019999985
 20
-105.18368600000143
 10
207.2703499999985
 20
-104.90352400000143
 10
207.3495979999985
 20
-104.62336200000142
 10
207.42884599999852
 20
-104.34320000000142
 10
207.5080939999985
 20
-104.06303800000141
 10
207.5873419999985
 20
-103.78287600000141
 10
207.6665899999985
 20
-103.50271400000142
 10
207.7458379999985
 20
-103.22255200000141
 10
207.82508599999852
 20
-102.94239000000141
  0
LWPOLYLINE
  5
3C
330
17
100
AcDbEntity
  8
0
100
AcDbPolyline
 90
193
 70
0
 10
204.48473199999853
 20
-81.87512200000141
 10
204.49158999999855
 20
-82.17611200000141
 10
204.49844799999855
 20
-82.47710200000141
 10
204.50530599999857
 20
-82.77809200000141
 10
204.51216399999856
 20
-83.0790820000014
 10
204.51902199999859
 20
-83.3800720000014
 10
204.5258799999986
 20
-83.6810620000014
 10
204.5327379999986
 20
-83.98205200000142
 10
204.53959599999862
 20
-84.28304200000142
 10
204.54645399999862
 20
-84.58403200000141
 10
204.55331199999864
 20
-84.88502200000141
 10
204.56016999999866
 20
-85.18601200000141
 10
204.56702799999866
 20
-85.48700200000141
 10
204.57388599999868
 20
-85.78799200000141
 10
204.58074399999867
 20
-86.08898200000141
 10
204.5876019999987
 20
-86.38997200000142
 10
204.59445999999872
 20
-86.69096200000142
 10
204.6013179999987
 20
-86.99195200000142
 10
204.60817599999874
 20
-87.29294200000142
 10
204.61503399999873
 20
-87.59393200000142
 10
204.62189199999875
 20
-87.89492200000142
 10
204.62874999999877
 20
-88.19591200000141
 10
204.63560799999877
 20
-88.49690200000141
 10
204.6424659999988
 20
-88.79789200000143
 10
204.64932399999878
 20
-89.09888200000142
 10
204.6561819999988
 20
-89.39987200000142
 10
204.66303999999883
 20
-89.70086200000142
 10
204.66989799999882
 20
-90.00185200000142
 10
204.67675599999885
 20
-90.30284200000142
 10
204.68361399999884
 20
-90.60383200000142
 10
204.69047199999886
 20
-90.90482200000142
 10
204.69732999999889
 20
-91.20581200000143
 10
204.70418799999888
 20
-91.50680200000143
 10
204.6711679999989
 20
-91.54845800000142
 10
204.5746479999989
 20
-91.66961600000141
 10
204.41869199999888
 20
-91.86494200000142
 10
204.20787199999887
 20
-92.12910200000142
 10
203.94625199999888
 20
-92.45701600000142
 10
203.63789599999885
 20
-92.84309600000141
 10
203.28712199999887
 20
-93.28226200000141
 10
202.8982479999989
 20
-93.76918000000141
 10
202.47533799999889
 20
-94.29851600000141
 10
202.02270999999888
 20
-94.8649360000014
 10
201.5446819999989
 20
-95.46310600000142
 10
201.0453179999989
 20
-96.08769200000141
 10
200.5286819999989
 20
-96.73336000000141
 10
199.9993459999989
 20
-97.3947760000014
 10
199.46111999999889
 20
-98.06686000000141
 10
198.9185759999989
 20
-98.7440240000014
 10
198.37577799999892
 20
-99.42118800000141
 10
197.83678999999893
 20
-100.09301800000141
 10
197.30592999999894
 20
-100.75418000000141
 10
196.7875159999989
 20
-101.3990860000014
 10
196.2856119999989
 20
-102.0229100000014
 10
195.8045359999989
 20
-102.6200640000014
 10
195.3486059999989
 20
-103.18521400000141
 10
194.92188599999892
 20
-103.7130260000014
 10
194.52843999999894
 20
-104.1984200000014
 10
194.17258599999894
 20
-104.6358080000014
 10
193.85864199999895
 20
-105.0201100000014
 10
193.59067199999896
 20
-105.3459920000014
 10
193.37299399999898
 20
-105.60812000000139
 10
193.20992599999897
 20
-105.8009060000014
 10
193.10553199999896
 20
-105.9192700000014
 10
193.06412999999898
 20
-105.9581320000014
 10
193.05727199999896
 20
-105.9022520000014
 10
193.05371599999896
 20
-105.74502600000139
 10
193.05346199999897
 20
-105.4933120000014
 10
193.05600199999895
 20
-105.1537140000014
 10
193.06133599999896
 20
-104.7330900000014
 10
193.06920999999895
 20
-104.2380440000014
 10
193.07962399999894
 20
-103.6754340000014
 10
193.09206999999896
 20
-103.0521180000014
 10
193.10654799999895
 20
-102.37470000000141
 10
193.12254999999894
 20
-101.6500380000014
 10
193.14007599999894
 20
-100.88499000000141
 10
193.15887199999892
 20
-100.08616000000141
 10
193.1789379999989
 20
-99.26040600000141
 10
193.1997659999989
 20
-98.41458600000142
 10
193.2213559999989
 20
-97.55530400000143
 10
193.2434539999989
 20
-96.68916400000141
 10
193.26580599999892
 20
-95.82327800000142
 10
193.2881579999989
 20
-94.96425000000141
 10
193.3102559999989
 20
-94.11868400000141
 10
193.3320999999989
 20
-93.29369200000141
 10
193.35343599999888
 20
-92.49562400000141
 10
193.3740099999989
 20
-91.73159200000143
 10
193.39356799999888
 20
-91.00820000000142
 10
193.4118559999989
 20
-90.33230600000142
 10
193.4288739999989
 20
-89.71051400000142
 10
193.4443679999989
 20
-89.14968200000142
 10
193.4580839999989
 20
-88.65666800000142
 10
193.4697679999989
 20
-88.23807600000141
 10
193.4791659999989
 20
-87.90076400000143
 10
193.48602399999893
 20
-87.65133600000142
 10
193.49034199999895
 20
-87.49690400000142
 10
193.49186599999894
 20
-87.44381800000141
 10
193.63410599999892
 20
-87.26322400000141
 10
193.7763459999989
 20
-87.08263000000142
 10
193.9185859999989
 20
-86.9020360000014
 10
194.06082599999888
 20
-86.7214420000014
 10
194.20306599999887
 20
-86.5408480000014
 10
194.34530599999886
 20
-86.36025400000139
 10
194.48754599999884
 20
-86.17966000000139
 10
194.62978599999883
 20
-85.99906600000139
 10
194.77202599999882
 20
-85.81847200000139
 10
194.9142659999988
 20
-85.63787800000138
 10
195.0565059999988
 20
-85.45728400000138
 10
195.19874599999878
 20
-85.27669000000138
 10
195.34098599999876
 20
-85.09609600000137
 10
195.48322599999875
 20
-84.91550200000137
 10
195.62546599999874
 20
-84.73490800000137
 10
195.76770599999873
 20
-84.55431400000137
 10
195.9099459999987
 20
-84.37372000000136
 10
196.05218599999867
 20
-84.19312600000136
 10
196.19442599999866
 20
-84.01253200000136
 10
196.33666599999864
 20
-83.83193800000134
 10
196.47890599999863
 20
-83.65134400000134
 10
196.62114599999862
 20
-83.47075000000135
 10
196.7633859999986
 20
-83.29015600000135
 10
196.9056259999986
 20
-83.10956200000133
 10
197.04786599999858
 20
-82.92896800000133
 10
197.19010599999856
 20
-82.74837400000133
 10
197.33234599999855
 20
-82.56778000000132
 10
197.47458599999854
 20
-82.38718600000132
 10
197.61682599999853
 20
-82.20659200000132
 10
197.7590659999985
 20
-82.02599800000132
 10
197.9013059999985
 20
-81.84540400000131
 10
198.04354599999849
 20
-81.66481000000131
 10
198.12584199999847
 20
-81.6574440000013
 10
198.20864599999848
 20
-81.65007800000132
 10
198.29221199999847
 20
-81.64296600000131
 10
198.3762859999985
 20
-81.63610800000131
 10
198.46086799999847
 20
-81.6295040000013
 10
198.54595799999848
 20
-81.62315400000132
 10
198.63155599999848
 20
-81.61705800000131
 10
198.7179159999985
 20
-81.6112160000013
 10
198.80478399999848
 20
-81.60562800000132
 10
198.89215999999848
 20
-81.60029400000131
 10
198.9800439999985
 20
-81.5952140000013
 10
199.06843599999848
 20
-81.59038800000131
 10
199.15733599999848
 20
-81.58581600000132
 10
199.24674399999847
 20
-81.58149800000132
 10
199.33691399999847
 20
-81.57743400000132
 10
199.42759199999847
 20
-81.57362400000132
 10
199.5187779999985
 20
-81.57032200000133
 10
199.61047199999848
 20
-81.56727400000132
 10
199.7026739999985
 20
-81.56448000000131
 10
199.7953839999985
 20
-81.56194000000131
 10
199.88860199999849
 20
-81.55990800000133
 10
199.9823279999985
 20
-81.55813000000133
 10
200.0765619999985
 20
-81.55660600000132
 10
200.1713039999985
 20
-81.55533600000133
 10
200.2665539999985
 20
-81.55457400000134
 10
200.3623119999985
 20
-81.55406600000133
 10
200.4585779999985
 20
-81.55406600000133
 10
200.5553519999985
 20
-81.55432000000133
 10
200.6526339999985
 20
-81.55482800000132
 10
200.7504239999985
 20
-81.55584400000133
 10
200.84872199999847
 20
-81.55711400000133
 10
200.9475279999985
 20
-81.55889200000134
 10
201.07020999999847
 20
-81.56143200000133
 10
201.19212999999849
 20
-81.56473400000132
 10
201.31328799999847
 20
-81.56854400000132
 10
201.4336839999985
 20
-81.57286200000132
 10
201.55331799999848
 20
-81.57768800000132
 10
201.67218999999847
 20
-81.58302200000132
 10
201.7902999999985
 20
-81.58886400000134
 10
201.9076479999985
 20
-81.59521400000132
 10
202.02423399999847
 20
-81.60207200000133
 10
202.14005799999848
 20
-81.60943800000132
 10
202.25511999999847
 20
-81.61731200000132
 10
202.36941999999848
 20
-81.62544000000132
 10
202.4829579999985
 20
-81.63407600000131
 10
202.59573399999846
 20
-81.64322000000132
 10
202.7074939999985
 20
-81.65287200000132
 10
202.81849199999849
 20
-81.66277800000131
 10
202.92872799999847
 20
-81.67319200000132
 10
203.03820199999848
 20
-81.6838600000013
 10
203.14691399999847
 20
-81.69503600000131
 10
203.25460999999848
 20
-81.70646600000131
 10
203.3615439999985
 20
-81.71840400000131
 10
203.4677159999985
 20
-81.73059600000131
 10
203.5731259999985
 20
-81.74304200000131
 10
203.67751999999848
 20
-81.7559960000013
 10
203.78115199999849
 20
-81.76920400000131
 10
203.88402199999848
 20
-81.78266600000131
 10
203.98587599999846
 20
-81.7963820000013
 10
204.08696799999845
 20
-81.8103520000013
 10
204.18704399999845
 20
-81.82483000000131
 10
204.28635799999844
 20
-81.83956200000131
 10
204.38490999999846
 20
-81.85454800000132
 10
204.48244599999848
 20
-81.86978800000132
  0
ENDSEC
  0
SECTION
  2
OBJECTS
  0
DICTIONARY
  5
A
330
0
100
AcDbDictionary
281
1
  3
ACAD_COLOR
350
B
  3
ACAD_GROUP
350
C
  3
ACAD_LAYOUT
350
D
  3
ACAD_MATERIAL
350
E
  3
ACAD_MLEADERSTYLE
350
F
  3
ACAD_MLINESTYLE
350
10
  3
ACAD_PLOTSETTINGS
350
11
  3
ACAD_PLOTSTYLENAME
350
12
  3
ACAD_SCALELIST
350
14
  3
ACAD_TABLESTYLE
350
15
  3
ACAD_VISUALSTYLE
350
16
  3
EZDXF_META
350
2D
  0
DICTIONARY
  5
B
330
A
100
AcDbDictionary
281
1
  0
DICTIONARY
  5
C
330
A
100
AcDbDictionary
281
1
  0
DICTIONARY
  5
D
330
A
100
AcDbDictionary
281
1
  3
Model
350
1A
  3
Layout1
350
1E
  0
DICTIONARY
  5
E
330
A
100
AcDbDictionary
281
1
  3
ByBlock
350
1F
  3
ByLayer
350
20
  3
Global
350
21
  0
DICTIONARY
  5
F
330
A
100
AcDbDictionary
281
1
  3
Standard
350
2C
  0
DICTIONARY
  5
10
330
A
100
AcDbDictionary
281
1
  3
Standard
350
22
  0
DICTIONARY
  5
11
330
A
100
AcDbDictionary
281
1
  0
ACDBDICTIONARYWDFLT
  5
12
330
A
100
AcDbDictionary
281
1
  3
Normal
350
13
100
AcDbDictionaryWithDefault
340
13
  0
ACDBPLACEHOLDER
  5
13
330
12
  0
DICTIONARY
  5
14
330
A
100
AcDbDictionary
281
1
  0
DICTIONARY
  5
15
330
A
100
AcDbDictionary
281
1
  0
DICTIONARY
  5
16
330
A
100
AcDbDictionary
281
1
  0
LAYOUT
  5
1A
330
D
100
AcDbPlotSettings
  1

  4
A3
  6

 40
7.5
 41
20.0
 42
7.5
 43
20.0
 44
420.0
 45
297.0
 46
0.0
 47
0.0
 48
0.0
 49
0.0
140
0.0
141
0.0
142
1.0
143
1.0
 70
1024
 72
1
 73
0
 74
5
  7

 75
16
 76
0
 77
2
 78
300
147
1.0
148
0.0
149
0.0
100
AcDbLayout
  1
Model
 70
1
 71
0
 10
0.0
 20
0.0
 11
420.0
 21
297.0
 12
0.0
 22
0.0
 32
0.0
 14
1e+20
 24
1e+20
 34
1e+20
 15
-1e+20
 25
-1e+20
 35
-1e+20
146
0.0
 13
0.0
 23
0.0
 33
0.0
 16
1.0
 26
0.0
 36
0.0
 17
0.0
 27
1.0
 37
0.0
 76
1
330
17
  0
LAYOUT
  5
1E
330
D
100
AcDbPlotSettings
  1

  4
A3
  6

 40
7.5
 41
20.0
 42
7.5
 43
20.0
 44
420.0
 45
297.0
 46
0.0
 47
0.0
 48
0.0
 49
0.0
140
0.0
141
0.0
142
1.0
143
1.0
 70
0
 72
1
 73
0
 74
5
  7

 75
16
 76
0
 77
2
 78
300
147
1.0
148
0.0
149
0.0
100
AcDbLayout
  1
Layout1
 70
1
 71
1
 10
0.0
 20
0.0
 11
420.0
 21
297.0
 12
0.0
 22
0.0
 32
0.0
 14
1e+20
 24
1e+20
 34
1e+20
 15
-1e+20
 25
-1e+20
 35
-1e+20
146
0.0
 13
0.0
 23
0.0
 33
0.0
 16
1.0
 26
0.0
 36
0.0
 17
0.0
 27
1.0
 37
0.0
 76
1
330
1B
  0
MATERIAL
  5
1F
102
{ACAD_REACTORS
330
E
102
}
330
E
100
AcDbMaterial
  1
ByBlock
  2

 70
0
 40
1.0
 71
1
 41
1.0
 91
-1023410177
 42
1.0
 72
1
  3

 73
1
 74
1
 75
1
 44
0.5
 73
0
 45
1.0
 46
1.0
 77
1
  4

 78
1
 79
1
170
1
 48
1.0
171
1
  6

172
1
173
1
174
1
140
1.0
141
1.0
175
1
  7

176
1
177
1
178
1
143
1.0
179
1
  8

270
1
271
1
272
1
145
1.0
146
1.0
273
1
  9

274
1
275
1
276
1
 42
1.0
 72
1
  3

 73
1
 74
1
 75
1
 94
63
  0
MATERIAL
  5
20
102
{ACAD_REACTORS
330
E
102
}
330
E
100
AcDbMaterial
  1
ByLayer
  2

 70
0
 40
1.0
 71
1
 41
1.0
 91
-1023410177
 42
1.0
 72
1
  3

 73
1
 74
1
 75
1
 44
0.5
 73
0
 45
1.0
 46
1.0
 77
1
  4

 78
1
 79
1
170
1
 48
1.0
171
1
  6

172
1
173
1
174
1
140
1.0
141
1.0
175
1
  7

176
1
177
1
178
1
143
1.0
179
1
  8

270
1
271
1
272
1
145
1.0
146
1.0
273
1
  9

274
1
275
1
276
1
 42
1.0
 72
1
  3

 73
1
 74
1
 75
1
 94
63
  0
MATERIAL
  5
21
102
{ACAD_REACTORS
330
E
102
}
330
E
100
AcDbMaterial
  1
Global
  2

 70
0
 40
1.0
 71
1
 41
1.0
 91
-1023410177
 42
1.0
 72
1
  3

 73
1
 74
1
 75
1
 44
0.5
 73
0
 45
1.0
 46
1.0
 77
1
  4

 78
1
 79
1
170
1
 48
1.0
171
1
  6

172
1
173
1
174
1
140
1.0
141
1.0
175
1
  7

176
1
177
1
178
1
143
1.0
179
1
  8

270
1
271
1
272
1
145
1.0
146
1.0
273
1
  9

274
1
275
1
276
1
 42
1.0
 72
1
  3

 73
1
 74
1
 75
1
 94
63
  0
MLINESTYLE
  5
22
102
{ACAD_REACTORS
330
10
102
}
330
10
100
AcDbMlineStyle
  2
Standard
 70
0
  3

 62
256
 51
90.0
 52
90.0
 71
2
 49
0.5
 62
256
  6
BYLAYER
 49
-0.5
 62
256
  6
BYLAYER
  0
MLEADERSTYLE
  5
2C
102
{ACAD_REACTORS
330
F
102
}
330
F
100
AcDbMLeaderStyle
179
2
170
2
171
1
172
0
 90
2
 40
0.0
 41
0.0
173
1
 91
-1056964608
 92
-2
290
1
 42
2.0
291
1
 43
8.0
  3
Standard
 44
4.0
300

342
29
174
1
175
1
176
0
178
1
 93
-1056964608
 45
4.0
292
0
297
0
 46
4.0
 94
-1056964608
 47
1.0
 49
1.0
140
1.0
294
1
141
0.0
177
0
142
1.0
295
0
296
0
143
3.75
271
0
272
9
273
9
  0
DICTIONARY
  5
2D
330
A
100
AcDbDictionary
280
1
281
1
  3
CREATED_BY_EZDXF
350
2E
  3
WRITTEN_BY_EZDXF
350
3F
  0
DICTIONARYVAR
  5
2E
330
2D
100
DictionaryVariables
280
0
  1
1.4.3 @ 2026-04-08T01:02:28.835429+00:00
  0
DICTIONARYVAR
  5
3F
330
2D
100
DictionaryVariables
280
0
  1
1.4.3 @ 2026-04-09T21:09:48.137111+00:00
  0
ENDSEC
  0
EOF
