999
"DXF R12 Output" (www.mydxf.blogspot.com)
 0 
SECTION
 2 
HEADER
 9 
$ACADVER
 1 
AC1009
 9 
$EXTMIN
 10 
 0 
 20 
 0 
 9 
$EXTMAX
 10 
 8.5 
 20 
 11 
 0 
ENDSEC
 0 
SECTION
 2 
ENTITIES
0
POLYLINE
8
0
62
7
70
0
10
0.000000
20
0.000000
66
1
0
VERTEX
8
0
10
197.006989
20
50.305690
70
0
0
VERTEX
8
0
10
192.033167
20
65.095827
70
0
0
VERTEX
8
0
10
178.268416
20
94.237210
70
0
0
VERTEX
8
0
10
174.775921
20
103.337516
70
0
0
VERTEX
8
0
10
172.010880
20
113.539175
70
0
0
VERTEX
8
0
10
171.554189
20
116.734491
70
0
0
VERTEX
8
0
10
171.455637
20
119.655223
70
0
0
VERTEX
8
0
10
171.679157
20
122.313594
70
0
0
VERTEX
8
0
10
172.188680
20
124.722014
70
0
0
VERTEX
8
0
10
172.948139
20
126.892944
70
0
0
VERTEX
8
0
10
173.921720
20
128.838581
70
0
0
VERTEX
8
0
10
175.073100
20
130.571124
70
0
0
VERTEX
8
0
10
176.366213
20
132.102742
70
0
0
VERTEX
8
0
10
177.765243
20
133.445871
70
0
0
VERTEX
8
0
10
179.234123
20
134.612761
70
0
0
VERTEX
8
0
10
180.736531
20
135.615795
70
0
0
VERTEX
8
0
10
183.698422
20
137.179163
70
0
0
VERTEX
8
0
10
187.525181
20
138.613494
70
0
0
VERTEX
8
0
10
187.554645
20
138.627253
70
0
0
VERTEX
8
0
10
187.581569
20
138.643128
70
0
0
VERTEX
8
0
10
187.606201
20
138.660855
70
0
0
VERTEX
8
0
10
187.628294
20
138.680434
70
0
0
VERTEX
8
0
10
187.647847
20
138.701600
70
0
0
VERTEX
8
0
10
187.665124
20
138.724090
70
0
0
VERTEX
8
0
10
187.680099
20
138.747638
70
0
0
VERTEX
8
0
10
187.692535
20
138.772244
70
0
0
VERTEX
8
0
10
187.702695
20
138.797909
70
0
0
VERTEX
8
0
10
187.710579
20
138.824367
70
0
0
VERTEX
8
0
10
187.716162
20
138.851275
70
0
0
VERTEX
8
0
10
187.719469
20
138.878474
70
0
0
VERTEX
8
0
10
187.720792
20
138.905885
70
0
0
VERTEX
8
0
10
187.719734
20
138.933322
70
0
0
VERTEX
8
0
10
187.716427
20
138.960495
70
0
0
VERTEX
8
0
10
187.711082
20
138.987429
70
0
0
VERTEX
8
0
10
187.703727
20
139.013888
70
0
0
VERTEX
8
0
10
187.694334
20
139.039817
70
0
0
VERTEX
8
0
10
187.682904
20
139.064688
70
0
0
VERTEX
8
0
10
187.669437
20
139.088500
70
0
0
VERTEX
8
0
10
187.653932
20
139.111254
70
0
0
VERTEX
8
0
10
187.636417
20
139.132685
70
0
0
VERTEX
8
0
10
187.616864
20
139.152529
70
0
0
VERTEX
8
0
10
187.595539
20
139.170521
70
0
0
VERTEX
8
0
10
187.572176
20
139.186660
70
0
0
VERTEX
8
0
10
187.547041
20
139.200948
70
0
0
VERTEX
8
0
10
187.520117
20
139.212854
70
0
0
VERTEX
8
0
10
187.491415
20
139.222379
70
0
0
VERTEX
8
0
10
187.460935
20
139.229523
70
0
0
VERTEX
8
0
10
187.428677
20
139.233756
70
0
0
VERTEX
8
0
10
148.682804
20
139.026217
70
0
0
VERTEX
8
0
10
148.506782
20
139.007432
70
0
0
VERTEX
8
0
10
148.336348
20
138.971872
70
0
0
VERTEX
8
0
10
148.172518
20
138.920067
70
0
0
VERTEX
8
0
10
148.016054
20
138.853259
70
0
0
VERTEX
8
0
10
147.867973
20
138.771979
70
0
0
VERTEX
8
0
10
147.729035
20
138.677497
70
0
0
VERTEX
8
0
10
147.600003
20
138.570288
70
0
0
VERTEX
8
0
10
147.481893
20
138.451437
70
0
0
VERTEX
8
0
10
147.375467
20
138.321897
70
0
0
VERTEX
8
0
10
147.281487
20
138.182436
70
0
0
VERTEX
8
0
10
147.200969
20
138.033846
70
0
0
VERTEX
8
0
10
147.134930
20
137.877133
70
0
0
VERTEX
8
0
10
147.084130
20
137.713039
70
0
0
VERTEX
8
0
10
147.049332
20
137.542621
70
0
0
VERTEX
8
0
10
147.031552
20
137.366594
70
0
0
VERTEX
8
0
10
147.027477
20
132.275938
70
0
0
VERTEX
8
0
10
147.013242
20
132.136476
70
0
0
VERTEX
8
0
10
146.985557
20
132.001618
70
0
0
VERTEX
8
0
10
146.945171
20
131.871814
70
0
0
VERTEX
8
0
10
146.892847
20
131.747856
70
0
0
VERTEX
8
0
10
146.829093
20
131.630276
70
0
0
VERTEX
8
0
10
146.754671
20
131.520024
70
0
0
VERTEX
8
0
10
146.670089
20
131.417657
70
0
0
VERTEX
8
0
10
146.576363
20
131.323942
70
0
0
VERTEX
8
0
10
146.474001
20
131.239354
70
0
0
VERTEX
8
0
10
146.363765
20
131.164927
70
0
0
VERTEX
8
0
10
146.246163
20
131.101189
70
0
0
VERTEX
8
0
10
146.122212
20
131.048855
70
0
0
VERTEX
8
0
10
145.992418
20
131.008479
70
0
0
VERTEX
8
0
10
145.857544
20
130.980777
70
0
0
VERTEX
8
0
10
145.718098
20
130.966490
70
0
0
VERTEX
8
0
10
130.352133
20
130.966490
70
0
0
VERTEX
8
0
10
130.212688
20
130.980777
70
0
0
VERTEX
8
0
10
130.077814
20
131.008479
70
0
0
VERTEX
8
0
10
129.948020
20
131.048855
70
0
0
VERTEX
8
0
10
129.824068
20
131.101189
70
0
0
VERTEX
8
0
10
129.706466
20
131.164927
70
0
0
VERTEX
8
0
10
129.596230
20
131.239354
70
0
0
VERTEX
8
0
10
129.493869
20
131.323942
70
0
0
VERTEX
8
0
10
129.400143
20
131.417657
70
0
0
VERTEX
8
0
10
129.315561
20
131.520024
70
0
0
VERTEX
8
0
10
129.241139
20
131.630276
70
0
0
VERTEX
8
0
10
129.177385
20
131.747856
70
0
0
VERTEX
8
0
10
129.125061
20
131.871814
70
0
0
VERTEX
8
0
10
129.084675
20
132.001618
70
0
0
VERTEX
8
0
10
129.056989
20
132.136476
70
0
0
VERTEX
8
0
10
129.042755
20
132.275938
70
0
0
VERTEX
8
0
10
129.038680
20
137.264227
70
0
0
VERTEX
8
0
10
129.020635
20
137.440757
70
0
0
VERTEX
8
0
10
128.985583
20
137.611704
70
0
0
VERTEX
8
0
10
128.934276
20
137.776036
70
0
0
VERTEX
8
0
10
128.867728
20
137.933013
70
0
0
VERTEX
8
0
10
128.786702
20
138.081603
70
0
0
VERTEX
8
0
10
128.692214
20
138.221038
70
0
0
VERTEX
8
0
10
128.585026
20
138.350340
70
0
0
VERTEX
8
0
10
128.465900
20
138.468688
70
0
0
VERTEX
8
0
10
128.335852
20
138.575368
70
0
0
VERTEX
8
0
10
128.195898
20
138.669348
70
0
0
VERTEX
8
0
10
128.046801
20
138.749622
70
0
0
VERTEX
8
0
10
127.889575
20
138.815398
70
0
0
VERTEX
8
0
10
127.724983
20
138.865695
70
0
0
VERTEX
8
0
10
127.553787
20
138.899747
70
0
0
VERTEX
8
0
10
127.377257
20
138.916680
70
0
0
VERTEX
8
0
10
99.063659
20
138.769863
70
0
0
VERTEX
8
0
10
99.456851
20
138.085598
70
0
0
VERTEX
8
0
10
100.389029
20
136.112523
70
0
0
VERTEX
8
0
10
101.488086
20
132.971050
70
0
0
VERTEX
8
0
10
102.382165
20
128.781061
70
0
0
VERTEX
8
0
10
113.117461
20
128.127012
70
0
0
VERTEX
8
0
10
117.605382
20
127.413537
70
0
0
VERTEX
8
0
10
119.689449
20
126.877862
70
0
0
VERTEX
8
0
10
121.658455
20
126.191799
70
0
0
VERTEX
8
0
10
123.506048
20
125.332512
70
0
0
VERTEX
8
0
10
125.226134
20
124.276906
70
0
0
VERTEX
8
0
10
126.812362
20
123.001563
70
0
0
VERTEX
8
0
10
128.258382
20
121.483650
70
0
0
VERTEX
8
0
10
129.557845
20
119.700070
70
0
0
VERTEX
8
0
10
130.704399
20
117.627697
70
0
0
VERTEX
8
0
10
131.691950
20
115.243142
70
0
0
VERTEX
8
0
10
132.513893
20
112.523573
70
0
0
VERTEX
8
0
10
140.300507
20
114.877383
70
0
0
VERTEX
8
0
10
140.416839
20
114.794330
70
0
0
VERTEX
8
0
10
140.724179
20
114.514163
70
0
0
VERTEX
8
0
10
140.930172
20
114.285564
70
0
0
VERTEX
8
0
10
141.160804
20
113.990157
70
0
0
VERTEX
8
0
10
141.408200
20
113.621857
70
0
0
VERTEX
8
0
10
141.922803
20
112.643958
70
0
0
VERTEX
8
0
10
142.411753
20
111.305142
70
0
0
VERTEX
8
0
10
142.813326
20
109.558365
70
0
0
VERTEX
8
0
10
143.065802
20
107.356955
70
0
0
VERTEX
8
0
10
143.116602
20
106.071214
70
0
0
VERTEX
8
0
10
135.254296
20
103.723992
70
0
0
VERTEX
8
0
10
139.261395
20
93.444625
70
0
0
VERTEX
8
0
10
139.557558
20
92.411111
70
0
0
VERTEX
8
0
10
139.790730
20
91.087508
70
0
0
VERTEX
8
0
10
139.889282
20
89.743612
70
0
0
VERTEX
8
0
10
139.827052
20
88.410616
70
0
0
VERTEX
8
0
10
139.727230
20
87.757837
70
0
0
VERTEX
8
0
10
139.126013
20
85.544494
70
0
0
VERTEX
8
0
10
139.058703
20
85.147990
70
0
0
VERTEX
8
0
10
139.034837
20
84.754555
70
0
0
VERTEX
8
0
10
139.043225
20
84.559478
70
0
0
VERTEX
8
0
10
139.067090
20
84.366174
70
0
0
VERTEX
8
0
10
139.107984
20
84.174669
70
0
0
VERTEX
8
0
10
139.167674
20
83.985175
70
0
0
VERTEX
8
0
10
139.252256
20
83.788827
70
0
0
VERTEX
8
0
10
139.352840
20
83.611557
70
0
0
VERTEX
8
0
10
139.467902
20
83.451775
70
0
0
VERTEX
8
0
10
139.596171
20
83.307763
70
0
0
VERTEX
8
0
10
139.736125
20
83.177958
70
0
0
VERTEX
8
0
10
139.886239
20
83.060880
70
0
0
VERTEX
8
0
10
140.211867
20
82.858686
70
0
0
VERTEX
8
0
10
141.639853
20
82.246811
70
0
0
VERTEX
8
0
10
142.303300
20
81.896530
70
0
0
VERTEX
8
0
10
142.909343
20
81.475420
70
0
0
VERTEX
8
0
10
143.458237
20
80.990280
70
0
0
VERTEX
8
0
10
143.950488
20
80.447726
70
0
0
VERTEX
8
0
10
144.386351
20
79.854902
70
0
0
VERTEX
8
0
10
144.766081
20
79.218368
70
0
0
VERTEX
8
0
10
145.089930
20
78.545004
70
0
0
VERTEX
8
0
10
145.358408
20
77.841954
70
0
0
VERTEX
8
0
10
145.571768
20
77.115753
70
0
0
VERTEX
8
0
10
145.730264
20
76.373571
70
0
0
VERTEX
8
0
10
145.834150
20
75.621997
70
0
0
VERTEX
8
0
10
145.883933
20
74.867856
70
0
0
VERTEX
8
0
10
145.879859
20
74.118319
70
0
0
VERTEX
8
0
10
145.822201
20
73.379921
70
0
0
VERTEX
8
0
10
145.711457
20
72.659593
70
0
0
VERTEX
8
0
10
145.058170
20
70.190452
70
0
0
VERTEX
8
0
10
145.011180
20
69.795244
70
0
0
VERTEX
8
0
10
145.005597
20
69.598897
70
0
0
VERTEX
8
0
10
145.013985
20
69.403820
70
0
0
VERTEX
8
0
10
145.037850
20
69.210516
70
0
0
VERTEX
8
0
10
145.078744
20
69.019011
70
0
0
VERTEX
8
0
10
145.138434
20
68.829516
70
0
0
VERTEX
8
0
10
145.223016
20
68.633196
70
0
0
VERTEX
8
0
10
145.323600
20
68.455899
70
0
0
VERTEX
8
0
10
145.438661
20
68.296117
70
0
0
VERTEX
8
0
10
145.566931
20
68.152104
70
0
0
VERTEX
8
0
10
145.706885
20
68.022326
70
0
0
VERTEX
8
0
10
145.856999
20
67.905222
70
0
0
VERTEX
8
0
10
146.182627
20
67.703028
70
0
0
VERTEX
8
0
10
147.610613
20
67.091153
70
0
0
VERTEX
8
0
10
148.082290
20
66.845038
70
0
0
VERTEX
8
0
10
148.532378
20
66.545318
70
0
0
VERTEX
8
0
10
148.960621
20
66.197339
70
0
0
VERTEX
8
0
10
149.366512
20
65.806682
70
0
0
VERTEX
8
0
10
150.109716
20
64.918186
70
0
0
VERTEX
8
0
10
150.972298
20
63.538968
70
0
0
VERTEX
8
0
10
151.554212
20
62.344164
70
0
0
VERTEX
8
0
10
156.573499
20
47.940583
70
0
0
VERTEX
8
0
10
156.749013
20
47.558313
70
0
0
VERTEX
8
0
10
156.966437
20
47.203481
70
0
0
VERTEX
8
0
10
157.222469
20
46.879129
70
0
0
VERTEX
8
0
10
157.513806
20
46.588034
70
0
0
VERTEX
8
0
10
157.837402
20
46.333294
70
0
0
VERTEX
8
0
10
158.189699
20
46.117897
70
0
0
VERTEX
8
0
10
158.567905
20
45.944674
70
0
0
VERTEX
8
0
10
158.968462
20
45.816643
70
0
0
VERTEX
8
0
10
160.971504
20
45.456730
70
0
0
VERTEX
8
0
10
193.947774
20
45.609633
70
0
0
VERTEX
8
0
10
194.355190
20
45.657390
70
0
0
VERTEX
8
0
10
194.741269
20
45.755445
70
0
0
VERTEX
8
0
10
195.104489
20
45.900224
70
0
0
VERTEX
8
0
10
195.443070
20
46.087655
70
0
0
VERTEX
8
0
10
195.755490
20
46.314244
70
0
0
VERTEX
8
0
10
196.040224
20
46.575864
70
0
0
VERTEX
8
0
10
196.295493
20
46.868969
70
0
0
VERTEX
8
0
10
196.519775
20
47.190014
70
0
0
VERTEX
8
0
10
196.711545
20
47.534950
70
0
0
VERTEX
8
0
10
196.869279
20
47.900207
70
0
0
VERTEX
8
0
10
196.991198
20
48.281974
70
0
0
VERTEX
8
0
10
197.075780
20
48.676441
70
0
0
VERTEX
8
0
10
197.121246
20
49.079771
70
0
0
VERTEX
8
0
10
197.126326
20
49.488208
70
0
0
VERTEX
8
0
10
197.089242
20
49.898179
70
0
0
VERTEX
8
0
10
197.008216
20
50.305849
70
0
0
SEQEND
8
0
0
POLYLINE
8
0
62
7
70
0
10
0.000000
20
0.000000
66
1
0
VERTEX
8
0
10
85.188202
20
138.727053
70
0
0
VERTEX
8
0
10
62.789748
20
138.727053
70
0
0
VERTEX
8
0
10
63.032572
20
138.158332
70
0
0
VERTEX
8
0
10
63.550731
20
136.481167
70
0
0
VERTEX
8
0
10
64.029012
20
133.740008
70
0
0
VERTEX
8
0
10
64.154488
20
131.984103
70
0
0
VERTEX
8
0
10
64.151684
20
129.978775
70
0
0
VERTEX
8
0
10
88.341343
20
129.961048
70
0
0
VERTEX
8
0
10
88.248887
20
130.059605
70
0
0
VERTEX
8
0
10
87.995904
20
130.377369
70
0
0
VERTEX
8
0
10
87.619730
20
130.947334
70
0
0
VERTEX
8
0
10
87.157451
20
131.802043
70
0
0
VERTEX
8
0
10
86.646149
20
132.974516
70
0
0
VERTEX
8
0
10
86.122656
20
134.497482
70
0
0
VERTEX
8
0
10
85.624309
20
136.404015
70
0
0
VERTEX
8
0
10
85.188191
20
138.726842
70
0
0
SEQEND
8
0
0
POLYLINE
8
0
62
7
70
0
10
0.000000
20
0.000000
66
1
0
VERTEX
8
0
10
11.205969
20
138.222335
70
0
0
VERTEX
8
0
10
12.821661
20
135.976978
70
0
0
VERTEX
8
0
10
13.106902
20
135.696572
70
0
0
VERTEX
8
0
10
13.421100
20
135.453500
70
0
0
VERTEX
8
0
10
13.760698
20
135.249533
70
0
0
VERTEX
8
0
10
14.121631
20
135.086709
70
0
0
VERTEX
8
0
10
14.500345
20
134.966826
70
0
0
VERTEX
8
0
10
14.893282
20
134.892161
70
0
0
VERTEX
8
0
10
59.173046
20
134.465177
70
0
0
VERTEX
8
0
10
59.173046
20
138.473054
70
0
0
VERTEX
8
0
10
11.443459
20
138.722979
70
0
0
VERTEX
8
0
10
11.420091
20
138.720333
70
0
0
VERTEX
8
0
10
11.397485
20
138.716364
70
0
0
VERTEX
8
0
10
11.375641
20
138.711072
70
0
0
VERTEX
8
0
10
11.354559
20
138.704193
70
0
0
VERTEX
8
0
10
11.334239
20
138.695727
70
0
0
VERTEX
8
0
10
11.296393
20
138.675354
70
0
0
VERTEX
8
0
10
11.262103
20
138.650218
70
0
0
VERTEX
8
0
10
11.231623
20
138.621008
70
0
0
VERTEX
8
0
10
11.205461
20
138.588253
70
0
0
VERTEX
8
0
10
11.183871
20
138.552428
70
0
0
VERTEX
8
0
10
11.166853
20
138.514064
70
0
0
VERTEX
8
0
10
11.154915
20
138.473953
70
0
0
VERTEX
8
0
10
11.148311
20
138.432281
70
0
0
VERTEX
8
0
10
11.147544
20
138.389869
70
0
0
VERTEX
8
0
10
11.152624
20
138.346953
70
0
0
VERTEX
8
0
10
11.157450
20
138.325522
70
0
0
VERTEX
8
0
10
11.163800
20
138.304091
70
0
0
VERTEX
8
0
10
11.171928
20
138.282924
70
0
0
VERTEX
8
0
10
11.181580
20
138.262022
70
0
0
VERTEX
8
0
10
11.193010
20
138.241649
70
0
0
VERTEX
8
0
10
11.206218
20
138.221541
70
0
0
SEQEND
8
0
 0 
ENDSEC
 0 
EOF