  0
SECTION
  2
HEADER
  9
$ACADVER
  1
AC1024
  9
$ACADMAINTVER
 70
6
  9
$DWGCODEPAGE
  3
ANSI_1252
  9
$LASTSAVEDBY
  1
ezdxf
  9
$INSBASE
 10
0.0
 20
0.0
 30
0.0
  9
$EXTMIN
 10
1e+20
 20
1e+20
 30
1e+20
  9
$EXTMAX
 10
-1e+20
 20
-1e+20
 30
-1e+20
  9
$LIMMIN
 10
0.0
 20
0.0
  9
$LIMMAX
 10
420.0
 20
297.0
  9
$ORTHOMODE
 70
0
  9
$REGENMODE
 70
1
  9
$FILLMODE
 70
1
  9
$QTEXTMODE
 70
0
  9
$MIRRTEXT
 70
1
  9
$LTSCALE
 40
1.0
  9
$ATTMODE
 70
1
  9
$TEXTSIZE
 40
2.5
  9
$TRACEWID
 40
1.0
  9
$TEXTSTYLE
  7
Standard
  9
$CLAYER
  8
0
  9
$CELTYPE
  6
ByLayer
  9
$CECOLOR
 62
256
  9
$CELTSCALE
 40
1.0
  9
$DISPSILH
 70
0
  9
$DIMSCALE
 40
1.0
  9
$DIMASZ
 40
2.5
  9
$DIMEXO
 40
0.625
  9
$DIMDLI
 40
3.75
  9
$DIMRND
 40
0.0
  9
$DIMDLE
 40
0.0
  9
$DIMEXE
 40
1.25
  9
$DIMTP
 40
0.0
  9
$DIMTM
 40
0.0
  9
$DIMTXT
 40
2.5
  9
$DIMCEN
 40
2.5
  9
$DIMTSZ
 40
0.0
  9
$DIMTOL
 70
0
  9
$DIMLIM
 70
0
  9
$DIMTIH
 70
0
  9
$DIMTOH
 70
0
  9
$DIMSE1
 70
0
  9
$DIMSE2
 70
0
  9
$DIMTAD
 70
1
  9
$DIMZIN
 70
8
  9
$DIMBLK
  1

  9
$DIMASO
 70
1
  9
$DIMSHO
 70
1
  9
$DIMPOST
  1

  9
$DIMAPOST
  1

  9
$DIMALT
 70
0
  9
$DIMALTD
 70
3
  9
$DIMALTF
 40
0.03937007874
  9
$DIMLFAC
 40
1.0
  9
$DIMTOFL
 70
1
  9
$DIMTVP
 40
0.0
  9
$DIMTIX
 70
0
  9
$DIMSOXD
 70
0
  9
$DIMSAH
 70
0
  9
$DIMBLK1
  1

  9
$DIMBLK2
  1

  9
$DIMSTYLE
  2
ISO-25
  9
$DIMCLRD
 70
0
  9
$DIMCLRE
 70
0
  9
$DIMCLRT
 70
0
  9
$DIMTFAC
 40
1.0
  9
$DIMGAP
 40
0.625
  9
$DIMJUST
 70
0
  9
$DIMSD1
 70
0
  9
$DIMSD2
 70
0
  9
$DIMTOLJ
 70
0
  9
$DIMTZIN
 70
8
  9
$DIMALTZ
 70
0
  9
$DIMALTTZ
 70
0
  9
$DIMUPT
 70
0
  9
$DIMDEC
 70
2
  9
$DIMTDEC
 70
2
  9
$DIMALTU
 70
2
  9
$DIMALTTD
 70
3
  9
$DIMTXSTY
  7
Standard
  9
$DIMAUNIT
 70
0
  9
$DIMADEC
 70
0
  9
$DIMALTRND
 40
0.0
  9
$DIMAZIN
 70
0
  9
$DIMDSEP
 70
44
  9
$DIMATFIT
 70
3
  9
$DIMFRAC
 70
0
  9
$DIMLDRBLK
  1

  9
$DIMLUNIT
 70
2
  9
$DIMLWD
 70
-2
  9
$DIMLWE
 70
-2
  9
$DIMTMOVE
 70
0
  9
$DIMFXL
 40
1.0
  9
$DIMFXLON
 70
0
  9
$DIMJOGANG
 40
0.785398163397
  9
$DIMTFILL
 70
0
  9
$DIMTFILLCLR
 70
0
  9
$DIMARCSYM
 70
0
  9
$DIMLTYPE
  6

  9
$DIMLTEX1
  6

  9
$DIMLTEX2
  6

  9
$DIMTXTDIRECTION
 70
0
  9
$LUNITS
 70
2
  9
$LUPREC
 70
4
  9
$SKETCHINC
 40
1.0
  9
$FILLETRAD
 40
10.0
  9
$AUNITS
 70
0
  9
$AUPREC
 70
2
  9
$MENU
  1
.
  9
$ELEVATION
 40
0.0
  9
$PELEVATION
 40
0.0
  9
$THICKNESS
 40
0.0
  9
$LIMCHECK
 70
0
  9
$CHAMFERA
 40
0.0
  9
$CHAMFERB
 40
0.0
  9
$CHAMFERC
 40
0.0
  9
$CHAMFERD
 40
0.0
  9
$SKPOLY
 70
0
  9
$TDCREATE
 40
2461138.721041667
  9
$TDUCREATE
 40
2458532.153996898
  9
$TDUPDATE
 40
2461138.721041667
  9
$TDUUPDATE
 40
2458532.1544311
  9
$TDINDWG
 40
0.0
  9
$TDUSRTIMER
 40
0.0
  9
$USRTIMER
 70
1
  9
$ANGBASE
 50
0.0
  9
$ANGDIR
 70
0
  9
$PDMODE
 70
0
  9
$PDSIZE
 40
0.0
  9
$PLINEWID
 40
0.0
  9
$SPLFRAME
 70
0
  9
$SPLINETYPE
 70
6
  9
$SPLINESEGS
 70
8
  9
$HANDSEED
  5
1A7
  9
$SURFTAB1
 70
6
  9
$SURFTAB2
 70
6
  9
$SURFTYPE
 70
6
  9
$SURFU
 70
6
  9
$SURFV
 70
6
  9
$UCSBASE
  2

  9
$UCSNAME
  2

  9
$UCSORG
 10
0.0
 20
0.0
 30
0.0
  9
$UCSXDIR
 10
1.0
 20
0.0
 30
0.0
  9
$UCSYDIR
 10
0.0
 20
1.0
 30
0.0
  9
$UCSORTHOREF
  2

  9
$UCSORTHOVIEW
 70
0
  9
$UCSORGTOP
 10
0.0
 20
0.0
 30
0.0
  9
$UCSORGBOTTOM
 10
0.0
 20
0.0
 30
0.0
  9
$UCSORGLEFT
 10
0.0
 20
0.0
 30
0.0
  9
$UCSORGRIGHT
 10
0.0
 20
0.0
 30
0.0
  9
$UCSORGFRONT
 10
0.0
 20
0.0
 30
0.0
  9
$UCSORGBACK
 10
0.0
 20
0.0
 30
0.0
  9
$PUCSBASE
  2

  9
$PUCSNAME
  2

  9
$PUCSORG
 10
0.0
 20
0.0
 30
0.0
  9
$PUCSXDIR
 10
1.0
 20
0.0
 30
0.0
  9
$PUCSYDIR
 10
0.0
 20
1.0
 30
0.0
  9
$PUCSORTHOREF
  2

  9
$PUCSORTHOVIEW
 70
0
  9
$PUCSORGTOP
 10
0.0
 20
0.0
 30
0.0
  9
$PUCSORGBOTTOM
 10
0.0
 20
0.0
 30
0.0
  9
$PUCSORGLEFT
 10
0.0
 20
0.0
 30
0.0
  9
$PUCSORGRIGHT
 10
0.0
 20
0.0
 30
0.0
  9
$PUCSORGFRONT
 10
0.0
 20
0.0
 30
0.0
  9
$PUCSORGBACK
 10
0.0
 20
0.0
 30
0.0
  9
$USERI1
 70
0
  9
$USERI2
 70
0
  9
$USERI3
 70
0
  9
$USERI4
 70
0
  9
$USERI5
 70
0
  9
$USERR1
 40
0.0
  9
$USERR2
 40
0.0
  9
$USERR3
 40
0.0
  9
$USERR4
 40
0.0
  9
$USERR5
 40
0.0
  9
$WORLDVIEW
 70
1
  9
$SHADEDGE
 70
3
  9
$SHADEDIF
 70
70
  9
$TILEMODE
 70
1
  9
$MAXACTVP
 70
64
  9
$PINSBASE
 10
0.0
 20
0.0
 30
0.0
  9
$PLIMCHECK
 70
0
  9
$PEXTMIN
 10
1e+20
 20
1e+20
 30
1e+20
  9
$PEXTMAX
 10
-1e+20
 20
-1e+20
 30
-1e+20
  9
$PLIMMIN
 10
0.0
 20
0.0
  9
$PLIMMAX
 10
420.0
 20
297.0
  9
$UNITMODE
 70
0
  9
$VISRETAIN
 70
1
  9
$PLINEGEN
 70
0
  9
$PSLTSCALE
 70
1
  9
$TREEDEPTH
 70
3020
  9
$CMLSTYLE
  2
Standard
  9
$CMLJUST
 70
0
  9
$CMLSCALE
 40
20.0
  9
$PROXYGRAPHICS
 70
1
  9
$MEASUREMENT
 70
1
  9
$CELWEIGHT
370
-1
  9
$ENDCAPS
280
0
  9
$JOINSTYLE
280
0
  9
$LWDISPLAY
290
0
  9
$INSUNITS
 70
6
  9
$HYPERLINKBASE
  1

  9
$STYLESHEET
  1

  9
$XEDIT
290
1
  9
$CEPSNTYPE
380
0
  9
$PSTYLEMODE
290
1
  9
$FINGERPRINTGUID
  2
{9A03DF13-0EDF-4AD5-89EC-BEEE34D01B8E}
  9
$VERSIONGUID
  2
{8F460FC2-9A7C-48F9-9657-6EE4B11E9ADC}
  9
$EXTNAMES
290
1
  9
$PSVPSCALE
 40
0.0
  9
$OLESTARTUP
290
0
  9
$SORTENTS
280
127
  9
$INDEXCTL
280
0
  9
$HIDETEXT
280
1
  9
$XCLIPFRAME
280
1
  9
$HALOGAP
280
0
  9
$OBSCOLOR
 70
257
  9
$OBSLTYPE
280
0
  9
$INTERSECTIONDISPLAY
280
0
  9
$INTERSECTIONCOLOR
 70
257
  9
$DIMASSOC
280
2
  9
$PROJECTNAME
  1

  9
$CAMERADISPLAY
290
0
  9
$LENSLENGTH
 40
50.0
  9
$CAMERAHEIGHT
 40
0.0
  9
$STEPSPERSEC
 40
24.0
  9
$STEPSIZE
 40
100.0
  9
$3DDWFPREC
 40
2.0
  9
$PSOLWIDTH
 40
0.005
  9
$PSOLHEIGHT
 40
0.08
  9
$LOFTANG1
 40
1.570796326795
  9
$LOFTANG2
 40
1.570796326795
  9
$LOFTMAG1
 40
0.0
  9
$LOFTMAG2
 40
0.0
  9
$LOFTPARAM
 70
7
  9
$LOFTNORMALS
280
1
  9
$LATITUDE
 40
37.795
  9
$LONGITUDE
 40
-122.394
  9
$NORTHDIRECTION
 40
0.0
  9
$TIMEZONE
 70
-8000
  9
$LIGHTGLYPHDISPLAY
280
1
  9
$TILEMODELIGHTSYNCH
280
1
  9
$CMATERIAL
347
20
  9
$SOLIDHIST
280
0
  9
$SHOWHIST
280
1
  9
$DWFFRAME
280
2
  9
$DGNFRAME
280
2
  9
$REALWORLDSCALE
290
1
  9
$INTERFERECOLOR
 62
256
  9
$CSHADOW
280
0
  9
$SHADOWPLANELOCATION
 40
0.0
  0
ENDSEC
  0
SECTION
  2
CLASSES
  0
CLASS
  1
ACDBDICTIONARYWDFLT
  2
AcDbDictionaryWithDefault
  3
ObjectDBX Classes
 90
0
 91
0
280
0
281
0
  0
CLASS
  1
SUN
  2
AcDbSun
  3
SCENEOE
 90
1153
 91
0
280
0
281
0
  0
CLASS
  1
VISUALSTYLE
  2
AcDbVisualStyle
  3
ObjectDBX Classes
 90
4095
 91
0
280
0
281
0
  0
CLASS
  1
MATERIAL
  2
AcDbMaterial
  3
ObjectDBX Classes
 90
1153
 91
0
280
0
281
0
  0
CLASS
  1
SCALE
  2
AcDbScale
  3
ObjectDBX Classes
 90
1153
 91
0
280
0
281
0
  0
CLASS
  1
TABLESTYLE
  2
AcDbTableStyle
  3
ObjectDBX Classes
 90
4095
 91
0
280
0
281
0
  0
CLASS
  1
MLEADERSTYLE
  2
AcDbMLeaderStyle
  3
ACDB_MLEADERSTYLE_CLASS
 90
4095
 91
0
280
0
281
0
  0
CLASS
  1
DICTIONARYVAR
  2
AcDbDictionaryVar
  3
ObjectDBX Classes
 90
0
 91
0
280
0
281
0
  0
CLASS
  1
CELLSTYLEMAP
  2
AcDbCellStyleMap
  3
ObjectDBX Classes
 90
1152
 91
0
280
0
281
0
  0
CLASS
  1
MENTALRAYRENDERSETTINGS
  2
AcDbMentalRayRenderSettings
  3
SCENEOE
 90
1024
 91
0
280
0
281
0
  0
CLASS
  1
ACDBDETAILVIEWSTYLE
  2
AcDbDetailViewStyle
  3
ObjectDBX Classes
 90
1025
 91
0
280
0
281
0
  0
CLASS
  1
ACDBSECTIONVIEWSTYLE
  2
AcDbSectionViewStyle
  3
ObjectDBX Classes
 90
1025
 91
0
280
0
281
0
  0
CLASS
  1
RASTERVARIABLES
  2
AcDbRasterVariables
  3
ISM
 90
0
 91
0
280
0
281
0
  0
CLASS
  1
ACDBPLACEHOLDER
  2
AcDbPlaceHolder
  3
ObjectDBX Classes
 90
0
 91
0
280
0
281
0
  0
CLASS
  1
LAYOUT
  2
AcDbLayout
  3
ObjectDBX Classes
 90
0
 91
0
280
0
281
0
  0
ENDSEC
  0
SECTION
  2
TABLES
  0
TABLE
  2
VPORT
  5
8
330
0
100
AcDbSymbolTable
 70
1
  0
VPORT
  5
23
330
8
100
AcDbSymbolTableRecord
100
AcDbViewportTableRecord
  2
*Active
 70
0
 10
0.0
 20
0.0
 11
1.0
 21
1.0
 12
0.0
 22
0.0
 13
0.0
 23
0.0
 14
0.5
 24
0.5
 15
0.5
 25
0.5
 16
0.0
 26
0.0
 36
1.0
 17
0.0
 27
0.0
 37
0.0
 40
1000.0
 41
1.34
 42
50.0
 43
0.0
 44
0.0
 50
0.0
 51
0.0
 71
0
 72
1000
 73
1
 74
3
 75
0
 76
0
 77
0
 78
0
281
0
 65
0
146
0.0
  0
ENDTAB
  0
TABLE
  2
LTYPE
  5
2
330
0
100
AcDbSymbolTable
 70
3
  0
LTYPE
  5
24
330
2
100
AcDbSymbolTableRecord
100
AcDbLinetypeTableRecord
  2
ByBlock
 70
0
  3

 72
65
 73
0
 40
0.0
  0
LTYPE
  5
25
330
2
100
AcDbSymbolTableRecord
100
AcDbLinetypeTableRecord
  2
ByLayer
 70
0
  3

 72
65
 73
0
 40
0.0
  0
LTYPE
  5
26
330
2
100
AcDbSymbolTableRecord
100
AcDbLinetypeTableRecord
  2
Continuous
 70
0
  3

 72
65
 73
0
 40
0.0
  0
ENDTAB
  0
TABLE
  2
LAYER
  5
1
330
0
100
AcDbSymbolTable
 70
2
  0
LAYER
  5
27
330
1
100
AcDbSymbolTableRecord
100
AcDbLayerTableRecord
  2
0
 70
0
 62
7
  6
Continuous
370
-3
390
13
347
21
  0
LAYER
  5
28
330
1
100
AcDbSymbolTableRecord
100
AcDbLayerTableRecord
  2
Defpoints
 70
0
 62
7
  6
Continuous
290
0
370
-3
390
13
347
21
  0
ENDTAB
  0
TABLE
  2
STYLE
  5
5
330
0
100
AcDbSymbolTable
 70
1
  0
STYLE
  5
29
330
5
100
AcDbSymbolTableRecord
100
AcDbTextStyleTableRecord
  2
Standard
 70
0
 40
0.0
 41
1.0
 50
0.0
 71
0
 42
2.5
  3
txt
  4

  0
ENDTAB
  0
TABLE
  2
VIEW
  5
7
330
0
100
AcDbSymbolTable
 70
0
  0
ENDTAB
  0
TABLE
  2
UCS
  5
6
330
0
100
AcDbSymbolTable
 70
0
  0
ENDTAB
  0
TABLE
  2
APPID
  5
3
330
0
100
AcDbSymbolTable
 70
3
  0
APPID
  5
2A
330
3
100
AcDbSymbolTableRecord
100
AcDbRegAppTableRecord
  2
ACAD
 70
0
  0
APPID
  5
1A4
330
3
100
AcDbSymbolTableRecord
100
AcDbRegAppTableRecord
  2
HATCHBACKGROUNDCOLOR
 70
0
  0
APPID
  5
1A5
330
3
100
AcDbSymbolTableRecord
100
AcDbRegAppTableRecord
  2
EZDXF
 70
0
  0
ENDTAB
  0
TABLE
  2
DIMSTYLE
  5
4
330
0
100
AcDbSymbolTable
 70
1
100
AcDbDimStyleTable
  0
DIMSTYLE
105
2B
330
4
100
AcDbSymbolTableRecord
100
AcDbDimStyleTableRecord
  2
Standard
 70
0
 40
1.0
 41
2.5
 42
0.625
 43
3.75
 44
1.25
 45
0.0
 46
0.0
 47
0.0
 48
0.0
 49
2.5
140
2.5
141
2.5
142
0.0
143
0.03937007874
144
1.0
145
0.0
146
1.0
147
0.625
148
0.0
 69
0
 70
0
 71
0
 72
0
 73
0
 74
0
 75
0
 76
0
 77
1
 78
8
 79
3
170
0
171
3
172
1
173
0
174
0
175
0
176
0
177
0
178
0
179
2
271
2
272
2
273
2
274
3
275
0
276
0
277
2
278
44
279
0
280
0
281
0
282
0
283
0
284
8
285
0
286
0
288
0
289
3
290
0
371
-2
372
-2
  0
ENDTAB
  0
TABLE
  2
BLOCK_RECORD
  5
9
330
0
100
AcDbSymbolTable
 70
2
  0
BLOCK_RECORD
  5
17
330
9
100
AcDbSymbolTableRecord
100
AcDbBlockTableRecord
  2
*Model_Space
340
1A
 70
0
280
1
281
0
  0
BLOCK_RECORD
  5
1B
330
9
100
AcDbSymbolTableRecord
100
AcDbBlockTableRecord
  2
*Paper_Space
340
1E
 70
0
280
1
281
0
  0
ENDTAB
  0
ENDSEC
  0
SECTION
  2
BLOCKS
  0
BLOCK
  5
18
330
17
100
AcDbEntity
  8
0
100
AcDbBlockBegin
  2
*Model_Space
 70
0
 10
0.0
 20
0.0
 30
0.0
  3
*Model_Space
  1

  0
ENDBLK
  5
19
330
17
100
AcDbEntity
  8
0
100
AcDbBlockEnd
  0
BLOCK
  5
1C
330
1B
100
AcDbEntity
  8
0
100
AcDbBlockBegin
  2
*Paper_Space
 70
0
 10
0.0
 20
0.0
 30
0.0
  3
*Paper_Space
  1

  0
ENDBLK
  5
1D
330
1B
100
AcDbEntity
  8
0
100
AcDbBlockEnd
  0
ENDSEC
  0
SECTION
  2
ENTITIES
  0
LINE
  5
2F
330
17
100
AcDbEntity
  8
0
100
AcDbLine
 10
17.059656
 20
-188.639958
 30
0.0
 11
16.805656
 21
-170.483784
 31
0.0
  0
LINE
  5
30
330
17
100
AcDbEntity
  8
0
100
AcDbLine
 10
16.805656
 20
-170.483784
 30
0.0
 11
11.082782000000002
 21
-170.49369000000002
 31
0.0
  0
LINE
  5
31
330
17
100
AcDbEntity
  8
0
100
AcDbLine
 10
11.082782000000002
 20
-170.49369000000002
 30
0.0
 11
10.895076000000001
 21
-170.52290000000002
 31
0.0
  0
LINE
  5
32
330
17
100
AcDbEntity
  8
0
100
AcDbLine
 10
10.895076000000001
 20
-170.52290000000002
 30
0.0
 11
10.714228
 21
-170.570398
 31
0.0
  0
LINE
  5
33
330
17
100
AcDbEntity
  8
0
100
AcDbLine
 10
10.714228
 20
-170.570398
 30
0.0
 11
10.541
 21
-170.63516800000002
 31
0.0
  0
LINE
  5
34
330
17
100
AcDbEntity
  8
0
100
AcDbLine
 10
10.541
 20
-170.63516800000002
 30
0.0
 11
10.376662000000001
 21
-170.71594000000002
 31
0.0
  0
LINE
  5
35
330
17
100
AcDbEntity
  8
0
100
AcDbLine
 10
10.376662000000001
 20
-170.71594000000002
 30
0.0
 11
10.221976
 21
-170.812206
 31
0.0
  0
LINE
  5
36
330
17
100
AcDbEntity
  8
0
100
AcDbLine
 10
10.221976
 20
-170.812206
 30
0.0
 11
10.077958
 21
-170.922696
 31
0.0
  0
LINE
  5
37
330
17
100
AcDbEntity
  8
0
100
AcDbLine
 10
10.077958
 20
-170.922696
 30
0.0
 11
9.945624
 21
-171.046394
 31
0.0
  0
LINE
  5
38
330
17
100
AcDbEntity
  8
0
100
AcDbLine
 10
9.945624
 20
-171.046394
 30
0.0
 11
9.825736
 21
-171.18228399999998
 31
0.0
  0
LINE
  5
39
330
17
100
AcDbEntity
  8
0
100
AcDbLine
 10
9.825736
 20
-171.18228399999998
 30
0.0
 11
9.719564
 21
-171.32934999999998
 31
0.0
  0
LINE
  5
3A
330
17
100
AcDbEntity
  8
0
100
AcDbLine
 10
9.719564
 20
-171.32934999999998
 30
0.0
 11
9.62787
 21
-171.48682999999997
 31
0.0
  0
LINE
  5
3B
330
17
100
AcDbEntity
  8
0
100
AcDbLine
 10
9.62787
 20
-171.48682999999997
 30
0.0
 11
9.551670000000001
 21
-171.65345399999995
 31
0.0
  0
LINE
  5
3C
330
17
100
AcDbEntity
  8
0
100
AcDbLine
 10
9.551670000000001
 20
-171.65345399999995
 30
0.0
 11
9.491980000000002
 21
-171.82845999999995
 31
0.0
  0
LINE
  5
3D
330
17
100
AcDbEntity
  8
0
100
AcDbLine
 10
9.491980000000002
 20
-171.82845999999995
 30
0.0
 11
9.449816000000002
 21
-172.01057799999995
 31
0.0
  0
LINE
  5
3E
330
17
100
AcDbEntity
  8
0
100
AcDbLine
 10
9.449816000000002
 20
-172.01057799999995
 30
0.0
 11
9.425940000000002
 21
-172.19904599999992
 31
0.0
  0
LINE
  5
3F
330
17
100
AcDbEntity
  8
0
100
AcDbLine
 10
9.425940000000002
 20
-172.19904599999992
 30
0.0
 11
9.621266000000002
 21
-188.64046599999995
 31
0.0
  0
LINE
  5
40
330
17
100
AcDbEntity
  8
0
100
AcDbLine
 10
9.621266000000002
 20
-188.64046599999995
 30
0.0
 11
17.059910000000002
 21
-188.64046599999995
 31
0.0
  0
LINE
  5
41
330
17
100
AcDbEntity
  8
0
100
AcDbLine
 10
116.925852
 20
-192.14769799999993
 30
0.0
 11
116.48973400000001
 21
-194.47052799999994
 31
0.0
  0
LINE
  5
42
330
17
100
AcDbEntity
  8
0
100
AcDbLine
 10
116.48973400000001
 20
-194.47052799999994
 30
0.0
 11
115.99138600000002
 21
-196.37705199999994
 31
0.0
  0
LINE
  5
43
330
17
100
AcDbEntity
  8
0
100
AcDbLine
 10
115.99138600000002
 20
-196.37705199999994
 30
0.0
 11
115.46789200000002
 21
-197.90003599999991
 31
0.0
  0
LINE
  5
44
330
17
100
AcDbEntity
  8
0
100
AcDbLine
 10
115.46789200000002
 20
-197.90003599999991
 30
0.0
 11
114.95659000000002
 21
-199.0724999999999
 31
0.0
  0
LINE
  5
45
330
17
100
AcDbEntity
  8
0
100
AcDbLine
 10
114.95659000000002
 20
-199.0724999999999
 30
0.0
 11
114.49431000000003
 21
-199.92720999999992
 31
0.0
  0
LINE
  5
46
330
17
100
AcDbEntity
  8
0
100
AcDbLine
 10
114.49431000000003
 20
-199.92720999999992
 30
0.0
 11
114.11813600000004
 21
-200.4971859999999
 31
0.0
  0
LINE
  5
47
330
17
100
AcDbEntity
  8
0
100
AcDbLine
 10
114.11813600000004
 20
-200.4971859999999
 30
0.0
 11
113.86515200000004
 21
-200.81493999999992
 31
0.0
  0
LINE
  5
48
330
17
100
AcDbEntity
  8
0
100
AcDbLine
 10
113.86515200000004
 20
-200.81493999999992
 30
0.0
 11
113.77269600000004
 21
-200.91349199999993
 31
0.0
  0
LINE
  5
49
330
17
100
AcDbEntity
  8
0
100
AcDbLine
 10
113.77269600000004
 20
-200.91349199999993
 30
0.0
 11
137.96238600000004
 21
-200.89571199999992
 31
0.0
  0
LINE
  5
4A
330
17
100
AcDbEntity
  8
0
100
AcDbLine
 10
137.96238600000004
 20
-200.89571199999992
 30
0.0
 11
137.95959200000004
 21
-198.89038199999993
 31
0.0
  0
LINE
  5
4B
330
17
100
AcDbEntity
  8
0
100
AcDbLine
 10
137.95959200000004
 20
-198.89038199999993
 30
0.0
 11
138.08506800000004
 21
-197.1344799999999
 31
0.0
  0
LINE
  5
4C
330
17
100
AcDbEntity
  8
0
100
AcDbLine
 10
138.08506800000004
 20
-197.1344799999999
 30
0.0
 11
138.56335000000004
 21
-194.39331199999992
 31
0.0
  0
LINE
  5
4D
330
17
100
AcDbEntity
  8
0
100
AcDbLine
 10
138.56335000000004
 20
-194.39331199999992
 30
0.0
 11
139.08151000000004
 21
-192.7161499999999
 31
0.0
  0
LINE
  5
4E
330
17
100
AcDbEntity
  8
0
100
AcDbLine
 10
139.08151000000004
 20
-192.7161499999999
 30
0.0
 11
139.32433400000005
 21
-192.14744399999992
 31
0.0
  0
LINE
  5
4F
330
17
100
AcDbEntity
  8
0
100
AcDbLine
 10
139.32433400000005
 20
-192.14744399999992
 30
0.0
 11
116.92585200000005
 21
-192.14744399999992
 31
0.0
  0
LINE
  5
50
330
17
100
AcDbEntity
  8
0
100
AcDbLine
 10
190.64706600000005
 20
-192.1507459999999
 30
0.0
 11
142.94129400000006
 21
-192.4014439999999
 31
0.0
  0
LINE
  5
51
330
17
100
AcDbEntity
  8
0
100
AcDbLine
 10
142.94129400000006
 20
-192.4014439999999
 30
0.0
 11
142.94129400000006
 21
-196.40930999999992
 31
0.0
  0
LINE
  5
52
330
17
100
AcDbEntity
  8
0
100
AcDbLine
 10
142.94129400000006
 20
-196.40930999999992
 30
0.0
 11
187.45885800000005
 21
-195.96455599999993
 31
0.0
  0
LINE
  5
53
330
17
100
AcDbEntity
  8
0
100
AcDbLine
 10
187.45885800000005
 20
-195.96455599999993
 30
0.0
 11
187.76467400000004
 21
-195.9076599999999
 31
0.0
  0
LINE
  5
54
330
17
100
AcDbEntity
  8
0
100
AcDbLine
 10
187.76467400000004
 20
-195.9076599999999
 30
0.0
 11
188.06160000000003
 21
-195.8243479999999
 31
0.0
  0
LINE
  5
55
330
17
100
AcDbEntity
  8
0
100
AcDbLine
 10
188.06160000000003
 20
-195.8243479999999
 30
0.0
 11
188.35014400000003
 21
-195.71157199999993
 31
0.0
  0
LINE
  5
56
330
17
100
AcDbEntity
  8
0
100
AcDbLine
 10
188.35014400000003
 20
-195.71157199999993
 30
0.0
 11
188.63081400000002
 21
-195.56653799999992
 31
0.0
  0
LINE
  5
57
330
17
100
AcDbEntity
  8
0
100
AcDbLine
 10
188.63081400000002
 20
-195.56653799999992
 30
0.0
 11
188.90437200000002
 21
-195.3861979999999
 31
0.0
  0
LINE
  5
58
330
17
100
AcDbEntity
  8
0
100
AcDbLine
 10
188.90437200000002
 20
-195.3861979999999
 30
0.0
 11
189.17132600000002
 21
-195.1677579999999
 31
0.0
  0
LINE
  5
59
330
17
100
AcDbEntity
  8
0
100
AcDbLine
 10
189.17132600000002
 20
-195.1677579999999
 30
0.0
 11
189.36233400000003
 21
-194.9792899999999
 31
0.0
  0
LINE
  5
5A
330
17
100
AcDbEntity
  8
0
100
AcDbLine
 10
189.36233400000003
 20
-194.9792899999999
 30
0.0
 11
189.69913800000003
 21
-194.5612059999999
 31
0.0
  0
LINE
  5
5B
330
17
100
AcDbEntity
  8
0
100
AcDbLine
 10
189.69913800000003
 20
-194.5612059999999
 30
0.0
 11
190.93281600000003
 21
-192.61175599999993
 31
0.0
  0
LINE
  5
5C
330
17
100
AcDbEntity
  8
0
100
AcDbLine
 10
190.93281600000003
 20
-192.61175599999993
 30
0.0
 11
190.94246800000002
 21
-192.59092799999993
 31
0.0
  0
LINE
  5
5D
330
17
100
AcDbEntity
  8
0
100
AcDbLine
 10
190.94246800000002
 20
-192.59092799999993
 30
0.0
 11
190.95059600000002
 21
-192.56984599999996
 31
0.0
  0
LINE
  5
5E
330
17
100
AcDbEntity
  8
0
100
AcDbLine
 10
190.95059600000002
 20
-192.56984599999996
 30
0.0
 11
190.95694600000002
 21
-192.54876399999995
 31
0.0
  0
LINE
  5
5F
330
17
100
AcDbEntity
  8
0
100
AcDbLine
 10
190.95694600000002
 20
-192.54876399999995
 30
0.0
 11
190.96177200000002
 21
-192.52742799999996
 31
0.0
  0
LINE
  5
60
330
17
100
AcDbEntity
  8
0
100
AcDbLine
 10
190.96177200000002
 20
-192.52742799999996
 30
0.0
 11
190.96685200000002
 21
-192.48450199999996
 31
0.0
  0
LINE
  5
61
330
17
100
AcDbEntity
  8
0
100
AcDbLine
 10
190.96685200000002
 20
-192.48450199999996
 30
0.0
 11
190.96583600000002
 21
-192.44208399999997
 31
0.0
  0
LINE
  5
62
330
17
100
AcDbEntity
  8
0
100
AcDbLine
 10
190.96583600000002
 20
-192.44208399999997
 30
0.0
 11
190.95923200000004
 21
-192.40042799999998
 31
0.0
  0
LINE
  5
63
330
17
100
AcDbEntity
  8
0
100
AcDbLine
 10
190.95923200000004
 20
-192.40042799999998
 30
0.0
 11
190.94729400000003
 21
-192.36029599999995
 31
0.0
  0
LINE
  5
64
330
17
100
AcDbEntity
  8
0
100
AcDbLine
 10
190.94729400000003
 20
-192.36029599999995
 30
0.0
 11
190.93027600000002
 21
-192.32194199999998
 31
0.0
  0
LINE
  5
65
330
17
100
AcDbEntity
  8
0
100
AcDbLine
 10
190.93027600000002
 20
-192.32194199999998
 30
0.0
 11
190.908432
 21
-192.286128
 31
0.0
  0
LINE
  5
66
330
17
100
AcDbEntity
  8
0
100
AcDbLine
 10
190.908432
 20
-192.286128
 30
0.0
 11
190.88227000000003
 21
-192.25336199999998
 31
0.0
  0
LINE
  5
67
330
17
100
AcDbEntity
  8
0
100
AcDbLine
 10
190.88227000000003
 20
-192.25336199999998
 30
0.0
 11
190.85179000000002
 21
-192.22415199999998
 31
0.0
  0
LINE
  5
68
330
17
100
AcDbEntity
  8
0
100
AcDbLine
 10
190.85179000000002
 20
-192.22415199999998
 30
0.0
 11
190.81750000000002
 21
-192.19900599999997
 31
0.0
  0
LINE
  5
69
330
17
100
AcDbEntity
  8
0
100
AcDbLine
 10
190.81750000000002
 20
-192.19900599999997
 30
0.0
 11
190.77965400000002
 21
-192.17868599999994
 31
0.0
  0
LINE
  5
6A
330
17
100
AcDbEntity
  8
0
100
AcDbLine
 10
190.77965400000002
 20
-192.17868599999994
 30
0.0
 11
190.75933400000002
 21
-192.17030399999996
 31
0.0
  0
LINE
  5
6B
330
17
100
AcDbEntity
  8
0
100
AcDbLine
 10
190.75933400000002
 20
-192.17030399999996
 30
0.0
 11
190.73825200000002
 21
-192.16344599999994
 31
0.0
  0
LINE
  5
6C
330
17
100
AcDbEntity
  8
0
100
AcDbLine
 10
190.73825200000002
 20
-192.16344599999994
 30
0.0
 11
190.71640800000003
 21
-192.15811199999996
 31
0.0
  0
LINE
  5
6D
330
17
100
AcDbEntity
  8
0
100
AcDbLine
 10
190.71640800000003
 20
-192.15811199999996
 30
0.0
 11
190.693802
 21
-192.15404799999996
 31
0.0
  0
LINE
  5
6E
330
17
100
AcDbEntity
  8
0
100
AcDbLine
 10
190.693802
 20
-192.15404799999996
 30
0.0
 11
190.67043400000003
 21
-192.15176199999996
 31
0.0
  0
LINE
  5
6F
330
17
100
AcDbEntity
  8
0
100
AcDbLine
 10
190.67043400000003
 20
-192.15176199999996
 30
0.0
 11
190.646558
 21
-192.15099999999995
 31
0.0
  0
LINE
  5
70
330
17
100
AcDbEntity
  8
0
100
AcDbLine
 10
190.610998
 20
-171.24629199999993
 30
0.0
 11
116.024914
 21
-170.97679799999992
 31
0.0
  0
LINE
  5
71
330
17
100
AcDbEntity
  8
0
100
AcDbLine
 10
116.024914
 20
-170.97679799999992
 30
0.0
 11
115.987068
 21
-172.65599199999994
 31
0.0
  0
LINE
  5
72
330
17
100
AcDbEntity
  8
0
100
AcDbLine
 10
115.987068
 20
-172.65599199999994
 30
0.0
 11
115.814856
 21
-174.0303859999999
 31
0.0
  0
LINE
  5
73
330
17
100
AcDbEntity
  8
0
100
AcDbLine
 10
115.814856
 20
-174.0303859999999
 30
0.0
 11
115.67541000000001
 21
-174.62449199999992
 31
0.0
  0
LINE
  5
74
330
17
100
AcDbEntity
  8
0
100
AcDbLine
 10
115.67541000000001
 20
-174.62449199999992
 30
0.0
 11
115.49888000000001
 21
-175.16754399999994
 31
0.0
  0
LINE
  5
75
330
17
100
AcDbEntity
  8
0
100
AcDbLine
 10
115.49888000000001
 20
-175.16754399999994
 30
0.0
 11
115.28425
 21
-175.66843199999994
 31
0.0
  0
LINE
  5
76
330
17
100
AcDbEntity
  8
0
100
AcDbLine
 10
115.28425
 20
-175.66843199999994
 30
0.0
 11
115.03025
 21
-176.13528399999993
 31
0.0
  0
LINE
  5
77
330
17
100
AcDbEntity
  8
0
100
AcDbLine
 10
115.03025
 20
-176.13528399999993
 30
0.0
 11
114.610134
 21
-176.7329459999999
 31
0.0
  0
LINE
  5
78
330
17
100
AcDbEntity
  8
0
100
AcDbLine
 10
114.610134
 20
-176.7329459999999
 30
0.0
 11
114.119152
 21
-177.2615199999999
 31
0.0
  0
LINE
  5
79
330
17
100
AcDbEntity
  8
0
100
AcDbLine
 10
114.119152
 20
-177.2615199999999
 30
0.0
 11
113.56644800000001
 21
-177.71719599999992
 31
0.0
  0
LINE
  5
7A
330
17
100
AcDbEntity
  8
0
100
AcDbLine
 10
113.56644800000001
 20
-177.71719599999992
 30
0.0
 11
112.960404
 21
-178.09667199999993
 31
0.0
  0
LINE
  5
7B
330
17
100
AcDbEntity
  8
0
100
AcDbLine
 10
112.960404
 20
-178.09667199999993
 30
0.0
 11
112.30991
 21
-178.39613799999992
 31
0.0
  0
LINE
  5
7C
330
17
100
AcDbEntity
  8
0
100
AcDbLine
 10
112.30991
 20
-178.39613799999992
 30
0.0
 11
111.623602
 21
-178.61178399999991
 31
0.0
  0
LINE
  5
7D
330
17
100
AcDbEntity
  8
0
100
AcDbLine
 10
111.623602
 20
-178.61178399999991
 30
0.0
 11
110.91037000000001
 21
-178.7403079999999
 31
0.0
  0
LINE
  5
7E
330
17
100
AcDbEntity
  8
0
100
AcDbLine
 10
110.91037000000001
 20
-178.7403079999999
 30
0.0
 11
90.24874000000001
 21
-178.53355199999993
 31
0.0
  0
LINE
  5
7F
330
17
100
AcDbEntity
  8
0
100
AcDbLine
 10
90.24874000000001
 20
-178.53355199999993
 30
0.0
 11
90.11691400000001
 21
-178.52085199999993
 31
0.0
  0
LINE
  5
80
330
17
100
AcDbEntity
  8
0
100
AcDbLine
 10
90.11691400000001
 20
-178.52085199999993
 30
0.0
 11
89.98686600000002
 21
-178.49875399999993
 31
0.0
  0
LINE
  5
81
330
17
100
AcDbEntity
  8
0
100
AcDbLine
 10
89.98686600000002
 20
-178.49875399999993
 30
0.0
 11
89.85885
 21
-178.4675119999999
 31
0.0
  0
LINE
  5
82
330
17
100
AcDbEntity
  8
0
100
AcDbLine
 10
89.85885
 20
-178.4675119999999
 30
0.0
 11
89.733374
 21
-178.42712599999993
 31
0.0
  0
LINE
  5
83
330
17
100
AcDbEntity
  8
0
100
AcDbLine
 10
89.733374
 20
-178.42712599999993
 30
0.0
 11
89.610946
 21
-178.37784999999994
 31
0.0
  0
LINE
  5
84
330
17
100
AcDbEntity
  8
0
100
AcDbLine
 10
89.610946
 20
-178.37784999999994
 30
0.0
 11
89.49207399999999
 21
-178.31993799999995
 31
0.0
  0
LINE
  5
85
330
17
100
AcDbEntity
  8
0
100
AcDbLine
 10
89.49207399999999
 20
-178.31993799999995
 30
0.0
 11
87.14232
 21
-176.84876999999994
 31
0.0
  0
LINE
  5
86
330
17
100
AcDbEntity
  8
0
100
AcDbLine
 10
87.14232
 20
-176.84876999999994
 30
0.0
 11
87.09558399999999
 21
-176.84394399999994
 31
0.0
  0
LINE
  5
87
330
17
100
AcDbEntity
  8
0
100
AcDbLine
 10
87.09558399999999
 20
-176.84394399999994
 30
0.0
 11
70.54265799999999
 21
-176.82870399999996
 31
0.0
  0
LINE
  5
88
330
17
100
AcDbEntity
  8
0
100
AcDbLine
 10
70.54265799999999
 20
-176.82870399999996
 30
0.0
 11
70.25259
 21
-176.78399999999993
 31
0.0
  0
LINE
  5
89
330
17
100
AcDbEntity
  8
0
100
AcDbLine
 10
70.25259
 20
-176.78399999999993
 30
0.0
 11
69.972174
 21
-176.71135599999997
 31
0.0
  0
LINE
  5
8A
330
17
100
AcDbEntity
  8
0
100
AcDbLine
 10
69.972174
 20
-176.71135599999997
 30
0.0
 11
69.703188
 21
-176.61254999999997
 31
0.0
  0
LINE
  5
8B
330
17
100
AcDbEntity
  8
0
100
AcDbLine
 10
69.703188
 20
-176.61254999999997
 30
0.0
 11
69.44715599999999
 21
-176.48885199999995
 31
0.0
  0
LINE
  5
8C
330
17
100
AcDbEntity
  8
0
100
AcDbLine
 10
69.44715599999999
 20
-176.48885199999995
 30
0.0
 11
69.205348
 21
-176.34153199999994
 31
0.0
  0
LINE
  5
8D
330
17
100
AcDbEntity
  8
0
100
AcDbLine
 10
69.205348
 20
-176.34153199999994
 30
0.0
 11
68.979542
 21
-176.17236799999995
 31
0.0
  0
LINE
  5
8E
330
17
100
AcDbEntity
  8
0
100
AcDbLine
 10
68.979542
 20
-176.17236799999995
 30
0.0
 11
68.771262
 21
-175.98288399999996
 31
0.0
  0
LINE
  5
8F
330
17
100
AcDbEntity
  8
0
100
AcDbLine
 10
68.771262
 20
-175.98288399999996
 30
0.0
 11
68.581778
 21
-175.77460399999993
 31
0.0
  0
LINE
  5
90
330
17
100
AcDbEntity
  8
0
100
AcDbLine
 10
68.581778
 20
-175.77460399999993
 30
0.0
 11
68.412614
 21
-175.54879799999992
 31
0.0
  0
LINE
  5
91
330
17
100
AcDbEntity
  8
0
100
AcDbLine
 10
68.412614
 20
-175.54879799999992
 30
0.0
 11
68.26529400000001
 21
-175.3072439999999
 31
0.0
  0
LINE
  5
92
330
17
100
AcDbEntity
  8
0
100
AcDbLine
 10
68.26529400000001
 20
-175.3072439999999
 30
0.0
 11
68.14134200000001
 21
-175.0512119999999
 31
0.0
  0
LINE
  5
93
330
17
100
AcDbEntity
  8
0
100
AcDbLine
 10
68.14134200000001
 20
-175.0512119999999
 30
0.0
 11
68.042536
 21
-174.78222599999992
 31
0.0
  0
LINE
  5
94
330
17
100
AcDbEntity
  8
0
100
AcDbLine
 10
68.042536
 20
-174.78222599999992
 30
0.0
 11
67.969892
 21
-174.50180999999992
 31
0.0
  0
LINE
  5
95
330
17
100
AcDbEntity
  8
0
100
AcDbLine
 10
67.969892
 20
-174.50180999999992
 30
0.0
 11
67.925188
 21
-174.21148799999992
 31
0.0
  0
LINE
  5
96
330
17
100
AcDbEntity
  8
0
100
AcDbLine
 10
67.925188
 20
-174.21148799999992
 30
0.0
 11
67.919346
 21
-173.1825339999999
 31
0.0
  0
LINE
  5
97
330
17
100
AcDbEntity
  8
0
100
AcDbLine
 10
67.919346
 20
-173.1825339999999
 30
0.0
 11
67.947032
 21
-172.9605379999999
 31
0.0
  0
LINE
  5
98
330
17
100
AcDbEntity
  8
0
100
AcDbLine
 10
67.947032
 20
-172.9605379999999
 30
0.0
 11
67.99249799999998
 21
-172.7489559999999
 31
0.0
  0
LINE
  5
99
330
17
100
AcDbEntity
  8
0
100
AcDbLine
 10
67.99249799999998
 20
-172.7489559999999
 30
0.0
 11
68.054728
 21
-172.5475339999999
 31
0.0
  0
LINE
  5
9A
330
17
100
AcDbEntity
  8
0
100
AcDbLine
 10
68.054728
 20
-172.5475339999999
 30
0.0
 11
68.133214
 21
-172.35627199999988
 31
0.0
  0
LINE
  5
9B
330
17
100
AcDbEntity
  8
0
100
AcDbLine
 10
68.133214
 20
-172.35627199999988
 30
0.0
 11
68.22694
 21
-172.17491599999988
 31
0.0
  0
LINE
  5
9C
330
17
100
AcDbEntity
  8
0
100
AcDbLine
 10
68.22694
 20
-172.17491599999988
 30
0.0
 11
68.33539800000001
 21
-172.00371999999987
 31
0.0
  0
LINE
  5
9D
330
17
100
AcDbEntity
  8
0
100
AcDbLine
 10
68.33539800000001
 20
-172.00371999999987
 30
0.0
 11
68.45782600000001
 21
-171.84268399999988
 31
0.0
  0
LINE
  5
9E
330
17
100
AcDbEntity
  8
0
100
AcDbLine
 10
68.45782600000001
 20
-171.84268399999988
 30
0.0
 11
68.59346200000002
 21
-171.69155399999985
 31
0.0
  0
LINE
  5
9F
330
17
100
AcDbEntity
  8
0
100
AcDbLine
 10
68.59346200000002
 20
-171.69155399999985
 30
0.0
 11
68.74179800000002
 21
-171.55058399999987
 31
0.0
  0
LINE
  5
A0
330
17
100
AcDbEntity
  8
0
100
AcDbLine
 10
68.74179800000002
 20
-171.55058399999987
 30
0.0
 11
68.90181800000002
 21
-171.4195199999999
 31
0.0
  0
LINE
  5
A1
330
17
100
AcDbEntity
  8
0
100
AcDbLine
 10
68.90181800000002
 20
-171.4195199999999
 30
0.0
 11
69.25411600000001
 21
-171.1873639999999
 31
0.0
  0
LINE
  5
A2
330
17
100
AcDbEntity
  8
0
100
AcDbLine
 10
69.25411600000001
 20
-171.1873639999999
 30
0.0
 11
69.64476800000001
 21
-170.9948319999999
 31
0.0
  0
LINE
  5
A3
330
17
100
AcDbEntity
  8
0
100
AcDbLine
 10
69.64476800000001
 20
-170.9948319999999
 30
0.0
 11
69.85254000000002
 21
-170.91329799999988
 31
0.0
  0
LINE
  5
A4
330
17
100
AcDbEntity
  8
0
100
AcDbLine
 10
69.85254000000002
 20
-170.91329799999988
 30
0.0
 11
69.85254000000002
 21
-170.8089039999999
 31
0.0
  0
LINE
  5
A5
330
17
100
AcDbEntity
  8
0
100
AcDbLine
 10
69.85254000000002
 20
-170.8089039999999
 30
0.0
 11
50.012346000000015
 21
-170.73727599999987
 31
0.0
  0
LINE
  5
A6
330
17
100
AcDbEntity
  8
0
100
AcDbLine
 10
50.012346000000015
 20
-170.73727599999987
 30
0.0
 11
50.012346000000015
 21
-188.63944999999987
 31
0.0
  0
LINE
  5
A7
330
17
100
AcDbEntity
  8
0
100
AcDbLine
 10
50.012346000000015
 20
-188.63944999999987
 30
0.0
 11
193.39128200000002
 21
-188.63944999999987
 31
0.0
  0
LINE
  5
A8
330
17
100
AcDbEntity
  8
0
100
AcDbLine
 10
193.39128200000002
 20
-188.63944999999987
 30
0.0
 11
193.37680400000002
 21
-173.74234999999987
 31
0.0
  0
LINE
  5
A9
330
17
100
AcDbEntity
  8
0
100
AcDbLine
 10
193.37680400000002
 20
-173.74234999999987
 30
0.0
 11
193.33464
 21
-173.46625199999988
 31
0.0
  0
LINE
  5
AA
330
17
100
AcDbEntity
  8
0
100
AcDbLine
 10
193.33464
 20
-173.46625199999988
 30
0.0
 11
193.26606
 21
-173.19980599999988
 31
0.0
  0
LINE
  5
AB
330
17
100
AcDbEntity
  8
0
100
AcDbLine
 10
193.26606
 20
-173.19980599999988
 30
0.0
 11
193.172588
 21
-172.9442819999999
 31
0.0
  0
LINE
  5
AC
330
17
100
AcDbEntity
  8
0
100
AcDbLine
 10
193.172588
 20
-172.9442819999999
 30
0.0
 11
193.05549399999998
 21
-172.7012039999999
 31
0.0
  0
LINE
  5
AD
330
17
100
AcDbEntity
  8
0
100
AcDbLine
 10
193.05549399999998
 20
-172.7012039999999
 30
0.0
 11
192.916048
 21
-172.4718419999999
 31
0.0
  0
LINE
  5
AE
330
17
100
AcDbEntity
  8
0
100
AcDbLine
 10
192.916048
 20
-172.4718419999999
 30
0.0
 11
192.756028
 21
-172.2577199999999
 31
0.0
  0
LINE
  5
AF
330
17
100
AcDbEntity
  8
0
100
AcDbLine
 10
192.756028
 20
-172.2577199999999
 30
0.0
 11
192.57645
 21
-172.0601079999999
 31
0.0
  0
LINE
  5
B0
330
17
100
AcDbEntity
  8
0
100
AcDbLine
 10
192.57645
 20
-172.0601079999999
 30
0.0
 11
192.37883799999997
 21
-171.8805299999999
 31
0.0
  0
LINE
  5
B1
330
17
100
AcDbEntity
  8
0
100
AcDbLine
 10
192.37883799999997
 20
-171.8805299999999
 30
0.0
 11
192.164716
 21
-171.7205099999999
 31
0.0
  0
LINE
  5
B2
330
17
100
AcDbEntity
  8
0
100
AcDbLine
 10
192.164716
 20
-171.7205099999999
 30
0.0
 11
191.935354
 21
-171.5810639999999
 31
0.0
  0
LINE
  5
B3
330
17
100
AcDbEntity
  8
0
100
AcDbLine
 10
191.935354
 20
-171.5810639999999
 30
0.0
 11
191.692276
 21
-171.4639699999999
 31
0.0
  0
LINE
  5
B4
330
17
100
AcDbEntity
  8
0
100
AcDbLine
 10
191.692276
 20
-171.4639699999999
 30
0.0
 11
191.436752
 21
-171.37049799999988
 31
0.0
  0
LINE
  5
B5
330
17
100
AcDbEntity
  8
0
100
AcDbLine
 10
191.436752
 20
-171.37049799999988
 30
0.0
 11
191.170306
 21
-171.3019179999999
 31
0.0
  0
LINE
  5
B6
330
17
100
AcDbEntity
  8
0
100
AcDbLine
 10
191.170306
 20
-171.3019179999999
 30
0.0
 11
190.89420800000002
 21
-171.25975399999987
 31
0.0
  0
LINE
  5
B7
330
17
100
AcDbEntity
  8
0
100
AcDbLine
 10
190.89420800000002
 20
-171.25975399999987
 30
0.0
 11
190.60972800000002
 21
-171.24527599999988
 31
0.0
  0
LINE
  5
B8
330
17
100
AcDbEntity
  8
0
100
AcDbLine
 10
74.53249
 20
-192.9983439999999
 30
0.0
 11
71.381366
 21
-199.5909139999999
 31
0.0
  0
LINE
  5
B9
330
17
100
AcDbEntity
  8
0
100
AcDbLine
 10
71.381366
 20
-199.5909139999999
 30
0.0
 11
71.251318
 21
-199.8144339999999
 31
0.0
  0
LINE
  5
BA
330
17
100
AcDbEntity
  8
0
100
AcDbLine
 10
71.251318
 20
-199.8144339999999
 30
0.0
 11
71.10628399999999
 21
-200.0262699999999
 31
0.0
  0
LINE
  5
BB
330
17
100
AcDbEntity
  8
0
100
AcDbLine
 10
71.10628399999999
 20
-200.0262699999999
 30
0.0
 11
70.94753399999999
 21
-200.2256599999999
 31
0.0
  0
LINE
  5
BC
330
17
100
AcDbEntity
  8
0
100
AcDbLine
 10
70.94753399999999
 20
-200.2256599999999
 30
0.0
 11
70.77557599999999
 21
-200.4123499999999
 31
0.0
  0
LINE
  5
BD
330
17
100
AcDbEntity
  8
0
100
AcDbLine
 10
70.77557599999999
 20
-200.4123499999999
 30
0.0
 11
70.59142599999998
 21
-200.58557799999988
 31
0.0
  0
LINE
  5
BE
330
17
100
AcDbEntity
  8
0
100
AcDbLine
 10
70.59142599999998
 20
-200.58557799999988
 30
0.0
 11
70.39584599999999
 21
-200.74483599999988
 31
0.0
  0
LINE
  5
BF
330
17
100
AcDbEntity
  8
0
100
AcDbLine
 10
70.39584599999999
 20
-200.74483599999988
 30
0.0
 11
70.18959799999999
 21
-200.88961599999988
 31
0.0
  0
LINE
  5
C0
330
17
100
AcDbEntity
  8
0
100
AcDbLine
 10
70.18959799999999
 20
-200.88961599999988
 30
0.0
 11
69.97369799999998
 21
-201.01940999999988
 31
0.0
  0
LINE
  5
C1
330
17
100
AcDbEntity
  8
0
100
AcDbLine
 10
69.97369799999998
 20
-201.01940999999988
 30
0.0
 11
69.74865399999997
 21
-201.1337099999999
 31
0.0
  0
LINE
  5
C2
330
17
100
AcDbEntity
  8
0
100
AcDbLine
 10
69.74865399999997
 20
-201.1337099999999
 30
0.0
 11
69.51573599999998
 21
-201.23200799999987
 31
0.0
  0
LINE
  5
C3
330
17
100
AcDbEntity
  8
0
100
AcDbLine
 10
69.51573599999998
 20
-201.23200799999987
 30
0.0
 11
69.27545199999997
 21
-201.31354199999987
 31
0.0
  0
LINE
  5
C4
330
17
100
AcDbEntity
  8
0
100
AcDbLine
 10
69.27545199999997
 20
-201.31354199999987
 30
0.0
 11
69.02881799999997
 21
-201.37780399999988
 31
0.0
  0
LINE
  5
C5
330
17
100
AcDbEntity
  8
0
100
AcDbLine
 10
69.02881799999997
 20
-201.37780399999988
 30
0.0
 11
68.77659599999997
 21
-201.4245399999999
 31
0.0
  0
LINE
  5
C6
330
17
100
AcDbEntity
  8
0
100
AcDbLine
 10
68.77659599999997
 20
-201.4245399999999
 30
0.0
 11
68.51954799999997
 21
-201.45298799999986
 31
0.0
  0
LINE
  5
C7
330
17
100
AcDbEntity
  8
0
100
AcDbLine
 10
68.51954799999997
 20
-201.45298799999986
 30
0.0
 11
38.00525799999998
 21
-201.4512099999999
 31
0.0
  0
LINE
  5
C8
330
17
100
AcDbEntity
  8
0
100
AcDbLine
 10
38.00525799999998
 20
-201.4512099999999
 30
0.0
 11
37.70502999999998
 21
-201.41717399999987
 31
0.0
  0
LINE
  5
C9
330
17
100
AcDbEntity
  8
0
100
AcDbLine
 10
37.70502999999998
 20
-201.41717399999987
 30
0.0
 11
37.41064399999998
 21
-201.36154799999989
 31
0.0
  0
LINE
  5
CA
330
17
100
AcDbEntity
  8
0
100
AcDbLine
 10
37.41064399999998
 20
-201.36154799999989
 30
0.0
 11
37.123115999999975
 21
-201.28483999999986
 31
0.0
  0
LINE
  5
CB
330
17
100
AcDbEntity
  8
0
100
AcDbLine
 10
37.123115999999975
 20
-201.28483999999986
 30
0.0
 11
36.84346199999998
 21
-201.18755799999985
 31
0.0
  0
LINE
  5
CC
330
17
100
AcDbEntity
  8
0
100
AcDbLine
 10
36.84346199999998
 20
-201.18755799999985
 30
0.0
 11
36.572697999999974
 21
-201.07046399999984
 31
0.0
  0
LINE
  5
CD
330
17
100
AcDbEntity
  8
0
100
AcDbLine
 10
36.572697999999974
 20
-201.07046399999984
 30
0.0
 11
36.31158599999998
 21
-200.93431999999987
 31
0.0
  0
LINE
  5
CE
330
17
100
AcDbEntity
  8
0
100
AcDbLine
 10
36.31158599999998
 20
-200.93431999999987
 30
0.0
 11
36.061395999999974
 21
-200.7798879999999
 31
0.0
  0
LINE
  5
CF
330
17
100
AcDbEntity
  8
0
100
AcDbLine
 10
36.061395999999974
 20
-200.7798879999999
 30
0.0
 11
35.82314399999998
 21
-200.60767599999988
 31
0.0
  0
LINE
  5
D0
330
17
100
AcDbEntity
  8
0
100
AcDbLine
 10
35.82314399999998
 20
-200.60767599999988
 30
0.0
 11
35.59759199999998
 21
-200.41844599999988
 31
0.0
  0
LINE
  5
D1
330
17
100
AcDbEntity
  8
0
100
AcDbLine
 10
35.59759199999998
 20
-200.41844599999988
 30
0.0
 11
35.38600999999998
 21
-200.21270599999988
 31
0.0
  0
LINE
  5
D2
330
17
100
AcDbEntity
  8
0
100
AcDbLine
 10
35.38600999999998
 20
-200.21270599999988
 30
0.0
 11
35.18941399999998
 21
-199.99121799999992
 31
0.0
  0
LINE
  5
D3
330
17
100
AcDbEntity
  8
0
100
AcDbLine
 10
35.18941399999998
 20
-199.99121799999992
 30
0.0
 11
35.00856599999998
 21
-199.7547439999999
 31
0.0
  0
LINE
  5
D4
330
17
100
AcDbEntity
  8
0
100
AcDbLine
 10
35.00856599999998
 20
-199.7547439999999
 30
0.0
 11
34.844735999999976
 21
-199.5040459999999
 31
0.0
  0
LINE
  5
D5
330
17
100
AcDbEntity
  8
0
100
AcDbLine
 10
34.844735999999976
 20
-199.5040459999999
 30
0.0
 11
31.268923999999977
 21
-192.5965159999999
 31
0.0
  0
LINE
  5
D6
330
17
100
AcDbEntity
  8
0
100
AcDbLine
 10
31.268923999999977
 20
-192.5965159999999
 30
0.0
 11
31.12414399999998
 21
-192.3917919999999
 31
0.0
  0
LINE
  5
D7
330
17
100
AcDbEntity
  8
0
100
AcDbLine
 10
31.12414399999998
 20
-192.3917919999999
 30
0.0
 11
30.95472599999998
 21
-192.2106899999999
 31
0.0
  0
LINE
  5
D8
330
17
100
AcDbEntity
  8
0
100
AcDbLine
 10
30.95472599999998
 20
-192.2106899999999
 30
0.0
 11
30.763463999999978
 21
-192.05498799999987
 31
0.0
  0
LINE
  5
D9
330
17
100
AcDbEntity
  8
0
100
AcDbLine
 10
30.763463999999978
 20
-192.05498799999987
 30
0.0
 11
30.55365999999998
 21
-191.92671799999988
 31
0.0
  0
LINE
  5
DA
330
17
100
AcDbEntity
  8
0
100
AcDbLine
 10
30.55365999999998
 20
-191.92671799999988
 30
0.0
 11
30.32810799999998
 21
-191.8274039999999
 31
0.0
  0
LINE
  5
DB
330
17
100
AcDbEntity
  8
0
100
AcDbLine
 10
30.32810799999998
 20
-191.8274039999999
 30
0.0
 11
30.08960199999998
 21
-191.75907799999987
 31
0.0
  0
LINE
  5
DC
330
17
100
AcDbEntity
  8
0
100
AcDbLine
 10
30.08960199999998
 20
-191.75907799999987
 30
0.0
 11
29.841189999999983
 21
-191.7232639999999
 31
0.0
  0
LINE
  5
DD
330
17
100
AcDbEntity
  8
0
100
AcDbLine
 10
29.841189999999983
 20
-191.7232639999999
 30
0.0
 11
14.682977999999983
 21
-191.64045999999988
 31
0.0
  0
LINE
  5
DE
330
17
100
AcDbEntity
  8
0
100
AcDbLine
 10
14.682977999999983
 20
-191.64045999999988
 30
0.0
 11
14.650719999999982
 21
-191.64477799999992
 31
0.0
  0
LINE
  5
DF
330
17
100
AcDbEntity
  8
0
100
AcDbLine
 10
14.650719999999982
 20
-191.64477799999992
 30
0.0
 11
14.619985999999981
 21
-191.6518899999999
 31
0.0
  0
LINE
  5
E0
330
17
100
AcDbEntity
  8
0
100
AcDbLine
 10
14.619985999999981
 20
-191.6518899999999
 30
0.0
 11
14.591029999999982
 21
-191.6615419999999
 31
0.0
  0
LINE
  5
E1
330
17
100
AcDbEntity
  8
0
100
AcDbLine
 10
14.591029999999982
 20
-191.6615419999999
 30
0.0
 11
14.564105999999981
 21
-191.67347999999993
 31
0.0
  0
LINE
  5
E2
330
17
100
AcDbEntity
  8
0
100
AcDbLine
 10
14.564105999999981
 20
-191.67347999999993
 30
0.0
 11
14.538959999999983
 21
-191.68770399999994
 31
0.0
  0
LINE
  5
E3
330
17
100
AcDbEntity
  8
0
100
AcDbLine
 10
14.538959999999983
 20
-191.68770399999994
 30
0.0
 11
14.515591999999984
 21
-191.7039599999999
 31
0.0
  0
LINE
  5
E4
330
17
100
AcDbEntity
  8
0
100
AcDbLine
 10
14.515591999999984
 20
-191.7039599999999
 30
0.0
 11
14.494255999999982
 21
-191.72199399999994
 31
0.0
  0
LINE
  5
E5
330
17
100
AcDbEntity
  8
0
100
AcDbLine
 10
14.494255999999982
 20
-191.72199399999994
 30
0.0
 11
14.474697999999982
 21
-191.7418059999999
 31
0.0
  0
LINE
  5
E6
330
17
100
AcDbEntity
  8
0
100
AcDbLine
 10
14.474697999999982
 20
-191.7418059999999
 30
0.0
 11
14.457171999999982
 21
-191.7631419999999
 31
0.0
  0
LINE
  5
E7
330
17
100
AcDbEntity
  8
0
100
AcDbLine
 10
14.457171999999982
 20
-191.7631419999999
 30
0.0
 11
14.441677999999982
 21
-191.78574799999993
 31
0.0
  0
LINE
  5
E8
330
17
100
AcDbEntity
  8
0
100
AcDbLine
 10
14.441677999999982
 20
-191.78574799999993
 30
0.0
 11
14.428215999999983
 21
-191.80962399999993
 31
0.0
  0
LINE
  5
E9
330
17
100
AcDbEntity
  8
0
100
AcDbLine
 10
14.428215999999983
 20
-191.80962399999993
 30
0.0
 11
14.416785999999982
 21
-191.83451599999992
 31
0.0
  0
LINE
  5
EA
330
17
100
AcDbEntity
  8
0
100
AcDbLine
 10
14.416785999999982
 20
-191.83451599999992
 30
0.0
 11
14.407387999999983
 21
-191.8604239999999
 31
0.0
  0
LINE
  5
EB
330
17
100
AcDbEntity
  8
0
100
AcDbLine
 10
14.407387999999983
 20
-191.8604239999999
 30
0.0
 11
14.400021999999982
 21
-191.88683999999992
 31
0.0
  0
LINE
  5
EC
330
17
100
AcDbEntity
  8
0
100
AcDbLine
 10
14.400021999999982
 20
-191.88683999999992
 30
0.0
 11
14.39468799999998
 21
-191.91376399999993
 31
0.0
  0
LINE
  5
ED
330
17
100
AcDbEntity
  8
0
100
AcDbLine
 10
14.39468799999998
 20
-191.91376399999993
 30
0.0
 11
14.391639999999981
 21
-191.94094199999992
 31
0.0
  0
LINE
  5
EE
330
17
100
AcDbEntity
  8
0
100
AcDbLine
 10
14.391639999999981
 20
-191.94094199999992
 30
0.0
 11
14.390623999999981
 21
-191.9683739999999
 31
0.0
  0
LINE
  5
EF
330
17
100
AcDbEntity
  8
0
100
AcDbLine
 10
14.390623999999981
 20
-191.9683739999999
 30
0.0
 11
14.391893999999983
 21
-191.9958059999999
 31
0.0
  0
LINE
  5
F0
330
17
100
AcDbEntity
  8
0
100
AcDbLine
 10
14.391893999999983
 20
-191.9958059999999
 30
0.0
 11
14.395195999999983
 21
-192.0229839999999
 31
0.0
  0
LINE
  5
F1
330
17
100
AcDbEntity
  8
0
100
AcDbLine
 10
14.395195999999983
 20
-192.0229839999999
 30
0.0
 11
14.400783999999982
 21
-192.04990799999987
 31
0.0
  0
LINE
  5
F2
330
17
100
AcDbEntity
  8
0
100
AcDbLine
 10
14.400783999999982
 20
-192.04990799999987
 30
0.0
 11
14.408657999999981
 21
-192.0763239999999
 31
0.0
  0
LINE
  5
F3
330
17
100
AcDbEntity
  8
0
100
AcDbLine
 10
14.408657999999981
 20
-192.0763239999999
 30
0.0
 11
14.41881799999998
 21
-192.1019779999999
 31
0.0
  0
LINE
  5
F4
330
17
100
AcDbEntity
  8
0
100
AcDbLine
 10
14.41881799999998
 20
-192.1019779999999
 30
0.0
 11
14.431263999999981
 21
-192.1266159999999
 31
0.0
  0
LINE
  5
F5
330
17
100
AcDbEntity
  8
0
100
AcDbLine
 10
14.431263999999981
 20
-192.1266159999999
 30
0.0
 11
14.44624999999998
 21
-192.1502379999999
 31
0.0
  0
LINE
  5
F6
330
17
100
AcDbEntity
  8
0
100
AcDbLine
 10
14.44624999999998
 20
-192.1502379999999
 30
0.0
 11
14.46352199999998
 21
-192.17258999999987
 31
0.0
  0
LINE
  5
F7
330
17
100
AcDbEntity
  8
0
100
AcDbLine
 10
14.46352199999998
 20
-192.17258999999987
 30
0.0
 11
14.48333399999998
 21
-192.19367199999985
 31
0.0
  0
LINE
  5
F8
330
17
100
AcDbEntity
  8
0
100
AcDbLine
 10
14.48333399999998
 20
-192.19367199999985
 30
0.0
 11
14.505431999999981
 21
-192.21322999999987
 31
0.0
  0
LINE
  5
F9
330
17
100
AcDbEntity
  8
0
100
AcDbLine
 10
14.505431999999981
 20
-192.21322999999987
 30
0.0
 11
14.530069999999982
 21
-192.23100999999988
 31
0.0
  0
LINE
  5
FA
330
17
100
AcDbEntity
  8
0
100
AcDbLine
 10
14.530069999999982
 20
-192.23100999999988
 30
0.0
 11
14.557247999999982
 21
-192.2467579999999
 31
0.0
  0
LINE
  5
FB
330
17
100
AcDbEntity
  8
0
100
AcDbLine
 10
14.557247999999982
 20
-192.2467579999999
 30
0.0
 11
14.58696599999998
 21
-192.26047399999987
 31
0.0
  0
LINE
  5
FC
330
17
100
AcDbEntity
  8
0
100
AcDbLine
 10
14.58696599999998
 20
-192.26047399999987
 30
0.0
 11
16.37182399999998
 21
-192.86118399999987
 31
0.0
  0
LINE
  5
FD
330
17
100
AcDbEntity
  8
0
100
AcDbLine
 10
16.37182399999998
 20
-192.86118399999987
 30
0.0
 11
19.137629999999977
 21
-194.03440999999987
 31
0.0
  0
LINE
  5
FE
330
17
100
AcDbEntity
  8
0
100
AcDbLine
 10
19.137629999999977
 20
-194.03440999999987
 30
0.0
 11
22.12898799999998
 21
-195.74027399999989
 31
0.0
  0
LINE
  5
FF
330
17
100
AcDbEntity
  8
0
100
AcDbLine
 10
22.12898799999998
 20
-195.74027399999989
 30
0.0
 11
23.61920599999998
 21
-196.82383799999988
 31
0.0
  0
LINE
  5
100
330
17
100
AcDbEntity
  8
0
100
AcDbLine
 10
23.61920599999998
 20
-196.82383799999988
 30
0.0
 11
25.05760799999998
 21
-198.07732799999985
 31
0.0
  0
LINE
  5
101
330
17
100
AcDbEntity
  8
0
100
AcDbLine
 10
25.05760799999998
 20
-198.07732799999985
 30
0.0
 11
26.408125999999978
 21
-199.51318999999987
 31
0.0
  0
LINE
  5
102
330
17
100
AcDbEntity
  8
0
100
AcDbLine
 10
26.408125999999978
 20
-199.51318999999987
 30
0.0
 11
27.634945999999978
 21
-201.14361599999987
 31
0.0
  0
LINE
  5
103
330
17
100
AcDbEntity
  8
0
100
AcDbLine
 10
27.634945999999978
 20
-201.14361599999987
 30
0.0
 11
28.70174599999998
 21
-202.98105199999986
 31
0.0
  0
LINE
  5
104
330
17
100
AcDbEntity
  8
0
100
AcDbLine
 10
28.70174599999998
 20
-202.98105199999986
 30
0.0
 11
29.572711999999978
 21
-205.03768999999986
 31
0.0
  0
LINE
  5
105
330
17
100
AcDbEntity
  8
0
100
AcDbLine
 10
29.572711999999978
 20
-205.03768999999986
 30
0.0
 11
30.21177599999998
 21
-207.32572199999987
 31
0.0
  0
LINE
  5
106
330
17
100
AcDbEntity
  8
0
100
AcDbLine
 10
30.21177599999998
 20
-207.32572199999987
 30
0.0
 11
30.58286999999998
 21
-209.85759399999986
 31
0.0
  0
LINE
  5
107
330
17
100
AcDbEntity
  8
0
100
AcDbLine
 10
30.58286999999998
 20
-209.85759399999986
 30
0.0
 11
30.64967199999998
 21
-212.64549799999986
 31
0.0
  0
LINE
  5
108
330
17
100
AcDbEntity
  8
0
100
AcDbLine
 10
30.64967199999998
 20
-212.64549799999986
 30
0.0
 11
30.37636799999998
 21
-215.70187999999987
 31
0.0
  0
LINE
  5
109
330
17
100
AcDbEntity
  8
0
100
AcDbLine
 10
30.37636799999998
 20
-215.70187999999987
 30
0.0
 11
29.22701799999998
 21
-221.19615399999986
 31
0.0
  0
LINE
  5
10A
330
17
100
AcDbEntity
  8
0
100
AcDbLine
 10
29.22701799999998
 20
-221.19615399999986
 30
0.0
 11
26.045667999999978
 21
-231.15650999999986
 31
0.0
  0
LINE
  5
10B
330
17
100
AcDbEntity
  8
0
100
AcDbLine
 10
26.045667999999978
 20
-231.15650999999986
 30
0.0
 11
12.59103399999998
 21
-259.73785999999984
 31
0.0
  0
LINE
  5
10C
330
17
100
AcDbEntity
  8
0
100
AcDbLine
 10
12.59103399999998
 20
-259.73785999999984
 30
0.0
 11
6.13460799999998
 21
-276.9387399999998
 31
0.0
  0
LINE
  5
10D
330
17
100
AcDbEntity
  8
0
100
AcDbLine
 10
6.13460799999998
 20
-276.9387399999998
 30
0.0
 11
5.05866399999998
 21
-280.7713459999998
 31
0.0
  0
LINE
  5
10E
330
17
100
AcDbEntity
  8
0
100
AcDbLine
 10
5.05866399999998
 20
-280.7713459999998
 30
0.0
 11
4.99973599999998
 21
-281.18053999999984
 31
0.0
  0
LINE
  5
10F
330
17
100
AcDbEntity
  8
0
100
AcDbLine
 10
4.99973599999998
 20
-281.18053999999984
 30
0.0
 11
4.98373399999998
 21
-281.5902419999998
 31
0.0
  0
LINE
  5
110
330
17
100
AcDbEntity
  8
0
100
AcDbLine
 10
4.98373399999998
 20
-281.5902419999998
 30
0.0
 11
5.00913399999998
 21
-281.99664199999984
 31
0.0
  0
LINE
  5
111
330
17
100
AcDbEntity
  8
0
100
AcDbLine
 10
5.00913399999998
 20
-281.99664199999984
 30
0.0
 11
5.074411999999981
 21
-282.3959299999998
 31
0.0
  0
LINE
  5
112
330
17
100
AcDbEntity
  8
0
100
AcDbLine
 10
5.074411999999981
 20
-282.3959299999998
 30
0.0
 11
5.17778999999998
 21
-282.7842959999998
 31
0.0
  0
LINE
  5
113
330
17
100
AcDbEntity
  8
0
100
AcDbLine
 10
5.17778999999998
 20
-282.7842959999998
 30
0.0
 11
5.31774399999998
 21
-283.1581839999998
 31
0.0
  0
LINE
  5
114
330
17
100
AcDbEntity
  8
0
100
AcDbLine
 10
5.31774399999998
 20
-283.1581839999998
 30
0.0
 11
5.4927499999999805
 21
-283.5137839999998
 31
0.0
  0
LINE
  5
115
330
17
100
AcDbEntity
  8
0
100
AcDbLine
 10
5.4927499999999805
 20
-283.5137839999998
 30
0.0
 11
5.701029999999981
 21
-283.8472859999998
 31
0.0
  0
LINE
  5
116
330
17
100
AcDbEntity
  8
0
100
AcDbLine
 10
5.701029999999981
 20
-283.8472859999998
 30
0.0
 11
5.941059999999981
 21
-284.1548799999998
 31
0.0
  0
LINE
  5
117
330
17
100
AcDbEntity
  8
0
100
AcDbLine
 10
5.941059999999981
 20
-284.1548799999998
 30
0.0
 11
6.2113159999999805
 21
-284.43275599999987
 31
0.0
  0
LINE
  5
118
330
17
100
AcDbEntity
  8
0
100
AcDbLine
 10
6.2113159999999805
 20
-284.43275599999987
 30
0.0
 11
6.51001999999998
 21
-284.67735799999986
 31
0.0
  0
LINE
  5
119
330
17
100
AcDbEntity
  8
0
100
AcDbLine
 10
6.51001999999998
 20
-284.67735799999986
 30
0.0
 11
6.83564799999998
 21
-284.88487599999985
 31
0.0
  0
LINE
  5
11A
330
17
100
AcDbEntity
  8
0
100
AcDbLine
 10
6.83564799999998
 20
-284.88487599999985
 30
0.0
 11
7.186675999999981
 21
-285.0514999999998
 31
0.0
  0
LINE
  5
11B
330
17
100
AcDbEntity
  8
0
100
AcDbLine
 10
7.186675999999981
 20
-285.0514999999998
 30
0.0
 11
7.56157999999998
 21
-285.17341999999985
 31
0.0
  0
LINE
  5
11C
330
17
100
AcDbEntity
  8
0
100
AcDbLine
 10
7.56157999999998
 20
-285.17341999999985
 30
0.0
 11
7.95858199999998
 21
-285.2468259999998
 31
0.0
  0
LINE
  5
11D
330
17
100
AcDbEntity
  8
0
100
AcDbLine
 10
7.95858199999998
 20
-285.2468259999998
 30
0.0
 11
40.520111999999976
 21
-285.4916819999998
 31
0.0
  0
LINE
  5
11E
330
17
100
AcDbEntity
  8
0
100
AcDbLine
 10
40.520111999999976
 20
-285.4916819999998
 30
0.0
 11
42.71695799999998
 21
-285.15640199999984
 31
0.0
  0
LINE
  5
11F
330
17
100
AcDbEntity
  8
0
100
AcDbLine
 10
42.71695799999998
 20
-285.15640199999984
 30
0.0
 11
43.24629399999998
 21
-285.0296559999998
 31
0.0
  0
LINE
  5
120
330
17
100
AcDbEntity
  8
0
100
AcDbLine
 10
43.24629399999998
 20
-285.0296559999998
 30
0.0
 11
43.641517999999984
 21
-284.8899559999998
 31
0.0
  0
LINE
  5
121
330
17
100
AcDbEntity
  8
0
100
AcDbLine
 10
43.641517999999984
 20
-284.8899559999998
 30
0.0
 11
44.01337399999998
 21
-284.70605999999987
 31
0.0
  0
LINE
  5
122
330
17
100
AcDbEntity
  8
0
100
AcDbLine
 10
44.01337399999998
 20
-284.70605999999987
 30
0.0
 11
44.35881399999998
 21
-284.4805079999999
 31
0.0
  0
LINE
  5
123
330
17
100
AcDbEntity
  8
0
100
AcDbLine
 10
44.35881399999998
 20
-284.4805079999999
 30
0.0
 11
44.67453599999998
 21
-284.21634799999987
 31
0.0
  0
LINE
  5
124
330
17
100
AcDbEntity
  8
0
100
AcDbLine
 10
44.67453599999998
 20
-284.21634799999987
 30
0.0
 11
44.95749199999998
 21
-283.9166279999999
 31
0.0
  0
LINE
  5
125
330
17
100
AcDbEntity
  8
0
100
AcDbLine
 10
44.95749199999998
 20
-283.9166279999999
 30
0.0
 11
45.20412599999999
 21
-283.58439599999986
 31
0.0
  0
LINE
  5
126
330
17
100
AcDbEntity
  8
0
100
AcDbLine
 10
45.20412599999999
 20
-283.58439599999986
 30
0.0
 11
45.41138999999998
 21
-283.2224459999999
 31
0.0
  0
LINE
  5
127
330
17
100
AcDbEntity
  8
0
100
AcDbLine
 10
45.41138999999998
 20
-283.2224459999999
 30
0.0
 11
45.499273999999986
 21
-283.0314379999999
 31
0.0
  0
LINE
  5
128
330
17
100
AcDbEntity
  8
0
100
AcDbLine
 10
45.499273999999986
 20
-283.0314379999999
 30
0.0
 11
50.683413999999985
 21
-268.39722799999987
 31
0.0
  0
LINE
  5
129
330
17
100
AcDbEntity
  8
0
100
AcDbLine
 10
50.683413999999985
 20
-268.39722799999987
 30
0.0
 11
51.427379999999985
 21
-266.93799799999994
 31
0.0
  0
LINE
  5
12A
330
17
100
AcDbEntity
  8
0
100
AcDbLine
 10
51.427379999999985
 20
-266.93799799999994
 30
0.0
 11
52.097177999999985
 21
-265.9194579999999
 31
0.0
  0
LINE
  5
12B
330
17
100
AcDbEntity
  8
0
100
AcDbLine
 10
52.097177999999985
 20
-265.9194579999999
 30
0.0
 11
52.87035399999999
 21
-265.0075979999999
 31
0.0
  0
LINE
  5
12C
330
17
100
AcDbEntity
  8
0
100
AcDbLine
 10
52.87035399999999
 20
-265.0075979999999
 30
0.0
 11
53.29504199999999
 21
-264.6052619999999
 31
0.0
  0
LINE
  5
12D
330
17
100
AcDbEntity
  8
0
100
AcDbLine
 10
53.29504199999999
 20
-264.6052619999999
 30
0.0
 11
53.74436799999999
 21
-264.24585199999996
 31
0.0
  0
LINE
  5
12E
330
17
100
AcDbEntity
  8
0
100
AcDbLine
 10
53.74436799999999
 20
-264.24585199999996
 30
0.0
 11
54.218332
 21
-263.93470199999996
 31
0.0
  0
LINE
  5
12F
330
17
100
AcDbEntity
  8
0
100
AcDbLine
 10
54.218332
 20
-263.93470199999996
 30
0.0
 11
54.716426
 21
-263.6774
 31
0.0
  0
LINE
  5
130
330
17
100
AcDbEntity
  8
0
100
AcDbLine
 10
54.716426
 20
-263.6774
 30
0.0
 11
56.22823399999999
 21
-263.03300199999995
 31
0.0
  0
LINE
  5
131
330
17
100
AcDbEntity
  8
0
100
AcDbLine
 10
56.22823399999999
 20
-263.03300199999995
 30
0.0
 11
56.571388
 21
-262.82268999999997
 31
0.0
  0
LINE
  5
132
330
17
100
AcDbEntity
  8
0
100
AcDbLine
 10
56.571388
 20
-262.82268999999997
 30
0.0
 11
56.729122
 21
-262.70178599999997
 31
0.0
  0
LINE
  5
133
330
17
100
AcDbEntity
  8
0
100
AcDbLine
 10
56.729122
 20
-262.70178599999997
 30
0.0
 11
56.875679999999996
 21
-262.5681819999999
 31
0.0
  0
LINE
  5
134
330
17
100
AcDbEntity
  8
0
100
AcDbLine
 10
56.875679999999996
 20
-262.5681819999999
 30
0.0
 11
57.009284
 21
-262.4203539999999
 31
0.0
  0
LINE
  5
135
330
17
100
AcDbEntity
  8
0
100
AcDbLine
 10
57.009284
 20
-262.4203539999999
 30
0.0
 11
57.128664
 21
-262.2565239999999
 31
0.0
  0
LINE
  5
136
330
17
100
AcDbEntity
  8
0
100
AcDbLine
 10
57.128664
 20
-262.2565239999999
 30
0.0
 11
57.232042
 21
-262.07542199999995
 31
0.0
  0
LINE
  5
137
330
17
100
AcDbEntity
  8
0
100
AcDbLine
 10
57.232042
 20
-262.07542199999995
 30
0.0
 11
57.317894
 21
-261.8755239999999
 31
0.0
  0
LINE
  5
138
330
17
100
AcDbEntity
  8
0
100
AcDbLine
 10
57.317894
 20
-261.8755239999999
 30
0.0
 11
57.377076
 21
-261.6827379999999
 31
0.0
  0
LINE
  5
139
330
17
100
AcDbEntity
  8
0
100
AcDbLine
 10
57.377076
 20
-261.6827379999999
 30
0.0
 11
57.416446
 21
-261.4881739999999
 31
0.0
  0
LINE
  5
13A
330
17
100
AcDbEntity
  8
0
100
AcDbLine
 10
57.416446
 20
-261.4881739999999
 30
0.0
 11
57.437274
 21
-261.2923399999999
 31
0.0
  0
LINE
  5
13B
330
17
100
AcDbEntity
  8
0
100
AcDbLine
 10
57.437274
 20
-261.2923399999999
 30
0.0
 11
57.441592
 21
-261.0949819999999
 31
0.0
  0
LINE
  5
13C
330
17
100
AcDbEntity
  8
0
100
AcDbLine
 10
57.441592
 20
-261.0949819999999
 30
0.0
 11
57.406794
 21
-260.6974719999999
 31
0.0
  0
LINE
  5
13D
330
17
100
AcDbEntity
  8
0
100
AcDbLine
 10
57.406794
 20
-260.6974719999999
 30
0.0
 11
57.325514
 21
-260.29767599999985
 31
0.0
  0
LINE
  5
13E
330
17
100
AcDbEntity
  8
0
100
AcDbLine
 10
57.325514
 20
-260.29767599999985
 30
0.0
 11
56.612028
 21
-258.00253199999986
 31
0.0
  0
LINE
  5
13F
330
17
100
AcDbEntity
  8
0
100
AcDbLine
 10
56.612028
 20
-258.00253199999986
 30
0.0
 11
56.477154
 21
-257.26745599999987
 31
0.0
  0
LINE
  5
140
330
17
100
AcDbEntity
  8
0
100
AcDbLine
 10
56.477154
 20
-257.26745599999987
 30
0.0
 11
56.400954
 21
-256.5148539999999
 31
0.0
  0
LINE
  5
141
330
17
100
AcDbEntity
  8
0
100
AcDbLine
 10
56.400954
 20
-256.5148539999999
 30
0.0
 11
56.383428
 21
-255.75132999999988
 31
0.0
  0
LINE
  5
142
330
17
100
AcDbEntity
  8
0
100
AcDbLine
 10
56.383428
 20
-255.75132999999988
 30
0.0
 11
56.424576
 21
-254.9839959999999
 31
0.0
  0
LINE
  5
143
330
17
100
AcDbEntity
  8
0
100
AcDbLine
 10
56.424576
 20
-254.9839959999999
 30
0.0
 11
56.524398000000005
 21
-254.21970999999988
 31
0.0
  0
LINE
  5
144
330
17
100
AcDbEntity
  8
0
100
AcDbLine
 10
56.524398000000005
 20
-254.21970999999988
 30
0.0
 11
56.68264
 21
-253.4650759999999
 31
0.0
  0
LINE
  5
145
330
17
100
AcDbEntity
  8
0
100
AcDbLine
 10
56.68264
 20
-253.4650759999999
 30
0.0
 11
56.899556000000004
 21
-252.7272059999999
 31
0.0
  0
LINE
  5
146
330
17
100
AcDbEntity
  8
0
100
AcDbLine
 10
56.899556000000004
 20
-252.7272059999999
 30
0.0
 11
57.17489200000001
 21
-252.01295799999988
 31
0.0
  0
LINE
  5
147
330
17
100
AcDbEntity
  8
0
100
AcDbLine
 10
57.17489200000001
 20
-252.01295799999988
 30
0.0
 11
57.508648
 21
-251.32893599999989
 31
0.0
  0
LINE
  5
148
330
17
100
AcDbEntity
  8
0
100
AcDbLine
 10
57.508648
 20
-251.32893599999989
 30
0.0
 11
57.90082400000001
 21
-250.6822519999999
 31
0.0
  0
LINE
  5
149
330
17
100
AcDbEntity
  8
0
100
AcDbLine
 10
57.90082400000001
 20
-250.6822519999999
 30
0.0
 11
58.351420000000005
 21
-250.07950999999989
 31
0.0
  0
LINE
  5
14A
330
17
100
AcDbEntity
  8
0
100
AcDbLine
 10
58.351420000000005
 20
-250.07950999999989
 30
0.0
 11
58.860436
 21
-249.52782199999987
 31
0.0
  0
LINE
  5
14B
330
17
100
AcDbEntity
  8
0
100
AcDbLine
 10
58.860436
 20
-249.52782199999987
 30
0.0
 11
59.42787200000001
 21
-249.03404599999988
 31
0.0
  0
LINE
  5
14C
330
17
100
AcDbEntity
  8
0
100
AcDbLine
 10
59.42787200000001
 20
-249.03404599999988
 30
0.0
 11
60.05372800000001
 21
-248.60478599999988
 31
0.0
  0
LINE
  5
14D
330
17
100
AcDbEntity
  8
0
100
AcDbLine
 10
60.05372800000001
 20
-248.60478599999988
 30
0.0
 11
60.737750000000005
 21
-248.24715399999985
 31
0.0
  0
LINE
  5
14E
330
17
100
AcDbEntity
  8
0
100
AcDbLine
 10
60.737750000000005
 20
-248.24715399999985
 30
0.0
 11
62.24955800000001
 21
-247.60275599999986
 31
0.0
  0
LINE
  5
14F
330
17
100
AcDbEntity
  8
0
100
AcDbLine
 10
62.24955800000001
 20
-247.60275599999986
 30
0.0
 11
62.592712000000006
 21
-247.39244399999987
 31
0.0
  0
LINE
  5
150
330
17
100
AcDbEntity
  8
0
100
AcDbLine
 10
62.592712000000006
 20
-247.39244399999987
 30
0.0
 11
62.75044600000001
 21
-247.27153999999985
 31
0.0
  0
LINE
  5
151
330
17
100
AcDbEntity
  8
0
100
AcDbLine
 10
62.75044600000001
 20
-247.27153999999985
 30
0.0
 11
62.89700400000001
 21
-247.13793599999988
 31
0.0
  0
LINE
  5
152
330
17
100
AcDbEntity
  8
0
100
AcDbLine
 10
62.89700400000001
 20
-247.13793599999988
 30
0.0
 11
63.030608000000015
 21
-246.99010799999988
 31
0.0
  0
LINE
  5
153
330
17
100
AcDbEntity
  8
0
100
AcDbLine
 10
63.030608000000015
 20
-246.99010799999988
 30
0.0
 11
63.149988000000015
 21
-246.8262779999999
 31
0.0
  0
LINE
  5
154
330
17
100
AcDbEntity
  8
0
100
AcDbLine
 10
63.149988000000015
 20
-246.8262779999999
 30
0.0
 11
63.253366000000014
 21
-246.64517599999988
 31
0.0
  0
LINE
  5
155
330
17
100
AcDbEntity
  8
0
100
AcDbLine
 10
63.253366000000014
 20
-246.64517599999988
 30
0.0
 11
63.33921800000001
 21
-246.4452779999999
 31
0.0
  0
LINE
  5
156
330
17
100
AcDbEntity
  8
0
100
AcDbLine
 10
63.33921800000001
 20
-246.4452779999999
 30
0.0
 11
63.39840000000002
 21
-246.25249199999988
 31
0.0
  0
LINE
  5
157
330
17
100
AcDbEntity
  8
0
100
AcDbLine
 10
63.39840000000002
 20
-246.25249199999988
 30
0.0
 11
63.437770000000015
 21
-246.0579279999999
 31
0.0
  0
LINE
  5
158
330
17
100
AcDbEntity
  8
0
100
AcDbLine
 10
63.437770000000015
 20
-246.0579279999999
 30
0.0
 11
63.45859800000001
 21
-245.8620939999999
 31
0.0
  0
LINE
  5
159
330
17
100
AcDbEntity
  8
0
100
AcDbLine
 10
63.45859800000001
 20
-245.8620939999999
 30
0.0
 11
63.462916000000014
 21
-245.6647359999999
 31
0.0
  0
LINE
  5
15A
330
17
100
AcDbEntity
  8
0
100
AcDbLine
 10
63.462916000000014
 20
-245.6647359999999
 30
0.0
 11
63.42811800000001
 21
-245.26722599999988
 31
0.0
  0
LINE
  5
15B
330
17
100
AcDbEntity
  8
0
100
AcDbLine
 10
63.42811800000001
 20
-245.26722599999988
 30
0.0
 11
63.34683800000001
 21
-244.86742999999987
 31
0.0
  0
LINE
  5
15C
330
17
100
AcDbEntity
  8
0
100
AcDbLine
 10
63.34683800000001
 20
-244.86742999999987
 30
0.0
 11
62.651640000000015
 21
-242.64035799999988
 31
0.0
  0
LINE
  5
15D
330
17
100
AcDbEntity
  8
0
100
AcDbLine
 10
62.651640000000015
 20
-242.64035799999988
 30
0.0
 11
62.52946600000001
 21
-241.98224399999987
 31
0.0
  0
LINE
  5
15E
330
17
100
AcDbEntity
  8
0
100
AcDbLine
 10
62.52946600000001
 20
-241.98224399999987
 30
0.0
 11
62.431168000000014
 21
-240.63553599999986
 31
0.0
  0
LINE
  5
15F
330
17
100
AcDbEntity
  8
0
100
AcDbLine
 10
62.431168000000014
 20
-240.63553599999986
 30
0.0
 11
62.50457400000001
 21
-239.27511199999987
 31
0.0
  0
LINE
  5
160
330
17
100
AcDbEntity
  8
0
100
AcDbLine
 10
62.50457400000001
 20
-239.27511199999987
 30
0.0
 11
62.72250600000002
 21
-237.93272199999987
 31
0.0
  0
LINE
  5
161
330
17
100
AcDbEntity
  8
0
100
AcDbLine
 10
62.72250600000002
 20
-237.93272199999987
 30
0.0
 11
62.815978000000015
 21
-237.59261599999985
 31
0.0
  0
LINE
  5
162
330
17
100
AcDbEntity
  8
0
100
AcDbLine
 10
62.815978000000015
 20
-237.59261599999985
 30
0.0
 11
66.85813400000002
 21
-227.14991399999988
 31
0.0
  0
LINE
  5
163
330
17
100
AcDbEntity
  8
0
100
AcDbLine
 10
66.85813400000002
 20
-227.14991399999988
 30
0.0
 11
61.08065000000001
 21
-225.54056999999986
 31
0.0
  0
LINE
  5
164
330
17
100
AcDbEntity
  8
0
100
AcDbLine
 10
61.08065000000001
 20
-225.54056999999986
 30
0.0
 11
60.91732800000001
 21
-225.46741799999987
 31
0.0
  0
LINE
  5
165
330
17
100
AcDbEntity
  8
0
100
AcDbLine
 10
60.91732800000001
 20
-225.46741799999987
 30
0.0
 11
60.764420000000015
 21
-225.37953399999986
 31
0.0
  0
LINE
  5
166
330
17
100
AcDbEntity
  8
0
100
AcDbLine
 10
60.764420000000015
 20
-225.37953399999986
 30
0.0
 11
60.62268800000002
 21
-225.27793399999987
 31
0.0
  0
LINE
  5
167
330
17
100
AcDbEntity
  8
0
100
AcDbLine
 10
60.62268800000002
 20
-225.27793399999987
 30
0.0
 11
60.492640000000016
 21
-225.16388799999987
 31
0.0
  0
LINE
  5
168
330
17
100
AcDbEntity
  8
0
100
AcDbLine
 10
60.492640000000016
 20
-225.16388799999987
 30
0.0
 11
60.37478400000001
 21
-225.03866599999986
 31
0.0
  0
LINE
  5
169
330
17
100
AcDbEntity
  8
0
100
AcDbLine
 10
60.37478400000001
 20
-225.03866599999986
 30
0.0
 11
60.26988200000001
 21
-224.90302999999986
 31
0.0
  0
LINE
  5
16A
330
17
100
AcDbEntity
  8
0
100
AcDbLine
 10
60.26988200000001
 20
-224.90302999999986
 30
0.0
 11
60.17844200000001
 21
-224.75824999999986
 31
0.0
  0
LINE
  5
16B
330
17
100
AcDbEntity
  8
0
100
AcDbLine
 10
60.17844200000001
 20
-224.75824999999986
 30
0.0
 11
60.10122600000001
 21
-224.60559599999985
 31
0.0
  0
LINE
  5
16C
330
17
100
AcDbEntity
  8
0
100
AcDbLine
 10
60.10122600000001
 20
-224.60559599999985
 30
0.0
 11
60.038742000000006
 21
-224.44582999999986
 31
0.0
  0
LINE
  5
16D
330
17
100
AcDbEntity
  8
0
100
AcDbLine
 10
60.038742000000006
 20
-224.44582999999986
 30
0.0
 11
59.991752000000005
 21
-224.28022199999984
 31
0.0
  0
LINE
  5
16E
330
17
100
AcDbEntity
  8
0
100
AcDbLine
 10
59.991752000000005
 20
-224.28022199999984
 30
0.0
 11
59.960764000000005
 21
-224.11004199999985
 31
0.0
  0
LINE
  5
16F
330
17
100
AcDbEntity
  8
0
100
AcDbLine
 10
59.960764000000005
 20
-224.11004199999985
 30
0.0
 11
59.94654
 21
-223.93605199999988
 31
0.0
  0
LINE
  5
170
330
17
100
AcDbEntity
  8
0
100
AcDbLine
 10
59.94654
 20
-223.93605199999988
 30
0.0
 11
59.949588
 21
-223.75952199999986
 31
0.0
  0
LINE
  5
171
330
17
100
AcDbEntity
  8
0
100
AcDbLine
 10
59.949588
 20
-223.75952199999986
 30
0.0
 11
59.970416
 21
-223.58172199999984
 31
0.0
  0
LINE
  5
172
330
17
100
AcDbEntity
  8
0
100
AcDbLine
 10
59.970416
 20
-223.58172199999984
 30
0.0
 11
61.44742599999999
 21
-218.47022599999983
 31
0.0
  0
LINE
  5
173
330
17
100
AcDbEntity
  8
0
100
AcDbLine
 10
61.44742599999999
 20
-218.47022599999983
 30
0.0
 11
61.521339999999995
 21
-218.31604799999985
 31
0.0
  0
LINE
  5
174
330
17
100
AcDbEntity
  8
0
100
AcDbLine
 10
61.521339999999995
 20
-218.31604799999985
 30
0.0
 11
61.608461999999996
 21
-218.17177599999985
 31
0.0
  0
LINE
  5
175
330
17
100
AcDbEntity
  8
0
100
AcDbLine
 10
61.608461999999996
 20
-218.17177599999985
 30
0.0
 11
61.708029999999994
 21
-218.03791799999985
 31
0.0
  0
LINE
  5
176
330
17
100
AcDbEntity
  8
0
100
AcDbLine
 10
61.708029999999994
 20
-218.03791799999985
 30
0.0
 11
61.81877399999999
 21
-217.91472799999983
 31
0.0
  0
LINE
  5
177
330
17
100
AcDbEntity
  8
0
100
AcDbLine
 10
61.81877399999999
 20
-217.91472799999983
 30
0.0
 11
61.939677999999994
 21
-217.80296799999982
 31
0.0
  0
LINE
  5
178
330
17
100
AcDbEntity
  8
0
100
AcDbLine
 10
61.939677999999994
 20
-217.80296799999982
 30
0.0
 11
62.069979999999994
 21
-217.70339999999982
 31
0.0
  0
LINE
  5
179
330
17
100
AcDbEntity
  8
0
100
AcDbLine
 10
62.069979999999994
 20
-217.70339999999982
 30
0.0
 11
62.20866399999999
 21
-217.61627799999982
 31
0.0
  0
LINE
  5
17A
330
17
100
AcDbEntity
  8
0
100
AcDbLine
 10
62.20866399999999
 20
-217.61627799999982
 30
0.0
 11
62.35471399999999
 21
-217.5421099999998
 31
0.0
  0
LINE
  5
17B
330
17
100
AcDbEntity
  8
0
100
AcDbLine
 10
62.35471399999999
 20
-217.5421099999998
 30
0.0
 11
62.50711399999999
 21
-217.48165799999978
 31
0.0
  0
LINE
  5
17C
330
17
100
AcDbEntity
  8
0
100
AcDbLine
 10
62.50711399999999
 20
-217.48165799999978
 30
0.0
 11
62.66510199999999
 21
-217.4354299999998
 31
0.0
  0
LINE
  5
17D
330
17
100
AcDbEntity
  8
0
100
AcDbLine
 10
62.66510199999999
 20
-217.4354299999998
 30
0.0
 11
62.82766199999999
 21
-217.4039339999998
 31
0.0
  0
LINE
  5
17E
330
17
100
AcDbEntity
  8
0
100
AcDbLine
 10
62.82766199999999
 20
-217.4039339999998
 30
0.0
 11
62.99352399999999
 21
-217.3876779999998
 31
0.0
  0
LINE
  5
17F
330
17
100
AcDbEntity
  8
0
100
AcDbLine
 10
62.99352399999999
 20
-217.3876779999998
 30
0.0
 11
63.162179999999985
 21
-217.3874239999998
 31
0.0
  0
LINE
  5
180
330
17
100
AcDbEntity
  8
0
100
AcDbLine
 10
63.162179999999985
 20
-217.3874239999998
 30
0.0
 11
63.33235999999998
 21
-217.4034259999998
 31
0.0
  0
LINE
  5
181
330
17
100
AcDbEntity
  8
0
100
AcDbLine
 10
63.33235999999998
 20
-217.4034259999998
 30
0.0
 11
69.54570799999998
 21
-218.9093919999998
 31
0.0
  0
LINE
  5
182
330
17
100
AcDbEntity
  8
0
100
AcDbLine
 10
69.54570799999998
 20
-218.9093919999998
 30
0.0
 11
70.42581799999996
 21
-216.0363979999998
 31
0.0
  0
LINE
  5
183
330
17
100
AcDbEntity
  8
0
100
AcDbLine
 10
70.42581799999996
 20
-216.0363979999998
 30
0.0
 11
71.38923999999997
 21
-213.53729199999978
 31
0.0
  0
LINE
  5
184
330
17
100
AcDbEntity
  8
0
100
AcDbLine
 10
71.38923999999997
 20
-213.53729199999978
 30
0.0
 11
72.44486399999998
 21
-211.38438799999977
 31
0.0
  0
LINE
  5
185
330
17
100
AcDbEntity
  8
0
100
AcDbLine
 10
72.44486399999998
 20
-211.38438799999977
 30
0.0
 11
73.60132599999997
 21
-209.54999999999978
 31
0.0
  0
LINE
  5
186
330
17
100
AcDbEntity
  8
0
100
AcDbLine
 10
73.60132599999997
 20
-209.54999999999978
 30
0.0
 11
74.86776999999996
 21
-208.00618799999978
 31
0.0
  0
LINE
  5
187
330
17
100
AcDbEntity
  8
0
100
AcDbLine
 10
74.86776999999996
 20
-208.00618799999978
 30
0.0
 11
75.54493399999997
 21
-207.33461199999977
 31
0.0
  0
LINE
  5
188
330
17
100
AcDbEntity
  8
0
100
AcDbLine
 10
75.54493399999997
 20
-207.33461199999977
 30
0.0
 11
76.25283199999997
 21
-206.72526599999978
 31
0.0
  0
LINE
  5
189
330
17
100
AcDbEntity
  8
0
100
AcDbLine
 10
76.25283199999997
 20
-206.72526599999978
 30
0.0
 11
76.99273399999997
 21
-206.1745939999998
 31
0.0
  0
LINE
  5
18A
330
17
100
AcDbEntity
  8
0
100
AcDbLine
 10
76.99273399999997
 20
-206.1745939999998
 30
0.0
 11
78.57261399999997
 21
-205.23580999999976
 31
0.0
  0
LINE
  5
18B
330
17
100
AcDbEntity
  8
0
100
AcDbLine
 10
78.57261399999997
 20
-205.23580999999976
 30
0.0
 11
80.29320999999997
 21
-204.49057399999978
 31
0.0
  0
LINE
  5
18C
330
17
100
AcDbEntity
  8
0
100
AcDbLine
 10
80.29320999999997
 20
-204.49057399999978
 30
0.0
 11
82.16366599999996
 21
-203.91094599999977
 31
0.0
  0
LINE
  5
18D
330
17
100
AcDbEntity
  8
0
100
AcDbLine
 10
82.16366599999996
 20
-203.91094599999977
 30
0.0
 11
86.38895599999996
 21
-203.13726199999977
 31
0.0
  0
LINE
  5
18E
330
17
100
AcDbEntity
  8
0
100
AcDbLine
 10
86.38895599999996
 20
-203.13726199999977
 30
0.0
 11
99.01707399999997
 21
-202.25257999999977
 31
0.0
  0
LINE
  5
18F
330
17
100
AcDbEntity
  8
0
100
AcDbLine
 10
99.01707399999997
 20
-202.25257999999977
 30
0.0
 11
99.39375599999997
 21
-202.28077399999975
 31
0.0
  0
LINE
  5
190
330
17
100
AcDbEntity
  8
0
100
AcDbLine
 10
99.39375599999997
 20
-202.28077399999975
 30
0.0
 11
99.63429399999997
 21
-202.32115999999976
 31
0.0
  0
LINE
  5
191
330
17
100
AcDbEntity
  8
0
100
AcDbLine
 10
99.63429399999997
 20
-202.32115999999976
 30
0.0
 11
99.73055999999997
 21
-202.34528999999978
 31
0.0
  0
LINE
  5
192
330
17
100
AcDbEntity
  8
0
100
AcDbLine
 10
99.73055999999997
 20
-202.34528999999978
 30
0.0
 11
100.62463999999997
 21
-198.11568199999977
 31
0.0
  0
LINE
  5
193
330
17
100
AcDbEntity
  8
0
100
AcDbLine
 10
100.62463999999997
 20
-198.11568199999977
 30
0.0
 11
101.72369799999997
 21
-194.88683399999977
 31
0.0
  0
LINE
  5
194
330
17
100
AcDbEntity
  8
0
100
AcDbLine
 10
101.72369799999997
 20
-194.88683399999977
 30
0.0
 11
102.65587799999997
 21
-192.82638599999976
 31
0.0
  0
LINE
  5
195
330
17
100
AcDbEntity
  8
0
100
AcDbLine
 10
102.65587799999997
 20
-192.82638599999976
 30
0.0
 11
103.04906999999997
 21
-192.10223199999976
 31
0.0
  0
LINE
  5
196
330
17
100
AcDbEntity
  8
0
100
AcDbLine
 10
103.04906999999997
 20
-192.10223199999976
 30
0.0
 11
76.05420399999997
 21
-191.96481799999975
 31
0.0
  0
LINE
  5
197
330
17
100
AcDbEntity
  8
0
100
AcDbLine
 10
76.05420399999997
 20
-191.96481799999975
 30
0.0
 11
75.92466399999996
 21
-191.97802599999977
 31
0.0
  0
LINE
  5
198
330
17
100
AcDbEntity
  8
0
100
AcDbLine
 10
75.92466399999996
 20
-191.97802599999977
 30
0.0
 11
75.79740999999997
 21
-192.00037799999976
 31
0.0
  0
LINE
  5
199
330
17
100
AcDbEntity
  8
0
100
AcDbLine
 10
75.79740999999997
 20
-192.00037799999976
 30
0.0
 11
75.67269599999999
 21
-192.03161999999978
 31
0.0
  0
LINE
  5
19A
330
17
100
AcDbEntity
  8
0
100
AcDbLine
 10
75.67269599999999
 20
-192.03161999999978
 30
0.0
 11
75.55102999999998
 21
-192.07124399999975
 31
0.0
  0
LINE
  5
19B
330
17
100
AcDbEntity
  8
0
100
AcDbLine
 10
75.55102999999998
 20
-192.07124399999975
 30
0.0
 11
75.43292
 21
-192.11924999999974
 31
0.0
  0
LINE
  5
19C
330
17
100
AcDbEntity
  8
0
100
AcDbLine
 10
75.43292
 20
-192.11924999999974
 30
0.0
 11
75.20889199999999
 21
-192.23888399999976
 31
0.0
  0
LINE
  5
19D
330
17
100
AcDbEntity
  8
0
100
AcDbLine
 10
75.20889199999999
 20
-192.23888399999976
 30
0.0
 11
75.00366
 21
-192.38848999999976
 31
0.0
  0
LINE
  5
19E
330
17
100
AcDbEntity
  8
0
100
AcDbLine
 10
75.00366
 20
-192.38848999999976
 30
0.0
 11
74.90917199999998
 21
-192.47383399999975
 31
0.0
  0
LINE
  5
19F
330
17
100
AcDbEntity
  8
0
100
AcDbLine
 10
74.90917199999998
 20
-192.47383399999975
 30
0.0
 11
74.82052599999999
 21
-192.56603599999977
 31
0.0
  0
LINE
  5
1A0
330
17
100
AcDbEntity
  8
0
100
AcDbLine
 10
74.82052599999999
 20
-192.56603599999977
 30
0.0
 11
74.73822999999999
 21
-192.66458799999978
 31
0.0
  0
LINE
  5
1A1
330
17
100
AcDbEntity
  8
0
100
AcDbLine
 10
74.73822999999999
 20
-192.66458799999978
 30
0.0
 11
74.66253799999998
 21
-192.7694899999998
 31
0.0
  0
LINE
  5
1A2
330
17
100
AcDbEntity
  8
0
100
AcDbLine
 10
74.66253799999998
 20
-192.7694899999998
 30
0.0
 11
74.59421199999998
 21
-192.8802339999998
 31
0.0
  0
LINE
  5
1A3
330
17
100
AcDbEntity
  8
0
100
AcDbLine
 10
74.59421199999998
 20
-192.8802339999998
 30
0.0
 11
74.53325199999999
 21
-192.9968199999998
 31
0.0
  0
ENDSEC
  0
SECTION
  2
OBJECTS
  0
DICTIONARY
  5
A
330
0
100
AcDbDictionary
281
1
  3
ACAD_COLOR
350
B
  3
ACAD_GROUP
350
C
  3
ACAD_LAYOUT
350
D
  3
ACAD_MATERIAL
350
E
  3
ACAD_MLEADERSTYLE
350
F
  3
ACAD_MLINESTYLE
350
10
  3
ACAD_PLOTSETTINGS
350
11
  3
ACAD_PLOTSTYLENAME
350
12
  3
ACAD_SCALELIST
350
14
  3
ACAD_TABLESTYLE
350
15
  3
ACAD_VISUALSTYLE
350
16
  3
EZDXF_META
350
2D
  0
DICTIONARY
  5
B
330
A
100
AcDbDictionary
281
1
  0
DICTIONARY
  5
C
330
A
100
AcDbDictionary
281
1
  0
DICTIONARY
  5
D
330
A
100
AcDbDictionary
281
1
  3
Model
350
1A
  3
Layout1
350
1E
  0
DICTIONARY
  5
E
330
A
100
AcDbDictionary
281
1
  3
ByBlock
350
1F
  3
ByLayer
350
20
  3
Global
350
21
  0
DICTIONARY
  5
F
330
A
100
AcDbDictionary
281
1
  3
Standard
350
2C
  0
DICTIONARY
  5
10
330
A
100
AcDbDictionary
281
1
  3
Standard
350
22
  0
DICTIONARY
  5
11
330
A
100
AcDbDictionary
281
1
  0
ACDBDICTIONARYWDFLT
  5
12
330
A
100
AcDbDictionary
281
1
  3
Normal
350
13
100
AcDbDictionaryWithDefault
340
13
  0
ACDBPLACEHOLDER
  5
13
330
12
  0
DICTIONARY
  5
14
330
A
100
AcDbDictionary
281
1
  0
DICTIONARY
  5
15
330
A
100
AcDbDictionary
281
1
  0
DICTIONARY
  5
16
330
A
100
AcDbDictionary
281
1
  0
LAYOUT
  5
1A
330
D
100
AcDbPlotSettings
  1

  4
A3
  6

 40
7.5
 41
20.0
 42
7.5
 43
20.0
 44
420.0
 45
297.0
 46
0.0
 47
0.0
 48
0.0
 49
0.0
140
0.0
141
0.0
142
1.0
143
1.0
 70
1024
 72
1
 73
0
 74
5
  7

 75
16
 76
0
 77
2
 78
300
147
1.0
148
0.0
149
0.0
100
AcDbLayout
  1
Model
 70
1
 71
0
 10
0.0
 20
0.0
 11
420.0
 21
297.0
 12
0.0
 22
0.0
 32
0.0
 14
1e+20
 24
1e+20
 34
1e+20
 15
-1e+20
 25
-1e+20
 35
-1e+20
146
0.0
 13
0.0
 23
0.0
 33
0.0
 16
1.0
 26
0.0
 36
0.0
 17
0.0
 27
1.0
 37
0.0
 76
1
330
17
  0
LAYOUT
  5
1E
330
D
100
AcDbPlotSettings
  1

  4
A3
  6

 40
7.5
 41
20.0
 42
7.5
 43
20.0
 44
420.0
 45
297.0
 46
0.0
 47
0.0
 48
0.0
 49
0.0
140
0.0
141
0.0
142
1.0
143
1.0
 70
0
 72
1
 73
0
 74
5
  7

 75
16
 76
0
 77
2
 78
300
147
1.0
148
0.0
149
0.0
100
AcDbLayout
  1
Layout1
 70
1
 71
1
 10
0.0
 20
0.0
 11
420.0
 21
297.0
 12
0.0
 22
0.0
 32
0.0
 14
1e+20
 24
1e+20
 34
1e+20
 15
-1e+20
 25
-1e+20
 35
-1e+20
146
0.0
 13
0.0
 23
0.0
 33
0.0
 16
1.0
 26
0.0
 36
0.0
 17
0.0
 27
1.0
 37
0.0
 76
1
330
1B
  0
MATERIAL
  5
1F
102
{ACAD_REACTORS
330
E
102
}
330
E
100
AcDbMaterial
  1
ByBlock
  2

 70
0
 40
1.0
 71
1
 41
1.0
 91
-1023410177
 42
1.0
 72
1
  3

 73
1
 74
1
 75
1
 44
0.5
 73
0
 45
1.0
 46
1.0
 77
1
  4

 78
1
 79
1
170
1
 48
1.0
171
1
  6

172
1
173
1
174
1
140
1.0
141
1.0
175
1
  7

176
1
177
1
178
1
143
1.0
179
1
  8

270
1
271
1
272
1
145
1.0
146
1.0
273
1
  9

274
1
275
1
276
1
 42
1.0
 72
1
  3

 73
1
 74
1
 75
1
 94
63
  0
MATERIAL
  5
20
102
{ACAD_REACTORS
330
E
102
}
330
E
100
AcDbMaterial
  1
ByLayer
  2

 70
0
 40
1.0
 71
1
 41
1.0
 91
-1023410177
 42
1.0
 72
1
  3

 73
1
 74
1
 75
1
 44
0.5
 73
0
 45
1.0
 46
1.0
 77
1
  4

 78
1
 79
1
170
1
 48
1.0
171
1
  6

172
1
173
1
174
1
140
1.0
141
1.0
175
1
  7

176
1
177
1
178
1
143
1.0
179
1
  8

270
1
271
1
272
1
145
1.0
146
1.0
273
1
  9

274
1
275
1
276
1
 42
1.0
 72
1
  3

 73
1
 74
1
 75
1
 94
63
  0
MATERIAL
  5
21
102
{ACAD_REACTORS
330
E
102
}
330
E
100
AcDbMaterial
  1
Global
  2

 70
0
 40
1.0
 71
1
 41
1.0
 91
-1023410177
 42
1.0
 72
1
  3

 73
1
 74
1
 75
1
 44
0.5
 73
0
 45
1.0
 46
1.0
 77
1
  4

 78
1
 79
1
170
1
 48
1.0
171
1
  6

172
1
173
1
174
1
140
1.0
141
1.0
175
1
  7

176
1
177
1
178
1
143
1.0
179
1
  8

270
1
271
1
272
1
145
1.0
146
1.0
273
1
  9

274
1
275
1
276
1
 42
1.0
 72
1
  3

 73
1
 74
1
 75
1
 94
63
  0
MLINESTYLE
  5
22
102
{ACAD_REACTORS
330
10
102
}
330
10
100
AcDbMlineStyle
  2
Standard
 70
0
  3

 62
256
 51
90.0
 52
90.0
 71
2
 49
0.5
 62
256
  6
BYLAYER
 49
-0.5
 62
256
  6
BYLAYER
  0
MLEADERSTYLE
  5
2C
102
{ACAD_REACTORS
330
F
102
}
330
F
100
AcDbMLeaderStyle
179
2
170
2
171
1
172
0
 90
2
 40
0.0
 41
0.0
173
1
 91
-1056964608
 92
-2
290
1
 42
2.0
291
1
 43
8.0
  3
Standard
 44
4.0
300

342
29
174
1
175
1
176
0
178
1
 93
-1056964608
 45
4.0
292
0
297
0
 46
4.0
 94
-1056964608
 47
1.0
 49
1.0
140
1.0
294
1
141
0.0
177
0
142
1.0
295
0
296
0
143
3.75
271
0
272
9
273
9
  0
DICTIONARY
  5
2D
330
A
100
AcDbDictionary
280
1
281
1
  3
CREATED_BY_EZDXF
350
2E
  3
WRITTEN_BY_EZDXF
350
1A6
  0
DICTIONARYVAR
  5
2E
330
2D
100
DictionaryVariables
280
0
  1
1.4.3 @ 2026-04-08T00:18:18.191053+00:00
  0
DICTIONARYVAR
  5
1A6
330
2D
100
DictionaryVariables
280
0
  1
1.4.3 @ 2026-04-08T00:18:18.194227+00:00
  0
ENDSEC
  0
EOF
