  0
SECTION
  2
HEADER
  9
$ACADVER
  1
AC1024
  9
$ACADMAINTVER
 70
6
  9
$DWGCODEPAGE
  3
ANSI_1252
  9
$LASTSAVEDBY
  1
ezdxf
  9
$INSBASE
 10
0.0
 20
0.0
 30
0.0
  9
$EXTMIN
 10
1e+20
 20
1e+20
 30
1e+20
  9
$EXTMAX
 10
-1e+20
 20
-1e+20
 30
-1e+20
  9
$LIMMIN
 10
0.0
 20
0.0
  9
$LIMMAX
 10
420.0
 20
297.0
  9
$ORTHOMODE
 70
0
  9
$REGENMODE
 70
1
  9
$FILLMODE
 70
1
  9
$QTEXTMODE
 70
0
  9
$MIRRTEXT
 70
1
  9
$LTSCALE
 40
1.0
  9
$ATTMODE
 70
1
  9
$TEXTSIZE
 40
2.5
  9
$TRACEWID
 40
1.0
  9
$TEXTSTYLE
  7
Standard
  9
$CLAYER
  8
0
  9
$CELTYPE
  6
ByLayer
  9
$CECOLOR
 62
256
  9
$CELTSCALE
 40
1.0
  9
$DISPSILH
 70
0
  9
$DIMSCALE
 40
1.0
  9
$DIMASZ
 40
2.5
  9
$DIMEXO
 40
0.625
  9
$DIMDLI
 40
3.75
  9
$DIMRND
 40
0.0
  9
$DIMDLE
 40
0.0
  9
$DIMEXE
 40
1.25
  9
$DIMTP
 40
0.0
  9
$DIMTM
 40
0.0
  9
$DIMTXT
 40
2.5
  9
$DIMCEN
 40
2.5
  9
$DIMTSZ
 40
0.0
  9
$DIMTOL
 70
0
  9
$DIMLIM
 70
0
  9
$DIMTIH
 70
0
  9
$DIMTOH
 70
0
  9
$DIMSE1
 70
0
  9
$DIMSE2
 70
0
  9
$DIMTAD
 70
1
  9
$DIMZIN
 70
8
  9
$DIMBLK
  1

  9
$DIMASO
 70
1
  9
$DIMSHO
 70
1
  9
$DIMPOST
  1

  9
$DIMAPOST
  1

  9
$DIMALT
 70
0
  9
$DIMALTD
 70
3
  9
$DIMALTF
 40
0.03937007874
  9
$DIMLFAC
 40
1.0
  9
$DIMTOFL
 70
1
  9
$DIMTVP
 40
0.0
  9
$DIMTIX
 70
0
  9
$DIMSOXD
 70
0
  9
$DIMSAH
 70
0
  9
$DIMBLK1
  1

  9
$DIMBLK2
  1

  9
$DIMSTYLE
  2
ISO-25
  9
$DIMCLRD
 70
0
  9
$DIMCLRE
 70
0
  9
$DIMCLRT
 70
0
  9
$DIMTFAC
 40
1.0
  9
$DIMGAP
 40
0.625
  9
$DIMJUST
 70
0
  9
$DIMSD1
 70
0
  9
$DIMSD2
 70
0
  9
$DIMTOLJ
 70
0
  9
$DIMTZIN
 70
8
  9
$DIMALTZ
 70
0
  9
$DIMALTTZ
 70
0
  9
$DIMUPT
 70
0
  9
$DIMDEC
 70
2
  9
$DIMTDEC
 70
2
  9
$DIMALTU
 70
2
  9
$DIMALTTD
 70
3
  9
$DIMTXSTY
  7
Standard
  9
$DIMAUNIT
 70
0
  9
$DIMADEC
 70
0
  9
$DIMALTRND
 40
0.0
  9
$DIMAZIN
 70
0
  9
$DIMDSEP
 70
44
  9
$DIMATFIT
 70
3
  9
$DIMFRAC
 70
0
  9
$DIMLDRBLK
  1

  9
$DIMLUNIT
 70
2
  9
$DIMLWD
 70
-2
  9
$DIMLWE
 70
-2
  9
$DIMTMOVE
 70
0
  9
$DIMFXL
 40
1.0
  9
$DIMFXLON
 70
0
  9
$DIMJOGANG
 40
0.785398163397
  9
$DIMTFILL
 70
0
  9
$DIMTFILLCLR
 70
0
  9
$DIMARCSYM
 70
0
  9
$DIMLTYPE
  6

  9
$DIMLTEX1
  6

  9
$DIMLTEX2
  6

  9
$DIMTXTDIRECTION
 70
0
  9
$LUNITS
 70
2
  9
$LUPREC
 70
4
  9
$SKETCHINC
 40
1.0
  9
$FILLETRAD
 40
10.0
  9
$AUNITS
 70
0
  9
$AUPREC
 70
2
  9
$MENU
  1
.
  9
$ELEVATION
 40
0.0
  9
$PELEVATION
 40
0.0
  9
$THICKNESS
 40
0.0
  9
$LIMCHECK
 70
0
  9
$CHAMFERA
 40
0.0
  9
$CHAMFERB
 40
0.0
  9
$CHAMFERC
 40
0.0
  9
$CHAMFERD
 40
0.0
  9
$SKPOLY
 70
0
  9
$TDCREATE
 40
2461138.721041667
  9
$TDUCREATE
 40
2458532.153996898
  9
$TDUPDATE
 40
2461138.721041667
  9
$TDUUPDATE
 40
2458532.1544311
  9
$TDINDWG
 40
0.0
  9
$TDUSRTIMER
 40
0.0
  9
$USRTIMER
 70
1
  9
$ANGBASE
 50
0.0
  9
$ANGDIR
 70
0
  9
$PDMODE
 70
0
  9
$PDSIZE
 40
0.0
  9
$PLINEWID
 40
0.0
  9
$SPLFRAME
 70
0
  9
$SPLINETYPE
 70
6
  9
$SPLINESEGS
 70
8
  9
$HANDSEED
  5
252
  9
$SURFTAB1
 70
6
  9
$SURFTAB2
 70
6
  9
$SURFTYPE
 70
6
  9
$SURFU
 70
6
  9
$SURFV
 70
6
  9
$UCSBASE
  2

  9
$UCSNAME
  2

  9
$UCSORG
 10
0.0
 20
0.0
 30
0.0
  9
$UCSXDIR
 10
1.0
 20
0.0
 30
0.0
  9
$UCSYDIR
 10
0.0
 20
1.0
 30
0.0
  9
$UCSORTHOREF
  2

  9
$UCSORTHOVIEW
 70
0
  9
$UCSORGTOP
 10
0.0
 20
0.0
 30
0.0
  9
$UCSORGBOTTOM
 10
0.0
 20
0.0
 30
0.0
  9
$UCSORGLEFT
 10
0.0
 20
0.0
 30
0.0
  9
$UCSORGRIGHT
 10
0.0
 20
0.0
 30
0.0
  9
$UCSORGFRONT
 10
0.0
 20
0.0
 30
0.0
  9
$UCSORGBACK
 10
0.0
 20
0.0
 30
0.0
  9
$PUCSBASE
  2

  9
$PUCSNAME
  2

  9
$PUCSORG
 10
0.0
 20
0.0
 30
0.0
  9
$PUCSXDIR
 10
1.0
 20
0.0
 30
0.0
  9
$PUCSYDIR
 10
0.0
 20
1.0
 30
0.0
  9
$PUCSORTHOREF
  2

  9
$PUCSORTHOVIEW
 70
0
  9
$PUCSORGTOP
 10
0.0
 20
0.0
 30
0.0
  9
$PUCSORGBOTTOM
 10
0.0
 20
0.0
 30
0.0
  9
$PUCSORGLEFT
 10
0.0
 20
0.0
 30
0.0
  9
$PUCSORGRIGHT
 10
0.0
 20
0.0
 30
0.0
  9
$PUCSORGFRONT
 10
0.0
 20
0.0
 30
0.0
  9
$PUCSORGBACK
 10
0.0
 20
0.0
 30
0.0
  9
$USERI1
 70
0
  9
$USERI2
 70
0
  9
$USERI3
 70
0
  9
$USERI4
 70
0
  9
$USERI5
 70
0
  9
$USERR1
 40
0.0
  9
$USERR2
 40
0.0
  9
$USERR3
 40
0.0
  9
$USERR4
 40
0.0
  9
$USERR5
 40
0.0
  9
$WORLDVIEW
 70
1
  9
$SHADEDGE
 70
3
  9
$SHADEDIF
 70
70
  9
$TILEMODE
 70
1
  9
$MAXACTVP
 70
64
  9
$PINSBASE
 10
0.0
 20
0.0
 30
0.0
  9
$PLIMCHECK
 70
0
  9
$PEXTMIN
 10
1e+20
 20
1e+20
 30
1e+20
  9
$PEXTMAX
 10
-1e+20
 20
-1e+20
 30
-1e+20
  9
$PLIMMIN
 10
0.0
 20
0.0
  9
$PLIMMAX
 10
420.0
 20
297.0
  9
$UNITMODE
 70
0
  9
$VISRETAIN
 70
1
  9
$PLINEGEN
 70
0
  9
$PSLTSCALE
 70
1
  9
$TREEDEPTH
 70
3020
  9
$CMLSTYLE
  2
Standard
  9
$CMLJUST
 70
0
  9
$CMLSCALE
 40
20.0
  9
$PROXYGRAPHICS
 70
1
  9
$MEASUREMENT
 70
1
  9
$CELWEIGHT
370
-1
  9
$ENDCAPS
280
0
  9
$JOINSTYLE
280
0
  9
$LWDISPLAY
290
0
  9
$INSUNITS
 70
6
  9
$HYPERLINKBASE
  1

  9
$STYLESHEET
  1

  9
$XEDIT
290
1
  9
$CEPSNTYPE
380
0
  9
$PSTYLEMODE
290
1
  9
$FINGERPRINTGUID
  2
{7FB87737-D723-429B-9C67-D91375DD1BBD}
  9
$VERSIONGUID
  2
{15B25E1C-5327-48FA-BADC-AB0D391410F3}
  9
$EXTNAMES
290
1
  9
$PSVPSCALE
 40
0.0
  9
$OLESTARTUP
290
0
  9
$SORTENTS
280
127
  9
$INDEXCTL
280
0
  9
$HIDETEXT
280
1
  9
$XCLIPFRAME
280
1
  9
$HALOGAP
280
0
  9
$OBSCOLOR
 70
257
  9
$OBSLTYPE
280
0
  9
$INTERSECTIONDISPLAY
280
0
  9
$INTERSECTIONCOLOR
 70
257
  9
$DIMASSOC
280
2
  9
$PROJECTNAME
  1

  9
$CAMERADISPLAY
290
0
  9
$LENSLENGTH
 40
50.0
  9
$CAMERAHEIGHT
 40
0.0
  9
$STEPSPERSEC
 40
24.0
  9
$STEPSIZE
 40
100.0
  9
$3DDWFPREC
 40
2.0
  9
$PSOLWIDTH
 40
0.005
  9
$PSOLHEIGHT
 40
0.08
  9
$LOFTANG1
 40
1.570796326795
  9
$LOFTANG2
 40
1.570796326795
  9
$LOFTMAG1
 40
0.0
  9
$LOFTMAG2
 40
0.0
  9
$LOFTPARAM
 70
7
  9
$LOFTNORMALS
280
1
  9
$LATITUDE
 40
37.795
  9
$LONGITUDE
 40
-122.394
  9
$NORTHDIRECTION
 40
0.0
  9
$TIMEZONE
 70
-8000
  9
$LIGHTGLYPHDISPLAY
280
1
  9
$TILEMODELIGHTSYNCH
280
1
  9
$CMATERIAL
347
20
  9
$SOLIDHIST
280
0
  9
$SHOWHIST
280
1
  9
$DWFFRAME
280
2
  9
$DGNFRAME
280
2
  9
$REALWORLDSCALE
290
1
  9
$INTERFERECOLOR
 62
256
  9
$CSHADOW
280
0
  9
$SHADOWPLANELOCATION
 40
0.0
  0
ENDSEC
  0
SECTION
  2
CLASSES
  0
CLASS
  1
ACDBDICTIONARYWDFLT
  2
AcDbDictionaryWithDefault
  3
ObjectDBX Classes
 90
0
 91
0
280
0
281
0
  0
CLASS
  1
SUN
  2
AcDbSun
  3
SCENEOE
 90
1153
 91
0
280
0
281
0
  0
CLASS
  1
VISUALSTYLE
  2
AcDbVisualStyle
  3
ObjectDBX Classes
 90
4095
 91
0
280
0
281
0
  0
CLASS
  1
MATERIAL
  2
AcDbMaterial
  3
ObjectDBX Classes
 90
1153
 91
0
280
0
281
0
  0
CLASS
  1
SCALE
  2
AcDbScale
  3
ObjectDBX Classes
 90
1153
 91
0
280
0
281
0
  0
CLASS
  1
TABLESTYLE
  2
AcDbTableStyle
  3
ObjectDBX Classes
 90
4095
 91
0
280
0
281
0
  0
CLASS
  1
MLEADERSTYLE
  2
AcDbMLeaderStyle
  3
ACDB_MLEADERSTYLE_CLASS
 90
4095
 91
0
280
0
281
0
  0
CLASS
  1
DICTIONARYVAR
  2
AcDbDictionaryVar
  3
ObjectDBX Classes
 90
0
 91
0
280
0
281
0
  0
CLASS
  1
CELLSTYLEMAP
  2
AcDbCellStyleMap
  3
ObjectDBX Classes
 90
1152
 91
0
280
0
281
0
  0
CLASS
  1
MENTALRAYRENDERSETTINGS
  2
AcDbMentalRayRenderSettings
  3
SCENEOE
 90
1024
 91
0
280
0
281
0
  0
CLASS
  1
ACDBDETAILVIEWSTYLE
  2
AcDbDetailViewStyle
  3
ObjectDBX Classes
 90
1025
 91
0
280
0
281
0
  0
CLASS
  1
ACDBSECTIONVIEWSTYLE
  2
AcDbSectionViewStyle
  3
ObjectDBX Classes
 90
1025
 91
0
280
0
281
0
  0
CLASS
  1
RASTERVARIABLES
  2
AcDbRasterVariables
  3
ISM
 90
0
 91
0
280
0
281
0
  0
CLASS
  1
ACDBPLACEHOLDER
  2
AcDbPlaceHolder
  3
ObjectDBX Classes
 90
0
 91
0
280
0
281
0
  0
CLASS
  1
LAYOUT
  2
AcDbLayout
  3
ObjectDBX Classes
 90
0
 91
0
280
0
281
0
  0
ENDSEC
  0
SECTION
  2
TABLES
  0
TABLE
  2
VPORT
  5
8
330
0
100
AcDbSymbolTable
 70
1
  0
VPORT
  5
23
330
8
100
AcDbSymbolTableRecord
100
AcDbViewportTableRecord
  2
*Active
 70
0
 10
0.0
 20
0.0
 11
1.0
 21
1.0
 12
0.0
 22
0.0
 13
0.0
 23
0.0
 14
0.5
 24
0.5
 15
0.5
 25
0.5
 16
0.0
 26
0.0
 36
1.0
 17
0.0
 27
0.0
 37
0.0
 40
1000.0
 41
1.34
 42
50.0
 43
0.0
 44
0.0
 50
0.0
 51
0.0
 71
0
 72
1000
 73
1
 74
3
 75
0
 76
0
 77
0
 78
0
281
0
 65
0
146
0.0
  0
ENDTAB
  0
TABLE
  2
LTYPE
  5
2
330
0
100
AcDbSymbolTable
 70
3
  0
LTYPE
  5
24
330
2
100
AcDbSymbolTableRecord
100
AcDbLinetypeTableRecord
  2
ByBlock
 70
0
  3

 72
65
 73
0
 40
0.0
  0
LTYPE
  5
25
330
2
100
AcDbSymbolTableRecord
100
AcDbLinetypeTableRecord
  2
ByLayer
 70
0
  3

 72
65
 73
0
 40
0.0
  0
LTYPE
  5
26
330
2
100
AcDbSymbolTableRecord
100
AcDbLinetypeTableRecord
  2
Continuous
 70
0
  3

 72
65
 73
0
 40
0.0
  0
ENDTAB
  0
TABLE
  2
LAYER
  5
1
330
0
100
AcDbSymbolTable
 70
2
  0
LAYER
  5
27
330
1
100
AcDbSymbolTableRecord
100
AcDbLayerTableRecord
  2
0
 70
0
 62
7
  6
Continuous
370
-3
390
13
347
21
  0
LAYER
  5
28
330
1
100
AcDbSymbolTableRecord
100
AcDbLayerTableRecord
  2
Defpoints
 70
0
 62
7
  6
Continuous
290
0
370
-3
390
13
347
21
  0
ENDTAB
  0
TABLE
  2
STYLE
  5
5
330
0
100
AcDbSymbolTable
 70
1
  0
STYLE
  5
29
330
5
100
AcDbSymbolTableRecord
100
AcDbTextStyleTableRecord
  2
Standard
 70
0
 40
0.0
 41
1.0
 50
0.0
 71
0
 42
2.5
  3
txt
  4

  0
ENDTAB
  0
TABLE
  2
VIEW
  5
7
330
0
100
AcDbSymbolTable
 70
0
  0
ENDTAB
  0
TABLE
  2
UCS
  5
6
330
0
100
AcDbSymbolTable
 70
0
  0
ENDTAB
  0
TABLE
  2
APPID
  5
3
330
0
100
AcDbSymbolTable
 70
3
  0
APPID
  5
2A
330
3
100
AcDbSymbolTableRecord
100
AcDbRegAppTableRecord
  2
ACAD
 70
0
  0
APPID
  5
24F
330
3
100
AcDbSymbolTableRecord
100
AcDbRegAppTableRecord
  2
HATCHBACKGROUNDCOLOR
 70
0
  0
APPID
  5
250
330
3
100
AcDbSymbolTableRecord
100
AcDbRegAppTableRecord
  2
EZDXF
 70
0
  0
ENDTAB
  0
TABLE
  2
DIMSTYLE
  5
4
330
0
100
AcDbSymbolTable
 70
1
100
AcDbDimStyleTable
  0
DIMSTYLE
105
2B
330
4
100
AcDbSymbolTableRecord
100
AcDbDimStyleTableRecord
  2
Standard
 70
0
 40
1.0
 41
2.5
 42
0.625
 43
3.75
 44
1.25
 45
0.0
 46
0.0
 47
0.0
 48
0.0
 49
2.5
140
2.5
141
2.5
142
0.0
143
0.03937007874
144
1.0
145
0.0
146
1.0
147
0.625
148
0.0
 69
0
 70
0
 71
0
 72
0
 73
0
 74
0
 75
0
 76
0
 77
1
 78
8
 79
3
170
0
171
3
172
1
173
0
174
0
175
0
176
0
177
0
178
0
179
2
271
2
272
2
273
2
274
3
275
0
276
0
277
2
278
44
279
0
280
0
281
0
282
0
283
0
284
8
285
0
286
0
288
0
289
3
290
0
371
-2
372
-2
  0
ENDTAB
  0
TABLE
  2
BLOCK_RECORD
  5
9
330
0
100
AcDbSymbolTable
 70
2
  0
BLOCK_RECORD
  5
17
330
9
100
AcDbSymbolTableRecord
100
AcDbBlockTableRecord
  2
*Model_Space
340
1A
 70
0
280
1
281
0
  0
BLOCK_RECORD
  5
1B
330
9
100
AcDbSymbolTableRecord
100
AcDbBlockTableRecord
  2
*Paper_Space
340
1E
 70
0
280
1
281
0
  0
ENDTAB
  0
ENDSEC
  0
SECTION
  2
BLOCKS
  0
BLOCK
  5
18
330
17
100
AcDbEntity
  8
0
100
AcDbBlockBegin
  2
*Model_Space
 70
0
 10
0.0
 20
0.0
 30
0.0
  3
*Model_Space
  1

  0
ENDBLK
  5
19
330
17
100
AcDbEntity
  8
0
100
AcDbBlockEnd
  0
BLOCK
  5
1C
330
1B
100
AcDbEntity
  8
0
100
AcDbBlockBegin
  2
*Paper_Space
 70
0
 10
0.0
 20
0.0
 30
0.0
  3
*Paper_Space
  1

  0
ENDBLK
  5
1D
330
1B
100
AcDbEntity
  8
0
100
AcDbBlockEnd
  0
ENDSEC
  0
SECTION
  2
ENTITIES
  0
LINE
  5
2F
330
17
100
AcDbEntity
  8
0
100
AcDbLine
 10
98.50907400000001
 20
-64.82969
 30
0.0
 11
94.84385400000001
 21
-64.82969
 31
0.0
  0
LINE
  5
30
330
17
100
AcDbEntity
  8
0
100
AcDbLine
 10
94.84385400000001
 20
-64.82969
 30
0.0
 11
97.831402
 21
-76.70393600000001
 31
0.0
  0
LINE
  5
31
330
17
100
AcDbEntity
  8
0
100
AcDbLine
 10
97.831402
 20
-76.70393600000001
 30
0.0
 11
97.921826
 21
-76.74102000000002
 31
0.0
  0
LINE
  5
32
330
17
100
AcDbEntity
  8
0
100
AcDbLine
 10
97.921826
 20
-76.74102000000002
 30
0.0
 11
98.005646
 21
-76.78572400000002
 31
0.0
  0
LINE
  5
33
330
17
100
AcDbEntity
  8
0
100
AcDbLine
 10
98.005646
 20
-76.78572400000002
 30
0.0
 11
98.082608
 21
-76.83652400000001
 31
0.0
  0
LINE
  5
34
330
17
100
AcDbEntity
  8
0
100
AcDbLine
 10
98.082608
 20
-76.83652400000001
 30
0.0
 11
98.15296599999999
 21
-76.89189600000002
 31
0.0
  0
LINE
  5
35
330
17
100
AcDbEntity
  8
0
100
AcDbLine
 10
98.15296599999999
 20
-76.89189600000002
 30
0.0
 11
98.274378
 21
-77.01153000000001
 31
0.0
  0
LINE
  5
36
330
17
100
AcDbEntity
  8
0
100
AcDbLine
 10
98.274378
 20
-77.01153000000001
 30
0.0
 11
98.371152
 21
-77.13395800000002
 31
0.0
  0
LINE
  5
37
330
17
100
AcDbEntity
  8
0
100
AcDbLine
 10
98.371152
 20
-77.13395800000002
 30
0.0
 11
98.44430399999999
 21
-77.24800400000002
 31
0.0
  0
LINE
  5
38
330
17
100
AcDbEntity
  8
0
100
AcDbLine
 10
98.44430399999999
 20
-77.24800400000002
 30
0.0
 11
98.49510399999998
 21
-77.34300000000003
 31
0.0
  0
LINE
  5
39
330
17
100
AcDbEntity
  8
0
100
AcDbLine
 10
98.49510399999998
 20
-77.34300000000003
 30
0.0
 11
98.53421999999999
 21
-77.43215400000003
 31
0.0
  0
LINE
  5
3A
330
17
100
AcDbEntity
  8
0
100
AcDbLine
 10
98.53421999999999
 20
-77.43215400000003
 30
0.0
 11
99.23271999999999
 21
-77.59522200000004
 31
0.0
  0
LINE
  5
3B
330
17
100
AcDbEntity
  8
0
100
AcDbLine
 10
99.23271999999999
 20
-77.59522200000004
 30
0.0
 11
99.88829399999999
 21
-77.82306000000003
 31
0.0
  0
LINE
  5
3C
330
17
100
AcDbEntity
  8
0
100
AcDbLine
 10
99.88829399999999
 20
-77.82306000000003
 30
0.0
 11
100.500434
 21
-78.10550800000003
 31
0.0
  0
LINE
  5
3D
330
17
100
AcDbEntity
  8
0
100
AcDbLine
 10
100.500434
 20
-78.10550800000003
 30
0.0
 11
101.06863200000001
 21
-78.43189800000003
 31
0.0
  0
LINE
  5
3E
330
17
100
AcDbEntity
  8
0
100
AcDbLine
 10
101.06863200000001
 20
-78.43189800000003
 30
0.0
 11
101.59288800000002
 21
-78.79207000000004
 31
0.0
  0
LINE
  5
3F
330
17
100
AcDbEntity
  8
0
100
AcDbLine
 10
101.59288800000002
 20
-78.79207000000004
 30
0.0
 11
102.07294800000001
 21
-79.17561000000003
 31
0.0
  0
LINE
  5
40
330
17
100
AcDbEntity
  8
0
100
AcDbLine
 10
102.07294800000001
 20
-79.17561000000003
 30
0.0
 11
102.89921000000001
 21
-79.97063000000004
 31
0.0
  0
LINE
  5
41
330
17
100
AcDbEntity
  8
0
100
AcDbLine
 10
102.89921000000001
 20
-79.97063000000004
 30
0.0
 11
103.545386
 21
-80.73390000000003
 31
0.0
  0
LINE
  5
42
330
17
100
AcDbEntity
  8
0
100
AcDbLine
 10
103.545386
 20
-80.73390000000003
 30
0.0
 11
104.009444
 21
-81.38236200000003
 31
0.0
  0
LINE
  5
43
330
17
100
AcDbEntity
  8
0
100
AcDbLine
 10
104.009444
 20
-81.38236200000003
 30
0.0
 11
104.383332
 21
-82.00085200000004
 31
0.0
  0
LINE
  5
44
330
17
100
AcDbEntity
  8
0
100
AcDbLine
 10
104.383332
 20
-82.00085200000004
 30
0.0
 11
106.642916
 21
-89.65768200000004
 31
0.0
  0
LINE
  5
45
330
17
100
AcDbEntity
  8
0
100
AcDbLine
 10
106.642916
 20
-89.65768200000004
 30
0.0
 11
106.65587
 21
-89.23756600000003
 31
0.0
  0
LINE
  5
46
330
17
100
AcDbEntity
  8
0
100
AcDbLine
 10
106.65587
 20
-89.23756600000003
 30
0.0
 11
106.741214
 21
-88.48674200000002
 31
0.0
  0
LINE
  5
47
330
17
100
AcDbEntity
  8
0
100
AcDbLine
 10
106.741214
 20
-88.48674200000002
 30
0.0
 11
106.896662
 21
-87.84742400000003
 31
0.0
  0
LINE
  5
48
330
17
100
AcDbEntity
  8
0
100
AcDbLine
 10
106.896662
 20
-87.84742400000003
 30
0.0
 11
106.997246
 21
-87.56700800000003
 31
0.0
  0
LINE
  5
49
330
17
100
AcDbEntity
  8
0
100
AcDbLine
 10
106.997246
 20
-87.56700800000003
 30
0.0
 11
107.111546
 21
-87.31097600000004
 31
0.0
  0
LINE
  5
4A
330
17
100
AcDbEntity
  8
0
100
AcDbLine
 10
107.111546
 20
-87.31097600000004
 30
0.0
 11
107.237784
 21
-87.07856600000004
 31
0.0
  0
LINE
  5
4B
330
17
100
AcDbEntity
  8
0
100
AcDbLine
 10
107.237784
 20
-87.07856600000004
 30
0.0
 11
107.37494400000001
 21
-86.86850800000003
 31
0.0
  0
LINE
  5
4C
330
17
100
AcDbEntity
  8
0
100
AcDbLine
 10
107.37494400000001
 20
-86.86850800000003
 30
0.0
 11
107.52150200000001
 21
-86.67978600000004
 31
0.0
  0
LINE
  5
4D
330
17
100
AcDbEntity
  8
0
100
AcDbLine
 10
107.52150200000001
 20
-86.67978600000004
 30
0.0
 11
107.67618800000001
 21
-86.51113000000004
 31
0.0
  0
LINE
  5
4E
330
17
100
AcDbEntity
  8
0
100
AcDbLine
 10
107.67618800000001
 20
-86.51113000000004
 30
0.0
 11
107.837478
 21
-86.36152400000003
 31
0.0
  0
LINE
  5
4F
330
17
100
AcDbEntity
  8
0
100
AcDbLine
 10
107.837478
 20
-86.36152400000003
 30
0.0
 11
108.004102
 21
-86.22995200000004
 31
0.0
  0
LINE
  5
50
330
17
100
AcDbEntity
  8
0
100
AcDbLine
 10
108.004102
 20
-86.22995200000004
 30
0.0
 11
108.17479000000002
 21
-86.11539800000004
 31
0.0
  0
LINE
  5
51
330
17
100
AcDbEntity
  8
0
100
AcDbLine
 10
108.17479000000002
 20
-86.11539800000004
 30
0.0
 11
108.52251600000002
 21
-85.93251800000003
 31
0.0
  0
LINE
  5
52
330
17
100
AcDbEntity
  8
0
100
AcDbLine
 10
108.52251600000002
 20
-85.93251800000003
 30
0.0
 11
108.87024200000003
 21
-85.80399400000005
 31
0.0
  0
LINE
  5
53
330
17
100
AcDbEntity
  8
0
100
AcDbLine
 10
108.87024200000003
 20
-85.80399400000005
 30
0.0
 11
109.20653800000004
 21
-85.72119000000004
 31
0.0
  0
LINE
  5
54
330
17
100
AcDbEntity
  8
0
100
AcDbLine
 10
109.20653800000004
 20
-85.72119000000004
 30
0.0
 11
109.52099000000003
 21
-85.67521600000003
 31
0.0
  0
LINE
  5
55
330
17
100
AcDbEntity
  8
0
100
AcDbLine
 10
109.52099000000003
 20
-85.67521600000003
 30
0.0
 11
109.80242200000004
 21
-85.65743600000003
 31
0.0
  0
LINE
  5
56
330
17
100
AcDbEntity
  8
0
100
AcDbLine
 10
109.80242200000004
 20
-85.65743600000003
 30
0.0
 11
110.22380800000003
 21
-85.67064400000004
 31
0.0
  0
LINE
  5
57
330
17
100
AcDbEntity
  8
0
100
AcDbLine
 10
110.22380800000003
 20
-85.67064400000004
 30
0.0
 11
110.38332000000003
 21
-85.69071000000005
 31
0.0
  0
LINE
  5
58
330
17
100
AcDbEntity
  8
0
100
AcDbLine
 10
110.38332000000003
 20
-85.69071000000005
 30
0.0
 11
110.05667600000002
 21
-84.71687400000005
 31
0.0
  0
LINE
  5
59
330
17
100
AcDbEntity
  8
0
100
AcDbLine
 10
110.05667600000002
 20
-84.71687400000005
 30
0.0
 11
110.04042000000003
 21
-84.64118200000004
 31
0.0
  0
LINE
  5
5A
330
17
100
AcDbEntity
  8
0
100
AcDbLine
 10
110.04042000000003
 20
-84.64118200000004
 30
0.0
 11
110.02975200000003
 21
-84.56523600000006
 31
0.0
  0
LINE
  5
5B
330
17
100
AcDbEntity
  8
0
100
AcDbLine
 10
110.02975200000003
 20
-84.56523600000006
 30
0.0
 11
110.02492600000002
 21
-84.48929000000005
 31
0.0
  0
LINE
  5
5C
330
17
100
AcDbEntity
  8
0
100
AcDbLine
 10
110.02492600000002
 20
-84.48929000000005
 30
0.0
 11
110.02568800000002
 21
-84.41334400000007
 31
0.0
  0
LINE
  5
5D
330
17
100
AcDbEntity
  8
0
100
AcDbLine
 10
110.02568800000002
 20
-84.41334400000007
 30
0.0
 11
110.03203800000001
 21
-84.33816000000006
 31
0.0
  0
LINE
  5
5E
330
17
100
AcDbEntity
  8
0
100
AcDbLine
 10
110.03203800000001
 20
-84.33816000000006
 30
0.0
 11
110.04397600000003
 21
-84.26373800000006
 31
0.0
  0
LINE
  5
5F
330
17
100
AcDbEntity
  8
0
100
AcDbLine
 10
110.04397600000003
 20
-84.26373800000006
 30
0.0
 11
110.06124800000002
 21
-84.19058600000005
 31
0.0
  0
LINE
  5
60
330
17
100
AcDbEntity
  8
0
100
AcDbLine
 10
110.06124800000002
 20
-84.19058600000005
 30
0.0
 11
110.08385400000002
 21
-84.11870400000005
 31
0.0
  0
LINE
  5
61
330
17
100
AcDbEntity
  8
0
100
AcDbLine
 10
110.08385400000002
 20
-84.11870400000005
 30
0.0
 11
110.11154000000002
 21
-84.04860000000005
 31
0.0
  0
LINE
  5
62
330
17
100
AcDbEntity
  8
0
100
AcDbLine
 10
110.11154000000002
 20
-84.04860000000005
 30
0.0
 11
110.14430600000001
 21
-83.98052800000006
 31
0.0
  0
LINE
  5
63
330
17
100
AcDbEntity
  8
0
100
AcDbLine
 10
110.14430600000001
 20
-83.98052800000006
 30
0.0
 11
110.18240600000001
 21
-83.91499600000006
 31
0.0
  0
LINE
  5
64
330
17
100
AcDbEntity
  8
0
100
AcDbLine
 10
110.18240600000001
 20
-83.91499600000006
 30
0.0
 11
110.22533200000001
 21
-83.85200400000006
 31
0.0
  0
LINE
  5
65
330
17
100
AcDbEntity
  8
0
100
AcDbLine
 10
110.22533200000001
 20
-83.85200400000006
 30
0.0
 11
110.27308400000001
 21
-83.79206000000006
 31
0.0
  0
LINE
  5
66
330
17
100
AcDbEntity
  8
0
100
AcDbLine
 10
110.27308400000001
 20
-83.79206000000006
 30
0.0
 11
110.325916
 21
-83.73541800000007
 31
0.0
  0
LINE
  5
67
330
17
100
AcDbEntity
  8
0
100
AcDbLine
 10
110.325916
 20
-83.73541800000007
 30
0.0
 11
110.38332000000001
 21
-83.68233200000006
 31
0.0
  0
LINE
  5
68
330
17
100
AcDbEntity
  8
0
100
AcDbLine
 10
110.38332000000001
 20
-83.68233200000006
 30
0.0
 11
109.89970400000001
 21
-82.74329400000006
 31
0.0
  0
LINE
  5
69
330
17
100
AcDbEntity
  8
0
100
AcDbLine
 10
109.89970400000001
 20
-82.74329400000006
 30
0.0
 11
109.50727400000001
 21
-81.80476400000006
 31
0.0
  0
LINE
  5
6A
330
17
100
AcDbEntity
  8
0
100
AcDbLine
 10
109.50727400000001
 20
-81.80476400000006
 30
0.0
 11
108.96295200000002
 21
-79.96275600000007
 31
0.0
  0
LINE
  5
6B
330
17
100
AcDbEntity
  8
0
100
AcDbLine
 10
108.96295200000002
 20
-79.96275600000007
 30
0.0
 11
108.68380600000002
 21
-78.22260200000007
 31
0.0
  0
LINE
  5
6C
330
17
100
AcDbEntity
  8
0
100
AcDbLine
 10
108.68380600000002
 20
-78.22260200000007
 30
0.0
 11
108.60405000000002
 21
-76.65034200000007
 31
0.0
  0
LINE
  5
6D
330
17
100
AcDbEntity
  8
0
100
AcDbLine
 10
108.60405000000002
 20
-76.65034200000007
 30
0.0
 11
108.65713600000001
 21
-75.31227000000007
 31
0.0
  0
LINE
  5
6E
330
17
100
AcDbEntity
  8
0
100
AcDbLine
 10
108.65713600000001
 20
-75.31227000000007
 30
0.0
 11
108.77702400000001
 21
-74.27442600000006
 31
0.0
  0
LINE
  5
6F
330
17
100
AcDbEntity
  8
0
100
AcDbLine
 10
108.77702400000001
 20
-74.27442600000006
 30
0.0
 11
108.952284
 21
-73.36485200000007
 31
0.0
  0
LINE
  5
70
330
17
100
AcDbEntity
  8
0
100
AcDbLine
 10
108.952284
 20
-73.36485200000007
 30
0.0
 11
108.59795400000002
 21
-73.35824800000006
 31
0.0
  0
LINE
  5
71
330
17
100
AcDbEntity
  8
0
100
AcDbLine
 10
108.59795400000002
 20
-73.35824800000006
 30
0.0
 11
108.47324000000002
 21
-73.33919800000007
 31
0.0
  0
LINE
  5
72
330
17
100
AcDbEntity
  8
0
100
AcDbLine
 10
108.47324000000002
 20
-73.33919800000007
 30
0.0
 11
108.35284400000002
 21
-73.30821000000006
 31
0.0
  0
LINE
  5
73
330
17
100
AcDbEntity
  8
0
100
AcDbLine
 10
108.35284400000002
 20
-73.30821000000006
 30
0.0
 11
108.23752800000001
 21
-73.26604600000006
 31
0.0
  0
LINE
  5
74
330
17
100
AcDbEntity
  8
0
100
AcDbLine
 10
108.23752800000001
 20
-73.26604600000006
 30
0.0
 11
108.12780000000001
 21
-73.21321400000005
 31
0.0
  0
LINE
  5
75
330
17
100
AcDbEntity
  8
0
100
AcDbLine
 10
108.12780000000001
 20
-73.21321400000005
 30
0.0
 11
108.024168
 21
-73.15047600000005
 31
0.0
  0
LINE
  5
76
330
17
100
AcDbEntity
  8
0
100
AcDbLine
 10
108.024168
 20
-73.15047600000005
 30
0.0
 11
107.927648
 21
-73.07808600000004
 31
0.0
  0
LINE
  5
77
330
17
100
AcDbEntity
  8
0
100
AcDbLine
 10
107.927648
 20
-73.07808600000004
 30
0.0
 11
107.83849400000001
 21
-72.99706000000005
 31
0.0
  0
LINE
  5
78
330
17
100
AcDbEntity
  8
0
100
AcDbLine
 10
107.83849400000001
 20
-72.99706000000005
 30
0.0
 11
107.757468
 21
-72.90790600000004
 31
0.0
  0
LINE
  5
79
330
17
100
AcDbEntity
  8
0
100
AcDbLine
 10
107.757468
 20
-72.90790600000004
 30
0.0
 11
107.685332
 21
-72.81138600000004
 31
0.0
  0
LINE
  5
7A
330
17
100
AcDbEntity
  8
0
100
AcDbLine
 10
107.685332
 20
-72.81138600000004
 30
0.0
 11
107.62234000000001
 21
-72.70800800000005
 31
0.0
  0
LINE
  5
7B
330
17
100
AcDbEntity
  8
0
100
AcDbLine
 10
107.62234000000001
 20
-72.70800800000005
 30
0.0
 11
107.569508
 21
-72.59828000000005
 31
0.0
  0
LINE
  5
7C
330
17
100
AcDbEntity
  8
0
100
AcDbLine
 10
107.569508
 20
-72.59828000000005
 30
0.0
 11
107.52709000000002
 21
-72.48296400000004
 31
0.0
  0
LINE
  5
7D
330
17
100
AcDbEntity
  8
0
100
AcDbLine
 10
107.52709000000002
 20
-72.48296400000004
 30
0.0
 11
107.49610200000001
 21
-72.36256800000004
 31
0.0
  0
LINE
  5
7E
330
17
100
AcDbEntity
  8
0
100
AcDbLine
 10
107.49610200000001
 20
-72.36256800000004
 30
0.0
 11
107.47705200000001
 21
-72.23785400000004
 31
0.0
  0
LINE
  5
7F
330
17
100
AcDbEntity
  8
0
100
AcDbLine
 10
107.47705200000001
 20
-72.23785400000004
 30
0.0
 11
107.470448
 21
-67.23938800000005
 31
0.0
  0
LINE
  5
80
330
17
100
AcDbEntity
  8
0
100
AcDbLine
 10
107.470448
 20
-67.23938800000005
 30
0.0
 11
107.46232
 21
-67.23964200000005
 31
0.0
  0
LINE
  5
81
330
17
100
AcDbEntity
  8
0
100
AcDbLine
 10
107.46232
 20
-67.23964200000005
 30
0.0
 11
107.45343000000001
 21
-67.24065800000005
 31
0.0
  0
LINE
  5
82
330
17
100
AcDbEntity
  8
0
100
AcDbLine
 10
107.45343000000001
 20
-67.24065800000005
 30
0.0
 11
107.43387200000001
 21
-67.24472200000005
 31
0.0
  0
LINE
  5
83
330
17
100
AcDbEntity
  8
0
100
AcDbLine
 10
107.43387200000001
 20
-67.24472200000005
 30
0.0
 11
107.38764400000001
 21
-67.26021600000006
 31
0.0
  0
LINE
  5
84
330
17
100
AcDbEntity
  8
0
100
AcDbLine
 10
107.38764400000001
 20
-67.26021600000006
 30
0.0
 11
107.33278
 21
-67.28510800000005
 31
0.0
  0
LINE
  5
85
330
17
100
AcDbEntity
  8
0
100
AcDbLine
 10
107.33278
 20
-67.28510800000005
 30
0.0
 11
107.200192
 21
-67.36029200000006
 31
0.0
  0
LINE
  5
86
330
17
100
AcDbEntity
  8
0
100
AcDbLine
 10
107.200192
 20
-67.36029200000006
 30
0.0
 11
105.905046
 21
-68.32219000000005
 31
0.0
  0
LINE
  5
87
330
17
100
AcDbEntity
  8
0
100
AcDbLine
 10
105.905046
 20
-68.32219000000005
 30
0.0
 11
105.701846
 21
-68.43496600000005
 31
0.0
  0
LINE
  5
88
330
17
100
AcDbEntity
  8
0
100
AcDbLine
 10
105.701846
 20
-68.43496600000005
 30
0.0
 11
105.489756
 21
-68.52894600000005
 31
0.0
  0
LINE
  5
89
330
17
100
AcDbEntity
  8
0
100
AcDbLine
 10
105.489756
 20
-68.52894600000005
 30
0.0
 11
105.270554
 21
-68.60387600000006
 31
0.0
  0
LINE
  5
8A
330
17
100
AcDbEntity
  8
0
100
AcDbLine
 10
105.270554
 20
-68.60387600000006
 30
0.0
 11
105.04525600000001
 21
-68.65924800000006
 31
0.0
  0
LINE
  5
8B
330
17
100
AcDbEntity
  8
0
100
AcDbLine
 10
105.04525600000001
 20
-68.65924800000006
 30
0.0
 11
104.815132
 21
-68.69455400000007
 31
0.0
  0
LINE
  5
8C
330
17
100
AcDbEntity
  8
0
100
AcDbLine
 10
104.815132
 20
-68.69455400000007
 30
0.0
 11
104.58196000000001
 21
-68.70979400000006
 31
0.0
  0
LINE
  5
8D
330
17
100
AcDbEntity
  8
0
100
AcDbLine
 10
104.58196000000001
 20
-68.70979400000006
 30
0.0
 11
100.34016000000001
 21
-68.60997200000007
 31
0.0
  0
LINE
  5
8E
330
17
100
AcDbEntity
  8
0
100
AcDbLine
 10
100.34016000000001
 20
-68.60997200000007
 30
0.0
 11
100.242624
 21
-68.59574800000007
 31
0.0
  0
LINE
  5
8F
330
17
100
AcDbEntity
  8
0
100
AcDbLine
 10
100.242624
 20
-68.59574800000007
 30
0.0
 11
100.147628
 21
-68.57390400000007
 31
0.0
  0
LINE
  5
90
330
17
100
AcDbEntity
  8
0
100
AcDbLine
 10
100.147628
 20
-68.57390400000007
 30
0.0
 11
100.055426
 21
-68.54469400000006
 31
0.0
  0
LINE
  5
91
330
17
100
AcDbEntity
  8
0
100
AcDbLine
 10
100.055426
 20
-68.54469400000006
 30
0.0
 11
99.966272
 21
-68.50837200000008
 31
0.0
  0
LINE
  5
92
330
17
100
AcDbEntity
  8
0
100
AcDbLine
 10
99.966272
 20
-68.50837200000008
 30
0.0
 11
99.880674
 21
-68.46519200000007
 31
0.0
  0
LINE
  5
93
330
17
100
AcDbEntity
  8
0
100
AcDbLine
 10
99.880674
 20
-68.46519200000007
 30
0.0
 11
99.79914
 21
-68.41566200000007
 31
0.0
  0
LINE
  5
94
330
17
100
AcDbEntity
  8
0
100
AcDbLine
 10
99.79914
 20
-68.41566200000007
 30
0.0
 11
99.72166999999999
 21
-68.36003600000008
 31
0.0
  0
LINE
  5
95
330
17
100
AcDbEntity
  8
0
100
AcDbLine
 10
99.72166999999999
 20
-68.36003600000008
 30
0.0
 11
99.648772
 21
-68.29831400000008
 31
0.0
  0
LINE
  5
96
330
17
100
AcDbEntity
  8
0
100
AcDbLine
 10
99.648772
 20
-68.29831400000008
 30
0.0
 11
99.58095399999999
 21
-68.23100400000008
 31
0.0
  0
LINE
  5
97
330
17
100
AcDbEntity
  8
0
100
AcDbLine
 10
99.58095399999999
 20
-68.23100400000008
 30
0.0
 11
99.51847000000001
 21
-68.15836000000009
 31
0.0
  0
LINE
  5
98
330
17
100
AcDbEntity
  8
0
100
AcDbLine
 10
99.51847000000001
 20
-68.15836000000009
 30
0.0
 11
99.461828
 21
-68.08063600000008
 31
0.0
  0
LINE
  5
99
330
17
100
AcDbEntity
  8
0
100
AcDbLine
 10
99.461828
 20
-68.08063600000008
 30
0.0
 11
99.411282
 21
-67.99834000000008
 31
0.0
  0
LINE
  5
9A
330
17
100
AcDbEntity
  8
0
100
AcDbLine
 10
99.411282
 20
-67.99834000000008
 30
0.0
 11
99.367086
 21
-67.91147200000009
 31
0.0
  0
LINE
  5
9B
330
17
100
AcDbEntity
  8
0
100
AcDbLine
 10
99.367086
 20
-67.91147200000009
 30
0.0
 11
99.32974800000001
 21
-67.8202860000001
 31
0.0
  0
LINE
  5
9C
330
17
100
AcDbEntity
  8
0
100
AcDbLine
 10
99.32974800000001
 20
-67.8202860000001
 30
0.0
 11
98.508058
 21
-64.82969000000008
 31
0.0
  0
LINE
  5
9D
330
17
100
AcDbEntity
  8
0
100
AcDbLine
 10
38.007036
 20
-65.33235600000009
 30
0.0
 11
38.007036
 21
-71.78421000000009
 31
0.0
  0
LINE
  5
9E
330
17
100
AcDbEntity
  8
0
100
AcDbLine
 10
38.007036
 20
-71.78421000000009
 30
0.0
 11
65.183766
 21
-72.6328240000001
 31
0.0
  0
LINE
  5
9F
330
17
100
AcDbEntity
  8
0
100
AcDbLine
 10
65.183766
 20
-72.6328240000001
 30
0.0
 11
65.698116
 21
-72.71232600000009
 31
0.0
  0
LINE
  5
A0
330
17
100
AcDbEntity
  8
0
100
AcDbLine
 10
65.698116
 20
-72.71232600000009
 30
0.0
 11
66.185542
 21
-72.84440600000008
 31
0.0
  0
LINE
  5
A1
330
17
100
AcDbEntity
  8
0
100
AcDbLine
 10
66.185542
 20
-72.84440600000008
 30
0.0
 11
66.64553599999999
 21
-73.02220600000008
 31
0.0
  0
LINE
  5
A2
330
17
100
AcDbEntity
  8
0
100
AcDbLine
 10
66.64553599999999
 20
-73.02220600000008
 30
0.0
 11
67.07784399999998
 21
-73.23861400000007
 31
0.0
  0
LINE
  5
A3
330
17
100
AcDbEntity
  8
0
100
AcDbLine
 10
67.07784399999998
 20
-73.23861400000007
 30
0.0
 11
67.48221199999999
 21
-73.48677200000007
 31
0.0
  0
LINE
  5
A4
330
17
100
AcDbEntity
  8
0
100
AcDbLine
 10
67.48221199999999
 20
-73.48677200000007
 30
0.0
 11
68.20611199999999
 21
-74.05090600000007
 31
0.0
  0
LINE
  5
A5
330
17
100
AcDbEntity
  8
0
100
AcDbLine
 10
68.20611199999999
 20
-74.05090600000007
 30
0.0
 11
68.81495
 21
-74.65923600000006
 31
0.0
  0
LINE
  5
A6
330
17
100
AcDbEntity
  8
0
100
AcDbLine
 10
68.81495
 20
-74.65923600000006
 30
0.0
 11
69.30644
 21
-75.25639000000007
 31
0.0
  0
LINE
  5
A7
330
17
100
AcDbEntity
  8
0
100
AcDbLine
 10
69.30644
 20
-75.25639000000007
 30
0.0
 11
69.968364
 21
-76.25486400000005
 31
0.0
  0
LINE
  5
A8
330
17
100
AcDbEntity
  8
0
100
AcDbLine
 10
69.968364
 20
-76.25486400000005
 30
0.0
 11
70.01433799999998
 21
-76.30769600000006
 31
0.0
  0
LINE
  5
A9
330
17
100
AcDbEntity
  8
0
100
AcDbLine
 10
70.01433799999998
 20
-76.30769600000006
 30
0.0
 11
70.06615399999998
 21
-76.35367000000006
 31
0.0
  0
LINE
  5
AA
330
17
100
AcDbEntity
  8
0
100
AcDbLine
 10
70.06615399999998
 20
-76.35367000000006
 30
0.0
 11
70.12330399999999
 21
-76.39253200000007
 31
0.0
  0
LINE
  5
AB
330
17
100
AcDbEntity
  8
0
100
AcDbLine
 10
70.12330399999999
 20
-76.39253200000007
 30
0.0
 11
70.185026
 21
-76.42402800000008
 31
0.0
  0
LINE
  5
AC
330
17
100
AcDbEntity
  8
0
100
AcDbLine
 10
70.185026
 20
-76.42402800000008
 30
0.0
 11
70.25030399999999
 21
-76.44765000000008
 31
0.0
  0
LINE
  5
AD
330
17
100
AcDbEntity
  8
0
100
AcDbLine
 10
70.25030399999999
 20
-76.44765000000008
 30
0.0
 11
70.31863
 21
-76.46289000000007
 31
0.0
  0
LINE
  5
AE
330
17
100
AcDbEntity
  8
0
100
AcDbLine
 10
70.31863
 20
-76.46289000000007
 30
0.0
 11
92.954602
 21
-77.17231200000008
 31
0.0
  0
LINE
  5
AF
330
17
100
AcDbEntity
  8
0
100
AcDbLine
 10
92.954602
 20
-77.17231200000008
 30
0.0
 11
92.75851399999999
 21
-77.09839800000009
 31
0.0
  0
LINE
  5
B0
330
17
100
AcDbEntity
  8
0
100
AcDbLine
 10
92.75851399999999
 20
-77.09839800000009
 30
0.0
 11
92.57233199999999
 21
-77.01280000000008
 31
0.0
  0
LINE
  5
B1
330
17
100
AcDbEntity
  8
0
100
AcDbLine
 10
92.57233199999999
 20
-77.01280000000008
 30
0.0
 11
92.39580199999999
 21
-76.91628000000009
 31
0.0
  0
LINE
  5
B2
330
17
100
AcDbEntity
  8
0
100
AcDbLine
 10
92.39580199999999
 20
-76.91628000000009
 30
0.0
 11
92.07271399999999
 21
-76.69225200000008
 31
0.0
  0
LINE
  5
B3
330
17
100
AcDbEntity
  8
0
100
AcDbLine
 10
92.07271399999999
 20
-76.69225200000008
 30
0.0
 11
91.788742
 21
-76.43114000000008
 31
0.0
  0
LINE
  5
B4
330
17
100
AcDbEntity
  8
0
100
AcDbLine
 10
91.788742
 20
-76.43114000000008
 30
0.0
 11
91.54414
 21
-76.13777000000009
 31
0.0
  0
LINE
  5
B5
330
17
100
AcDbEntity
  8
0
100
AcDbLine
 10
91.54414
 20
-76.13777000000009
 30
0.0
 11
91.33865399999999
 21
-75.81696800000009
 31
0.0
  0
LINE
  5
B6
330
17
100
AcDbEntity
  8
0
100
AcDbLine
 10
91.33865399999999
 20
-75.81696800000009
 30
0.0
 11
91.17253799999999
 21
-75.4735600000001
 31
0.0
  0
LINE
  5
B7
330
17
100
AcDbEntity
  8
0
100
AcDbLine
 10
91.17253799999999
 20
-75.4735600000001
 30
0.0
 11
91.045538
 21
-75.1121180000001
 31
0.0
  0
LINE
  5
B8
330
17
100
AcDbEntity
  8
0
100
AcDbLine
 10
91.045538
 20
-75.1121180000001
 30
0.0
 11
90.95790799999997
 21
-74.73746800000009
 31
0.0
  0
LINE
  5
B9
330
17
100
AcDbEntity
  8
0
100
AcDbLine
 10
90.95790799999997
 20
-74.73746800000009
 30
0.0
 11
90.90964799999998
 21
-74.35443600000009
 31
0.0
  0
LINE
  5
BA
330
17
100
AcDbEntity
  8
0
100
AcDbLine
 10
90.90964799999998
 20
-74.35443600000009
 30
0.0
 11
90.90050399999998
 21
-73.96810200000009
 31
0.0
  0
LINE
  5
BB
330
17
100
AcDbEntity
  8
0
100
AcDbLine
 10
90.90050399999998
 20
-73.96810200000009
 30
0.0
 11
90.93072999999998
 21
-73.58278400000009
 31
0.0
  0
LINE
  5
BC
330
17
100
AcDbEntity
  8
0
100
AcDbLine
 10
90.93072999999998
 20
-73.58278400000009
 30
0.0
 11
91.00007199999999
 21
-73.20356200000009
 31
0.0
  0
LINE
  5
BD
330
17
100
AcDbEntity
  8
0
100
AcDbLine
 10
91.00007199999999
 20
-73.20356200000009
 30
0.0
 11
91.10853
 21
-72.8352620000001
 31
0.0
  0
LINE
  5
BE
330
17
100
AcDbEntity
  8
0
100
AcDbLine
 10
91.10853
 20
-72.8352620000001
 30
0.0
 11
91.25635799999999
 21
-72.4824560000001
 31
0.0
  0
LINE
  5
BF
330
17
100
AcDbEntity
  8
0
100
AcDbLine
 10
91.25635799999999
 20
-72.4824560000001
 30
0.0
 11
91.44330199999999
 21
-72.1499700000001
 31
0.0
  0
LINE
  5
C0
330
17
100
AcDbEntity
  8
0
100
AcDbLine
 10
91.44330199999999
 20
-72.1499700000001
 30
0.0
 11
91.55150599999999
 21
-71.99299800000009
 31
0.0
  0
LINE
  5
C1
330
17
100
AcDbEntity
  8
0
100
AcDbLine
 10
91.55150599999999
 20
-71.99299800000009
 30
0.0
 11
77.40751599999999
 21
-71.7951320000001
 31
0.0
  0
LINE
  5
C2
330
17
100
AcDbEntity
  8
0
100
AcDbLine
 10
77.40751599999999
 20
-71.7951320000001
 30
0.0
 11
77.247496
 21
-71.7732880000001
 31
0.0
  0
LINE
  5
C3
330
17
100
AcDbEntity
  8
0
100
AcDbLine
 10
77.247496
 20
-71.7732880000001
 30
0.0
 11
77.091286
 21
-71.73874400000008
 31
0.0
  0
LINE
  5
C4
330
17
100
AcDbEntity
  8
0
100
AcDbLine
 10
77.091286
 20
-71.73874400000008
 30
0.0
 11
76.939394
 21
-71.69200800000007
 31
0.0
  0
LINE
  5
C5
330
17
100
AcDbEntity
  8
0
100
AcDbLine
 10
76.939394
 20
-71.69200800000007
 30
0.0
 11
76.792836
 21
-71.63384200000007
 31
0.0
  0
LINE
  5
C6
330
17
100
AcDbEntity
  8
0
100
AcDbLine
 10
76.792836
 20
-71.63384200000007
 30
0.0
 11
76.65186599999998
 21
-71.56424600000008
 31
0.0
  0
LINE
  5
C7
330
17
100
AcDbEntity
  8
0
100
AcDbLine
 10
76.65186599999998
 20
-71.56424600000008
 30
0.0
 11
76.51724599999999
 21
-71.48398200000008
 31
0.0
  0
LINE
  5
C8
330
17
100
AcDbEntity
  8
0
100
AcDbLine
 10
76.51724599999999
 20
-71.48398200000008
 30
0.0
 11
76.389484
 21
-71.39355800000008
 31
0.0
  0
LINE
  5
C9
330
17
100
AcDbEntity
  8
0
100
AcDbLine
 10
76.389484
 20
-71.39355800000008
 30
0.0
 11
76.269088
 21
-71.29348200000008
 31
0.0
  0
LINE
  5
CA
330
17
100
AcDbEntity
  8
0
100
AcDbLine
 10
76.269088
 20
-71.29348200000008
 30
0.0
 11
76.15707400000001
 21
-71.18400800000009
 31
0.0
  0
LINE
  5
CB
330
17
100
AcDbEntity
  8
0
100
AcDbLine
 10
76.15707400000001
 20
-71.18400800000009
 30
0.0
 11
76.05369600000002
 21
-71.06564400000009
 31
0.0
  0
LINE
  5
CC
330
17
100
AcDbEntity
  8
0
100
AcDbLine
 10
76.05369600000002
 20
-71.06564400000009
 30
0.0
 11
75.95971600000001
 21
-70.93889800000008
 31
0.0
  0
LINE
  5
CD
330
17
100
AcDbEntity
  8
0
100
AcDbLine
 10
75.95971600000001
 20
-70.93889800000008
 30
0.0
 11
75.87538800000002
 21
-70.8042780000001
 31
0.0
  0
LINE
  5
CE
330
17
100
AcDbEntity
  8
0
100
AcDbLine
 10
75.87538800000002
 20
-70.8042780000001
 30
0.0
 11
75.80172800000001
 21
-70.66229200000008
 31
0.0
  0
LINE
  5
CF
330
17
100
AcDbEntity
  8
0
100
AcDbLine
 10
75.80172800000001
 20
-70.66229200000008
 30
0.0
 11
75.73924400000001
 21
-70.51319400000008
 31
0.0
  0
LINE
  5
D0
330
17
100
AcDbEntity
  8
0
100
AcDbLine
 10
75.73924400000001
 20
-70.51319400000008
 30
0.0
 11
75.03210800000001
 21
-68.01713600000008
 31
0.0
  0
LINE
  5
D1
330
17
100
AcDbEntity
  8
0
100
AcDbLine
 10
75.03210800000001
 20
-68.01713600000008
 30
0.0
 11
75.01331200000001
 21
-67.89572400000009
 31
0.0
  0
LINE
  5
D2
330
17
100
AcDbEntity
  8
0
100
AcDbLine
 10
75.01331200000001
 20
-67.89572400000009
 30
0.0
 11
75.00391400000001
 21
-66.13118600000008
 31
0.0
  0
LINE
  5
D3
330
17
100
AcDbEntity
  8
0
100
AcDbLine
 10
75.00391400000001
 20
-66.13118600000008
 30
0.0
 11
74.986388
 21
-66.02323600000008
 31
0.0
  0
LINE
  5
D4
330
17
100
AcDbEntity
  8
0
100
AcDbLine
 10
74.986388
 20
-66.02323600000008
 30
0.0
 11
74.95743200000001
 21
-65.92366800000008
 31
0.0
  0
LINE
  5
D5
330
17
100
AcDbEntity
  8
0
100
AcDbLine
 10
74.95743200000001
 20
-65.92366800000008
 30
0.0
 11
74.91806200000002
 21
-65.83248200000008
 31
0.0
  0
LINE
  5
D6
330
17
100
AcDbEntity
  8
0
100
AcDbLine
 10
74.91806200000002
 20
-65.83248200000008
 30
0.0
 11
74.86904000000003
 21
-65.74917000000009
 31
0.0
  0
LINE
  5
D7
330
17
100
AcDbEntity
  8
0
100
AcDbLine
 10
74.86904000000003
 20
-65.74917000000009
 30
0.0
 11
74.81062000000003
 21
-65.6739860000001
 31
0.0
  0
LINE
  5
D8
330
17
100
AcDbEntity
  8
0
100
AcDbLine
 10
74.81062000000003
 20
-65.6739860000001
 30
0.0
 11
74.74331000000002
 21
-65.60667600000009
 31
0.0
  0
LINE
  5
D9
330
17
100
AcDbEntity
  8
0
100
AcDbLine
 10
74.74331000000002
 20
-65.60667600000009
 30
0.0
 11
74.66787200000002
 21
-65.54698600000009
 31
0.0
  0
LINE
  5
DA
330
17
100
AcDbEntity
  8
0
100
AcDbLine
 10
74.66787200000002
 20
-65.54698600000009
 30
0.0
 11
74.58506800000002
 21
-65.4949160000001
 31
0.0
  0
LINE
  5
DB
330
17
100
AcDbEntity
  8
0
100
AcDbLine
 10
74.58506800000002
 20
-65.4949160000001
 30
0.0
 11
74.49515200000002
 21
-65.4502120000001
 31
0.0
  0
LINE
  5
DC
330
17
100
AcDbEntity
  8
0
100
AcDbLine
 10
74.49515200000002
 20
-65.4502120000001
 30
0.0
 11
74.39888600000002
 21
-65.4128740000001
 31
0.0
  0
LINE
  5
DD
330
17
100
AcDbEntity
  8
0
100
AcDbLine
 10
74.39888600000002
 20
-65.4128740000001
 30
0.0
 11
74.29703200000002
 21
-65.3826480000001
 31
0.0
  0
LINE
  5
DE
330
17
100
AcDbEntity
  8
0
100
AcDbLine
 10
74.29703200000002
 20
-65.3826480000001
 30
0.0
 11
74.07833800000002
 21
-65.3435320000001
 31
0.0
  0
LINE
  5
DF
330
17
100
AcDbEntity
  8
0
100
AcDbLine
 10
74.07833800000002
 20
-65.3435320000001
 30
0.0
 11
38.00678200000001
 21
-65.3318480000001
 31
0.0
  0
LINE
  5
E0
330
17
100
AcDbEntity
  8
0
100
AcDbLine
 10
103.78033600000002
 20
-51.8767060000001
 30
0.0
 11
93.98965200000002
 21
-51.8767060000001
 31
0.0
  0
LINE
  5
E1
330
17
100
AcDbEntity
  8
0
100
AcDbLine
 10
93.98965200000002
 20
-51.8767060000001
 30
0.0
 11
92.65158000000002
 21
-51.284378000000096
 31
0.0
  0
LINE
  5
E2
330
17
100
AcDbEntity
  8
0
100
AcDbLine
 10
92.65158000000002
 20
-51.284378000000096
 30
0.0
 11
91.25737400000003
 21
-50.8566420000001
 31
0.0
  0
LINE
  5
E3
330
17
100
AcDbEntity
  8
0
100
AcDbLine
 10
91.25737400000003
 20
-50.8566420000001
 30
0.0
 11
89.82252800000003
 21
-50.597308000000105
 31
0.0
  0
LINE
  5
E4
330
17
100
AcDbEntity
  8
0
100
AcDbLine
 10
89.82252800000003
 20
-50.597308000000105
 30
0.0
 11
34.25571000000003
 21
-50.518314000000096
 31
0.0
  0
LINE
  5
E5
330
17
100
AcDbEntity
  8
0
100
AcDbLine
 10
34.25571000000003
 20
-50.518314000000096
 30
0.0
 11
34.097468000000035
 21
-50.5421900000001
 31
0.0
  0
LINE
  5
E6
330
17
100
AcDbEntity
  8
0
100
AcDbLine
 10
34.097468000000035
 20
-50.5421900000001
 30
0.0
 11
33.94481400000004
 21
-50.5810520000001
 31
0.0
  0
LINE
  5
E7
330
17
100
AcDbEntity
  8
0
100
AcDbLine
 10
33.94481400000004
 20
-50.5810520000001
 30
0.0
 11
33.79825600000004
 21
-50.6341380000001
 31
0.0
  0
LINE
  5
E8
330
17
100
AcDbEntity
  8
0
100
AcDbLine
 10
33.79825600000004
 20
-50.6341380000001
 30
0.0
 11
33.65881000000003
 21
-50.7006860000001
 31
0.0
  0
LINE
  5
E9
330
17
100
AcDbEntity
  8
0
100
AcDbLine
 10
33.65881000000003
 20
-50.7006860000001
 30
0.0
 11
33.52723800000003
 21
-50.7799340000001
 31
0.0
  0
LINE
  5
EA
330
17
100
AcDbEntity
  8
0
100
AcDbLine
 10
33.52723800000003
 20
-50.7799340000001
 30
0.0
 11
33.40404800000003
 21
-50.871120000000104
 31
0.0
  0
LINE
  5
EB
330
17
100
AcDbEntity
  8
0
100
AcDbLine
 10
33.40404800000003
 20
-50.871120000000104
 30
0.0
 11
33.29025600000003
 21
-50.9732280000001
 31
0.0
  0
LINE
  5
EC
330
17
100
AcDbEntity
  8
0
100
AcDbLine
 10
33.29025600000003
 20
-50.9732280000001
 30
0.0
 11
33.18662400000003
 21
-51.085750000000104
 31
0.0
  0
LINE
  5
ED
330
17
100
AcDbEntity
  8
0
100
AcDbLine
 10
33.18662400000003
 20
-51.085750000000104
 30
0.0
 11
33.09391400000003
 21
-51.2076700000001
 31
0.0
  0
LINE
  5
EE
330
17
100
AcDbEntity
  8
0
100
AcDbLine
 10
33.09391400000003
 20
-51.2076700000001
 30
0.0
 11
33.01314200000002
 21
-51.3384800000001
 31
0.0
  0
LINE
  5
EF
330
17
100
AcDbEntity
  8
0
100
AcDbLine
 10
33.01314200000002
 20
-51.3384800000001
 30
0.0
 11
32.944816000000024
 21
-51.477164000000094
 31
0.0
  0
LINE
  5
F0
330
17
100
AcDbEntity
  8
0
100
AcDbLine
 10
32.944816000000024
 20
-51.477164000000094
 30
0.0
 11
32.88995200000002
 21
-51.6229600000001
 31
0.0
  0
LINE
  5
F1
330
17
100
AcDbEntity
  8
0
100
AcDbLine
 10
32.88995200000002
 20
-51.6229600000001
 30
0.0
 11
32.84905800000002
 21
-51.77510600000009
 31
0.0
  0
LINE
  5
F2
330
17
100
AcDbEntity
  8
0
100
AcDbLine
 10
32.84905800000002
 20
-51.77510600000009
 30
0.0
 11
32.82315000000002
 21
-51.9328400000001
 31
0.0
  0
LINE
  5
F3
330
17
100
AcDbEntity
  8
0
100
AcDbLine
 10
32.82315000000002
 20
-51.9328400000001
 30
0.0
 11
32.75253800000002
 21
-57.115202000000096
 31
0.0
  0
LINE
  5
F4
330
17
100
AcDbEntity
  8
0
100
AcDbLine
 10
32.75253800000002
 20
-57.115202000000096
 30
0.0
 11
93.82861600000003
 21
-57.2609980000001
 31
0.0
  0
LINE
  5
F5
330
17
100
AcDbEntity
  8
0
100
AcDbLine
 10
93.82861600000003
 20
-57.2609980000001
 30
0.0
 11
87.49512600000003
 21
-58.035952000000094
 31
0.0
  0
LINE
  5
F6
330
17
100
AcDbEntity
  8
0
100
AcDbLine
 10
87.49512600000003
 20
-58.035952000000094
 30
0.0
 11
32.741108000000025
 21
-58.055002000000094
 31
0.0
  0
LINE
  5
F7
330
17
100
AcDbEntity
  8
0
100
AcDbLine
 10
32.741108000000025
 20
-58.055002000000094
 30
0.0
 11
32.71672400000003
 21
-60.08471600000009
 31
0.0
  0
LINE
  5
F8
330
17
100
AcDbEntity
  8
0
100
AcDbLine
 10
32.71672400000003
 20
-60.08471600000009
 30
0.0
 11
32.98113800000002
 21
-60.064142000000096
 31
0.0
  0
LINE
  5
F9
330
17
100
AcDbEntity
  8
0
100
AcDbLine
 10
32.98113800000002
 20
-60.064142000000096
 30
0.0
 11
33.51479200000002
 21
-60.0783660000001
 31
0.0
  0
LINE
  5
FA
330
17
100
AcDbEntity
  8
0
100
AcDbLine
 10
33.51479200000002
 20
-60.0783660000001
 30
0.0
 11
34.370772000000024
 21
-60.2157800000001
 31
0.0
  0
LINE
  5
FB
330
17
100
AcDbEntity
  8
0
100
AcDbLine
 10
34.370772000000024
 20
-60.2157800000001
 30
0.0
 11
34.90264800000002
 21
-60.356750000000105
 31
0.0
  0
LINE
  5
FC
330
17
100
AcDbEntity
  8
0
100
AcDbLine
 10
34.90264800000002
 20
-60.356750000000105
 30
0.0
 11
35.15588600000003
 21
-60.4545400000001
 31
0.0
  0
LINE
  5
FD
330
17
100
AcDbEntity
  8
0
100
AcDbLine
 10
35.15588600000003
 20
-60.4545400000001
 30
0.0
 11
35.40506000000003
 21
-60.5777300000001
 31
0.0
  0
LINE
  5
FE
330
17
100
AcDbEntity
  8
0
100
AcDbLine
 10
35.40506000000003
 20
-60.5777300000001
 30
0.0
 11
35.65347200000003
 21
-60.7316540000001
 31
0.0
  0
LINE
  5
FF
330
17
100
AcDbEntity
  8
0
100
AcDbLine
 10
35.65347200000003
 20
-60.7316540000001
 30
0.0
 11
35.90467800000003
 21
-60.9216460000001
 31
0.0
  0
LINE
  5
100
330
17
100
AcDbEntity
  8
0
100
AcDbLine
 10
35.90467800000003
 20
-60.9216460000001
 30
0.0
 11
36.215320000000034
 21
-61.2089200000001
 31
0.0
  0
LINE
  5
101
330
17
100
AcDbEntity
  8
0
100
AcDbLine
 10
36.215320000000034
 20
-61.2089200000001
 30
0.0
 11
36.472876000000035
 21
-61.5116880000001
 31
0.0
  0
LINE
  5
102
330
17
100
AcDbEntity
  8
0
100
AcDbLine
 10
36.472876000000035
 20
-61.5116880000001
 30
0.0
 11
36.68064800000004
 21
-61.8307120000001
 31
0.0
  0
LINE
  5
103
330
17
100
AcDbEntity
  8
0
100
AcDbLine
 10
36.68064800000004
 20
-61.8307120000001
 30
0.0
 11
36.84143000000004
 21
-62.1670080000001
 31
0.0
  0
LINE
  5
104
330
17
100
AcDbEntity
  8
0
100
AcDbLine
 10
36.84143000000004
 20
-62.1670080000001
 30
0.0
 11
36.95827000000004
 21
-62.52133800000011
 31
0.0
  0
LINE
  5
105
330
17
100
AcDbEntity
  8
0
100
AcDbLine
 10
36.95827000000004
 20
-62.52133800000011
 30
0.0
 11
37.03421600000004
 21
-62.894464000000106
 31
0.0
  0
LINE
  5
106
330
17
100
AcDbEntity
  8
0
100
AcDbLine
 10
37.03421600000004
 20
-62.894464000000106
 30
0.0
 11
37.10940000000004
 21
-64.39458800000011
 31
0.0
  0
LINE
  5
107
330
17
100
AcDbEntity
  8
0
100
AcDbLine
 10
37.10940000000004
 20
-64.39458800000011
 30
0.0
 11
37.13505400000004
 21
-64.54165400000011
 31
0.0
  0
LINE
  5
108
330
17
100
AcDbEntity
  8
0
100
AcDbLine
 10
37.13505400000004
 20
-64.54165400000011
 30
0.0
 11
37.15131000000004
 21
-64.60109000000011
 31
0.0
  0
LINE
  5
109
330
17
100
AcDbEntity
  8
0
100
AcDbLine
 10
37.15131000000004
 20
-64.60109000000011
 30
0.0
 11
37.160454000000044
 21
-64.6262360000001
 31
0.0
  0
LINE
  5
10A
330
17
100
AcDbEntity
  8
0
100
AcDbLine
 10
37.160454000000044
 20
-64.6262360000001
 30
0.0
 11
37.17036000000004
 21
-64.64782600000011
 31
0.0
  0
LINE
  5
10B
330
17
100
AcDbEntity
  8
0
100
AcDbLine
 10
37.17036000000004
 20
-64.64782600000011
 30
0.0
 11
37.18102800000004
 21
-64.66560600000011
 31
0.0
  0
LINE
  5
10C
330
17
100
AcDbEntity
  8
0
100
AcDbLine
 10
37.18102800000004
 20
-64.66560600000011
 30
0.0
 11
37.186616000000036
 21
-64.6729720000001
 31
0.0
  0
LINE
  5
10D
330
17
100
AcDbEntity
  8
0
100
AcDbLine
 10
37.186616000000036
 20
-64.6729720000001
 30
0.0
 11
37.19245800000004
 21
-64.67932200000011
 31
0.0
  0
LINE
  5
10E
330
17
100
AcDbEntity
  8
0
100
AcDbLine
 10
37.19245800000004
 20
-64.67932200000011
 30
0.0
 11
37.19830000000003
 21
-64.6846560000001
 31
0.0
  0
LINE
  5
10F
330
17
100
AcDbEntity
  8
0
100
AcDbLine
 10
37.19830000000003
 20
-64.6846560000001
 30
0.0
 11
37.20439600000003
 21
-64.6889740000001
 31
0.0
  0
LINE
  5
110
330
17
100
AcDbEntity
  8
0
100
AcDbLine
 10
37.20439600000003
 20
-64.6889740000001
 30
0.0
 11
37.210746000000036
 21
-64.69202200000011
 31
0.0
  0
LINE
  5
111
330
17
100
AcDbEntity
  8
0
100
AcDbLine
 10
37.210746000000036
 20
-64.69202200000011
 30
0.0
 11
37.21735000000004
 21
-64.69380000000011
 31
0.0
  0
LINE
  5
112
330
17
100
AcDbEntity
  8
0
100
AcDbLine
 10
37.21735000000004
 20
-64.69380000000011
 30
0.0
 11
48.024034000000036
 21
-64.6544300000001
 31
0.0
  0
LINE
  5
113
330
17
100
AcDbEntity
  8
0
100
AcDbLine
 10
48.024034000000036
 20
-64.6544300000001
 30
0.0
 11
48.87010800000003
 21
-64.1710680000001
 31
0.0
  0
LINE
  5
114
330
17
100
AcDbEntity
  8
0
100
AcDbLine
 10
48.87010800000003
 20
-64.1710680000001
 30
0.0
 11
49.691798000000034
 21
-63.81369000000011
 31
0.0
  0
LINE
  5
115
330
17
100
AcDbEntity
  8
0
100
AcDbLine
 10
49.691798000000034
 20
-63.81369000000011
 30
0.0
 11
50.48529400000004
 21
-63.569342000000105
 31
0.0
  0
LINE
  5
116
330
17
100
AcDbEntity
  8
0
100
AcDbLine
 10
50.48529400000004
 20
-63.569342000000105
 30
0.0
 11
51.246024000000034
 21
-63.42481600000011
 31
0.0
  0
LINE
  5
117
330
17
100
AcDbEntity
  8
0
100
AcDbLine
 10
51.246024000000034
 20
-63.42481600000011
 30
0.0
 11
51.97017800000004
 21
-63.36690400000011
 31
0.0
  0
LINE
  5
118
330
17
100
AcDbEntity
  8
0
100
AcDbLine
 10
51.97017800000004
 20
-63.36690400000011
 30
0.0
 11
52.65318400000003
 21
-63.382652000000114
 31
0.0
  0
LINE
  5
119
330
17
100
AcDbEntity
  8
0
100
AcDbLine
 10
52.65318400000003
 20
-63.382652000000114
 30
0.0
 11
53.29097800000003
 21
-63.45910600000011
 31
0.0
  0
LINE
  5
11A
330
17
100
AcDbEntity
  8
0
100
AcDbLine
 10
53.29097800000003
 20
-63.45910600000011
 30
0.0
 11
53.87949600000004
 21
-63.58305800000011
 31
0.0
  0
LINE
  5
11B
330
17
100
AcDbEntity
  8
0
100
AcDbLine
 10
53.87949600000004
 20
-63.58305800000011
 30
0.0
 11
54.414420000000035
 21
-63.74130000000011
 31
0.0
  0
LINE
  5
11C
330
17
100
AcDbEntity
  8
0
100
AcDbLine
 10
54.414420000000035
 20
-63.74130000000011
 30
0.0
 11
55.306976000000034
 21
-64.1088380000001
 31
0.0
  0
LINE
  5
11D
330
17
100
AcDbEntity
  8
0
100
AcDbLine
 10
55.306976000000034
 20
-64.1088380000001
 30
0.0
 11
55.93511800000004
 21
-64.45707200000011
 31
0.0
  0
LINE
  5
11E
330
17
100
AcDbEntity
  8
0
100
AcDbLine
 10
55.93511800000004
 20
-64.45707200000011
 30
0.0
 11
56.30799000000004
 21
-64.7143740000001
 31
0.0
  0
LINE
  5
11F
330
17
100
AcDbEntity
  8
0
100
AcDbLine
 10
56.30799000000004
 20
-64.7143740000001
 30
0.0
 11
86.41969000000003
 21
-64.56095800000011
 31
0.0
  0
LINE
  5
120
330
17
100
AcDbEntity
  8
0
100
AcDbLine
 10
86.41969000000003
 20
-64.56095800000011
 30
0.0
 11
86.47125200000002
 21
-64.5528300000001
 31
0.0
  0
LINE
  5
121
330
17
100
AcDbEntity
  8
0
100
AcDbLine
 10
86.47125200000002
 20
-64.5528300000001
 30
0.0
 11
86.52078200000003
 21
-64.5398760000001
 31
0.0
  0
LINE
  5
122
330
17
100
AcDbEntity
  8
0
100
AcDbLine
 10
86.52078200000003
 20
-64.5398760000001
 30
0.0
 11
86.56828000000003
 21
-64.52235000000012
 31
0.0
  0
LINE
  5
123
330
17
100
AcDbEntity
  8
0
100
AcDbLine
 10
86.56828000000003
 20
-64.52235000000012
 30
0.0
 11
86.61349200000002
 21
-64.5005060000001
 31
0.0
  0
LINE
  5
124
330
17
100
AcDbEntity
  8
0
100
AcDbLine
 10
86.61349200000002
 20
-64.5005060000001
 30
0.0
 11
86.65616400000003
 21
-64.4743440000001
 31
0.0
  0
LINE
  5
125
330
17
100
AcDbEntity
  8
0
100
AcDbLine
 10
86.65616400000003
 20
-64.4743440000001
 30
0.0
 11
86.69604200000002
 21
-64.4443720000001
 31
0.0
  0
LINE
  5
126
330
17
100
AcDbEntity
  8
0
100
AcDbLine
 10
86.69604200000002
 20
-64.4443720000001
 30
0.0
 11
86.73287200000001
 21
-64.41084400000011
 31
0.0
  0
LINE
  5
127
330
17
100
AcDbEntity
  8
0
100
AcDbLine
 10
86.73287200000001
 20
-64.41084400000011
 30
0.0
 11
86.76640000000002
 21
-64.3740140000001
 31
0.0
  0
LINE
  5
128
330
17
100
AcDbEntity
  8
0
100
AcDbLine
 10
86.76640000000002
 20
-64.3740140000001
 30
0.0
 11
86.79611800000002
 21
-64.3341360000001
 31
0.0
  0
LINE
  5
129
330
17
100
AcDbEntity
  8
0
100
AcDbLine
 10
86.79611800000002
 20
-64.3341360000001
 30
0.0
 11
86.82202600000002
 21
-64.2914640000001
 31
0.0
  0
LINE
  5
12A
330
17
100
AcDbEntity
  8
0
100
AcDbLine
 10
86.82202600000002
 20
-64.2914640000001
 30
0.0
 11
86.84387000000002
 21
-64.2459980000001
 31
0.0
  0
LINE
  5
12B
330
17
100
AcDbEntity
  8
0
100
AcDbLine
 10
86.84387000000002
 20
-64.2459980000001
 30
0.0
 11
86.86114200000002
 21
-64.1982460000001
 31
0.0
  0
LINE
  5
12C
330
17
100
AcDbEntity
  8
0
100
AcDbLine
 10
86.86114200000002
 20
-64.1982460000001
 30
0.0
 11
86.87384200000002
 21
-64.1484620000001
 31
0.0
  0
LINE
  5
12D
330
17
100
AcDbEntity
  8
0
100
AcDbLine
 10
86.87384200000002
 20
-64.1484620000001
 30
0.0
 11
86.88171600000003
 21
-64.0969000000001
 31
0.0
  0
LINE
  5
12E
330
17
100
AcDbEntity
  8
0
100
AcDbLine
 10
86.88171600000003
 20
-64.0969000000001
 30
0.0
 11
86.88451000000003
 21
-63.628524000000105
 31
0.0
  0
LINE
  5
12F
330
17
100
AcDbEntity
  8
0
100
AcDbLine
 10
86.88451000000003
 20
-63.628524000000105
 30
0.0
 11
97.53269800000002
 21
-63.5673100000001
 31
0.0
  0
LINE
  5
130
330
17
100
AcDbEntity
  8
0
100
AcDbLine
 10
97.53269800000002
 20
-63.5673100000001
 30
0.0
 11
97.53625400000003
 21
-63.9485640000001
 31
0.0
  0
LINE
  5
131
330
17
100
AcDbEntity
  8
0
100
AcDbLine
 10
97.53625400000003
 20
-63.9485640000001
 30
0.0
 11
97.54717600000002
 21
-64.0191760000001
 31
0.0
  0
LINE
  5
132
330
17
100
AcDbEntity
  8
0
100
AcDbLine
 10
97.54717600000002
 20
-64.0191760000001
 30
0.0
 11
97.56470200000003
 21
-64.0875020000001
 31
0.0
  0
LINE
  5
133
330
17
100
AcDbEntity
  8
0
100
AcDbLine
 10
97.56470200000003
 20
-64.0875020000001
 30
0.0
 11
97.58857800000003
 21
-64.1527800000001
 31
0.0
  0
LINE
  5
134
330
17
100
AcDbEntity
  8
0
100
AcDbLine
 10
97.58857800000003
 20
-64.1527800000001
 30
0.0
 11
97.61855000000003
 21
-64.2150100000001
 31
0.0
  0
LINE
  5
135
330
17
100
AcDbEntity
  8
0
100
AcDbLine
 10
97.61855000000003
 20
-64.2150100000001
 30
0.0
 11
97.65436400000003
 21
-64.2736840000001
 31
0.0
  0
LINE
  5
136
330
17
100
AcDbEntity
  8
0
100
AcDbLine
 10
97.65436400000003
 20
-64.2736840000001
 30
0.0
 11
97.69551200000002
 21
-64.3285480000001
 31
0.0
  0
LINE
  5
137
330
17
100
AcDbEntity
  8
0
100
AcDbLine
 10
97.69551200000002
 20
-64.3285480000001
 30
0.0
 11
97.74148600000002
 21
-64.37909400000011
 31
0.0
  0
LINE
  5
138
330
17
100
AcDbEntity
  8
0
100
AcDbLine
 10
97.74148600000002
 20
-64.37909400000011
 30
0.0
 11
97.79203200000002
 21
-64.42506800000011
 31
0.0
  0
LINE
  5
139
330
17
100
AcDbEntity
  8
0
100
AcDbLine
 10
97.79203200000002
 20
-64.42506800000011
 30
0.0
 11
97.84689600000003
 21
-64.4659620000001
 31
0.0
  0
LINE
  5
13A
330
17
100
AcDbEntity
  8
0
100
AcDbLine
 10
97.84689600000003
 20
-64.4659620000001
 30
0.0
 11
97.90557000000003
 21
-64.50152200000011
 31
0.0
  0
LINE
  5
13B
330
17
100
AcDbEntity
  8
0
100
AcDbLine
 10
97.90557000000003
 20
-64.50152200000011
 30
0.0
 11
97.96780000000003
 21
-64.5312400000001
 31
0.0
  0
LINE
  5
13C
330
17
100
AcDbEntity
  8
0
100
AcDbLine
 10
97.96780000000003
 20
-64.5312400000001
 30
0.0
 11
98.03333200000002
 21
-64.5551160000001
 31
0.0
  0
LINE
  5
13D
330
17
100
AcDbEntity
  8
0
100
AcDbLine
 10
98.03333200000002
 20
-64.5551160000001
 30
0.0
 11
98.10165800000003
 21
-64.5723880000001
 31
0.0
  0
LINE
  5
13E
330
17
100
AcDbEntity
  8
0
100
AcDbLine
 10
98.10165800000003
 20
-64.5723880000001
 30
0.0
 11
98.17252400000002
 21
-64.5830560000001
 31
0.0
  0
LINE
  5
13F
330
17
100
AcDbEntity
  8
0
100
AcDbLine
 10
98.17252400000002
 20
-64.5830560000001
 30
0.0
 11
108.62411600000003
 21
-64.6292840000001
 31
0.0
  0
LINE
  5
140
330
17
100
AcDbEntity
  8
0
100
AcDbLine
 10
108.62411600000003
 20
-64.6292840000001
 30
0.0
 11
103.77906600000003
 21
-51.8764520000001
 31
0.0
  0
LINE
  5
141
330
17
100
AcDbEntity
  8
0
100
AcDbLine
 10
137.29004800000004
 20
-57.4746120000001
 30
0.0
 11
135.28852800000004
 21
-51.7733280000001
 31
0.0
  0
LINE
  5
142
330
17
100
AcDbEntity
  8
0
100
AcDbLine
 10
135.28852800000004
 20
-51.7733280000001
 30
0.0
 11
137.90752200000006
 21
-51.781710000000096
 31
0.0
  0
LINE
  5
143
330
17
100
AcDbEntity
  8
0
100
AcDbLine
 10
137.90752200000006
 20
-51.781710000000096
 30
0.0
 11
138.13358200000005
 21
-51.8066020000001
 31
0.0
  0
LINE
  5
144
330
17
100
AcDbEntity
  8
0
100
AcDbLine
 10
138.13358200000005
 20
-51.8066020000001
 30
0.0
 11
138.35532400000005
 21
-51.847750000000104
 31
0.0
  0
LINE
  5
145
330
17
100
AcDbEntity
  8
0
100
AcDbLine
 10
138.35532400000005
 20
-51.847750000000104
 30
0.0
 11
138.57224000000008
 21
-51.90439200000011
 31
0.0
  0
LINE
  5
146
330
17
100
AcDbEntity
  8
0
100
AcDbLine
 10
138.57224000000008
 20
-51.90439200000011
 30
0.0
 11
138.78331400000008
 21
-51.9762740000001
 31
0.0
  0
LINE
  5
147
330
17
100
AcDbEntity
  8
0
100
AcDbLine
 10
138.78331400000008
 20
-51.9762740000001
 30
0.0
 11
138.9880380000001
 21
-52.0626340000001
 31
0.0
  0
LINE
  5
148
330
17
100
AcDbEntity
  8
0
100
AcDbLine
 10
138.9880380000001
 20
-52.0626340000001
 30
0.0
 11
139.1856500000001
 21
-52.1632180000001
 31
0.0
  0
LINE
  5
149
330
17
100
AcDbEntity
  8
0
100
AcDbLine
 10
139.1856500000001
 20
-52.1632180000001
 30
0.0
 11
139.37538800000007
 21
-52.27751800000009
 31
0.0
  0
LINE
  5
14A
330
17
100
AcDbEntity
  8
0
100
AcDbLine
 10
139.37538800000007
 20
-52.27751800000009
 30
0.0
 11
139.55649000000008
 21
-52.4050260000001
 31
0.0
  0
LINE
  5
14B
330
17
100
AcDbEntity
  8
0
100
AcDbLine
 10
139.55649000000008
 20
-52.4050260000001
 30
0.0
 11
139.7281940000001
 21
-52.5452340000001
 31
0.0
  0
LINE
  5
14C
330
17
100
AcDbEntity
  8
0
100
AcDbLine
 10
139.7281940000001
 20
-52.5452340000001
 30
0.0
 11
139.88999200000006
 21
-52.6978880000001
 31
0.0
  0
LINE
  5
14D
330
17
100
AcDbEntity
  8
0
100
AcDbLine
 10
139.88999200000006
 20
-52.6978880000001
 30
0.0
 11
140.04086800000007
 21
-52.86222600000009
 31
0.0
  0
LINE
  5
14E
330
17
100
AcDbEntity
  8
0
100
AcDbLine
 10
140.04086800000007
 20
-52.86222600000009
 30
0.0
 11
140.18031400000007
 21
-53.03774000000009
 31
0.0
  0
LINE
  5
14F
330
17
100
AcDbEntity
  8
0
100
AcDbLine
 10
140.18031400000007
 20
-53.03774000000009
 30
0.0
 11
140.30731400000008
 21
-53.2241760000001
 31
0.0
  0
LINE
  5
150
330
17
100
AcDbEntity
  8
0
100
AcDbLine
 10
140.30731400000008
 20
-53.2241760000001
 30
0.0
 11
140.42136000000008
 21
-53.4207720000001
 31
0.0
  0
LINE
  5
151
330
17
100
AcDbEntity
  8
0
100
AcDbLine
 10
140.42136000000008
 20
-53.4207720000001
 30
0.0
 11
141.69923400000005
 21
-56.319166000000095
 31
0.0
  0
LINE
  5
152
330
17
100
AcDbEntity
  8
0
100
AcDbLine
 10
141.69923400000005
 20
-56.319166000000095
 30
0.0
 11
141.72488800000005
 21
-56.432450000000095
 31
0.0
  0
LINE
  5
153
330
17
100
AcDbEntity
  8
0
100
AcDbLine
 10
141.72488800000005
 20
-56.432450000000095
 30
0.0
 11
141.73555600000006
 21
-56.54522600000009
 31
0.0
  0
LINE
  5
154
330
17
100
AcDbEntity
  8
0
100
AcDbLine
 10
141.73555600000006
 20
-56.54522600000009
 30
0.0
 11
141.73174600000007
 21
-56.65647800000009
 31
0.0
  0
LINE
  5
155
330
17
100
AcDbEntity
  8
0
100
AcDbLine
 10
141.73174600000007
 20
-56.65647800000009
 30
0.0
 11
141.71447400000008
 21
-56.76519000000009
 31
0.0
  0
LINE
  5
156
330
17
100
AcDbEntity
  8
0
100
AcDbLine
 10
141.71447400000008
 20
-56.76519000000009
 30
0.0
 11
141.68424800000005
 21
-56.87009200000009
 31
0.0
  0
LINE
  5
157
330
17
100
AcDbEntity
  8
0
100
AcDbLine
 10
141.68424800000005
 20
-56.87009200000009
 30
0.0
 11
141.64183000000006
 21
-56.97016800000009
 31
0.0
  0
LINE
  5
158
330
17
100
AcDbEntity
  8
0
100
AcDbLine
 10
141.64183000000006
 20
-56.97016800000009
 30
0.0
 11
141.58798200000007
 21
-57.0644020000001
 31
0.0
  0
LINE
  5
159
330
17
100
AcDbEntity
  8
0
100
AcDbLine
 10
141.58798200000007
 20
-57.0644020000001
 30
0.0
 11
141.52346600000004
 21
-57.151524000000094
 31
0.0
  0
LINE
  5
15A
330
17
100
AcDbEntity
  8
0
100
AcDbLine
 10
141.52346600000004
 20
-57.151524000000094
 30
0.0
 11
141.44904400000004
 21
-57.230518000000096
 31
0.0
  0
LINE
  5
15B
330
17
100
AcDbEntity
  8
0
100
AcDbLine
 10
141.44904400000004
 20
-57.230518000000096
 30
0.0
 11
141.36522400000004
 21
-57.3003680000001
 31
0.0
  0
LINE
  5
15C
330
17
100
AcDbEntity
  8
0
100
AcDbLine
 10
141.36522400000004
 20
-57.3003680000001
 30
0.0
 11
141.27276800000004
 21
-57.3600580000001
 31
0.0
  0
LINE
  5
15D
330
17
100
AcDbEntity
  8
0
100
AcDbLine
 10
141.27276800000004
 20
-57.3600580000001
 30
0.0
 11
141.17243800000003
 21
-57.4083180000001
 31
0.0
  0
LINE
  5
15E
330
17
100
AcDbEntity
  8
0
100
AcDbLine
 10
141.17243800000003
 20
-57.4083180000001
 30
0.0
 11
141.06499600000004
 21
-57.444132000000096
 31
0.0
  0
LINE
  5
15F
330
17
100
AcDbEntity
  8
0
100
AcDbLine
 10
141.06499600000004
 20
-57.444132000000096
 30
0.0
 11
140.95095000000003
 21
-57.466484000000094
 31
0.0
  0
LINE
  5
160
330
17
100
AcDbEntity
  8
0
100
AcDbLine
 10
140.95095000000003
 20
-57.466484000000094
 30
0.0
 11
137.28979400000006
 21
-57.4741040000001
 31
0.0
  0
LINE
  5
161
330
17
100
AcDbEntity
  8
0
100
AcDbLine
 10
143.34667800000005
 20
-75.0069620000001
 30
0.0
 11
143.17497400000005
 21
-74.4834680000001
 31
0.0
  0
LINE
  5
162
330
17
100
AcDbEntity
  8
0
100
AcDbLine
 10
143.17497400000005
 20
-74.4834680000001
 30
0.0
 11
142.94967600000007
 21
-73.98207200000012
 31
0.0
  0
LINE
  5
163
330
17
100
AcDbEntity
  8
0
100
AcDbLine
 10
142.94967600000007
 20
-73.98207200000012
 30
0.0
 11
142.67561000000006
 21
-73.50506000000011
 31
0.0
  0
LINE
  5
164
330
17
100
AcDbEntity
  8
0
100
AcDbLine
 10
142.67561000000006
 20
-73.50506000000011
 30
0.0
 11
142.35709400000007
 21
-73.05471800000011
 31
0.0
  0
LINE
  5
165
330
17
100
AcDbEntity
  8
0
100
AcDbLine
 10
142.35709400000007
 20
-73.05471800000011
 30
0.0
 11
141.99870000000007
 21
-72.6330780000001
 31
0.0
  0
LINE
  5
166
330
17
100
AcDbEntity
  8
0
100
AcDbLine
 10
141.99870000000007
 20
-72.6330780000001
 30
0.0
 11
141.60500000000008
 21
-72.2426800000001
 31
0.0
  0
LINE
  5
167
330
17
100
AcDbEntity
  8
0
100
AcDbLine
 10
141.60500000000008
 20
-72.2426800000001
 30
0.0
 11
141.18056600000008
 21
-71.88555600000011
 31
0.0
  0
LINE
  5
168
330
17
100
AcDbEntity
  8
0
100
AcDbLine
 10
141.18056600000008
 20
-71.88555600000011
 30
0.0
 11
140.72997000000007
 21
-71.5639920000001
 31
0.0
  0
LINE
  5
169
330
17
100
AcDbEntity
  8
0
100
AcDbLine
 10
140.72997000000007
 20
-71.5639920000001
 30
0.0
 11
139.76756400000008
 21
-71.02703600000011
 31
0.0
  0
LINE
  5
16A
330
17
100
AcDbEntity
  8
0
100
AcDbLine
 10
139.76756400000008
 20
-71.02703600000011
 30
0.0
 11
138.7429280000001
 21
-70.6191120000001
 31
0.0
  0
LINE
  5
16B
330
17
100
AcDbEntity
  8
0
100
AcDbLine
 10
138.7429280000001
 20
-70.6191120000001
 30
0.0
 11
137.67536600000008
 21
-70.32701200000011
 31
0.0
  0
LINE
  5
16C
330
17
100
AcDbEntity
  8
0
100
AcDbLine
 10
137.67536600000008
 20
-70.32701200000011
 30
0.0
 11
136.5844360000001
 21
-70.13778200000012
 31
0.0
  0
LINE
  5
16D
330
17
100
AcDbEntity
  8
0
100
AcDbLine
 10
136.5844360000001
 20
-70.13778200000012
 30
0.0
 11
148.1874100000001
 21
-70.4176900000001
 31
0.0
  0
LINE
  5
16E
330
17
100
AcDbEntity
  8
0
100
AcDbLine
 10
148.1874100000001
 20
-70.4176900000001
 30
0.0
 11
148.7246200000001
 21
-71.54824400000011
 31
0.0
  0
LINE
  5
16F
330
17
100
AcDbEntity
  8
0
100
AcDbLine
 10
148.7246200000001
 20
-71.54824400000011
 30
0.0
 11
148.9420440000001
 21
-72.13219000000011
 31
0.0
  0
LINE
  5
170
330
17
100
AcDbEntity
  8
0
100
AcDbLine
 10
148.9420440000001
 20
-72.13219000000011
 30
0.0
 11
149.09673000000012
 21
-72.73467800000012
 31
0.0
  0
LINE
  5
171
330
17
100
AcDbEntity
  8
0
100
AcDbLine
 10
149.09673000000012
 20
-72.73467800000012
 30
0.0
 11
149.14270400000012
 21
-73.0448120000001
 31
0.0
  0
LINE
  5
172
330
17
100
AcDbEntity
  8
0
100
AcDbLine
 10
149.14270400000012
 20
-73.0448120000001
 30
0.0
 11
149.16302400000015
 21
-73.35901000000011
 31
0.0
  0
LINE
  5
173
330
17
100
AcDbEntity
  8
0
100
AcDbLine
 10
149.16302400000015
 20
-73.35901000000011
 30
0.0
 11
149.15616600000013
 21
-73.67371600000011
 31
0.0
  0
LINE
  5
174
330
17
100
AcDbEntity
  8
0
100
AcDbLine
 10
149.15616600000013
 20
-73.67371600000011
 30
0.0
 11
149.12009800000013
 21
-73.98486600000011
 31
0.0
  0
LINE
  5
175
330
17
100
AcDbEntity
  8
0
100
AcDbLine
 10
149.12009800000013
 20
-73.98486600000011
 30
0.0
 11
149.05304200000012
 21
-74.28865000000012
 31
0.0
  0
LINE
  5
176
330
17
100
AcDbEntity
  8
0
100
AcDbLine
 10
149.05304200000012
 20
-74.28865000000012
 30
0.0
 11
148.9532200000001
 21
-74.58100400000012
 31
0.0
  0
LINE
  5
177
330
17
100
AcDbEntity
  8
0
100
AcDbLine
 10
148.9532200000001
 20
-74.58100400000012
 30
0.0
 11
148.81860000000012
 21
-74.85837200000012
 31
0.0
  0
LINE
  5
178
330
17
100
AcDbEntity
  8
0
100
AcDbLine
 10
148.81860000000012
 20
-74.85837200000012
 30
0.0
 11
148.6474040000001
 21
-75.11694400000012
 31
0.0
  0
LINE
  5
179
330
17
100
AcDbEntity
  8
0
100
AcDbLine
 10
148.6474040000001
 20
-75.11694400000012
 30
0.0
 11
148.51761000000013
 21
-75.27163000000012
 31
0.0
  0
LINE
  5
17A
330
17
100
AcDbEntity
  8
0
100
AcDbLine
 10
148.51761000000013
 20
-75.27163000000012
 30
0.0
 11
148.37714800000012
 21
-75.41310800000011
 31
0.0
  0
LINE
  5
17B
330
17
100
AcDbEntity
  8
0
100
AcDbLine
 10
148.37714800000012
 20
-75.41310800000011
 30
0.0
 11
148.22703400000012
 21
-75.54264800000011
 31
0.0
  0
LINE
  5
17C
330
17
100
AcDbEntity
  8
0
100
AcDbLine
 10
148.22703400000012
 20
-75.54264800000011
 30
0.0
 11
147.90089800000013
 21
-75.77023200000012
 31
0.0
  0
LINE
  5
17D
330
17
100
AcDbEntity
  8
0
100
AcDbLine
 10
147.90089800000013
 20
-75.77023200000012
 30
0.0
 11
147.54707600000012
 21
-75.96301800000012
 31
0.0
  0
LINE
  5
17E
330
17
100
AcDbEntity
  8
0
100
AcDbLine
 10
147.54707600000012
 20
-75.96301800000012
 30
0.0
 11
145.0568600000001
 21
-76.98816200000012
 31
0.0
  0
LINE
  5
17F
330
17
100
AcDbEntity
  8
0
100
AcDbLine
 10
145.0568600000001
 20
-76.98816200000012
 30
0.0
 11
144.2366940000001
 21
-77.47990600000011
 31
0.0
  0
LINE
  5
180
330
17
100
AcDbEntity
  8
0
100
AcDbLine
 10
144.2366940000001
 20
-77.47990600000011
 30
0.0
 11
143.42414800000012
 21
-78.1090640000001
 31
0.0
  0
LINE
  5
181
330
17
100
AcDbEntity
  8
0
100
AcDbLine
 10
143.42414800000012
 20
-78.1090640000001
 30
0.0
 11
143.02079600000013
 21
-78.5004780000001
 31
0.0
  0
LINE
  5
182
330
17
100
AcDbEntity
  8
0
100
AcDbLine
 10
143.02079600000013
 20
-78.5004780000001
 30
0.0
 11
142.95120000000014
 21
-78.55635800000012
 31
0.0
  0
LINE
  5
183
330
17
100
AcDbEntity
  8
0
100
AcDbLine
 10
142.95120000000014
 20
-78.55635800000012
 30
0.0
 11
142.87931800000013
 21
-78.6041100000001
 31
0.0
  0
LINE
  5
184
330
17
100
AcDbEntity
  8
0
100
AcDbLine
 10
142.87931800000013
 20
-78.6041100000001
 30
0.0
 11
142.84248800000015
 21
-78.62417600000012
 31
0.0
  0
LINE
  5
185
330
17
100
AcDbEntity
  8
0
100
AcDbLine
 10
142.84248800000015
 20
-78.62417600000012
 30
0.0
 11
143.05432400000012
 21
-78.1969480000001
 31
0.0
  0
LINE
  5
186
330
17
100
AcDbEntity
  8
0
100
AcDbLine
 10
143.05432400000012
 20
-78.1969480000001
 30
0.0
 11
143.2280600000001
 21
-77.76083000000011
 31
0.0
  0
LINE
  5
187
330
17
100
AcDbEntity
  8
0
100
AcDbLine
 10
143.2280600000001
 20
-77.76083000000011
 30
0.0
 11
143.36141000000012
 21
-77.31683800000012
 31
0.0
  0
LINE
  5
188
330
17
100
AcDbEntity
  8
0
100
AcDbLine
 10
143.36141000000012
 20
-77.31683800000012
 30
0.0
 11
143.4523420000001
 21
-76.86573400000012
 31
0.0
  0
LINE
  5
189
330
17
100
AcDbEntity
  8
0
100
AcDbLine
 10
143.4523420000001
 20
-76.86573400000012
 30
0.0
 11
143.4985700000001
 21
-76.40828000000012
 31
0.0
  0
LINE
  5
18A
330
17
100
AcDbEntity
  8
0
100
AcDbLine
 10
143.4985700000001
 20
-76.40828000000012
 30
0.0
 11
143.49780800000008
 21
-75.94549200000012
 31
0.0
  0
LINE
  5
18B
330
17
100
AcDbEntity
  8
0
100
AcDbLine
 10
143.49780800000008
 20
-75.94549200000012
 30
0.0
 11
143.44827800000007
 21
-75.47813200000012
 31
0.0
  0
LINE
  5
18C
330
17
100
AcDbEntity
  8
0
100
AcDbLine
 10
143.44827800000007
 20
-75.47813200000012
 30
0.0
 11
143.34744000000006
 21
-75.00696200000012
 31
0.0
  0
LINE
  5
18D
330
17
100
AcDbEntity
  8
0
100
AcDbLine
 10
117.99671600000006
 20
-94.8819540000001
 30
0.0
 11
117.42750200000008
 21
-92.43822000000011
 31
0.0
  0
LINE
  5
18E
330
17
100
AcDbEntity
  8
0
100
AcDbLine
 10
117.42750200000008
 20
-92.43822000000011
 30
0.0
 11
117.33682400000006
 21
-91.07424000000012
 31
0.0
  0
LINE
  5
18F
330
17
100
AcDbEntity
  8
0
100
AcDbLine
 10
117.33682400000006
 20
-91.07424000000012
 30
0.0
 11
117.39245000000007
 21
-89.70848200000012
 31
0.0
  0
LINE
  5
190
330
17
100
AcDbEntity
  8
0
100
AcDbLine
 10
117.39245000000007
 20
-89.70848200000012
 30
0.0
 11
117.57380600000006
 21
-88.54389200000011
 31
0.0
  0
LINE
  5
191
330
17
100
AcDbEntity
  8
0
100
AcDbLine
 10
117.57380600000006
 20
-88.54389200000011
 30
0.0
 11
117.87073200000006
 21
-87.41943400000011
 31
0.0
  0
LINE
  5
192
330
17
100
AcDbEntity
  8
0
100
AcDbLine
 10
117.87073200000006
 20
-87.41943400000011
 30
0.0
 11
119.85777400000005
 21
-81.96148200000012
 31
0.0
  0
LINE
  5
193
330
17
100
AcDbEntity
  8
0
100
AcDbLine
 10
119.85777400000005
 20
-81.96148200000012
 30
0.0
 11
120.10923400000006
 21
-80.81518000000013
 31
0.0
  0
LINE
  5
194
330
17
100
AcDbEntity
  8
0
100
AcDbLine
 10
120.10923400000006
 20
-80.81518000000013
 30
0.0
 11
120.40158800000006
 21
-75.94676200000012
 31
0.0
  0
LINE
  5
195
330
17
100
AcDbEntity
  8
0
100
AcDbLine
 10
120.40158800000006
 20
-75.94676200000012
 30
0.0
 11
120.49023400000006
 21
-75.33843200000013
 31
0.0
  0
LINE
  5
196
330
17
100
AcDbEntity
  8
0
100
AcDbLine
 10
120.49023400000006
 20
-75.33843200000013
 30
0.0
 11
120.62256800000006
 21
-74.73315000000014
 31
0.0
  0
LINE
  5
197
330
17
100
AcDbEntity
  8
0
100
AcDbLine
 10
120.62256800000006
 20
-74.73315000000014
 30
0.0
 11
120.80240000000006
 21
-74.14107600000013
 31
0.0
  0
LINE
  5
198
330
17
100
AcDbEntity
  8
0
100
AcDbLine
 10
120.80240000000006
 20
-74.14107600000013
 30
0.0
 11
121.03354000000007
 21
-73.57262400000013
 31
0.0
  0
LINE
  5
199
330
17
100
AcDbEntity
  8
0
100
AcDbLine
 10
121.03354000000007
 20
-73.57262400000013
 30
0.0
 11
121.31979800000008
 21
-73.03795400000013
 31
0.0
  0
LINE
  5
19A
330
17
100
AcDbEntity
  8
0
100
AcDbLine
 10
121.31979800000008
 20
-73.03795400000013
 30
0.0
 11
121.66523800000007
 21
-72.54748000000014
 31
0.0
  0
LINE
  5
19B
330
17
100
AcDbEntity
  8
0
100
AcDbLine
 10
121.66523800000007
 20
-72.54748000000014
 30
0.0
 11
121.86132600000008
 21
-72.32192800000014
 31
0.0
  0
LINE
  5
19C
330
17
100
AcDbEntity
  8
0
100
AcDbLine
 10
121.86132600000008
 20
-72.32192800000014
 30
0.0
 11
122.07341600000007
 21
-72.11136200000014
 31
0.0
  0
LINE
  5
19D
330
17
100
AcDbEntity
  8
0
100
AcDbLine
 10
122.07341600000007
 20
-72.11136200000014
 30
0.0
 11
122.30227000000008
 21
-71.91705200000014
 31
0.0
  0
LINE
  5
19E
330
17
100
AcDbEntity
  8
0
100
AcDbLine
 10
122.30227000000008
 20
-71.91705200000014
 30
0.0
 11
122.54839600000007
 21
-71.74026800000013
 31
0.0
  0
LINE
  5
19F
330
17
100
AcDbEntity
  8
0
100
AcDbLine
 10
122.54839600000007
 20
-71.74026800000013
 30
0.0
 11
122.99797600000007
 21
-71.48626800000014
 31
0.0
  0
LINE
  5
1A0
330
17
100
AcDbEntity
  8
0
100
AcDbLine
 10
122.99797600000007
 20
-71.48626800000014
 30
0.0
 11
123.47244800000007
 21
-71.29221200000013
 31
0.0
  0
LINE
  5
1A1
330
17
100
AcDbEntity
  8
0
100
AcDbLine
 10
123.47244800000007
 20
-71.29221200000013
 30
0.0
 11
123.96698600000006
 21
-71.14971800000014
 31
0.0
  0
LINE
  5
1A2
330
17
100
AcDbEntity
  8
0
100
AcDbLine
 10
123.96698600000006
 20
-71.14971800000014
 30
0.0
 11
124.47701800000006
 21
-71.05065800000014
 31
0.0
  0
LINE
  5
1A3
330
17
100
AcDbEntity
  8
0
100
AcDbLine
 10
124.47701800000006
 20
-71.05065800000014
 30
0.0
 11
125.52451400000007
 21
-70.95007400000013
 31
0.0
  0
LINE
  5
1A4
330
17
100
AcDbEntity
  8
0
100
AcDbLine
 10
125.52451400000007
 20
-70.95007400000013
 30
0.0
 11
135.67867200000006
 21
-70.96506000000014
 31
0.0
  0
LINE
  5
1A5
330
17
100
AcDbEntity
  8
0
100
AcDbLine
 10
135.67867200000006
 20
-70.96506000000014
 30
0.0
 11
137.32891000000006
 21
-71.23252200000015
 31
0.0
  0
LINE
  5
1A6
330
17
100
AcDbEntity
  8
0
100
AcDbLine
 10
137.32891000000006
 20
-71.23252200000015
 30
0.0
 11
138.12977200000006
 21
-71.45858200000013
 31
0.0
  0
LINE
  5
1A7
330
17
100
AcDbEntity
  8
0
100
AcDbLine
 10
138.12977200000006
 20
-71.45858200000013
 30
0.0
 11
138.90904400000005
 21
-71.76008000000014
 31
0.0
  0
LINE
  5
1A8
330
17
100
AcDbEntity
  8
0
100
AcDbLine
 10
138.90904400000005
 20
-71.76008000000014
 30
0.0
 11
139.40942400000006
 21
-72.01204800000015
 31
0.0
  0
LINE
  5
1A9
330
17
100
AcDbEntity
  8
0
100
AcDbLine
 10
139.40942400000006
 20
-72.01204800000015
 30
0.0
 11
139.88440400000005
 21
-72.30795800000016
 31
0.0
  0
LINE
  5
1AA
330
17
100
AcDbEntity
  8
0
100
AcDbLine
 10
139.88440400000005
 20
-72.30795800000016
 30
0.0
 11
140.32992000000007
 21
-72.64400000000015
 31
0.0
  0
LINE
  5
1AB
330
17
100
AcDbEntity
  8
0
100
AcDbLine
 10
140.32992000000007
 20
-72.64400000000015
 30
0.0
 11
140.74216200000006
 21
-73.01661800000014
 31
0.0
  0
LINE
  5
1AC
330
17
100
AcDbEntity
  8
0
100
AcDbLine
 10
140.74216200000006
 20
-73.01661800000014
 30
0.0
 11
141.11706600000008
 21
-73.42200200000015
 31
0.0
  0
LINE
  5
1AD
330
17
100
AcDbEntity
  8
0
100
AcDbLine
 10
141.11706600000008
 20
-73.42200200000015
 30
0.0
 11
141.45107600000009
 21
-73.85634200000014
 31
0.0
  0
LINE
  5
1AE
330
17
100
AcDbEntity
  8
0
100
AcDbLine
 10
141.45107600000009
 20
-73.85634200000014
 30
0.0
 11
141.7401280000001
 21
-74.31582800000014
 31
0.0
  0
LINE
  5
1AF
330
17
100
AcDbEntity
  8
0
100
AcDbLine
 10
141.7401280000001
 20
-74.31582800000014
 30
0.0
 11
141.9801580000001
 21
-74.79690400000014
 31
0.0
  0
LINE
  5
1B0
330
17
100
AcDbEntity
  8
0
100
AcDbLine
 10
141.9801580000001
 20
-74.79690400000014
 30
0.0
 11
142.16761000000014
 21
-75.29576000000014
 31
0.0
  0
LINE
  5
1B1
330
17
100
AcDbEntity
  8
0
100
AcDbLine
 10
142.16761000000014
 20
-75.29576000000014
 30
0.0
 11
142.29842000000014
 21
-75.80858600000015
 31
0.0
  0
LINE
  5
1B2
330
17
100
AcDbEntity
  8
0
100
AcDbLine
 10
142.29842000000014
 20
-75.80858600000015
 30
0.0
 11
142.36877800000013
 21
-76.33157200000015
 31
0.0
  0
LINE
  5
1B3
330
17
100
AcDbEntity
  8
0
100
AcDbLine
 10
142.36877800000013
 20
-76.33157200000015
 30
0.0
 11
142.37487400000015
 21
-76.86116200000015
 31
0.0
  0
LINE
  5
1B4
330
17
100
AcDbEntity
  8
0
100
AcDbLine
 10
142.37487400000015
 20
-76.86116200000015
 30
0.0
 11
142.31264400000012
 21
-77.39354600000014
 31
0.0
  0
LINE
  5
1B5
330
17
100
AcDbEntity
  8
0
100
AcDbLine
 10
142.31264400000012
 20
-77.39354600000014
 30
0.0
 11
142.17827800000012
 21
-77.92491400000014
 31
0.0
  0
LINE
  5
1B6
330
17
100
AcDbEntity
  8
0
100
AcDbLine
 10
142.17827800000012
 20
-77.92491400000014
 30
0.0
 11
141.96796600000013
 21
-78.45171000000015
 31
0.0
  0
LINE
  5
1B7
330
17
100
AcDbEntity
  8
0
100
AcDbLine
 10
141.96796600000013
 20
-78.45171000000015
 30
0.0
 11
141.67764400000013
 21
-78.96987000000016
 31
0.0
  0
LINE
  5
1B8
330
17
100
AcDbEntity
  8
0
100
AcDbLine
 10
141.67764400000013
 20
-78.96987000000016
 30
0.0
 11
139.29537800000014
 21
-81.94141600000016
 31
0.0
  0
LINE
  5
1B9
330
17
100
AcDbEntity
  8
0
100
AcDbLine
 10
139.29537800000014
 20
-81.94141600000016
 30
0.0
 11
138.90980600000012
 21
-82.56346200000016
 31
0.0
  0
LINE
  5
1BA
330
17
100
AcDbEntity
  8
0
100
AcDbLine
 10
138.90980600000012
 20
-82.56346200000016
 30
0.0
 11
138.58316200000013
 21
-83.21649600000016
 31
0.0
  0
LINE
  5
1BB
330
17
100
AcDbEntity
  8
0
100
AcDbLine
 10
138.58316200000013
 20
-83.21649600000016
 30
0.0
 11
138.31290600000014
 21
-83.89569200000017
 31
0.0
  0
LINE
  5
1BC
330
17
100
AcDbEntity
  8
0
100
AcDbLine
 10
138.31290600000014
 20
-83.89569200000017
 30
0.0
 11
138.09649800000014
 21
-84.59597000000016
 31
0.0
  0
LINE
  5
1BD
330
17
100
AcDbEntity
  8
0
100
AcDbLine
 10
138.09649800000014
 20
-84.59597000000016
 30
0.0
 11
137.81506600000017
 21
-86.03996000000016
 31
0.0
  0
LINE
  5
1BE
330
17
100
AcDbEntity
  8
0
100
AcDbLine
 10
137.81506600000017
 20
-86.03996000000016
 30
0.0
 11
137.71880000000016
 21
-87.50909600000016
 31
0.0
  0
LINE
  5
1BF
330
17
100
AcDbEntity
  8
0
100
AcDbLine
 10
137.71880000000016
 20
-87.50909600000016
 30
0.0
 11
137.76782200000017
 21
-88.97670800000016
 31
0.0
  0
LINE
  5
1C0
330
17
100
AcDbEntity
  8
0
100
AcDbLine
 10
137.76782200000017
 20
-88.97670800000016
 30
0.0
 11
137.93190600000014
 21
-90.43746200000015
 31
0.0
  0
LINE
  5
1C1
330
17
100
AcDbEntity
  8
0
100
AcDbLine
 10
137.93190600000014
 20
-90.43746200000015
 30
0.0
 11
138.20521000000014
 21
-91.88221400000016
 31
0.0
  0
LINE
  5
1C2
330
17
100
AcDbEntity
  8
0
100
AcDbLine
 10
138.20521000000014
 20
-91.88221400000016
 30
0.0
 11
147.75662600000015
 21
-117.77954600000017
 31
0.0
  0
LINE
  5
1C3
330
17
100
AcDbEntity
  8
0
100
AcDbLine
 10
147.75662600000015
 20
-117.77954600000017
 30
0.0
 11
148.77999200000016
 21
-121.90577600000016
 31
0.0
  0
LINE
  5
1C4
330
17
100
AcDbEntity
  8
0
100
AcDbLine
 10
148.77999200000016
 20
-121.90577600000016
 30
0.0
 11
149.48306400000016
 21
-126.09855400000016
 31
0.0
  0
LINE
  5
1C5
330
17
100
AcDbEntity
  8
0
100
AcDbLine
 10
149.48306400000016
 20
-126.09855400000016
 30
0.0
 11
149.88133600000018
 21
-131.30047400000015
 31
0.0
  0
LINE
  5
1C6
330
17
100
AcDbEntity
  8
0
100
AcDbLine
 10
149.88133600000018
 20
-131.30047400000015
 30
0.0
 11
149.85847600000017
 21
-131.78586800000014
 31
0.0
  0
LINE
  5
1C7
330
17
100
AcDbEntity
  8
0
100
AcDbLine
 10
149.85847600000017
 20
-131.78586800000014
 30
0.0
 11
149.80234200000015
 21
-132.26364200000015
 31
0.0
  0
LINE
  5
1C8
330
17
100
AcDbEntity
  8
0
100
AcDbLine
 10
149.80234200000015
 20
-132.26364200000015
 30
0.0
 11
149.70455200000015
 21
-132.72744600000013
 31
0.0
  0
LINE
  5
1C9
330
17
100
AcDbEntity
  8
0
100
AcDbLine
 10
149.70455200000015
 20
-132.72744600000013
 30
0.0
 11
149.55672400000014
 21
-133.17042200000014
 31
0.0
  0
LINE
  5
1CA
330
17
100
AcDbEntity
  8
0
100
AcDbLine
 10
149.55672400000014
 20
-133.17042200000014
 30
0.0
 11
149.46147400000015
 21
-133.38200400000014
 31
0.0
  0
LINE
  5
1CB
330
17
100
AcDbEntity
  8
0
100
AcDbLine
 10
149.46147400000015
 20
-133.38200400000014
 30
0.0
 11
149.35047600000016
 21
-133.58596600000013
 31
0.0
  0
LINE
  5
1CC
330
17
100
AcDbEntity
  8
0
100
AcDbLine
 10
149.35047600000016
 20
-133.58596600000013
 30
0.0
 11
149.22271400000014
 21
-133.78154600000013
 31
0.0
  0
LINE
  5
1CD
330
17
100
AcDbEntity
  8
0
100
AcDbLine
 10
149.22271400000014
 20
-133.78154600000013
 30
0.0
 11
149.07717200000016
 21
-133.9677280000001
 31
0.0
  0
LINE
  5
1CE
330
17
100
AcDbEntity
  8
0
100
AcDbLine
 10
149.07717200000016
 20
-133.9677280000001
 30
0.0
 11
148.88641800000016
 21
-134.1696580000001
 31
0.0
  0
LINE
  5
1CF
330
17
100
AcDbEntity
  8
0
100
AcDbLine
 10
148.88641800000016
 20
-134.1696580000001
 30
0.0
 11
148.68017000000015
 21
-134.3487280000001
 31
0.0
  0
LINE
  5
1D0
330
17
100
AcDbEntity
  8
0
100
AcDbLine
 10
148.68017000000015
 20
-134.3487280000001
 30
0.0
 11
148.45969800000015
 21
-134.50620800000013
 31
0.0
  0
LINE
  5
1D1
330
17
100
AcDbEntity
  8
0
100
AcDbLine
 10
148.45969800000015
 20
-134.50620800000013
 30
0.0
 11
148.22652600000015
 21
-134.64362200000014
 31
0.0
  0
LINE
  5
1D2
330
17
100
AcDbEntity
  8
0
100
AcDbLine
 10
148.22652600000015
 20
-134.64362200000014
 30
0.0
 11
147.98167000000012
 21
-134.76249400000012
 31
0.0
  0
LINE
  5
1D3
330
17
100
AcDbEntity
  8
0
100
AcDbLine
 10
147.98167000000012
 20
-134.76249400000012
 30
0.0
 11
147.4630020000001
 21
-134.9496920000001
 31
0.0
  0
LINE
  5
1D4
330
17
100
AcDbEntity
  8
0
100
AcDbLine
 10
147.4630020000001
 20
-134.9496920000001
 30
0.0
 11
146.91436200000012
 21
-135.07872400000014
 31
0.0
  0
LINE
  5
1D5
330
17
100
AcDbEntity
  8
0
100
AcDbLine
 10
146.91436200000012
 20
-135.07872400000014
 30
0.0
 11
145.76983800000014
 21
-135.20699400000012
 31
0.0
  0
LINE
  5
1D6
330
17
100
AcDbEntity
  8
0
100
AcDbLine
 10
145.76983800000014
 20
-135.20699400000012
 30
0.0
 11
131.45185800000013
 21
-135.38733400000012
 31
0.0
  0
LINE
  5
1D7
330
17
100
AcDbEntity
  8
0
100
AcDbLine
 10
131.45185800000013
 20
-135.38733400000012
 30
0.0
 11
130.86588000000012
 21
-135.34771000000015
 31
0.0
  0
LINE
  5
1D8
330
17
100
AcDbEntity
  8
0
100
AcDbLine
 10
130.86588000000012
 20
-135.34771000000015
 30
0.0
 11
130.29311000000013
 21
-135.26592200000016
 31
0.0
  0
LINE
  5
1D9
330
17
100
AcDbEntity
  8
0
100
AcDbLine
 10
130.29311000000013
 20
-135.26592200000016
 30
0.0
 11
129.74701000000013
 21
-135.12850800000012
 31
0.0
  0
LINE
  5
1DA
330
17
100
AcDbEntity
  8
0
100
AcDbLine
 10
129.74701000000013
 20
-135.12850800000012
 30
0.0
 11
129.48843800000014
 21
-135.03478200000012
 31
0.0
  0
LINE
  5
1DB
330
17
100
AcDbEntity
  8
0
100
AcDbLine
 10
129.48843800000014
 20
-135.03478200000012
 30
0.0
 11
129.24155000000013
 21
-134.92226000000014
 31
0.0
  0
LINE
  5
1DC
330
17
100
AcDbEntity
  8
0
100
AcDbLine
 10
129.24155000000013
 20
-134.92226000000014
 30
0.0
 11
129.00837800000014
 21
-134.78916400000014
 31
0.0
  0
LINE
  5
1DD
330
17
100
AcDbEntity
  8
0
100
AcDbLine
 10
129.00837800000014
 20
-134.78916400000014
 30
0.0
 11
128.79070000000013
 21
-134.63371600000013
 31
0.0
  0
LINE
  5
1DE
330
17
100
AcDbEntity
  8
0
100
AcDbLine
 10
128.79070000000013
 20
-134.63371600000013
 30
0.0
 11
128.59004000000013
 21
-134.45439200000013
 31
0.0
  0
LINE
  5
1DF
330
17
100
AcDbEntity
  8
0
100
AcDbLine
 10
128.59004000000013
 20
-134.45439200000013
 30
0.0
 11
128.43408400000013
 21
-134.28141800000012
 31
0.0
  0
LINE
  5
1E0
330
17
100
AcDbEntity
  8
0
100
AcDbLine
 10
128.43408400000013
 20
-134.28141800000012
 30
0.0
 11
128.29489200000015
 21
-134.09472800000012
 31
0.0
  0
LINE
  5
1E1
330
17
100
AcDbEntity
  8
0
100
AcDbLine
 10
128.29489200000015
 20
-134.09472800000012
 30
0.0
 11
128.05841800000013
 21
-133.6903600000001
 31
0.0
  0
LINE
  5
1E2
330
17
100
AcDbEntity
  8
0
100
AcDbLine
 10
128.05841800000013
 20
-133.6903600000001
 30
0.0
 11
127.69011800000014
 21
-132.82853800000012
 31
0.0
  0
LINE
  5
1E3
330
17
100
AcDbEntity
  8
0
100
AcDbLine
 10
127.69011800000014
 20
-132.82853800000012
 30
0.0
 11
127.55422800000014
 21
-132.4246780000001
 31
0.0
  0
LINE
  5
1E4
330
17
100
AcDbEntity
  8
0
100
AcDbLine
 10
127.55422800000014
 20
-132.4246780000001
 30
0.0
 11
127.08966200000013
 21
-129.82346400000011
 31
0.0
  0
LINE
  5
1E5
330
17
100
AcDbEntity
  8
0
100
AcDbLine
 10
127.08966200000013
 20
-129.82346400000011
 30
0.0
 11
117.99773200000013
 21
-94.88246200000012
 31
0.0
  0
LINE
  5
1E6
330
17
100
AcDbEntity
  8
0
100
AcDbLine
 10
117.02084800000013
 20
-72.51598400000012
 30
0.0
 11
116.65737400000013
 21
-72.98639200000011
 31
0.0
  0
LINE
  5
1E7
330
17
100
AcDbEntity
  8
0
100
AcDbLine
 10
116.65737400000013
 20
-72.98639200000011
 30
0.0
 11
116.23522600000014
 21
-73.35697800000011
 31
0.0
  0
LINE
  5
1E8
330
17
100
AcDbEntity
  8
0
100
AcDbLine
 10
116.23522600000014
 20
-73.35697800000011
 30
0.0
 11
115.77675600000013
 21
-73.6655880000001
 31
0.0
  0
LINE
  5
1E9
330
17
100
AcDbEntity
  8
0
100
AcDbLine
 10
115.77675600000013
 20
-73.6655880000001
 30
0.0
 11
115.28221800000014
 21
-73.9122220000001
 31
0.0
  0
LINE
  5
1EA
330
17
100
AcDbEntity
  8
0
100
AcDbLine
 10
115.28221800000014
 20
-73.9122220000001
 30
0.0
 11
114.75161200000014
 21
-74.0971340000001
 31
0.0
  0
LINE
  5
1EB
330
17
100
AcDbEntity
  8
0
100
AcDbLine
 10
114.75161200000014
 20
-74.0971340000001
 30
0.0
 11
113.60353200000014
 21
-74.25131200000011
 31
0.0
  0
LINE
  5
1EC
330
17
100
AcDbEntity
  8
0
100
AcDbLine
 10
113.60353200000014
 20
-74.25131200000011
 30
0.0
 11
113.45062400000015
 21
-74.24750200000011
 31
0.0
  0
LINE
  5
1ED
330
17
100
AcDbEntity
  8
0
100
AcDbLine
 10
113.45062400000015
 20
-74.24750200000011
 30
0.0
 11
113.33429200000015
 21
-75.84363800000011
 31
0.0
  0
LINE
  5
1EE
330
17
100
AcDbEntity
  8
0
100
AcDbLine
 10
113.33429200000015
 20
-75.84363800000011
 30
0.0
 11
113.38128200000014
 21
-77.44307600000012
 31
0.0
  0
LINE
  5
1EF
330
17
100
AcDbEntity
  8
0
100
AcDbLine
 10
113.38128200000014
 20
-77.44307600000012
 30
0.0
 11
113.59108600000015
 21
-79.02930600000012
 31
0.0
  0
LINE
  5
1F0
330
17
100
AcDbEntity
  8
0
100
AcDbLine
 10
113.59108600000015
 20
-79.02930600000012
 30
0.0
 11
113.99647000000014
 21
-80.73440800000013
 31
0.0
  0
LINE
  5
1F1
330
17
100
AcDbEntity
  8
0
100
AcDbLine
 10
113.99647000000014
 20
-80.73440800000013
 30
0.0
 11
114.01094800000016
 21
-80.88477600000012
 31
0.0
  0
LINE
  5
1F2
330
17
100
AcDbEntity
  8
0
100
AcDbLine
 10
114.01094800000016
 20
-80.88477600000012
 30
0.0
 11
114.00663000000016
 21
-81.03489000000012
 31
0.0
  0
LINE
  5
1F3
330
17
100
AcDbEntity
  8
0
100
AcDbLine
 10
114.00663000000016
 20
-81.03489000000012
 30
0.0
 11
113.98402400000015
 21
-81.18297200000013
 31
0.0
  0
LINE
  5
1F4
330
17
100
AcDbEntity
  8
0
100
AcDbLine
 10
113.98402400000015
 20
-81.18297200000013
 30
0.0
 11
113.94363800000015
 21
-81.32749800000013
 31
0.0
  0
LINE
  5
1F5
330
17
100
AcDbEntity
  8
0
100
AcDbLine
 10
113.94363800000015
 20
-81.32749800000013
 30
0.0
 11
113.88623400000016
 21
-81.46669000000013
 31
0.0
  0
LINE
  5
1F6
330
17
100
AcDbEntity
  8
0
100
AcDbLine
 10
113.88623400000016
 20
-81.46669000000013
 30
0.0
 11
113.81206600000016
 21
-81.59902400000014
 31
0.0
  0
LINE
  5
1F7
330
17
100
AcDbEntity
  8
0
100
AcDbLine
 10
113.81206600000016
 20
-81.59902400000014
 30
0.0
 11
111.26317600000016
 21
-84.70112600000014
 31
0.0
  0
LINE
  5
1F8
330
17
100
AcDbEntity
  8
0
100
AcDbLine
 10
111.26317600000016
 20
-84.70112600000014
 30
0.0
 11
111.92992600000015
 21
-85.24697200000014
 31
0.0
  0
LINE
  5
1F9
330
17
100
AcDbEntity
  8
0
100
AcDbLine
 10
111.92992600000015
 20
-85.24697200000014
 30
0.0
 11
112.52555600000017
 21
-85.86901800000015
 31
0.0
  0
LINE
  5
1FA
330
17
100
AcDbEntity
  8
0
100
AcDbLine
 10
112.52555600000017
 20
-85.86901800000015
 30
0.0
 11
113.04473200000015
 21
-86.55659600000014
 31
0.0
  0
LINE
  5
1FB
330
17
100
AcDbEntity
  8
0
100
AcDbLine
 10
113.04473200000015
 20
-86.55659600000014
 30
0.0
 11
113.48237400000016
 21
-87.29954600000015
 31
0.0
  0
LINE
  5
1FC
330
17
100
AcDbEntity
  8
0
100
AcDbLine
 10
113.48237400000016
 20
-87.29954600000015
 30
0.0
 11
113.83289400000017
 21
-88.08745400000014
 31
0.0
  0
LINE
  5
1FD
330
17
100
AcDbEntity
  8
0
100
AcDbLine
 10
113.83289400000017
 20
-88.08745400000014
 30
0.0
 11
114.09095800000017
 21
-88.90965200000015
 31
0.0
  0
LINE
  5
1FE
330
17
100
AcDbEntity
  8
0
100
AcDbLine
 10
114.09095800000017
 20
-88.90965200000015
 30
0.0
 11
114.25097800000016
 21
-89.75598000000015
 31
0.0
  0
LINE
  5
1FF
330
17
100
AcDbEntity
  8
0
100
AcDbLine
 10
114.25097800000016
 20
-89.75598000000015
 30
0.0
 11
114.30787400000017
 21
-90.61577000000014
 31
0.0
  0
LINE
  5
200
330
17
100
AcDbEntity
  8
0
100
AcDbLine
 10
114.30787400000017
 20
-90.61577000000014
 30
0.0
 11
115.93982400000016
 21
-86.91702200000014
 31
0.0
  0
LINE
  5
201
330
17
100
AcDbEntity
  8
0
100
AcDbLine
 10
115.93982400000016
 20
-86.91702200000014
 30
0.0
 11
116.51411800000017
 21
-84.99779800000015
 31
0.0
  0
LINE
  5
202
330
17
100
AcDbEntity
  8
0
100
AcDbLine
 10
116.51411800000017
 20
-84.99779800000015
 30
0.0
 11
116.69649000000018
 21
-84.01685000000013
 31
0.0
  0
LINE
  5
203
330
17
100
AcDbEntity
  8
0
100
AcDbLine
 10
116.69649000000018
 20
-84.01685000000013
 30
0.0
 11
116.79199400000017
 21
-83.02015400000015
 31
0.0
  0
LINE
  5
204
330
17
100
AcDbEntity
  8
0
100
AcDbLine
 10
116.79199400000017
 20
-83.02015400000015
 30
0.0
 11
116.77218200000017
 21
-81.59369000000015
 31
0.0
  0
LINE
  5
205
330
17
100
AcDbEntity
  8
0
100
AcDbLine
 10
116.77218200000017
 20
-81.59369000000015
 30
0.0
 11
116.35816200000018
 21
-77.31988600000014
 31
0.0
  0
LINE
  5
206
330
17
100
AcDbEntity
  8
0
100
AcDbLine
 10
116.35816200000018
 20
-77.31988600000014
 30
0.0
 11
116.36756000000017
 21
-76.10195600000014
 31
0.0
  0
LINE
  5
207
330
17
100
AcDbEntity
  8
0
100
AcDbLine
 10
116.36756000000017
 20
-76.10195600000014
 30
0.0
 11
116.48313000000017
 21
-74.88986800000013
 31
0.0
  0
LINE
  5
208
330
17
100
AcDbEntity
  8
0
100
AcDbLine
 10
116.48313000000017
 20
-74.88986800000013
 30
0.0
 11
116.70207800000017
 21
-73.69175000000014
 31
0.0
  0
LINE
  5
209
330
17
100
AcDbEntity
  8
0
100
AcDbLine
 10
116.70207800000017
 20
-73.69175000000014
 30
0.0
 11
117.02110200000017
 21
-72.51598400000015
 31
0.0
  0
LINE
  5
20A
330
17
100
AcDbEntity
  8
0
100
AcDbLine
 10
124.86767000000016
 20
-103.30129200000015
 30
0.0
 11
144.29613000000015
 21
-122.72645000000013
 31
0.0
  0
LINE
  5
20B
330
17
100
AcDbEntity
  8
0
100
AcDbLine
 10
144.29613000000015
 20
-122.72645000000013
 30
0.0
 11
142.71574200000015
 21
-117.17985200000014
 31
0.0
  0
LINE
  5
20C
330
17
100
AcDbEntity
  8
0
100
AcDbLine
 10
142.71574200000015
 20
-117.17985200000014
 30
0.0
 11
139.95730200000017
 21
-110.01197200000013
 31
0.0
  0
LINE
  5
20D
330
17
100
AcDbEntity
  8
0
100
AcDbLine
 10
139.95730200000017
 20
-110.01197200000013
 30
0.0
 11
122.10643600000016
 21
-92.17914000000013
 31
0.0
  0
LINE
  5
20E
330
17
100
AcDbEntity
  8
0
100
AcDbLine
 10
122.10643600000016
 20
-92.17914000000013
 30
0.0
 11
124.86741600000016
 21
-103.30103800000013
 31
0.0
  0
LINE
  5
20F
330
17
100
AcDbEntity
  8
0
100
AcDbLine
 10
139.94663400000016
 20
-130.71475000000012
 30
0.0
 11
144.30756000000014
 21
-130.73684800000012
 31
0.0
  0
LINE
  5
210
330
17
100
AcDbEntity
  8
0
100
AcDbLine
 10
144.30756000000014
 20
-130.73684800000012
 30
0.0
 11
144.62963200000016
 21
-130.69239800000014
 31
0.0
  0
LINE
  5
211
330
17
100
AcDbEntity
  8
0
100
AcDbLine
 10
144.62963200000016
 20
-130.69239800000014
 30
0.0
 11
144.77568200000016
 21
-130.65353600000012
 31
0.0
  0
LINE
  5
212
330
17
100
AcDbEntity
  8
0
100
AcDbLine
 10
144.77568200000016
 20
-130.65353600000012
 30
0.0
 11
144.90877800000015
 21
-130.60172000000014
 31
0.0
  0
LINE
  5
213
330
17
100
AcDbEntity
  8
0
100
AcDbLine
 10
144.90877800000015
 20
-130.60172000000014
 30
0.0
 11
144.96973800000018
 21
-130.57047800000012
 31
0.0
  0
LINE
  5
214
330
17
100
AcDbEntity
  8
0
100
AcDbLine
 10
144.96973800000018
 20
-130.57047800000012
 30
0.0
 11
145.02663400000017
 21
-130.53542600000011
 31
0.0
  0
LINE
  5
215
330
17
100
AcDbEntity
  8
0
100
AcDbLine
 10
145.02663400000017
 20
-130.53542600000011
 30
0.0
 11
145.07895800000017
 21
-130.4963100000001
 31
0.0
  0
LINE
  5
216
330
17
100
AcDbEntity
  8
0
100
AcDbLine
 10
145.07895800000017
 20
-130.4963100000001
 30
0.0
 11
145.1427120000002
 21
-130.4363660000001
 31
0.0
  0
LINE
  5
217
330
17
100
AcDbEntity
  8
0
100
AcDbLine
 10
145.1427120000002
 20
-130.4363660000001
 30
0.0
 11
145.18208200000018
 21
-130.3891220000001
 31
0.0
  0
LINE
  5
218
330
17
100
AcDbEntity
  8
0
100
AcDbLine
 10
145.18208200000018
 20
-130.3891220000001
 30
0.0
 11
145.21637200000018
 21
-130.3375600000001
 31
0.0
  0
LINE
  5
219
330
17
100
AcDbEntity
  8
0
100
AcDbLine
 10
145.21637200000018
 20
-130.3375600000001
 30
0.0
 11
145.24558200000016
 21
-130.2816800000001
 31
0.0
  0
LINE
  5
21A
330
17
100
AcDbEntity
  8
0
100
AcDbLine
 10
145.24558200000016
 20
-130.2816800000001
 30
0.0
 11
145.26742600000017
 21
-130.2268160000001
 31
0.0
  0
LINE
  5
21B
330
17
100
AcDbEntity
  8
0
100
AcDbLine
 10
145.26742600000017
 20
-130.2268160000001
 30
0.0
 11
145.31111400000017
 21
-130.0388560000001
 31
0.0
  0
LINE
  5
21C
330
17
100
AcDbEntity
  8
0
100
AcDbLine
 10
145.31111400000017
 20
-130.0388560000001
 30
0.0
 11
127.09931400000018
 21
-111.8138480000001
 31
0.0
  0
LINE
  5
21D
330
17
100
AcDbEntity
  8
0
100
AcDbLine
 10
127.09931400000018
 20
-111.8138480000001
 30
0.0
 11
129.24942400000018
 21
-120.01652400000009
 31
0.0
  0
LINE
  5
21E
330
17
100
AcDbEntity
  8
0
100
AcDbLine
 10
129.24942400000018
 20
-120.01652400000009
 30
0.0
 11
139.9473960000002
 21
-130.71449600000008
 31
0.0
  0
LINE
  5
21F
330
17
100
AcDbEntity
  8
0
100
AcDbLine
 10
131.48487800000018
 20
-128.5445740000001
 30
0.0
 11
132.0772060000002
 21
-130.8044120000001
 31
0.0
  0
LINE
  5
220
330
17
100
AcDbEntity
  8
0
100
AcDbLine
 10
132.0772060000002
 20
-130.8044120000001
 30
0.0
 11
133.72592000000017
 21
-130.78561600000012
 31
0.0
  0
LINE
  5
221
330
17
100
AcDbEntity
  8
0
100
AcDbLine
 10
133.72592000000017
 20
-130.78561600000012
 30
0.0
 11
131.48487800000018
 21
-128.54457400000013
 31
0.0
  0
LINE
  5
222
330
17
100
AcDbEntity
  8
0
100
AcDbLine
 10
135.70331000000016
 20
-99.46690800000013
 30
0.0
 11
133.8419980000002
 21
-93.31883800000013
 31
0.0
  0
LINE
  5
223
330
17
100
AcDbEntity
  8
0
100
AcDbLine
 10
133.8419980000002
 20
-93.31883800000013
 30
0.0
 11
133.27913400000017
 21
-89.95537000000013
 31
0.0
  0
LINE
  5
224
330
17
100
AcDbEntity
  8
0
100
AcDbLine
 10
133.27913400000017
 20
-89.95537000000013
 30
0.0
 11
124.68453600000018
 21
-81.38033000000013
 31
0.0
  0
LINE
  5
225
330
17
100
AcDbEntity
  8
0
100
AcDbLine
 10
124.68453600000018
 20
-81.38033000000013
 30
0.0
 11
124.45212600000018
 21
-82.54466600000012
 31
0.0
  0
LINE
  5
226
330
17
100
AcDbEntity
  8
0
100
AcDbLine
 10
124.45212600000018
 20
-82.54466600000012
 30
0.0
 11
124.13005400000019
 21
-83.68741200000014
 31
0.0
  0
LINE
  5
227
330
17
100
AcDbEntity
  8
0
100
AcDbLine
 10
124.13005400000019
 20
-83.68741200000014
 30
0.0
 11
122.95200200000019
 21
-86.73312600000013
 31
0.0
  0
LINE
  5
228
330
17
100
AcDbEntity
  8
0
100
AcDbLine
 10
122.95200200000019
 20
-86.73312600000013
 30
0.0
 11
135.7033100000002
 21
-99.46690800000013
 31
0.0
  0
LINE
  5
229
330
17
100
AcDbEntity
  8
0
100
AcDbLine
 10
133.5704720000002
 20
-83.96046200000013
 30
0.0
 11
134.0632320000002
 21
-82.26247200000013
 31
0.0
  0
LINE
  5
22A
330
17
100
AcDbEntity
  8
0
100
AcDbLine
 10
134.0632320000002
 20
-82.26247200000013
 30
0.0
 11
134.75741400000018
 21
-80.64677800000013
 31
0.0
  0
LINE
  5
22B
330
17
100
AcDbEntity
  8
0
100
AcDbLine
 10
134.75741400000018
 20
-80.64677800000013
 30
0.0
 11
135.18261000000018
 21
-79.88071400000013
 31
0.0
  0
LINE
  5
22C
330
17
100
AcDbEntity
  8
0
100
AcDbLine
 10
135.18261000000018
 20
-79.88071400000013
 30
0.0
 11
135.66114600000017
 21
-79.14817800000013
 31
0.0
  0
LINE
  5
22D
330
17
100
AcDbEntity
  8
0
100
AcDbLine
 10
135.66114600000017
 20
-79.14817800000013
 30
0.0
 11
136.19403800000018
 21
-78.45323400000012
 31
0.0
  0
LINE
  5
22E
330
17
100
AcDbEntity
  8
0
100
AcDbLine
 10
136.19403800000018
 20
-78.45323400000012
 30
0.0
 11
137.14780800000017
 21
-77.40218200000014
 31
0.0
  0
LINE
  5
22F
330
17
100
AcDbEntity
  8
0
100
AcDbLine
 10
137.14780800000017
 20
-77.40218200000014
 30
0.0
 11
137.25398000000018
 21
-77.25867200000013
 31
0.0
  0
LINE
  5
230
330
17
100
AcDbEntity
  8
0
100
AcDbLine
 10
137.25398000000018
 20
-77.25867200000013
 30
0.0
 11
137.34338800000017
 21
-77.10906600000013
 31
0.0
  0
LINE
  5
231
330
17
100
AcDbEntity
  8
0
100
AcDbLine
 10
137.34338800000017
 20
-77.10906600000013
 30
0.0
 11
137.37996400000017
 21
-77.03159600000014
 31
0.0
  0
LINE
  5
232
330
17
100
AcDbEntity
  8
0
100
AcDbLine
 10
137.37996400000017
 20
-77.03159600000014
 30
0.0
 11
137.41044400000018
 21
-76.95260200000014
 31
0.0
  0
LINE
  5
233
330
17
100
AcDbEntity
  8
0
100
AcDbLine
 10
137.41044400000018
 20
-76.95260200000014
 30
0.0
 11
137.43406600000017
 21
-76.87183000000014
 31
0.0
  0
LINE
  5
234
330
17
100
AcDbEntity
  8
0
100
AcDbLine
 10
137.43406600000017
 20
-76.87183000000014
 30
0.0
 11
137.45006800000016
 21
-76.78902600000013
 31
0.0
  0
LINE
  5
235
330
17
100
AcDbEntity
  8
0
100
AcDbLine
 10
137.45006800000016
 20
-76.78902600000013
 30
0.0
 11
137.45794200000014
 21
-76.70444400000012
 31
0.0
  0
LINE
  5
236
330
17
100
AcDbEntity
  8
0
100
AcDbLine
 10
137.45794200000014
 20
-76.70444400000012
 30
0.0
 11
137.45692600000015
 21
-76.61783000000013
 31
0.0
  0
LINE
  5
237
330
17
100
AcDbEntity
  8
0
100
AcDbLine
 10
137.45692600000015
 20
-76.61783000000013
 30
0.0
 11
137.44981400000015
 21
-76.54950400000013
 31
0.0
  0
LINE
  5
238
330
17
100
AcDbEntity
  8
0
100
AcDbLine
 10
137.44981400000015
 20
-76.54950400000013
 30
0.0
 11
137.43762200000015
 21
-76.48397200000014
 31
0.0
  0
LINE
  5
239
330
17
100
AcDbEntity
  8
0
100
AcDbLine
 10
137.43762200000015
 20
-76.48397200000014
 30
0.0
 11
137.42035000000013
 21
-76.42123400000013
 31
0.0
  0
LINE
  5
23A
330
17
100
AcDbEntity
  8
0
100
AcDbLine
 10
137.42035000000013
 20
-76.42123400000013
 30
0.0
 11
137.39850600000014
 21
-76.36129000000012
 31
0.0
  0
LINE
  5
23B
330
17
100
AcDbEntity
  8
0
100
AcDbLine
 10
137.39850600000014
 20
-76.36129000000012
 30
0.0
 11
137.37209000000013
 21
-76.30414000000012
 31
0.0
  0
LINE
  5
23C
330
17
100
AcDbEntity
  8
0
100
AcDbLine
 10
137.37209000000013
 20
-76.30414000000012
 30
0.0
 11
137.34135600000013
 21
-76.24953000000014
 31
0.0
  0
LINE
  5
23D
330
17
100
AcDbEntity
  8
0
100
AcDbLine
 10
137.34135600000013
 20
-76.24953000000014
 30
0.0
 11
137.30655800000014
 21
-76.19746000000013
 31
0.0
  0
LINE
  5
23E
330
17
100
AcDbEntity
  8
0
100
AcDbLine
 10
137.30655800000014
 20
-76.19746000000013
 30
0.0
 11
137.26795000000013
 21
-76.14793000000013
 31
0.0
  0
LINE
  5
23F
330
17
100
AcDbEntity
  8
0
100
AcDbLine
 10
137.26795000000013
 20
-76.14793000000013
 30
0.0
 11
137.17981200000014
 21
-76.05623600000014
 31
0.0
  0
LINE
  5
240
330
17
100
AcDbEntity
  8
0
100
AcDbLine
 10
137.17981200000014
 20
-76.05623600000014
 30
0.0
 11
137.07872000000015
 21
-75.97394000000014
 31
0.0
  0
LINE
  5
241
330
17
100
AcDbEntity
  8
0
100
AcDbLine
 10
137.07872000000015
 20
-75.97394000000014
 30
0.0
 11
136.96619800000013
 21
-75.90053400000014
 31
0.0
  0
LINE
  5
242
330
17
100
AcDbEntity
  8
0
100
AcDbLine
 10
136.96619800000013
 20
-75.90053400000014
 30
0.0
 11
136.84377000000015
 21
-75.83576400000014
 31
0.0
  0
LINE
  5
243
330
17
100
AcDbEntity
  8
0
100
AcDbLine
 10
136.84377000000015
 20
-75.83576400000014
 30
0.0
 11
136.57605400000014
 21
-75.73060800000015
 31
0.0
  0
LINE
  5
244
330
17
100
AcDbEntity
  8
0
100
AcDbLine
 10
136.57605400000014
 20
-75.73060800000015
 30
0.0
 11
136.28903400000016
 21
-75.65491600000014
 31
0.0
  0
LINE
  5
245
330
17
100
AcDbEntity
  8
0
100
AcDbLine
 10
136.28903400000016
 20
-75.65491600000014
 30
0.0
 11
135.99566400000015
 21
-75.60538600000014
 31
0.0
  0
LINE
  5
246
330
17
100
AcDbEntity
  8
0
100
AcDbLine
 10
135.99566400000015
 20
-75.60538600000014
 30
0.0
 11
125.89865600000016
 21
-75.56601600000015
 31
0.0
  0
LINE
  5
247
330
17
100
AcDbEntity
  8
0
100
AcDbLine
 10
125.89865600000016
 20
-75.56601600000015
 30
0.0
 11
125.67462800000015
 21
-75.60691000000016
 31
0.0
  0
LINE
  5
248
330
17
100
AcDbEntity
  8
0
100
AcDbLine
 10
125.67462800000015
 20
-75.60691000000016
 30
0.0
 11
125.56642400000015
 21
-75.63891400000014
 31
0.0
  0
LINE
  5
249
330
17
100
AcDbEntity
  8
0
100
AcDbLine
 10
125.56642400000015
 20
-75.63891400000014
 30
0.0
 11
125.46203000000015
 21
-75.68057000000015
 31
0.0
  0
LINE
  5
24A
330
17
100
AcDbEntity
  8
0
100
AcDbLine
 10
125.46203000000015
 20
-75.68057000000015
 30
0.0
 11
125.36220800000017
 21
-75.73365600000014
 31
0.0
  0
LINE
  5
24B
330
17
100
AcDbEntity
  8
0
100
AcDbLine
 10
125.36220800000017
 20
-75.73365600000014
 30
0.0
 11
125.35941400000016
 21
-75.73568800000014
 31
0.0
  0
LINE
  5
24C
330
17
100
AcDbEntity
  8
0
100
AcDbLine
 10
125.35941400000016
 20
-75.73568800000014
 30
0.0
 11
125.34417400000017
 21
-75.74864200000013
 31
0.0
  0
LINE
  5
24D
330
17
100
AcDbEntity
  8
0
100
AcDbLine
 10
125.34417400000017
 20
-75.74864200000013
 30
0.0
 11
125.34138000000016
 21
-75.75067400000013
 31
0.0
  0
LINE
  5
24E
330
17
100
AcDbEntity
  8
0
100
AcDbLine
 10
125.34138000000016
 20
-75.75067400000013
 30
0.0
 11
133.57047200000017
 21
-83.96122400000013
 31
0.0
  0
ENDSEC
  0
SECTION
  2
OBJECTS
  0
DICTIONARY
  5
A
330
0
100
AcDbDictionary
281
1
  3
ACAD_COLOR
350
B
  3
ACAD_GROUP
350
C
  3
ACAD_LAYOUT
350
D
  3
ACAD_MATERIAL
350
E
  3
ACAD_MLEADERSTYLE
350
F
  3
ACAD_MLINESTYLE
350
10
  3
ACAD_PLOTSETTINGS
350
11
  3
ACAD_PLOTSTYLENAME
350
12
  3
ACAD_SCALELIST
350
14
  3
ACAD_TABLESTYLE
350
15
  3
ACAD_VISUALSTYLE
350
16
  3
EZDXF_META
350
2D
  0
DICTIONARY
  5
B
330
A
100
AcDbDictionary
281
1
  0
DICTIONARY
  5
C
330
A
100
AcDbDictionary
281
1
  0
DICTIONARY
  5
D
330
A
100
AcDbDictionary
281
1
  3
Model
350
1A
  3
Layout1
350
1E
  0
DICTIONARY
  5
E
330
A
100
AcDbDictionary
281
1
  3
ByBlock
350
1F
  3
ByLayer
350
20
  3
Global
350
21
  0
DICTIONARY
  5
F
330
A
100
AcDbDictionary
281
1
  3
Standard
350
2C
  0
DICTIONARY
  5
10
330
A
100
AcDbDictionary
281
1
  3
Standard
350
22
  0
DICTIONARY
  5
11
330
A
100
AcDbDictionary
281
1
  0
ACDBDICTIONARYWDFLT
  5
12
330
A
100
AcDbDictionary
281
1
  3
Normal
350
13
100
AcDbDictionaryWithDefault
340
13
  0
ACDBPLACEHOLDER
  5
13
330
12
  0
DICTIONARY
  5
14
330
A
100
AcDbDictionary
281
1
  0
DICTIONARY
  5
15
330
A
100
AcDbDictionary
281
1
  0
DICTIONARY
  5
16
330
A
100
AcDbDictionary
281
1
  0
LAYOUT
  5
1A
330
D
100
AcDbPlotSettings
  1

  4
A3
  6

 40
7.5
 41
20.0
 42
7.5
 43
20.0
 44
420.0
 45
297.0
 46
0.0
 47
0.0
 48
0.0
 49
0.0
140
0.0
141
0.0
142
1.0
143
1.0
 70
1024
 72
1
 73
0
 74
5
  7

 75
16
 76
0
 77
2
 78
300
147
1.0
148
0.0
149
0.0
100
AcDbLayout
  1
Model
 70
1
 71
0
 10
0.0
 20
0.0
 11
420.0
 21
297.0
 12
0.0
 22
0.0
 32
0.0
 14
1e+20
 24
1e+20
 34
1e+20
 15
-1e+20
 25
-1e+20
 35
-1e+20
146
0.0
 13
0.0
 23
0.0
 33
0.0
 16
1.0
 26
0.0
 36
0.0
 17
0.0
 27
1.0
 37
0.0
 76
1
330
17
  0
LAYOUT
  5
1E
330
D
100
AcDbPlotSettings
  1

  4
A3
  6

 40
7.5
 41
20.0
 42
7.5
 43
20.0
 44
420.0
 45
297.0
 46
0.0
 47
0.0
 48
0.0
 49
0.0
140
0.0
141
0.0
142
1.0
143
1.0
 70
0
 72
1
 73
0
 74
5
  7

 75
16
 76
0
 77
2
 78
300
147
1.0
148
0.0
149
0.0
100
AcDbLayout
  1
Layout1
 70
1
 71
1
 10
0.0
 20
0.0
 11
420.0
 21
297.0
 12
0.0
 22
0.0
 32
0.0
 14
1e+20
 24
1e+20
 34
1e+20
 15
-1e+20
 25
-1e+20
 35
-1e+20
146
0.0
 13
0.0
 23
0.0
 33
0.0
 16
1.0
 26
0.0
 36
0.0
 17
0.0
 27
1.0
 37
0.0
 76
1
330
1B
  0
MATERIAL
  5
1F
102
{ACAD_REACTORS
330
E
102
}
330
E
100
AcDbMaterial
  1
ByBlock
  2

 70
0
 40
1.0
 71
1
 41
1.0
 91
-1023410177
 42
1.0
 72
1
  3

 73
1
 74
1
 75
1
 44
0.5
 73
0
 45
1.0
 46
1.0
 77
1
  4

 78
1
 79
1
170
1
 48
1.0
171
1
  6

172
1
173
1
174
1
140
1.0
141
1.0
175
1
  7

176
1
177
1
178
1
143
1.0
179
1
  8

270
1
271
1
272
1
145
1.0
146
1.0
273
1
  9

274
1
275
1
276
1
 42
1.0
 72
1
  3

 73
1
 74
1
 75
1
 94
63
  0
MATERIAL
  5
20
102
{ACAD_REACTORS
330
E
102
}
330
E
100
AcDbMaterial
  1
ByLayer
  2

 70
0
 40
1.0
 71
1
 41
1.0
 91
-1023410177
 42
1.0
 72
1
  3

 73
1
 74
1
 75
1
 44
0.5
 73
0
 45
1.0
 46
1.0
 77
1
  4

 78
1
 79
1
170
1
 48
1.0
171
1
  6

172
1
173
1
174
1
140
1.0
141
1.0
175
1
  7

176
1
177
1
178
1
143
1.0
179
1
  8

270
1
271
1
272
1
145
1.0
146
1.0
273
1
  9

274
1
275
1
276
1
 42
1.0
 72
1
  3

 73
1
 74
1
 75
1
 94
63
  0
MATERIAL
  5
21
102
{ACAD_REACTORS
330
E
102
}
330
E
100
AcDbMaterial
  1
Global
  2

 70
0
 40
1.0
 71
1
 41
1.0
 91
-1023410177
 42
1.0
 72
1
  3

 73
1
 74
1
 75
1
 44
0.5
 73
0
 45
1.0
 46
1.0
 77
1
  4

 78
1
 79
1
170
1
 48
1.0
171
1
  6

172
1
173
1
174
1
140
1.0
141
1.0
175
1
  7

176
1
177
1
178
1
143
1.0
179
1
  8

270
1
271
1
272
1
145
1.0
146
1.0
273
1
  9

274
1
275
1
276
1
 42
1.0
 72
1
  3

 73
1
 74
1
 75
1
 94
63
  0
MLINESTYLE
  5
22
102
{ACAD_REACTORS
330
10
102
}
330
10
100
AcDbMlineStyle
  2
Standard
 70
0
  3

 62
256
 51
90.0
 52
90.0
 71
2
 49
0.5
 62
256
  6
BYLAYER
 49
-0.5
 62
256
  6
BYLAYER
  0
MLEADERSTYLE
  5
2C
102
{ACAD_REACTORS
330
F
102
}
330
F
100
AcDbMLeaderStyle
179
2
170
2
171
1
172
0
 90
2
 40
0.0
 41
0.0
173
1
 91
-1056964608
 92
-2
290
1
 42
2.0
291
1
 43
8.0
  3
Standard
 44
4.0
300

342
29
174
1
175
1
176
0
178
1
 93
-1056964608
 45
4.0
292
0
297
0
 46
4.0
 94
-1056964608
 47
1.0
 49
1.0
140
1.0
294
1
141
0.0
177
0
142
1.0
295
0
296
0
143
3.75
271
0
272
9
273
9
  0
DICTIONARY
  5
2D
330
A
100
AcDbDictionary
280
1
281
1
  3
CREATED_BY_EZDXF
350
2E
  3
WRITTEN_BY_EZDXF
350
251
  0
DICTIONARYVAR
  5
2E
330
2D
100
DictionaryVariables
280
0
  1
1.4.3 @ 2026-04-08T00:18:18.464925+00:00
  0
DICTIONARYVAR
  5
251
330
2D
100
DictionaryVariables
280
0
  1
1.4.3 @ 2026-04-08T00:18:18.469626+00:00
  0
ENDSEC
  0
EOF
