  0
SECTION
  2
HEADER
  9
$ACADVER
  1
AC1024
  9
$ACADMAINTVER
 70
6
  9
$DWGCODEPAGE
  3
ANSI_1252
  9
$LASTSAVEDBY
  1
ezdxf
  9
$INSBASE
 10
0.0
 20
0.0
 30
0.0
  9
$EXTMIN
 10
1e+20
 20
1e+20
 30
1e+20
  9
$EXTMAX
 10
-1e+20
 20
-1e+20
 30
-1e+20
  9
$LIMMIN
 10
0.0
 20
0.0
  9
$LIMMAX
 10
420.0
 20
297.0
  9
$ORTHOMODE
 70
0
  9
$REGENMODE
 70
1
  9
$FILLMODE
 70
1
  9
$QTEXTMODE
 70
0
  9
$MIRRTEXT
 70
1
  9
$LTSCALE
 40
1.0
  9
$ATTMODE
 70
1
  9
$TEXTSIZE
 40
2.5
  9
$TRACEWID
 40
1.0
  9
$TEXTSTYLE
  7
Standard
  9
$CLAYER
  8
0
  9
$CELTYPE
  6
ByLayer
  9
$CECOLOR
 62
256
  9
$CELTSCALE
 40
1.0
  9
$DISPSILH
 70
0
  9
$DIMSCALE
 40
1.0
  9
$DIMASZ
 40
2.5
  9
$DIMEXO
 40
0.625
  9
$DIMDLI
 40
3.75
  9
$DIMRND
 40
0.0
  9
$DIMDLE
 40
0.0
  9
$DIMEXE
 40
1.25
  9
$DIMTP
 40
0.0
  9
$DIMTM
 40
0.0
  9
$DIMTXT
 40
2.5
  9
$DIMCEN
 40
2.5
  9
$DIMTSZ
 40
0.0
  9
$DIMTOL
 70
0
  9
$DIMLIM
 70
0
  9
$DIMTIH
 70
0
  9
$DIMTOH
 70
0
  9
$DIMSE1
 70
0
  9
$DIMSE2
 70
0
  9
$DIMTAD
 70
1
  9
$DIMZIN
 70
8
  9
$DIMBLK
  1

  9
$DIMASO
 70
1
  9
$DIMSHO
 70
1
  9
$DIMPOST
  1

  9
$DIMAPOST
  1

  9
$DIMALT
 70
0
  9
$DIMALTD
 70
3
  9
$DIMALTF
 40
0.03937007874
  9
$DIMLFAC
 40
1.0
  9
$DIMTOFL
 70
1
  9
$DIMTVP
 40
0.0
  9
$DIMTIX
 70
0
  9
$DIMSOXD
 70
0
  9
$DIMSAH
 70
0
  9
$DIMBLK1
  1

  9
$DIMBLK2
  1

  9
$DIMSTYLE
  2
ISO-25
  9
$DIMCLRD
 70
0
  9
$DIMCLRE
 70
0
  9
$DIMCLRT
 70
0
  9
$DIMTFAC
 40
1.0
  9
$DIMGAP
 40
0.625
  9
$DIMJUST
 70
0
  9
$DIMSD1
 70
0
  9
$DIMSD2
 70
0
  9
$DIMTOLJ
 70
0
  9
$DIMTZIN
 70
8
  9
$DIMALTZ
 70
0
  9
$DIMALTTZ
 70
0
  9
$DIMUPT
 70
0
  9
$DIMDEC
 70
2
  9
$DIMTDEC
 70
2
  9
$DIMALTU
 70
2
  9
$DIMALTTD
 70
3
  9
$DIMTXSTY
  7
Standard
  9
$DIMAUNIT
 70
0
  9
$DIMADEC
 70
0
  9
$DIMALTRND
 40
0.0
  9
$DIMAZIN
 70
0
  9
$DIMDSEP
 70
44
  9
$DIMATFIT
 70
3
  9
$DIMFRAC
 70
0
  9
$DIMLDRBLK
  1

  9
$DIMLUNIT
 70
2
  9
$DIMLWD
 70
-2
  9
$DIMLWE
 70
-2
  9
$DIMTMOVE
 70
0
  9
$DIMFXL
 40
1.0
  9
$DIMFXLON
 70
0
  9
$DIMJOGANG
 40
0.785398163397
  9
$DIMTFILL
 70
0
  9
$DIMTFILLCLR
 70
0
  9
$DIMARCSYM
 70
0
  9
$DIMLTYPE
  6

  9
$DIMLTEX1
  6

  9
$DIMLTEX2
  6

  9
$DIMTXTDIRECTION
 70
0
  9
$LUNITS
 70
2
  9
$LUPREC
 70
4
  9
$SKETCHINC
 40
1.0
  9
$FILLETRAD
 40
10.0
  9
$AUNITS
 70
0
  9
$AUPREC
 70
2
  9
$MENU
  1
.
  9
$ELEVATION
 40
0.0
  9
$PELEVATION
 40
0.0
  9
$THICKNESS
 40
0.0
  9
$LIMCHECK
 70
0
  9
$CHAMFERA
 40
0.0
  9
$CHAMFERB
 40
0.0
  9
$CHAMFERC
 40
0.0
  9
$CHAMFERD
 40
0.0
  9
$SKPOLY
 70
0
  9
$TDCREATE
 40
2461140.6092592594
  9
$TDUCREATE
 40
2458532.153996898
  9
$TDUPDATE
 40
2461140.6092592594
  9
$TDUUPDATE
 40
2458532.1544311
  9
$TDINDWG
 40
0.0
  9
$TDUSRTIMER
 40
0.0
  9
$USRTIMER
 70
1
  9
$ANGBASE
 50
0.0
  9
$ANGDIR
 70
0
  9
$PDMODE
 70
0
  9
$PDSIZE
 40
0.0
  9
$PLINEWID
 40
0.0
  9
$SPLFRAME
 70
0
  9
$SPLINETYPE
 70
6
  9
$SPLINESEGS
 70
8
  9
$HANDSEED
  5
17F
  9
$SURFTAB1
 70
6
  9
$SURFTAB2
 70
6
  9
$SURFTYPE
 70
6
  9
$SURFU
 70
6
  9
$SURFV
 70
6
  9
$UCSBASE
  2

  9
$UCSNAME
  2

  9
$UCSORG
 10
0.0
 20
0.0
 30
0.0
  9
$UCSXDIR
 10
1.0
 20
0.0
 30
0.0
  9
$UCSYDIR
 10
0.0
 20
1.0
 30
0.0
  9
$UCSORTHOREF
  2

  9
$UCSORTHOVIEW
 70
0
  9
$UCSORGTOP
 10
0.0
 20
0.0
 30
0.0
  9
$UCSORGBOTTOM
 10
0.0
 20
0.0
 30
0.0
  9
$UCSORGLEFT
 10
0.0
 20
0.0
 30
0.0
  9
$UCSORGRIGHT
 10
0.0
 20
0.0
 30
0.0
  9
$UCSORGFRONT
 10
0.0
 20
0.0
 30
0.0
  9
$UCSORGBACK
 10
0.0
 20
0.0
 30
0.0
  9
$PUCSBASE
  2

  9
$PUCSNAME
  2

  9
$PUCSORG
 10
0.0
 20
0.0
 30
0.0
  9
$PUCSXDIR
 10
1.0
 20
0.0
 30
0.0
  9
$PUCSYDIR
 10
0.0
 20
1.0
 30
0.0
  9
$PUCSORTHOREF
  2

  9
$PUCSORTHOVIEW
 70
0
  9
$PUCSORGTOP
 10
0.0
 20
0.0
 30
0.0
  9
$PUCSORGBOTTOM
 10
0.0
 20
0.0
 30
0.0
  9
$PUCSORGLEFT
 10
0.0
 20
0.0
 30
0.0
  9
$PUCSORGRIGHT
 10
0.0
 20
0.0
 30
0.0
  9
$PUCSORGFRONT
 10
0.0
 20
0.0
 30
0.0
  9
$PUCSORGBACK
 10
0.0
 20
0.0
 30
0.0
  9
$USERI1
 70
0
  9
$USERI2
 70
0
  9
$USERI3
 70
0
  9
$USERI4
 70
0
  9
$USERI5
 70
0
  9
$USERR1
 40
0.0
  9
$USERR2
 40
0.0
  9
$USERR3
 40
0.0
  9
$USERR4
 40
0.0
  9
$USERR5
 40
0.0
  9
$WORLDVIEW
 70
1
  9
$SHADEDGE
 70
3
  9
$SHADEDIF
 70
70
  9
$TILEMODE
 70
1
  9
$MAXACTVP
 70
64
  9
$PINSBASE
 10
0.0
 20
0.0
 30
0.0
  9
$PLIMCHECK
 70
0
  9
$PEXTMIN
 10
1e+20
 20
1e+20
 30
1e+20
  9
$PEXTMAX
 10
-1e+20
 20
-1e+20
 30
-1e+20
  9
$PLIMMIN
 10
0.0
 20
0.0
  9
$PLIMMAX
 10
420.0
 20
297.0
  9
$UNITMODE
 70
0
  9
$VISRETAIN
 70
1
  9
$PLINEGEN
 70
0
  9
$PSLTSCALE
 70
1
  9
$TREEDEPTH
 70
3020
  9
$CMLSTYLE
  2
Standard
  9
$CMLJUST
 70
0
  9
$CMLSCALE
 40
20.0
  9
$PROXYGRAPHICS
 70
1
  9
$MEASUREMENT
 70
1
  9
$CELWEIGHT
370
-1
  9
$ENDCAPS
280
0
  9
$JOINSTYLE
280
0
  9
$LWDISPLAY
290
0
  9
$INSUNITS
 70
4
  9
$HYPERLINKBASE
  1

  9
$STYLESHEET
  1

  9
$XEDIT
290
1
  9
$CEPSNTYPE
380
0
  9
$PSTYLEMODE
290
1
  9
$FINGERPRINTGUID
  2
{67327EB8-482F-4C31-9F95-63CA7136BC39}
  9
$VERSIONGUID
  2
{E21518C6-C180-4783-8A53-2FA0486F2425}
  9
$EXTNAMES
290
1
  9
$PSVPSCALE
 40
0.0
  9
$OLESTARTUP
290
0
  9
$SORTENTS
280
127
  9
$INDEXCTL
280
0
  9
$HIDETEXT
280
1
  9
$XCLIPFRAME
280
1
  9
$HALOGAP
280
0
  9
$OBSCOLOR
 70
257
  9
$OBSLTYPE
280
0
  9
$INTERSECTIONDISPLAY
280
0
  9
$INTERSECTIONCOLOR
 70
257
  9
$DIMASSOC
280
2
  9
$PROJECTNAME
  1

  9
$CAMERADISPLAY
290
0
  9
$LENSLENGTH
 40
50.0
  9
$CAMERAHEIGHT
 40
0.0
  9
$STEPSPERSEC
 40
24.0
  9
$STEPSIZE
 40
100.0
  9
$3DDWFPREC
 40
2.0
  9
$PSOLWIDTH
 40
0.005
  9
$PSOLHEIGHT
 40
0.08
  9
$LOFTANG1
 40
1.570796326795
  9
$LOFTANG2
 40
1.570796326795
  9
$LOFTMAG1
 40
0.0
  9
$LOFTMAG2
 40
0.0
  9
$LOFTPARAM
 70
7
  9
$LOFTNORMALS
280
1
  9
$LATITUDE
 40
37.795
  9
$LONGITUDE
 40
-122.394
  9
$NORTHDIRECTION
 40
0.0
  9
$TIMEZONE
 70
-8000
  9
$LIGHTGLYPHDISPLAY
280
1
  9
$TILEMODELIGHTSYNCH
280
1
  9
$CMATERIAL
347
20
  9
$SOLIDHIST
280
0
  9
$SHOWHIST
280
1
  9
$DWFFRAME
280
2
  9
$DGNFRAME
280
2
  9
$REALWORLDSCALE
290
1
  9
$INTERFERECOLOR
 62
256
  9
$CSHADOW
280
0
  9
$SHADOWPLANELOCATION
 40
0.0
  0
ENDSEC
  0
SECTION
  2
CLASSES
  0
CLASS
  1
ACDBDICTIONARYWDFLT
  2
AcDbDictionaryWithDefault
  3
ObjectDBX Classes
 90
0
 91
0
280
0
281
0
  0
CLASS
  1
SUN
  2
AcDbSun
  3
SCENEOE
 90
1153
 91
0
280
0
281
0
  0
CLASS
  1
VISUALSTYLE
  2
AcDbVisualStyle
  3
ObjectDBX Classes
 90
4095
 91
0
280
0
281
0
  0
CLASS
  1
MATERIAL
  2
AcDbMaterial
  3
ObjectDBX Classes
 90
1153
 91
0
280
0
281
0
  0
CLASS
  1
SCALE
  2
AcDbScale
  3
ObjectDBX Classes
 90
1153
 91
0
280
0
281
0
  0
CLASS
  1
TABLESTYLE
  2
AcDbTableStyle
  3
ObjectDBX Classes
 90
4095
 91
0
280
0
281
0
  0
CLASS
  1
MLEADERSTYLE
  2
AcDbMLeaderStyle
  3
ACDB_MLEADERSTYLE_CLASS
 90
4095
 91
0
280
0
281
0
  0
CLASS
  1
DICTIONARYVAR
  2
AcDbDictionaryVar
  3
ObjectDBX Classes
 90
0
 91
0
280
0
281
0
  0
CLASS
  1
CELLSTYLEMAP
  2
AcDbCellStyleMap
  3
ObjectDBX Classes
 90
1152
 91
0
280
0
281
0
  0
CLASS
  1
MENTALRAYRENDERSETTINGS
  2
AcDbMentalRayRenderSettings
  3
SCENEOE
 90
1024
 91
0
280
0
281
0
  0
CLASS
  1
ACDBDETAILVIEWSTYLE
  2
AcDbDetailViewStyle
  3
ObjectDBX Classes
 90
1025
 91
0
280
0
281
0
  0
CLASS
  1
ACDBSECTIONVIEWSTYLE
  2
AcDbSectionViewStyle
  3
ObjectDBX Classes
 90
1025
 91
0
280
0
281
0
  0
CLASS
  1
RASTERVARIABLES
  2
AcDbRasterVariables
  3
ISM
 90
0
 91
0
280
0
281
0
  0
CLASS
  1
LAYOUT
  2
AcDbLayout
  3
ObjectDBX Classes
 90
0
 91
0
280
0
281
0
  0
CLASS
  1
ACDBPLACEHOLDER
  2
AcDbPlaceHolder
  3
ObjectDBX Classes
 90
0
 91
0
280
0
281
0
  0
ENDSEC
  0
SECTION
  2
TABLES
  0
TABLE
  2
VPORT
  5
8
330
0
100
AcDbSymbolTable
 70
1
  0
VPORT
  5
23
330
8
100
AcDbSymbolTableRecord
100
AcDbViewportTableRecord
  2
*Active
 70
0
 10
0.0
 20
0.0
 11
1.0
 21
1.0
 12
0.0
 22
0.0
 13
0.0
 23
0.0
 14
0.5
 24
0.5
 15
0.5
 25
0.5
 16
0.0
 26
0.0
 36
1.0
 17
0.0
 27
0.0
 37
0.0
 40
1000.0
 41
1.34
 42
50.0
 43
0.0
 44
0.0
 50
0.0
 51
0.0
 71
0
 72
1000
 73
1
 74
3
 75
0
 76
0
 77
0
 78
0
281
0
 65
0
146
0.0
  0
ENDTAB
  0
TABLE
  2
LTYPE
  5
2
330
0
100
AcDbSymbolTable
 70
3
  0
LTYPE
  5
24
330
2
100
AcDbSymbolTableRecord
100
AcDbLinetypeTableRecord
  2
ByBlock
 70
0
  3

 72
65
 73
0
 40
0.0
  0
LTYPE
  5
25
330
2
100
AcDbSymbolTableRecord
100
AcDbLinetypeTableRecord
  2
ByLayer
 70
0
  3

 72
65
 73
0
 40
0.0
  0
LTYPE
  5
26
330
2
100
AcDbSymbolTableRecord
100
AcDbLinetypeTableRecord
  2
Continuous
 70
0
  3

 72
65
 73
0
 40
0.0
  0
ENDTAB
  0
TABLE
  2
LAYER
  5
1
330
0
100
AcDbSymbolTable
 70
2
  0
LAYER
  5
27
330
1
100
AcDbSymbolTableRecord
100
AcDbLayerTableRecord
  2
0
 70
0
 62
7
  6
Continuous
370
-3
390
13
347
21
  0
LAYER
  5
28
330
1
100
AcDbSymbolTableRecord
100
AcDbLayerTableRecord
  2
Defpoints
 70
0
 62
7
  6
Continuous
290
0
370
-3
390
13
347
21
  0
ENDTAB
  0
TABLE
  2
STYLE
  5
5
330
0
100
AcDbSymbolTable
 70
1
  0
STYLE
  5
29
330
5
100
AcDbSymbolTableRecord
100
AcDbTextStyleTableRecord
  2
Standard
 70
0
 40
0.0
 41
1.0
 50
0.0
 71
0
 42
2.5
  3
txt
  4

  0
ENDTAB
  0
TABLE
  2
VIEW
  5
7
330
0
100
AcDbSymbolTable
 70
0
  0
ENDTAB
  0
TABLE
  2
UCS
  5
6
330
0
100
AcDbSymbolTable
 70
0
  0
ENDTAB
  0
TABLE
  2
APPID
  5
3
330
0
100
AcDbSymbolTable
 70
3
  0
APPID
  5
2A
330
3
100
AcDbSymbolTableRecord
100
AcDbRegAppTableRecord
  2
ACAD
 70
0
  0
APPID
  5
17C
330
3
100
AcDbSymbolTableRecord
100
AcDbRegAppTableRecord
  2
HATCHBACKGROUNDCOLOR
 70
0
  0
APPID
  5
17D
330
3
100
AcDbSymbolTableRecord
100
AcDbRegAppTableRecord
  2
EZDXF
 70
0
  0
ENDTAB
  0
TABLE
  2
DIMSTYLE
  5
4
330
0
100
AcDbSymbolTable
 70
1
100
AcDbDimStyleTable
  0
DIMSTYLE
105
2B
330
4
100
AcDbSymbolTableRecord
100
AcDbDimStyleTableRecord
  2
Standard
 70
0
 40
1.0
 41
2.5
 42
0.625
 43
3.75
 44
1.25
 45
0.0
 46
0.0
 47
0.0
 48
0.0
 49
2.5
140
2.5
141
2.5
142
0.0
143
0.03937007874
144
1.0
145
0.0
146
1.0
147
0.625
148
0.0
 69
0
 70
0
 71
0
 72
0
 73
0
 74
0
 75
0
 76
0
 77
1
 78
8
 79
3
170
0
171
3
172
1
173
0
174
0
175
0
176
0
177
0
178
0
179
2
271
2
272
2
273
2
274
3
275
0
276
0
277
2
278
44
279
0
280
0
281
0
282
0
283
0
284
8
285
0
286
0
288
0
289
3
290
0
371
-2
372
-2
  0
ENDTAB
  0
TABLE
  2
BLOCK_RECORD
  5
9
330
0
100
AcDbSymbolTable
 70
3
  0
BLOCK_RECORD
  5
17
330
9
100
AcDbSymbolTableRecord
100
AcDbBlockTableRecord
  2
*Model_Space
340
1A
 70
0
280
1
281
0
  0
BLOCK_RECORD
  5
1B
330
9
100
AcDbSymbolTableRecord
100
AcDbBlockTableRecord
  2
*Paper_Space
340
1E
 70
0
280
1
281
0
  0
BLOCK_RECORD
  5
2F
330
9
100
AcDbSymbolTableRecord
100
AcDbBlockTableRecord
  2
HEX
340
0
 70
0
280
1
281
0
  0
ENDTAB
  0
ENDSEC
  0
SECTION
  2
BLOCKS
  0
BLOCK
  5
18
330
17
100
AcDbEntity
  8
0
100
AcDbBlockBegin
  2
*Model_Space
 70
0
 10
0.0
 20
0.0
 30
0.0
  3
*Model_Space
  1

  0
ENDBLK
  5
19
330
17
100
AcDbEntity
  8
0
100
AcDbBlockEnd
  0
BLOCK
  5
1C
330
1B
100
AcDbEntity
  8
0
100
AcDbBlockBegin
  2
*Paper_Space
 70
0
 10
0.0
 20
0.0
 30
0.0
  3
*Paper_Space
  1

  0
ENDBLK
  5
1D
330
1B
100
AcDbEntity
  8
0
100
AcDbBlockEnd
  0
BLOCK
  5
30
330
2F
100
AcDbEntity
  8
0
100
AcDbBlockBegin
  2
HEX
 70
0
 10
0.0
 20
0.0
 30
0.0
  3
HEX
  1

  0
LWPOLYLINE
  5
32
330
2F
100
AcDbEntity
  8
0
100
AcDbPolyline
 90
6
 70
1
 10
1.516
 20
0.875
 10
0.0
 20
1.75
 10
-1.516
 20
0.875
 10
-1.516
 20
-0.875
 10
-0.0
 20
-1.75
 10
1.516
 20
-0.875
  0
ENDBLK
  5
31
330
2F
100
AcDbEntity
  8
0
100
AcDbBlockEnd
  0
ENDSEC
  0
SECTION
  2
ENTITIES
  0
LWPOLYLINE
  5
33
330
17
100
AcDbEntity
  8
0
100
AcDbPolyline
 90
5
 70
1
 10
196.202
 20
-152.953
 10
197.12
 20
-152.423
 10
198.636
 20
-153.298
 10
198.636
 20
-153.686
 10
196.202
 20
-152.953
  0
LWPOLYLINE
  5
34
330
17
100
AcDbEntity
  8
0
100
AcDbPolyline
 90
13
 70
1
 10
201.04
 20
-152.918
 10
200.85
 20
-153.095
 10
200.645
 20
-153.253
 10
200.425
 20
-153.391
 10
200.194
 20
-153.506
 10
199.952
 20
-153.599
 10
199.701
 20
-153.668
 10
199.443
 20
-153.712
 10
199.136
 20
-153.73
 10
199.136
 20
-153.298
 10
200.651
 20
-152.423
 10
201.197
 20
-152.739
 10
201.04
 20
-152.918
  0
LWPOLYLINE
  5
35
330
17
100
AcDbEntity
  8
0
100
AcDbPolyline
 90
6
 70
1
 10
187.078
 20
-150.208
 10
186.94
 20
-150.146
 10
188.292
 20
-149.365
 10
189.808
 20
-150.24
 10
189.808
 20
-151.029
 10
187.078
 20
-150.208
  0
LWPOLYLINE
  5
36
330
17
100
AcDbEntity
  8
0
100
AcDbPolyline
 90
7
 70
1
 10
190.308
 20
-151.18
 10
190.308
 20
-150.24
 10
191.823
 20
-149.365
 10
193.339
 20
-150.24
 10
193.339
 20
-151.99
 10
193.223
 20
-152.057
 10
190.308
 20
-151.18
  0
LWPOLYLINE
  5
37
330
17
100
AcDbEntity
  8
0
100
AcDbPolyline
 90
8
 70
1
 10
194.751
 20
-152.517
 10
193.839
 20
-151.99
 10
193.839
 20
-150.24
 10
195.354
 20
-149.365
 10
196.87
 20
-150.24
 10
196.87
 20
-151.99
 10
195.545
 20
-152.755
 10
194.751
 20
-152.517
  0
INSERT
  5
38
330
17
100
AcDbEntity
  8
0
100
AcDbBlockReference
  2
HEX
 10
198.886
 20
-151.115
 30
0.0
  0
LWPOLYLINE
  5
3A
330
17
100
AcDbEntity
  8
0
100
AcDbPolyline
 90
6
 70
1
 10
201.61
 20
-152.027
 10
201.473
 20
-152.32
 10
200.901
 20
-151.99
 10
200.901
 20
-150.24
 10
202.323
 20
-149.419
 10
201.61
 20
-152.027
  0
LWPOLYLINE
  5
3B
330
17
100
AcDbEntity
  8
0
100
AcDbPolyline
 90
11
 70
1
 10
185.845
 20
-149.413
 10
185.54
 20
-149.083
 10
185.32
 20
-148.777
 10
185.132
 20
-148.452
 10
185.011
 20
-148.183
 10
185.011
 20
-147.182
 10
186.527
 20
-146.307
 10
188.042
 20
-147.182
 10
188.042
 20
-148.932
 10
186.527
 20
-149.807
 10
185.845
 20
-149.413
  0
INSERT
  5
3C
330
17
100
AcDbEntity
  8
0
100
AcDbBlockReference
  2
HEX
 10
190.058
 20
-148.057
 30
0.0
  0
INSERT
  5
3E
330
17
100
AcDbEntity
  8
0
100
AcDbBlockReference
  2
HEX
 10
193.589
 20
-148.057
 30
0.0
  0
INSERT
  5
40
330
17
100
AcDbEntity
  8
0
100
AcDbBlockReference
  2
HEX
 10
197.12
 20
-148.057
 30
0.0
  0
INSERT
  5
42
330
17
100
AcDbEntity
  8
0
100
AcDbBlockReference
  2
HEX
 10
200.651
 20
-148.057
 30
0.0
  0
LWPOLYLINE
  5
44
330
17
100
AcDbEntity
  8
0
100
AcDbPolyline
 90
4
 70
1
 10
202.667
 20
-148.164
 10
202.667
 20
-147.182
 10
202.986
 20
-146.998
 10
202.667
 20
-148.164
  0
LWPOLYLINE
  5
45
330
17
100
AcDbEntity
  8
0
100
AcDbPolyline
 90
8
 70
1
 10
184.731
 20
-146.732
 10
184.767
 20
-146.234
 10
184.847
 20
-145.846
 10
185.643
 20
-143.758
 10
186.277
 20
-144.124
 10
186.277
 20
-145.874
 10
184.761
 20
-146.749
 10
184.731
 20
-146.732
  0
INSERT
  5
46
330
17
100
AcDbEntity
  8
0
100
AcDbBlockReference
  2
HEX
 10
188.292
 20
-144.999
 30
0.0
  0
INSERT
  5
48
330
17
100
AcDbEntity
  8
0
100
AcDbBlockReference
  2
HEX
 10
191.823
 20
-144.999
 30
0.0
  0
INSERT
  5
4A
330
17
100
AcDbEntity
  8
0
100
AcDbBlockReference
  2
HEX
 10
195.354
 20
-144.999
 30
0.0
  0
INSERT
  5
4C
330
17
100
AcDbEntity
  8
0
100
AcDbBlockReference
  2
HEX
 10
198.886
 20
-144.999
 30
0.0
  0
LWPOLYLINE
  5
4E
330
17
100
AcDbEntity
  8
0
100
AcDbPolyline
 90
7
 70
1
 10
203.173
 20
-146.312
 10
202.417
 20
-146.749
 10
200.901
 20
-145.874
 10
200.901
 20
-144.124
 10
202.417
 20
-143.249
 10
203.794
 20
-144.044
 10
203.173
 20
-146.312
  0
LWPOLYLINE
  5
4F
330
17
100
AcDbEntity
  8
0
100
AcDbPolyline
 90
6
 70
1
 10
186.916
 20
-140.416
 10
188.042
 20
-141.066
 10
188.042
 20
-142.816
 10
186.527
 20
-143.691
 10
185.823
 20
-143.285
 10
186.916
 20
-140.416
  0
INSERT
  5
50
330
17
100
AcDbEntity
  8
0
100
AcDbBlockReference
  2
HEX
 10
190.058
 20
-141.941
 30
0.0
  0
INSERT
  5
52
330
17
100
AcDbEntity
  8
0
100
AcDbBlockReference
  2
HEX
 10
193.589
 20
-141.941
 30
0.0
  0
INSERT
  5
54
330
17
100
AcDbEntity
  8
0
100
AcDbBlockReference
  2
HEX
 10
197.12
 20
-141.941
 30
0.0
  0
INSERT
  5
56
330
17
100
AcDbEntity
  8
0
100
AcDbBlockReference
  2
HEX
 10
200.651
 20
-141.941
 30
0.0
  0
LWPOLYLINE
  5
58
330
17
100
AcDbEntity
  8
0
100
AcDbPolyline
 90
6
 70
1
 10
203.93
 20
-143.546
 10
202.667
 20
-142.816
 10
202.667
 20
-141.066
 10
204.182
 20
-140.191
 10
204.757
 20
-140.523
 10
203.93
 20
-143.546
  0
LWPOLYLINE
  5
59
330
17
100
AcDbEntity
  8
0
100
AcDbPolyline
 90
7
 70
1
 10
188.132
 20
-137.226
 10
188.292
 20
-137.133
 10
189.808
 20
-138.008
 10
189.808
 20
-139.758
 10
188.292
 20
-140.633
 10
187.097
 20
-139.943
 10
188.132
 20
-137.226
  0
INSERT
  5
5A
330
17
100
AcDbEntity
  8
0
100
AcDbBlockReference
  2
HEX
 10
191.823
 20
-138.883
 30
0.0
  0
INSERT
  5
5C
330
17
100
AcDbEntity
  8
0
100
AcDbBlockReference
  2
HEX
 10
195.354
 20
-138.883
 30
0.0
  0
INSERT
  5
5E
330
17
100
AcDbEntity
  8
0
100
AcDbBlockReference
  2
HEX
 10
198.886
 20
-138.883
 30
0.0
  0
INSERT
  5
60
330
17
100
AcDbEntity
  8
0
100
AcDbBlockReference
  2
HEX
 10
202.417
 20
-138.883
 30
0.0
  0
LWPOLYLINE
  5
62
330
17
100
AcDbEntity
  8
0
100
AcDbPolyline
 90
5
 70
1
 10
204.894
 20
-140.024
 10
204.432
 20
-139.758
 10
204.432
 20
-138.008
 10
205.635
 20
-137.314
 10
204.894
 20
-140.024
  0
LWPOLYLINE
  5
63
330
17
100
AcDbEntity
  8
0
100
AcDbPolyline
 90
8
 70
1
 10
189.128
 20
-134.612
 10
190.058
 20
-134.075
 10
191.573
 20
-134.95
 10
191.573
 20
-136.7
 10
190.058
 20
-137.575
 10
188.542
 20
-136.7
 10
188.542
 20
-136.149
 10
189.128
 20
-134.612
  0
INSERT
  5
64
330
17
100
AcDbEntity
  8
0
100
AcDbBlockReference
  2
HEX
 10
193.589
 20
-135.825
 30
0.0
  0
INSERT
  5
66
330
17
100
AcDbEntity
  8
0
100
AcDbBlockReference
  2
HEX
 10
197.12
 20
-135.825
 30
0.0
  0
INSERT
  5
68
330
17
100
AcDbEntity
  8
0
100
AcDbBlockReference
  2
HEX
 10
200.651
 20
-135.825
 30
0.0
  0
INSERT
  5
6A
330
17
100
AcDbEntity
  8
0
100
AcDbBlockReference
  2
HEX
 10
204.182
 20
-135.825
 30
0.0
  0
LWPOLYLINE
  5
6C
330
17
100
AcDbEntity
  8
0
100
AcDbPolyline
 90
4
 70
1
 10
206.198
 20
-135.257
 10
206.198
 20
-134.95
 10
206.297
 20
-134.893
 10
206.198
 20
-135.257
  0
LWPOLYLINE
  5
6D
330
17
100
AcDbEntity
  8
0
100
AcDbPolyline
 90
4
 70
1
 10
189.808
 20
-132.829
 10
189.808
 20
-133.642
 10
189.41
 20
-133.872
 10
189.808
 20
-132.829
  0
INSERT
  5
6E
330
17
100
AcDbEntity
  8
0
100
AcDbBlockReference
  2
HEX
 10
191.823
 20
-132.767
 30
0.0
  0
INSERT
  5
70
330
17
100
AcDbEntity
  8
0
100
AcDbBlockReference
  2
HEX
 10
195.354
 20
-132.767
 30
0.0
  0
INSERT
  5
72
330
17
100
AcDbEntity
  8
0
100
AcDbBlockReference
  2
HEX
 10
198.886
 20
-132.767
 30
0.0
  0
INSERT
  5
74
330
17
100
AcDbEntity
  8
0
100
AcDbBlockReference
  2
HEX
 10
202.417
 20
-132.767
 30
0.0
  0
LWPOLYLINE
  5
76
330
17
100
AcDbEntity
  8
0
100
AcDbPolyline
 90
7
 70
1
 10
206.485
 20
-134.207
 10
205.948
 20
-134.517
 10
204.432
 20
-133.642
 10
204.432
 20
-131.892
 10
205.948
 20
-131.017
 10
207.165
 20
-131.72
 10
206.485
 20
-134.207
  0
LWPOLYLINE
  5
77
330
17
100
AcDbEntity
  8
0
100
AcDbPolyline
 90
5
 70
1
 10
191.374
 20
-128.719
 10
191.573
 20
-128.834
 10
191.573
 20
-130.584
 10
190.407
 20
-131.258
 10
191.374
 20
-128.719
  0
INSERT
  5
78
330
17
100
AcDbEntity
  8
0
100
AcDbBlockReference
  2
HEX
 10
193.589
 20
-129.709
 30
0.0
  0
INSERT
  5
7A
330
17
100
AcDbEntity
  8
0
100
AcDbBlockReference
  2
HEX
 10
197.12
 20
-129.709
 30
0.0
  0
INSERT
  5
7C
330
17
100
AcDbEntity
  8
0
100
AcDbBlockReference
  2
HEX
 10
200.651
 20
-129.709
 30
0.0
  0
INSERT
  5
7E
330
17
100
AcDbEntity
  8
0
100
AcDbBlockReference
  2
HEX
 10
204.182
 20
-129.709
 30
0.0
  0
LWPOLYLINE
  5
80
330
17
100
AcDbEntity
  8
0
100
AcDbPolyline
 90
6
 70
1
 10
207.302
 20
-131.222
 10
206.198
 20
-130.584
 10
206.198
 20
-128.834
 10
207.713
 20
-127.959
 10
208.129
 20
-128.199
 10
207.302
 20
-131.222
  0
LWPOLYLINE
  5
81
330
17
100
AcDbEntity
  8
0
100
AcDbPolyline
 90
6
 70
1
 10
192.648
 20
-125.377
 10
193.339
 20
-125.776
 10
193.339
 20
-127.526
 10
191.823
 20
-128.401
 10
191.555
 20
-128.246
 10
192.648
 20
-125.377
  0
INSERT
  5
82
330
17
100
AcDbEntity
  8
0
100
AcDbBlockReference
  2
HEX
 10
195.354
 20
-126.651
 30
0.0
  0
INSERT
  5
84
330
17
100
AcDbEntity
  8
0
100
AcDbBlockReference
  2
HEX
 10
198.886
 20
-126.651
 30
0.0
  0
INSERT
  5
86
330
17
100
AcDbEntity
  8
0
100
AcDbBlockReference
  2
HEX
 10
202.417
 20
-126.651
 30
0.0
  0
INSERT
  5
88
330
17
100
AcDbEntity
  8
0
100
AcDbBlockReference
  2
HEX
 10
205.948
 20
-126.651
 30
0.0
  0
LWPOLYLINE
  5
8A
330
17
100
AcDbEntity
  8
0
100
AcDbPolyline
 90
5
 70
1
 10
208.265
 20
-127.7
 10
207.963
 20
-127.526
 10
207.963
 20
-125.776
 10
208.947
 20
-125.208
 10
208.265
 20
-127.7
  0
LWPOLYLINE
  5
8B
330
17
100
AcDbEntity
  8
0
100
AcDbPolyline
 90
6
 70
1
 10
193.922
 20
-122.035
 10
195.104
 20
-122.718
 10
195.104
 20
-124.468
 10
193.589
 20
-125.343
 10
192.828
 20
-124.904
 10
193.922
 20
-122.035
  0
INSERT
  5
8C
330
17
100
AcDbEntity
  8
0
100
AcDbBlockReference
  2
HEX
 10
197.12
 20
-123.593
 30
0.0
  0
INSERT
  5
8E
330
17
100
AcDbEntity
  8
0
100
AcDbBlockReference
  2
HEX
 10
200.651
 20
-123.593
 30
0.0
  0
INSERT
  5
90
330
17
100
AcDbEntity
  8
0
100
AcDbBlockReference
  2
HEX
 10
204.182
 20
-123.593
 30
0.0
  0
LWPOLYLINE
  5
92
330
17
100
AcDbEntity
  8
0
100
AcDbPolyline
 90
8
 70
1
 10
209.134
 20
-124.523
 10
207.713
 20
-125.343
 10
206.198
 20
-124.468
 10
206.198
 20
-122.718
 10
207.713
 20
-121.843
 10
209.229
 20
-122.718
 10
209.229
 20
-124.177
 10
209.134
 20
-124.523
  0
LWPOLYLINE
  5
93
330
17
100
AcDbEntity
  8
0
100
AcDbPolyline
 90
7
 70
1
 10
195.105
 20
-118.929
 10
195.354
 20
-118.785
 10
196.87
 20
-119.66
 10
196.87
 20
-121.41
 10
195.354
 20
-122.285
 10
194.102
 20
-121.562
 10
195.105
 20
-118.929
  0
INSERT
  5
94
330
17
100
AcDbEntity
  8
0
100
AcDbBlockReference
  2
HEX
 10
198.886
 20
-120.535
 30
0.0
  0
INSERT
  5
96
330
17
100
AcDbEntity
  8
0
100
AcDbBlockReference
  2
HEX
 10
202.417
 20
-120.535
 30
0.0
  0
INSERT
  5
98
330
17
100
AcDbEntity
  8
0
100
AcDbBlockReference
  2
HEX
 10
205.948
 20
-120.535
 30
0.0
  0
LWPOLYLINE
  5
9A
330
17
100
AcDbEntity
  8
0
100
AcDbPolyline
 90
7
 70
1
 10
209.797
 20
-122.102
 10
209.479
 20
-122.285
 10
207.963
 20
-121.41
 10
207.963
 20
-119.66
 10
209.479
 20
-118.785
 10
210.537
 20
-119.396
 10
209.797
 20
-122.102
  0
LWPOLYLINE
  5
9B
330
17
100
AcDbEntity
  8
0
100
AcDbPolyline
 90
8
 70
1
 10
196.102
 20
-116.315
 10
197.12
 20
-115.727
 10
198.636
 20
-116.602
 10
198.636
 20
-118.352
 10
197.12
 20
-119.227
 10
195.604
 20
-118.352
 10
195.604
 20
-117.62
 10
196.102
 20
-116.315
  0
INSERT
  5
9C
330
17
100
AcDbEntity
  8
0
100
AcDbBlockReference
  2
HEX
 10
200.651
 20
-117.477
 30
0.0
  0
INSERT
  5
9E
330
17
100
AcDbEntity
  8
0
100
AcDbBlockReference
  2
HEX
 10
204.182
 20
-117.477
 30
0.0
  0
INSERT
  5
A0
330
17
100
AcDbEntity
  8
0
100
AcDbBlockReference
  2
HEX
 10
207.713
 20
-117.477
 30
0.0
  0
LWPOLYLINE
  5
A2
330
17
100
AcDbEntity
  8
0
100
AcDbPolyline
 90
6
 70
1
 10
210.673
 20
-118.897
 10
209.729
 20
-118.352
 10
209.729
 20
-116.602
 10
211.244
 20
-115.727
 10
211.5
 20
-115.875
 10
210.673
 20
-118.897
  0
LWPOLYLINE
  5
A3
330
17
100
AcDbEntity
  8
0
100
AcDbPolyline
 90
4
 70
1
 10
196.87
 20
-114.299
 10
196.87
 20
-115.294
 10
196.384
 20
-115.575
 10
196.87
 20
-114.299
  0
INSERT
  5
A4
330
17
100
AcDbEntity
  8
0
100
AcDbBlockReference
  2
HEX
 10
198.886
 20
-114.419
 30
0.0
  0
INSERT
  5
A6
330
17
100
AcDbEntity
  8
0
100
AcDbBlockReference
  2
HEX
 10
202.417
 20
-114.419
 30
0.0
  0
INSERT
  5
A8
330
17
100
AcDbEntity
  8
0
100
AcDbBlockReference
  2
HEX
 10
205.948
 20
-114.419
 30
0.0
  0
INSERT
  5
AA
330
17
100
AcDbEntity
  8
0
100
AcDbBlockReference
  2
HEX
 10
209.479
 20
-114.419
 30
0.0
  0
LWPOLYLINE
  5
AC
330
17
100
AcDbEntity
  8
0
100
AcDbPolyline
 90
5
 70
1
 10
211.637
 20
-115.376
 10
211.494
 20
-115.294
 10
211.494
 20
-113.544
 10
212.259
 20
-113.103
 10
211.637
 20
-115.376
  0
LWPOLYLINE
  5
AD
330
17
100
AcDbEntity
  8
0
100
AcDbPolyline
 90
5
 70
1
 10
198.38
 20
-110.338
 10
198.636
 20
-110.486
 10
198.636
 20
-112.236
 10
197.38
 20
-112.961
 10
198.38
 20
-110.338
  0
INSERT
  5
AE
330
17
100
AcDbEntity
  8
0
100
AcDbBlockReference
  2
HEX
 10
200.651
 20
-111.361
 30
0.0
  0
INSERT
  5
B0
330
17
100
AcDbEntity
  8
0
100
AcDbBlockReference
  2
HEX
 10
204.182
 20
-111.361
 30
0.0
  0
INSERT
  5
B2
330
17
100
AcDbEntity
  8
0
100
AcDbBlockReference
  2
HEX
 10
207.713
 20
-111.361
 30
0.0
  0
LWPOLYLINE
  5
B4
330
17
100
AcDbEntity
  8
0
100
AcDbPolyline
 90
8
 70
1
 10
212.446
 20
-112.417
 10
211.244
 20
-113.111
 10
209.729
 20
-112.236
 10
209.729
 20
-110.486
 10
211.244
 20
-109.611
 10
212.76
 20
-110.486
 10
212.76
 20
-111.27
 10
212.446
 20
-112.417
  0
LWPOLYLINE
  5
B5
330
17
100
AcDbEntity
  8
0
100
AcDbPolyline
 90
6
 70
1
 10
214.039
 20
-110.72
 10
213.961
 20
-110.823
 10
214.23
 20
-109.926
 10
214.775
 20
-109.611
 10
215.066
 20
-109.779
 10
214.039
 20
-110.72
  0
LWPOLYLINE
  5
B6
330
17
100
AcDbEntity
  8
0
100
AcDbPolyline
 90
6
 70
1
 10
199.653
 20
-106.996
 10
200.401
 20
-107.428
 10
200.401
 20
-109.178
 10
198.886
 20
-110.053
 10
198.56
 20
-109.865
 10
199.653
 20
-106.996
  0
INSERT
  5
B7
330
17
100
AcDbEntity
  8
0
100
AcDbBlockReference
  2
HEX
 10
202.417
 20
-108.303
 30
0.0
  0
INSERT
  5
B9
330
17
100
AcDbEntity
  8
0
100
AcDbBlockReference
  2
HEX
 10
205.948
 20
-108.303
 30
0.0
  0
INSERT
  5
BB
330
17
100
AcDbEntity
  8
0
100
AcDbBlockReference
  2
HEX
 10
209.479
 20
-108.303
 30
0.0
  0
LWPOLYLINE
  5
BD
330
17
100
AcDbEntity
  8
0
100
AcDbPolyline
 90
10
 70
1
 10
213.759
 20
-107.22
 10
213.75
 20
-107.5
 10
213.714
 20
-107.782
 10
213.108
 20
-109.996
 10
213.01
 20
-110.053
 10
211.494
 20
-109.178
 10
211.494
 20
-107.428
 10
213.01
 20
-106.553
 10
213.744
 20
-106.977
 10
213.759
 20
-107.22
  0
LWPOLYLINE
  5
BE
330
17
100
AcDbEntity
  8
0
100
AcDbPolyline
 90
4
 70
1
 10
214.525
 20
-108.938
 10
214.525
 20
-109.178
 10
214.439
 20
-109.228
 10
214.525
 20
-108.938
  0
LWPOLYLINE
  5
BF
330
17
100
AcDbEntity
  8
0
100
AcDbPolyline
 90
9
 70
1
 10
217.118
 20
-107.591
 10
216.702
 20
-108.212
 10
216.465
 20
-108.497
 10
215.453
 20
-109.425
 10
215.025
 20
-109.178
 10
215.025
 20
-107.428
 10
216.541
 20
-106.553
 10
217.4
 20
-107.049
 10
217.118
 20
-107.591
  0
LWPOLYLINE
  5
C0
330
17
100
AcDbEntity
  8
0
100
AcDbPolyline
 90
7
 70
1
 10
223.347
 20
-107.819
 10
223.043
 20
-107.503
 10
222.914
 20
-107.16
 10
222.834
 20
-106.997
 10
223.603
 20
-106.553
 10
223.681
 20
-106.598
 10
223.347
 20
-107.819
  0
LWPOLYLINE
  5
C1
330
17
100
AcDbEntity
  8
0
100
AcDbPolyline
 90
8
 70
1
 10
200.691
 20
-104.274
 10
200.817
 20
-104.056
 10
201.06
 20
-103.731
 10
202.167
 20
-104.37
 10
202.167
 20
-106.12
 10
200.651
 20
-106.995
 10
199.834
 20
-106.523
 10
200.691
 20
-104.274
  0
INSERT
  5
C2
330
17
100
AcDbEntity
  8
0
100
AcDbBlockReference
  2
HEX
 10
204.182
 20
-105.245
 30
0.0
  0
INSERT
  5
C4
330
17
100
AcDbEntity
  8
0
100
AcDbBlockReference
  2
HEX
 10
207.713
 20
-105.245
 30
0.0
  0
LWPOLYLINE
  5
C6
330
17
100
AcDbEntity
  8
0
100
AcDbPolyline
 90
11
 70
1
 10
212.555
 20
-104.856
 10
212.76
 20
-105.024
 10
212.76
 20
-106.12
 10
211.244
 20
-106.995
 10
209.729
 20
-106.12
 10
209.729
 20
-104.37
 10
210.364
 20
-104.003
 10
211.808
 20
-104.449
 10
212.074
 20
-104.564
 10
212.323
 20
-104.699
 10
212.555
 20
-104.856
  0
LWPOLYLINE
  5
C7
330
17
100
AcDbEntity
  8
0
100
AcDbPolyline
 90
5
 70
1
 10
213.26
 20
-105.607
 10
213.432
 20
-105.897
 10
213.604
 20
-106.319
 10
213.26
 20
-106.12
 10
213.26
 20
-105.607
  0
LWPOLYLINE
  5
C8
330
17
100
AcDbEntity
  8
0
100
AcDbPolyline
 90
14
 70
1
 10
214.896
 20
-106.925
 10
214.894
 20
-106.425
 10
214.851
 20
-106.056
 10
214.775
 20
-105.691
 10
214.663
 20
-105.331
 10
214.51
 20
-104.978
 10
214.357
 20
-104.701
 10
214.219
 20
-104.504
 10
214.062
 20
-104.319
 10
213.791
 20
-104.063
 10
214.775
 20
-103.495
 10
216.291
 20
-104.37
 10
216.291
 20
-106.12
 10
214.896
 20
-106.925
  0
LWPOLYLINE
  5
C9
330
17
100
AcDbEntity
  8
0
100
AcDbPolyline
 90
7
 70
1
 10
217.599
 20
-106.587
 10
216.791
 20
-106.12
 10
216.791
 20
-104.37
 10
218.307
 20
-103.495
 10
218.53
 20
-103.624
 10
218.02
 20
-105.533
 10
217.599
 20
-106.587
  0
LWPOLYLINE
  5
CA
330
17
100
AcDbEntity
  8
0
100
AcDbPolyline
 90
11
 70
1
 10
222.585
 20
-106.564
 10
222.335
 20
-106.238
 10
222.077
 20
-105.977
 10
221.786
 20
-105.745
 10
221.463
 20
-105.546
 10
221.108
 20
-105.382
 10
221.611
 20
-103.626
 10
221.838
 20
-103.495
 10
223.353
 20
-104.37
 10
223.353
 20
-106.12
 10
222.585
 20
-106.564
  0
LWPOLYLINE
  5
CB
330
17
100
AcDbEntity
  8
0
100
AcDbPolyline
 90
4
 70
1
 10
223.853
 20
-105.968
 10
223.853
 20
-104.37
 10
224.372
 20
-104.07
 10
223.853
 20
-105.968
  0
LWPOLYLINE
  5
CC
330
17
100
AcDbEntity
  8
0
100
AcDbPolyline
 90
8
 70
1
 10
200.204
 20
-102.594
 10
200.006
 20
-102.777
 10
199.829
 20
-102.98
 10
199.697
 20
-102.187
 10
199.312
 20
-100.683
 10
200.401
 20
-101.312
 10
200.401
 20
-102.443
 10
200.204
 20
-102.594
  0
LWPOLYLINE
  5
CD
330
17
100
AcDbEntity
  8
0
100
AcDbPolyline
 90
10
 70
1
 10
201.607
 20
-103.261
 10
202.004
 20
-103.062
 10
202.452
 20
-102.919
 10
202.953
 20
-102.824
 10
203.51
 20
-102.767
 10
203.932
 20
-102.762
 10
203.932
 20
-103.062
 10
202.417
 20
-103.937
 10
201.442
 20
-103.374
 10
201.607
 20
-103.261
  0
LWPOLYLINE
  5
CE
330
17
100
AcDbEntity
  8
0
100
AcDbPolyline
 90
9
 70
1
 10
202.731
 20
-101.686
 10
202.07
 20
-101.783
 10
201.46
 20
-101.936
 10
200.901
 20
-102.153
 10
200.901
 20
-101.312
 10
202.417
 20
-100.437
 10
203.932
 20
-101.312
 10
203.932
 20
-101.645
 10
202.731
 20
-101.686
  0
LWPOLYLINE
  5
CF
330
17
100
AcDbEntity
  8
0
100
AcDbPolyline
 90
7
 70
1
 10
204.585
 20
-102.755
 10
205.696
 20
-102.844
 10
207.325
 20
-103.142
 10
205.948
 20
-103.937
 10
204.432
 20
-103.062
 10
204.432
 20
-102.756
 10
204.585
 20
-102.755
  0
LWPOLYLINE
  5
D0
330
17
100
AcDbEntity
  8
0
100
AcDbPolyline
 90
7
 70
1
 10
205.732
 20
-101.75
 10
204.432
 20
-101.656
 10
204.432
 20
-101.312
 10
205.948
 20
-100.437
 10
207.463
 20
-101.312
 10
207.463
 20
-102.096
 10
205.732
 20
-101.75
  0
LWPOLYLINE
  5
D1
330
17
100
AcDbEntity
  8
0
100
AcDbPolyline
 90
4
 70
1
 10
209.713
 20
-103.802
 10
209.479
 20
-103.937
 10
208.707
 20
-103.492
 10
209.713
 20
-103.802
  0
LWPOLYLINE
  5
D2
330
17
100
AcDbEntity
  8
0
100
AcDbPolyline
 90
6
 70
1
 10
207.963
 20
-102.197
 10
207.963
 20
-101.312
 10
209.479
 20
-100.437
 10
210.994
 20
-101.312
 10
210.994
 20
-102.803
 10
207.963
 20
-102.197
  0
LWPOLYLINE
  5
D3
330
17
100
AcDbEntity
  8
0
100
AcDbPolyline
 90
9
 70
1
 10
213.35
 20
-103.741
 10
212.805
 20
-103.43
 10
212.303
 20
-103.207
 10
211.494
 20
-102.936
 10
211.494
 20
-101.312
 10
213.01
 20
-100.437
 10
214.525
 20
-101.312
 10
214.525
 20
-103.062
 10
213.35
 20
-103.741
  0
INSERT
  5
D4
330
17
100
AcDbEntity
  8
0
100
AcDbBlockReference
  2
HEX
 10
216.541
 20
-102.187
 30
0.0
  0
LWPOLYLINE
  5
D6
330
17
100
AcDbEntity
  8
0
100
AcDbPolyline
 90
5
 70
1
 10
218.663
 20
-103.124
 10
218.557
 20
-103.062
 10
218.557
 20
-101.312
 10
219.254
 20
-100.909
 10
218.663
 20
-103.124
  0
LWPOLYLINE
  5
D7
330
17
100
AcDbEntity
  8
0
100
AcDbPolyline
 90
10
 70
1
 10
224.921
 20
-102.063
 10
224.56
 20
-103.385
 10
223.603
 20
-103.937
 10
222.088
 20
-103.062
 10
222.088
 20
-101.959
 10
222.31
 20
-101.184
 10
223.603
 20
-100.437
 10
225.119
 20
-101.312
 10
225.119
 20
-101.557
 10
224.921
 20
-102.063
  0
LWPOLYLINE
  5
D8
330
17
100
AcDbEntity
  8
0
100
AcDbPolyline
 90
4
 70
1
 10
198.221
 20
-98.015
 10
198.636
 20
-98.254
 10
198.636
 20
-98.877
 10
198.221
 20
-98.015
  0
INSERT
  5
D9
330
17
100
AcDbEntity
  8
0
100
AcDbBlockReference
  2
HEX
 10
200.651
 20
-99.129
 30
0.0
  0
INSERT
  5
DB
330
17
100
AcDbEntity
  8
0
100
AcDbBlockReference
  2
HEX
 10
204.182
 20
-99.129
 30
0.0
  0
INSERT
  5
DD
330
17
100
AcDbEntity
  8
0
100
AcDbBlockReference
  2
HEX
 10
207.713
 20
-99.129
 30
0.0
  0
INSERT
  5
DF
330
17
100
AcDbEntity
  8
0
100
AcDbBlockReference
  2
HEX
 10
211.244
 20
-99.129
 30
0.0
  0
INSERT
  5
E1
330
17
100
AcDbEntity
  8
0
100
AcDbBlockReference
  2
HEX
 10
214.775
 20
-99.129
 30
0.0
  0
LWPOLYLINE
  5
E3
330
17
100
AcDbEntity
  8
0
100
AcDbPolyline
 90
8
 70
1
 10
219.436
 20
-100.227
 10
218.307
 20
-100.879
 10
216.791
 20
-100.004
 10
216.791
 20
-98.254
 10
218.307
 20
-97.379
 10
219.822
 20
-98.254
 10
219.822
 20
-98.782
 10
219.436
 20
-100.227
  0
LWPOLYLINE
  5
E4
330
17
100
AcDbEntity
  8
0
100
AcDbPolyline
 90
5
 70
1
 10
223.177
 20
-98.152
 10
223.353
 20
-98.254
 10
223.353
 20
-100.004
 10
222.508
 20
-100.492
 10
223.177
 20
-98.152
  0
LWPOLYLINE
  5
E5
330
17
100
AcDbEntity
  8
0
100
AcDbPolyline
 90
11
 70
1
 10
226.884
 20
-99.153
 10
226.414
 20
-99.58
 10
226.062
 20
-99.973
 10
225.733
 20
-100.415
 10
225.492
 20
-100.808
 10
225.369
 20
-100.879
 10
223.853
 20
-100.004
 10
223.853
 20
-98.254
 10
225.369
 20
-97.379
 10
226.884
 20
-98.254
 10
226.884
 20
-99.153
  0
LWPOLYLINE
  5
E6
330
17
100
AcDbEntity
  8
0
100
AcDbPolyline
 90
8
 70
1
 10
229.144
 20
-97.952
 10
228.358
 20
-98.245
 10
227.56
 20
-98.665
 10
227.384
 20
-98.782
 10
227.384
 20
-98.254
 10
228.9
 20
-97.379
 10
229.66
 20
-97.818
 10
229.144
 20
-97.952
  0
LWPOLYLINE
  5
E7
330
17
100
AcDbEntity
  8
0
100
AcDbPolyline
 90
7
 70
1
 10
232.618
 20
-97.926
 10
232.492
 20
-97.862
 10
232.218
 20
-97.76
 10
231.902
 20
-97.685
 10
232.431
 20
-97.379
 10
233.378
 20
-97.926
 10
232.618
 20
-97.926
  0
LWPOLYLINE
  5
E8
330
17
100
AcDbEntity
  8
0
100
AcDbPolyline
 90
4
 70
1
 10
235.015
 20
-97.926
 10
235.962
 20
-97.379
 10
236.909
 20
-97.926
 10
235.015
 20
-97.926
  0
LWPOLYLINE
  5
E9
330
17
100
AcDbEntity
  8
0
100
AcDbPolyline
 90
4
 70
1
 10
238.546
 20
-97.926
 10
239.493
 20
-97.379
 10
240.44
 20
-97.926
 10
238.546
 20
-97.926
  0
LWPOLYLINE
  5
EA
330
17
100
AcDbEntity
  8
0
100
AcDbPolyline
 90
4
 70
1
 10
242.077
 20
-97.926
 10
243.024
 20
-97.379
 10
243.971
 20
-97.926
 10
242.077
 20
-97.926
  0
LWPOLYLINE
  5
EB
330
17
100
AcDbEntity
  8
0
100
AcDbPolyline
 90
4
 70
1
 10
245.608
 20
-97.926
 10
246.555
 20
-97.379
 10
247.502
 20
-97.926
 10
245.608
 20
-97.926
  0
LWPOLYLINE
  5
EC
330
17
100
AcDbEntity
  8
0
100
AcDbPolyline
 90
4
 70
1
 10
249.14
 20
-97.926
 10
250.086
 20
-97.379
 10
251.033
 20
-97.926
 10
249.14
 20
-97.926
  0
LWPOLYLINE
  5
ED
330
17
100
AcDbEntity
  8
0
100
AcDbPolyline
 90
4
 70
1
 10
252.671
 20
-97.926
 10
253.617
 20
-97.379
 10
254.564
 20
-97.926
 10
252.671
 20
-97.926
  0
LWPOLYLINE
  5
EE
330
17
100
AcDbEntity
  8
0
100
AcDbPolyline
 90
4
 70
1
 10
256.202
 20
-97.926
 10
257.149
 20
-97.379
 10
258.095
 20
-97.926
 10
256.202
 20
-97.926
  0
LWPOLYLINE
  5
EF
330
17
100
AcDbEntity
  8
0
100
AcDbPolyline
 90
4
 70
1
 10
196.281
 20
-94.856
 10
196.87
 20
-95.196
 10
196.87
 20
-95.692
 10
196.281
 20
-94.856
  0
LWPOLYLINE
  5
F0
330
17
100
AcDbEntity
  8
0
100
AcDbPolyline
 90
8
 70
1
 10
197.37
 20
-96.476
 10
197.37
 20
-95.196
 10
198.886
 20
-94.321
 10
200.401
 20
-95.196
 10
200.401
 20
-96.946
 10
198.886
 20
-97.821
 10
197.791
 20
-97.189
 10
197.37
 20
-96.476
  0
INSERT
  5
F1
330
17
100
AcDbEntity
  8
0
100
AcDbBlockReference
  2
HEX
 10
202.417
 20
-96.071
 30
0.0
  0
INSERT
  5
F3
330
17
100
AcDbEntity
  8
0
100
AcDbBlockReference
  2
HEX
 10
205.948
 20
-96.071
 30
0.0
  0
INSERT
  5
F5
330
17
100
AcDbEntity
  8
0
100
AcDbBlockReference
  2
HEX
 10
209.479
 20
-96.071
 30
0.0
  0
INSERT
  5
F7
330
17
100
AcDbEntity
  8
0
100
AcDbBlockReference
  2
HEX
 10
213.01
 20
-96.071
 30
0.0
  0
INSERT
  5
F9
330
17
100
AcDbEntity
  8
0
100
AcDbBlockReference
  2
HEX
 10
216.541
 20
-96.071
 30
0.0
  0
LWPOLYLINE
  5
FB
330
17
100
AcDbEntity
  8
0
100
AcDbPolyline
 90
6
 70
1
 10
220.08
 20
-97.817
 10
218.557
 20
-96.946
 10
218.557
 20
-95.196
 10
220.072
 20
-94.321
 10
220.887
 20
-94.792
 10
220.08
 20
-97.817
  0
LWPOLYLINE
  5
FC
330
17
100
AcDbEntity
  8
0
100
AcDbPolyline
 90
6
 70
1
 10
224.179
 20
-94.653
 10
225.119
 20
-95.196
 10
225.119
 20
-96.946
 10
223.603
 20
-97.821
 10
223.319
 20
-97.657
 10
224.179
 20
-94.653
  0
INSERT
  5
FD
330
17
100
AcDbEntity
  8
0
100
AcDbBlockReference
  2
HEX
 10
227.134
 20
-96.071
 30
0.0
  0
LWPOLYLINE
  5
FF
330
17
100
AcDbEntity
  8
0
100
AcDbPolyline
 90
9
 70
1
 10
230.662
 20
-97.641
 10
230.418
 20
-97.678
 10
229.15
 20
-96.946
 10
229.15
 20
-95.196
 10
230.665
 20
-94.321
 10
232.181
 20
-95.196
 10
232.181
 20
-96.946
 10
230.995
 20
-97.631
 10
230.662
 20
-97.641
  0
INSERT
  5
100
330
17
100
AcDbEntity
  8
0
100
AcDbBlockReference
  2
HEX
 10
234.196
 20
-96.071
 30
0.0
  0
INSERT
  5
102
330
17
100
AcDbEntity
  8
0
100
AcDbBlockReference
  2
HEX
 10
237.728
 20
-96.071
 30
0.0
  0
INSERT
  5
104
330
17
100
AcDbEntity
  8
0
100
AcDbBlockReference
  2
HEX
 10
241.259
 20
-96.071
 30
0.0
  0
INSERT
  5
106
330
17
100
AcDbEntity
  8
0
100
AcDbBlockReference
  2
HEX
 10
244.79
 20
-96.071
 30
0.0
  0
INSERT
  5
108
330
17
100
AcDbEntity
  8
0
100
AcDbBlockReference
  2
HEX
 10
248.321
 20
-96.071
 30
0.0
  0
INSERT
  5
10A
330
17
100
AcDbEntity
  8
0
100
AcDbBlockReference
  2
HEX
 10
251.852
 20
-96.071
 30
0.0
  0
INSERT
  5
10C
330
17
100
AcDbEntity
  8
0
100
AcDbBlockReference
  2
HEX
 10
255.383
 20
-96.071
 30
0.0
  0
LWPOLYLINE
  5
10E
330
17
100
AcDbEntity
  8
0
100
AcDbPolyline
 90
8
 70
1
 10
260.241
 20
-96.239
 10
258.849
 20
-97.783
 10
257.399
 20
-96.946
 10
257.399
 20
-95.196
 10
258.914
 20
-94.321
 10
260.43
 20
-95.196
 10
260.43
 20
-96.078
 10
260.241
 20
-96.239
  0
LWPOLYLINE
  5
10F
330
17
100
AcDbEntity
  8
0
100
AcDbPolyline
 90
7
 70
1
 10
261.969
 20
-94.91
 10
261.073
 20
-95.529
 10
260.93
 20
-95.651
 10
260.93
 20
-95.196
 10
262.445
 20
-94.321
 10
262.736
 20
-94.489
 10
261.969
 20
-94.91
  0
LWPOLYLINE
  5
110
330
17
100
AcDbEntity
  8
0
100
AcDbPolyline
 90
6
 70
1
 10
195.038
 20
-93.323
 10
193.164
 20
-91.508
 10
193.589
 20
-91.263
 10
195.104
 20
-92.138
 10
195.104
 20
-93.403
 10
195.038
 20
-93.323
  0
INSERT
  5
111
330
17
100
AcDbEntity
  8
0
100
AcDbBlockReference
  2
HEX
 10
197.12
 20
-93.013
 30
0.0
  0
INSERT
  5
113
330
17
100
AcDbEntity
  8
0
100
AcDbBlockReference
  2
HEX
 10
200.651
 20
-93.013
 30
0.0
  0
INSERT
  5
115
330
17
100
AcDbEntity
  8
0
100
AcDbBlockReference
  2
HEX
 10
204.182
 20
-93.013
 30
0.0
  0
INSERT
  5
117
330
17
100
AcDbEntity
  8
0
100
AcDbBlockReference
  2
HEX
 10
207.713
 20
-93.013
 30
0.0
  0
INSERT
  5
119
330
17
100
AcDbEntity
  8
0
100
AcDbBlockReference
  2
HEX
 10
211.244
 20
-93.013
 30
0.0
  0
INSERT
  5
11B
330
17
100
AcDbEntity
  8
0
100
AcDbBlockReference
  2
HEX
 10
214.775
 20
-93.013
 30
0.0
  0
INSERT
  5
11D
330
17
100
AcDbEntity
  8
0
100
AcDbBlockReference
  2
HEX
 10
218.307
 20
-93.013
 30
0.0
  0
LWPOLYLINE
  5
11F
330
17
100
AcDbEntity
  8
0
100
AcDbPolyline
 90
5
 70
1
 10
221.021
 20
-94.291
 10
220.322
 20
-93.888
 10
220.322
 20
-92.138
 10
221.828
 20
-91.269
 10
221.021
 20
-94.291
  0
LWPOLYLINE
  5
120
330
17
100
AcDbEntity
  8
0
100
AcDbPolyline
 90
7
 70
1
 10
225.106
 20
-91.414
 10
225.369
 20
-91.263
 10
226.884
 20
-92.138
 10
226.884
 20
-93.888
 10
225.369
 20
-94.763
 10
224.321
 20
-94.158
 10
225.106
 20
-91.414
  0
INSERT
  5
121
330
17
100
AcDbEntity
  8
0
100
AcDbBlockReference
  2
HEX
 10
228.9
 20
-93.013
 30
0.0
  0
INSERT
  5
123
330
17
100
AcDbEntity
  8
0
100
AcDbBlockReference
  2
HEX
 10
232.431
 20
-93.013
 30
0.0
  0
INSERT
  5
125
330
17
100
AcDbEntity
  8
0
100
AcDbBlockReference
  2
HEX
 10
235.962
 20
-93.013
 30
0.0
  0
INSERT
  5
127
330
17
100
AcDbEntity
  8
0
100
AcDbBlockReference
  2
HEX
 10
239.493
 20
-93.013
 30
0.0
  0
INSERT
  5
129
330
17
100
AcDbEntity
  8
0
100
AcDbBlockReference
  2
HEX
 10
243.024
 20
-93.013
 30
0.0
  0
INSERT
  5
12B
330
17
100
AcDbEntity
  8
0
100
AcDbBlockReference
  2
HEX
 10
246.555
 20
-93.013
 30
0.0
  0
INSERT
  5
12D
330
17
100
AcDbEntity
  8
0
100
AcDbBlockReference
  2
HEX
 10
250.086
 20
-93.013
 30
0.0
  0
INSERT
  5
12F
330
17
100
AcDbEntity
  8
0
100
AcDbBlockReference
  2
HEX
 10
253.617
 20
-93.013
 30
0.0
  0
INSERT
  5
131
330
17
100
AcDbEntity
  8
0
100
AcDbBlockReference
  2
HEX
 10
257.149
 20
-93.013
 30
0.0
  0
INSERT
  5
133
330
17
100
AcDbEntity
  8
0
100
AcDbBlockReference
  2
HEX
 10
260.68
 20
-93.013
 30
0.0
  0
LWPOLYLINE
  5
135
330
17
100
AcDbEntity
  8
0
100
AcDbPolyline
 90
9
 70
1
 10
264.961
 20
-93.646
 10
263.921
 20
-93.965
 10
263.29
 20
-94.231
 10
262.695
 20
-93.888
 10
262.695
 20
-92.138
 10
264.211
 20
-91.263
 10
265.726
 20
-92.138
 10
265.726
 20
-93.495
 10
264.961
 20
-93.646
  0
LWPOLYLINE
  5
136
330
17
100
AcDbEntity
  8
0
100
AcDbPolyline
 90
7
 70
1
 10
267.133
 20
-93.333
 10
266.226
 20
-93.416
 10
266.226
 20
-92.138
 10
267.742
 20
-91.263
 10
269.257
 20
-92.138
 10
269.257
 20
-93.29
 10
267.133
 20
-93.333
  0
LWPOLYLINE
  5
137
330
17
100
AcDbEntity
  8
0
100
AcDbPolyline
 90
6
 70
1
 10
269.757
 20
-93.28
 10
269.757
 20
-92.138
 10
271.273
 20
-91.263
 10
272.788
 20
-92.138
 10
272.788
 20
-93.218
 10
269.757
 20
-93.28
  0
LWPOLYLINE
  5
138
330
17
100
AcDbEntity
  8
0
100
AcDbPolyline
 90
6
 70
1
 10
273.288
 20
-93.208
 10
273.288
 20
-92.138
 10
274.804
 20
-91.263
 10
276.32
 20
-92.138
 10
276.32
 20
-93.146
 10
273.288
 20
-93.208
  0
LWPOLYLINE
  5
139
330
17
100
AcDbEntity
  8
0
100
AcDbPolyline
 90
6
 70
1
 10
276.82
 20
-93.136
 10
276.82
 20
-92.138
 10
278.335
 20
-91.263
 10
279.851
 20
-92.138
 10
279.851
 20
-93.075
 10
276.82
 20
-93.136
  0
LWPOLYLINE
  5
13A
330
17
100
AcDbEntity
  8
0
100
AcDbPolyline
 90
6
 70
1
 10
280.351
 20
-93.065
 10
280.351
 20
-92.138
 10
281.866
 20
-91.263
 10
283.382
 20
-92.138
 10
283.382
 20
-93.003
 10
280.351
 20
-93.065
  0
LWPOLYLINE
  5
13B
330
17
100
AcDbEntity
  8
0
100
AcDbPolyline
 90
6
 70
1
 10
283.882
 20
-92.993
 10
283.882
 20
-92.138
 10
285.397
 20
-91.263
 10
286.913
 20
-92.138
 10
286.913
 20
-92.931
 10
283.882
 20
-92.993
  0
LWPOLYLINE
  5
13C
330
17
100
AcDbEntity
  8
0
100
AcDbPolyline
 90
9
 70
1
 10
288.237
 20
-92.502
 10
288.16
 20
-92.685
 10
288.063
 20
-92.794
 10
287.982
 20
-92.85
 10
287.793
 20
-92.913
 10
287.413
 20
-92.921
 10
287.413
 20
-92.138
 10
288.284
 20
-91.635
 10
288.237
 20
-92.502
  0
LWPOLYLINE
  5
13D
330
17
100
AcDbEntity
  8
0
100
AcDbPolyline
 90
14
 70
1
 10
192.623
 20
-90.946
 10
192.475
 20
-90.702
 10
192.381
 20
-90.427
 10
192.358
 20
-90.14
 10
192.377
 20
-90.0
 10
192.418
 20
-89.867
 10
192.525
 20
-89.685
 10
192.706
 20
-89.523
 10
192.812
 20
-89.464
 10
193.045
 20
-89.383
 10
193.339
 20
-89.337
 10
193.339
 20
-90.83
 10
192.792
 20
-91.145
 10
192.623
 20
-90.946
  0
LWPOLYLINE
  5
13E
330
17
100
AcDbEntity
  8
0
100
AcDbPolyline
 90
6
 70
1
 10
196.87
 20
-89.327
 10
196.87
 20
-90.83
 10
195.354
 20
-91.705
 10
193.839
 20
-90.83
 10
193.839
 20
-89.327
 10
196.87
 20
-89.327
  0
LWPOLYLINE
  5
13F
330
17
100
AcDbEntity
  8
0
100
AcDbPolyline
 90
6
 70
1
 10
200.401
 20
-89.327
 10
200.401
 20
-90.83
 10
198.886
 20
-91.705
 10
197.37
 20
-90.83
 10
197.37
 20
-89.327
 10
200.401
 20
-89.327
  0
LWPOLYLINE
  5
140
330
17
100
AcDbEntity
  8
0
100
AcDbPolyline
 90
6
 70
1
 10
203.932
 20
-89.327
 10
203.932
 20
-90.83
 10
202.417
 20
-91.705
 10
200.901
 20
-90.83
 10
200.901
 20
-89.327
 10
203.932
 20
-89.327
  0
LWPOLYLINE
  5
141
330
17
100
AcDbEntity
  8
0
100
AcDbPolyline
 90
6
 70
1
 10
207.463
 20
-89.327
 10
207.463
 20
-90.83
 10
205.948
 20
-91.705
 10
204.432
 20
-90.83
 10
204.432
 20
-89.327
 10
207.463
 20
-89.327
  0
LWPOLYLINE
  5
142
330
17
100
AcDbEntity
  8
0
100
AcDbPolyline
 90
6
 70
1
 10
210.994
 20
-89.327
 10
210.994
 20
-90.83
 10
209.479
 20
-91.705
 10
207.963
 20
-90.83
 10
207.963
 20
-89.327
 10
210.994
 20
-89.327
  0
LWPOLYLINE
  5
143
330
17
100
AcDbEntity
  8
0
100
AcDbPolyline
 90
6
 70
1
 10
214.525
 20
-89.327
 10
214.525
 20
-90.83
 10
213.01
 20
-91.705
 10
211.494
 20
-90.83
 10
211.494
 20
-89.327
 10
214.525
 20
-89.327
  0
LWPOLYLINE
  5
144
330
17
100
AcDbEntity
  8
0
100
AcDbPolyline
 90
6
 70
1
 10
218.057
 20
-89.327
 10
218.057
 20
-90.83
 10
216.541
 20
-91.705
 10
215.025
 20
-90.83
 10
215.025
 20
-89.327
 10
218.057
 20
-89.327
  0
LWPOLYLINE
  5
145
330
17
100
AcDbEntity
  8
0
100
AcDbPolyline
 90
6
 70
1
 10
221.588
 20
-89.326
 10
221.588
 20
-90.83
 10
220.072
 20
-91.705
 10
218.557
 20
-90.83
 10
218.557
 20
-89.327
 10
221.588
 20
-89.326
  0
LWPOLYLINE
  5
146
330
17
100
AcDbEntity
  8
0
100
AcDbPolyline
 90
4
 70
1
 10
222.346
 20
-89.326
 10
222.088
 20
-90.294
 10
222.088
 20
-89.326
 10
222.346
 20
-89.326
  0
LWPOLYLINE
  5
147
330
17
100
AcDbEntity
  8
0
100
AcDbPolyline
 90
8
 70
1
 10
225.805
 20
-88.972
 10
227.134
 20
-88.205
 10
228.65
 20
-89.08
 10
228.65
 20
-90.83
 10
227.134
 20
-91.705
 10
225.619
 20
-90.83
 10
225.619
 20
-89.624
 10
225.805
 20
-88.972
  0
INSERT
  5
148
330
17
100
AcDbEntity
  8
0
100
AcDbBlockReference
  2
HEX
 10
230.665
 20
-89.955
 30
0.0
  0
INSERT
  5
14A
330
17
100
AcDbEntity
  8
0
100
AcDbBlockReference
  2
HEX
 10
234.196
 20
-89.955
 30
0.0
  0
INSERT
  5
14C
330
17
100
AcDbEntity
  8
0
100
AcDbBlockReference
  2
HEX
 10
237.728
 20
-89.955
 30
0.0
  0
INSERT
  5
14E
330
17
100
AcDbEntity
  8
0
100
AcDbBlockReference
  2
HEX
 10
241.259
 20
-89.955
 30
0.0
  0
INSERT
  5
150
330
17
100
AcDbEntity
  8
0
100
AcDbBlockReference
  2
HEX
 10
244.79
 20
-89.955
 30
0.0
  0
INSERT
  5
152
330
17
100
AcDbEntity
  8
0
100
AcDbBlockReference
  2
HEX
 10
248.321
 20
-89.955
 30
0.0
  0
INSERT
  5
154
330
17
100
AcDbEntity
  8
0
100
AcDbBlockReference
  2
HEX
 10
251.852
 20
-89.955
 30
0.0
  0
INSERT
  5
156
330
17
100
AcDbEntity
  8
0
100
AcDbBlockReference
  2
HEX
 10
255.383
 20
-89.955
 30
0.0
  0
INSERT
  5
158
330
17
100
AcDbEntity
  8
0
100
AcDbBlockReference
  2
HEX
 10
258.914
 20
-89.955
 30
0.0
  0
INSERT
  5
15A
330
17
100
AcDbEntity
  8
0
100
AcDbBlockReference
  2
HEX
 10
262.445
 20
-89.955
 30
0.0
  0
INSERT
  5
15C
330
17
100
AcDbEntity
  8
0
100
AcDbBlockReference
  2
HEX
 10
265.976
 20
-89.955
 30
0.0
  0
INSERT
  5
15E
330
17
100
AcDbEntity
  8
0
100
AcDbBlockReference
  2
HEX
 10
269.507
 20
-89.955
 30
0.0
  0
INSERT
  5
160
330
17
100
AcDbEntity
  8
0
100
AcDbBlockReference
  2
HEX
 10
273.038
 20
-89.955
 30
0.0
  0
INSERT
  5
162
330
17
100
AcDbEntity
  8
0
100
AcDbBlockReference
  2
HEX
 10
276.57
 20
-89.955
 30
0.0
  0
INSERT
  5
164
330
17
100
AcDbEntity
  8
0
100
AcDbBlockReference
  2
HEX
 10
280.101
 20
-89.955
 30
0.0
  0
INSERT
  5
166
330
17
100
AcDbEntity
  8
0
100
AcDbBlockReference
  2
HEX
 10
283.632
 20
-89.955
 30
0.0
  0
LWPOLYLINE
  5
168
330
17
100
AcDbEntity
  8
0
100
AcDbPolyline
 90
7
 70
1
 10
288.312
 20
-91.042
 10
287.163
 20
-91.705
 10
285.647
 20
-90.83
 10
285.647
 20
-89.08
 10
287.163
 20
-88.205
 10
288.411
 20
-88.926
 10
288.312
 20
-91.042
  0
LWPOLYLINE
  5
169
330
17
100
AcDbEntity
  8
0
100
AcDbPolyline
 90
5
 70
1
 10
226.608
 20
-86.168
 10
226.884
 20
-86.167
 10
226.884
 20
-87.772
 10
226.003
 20
-88.281
 10
226.608
 20
-86.168
  0
LWPOLYLINE
  5
16A
330
17
100
AcDbEntity
  8
0
100
AcDbPolyline
 90
6
 70
1
 10
230.415
 20
-86.167
 10
230.415
 20
-87.772
 10
228.9
 20
-88.647
 10
227.384
 20
-87.772
 10
227.384
 20
-86.167
 10
230.415
 20
-86.167
  0
LWPOLYLINE
  5
16B
330
17
100
AcDbEntity
  8
0
100
AcDbPolyline
 90
6
 70
1
 10
233.946
 20
-86.167
 10
233.946
 20
-87.772
 10
232.431
 20
-88.647
 10
230.915
 20
-87.772
 10
230.915
 20
-86.167
 10
233.946
 20
-86.167
  0
LWPOLYLINE
  5
16C
330
17
100
AcDbEntity
  8
0
100
AcDbPolyline
 90
6
 70
1
 10
237.478
 20
-86.167
 10
237.478
 20
-87.772
 10
235.962
 20
-88.647
 10
234.446
 20
-87.772
 10
234.446
 20
-86.167
 10
237.478
 20
-86.167
  0
LWPOLYLINE
  5
16D
330
17
100
AcDbEntity
  8
0
100
AcDbPolyline
 90
6
 70
1
 10
241.009
 20
-86.167
 10
241.009
 20
-87.772
 10
239.493
 20
-88.647
 10
237.978
 20
-87.772
 10
237.978
 20
-86.167
 10
241.009
 20
-86.167
  0
LWPOLYLINE
  5
16E
330
17
100
AcDbEntity
  8
0
100
AcDbPolyline
 90
6
 70
1
 10
244.54
 20
-86.167
 10
244.54
 20
-87.772
 10
243.024
 20
-88.647
 10
241.509
 20
-87.772
 10
241.509
 20
-86.167
 10
244.54
 20
-86.167
  0
LWPOLYLINE
  5
16F
330
17
100
AcDbEntity
  8
0
100
AcDbPolyline
 90
6
 70
1
 10
248.071
 20
-86.167
 10
248.071
 20
-87.772
 10
246.555
 20
-88.647
 10
245.04
 20
-87.772
 10
245.04
 20
-86.167
 10
248.071
 20
-86.167
  0
LWPOLYLINE
  5
170
330
17
100
AcDbEntity
  8
0
100
AcDbPolyline
 90
6
 70
1
 10
251.602
 20
-86.167
 10
251.602
 20
-87.772
 10
250.086
 20
-88.647
 10
248.571
 20
-87.772
 10
248.571
 20
-86.167
 10
251.602
 20
-86.167
  0
LWPOLYLINE
  5
171
330
17
100
AcDbEntity
  8
0
100
AcDbPolyline
 90
6
 70
1
 10
255.133
 20
-86.167
 10
255.133
 20
-87.772
 10
253.617
 20
-88.647
 10
252.102
 20
-87.772
 10
252.102
 20
-86.167
 10
255.133
 20
-86.167
  0
LWPOLYLINE
  5
172
330
17
100
AcDbEntity
  8
0
100
AcDbPolyline
 90
6
 70
1
 10
258.664
 20
-86.167
 10
258.664
 20
-87.772
 10
257.149
 20
-88.647
 10
255.633
 20
-87.772
 10
255.633
 20
-86.167
 10
258.664
 20
-86.167
  0
LWPOLYLINE
  5
173
330
17
100
AcDbEntity
  8
0
100
AcDbPolyline
 90
6
 70
1
 10
262.195
 20
-86.167
 10
262.195
 20
-87.772
 10
260.68
 20
-88.647
 10
259.164
 20
-87.772
 10
259.164
 20
-86.167
 10
262.195
 20
-86.167
  0
LWPOLYLINE
  5
174
330
17
100
AcDbEntity
  8
0
100
AcDbPolyline
 90
6
 70
1
 10
265.726
 20
-86.167
 10
265.726
 20
-87.772
 10
264.211
 20
-88.647
 10
262.695
 20
-87.772
 10
262.695
 20
-86.167
 10
265.726
 20
-86.167
  0
LWPOLYLINE
  5
175
330
17
100
AcDbEntity
  8
0
100
AcDbPolyline
 90
6
 70
1
 10
269.257
 20
-86.167
 10
269.257
 20
-87.772
 10
267.742
 20
-88.647
 10
266.226
 20
-87.772
 10
266.226
 20
-86.167
 10
269.257
 20
-86.167
  0
LWPOLYLINE
  5
176
330
17
100
AcDbEntity
  8
0
100
AcDbPolyline
 90
6
 70
1
 10
272.788
 20
-86.167
 10
272.788
 20
-87.772
 10
271.273
 20
-88.647
 10
269.757
 20
-87.772
 10
269.757
 20
-86.167
 10
272.788
 20
-86.167
  0
LWPOLYLINE
  5
177
330
17
100
AcDbEntity
  8
0
100
AcDbPolyline
 90
6
 70
1
 10
276.32
 20
-86.167
 10
276.32
 20
-87.772
 10
274.804
 20
-88.647
 10
273.288
 20
-87.772
 10
273.288
 20
-86.167
 10
276.32
 20
-86.167
  0
LWPOLYLINE
  5
178
330
17
100
AcDbEntity
  8
0
100
AcDbPolyline
 90
6
 70
1
 10
279.851
 20
-86.167
 10
279.851
 20
-87.772
 10
278.335
 20
-88.647
 10
276.82
 20
-87.772
 10
276.82
 20
-86.167
 10
279.851
 20
-86.167
  0
LWPOLYLINE
  5
179
330
17
100
AcDbEntity
  8
0
100
AcDbPolyline
 90
6
 70
1
 10
283.382
 20
-86.167
 10
283.382
 20
-87.772
 10
281.866
 20
-88.647
 10
280.351
 20
-87.772
 10
280.351
 20
-86.167
 10
283.382
 20
-86.167
  0
LWPOLYLINE
  5
17A
330
17
100
AcDbEntity
  8
0
100
AcDbPolyline
 90
6
 70
1
 10
286.913
 20
-86.167
 10
286.913
 20
-87.772
 10
285.397
 20
-88.647
 10
283.882
 20
-87.772
 10
283.882
 20
-86.167
 10
286.913
 20
-86.167
  0
LWPOLYLINE
  5
17B
330
17
100
AcDbEntity
  8
0
100
AcDbPolyline
 90
5
 70
1
 10
288.541
 20
-86.167
 10
288.438
 20
-88.364
 10
287.413
 20
-87.772
 10
287.413
 20
-86.167
 10
288.541
 20
-86.167
  0
ENDSEC
  0
SECTION
  2
OBJECTS
  0
DICTIONARY
  5
A
330
0
100
AcDbDictionary
281
1
  3
ACAD_COLOR
350
B
  3
ACAD_GROUP
350
C
  3
ACAD_LAYOUT
350
D
  3
ACAD_MATERIAL
350
E
  3
ACAD_MLEADERSTYLE
350
F
  3
ACAD_MLINESTYLE
350
10
  3
ACAD_PLOTSETTINGS
350
11
  3
ACAD_PLOTSTYLENAME
350
12
  3
ACAD_SCALELIST
350
14
  3
ACAD_TABLESTYLE
350
15
  3
ACAD_VISUALSTYLE
350
16
  3
EZDXF_META
350
2D
  0
DICTIONARY
  5
B
330
A
100
AcDbDictionary
281
1
  0
DICTIONARY
  5
C
330
A
100
AcDbDictionary
281
1
  0
DICTIONARY
  5
D
330
A
100
AcDbDictionary
281
1
  3
Model
350
1A
  3
Layout1
350
1E
  0
DICTIONARY
  5
E
330
A
100
AcDbDictionary
281
1
  3
ByBlock
350
1F
  3
ByLayer
350
20
  3
Global
350
21
  0
DICTIONARY
  5
F
330
A
100
AcDbDictionary
281
1
  3
Standard
350
2C
  0
DICTIONARY
  5
10
330
A
100
AcDbDictionary
281
1
  3
Standard
350
22
  0
DICTIONARY
  5
11
330
A
100
AcDbDictionary
281
1
  0
ACDBDICTIONARYWDFLT
  5
12
330
A
100
AcDbDictionary
281
1
  3
Normal
350
13
100
AcDbDictionaryWithDefault
340
13
  0
ACDBPLACEHOLDER
  5
13
330
12
  0
DICTIONARY
  5
14
330
A
100
AcDbDictionary
281
1
  0
DICTIONARY
  5
15
330
A
100
AcDbDictionary
281
1
  0
DICTIONARY
  5
16
330
A
100
AcDbDictionary
281
1
  0
LAYOUT
  5
1A
330
D
100
AcDbPlotSettings
  1

  4
A3
  6

 40
7.5
 41
20.0
 42
7.5
 43
20.0
 44
420.0
 45
297.0
 46
0.0
 47
0.0
 48
0.0
 49
0.0
140
0.0
141
0.0
142
1.0
143
1.0
 70
1024
 72
1
 73
0
 74
5
  7

 75
16
 76
0
 77
2
 78
300
147
1.0
148
0.0
149
0.0
100
AcDbLayout
  1
Model
 70
1
 71
0
 10
0.0
 20
0.0
 11
420.0
 21
297.0
 12
0.0
 22
0.0
 32
0.0
 14
1e+20
 24
1e+20
 34
1e+20
 15
-1e+20
 25
-1e+20
 35
-1e+20
146
0.0
 13
0.0
 23
0.0
 33
0.0
 16
1.0
 26
0.0
 36
0.0
 17
0.0
 27
1.0
 37
0.0
 76
1
330
17
  0
LAYOUT
  5
1E
330
D
100
AcDbPlotSettings
  1

  4
A3
  6

 40
7.5
 41
20.0
 42
7.5
 43
20.0
 44
420.0
 45
297.0
 46
0.0
 47
0.0
 48
0.0
 49
0.0
140
0.0
141
0.0
142
1.0
143
1.0
 70
0
 72
1
 73
0
 74
5
  7

 75
16
 76
0
 77
2
 78
300
147
1.0
148
0.0
149
0.0
100
AcDbLayout
  1
Layout1
 70
1
 71
1
 10
0.0
 20
0.0
 11
420.0
 21
297.0
 12
0.0
 22
0.0
 32
0.0
 14
1e+20
 24
1e+20
 34
1e+20
 15
-1e+20
 25
-1e+20
 35
-1e+20
146
0.0
 13
0.0
 23
0.0
 33
0.0
 16
1.0
 26
0.0
 36
0.0
 17
0.0
 27
1.0
 37
0.0
 76
1
330
1B
  0
MATERIAL
  5
1F
102
{ACAD_REACTORS
330
E
102
}
330
E
100
AcDbMaterial
  1
ByBlock
  2

 70
0
 40
1.0
 71
1
 41
1.0
 91
-1023410177
 42
1.0
 72
1
  3

 73
1
 74
1
 75
1
 44
0.5
 73
0
 45
1.0
 46
1.0
 77
1
  4

 78
1
 79
1
170
1
 48
1.0
171
1
  6

172
1
173
1
174
1
140
1.0
141
1.0
175
1
  7

176
1
177
1
178
1
143
1.0
179
1
  8

270
1
271
1
272
1
145
1.0
146
1.0
273
1
  9

274
1
275
1
276
1
 42
1.0
 72
1
  3

 73
1
 74
1
 75
1
 94
63
  0
MATERIAL
  5
20
102
{ACAD_REACTORS
330
E
102
}
330
E
100
AcDbMaterial
  1
ByLayer
  2

 70
0
 40
1.0
 71
1
 41
1.0
 91
-1023410177
 42
1.0
 72
1
  3

 73
1
 74
1
 75
1
 44
0.5
 73
0
 45
1.0
 46
1.0
 77
1
  4

 78
1
 79
1
170
1
 48
1.0
171
1
  6

172
1
173
1
174
1
140
1.0
141
1.0
175
1
  7

176
1
177
1
178
1
143
1.0
179
1
  8

270
1
271
1
272
1
145
1.0
146
1.0
273
1
  9

274
1
275
1
276
1
 42
1.0
 72
1
  3

 73
1
 74
1
 75
1
 94
63
  0
MATERIAL
  5
21
102
{ACAD_REACTORS
330
E
102
}
330
E
100
AcDbMaterial
  1
Global
  2

 70
0
 40
1.0
 71
1
 41
1.0
 91
-1023410177
 42
1.0
 72
1
  3

 73
1
 74
1
 75
1
 44
0.5
 73
0
 45
1.0
 46
1.0
 77
1
  4

 78
1
 79
1
170
1
 48
1.0
171
1
  6

172
1
173
1
174
1
140
1.0
141
1.0
175
1
  7

176
1
177
1
178
1
143
1.0
179
1
  8

270
1
271
1
272
1
145
1.0
146
1.0
273
1
  9

274
1
275
1
276
1
 42
1.0
 72
1
  3

 73
1
 74
1
 75
1
 94
63
  0
MLINESTYLE
  5
22
102
{ACAD_REACTORS
330
10
102
}
330
10
100
AcDbMlineStyle
  2
Standard
 70
0
  3

 62
256
 51
90.0
 52
90.0
 71
2
 49
0.5
 62
256
  6
BYLAYER
 49
-0.5
 62
256
  6
BYLAYER
  0
MLEADERSTYLE
  5
2C
102
{ACAD_REACTORS
330
F
102
}
330
F
100
AcDbMLeaderStyle
179
2
170
2
171
1
172
0
 90
2
 40
0.0
 41
0.0
173
1
 91
-1056964608
 92
-2
290
1
 42
2.0
291
1
 43
8.0
  3
Standard
 44
4.0
300

342
29
174
1
175
1
176
0
178
1
 93
-1056964608
 45
4.0
292
0
297
0
 46
4.0
 94
-1056964608
 47
1.0
 49
1.0
140
1.0
294
1
141
0.0
177
0
142
1.0
295
0
296
0
143
3.75
271
0
272
9
273
9
  0
DICTIONARY
  5
2D
330
A
100
AcDbDictionary
280
1
281
1
  3
CREATED_BY_EZDXF
350
2E
  3
WRITTEN_BY_EZDXF
350
17E
  0
DICTIONARYVAR
  5
2E
330
2D
100
DictionaryVariables
280
0
  1
1.4.3 @ 2026-04-09T21:37:20.088576+00:00
  0
DICTIONARYVAR
  5
17E
330
2D
100
DictionaryVariables
280
0
  1
1.4.3 @ 2026-04-09T21:37:20.104160+00:00
  0
ENDSEC
  0
EOF
