0
SECTION
2
HEADER
9
$FILLMODE
70
1
9
$EXTMIN
10
165.3989
20
82.06169
30
0.0
9
$EXTMAX
10
231.3086
20
154.6424
30
0.0
9
$LIMMIN
10
165.3989
20
82.06169
9
$LIMMAX
10
231.3086
20
154.6424
0
ENDSEC
0
SECTION
2
TABLES
0
TABLE
2
STYLE
70
1
0
STYLE
2
STANDARD
70
0
40
0
41
1
50
0
71
0
42
0.2
3
txt
4

0
ENDTAB
0
TABLE
2
LTYPE
70
2
0
LTYPE
2
CONTINUOUS
70
64
3
Solid Line
72
65
73
0
40
0.0
0
ENDTAB
0
ENDSEC
0
SECTION
2
BLOCKS
0
ENDSEC
0
SECTION
2
ENTITIES
0
POLYLINE
8
0
62
255
70
1
40
0.000000000000000
41
0.000000000000000
66
1
0
VERTEX
8
0
10
222.738892800761
20
85.5152799544869
42
0.088711319337475
0
VERTEX
8
0
10
223.409921239326
20
85.7286969382649
0
VERTEX
8
0
10
230.240848761767
20
89.3274962791002
42
0.398215136145124
0
VERTEX
8
0
10
231.126597213128
20
91.9306167473547
0
VERTEX
8
0
10
205.743321088142
20
147.283663016995
42
-0.066299288349734
0
VERTEX
8
0
10
205.588499517017
20
147.788530813163
0
VERTEX
8
0
10
204.726016364797
20
152.963429726478
42
0.366567007939720
0
VERTEX
8
0
10
202.753668270860
20
154.634631703522
0
VERTEX
8
0
10
167.399362604690
20
154.642405297556
42
0.541310525013809
0
VERTEX
8
0
10
165.567541559307
20
151.838637615414
0
VERTEX
8
0
10
170.381775434118
20
140.869426588946
0
VERTEX
8
0
10
181.072283456166
20
144.627448738844
0
VERTEX
8
0
10
184.668545491096
20
134.397102402313
0
VERTEX
8
0
10
174.585629610797
20
130.851101126721
0
VERTEX
8
0
10
194.544936212047
20
83.2877978971460
42
0.338185914061346
0
VERTEX
8
0
10
196.650328939873
20
82.0788215810781
0
VERTEX
8
0
10
222.738892800761
20
85.5152799544869
0
SEQEND
0
ENDSEC
0
EOF
