0
SECTION
2
HEADER
9
$FILLMODE
70
1
9
$EXTMIN
10
90.72402
20
98.67519
30
0.0
9
$EXTMAX
10
152.8610
20
160.6752
30
0.0
9
$LIMMIN
10
90.72402
20
98.67519
9
$LIMMAX
10
152.8610
20
160.6752
0
ENDSEC
0
SECTION
2
TABLES
0
TABLE
2
STYLE
70
1
0
STYLE
2
STANDARD
70
0
40
0
41
1
50
0
71
0
42
0.2
3
txt
4

0
ENDTAB
0
TABLE
2
LTYPE
70
2
0
LTYPE
2
CONTINUOUS
70
64
3
Solid Line
72
65
73
0
40
0.0
0
ENDTAB
0
ENDSEC
0
SECTION
2
BLOCKS
0
ENDSEC
0
SECTION
2
ENTITIES
0
POLYLINE
8
0
70
1
40
0.000000000000000
41
0.000000000000000
66
1
0
VERTEX
8
0
10
152.682326909498
20
154.165178060040
42
0.539816746211451
0
VERTEX
8
0
10
150.869683780451
20
157.016180772936
0
VERTEX
8
0
10
144.159603711486
20
157.113428310168
42
-0.028227579430448
0
VERTEX
8
0
10
143.932216368583
20
157.129584433583
0
VERTEX
8
0
10
123.456490466895
20
159.751816361047
0
VERTEX
8
0
10
115.649001962533
20
160.661607408586
42
0.333967769705756
0
VERTEX
8
0
10
113.552123060158
20
159.436843572503
0
VERTEX
8
0
10
90.8815746895108
20
105.442319850615
42
0.500275155705114
0
VERTEX
8
0
10
92.5170657289145
20
102.652391721028
0
VERTEX
8
0
10
127.500071178137
20
98.6880379613292
42
0.333188559750575
0
VERTEX
8
0
10
129.590879805554
20
99.9142009310770
0
VERTEX
8
0
10
141.916720169354
20
129.300264639536
0
VERTEX
8
0
10
129.553203911100
20
133.393700601225
0
VERTEX
8
0
10
133.048516803844
20
143.991019401300
0
VERTEX
8
0
10
146.145923129637
20
139.671102820918
0
VERTEX
8
0
10
146.145923129637
20
139.671102820918
0
VERTEX
8
0
10
152.682326909498
20
154.165178060040
0
SEQEND
0
ENDSEC
0
EOF
