  0
SECTION
  2
HEADER
  9
$ACADVER
  1
AC1024
  9
$ACADMAINTVER
 70
6
  9
$DWGCODEPAGE
  3
ANSI_1252
  9
$LASTSAVEDBY
  1
ezdxf
  9
$INSBASE
 10
0.0
 20
0.0
 30
0.0
  9
$EXTMIN
 10
1e+20
 20
1e+20
 30
1e+20
  9
$EXTMAX
 10
-1e+20
 20
-1e+20
 30
-1e+20
  9
$LIMMIN
 10
0.0
 20
0.0
  9
$LIMMAX
 10
420.0
 20
297.0
  9
$ORTHOMODE
 70
0
  9
$REGENMODE
 70
1
  9
$FILLMODE
 70
1
  9
$QTEXTMODE
 70
0
  9
$MIRRTEXT
 70
1
  9
$LTSCALE
 40
1.0
  9
$ATTMODE
 70
1
  9
$TEXTSIZE
 40
2.5
  9
$TRACEWID
 40
1.0
  9
$TEXTSTYLE
  7
Standard
  9
$CLAYER
  8
0
  9
$CELTYPE
  6
ByLayer
  9
$CECOLOR
 62
256
  9
$CELTSCALE
 40
1.0
  9
$DISPSILH
 70
0
  9
$DIMSCALE
 40
1.0
  9
$DIMASZ
 40
2.5
  9
$DIMEXO
 40
0.625
  9
$DIMDLI
 40
3.75
  9
$DIMRND
 40
0.0
  9
$DIMDLE
 40
0.0
  9
$DIMEXE
 40
1.25
  9
$DIMTP
 40
0.0
  9
$DIMTM
 40
0.0
  9
$DIMTXT
 40
2.5
  9
$DIMCEN
 40
2.5
  9
$DIMTSZ
 40
0.0
  9
$DIMTOL
 70
0
  9
$DIMLIM
 70
0
  9
$DIMTIH
 70
0
  9
$DIMTOH
 70
0
  9
$DIMSE1
 70
0
  9
$DIMSE2
 70
0
  9
$DIMTAD
 70
1
  9
$DIMZIN
 70
8
  9
$DIMBLK
  1

  9
$DIMASO
 70
1
  9
$DIMSHO
 70
1
  9
$DIMPOST
  1

  9
$DIMAPOST
  1

  9
$DIMALT
 70
0
  9
$DIMALTD
 70
3
  9
$DIMALTF
 40
0.03937007874
  9
$DIMLFAC
 40
1.0
  9
$DIMTOFL
 70
1
  9
$DIMTVP
 40
0.0
  9
$DIMTIX
 70
0
  9
$DIMSOXD
 70
0
  9
$DIMSAH
 70
0
  9
$DIMBLK1
  1

  9
$DIMBLK2
  1

  9
$DIMSTYLE
  2
ISO-25
  9
$DIMCLRD
 70
0
  9
$DIMCLRE
 70
0
  9
$DIMCLRT
 70
0
  9
$DIMTFAC
 40
1.0
  9
$DIMGAP
 40
0.625
  9
$DIMJUST
 70
0
  9
$DIMSD1
 70
0
  9
$DIMSD2
 70
0
  9
$DIMTOLJ
 70
0
  9
$DIMTZIN
 70
8
  9
$DIMALTZ
 70
0
  9
$DIMALTTZ
 70
0
  9
$DIMUPT
 70
0
  9
$DIMDEC
 70
2
  9
$DIMTDEC
 70
2
  9
$DIMALTU
 70
2
  9
$DIMALTTD
 70
3
  9
$DIMTXSTY
  7
Standard
  9
$DIMAUNIT
 70
0
  9
$DIMADEC
 70
0
  9
$DIMALTRND
 40
0.0
  9
$DIMAZIN
 70
0
  9
$DIMDSEP
 70
44
  9
$DIMATFIT
 70
3
  9
$DIMFRAC
 70
0
  9
$DIMLDRBLK
  1

  9
$DIMLUNIT
 70
2
  9
$DIMLWD
 70
-2
  9
$DIMLWE
 70
-2
  9
$DIMTMOVE
 70
0
  9
$DIMFXL
 40
1.0
  9
$DIMFXLON
 70
0
  9
$DIMJOGANG
 40
0.785398163397
  9
$DIMTFILL
 70
0
  9
$DIMTFILLCLR
 70
0
  9
$DIMARCSYM
 70
0
  9
$DIMLTYPE
  6

  9
$DIMLTEX1
  6

  9
$DIMLTEX2
  6

  9
$DIMTXTDIRECTION
 70
0
  9
$LUNITS
 70
2
  9
$LUPREC
 70
4
  9
$SKETCHINC
 40
1.0
  9
$FILLETRAD
 40
10.0
  9
$AUNITS
 70
0
  9
$AUPREC
 70
2
  9
$MENU
  1
.
  9
$ELEVATION
 40
0.0
  9
$PELEVATION
 40
0.0
  9
$THICKNESS
 40
0.0
  9
$LIMCHECK
 70
0
  9
$CHAMFERA
 40
0.0
  9
$CHAMFERB
 40
0.0
  9
$CHAMFERC
 40
0.0
  9
$CHAMFERD
 40
0.0
  9
$SKPOLY
 70
0
  9
$TDCREATE
 40
2461138.7154398146
  9
$TDUCREATE
 40
2458532.153996898
  9
$TDUPDATE
 40
2461138.7154398146
  9
$TDUUPDATE
 40
2458532.1544311
  9
$TDINDWG
 40
0.0
  9
$TDUSRTIMER
 40
0.0
  9
$USRTIMER
 70
1
  9
$ANGBASE
 50
0.0
  9
$ANGDIR
 70
0
  9
$PDMODE
 70
0
  9
$PDSIZE
 40
0.0
  9
$PLINEWID
 40
0.0
  9
$SPLFRAME
 70
0
  9
$SPLINETYPE
 70
6
  9
$SPLINESEGS
 70
8
  9
$HANDSEED
  5
21A
  9
$SURFTAB1
 70
6
  9
$SURFTAB2
 70
6
  9
$SURFTYPE
 70
6
  9
$SURFU
 70
6
  9
$SURFV
 70
6
  9
$UCSBASE
  2

  9
$UCSNAME
  2

  9
$UCSORG
 10
0.0
 20
0.0
 30
0.0
  9
$UCSXDIR
 10
1.0
 20
0.0
 30
0.0
  9
$UCSYDIR
 10
0.0
 20
1.0
 30
0.0
  9
$UCSORTHOREF
  2

  9
$UCSORTHOVIEW
 70
0
  9
$UCSORGTOP
 10
0.0
 20
0.0
 30
0.0
  9
$UCSORGBOTTOM
 10
0.0
 20
0.0
 30
0.0
  9
$UCSORGLEFT
 10
0.0
 20
0.0
 30
0.0
  9
$UCSORGRIGHT
 10
0.0
 20
0.0
 30
0.0
  9
$UCSORGFRONT
 10
0.0
 20
0.0
 30
0.0
  9
$UCSORGBACK
 10
0.0
 20
0.0
 30
0.0
  9
$PUCSBASE
  2

  9
$PUCSNAME
  2

  9
$PUCSORG
 10
0.0
 20
0.0
 30
0.0
  9
$PUCSXDIR
 10
1.0
 20
0.0
 30
0.0
  9
$PUCSYDIR
 10
0.0
 20
1.0
 30
0.0
  9
$PUCSORTHOREF
  2

  9
$PUCSORTHOVIEW
 70
0
  9
$PUCSORGTOP
 10
0.0
 20
0.0
 30
0.0
  9
$PUCSORGBOTTOM
 10
0.0
 20
0.0
 30
0.0
  9
$PUCSORGLEFT
 10
0.0
 20
0.0
 30
0.0
  9
$PUCSORGRIGHT
 10
0.0
 20
0.0
 30
0.0
  9
$PUCSORGFRONT
 10
0.0
 20
0.0
 30
0.0
  9
$PUCSORGBACK
 10
0.0
 20
0.0
 30
0.0
  9
$USERI1
 70
0
  9
$USERI2
 70
0
  9
$USERI3
 70
0
  9
$USERI4
 70
0
  9
$USERI5
 70
0
  9
$USERR1
 40
0.0
  9
$USERR2
 40
0.0
  9
$USERR3
 40
0.0
  9
$USERR4
 40
0.0
  9
$USERR5
 40
0.0
  9
$WORLDVIEW
 70
1
  9
$SHADEDGE
 70
3
  9
$SHADEDIF
 70
70
  9
$TILEMODE
 70
1
  9
$MAXACTVP
 70
64
  9
$PINSBASE
 10
0.0
 20
0.0
 30
0.0
  9
$PLIMCHECK
 70
0
  9
$PEXTMIN
 10
1e+20
 20
1e+20
 30
1e+20
  9
$PEXTMAX
 10
-1e+20
 20
-1e+20
 30
-1e+20
  9
$PLIMMIN
 10
0.0
 20
0.0
  9
$PLIMMAX
 10
420.0
 20
297.0
  9
$UNITMODE
 70
0
  9
$VISRETAIN
 70
1
  9
$PLINEGEN
 70
0
  9
$PSLTSCALE
 70
1
  9
$TREEDEPTH
 70
3020
  9
$CMLSTYLE
  2
Standard
  9
$CMLJUST
 70
0
  9
$CMLSCALE
 40
20.0
  9
$PROXYGRAPHICS
 70
1
  9
$MEASUREMENT
 70
1
  9
$CELWEIGHT
370
-1
  9
$ENDCAPS
280
0
  9
$JOINSTYLE
280
0
  9
$LWDISPLAY
290
0
  9
$INSUNITS
 70
6
  9
$HYPERLINKBASE
  1

  9
$STYLESHEET
  1

  9
$XEDIT
290
1
  9
$CEPSNTYPE
380
0
  9
$PSTYLEMODE
290
1
  9
$FINGERPRINTGUID
  2
{6FAD18D9-A6D1-40CE-8436-6689682582D7}
  9
$VERSIONGUID
  2
{968DC746-BB0D-42C5-94B3-14914C8839F6}
  9
$EXTNAMES
290
1
  9
$PSVPSCALE
 40
0.0
  9
$OLESTARTUP
290
0
  9
$SORTENTS
280
127
  9
$INDEXCTL
280
0
  9
$HIDETEXT
280
1
  9
$XCLIPFRAME
280
1
  9
$HALOGAP
280
0
  9
$OBSCOLOR
 70
257
  9
$OBSLTYPE
280
0
  9
$INTERSECTIONDISPLAY
280
0
  9
$INTERSECTIONCOLOR
 70
257
  9
$DIMASSOC
280
2
  9
$PROJECTNAME
  1

  9
$CAMERADISPLAY
290
0
  9
$LENSLENGTH
 40
50.0
  9
$CAMERAHEIGHT
 40
0.0
  9
$STEPSPERSEC
 40
24.0
  9
$STEPSIZE
 40
100.0
  9
$3DDWFPREC
 40
2.0
  9
$PSOLWIDTH
 40
0.005
  9
$PSOLHEIGHT
 40
0.08
  9
$LOFTANG1
 40
1.570796326795
  9
$LOFTANG2
 40
1.570796326795
  9
$LOFTMAG1
 40
0.0
  9
$LOFTMAG2
 40
0.0
  9
$LOFTPARAM
 70
7
  9
$LOFTNORMALS
280
1
  9
$LATITUDE
 40
37.795
  9
$LONGITUDE
 40
-122.394
  9
$NORTHDIRECTION
 40
0.0
  9
$TIMEZONE
 70
-8000
  9
$LIGHTGLYPHDISPLAY
280
1
  9
$TILEMODELIGHTSYNCH
280
1
  9
$CMATERIAL
347
20
  9
$SOLIDHIST
280
0
  9
$SHOWHIST
280
1
  9
$DWFFRAME
280
2
  9
$DGNFRAME
280
2
  9
$REALWORLDSCALE
290
1
  9
$INTERFERECOLOR
 62
256
  9
$CSHADOW
280
0
  9
$SHADOWPLANELOCATION
 40
0.0
  0
ENDSEC
  0
SECTION
  2
CLASSES
  0
CLASS
  1
ACDBDICTIONARYWDFLT
  2
AcDbDictionaryWithDefault
  3
ObjectDBX Classes
 90
0
 91
0
280
0
281
0
  0
CLASS
  1
SUN
  2
AcDbSun
  3
SCENEOE
 90
1153
 91
0
280
0
281
0
  0
CLASS
  1
VISUALSTYLE
  2
AcDbVisualStyle
  3
ObjectDBX Classes
 90
4095
 91
0
280
0
281
0
  0
CLASS
  1
MATERIAL
  2
AcDbMaterial
  3
ObjectDBX Classes
 90
1153
 91
0
280
0
281
0
  0
CLASS
  1
SCALE
  2
AcDbScale
  3
ObjectDBX Classes
 90
1153
 91
0
280
0
281
0
  0
CLASS
  1
TABLESTYLE
  2
AcDbTableStyle
  3
ObjectDBX Classes
 90
4095
 91
0
280
0
281
0
  0
CLASS
  1
MLEADERSTYLE
  2
AcDbMLeaderStyle
  3
ACDB_MLEADERSTYLE_CLASS
 90
4095
 91
0
280
0
281
0
  0
CLASS
  1
DICTIONARYVAR
  2
AcDbDictionaryVar
  3
ObjectDBX Classes
 90
0
 91
0
280
0
281
0
  0
CLASS
  1
CELLSTYLEMAP
  2
AcDbCellStyleMap
  3
ObjectDBX Classes
 90
1152
 91
0
280
0
281
0
  0
CLASS
  1
MENTALRAYRENDERSETTINGS
  2
AcDbMentalRayRenderSettings
  3
SCENEOE
 90
1024
 91
0
280
0
281
0
  0
CLASS
  1
ACDBDETAILVIEWSTYLE
  2
AcDbDetailViewStyle
  3
ObjectDBX Classes
 90
1025
 91
0
280
0
281
0
  0
CLASS
  1
ACDBSECTIONVIEWSTYLE
  2
AcDbSectionViewStyle
  3
ObjectDBX Classes
 90
1025
 91
0
280
0
281
0
  0
CLASS
  1
RASTERVARIABLES
  2
AcDbRasterVariables
  3
ISM
 90
0
 91
0
280
0
281
0
  0
CLASS
  1
ACDBPLACEHOLDER
  2
AcDbPlaceHolder
  3
ObjectDBX Classes
 90
0
 91
0
280
0
281
0
  0
CLASS
  1
LAYOUT
  2
AcDbLayout
  3
ObjectDBX Classes
 90
0
 91
0
280
0
281
0
  0
ENDSEC
  0
SECTION
  2
TABLES
  0
TABLE
  2
VPORT
  5
8
330
0
100
AcDbSymbolTable
 70
1
  0
VPORT
  5
23
330
8
100
AcDbSymbolTableRecord
100
AcDbViewportTableRecord
  2
*Active
 70
0
 10
0.0
 20
0.0
 11
1.0
 21
1.0
 12
0.0
 22
0.0
 13
0.0
 23
0.0
 14
0.5
 24
0.5
 15
0.5
 25
0.5
 16
0.0
 26
0.0
 36
1.0
 17
0.0
 27
0.0
 37
0.0
 40
1000.0
 41
1.34
 42
50.0
 43
0.0
 44
0.0
 50
0.0
 51
0.0
 71
0
 72
1000
 73
1
 74
3
 75
0
 76
0
 77
0
 78
0
281
0
 65
0
146
0.0
  0
ENDTAB
  0
TABLE
  2
LTYPE
  5
2
330
0
100
AcDbSymbolTable
 70
3
  0
LTYPE
  5
24
330
2
100
AcDbSymbolTableRecord
100
AcDbLinetypeTableRecord
  2
ByBlock
 70
0
  3

 72
65
 73
0
 40
0.0
  0
LTYPE
  5
25
330
2
100
AcDbSymbolTableRecord
100
AcDbLinetypeTableRecord
  2
ByLayer
 70
0
  3

 72
65
 73
0
 40
0.0
  0
LTYPE
  5
26
330
2
100
AcDbSymbolTableRecord
100
AcDbLinetypeTableRecord
  2
Continuous
 70
0
  3

 72
65
 73
0
 40
0.0
  0
ENDTAB
  0
TABLE
  2
LAYER
  5
1
330
0
100
AcDbSymbolTable
 70
2
  0
LAYER
  5
27
330
1
100
AcDbSymbolTableRecord
100
AcDbLayerTableRecord
  2
0
 70
0
 62
7
  6
Continuous
370
-3
390
13
347
21
  0
LAYER
  5
28
330
1
100
AcDbSymbolTableRecord
100
AcDbLayerTableRecord
  2
Defpoints
 70
0
 62
7
  6
Continuous
290
0
370
-3
390
13
347
21
  0
ENDTAB
  0
TABLE
  2
STYLE
  5
5
330
0
100
AcDbSymbolTable
 70
1
  0
STYLE
  5
29
330
5
100
AcDbSymbolTableRecord
100
AcDbTextStyleTableRecord
  2
Standard
 70
0
 40
0.0
 41
1.0
 50
0.0
 71
0
 42
2.5
  3
txt
  4

  0
ENDTAB
  0
TABLE
  2
VIEW
  5
7
330
0
100
AcDbSymbolTable
 70
0
  0
ENDTAB
  0
TABLE
  2
UCS
  5
6
330
0
100
AcDbSymbolTable
 70
0
  0
ENDTAB
  0
TABLE
  2
APPID
  5
3
330
0
100
AcDbSymbolTable
 70
3
  0
APPID
  5
2A
330
3
100
AcDbSymbolTableRecord
100
AcDbRegAppTableRecord
  2
ACAD
 70
0
  0
APPID
  5
217
330
3
100
AcDbSymbolTableRecord
100
AcDbRegAppTableRecord
  2
HATCHBACKGROUNDCOLOR
 70
0
  0
APPID
  5
218
330
3
100
AcDbSymbolTableRecord
100
AcDbRegAppTableRecord
  2
EZDXF
 70
0
  0
ENDTAB
  0
TABLE
  2
DIMSTYLE
  5
4
330
0
100
AcDbSymbolTable
 70
1
100
AcDbDimStyleTable
  0
DIMSTYLE
105
2B
330
4
100
AcDbSymbolTableRecord
100
AcDbDimStyleTableRecord
  2
Standard
 70
0
 40
1.0
 41
2.5
 42
0.625
 43
3.75
 44
1.25
 45
0.0
 46
0.0
 47
0.0
 48
0.0
 49
2.5
140
2.5
141
2.5
142
0.0
143
0.03937007874
144
1.0
145
0.0
146
1.0
147
0.625
148
0.0
 69
0
 70
0
 71
0
 72
0
 73
0
 74
0
 75
0
 76
0
 77
1
 78
8
 79
3
170
0
171
3
172
1
173
0
174
0
175
0
176
0
177
0
178
0
179
2
271
2
272
2
273
2
274
3
275
0
276
0
277
2
278
44
279
0
280
0
281
0
282
0
283
0
284
8
285
0
286
0
288
0
289
3
290
0
371
-2
372
-2
  0
ENDTAB
  0
TABLE
  2
BLOCK_RECORD
  5
9
330
0
100
AcDbSymbolTable
 70
2
  0
BLOCK_RECORD
  5
17
330
9
100
AcDbSymbolTableRecord
100
AcDbBlockTableRecord
  2
*Model_Space
340
1A
 70
0
280
1
281
0
  0
BLOCK_RECORD
  5
1B
330
9
100
AcDbSymbolTableRecord
100
AcDbBlockTableRecord
  2
*Paper_Space
340
1E
 70
0
280
1
281
0
  0
ENDTAB
  0
ENDSEC
  0
SECTION
  2
BLOCKS
  0
BLOCK
  5
18
330
17
100
AcDbEntity
  8
0
100
AcDbBlockBegin
  2
*Model_Space
 70
0
 10
0.0
 20
0.0
 30
0.0
  3
*Model_Space
  1

  0
ENDBLK
  5
19
330
17
100
AcDbEntity
  8
0
100
AcDbBlockEnd
  0
BLOCK
  5
1C
330
1B
100
AcDbEntity
  8
0
100
AcDbBlockBegin
  2
*Paper_Space
 70
0
 10
0.0
 20
0.0
 30
0.0
  3
*Paper_Space
  1

  0
ENDBLK
  5
1D
330
1B
100
AcDbEntity
  8
0
100
AcDbBlockEnd
  0
ENDSEC
  0
SECTION
  2
ENTITIES
  0
LINE
  5
2F
330
17
100
AcDbEntity
  8
0
100
AcDbLine
 10
385.493
 20
-247.342
 30
0.0
 11
358.905
 21
-246.95200000000003
 31
0.0
  0
LINE
  5
30
330
17
100
AcDbEntity
  8
0
100
AcDbLine
 10
358.905
 20
-246.95200000000003
 30
0.0
 11
358.133
 21
-247.44500000000002
 31
0.0
  0
LINE
  5
31
330
17
100
AcDbEntity
  8
0
100
AcDbLine
 10
358.133
 20
-247.44500000000002
 30
0.0
 11
357.329
 21
-247.87500000000003
 31
0.0
  0
LINE
  5
32
330
17
100
AcDbEntity
  8
0
100
AcDbLine
 10
357.329
 20
-247.87500000000003
 30
0.0
 11
356.497
 21
-248.24200000000002
 31
0.0
  0
LINE
  5
33
330
17
100
AcDbEntity
  8
0
100
AcDbLine
 10
356.497
 20
-248.24200000000002
 30
0.0
 11
355.641
 21
-248.54500000000002
 31
0.0
  0
LINE
  5
34
330
17
100
AcDbEntity
  8
0
100
AcDbLine
 10
355.641
 20
-248.54500000000002
 30
0.0
 11
354.76500000000004
 21
-248.782
 31
0.0
  0
LINE
  5
35
330
17
100
AcDbEntity
  8
0
100
AcDbLine
 10
354.76500000000004
 20
-248.782
 30
0.0
 11
353.87200000000007
 21
-248.953
 31
0.0
  0
LINE
  5
36
330
17
100
AcDbEntity
  8
0
100
AcDbLine
 10
353.87200000000007
 20
-248.953
 30
0.0
 11
352.96600000000007
 21
-249.056
 31
0.0
  0
LINE
  5
37
330
17
100
AcDbEntity
  8
0
100
AcDbLine
 10
352.96600000000007
 20
-249.056
 30
0.0
 11
275.41200000000003
 21
-248.996
 31
0.0
  0
LINE
  5
38
330
17
100
AcDbEntity
  8
0
100
AcDbLine
 10
275.41200000000003
 20
-248.996
 30
0.0
 11
275.391
 21
-248.99300000000002
 31
0.0
  0
LINE
  5
39
330
17
100
AcDbEntity
  8
0
100
AcDbLine
 10
275.391
 20
-248.99300000000002
 30
0.0
 11
275.37
 21
-248.98800000000003
 31
0.0
  0
LINE
  5
3A
330
17
100
AcDbEntity
  8
0
100
AcDbLine
 10
275.37
 20
-248.98800000000003
 30
0.0
 11
275.35
 21
-248.98100000000002
 31
0.0
  0
LINE
  5
3B
330
17
100
AcDbEntity
  8
0
100
AcDbLine
 10
275.35
 20
-248.98100000000002
 30
0.0
 11
275.33000000000004
 21
-248.97200000000004
 31
0.0
  0
LINE
  5
3C
330
17
100
AcDbEntity
  8
0
100
AcDbLine
 10
275.33000000000004
 20
-248.97200000000004
 30
0.0
 11
275.31100000000004
 21
-248.96100000000004
 31
0.0
  0
LINE
  5
3D
330
17
100
AcDbEntity
  8
0
100
AcDbLine
 10
275.31100000000004
 20
-248.96100000000004
 30
0.0
 11
275.29300000000006
 21
-248.94800000000004
 31
0.0
  0
LINE
  5
3E
330
17
100
AcDbEntity
  8
0
100
AcDbLine
 10
275.29300000000006
 20
-248.94800000000004
 30
0.0
 11
273.5900000000001
 21
-247.34100000000004
 31
0.0
  0
LINE
  5
3F
330
17
100
AcDbEntity
  8
0
100
AcDbLine
 10
273.5900000000001
 20
-247.34100000000004
 30
0.0
 11
67.8470000000001
 21
-246.84800000000004
 31
0.0
  0
LINE
  5
40
330
17
100
AcDbEntity
  8
0
100
AcDbLine
 10
67.8470000000001
 20
-246.84800000000004
 30
0.0
 11
66.9100000000001
 21
-246.99100000000004
 31
0.0
  0
LINE
  5
41
330
17
100
AcDbEntity
  8
0
100
AcDbLine
 10
66.9100000000001
 20
-246.99100000000004
 30
0.0
 11
66.0050000000001
 21
-247.22400000000005
 31
0.0
  0
LINE
  5
42
330
17
100
AcDbEntity
  8
0
100
AcDbLine
 10
66.0050000000001
 20
-247.22400000000005
 30
0.0
 11
65.13800000000009
 21
-247.54200000000006
 31
0.0
  0
LINE
  5
43
330
17
100
AcDbEntity
  8
0
100
AcDbLine
 10
65.13800000000009
 20
-247.54200000000006
 30
0.0
 11
64.31300000000009
 21
-247.94000000000005
 31
0.0
  0
LINE
  5
44
330
17
100
AcDbEntity
  8
0
100
AcDbLine
 10
64.31300000000009
 20
-247.94000000000005
 30
0.0
 11
63.53500000000009
 21
-248.41300000000007
 31
0.0
  0
LINE
  5
45
330
17
100
AcDbEntity
  8
0
100
AcDbLine
 10
63.53500000000009
 20
-248.41300000000007
 30
0.0
 11
62.80800000000009
 21
-248.95700000000008
 31
0.0
  0
LINE
  5
46
330
17
100
AcDbEntity
  8
0
100
AcDbLine
 10
62.80800000000009
 20
-248.95700000000008
 30
0.0
 11
62.13800000000009
 21
-249.5660000000001
 31
0.0
  0
LINE
  5
47
330
17
100
AcDbEntity
  8
0
100
AcDbLine
 10
62.13800000000009
 20
-249.5660000000001
 30
0.0
 11
61.52900000000009
 21
-250.23600000000008
 31
0.0
  0
LINE
  5
48
330
17
100
AcDbEntity
  8
0
100
AcDbLine
 10
61.52900000000009
 20
-250.23600000000008
 30
0.0
 11
60.98600000000009
 21
-250.96300000000008
 31
0.0
  0
LINE
  5
49
330
17
100
AcDbEntity
  8
0
100
AcDbLine
 10
60.98600000000009
 20
-250.96300000000008
 30
0.0
 11
60.51300000000009
 21
-251.74100000000007
 31
0.0
  0
LINE
  5
4A
330
17
100
AcDbEntity
  8
0
100
AcDbLine
 10
60.51300000000009
 20
-251.74100000000007
 30
0.0
 11
60.11600000000009
 21
-252.56600000000006
 31
0.0
  0
LINE
  5
4B
330
17
100
AcDbEntity
  8
0
100
AcDbLine
 10
60.11600000000009
 20
-252.56600000000006
 30
0.0
 11
59.79900000000009
 21
-253.43300000000005
 31
0.0
  0
LINE
  5
4C
330
17
100
AcDbEntity
  8
0
100
AcDbLine
 10
59.79900000000009
 20
-253.43300000000005
 30
0.0
 11
59.566000000000095
 21
-254.33800000000005
 31
0.0
  0
LINE
  5
4D
330
17
100
AcDbEntity
  8
0
100
AcDbLine
 10
59.566000000000095
 20
-254.33800000000005
 30
0.0
 11
59.423000000000094
 21
-255.27500000000006
 31
0.0
  0
LINE
  5
4E
330
17
100
AcDbEntity
  8
0
100
AcDbLine
 10
59.423000000000094
 20
-255.27500000000006
 30
0.0
 11
59.374000000000095
 21
-281.8810000000001
 31
0.0
  0
LINE
  5
4F
330
17
100
AcDbEntity
  8
0
100
AcDbLine
 10
59.374000000000095
 20
-281.8810000000001
 30
0.0
 11
107.5160000000001
 21
-281.8810000000001
 31
0.0
  0
LINE
  5
50
330
17
100
AcDbEntity
  8
0
100
AcDbLine
 10
107.5160000000001
 20
-281.8810000000001
 30
0.0
 11
108.6820000000001
 21
-282.12000000000006
 31
0.0
  0
LINE
  5
51
330
17
100
AcDbEntity
  8
0
100
AcDbLine
 10
108.6820000000001
 20
-282.12000000000006
 30
0.0
 11
109.7920000000001
 21
-282.4320000000001
 31
0.0
  0
LINE
  5
52
330
17
100
AcDbEntity
  8
0
100
AcDbLine
 10
109.7920000000001
 20
-282.4320000000001
 30
0.0
 11
110.84400000000011
 21
-282.8140000000001
 31
0.0
  0
LINE
  5
53
330
17
100
AcDbEntity
  8
0
100
AcDbLine
 10
110.84400000000011
 20
-282.8140000000001
 30
0.0
 11
111.83600000000011
 21
-283.2630000000001
 31
0.0
  0
LINE
  5
54
330
17
100
AcDbEntity
  8
0
100
AcDbLine
 10
111.83600000000011
 20
-283.2630000000001
 30
0.0
 11
112.76600000000012
 21
-283.7770000000001
 31
0.0
  0
LINE
  5
55
330
17
100
AcDbEntity
  8
0
100
AcDbLine
 10
112.76600000000012
 20
-283.7770000000001
 30
0.0
 11
113.63200000000012
 21
-284.3530000000001
 31
0.0
  0
LINE
  5
56
330
17
100
AcDbEntity
  8
0
100
AcDbLine
 10
113.63200000000012
 20
-284.3530000000001
 30
0.0
 11
114.43200000000012
 21
-284.98900000000015
 31
0.0
  0
LINE
  5
57
330
17
100
AcDbEntity
  8
0
100
AcDbLine
 10
114.43200000000012
 20
-284.98900000000015
 30
0.0
 11
115.16400000000012
 21
-285.68200000000013
 31
0.0
  0
LINE
  5
58
330
17
100
AcDbEntity
  8
0
100
AcDbLine
 10
115.16400000000012
 20
-285.68200000000013
 30
0.0
 11
115.82600000000012
 21
-286.42900000000014
 31
0.0
  0
LINE
  5
59
330
17
100
AcDbEntity
  8
0
100
AcDbLine
 10
115.82600000000012
 20
-286.42900000000014
 30
0.0
 11
116.41500000000012
 21
-287.2280000000001
 31
0.0
  0
LINE
  5
5A
330
17
100
AcDbEntity
  8
0
100
AcDbLine
 10
116.41500000000012
 20
-287.2280000000001
 30
0.0
 11
116.93000000000012
 21
-288.07600000000014
 31
0.0
  0
LINE
  5
5B
330
17
100
AcDbEntity
  8
0
100
AcDbLine
 10
116.93000000000012
 20
-288.07600000000014
 30
0.0
 11
117.36900000000011
 21
-288.9710000000001
 31
0.0
  0
LINE
  5
5C
330
17
100
AcDbEntity
  8
0
100
AcDbLine
 10
117.36900000000011
 20
-288.9710000000001
 30
0.0
 11
117.73000000000012
 21
-289.91000000000014
 31
0.0
  0
LINE
  5
5D
330
17
100
AcDbEntity
  8
0
100
AcDbLine
 10
117.73000000000012
 20
-289.91000000000014
 30
0.0
 11
118.01100000000012
 21
-290.89000000000016
 31
0.0
  0
LINE
  5
5E
330
17
100
AcDbEntity
  8
0
100
AcDbLine
 10
118.01100000000012
 20
-290.89000000000016
 30
0.0
 11
118.20900000000012
 21
-291.90900000000016
 31
0.0
  0
LINE
  5
5F
330
17
100
AcDbEntity
  8
0
100
AcDbLine
 10
118.20900000000012
 20
-291.90900000000016
 30
0.0
 11
118.59900000000012
 21
-296.75000000000017
 31
0.0
  0
LINE
  5
60
330
17
100
AcDbEntity
  8
0
100
AcDbLine
 10
118.59900000000012
 20
-296.75000000000017
 30
0.0
 11
118.70400000000012
 21
-297.23800000000017
 31
0.0
  0
LINE
  5
61
330
17
100
AcDbEntity
  8
0
100
AcDbLine
 10
118.70400000000012
 20
-297.23800000000017
 30
0.0
 11
118.85300000000012
 21
-297.7080000000002
 31
0.0
  0
LINE
  5
62
330
17
100
AcDbEntity
  8
0
100
AcDbLine
 10
118.85300000000012
 20
-297.7080000000002
 30
0.0
 11
119.04400000000012
 21
-298.1570000000002
 31
0.0
  0
LINE
  5
63
330
17
100
AcDbEntity
  8
0
100
AcDbLine
 10
119.04400000000012
 20
-298.1570000000002
 30
0.0
 11
119.27400000000013
 21
-298.5820000000002
 31
0.0
  0
LINE
  5
64
330
17
100
AcDbEntity
  8
0
100
AcDbLine
 10
119.27400000000013
 20
-298.5820000000002
 30
0.0
 11
119.54100000000012
 21
-298.9820000000002
 31
0.0
  0
LINE
  5
65
330
17
100
AcDbEntity
  8
0
100
AcDbLine
 10
119.54100000000012
 20
-298.9820000000002
 30
0.0
 11
119.84300000000013
 21
-299.3550000000002
 31
0.0
  0
LINE
  5
66
330
17
100
AcDbEntity
  8
0
100
AcDbLine
 10
119.84300000000013
 20
-299.3550000000002
 30
0.0
 11
120.17700000000013
 21
-299.6980000000002
 31
0.0
  0
LINE
  5
67
330
17
100
AcDbEntity
  8
0
100
AcDbLine
 10
120.17700000000013
 20
-299.6980000000002
 30
0.0
 11
120.54100000000014
 21
-300.0090000000002
 31
0.0
  0
LINE
  5
68
330
17
100
AcDbEntity
  8
0
100
AcDbLine
 10
120.54100000000014
 20
-300.0090000000002
 30
0.0
 11
120.93300000000013
 21
-300.2850000000002
 31
0.0
  0
LINE
  5
69
330
17
100
AcDbEntity
  8
0
100
AcDbLine
 10
120.93300000000013
 20
-300.2850000000002
 30
0.0
 11
121.35000000000014
 21
-300.5250000000002
 31
0.0
  0
LINE
  5
6A
330
17
100
AcDbEntity
  8
0
100
AcDbLine
 10
121.35000000000014
 20
-300.5250000000002
 30
0.0
 11
121.79000000000013
 21
-300.7260000000002
 31
0.0
  0
LINE
  5
6B
330
17
100
AcDbEntity
  8
0
100
AcDbLine
 10
121.79000000000013
 20
-300.7260000000002
 30
0.0
 11
122.25000000000013
 21
-300.88600000000025
 31
0.0
  0
LINE
  5
6C
330
17
100
AcDbEntity
  8
0
100
AcDbLine
 10
122.25000000000013
 20
-300.88600000000025
 30
0.0
 11
122.72800000000012
 21
-301.00300000000027
 31
0.0
  0
LINE
  5
6D
330
17
100
AcDbEntity
  8
0
100
AcDbLine
 10
122.72800000000012
 20
-301.00300000000027
 30
0.0
 11
123.22200000000012
 21
-301.0750000000003
 31
0.0
  0
LINE
  5
6E
330
17
100
AcDbEntity
  8
0
100
AcDbLine
 10
123.22200000000012
 20
-301.0750000000003
 30
0.0
 11
151.15800000000013
 21
-301.10000000000025
 31
0.0
  0
LINE
  5
6F
330
17
100
AcDbEntity
  8
0
100
AcDbLine
 10
151.15800000000013
 20
-301.10000000000025
 30
0.0
 11
151.77600000000012
 21
-300.5890000000002
 31
0.0
  0
LINE
  5
70
330
17
100
AcDbEntity
  8
0
100
AcDbLine
 10
151.77600000000012
 20
-300.5890000000002
 30
0.0
 11
153.56300000000013
 21
-299.3470000000002
 31
0.0
  0
LINE
  5
71
330
17
100
AcDbEntity
  8
0
100
AcDbLine
 10
153.56300000000013
 20
-299.3470000000002
 30
0.0
 11
156.41600000000014
 21
-297.8130000000002
 31
0.0
  0
LINE
  5
72
330
17
100
AcDbEntity
  8
0
100
AcDbLine
 10
156.41600000000014
 20
-297.8130000000002
 30
0.0
 11
158.21100000000013
 21
-297.0730000000002
 31
0.0
  0
LINE
  5
73
330
17
100
AcDbEntity
  8
0
100
AcDbLine
 10
158.21100000000013
 20
-297.0730000000002
 30
0.0
 11
160.23400000000012
 21
-296.4250000000002
 31
0.0
  0
LINE
  5
74
330
17
100
AcDbEntity
  8
0
100
AcDbLine
 10
160.23400000000012
 20
-296.4250000000002
 30
0.0
 11
162.47300000000013
 21
-295.9230000000002
 31
0.0
  0
LINE
  5
75
330
17
100
AcDbEntity
  8
0
100
AcDbLine
 10
162.47300000000013
 20
-295.9230000000002
 30
0.0
 11
164.91500000000013
 21
-295.6220000000002
 31
0.0
  0
LINE
  5
76
330
17
100
AcDbEntity
  8
0
100
AcDbLine
 10
164.91500000000013
 20
-295.6220000000002
 30
0.0
 11
167.54700000000014
 21
-295.5760000000002
 31
0.0
  0
LINE
  5
77
330
17
100
AcDbEntity
  8
0
100
AcDbLine
 10
167.54700000000014
 20
-295.5760000000002
 30
0.0
 11
170.35700000000014
 21
-295.8410000000002
 31
0.0
  0
LINE
  5
78
330
17
100
AcDbEntity
  8
0
100
AcDbLine
 10
170.35700000000014
 20
-295.8410000000002
 30
0.0
 11
173.33100000000013
 21
-296.4710000000002
 31
0.0
  0
LINE
  5
79
330
17
100
AcDbEntity
  8
0
100
AcDbLine
 10
173.33100000000013
 20
-296.4710000000002
 30
0.0
 11
176.45700000000014
 21
-297.5210000000002
 31
0.0
  0
LINE
  5
7A
330
17
100
AcDbEntity
  8
0
100
AcDbLine
 10
176.45700000000014
 20
-297.5210000000002
 30
0.0
 11
179.72300000000013
 21
-299.04600000000016
 31
0.0
  0
LINE
  5
7B
330
17
100
AcDbEntity
  8
0
100
AcDbLine
 10
179.72300000000013
 20
-299.04600000000016
 30
0.0
 11
183.11500000000012
 21
-301.10000000000014
 31
0.0
  0
LINE
  5
7C
330
17
100
AcDbEntity
  8
0
100
AcDbLine
 10
183.11500000000012
 20
-301.10000000000014
 30
0.0
 11
333.9330000000001
 21
-300.48600000000016
 31
0.0
  0
LINE
  5
7D
330
17
100
AcDbEntity
  8
0
100
AcDbLine
 10
333.9330000000001
 20
-300.48600000000016
 30
0.0
 11
338.1010000000001
 21
-297.5740000000002
 31
0.0
  0
LINE
  5
7E
330
17
100
AcDbEntity
  8
0
100
AcDbLine
 10
338.1010000000001
 20
-297.5740000000002
 30
0.0
 11
338.4300000000001
 21
-297.3770000000002
 31
0.0
  0
LINE
  5
7F
330
17
100
AcDbEntity
  8
0
100
AcDbLine
 10
338.4300000000001
 20
-297.3770000000002
 30
0.0
 11
338.77300000000014
 21
-297.2090000000002
 31
0.0
  0
LINE
  5
80
330
17
100
AcDbEntity
  8
0
100
AcDbLine
 10
338.77300000000014
 20
-297.2090000000002
 30
0.0
 11
339.12800000000016
 21
-297.0710000000002
 31
0.0
  0
LINE
  5
81
330
17
100
AcDbEntity
  8
0
100
AcDbLine
 10
339.12800000000016
 20
-297.0710000000002
 30
0.0
 11
339.49400000000014
 21
-296.9630000000002
 31
0.0
  0
LINE
  5
82
330
17
100
AcDbEntity
  8
0
100
AcDbLine
 10
339.49400000000014
 20
-296.9630000000002
 30
0.0
 11
339.86800000000017
 21
-296.8860000000002
 31
0.0
  0
LINE
  5
83
330
17
100
AcDbEntity
  8
0
100
AcDbLine
 10
339.86800000000017
 20
-296.8860000000002
 30
0.0
 11
340.24800000000016
 21
-296.8410000000002
 31
0.0
  0
LINE
  5
84
330
17
100
AcDbEntity
  8
0
100
AcDbLine
 10
340.24800000000016
 20
-296.8410000000002
 30
0.0
 11
362.5500000000002
 21
-296.6870000000002
 31
0.0
  0
LINE
  5
85
330
17
100
AcDbEntity
  8
0
100
AcDbLine
 10
362.5500000000002
 20
-296.6870000000002
 30
0.0
 11
362.65900000000016
 21
-299.71900000000016
 31
0.0
  0
LINE
  5
86
330
17
100
AcDbEntity
  8
0
100
AcDbLine
 10
362.65900000000016
 20
-299.71900000000016
 30
0.0
 11
362.67400000000015
 21
-299.8000000000002
 31
0.0
  0
LINE
  5
87
330
17
100
AcDbEntity
  8
0
100
AcDbLine
 10
362.67400000000015
 20
-299.8000000000002
 30
0.0
 11
362.69600000000014
 21
-299.87800000000016
 31
0.0
  0
LINE
  5
88
330
17
100
AcDbEntity
  8
0
100
AcDbLine
 10
362.69600000000014
 20
-299.87800000000016
 30
0.0
 11
362.7260000000001
 21
-299.95200000000017
 31
0.0
  0
LINE
  5
89
330
17
100
AcDbEntity
  8
0
100
AcDbLine
 10
362.7260000000001
 20
-299.95200000000017
 30
0.0
 11
362.7620000000001
 21
-300.0230000000002
 31
0.0
  0
LINE
  5
8A
330
17
100
AcDbEntity
  8
0
100
AcDbLine
 10
362.7620000000001
 20
-300.0230000000002
 30
0.0
 11
362.8050000000001
 21
-300.08900000000017
 31
0.0
  0
LINE
  5
8B
330
17
100
AcDbEntity
  8
0
100
AcDbLine
 10
362.8050000000001
 20
-300.08900000000017
 30
0.0
 11
362.8540000000001
 21
-300.1510000000002
 31
0.0
  0
LINE
  5
8C
330
17
100
AcDbEntity
  8
0
100
AcDbLine
 10
362.8540000000001
 20
-300.1510000000002
 30
0.0
 11
362.9080000000001
 21
-300.2080000000002
 31
0.0
  0
LINE
  5
8D
330
17
100
AcDbEntity
  8
0
100
AcDbLine
 10
362.9080000000001
 20
-300.2080000000002
 30
0.0
 11
362.9670000000001
 21
-300.2600000000002
 31
0.0
  0
LINE
  5
8E
330
17
100
AcDbEntity
  8
0
100
AcDbLine
 10
362.9670000000001
 20
-300.2600000000002
 30
0.0
 11
363.0310000000001
 21
-300.3060000000002
 31
0.0
  0
LINE
  5
8F
330
17
100
AcDbEntity
  8
0
100
AcDbLine
 10
363.0310000000001
 20
-300.3060000000002
 30
0.0
 11
363.0990000000001
 21
-300.34600000000023
 31
0.0
  0
LINE
  5
90
330
17
100
AcDbEntity
  8
0
100
AcDbLine
 10
363.0990000000001
 20
-300.34600000000023
 30
0.0
 11
363.1710000000001
 21
-300.37900000000025
 31
0.0
  0
LINE
  5
91
330
17
100
AcDbEntity
  8
0
100
AcDbLine
 10
363.1710000000001
 20
-300.37900000000025
 30
0.0
 11
363.2460000000001
 21
-300.40500000000026
 31
0.0
  0
LINE
  5
92
330
17
100
AcDbEntity
  8
0
100
AcDbLine
 10
363.2460000000001
 20
-300.40500000000026
 30
0.0
 11
363.3250000000001
 21
-300.42400000000026
 31
0.0
  0
LINE
  5
93
330
17
100
AcDbEntity
  8
0
100
AcDbLine
 10
363.3250000000001
 20
-300.42400000000026
 30
0.0
 11
363.4060000000001
 21
-300.43600000000026
 31
0.0
  0
LINE
  5
94
330
17
100
AcDbEntity
  8
0
100
AcDbLine
 10
363.4060000000001
 20
-300.43600000000026
 30
0.0
 11
404.49200000000013
 21
-300.66500000000025
 31
0.0
  0
LINE
  5
95
330
17
100
AcDbEntity
  8
0
100
AcDbLine
 10
404.49200000000013
 20
-300.66500000000025
 30
0.0
 11
385.49600000000015
 21
-247.34000000000026
 31
0.0
  0
LINE
  5
96
330
17
100
AcDbEntity
  8
0
100
AcDbLine
 10
356.31800000000015
 20
-302.00300000000027
 30
0.0
 11
376.69300000000015
 21
-302.00300000000027
 31
0.0
  0
LINE
  5
97
330
17
100
AcDbEntity
  8
0
100
AcDbLine
 10
376.69300000000015
 20
-302.00300000000027
 30
0.0
 11
380.40200000000016
 21
-313.96700000000027
 31
0.0
  0
LINE
  5
98
330
17
100
AcDbEntity
  8
0
100
AcDbLine
 10
380.40200000000016
 20
-313.96700000000027
 30
0.0
 11
380.56400000000014
 21
-314.33100000000024
 31
0.0
  0
LINE
  5
99
330
17
100
AcDbEntity
  8
0
100
AcDbLine
 10
380.56400000000014
 20
-314.33100000000024
 30
0.0
 11
380.7520000000001
 21
-314.6780000000002
 31
0.0
  0
LINE
  5
9A
330
17
100
AcDbEntity
  8
0
100
AcDbLine
 10
380.7520000000001
 20
-314.6780000000002
 30
0.0
 11
380.96500000000015
 21
-315.00700000000023
 31
0.0
  0
LINE
  5
9B
330
17
100
AcDbEntity
  8
0
100
AcDbLine
 10
380.96500000000015
 20
-315.00700000000023
 30
0.0
 11
381.20200000000017
 21
-315.31700000000023
 31
0.0
  0
LINE
  5
9C
330
17
100
AcDbEntity
  8
0
100
AcDbLine
 10
381.20200000000017
 20
-315.31700000000023
 30
0.0
 11
381.4610000000002
 21
-315.60700000000026
 31
0.0
  0
LINE
  5
9D
330
17
100
AcDbEntity
  8
0
100
AcDbLine
 10
381.4610000000002
 20
-315.60700000000026
 30
0.0
 11
381.74100000000016
 21
-315.8750000000002
 31
0.0
  0
LINE
  5
9E
330
17
100
AcDbEntity
  8
0
100
AcDbLine
 10
381.74100000000016
 20
-315.8750000000002
 30
0.0
 11
382.04000000000013
 21
-316.1210000000002
 31
0.0
  0
LINE
  5
9F
330
17
100
AcDbEntity
  8
0
100
AcDbLine
 10
382.04000000000013
 20
-316.1210000000002
 30
0.0
 11
382.35700000000014
 21
-316.3430000000002
 31
0.0
  0
LINE
  5
A0
330
17
100
AcDbEntity
  8
0
100
AcDbLine
 10
382.35700000000014
 20
-316.3430000000002
 30
0.0
 11
382.69000000000017
 21
-316.54100000000017
 31
0.0
  0
LINE
  5
A1
330
17
100
AcDbEntity
  8
0
100
AcDbLine
 10
382.69000000000017
 20
-316.54100000000017
 30
0.0
 11
383.0380000000002
 21
-316.7130000000002
 31
0.0
  0
LINE
  5
A2
330
17
100
AcDbEntity
  8
0
100
AcDbLine
 10
383.0380000000002
 20
-316.7130000000002
 30
0.0
 11
383.4000000000002
 21
-316.8580000000002
 31
0.0
  0
LINE
  5
A3
330
17
100
AcDbEntity
  8
0
100
AcDbLine
 10
383.4000000000002
 20
-316.8580000000002
 30
0.0
 11
383.7740000000002
 21
-316.9750000000002
 31
0.0
  0
LINE
  5
A4
330
17
100
AcDbEntity
  8
0
100
AcDbLine
 10
383.7740000000002
 20
-316.9750000000002
 30
0.0
 11
384.1590000000002
 21
-317.0640000000002
 31
0.0
  0
LINE
  5
A5
330
17
100
AcDbEntity
  8
0
100
AcDbLine
 10
384.1590000000002
 20
-317.0640000000002
 30
0.0
 11
384.5530000000002
 21
-317.1230000000002
 31
0.0
  0
LINE
  5
A6
330
17
100
AcDbEntity
  8
0
100
AcDbLine
 10
384.5530000000002
 20
-317.1230000000002
 30
0.0
 11
405.32100000000025
 21
-317.7340000000002
 31
0.0
  0
LINE
  5
A7
330
17
100
AcDbEntity
  8
0
100
AcDbLine
 10
405.32100000000025
 20
-317.7340000000002
 30
0.0
 11
405.87700000000024
 21
-316.8670000000002
 31
0.0
  0
LINE
  5
A8
330
17
100
AcDbEntity
  8
0
100
AcDbLine
 10
405.87700000000024
 20
-316.8670000000002
 30
0.0
 11
406.5270000000002
 21
-315.9940000000002
 31
0.0
  0
LINE
  5
A9
330
17
100
AcDbEntity
  8
0
100
AcDbLine
 10
406.5270000000002
 20
-315.9940000000002
 30
0.0
 11
407.38400000000024
 21
-315.0170000000002
 31
0.0
  0
LINE
  5
AA
330
17
100
AcDbEntity
  8
0
100
AcDbLine
 10
407.38400000000024
 20
-315.0170000000002
 30
0.0
 11
408.41800000000023
 21
-314.07600000000025
 31
0.0
  0
LINE
  5
AB
330
17
100
AcDbEntity
  8
0
100
AcDbLine
 10
408.41800000000023
 20
-314.07600000000025
 30
0.0
 11
408.99200000000025
 21
-313.66300000000024
 31
0.0
  0
LINE
  5
AC
330
17
100
AcDbEntity
  8
0
100
AcDbLine
 10
408.99200000000025
 20
-313.66300000000024
 30
0.0
 11
409.5990000000003
 21
-313.31200000000024
 31
0.0
  0
LINE
  5
AD
330
17
100
AcDbEntity
  8
0
100
AcDbLine
 10
409.5990000000003
 20
-313.31200000000024
 30
0.0
 11
410.2350000000003
 21
-313.0410000000002
 31
0.0
  0
LINE
  5
AE
330
17
100
AcDbEntity
  8
0
100
AcDbLine
 10
410.2350000000003
 20
-313.0410000000002
 30
0.0
 11
410.5630000000003
 21
-312.9410000000002
 31
0.0
  0
LINE
  5
AF
330
17
100
AcDbEntity
  8
0
100
AcDbLine
 10
410.5630000000003
 20
-312.9410000000002
 30
0.0
 11
410.8970000000003
 21
-312.8670000000002
 31
0.0
  0
LINE
  5
B0
330
17
100
AcDbEntity
  8
0
100
AcDbLine
 10
410.8970000000003
 20
-312.8670000000002
 30
0.0
 11
411.2360000000003
 21
-312.8220000000002
 31
0.0
  0
LINE
  5
B1
330
17
100
AcDbEntity
  8
0
100
AcDbLine
 10
411.2360000000003
 20
-312.8220000000002
 30
0.0
 11
411.58000000000027
 21
-312.80800000000016
 31
0.0
  0
LINE
  5
B2
330
17
100
AcDbEntity
  8
0
100
AcDbLine
 10
411.58000000000027
 20
-312.80800000000016
 30
0.0
 11
411.92900000000026
 21
-312.82700000000017
 31
0.0
  0
LINE
  5
B3
330
17
100
AcDbEntity
  8
0
100
AcDbLine
 10
411.92900000000026
 20
-312.82700000000017
 30
0.0
 11
412.28200000000027
 21
-312.88100000000014
 31
0.0
  0
LINE
  5
B4
330
17
100
AcDbEntity
  8
0
100
AcDbLine
 10
412.28200000000027
 20
-312.88100000000014
 30
0.0
 11
413.47200000000026
 21
-330.97400000000016
 31
0.0
  0
LINE
  5
B5
330
17
100
AcDbEntity
  8
0
100
AcDbLine
 10
413.47200000000026
 20
-330.97400000000016
 30
0.0
 11
413.55900000000025
 21
-331.37100000000015
 31
0.0
  0
LINE
  5
B6
330
17
100
AcDbEntity
  8
0
100
AcDbLine
 10
413.55900000000025
 20
-331.37100000000015
 30
0.0
 11
413.6780000000003
 21
-331.75600000000014
 31
0.0
  0
LINE
  5
B7
330
17
100
AcDbEntity
  8
0
100
AcDbLine
 10
413.6780000000003
 20
-331.75600000000014
 30
0.0
 11
413.82800000000026
 21
-332.1270000000001
 31
0.0
  0
LINE
  5
B8
330
17
100
AcDbEntity
  8
0
100
AcDbLine
 10
413.82800000000026
 20
-332.1270000000001
 30
0.0
 11
414.00800000000027
 21
-332.4830000000001
 31
0.0
  0
LINE
  5
B9
330
17
100
AcDbEntity
  8
0
100
AcDbLine
 10
414.00800000000027
 20
-332.4830000000001
 30
0.0
 11
414.2160000000003
 21
-332.8220000000001
 31
0.0
  0
LINE
  5
BA
330
17
100
AcDbEntity
  8
0
100
AcDbLine
 10
414.2160000000003
 20
-332.8220000000001
 30
0.0
 11
414.4510000000003
 21
-333.1420000000001
 31
0.0
  0
LINE
  5
BB
330
17
100
AcDbEntity
  8
0
100
AcDbLine
 10
414.4510000000003
 20
-333.1420000000001
 30
0.0
 11
414.71200000000033
 21
-333.4420000000001
 31
0.0
  0
LINE
  5
BC
330
17
100
AcDbEntity
  8
0
100
AcDbLine
 10
414.71200000000033
 20
-333.4420000000001
 30
0.0
 11
414.99700000000036
 21
-333.7190000000001
 31
0.0
  0
LINE
  5
BD
330
17
100
AcDbEntity
  8
0
100
AcDbLine
 10
414.99700000000036
 20
-333.7190000000001
 30
0.0
 11
415.30500000000035
 21
-333.9730000000001
 31
0.0
  0
LINE
  5
BE
330
17
100
AcDbEntity
  8
0
100
AcDbLine
 10
415.30500000000035
 20
-333.9730000000001
 30
0.0
 11
415.63400000000036
 21
-334.20100000000014
 31
0.0
  0
LINE
  5
BF
330
17
100
AcDbEntity
  8
0
100
AcDbLine
 10
415.63400000000036
 20
-334.20100000000014
 30
0.0
 11
415.9840000000004
 21
-334.40200000000016
 31
0.0
  0
LINE
  5
C0
330
17
100
AcDbEntity
  8
0
100
AcDbLine
 10
415.9840000000004
 20
-334.40200000000016
 30
0.0
 11
416.3530000000004
 21
-334.5740000000002
 31
0.0
  0
LINE
  5
C1
330
17
100
AcDbEntity
  8
0
100
AcDbLine
 10
416.3530000000004
 20
-334.5740000000002
 30
0.0
 11
416.73900000000043
 21
-334.7150000000002
 31
0.0
  0
LINE
  5
C2
330
17
100
AcDbEntity
  8
0
100
AcDbLine
 10
416.73900000000043
 20
-334.7150000000002
 30
0.0
 11
420.27900000000045
 21
-335.5300000000002
 31
0.0
  0
LINE
  5
C3
330
17
100
AcDbEntity
  8
0
100
AcDbLine
 10
420.27900000000045
 20
-335.5300000000002
 30
0.0
 11
419.46600000000046
 21
-338.9450000000002
 31
0.0
  0
LINE
  5
C4
330
17
100
AcDbEntity
  8
0
100
AcDbLine
 10
419.46600000000046
 20
-338.9450000000002
 30
0.0
 11
418.87800000000044
 21
-343.0470000000002
 31
0.0
  0
LINE
  5
C5
330
17
100
AcDbEntity
  8
0
100
AcDbLine
 10
418.87800000000044
 20
-343.0470000000002
 30
0.0
 11
418.54900000000043
 21
-348.5980000000002
 31
0.0
  0
LINE
  5
C6
330
17
100
AcDbEntity
  8
0
100
AcDbLine
 10
418.54900000000043
 20
-348.5980000000002
 30
0.0
 11
418.7640000000004
 21
-355.4870000000002
 31
0.0
  0
LINE
  5
C7
330
17
100
AcDbEntity
  8
0
100
AcDbLine
 10
418.7640000000004
 20
-355.4870000000002
 30
0.0
 11
419.8080000000004
 21
-363.6030000000002
 31
0.0
  0
LINE
  5
C8
330
17
100
AcDbEntity
  8
0
100
AcDbLine
 10
419.8080000000004
 20
-363.6030000000002
 30
0.0
 11
421.9660000000004
 21
-372.83500000000015
 31
0.0
  0
LINE
  5
C9
330
17
100
AcDbEntity
  8
0
100
AcDbLine
 10
421.9660000000004
 20
-372.83500000000015
 30
0.0
 11
425.5230000000004
 21
-383.0720000000002
 31
0.0
  0
LINE
  5
CA
330
17
100
AcDbEntity
  8
0
100
AcDbLine
 10
425.5230000000004
 20
-383.0720000000002
 30
0.0
 11
428.7040000000004
 21
-388.5740000000002
 31
0.0
  0
LINE
  5
CB
330
17
100
AcDbEntity
  8
0
100
AcDbLine
 10
428.7040000000004
 20
-388.5740000000002
 30
0.0
 11
427.9550000000004
 21
-388.2100000000002
 31
0.0
  0
LINE
  5
CC
330
17
100
AcDbEntity
  8
0
100
AcDbLine
 10
427.9550000000004
 20
-388.2100000000002
 30
0.0
 11
425.9420000000004
 21
-387.4020000000002
 31
0.0
  0
LINE
  5
CD
330
17
100
AcDbEntity
  8
0
100
AcDbLine
 10
425.9420000000004
 20
-387.4020000000002
 30
0.0
 11
423.0140000000004
 21
-386.5770000000002
 31
0.0
  0
LINE
  5
CE
330
17
100
AcDbEntity
  8
0
100
AcDbLine
 10
423.0140000000004
 20
-386.5770000000002
 30
0.0
 11
421.3170000000004
 21
-386.2910000000002
 31
0.0
  0
LINE
  5
CF
330
17
100
AcDbEntity
  8
0
100
AcDbLine
 10
421.3170000000004
 20
-386.2910000000002
 30
0.0
 11
419.5230000000004
 21
-386.16000000000025
 31
0.0
  0
LINE
  5
D0
330
17
100
AcDbEntity
  8
0
100
AcDbLine
 10
419.5230000000004
 20
-386.16000000000025
 30
0.0
 11
417.6750000000004
 21
-386.2380000000002
 31
0.0
  0
LINE
  5
D1
330
17
100
AcDbEntity
  8
0
100
AcDbLine
 10
417.6750000000004
 20
-386.2380000000002
 30
0.0
 11
416.7450000000004
 21
-386.37200000000024
 31
0.0
  0
LINE
  5
D2
330
17
100
AcDbEntity
  8
0
100
AcDbLine
 10
416.7450000000004
 20
-386.37200000000024
 30
0.0
 11
415.8180000000004
 21
-386.57800000000026
 31
0.0
  0
LINE
  5
D3
330
17
100
AcDbEntity
  8
0
100
AcDbLine
 10
415.8180000000004
 20
-386.57800000000026
 30
0.0
 11
414.8990000000004
 21
-386.8630000000003
 31
0.0
  0
LINE
  5
D4
330
17
100
AcDbEntity
  8
0
100
AcDbLine
 10
414.8990000000004
 20
-386.8630000000003
 30
0.0
 11
413.9940000000004
 21
-387.2330000000003
 31
0.0
  0
LINE
  5
D5
330
17
100
AcDbEntity
  8
0
100
AcDbLine
 10
413.9940000000004
 20
-387.2330000000003
 30
0.0
 11
413.10900000000044
 21
-387.6950000000003
 31
0.0
  0
LINE
  5
D6
330
17
100
AcDbEntity
  8
0
100
AcDbLine
 10
413.10900000000044
 20
-387.6950000000003
 30
0.0
 11
412.2490000000004
 21
-388.25600000000026
 31
0.0
  0
LINE
  5
D7
330
17
100
AcDbEntity
  8
0
100
AcDbLine
 10
412.2490000000004
 20
-388.25600000000026
 30
0.0
 11
411.41900000000044
 21
-388.92200000000025
 31
0.0
  0
LINE
  5
D8
330
17
100
AcDbEntity
  8
0
100
AcDbLine
 10
411.41900000000044
 20
-388.92200000000025
 30
0.0
 11
410.62500000000045
 21
-389.7000000000003
 31
0.0
  0
LINE
  5
D9
330
17
100
AcDbEntity
  8
0
100
AcDbLine
 10
410.62500000000045
 20
-389.7000000000003
 30
0.0
 11
409.87300000000045
 21
-390.59700000000026
 31
0.0
  0
LINE
  5
DA
330
17
100
AcDbEntity
  8
0
100
AcDbLine
 10
409.87300000000045
 20
-390.59700000000026
 30
0.0
 11
409.1670000000004
 21
-391.61900000000026
 31
0.0
  0
LINE
  5
DB
330
17
100
AcDbEntity
  8
0
100
AcDbLine
 10
409.1670000000004
 20
-391.61900000000026
 30
0.0
 11
408.5140000000004
 21
-392.77300000000025
 31
0.0
  0
LINE
  5
DC
330
17
100
AcDbEntity
  8
0
100
AcDbLine
 10
408.5140000000004
 20
-392.77300000000025
 30
0.0
 11
407.9190000000004
 21
-394.06600000000026
 31
0.0
  0
LINE
  5
DD
330
17
100
AcDbEntity
  8
0
100
AcDbLine
 10
407.9190000000004
 20
-394.06600000000026
 30
0.0
 11
407.3870000000004
 21
-395.50400000000025
 31
0.0
  0
LINE
  5
DE
330
17
100
AcDbEntity
  8
0
100
AcDbLine
 10
407.3870000000004
 20
-395.50400000000025
 30
0.0
 11
406.9240000000004
 21
-397.0940000000002
 31
0.0
  0
LINE
  5
DF
330
17
100
AcDbEntity
  8
0
100
AcDbLine
 10
406.9240000000004
 20
-397.0940000000002
 30
0.0
 11
400.7530000000004
 21
-373.8830000000002
 31
0.0
  0
LINE
  5
E0
330
17
100
AcDbEntity
  8
0
100
AcDbLine
 10
400.7530000000004
 20
-373.8830000000002
 30
0.0
 11
399.8520000000004
 21
-371.62000000000023
 31
0.0
  0
LINE
  5
E1
330
17
100
AcDbEntity
  8
0
100
AcDbLine
 10
399.8520000000004
 20
-371.62000000000023
 30
0.0
 11
398.17900000000037
 21
-368.3780000000002
 31
0.0
  0
LINE
  5
E2
330
17
100
AcDbEntity
  8
0
100
AcDbLine
 10
398.17900000000037
 20
-368.3780000000002
 30
0.0
 11
395.59500000000037
 21
-364.5900000000002
 31
0.0
  0
LINE
  5
E3
330
17
100
AcDbEntity
  8
0
100
AcDbLine
 10
395.59500000000037
 20
-364.5900000000002
 30
0.0
 11
393.91700000000037
 21
-362.6260000000002
 31
0.0
  0
LINE
  5
E4
330
17
100
AcDbEntity
  8
0
100
AcDbLine
 10
393.91700000000037
 20
-362.6260000000002
 30
0.0
 11
391.95900000000034
 21
-360.6880000000002
 31
0.0
  0
LINE
  5
E5
330
17
100
AcDbEntity
  8
0
100
AcDbLine
 10
391.95900000000034
 20
-360.6880000000002
 30
0.0
 11
389.7030000000004
 21
-358.8300000000002
 31
0.0
  0
LINE
  5
E6
330
17
100
AcDbEntity
  8
0
100
AcDbLine
 10
389.7030000000004
 20
-358.8300000000002
 30
0.0
 11
387.13100000000037
 21
-357.1070000000002
 31
0.0
  0
LINE
  5
E7
330
17
100
AcDbEntity
  8
0
100
AcDbLine
 10
387.13100000000037
 20
-357.1070000000002
 30
0.0
 11
384.2260000000004
 21
-355.5720000000002
 31
0.0
  0
LINE
  5
E8
330
17
100
AcDbEntity
  8
0
100
AcDbLine
 10
384.2260000000004
 20
-355.5720000000002
 30
0.0
 11
380.9710000000004
 21
-354.2800000000002
 31
0.0
  0
LINE
  5
E9
330
17
100
AcDbEntity
  8
0
100
AcDbLine
 10
380.9710000000004
 20
-354.2800000000002
 30
0.0
 11
377.3480000000004
 21
-353.2840000000002
 31
0.0
  0
LINE
  5
EA
330
17
100
AcDbEntity
  8
0
100
AcDbLine
 10
377.3480000000004
 20
-353.2840000000002
 30
0.0
 11
373.3390000000004
 21
-352.63900000000024
 31
0.0
  0
LINE
  5
EB
330
17
100
AcDbEntity
  8
0
100
AcDbLine
 10
373.3390000000004
 20
-352.63900000000024
 30
0.0
 11
368.9470000000004
 21
-350.51800000000026
 31
0.0
  0
LINE
  5
EC
330
17
100
AcDbEntity
  8
0
100
AcDbLine
 10
368.9470000000004
 20
-350.51800000000026
 30
0.0
 11
356.3180000000004
 21
-302.00400000000025
 31
0.0
  0
LINE
  5
ED
330
17
100
AcDbEntity
  8
0
100
AcDbLine
 10
275.5930000000004
 20
-302.77800000000025
 30
0.0
 11
276.0230000000004
 21
-315.15800000000024
 31
0.0
  0
LINE
  5
EE
330
17
100
AcDbEntity
  8
0
100
AcDbLine
 10
276.0230000000004
 20
-315.15800000000024
 30
0.0
 11
279.60200000000043
 21
-327.63800000000026
 31
0.0
  0
LINE
  5
EF
330
17
100
AcDbEntity
  8
0
100
AcDbLine
 10
279.60200000000043
 20
-327.63800000000026
 30
0.0
 11
279.80600000000044
 21
-328.1180000000003
 31
0.0
  0
LINE
  5
F0
330
17
100
AcDbEntity
  8
0
100
AcDbLine
 10
279.80600000000044
 20
-328.1180000000003
 30
0.0
 11
280.04600000000045
 21
-328.5750000000003
 31
0.0
  0
LINE
  5
F1
330
17
100
AcDbEntity
  8
0
100
AcDbLine
 10
280.04600000000045
 20
-328.5750000000003
 30
0.0
 11
280.32000000000045
 21
-329.00800000000027
 31
0.0
  0
LINE
  5
F2
330
17
100
AcDbEntity
  8
0
100
AcDbLine
 10
280.32000000000045
 20
-329.00800000000027
 30
0.0
 11
280.62700000000046
 21
-329.41500000000025
 31
0.0
  0
LINE
  5
F3
330
17
100
AcDbEntity
  8
0
100
AcDbLine
 10
280.62700000000046
 20
-329.41500000000025
 30
0.0
 11
280.96400000000045
 21
-329.79500000000024
 31
0.0
  0
LINE
  5
F4
330
17
100
AcDbEntity
  8
0
100
AcDbLine
 10
280.96400000000045
 20
-329.79500000000024
 30
0.0
 11
281.32900000000046
 21
-330.14600000000024
 31
0.0
  0
LINE
  5
F5
330
17
100
AcDbEntity
  8
0
100
AcDbLine
 10
281.32900000000046
 20
-330.14600000000024
 30
0.0
 11
281.7200000000005
 21
-330.46600000000024
 31
0.0
  0
LINE
  5
F6
330
17
100
AcDbEntity
  8
0
100
AcDbLine
 10
281.7200000000005
 20
-330.46600000000024
 30
0.0
 11
282.1350000000005
 21
-330.75400000000025
 31
0.0
  0
LINE
  5
F7
330
17
100
AcDbEntity
  8
0
100
AcDbLine
 10
282.1350000000005
 20
-330.75400000000025
 30
0.0
 11
282.5720000000005
 21
-331.00900000000024
 31
0.0
  0
LINE
  5
F8
330
17
100
AcDbEntity
  8
0
100
AcDbLine
 10
282.5720000000005
 20
-331.00900000000024
 30
0.0
 11
283.0290000000005
 21
-331.22900000000027
 31
0.0
  0
LINE
  5
F9
330
17
100
AcDbEntity
  8
0
100
AcDbLine
 10
283.0290000000005
 20
-331.22900000000027
 30
0.0
 11
283.5050000000005
 21
-331.41200000000026
 31
0.0
  0
LINE
  5
FA
330
17
100
AcDbEntity
  8
0
100
AcDbLine
 10
283.5050000000005
 20
-331.41200000000026
 30
0.0
 11
283.9970000000005
 21
-331.55700000000024
 31
0.0
  0
LINE
  5
FB
330
17
100
AcDbEntity
  8
0
100
AcDbLine
 10
283.9970000000005
 20
-331.55700000000024
 30
0.0
 11
284.5030000000005
 21
-331.66300000000024
 31
0.0
  0
LINE
  5
FC
330
17
100
AcDbEntity
  8
0
100
AcDbLine
 10
284.5030000000005
 20
-331.66300000000024
 30
0.0
 11
285.02100000000047
 21
-331.72700000000026
 31
0.0
  0
LINE
  5
FD
330
17
100
AcDbEntity
  8
0
100
AcDbLine
 10
285.02100000000047
 20
-331.72700000000026
 30
0.0
 11
349.7850000000005
 21
-332.17900000000026
 31
0.0
  0
LINE
  5
FE
330
17
100
AcDbEntity
  8
0
100
AcDbLine
 10
349.7850000000005
 20
-332.17900000000026
 30
0.0
 11
346.7060000000005
 21
-333.85000000000025
 31
0.0
  0
LINE
  5
FF
330
17
100
AcDbEntity
  8
0
100
AcDbLine
 10
346.7060000000005
 20
-333.85000000000025
 30
0.0
 11
345.86500000000046
 21
-334.5630000000003
 31
0.0
  0
LINE
  5
100
330
17
100
AcDbEntity
  8
0
100
AcDbLine
 10
345.86500000000046
 20
-334.5630000000003
 30
0.0
 11
345.14700000000045
 21
-335.3530000000003
 31
0.0
  0
LINE
  5
101
330
17
100
AcDbEntity
  8
0
100
AcDbLine
 10
345.14700000000045
 20
-335.3530000000003
 30
0.0
 11
344.55100000000044
 21
-336.2070000000003
 31
0.0
  0
LINE
  5
102
330
17
100
AcDbEntity
  8
0
100
AcDbLine
 10
344.55100000000044
 20
-336.2070000000003
 30
0.0
 11
344.07700000000045
 21
-337.11400000000026
 31
0.0
  0
LINE
  5
103
330
17
100
AcDbEntity
  8
0
100
AcDbLine
 10
344.07700000000045
 20
-337.11400000000026
 30
0.0
 11
343.72300000000047
 21
-338.06100000000026
 31
0.0
  0
LINE
  5
104
330
17
100
AcDbEntity
  8
0
100
AcDbLine
 10
343.72300000000047
 20
-338.06100000000026
 30
0.0
 11
343.4890000000005
 21
-339.03700000000026
 31
0.0
  0
LINE
  5
105
330
17
100
AcDbEntity
  8
0
100
AcDbLine
 10
343.4890000000005
 20
-339.03700000000026
 30
0.0
 11
343.3750000000005
 21
-340.0290000000003
 31
0.0
  0
LINE
  5
106
330
17
100
AcDbEntity
  8
0
100
AcDbLine
 10
343.3750000000005
 20
-340.0290000000003
 30
0.0
 11
343.37900000000053
 21
-341.0260000000003
 31
0.0
  0
LINE
  5
107
330
17
100
AcDbEntity
  8
0
100
AcDbLine
 10
343.37900000000053
 20
-341.0260000000003
 30
0.0
 11
343.50100000000054
 21
-342.01500000000027
 31
0.0
  0
LINE
  5
108
330
17
100
AcDbEntity
  8
0
100
AcDbLine
 10
343.50100000000054
 20
-342.01500000000027
 30
0.0
 11
343.7400000000005
 21
-342.9850000000003
 31
0.0
  0
LINE
  5
109
330
17
100
AcDbEntity
  8
0
100
AcDbLine
 10
343.7400000000005
 20
-342.9850000000003
 30
0.0
 11
344.09500000000054
 21
-343.9230000000003
 31
0.0
  0
LINE
  5
10A
330
17
100
AcDbEntity
  8
0
100
AcDbLine
 10
344.09500000000054
 20
-343.9230000000003
 30
0.0
 11
344.56500000000057
 21
-344.81800000000027
 31
0.0
  0
LINE
  5
10B
330
17
100
AcDbEntity
  8
0
100
AcDbLine
 10
344.56500000000057
 20
-344.81800000000027
 30
0.0
 11
345.15000000000055
 21
-345.65700000000027
 31
0.0
  0
LINE
  5
10C
330
17
100
AcDbEntity
  8
0
100
AcDbLine
 10
345.15000000000055
 20
-345.65700000000027
 30
0.0
 11
345.84900000000056
 21
-346.42900000000026
 31
0.0
  0
LINE
  5
10D
330
17
100
AcDbEntity
  8
0
100
AcDbLine
 10
345.84900000000056
 20
-346.42900000000026
 30
0.0
 11
346.66100000000057
 21
-347.12200000000024
 31
0.0
  0
LINE
  5
10E
330
17
100
AcDbEntity
  8
0
100
AcDbLine
 10
346.66100000000057
 20
-347.12200000000024
 30
0.0
 11
347.5860000000006
 21
-347.72300000000024
 31
0.0
  0
LINE
  5
10F
330
17
100
AcDbEntity
  8
0
100
AcDbLine
 10
347.5860000000006
 20
-347.72300000000024
 30
0.0
 11
358.1240000000006
 21
-353.0700000000002
 31
0.0
  0
LINE
  5
110
330
17
100
AcDbEntity
  8
0
100
AcDbLine
 10
358.1240000000006
 20
-353.0700000000002
 30
0.0
 11
256.5950000000006
 21
-353.0700000000002
 31
0.0
  0
LINE
  5
111
330
17
100
AcDbEntity
  8
0
100
AcDbLine
 10
256.5950000000006
 20
-353.0700000000002
 30
0.0
 11
255.2680000000006
 21
-351.8110000000002
 31
0.0
  0
LINE
  5
112
330
17
100
AcDbEntity
  8
0
100
AcDbLine
 10
255.2680000000006
 20
-351.8110000000002
 30
0.0
 11
251.7810000000006
 21
-348.9970000000002
 31
0.0
  0
LINE
  5
113
330
17
100
AcDbEntity
  8
0
100
AcDbLine
 10
251.7810000000006
 20
-348.9970000000002
 30
0.0
 11
249.4590000000006
 21
-347.45700000000016
 31
0.0
  0
LINE
  5
114
330
17
100
AcDbEntity
  8
0
100
AcDbLine
 10
249.4590000000006
 20
-347.45700000000016
 30
0.0
 11
246.8750000000006
 21
-346.07000000000016
 31
0.0
  0
LINE
  5
115
330
17
100
AcDbEntity
  8
0
100
AcDbLine
 10
246.8750000000006
 20
-346.07000000000016
 30
0.0
 11
245.5140000000006
 21
-345.4900000000002
 31
0.0
  0
LINE
  5
116
330
17
100
AcDbEntity
  8
0
100
AcDbLine
 10
245.5140000000006
 20
-345.4900000000002
 30
0.0
 11
244.1220000000006
 21
-345.01500000000016
 31
0.0
  0
LINE
  5
117
330
17
100
AcDbEntity
  8
0
100
AcDbLine
 10
244.1220000000006
 20
-345.01500000000016
 30
0.0
 11
242.7110000000006
 21
-344.66900000000015
 31
0.0
  0
LINE
  5
118
330
17
100
AcDbEntity
  8
0
100
AcDbLine
 10
242.7110000000006
 20
-344.66900000000015
 30
0.0
 11
237.81500000000062
 21
-344.20600000000013
 31
0.0
  0
LINE
  5
119
330
17
100
AcDbEntity
  8
0
100
AcDbLine
 10
237.81500000000062
 20
-344.20600000000013
 30
0.0
 11
240.86300000000062
 21
-344.4730000000001
 31
0.0
  0
LINE
  5
11A
330
17
100
AcDbEntity
  8
0
100
AcDbLine
 10
240.86300000000062
 20
-344.4730000000001
 30
0.0
 11
250.06200000000064
 21
-339.14300000000014
 31
0.0
  0
LINE
  5
11B
330
17
100
AcDbEntity
  8
0
100
AcDbLine
 10
250.06200000000064
 20
-339.14300000000014
 30
0.0
 11
249.97600000000062
 21
-334.7590000000001
 31
0.0
  0
LINE
  5
11C
330
17
100
AcDbEntity
  8
0
100
AcDbLine
 10
249.97600000000062
 20
-334.7590000000001
 30
0.0
 11
241.14900000000063
 21
-332.72000000000014
 31
0.0
  0
LINE
  5
11D
330
17
100
AcDbEntity
  8
0
100
AcDbLine
 10
241.14900000000063
 20
-332.72000000000014
 30
0.0
 11
225.13000000000062
 21
-331.05300000000017
 31
0.0
  0
LINE
  5
11E
330
17
100
AcDbEntity
  8
0
100
AcDbLine
 10
225.13000000000062
 20
-331.05300000000017
 30
0.0
 11
120.35400000000062
 21
-330.62800000000016
 31
0.0
  0
LINE
  5
11F
330
17
100
AcDbEntity
  8
0
100
AcDbLine
 10
120.35400000000062
 20
-330.62800000000016
 30
0.0
 11
120.20900000000063
 21
-330.60600000000017
 31
0.0
  0
LINE
  5
120
330
17
100
AcDbEntity
  8
0
100
AcDbLine
 10
120.20900000000063
 20
-330.60600000000017
 30
0.0
 11
120.06900000000063
 21
-330.57000000000016
 31
0.0
  0
LINE
  5
121
330
17
100
AcDbEntity
  8
0
100
AcDbLine
 10
120.06900000000063
 20
-330.57000000000016
 30
0.0
 11
119.93500000000063
 21
-330.5210000000002
 31
0.0
  0
LINE
  5
122
330
17
100
AcDbEntity
  8
0
100
AcDbLine
 10
119.93500000000063
 20
-330.5210000000002
 30
0.0
 11
119.80800000000063
 21
-330.4590000000002
 31
0.0
  0
LINE
  5
123
330
17
100
AcDbEntity
  8
0
100
AcDbLine
 10
119.80800000000063
 20
-330.4590000000002
 30
0.0
 11
119.68800000000063
 21
-330.3860000000002
 31
0.0
  0
LINE
  5
124
330
17
100
AcDbEntity
  8
0
100
AcDbLine
 10
119.68800000000063
 20
-330.3860000000002
 30
0.0
 11
119.57600000000063
 21
-330.3020000000002
 31
0.0
  0
LINE
  5
125
330
17
100
AcDbEntity
  8
0
100
AcDbLine
 10
119.57600000000063
 20
-330.3020000000002
 30
0.0
 11
119.47200000000063
 21
-330.2080000000002
 31
0.0
  0
LINE
  5
126
330
17
100
AcDbEntity
  8
0
100
AcDbLine
 10
119.47200000000063
 20
-330.2080000000002
 30
0.0
 11
119.37800000000064
 21
-330.1040000000002
 31
0.0
  0
LINE
  5
127
330
17
100
AcDbEntity
  8
0
100
AcDbLine
 10
119.37800000000064
 20
-330.1040000000002
 30
0.0
 11
119.29400000000064
 21
-329.9920000000002
 31
0.0
  0
LINE
  5
128
330
17
100
AcDbEntity
  8
0
100
AcDbLine
 10
119.29400000000064
 20
-329.9920000000002
 30
0.0
 11
119.22100000000064
 21
-329.8720000000002
 31
0.0
  0
LINE
  5
129
330
17
100
AcDbEntity
  8
0
100
AcDbLine
 10
119.22100000000064
 20
-329.8720000000002
 30
0.0
 11
119.16000000000064
 21
-329.7440000000002
 31
0.0
  0
LINE
  5
12A
330
17
100
AcDbEntity
  8
0
100
AcDbLine
 10
119.16000000000064
 20
-329.7440000000002
 30
0.0
 11
119.11100000000063
 21
-329.6100000000002
 31
0.0
  0
LINE
  5
12B
330
17
100
AcDbEntity
  8
0
100
AcDbLine
 10
119.11100000000063
 20
-329.6100000000002
 30
0.0
 11
119.07500000000063
 21
-329.4700000000002
 31
0.0
  0
LINE
  5
12C
330
17
100
AcDbEntity
  8
0
100
AcDbLine
 10
119.07500000000063
 20
-329.4700000000002
 30
0.0
 11
119.05300000000062
 21
-329.3250000000002
 31
0.0
  0
LINE
  5
12D
330
17
100
AcDbEntity
  8
0
100
AcDbLine
 10
119.05300000000062
 20
-329.3250000000002
 30
0.0
 11
119.05500000000062
 21
-304.5170000000002
 31
0.0
  0
LINE
  5
12E
330
17
100
AcDbEntity
  8
0
100
AcDbLine
 10
119.05500000000062
 20
-304.5170000000002
 30
0.0
 11
119.08400000000061
 21
-304.3250000000002
 31
0.0
  0
LINE
  5
12F
330
17
100
AcDbEntity
  8
0
100
AcDbLine
 10
119.08400000000061
 20
-304.3250000000002
 30
0.0
 11
119.13200000000062
 21
-304.1400000000002
 31
0.0
  0
LINE
  5
130
330
17
100
AcDbEntity
  8
0
100
AcDbLine
 10
119.13200000000062
 20
-304.1400000000002
 30
0.0
 11
119.19700000000061
 21
-303.9620000000002
 31
0.0
  0
LINE
  5
131
330
17
100
AcDbEntity
  8
0
100
AcDbLine
 10
119.19700000000061
 20
-303.9620000000002
 30
0.0
 11
119.27800000000062
 21
-303.79300000000023
 31
0.0
  0
LINE
  5
132
330
17
100
AcDbEntity
  8
0
100
AcDbLine
 10
119.27800000000062
 20
-303.79300000000023
 30
0.0
 11
119.37500000000061
 21
-303.63400000000024
 31
0.0
  0
LINE
  5
133
330
17
100
AcDbEntity
  8
0
100
AcDbLine
 10
119.37500000000061
 20
-303.63400000000024
 30
0.0
 11
119.48600000000062
 21
-303.48500000000024
 31
0.0
  0
LINE
  5
134
330
17
100
AcDbEntity
  8
0
100
AcDbLine
 10
119.48600000000062
 20
-303.48500000000024
 30
0.0
 11
119.61100000000062
 21
-303.34800000000024
 31
0.0
  0
LINE
  5
135
330
17
100
AcDbEntity
  8
0
100
AcDbLine
 10
119.61100000000062
 20
-303.34800000000024
 30
0.0
 11
119.74800000000062
 21
-303.22300000000024
 31
0.0
  0
LINE
  5
136
330
17
100
AcDbEntity
  8
0
100
AcDbLine
 10
119.74800000000062
 20
-303.22300000000024
 30
0.0
 11
119.89700000000062
 21
-303.11200000000025
 31
0.0
  0
LINE
  5
137
330
17
100
AcDbEntity
  8
0
100
AcDbLine
 10
119.89700000000062
 20
-303.11200000000025
 30
0.0
 11
120.05600000000062
 21
-303.01500000000027
 31
0.0
  0
LINE
  5
138
330
17
100
AcDbEntity
  8
0
100
AcDbLine
 10
120.05600000000062
 20
-303.01500000000027
 30
0.0
 11
120.22500000000062
 21
-302.93400000000025
 31
0.0
  0
LINE
  5
139
330
17
100
AcDbEntity
  8
0
100
AcDbLine
 10
120.22500000000062
 20
-302.93400000000025
 30
0.0
 11
120.40300000000062
 21
-302.86900000000026
 31
0.0
  0
LINE
  5
13A
330
17
100
AcDbEntity
  8
0
100
AcDbLine
 10
120.40300000000062
 20
-302.86900000000026
 30
0.0
 11
120.58800000000062
 21
-302.82100000000025
 31
0.0
  0
LINE
  5
13B
330
17
100
AcDbEntity
  8
0
100
AcDbLine
 10
120.58800000000062
 20
-302.82100000000025
 30
0.0
 11
120.78000000000061
 21
-302.79200000000026
 31
0.0
  0
LINE
  5
13C
330
17
100
AcDbEntity
  8
0
100
AcDbLine
 10
120.78000000000061
 20
-302.79200000000026
 30
0.0
 11
275.5930000000006
 21
-302.78200000000027
 31
0.0
  0
LINE
  5
13D
330
17
100
AcDbEntity
  8
0
100
AcDbLine
 10
525.3230000000005
 20
-246.78900000000027
 30
0.0
 11
525.3850000000006
 21
-246.74900000000028
 31
0.0
  0
LINE
  5
13E
330
17
100
AcDbEntity
  8
0
100
AcDbLine
 10
525.3850000000006
 20
-246.74900000000028
 30
0.0
 11
525.5150000000006
 21
-246.71400000000028
 31
0.0
  0
LINE
  5
13F
330
17
100
AcDbEntity
  8
0
100
AcDbLine
 10
525.5150000000006
 20
-246.71400000000028
 30
0.0
 11
538.1350000000006
 21
-246.78900000000027
 31
0.0
  0
LINE
  5
140
330
17
100
AcDbEntity
  8
0
100
AcDbLine
 10
538.1350000000006
 20
-246.78900000000027
 30
0.0
 11
557.7400000000006
 21
-300.20100000000025
 31
0.0
  0
LINE
  5
141
330
17
100
AcDbEntity
  8
0
100
AcDbLine
 10
557.7400000000006
 20
-300.20100000000025
 30
0.0
 11
544.1520000000006
 21
-300.20100000000025
 31
0.0
  0
LINE
  5
142
330
17
100
AcDbEntity
  8
0
100
AcDbLine
 10
544.1520000000006
 20
-300.20100000000025
 30
0.0
 11
525.3230000000007
 21
-246.78900000000024
 31
0.0
  0
LINE
  5
143
330
17
100
AcDbEntity
  8
0
100
AcDbLine
 10
60.921000000000674
 20
-285.98200000000026
 30
0.0
 11
109.12900000000067
 21
-286.01900000000023
 31
0.0
  0
LINE
  5
144
330
17
100
AcDbEntity
  8
0
100
AcDbLine
 10
109.12900000000067
 20
-286.01900000000023
 30
0.0
 11
109.84500000000067
 21
-286.1280000000002
 31
0.0
  0
LINE
  5
145
330
17
100
AcDbEntity
  8
0
100
AcDbLine
 10
109.84500000000067
 20
-286.1280000000002
 30
0.0
 11
110.53700000000066
 21
-286.3060000000002
 31
0.0
  0
LINE
  5
146
330
17
100
AcDbEntity
  8
0
100
AcDbLine
 10
110.53700000000066
 20
-286.3060000000002
 30
0.0
 11
111.20000000000066
 21
-286.5490000000002
 31
0.0
  0
LINE
  5
147
330
17
100
AcDbEntity
  8
0
100
AcDbLine
 10
111.20000000000066
 20
-286.5490000000002
 30
0.0
 11
111.83100000000066
 21
-286.8530000000002
 31
0.0
  0
LINE
  5
148
330
17
100
AcDbEntity
  8
0
100
AcDbLine
 10
111.83100000000066
 20
-286.8530000000002
 30
0.0
 11
112.42600000000066
 21
-287.21400000000017
 31
0.0
  0
LINE
  5
149
330
17
100
AcDbEntity
  8
0
100
AcDbLine
 10
112.42600000000066
 20
-287.21400000000017
 30
0.0
 11
112.98200000000065
 21
-287.6290000000002
 31
0.0
  0
LINE
  5
14A
330
17
100
AcDbEntity
  8
0
100
AcDbLine
 10
112.98200000000065
 20
-287.6290000000002
 30
0.0
 11
113.49400000000065
 21
-288.0950000000002
 31
0.0
  0
LINE
  5
14B
330
17
100
AcDbEntity
  8
0
100
AcDbLine
 10
113.49400000000065
 20
-288.0950000000002
 30
0.0
 11
113.96000000000065
 21
-288.6070000000002
 31
0.0
  0
LINE
  5
14C
330
17
100
AcDbEntity
  8
0
100
AcDbLine
 10
113.96000000000065
 20
-288.6070000000002
 30
0.0
 11
114.37500000000065
 21
-289.1630000000002
 31
0.0
  0
LINE
  5
14D
330
17
100
AcDbEntity
  8
0
100
AcDbLine
 10
114.37500000000065
 20
-289.1630000000002
 30
0.0
 11
114.73600000000066
 21
-289.7580000000002
 31
0.0
  0
LINE
  5
14E
330
17
100
AcDbEntity
  8
0
100
AcDbLine
 10
114.73600000000066
 20
-289.7580000000002
 30
0.0
 11
115.04000000000066
 21
-290.3890000000002
 31
0.0
  0
LINE
  5
14F
330
17
100
AcDbEntity
  8
0
100
AcDbLine
 10
115.04000000000066
 20
-290.3890000000002
 30
0.0
 11
115.28300000000065
 21
-291.0520000000002
 31
0.0
  0
LINE
  5
150
330
17
100
AcDbEntity
  8
0
100
AcDbLine
 10
115.28300000000065
 20
-291.0520000000002
 30
0.0
 11
115.46100000000065
 21
-291.7440000000002
 31
0.0
  0
LINE
  5
151
330
17
100
AcDbEntity
  8
0
100
AcDbLine
 10
115.46100000000065
 20
-291.7440000000002
 30
0.0
 11
115.57000000000065
 21
-292.4600000000002
 31
0.0
  0
LINE
  5
152
330
17
100
AcDbEntity
  8
0
100
AcDbLine
 10
115.57000000000065
 20
-292.4600000000002
 30
0.0
 11
115.60700000000065
 21
-319.9650000000002
 31
0.0
  0
LINE
  5
153
330
17
100
AcDbEntity
  8
0
100
AcDbLine
 10
115.60700000000065
 20
-319.9650000000002
 30
0.0
 11
68.30000000000065
 21
-319.9440000000002
 31
0.0
  0
LINE
  5
154
330
17
100
AcDbEntity
  8
0
100
AcDbLine
 10
68.30000000000065
 20
-319.9440000000002
 30
0.0
 11
67.89800000000065
 21
-319.8830000000002
 31
0.0
  0
LINE
  5
155
330
17
100
AcDbEntity
  8
0
100
AcDbLine
 10
67.89800000000065
 20
-319.8830000000002
 30
0.0
 11
67.51000000000064
 21
-319.7830000000002
 31
0.0
  0
LINE
  5
156
330
17
100
AcDbEntity
  8
0
100
AcDbLine
 10
67.51000000000064
 20
-319.7830000000002
 30
0.0
 11
67.13800000000064
 21
-319.64700000000016
 31
0.0
  0
LINE
  5
157
330
17
100
AcDbEntity
  8
0
100
AcDbLine
 10
67.13800000000064
 20
-319.64700000000016
 30
0.0
 11
66.78400000000065
 21
-319.47600000000017
 31
0.0
  0
LINE
  5
158
330
17
100
AcDbEntity
  8
0
100
AcDbLine
 10
66.78400000000065
 20
-319.47600000000017
 30
0.0
 11
66.45000000000064
 21
-319.2730000000002
 31
0.0
  0
LINE
  5
159
330
17
100
AcDbEntity
  8
0
100
AcDbLine
 10
66.45000000000064
 20
-319.2730000000002
 30
0.0
 11
66.13800000000064
 21
-319.0400000000002
 31
0.0
  0
LINE
  5
15A
330
17
100
AcDbEntity
  8
0
100
AcDbLine
 10
66.13800000000064
 20
-319.0400000000002
 30
0.0
 11
65.85000000000065
 21
-318.7780000000002
 31
0.0
  0
LINE
  5
15B
330
17
100
AcDbEntity
  8
0
100
AcDbLine
 10
65.85000000000065
 20
-318.7780000000002
 30
0.0
 11
65.58900000000065
 21
-318.4900000000002
 31
0.0
  0
LINE
  5
15C
330
17
100
AcDbEntity
  8
0
100
AcDbLine
 10
65.58900000000065
 20
-318.4900000000002
 30
0.0
 11
65.35600000000065
 21
-318.17800000000017
 31
0.0
  0
LINE
  5
15D
330
17
100
AcDbEntity
  8
0
100
AcDbLine
 10
65.35600000000065
 20
-318.17800000000017
 30
0.0
 11
65.15300000000065
 21
-317.84400000000016
 31
0.0
  0
LINE
  5
15E
330
17
100
AcDbEntity
  8
0
100
AcDbLine
 10
65.15300000000065
 20
-317.84400000000016
 30
0.0
 11
64.98200000000064
 21
-317.4900000000002
 31
0.0
  0
LINE
  5
15F
330
17
100
AcDbEntity
  8
0
100
AcDbLine
 10
64.98200000000064
 20
-317.4900000000002
 30
0.0
 11
64.84600000000064
 21
-317.11800000000017
 31
0.0
  0
LINE
  5
160
330
17
100
AcDbEntity
  8
0
100
AcDbLine
 10
64.84600000000064
 20
-317.11800000000017
 30
0.0
 11
64.74600000000065
 21
-316.7300000000002
 31
0.0
  0
LINE
  5
161
330
17
100
AcDbEntity
  8
0
100
AcDbLine
 10
64.74600000000065
 20
-316.7300000000002
 30
0.0
 11
64.68500000000064
 21
-316.3280000000002
 31
0.0
  0
LINE
  5
162
330
17
100
AcDbEntity
  8
0
100
AcDbLine
 10
64.68500000000064
 20
-316.3280000000002
 30
0.0
 11
64.66400000000064
 21
-297.8970000000002
 31
0.0
  0
LINE
  5
163
330
17
100
AcDbEntity
  8
0
100
AcDbLine
 10
64.66400000000064
 20
-297.8970000000002
 30
0.0
 11
60.922000000000644
 21
-291.7720000000002
 31
0.0
  0
LINE
  5
164
330
17
100
AcDbEntity
  8
0
100
AcDbLine
 10
60.922000000000644
 20
-291.7720000000002
 30
0.0
 11
60.922000000000644
 21
-285.9820000000002
 31
0.0
  0
LINE
  5
165
330
17
100
AcDbEntity
  8
0
100
AcDbLine
 10
70.89800000000065
 20
-268.8640000000002
 30
0.0
 11
353.68800000000067
 21
-269.4040000000002
 31
0.0
  0
LINE
  5
166
330
17
100
AcDbEntity
  8
0
100
AcDbLine
 10
353.68800000000067
 20
-269.4040000000002
 30
0.0
 11
327.6800000000007
 21
-272.7390000000002
 31
0.0
  0
LINE
  5
167
330
17
100
AcDbEntity
  8
0
100
AcDbLine
 10
327.6800000000007
 20
-272.7390000000002
 30
0.0
 11
85.77600000000069
 21
-271.97100000000023
 31
0.0
  0
LINE
  5
168
330
17
100
AcDbEntity
  8
0
100
AcDbLine
 10
85.77600000000069
 20
-271.97100000000023
 30
0.0
 11
70.89800000000069
 21
-268.8640000000002
 31
0.0
  0
LINE
  5
169
330
17
100
AcDbEntity
  8
0
100
AcDbLine
 10
584.2580000000007
 20
-578.4480000000002
 30
0.0
 11
569.4550000000007
 21
-513.3800000000002
 31
0.0
  0
LINE
  5
16A
330
17
100
AcDbEntity
  8
0
100
AcDbLine
 10
569.4550000000007
 20
-513.3800000000002
 30
0.0
 11
559.6770000000007
 21
-482.9170000000002
 31
0.0
  0
LINE
  5
16B
330
17
100
AcDbEntity
  8
0
100
AcDbLine
 10
559.6770000000007
 20
-482.9170000000002
 30
0.0
 11
553.6850000000007
 21
-469.0750000000002
 31
0.0
  0
LINE
  5
16C
330
17
100
AcDbEntity
  8
0
100
AcDbLine
 10
553.6850000000007
 20
-469.0750000000002
 30
0.0
 11
525.5660000000007
 21
-420.4740000000002
 31
0.0
  0
LINE
  5
16D
330
17
100
AcDbEntity
  8
0
100
AcDbLine
 10
525.5660000000007
 20
-420.4740000000002
 30
0.0
 11
523.6770000000007
 21
-416.31700000000023
 31
0.0
  0
LINE
  5
16E
330
17
100
AcDbEntity
  8
0
100
AcDbLine
 10
523.6770000000007
 20
-416.31700000000023
 30
0.0
 11
521.5270000000007
 21
-410.2460000000002
 31
0.0
  0
LINE
  5
16F
330
17
100
AcDbEntity
  8
0
100
AcDbLine
 10
521.5270000000007
 20
-410.2460000000002
 30
0.0
 11
520.3000000000008
 21
-404.4360000000002
 31
0.0
  0
LINE
  5
170
330
17
100
AcDbEntity
  8
0
100
AcDbLine
 10
520.3000000000008
 20
-404.4360000000002
 30
0.0
 11
520.0130000000007
 21
-401.6240000000002
 31
0.0
  0
LINE
  5
171
330
17
100
AcDbEntity
  8
0
100
AcDbLine
 10
520.0130000000007
 20
-401.6240000000002
 30
0.0
 11
519.9340000000008
 21
-398.8710000000002
 31
0.0
  0
LINE
  5
172
330
17
100
AcDbEntity
  8
0
100
AcDbLine
 10
519.9340000000008
 20
-398.8710000000002
 30
0.0
 11
520.0550000000007
 21
-396.1740000000002
 31
0.0
  0
LINE
  5
173
330
17
100
AcDbEntity
  8
0
100
AcDbLine
 10
520.0550000000007
 20
-396.1740000000002
 30
0.0
 11
520.3680000000007
 21
-393.5320000000002
 31
0.0
  0
LINE
  5
174
330
17
100
AcDbEntity
  8
0
100
AcDbLine
 10
520.3680000000007
 20
-393.5320000000002
 30
0.0
 11
521.5400000000008
 21
-388.4020000000002
 31
0.0
  0
LINE
  5
175
330
17
100
AcDbEntity
  8
0
100
AcDbLine
 10
521.5400000000008
 20
-388.4020000000002
 30
0.0
 11
523.3890000000008
 21
-383.4630000000002
 31
0.0
  0
LINE
  5
176
330
17
100
AcDbEntity
  8
0
100
AcDbLine
 10
523.3890000000008
 20
-383.4630000000002
 30
0.0
 11
525.8530000000009
 21
-378.6990000000002
 31
0.0
  0
LINE
  5
177
330
17
100
AcDbEntity
  8
0
100
AcDbLine
 10
525.8530000000009
 20
-378.6990000000002
 30
0.0
 11
530.1110000000009
 21
-372.4120000000002
 31
0.0
  0
LINE
  5
178
330
17
100
AcDbEntity
  8
0
100
AcDbLine
 10
530.1110000000009
 20
-372.4120000000002
 30
0.0
 11
540.931000000001
 21
-360.3800000000002
 31
0.0
  0
LINE
  5
179
330
17
100
AcDbEntity
  8
0
100
AcDbLine
 10
540.931000000001
 20
-360.3800000000002
 30
0.0
 11
541.5290000000009
 21
-359.5250000000002
 31
0.0
  0
LINE
  5
17A
330
17
100
AcDbEntity
  8
0
100
AcDbLine
 10
541.5290000000009
 20
-359.5250000000002
 30
0.0
 11
542.0250000000009
 21
-358.6170000000002
 31
0.0
  0
LINE
  5
17B
330
17
100
AcDbEntity
  8
0
100
AcDbLine
 10
542.0250000000009
 20
-358.6170000000002
 30
0.0
 11
542.4250000000009
 21
-357.6610000000002
 31
0.0
  0
LINE
  5
17C
330
17
100
AcDbEntity
  8
0
100
AcDbLine
 10
542.4250000000009
 20
-357.6610000000002
 30
0.0
 11
542.7330000000009
 21
-356.66400000000016
 31
0.0
  0
LINE
  5
17D
330
17
100
AcDbEntity
  8
0
100
AcDbLine
 10
542.7330000000009
 20
-356.66400000000016
 30
0.0
 11
542.9540000000009
 21
-355.63300000000015
 31
0.0
  0
LINE
  5
17E
330
17
100
AcDbEntity
  8
0
100
AcDbLine
 10
542.9540000000009
 20
-355.63300000000015
 30
0.0
 11
543.0940000000008
 21
-354.57300000000015
 31
0.0
  0
LINE
  5
17F
330
17
100
AcDbEntity
  8
0
100
AcDbLine
 10
543.0940000000008
 20
-354.57300000000015
 30
0.0
 11
543.1500000000009
 21
-352.3940000000002
 31
0.0
  0
LINE
  5
180
330
17
100
AcDbEntity
  8
0
100
AcDbLine
 10
543.1500000000009
 20
-352.3940000000002
 30
0.0
 11
542.9420000000009
 21
-350.1790000000002
 31
0.0
  0
LINE
  5
181
330
17
100
AcDbEntity
  8
0
100
AcDbLine
 10
542.9420000000009
 20
-350.1790000000002
 30
0.0
 11
542.5100000000009
 21
-347.9780000000002
 31
0.0
  0
LINE
  5
182
330
17
100
AcDbEntity
  8
0
100
AcDbLine
 10
542.5100000000009
 20
-347.9780000000002
 30
0.0
 11
541.532000000001
 21
-344.8140000000002
 31
0.0
  0
LINE
  5
183
330
17
100
AcDbEntity
  8
0
100
AcDbLine
 10
541.532000000001
 20
-344.8140000000002
 30
0.0
 11
540.8800000000009
 21
-343.3210000000002
 31
0.0
  0
LINE
  5
184
330
17
100
AcDbEntity
  8
0
100
AcDbLine
 10
540.8800000000009
 20
-343.3210000000002
 30
0.0
 11
540.1110000000009
 21
-341.9870000000002
 31
0.0
  0
LINE
  5
185
330
17
100
AcDbEntity
  8
0
100
AcDbLine
 10
540.1110000000009
 20
-341.9870000000002
 30
0.0
 11
539.2320000000009
 21
-340.80300000000017
 31
0.0
  0
LINE
  5
186
330
17
100
AcDbEntity
  8
0
100
AcDbLine
 10
539.2320000000009
 20
-340.80300000000017
 30
0.0
 11
538.2500000000009
 21
-339.76000000000016
 31
0.0
  0
LINE
  5
187
330
17
100
AcDbEntity
  8
0
100
AcDbLine
 10
538.2500000000009
 20
-339.76000000000016
 30
0.0
 11
537.1720000000009
 21
-338.84900000000016
 31
0.0
  0
LINE
  5
188
330
17
100
AcDbEntity
  8
0
100
AcDbLine
 10
537.1720000000009
 20
-338.84900000000016
 30
0.0
 11
536.0050000000009
 21
-338.0620000000002
 31
0.0
  0
LINE
  5
189
330
17
100
AcDbEntity
  8
0
100
AcDbLine
 10
536.0050000000009
 20
-338.0620000000002
 30
0.0
 11
534.7570000000009
 21
-337.3890000000002
 31
0.0
  0
LINE
  5
18A
330
17
100
AcDbEntity
  8
0
100
AcDbLine
 10
534.7570000000009
 20
-337.3890000000002
 30
0.0
 11
533.4350000000009
 21
-336.8220000000002
 31
0.0
  0
LINE
  5
18B
330
17
100
AcDbEntity
  8
0
100
AcDbLine
 10
533.4350000000009
 20
-336.8220000000002
 30
0.0
 11
530.5970000000009
 21
-335.9700000000002
 31
0.0
  0
LINE
  5
18C
330
17
100
AcDbEntity
  8
0
100
AcDbLine
 10
530.5970000000009
 20
-335.9700000000002
 30
0.0
 11
527.5480000000009
 21
-335.4350000000002
 31
0.0
  0
LINE
  5
18D
330
17
100
AcDbEntity
  8
0
100
AcDbLine
 10
527.5480000000009
 20
-335.4350000000002
 30
0.0
 11
477.8320000000009
 21
-334.4370000000002
 31
0.0
  0
LINE
  5
18E
330
17
100
AcDbEntity
  8
0
100
AcDbLine
 10
477.8320000000009
 20
-334.4370000000002
 30
0.0
 11
476.1220000000009
 21
-334.58900000000017
 31
0.0
  0
LINE
  5
18F
330
17
100
AcDbEntity
  8
0
100
AcDbLine
 10
476.1220000000009
 20
-334.58900000000017
 30
0.0
 11
474.44600000000094
 21
-334.9300000000002
 31
0.0
  0
LINE
  5
190
330
17
100
AcDbEntity
  8
0
100
AcDbLine
 10
474.44600000000094
 20
-334.9300000000002
 30
0.0
 11
472.82500000000095
 21
-335.46700000000016
 31
0.0
  0
LINE
  5
191
330
17
100
AcDbEntity
  8
0
100
AcDbLine
 10
472.82500000000095
 20
-335.46700000000016
 30
0.0
 11
471.27800000000093
 21
-336.20500000000015
 31
0.0
  0
LINE
  5
192
330
17
100
AcDbEntity
  8
0
100
AcDbLine
 10
471.27800000000093
 20
-336.20500000000015
 30
0.0
 11
469.0820000000009
 21
-337.63600000000014
 31
0.0
  0
LINE
  5
193
330
17
100
AcDbEntity
  8
0
100
AcDbLine
 10
469.0820000000009
 20
-337.63600000000014
 30
0.0
 11
468.0560000000009
 21
-338.47200000000015
 31
0.0
  0
LINE
  5
194
330
17
100
AcDbEntity
  8
0
100
AcDbLine
 10
468.0560000000009
 20
-338.47200000000015
 30
0.0
 11
467.0830000000009
 21
-339.39300000000014
 31
0.0
  0
LINE
  5
195
330
17
100
AcDbEntity
  8
0
100
AcDbLine
 10
467.0830000000009
 20
-339.39300000000014
 30
0.0
 11
466.1650000000009
 21
-340.40400000000017
 31
0.0
  0
LINE
  5
196
330
17
100
AcDbEntity
  8
0
100
AcDbLine
 10
466.1650000000009
 20
-340.40400000000017
 30
0.0
 11
465.3060000000009
 21
-341.5090000000002
 31
0.0
  0
LINE
  5
197
330
17
100
AcDbEntity
  8
0
100
AcDbLine
 10
465.3060000000009
 20
-341.5090000000002
 30
0.0
 11
464.50900000000087
 21
-342.71200000000016
 31
0.0
  0
LINE
  5
198
330
17
100
AcDbEntity
  8
0
100
AcDbLine
 10
464.50900000000087
 20
-342.71200000000016
 30
0.0
 11
463.77700000000084
 21
-344.01800000000014
 31
0.0
  0
LINE
  5
199
330
17
100
AcDbEntity
  8
0
100
AcDbLine
 10
463.77700000000084
 20
-344.01800000000014
 30
0.0
 11
463.20500000000084
 21
-345.26600000000013
 31
0.0
  0
LINE
  5
19A
330
17
100
AcDbEntity
  8
0
100
AcDbLine
 10
463.20500000000084
 20
-345.26600000000013
 30
0.0
 11
462.3330000000008
 21
-347.9570000000001
 31
0.0
  0
LINE
  5
19B
330
17
100
AcDbEntity
  8
0
100
AcDbLine
 10
462.3330000000008
 20
-347.9570000000001
 30
0.0
 11
461.75100000000083
 21
-350.8510000000001
 31
0.0
  0
LINE
  5
19C
330
17
100
AcDbEntity
  8
0
100
AcDbLine
 10
461.75100000000083
 20
-350.8510000000001
 30
0.0
 11
460.1790000000008
 21
-366.0050000000001
 31
0.0
  0
LINE
  5
19D
330
17
100
AcDbEntity
  8
0
100
AcDbLine
 10
460.1790000000008
 20
-366.0050000000001
 30
0.0
 11
459.51200000000085
 21
-368.8160000000001
 31
0.0
  0
LINE
  5
19E
330
17
100
AcDbEntity
  8
0
100
AcDbLine
 10
459.51200000000085
 20
-368.8160000000001
 30
0.0
 11
453.13000000000085
 21
-385.3910000000001
 31
0.0
  0
LINE
  5
19F
330
17
100
AcDbEntity
  8
0
100
AcDbLine
 10
453.13000000000085
 20
-385.3910000000001
 30
0.0
 11
452.34400000000085
 21
-388.23300000000006
 31
0.0
  0
LINE
  5
1A0
330
17
100
AcDbEntity
  8
0
100
AcDbLine
 10
452.34400000000085
 20
-388.23300000000006
 30
0.0
 11
451.8500000000008
 21
-390.9100000000001
 31
0.0
  0
LINE
  5
1A1
330
17
100
AcDbEntity
  8
0
100
AcDbLine
 10
451.8500000000008
 20
-390.9100000000001
 30
0.0
 11
451.48600000000084
 21
-395.8490000000001
 31
0.0
  0
LINE
  5
1A2
330
17
100
AcDbEntity
  8
0
100
AcDbLine
 10
451.48600000000084
 20
-395.8490000000001
 30
0.0
 11
451.68600000000083
 21
-400.8140000000001
 31
0.0
  0
LINE
  5
1A3
330
17
100
AcDbEntity
  8
0
100
AcDbLine
 10
451.68600000000083
 20
-400.8140000000001
 30
0.0
 11
452.30300000000085
 21
-405.76900000000006
 31
0.0
  0
LINE
  5
1A4
330
17
100
AcDbEntity
  8
0
100
AcDbLine
 10
452.30300000000085
 20
-405.76900000000006
 30
0.0
 11
498.48900000000083
 21
-584.8710000000001
 31
0.0
  0
LINE
  5
1A5
330
17
100
AcDbEntity
  8
0
100
AcDbLine
 10
498.48900000000083
 20
-584.8710000000001
 30
0.0
 11
499.2610000000008
 21
-586.8820000000001
 31
0.0
  0
LINE
  5
1A6
330
17
100
AcDbEntity
  8
0
100
AcDbLine
 10
499.2610000000008
 20
-586.8820000000001
 30
0.0
 11
500.1750000000008
 21
-588.7950000000001
 31
0.0
  0
LINE
  5
1A7
330
17
100
AcDbEntity
  8
0
100
AcDbLine
 10
500.1750000000008
 20
-588.7950000000001
 30
0.0
 11
501.2620000000008
 21
-590.5680000000001
 31
0.0
  0
LINE
  5
1A8
330
17
100
AcDbEntity
  8
0
100
AcDbLine
 10
501.2620000000008
 20
-590.5680000000001
 30
0.0
 11
501.8800000000008
 21
-591.3890000000001
 31
0.0
  0
LINE
  5
1A9
330
17
100
AcDbEntity
  8
0
100
AcDbLine
 10
501.8800000000008
 20
-591.3890000000001
 30
0.0
 11
502.5530000000008
 21
-592.1590000000001
 31
0.0
  0
LINE
  5
1AA
330
17
100
AcDbEntity
  8
0
100
AcDbLine
 10
502.5530000000008
 20
-592.1590000000001
 30
0.0
 11
503.2840000000008
 21
-592.8730000000002
 31
0.0
  0
LINE
  5
1AB
330
17
100
AcDbEntity
  8
0
100
AcDbLine
 10
503.2840000000008
 20
-592.8730000000002
 30
0.0
 11
504.07800000000077
 21
-593.5260000000002
 31
0.0
  0
LINE
  5
1AC
330
17
100
AcDbEntity
  8
0
100
AcDbLine
 10
504.07800000000077
 20
-593.5260000000002
 30
0.0
 11
504.9380000000008
 21
-594.1120000000002
 31
0.0
  0
LINE
  5
1AD
330
17
100
AcDbEntity
  8
0
100
AcDbLine
 10
504.9380000000008
 20
-594.1120000000002
 30
0.0
 11
506.26600000000076
 21
-594.8130000000002
 31
0.0
  0
LINE
  5
1AE
330
17
100
AcDbEntity
  8
0
100
AcDbLine
 10
506.26600000000076
 20
-594.8130000000002
 30
0.0
 11
507.65900000000073
 21
-595.3410000000002
 31
0.0
  0
LINE
  5
1AF
330
17
100
AcDbEntity
  8
0
100
AcDbLine
 10
507.65900000000073
 20
-595.3410000000002
 30
0.0
 11
509.1040000000007
 21
-595.7200000000003
 31
0.0
  0
LINE
  5
1B0
330
17
100
AcDbEntity
  8
0
100
AcDbLine
 10
509.1040000000007
 20
-595.7200000000003
 30
0.0
 11
512.1020000000008
 21
-596.1240000000003
 31
0.0
  0
LINE
  5
1B1
330
17
100
AcDbEntity
  8
0
100
AcDbLine
 10
512.1020000000008
 20
-596.1240000000003
 30
0.0
 11
574.9600000000007
 21
-594.5440000000002
 31
0.0
  0
LINE
  5
1B2
330
17
100
AcDbEntity
  8
0
100
AcDbLine
 10
574.9600000000007
 20
-594.5440000000002
 30
0.0
 11
577.1190000000007
 21
-594.2760000000002
 31
0.0
  0
LINE
  5
1B3
330
17
100
AcDbEntity
  8
0
100
AcDbLine
 10
577.1190000000007
 20
-594.2760000000002
 30
0.0
 11
578.1770000000007
 21
-594.0600000000002
 31
0.0
  0
LINE
  5
1B4
330
17
100
AcDbEntity
  8
0
100
AcDbLine
 10
578.1770000000007
 20
-594.0600000000002
 30
0.0
 11
579.2040000000007
 21
-593.7670000000002
 31
0.0
  0
LINE
  5
1B5
330
17
100
AcDbEntity
  8
0
100
AcDbLine
 10
579.2040000000007
 20
-593.7670000000002
 30
0.0
 11
580.1870000000007
 21
-593.3790000000001
 31
0.0
  0
LINE
  5
1B6
330
17
100
AcDbEntity
  8
0
100
AcDbLine
 10
580.1870000000007
 20
-593.3790000000001
 30
0.0
 11
581.1140000000007
 21
-592.8800000000001
 31
0.0
  0
LINE
  5
1B7
330
17
100
AcDbEntity
  8
0
100
AcDbLine
 10
581.1140000000007
 20
-592.8800000000001
 30
0.0
 11
581.5530000000007
 21
-592.5830000000001
 31
0.0
  0
LINE
  5
1B8
330
17
100
AcDbEntity
  8
0
100
AcDbLine
 10
581.5530000000007
 20
-592.5830000000001
 30
0.0
 11
581.9730000000006
 21
-592.2520000000001
 31
0.0
  0
LINE
  5
1B9
330
17
100
AcDbEntity
  8
0
100
AcDbLine
 10
581.9730000000006
 20
-592.2520000000001
 30
0.0
 11
582.6210000000007
 21
-591.6300000000001
 31
0.0
  0
LINE
  5
1BA
330
17
100
AcDbEntity
  8
0
100
AcDbLine
 10
582.6210000000007
 20
-591.6300000000001
 30
0.0
 11
583.1780000000007
 21
-590.9500000000002
 31
0.0
  0
LINE
  5
1BB
330
17
100
AcDbEntity
  8
0
100
AcDbLine
 10
583.1780000000007
 20
-590.9500000000002
 30
0.0
 11
583.6500000000007
 21
-590.2170000000002
 31
0.0
  0
LINE
  5
1BC
330
17
100
AcDbEntity
  8
0
100
AcDbLine
 10
583.6500000000007
 20
-590.2170000000002
 30
0.0
 11
584.0410000000006
 21
-589.4380000000002
 31
0.0
  0
LINE
  5
1BD
330
17
100
AcDbEntity
  8
0
100
AcDbLine
 10
584.0410000000006
 20
-589.4380000000002
 30
0.0
 11
584.3570000000007
 21
-588.6170000000002
 31
0.0
  0
LINE
  5
1BE
330
17
100
AcDbEntity
  8
0
100
AcDbLine
 10
584.3570000000007
 20
-588.6170000000002
 30
0.0
 11
584.6020000000007
 21
-587.7610000000002
 31
0.0
  0
LINE
  5
1BF
330
17
100
AcDbEntity
  8
0
100
AcDbLine
 10
584.6020000000007
 20
-587.7610000000002
 30
0.0
 11
584.7810000000006
 21
-586.8740000000003
 31
0.0
  0
LINE
  5
1C0
330
17
100
AcDbEntity
  8
0
100
AcDbLine
 10
584.7810000000006
 20
-586.8740000000003
 30
0.0
 11
584.9620000000007
 21
-585.0320000000003
 31
0.0
  0
LINE
  5
1C1
330
17
100
AcDbEntity
  8
0
100
AcDbLine
 10
584.9620000000007
 20
-585.0320000000003
 30
0.0
 11
584.9400000000006
 21
-583.1360000000003
 31
0.0
  0
LINE
  5
1C2
330
17
100
AcDbEntity
  8
0
100
AcDbLine
 10
584.9400000000006
 20
-583.1360000000003
 30
0.0
 11
584.4480000000007
 21
-579.3580000000003
 31
0.0
  0
LINE
  5
1C3
330
17
100
AcDbEntity
  8
0
100
AcDbLine
 10
584.4480000000007
 20
-579.3580000000003
 30
0.0
 11
584.2600000000007
 21
-578.4490000000003
 31
0.0
  0
LINE
  5
1C4
330
17
100
AcDbEntity
  8
0
100
AcDbLine
 10
518.3020000000007
 20
-331.8150000000003
 30
0.0
 11
520.9770000000007
 21
-331.8670000000003
 31
0.0
  0
LINE
  5
1C5
330
17
100
AcDbEntity
  8
0
100
AcDbLine
 10
520.9770000000007
 20
-331.8670000000003
 30
0.0
 11
522.3020000000007
 21
-331.7380000000003
 31
0.0
  0
LINE
  5
1C6
330
17
100
AcDbEntity
  8
0
100
AcDbLine
 10
522.3020000000007
 20
-331.7380000000003
 30
0.0
 11
522.9560000000007
 21
-331.6080000000003
 31
0.0
  0
LINE
  5
1C7
330
17
100
AcDbEntity
  8
0
100
AcDbLine
 10
522.9560000000007
 20
-331.6080000000003
 30
0.0
 11
523.6020000000007
 21
-331.42400000000026
 31
0.0
  0
LINE
  5
1C8
330
17
100
AcDbEntity
  8
0
100
AcDbLine
 10
523.6020000000007
 20
-331.42400000000026
 30
0.0
 11
524.2810000000006
 21
-331.16300000000024
 31
0.0
  0
LINE
  5
1C9
330
17
100
AcDbEntity
  8
0
100
AcDbLine
 10
524.2810000000006
 20
-331.16300000000024
 30
0.0
 11
525.5790000000006
 21
-330.47800000000024
 31
0.0
  0
LINE
  5
1CA
330
17
100
AcDbEntity
  8
0
100
AcDbLine
 10
525.5790000000006
 20
-330.47800000000024
 30
0.0
 11
531.0550000000006
 21
-326.49400000000026
 31
0.0
  0
LINE
  5
1CB
330
17
100
AcDbEntity
  8
0
100
AcDbLine
 10
531.0550000000006
 20
-326.49400000000026
 30
0.0
 11
536.1110000000007
 21
-323.33600000000024
 31
0.0
  0
LINE
  5
1CC
330
17
100
AcDbEntity
  8
0
100
AcDbLine
 10
536.1110000000007
 20
-323.33600000000024
 30
0.0
 11
541.3910000000006
 21
-320.70900000000023
 31
0.0
  0
LINE
  5
1CD
330
17
100
AcDbEntity
  8
0
100
AcDbLine
 10
541.3910000000006
 20
-320.70900000000023
 30
0.0
 11
546.8530000000006
 21
-318.6350000000002
 31
0.0
  0
LINE
  5
1CE
330
17
100
AcDbEntity
  8
0
100
AcDbLine
 10
546.8530000000006
 20
-318.6350000000002
 30
0.0
 11
549.6390000000006
 21
-317.81200000000024
 31
0.0
  0
LINE
  5
1CF
330
17
100
AcDbEntity
  8
0
100
AcDbLine
 10
549.6390000000006
 20
-317.81200000000024
 30
0.0
 11
510.7900000000006
 21
-317.10800000000023
 31
0.0
  0
LINE
  5
1D0
330
17
100
AcDbEntity
  8
0
100
AcDbLine
 10
510.7900000000006
 20
-317.10800000000023
 30
0.0
 11
510.7660000000006
 21
-317.1230000000002
 31
0.0
  0
LINE
  5
1D1
330
17
100
AcDbEntity
  8
0
100
AcDbLine
 10
510.7660000000006
 20
-317.1230000000002
 30
0.0
 11
510.7290000000006
 21
-317.1670000000002
 31
0.0
  0
LINE
  5
1D2
330
17
100
AcDbEntity
  8
0
100
AcDbLine
 10
510.7290000000006
 20
-317.1670000000002
 30
0.0
 11
507.72100000000063
 21
-322.7840000000002
 31
0.0
  0
LINE
  5
1D3
330
17
100
AcDbEntity
  8
0
100
AcDbLine
 10
507.72100000000063
 20
-322.7840000000002
 30
0.0
 11
505.80000000000064
 21
-325.28100000000023
 31
0.0
  0
LINE
  5
1D4
330
17
100
AcDbEntity
  8
0
100
AcDbLine
 10
505.80000000000064
 20
-325.28100000000023
 30
0.0
 11
503.46800000000064
 21
-327.6660000000002
 31
0.0
  0
LINE
  5
1D5
330
17
100
AcDbEntity
  8
0
100
AcDbLine
 10
503.46800000000064
 20
-327.6660000000002
 30
0.0
 11
501.30600000000067
 21
-329.41000000000025
 31
0.0
  0
LINE
  5
1D6
330
17
100
AcDbEntity
  8
0
100
AcDbLine
 10
501.30600000000067
 20
-329.41000000000025
 30
0.0
 11
501.1110000000007
 21
-329.61400000000026
 31
0.0
  0
LINE
  5
1D7
330
17
100
AcDbEntity
  8
0
100
AcDbLine
 10
501.1110000000007
 20
-329.61400000000026
 30
0.0
 11
501.0310000000007
 21
-329.7140000000003
 31
0.0
  0
LINE
  5
1D8
330
17
100
AcDbEntity
  8
0
100
AcDbLine
 10
501.0310000000007
 20
-329.7140000000003
 30
0.0
 11
500.9640000000007
 21
-329.8130000000003
 31
0.0
  0
LINE
  5
1D9
330
17
100
AcDbEntity
  8
0
100
AcDbLine
 10
500.9640000000007
 20
-329.8130000000003
 30
0.0
 11
500.91200000000066
 21
-329.91000000000025
 31
0.0
  0
LINE
  5
1DA
330
17
100
AcDbEntity
  8
0
100
AcDbLine
 10
500.91200000000066
 20
-329.91000000000025
 30
0.0
 11
500.87600000000066
 21
-330.0050000000003
 31
0.0
  0
LINE
  5
1DB
330
17
100
AcDbEntity
  8
0
100
AcDbLine
 10
500.87600000000066
 20
-330.0050000000003
 30
0.0
 11
500.85700000000065
 21
-330.0980000000003
 31
0.0
  0
LINE
  5
1DC
330
17
100
AcDbEntity
  8
0
100
AcDbLine
 10
500.85700000000065
 20
-330.0980000000003
 30
0.0
 11
500.8560000000007
 21
-330.1890000000003
 31
0.0
  0
LINE
  5
1DD
330
17
100
AcDbEntity
  8
0
100
AcDbLine
 10
500.8560000000007
 20
-330.1890000000003
 30
0.0
 11
500.8750000000007
 21
-330.2780000000003
 31
0.0
  0
LINE
  5
1DE
330
17
100
AcDbEntity
  8
0
100
AcDbLine
 10
500.8750000000007
 20
-330.2780000000003
 30
0.0
 11
500.9150000000007
 21
-330.3650000000003
 31
0.0
  0
LINE
  5
1DF
330
17
100
AcDbEntity
  8
0
100
AcDbLine
 10
500.9150000000007
 20
-330.3650000000003
 30
0.0
 11
500.9770000000007
 21
-330.4490000000003
 31
0.0
  0
LINE
  5
1E0
330
17
100
AcDbEntity
  8
0
100
AcDbLine
 10
500.9770000000007
 20
-330.4490000000003
 30
0.0
 11
501.0630000000007
 21
-330.5300000000003
 31
0.0
  0
LINE
  5
1E1
330
17
100
AcDbEntity
  8
0
100
AcDbLine
 10
501.0630000000007
 20
-330.5300000000003
 30
0.0
 11
501.17300000000074
 21
-330.6080000000003
 31
0.0
  0
LINE
  5
1E2
330
17
100
AcDbEntity
  8
0
100
AcDbLine
 10
501.17300000000074
 20
-330.6080000000003
 30
0.0
 11
501.30900000000076
 21
-330.6830000000003
 31
0.0
  0
LINE
  5
1E3
330
17
100
AcDbEntity
  8
0
100
AcDbLine
 10
501.30900000000076
 20
-330.6830000000003
 30
0.0
 11
501.47300000000075
 21
-330.7550000000003
 31
0.0
  0
LINE
  5
1E4
330
17
100
AcDbEntity
  8
0
100
AcDbLine
 10
501.47300000000075
 20
-330.7550000000003
 30
0.0
 11
501.88700000000074
 21
-330.88800000000026
 31
0.0
  0
LINE
  5
1E5
330
17
100
AcDbEntity
  8
0
100
AcDbLine
 10
501.88700000000074
 20
-330.88800000000026
 30
0.0
 11
502.81000000000074
 21
-331.07600000000025
 31
0.0
  0
LINE
  5
1E6
330
17
100
AcDbEntity
  8
0
100
AcDbLine
 10
502.81000000000074
 20
-331.07600000000025
 30
0.0
 11
518.3020000000007
 21
-331.8130000000003
 31
0.0
  0
LINE
  5
1E7
330
17
100
AcDbEntity
  8
0
100
AcDbLine
 10
548.2960000000007
 20
-352.03500000000025
 30
0.0
 11
550.6000000000007
 21
-349.50100000000026
 31
0.0
  0
LINE
  5
1E8
330
17
100
AcDbEntity
  8
0
100
AcDbLine
 10
550.6000000000007
 20
-349.50100000000026
 30
0.0
 11
553.2090000000007
 21
-347.23700000000025
 31
0.0
  0
LINE
  5
1E9
330
17
100
AcDbEntity
  8
0
100
AcDbLine
 10
553.2090000000007
 20
-347.23700000000025
 30
0.0
 11
556.0790000000007
 21
-345.23300000000023
 31
0.0
  0
LINE
  5
1EA
330
17
100
AcDbEntity
  8
0
100
AcDbLine
 10
556.0790000000007
 20
-345.23300000000023
 30
0.0
 11
559.1660000000007
 21
-343.4810000000002
 31
0.0
  0
LINE
  5
1EB
330
17
100
AcDbEntity
  8
0
100
AcDbLine
 10
559.1660000000007
 20
-343.4810000000002
 30
0.0
 11
562.4280000000007
 21
-341.97100000000023
 31
0.0
  0
LINE
  5
1EC
330
17
100
AcDbEntity
  8
0
100
AcDbLine
 10
562.4280000000007
 20
-341.97100000000023
 30
0.0
 11
569.3030000000007
 21
-339.6400000000002
 31
0.0
  0
LINE
  5
1ED
330
17
100
AcDbEntity
  8
0
100
AcDbLine
 10
569.3030000000007
 20
-339.6400000000002
 30
0.0
 11
572.8290000000006
 21
-338.80000000000024
 31
0.0
  0
LINE
  5
1EE
330
17
100
AcDbEntity
  8
0
100
AcDbLine
 10
572.8290000000006
 20
-338.80000000000024
 30
0.0
 11
572.6710000000006
 21
-337.55500000000023
 31
0.0
  0
LINE
  5
1EF
330
17
100
AcDbEntity
  8
0
100
AcDbLine
 10
572.6710000000006
 20
-337.55500000000023
 30
0.0
 11
572.4240000000007
 21
-336.32600000000025
 31
0.0
  0
LINE
  5
1F0
330
17
100
AcDbEntity
  8
0
100
AcDbLine
 10
572.4240000000007
 20
-336.32600000000025
 30
0.0
 11
572.0900000000007
 21
-335.12000000000023
 31
0.0
  0
LINE
  5
1F1
330
17
100
AcDbEntity
  8
0
100
AcDbLine
 10
572.0900000000007
 20
-335.12000000000023
 30
0.0
 11
571.6710000000007
 21
-333.9430000000002
 31
0.0
  0
LINE
  5
1F2
330
17
100
AcDbEntity
  8
0
100
AcDbLine
 10
571.6710000000007
 20
-333.9430000000002
 30
0.0
 11
571.1700000000008
 21
-332.8030000000002
 31
0.0
  0
LINE
  5
1F3
330
17
100
AcDbEntity
  8
0
100
AcDbLine
 10
571.1700000000008
 20
-332.8030000000002
 30
0.0
 11
570.5890000000007
 21
-331.70600000000024
 31
0.0
  0
LINE
  5
1F4
330
17
100
AcDbEntity
  8
0
100
AcDbLine
 10
570.5890000000007
 20
-331.70600000000024
 30
0.0
 11
569.9300000000007
 21
-330.6590000000002
 31
0.0
  0
LINE
  5
1F5
330
17
100
AcDbEntity
  8
0
100
AcDbLine
 10
569.9300000000007
 20
-330.6590000000002
 30
0.0
 11
569.1960000000007
 21
-329.6690000000002
 31
0.0
  0
LINE
  5
1F6
330
17
100
AcDbEntity
  8
0
100
AcDbLine
 10
569.1960000000007
 20
-329.6690000000002
 30
0.0
 11
568.2870000000007
 21
-328.6340000000002
 31
0.0
  0
LINE
  5
1F7
330
17
100
AcDbEntity
  8
0
100
AcDbLine
 10
568.2870000000007
 20
-328.6340000000002
 30
0.0
 11
567.2960000000007
 21
-327.6860000000002
 31
0.0
  0
LINE
  5
1F8
330
17
100
AcDbEntity
  8
0
100
AcDbLine
 10
567.2960000000007
 20
-327.6860000000002
 30
0.0
 11
566.2320000000008
 21
-326.8300000000002
 31
0.0
  0
LINE
  5
1F9
330
17
100
AcDbEntity
  8
0
100
AcDbLine
 10
566.2320000000008
 20
-326.8300000000002
 30
0.0
 11
565.1030000000007
 21
-326.07200000000023
 31
0.0
  0
LINE
  5
1FA
330
17
100
AcDbEntity
  8
0
100
AcDbLine
 10
565.1030000000007
 20
-326.07200000000023
 30
0.0
 11
563.9180000000008
 21
-325.4160000000002
 31
0.0
  0
LINE
  5
1FB
330
17
100
AcDbEntity
  8
0
100
AcDbLine
 10
563.9180000000008
 20
-325.4160000000002
 30
0.0
 11
562.6850000000009
 21
-324.8680000000002
 31
0.0
  0
LINE
  5
1FC
330
17
100
AcDbEntity
  8
0
100
AcDbLine
 10
562.6850000000009
 20
-324.8680000000002
 30
0.0
 11
561.4120000000008
 21
-324.43200000000024
 31
0.0
  0
LINE
  5
1FD
330
17
100
AcDbEntity
  8
0
100
AcDbLine
 10
561.4120000000008
 20
-324.43200000000024
 30
0.0
 11
560.1080000000009
 21
-324.11400000000026
 31
0.0
  0
LINE
  5
1FE
330
17
100
AcDbEntity
  8
0
100
AcDbLine
 10
560.1080000000009
 20
-324.11400000000026
 30
0.0
 11
558.7270000000009
 21
-323.9090000000003
 31
0.0
  0
LINE
  5
1FF
330
17
100
AcDbEntity
  8
0
100
AcDbLine
 10
558.7270000000009
 20
-323.9090000000003
 30
0.0
 11
557.3390000000009
 21
-323.82100000000025
 31
0.0
  0
LINE
  5
200
330
17
100
AcDbEntity
  8
0
100
AcDbLine
 10
557.3390000000009
 20
-323.82100000000025
 30
0.0
 11
554.5530000000009
 21
-323.94400000000024
 31
0.0
  0
LINE
  5
201
330
17
100
AcDbEntity
  8
0
100
AcDbLine
 10
554.5530000000009
 20
-323.94400000000024
 30
0.0
 11
551.7750000000009
 21
-324.37600000000026
 31
0.0
  0
LINE
  5
202
330
17
100
AcDbEntity
  8
0
100
AcDbLine
 10
551.7750000000009
 20
-324.37600000000026
 30
0.0
 11
547.1510000000009
 21
-325.51800000000026
 31
0.0
  0
LINE
  5
203
330
17
100
AcDbEntity
  8
0
100
AcDbLine
 10
547.1510000000009
 20
-325.51800000000026
 30
0.0
 11
543.4820000000009
 21
-326.8270000000003
 31
0.0
  0
LINE
  5
204
330
17
100
AcDbEntity
  8
0
100
AcDbLine
 10
543.4820000000009
 20
-326.8270000000003
 30
0.0
 11
541.7330000000009
 21
-327.6970000000003
 31
0.0
  0
LINE
  5
205
330
17
100
AcDbEntity
  8
0
100
AcDbLine
 10
541.7330000000009
 20
-327.6970000000003
 30
0.0
 11
540.0730000000009
 21
-328.7610000000003
 31
0.0
  0
LINE
  5
206
330
17
100
AcDbEntity
  8
0
100
AcDbLine
 10
540.0730000000009
 20
-328.7610000000003
 30
0.0
 11
538.5520000000009
 21
-330.0320000000003
 31
0.0
  0
LINE
  5
207
330
17
100
AcDbEntity
  8
0
100
AcDbLine
 10
538.5520000000009
 20
-330.0320000000003
 30
0.0
 11
537.8610000000009
 21
-330.74500000000035
 31
0.0
  0
LINE
  5
208
330
17
100
AcDbEntity
  8
0
100
AcDbLine
 10
537.8610000000009
 20
-330.74500000000035
 30
0.0
 11
537.2250000000009
 21
-331.51000000000033
 31
0.0
  0
LINE
  5
209
330
17
100
AcDbEntity
  8
0
100
AcDbLine
 10
537.2250000000009
 20
-331.51000000000033
 30
0.0
 11
536.652000000001
 21
-332.32700000000034
 31
0.0
  0
LINE
  5
20A
330
17
100
AcDbEntity
  8
0
100
AcDbLine
 10
536.652000000001
 20
-332.32700000000034
 30
0.0
 11
536.1480000000009
 21
-333.19600000000037
 31
0.0
  0
LINE
  5
20B
330
17
100
AcDbEntity
  8
0
100
AcDbLine
 10
536.1480000000009
 20
-333.19600000000037
 30
0.0
 11
537.858000000001
 21
-333.89100000000036
 31
0.0
  0
LINE
  5
20C
330
17
100
AcDbEntity
  8
0
100
AcDbLine
 10
537.858000000001
 20
-333.89100000000036
 30
0.0
 11
539.488000000001
 21
-334.77300000000037
 31
0.0
  0
LINE
  5
20D
330
17
100
AcDbEntity
  8
0
100
AcDbLine
 10
539.488000000001
 20
-334.77300000000037
 30
0.0
 11
541.0230000000009
 21
-335.8280000000004
 31
0.0
  0
LINE
  5
20E
330
17
100
AcDbEntity
  8
0
100
AcDbLine
 10
541.0230000000009
 20
-335.8280000000004
 30
0.0
 11
542.449000000001
 21
-337.04200000000037
 31
0.0
  0
LINE
  5
20F
330
17
100
AcDbEntity
  8
0
100
AcDbLine
 10
542.449000000001
 20
-337.04200000000037
 30
0.0
 11
543.751000000001
 21
-338.4020000000004
 31
0.0
  0
LINE
  5
210
330
17
100
AcDbEntity
  8
0
100
AcDbLine
 10
543.751000000001
 20
-338.4020000000004
 30
0.0
 11
544.915000000001
 21
-339.8940000000004
 31
0.0
  0
LINE
  5
211
330
17
100
AcDbEntity
  8
0
100
AcDbLine
 10
544.915000000001
 20
-339.8940000000004
 30
0.0
 11
545.925000000001
 21
-341.5040000000004
 31
0.0
  0
LINE
  5
212
330
17
100
AcDbEntity
  8
0
100
AcDbLine
 10
545.925000000001
 20
-341.5040000000004
 30
0.0
 11
546.7680000000009
 21
-343.2190000000004
 31
0.0
  0
LINE
  5
213
330
17
100
AcDbEntity
  8
0
100
AcDbLine
 10
546.7680000000009
 20
-343.2190000000004
 30
0.0
 11
547.5180000000009
 21
-345.3070000000004
 31
0.0
  0
LINE
  5
214
330
17
100
AcDbEntity
  8
0
100
AcDbLine
 10
547.5180000000009
 20
-345.3070000000004
 30
0.0
 11
548.0330000000009
 21
-347.5070000000004
 31
0.0
  0
LINE
  5
215
330
17
100
AcDbEntity
  8
0
100
AcDbLine
 10
548.0330000000009
 20
-347.5070000000004
 30
0.0
 11
548.2980000000009
 21
-349.7670000000004
 31
0.0
  0
LINE
  5
216
330
17
100
AcDbEntity
  8
0
100
AcDbLine
 10
548.2980000000009
 20
-349.7670000000004
 30
0.0
 11
548.2980000000009
 21
-352.0360000000004
 31
0.0
  0
ENDSEC
  0
SECTION
  2
OBJECTS
  0
DICTIONARY
  5
A
330
0
100
AcDbDictionary
281
1
  3
ACAD_COLOR
350
B
  3
ACAD_GROUP
350
C
  3
ACAD_LAYOUT
350
D
  3
ACAD_MATERIAL
350
E
  3
ACAD_MLEADERSTYLE
350
F
  3
ACAD_MLINESTYLE
350
10
  3
ACAD_PLOTSETTINGS
350
11
  3
ACAD_PLOTSTYLENAME
350
12
  3
ACAD_SCALELIST
350
14
  3
ACAD_TABLESTYLE
350
15
  3
ACAD_VISUALSTYLE
350
16
  3
EZDXF_META
350
2D
  0
DICTIONARY
  5
B
330
A
100
AcDbDictionary
281
1
  0
DICTIONARY
  5
C
330
A
100
AcDbDictionary
281
1
  0
DICTIONARY
  5
D
330
A
100
AcDbDictionary
281
1
  3
Model
350
1A
  3
Layout1
350
1E
  0
DICTIONARY
  5
E
330
A
100
AcDbDictionary
281
1
  3
ByBlock
350
1F
  3
ByLayer
350
20
  3
Global
350
21
  0
DICTIONARY
  5
F
330
A
100
AcDbDictionary
281
1
  3
Standard
350
2C
  0
DICTIONARY
  5
10
330
A
100
AcDbDictionary
281
1
  3
Standard
350
22
  0
DICTIONARY
  5
11
330
A
100
AcDbDictionary
281
1
  0
ACDBDICTIONARYWDFLT
  5
12
330
A
100
AcDbDictionary
281
1
  3
Normal
350
13
100
AcDbDictionaryWithDefault
340
13
  0
ACDBPLACEHOLDER
  5
13
330
12
  0
DICTIONARY
  5
14
330
A
100
AcDbDictionary
281
1
  0
DICTIONARY
  5
15
330
A
100
AcDbDictionary
281
1
  0
DICTIONARY
  5
16
330
A
100
AcDbDictionary
281
1
  0
LAYOUT
  5
1A
330
D
100
AcDbPlotSettings
  1

  4
A3
  6

 40
7.5
 41
20.0
 42
7.5
 43
20.0
 44
420.0
 45
297.0
 46
0.0
 47
0.0
 48
0.0
 49
0.0
140
0.0
141
0.0
142
1.0
143
1.0
 70
1024
 72
1
 73
0
 74
5
  7

 75
16
 76
0
 77
2
 78
300
147
1.0
148
0.0
149
0.0
100
AcDbLayout
  1
Model
 70
1
 71
0
 10
0.0
 20
0.0
 11
420.0
 21
297.0
 12
0.0
 22
0.0
 32
0.0
 14
1e+20
 24
1e+20
 34
1e+20
 15
-1e+20
 25
-1e+20
 35
-1e+20
146
0.0
 13
0.0
 23
0.0
 33
0.0
 16
1.0
 26
0.0
 36
0.0
 17
0.0
 27
1.0
 37
0.0
 76
1
330
17
  0
LAYOUT
  5
1E
330
D
100
AcDbPlotSettings
  1

  4
A3
  6

 40
7.5
 41
20.0
 42
7.5
 43
20.0
 44
420.0
 45
297.0
 46
0.0
 47
0.0
 48
0.0
 49
0.0
140
0.0
141
0.0
142
1.0
143
1.0
 70
0
 72
1
 73
0
 74
5
  7

 75
16
 76
0
 77
2
 78
300
147
1.0
148
0.0
149
0.0
100
AcDbLayout
  1
Layout1
 70
1
 71
1
 10
0.0
 20
0.0
 11
420.0
 21
297.0
 12
0.0
 22
0.0
 32
0.0
 14
1e+20
 24
1e+20
 34
1e+20
 15
-1e+20
 25
-1e+20
 35
-1e+20
146
0.0
 13
0.0
 23
0.0
 33
0.0
 16
1.0
 26
0.0
 36
0.0
 17
0.0
 27
1.0
 37
0.0
 76
1
330
1B
  0
MATERIAL
  5
1F
102
{ACAD_REACTORS
330
E
102
}
330
E
100
AcDbMaterial
  1
ByBlock
  2

 70
0
 40
1.0
 71
1
 41
1.0
 91
-1023410177
 42
1.0
 72
1
  3

 73
1
 74
1
 75
1
 44
0.5
 73
0
 45
1.0
 46
1.0
 77
1
  4

 78
1
 79
1
170
1
 48
1.0
171
1
  6

172
1
173
1
174
1
140
1.0
141
1.0
175
1
  7

176
1
177
1
178
1
143
1.0
179
1
  8

270
1
271
1
272
1
145
1.0
146
1.0
273
1
  9

274
1
275
1
276
1
 42
1.0
 72
1
  3

 73
1
 74
1
 75
1
 94
63
  0
MATERIAL
  5
20
102
{ACAD_REACTORS
330
E
102
}
330
E
100
AcDbMaterial
  1
ByLayer
  2

 70
0
 40
1.0
 71
1
 41
1.0
 91
-1023410177
 42
1.0
 72
1
  3

 73
1
 74
1
 75
1
 44
0.5
 73
0
 45
1.0
 46
1.0
 77
1
  4

 78
1
 79
1
170
1
 48
1.0
171
1
  6

172
1
173
1
174
1
140
1.0
141
1.0
175
1
  7

176
1
177
1
178
1
143
1.0
179
1
  8

270
1
271
1
272
1
145
1.0
146
1.0
273
1
  9

274
1
275
1
276
1
 42
1.0
 72
1
  3

 73
1
 74
1
 75
1
 94
63
  0
MATERIAL
  5
21
102
{ACAD_REACTORS
330
E
102
}
330
E
100
AcDbMaterial
  1
Global
  2

 70
0
 40
1.0
 71
1
 41
1.0
 91
-1023410177
 42
1.0
 72
1
  3

 73
1
 74
1
 75
1
 44
0.5
 73
0
 45
1.0
 46
1.0
 77
1
  4

 78
1
 79
1
170
1
 48
1.0
171
1
  6

172
1
173
1
174
1
140
1.0
141
1.0
175
1
  7

176
1
177
1
178
1
143
1.0
179
1
  8

270
1
271
1
272
1
145
1.0
146
1.0
273
1
  9

274
1
275
1
276
1
 42
1.0
 72
1
  3

 73
1
 74
1
 75
1
 94
63
  0
MLINESTYLE
  5
22
102
{ACAD_REACTORS
330
10
102
}
330
10
100
AcDbMlineStyle
  2
Standard
 70
0
  3

 62
256
 51
90.0
 52
90.0
 71
2
 49
0.5
 62
256
  6
BYLAYER
 49
-0.5
 62
256
  6
BYLAYER
  0
MLEADERSTYLE
  5
2C
102
{ACAD_REACTORS
330
F
102
}
330
F
100
AcDbMLeaderStyle
179
2
170
2
171
1
172
0
 90
2
 40
0.0
 41
0.0
173
1
 91
-1056964608
 92
-2
290
1
 42
2.0
291
1
 43
8.0
  3
Standard
 44
4.0
300

342
29
174
1
175
1
176
0
178
1
 93
-1056964608
 45
4.0
292
0
297
0
 46
4.0
 94
-1056964608
 47
1.0
 49
1.0
140
1.0
294
1
141
0.0
177
0
142
1.0
295
0
296
0
143
3.75
271
0
272
9
273
9
  0
DICTIONARY
  5
2D
330
A
100
AcDbDictionary
280
1
281
1
  3
CREATED_BY_EZDXF
350
2E
  3
WRITTEN_BY_EZDXF
350
219
  0
DICTIONARYVAR
  5
2E
330
2D
100
DictionaryVariables
280
0
  1
1.4.3 @ 2026-04-08T00:10:14.920205+00:00
  0
DICTIONARYVAR
  5
219
330
2D
100
DictionaryVariables
280
0
  1
1.4.3 @ 2026-04-08T00:10:14.925523+00:00
  0
ENDSEC
  0
EOF
