  0
SECTION
  2
HEADER
  9
$ACADVER
  1
AC1024
  9
$ACADMAINTVER
 70
6
  9
$DWGCODEPAGE
  3
ANSI_1252
  9
$LASTSAVEDBY
  1
ezdxf
  9
$INSBASE
 10
0.0
 20
0.0
 30
0.0
  9
$EXTMIN
 10
1e+20
 20
1e+20
 30
1e+20
  9
$EXTMAX
 10
-1e+20
 20
-1e+20
 30
-1e+20
  9
$LIMMIN
 10
0.0
 20
0.0
  9
$LIMMAX
 10
420.0
 20
297.0
  9
$ORTHOMODE
 70
0
  9
$REGENMODE
 70
1
  9
$FILLMODE
 70
1
  9
$QTEXTMODE
 70
0
  9
$MIRRTEXT
 70
1
  9
$LTSCALE
 40
1.0
  9
$ATTMODE
 70
1
  9
$TEXTSIZE
 40
2.5
  9
$TRACEWID
 40
1.0
  9
$TEXTSTYLE
  7
Standard
  9
$CLAYER
  8
0
  9
$CELTYPE
  6
ByLayer
  9
$CECOLOR
 62
256
  9
$CELTSCALE
 40
1.0
  9
$DISPSILH
 70
0
  9
$DIMSCALE
 40
1.0
  9
$DIMASZ
 40
2.5
  9
$DIMEXO
 40
0.625
  9
$DIMDLI
 40
3.75
  9
$DIMRND
 40
0.0
  9
$DIMDLE
 40
0.0
  9
$DIMEXE
 40
1.25
  9
$DIMTP
 40
0.0
  9
$DIMTM
 40
0.0
  9
$DIMTXT
 40
2.5
  9
$DIMCEN
 40
2.5
  9
$DIMTSZ
 40
0.0
  9
$DIMTOL
 70
0
  9
$DIMLIM
 70
0
  9
$DIMTIH
 70
0
  9
$DIMTOH
 70
0
  9
$DIMSE1
 70
0
  9
$DIMSE2
 70
0
  9
$DIMTAD
 70
1
  9
$DIMZIN
 70
8
  9
$DIMBLK
  1

  9
$DIMASO
 70
1
  9
$DIMSHO
 70
1
  9
$DIMPOST
  1

  9
$DIMAPOST
  1

  9
$DIMALT
 70
0
  9
$DIMALTD
 70
3
  9
$DIMALTF
 40
0.03937007874
  9
$DIMLFAC
 40
1.0
  9
$DIMTOFL
 70
1
  9
$DIMTVP
 40
0.0
  9
$DIMTIX
 70
0
  9
$DIMSOXD
 70
0
  9
$DIMSAH
 70
0
  9
$DIMBLK1
  1

  9
$DIMBLK2
  1

  9
$DIMSTYLE
  2
ISO-25
  9
$DIMCLRD
 70
0
  9
$DIMCLRE
 70
0
  9
$DIMCLRT
 70
0
  9
$DIMTFAC
 40
1.0
  9
$DIMGAP
 40
0.625
  9
$DIMJUST
 70
0
  9
$DIMSD1
 70
0
  9
$DIMSD2
 70
0
  9
$DIMTOLJ
 70
0
  9
$DIMTZIN
 70
8
  9
$DIMALTZ
 70
0
  9
$DIMALTTZ
 70
0
  9
$DIMUPT
 70
0
  9
$DIMDEC
 70
2
  9
$DIMTDEC
 70
2
  9
$DIMALTU
 70
2
  9
$DIMALTTD
 70
3
  9
$DIMTXSTY
  7
Standard
  9
$DIMAUNIT
 70
0
  9
$DIMADEC
 70
0
  9
$DIMALTRND
 40
0.0
  9
$DIMAZIN
 70
0
  9
$DIMDSEP
 70
44
  9
$DIMATFIT
 70
3
  9
$DIMFRAC
 70
0
  9
$DIMLDRBLK
  1

  9
$DIMLUNIT
 70
2
  9
$DIMLWD
 70
-2
  9
$DIMLWE
 70
-2
  9
$DIMTMOVE
 70
0
  9
$DIMFXL
 40
1.0
  9
$DIMFXLON
 70
0
  9
$DIMJOGANG
 40
0.785398163397
  9
$DIMTFILL
 70
0
  9
$DIMTFILLCLR
 70
0
  9
$DIMARCSYM
 70
0
  9
$DIMLTYPE
  6

  9
$DIMLTEX1
  6

  9
$DIMLTEX2
  6

  9
$DIMTXTDIRECTION
 70
0
  9
$LUNITS
 70
2
  9
$LUPREC
 70
4
  9
$SKETCHINC
 40
1.0
  9
$FILLETRAD
 40
10.0
  9
$AUNITS
 70
0
  9
$AUPREC
 70
2
  9
$MENU
  1
.
  9
$ELEVATION
 40
0.0
  9
$PELEVATION
 40
0.0
  9
$THICKNESS
 40
0.0
  9
$LIMCHECK
 70
0
  9
$CHAMFERA
 40
0.0
  9
$CHAMFERB
 40
0.0
  9
$CHAMFERC
 40
0.0
  9
$CHAMFERD
 40
0.0
  9
$SKPOLY
 70
0
  9
$TDCREATE
 40
2461138.7154166666
  9
$TDUCREATE
 40
2458532.153996898
  9
$TDUPDATE
 40
2461138.7154166666
  9
$TDUUPDATE
 40
2458532.1544311
  9
$TDINDWG
 40
0.0
  9
$TDUSRTIMER
 40
0.0
  9
$USRTIMER
 70
1
  9
$ANGBASE
 50
0.0
  9
$ANGDIR
 70
0
  9
$PDMODE
 70
0
  9
$PDSIZE
 40
0.0
  9
$PLINEWID
 40
0.0
  9
$SPLFRAME
 70
0
  9
$SPLINETYPE
 70
6
  9
$SPLINESEGS
 70
8
  9
$HANDSEED
  5
346
  9
$SURFTAB1
 70
6
  9
$SURFTAB2
 70
6
  9
$SURFTYPE
 70
6
  9
$SURFU
 70
6
  9
$SURFV
 70
6
  9
$UCSBASE
  2

  9
$UCSNAME
  2

  9
$UCSORG
 10
0.0
 20
0.0
 30
0.0
  9
$UCSXDIR
 10
1.0
 20
0.0
 30
0.0
  9
$UCSYDIR
 10
0.0
 20
1.0
 30
0.0
  9
$UCSORTHOREF
  2

  9
$UCSORTHOVIEW
 70
0
  9
$UCSORGTOP
 10
0.0
 20
0.0
 30
0.0
  9
$UCSORGBOTTOM
 10
0.0
 20
0.0
 30
0.0
  9
$UCSORGLEFT
 10
0.0
 20
0.0
 30
0.0
  9
$UCSORGRIGHT
 10
0.0
 20
0.0
 30
0.0
  9
$UCSORGFRONT
 10
0.0
 20
0.0
 30
0.0
  9
$UCSORGBACK
 10
0.0
 20
0.0
 30
0.0
  9
$PUCSBASE
  2

  9
$PUCSNAME
  2

  9
$PUCSORG
 10
0.0
 20
0.0
 30
0.0
  9
$PUCSXDIR
 10
1.0
 20
0.0
 30
0.0
  9
$PUCSYDIR
 10
0.0
 20
1.0
 30
0.0
  9
$PUCSORTHOREF
  2

  9
$PUCSORTHOVIEW
 70
0
  9
$PUCSORGTOP
 10
0.0
 20
0.0
 30
0.0
  9
$PUCSORGBOTTOM
 10
0.0
 20
0.0
 30
0.0
  9
$PUCSORGLEFT
 10
0.0
 20
0.0
 30
0.0
  9
$PUCSORGRIGHT
 10
0.0
 20
0.0
 30
0.0
  9
$PUCSORGFRONT
 10
0.0
 20
0.0
 30
0.0
  9
$PUCSORGBACK
 10
0.0
 20
0.0
 30
0.0
  9
$USERI1
 70
0
  9
$USERI2
 70
0
  9
$USERI3
 70
0
  9
$USERI4
 70
0
  9
$USERI5
 70
0
  9
$USERR1
 40
0.0
  9
$USERR2
 40
0.0
  9
$USERR3
 40
0.0
  9
$USERR4
 40
0.0
  9
$USERR5
 40
0.0
  9
$WORLDVIEW
 70
1
  9
$SHADEDGE
 70
3
  9
$SHADEDIF
 70
70
  9
$TILEMODE
 70
1
  9
$MAXACTVP
 70
64
  9
$PINSBASE
 10
0.0
 20
0.0
 30
0.0
  9
$PLIMCHECK
 70
0
  9
$PEXTMIN
 10
1e+20
 20
1e+20
 30
1e+20
  9
$PEXTMAX
 10
-1e+20
 20
-1e+20
 30
-1e+20
  9
$PLIMMIN
 10
0.0
 20
0.0
  9
$PLIMMAX
 10
420.0
 20
297.0
  9
$UNITMODE
 70
0
  9
$VISRETAIN
 70
1
  9
$PLINEGEN
 70
0
  9
$PSLTSCALE
 70
1
  9
$TREEDEPTH
 70
3020
  9
$CMLSTYLE
  2
Standard
  9
$CMLJUST
 70
0
  9
$CMLSCALE
 40
20.0
  9
$PROXYGRAPHICS
 70
1
  9
$MEASUREMENT
 70
1
  9
$CELWEIGHT
370
-1
  9
$ENDCAPS
280
0
  9
$JOINSTYLE
280
0
  9
$LWDISPLAY
290
0
  9
$INSUNITS
 70
6
  9
$HYPERLINKBASE
  1

  9
$STYLESHEET
  1

  9
$XEDIT
290
1
  9
$CEPSNTYPE
380
0
  9
$PSTYLEMODE
290
1
  9
$FINGERPRINTGUID
  2
{E02CFB1A-7353-43AB-9D4E-44AC41B46110}
  9
$VERSIONGUID
  2
{98CB53CE-285F-4C64-BCD3-EAA06783DA66}
  9
$EXTNAMES
290
1
  9
$PSVPSCALE
 40
0.0
  9
$OLESTARTUP
290
0
  9
$SORTENTS
280
127
  9
$INDEXCTL
280
0
  9
$HIDETEXT
280
1
  9
$XCLIPFRAME
280
1
  9
$HALOGAP
280
0
  9
$OBSCOLOR
 70
257
  9
$OBSLTYPE
280
0
  9
$INTERSECTIONDISPLAY
280
0
  9
$INTERSECTIONCOLOR
 70
257
  9
$DIMASSOC
280
2
  9
$PROJECTNAME
  1

  9
$CAMERADISPLAY
290
0
  9
$LENSLENGTH
 40
50.0
  9
$CAMERAHEIGHT
 40
0.0
  9
$STEPSPERSEC
 40
24.0
  9
$STEPSIZE
 40
100.0
  9
$3DDWFPREC
 40
2.0
  9
$PSOLWIDTH
 40
0.005
  9
$PSOLHEIGHT
 40
0.08
  9
$LOFTANG1
 40
1.570796326795
  9
$LOFTANG2
 40
1.570796326795
  9
$LOFTMAG1
 40
0.0
  9
$LOFTMAG2
 40
0.0
  9
$LOFTPARAM
 70
7
  9
$LOFTNORMALS
280
1
  9
$LATITUDE
 40
37.795
  9
$LONGITUDE
 40
-122.394
  9
$NORTHDIRECTION
 40
0.0
  9
$TIMEZONE
 70
-8000
  9
$LIGHTGLYPHDISPLAY
280
1
  9
$TILEMODELIGHTSYNCH
280
1
  9
$CMATERIAL
347
20
  9
$SOLIDHIST
280
0
  9
$SHOWHIST
280
1
  9
$DWFFRAME
280
2
  9
$DGNFRAME
280
2
  9
$REALWORLDSCALE
290
1
  9
$INTERFERECOLOR
 62
256
  9
$CSHADOW
280
0
  9
$SHADOWPLANELOCATION
 40
0.0
  0
ENDSEC
  0
SECTION
  2
CLASSES
  0
CLASS
  1
ACDBDICTIONARYWDFLT
  2
AcDbDictionaryWithDefault
  3
ObjectDBX Classes
 90
0
 91
0
280
0
281
0
  0
CLASS
  1
SUN
  2
AcDbSun
  3
SCENEOE
 90
1153
 91
0
280
0
281
0
  0
CLASS
  1
VISUALSTYLE
  2
AcDbVisualStyle
  3
ObjectDBX Classes
 90
4095
 91
0
280
0
281
0
  0
CLASS
  1
MATERIAL
  2
AcDbMaterial
  3
ObjectDBX Classes
 90
1153
 91
0
280
0
281
0
  0
CLASS
  1
SCALE
  2
AcDbScale
  3
ObjectDBX Classes
 90
1153
 91
0
280
0
281
0
  0
CLASS
  1
TABLESTYLE
  2
AcDbTableStyle
  3
ObjectDBX Classes
 90
4095
 91
0
280
0
281
0
  0
CLASS
  1
MLEADERSTYLE
  2
AcDbMLeaderStyle
  3
ACDB_MLEADERSTYLE_CLASS
 90
4095
 91
0
280
0
281
0
  0
CLASS
  1
DICTIONARYVAR
  2
AcDbDictionaryVar
  3
ObjectDBX Classes
 90
0
 91
0
280
0
281
0
  0
CLASS
  1
CELLSTYLEMAP
  2
AcDbCellStyleMap
  3
ObjectDBX Classes
 90
1152
 91
0
280
0
281
0
  0
CLASS
  1
MENTALRAYRENDERSETTINGS
  2
AcDbMentalRayRenderSettings
  3
SCENEOE
 90
1024
 91
0
280
0
281
0
  0
CLASS
  1
ACDBDETAILVIEWSTYLE
  2
AcDbDetailViewStyle
  3
ObjectDBX Classes
 90
1025
 91
0
280
0
281
0
  0
CLASS
  1
ACDBSECTIONVIEWSTYLE
  2
AcDbSectionViewStyle
  3
ObjectDBX Classes
 90
1025
 91
0
280
0
281
0
  0
CLASS
  1
RASTERVARIABLES
  2
AcDbRasterVariables
  3
ISM
 90
0
 91
0
280
0
281
0
  0
CLASS
  1
ACDBPLACEHOLDER
  2
AcDbPlaceHolder
  3
ObjectDBX Classes
 90
0
 91
0
280
0
281
0
  0
CLASS
  1
LAYOUT
  2
AcDbLayout
  3
ObjectDBX Classes
 90
0
 91
0
280
0
281
0
  0
ENDSEC
  0
SECTION
  2
TABLES
  0
TABLE
  2
VPORT
  5
8
330
0
100
AcDbSymbolTable
 70
1
  0
VPORT
  5
23
330
8
100
AcDbSymbolTableRecord
100
AcDbViewportTableRecord
  2
*Active
 70
0
 10
0.0
 20
0.0
 11
1.0
 21
1.0
 12
0.0
 22
0.0
 13
0.0
 23
0.0
 14
0.5
 24
0.5
 15
0.5
 25
0.5
 16
0.0
 26
0.0
 36
1.0
 17
0.0
 27
0.0
 37
0.0
 40
1000.0
 41
1.34
 42
50.0
 43
0.0
 44
0.0
 50
0.0
 51
0.0
 71
0
 72
1000
 73
1
 74
3
 75
0
 76
0
 77
0
 78
0
281
0
 65
0
146
0.0
  0
ENDTAB
  0
TABLE
  2
LTYPE
  5
2
330
0
100
AcDbSymbolTable
 70
3
  0
LTYPE
  5
24
330
2
100
AcDbSymbolTableRecord
100
AcDbLinetypeTableRecord
  2
ByBlock
 70
0
  3

 72
65
 73
0
 40
0.0
  0
LTYPE
  5
25
330
2
100
AcDbSymbolTableRecord
100
AcDbLinetypeTableRecord
  2
ByLayer
 70
0
  3

 72
65
 73
0
 40
0.0
  0
LTYPE
  5
26
330
2
100
AcDbSymbolTableRecord
100
AcDbLinetypeTableRecord
  2
Continuous
 70
0
  3

 72
65
 73
0
 40
0.0
  0
ENDTAB
  0
TABLE
  2
LAYER
  5
1
330
0
100
AcDbSymbolTable
 70
2
  0
LAYER
  5
27
330
1
100
AcDbSymbolTableRecord
100
AcDbLayerTableRecord
  2
0
 70
0
 62
7
  6
Continuous
370
-3
390
13
347
21
  0
LAYER
  5
28
330
1
100
AcDbSymbolTableRecord
100
AcDbLayerTableRecord
  2
Defpoints
 70
0
 62
7
  6
Continuous
290
0
370
-3
390
13
347
21
  0
ENDTAB
  0
TABLE
  2
STYLE
  5
5
330
0
100
AcDbSymbolTable
 70
1
  0
STYLE
  5
29
330
5
100
AcDbSymbolTableRecord
100
AcDbTextStyleTableRecord
  2
Standard
 70
0
 40
0.0
 41
1.0
 50
0.0
 71
0
 42
2.5
  3
txt
  4

  0
ENDTAB
  0
TABLE
  2
VIEW
  5
7
330
0
100
AcDbSymbolTable
 70
0
  0
ENDTAB
  0
TABLE
  2
UCS
  5
6
330
0
100
AcDbSymbolTable
 70
0
  0
ENDTAB
  0
TABLE
  2
APPID
  5
3
330
0
100
AcDbSymbolTable
 70
3
  0
APPID
  5
2A
330
3
100
AcDbSymbolTableRecord
100
AcDbRegAppTableRecord
  2
ACAD
 70
0
  0
APPID
  5
343
330
3
100
AcDbSymbolTableRecord
100
AcDbRegAppTableRecord
  2
HATCHBACKGROUNDCOLOR
 70
0
  0
APPID
  5
344
330
3
100
AcDbSymbolTableRecord
100
AcDbRegAppTableRecord
  2
EZDXF
 70
0
  0
ENDTAB
  0
TABLE
  2
DIMSTYLE
  5
4
330
0
100
AcDbSymbolTable
 70
1
100
AcDbDimStyleTable
  0
DIMSTYLE
105
2B
330
4
100
AcDbSymbolTableRecord
100
AcDbDimStyleTableRecord
  2
Standard
 70
0
 40
1.0
 41
2.5
 42
0.625
 43
3.75
 44
1.25
 45
0.0
 46
0.0
 47
0.0
 48
0.0
 49
2.5
140
2.5
141
2.5
142
0.0
143
0.03937007874
144
1.0
145
0.0
146
1.0
147
0.625
148
0.0
 69
0
 70
0
 71
0
 72
0
 73
0
 74
0
 75
0
 76
0
 77
1
 78
8
 79
3
170
0
171
3
172
1
173
0
174
0
175
0
176
0
177
0
178
0
179
2
271
2
272
2
273
2
274
3
275
0
276
0
277
2
278
44
279
0
280
0
281
0
282
0
283
0
284
8
285
0
286
0
288
0
289
3
290
0
371
-2
372
-2
  0
ENDTAB
  0
TABLE
  2
BLOCK_RECORD
  5
9
330
0
100
AcDbSymbolTable
 70
2
  0
BLOCK_RECORD
  5
17
330
9
100
AcDbSymbolTableRecord
100
AcDbBlockTableRecord
  2
*Model_Space
340
1A
 70
0
280
1
281
0
  0
BLOCK_RECORD
  5
1B
330
9
100
AcDbSymbolTableRecord
100
AcDbBlockTableRecord
  2
*Paper_Space
340
1E
 70
0
280
1
281
0
  0
ENDTAB
  0
ENDSEC
  0
SECTION
  2
BLOCKS
  0
BLOCK
  5
18
330
17
100
AcDbEntity
  8
0
100
AcDbBlockBegin
  2
*Model_Space
 70
0
 10
0.0
 20
0.0
 30
0.0
  3
*Model_Space
  1

  0
ENDBLK
  5
19
330
17
100
AcDbEntity
  8
0
100
AcDbBlockEnd
  0
BLOCK
  5
1C
330
1B
100
AcDbEntity
  8
0
100
AcDbBlockBegin
  2
*Paper_Space
 70
0
 10
0.0
 20
0.0
 30
0.0
  3
*Paper_Space
  1

  0
ENDBLK
  5
1D
330
1B
100
AcDbEntity
  8
0
100
AcDbBlockEnd
  0
ENDSEC
  0
SECTION
  2
ENTITIES
  0
LINE
  5
2F
330
17
100
AcDbEntity
  8
0
100
AcDbLine
 10
220.796
 20
-356.487
 30
0.0
 11
181.719
 21
-356.451
 31
0.0
  0
LINE
  5
30
330
17
100
AcDbEntity
  8
0
100
AcDbLine
 10
181.719
 20
-356.451
 30
0.0
 11
181.018
 21
-356.344
 31
0.0
  0
LINE
  5
31
330
17
100
AcDbEntity
  8
0
100
AcDbLine
 10
181.018
 20
-356.344
 30
0.0
 11
180.341
 21
-356.17
 31
0.0
  0
LINE
  5
32
330
17
100
AcDbEntity
  8
0
100
AcDbLine
 10
180.341
 20
-356.17
 30
0.0
 11
179.692
 21
-355.933
 31
0.0
  0
LINE
  5
33
330
17
100
AcDbEntity
  8
0
100
AcDbLine
 10
179.692
 20
-355.933
 30
0.0
 11
179.074
 21
-355.63599999999997
 31
0.0
  0
LINE
  5
34
330
17
100
AcDbEntity
  8
0
100
AcDbLine
 10
179.074
 20
-355.63599999999997
 30
0.0
 11
178.491
 21
-355.28299999999996
 31
0.0
  0
LINE
  5
35
330
17
100
AcDbEntity
  8
0
100
AcDbLine
 10
178.491
 20
-355.28299999999996
 30
0.0
 11
177.947
 21
-354.87699999999995
 31
0.0
  0
LINE
  5
36
330
17
100
AcDbEntity
  8
0
100
AcDbLine
 10
177.947
 20
-354.87699999999995
 30
0.0
 11
177.445
 21
-354.42199999999997
 31
0.0
  0
LINE
  5
37
330
17
100
AcDbEntity
  8
0
100
AcDbLine
 10
177.445
 20
-354.42199999999997
 30
0.0
 11
176.989
 21
-353.921
 31
0.0
  0
LINE
  5
38
330
17
100
AcDbEntity
  8
0
100
AcDbLine
 10
176.989
 20
-353.921
 30
0.0
 11
176.582
 21
-353.378
 31
0.0
  0
LINE
  5
39
330
17
100
AcDbEntity
  8
0
100
AcDbLine
 10
176.582
 20
-353.378
 30
0.0
 11
176.22799999999998
 21
-352.796
 31
0.0
  0
LINE
  5
3A
330
17
100
AcDbEntity
  8
0
100
AcDbLine
 10
176.22799999999998
 20
-352.796
 30
0.0
 11
175.92999999999998
 21
-352.179
 31
0.0
  0
LINE
  5
3B
330
17
100
AcDbEntity
  8
0
100
AcDbLine
 10
175.92999999999998
 20
-352.179
 30
0.0
 11
175.69199999999998
 21
-351.53099999999995
 31
0.0
  0
LINE
  5
3C
330
17
100
AcDbEntity
  8
0
100
AcDbLine
 10
175.69199999999998
 20
-351.53099999999995
 30
0.0
 11
175.51699999999997
 21
-350.8539999999999
 31
0.0
  0
LINE
  5
3D
330
17
100
AcDbEntity
  8
0
100
AcDbLine
 10
175.51699999999997
 20
-350.8539999999999
 30
0.0
 11
175.40899999999996
 21
-350.1529999999999
 31
0.0
  0
LINE
  5
3E
330
17
100
AcDbEntity
  8
0
100
AcDbLine
 10
175.40899999999996
 20
-350.1529999999999
 30
0.0
 11
174.40999999999997
 21
-329.7339999999999
 31
0.0
  0
LINE
  5
3F
330
17
100
AcDbEntity
  8
0
100
AcDbLine
 10
174.40999999999997
 20
-329.7339999999999
 30
0.0
 11
174.24599999999998
 21
-328.8349999999999
 31
0.0
  0
LINE
  5
40
330
17
100
AcDbEntity
  8
0
100
AcDbLine
 10
174.24599999999998
 20
-328.8349999999999
 30
0.0
 11
206.85099999999997
 21
-328.88999999999993
 31
0.0
  0
LINE
  5
41
330
17
100
AcDbEntity
  8
0
100
AcDbLine
 10
206.85099999999997
 20
-328.88999999999993
 30
0.0
 11
208.31899999999996
 21
-329.05299999999994
 31
0.0
  0
LINE
  5
42
330
17
100
AcDbEntity
  8
0
100
AcDbLine
 10
208.31899999999996
 20
-329.05299999999994
 30
0.0
 11
209.73099999999997
 21
-329.3229999999999
 31
0.0
  0
LINE
  5
43
330
17
100
AcDbEntity
  8
0
100
AcDbLine
 10
209.73099999999997
 20
-329.3229999999999
 30
0.0
 11
211.08099999999996
 21
-329.6979999999999
 31
0.0
  0
LINE
  5
44
330
17
100
AcDbEntity
  8
0
100
AcDbLine
 10
211.08099999999996
 20
-329.6979999999999
 30
0.0
 11
212.36399999999995
 21
-330.17599999999993
 31
0.0
  0
LINE
  5
45
330
17
100
AcDbEntity
  8
0
100
AcDbLine
 10
212.36399999999995
 20
-330.17599999999993
 30
0.0
 11
213.57499999999996
 21
-330.75499999999994
 31
0.0
  0
LINE
  5
46
330
17
100
AcDbEntity
  8
0
100
AcDbLine
 10
213.57499999999996
 20
-330.75499999999994
 30
0.0
 11
214.70799999999997
 21
-331.4339999999999
 31
0.0
  0
LINE
  5
47
330
17
100
AcDbEntity
  8
0
100
AcDbLine
 10
214.70799999999997
 20
-331.4339999999999
 30
0.0
 11
215.75799999999998
 21
-332.2099999999999
 31
0.0
  0
LINE
  5
48
330
17
100
AcDbEntity
  8
0
100
AcDbLine
 10
215.75799999999998
 20
-332.2099999999999
 30
0.0
 11
216.71999999999997
 21
-333.0829999999999
 31
0.0
  0
LINE
  5
49
330
17
100
AcDbEntity
  8
0
100
AcDbLine
 10
216.71999999999997
 20
-333.0829999999999
 30
0.0
 11
217.58799999999997
 21
-334.0499999999999
 31
0.0
  0
LINE
  5
4A
330
17
100
AcDbEntity
  8
0
100
AcDbLine
 10
217.58799999999997
 20
-334.0499999999999
 30
0.0
 11
218.35699999999997
 21
-335.1099999999999
 31
0.0
  0
LINE
  5
4B
330
17
100
AcDbEntity
  8
0
100
AcDbLine
 10
218.35699999999997
 20
-335.1099999999999
 30
0.0
 11
219.02199999999996
 21
-336.2599999999999
 31
0.0
  0
LINE
  5
4C
330
17
100
AcDbEntity
  8
0
100
AcDbLine
 10
219.02199999999996
 20
-336.2599999999999
 30
0.0
 11
219.57699999999997
 21
-337.49899999999985
 31
0.0
  0
LINE
  5
4D
330
17
100
AcDbEntity
  8
0
100
AcDbLine
 10
219.57699999999997
 20
-337.49899999999985
 30
0.0
 11
220.01699999999997
 21
-338.82599999999985
 31
0.0
  0
LINE
  5
4E
330
17
100
AcDbEntity
  8
0
100
AcDbLine
 10
220.01699999999997
 20
-338.82599999999985
 30
0.0
 11
220.33599999999996
 21
-340.23799999999983
 31
0.0
  0
LINE
  5
4F
330
17
100
AcDbEntity
  8
0
100
AcDbLine
 10
220.33599999999996
 20
-340.23799999999983
 30
0.0
 11
220.52899999999997
 21
-341.7339999999998
 31
0.0
  0
LINE
  5
50
330
17
100
AcDbEntity
  8
0
100
AcDbLine
 10
220.52899999999997
 20
-341.7339999999998
 30
0.0
 11
220.79499999999996
 21
-356.4859999999998
 31
0.0
  0
LINE
  5
51
330
17
100
AcDbEntity
  8
0
100
AcDbLine
 10
471.05499999999995
 20
-290.57199999999983
 30
0.0
 11
440.68699999999995
 21
-290.57199999999983
 31
0.0
  0
LINE
  5
52
330
17
100
AcDbEntity
  8
0
100
AcDbLine
 10
440.68699999999995
 20
-290.57199999999983
 30
0.0
 11
439.33199999999994
 21
-291.3969999999998
 31
0.0
  0
LINE
  5
53
330
17
100
AcDbEntity
  8
0
100
AcDbLine
 10
439.33199999999994
 20
-291.3969999999998
 30
0.0
 11
438.6329999999999
 21
-291.74199999999985
 31
0.0
  0
LINE
  5
54
330
17
100
AcDbEntity
  8
0
100
AcDbLine
 10
438.6329999999999
 20
-291.74199999999985
 30
0.0
 11
437.9129999999999
 21
-292.03599999999983
 31
0.0
  0
LINE
  5
55
330
17
100
AcDbEntity
  8
0
100
AcDbLine
 10
437.9129999999999
 20
-292.03599999999983
 30
0.0
 11
437.1749999999999
 21
-292.2789999999998
 31
0.0
  0
LINE
  5
56
330
17
100
AcDbEntity
  8
0
100
AcDbLine
 10
437.1749999999999
 20
-292.2789999999998
 30
0.0
 11
436.4219999999999
 21
-292.4689999999998
 31
0.0
  0
LINE
  5
57
330
17
100
AcDbEntity
  8
0
100
AcDbLine
 10
436.4219999999999
 20
-292.4689999999998
 30
0.0
 11
435.6559999999999
 21
-292.6059999999998
 31
0.0
  0
LINE
  5
58
330
17
100
AcDbEntity
  8
0
100
AcDbLine
 10
435.6559999999999
 20
-292.6059999999998
 30
0.0
 11
434.8809999999999
 21
-292.68899999999985
 31
0.0
  0
LINE
  5
59
330
17
100
AcDbEntity
  8
0
100
AcDbLine
 10
434.8809999999999
 20
-292.68899999999985
 30
0.0
 11
366.04599999999994
 21
-293.01199999999983
 31
0.0
  0
LINE
  5
5A
330
17
100
AcDbEntity
  8
0
100
AcDbLine
 10
366.04599999999994
 20
-293.01199999999983
 30
0.0
 11
365.76899999999995
 21
-292.9769999999998
 31
0.0
  0
LINE
  5
5B
330
17
100
AcDbEntity
  8
0
100
AcDbLine
 10
365.76899999999995
 20
-292.9769999999998
 30
0.0
 11
365.49699999999996
 21
-292.9189999999998
 31
0.0
  0
LINE
  5
5C
330
17
100
AcDbEntity
  8
0
100
AcDbLine
 10
365.49699999999996
 20
-292.9189999999998
 30
0.0
 11
365.23099999999994
 21
-292.8379999999998
 31
0.0
  0
LINE
  5
5D
330
17
100
AcDbEntity
  8
0
100
AcDbLine
 10
365.23099999999994
 20
-292.8379999999998
 30
0.0
 11
364.97299999999996
 21
-292.7349999999998
 31
0.0
  0
LINE
  5
5E
330
17
100
AcDbEntity
  8
0
100
AcDbLine
 10
364.97299999999996
 20
-292.7349999999998
 30
0.0
 11
364.72499999999997
 21
-292.6099999999998
 31
0.0
  0
LINE
  5
5F
330
17
100
AcDbEntity
  8
0
100
AcDbLine
 10
364.72499999999997
 20
-292.6099999999998
 30
0.0
 11
364.48699999999997
 21
-292.4629999999998
 31
0.0
  0
LINE
  5
60
330
17
100
AcDbEntity
  8
0
100
AcDbLine
 10
364.48699999999997
 20
-292.4629999999998
 30
0.0
 11
364.26199999999994
 21
-292.2949999999998
 31
0.0
  0
LINE
  5
61
330
17
100
AcDbEntity
  8
0
100
AcDbLine
 10
364.26199999999994
 20
-292.2949999999998
 30
0.0
 11
363.3539999999999
 21
-291.31499999999977
 31
0.0
  0
LINE
  5
62
330
17
100
AcDbEntity
  8
0
100
AcDbLine
 10
363.3539999999999
 20
-291.31499999999977
 30
0.0
 11
177.95299999999992
 21
-291.5879999999998
 31
0.0
  0
LINE
  5
63
330
17
100
AcDbEntity
  8
0
100
AcDbLine
 10
177.95299999999992
 20
-291.5879999999998
 30
0.0
 11
177.13799999999992
 21
-291.5029999999998
 31
0.0
  0
LINE
  5
64
330
17
100
AcDbEntity
  8
0
100
AcDbLine
 10
177.13799999999992
 20
-291.5029999999998
 30
0.0
 11
176.3329999999999
 21
-291.3609999999998
 31
0.0
  0
LINE
  5
65
330
17
100
AcDbEntity
  8
0
100
AcDbLine
 10
176.3329999999999
 20
-291.3609999999998
 30
0.0
 11
175.5409999999999
 21
-291.16299999999984
 31
0.0
  0
LINE
  5
66
330
17
100
AcDbEntity
  8
0
100
AcDbLine
 10
175.5409999999999
 20
-291.16299999999984
 30
0.0
 11
174.7649999999999
 21
-290.90999999999985
 31
0.0
  0
LINE
  5
67
330
17
100
AcDbEntity
  8
0
100
AcDbLine
 10
174.7649999999999
 20
-290.90999999999985
 30
0.0
 11
174.0079999999999
 21
-290.60199999999986
 31
0.0
  0
LINE
  5
68
330
17
100
AcDbEntity
  8
0
100
AcDbLine
 10
174.0079999999999
 20
-290.60199999999986
 30
0.0
 11
173.2719999999999
 21
-290.2409999999999
 31
0.0
  0
LINE
  5
69
330
17
100
AcDbEntity
  8
0
100
AcDbLine
 10
173.2719999999999
 20
-290.2409999999999
 30
0.0
 11
172.51199999999992
 21
-289.7959999999999
 31
0.0
  0
LINE
  5
6A
330
17
100
AcDbEntity
  8
0
100
AcDbLine
 10
172.51199999999992
 20
-289.7959999999999
 30
0.0
 11
172.91299999999993
 21
-320.54399999999987
 31
0.0
  0
LINE
  5
6B
330
17
100
AcDbEntity
  8
0
100
AcDbLine
 10
172.91299999999993
 20
-320.54399999999987
 30
0.0
 11
172.94499999999994
 21
-320.7399999999999
 31
0.0
  0
LINE
  5
6C
330
17
100
AcDbEntity
  8
0
100
AcDbLine
 10
172.94499999999994
 20
-320.7399999999999
 30
0.0
 11
172.99599999999992
 21
-320.9289999999999
 31
0.0
  0
LINE
  5
6D
330
17
100
AcDbEntity
  8
0
100
AcDbLine
 10
172.99599999999992
 20
-320.9289999999999
 30
0.0
 11
173.0649999999999
 21
-321.1099999999999
 31
0.0
  0
LINE
  5
6E
330
17
100
AcDbEntity
  8
0
100
AcDbLine
 10
173.0649999999999
 20
-321.1099999999999
 30
0.0
 11
173.14999999999992
 21
-321.2819999999999
 31
0.0
  0
LINE
  5
6F
330
17
100
AcDbEntity
  8
0
100
AcDbLine
 10
173.14999999999992
 20
-321.2819999999999
 30
0.0
 11
173.25099999999992
 21
-321.44499999999994
 31
0.0
  0
LINE
  5
70
330
17
100
AcDbEntity
  8
0
100
AcDbLine
 10
173.25099999999992
 20
-321.44499999999994
 30
0.0
 11
173.36599999999993
 21
-321.5969999999999
 31
0.0
  0
LINE
  5
71
330
17
100
AcDbEntity
  8
0
100
AcDbLine
 10
173.36599999999993
 20
-321.5969999999999
 30
0.0
 11
173.49499999999992
 21
-321.7369999999999
 31
0.0
  0
LINE
  5
72
330
17
100
AcDbEntity
  8
0
100
AcDbLine
 10
173.49499999999992
 20
-321.7369999999999
 30
0.0
 11
173.63699999999992
 21
-321.8639999999999
 31
0.0
  0
LINE
  5
73
330
17
100
AcDbEntity
  8
0
100
AcDbLine
 10
173.63699999999992
 20
-321.8639999999999
 30
0.0
 11
173.7899999999999
 21
-321.9769999999999
 31
0.0
  0
LINE
  5
74
330
17
100
AcDbEntity
  8
0
100
AcDbLine
 10
173.7899999999999
 20
-321.9769999999999
 30
0.0
 11
173.9539999999999
 21
-322.07499999999993
 31
0.0
  0
LINE
  5
75
330
17
100
AcDbEntity
  8
0
100
AcDbLine
 10
173.9539999999999
 20
-322.07499999999993
 30
0.0
 11
174.1279999999999
 21
-322.15799999999996
 31
0.0
  0
LINE
  5
76
330
17
100
AcDbEntity
  8
0
100
AcDbLine
 10
174.1279999999999
 20
-322.15799999999996
 30
0.0
 11
174.3099999999999
 21
-322.22399999999993
 31
0.0
  0
LINE
  5
77
330
17
100
AcDbEntity
  8
0
100
AcDbLine
 10
174.3099999999999
 20
-322.22399999999993
 30
0.0
 11
174.4999999999999
 21
-322.27199999999993
 31
0.0
  0
LINE
  5
78
330
17
100
AcDbEntity
  8
0
100
AcDbLine
 10
174.4999999999999
 20
-322.27199999999993
 30
0.0
 11
174.6969999999999
 21
-322.30099999999993
 31
0.0
  0
LINE
  5
79
330
17
100
AcDbEntity
  8
0
100
AcDbLine
 10
174.6969999999999
 20
-322.30099999999993
 30
0.0
 11
213.6219999999999
 21
-322.4339999999999
 31
0.0
  0
LINE
  5
7A
330
17
100
AcDbEntity
  8
0
100
AcDbLine
 10
213.6219999999999
 20
-322.4339999999999
 30
0.0
 11
214.9639999999999
 21
-322.6929999999999
 31
0.0
  0
LINE
  5
7B
330
17
100
AcDbEntity
  8
0
100
AcDbLine
 10
214.9639999999999
 20
-322.6929999999999
 30
0.0
 11
215.7179999999999
 21
-322.92099999999994
 31
0.0
  0
LINE
  5
7C
330
17
100
AcDbEntity
  8
0
100
AcDbLine
 10
215.7179999999999
 20
-322.92099999999994
 30
0.0
 11
216.5329999999999
 21
-323.23299999999995
 31
0.0
  0
LINE
  5
7D
330
17
100
AcDbEntity
  8
0
100
AcDbLine
 10
216.5329999999999
 20
-323.23299999999995
 30
0.0
 11
217.3239999999999
 21
-323.60599999999994
 31
0.0
  0
LINE
  5
7E
330
17
100
AcDbEntity
  8
0
100
AcDbLine
 10
217.3239999999999
 20
-323.60599999999994
 30
0.0
 11
218.0849999999999
 21
-324.03799999999995
 31
0.0
  0
LINE
  5
7F
330
17
100
AcDbEntity
  8
0
100
AcDbLine
 10
218.0849999999999
 20
-324.03799999999995
 30
0.0
 11
218.8109999999999
 21
-324.52699999999993
 31
0.0
  0
LINE
  5
80
330
17
100
AcDbEntity
  8
0
100
AcDbLine
 10
218.8109999999999
 20
-324.52699999999993
 30
0.0
 11
219.4949999999999
 21
-325.0709999999999
 31
0.0
  0
LINE
  5
81
330
17
100
AcDbEntity
  8
0
100
AcDbLine
 10
219.4949999999999
 20
-325.0709999999999
 30
0.0
 11
220.1319999999999
 21
-325.6679999999999
 31
0.0
  0
LINE
  5
82
330
17
100
AcDbEntity
  8
0
100
AcDbLine
 10
220.1319999999999
 20
-325.6679999999999
 30
0.0
 11
220.7149999999999
 21
-326.3169999999999
 31
0.0
  0
LINE
  5
83
330
17
100
AcDbEntity
  8
0
100
AcDbLine
 10
220.7149999999999
 20
-326.3169999999999
 30
0.0
 11
221.37399999999988
 21
-327.20499999999987
 31
0.0
  0
LINE
  5
84
330
17
100
AcDbEntity
  8
0
100
AcDbLine
 10
221.37399999999988
 20
-327.20499999999987
 30
0.0
 11
222.02699999999987
 21
-328.35399999999987
 31
0.0
  0
LINE
  5
85
330
17
100
AcDbEntity
  8
0
100
AcDbLine
 10
222.02699999999987
 20
-328.35399999999987
 30
0.0
 11
222.52899999999988
 21
-329.5699999999999
 31
0.0
  0
LINE
  5
86
330
17
100
AcDbEntity
  8
0
100
AcDbLine
 10
222.52899999999988
 20
-329.5699999999999
 30
0.0
 11
222.90199999999987
 21
-330.83799999999985
 31
0.0
  0
LINE
  5
87
330
17
100
AcDbEntity
  8
0
100
AcDbLine
 10
222.90199999999987
 20
-330.83799999999985
 30
0.0
 11
223.34299999999988
 21
-333.46699999999987
 31
0.0
  0
LINE
  5
88
330
17
100
AcDbEntity
  8
0
100
AcDbLine
 10
223.34299999999988
 20
-333.46699999999987
 30
0.0
 11
223.55299999999988
 21
-336.91699999999986
 31
0.0
  0
LINE
  5
89
330
17
100
AcDbEntity
  8
0
100
AcDbLine
 10
223.55299999999988
 20
-336.91699999999986
 30
0.0
 11
223.58599999999987
 21
-337.08499999999987
 31
0.0
  0
LINE
  5
8A
330
17
100
AcDbEntity
  8
0
100
AcDbLine
 10
223.58599999999987
 20
-337.08499999999987
 30
0.0
 11
223.63899999999987
 21
-337.2689999999999
 31
0.0
  0
LINE
  5
8B
330
17
100
AcDbEntity
  8
0
100
AcDbLine
 10
223.63899999999987
 20
-337.2689999999999
 30
0.0
 11
223.80199999999988
 21
-337.6699999999999
 31
0.0
  0
LINE
  5
8C
330
17
100
AcDbEntity
  8
0
100
AcDbLine
 10
223.80199999999988
 20
-337.6699999999999
 30
0.0
 11
224.0419999999999
 21
-338.0859999999999
 31
0.0
  0
LINE
  5
8D
330
17
100
AcDbEntity
  8
0
100
AcDbLine
 10
224.0419999999999
 20
-338.0859999999999
 30
0.0
 11
224.1909999999999
 21
-338.2889999999999
 31
0.0
  0
LINE
  5
8E
330
17
100
AcDbEntity
  8
0
100
AcDbLine
 10
224.1909999999999
 20
-338.2889999999999
 30
0.0
 11
224.3589999999999
 21
-338.48399999999987
 31
0.0
  0
LINE
  5
8F
330
17
100
AcDbEntity
  8
0
100
AcDbLine
 10
224.3589999999999
 20
-338.48399999999987
 30
0.0
 11
224.5459999999999
 21
-338.6659999999999
 31
0.0
  0
LINE
  5
90
330
17
100
AcDbEntity
  8
0
100
AcDbLine
 10
224.5459999999999
 20
-338.6659999999999
 30
0.0
 11
224.75099999999992
 21
-338.8309999999999
 31
0.0
  0
LINE
  5
91
330
17
100
AcDbEntity
  8
0
100
AcDbLine
 10
224.75099999999992
 20
-338.8309999999999
 30
0.0
 11
224.9749999999999
 21
-338.9749999999999
 31
0.0
  0
LINE
  5
92
330
17
100
AcDbEntity
  8
0
100
AcDbLine
 10
224.9749999999999
 20
-338.9749999999999
 30
0.0
 11
225.2179999999999
 21
-339.0929999999999
 31
0.0
  0
LINE
  5
93
330
17
100
AcDbEntity
  8
0
100
AcDbLine
 10
225.2179999999999
 20
-339.0929999999999
 30
0.0
 11
225.4799999999999
 21
-339.1819999999999
 31
0.0
  0
LINE
  5
94
330
17
100
AcDbEntity
  8
0
100
AcDbLine
 10
225.4799999999999
 20
-339.1819999999999
 30
0.0
 11
225.7609999999999
 21
-339.2369999999999
 31
0.0
  0
LINE
  5
95
330
17
100
AcDbEntity
  8
0
100
AcDbLine
 10
225.7609999999999
 20
-339.2369999999999
 30
0.0
 11
251.3129999999999
 21
-339.0979999999999
 31
0.0
  0
LINE
  5
96
330
17
100
AcDbEntity
  8
0
100
AcDbLine
 10
251.3129999999999
 20
-339.0979999999999
 30
0.0
 11
251.9029999999999
 21
-338.6429999999999
 31
0.0
  0
LINE
  5
97
330
17
100
AcDbEntity
  8
0
100
AcDbLine
 10
251.9029999999999
 20
-338.6429999999999
 30
0.0
 11
253.60799999999992
 21
-337.53899999999993
 31
0.0
  0
LINE
  5
98
330
17
100
AcDbEntity
  8
0
100
AcDbLine
 10
253.60799999999992
 20
-337.53899999999993
 30
0.0
 11
256.3309999999999
 21
-336.17799999999994
 31
0.0
  0
LINE
  5
99
330
17
100
AcDbEntity
  8
0
100
AcDbLine
 10
256.3309999999999
 20
-336.17799999999994
 30
0.0
 11
258.0439999999999
 21
-335.52399999999994
 31
0.0
  0
LINE
  5
9A
330
17
100
AcDbEntity
  8
0
100
AcDbLine
 10
258.0439999999999
 20
-335.52399999999994
 30
0.0
 11
259.9749999999999
 21
-334.9529999999999
 31
0.0
  0
LINE
  5
9B
330
17
100
AcDbEntity
  8
0
100
AcDbLine
 10
259.9749999999999
 20
-334.9529999999999
 30
0.0
 11
262.1119999999999
 21
-334.5139999999999
 31
0.0
  0
LINE
  5
9C
330
17
100
AcDbEntity
  8
0
100
AcDbLine
 10
262.1119999999999
 20
-334.5139999999999
 30
0.0
 11
264.4419999999999
 21
-334.2559999999999
 31
0.0
  0
LINE
  5
9D
330
17
100
AcDbEntity
  8
0
100
AcDbLine
 10
264.4419999999999
 20
-334.2559999999999
 30
0.0
 11
266.9539999999999
 21
-334.2279999999999
 31
0.0
  0
LINE
  5
9E
330
17
100
AcDbEntity
  8
0
100
AcDbLine
 10
266.9539999999999
 20
-334.2279999999999
 30
0.0
 11
269.6349999999999
 21
-334.47899999999987
 31
0.0
  0
LINE
  5
9F
330
17
100
AcDbEntity
  8
0
100
AcDbLine
 10
269.6349999999999
 20
-334.47899999999987
 30
0.0
 11
272.4729999999999
 21
-335.0579999999999
 31
0.0
  0
LINE
  5
A0
330
17
100
AcDbEntity
  8
0
100
AcDbLine
 10
272.4729999999999
 20
-335.0579999999999
 30
0.0
 11
275.4559999999999
 21
-336.0139999999999
 31
0.0
  0
LINE
  5
A1
330
17
100
AcDbEntity
  8
0
100
AcDbLine
 10
275.4559999999999
 20
-336.0139999999999
 30
0.0
 11
278.5709999999999
 21
-337.3969999999999
 31
0.0
  0
LINE
  5
A2
330
17
100
AcDbEntity
  8
0
100
AcDbLine
 10
278.5709999999999
 20
-337.3969999999999
 30
0.0
 11
281.8069999999999
 21
-339.2549999999999
 31
0.0
  0
LINE
  5
A3
330
17
100
AcDbEntity
  8
0
100
AcDbLine
 10
281.8069999999999
 20
-339.2549999999999
 30
0.0
 11
417.5869999999999
 21
-339.2329999999999
 31
0.0
  0
LINE
  5
A4
330
17
100
AcDbEntity
  8
0
100
AcDbLine
 10
417.5869999999999
 20
-339.2329999999999
 30
0.0
 11
417.9659999999999
 21
-339.1709999999999
 31
0.0
  0
LINE
  5
A5
330
17
100
AcDbEntity
  8
0
100
AcDbLine
 10
417.9659999999999
 20
-339.1709999999999
 30
0.0
 11
418.3359999999999
 21
-339.07099999999986
 31
0.0
  0
LINE
  5
A6
330
17
100
AcDbEntity
  8
0
100
AcDbLine
 10
418.3359999999999
 20
-339.07099999999986
 30
0.0
 11
418.6929999999999
 21
-338.93399999999986
 31
0.0
  0
LINE
  5
A7
330
17
100
AcDbEntity
  8
0
100
AcDbLine
 10
418.6929999999999
 20
-338.93399999999986
 30
0.0
 11
419.0349999999999
 21
-338.76199999999983
 31
0.0
  0
LINE
  5
A8
330
17
100
AcDbEntity
  8
0
100
AcDbLine
 10
419.0349999999999
 20
-338.76199999999983
 30
0.0
 11
419.3589999999999
 21
-338.55699999999985
 31
0.0
  0
LINE
  5
A9
330
17
100
AcDbEntity
  8
0
100
AcDbLine
 10
419.3589999999999
 20
-338.55699999999985
 30
0.0
 11
419.6629999999999
 21
-338.3199999999998
 31
0.0
  0
LINE
  5
AA
330
17
100
AcDbEntity
  8
0
100
AcDbLine
 10
419.6629999999999
 20
-338.3199999999998
 30
0.0
 11
421.4489999999999
 21
-336.5169999999998
 31
0.0
  0
LINE
  5
AB
330
17
100
AcDbEntity
  8
0
100
AcDbLine
 10
421.4489999999999
 20
-336.5169999999998
 30
0.0
 11
421.9039999999999
 21
-336.16799999999984
 31
0.0
  0
LINE
  5
AC
330
17
100
AcDbEntity
  8
0
100
AcDbLine
 10
421.9039999999999
 20
-336.16799999999984
 30
0.0
 11
422.3899999999999
 21
-335.86999999999983
 31
0.0
  0
LINE
  5
AD
330
17
100
AcDbEntity
  8
0
100
AcDbLine
 10
422.3899999999999
 20
-335.86999999999983
 30
0.0
 11
422.9019999999999
 21
-335.6229999999998
 31
0.0
  0
LINE
  5
AE
330
17
100
AcDbEntity
  8
0
100
AcDbLine
 10
422.9019999999999
 20
-335.6229999999998
 30
0.0
 11
423.4369999999999
 21
-335.42999999999984
 31
0.0
  0
LINE
  5
AF
330
17
100
AcDbEntity
  8
0
100
AcDbLine
 10
423.4369999999999
 20
-335.42999999999984
 30
0.0
 11
423.9899999999999
 21
-335.29299999999984
 31
0.0
  0
LINE
  5
B0
330
17
100
AcDbEntity
  8
0
100
AcDbLine
 10
423.9899999999999
 20
-335.29299999999984
 30
0.0
 11
424.5569999999999
 21
-335.21299999999985
 31
0.0
  0
LINE
  5
B1
330
17
100
AcDbEntity
  8
0
100
AcDbLine
 10
424.5569999999999
 20
-335.21299999999985
 30
0.0
 11
443.9009999999999
 21
-335.2599999999999
 31
0.0
  0
LINE
  5
B2
330
17
100
AcDbEntity
  8
0
100
AcDbLine
 10
443.9009999999999
 20
-335.2599999999999
 30
0.0
 11
444.0109999999999
 21
-336.1919999999999
 31
0.0
  0
LINE
  5
B3
330
17
100
AcDbEntity
  8
0
100
AcDbLine
 10
444.0109999999999
 20
-336.1919999999999
 30
0.0
 11
444.0829999999999
 21
-336.4899999999999
 31
0.0
  0
LINE
  5
B4
330
17
100
AcDbEntity
  8
0
100
AcDbLine
 10
444.0829999999999
 20
-336.4899999999999
 30
0.0
 11
444.1799999999999
 21
-336.7809999999999
 31
0.0
  0
LINE
  5
B5
330
17
100
AcDbEntity
  8
0
100
AcDbLine
 10
444.1799999999999
 20
-336.7809999999999
 30
0.0
 11
444.3009999999999
 21
-337.0629999999999
 31
0.0
  0
LINE
  5
B6
330
17
100
AcDbEntity
  8
0
100
AcDbLine
 10
444.3009999999999
 20
-337.0629999999999
 30
0.0
 11
444.4449999999999
 21
-337.3339999999999
 31
0.0
  0
LINE
  5
B7
330
17
100
AcDbEntity
  8
0
100
AcDbLine
 10
444.4449999999999
 20
-337.3339999999999
 30
0.0
 11
444.6099999999999
 21
-337.5929999999999
 31
0.0
  0
LINE
  5
B8
330
17
100
AcDbEntity
  8
0
100
AcDbLine
 10
444.6099999999999
 20
-337.5929999999999
 30
0.0
 11
444.7949999999999
 21
-337.83699999999993
 31
0.0
  0
LINE
  5
B9
330
17
100
AcDbEntity
  8
0
100
AcDbLine
 10
444.7949999999999
 20
-337.83699999999993
 30
0.0
 11
444.9979999999999
 21
-338.0639999999999
 31
0.0
  0
LINE
  5
BA
330
17
100
AcDbEntity
  8
0
100
AcDbLine
 10
444.9979999999999
 20
-338.0639999999999
 30
0.0
 11
445.2179999999999
 21
-338.27199999999993
 31
0.0
  0
LINE
  5
BB
330
17
100
AcDbEntity
  8
0
100
AcDbLine
 10
445.2179999999999
 20
-338.27199999999993
 30
0.0
 11
445.4539999999999
 21
-338.45899999999995
 31
0.0
  0
LINE
  5
BC
330
17
100
AcDbEntity
  8
0
100
AcDbLine
 10
445.4539999999999
 20
-338.45899999999995
 30
0.0
 11
445.70499999999987
 21
-338.62299999999993
 31
0.0
  0
LINE
  5
BD
330
17
100
AcDbEntity
  8
0
100
AcDbLine
 10
445.70499999999987
 20
-338.62299999999993
 30
0.0
 11
445.9689999999999
 21
-338.76199999999994
 31
0.0
  0
LINE
  5
BE
330
17
100
AcDbEntity
  8
0
100
AcDbLine
 10
445.9689999999999
 20
-338.76199999999994
 30
0.0
 11
446.2449999999999
 21
-338.87399999999997
 31
0.0
  0
LINE
  5
BF
330
17
100
AcDbEntity
  8
0
100
AcDbLine
 10
446.2449999999999
 20
-338.87399999999997
 30
0.0
 11
446.5309999999999
 21
-338.957
 31
0.0
  0
LINE
  5
C0
330
17
100
AcDbEntity
  8
0
100
AcDbLine
 10
446.5309999999999
 20
-338.957
 30
0.0
 11
446.8259999999999
 21
-339.009
 31
0.0
  0
LINE
  5
C1
330
17
100
AcDbEntity
  8
0
100
AcDbLine
 10
446.8259999999999
 20
-339.009
 30
0.0
 11
488.16599999999994
 21
-338.933
 31
0.0
  0
LINE
  5
C2
330
17
100
AcDbEntity
  8
0
100
AcDbLine
 10
488.16599999999994
 20
-338.933
 30
0.0
 11
471.0609999999999
 21
-290.57099999999997
 31
0.0
  0
LINE
  5
C3
330
17
100
AcDbEntity
  8
0
100
AcDbLine
 10
608.914
 20
-337.28599999999994
 30
0.0
 11
592.735
 21
-290.57199999999995
 31
0.0
  0
LINE
  5
C4
330
17
100
AcDbEntity
  8
0
100
AcDbLine
 10
592.735
 20
-290.57199999999995
 30
0.0
 11
600.8290000000001
 21
-291.27299999999997
 31
0.0
  0
LINE
  5
C5
330
17
100
AcDbEntity
  8
0
100
AcDbLine
 10
600.8290000000001
 20
-291.27299999999997
 30
0.0
 11
601.1250000000001
 21
-291.33099999999996
 31
0.0
  0
LINE
  5
C6
330
17
100
AcDbEntity
  8
0
100
AcDbLine
 10
601.1250000000001
 20
-291.33099999999996
 30
0.0
 11
601.4140000000001
 21
-291.40999999999997
 31
0.0
  0
LINE
  5
C7
330
17
100
AcDbEntity
  8
0
100
AcDbLine
 10
601.4140000000001
 20
-291.40999999999997
 30
0.0
 11
601.6940000000001
 21
-291.50899999999996
 31
0.0
  0
LINE
  5
C8
330
17
100
AcDbEntity
  8
0
100
AcDbLine
 10
601.6940000000001
 20
-291.50899999999996
 30
0.0
 11
601.965
 21
-291.62699999999995
 31
0.0
  0
LINE
  5
C9
330
17
100
AcDbEntity
  8
0
100
AcDbLine
 10
601.965
 20
-291.62699999999995
 30
0.0
 11
602.226
 21
-291.76399999999995
 31
0.0
  0
LINE
  5
CA
330
17
100
AcDbEntity
  8
0
100
AcDbLine
 10
602.226
 20
-291.76399999999995
 30
0.0
 11
602.476
 21
-291.9189999999999
 31
0.0
  0
LINE
  5
CB
330
17
100
AcDbEntity
  8
0
100
AcDbLine
 10
602.476
 20
-291.9189999999999
 30
0.0
 11
602.715
 21
-292.09099999999995
 31
0.0
  0
LINE
  5
CC
330
17
100
AcDbEntity
  8
0
100
AcDbLine
 10
602.715
 20
-292.09099999999995
 30
0.0
 11
602.941
 21
-292.27899999999994
 31
0.0
  0
LINE
  5
CD
330
17
100
AcDbEntity
  8
0
100
AcDbLine
 10
602.941
 20
-292.27899999999994
 30
0.0
 11
603.153
 21
-292.48299999999995
 31
0.0
  0
LINE
  5
CE
330
17
100
AcDbEntity
  8
0
100
AcDbLine
 10
603.153
 20
-292.48299999999995
 30
0.0
 11
603.351
 21
-292.70199999999994
 31
0.0
  0
LINE
  5
CF
330
17
100
AcDbEntity
  8
0
100
AcDbLine
 10
603.351
 20
-292.70199999999994
 30
0.0
 11
603.533
 21
-292.93499999999995
 31
0.0
  0
LINE
  5
D0
330
17
100
AcDbEntity
  8
0
100
AcDbLine
 10
603.533
 20
-292.93499999999995
 30
0.0
 11
603.6990000000001
 21
-293.18199999999996
 31
0.0
  0
LINE
  5
D1
330
17
100
AcDbEntity
  8
0
100
AcDbLine
 10
603.6990000000001
 20
-293.18199999999996
 30
0.0
 11
603.8480000000001
 21
-293.44199999999995
 31
0.0
  0
LINE
  5
D2
330
17
100
AcDbEntity
  8
0
100
AcDbLine
 10
603.8480000000001
 20
-293.44199999999995
 30
0.0
 11
603.9780000000001
 21
-293.71399999999994
 31
0.0
  0
LINE
  5
D3
330
17
100
AcDbEntity
  8
0
100
AcDbLine
 10
603.9780000000001
 20
-293.71399999999994
 30
0.0
 11
619.3800000000001
 21
-337.56999999999994
 31
0.0
  0
LINE
  5
D4
330
17
100
AcDbEntity
  8
0
100
AcDbLine
 10
619.3800000000001
 20
-337.56999999999994
 30
0.0
 11
608.9140000000001
 21
-337.2869999999999
 31
0.0
  0
LINE
  5
D5
330
17
100
AcDbEntity
  8
0
100
AcDbLine
 10
494.20600000000013
 20
-376.18999999999994
 30
0.0
 11
492.14000000000016
 21
-375.6449999999999
 31
0.0
  0
LINE
  5
D6
330
17
100
AcDbEntity
  8
0
100
AcDbLine
 10
492.14000000000016
 20
-375.6449999999999
 30
0.0
 11
491.75600000000014
 21
-375.49499999999995
 31
0.0
  0
LINE
  5
D7
330
17
100
AcDbEntity
  8
0
100
AcDbLine
 10
491.75600000000014
 20
-375.49499999999995
 30
0.0
 11
491.3890000000001
 21
-375.316
 31
0.0
  0
LINE
  5
D8
330
17
100
AcDbEntity
  8
0
100
AcDbLine
 10
491.3890000000001
 20
-375.316
 30
0.0
 11
491.04000000000013
 21
-375.109
 31
0.0
  0
LINE
  5
D9
330
17
100
AcDbEntity
  8
0
100
AcDbLine
 10
491.04000000000013
 20
-375.109
 30
0.0
 11
490.7110000000001
 21
-374.876
 31
0.0
  0
LINE
  5
DA
330
17
100
AcDbEntity
  8
0
100
AcDbLine
 10
490.7110000000001
 20
-374.876
 30
0.0
 11
490.40300000000013
 21
-374.61899999999997
 31
0.0
  0
LINE
  5
DB
330
17
100
AcDbEntity
  8
0
100
AcDbLine
 10
490.40300000000013
 20
-374.61899999999997
 30
0.0
 11
490.11700000000013
 21
-374.339
 31
0.0
  0
LINE
  5
DC
330
17
100
AcDbEntity
  8
0
100
AcDbLine
 10
490.11700000000013
 20
-374.339
 30
0.0
 11
489.85400000000016
 21
-374.038
 31
0.0
  0
LINE
  5
DD
330
17
100
AcDbEntity
  8
0
100
AcDbLine
 10
489.85400000000016
 20
-374.038
 30
0.0
 11
489.61600000000016
 21
-373.717
 31
0.0
  0
LINE
  5
DE
330
17
100
AcDbEntity
  8
0
100
AcDbLine
 10
489.61600000000016
 20
-373.717
 30
0.0
 11
489.40300000000013
 21
-373.378
 31
0.0
  0
LINE
  5
DF
330
17
100
AcDbEntity
  8
0
100
AcDbLine
 10
489.40300000000013
 20
-373.378
 30
0.0
 11
489.21700000000016
 21
-373.022
 31
0.0
  0
LINE
  5
E0
330
17
100
AcDbEntity
  8
0
100
AcDbLine
 10
489.21700000000016
 20
-373.022
 30
0.0
 11
489.0600000000002
 21
-372.651
 31
0.0
  0
LINE
  5
E1
330
17
100
AcDbEntity
  8
0
100
AcDbLine
 10
489.0600000000002
 20
-372.651
 30
0.0
 11
488.9320000000002
 21
-372.266
 31
0.0
  0
LINE
  5
E2
330
17
100
AcDbEntity
  8
0
100
AcDbLine
 10
488.9320000000002
 20
-372.266
 30
0.0
 11
488.8350000000002
 21
-371.869
 31
0.0
  0
LINE
  5
E3
330
17
100
AcDbEntity
  8
0
100
AcDbLine
 10
488.8350000000002
 20
-371.869
 30
0.0
 11
488.7700000000002
 21
-371.461
 31
0.0
  0
LINE
  5
E4
330
17
100
AcDbEntity
  8
0
100
AcDbLine
 10
488.7700000000002
 20
-371.461
 30
0.0
 11
487.7780000000002
 21
-351.493
 31
0.0
  0
LINE
  5
E5
330
17
100
AcDbEntity
  8
0
100
AcDbLine
 10
487.7780000000002
 20
-351.493
 30
0.0
 11
483.2660000000002
 21
-354.2
 31
0.0
  0
LINE
  5
E6
330
17
100
AcDbEntity
  8
0
100
AcDbLine
 10
483.2660000000002
 20
-354.2
 30
0.0
 11
482.4110000000002
 21
-354.628
 31
0.0
  0
LINE
  5
E7
330
17
100
AcDbEntity
  8
0
100
AcDbLine
 10
482.4110000000002
 20
-354.628
 30
0.0
 11
481.49600000000015
 21
-354.96
 31
0.0
  0
LINE
  5
E8
330
17
100
AcDbEntity
  8
0
100
AcDbLine
 10
481.49600000000015
 20
-354.96
 30
0.0
 11
480.53700000000015
 21
-355.203
 31
0.0
  0
LINE
  5
E9
330
17
100
AcDbEntity
  8
0
100
AcDbLine
 10
480.53700000000015
 20
-355.203
 30
0.0
 11
479.5500000000001
 21
-355.364
 31
0.0
  0
LINE
  5
EA
330
17
100
AcDbEntity
  8
0
100
AcDbLine
 10
479.5500000000001
 20
-355.364
 30
0.0
 11
477.55200000000013
 21
-355.469
 31
0.0
  0
LINE
  5
EB
330
17
100
AcDbEntity
  8
0
100
AcDbLine
 10
477.55200000000013
 20
-355.469
 30
0.0
 11
475.62400000000014
 21
-355.331
 31
0.0
  0
LINE
  5
EC
330
17
100
AcDbEntity
  8
0
100
AcDbLine
 10
475.62400000000014
 20
-355.331
 30
0.0
 11
474.89000000000016
 21
-355.194
 31
0.0
  0
LINE
  5
ED
330
17
100
AcDbEntity
  8
0
100
AcDbLine
 10
474.89000000000016
 20
-355.194
 30
0.0
 11
474.18600000000015
 21
-354.982
 31
0.0
  0
LINE
  5
EE
330
17
100
AcDbEntity
  8
0
100
AcDbLine
 10
474.18600000000015
 20
-354.982
 30
0.0
 11
473.5140000000001
 21
-354.70000000000005
 31
0.0
  0
LINE
  5
EF
330
17
100
AcDbEntity
  8
0
100
AcDbLine
 10
473.5140000000001
 20
-354.70000000000005
 30
0.0
 11
472.8770000000001
 21
-354.35200000000003
 31
0.0
  0
LINE
  5
F0
330
17
100
AcDbEntity
  8
0
100
AcDbLine
 10
472.8770000000001
 20
-354.35200000000003
 30
0.0
 11
472.2770000000001
 21
-353.94500000000005
 31
0.0
  0
LINE
  5
F1
330
17
100
AcDbEntity
  8
0
100
AcDbLine
 10
472.2770000000001
 20
-353.94500000000005
 30
0.0
 11
471.7160000000001
 21
-353.48300000000006
 31
0.0
  0
LINE
  5
F2
330
17
100
AcDbEntity
  8
0
100
AcDbLine
 10
471.7160000000001
 20
-353.48300000000006
 30
0.0
 11
471.19600000000014
 21
-352.97100000000006
 31
0.0
  0
LINE
  5
F3
330
17
100
AcDbEntity
  8
0
100
AcDbLine
 10
471.19600000000014
 20
-352.97100000000006
 30
0.0
 11
470.71900000000016
 21
-352.4150000000001
 31
0.0
  0
LINE
  5
F4
330
17
100
AcDbEntity
  8
0
100
AcDbLine
 10
470.71900000000016
 20
-352.4150000000001
 30
0.0
 11
470.28700000000015
 21
-351.82000000000005
 31
0.0
  0
LINE
  5
F5
330
17
100
AcDbEntity
  8
0
100
AcDbLine
 10
470.28700000000015
 20
-351.82000000000005
 30
0.0
 11
469.90200000000016
 21
-351.19100000000003
 31
0.0
  0
LINE
  5
F6
330
17
100
AcDbEntity
  8
0
100
AcDbLine
 10
469.90200000000016
 20
-351.19100000000003
 30
0.0
 11
469.5670000000002
 21
-350.533
 31
0.0
  0
LINE
  5
F7
330
17
100
AcDbEntity
  8
0
100
AcDbLine
 10
469.5670000000002
 20
-350.533
 30
0.0
 11
469.2830000000002
 21
-349.851
 31
0.0
  0
LINE
  5
F8
330
17
100
AcDbEntity
  8
0
100
AcDbLine
 10
469.2830000000002
 20
-349.851
 30
0.0
 11
469.05300000000017
 21
-349.151
 31
0.0
  0
LINE
  5
F9
330
17
100
AcDbEntity
  8
0
100
AcDbLine
 10
469.05300000000017
 20
-349.151
 30
0.0
 11
468.8790000000002
 21
-348.438
 31
0.0
  0
LINE
  5
FA
330
17
100
AcDbEntity
  8
0
100
AcDbLine
 10
468.8790000000002
 20
-348.438
 30
0.0
 11
468.7630000000002
 21
-347.717
 31
0.0
  0
LINE
  5
FB
330
17
100
AcDbEntity
  8
0
100
AcDbLine
 10
468.7630000000002
 20
-347.717
 30
0.0
 11
468.3870000000002
 21
-343.22299999999996
 31
0.0
  0
LINE
  5
FC
330
17
100
AcDbEntity
  8
0
100
AcDbLine
 10
468.3870000000002
 20
-343.22299999999996
 30
0.0
 11
465.32600000000025
 21
-340.29499999999996
 31
0.0
  0
LINE
  5
FD
330
17
100
AcDbEntity
  8
0
100
AcDbLine
 10
465.32600000000025
 20
-340.29499999999996
 30
0.0
 11
420.60200000000026
 21
-340.21299999999997
 31
0.0
  0
LINE
  5
FE
330
17
100
AcDbEntity
  8
0
100
AcDbLine
 10
420.60200000000026
 20
-340.21299999999997
 30
0.0
 11
422.23200000000026
 21
-341.513
 31
0.0
  0
LINE
  5
FF
330
17
100
AcDbEntity
  8
0
100
AcDbLine
 10
422.23200000000026
 20
-341.513
 30
0.0
 11
422.87200000000024
 21
-342.14799999999997
 31
0.0
  0
LINE
  5
100
330
17
100
AcDbEntity
  8
0
100
AcDbLine
 10
422.87200000000024
 20
-342.14799999999997
 30
0.0
 11
423.45500000000027
 21
-342.832
 31
0.0
  0
LINE
  5
101
330
17
100
AcDbEntity
  8
0
100
AcDbLine
 10
423.45500000000027
 20
-342.832
 30
0.0
 11
423.9780000000003
 21
-343.561
 31
0.0
  0
LINE
  5
102
330
17
100
AcDbEntity
  8
0
100
AcDbLine
 10
423.9780000000003
 20
-343.561
 30
0.0
 11
424.4380000000003
 21
-344.33099999999996
 31
0.0
  0
LINE
  5
103
330
17
100
AcDbEntity
  8
0
100
AcDbLine
 10
424.4380000000003
 20
-344.33099999999996
 30
0.0
 11
424.83300000000025
 21
-345.138
 31
0.0
  0
LINE
  5
104
330
17
100
AcDbEntity
  8
0
100
AcDbLine
 10
424.83300000000025
 20
-345.138
 30
0.0
 11
425.16000000000025
 21
-345.97799999999995
 31
0.0
  0
LINE
  5
105
330
17
100
AcDbEntity
  8
0
100
AcDbLine
 10
425.16000000000025
 20
-345.97799999999995
 30
0.0
 11
429.43200000000024
 21
-363.03899999999993
 31
0.0
  0
LINE
  5
106
330
17
100
AcDbEntity
  8
0
100
AcDbLine
 10
429.43200000000024
 20
-363.03899999999993
 30
0.0
 11
429.46800000000025
 21
-363.56699999999995
 31
0.0
  0
LINE
  5
107
330
17
100
AcDbEntity
  8
0
100
AcDbLine
 10
429.46800000000025
 20
-363.56699999999995
 30
0.0
 11
429.44300000000027
 21
-364.0849999999999
 31
0.0
  0
LINE
  5
108
330
17
100
AcDbEntity
  8
0
100
AcDbLine
 10
429.44300000000027
 20
-364.0849999999999
 30
0.0
 11
429.36000000000024
 21
-364.58899999999994
 31
0.0
  0
LINE
  5
109
330
17
100
AcDbEntity
  8
0
100
AcDbLine
 10
429.36000000000024
 20
-364.58899999999994
 30
0.0
 11
429.22200000000026
 21
-365.07499999999993
 31
0.0
  0
LINE
  5
10A
330
17
100
AcDbEntity
  8
0
100
AcDbLine
 10
429.22200000000026
 20
-365.07499999999993
 30
0.0
 11
429.03200000000027
 21
-365.53899999999993
 31
0.0
  0
LINE
  5
10B
330
17
100
AcDbEntity
  8
0
100
AcDbLine
 10
429.03200000000027
 20
-365.53899999999993
 30
0.0
 11
428.7930000000003
 21
-365.97799999999995
 31
0.0
  0
LINE
  5
10C
330
17
100
AcDbEntity
  8
0
100
AcDbLine
 10
428.7930000000003
 20
-365.97799999999995
 30
0.0
 11
428.50800000000027
 21
-366.38699999999994
 31
0.0
  0
LINE
  5
10D
330
17
100
AcDbEntity
  8
0
100
AcDbLine
 10
428.50800000000027
 20
-366.38699999999994
 30
0.0
 11
428.1800000000003
 21
-366.7629999999999
 31
0.0
  0
LINE
  5
10E
330
17
100
AcDbEntity
  8
0
100
AcDbLine
 10
428.1800000000003
 20
-366.7629999999999
 30
0.0
 11
427.8120000000003
 21
-367.10099999999994
 31
0.0
  0
LINE
  5
10F
330
17
100
AcDbEntity
  8
0
100
AcDbLine
 10
427.8120000000003
 20
-367.10099999999994
 30
0.0
 11
427.4080000000003
 21
-367.39799999999997
 31
0.0
  0
LINE
  5
110
330
17
100
AcDbEntity
  8
0
100
AcDbLine
 10
427.4080000000003
 20
-367.39799999999997
 30
0.0
 11
426.9700000000003
 21
-367.65
 31
0.0
  0
LINE
  5
111
330
17
100
AcDbEntity
  8
0
100
AcDbLine
 10
426.9700000000003
 20
-367.65
 30
0.0
 11
426.5010000000003
 21
-367.85299999999995
 31
0.0
  0
LINE
  5
112
330
17
100
AcDbEntity
  8
0
100
AcDbLine
 10
426.5010000000003
 20
-367.85299999999995
 30
0.0
 11
426.00500000000034
 21
-368.00299999999993
 31
0.0
  0
LINE
  5
113
330
17
100
AcDbEntity
  8
0
100
AcDbLine
 10
426.00500000000034
 20
-368.00299999999993
 30
0.0
 11
425.4840000000003
 21
-368.09599999999995
 31
0.0
  0
LINE
  5
114
330
17
100
AcDbEntity
  8
0
100
AcDbLine
 10
425.4840000000003
 20
-368.09599999999995
 30
0.0
 11
373.7810000000003
 21
-368.10699999999997
 31
0.0
  0
LINE
  5
115
330
17
100
AcDbEntity
  8
0
100
AcDbLine
 10
373.7810000000003
 20
-368.10699999999997
 30
0.0
 11
373.2930000000003
 21
-368.046
 31
0.0
  0
LINE
  5
116
330
17
100
AcDbEntity
  8
0
100
AcDbLine
 10
373.2930000000003
 20
-368.046
 30
0.0
 11
372.8170000000003
 21
-367.94599999999997
 31
0.0
  0
LINE
  5
117
330
17
100
AcDbEntity
  8
0
100
AcDbLine
 10
372.8170000000003
 20
-367.94599999999997
 30
0.0
 11
372.35400000000027
 21
-367.808
 31
0.0
  0
LINE
  5
118
330
17
100
AcDbEntity
  8
0
100
AcDbLine
 10
372.35400000000027
 20
-367.808
 30
0.0
 11
371.90700000000027
 21
-367.634
 31
0.0
  0
LINE
  5
119
330
17
100
AcDbEntity
  8
0
100
AcDbLine
 10
371.90700000000027
 20
-367.634
 30
0.0
 11
371.47700000000026
 21
-367.425
 31
0.0
  0
LINE
  5
11A
330
17
100
AcDbEntity
  8
0
100
AcDbLine
 10
371.47700000000026
 20
-367.425
 30
0.0
 11
371.06600000000026
 21
-367.183
 31
0.0
  0
LINE
  5
11B
330
17
100
AcDbEntity
  8
0
100
AcDbLine
 10
371.06600000000026
 20
-367.183
 30
0.0
 11
370.67700000000025
 21
-366.90999999999997
 31
0.0
  0
LINE
  5
11C
330
17
100
AcDbEntity
  8
0
100
AcDbLine
 10
370.67700000000025
 20
-366.90999999999997
 30
0.0
 11
370.31100000000026
 21
-366.606
 31
0.0
  0
LINE
  5
11D
330
17
100
AcDbEntity
  8
0
100
AcDbLine
 10
370.31100000000026
 20
-366.606
 30
0.0
 11
369.97000000000025
 21
-366.274
 31
0.0
  0
LINE
  5
11E
330
17
100
AcDbEntity
  8
0
100
AcDbLine
 10
369.97000000000025
 20
-366.274
 30
0.0
 11
369.65600000000023
 21
-365.914
 31
0.0
  0
LINE
  5
11F
330
17
100
AcDbEntity
  8
0
100
AcDbLine
 10
369.65600000000023
 20
-365.914
 30
0.0
 11
369.37000000000023
 21
-365.52799999999996
 31
0.0
  0
LINE
  5
120
330
17
100
AcDbEntity
  8
0
100
AcDbLine
 10
369.37000000000023
 20
-365.52799999999996
 30
0.0
 11
369.11500000000024
 21
-365.11799999999994
 31
0.0
  0
LINE
  5
121
330
17
100
AcDbEntity
  8
0
100
AcDbLine
 10
369.11500000000024
 20
-365.11799999999994
 30
0.0
 11
368.89300000000026
 21
-364.68499999999995
 31
0.0
  0
LINE
  5
122
330
17
100
AcDbEntity
  8
0
100
AcDbLine
 10
368.89300000000026
 20
-364.68499999999995
 30
0.0
 11
368.70500000000027
 21
-364.23099999999994
 31
0.0
  0
LINE
  5
123
330
17
100
AcDbEntity
  8
0
100
AcDbLine
 10
368.70500000000027
 20
-364.23099999999994
 30
0.0
 11
365.4950000000003
 21
-352.55799999999994
 31
0.0
  0
LINE
  5
124
330
17
100
AcDbEntity
  8
0
100
AcDbLine
 10
365.4950000000003
 20
-352.55799999999994
 30
0.0
 11
365.4210000000003
 21
-343.3859999999999
 31
0.0
  0
LINE
  5
125
330
17
100
AcDbEntity
  8
0
100
AcDbLine
 10
365.4210000000003
 20
-343.3859999999999
 30
0.0
 11
365.37800000000027
 21
-343.11599999999993
 31
0.0
  0
LINE
  5
126
330
17
100
AcDbEntity
  8
0
100
AcDbLine
 10
365.37800000000027
 20
-343.11599999999993
 30
0.0
 11
365.30900000000025
 21
-342.8549999999999
 31
0.0
  0
LINE
  5
127
330
17
100
AcDbEntity
  8
0
100
AcDbLine
 10
365.30900000000025
 20
-342.8549999999999
 30
0.0
 11
365.21600000000024
 21
-342.6049999999999
 31
0.0
  0
LINE
  5
128
330
17
100
AcDbEntity
  8
0
100
AcDbLine
 10
365.21600000000024
 20
-342.6049999999999
 30
0.0
 11
365.10000000000025
 21
-342.3679999999999
 31
0.0
  0
LINE
  5
129
330
17
100
AcDbEntity
  8
0
100
AcDbLine
 10
365.10000000000025
 20
-342.3679999999999
 30
0.0
 11
364.9620000000003
 21
-342.1439999999999
 31
0.0
  0
LINE
  5
12A
330
17
100
AcDbEntity
  8
0
100
AcDbLine
 10
364.9620000000003
 20
-342.1439999999999
 30
0.0
 11
364.80400000000026
 21
-341.9349999999999
 31
0.0
  0
LINE
  5
12B
330
17
100
AcDbEntity
  8
0
100
AcDbLine
 10
364.80400000000026
 20
-341.9349999999999
 30
0.0
 11
364.62700000000024
 21
-341.7429999999999
 31
0.0
  0
LINE
  5
12C
330
17
100
AcDbEntity
  8
0
100
AcDbLine
 10
364.62700000000024
 20
-341.7429999999999
 30
0.0
 11
364.43200000000024
 21
-341.5689999999999
 31
0.0
  0
LINE
  5
12D
330
17
100
AcDbEntity
  8
0
100
AcDbLine
 10
364.43200000000024
 20
-341.5689999999999
 30
0.0
 11
364.22100000000023
 21
-341.41399999999993
 31
0.0
  0
LINE
  5
12E
330
17
100
AcDbEntity
  8
0
100
AcDbLine
 10
364.22100000000023
 20
-341.41399999999993
 30
0.0
 11
363.99500000000023
 21
-341.27899999999994
 31
0.0
  0
LINE
  5
12F
330
17
100
AcDbEntity
  8
0
100
AcDbLine
 10
363.99500000000023
 20
-341.27899999999994
 30
0.0
 11
363.75600000000026
 21
-341.16599999999994
 31
0.0
  0
LINE
  5
130
330
17
100
AcDbEntity
  8
0
100
AcDbLine
 10
363.75600000000026
 20
-341.16599999999994
 30
0.0
 11
363.5050000000003
 21
-341.07599999999996
 31
0.0
  0
LINE
  5
131
330
17
100
AcDbEntity
  8
0
100
AcDbLine
 10
363.5050000000003
 20
-341.07599999999996
 30
0.0
 11
363.2430000000003
 21
-341.01099999999997
 31
0.0
  0
LINE
  5
132
330
17
100
AcDbEntity
  8
0
100
AcDbLine
 10
363.2430000000003
 20
-341.01099999999997
 30
0.0
 11
362.97200000000026
 21
-340.972
 31
0.0
  0
LINE
  5
133
330
17
100
AcDbEntity
  8
0
100
AcDbLine
 10
362.97200000000026
 20
-340.972
 30
0.0
 11
275.72700000000026
 21
-340.075
 31
0.0
  0
LINE
  5
134
330
17
100
AcDbEntity
  8
0
100
AcDbLine
 10
275.72700000000026
 20
-340.075
 30
0.0
 11
275.48000000000025
 21
-340.097
 31
0.0
  0
LINE
  5
135
330
17
100
AcDbEntity
  8
0
100
AcDbLine
 10
275.48000000000025
 20
-340.097
 30
0.0
 11
275.23500000000024
 21
-340.13599999999997
 31
0.0
  0
LINE
  5
136
330
17
100
AcDbEntity
  8
0
100
AcDbLine
 10
275.23500000000024
 20
-340.13599999999997
 30
0.0
 11
272.87900000000025
 21
-340.80499999999995
 31
0.0
  0
LINE
  5
137
330
17
100
AcDbEntity
  8
0
100
AcDbLine
 10
272.87900000000025
 20
-340.80499999999995
 30
0.0
 11
272.78100000000023
 21
-340.81899999999996
 31
0.0
  0
LINE
  5
138
330
17
100
AcDbEntity
  8
0
100
AcDbLine
 10
272.78100000000023
 20
-340.81899999999996
 30
0.0
 11
225.32400000000024
 21
-341.09999999999997
 31
0.0
  0
LINE
  5
139
330
17
100
AcDbEntity
  8
0
100
AcDbLine
 10
225.32400000000024
 20
-341.09999999999997
 30
0.0
 11
225.28800000000024
 21
-341.10599999999994
 31
0.0
  0
LINE
  5
13A
330
17
100
AcDbEntity
  8
0
100
AcDbLine
 10
225.28800000000024
 20
-341.10599999999994
 30
0.0
 11
225.25400000000025
 21
-341.11499999999995
 31
0.0
  0
LINE
  5
13B
330
17
100
AcDbEntity
  8
0
100
AcDbLine
 10
225.25400000000025
 20
-341.11499999999995
 30
0.0
 11
225.22100000000026
 21
-341.12699999999995
 31
0.0
  0
LINE
  5
13C
330
17
100
AcDbEntity
  8
0
100
AcDbLine
 10
225.22100000000026
 20
-341.12699999999995
 30
0.0
 11
225.19000000000025
 21
-341.14199999999994
 31
0.0
  0
LINE
  5
13D
330
17
100
AcDbEntity
  8
0
100
AcDbLine
 10
225.19000000000025
 20
-341.14199999999994
 30
0.0
 11
225.16100000000026
 21
-341.1599999999999
 31
0.0
  0
LINE
  5
13E
330
17
100
AcDbEntity
  8
0
100
AcDbLine
 10
225.16100000000026
 20
-341.1599999999999
 30
0.0
 11
225.13400000000027
 21
-341.1809999999999
 31
0.0
  0
LINE
  5
13F
330
17
100
AcDbEntity
  8
0
100
AcDbLine
 10
225.13400000000027
 20
-341.1809999999999
 30
0.0
 11
225.10900000000026
 21
-341.2049999999999
 31
0.0
  0
LINE
  5
140
330
17
100
AcDbEntity
  8
0
100
AcDbLine
 10
225.10900000000026
 20
-341.2049999999999
 30
0.0
 11
225.08600000000027
 21
-341.23099999999994
 31
0.0
  0
LINE
  5
141
330
17
100
AcDbEntity
  8
0
100
AcDbLine
 10
225.08600000000027
 20
-341.23099999999994
 30
0.0
 11
225.06600000000026
 21
-341.25899999999996
 31
0.0
  0
LINE
  5
142
330
17
100
AcDbEntity
  8
0
100
AcDbLine
 10
225.06600000000026
 20
-341.25899999999996
 30
0.0
 11
225.04900000000026
 21
-341.28899999999993
 31
0.0
  0
LINE
  5
143
330
17
100
AcDbEntity
  8
0
100
AcDbLine
 10
225.04900000000026
 20
-341.28899999999993
 30
0.0
 11
225.03500000000025
 21
-341.3209999999999
 31
0.0
  0
LINE
  5
144
330
17
100
AcDbEntity
  8
0
100
AcDbLine
 10
225.03500000000025
 20
-341.3209999999999
 30
0.0
 11
225.02400000000026
 21
-341.3539999999999
 31
0.0
  0
LINE
  5
145
330
17
100
AcDbEntity
  8
0
100
AcDbLine
 10
225.02400000000026
 20
-341.3539999999999
 30
0.0
 11
225.01600000000025
 21
-341.38899999999995
 31
0.0
  0
LINE
  5
146
330
17
100
AcDbEntity
  8
0
100
AcDbLine
 10
225.01600000000025
 20
-341.38899999999995
 30
0.0
 11
225.01100000000025
 21
-341.42499999999995
 31
0.0
  0
LINE
  5
147
330
17
100
AcDbEntity
  8
0
100
AcDbLine
 10
225.01100000000025
 20
-341.42499999999995
 30
0.0
 11
225.56500000000025
 21
-362.84999999999997
 31
0.0
  0
LINE
  5
148
330
17
100
AcDbEntity
  8
0
100
AcDbLine
 10
225.56500000000025
 20
-362.84999999999997
 30
0.0
 11
225.62500000000026
 21
-363.195
 31
0.0
  0
LINE
  5
149
330
17
100
AcDbEntity
  8
0
100
AcDbLine
 10
225.62500000000026
 20
-363.195
 30
0.0
 11
225.71600000000026
 21
-363.529
 31
0.0
  0
LINE
  5
14A
330
17
100
AcDbEntity
  8
0
100
AcDbLine
 10
225.71600000000026
 20
-363.529
 30
0.0
 11
225.83700000000027
 21
-363.849
 31
0.0
  0
LINE
  5
14B
330
17
100
AcDbEntity
  8
0
100
AcDbLine
 10
225.83700000000027
 20
-363.849
 30
0.0
 11
225.98700000000028
 21
-364.154
 31
0.0
  0
LINE
  5
14C
330
17
100
AcDbEntity
  8
0
100
AcDbLine
 10
225.98700000000028
 20
-364.154
 30
0.0
 11
226.16300000000027
 21
-364.442
 31
0.0
  0
LINE
  5
14D
330
17
100
AcDbEntity
  8
0
100
AcDbLine
 10
226.16300000000027
 20
-364.442
 30
0.0
 11
226.36500000000026
 21
-364.712
 31
0.0
  0
LINE
  5
14E
330
17
100
AcDbEntity
  8
0
100
AcDbLine
 10
226.36500000000026
 20
-364.712
 30
0.0
 11
226.59000000000026
 21
-364.961
 31
0.0
  0
LINE
  5
14F
330
17
100
AcDbEntity
  8
0
100
AcDbLine
 10
226.59000000000026
 20
-364.961
 30
0.0
 11
226.83700000000027
 21
-365.189
 31
0.0
  0
LINE
  5
150
330
17
100
AcDbEntity
  8
0
100
AcDbLine
 10
226.83700000000027
 20
-365.189
 30
0.0
 11
227.10400000000027
 21
-365.39300000000003
 31
0.0
  0
LINE
  5
151
330
17
100
AcDbEntity
  8
0
100
AcDbLine
 10
227.10400000000027
 20
-365.39300000000003
 30
0.0
 11
227.39000000000027
 21
-365.572
 31
0.0
  0
LINE
  5
152
330
17
100
AcDbEntity
  8
0
100
AcDbLine
 10
227.39000000000027
 20
-365.572
 30
0.0
 11
227.69300000000027
 21
-365.725
 31
0.0
  0
LINE
  5
153
330
17
100
AcDbEntity
  8
0
100
AcDbLine
 10
227.69300000000027
 20
-365.725
 30
0.0
 11
228.01200000000026
 21
-365.85
 31
0.0
  0
LINE
  5
154
330
17
100
AcDbEntity
  8
0
100
AcDbLine
 10
228.01200000000026
 20
-365.85
 30
0.0
 11
228.34500000000025
 21
-365.94500000000005
 31
0.0
  0
LINE
  5
155
330
17
100
AcDbEntity
  8
0
100
AcDbLine
 10
228.34500000000025
 20
-365.94500000000005
 30
0.0
 11
228.69000000000025
 21
-366.00800000000004
 31
0.0
  0
LINE
  5
156
330
17
100
AcDbEntity
  8
0
100
AcDbLine
 10
228.69000000000025
 20
-366.00800000000004
 30
0.0
 11
309.36200000000025
 21
-369.48600000000005
 31
0.0
  0
LINE
  5
157
330
17
100
AcDbEntity
  8
0
100
AcDbLine
 10
309.36200000000025
 20
-369.48600000000005
 30
0.0
 11
314.40100000000024
 21
-370.1580000000001
 31
0.0
  0
LINE
  5
158
330
17
100
AcDbEntity
  8
0
100
AcDbLine
 10
314.40100000000024
 20
-370.1580000000001
 30
0.0
 11
319.2650000000002
 21
-371.3300000000001
 31
0.0
  0
LINE
  5
159
330
17
100
AcDbEntity
  8
0
100
AcDbLine
 10
319.2650000000002
 20
-371.3300000000001
 30
0.0
 11
323.92300000000023
 21
-372.9980000000001
 31
0.0
  0
LINE
  5
15A
330
17
100
AcDbEntity
  8
0
100
AcDbLine
 10
323.92300000000023
 20
-372.9980000000001
 30
0.0
 11
328.3440000000002
 21
-375.1600000000001
 31
0.0
  0
LINE
  5
15B
330
17
100
AcDbEntity
  8
0
100
AcDbLine
 10
328.3440000000002
 20
-375.1600000000001
 30
0.0
 11
332.49700000000024
 21
-377.8130000000001
 31
0.0
  0
LINE
  5
15C
330
17
100
AcDbEntity
  8
0
100
AcDbLine
 10
332.49700000000024
 20
-377.8130000000001
 30
0.0
 11
336.3510000000002
 21
-380.9530000000001
 31
0.0
  0
LINE
  5
15D
330
17
100
AcDbEntity
  8
0
100
AcDbLine
 10
336.3510000000002
 20
-380.9530000000001
 30
0.0
 11
339.8750000000002
 21
-384.5780000000001
 31
0.0
  0
LINE
  5
15E
330
17
100
AcDbEntity
  8
0
100
AcDbLine
 10
339.8750000000002
 20
-384.5780000000001
 30
0.0
 11
341.50400000000025
 21
-386.5710000000001
 31
0.0
  0
LINE
  5
15F
330
17
100
AcDbEntity
  8
0
100
AcDbLine
 10
341.50400000000025
 20
-386.5710000000001
 30
0.0
 11
341.77800000000025
 21
-386.7060000000001
 31
0.0
  0
LINE
  5
160
330
17
100
AcDbEntity
  8
0
100
AcDbLine
 10
341.77800000000025
 20
-386.7060000000001
 30
0.0
 11
446.7430000000003
 21
-386.88000000000005
 31
0.0
  0
LINE
  5
161
330
17
100
AcDbEntity
  8
0
100
AcDbLine
 10
446.7430000000003
 20
-386.88000000000005
 30
0.0
 11
451.1050000000003
 21
-385.56800000000004
 31
0.0
  0
LINE
  5
162
330
17
100
AcDbEntity
  8
0
100
AcDbLine
 10
451.1050000000003
 20
-385.56800000000004
 30
0.0
 11
457.5660000000003
 21
-386.41700000000003
 31
0.0
  0
LINE
  5
163
330
17
100
AcDbEntity
  8
0
100
AcDbLine
 10
457.5660000000003
 20
-386.41700000000003
 30
0.0
 11
459.60100000000034
 21
-386.894
 31
0.0
  0
LINE
  5
164
330
17
100
AcDbEntity
  8
0
100
AcDbLine
 10
459.60100000000034
 20
-386.894
 30
0.0
 11
461.57900000000035
 21
-387.514
 31
0.0
  0
LINE
  5
165
330
17
100
AcDbEntity
  8
0
100
AcDbLine
 10
461.57900000000035
 20
-387.514
 30
0.0
 11
463.49400000000037
 21
-388.273
 31
0.0
  0
LINE
  5
166
330
17
100
AcDbEntity
  8
0
100
AcDbLine
 10
463.49400000000037
 20
-388.273
 30
0.0
 11
465.3390000000004
 21
-389.165
 31
0.0
  0
LINE
  5
167
330
17
100
AcDbEntity
  8
0
100
AcDbLine
 10
465.3390000000004
 20
-389.165
 30
0.0
 11
467.1090000000004
 21
-390.185
 31
0.0
  0
LINE
  5
168
330
17
100
AcDbEntity
  8
0
100
AcDbLine
 10
467.1090000000004
 20
-390.185
 30
0.0
 11
468.79700000000037
 21
-391.327
 31
0.0
  0
LINE
  5
169
330
17
100
AcDbEntity
  8
0
100
AcDbLine
 10
468.79700000000037
 20
-391.327
 30
0.0
 11
470.39600000000036
 21
-392.586
 31
0.0
  0
LINE
  5
16A
330
17
100
AcDbEntity
  8
0
100
AcDbLine
 10
470.39600000000036
 20
-392.586
 30
0.0
 11
471.9000000000004
 21
-393.957
 31
0.0
  0
LINE
  5
16B
330
17
100
AcDbEntity
  8
0
100
AcDbLine
 10
471.9000000000004
 20
-393.957
 30
0.0
 11
473.30400000000037
 21
-395.43399999999997
 31
0.0
  0
LINE
  5
16C
330
17
100
AcDbEntity
  8
0
100
AcDbLine
 10
473.30400000000037
 20
-395.43399999999997
 30
0.0
 11
474.60000000000036
 21
-397.01199999999994
 31
0.0
  0
LINE
  5
16D
330
17
100
AcDbEntity
  8
0
100
AcDbLine
 10
474.60000000000036
 20
-397.01199999999994
 30
0.0
 11
475.78300000000036
 21
-398.6859999999999
 31
0.0
  0
LINE
  5
16E
330
17
100
AcDbEntity
  8
0
100
AcDbLine
 10
475.78300000000036
 20
-398.6859999999999
 30
0.0
 11
476.84600000000034
 21
-400.44999999999993
 31
0.0
  0
LINE
  5
16F
330
17
100
AcDbEntity
  8
0
100
AcDbLine
 10
476.84600000000034
 20
-400.44999999999993
 30
0.0
 11
477.78300000000036
 21
-402.2989999999999
 31
0.0
  0
LINE
  5
170
330
17
100
AcDbEntity
  8
0
100
AcDbLine
 10
477.78300000000036
 20
-402.2989999999999
 30
0.0
 11
478.58700000000033
 21
-404.2279999999999
 31
0.0
  0
LINE
  5
171
330
17
100
AcDbEntity
  8
0
100
AcDbLine
 10
478.58700000000033
 20
-404.2279999999999
 30
0.0
 11
485.0420000000003
 21
-426.1059999999999
 31
0.0
  0
LINE
  5
172
330
17
100
AcDbEntity
  8
0
100
AcDbLine
 10
485.0420000000003
 20
-426.1059999999999
 30
0.0
 11
485.6630000000003
 21
-423.96499999999986
 31
0.0
  0
LINE
  5
173
330
17
100
AcDbEntity
  8
0
100
AcDbLine
 10
485.6630000000003
 20
-423.96499999999986
 30
0.0
 11
486.0500000000003
 21
-423.02299999999985
 31
0.0
  0
LINE
  5
174
330
17
100
AcDbEntity
  8
0
100
AcDbLine
 10
486.0500000000003
 20
-423.02299999999985
 30
0.0
 11
486.4830000000003
 21
-422.16299999999984
 31
0.0
  0
LINE
  5
175
330
17
100
AcDbEntity
  8
0
100
AcDbLine
 10
486.4830000000003
 20
-422.16299999999984
 30
0.0
 11
486.9570000000003
 21
-421.38099999999986
 31
0.0
  0
LINE
  5
176
330
17
100
AcDbEntity
  8
0
100
AcDbLine
 10
486.9570000000003
 20
-421.38099999999986
 30
0.0
 11
487.4680000000003
 21
-420.67299999999983
 31
0.0
  0
LINE
  5
177
330
17
100
AcDbEntity
  8
0
100
AcDbLine
 10
487.4680000000003
 20
-420.67299999999983
 30
0.0
 11
488.0130000000003
 21
-420.03599999999983
 31
0.0
  0
LINE
  5
178
330
17
100
AcDbEntity
  8
0
100
AcDbLine
 10
488.0130000000003
 20
-420.03599999999983
 30
0.0
 11
488.58700000000033
 21
-419.4669999999998
 31
0.0
  0
LINE
  5
179
330
17
100
AcDbEntity
  8
0
100
AcDbLine
 10
488.58700000000033
 20
-419.4669999999998
 30
0.0
 11
489.1860000000003
 21
-418.9619999999998
 31
0.0
  0
LINE
  5
17A
330
17
100
AcDbEntity
  8
0
100
AcDbLine
 10
489.1860000000003
 20
-418.9619999999998
 30
0.0
 11
489.80500000000035
 21
-418.5169999999998
 31
0.0
  0
LINE
  5
17B
330
17
100
AcDbEntity
  8
0
100
AcDbLine
 10
489.80500000000035
 20
-418.5169999999998
 30
0.0
 11
490.4410000000004
 21
-418.12899999999985
 31
0.0
  0
LINE
  5
17C
330
17
100
AcDbEntity
  8
0
100
AcDbLine
 10
490.4410000000004
 20
-418.12899999999985
 30
0.0
 11
491.74700000000036
 21
-417.51099999999985
 31
0.0
  0
LINE
  5
17D
330
17
100
AcDbEntity
  8
0
100
AcDbLine
 10
491.74700000000036
 20
-417.51099999999985
 30
0.0
 11
493.07000000000033
 21
-417.07999999999987
 31
0.0
  0
LINE
  5
17E
330
17
100
AcDbEntity
  8
0
100
AcDbLine
 10
493.07000000000033
 20
-417.07999999999987
 30
0.0
 11
494.3780000000003
 21
-416.80699999999985
 31
0.0
  0
LINE
  5
17F
330
17
100
AcDbEntity
  8
0
100
AcDbLine
 10
494.3780000000003
 20
-416.80699999999985
 30
0.0
 11
495.63700000000034
 21
-416.6659999999998
 31
0.0
  0
LINE
  5
180
330
17
100
AcDbEntity
  8
0
100
AcDbLine
 10
495.63700000000034
 20
-416.6659999999998
 30
0.0
 11
497.87900000000036
 21
-416.66499999999985
 31
0.0
  0
LINE
  5
181
330
17
100
AcDbEntity
  8
0
100
AcDbLine
 10
497.87900000000036
 20
-416.66499999999985
 30
0.0
 11
499.5320000000004
 21
-416.8559999999998
 31
0.0
  0
LINE
  5
182
330
17
100
AcDbEntity
  8
0
100
AcDbLine
 10
499.5320000000004
 20
-416.8559999999998
 30
0.0
 11
500.36900000000037
 21
-417.0249999999998
 31
0.0
  0
LINE
  5
183
330
17
100
AcDbEntity
  8
0
100
AcDbLine
 10
500.36900000000037
 20
-417.0249999999998
 30
0.0
 11
501.05000000000035
 21
-411.6919999999998
 31
0.0
  0
LINE
  5
184
330
17
100
AcDbEntity
  8
0
100
AcDbLine
 10
501.05000000000035
 20
-411.6919999999998
 30
0.0
 11
499.51400000000035
 21
-408.69299999999976
 31
0.0
  0
LINE
  5
185
330
17
100
AcDbEntity
  8
0
100
AcDbLine
 10
499.51400000000035
 20
-408.69299999999976
 30
0.0
 11
497.13100000000037
 21
-402.55699999999973
 31
0.0
  0
LINE
  5
186
330
17
100
AcDbEntity
  8
0
100
AcDbLine
 10
497.13100000000037
 20
-402.55699999999973
 30
0.0
 11
495.5410000000004
 21
-396.46799999999973
 31
0.0
  0
LINE
  5
187
330
17
100
AcDbEntity
  8
0
100
AcDbLine
 10
495.5410000000004
 20
-396.46799999999973
 30
0.0
 11
494.5930000000004
 21
-390.70299999999975
 31
0.0
  0
LINE
  5
188
330
17
100
AcDbEntity
  8
0
100
AcDbLine
 10
494.5930000000004
 20
-390.70299999999975
 30
0.0
 11
494.0170000000004
 21
-381.25299999999976
 31
0.0
  0
LINE
  5
189
330
17
100
AcDbEntity
  8
0
100
AcDbLine
 10
494.0170000000004
 20
-381.25299999999976
 30
0.0
 11
494.2150000000004
 21
-376.1989999999998
 31
0.0
  0
LINE
  5
18A
330
17
100
AcDbEntity
  8
0
100
AcDbLine
 10
549.6620000000004
 20
-366.5129999999998
 30
0.0
 11
580.4640000000004
 21
-365.92299999999983
 31
0.0
  0
LINE
  5
18B
330
17
100
AcDbEntity
  8
0
100
AcDbLine
 10
580.4640000000004
 20
-365.92299999999983
 30
0.0
 11
580.7390000000004
 21
-365.9479999999998
 31
0.0
  0
LINE
  5
18C
330
17
100
AcDbEntity
  8
0
100
AcDbLine
 10
580.7390000000004
 20
-365.9479999999998
 30
0.0
 11
581.0050000000003
 21
-365.9929999999998
 31
0.0
  0
LINE
  5
18D
330
17
100
AcDbEntity
  8
0
100
AcDbLine
 10
581.0050000000003
 20
-365.9929999999998
 30
0.0
 11
581.2620000000003
 21
-366.05699999999985
 31
0.0
  0
LINE
  5
18E
330
17
100
AcDbEntity
  8
0
100
AcDbLine
 10
581.2620000000003
 20
-366.05699999999985
 30
0.0
 11
581.5090000000002
 21
-366.13899999999984
 31
0.0
  0
LINE
  5
18F
330
17
100
AcDbEntity
  8
0
100
AcDbLine
 10
581.5090000000002
 20
-366.13899999999984
 30
0.0
 11
581.7460000000002
 21
-366.23699999999985
 31
0.0
  0
LINE
  5
190
330
17
100
AcDbEntity
  8
0
100
AcDbLine
 10
581.7460000000002
 20
-366.23699999999985
 30
0.0
 11
581.9730000000002
 21
-366.35099999999983
 31
0.0
  0
LINE
  5
191
330
17
100
AcDbEntity
  8
0
100
AcDbLine
 10
581.9730000000002
 20
-366.35099999999983
 30
0.0
 11
582.1890000000002
 21
-366.4809999999998
 31
0.0
  0
LINE
  5
192
330
17
100
AcDbEntity
  8
0
100
AcDbLine
 10
582.1890000000002
 20
-366.4809999999998
 30
0.0
 11
582.3930000000001
 21
-366.62499999999983
 31
0.0
  0
LINE
  5
193
330
17
100
AcDbEntity
  8
0
100
AcDbLine
 10
582.3930000000001
 20
-366.62499999999983
 30
0.0
 11
582.5860000000001
 21
-366.7819999999998
 31
0.0
  0
LINE
  5
194
330
17
100
AcDbEntity
  8
0
100
AcDbLine
 10
582.5860000000001
 20
-366.7819999999998
 30
0.0
 11
582.9340000000001
 21
-367.13199999999983
 31
0.0
  0
LINE
  5
195
330
17
100
AcDbEntity
  8
0
100
AcDbLine
 10
582.9340000000001
 20
-367.13199999999983
 30
0.0
 11
583.229
 21
-367.5249999999998
 31
0.0
  0
LINE
  5
196
330
17
100
AcDbEntity
  8
0
100
AcDbLine
 10
583.229
 20
-367.5249999999998
 30
0.0
 11
583.4680000000001
 21
-367.9529999999998
 31
0.0
  0
LINE
  5
197
330
17
100
AcDbEntity
  8
0
100
AcDbLine
 10
583.4680000000001
 20
-367.9529999999998
 30
0.0
 11
583.648
 21
-368.4089999999998
 31
0.0
  0
LINE
  5
198
330
17
100
AcDbEntity
  8
0
100
AcDbLine
 10
583.648
 20
-368.4089999999998
 30
0.0
 11
583.765
 21
-368.8859999999998
 31
0.0
  0
LINE
  5
199
330
17
100
AcDbEntity
  8
0
100
AcDbLine
 10
583.765
 20
-368.8859999999998
 30
0.0
 11
583.816
 21
-369.3759999999998
 31
0.0
  0
LINE
  5
19A
330
17
100
AcDbEntity
  8
0
100
AcDbLine
 10
583.816
 20
-369.3759999999998
 30
0.0
 11
583.816
 21
-369.6239999999998
 31
0.0
  0
LINE
  5
19B
330
17
100
AcDbEntity
  8
0
100
AcDbLine
 10
583.816
 20
-369.6239999999998
 30
0.0
 11
583.798
 21
-369.8729999999998
 31
0.0
  0
LINE
  5
19C
330
17
100
AcDbEntity
  8
0
100
AcDbLine
 10
583.798
 20
-369.8729999999998
 30
0.0
 11
583.761
 21
-370.12199999999984
 31
0.0
  0
LINE
  5
19D
330
17
100
AcDbEntity
  8
0
100
AcDbLine
 10
583.761
 20
-370.12199999999984
 30
0.0
 11
583.706
 21
-370.36899999999986
 31
0.0
  0
LINE
  5
19E
330
17
100
AcDbEntity
  8
0
100
AcDbLine
 10
583.706
 20
-370.36899999999986
 30
0.0
 11
583.631
 21
-370.61399999999986
 31
0.0
  0
LINE
  5
19F
330
17
100
AcDbEntity
  8
0
100
AcDbLine
 10
583.631
 20
-370.61399999999986
 30
0.0
 11
583.5369999999999
 21
-370.85699999999986
 31
0.0
  0
LINE
  5
1A0
330
17
100
AcDbEntity
  8
0
100
AcDbLine
 10
583.5369999999999
 20
-370.85699999999986
 30
0.0
 11
583.4229999999999
 21
-371.09599999999983
 31
0.0
  0
LINE
  5
1A1
330
17
100
AcDbEntity
  8
0
100
AcDbLine
 10
583.4229999999999
 20
-371.09599999999983
 30
0.0
 11
583.2879999999999
 21
-371.3299999999998
 31
0.0
  0
LINE
  5
1A2
330
17
100
AcDbEntity
  8
0
100
AcDbLine
 10
583.2879999999999
 20
-371.3299999999998
 30
0.0
 11
575.632
 21
-381.2609999999998
 31
0.0
  0
LINE
  5
1A3
330
17
100
AcDbEntity
  8
0
100
AcDbLine
 10
575.632
 20
-381.2609999999998
 30
0.0
 11
572.0799999999999
 21
-387.0639999999998
 31
0.0
  0
LINE
  5
1A4
330
17
100
AcDbEntity
  8
0
100
AcDbLine
 10
572.0799999999999
 20
-387.0639999999998
 30
0.0
 11
570.637
 21
-389.9979999999998
 31
0.0
  0
LINE
  5
1A5
330
17
100
AcDbEntity
  8
0
100
AcDbLine
 10
570.637
 20
-389.9979999999998
 30
0.0
 11
569.0459999999999
 21
-394.25899999999984
 31
0.0
  0
LINE
  5
1A6
330
17
100
AcDbEntity
  8
0
100
AcDbLine
 10
569.0459999999999
 20
-394.25899999999984
 30
0.0
 11
568.842
 21
-394.67299999999983
 31
0.0
  0
LINE
  5
1A7
330
17
100
AcDbEntity
  8
0
100
AcDbLine
 10
568.842
 20
-394.67299999999983
 30
0.0
 11
568.607
 21
-395.0659999999998
 31
0.0
  0
LINE
  5
1A8
330
17
100
AcDbEntity
  8
0
100
AcDbLine
 10
568.607
 20
-395.0659999999998
 30
0.0
 11
568.342
 21
-395.4359999999998
 31
0.0
  0
LINE
  5
1A9
330
17
100
AcDbEntity
  8
0
100
AcDbLine
 10
568.342
 20
-395.4359999999998
 30
0.0
 11
568.05
 21
-395.7819999999998
 31
0.0
  0
LINE
  5
1AA
330
17
100
AcDbEntity
  8
0
100
AcDbLine
 10
568.05
 20
-395.7819999999998
 30
0.0
 11
567.732
 21
-396.1019999999998
 31
0.0
  0
LINE
  5
1AB
330
17
100
AcDbEntity
  8
0
100
AcDbLine
 10
567.732
 20
-396.1019999999998
 30
0.0
 11
567.39
 21
-396.3959999999998
 31
0.0
  0
LINE
  5
1AC
330
17
100
AcDbEntity
  8
0
100
AcDbLine
 10
567.39
 20
-396.3959999999998
 30
0.0
 11
567.026
 21
-396.6619999999998
 31
0.0
  0
LINE
  5
1AD
330
17
100
AcDbEntity
  8
0
100
AcDbLine
 10
567.026
 20
-396.6619999999998
 30
0.0
 11
566.6419999999999
 21
-396.89899999999983
 31
0.0
  0
LINE
  5
1AE
330
17
100
AcDbEntity
  8
0
100
AcDbLine
 10
566.6419999999999
 20
-396.89899999999983
 30
0.0
 11
566.2389999999999
 21
-397.1059999999998
 31
0.0
  0
LINE
  5
1AF
330
17
100
AcDbEntity
  8
0
100
AcDbLine
 10
566.2389999999999
 20
-397.1059999999998
 30
0.0
 11
565.8199999999999
 21
-397.28099999999984
 31
0.0
  0
LINE
  5
1B0
330
17
100
AcDbEntity
  8
0
100
AcDbLine
 10
565.8199999999999
 20
-397.28099999999984
 30
0.0
 11
565.386
 21
-397.4239999999998
 31
0.0
  0
LINE
  5
1B1
330
17
100
AcDbEntity
  8
0
100
AcDbLine
 10
565.386
 20
-397.4239999999998
 30
0.0
 11
564.939
 21
-397.5329999999998
 31
0.0
  0
LINE
  5
1B2
330
17
100
AcDbEntity
  8
0
100
AcDbLine
 10
564.939
 20
-397.5329999999998
 30
0.0
 11
564.481
 21
-397.6069999999998
 31
0.0
  0
LINE
  5
1B3
330
17
100
AcDbEntity
  8
0
100
AcDbLine
 10
564.481
 20
-397.6069999999998
 30
0.0
 11
564.014
 21
-397.6449999999998
 31
0.0
  0
LINE
  5
1B4
330
17
100
AcDbEntity
  8
0
100
AcDbLine
 10
564.014
 20
-397.6449999999998
 30
0.0
 11
547.95
 21
-397.6499999999998
 31
0.0
  0
LINE
  5
1B5
330
17
100
AcDbEntity
  8
0
100
AcDbLine
 10
547.95
 20
-397.6499999999998
 30
0.0
 11
547.585
 21
-397.0159999999998
 31
0.0
  0
LINE
  5
1B6
330
17
100
AcDbEntity
  8
0
100
AcDbLine
 10
547.585
 20
-397.0159999999998
 30
0.0
 11
546.714
 21
-395.1979999999998
 31
0.0
  0
LINE
  5
1B7
330
17
100
AcDbEntity
  8
0
100
AcDbLine
 10
546.714
 20
-395.1979999999998
 30
0.0
 11
545.673
 21
-392.32199999999983
 31
0.0
  0
LINE
  5
1B8
330
17
100
AcDbEntity
  8
0
100
AcDbLine
 10
545.673
 20
-392.32199999999983
 30
0.0
 11
544.797
 21
-388.5149999999998
 31
0.0
  0
LINE
  5
1B9
330
17
100
AcDbEntity
  8
0
100
AcDbLine
 10
544.797
 20
-388.5149999999998
 30
0.0
 11
544.5260000000001
 21
-386.3019999999998
 31
0.0
  0
LINE
  5
1BA
330
17
100
AcDbEntity
  8
0
100
AcDbLine
 10
544.5260000000001
 20
-386.3019999999998
 30
0.0
 11
544.422
 21
-383.90399999999977
 31
0.0
  0
LINE
  5
1BB
330
17
100
AcDbEntity
  8
0
100
AcDbLine
 10
544.422
 20
-383.90399999999977
 30
0.0
 11
544.527
 21
-381.33699999999976
 31
0.0
  0
LINE
  5
1BC
330
17
100
AcDbEntity
  8
0
100
AcDbLine
 10
544.527
 20
-381.33699999999976
 30
0.0
 11
544.883
 21
-378.61599999999976
 31
0.0
  0
LINE
  5
1BD
330
17
100
AcDbEntity
  8
0
100
AcDbLine
 10
544.883
 20
-378.61599999999976
 30
0.0
 11
545.532
 21
-375.7569999999998
 31
0.0
  0
LINE
  5
1BE
330
17
100
AcDbEntity
  8
0
100
AcDbLine
 10
545.532
 20
-375.7569999999998
 30
0.0
 11
546.5160000000001
 21
-372.77699999999976
 31
0.0
  0
LINE
  5
1BF
330
17
100
AcDbEntity
  8
0
100
AcDbLine
 10
546.5160000000001
 20
-372.77699999999976
 30
0.0
 11
547.8770000000001
 21
-369.68999999999977
 31
0.0
  0
LINE
  5
1C0
330
17
100
AcDbEntity
  8
0
100
AcDbLine
 10
547.8770000000001
 20
-369.68999999999977
 30
0.0
 11
549.657
 21
-366.51299999999975
 31
0.0
  0
LINE
  5
1C1
330
17
100
AcDbEntity
  8
0
100
AcDbLine
 10
531.7860000000001
 20
-412.89699999999976
 30
0.0
 11
546.9190000000001
 21
-408.6749999999998
 31
0.0
  0
LINE
  5
1C2
330
17
100
AcDbEntity
  8
0
100
AcDbLine
 10
546.9190000000001
 20
-408.6749999999998
 30
0.0
 11
555.6380000000001
 21
-407.32999999999976
 31
0.0
  0
LINE
  5
1C3
330
17
100
AcDbEntity
  8
0
100
AcDbLine
 10
555.6380000000001
 20
-407.32999999999976
 30
0.0
 11
559.9550000000002
 21
-407.10199999999975
 31
0.0
  0
LINE
  5
1C4
330
17
100
AcDbEntity
  8
0
100
AcDbLine
 10
559.9550000000002
 20
-407.10199999999975
 30
0.0
 11
564.1170000000002
 21
-407.26599999999974
 31
0.0
  0
LINE
  5
1C5
330
17
100
AcDbEntity
  8
0
100
AcDbLine
 10
564.1170000000002
 20
-407.26599999999974
 30
0.0
 11
566.2710000000002
 21
-407.5429999999997
 31
0.0
  0
LINE
  5
1C6
330
17
100
AcDbEntity
  8
0
100
AcDbLine
 10
566.2710000000002
 20
-407.5429999999997
 30
0.0
 11
568.2020000000002
 21
-407.9659999999997
 31
0.0
  0
LINE
  5
1C7
330
17
100
AcDbEntity
  8
0
100
AcDbLine
 10
568.2020000000002
 20
-407.9659999999997
 30
0.0
 11
569.9210000000003
 21
-408.5679999999997
 31
0.0
  0
LINE
  5
1C8
330
17
100
AcDbEntity
  8
0
100
AcDbLine
 10
569.9210000000003
 20
-408.5679999999997
 30
0.0
 11
570.7040000000003
 21
-408.9459999999997
 31
0.0
  0
LINE
  5
1C9
330
17
100
AcDbEntity
  8
0
100
AcDbLine
 10
570.7040000000003
 20
-408.9459999999997
 30
0.0
 11
571.4380000000003
 21
-409.3799999999997
 31
0.0
  0
LINE
  5
1CA
330
17
100
AcDbEntity
  8
0
100
AcDbLine
 10
571.4380000000003
 20
-409.3799999999997
 30
0.0
 11
572.1240000000004
 21
-409.8749999999997
 31
0.0
  0
LINE
  5
1CB
330
17
100
AcDbEntity
  8
0
100
AcDbLine
 10
572.1240000000004
 20
-409.8749999999997
 30
0.0
 11
572.7630000000004
 21
-410.4349999999997
 31
0.0
  0
LINE
  5
1CC
330
17
100
AcDbEntity
  8
0
100
AcDbLine
 10
572.7630000000004
 20
-410.4349999999997
 30
0.0
 11
573.3570000000004
 21
-411.06399999999974
 31
0.0
  0
LINE
  5
1CD
330
17
100
AcDbEntity
  8
0
100
AcDbLine
 10
573.3570000000004
 20
-411.06399999999974
 30
0.0
 11
573.9070000000004
 21
-411.76499999999976
 31
0.0
  0
LINE
  5
1CE
330
17
100
AcDbEntity
  8
0
100
AcDbLine
 10
573.9070000000004
 20
-411.76499999999976
 30
0.0
 11
574.4150000000004
 21
-412.5429999999998
 31
0.0
  0
LINE
  5
1CF
330
17
100
AcDbEntity
  8
0
100
AcDbLine
 10
574.4150000000004
 20
-412.5429999999998
 30
0.0
 11
574.8820000000004
 21
-413.40199999999976
 31
0.0
  0
LINE
  5
1D0
330
17
100
AcDbEntity
  8
0
100
AcDbLine
 10
574.8820000000004
 20
-413.40199999999976
 30
0.0
 11
631.8400000000004
 21
-576.1759999999997
 31
0.0
  0
LINE
  5
1D1
330
17
100
AcDbEntity
  8
0
100
AcDbLine
 10
631.8400000000004
 20
-576.1759999999997
 30
0.0
 11
632.1070000000004
 21
-577.6859999999997
 31
0.0
  0
LINE
  5
1D2
330
17
100
AcDbEntity
  8
0
100
AcDbLine
 10
632.1070000000004
 20
-577.6859999999997
 30
0.0
 11
632.2090000000004
 21
-579.1899999999997
 31
0.0
  0
LINE
  5
1D3
330
17
100
AcDbEntity
  8
0
100
AcDbLine
 10
632.2090000000004
 20
-579.1899999999997
 30
0.0
 11
632.1520000000004
 21
-580.6769999999997
 31
0.0
  0
LINE
  5
1D4
330
17
100
AcDbEntity
  8
0
100
AcDbLine
 10
632.1520000000004
 20
-580.6769999999997
 30
0.0
 11
631.9420000000003
 21
-582.1369999999997
 31
0.0
  0
LINE
  5
1D5
330
17
100
AcDbEntity
  8
0
100
AcDbLine
 10
631.9420000000003
 20
-582.1369999999997
 30
0.0
 11
631.5850000000004
 21
-583.5579999999998
 31
0.0
  0
LINE
  5
1D6
330
17
100
AcDbEntity
  8
0
100
AcDbLine
 10
631.5850000000004
 20
-583.5579999999998
 30
0.0
 11
631.0870000000003
 21
-584.9299999999997
 31
0.0
  0
LINE
  5
1D7
330
17
100
AcDbEntity
  8
0
100
AcDbLine
 10
631.0870000000003
 20
-584.9299999999997
 30
0.0
 11
630.4540000000003
 21
-586.2419999999997
 31
0.0
  0
LINE
  5
1D8
330
17
100
AcDbEntity
  8
0
100
AcDbLine
 10
630.4540000000003
 20
-586.2419999999997
 30
0.0
 11
629.6910000000003
 21
-587.4829999999997
 31
0.0
  0
LINE
  5
1D9
330
17
100
AcDbEntity
  8
0
100
AcDbLine
 10
629.6910000000003
 20
-587.4829999999997
 30
0.0
 11
628.8050000000003
 21
-588.6419999999997
 31
0.0
  0
LINE
  5
1DA
330
17
100
AcDbEntity
  8
0
100
AcDbLine
 10
628.8050000000003
 20
-588.6419999999997
 30
0.0
 11
627.8010000000003
 21
-589.7089999999997
 31
0.0
  0
LINE
  5
1DB
330
17
100
AcDbEntity
  8
0
100
AcDbLine
 10
627.8010000000003
 20
-589.7089999999997
 30
0.0
 11
626.6860000000003
 21
-590.6729999999998
 31
0.0
  0
LINE
  5
1DC
330
17
100
AcDbEntity
  8
0
100
AcDbLine
 10
626.6860000000003
 20
-590.6729999999998
 30
0.0
 11
625.4650000000003
 21
-591.5229999999998
 31
0.0
  0
LINE
  5
1DD
330
17
100
AcDbEntity
  8
0
100
AcDbLine
 10
625.4650000000003
 20
-591.5229999999998
 30
0.0
 11
624.1440000000002
 21
-592.2479999999998
 31
0.0
  0
LINE
  5
1DE
330
17
100
AcDbEntity
  8
0
100
AcDbLine
 10
624.1440000000002
 20
-592.2479999999998
 30
0.0
 11
622.7290000000003
 21
-592.8369999999999
 31
0.0
  0
LINE
  5
1DF
330
17
100
AcDbEntity
  8
0
100
AcDbLine
 10
622.7290000000003
 20
-592.8369999999999
 30
0.0
 11
577.5390000000002
 21
-605.0889999999998
 31
0.0
  0
LINE
  5
1E0
330
17
100
AcDbEntity
  8
0
100
AcDbLine
 10
577.5390000000002
 20
-605.0889999999998
 30
0.0
 11
576.4940000000003
 21
-605.1969999999998
 31
0.0
  0
LINE
  5
1E1
330
17
100
AcDbEntity
  8
0
100
AcDbLine
 10
576.4940000000003
 20
-605.1969999999998
 30
0.0
 11
575.4600000000003
 21
-605.1979999999998
 31
0.0
  0
LINE
  5
1E2
330
17
100
AcDbEntity
  8
0
100
AcDbLine
 10
575.4600000000003
 20
-605.1979999999998
 30
0.0
 11
574.4420000000002
 21
-605.0969999999998
 31
0.0
  0
LINE
  5
1E3
330
17
100
AcDbEntity
  8
0
100
AcDbLine
 10
574.4420000000002
 20
-605.0969999999998
 30
0.0
 11
573.4480000000002
 21
-604.8969999999997
 31
0.0
  0
LINE
  5
1E4
330
17
100
AcDbEntity
  8
0
100
AcDbLine
 10
573.4480000000002
 20
-604.8969999999997
 30
0.0
 11
572.4840000000002
 21
-604.6019999999997
 31
0.0
  0
LINE
  5
1E5
330
17
100
AcDbEntity
  8
0
100
AcDbLine
 10
572.4840000000002
 20
-604.6019999999997
 30
0.0
 11
571.5560000000002
 21
-604.2169999999998
 31
0.0
  0
LINE
  5
1E6
330
17
100
AcDbEntity
  8
0
100
AcDbLine
 10
571.5560000000002
 20
-604.2169999999998
 30
0.0
 11
570.6710000000002
 21
-603.7449999999998
 31
0.0
  0
LINE
  5
1E7
330
17
100
AcDbEntity
  8
0
100
AcDbLine
 10
570.6710000000002
 20
-603.7449999999998
 30
0.0
 11
569.8350000000002
 21
-603.1899999999998
 31
0.0
  0
LINE
  5
1E8
330
17
100
AcDbEntity
  8
0
100
AcDbLine
 10
569.8350000000002
 20
-603.1899999999998
 30
0.0
 11
569.0550000000002
 21
-602.5559999999998
 31
0.0
  0
LINE
  5
1E9
330
17
100
AcDbEntity
  8
0
100
AcDbLine
 10
569.0550000000002
 20
-602.5559999999998
 30
0.0
 11
568.3380000000002
 21
-601.8469999999999
 31
0.0
  0
LINE
  5
1EA
330
17
100
AcDbEntity
  8
0
100
AcDbLine
 10
568.3380000000002
 20
-601.8469999999999
 30
0.0
 11
567.6900000000002
 21
-601.0659999999999
 31
0.0
  0
LINE
  5
1EB
330
17
100
AcDbEntity
  8
0
100
AcDbLine
 10
567.6900000000002
 20
-601.0659999999999
 30
0.0
 11
567.1170000000002
 21
-600.218
 31
0.0
  0
LINE
  5
1EC
330
17
100
AcDbEntity
  8
0
100
AcDbLine
 10
567.1170000000002
 20
-600.218
 30
0.0
 11
566.6260000000002
 21
-599.307
 31
0.0
  0
LINE
  5
1ED
330
17
100
AcDbEntity
  8
0
100
AcDbLine
 10
566.6260000000002
 20
-599.307
 30
0.0
 11
566.2240000000002
 21
-598.336
 31
0.0
  0
LINE
  5
1EE
330
17
100
AcDbEntity
  8
0
100
AcDbLine
 10
566.2240000000002
 20
-598.336
 30
0.0
 11
524.0430000000001
 21
-425.605
 31
0.0
  0
LINE
  5
1EF
330
17
100
AcDbEntity
  8
0
100
AcDbLine
 10
524.0430000000001
 20
-425.605
 30
0.0
 11
523.9340000000001
 21
-424.50800000000004
 31
0.0
  0
LINE
  5
1F0
330
17
100
AcDbEntity
  8
0
100
AcDbLine
 10
523.9340000000001
 20
-424.50800000000004
 30
0.0
 11
523.9290000000001
 21
-423.42
 31
0.0
  0
LINE
  5
1F1
330
17
100
AcDbEntity
  8
0
100
AcDbLine
 10
523.9290000000001
 20
-423.42
 30
0.0
 11
524.0240000000001
 21
-422.34700000000004
 31
0.0
  0
LINE
  5
1F2
330
17
100
AcDbEntity
  8
0
100
AcDbLine
 10
524.0240000000001
 20
-422.34700000000004
 30
0.0
 11
524.2160000000001
 21
-421.295
 31
0.0
  0
LINE
  5
1F3
330
17
100
AcDbEntity
  8
0
100
AcDbLine
 10
524.2160000000001
 20
-421.295
 30
0.0
 11
524.5010000000001
 21
-420.271
 31
0.0
  0
LINE
  5
1F4
330
17
100
AcDbEntity
  8
0
100
AcDbLine
 10
524.5010000000001
 20
-420.271
 30
0.0
 11
524.8770000000001
 21
-419.28000000000003
 31
0.0
  0
LINE
  5
1F5
330
17
100
AcDbEntity
  8
0
100
AcDbLine
 10
524.8770000000001
 20
-419.28000000000003
 30
0.0
 11
525.34
 21
-418.329
 31
0.0
  0
LINE
  5
1F6
330
17
100
AcDbEntity
  8
0
100
AcDbLine
 10
525.34
 20
-418.329
 30
0.0
 11
525.8870000000001
 21
-417.42400000000004
 31
0.0
  0
LINE
  5
1F7
330
17
100
AcDbEntity
  8
0
100
AcDbLine
 10
525.8870000000001
 20
-417.42400000000004
 30
0.0
 11
526.514
 21
-416.571
 31
0.0
  0
LINE
  5
1F8
330
17
100
AcDbEntity
  8
0
100
AcDbLine
 10
526.514
 20
-416.571
 30
0.0
 11
527.219
 21
-415.77700000000004
 31
0.0
  0
LINE
  5
1F9
330
17
100
AcDbEntity
  8
0
100
AcDbLine
 10
527.219
 20
-415.77700000000004
 30
0.0
 11
527.998
 21
-415.047
 31
0.0
  0
LINE
  5
1FA
330
17
100
AcDbEntity
  8
0
100
AcDbLine
 10
527.998
 20
-415.047
 30
0.0
 11
528.8470000000001
 21
-414.38800000000003
 31
0.0
  0
LINE
  5
1FB
330
17
100
AcDbEntity
  8
0
100
AcDbLine
 10
528.8470000000001
 20
-414.38800000000003
 30
0.0
 11
529.7640000000001
 21
-413.80600000000004
 31
0.0
  0
LINE
  5
1FC
330
17
100
AcDbEntity
  8
0
100
AcDbLine
 10
529.7640000000001
 20
-413.80600000000004
 30
0.0
 11
530.7450000000001
 21
-413.307
 31
0.0
  0
LINE
  5
1FD
330
17
100
AcDbEntity
  8
0
100
AcDbLine
 10
530.7450000000001
 20
-413.307
 30
0.0
 11
531.7870000000001
 21
-412.898
 31
0.0
  0
LINE
  5
1FE
330
17
100
AcDbEntity
  8
0
100
AcDbLine
 10
566.3350000000002
 20
-425.97200000000004
 30
0.0
 11
566.2710000000002
 21
-427.23100000000005
 31
0.0
  0
LINE
  5
1FF
330
17
100
AcDbEntity
  8
0
100
AcDbLine
 10
566.2710000000002
 20
-427.23100000000005
 30
0.0
 11
566.0840000000002
 21
-428.45300000000003
 31
0.0
  0
LINE
  5
200
330
17
100
AcDbEntity
  8
0
100
AcDbLine
 10
566.0840000000002
 20
-428.45300000000003
 30
0.0
 11
565.7810000000002
 21
-429.63300000000004
 31
0.0
  0
LINE
  5
201
330
17
100
AcDbEntity
  8
0
100
AcDbLine
 10
565.7810000000002
 20
-429.63300000000004
 30
0.0
 11
565.3670000000002
 21
-430.764
 31
0.0
  0
LINE
  5
202
330
17
100
AcDbEntity
  8
0
100
AcDbLine
 10
565.3670000000002
 20
-430.764
 30
0.0
 11
564.8490000000002
 21
-431.84000000000003
 31
0.0
  0
LINE
  5
203
330
17
100
AcDbEntity
  8
0
100
AcDbLine
 10
564.8490000000002
 20
-431.84000000000003
 30
0.0
 11
564.2320000000002
 21
-432.855
 31
0.0
  0
LINE
  5
204
330
17
100
AcDbEntity
  8
0
100
AcDbLine
 10
564.2320000000002
 20
-432.855
 30
0.0
 11
563.5230000000003
 21
-433.803
 31
0.0
  0
LINE
  5
205
330
17
100
AcDbEntity
  8
0
100
AcDbLine
 10
563.5230000000003
 20
-433.803
 30
0.0
 11
562.7290000000003
 21
-434.677
 31
0.0
  0
LINE
  5
206
330
17
100
AcDbEntity
  8
0
100
AcDbLine
 10
562.7290000000003
 20
-434.677
 30
0.0
 11
561.8550000000002
 21
-435.47200000000004
 31
0.0
  0
LINE
  5
207
330
17
100
AcDbEntity
  8
0
100
AcDbLine
 10
561.8550000000002
 20
-435.47200000000004
 30
0.0
 11
560.9070000000003
 21
-436.18100000000004
 31
0.0
  0
LINE
  5
208
330
17
100
AcDbEntity
  8
0
100
AcDbLine
 10
560.9070000000003
 20
-436.18100000000004
 30
0.0
 11
559.8920000000003
 21
-436.79800000000006
 31
0.0
  0
LINE
  5
209
330
17
100
AcDbEntity
  8
0
100
AcDbLine
 10
559.8920000000003
 20
-436.79800000000006
 30
0.0
 11
558.8160000000003
 21
-437.31600000000003
 31
0.0
  0
LINE
  5
20A
330
17
100
AcDbEntity
  8
0
100
AcDbLine
 10
558.8160000000003
 20
-437.31600000000003
 30
0.0
 11
557.6850000000003
 21
-437.73
 31
0.0
  0
LINE
  5
20B
330
17
100
AcDbEntity
  8
0
100
AcDbLine
 10
557.6850000000003
 20
-437.73
 30
0.0
 11
556.5050000000003
 21
-438.033
 31
0.0
  0
LINE
  5
20C
330
17
100
AcDbEntity
  8
0
100
AcDbLine
 10
556.5050000000003
 20
-438.033
 30
0.0
 11
555.2830000000004
 21
-438.22
 31
0.0
  0
LINE
  5
20D
330
17
100
AcDbEntity
  8
0
100
AcDbLine
 10
555.2830000000004
 20
-438.22
 30
0.0
 11
554.0240000000003
 21
-438.28400000000005
 31
0.0
  0
LINE
  5
20E
330
17
100
AcDbEntity
  8
0
100
AcDbLine
 10
554.0240000000003
 20
-438.28400000000005
 30
0.0
 11
552.7650000000003
 21
-438.22
 31
0.0
  0
LINE
  5
20F
330
17
100
AcDbEntity
  8
0
100
AcDbLine
 10
552.7650000000003
 20
-438.22
 30
0.0
 11
551.5430000000003
 21
-438.033
 31
0.0
  0
LINE
  5
210
330
17
100
AcDbEntity
  8
0
100
AcDbLine
 10
551.5430000000003
 20
-438.033
 30
0.0
 11
550.3630000000004
 21
-437.73
 31
0.0
  0
LINE
  5
211
330
17
100
AcDbEntity
  8
0
100
AcDbLine
 10
550.3630000000004
 20
-437.73
 30
0.0
 11
549.2320000000004
 21
-437.31600000000003
 31
0.0
  0
LINE
  5
212
330
17
100
AcDbEntity
  8
0
100
AcDbLine
 10
549.2320000000004
 20
-437.31600000000003
 30
0.0
 11
548.1560000000004
 21
-436.79800000000006
 31
0.0
  0
LINE
  5
213
330
17
100
AcDbEntity
  8
0
100
AcDbLine
 10
548.1560000000004
 20
-436.79800000000006
 30
0.0
 11
547.1410000000004
 21
-436.18100000000004
 31
0.0
  0
LINE
  5
214
330
17
100
AcDbEntity
  8
0
100
AcDbLine
 10
547.1410000000004
 20
-436.18100000000004
 30
0.0
 11
546.1930000000004
 21
-435.47200000000004
 31
0.0
  0
LINE
  5
215
330
17
100
AcDbEntity
  8
0
100
AcDbLine
 10
546.1930000000004
 20
-435.47200000000004
 30
0.0
 11
545.3190000000004
 21
-434.677
 31
0.0
  0
LINE
  5
216
330
17
100
AcDbEntity
  8
0
100
AcDbLine
 10
545.3190000000004
 20
-434.677
 30
0.0
 11
544.5240000000005
 21
-433.803
 31
0.0
  0
LINE
  5
217
330
17
100
AcDbEntity
  8
0
100
AcDbLine
 10
544.5240000000005
 20
-433.803
 30
0.0
 11
543.8150000000005
 21
-432.855
 31
0.0
  0
LINE
  5
218
330
17
100
AcDbEntity
  8
0
100
AcDbLine
 10
543.8150000000005
 20
-432.855
 30
0.0
 11
543.1980000000005
 21
-431.84000000000003
 31
0.0
  0
LINE
  5
219
330
17
100
AcDbEntity
  8
0
100
AcDbLine
 10
543.1980000000005
 20
-431.84000000000003
 30
0.0
 11
542.6800000000005
 21
-430.764
 31
0.0
  0
LINE
  5
21A
330
17
100
AcDbEntity
  8
0
100
AcDbLine
 10
542.6800000000005
 20
-430.764
 30
0.0
 11
542.2660000000005
 21
-429.63300000000004
 31
0.0
  0
LINE
  5
21B
330
17
100
AcDbEntity
  8
0
100
AcDbLine
 10
542.2660000000005
 20
-429.63300000000004
 30
0.0
 11
541.9630000000005
 21
-428.45300000000003
 31
0.0
  0
LINE
  5
21C
330
17
100
AcDbEntity
  8
0
100
AcDbLine
 10
541.9630000000005
 20
-428.45300000000003
 30
0.0
 11
541.7760000000005
 21
-427.23100000000005
 31
0.0
  0
LINE
  5
21D
330
17
100
AcDbEntity
  8
0
100
AcDbLine
 10
541.7760000000005
 20
-427.23100000000005
 30
0.0
 11
541.7120000000006
 21
-425.97200000000004
 31
0.0
  0
LINE
  5
21E
330
17
100
AcDbEntity
  8
0
100
AcDbLine
 10
541.7120000000006
 20
-425.97200000000004
 30
0.0
 11
541.7760000000005
 21
-424.713
 31
0.0
  0
LINE
  5
21F
330
17
100
AcDbEntity
  8
0
100
AcDbLine
 10
541.7760000000005
 20
-424.713
 30
0.0
 11
541.9630000000005
 21
-423.49100000000004
 31
0.0
  0
LINE
  5
220
330
17
100
AcDbEntity
  8
0
100
AcDbLine
 10
541.9630000000005
 20
-423.49100000000004
 30
0.0
 11
542.2660000000005
 21
-422.31100000000004
 31
0.0
  0
LINE
  5
221
330
17
100
AcDbEntity
  8
0
100
AcDbLine
 10
542.2660000000005
 20
-422.31100000000004
 30
0.0
 11
542.6800000000005
 21
-421.18000000000006
 31
0.0
  0
LINE
  5
222
330
17
100
AcDbEntity
  8
0
100
AcDbLine
 10
542.6800000000005
 20
-421.18000000000006
 30
0.0
 11
543.1980000000005
 21
-420.10400000000004
 31
0.0
  0
LINE
  5
223
330
17
100
AcDbEntity
  8
0
100
AcDbLine
 10
543.1980000000005
 20
-420.10400000000004
 30
0.0
 11
543.8150000000005
 21
-419.08900000000006
 31
0.0
  0
LINE
  5
224
330
17
100
AcDbEntity
  8
0
100
AcDbLine
 10
543.8150000000005
 20
-419.08900000000006
 30
0.0
 11
544.5240000000005
 21
-418.1410000000001
 31
0.0
  0
LINE
  5
225
330
17
100
AcDbEntity
  8
0
100
AcDbLine
 10
544.5240000000005
 20
-418.1410000000001
 30
0.0
 11
545.3190000000004
 21
-417.26700000000005
 31
0.0
  0
LINE
  5
226
330
17
100
AcDbEntity
  8
0
100
AcDbLine
 10
545.3190000000004
 20
-417.26700000000005
 30
0.0
 11
546.1930000000004
 21
-416.47200000000004
 31
0.0
  0
LINE
  5
227
330
17
100
AcDbEntity
  8
0
100
AcDbLine
 10
546.1930000000004
 20
-416.47200000000004
 30
0.0
 11
547.1410000000004
 21
-415.76300000000003
 31
0.0
  0
LINE
  5
228
330
17
100
AcDbEntity
  8
0
100
AcDbLine
 10
547.1410000000004
 20
-415.76300000000003
 30
0.0
 11
548.1560000000004
 21
-415.146
 31
0.0
  0
LINE
  5
229
330
17
100
AcDbEntity
  8
0
100
AcDbLine
 10
548.1560000000004
 20
-415.146
 30
0.0
 11
549.2320000000004
 21
-414.62800000000004
 31
0.0
  0
LINE
  5
22A
330
17
100
AcDbEntity
  8
0
100
AcDbLine
 10
549.2320000000004
 20
-414.62800000000004
 30
0.0
 11
550.3630000000004
 21
-414.21400000000006
 31
0.0
  0
LINE
  5
22B
330
17
100
AcDbEntity
  8
0
100
AcDbLine
 10
550.3630000000004
 20
-414.21400000000006
 30
0.0
 11
551.5430000000003
 21
-413.91100000000006
 31
0.0
  0
LINE
  5
22C
330
17
100
AcDbEntity
  8
0
100
AcDbLine
 10
551.5430000000003
 20
-413.91100000000006
 30
0.0
 11
552.7650000000003
 21
-413.72400000000005
 31
0.0
  0
LINE
  5
22D
330
17
100
AcDbEntity
  8
0
100
AcDbLine
 10
552.7650000000003
 20
-413.72400000000005
 30
0.0
 11
554.0240000000003
 21
-413.66
 31
0.0
  0
LINE
  5
22E
330
17
100
AcDbEntity
  8
0
100
AcDbLine
 10
554.0240000000003
 20
-413.66
 30
0.0
 11
555.2830000000004
 21
-413.72400000000005
 31
0.0
  0
LINE
  5
22F
330
17
100
AcDbEntity
  8
0
100
AcDbLine
 10
555.2830000000004
 20
-413.72400000000005
 30
0.0
 11
556.5050000000003
 21
-413.91100000000006
 31
0.0
  0
LINE
  5
230
330
17
100
AcDbEntity
  8
0
100
AcDbLine
 10
556.5050000000003
 20
-413.91100000000006
 30
0.0
 11
557.6850000000003
 21
-414.21400000000006
 31
0.0
  0
LINE
  5
231
330
17
100
AcDbEntity
  8
0
100
AcDbLine
 10
557.6850000000003
 20
-414.21400000000006
 30
0.0
 11
558.8160000000003
 21
-414.62800000000004
 31
0.0
  0
LINE
  5
232
330
17
100
AcDbEntity
  8
0
100
AcDbLine
 10
558.8160000000003
 20
-414.62800000000004
 30
0.0
 11
559.8920000000003
 21
-415.146
 31
0.0
  0
LINE
  5
233
330
17
100
AcDbEntity
  8
0
100
AcDbLine
 10
559.8920000000003
 20
-415.146
 30
0.0
 11
560.9070000000003
 21
-415.76300000000003
 31
0.0
  0
LINE
  5
234
330
17
100
AcDbEntity
  8
0
100
AcDbLine
 10
560.9070000000003
 20
-415.76300000000003
 30
0.0
 11
561.8550000000002
 21
-416.47200000000004
 31
0.0
  0
LINE
  5
235
330
17
100
AcDbEntity
  8
0
100
AcDbLine
 10
561.8550000000002
 20
-416.47200000000004
 30
0.0
 11
562.7290000000003
 21
-417.26700000000005
 31
0.0
  0
LINE
  5
236
330
17
100
AcDbEntity
  8
0
100
AcDbLine
 10
562.7290000000003
 20
-417.26700000000005
 30
0.0
 11
563.5230000000003
 21
-418.1410000000001
 31
0.0
  0
LINE
  5
237
330
17
100
AcDbEntity
  8
0
100
AcDbLine
 10
563.5230000000003
 20
-418.1410000000001
 30
0.0
 11
564.2320000000002
 21
-419.08900000000006
 31
0.0
  0
LINE
  5
238
330
17
100
AcDbEntity
  8
0
100
AcDbLine
 10
564.2320000000002
 20
-419.08900000000006
 30
0.0
 11
564.8490000000002
 21
-420.10400000000004
 31
0.0
  0
LINE
  5
239
330
17
100
AcDbEntity
  8
0
100
AcDbLine
 10
564.8490000000002
 20
-420.10400000000004
 30
0.0
 11
565.3670000000002
 21
-421.18000000000006
 31
0.0
  0
LINE
  5
23A
330
17
100
AcDbEntity
  8
0
100
AcDbLine
 10
565.3670000000002
 20
-421.18000000000006
 30
0.0
 11
565.7810000000002
 21
-422.31100000000004
 31
0.0
  0
LINE
  5
23B
330
17
100
AcDbEntity
  8
0
100
AcDbLine
 10
565.7810000000002
 20
-422.31100000000004
 30
0.0
 11
566.0840000000002
 21
-423.49100000000004
 31
0.0
  0
LINE
  5
23C
330
17
100
AcDbEntity
  8
0
100
AcDbLine
 10
566.0840000000002
 20
-423.49100000000004
 30
0.0
 11
566.2710000000002
 21
-424.713
 31
0.0
  0
LINE
  5
23D
330
17
100
AcDbEntity
  8
0
100
AcDbLine
 10
566.2710000000002
 20
-424.713
 30
0.0
 11
566.3350000000002
 21
-425.97200000000004
 31
0.0
  0
LINE
  5
23E
330
17
100
AcDbEntity
  8
0
100
AcDbLine
 10
604.8600000000001
 20
-583.008
 30
0.0
 11
604.8030000000001
 21
-584.1360000000001
 31
0.0
  0
LINE
  5
23F
330
17
100
AcDbEntity
  8
0
100
AcDbLine
 10
604.8030000000001
 20
-584.1360000000001
 30
0.0
 11
604.6360000000001
 21
-585.2310000000001
 31
0.0
  0
LINE
  5
240
330
17
100
AcDbEntity
  8
0
100
AcDbLine
 10
604.6360000000001
 20
-585.2310000000001
 30
0.0
 11
604.364
 21
-586.2880000000001
 31
0.0
  0
LINE
  5
241
330
17
100
AcDbEntity
  8
0
100
AcDbLine
 10
604.364
 20
-586.2880000000001
 30
0.0
 11
603.993
 21
-587.3010000000002
 31
0.0
  0
LINE
  5
242
330
17
100
AcDbEntity
  8
0
100
AcDbLine
 10
603.993
 20
-587.3010000000002
 30
0.0
 11
603.528
 21
-588.2650000000002
 31
0.0
  0
LINE
  5
243
330
17
100
AcDbEntity
  8
0
100
AcDbLine
 10
603.528
 20
-588.2650000000002
 30
0.0
 11
602.975
 21
-589.1750000000002
 31
0.0
  0
LINE
  5
244
330
17
100
AcDbEntity
  8
0
100
AcDbLine
 10
602.975
 20
-589.1750000000002
 30
0.0
 11
602.34
 21
-590.0240000000002
 31
0.0
  0
LINE
  5
245
330
17
100
AcDbEntity
  8
0
100
AcDbLine
 10
602.34
 20
-590.0240000000002
 30
0.0
 11
601.628
 21
-590.8070000000002
 31
0.0
  0
LINE
  5
246
330
17
100
AcDbEntity
  8
0
100
AcDbLine
 10
601.628
 20
-590.8070000000002
 30
0.0
 11
600.845
 21
-591.5190000000002
 31
0.0
  0
LINE
  5
247
330
17
100
AcDbEntity
  8
0
100
AcDbLine
 10
600.845
 20
-591.5190000000002
 30
0.0
 11
599.996
 21
-592.1540000000002
 31
0.0
  0
LINE
  5
248
330
17
100
AcDbEntity
  8
0
100
AcDbLine
 10
599.996
 20
-592.1540000000002
 30
0.0
 11
599.087
 21
-592.7070000000002
 31
0.0
  0
LINE
  5
249
330
17
100
AcDbEntity
  8
0
100
AcDbLine
 10
599.087
 20
-592.7070000000002
 30
0.0
 11
598.1229999999999
 21
-593.1710000000003
 31
0.0
  0
LINE
  5
24A
330
17
100
AcDbEntity
  8
0
100
AcDbLine
 10
598.1229999999999
 20
-593.1710000000003
 30
0.0
 11
597.1099999999999
 21
-593.5420000000003
 31
0.0
  0
LINE
  5
24B
330
17
100
AcDbEntity
  8
0
100
AcDbLine
 10
597.1099999999999
 20
-593.5420000000003
 30
0.0
 11
596.0529999999999
 21
-593.8140000000003
 31
0.0
  0
LINE
  5
24C
330
17
100
AcDbEntity
  8
0
100
AcDbLine
 10
596.0529999999999
 20
-593.8140000000003
 30
0.0
 11
594.9579999999999
 21
-593.9810000000003
 31
0.0
  0
LINE
  5
24D
330
17
100
AcDbEntity
  8
0
100
AcDbLine
 10
594.9579999999999
 20
-593.9810000000003
 30
0.0
 11
593.8299999999998
 21
-594.0380000000004
 31
0.0
  0
LINE
  5
24E
330
17
100
AcDbEntity
  8
0
100
AcDbLine
 10
593.8299999999998
 20
-594.0380000000004
 30
0.0
 11
592.7019999999998
 21
-593.9810000000003
 31
0.0
  0
LINE
  5
24F
330
17
100
AcDbEntity
  8
0
100
AcDbLine
 10
592.7019999999998
 20
-593.9810000000003
 30
0.0
 11
591.6069999999997
 21
-593.8140000000003
 31
0.0
  0
LINE
  5
250
330
17
100
AcDbEntity
  8
0
100
AcDbLine
 10
591.6069999999997
 20
-593.8140000000003
 30
0.0
 11
590.5499999999997
 21
-593.5420000000003
 31
0.0
  0
LINE
  5
251
330
17
100
AcDbEntity
  8
0
100
AcDbLine
 10
590.5499999999997
 20
-593.5420000000003
 30
0.0
 11
589.5369999999997
 21
-593.1710000000003
 31
0.0
  0
LINE
  5
252
330
17
100
AcDbEntity
  8
0
100
AcDbLine
 10
589.5369999999997
 20
-593.1710000000003
 30
0.0
 11
588.5729999999996
 21
-592.7070000000002
 31
0.0
  0
LINE
  5
253
330
17
100
AcDbEntity
  8
0
100
AcDbLine
 10
588.5729999999996
 20
-592.7070000000002
 30
0.0
 11
587.6629999999997
 21
-592.1540000000002
 31
0.0
  0
LINE
  5
254
330
17
100
AcDbEntity
  8
0
100
AcDbLine
 10
587.6629999999997
 20
-592.1540000000002
 30
0.0
 11
586.8139999999996
 21
-591.5190000000002
 31
0.0
  0
LINE
  5
255
330
17
100
AcDbEntity
  8
0
100
AcDbLine
 10
586.8139999999996
 20
-591.5190000000002
 30
0.0
 11
586.0309999999996
 21
-590.8070000000002
 31
0.0
  0
LINE
  5
256
330
17
100
AcDbEntity
  8
0
100
AcDbLine
 10
586.0309999999996
 20
-590.8070000000002
 30
0.0
 11
585.3189999999996
 21
-590.0240000000002
 31
0.0
  0
LINE
  5
257
330
17
100
AcDbEntity
  8
0
100
AcDbLine
 10
585.3189999999996
 20
-590.0240000000002
 30
0.0
 11
584.6839999999996
 21
-589.1750000000002
 31
0.0
  0
LINE
  5
258
330
17
100
AcDbEntity
  8
0
100
AcDbLine
 10
584.6839999999996
 20
-589.1750000000002
 30
0.0
 11
584.1309999999996
 21
-588.2650000000002
 31
0.0
  0
LINE
  5
259
330
17
100
AcDbEntity
  8
0
100
AcDbLine
 10
584.1309999999996
 20
-588.2650000000002
 30
0.0
 11
583.6659999999996
 21
-587.3010000000002
 31
0.0
  0
LINE
  5
25A
330
17
100
AcDbEntity
  8
0
100
AcDbLine
 10
583.6659999999996
 20
-587.3010000000002
 30
0.0
 11
583.2949999999996
 21
-586.2880000000001
 31
0.0
  0
LINE
  5
25B
330
17
100
AcDbEntity
  8
0
100
AcDbLine
 10
583.2949999999996
 20
-586.2880000000001
 30
0.0
 11
583.0229999999996
 21
-585.2310000000001
 31
0.0
  0
LINE
  5
25C
330
17
100
AcDbEntity
  8
0
100
AcDbLine
 10
583.0229999999996
 20
-585.2310000000001
 30
0.0
 11
582.8559999999995
 21
-584.1360000000001
 31
0.0
  0
LINE
  5
25D
330
17
100
AcDbEntity
  8
0
100
AcDbLine
 10
582.8559999999995
 20
-584.1360000000001
 30
0.0
 11
582.7989999999995
 21
-583.008
 31
0.0
  0
LINE
  5
25E
330
17
100
AcDbEntity
  8
0
100
AcDbLine
 10
582.7989999999995
 20
-583.008
 30
0.0
 11
582.8559999999995
 21
-581.88
 31
0.0
  0
LINE
  5
25F
330
17
100
AcDbEntity
  8
0
100
AcDbLine
 10
582.8559999999995
 20
-581.88
 30
0.0
 11
583.0229999999996
 21
-580.785
 31
0.0
  0
LINE
  5
260
330
17
100
AcDbEntity
  8
0
100
AcDbLine
 10
583.0229999999996
 20
-580.785
 30
0.0
 11
583.2949999999996
 21
-579.728
 31
0.0
  0
LINE
  5
261
330
17
100
AcDbEntity
  8
0
100
AcDbLine
 10
583.2949999999996
 20
-579.728
 30
0.0
 11
583.6659999999996
 21
-578.7149999999999
 31
0.0
  0
LINE
  5
262
330
17
100
AcDbEntity
  8
0
100
AcDbLine
 10
583.6659999999996
 20
-578.7149999999999
 30
0.0
 11
584.1309999999996
 21
-577.7509999999999
 31
0.0
  0
LINE
  5
263
330
17
100
AcDbEntity
  8
0
100
AcDbLine
 10
584.1309999999996
 20
-577.7509999999999
 30
0.0
 11
584.6839999999996
 21
-576.8409999999999
 31
0.0
  0
LINE
  5
264
330
17
100
AcDbEntity
  8
0
100
AcDbLine
 10
584.6839999999996
 20
-576.8409999999999
 30
0.0
 11
585.3189999999996
 21
-575.9919999999998
 31
0.0
  0
LINE
  5
265
330
17
100
AcDbEntity
  8
0
100
AcDbLine
 10
585.3189999999996
 20
-575.9919999999998
 30
0.0
 11
586.0309999999996
 21
-575.2089999999998
 31
0.0
  0
LINE
  5
266
330
17
100
AcDbEntity
  8
0
100
AcDbLine
 10
586.0309999999996
 20
-575.2089999999998
 30
0.0
 11
586.8139999999996
 21
-574.4969999999998
 31
0.0
  0
LINE
  5
267
330
17
100
AcDbEntity
  8
0
100
AcDbLine
 10
586.8139999999996
 20
-574.4969999999998
 30
0.0
 11
587.6629999999997
 21
-573.8619999999999
 31
0.0
  0
LINE
  5
268
330
17
100
AcDbEntity
  8
0
100
AcDbLine
 10
587.6629999999997
 20
-573.8619999999999
 30
0.0
 11
588.5729999999996
 21
-573.3089999999999
 31
0.0
  0
LINE
  5
269
330
17
100
AcDbEntity
  8
0
100
AcDbLine
 10
588.5729999999996
 20
-573.3089999999999
 30
0.0
 11
589.5369999999997
 21
-572.8449999999998
 31
0.0
  0
LINE
  5
26A
330
17
100
AcDbEntity
  8
0
100
AcDbLine
 10
589.5369999999997
 20
-572.8449999999998
 30
0.0
 11
590.5499999999997
 21
-572.4739999999998
 31
0.0
  0
LINE
  5
26B
330
17
100
AcDbEntity
  8
0
100
AcDbLine
 10
590.5499999999997
 20
-572.4739999999998
 30
0.0
 11
591.6069999999997
 21
-572.2019999999998
 31
0.0
  0
LINE
  5
26C
330
17
100
AcDbEntity
  8
0
100
AcDbLine
 10
591.6069999999997
 20
-572.2019999999998
 30
0.0
 11
592.7019999999998
 21
-572.0349999999997
 31
0.0
  0
LINE
  5
26D
330
17
100
AcDbEntity
  8
0
100
AcDbLine
 10
592.7019999999998
 20
-572.0349999999997
 30
0.0
 11
593.8299999999998
 21
-571.9779999999997
 31
0.0
  0
LINE
  5
26E
330
17
100
AcDbEntity
  8
0
100
AcDbLine
 10
593.8299999999998
 20
-571.9779999999997
 30
0.0
 11
594.9579999999999
 21
-572.0349999999997
 31
0.0
  0
LINE
  5
26F
330
17
100
AcDbEntity
  8
0
100
AcDbLine
 10
594.9579999999999
 20
-572.0349999999997
 30
0.0
 11
596.0529999999999
 21
-572.2019999999998
 31
0.0
  0
LINE
  5
270
330
17
100
AcDbEntity
  8
0
100
AcDbLine
 10
596.0529999999999
 20
-572.2019999999998
 30
0.0
 11
597.1099999999999
 21
-572.4739999999998
 31
0.0
  0
LINE
  5
271
330
17
100
AcDbEntity
  8
0
100
AcDbLine
 10
597.1099999999999
 20
-572.4739999999998
 30
0.0
 11
598.1229999999999
 21
-572.8449999999998
 31
0.0
  0
LINE
  5
272
330
17
100
AcDbEntity
  8
0
100
AcDbLine
 10
598.1229999999999
 20
-572.8449999999998
 30
0.0
 11
599.087
 21
-573.3089999999999
 31
0.0
  0
LINE
  5
273
330
17
100
AcDbEntity
  8
0
100
AcDbLine
 10
599.087
 20
-573.3089999999999
 30
0.0
 11
599.996
 21
-573.8619999999999
 31
0.0
  0
LINE
  5
274
330
17
100
AcDbEntity
  8
0
100
AcDbLine
 10
599.996
 20
-573.8619999999999
 30
0.0
 11
600.845
 21
-574.4969999999998
 31
0.0
  0
LINE
  5
275
330
17
100
AcDbEntity
  8
0
100
AcDbLine
 10
600.845
 20
-574.4969999999998
 30
0.0
 11
601.628
 21
-575.2089999999998
 31
0.0
  0
LINE
  5
276
330
17
100
AcDbEntity
  8
0
100
AcDbLine
 10
601.628
 20
-575.2089999999998
 30
0.0
 11
602.34
 21
-575.9919999999998
 31
0.0
  0
LINE
  5
277
330
17
100
AcDbEntity
  8
0
100
AcDbLine
 10
602.34
 20
-575.9919999999998
 30
0.0
 11
602.975
 21
-576.8409999999999
 31
0.0
  0
LINE
  5
278
330
17
100
AcDbEntity
  8
0
100
AcDbLine
 10
602.975
 20
-576.8409999999999
 30
0.0
 11
603.528
 21
-577.7509999999999
 31
0.0
  0
LINE
  5
279
330
17
100
AcDbEntity
  8
0
100
AcDbLine
 10
603.528
 20
-577.7509999999999
 30
0.0
 11
603.993
 21
-578.7149999999999
 31
0.0
  0
LINE
  5
27A
330
17
100
AcDbEntity
  8
0
100
AcDbLine
 10
603.993
 20
-578.7149999999999
 30
0.0
 11
604.364
 21
-579.728
 31
0.0
  0
LINE
  5
27B
330
17
100
AcDbEntity
  8
0
100
AcDbLine
 10
604.364
 20
-579.728
 30
0.0
 11
604.6360000000001
 21
-580.785
 31
0.0
  0
LINE
  5
27C
330
17
100
AcDbEntity
  8
0
100
AcDbLine
 10
604.6360000000001
 20
-580.785
 30
0.0
 11
604.8030000000001
 21
-581.88
 31
0.0
  0
LINE
  5
27D
330
17
100
AcDbEntity
  8
0
100
AcDbLine
 10
604.8030000000001
 20
-581.88
 30
0.0
 11
604.8600000000001
 21
-583.008
 31
0.0
  0
LINE
  5
27E
330
17
100
AcDbEntity
  8
0
100
AcDbLine
 10
536.9000000000001
 20
-358.72400000000005
 30
0.0
 11
534.214
 21
-355.951
 31
0.0
  0
LINE
  5
27F
330
17
100
AcDbEntity
  8
0
100
AcDbLine
 10
534.214
 20
-355.951
 30
0.0
 11
520.4380000000001
 21
-356.038
 31
0.0
  0
LINE
  5
280
330
17
100
AcDbEntity
  8
0
100
AcDbLine
 10
520.4380000000001
 20
-356.038
 30
0.0
 11
518.4530000000001
 21
-359.187
 31
0.0
  0
LINE
  5
281
330
17
100
AcDbEntity
  8
0
100
AcDbLine
 10
518.4530000000001
 20
-359.187
 30
0.0
 11
516.5600000000001
 21
-362.861
 31
0.0
  0
LINE
  5
282
330
17
100
AcDbEntity
  8
0
100
AcDbLine
 10
516.5600000000001
 20
-362.861
 30
0.0
 11
514.589
 21
-367.703
 31
0.0
  0
LINE
  5
283
330
17
100
AcDbEntity
  8
0
100
AcDbLine
 10
514.589
 20
-367.703
 30
0.0
 11
512.932
 21
-373.53799999999995
 31
0.0
  0
LINE
  5
284
330
17
100
AcDbEntity
  8
0
100
AcDbLine
 10
512.932
 20
-373.53799999999995
 30
0.0
 11
512.344
 21
-376.77299999999997
 31
0.0
  0
LINE
  5
285
330
17
100
AcDbEntity
  8
0
100
AcDbLine
 10
512.344
 20
-376.77299999999997
 30
0.0
 11
511.982
 21
-380.191
 31
0.0
  0
LINE
  5
286
330
17
100
AcDbEntity
  8
0
100
AcDbLine
 10
511.982
 20
-380.191
 30
0.0
 11
511.894
 21
-383.77
 31
0.0
  0
LINE
  5
287
330
17
100
AcDbEntity
  8
0
100
AcDbLine
 10
511.894
 20
-383.77
 30
0.0
 11
512.13
 21
-387.488
 31
0.0
  0
LINE
  5
288
330
17
100
AcDbEntity
  8
0
100
AcDbLine
 10
512.13
 20
-387.488
 30
0.0
 11
512.7379999999999
 21
-391.324
 31
0.0
  0
LINE
  5
289
330
17
100
AcDbEntity
  8
0
100
AcDbLine
 10
512.7379999999999
 20
-391.324
 30
0.0
 11
513.957
 21
-395.932
 31
0.0
  0
LINE
  5
28A
330
17
100
AcDbEntity
  8
0
100
AcDbLine
 10
513.957
 20
-395.932
 30
0.0
 11
514.199
 21
-397.30100000000004
 31
0.0
  0
LINE
  5
28B
330
17
100
AcDbEntity
  8
0
100
AcDbLine
 10
514.199
 20
-397.30100000000004
 30
0.0
 11
514.2629999999999
 21
-398.67800000000005
 31
0.0
  0
LINE
  5
28C
330
17
100
AcDbEntity
  8
0
100
AcDbLine
 10
514.2629999999999
 20
-398.67800000000005
 30
0.0
 11
514.1539999999999
 21
-400.0470000000001
 31
0.0
  0
LINE
  5
28D
330
17
100
AcDbEntity
  8
0
100
AcDbLine
 10
514.1539999999999
 20
-400.0470000000001
 30
0.0
 11
513.8769999999998
 21
-401.3920000000001
 31
0.0
  0
LINE
  5
28E
330
17
100
AcDbEntity
  8
0
100
AcDbLine
 10
513.8769999999998
 20
-401.3920000000001
 30
0.0
 11
513.4379999999999
 21
-402.6970000000001
 31
0.0
  0
LINE
  5
28F
330
17
100
AcDbEntity
  8
0
100
AcDbLine
 10
513.4379999999999
 20
-402.6970000000001
 30
0.0
 11
512.8419999999999
 21
-403.9470000000001
 31
0.0
  0
LINE
  5
290
330
17
100
AcDbEntity
  8
0
100
AcDbLine
 10
512.8419999999999
 20
-403.9470000000001
 30
0.0
 11
512.0949999999999
 21
-405.1260000000001
 31
0.0
  0
LINE
  5
291
330
17
100
AcDbEntity
  8
0
100
AcDbLine
 10
512.0949999999999
 20
-405.1260000000001
 30
0.0
 11
506.7489999999999
 21
-411.6960000000001
 31
0.0
  0
LINE
  5
292
330
17
100
AcDbEntity
  8
0
100
AcDbLine
 10
506.7489999999999
 20
-411.6960000000001
 30
0.0
 11
507.1379999999999
 21
-411.9220000000001
 31
0.0
  0
LINE
  5
293
330
17
100
AcDbEntity
  8
0
100
AcDbLine
 10
507.1379999999999
 20
-411.9220000000001
 30
0.0
 11
508.1529999999999
 21
-412.6300000000001
 31
0.0
  0
LINE
  5
294
330
17
100
AcDbEntity
  8
0
100
AcDbLine
 10
508.1529999999999
 20
-412.6300000000001
 30
0.0
 11
509.5679999999999
 21
-413.8660000000001
 31
0.0
  0
LINE
  5
295
330
17
100
AcDbEntity
  8
0
100
AcDbLine
 10
509.5679999999999
 20
-413.8660000000001
 30
0.0
 11
510.3549999999999
 21
-414.6970000000001
 31
0.0
  0
LINE
  5
296
330
17
100
AcDbEntity
  8
0
100
AcDbLine
 10
510.3549999999999
 20
-414.6970000000001
 30
0.0
 11
511.1569999999999
 21
-415.67700000000013
 31
0.0
  0
LINE
  5
297
330
17
100
AcDbEntity
  8
0
100
AcDbLine
 10
511.1569999999999
 20
-415.67700000000013
 30
0.0
 11
511.9459999999999
 21
-416.81300000000016
 31
0.0
  0
LINE
  5
298
330
17
100
AcDbEntity
  8
0
100
AcDbLine
 10
511.9459999999999
 20
-416.81300000000016
 30
0.0
 11
512.6929999999999
 21
-418.1100000000002
 31
0.0
  0
LINE
  5
299
330
17
100
AcDbEntity
  8
0
100
AcDbLine
 10
512.6929999999999
 20
-418.1100000000002
 30
0.0
 11
513.3699999999999
 21
-419.5740000000002
 31
0.0
  0
LINE
  5
29A
330
17
100
AcDbEntity
  8
0
100
AcDbLine
 10
513.3699999999999
 20
-419.5740000000002
 30
0.0
 11
513.9489999999998
 21
-421.2110000000002
 31
0.0
  0
LINE
  5
29B
330
17
100
AcDbEntity
  8
0
100
AcDbLine
 10
513.9489999999998
 20
-421.2110000000002
 30
0.0
 11
514.4019999999998
 21
-423.0260000000002
 31
0.0
  0
LINE
  5
29C
330
17
100
AcDbEntity
  8
0
100
AcDbLine
 10
514.4019999999998
 20
-423.0260000000002
 30
0.0
 11
514.6999999999998
 21
-425.0250000000002
 31
0.0
  0
LINE
  5
29D
330
17
100
AcDbEntity
  8
0
100
AcDbLine
 10
514.6999999999998
 20
-425.0250000000002
 30
0.0
 11
514.8149999999998
 21
-427.2150000000002
 31
0.0
  0
LINE
  5
29E
330
17
100
AcDbEntity
  8
0
100
AcDbLine
 10
514.8149999999998
 20
-427.2150000000002
 30
0.0
 11
514.7189999999998
 21
-429.6010000000002
 31
0.0
  0
LINE
  5
29F
330
17
100
AcDbEntity
  8
0
100
AcDbLine
 10
514.7189999999998
 20
-429.6010000000002
 30
0.0
 11
523.5559999999998
 21
-436.5320000000002
 31
0.0
  0
LINE
  5
2A0
330
17
100
AcDbEntity
  8
0
100
AcDbLine
 10
523.5559999999998
 20
-436.5320000000002
 30
0.0
 11
520.7819999999998
 21
-422.4940000000002
 31
0.0
  0
LINE
  5
2A1
330
17
100
AcDbEntity
  8
0
100
AcDbLine
 10
520.7819999999998
 20
-422.4940000000002
 30
0.0
 11
520.7149999999998
 21
-421.6620000000002
 31
0.0
  0
LINE
  5
2A2
330
17
100
AcDbEntity
  8
0
100
AcDbLine
 10
520.7149999999998
 20
-421.6620000000002
 30
0.0
 11
520.7119999999998
 21
-420.83400000000023
 31
0.0
  0
LINE
  5
2A3
330
17
100
AcDbEntity
  8
0
100
AcDbLine
 10
520.7119999999998
 20
-420.83400000000023
 30
0.0
 11
520.7719999999997
 21
-420.01400000000024
 31
0.0
  0
LINE
  5
2A4
330
17
100
AcDbEntity
  8
0
100
AcDbLine
 10
520.7719999999997
 20
-420.01400000000024
 30
0.0
 11
520.8939999999997
 21
-419.2050000000002
 31
0.0
  0
LINE
  5
2A5
330
17
100
AcDbEntity
  8
0
100
AcDbLine
 10
520.8939999999997
 20
-419.2050000000002
 30
0.0
 11
521.0759999999997
 21
-418.41100000000023
 31
0.0
  0
LINE
  5
2A6
330
17
100
AcDbEntity
  8
0
100
AcDbLine
 10
521.0759999999997
 20
-418.41100000000023
 30
0.0
 11
521.3169999999997
 21
-417.6350000000002
 31
0.0
  0
LINE
  5
2A7
330
17
100
AcDbEntity
  8
0
100
AcDbLine
 10
521.3169999999997
 20
-417.6350000000002
 30
0.0
 11
521.6159999999996
 21
-416.8810000000002
 31
0.0
  0
LINE
  5
2A8
330
17
100
AcDbEntity
  8
0
100
AcDbLine
 10
521.6159999999996
 20
-416.8810000000002
 30
0.0
 11
521.9709999999997
 21
-416.1530000000002
 31
0.0
  0
LINE
  5
2A9
330
17
100
AcDbEntity
  8
0
100
AcDbLine
 10
521.9709999999997
 20
-416.1530000000002
 30
0.0
 11
522.3809999999996
 21
-415.4540000000002
 31
0.0
  0
LINE
  5
2AA
330
17
100
AcDbEntity
  8
0
100
AcDbLine
 10
522.3809999999996
 20
-415.4540000000002
 30
0.0
 11
522.8449999999997
 21
-414.7880000000002
 31
0.0
  0
LINE
  5
2AB
330
17
100
AcDbEntity
  8
0
100
AcDbLine
 10
522.8449999999997
 20
-414.7880000000002
 30
0.0
 11
523.3619999999997
 21
-414.1580000000002
 31
0.0
  0
LINE
  5
2AC
330
17
100
AcDbEntity
  8
0
100
AcDbLine
 10
523.3619999999997
 20
-414.1580000000002
 30
0.0
 11
523.9299999999997
 21
-413.5680000000002
 31
0.0
  0
LINE
  5
2AD
330
17
100
AcDbEntity
  8
0
100
AcDbLine
 10
523.9299999999997
 20
-413.5680000000002
 30
0.0
 11
524.5469999999997
 21
-413.0220000000002
 31
0.0
  0
LINE
  5
2AE
330
17
100
AcDbEntity
  8
0
100
AcDbLine
 10
524.5469999999997
 20
-413.0220000000002
 30
0.0
 11
525.2129999999997
 21
-412.5230000000002
 31
0.0
  0
LINE
  5
2AF
330
17
100
AcDbEntity
  8
0
100
AcDbLine
 10
525.2129999999997
 20
-412.5230000000002
 30
0.0
 11
527.7289999999997
 21
-411.1170000000002
 31
0.0
  0
LINE
  5
2B0
330
17
100
AcDbEntity
  8
0
100
AcDbLine
 10
527.7289999999997
 20
-411.1170000000002
 30
0.0
 11
530.5249999999997
 21
-409.8860000000002
 31
0.0
  0
LINE
  5
2B1
330
17
100
AcDbEntity
  8
0
100
AcDbLine
 10
530.5249999999997
 20
-409.8860000000002
 30
0.0
 11
533.7839999999998
 21
-408.7750000000002
 31
0.0
  0
LINE
  5
2B2
330
17
100
AcDbEntity
  8
0
100
AcDbLine
 10
533.7839999999998
 20
-408.7750000000002
 30
0.0
 11
538.5359999999997
 21
-407.6640000000002
 31
0.0
  0
LINE
  5
2B3
330
17
100
AcDbEntity
  8
0
100
AcDbLine
 10
538.5359999999997
 20
-407.6640000000002
 30
0.0
 11
537.0519999999997
 21
-405.9290000000002
 31
0.0
  0
LINE
  5
2B4
330
17
100
AcDbEntity
  8
0
100
AcDbLine
 10
537.0519999999997
 20
-405.9290000000002
 30
0.0
 11
534.8749999999997
 21
-402.8030000000002
 31
0.0
  0
LINE
  5
2B5
330
17
100
AcDbEntity
  8
0
100
AcDbLine
 10
534.8749999999997
 20
-402.8030000000002
 30
0.0
 11
532.5349999999996
 21
-398.35500000000025
 31
0.0
  0
LINE
  5
2B6
330
17
100
AcDbEntity
  8
0
100
AcDbLine
 10
532.5349999999996
 20
-398.35500000000025
 30
0.0
 11
531.4689999999996
 21
-395.65700000000027
 31
0.0
  0
LINE
  5
2B7
330
17
100
AcDbEntity
  8
0
100
AcDbLine
 10
531.4689999999996
 20
-395.65700000000027
 30
0.0
 11
530.5599999999996
 21
-392.65500000000026
 31
0.0
  0
LINE
  5
2B8
330
17
100
AcDbEntity
  8
0
100
AcDbLine
 10
530.5599999999996
 20
-392.65500000000026
 30
0.0
 11
529.8749999999997
 21
-389.35700000000026
 31
0.0
  0
LINE
  5
2B9
330
17
100
AcDbEntity
  8
0
100
AcDbLine
 10
529.8749999999997
 20
-389.35700000000026
 30
0.0
 11
529.4799999999997
 21
-385.77300000000025
 31
0.0
  0
LINE
  5
2BA
330
17
100
AcDbEntity
  8
0
100
AcDbLine
 10
529.4799999999997
 20
-385.77300000000025
 30
0.0
 11
529.4409999999997
 21
-381.91000000000025
 31
0.0
  0
LINE
  5
2BB
330
17
100
AcDbEntity
  8
0
100
AcDbLine
 10
529.4409999999997
 20
-381.91000000000025
 30
0.0
 11
529.8239999999997
 21
-377.77800000000025
 31
0.0
  0
LINE
  5
2BC
330
17
100
AcDbEntity
  8
0
100
AcDbLine
 10
529.8239999999997
 20
-377.77800000000025
 30
0.0
 11
530.6949999999997
 21
-373.3850000000003
 31
0.0
  0
LINE
  5
2BD
330
17
100
AcDbEntity
  8
0
100
AcDbLine
 10
530.6949999999997
 20
-373.3850000000003
 30
0.0
 11
532.1199999999997
 21
-368.7400000000003
 31
0.0
  0
LINE
  5
2BE
330
17
100
AcDbEntity
  8
0
100
AcDbLine
 10
532.1199999999997
 20
-368.7400000000003
 30
0.0
 11
534.1659999999997
 21
-363.8510000000003
 31
0.0
  0
LINE
  5
2BF
330
17
100
AcDbEntity
  8
0
100
AcDbLine
 10
534.1659999999997
 20
-363.8510000000003
 30
0.0
 11
536.8979999999997
 21
-358.7280000000003
 31
0.0
  0
LINE
  5
2C0
330
17
100
AcDbEntity
  8
0
100
AcDbLine
 10
595.0069999999997
 20
-364.0020000000003
 30
0.0
 11
594.6509999999997
 21
-362.8920000000003
 31
0.0
  0
LINE
  5
2C1
330
17
100
AcDbEntity
  8
0
100
AcDbLine
 10
594.6509999999997
 20
-362.8920000000003
 30
0.0
 11
594.1689999999998
 21
-361.8310000000003
 31
0.0
  0
LINE
  5
2C2
330
17
100
AcDbEntity
  8
0
100
AcDbLine
 10
594.1689999999998
 20
-361.8310000000003
 30
0.0
 11
593.5699999999997
 21
-360.8310000000003
 31
0.0
  0
LINE
  5
2C3
330
17
100
AcDbEntity
  8
0
100
AcDbLine
 10
593.5699999999997
 20
-360.8310000000003
 30
0.0
 11
592.8639999999997
 21
-359.9030000000003
 31
0.0
  0
LINE
  5
2C4
330
17
100
AcDbEntity
  8
0
100
AcDbLine
 10
592.8639999999997
 20
-359.9030000000003
 30
0.0
 11
592.0599999999997
 21
-359.0580000000003
 31
0.0
  0
LINE
  5
2C5
330
17
100
AcDbEntity
  8
0
100
AcDbLine
 10
592.0599999999997
 20
-359.0580000000003
 30
0.0
 11
591.1679999999997
 21
-358.3070000000003
 31
0.0
  0
LINE
  5
2C6
330
17
100
AcDbEntity
  8
0
100
AcDbLine
 10
591.1679999999997
 20
-358.3070000000003
 30
0.0
 11
590.1979999999996
 21
-357.6620000000003
 31
0.0
  0
LINE
  5
2C7
330
17
100
AcDbEntity
  8
0
100
AcDbLine
 10
590.1979999999996
 20
-357.6620000000003
 30
0.0
 11
589.1589999999997
 21
-357.1340000000003
 31
0.0
  0
LINE
  5
2C8
330
17
100
AcDbEntity
  8
0
100
AcDbLine
 10
589.1589999999997
 20
-357.1340000000003
 30
0.0
 11
592.7699999999996
 21
-353.1680000000003
 31
0.0
  0
LINE
  5
2C9
330
17
100
AcDbEntity
  8
0
100
AcDbLine
 10
592.7699999999996
 20
-353.1680000000003
 30
0.0
 11
606.0959999999997
 21
-353.1440000000003
 31
0.0
  0
LINE
  5
2CA
330
17
100
AcDbEntity
  8
0
100
AcDbLine
 10
606.0959999999997
 20
-353.1440000000003
 30
0.0
 11
606.4149999999996
 21
-353.1800000000003
 31
0.0
  0
LINE
  5
2CB
330
17
100
AcDbEntity
  8
0
100
AcDbLine
 10
606.4149999999996
 20
-353.1800000000003
 30
0.0
 11
606.5699999999996
 21
-353.2140000000003
 31
0.0
  0
LINE
  5
2CC
330
17
100
AcDbEntity
  8
0
100
AcDbLine
 10
606.5699999999996
 20
-353.2140000000003
 30
0.0
 11
606.7189999999996
 21
-353.2620000000003
 31
0.0
  0
LINE
  5
2CD
330
17
100
AcDbEntity
  8
0
100
AcDbLine
 10
606.7189999999996
 20
-353.2620000000003
 30
0.0
 11
606.8619999999996
 21
-353.3260000000003
 31
0.0
  0
LINE
  5
2CE
330
17
100
AcDbEntity
  8
0
100
AcDbLine
 10
606.8619999999996
 20
-353.3260000000003
 30
0.0
 11
606.9959999999996
 21
-353.4080000000003
 31
0.0
  0
LINE
  5
2CF
330
17
100
AcDbEntity
  8
0
100
AcDbLine
 10
606.9959999999996
 20
-353.4080000000003
 30
0.0
 11
607.1209999999996
 21
-353.5110000000003
 31
0.0
  0
LINE
  5
2D0
330
17
100
AcDbEntity
  8
0
100
AcDbLine
 10
607.1209999999996
 20
-353.5110000000003
 30
0.0
 11
607.2309999999997
 21
-353.6280000000003
 31
0.0
  0
LINE
  5
2D1
330
17
100
AcDbEntity
  8
0
100
AcDbLine
 10
607.2309999999997
 20
-353.6280000000003
 30
0.0
 11
607.3289999999996
 21
-353.75700000000035
 31
0.0
  0
LINE
  5
2D2
330
17
100
AcDbEntity
  8
0
100
AcDbLine
 10
607.3289999999996
 20
-353.75700000000035
 30
0.0
 11
607.9529999999996
 21
-354.8300000000003
 31
0.0
  0
LINE
  5
2D3
330
17
100
AcDbEntity
  8
0
100
AcDbLine
 10
607.9529999999996
 20
-354.8300000000003
 30
0.0
 11
608.2079999999996
 21
-355.15900000000033
 31
0.0
  0
LINE
  5
2D4
330
17
100
AcDbEntity
  8
0
100
AcDbLine
 10
608.2079999999996
 20
-355.15900000000033
 30
0.0
 11
608.4949999999997
 21
-355.46100000000035
 31
0.0
  0
LINE
  5
2D5
330
17
100
AcDbEntity
  8
0
100
AcDbLine
 10
608.4949999999997
 20
-355.46100000000035
 30
0.0
 11
608.8099999999997
 21
-355.7340000000004
 31
0.0
  0
LINE
  5
2D6
330
17
100
AcDbEntity
  8
0
100
AcDbLine
 10
608.8099999999997
 20
-355.7340000000004
 30
0.0
 11
609.1499999999997
 21
-355.97500000000036
 31
0.0
  0
LINE
  5
2D7
330
17
100
AcDbEntity
  8
0
100
AcDbLine
 10
609.1499999999997
 20
-355.97500000000036
 30
0.0
 11
609.5119999999997
 21
-356.18200000000036
 31
0.0
  0
LINE
  5
2D8
330
17
100
AcDbEntity
  8
0
100
AcDbLine
 10
609.5119999999997
 20
-356.18200000000036
 30
0.0
 11
609.8919999999997
 21
-356.3520000000004
 31
0.0
  0
LINE
  5
2D9
330
17
100
AcDbEntity
  8
0
100
AcDbLine
 10
609.8919999999997
 20
-356.3520000000004
 30
0.0
 11
610.2879999999997
 21
-356.48300000000035
 31
0.0
  0
LINE
  5
2DA
330
17
100
AcDbEntity
  8
0
100
AcDbLine
 10
610.2879999999997
 20
-356.48300000000035
 30
0.0
 11
594.2479999999997
 21
-372.29100000000034
 31
0.0
  0
LINE
  5
2DB
330
17
100
AcDbEntity
  8
0
100
AcDbLine
 10
594.2479999999997
 20
-372.29100000000034
 30
0.0
 11
594.1619999999997
 21
-372.3570000000003
 31
0.0
  0
LINE
  5
2DC
330
17
100
AcDbEntity
  8
0
100
AcDbLine
 10
594.1619999999997
 20
-372.3570000000003
 30
0.0
 11
594.0789999999997
 21
-372.4070000000003
 31
0.0
  0
LINE
  5
2DD
330
17
100
AcDbEntity
  8
0
100
AcDbLine
 10
594.0789999999997
 20
-372.4070000000003
 30
0.0
 11
594.0389999999998
 21
-372.4250000000003
 31
0.0
  0
LINE
  5
2DE
330
17
100
AcDbEntity
  8
0
100
AcDbLine
 10
594.0389999999998
 20
-372.4250000000003
 30
0.0
 11
594.0009999999997
 21
-372.4380000000003
 31
0.0
  0
LINE
  5
2DF
330
17
100
AcDbEntity
  8
0
100
AcDbLine
 10
594.0009999999997
 20
-372.4380000000003
 30
0.0
 11
593.9829999999997
 21
-372.4420000000003
 31
0.0
  0
LINE
  5
2E0
330
17
100
AcDbEntity
  8
0
100
AcDbLine
 10
593.9829999999997
 20
-372.4420000000003
 30
0.0
 11
593.9649999999997
 21
-372.4450000000003
 31
0.0
  0
LINE
  5
2E1
330
17
100
AcDbEntity
  8
0
100
AcDbLine
 10
593.9649999999997
 20
-372.4450000000003
 30
0.0
 11
593.9469999999997
 21
-372.44600000000025
 31
0.0
  0
LINE
  5
2E2
330
17
100
AcDbEntity
  8
0
100
AcDbLine
 10
593.9469999999997
 20
-372.44600000000025
 30
0.0
 11
593.9299999999996
 21
-372.44600000000025
 31
0.0
  0
LINE
  5
2E3
330
17
100
AcDbEntity
  8
0
100
AcDbLine
 10
593.9299999999996
 20
-372.44600000000025
 30
0.0
 11
593.9139999999996
 21
-372.44400000000024
 31
0.0
  0
LINE
  5
2E4
330
17
100
AcDbEntity
  8
0
100
AcDbLine
 10
593.9139999999996
 20
-372.44400000000024
 30
0.0
 11
593.8979999999997
 21
-372.4400000000002
 31
0.0
  0
LINE
  5
2E5
330
17
100
AcDbEntity
  8
0
100
AcDbLine
 10
593.8979999999997
 20
-372.4400000000002
 30
0.0
 11
593.8829999999997
 21
-372.43400000000025
 31
0.0
  0
LINE
  5
2E6
330
17
100
AcDbEntity
  8
0
100
AcDbLine
 10
593.8829999999997
 20
-372.43400000000025
 30
0.0
 11
593.8679999999997
 21
-372.42700000000025
 31
0.0
  0
LINE
  5
2E7
330
17
100
AcDbEntity
  8
0
100
AcDbLine
 10
593.8679999999997
 20
-372.42700000000025
 30
0.0
 11
593.8539999999997
 21
-372.41800000000023
 31
0.0
  0
LINE
  5
2E8
330
17
100
AcDbEntity
  8
0
100
AcDbLine
 10
593.8539999999997
 20
-372.41800000000023
 30
0.0
 11
593.8409999999997
 21
-372.4070000000002
 31
0.0
  0
LINE
  5
2E9
330
17
100
AcDbEntity
  8
0
100
AcDbLine
 10
593.8409999999997
 20
-372.4070000000002
 30
0.0
 11
593.8279999999996
 21
-372.39400000000023
 31
0.0
  0
LINE
  5
2EA
330
17
100
AcDbEntity
  8
0
100
AcDbLine
 10
593.8279999999996
 20
-372.39400000000023
 30
0.0
 11
593.8159999999997
 21
-372.37900000000025
 31
0.0
  0
LINE
  5
2EB
330
17
100
AcDbEntity
  8
0
100
AcDbLine
 10
593.8159999999997
 20
-372.37900000000025
 30
0.0
 11
593.8049999999997
 21
-372.3610000000003
 31
0.0
  0
LINE
  5
2EC
330
17
100
AcDbEntity
  8
0
100
AcDbLine
 10
593.8049999999997
 20
-372.3610000000003
 30
0.0
 11
593.7949999999997
 21
-372.3410000000003
 31
0.0
  0
LINE
  5
2ED
330
17
100
AcDbEntity
  8
0
100
AcDbLine
 10
593.7949999999997
 20
-372.3410000000003
 30
0.0
 11
593.7759999999997
 21
-372.2950000000003
 31
0.0
  0
LINE
  5
2EE
330
17
100
AcDbEntity
  8
0
100
AcDbLine
 10
593.7759999999997
 20
-372.2950000000003
 30
0.0
 11
593.7609999999997
 21
-372.2390000000003
 31
0.0
  0
LINE
  5
2EF
330
17
100
AcDbEntity
  8
0
100
AcDbLine
 10
593.7609999999997
 20
-372.2390000000003
 30
0.0
 11
593.7489999999998
 21
-372.17300000000034
 31
0.0
  0
LINE
  5
2F0
330
17
100
AcDbEntity
  8
0
100
AcDbLine
 10
593.7489999999998
 20
-372.17300000000034
 30
0.0
 11
593.7459999999998
 21
-372.13100000000037
 31
0.0
  0
LINE
  5
2F1
330
17
100
AcDbEntity
  8
0
100
AcDbLine
 10
593.7459999999998
 20
-372.13100000000037
 30
0.0
 11
593.7469999999997
 21
-372.08600000000035
 31
0.0
  0
LINE
  5
2F2
330
17
100
AcDbEntity
  8
0
100
AcDbLine
 10
593.7469999999997
 20
-372.08600000000035
 30
0.0
 11
593.7519999999997
 21
-372.0390000000003
 31
0.0
  0
LINE
  5
2F3
330
17
100
AcDbEntity
  8
0
100
AcDbLine
 10
593.7519999999997
 20
-372.0390000000003
 30
0.0
 11
593.7719999999997
 21
-371.9390000000003
 31
0.0
  0
LINE
  5
2F4
330
17
100
AcDbEntity
  8
0
100
AcDbLine
 10
593.7719999999997
 20
-371.9390000000003
 30
0.0
 11
593.8059999999997
 21
-371.8320000000003
 31
0.0
  0
LINE
  5
2F5
330
17
100
AcDbEntity
  8
0
100
AcDbLine
 10
593.8059999999997
 20
-371.8320000000003
 30
0.0
 11
593.9049999999997
 21
-371.6010000000003
 31
0.0
  0
LINE
  5
2F6
330
17
100
AcDbEntity
  8
0
100
AcDbLine
 10
593.9049999999997
 20
-371.6010000000003
 30
0.0
 11
594.5429999999998
 21
-370.46700000000027
 31
0.0
  0
LINE
  5
2F7
330
17
100
AcDbEntity
  8
0
100
AcDbLine
 10
594.5429999999998
 20
-370.46700000000027
 30
0.0
 11
594.8679999999998
 21
-369.54900000000026
 31
0.0
  0
LINE
  5
2F8
330
17
100
AcDbEntity
  8
0
100
AcDbLine
 10
594.8679999999998
 20
-369.54900000000026
 30
0.0
 11
595.1099999999998
 21
-368.58800000000025
 31
0.0
  0
LINE
  5
2F9
330
17
100
AcDbEntity
  8
0
100
AcDbLine
 10
595.1099999999998
 20
-368.58800000000025
 30
0.0
 11
595.2679999999998
 21
-367.5410000000002
 31
0.0
  0
LINE
  5
2FA
330
17
100
AcDbEntity
  8
0
100
AcDbLine
 10
595.2679999999998
 20
-367.5410000000002
 30
0.0
 11
595.3199999999998
 21
-366.40300000000025
 31
0.0
  0
LINE
  5
2FB
330
17
100
AcDbEntity
  8
0
100
AcDbLine
 10
595.3199999999998
 20
-366.40300000000025
 30
0.0
 11
595.2469999999998
 21
-365.26600000000025
 31
0.0
  0
LINE
  5
2FC
330
17
100
AcDbEntity
  8
0
100
AcDbLine
 10
595.2469999999998
 20
-365.26600000000025
 30
0.0
 11
595.0109999999999
 21
-364.00600000000026
 31
0.0
  0
LINE
  5
2FD
330
17
100
AcDbEntity
  8
0
100
AcDbLine
 10
636.0419999999998
 20
-366.23200000000026
 30
0.0
 11
636.0889999999998
 21
-366.23200000000026
 31
0.0
  0
LINE
  5
2FE
330
17
100
AcDbEntity
  8
0
100
AcDbLine
 10
177.8879999999998
 20
-310.38100000000026
 30
0.0
 11
448.1389999999998
 21
-310.97800000000024
 31
0.0
  0
LINE
  5
2FF
330
17
100
AcDbEntity
  8
0
100
AcDbLine
 10
448.1389999999998
 20
-310.97800000000024
 30
0.0
 11
423.28399999999976
 21
-314.66100000000023
 31
0.0
  0
LINE
  5
300
330
17
100
AcDbEntity
  8
0
100
AcDbLine
 10
423.28399999999976
 20
-314.66100000000023
 30
0.0
 11
192.10599999999977
 21
-313.8130000000002
 31
0.0
  0
LINE
  5
301
330
17
100
AcDbEntity
  8
0
100
AcDbLine
 10
192.10599999999977
 20
-313.8130000000002
 30
0.0
 11
177.88799999999978
 21
-310.3810000000002
 31
0.0
  0
LINE
  5
302
330
17
100
AcDbEntity
  8
0
100
AcDbLine
 10
451.0699999999998
 20
-384.5300000000002
 30
0.0
 11
438.6239999999998
 21
-340.7340000000002
 31
0.0
  0
LINE
  5
303
330
17
100
AcDbEntity
  8
0
100
AcDbLine
 10
596.2059999999998
 20
-504.8810000000002
 30
0.0
 11
596.1079999999998
 21
-506.8270000000002
 31
0.0
  0
LINE
  5
304
330
17
100
AcDbEntity
  8
0
100
AcDbLine
 10
596.1079999999998
 20
-506.8270000000002
 30
0.0
 11
595.8199999999998
 21
-508.7170000000002
 31
0.0
  0
LINE
  5
305
330
17
100
AcDbEntity
  8
0
100
AcDbLine
 10
595.8199999999998
 20
-508.7170000000002
 30
0.0
 11
595.3509999999998
 21
-510.5410000000002
 31
0.0
  0
LINE
  5
306
330
17
100
AcDbEntity
  8
0
100
AcDbLine
 10
595.3509999999998
 20
-510.5410000000002
 30
0.0
 11
594.7109999999998
 21
-512.2900000000002
 31
0.0
  0
LINE
  5
307
330
17
100
AcDbEntity
  8
0
100
AcDbLine
 10
594.7109999999998
 20
-512.2900000000002
 30
0.0
 11
593.9099999999997
 21
-513.9540000000002
 31
0.0
  0
LINE
  5
308
330
17
100
AcDbEntity
  8
0
100
AcDbLine
 10
593.9099999999997
 20
-513.9540000000002
 30
0.0
 11
592.9569999999998
 21
-515.5230000000001
 31
0.0
  0
LINE
  5
309
330
17
100
AcDbEntity
  8
0
100
AcDbLine
 10
592.9569999999998
 20
-515.5230000000001
 30
0.0
 11
591.8609999999998
 21
-516.9880000000002
 31
0.0
  0
LINE
  5
30A
330
17
100
AcDbEntity
  8
0
100
AcDbLine
 10
591.8609999999998
 20
-516.9880000000002
 30
0.0
 11
590.6329999999998
 21
-518.3400000000001
 31
0.0
  0
LINE
  5
30B
330
17
100
AcDbEntity
  8
0
100
AcDbLine
 10
590.6329999999998
 20
-518.3400000000001
 30
0.0
 11
589.2809999999998
 21
-519.5680000000001
 31
0.0
  0
LINE
  5
30C
330
17
100
AcDbEntity
  8
0
100
AcDbLine
 10
589.2809999999998
 20
-519.5680000000001
 30
0.0
 11
587.8159999999998
 21
-520.6640000000001
 31
0.0
  0
LINE
  5
30D
330
17
100
AcDbEntity
  8
0
100
AcDbLine
 10
587.8159999999998
 20
-520.6640000000001
 30
0.0
 11
586.2469999999998
 21
-521.6170000000001
 31
0.0
  0
LINE
  5
30E
330
17
100
AcDbEntity
  8
0
100
AcDbLine
 10
586.2469999999998
 20
-521.6170000000001
 30
0.0
 11
584.5829999999999
 21
-522.4190000000001
 31
0.0
  0
LINE
  5
30F
330
17
100
AcDbEntity
  8
0
100
AcDbLine
 10
584.5829999999999
 20
-522.4190000000001
 30
0.0
 11
582.8339999999998
 21
-523.0590000000001
 31
0.0
  0
LINE
  5
310
330
17
100
AcDbEntity
  8
0
100
AcDbLine
 10
582.8339999999998
 20
-523.0590000000001
 30
0.0
 11
581.0099999999999
 21
-523.5280000000001
 31
0.0
  0
LINE
  5
311
330
17
100
AcDbEntity
  8
0
100
AcDbLine
 10
581.0099999999999
 20
-523.5280000000001
 30
0.0
 11
579.1199999999999
 21
-523.8160000000001
 31
0.0
  0
LINE
  5
312
330
17
100
AcDbEntity
  8
0
100
AcDbLine
 10
579.1199999999999
 20
-523.8160000000001
 30
0.0
 11
577.1739999999999
 21
-523.9140000000001
 31
0.0
  0
LINE
  5
313
330
17
100
AcDbEntity
  8
0
100
AcDbLine
 10
577.1739999999999
 20
-523.9140000000001
 30
0.0
 11
575.2279999999998
 21
-523.8160000000001
 31
0.0
  0
LINE
  5
314
330
17
100
AcDbEntity
  8
0
100
AcDbLine
 10
575.2279999999998
 20
-523.8160000000001
 30
0.0
 11
573.3379999999999
 21
-523.5280000000001
 31
0.0
  0
LINE
  5
315
330
17
100
AcDbEntity
  8
0
100
AcDbLine
 10
573.3379999999999
 20
-523.5280000000001
 30
0.0
 11
571.5139999999999
 21
-523.0590000000001
 31
0.0
  0
LINE
  5
316
330
17
100
AcDbEntity
  8
0
100
AcDbLine
 10
571.5139999999999
 20
-523.0590000000001
 30
0.0
 11
569.7649999999999
 21
-522.4190000000001
 31
0.0
  0
LINE
  5
317
330
17
100
AcDbEntity
  8
0
100
AcDbLine
 10
569.7649999999999
 20
-522.4190000000001
 30
0.0
 11
568.1009999999999
 21
-521.6170000000001
 31
0.0
  0
LINE
  5
318
330
17
100
AcDbEntity
  8
0
100
AcDbLine
 10
568.1009999999999
 20
-521.6170000000001
 30
0.0
 11
566.5319999999999
 21
-520.6640000000001
 31
0.0
  0
LINE
  5
319
330
17
100
AcDbEntity
  8
0
100
AcDbLine
 10
566.5319999999999
 20
-520.6640000000001
 30
0.0
 11
565.0669999999999
 21
-519.5680000000001
 31
0.0
  0
LINE
  5
31A
330
17
100
AcDbEntity
  8
0
100
AcDbLine
 10
565.0669999999999
 20
-519.5680000000001
 30
0.0
 11
563.7149999999999
 21
-518.3400000000001
 31
0.0
  0
LINE
  5
31B
330
17
100
AcDbEntity
  8
0
100
AcDbLine
 10
563.7149999999999
 20
-518.3400000000001
 30
0.0
 11
562.487
 21
-516.9880000000002
 31
0.0
  0
LINE
  5
31C
330
17
100
AcDbEntity
  8
0
100
AcDbLine
 10
562.487
 20
-516.9880000000002
 30
0.0
 11
561.391
 21
-515.5230000000001
 31
0.0
  0
LINE
  5
31D
330
17
100
AcDbEntity
  8
0
100
AcDbLine
 10
561.391
 20
-515.5230000000001
 30
0.0
 11
560.438
 21
-513.9540000000002
 31
0.0
  0
LINE
  5
31E
330
17
100
AcDbEntity
  8
0
100
AcDbLine
 10
560.438
 20
-513.9540000000002
 30
0.0
 11
559.637
 21
-512.2900000000002
 31
0.0
  0
LINE
  5
31F
330
17
100
AcDbEntity
  8
0
100
AcDbLine
 10
559.637
 20
-512.2900000000002
 30
0.0
 11
558.997
 21
-510.54100000000017
 31
0.0
  0
LINE
  5
320
330
17
100
AcDbEntity
  8
0
100
AcDbLine
 10
558.997
 20
-510.54100000000017
 30
0.0
 11
558.5279999999999
 21
-508.71700000000016
 31
0.0
  0
LINE
  5
321
330
17
100
AcDbEntity
  8
0
100
AcDbLine
 10
558.5279999999999
 20
-508.71700000000016
 30
0.0
 11
558.2399999999999
 21
-506.82700000000017
 31
0.0
  0
LINE
  5
322
330
17
100
AcDbEntity
  8
0
100
AcDbLine
 10
558.2399999999999
 20
-506.82700000000017
 30
0.0
 11
558.1419999999999
 21
-504.88100000000014
 31
0.0
  0
LINE
  5
323
330
17
100
AcDbEntity
  8
0
100
AcDbLine
 10
558.1419999999999
 20
-504.88100000000014
 30
0.0
 11
558.2399999999999
 21
-502.9350000000001
 31
0.0
  0
LINE
  5
324
330
17
100
AcDbEntity
  8
0
100
AcDbLine
 10
558.2399999999999
 20
-502.9350000000001
 30
0.0
 11
558.5279999999999
 21
-501.04500000000013
 31
0.0
  0
LINE
  5
325
330
17
100
AcDbEntity
  8
0
100
AcDbLine
 10
558.5279999999999
 20
-501.04500000000013
 30
0.0
 11
558.997
 21
-499.2210000000001
 31
0.0
  0
LINE
  5
326
330
17
100
AcDbEntity
  8
0
100
AcDbLine
 10
558.997
 20
-499.2210000000001
 30
0.0
 11
559.637
 21
-497.4720000000001
 31
0.0
  0
LINE
  5
327
330
17
100
AcDbEntity
  8
0
100
AcDbLine
 10
559.637
 20
-497.4720000000001
 30
0.0
 11
560.438
 21
-495.8080000000001
 31
0.0
  0
LINE
  5
328
330
17
100
AcDbEntity
  8
0
100
AcDbLine
 10
560.438
 20
-495.8080000000001
 30
0.0
 11
561.391
 21
-494.2390000000001
 31
0.0
  0
LINE
  5
329
330
17
100
AcDbEntity
  8
0
100
AcDbLine
 10
561.391
 20
-494.2390000000001
 30
0.0
 11
562.487
 21
-492.7740000000001
 31
0.0
  0
LINE
  5
32A
330
17
100
AcDbEntity
  8
0
100
AcDbLine
 10
562.487
 20
-492.7740000000001
 30
0.0
 11
563.7149999999999
 21
-491.42200000000014
 31
0.0
  0
LINE
  5
32B
330
17
100
AcDbEntity
  8
0
100
AcDbLine
 10
563.7149999999999
 20
-491.42200000000014
 30
0.0
 11
565.0669999999999
 21
-490.19400000000013
 31
0.0
  0
LINE
  5
32C
330
17
100
AcDbEntity
  8
0
100
AcDbLine
 10
565.0669999999999
 20
-490.19400000000013
 30
0.0
 11
566.5319999999999
 21
-489.0980000000001
 31
0.0
  0
LINE
  5
32D
330
17
100
AcDbEntity
  8
0
100
AcDbLine
 10
566.5319999999999
 20
-489.0980000000001
 30
0.0
 11
568.1009999999999
 21
-488.14500000000015
 31
0.0
  0
LINE
  5
32E
330
17
100
AcDbEntity
  8
0
100
AcDbLine
 10
568.1009999999999
 20
-488.14500000000015
 30
0.0
 11
569.7649999999999
 21
-487.34400000000016
 31
0.0
  0
LINE
  5
32F
330
17
100
AcDbEntity
  8
0
100
AcDbLine
 10
569.7649999999999
 20
-487.34400000000016
 30
0.0
 11
571.5139999999999
 21
-486.7040000000002
 31
0.0
  0
LINE
  5
330
330
17
100
AcDbEntity
  8
0
100
AcDbLine
 10
571.5139999999999
 20
-486.7040000000002
 30
0.0
 11
573.3379999999999
 21
-486.2350000000002
 31
0.0
  0
LINE
  5
331
330
17
100
AcDbEntity
  8
0
100
AcDbLine
 10
573.3379999999999
 20
-486.2350000000002
 30
0.0
 11
575.2279999999998
 21
-485.9470000000002
 31
0.0
  0
LINE
  5
332
330
17
100
AcDbEntity
  8
0
100
AcDbLine
 10
575.2279999999998
 20
-485.9470000000002
 30
0.0
 11
577.1739999999999
 21
-485.84900000000016
 31
0.0
  0
LINE
  5
333
330
17
100
AcDbEntity
  8
0
100
AcDbLine
 10
577.1739999999999
 20
-485.84900000000016
 30
0.0
 11
579.1199999999999
 21
-485.9470000000002
 31
0.0
  0
LINE
  5
334
330
17
100
AcDbEntity
  8
0
100
AcDbLine
 10
579.1199999999999
 20
-485.9470000000002
 30
0.0
 11
581.0099999999999
 21
-486.2350000000002
 31
0.0
  0
LINE
  5
335
330
17
100
AcDbEntity
  8
0
100
AcDbLine
 10
581.0099999999999
 20
-486.2350000000002
 30
0.0
 11
582.8339999999998
 21
-486.7040000000002
 31
0.0
  0
LINE
  5
336
330
17
100
AcDbEntity
  8
0
100
AcDbLine
 10
582.8339999999998
 20
-486.7040000000002
 30
0.0
 11
584.5829999999999
 21
-487.34400000000016
 31
0.0
  0
LINE
  5
337
330
17
100
AcDbEntity
  8
0
100
AcDbLine
 10
584.5829999999999
 20
-487.34400000000016
 30
0.0
 11
586.2469999999998
 21
-488.14500000000015
 31
0.0
  0
LINE
  5
338
330
17
100
AcDbEntity
  8
0
100
AcDbLine
 10
586.2469999999998
 20
-488.14500000000015
 30
0.0
 11
587.8159999999998
 21
-489.0980000000001
 31
0.0
  0
LINE
  5
339
330
17
100
AcDbEntity
  8
0
100
AcDbLine
 10
587.8159999999998
 20
-489.0980000000001
 30
0.0
 11
589.2809999999998
 21
-490.19400000000013
 31
0.0
  0
LINE
  5
33A
330
17
100
AcDbEntity
  8
0
100
AcDbLine
 10
589.2809999999998
 20
-490.19400000000013
 30
0.0
 11
590.6329999999998
 21
-491.42200000000014
 31
0.0
  0
LINE
  5
33B
330
17
100
AcDbEntity
  8
0
100
AcDbLine
 10
590.6329999999998
 20
-491.42200000000014
 30
0.0
 11
591.8609999999998
 21
-492.7740000000001
 31
0.0
  0
LINE
  5
33C
330
17
100
AcDbEntity
  8
0
100
AcDbLine
 10
591.8609999999998
 20
-492.7740000000001
 30
0.0
 11
592.9569999999998
 21
-494.2390000000001
 31
0.0
  0
LINE
  5
33D
330
17
100
AcDbEntity
  8
0
100
AcDbLine
 10
592.9569999999998
 20
-494.2390000000001
 30
0.0
 11
593.9099999999997
 21
-495.8080000000001
 31
0.0
  0
LINE
  5
33E
330
17
100
AcDbEntity
  8
0
100
AcDbLine
 10
593.9099999999997
 20
-495.8080000000001
 30
0.0
 11
594.7109999999998
 21
-497.4720000000001
 31
0.0
  0
LINE
  5
33F
330
17
100
AcDbEntity
  8
0
100
AcDbLine
 10
594.7109999999998
 20
-497.4720000000001
 30
0.0
 11
595.3509999999998
 21
-499.2210000000001
 31
0.0
  0
LINE
  5
340
330
17
100
AcDbEntity
  8
0
100
AcDbLine
 10
595.3509999999998
 20
-499.2210000000001
 30
0.0
 11
595.8199999999998
 21
-501.04500000000013
 31
0.0
  0
LINE
  5
341
330
17
100
AcDbEntity
  8
0
100
AcDbLine
 10
595.8199999999998
 20
-501.04500000000013
 30
0.0
 11
596.1079999999998
 21
-502.9350000000001
 31
0.0
  0
LINE
  5
342
330
17
100
AcDbEntity
  8
0
100
AcDbLine
 10
596.1079999999998
 20
-502.9350000000001
 30
0.0
 11
596.2059999999998
 21
-504.88100000000014
 31
0.0
  0
ENDSEC
  0
SECTION
  2
OBJECTS
  0
DICTIONARY
  5
A
330
0
100
AcDbDictionary
281
1
  3
ACAD_COLOR
350
B
  3
ACAD_GROUP
350
C
  3
ACAD_LAYOUT
350
D
  3
ACAD_MATERIAL
350
E
  3
ACAD_MLEADERSTYLE
350
F
  3
ACAD_MLINESTYLE
350
10
  3
ACAD_PLOTSETTINGS
350
11
  3
ACAD_PLOTSTYLENAME
350
12
  3
ACAD_SCALELIST
350
14
  3
ACAD_TABLESTYLE
350
15
  3
ACAD_VISUALSTYLE
350
16
  3
EZDXF_META
350
2D
  0
DICTIONARY
  5
B
330
A
100
AcDbDictionary
281
1
  0
DICTIONARY
  5
C
330
A
100
AcDbDictionary
281
1
  0
DICTIONARY
  5
D
330
A
100
AcDbDictionary
281
1
  3
Model
350
1A
  3
Layout1
350
1E
  0
DICTIONARY
  5
E
330
A
100
AcDbDictionary
281
1
  3
ByBlock
350
1F
  3
ByLayer
350
20
  3
Global
350
21
  0
DICTIONARY
  5
F
330
A
100
AcDbDictionary
281
1
  3
Standard
350
2C
  0
DICTIONARY
  5
10
330
A
100
AcDbDictionary
281
1
  3
Standard
350
22
  0
DICTIONARY
  5
11
330
A
100
AcDbDictionary
281
1
  0
ACDBDICTIONARYWDFLT
  5
12
330
A
100
AcDbDictionary
281
1
  3
Normal
350
13
100
AcDbDictionaryWithDefault
340
13
  0
ACDBPLACEHOLDER
  5
13
330
12
  0
DICTIONARY
  5
14
330
A
100
AcDbDictionary
281
1
  0
DICTIONARY
  5
15
330
A
100
AcDbDictionary
281
1
  0
DICTIONARY
  5
16
330
A
100
AcDbDictionary
281
1
  0
LAYOUT
  5
1A
330
D
100
AcDbPlotSettings
  1

  4
A3
  6

 40
7.5
 41
20.0
 42
7.5
 43
20.0
 44
420.0
 45
297.0
 46
0.0
 47
0.0
 48
0.0
 49
0.0
140
0.0
141
0.0
142
1.0
143
1.0
 70
1024
 72
1
 73
0
 74
5
  7

 75
16
 76
0
 77
2
 78
300
147
1.0
148
0.0
149
0.0
100
AcDbLayout
  1
Model
 70
1
 71
0
 10
0.0
 20
0.0
 11
420.0
 21
297.0
 12
0.0
 22
0.0
 32
0.0
 14
1e+20
 24
1e+20
 34
1e+20
 15
-1e+20
 25
-1e+20
 35
-1e+20
146
0.0
 13
0.0
 23
0.0
 33
0.0
 16
1.0
 26
0.0
 36
0.0
 17
0.0
 27
1.0
 37
0.0
 76
1
330
17
  0
LAYOUT
  5
1E
330
D
100
AcDbPlotSettings
  1

  4
A3
  6

 40
7.5
 41
20.0
 42
7.5
 43
20.0
 44
420.0
 45
297.0
 46
0.0
 47
0.0
 48
0.0
 49
0.0
140
0.0
141
0.0
142
1.0
143
1.0
 70
0
 72
1
 73
0
 74
5
  7

 75
16
 76
0
 77
2
 78
300
147
1.0
148
0.0
149
0.0
100
AcDbLayout
  1
Layout1
 70
1
 71
1
 10
0.0
 20
0.0
 11
420.0
 21
297.0
 12
0.0
 22
0.0
 32
0.0
 14
1e+20
 24
1e+20
 34
1e+20
 15
-1e+20
 25
-1e+20
 35
-1e+20
146
0.0
 13
0.0
 23
0.0
 33
0.0
 16
1.0
 26
0.0
 36
0.0
 17
0.0
 27
1.0
 37
0.0
 76
1
330
1B
  0
MATERIAL
  5
1F
102
{ACAD_REACTORS
330
E
102
}
330
E
100
AcDbMaterial
  1
ByBlock
  2

 70
0
 40
1.0
 71
1
 41
1.0
 91
-1023410177
 42
1.0
 72
1
  3

 73
1
 74
1
 75
1
 44
0.5
 73
0
 45
1.0
 46
1.0
 77
1
  4

 78
1
 79
1
170
1
 48
1.0
171
1
  6

172
1
173
1
174
1
140
1.0
141
1.0
175
1
  7

176
1
177
1
178
1
143
1.0
179
1
  8

270
1
271
1
272
1
145
1.0
146
1.0
273
1
  9

274
1
275
1
276
1
 42
1.0
 72
1
  3

 73
1
 74
1
 75
1
 94
63
  0
MATERIAL
  5
20
102
{ACAD_REACTORS
330
E
102
}
330
E
100
AcDbMaterial
  1
ByLayer
  2

 70
0
 40
1.0
 71
1
 41
1.0
 91
-1023410177
 42
1.0
 72
1
  3

 73
1
 74
1
 75
1
 44
0.5
 73
0
 45
1.0
 46
1.0
 77
1
  4

 78
1
 79
1
170
1
 48
1.0
171
1
  6

172
1
173
1
174
1
140
1.0
141
1.0
175
1
  7

176
1
177
1
178
1
143
1.0
179
1
  8

270
1
271
1
272
1
145
1.0
146
1.0
273
1
  9

274
1
275
1
276
1
 42
1.0
 72
1
  3

 73
1
 74
1
 75
1
 94
63
  0
MATERIAL
  5
21
102
{ACAD_REACTORS
330
E
102
}
330
E
100
AcDbMaterial
  1
Global
  2

 70
0
 40
1.0
 71
1
 41
1.0
 91
-1023410177
 42
1.0
 72
1
  3

 73
1
 74
1
 75
1
 44
0.5
 73
0
 45
1.0
 46
1.0
 77
1
  4

 78
1
 79
1
170
1
 48
1.0
171
1
  6

172
1
173
1
174
1
140
1.0
141
1.0
175
1
  7

176
1
177
1
178
1
143
1.0
179
1
  8

270
1
271
1
272
1
145
1.0
146
1.0
273
1
  9

274
1
275
1
276
1
 42
1.0
 72
1
  3

 73
1
 74
1
 75
1
 94
63
  0
MLINESTYLE
  5
22
102
{ACAD_REACTORS
330
10
102
}
330
10
100
AcDbMlineStyle
  2
Standard
 70
0
  3

 62
256
 51
90.0
 52
90.0
 71
2
 49
0.5
 62
256
  6
BYLAYER
 49
-0.5
 62
256
  6
BYLAYER
  0
MLEADERSTYLE
  5
2C
102
{ACAD_REACTORS
330
F
102
}
330
F
100
AcDbMLeaderStyle
179
2
170
2
171
1
172
0
 90
2
 40
0.0
 41
0.0
173
1
 91
-1056964608
 92
-2
290
1
 42
2.0
291
1
 43
8.0
  3
Standard
 44
4.0
300

342
29
174
1
175
1
176
0
178
1
 93
-1056964608
 45
4.0
292
0
297
0
 46
4.0
 94
-1056964608
 47
1.0
 49
1.0
140
1.0
294
1
141
0.0
177
0
142
1.0
295
0
296
0
143
3.75
271
0
272
9
273
9
  0
DICTIONARY
  5
2D
330
A
100
AcDbDictionary
280
1
281
1
  3
CREATED_BY_EZDXF
350
2E
  3
WRITTEN_BY_EZDXF
350
345
  0
DICTIONARYVAR
  5
2E
330
2D
100
DictionaryVariables
280
0
  1
1.4.3 @ 2026-04-08T00:10:12.247938+00:00
  0
DICTIONARYVAR
  5
345
330
2D
100
DictionaryVariables
280
0
  1
1.4.3 @ 2026-04-08T00:10:12.255369+00:00
  0
ENDSEC
  0
EOF
