  0
SECTION
  2
HEADER
  9
$ACADVER
  1
AC1024
  9
$ACADMAINTVER
 70
6
  9
$DWGCODEPAGE
  3
ANSI_1252
  9
$LASTSAVEDBY
  1
ezdxf
  9
$INSBASE
 10
0.0
 20
0.0
 30
0.0
  9
$EXTMIN
 10
1e+20
 20
1e+20
 30
1e+20
  9
$EXTMAX
 10
-1e+20
 20
-1e+20
 30
-1e+20
  9
$LIMMIN
 10
0.0
 20
0.0
  9
$LIMMAX
 10
420.0
 20
297.0
  9
$ORTHOMODE
 70
0
  9
$REGENMODE
 70
1
  9
$FILLMODE
 70
1
  9
$QTEXTMODE
 70
0
  9
$MIRRTEXT
 70
1
  9
$LTSCALE
 40
1.0
  9
$ATTMODE
 70
1
  9
$TEXTSIZE
 40
2.5
  9
$TRACEWID
 40
1.0
  9
$TEXTSTYLE
  7
Standard
  9
$CLAYER
  8
0
  9
$CELTYPE
  6
ByLayer
  9
$CECOLOR
 62
256
  9
$CELTSCALE
 40
1.0
  9
$DISPSILH
 70
0
  9
$DIMSCALE
 40
1.0
  9
$DIMASZ
 40
2.5
  9
$DIMEXO
 40
0.625
  9
$DIMDLI
 40
3.75
  9
$DIMRND
 40
0.0
  9
$DIMDLE
 40
0.0
  9
$DIMEXE
 40
1.25
  9
$DIMTP
 40
0.0
  9
$DIMTM
 40
0.0
  9
$DIMTXT
 40
2.5
  9
$DIMCEN
 40
2.5
  9
$DIMTSZ
 40
0.0
  9
$DIMTOL
 70
0
  9
$DIMLIM
 70
0
  9
$DIMTIH
 70
0
  9
$DIMTOH
 70
0
  9
$DIMSE1
 70
0
  9
$DIMSE2
 70
0
  9
$DIMTAD
 70
1
  9
$DIMZIN
 70
8
  9
$DIMBLK
  1

  9
$DIMASO
 70
1
  9
$DIMSHO
 70
1
  9
$DIMPOST
  1

  9
$DIMAPOST
  1

  9
$DIMALT
 70
0
  9
$DIMALTD
 70
3
  9
$DIMALTF
 40
0.03937007874
  9
$DIMLFAC
 40
1.0
  9
$DIMTOFL
 70
1
  9
$DIMTVP
 40
0.0
  9
$DIMTIX
 70
0
  9
$DIMSOXD
 70
0
  9
$DIMSAH
 70
0
  9
$DIMBLK1
  1

  9
$DIMBLK2
  1

  9
$DIMSTYLE
  2
ISO-25
  9
$DIMCLRD
 70
0
  9
$DIMCLRE
 70
0
  9
$DIMCLRT
 70
0
  9
$DIMTFAC
 40
1.0
  9
$DIMGAP
 40
0.625
  9
$DIMJUST
 70
0
  9
$DIMSD1
 70
0
  9
$DIMSD2
 70
0
  9
$DIMTOLJ
 70
0
  9
$DIMTZIN
 70
8
  9
$DIMALTZ
 70
0
  9
$DIMALTTZ
 70
0
  9
$DIMUPT
 70
0
  9
$DIMDEC
 70
2
  9
$DIMTDEC
 70
2
  9
$DIMALTU
 70
2
  9
$DIMALTTD
 70
3
  9
$DIMTXSTY
  7
Standard
  9
$DIMAUNIT
 70
0
  9
$DIMADEC
 70
0
  9
$DIMALTRND
 40
0.0
  9
$DIMAZIN
 70
0
  9
$DIMDSEP
 70
44
  9
$DIMATFIT
 70
3
  9
$DIMFRAC
 70
0
  9
$DIMLDRBLK
  1

  9
$DIMLUNIT
 70
2
  9
$DIMLWD
 70
-2
  9
$DIMLWE
 70
-2
  9
$DIMTMOVE
 70
0
  9
$DIMFXL
 40
1.0
  9
$DIMFXLON
 70
0
  9
$DIMJOGANG
 40
0.785398163397
  9
$DIMTFILL
 70
0
  9
$DIMTFILLCLR
 70
0
  9
$DIMARCSYM
 70
0
  9
$DIMLTYPE
  6

  9
$DIMLTEX1
  6

  9
$DIMLTEX2
  6

  9
$DIMTXTDIRECTION
 70
0
  9
$LUNITS
 70
2
  9
$LUPREC
 70
4
  9
$SKETCHINC
 40
1.0
  9
$FILLETRAD
 40
10.0
  9
$AUNITS
 70
0
  9
$AUPREC
 70
2
  9
$MENU
  1
.
  9
$ELEVATION
 40
0.0
  9
$PELEVATION
 40
0.0
  9
$THICKNESS
 40
0.0
  9
$LIMCHECK
 70
0
  9
$CHAMFERA
 40
0.0
  9
$CHAMFERB
 40
0.0
  9
$CHAMFERC
 40
0.0
  9
$CHAMFERD
 40
0.0
  9
$SKPOLY
 70
0
  9
$TDCREATE
 40
2461140.609224537
  9
$TDUCREATE
 40
2458532.153996898
  9
$TDUPDATE
 40
2461140.609224537
  9
$TDUUPDATE
 40
2458532.1544311
  9
$TDINDWG
 40
0.0
  9
$TDUSRTIMER
 40
0.0
  9
$USRTIMER
 70
1
  9
$ANGBASE
 50
0.0
  9
$ANGDIR
 70
0
  9
$PDMODE
 70
0
  9
$PDSIZE
 40
0.0
  9
$PLINEWID
 40
0.0
  9
$SPLFRAME
 70
0
  9
$SPLINETYPE
 70
6
  9
$SPLINESEGS
 70
8
  9
$HANDSEED
  5
27A
  9
$SURFTAB1
 70
6
  9
$SURFTAB2
 70
6
  9
$SURFTYPE
 70
6
  9
$SURFU
 70
6
  9
$SURFV
 70
6
  9
$UCSBASE
  2

  9
$UCSNAME
  2

  9
$UCSORG
 10
0.0
 20
0.0
 30
0.0
  9
$UCSXDIR
 10
1.0
 20
0.0
 30
0.0
  9
$UCSYDIR
 10
0.0
 20
1.0
 30
0.0
  9
$UCSORTHOREF
  2

  9
$UCSORTHOVIEW
 70
0
  9
$UCSORGTOP
 10
0.0
 20
0.0
 30
0.0
  9
$UCSORGBOTTOM
 10
0.0
 20
0.0
 30
0.0
  9
$UCSORGLEFT
 10
0.0
 20
0.0
 30
0.0
  9
$UCSORGRIGHT
 10
0.0
 20
0.0
 30
0.0
  9
$UCSORGFRONT
 10
0.0
 20
0.0
 30
0.0
  9
$UCSORGBACK
 10
0.0
 20
0.0
 30
0.0
  9
$PUCSBASE
  2

  9
$PUCSNAME
  2

  9
$PUCSORG
 10
0.0
 20
0.0
 30
0.0
  9
$PUCSXDIR
 10
1.0
 20
0.0
 30
0.0
  9
$PUCSYDIR
 10
0.0
 20
1.0
 30
0.0
  9
$PUCSORTHOREF
  2

  9
$PUCSORTHOVIEW
 70
0
  9
$PUCSORGTOP
 10
0.0
 20
0.0
 30
0.0
  9
$PUCSORGBOTTOM
 10
0.0
 20
0.0
 30
0.0
  9
$PUCSORGLEFT
 10
0.0
 20
0.0
 30
0.0
  9
$PUCSORGRIGHT
 10
0.0
 20
0.0
 30
0.0
  9
$PUCSORGFRONT
 10
0.0
 20
0.0
 30
0.0
  9
$PUCSORGBACK
 10
0.0
 20
0.0
 30
0.0
  9
$USERI1
 70
0
  9
$USERI2
 70
0
  9
$USERI3
 70
0
  9
$USERI4
 70
0
  9
$USERI5
 70
0
  9
$USERR1
 40
0.0
  9
$USERR2
 40
0.0
  9
$USERR3
 40
0.0
  9
$USERR4
 40
0.0
  9
$USERR5
 40
0.0
  9
$WORLDVIEW
 70
1
  9
$SHADEDGE
 70
3
  9
$SHADEDIF
 70
70
  9
$TILEMODE
 70
1
  9
$MAXACTVP
 70
64
  9
$PINSBASE
 10
0.0
 20
0.0
 30
0.0
  9
$PLIMCHECK
 70
0
  9
$PEXTMIN
 10
1e+20
 20
1e+20
 30
1e+20
  9
$PEXTMAX
 10
-1e+20
 20
-1e+20
 30
-1e+20
  9
$PLIMMIN
 10
0.0
 20
0.0
  9
$PLIMMAX
 10
420.0
 20
297.0
  9
$UNITMODE
 70
0
  9
$VISRETAIN
 70
1
  9
$PLINEGEN
 70
0
  9
$PSLTSCALE
 70
1
  9
$TREEDEPTH
 70
3020
  9
$CMLSTYLE
  2
Standard
  9
$CMLJUST
 70
0
  9
$CMLSCALE
 40
20.0
  9
$PROXYGRAPHICS
 70
1
  9
$MEASUREMENT
 70
1
  9
$CELWEIGHT
370
-1
  9
$ENDCAPS
280
0
  9
$JOINSTYLE
280
0
  9
$LWDISPLAY
290
0
  9
$INSUNITS
 70
4
  9
$HYPERLINKBASE
  1

  9
$STYLESHEET
  1

  9
$XEDIT
290
1
  9
$CEPSNTYPE
380
0
  9
$PSTYLEMODE
290
1
  9
$FINGERPRINTGUID
  2
{6BC2DD8F-2DEC-4813-8B9B-3721DD3CD394}
  9
$VERSIONGUID
  2
{F904F3B2-8FCE-4967-AFAB-C16AEC3BE9C4}
  9
$EXTNAMES
290
1
  9
$PSVPSCALE
 40
0.0
  9
$OLESTARTUP
290
0
  9
$SORTENTS
280
127
  9
$INDEXCTL
280
0
  9
$HIDETEXT
280
1
  9
$XCLIPFRAME
280
1
  9
$HALOGAP
280
0
  9
$OBSCOLOR
 70
257
  9
$OBSLTYPE
280
0
  9
$INTERSECTIONDISPLAY
280
0
  9
$INTERSECTIONCOLOR
 70
257
  9
$DIMASSOC
280
2
  9
$PROJECTNAME
  1

  9
$CAMERADISPLAY
290
0
  9
$LENSLENGTH
 40
50.0
  9
$CAMERAHEIGHT
 40
0.0
  9
$STEPSPERSEC
 40
24.0
  9
$STEPSIZE
 40
100.0
  9
$3DDWFPREC
 40
2.0
  9
$PSOLWIDTH
 40
0.005
  9
$PSOLHEIGHT
 40
0.08
  9
$LOFTANG1
 40
1.570796326795
  9
$LOFTANG2
 40
1.570796326795
  9
$LOFTMAG1
 40
0.0
  9
$LOFTMAG2
 40
0.0
  9
$LOFTPARAM
 70
7
  9
$LOFTNORMALS
280
1
  9
$LATITUDE
 40
37.795
  9
$LONGITUDE
 40
-122.394
  9
$NORTHDIRECTION
 40
0.0
  9
$TIMEZONE
 70
-8000
  9
$LIGHTGLYPHDISPLAY
280
1
  9
$TILEMODELIGHTSYNCH
280
1
  9
$CMATERIAL
347
20
  9
$SOLIDHIST
280
0
  9
$SHOWHIST
280
1
  9
$DWFFRAME
280
2
  9
$DGNFRAME
280
2
  9
$REALWORLDSCALE
290
1
  9
$INTERFERECOLOR
 62
256
  9
$CSHADOW
280
0
  9
$SHADOWPLANELOCATION
 40
0.0
  0
ENDSEC
  0
SECTION
  2
CLASSES
  0
CLASS
  1
ACDBDICTIONARYWDFLT
  2
AcDbDictionaryWithDefault
  3
ObjectDBX Classes
 90
0
 91
0
280
0
281
0
  0
CLASS
  1
SUN
  2
AcDbSun
  3
SCENEOE
 90
1153
 91
0
280
0
281
0
  0
CLASS
  1
VISUALSTYLE
  2
AcDbVisualStyle
  3
ObjectDBX Classes
 90
4095
 91
0
280
0
281
0
  0
CLASS
  1
MATERIAL
  2
AcDbMaterial
  3
ObjectDBX Classes
 90
1153
 91
0
280
0
281
0
  0
CLASS
  1
SCALE
  2
AcDbScale
  3
ObjectDBX Classes
 90
1153
 91
0
280
0
281
0
  0
CLASS
  1
TABLESTYLE
  2
AcDbTableStyle
  3
ObjectDBX Classes
 90
4095
 91
0
280
0
281
0
  0
CLASS
  1
MLEADERSTYLE
  2
AcDbMLeaderStyle
  3
ACDB_MLEADERSTYLE_CLASS
 90
4095
 91
0
280
0
281
0
  0
CLASS
  1
DICTIONARYVAR
  2
AcDbDictionaryVar
  3
ObjectDBX Classes
 90
0
 91
0
280
0
281
0
  0
CLASS
  1
CELLSTYLEMAP
  2
AcDbCellStyleMap
  3
ObjectDBX Classes
 90
1152
 91
0
280
0
281
0
  0
CLASS
  1
MENTALRAYRENDERSETTINGS
  2
AcDbMentalRayRenderSettings
  3
SCENEOE
 90
1024
 91
0
280
0
281
0
  0
CLASS
  1
ACDBDETAILVIEWSTYLE
  2
AcDbDetailViewStyle
  3
ObjectDBX Classes
 90
1025
 91
0
280
0
281
0
  0
CLASS
  1
ACDBSECTIONVIEWSTYLE
  2
AcDbSectionViewStyle
  3
ObjectDBX Classes
 90
1025
 91
0
280
0
281
0
  0
CLASS
  1
RASTERVARIABLES
  2
AcDbRasterVariables
  3
ISM
 90
0
 91
0
280
0
281
0
  0
CLASS
  1
LAYOUT
  2
AcDbLayout
  3
ObjectDBX Classes
 90
0
 91
0
280
0
281
0
  0
CLASS
  1
ACDBPLACEHOLDER
  2
AcDbPlaceHolder
  3
ObjectDBX Classes
 90
0
 91
0
280
0
281
0
  0
ENDSEC
  0
SECTION
  2
TABLES
  0
TABLE
  2
VPORT
  5
8
330
0
100
AcDbSymbolTable
 70
1
  0
VPORT
  5
23
330
8
100
AcDbSymbolTableRecord
100
AcDbViewportTableRecord
  2
*Active
 70
0
 10
0.0
 20
0.0
 11
1.0
 21
1.0
 12
0.0
 22
0.0
 13
0.0
 23
0.0
 14
0.5
 24
0.5
 15
0.5
 25
0.5
 16
0.0
 26
0.0
 36
1.0
 17
0.0
 27
0.0
 37
0.0
 40
1000.0
 41
1.34
 42
50.0
 43
0.0
 44
0.0
 50
0.0
 51
0.0
 71
0
 72
1000
 73
1
 74
3
 75
0
 76
0
 77
0
 78
0
281
0
 65
0
146
0.0
  0
ENDTAB
  0
TABLE
  2
LTYPE
  5
2
330
0
100
AcDbSymbolTable
 70
3
  0
LTYPE
  5
24
330
2
100
AcDbSymbolTableRecord
100
AcDbLinetypeTableRecord
  2
ByBlock
 70
0
  3

 72
65
 73
0
 40
0.0
  0
LTYPE
  5
25
330
2
100
AcDbSymbolTableRecord
100
AcDbLinetypeTableRecord
  2
ByLayer
 70
0
  3

 72
65
 73
0
 40
0.0
  0
LTYPE
  5
26
330
2
100
AcDbSymbolTableRecord
100
AcDbLinetypeTableRecord
  2
Continuous
 70
0
  3

 72
65
 73
0
 40
0.0
  0
ENDTAB
  0
TABLE
  2
LAYER
  5
1
330
0
100
AcDbSymbolTable
 70
2
  0
LAYER
  5
27
330
1
100
AcDbSymbolTableRecord
100
AcDbLayerTableRecord
  2
0
 70
0
 62
7
  6
Continuous
370
-3
390
13
347
21
  0
LAYER
  5
28
330
1
100
AcDbSymbolTableRecord
100
AcDbLayerTableRecord
  2
Defpoints
 70
0
 62
7
  6
Continuous
290
0
370
-3
390
13
347
21
  0
ENDTAB
  0
TABLE
  2
STYLE
  5
5
330
0
100
AcDbSymbolTable
 70
1
  0
STYLE
  5
29
330
5
100
AcDbSymbolTableRecord
100
AcDbTextStyleTableRecord
  2
Standard
 70
0
 40
0.0
 41
1.0
 50
0.0
 71
0
 42
2.5
  3
txt
  4

  0
ENDTAB
  0
TABLE
  2
VIEW
  5
7
330
0
100
AcDbSymbolTable
 70
0
  0
ENDTAB
  0
TABLE
  2
UCS
  5
6
330
0
100
AcDbSymbolTable
 70
0
  0
ENDTAB
  0
TABLE
  2
APPID
  5
3
330
0
100
AcDbSymbolTable
 70
3
  0
APPID
  5
2A
330
3
100
AcDbSymbolTableRecord
100
AcDbRegAppTableRecord
  2
ACAD
 70
0
  0
APPID
  5
277
330
3
100
AcDbSymbolTableRecord
100
AcDbRegAppTableRecord
  2
HATCHBACKGROUNDCOLOR
 70
0
  0
APPID
  5
278
330
3
100
AcDbSymbolTableRecord
100
AcDbRegAppTableRecord
  2
EZDXF
 70
0
  0
ENDTAB
  0
TABLE
  2
DIMSTYLE
  5
4
330
0
100
AcDbSymbolTable
 70
1
100
AcDbDimStyleTable
  0
DIMSTYLE
105
2B
330
4
100
AcDbSymbolTableRecord
100
AcDbDimStyleTableRecord
  2
Standard
 70
0
 40
1.0
 41
2.5
 42
0.625
 43
3.75
 44
1.25
 45
0.0
 46
0.0
 47
0.0
 48
0.0
 49
2.5
140
2.5
141
2.5
142
0.0
143
0.03937007874
144
1.0
145
0.0
146
1.0
147
0.625
148
0.0
 69
0
 70
0
 71
0
 72
0
 73
0
 74
0
 75
0
 76
0
 77
1
 78
8
 79
3
170
0
171
3
172
1
173
0
174
0
175
0
176
0
177
0
178
0
179
2
271
2
272
2
273
2
274
3
275
0
276
0
277
2
278
44
279
0
280
0
281
0
282
0
283
0
284
8
285
0
286
0
288
0
289
3
290
0
371
-2
372
-2
  0
ENDTAB
  0
TABLE
  2
BLOCK_RECORD
  5
9
330
0
100
AcDbSymbolTable
 70
3
  0
BLOCK_RECORD
  5
17
330
9
100
AcDbSymbolTableRecord
100
AcDbBlockTableRecord
  2
*Model_Space
340
1A
 70
0
280
1
281
0
  0
BLOCK_RECORD
  5
1B
330
9
100
AcDbSymbolTableRecord
100
AcDbBlockTableRecord
  2
*Paper_Space
340
1E
 70
0
280
1
281
0
  0
BLOCK_RECORD
  5
2F
330
9
100
AcDbSymbolTableRecord
100
AcDbBlockTableRecord
  2
HEX
340
0
 70
0
280
1
281
0
  0
ENDTAB
  0
ENDSEC
  0
SECTION
  2
BLOCKS
  0
BLOCK
  5
18
330
17
100
AcDbEntity
  8
0
100
AcDbBlockBegin
  2
*Model_Space
 70
0
 10
0.0
 20
0.0
 30
0.0
  3
*Model_Space
  1

  0
ENDBLK
  5
19
330
17
100
AcDbEntity
  8
0
100
AcDbBlockEnd
  0
BLOCK
  5
1C
330
1B
100
AcDbEntity
  8
0
100
AcDbBlockBegin
  2
*Paper_Space
 70
0
 10
0.0
 20
0.0
 30
0.0
  3
*Paper_Space
  1

  0
ENDBLK
  5
1D
330
1B
100
AcDbEntity
  8
0
100
AcDbBlockEnd
  0
BLOCK
  5
30
330
2F
100
AcDbEntity
  8
0
100
AcDbBlockBegin
  2
HEX
 70
0
 10
0.0
 20
0.0
 30
0.0
  3
HEX
  1

  0
LWPOLYLINE
  5
32
330
2F
100
AcDbEntity
  8
0
100
AcDbPolyline
 90
6
 70
1
 10
1.516
 20
0.875
 10
0.0
 20
1.75
 10
-1.516
 20
0.875
 10
-1.516
 20
-0.875
 10
-0.0
 20
-1.75
 10
1.516
 20
-0.875
  0
ENDBLK
  5
31
330
2F
100
AcDbEntity
  8
0
100
AcDbBlockEnd
  0
ENDSEC
  0
SECTION
  2
ENTITIES
  0
LWPOLYLINE
  5
33
330
17
100
AcDbEntity
  8
0
100
AcDbPolyline
 90
10
 70
1
 10
145.757
 20
-142.818
 10
145.578
 20
-142.76
 10
145.306
 20
-142.633
 10
145.055
 20
-142.47
 10
144.939
 20
-142.375
 10
144.728
 20
-142.161
 10
144.635
 20
-142.043
 10
144.448
 20
-141.735
 10
145.757
 20
-142.491
 10
145.757
 20
-142.818
  0
LWPOLYLINE
  5
34
330
17
100
AcDbEntity
  8
0
100
AcDbPolyline
 90
6
 70
1
 10
146.257
 20
-142.876
 10
146.257
 20
-142.491
 10
147.772
 20
-141.616
 10
149.288
 20
-142.491
 10
149.288
 20
-142.902
 10
146.257
 20
-142.876
  0
LWPOLYLINE
  5
35
330
17
100
AcDbEntity
  8
0
100
AcDbPolyline
 90
7
 70
1
 10
151.919
 20
-142.924
 10
149.788
 20
-142.906
 10
149.788
 20
-142.491
 10
151.303
 20
-141.616
 10
152.819
 20
-142.491
 10
152.819
 20
-142.823
 10
151.919
 20
-142.924
  0
LWPOLYLINE
  5
36
330
17
100
AcDbEntity
  8
0
100
AcDbPolyline
 90
5
 70
1
 10
153.319
 20
-142.766
 10
153.319
 20
-142.491
 10
154.835
 20
-141.616
 10
156.256
 20
-142.436
 10
153.319
 20
-142.766
  0
LWPOLYLINE
  5
37
330
17
100
AcDbEntity
  8
0
100
AcDbPolyline
 90
4
 70
1
 10
157.111
 20
-142.34
 10
158.366
 20
-141.616
 10
159.212
 20
-142.104
 10
157.111
 20
-142.34
  0
LWPOLYLINE
  5
38
330
17
100
AcDbEntity
  8
0
100
AcDbPolyline
 90
4
 70
1
 10
161.495
 20
-141.848
 10
161.897
 20
-141.616
 10
162.167
 20
-141.772
 10
161.495
 20
-141.848
  0
LWPOLYLINE
  5
39
330
17
100
AcDbEntity
  8
0
100
AcDbPolyline
 90
4
 70
1
 10
143.521
 20
-139.161
 10
143.991
 20
-139.433
 10
143.991
 20
-140.483
 10
143.521
 20
-139.161
  0
INSERT
  5
3A
330
17
100
AcDbEntity
  8
0
100
AcDbBlockReference
  2
HEX
 10
146.007
 20
-140.308
 30
0.0
  0
INSERT
  5
3C
330
17
100
AcDbEntity
  8
0
100
AcDbBlockReference
  2
HEX
 10
149.538
 20
-140.308
 30
0.0
  0
INSERT
  5
3E
330
17
100
AcDbEntity
  8
0
100
AcDbBlockReference
  2
HEX
 10
153.069
 20
-140.308
 30
0.0
  0
INSERT
  5
40
330
17
100
AcDbEntity
  8
0
100
AcDbBlockReference
  2
HEX
 10
156.6
 20
-140.308
 30
0.0
  0
LWPOLYLINE
  5
42
330
17
100
AcDbEntity
  8
0
100
AcDbPolyline
 90
8
 70
1
 10
160.049
 20
-142.01
 10
158.616
 20
-141.183
 10
158.616
 20
-139.433
 10
160.131
 20
-138.558
 10
161.647
 20
-139.433
 10
161.647
 20
-141.183
 10
160.253
 20
-141.987
 10
160.049
 20
-142.01
  0
LWPOLYLINE
  5
43
330
17
100
AcDbEntity
  8
0
100
AcDbPolyline
 90
8
 70
1
 10
163.004
 20
-141.678
 10
162.147
 20
-141.183
 10
162.147
 20
-139.433
 10
163.662
 20
-138.558
 10
165.178
 20
-139.433
 10
165.178
 20
-141.183
 10
164.638
 20
-141.494
 10
163.004
 20
-141.678
  0
LWPOLYLINE
  5
44
330
17
100
AcDbEntity
  8
0
100
AcDbPolyline
 90
7
 70
1
 10
165.96
 20
-141.346
 10
165.678
 20
-141.183
 10
165.678
 20
-139.433
 10
167.193
 20
-138.558
 10
168.709
 20
-139.433
 10
168.709
 20
-141.037
 10
165.96
 20
-141.346
  0
LWPOLYLINE
  5
45
330
17
100
AcDbEntity
  8
0
100
AcDbPolyline
 90
6
 70
1
 10
169.209
 20
-140.981
 10
169.209
 20
-139.433
 10
170.724
 20
-138.558
 10
172.24
 20
-139.433
 10
172.24
 20
-140.64
 10
169.209
 20
-140.981
  0
LWPOLYLINE
  5
46
330
17
100
AcDbEntity
  8
0
100
AcDbPolyline
 90
6
 70
1
 10
172.74
 20
-140.584
 10
172.74
 20
-139.433
 10
174.256
 20
-138.558
 10
175.771
 20
-139.433
 10
175.771
 20
-140.243
 10
172.74
 20
-140.584
  0
LWPOLYLINE
  5
47
330
17
100
AcDbEntity
  8
0
100
AcDbPolyline
 90
6
 70
1
 10
176.271
 20
-140.187
 10
176.271
 20
-139.433
 10
177.787
 20
-138.558
 10
179.302
 20
-139.433
 10
179.302
 20
-139.846
 10
176.271
 20
-140.187
  0
LWPOLYLINE
  5
48
330
17
100
AcDbEntity
  8
0
100
AcDbPolyline
 90
11
 70
1
 10
182.429
 20
-140.346
 10
181.897
 20
-140.113
 10
181.343
 20
-139.941
 10
180.771
 20
-139.832
 10
180.189
 20
-139.789
 10
179.802
 20
-139.805
 10
179.802
 20
-139.433
 10
181.318
 20
-138.558
 10
182.833
 20
-139.433
 10
182.833
 20
-140.581
 10
182.429
 20
-140.346
  0
LWPOLYLINE
  5
49
330
17
100
AcDbEntity
  8
0
100
AcDbPolyline
 90
10
 70
1
 10
185.463
 20
-140.006
 10
185.702
 20
-141.499
 10
185.702
 20
-141.565
 10
184.849
 20
-142.058
 10
184.066
 20
-141.606
 10
183.333
 20
-140.938
 10
183.333
 20
-139.433
 10
184.849
 20
-138.558
 10
185.124
 20
-138.717
 10
185.463
 20
-140.006
  0
LWPOLYLINE
  5
4A
330
17
100
AcDbEntity
  8
0
100
AcDbPolyline
 90
8
 70
1
 10
142.726
 20
-136.927
 10
142.726
 20
-136.375
 10
144.241
 20
-135.5
 10
145.757
 20
-136.375
 10
145.757
 20
-138.125
 10
144.241
 20
-139.0
 10
143.262
 20
-138.435
 10
142.726
 20
-136.927
  0
INSERT
  5
4B
330
17
100
AcDbEntity
  8
0
100
AcDbBlockReference
  2
HEX
 10
147.772
 20
-137.25
 30
0.0
  0
INSERT
  5
4D
330
17
100
AcDbEntity
  8
0
100
AcDbBlockReference
  2
HEX
 10
151.303
 20
-137.25
 30
0.0
  0
INSERT
  5
4F
330
17
100
AcDbEntity
  8
0
100
AcDbBlockReference
  2
HEX
 10
154.835
 20
-137.25
 30
0.0
  0
INSERT
  5
51
330
17
100
AcDbEntity
  8
0
100
AcDbBlockReference
  2
HEX
 10
158.366
 20
-137.25
 30
0.0
  0
INSERT
  5
53
330
17
100
AcDbEntity
  8
0
100
AcDbBlockReference
  2
HEX
 10
161.897
 20
-137.25
 30
0.0
  0
INSERT
  5
55
330
17
100
AcDbEntity
  8
0
100
AcDbBlockReference
  2
HEX
 10
165.428
 20
-137.25
 30
0.0
  0
INSERT
  5
57
330
17
100
AcDbEntity
  8
0
100
AcDbBlockReference
  2
HEX
 10
168.959
 20
-137.25
 30
0.0
  0
INSERT
  5
59
330
17
100
AcDbEntity
  8
0
100
AcDbBlockReference
  2
HEX
 10
172.49
 20
-137.25
 30
0.0
  0
INSERT
  5
5B
330
17
100
AcDbEntity
  8
0
100
AcDbBlockReference
  2
HEX
 10
176.021
 20
-137.25
 30
0.0
  0
INSERT
  5
5D
330
17
100
AcDbEntity
  8
0
100
AcDbBlockReference
  2
HEX
 10
179.552
 20
-137.25
 30
0.0
  0
LWPOLYLINE
  5
5F
330
17
100
AcDbEntity
  8
0
100
AcDbPolyline
 90
9
 70
1
 10
184.416
 20
-136.64
 10
184.599
 20
-137.147
 10
184.599
 20
-138.125
 10
183.083
 20
-139.0
 10
181.568
 20
-138.125
 10
181.568
 20
-136.375
 10
183.083
 20
-135.5
 10
184.168
 20
-136.126
 10
184.416
 20
-136.64
  0
LWPOLYLINE
  5
60
330
17
100
AcDbEntity
  8
0
100
AcDbPolyline
 90
7
 70
1
 10
141.359
 20
-133.086
 10
142.476
 20
-132.442
 10
143.991
 20
-133.317
 10
143.991
 20
-135.067
 10
142.476
 20
-135.942
 10
142.349
 20
-135.869
 10
141.359
 20
-133.086
  0
INSERT
  5
61
330
17
100
AcDbEntity
  8
0
100
AcDbBlockReference
  2
HEX
 10
146.007
 20
-134.192
 30
0.0
  0
INSERT
  5
63
330
17
100
AcDbEntity
  8
0
100
AcDbBlockReference
  2
HEX
 10
149.538
 20
-134.192
 30
0.0
  0
INSERT
  5
65
330
17
100
AcDbEntity
  8
0
100
AcDbBlockReference
  2
HEX
 10
153.069
 20
-134.192
 30
0.0
  0
INSERT
  5
67
330
17
100
AcDbEntity
  8
0
100
AcDbBlockReference
  2
HEX
 10
156.6
 20
-134.192
 30
0.0
  0
INSERT
  5
69
330
17
100
AcDbEntity
  8
0
100
AcDbBlockReference
  2
HEX
 10
160.131
 20
-134.192
 30
0.0
  0
INSERT
  5
6B
330
17
100
AcDbEntity
  8
0
100
AcDbBlockReference
  2
HEX
 10
163.662
 20
-134.192
 30
0.0
  0
INSERT
  5
6D
330
17
100
AcDbEntity
  8
0
100
AcDbBlockReference
  2
HEX
 10
167.193
 20
-134.192
 30
0.0
  0
INSERT
  5
6F
330
17
100
AcDbEntity
  8
0
100
AcDbBlockReference
  2
HEX
 10
170.724
 20
-134.192
 30
0.0
  0
INSERT
  5
71
330
17
100
AcDbEntity
  8
0
100
AcDbBlockReference
  2
HEX
 10
174.256
 20
-134.192
 30
0.0
  0
INSERT
  5
73
330
17
100
AcDbEntity
  8
0
100
AcDbBlockReference
  2
HEX
 10
177.787
 20
-134.192
 30
0.0
  0
LWPOLYLINE
  5
75
330
17
100
AcDbEntity
  8
0
100
AcDbPolyline
 90
8
 70
1
 10
182.833
 20
-133.37
 10
182.833
 20
-135.067
 10
181.318
 20
-135.942
 10
179.802
 20
-135.067
 10
179.802
 20
-133.317
 10
181.318
 20
-132.442
 10
182.779
 20
-133.286
 10
182.833
 20
-133.37
  0
LWPOLYLINE
  5
76
330
17
100
AcDbEntity
  8
0
100
AcDbPolyline
 90
4
 70
1
 10
183.782
 20
-135.326
 10
183.333
 20
-135.067
 10
183.333
 20
-134.396
 10
183.782
 20
-135.326
  0
LWPOLYLINE
  5
77
330
17
100
AcDbEntity
  8
0
100
AcDbPolyline
 90
6
 70
1
 10
140.155
 20
-129.704
 10
140.71
 20
-129.384
 10
142.226
 20
-130.259
 10
142.226
 20
-132.009
 10
141.189
 20
-132.608
 10
140.155
 20
-129.704
  0
INSERT
  5
78
330
17
100
AcDbEntity
  8
0
100
AcDbBlockReference
  2
HEX
 10
144.241
 20
-131.134
 30
0.0
  0
INSERT
  5
7A
330
17
100
AcDbEntity
  8
0
100
AcDbBlockReference
  2
HEX
 10
147.772
 20
-131.134
 30
0.0
  0
INSERT
  5
7C
330
17
100
AcDbEntity
  8
0
100
AcDbBlockReference
  2
HEX
 10
151.303
 20
-131.134
 30
0.0
  0
INSERT
  5
7E
330
17
100
AcDbEntity
  8
0
100
AcDbBlockReference
  2
HEX
 10
154.835
 20
-131.134
 30
0.0
  0
INSERT
  5
80
330
17
100
AcDbEntity
  8
0
100
AcDbBlockReference
  2
HEX
 10
158.366
 20
-131.134
 30
0.0
  0
INSERT
  5
82
330
17
100
AcDbEntity
  8
0
100
AcDbBlockReference
  2
HEX
 10
161.897
 20
-131.134
 30
0.0
  0
INSERT
  5
84
330
17
100
AcDbEntity
  8
0
100
AcDbBlockReference
  2
HEX
 10
165.428
 20
-131.134
 30
0.0
  0
INSERT
  5
86
330
17
100
AcDbEntity
  8
0
100
AcDbBlockReference
  2
HEX
 10
168.959
 20
-131.134
 30
0.0
  0
INSERT
  5
88
330
17
100
AcDbEntity
  8
0
100
AcDbBlockReference
  2
HEX
 10
172.49
 20
-131.134
 30
0.0
  0
INSERT
  5
8A
330
17
100
AcDbEntity
  8
0
100
AcDbBlockReference
  2
HEX
 10
176.021
 20
-131.134
 30
0.0
  0
LWPOLYLINE
  5
8C
330
17
100
AcDbEntity
  8
0
100
AcDbPolyline
 90
8
 70
1
 10
181.068
 20
-130.591
 10
181.068
 20
-132.009
 10
179.552
 20
-132.884
 10
178.037
 20
-132.009
 10
178.037
 20
-130.259
 10
179.552
 20
-129.384
 10
180.734
 20
-130.066
 10
181.068
 20
-130.591
  0
LWPOLYLINE
  5
8D
330
17
100
AcDbEntity
  8
0
100
AcDbPolyline
 90
4
 70
1
 10
182.2
 20
-132.374
 10
181.568
 20
-132.009
 10
181.568
 20
-131.378
 10
182.2
 20
-132.374
  0
LWPOLYLINE
  5
8E
330
17
100
AcDbEntity
  8
0
100
AcDbPolyline
 90
5
 70
1
 10
138.955
 20
-126.332
 10
140.46
 20
-127.201
 10
140.46
 20
-128.951
 10
139.985
 20
-129.225
 10
138.955
 20
-126.332
  0
INSERT
  5
8F
330
17
100
AcDbEntity
  8
0
100
AcDbBlockReference
  2
HEX
 10
142.476
 20
-128.076
 30
0.0
  0
INSERT
  5
91
330
17
100
AcDbEntity
  8
0
100
AcDbBlockReference
  2
HEX
 10
146.007
 20
-128.076
 30
0.0
  0
INSERT
  5
93
330
17
100
AcDbEntity
  8
0
100
AcDbBlockReference
  2
HEX
 10
149.538
 20
-128.076
 30
0.0
  0
INSERT
  5
95
330
17
100
AcDbEntity
  8
0
100
AcDbBlockReference
  2
HEX
 10
153.069
 20
-128.076
 30
0.0
  0
INSERT
  5
97
330
17
100
AcDbEntity
  8
0
100
AcDbBlockReference
  2
HEX
 10
156.6
 20
-128.076
 30
0.0
  0
INSERT
  5
99
330
17
100
AcDbEntity
  8
0
100
AcDbBlockReference
  2
HEX
 10
160.131
 20
-128.076
 30
0.0
  0
INSERT
  5
9B
330
17
100
AcDbEntity
  8
0
100
AcDbBlockReference
  2
HEX
 10
163.662
 20
-128.076
 30
0.0
  0
INSERT
  5
9D
330
17
100
AcDbEntity
  8
0
100
AcDbBlockReference
  2
HEX
 10
167.193
 20
-128.076
 30
0.0
  0
INSERT
  5
9F
330
17
100
AcDbEntity
  8
0
100
AcDbBlockReference
  2
HEX
 10
170.724
 20
-128.076
 30
0.0
  0
INSERT
  5
A1
330
17
100
AcDbEntity
  8
0
100
AcDbBlockReference
  2
HEX
 10
174.256
 20
-128.076
 30
0.0
  0
LWPOLYLINE
  5
A3
330
17
100
AcDbEntity
  8
0
100
AcDbPolyline
 90
8
 70
1
 10
179.302
 20
-127.78
 10
179.302
 20
-128.951
 10
177.787
 20
-129.826
 10
176.271
 20
-128.951
 10
176.271
 20
-127.201
 10
177.787
 20
-126.326
 10
178.764
 20
-126.89
 10
179.302
 20
-127.78
  0
LWPOLYLINE
  5
A4
330
17
100
AcDbEntity
  8
0
100
AcDbPolyline
 90
4
 70
1
 10
180.155
 20
-129.154
 10
179.802
 20
-128.951
 10
179.802
 20
-128.599
 10
180.155
 20
-129.154
  0
LWPOLYLINE
  5
A5
330
17
100
AcDbEntity
  8
0
100
AcDbPolyline
 90
4
 70
1
 10
138.042
 20
-123.766
 10
138.695
 20
-124.143
 10
138.695
 20
-125.6
 10
138.042
 20
-123.766
  0
INSERT
  5
A6
330
17
100
AcDbEntity
  8
0
100
AcDbBlockReference
  2
HEX
 10
140.71
 20
-125.018
 30
0.0
  0
INSERT
  5
A8
330
17
100
AcDbEntity
  8
0
100
AcDbBlockReference
  2
HEX
 10
144.241
 20
-125.018
 30
0.0
  0
INSERT
  5
AA
330
17
100
AcDbEntity
  8
0
100
AcDbBlockReference
  2
HEX
 10
147.772
 20
-125.018
 30
0.0
  0
INSERT
  5
AC
330
17
100
AcDbEntity
  8
0
100
AcDbBlockReference
  2
HEX
 10
151.303
 20
-125.018
 30
0.0
  0
INSERT
  5
AE
330
17
100
AcDbEntity
  8
0
100
AcDbBlockReference
  2
HEX
 10
154.835
 20
-125.018
 30
0.0
  0
INSERT
  5
B0
330
17
100
AcDbEntity
  8
0
100
AcDbBlockReference
  2
HEX
 10
158.366
 20
-125.018
 30
0.0
  0
INSERT
  5
B2
330
17
100
AcDbEntity
  8
0
100
AcDbBlockReference
  2
HEX
 10
161.897
 20
-125.018
 30
0.0
  0
INSERT
  5
B4
330
17
100
AcDbEntity
  8
0
100
AcDbBlockReference
  2
HEX
 10
165.428
 20
-125.018
 30
0.0
  0
INSERT
  5
B6
330
17
100
AcDbEntity
  8
0
100
AcDbBlockReference
  2
HEX
 10
168.959
 20
-125.018
 30
0.0
  0
INSERT
  5
B8
330
17
100
AcDbEntity
  8
0
100
AcDbBlockReference
  2
HEX
 10
172.49
 20
-125.018
 30
0.0
  0
LWPOLYLINE
  5
BA
330
17
100
AcDbEntity
  8
0
100
AcDbPolyline
 90
8
 70
1
 10
177.537
 20
-124.861
 10
177.537
 20
-125.893
 10
176.021
 20
-126.768
 10
174.506
 20
-125.893
 10
174.506
 20
-124.143
 10
176.021
 20
-123.268
 10
176.869
 20
-123.757
 10
177.537
 20
-124.861
  0
LWPOLYLINE
  5
BB
330
17
100
AcDbEntity
  8
0
100
AcDbPolyline
 90
4
 70
1
 10
178.227
 20
-126.003
 10
178.037
 20
-125.893
 10
178.037
 20
-125.688
 10
178.227
 20
-126.003
  0
LWPOLYLINE
  5
BC
330
17
100
AcDbEntity
  8
0
100
AcDbPolyline
 90
8
 70
1
 10
137.429
 20
-122.044
 10
137.429
 20
-121.085
 10
138.945
 20
-120.21
 10
140.46
 20
-121.085
 10
140.46
 20
-122.835
 10
138.945
 20
-123.71
 10
137.783
 20
-123.039
 10
137.429
 20
-122.044
  0
INSERT
  5
BD
330
17
100
AcDbEntity
  8
0
100
AcDbBlockReference
  2
HEX
 10
142.476
 20
-121.96
 30
0.0
  0
INSERT
  5
BF
330
17
100
AcDbEntity
  8
0
100
AcDbBlockReference
  2
HEX
 10
146.007
 20
-121.96
 30
0.0
  0
INSERT
  5
C1
330
17
100
AcDbEntity
  8
0
100
AcDbBlockReference
  2
HEX
 10
149.538
 20
-121.96
 30
0.0
  0
INSERT
  5
C3
330
17
100
AcDbEntity
  8
0
100
AcDbBlockReference
  2
HEX
 10
153.069
 20
-121.96
 30
0.0
  0
INSERT
  5
C5
330
17
100
AcDbEntity
  8
0
100
AcDbBlockReference
  2
HEX
 10
156.6
 20
-121.96
 30
0.0
  0
INSERT
  5
C7
330
17
100
AcDbEntity
  8
0
100
AcDbBlockReference
  2
HEX
 10
160.131
 20
-121.96
 30
0.0
  0
INSERT
  5
C9
330
17
100
AcDbEntity
  8
0
100
AcDbBlockReference
  2
HEX
 10
163.662
 20
-121.96
 30
0.0
  0
INSERT
  5
CB
330
17
100
AcDbEntity
  8
0
100
AcDbBlockReference
  2
HEX
 10
167.193
 20
-121.96
 30
0.0
  0
INSERT
  5
CD
330
17
100
AcDbEntity
  8
0
100
AcDbBlockReference
  2
HEX
 10
170.724
 20
-121.96
 30
0.0
  0
LWPOLYLINE
  5
CF
330
17
100
AcDbEntity
  8
0
100
AcDbPolyline
 90
8
 70
1
 10
175.771
 20
-121.943
 10
175.771
 20
-122.835
 10
174.256
 20
-123.71
 10
172.74
 20
-122.835
 10
172.74
 20
-121.085
 10
174.256
 20
-120.21
 10
174.974
 20
-120.624
 10
175.771
 20
-121.943
  0
LWPOLYLINE
  5
D0
330
17
100
AcDbEntity
  8
0
100
AcDbPolyline
 90
4
 70
1
 10
176.332
 20
-122.87
 10
176.271
 20
-122.835
 10
176.271
 20
-122.769
 10
176.332
 20
-122.87
  0
LWPOLYLINE
  5
D1
330
17
100
AcDbEntity
  8
0
100
AcDbPolyline
 90
7
 70
1
 10
135.942
 20
-117.866
 10
137.179
 20
-117.152
 10
138.695
 20
-118.027
 10
138.695
 20
-119.777
 10
137.179
 20
-120.652
 10
136.87
 20
-120.473
 10
135.942
 20
-117.866
  0
INSERT
  5
D2
330
17
100
AcDbEntity
  8
0
100
AcDbBlockReference
  2
HEX
 10
140.71
 20
-118.902
 30
0.0
  0
INSERT
  5
D4
330
17
100
AcDbEntity
  8
0
100
AcDbBlockReference
  2
HEX
 10
144.241
 20
-118.902
 30
0.0
  0
INSERT
  5
D6
330
17
100
AcDbEntity
  8
0
100
AcDbBlockReference
  2
HEX
 10
147.772
 20
-118.902
 30
0.0
  0
INSERT
  5
D8
330
17
100
AcDbEntity
  8
0
100
AcDbBlockReference
  2
HEX
 10
151.303
 20
-118.902
 30
0.0
  0
INSERT
  5
DA
330
17
100
AcDbEntity
  8
0
100
AcDbBlockReference
  2
HEX
 10
154.835
 20
-118.902
 30
0.0
  0
INSERT
  5
DC
330
17
100
AcDbEntity
  8
0
100
AcDbBlockReference
  2
HEX
 10
158.366
 20
-118.902
 30
0.0
  0
INSERT
  5
DE
330
17
100
AcDbEntity
  8
0
100
AcDbBlockReference
  2
HEX
 10
161.897
 20
-118.902
 30
0.0
  0
INSERT
  5
E0
330
17
100
AcDbEntity
  8
0
100
AcDbBlockReference
  2
HEX
 10
165.428
 20
-118.902
 30
0.0
  0
INSERT
  5
E2
330
17
100
AcDbEntity
  8
0
100
AcDbBlockReference
  2
HEX
 10
168.959
 20
-118.902
 30
0.0
  0
LWPOLYLINE
  5
E4
330
17
100
AcDbEntity
  8
0
100
AcDbPolyline
 90
8
 70
1
 10
174.006
 20
-118.699
 10
174.006
 20
-119.777
 10
172.49
 20
-120.652
 10
170.974
 20
-119.777
 10
170.974
 20
-118.027
 10
172.49
 20
-117.152
 10
173.574
 20
-117.778
 10
174.006
 20
-118.699
  0
LWPOLYLINE
  5
E5
330
17
100
AcDbEntity
  8
0
100
AcDbPolyline
 90
6
 70
1
 10
134.739
 20
-114.483
 10
135.414
 20
-114.094
 10
136.929
 20
-114.969
 10
136.929
 20
-116.719
 10
135.772
 20
-117.387
 10
134.739
 20
-114.483
  0
INSERT
  5
E6
330
17
100
AcDbEntity
  8
0
100
AcDbBlockReference
  2
HEX
 10
138.945
 20
-115.844
 30
0.0
  0
INSERT
  5
E8
330
17
100
AcDbEntity
  8
0
100
AcDbBlockReference
  2
HEX
 10
142.476
 20
-115.844
 30
0.0
  0
INSERT
  5
EA
330
17
100
AcDbEntity
  8
0
100
AcDbBlockReference
  2
HEX
 10
146.007
 20
-115.844
 30
0.0
  0
INSERT
  5
EC
330
17
100
AcDbEntity
  8
0
100
AcDbBlockReference
  2
HEX
 10
149.538
 20
-115.844
 30
0.0
  0
INSERT
  5
EE
330
17
100
AcDbEntity
  8
0
100
AcDbBlockReference
  2
HEX
 10
153.069
 20
-115.844
 30
0.0
  0
INSERT
  5
F0
330
17
100
AcDbEntity
  8
0
100
AcDbBlockReference
  2
HEX
 10
156.6
 20
-115.844
 30
0.0
  0
INSERT
  5
F2
330
17
100
AcDbEntity
  8
0
100
AcDbBlockReference
  2
HEX
 10
160.131
 20
-115.844
 30
0.0
  0
INSERT
  5
F4
330
17
100
AcDbEntity
  8
0
100
AcDbBlockReference
  2
HEX
 10
163.662
 20
-115.844
 30
0.0
  0
INSERT
  5
F6
330
17
100
AcDbEntity
  8
0
100
AcDbBlockReference
  2
HEX
 10
167.193
 20
-115.844
 30
0.0
  0
INSERT
  5
F8
330
17
100
AcDbEntity
  8
0
100
AcDbBlockReference
  2
HEX
 10
170.724
 20
-115.844
 30
0.0
  0
LWPOLYLINE
  5
FA
330
17
100
AcDbEntity
  8
0
100
AcDbPolyline
 90
4
 70
1
 10
173.203
 20
-116.986
 10
172.74
 20
-116.719
 10
172.74
 20
-115.997
 10
173.203
 20
-116.986
  0
LWPOLYLINE
  5
FB
330
17
100
AcDbEntity
  8
0
100
AcDbPolyline
 90
6
 70
1
 10
133.535
 20
-111.101
 10
133.648
 20
-111.036
 10
135.164
 20
-111.911
 10
135.164
 20
-113.661
 10
134.568
 20
-114.004
 10
133.535
 20
-111.101
  0
INSERT
  5
FC
330
17
100
AcDbEntity
  8
0
100
AcDbBlockReference
  2
HEX
 10
137.179
 20
-112.786
 30
0.0
  0
INSERT
  5
FE
330
17
100
AcDbEntity
  8
0
100
AcDbBlockReference
  2
HEX
 10
140.71
 20
-112.786
 30
0.0
  0
INSERT
  5
100
330
17
100
AcDbEntity
  8
0
100
AcDbBlockReference
  2
HEX
 10
144.241
 20
-112.786
 30
0.0
  0
INSERT
  5
102
330
17
100
AcDbEntity
  8
0
100
AcDbBlockReference
  2
HEX
 10
147.772
 20
-112.786
 30
0.0
  0
INSERT
  5
104
330
17
100
AcDbEntity
  8
0
100
AcDbBlockReference
  2
HEX
 10
151.303
 20
-112.786
 30
0.0
  0
INSERT
  5
106
330
17
100
AcDbEntity
  8
0
100
AcDbBlockReference
  2
HEX
 10
154.835
 20
-112.786
 30
0.0
  0
INSERT
  5
108
330
17
100
AcDbEntity
  8
0
100
AcDbBlockReference
  2
HEX
 10
158.366
 20
-112.786
 30
0.0
  0
INSERT
  5
10A
330
17
100
AcDbEntity
  8
0
100
AcDbBlockReference
  2
HEX
 10
161.897
 20
-112.786
 30
0.0
  0
INSERT
  5
10C
330
17
100
AcDbEntity
  8
0
100
AcDbBlockReference
  2
HEX
 10
165.428
 20
-112.786
 30
0.0
  0
INSERT
  5
10E
330
17
100
AcDbEntity
  8
0
100
AcDbBlockReference
  2
HEX
 10
168.959
 20
-112.786
 30
0.0
  0
LWPOLYLINE
  5
110
330
17
100
AcDbEntity
  8
0
100
AcDbPolyline
 90
4
 70
1
 10
171.894
 20
-114.192
 10
170.974
 20
-113.661
 10
170.974
 20
-112.228
 10
171.894
 20
-114.192
  0
LWPOLYLINE
  5
111
330
17
100
AcDbEntity
  8
0
100
AcDbPolyline
 90
5
 70
1
 10
132.563
 20
-108.371
 10
133.398
 20
-108.853
 10
133.398
 20
-110.603
 10
133.364
 20
-110.622
 10
132.563
 20
-108.371
  0
INSERT
  5
112
330
17
100
AcDbEntity
  8
0
100
AcDbBlockReference
  2
HEX
 10
135.414
 20
-109.728
 30
0.0
  0
INSERT
  5
114
330
17
100
AcDbEntity
  8
0
100
AcDbBlockReference
  2
HEX
 10
138.945
 20
-109.728
 30
0.0
  0
INSERT
  5
116
330
17
100
AcDbEntity
  8
0
100
AcDbBlockReference
  2
HEX
 10
142.476
 20
-109.728
 30
0.0
  0
INSERT
  5
118
330
17
100
AcDbEntity
  8
0
100
AcDbBlockReference
  2
HEX
 10
146.007
 20
-109.728
 30
0.0
  0
INSERT
  5
11A
330
17
100
AcDbEntity
  8
0
100
AcDbBlockReference
  2
HEX
 10
149.538
 20
-109.728
 30
0.0
  0
INSERT
  5
11C
330
17
100
AcDbEntity
  8
0
100
AcDbBlockReference
  2
HEX
 10
153.069
 20
-109.728
 30
0.0
  0
INSERT
  5
11E
330
17
100
AcDbEntity
  8
0
100
AcDbBlockReference
  2
HEX
 10
156.6
 20
-109.728
 30
0.0
  0
INSERT
  5
120
330
17
100
AcDbEntity
  8
0
100
AcDbBlockReference
  2
HEX
 10
160.131
 20
-109.728
 30
0.0
  0
INSERT
  5
122
330
17
100
AcDbEntity
  8
0
100
AcDbBlockReference
  2
HEX
 10
163.662
 20
-109.728
 30
0.0
  0
INSERT
  5
124
330
17
100
AcDbEntity
  8
0
100
AcDbBlockReference
  2
HEX
 10
167.193
 20
-109.728
 30
0.0
  0
LWPOLYLINE
  5
126
330
17
100
AcDbEntity
  8
0
100
AcDbPolyline
 90
5
 70
1
 10
170.695
 20
-111.46
 10
169.209
 20
-110.603
 10
169.209
 20
-108.853
 10
169.69
 20
-108.575
 10
170.695
 20
-111.46
  0
LWPOLYLINE
  5
127
330
17
100
AcDbEntity
  8
0
100
AcDbPolyline
 90
8
 70
1
 10
132.132
 20
-107.16
 10
132.132
 20
-106.447
 10
134.774
 20
-105.57
 10
135.164
 20
-105.795
 10
135.164
 20
-107.545
 10
133.648
 20
-108.42
 10
132.305
 20
-107.644
 10
132.132
 20
-107.16
  0
INSERT
  5
128
330
17
100
AcDbEntity
  8
0
100
AcDbBlockReference
  2
HEX
 10
137.179
 20
-106.67
 30
0.0
  0
INSERT
  5
12A
330
17
100
AcDbEntity
  8
0
100
AcDbBlockReference
  2
HEX
 10
140.71
 20
-106.67
 30
0.0
  0
INSERT
  5
12C
330
17
100
AcDbEntity
  8
0
100
AcDbBlockReference
  2
HEX
 10
144.241
 20
-106.67
 30
0.0
  0
INSERT
  5
12E
330
17
100
AcDbEntity
  8
0
100
AcDbBlockReference
  2
HEX
 10
147.772
 20
-106.67
 30
0.0
  0
INSERT
  5
130
330
17
100
AcDbEntity
  8
0
100
AcDbBlockReference
  2
HEX
 10
151.303
 20
-106.67
 30
0.0
  0
INSERT
  5
132
330
17
100
AcDbEntity
  8
0
100
AcDbBlockReference
  2
HEX
 10
154.835
 20
-106.67
 30
0.0
  0
INSERT
  5
134
330
17
100
AcDbEntity
  8
0
100
AcDbBlockReference
  2
HEX
 10
158.366
 20
-106.67
 30
0.0
  0
INSERT
  5
136
330
17
100
AcDbEntity
  8
0
100
AcDbBlockReference
  2
HEX
 10
161.897
 20
-106.67
 30
0.0
  0
INSERT
  5
138
330
17
100
AcDbEntity
  8
0
100
AcDbBlockReference
  2
HEX
 10
165.428
 20
-106.67
 30
0.0
  0
LWPOLYLINE
  5
13A
330
17
100
AcDbEntity
  8
0
100
AcDbPolyline
 90
6
 70
1
 10
169.522
 20
-108.094
 10
168.959
 20
-108.42
 10
167.443
 20
-107.545
 10
167.443
 20
-105.795
 10
168.507
 20
-105.18
 10
169.522
 20
-108.094
  0
INSERT
  5
13B
330
17
100
AcDbEntity
  8
0
100
AcDbBlockReference
  2
HEX
 10
138.945
 20
-103.612
 30
0.0
  0
INSERT
  5
13D
330
17
100
AcDbEntity
  8
0
100
AcDbBlockReference
  2
HEX
 10
142.476
 20
-103.612
 30
0.0
  0
INSERT
  5
13F
330
17
100
AcDbEntity
  8
0
100
AcDbBlockReference
  2
HEX
 10
146.007
 20
-103.612
 30
0.0
  0
INSERT
  5
141
330
17
100
AcDbEntity
  8
0
100
AcDbBlockReference
  2
HEX
 10
149.538
 20
-103.612
 30
0.0
  0
INSERT
  5
143
330
17
100
AcDbEntity
  8
0
100
AcDbBlockReference
  2
HEX
 10
153.069
 20
-103.612
 30
0.0
  0
INSERT
  5
145
330
17
100
AcDbEntity
  8
0
100
AcDbBlockReference
  2
HEX
 10
156.6
 20
-103.612
 30
0.0
  0
INSERT
  5
147
330
17
100
AcDbEntity
  8
0
100
AcDbBlockReference
  2
HEX
 10
160.131
 20
-103.612
 30
0.0
  0
INSERT
  5
149
330
17
100
AcDbEntity
  8
0
100
AcDbBlockReference
  2
HEX
 10
163.662
 20
-103.612
 30
0.0
  0
LWPOLYLINE
  5
14B
330
17
100
AcDbEntity
  8
0
100
AcDbPolyline
 90
7
 70
1
 10
168.34
 20
-104.7
 10
167.193
 20
-105.362
 10
165.678
 20
-104.487
 10
165.678
 20
-102.737
 10
167.193
 20
-101.862
 10
167.391
 20
-101.976
 10
168.34
 20
-104.7
  0
LWPOLYLINE
  5
14C
330
17
100
AcDbEntity
  8
0
100
AcDbPolyline
 90
8
 70
1
 10
137.189
 20
-101.635
 10
136.922
 20
-100.236
 10
136.582
 20
-99.148
 10
137.179
 20
-98.804
 10
138.695
 20
-99.679
 10
138.695
 20
-101.429
 10
137.241
 20
-102.268
 10
137.189
 20
-101.635
  0
INSERT
  5
14D
330
17
100
AcDbEntity
  8
0
100
AcDbBlockReference
  2
HEX
 10
140.71
 20
-100.554
 30
0.0
  0
INSERT
  5
14F
330
17
100
AcDbEntity
  8
0
100
AcDbBlockReference
  2
HEX
 10
144.241
 20
-100.554
 30
0.0
  0
INSERT
  5
151
330
17
100
AcDbEntity
  8
0
100
AcDbBlockReference
  2
HEX
 10
147.772
 20
-100.554
 30
0.0
  0
INSERT
  5
153
330
17
100
AcDbEntity
  8
0
100
AcDbBlockReference
  2
HEX
 10
151.303
 20
-100.554
 30
0.0
  0
INSERT
  5
155
330
17
100
AcDbEntity
  8
0
100
AcDbBlockReference
  2
HEX
 10
154.835
 20
-100.554
 30
0.0
  0
INSERT
  5
157
330
17
100
AcDbEntity
  8
0
100
AcDbBlockReference
  2
HEX
 10
158.366
 20
-100.554
 30
0.0
  0
INSERT
  5
159
330
17
100
AcDbEntity
  8
0
100
AcDbBlockReference
  2
HEX
 10
161.897
 20
-100.554
 30
0.0
  0
LWPOLYLINE
  5
15B
330
17
100
AcDbEntity
  8
0
100
AcDbPolyline
 90
8
 70
1
 10
166.649
 20
-99.509
 10
166.943
 20
-100.691
 10
166.943
 20
-101.429
 10
165.428
 20
-102.304
 10
163.912
 20
-101.429
 10
163.912
 20
-99.679
 10
165.428
 20
-98.804
 10
166.649
 20
-99.509
  0
LWPOLYLINE
  5
15C
330
17
100
AcDbEntity
  8
0
100
AcDbPolyline
 90
8
 70
1
 10
128.327
 20
-98.0
 10
128.285
 20
-97.63
 10
127.97
 20
-96.166
 10
127.915
 20
-95.998
 10
128.351
 20
-95.746
 10
129.867
 20
-96.621
 10
129.867
 20
-97.571
 10
128.327
 20
-98.0
  0
LWPOLYLINE
  5
15D
330
17
100
AcDbEntity
  8
0
100
AcDbPolyline
 90
5
 70
1
 10
130.367
 20
-97.432
 10
130.367
 20
-96.621
 10
131.882
 20
-95.746
 10
133.36
 20
-96.599
 10
130.367
 20
-97.432
  0
LWPOLYLINE
  5
15E
330
17
100
AcDbEntity
  8
0
100
AcDbPolyline
 90
12
 70
1
 10
136.182
 20
-98.155
 10
135.825
 20
-97.526
 10
135.403
 20
-96.956
 10
135.166
 20
-96.698
 10
134.911
 20
-96.459
 10
134.638
 20
-96.243
 10
134.472
 20
-96.289
 10
135.414
 20
-95.746
 10
136.929
 20
-96.621
 10
136.929
 20
-98.371
 10
136.411
 20
-98.67
 10
136.182
 20
-98.155
  0
INSERT
  5
15F
330
17
100
AcDbEntity
  8
0
100
AcDbBlockReference
  2
HEX
 10
138.945
 20
-97.496
 30
0.0
  0
INSERT
  5
161
330
17
100
AcDbEntity
  8
0
100
AcDbBlockReference
  2
HEX
 10
142.476
 20
-97.496
 30
0.0
  0
INSERT
  5
163
330
17
100
AcDbEntity
  8
0
100
AcDbBlockReference
  2
HEX
 10
146.007
 20
-97.496
 30
0.0
  0
INSERT
  5
165
330
17
100
AcDbEntity
  8
0
100
AcDbBlockReference
  2
HEX
 10
149.538
 20
-97.496
 30
0.0
  0
INSERT
  5
167
330
17
100
AcDbEntity
  8
0
100
AcDbBlockReference
  2
HEX
 10
153.069
 20
-97.496
 30
0.0
  0
INSERT
  5
169
330
17
100
AcDbEntity
  8
0
100
AcDbBlockReference
  2
HEX
 10
156.6
 20
-97.496
 30
0.0
  0
INSERT
  5
16B
330
17
100
AcDbEntity
  8
0
100
AcDbBlockReference
  2
HEX
 10
160.131
 20
-97.496
 30
0.0
  0
INSERT
  5
16D
330
17
100
AcDbEntity
  8
0
100
AcDbBlockReference
  2
HEX
 10
163.662
 20
-97.496
 30
0.0
  0
LWPOLYLINE
  5
16F
330
17
100
AcDbEntity
  8
0
100
AcDbPolyline
 90
7
 70
1
 10
166.168
 20
-96.93
 10
166.473
 20
-98.781
 10
166.487
 20
-98.838
 10
165.678
 20
-98.371
 10
165.678
 20
-96.621
 10
166.124
 20
-96.363
 10
166.168
 20
-96.93
  0
LWPOLYLINE
  5
170
330
17
100
AcDbEntity
  8
0
100
AcDbPolyline
 90
8
 70
1
 10
127.627
 20
-95.116
 10
127.117
 20
-93.914
 10
126.486
 20
-92.745
 10
126.586
 20
-92.688
 10
128.101
 20
-93.563
 10
128.101
 20
-95.313
 10
127.756
 20
-95.512
 10
127.627
 20
-95.116
  0
INSERT
  5
171
330
17
100
AcDbEntity
  8
0
100
AcDbBlockReference
  2
HEX
 10
130.117
 20
-94.438
 30
0.0
  0
INSERT
  5
173
330
17
100
AcDbEntity
  8
0
100
AcDbBlockReference
  2
HEX
 10
133.648
 20
-94.438
 30
0.0
  0
INSERT
  5
175
330
17
100
AcDbEntity
  8
0
100
AcDbBlockReference
  2
HEX
 10
137.179
 20
-94.438
 30
0.0
  0
INSERT
  5
177
330
17
100
AcDbEntity
  8
0
100
AcDbBlockReference
  2
HEX
 10
140.71
 20
-94.438
 30
0.0
  0
INSERT
  5
179
330
17
100
AcDbEntity
  8
0
100
AcDbBlockReference
  2
HEX
 10
144.241
 20
-94.438
 30
0.0
  0
INSERT
  5
17B
330
17
100
AcDbEntity
  8
0
100
AcDbBlockReference
  2
HEX
 10
147.772
 20
-94.438
 30
0.0
  0
INSERT
  5
17D
330
17
100
AcDbEntity
  8
0
100
AcDbBlockReference
  2
HEX
 10
151.303
 20
-94.438
 30
0.0
  0
INSERT
  5
17F
330
17
100
AcDbEntity
  8
0
100
AcDbBlockReference
  2
HEX
 10
154.835
 20
-94.438
 30
0.0
  0
INSERT
  5
181
330
17
100
AcDbEntity
  8
0
100
AcDbBlockReference
  2
HEX
 10
158.366
 20
-94.438
 30
0.0
  0
INSERT
  5
183
330
17
100
AcDbEntity
  8
0
100
AcDbBlockReference
  2
HEX
 10
161.897
 20
-94.438
 30
0.0
  0
LWPOLYLINE
  5
185
330
17
100
AcDbEntity
  8
0
100
AcDbPolyline
 90
8
 70
1
 10
165.884
 20
-93.277
 10
166.081
 20
-95.81
 10
165.428
 20
-96.188
 10
163.912
 20
-95.313
 10
163.912
 20
-93.563
 10
165.428
 20
-92.688
 10
165.892
 20
-92.955
 10
165.884
 20
-93.277
  0
LWPOLYLINE
  5
186
330
17
100
AcDbEntity
  8
0
100
AcDbPolyline
 90
7
 70
1
 10
125.47
 20
-91.228
 10
124.334
 20
-89.91
 10
124.82
 20
-89.63
 10
126.336
 20
-90.505
 10
126.336
 20
-92.255
 10
126.218
 20
-92.323
 10
125.47
 20
-91.228
  0
INSERT
  5
187
330
17
100
AcDbEntity
  8
0
100
AcDbBlockReference
  2
HEX
 10
128.351
 20
-91.38
 30
0.0
  0
INSERT
  5
189
330
17
100
AcDbEntity
  8
0
100
AcDbBlockReference
  2
HEX
 10
131.882
 20
-91.38
 30
0.0
  0
INSERT
  5
18B
330
17
100
AcDbEntity
  8
0
100
AcDbBlockReference
  2
HEX
 10
135.414
 20
-91.38
 30
0.0
  0
INSERT
  5
18D
330
17
100
AcDbEntity
  8
0
100
AcDbBlockReference
  2
HEX
 10
138.945
 20
-91.38
 30
0.0
  0
INSERT
  5
18F
330
17
100
AcDbEntity
  8
0
100
AcDbBlockReference
  2
HEX
 10
142.476
 20
-91.38
 30
0.0
  0
INSERT
  5
191
330
17
100
AcDbEntity
  8
0
100
AcDbBlockReference
  2
HEX
 10
146.007
 20
-91.38
 30
0.0
  0
INSERT
  5
193
330
17
100
AcDbEntity
  8
0
100
AcDbBlockReference
  2
HEX
 10
149.538
 20
-91.38
 30
0.0
  0
INSERT
  5
195
330
17
100
AcDbEntity
  8
0
100
AcDbBlockReference
  2
HEX
 10
153.069
 20
-91.38
 30
0.0
  0
INSERT
  5
197
330
17
100
AcDbEntity
  8
0
100
AcDbBlockReference
  2
HEX
 10
156.6
 20
-91.38
 30
0.0
  0
INSERT
  5
199
330
17
100
AcDbEntity
  8
0
100
AcDbBlockReference
  2
HEX
 10
160.131
 20
-91.38
 30
0.0
  0
INSERT
  5
19B
330
17
100
AcDbEntity
  8
0
100
AcDbBlockReference
  2
HEX
 10
163.662
 20
-91.38
 30
0.0
  0
LWPOLYLINE
  5
19D
330
17
100
AcDbEntity
  8
0
100
AcDbPolyline
 90
5
 70
1
 10
165.906
 20
-92.386
 10
165.678
 20
-92.255
 10
165.678
 20
-90.505
 10
165.955
 20
-90.345
 10
165.906
 20
-92.386
  0
LWPOLYLINE
  5
19E
330
17
100
AcDbEntity
  8
0
100
AcDbPolyline
 90
8
 70
1
 10
122.768
 20
-88.459
 10
121.539
 20
-87.582
 10
121.539
 20
-87.447
 10
123.055
 20
-86.572
 10
124.57
 20
-87.447
 10
124.57
 20
-89.197
 10
123.959
 20
-89.55
 10
122.768
 20
-88.459
  0
INSERT
  5
19F
330
17
100
AcDbEntity
  8
0
100
AcDbBlockReference
  2
HEX
 10
126.586
 20
-88.322
 30
0.0
  0
INSERT
  5
1A1
330
17
100
AcDbEntity
  8
0
100
AcDbBlockReference
  2
HEX
 10
130.117
 20
-88.322
 30
0.0
  0
INSERT
  5
1A3
330
17
100
AcDbEntity
  8
0
100
AcDbBlockReference
  2
HEX
 10
133.648
 20
-88.322
 30
0.0
  0
INSERT
  5
1A5
330
17
100
AcDbEntity
  8
0
100
AcDbBlockReference
  2
HEX
 10
137.179
 20
-88.322
 30
0.0
  0
INSERT
  5
1A7
330
17
100
AcDbEntity
  8
0
100
AcDbBlockReference
  2
HEX
 10
140.71
 20
-88.322
 30
0.0
  0
INSERT
  5
1A9
330
17
100
AcDbEntity
  8
0
100
AcDbBlockReference
  2
HEX
 10
144.241
 20
-88.322
 30
0.0
  0
INSERT
  5
1AB
330
17
100
AcDbEntity
  8
0
100
AcDbBlockReference
  2
HEX
 10
147.772
 20
-88.322
 30
0.0
  0
INSERT
  5
1AD
330
17
100
AcDbEntity
  8
0
100
AcDbBlockReference
  2
HEX
 10
151.303
 20
-88.322
 30
0.0
  0
INSERT
  5
1AF
330
17
100
AcDbEntity
  8
0
100
AcDbBlockReference
  2
HEX
 10
154.835
 20
-88.322
 30
0.0
  0
INSERT
  5
1B1
330
17
100
AcDbEntity
  8
0
100
AcDbBlockReference
  2
HEX
 10
158.366
 20
-88.322
 30
0.0
  0
INSERT
  5
1B3
330
17
100
AcDbEntity
  8
0
100
AcDbBlockReference
  2
HEX
 10
161.897
 20
-88.322
 30
0.0
  0
LWPOLYLINE
  5
1B5
330
17
100
AcDbEntity
  8
0
100
AcDbPolyline
 90
7
 70
1
 10
165.997
 20
-89.743
 10
165.428
 20
-90.072
 10
163.912
 20
-89.197
 10
163.912
 20
-87.447
 10
165.428
 20
-86.572
 10
166.352
 20
-87.105
 10
165.997
 20
-89.743
  0
LWPOLYLINE
  5
1B6
330
17
100
AcDbEntity
  8
0
100
AcDbPolyline
 90
4
 70
1
 10
110.503
 20
-83.625
 10
110.696
 20
-83.514
 10
111.053
 20
-83.72
 10
110.503
 20
-83.625
  0
LWPOLYLINE
  5
1B7
330
17
100
AcDbEntity
  8
0
100
AcDbPolyline
 90
5
 70
1
 10
113.216
 20
-84.097
 10
114.227
 20
-83.514
 10
115.743
 20
-84.389
 10
115.743
 20
-84.802
 10
113.216
 20
-84.097
  0
LWPOLYLINE
  5
1B8
330
17
100
AcDbEntity
  8
0
100
AcDbPolyline
 90
8
 70
1
 10
118.751
 20
-85.959
 10
116.243
 20
-84.95
 10
116.243
 20
-84.389
 10
117.758
 20
-83.514
 10
119.274
 20
-84.389
 10
119.274
 20
-86.139
 10
119.179
 20
-86.193
 10
118.751
 20
-85.959
  0
INSERT
  5
1B9
330
17
100
AcDbEntity
  8
0
100
AcDbBlockReference
  2
HEX
 10
121.289
 20
-85.264
 30
0.0
  0
INSERT
  5
1BB
330
17
100
AcDbEntity
  8
0
100
AcDbBlockReference
  2
HEX
 10
124.82
 20
-85.264
 30
0.0
  0
INSERT
  5
1BD
330
17
100
AcDbEntity
  8
0
100
AcDbBlockReference
  2
HEX
 10
128.351
 20
-85.264
 30
0.0
  0
INSERT
  5
1BF
330
17
100
AcDbEntity
  8
0
100
AcDbBlockReference
  2
HEX
 10
131.882
 20
-85.264
 30
0.0
  0
INSERT
  5
1C1
330
17
100
AcDbEntity
  8
0
100
AcDbBlockReference
  2
HEX
 10
135.414
 20
-85.264
 30
0.0
  0
INSERT
  5
1C3
330
17
100
AcDbEntity
  8
0
100
AcDbBlockReference
  2
HEX
 10
138.945
 20
-85.264
 30
0.0
  0
INSERT
  5
1C5
330
17
100
AcDbEntity
  8
0
100
AcDbBlockReference
  2
HEX
 10
142.476
 20
-85.264
 30
0.0
  0
INSERT
  5
1C7
330
17
100
AcDbEntity
  8
0
100
AcDbBlockReference
  2
HEX
 10
146.007
 20
-85.264
 30
0.0
  0
INSERT
  5
1C9
330
17
100
AcDbEntity
  8
0
100
AcDbBlockReference
  2
HEX
 10
149.538
 20
-85.264
 30
0.0
  0
INSERT
  5
1CB
330
17
100
AcDbEntity
  8
0
100
AcDbBlockReference
  2
HEX
 10
153.069
 20
-85.264
 30
0.0
  0
INSERT
  5
1CD
330
17
100
AcDbEntity
  8
0
100
AcDbBlockReference
  2
HEX
 10
156.6
 20
-85.264
 30
0.0
  0
INSERT
  5
1CF
330
17
100
AcDbEntity
  8
0
100
AcDbBlockReference
  2
HEX
 10
160.131
 20
-85.264
 30
0.0
  0
INSERT
  5
1D1
330
17
100
AcDbEntity
  8
0
100
AcDbBlockReference
  2
HEX
 10
163.662
 20
-85.264
 30
0.0
  0
LWPOLYLINE
  5
1D3
330
17
100
AcDbEntity
  8
0
100
AcDbPolyline
 90
7
 70
1
 10
167.02
 20
-84.47
 10
166.476
 20
-86.6
 10
165.678
 20
-86.139
 10
165.678
 20
-84.389
 10
167.193
 20
-83.514
 10
167.355
 20
-83.607
 10
167.02
 20
-84.47
  0
LWPOLYLINE
  5
1D4
330
17
100
AcDbEntity
  8
0
100
AcDbPolyline
 90
14
 70
1
 10
103.13
 20
-83.099
 10
102.805
 20
-82.996
 10
102.506
 20
-82.839
 10
102.368
 20
-82.743
 10
102.119
 20
-82.516
 10
101.911
 20
-82.249
 10
101.75
 20
-81.948
 10
101.689
 20
-81.785
 10
101.449
 20
-80.697
 10
101.868
 20
-80.456
 10
103.384
 20
-81.331
 10
103.384
 20
-83.081
 10
103.3
 20
-83.129
 10
103.13
 20
-83.099
  0
LWPOLYLINE
  5
1D5
330
17
100
AcDbEntity
  8
0
100
AcDbPolyline
 90
8
 70
1
 10
104.04
 20
-83.171
 10
103.884
 20
-83.081
 10
103.884
 20
-81.331
 10
105.399
 20
-80.456
 10
106.915
 20
-81.331
 10
106.915
 20
-83.081
 10
106.519
 20
-83.309
 10
104.04
 20
-83.171
  0
LWPOLYLINE
  5
1D6
330
17
100
AcDbEntity
  8
0
100
AcDbPolyline
 90
8
 70
1
 10
109.732
 20
-83.493
 10
107.949
 20
-83.389
 10
107.415
 20
-83.081
 10
107.415
 20
-81.331
 10
108.93
 20
-80.456
 10
110.446
 20
-81.331
 10
110.446
 20
-83.081
 10
109.732
 20
-83.493
  0
INSERT
  5
1D7
330
17
100
AcDbEntity
  8
0
100
AcDbBlockReference
  2
HEX
 10
112.461
 20
-82.206
 30
0.0
  0
INSERT
  5
1D9
330
17
100
AcDbEntity
  8
0
100
AcDbBlockReference
  2
HEX
 10
115.993
 20
-82.206
 30
0.0
  0
INSERT
  5
1DB
330
17
100
AcDbEntity
  8
0
100
AcDbBlockReference
  2
HEX
 10
119.524
 20
-82.206
 30
0.0
  0
INSERT
  5
1DD
330
17
100
AcDbEntity
  8
0
100
AcDbBlockReference
  2
HEX
 10
123.055
 20
-82.206
 30
0.0
  0
INSERT
  5
1DF
330
17
100
AcDbEntity
  8
0
100
AcDbBlockReference
  2
HEX
 10
126.586
 20
-82.206
 30
0.0
  0
INSERT
  5
1E1
330
17
100
AcDbEntity
  8
0
100
AcDbBlockReference
  2
HEX
 10
130.117
 20
-82.206
 30
0.0
  0
INSERT
  5
1E3
330
17
100
AcDbEntity
  8
0
100
AcDbBlockReference
  2
HEX
 10
133.648
 20
-82.206
 30
0.0
  0
INSERT
  5
1E5
330
17
100
AcDbEntity
  8
0
100
AcDbBlockReference
  2
HEX
 10
137.179
 20
-82.206
 30
0.0
  0
INSERT
  5
1E7
330
17
100
AcDbEntity
  8
0
100
AcDbBlockReference
  2
HEX
 10
140.71
 20
-82.206
 30
0.0
  0
INSERT
  5
1E9
330
17
100
AcDbEntity
  8
0
100
AcDbBlockReference
  2
HEX
 10
144.241
 20
-82.206
 30
0.0
  0
INSERT
  5
1EB
330
17
100
AcDbEntity
  8
0
100
AcDbBlockReference
  2
HEX
 10
147.772
 20
-82.206
 30
0.0
  0
INSERT
  5
1ED
330
17
100
AcDbEntity
  8
0
100
AcDbBlockReference
  2
HEX
 10
151.303
 20
-82.206
 30
0.0
  0
INSERT
  5
1EF
330
17
100
AcDbEntity
  8
0
100
AcDbBlockReference
  2
HEX
 10
154.835
 20
-82.206
 30
0.0
  0
INSERT
  5
1F1
330
17
100
AcDbEntity
  8
0
100
AcDbBlockReference
  2
HEX
 10
158.366
 20
-82.206
 30
0.0
  0
INSERT
  5
1F3
330
17
100
AcDbEntity
  8
0
100
AcDbBlockReference
  2
HEX
 10
161.897
 20
-82.206
 30
0.0
  0
INSERT
  5
1F5
330
17
100
AcDbEntity
  8
0
100
AcDbBlockReference
  2
HEX
 10
165.428
 20
-82.206
 30
0.0
  0
LWPOLYLINE
  5
1F7
330
17
100
AcDbEntity
  8
0
100
AcDbPolyline
 90
6
 70
1
 10
167.903
 20
-82.191
 10
167.537
 20
-83.135
 10
167.443
 20
-83.081
 10
167.443
 20
-81.331
 10
168.768
 20
-80.566
 10
167.903
 20
-82.191
  0
LWPOLYLINE
  5
1F8
330
17
100
AcDbEntity
  8
0
100
AcDbPolyline
 90
6
 70
1
 10
32.689
 20
-77.977
 10
32.329
 20
-77.916
 10
32.183
 20
-77.876
 10
33.012
 20
-77.397
 10
34.018
 20
-77.978
 10
32.689
 20
-77.977
  0
LWPOLYLINE
  5
1F9
330
17
100
AcDbEntity
  8
0
100
AcDbPolyline
 90
4
 70
1
 10
35.535
 20
-77.98
 10
36.543
 20
-77.397
 10
37.554
 20
-77.981
 10
35.535
 20
-77.98
  0
LWPOLYLINE
  5
1FA
330
17
100
AcDbEntity
  8
0
100
AcDbPolyline
 90
4
 70
1
 10
39.061
 20
-77.982
 10
40.074
 20
-77.397
 10
41.09
 20
-77.984
 10
39.061
 20
-77.982
  0
LWPOLYLINE
  5
1FB
330
17
100
AcDbEntity
  8
0
100
AcDbPolyline
 90
4
 70
1
 10
42.587
 20
-77.985
 10
43.605
 20
-77.397
 10
44.626
 20
-77.987
 10
42.587
 20
-77.985
  0
LWPOLYLINE
  5
1FC
330
17
100
AcDbEntity
  8
0
100
AcDbPolyline
 90
4
 70
1
 10
46.113
 20
-77.988
 10
47.136
 20
-77.397
 10
48.162
 20
-77.99
 10
46.113
 20
-77.988
  0
LWPOLYLINE
  5
1FD
330
17
100
AcDbEntity
  8
0
100
AcDbPolyline
 90
4
 70
1
 10
49.639
 20
-77.991
 10
50.667
 20
-77.397
 10
51.698
 20
-77.993
 10
49.639
 20
-77.991
  0
LWPOLYLINE
  5
1FE
330
17
100
AcDbEntity
  8
0
100
AcDbPolyline
 90
4
 70
1
 10
53.165
 20
-77.994
 10
54.198
 20
-77.397
 10
55.235
 20
-77.996
 10
53.165
 20
-77.994
  0
LWPOLYLINE
  5
1FF
330
17
100
AcDbEntity
  8
0
100
AcDbPolyline
 90
4
 70
1
 10
56.691
 20
-77.997
 10
57.73
 20
-77.397
 10
58.771
 20
-77.999
 10
56.691
 20
-77.997
  0
LWPOLYLINE
  5
200
330
17
100
AcDbEntity
  8
0
100
AcDbPolyline
 90
5
 70
1
 10
100.812
 20
-77.807
 10
101.618
 20
-78.272
 10
101.618
 20
-80.022
 10
101.336
 20
-80.185
 10
100.812
 20
-77.807
  0
INSERT
  5
201
330
17
100
AcDbEntity
  8
0
100
AcDbBlockReference
  2
HEX
 10
103.634
 20
-79.147
 30
0.0
  0
INSERT
  5
203
330
17
100
AcDbEntity
  8
0
100
AcDbBlockReference
  2
HEX
 10
107.165
 20
-79.147
 30
0.0
  0
INSERT
  5
205
330
17
100
AcDbEntity
  8
0
100
AcDbBlockReference
  2
HEX
 10
110.696
 20
-79.147
 30
0.0
  0
INSERT
  5
207
330
17
100
AcDbEntity
  8
0
100
AcDbBlockReference
  2
HEX
 10
114.227
 20
-79.147
 30
0.0
  0
INSERT
  5
209
330
17
100
AcDbEntity
  8
0
100
AcDbBlockReference
  2
HEX
 10
117.758
 20
-79.147
 30
0.0
  0
INSERT
  5
20B
330
17
100
AcDbEntity
  8
0
100
AcDbBlockReference
  2
HEX
 10
121.289
 20
-79.147
 30
0.0
  0
LWPOLYLINE
  5
20D
330
17
100
AcDbEntity
  8
0
100
AcDbPolyline
 90
14
 70
1
 10
123.702
 20
-78.853
 10
123.773
 20
-79.197
 10
123.907
 20
-79.515
 10
124.097
 20
-79.797
 10
124.337
 20
-80.036
 10
124.618
 20
-80.227
 10
124.936
 20
-80.361
 10
125.281
 20
-80.431
 10
125.628
 20
-80.431
 10
124.82
 20
-80.897
 10
123.305
 20
-80.022
 10
123.305
 20
-78.272
 10
123.699
 20
-78.045
 10
123.702
 20
-78.853
  0
LWPOLYLINE
  5
20E
330
17
100
AcDbEntity
  8
0
100
AcDbPolyline
 90
4
 70
1
 10
129.159
 20
-80.431
 10
128.351
 20
-80.897
 10
127.544
 20
-80.431
 10
129.159
 20
-80.431
  0
LWPOLYLINE
  5
20F
330
17
100
AcDbEntity
  8
0
100
AcDbPolyline
 90
4
 70
1
 10
132.69
 20
-80.431
 10
131.882
 20
-80.897
 10
131.075
 20
-80.431
 10
132.69
 20
-80.431
  0
LWPOLYLINE
  5
210
330
17
100
AcDbEntity
  8
0
100
AcDbPolyline
 90
4
 70
1
 10
136.222
 20
-80.431
 10
135.414
 20
-80.897
 10
134.606
 20
-80.431
 10
136.222
 20
-80.431
  0
LWPOLYLINE
  5
211
330
17
100
AcDbEntity
  8
0
100
AcDbPolyline
 90
13
 70
1
 10
138.901
 20
-80.431
 10
139.087
 20
-80.402
 10
139.439
 20
-80.293
 10
139.603
 20
-80.214
 10
139.903
 20
-80.012
 10
140.157
 20
-79.758
 10
140.265
 20
-79.613
 10
140.359
 20
-79.459
 10
140.46
 20
-79.234
 10
140.46
 20
-80.022
 10
138.945
 20
-80.897
 10
138.136
 20
-80.431
 10
138.901
 20
-80.431
  0
INSERT
  5
212
330
17
100
AcDbEntity
  8
0
100
AcDbBlockReference
  2
HEX
 10
142.476
 20
-79.147
 30
0.0
  0
INSERT
  5
214
330
17
100
AcDbEntity
  8
0
100
AcDbBlockReference
  2
HEX
 10
146.007
 20
-79.147
 30
0.0
  0
INSERT
  5
216
330
17
100
AcDbEntity
  8
0
100
AcDbBlockReference
  2
HEX
 10
149.538
 20
-79.147
 30
0.0
  0
INSERT
  5
218
330
17
100
AcDbEntity
  8
0
100
AcDbBlockReference
  2
HEX
 10
153.069
 20
-79.147
 30
0.0
  0
INSERT
  5
21A
330
17
100
AcDbEntity
  8
0
100
AcDbBlockReference
  2
HEX
 10
156.6
 20
-79.147
 30
0.0
  0
INSERT
  5
21C
330
17
100
AcDbEntity
  8
0
100
AcDbBlockReference
  2
HEX
 10
160.131
 20
-79.147
 30
0.0
  0
INSERT
  5
21E
330
17
100
AcDbEntity
  8
0
100
AcDbBlockReference
  2
HEX
 10
163.662
 20
-79.147
 30
0.0
  0
INSERT
  5
220
330
17
100
AcDbEntity
  8
0
100
AcDbBlockReference
  2
HEX
 10
167.193
 20
-79.147
 30
0.0
  0
LWPOLYLINE
  5
222
330
17
100
AcDbEntity
  8
0
100
AcDbPolyline
 90
6
 70
1
 10
170.139
 20
-78.501
 10
169.209
 20
-79.845
 10
169.209
 20
-78.272
 10
170.724
 20
-77.397
 10
170.974
 20
-77.542
 10
170.139
 20
-78.501
  0
LWPOLYLINE
  5
223
330
17
100
AcDbEntity
  8
0
100
AcDbPolyline
 90
14
 70
1
 10
31.334
 20
-77.537
 10
31.037
 20
-77.351
 10
30.759
 20
-77.139
 10
30.503
 20
-76.902
 10
30.271
 20
-76.641
 10
30.064
 20
-76.36
 10
29.884
 20
-76.059
 10
29.731
 20
-75.735
 10
29.731
 20
-75.214
 10
31.246
 20
-74.339
 10
32.762
 20
-75.214
 10
32.762
 20
-76.964
 10
31.569
 20
-77.653
 10
31.334
 20
-77.537
  0
INSERT
  5
224
330
17
100
AcDbEntity
  8
0
100
AcDbBlockReference
  2
HEX
 10
34.777
 20
-76.089
 30
0.0
  0
INSERT
  5
226
330
17
100
AcDbEntity
  8
0
100
AcDbBlockReference
  2
HEX
 10
38.309
 20
-76.089
 30
0.0
  0
INSERT
  5
228
330
17
100
AcDbEntity
  8
0
100
AcDbBlockReference
  2
HEX
 10
41.84
 20
-76.089
 30
0.0
  0
INSERT
  5
22A
330
17
100
AcDbEntity
  8
0
100
AcDbBlockReference
  2
HEX
 10
45.371
 20
-76.089
 30
0.0
  0
INSERT
  5
22C
330
17
100
AcDbEntity
  8
0
100
AcDbBlockReference
  2
HEX
 10
48.902
 20
-76.089
 30
0.0
  0
INSERT
  5
22E
330
17
100
AcDbEntity
  8
0
100
AcDbBlockReference
  2
HEX
 10
52.433
 20
-76.089
 30
0.0
  0
INSERT
  5
230
330
17
100
AcDbEntity
  8
0
100
AcDbBlockReference
  2
HEX
 10
55.964
 20
-76.089
 30
0.0
  0
LWPOLYLINE
  5
232
330
17
100
AcDbEntity
  8
0
100
AcDbPolyline
 90
6
 70
1
 10
58.916
 20
-77.505
 10
57.98
 20
-76.964
 10
57.98
 20
-75.214
 10
59.495
 20
-74.339
 10
59.645
 20
-74.426
 10
58.916
 20
-77.505
  0
LWPOLYLINE
  5
233
330
17
100
AcDbEntity
  8
0
100
AcDbPolyline
 90
9
 70
1
 10
100.459
 20
-76.207
 10
100.353
 20
-75.869
 10
100.353
 20
-75.214
 10
101.868
 20
-74.339
 10
103.384
 20
-75.214
 10
103.384
 20
-76.964
 10
101.868
 20
-77.839
 10
100.666
 20
-77.145
 10
100.459
 20
-76.207
  0
INSERT
  5
234
330
17
100
AcDbEntity
  8
0
100
AcDbBlockReference
  2
HEX
 10
105.399
 20
-76.089
 30
0.0
  0
INSERT
  5
236
330
17
100
AcDbEntity
  8
0
100
AcDbBlockReference
  2
HEX
 10
108.93
 20
-76.089
 30
0.0
  0
INSERT
  5
238
330
17
100
AcDbEntity
  8
0
100
AcDbBlockReference
  2
HEX
 10
112.461
 20
-76.089
 30
0.0
  0
INSERT
  5
23A
330
17
100
AcDbEntity
  8
0
100
AcDbBlockReference
  2
HEX
 10
115.993
 20
-76.089
 30
0.0
  0
INSERT
  5
23C
330
17
100
AcDbEntity
  8
0
100
AcDbBlockReference
  2
HEX
 10
119.524
 20
-76.089
 30
0.0
  0
LWPOLYLINE
  5
23E
330
17
100
AcDbEntity
  8
0
100
AcDbPolyline
 90
7
 70
1
 10
123.697
 20
-77.469
 10
123.055
 20
-77.839
 10
121.539
 20
-76.964
 10
121.539
 20
-75.214
 10
123.055
 20
-74.339
 10
123.686
 20
-74.704
 10
123.697
 20
-77.469
  0
LWPOLYLINE
  5
23F
330
17
100
AcDbEntity
  8
0
100
AcDbPolyline
 90
7
 70
1
 10
140.594
 20
-74.406
 10
140.71
 20
-74.339
 10
142.226
 20
-75.214
 10
142.226
 20
-76.964
 10
140.71
 20
-77.839
 10
140.58
 20
-77.764
 10
140.594
 20
-74.406
  0
INSERT
  5
240
330
17
100
AcDbEntity
  8
0
100
AcDbBlockReference
  2
HEX
 10
144.241
 20
-76.089
 30
0.0
  0
INSERT
  5
242
330
17
100
AcDbEntity
  8
0
100
AcDbBlockReference
  2
HEX
 10
147.772
 20
-76.089
 30
0.0
  0
INSERT
  5
244
330
17
100
AcDbEntity
  8
0
100
AcDbBlockReference
  2
HEX
 10
151.303
 20
-76.089
 30
0.0
  0
INSERT
  5
246
330
17
100
AcDbEntity
  8
0
100
AcDbBlockReference
  2
HEX
 10
154.835
 20
-76.089
 30
0.0
  0
INSERT
  5
248
330
17
100
AcDbEntity
  8
0
100
AcDbBlockReference
  2
HEX
 10
158.366
 20
-76.089
 30
0.0
  0
INSERT
  5
24A
330
17
100
AcDbEntity
  8
0
100
AcDbBlockReference
  2
HEX
 10
161.897
 20
-76.089
 30
0.0
  0
INSERT
  5
24C
330
17
100
AcDbEntity
  8
0
100
AcDbBlockReference
  2
HEX
 10
165.428
 20
-76.089
 30
0.0
  0
INSERT
  5
24E
330
17
100
AcDbEntity
  8
0
100
AcDbBlockReference
  2
HEX
 10
168.959
 20
-76.089
 30
0.0
  0
LWPOLYLINE
  5
250
330
17
100
AcDbEntity
  8
0
100
AcDbPolyline
 90
8
 70
1
 10
172.686
 20
-75.849
 10
171.398
 20
-77.055
 10
171.309
 20
-77.157
 10
170.974
 20
-76.964
 10
170.974
 20
-75.214
 10
172.49
 20
-74.339
 10
173.719
 20
-75.049
 10
172.686
 20
-75.849
  0
LWPOLYLINE
  5
251
330
17
100
AcDbEntity
  8
0
100
AcDbPolyline
 90
7
 70
1
 10
29.874
 20
-71.509
 10
30.996
 20
-72.156
 10
30.996
 20
-73.906
 10
29.482
 20
-74.781
 10
29.469
 20
-74.696
 10
29.45
 20
-71.508
 10
29.874
 20
-71.509
  0
LWPOLYLINE
  5
252
330
17
100
AcDbEntity
  8
0
100
AcDbPolyline
 90
8
 70
1
 10
33.417
 20
-71.515
 10
34.527
 20
-72.156
 10
34.527
 20
-73.906
 10
33.012
 20
-74.781
 10
31.496
 20
-73.906
 10
31.496
 20
-72.156
 10
32.61
 20
-71.514
 10
33.417
 20
-71.515
  0
LWPOLYLINE
  5
253
330
17
100
AcDbEntity
  8
0
100
AcDbPolyline
 90
8
 70
1
 10
36.959
 20
-71.521
 10
38.059
 20
-72.156
 10
38.059
 20
-73.906
 10
36.543
 20
-74.781
 10
35.027
 20
-73.906
 10
35.027
 20
-72.156
 10
36.13
 20
-71.52
 10
36.959
 20
-71.521
  0
LWPOLYLINE
  5
254
330
17
100
AcDbEntity
  8
0
100
AcDbPolyline
 90
8
 70
1
 10
40.501
 20
-71.528
 10
41.59
 20
-72.156
 10
41.59
 20
-73.906
 10
40.074
 20
-74.781
 10
38.559
 20
-73.906
 10
38.559
 20
-72.156
 10
39.65
 20
-71.526
 10
40.501
 20
-71.528
  0
LWPOLYLINE
  5
255
330
17
100
AcDbEntity
  8
0
100
AcDbPolyline
 90
8
 70
1
 10
44.043
 20
-71.534
 10
45.121
 20
-72.156
 10
45.121
 20
-73.906
 10
43.605
 20
-74.781
 10
42.09
 20
-73.906
 10
42.09
 20
-72.156
 10
43.17
 20
-71.533
 10
44.043
 20
-71.534
  0
LWPOLYLINE
  5
256
330
17
100
AcDbEntity
  8
0
100
AcDbPolyline
 90
8
 70
1
 10
47.585
 20
-71.541
 10
48.652
 20
-72.156
 10
48.652
 20
-73.906
 10
47.136
 20
-74.781
 10
45.621
 20
-73.906
 10
45.621
 20
-72.156
 10
46.69
 20
-71.539
 10
47.585
 20
-71.541
  0
LWPOLYLINE
  5
257
330
17
100
AcDbEntity
  8
0
100
AcDbPolyline
 90
8
 70
1
 10
51.127
 20
-71.547
 10
52.183
 20
-72.156
 10
52.183
 20
-73.906
 10
50.667
 20
-74.781
 10
49.152
 20
-73.906
 10
49.152
 20
-72.156
 10
50.21
 20
-71.545
 10
51.127
 20
-71.547
  0
LWPOLYLINE
  5
258
330
17
100
AcDbEntity
  8
0
100
AcDbPolyline
 90
8
 70
1
 10
54.67
 20
-71.554
 10
55.714
 20
-72.156
 10
55.714
 20
-73.906
 10
54.198
 20
-74.781
 10
52.683
 20
-73.906
 10
52.683
 20
-72.156
 10
53.73
 20
-71.552
 10
54.67
 20
-71.554
  0
LWPOLYLINE
  5
259
330
17
100
AcDbEntity
  8
0
100
AcDbPolyline
 90
8
 70
1
 10
58.212
 20
-71.56
 10
59.245
 20
-72.156
 10
59.245
 20
-73.906
 10
57.73
 20
-74.781
 10
56.214
 20
-73.906
 10
56.214
 20
-72.156
 10
57.25
 20
-71.558
 10
58.212
 20
-71.56
  0
LWPOLYLINE
  5
25A
330
17
100
AcDbEntity
  8
0
100
AcDbPolyline
 90
5
 70
1
 10
59.765
 20
-73.918
 10
59.745
 20
-73.906
 10
59.745
 20
-72.156
 10
60.252
 20
-71.864
 10
59.765
 20
-73.918
  0
LWPOLYLINE
  5
25B
330
17
100
AcDbEntity
  8
0
100
AcDbPolyline
 90
9
 70
1
 10
99.728
 20
-73.876
 10
99.342
 20
-73.015
 10
99.147
 20
-72.691
 10
99.049
 20
-72.561
 10
101.618
 20
-72.562
 10
101.618
 20
-73.906
 10
100.103
 20
-74.781
 10
99.992
 20
-74.717
 10
99.728
 20
-73.876
  0
LWPOLYLINE
  5
25C
330
17
100
AcDbEntity
  8
0
100
AcDbPolyline
 90
6
 70
1
 10
105.149
 20
-72.563
 10
105.149
 20
-73.906
 10
103.634
 20
-74.781
 10
102.118
 20
-73.906
 10
102.118
 20
-72.562
 10
105.149
 20
-72.563
  0
LWPOLYLINE
  5
25D
330
17
100
AcDbEntity
  8
0
100
AcDbPolyline
 90
6
 70
1
 10
108.68
 20
-72.565
 10
108.68
 20
-73.906
 10
107.165
 20
-74.781
 10
105.649
 20
-73.906
 10
105.649
 20
-72.563
 10
108.68
 20
-72.565
  0
LWPOLYLINE
  5
25E
330
17
100
AcDbEntity
  8
0
100
AcDbPolyline
 90
6
 70
1
 10
112.211
 20
-72.566
 10
112.211
 20
-73.906
 10
110.696
 20
-74.781
 10
109.18
 20
-73.906
 10
109.18
 20
-72.565
 10
112.211
 20
-72.566
  0
LWPOLYLINE
  5
25F
330
17
100
AcDbEntity
  8
0
100
AcDbPolyline
 90
6
 70
1
 10
115.743
 20
-72.567
 10
115.743
 20
-73.906
 10
114.227
 20
-74.781
 10
112.711
 20
-73.906
 10
112.711
 20
-72.566
 10
115.743
 20
-72.567
  0
LWPOLYLINE
  5
260
330
17
100
AcDbEntity
  8
0
100
AcDbPolyline
 90
6
 70
1
 10
119.274
 20
-72.569
 10
119.274
 20
-73.906
 10
117.758
 20
-74.781
 10
116.243
 20
-73.906
 10
116.243
 20
-72.568
 10
119.274
 20
-72.569
  0
LWPOLYLINE
  5
261
330
17
100
AcDbEntity
  8
0
100
AcDbPolyline
 90
9
 70
1
 10
122.097
 20
-72.57
 10
122.443
 20
-72.64
 10
122.607
 20
-72.7
 10
122.805
 20
-72.801
 10
122.805
 20
-73.906
 10
121.289
 20
-74.781
 10
119.774
 20
-73.906
 10
119.774
 20
-72.569
 10
122.097
 20
-72.57
  0
LWPOLYLINE
  5
262
330
17
100
AcDbEntity
  8
0
100
AcDbPolyline
 90
7
 70
1
 10
123.389
 20
-73.345
 10
123.553
 20
-73.647
 10
123.613
 20
-73.81
 10
123.679
 20
-74.122
 10
123.305
 20
-73.906
 10
123.305
 20
-73.232
 10
123.389
 20
-73.345
  0
LWPOLYLINE
  5
263
330
17
100
AcDbEntity
  8
0
100
AcDbPolyline
 90
11
 70
1
 10
140.96
 20
-73.302
 10
141.261
 20
-72.985
 10
141.556
 20
-72.785
 10
141.889
 20
-72.645
 10
142.067
 20
-72.599
 10
142.251
 20
-72.571
 10
143.991
 20
-72.57
 10
143.991
 20
-73.906
 10
142.476
 20
-74.781
 10
140.96
 20
-73.906
 10
140.96
 20
-73.302
  0
LWPOLYLINE
  5
264
330
17
100
AcDbEntity
  8
0
100
AcDbPolyline
 90
6
 70
1
 10
147.522
 20
-72.569
 10
147.522
 20
-73.906
 10
146.007
 20
-74.781
 10
144.491
 20
-73.906
 10
144.491
 20
-72.57
 10
147.522
 20
-72.569
  0
LWPOLYLINE
  5
265
330
17
100
AcDbEntity
  8
0
100
AcDbPolyline
 90
6
 70
1
 10
151.053
 20
-72.568
 10
151.053
 20
-73.906
 10
149.538
 20
-74.781
 10
148.022
 20
-73.906
 10
148.022
 20
-72.569
 10
151.053
 20
-72.568
  0
LWPOLYLINE
  5
266
330
17
100
AcDbEntity
  8
0
100
AcDbPolyline
 90
6
 70
1
 10
154.585
 20
-72.567
 10
154.585
 20
-73.906
 10
153.069
 20
-74.781
 10
151.553
 20
-73.906
 10
151.553
 20
-72.568
 10
154.585
 20
-72.567
  0
LWPOLYLINE
  5
267
330
17
100
AcDbEntity
  8
0
100
AcDbPolyline
 90
6
 70
1
 10
158.116
 20
-72.566
 10
158.116
 20
-73.906
 10
156.6
 20
-74.781
 10
155.085
 20
-73.906
 10
155.085
 20
-72.567
 10
158.116
 20
-72.566
  0
LWPOLYLINE
  5
268
330
17
100
AcDbEntity
  8
0
100
AcDbPolyline
 90
6
 70
1
 10
161.647
 20
-72.565
 10
161.647
 20
-73.906
 10
160.131
 20
-74.781
 10
158.616
 20
-73.906
 10
158.616
 20
-72.566
 10
161.647
 20
-72.565
  0
LWPOLYLINE
  5
269
330
17
100
AcDbEntity
  8
0
100
AcDbPolyline
 90
6
 70
1
 10
165.178
 20
-72.564
 10
165.178
 20
-73.906
 10
163.662
 20
-74.781
 10
162.147
 20
-73.906
 10
162.147
 20
-72.565
 10
165.178
 20
-72.564
  0
LWPOLYLINE
  5
26A
330
17
100
AcDbEntity
  8
0
100
AcDbPolyline
 90
6
 70
1
 10
168.709
 20
-72.564
 10
168.709
 20
-73.906
 10
167.193
 20
-74.781
 10
165.678
 20
-73.906
 10
165.678
 20
-72.564
 10
168.709
 20
-72.564
  0
LWPOLYLINE
  5
26B
330
17
100
AcDbEntity
  8
0
100
AcDbPolyline
 90
6
 70
1
 10
172.24
 20
-72.563
 10
172.24
 20
-73.906
 10
170.724
 20
-74.781
 10
169.209
 20
-73.906
 10
169.209
 20
-72.563
 10
172.24
 20
-72.563
  0
LWPOLYLINE
  5
26C
330
17
100
AcDbEntity
  8
0
100
AcDbPolyline
 90
7
 70
1
 10
175.771
 20
-72.562
 10
175.771
 20
-73.773
 10
175.163
 20
-74.082
 10
174.165
 20
-74.729
 10
172.74
 20
-73.906
 10
172.74
 20
-72.562
 10
175.771
 20
-72.562
  0
LWPOLYLINE
  5
26D
330
17
100
AcDbEntity
  8
0
100
AcDbPolyline
 90
6
 70
1
 10
178.553
 20
-72.561
 10
178.386
 20
-72.609
 10
177.19
 20
-73.052
 10
176.271
 20
-73.519
 10
176.271
 20
-72.562
 10
178.553
 20
-72.561
  0
LWPOLYLINE
  5
26E
330
17
100
AcDbEntity
  8
0
100
AcDbPolyline
 90
4
 70
1
 10
31.613
 20
-71.512
 10
31.246
 20
-71.723
 10
30.877
 20
-71.51
 10
31.613
 20
-71.512
  0
LWPOLYLINE
  5
26F
330
17
100
AcDbEntity
  8
0
100
AcDbPolyline
 90
4
 70
1
 10
35.133
 20
-71.518
 10
34.777
 20
-71.723
 10
34.42
 20
-71.517
 10
35.133
 20
-71.518
  0
LWPOLYLINE
  5
270
330
17
100
AcDbEntity
  8
0
100
AcDbPolyline
 90
4
 70
1
 10
38.653
 20
-71.525
 10
38.309
 20
-71.723
 10
37.962
 20
-71.523
 10
38.653
 20
-71.525
  0
LWPOLYLINE
  5
271
330
17
100
AcDbEntity
  8
0
100
AcDbPolyline
 90
4
 70
1
 10
42.173
 20
-71.531
 10
41.84
 20
-71.723
 10
41.504
 20
-71.53
 10
42.173
 20
-71.531
  0
LWPOLYLINE
  5
272
330
17
100
AcDbEntity
  8
0
100
AcDbPolyline
 90
4
 70
1
 10
45.693
 20
-71.537
 10
45.371
 20
-71.723
 10
45.046
 20
-71.536
 10
45.693
 20
-71.537
  0
LWPOLYLINE
  5
273
330
17
100
AcDbEntity
  8
0
100
AcDbPolyline
 90
4
 70
1
 10
49.213
 20
-71.544
 10
48.902
 20
-71.723
 10
48.588
 20
-71.542
 10
49.213
 20
-71.544
  0
LWPOLYLINE
  5
274
330
17
100
AcDbEntity
  8
0
100
AcDbPolyline
 90
4
 70
1
 10
52.733
 20
-71.55
 10
52.433
 20
-71.723
 10
52.131
 20
-71.549
 10
52.733
 20
-71.55
  0
LWPOLYLINE
  5
275
330
17
100
AcDbEntity
  8
0
100
AcDbPolyline
 90
4
 70
1
 10
56.253
 20
-71.556
 10
55.964
 20
-71.723
 10
55.673
 20
-71.555
 10
56.253
 20
-71.556
  0
LWPOLYLINE
  5
276
330
17
100
AcDbEntity
  8
0
100
AcDbPolyline
 90
4
 70
1
 10
59.773
 20
-71.563
 10
59.495
 20
-71.723
 10
59.215
 20
-71.562
 10
59.773
 20
-71.563
  0
ENDSEC
  0
SECTION
  2
OBJECTS
  0
DICTIONARY
  5
A
330
0
100
AcDbDictionary
281
1
  3
ACAD_COLOR
350
B
  3
ACAD_GROUP
350
C
  3
ACAD_LAYOUT
350
D
  3
ACAD_MATERIAL
350
E
  3
ACAD_MLEADERSTYLE
350
F
  3
ACAD_MLINESTYLE
350
10
  3
ACAD_PLOTSETTINGS
350
11
  3
ACAD_PLOTSTYLENAME
350
12
  3
ACAD_SCALELIST
350
14
  3
ACAD_TABLESTYLE
350
15
  3
ACAD_VISUALSTYLE
350
16
  3
EZDXF_META
350
2D
  0
DICTIONARY
  5
B
330
A
100
AcDbDictionary
281
1
  0
DICTIONARY
  5
C
330
A
100
AcDbDictionary
281
1
  0
DICTIONARY
  5
D
330
A
100
AcDbDictionary
281
1
  3
Model
350
1A
  3
Layout1
350
1E
  0
DICTIONARY
  5
E
330
A
100
AcDbDictionary
281
1
  3
ByBlock
350
1F
  3
ByLayer
350
20
  3
Global
350
21
  0
DICTIONARY
  5
F
330
A
100
AcDbDictionary
281
1
  3
Standard
350
2C
  0
DICTIONARY
  5
10
330
A
100
AcDbDictionary
281
1
  3
Standard
350
22
  0
DICTIONARY
  5
11
330
A
100
AcDbDictionary
281
1
  0
ACDBDICTIONARYWDFLT
  5
12
330
A
100
AcDbDictionary
281
1
  3
Normal
350
13
100
AcDbDictionaryWithDefault
340
13
  0
ACDBPLACEHOLDER
  5
13
330
12
  0
DICTIONARY
  5
14
330
A
100
AcDbDictionary
281
1
  0
DICTIONARY
  5
15
330
A
100
AcDbDictionary
281
1
  0
DICTIONARY
  5
16
330
A
100
AcDbDictionary
281
1
  0
LAYOUT
  5
1A
330
D
100
AcDbPlotSettings
  1

  4
A3
  6

 40
7.5
 41
20.0
 42
7.5
 43
20.0
 44
420.0
 45
297.0
 46
0.0
 47
0.0
 48
0.0
 49
0.0
140
0.0
141
0.0
142
1.0
143
1.0
 70
1024
 72
1
 73
0
 74
5
  7

 75
16
 76
0
 77
2
 78
300
147
1.0
148
0.0
149
0.0
100
AcDbLayout
  1
Model
 70
1
 71
0
 10
0.0
 20
0.0
 11
420.0
 21
297.0
 12
0.0
 22
0.0
 32
0.0
 14
1e+20
 24
1e+20
 34
1e+20
 15
-1e+20
 25
-1e+20
 35
-1e+20
146
0.0
 13
0.0
 23
0.0
 33
0.0
 16
1.0
 26
0.0
 36
0.0
 17
0.0
 27
1.0
 37
0.0
 76
1
330
17
  0
LAYOUT
  5
1E
330
D
100
AcDbPlotSettings
  1

  4
A3
  6

 40
7.5
 41
20.0
 42
7.5
 43
20.0
 44
420.0
 45
297.0
 46
0.0
 47
0.0
 48
0.0
 49
0.0
140
0.0
141
0.0
142
1.0
143
1.0
 70
0
 72
1
 73
0
 74
5
  7

 75
16
 76
0
 77
2
 78
300
147
1.0
148
0.0
149
0.0
100
AcDbLayout
  1
Layout1
 70
1
 71
1
 10
0.0
 20
0.0
 11
420.0
 21
297.0
 12
0.0
 22
0.0
 32
0.0
 14
1e+20
 24
1e+20
 34
1e+20
 15
-1e+20
 25
-1e+20
 35
-1e+20
146
0.0
 13
0.0
 23
0.0
 33
0.0
 16
1.0
 26
0.0
 36
0.0
 17
0.0
 27
1.0
 37
0.0
 76
1
330
1B
  0
MATERIAL
  5
1F
102
{ACAD_REACTORS
330
E
102
}
330
E
100
AcDbMaterial
  1
ByBlock
  2

 70
0
 40
1.0
 71
1
 41
1.0
 91
-1023410177
 42
1.0
 72
1
  3

 73
1
 74
1
 75
1
 44
0.5
 73
0
 45
1.0
 46
1.0
 77
1
  4

 78
1
 79
1
170
1
 48
1.0
171
1
  6

172
1
173
1
174
1
140
1.0
141
1.0
175
1
  7

176
1
177
1
178
1
143
1.0
179
1
  8

270
1
271
1
272
1
145
1.0
146
1.0
273
1
  9

274
1
275
1
276
1
 42
1.0
 72
1
  3

 73
1
 74
1
 75
1
 94
63
  0
MATERIAL
  5
20
102
{ACAD_REACTORS
330
E
102
}
330
E
100
AcDbMaterial
  1
ByLayer
  2

 70
0
 40
1.0
 71
1
 41
1.0
 91
-1023410177
 42
1.0
 72
1
  3

 73
1
 74
1
 75
1
 44
0.5
 73
0
 45
1.0
 46
1.0
 77
1
  4

 78
1
 79
1
170
1
 48
1.0
171
1
  6

172
1
173
1
174
1
140
1.0
141
1.0
175
1
  7

176
1
177
1
178
1
143
1.0
179
1
  8

270
1
271
1
272
1
145
1.0
146
1.0
273
1
  9

274
1
275
1
276
1
 42
1.0
 72
1
  3

 73
1
 74
1
 75
1
 94
63
  0
MATERIAL
  5
21
102
{ACAD_REACTORS
330
E
102
}
330
E
100
AcDbMaterial
  1
Global
  2

 70
0
 40
1.0
 71
1
 41
1.0
 91
-1023410177
 42
1.0
 72
1
  3

 73
1
 74
1
 75
1
 44
0.5
 73
0
 45
1.0
 46
1.0
 77
1
  4

 78
1
 79
1
170
1
 48
1.0
171
1
  6

172
1
173
1
174
1
140
1.0
141
1.0
175
1
  7

176
1
177
1
178
1
143
1.0
179
1
  8

270
1
271
1
272
1
145
1.0
146
1.0
273
1
  9

274
1
275
1
276
1
 42
1.0
 72
1
  3

 73
1
 74
1
 75
1
 94
63
  0
MLINESTYLE
  5
22
102
{ACAD_REACTORS
330
10
102
}
330
10
100
AcDbMlineStyle
  2
Standard
 70
0
  3

 62
256
 51
90.0
 52
90.0
 71
2
 49
0.5
 62
256
  6
BYLAYER
 49
-0.5
 62
256
  6
BYLAYER
  0
MLEADERSTYLE
  5
2C
102
{ACAD_REACTORS
330
F
102
}
330
F
100
AcDbMLeaderStyle
179
2
170
2
171
1
172
0
 90
2
 40
0.0
 41
0.0
173
1
 91
-1056964608
 92
-2
290
1
 42
2.0
291
1
 43
8.0
  3
Standard
 44
4.0
300

342
29
174
1
175
1
176
0
178
1
 93
-1056964608
 45
4.0
292
0
297
0
 46
4.0
 94
-1056964608
 47
1.0
 49
1.0
140
1.0
294
1
141
0.0
177
0
142
1.0
295
0
296
0
143
3.75
271
0
272
9
273
9
  0
DICTIONARY
  5
2D
330
A
100
AcDbDictionary
280
1
281
1
  3
CREATED_BY_EZDXF
350
2E
  3
WRITTEN_BY_EZDXF
350
279
  0
DICTIONARYVAR
  5
2E
330
2D
100
DictionaryVariables
280
0
  1
1.4.3 @ 2026-04-09T21:37:17.947872+00:00
  0
DICTIONARYVAR
  5
279
330
2D
100
DictionaryVariables
280
0
  1
1.4.3 @ 2026-04-09T21:37:17.968937+00:00
  0
ENDSEC
  0
EOF
