  0
SECTION
  2
HEADER
  9
$ACADVER
  1
AC1024
  9
$ACADMAINTVER
 70
6
  9
$DWGCODEPAGE
  3
ANSI_1252
  9
$LASTSAVEDBY
  1
ezdxf
  9
$INSBASE
 10
0.0
 20
0.0
 30
0.0
  9
$EXTMIN
 10
1e+20
 20
1e+20
 30
1e+20
  9
$EXTMAX
 10
-1e+20
 20
-1e+20
 30
-1e+20
  9
$LIMMIN
 10
0.0
 20
0.0
  9
$LIMMAX
 10
420.0
 20
297.0
  9
$ORTHOMODE
 70
0
  9
$REGENMODE
 70
1
  9
$FILLMODE
 70
1
  9
$QTEXTMODE
 70
0
  9
$MIRRTEXT
 70
1
  9
$LTSCALE
 40
1.0
  9
$ATTMODE
 70
1
  9
$TEXTSIZE
 40
2.5
  9
$TRACEWID
 40
1.0
  9
$TEXTSTYLE
  7
Standard
  9
$CLAYER
  8
0
  9
$CELTYPE
  6
ByLayer
  9
$CECOLOR
 62
256
  9
$CELTSCALE
 40
1.0
  9
$DISPSILH
 70
0
  9
$DIMSCALE
 40
1.0
  9
$DIMASZ
 40
2.5
  9
$DIMEXO
 40
0.625
  9
$DIMDLI
 40
3.75
  9
$DIMRND
 40
0.0
  9
$DIMDLE
 40
0.0
  9
$DIMEXE
 40
1.25
  9
$DIMTP
 40
0.0
  9
$DIMTM
 40
0.0
  9
$DIMTXT
 40
2.5
  9
$DIMCEN
 40
2.5
  9
$DIMTSZ
 40
0.0
  9
$DIMTOL
 70
0
  9
$DIMLIM
 70
0
  9
$DIMTIH
 70
0
  9
$DIMTOH
 70
0
  9
$DIMSE1
 70
0
  9
$DIMSE2
 70
0
  9
$DIMTAD
 70
1
  9
$DIMZIN
 70
8
  9
$DIMBLK
  1

  9
$DIMASO
 70
1
  9
$DIMSHO
 70
1
  9
$DIMPOST
  1

  9
$DIMAPOST
  1

  9
$DIMALT
 70
0
  9
$DIMALTD
 70
3
  9
$DIMALTF
 40
0.03937007874
  9
$DIMLFAC
 40
1.0
  9
$DIMTOFL
 70
1
  9
$DIMTVP
 40
0.0
  9
$DIMTIX
 70
0
  9
$DIMSOXD
 70
0
  9
$DIMSAH
 70
0
  9
$DIMBLK1
  1

  9
$DIMBLK2
  1

  9
$DIMSTYLE
  2
ISO-25
  9
$DIMCLRD
 70
0
  9
$DIMCLRE
 70
0
  9
$DIMCLRT
 70
0
  9
$DIMTFAC
 40
1.0
  9
$DIMGAP
 40
0.625
  9
$DIMJUST
 70
0
  9
$DIMSD1
 70
0
  9
$DIMSD2
 70
0
  9
$DIMTOLJ
 70
0
  9
$DIMTZIN
 70
8
  9
$DIMALTZ
 70
0
  9
$DIMALTTZ
 70
0
  9
$DIMUPT
 70
0
  9
$DIMDEC
 70
2
  9
$DIMTDEC
 70
2
  9
$DIMALTU
 70
2
  9
$DIMALTTD
 70
3
  9
$DIMTXSTY
  7
Standard
  9
$DIMAUNIT
 70
0
  9
$DIMADEC
 70
0
  9
$DIMALTRND
 40
0.0
  9
$DIMAZIN
 70
0
  9
$DIMDSEP
 70
44
  9
$DIMATFIT
 70
3
  9
$DIMFRAC
 70
0
  9
$DIMLDRBLK
  1

  9
$DIMLUNIT
 70
2
  9
$DIMLWD
 70
-2
  9
$DIMLWE
 70
-2
  9
$DIMTMOVE
 70
0
  9
$DIMFXL
 40
1.0
  9
$DIMFXLON
 70
0
  9
$DIMJOGANG
 40
0.785398163397
  9
$DIMTFILL
 70
0
  9
$DIMTFILLCLR
 70
0
  9
$DIMARCSYM
 70
0
  9
$DIMLTYPE
  6

  9
$DIMLTEX1
  6

  9
$DIMLTEX2
  6

  9
$DIMTXTDIRECTION
 70
0
  9
$LUNITS
 70
2
  9
$LUPREC
 70
4
  9
$SKETCHINC
 40
1.0
  9
$FILLETRAD
 40
10.0
  9
$AUNITS
 70
0
  9
$AUPREC
 70
2
  9
$MENU
  1
.
  9
$ELEVATION
 40
0.0
  9
$PELEVATION
 40
0.0
  9
$THICKNESS
 40
0.0
  9
$LIMCHECK
 70
0
  9
$CHAMFERA
 40
0.0
  9
$CHAMFERB
 40
0.0
  9
$CHAMFERC
 40
0.0
  9
$CHAMFERD
 40
0.0
  9
$SKPOLY
 70
0
  9
$TDCREATE
 40
2461140.6092708334
  9
$TDUCREATE
 40
2458532.153996898
  9
$TDUPDATE
 40
2461140.6092708334
  9
$TDUUPDATE
 40
2458532.1544311
  9
$TDINDWG
 40
0.0
  9
$TDUSRTIMER
 40
0.0
  9
$USRTIMER
 70
1
  9
$ANGBASE
 50
0.0
  9
$ANGDIR
 70
0
  9
$PDMODE
 70
0
  9
$PDSIZE
 40
0.0
  9
$PLINEWID
 40
0.0
  9
$SPLFRAME
 70
0
  9
$SPLINETYPE
 70
6
  9
$SPLINESEGS
 70
8
  9
$HANDSEED
  5
15C
  9
$SURFTAB1
 70
6
  9
$SURFTAB2
 70
6
  9
$SURFTYPE
 70
6
  9
$SURFU
 70
6
  9
$SURFV
 70
6
  9
$UCSBASE
  2

  9
$UCSNAME
  2

  9
$UCSORG
 10
0.0
 20
0.0
 30
0.0
  9
$UCSXDIR
 10
1.0
 20
0.0
 30
0.0
  9
$UCSYDIR
 10
0.0
 20
1.0
 30
0.0
  9
$UCSORTHOREF
  2

  9
$UCSORTHOVIEW
 70
0
  9
$UCSORGTOP
 10
0.0
 20
0.0
 30
0.0
  9
$UCSORGBOTTOM
 10
0.0
 20
0.0
 30
0.0
  9
$UCSORGLEFT
 10
0.0
 20
0.0
 30
0.0
  9
$UCSORGRIGHT
 10
0.0
 20
0.0
 30
0.0
  9
$UCSORGFRONT
 10
0.0
 20
0.0
 30
0.0
  9
$UCSORGBACK
 10
0.0
 20
0.0
 30
0.0
  9
$PUCSBASE
  2

  9
$PUCSNAME
  2

  9
$PUCSORG
 10
0.0
 20
0.0
 30
0.0
  9
$PUCSXDIR
 10
1.0
 20
0.0
 30
0.0
  9
$PUCSYDIR
 10
0.0
 20
1.0
 30
0.0
  9
$PUCSORTHOREF
  2

  9
$PUCSORTHOVIEW
 70
0
  9
$PUCSORGTOP
 10
0.0
 20
0.0
 30
0.0
  9
$PUCSORGBOTTOM
 10
0.0
 20
0.0
 30
0.0
  9
$PUCSORGLEFT
 10
0.0
 20
0.0
 30
0.0
  9
$PUCSORGRIGHT
 10
0.0
 20
0.0
 30
0.0
  9
$PUCSORGFRONT
 10
0.0
 20
0.0
 30
0.0
  9
$PUCSORGBACK
 10
0.0
 20
0.0
 30
0.0
  9
$USERI1
 70
0
  9
$USERI2
 70
0
  9
$USERI3
 70
0
  9
$USERI4
 70
0
  9
$USERI5
 70
0
  9
$USERR1
 40
0.0
  9
$USERR2
 40
0.0
  9
$USERR3
 40
0.0
  9
$USERR4
 40
0.0
  9
$USERR5
 40
0.0
  9
$WORLDVIEW
 70
1
  9
$SHADEDGE
 70
3
  9
$SHADEDIF
 70
70
  9
$TILEMODE
 70
1
  9
$MAXACTVP
 70
64
  9
$PINSBASE
 10
0.0
 20
0.0
 30
0.0
  9
$PLIMCHECK
 70
0
  9
$PEXTMIN
 10
1e+20
 20
1e+20
 30
1e+20
  9
$PEXTMAX
 10
-1e+20
 20
-1e+20
 30
-1e+20
  9
$PLIMMIN
 10
0.0
 20
0.0
  9
$PLIMMAX
 10
420.0
 20
297.0
  9
$UNITMODE
 70
0
  9
$VISRETAIN
 70
1
  9
$PLINEGEN
 70
0
  9
$PSLTSCALE
 70
1
  9
$TREEDEPTH
 70
3020
  9
$CMLSTYLE
  2
Standard
  9
$CMLJUST
 70
0
  9
$CMLSCALE
 40
20.0
  9
$PROXYGRAPHICS
 70
1
  9
$MEASUREMENT
 70
1
  9
$CELWEIGHT
370
-1
  9
$ENDCAPS
280
0
  9
$JOINSTYLE
280
0
  9
$LWDISPLAY
290
0
  9
$INSUNITS
 70
4
  9
$HYPERLINKBASE
  1

  9
$STYLESHEET
  1

  9
$XEDIT
290
1
  9
$CEPSNTYPE
380
0
  9
$PSTYLEMODE
290
1
  9
$FINGERPRINTGUID
  2
{16EE1B31-F05F-4014-A291-238EC0541F52}
  9
$VERSIONGUID
  2
{B6F7B208-1AA2-4280-89D6-7A721A6479DF}
  9
$EXTNAMES
290
1
  9
$PSVPSCALE
 40
0.0
  9
$OLESTARTUP
290
0
  9
$SORTENTS
280
127
  9
$INDEXCTL
280
0
  9
$HIDETEXT
280
1
  9
$XCLIPFRAME
280
1
  9
$HALOGAP
280
0
  9
$OBSCOLOR
 70
257
  9
$OBSLTYPE
280
0
  9
$INTERSECTIONDISPLAY
280
0
  9
$INTERSECTIONCOLOR
 70
257
  9
$DIMASSOC
280
2
  9
$PROJECTNAME
  1

  9
$CAMERADISPLAY
290
0
  9
$LENSLENGTH
 40
50.0
  9
$CAMERAHEIGHT
 40
0.0
  9
$STEPSPERSEC
 40
24.0
  9
$STEPSIZE
 40
100.0
  9
$3DDWFPREC
 40
2.0
  9
$PSOLWIDTH
 40
0.005
  9
$PSOLHEIGHT
 40
0.08
  9
$LOFTANG1
 40
1.570796326795
  9
$LOFTANG2
 40
1.570796326795
  9
$LOFTMAG1
 40
0.0
  9
$LOFTMAG2
 40
0.0
  9
$LOFTPARAM
 70
7
  9
$LOFTNORMALS
280
1
  9
$LATITUDE
 40
37.795
  9
$LONGITUDE
 40
-122.394
  9
$NORTHDIRECTION
 40
0.0
  9
$TIMEZONE
 70
-8000
  9
$LIGHTGLYPHDISPLAY
280
1
  9
$TILEMODELIGHTSYNCH
280
1
  9
$CMATERIAL
347
20
  9
$SOLIDHIST
280
0
  9
$SHOWHIST
280
1
  9
$DWFFRAME
280
2
  9
$DGNFRAME
280
2
  9
$REALWORLDSCALE
290
1
  9
$INTERFERECOLOR
 62
256
  9
$CSHADOW
280
0
  9
$SHADOWPLANELOCATION
 40
0.0
  0
ENDSEC
  0
SECTION
  2
CLASSES
  0
CLASS
  1
ACDBDICTIONARYWDFLT
  2
AcDbDictionaryWithDefault
  3
ObjectDBX Classes
 90
0
 91
0
280
0
281
0
  0
CLASS
  1
SUN
  2
AcDbSun
  3
SCENEOE
 90
1153
 91
0
280
0
281
0
  0
CLASS
  1
VISUALSTYLE
  2
AcDbVisualStyle
  3
ObjectDBX Classes
 90
4095
 91
0
280
0
281
0
  0
CLASS
  1
MATERIAL
  2
AcDbMaterial
  3
ObjectDBX Classes
 90
1153
 91
0
280
0
281
0
  0
CLASS
  1
SCALE
  2
AcDbScale
  3
ObjectDBX Classes
 90
1153
 91
0
280
0
281
0
  0
CLASS
  1
TABLESTYLE
  2
AcDbTableStyle
  3
ObjectDBX Classes
 90
4095
 91
0
280
0
281
0
  0
CLASS
  1
MLEADERSTYLE
  2
AcDbMLeaderStyle
  3
ACDB_MLEADERSTYLE_CLASS
 90
4095
 91
0
280
0
281
0
  0
CLASS
  1
DICTIONARYVAR
  2
AcDbDictionaryVar
  3
ObjectDBX Classes
 90
0
 91
0
280
0
281
0
  0
CLASS
  1
CELLSTYLEMAP
  2
AcDbCellStyleMap
  3
ObjectDBX Classes
 90
1152
 91
0
280
0
281
0
  0
CLASS
  1
MENTALRAYRENDERSETTINGS
  2
AcDbMentalRayRenderSettings
  3
SCENEOE
 90
1024
 91
0
280
0
281
0
  0
CLASS
  1
ACDBDETAILVIEWSTYLE
  2
AcDbDetailViewStyle
  3
ObjectDBX Classes
 90
1025
 91
0
280
0
281
0
  0
CLASS
  1
ACDBSECTIONVIEWSTYLE
  2
AcDbSectionViewStyle
  3
ObjectDBX Classes
 90
1025
 91
0
280
0
281
0
  0
CLASS
  1
RASTERVARIABLES
  2
AcDbRasterVariables
  3
ISM
 90
0
 91
0
280
0
281
0
  0
CLASS
  1
LAYOUT
  2
AcDbLayout
  3
ObjectDBX Classes
 90
0
 91
0
280
0
281
0
  0
CLASS
  1
ACDBPLACEHOLDER
  2
AcDbPlaceHolder
  3
ObjectDBX Classes
 90
0
 91
0
280
0
281
0
  0
ENDSEC
  0
SECTION
  2
TABLES
  0
TABLE
  2
VPORT
  5
8
330
0
100
AcDbSymbolTable
 70
1
  0
VPORT
  5
23
330
8
100
AcDbSymbolTableRecord
100
AcDbViewportTableRecord
  2
*Active
 70
0
 10
0.0
 20
0.0
 11
1.0
 21
1.0
 12
0.0
 22
0.0
 13
0.0
 23
0.0
 14
0.5
 24
0.5
 15
0.5
 25
0.5
 16
0.0
 26
0.0
 36
1.0
 17
0.0
 27
0.0
 37
0.0
 40
1000.0
 41
1.34
 42
50.0
 43
0.0
 44
0.0
 50
0.0
 51
0.0
 71
0
 72
1000
 73
1
 74
3
 75
0
 76
0
 77
0
 78
0
281
0
 65
0
146
0.0
  0
ENDTAB
  0
TABLE
  2
LTYPE
  5
2
330
0
100
AcDbSymbolTable
 70
3
  0
LTYPE
  5
24
330
2
100
AcDbSymbolTableRecord
100
AcDbLinetypeTableRecord
  2
ByBlock
 70
0
  3

 72
65
 73
0
 40
0.0
  0
LTYPE
  5
25
330
2
100
AcDbSymbolTableRecord
100
AcDbLinetypeTableRecord
  2
ByLayer
 70
0
  3

 72
65
 73
0
 40
0.0
  0
LTYPE
  5
26
330
2
100
AcDbSymbolTableRecord
100
AcDbLinetypeTableRecord
  2
Continuous
 70
0
  3

 72
65
 73
0
 40
0.0
  0
ENDTAB
  0
TABLE
  2
LAYER
  5
1
330
0
100
AcDbSymbolTable
 70
2
  0
LAYER
  5
27
330
1
100
AcDbSymbolTableRecord
100
AcDbLayerTableRecord
  2
0
 70
0
 62
7
  6
Continuous
370
-3
390
13
347
21
  0
LAYER
  5
28
330
1
100
AcDbSymbolTableRecord
100
AcDbLayerTableRecord
  2
Defpoints
 70
0
 62
7
  6
Continuous
290
0
370
-3
390
13
347
21
  0
ENDTAB
  0
TABLE
  2
STYLE
  5
5
330
0
100
AcDbSymbolTable
 70
1
  0
STYLE
  5
29
330
5
100
AcDbSymbolTableRecord
100
AcDbTextStyleTableRecord
  2
Standard
 70
0
 40
0.0
 41
1.0
 50
0.0
 71
0
 42
2.5
  3
txt
  4

  0
ENDTAB
  0
TABLE
  2
VIEW
  5
7
330
0
100
AcDbSymbolTable
 70
0
  0
ENDTAB
  0
TABLE
  2
UCS
  5
6
330
0
100
AcDbSymbolTable
 70
0
  0
ENDTAB
  0
TABLE
  2
APPID
  5
3
330
0
100
AcDbSymbolTable
 70
3
  0
APPID
  5
2A
330
3
100
AcDbSymbolTableRecord
100
AcDbRegAppTableRecord
  2
ACAD
 70
0
  0
APPID
  5
159
330
3
100
AcDbSymbolTableRecord
100
AcDbRegAppTableRecord
  2
HATCHBACKGROUNDCOLOR
 70
0
  0
APPID
  5
15A
330
3
100
AcDbSymbolTableRecord
100
AcDbRegAppTableRecord
  2
EZDXF
 70
0
  0
ENDTAB
  0
TABLE
  2
DIMSTYLE
  5
4
330
0
100
AcDbSymbolTable
 70
1
100
AcDbDimStyleTable
  0
DIMSTYLE
105
2B
330
4
100
AcDbSymbolTableRecord
100
AcDbDimStyleTableRecord
  2
Standard
 70
0
 40
1.0
 41
2.5
 42
0.625
 43
3.75
 44
1.25
 45
0.0
 46
0.0
 47
0.0
 48
0.0
 49
2.5
140
2.5
141
2.5
142
0.0
143
0.03937007874
144
1.0
145
0.0
146
1.0
147
0.625
148
0.0
 69
0
 70
0
 71
0
 72
0
 73
0
 74
0
 75
0
 76
0
 77
1
 78
8
 79
3
170
0
171
3
172
1
173
0
174
0
175
0
176
0
177
0
178
0
179
2
271
2
272
2
273
2
274
3
275
0
276
0
277
2
278
44
279
0
280
0
281
0
282
0
283
0
284
8
285
0
286
0
288
0
289
3
290
0
371
-2
372
-2
  0
ENDTAB
  0
TABLE
  2
BLOCK_RECORD
  5
9
330
0
100
AcDbSymbolTable
 70
3
  0
BLOCK_RECORD
  5
17
330
9
100
AcDbSymbolTableRecord
100
AcDbBlockTableRecord
  2
*Model_Space
340
1A
 70
0
280
1
281
0
  0
BLOCK_RECORD
  5
1B
330
9
100
AcDbSymbolTableRecord
100
AcDbBlockTableRecord
  2
*Paper_Space
340
1E
 70
0
280
1
281
0
  0
BLOCK_RECORD
  5
2F
330
9
100
AcDbSymbolTableRecord
100
AcDbBlockTableRecord
  2
HEX
340
0
 70
0
280
1
281
0
  0
ENDTAB
  0
ENDSEC
  0
SECTION
  2
BLOCKS
  0
BLOCK
  5
18
330
17
100
AcDbEntity
  8
0
100
AcDbBlockBegin
  2
*Model_Space
 70
0
 10
0.0
 20
0.0
 30
0.0
  3
*Model_Space
  1

  0
ENDBLK
  5
19
330
17
100
AcDbEntity
  8
0
100
AcDbBlockEnd
  0
BLOCK
  5
1C
330
1B
100
AcDbEntity
  8
0
100
AcDbBlockBegin
  2
*Paper_Space
 70
0
 10
0.0
 20
0.0
 30
0.0
  3
*Paper_Space
  1

  0
ENDBLK
  5
1D
330
1B
100
AcDbEntity
  8
0
100
AcDbBlockEnd
  0
BLOCK
  5
30
330
2F
100
AcDbEntity
  8
0
100
AcDbBlockBegin
  2
HEX
 70
0
 10
0.0
 20
0.0
 30
0.0
  3
HEX
  1

  0
LWPOLYLINE
  5
32
330
2F
100
AcDbEntity
  8
0
100
AcDbPolyline
 90
6
 70
1
 10
1.516
 20
0.875
 10
0.0
 20
1.75
 10
-1.516
 20
0.875
 10
-1.516
 20
-0.875
 10
-0.0
 20
-1.75
 10
1.516
 20
-0.875
  0
ENDBLK
  5
31
330
2F
100
AcDbEntity
  8
0
100
AcDbBlockEnd
  0
ENDSEC
  0
SECTION
  2
ENTITIES
  0
LWPOLYLINE
  5
33
330
17
100
AcDbEntity
  8
0
100
AcDbPolyline
 90
14
 70
1
 10
202.157
 20
-149.465
 10
202.108
 20
-149.624
 10
202.02
 20
-149.792
 10
201.904
 20
-149.939
 10
201.813
 20
-150.024
 10
201.66
 20
-150.129
 10
201.549
 20
-150.183
 10
201.37
 20
-150.238
 10
201.246
 20
-150.257
 10
200.99
 20
-150.247
 10
200.797
 20
-150.194
 10
199.852
 20
-149.771
 10
201.27
 20
-148.953
 10
202.157
 20
-149.465
  0
LWPOLYLINE
  5
34
330
17
100
AcDbEntity
  8
0
100
AcDbPolyline
 90
6
 70
1
 10
193.958
 20
-147.121
 10
192.505
 20
-146.468
 10
191.911
 20
-146.201
 10
192.442
 20
-145.895
 10
193.958
 20
-146.77
 10
193.958
 20
-147.121
  0
LWPOLYLINE
  5
35
330
17
100
AcDbEntity
  8
0
100
AcDbPolyline
 90
7
 70
1
 10
197.305
 20
-148.626
 10
194.458
 20
-147.346
 10
194.458
 20
-146.77
 10
195.973
 20
-145.895
 10
197.489
 20
-146.77
 10
197.489
 20
-148.52
 10
197.305
 20
-148.626
  0
INSERT
  5
36
330
17
100
AcDbEntity
  8
0
100
AcDbBlockReference
  2
HEX
 10
199.505
 20
-147.645
 30
0.0
  0
LWPOLYLINE
  5
38
330
17
100
AcDbEntity
  8
0
100
AcDbPolyline
 90
6
 70
1
 10
202.184
 20
-146.389
 10
202.184
 20
-146.556
 10
202.184
 20
-148.903
 10
201.52
 20
-148.52
 10
201.52
 20
-146.77
 10
202.184
 20
-146.389
  0
LWPOLYLINE
  5
39
330
17
100
AcDbEntity
  8
0
100
AcDbPolyline
 90
6
 70
1
 10
188.661
 20
-144.74
 10
186.521
 20
-143.777
 10
185.956
 20
-143.524
 10
187.146
 20
-142.837
 10
188.661
 20
-143.712
 10
188.661
 20
-144.74
  0
LWPOLYLINE
  5
3A
330
17
100
AcDbEntity
  8
0
100
AcDbPolyline
 90
7
 70
1
 10
191.349
 20
-145.948
 10
189.161
 20
-144.965
 10
189.161
 20
-143.712
 10
190.677
 20
-142.837
 10
192.192
 20
-143.712
 10
192.192
 20
-145.462
 10
191.349
 20
-145.948
  0
INSERT
  5
3B
330
17
100
AcDbEntity
  8
0
100
AcDbBlockReference
  2
HEX
 10
194.208
 20
-144.587
 30
0.0
  0
INSERT
  5
3D
330
17
100
AcDbEntity
  8
0
100
AcDbBlockReference
  2
HEX
 10
197.739
 20
-144.587
 30
0.0
  0
LWPOLYLINE
  5
3F
330
17
100
AcDbEntity
  8
0
100
AcDbPolyline
 90
12
 70
1
 10
201.97
 20
-143.252
 10
202.06
 20
-143.391
 10
202.113
 20
-143.504
 10
202.161
 20
-143.665
 10
202.18
 20
-143.792
 10
202.184
 20
-145.809
 10
201.27
 20
-146.337
 10
199.755
 20
-145.462
 10
199.755
 20
-143.712
 10
201.252
 20
-142.847
 10
201.317
 20
-142.863
 10
201.97
 20
-143.252
  0
LWPOLYLINE
  5
40
330
17
100
AcDbEntity
  8
0
100
AcDbPolyline
 90
6
 70
1
 10
179.834
 20
-140.771
 10
179.04
 20
-140.415
 10
178.015
 20
-139.954
 10
178.318
 20
-139.779
 10
179.834
 20
-140.654
 10
179.834
 20
-140.771
  0
LWPOLYLINE
  5
41
330
17
100
AcDbEntity
  8
0
100
AcDbPolyline
 90
6
 70
1
 10
183.365
 20
-142.359
 10
180.334
 20
-140.996
 10
180.334
 20
-140.654
 10
181.849
 20
-139.779
 10
183.365
 20
-140.654
 10
183.365
 20
-142.359
  0
LWPOLYLINE
  5
42
330
17
100
AcDbEntity
  8
0
100
AcDbPolyline
 90
8
 70
1
 10
185.273
 20
-143.216
 10
183.865
 20
-142.404
 10
183.865
 20
-140.654
 10
185.38
 20
-139.779
 10
186.896
 20
-140.654
 10
186.896
 20
-142.404
 10
185.394
 20
-143.271
 10
185.273
 20
-143.216
  0
INSERT
  5
43
330
17
100
AcDbEntity
  8
0
100
AcDbBlockReference
  2
HEX
 10
188.911
 20
-141.529
 30
0.0
  0
LWPOLYLINE
  5
45
330
17
100
AcDbEntity
  8
0
100
AcDbPolyline
 90
7
 70
1
 10
191.522
 20
-140.31
 10
193.958
 20
-140.945
 10
193.958
 20
-142.404
 10
192.442
 20
-143.279
 10
190.927
 20
-142.404
 10
190.927
 20
-140.654
 10
191.522
 20
-140.31
  0
LWPOLYLINE
  5
46
330
17
100
AcDbEntity
  8
0
100
AcDbPolyline
 90
6
 70
1
 10
194.458
 20
-141.076
 10
197.489
 20
-141.866
 10
197.489
 20
-142.404
 10
195.973
 20
-143.279
 10
194.458
 20
-142.404
 10
194.458
 20
-141.076
  0
LWPOLYLINE
  5
47
330
17
100
AcDbEntity
  8
0
100
AcDbPolyline
 90
6
 70
1
 10
197.989
 20
-141.996
 10
199.951
 20
-142.507
 10
200.564
 20
-142.667
 10
199.505
 20
-143.279
 10
197.989
 20
-142.404
 10
197.989
 20
-141.996
  0
LWPOLYLINE
  5
48
330
17
100
AcDbEntity
  8
0
100
AcDbPolyline
 90
17
 70
1
 10
176.796
 20
-139.406
 10
176.651
 20
-139.325
 10
176.524
 20
-139.225
 10
176.416
 20
-139.109
 10
176.328
 20
-138.979
 10
176.261
 20
-138.838
 10
176.217
 20
-138.688
 10
176.195
 20
-138.534
 10
176.197
 20
-138.376
 10
176.257
 20
-138.116
 10
176.402
 20
-137.841
 10
176.729
 20
-137.381
 10
177.054
 20
-137.01
 10
178.068
 20
-137.595
 10
178.068
 20
-139.345
 10
177.453
 20
-139.701
 10
176.796
 20
-139.406
  0
LWPOLYLINE
  5
49
330
17
100
AcDbEntity
  8
0
100
AcDbPolyline
 90
7
 70
1
 10
179.358
 20
-137.139
 10
181.599
 20
-137.724
 10
181.599
 20
-139.345
 10
180.084
 20
-140.22
 10
178.568
 20
-139.345
 10
178.568
 20
-137.595
 10
179.358
 20
-137.139
  0
LWPOLYLINE
  5
4A
330
17
100
AcDbEntity
  8
0
100
AcDbPolyline
 90
6
 70
1
 10
182.099
 20
-137.854
 10
185.13
 20
-138.644
 10
185.13
 20
-139.345
 10
183.615
 20
-140.22
 10
182.099
 20
-139.345
 10
182.099
 20
-137.854
  0
LWPOLYLINE
  5
4B
330
17
100
AcDbEntity
  8
0
100
AcDbPolyline
 90
4
 70
1
 10
183.892
 20
-136.881
 10
183.507
 20
-136.783
 10
183.615
 20
-136.72
 10
183.892
 20
-136.881
  0
LWPOLYLINE
  5
4C
330
17
100
AcDbEntity
  8
0
100
AcDbPolyline
 90
6
 70
1
 10
185.63
 20
-138.774
 10
187.511
 20
-139.265
 10
188.4
 20
-139.496
 10
187.146
 20
-140.22
 10
185.63
 20
-139.345
 10
185.63
 20
-138.774
  0
LWPOLYLINE
  5
4D
330
17
100
AcDbEntity
  8
0
100
AcDbPolyline
 90
6
 70
1
 10
188.661
 20
-138.095
 10
187.333
 20
-137.757
 10
185.957
 20
-137.407
 10
187.146
 20
-136.72
 10
188.661
 20
-137.595
 10
188.661
 20
-138.095
  0
LWPOLYLINE
  5
4E
330
17
100
AcDbEntity
  8
0
100
AcDbPolyline
 90
4
 70
1
 10
190.264
 20
-139.982
 10
190.833
 20
-140.131
 10
190.677
 20
-140.22
 10
190.264
 20
-139.982
  0
LWPOLYLINE
  5
4F
330
17
100
AcDbEntity
  8
0
100
AcDbPolyline
 90
6
 70
1
 10
192.192
 20
-138.992
 10
189.161
 20
-138.222
 10
189.161
 20
-137.595
 10
190.677
 20
-136.72
 10
192.192
 20
-137.595
 10
192.192
 20
-138.992
  0
LWPOLYLINE
  5
50
330
17
100
AcDbEntity
  8
0
100
AcDbPolyline
 90
10
 70
1
 10
195.592
 20
-137.52
 10
195.652
 20
-137.88
 10
195.706
 20
-138.581
 10
195.723
 20
-138.851
 10
195.723
 20
-139.345
 10
195.077
 20
-139.719
 10
192.692
 20
-139.118
 10
192.692
 20
-137.595
 10
194.208
 20
-136.72
 10
195.592
 20
-137.52
  0
LWPOLYLINE
  5
51
330
17
100
AcDbEntity
  8
0
100
AcDbPolyline
 90
12
 70
1
 10
199.165
 20
-139.397
 10
197.453
 20
-138.794
 10
197.379
 20
-138.754
 10
197.318
 20
-138.697
 10
197.268
 20
-138.614
 10
197.243
 20
-138.518
 10
197.204
 20
-137.663
 10
197.141
 20
-137.066
 10
197.739
 20
-136.72
 10
199.255
 20
-137.595
 10
199.255
 20
-139.345
 10
199.165
 20
-139.397
  0
LWPOLYLINE
  5
52
330
17
100
AcDbEntity
  8
0
100
AcDbPolyline
 90
14
 70
1
 10
202.182
 20
-137.247
 10
202.085
 20
-139.216
 10
202.056
 20
-139.331
 10
201.985
 20
-139.489
 10
201.884
 20
-139.628
 10
201.756
 20
-139.747
 10
201.555
 20
-139.871
 10
201.327
 20
-139.951
 10
201.084
 20
-139.986
 10
200.838
 20
-139.971
 10
199.755
 20
-139.345
 10
199.755
 20
-137.595
 10
201.27
 20
-136.72
 10
202.182
 20
-137.247
  0
LWPOLYLINE
  5
53
330
17
100
AcDbEntity
  8
0
100
AcDbPolyline
 90
11
 70
1
 10
175.567
 20
-134.113
 10
175.422
 20
-134.419
 10
175.294
 20
-134.52
 10
175.204
 20
-134.549
 10
175.111
 20
-134.554
 10
174.989
 20
-134.527
 10
174.907
 20
-134.483
 10
174.802
 20
-134.367
 10
174.759
 20
-134.238
 10
174.778
 20
-133.668
 10
175.567
 20
-134.113
  0
LWPOLYLINE
  5
54
330
17
100
AcDbEntity
  8
0
100
AcDbPolyline
 90
5
 70
1
 10
177.617
 20
-136.758
 10
177.928
 20
-136.769
 10
178.669
 20
-136.96
 10
178.318
 20
-137.162
 10
177.617
 20
-136.758
  0
LWPOLYLINE
  5
55
330
17
100
AcDbEntity
  8
0
100
AcDbPolyline
 90
7
 70
1
 10
179.834
 20
-135.85
 10
176.802
 20
-135.087
 10
176.802
 20
-134.761
 10
177.046
 20
-134.397
 10
178.318
 20
-133.662
 10
179.834
 20
-134.537
 10
179.834
 20
-135.85
  0
LWPOLYLINE
  5
56
330
17
100
AcDbEntity
  8
0
100
AcDbPolyline
 90
7
 70
1
 10
182.813
 20
-136.606
 10
180.334
 20
-135.977
 10
180.334
 20
-134.537
 10
181.849
 20
-133.662
 10
183.365
 20
-134.537
 10
183.365
 20
-136.287
 10
182.813
 20
-136.606
  0
INSERT
  5
57
330
17
100
AcDbEntity
  8
0
100
AcDbBlockReference
  2
HEX
 10
185.38
 20
-135.412
 30
0.0
  0
LWPOLYLINE
  5
59
330
17
100
AcDbEntity
  8
0
100
AcDbPolyline
 90
7
 70
1
 10
188.158
 20
-134.098
 10
190.427
 20
-134.678
 10
190.427
 20
-136.287
 10
188.911
 20
-137.162
 10
187.396
 20
-136.287
 10
187.396
 20
-134.537
 10
188.158
 20
-134.098
  0
LWPOLYLINE
  5
5A
330
17
100
AcDbEntity
  8
0
100
AcDbPolyline
 90
8
 70
1
 10
190.935
 20
-134.808
 10
193.217
 20
-135.395
 10
193.65
 20
-135.525
 10
193.958
 20
-135.637
 10
193.958
 20
-136.287
 10
192.442
 20
-137.162
 10
190.927
 20
-136.287
 10
190.935
 20
-134.808
  0
LWPOLYLINE
  5
5B
330
17
100
AcDbEntity
  8
0
100
AcDbPolyline
 90
7
 70
1
 10
194.464
 20
-135.886
 10
194.763
 20
-136.095
 10
194.979
 20
-136.296
 10
195.169
 20
-136.528
 10
195.33
 20
-136.791
 10
194.458
 20
-136.287
 10
194.464
 20
-135.886
  0
LWPOLYLINE
  5
5C
330
17
100
AcDbEntity
  8
0
100
AcDbPolyline
 90
13
 70
1
 10
197.045
 20
-136.542
 10
196.93
 20
-136.13
 10
196.775
 20
-135.747
 10
196.577
 20
-135.398
 10
196.396
 20
-135.163
 10
196.126
 20
-134.893
 10
195.822
 20
-134.654
 10
195.487
 20
-134.441
 10
195.031
 20
-134.207
 10
195.973
 20
-133.662
 10
197.489
 20
-134.537
 10
197.489
 20
-136.287
 10
197.045
 20
-136.542
  0
INSERT
  5
5D
330
17
100
AcDbEntity
  8
0
100
AcDbBlockReference
  2
HEX
 10
199.505
 20
-135.412
 30
0.0
  0
LWPOLYLINE
  5
5F
330
17
100
AcDbEntity
  8
0
100
AcDbPolyline
 90
6
 70
1
 10
202.56
 20
-133.937
 10
202.305
 20
-135.867
 10
202.224
 20
-136.694
 10
201.52
 20
-136.287
 10
201.52
 20
-134.537
 10
202.56
 20
-133.937
  0
LWPOLYLINE
  5
60
330
17
100
AcDbEntity
  8
0
100
AcDbPolyline
 90
5
 70
1
 10
177.888
 20
-133.333
 10
177.963
 20
-133.25
 10
178.068
 20
-133.137
 10
178.068
 20
-133.229
 10
177.888
 20
-133.333
  0
LWPOLYLINE
  5
61
330
17
100
AcDbEntity
  8
0
100
AcDbPolyline
 90
10
 70
1
 10
177.56
 20
-131.186
 10
177.086
 20
-131.635
 10
176.879
 20
-131.871
 10
176.59
 20
-132.247
 10
176.162
 20
-132.917
 10
175.775
 20
-133.656
 10
175.037
 20
-133.229
 10
175.037
 20
-131.479
 10
176.552
 20
-130.604
 10
177.56
 20
-131.186
  0
LWPOLYLINE
  5
62
330
17
100
AcDbEntity
  8
0
100
AcDbPolyline
 90
14
 70
1
 10
178.568
 20
-132.638
 10
178.887
 20
-132.36
 10
179.082
 20
-132.225
 10
179.261
 20
-132.131
 10
179.45
 20
-132.064
 10
179.651
 20
-132.029
 10
179.855
 20
-132.025
 10
180.093
 20
-132.05
 10
180.364
 20
-132.104
 10
181.599
 20
-132.419
 10
181.599
 20
-133.229
 10
180.084
 20
-134.104
 10
178.568
 20
-133.229
 10
178.568
 20
-132.638
  0
LWPOLYLINE
  5
63
330
17
100
AcDbEntity
  8
0
100
AcDbPolyline
 90
6
 70
1
 10
182.102
 20
-132.548
 10
184.022
 20
-133.039
 10
185.018
 20
-133.294
 10
183.615
 20
-134.104
 10
182.099
 20
-133.229
 10
182.102
 20
-132.548
  0
LWPOLYLINE
  5
64
330
17
100
AcDbEntity
  8
0
100
AcDbPolyline
 90
6
 70
1
 10
185.13
 20
-131.511
 10
184.113
 20
-131.227
 10
183.071
 20
-130.918
 10
183.615
 20
-130.604
 10
185.13
 20
-131.479
 10
185.13
 20
-131.511
  0
LWPOLYLINE
  5
65
330
17
100
AcDbEntity
  8
0
100
AcDbPolyline
 90
5
 70
1
 10
186.326
 20
-133.629
 10
186.71
 20
-133.727
 10
187.465
 20
-133.92
 10
187.146
 20
-134.104
 10
186.326
 20
-133.629
  0
LWPOLYLINE
  5
66
330
17
100
AcDbEntity
  8
0
100
AcDbPolyline
 90
6
 70
1
 10
188.661
 20
-132.423
 10
185.63
 20
-131.646
 10
185.63
 20
-131.479
 10
187.146
 20
-130.604
 10
188.661
 20
-131.479
 10
188.661
 20
-132.423
  0
LWPOLYLINE
  5
67
330
17
100
AcDbEntity
  8
0
100
AcDbPolyline
 90
7
 70
1
 10
192.084
 20
-133.292
 10
189.161
 20
-132.548
 10
189.161
 20
-131.479
 10
190.677
 20
-130.604
 10
192.192
 20
-131.479
 10
192.192
 20
-133.229
 10
192.084
 20
-133.292
  0
LWPOLYLINE
  5
68
330
17
100
AcDbEntity
  8
0
100
AcDbPolyline
 90
8
 70
1
 10
194.444
 20
-133.968
 10
193.425
 20
-133.652
 10
192.692
 20
-133.229
 10
192.692
 20
-131.479
 10
194.208
 20
-130.604
 10
195.723
 20
-131.479
 10
195.723
 20
-133.229
 10
194.444
 20
-133.968
  0
INSERT
  5
69
330
17
100
AcDbEntity
  8
0
100
AcDbBlockReference
  2
HEX
 10
197.739
 20
-132.354
 30
0.0
  0
LWPOLYLINE
  5
6B
330
17
100
AcDbEntity
  8
0
100
AcDbPolyline
 90
8
 70
1
 10
202.786
 20
-132.592
 10
202.662
 20
-133.301
 10
201.27
 20
-134.104
 10
199.755
 20
-133.229
 10
199.755
 20
-131.479
 10
201.27
 20
-130.604
 10
202.786
 20
-131.479
 10
202.786
 20
-132.592
  0
LWPOLYLINE
  5
6C
330
17
100
AcDbEntity
  8
0
100
AcDbPolyline
 90
6
 70
1
 10
174.945
 20
-130.955
 10
175.098
 20
-129.134
 10
175.231
 20
-127.803
 10
176.302
 20
-128.421
 10
176.302
 20
-130.171
 10
174.945
 20
-130.955
  0
LWPOLYLINE
  5
6D
330
17
100
AcDbEntity
  8
0
100
AcDbPolyline
 90
11
 70
1
 10
179.547
 20
-130.337
 10
179.044
 20
-130.424
 10
178.743
 20
-130.512
 10
178.309
 20
-130.695
 10
178.005
 20
-130.866
 10
176.802
 20
-130.171
 10
176.802
 20
-128.421
 10
178.318
 20
-127.546
 10
179.834
 20
-128.421
 10
179.834
 20
-130.171
 10
179.547
 20
-130.337
  0
LWPOLYLINE
  5
6E
330
17
100
AcDbEntity
  8
0
100
AcDbPolyline
 90
9
 70
1
 10
182.411
 20
-130.722
 10
181.399
 20
-130.467
 10
180.633
 20
-130.344
 10
180.334
 20
-130.171
 10
180.334
 20
-128.421
 10
181.849
 20
-127.546
 10
183.365
 20
-128.421
 10
183.365
 20
-130.171
 10
182.411
 20
-130.722
  0
INSERT
  5
6F
330
17
100
AcDbEntity
  8
0
100
AcDbBlockReference
  2
HEX
 10
185.38
 20
-129.296
 30
0.0
  0
INSERT
  5
71
330
17
100
AcDbEntity
  8
0
100
AcDbBlockReference
  2
HEX
 10
188.911
 20
-129.296
 30
0.0
  0
INSERT
  5
73
330
17
100
AcDbEntity
  8
0
100
AcDbBlockReference
  2
HEX
 10
192.442
 20
-129.296
 30
0.0
  0
INSERT
  5
75
330
17
100
AcDbEntity
  8
0
100
AcDbBlockReference
  2
HEX
 10
195.973
 20
-129.296
 30
0.0
  0
INSERT
  5
77
330
17
100
AcDbEntity
  8
0
100
AcDbBlockReference
  2
HEX
 10
199.505
 20
-129.296
 30
0.0
  0
LWPOLYLINE
  5
79
330
17
100
AcDbEntity
  8
0
100
AcDbPolyline
 90
8
 70
1
 10
203.794
 20
-127.985
 10
203.388
 20
-129.68
 10
203.096
 20
-131.012
 10
203.036
 20
-131.046
 10
201.52
 20
-130.171
 10
201.52
 20
-128.421
 10
203.036
 20
-127.546
 10
203.794
 20
-127.985
  0
LWPOLYLINE
  5
7A
330
17
100
AcDbEntity
  8
0
100
AcDbPolyline
 90
7
 70
1
 10
175.29
 20
-127.26
 10
175.567
 20
-125.058
 10
176.552
 20
-124.488
 10
178.068
 20
-125.363
 10
178.068
 20
-127.113
 10
176.552
 20
-127.988
 10
175.29
 20
-127.26
  0
INSERT
  5
7B
330
17
100
AcDbEntity
  8
0
100
AcDbBlockReference
  2
HEX
 10
180.084
 20
-126.238
 30
0.0
  0
INSERT
  5
7D
330
17
100
AcDbEntity
  8
0
100
AcDbBlockReference
  2
HEX
 10
183.615
 20
-126.238
 30
0.0
  0
INSERT
  5
7F
330
17
100
AcDbEntity
  8
0
100
AcDbBlockReference
  2
HEX
 10
187.146
 20
-126.238
 30
0.0
  0
INSERT
  5
81
330
17
100
AcDbEntity
  8
0
100
AcDbBlockReference
  2
HEX
 10
190.677
 20
-126.238
 30
0.0
  0
INSERT
  5
83
330
17
100
AcDbEntity
  8
0
100
AcDbBlockReference
  2
HEX
 10
194.208
 20
-126.238
 30
0.0
  0
INSERT
  5
85
330
17
100
AcDbEntity
  8
0
100
AcDbBlockReference
  2
HEX
 10
197.739
 20
-126.238
 30
0.0
  0
INSERT
  5
87
330
17
100
AcDbEntity
  8
0
100
AcDbBlockReference
  2
HEX
 10
201.27
 20
-126.238
 30
0.0
  0
LWPOLYLINE
  5
89
330
17
100
AcDbEntity
  8
0
100
AcDbPolyline
 90
6
 70
1
 10
204.675
 20
-124.561
 10
204.118
 20
-126.702
 10
203.92
 20
-127.48
 10
203.286
 20
-127.113
 10
203.286
 20
-125.363
 10
204.675
 20
-124.561
  0
LWPOLYLINE
  5
8A
330
17
100
AcDbEntity
  8
0
100
AcDbPolyline
 90
6
 70
1
 10
175.658
 20
-124.427
 10
175.833
 20
-123.332
 10
176.051
 20
-122.16
 10
176.302
 20
-122.305
 10
176.302
 20
-124.055
 10
175.658
 20
-124.427
  0
INSERT
  5
8B
330
17
100
AcDbEntity
  8
0
100
AcDbBlockReference
  2
HEX
 10
178.318
 20
-123.18
 30
0.0
  0
INSERT
  5
8D
330
17
100
AcDbEntity
  8
0
100
AcDbBlockReference
  2
HEX
 10
181.849
 20
-123.18
 30
0.0
  0
INSERT
  5
8F
330
17
100
AcDbEntity
  8
0
100
AcDbBlockReference
  2
HEX
 10
185.38
 20
-123.18
 30
0.0
  0
INSERT
  5
91
330
17
100
AcDbEntity
  8
0
100
AcDbBlockReference
  2
HEX
 10
188.911
 20
-123.18
 30
0.0
  0
INSERT
  5
93
330
17
100
AcDbEntity
  8
0
100
AcDbBlockReference
  2
HEX
 10
192.442
 20
-123.18
 30
0.0
  0
INSERT
  5
95
330
17
100
AcDbEntity
  8
0
100
AcDbBlockReference
  2
HEX
 10
195.973
 20
-123.18
 30
0.0
  0
INSERT
  5
97
330
17
100
AcDbEntity
  8
0
100
AcDbBlockReference
  2
HEX
 10
199.505
 20
-123.18
 30
0.0
  0
INSERT
  5
99
330
17
100
AcDbEntity
  8
0
100
AcDbBlockReference
  2
HEX
 10
203.036
 20
-123.18
 30
0.0
  0
LWPOLYLINE
  5
9B
330
17
100
AcDbEntity
  8
0
100
AcDbPolyline
 90
5
 70
1
 10
205.291
 20
-122.167
 10
205.063
 20
-123.069
 10
205.051
 20
-123.113
 10
205.051
 20
-122.305
 10
205.291
 20
-122.167
  0
LWPOLYLINE
  5
9C
330
17
100
AcDbEntity
  8
0
100
AcDbPolyline
 90
7
 70
1
 10
176.486
 20
-120.247
 10
176.93
 20
-118.59
 10
178.068
 20
-119.247
 10
178.068
 20
-120.997
 10
176.552
 20
-121.872
 10
176.161
 20
-121.646
 10
176.486
 20
-120.247
  0
INSERT
  5
9D
330
17
100
AcDbEntity
  8
0
100
AcDbBlockReference
  2
HEX
 10
180.084
 20
-120.122
 30
0.0
  0
INSERT
  5
9F
330
17
100
AcDbEntity
  8
0
100
AcDbBlockReference
  2
HEX
 10
183.615
 20
-120.122
 30
0.0
  0
INSERT
  5
A1
330
17
100
AcDbEntity
  8
0
100
AcDbBlockReference
  2
HEX
 10
187.146
 20
-120.122
 30
0.0
  0
INSERT
  5
A3
330
17
100
AcDbEntity
  8
0
100
AcDbBlockReference
  2
HEX
 10
190.677
 20
-120.122
 30
0.0
  0
INSERT
  5
A5
330
17
100
AcDbEntity
  8
0
100
AcDbBlockReference
  2
HEX
 10
194.208
 20
-120.122
 30
0.0
  0
INSERT
  5
A7
330
17
100
AcDbEntity
  8
0
100
AcDbBlockReference
  2
HEX
 10
197.739
 20
-120.122
 30
0.0
  0
INSERT
  5
A9
330
17
100
AcDbEntity
  8
0
100
AcDbBlockReference
  2
HEX
 10
201.27
 20
-120.122
 30
0.0
  0
LWPOLYLINE
  5
AB
330
17
100
AcDbEntity
  8
0
100
AcDbPolyline
 90
7
 70
1
 10
206.005
 20
-119.067
 10
205.456
 20
-121.494
 10
204.801
 20
-121.872
 10
203.286
 20
-120.997
 10
203.286
 20
-119.247
 10
204.801
 20
-118.372
 10
206.005
 20
-119.067
  0
LWPOLYLINE
  5
AC
330
17
100
AcDbEntity
  8
0
100
AcDbPolyline
 90
8
 70
1
 10
177.074
 20
-118.096
 10
177.475
 20
-116.81
 10
177.902
 20
-115.555
 10
178.318
 20
-115.314
 10
179.834
 20
-116.189
 10
179.834
 20
-117.939
 10
178.318
 20
-118.814
 10
177.074
 20
-118.096
  0
INSERT
  5
AD
330
17
100
AcDbEntity
  8
0
100
AcDbBlockReference
  2
HEX
 10
181.849
 20
-117.064
 30
0.0
  0
INSERT
  5
AF
330
17
100
AcDbEntity
  8
0
100
AcDbBlockReference
  2
HEX
 10
185.38
 20
-117.064
 30
0.0
  0
INSERT
  5
B1
330
17
100
AcDbEntity
  8
0
100
AcDbBlockReference
  2
HEX
 10
188.911
 20
-117.064
 30
0.0
  0
INSERT
  5
B3
330
17
100
AcDbEntity
  8
0
100
AcDbBlockReference
  2
HEX
 10
192.442
 20
-117.064
 30
0.0
  0
INSERT
  5
B5
330
17
100
AcDbEntity
  8
0
100
AcDbBlockReference
  2
HEX
 10
195.973
 20
-117.064
 30
0.0
  0
INSERT
  5
B7
330
17
100
AcDbEntity
  8
0
100
AcDbBlockReference
  2
HEX
 10
199.505
 20
-117.064
 30
0.0
  0
INSERT
  5
B9
330
17
100
AcDbEntity
  8
0
100
AcDbBlockReference
  2
HEX
 10
203.036
 20
-117.064
 30
0.0
  0
LWPOLYLINE
  5
BB
330
17
100
AcDbEntity
  8
0
100
AcDbPolyline
 90
8
 70
1
 10
206.602
 20
-115.346
 10
206.425
 20
-116.729
 10
206.315
 20
-117.423
 10
206.108
 20
-118.55
 10
205.051
 20
-117.939
 10
205.051
 20
-116.189
 10
206.567
 20
-115.314
 10
206.602
 20
-115.346
  0
LWPOLYLINE
  5
BC
330
17
100
AcDbEntity
  8
0
100
AcDbPolyline
 90
8
 70
1
 10
178.568
 20
-113.755
 10
178.887
 20
-112.947
 10
180.084
 20
-112.256
 10
181.599
 20
-113.131
 10
181.599
 20
-114.881
 10
180.084
 20
-115.756
 10
178.568
 20
-114.881
 10
178.568
 20
-113.755
  0
INSERT
  5
BD
330
17
100
AcDbEntity
  8
0
100
AcDbBlockReference
  2
HEX
 10
183.615
 20
-114.006
 30
0.0
  0
INSERT
  5
BF
330
17
100
AcDbEntity
  8
0
100
AcDbBlockReference
  2
HEX
 10
187.146
 20
-114.006
 30
0.0
  0
INSERT
  5
C1
330
17
100
AcDbEntity
  8
0
100
AcDbBlockReference
  2
HEX
 10
190.677
 20
-114.006
 30
0.0
  0
INSERT
  5
C3
330
17
100
AcDbEntity
  8
0
100
AcDbBlockReference
  2
HEX
 10
194.208
 20
-114.006
 30
0.0
  0
INSERT
  5
C5
330
17
100
AcDbEntity
  8
0
100
AcDbBlockReference
  2
HEX
 10
197.739
 20
-114.006
 30
0.0
  0
INSERT
  5
C7
330
17
100
AcDbEntity
  8
0
100
AcDbBlockReference
  2
HEX
 10
201.27
 20
-114.006
 30
0.0
  0
INSERT
  5
C9
330
17
100
AcDbEntity
  8
0
100
AcDbBlockReference
  2
HEX
 10
204.801
 20
-114.006
 30
0.0
  0
LWPOLYLINE
  5
CB
330
17
100
AcDbEntity
  8
0
100
AcDbPolyline
 90
5
 70
1
 10
207.011
 20
-113.019
 10
206.908
 20
-113.443
 10
206.817
 20
-113.88
 10
206.817
 20
-113.131
 10
207.011
 20
-113.019
  0
LWPOLYLINE
  5
CC
330
17
100
AcDbEntity
  8
0
100
AcDbPolyline
 90
5
 70
1
 10
179.196
 20
-112.192
 10
179.53
 20
-111.397
 10
179.834
 20
-110.696
 10
179.834
 20
-111.823
 10
179.196
 20
-112.192
  0
INSERT
  5
CD
330
17
100
AcDbEntity
  8
0
100
AcDbBlockReference
  2
HEX
 10
181.849
 20
-110.948
 30
0.0
  0
INSERT
  5
CF
330
17
100
AcDbEntity
  8
0
100
AcDbBlockReference
  2
HEX
 10
185.38
 20
-110.948
 30
0.0
  0
INSERT
  5
D1
330
17
100
AcDbEntity
  8
0
100
AcDbBlockReference
  2
HEX
 10
188.911
 20
-110.948
 30
0.0
  0
INSERT
  5
D3
330
17
100
AcDbEntity
  8
0
100
AcDbBlockReference
  2
HEX
 10
192.442
 20
-110.948
 30
0.0
  0
INSERT
  5
D5
330
17
100
AcDbEntity
  8
0
100
AcDbBlockReference
  2
HEX
 10
195.973
 20
-110.948
 30
0.0
  0
INSERT
  5
D7
330
17
100
AcDbEntity
  8
0
100
AcDbBlockReference
  2
HEX
 10
199.505
 20
-110.948
 30
0.0
  0
INSERT
  5
D9
330
17
100
AcDbEntity
  8
0
100
AcDbBlockReference
  2
HEX
 10
203.036
 20
-110.948
 30
0.0
  0
LWPOLYLINE
  5
DB
330
17
100
AcDbEntity
  8
0
100
AcDbPolyline
 90
11
 70
1
 10
208.082
 20
-110.314
 10
207.761
 20
-110.944
 10
207.559
 20
-111.396
 10
207.38
 20
-111.847
 10
207.213
 20
-112.325
 10
206.567
 20
-112.698
 10
205.051
 20
-111.823
 10
205.051
 20
-110.073
 10
206.567
 20
-109.198
 10
208.082
 20
-110.073
 10
208.082
 20
-110.314
  0
LWPOLYLINE
  5
DC
330
17
100
AcDbEntity
  8
0
100
AcDbPolyline
 90
6
 70
1
 10
180.381
 20
-109.469
 10
181.209
 20
-107.665
 10
181.52
 20
-106.97
 10
181.599
 20
-107.015
 10
181.599
 20
-108.765
 10
180.381
 20
-109.469
  0
INSERT
  5
DD
330
17
100
AcDbEntity
  8
0
100
AcDbBlockReference
  2
HEX
 10
183.615
 20
-107.89
 30
0.0
  0
INSERT
  5
DF
330
17
100
AcDbEntity
  8
0
100
AcDbBlockReference
  2
HEX
 10
187.146
 20
-107.89
 30
0.0
  0
INSERT
  5
E1
330
17
100
AcDbEntity
  8
0
100
AcDbBlockReference
  2
HEX
 10
190.677
 20
-107.89
 30
0.0
  0
INSERT
  5
E3
330
17
100
AcDbEntity
  8
0
100
AcDbBlockReference
  2
HEX
 10
194.208
 20
-107.89
 30
0.0
  0
INSERT
  5
E5
330
17
100
AcDbEntity
  8
0
100
AcDbBlockReference
  2
HEX
 10
197.739
 20
-107.89
 30
0.0
  0
INSERT
  5
E7
330
17
100
AcDbEntity
  8
0
100
AcDbBlockReference
  2
HEX
 10
201.27
 20
-107.89
 30
0.0
  0
INSERT
  5
E9
330
17
100
AcDbEntity
  8
0
100
AcDbBlockReference
  2
HEX
 10
204.801
 20
-107.89
 30
0.0
  0
LWPOLYLINE
  5
EB
330
17
100
AcDbEntity
  8
0
100
AcDbPolyline
 90
13
 70
1
 10
209.723
 20
-106.946
 10
209.848
 20
-107.144
 10
209.848
 20
-107.714
 10
209.837
 20
-107.739
 10
209.747
 20
-107.89
 10
209.336
 20
-108.407
 10
208.985
 20
-108.88
 10
208.56
 20
-109.509
 10
208.332
 20
-109.64
 10
206.817
 20
-108.765
 10
206.817
 20
-107.015
 10
208.332
 20
-106.14
 10
209.723
 20
-106.946
  0
LWPOLYLINE
  5
EC
330
17
100
AcDbEntity
  8
0
100
AcDbPolyline
 90
7
 70
1
 10
181.722
 20
-106.509
 10
182.371
 20
-104.942
 10
182.85
 20
-103.66
 10
183.365
 20
-103.957
 10
183.365
 20
-105.707
 10
181.849
 20
-106.582
 10
181.722
 20
-106.509
  0
INSERT
  5
ED
330
17
100
AcDbEntity
  8
0
100
AcDbBlockReference
  2
HEX
 10
185.38
 20
-104.832
 30
0.0
  0
INSERT
  5
EF
330
17
100
AcDbEntity
  8
0
100
AcDbBlockReference
  2
HEX
 10
188.911
 20
-104.832
 30
0.0
  0
INSERT
  5
F1
330
17
100
AcDbEntity
  8
0
100
AcDbBlockReference
  2
HEX
 10
192.442
 20
-104.832
 30
0.0
  0
INSERT
  5
F3
330
17
100
AcDbEntity
  8
0
100
AcDbBlockReference
  2
HEX
 10
195.973
 20
-104.832
 30
0.0
  0
INSERT
  5
F5
330
17
100
AcDbEntity
  8
0
100
AcDbBlockReference
  2
HEX
 10
199.505
 20
-104.832
 30
0.0
  0
INSERT
  5
F7
330
17
100
AcDbEntity
  8
0
100
AcDbBlockReference
  2
HEX
 10
203.036
 20
-104.832
 30
0.0
  0
LWPOLYLINE
  5
F9
330
17
100
AcDbEntity
  8
0
100
AcDbPolyline
 90
11
 70
1
 10
207.795
 20
-103.791
 10
207.834
 20
-104.194
 10
207.897
 20
-104.515
 10
207.987
 20
-104.829
 10
208.082
 20
-105.082
 10
208.082
 20
-105.707
 10
206.567
 20
-106.582
 10
205.051
 20
-105.707
 10
205.051
 20
-103.957
 10
206.567
 20
-103.082
 10
207.795
 20
-103.791
  0
LWPOLYLINE
  5
FA
330
17
100
AcDbEntity
  8
0
100
AcDbPolyline
 90
14
 70
1
 10
211.613
 20
-105.37
 10
211.32
 20
-105.303
 10
211.137
 20
-105.227
 10
210.966
 20
-105.13
 10
210.736
 20
-104.947
 10
210.603
 20
-104.803
 10
210.489
 20
-104.643
 10
210.395
 20
-104.47
 10
210.323
 20
-104.284
 10
210.262
 20
-103.987
 10
210.262
 20
-103.673
 10
210.353
 20
-103.23
 10
211.613
 20
-103.957
 10
211.613
 20
-105.37
  0
LWPOLYLINE
  5
FB
330
17
100
AcDbEntity
  8
0
100
AcDbPolyline
 90
7
 70
1
 10
215.144
 20
-104.499
 10
212.243
 20
-105.322
 10
212.113
 20
-105.352
 10
212.113
 20
-103.957
 10
213.629
 20
-103.082
 10
215.144
 20
-103.957
 10
215.144
 20
-104.499
  0
LWPOLYLINE
  5
FC
330
17
100
AcDbEntity
  8
0
100
AcDbPolyline
 90
10
 70
1
 10
216.978
 20
-103.187
 10
216.878
 20
-103.438
 10
216.766
 20
-103.632
 10
216.627
 20
-103.81
 10
216.464
 20
-103.969
 10
216.275
 20
-104.107
 10
216.063
 20
-104.221
 10
215.644
 20
-104.357
 10
215.644
 20
-103.957
 10
216.978
 20
-103.187
  0
LWPOLYLINE
  5
FD
330
17
100
AcDbEntity
  8
0
100
AcDbPolyline
 90
7
 70
1
 10
183.017
 20
-103.179
 10
183.499
 20
-101.627
 10
183.877
 20
-100.176
 10
185.13
 20
-100.899
 10
185.13
 20
-102.649
 10
183.615
 20
-103.524
 10
183.017
 20
-103.179
  0
INSERT
  5
FE
330
17
100
AcDbEntity
  8
0
100
AcDbBlockReference
  2
HEX
 10
187.146
 20
-101.774
 30
0.0
  0
INSERT
  5
100
330
17
100
AcDbEntity
  8
0
100
AcDbBlockReference
  2
HEX
 10
190.677
 20
-101.774
 30
0.0
  0
INSERT
  5
102
330
17
100
AcDbEntity
  8
0
100
AcDbBlockReference
  2
HEX
 10
194.208
 20
-101.774
 30
0.0
  0
INSERT
  5
104
330
17
100
AcDbEntity
  8
0
100
AcDbBlockReference
  2
HEX
 10
197.739
 20
-101.774
 30
0.0
  0
INSERT
  5
106
330
17
100
AcDbEntity
  8
0
100
AcDbBlockReference
  2
HEX
 10
201.27
 20
-101.774
 30
0.0
  0
LWPOLYLINE
  5
108
330
17
100
AcDbEntity
  8
0
100
AcDbPolyline
 90
8
 70
1
 10
204.549
 20
-100.17
 10
205.492
 20
-100.423
 10
206.317
 20
-100.899
 10
206.317
 20
-102.649
 10
204.801
 20
-103.524
 10
203.286
 20
-102.649
 10
203.286
 20
-100.899
 10
204.549
 20
-100.17
  0
LWPOLYLINE
  5
109
330
17
100
AcDbEntity
  8
0
100
AcDbPolyline
 90
14
 70
1
 10
207.479
 20
-100.957
 10
207.686
 20
-101.043
 10
207.89
 20
-101.206
 10
208.033
 20
-101.417
 10
208.108
 20
-101.661
 10
208.115
 20
-101.79
 10
208.101
 20
-101.921
 10
207.915
 20
-102.541
 10
207.847
 20
-102.872
 10
207.804
 20
-103.219
 10
206.817
 20
-102.649
 10
206.817
 20
-100.899
 10
206.958
 20
-100.817
 10
207.479
 20
-100.957
  0
LWPOLYLINE
  5
10A
330
17
100
AcDbEntity
  8
0
100
AcDbPolyline
 90
7
 70
1
 10
210.474
 20
-102.722
 10
210.999
 20
-100.523
 10
211.863
 20
-100.024
 10
213.379
 20
-100.899
 10
213.379
 20
-102.649
 10
211.863
 20
-103.524
 10
210.474
 20
-102.722
  0
LWPOLYLINE
  5
10B
330
17
100
AcDbEntity
  8
0
100
AcDbPolyline
 90
9
 70
1
 10
215.037
 20
-100.231
 10
216.527
 20
-101.448
 10
216.765
 20
-101.723
 10
216.91
 20
-101.982
 10
216.91
 20
-102.649
 10
215.394
 20
-103.524
 10
213.879
 20
-102.649
 10
213.879
 20
-100.899
 10
215.037
 20
-100.231
  0
LWPOLYLINE
  5
10C
330
17
100
AcDbEntity
  8
0
100
AcDbPolyline
 90
7
 70
1
 10
183.994
 20
-99.666
 10
184.415
 20
-97.523
 10
185.38
 20
-96.966
 10
186.896
 20
-97.841
 10
186.896
 20
-99.591
 10
185.38
 20
-100.466
 10
183.994
 20
-99.666
  0
INSERT
  5
10D
330
17
100
AcDbEntity
  8
0
100
AcDbBlockReference
  2
HEX
 10
188.911
 20
-98.716
 30
0.0
  0
INSERT
  5
10F
330
17
100
AcDbEntity
  8
0
100
AcDbBlockReference
  2
HEX
 10
192.442
 20
-98.716
 30
0.0
  0
LWPOLYLINE
  5
111
330
17
100
AcDbEntity
  8
0
100
AcDbPolyline
 90
7
 70
1
 10
194.915
 20
-97.577
 10
197.489
 20
-98.271
 10
197.489
 20
-99.591
 10
195.973
 20
-100.466
 10
194.458
 20
-99.591
 10
194.458
 20
-97.841
 10
194.915
 20
-97.577
  0
LWPOLYLINE
  5
112
330
17
100
AcDbEntity
  8
0
100
AcDbPolyline
 90
6
 70
1
 10
197.989
 20
-98.406
 10
201.02
 20
-99.222
 10
201.02
 20
-99.591
 10
199.505
 20
-100.466
 10
197.989
 20
-99.591
 10
197.989
 20
-98.406
  0
LWPOLYLINE
  5
113
330
17
100
AcDbEntity
  8
0
100
AcDbPolyline
 90
6
 70
1
 10
201.02
 20
-97.922
 10
199.456
 20
-97.5
 10
198.859
 20
-97.339
 10
199.505
 20
-96.966
 10
201.02
 20
-97.841
 10
201.02
 20
-97.922
  0
LWPOLYLINE
  5
114
330
17
100
AcDbEntity
  8
0
100
AcDbPolyline
 90
6
 70
1
 10
201.52
 20
-99.356
 10
202.773
 20
-99.692
 10
203.867
 20
-99.986
 10
203.036
 20
-100.466
 10
201.52
 20
-99.591
 10
201.52
 20
-99.356
  0
LWPOLYLINE
  5
115
330
17
100
AcDbEntity
  8
0
100
AcDbPolyline
 90
6
 70
1
 10
204.551
 20
-98.874
 10
201.52
 20
-98.057
 10
201.52
 20
-97.841
 10
203.036
 20
-96.966
 10
204.551
 20
-97.841
 10
204.551
 20
-98.874
  0
LWPOLYLINE
  5
116
330
17
100
AcDbEntity
  8
0
100
AcDbPolyline
 90
11
 70
1
 10
208.082
 20
-99.361
 10
207.847
 20
-99.48
 10
207.606
 20
-99.55
 10
207.353
 20
-99.576
 10
207.159
 20
-99.564
 10
206.965
 20
-99.525
 10
205.051
 20
-99.009
 10
205.051
 20
-97.841
 10
206.567
 20
-96.966
 10
208.082
 20
-97.841
 10
208.082
 20
-99.361
  0
LWPOLYLINE
  5
117
330
17
100
AcDbEntity
  8
0
100
AcDbPolyline
 90
5
 70
1
 10
211.309
 20
-99.767
 10
211.479
 20
-99.556
 10
211.613
 20
-99.428
 10
211.613
 20
-99.591
 10
211.309
 20
-99.767
  0
LWPOLYLINE
  5
118
330
17
100
AcDbEntity
  8
0
100
AcDbPolyline
 90
7
 70
1
 10
209.404
 20
-97.367
 10
209.145
 20
-97.712
 10
208.927
 20
-98.065
 10
208.773
 20
-98.367
 10
208.582
 20
-98.817
 10
208.582
 20
-97.841
 10
209.404
 20
-97.367
  0
LWPOLYLINE
  5
119
330
17
100
AcDbEntity
  8
0
100
AcDbPolyline
 90
12
 70
1
 10
213.999
 20
-99.387
 10
214.621
 20
-99.893
 10
213.629
 20
-100.466
 10
212.113
 20
-99.591
 10
212.113
 20
-99.118
 10
212.344
 20
-99.038
 10
212.678
 20
-98.978
 10
213.019
 20
-98.98
 10
213.246
 20
-99.017
 10
213.58
 20
-99.129
 10
213.794
 20
-99.242
 10
213.999
 20
-99.387
  0
LWPOLYLINE
  5
11A
330
17
100
AcDbEntity
  8
0
100
AcDbPolyline
 90
9
 70
1
 10
184.521
 20
-96.885
 10
184.71
 20
-95.644
 10
184.75
 20
-95.484
 10
184.818
 20
-95.344
 10
184.911
 20
-95.225
 10
185.025
 20
-95.131
 10
185.13
 20
-95.074
 10
185.13
 20
-96.533
 10
184.521
 20
-96.885
  0
LWPOLYLINE
  5
11B
330
17
100
AcDbEntity
  8
0
100
AcDbPolyline
 90
6
 70
1
 10
185.63
 20
-95.047
 10
188.661
 20
-95.879
 10
188.661
 20
-96.533
 10
187.146
 20
-97.408
 10
185.63
 20
-96.533
 10
185.63
 20
-95.047
  0
LWPOLYLINE
  5
11C
330
17
100
AcDbEntity
  8
0
100
AcDbPolyline
 90
6
 70
1
 10
189.161
 20
-96.016
 10
190.269
 20
-96.318
 10
191.831
 20
-96.742
 10
190.677
 20
-97.408
 10
189.161
 20
-96.533
 10
189.161
 20
-96.016
  0
LWPOLYLINE
  5
11D
330
17
100
AcDbEntity
  8
0
100
AcDbPolyline
 90
12
 70
1
 10
192.192
 20
-95.552
 10
191.771
 20
-95.428
 10
191.402
 20
-95.284
 10
191.135
 20
-95.139
 10
190.903
 20
-94.961
 10
190.76
 20
-94.802
 10
190.625
 20
-94.567
 10
190.549
 20
-94.308
 10
190.512
 20
-94.003
 10
190.677
 20
-93.908
 10
192.192
 20
-94.783
 10
192.192
 20
-95.552
  0
LWPOLYLINE
  5
11E
330
17
100
AcDbEntity
  8
0
100
AcDbPolyline
 90
4
 70
1
 10
194.234
 20
-97.393
 10
194.208
 20
-97.408
 10
194.135
 20
-97.366
 10
194.234
 20
-97.393
  0
LWPOLYLINE
  5
11F
330
17
100
AcDbEntity
  8
0
100
AcDbPolyline
 90
6
 70
1
 10
195.723
 20
-96.494
 10
192.692
 20
-95.678
 10
192.692
 20
-94.783
 10
194.208
 20
-93.908
 10
195.723
 20
-94.783
 10
195.723
 20
-96.494
  0
LWPOLYLINE
  5
120
330
17
100
AcDbEntity
  8
0
100
AcDbPolyline
 90
8
 70
1
 10
198.177
 20
-97.155
 10
196.533
 20
-96.712
 10
196.223
 20
-96.533
 10
196.223
 20
-94.783
 10
197.739
 20
-93.908
 10
199.255
 20
-94.783
 10
199.255
 20
-96.533
 10
198.177
 20
-97.155
  0
INSERT
  5
121
330
17
100
AcDbEntity
  8
0
100
AcDbBlockReference
  2
HEX
 10
201.27
 20
-95.658
 30
0.0
  0
INSERT
  5
123
330
17
100
AcDbEntity
  8
0
100
AcDbBlockReference
  2
HEX
 10
204.801
 20
-95.658
 30
0.0
  0
INSERT
  5
125
330
17
100
AcDbEntity
  8
0
100
AcDbBlockReference
  2
HEX
 10
208.332
 20
-95.658
 30
0.0
  0
LWPOLYLINE
  5
127
330
17
100
AcDbEntity
  8
0
100
AcDbPolyline
 90
13
 70
1
 10
213.379
 20
-96.129
 10
212.778
 20
-96.082
 10
212.406
 20
-96.073
 10
211.912
 20
-96.093
 10
211.548
 20
-96.134
 10
211.193
 20
-96.204
 10
210.851
 20
-96.305
 10
210.631
 20
-96.391
 10
210.348
 20
-96.533
 10
210.348
 20
-94.783
 10
211.863
 20
-93.908
 10
213.379
 20
-94.783
 10
213.379
 20
-96.129
  0
INSERT
  5
128
330
17
100
AcDbEntity
  8
0
100
AcDbBlockReference
  2
HEX
 10
192.442
 20
-92.6
 30
0.0
  0
INSERT
  5
12A
330
17
100
AcDbEntity
  8
0
100
AcDbBlockReference
  2
HEX
 10
195.973
 20
-92.6
 30
0.0
  0
INSERT
  5
12C
330
17
100
AcDbEntity
  8
0
100
AcDbBlockReference
  2
HEX
 10
199.505
 20
-92.6
 30
0.0
  0
INSERT
  5
12E
330
17
100
AcDbEntity
  8
0
100
AcDbBlockReference
  2
HEX
 10
203.036
 20
-92.6
 30
0.0
  0
INSERT
  5
130
330
17
100
AcDbEntity
  8
0
100
AcDbBlockReference
  2
HEX
 10
206.567
 20
-92.6
 30
0.0
  0
INSERT
  5
132
330
17
100
AcDbEntity
  8
0
100
AcDbBlockReference
  2
HEX
 10
210.098
 20
-92.6
 30
0.0
  0
LWPOLYLINE
  5
134
330
17
100
AcDbEntity
  8
0
100
AcDbPolyline
 90
9
 70
1
 10
214.093
 20
-91.118
 10
213.867
 20
-92.042
 10
213.78
 20
-92.499
 10
213.649
 20
-93.417
 10
213.581
 20
-94.323
 10
212.113
 20
-93.475
 10
212.113
 20
-91.725
 10
213.629
 20
-90.85
 10
214.093
 20
-91.118
  0
LWPOLYLINE
  5
135
330
17
100
AcDbEntity
  8
0
100
AcDbPolyline
 90
6
 70
1
 10
190.889
 20
-91.17
 10
191.139
 20
-89.76
 10
191.451
 20
-88.239
 10
192.192
 20
-88.667
 10
192.192
 20
-90.417
 10
190.889
 20
-91.17
  0
INSERT
  5
136
330
17
100
AcDbEntity
  8
0
100
AcDbBlockReference
  2
HEX
 10
194.208
 20
-89.542
 30
0.0
  0
INSERT
  5
138
330
17
100
AcDbEntity
  8
0
100
AcDbBlockReference
  2
HEX
 10
197.739
 20
-89.542
 30
0.0
  0
INSERT
  5
13A
330
17
100
AcDbEntity
  8
0
100
AcDbBlockReference
  2
HEX
 10
201.27
 20
-89.542
 30
0.0
  0
INSERT
  5
13C
330
17
100
AcDbEntity
  8
0
100
AcDbBlockReference
  2
HEX
 10
204.801
 20
-89.542
 30
0.0
  0
INSERT
  5
13E
330
17
100
AcDbEntity
  8
0
100
AcDbBlockReference
  2
HEX
 10
208.332
 20
-89.542
 30
0.0
  0
INSERT
  5
140
330
17
100
AcDbEntity
  8
0
100
AcDbBlockReference
  2
HEX
 10
211.863
 20
-89.542
 30
0.0
  0
LWPOLYLINE
  5
142
330
17
100
AcDbEntity
  8
0
100
AcDbPolyline
 90
9
 70
1
 10
215.459
 20
-87.829
 10
215.09
 20
-88.518
 10
214.701
 20
-89.368
 10
214.527
 20
-89.802
 10
214.24
 20
-90.626
 10
213.879
 20
-90.417
 10
213.879
 20
-88.667
 10
215.394
 20
-87.792
 10
215.459
 20
-87.829
  0
LWPOLYLINE
  5
143
330
17
100
AcDbEntity
  8
0
100
AcDbPolyline
 90
10
 70
1
 10
191.561
 20
-87.725
 10
191.785
 20
-86.777
 10
192.021
 20
-85.978
 10
192.25
 20
-85.383
 10
192.381
 20
-85.107
 10
192.554
 20
-84.799
 10
193.958
 20
-85.609
 10
193.958
 20
-87.359
 10
192.442
 20
-88.234
 10
191.561
 20
-87.725
  0
INSERT
  5
144
330
17
100
AcDbEntity
  8
0
100
AcDbBlockReference
  2
HEX
 10
195.973
 20
-86.484
 30
0.0
  0
INSERT
  5
146
330
17
100
AcDbEntity
  8
0
100
AcDbBlockReference
  2
HEX
 10
199.505
 20
-86.484
 30
0.0
  0
INSERT
  5
148
330
17
100
AcDbEntity
  8
0
100
AcDbBlockReference
  2
HEX
 10
203.036
 20
-86.484
 30
0.0
  0
INSERT
  5
14A
330
17
100
AcDbEntity
  8
0
100
AcDbBlockReference
  2
HEX
 10
206.567
 20
-86.484
 30
0.0
  0
INSERT
  5
14C
330
17
100
AcDbEntity
  8
0
100
AcDbBlockReference
  2
HEX
 10
210.098
 20
-86.484
 30
0.0
  0
INSERT
  5
14E
330
17
100
AcDbEntity
  8
0
100
AcDbBlockReference
  2
HEX
 10
213.629
 20
-86.484
 30
0.0
  0
LWPOLYLINE
  5
150
330
17
100
AcDbEntity
  8
0
100
AcDbPolyline
 90
9
 70
1
 10
217.613
 20
-84.996
 10
217.165
 20
-85.461
 10
216.572
 20
-86.164
 10
216.027
 20
-86.911
 10
215.713
 20
-87.399
 10
215.644
 20
-87.359
 10
215.644
 20
-85.609
 10
217.16
 20
-84.734
 10
217.613
 20
-84.996
  0
LWPOLYLINE
  5
151
330
17
100
AcDbEntity
  8
0
100
AcDbPolyline
 90
12
 70
1
 10
192.852
 20
-84.393
 10
193.129
 20
-84.128
 10
193.395
 20
-83.95
 10
193.664
 20
-83.815
 10
193.954
 20
-83.702
 10
194.263
 20
-83.609
 10
194.693
 20
-83.514
 10
195.134
 20
-83.446
 10
195.723
 20
-83.391
 10
195.723
 20
-84.301
 10
194.208
 20
-85.176
 10
192.852
 20
-84.393
  0
LWPOLYLINE
  5
152
330
17
100
AcDbEntity
  8
0
100
AcDbPolyline
 90
6
 70
1
 10
196.223
 20
-83.368
 10
199.255
 20
-83.346
 10
199.255
 20
-84.301
 10
197.739
 20
-85.176
 10
196.223
 20
-84.301
 10
196.223
 20
-83.368
  0
LWPOLYLINE
  5
153
330
17
100
AcDbEntity
  8
0
100
AcDbPolyline
 90
6
 70
1
 10
199.755
 20
-83.346
 10
202.786
 20
-83.353
 10
202.786
 20
-84.301
 10
201.27
 20
-85.176
 10
199.755
 20
-84.301
 10
199.755
 20
-83.346
  0
LWPOLYLINE
  5
154
330
17
100
AcDbEntity
  8
0
100
AcDbPolyline
 90
6
 70
1
 10
203.286
 20
-83.356
 10
206.317
 20
-83.379
 10
206.317
 20
-84.301
 10
204.801
 20
-85.176
 10
203.286
 20
-84.301
 10
203.286
 20
-83.356
  0
LWPOLYLINE
  5
155
330
17
100
AcDbEntity
  8
0
100
AcDbPolyline
 90
6
 70
1
 10
206.817
 20
-83.384
 10
209.848
 20
-83.411
 10
209.848
 20
-84.301
 10
208.332
 20
-85.176
 10
206.817
 20
-84.301
 10
206.817
 20
-83.384
  0
LWPOLYLINE
  5
156
330
17
100
AcDbEntity
  8
0
100
AcDbPolyline
 90
6
 70
1
 10
210.348
 20
-83.415
 10
213.379
 20
-83.437
 10
213.379
 20
-84.301
 10
211.863
 20
-85.176
 10
210.348
 20
-84.301
 10
210.348
 20
-83.415
  0
LWPOLYLINE
  5
157
330
17
100
AcDbEntity
  8
0
100
AcDbPolyline
 90
6
 70
1
 10
213.879
 20
-83.439
 10
216.91
 20
-83.443
 10
216.91
 20
-84.301
 10
215.394
 20
-85.176
 10
213.879
 20
-84.301
 10
213.879
 20
-83.439
  0
LWPOLYLINE
  5
158
330
17
100
AcDbEntity
  8
0
100
AcDbPolyline
 90
8
 70
1
 10
217.41
 20
-83.442
 10
218.884
 20
-83.433
 10
219.599
 20
-83.427
 10
218.849
 20
-83.933
 10
218.49
 20
-84.21
 10
217.992
 20
-84.638
 10
217.41
 20
-84.301
 10
217.41
 20
-83.442
  0
ENDSEC
  0
SECTION
  2
OBJECTS
  0
DICTIONARY
  5
A
330
0
100
AcDbDictionary
281
1
  3
ACAD_COLOR
350
B
  3
ACAD_GROUP
350
C
  3
ACAD_LAYOUT
350
D
  3
ACAD_MATERIAL
350
E
  3
ACAD_MLEADERSTYLE
350
F
  3
ACAD_MLINESTYLE
350
10
  3
ACAD_PLOTSETTINGS
350
11
  3
ACAD_PLOTSTYLENAME
350
12
  3
ACAD_SCALELIST
350
14
  3
ACAD_TABLESTYLE
350
15
  3
ACAD_VISUALSTYLE
350
16
  3
EZDXF_META
350
2D
  0
DICTIONARY
  5
B
330
A
100
AcDbDictionary
281
1
  0
DICTIONARY
  5
C
330
A
100
AcDbDictionary
281
1
  0
DICTIONARY
  5
D
330
A
100
AcDbDictionary
281
1
  3
Model
350
1A
  3
Layout1
350
1E
  0
DICTIONARY
  5
E
330
A
100
AcDbDictionary
281
1
  3
ByBlock
350
1F
  3
ByLayer
350
20
  3
Global
350
21
  0
DICTIONARY
  5
F
330
A
100
AcDbDictionary
281
1
  3
Standard
350
2C
  0
DICTIONARY
  5
10
330
A
100
AcDbDictionary
281
1
  3
Standard
350
22
  0
DICTIONARY
  5
11
330
A
100
AcDbDictionary
281
1
  0
ACDBDICTIONARYWDFLT
  5
12
330
A
100
AcDbDictionary
281
1
  3
Normal
350
13
100
AcDbDictionaryWithDefault
340
13
  0
ACDBPLACEHOLDER
  5
13
330
12
  0
DICTIONARY
  5
14
330
A
100
AcDbDictionary
281
1
  0
DICTIONARY
  5
15
330
A
100
AcDbDictionary
281
1
  0
DICTIONARY
  5
16
330
A
100
AcDbDictionary
281
1
  0
LAYOUT
  5
1A
330
D
100
AcDbPlotSettings
  1

  4
A3
  6

 40
7.5
 41
20.0
 42
7.5
 43
20.0
 44
420.0
 45
297.0
 46
0.0
 47
0.0
 48
0.0
 49
0.0
140
0.0
141
0.0
142
1.0
143
1.0
 70
1024
 72
1
 73
0
 74
5
  7

 75
16
 76
0
 77
2
 78
300
147
1.0
148
0.0
149
0.0
100
AcDbLayout
  1
Model
 70
1
 71
0
 10
0.0
 20
0.0
 11
420.0
 21
297.0
 12
0.0
 22
0.0
 32
0.0
 14
1e+20
 24
1e+20
 34
1e+20
 15
-1e+20
 25
-1e+20
 35
-1e+20
146
0.0
 13
0.0
 23
0.0
 33
0.0
 16
1.0
 26
0.0
 36
0.0
 17
0.0
 27
1.0
 37
0.0
 76
1
330
17
  0
LAYOUT
  5
1E
330
D
100
AcDbPlotSettings
  1

  4
A3
  6

 40
7.5
 41
20.0
 42
7.5
 43
20.0
 44
420.0
 45
297.0
 46
0.0
 47
0.0
 48
0.0
 49
0.0
140
0.0
141
0.0
142
1.0
143
1.0
 70
0
 72
1
 73
0
 74
5
  7

 75
16
 76
0
 77
2
 78
300
147
1.0
148
0.0
149
0.0
100
AcDbLayout
  1
Layout1
 70
1
 71
1
 10
0.0
 20
0.0
 11
420.0
 21
297.0
 12
0.0
 22
0.0
 32
0.0
 14
1e+20
 24
1e+20
 34
1e+20
 15
-1e+20
 25
-1e+20
 35
-1e+20
146
0.0
 13
0.0
 23
0.0
 33
0.0
 16
1.0
 26
0.0
 36
0.0
 17
0.0
 27
1.0
 37
0.0
 76
1
330
1B
  0
MATERIAL
  5
1F
102
{ACAD_REACTORS
330
E
102
}
330
E
100
AcDbMaterial
  1
ByBlock
  2

 70
0
 40
1.0
 71
1
 41
1.0
 91
-1023410177
 42
1.0
 72
1
  3

 73
1
 74
1
 75
1
 44
0.5
 73
0
 45
1.0
 46
1.0
 77
1
  4

 78
1
 79
1
170
1
 48
1.0
171
1
  6

172
1
173
1
174
1
140
1.0
141
1.0
175
1
  7

176
1
177
1
178
1
143
1.0
179
1
  8

270
1
271
1
272
1
145
1.0
146
1.0
273
1
  9

274
1
275
1
276
1
 42
1.0
 72
1
  3

 73
1
 74
1
 75
1
 94
63
  0
MATERIAL
  5
20
102
{ACAD_REACTORS
330
E
102
}
330
E
100
AcDbMaterial
  1
ByLayer
  2

 70
0
 40
1.0
 71
1
 41
1.0
 91
-1023410177
 42
1.0
 72
1
  3

 73
1
 74
1
 75
1
 44
0.5
 73
0
 45
1.0
 46
1.0
 77
1
  4

 78
1
 79
1
170
1
 48
1.0
171
1
  6

172
1
173
1
174
1
140
1.0
141
1.0
175
1
  7

176
1
177
1
178
1
143
1.0
179
1
  8

270
1
271
1
272
1
145
1.0
146
1.0
273
1
  9

274
1
275
1
276
1
 42
1.0
 72
1
  3

 73
1
 74
1
 75
1
 94
63
  0
MATERIAL
  5
21
102
{ACAD_REACTORS
330
E
102
}
330
E
100
AcDbMaterial
  1
Global
  2

 70
0
 40
1.0
 71
1
 41
1.0
 91
-1023410177
 42
1.0
 72
1
  3

 73
1
 74
1
 75
1
 44
0.5
 73
0
 45
1.0
 46
1.0
 77
1
  4

 78
1
 79
1
170
1
 48
1.0
171
1
  6

172
1
173
1
174
1
140
1.0
141
1.0
175
1
  7

176
1
177
1
178
1
143
1.0
179
1
  8

270
1
271
1
272
1
145
1.0
146
1.0
273
1
  9

274
1
275
1
276
1
 42
1.0
 72
1
  3

 73
1
 74
1
 75
1
 94
63
  0
MLINESTYLE
  5
22
102
{ACAD_REACTORS
330
10
102
}
330
10
100
AcDbMlineStyle
  2
Standard
 70
0
  3

 62
256
 51
90.0
 52
90.0
 71
2
 49
0.5
 62
256
  6
BYLAYER
 49
-0.5
 62
256
  6
BYLAYER
  0
MLEADERSTYLE
  5
2C
102
{ACAD_REACTORS
330
F
102
}
330
F
100
AcDbMLeaderStyle
179
2
170
2
171
1
172
0
 90
2
 40
0.0
 41
0.0
173
1
 91
-1056964608
 92
-2
290
1
 42
2.0
291
1
 43
8.0
  3
Standard
 44
4.0
300

342
29
174
1
175
1
176
0
178
1
 93
-1056964608
 45
4.0
292
0
297
0
 46
4.0
 94
-1056964608
 47
1.0
 49
1.0
140
1.0
294
1
141
0.0
177
0
142
1.0
295
0
296
0
143
3.75
271
0
272
9
273
9
  0
DICTIONARY
  5
2D
330
A
100
AcDbDictionary
280
1
281
1
  3
CREATED_BY_EZDXF
350
2E
  3
WRITTEN_BY_EZDXF
350
15B
  0
DICTIONARYVAR
  5
2E
330
2D
100
DictionaryVariables
280
0
  1
1.4.3 @ 2026-04-09T21:37:21.883560+00:00
  0
DICTIONARYVAR
  5
15B
330
2D
100
DictionaryVariables
280
0
  1
1.4.3 @ 2026-04-09T21:37:21.897757+00:00
  0
ENDSEC
  0
EOF
