  0
SECTION
  2
HEADER
  9
$ACADVER
  1
AC1024
  9
$ACADMAINTVER
 70
6
  9
$DWGCODEPAGE
  3
ANSI_1252
  9
$LASTSAVEDBY
  1
ezdxf
  9
$INSBASE
 10
0.0
 20
0.0
 30
0.0
  9
$EXTMIN
 10
1e+20
 20
1e+20
 30
1e+20
  9
$EXTMAX
 10
-1e+20
 20
-1e+20
 30
-1e+20
  9
$LIMMIN
 10
0.0
 20
0.0
  9
$LIMMAX
 10
420.0
 20
297.0
  9
$ORTHOMODE
 70
0
  9
$REGENMODE
 70
1
  9
$FILLMODE
 70
1
  9
$QTEXTMODE
 70
0
  9
$MIRRTEXT
 70
1
  9
$LTSCALE
 40
1.0
  9
$ATTMODE
 70
1
  9
$TEXTSIZE
 40
2.5
  9
$TRACEWID
 40
1.0
  9
$TEXTSTYLE
  7
Standard
  9
$CLAYER
  8
0
  9
$CELTYPE
  6
ByLayer
  9
$CECOLOR
 62
256
  9
$CELTSCALE
 40
1.0
  9
$DISPSILH
 70
0
  9
$DIMSCALE
 40
1.0
  9
$DIMASZ
 40
2.5
  9
$DIMEXO
 40
0.625
  9
$DIMDLI
 40
3.75
  9
$DIMRND
 40
0.0
  9
$DIMDLE
 40
0.0
  9
$DIMEXE
 40
1.25
  9
$DIMTP
 40
0.0
  9
$DIMTM
 40
0.0
  9
$DIMTXT
 40
2.5
  9
$DIMCEN
 40
2.5
  9
$DIMTSZ
 40
0.0
  9
$DIMTOL
 70
0
  9
$DIMLIM
 70
0
  9
$DIMTIH
 70
0
  9
$DIMTOH
 70
0
  9
$DIMSE1
 70
0
  9
$DIMSE2
 70
0
  9
$DIMTAD
 70
1
  9
$DIMZIN
 70
8
  9
$DIMBLK
  1

  9
$DIMASO
 70
1
  9
$DIMSHO
 70
1
  9
$DIMPOST
  1

  9
$DIMAPOST
  1

  9
$DIMALT
 70
0
  9
$DIMALTD
 70
3
  9
$DIMALTF
 40
0.03937007874
  9
$DIMLFAC
 40
1.0
  9
$DIMTOFL
 70
1
  9
$DIMTVP
 40
0.0
  9
$DIMTIX
 70
0
  9
$DIMSOXD
 70
0
  9
$DIMSAH
 70
0
  9
$DIMBLK1
  1

  9
$DIMBLK2
  1

  9
$DIMSTYLE
  2
ISO-25
  9
$DIMCLRD
 70
0
  9
$DIMCLRE
 70
0
  9
$DIMCLRT
 70
0
  9
$DIMTFAC
 40
1.0
  9
$DIMGAP
 40
0.625
  9
$DIMJUST
 70
0
  9
$DIMSD1
 70
0
  9
$DIMSD2
 70
0
  9
$DIMTOLJ
 70
0
  9
$DIMTZIN
 70
8
  9
$DIMALTZ
 70
0
  9
$DIMALTTZ
 70
0
  9
$DIMUPT
 70
0
  9
$DIMDEC
 70
2
  9
$DIMTDEC
 70
2
  9
$DIMALTU
 70
2
  9
$DIMALTTD
 70
3
  9
$DIMTXSTY
  7
Standard
  9
$DIMAUNIT
 70
0
  9
$DIMADEC
 70
0
  9
$DIMALTRND
 40
0.0
  9
$DIMAZIN
 70
0
  9
$DIMDSEP
 70
44
  9
$DIMATFIT
 70
3
  9
$DIMFRAC
 70
0
  9
$DIMLDRBLK
  1

  9
$DIMLUNIT
 70
2
  9
$DIMLWD
 70
-2
  9
$DIMLWE
 70
-2
  9
$DIMTMOVE
 70
0
  9
$DIMFXL
 40
1.0
  9
$DIMFXLON
 70
0
  9
$DIMJOGANG
 40
0.785398163397
  9
$DIMTFILL
 70
0
  9
$DIMTFILLCLR
 70
0
  9
$DIMARCSYM
 70
0
  9
$DIMLTYPE
  6

  9
$DIMLTEX1
  6

  9
$DIMLTEX2
  6

  9
$DIMTXTDIRECTION
 70
0
  9
$LUNITS
 70
2
  9
$LUPREC
 70
4
  9
$SKETCHINC
 40
1.0
  9
$FILLETRAD
 40
10.0
  9
$AUNITS
 70
0
  9
$AUPREC
 70
2
  9
$MENU
  1
.
  9
$ELEVATION
 40
0.0
  9
$PELEVATION
 40
0.0
  9
$THICKNESS
 40
0.0
  9
$LIMCHECK
 70
0
  9
$CHAMFERA
 40
0.0
  9
$CHAMFERB
 40
0.0
  9
$CHAMFERC
 40
0.0
  9
$CHAMFERD
 40
0.0
  9
$SKPOLY
 70
0
  9
$TDCREATE
 40
2461142.7371412036
  9
$TDUCREATE
 40
2458532.153996898
  9
$TDUPDATE
 40
2461142.7371412036
  9
$TDUUPDATE
 40
2458532.1544311
  9
$TDINDWG
 40
0.0
  9
$TDUSRTIMER
 40
0.0
  9
$USRTIMER
 70
1
  9
$ANGBASE
 50
0.0
  9
$ANGDIR
 70
0
  9
$PDMODE
 70
0
  9
$PDSIZE
 40
0.0
  9
$PLINEWID
 40
0.0
  9
$SPLFRAME
 70
0
  9
$SPLINETYPE
 70
6
  9
$SPLINESEGS
 70
8
  9
$HANDSEED
  5
37
  9
$SURFTAB1
 70
6
  9
$SURFTAB2
 70
6
  9
$SURFTYPE
 70
6
  9
$SURFU
 70
6
  9
$SURFV
 70
6
  9
$UCSBASE
  2

  9
$UCSNAME
  2

  9
$UCSORG
 10
0.0
 20
0.0
 30
0.0
  9
$UCSXDIR
 10
1.0
 20
0.0
 30
0.0
  9
$UCSYDIR
 10
0.0
 20
1.0
 30
0.0
  9
$UCSORTHOREF
  2

  9
$UCSORTHOVIEW
 70
0
  9
$UCSORGTOP
 10
0.0
 20
0.0
 30
0.0
  9
$UCSORGBOTTOM
 10
0.0
 20
0.0
 30
0.0
  9
$UCSORGLEFT
 10
0.0
 20
0.0
 30
0.0
  9
$UCSORGRIGHT
 10
0.0
 20
0.0
 30
0.0
  9
$UCSORGFRONT
 10
0.0
 20
0.0
 30
0.0
  9
$UCSORGBACK
 10
0.0
 20
0.0
 30
0.0
  9
$PUCSBASE
  2

  9
$PUCSNAME
  2

  9
$PUCSORG
 10
0.0
 20
0.0
 30
0.0
  9
$PUCSXDIR
 10
1.0
 20
0.0
 30
0.0
  9
$PUCSYDIR
 10
0.0
 20
1.0
 30
0.0
  9
$PUCSORTHOREF
  2

  9
$PUCSORTHOVIEW
 70
0
  9
$PUCSORGTOP
 10
0.0
 20
0.0
 30
0.0
  9
$PUCSORGBOTTOM
 10
0.0
 20
0.0
 30
0.0
  9
$PUCSORGLEFT
 10
0.0
 20
0.0
 30
0.0
  9
$PUCSORGRIGHT
 10
0.0
 20
0.0
 30
0.0
  9
$PUCSORGFRONT
 10
0.0
 20
0.0
 30
0.0
  9
$PUCSORGBACK
 10
0.0
 20
0.0
 30
0.0
  9
$USERI1
 70
0
  9
$USERI2
 70
0
  9
$USERI3
 70
0
  9
$USERI4
 70
0
  9
$USERI5
 70
0
  9
$USERR1
 40
0.0
  9
$USERR2
 40
0.0
  9
$USERR3
 40
0.0
  9
$USERR4
 40
0.0
  9
$USERR5
 40
0.0
  9
$WORLDVIEW
 70
1
  9
$SHADEDGE
 70
3
  9
$SHADEDIF
 70
70
  9
$TILEMODE
 70
1
  9
$MAXACTVP
 70
64
  9
$PINSBASE
 10
0.0
 20
0.0
 30
0.0
  9
$PLIMCHECK
 70
0
  9
$PEXTMIN
 10
1e+20
 20
1e+20
 30
1e+20
  9
$PEXTMAX
 10
-1e+20
 20
-1e+20
 30
-1e+20
  9
$PLIMMIN
 10
0.0
 20
0.0
  9
$PLIMMAX
 10
420.0
 20
297.0
  9
$UNITMODE
 70
0
  9
$VISRETAIN
 70
1
  9
$PLINEGEN
 70
0
  9
$PSLTSCALE
 70
1
  9
$TREEDEPTH
 70
3020
  9
$CMLSTYLE
  2
Standard
  9
$CMLJUST
 70
0
  9
$CMLSCALE
 40
20.0
  9
$PROXYGRAPHICS
 70
1
  9
$MEASUREMENT
 70
1
  9
$CELWEIGHT
370
-1
  9
$ENDCAPS
280
0
  9
$JOINSTYLE
280
0
  9
$LWDISPLAY
290
0
  9
$INSUNITS
 70
4
  9
$HYPERLINKBASE
  1

  9
$STYLESHEET
  1

  9
$XEDIT
290
1
  9
$CEPSNTYPE
380
0
  9
$PSTYLEMODE
290
1
  9
$FINGERPRINTGUID
  2
{3154DDF4-2B60-4059-BF24-647AFD7EA227}
  9
$VERSIONGUID
  2
{C24323B6-D9AE-4F1F-9AA8-3D7C0FAAEF61}
  9
$EXTNAMES
290
1
  9
$PSVPSCALE
 40
0.0
  9
$OLESTARTUP
290
0
  9
$SORTENTS
280
127
  9
$INDEXCTL
280
0
  9
$HIDETEXT
280
1
  9
$XCLIPFRAME
280
1
  9
$HALOGAP
280
0
  9
$OBSCOLOR
 70
257
  9
$OBSLTYPE
280
0
  9
$INTERSECTIONDISPLAY
280
0
  9
$INTERSECTIONCOLOR
 70
257
  9
$DIMASSOC
280
2
  9
$PROJECTNAME
  1

  9
$CAMERADISPLAY
290
0
  9
$LENSLENGTH
 40
50.0
  9
$CAMERAHEIGHT
 40
0.0
  9
$STEPSPERSEC
 40
24.0
  9
$STEPSIZE
 40
100.0
  9
$3DDWFPREC
 40
2.0
  9
$PSOLWIDTH
 40
0.005
  9
$PSOLHEIGHT
 40
0.08
  9
$LOFTANG1
 40
1.570796326795
  9
$LOFTANG2
 40
1.570796326795
  9
$LOFTMAG1
 40
0.0
  9
$LOFTMAG2
 40
0.0
  9
$LOFTPARAM
 70
7
  9
$LOFTNORMALS
280
1
  9
$LATITUDE
 40
37.795
  9
$LONGITUDE
 40
-122.394
  9
$NORTHDIRECTION
 40
0.0
  9
$TIMEZONE
 70
-8000
  9
$LIGHTGLYPHDISPLAY
280
1
  9
$TILEMODELIGHTSYNCH
280
1
  9
$CMATERIAL
347
20
  9
$SOLIDHIST
280
0
  9
$SHOWHIST
280
1
  9
$DWFFRAME
280
2
  9
$DGNFRAME
280
2
  9
$REALWORLDSCALE
290
1
  9
$INTERFERECOLOR
 62
256
  9
$CSHADOW
280
0
  9
$SHADOWPLANELOCATION
 40
0.0
  0
ENDSEC
  0
SECTION
  2
CLASSES
  0
CLASS
  1
ACDBDICTIONARYWDFLT
  2
AcDbDictionaryWithDefault
  3
ObjectDBX Classes
 90
0
 91
0
280
0
281
0
  0
CLASS
  1
SUN
  2
AcDbSun
  3
SCENEOE
 90
1153
 91
0
280
0
281
0
  0
CLASS
  1
VISUALSTYLE
  2
AcDbVisualStyle
  3
ObjectDBX Classes
 90
4095
 91
0
280
0
281
0
  0
CLASS
  1
MATERIAL
  2
AcDbMaterial
  3
ObjectDBX Classes
 90
1153
 91
0
280
0
281
0
  0
CLASS
  1
SCALE
  2
AcDbScale
  3
ObjectDBX Classes
 90
1153
 91
0
280
0
281
0
  0
CLASS
  1
TABLESTYLE
  2
AcDbTableStyle
  3
ObjectDBX Classes
 90
4095
 91
0
280
0
281
0
  0
CLASS
  1
MLEADERSTYLE
  2
AcDbMLeaderStyle
  3
ACDB_MLEADERSTYLE_CLASS
 90
4095
 91
0
280
0
281
0
  0
CLASS
  1
DICTIONARYVAR
  2
AcDbDictionaryVar
  3
ObjectDBX Classes
 90
0
 91
0
280
0
281
0
  0
CLASS
  1
CELLSTYLEMAP
  2
AcDbCellStyleMap
  3
ObjectDBX Classes
 90
1152
 91
0
280
0
281
0
  0
CLASS
  1
MENTALRAYRENDERSETTINGS
  2
AcDbMentalRayRenderSettings
  3
SCENEOE
 90
1024
 91
0
280
0
281
0
  0
CLASS
  1
ACDBDETAILVIEWSTYLE
  2
AcDbDetailViewStyle
  3
ObjectDBX Classes
 90
1025
 91
0
280
0
281
0
  0
CLASS
  1
ACDBSECTIONVIEWSTYLE
  2
AcDbSectionViewStyle
  3
ObjectDBX Classes
 90
1025
 91
0
280
0
281
0
  0
CLASS
  1
RASTERVARIABLES
  2
AcDbRasterVariables
  3
ISM
 90
0
 91
0
280
0
281
0
  0
CLASS
  1
ACDBPLACEHOLDER
  2
AcDbPlaceHolder
  3
ObjectDBX Classes
 90
0
 91
0
280
0
281
0
  0
CLASS
  1
LAYOUT
  2
AcDbLayout
  3
ObjectDBX Classes
 90
0
 91
0
280
0
281
0
  0
ENDSEC
  0
SECTION
  2
TABLES
  0
TABLE
  2
VPORT
  5
8
330
0
100
AcDbSymbolTable
 70
1
  0
VPORT
  5
23
330
8
100
AcDbSymbolTableRecord
100
AcDbViewportTableRecord
  2
*Active
 70
0
 10
0.0
 20
0.0
 11
1.0
 21
1.0
 12
0.0
 22
0.0
 13
0.0
 23
0.0
 14
0.5
 24
0.5
 15
0.5
 25
0.5
 16
0.0
 26
0.0
 36
1.0
 17
0.0
 27
0.0
 37
0.0
 40
1000.0
 41
1.34
 42
50.0
 43
0.0
 44
0.0
 50
0.0
 51
0.0
 71
0
 72
1000
 73
1
 74
3
 75
0
 76
0
 77
0
 78
0
281
0
 65
0
146
0.0
  0
ENDTAB
  0
TABLE
  2
LTYPE
  5
2
330
0
100
AcDbSymbolTable
 70
3
  0
LTYPE
  5
24
330
2
100
AcDbSymbolTableRecord
100
AcDbLinetypeTableRecord
  2
ByBlock
 70
0
  3

 72
65
 73
0
 40
0.0
  0
LTYPE
  5
25
330
2
100
AcDbSymbolTableRecord
100
AcDbLinetypeTableRecord
  2
ByLayer
 70
0
  3

 72
65
 73
0
 40
0.0
  0
LTYPE
  5
26
330
2
100
AcDbSymbolTableRecord
100
AcDbLinetypeTableRecord
  2
Continuous
 70
0
  3

 72
65
 73
0
 40
0.0
  0
ENDTAB
  0
TABLE
  2
LAYER
  5
1
330
0
100
AcDbSymbolTable
 70
2
  0
LAYER
  5
27
330
1
100
AcDbSymbolTableRecord
100
AcDbLayerTableRecord
  2
0
 70
0
 62
7
  6
Continuous
370
-3
390
13
347
21
  0
LAYER
  5
28
330
1
100
AcDbSymbolTableRecord
100
AcDbLayerTableRecord
  2
Defpoints
 70
0
 62
7
  6
Continuous
290
0
370
-3
390
13
347
21
  0
ENDTAB
  0
TABLE
  2
STYLE
  5
5
330
0
100
AcDbSymbolTable
 70
1
  0
STYLE
  5
29
330
5
100
AcDbSymbolTableRecord
100
AcDbTextStyleTableRecord
  2
Standard
 70
0
 40
0.0
 41
1.0
 50
0.0
 71
0
 42
2.5
  3
txt
  4

  0
ENDTAB
  0
TABLE
  2
VIEW
  5
7
330
0
100
AcDbSymbolTable
 70
0
  0
ENDTAB
  0
TABLE
  2
UCS
  5
6
330
0
100
AcDbSymbolTable
 70
0
  0
ENDTAB
  0
TABLE
  2
APPID
  5
3
330
0
100
AcDbSymbolTable
 70
3
  0
APPID
  5
2A
330
3
100
AcDbSymbolTableRecord
100
AcDbRegAppTableRecord
  2
ACAD
 70
0
  0
APPID
  5
34
330
3
100
AcDbSymbolTableRecord
100
AcDbRegAppTableRecord
  2
HATCHBACKGROUNDCOLOR
 70
0
  0
APPID
  5
35
330
3
100
AcDbSymbolTableRecord
100
AcDbRegAppTableRecord
  2
EZDXF
 70
0
  0
ENDTAB
  0
TABLE
  2
DIMSTYLE
  5
4
330
0
100
AcDbSymbolTable
 70
1
100
AcDbDimStyleTable
  0
DIMSTYLE
105
2B
330
4
100
AcDbSymbolTableRecord
100
AcDbDimStyleTableRecord
  2
Standard
 70
0
 40
1.0
 41
2.5
 42
0.625
 43
3.75
 44
1.25
 45
0.0
 46
0.0
 47
0.0
 48
0.0
 49
2.5
140
2.5
141
2.5
142
0.0
143
0.03937007874
144
1.0
145
0.0
146
1.0
147
0.625
148
0.0
 69
0
 70
0
 71
0
 72
0
 73
0
 74
0
 75
0
 76
0
 77
1
 78
8
 79
3
170
0
171
3
172
1
173
0
174
0
175
0
176
0
177
0
178
0
179
2
271
2
272
2
273
2
274
3
275
0
276
0
277
2
278
44
279
0
280
0
281
0
282
0
283
0
284
8
285
0
286
0
288
0
289
3
290
0
371
-2
372
-2
  0
ENDTAB
  0
TABLE
  2
BLOCK_RECORD
  5
9
330
0
100
AcDbSymbolTable
 70
2
  0
BLOCK_RECORD
  5
17
330
9
100
AcDbSymbolTableRecord
100
AcDbBlockTableRecord
  2
*Model_Space
340
1A
 70
0
280
1
281
0
  0
BLOCK_RECORD
  5
1B
330
9
100
AcDbSymbolTableRecord
100
AcDbBlockTableRecord
  2
*Paper_Space
340
1E
 70
0
280
1
281
0
  0
ENDTAB
  0
ENDSEC
  0
SECTION
  2
BLOCKS
  0
BLOCK
  5
18
330
17
100
AcDbEntity
  8
0
100
AcDbBlockBegin
  2
*Model_Space
 70
0
 10
0.0
 20
0.0
 30
0.0
  3
*Model_Space
  1

  0
ENDBLK
  5
19
330
17
100
AcDbEntity
  8
0
100
AcDbBlockEnd
  0
BLOCK
  5
1C
330
1B
100
AcDbEntity
  8
0
100
AcDbBlockBegin
  2
*Paper_Space
 70
0
 10
0.0
 20
0.0
 30
0.0
  3
*Paper_Space
  1

  0
ENDBLK
  5
1D
330
1B
100
AcDbEntity
  8
0
100
AcDbBlockEnd
  0
ENDSEC
  0
SECTION
  2
ENTITIES
  0
LWPOLYLINE
  5
2F
330
17
100
AcDbEntity
  8
0
100
AcDbPolyline
 90
36
 70
1
 10
139.07058800000001
 20
-201.993246
 10
116.362226
 20
-202.173078
 10
115.76202400000001
 20
-205.409292
 10
114.99469
 20
-207.75803
 10
114.33378200000001
 20
-209.189066
 10
114.052604
 20
-209.67268199999998
 10
138.443716
 20
-209.19947999999997
 10
138.60170399999998
 20
-209.17433399999996
 10
138.75486599999996
 20
-209.13521799999995
 10
138.90218599999997
 20
-209.08263999999997
 10
139.04315599999998
 20
-209.017362
 10
139.17701399999999
 20
-208.940146
 10
139.30299799999997
 20
-208.851754
 10
139.42059999999998
 20
-208.752694
 10
139.52905799999996
 20
-208.64347400000003
 10
139.62735599999996
 20
-208.52485600000003
 10
139.71498599999995
 20
-208.39760200000003
 10
139.79143999999997
 20
-208.26222
 10
139.85570199999998
 20
-208.11947200000003
 10
139.90726399999997
 20
-207.97012000000004
 10
139.94510999999997
 20
-207.81467200000003
 10
140.397992
 20
-203.28128000000004
 10
140.38910199999998
 20
-203.14031000000006
 10
140.36548
 20
-203.00365800000006
 10
140.327888
 20
-202.87208600000005
 10
140.277088
 20
-202.74635600000005
 10
140.21384199999997
 20
-202.62723000000003
 10
140.13891199999998
 20
-202.51572400000003
 10
140.05306
 20
-202.41260000000005
 10
139.957302
 20
-202.31887400000005
 10
139.852146
 20
-202.23530800000006
 10
139.738608
 20
-202.16266400000006
 10
139.61719600000004
 20
-202.10170400000007
 10
139.48892600000002
 20
-202.05344400000007
 10
139.35456000000002
 20
-202.01864600000007
 10
139.21486000000004
 20
-201.99832600000005
  0
LWPOLYLINE
  5
30
330
17
100
AcDbEntity
  8
0
100
AcDbPolyline
 90
18
 70
1
 10
30.374590000000037
 20
-199.05218000000008
 10
30.12211400000004
 20
-182.2975780000001
 10
24.36545800000004
 20
-182.35295000000008
 10
24.186134000000038
 20
-182.38190600000007
 10
24.01316000000004
 20
-182.42813400000009
 10
23.84755200000004
 20
-182.49036400000008
 10
23.690326000000038
 20
-182.5680880000001
 10
23.54224400000004
 20
-182.6600360000001
 10
23.404068000000038
 20
-182.76544600000008
 10
23.27706800000004
 20
-182.88355600000008
 10
23.16175200000004
 20
-183.01309600000008
 10
23.05939000000004
 20
-183.1535580000001
 10
22.97049000000004
 20
-183.3036720000001
 10
22.89632200000004
 20
-183.46267600000007
 10
22.83764800000004
 20
-183.6295540000001
 10
22.795230000000043
 20
-183.8032900000001
 10
22.77033800000004
 20
-183.98312200000007
 10
22.97201400000004
 20
-199.08393000000007
  0
LWPOLYLINE
  5
31
330
17
100
AcDbEntity
  8
0
100
AcDbPolyline
 90
63
 70
1
 10
179.13045200000005
 20
-183.9534040000001
 10
179.11749800000004
 20
-183.76569800000007
 10
179.08651000000003
 20
-183.58383400000008
 10
179.03825000000003
 20
-183.40857400000007
 10
178.97373400000004
 20
-183.24068000000008
 10
178.89397800000003
 20
-183.08116800000008
 10
178.79974400000003
 20
-182.93080000000006
 10
178.69204800000006
 20
-182.79059200000006
 10
178.57190600000007
 20
-182.66130600000005
 10
178.44008000000005
 20
-182.54395800000006
 10
178.29733200000004
 20
-182.43956400000008
 10
178.14493200000004
 20
-182.34888600000008
 10
177.98364200000006
 20
-182.2726860000001
 10
177.81422400000005
 20
-182.2119800000001
 10
177.63769400000004
 20
-182.1677840000001
 10
177.455068
 20
-182.1408600000001
 10
117.84355400000001
 20
-182.3450760000001
 10
117.82069400000002
 20
-183.4001920000001
 10
117.70842600000002
 20
-184.3659000000001
 10
117.51919600000001
 20
-185.2452480000001
 10
117.26545
 20
-186.0410300000001
 10
116.959888
 20
-186.7562940000001
 10
116.614956
 20
-187.3938340000001
 10
116.24335400000001
 20
-187.9566980000001
 10
115.857528
 20
-188.4476800000001
 10
115.470178
 20
-188.86982800000013
 10
114.74069
 20
-189.51956000000013
 10
114.15522
 20
-189.92951600000012
 10
113.767108
 20
-190.14643200000015
 10
96.15805
 20
-190.12712800000014
 10
95.927672
 20
-190.10249000000013
 10
95.70085000000002
 20
-190.05956400000014
 10
95.47860000000001
 20
-189.99885800000013
 10
95.26168400000002
 20
-189.92062600000014
 10
95.05162600000001
 20
-189.82512200000014
 10
92.92005800000001
 20
-188.50991000000013
 10
76.129388
 20
-188.63081400000013
 10
76.03998000000001
 20
-188.61963800000015
 10
75.95184200000003
 20
-188.60211200000015
 10
75.86522800000002
 20
-188.57849000000016
 10
75.78064600000002
 20
-188.54877200000018
 10
75.69835
 20
-188.51295800000017
 10
75.618594
 20
-188.4710480000002
 10
75.541886
 20
-188.4232960000002
 10
75.257406
 20
-188.2071420000002
 10
75.00670799999999
 20
-187.9655880000002
 10
74.78979199999999
 20
-187.7019360000002
 10
74.60716599999999
 20
-187.4194880000002
 10
74.45908399999999
 20
-187.1212920000002
 10
74.34579999999998
 20
-186.8106500000002
 10
74.26731399999997
 20
-186.49086400000022
 10
74.22413399999998
 20
-186.1652360000002
 10
74.21651399999998
 20
-185.8368140000002
 10
74.24445399999999
 20
-185.50890000000018
 10
74.30846199999999
 20
-185.18454200000016
 10
74.40879199999998
 20
-184.86704200000017
 10
74.54544399999999
 20
-184.55970200000016
 10
74.71892599999998
 20
-184.26582400000015
 10
74.92949199999998
 20
-183.98845600000016
 10
76.51623
 20
-182.49112600000015
 10
61.31255199999999
 20
-182.54522800000015
 10
61.31077399999999
 20
-199.18349800000016
 10
179.405534
 20
-198.08850400000014
  0
LWPOLYLINE
  5
32
330
17
100
AcDbEntity
  8
0
100
AcDbPolyline
 90
16
 70
1
 10
146.31771599999996
 20
-205.98917400000013
 10
175.95138799999998
 20
-205.62468400000017
 10
176.29250999999996
 20
-205.55483400000017
 10
176.61889999999994
 20
-205.44434400000017
 10
176.92700199999993
 20
-205.2952460000002
 10
177.21376799999996
 20
-205.11008000000018
 10
177.47564199999994
 20
-204.89113200000017
 10
177.70957599999994
 20
-204.64094200000017
 10
177.91201399999994
 20
-204.36154200000018
 10
178.00853399999994
 20
-204.1928860000002
 10
178.09032199999996
 20
-204.01686400000017
 10
178.16753799999995
 20
-203.80071000000018
 10
178.22367199999994
 20
-203.57795200000018
 10
178.26100999999997
 20
-203.3508760000002
 10
178.36489599999996
 20
-201.8070640000002
 10
146.27377399999997
 20
-202.1773960000002
  0
LWPOLYLINE
  5
33
330
17
100
AcDbEntity
  8
0
100
AcDbPolyline
 90
242
 70
1
 10
101.41584999999996
 20
-202.3414800000002
 10
83.45449399999997
 20
-202.50404000000017
 10
83.31936599999997
 20
-202.52004200000016
 10
83.18677799999998
 20
-202.54544200000018
 10
83.05723799999997
 20
-202.58024000000017
 10
82.93099999999997
 20
-202.62392800000018
 10
82.80857199999997
 20
-202.67625200000018
 10
82.69046199999997
 20
-202.7369580000002
 10
82.57692399999998
 20
-202.80579200000017
 10
82.46871999999998
 20
-202.88250000000016
 10
82.36610399999998
 20
-202.96682800000016
 10
82.26932999999998
 20
-203.05826800000017
 10
82.17890599999998
 20
-203.15682000000018
 10
82.09533999999998
 20
-203.26197600000017
 10
82.01913999999998
 20
-203.37348200000017
 10
81.95081399999998
 20
-203.49108400000017
 10
78.85582399999997
 20
-209.84667200000018
 10
78.78165599999998
 20
-209.96148000000017
 10
78.69961399999998
 20
-210.06993800000018
 10
78.61045999999999
 20
-210.17153800000017
 10
78.51444799999999
 20
-210.26602600000015
 10
78.41208599999999
 20
-210.35314800000015
 10
78.30388199999999
 20
-210.43265000000017
 10
78.19009
 20
-210.50402400000013
 10
78.07121799999999
 20
-210.56701600000017
 10
77.948028
 20
-210.62137200000018
 10
77.82051999999999
 20
-210.66683800000015
 10
77.68945599999998
 20
-210.70316000000017
 10
77.55534399999998
 20
-210.72983000000016
 10
77.41843799999998
 20
-210.7465940000002
 10
46.80381799999998
 20
-211.04758400000017
 10
46.67300799999998
 20
-211.03437600000015
 10
46.54473799999998
 20
-211.01177000000015
 10
46.41926199999998
 20
-210.98002000000014
 10
46.29683399999998
 20
-210.93963400000015
 10
46.17821599999998
 20
-210.89061200000015
 10
46.06366199999998
 20
-210.83320800000016
 10
45.95342599999998
 20
-210.76793000000018
 10
45.848269999999985
 20
-210.69503200000017
 10
45.74844799999998
 20
-210.61476800000014
 10
45.65446799999999
 20
-210.52739200000013
 10
45.566583999999985
 20
-210.43290400000015
 10
45.48555799999998
 20
-210.33206600000014
 10
45.41164399999999
 20
-210.22487800000013
 10
45.345095999999984
 20
-210.1115940000001
 10
42.279823999999984
 20
-203.8375400000001
 10
42.21175199999998
 20
-203.72120800000013
 10
42.13580599999998
 20
-203.61122600000013
 10
42.05249399999998
 20
-203.50759400000013
 10
41.96257799999998
 20
-203.41082000000011
 10
41.86605799999998
 20
-203.32090400000013
 10
41.76369599999998
 20
-203.2383540000001
 10
41.65574599999998
 20
-203.1634240000001
 10
41.54271599999998
 20
-203.09636800000013
 10
41.42511399999998
 20
-203.03744000000012
 10
41.303447999999975
 20
-202.98714800000013
 10
41.177971999999976
 20
-202.94549200000014
 10
41.04919399999998
 20
-202.91298000000012
 10
40.91762199999997
 20
-202.8896120000001
 10
40.78350999999998
 20
-202.87589600000013
 10
28.305505999999976
 20
-202.98511600000012
 10
28.256991999999975
 20
-202.9929900000001
 10
28.210763999999976
 20
-203.0051820000001
 10
28.166821999999975
 20
-203.0211840000001
 10
28.125165999999975
 20
-203.0409960000001
 10
28.086049999999975
 20
-203.0643640000001
 10
28.049473999999975
 20
-203.0907800000001
 10
28.015437999999975
 20
-203.1202440000001
 10
27.984195999999972
 20
-203.1522480000001
 10
27.955747999999975
 20
-203.1865380000001
 10
27.930093999999976
 20
-203.2228600000001
 10
27.907233999999974
 20
-203.2609600000001
 10
27.887167999999974
 20
-203.30058400000007
 10
27.870149999999978
 20
-203.34147800000005
 10
27.856179999999977
 20
-203.38338800000005
 10
27.845257999999973
 20
-203.42606000000006
 10
27.837637999999973
 20
-203.46898600000006
 10
27.833319999999976
 20
-203.51216600000004
 10
27.832303999999972
 20
-203.55509200000003
 10
27.834589999999974
 20
-203.59751000000006
 10
27.84043199999997
 20
-203.63916600000005
 10
27.849829999999976
 20
-203.67980600000004
 10
27.862783999999973
 20
-203.71917600000003
 10
27.879293999999973
 20
-203.75702200000003
 10
27.899613999999975
 20
-203.79309000000003
 10
27.923489999999973
 20
-203.82712600000005
 10
27.951429999999974
 20
-203.85862200000005
 10
27.983179999999972
 20
-203.88757800000005
 10
28.018993999999974
 20
-203.91348600000006
 10
28.058617999999974
 20
-203.93609200000006
 10
28.102559999999976
 20
-203.95539600000006
 10
30.401767999999972
 20
-204.70418800000007
 10
31.805117999999975
 20
-205.30616800000007
 10
33.12896599999997
 20
-205.99146000000007
 10
34.371787999999974
 20
-206.75422200000008
 10
35.53231399999997
 20
-207.58861200000007
 10
36.60901999999997
 20
-208.48878800000006
 10
37.60038199999997
 20
-209.44865400000006
 10
38.50512999999997
 20
-210.46236800000005
 10
39.32173999999997
 20
-211.52383400000005
 10
40.048941999999975
 20
-212.62746400000006
 10
40.68521199999997
 20
-213.76690800000006
 10
41.22902599999997
 20
-214.93657800000005
 10
41.67911399999997
 20
-216.13037800000006
 10
42.033951999999964
 20
-217.3424660000001
 10
42.29201599999996
 20
-218.5670000000001
 10
42.53687199999996
 20
-221.02318000000008
 10
42.50588399999996
 20
-223.46259600000008
 10
42.23562799999996
 20
-225.87940600000007
 10
41.757345999999956
 20
-228.26853000000008
 10
40.302433999999955
 20
-232.94390800000008
 10
24.538939999999954
 20
-264.8153200000001
 10
22.732237999999953
 20
-269.6730700000001
 10
22.13025799999995
 20
-272.0916580000001
 10
21.80234399999995
 20
-274.45690600000006
 10
21.764751999999955
 20
-275.3527640000001
 10
21.800311999999956
 20
-275.9461080000001
 10
21.896069999999952
 20
-276.48763600000007
 10
22.05151799999995
 20
-276.97988800000013
 10
22.15133999999995
 20
-277.20848800000016
 10
22.26589399999995
 20
-277.42565800000017
 10
22.39517999999995
 20
-277.63190600000013
 10
22.53894399999995
 20
-277.82748600000014
 10
22.697185999999952
 20
-278.0126520000001
 10
23.057103999999953
 20
-278.3532660000001
 10
23.47442599999995
 20
-278.6562880000001
 10
23.948389999999954
 20
-278.9245120000001
 10
24.47874199999995
 20
-279.16022400000014
 10
25.70606999999995
 20
-279.54528800000014
 10
27.15209199999995
 20
-279.8323080000002
 10
52.73776599999995
 20
-282.1612340000002
 10
53.01259399999994
 20
-282.1459940000002
 10
53.28259599999994
 20
-282.1099260000002
 10
53.54650199999994
 20
-282.0537920000002
 10
53.80354999999994
 20
-281.9781000000002
 10
54.05272399999994
 20
-281.8833580000002
 10
54.29326199999994
 20
-281.7705820000002
 10
54.523893999999935
 20
-281.64028000000025
 10
54.74385799999994
 20
-281.49321400000025
 10
54.95213799999994
 20
-281.33014600000024
 10
55.14797199999993
 20
-281.15158400000024
 10
55.33034399999993
 20
-280.95829000000026
 10
55.49823799999993
 20
-280.75102600000025
 10
55.65063799999993
 20
-280.5305540000002
 10
55.78652799999993
 20
-280.29738200000025
 10
59.53734599999993
 20
-271.0769280000003
 10
59.60236999999993
 20
-270.9651680000003
 10
59.67628399999993
 20
-270.85874200000023
 10
59.75857999999993
 20
-270.75815800000026
 10
59.84900399999993
 20
-270.6641780000003
 10
59.94730199999993
 20
-270.57705600000025
 10
60.05347399999993
 20
-270.49755400000026
 10
60.167011999999936
 20
-270.42643400000026
 10
61.26733999999993
 20
-269.8668720000002
 10
61.82817199999993
 20
-269.5239720000003
 10
62.06870999999993
 20
-269.3349960000003
 10
62.17488199999993
 20
-269.2351740000003
 10
62.269877999999935
 20
-269.1315420000003
 10
62.35268199999993
 20
-269.02384600000033
 10
62.45631399999993
 20
-268.8587460000003
 10
62.53962599999993
 20
-268.6916140000003
 10
62.60388799999993
 20
-268.5227040000003
 10
62.64986199999993
 20
-268.35201600000033
 10
62.67881799999993
 20
-268.1800580000004
 10
62.69177199999992
 20
-268.00708400000036
 10
62.68973999999992
 20
-267.83334800000034
 10
62.67373799999992
 20
-267.65910400000035
 10
62.604141999999925
 20
-267.31010800000035
 10
62.49136599999993
 20
-266.9623820000004
 10
62.10731799999993
 20
-266.1518680000004
 10
62.056771999999924
 20
-266.0213120000004
 10
62.01816399999993
 20
-265.88796200000036
 10
61.99200199999993
 20
-265.7525800000004
 10
61.978285999999926
 20
-265.6159280000004
 10
61.977269999999926
 20
-265.4785140000004
 10
61.98895399999993
 20
-265.34110000000044
 10
62.013337999999926
 20
-265.2047020000004
 10
65.18376599999992
 20
-255.1287760000004
 10
65.24548799999992
 20
-255.02463600000044
 10
65.31482999999993
 20
-254.92532200000045
 10
65.39153799999993
 20
-254.83108800000045
 10
65.47535799999993
 20
-254.74218800000045
 10
65.56603599999993
 20
-254.65938400000044
 10
65.66331799999993
 20
-254.58293000000043
 10
65.76720399999992
 20
-254.51358800000042
 10
66.71817999999993
 20
-253.99339600000042
 10
67.22363999999993
 20
-253.65379800000042
 10
67.44817599999993
 20
-253.46710800000042
 10
67.64883599999995
 20
-253.2659400000004
 10
67.82180999999994
 20
-253.04826200000042
 10
67.92747399999993
 20
-252.87960600000042
 10
68.01205599999994
 20
-252.70866400000043
 10
68.07657199999996
 20
-252.53569000000041
 10
68.12229199999996
 20
-252.36119200000041
 10
68.15023199999996
 20
-252.1854240000004
 10
68.16166199999996
 20
-252.0083860000004
 10
68.15759799999995
 20
-251.83058600000038
 10
68.13905599999995
 20
-251.6522780000004
 10
68.06336399999996
 20
-251.2956620000004
 10
67.94347599999996
 20
-250.94057000000038
 10
67.54494999999996
 20
-250.1209120000004
 10
67.49440399999996
 20
-249.9946740000004
 10
67.45528799999995
 20
-249.8656420000004
 10
67.42785599999996
 20
-249.7345780000004
 10
67.41210799999996
 20
-249.6019900000004
 10
67.40804399999995
 20
-249.4686400000004
 10
67.41591799999995
 20
-249.3352900000004
 10
67.43598399999995
 20
-249.2024480000004
 10
75.61579999999995
 20
-224.1199480000004
 10
76.26172199999996
 20
-222.52889200000038
 10
77.03819999999996
 20
-221.0274980000004
 10
77.97164999999997
 20
-219.6338000000004
 10
79.08797999999996
 20
-218.3653240000004
 10
79.72297999999996
 20
-217.7836640000004
 10
80.41360599999996
 20
-217.23985000000042
 10
81.16315999999996
 20
-216.73616800000045
 10
82.81542999999996
 20
-215.87053600000044
 10
84.55456799999996
 20
-215.21369200000044
 10
86.35618999999996
 20
-214.7257580000004
 10
96.95281599999996
 20
-213.1852480000004
 10
97.61956599999996
 20
-212.9777300000004
 10
98.24872399999995
 20
-212.69071000000042
 10
98.83368599999996
 20
-212.3295220000004
 10
99.36784799999995
 20
-211.8992460000004
 10
99.84485999999995
 20
-211.40470800000043
 10
100.25811799999995
 20
-210.85098800000043
 10
100.60127199999995
 20
-210.2434200000004
 10
100.74452799999996
 20
-209.92084000000042
 10
102.43464399999996
 20
-203.47813000000042
 10
102.44302599999996
 20
-203.3526540000004
 10
102.43565999999997
 20
-203.22921000000042
 10
102.41356199999997
 20
-203.10906800000043
 10
102.37723999999997
 20
-202.9932440000004
 10
102.32770999999998
 20
-202.88326200000043
 10
102.26573399999997
 20
-202.7798840000004
 10
102.19207399999996
 20
-202.68463400000041
 10
102.10749199999995
 20
-202.59852800000039
 10
102.01274999999995
 20
-202.5225820000004
 10
101.90886399999997
 20
-202.45832000000038
 10
101.79634199999997
 20
-202.4067580000004
 10
101.67619999999997
 20
-202.3689120000004
 10
101.54919999999996
 20
-202.34630600000037
  0
ENDSEC
  0
SECTION
  2
OBJECTS
  0
DICTIONARY
  5
A
330
0
100
AcDbDictionary
281
1
  3
ACAD_COLOR
350
B
  3
ACAD_GROUP
350
C
  3
ACAD_LAYOUT
350
D
  3
ACAD_MATERIAL
350
E
  3
ACAD_MLEADERSTYLE
350
F
  3
ACAD_MLINESTYLE
350
10
  3
ACAD_PLOTSETTINGS
350
11
  3
ACAD_PLOTSTYLENAME
350
12
  3
ACAD_SCALELIST
350
14
  3
ACAD_TABLESTYLE
350
15
  3
ACAD_VISUALSTYLE
350
16
  3
EZDXF_META
350
2D
  0
DICTIONARY
  5
B
330
A
100
AcDbDictionary
281
1
  0
DICTIONARY
  5
C
330
A
100
AcDbDictionary
281
1
  0
DICTIONARY
  5
D
330
A
100
AcDbDictionary
281
1
  3
Model
350
1A
  3
Layout1
350
1E
  0
DICTIONARY
  5
E
330
A
100
AcDbDictionary
281
1
  3
ByBlock
350
1F
  3
ByLayer
350
20
  3
Global
350
21
  0
DICTIONARY
  5
F
330
A
100
AcDbDictionary
281
1
  3
Standard
350
2C
  0
DICTIONARY
  5
10
330
A
100
AcDbDictionary
281
1
  3
Standard
350
22
  0
DICTIONARY
  5
11
330
A
100
AcDbDictionary
281
1
  0
ACDBDICTIONARYWDFLT
  5
12
330
A
100
AcDbDictionary
281
1
  3
Normal
350
13
100
AcDbDictionaryWithDefault
340
13
  0
ACDBPLACEHOLDER
  5
13
330
12
  0
DICTIONARY
  5
14
330
A
100
AcDbDictionary
281
1
  0
DICTIONARY
  5
15
330
A
100
AcDbDictionary
281
1
  0
DICTIONARY
  5
16
330
A
100
AcDbDictionary
281
1
  0
LAYOUT
  5
1A
330
D
100
AcDbPlotSettings
  1

  4
A3
  6

 40
7.5
 41
20.0
 42
7.5
 43
20.0
 44
420.0
 45
297.0
 46
0.0
 47
0.0
 48
0.0
 49
0.0
140
0.0
141
0.0
142
1.0
143
1.0
 70
1024
 72
1
 73
0
 74
5
  7

 75
16
 76
0
 77
2
 78
300
147
1.0
148
0.0
149
0.0
100
AcDbLayout
  1
Model
 70
1
 71
0
 10
0.0
 20
0.0
 11
420.0
 21
297.0
 12
0.0
 22
0.0
 32
0.0
 14
1e+20
 24
1e+20
 34
1e+20
 15
-1e+20
 25
-1e+20
 35
-1e+20
146
0.0
 13
0.0
 23
0.0
 33
0.0
 16
1.0
 26
0.0
 36
0.0
 17
0.0
 27
1.0
 37
0.0
 76
1
330
17
  0
LAYOUT
  5
1E
330
D
100
AcDbPlotSettings
  1

  4
A3
  6

 40
7.5
 41
20.0
 42
7.5
 43
20.0
 44
420.0
 45
297.0
 46
0.0
 47
0.0
 48
0.0
 49
0.0
140
0.0
141
0.0
142
1.0
143
1.0
 70
0
 72
1
 73
0
 74
5
  7

 75
16
 76
0
 77
2
 78
300
147
1.0
148
0.0
149
0.0
100
AcDbLayout
  1
Layout1
 70
1
 71
1
 10
0.0
 20
0.0
 11
420.0
 21
297.0
 12
0.0
 22
0.0
 32
0.0
 14
1e+20
 24
1e+20
 34
1e+20
 15
-1e+20
 25
-1e+20
 35
-1e+20
146
0.0
 13
0.0
 23
0.0
 33
0.0
 16
1.0
 26
0.0
 36
0.0
 17
0.0
 27
1.0
 37
0.0
 76
1
330
1B
  0
MATERIAL
  5
1F
102
{ACAD_REACTORS
330
E
102
}
330
E
100
AcDbMaterial
  1
ByBlock
  2

 70
0
 40
1.0
 71
1
 41
1.0
 91
-1023410177
 42
1.0
 72
1
  3

 73
1
 74
1
 75
1
 44
0.5
 73
0
 45
1.0
 46
1.0
 77
1
  4

 78
1
 79
1
170
1
 48
1.0
171
1
  6

172
1
173
1
174
1
140
1.0
141
1.0
175
1
  7

176
1
177
1
178
1
143
1.0
179
1
  8

270
1
271
1
272
1
145
1.0
146
1.0
273
1
  9

274
1
275
1
276
1
 42
1.0
 72
1
  3

 73
1
 74
1
 75
1
 94
63
  0
MATERIAL
  5
20
102
{ACAD_REACTORS
330
E
102
}
330
E
100
AcDbMaterial
  1
ByLayer
  2

 70
0
 40
1.0
 71
1
 41
1.0
 91
-1023410177
 42
1.0
 72
1
  3

 73
1
 74
1
 75
1
 44
0.5
 73
0
 45
1.0
 46
1.0
 77
1
  4

 78
1
 79
1
170
1
 48
1.0
171
1
  6

172
1
173
1
174
1
140
1.0
141
1.0
175
1
  7

176
1
177
1
178
1
143
1.0
179
1
  8

270
1
271
1
272
1
145
1.0
146
1.0
273
1
  9

274
1
275
1
276
1
 42
1.0
 72
1
  3

 73
1
 74
1
 75
1
 94
63
  0
MATERIAL
  5
21
102
{ACAD_REACTORS
330
E
102
}
330
E
100
AcDbMaterial
  1
Global
  2

 70
0
 40
1.0
 71
1
 41
1.0
 91
-1023410177
 42
1.0
 72
1
  3

 73
1
 74
1
 75
1
 44
0.5
 73
0
 45
1.0
 46
1.0
 77
1
  4

 78
1
 79
1
170
1
 48
1.0
171
1
  6

172
1
173
1
174
1
140
1.0
141
1.0
175
1
  7

176
1
177
1
178
1
143
1.0
179
1
  8

270
1
271
1
272
1
145
1.0
146
1.0
273
1
  9

274
1
275
1
276
1
 42
1.0
 72
1
  3

 73
1
 74
1
 75
1
 94
63
  0
MLINESTYLE
  5
22
102
{ACAD_REACTORS
330
10
102
}
330
10
100
AcDbMlineStyle
  2
Standard
 70
0
  3

 62
256
 51
90.0
 52
90.0
 71
2
 49
0.5
 62
256
  6
BYLAYER
 49
-0.5
 62
256
  6
BYLAYER
  0
MLEADERSTYLE
  5
2C
102
{ACAD_REACTORS
330
F
102
}
330
F
100
AcDbMLeaderStyle
179
2
170
2
171
1
172
0
 90
2
 40
0.0
 41
0.0
173
1
 91
-1056964608
 92
-2
290
1
 42
2.0
291
1
 43
8.0
  3
Standard
 44
4.0
300

342
29
174
1
175
1
176
0
178
1
 93
-1056964608
 45
4.0
292
0
297
0
 46
4.0
 94
-1056964608
 47
1.0
 49
1.0
140
1.0
294
1
141
0.0
177
0
142
1.0
295
0
296
0
143
3.75
271
0
272
9
273
9
  0
DICTIONARY
  5
2D
330
A
100
AcDbDictionary
280
1
281
1
  3
CREATED_BY_EZDXF
350
2E
  3
WRITTEN_BY_EZDXF
350
36
  0
DICTIONARYVAR
  5
2E
330
2D
100
DictionaryVariables
280
0
  1
1.4.3 @ 2026-04-12T00:41:29.499889+00:00
  0
DICTIONARYVAR
  5
36
330
2D
100
DictionaryVariables
280
0
  1
1.4.3 @ 2026-04-12T00:41:29.501105+00:00
  0
ENDSEC
  0
EOF
