  0
SECTION
  2
HEADER
  9
$ACADVER
  1
AC1024
  9
$ACADMAINTVER
 70
6
  9
$DWGCODEPAGE
  3
ANSI_1252
  9
$LASTSAVEDBY
  1
ezdxf
  9
$INSBASE
 10
0.0
 20
0.0
 30
0.0
  9
$EXTMIN
 10
1e+20
 20
1e+20
 30
1e+20
  9
$EXTMAX
 10
-1e+20
 20
-1e+20
 30
-1e+20
  9
$LIMMIN
 10
0.0
 20
0.0
  9
$LIMMAX
 10
420.0
 20
297.0
  9
$ORTHOMODE
 70
0
  9
$REGENMODE
 70
1
  9
$FILLMODE
 70
1
  9
$QTEXTMODE
 70
0
  9
$MIRRTEXT
 70
1
  9
$LTSCALE
 40
1.0
  9
$ATTMODE
 70
1
  9
$TEXTSIZE
 40
2.5
  9
$TRACEWID
 40
1.0
  9
$TEXTSTYLE
  7
Standard
  9
$CLAYER
  8
0
  9
$CELTYPE
  6
ByLayer
  9
$CECOLOR
 62
256
  9
$CELTSCALE
 40
1.0
  9
$DISPSILH
 70
0
  9
$DIMSCALE
 40
1.0
  9
$DIMASZ
 40
2.5
  9
$DIMEXO
 40
0.625
  9
$DIMDLI
 40
3.75
  9
$DIMRND
 40
0.0
  9
$DIMDLE
 40
0.0
  9
$DIMEXE
 40
1.25
  9
$DIMTP
 40
0.0
  9
$DIMTM
 40
0.0
  9
$DIMTXT
 40
2.5
  9
$DIMCEN
 40
2.5
  9
$DIMTSZ
 40
0.0
  9
$DIMTOL
 70
0
  9
$DIMLIM
 70
0
  9
$DIMTIH
 70
0
  9
$DIMTOH
 70
0
  9
$DIMSE1
 70
0
  9
$DIMSE2
 70
0
  9
$DIMTAD
 70
1
  9
$DIMZIN
 70
8
  9
$DIMBLK
  1

  9
$DIMASO
 70
1
  9
$DIMSHO
 70
1
  9
$DIMPOST
  1

  9
$DIMAPOST
  1

  9
$DIMALT
 70
0
  9
$DIMALTD
 70
3
  9
$DIMALTF
 40
0.03937007874
  9
$DIMLFAC
 40
1.0
  9
$DIMTOFL
 70
1
  9
$DIMTVP
 40
0.0
  9
$DIMTIX
 70
0
  9
$DIMSOXD
 70
0
  9
$DIMSAH
 70
0
  9
$DIMBLK1
  1

  9
$DIMBLK2
  1

  9
$DIMSTYLE
  2
ISO-25
  9
$DIMCLRD
 70
0
  9
$DIMCLRE
 70
0
  9
$DIMCLRT
 70
0
  9
$DIMTFAC
 40
1.0
  9
$DIMGAP
 40
0.625
  9
$DIMJUST
 70
0
  9
$DIMSD1
 70
0
  9
$DIMSD2
 70
0
  9
$DIMTOLJ
 70
0
  9
$DIMTZIN
 70
8
  9
$DIMALTZ
 70
0
  9
$DIMALTTZ
 70
0
  9
$DIMUPT
 70
0
  9
$DIMDEC
 70
2
  9
$DIMTDEC
 70
2
  9
$DIMALTU
 70
2
  9
$DIMALTTD
 70
3
  9
$DIMTXSTY
  7
Standard
  9
$DIMAUNIT
 70
0
  9
$DIMADEC
 70
0
  9
$DIMALTRND
 40
0.0
  9
$DIMAZIN
 70
0
  9
$DIMDSEP
 70
44
  9
$DIMATFIT
 70
3
  9
$DIMFRAC
 70
0
  9
$DIMLDRBLK
  1

  9
$DIMLUNIT
 70
2
  9
$DIMLWD
 70
-2
  9
$DIMLWE
 70
-2
  9
$DIMTMOVE
 70
0
  9
$DIMFXL
 40
1.0
  9
$DIMFXLON
 70
0
  9
$DIMJOGANG
 40
0.785398163397
  9
$DIMTFILL
 70
0
  9
$DIMTFILLCLR
 70
0
  9
$DIMARCSYM
 70
0
  9
$DIMLTYPE
  6

  9
$DIMLTEX1
  6

  9
$DIMLTEX2
  6

  9
$DIMTXTDIRECTION
 70
0
  9
$LUNITS
 70
2
  9
$LUPREC
 70
4
  9
$SKETCHINC
 40
1.0
  9
$FILLETRAD
 40
10.0
  9
$AUNITS
 70
0
  9
$AUPREC
 70
2
  9
$MENU
  1
.
  9
$ELEVATION
 40
0.0
  9
$PELEVATION
 40
0.0
  9
$THICKNESS
 40
0.0
  9
$LIMCHECK
 70
0
  9
$CHAMFERA
 40
0.0
  9
$CHAMFERB
 40
0.0
  9
$CHAMFERC
 40
0.0
  9
$CHAMFERD
 40
0.0
  9
$SKPOLY
 70
0
  9
$TDCREATE
 40
2461138.7153935186
  9
$TDUCREATE
 40
2458532.153996898
  9
$TDUPDATE
 40
2461138.7153935186
  9
$TDUUPDATE
 40
2458532.1544311
  9
$TDINDWG
 40
0.0
  9
$TDUSRTIMER
 40
0.0
  9
$USRTIMER
 70
1
  9
$ANGBASE
 50
0.0
  9
$ANGDIR
 70
0
  9
$PDMODE
 70
0
  9
$PDSIZE
 40
0.0
  9
$PLINEWID
 40
0.0
  9
$SPLFRAME
 70
0
  9
$SPLINETYPE
 70
6
  9
$SPLINESEGS
 70
8
  9
$HANDSEED
  5
FF
  9
$SURFTAB1
 70
6
  9
$SURFTAB2
 70
6
  9
$SURFTYPE
 70
6
  9
$SURFU
 70
6
  9
$SURFV
 70
6
  9
$UCSBASE
  2

  9
$UCSNAME
  2

  9
$UCSORG
 10
0.0
 20
0.0
 30
0.0
  9
$UCSXDIR
 10
1.0
 20
0.0
 30
0.0
  9
$UCSYDIR
 10
0.0
 20
1.0
 30
0.0
  9
$UCSORTHOREF
  2

  9
$UCSORTHOVIEW
 70
0
  9
$UCSORGTOP
 10
0.0
 20
0.0
 30
0.0
  9
$UCSORGBOTTOM
 10
0.0
 20
0.0
 30
0.0
  9
$UCSORGLEFT
 10
0.0
 20
0.0
 30
0.0
  9
$UCSORGRIGHT
 10
0.0
 20
0.0
 30
0.0
  9
$UCSORGFRONT
 10
0.0
 20
0.0
 30
0.0
  9
$UCSORGBACK
 10
0.0
 20
0.0
 30
0.0
  9
$PUCSBASE
  2

  9
$PUCSNAME
  2

  9
$PUCSORG
 10
0.0
 20
0.0
 30
0.0
  9
$PUCSXDIR
 10
1.0
 20
0.0
 30
0.0
  9
$PUCSYDIR
 10
0.0
 20
1.0
 30
0.0
  9
$PUCSORTHOREF
  2

  9
$PUCSORTHOVIEW
 70
0
  9
$PUCSORGTOP
 10
0.0
 20
0.0
 30
0.0
  9
$PUCSORGBOTTOM
 10
0.0
 20
0.0
 30
0.0
  9
$PUCSORGLEFT
 10
0.0
 20
0.0
 30
0.0
  9
$PUCSORGRIGHT
 10
0.0
 20
0.0
 30
0.0
  9
$PUCSORGFRONT
 10
0.0
 20
0.0
 30
0.0
  9
$PUCSORGBACK
 10
0.0
 20
0.0
 30
0.0
  9
$USERI1
 70
0
  9
$USERI2
 70
0
  9
$USERI3
 70
0
  9
$USERI4
 70
0
  9
$USERI5
 70
0
  9
$USERR1
 40
0.0
  9
$USERR2
 40
0.0
  9
$USERR3
 40
0.0
  9
$USERR4
 40
0.0
  9
$USERR5
 40
0.0
  9
$WORLDVIEW
 70
1
  9
$SHADEDGE
 70
3
  9
$SHADEDIF
 70
70
  9
$TILEMODE
 70
1
  9
$MAXACTVP
 70
64
  9
$PINSBASE
 10
0.0
 20
0.0
 30
0.0
  9
$PLIMCHECK
 70
0
  9
$PEXTMIN
 10
1e+20
 20
1e+20
 30
1e+20
  9
$PEXTMAX
 10
-1e+20
 20
-1e+20
 30
-1e+20
  9
$PLIMMIN
 10
0.0
 20
0.0
  9
$PLIMMAX
 10
420.0
 20
297.0
  9
$UNITMODE
 70
0
  9
$VISRETAIN
 70
1
  9
$PLINEGEN
 70
0
  9
$PSLTSCALE
 70
1
  9
$TREEDEPTH
 70
3020
  9
$CMLSTYLE
  2
Standard
  9
$CMLJUST
 70
0
  9
$CMLSCALE
 40
20.0
  9
$PROXYGRAPHICS
 70
1
  9
$MEASUREMENT
 70
1
  9
$CELWEIGHT
370
-1
  9
$ENDCAPS
280
0
  9
$JOINSTYLE
280
0
  9
$LWDISPLAY
290
0
  9
$INSUNITS
 70
6
  9
$HYPERLINKBASE
  1

  9
$STYLESHEET
  1

  9
$XEDIT
290
1
  9
$CEPSNTYPE
380
0
  9
$PSTYLEMODE
290
1
  9
$FINGERPRINTGUID
  2
{4325ECFE-2379-4A56-9F48-0C4C66E2B130}
  9
$VERSIONGUID
  2
{932C71D0-E26C-4EA2-BDAD-7EDCEC33DEE2}
  9
$EXTNAMES
290
1
  9
$PSVPSCALE
 40
0.0
  9
$OLESTARTUP
290
0
  9
$SORTENTS
280
127
  9
$INDEXCTL
280
0
  9
$HIDETEXT
280
1
  9
$XCLIPFRAME
280
1
  9
$HALOGAP
280
0
  9
$OBSCOLOR
 70
257
  9
$OBSLTYPE
280
0
  9
$INTERSECTIONDISPLAY
280
0
  9
$INTERSECTIONCOLOR
 70
257
  9
$DIMASSOC
280
2
  9
$PROJECTNAME
  1

  9
$CAMERADISPLAY
290
0
  9
$LENSLENGTH
 40
50.0
  9
$CAMERAHEIGHT
 40
0.0
  9
$STEPSPERSEC
 40
24.0
  9
$STEPSIZE
 40
100.0
  9
$3DDWFPREC
 40
2.0
  9
$PSOLWIDTH
 40
0.005
  9
$PSOLHEIGHT
 40
0.08
  9
$LOFTANG1
 40
1.570796326795
  9
$LOFTANG2
 40
1.570796326795
  9
$LOFTMAG1
 40
0.0
  9
$LOFTMAG2
 40
0.0
  9
$LOFTPARAM
 70
7
  9
$LOFTNORMALS
280
1
  9
$LATITUDE
 40
37.795
  9
$LONGITUDE
 40
-122.394
  9
$NORTHDIRECTION
 40
0.0
  9
$TIMEZONE
 70
-8000
  9
$LIGHTGLYPHDISPLAY
280
1
  9
$TILEMODELIGHTSYNCH
280
1
  9
$CMATERIAL
347
20
  9
$SOLIDHIST
280
0
  9
$SHOWHIST
280
1
  9
$DWFFRAME
280
2
  9
$DGNFRAME
280
2
  9
$REALWORLDSCALE
290
1
  9
$INTERFERECOLOR
 62
256
  9
$CSHADOW
280
0
  9
$SHADOWPLANELOCATION
 40
0.0
  0
ENDSEC
  0
SECTION
  2
CLASSES
  0
CLASS
  1
ACDBDICTIONARYWDFLT
  2
AcDbDictionaryWithDefault
  3
ObjectDBX Classes
 90
0
 91
0
280
0
281
0
  0
CLASS
  1
SUN
  2
AcDbSun
  3
SCENEOE
 90
1153
 91
0
280
0
281
0
  0
CLASS
  1
VISUALSTYLE
  2
AcDbVisualStyle
  3
ObjectDBX Classes
 90
4095
 91
0
280
0
281
0
  0
CLASS
  1
MATERIAL
  2
AcDbMaterial
  3
ObjectDBX Classes
 90
1153
 91
0
280
0
281
0
  0
CLASS
  1
SCALE
  2
AcDbScale
  3
ObjectDBX Classes
 90
1153
 91
0
280
0
281
0
  0
CLASS
  1
TABLESTYLE
  2
AcDbTableStyle
  3
ObjectDBX Classes
 90
4095
 91
0
280
0
281
0
  0
CLASS
  1
MLEADERSTYLE
  2
AcDbMLeaderStyle
  3
ACDB_MLEADERSTYLE_CLASS
 90
4095
 91
0
280
0
281
0
  0
CLASS
  1
DICTIONARYVAR
  2
AcDbDictionaryVar
  3
ObjectDBX Classes
 90
0
 91
0
280
0
281
0
  0
CLASS
  1
CELLSTYLEMAP
  2
AcDbCellStyleMap
  3
ObjectDBX Classes
 90
1152
 91
0
280
0
281
0
  0
CLASS
  1
MENTALRAYRENDERSETTINGS
  2
AcDbMentalRayRenderSettings
  3
SCENEOE
 90
1024
 91
0
280
0
281
0
  0
CLASS
  1
ACDBDETAILVIEWSTYLE
  2
AcDbDetailViewStyle
  3
ObjectDBX Classes
 90
1025
 91
0
280
0
281
0
  0
CLASS
  1
ACDBSECTIONVIEWSTYLE
  2
AcDbSectionViewStyle
  3
ObjectDBX Classes
 90
1025
 91
0
280
0
281
0
  0
CLASS
  1
RASTERVARIABLES
  2
AcDbRasterVariables
  3
ISM
 90
0
 91
0
280
0
281
0
  0
CLASS
  1
ACDBPLACEHOLDER
  2
AcDbPlaceHolder
  3
ObjectDBX Classes
 90
0
 91
0
280
0
281
0
  0
CLASS
  1
LAYOUT
  2
AcDbLayout
  3
ObjectDBX Classes
 90
0
 91
0
280
0
281
0
  0
ENDSEC
  0
SECTION
  2
TABLES
  0
TABLE
  2
VPORT
  5
8
330
0
100
AcDbSymbolTable
 70
1
  0
VPORT
  5
23
330
8
100
AcDbSymbolTableRecord
100
AcDbViewportTableRecord
  2
*Active
 70
0
 10
0.0
 20
0.0
 11
1.0
 21
1.0
 12
0.0
 22
0.0
 13
0.0
 23
0.0
 14
0.5
 24
0.5
 15
0.5
 25
0.5
 16
0.0
 26
0.0
 36
1.0
 17
0.0
 27
0.0
 37
0.0
 40
1000.0
 41
1.34
 42
50.0
 43
0.0
 44
0.0
 50
0.0
 51
0.0
 71
0
 72
1000
 73
1
 74
3
 75
0
 76
0
 77
0
 78
0
281
0
 65
0
146
0.0
  0
ENDTAB
  0
TABLE
  2
LTYPE
  5
2
330
0
100
AcDbSymbolTable
 70
3
  0
LTYPE
  5
24
330
2
100
AcDbSymbolTableRecord
100
AcDbLinetypeTableRecord
  2
ByBlock
 70
0
  3

 72
65
 73
0
 40
0.0
  0
LTYPE
  5
25
330
2
100
AcDbSymbolTableRecord
100
AcDbLinetypeTableRecord
  2
ByLayer
 70
0
  3

 72
65
 73
0
 40
0.0
  0
LTYPE
  5
26
330
2
100
AcDbSymbolTableRecord
100
AcDbLinetypeTableRecord
  2
Continuous
 70
0
  3

 72
65
 73
0
 40
0.0
  0
ENDTAB
  0
TABLE
  2
LAYER
  5
1
330
0
100
AcDbSymbolTable
 70
2
  0
LAYER
  5
27
330
1
100
AcDbSymbolTableRecord
100
AcDbLayerTableRecord
  2
0
 70
0
 62
7
  6
Continuous
370
-3
390
13
347
21
  0
LAYER
  5
28
330
1
100
AcDbSymbolTableRecord
100
AcDbLayerTableRecord
  2
Defpoints
 70
0
 62
7
  6
Continuous
290
0
370
-3
390
13
347
21
  0
ENDTAB
  0
TABLE
  2
STYLE
  5
5
330
0
100
AcDbSymbolTable
 70
1
  0
STYLE
  5
29
330
5
100
AcDbSymbolTableRecord
100
AcDbTextStyleTableRecord
  2
Standard
 70
0
 40
0.0
 41
1.0
 50
0.0
 71
0
 42
2.5
  3
txt
  4

  0
ENDTAB
  0
TABLE
  2
VIEW
  5
7
330
0
100
AcDbSymbolTable
 70
0
  0
ENDTAB
  0
TABLE
  2
UCS
  5
6
330
0
100
AcDbSymbolTable
 70
0
  0
ENDTAB
  0
TABLE
  2
APPID
  5
3
330
0
100
AcDbSymbolTable
 70
3
  0
APPID
  5
2A
330
3
100
AcDbSymbolTableRecord
100
AcDbRegAppTableRecord
  2
ACAD
 70
0
  0
APPID
  5
FC
330
3
100
AcDbSymbolTableRecord
100
AcDbRegAppTableRecord
  2
HATCHBACKGROUNDCOLOR
 70
0
  0
APPID
  5
FD
330
3
100
AcDbSymbolTableRecord
100
AcDbRegAppTableRecord
  2
EZDXF
 70
0
  0
ENDTAB
  0
TABLE
  2
DIMSTYLE
  5
4
330
0
100
AcDbSymbolTable
 70
1
100
AcDbDimStyleTable
  0
DIMSTYLE
105
2B
330
4
100
AcDbSymbolTableRecord
100
AcDbDimStyleTableRecord
  2
Standard
 70
0
 40
1.0
 41
2.5
 42
0.625
 43
3.75
 44
1.25
 45
0.0
 46
0.0
 47
0.0
 48
0.0
 49
2.5
140
2.5
141
2.5
142
0.0
143
0.03937007874
144
1.0
145
0.0
146
1.0
147
0.625
148
0.0
 69
0
 70
0
 71
0
 72
0
 73
0
 74
0
 75
0
 76
0
 77
1
 78
8
 79
3
170
0
171
3
172
1
173
0
174
0
175
0
176
0
177
0
178
0
179
2
271
2
272
2
273
2
274
3
275
0
276
0
277
2
278
44
279
0
280
0
281
0
282
0
283
0
284
8
285
0
286
0
288
0
289
3
290
0
371
-2
372
-2
  0
ENDTAB
  0
TABLE
  2
BLOCK_RECORD
  5
9
330
0
100
AcDbSymbolTable
 70
2
  0
BLOCK_RECORD
  5
17
330
9
100
AcDbSymbolTableRecord
100
AcDbBlockTableRecord
  2
*Model_Space
340
1A
 70
0
280
1
281
0
  0
BLOCK_RECORD
  5
1B
330
9
100
AcDbSymbolTableRecord
100
AcDbBlockTableRecord
  2
*Paper_Space
340
1E
 70
0
280
1
281
0
  0
ENDTAB
  0
ENDSEC
  0
SECTION
  2
BLOCKS
  0
BLOCK
  5
18
330
17
100
AcDbEntity
  8
0
100
AcDbBlockBegin
  2
*Model_Space
 70
0
 10
0.0
 20
0.0
 30
0.0
  3
*Model_Space
  1

  0
ENDBLK
  5
19
330
17
100
AcDbEntity
  8
0
100
AcDbBlockEnd
  0
BLOCK
  5
1C
330
1B
100
AcDbEntity
  8
0
100
AcDbBlockBegin
  2
*Paper_Space
 70
0
 10
0.0
 20
0.0
 30
0.0
  3
*Paper_Space
  1

  0
ENDBLK
  5
1D
330
1B
100
AcDbEntity
  8
0
100
AcDbBlockEnd
  0
ENDSEC
  0
SECTION
  2
ENTITIES
  0
LINE
  5
2F
330
17
100
AcDbEntity
  8
0
100
AcDbLine
 10
507.002
 20
-213.364
 30
0.0
 11
101.56100000000004
 21
-213.364
 31
0.0
  0
LINE
  5
30
330
17
100
AcDbEntity
  8
0
100
AcDbLine
 10
101.56100000000004
 20
-213.364
 30
0.0
 11
94.91900000000004
 21
-224.534
 31
0.0
  0
LINE
  5
31
330
17
100
AcDbEntity
  8
0
100
AcDbLine
 10
94.91900000000004
 20
-224.534
 30
0.0
 11
94.91900000000004
 21
-280.686
 31
0.0
  0
LINE
  5
32
330
17
100
AcDbEntity
  8
0
100
AcDbLine
 10
94.91900000000004
 20
-280.686
 30
0.0
 11
278.7710000000001
 21
-280.686
 31
0.0
  0
LINE
  5
33
330
17
100
AcDbEntity
  8
0
100
AcDbLine
 10
278.7710000000001
 20
-280.686
 30
0.0
 11
298.0920000000001
 21
-275.25199999999995
 31
0.0
  0
LINE
  5
34
330
17
100
AcDbEntity
  8
0
100
AcDbLine
 10
298.0920000000001
 20
-275.25199999999995
 30
0.0
 11
313.7490000000001
 21
-274.99199999999996
 31
0.0
  0
LINE
  5
35
330
17
100
AcDbEntity
  8
0
100
AcDbLine
 10
313.7490000000001
 20
-274.99199999999996
 30
0.0
 11
313.9720000000001
 21
-275.01699999999994
 31
0.0
  0
LINE
  5
36
330
17
100
AcDbEntity
  8
0
100
AcDbLine
 10
313.9720000000001
 20
-275.01699999999994
 30
0.0
 11
314.1900000000001
 21
-275.05999999999995
 31
0.0
  0
LINE
  5
37
330
17
100
AcDbEntity
  8
0
100
AcDbLine
 10
314.1900000000001
 20
-275.05999999999995
 30
0.0
 11
314.4020000000001
 21
-275.11999999999995
 31
0.0
  0
LINE
  5
38
330
17
100
AcDbEntity
  8
0
100
AcDbLine
 10
314.4020000000001
 20
-275.11999999999995
 30
0.0
 11
314.6060000000001
 21
-275.19699999999995
 31
0.0
  0
LINE
  5
39
330
17
100
AcDbEntity
  8
0
100
AcDbLine
 10
314.6060000000001
 20
-275.19699999999995
 30
0.0
 11
314.8030000000001
 21
-275.28999999999996
 31
0.0
  0
LINE
  5
3A
330
17
100
AcDbEntity
  8
0
100
AcDbLine
 10
314.8030000000001
 20
-275.28999999999996
 30
0.0
 11
314.9910000000001
 21
-275.39899999999994
 31
0.0
  0
LINE
  5
3B
330
17
100
AcDbEntity
  8
0
100
AcDbLine
 10
314.9910000000001
 20
-275.39899999999994
 30
0.0
 11
315.1690000000001
 21
-275.52299999999997
 31
0.0
  0
LINE
  5
3C
330
17
100
AcDbEntity
  8
0
100
AcDbLine
 10
315.1690000000001
 20
-275.52299999999997
 30
0.0
 11
315.33600000000007
 21
-275.66099999999994
 31
0.0
  0
LINE
  5
3D
330
17
100
AcDbEntity
  8
0
100
AcDbLine
 10
315.33600000000007
 20
-275.66099999999994
 30
0.0
 11
315.4920000000001
 21
-275.81199999999995
 31
0.0
  0
LINE
  5
3E
330
17
100
AcDbEntity
  8
0
100
AcDbLine
 10
315.4920000000001
 20
-275.81199999999995
 30
0.0
 11
315.63500000000005
 21
-275.97599999999994
 31
0.0
  0
LINE
  5
3F
330
17
100
AcDbEntity
  8
0
100
AcDbLine
 10
315.63500000000005
 20
-275.97599999999994
 30
0.0
 11
315.76500000000004
 21
-276.15199999999993
 31
0.0
  0
LINE
  5
40
330
17
100
AcDbEntity
  8
0
100
AcDbLine
 10
315.76500000000004
 20
-276.15199999999993
 30
0.0
 11
315.88100000000003
 21
-276.33899999999994
 31
0.0
  0
LINE
  5
41
330
17
100
AcDbEntity
  8
0
100
AcDbLine
 10
315.88100000000003
 20
-276.33899999999994
 30
0.0
 11
315.98100000000005
 21
-276.5369999999999
 31
0.0
  0
LINE
  5
42
330
17
100
AcDbEntity
  8
0
100
AcDbLine
 10
315.98100000000005
 20
-276.5369999999999
 30
0.0
 11
316.06500000000005
 21
-276.74499999999995
 31
0.0
  0
LINE
  5
43
330
17
100
AcDbEntity
  8
0
100
AcDbLine
 10
316.06500000000005
 20
-276.74499999999995
 30
0.0
 11
317.1120000000001
 21
-280.6859999999999
 31
0.0
  0
LINE
  5
44
330
17
100
AcDbEntity
  8
0
100
AcDbLine
 10
317.1120000000001
 20
-280.6859999999999
 30
0.0
 11
507.00200000000007
 21
-280.6859999999999
 31
0.0
  0
LINE
  5
45
330
17
100
AcDbEntity
  8
0
100
AcDbLine
 10
507.00200000000007
 20
-280.6859999999999
 30
0.0
 11
507.00200000000007
 21
-213.36399999999992
 31
0.0
  0
LINE
  5
46
330
17
100
AcDbEntity
  8
0
100
AcDbLine
 10
635.9100000000001
 20
-213.36399999999992
 30
0.0
 11
635.9100000000001
 21
-280.6859999999999
 31
0.0
  0
LINE
  5
47
330
17
100
AcDbEntity
  8
0
100
AcDbLine
 10
635.9100000000001
 20
-280.6859999999999
 30
0.0
 11
665.1940000000001
 21
-280.6859999999999
 31
0.0
  0
LINE
  5
48
330
17
100
AcDbEntity
  8
0
100
AcDbLine
 10
665.1940000000001
 20
-280.6859999999999
 30
0.0
 11
665.1940000000001
 21
-213.36399999999992
 31
0.0
  0
LINE
  5
49
330
17
100
AcDbEntity
  8
0
100
AcDbLine
 10
665.1940000000001
 20
-213.36399999999992
 30
0.0
 11
635.9100000000001
 21
-213.36399999999992
 31
0.0
  0
LINE
  5
4A
330
17
100
AcDbEntity
  8
0
100
AcDbLine
 10
639.892
 20
-476.05799999999994
 30
0.0
 11
626.87
 21
-460.37799999999993
 31
0.0
  0
LINE
  5
4B
330
17
100
AcDbEntity
  8
0
100
AcDbLine
 10
626.87
 20
-460.37799999999993
 30
0.0
 11
618.019
 21
-447.8949999999999
 31
0.0
  0
LINE
  5
4C
330
17
100
AcDbEntity
  8
0
100
AcDbLine
 10
618.019
 20
-447.8949999999999
 30
0.0
 11
610.117
 21
-434.79099999999994
 31
0.0
  0
LINE
  5
4D
330
17
100
AcDbEntity
  8
0
100
AcDbLine
 10
610.117
 20
-434.79099999999994
 30
0.0
 11
599.606
 21
-412.95199999999994
 31
0.0
  0
LINE
  5
4E
330
17
100
AcDbEntity
  8
0
100
AcDbLine
 10
599.606
 20
-412.95199999999994
 30
0.0
 11
593.557
 21
-395.92499999999995
 31
0.0
  0
LINE
  5
4F
330
17
100
AcDbEntity
  8
0
100
AcDbLine
 10
593.557
 20
-395.92499999999995
 30
0.0
 11
591.528
 21
-387.20199999999994
 31
0.0
  0
LINE
  5
50
330
17
100
AcDbEntity
  8
0
100
AcDbLine
 10
591.528
 20
-387.20199999999994
 30
0.0
 11
589.974
 21
-375.6619999999999
 31
0.0
  0
LINE
  5
51
330
17
100
AcDbEntity
  8
0
100
AcDbLine
 10
589.974
 20
-375.6619999999999
 30
0.0
 11
589.793
 21
-365.0619999999999
 31
0.0
  0
LINE
  5
52
330
17
100
AcDbEntity
  8
0
100
AcDbLine
 10
589.793
 20
-365.0619999999999
 30
0.0
 11
590.845
 21
-355.3649999999999
 31
0.0
  0
LINE
  5
53
330
17
100
AcDbEntity
  8
0
100
AcDbLine
 10
590.845
 20
-355.3649999999999
 30
0.0
 11
592.99
 21
-346.5329999999999
 31
0.0
  0
LINE
  5
54
330
17
100
AcDbEntity
  8
0
100
AcDbLine
 10
592.99
 20
-346.5329999999999
 30
0.0
 11
596.087
 21
-338.5289999999999
 31
0.0
  0
LINE
  5
55
330
17
100
AcDbEntity
  8
0
100
AcDbLine
 10
596.087
 20
-338.5289999999999
 30
0.0
 11
599.995
 21
-331.3149999999999
 31
0.0
  0
LINE
  5
56
330
17
100
AcDbEntity
  8
0
100
AcDbLine
 10
599.995
 20
-331.3149999999999
 30
0.0
 11
604.574
 21
-324.8529999999999
 31
0.0
  0
LINE
  5
57
330
17
100
AcDbEntity
  8
0
100
AcDbLine
 10
604.574
 20
-324.8529999999999
 30
0.0
 11
609.683
 21
-319.1059999999999
 31
0.0
  0
LINE
  5
58
330
17
100
AcDbEntity
  8
0
100
AcDbLine
 10
609.683
 20
-319.1059999999999
 30
0.0
 11
615.182
 21
-314.0359999999999
 31
0.0
  0
LINE
  5
59
330
17
100
AcDbEntity
  8
0
100
AcDbLine
 10
615.182
 20
-314.0359999999999
 30
0.0
 11
620.9300000000001
 21
-309.6059999999999
 31
0.0
  0
LINE
  5
5A
330
17
100
AcDbEntity
  8
0
100
AcDbLine
 10
620.9300000000001
 20
-309.6059999999999
 30
0.0
 11
632.6120000000001
 21
-302.5149999999999
 31
0.0
  0
LINE
  5
5B
330
17
100
AcDbEntity
  8
0
100
AcDbLine
 10
632.6120000000001
 20
-302.5149999999999
 30
0.0
 11
643.6030000000001
 21
-297.53199999999987
 31
0.0
  0
LINE
  5
5C
330
17
100
AcDbEntity
  8
0
100
AcDbLine
 10
643.6030000000001
 20
-297.53199999999987
 30
0.0
 11
652.888
 21
-294.31899999999985
 31
0.0
  0
LINE
  5
5D
330
17
100
AcDbEntity
  8
0
100
AcDbLine
 10
652.888
 20
-294.31899999999985
 30
0.0
 11
652.988
 21
-294.27299999999985
 31
0.0
  0
LINE
  5
5E
330
17
100
AcDbEntity
  8
0
100
AcDbLine
 10
652.988
 20
-294.27299999999985
 30
0.0
 11
653.0790000000001
 21
-294.21999999999986
 31
0.0
  0
LINE
  5
5F
330
17
100
AcDbEntity
  8
0
100
AcDbLine
 10
653.0790000000001
 20
-294.21999999999986
 30
0.0
 11
653.162
 21
-294.16099999999983
 31
0.0
  0
LINE
  5
60
330
17
100
AcDbEntity
  8
0
100
AcDbLine
 10
653.162
 20
-294.16099999999983
 30
0.0
 11
653.2370000000001
 21
-294.09599999999983
 31
0.0
  0
LINE
  5
61
330
17
100
AcDbEntity
  8
0
100
AcDbLine
 10
653.2370000000001
 20
-294.09599999999983
 30
0.0
 11
653.3040000000001
 21
-294.02599999999984
 31
0.0
  0
LINE
  5
62
330
17
100
AcDbEntity
  8
0
100
AcDbLine
 10
653.3040000000001
 20
-294.02599999999984
 30
0.0
 11
653.3620000000001
 21
-293.95099999999985
 31
0.0
  0
LINE
  5
63
330
17
100
AcDbEntity
  8
0
100
AcDbLine
 10
653.3620000000001
 20
-293.95099999999985
 30
0.0
 11
653.412
 21
-293.87199999999984
 31
0.0
  0
LINE
  5
64
330
17
100
AcDbEntity
  8
0
100
AcDbLine
 10
653.412
 20
-293.87199999999984
 30
0.0
 11
653.455
 21
-293.7889999999998
 31
0.0
  0
LINE
  5
65
330
17
100
AcDbEntity
  8
0
100
AcDbLine
 10
653.455
 20
-293.7889999999998
 30
0.0
 11
653.49
 21
-293.7029999999998
 31
0.0
  0
LINE
  5
66
330
17
100
AcDbEntity
  8
0
100
AcDbLine
 10
653.49
 20
-293.7029999999998
 30
0.0
 11
653.517
 21
-293.6149999999998
 31
0.0
  0
LINE
  5
67
330
17
100
AcDbEntity
  8
0
100
AcDbLine
 10
653.517
 20
-293.6149999999998
 30
0.0
 11
653.5360000000001
 21
-293.5249999999998
 31
0.0
  0
LINE
  5
68
330
17
100
AcDbEntity
  8
0
100
AcDbLine
 10
653.5360000000001
 20
-293.5249999999998
 30
0.0
 11
653.548
 21
-293.4329999999998
 31
0.0
  0
LINE
  5
69
330
17
100
AcDbEntity
  8
0
100
AcDbLine
 10
653.548
 20
-293.4329999999998
 30
0.0
 11
653.552
 21
-293.34099999999984
 31
0.0
  0
LINE
  5
6A
330
17
100
AcDbEntity
  8
0
100
AcDbLine
 10
653.552
 20
-293.34099999999984
 30
0.0
 11
653.549
 21
-293.24899999999985
 31
0.0
  0
LINE
  5
6B
330
17
100
AcDbEntity
  8
0
100
AcDbLine
 10
653.549
 20
-293.24899999999985
 30
0.0
 11
653.539
 21
-293.15699999999987
 31
0.0
  0
LINE
  5
6C
330
17
100
AcDbEntity
  8
0
100
AcDbLine
 10
653.539
 20
-293.15699999999987
 30
0.0
 11
653.5219999999999
 21
-293.06599999999986
 31
0.0
  0
LINE
  5
6D
330
17
100
AcDbEntity
  8
0
100
AcDbLine
 10
653.5219999999999
 20
-293.06599999999986
 30
0.0
 11
653.4979999999999
 21
-292.97699999999986
 31
0.0
  0
LINE
  5
6E
330
17
100
AcDbEntity
  8
0
100
AcDbLine
 10
653.4979999999999
 20
-292.97699999999986
 30
0.0
 11
653.467
 21
-292.8899999999999
 31
0.0
  0
LINE
  5
6F
330
17
100
AcDbEntity
  8
0
100
AcDbLine
 10
653.467
 20
-292.8899999999999
 30
0.0
 11
653.429
 21
-292.80599999999987
 31
0.0
  0
LINE
  5
70
330
17
100
AcDbEntity
  8
0
100
AcDbLine
 10
653.429
 20
-292.80599999999987
 30
0.0
 11
653.384
 21
-292.72499999999985
 31
0.0
  0
LINE
  5
71
330
17
100
AcDbEntity
  8
0
100
AcDbLine
 10
653.384
 20
-292.72499999999985
 30
0.0
 11
653.332
 21
-292.64799999999985
 31
0.0
  0
LINE
  5
72
330
17
100
AcDbEntity
  8
0
100
AcDbLine
 10
653.332
 20
-292.64799999999985
 30
0.0
 11
653.273
 21
-292.57599999999985
 31
0.0
  0
LINE
  5
73
330
17
100
AcDbEntity
  8
0
100
AcDbLine
 10
653.273
 20
-292.57599999999985
 30
0.0
 11
653.208
 21
-292.50899999999984
 31
0.0
  0
LINE
  5
74
330
17
100
AcDbEntity
  8
0
100
AcDbLine
 10
653.208
 20
-292.50899999999984
 30
0.0
 11
653.136
 21
-292.44799999999987
 31
0.0
  0
LINE
  5
75
330
17
100
AcDbEntity
  8
0
100
AcDbLine
 10
653.136
 20
-292.44799999999987
 30
0.0
 11
653.058
 21
-292.39299999999986
 31
0.0
  0
LINE
  5
76
330
17
100
AcDbEntity
  8
0
100
AcDbLine
 10
653.058
 20
-292.39299999999986
 30
0.0
 11
652.974
 21
-292.34499999999986
 31
0.0
  0
LINE
  5
77
330
17
100
AcDbEntity
  8
0
100
AcDbLine
 10
652.974
 20
-292.34499999999986
 30
0.0
 11
652.883
 21
-292.30399999999986
 31
0.0
  0
LINE
  5
78
330
17
100
AcDbEntity
  8
0
100
AcDbLine
 10
652.883
 20
-292.30399999999986
 30
0.0
 11
652.7860000000001
 21
-292.27099999999984
 31
0.0
  0
LINE
  5
79
330
17
100
AcDbEntity
  8
0
100
AcDbLine
 10
652.7860000000001
 20
-292.27099999999984
 30
0.0
 11
652.6830000000001
 21
-292.24699999999984
 31
0.0
  0
LINE
  5
7A
330
17
100
AcDbEntity
  8
0
100
AcDbLine
 10
652.6830000000001
 20
-292.24699999999984
 30
0.0
 11
652.5740000000001
 21
-292.23199999999986
 31
0.0
  0
LINE
  5
7B
330
17
100
AcDbEntity
  8
0
100
AcDbLine
 10
652.5740000000001
 20
-292.23199999999986
 30
0.0
 11
526.9560000000001
 21
-292.31399999999985
 31
0.0
  0
LINE
  5
7C
330
17
100
AcDbEntity
  8
0
100
AcDbLine
 10
526.9560000000001
 20
-292.31399999999985
 30
0.0
 11
524.4300000000002
 21
-292.69299999999987
 31
0.0
  0
LINE
  5
7D
330
17
100
AcDbEntity
  8
0
100
AcDbLine
 10
524.4300000000002
 20
-292.69299999999987
 30
0.0
 11
521.9850000000001
 21
-293.3629999999999
 31
0.0
  0
LINE
  5
7E
330
17
100
AcDbEntity
  8
0
100
AcDbLine
 10
521.9850000000001
 20
-293.3629999999999
 30
0.0
 11
519.6450000000001
 21
-294.31099999999986
 31
0.0
  0
LINE
  5
7F
330
17
100
AcDbEntity
  8
0
100
AcDbLine
 10
519.6450000000001
 20
-294.31099999999986
 30
0.0
 11
517.4340000000001
 21
-295.52499999999986
 31
0.0
  0
LINE
  5
80
330
17
100
AcDbEntity
  8
0
100
AcDbLine
 10
517.4340000000001
 20
-295.52499999999986
 30
0.0
 11
515.3750000000001
 21
-296.9929999999999
 31
0.0
  0
LINE
  5
81
330
17
100
AcDbEntity
  8
0
100
AcDbLine
 10
515.3750000000001
 20
-296.9929999999999
 30
0.0
 11
513.4920000000001
 21
-298.7019999999999
 31
0.0
  0
LINE
  5
82
330
17
100
AcDbEntity
  8
0
100
AcDbLine
 10
513.4920000000001
 20
-298.7019999999999
 30
0.0
 11
511.8090000000001
 21
-300.6409999999999
 31
0.0
  0
LINE
  5
83
330
17
100
AcDbEntity
  8
0
100
AcDbLine
 10
511.8090000000001
 20
-300.6409999999999
 30
0.0
 11
495.3420000000001
 21
-323.3719999999999
 31
0.0
  0
LINE
  5
84
330
17
100
AcDbEntity
  8
0
100
AcDbLine
 10
495.3420000000001
 20
-323.3719999999999
 30
0.0
 11
494.5970000000001
 21
-324.1339999999999
 31
0.0
  0
LINE
  5
85
330
17
100
AcDbEntity
  8
0
100
AcDbLine
 10
494.5970000000001
 20
-324.1339999999999
 30
0.0
 11
493.7730000000001
 21
-324.7979999999999
 31
0.0
  0
LINE
  5
86
330
17
100
AcDbEntity
  8
0
100
AcDbLine
 10
493.7730000000001
 20
-324.7979999999999
 30
0.0
 11
492.8810000000001
 21
-325.3579999999999
 31
0.0
  0
LINE
  5
87
330
17
100
AcDbEntity
  8
0
100
AcDbLine
 10
492.8810000000001
 20
-325.3579999999999
 30
0.0
 11
491.93000000000006
 21
-325.8099999999999
 31
0.0
  0
LINE
  5
88
330
17
100
AcDbEntity
  8
0
100
AcDbLine
 10
491.93000000000006
 20
-325.8099999999999
 30
0.0
 11
490.93000000000006
 21
-326.1479999999999
 31
0.0
  0
LINE
  5
89
330
17
100
AcDbEntity
  8
0
100
AcDbLine
 10
490.93000000000006
 20
-326.1479999999999
 30
0.0
 11
489.89200000000005
 21
-326.36799999999994
 31
0.0
  0
LINE
  5
8A
330
17
100
AcDbEntity
  8
0
100
AcDbLine
 10
489.89200000000005
 20
-326.36799999999994
 30
0.0
 11
488.82500000000005
 21
-326.46399999999994
 31
0.0
  0
LINE
  5
8B
330
17
100
AcDbEntity
  8
0
100
AcDbLine
 10
488.82500000000005
 20
-326.46399999999994
 30
0.0
 11
437.24500000000006
 21
-326.45899999999995
 31
0.0
  0
LINE
  5
8C
330
17
100
AcDbEntity
  8
0
100
AcDbLine
 10
437.24500000000006
 20
-326.45899999999995
 30
0.0
 11
436.55500000000006
 21
-326.38899999999995
 31
0.0
  0
LINE
  5
8D
330
17
100
AcDbEntity
  8
0
100
AcDbLine
 10
436.55500000000006
 20
-326.38899999999995
 30
0.0
 11
435.8860000000001
 21
-326.25199999999995
 31
0.0
  0
LINE
  5
8E
330
17
100
AcDbEntity
  8
0
100
AcDbLine
 10
435.8860000000001
 20
-326.25199999999995
 30
0.0
 11
435.2430000000001
 21
-326.05199999999996
 31
0.0
  0
LINE
  5
8F
330
17
100
AcDbEntity
  8
0
100
AcDbLine
 10
435.2430000000001
 20
-326.05199999999996
 30
0.0
 11
434.62900000000013
 21
-325.792
 31
0.0
  0
LINE
  5
90
330
17
100
AcDbEntity
  8
0
100
AcDbLine
 10
434.62900000000013
 20
-325.792
 30
0.0
 11
434.04700000000014
 21
-325.476
 31
0.0
  0
LINE
  5
91
330
17
100
AcDbEntity
  8
0
100
AcDbLine
 10
434.04700000000014
 20
-325.476
 30
0.0
 11
433.50100000000015
 21
-325.10699999999997
 31
0.0
  0
LINE
  5
92
330
17
100
AcDbEntity
  8
0
100
AcDbLine
 10
433.50100000000015
 20
-325.10699999999997
 30
0.0
 11
432.99400000000014
 21
-324.688
 31
0.0
  0
LINE
  5
93
330
17
100
AcDbEntity
  8
0
100
AcDbLine
 10
432.99400000000014
 20
-324.688
 30
0.0
 11
432.52900000000017
 21
-324.223
 31
0.0
  0
LINE
  5
94
330
17
100
AcDbEntity
  8
0
100
AcDbLine
 10
432.52900000000017
 20
-324.223
 30
0.0
 11
432.1100000000002
 21
-323.716
 31
0.0
  0
LINE
  5
95
330
17
100
AcDbEntity
  8
0
100
AcDbLine
 10
432.1100000000002
 20
-323.716
 30
0.0
 11
431.74100000000016
 21
-323.17
 31
0.0
  0
LINE
  5
96
330
17
100
AcDbEntity
  8
0
100
AcDbLine
 10
431.74100000000016
 20
-323.17
 30
0.0
 11
431.4250000000002
 21
-322.588
 31
0.0
  0
LINE
  5
97
330
17
100
AcDbEntity
  8
0
100
AcDbLine
 10
431.4250000000002
 20
-322.588
 30
0.0
 11
431.1650000000002
 21
-321.97400000000005
 31
0.0
  0
LINE
  5
98
330
17
100
AcDbEntity
  8
0
100
AcDbLine
 10
431.1650000000002
 20
-321.97400000000005
 30
0.0
 11
430.9650000000002
 21
-321.3310000000001
 31
0.0
  0
LINE
  5
99
330
17
100
AcDbEntity
  8
0
100
AcDbLine
 10
430.9650000000002
 20
-321.3310000000001
 30
0.0
 11
430.8280000000002
 21
-320.6620000000001
 31
0.0
  0
LINE
  5
9A
330
17
100
AcDbEntity
  8
0
100
AcDbLine
 10
430.8280000000002
 20
-320.6620000000001
 30
0.0
 11
430.7580000000002
 21
-319.9720000000001
 31
0.0
  0
LINE
  5
9B
330
17
100
AcDbEntity
  8
0
100
AcDbLine
 10
430.7580000000002
 20
-319.9720000000001
 30
0.0
 11
430.72800000000024
 21
-307.5580000000001
 31
0.0
  0
LINE
  5
9C
330
17
100
AcDbEntity
  8
0
100
AcDbLine
 10
430.72800000000024
 20
-307.5580000000001
 30
0.0
 11
430.5630000000002
 21
-305.9280000000001
 31
0.0
  0
LINE
  5
9D
330
17
100
AcDbEntity
  8
0
100
AcDbLine
 10
430.5630000000002
 20
-305.9280000000001
 30
0.0
 11
430.24000000000024
 21
-304.35000000000014
 31
0.0
  0
LINE
  5
9E
330
17
100
AcDbEntity
  8
0
100
AcDbLine
 10
430.24000000000024
 20
-304.35000000000014
 30
0.0
 11
429.76800000000026
 21
-302.83200000000016
 31
0.0
  0
LINE
  5
9F
330
17
100
AcDbEntity
  8
0
100
AcDbLine
 10
429.76800000000026
 20
-302.83200000000016
 30
0.0
 11
429.15500000000026
 21
-301.3820000000002
 31
0.0
  0
LINE
  5
A0
330
17
100
AcDbEntity
  8
0
100
AcDbLine
 10
429.15500000000026
 20
-301.3820000000002
 30
0.0
 11
428.4090000000003
 21
-300.00800000000015
 31
0.0
  0
LINE
  5
A1
330
17
100
AcDbEntity
  8
0
100
AcDbLine
 10
428.4090000000003
 20
-300.00800000000015
 30
0.0
 11
427.5380000000003
 21
-298.71900000000016
 31
0.0
  0
LINE
  5
A2
330
17
100
AcDbEntity
  8
0
100
AcDbLine
 10
427.5380000000003
 20
-298.71900000000016
 30
0.0
 11
426.5500000000003
 21
-297.52200000000016
 31
0.0
  0
LINE
  5
A3
330
17
100
AcDbEntity
  8
0
100
AcDbLine
 10
426.5500000000003
 20
-297.52200000000016
 30
0.0
 11
425.4540000000003
 21
-296.42600000000016
 31
0.0
  0
LINE
  5
A4
330
17
100
AcDbEntity
  8
0
100
AcDbLine
 10
425.4540000000003
 20
-296.42600000000016
 30
0.0
 11
424.2570000000003
 21
-295.43800000000016
 31
0.0
  0
LINE
  5
A5
330
17
100
AcDbEntity
  8
0
100
AcDbLine
 10
424.2570000000003
 20
-295.43800000000016
 30
0.0
 11
422.9680000000003
 21
-294.5670000000002
 31
0.0
  0
LINE
  5
A6
330
17
100
AcDbEntity
  8
0
100
AcDbLine
 10
422.9680000000003
 20
-294.5670000000002
 30
0.0
 11
421.5940000000003
 21
-293.8210000000002
 31
0.0
  0
LINE
  5
A7
330
17
100
AcDbEntity
  8
0
100
AcDbLine
 10
421.5940000000003
 20
-293.8210000000002
 30
0.0
 11
420.1440000000003
 21
-293.2080000000002
 31
0.0
  0
LINE
  5
A8
330
17
100
AcDbEntity
  8
0
100
AcDbLine
 10
420.1440000000003
 20
-293.2080000000002
 30
0.0
 11
418.6260000000003
 21
-292.7360000000002
 31
0.0
  0
LINE
  5
A9
330
17
100
AcDbEntity
  8
0
100
AcDbLine
 10
418.6260000000003
 20
-292.7360000000002
 30
0.0
 11
417.04800000000034
 21
-292.41300000000024
 31
0.0
  0
LINE
  5
AA
330
17
100
AcDbEntity
  8
0
100
AcDbLine
 10
417.04800000000034
 20
-292.41300000000024
 30
0.0
 11
415.41800000000035
 21
-292.2480000000002
 31
0.0
  0
LINE
  5
AB
330
17
100
AcDbEntity
  8
0
100
AcDbLine
 10
415.41800000000035
 20
-292.2480000000002
 30
0.0
 11
332.19700000000034
 21
-292.2270000000002
 31
0.0
  0
LINE
  5
AC
330
17
100
AcDbEntity
  8
0
100
AcDbLine
 10
332.19700000000034
 20
-292.2270000000002
 30
0.0
 11
343.85500000000036
 21
-328.4510000000002
 31
0.0
  0
LINE
  5
AD
330
17
100
AcDbEntity
  8
0
100
AcDbLine
 10
343.85500000000036
 20
-328.4510000000002
 30
0.0
 11
344.10100000000034
 21
-328.9920000000002
 31
0.0
  0
LINE
  5
AE
330
17
100
AcDbEntity
  8
0
100
AcDbLine
 10
344.10100000000034
 20
-328.9920000000002
 30
0.0
 11
344.38500000000033
 21
-329.5080000000002
 31
0.0
  0
LINE
  5
AF
330
17
100
AcDbEntity
  8
0
100
AcDbLine
 10
344.38500000000033
 20
-329.5080000000002
 30
0.0
 11
344.7050000000003
 21
-329.9970000000002
 31
0.0
  0
LINE
  5
B0
330
17
100
AcDbEntity
  8
0
100
AcDbLine
 10
344.7050000000003
 20
-329.9970000000002
 30
0.0
 11
345.06000000000034
 21
-330.4580000000002
 31
0.0
  0
LINE
  5
B1
330
17
100
AcDbEntity
  8
0
100
AcDbLine
 10
345.06000000000034
 20
-330.4580000000002
 30
0.0
 11
345.44700000000034
 21
-330.8890000000002
 31
0.0
  0
LINE
  5
B2
330
17
100
AcDbEntity
  8
0
100
AcDbLine
 10
345.44700000000034
 20
-330.8890000000002
 30
0.0
 11
345.8640000000003
 21
-331.28900000000016
 31
0.0
  0
LINE
  5
B3
330
17
100
AcDbEntity
  8
0
100
AcDbLine
 10
345.8640000000003
 20
-331.28900000000016
 30
0.0
 11
346.3090000000003
 21
-331.65700000000015
 31
0.0
  0
LINE
  5
B4
330
17
100
AcDbEntity
  8
0
100
AcDbLine
 10
346.3090000000003
 20
-331.65700000000015
 30
0.0
 11
346.7810000000003
 21
-331.99100000000016
 31
0.0
  0
LINE
  5
B5
330
17
100
AcDbEntity
  8
0
100
AcDbLine
 10
346.7810000000003
 20
-331.99100000000016
 30
0.0
 11
347.27700000000027
 21
-332.28900000000016
 31
0.0
  0
LINE
  5
B6
330
17
100
AcDbEntity
  8
0
100
AcDbLine
 10
347.27700000000027
 20
-332.28900000000016
 30
0.0
 11
347.79500000000024
 21
-332.5500000000002
 31
0.0
  0
LINE
  5
B7
330
17
100
AcDbEntity
  8
0
100
AcDbLine
 10
347.79500000000024
 20
-332.5500000000002
 30
0.0
 11
348.33300000000025
 21
-332.7730000000002
 31
0.0
  0
LINE
  5
B8
330
17
100
AcDbEntity
  8
0
100
AcDbLine
 10
348.33300000000025
 20
-332.7730000000002
 30
0.0
 11
348.88900000000024
 21
-332.9560000000002
 31
0.0
  0
LINE
  5
B9
330
17
100
AcDbEntity
  8
0
100
AcDbLine
 10
348.88900000000024
 20
-332.9560000000002
 30
0.0
 11
349.46100000000024
 21
-333.0970000000002
 31
0.0
  0
LINE
  5
BA
330
17
100
AcDbEntity
  8
0
100
AcDbLine
 10
349.46100000000024
 20
-333.0970000000002
 30
0.0
 11
385.21000000000026
 21
-337.0630000000002
 31
0.0
  0
LINE
  5
BB
330
17
100
AcDbEntity
  8
0
100
AcDbLine
 10
385.21000000000026
 20
-337.0630000000002
 30
0.0
 11
400.5770000000003
 21
-340.39400000000023
 31
0.0
  0
LINE
  5
BC
330
17
100
AcDbEntity
  8
0
100
AcDbLine
 10
400.5770000000003
 20
-340.39400000000023
 30
0.0
 11
417.9880000000003
 21
-345.99200000000025
 31
0.0
  0
LINE
  5
BD
330
17
100
AcDbEntity
  8
0
100
AcDbLine
 10
417.9880000000003
 20
-345.99200000000025
 30
0.0
 11
422.4880000000003
 21
-348.2070000000002
 31
0.0
  0
LINE
  5
BE
330
17
100
AcDbEntity
  8
0
100
AcDbLine
 10
422.4880000000003
 20
-348.2070000000002
 30
0.0
 11
426.70300000000026
 21
-350.8610000000002
 31
0.0
  0
LINE
  5
BF
330
17
100
AcDbEntity
  8
0
100
AcDbLine
 10
426.70300000000026
 20
-350.8610000000002
 30
0.0
 11
430.60500000000025
 21
-353.9270000000002
 31
0.0
  0
LINE
  5
C0
330
17
100
AcDbEntity
  8
0
100
AcDbLine
 10
430.60500000000025
 20
-353.9270000000002
 30
0.0
 11
434.16400000000027
 21
-357.3760000000002
 31
0.0
  0
LINE
  5
C1
330
17
100
AcDbEntity
  8
0
100
AcDbLine
 10
434.16400000000027
 20
-357.3760000000002
 30
0.0
 11
437.35000000000025
 21
-361.1800000000002
 31
0.0
  0
LINE
  5
C2
330
17
100
AcDbEntity
  8
0
100
AcDbLine
 10
437.35000000000025
 20
-361.1800000000002
 30
0.0
 11
440.13400000000024
 21
-365.3100000000002
 31
0.0
  0
LINE
  5
C3
330
17
100
AcDbEntity
  8
0
100
AcDbLine
 10
440.13400000000024
 20
-365.3100000000002
 30
0.0
 11
442.48700000000025
 21
-369.73900000000015
 31
0.0
  0
LINE
  5
C4
330
17
100
AcDbEntity
  8
0
100
AcDbLine
 10
442.48700000000025
 20
-369.73900000000015
 30
0.0
 11
513.7460000000002
 21
-546.2900000000002
 31
0.0
  0
LINE
  5
C5
330
17
100
AcDbEntity
  8
0
100
AcDbLine
 10
513.7460000000002
 20
-546.2900000000002
 30
0.0
 11
514.0440000000002
 21
-546.8260000000001
 31
0.0
  0
LINE
  5
C6
330
17
100
AcDbEntity
  8
0
100
AcDbLine
 10
514.0440000000002
 20
-546.8260000000001
 30
0.0
 11
514.3820000000002
 21
-547.3310000000001
 31
0.0
  0
LINE
  5
C7
330
17
100
AcDbEntity
  8
0
100
AcDbLine
 10
514.3820000000002
 20
-547.3310000000001
 30
0.0
 11
514.7570000000002
 21
-547.8030000000001
 31
0.0
  0
LINE
  5
C8
330
17
100
AcDbEntity
  8
0
100
AcDbLine
 10
514.7570000000002
 20
-547.8030000000001
 30
0.0
 11
515.1660000000002
 21
-548.2400000000001
 31
0.0
  0
LINE
  5
C9
330
17
100
AcDbEntity
  8
0
100
AcDbLine
 10
515.1660000000002
 20
-548.2400000000001
 30
0.0
 11
515.6070000000002
 21
-548.6410000000001
 31
0.0
  0
LINE
  5
CA
330
17
100
AcDbEntity
  8
0
100
AcDbLine
 10
515.6070000000002
 20
-548.6410000000001
 30
0.0
 11
516.0780000000002
 21
-549.0050000000001
 31
0.0
  0
LINE
  5
CB
330
17
100
AcDbEntity
  8
0
100
AcDbLine
 10
516.0780000000002
 20
-549.0050000000001
 30
0.0
 11
516.5750000000002
 21
-549.3300000000002
 31
0.0
  0
LINE
  5
CC
330
17
100
AcDbEntity
  8
0
100
AcDbLine
 10
516.5750000000002
 20
-549.3300000000002
 30
0.0
 11
517.0970000000002
 21
-549.6140000000001
 31
0.0
  0
LINE
  5
CD
330
17
100
AcDbEntity
  8
0
100
AcDbLine
 10
517.0970000000002
 20
-549.6140000000001
 30
0.0
 11
517.6410000000002
 21
-549.8560000000001
 31
0.0
  0
LINE
  5
CE
330
17
100
AcDbEntity
  8
0
100
AcDbLine
 10
517.6410000000002
 20
-549.8560000000001
 30
0.0
 11
518.2040000000002
 21
-550.0540000000001
 31
0.0
  0
LINE
  5
CF
330
17
100
AcDbEntity
  8
0
100
AcDbLine
 10
518.2040000000002
 20
-550.0540000000001
 30
0.0
 11
518.7830000000001
 21
-550.2070000000001
 31
0.0
  0
LINE
  5
D0
330
17
100
AcDbEntity
  8
0
100
AcDbLine
 10
518.7830000000001
 20
-550.2070000000001
 30
0.0
 11
519.3760000000001
 21
-550.3130000000001
 31
0.0
  0
LINE
  5
D1
330
17
100
AcDbEntity
  8
0
100
AcDbLine
 10
519.3760000000001
 20
-550.3130000000001
 30
0.0
 11
519.9810000000001
 21
-550.3710000000001
 31
0.0
  0
LINE
  5
D2
330
17
100
AcDbEntity
  8
0
100
AcDbLine
 10
519.9810000000001
 20
-550.3710000000001
 30
0.0
 11
520.5940000000002
 21
-550.3790000000001
 31
0.0
  0
LINE
  5
D3
330
17
100
AcDbEntity
  8
0
100
AcDbLine
 10
520.5940000000002
 20
-550.3790000000001
 30
0.0
 11
651.8450000000001
 21
-534.7510000000001
 31
0.0
  0
LINE
  5
D4
330
17
100
AcDbEntity
  8
0
100
AcDbLine
 10
651.8450000000001
 20
-534.7510000000001
 30
0.0
 11
652.4900000000001
 21
-534.5820000000001
 31
0.0
  0
LINE
  5
D5
330
17
100
AcDbEntity
  8
0
100
AcDbLine
 10
652.4900000000001
 20
-534.5820000000001
 30
0.0
 11
653.1100000000001
 21
-534.3580000000001
 31
0.0
  0
LINE
  5
D6
330
17
100
AcDbEntity
  8
0
100
AcDbLine
 10
653.1100000000001
 20
-534.3580000000001
 30
0.0
 11
653.7020000000001
 21
-534.081
 31
0.0
  0
LINE
  5
D7
330
17
100
AcDbEntity
  8
0
100
AcDbLine
 10
653.7020000000001
 20
-534.081
 30
0.0
 11
654.2630000000001
 21
-533.755
 31
0.0
  0
LINE
  5
D8
330
17
100
AcDbEntity
  8
0
100
AcDbLine
 10
654.2630000000001
 20
-533.755
 30
0.0
 11
654.7900000000002
 21
-533.383
 31
0.0
  0
LINE
  5
D9
330
17
100
AcDbEntity
  8
0
100
AcDbLine
 10
654.7900000000002
 20
-533.383
 30
0.0
 11
655.2810000000002
 21
-532.967
 31
0.0
  0
LINE
  5
DA
330
17
100
AcDbEntity
  8
0
100
AcDbLine
 10
655.2810000000002
 20
-532.967
 30
0.0
 11
655.7330000000002
 21
-532.51
 31
0.0
  0
LINE
  5
DB
330
17
100
AcDbEntity
  8
0
100
AcDbLine
 10
655.7330000000002
 20
-532.51
 30
0.0
 11
656.1430000000001
 21
-532.016
 31
0.0
  0
LINE
  5
DC
330
17
100
AcDbEntity
  8
0
100
AcDbLine
 10
656.1430000000001
 20
-532.016
 30
0.0
 11
656.5090000000001
 21
-531.487
 31
0.0
  0
LINE
  5
DD
330
17
100
AcDbEntity
  8
0
100
AcDbLine
 10
656.5090000000001
 20
-531.487
 30
0.0
 11
656.8270000000001
 21
-530.9259999999999
 31
0.0
  0
LINE
  5
DE
330
17
100
AcDbEntity
  8
0
100
AcDbLine
 10
656.8270000000001
 20
-530.9259999999999
 30
0.0
 11
657.0950000000001
 21
-530.3359999999999
 31
0.0
  0
LINE
  5
DF
330
17
100
AcDbEntity
  8
0
100
AcDbLine
 10
657.0950000000001
 20
-530.3359999999999
 30
0.0
 11
657.3100000000002
 21
-529.7209999999999
 31
0.0
  0
LINE
  5
E0
330
17
100
AcDbEntity
  8
0
100
AcDbLine
 10
657.3100000000002
 20
-529.7209999999999
 30
0.0
 11
657.4700000000001
 21
-529.0829999999999
 31
0.0
  0
LINE
  5
E1
330
17
100
AcDbEntity
  8
0
100
AcDbLine
 10
657.4700000000001
 20
-529.0829999999999
 30
0.0
 11
657.5710000000001
 21
-528.4239999999999
 31
0.0
  0
LINE
  5
E2
330
17
100
AcDbEntity
  8
0
100
AcDbLine
 10
657.5710000000001
 20
-528.4239999999999
 30
0.0
 11
657.5810000000001
 21
-524.1879999999999
 31
0.0
  0
LINE
  5
E3
330
17
100
AcDbEntity
  8
0
100
AcDbLine
 10
657.5810000000001
 20
-524.1879999999999
 30
0.0
 11
657.0680000000001
 21
-517.1619999999999
 31
0.0
  0
LINE
  5
E4
330
17
100
AcDbEntity
  8
0
100
AcDbLine
 10
657.0680000000001
 20
-517.1619999999999
 30
0.0
 11
655.9610000000001
 21
-510.28099999999995
 31
0.0
  0
LINE
  5
E5
330
17
100
AcDbEntity
  8
0
100
AcDbLine
 10
655.9610000000001
 20
-510.28099999999995
 30
0.0
 11
654.2750000000001
 21
-503.5679999999999
 31
0.0
  0
LINE
  5
E6
330
17
100
AcDbEntity
  8
0
100
AcDbLine
 10
654.2750000000001
 20
-503.5679999999999
 30
0.0
 11
652.0230000000001
 21
-497.0469999999999
 31
0.0
  0
LINE
  5
E7
330
17
100
AcDbEntity
  8
0
100
AcDbLine
 10
652.0230000000001
 20
-497.0469999999999
 30
0.0
 11
649.2190000000002
 21
-490.7399999999999
 31
0.0
  0
LINE
  5
E8
330
17
100
AcDbEntity
  8
0
100
AcDbLine
 10
649.2190000000002
 20
-490.7399999999999
 30
0.0
 11
645.8770000000002
 21
-484.6709999999999
 31
0.0
  0
LINE
  5
E9
330
17
100
AcDbEntity
  8
0
100
AcDbLine
 10
645.8770000000002
 20
-484.6709999999999
 30
0.0
 11
639.8860000000002
 21
-476.0629999999999
 31
0.0
  0
LINE
  5
EA
330
17
100
AcDbEntity
  8
0
100
AcDbLine
 10
292.2290000000002
 20
-326.5029999999999
 30
0.0
 11
280.9620000000002
 21
-293.8289999999999
 31
0.0
  0
LINE
  5
EB
330
17
100
AcDbEntity
  8
0
100
AcDbLine
 10
280.9620000000002
 20
-293.8289999999999
 30
0.0
 11
227.72500000000022
 21
-293.8289999999999
 31
0.0
  0
LINE
  5
EC
330
17
100
AcDbEntity
  8
0
100
AcDbLine
 10
227.72500000000022
 20
-293.8289999999999
 30
0.0
 11
231.17600000000022
 21
-308.3209999999999
 31
0.0
  0
LINE
  5
ED
330
17
100
AcDbEntity
  8
0
100
AcDbLine
 10
231.17600000000022
 20
-308.3209999999999
 30
0.0
 11
231.83800000000022
 21
-310.40899999999993
 31
0.0
  0
LINE
  5
EE
330
17
100
AcDbEntity
  8
0
100
AcDbLine
 10
231.83800000000022
 20
-310.40899999999993
 30
0.0
 11
232.67400000000023
 21
-312.40599999999995
 31
0.0
  0
LINE
  5
EF
330
17
100
AcDbEntity
  8
0
100
AcDbLine
 10
232.67400000000023
 20
-312.40599999999995
 30
0.0
 11
233.67500000000024
 21
-314.304
 31
0.0
  0
LINE
  5
F0
330
17
100
AcDbEntity
  8
0
100
AcDbLine
 10
233.67500000000024
 20
-314.304
 30
0.0
 11
234.83100000000024
 21
-316.09499999999997
 31
0.0
  0
LINE
  5
F1
330
17
100
AcDbEntity
  8
0
100
AcDbLine
 10
234.83100000000024
 20
-316.09499999999997
 30
0.0
 11
236.13300000000024
 21
-317.77099999999996
 31
0.0
  0
LINE
  5
F2
330
17
100
AcDbEntity
  8
0
100
AcDbLine
 10
236.13300000000024
 20
-317.77099999999996
 30
0.0
 11
237.57100000000023
 21
-319.32499999999993
 31
0.0
  0
LINE
  5
F3
330
17
100
AcDbEntity
  8
0
100
AcDbLine
 10
237.57100000000023
 20
-319.32499999999993
 30
0.0
 11
239.13500000000022
 21
-320.74799999999993
 31
0.0
  0
LINE
  5
F4
330
17
100
AcDbEntity
  8
0
100
AcDbLine
 10
239.13500000000022
 20
-320.74799999999993
 30
0.0
 11
240.81500000000023
 21
-322.03299999999996
 31
0.0
  0
LINE
  5
F5
330
17
100
AcDbEntity
  8
0
100
AcDbLine
 10
240.81500000000023
 20
-322.03299999999996
 30
0.0
 11
242.60200000000023
 21
-323.17199999999997
 31
0.0
  0
LINE
  5
F6
330
17
100
AcDbEntity
  8
0
100
AcDbLine
 10
242.60200000000023
 20
-323.17199999999997
 30
0.0
 11
244.48600000000022
 21
-324.157
 31
0.0
  0
LINE
  5
F7
330
17
100
AcDbEntity
  8
0
100
AcDbLine
 10
244.48600000000022
 20
-324.157
 30
0.0
 11
246.45700000000022
 21
-324.981
 31
0.0
  0
LINE
  5
F8
330
17
100
AcDbEntity
  8
0
100
AcDbLine
 10
246.45700000000022
 20
-324.981
 30
0.0
 11
248.50500000000022
 21
-325.635
 31
0.0
  0
LINE
  5
F9
330
17
100
AcDbEntity
  8
0
100
AcDbLine
 10
248.50500000000022
 20
-325.635
 30
0.0
 11
250.62100000000024
 21
-326.11199999999997
 31
0.0
  0
LINE
  5
FA
330
17
100
AcDbEntity
  8
0
100
AcDbLine
 10
250.62100000000024
 20
-326.11199999999997
 30
0.0
 11
252.79500000000024
 21
-326.40399999999994
 31
0.0
  0
LINE
  5
FB
330
17
100
AcDbEntity
  8
0
100
AcDbLine
 10
252.79500000000024
 20
-326.40399999999994
 30
0.0
 11
292.22900000000027
 21
-326.50299999999993
 31
0.0
  0
ENDSEC
  0
SECTION
  2
OBJECTS
  0
DICTIONARY
  5
A
330
0
100
AcDbDictionary
281
1
  3
ACAD_COLOR
350
B
  3
ACAD_GROUP
350
C
  3
ACAD_LAYOUT
350
D
  3
ACAD_MATERIAL
350
E
  3
ACAD_MLEADERSTYLE
350
F
  3
ACAD_MLINESTYLE
350
10
  3
ACAD_PLOTSETTINGS
350
11
  3
ACAD_PLOTSTYLENAME
350
12
  3
ACAD_SCALELIST
350
14
  3
ACAD_TABLESTYLE
350
15
  3
ACAD_VISUALSTYLE
350
16
  3
EZDXF_META
350
2D
  0
DICTIONARY
  5
B
330
A
100
AcDbDictionary
281
1
  0
DICTIONARY
  5
C
330
A
100
AcDbDictionary
281
1
  0
DICTIONARY
  5
D
330
A
100
AcDbDictionary
281
1
  3
Model
350
1A
  3
Layout1
350
1E
  0
DICTIONARY
  5
E
330
A
100
AcDbDictionary
281
1
  3
ByBlock
350
1F
  3
ByLayer
350
20
  3
Global
350
21
  0
DICTIONARY
  5
F
330
A
100
AcDbDictionary
281
1
  3
Standard
350
2C
  0
DICTIONARY
  5
10
330
A
100
AcDbDictionary
281
1
  3
Standard
350
22
  0
DICTIONARY
  5
11
330
A
100
AcDbDictionary
281
1
  0
ACDBDICTIONARYWDFLT
  5
12
330
A
100
AcDbDictionary
281
1
  3
Normal
350
13
100
AcDbDictionaryWithDefault
340
13
  0
ACDBPLACEHOLDER
  5
13
330
12
  0
DICTIONARY
  5
14
330
A
100
AcDbDictionary
281
1
  0
DICTIONARY
  5
15
330
A
100
AcDbDictionary
281
1
  0
DICTIONARY
  5
16
330
A
100
AcDbDictionary
281
1
  0
LAYOUT
  5
1A
330
D
100
AcDbPlotSettings
  1

  4
A3
  6

 40
7.5
 41
20.0
 42
7.5
 43
20.0
 44
420.0
 45
297.0
 46
0.0
 47
0.0
 48
0.0
 49
0.0
140
0.0
141
0.0
142
1.0
143
1.0
 70
1024
 72
1
 73
0
 74
5
  7

 75
16
 76
0
 77
2
 78
300
147
1.0
148
0.0
149
0.0
100
AcDbLayout
  1
Model
 70
1
 71
0
 10
0.0
 20
0.0
 11
420.0
 21
297.0
 12
0.0
 22
0.0
 32
0.0
 14
1e+20
 24
1e+20
 34
1e+20
 15
-1e+20
 25
-1e+20
 35
-1e+20
146
0.0
 13
0.0
 23
0.0
 33
0.0
 16
1.0
 26
0.0
 36
0.0
 17
0.0
 27
1.0
 37
0.0
 76
1
330
17
  0
LAYOUT
  5
1E
330
D
100
AcDbPlotSettings
  1

  4
A3
  6

 40
7.5
 41
20.0
 42
7.5
 43
20.0
 44
420.0
 45
297.0
 46
0.0
 47
0.0
 48
0.0
 49
0.0
140
0.0
141
0.0
142
1.0
143
1.0
 70
0
 72
1
 73
0
 74
5
  7

 75
16
 76
0
 77
2
 78
300
147
1.0
148
0.0
149
0.0
100
AcDbLayout
  1
Layout1
 70
1
 71
1
 10
0.0
 20
0.0
 11
420.0
 21
297.0
 12
0.0
 22
0.0
 32
0.0
 14
1e+20
 24
1e+20
 34
1e+20
 15
-1e+20
 25
-1e+20
 35
-1e+20
146
0.0
 13
0.0
 23
0.0
 33
0.0
 16
1.0
 26
0.0
 36
0.0
 17
0.0
 27
1.0
 37
0.0
 76
1
330
1B
  0
MATERIAL
  5
1F
102
{ACAD_REACTORS
330
E
102
}
330
E
100
AcDbMaterial
  1
ByBlock
  2

 70
0
 40
1.0
 71
1
 41
1.0
 91
-1023410177
 42
1.0
 72
1
  3

 73
1
 74
1
 75
1
 44
0.5
 73
0
 45
1.0
 46
1.0
 77
1
  4

 78
1
 79
1
170
1
 48
1.0
171
1
  6

172
1
173
1
174
1
140
1.0
141
1.0
175
1
  7

176
1
177
1
178
1
143
1.0
179
1
  8

270
1
271
1
272
1
145
1.0
146
1.0
273
1
  9

274
1
275
1
276
1
 42
1.0
 72
1
  3

 73
1
 74
1
 75
1
 94
63
  0
MATERIAL
  5
20
102
{ACAD_REACTORS
330
E
102
}
330
E
100
AcDbMaterial
  1
ByLayer
  2

 70
0
 40
1.0
 71
1
 41
1.0
 91
-1023410177
 42
1.0
 72
1
  3

 73
1
 74
1
 75
1
 44
0.5
 73
0
 45
1.0
 46
1.0
 77
1
  4

 78
1
 79
1
170
1
 48
1.0
171
1
  6

172
1
173
1
174
1
140
1.0
141
1.0
175
1
  7

176
1
177
1
178
1
143
1.0
179
1
  8

270
1
271
1
272
1
145
1.0
146
1.0
273
1
  9

274
1
275
1
276
1
 42
1.0
 72
1
  3

 73
1
 74
1
 75
1
 94
63
  0
MATERIAL
  5
21
102
{ACAD_REACTORS
330
E
102
}
330
E
100
AcDbMaterial
  1
Global
  2

 70
0
 40
1.0
 71
1
 41
1.0
 91
-1023410177
 42
1.0
 72
1
  3

 73
1
 74
1
 75
1
 44
0.5
 73
0
 45
1.0
 46
1.0
 77
1
  4

 78
1
 79
1
170
1
 48
1.0
171
1
  6

172
1
173
1
174
1
140
1.0
141
1.0
175
1
  7

176
1
177
1
178
1
143
1.0
179
1
  8

270
1
271
1
272
1
145
1.0
146
1.0
273
1
  9

274
1
275
1
276
1
 42
1.0
 72
1
  3

 73
1
 74
1
 75
1
 94
63
  0
MLINESTYLE
  5
22
102
{ACAD_REACTORS
330
10
102
}
330
10
100
AcDbMlineStyle
  2
Standard
 70
0
  3

 62
256
 51
90.0
 52
90.0
 71
2
 49
0.5
 62
256
  6
BYLAYER
 49
-0.5
 62
256
  6
BYLAYER
  0
MLEADERSTYLE
  5
2C
102
{ACAD_REACTORS
330
F
102
}
330
F
100
AcDbMLeaderStyle
179
2
170
2
171
1
172
0
 90
2
 40
0.0
 41
0.0
173
1
 91
-1056964608
 92
-2
290
1
 42
2.0
291
1
 43
8.0
  3
Standard
 44
4.0
300

342
29
174
1
175
1
176
0
178
1
 93
-1056964608
 45
4.0
292
0
297
0
 46
4.0
 94
-1056964608
 47
1.0
 49
1.0
140
1.0
294
1
141
0.0
177
0
142
1.0
295
0
296
0
143
3.75
271
0
272
9
273
9
  0
DICTIONARY
  5
2D
330
A
100
AcDbDictionary
280
1
281
1
  3
CREATED_BY_EZDXF
350
2E
  3
WRITTEN_BY_EZDXF
350
FE
  0
DICTIONARYVAR
  5
2E
330
2D
100
DictionaryVariables
280
0
  1
1.4.3 @ 2026-04-08T00:10:10.878942+00:00
  0
DICTIONARYVAR
  5
FE
330
2D
100
DictionaryVariables
280
0
  1
1.4.3 @ 2026-04-08T00:10:10.880903+00:00
  0
ENDSEC
  0
EOF
