  0
SECTION
  2
HEADER
  9
$ACADVER
  1
AC1024
  9
$ACADMAINTVER
 70
6
  9
$DWGCODEPAGE
  3
ANSI_1252
  9
$LASTSAVEDBY
  1
ezdxf
  9
$INSBASE
 10
0.0
 20
0.0
 30
0.0
  9
$EXTMIN
 10
1e+20
 20
1e+20
 30
1e+20
  9
$EXTMAX
 10
-1e+20
 20
-1e+20
 30
-1e+20
  9
$LIMMIN
 10
0.0
 20
0.0
  9
$LIMMAX
 10
420.0
 20
297.0
  9
$ORTHOMODE
 70
0
  9
$REGENMODE
 70
1
  9
$FILLMODE
 70
1
  9
$QTEXTMODE
 70
0
  9
$MIRRTEXT
 70
1
  9
$LTSCALE
 40
1.0
  9
$ATTMODE
 70
1
  9
$TEXTSIZE
 40
2.5
  9
$TRACEWID
 40
1.0
  9
$TEXTSTYLE
  7
Standard
  9
$CLAYER
  8
0
  9
$CELTYPE
  6
ByLayer
  9
$CECOLOR
 62
256
  9
$CELTSCALE
 40
1.0
  9
$DISPSILH
 70
0
  9
$DIMSCALE
 40
1.0
  9
$DIMASZ
 40
2.5
  9
$DIMEXO
 40
0.625
  9
$DIMDLI
 40
3.75
  9
$DIMRND
 40
0.0
  9
$DIMDLE
 40
0.0
  9
$DIMEXE
 40
1.25
  9
$DIMTP
 40
0.0
  9
$DIMTM
 40
0.0
  9
$DIMTXT
 40
2.5
  9
$DIMCEN
 40
2.5
  9
$DIMTSZ
 40
0.0
  9
$DIMTOL
 70
0
  9
$DIMLIM
 70
0
  9
$DIMTIH
 70
0
  9
$DIMTOH
 70
0
  9
$DIMSE1
 70
0
  9
$DIMSE2
 70
0
  9
$DIMTAD
 70
1
  9
$DIMZIN
 70
8
  9
$DIMBLK
  1

  9
$DIMASO
 70
1
  9
$DIMSHO
 70
1
  9
$DIMPOST
  1

  9
$DIMAPOST
  1

  9
$DIMALT
 70
0
  9
$DIMALTD
 70
3
  9
$DIMALTF
 40
0.03937007874
  9
$DIMLFAC
 40
1.0
  9
$DIMTOFL
 70
1
  9
$DIMTVP
 40
0.0
  9
$DIMTIX
 70
0
  9
$DIMSOXD
 70
0
  9
$DIMSAH
 70
0
  9
$DIMBLK1
  1

  9
$DIMBLK2
  1

  9
$DIMSTYLE
  2
ISO-25
  9
$DIMCLRD
 70
0
  9
$DIMCLRE
 70
0
  9
$DIMCLRT
 70
0
  9
$DIMTFAC
 40
1.0
  9
$DIMGAP
 40
0.625
  9
$DIMJUST
 70
0
  9
$DIMSD1
 70
0
  9
$DIMSD2
 70
0
  9
$DIMTOLJ
 70
0
  9
$DIMTZIN
 70
8
  9
$DIMALTZ
 70
0
  9
$DIMALTTZ
 70
0
  9
$DIMUPT
 70
0
  9
$DIMDEC
 70
2
  9
$DIMTDEC
 70
2
  9
$DIMALTU
 70
2
  9
$DIMALTTD
 70
3
  9
$DIMTXSTY
  7
Standard
  9
$DIMAUNIT
 70
0
  9
$DIMADEC
 70
0
  9
$DIMALTRND
 40
0.0
  9
$DIMAZIN
 70
0
  9
$DIMDSEP
 70
44
  9
$DIMATFIT
 70
3
  9
$DIMFRAC
 70
0
  9
$DIMLDRBLK
  1

  9
$DIMLUNIT
 70
2
  9
$DIMLWD
 70
-2
  9
$DIMLWE
 70
-2
  9
$DIMTMOVE
 70
0
  9
$DIMFXL
 40
1.0
  9
$DIMFXLON
 70
0
  9
$DIMJOGANG
 40
0.785398163397
  9
$DIMTFILL
 70
0
  9
$DIMTFILLCLR
 70
0
  9
$DIMARCSYM
 70
0
  9
$DIMLTYPE
  6

  9
$DIMLTEX1
  6

  9
$DIMLTEX2
  6

  9
$DIMTXTDIRECTION
 70
0
  9
$LUNITS
 70
2
  9
$LUPREC
 70
4
  9
$SKETCHINC
 40
1.0
  9
$FILLETRAD
 40
10.0
  9
$AUNITS
 70
0
  9
$AUPREC
 70
2
  9
$MENU
  1
.
  9
$ELEVATION
 40
0.0
  9
$PELEVATION
 40
0.0
  9
$THICKNESS
 40
0.0
  9
$LIMCHECK
 70
0
  9
$CHAMFERA
 40
0.0
  9
$CHAMFERB
 40
0.0
  9
$CHAMFERC
 40
0.0
  9
$CHAMFERD
 40
0.0
  9
$SKPOLY
 70
0
  9
$TDCREATE
 40
2461138.7153935186
  9
$TDUCREATE
 40
2458532.153996898
  9
$TDUPDATE
 40
2461138.7153935186
  9
$TDUUPDATE
 40
2458532.1544311
  9
$TDINDWG
 40
0.0
  9
$TDUSRTIMER
 40
0.0
  9
$USRTIMER
 70
1
  9
$ANGBASE
 50
0.0
  9
$ANGDIR
 70
0
  9
$PDMODE
 70
0
  9
$PDSIZE
 40
0.0
  9
$PLINEWID
 40
0.0
  9
$SPLFRAME
 70
0
  9
$SPLINETYPE
 70
6
  9
$SPLINESEGS
 70
8
  9
$HANDSEED
  5
135
  9
$SURFTAB1
 70
6
  9
$SURFTAB2
 70
6
  9
$SURFTYPE
 70
6
  9
$SURFU
 70
6
  9
$SURFV
 70
6
  9
$UCSBASE
  2

  9
$UCSNAME
  2

  9
$UCSORG
 10
0.0
 20
0.0
 30
0.0
  9
$UCSXDIR
 10
1.0
 20
0.0
 30
0.0
  9
$UCSYDIR
 10
0.0
 20
1.0
 30
0.0
  9
$UCSORTHOREF
  2

  9
$UCSORTHOVIEW
 70
0
  9
$UCSORGTOP
 10
0.0
 20
0.0
 30
0.0
  9
$UCSORGBOTTOM
 10
0.0
 20
0.0
 30
0.0
  9
$UCSORGLEFT
 10
0.0
 20
0.0
 30
0.0
  9
$UCSORGRIGHT
 10
0.0
 20
0.0
 30
0.0
  9
$UCSORGFRONT
 10
0.0
 20
0.0
 30
0.0
  9
$UCSORGBACK
 10
0.0
 20
0.0
 30
0.0
  9
$PUCSBASE
  2

  9
$PUCSNAME
  2

  9
$PUCSORG
 10
0.0
 20
0.0
 30
0.0
  9
$PUCSXDIR
 10
1.0
 20
0.0
 30
0.0
  9
$PUCSYDIR
 10
0.0
 20
1.0
 30
0.0
  9
$PUCSORTHOREF
  2

  9
$PUCSORTHOVIEW
 70
0
  9
$PUCSORGTOP
 10
0.0
 20
0.0
 30
0.0
  9
$PUCSORGBOTTOM
 10
0.0
 20
0.0
 30
0.0
  9
$PUCSORGLEFT
 10
0.0
 20
0.0
 30
0.0
  9
$PUCSORGRIGHT
 10
0.0
 20
0.0
 30
0.0
  9
$PUCSORGFRONT
 10
0.0
 20
0.0
 30
0.0
  9
$PUCSORGBACK
 10
0.0
 20
0.0
 30
0.0
  9
$USERI1
 70
0
  9
$USERI2
 70
0
  9
$USERI3
 70
0
  9
$USERI4
 70
0
  9
$USERI5
 70
0
  9
$USERR1
 40
0.0
  9
$USERR2
 40
0.0
  9
$USERR3
 40
0.0
  9
$USERR4
 40
0.0
  9
$USERR5
 40
0.0
  9
$WORLDVIEW
 70
1
  9
$SHADEDGE
 70
3
  9
$SHADEDIF
 70
70
  9
$TILEMODE
 70
1
  9
$MAXACTVP
 70
64
  9
$PINSBASE
 10
0.0
 20
0.0
 30
0.0
  9
$PLIMCHECK
 70
0
  9
$PEXTMIN
 10
1e+20
 20
1e+20
 30
1e+20
  9
$PEXTMAX
 10
-1e+20
 20
-1e+20
 30
-1e+20
  9
$PLIMMIN
 10
0.0
 20
0.0
  9
$PLIMMAX
 10
420.0
 20
297.0
  9
$UNITMODE
 70
0
  9
$VISRETAIN
 70
1
  9
$PLINEGEN
 70
0
  9
$PSLTSCALE
 70
1
  9
$TREEDEPTH
 70
3020
  9
$CMLSTYLE
  2
Standard
  9
$CMLJUST
 70
0
  9
$CMLSCALE
 40
20.0
  9
$PROXYGRAPHICS
 70
1
  9
$MEASUREMENT
 70
1
  9
$CELWEIGHT
370
-1
  9
$ENDCAPS
280
0
  9
$JOINSTYLE
280
0
  9
$LWDISPLAY
290
0
  9
$INSUNITS
 70
6
  9
$HYPERLINKBASE
  1

  9
$STYLESHEET
  1

  9
$XEDIT
290
1
  9
$CEPSNTYPE
380
0
  9
$PSTYLEMODE
290
1
  9
$FINGERPRINTGUID
  2
{32F9E106-559F-49EE-B677-A6D8E05A8CE5}
  9
$VERSIONGUID
  2
{25CBAB3C-2229-43FA-87D7-86B6432F84C5}
  9
$EXTNAMES
290
1
  9
$PSVPSCALE
 40
0.0
  9
$OLESTARTUP
290
0
  9
$SORTENTS
280
127
  9
$INDEXCTL
280
0
  9
$HIDETEXT
280
1
  9
$XCLIPFRAME
280
1
  9
$HALOGAP
280
0
  9
$OBSCOLOR
 70
257
  9
$OBSLTYPE
280
0
  9
$INTERSECTIONDISPLAY
280
0
  9
$INTERSECTIONCOLOR
 70
257
  9
$DIMASSOC
280
2
  9
$PROJECTNAME
  1

  9
$CAMERADISPLAY
290
0
  9
$LENSLENGTH
 40
50.0
  9
$CAMERAHEIGHT
 40
0.0
  9
$STEPSPERSEC
 40
24.0
  9
$STEPSIZE
 40
100.0
  9
$3DDWFPREC
 40
2.0
  9
$PSOLWIDTH
 40
0.005
  9
$PSOLHEIGHT
 40
0.08
  9
$LOFTANG1
 40
1.570796326795
  9
$LOFTANG2
 40
1.570796326795
  9
$LOFTMAG1
 40
0.0
  9
$LOFTMAG2
 40
0.0
  9
$LOFTPARAM
 70
7
  9
$LOFTNORMALS
280
1
  9
$LATITUDE
 40
37.795
  9
$LONGITUDE
 40
-122.394
  9
$NORTHDIRECTION
 40
0.0
  9
$TIMEZONE
 70
-8000
  9
$LIGHTGLYPHDISPLAY
280
1
  9
$TILEMODELIGHTSYNCH
280
1
  9
$CMATERIAL
347
20
  9
$SOLIDHIST
280
0
  9
$SHOWHIST
280
1
  9
$DWFFRAME
280
2
  9
$DGNFRAME
280
2
  9
$REALWORLDSCALE
290
1
  9
$INTERFERECOLOR
 62
256
  9
$CSHADOW
280
0
  9
$SHADOWPLANELOCATION
 40
0.0
  0
ENDSEC
  0
SECTION
  2
CLASSES
  0
CLASS
  1
ACDBDICTIONARYWDFLT
  2
AcDbDictionaryWithDefault
  3
ObjectDBX Classes
 90
0
 91
0
280
0
281
0
  0
CLASS
  1
SUN
  2
AcDbSun
  3
SCENEOE
 90
1153
 91
0
280
0
281
0
  0
CLASS
  1
VISUALSTYLE
  2
AcDbVisualStyle
  3
ObjectDBX Classes
 90
4095
 91
0
280
0
281
0
  0
CLASS
  1
MATERIAL
  2
AcDbMaterial
  3
ObjectDBX Classes
 90
1153
 91
0
280
0
281
0
  0
CLASS
  1
SCALE
  2
AcDbScale
  3
ObjectDBX Classes
 90
1153
 91
0
280
0
281
0
  0
CLASS
  1
TABLESTYLE
  2
AcDbTableStyle
  3
ObjectDBX Classes
 90
4095
 91
0
280
0
281
0
  0
CLASS
  1
MLEADERSTYLE
  2
AcDbMLeaderStyle
  3
ACDB_MLEADERSTYLE_CLASS
 90
4095
 91
0
280
0
281
0
  0
CLASS
  1
DICTIONARYVAR
  2
AcDbDictionaryVar
  3
ObjectDBX Classes
 90
0
 91
0
280
0
281
0
  0
CLASS
  1
CELLSTYLEMAP
  2
AcDbCellStyleMap
  3
ObjectDBX Classes
 90
1152
 91
0
280
0
281
0
  0
CLASS
  1
MENTALRAYRENDERSETTINGS
  2
AcDbMentalRayRenderSettings
  3
SCENEOE
 90
1024
 91
0
280
0
281
0
  0
CLASS
  1
ACDBDETAILVIEWSTYLE
  2
AcDbDetailViewStyle
  3
ObjectDBX Classes
 90
1025
 91
0
280
0
281
0
  0
CLASS
  1
ACDBSECTIONVIEWSTYLE
  2
AcDbSectionViewStyle
  3
ObjectDBX Classes
 90
1025
 91
0
280
0
281
0
  0
CLASS
  1
RASTERVARIABLES
  2
AcDbRasterVariables
  3
ISM
 90
0
 91
0
280
0
281
0
  0
CLASS
  1
ACDBPLACEHOLDER
  2
AcDbPlaceHolder
  3
ObjectDBX Classes
 90
0
 91
0
280
0
281
0
  0
CLASS
  1
LAYOUT
  2
AcDbLayout
  3
ObjectDBX Classes
 90
0
 91
0
280
0
281
0
  0
ENDSEC
  0
SECTION
  2
TABLES
  0
TABLE
  2
VPORT
  5
8
330
0
100
AcDbSymbolTable
 70
1
  0
VPORT
  5
23
330
8
100
AcDbSymbolTableRecord
100
AcDbViewportTableRecord
  2
*Active
 70
0
 10
0.0
 20
0.0
 11
1.0
 21
1.0
 12
0.0
 22
0.0
 13
0.0
 23
0.0
 14
0.5
 24
0.5
 15
0.5
 25
0.5
 16
0.0
 26
0.0
 36
1.0
 17
0.0
 27
0.0
 37
0.0
 40
1000.0
 41
1.34
 42
50.0
 43
0.0
 44
0.0
 50
0.0
 51
0.0
 71
0
 72
1000
 73
1
 74
3
 75
0
 76
0
 77
0
 78
0
281
0
 65
0
146
0.0
  0
ENDTAB
  0
TABLE
  2
LTYPE
  5
2
330
0
100
AcDbSymbolTable
 70
3
  0
LTYPE
  5
24
330
2
100
AcDbSymbolTableRecord
100
AcDbLinetypeTableRecord
  2
ByBlock
 70
0
  3

 72
65
 73
0
 40
0.0
  0
LTYPE
  5
25
330
2
100
AcDbSymbolTableRecord
100
AcDbLinetypeTableRecord
  2
ByLayer
 70
0
  3

 72
65
 73
0
 40
0.0
  0
LTYPE
  5
26
330
2
100
AcDbSymbolTableRecord
100
AcDbLinetypeTableRecord
  2
Continuous
 70
0
  3

 72
65
 73
0
 40
0.0
  0
ENDTAB
  0
TABLE
  2
LAYER
  5
1
330
0
100
AcDbSymbolTable
 70
2
  0
LAYER
  5
27
330
1
100
AcDbSymbolTableRecord
100
AcDbLayerTableRecord
  2
0
 70
0
 62
7
  6
Continuous
370
-3
390
13
347
21
  0
LAYER
  5
28
330
1
100
AcDbSymbolTableRecord
100
AcDbLayerTableRecord
  2
Defpoints
 70
0
 62
7
  6
Continuous
290
0
370
-3
390
13
347
21
  0
ENDTAB
  0
TABLE
  2
STYLE
  5
5
330
0
100
AcDbSymbolTable
 70
1
  0
STYLE
  5
29
330
5
100
AcDbSymbolTableRecord
100
AcDbTextStyleTableRecord
  2
Standard
 70
0
 40
0.0
 41
1.0
 50
0.0
 71
0
 42
2.5
  3
txt
  4

  0
ENDTAB
  0
TABLE
  2
VIEW
  5
7
330
0
100
AcDbSymbolTable
 70
0
  0
ENDTAB
  0
TABLE
  2
UCS
  5
6
330
0
100
AcDbSymbolTable
 70
0
  0
ENDTAB
  0
TABLE
  2
APPID
  5
3
330
0
100
AcDbSymbolTable
 70
3
  0
APPID
  5
2A
330
3
100
AcDbSymbolTableRecord
100
AcDbRegAppTableRecord
  2
ACAD
 70
0
  0
APPID
  5
132
330
3
100
AcDbSymbolTableRecord
100
AcDbRegAppTableRecord
  2
HATCHBACKGROUNDCOLOR
 70
0
  0
APPID
  5
133
330
3
100
AcDbSymbolTableRecord
100
AcDbRegAppTableRecord
  2
EZDXF
 70
0
  0
ENDTAB
  0
TABLE
  2
DIMSTYLE
  5
4
330
0
100
AcDbSymbolTable
 70
1
100
AcDbDimStyleTable
  0
DIMSTYLE
105
2B
330
4
100
AcDbSymbolTableRecord
100
AcDbDimStyleTableRecord
  2
Standard
 70
0
 40
1.0
 41
2.5
 42
0.625
 43
3.75
 44
1.25
 45
0.0
 46
0.0
 47
0.0
 48
0.0
 49
2.5
140
2.5
141
2.5
142
0.0
143
0.03937007874
144
1.0
145
0.0
146
1.0
147
0.625
148
0.0
 69
0
 70
0
 71
0
 72
0
 73
0
 74
0
 75
0
 76
0
 77
1
 78
8
 79
3
170
0
171
3
172
1
173
0
174
0
175
0
176
0
177
0
178
0
179
2
271
2
272
2
273
2
274
3
275
0
276
0
277
2
278
44
279
0
280
0
281
0
282
0
283
0
284
8
285
0
286
0
288
0
289
3
290
0
371
-2
372
-2
  0
ENDTAB
  0
TABLE
  2
BLOCK_RECORD
  5
9
330
0
100
AcDbSymbolTable
 70
2
  0
BLOCK_RECORD
  5
17
330
9
100
AcDbSymbolTableRecord
100
AcDbBlockTableRecord
  2
*Model_Space
340
1A
 70
0
280
1
281
0
  0
BLOCK_RECORD
  5
1B
330
9
100
AcDbSymbolTableRecord
100
AcDbBlockTableRecord
  2
*Paper_Space
340
1E
 70
0
280
1
281
0
  0
ENDTAB
  0
ENDSEC
  0
SECTION
  2
BLOCKS
  0
BLOCK
  5
18
330
17
100
AcDbEntity
  8
0
100
AcDbBlockBegin
  2
*Model_Space
 70
0
 10
0.0
 20
0.0
 30
0.0
  3
*Model_Space
  1

  0
ENDBLK
  5
19
330
17
100
AcDbEntity
  8
0
100
AcDbBlockEnd
  0
BLOCK
  5
1C
330
1B
100
AcDbEntity
  8
0
100
AcDbBlockBegin
  2
*Paper_Space
 70
0
 10
0.0
 20
0.0
 30
0.0
  3
*Paper_Space
  1

  0
ENDBLK
  5
1D
330
1B
100
AcDbEntity
  8
0
100
AcDbBlockEnd
  0
ENDSEC
  0
SECTION
  2
ENTITIES
  0
LINE
  5
2F
330
17
100
AcDbEntity
  8
0
100
AcDbLine
 10
136.217
 20
-706.484
 30
0.0
 11
136.217
 21
-773.667
 31
0.0
  0
LINE
  5
30
330
17
100
AcDbEntity
  8
0
100
AcDbLine
 10
136.217
 20
-773.667
 30
0.0
 11
106.99400000000001
 21
-773.667
 31
0.0
  0
LINE
  5
31
330
17
100
AcDbEntity
  8
0
100
AcDbLine
 10
106.99400000000001
 20
-773.667
 30
0.0
 11
106.99400000000001
 21
-706.484
 31
0.0
  0
LINE
  5
32
330
17
100
AcDbEntity
  8
0
100
AcDbLine
 10
106.99400000000001
 20
-706.484
 30
0.0
 11
136.217
 21
-706.484
 31
0.0
  0
LINE
  5
33
330
17
100
AcDbEntity
  8
0
100
AcDbLine
 10
132.24300000000002
 20
-968.635
 30
0.0
 11
153.19400000000002
 21
-941.867
 31
0.0
  0
LINE
  5
34
330
17
100
AcDbEntity
  8
0
100
AcDbLine
 10
153.19400000000002
 20
-941.867
 30
0.0
 11
160.91700000000003
 21
-929.399
 31
0.0
  0
LINE
  5
35
330
17
100
AcDbEntity
  8
0
100
AcDbLine
 10
160.91700000000003
 20
-929.399
 30
0.0
 11
171.61200000000002
 21
-907.626
 31
0.0
  0
LINE
  5
36
330
17
100
AcDbEntity
  8
0
100
AcDbLine
 10
171.61200000000002
 20
-907.626
 30
0.0
 11
178.28900000000002
 21
-889.3539999999999
 31
0.0
  0
LINE
  5
37
330
17
100
AcDbEntity
  8
0
100
AcDbLine
 10
178.28900000000002
 20
-889.3539999999999
 30
0.0
 11
180.508
 21
-879.963
 31
0.0
  0
LINE
  5
38
330
17
100
AcDbEntity
  8
0
100
AcDbLine
 10
180.508
 20
-879.963
 30
0.0
 11
182.059
 21
-868.4459999999999
 31
0.0
  0
LINE
  5
39
330
17
100
AcDbEntity
  8
0
100
AcDbLine
 10
182.059
 20
-868.4459999999999
 30
0.0
 11
182.239
 21
-857.8679999999999
 31
0.0
  0
LINE
  5
3A
330
17
100
AcDbEntity
  8
0
100
AcDbLine
 10
182.239
 20
-857.8679999999999
 30
0.0
 11
181.189
 21
-848.1909999999999
 31
0.0
  0
LINE
  5
3B
330
17
100
AcDbEntity
  8
0
100
AcDbLine
 10
181.189
 20
-848.1909999999999
 30
0.0
 11
179.049
 21
-839.377
 31
0.0
  0
LINE
  5
3C
330
17
100
AcDbEntity
  8
0
100
AcDbLine
 10
179.049
 20
-839.377
 30
0.0
 11
175.959
 21
-831.3889999999999
 31
0.0
  0
LINE
  5
3D
330
17
100
AcDbEntity
  8
0
100
AcDbLine
 10
175.959
 20
-831.3889999999999
 30
0.0
 11
172.059
 21
-824.1899999999999
 31
0.0
  0
LINE
  5
3E
330
17
100
AcDbEntity
  8
0
100
AcDbLine
 10
172.059
 20
-824.1899999999999
 30
0.0
 11
167.489
 21
-817.741
 31
0.0
  0
LINE
  5
3F
330
17
100
AcDbEntity
  8
0
100
AcDbLine
 10
167.489
 20
-817.741
 30
0.0
 11
162.39000000000001
 21
-812.006
 31
0.0
  0
LINE
  5
40
330
17
100
AcDbEntity
  8
0
100
AcDbLine
 10
162.39000000000001
 20
-812.006
 30
0.0
 11
156.90200000000002
 21
-806.947
 31
0.0
  0
LINE
  5
41
330
17
100
AcDbEntity
  8
0
100
AcDbLine
 10
156.90200000000002
 20
-806.947
 30
0.0
 11
151.16600000000003
 21
-802.526
 31
0.0
  0
LINE
  5
42
330
17
100
AcDbEntity
  8
0
100
AcDbLine
 10
151.16600000000003
 20
-802.526
 30
0.0
 11
139.50900000000001
 21
-795.4499999999999
 31
0.0
  0
LINE
  5
43
330
17
100
AcDbEntity
  8
0
100
AcDbLine
 10
139.50900000000001
 20
-795.4499999999999
 30
0.0
 11
128.54000000000002
 21
-790.477
 31
0.0
  0
LINE
  5
44
330
17
100
AcDbEntity
  8
0
100
AcDbLine
 10
128.54000000000002
 20
-790.477
 30
0.0
 11
119.27400000000002
 21
-787.271
 31
0.0
  0
LINE
  5
45
330
17
100
AcDbEntity
  8
0
100
AcDbLine
 10
119.27400000000002
 20
-787.271
 30
0.0
 11
119.17400000000002
 21
-787.226
 31
0.0
  0
LINE
  5
46
330
17
100
AcDbEntity
  8
0
100
AcDbLine
 10
119.17400000000002
 20
-787.226
 30
0.0
 11
119.08300000000003
 21
-787.173
 31
0.0
  0
LINE
  5
47
330
17
100
AcDbEntity
  8
0
100
AcDbLine
 10
119.08300000000003
 20
-787.173
 30
0.0
 11
119.00000000000003
 21
-787.114
 31
0.0
  0
LINE
  5
48
330
17
100
AcDbEntity
  8
0
100
AcDbLine
 10
119.00000000000003
 20
-787.114
 30
0.0
 11
118.92500000000003
 21
-787.049
 31
0.0
  0
LINE
  5
49
330
17
100
AcDbEntity
  8
0
100
AcDbLine
 10
118.92500000000003
 20
-787.049
 30
0.0
 11
118.85900000000002
 21
-786.9789999999999
 31
0.0
  0
LINE
  5
4A
330
17
100
AcDbEntity
  8
0
100
AcDbLine
 10
118.85900000000002
 20
-786.9789999999999
 30
0.0
 11
118.80100000000002
 21
-786.9039999999999
 31
0.0
  0
LINE
  5
4B
330
17
100
AcDbEntity
  8
0
100
AcDbLine
 10
118.80100000000002
 20
-786.9039999999999
 30
0.0
 11
118.75100000000002
 21
-786.8249999999999
 31
0.0
  0
LINE
  5
4C
330
17
100
AcDbEntity
  8
0
100
AcDbLine
 10
118.75100000000002
 20
-786.8249999999999
 30
0.0
 11
118.70800000000001
 21
-786.742
 31
0.0
  0
LINE
  5
4D
330
17
100
AcDbEntity
  8
0
100
AcDbLine
 10
118.70800000000001
 20
-786.742
 30
0.0
 11
118.67300000000002
 21
-786.656
 31
0.0
  0
LINE
  5
4E
330
17
100
AcDbEntity
  8
0
100
AcDbLine
 10
118.67300000000002
 20
-786.656
 30
0.0
 11
118.64600000000002
 21
-786.568
 31
0.0
  0
LINE
  5
4F
330
17
100
AcDbEntity
  8
0
100
AcDbLine
 10
118.64600000000002
 20
-786.568
 30
0.0
 11
118.62700000000001
 21
-786.478
 31
0.0
  0
LINE
  5
50
330
17
100
AcDbEntity
  8
0
100
AcDbLine
 10
118.62700000000001
 20
-786.478
 30
0.0
 11
118.61500000000001
 21
-786.387
 31
0.0
  0
LINE
  5
51
330
17
100
AcDbEntity
  8
0
100
AcDbLine
 10
118.61500000000001
 20
-786.387
 30
0.0
 11
118.611
 21
-786.295
 31
0.0
  0
LINE
  5
52
330
17
100
AcDbEntity
  8
0
100
AcDbLine
 10
118.611
 20
-786.295
 30
0.0
 11
118.614
 21
-786.203
 31
0.0
  0
LINE
  5
53
330
17
100
AcDbEntity
  8
0
100
AcDbLine
 10
118.614
 20
-786.203
 30
0.0
 11
118.62400000000001
 21
-786.111
 31
0.0
  0
LINE
  5
54
330
17
100
AcDbEntity
  8
0
100
AcDbLine
 10
118.62400000000001
 20
-786.111
 30
0.0
 11
118.641
 21
-786.02
 31
0.0
  0
LINE
  5
55
330
17
100
AcDbEntity
  8
0
100
AcDbLine
 10
118.641
 20
-786.02
 30
0.0
 11
118.665
 21
-785.9309999999999
 31
0.0
  0
LINE
  5
56
330
17
100
AcDbEntity
  8
0
100
AcDbLine
 10
118.665
 20
-785.9309999999999
 30
0.0
 11
118.69600000000001
 21
-785.8439999999999
 31
0.0
  0
LINE
  5
57
330
17
100
AcDbEntity
  8
0
100
AcDbLine
 10
118.69600000000001
 20
-785.8439999999999
 30
0.0
 11
118.73400000000001
 21
-785.76
 31
0.0
  0
LINE
  5
58
330
17
100
AcDbEntity
  8
0
100
AcDbLine
 10
118.73400000000001
 20
-785.76
 30
0.0
 11
118.77900000000001
 21
-785.679
 31
0.0
  0
LINE
  5
59
330
17
100
AcDbEntity
  8
0
100
AcDbLine
 10
118.77900000000001
 20
-785.679
 30
0.0
 11
118.83100000000002
 21
-785.602
 31
0.0
  0
LINE
  5
5A
330
17
100
AcDbEntity
  8
0
100
AcDbLine
 10
118.83100000000002
 20
-785.602
 30
0.0
 11
118.89000000000001
 21
-785.53
 31
0.0
  0
LINE
  5
5B
330
17
100
AcDbEntity
  8
0
100
AcDbLine
 10
118.89000000000001
 20
-785.53
 30
0.0
 11
118.95500000000001
 21
-785.463
 31
0.0
  0
LINE
  5
5C
330
17
100
AcDbEntity
  8
0
100
AcDbLine
 10
118.95500000000001
 20
-785.463
 30
0.0
 11
119.02700000000002
 21
-785.4019999999999
 31
0.0
  0
LINE
  5
5D
330
17
100
AcDbEntity
  8
0
100
AcDbLine
 10
119.02700000000002
 20
-785.4019999999999
 30
0.0
 11
119.10500000000002
 21
-785.347
 31
0.0
  0
LINE
  5
5E
330
17
100
AcDbEntity
  8
0
100
AcDbLine
 10
119.10500000000002
 20
-785.347
 30
0.0
 11
119.18900000000002
 21
-785.299
 31
0.0
  0
LINE
  5
5F
330
17
100
AcDbEntity
  8
0
100
AcDbLine
 10
119.18900000000002
 20
-785.299
 30
0.0
 11
119.27900000000002
 21
-785.2579999999999
 31
0.0
  0
LINE
  5
60
330
17
100
AcDbEntity
  8
0
100
AcDbLine
 10
119.27900000000002
 20
-785.2579999999999
 30
0.0
 11
119.37600000000002
 21
-785.2249999999999
 31
0.0
  0
LINE
  5
61
330
17
100
AcDbEntity
  8
0
100
AcDbLine
 10
119.37600000000002
 20
-785.2249999999999
 30
0.0
 11
119.47900000000001
 21
-785.2009999999999
 31
0.0
  0
LINE
  5
62
330
17
100
AcDbEntity
  8
0
100
AcDbLine
 10
119.47900000000001
 20
-785.2009999999999
 30
0.0
 11
119.58700000000002
 21
-785.1859999999999
 31
0.0
  0
LINE
  5
63
330
17
100
AcDbEntity
  8
0
100
AcDbLine
 10
119.58700000000002
 20
-785.1859999999999
 30
0.0
 11
180.23700000000002
 21
-785.2159999999999
 31
0.0
  0
LINE
  5
64
330
17
100
AcDbEntity
  8
0
100
AcDbLine
 10
180.23700000000002
 20
-785.2159999999999
 30
0.0
 11
181.80500000000004
 21
-785.3689999999999
 31
0.0
  0
LINE
  5
65
330
17
100
AcDbEntity
  8
0
100
AcDbLine
 10
181.80500000000004
 20
-785.3689999999999
 30
0.0
 11
183.31800000000004
 21
-785.6399999999999
 31
0.0
  0
LINE
  5
66
330
17
100
AcDbEntity
  8
0
100
AcDbLine
 10
183.31800000000004
 20
-785.6399999999999
 30
0.0
 11
184.77700000000004
 21
-786.0269999999998
 31
0.0
  0
LINE
  5
67
330
17
100
AcDbEntity
  8
0
100
AcDbLine
 10
184.77700000000004
 20
-786.0269999999998
 30
0.0
 11
186.18100000000004
 21
-786.5269999999998
 31
0.0
  0
LINE
  5
68
330
17
100
AcDbEntity
  8
0
100
AcDbLine
 10
186.18100000000004
 20
-786.5269999999998
 30
0.0
 11
187.53100000000003
 21
-787.1359999999999
 31
0.0
  0
LINE
  5
69
330
17
100
AcDbEntity
  8
0
100
AcDbLine
 10
187.53100000000003
 20
-787.1359999999999
 30
0.0
 11
188.82800000000003
 21
-787.8519999999999
 31
0.0
  0
LINE
  5
6A
330
17
100
AcDbEntity
  8
0
100
AcDbLine
 10
188.82800000000003
 20
-787.8519999999999
 30
0.0
 11
190.07100000000003
 21
-788.6719999999999
 31
0.0
  0
LINE
  5
6B
330
17
100
AcDbEntity
  8
0
100
AcDbLine
 10
190.07100000000003
 20
-788.6719999999999
 30
0.0
 11
191.24500000000003
 21
-789.608
 31
0.0
  0
LINE
  5
6C
330
17
100
AcDbEntity
  8
0
100
AcDbLine
 10
191.24500000000003
 20
-789.608
 30
0.0
 11
192.28500000000003
 21
-790.673
 31
0.0
  0
LINE
  5
6D
330
17
100
AcDbEntity
  8
0
100
AcDbLine
 10
192.28500000000003
 20
-790.673
 30
0.0
 11
193.181
 21
-791.85
 31
0.0
  0
LINE
  5
6E
330
17
100
AcDbEntity
  8
0
100
AcDbLine
 10
193.181
 20
-791.85
 30
0.0
 11
193.929
 21
-793.123
 31
0.0
  0
LINE
  5
6F
330
17
100
AcDbEntity
  8
0
100
AcDbLine
 10
193.929
 20
-793.123
 30
0.0
 11
194.525
 21
-794.476
 31
0.0
  0
LINE
  5
70
330
17
100
AcDbEntity
  8
0
100
AcDbLine
 10
194.525
 20
-794.476
 30
0.0
 11
194.964
 21
-795.893
 31
0.0
  0
LINE
  5
71
330
17
100
AcDbEntity
  8
0
100
AcDbLine
 10
194.964
 20
-795.893
 30
0.0
 11
195.24099999999999
 21
-797.359
 31
0.0
  0
LINE
  5
72
330
17
100
AcDbEntity
  8
0
100
AcDbLine
 10
195.24099999999999
 20
-797.359
 30
0.0
 11
195.35199999999998
 21
-798.8570000000001
 31
0.0
  0
LINE
  5
73
330
17
100
AcDbEntity
  8
0
100
AcDbLine
 10
195.35199999999998
 20
-798.8570000000001
 30
0.0
 11
195.25999999999996
 21
-809.2310000000001
 31
0.0
  0
LINE
  5
74
330
17
100
AcDbEntity
  8
0
100
AcDbLine
 10
195.25999999999996
 20
-809.2310000000001
 30
0.0
 11
195.32799999999997
 21
-809.9660000000001
 31
0.0
  0
LINE
  5
75
330
17
100
AcDbEntity
  8
0
100
AcDbLine
 10
195.32799999999997
 20
-809.9660000000001
 30
0.0
 11
195.46699999999998
 21
-810.6790000000001
 31
0.0
  0
LINE
  5
76
330
17
100
AcDbEntity
  8
0
100
AcDbLine
 10
195.46699999999998
 20
-810.6790000000001
 30
0.0
 11
195.67399999999998
 21
-811.3660000000001
 31
0.0
  0
LINE
  5
77
330
17
100
AcDbEntity
  8
0
100
AcDbLine
 10
195.67399999999998
 20
-811.3660000000001
 30
0.0
 11
195.94599999999997
 21
-812.0230000000001
 31
0.0
  0
LINE
  5
78
330
17
100
AcDbEntity
  8
0
100
AcDbLine
 10
195.94599999999997
 20
-812.0230000000001
 30
0.0
 11
196.27799999999996
 21
-812.6460000000002
 31
0.0
  0
LINE
  5
79
330
17
100
AcDbEntity
  8
0
100
AcDbLine
 10
196.27799999999996
 20
-812.6460000000002
 30
0.0
 11
196.66699999999997
 21
-813.2310000000002
 31
0.0
  0
LINE
  5
7A
330
17
100
AcDbEntity
  8
0
100
AcDbLine
 10
196.66699999999997
 20
-813.2310000000002
 30
0.0
 11
197.10899999999998
 21
-813.7750000000002
 31
0.0
  0
LINE
  5
7B
330
17
100
AcDbEntity
  8
0
100
AcDbLine
 10
197.10899999999998
 20
-813.7750000000002
 30
0.0
 11
197.60099999999997
 21
-814.2740000000002
 31
0.0
  0
LINE
  5
7C
330
17
100
AcDbEntity
  8
0
100
AcDbLine
 10
197.60099999999997
 20
-814.2740000000002
 30
0.0
 11
198.13799999999998
 21
-814.7240000000003
 31
0.0
  0
LINE
  5
7D
330
17
100
AcDbEntity
  8
0
100
AcDbLine
 10
198.13799999999998
 20
-814.7240000000003
 30
0.0
 11
198.71699999999998
 21
-815.1220000000003
 31
0.0
  0
LINE
  5
7E
330
17
100
AcDbEntity
  8
0
100
AcDbLine
 10
198.71699999999998
 20
-815.1220000000003
 30
0.0
 11
199.33499999999998
 21
-815.4630000000003
 31
0.0
  0
LINE
  5
7F
330
17
100
AcDbEntity
  8
0
100
AcDbLine
 10
199.33499999999998
 20
-815.4630000000003
 30
0.0
 11
199.98699999999997
 21
-815.7440000000003
 31
0.0
  0
LINE
  5
80
330
17
100
AcDbEntity
  8
0
100
AcDbLine
 10
199.98699999999997
 20
-815.7440000000003
 30
0.0
 11
200.66999999999996
 21
-815.9620000000002
 31
0.0
  0
LINE
  5
81
330
17
100
AcDbEntity
  8
0
100
AcDbLine
 10
200.66999999999996
 20
-815.9620000000002
 30
0.0
 11
201.38099999999997
 21
-816.1120000000002
 31
0.0
  0
LINE
  5
82
330
17
100
AcDbEntity
  8
0
100
AcDbLine
 10
201.38099999999997
 20
-816.1120000000002
 30
0.0
 11
202.11499999999998
 21
-816.1910000000001
 31
0.0
  0
LINE
  5
83
330
17
100
AcDbEntity
  8
0
100
AcDbLine
 10
202.11499999999998
 20
-816.1910000000001
 30
0.0
 11
329.224
 21
-816.1930000000001
 31
0.0
  0
LINE
  5
84
330
17
100
AcDbEntity
  8
0
100
AcDbLine
 10
329.224
 20
-816.1930000000001
 30
0.0
 11
329.913
 21
-816.123
 31
0.0
  0
LINE
  5
85
330
17
100
AcDbEntity
  8
0
100
AcDbLine
 10
329.913
 20
-816.123
 30
0.0
 11
330.58
 21
-815.9870000000001
 31
0.0
  0
LINE
  5
86
330
17
100
AcDbEntity
  8
0
100
AcDbLine
 10
330.58
 20
-815.9870000000001
 30
0.0
 11
331.222
 21
-815.787
 31
0.0
  0
LINE
  5
87
330
17
100
AcDbEntity
  8
0
100
AcDbLine
 10
331.222
 20
-815.787
 30
0.0
 11
331.835
 21
-815.528
 31
0.0
  0
LINE
  5
88
330
17
100
AcDbEntity
  8
0
100
AcDbLine
 10
331.835
 20
-815.528
 30
0.0
 11
332.416
 21
-815.213
 31
0.0
  0
LINE
  5
89
330
17
100
AcDbEntity
  8
0
100
AcDbLine
 10
332.416
 20
-815.213
 30
0.0
 11
332.961
 21
-814.8449999999999
 31
0.0
  0
LINE
  5
8A
330
17
100
AcDbEntity
  8
0
100
AcDbLine
 10
332.961
 20
-814.8449999999999
 30
0.0
 11
333.467
 21
-814.4269999999999
 31
0.0
  0
LINE
  5
8B
330
17
100
AcDbEntity
  8
0
100
AcDbLine
 10
333.467
 20
-814.4269999999999
 30
0.0
 11
333.931
 21
-813.9629999999999
 31
0.0
  0
LINE
  5
8C
330
17
100
AcDbEntity
  8
0
100
AcDbLine
 10
333.931
 20
-813.9629999999999
 30
0.0
 11
334.349
 21
-813.4569999999999
 31
0.0
  0
LINE
  5
8D
330
17
100
AcDbEntity
  8
0
100
AcDbLine
 10
334.349
 20
-813.4569999999999
 30
0.0
 11
334.717
 21
-812.9119999999999
 31
0.0
  0
LINE
  5
8E
330
17
100
AcDbEntity
  8
0
100
AcDbLine
 10
334.717
 20
-812.9119999999999
 30
0.0
 11
335.032
 21
-812.3309999999999
 31
0.0
  0
LINE
  5
8F
330
17
100
AcDbEntity
  8
0
100
AcDbLine
 10
335.032
 20
-812.3309999999999
 30
0.0
 11
335.291
 21
-811.7179999999998
 31
0.0
  0
LINE
  5
90
330
17
100
AcDbEntity
  8
0
100
AcDbLine
 10
335.291
 20
-811.7179999999998
 30
0.0
 11
335.491
 21
-811.0759999999998
 31
0.0
  0
LINE
  5
91
330
17
100
AcDbEntity
  8
0
100
AcDbLine
 10
335.491
 20
-811.0759999999998
 30
0.0
 11
335.627
 21
-810.4089999999998
 31
0.0
  0
LINE
  5
92
330
17
100
AcDbEntity
  8
0
100
AcDbLine
 10
335.627
 20
-810.4089999999998
 30
0.0
 11
335.697
 21
-809.7199999999998
 31
0.0
  0
LINE
  5
93
330
17
100
AcDbEntity
  8
0
100
AcDbLine
 10
335.697
 20
-809.7199999999998
 30
0.0
 11
335.727
 21
-800.4779999999998
 31
0.0
  0
LINE
  5
94
330
17
100
AcDbEntity
  8
0
100
AcDbLine
 10
335.727
 20
-800.4779999999998
 30
0.0
 11
335.892
 21
-798.8519999999999
 31
0.0
  0
LINE
  5
95
330
17
100
AcDbEntity
  8
0
100
AcDbLine
 10
335.892
 20
-798.8519999999999
 30
0.0
 11
336.214
 21
-797.2769999999998
 31
0.0
  0
LINE
  5
96
330
17
100
AcDbEntity
  8
0
100
AcDbLine
 10
336.214
 20
-797.2769999999998
 30
0.0
 11
336.685
 21
-795.7619999999998
 31
0.0
  0
LINE
  5
97
330
17
100
AcDbEntity
  8
0
100
AcDbLine
 10
336.685
 20
-795.7619999999998
 30
0.0
 11
337.297
 21
-794.3149999999998
 31
0.0
  0
LINE
  5
98
330
17
100
AcDbEntity
  8
0
100
AcDbLine
 10
337.297
 20
-794.3149999999998
 30
0.0
 11
338.04200000000003
 21
-792.9439999999998
 31
0.0
  0
LINE
  5
99
330
17
100
AcDbEntity
  8
0
100
AcDbLine
 10
338.04200000000003
 20
-792.9439999999998
 30
0.0
 11
338.91100000000006
 21
-791.6569999999998
 31
0.0
  0
LINE
  5
9A
330
17
100
AcDbEntity
  8
0
100
AcDbLine
 10
338.91100000000006
 20
-791.6569999999998
 30
0.0
 11
339.89700000000005
 21
-790.4629999999999
 31
0.0
  0
LINE
  5
9B
330
17
100
AcDbEntity
  8
0
100
AcDbLine
 10
339.89700000000005
 20
-790.4629999999999
 30
0.0
 11
340.99100000000004
 21
-789.3689999999998
 31
0.0
  0
LINE
  5
9C
330
17
100
AcDbEntity
  8
0
100
AcDbLine
 10
340.99100000000004
 20
-789.3689999999998
 30
0.0
 11
342.18500000000006
 21
-788.3829999999998
 31
0.0
  0
LINE
  5
9D
330
17
100
AcDbEntity
  8
0
100
AcDbLine
 10
342.18500000000006
 20
-788.3829999999998
 30
0.0
 11
343.47200000000004
 21
-787.5139999999998
 31
0.0
  0
LINE
  5
9E
330
17
100
AcDbEntity
  8
0
100
AcDbLine
 10
343.47200000000004
 20
-787.5139999999998
 30
0.0
 11
344.843
 21
-786.7689999999998
 31
0.0
  0
LINE
  5
9F
330
17
100
AcDbEntity
  8
0
100
AcDbLine
 10
344.843
 20
-786.7689999999998
 30
0.0
 11
346.29
 21
-786.1569999999998
 31
0.0
  0
LINE
  5
A0
330
17
100
AcDbEntity
  8
0
100
AcDbLine
 10
346.29
 20
-786.1569999999998
 30
0.0
 11
347.805
 21
-785.6859999999998
 31
0.0
  0
LINE
  5
A1
330
17
100
AcDbEntity
  8
0
100
AcDbLine
 10
347.805
 20
-785.6859999999998
 30
0.0
 11
349.379
 21
-785.3639999999998
 31
0.0
  0
LINE
  5
A2
330
17
100
AcDbEntity
  8
0
100
AcDbLine
 10
349.379
 20
-785.3639999999998
 30
0.0
 11
351.005
 21
-785.1989999999998
 31
0.0
  0
LINE
  5
A3
330
17
100
AcDbEntity
  8
0
100
AcDbLine
 10
351.005
 20
-785.1989999999998
 30
0.0
 11
439.299
 21
-785.1779999999999
 31
0.0
  0
LINE
  5
A4
330
17
100
AcDbEntity
  8
0
100
AcDbLine
 10
439.299
 20
-785.1779999999999
 30
0.0
 11
427.66499999999996
 21
-821.3269999999999
 31
0.0
  0
LINE
  5
A5
330
17
100
AcDbEntity
  8
0
100
AcDbLine
 10
427.66499999999996
 20
-821.3269999999999
 30
0.0
 11
427.41999999999996
 21
-821.8659999999999
 31
0.0
  0
LINE
  5
A6
330
17
100
AcDbEntity
  8
0
100
AcDbLine
 10
427.41999999999996
 20
-821.8659999999999
 30
0.0
 11
427.13599999999997
 21
-822.3799999999999
 31
0.0
  0
LINE
  5
A7
330
17
100
AcDbEntity
  8
0
100
AcDbLine
 10
427.13599999999997
 20
-822.3799999999999
 30
0.0
 11
426.816
 21
-822.8679999999999
 31
0.0
  0
LINE
  5
A8
330
17
100
AcDbEntity
  8
0
100
AcDbLine
 10
426.816
 20
-822.8679999999999
 30
0.0
 11
426.462
 21
-823.328
 31
0.0
  0
LINE
  5
A9
330
17
100
AcDbEntity
  8
0
100
AcDbLine
 10
426.462
 20
-823.328
 30
0.0
 11
426.07599999999996
 21
-823.7579999999999
 31
0.0
  0
LINE
  5
AA
330
17
100
AcDbEntity
  8
0
100
AcDbLine
 10
426.07599999999996
 20
-823.7579999999999
 30
0.0
 11
425.65999999999997
 21
-824.1569999999999
 31
0.0
  0
LINE
  5
AB
330
17
100
AcDbEntity
  8
0
100
AcDbLine
 10
425.65999999999997
 20
-824.1569999999999
 30
0.0
 11
425.21599999999995
 21
-824.5239999999999
 31
0.0
  0
LINE
  5
AC
330
17
100
AcDbEntity
  8
0
100
AcDbLine
 10
425.21599999999995
 20
-824.5239999999999
 30
0.0
 11
424.74499999999995
 21
-824.8569999999999
 31
0.0
  0
LINE
  5
AD
330
17
100
AcDbEntity
  8
0
100
AcDbLine
 10
424.74499999999995
 20
-824.8569999999999
 30
0.0
 11
424.24999999999994
 21
-825.1549999999999
 31
0.0
  0
LINE
  5
AE
330
17
100
AcDbEntity
  8
0
100
AcDbLine
 10
424.24999999999994
 20
-825.1549999999999
 30
0.0
 11
423.73299999999995
 21
-825.4159999999998
 31
0.0
  0
LINE
  5
AF
330
17
100
AcDbEntity
  8
0
100
AcDbLine
 10
423.73299999999995
 20
-825.4159999999998
 30
0.0
 11
423.19599999999997
 21
-825.6379999999998
 31
0.0
  0
LINE
  5
B0
330
17
100
AcDbEntity
  8
0
100
AcDbLine
 10
423.19599999999997
 20
-825.6379999999998
 30
0.0
 11
422.64099999999996
 21
-825.8199999999998
 31
0.0
  0
LINE
  5
B1
330
17
100
AcDbEntity
  8
0
100
AcDbLine
 10
422.64099999999996
 20
-825.8199999999998
 30
0.0
 11
422.06999999999994
 21
-825.9609999999998
 31
0.0
  0
LINE
  5
B2
330
17
100
AcDbEntity
  8
0
100
AcDbLine
 10
422.06999999999994
 20
-825.9609999999998
 30
0.0
 11
386.3929999999999
 21
-829.9189999999998
 31
0.0
  0
LINE
  5
B3
330
17
100
AcDbEntity
  8
0
100
AcDbLine
 10
386.3929999999999
 20
-829.9189999999998
 30
0.0
 11
371.0569999999999
 21
-833.2429999999997
 31
0.0
  0
LINE
  5
B4
330
17
100
AcDbEntity
  8
0
100
AcDbLine
 10
371.0569999999999
 20
-833.2429999999997
 30
0.0
 11
353.6819999999999
 21
-838.8299999999997
 31
0.0
  0
LINE
  5
B5
330
17
100
AcDbEntity
  8
0
100
AcDbLine
 10
353.6819999999999
 20
-838.8299999999997
 30
0.0
 11
349.1919999999999
 21
-841.0399999999997
 31
0.0
  0
LINE
  5
B6
330
17
100
AcDbEntity
  8
0
100
AcDbLine
 10
349.1919999999999
 20
-841.0399999999997
 30
0.0
 11
344.9859999999999
 21
-843.6889999999997
 31
0.0
  0
LINE
  5
B7
330
17
100
AcDbEntity
  8
0
100
AcDbLine
 10
344.9859999999999
 20
-843.6889999999997
 30
0.0
 11
341.0929999999999
 21
-846.7479999999997
 31
0.0
  0
LINE
  5
B8
330
17
100
AcDbEntity
  8
0
100
AcDbLine
 10
341.0929999999999
 20
-846.7479999999997
 30
0.0
 11
337.5419999999999
 21
-850.1889999999997
 31
0.0
  0
LINE
  5
B9
330
17
100
AcDbEntity
  8
0
100
AcDbLine
 10
337.5419999999999
 20
-850.1889999999997
 30
0.0
 11
334.36299999999994
 21
-853.9839999999997
 31
0.0
  0
LINE
  5
BA
330
17
100
AcDbEntity
  8
0
100
AcDbLine
 10
334.36299999999994
 20
-853.9839999999997
 30
0.0
 11
331.5849999999999
 21
-858.1049999999997
 31
0.0
  0
LINE
  5
BB
330
17
100
AcDbEntity
  8
0
100
AcDbLine
 10
331.5849999999999
 20
-858.1049999999997
 30
0.0
 11
329.2369999999999
 21
-862.5239999999997
 31
0.0
  0
LINE
  5
BC
330
17
100
AcDbEntity
  8
0
100
AcDbLine
 10
329.2369999999999
 20
-862.5239999999997
 30
0.0
 11
258.1249999999999
 21
-1038.7099999999996
 31
0.0
  0
LINE
  5
BD
330
17
100
AcDbEntity
  8
0
100
AcDbLine
 10
258.1249999999999
 20
-1038.7099999999996
 30
0.0
 11
257.8269999999999
 21
-1039.2449999999997
 31
0.0
  0
LINE
  5
BE
330
17
100
AcDbEntity
  8
0
100
AcDbLine
 10
257.8269999999999
 20
-1039.2449999999997
 30
0.0
 11
257.4899999999999
 21
-1039.7489999999996
 31
0.0
  0
LINE
  5
BF
330
17
100
AcDbEntity
  8
0
100
AcDbLine
 10
257.4899999999999
 20
-1039.7489999999996
 30
0.0
 11
257.1159999999999
 21
-1040.2199999999996
 31
0.0
  0
LINE
  5
C0
330
17
100
AcDbEntity
  8
0
100
AcDbLine
 10
257.1159999999999
 20
-1040.2199999999996
 30
0.0
 11
256.7069999999999
 21
-1040.6559999999995
 31
0.0
  0
LINE
  5
C1
330
17
100
AcDbEntity
  8
0
100
AcDbLine
 10
256.7069999999999
 20
-1040.6559999999995
 30
0.0
 11
256.2669999999999
 21
-1041.0569999999996
 31
0.0
  0
LINE
  5
C2
330
17
100
AcDbEntity
  8
0
100
AcDbLine
 10
256.2669999999999
 20
-1041.0569999999996
 30
0.0
 11
255.79699999999988
 21
-1041.4199999999996
 31
0.0
  0
LINE
  5
C3
330
17
100
AcDbEntity
  8
0
100
AcDbLine
 10
255.79699999999988
 20
-1041.4199999999996
 30
0.0
 11
255.29999999999987
 21
-1041.7439999999997
 31
0.0
  0
LINE
  5
C4
330
17
100
AcDbEntity
  8
0
100
AcDbLine
 10
255.29999999999987
 20
-1041.7439999999997
 30
0.0
 11
254.77899999999988
 21
-1042.0269999999996
 31
0.0
  0
LINE
  5
C5
330
17
100
AcDbEntity
  8
0
100
AcDbLine
 10
254.77899999999988
 20
-1042.0269999999996
 30
0.0
 11
254.23699999999988
 21
-1042.2679999999996
 31
0.0
  0
LINE
  5
C6
330
17
100
AcDbEntity
  8
0
100
AcDbLine
 10
254.23699999999988
 20
-1042.2679999999996
 30
0.0
 11
253.67599999999987
 21
-1042.4659999999997
 31
0.0
  0
LINE
  5
C7
330
17
100
AcDbEntity
  8
0
100
AcDbLine
 10
253.67599999999987
 20
-1042.4659999999997
 30
0.0
 11
253.09799999999987
 21
-1042.6189999999997
 31
0.0
  0
LINE
  5
C8
330
17
100
AcDbEntity
  8
0
100
AcDbLine
 10
253.09799999999987
 20
-1042.6189999999997
 30
0.0
 11
252.50599999999986
 21
-1042.7249999999997
 31
0.0
  0
LINE
  5
C9
330
17
100
AcDbEntity
  8
0
100
AcDbLine
 10
252.50599999999986
 20
-1042.7249999999997
 30
0.0
 11
251.90299999999985
 21
-1042.7829999999997
 31
0.0
  0
LINE
  5
CA
330
17
100
AcDbEntity
  8
0
100
AcDbLine
 10
251.90299999999985
 20
-1042.7829999999997
 30
0.0
 11
251.29099999999985
 21
-1042.7909999999997
 31
0.0
  0
LINE
  5
CB
330
17
100
AcDbEntity
  8
0
100
AcDbLine
 10
251.29099999999985
 20
-1042.7909999999997
 30
0.0
 11
120.31199999999984
 21
-1027.1949999999997
 31
0.0
  0
LINE
  5
CC
330
17
100
AcDbEntity
  8
0
100
AcDbLine
 10
120.31199999999984
 20
-1027.1949999999997
 30
0.0
 11
119.66899999999984
 21
-1027.0269999999998
 31
0.0
  0
LINE
  5
CD
330
17
100
AcDbEntity
  8
0
100
AcDbLine
 10
119.66899999999984
 20
-1027.0269999999998
 30
0.0
 11
119.05099999999985
 21
-1026.8039999999999
 31
0.0
  0
LINE
  5
CE
330
17
100
AcDbEntity
  8
0
100
AcDbLine
 10
119.05099999999985
 20
-1026.8039999999999
 30
0.0
 11
118.46099999999984
 21
-1026.5289999999998
 31
0.0
  0
LINE
  5
CF
330
17
100
AcDbEntity
  8
0
100
AcDbLine
 10
118.46099999999984
 20
-1026.5289999999998
 30
0.0
 11
117.90099999999984
 21
-1026.2049999999997
 31
0.0
  0
LINE
  5
D0
330
17
100
AcDbEntity
  8
0
100
AcDbLine
 10
117.90099999999984
 20
-1026.2049999999997
 30
0.0
 11
117.37499999999984
 21
-1025.8349999999998
 31
0.0
  0
LINE
  5
D1
330
17
100
AcDbEntity
  8
0
100
AcDbLine
 10
117.37499999999984
 20
-1025.8349999999998
 30
0.0
 11
116.88499999999985
 21
-1025.4209999999998
 31
0.0
  0
LINE
  5
D2
330
17
100
AcDbEntity
  8
0
100
AcDbLine
 10
116.88499999999985
 20
-1025.4209999999998
 30
0.0
 11
116.43399999999986
 21
-1024.9669999999999
 31
0.0
  0
LINE
  5
D3
330
17
100
AcDbEntity
  8
0
100
AcDbLine
 10
116.43399999999986
 20
-1024.9669999999999
 30
0.0
 11
116.02399999999986
 21
-1024.4759999999999
 31
0.0
  0
LINE
  5
D4
330
17
100
AcDbEntity
  8
0
100
AcDbLine
 10
116.02399999999986
 20
-1024.4759999999999
 30
0.0
 11
115.65899999999986
 21
-1023.9499999999999
 31
0.0
  0
LINE
  5
D5
330
17
100
AcDbEntity
  8
0
100
AcDbLine
 10
115.65899999999986
 20
-1023.9499999999999
 30
0.0
 11
115.34099999999987
 21
-1023.3919999999999
 31
0.0
  0
LINE
  5
D6
330
17
100
AcDbEntity
  8
0
100
AcDbLine
 10
115.34099999999987
 20
-1023.3919999999999
 30
0.0
 11
115.07299999999987
 21
-1022.805
 31
0.0
  0
LINE
  5
D7
330
17
100
AcDbEntity
  8
0
100
AcDbLine
 10
115.07299999999987
 20
-1022.805
 30
0.0
 11
114.85799999999986
 21
-1022.193
 31
0.0
  0
LINE
  5
D8
330
17
100
AcDbEntity
  8
0
100
AcDbLine
 10
114.85799999999986
 20
-1022.193
 30
0.0
 11
114.69799999999987
 21
-1021.558
 31
0.0
  0
LINE
  5
D9
330
17
100
AcDbEntity
  8
0
100
AcDbLine
 10
114.69799999999987
 20
-1021.558
 30
0.0
 11
114.59599999999986
 21
-1020.902
 31
0.0
  0
LINE
  5
DA
330
17
100
AcDbEntity
  8
0
100
AcDbLine
 10
114.59599999999986
 20
-1020.902
 30
0.0
 11
114.58399999999986
 21
-1016.6750000000001
 31
0.0
  0
LINE
  5
DB
330
17
100
AcDbEntity
  8
0
100
AcDbLine
 10
114.58399999999986
 20
-1016.6750000000001
 30
0.0
 11
115.09499999999986
 21
-1009.6600000000001
 31
0.0
  0
LINE
  5
DC
330
17
100
AcDbEntity
  8
0
100
AcDbLine
 10
115.09499999999986
 20
-1009.6600000000001
 30
0.0
 11
116.19899999999986
 21
-1002.7900000000001
 31
0.0
  0
LINE
  5
DD
330
17
100
AcDbEntity
  8
0
100
AcDbLine
 10
116.19899999999986
 20
-1002.7900000000001
 30
0.0
 11
117.88099999999986
 21
-996.0880000000001
 31
0.0
  0
LINE
  5
DE
330
17
100
AcDbEntity
  8
0
100
AcDbLine
 10
117.88099999999986
 20
-996.0880000000001
 30
0.0
 11
120.12799999999986
 21
-989.5770000000001
 31
0.0
  0
LINE
  5
DF
330
17
100
AcDbEntity
  8
0
100
AcDbLine
 10
120.12799999999986
 20
-989.5770000000001
 30
0.0
 11
122.92699999999986
 21
-983.2810000000001
 31
0.0
  0
LINE
  5
E0
330
17
100
AcDbEntity
  8
0
100
AcDbLine
 10
122.92699999999986
 20
-983.2810000000001
 30
0.0
 11
126.26299999999986
 21
-977.2220000000001
 31
0.0
  0
LINE
  5
E1
330
17
100
AcDbEntity
  8
0
100
AcDbLine
 10
126.26299999999986
 20
-977.2220000000001
 30
0.0
 11
132.24399999999986
 21
-968.628
 31
0.0
  0
LINE
  5
E2
330
17
100
AcDbEntity
  8
0
100
AcDbLine
 10
479.1829999999999
 20
-819.3770000000001
 30
0.0
 11
490.4269999999999
 21
-786.7700000000001
 31
0.0
  0
LINE
  5
E3
330
17
100
AcDbEntity
  8
0
100
AcDbLine
 10
490.4269999999999
 20
-786.7700000000001
 30
0.0
 11
543.5539999999999
 21
-786.7700000000001
 31
0.0
  0
LINE
  5
E4
330
17
100
AcDbEntity
  8
0
100
AcDbLine
 10
543.5539999999999
 20
-786.7700000000001
 30
0.0
 11
540.1099999999999
 21
-801.2320000000001
 31
0.0
  0
LINE
  5
E5
330
17
100
AcDbEntity
  8
0
100
AcDbLine
 10
540.1099999999999
 20
-801.2320000000001
 30
0.0
 11
539.4499999999999
 21
-803.316
 31
0.0
  0
LINE
  5
E6
330
17
100
AcDbEntity
  8
0
100
AcDbLine
 10
539.4499999999999
 20
-803.316
 30
0.0
 11
538.616
 21
-805.3090000000001
 31
0.0
  0
LINE
  5
E7
330
17
100
AcDbEntity
  8
0
100
AcDbLine
 10
538.616
 20
-805.3090000000001
 30
0.0
 11
537.617
 21
-807.2030000000001
 31
0.0
  0
LINE
  5
E8
330
17
100
AcDbEntity
  8
0
100
AcDbLine
 10
537.617
 20
-807.2030000000001
 30
0.0
 11
536.463
 21
-808.9900000000001
 31
0.0
  0
LINE
  5
E9
330
17
100
AcDbEntity
  8
0
100
AcDbLine
 10
536.463
 20
-808.9900000000001
 30
0.0
 11
535.164
 21
-810.6630000000001
 31
0.0
  0
LINE
  5
EA
330
17
100
AcDbEntity
  8
0
100
AcDbLine
 10
535.164
 20
-810.6630000000001
 30
0.0
 11
533.729
 21
-812.2130000000001
 31
0.0
  0
LINE
  5
EB
330
17
100
AcDbEntity
  8
0
100
AcDbLine
 10
533.729
 20
-812.2130000000001
 30
0.0
 11
532.168
 21
-813.633
 31
0.0
  0
LINE
  5
EC
330
17
100
AcDbEntity
  8
0
100
AcDbLine
 10
532.168
 20
-813.633
 30
0.0
 11
530.491
 21
-814.9150000000001
 31
0.0
  0
LINE
  5
ED
330
17
100
AcDbEntity
  8
0
100
AcDbLine
 10
530.491
 20
-814.9150000000001
 30
0.0
 11
528.708
 21
-816.052
 31
0.0
  0
LINE
  5
EE
330
17
100
AcDbEntity
  8
0
100
AcDbLine
 10
528.708
 20
-816.052
 30
0.0
 11
526.828
 21
-817.035
 31
0.0
  0
LINE
  5
EF
330
17
100
AcDbEntity
  8
0
100
AcDbLine
 10
526.828
 20
-817.035
 30
0.0
 11
524.861
 21
-817.857
 31
0.0
  0
LINE
  5
F0
330
17
100
AcDbEntity
  8
0
100
AcDbLine
 10
524.861
 20
-817.857
 30
0.0
 11
522.817
 21
-818.51
 31
0.0
  0
LINE
  5
F1
330
17
100
AcDbEntity
  8
0
100
AcDbLine
 10
522.817
 20
-818.51
 30
0.0
 11
520.705
 21
-818.986
 31
0.0
  0
LINE
  5
F2
330
17
100
AcDbEntity
  8
0
100
AcDbLine
 10
520.705
 20
-818.986
 30
0.0
 11
518.5350000000001
 21
-819.277
 31
0.0
  0
LINE
  5
F3
330
17
100
AcDbEntity
  8
0
100
AcDbLine
 10
518.5350000000001
 20
-819.277
 30
0.0
 11
479.1820000000001
 21
-819.3760000000001
 31
0.0
  0
LINE
  5
F4
330
17
100
AcDbEntity
  8
0
100
AcDbLine
 10
667.3620000000001
 20
-708.5740000000001
 30
0.0
 11
492.7650000000001
 21
-708.1210000000001
 31
0.0
  0
LINE
  5
F5
330
17
100
AcDbEntity
  8
0
100
AcDbLine
 10
492.7650000000001
 20
-708.1210000000001
 30
0.0
 11
492.8210000000001
 21
-713.4560000000001
 31
0.0
  0
LINE
  5
F6
330
17
100
AcDbEntity
  8
0
100
AcDbLine
 10
492.8210000000001
 20
-713.4560000000001
 30
0.0
 11
492.4910000000001
 21
-717.7760000000002
 31
0.0
  0
LINE
  5
F7
330
17
100
AcDbEntity
  8
0
100
AcDbLine
 10
492.4910000000001
 20
-717.7760000000002
 30
0.0
 11
491.8420000000001
 21
-721.5680000000002
 31
0.0
  0
LINE
  5
F8
330
17
100
AcDbEntity
  8
0
100
AcDbLine
 10
491.8420000000001
 20
-721.5680000000002
 30
0.0
 11
490.9250000000001
 21
-724.8660000000002
 31
0.0
  0
LINE
  5
F9
330
17
100
AcDbEntity
  8
0
100
AcDbLine
 10
490.9250000000001
 20
-724.8660000000002
 30
0.0
 11
489.7910000000001
 21
-727.7050000000003
 31
0.0
  0
LINE
  5
FA
330
17
100
AcDbEntity
  8
0
100
AcDbLine
 10
489.7910000000001
 20
-727.7050000000003
 30
0.0
 11
488.4910000000001
 21
-730.1180000000003
 31
0.0
  0
LINE
  5
FB
330
17
100
AcDbEntity
  8
0
100
AcDbLine
 10
488.4910000000001
 20
-730.1180000000003
 30
0.0
 11
487.0750000000001
 21
-732.1390000000002
 31
0.0
  0
LINE
  5
FC
330
17
100
AcDbEntity
  8
0
100
AcDbLine
 10
487.0750000000001
 20
-732.1390000000002
 30
0.0
 11
485.5930000000001
 21
-733.8030000000002
 31
0.0
  0
LINE
  5
FD
330
17
100
AcDbEntity
  8
0
100
AcDbLine
 10
485.5930000000001
 20
-733.8030000000002
 30
0.0
 11
484.09600000000006
 21
-735.1430000000003
 31
0.0
  0
LINE
  5
FE
330
17
100
AcDbEntity
  8
0
100
AcDbLine
 10
484.09600000000006
 20
-735.1430000000003
 30
0.0
 11
482.63500000000005
 21
-736.1940000000003
 31
0.0
  0
LINE
  5
FF
330
17
100
AcDbEntity
  8
0
100
AcDbLine
 10
482.63500000000005
 20
-736.1940000000003
 30
0.0
 11
481.26000000000005
 21
-736.9900000000004
 31
0.0
  0
LINE
  5
100
330
17
100
AcDbEntity
  8
0
100
AcDbLine
 10
481.26000000000005
 20
-736.9900000000004
 30
0.0
 11
480.0210000000001
 21
-737.5640000000003
 31
0.0
  0
LINE
  5
101
330
17
100
AcDbEntity
  8
0
100
AcDbLine
 10
480.0210000000001
 20
-737.5640000000003
 30
0.0
 11
478.9700000000001
 21
-737.9510000000002
 31
0.0
  0
LINE
  5
102
330
17
100
AcDbEntity
  8
0
100
AcDbLine
 10
478.9700000000001
 20
-737.9510000000002
 30
0.0
 11
477.6310000000001
 21
-738.3010000000003
 31
0.0
  0
LINE
  5
103
330
17
100
AcDbEntity
  8
0
100
AcDbLine
 10
477.6310000000001
 20
-738.3010000000003
 30
0.0
 11
477.4450000000001
 21
-738.3320000000002
 31
0.0
  0
LINE
  5
104
330
17
100
AcDbEntity
  8
0
100
AcDbLine
 10
477.4450000000001
 20
-738.3320000000002
 30
0.0
 11
402.9150000000001
 21
-738.3160000000003
 31
0.0
  0
LINE
  5
105
330
17
100
AcDbEntity
  8
0
100
AcDbLine
 10
402.9150000000001
 20
-738.3160000000003
 30
0.0
 11
402.4790000000001
 21
-738.2690000000002
 31
0.0
  0
LINE
  5
106
330
17
100
AcDbEntity
  8
0
100
AcDbLine
 10
402.4790000000001
 20
-738.2690000000002
 30
0.0
 11
402.0480000000001
 21
-738.1910000000003
 31
0.0
  0
LINE
  5
107
330
17
100
AcDbEntity
  8
0
100
AcDbLine
 10
402.0480000000001
 20
-738.1910000000003
 30
0.0
 11
401.6250000000001
 21
-738.0820000000002
 31
0.0
  0
LINE
  5
108
330
17
100
AcDbEntity
  8
0
100
AcDbLine
 10
401.6250000000001
 20
-738.0820000000002
 30
0.0
 11
401.2100000000001
 21
-737.9440000000002
 31
0.0
  0
LINE
  5
109
330
17
100
AcDbEntity
  8
0
100
AcDbLine
 10
401.2100000000001
 20
-737.9440000000002
 30
0.0
 11
400.8060000000001
 21
-737.7760000000002
 31
0.0
  0
LINE
  5
10A
330
17
100
AcDbEntity
  8
0
100
AcDbLine
 10
400.8060000000001
 20
-737.7760000000002
 30
0.0
 11
400.4140000000001
 21
-737.5790000000002
 31
0.0
  0
LINE
  5
10B
330
17
100
AcDbEntity
  8
0
100
AcDbLine
 10
400.4140000000001
 20
-737.5790000000002
 30
0.0
 11
393.0090000000001
 21
-732.8150000000002
 31
0.0
  0
LINE
  5
10C
330
17
100
AcDbEntity
  8
0
100
AcDbLine
 10
393.0090000000001
 20
-732.8150000000002
 30
0.0
 11
328.87400000000014
 21
-732.7710000000002
 31
0.0
  0
LINE
  5
10D
330
17
100
AcDbEntity
  8
0
100
AcDbLine
 10
328.87400000000014
 20
-732.7710000000002
 30
0.0
 11
327.72900000000016
 21
-732.5950000000001
 31
0.0
  0
LINE
  5
10E
330
17
100
AcDbEntity
  8
0
100
AcDbLine
 10
327.72900000000016
 20
-732.5950000000001
 30
0.0
 11
326.62300000000016
 21
-732.3090000000002
 31
0.0
  0
LINE
  5
10F
330
17
100
AcDbEntity
  8
0
100
AcDbLine
 10
326.62300000000016
 20
-732.3090000000002
 30
0.0
 11
325.5620000000002
 21
-731.9190000000002
 31
0.0
  0
LINE
  5
110
330
17
100
AcDbEntity
  8
0
100
AcDbLine
 10
325.5620000000002
 20
-731.9190000000002
 30
0.0
 11
324.5520000000002
 21
-731.4300000000002
 31
0.0
  0
LINE
  5
111
330
17
100
AcDbEntity
  8
0
100
AcDbLine
 10
324.5520000000002
 20
-731.4300000000002
 30
0.0
 11
323.5990000000002
 21
-730.8490000000002
 31
0.0
  0
LINE
  5
112
330
17
100
AcDbEntity
  8
0
100
AcDbLine
 10
323.5990000000002
 20
-730.8490000000002
 30
0.0
 11
322.7080000000002
 21
-730.1820000000001
 31
0.0
  0
LINE
  5
113
330
17
100
AcDbEntity
  8
0
100
AcDbLine
 10
322.7080000000002
 20
-730.1820000000001
 30
0.0
 11
321.8860000000002
 21
-729.4340000000001
 31
0.0
  0
LINE
  5
114
330
17
100
AcDbEntity
  8
0
100
AcDbLine
 10
321.8860000000002
 20
-729.4340000000001
 30
0.0
 11
321.1380000000002
 21
-728.6120000000001
 31
0.0
  0
LINE
  5
115
330
17
100
AcDbEntity
  8
0
100
AcDbLine
 10
321.1380000000002
 20
-728.6120000000001
 30
0.0
 11
320.47100000000023
 21
-727.7210000000001
 31
0.0
  0
LINE
  5
116
330
17
100
AcDbEntity
  8
0
100
AcDbLine
 10
320.47100000000023
 20
-727.7210000000001
 30
0.0
 11
319.8900000000002
 21
-726.7680000000001
 31
0.0
  0
LINE
  5
117
330
17
100
AcDbEntity
  8
0
100
AcDbLine
 10
319.8900000000002
 20
-726.7680000000001
 30
0.0
 11
319.40100000000024
 21
-725.7580000000002
 31
0.0
  0
LINE
  5
118
330
17
100
AcDbEntity
  8
0
100
AcDbLine
 10
319.40100000000024
 20
-725.7580000000002
 30
0.0
 11
319.01100000000025
 21
-724.6970000000001
 31
0.0
  0
LINE
  5
119
330
17
100
AcDbEntity
  8
0
100
AcDbLine
 10
319.01100000000025
 20
-724.6970000000001
 30
0.0
 11
318.72500000000025
 21
-723.5910000000001
 31
0.0
  0
LINE
  5
11A
330
17
100
AcDbEntity
  8
0
100
AcDbLine
 10
318.72500000000025
 20
-723.5910000000001
 30
0.0
 11
318.54900000000026
 21
-722.4460000000001
 31
0.0
  0
LINE
  5
11B
330
17
100
AcDbEntity
  8
0
100
AcDbLine
 10
318.54900000000026
 20
-722.4460000000001
 30
0.0
 11
318.48900000000026
 21
-720.2080000000001
 31
0.0
  0
LINE
  5
11C
330
17
100
AcDbEntity
  8
0
100
AcDbLine
 10
318.48900000000026
 20
-720.2080000000001
 30
0.0
 11
318.54000000000025
 21
-719.0640000000001
 31
0.0
  0
LINE
  5
11D
330
17
100
AcDbEntity
  8
0
100
AcDbLine
 10
318.54000000000025
 20
-719.0640000000001
 30
0.0
 11
318.6900000000002
 21
-718.0400000000001
 31
0.0
  0
LINE
  5
11E
330
17
100
AcDbEntity
  8
0
100
AcDbLine
 10
318.6900000000002
 20
-718.0400000000001
 30
0.0
 11
318.93400000000025
 21
-717.0670000000001
 31
0.0
  0
LINE
  5
11F
330
17
100
AcDbEntity
  8
0
100
AcDbLine
 10
318.93400000000025
 20
-717.0670000000001
 30
0.0
 11
319.2670000000003
 21
-716.1460000000001
 31
0.0
  0
LINE
  5
120
330
17
100
AcDbEntity
  8
0
100
AcDbLine
 10
319.2670000000003
 20
-716.1460000000001
 30
0.0
 11
319.6850000000003
 21
-715.2790000000001
 31
0.0
  0
LINE
  5
121
330
17
100
AcDbEntity
  8
0
100
AcDbLine
 10
319.6850000000003
 20
-715.2790000000001
 30
0.0
 11
320.1830000000003
 21
-714.4680000000001
 31
0.0
  0
LINE
  5
122
330
17
100
AcDbEntity
  8
0
100
AcDbLine
 10
320.1830000000003
 20
-714.4680000000001
 30
0.0
 11
320.7570000000003
 21
-713.7130000000001
 31
0.0
  0
LINE
  5
123
330
17
100
AcDbEntity
  8
0
100
AcDbLine
 10
320.7570000000003
 20
-713.7130000000001
 30
0.0
 11
321.40200000000027
 21
-713.017
 31
0.0
  0
LINE
  5
124
330
17
100
AcDbEntity
  8
0
100
AcDbLine
 10
321.40200000000027
 20
-713.017
 30
0.0
 11
322.1130000000003
 21
-712.3810000000001
 31
0.0
  0
LINE
  5
125
330
17
100
AcDbEntity
  8
0
100
AcDbLine
 10
322.1130000000003
 20
-712.3810000000001
 30
0.0
 11
322.8860000000003
 21
-711.806
 31
0.0
  0
LINE
  5
126
330
17
100
AcDbEntity
  8
0
100
AcDbLine
 10
322.8860000000003
 20
-711.806
 30
0.0
 11
323.7160000000003
 21
-711.2940000000001
 31
0.0
  0
LINE
  5
127
330
17
100
AcDbEntity
  8
0
100
AcDbLine
 10
323.7160000000003
 20
-711.2940000000001
 30
0.0
 11
324.5980000000003
 21
-710.8460000000001
 31
0.0
  0
LINE
  5
128
330
17
100
AcDbEntity
  8
0
100
AcDbLine
 10
324.5980000000003
 20
-710.8460000000001
 30
0.0
 11
325.5280000000003
 21
-710.4640000000002
 31
0.0
  0
LINE
  5
129
330
17
100
AcDbEntity
  8
0
100
AcDbLine
 10
325.5280000000003
 20
-710.4640000000002
 30
0.0
 11
326.5010000000003
 21
-710.1500000000002
 31
0.0
  0
LINE
  5
12A
330
17
100
AcDbEntity
  8
0
100
AcDbLine
 10
326.5010000000003
 20
-710.1500000000002
 30
0.0
 11
327.51200000000034
 21
-709.9050000000002
 31
0.0
  0
LINE
  5
12B
330
17
100
AcDbEntity
  8
0
100
AcDbLine
 10
327.51200000000034
 20
-709.9050000000002
 30
0.0
 11
328.55700000000036
 21
-709.7300000000002
 31
0.0
  0
LINE
  5
12C
330
17
100
AcDbEntity
  8
0
100
AcDbLine
 10
328.55700000000036
 20
-709.7300000000002
 30
0.0
 11
328.5730000000004
 21
-708.7370000000002
 31
0.0
  0
LINE
  5
12D
330
17
100
AcDbEntity
  8
0
100
AcDbLine
 10
328.5730000000004
 20
-708.7370000000002
 30
0.0
 11
263.8110000000004
 21
-708.5720000000002
 31
0.0
  0
LINE
  5
12E
330
17
100
AcDbEntity
  8
0
100
AcDbLine
 10
263.8110000000004
 20
-708.5720000000002
 30
0.0
 11
263.8110000000004
 21
-774.7060000000002
 31
0.0
  0
LINE
  5
12F
330
17
100
AcDbEntity
  8
0
100
AcDbLine
 10
263.8110000000004
 20
-774.7060000000002
 30
0.0
 11
673.9920000000004
 21
-775.7550000000002
 31
0.0
  0
LINE
  5
130
330
17
100
AcDbEntity
  8
0
100
AcDbLine
 10
673.9920000000004
 20
-775.7550000000002
 30
0.0
 11
673.9920000000004
 21
-719.7190000000003
 31
0.0
  0
LINE
  5
131
330
17
100
AcDbEntity
  8
0
100
AcDbLine
 10
673.9920000000004
 20
-719.7190000000003
 30
0.0
 11
667.3640000000004
 21
-708.5720000000002
 31
0.0
  0
ENDSEC
  0
SECTION
  2
OBJECTS
  0
DICTIONARY
  5
A
330
0
100
AcDbDictionary
281
1
  3
ACAD_COLOR
350
B
  3
ACAD_GROUP
350
C
  3
ACAD_LAYOUT
350
D
  3
ACAD_MATERIAL
350
E
  3
ACAD_MLEADERSTYLE
350
F
  3
ACAD_MLINESTYLE
350
10
  3
ACAD_PLOTSETTINGS
350
11
  3
ACAD_PLOTSTYLENAME
350
12
  3
ACAD_SCALELIST
350
14
  3
ACAD_TABLESTYLE
350
15
  3
ACAD_VISUALSTYLE
350
16
  3
EZDXF_META
350
2D
  0
DICTIONARY
  5
B
330
A
100
AcDbDictionary
281
1
  0
DICTIONARY
  5
C
330
A
100
AcDbDictionary
281
1
  0
DICTIONARY
  5
D
330
A
100
AcDbDictionary
281
1
  3
Model
350
1A
  3
Layout1
350
1E
  0
DICTIONARY
  5
E
330
A
100
AcDbDictionary
281
1
  3
ByBlock
350
1F
  3
ByLayer
350
20
  3
Global
350
21
  0
DICTIONARY
  5
F
330
A
100
AcDbDictionary
281
1
  3
Standard
350
2C
  0
DICTIONARY
  5
10
330
A
100
AcDbDictionary
281
1
  3
Standard
350
22
  0
DICTIONARY
  5
11
330
A
100
AcDbDictionary
281
1
  0
ACDBDICTIONARYWDFLT
  5
12
330
A
100
AcDbDictionary
281
1
  3
Normal
350
13
100
AcDbDictionaryWithDefault
340
13
  0
ACDBPLACEHOLDER
  5
13
330
12
  0
DICTIONARY
  5
14
330
A
100
AcDbDictionary
281
1
  0
DICTIONARY
  5
15
330
A
100
AcDbDictionary
281
1
  0
DICTIONARY
  5
16
330
A
100
AcDbDictionary
281
1
  0
LAYOUT
  5
1A
330
D
100
AcDbPlotSettings
  1

  4
A3
  6

 40
7.5
 41
20.0
 42
7.5
 43
20.0
 44
420.0
 45
297.0
 46
0.0
 47
0.0
 48
0.0
 49
0.0
140
0.0
141
0.0
142
1.0
143
1.0
 70
1024
 72
1
 73
0
 74
5
  7

 75
16
 76
0
 77
2
 78
300
147
1.0
148
0.0
149
0.0
100
AcDbLayout
  1
Model
 70
1
 71
0
 10
0.0
 20
0.0
 11
420.0
 21
297.0
 12
0.0
 22
0.0
 32
0.0
 14
1e+20
 24
1e+20
 34
1e+20
 15
-1e+20
 25
-1e+20
 35
-1e+20
146
0.0
 13
0.0
 23
0.0
 33
0.0
 16
1.0
 26
0.0
 36
0.0
 17
0.0
 27
1.0
 37
0.0
 76
1
330
17
  0
LAYOUT
  5
1E
330
D
100
AcDbPlotSettings
  1

  4
A3
  6

 40
7.5
 41
20.0
 42
7.5
 43
20.0
 44
420.0
 45
297.0
 46
0.0
 47
0.0
 48
0.0
 49
0.0
140
0.0
141
0.0
142
1.0
143
1.0
 70
0
 72
1
 73
0
 74
5
  7

 75
16
 76
0
 77
2
 78
300
147
1.0
148
0.0
149
0.0
100
AcDbLayout
  1
Layout1
 70
1
 71
1
 10
0.0
 20
0.0
 11
420.0
 21
297.0
 12
0.0
 22
0.0
 32
0.0
 14
1e+20
 24
1e+20
 34
1e+20
 15
-1e+20
 25
-1e+20
 35
-1e+20
146
0.0
 13
0.0
 23
0.0
 33
0.0
 16
1.0
 26
0.0
 36
0.0
 17
0.0
 27
1.0
 37
0.0
 76
1
330
1B
  0
MATERIAL
  5
1F
102
{ACAD_REACTORS
330
E
102
}
330
E
100
AcDbMaterial
  1
ByBlock
  2

 70
0
 40
1.0
 71
1
 41
1.0
 91
-1023410177
 42
1.0
 72
1
  3

 73
1
 74
1
 75
1
 44
0.5
 73
0
 45
1.0
 46
1.0
 77
1
  4

 78
1
 79
1
170
1
 48
1.0
171
1
  6

172
1
173
1
174
1
140
1.0
141
1.0
175
1
  7

176
1
177
1
178
1
143
1.0
179
1
  8

270
1
271
1
272
1
145
1.0
146
1.0
273
1
  9

274
1
275
1
276
1
 42
1.0
 72
1
  3

 73
1
 74
1
 75
1
 94
63
  0
MATERIAL
  5
20
102
{ACAD_REACTORS
330
E
102
}
330
E
100
AcDbMaterial
  1
ByLayer
  2

 70
0
 40
1.0
 71
1
 41
1.0
 91
-1023410177
 42
1.0
 72
1
  3

 73
1
 74
1
 75
1
 44
0.5
 73
0
 45
1.0
 46
1.0
 77
1
  4

 78
1
 79
1
170
1
 48
1.0
171
1
  6

172
1
173
1
174
1
140
1.0
141
1.0
175
1
  7

176
1
177
1
178
1
143
1.0
179
1
  8

270
1
271
1
272
1
145
1.0
146
1.0
273
1
  9

274
1
275
1
276
1
 42
1.0
 72
1
  3

 73
1
 74
1
 75
1
 94
63
  0
MATERIAL
  5
21
102
{ACAD_REACTORS
330
E
102
}
330
E
100
AcDbMaterial
  1
Global
  2

 70
0
 40
1.0
 71
1
 41
1.0
 91
-1023410177
 42
1.0
 72
1
  3

 73
1
 74
1
 75
1
 44
0.5
 73
0
 45
1.0
 46
1.0
 77
1
  4

 78
1
 79
1
170
1
 48
1.0
171
1
  6

172
1
173
1
174
1
140
1.0
141
1.0
175
1
  7

176
1
177
1
178
1
143
1.0
179
1
  8

270
1
271
1
272
1
145
1.0
146
1.0
273
1
  9

274
1
275
1
276
1
 42
1.0
 72
1
  3

 73
1
 74
1
 75
1
 94
63
  0
MLINESTYLE
  5
22
102
{ACAD_REACTORS
330
10
102
}
330
10
100
AcDbMlineStyle
  2
Standard
 70
0
  3

 62
256
 51
90.0
 52
90.0
 71
2
 49
0.5
 62
256
  6
BYLAYER
 49
-0.5
 62
256
  6
BYLAYER
  0
MLEADERSTYLE
  5
2C
102
{ACAD_REACTORS
330
F
102
}
330
F
100
AcDbMLeaderStyle
179
2
170
2
171
1
172
0
 90
2
 40
0.0
 41
0.0
173
1
 91
-1056964608
 92
-2
290
1
 42
2.0
291
1
 43
8.0
  3
Standard
 44
4.0
300

342
29
174
1
175
1
176
0
178
1
 93
-1056964608
 45
4.0
292
0
297
0
 46
4.0
 94
-1056964608
 47
1.0
 49
1.0
140
1.0
294
1
141
0.0
177
0
142
1.0
295
0
296
0
143
3.75
271
0
272
9
273
9
  0
DICTIONARY
  5
2D
330
A
100
AcDbDictionary
280
1
281
1
  3
CREATED_BY_EZDXF
350
2E
  3
WRITTEN_BY_EZDXF
350
134
  0
DICTIONARYVAR
  5
2E
330
2D
100
DictionaryVariables
280
0
  1
1.4.3 @ 2026-04-08T00:10:10.871271+00:00
  0
DICTIONARYVAR
  5
134
330
2D
100
DictionaryVariables
280
0
  1
1.4.3 @ 2026-04-08T00:10:10.873713+00:00
  0
ENDSEC
  0
EOF
