  0
SECTION
  2
HEADER
  9
$ACADVER
  1
AC1009
  9
$INSUNITS
 70
4
  0
ENDSEC
  0
SECTION
  2
TABLES
  0
TABLE
  2
LTYPE
 70
1
  0
LTYPE
  2
CONTINUOUS
 70
0
  3
Solid line
 72
65
 73
0
 40
0.0
  0
ENDTAB
  0
TABLE
  2
LAYER
 70
1
  0
LAYER
  2
0
 70
0
 62
7
  6
CONTINUOUS
  0
ENDTAB
  0
ENDSEC
  0
SECTION
  2
BLOCKS
  0
ENDSEC
  0
SECTION
  2
ENTITIES
  0
POLYLINE
  8
0
 66
1
 70
1
 10
0.0
 20
0.0
 30
0.0
  0
VERTEX
  8
0
 10
1.515544
 20
0.875000
 30
0.0
  0
VERTEX
  8
0
 10
0.000000
 20
1.750000
 30
0.0
  0
VERTEX
  8
0
 10
-1.515544
 20
0.875000
 30
0.0
  0
VERTEX
  8
0
 10
-1.515544
 20
-0.875000
 30
0.0
  0
VERTEX
  8
0
 10
-0.000000
 20
-1.750000
 30
0.0
  0
VERTEX
  8
0
 10
1.515544
 20
-0.875000
 30
0.0
  0
SEQEND
  8
0
  0
POLYLINE
  8
0
 66
1
 70
1
 10
0.0
 20
0.0
 30
0.0
  0
VERTEX
  8
0
 10
5.546633
 20
0.875000
 30
0.0
  0
VERTEX
  8
0
 10
4.031089
 20
1.750000
 30
0.0
  0
VERTEX
  8
0
 10
2.515544
 20
0.875000
 30
0.0
  0
VERTEX
  8
0
 10
2.515544
 20
-0.875000
 30
0.0
  0
VERTEX
  8
0
 10
4.031089
 20
-1.750000
 30
0.0
  0
VERTEX
  8
0
 10
5.546633
 20
-0.875000
 30
0.0
  0
SEQEND
  8
0
  0
POLYLINE
  8
0
 66
1
 70
1
 10
0.0
 20
0.0
 30
0.0
  0
VERTEX
  8
0
 10
9.577722
 20
0.875000
 30
0.0
  0
VERTEX
  8
0
 10
8.062178
 20
1.750000
 30
0.0
  0
VERTEX
  8
0
 10
6.546633
 20
0.875000
 30
0.0
  0
VERTEX
  8
0
 10
6.546633
 20
-0.875000
 30
0.0
  0
VERTEX
  8
0
 10
8.062178
 20
-1.750000
 30
0.0
  0
VERTEX
  8
0
 10
9.577722
 20
-0.875000
 30
0.0
  0
SEQEND
  8
0
  0
POLYLINE
  8
0
 66
1
 70
1
 10
0.0
 20
0.0
 30
0.0
  0
VERTEX
  8
0
 10
13.608811
 20
0.875000
 30
0.0
  0
VERTEX
  8
0
 10
12.093267
 20
1.750000
 30
0.0
  0
VERTEX
  8
0
 10
10.577722
 20
0.875000
 30
0.0
  0
VERTEX
  8
0
 10
10.577722
 20
-0.875000
 30
0.0
  0
VERTEX
  8
0
 10
12.093267
 20
-1.750000
 30
0.0
  0
VERTEX
  8
0
 10
13.608811
 20
-0.875000
 30
0.0
  0
SEQEND
  8
0
  0
POLYLINE
  8
0
 66
1
 70
1
 10
0.0
 20
0.0
 30
0.0
  0
VERTEX
  8
0
 10
17.639900
 20
0.875000
 30
0.0
  0
VERTEX
  8
0
 10
16.124356
 20
1.750000
 30
0.0
  0
VERTEX
  8
0
 10
14.608811
 20
0.875000
 30
0.0
  0
VERTEX
  8
0
 10
14.608811
 20
-0.875000
 30
0.0
  0
VERTEX
  8
0
 10
16.124356
 20
-1.750000
 30
0.0
  0
VERTEX
  8
0
 10
17.639900
 20
-0.875000
 30
0.0
  0
SEQEND
  8
0
  0
POLYLINE
  8
0
 66
1
 70
1
 10
0.0
 20
0.0
 30
0.0
  0
VERTEX
  8
0
 10
21.670989
 20
0.875000
 30
0.0
  0
VERTEX
  8
0
 10
20.155445
 20
1.750000
 30
0.0
  0
VERTEX
  8
0
 10
18.639900
 20
0.875000
 30
0.0
  0
VERTEX
  8
0
 10
18.639900
 20
-0.875000
 30
0.0
  0
VERTEX
  8
0
 10
20.155445
 20
-1.750000
 30
0.0
  0
VERTEX
  8
0
 10
21.670989
 20
-0.875000
 30
0.0
  0
SEQEND
  8
0
  0
POLYLINE
  8
0
 66
1
 70
1
 10
0.0
 20
0.0
 30
0.0
  0
VERTEX
  8
0
 10
25.702078
 20
0.875000
 30
0.0
  0
VERTEX
  8
0
 10
24.186533
 20
1.750000
 30
0.0
  0
VERTEX
  8
0
 10
22.670989
 20
0.875000
 30
0.0
  0
VERTEX
  8
0
 10
22.670989
 20
-0.875000
 30
0.0
  0
VERTEX
  8
0
 10
24.186533
 20
-1.750000
 30
0.0
  0
VERTEX
  8
0
 10
25.702078
 20
-0.875000
 30
0.0
  0
SEQEND
  8
0
  0
POLYLINE
  8
0
 66
1
 70
1
 10
0.0
 20
0.0
 30
0.0
  0
VERTEX
  8
0
 10
29.733167
 20
0.875000
 30
0.0
  0
VERTEX
  8
0
 10
28.217622
 20
1.750000
 30
0.0
  0
VERTEX
  8
0
 10
26.702078
 20
0.875000
 30
0.0
  0
VERTEX
  8
0
 10
26.702078
 20
-0.875000
 30
0.0
  0
VERTEX
  8
0
 10
28.217622
 20
-1.750000
 30
0.0
  0
VERTEX
  8
0
 10
29.733167
 20
-0.875000
 30
0.0
  0
SEQEND
  8
0
  0
POLYLINE
  8
0
 66
1
 70
1
 10
0.0
 20
0.0
 30
0.0
  0
VERTEX
  8
0
 10
33.764256
 20
0.875000
 30
0.0
  0
VERTEX
  8
0
 10
32.248711
 20
1.750000
 30
0.0
  0
VERTEX
  8
0
 10
30.733167
 20
0.875000
 30
0.0
  0
VERTEX
  8
0
 10
30.733167
 20
-0.875000
 30
0.0
  0
VERTEX
  8
0
 10
32.248711
 20
-1.750000
 30
0.0
  0
VERTEX
  8
0
 10
33.764256
 20
-0.875000
 30
0.0
  0
SEQEND
  8
0
  0
POLYLINE
  8
0
 66
1
 70
1
 10
0.0
 20
0.0
 30
0.0
  0
VERTEX
  8
0
 10
37.795345
 20
0.875000
 30
0.0
  0
VERTEX
  8
0
 10
36.279800
 20
1.750000
 30
0.0
  0
VERTEX
  8
0
 10
34.764256
 20
0.875000
 30
0.0
  0
VERTEX
  8
0
 10
34.764256
 20
-0.875000
 30
0.0
  0
VERTEX
  8
0
 10
36.279800
 20
-1.750000
 30
0.0
  0
VERTEX
  8
0
 10
37.795345
 20
-0.875000
 30
0.0
  0
SEQEND
  8
0
  0
POLYLINE
  8
0
 66
1
 70
1
 10
0.0
 20
0.0
 30
0.0
  0
VERTEX
  8
0
 10
3.531089
 20
4.366025
 30
0.0
  0
VERTEX
  8
0
 10
2.015544
 20
5.241025
 30
0.0
  0
VERTEX
  8
0
 10
0.500000
 20
4.366025
 30
0.0
  0
VERTEX
  8
0
 10
0.500000
 20
2.616025
 30
0.0
  0
VERTEX
  8
0
 10
2.015544
 20
1.741025
 30
0.0
  0
VERTEX
  8
0
 10
3.531089
 20
2.616025
 30
0.0
  0
SEQEND
  8
0
  0
POLYLINE
  8
0
 66
1
 70
1
 10
0.0
 20
0.0
 30
0.0
  0
VERTEX
  8
0
 10
7.562178
 20
4.366025
 30
0.0
  0
VERTEX
  8
0
 10
6.046633
 20
5.241025
 30
0.0
  0
VERTEX
  8
0
 10
4.531089
 20
4.366025
 30
0.0
  0
VERTEX
  8
0
 10
4.531089
 20
2.616025
 30
0.0
  0
VERTEX
  8
0
 10
6.046633
 20
1.741025
 30
0.0
  0
VERTEX
  8
0
 10
7.562178
 20
2.616025
 30
0.0
  0
SEQEND
  8
0
  0
POLYLINE
  8
0
 66
1
 70
1
 10
0.0
 20
0.0
 30
0.0
  0
VERTEX
  8
0
 10
11.593267
 20
4.366025
 30
0.0
  0
VERTEX
  8
0
 10
10.077722
 20
5.241025
 30
0.0
  0
VERTEX
  8
0
 10
8.562178
 20
4.366025
 30
0.0
  0
VERTEX
  8
0
 10
8.562178
 20
2.616025
 30
0.0
  0
VERTEX
  8
0
 10
10.077722
 20
1.741025
 30
0.0
  0
VERTEX
  8
0
 10
11.593267
 20
2.616025
 30
0.0
  0
SEQEND
  8
0
  0
POLYLINE
  8
0
 66
1
 70
1
 10
0.0
 20
0.0
 30
0.0
  0
VERTEX
  8
0
 10
15.624356
 20
4.366025
 30
0.0
  0
VERTEX
  8
0
 10
14.108811
 20
5.241025
 30
0.0
  0
VERTEX
  8
0
 10
12.593267
 20
4.366025
 30
0.0
  0
VERTEX
  8
0
 10
12.593267
 20
2.616025
 30
0.0
  0
VERTEX
  8
0
 10
14.108811
 20
1.741025
 30
0.0
  0
VERTEX
  8
0
 10
15.624356
 20
2.616025
 30
0.0
  0
SEQEND
  8
0
  0
POLYLINE
  8
0
 66
1
 70
1
 10
0.0
 20
0.0
 30
0.0
  0
VERTEX
  8
0
 10
19.655445
 20
4.366025
 30
0.0
  0
VERTEX
  8
0
 10
18.139900
 20
5.241025
 30
0.0
  0
VERTEX
  8
0
 10
16.624356
 20
4.366025
 30
0.0
  0
VERTEX
  8
0
 10
16.624356
 20
2.616025
 30
0.0
  0
VERTEX
  8
0
 10
18.139900
 20
1.741025
 30
0.0
  0
VERTEX
  8
0
 10
19.655445
 20
2.616025
 30
0.0
  0
SEQEND
  8
0
  0
POLYLINE
  8
0
 66
1
 70
1
 10
0.0
 20
0.0
 30
0.0
  0
VERTEX
  8
0
 10
23.686533
 20
4.366025
 30
0.0
  0
VERTEX
  8
0
 10
22.170989
 20
5.241025
 30
0.0
  0
VERTEX
  8
0
 10
20.655445
 20
4.366025
 30
0.0
  0
VERTEX
  8
0
 10
20.655445
 20
2.616025
 30
0.0
  0
VERTEX
  8
0
 10
22.170989
 20
1.741025
 30
0.0
  0
VERTEX
  8
0
 10
23.686533
 20
2.616025
 30
0.0
  0
SEQEND
  8
0
  0
POLYLINE
  8
0
 66
1
 70
1
 10
0.0
 20
0.0
 30
0.0
  0
VERTEX
  8
0
 10
27.717622
 20
4.366025
 30
0.0
  0
VERTEX
  8
0
 10
26.202078
 20
5.241025
 30
0.0
  0
VERTEX
  8
0
 10
24.686533
 20
4.366025
 30
0.0
  0
VERTEX
  8
0
 10
24.686533
 20
2.616025
 30
0.0
  0
VERTEX
  8
0
 10
26.202078
 20
1.741025
 30
0.0
  0
VERTEX
  8
0
 10
27.717622
 20
2.616025
 30
0.0
  0
SEQEND
  8
0
  0
POLYLINE
  8
0
 66
1
 70
1
 10
0.0
 20
0.0
 30
0.0
  0
VERTEX
  8
0
 10
31.748711
 20
4.366025
 30
0.0
  0
VERTEX
  8
0
 10
30.233167
 20
5.241025
 30
0.0
  0
VERTEX
  8
0
 10
28.717622
 20
4.366025
 30
0.0
  0
VERTEX
  8
0
 10
28.717622
 20
2.616025
 30
0.0
  0
VERTEX
  8
0
 10
30.233167
 20
1.741025
 30
0.0
  0
VERTEX
  8
0
 10
31.748711
 20
2.616025
 30
0.0
  0
SEQEND
  8
0
  0
POLYLINE
  8
0
 66
1
 70
1
 10
0.0
 20
0.0
 30
0.0
  0
VERTEX
  8
0
 10
35.779800
 20
4.366025
 30
0.0
  0
VERTEX
  8
0
 10
34.264256
 20
5.241025
 30
0.0
  0
VERTEX
  8
0
 10
32.748711
 20
4.366025
 30
0.0
  0
VERTEX
  8
0
 10
32.748711
 20
2.616025
 30
0.0
  0
VERTEX
  8
0
 10
34.264256
 20
1.741025
 30
0.0
  0
VERTEX
  8
0
 10
35.779800
 20
2.616025
 30
0.0
  0
SEQEND
  8
0
  0
POLYLINE
  8
0
 66
1
 70
1
 10
0.0
 20
0.0
 30
0.0
  0
VERTEX
  8
0
 10
39.810889
 20
4.366025
 30
0.0
  0
VERTEX
  8
0
 10
38.295345
 20
5.241025
 30
0.0
  0
VERTEX
  8
0
 10
36.779800
 20
4.366025
 30
0.0
  0
VERTEX
  8
0
 10
36.779800
 20
2.616025
 30
0.0
  0
VERTEX
  8
0
 10
38.295345
 20
1.741025
 30
0.0
  0
VERTEX
  8
0
 10
39.810889
 20
2.616025
 30
0.0
  0
SEQEND
  8
0
  0
POLYLINE
  8
0
 66
1
 70
1
 10
0.0
 20
0.0
 30
0.0
  0
VERTEX
  8
0
 10
1.515544
 20
7.857051
 30
0.0
  0
VERTEX
  8
0
 10
0.000000
 20
8.732051
 30
0.0
  0
VERTEX
  8
0
 10
-1.515544
 20
7.857051
 30
0.0
  0
VERTEX
  8
0
 10
-1.515544
 20
6.107051
 30
0.0
  0
VERTEX
  8
0
 10
-0.000000
 20
5.232051
 30
0.0
  0
VERTEX
  8
0
 10
1.515544
 20
6.107051
 30
0.0
  0
SEQEND
  8
0
  0
POLYLINE
  8
0
 66
1
 70
1
 10
0.0
 20
0.0
 30
0.0
  0
VERTEX
  8
0
 10
5.546633
 20
7.857051
 30
0.0
  0
VERTEX
  8
0
 10
4.031089
 20
8.732051
 30
0.0
  0
VERTEX
  8
0
 10
2.515544
 20
7.857051
 30
0.0
  0
VERTEX
  8
0
 10
2.515544
 20
6.107051
 30
0.0
  0
VERTEX
  8
0
 10
4.031089
 20
5.232051
 30
0.0
  0
VERTEX
  8
0
 10
5.546633
 20
6.107051
 30
0.0
  0
SEQEND
  8
0
  0
POLYLINE
  8
0
 66
1
 70
1
 10
0.0
 20
0.0
 30
0.0
  0
VERTEX
  8
0
 10
9.577722
 20
7.857051
 30
0.0
  0
VERTEX
  8
0
 10
8.062178
 20
8.732051
 30
0.0
  0
VERTEX
  8
0
 10
6.546633
 20
7.857051
 30
0.0
  0
VERTEX
  8
0
 10
6.546633
 20
6.107051
 30
0.0
  0
VERTEX
  8
0
 10
8.062178
 20
5.232051
 30
0.0
  0
VERTEX
  8
0
 10
9.577722
 20
6.107051
 30
0.0
  0
SEQEND
  8
0
  0
POLYLINE
  8
0
 66
1
 70
1
 10
0.0
 20
0.0
 30
0.0
  0
VERTEX
  8
0
 10
13.608811
 20
7.857051
 30
0.0
  0
VERTEX
  8
0
 10
12.093267
 20
8.732051
 30
0.0
  0
VERTEX
  8
0
 10
10.577722
 20
7.857051
 30
0.0
  0
VERTEX
  8
0
 10
10.577722
 20
6.107051
 30
0.0
  0
VERTEX
  8
0
 10
12.093267
 20
5.232051
 30
0.0
  0
VERTEX
  8
0
 10
13.608811
 20
6.107051
 30
0.0
  0
SEQEND
  8
0
  0
POLYLINE
  8
0
 66
1
 70
1
 10
0.0
 20
0.0
 30
0.0
  0
VERTEX
  8
0
 10
17.639900
 20
7.857051
 30
0.0
  0
VERTEX
  8
0
 10
16.124356
 20
8.732051
 30
0.0
  0
VERTEX
  8
0
 10
14.608811
 20
7.857051
 30
0.0
  0
VERTEX
  8
0
 10
14.608811
 20
6.107051
 30
0.0
  0
VERTEX
  8
0
 10
16.124356
 20
5.232051
 30
0.0
  0
VERTEX
  8
0
 10
17.639900
 20
6.107051
 30
0.0
  0
SEQEND
  8
0
  0
POLYLINE
  8
0
 66
1
 70
1
 10
0.0
 20
0.0
 30
0.0
  0
VERTEX
  8
0
 10
21.670989
 20
7.857051
 30
0.0
  0
VERTEX
  8
0
 10
20.155445
 20
8.732051
 30
0.0
  0
VERTEX
  8
0
 10
18.639900
 20
7.857051
 30
0.0
  0
VERTEX
  8
0
 10
18.639900
 20
6.107051
 30
0.0
  0
VERTEX
  8
0
 10
20.155445
 20
5.232051
 30
0.0
  0
VERTEX
  8
0
 10
21.670989
 20
6.107051
 30
0.0
  0
SEQEND
  8
0
  0
POLYLINE
  8
0
 66
1
 70
1
 10
0.0
 20
0.0
 30
0.0
  0
VERTEX
  8
0
 10
25.702078
 20
7.857051
 30
0.0
  0
VERTEX
  8
0
 10
24.186533
 20
8.732051
 30
0.0
  0
VERTEX
  8
0
 10
22.670989
 20
7.857051
 30
0.0
  0
VERTEX
  8
0
 10
22.670989
 20
6.107051
 30
0.0
  0
VERTEX
  8
0
 10
24.186533
 20
5.232051
 30
0.0
  0
VERTEX
  8
0
 10
25.702078
 20
6.107051
 30
0.0
  0
SEQEND
  8
0
  0
POLYLINE
  8
0
 66
1
 70
1
 10
0.0
 20
0.0
 30
0.0
  0
VERTEX
  8
0
 10
29.733167
 20
7.857051
 30
0.0
  0
VERTEX
  8
0
 10
28.217622
 20
8.732051
 30
0.0
  0
VERTEX
  8
0
 10
26.702078
 20
7.857051
 30
0.0
  0
VERTEX
  8
0
 10
26.702078
 20
6.107051
 30
0.0
  0
VERTEX
  8
0
 10
28.217622
 20
5.232051
 30
0.0
  0
VERTEX
  8
0
 10
29.733167
 20
6.107051
 30
0.0
  0
SEQEND
  8
0
  0
POLYLINE
  8
0
 66
1
 70
1
 10
0.0
 20
0.0
 30
0.0
  0
VERTEX
  8
0
 10
33.764256
 20
7.857051
 30
0.0
  0
VERTEX
  8
0
 10
32.248711
 20
8.732051
 30
0.0
  0
VERTEX
  8
0
 10
30.733167
 20
7.857051
 30
0.0
  0
VERTEX
  8
0
 10
30.733167
 20
6.107051
 30
0.0
  0
VERTEX
  8
0
 10
32.248711
 20
5.232051
 30
0.0
  0
VERTEX
  8
0
 10
33.764256
 20
6.107051
 30
0.0
  0
SEQEND
  8
0
  0
POLYLINE
  8
0
 66
1
 70
1
 10
0.0
 20
0.0
 30
0.0
  0
VERTEX
  8
0
 10
37.795345
 20
7.857051
 30
0.0
  0
VERTEX
  8
0
 10
36.279800
 20
8.732051
 30
0.0
  0
VERTEX
  8
0
 10
34.764256
 20
7.857051
 30
0.0
  0
VERTEX
  8
0
 10
34.764256
 20
6.107051
 30
0.0
  0
VERTEX
  8
0
 10
36.279800
 20
5.232051
 30
0.0
  0
VERTEX
  8
0
 10
37.795345
 20
6.107051
 30
0.0
  0
SEQEND
  8
0
  0
POLYLINE
  8
0
 66
1
 70
1
 10
0.0
 20
0.0
 30
0.0
  0
VERTEX
  8
0
 10
3.531089
 20
11.348076
 30
0.0
  0
VERTEX
  8
0
 10
2.015544
 20
12.223076
 30
0.0
  0
VERTEX
  8
0
 10
0.500000
 20
11.348076
 30
0.0
  0
VERTEX
  8
0
 10
0.500000
 20
9.598076
 30
0.0
  0
VERTEX
  8
0
 10
2.015544
 20
8.723076
 30
0.0
  0
VERTEX
  8
0
 10
3.531089
 20
9.598076
 30
0.0
  0
SEQEND
  8
0
  0
POLYLINE
  8
0
 66
1
 70
1
 10
0.0
 20
0.0
 30
0.0
  0
VERTEX
  8
0
 10
7.562178
 20
11.348076
 30
0.0
  0
VERTEX
  8
0
 10
6.046633
 20
12.223076
 30
0.0
  0
VERTEX
  8
0
 10
4.531089
 20
11.348076
 30
0.0
  0
VERTEX
  8
0
 10
4.531089
 20
9.598076
 30
0.0
  0
VERTEX
  8
0
 10
6.046633
 20
8.723076
 30
0.0
  0
VERTEX
  8
0
 10
7.562178
 20
9.598076
 30
0.0
  0
SEQEND
  8
0
  0
POLYLINE
  8
0
 66
1
 70
1
 10
0.0
 20
0.0
 30
0.0
  0
VERTEX
  8
0
 10
11.593267
 20
11.348076
 30
0.0
  0
VERTEX
  8
0
 10
10.077722
 20
12.223076
 30
0.0
  0
VERTEX
  8
0
 10
8.562178
 20
11.348076
 30
0.0
  0
VERTEX
  8
0
 10
8.562178
 20
9.598076
 30
0.0
  0
VERTEX
  8
0
 10
10.077722
 20
8.723076
 30
0.0
  0
VERTEX
  8
0
 10
11.593267
 20
9.598076
 30
0.0
  0
SEQEND
  8
0
  0
POLYLINE
  8
0
 66
1
 70
1
 10
0.0
 20
0.0
 30
0.0
  0
VERTEX
  8
0
 10
15.624356
 20
11.348076
 30
0.0
  0
VERTEX
  8
0
 10
14.108811
 20
12.223076
 30
0.0
  0
VERTEX
  8
0
 10
12.593267
 20
11.348076
 30
0.0
  0
VERTEX
  8
0
 10
12.593267
 20
9.598076
 30
0.0
  0
VERTEX
  8
0
 10
14.108811
 20
8.723076
 30
0.0
  0
VERTEX
  8
0
 10
15.624356
 20
9.598076
 30
0.0
  0
SEQEND
  8
0
  0
POLYLINE
  8
0
 66
1
 70
1
 10
0.0
 20
0.0
 30
0.0
  0
VERTEX
  8
0
 10
19.655445
 20
11.348076
 30
0.0
  0
VERTEX
  8
0
 10
18.139900
 20
12.223076
 30
0.0
  0
VERTEX
  8
0
 10
16.624356
 20
11.348076
 30
0.0
  0
VERTEX
  8
0
 10
16.624356
 20
9.598076
 30
0.0
  0
VERTEX
  8
0
 10
18.139900
 20
8.723076
 30
0.0
  0
VERTEX
  8
0
 10
19.655445
 20
9.598076
 30
0.0
  0
SEQEND
  8
0
  0
POLYLINE
  8
0
 66
1
 70
1
 10
0.0
 20
0.0
 30
0.0
  0
VERTEX
  8
0
 10
23.686533
 20
11.348076
 30
0.0
  0
VERTEX
  8
0
 10
22.170989
 20
12.223076
 30
0.0
  0
VERTEX
  8
0
 10
20.655445
 20
11.348076
 30
0.0
  0
VERTEX
  8
0
 10
20.655445
 20
9.598076
 30
0.0
  0
VERTEX
  8
0
 10
22.170989
 20
8.723076
 30
0.0
  0
VERTEX
  8
0
 10
23.686533
 20
9.598076
 30
0.0
  0
SEQEND
  8
0
  0
POLYLINE
  8
0
 66
1
 70
1
 10
0.0
 20
0.0
 30
0.0
  0
VERTEX
  8
0
 10
27.717622
 20
11.348076
 30
0.0
  0
VERTEX
  8
0
 10
26.202078
 20
12.223076
 30
0.0
  0
VERTEX
  8
0
 10
24.686533
 20
11.348076
 30
0.0
  0
VERTEX
  8
0
 10
24.686533
 20
9.598076
 30
0.0
  0
VERTEX
  8
0
 10
26.202078
 20
8.723076
 30
0.0
  0
VERTEX
  8
0
 10
27.717622
 20
9.598076
 30
0.0
  0
SEQEND
  8
0
  0
POLYLINE
  8
0
 66
1
 70
1
 10
0.0
 20
0.0
 30
0.0
  0
VERTEX
  8
0
 10
31.748711
 20
11.348076
 30
0.0
  0
VERTEX
  8
0
 10
30.233167
 20
12.223076
 30
0.0
  0
VERTEX
  8
0
 10
28.717622
 20
11.348076
 30
0.0
  0
VERTEX
  8
0
 10
28.717622
 20
9.598076
 30
0.0
  0
VERTEX
  8
0
 10
30.233167
 20
8.723076
 30
0.0
  0
VERTEX
  8
0
 10
31.748711
 20
9.598076
 30
0.0
  0
SEQEND
  8
0
  0
POLYLINE
  8
0
 66
1
 70
1
 10
0.0
 20
0.0
 30
0.0
  0
VERTEX
  8
0
 10
35.779800
 20
11.348076
 30
0.0
  0
VERTEX
  8
0
 10
34.264256
 20
12.223076
 30
0.0
  0
VERTEX
  8
0
 10
32.748711
 20
11.348076
 30
0.0
  0
VERTEX
  8
0
 10
32.748711
 20
9.598076
 30
0.0
  0
VERTEX
  8
0
 10
34.264256
 20
8.723076
 30
0.0
  0
VERTEX
  8
0
 10
35.779800
 20
9.598076
 30
0.0
  0
SEQEND
  8
0
  0
POLYLINE
  8
0
 66
1
 70
1
 10
0.0
 20
0.0
 30
0.0
  0
VERTEX
  8
0
 10
39.810889
 20
11.348076
 30
0.0
  0
VERTEX
  8
0
 10
38.295345
 20
12.223076
 30
0.0
  0
VERTEX
  8
0
 10
36.779800
 20
11.348076
 30
0.0
  0
VERTEX
  8
0
 10
36.779800
 20
9.598076
 30
0.0
  0
VERTEX
  8
0
 10
38.295345
 20
8.723076
 30
0.0
  0
VERTEX
  8
0
 10
39.810889
 20
9.598076
 30
0.0
  0
SEQEND
  8
0
  0
POLYLINE
  8
0
 66
1
 70
1
 10
0.0
 20
0.0
 30
0.0
  0
VERTEX
  8
0
 10
1.515544
 20
14.839102
 30
0.0
  0
VERTEX
  8
0
 10
0.000000
 20
15.714102
 30
0.0
  0
VERTEX
  8
0
 10
-1.515544
 20
14.839102
 30
0.0
  0
VERTEX
  8
0
 10
-1.515544
 20
13.089102
 30
0.0
  0
VERTEX
  8
0
 10
-0.000000
 20
12.214102
 30
0.0
  0
VERTEX
  8
0
 10
1.515544
 20
13.089102
 30
0.0
  0
SEQEND
  8
0
  0
POLYLINE
  8
0
 66
1
 70
1
 10
0.0
 20
0.0
 30
0.0
  0
VERTEX
  8
0
 10
5.546633
 20
14.839102
 30
0.0
  0
VERTEX
  8
0
 10
4.031089
 20
15.714102
 30
0.0
  0
VERTEX
  8
0
 10
2.515544
 20
14.839102
 30
0.0
  0
VERTEX
  8
0
 10
2.515544
 20
13.089102
 30
0.0
  0
VERTEX
  8
0
 10
4.031089
 20
12.214102
 30
0.0
  0
VERTEX
  8
0
 10
5.546633
 20
13.089102
 30
0.0
  0
SEQEND
  8
0
  0
POLYLINE
  8
0
 66
1
 70
1
 10
0.0
 20
0.0
 30
0.0
  0
VERTEX
  8
0
 10
9.577722
 20
14.839102
 30
0.0
  0
VERTEX
  8
0
 10
8.062178
 20
15.714102
 30
0.0
  0
VERTEX
  8
0
 10
6.546633
 20
14.839102
 30
0.0
  0
VERTEX
  8
0
 10
6.546633
 20
13.089102
 30
0.0
  0
VERTEX
  8
0
 10
8.062178
 20
12.214102
 30
0.0
  0
VERTEX
  8
0
 10
9.577722
 20
13.089102
 30
0.0
  0
SEQEND
  8
0
  0
POLYLINE
  8
0
 66
1
 70
1
 10
0.0
 20
0.0
 30
0.0
  0
VERTEX
  8
0
 10
13.608811
 20
14.839102
 30
0.0
  0
VERTEX
  8
0
 10
12.093267
 20
15.714102
 30
0.0
  0
VERTEX
  8
0
 10
10.577722
 20
14.839102
 30
0.0
  0
VERTEX
  8
0
 10
10.577722
 20
13.089102
 30
0.0
  0
VERTEX
  8
0
 10
12.093267
 20
12.214102
 30
0.0
  0
VERTEX
  8
0
 10
13.608811
 20
13.089102
 30
0.0
  0
SEQEND
  8
0
  0
POLYLINE
  8
0
 66
1
 70
1
 10
0.0
 20
0.0
 30
0.0
  0
VERTEX
  8
0
 10
17.639900
 20
14.839102
 30
0.0
  0
VERTEX
  8
0
 10
16.124356
 20
15.714102
 30
0.0
  0
VERTEX
  8
0
 10
14.608811
 20
14.839102
 30
0.0
  0
VERTEX
  8
0
 10
14.608811
 20
13.089102
 30
0.0
  0
VERTEX
  8
0
 10
16.124356
 20
12.214102
 30
0.0
  0
VERTEX
  8
0
 10
17.639900
 20
13.089102
 30
0.0
  0
SEQEND
  8
0
  0
POLYLINE
  8
0
 66
1
 70
1
 10
0.0
 20
0.0
 30
0.0
  0
VERTEX
  8
0
 10
21.670989
 20
14.839102
 30
0.0
  0
VERTEX
  8
0
 10
20.155445
 20
15.714102
 30
0.0
  0
VERTEX
  8
0
 10
18.639900
 20
14.839102
 30
0.0
  0
VERTEX
  8
0
 10
18.639900
 20
13.089102
 30
0.0
  0
VERTEX
  8
0
 10
20.155445
 20
12.214102
 30
0.0
  0
VERTEX
  8
0
 10
21.670989
 20
13.089102
 30
0.0
  0
SEQEND
  8
0
  0
POLYLINE
  8
0
 66
1
 70
1
 10
0.0
 20
0.0
 30
0.0
  0
VERTEX
  8
0
 10
25.702078
 20
14.839102
 30
0.0
  0
VERTEX
  8
0
 10
24.186533
 20
15.714102
 30
0.0
  0
VERTEX
  8
0
 10
22.670989
 20
14.839102
 30
0.0
  0
VERTEX
  8
0
 10
22.670989
 20
13.089102
 30
0.0
  0
VERTEX
  8
0
 10
24.186533
 20
12.214102
 30
0.0
  0
VERTEX
  8
0
 10
25.702078
 20
13.089102
 30
0.0
  0
SEQEND
  8
0
  0
POLYLINE
  8
0
 66
1
 70
1
 10
0.0
 20
0.0
 30
0.0
  0
VERTEX
  8
0
 10
29.733167
 20
14.839102
 30
0.0
  0
VERTEX
  8
0
 10
28.217622
 20
15.714102
 30
0.0
  0
VERTEX
  8
0
 10
26.702078
 20
14.839102
 30
0.0
  0
VERTEX
  8
0
 10
26.702078
 20
13.089102
 30
0.0
  0
VERTEX
  8
0
 10
28.217622
 20
12.214102
 30
0.0
  0
VERTEX
  8
0
 10
29.733167
 20
13.089102
 30
0.0
  0
SEQEND
  8
0
  0
POLYLINE
  8
0
 66
1
 70
1
 10
0.0
 20
0.0
 30
0.0
  0
VERTEX
  8
0
 10
33.764256
 20
14.839102
 30
0.0
  0
VERTEX
  8
0
 10
32.248711
 20
15.714102
 30
0.0
  0
VERTEX
  8
0
 10
30.733167
 20
14.839102
 30
0.0
  0
VERTEX
  8
0
 10
30.733167
 20
13.089102
 30
0.0
  0
VERTEX
  8
0
 10
32.248711
 20
12.214102
 30
0.0
  0
VERTEX
  8
0
 10
33.764256
 20
13.089102
 30
0.0
  0
SEQEND
  8
0
  0
POLYLINE
  8
0
 66
1
 70
1
 10
0.0
 20
0.0
 30
0.0
  0
VERTEX
  8
0
 10
37.795345
 20
14.839102
 30
0.0
  0
VERTEX
  8
0
 10
36.279800
 20
15.714102
 30
0.0
  0
VERTEX
  8
0
 10
34.764256
 20
14.839102
 30
0.0
  0
VERTEX
  8
0
 10
34.764256
 20
13.089102
 30
0.0
  0
VERTEX
  8
0
 10
36.279800
 20
12.214102
 30
0.0
  0
VERTEX
  8
0
 10
37.795345
 20
13.089102
 30
0.0
  0
SEQEND
  8
0
  0
POLYLINE
  8
0
 66
1
 70
1
 10
0.0
 20
0.0
 30
0.0
  0
VERTEX
  8
0
 10
3.531089
 20
18.330127
 30
0.0
  0
VERTEX
  8
0
 10
2.015544
 20
19.205127
 30
0.0
  0
VERTEX
  8
0
 10
0.500000
 20
18.330127
 30
0.0
  0
VERTEX
  8
0
 10
0.500000
 20
16.580127
 30
0.0
  0
VERTEX
  8
0
 10
2.015544
 20
15.705127
 30
0.0
  0
VERTEX
  8
0
 10
3.531089
 20
16.580127
 30
0.0
  0
SEQEND
  8
0
  0
POLYLINE
  8
0
 66
1
 70
1
 10
0.0
 20
0.0
 30
0.0
  0
VERTEX
  8
0
 10
7.562178
 20
18.330127
 30
0.0
  0
VERTEX
  8
0
 10
6.046633
 20
19.205127
 30
0.0
  0
VERTEX
  8
0
 10
4.531089
 20
18.330127
 30
0.0
  0
VERTEX
  8
0
 10
4.531089
 20
16.580127
 30
0.0
  0
VERTEX
  8
0
 10
6.046633
 20
15.705127
 30
0.0
  0
VERTEX
  8
0
 10
7.562178
 20
16.580127
 30
0.0
  0
SEQEND
  8
0
  0
POLYLINE
  8
0
 66
1
 70
1
 10
0.0
 20
0.0
 30
0.0
  0
VERTEX
  8
0
 10
11.593267
 20
18.330127
 30
0.0
  0
VERTEX
  8
0
 10
10.077722
 20
19.205127
 30
0.0
  0
VERTEX
  8
0
 10
8.562178
 20
18.330127
 30
0.0
  0
VERTEX
  8
0
 10
8.562178
 20
16.580127
 30
0.0
  0
VERTEX
  8
0
 10
10.077722
 20
15.705127
 30
0.0
  0
VERTEX
  8
0
 10
11.593267
 20
16.580127
 30
0.0
  0
SEQEND
  8
0
  0
POLYLINE
  8
0
 66
1
 70
1
 10
0.0
 20
0.0
 30
0.0
  0
VERTEX
  8
0
 10
15.624356
 20
18.330127
 30
0.0
  0
VERTEX
  8
0
 10
14.108811
 20
19.205127
 30
0.0
  0
VERTEX
  8
0
 10
12.593267
 20
18.330127
 30
0.0
  0
VERTEX
  8
0
 10
12.593267
 20
16.580127
 30
0.0
  0
VERTEX
  8
0
 10
14.108811
 20
15.705127
 30
0.0
  0
VERTEX
  8
0
 10
15.624356
 20
16.580127
 30
0.0
  0
SEQEND
  8
0
  0
POLYLINE
  8
0
 66
1
 70
1
 10
0.0
 20
0.0
 30
0.0
  0
VERTEX
  8
0
 10
19.655445
 20
18.330127
 30
0.0
  0
VERTEX
  8
0
 10
18.139900
 20
19.205127
 30
0.0
  0
VERTEX
  8
0
 10
16.624356
 20
18.330127
 30
0.0
  0
VERTEX
  8
0
 10
16.624356
 20
16.580127
 30
0.0
  0
VERTEX
  8
0
 10
18.139900
 20
15.705127
 30
0.0
  0
VERTEX
  8
0
 10
19.655445
 20
16.580127
 30
0.0
  0
SEQEND
  8
0
  0
POLYLINE
  8
0
 66
1
 70
1
 10
0.0
 20
0.0
 30
0.0
  0
VERTEX
  8
0
 10
23.686533
 20
18.330127
 30
0.0
  0
VERTEX
  8
0
 10
22.170989
 20
19.205127
 30
0.0
  0
VERTEX
  8
0
 10
20.655445
 20
18.330127
 30
0.0
  0
VERTEX
  8
0
 10
20.655445
 20
16.580127
 30
0.0
  0
VERTEX
  8
0
 10
22.170989
 20
15.705127
 30
0.0
  0
VERTEX
  8
0
 10
23.686533
 20
16.580127
 30
0.0
  0
SEQEND
  8
0
  0
POLYLINE
  8
0
 66
1
 70
1
 10
0.0
 20
0.0
 30
0.0
  0
VERTEX
  8
0
 10
27.717622
 20
18.330127
 30
0.0
  0
VERTEX
  8
0
 10
26.202078
 20
19.205127
 30
0.0
  0
VERTEX
  8
0
 10
24.686533
 20
18.330127
 30
0.0
  0
VERTEX
  8
0
 10
24.686533
 20
16.580127
 30
0.0
  0
VERTEX
  8
0
 10
26.202078
 20
15.705127
 30
0.0
  0
VERTEX
  8
0
 10
27.717622
 20
16.580127
 30
0.0
  0
SEQEND
  8
0
  0
POLYLINE
  8
0
 66
1
 70
1
 10
0.0
 20
0.0
 30
0.0
  0
VERTEX
  8
0
 10
31.748711
 20
18.330127
 30
0.0
  0
VERTEX
  8
0
 10
30.233167
 20
19.205127
 30
0.0
  0
VERTEX
  8
0
 10
28.717622
 20
18.330127
 30
0.0
  0
VERTEX
  8
0
 10
28.717622
 20
16.580127
 30
0.0
  0
VERTEX
  8
0
 10
30.233167
 20
15.705127
 30
0.0
  0
VERTEX
  8
0
 10
31.748711
 20
16.580127
 30
0.0
  0
SEQEND
  8
0
  0
POLYLINE
  8
0
 66
1
 70
1
 10
0.0
 20
0.0
 30
0.0
  0
VERTEX
  8
0
 10
35.779800
 20
18.330127
 30
0.0
  0
VERTEX
  8
0
 10
34.264256
 20
19.205127
 30
0.0
  0
VERTEX
  8
0
 10
32.748711
 20
18.330127
 30
0.0
  0
VERTEX
  8
0
 10
32.748711
 20
16.580127
 30
0.0
  0
VERTEX
  8
0
 10
34.264256
 20
15.705127
 30
0.0
  0
VERTEX
  8
0
 10
35.779800
 20
16.580127
 30
0.0
  0
SEQEND
  8
0
  0
POLYLINE
  8
0
 66
1
 70
1
 10
0.0
 20
0.0
 30
0.0
  0
VERTEX
  8
0
 10
39.810889
 20
18.330127
 30
0.0
  0
VERTEX
  8
0
 10
38.295345
 20
19.205127
 30
0.0
  0
VERTEX
  8
0
 10
36.779800
 20
18.330127
 30
0.0
  0
VERTEX
  8
0
 10
36.779800
 20
16.580127
 30
0.0
  0
VERTEX
  8
0
 10
38.295345
 20
15.705127
 30
0.0
  0
VERTEX
  8
0
 10
39.810889
 20
16.580127
 30
0.0
  0
SEQEND
  8
0
  0
POLYLINE
  8
0
 66
1
 70
1
 10
0.0
 20
0.0
 30
0.0
  0
VERTEX
  8
0
 10
1.515544
 20
21.821152
 30
0.0
  0
VERTEX
  8
0
 10
0.000000
 20
22.696152
 30
0.0
  0
VERTEX
  8
0
 10
-1.515544
 20
21.821152
 30
0.0
  0
VERTEX
  8
0
 10
-1.515544
 20
20.071152
 30
0.0
  0
VERTEX
  8
0
 10
-0.000000
 20
19.196152
 30
0.0
  0
VERTEX
  8
0
 10
1.515544
 20
20.071152
 30
0.0
  0
SEQEND
  8
0
  0
POLYLINE
  8
0
 66
1
 70
1
 10
0.0
 20
0.0
 30
0.0
  0
VERTEX
  8
0
 10
5.546633
 20
21.821152
 30
0.0
  0
VERTEX
  8
0
 10
4.031089
 20
22.696152
 30
0.0
  0
VERTEX
  8
0
 10
2.515544
 20
21.821152
 30
0.0
  0
VERTEX
  8
0
 10
2.515544
 20
20.071152
 30
0.0
  0
VERTEX
  8
0
 10
4.031089
 20
19.196152
 30
0.0
  0
VERTEX
  8
0
 10
5.546633
 20
20.071152
 30
0.0
  0
SEQEND
  8
0
  0
POLYLINE
  8
0
 66
1
 70
1
 10
0.0
 20
0.0
 30
0.0
  0
VERTEX
  8
0
 10
9.577722
 20
21.821152
 30
0.0
  0
VERTEX
  8
0
 10
8.062178
 20
22.696152
 30
0.0
  0
VERTEX
  8
0
 10
6.546633
 20
21.821152
 30
0.0
  0
VERTEX
  8
0
 10
6.546633
 20
20.071152
 30
0.0
  0
VERTEX
  8
0
 10
8.062178
 20
19.196152
 30
0.0
  0
VERTEX
  8
0
 10
9.577722
 20
20.071152
 30
0.0
  0
SEQEND
  8
0
  0
POLYLINE
  8
0
 66
1
 70
1
 10
0.0
 20
0.0
 30
0.0
  0
VERTEX
  8
0
 10
13.608811
 20
21.821152
 30
0.0
  0
VERTEX
  8
0
 10
12.093267
 20
22.696152
 30
0.0
  0
VERTEX
  8
0
 10
10.577722
 20
21.821152
 30
0.0
  0
VERTEX
  8
0
 10
10.577722
 20
20.071152
 30
0.0
  0
VERTEX
  8
0
 10
12.093267
 20
19.196152
 30
0.0
  0
VERTEX
  8
0
 10
13.608811
 20
20.071152
 30
0.0
  0
SEQEND
  8
0
  0
POLYLINE
  8
0
 66
1
 70
1
 10
0.0
 20
0.0
 30
0.0
  0
VERTEX
  8
0
 10
17.639900
 20
21.821152
 30
0.0
  0
VERTEX
  8
0
 10
16.124356
 20
22.696152
 30
0.0
  0
VERTEX
  8
0
 10
14.608811
 20
21.821152
 30
0.0
  0
VERTEX
  8
0
 10
14.608811
 20
20.071152
 30
0.0
  0
VERTEX
  8
0
 10
16.124356
 20
19.196152
 30
0.0
  0
VERTEX
  8
0
 10
17.639900
 20
20.071152
 30
0.0
  0
SEQEND
  8
0
  0
POLYLINE
  8
0
 66
1
 70
1
 10
0.0
 20
0.0
 30
0.0
  0
VERTEX
  8
0
 10
21.670989
 20
21.821152
 30
0.0
  0
VERTEX
  8
0
 10
20.155445
 20
22.696152
 30
0.0
  0
VERTEX
  8
0
 10
18.639900
 20
21.821152
 30
0.0
  0
VERTEX
  8
0
 10
18.639900
 20
20.071152
 30
0.0
  0
VERTEX
  8
0
 10
20.155445
 20
19.196152
 30
0.0
  0
VERTEX
  8
0
 10
21.670989
 20
20.071152
 30
0.0
  0
SEQEND
  8
0
  0
POLYLINE
  8
0
 66
1
 70
1
 10
0.0
 20
0.0
 30
0.0
  0
VERTEX
  8
0
 10
25.702078
 20
21.821152
 30
0.0
  0
VERTEX
  8
0
 10
24.186533
 20
22.696152
 30
0.0
  0
VERTEX
  8
0
 10
22.670989
 20
21.821152
 30
0.0
  0
VERTEX
  8
0
 10
22.670989
 20
20.071152
 30
0.0
  0
VERTEX
  8
0
 10
24.186533
 20
19.196152
 30
0.0
  0
VERTEX
  8
0
 10
25.702078
 20
20.071152
 30
0.0
  0
SEQEND
  8
0
  0
POLYLINE
  8
0
 66
1
 70
1
 10
0.0
 20
0.0
 30
0.0
  0
VERTEX
  8
0
 10
29.733167
 20
21.821152
 30
0.0
  0
VERTEX
  8
0
 10
28.217622
 20
22.696152
 30
0.0
  0
VERTEX
  8
0
 10
26.702078
 20
21.821152
 30
0.0
  0
VERTEX
  8
0
 10
26.702078
 20
20.071152
 30
0.0
  0
VERTEX
  8
0
 10
28.217622
 20
19.196152
 30
0.0
  0
VERTEX
  8
0
 10
29.733167
 20
20.071152
 30
0.0
  0
SEQEND
  8
0
  0
POLYLINE
  8
0
 66
1
 70
1
 10
0.0
 20
0.0
 30
0.0
  0
VERTEX
  8
0
 10
33.764256
 20
21.821152
 30
0.0
  0
VERTEX
  8
0
 10
32.248711
 20
22.696152
 30
0.0
  0
VERTEX
  8
0
 10
30.733167
 20
21.821152
 30
0.0
  0
VERTEX
  8
0
 10
30.733167
 20
20.071152
 30
0.0
  0
VERTEX
  8
0
 10
32.248711
 20
19.196152
 30
0.0
  0
VERTEX
  8
0
 10
33.764256
 20
20.071152
 30
0.0
  0
SEQEND
  8
0
  0
POLYLINE
  8
0
 66
1
 70
1
 10
0.0
 20
0.0
 30
0.0
  0
VERTEX
  8
0
 10
37.795345
 20
21.821152
 30
0.0
  0
VERTEX
  8
0
 10
36.279800
 20
22.696152
 30
0.0
  0
VERTEX
  8
0
 10
34.764256
 20
21.821152
 30
0.0
  0
VERTEX
  8
0
 10
34.764256
 20
20.071152
 30
0.0
  0
VERTEX
  8
0
 10
36.279800
 20
19.196152
 30
0.0
  0
VERTEX
  8
0
 10
37.795345
 20
20.071152
 30
0.0
  0
SEQEND
  8
0
  0
POLYLINE
  8
0
 66
1
 70
1
 10
0.0
 20
0.0
 30
0.0
  0
VERTEX
  8
0
 10
3.531089
 20
25.312178
 30
0.0
  0
VERTEX
  8
0
 10
2.015544
 20
26.187178
 30
0.0
  0
VERTEX
  8
0
 10
0.500000
 20
25.312178
 30
0.0
  0
VERTEX
  8
0
 10
0.500000
 20
23.562178
 30
0.0
  0
VERTEX
  8
0
 10
2.015544
 20
22.687178
 30
0.0
  0
VERTEX
  8
0
 10
3.531089
 20
23.562178
 30
0.0
  0
SEQEND
  8
0
  0
POLYLINE
  8
0
 66
1
 70
1
 10
0.0
 20
0.0
 30
0.0
  0
VERTEX
  8
0
 10
7.562178
 20
25.312178
 30
0.0
  0
VERTEX
  8
0
 10
6.046633
 20
26.187178
 30
0.0
  0
VERTEX
  8
0
 10
4.531089
 20
25.312178
 30
0.0
  0
VERTEX
  8
0
 10
4.531089
 20
23.562178
 30
0.0
  0
VERTEX
  8
0
 10
6.046633
 20
22.687178
 30
0.0
  0
VERTEX
  8
0
 10
7.562178
 20
23.562178
 30
0.0
  0
SEQEND
  8
0
  0
POLYLINE
  8
0
 66
1
 70
1
 10
0.0
 20
0.0
 30
0.0
  0
VERTEX
  8
0
 10
11.593267
 20
25.312178
 30
0.0
  0
VERTEX
  8
0
 10
10.077722
 20
26.187178
 30
0.0
  0
VERTEX
  8
0
 10
8.562178
 20
25.312178
 30
0.0
  0
VERTEX
  8
0
 10
8.562178
 20
23.562178
 30
0.0
  0
VERTEX
  8
0
 10
10.077722
 20
22.687178
 30
0.0
  0
VERTEX
  8
0
 10
11.593267
 20
23.562178
 30
0.0
  0
SEQEND
  8
0
  0
POLYLINE
  8
0
 66
1
 70
1
 10
0.0
 20
0.0
 30
0.0
  0
VERTEX
  8
0
 10
15.624356
 20
25.312178
 30
0.0
  0
VERTEX
  8
0
 10
14.108811
 20
26.187178
 30
0.0
  0
VERTEX
  8
0
 10
12.593267
 20
25.312178
 30
0.0
  0
VERTEX
  8
0
 10
12.593267
 20
23.562178
 30
0.0
  0
VERTEX
  8
0
 10
14.108811
 20
22.687178
 30
0.0
  0
VERTEX
  8
0
 10
15.624356
 20
23.562178
 30
0.0
  0
SEQEND
  8
0
  0
POLYLINE
  8
0
 66
1
 70
1
 10
0.0
 20
0.0
 30
0.0
  0
VERTEX
  8
0
 10
19.655445
 20
25.312178
 30
0.0
  0
VERTEX
  8
0
 10
18.139900
 20
26.187178
 30
0.0
  0
VERTEX
  8
0
 10
16.624356
 20
25.312178
 30
0.0
  0
VERTEX
  8
0
 10
16.624356
 20
23.562178
 30
0.0
  0
VERTEX
  8
0
 10
18.139900
 20
22.687178
 30
0.0
  0
VERTEX
  8
0
 10
19.655445
 20
23.562178
 30
0.0
  0
SEQEND
  8
0
  0
POLYLINE
  8
0
 66
1
 70
1
 10
0.0
 20
0.0
 30
0.0
  0
VERTEX
  8
0
 10
23.686533
 20
25.312178
 30
0.0
  0
VERTEX
  8
0
 10
22.170989
 20
26.187178
 30
0.0
  0
VERTEX
  8
0
 10
20.655445
 20
25.312178
 30
0.0
  0
VERTEX
  8
0
 10
20.655445
 20
23.562178
 30
0.0
  0
VERTEX
  8
0
 10
22.170989
 20
22.687178
 30
0.0
  0
VERTEX
  8
0
 10
23.686533
 20
23.562178
 30
0.0
  0
SEQEND
  8
0
  0
POLYLINE
  8
0
 66
1
 70
1
 10
0.0
 20
0.0
 30
0.0
  0
VERTEX
  8
0
 10
27.717622
 20
25.312178
 30
0.0
  0
VERTEX
  8
0
 10
26.202078
 20
26.187178
 30
0.0
  0
VERTEX
  8
0
 10
24.686533
 20
25.312178
 30
0.0
  0
VERTEX
  8
0
 10
24.686533
 20
23.562178
 30
0.0
  0
VERTEX
  8
0
 10
26.202078
 20
22.687178
 30
0.0
  0
VERTEX
  8
0
 10
27.717622
 20
23.562178
 30
0.0
  0
SEQEND
  8
0
  0
POLYLINE
  8
0
 66
1
 70
1
 10
0.0
 20
0.0
 30
0.0
  0
VERTEX
  8
0
 10
31.748711
 20
25.312178
 30
0.0
  0
VERTEX
  8
0
 10
30.233167
 20
26.187178
 30
0.0
  0
VERTEX
  8
0
 10
28.717622
 20
25.312178
 30
0.0
  0
VERTEX
  8
0
 10
28.717622
 20
23.562178
 30
0.0
  0
VERTEX
  8
0
 10
30.233167
 20
22.687178
 30
0.0
  0
VERTEX
  8
0
 10
31.748711
 20
23.562178
 30
0.0
  0
SEQEND
  8
0
  0
POLYLINE
  8
0
 66
1
 70
1
 10
0.0
 20
0.0
 30
0.0
  0
VERTEX
  8
0
 10
35.779800
 20
25.312178
 30
0.0
  0
VERTEX
  8
0
 10
34.264256
 20
26.187178
 30
0.0
  0
VERTEX
  8
0
 10
32.748711
 20
25.312178
 30
0.0
  0
VERTEX
  8
0
 10
32.748711
 20
23.562178
 30
0.0
  0
VERTEX
  8
0
 10
34.264256
 20
22.687178
 30
0.0
  0
VERTEX
  8
0
 10
35.779800
 20
23.562178
 30
0.0
  0
SEQEND
  8
0
  0
POLYLINE
  8
0
 66
1
 70
1
 10
0.0
 20
0.0
 30
0.0
  0
VERTEX
  8
0
 10
39.810889
 20
25.312178
 30
0.0
  0
VERTEX
  8
0
 10
38.295345
 20
26.187178
 30
0.0
  0
VERTEX
  8
0
 10
36.779800
 20
25.312178
 30
0.0
  0
VERTEX
  8
0
 10
36.779800
 20
23.562178
 30
0.0
  0
VERTEX
  8
0
 10
38.295345
 20
22.687178
 30
0.0
  0
VERTEX
  8
0
 10
39.810889
 20
23.562178
 30
0.0
  0
SEQEND
  8
0
  0
POLYLINE
  8
0
 66
1
 70
1
 10
0.0
 20
0.0
 30
0.0
  0
VERTEX
  8
0
 10
1.515544
 20
28.803203
 30
0.0
  0
VERTEX
  8
0
 10
0.000000
 20
29.678203
 30
0.0
  0
VERTEX
  8
0
 10
-1.515544
 20
28.803203
 30
0.0
  0
VERTEX
  8
0
 10
-1.515544
 20
27.053203
 30
0.0
  0
VERTEX
  8
0
 10
-0.000000
 20
26.178203
 30
0.0
  0
VERTEX
  8
0
 10
1.515544
 20
27.053203
 30
0.0
  0
SEQEND
  8
0
  0
POLYLINE
  8
0
 66
1
 70
1
 10
0.0
 20
0.0
 30
0.0
  0
VERTEX
  8
0
 10
5.546633
 20
28.803203
 30
0.0
  0
VERTEX
  8
0
 10
4.031089
 20
29.678203
 30
0.0
  0
VERTEX
  8
0
 10
2.515544
 20
28.803203
 30
0.0
  0
VERTEX
  8
0
 10
2.515544
 20
27.053203
 30
0.0
  0
VERTEX
  8
0
 10
4.031089
 20
26.178203
 30
0.0
  0
VERTEX
  8
0
 10
5.546633
 20
27.053203
 30
0.0
  0
SEQEND
  8
0
  0
POLYLINE
  8
0
 66
1
 70
1
 10
0.0
 20
0.0
 30
0.0
  0
VERTEX
  8
0
 10
9.577722
 20
28.803203
 30
0.0
  0
VERTEX
  8
0
 10
8.062178
 20
29.678203
 30
0.0
  0
VERTEX
  8
0
 10
6.546633
 20
28.803203
 30
0.0
  0
VERTEX
  8
0
 10
6.546633
 20
27.053203
 30
0.0
  0
VERTEX
  8
0
 10
8.062178
 20
26.178203
 30
0.0
  0
VERTEX
  8
0
 10
9.577722
 20
27.053203
 30
0.0
  0
SEQEND
  8
0
  0
POLYLINE
  8
0
 66
1
 70
1
 10
0.0
 20
0.0
 30
0.0
  0
VERTEX
  8
0
 10
13.608811
 20
28.803203
 30
0.0
  0
VERTEX
  8
0
 10
12.093267
 20
29.678203
 30
0.0
  0
VERTEX
  8
0
 10
10.577722
 20
28.803203
 30
0.0
  0
VERTEX
  8
0
 10
10.577722
 20
27.053203
 30
0.0
  0
VERTEX
  8
0
 10
12.093267
 20
26.178203
 30
0.0
  0
VERTEX
  8
0
 10
13.608811
 20
27.053203
 30
0.0
  0
SEQEND
  8
0
  0
POLYLINE
  8
0
 66
1
 70
1
 10
0.0
 20
0.0
 30
0.0
  0
VERTEX
  8
0
 10
17.639900
 20
28.803203
 30
0.0
  0
VERTEX
  8
0
 10
16.124356
 20
29.678203
 30
0.0
  0
VERTEX
  8
0
 10
14.608811
 20
28.803203
 30
0.0
  0
VERTEX
  8
0
 10
14.608811
 20
27.053203
 30
0.0
  0
VERTEX
  8
0
 10
16.124356
 20
26.178203
 30
0.0
  0
VERTEX
  8
0
 10
17.639900
 20
27.053203
 30
0.0
  0
SEQEND
  8
0
  0
POLYLINE
  8
0
 66
1
 70
1
 10
0.0
 20
0.0
 30
0.0
  0
VERTEX
  8
0
 10
21.670989
 20
28.803203
 30
0.0
  0
VERTEX
  8
0
 10
20.155445
 20
29.678203
 30
0.0
  0
VERTEX
  8
0
 10
18.639900
 20
28.803203
 30
0.0
  0
VERTEX
  8
0
 10
18.639900
 20
27.053203
 30
0.0
  0
VERTEX
  8
0
 10
20.155445
 20
26.178203
 30
0.0
  0
VERTEX
  8
0
 10
21.670989
 20
27.053203
 30
0.0
  0
SEQEND
  8
0
  0
POLYLINE
  8
0
 66
1
 70
1
 10
0.0
 20
0.0
 30
0.0
  0
VERTEX
  8
0
 10
25.702078
 20
28.803203
 30
0.0
  0
VERTEX
  8
0
 10
24.186533
 20
29.678203
 30
0.0
  0
VERTEX
  8
0
 10
22.670989
 20
28.803203
 30
0.0
  0
VERTEX
  8
0
 10
22.670989
 20
27.053203
 30
0.0
  0
VERTEX
  8
0
 10
24.186533
 20
26.178203
 30
0.0
  0
VERTEX
  8
0
 10
25.702078
 20
27.053203
 30
0.0
  0
SEQEND
  8
0
  0
POLYLINE
  8
0
 66
1
 70
1
 10
0.0
 20
0.0
 30
0.0
  0
VERTEX
  8
0
 10
29.733167
 20
28.803203
 30
0.0
  0
VERTEX
  8
0
 10
28.217622
 20
29.678203
 30
0.0
  0
VERTEX
  8
0
 10
26.702078
 20
28.803203
 30
0.0
  0
VERTEX
  8
0
 10
26.702078
 20
27.053203
 30
0.0
  0
VERTEX
  8
0
 10
28.217622
 20
26.178203
 30
0.0
  0
VERTEX
  8
0
 10
29.733167
 20
27.053203
 30
0.0
  0
SEQEND
  8
0
  0
POLYLINE
  8
0
 66
1
 70
1
 10
0.0
 20
0.0
 30
0.0
  0
VERTEX
  8
0
 10
33.764256
 20
28.803203
 30
0.0
  0
VERTEX
  8
0
 10
32.248711
 20
29.678203
 30
0.0
  0
VERTEX
  8
0
 10
30.733167
 20
28.803203
 30
0.0
  0
VERTEX
  8
0
 10
30.733167
 20
27.053203
 30
0.0
  0
VERTEX
  8
0
 10
32.248711
 20
26.178203
 30
0.0
  0
VERTEX
  8
0
 10
33.764256
 20
27.053203
 30
0.0
  0
SEQEND
  8
0
  0
POLYLINE
  8
0
 66
1
 70
1
 10
0.0
 20
0.0
 30
0.0
  0
VERTEX
  8
0
 10
37.795345
 20
28.803203
 30
0.0
  0
VERTEX
  8
0
 10
36.279800
 20
29.678203
 30
0.0
  0
VERTEX
  8
0
 10
34.764256
 20
28.803203
 30
0.0
  0
VERTEX
  8
0
 10
34.764256
 20
27.053203
 30
0.0
  0
VERTEX
  8
0
 10
36.279800
 20
26.178203
 30
0.0
  0
VERTEX
  8
0
 10
37.795345
 20
27.053203
 30
0.0
  0
SEQEND
  8
0
  0
POLYLINE
  8
0
 66
1
 70
1
 10
0.0
 20
0.0
 30
0.0
  0
VERTEX
  8
0
 10
3.531089
 20
32.294229
 30
0.0
  0
VERTEX
  8
0
 10
2.015544
 20
33.169229
 30
0.0
  0
VERTEX
  8
0
 10
0.500000
 20
32.294229
 30
0.0
  0
VERTEX
  8
0
 10
0.500000
 20
30.544229
 30
0.0
  0
VERTEX
  8
0
 10
2.015544
 20
29.669229
 30
0.0
  0
VERTEX
  8
0
 10
3.531089
 20
30.544229
 30
0.0
  0
SEQEND
  8
0
  0
POLYLINE
  8
0
 66
1
 70
1
 10
0.0
 20
0.0
 30
0.0
  0
VERTEX
  8
0
 10
7.562178
 20
32.294229
 30
0.0
  0
VERTEX
  8
0
 10
6.046633
 20
33.169229
 30
0.0
  0
VERTEX
  8
0
 10
4.531089
 20
32.294229
 30
0.0
  0
VERTEX
  8
0
 10
4.531089
 20
30.544229
 30
0.0
  0
VERTEX
  8
0
 10
6.046633
 20
29.669229
 30
0.0
  0
VERTEX
  8
0
 10
7.562178
 20
30.544229
 30
0.0
  0
SEQEND
  8
0
  0
POLYLINE
  8
0
 66
1
 70
1
 10
0.0
 20
0.0
 30
0.0
  0
VERTEX
  8
0
 10
11.593267
 20
32.294229
 30
0.0
  0
VERTEX
  8
0
 10
10.077722
 20
33.169229
 30
0.0
  0
VERTEX
  8
0
 10
8.562178
 20
32.294229
 30
0.0
  0
VERTEX
  8
0
 10
8.562178
 20
30.544229
 30
0.0
  0
VERTEX
  8
0
 10
10.077722
 20
29.669229
 30
0.0
  0
VERTEX
  8
0
 10
11.593267
 20
30.544229
 30
0.0
  0
SEQEND
  8
0
  0
POLYLINE
  8
0
 66
1
 70
1
 10
0.0
 20
0.0
 30
0.0
  0
VERTEX
  8
0
 10
15.624356
 20
32.294229
 30
0.0
  0
VERTEX
  8
0
 10
14.108811
 20
33.169229
 30
0.0
  0
VERTEX
  8
0
 10
12.593267
 20
32.294229
 30
0.0
  0
VERTEX
  8
0
 10
12.593267
 20
30.544229
 30
0.0
  0
VERTEX
  8
0
 10
14.108811
 20
29.669229
 30
0.0
  0
VERTEX
  8
0
 10
15.624356
 20
30.544229
 30
0.0
  0
SEQEND
  8
0
  0
POLYLINE
  8
0
 66
1
 70
1
 10
0.0
 20
0.0
 30
0.0
  0
VERTEX
  8
0
 10
19.655445
 20
32.294229
 30
0.0
  0
VERTEX
  8
0
 10
18.139900
 20
33.169229
 30
0.0
  0
VERTEX
  8
0
 10
16.624356
 20
32.294229
 30
0.0
  0
VERTEX
  8
0
 10
16.624356
 20
30.544229
 30
0.0
  0
VERTEX
  8
0
 10
18.139900
 20
29.669229
 30
0.0
  0
VERTEX
  8
0
 10
19.655445
 20
30.544229
 30
0.0
  0
SEQEND
  8
0
  0
POLYLINE
  8
0
 66
1
 70
1
 10
0.0
 20
0.0
 30
0.0
  0
VERTEX
  8
0
 10
23.686533
 20
32.294229
 30
0.0
  0
VERTEX
  8
0
 10
22.170989
 20
33.169229
 30
0.0
  0
VERTEX
  8
0
 10
20.655445
 20
32.294229
 30
0.0
  0
VERTEX
  8
0
 10
20.655445
 20
30.544229
 30
0.0
  0
VERTEX
  8
0
 10
22.170989
 20
29.669229
 30
0.0
  0
VERTEX
  8
0
 10
23.686533
 20
30.544229
 30
0.0
  0
SEQEND
  8
0
  0
POLYLINE
  8
0
 66
1
 70
1
 10
0.0
 20
0.0
 30
0.0
  0
VERTEX
  8
0
 10
27.717622
 20
32.294229
 30
0.0
  0
VERTEX
  8
0
 10
26.202078
 20
33.169229
 30
0.0
  0
VERTEX
  8
0
 10
24.686533
 20
32.294229
 30
0.0
  0
VERTEX
  8
0
 10
24.686533
 20
30.544229
 30
0.0
  0
VERTEX
  8
0
 10
26.202078
 20
29.669229
 30
0.0
  0
VERTEX
  8
0
 10
27.717622
 20
30.544229
 30
0.0
  0
SEQEND
  8
0
  0
POLYLINE
  8
0
 66
1
 70
1
 10
0.0
 20
0.0
 30
0.0
  0
VERTEX
  8
0
 10
31.748711
 20
32.294229
 30
0.0
  0
VERTEX
  8
0
 10
30.233167
 20
33.169229
 30
0.0
  0
VERTEX
  8
0
 10
28.717622
 20
32.294229
 30
0.0
  0
VERTEX
  8
0
 10
28.717622
 20
30.544229
 30
0.0
  0
VERTEX
  8
0
 10
30.233167
 20
29.669229
 30
0.0
  0
VERTEX
  8
0
 10
31.748711
 20
30.544229
 30
0.0
  0
SEQEND
  8
0
  0
POLYLINE
  8
0
 66
1
 70
1
 10
0.0
 20
0.0
 30
0.0
  0
VERTEX
  8
0
 10
35.779800
 20
32.294229
 30
0.0
  0
VERTEX
  8
0
 10
34.264256
 20
33.169229
 30
0.0
  0
VERTEX
  8
0
 10
32.748711
 20
32.294229
 30
0.0
  0
VERTEX
  8
0
 10
32.748711
 20
30.544229
 30
0.0
  0
VERTEX
  8
0
 10
34.264256
 20
29.669229
 30
0.0
  0
VERTEX
  8
0
 10
35.779800
 20
30.544229
 30
0.0
  0
SEQEND
  8
0
  0
POLYLINE
  8
0
 66
1
 70
1
 10
0.0
 20
0.0
 30
0.0
  0
VERTEX
  8
0
 10
39.810889
 20
32.294229
 30
0.0
  0
VERTEX
  8
0
 10
38.295345
 20
33.169229
 30
0.0
  0
VERTEX
  8
0
 10
36.779800
 20
32.294229
 30
0.0
  0
VERTEX
  8
0
 10
36.779800
 20
30.544229
 30
0.0
  0
VERTEX
  8
0
 10
38.295345
 20
29.669229
 30
0.0
  0
VERTEX
  8
0
 10
39.810889
 20
30.544229
 30
0.0
  0
SEQEND
  8
0
  0
ENDSEC
  0
EOF