  0
SECTION
  2
HEADER
  9
$ACADVER
  1
AC1024
  9
$ACADMAINTVER
 70
6
  9
$DWGCODEPAGE
  3
ANSI_1252
  9
$LASTSAVEDBY
  1
ezdxf
  9
$INSBASE
 10
0.0
 20
0.0
 30
0.0
  9
$EXTMIN
 10
1e+20
 20
1e+20
 30
1e+20
  9
$EXTMAX
 10
-1e+20
 20
-1e+20
 30
-1e+20
  9
$LIMMIN
 10
0.0
 20
0.0
  9
$LIMMAX
 10
420.0
 20
297.0
  9
$ORTHOMODE
 70
0
  9
$REGENMODE
 70
1
  9
$FILLMODE
 70
1
  9
$QTEXTMODE
 70
0
  9
$MIRRTEXT
 70
1
  9
$LTSCALE
 40
1.0
  9
$ATTMODE
 70
1
  9
$TEXTSIZE
 40
2.5
  9
$TRACEWID
 40
1.0
  9
$TEXTSTYLE
  7
Standard
  9
$CLAYER
  8
0
  9
$CELTYPE
  6
ByLayer
  9
$CECOLOR
 62
256
  9
$CELTSCALE
 40
1.0
  9
$DISPSILH
 70
0
  9
$DIMSCALE
 40
1.0
  9
$DIMASZ
 40
2.5
  9
$DIMEXO
 40
0.625
  9
$DIMDLI
 40
3.75
  9
$DIMRND
 40
0.0
  9
$DIMDLE
 40
0.0
  9
$DIMEXE
 40
1.25
  9
$DIMTP
 40
0.0
  9
$DIMTM
 40
0.0
  9
$DIMTXT
 40
2.5
  9
$DIMCEN
 40
2.5
  9
$DIMTSZ
 40
0.0
  9
$DIMTOL
 70
0
  9
$DIMLIM
 70
0
  9
$DIMTIH
 70
0
  9
$DIMTOH
 70
0
  9
$DIMSE1
 70
0
  9
$DIMSE2
 70
0
  9
$DIMTAD
 70
1
  9
$DIMZIN
 70
8
  9
$DIMBLK
  1

  9
$DIMASO
 70
1
  9
$DIMSHO
 70
1
  9
$DIMPOST
  1

  9
$DIMAPOST
  1

  9
$DIMALT
 70
0
  9
$DIMALTD
 70
3
  9
$DIMALTF
 40
0.03937007874
  9
$DIMLFAC
 40
1.0
  9
$DIMTOFL
 70
1
  9
$DIMTVP
 40
0.0
  9
$DIMTIX
 70
0
  9
$DIMSOXD
 70
0
  9
$DIMSAH
 70
0
  9
$DIMBLK1
  1

  9
$DIMBLK2
  1

  9
$DIMSTYLE
  2
ISO-25
  9
$DIMCLRD
 70
0
  9
$DIMCLRE
 70
0
  9
$DIMCLRT
 70
0
  9
$DIMTFAC
 40
1.0
  9
$DIMGAP
 40
0.625
  9
$DIMJUST
 70
0
  9
$DIMSD1
 70
0
  9
$DIMSD2
 70
0
  9
$DIMTOLJ
 70
0
  9
$DIMTZIN
 70
8
  9
$DIMALTZ
 70
0
  9
$DIMALTTZ
 70
0
  9
$DIMUPT
 70
0
  9
$DIMDEC
 70
2
  9
$DIMTDEC
 70
2
  9
$DIMALTU
 70
2
  9
$DIMALTTD
 70
3
  9
$DIMTXSTY
  7
Standard
  9
$DIMAUNIT
 70
0
  9
$DIMADEC
 70
0
  9
$DIMALTRND
 40
0.0
  9
$DIMAZIN
 70
0
  9
$DIMDSEP
 70
44
  9
$DIMATFIT
 70
3
  9
$DIMFRAC
 70
0
  9
$DIMLDRBLK
  1

  9
$DIMLUNIT
 70
2
  9
$DIMLWD
 70
-2
  9
$DIMLWE
 70
-2
  9
$DIMTMOVE
 70
0
  9
$DIMFXL
 40
1.0
  9
$DIMFXLON
 70
0
  9
$DIMJOGANG
 40
0.785398163397
  9
$DIMTFILL
 70
0
  9
$DIMTFILLCLR
 70
0
  9
$DIMARCSYM
 70
0
  9
$DIMLTYPE
  6

  9
$DIMLTEX1
  6

  9
$DIMLTEX2
  6

  9
$DIMTXTDIRECTION
 70
0
  9
$LUNITS
 70
2
  9
$LUPREC
 70
4
  9
$SKETCHINC
 40
1.0
  9
$FILLETRAD
 40
10.0
  9
$AUNITS
 70
0
  9
$AUPREC
 70
2
  9
$MENU
  1
.
  9
$ELEVATION
 40
0.0
  9
$PELEVATION
 40
0.0
  9
$THICKNESS
 40
0.0
  9
$LIMCHECK
 70
0
  9
$CHAMFERA
 40
0.0
  9
$CHAMFERB
 40
0.0
  9
$CHAMFERC
 40
0.0
  9
$CHAMFERD
 40
0.0
  9
$SKPOLY
 70
0
  9
$TDCREATE
 40
2461235.661597222
  9
$TDUCREATE
 40
2458532.153996898
  9
$TDUPDATE
 40
2461235.661597222
  9
$TDUUPDATE
 40
2458532.1544311
  9
$TDINDWG
 40
0.0
  9
$TDUSRTIMER
 40
0.0
  9
$USRTIMER
 70
1
  9
$ANGBASE
 50
0.0
  9
$ANGDIR
 70
0
  9
$PDMODE
 70
0
  9
$PDSIZE
 40
0.0
  9
$PLINEWID
 40
0.0
  9
$SPLFRAME
 70
0
  9
$SPLINETYPE
 70
6
  9
$SPLINESEGS
 70
8
  9
$HANDSEED
  5
35
  9
$SURFTAB1
 70
6
  9
$SURFTAB2
 70
6
  9
$SURFTYPE
 70
6
  9
$SURFU
 70
6
  9
$SURFV
 70
6
  9
$UCSBASE
  2

  9
$UCSNAME
  2

  9
$UCSORG
 10
0.0
 20
0.0
 30
0.0
  9
$UCSXDIR
 10
1.0
 20
0.0
 30
0.0
  9
$UCSYDIR
 10
0.0
 20
1.0
 30
0.0
  9
$UCSORTHOREF
  2

  9
$UCSORTHOVIEW
 70
0
  9
$UCSORGTOP
 10
0.0
 20
0.0
 30
0.0
  9
$UCSORGBOTTOM
 10
0.0
 20
0.0
 30
0.0
  9
$UCSORGLEFT
 10
0.0
 20
0.0
 30
0.0
  9
$UCSORGRIGHT
 10
0.0
 20
0.0
 30
0.0
  9
$UCSORGFRONT
 10
0.0
 20
0.0
 30
0.0
  9
$UCSORGBACK
 10
0.0
 20
0.0
 30
0.0
  9
$PUCSBASE
  2

  9
$PUCSNAME
  2

  9
$PUCSORG
 10
0.0
 20
0.0
 30
0.0
  9
$PUCSXDIR
 10
1.0
 20
0.0
 30
0.0
  9
$PUCSYDIR
 10
0.0
 20
1.0
 30
0.0
  9
$PUCSORTHOREF
  2

  9
$PUCSORTHOVIEW
 70
0
  9
$PUCSORGTOP
 10
0.0
 20
0.0
 30
0.0
  9
$PUCSORGBOTTOM
 10
0.0
 20
0.0
 30
0.0
  9
$PUCSORGLEFT
 10
0.0
 20
0.0
 30
0.0
  9
$PUCSORGRIGHT
 10
0.0
 20
0.0
 30
0.0
  9
$PUCSORGFRONT
 10
0.0
 20
0.0
 30
0.0
  9
$PUCSORGBACK
 10
0.0
 20
0.0
 30
0.0
  9
$USERI1
 70
0
  9
$USERI2
 70
0
  9
$USERI3
 70
0
  9
$USERI4
 70
0
  9
$USERI5
 70
0
  9
$USERR1
 40
0.0
  9
$USERR2
 40
0.0
  9
$USERR3
 40
0.0
  9
$USERR4
 40
0.0
  9
$USERR5
 40
0.0
  9
$WORLDVIEW
 70
1
  9
$SHADEDGE
 70
3
  9
$SHADEDIF
 70
70
  9
$TILEMODE
 70
1
  9
$MAXACTVP
 70
64
  9
$PINSBASE
 10
0.0
 20
0.0
 30
0.0
  9
$PLIMCHECK
 70
0
  9
$PEXTMIN
 10
1e+20
 20
1e+20
 30
1e+20
  9
$PEXTMAX
 10
-1e+20
 20
-1e+20
 30
-1e+20
  9
$PLIMMIN
 10
0.0
 20
0.0
  9
$PLIMMAX
 10
420.0
 20
297.0
  9
$UNITMODE
 70
0
  9
$VISRETAIN
 70
1
  9
$PLINEGEN
 70
0
  9
$PSLTSCALE
 70
1
  9
$TREEDEPTH
 70
3020
  9
$CMLSTYLE
  2
Standard
  9
$CMLJUST
 70
0
  9
$CMLSCALE
 40
20.0
  9
$PROXYGRAPHICS
 70
1
  9
$MEASUREMENT
 70
1
  9
$CELWEIGHT
370
-1
  9
$ENDCAPS
280
0
  9
$JOINSTYLE
280
0
  9
$LWDISPLAY
290
0
  9
$INSUNITS
 70
4
  9
$HYPERLINKBASE
  1

  9
$STYLESHEET
  1

  9
$XEDIT
290
1
  9
$CEPSNTYPE
380
0
  9
$PSTYLEMODE
290
1
  9
$FINGERPRINTGUID
  2
{BD74ABE1-B050-48CA-A6FB-380D543F6B8F}
  9
$VERSIONGUID
  2
{1CB8131C-74F4-47C6-B1A3-5E01950B27F1}
  9
$EXTNAMES
290
1
  9
$PSVPSCALE
 40
0.0
  9
$OLESTARTUP
290
0
  9
$SORTENTS
280
127
  9
$INDEXCTL
280
0
  9
$HIDETEXT
280
1
  9
$XCLIPFRAME
280
1
  9
$HALOGAP
280
0
  9
$OBSCOLOR
 70
257
  9
$OBSLTYPE
280
0
  9
$INTERSECTIONDISPLAY
280
0
  9
$INTERSECTIONCOLOR
 70
257
  9
$DIMASSOC
280
2
  9
$PROJECTNAME
  1

  9
$CAMERADISPLAY
290
0
  9
$LENSLENGTH
 40
50.0
  9
$CAMERAHEIGHT
 40
0.0
  9
$STEPSPERSEC
 40
24.0
  9
$STEPSIZE
 40
100.0
  9
$3DDWFPREC
 40
2.0
  9
$PSOLWIDTH
 40
0.005
  9
$PSOLHEIGHT
 40
0.08
  9
$LOFTANG1
 40
1.570796326795
  9
$LOFTANG2
 40
1.570796326795
  9
$LOFTMAG1
 40
0.0
  9
$LOFTMAG2
 40
0.0
  9
$LOFTPARAM
 70
7
  9
$LOFTNORMALS
280
1
  9
$LATITUDE
 40
37.795
  9
$LONGITUDE
 40
-122.394
  9
$NORTHDIRECTION
 40
0.0
  9
$TIMEZONE
 70
-8000
  9
$LIGHTGLYPHDISPLAY
280
1
  9
$TILEMODELIGHTSYNCH
280
1
  9
$CMATERIAL
347
20
  9
$SOLIDHIST
280
0
  9
$SHOWHIST
280
1
  9
$DWFFRAME
280
2
  9
$DGNFRAME
280
2
  9
$REALWORLDSCALE
290
1
  9
$INTERFERECOLOR
 62
256
  9
$CSHADOW
280
0
  9
$SHADOWPLANELOCATION
 40
0.0
  0
ENDSEC
  0
SECTION
  2
CLASSES
  0
CLASS
  1
ACDBDICTIONARYWDFLT
  2
AcDbDictionaryWithDefault
  3
ObjectDBX Classes
 90
0
 91
0
280
0
281
0
  0
CLASS
  1
SUN
  2
AcDbSun
  3
SCENEOE
 90
1153
 91
0
280
0
281
0
  0
CLASS
  1
VISUALSTYLE
  2
AcDbVisualStyle
  3
ObjectDBX Classes
 90
4095
 91
0
280
0
281
0
  0
CLASS
  1
MATERIAL
  2
AcDbMaterial
  3
ObjectDBX Classes
 90
1153
 91
0
280
0
281
0
  0
CLASS
  1
SCALE
  2
AcDbScale
  3
ObjectDBX Classes
 90
1153
 91
0
280
0
281
0
  0
CLASS
  1
TABLESTYLE
  2
AcDbTableStyle
  3
ObjectDBX Classes
 90
4095
 91
0
280
0
281
0
  0
CLASS
  1
MLEADERSTYLE
  2
AcDbMLeaderStyle
  3
ACDB_MLEADERSTYLE_CLASS
 90
4095
 91
0
280
0
281
0
  0
CLASS
  1
DICTIONARYVAR
  2
AcDbDictionaryVar
  3
ObjectDBX Classes
 90
0
 91
0
280
0
281
0
  0
CLASS
  1
CELLSTYLEMAP
  2
AcDbCellStyleMap
  3
ObjectDBX Classes
 90
1152
 91
0
280
0
281
0
  0
CLASS
  1
MENTALRAYRENDERSETTINGS
  2
AcDbMentalRayRenderSettings
  3
SCENEOE
 90
1024
 91
0
280
0
281
0
  0
CLASS
  1
ACDBDETAILVIEWSTYLE
  2
AcDbDetailViewStyle
  3
ObjectDBX Classes
 90
1025
 91
0
280
0
281
0
  0
CLASS
  1
ACDBSECTIONVIEWSTYLE
  2
AcDbSectionViewStyle
  3
ObjectDBX Classes
 90
1025
 91
0
280
0
281
0
  0
CLASS
  1
RASTERVARIABLES
  2
AcDbRasterVariables
  3
ISM
 90
0
 91
0
280
0
281
0
  0
CLASS
  1
LAYOUT
  2
AcDbLayout
  3
ObjectDBX Classes
 90
0
 91
0
280
0
281
0
  0
CLASS
  1
ACDBPLACEHOLDER
  2
AcDbPlaceHolder
  3
ObjectDBX Classes
 90
0
 91
0
280
0
281
0
  0
ENDSEC
  0
SECTION
  2
TABLES
  0
TABLE
  2
VPORT
  5
8
330
0
100
AcDbSymbolTable
 70
1
  0
VPORT
  5
23
330
8
100
AcDbSymbolTableRecord
100
AcDbViewportTableRecord
  2
*Active
 70
0
 10
0.0
 20
0.0
 11
1.0
 21
1.0
 12
0.0
 22
0.0
 13
0.0
 23
0.0
 14
0.5
 24
0.5
 15
0.5
 25
0.5
 16
0.0
 26
0.0
 36
1.0
 17
0.0
 27
0.0
 37
0.0
 40
1000.0
 41
1.34
 42
50.0
 43
0.0
 44
0.0
 50
0.0
 51
0.0
 71
0
 72
1000
 73
1
 74
3
 75
0
 76
0
 77
0
 78
0
281
0
 65
0
146
0.0
  0
ENDTAB
  0
TABLE
  2
LTYPE
  5
2
330
0
100
AcDbSymbolTable
 70
3
  0
LTYPE
  5
24
330
2
100
AcDbSymbolTableRecord
100
AcDbLinetypeTableRecord
  2
ByBlock
 70
0
  3

 72
65
 73
0
 40
0.0
  0
LTYPE
  5
25
330
2
100
AcDbSymbolTableRecord
100
AcDbLinetypeTableRecord
  2
ByLayer
 70
0
  3

 72
65
 73
0
 40
0.0
  0
LTYPE
  5
26
330
2
100
AcDbSymbolTableRecord
100
AcDbLinetypeTableRecord
  2
Continuous
 70
0
  3

 72
65
 73
0
 40
0.0
  0
ENDTAB
  0
TABLE
  2
LAYER
  5
1
330
0
100
AcDbSymbolTable
 70
3
  0
LAYER
  5
27
330
1
100
AcDbSymbolTableRecord
100
AcDbLayerTableRecord
  2
0
 70
0
 62
7
  6
Continuous
370
-3
390
13
347
21
  0
LAYER
  5
28
330
1
100
AcDbSymbolTableRecord
100
AcDbLayerTableRecord
  2
Defpoints
 70
0
 62
7
  6
Continuous
290
0
370
-3
390
13
347
21
  0
LAYER
  5
2F
330
1
100
AcDbSymbolTableRecord
100
AcDbLayerTableRecord
  2
Layer 1
 70
0
 62
5
  6
Continuous
370
-3
390
13
347
21
  0
ENDTAB
  0
TABLE
  2
STYLE
  5
5
330
0
100
AcDbSymbolTable
 70
1
  0
STYLE
  5
29
330
5
100
AcDbSymbolTableRecord
100
AcDbTextStyleTableRecord
  2
Standard
 70
0
 40
0.0
 41
1.0
 50
0.0
 71
0
 42
2.5
  3
txt
  4

  0
ENDTAB
  0
TABLE
  2
VIEW
  5
7
330
0
100
AcDbSymbolTable
 70
0
  0
ENDTAB
  0
TABLE
  2
UCS
  5
6
330
0
100
AcDbSymbolTable
 70
0
  0
ENDTAB
  0
TABLE
  2
APPID
  5
3
330
0
100
AcDbSymbolTable
 70
3
  0
APPID
  5
2A
330
3
100
AcDbSymbolTableRecord
100
AcDbRegAppTableRecord
  2
ACAD
 70
0
  0
APPID
  5
32
330
3
100
AcDbSymbolTableRecord
100
AcDbRegAppTableRecord
  2
HATCHBACKGROUNDCOLOR
 70
0
  0
APPID
  5
33
330
3
100
AcDbSymbolTableRecord
100
AcDbRegAppTableRecord
  2
EZDXF
 70
0
  0
ENDTAB
  0
TABLE
  2
DIMSTYLE
  5
4
330
0
100
AcDbSymbolTable
 70
1
100
AcDbDimStyleTable
  0
DIMSTYLE
105
2B
330
4
100
AcDbSymbolTableRecord
100
AcDbDimStyleTableRecord
  2
Standard
 70
0
 40
1.0
 41
2.5
 42
0.625
 43
3.75
 44
1.25
 45
0.0
 46
0.0
 47
0.0
 48
0.0
 49
2.5
140
2.5
141
2.5
142
0.0
143
0.03937007874
144
1.0
145
0.0
146
1.0
147
0.625
148
0.0
 69
0
 70
0
 71
0
 72
0
 73
0
 74
0
 75
0
 76
0
 77
1
 78
8
 79
3
170
0
171
3
172
1
173
0
174
0
175
0
176
0
177
0
178
0
179
2
271
2
272
2
273
2
274
3
275
0
276
0
277
2
278
44
279
0
280
0
281
0
282
0
283
0
284
8
285
0
286
0
288
0
289
3
290
0
371
-2
372
-2
  0
ENDTAB
  0
TABLE
  2
BLOCK_RECORD
  5
9
330
0
100
AcDbSymbolTable
 70
2
  0
BLOCK_RECORD
  5
17
330
9
100
AcDbSymbolTableRecord
100
AcDbBlockTableRecord
  2
*Model_Space
340
1A
 70
0
280
1
281
0
  0
BLOCK_RECORD
  5
1B
330
9
100
AcDbSymbolTableRecord
100
AcDbBlockTableRecord
  2
*Paper_Space
340
1E
 70
0
280
1
281
0
  0
ENDTAB
  0
ENDSEC
  0
SECTION
  2
BLOCKS
  0
BLOCK
  5
18
330
17
100
AcDbEntity
  8
0
100
AcDbBlockBegin
  2
*Model_Space
 70
0
 10
0.0
 20
0.0
 30
0.0
  3
*Model_Space
  1

  0
ENDBLK
  5
19
330
17
100
AcDbEntity
  8
0
100
AcDbBlockEnd
  0
BLOCK
  5
1C
330
1B
100
AcDbEntity
  8
0
100
AcDbBlockBegin
  2
*Paper_Space
 70
0
 10
0.0
 20
0.0
 30
0.0
  3
*Paper_Space
  1

  0
ENDBLK
  5
1D
330
1B
100
AcDbEntity
  8
0
100
AcDbBlockEnd
  0
ENDSEC
  0
SECTION
  2
ENTITIES
  0
LWPOLYLINE
  5
30
330
17
100
AcDbEntity
  8
Layer 1
100
AcDbPolyline
 90
62
 70
1
 10
137.73400407080223
 20
-200.66294634771612
 10
120.93878609886542
 20
-200.7848466958983
 10
120.80840572646186
 20
-200.80154174358415
 10
120.68094036238439
 20
-200.8280418192759
 10
120.55692000814685
 20
-200.86434692297365
 10
120.43660966450616
 20
-200.90992705316353
 10
120.32080433373308
 20
-200.9642522083317
 10
120.20976901658452
 20
-201.02732238847813
 10
120.10403371457431
 20
-201.09860759208902
 10
120.00412842921631
 20
-201.17784281840744
 10
119.9103181612674
 20
-201.26449806591955
 10
119.82339791299836
 20
-201.35830833386848
 10
119.7436326851661
 20
-201.45900862149722
 10
119.67155247928446
 20
-201.56633392804895
 10
119.60768729686728
 20
-201.67975425200976
 10
119.55230213867145
 20
-201.7990045926228
 10
117.81151216647837
 20
-206.9606893358678
 10
117.76831704310077
 20
-207.15546489220242
 10
117.7508269931442
 20
-207.34918044550935
 10
117.75798201358097
 20
-207.54024599124708
 10
117.78845710062653
 20
-207.72654152336028
 10
117.84119225125318
 20
-207.90647703730747
 10
117.9145974609194
 20
-208.0779325270333
 10
118.00761272659756
 20
-208.2393179879963
 10
118.11917804525996
 20
-208.38851341414102
 10
118.2477034123651
 20
-208.52366380016906
 10
118.39239382564222
 20
-208.643179141539
 10
118.55165928054981
 20
-208.74493943219545
 10
118.72443977406022
 20
-208.82708966683995
 10
118.90941030238884
 20
-208.88777484017413
 10
119.10524586175109
 20
-208.92513994689955
 10
137.60892371353705
 20
-208.79475957449597
 10
137.7369190791283
 20
-208.77302951242874
 10
137.8598794303382
 20
-208.7385794140294
 10
137.97700976489585
 20
-208.69220428156882
 10
138.08804508204443
 20
-208.63469911731767
 10
138.1919253787562
 20
-208.5668589235467
 10
138.2881206535174
 20
-208.48921370176978
 10
138.3761009048141
 20
-208.40255845425767
 10
138.45507113037561
 20
-208.3076881832811
 10
138.52450132868807
 20
-208.20513289035392
 10
138.5835964974807
 20
-208.09568757774687
 10
138.63182663523978
 20
-207.98014724773068
 10
138.66866174045134
 20
-207.85930690257618
 10
138.69304181008778
 20
-207.73369654379712
 10
138.70470184339217
 20
-207.6043761744212
 10
138.67528675937427
 20
-204.75985804966544
 10
138.92438747087704
 20
-201.86313477579688
 10
138.9198824580094
 20
-201.733814406421
 10
138.90159740578213
 20
-201.607939046885
 10
138.87032731646582
 20
-201.48656870021665
 10
138.82660219157435
 20
-201.37023336792976
 10
138.77121703337855
 20
-201.25999305305191
 10
138.7049668441491
 20
-201.15637775709712
 10
138.62838162539984
 20
-201.06044748309284
 10
138.54225637940158
 20
-200.97299723330997
 10
138.447386108425
 20
-200.89455700926226
 10
138.3445658147409
 20
-200.82618681397747
 10
138.23432549986308
 20
-200.76868164972632
 10
138.1174601660623
 20
-200.72283651877953
 10
137.99476481560936
 20
-200.689181422651
 10
137.86676945001807
 20
-200.66877636436834
  0
LWPOLYLINE
  5
31
330
17
100
AcDbEntity
  8
Layer 1
100
AcDbPolyline
 90
163
 70
1
 10
104.09984300203723
 20
-200.88554698352712
 10
79.08721655883613
 20
-201.13199768746068
 10
78.94570615464202
 20
-201.1481627336327
 10
78.8068457580171
 20
-201.17466280932447
 10
78.67143037123209
 20
-201.21123291377913
 10
78.53972499504393
 20
-201.25760804623974
 10
78.41225963096647
 20
-201.3135232059494
 10
78.28956428051353
 20
-201.37844839139427
 10
78.17216894519893
 20
-201.4521186018174
 10
78.06060362653655
 20
-201.53426883646193
 10
77.95513332528326
 20
-201.6246340945709
 10
77.85655304370981
 20
-201.7226843746305
 10
77.76512778257316
 20
-201.82815467588378
 10
77.68138754338715
 20
-201.94077999757383
 10
77.60586232766556
 20
-202.06003033818686
 10
77.53881713616536
 20
-202.18590569772283
 10
77.48104697115727
 20
-202.3178760746679
 10
75.53302640705446
 20
-208.86392477205158
 10
75.47101622993571
 20
-209.0067601800303
 10
75.39840602254023
 20
-209.1437655713568
 10
75.31572578638188
 20
-209.27467594527423
 10
75.12254023458878
 20
-209.51768163936785
 10
74.896229588181
 20
-209.7357772623112
 10
74.64156386078298
 20
-209.92843281259044
 10
74.36331306601926
 20
-210.09538328944865
 10
74.06598221675749
 20
-210.236098691372
 10
73.75434132662214
 20
-210.35004901684664
 10
41.330173713943786
 20
-210.4443892863094
 10
41.0341678684666
 20
-210.3346789729454
 10
40.750352057807625
 20
-210.20244359524344
 10
40.48270129332065
 20
-210.04768315320345
 10
40.235455587116334
 20
-209.86986764531156
 10
40.01285495130538
 20
-209.66899707156787
 10
39.81913939799846
 20
-209.4450714319723
 10
39.73433915578476
 20
-209.32423108681778
 10
39.658548939306264
 20
-209.1975607250111
 10
36.48039486159101
 20
-202.05499532380543
 10
36.410964663278534
 20
-201.93653998546318
 10
36.333584442258534
 20
-201.82417966453002
 10
36.24878420004484
 20
-201.71844436251982
 10
36.15709393815128
 20
-201.61959908018946
 10
36.05904365809169
 20
-201.52764381753897
 10
35.95489836062299
 20
-201.4431085760822
 10
35.84518804725902
 20
-201.36625835657605
 10
35.73017771875669
 20
-201.29735815977745
 10
35.61066237738677
 20
-201.23667298644324
 10
35.48690702390614
 20
-201.18473283808737
 10
35.35917665907176
 20
-201.14153771470976
 10
35.22800128439744
 20
-201.10735261706736
 10
35.09391090139703
 20
-201.082707546674
 10
34.957435511584364
 20
-201.06760250352966
 10
25.804044366886373
 20
-201.06707250201586
 10
25.67631400205198
 20
-201.08217754516016
 10
25.554148653112883
 20
-201.10708761631045
 10
25.437813320825967
 20
-201.14100771319596
 10
25.32730800519124
 20
-201.1836728350597
 10
25.222897706965625
 20
-201.234287979631
 10
25.124847426906037
 20
-201.29258814615292
 10
25.03315716501247
 20
-201.35804333311162
 10
24.947826921284936
 20
-201.43012353899329
 10
24.86912169648035
 20
-201.508298762284
 10
24.79730649135562
 20
-201.59203900147006
 10
24.732381305910756
 20
-201.68081425503755
 10
24.67461114090267
 20
-201.7740945214726
 10
24.623995996331367
 20
-201.87161480001836
 10
24.580800872953766
 20
-201.97258008840404
 10
24.54502577076986
 20
-202.07672538587275
 10
24.516935690536577
 20
-202.18352069091063
 10
24.4965306322539
 20
-202.29243600200383
 10
24.484075596678764
 20
-202.40294131763858
 10
24.479570583811167
 20
-202.51450663630098
 10
24.483280594408015
 20
-202.6266019564772
 10
24.49547062922624
 20
-202.73869727665343
 10
24.51614068826583
 20
-202.85052759607277
 10
24.545290771526787
 20
-202.96129791246443
 10
24.583185879766035
 20
-203.07074322507145
 10
24.63009101374049
 20
-203.17806853162315
 10
24.68600617345014
 20
-203.28300883136262
 10
24.75119635965192
 20
-203.38503412277598
 10
24.82566157234583
 20
-203.48361440434937
 10
24.909401811531858
 20
-203.57821967456903
 10
25.002947078723842
 20
-203.6683199319211
 10
30.26374210505616
 20
-208.01327234234546
 10
32.54725362741691
 20
-210.31665892147504
 10
34.34104375099354
 20
-212.60732546427258
 10
35.05230578256094
 20
-213.76829378032946
 10
35.63901745837697
 20
-214.95072715769675
 10
36.10038377617087
 20
-216.16284061983876
 10
36.435609733671896
 20
-217.41284919022007
 10
36.6439003286093
 20
-218.70896789230505
 10
36.72472555946923
 20
-220.0594117495582
 10
36.677025423224016
 20
-221.47239578544395
 10
36.234209158414366
 20
-224.36620405098643
 10
34.96618053656265
 20
-229.39141340441878
 10
25.87612457276802
 20
-252.1926085311408
 10
12.14007533869038
 20
-280.0343830551965
 10
11.366008127733458
 20
-282.71036069855245
 10
10.810301540476814
 20
-286.23831577539926
 10
10.806326529123055
 20
-287.45387424738124
 10
10.864626695644972
 20
-287.9979208013335
 10
10.959231965864625
 20
-288.50168724023433
 10
11.087492332212847
 20
-288.9667635686251
 10
11.246757787120451
 20
-289.3944747902904
 10
11.43411332226134
 20
-289.78641090977186
 10
11.64664392930942
 20
-290.14416193161094
 10
11.881699600695512
 20
-290.46931786034907
 10
12.136365328093525
 20
-290.7634687005278
 10
12.407991103934279
 20
-291.0279394559318
 10
12.693661919891674
 20
-291.2645851318594
 10
12.99046276763962
 20
-291.4747307320952
 10
13.606854528230443
 20
-291.82188172365755
 10
14.234641321368727
 20
-292.0818474661939
 10
14.851298082716468
 20
-292.2668179945225
 10
15.434564748692559
 20
-292.38951334497546
 10
16.411357538691604
 20
-292.49710365228407
 10
45.201834772512974
 20
-291.97558216266987
 10
45.48538558241503
 20
-291.94007206124286
 10
45.76284137490797
 20
-291.8830968985055
 10
46.03314214696414
 20
-291.8057166774856
 10
46.29549289631277
 20
-291.7084613996967
 10
46.54856861916929
 20
-291.59212606740977
 10
46.79157431326291
 20
-291.4572406821386
 10
47.023714976322914
 20
-291.3048652469109
 10
47.2436656045647
 20
-291.13552976324036
 10
47.450631195717506
 20
-290.94976423264103
 10
47.643286745996754
 20
-290.7486286581404
 10
47.821102253888604
 20
-290.5326530412524
 10
47.98275271560847
 20
-290.3026323842477
 10
48.12717812812866
 20
-290.05909668864024
 10
48.25358348917846
 20
-289.8028409567007
 10
72.51837779635753
 20
-224.9900158327709
 10
73.18114468940895
 20
-223.58074180748199
 10
74.00768205023562
 20
-222.2602430357606
 10
74.99056985764376
 20
-221.02533950852361
 10
76.12212308968279
 20
-219.87258621593114
 10
77.39492172515901
 20
-218.7990681496571
 10
78.80154574287874
 20
-217.80107529910464
 10
81.98632483951694
 20
-216.01974021110314
 10
85.61657020853399
 20
-214.50261087774868
 10
93.97416408020781
 20
-212.15682417751228
 10
99.2969692836589
 20
-211.10795118163156
 10
99.97590122288233
 20
-210.85328545423357
 10
100.61216804024198
 20
-210.51752949521867
 10
101.19914471681494
 20
-210.10624832048225
 10
101.73047123443513
 20
-209.62474194516258
 10
102.19952257417964
 20
-209.07857538515498
 10
102.59967371712553
 20
-208.47304865559778
 10
102.92482964586367
 20
-207.81372677238627
 10
105.13202095023209
 20
-202.22247580217743
 10
105.15931602819464
 20
-202.08997542371853
 10
105.1691210562006
 20
-201.9582700475304
 10
105.16249603727765
 20
-201.82868467739758
 10
105.14023597369655
 20
-201.70227931634778
 10
105.10313586772807
 20
-201.58064396892252
 10
105.05199072164294
 20
-201.46483863814944
 10
104.98786053846882
 20
-201.35592332705625
 10
104.91127531971956
 20
-201.25522303942748
 10
104.82329506842285
 20
-201.16406277904775
 10
104.72471478684943
 20
-201.08376754970163
 10
104.61632947727006
 20
-201.01539735441682
 10
104.49893414195547
 20
-200.96027719697796
 10
104.37332378317643
 20
-200.9197320811695
 10
104.2402934032037
 20
-200.89482201001923
  0
ENDSEC
  0
SECTION
  2
OBJECTS
  0
DICTIONARY
  5
A
330
0
100
AcDbDictionary
281
1
  3
ACAD_COLOR
350
B
  3
ACAD_GROUP
350
C
  3
ACAD_LAYOUT
350
D
  3
ACAD_MATERIAL
350
E
  3
ACAD_MLEADERSTYLE
350
F
  3
ACAD_MLINESTYLE
350
10
  3
ACAD_PLOTSETTINGS
350
11
  3
ACAD_PLOTSTYLENAME
350
12
  3
ACAD_SCALELIST
350
14
  3
ACAD_TABLESTYLE
350
15
  3
ACAD_VISUALSTYLE
350
16
  3
EZDXF_META
350
2D
  0
DICTIONARY
  5
B
330
A
100
AcDbDictionary
281
1
  0
DICTIONARY
  5
C
330
A
100
AcDbDictionary
281
1
  0
DICTIONARY
  5
D
330
A
100
AcDbDictionary
281
1
  3
Model
350
1A
  3
Layout1
350
1E
  0
DICTIONARY
  5
E
330
A
100
AcDbDictionary
281
1
  3
ByBlock
350
1F
  3
ByLayer
350
20
  3
Global
350
21
  0
DICTIONARY
  5
F
330
A
100
AcDbDictionary
281
1
  3
Standard
350
2C
  0
DICTIONARY
  5
10
330
A
100
AcDbDictionary
281
1
  3
Standard
350
22
  0
DICTIONARY
  5
11
330
A
100
AcDbDictionary
281
1
  0
ACDBDICTIONARYWDFLT
  5
12
330
A
100
AcDbDictionary
281
1
  3
Normal
350
13
100
AcDbDictionaryWithDefault
340
13
  0
ACDBPLACEHOLDER
  5
13
330
12
  0
DICTIONARY
  5
14
330
A
100
AcDbDictionary
281
1
  0
DICTIONARY
  5
15
330
A
100
AcDbDictionary
281
1
  0
DICTIONARY
  5
16
330
A
100
AcDbDictionary
281
1
  0
LAYOUT
  5
1A
330
D
100
AcDbPlotSettings
  1

  4
A3
  6

 40
7.5
 41
20.0
 42
7.5
 43
20.0
 44
420.0
 45
297.0
 46
0.0
 47
0.0
 48
0.0
 49
0.0
140
0.0
141
0.0
142
1.0
143
1.0
 70
1024
 72
1
 73
0
 74
5
  7

 75
16
 76
0
 77
2
 78
300
147
1.0
148
0.0
149
0.0
100
AcDbLayout
  1
Model
 70
1
 71
0
 10
0.0
 20
0.0
 11
420.0
 21
297.0
 12
0.0
 22
0.0
 32
0.0
 14
1e+20
 24
1e+20
 34
1e+20
 15
-1e+20
 25
-1e+20
 35
-1e+20
146
0.0
 13
0.0
 23
0.0
 33
0.0
 16
1.0
 26
0.0
 36
0.0
 17
0.0
 27
1.0
 37
0.0
 76
1
330
17
  0
LAYOUT
  5
1E
330
D
100
AcDbPlotSettings
  1

  4
A3
  6

 40
7.5
 41
20.0
 42
7.5
 43
20.0
 44
420.0
 45
297.0
 46
0.0
 47
0.0
 48
0.0
 49
0.0
140
0.0
141
0.0
142
1.0
143
1.0
 70
0
 72
1
 73
0
 74
5
  7

 75
16
 76
0
 77
2
 78
300
147
1.0
148
0.0
149
0.0
100
AcDbLayout
  1
Layout1
 70
1
 71
1
 10
0.0
 20
0.0
 11
420.0
 21
297.0
 12
0.0
 22
0.0
 32
0.0
 14
1e+20
 24
1e+20
 34
1e+20
 15
-1e+20
 25
-1e+20
 35
-1e+20
146
0.0
 13
0.0
 23
0.0
 33
0.0
 16
1.0
 26
0.0
 36
0.0
 17
0.0
 27
1.0
 37
0.0
 76
1
330
1B
  0
MATERIAL
  5
1F
102
{ACAD_REACTORS
330
E
102
}
330
E
100
AcDbMaterial
  1
ByBlock
  2

 70
0
 40
1.0
 71
1
 41
1.0
 91
-1023410177
 42
1.0
 72
1
  3

 73
1
 74
1
 75
1
 44
0.5
 73
0
 45
1.0
 46
1.0
 77
1
  4

 78
1
 79
1
170
1
 48
1.0
171
1
  6

172
1
173
1
174
1
140
1.0
141
1.0
175
1
  7

176
1
177
1
178
1
143
1.0
179
1
  8

270
1
271
1
272
1
145
1.0
146
1.0
273
1
  9

274
1
275
1
276
1
 42
1.0
 72
1
  3

 73
1
 74
1
 75
1
 94
63
  0
MATERIAL
  5
20
102
{ACAD_REACTORS
330
E
102
}
330
E
100
AcDbMaterial
  1
ByLayer
  2

 70
0
 40
1.0
 71
1
 41
1.0
 91
-1023410177
 42
1.0
 72
1
  3

 73
1
 74
1
 75
1
 44
0.5
 73
0
 45
1.0
 46
1.0
 77
1
  4

 78
1
 79
1
170
1
 48
1.0
171
1
  6

172
1
173
1
174
1
140
1.0
141
1.0
175
1
  7

176
1
177
1
178
1
143
1.0
179
1
  8

270
1
271
1
272
1
145
1.0
146
1.0
273
1
  9

274
1
275
1
276
1
 42
1.0
 72
1
  3

 73
1
 74
1
 75
1
 94
63
  0
MATERIAL
  5
21
102
{ACAD_REACTORS
330
E
102
}
330
E
100
AcDbMaterial
  1
Global
  2

 70
0
 40
1.0
 71
1
 41
1.0
 91
-1023410177
 42
1.0
 72
1
  3

 73
1
 74
1
 75
1
 44
0.5
 73
0
 45
1.0
 46
1.0
 77
1
  4

 78
1
 79
1
170
1
 48
1.0
171
1
  6

172
1
173
1
174
1
140
1.0
141
1.0
175
1
  7

176
1
177
1
178
1
143
1.0
179
1
  8

270
1
271
1
272
1
145
1.0
146
1.0
273
1
  9

274
1
275
1
276
1
 42
1.0
 72
1
  3

 73
1
 74
1
 75
1
 94
63
  0
MLINESTYLE
  5
22
102
{ACAD_REACTORS
330
10
102
}
330
10
100
AcDbMlineStyle
  2
Standard
 70
0
  3

 62
256
 51
90.0
 52
90.0
 71
2
 49
0.5
 62
256
  6
BYLAYER
 49
-0.5
 62
256
  6
BYLAYER
  0
MLEADERSTYLE
  5
2C
102
{ACAD_REACTORS
330
F
102
}
330
F
100
AcDbMLeaderStyle
179
2
170
2
171
1
172
0
 90
2
 40
0.0
 41
0.0
173
1
 91
-1056964608
 92
-2
290
1
 42
2.0
291
1
 43
8.0
  3
Standard
 44
4.0
300

342
29
174
1
175
1
176
0
178
1
 93
-1056964608
 45
4.0
292
0
297
0
 46
4.0
 94
-1056964608
 47
1.0
 49
1.0
140
1.0
294
1
141
0.0
177
0
142
1.0
295
0
296
0
143
3.75
271
0
272
9
273
9
  0
DICTIONARY
  5
2D
330
A
100
AcDbDictionary
280
1
281
1
  3
CREATED_BY_EZDXF
350
2E
  3
WRITTEN_BY_EZDXF
350
34
  0
DICTIONARYVAR
  5
2E
330
2D
100
DictionaryVariables
280
0
  1
1.4.4 @ 2026-07-13T22:52:42.961025+00:00
  0
DICTIONARYVAR
  5
34
330
2D
100
DictionaryVariables
280
0
  1
1.4.4 @ 2026-07-13T22:52:42.972340+00:00
  0
ENDSEC
  0
EOF
