  0
SECTION
  2
HEADER
  9
$ACADVER
  1
AC1024
  9
$ACADMAINTVER
 70
6
  9
$DWGCODEPAGE
  3
ANSI_1252
  9
$LASTSAVEDBY
  1
ezdxf
  9
$INSBASE
 10
0.0
 20
0.0
 30
0.0
  9
$EXTMIN
 10
1e+20
 20
1e+20
 30
1e+20
  9
$EXTMAX
 10
-1e+20
 20
-1e+20
 30
-1e+20
  9
$LIMMIN
 10
0.0
 20
0.0
  9
$LIMMAX
 10
420.0
 20
297.0
  9
$ORTHOMODE
 70
0
  9
$REGENMODE
 70
1
  9
$FILLMODE
 70
1
  9
$QTEXTMODE
 70
0
  9
$MIRRTEXT
 70
1
  9
$LTSCALE
 40
1.0
  9
$ATTMODE
 70
1
  9
$TEXTSIZE
 40
2.5
  9
$TRACEWID
 40
1.0
  9
$TEXTSTYLE
  7
Standard
  9
$CLAYER
  8
0
  9
$CELTYPE
  6
ByLayer
  9
$CECOLOR
 62
256
  9
$CELTSCALE
 40
1.0
  9
$DISPSILH
 70
0
  9
$DIMSCALE
 40
1.0
  9
$DIMASZ
 40
2.5
  9
$DIMEXO
 40
0.625
  9
$DIMDLI
 40
3.75
  9
$DIMRND
 40
0.0
  9
$DIMDLE
 40
0.0
  9
$DIMEXE
 40
1.25
  9
$DIMTP
 40
0.0
  9
$DIMTM
 40
0.0
  9
$DIMTXT
 40
2.5
  9
$DIMCEN
 40
2.5
  9
$DIMTSZ
 40
0.0
  9
$DIMTOL
 70
0
  9
$DIMLIM
 70
0
  9
$DIMTIH
 70
0
  9
$DIMTOH
 70
0
  9
$DIMSE1
 70
0
  9
$DIMSE2
 70
0
  9
$DIMTAD
 70
1
  9
$DIMZIN
 70
8
  9
$DIMBLK
  1

  9
$DIMASO
 70
1
  9
$DIMSHO
 70
1
  9
$DIMPOST
  1

  9
$DIMAPOST
  1

  9
$DIMALT
 70
0
  9
$DIMALTD
 70
3
  9
$DIMALTF
 40
0.03937007874
  9
$DIMLFAC
 40
1.0
  9
$DIMTOFL
 70
1
  9
$DIMTVP
 40
0.0
  9
$DIMTIX
 70
0
  9
$DIMSOXD
 70
0
  9
$DIMSAH
 70
0
  9
$DIMBLK1
  1

  9
$DIMBLK2
  1

  9
$DIMSTYLE
  2
ISO-25
  9
$DIMCLRD
 70
0
  9
$DIMCLRE
 70
0
  9
$DIMCLRT
 70
0
  9
$DIMTFAC
 40
1.0
  9
$DIMGAP
 40
0.625
  9
$DIMJUST
 70
0
  9
$DIMSD1
 70
0
  9
$DIMSD2
 70
0
  9
$DIMTOLJ
 70
0
  9
$DIMTZIN
 70
8
  9
$DIMALTZ
 70
0
  9
$DIMALTTZ
 70
0
  9
$DIMUPT
 70
0
  9
$DIMDEC
 70
2
  9
$DIMTDEC
 70
2
  9
$DIMALTU
 70
2
  9
$DIMALTTD
 70
3
  9
$DIMTXSTY
  7
Standard
  9
$DIMAUNIT
 70
0
  9
$DIMADEC
 70
0
  9
$DIMALTRND
 40
0.0
  9
$DIMAZIN
 70
0
  9
$DIMDSEP
 70
44
  9
$DIMATFIT
 70
3
  9
$DIMFRAC
 70
0
  9
$DIMLDRBLK
  1

  9
$DIMLUNIT
 70
2
  9
$DIMLWD
 70
-2
  9
$DIMLWE
 70
-2
  9
$DIMTMOVE
 70
0
  9
$DIMFXL
 40
1.0
  9
$DIMFXLON
 70
0
  9
$DIMJOGANG
 40
0.785398163397
  9
$DIMTFILL
 70
0
  9
$DIMTFILLCLR
 70
0
  9
$DIMARCSYM
 70
0
  9
$DIMLTYPE
  6

  9
$DIMLTEX1
  6

  9
$DIMLTEX2
  6

  9
$DIMTXTDIRECTION
 70
0
  9
$LUNITS
 70
2
  9
$LUPREC
 70
4
  9
$SKETCHINC
 40
1.0
  9
$FILLETRAD
 40
10.0
  9
$AUNITS
 70
0
  9
$AUPREC
 70
2
  9
$MENU
  1
.
  9
$ELEVATION
 40
0.0
  9
$PELEVATION
 40
0.0
  9
$THICKNESS
 40
0.0
  9
$LIMCHECK
 70
0
  9
$CHAMFERA
 40
0.0
  9
$CHAMFERB
 40
0.0
  9
$CHAMFERC
 40
0.0
  9
$CHAMFERD
 40
0.0
  9
$SKPOLY
 70
0
  9
$TDCREATE
 40
2461142.7371527776
  9
$TDUCREATE
 40
2458532.153996898
  9
$TDUPDATE
 40
2461142.7371527776
  9
$TDUUPDATE
 40
2458532.1544311
  9
$TDINDWG
 40
0.0
  9
$TDUSRTIMER
 40
0.0
  9
$USRTIMER
 70
1
  9
$ANGBASE
 50
0.0
  9
$ANGDIR
 70
0
  9
$PDMODE
 70
0
  9
$PDSIZE
 40
0.0
  9
$PLINEWID
 40
0.0
  9
$SPLFRAME
 70
0
  9
$SPLINETYPE
 70
6
  9
$SPLINESEGS
 70
8
  9
$HANDSEED
  5
41
  9
$SURFTAB1
 70
6
  9
$SURFTAB2
 70
6
  9
$SURFTYPE
 70
6
  9
$SURFU
 70
6
  9
$SURFV
 70
6
  9
$UCSBASE
  2

  9
$UCSNAME
  2

  9
$UCSORG
 10
0.0
 20
0.0
 30
0.0
  9
$UCSXDIR
 10
1.0
 20
0.0
 30
0.0
  9
$UCSYDIR
 10
0.0
 20
1.0
 30
0.0
  9
$UCSORTHOREF
  2

  9
$UCSORTHOVIEW
 70
0
  9
$UCSORGTOP
 10
0.0
 20
0.0
 30
0.0
  9
$UCSORGBOTTOM
 10
0.0
 20
0.0
 30
0.0
  9
$UCSORGLEFT
 10
0.0
 20
0.0
 30
0.0
  9
$UCSORGRIGHT
 10
0.0
 20
0.0
 30
0.0
  9
$UCSORGFRONT
 10
0.0
 20
0.0
 30
0.0
  9
$UCSORGBACK
 10
0.0
 20
0.0
 30
0.0
  9
$PUCSBASE
  2

  9
$PUCSNAME
  2

  9
$PUCSORG
 10
0.0
 20
0.0
 30
0.0
  9
$PUCSXDIR
 10
1.0
 20
0.0
 30
0.0
  9
$PUCSYDIR
 10
0.0
 20
1.0
 30
0.0
  9
$PUCSORTHOREF
  2

  9
$PUCSORTHOVIEW
 70
0
  9
$PUCSORGTOP
 10
0.0
 20
0.0
 30
0.0
  9
$PUCSORGBOTTOM
 10
0.0
 20
0.0
 30
0.0
  9
$PUCSORGLEFT
 10
0.0
 20
0.0
 30
0.0
  9
$PUCSORGRIGHT
 10
0.0
 20
0.0
 30
0.0
  9
$PUCSORGFRONT
 10
0.0
 20
0.0
 30
0.0
  9
$PUCSORGBACK
 10
0.0
 20
0.0
 30
0.0
  9
$USERI1
 70
0
  9
$USERI2
 70
0
  9
$USERI3
 70
0
  9
$USERI4
 70
0
  9
$USERI5
 70
0
  9
$USERR1
 40
0.0
  9
$USERR2
 40
0.0
  9
$USERR3
 40
0.0
  9
$USERR4
 40
0.0
  9
$USERR5
 40
0.0
  9
$WORLDVIEW
 70
1
  9
$SHADEDGE
 70
3
  9
$SHADEDIF
 70
70
  9
$TILEMODE
 70
1
  9
$MAXACTVP
 70
64
  9
$PINSBASE
 10
0.0
 20
0.0
 30
0.0
  9
$PLIMCHECK
 70
0
  9
$PEXTMIN
 10
1e+20
 20
1e+20
 30
1e+20
  9
$PEXTMAX
 10
-1e+20
 20
-1e+20
 30
-1e+20
  9
$PLIMMIN
 10
0.0
 20
0.0
  9
$PLIMMAX
 10
420.0
 20
297.0
  9
$UNITMODE
 70
0
  9
$VISRETAIN
 70
1
  9
$PLINEGEN
 70
0
  9
$PSLTSCALE
 70
1
  9
$TREEDEPTH
 70
3020
  9
$CMLSTYLE
  2
Standard
  9
$CMLJUST
 70
0
  9
$CMLSCALE
 40
20.0
  9
$PROXYGRAPHICS
 70
1
  9
$MEASUREMENT
 70
1
  9
$CELWEIGHT
370
-1
  9
$ENDCAPS
280
0
  9
$JOINSTYLE
280
0
  9
$LWDISPLAY
290
0
  9
$INSUNITS
 70
4
  9
$HYPERLINKBASE
  1

  9
$STYLESHEET
  1

  9
$XEDIT
290
1
  9
$CEPSNTYPE
380
0
  9
$PSTYLEMODE
290
1
  9
$FINGERPRINTGUID
  2
{C3603523-CA08-4D3D-86AD-46EECC359B50}
  9
$VERSIONGUID
  2
{EE01BF2E-E8EB-48E7-B0F0-9A439606095F}
  9
$EXTNAMES
290
1
  9
$PSVPSCALE
 40
0.0
  9
$OLESTARTUP
290
0
  9
$SORTENTS
280
127
  9
$INDEXCTL
280
0
  9
$HIDETEXT
280
1
  9
$XCLIPFRAME
280
1
  9
$HALOGAP
280
0
  9
$OBSCOLOR
 70
257
  9
$OBSLTYPE
280
0
  9
$INTERSECTIONDISPLAY
280
0
  9
$INTERSECTIONCOLOR
 70
257
  9
$DIMASSOC
280
2
  9
$PROJECTNAME
  1

  9
$CAMERADISPLAY
290
0
  9
$LENSLENGTH
 40
50.0
  9
$CAMERAHEIGHT
 40
0.0
  9
$STEPSPERSEC
 40
24.0
  9
$STEPSIZE
 40
100.0
  9
$3DDWFPREC
 40
2.0
  9
$PSOLWIDTH
 40
0.005
  9
$PSOLHEIGHT
 40
0.08
  9
$LOFTANG1
 40
1.570796326795
  9
$LOFTANG2
 40
1.570796326795
  9
$LOFTMAG1
 40
0.0
  9
$LOFTMAG2
 40
0.0
  9
$LOFTPARAM
 70
7
  9
$LOFTNORMALS
280
1
  9
$LATITUDE
 40
37.795
  9
$LONGITUDE
 40
-122.394
  9
$NORTHDIRECTION
 40
0.0
  9
$TIMEZONE
 70
-8000
  9
$LIGHTGLYPHDISPLAY
280
1
  9
$TILEMODELIGHTSYNCH
280
1
  9
$CMATERIAL
347
20
  9
$SOLIDHIST
280
0
  9
$SHOWHIST
280
1
  9
$DWFFRAME
280
2
  9
$DGNFRAME
280
2
  9
$REALWORLDSCALE
290
1
  9
$INTERFERECOLOR
 62
256
  9
$CSHADOW
280
0
  9
$SHADOWPLANELOCATION
 40
0.0
  0
ENDSEC
  0
SECTION
  2
CLASSES
  0
CLASS
  1
ACDBDICTIONARYWDFLT
  2
AcDbDictionaryWithDefault
  3
ObjectDBX Classes
 90
0
 91
0
280
0
281
0
  0
CLASS
  1
SUN
  2
AcDbSun
  3
SCENEOE
 90
1153
 91
0
280
0
281
0
  0
CLASS
  1
VISUALSTYLE
  2
AcDbVisualStyle
  3
ObjectDBX Classes
 90
4095
 91
0
280
0
281
0
  0
CLASS
  1
MATERIAL
  2
AcDbMaterial
  3
ObjectDBX Classes
 90
1153
 91
0
280
0
281
0
  0
CLASS
  1
SCALE
  2
AcDbScale
  3
ObjectDBX Classes
 90
1153
 91
0
280
0
281
0
  0
CLASS
  1
TABLESTYLE
  2
AcDbTableStyle
  3
ObjectDBX Classes
 90
4095
 91
0
280
0
281
0
  0
CLASS
  1
MLEADERSTYLE
  2
AcDbMLeaderStyle
  3
ACDB_MLEADERSTYLE_CLASS
 90
4095
 91
0
280
0
281
0
  0
CLASS
  1
DICTIONARYVAR
  2
AcDbDictionaryVar
  3
ObjectDBX Classes
 90
0
 91
0
280
0
281
0
  0
CLASS
  1
CELLSTYLEMAP
  2
AcDbCellStyleMap
  3
ObjectDBX Classes
 90
1152
 91
0
280
0
281
0
  0
CLASS
  1
MENTALRAYRENDERSETTINGS
  2
AcDbMentalRayRenderSettings
  3
SCENEOE
 90
1024
 91
0
280
0
281
0
  0
CLASS
  1
ACDBDETAILVIEWSTYLE
  2
AcDbDetailViewStyle
  3
ObjectDBX Classes
 90
1025
 91
0
280
0
281
0
  0
CLASS
  1
ACDBSECTIONVIEWSTYLE
  2
AcDbSectionViewStyle
  3
ObjectDBX Classes
 90
1025
 91
0
280
0
281
0
  0
CLASS
  1
RASTERVARIABLES
  2
AcDbRasterVariables
  3
ISM
 90
0
 91
0
280
0
281
0
  0
CLASS
  1
ACDBPLACEHOLDER
  2
AcDbPlaceHolder
  3
ObjectDBX Classes
 90
0
 91
0
280
0
281
0
  0
CLASS
  1
LAYOUT
  2
AcDbLayout
  3
ObjectDBX Classes
 90
0
 91
0
280
0
281
0
  0
ENDSEC
  0
SECTION
  2
TABLES
  0
TABLE
  2
VPORT
  5
8
330
0
100
AcDbSymbolTable
 70
1
  0
VPORT
  5
23
330
8
100
AcDbSymbolTableRecord
100
AcDbViewportTableRecord
  2
*Active
 70
0
 10
0.0
 20
0.0
 11
1.0
 21
1.0
 12
0.0
 22
0.0
 13
0.0
 23
0.0
 14
0.5
 24
0.5
 15
0.5
 25
0.5
 16
0.0
 26
0.0
 36
1.0
 17
0.0
 27
0.0
 37
0.0
 40
1000.0
 41
1.34
 42
50.0
 43
0.0
 44
0.0
 50
0.0
 51
0.0
 71
0
 72
1000
 73
1
 74
3
 75
0
 76
0
 77
0
 78
0
281
0
 65
0
146
0.0
  0
ENDTAB
  0
TABLE
  2
LTYPE
  5
2
330
0
100
AcDbSymbolTable
 70
3
  0
LTYPE
  5
24
330
2
100
AcDbSymbolTableRecord
100
AcDbLinetypeTableRecord
  2
ByBlock
 70
0
  3

 72
65
 73
0
 40
0.0
  0
LTYPE
  5
25
330
2
100
AcDbSymbolTableRecord
100
AcDbLinetypeTableRecord
  2
ByLayer
 70
0
  3

 72
65
 73
0
 40
0.0
  0
LTYPE
  5
26
330
2
100
AcDbSymbolTableRecord
100
AcDbLinetypeTableRecord
  2
Continuous
 70
0
  3

 72
65
 73
0
 40
0.0
  0
ENDTAB
  0
TABLE
  2
LAYER
  5
1
330
0
100
AcDbSymbolTable
 70
2
  0
LAYER
  5
27
330
1
100
AcDbSymbolTableRecord
100
AcDbLayerTableRecord
  2
0
 70
0
 62
7
  6
Continuous
370
-3
390
13
347
21
  0
LAYER
  5
28
330
1
100
AcDbSymbolTableRecord
100
AcDbLayerTableRecord
  2
Defpoints
 70
0
 62
7
  6
Continuous
290
0
370
-3
390
13
347
21
  0
ENDTAB
  0
TABLE
  2
STYLE
  5
5
330
0
100
AcDbSymbolTable
 70
1
  0
STYLE
  5
29
330
5
100
AcDbSymbolTableRecord
100
AcDbTextStyleTableRecord
  2
Standard
 70
0
 40
0.0
 41
1.0
 50
0.0
 71
0
 42
2.5
  3
txt
  4

  0
ENDTAB
  0
TABLE
  2
VIEW
  5
7
330
0
100
AcDbSymbolTable
 70
0
  0
ENDTAB
  0
TABLE
  2
UCS
  5
6
330
0
100
AcDbSymbolTable
 70
0
  0
ENDTAB
  0
TABLE
  2
APPID
  5
3
330
0
100
AcDbSymbolTable
 70
3
  0
APPID
  5
2A
330
3
100
AcDbSymbolTableRecord
100
AcDbRegAppTableRecord
  2
ACAD
 70
0
  0
APPID
  5
3E
330
3
100
AcDbSymbolTableRecord
100
AcDbRegAppTableRecord
  2
HATCHBACKGROUNDCOLOR
 70
0
  0
APPID
  5
3F
330
3
100
AcDbSymbolTableRecord
100
AcDbRegAppTableRecord
  2
EZDXF
 70
0
  0
ENDTAB
  0
TABLE
  2
DIMSTYLE
  5
4
330
0
100
AcDbSymbolTable
 70
1
100
AcDbDimStyleTable
  0
DIMSTYLE
105
2B
330
4
100
AcDbSymbolTableRecord
100
AcDbDimStyleTableRecord
  2
Standard
 70
0
 40
1.0
 41
2.5
 42
0.625
 43
3.75
 44
1.25
 45
0.0
 46
0.0
 47
0.0
 48
0.0
 49
2.5
140
2.5
141
2.5
142
0.0
143
0.03937007874
144
1.0
145
0.0
146
1.0
147
0.625
148
0.0
 69
0
 70
0
 71
0
 72
0
 73
0
 74
0
 75
0
 76
0
 77
1
 78
8
 79
3
170
0
171
3
172
1
173
0
174
0
175
0
176
0
177
0
178
0
179
2
271
2
272
2
273
2
274
3
275
0
276
0
277
2
278
44
279
0
280
0
281
0
282
0
283
0
284
8
285
0
286
0
288
0
289
3
290
0
371
-2
372
-2
  0
ENDTAB
  0
TABLE
  2
BLOCK_RECORD
  5
9
330
0
100
AcDbSymbolTable
 70
2
  0
BLOCK_RECORD
  5
17
330
9
100
AcDbSymbolTableRecord
100
AcDbBlockTableRecord
  2
*Model_Space
340
1A
 70
0
280
1
281
0
  0
BLOCK_RECORD
  5
1B
330
9
100
AcDbSymbolTableRecord
100
AcDbBlockTableRecord
  2
*Paper_Space
340
1E
 70
0
280
1
281
0
  0
ENDTAB
  0
ENDSEC
  0
SECTION
  2
BLOCKS
  0
BLOCK
  5
18
330
17
100
AcDbEntity
  8
0
100
AcDbBlockBegin
  2
*Model_Space
 70
0
 10
0.0
 20
0.0
 30
0.0
  3
*Model_Space
  1

  0
ENDBLK
  5
19
330
17
100
AcDbEntity
  8
0
100
AcDbBlockEnd
  0
BLOCK
  5
1C
330
1B
100
AcDbEntity
  8
0
100
AcDbBlockBegin
  2
*Paper_Space
 70
0
 10
0.0
 20
0.0
 30
0.0
  3
*Paper_Space
  1

  0
ENDBLK
  5
1D
330
1B
100
AcDbEntity
  8
0
100
AcDbBlockEnd
  0
ENDSEC
  0
SECTION
  2
ENTITIES
  0
LWPOLYLINE
  5
2F
330
17
100
AcDbEntity
  8
0
100
AcDbPolyline
 90
49
 70
1
 10
34.356567812
 20
30.494949678
 10
32.385813816
 20
30.494949678
 10
32.488190548
 20
30.162224918000003
 10
28.555214162
 20
30.162224918000003
 10
28.845281907999997
 20
30.605857762
 10
19.907715835999998
 20
30.605857762
 10
19.651361001999998
 20
30.447613984
 10
19.651361001999998
 20
30.276710846
 10
19.266828624
 20
30.02890108
 10
13.275926457999995
 20
30.02890108
 10
12.925574859999996
 20
30.23101269
 10
12.925574859999996
 20
30.606999746
 10
3.664104685999997
 20
30.606999746
 10
3.741011059999997
 20
30.193488254
 10
1.4679978259999966
 20
30.193488254
 10
1.4679978259999966
 20
30.347301256
 10
1.7243526599999965
 20
30.60365609
 10
0.7416589179999966
 20
30.60365609
 10
0.25842327219386796
 20
29.413228560344734
 10
0.04467090576868578
 20
28.146364590304366
 10
0.015278458383642288
 20
27.58745876473682
 10
0.00547694304915035
 20
27.027866442000004
 10
0.025970102713489
 20
26.218851968192787
 10
0.08739684043684635
 20
25.411912601264216
 10
17.139454925999996
 20
25.4119126
 10
17.22963563468167
 20
25.581261412443542
 10
17.351163819487724
 20
25.72972851584397
 10
17.499355811512036
 20
25.85159202143212
 10
17.668500324716
 20
25.94215533711436
 10
17.852078567607766
 20
25.997928173075422
 10
18.043015475999997
 20
26.016761056762807
 10
18.083683715130217
 20
26.015914513670925
 10
18.124281504589163
 20
26.013376455091755
 10
18.311075392345636
 20
25.960306702584052
 10
18.48381135718738
 20
25.871590058981166
 10
19.742354977999998
 20
25.870007696000002
 10
19.742354977999998
 20
25.473153016
 10
28.851467569999997
 20
25.473153016
 10
29.038656171999996
 20
25.51742674
 10
30.246248625999996
 20
25.51742674
 10
30.397956221999994
 20
25.481016856000004
 10
31.868838725999996
 20
25.481016856000004
 10
31.868838725999996
 20
25.665419078000003
 10
33.598305421999996
 20
25.665419078000003
 10
33.598305421999996
 20
25.410550398
 10
37.45886132799999
 20
25.410550398
 10
37.45886132799999
 20
25.641145822000002
 10
36.283821924217136
 20
27.934944138967882
 10
34.79450432982185
 20
30.038313203680886
  0
LWPOLYLINE
  5
30
330
17
100
AcDbEntity
  8
0
100
AcDbPolyline
 90
4
 70
1
 10
12.246049167999992
 20
28.914686392
 10
20.07156056799999
 20
28.914686392
 10
20.07156056799999
 20
26.678825992000004
 10
12.246049167999992
 20
26.678825992000004
  0
LWPOLYLINE
  5
31
330
17
100
AcDbEntity
  8
0
100
AcDbPolyline
 90
9
 70
1
 10
23.68430670799999
 20
29.753505644
 10
25.00537035999999
 20
25.576809654
 10
31.854751631999992
 20
25.576809654
 10
31.854751631999992
 20
25.68198318
 10
33.61177326399999
 20
25.68198318
 10
33.61177326399999
 20
25.577490628
 10
35.145568012
 20
25.577490628
 10
33.760305605999996
 20
29.777376309999998
 10
23.681747149999996
 20
29.777376309999998
  0
LWPOLYLINE
  5
32
330
17
100
AcDbEntity
  8
0
100
AcDbPolyline
 90
14
 70
1
 10
26.255533467999996
 20
30.496270985999995
 10
25.383568993999997
 20
30.496270985999995
 10
25.383568993999997
 20
29.996605995999996
 10
25.45273461031317
 20
29.9244981994233
 10
25.53364299157844
 20
29.865870128943715
 10
25.623704046782446
 20
29.822598623970272
 10
25.720034683641178
 20
29.79606891968398
 10
25.819551103999995
 20
29.78713030200039
 10
25.91906754895095
 20
29.796068783892466
 10
26.015398209614556
 20
29.82259849473468
 10
26.105459287074122
 20
29.865870010401217
 10
26.186367688333178
 20
29.92449809536876
 10
26.2555333217383
 20
29.996605909764472
 10
26.255533213999996
 20
30.491372342
  0
LWPOLYLINE
  5
33
330
17
100
AcDbEntity
  8
0
100
AcDbPolyline
 90
87
 70
1
 10
12.904056995999996
 20
25.203825893999998
 10
13.002707794782353
 20
24.806224894056317
 10
13.173863897644603
 20
24.43403660338932
 10
13.411505084553493
 20
24.100352319160734
 10
13.707272598735372
 20
23.816909004172917
 10
14.050763156379242
 20
23.59367645263503
 10
14.429894870238451
 20
23.438506614061964
 10
14.9651470115686
 20
23.330270706999467
 10
15.510025621999995
 20
23.293978264733447
 10
15.593089717999996
 20
23.294818027999995
 10
27.100296827999994
 20
23.294818027999995
 10
27.136564725999996
 20
23.294810661999993
 10
30.747657071999996
 20
23.366646687999996
 10
32.39203578050637
 20
23.468470618540675
 10
34.01788469517376
 20
23.73486272896195
 10
35.92370406003462
 20
24.141549453175365
 10
37.794846650154014
 20
24.68594540232429
 10
37.555365326
 20
25.315438827999994
 10
33.846826642
 20
25.315438827999994
 10
34.05102657209025
 20
24.941142073294134
 10
34.18210046280376
 20
24.535413953483065
 10
34.19858277562749
 20
24.46130451431534
 10
34.20411604158423
 20
24.385586229999994
 10
34.19613567943226
 20
24.294760982124924
 10
34.172439279473664
 20
24.206718993658676
 10
34.13375295134736
 20
24.124158233486583
 10
34.071308481072265
 20
24.038160501906546
 10
33.99270768529166
 20
23.96662844111401
 10
33.901223213309414
 20
23.912540436855224
 10
33.800664184668214
 20
23.878148539883536
 10
30.714776772000004
 20
24.199737731999992
 10
30.655630412851757
 20
24.263566710412768
 10
30.611353048589258
 20
24.338479628522254
 10
30.58395576262018
 20
24.421073932243765
 10
30.5746829430906
 20
24.50759817799999
 10
30.576930284031725
 20
24.550380064460544
 10
30.583647940818945
 20
24.5926909850364
 10
30.610628708428166
 20
24.67511599214843
 10
30.65440940002993
 20
24.749983164585384
 10
30.71301483732697
 20
24.813914731006495
 10
30.783800937524816
 20
24.8640263113509
 10
30.863574066751724
 20
24.898057037455125
 10
32.156772872000005
 20
24.75436832199999
 10
32.149930620000006
 20
25.26754255599999
 10
32.013084056000004
 20
25.41807362399999
 10
30.425665336000005
 20
25.41807362399999
 10
30.425665336000005
 20
25.15806525399999
 10
28.865615878000007
 20
25.15806525399999
 10
28.865615878000007
 20
25.32228107999999
 10
28.201910576000007
 20
25.32228107999999
 10
28.393495664000007
 20
24.67226053599999
 10
28.393888422844107
 20
24.665694899271834
 10
28.394019411727506
 20
24.65911882999999
 10
28.390310663909588
 20
24.624317428114107
 10
28.37935100777232
 20
24.591079222341623
 10
28.361632725247837
 20
24.560897193748378
 10
28.337951679401357
 20
24.53512704719781
 10
28.309371566429643
 20
24.51492631631635
 10
28.277176136960467
 20
24.501202369838893
 10
28.160856556000006
 20
24.50120245799999
 10
28.285163902000008
 20
23.99056695399999
 10
28.285173808000007
 20
23.988077245999992
 10
28.278331289196963
 20
23.9228778754321
 10
28.258101902834195
 20
23.860519636895354
 10
28.225367165973374
 20
23.80371985706592
 10
28.18155352964641
 20
23.754953646860205
 10
28.128570219732104
 20
23.716346045839884
 10
28.068726040404528
 20
23.689579421349148
 10
28.0046287655315
 20
23.67582015756538
 10
25.951932094000007
 20
23.675820059999992
 10
25.65771221000001
 20
24.449002409999995
 10
25.47981188000001
 20
24.449002409999995
 10
25.19927675400001
 20
25.331662061999992
 10
19.73966080000001
 20
25.331662061999992
 10
19.88334961600001
 20
24.706905373999994
 10
19.951772898000012
 20
24.296365935999994
 10
19.93348592501487
 20
24.18854722846956
 10
19.893493689141113
 20
24.086763594498716
 10
19.83349342210017
 20
23.99533463284265
 10
19.75603147706011
 20
23.91814050000146
 10
19.66439526387569
 20
23.858457240139817
 10
19.354502486742195
 20
23.824529713669445
 10
19.04296394600001
 20
23.813200590144014
 10
18.252194870422432
 20
23.88672579274708
 10
17.488536764163815
 20
24.104780812417005
 10
17.42011349600001
 20
25.32955665599999
 10
12.89284924600001
 20
25.32955665599999
  0
LWPOLYLINE
  5
34
330
17
100
AcDbEntity
  8
0
100
AcDbPolyline
 90
98
 70
1
 10
9.15452982400001
 20
16.38786257599999
 10
9.57834787400001
 20
16.94653176599999
 10
9.523890155317993
 20
17.31898591826961
 10
9.505680763528362
 20
17.694959529999988
 10
9.537164193780232
 20
18.188905062604203
 10
9.631104944484418
 20
18.674856223873917
 10
9.967372541457971
 20
19.240045050718134
 10
10.415123564456943
 20
19.721743429738193
 10
10.95427540405712
 20
20.098346139238433
 10
11.560645925550359
 20
20.352961727157155
 10
12.207038089889794
 20
20.474170129620685
 10
14.693457851456047
 20
20.671786446330582
 10
17.186846754000012
 20
20.737719897312832
 10
18.276197358332293
 20
20.72514190645106
 10
19.36496711091711
 20
20.68741427856888
 10
20.95072086200001
 20
20.537578177999993
 10
21.53841813874771
 20
20.340450431190384
 10
22.072022006213516
 20
20.024991479368715
 10
22.528024059775525
 20
19.605099154116015
 10
22.886334713437176
 20
19.099272194443586
 10
23.131168264844728
 20
18.529795267989094
 10
23.876702818000012
 20
16.500422421999993
 10
28.307527840000013
 20
16.500422421999993
 10
29.595052979659176
 20
16.308228021804588
 10
30.817665632531394
 20
15.861150876607503
 10
31.925456703516346
 20
15.177441423866918
 10
32.87320430669359
 20
14.285009827948995
 10
34.342119610999184
 20
12.03000498477182
 10
35.28649038687587
 20
9.509901256278779
 10
35.692157679237624
 20
6.544100944089178
 10
35.8575438259894
 20
3.5552575594648563
 10
36.396974728981625
 20
3.66348292678288
 10
36.90035327628929
 20
3.8855382653330808
 10
37.343970339421205
 20
4.21096481091045
 10
37.70693164201787
 20
4.624435037269677
 10
37.70701780400001
 20
4.695616719999993
 10
37.67705233461514
 20
6.0236497981718085
 10
37.58721692008021
 20
7.348979713464336
 10
37.20152484896579
 20
9.647369569076742
 10
36.46024615109484
 20
11.85686276804556
 10
35.489042306000016
 20
14.154837323999992
 10
35.46759353495253
 20
14.277061951935814
 10
35.46041187277732
 20
14.400946305999993
 10
35.47788390645809
 20
14.593710684549931
 10
35.52973034328234
 20
14.780192111099462
 10
35.614261364441994
 20
14.954312419854718
 10
34.88221192200002
 20
16.851861393999993
 10
34.72465077197465
 20
17.495372247516823
 10
34.67167886703565
 20
18.155770393999994
 10
34.70338019105906
 20
18.6673126697964
 10
34.79799880466298
 20
19.17102666312847
 10
35.116445164830786
 20
19.9589139093454
 10
35.57417435257162
 20
20.67491558920417
 10
36.155615079204864
 20
21.294674490941503
 10
36.84098766225566
 20
21.79710740912336
 10
37.60697682391708
 20
22.165122380405354
 10
37.804084304547565
 20
22.280455838749372
 10
37.97455892964057
 20
22.432414961597534
 10
38.11169741569038
 20
22.615024404018644
 10
38.21010727363395
 20
22.821103691374045
 10
38.26122628835179
 20
23.01353489074321
 10
38.27843745336498
 20
23.211894901999997
 10
38.24962823658145
 20
23.467877786707895
 10
38.16464167855857
 20
23.711053645259405
 10
37.84698450400001
 20
24.586375515999997
 10
35.21096967946627
 20
23.821753556313162
 10
32.5174036028443
 20
23.294569824329386
 10
28.049026452000014
 20
23.10653494
 10
15.718975928000013
 20
23.10653494
 10
15.571226922000015
 20
23.104215919999998
 10
14.94921068112844
 20
23.1454869464688
 10
14.338099827127644
 20
23.26857644909276
 10
13.835125667048622
 20
23.512592848316256
 10
13.389834640904269
 20
23.85059121265518
 10
13.019552395537334
 20
24.26942059441641
 10
12.738686074388925
 20
24.7527849517133
 10
12.558163777380638
 20
25.28187728065346
 10
0.01086180200001644
 20
25.281877299999998
 10
0.0025024080000164385
 20
25.075152541999998
 10
1.643864211420265e-14
 20
24.930719759999995
 10
0.057935840088570244
 20
24.238080198783287
 10
0.23013323616173
 20
23.564690133431217
 10
0.511806563416619
 20
22.92926408734686
 10
0.9777239435520677
 20
22.606371320708096
 10
1.4923048015443587
 20
22.368578651510052
 10
2.0401596755890403
 20
22.222997574711236
 10
2.6049041120000163
 20
22.173981919260513
 10
2.751729359529862
 20
22.17727203189854
 10
2.8982598776226443
 20
22.187135319490146
 10
3.1369010993816024
 20
22.20143692975486
 10
3.375922890000017
 20
22.20620670320906
 10
4.422332932739622
 20
22.114118555523813
 10
5.4365755798010795
 20
21.840684698633858
 10
6.400028297357269
 20
21.313951562873818
 10
7.227180817383833
 20
20.591796678968922
 10
7.879088417830622
 20
19.708221301191966
 10
8.325057385045513
 20
18.70482673871155
 10
8.677852899255223
 20
17.55003787182277
  0
LWPOLYLINE
  5
35
330
17
100
AcDbEntity
  8
0
100
AcDbPolyline
 90
45
 70
1
 10
0.026919936000016093
 20
25.05984066
 10
0.026431748000016093
 20
24.990535235999996
 10
0.0654576756651553
 20
24.372115601127604
 10
0.18191626417912057
 20
23.76350795659201
 10
0.9583924935584274
 20
23.729321188585374
 10
1.7355372960000177
 20
23.717922325029797
 10
2.1545966560000163
 20
23.721236275999996
 10
4.316083020600706
 20
23.668705780481517
 10
6.473357644100651
 20
23.52396823829825
 10
8.846388665500749
 20
23.129163247325913
 10
11.070159716794434
 20
22.211563386953028
 10
11.780762487672735
 20
21.80199234417346
 10
12.560917155409127
 20
21.548884794070183
 10
13.376622472000017
 20
21.463271862830073
 10
13.392586372000016
 20
21.463304545999996
 10
29.47123900000002
 20
21.463304545999996
 10
32.51746441044294
 20
21.69524585169404
 10
35.50189473822521
 20
22.348286156061704
 10
37.38666030400002
 20
22.870655807999995
 10
37.539871826453634
 20
22.937733185536448
 10
37.67671459288624
 20
23.033895561052013
 10
37.791739609264084
 20
23.155313808432712
 10
37.880366650820356
 20
23.297153128420884
 10
37.939066643762864
 20
23.4537655673211
 10
37.96550219080227
 20
23.618914915011157
 10
37.97426066516583
 20
23.678079206594006
 10
37.994210409327245
 20
23.734462999982604
 10
38.02460979868766
 20
23.78597029631534
 10
38.064328772431296
 20
23.830686373667294
 10
37.81726218600002
 20
24.529532093999997
 10
36.349110972660924
 20
24.094199432286707
 10
34.86658025727357
 20
23.71068256236248
 10
33.750079353571714
 20
23.461654199655445
 10
32.62180316711548
 20
23.273021646903224
 10
28.067974598000017
 20
23.073510622
 10
15.356116100000015
 20
23.073510622
 10
15.304557656000016
 20
23.073051644
 10
14.731362199795752
 20
23.13034263219764
 10
14.180845163313313
 20
23.299948884689897
 10
13.674787696912885
 20
23.575159947407688
 10
13.233211912602108
 20
23.945087122743857
 10
12.873588711218034
 20
24.39509427976266
 10
12.610146548018665
 20
24.907376931226395
 10
12.532496906000016
 20
25.217974964
 10
0.04937633000001627
 20
25.217974964
  0
LWPOLYLINE
  5
36
330
17
100
AcDbEntity
  8
0
100
AcDbPolyline
 90
38
 70
1
 10
13.896833014000016
 20
22.707816154
 10
13.866119156288018
 20
22.710306077156883
 10
13.835315738000016
 20
22.711136856703096
 10
13.723826326497269
 20
22.70015620140163
 10
13.61662139055459
 20
22.667635939617085
 10
13.517820755739038
 20
22.614825900069164
 10
13.431221275038535
 20
22.543755542961485
 10
13.360150942578953
 20
22.45715604579165
 10
13.307340905770433
 20
22.358355416101155
 10
13.274820645672797
 20
22.25115048571949
 10
13.26383989764403
 20
22.139661080000003
 10
13.264670647681857
 20
22.108857656683156
 10
13.267160571245237
 20
22.078143793956933
 10
13.287203795517213
 20
21.97222917888845
 10
13.32633758873365
 20
21.871789240805892
 10
13.383233656959224
 20
21.78023339798848
 10
13.45596067758146
 20
21.700669490310762
 10
13.542049950322028
 20
21.635798294448993
 10
13.63857919664183
 20
21.587821846701512
 10
13.742271755745211
 20
21.558368695424825
 10
13.849607810000016
 20
21.548438620372483
 10
13.956943841941332
 20
21.558368814988036
 10
14.060636379488647
 20
21.587821960141873
 10
14.157165605741525
 20
21.6357983979158
 10
14.243254860585477
 20
21.70066958029186
 10
14.315981866088903
 20
21.78023347142948
 10
14.37287792248667
 20
21.871789295213862
 10
14.412011707567801
 20
21.972229212416526
 10
14.432054834918343
 20
22.078143815510078
 10
14.43557144190027
 20
22.11415880614845
 10
14.436745250675834
 20
22.150326032000002
 10
14.428116688936244
 20
22.248056499652222
 10
14.40249776022317
 20
22.342763247422116
 10
14.360681167580596
 20
22.431516107439815
 10
14.303960690375616
 20
22.511569121419274
 10
14.219952184619224
 20
22.591738575612915
 10
14.12116448399178
 20
22.65277595511712
 10
14.011879355545343
 20
22.69203575889203
  0
LWPOLYLINE
  5
37
330
17
100
AcDbEntity
  8
0
100
AcDbPolyline
 90
38
 70
1
 10
33.27005207800002
 20
21.203427494000003
 10
33.17721738202871
 20
21.18483790927267
 10
33.08977762138466
 20
21.148531688112445
 10
33.011078509576315
 20
21.095898017928818
 10
32.94413131607121
 20
21.028950824423706
 10
32.891497645887576
 20
20.95025171261536
 10
32.85519142472736
 20
20.86281195197132
 10
32.83660184000002
 20
20.769977256000004
 10
32.834523974114106
 20
20.74479880997107
 10
32.83383065595716
 20
20.719544286000005
 10
32.84320102591303
 20
20.627139965642904
 10
32.87093050199336
 20
20.538497777128146
 10
32.9158901556504
 20
20.457226681581133
 10
32.9762495081361
 20
20.386635534856623
 10
33.04955110030685
 20
20.32959837141377
 10
33.12619551874132
 20
20.29097100590396
 10
33.20867865251479
 20
20.26724396999707
 10
33.294132802000014
 20
20.25924222482648
 10
33.379586959064596
 20
20.267243929880312
 10
33.4620701001539
 20
20.290970967891667
 10
33.53871450369318
 20
20.32959837141377
 10
33.61201606766929
 20
20.38663556438395
 10
33.672375414801415
 20
20.457226704847375
 10
33.71733506447077
 20
20.53849779318606
 10
33.74506453809162
 20
20.6271399738387
 10
33.754434863173536
 20
20.719544286000005
 10
33.753741585909395
 20
20.744798807554652
 10
33.7516637202223
 20
20.769977251174453
 10
33.751705928000014
 20
20.775997310000005
 10
33.74229385762373
 20
20.86552312392573
 10
33.7144692177928
 20
20.95113415035405
 10
33.669448725198784
 20
21.029086787733572
 10
33.60920103730265
 20
21.095972320780728
 10
33.54608845299127
 20
21.143081484931418
 10
33.47544969723795
 20
21.177904425026473
 10
33.39964900856243
 20
21.199275587080937
 10
33.32122342600001
 20
21.20647968112437
 10
33.29559241251845
 20
21.205715842287177
  0
LWPOLYLINE
  5
38
330
17
100
AcDbEntity
  8
0
100
AcDbPolyline
 90
4
 70
1
 10
24.504724422000013
 20
19.748961010000002
 10
31.565147944000014
 20
19.748961010000002
 10
31.565147944000014
 20
18.082585374
 10
24.504724422000013
 20
18.082585374
  0
LWPOLYLINE
  5
39
330
17
100
AcDbEntity
  8
0
100
AcDbPolyline
 90
36
 70
1
 10
29.953112052000012
 20
13.645348122000001
 10
29.895152046000014
 20
13.646395872000003
 10
29.582262036418676
 20
13.615578895859901
 10
29.281396214434807
 20
13.524312246550297
 10
29.004116684859756
 20
13.376103250221234
 10
28.761079144514937
 20
13.176647495485078
 10
28.561623372711033
 20
12.933609966544562
 10
28.413414374485054
 20
12.656330433420626
 10
28.322147724007333
 20
12.355464607585999
 10
28.29133074747281
 20
12.042574594000001
 10
28.292378518000014
 20
11.984614588000001
 10
28.34056413823418
 20
11.698086291022058
 10
28.441239996228067
 20
11.425534111460738
 10
28.590887391117626
 20
11.176483963560361
 10
28.78427602809142
 20
10.959640346970321
 10
29.01464682133109
 20
10.782582117597732
 10
29.27394812940662
 20
10.65149760059915
 10
29.553117166512575
 20
10.570968303521852
 10
29.842396754000013
 20
10.543808788991416
 10
30.131676320983345
 20
10.570968495632409
 10
30.410845340495953
 20
10.651497778392812
 10
30.67014663662123
 20
10.782582272766817
 10
30.900517425938162
 20
10.959640472992138
 10
31.09390606890115
 20
11.17648405627389
 10
31.24355348094931
 20
11.425534169513826
 10
31.34422936780655
 20
11.698086316162948
 10
31.392415028363622
 20
11.984614585194496
 10
31.39926844095349
 20
12.067057512486585
 10
31.401555254483462
 20
12.149753196
 10
31.37777365067739
 20
12.415471145999678
 10
31.307184977182953
 20
12.672743043538546
 10
31.192032875605413
 20
12.913391300526268
 10
31.035977545381417
 20
13.129766724263884
 10
30.811410071842015
 20
13.34049708054369
 10
30.548459465476192
 20
13.500793095455554
 10
30.258263089397243
 20
13.603865386084143
  0
LWPOLYLINE
  5
3A
330
17
100
AcDbEntity
  8
0
100
AcDbPolyline
 90
63
 70
1
 10
23.85947552200001
 20
16.310420770000004
 10
23.95546745600001
 20
16.034443674000002
 10
24.095439389980612
 20
16.06684017850069
 10
24.23869879200001
 20
16.077722252713695
 10
24.43264932552528
 20
16.057679256556728
 10
24.618402390162455
 20
15.998397479789
 10
24.788106989368472
 20
15.902382485714297
 10
24.934590427369457
 20
15.773692422110877
 10
25.051661468679697
 20
15.617766473772004
 10
25.13437201544458
 20
15.441194971165567
 10
25.173843156529188
 20
15.287460598027494
 10
25.18712423457818
 20
15.129296640000002
 10
25.16809715396511
 20
14.940274670849313
 10
25.11177966820081
 20
14.758836882041411
 10
25.02043130864402
 20
14.59226315176981
 10
24.897717270594566
 20
14.447236963528132
 10
24.74856124307834
 20
14.329577242867698
 10
24.578947854321246
 20
14.244004883050705
 10
25.715040413221708
 20
11.611194813748469
 10
26.70508331844578
 20
8.920059147766514
 10
27.033737313027142
 20
6.93950683782339
 10
27.143728866913207
 20
4.934886498000003
 10
27.143549218000008
 20
4.853738070000003
 10
28.43237188800001
 20
4.834848852000003
 10
29.605091624147384
 20
4.850487623066216
 10
30.77697730705121
 20
4.897392813771276
 10
30.81540471400001
 20
4.897359776000004
 10
32.23757736465204
 20
4.942461180107577
 10
33.65403455468799
 20
5.07758413785564
 10
34.09850686000001
 20
5.155667108000003
 10
34.195366512972114
 20
5.1786583371030295
 10
34.294617212000006
 20
5.186384120689068
 10
34.4058806195861
 20
5.1766597216755486
 10
34.513770178446094
 20
5.1477814894586045
 10
34.61501434532405
 20
5.10062507016953
 10
34.72306240572426
 20
5.022292640847872
 10
34.812561017596494
 20
4.923295919718762
 10
34.87963534526073
 20
4.807920935906144
 10
34.92138141772563
 20
4.681162828650128
 10
35.13761120800001
 20
3.840269180000003
 10
35.135106534187514
 20
3.8177338624360195
 10
35.13427012539419
 20
3.795075214000003
 10
35.14030423341408
 20
3.734473360242177
 10
35.15816971124692
 20
3.676251197423419
 10
35.18716499059351
 20
3.622694971668581
 10
35.22615149566352
 20
3.5759077088301177
 10
35.27250012671258
 20
3.5384470047567014
 10
35.32520705962788
 20
3.510635525549695
 10
35.38229055110728
 20
3.493519037780881
 10
35.44160425000001
 20
3.4877411249499346
 10
35.466881610457925
 20
3.488782315417861
 10
35.49198768966414
 20
3.4918990380211166
 10
35.810325890000016
 20
3.527937318000003
 10
35.65657352879735
 20
6.545242544926613
 10
35.22361994281715
 20
9.535279637238501
 10
34.69655973523578
 20
11.101253922207936
 10
33.96664509180727
 20
12.58358065047178
 10
33.0645451173957
 20
13.951842071440796
 10
31.891749539255194
 20
15.09660152286924
 10
30.84864187691201
 20
15.742707487203386
 10
29.702424477358182
 20
16.180556981313806
 10
28.494211497764383
 20
16.394444574394317
 10
23.815363342000012
 20
16.394444478000004
  0
LWPOLYLINE
  5
3B
330
17
100
AcDbEntity
  8
0
100
AcDbPolyline
 90
51
 70
1
 10
20.133729608000014
 20
14.497635216000003
 10
20.440363500657053
 20
14.53928894220199
 10
20.749500284000014
 20
14.553211090631283
 10
21.344764456117517
 20
14.50130317022027
 10
21.922059416221753
 20
14.347146091509478
 10
22.46395838807083
 20
14.095393474467855
 10
22.99562248478223
 20
13.546322332867925
 10
23.38884866649534
 20
12.890945350988149
 10
23.6231282938456
 20
12.163443547161426
 10
23.787645743862253
 20
12.134347228960817
 10
23.942703615329652
 20
12.072140703639466
 10
24.081714783905024
 20
11.979466595562474
 10
24.198773839879404
 20
11.86026184435287
 10
24.288907933281394
 20
11.71959045243839
 10
25.602633834000013
 20
7.841820486000002
 10
25.94992101230181
 20
6.4279532350930575
 10
26.066684795317816
 20
4.976748492000003
 10
26.066301690000014
 20
4.893367912000003
 10
27.06497127000001
 20
4.851756616000002
 10
27.065333220000014
 20
4.968946374000002
 10
26.971384842015258
 20
6.854611881524548
 10
26.690470219755234
 20
8.721600815341318
 10
25.883150904254883
 20
10.940002469754399
 10
24.953046544549725
 20
13.109789597901045
 10
24.531268438000016
 20
14.241930876
 10
24.40405709474668
 20
14.215526663406644
 10
24.274436592000015
 20
14.206670390900914
 10
24.08099395185662
 20
14.226509794555525
 10
23.895605520216893
 20
14.28520211362295
 10
23.725990159279405
 20
14.380303576479179
 10
23.57921000116457
 20
14.507854523504806
 10
23.461376407859504
 20
14.662544223201216
 10
23.37739551757919
 20
14.837931990651159
 10
23.33553683258722
 20
14.996382505761268
 10
23.321445040829502
 20
15.159661832
 10
23.339045939651886
 20
15.34197230211118
 10
23.3911983114692
 20
15.517548573606035
 10
23.47597580900204
 20
15.679905196231282
 10
23.590246914317117
 20
15.823045028172912
 10
23.729790672255735
 20
15.941680758956581
 10
23.88945260441052
 20
16.03143021254159
 10
23.171690004000013
 20
18.184718266
 10
23.172963052000014
 20
18.091831482
 10
23.110224554105613
 20
17.442750468038756
 10
22.92433193574848
 20
16.817701496962624
 10
22.62216781909795
 20
16.239826831994687
 10
22.086253588421553
 20
15.655582041306472
 10
21.440496180335863
 20
15.19564354404581
 10
20.713166707717868
 20
14.88014728476343
 10
19.93610744160889
 20
14.72290559717989
 10
19.95830628600001
 20
14.471318530000001
  0
LWPOLYLINE
  5
3C
330
17
100
AcDbEntity
  8
0
100
AcDbPolyline
 90
28
 70
1
 10
27.334949140000013
 20
4.009624442000001
 10
27.334949140000013
 20
0.9445117000000011
 10
28.37522976200001
 20
1.906771396000001
 10
29.424604998841076
 20
2.674779050023685
 10
30.612919899183947
 20
3.2029190333210193
 10
31.886177017641586
 20
3.467192480021868
 10
33.36325455796673
 20
3.586162641836526
 10
34.82311219598046
 20
3.8405789051074763
 10
34.71908423200001
 20
4.607785806000001
 10
34.65209594315268
 20
4.719507709327523
 10
34.565466627984385
 20
4.816793763206222
 10
34.46222954364757
 20
4.89623757318189
 10
34.34599945523479
 20
4.955057476899717
 10
34.2208460676297
 20
4.991193941817956
 10
34.09115152800001
 20
5.003381678115668
 10
34.047435033884625
 20
5.002007680905103
 10
34.003891102654435
 20
4.997891161160124
 10
33.50337978000001
 20
4.902160629999999
 10
33.5074071447029
 20
4.855775106357541
 10
33.50875109260287
 20
4.809234475999999
 10
33.491750254630546
 20
4.644510531963773
 10
33.44146439825779
 20
4.4867311298131245
 10
33.3600135335499
 20
4.342548038805567
 10
33.25083152038005
 20
4.21803982584619
 10
33.11852132687198
 20
4.118455591210327
 10
32.968660974400024
 20
4.0479936734735755
 10
32.80756837564423
 20
4.009624653154296
 10
27.424115840000017
 20
4.0096246959999995
  0
LWPOLYLINE
  5
3D
330
17
100
AcDbEntity
  8
0
100
AcDbPolyline
 90
39
 70
1
 10
27.13989619000002
 20
0.8005444999999995
 10
27.13989619000002
 20
4.70716991
 10
27.05308229200002
 20
4.728904436
 10
26.08215357600002
 20
4.728904436
 10
26.109894440000023
 20
2.622583782
 10
26.00898631258081
 20
2.2537831654717184
 10
25.845505612136318
 20
1.9081382530065243
 10
25.624430141289164
 20
1.5961735416678842
 10
25.484363814000023
 20
0.37663018399999987
 10
25.502251759032788
 20
0.2947758369589317
 10
25.535731856989468
 20
0.21796961489440034
 10
25.583523115033778
 20
0.14915022546411796
 10
25.64379697641327
 20
0.09095078954399456
 10
25.71424728345953
 20
0.04559809454025532
 10
25.934481638742565
 20
0.011430402773729068
 10
26.157057414000022
 20
1.099724385397849e-06
 10
26.629573615837757
 20
0.05199836809925219
 10
27.079475774954005
 20
0.2055018952477378
 10
27.485232128824716
 20
0.45316510793391584
 10
28.504505466120627
 20
1.3903903222648537
 10
29.600159758581167
 20
2.2370607890243943
 10
31.01071554627139
 20
2.8675041105017733
 10
32.52706373143194
 20
3.1638394005199895
 10
33.756981144561216
 20
3.2780958933976057
 10
34.97302375674748
 20
3.4948717028192666
 10
34.79611405000002
 20
4.67206076
 10
34.703419609489664
 20
4.805682149674963
 10
34.584430235189544
 20
4.9165354937105
 10
34.4445890618333
 20
4.9995498377393774
 10
34.29029308371027
 20
5.0509277144496405
 10
34.12860052600002
 20
5.068318857635523
 10
34.073843647631634
 20
5.066344579417131
 10
34.01937111442723
 20
5.060432187501463
 10
33.32151628800002
 20
4.926929439999999
 10
30.85360445328313
 20
4.76346247877146
 10
28.380885834000026
 20
4.708938161263713
 10
27.259745074000023
 20
4.720142706
 10
27.259745074000023
 20
4.657292438
 10
27.244419476000022
 20
0.888039626
  0
ENDSEC
  0
SECTION
  2
OBJECTS
  0
DICTIONARY
  5
A
330
0
100
AcDbDictionary
281
1
  3
ACAD_COLOR
350
B
  3
ACAD_GROUP
350
C
  3
ACAD_LAYOUT
350
D
  3
ACAD_MATERIAL
350
E
  3
ACAD_MLEADERSTYLE
350
F
  3
ACAD_MLINESTYLE
350
10
  3
ACAD_PLOTSETTINGS
350
11
  3
ACAD_PLOTSTYLENAME
350
12
  3
ACAD_SCALELIST
350
14
  3
ACAD_TABLESTYLE
350
15
  3
ACAD_VISUALSTYLE
350
16
  3
EZDXF_META
350
2D
  0
DICTIONARY
  5
B
330
A
100
AcDbDictionary
281
1
  0
DICTIONARY
  5
C
330
A
100
AcDbDictionary
281
1
  0
DICTIONARY
  5
D
330
A
100
AcDbDictionary
281
1
  3
Model
350
1A
  3
Layout1
350
1E
  0
DICTIONARY
  5
E
330
A
100
AcDbDictionary
281
1
  3
ByBlock
350
1F
  3
ByLayer
350
20
  3
Global
350
21
  0
DICTIONARY
  5
F
330
A
100
AcDbDictionary
281
1
  3
Standard
350
2C
  0
DICTIONARY
  5
10
330
A
100
AcDbDictionary
281
1
  3
Standard
350
22
  0
DICTIONARY
  5
11
330
A
100
AcDbDictionary
281
1
  0
ACDBDICTIONARYWDFLT
  5
12
330
A
100
AcDbDictionary
281
1
  3
Normal
350
13
100
AcDbDictionaryWithDefault
340
13
  0
ACDBPLACEHOLDER
  5
13
330
12
  0
DICTIONARY
  5
14
330
A
100
AcDbDictionary
281
1
  0
DICTIONARY
  5
15
330
A
100
AcDbDictionary
281
1
  0
DICTIONARY
  5
16
330
A
100
AcDbDictionary
281
1
  0
LAYOUT
  5
1A
330
D
100
AcDbPlotSettings
  1

  4
A3
  6

 40
7.5
 41
20.0
 42
7.5
 43
20.0
 44
420.0
 45
297.0
 46
0.0
 47
0.0
 48
0.0
 49
0.0
140
0.0
141
0.0
142
1.0
143
1.0
 70
1024
 72
1
 73
0
 74
5
  7

 75
16
 76
0
 77
2
 78
300
147
1.0
148
0.0
149
0.0
100
AcDbLayout
  1
Model
 70
1
 71
0
 10
0.0
 20
0.0
 11
420.0
 21
297.0
 12
0.0
 22
0.0
 32
0.0
 14
1e+20
 24
1e+20
 34
1e+20
 15
-1e+20
 25
-1e+20
 35
-1e+20
146
0.0
 13
0.0
 23
0.0
 33
0.0
 16
1.0
 26
0.0
 36
0.0
 17
0.0
 27
1.0
 37
0.0
 76
1
330
17
  0
LAYOUT
  5
1E
330
D
100
AcDbPlotSettings
  1

  4
A3
  6

 40
7.5
 41
20.0
 42
7.5
 43
20.0
 44
420.0
 45
297.0
 46
0.0
 47
0.0
 48
0.0
 49
0.0
140
0.0
141
0.0
142
1.0
143
1.0
 70
0
 72
1
 73
0
 74
5
  7

 75
16
 76
0
 77
2
 78
300
147
1.0
148
0.0
149
0.0
100
AcDbLayout
  1
Layout1
 70
1
 71
1
 10
0.0
 20
0.0
 11
420.0
 21
297.0
 12
0.0
 22
0.0
 32
0.0
 14
1e+20
 24
1e+20
 34
1e+20
 15
-1e+20
 25
-1e+20
 35
-1e+20
146
0.0
 13
0.0
 23
0.0
 33
0.0
 16
1.0
 26
0.0
 36
0.0
 17
0.0
 27
1.0
 37
0.0
 76
1
330
1B
  0
MATERIAL
  5
1F
102
{ACAD_REACTORS
330
E
102
}
330
E
100
AcDbMaterial
  1
ByBlock
  2

 70
0
 40
1.0
 71
1
 41
1.0
 91
-1023410177
 42
1.0
 72
1
  3

 73
1
 74
1
 75
1
 44
0.5
 73
0
 45
1.0
 46
1.0
 77
1
  4

 78
1
 79
1
170
1
 48
1.0
171
1
  6

172
1
173
1
174
1
140
1.0
141
1.0
175
1
  7

176
1
177
1
178
1
143
1.0
179
1
  8

270
1
271
1
272
1
145
1.0
146
1.0
273
1
  9

274
1
275
1
276
1
 42
1.0
 72
1
  3

 73
1
 74
1
 75
1
 94
63
  0
MATERIAL
  5
20
102
{ACAD_REACTORS
330
E
102
}
330
E
100
AcDbMaterial
  1
ByLayer
  2

 70
0
 40
1.0
 71
1
 41
1.0
 91
-1023410177
 42
1.0
 72
1
  3

 73
1
 74
1
 75
1
 44
0.5
 73
0
 45
1.0
 46
1.0
 77
1
  4

 78
1
 79
1
170
1
 48
1.0
171
1
  6

172
1
173
1
174
1
140
1.0
141
1.0
175
1
  7

176
1
177
1
178
1
143
1.0
179
1
  8

270
1
271
1
272
1
145
1.0
146
1.0
273
1
  9

274
1
275
1
276
1
 42
1.0
 72
1
  3

 73
1
 74
1
 75
1
 94
63
  0
MATERIAL
  5
21
102
{ACAD_REACTORS
330
E
102
}
330
E
100
AcDbMaterial
  1
Global
  2

 70
0
 40
1.0
 71
1
 41
1.0
 91
-1023410177
 42
1.0
 72
1
  3

 73
1
 74
1
 75
1
 44
0.5
 73
0
 45
1.0
 46
1.0
 77
1
  4

 78
1
 79
1
170
1
 48
1.0
171
1
  6

172
1
173
1
174
1
140
1.0
141
1.0
175
1
  7

176
1
177
1
178
1
143
1.0
179
1
  8

270
1
271
1
272
1
145
1.0
146
1.0
273
1
  9

274
1
275
1
276
1
 42
1.0
 72
1
  3

 73
1
 74
1
 75
1
 94
63
  0
MLINESTYLE
  5
22
102
{ACAD_REACTORS
330
10
102
}
330
10
100
AcDbMlineStyle
  2
Standard
 70
0
  3

 62
256
 51
90.0
 52
90.0
 71
2
 49
0.5
 62
256
  6
BYLAYER
 49
-0.5
 62
256
  6
BYLAYER
  0
MLEADERSTYLE
  5
2C
102
{ACAD_REACTORS
330
F
102
}
330
F
100
AcDbMLeaderStyle
179
2
170
2
171
1
172
0
 90
2
 40
0.0
 41
0.0
173
1
 91
-1056964608
 92
-2
290
1
 42
2.0
291
1
 43
8.0
  3
Standard
 44
4.0
300

342
29
174
1
175
1
176
0
178
1
 93
-1056964608
 45
4.0
292
0
297
0
 46
4.0
 94
-1056964608
 47
1.0
 49
1.0
140
1.0
294
1
141
0.0
177
0
142
1.0
295
0
296
0
143
3.75
271
0
272
9
273
9
  0
DICTIONARY
  5
2D
330
A
100
AcDbDictionary
280
1
281
1
  3
CREATED_BY_EZDXF
350
2E
  3
WRITTEN_BY_EZDXF
350
40
  0
DICTIONARYVAR
  5
2E
330
2D
100
DictionaryVariables
280
0
  1
1.4.3 @ 2026-04-12T00:41:30.594236+00:00
  0
DICTIONARYVAR
  5
40
330
2D
100
DictionaryVariables
280
0
  1
1.4.3 @ 2026-04-12T00:41:30.595878+00:00
  0
ENDSEC
  0
EOF
