  0
SECTION
  2
HEADER
  9
$ACADVER
  1
AC1024
  9
$ACADMAINTVER
 70
6
  9
$DWGCODEPAGE
  3
ANSI_1252
  9
$LASTSAVEDBY
  1
ezdxf
  9
$INSBASE
 10
0.0
 20
0.0
 30
0.0
  9
$EXTMIN
 10
1e+20
 20
1e+20
 30
1e+20
  9
$EXTMAX
 10
-1e+20
 20
-1e+20
 30
-1e+20
  9
$LIMMIN
 10
0.0
 20
0.0
  9
$LIMMAX
 10
420.0
 20
297.0
  9
$ORTHOMODE
 70
0
  9
$REGENMODE
 70
1
  9
$FILLMODE
 70
1
  9
$QTEXTMODE
 70
0
  9
$MIRRTEXT
 70
1
  9
$LTSCALE
 40
1.0
  9
$ATTMODE
 70
1
  9
$TEXTSIZE
 40
2.5
  9
$TRACEWID
 40
1.0
  9
$TEXTSTYLE
  7
Standard
  9
$CLAYER
  8
0
  9
$CELTYPE
  6
ByLayer
  9
$CECOLOR
 62
256
  9
$CELTSCALE
 40
1.0
  9
$DISPSILH
 70
0
  9
$DIMSCALE
 40
1.0
  9
$DIMASZ
 40
2.5
  9
$DIMEXO
 40
0.625
  9
$DIMDLI
 40
3.75
  9
$DIMRND
 40
0.0
  9
$DIMDLE
 40
0.0
  9
$DIMEXE
 40
1.25
  9
$DIMTP
 40
0.0
  9
$DIMTM
 40
0.0
  9
$DIMTXT
 40
2.5
  9
$DIMCEN
 40
2.5
  9
$DIMTSZ
 40
0.0
  9
$DIMTOL
 70
0
  9
$DIMLIM
 70
0
  9
$DIMTIH
 70
0
  9
$DIMTOH
 70
0
  9
$DIMSE1
 70
0
  9
$DIMSE2
 70
0
  9
$DIMTAD
 70
1
  9
$DIMZIN
 70
8
  9
$DIMBLK
  1

  9
$DIMASO
 70
1
  9
$DIMSHO
 70
1
  9
$DIMPOST
  1

  9
$DIMAPOST
  1

  9
$DIMALT
 70
0
  9
$DIMALTD
 70
3
  9
$DIMALTF
 40
0.03937007874
  9
$DIMLFAC
 40
1.0
  9
$DIMTOFL
 70
1
  9
$DIMTVP
 40
0.0
  9
$DIMTIX
 70
0
  9
$DIMSOXD
 70
0
  9
$DIMSAH
 70
0
  9
$DIMBLK1
  1

  9
$DIMBLK2
  1

  9
$DIMSTYLE
  2
ISO-25
  9
$DIMCLRD
 70
0
  9
$DIMCLRE
 70
0
  9
$DIMCLRT
 70
0
  9
$DIMTFAC
 40
1.0
  9
$DIMGAP
 40
0.625
  9
$DIMJUST
 70
0
  9
$DIMSD1
 70
0
  9
$DIMSD2
 70
0
  9
$DIMTOLJ
 70
0
  9
$DIMTZIN
 70
8
  9
$DIMALTZ
 70
0
  9
$DIMALTTZ
 70
0
  9
$DIMUPT
 70
0
  9
$DIMDEC
 70
2
  9
$DIMTDEC
 70
2
  9
$DIMALTU
 70
2
  9
$DIMALTTD
 70
3
  9
$DIMTXSTY
  7
Standard
  9
$DIMAUNIT
 70
0
  9
$DIMADEC
 70
0
  9
$DIMALTRND
 40
0.0
  9
$DIMAZIN
 70
0
  9
$DIMDSEP
 70
44
  9
$DIMATFIT
 70
3
  9
$DIMFRAC
 70
0
  9
$DIMLDRBLK
  1

  9
$DIMLUNIT
 70
2
  9
$DIMLWD
 70
-2
  9
$DIMLWE
 70
-2
  9
$DIMTMOVE
 70
0
  9
$DIMFXL
 40
1.0
  9
$DIMFXLON
 70
0
  9
$DIMJOGANG
 40
0.785398163397
  9
$DIMTFILL
 70
0
  9
$DIMTFILLCLR
 70
0
  9
$DIMARCSYM
 70
0
  9
$DIMLTYPE
  6

  9
$DIMLTEX1
  6

  9
$DIMLTEX2
  6

  9
$DIMTXTDIRECTION
 70
0
  9
$LUNITS
 70
2
  9
$LUPREC
 70
4
  9
$SKETCHINC
 40
1.0
  9
$FILLETRAD
 40
10.0
  9
$AUNITS
 70
0
  9
$AUPREC
 70
2
  9
$MENU
  1
.
  9
$ELEVATION
 40
0.0
  9
$PELEVATION
 40
0.0
  9
$THICKNESS
 40
0.0
  9
$LIMCHECK
 70
0
  9
$CHAMFERA
 40
0.0
  9
$CHAMFERB
 40
0.0
  9
$CHAMFERC
 40
0.0
  9
$CHAMFERD
 40
0.0
  9
$SKPOLY
 70
0
  9
$TDCREATE
 40
2461142.7371412036
  9
$TDUCREATE
 40
2458532.153996898
  9
$TDUPDATE
 40
2461142.7371412036
  9
$TDUUPDATE
 40
2458532.1544311
  9
$TDINDWG
 40
0.0
  9
$TDUSRTIMER
 40
0.0
  9
$USRTIMER
 70
1
  9
$ANGBASE
 50
0.0
  9
$ANGDIR
 70
0
  9
$PDMODE
 70
0
  9
$PDSIZE
 40
0.0
  9
$PLINEWID
 40
0.0
  9
$SPLFRAME
 70
0
  9
$SPLINETYPE
 70
6
  9
$SPLINESEGS
 70
8
  9
$HANDSEED
  5
46
  9
$SURFTAB1
 70
6
  9
$SURFTAB2
 70
6
  9
$SURFTYPE
 70
6
  9
$SURFU
 70
6
  9
$SURFV
 70
6
  9
$UCSBASE
  2

  9
$UCSNAME
  2

  9
$UCSORG
 10
0.0
 20
0.0
 30
0.0
  9
$UCSXDIR
 10
1.0
 20
0.0
 30
0.0
  9
$UCSYDIR
 10
0.0
 20
1.0
 30
0.0
  9
$UCSORTHOREF
  2

  9
$UCSORTHOVIEW
 70
0
  9
$UCSORGTOP
 10
0.0
 20
0.0
 30
0.0
  9
$UCSORGBOTTOM
 10
0.0
 20
0.0
 30
0.0
  9
$UCSORGLEFT
 10
0.0
 20
0.0
 30
0.0
  9
$UCSORGRIGHT
 10
0.0
 20
0.0
 30
0.0
  9
$UCSORGFRONT
 10
0.0
 20
0.0
 30
0.0
  9
$UCSORGBACK
 10
0.0
 20
0.0
 30
0.0
  9
$PUCSBASE
  2

  9
$PUCSNAME
  2

  9
$PUCSORG
 10
0.0
 20
0.0
 30
0.0
  9
$PUCSXDIR
 10
1.0
 20
0.0
 30
0.0
  9
$PUCSYDIR
 10
0.0
 20
1.0
 30
0.0
  9
$PUCSORTHOREF
  2

  9
$PUCSORTHOVIEW
 70
0
  9
$PUCSORGTOP
 10
0.0
 20
0.0
 30
0.0
  9
$PUCSORGBOTTOM
 10
0.0
 20
0.0
 30
0.0
  9
$PUCSORGLEFT
 10
0.0
 20
0.0
 30
0.0
  9
$PUCSORGRIGHT
 10
0.0
 20
0.0
 30
0.0
  9
$PUCSORGFRONT
 10
0.0
 20
0.0
 30
0.0
  9
$PUCSORGBACK
 10
0.0
 20
0.0
 30
0.0
  9
$USERI1
 70
0
  9
$USERI2
 70
0
  9
$USERI3
 70
0
  9
$USERI4
 70
0
  9
$USERI5
 70
0
  9
$USERR1
 40
0.0
  9
$USERR2
 40
0.0
  9
$USERR3
 40
0.0
  9
$USERR4
 40
0.0
  9
$USERR5
 40
0.0
  9
$WORLDVIEW
 70
1
  9
$SHADEDGE
 70
3
  9
$SHADEDIF
 70
70
  9
$TILEMODE
 70
1
  9
$MAXACTVP
 70
64
  9
$PINSBASE
 10
0.0
 20
0.0
 30
0.0
  9
$PLIMCHECK
 70
0
  9
$PEXTMIN
 10
1e+20
 20
1e+20
 30
1e+20
  9
$PEXTMAX
 10
-1e+20
 20
-1e+20
 30
-1e+20
  9
$PLIMMIN
 10
0.0
 20
0.0
  9
$PLIMMAX
 10
420.0
 20
297.0
  9
$UNITMODE
 70
0
  9
$VISRETAIN
 70
1
  9
$PLINEGEN
 70
0
  9
$PSLTSCALE
 70
1
  9
$TREEDEPTH
 70
3020
  9
$CMLSTYLE
  2
Standard
  9
$CMLJUST
 70
0
  9
$CMLSCALE
 40
20.0
  9
$PROXYGRAPHICS
 70
1
  9
$MEASUREMENT
 70
1
  9
$CELWEIGHT
370
-1
  9
$ENDCAPS
280
0
  9
$JOINSTYLE
280
0
  9
$LWDISPLAY
290
0
  9
$INSUNITS
 70
4
  9
$HYPERLINKBASE
  1

  9
$STYLESHEET
  1

  9
$XEDIT
290
1
  9
$CEPSNTYPE
380
0
  9
$PSTYLEMODE
290
1
  9
$FINGERPRINTGUID
  2
{29AF392B-0B5C-477E-9DDE-CC8AF5BD4CE4}
  9
$VERSIONGUID
  2
{0154C63C-E6BE-4BE3-A347-215AFECC053C}
  9
$EXTNAMES
290
1
  9
$PSVPSCALE
 40
0.0
  9
$OLESTARTUP
290
0
  9
$SORTENTS
280
127
  9
$INDEXCTL
280
0
  9
$HIDETEXT
280
1
  9
$XCLIPFRAME
280
1
  9
$HALOGAP
280
0
  9
$OBSCOLOR
 70
257
  9
$OBSLTYPE
280
0
  9
$INTERSECTIONDISPLAY
280
0
  9
$INTERSECTIONCOLOR
 70
257
  9
$DIMASSOC
280
2
  9
$PROJECTNAME
  1

  9
$CAMERADISPLAY
290
0
  9
$LENSLENGTH
 40
50.0
  9
$CAMERAHEIGHT
 40
0.0
  9
$STEPSPERSEC
 40
24.0
  9
$STEPSIZE
 40
100.0
  9
$3DDWFPREC
 40
2.0
  9
$PSOLWIDTH
 40
0.005
  9
$PSOLHEIGHT
 40
0.08
  9
$LOFTANG1
 40
1.570796326795
  9
$LOFTANG2
 40
1.570796326795
  9
$LOFTMAG1
 40
0.0
  9
$LOFTMAG2
 40
0.0
  9
$LOFTPARAM
 70
7
  9
$LOFTNORMALS
280
1
  9
$LATITUDE
 40
37.795
  9
$LONGITUDE
 40
-122.394
  9
$NORTHDIRECTION
 40
0.0
  9
$TIMEZONE
 70
-8000
  9
$LIGHTGLYPHDISPLAY
280
1
  9
$TILEMODELIGHTSYNCH
280
1
  9
$CMATERIAL
347
20
  9
$SOLIDHIST
280
0
  9
$SHOWHIST
280
1
  9
$DWFFRAME
280
2
  9
$DGNFRAME
280
2
  9
$REALWORLDSCALE
290
1
  9
$INTERFERECOLOR
 62
256
  9
$CSHADOW
280
0
  9
$SHADOWPLANELOCATION
 40
0.0
  0
ENDSEC
  0
SECTION
  2
CLASSES
  0
CLASS
  1
ACDBDICTIONARYWDFLT
  2
AcDbDictionaryWithDefault
  3
ObjectDBX Classes
 90
0
 91
0
280
0
281
0
  0
CLASS
  1
SUN
  2
AcDbSun
  3
SCENEOE
 90
1153
 91
0
280
0
281
0
  0
CLASS
  1
VISUALSTYLE
  2
AcDbVisualStyle
  3
ObjectDBX Classes
 90
4095
 91
0
280
0
281
0
  0
CLASS
  1
MATERIAL
  2
AcDbMaterial
  3
ObjectDBX Classes
 90
1153
 91
0
280
0
281
0
  0
CLASS
  1
SCALE
  2
AcDbScale
  3
ObjectDBX Classes
 90
1153
 91
0
280
0
281
0
  0
CLASS
  1
TABLESTYLE
  2
AcDbTableStyle
  3
ObjectDBX Classes
 90
4095
 91
0
280
0
281
0
  0
CLASS
  1
MLEADERSTYLE
  2
AcDbMLeaderStyle
  3
ACDB_MLEADERSTYLE_CLASS
 90
4095
 91
0
280
0
281
0
  0
CLASS
  1
DICTIONARYVAR
  2
AcDbDictionaryVar
  3
ObjectDBX Classes
 90
0
 91
0
280
0
281
0
  0
CLASS
  1
CELLSTYLEMAP
  2
AcDbCellStyleMap
  3
ObjectDBX Classes
 90
1152
 91
0
280
0
281
0
  0
CLASS
  1
MENTALRAYRENDERSETTINGS
  2
AcDbMentalRayRenderSettings
  3
SCENEOE
 90
1024
 91
0
280
0
281
0
  0
CLASS
  1
ACDBDETAILVIEWSTYLE
  2
AcDbDetailViewStyle
  3
ObjectDBX Classes
 90
1025
 91
0
280
0
281
0
  0
CLASS
  1
ACDBSECTIONVIEWSTYLE
  2
AcDbSectionViewStyle
  3
ObjectDBX Classes
 90
1025
 91
0
280
0
281
0
  0
CLASS
  1
RASTERVARIABLES
  2
AcDbRasterVariables
  3
ISM
 90
0
 91
0
280
0
281
0
  0
CLASS
  1
ACDBPLACEHOLDER
  2
AcDbPlaceHolder
  3
ObjectDBX Classes
 90
0
 91
0
280
0
281
0
  0
CLASS
  1
LAYOUT
  2
AcDbLayout
  3
ObjectDBX Classes
 90
0
 91
0
280
0
281
0
  0
ENDSEC
  0
SECTION
  2
TABLES
  0
TABLE
  2
VPORT
  5
8
330
0
100
AcDbSymbolTable
 70
1
  0
VPORT
  5
23
330
8
100
AcDbSymbolTableRecord
100
AcDbViewportTableRecord
  2
*Active
 70
0
 10
0.0
 20
0.0
 11
1.0
 21
1.0
 12
0.0
 22
0.0
 13
0.0
 23
0.0
 14
0.5
 24
0.5
 15
0.5
 25
0.5
 16
0.0
 26
0.0
 36
1.0
 17
0.0
 27
0.0
 37
0.0
 40
1000.0
 41
1.34
 42
50.0
 43
0.0
 44
0.0
 50
0.0
 51
0.0
 71
0
 72
1000
 73
1
 74
3
 75
0
 76
0
 77
0
 78
0
281
0
 65
0
146
0.0
  0
ENDTAB
  0
TABLE
  2
LTYPE
  5
2
330
0
100
AcDbSymbolTable
 70
3
  0
LTYPE
  5
24
330
2
100
AcDbSymbolTableRecord
100
AcDbLinetypeTableRecord
  2
ByBlock
 70
0
  3

 72
65
 73
0
 40
0.0
  0
LTYPE
  5
25
330
2
100
AcDbSymbolTableRecord
100
AcDbLinetypeTableRecord
  2
ByLayer
 70
0
  3

 72
65
 73
0
 40
0.0
  0
LTYPE
  5
26
330
2
100
AcDbSymbolTableRecord
100
AcDbLinetypeTableRecord
  2
Continuous
 70
0
  3

 72
65
 73
0
 40
0.0
  0
ENDTAB
  0
TABLE
  2
LAYER
  5
1
330
0
100
AcDbSymbolTable
 70
2
  0
LAYER
  5
27
330
1
100
AcDbSymbolTableRecord
100
AcDbLayerTableRecord
  2
0
 70
0
 62
7
  6
Continuous
370
-3
390
13
347
21
  0
LAYER
  5
28
330
1
100
AcDbSymbolTableRecord
100
AcDbLayerTableRecord
  2
Defpoints
 70
0
 62
7
  6
Continuous
290
0
370
-3
390
13
347
21
  0
ENDTAB
  0
TABLE
  2
STYLE
  5
5
330
0
100
AcDbSymbolTable
 70
1
  0
STYLE
  5
29
330
5
100
AcDbSymbolTableRecord
100
AcDbTextStyleTableRecord
  2
Standard
 70
0
 40
0.0
 41
1.0
 50
0.0
 71
0
 42
2.5
  3
txt
  4

  0
ENDTAB
  0
TABLE
  2
VIEW
  5
7
330
0
100
AcDbSymbolTable
 70
0
  0
ENDTAB
  0
TABLE
  2
UCS
  5
6
330
0
100
AcDbSymbolTable
 70
0
  0
ENDTAB
  0
TABLE
  2
APPID
  5
3
330
0
100
AcDbSymbolTable
 70
3
  0
APPID
  5
2A
330
3
100
AcDbSymbolTableRecord
100
AcDbRegAppTableRecord
  2
ACAD
 70
0
  0
APPID
  5
43
330
3
100
AcDbSymbolTableRecord
100
AcDbRegAppTableRecord
  2
HATCHBACKGROUNDCOLOR
 70
0
  0
APPID
  5
44
330
3
100
AcDbSymbolTableRecord
100
AcDbRegAppTableRecord
  2
EZDXF
 70
0
  0
ENDTAB
  0
TABLE
  2
DIMSTYLE
  5
4
330
0
100
AcDbSymbolTable
 70
1
100
AcDbDimStyleTable
  0
DIMSTYLE
105
2B
330
4
100
AcDbSymbolTableRecord
100
AcDbDimStyleTableRecord
  2
Standard
 70
0
 40
1.0
 41
2.5
 42
0.625
 43
3.75
 44
1.25
 45
0.0
 46
0.0
 47
0.0
 48
0.0
 49
2.5
140
2.5
141
2.5
142
0.0
143
0.03937007874
144
1.0
145
0.0
146
1.0
147
0.625
148
0.0
 69
0
 70
0
 71
0
 72
0
 73
0
 74
0
 75
0
 76
0
 77
1
 78
8
 79
3
170
0
171
3
172
1
173
0
174
0
175
0
176
0
177
0
178
0
179
2
271
2
272
2
273
2
274
3
275
0
276
0
277
2
278
44
279
0
280
0
281
0
282
0
283
0
284
8
285
0
286
0
288
0
289
3
290
0
371
-2
372
-2
  0
ENDTAB
  0
TABLE
  2
BLOCK_RECORD
  5
9
330
0
100
AcDbSymbolTable
 70
2
  0
BLOCK_RECORD
  5
17
330
9
100
AcDbSymbolTableRecord
100
AcDbBlockTableRecord
  2
*Model_Space
340
1A
 70
0
280
1
281
0
  0
BLOCK_RECORD
  5
1B
330
9
100
AcDbSymbolTableRecord
100
AcDbBlockTableRecord
  2
*Paper_Space
340
1E
 70
0
280
1
281
0
  0
ENDTAB
  0
ENDSEC
  0
SECTION
  2
BLOCKS
  0
BLOCK
  5
18
330
17
100
AcDbEntity
  8
0
100
AcDbBlockBegin
  2
*Model_Space
 70
0
 10
0.0
 20
0.0
 30
0.0
  3
*Model_Space
  1

  0
ENDBLK
  5
19
330
17
100
AcDbEntity
  8
0
100
AcDbBlockEnd
  0
BLOCK
  5
1C
330
1B
100
AcDbEntity
  8
0
100
AcDbBlockBegin
  2
*Paper_Space
 70
0
 10
0.0
 20
0.0
 30
0.0
  3
*Paper_Space
  1

  0
ENDBLK
  5
1D
330
1B
100
AcDbEntity
  8
0
100
AcDbBlockEnd
  0
ENDSEC
  0
SECTION
  2
ENTITIES
  0
LWPOLYLINE
  5
2F
330
17
100
AcDbEntity
  8
0
100
AcDbPolyline
 90
39
 70
1
 10
32.612997512
 20
21.81688804
 10
32.651610592
 20
21.734835118
 10
34.036698246
 20
21.734835118
 10
33.874499688
 20
21.293704428
 10
35.168896134
 20
21.293704428
 10
35.04356085
 20
21.736834098000003
 10
36.237931333999995
 20
21.736834098000003
 10
36.488601648
 20
21.486163784000002
 10
36.589617956000005
 20
21.355986752000003
 10
37.075846600000006
 20
18.175070330000004
 10
0.8670754820000052
 20
18.175070330000004
 10
0.8922159380410994
 20
18.293598516992393
 10
0.9006505886323558
 20
18.414469648000004
 10
0.9002161261677301
 20
18.441961720896323
 10
0.8989135222253113
 20
18.46942635181333
 10
0.46113928600000503
 20
20.785651342
 10
0.3716645914622483
 20
20.883978581761294
 10
0.2640321540527064
 20
20.96201207110388
 10
0.14275786712779057
 20
21.016477788509903
 10
0.157521656000005
 20
21.790827132000004
 10
1.070694074000005
 20
21.790827132000004
 10
0.961762872000005
 20
21.475526772000002
 10
2.134867206000005
 20
21.475526772000002
 10
2.0845912080000053
 20
21.793940918
 10
15.098817148000006
 20
21.793940918
 10
15.206514762518552
 20
21.715948261288723
 10
15.326382330793432
 20
21.658386149185922
 10
15.454586105789403
 20
21.62309560157539
 10
15.587025722000005
 20
21.611205322694826
 10
15.619537198344739
 20
21.611916322890142
 10
15.651986485185002
 20
21.6140483612716
 10
20.652793848
 20
21.614048466000003
 10
20.68087836514971
 20
21.612206862182127
 10
20.709016494000004
 20
21.611592604126646
 10
20.84040652368242
 20
21.625121321097133
 10
20.96628296020291
 20
21.665139948595126
 10
21.08136358038728
 20
21.729969098488528
 10
21.180819191928837
 20
21.81688830897054
 10
32.543239714
 20
21.816888294
  0
LWPOLYLINE
  5
30
330
17
100
AcDbEntity
  8
0
100
AcDbPolyline
 90
24
 70
1
 10
0.9079003939999994
 20
17.953047152000003
 10
37.078854467999996
 20
17.953047152000003
 10
37.20604192
 20
16.837244964000003
 10
36.991831274000006
 20
16.656504914000003
 10
29.860527528000006
 20
16.656504914000003
 10
29.800830924000003
 20
16.716201518000005
 10
28.970214856000005
 20
16.716201518000005
 10
27.557764036000005
 20
16.655954750000006
 10
20.779504288000005
 20
16.655954750000006
 10
20.779504288000005
 20
17.059341802000006
 10
18.564772624000007
 20
17.059341802000006
 10
18.564772624000007
 20
16.655954750000006
 10
10.386166426000006
 20
16.655954750000006
 10
10.155296946815286
 20
16.866168515583
 10
9.88551636595713
 20
17.023359424516823
 10
9.588794409849294
 20
17.12055317134831
 10
9.278296150000006
 20
17.153437427310237
 10
8.967797901736363
 20
17.12055311726509
 10
8.671075956700133
 20
17.023359374060202
 10
8.401295385908321
 20
16.866168470991653
 10
8.170425915338049
 20
16.65595471325238
 10
5.106096468000005
 20
16.655954750000006
 10
4.209089880000006
 20
17.702248568000005
 10
0.9069219860000057
 20
17.702248568000005
  0
LWPOLYLINE
  5
31
330
17
100
AcDbEntity
  8
0
100
AcDbPolyline
 90
9
 70
1
 10
25.735690718000008
 20
21.779731650000006
 10
25.94815892400001
 20
20.680967274000004
 10
26.320899860000008
 20
18.196766756000006
 10
33.80530246800001
 20
18.196766756000006
 10
33.41313942200001
 20
21.053744786000006
 10
33.24316490800001
 20
21.697220004000005
 10
32.630042182000004
 20
21.697220004000005
 10
32.599689690000005
 20
21.782207388000007
 10
25.73521192800001
 20
21.782207388000007
  0
LWPOLYLINE
  5
32
330
17
100
AcDbEntity
  8
0
100
AcDbPolyline
 90
4
 70
1
 10
20.43451158200001
 20
20.205357354000007
 10
23.21293960400001
 20
20.205357354000007
 10
23.21293960400001
 20
18.971830992000005
 10
20.43451158200001
 20
18.971830992000005
  0
LWPOLYLINE
  5
33
330
17
100
AcDbEntity
  8
0
100
AcDbPolyline
 90
23
 70
1
 10
7.610232430000008
 20
20.300780074000006
 10
9.870923870000007
 20
20.300780074000006
 10
9.870923870000007
 20
20.561629184000008
 10
10.961746936000008
 20
20.561629184000008
 10
10.961746936000008
 20
19.779082108000008
 10
11.712675838000006
 20
19.779082108000008
 10
11.712675838000006
 20
20.13478523200001
 10
12.929971346000006
 20
20.13478523200001
 10
13.001111920000007
 20
20.13478523200001
 10
13.001111920000007
 20
18.988630552000007
 10
11.712675838000006
 20
18.988630552000007
 10
11.712675838000006
 20
19.328524716000008
 10
10.582330118000007
 20
19.328524716000008
 10
10.582330118000007
 20
18.89377628400001
 10
9.776069602000009
 20
18.89377628400001
 10
10.029014232000009
 20
18.640831654000007
 10
9.00933174000001
 20
18.640831654000007
 10
8.52715617400001
 20
19.12300722000001
 10
8.32954315800001
 20
18.925394204000007
 10
7.47585550800001
 20
18.925394204000007
 10
7.47585550800001
 20
19.11510248600001
 10
7.934317380000009
 20
19.57356435800001
 10
7.61023217600001
 20
19.89764956200001
  0
LWPOLYLINE
  5
34
330
17
100
AcDbEntity
  8
0
100
AcDbPolyline
 90
20
 70
1
 10
0.09485325200000996
 20
20.94300789800001
 10
0.15979627434482555
 20
20.93406765651395
 10
0.22181591639602602
 20
20.912828822531143
 10
0.2786060052236947
 20
20.880081152689552
 10
0.32805482651909995
 20
20.837042354592914
 10
0.36832364775628457
 20
20.78531280689263
 10
0.3979150906469285
 20
20.726816049916213
 10
0.41572881048902194
 20
20.663727259671862
 10
0.86138943800001
 20
18.358176136000008
 10
0.76631520600001
 20
18.22744894000001
 10
0.762504647254067
 20
18.19801459091173
 10
0.7612313362576084
 20
18.16836193600001
 10
0.7679349573970923
 20
18.100592335369544
 10
0.7877858182331564
 20
18.035449416881924
 10
0.820014578936814
 20
17.975458055099388
 10
0.86755173200001
 20
17.93980511600001
 10
0.86755173200001
 20
17.66052449600001
 10
0.29710608600001
 20
17.58921882200001
 10
-1.0159999900465344e-06
 20
17.77342521000001
 10
-1.0159999900465344e-06
 20
20.75616041800001
  0
LWPOLYLINE
  5
35
330
17
100
AcDbEntity
  8
0
100
AcDbPolyline
 90
34
 70
1
 10
18.70145993000001
 20
16.53166416800001
 10
15.66847336200001
 20
16.53166416800001
 10
15.648478990000008
 20
16.53234184000001
 10
15.590878507316486
 20
16.526668683204065
 10
15.53549158229768
 20
16.509867229386998
 10
15.484446706697275
 20
16.4825831499936
 10
15.439705509487213
 20
16.44586495851286
 10
15.402987299049048
 20
16.40112378168013
 10
15.375703238108008
 20
16.350078893920198
 10
15.35890179633777
 20
16.29469196313053
 10
15.353228643723211
 20
16.23709147800001
 10
15.353906300000009
 20
16.21709710600001
 10
15.461891860000009
 20
15.334432374000013
 10
15.490092150722674
 20
15.250476043891393
 10
15.534239425791904
 20
15.173697532144212
 10
15.592612423044365
 20
15.107090363206366
 10
15.662935232327643
 20
15.05325149010655
 10
15.74246603117027
 20
15.01428004161405
 10
15.828103985949948
 20
14.99169547911432
 10
18.58408399000001
 20
14.991695442000012
 10
18.69091164825874
 20
15.003145418639686
 10
18.793565193280724
 20
15.03485504223434
 10
18.888239540780994
 20
15.085648924341262
 10
18.971425373358148
 20
15.153644275598086
 10
19.040039221228447
 20
15.236320695540691
 10
19.091537757961166
 20
15.330613596909155
 10
19.124012074587036
 20
15.433027801459971
 10
19.01602648400001
 20
16.203012044000012
 10
19.00366502688471
 20
16.27215898811412
 10
18.97810454149565
 20
16.337586559435465
 10
18.940319186215415
 20
16.396801189626654
 10
18.89174903231121
 20
16.44754609727319
 10
18.834245180098563
 20
16.48788729808625
 10
18.769999210011523
 20
16.51628731269732
  0
LWPOLYLINE
  5
36
330
17
100
AcDbEntity
  8
0
100
AcDbPolyline
 90
30
 70
1
 10
29.532883784000017
 20
16.57993458200001
 10
27.340160204000018
 20
16.57993458200001
 10
27.329214074000017
 20
16.580219824000014
 10
27.28821545103508
 20
16.57618181651087
 10
27.248792378740486
 20
16.564222972070077
 10
27.212459860389252
 20
16.544802861365934
 10
27.180614131257204
 20
16.518667786742895
 10
27.15447907001281
 20
16.486822040961012
 10
27.13505894023631
 20
16.450489533609307
 10
27.123100083366896
 20
16.41106646582692
 10
27.119062071567456
 20
16.370067844000015
 10
27.119347336000025
 20
16.35912171400002
 10
27.206645358000024
 20
15.737764308000019
 10
27.256499976378734
 20
15.650735109446064
 10
27.321970778748327
 20
15.574753938017139
 10
27.400676216174837
 20
15.512584665107347
 10
27.48975332007048
 20
15.466488744070936
 10
27.585961844796806
 20
15.43814294818136
 10
27.685802134000024
 20
15.428578376761367
 10
27.726210706455408
 20
15.43013329504861
 10
27.766380335050723
 20
15.43478851632542
 10
29.414774546000025
 20
15.434788536000017
 10
29.500731051736853
 20
15.465499760039013
 10
29.578900606288837
 20
15.512629590312462
 10
29.646185144156792
 20
15.574310147413994
 10
29.699918001745253
 20
15.64809686827783
 10
29.73796960427001
 20
15.731065390656848
 10
29.758831866420273
 20
15.819927453306965
 10
29.73829104400002
 20
15.989388646000018
 10
29.66848006344683
 20
16.296102647281987
  0
LWPOLYLINE
  5
37
330
17
100
AcDbEntity
  8
0
100
AcDbPolyline
 90
40
 70
1
 10
32.95376924600002
 20
12.839490704000019
 10
32.88594159219073
 20
12.832796301681526
 10
32.8207220878001
 20
12.813001810258061
 10
32.76061559984863
 20
12.780867471151542
 10
32.70793062118358
 20
12.73762745881646
 10
32.6646906088485
 20
12.684942480151417
 10
32.632556269741976
 20
12.624835992199941
 10
32.612761778318514
 20
12.559616487809304
 10
32.60606737600002
 20
12.491788834000019
 10
32.60481937586367
 20
12.47470152657049
 10
32.604403048034584
 20
12.45757376400002
 10
32.6116389811783
 20
12.386515452767734
 10
32.6330493826065
 20
12.318374163535587
 10
32.66775545170636
 20
12.255947171335329
 10
32.71433246608655
 20
12.201797173006955
 10
32.77086838796724
 20
12.15814708566871
 10
32.82923155150503
 20
12.128988375527065
 10
32.891968426721235
 20
12.111083822019232
 10
32.956930276000016
 20
12.10504671290242
 10
33.02189213576448
 20
12.111083766091298
 10
33.084629021107226
 20
12.128988322489157
 10
33.1429921640328
 20
12.15814708566871
 10
33.199528046755084
 20
12.20179721429258
 10
33.24610505361715
 20
12.255947203880448
 10
33.28081111711501
 20
12.318374186004188
 10
33.30222151508729
 20
12.386515464237457
 10
33.30945732709762
 20
12.45757376400002
 10
33.30904105661151
 20
12.47470152077102
 10
33.307793057794456
 20
12.491788822472978
 10
33.30934323639574
 20
12.509758761652884
 10
33.30986049039694
 20
12.527788000000019
 10
33.303679090705145
 20
12.589832384456233
 10
33.28537792688061
 20
12.649437607747133
 10
33.25567646721188
 20
12.704260399854409
 10
33.21574237010369
 20
12.752145503269194
 10
33.168330317747746
 20
12.790434017494565
 10
33.11442348676524
 20
12.818858751849827
 10
33.05604631979291
 20
12.836352131341199
 10
32.995391210000015
 20
12.842257180515894
 10
32.9745344336958
 20
12.841564860068452
  0
LWPOLYLINE
  5
38
330
17
100
AcDbEntity
  8
0
100
AcDbPolyline
 90
40
 70
1
 10
19.727375074000022
 20
15.072363302000017
 10
19.636820080862176
 20
15.063425725370626
 10
19.54974716782393
 20
15.036998563713817
 10
19.469500514418474
 20
14.994096795971373
 10
19.3991621263645
 20
14.936368135635538
 10
19.34143346602867
 20
14.866029747581566
 10
19.298531698286222
 20
14.785783094176114
 10
19.272104536629413
 20
14.698710181137864
 10
19.263166960000024
 20
14.608155188000019
 10
19.261500792687396
 20
14.5853423861557
 10
19.26094496597119
 20
14.562475574000018
 10
19.270605323404993
 20
14.467607369729594
 10
19.29918982145294
 20
14.376633609120328
 10
19.345525037200424
 20
14.293288864656867
 10
19.407708859306297
 20
14.22099452935769
 10
19.483188573785004
 20
14.162718364845446
 10
19.561107817895447
 20
14.123789279483736
 10
19.64486629603648
 20
14.09988534091894
 10
19.731595284000026
 20
14.091825341773168
 10
19.81832428740086
 20
14.099885258580423
 10
19.90208278045044
 20
14.12378920139999
 10
19.980001994215048
 20
14.162718364845446
 10
20.055481651043763
 20
14.220994590139426
 10
20.117665462081263
 20
14.293288912570612
 10
20.16400066958133
 20
14.376633642199169
 10
20.192585162541395
 20
14.46760738661561
 10
20.202245516226878
 20
14.562475574000018
 10
20.201689773286223
 20
14.585342386057128
 10
20.20002360598078
 20
14.608155187803108
 10
20.202093057592162
 20
14.632146408816284
 10
20.202783631382648
 20
14.656216814000018
 10
20.19453094169078
 20
14.739050776152448
 10
20.170097488080653
 20
14.81862827006607
 10
20.130443768452896
 20
14.891820849693886
 10
20.077128697474425
 20
14.95575108041028
 10
20.013830164046198
 20
15.006869257738622
 10
19.941860475420697
 20
15.04481840296779
 10
19.86392255693067
 20
15.068173371730715
 10
19.78294341600003
 20
15.076057053523567
 10
19.75509805740733
 20
15.075132802480056
  0
LWPOLYLINE
  5
39
330
17
100
AcDbEntity
  8
0
100
AcDbPolyline
 90
40
 70
1
 10
21.71491516800003
 20
15.93936969600002
 10
21.655507656313098
 20
15.93350631219629
 10
21.598384520671278
 20
15.916169095323069
 10
21.545739670365705
 20
15.888023910108426
 10
21.499595018670536
 20
15.850151719329514
 10
21.461722827891624
 20
15.804007067634345
 10
21.43357764267698
 20
15.751362217328772
 10
21.41624042580376
 20
15.694239081686952
 10
21.41037704200003
 20
15.634831570000019
 10
21.409283964047276
 20
15.619865445625628
 10
21.40891931763488
 20
15.604863888000018
 10
21.415256896006955
 20
15.542626748245944
 10
21.434009412209118
 20
15.482944511628194
 10
21.464407073161965
 20
15.428267199695313
 10
21.505202021402695
 20
15.380839376325
 10
21.55471957937354
 20
15.342608005904701
 10
21.60583758016436
 20
15.317069139228202
 10
21.660786291302582
 20
15.301387259081961
 10
21.71768376800003
 20
15.296099597393079
 10
21.774581270752655
 20
15.30138712011029
 10
21.829530007053656
 20
15.317069007437766
 10
21.880647956626518
 20
15.342608005904703
 10
21.930165417295203
 20
15.380839478912955
 10
21.970960346854632
 20
15.428267280564558
 10
22.00135799388742
 20
15.482944567458956
 10
22.02011050150221
 20
15.542626776746312
 10
22.026448058606967
 20
15.604863888000018
 10
22.026083553609325
 20
15.619865444733342
 10
22.024990475721584
 20
15.634831568217557
 10
22.02634813460384
 20
15.650570740937457
 10
22.026801178265128
 20
15.66636186000002
 10
22.02138721841263
 20
15.720704089318417
 10
22.00535793713383
 20
15.772909949863843
 10
21.979343579048116
 20
15.820927060428636
 10
21.944366852700213
 20
15.86286771311296
 10
21.902840541883958
 20
15.896403142653591
 10
21.855625678117757
 20
15.92129924333057
 10
21.804495424026683
 20
15.936621002562484
 10
21.75137001000003
 20
15.94179300158372
 10
21.733102366435936
 20
15.941186398126018
  0
LWPOLYLINE
  5
3A
330
17
100
AcDbEntity
  8
0
100
AcDbPolyline
 90
36
 70
1
 10
23.77764764400003
 20
12.09002611200002
 10
23.737030180720595
 20
12.08601728164202
 10
23.697974564239566
 20
12.074163680274424
 10
23.66198079267923
 20
12.054920565844643
 10
23.63043126874167
 20
12.029027003258376
 10
23.60453770615541
 20
11.99747747932082
 10
23.585294591725624
 20
11.961483707760484
 10
23.573440990358034
 20
11.922428091279453
 10
23.569432160000026
 20
11.88181062800002
 10
23.568435464000032
 20
11.861321464000019
 10
23.572768508341007
 20
11.81876938680102
 10
23.585589765194936
 20
11.777964118514976
 10
23.60637290806446
 20
11.740580759654707
 10
23.63426476639731
 20
11.708153937640352
 10
23.668120349162695
 20
11.682014808679597
 10
23.703070125036152
 20
11.66455347579959
 10
23.740639093017286
 20
11.653831617608194
 10
23.77954045200003
 20
11.650216390431412
 10
23.81844179521463
 20
11.653831701711418
 10
23.856010747967687
 20
11.664553555556852
 10
23.890960554837363
 20
11.682014808679595
 10
23.924816196488322
 20
11.708153875555924
 10
23.952708066126768
 20
11.740580710714063
 10
23.97349121742046
 20
11.77796408472718
 10
23.98631247947132
 20
11.818769369553099
 10
23.990645525568635
 20
11.861321464000019
 10
23.98964874400003
 20
11.88181062800002
 10
23.99088674000003
 20
11.903368116000019
 10
23.987185113450703
 20
11.940522368628883
 10
23.976225756670033
 20
11.97621596786564
 10
23.958439517287154
 20
12.009045683309656
 10
23.934525629684373
 20
12.037720873060408
 10
23.906133793629802
 20
12.060649355196372
 10
23.873852603099294
 20
12.077671009989276
 10
23.83889443211268
 20
12.088146613801298
 10
23.802572156000025
 20
12.091682748972875
  0
LWPOLYLINE
  5
3B
330
17
100
AcDbEntity
  8
0
100
AcDbPolyline
 90
22
 70
1
 10
28.867145466000025
 20
11.656804728000019
 10
31.113660150000022
 20
10.244071968000018
 10
31.052569086000023
 20
10.156325128000018
 10
31.66932121800002
 20
9.751951286000018
 10
31.913715954000022
 20
10.12768332600002
 10
33.06056049800002
 20
9.425380438000019
 10
32.60613011400002
 20
8.88750114800002
 10
32.52932512774984
 20
8.849297694723894
 10
32.44681202777037
 20
8.825843524798493
 10
32.36139552600002
 20
8.817935871516603
 10
32.303346980036466
 20
8.821571183073132
 10
32.24620552219601
 20
8.83242027972871
 10
32.128719588000024
 20
8.895429250000019
 10
31.602290618000023
 20
8.13930477800002
 10
30.46531422800002
 20
8.802721790000017
 10
30.749505684000024
 20
8.151660354000018
 10
29.798917796000023
 20
8.673972492000019
 10
29.49527756000002
 20
9.273173224000018
 10
27.781252794000018
 20
10.259270566000017
 10
27.87942150800002
 20
10.374275670000017
 10
28.99070325800002
 20
10.596949088000017
 10
28.59133601000002
 20
11.540326932000017
  0
LWPOLYLINE
  5
3C
330
17
100
AcDbEntity
  8
0
100
AcDbPolyline
 90
4
 70
1
 10
17.70750840000002
 20
14.746637258000018
 10
12.44638379400002
 20
14.746637258000018
 10
12.55877092000002
 20
14.051241646000017
 10
17.83394401200002
 20
14.051241646000017
  0
LWPOLYLINE
  5
3D
330
17
100
AcDbEntity
  8
0
100
AcDbPolyline
 90
127
 70
1
 10
11.312516618000023
 20
16.623950496000017
 10
37.62189961000002
 20
16.623950496000017
 10
37.63000297200002
 20
16.62384000600002
 10
37.68396380190156
 20
16.628778355648286
 10
37.736131869162925
 20
16.643429335790408
 10
37.78477397282767
 20
16.66730619094304
 10
37.82827405646471
 20
16.69961565061793
 10
37.865186899069606
 20
16.739284284470592
 10
37.894286130231016
 20
16.78499416531409
 10
37.91460497433447
 20
16.83522665515095
 10
38.02991649714175
 20
16.4604829594199
 10
38.068866198505184
 20
16.070338700000015
 10
38.06866046400002
 20
16.041840662000016
 10
38.06876333400002
 20
16.030944316000017
 10
38.05617332325746
 20
15.910982836682482
 10
38.01895194337818
 20
15.796249085020511
 10
37.958721242023465
 20
15.691742972735785
 10
37.87810597594838
 20
15.602018707532928
 10
37.78061922833862
 20
15.530986328078058
 10
37.67050931431526
 20
15.48174131082436
 10
37.552574646218375
 20
15.456429674144236
 10
37.42261879546031
 20
15.46700684718267
 10
37.29228101600002
 20
15.47053596219572
 10
36.8449547121599
 20
15.42863250648647
 10
36.41319313225801
 20
15.304380094071847
 10
36.01201942548237
 20
15.102102114889426
 10
35.52695310806102
 20
14.783938052470413
 10
35.10596671416913
 20
14.384828845002415
 10
34.76239391648527
 20
13.917415285058414
 10
34.50711651677295
 20
13.396501518179528
 10
34.348219782774834
 20
12.83858617401649
 10
34.29080678994555
 20
12.467804751019402
 10
34.27160210217954
 20
12.093096464000016
 10
34.369080430440846
 20
11.253430521731257
 10
34.65633055483231
 20
10.458428445296763
 10
34.910522000000014
 20
10.404509036000016
 10
35.36498591200002
 20
9.673845778000016
 10
35.37271416469884
 20
9.6152022737394
 10
35.37529681367045
 20
9.556108142000015
 10
35.36397762233555
 20
9.432794457269338
 10
35.330398425726045
 20
9.313602066957467
 10
35.27568145606106
 20
9.20251452677461
 10
35.20165542150209
 20
9.103244518410195
 10
35.110794362815504
 20
9.019109767162268
 10
34.49825279450117
 20
8.633023617270839
 10
33.870647353708364
 20
8.271940377472381
 10
33.759855595714015
 20
8.155762915475949
 10
33.676760642874285
 20
8.01840476311446
 10
33.6252821833992
 20
7.8663455594545955
 10
33.607848569588846
 20
7.706758272000015
 10
33.6236489857233
 20
7.554744459579807
 10
33.67037504906583
 20
7.409229749290531
 10
35.501435220000026
 20
0.4426186220000143
 10
35.32427123600003
 20
0.34248242400001433
 10
32.24373897203429
 20
0.248361229523622
 10
29.16975292772163
 20
0.02666858653694817
 10
28.191500386000026
 20
0.011262868000014277
 10
28.096314442569394
 20
0.002817789383148712
 10
28.000796170000026
 20
-5.053120987099646e-07
 10
27.671327520882517
 20
0.03385469564530766
 10
27.355628908033257
 20
0.13400533922901833
 10
27.066894853481617
 20
0.29626565880022165
 10
26.866622670000027
 20
0.5658627240000142
 10
26.743378314000026
 20
1.0434347940000144
 10
26.781892080000027
 20
1.0896513640000143
 10
26.904697443461576
 20
0.953289340676017
 10
27.05148928830485
 20
0.8431625365480276
 10
27.437020404098106
 20
0.7361237325339981
 10
27.83550567000003
 20
0.7000533151136279
 10
28.072631424508078
 20
0.7127587696428997
 10
28.30704194988128
 20
0.7507292033610968
 10
28.40717813600003
 20
0.5735652740000143
 10
32.33559420600003
 20
1.6057372000000143
 10
32.43924136063769
 20
1.6296213943736833
 10
32.536766356229485
 20
1.6720721027326844
 10
32.62487448117037
 20
1.7316552020542506
 10
32.700589156379436
 20
1.8063577814163245
 10
32.76135249382428
 20
1.8936561446766127
 10
32.802799454007506
 20
1.984022177231064
 10
32.82816723919308
 20
2.080148901723232
 10
32.83670718653169
 20
2.1791990960000143
 10
32.82492503998884
 20
2.295378016435726
 10
32.79005818952129
 20
2.406826052599799
 10
31.62803936000003
 20
6.802910448000015
 10
31.535393410248563
 20
7.04201009055438
 10
31.3954983246885
 20
7.256908383035081
 10
31.214350132793918
 20
7.438394590908573
 10
30.99971300936356
 20
7.578690051706551
 10
27.424524272000028
 20
9.718961512000014
 10
27.253200558208533
 20
9.760921226904626
 10
27.07737840800003
 20
9.775028107433124
 10
26.914080092822
 20
9.762870227855228
 10
26.754382585880247
 20
9.726664394735746
 10
25.53409168000003
 20
9.440707814000012
 10
24.31182005800003
 20
9.107361008000012
 10
24.31182005800003
 20
9.169863550000013
 10
24.92990061000003
 20
9.405984236000013
 10
25.10740363652835
 20
9.495289023713157
 10
25.263522245363372
 20
9.618210338018786
 10
25.391979832353226
 20
9.769806241261412
 10
25.487611879124
 20
9.943981960480931
 10
25.54657358776024
 20
10.13373492211763
 10
25.566494457346085
 20
10.331436284000013
 10
25.563598301655638
 20
10.407147764333299
 10
25.554925995620263
 20
10.482416672700268
 10
25.468899768398273
 20
10.699525851562441
 10
25.34578957734701
 20
10.897971793293319
 10
25.189486117355685
 20
11.071483001360336
 10
25.00492905827688
 20
11.214575988170715
 10
24.797950970553106
 20
11.322728575436782
 10
24.567425259086995
 20
11.407583094980302
 10
24.32347408600003
 20
11.436396551741934
 10
24.140883720022597
 20
11.420354124137653
 10
23.963888081500013
 20
11.372718602333666
 10
23.797910470576987
 20
11.294949510363644
 10
22.67286499200003
 20
10.801874002000014
 10
22.38100324400003
 20
11.545858290000014
 10
21.63726355800003
 20
12.081072866000014
 10
19.558962660000027
 20
13.248813736000013
 10
18.995944736000027
 20
13.408683114000015
 10
15.104098570000028
 20
13.459723144000012
 10
14.236509246000027
 20
13.207842266000013
 10
6.923401698000029
 20
13.207842266000013
 10
6.923401698000029
 20
13.630333420000012
 10
11.62820864600003
 20
13.630333420000012
 10
11.83811551600003
 20
14.137005000000013
 10
11.371755260000029
 20
16.590204818000014
  0
LWPOLYLINE
  5
3E
330
17
100
AcDbEntity
  8
0
100
AcDbPolyline
 90
17
 70
1
 10
35.51379689200004
 20
1.171117038000013
 10
35.801257074000034
 20
0.10582300400001307
 10
36.64672858600004
 20
0.10582300400001307
 10
36.90425884346195
 20
0.2267937085329916
 10
37.128647412057575
 20
0.4017380286671869
 10
37.51928961582292
 20
0.7329953640001782
 10
37.84408929143034
 20
1.129023052268787
 10
38.092484654510784
 20
1.5769432491233162
 10
38.098119952787165
 20
1.6639002376985943
 10
38.0999995537379
 20
1.751019358000013
 10
38.072570387252654
 20
2.082767220732621
 10
37.99102801053924
 20
2.4055052584889793
 10
37.82743707060766
 20
2.1562205841247177
 10
37.6223728921079
 20
1.939763950715508
 10
37.38228846704979
 20
1.7629469258136274
 10
36.70080319377195
 20
1.4661703106300568
 10
35.978805884194756
 20
1.2894829661149398
  0
LWPOLYLINE
  5
3F
330
17
100
AcDbEntity
  8
0
100
AcDbPolyline
 90
27
 70
1
 10
35.50084873400004
 20
9.383780572000013
 10
35.33189342487234
 20
9.075396782047212
 10
35.10430506997334
 20
8.807348280647833
 10
34.82740607600133
 20
8.590614791022029
 10
34.49971554159343
 20
8.375781452277595
 10
34.143986376710714
 20
8.211491432133151
 10
34.047281902741695
 20
8.159371562198682
 10
33.96255979001544
 20
8.089440136026871
 10
33.8930550712724
 20
8.004367609182573
 10
33.841421762520476
 20
7.90740244957072
 10
33.80963146555085
 20
7.802247241569373
 10
33.79889808293848
 20
7.692917304000013
 10
33.80161998421912
 20
7.637663622066425
 10
33.80975924435285
 20
7.582944974421673
 10
33.874609162000034
 20
7.238740920000014
 10
34.7326247913708
 20
7.504407866723626
 10
35.560710206154084
 20
7.852322069723655
 10
35.70282147394017
 20
7.952492536906425
 10
35.82427260043729
 20
8.076908596262117
 10
35.92098692632317
 20
8.221394135751218
 10
35.989718131641986
 20
8.381099343457294
 10
36.00946051579009
 20
8.417094078933847
 10
36.021631990795996
 20
8.456301687326146
 10
36.02574416065667
 20
8.497148614000013
 10
36.022214876981
 20
8.535016593474742
 10
36.01174890878415
 20
8.571580270197902
 10
35.99470663115607
 20
8.605580266066442
  0
LWPOLYLINE
  5
40
330
17
100
AcDbEntity
  8
0
100
AcDbPolyline
 90
39
 70
1
 10
32.12483161000003
 20
6.737161532000012
 10
33.33438748400003
 20
2.230395336000013
 10
33.34273434948146
 20
2.20395782372322
 10
33.35621748311664
 20
2.179733511016213
 10
33.3742881742461
 20
2.158708232400834
 10
33.39621101661233
 20
2.141737634257686
 10
33.42109383651021
 20
2.1295123533742037
 10
33.44463604323837
 20
2.123080044137179
 10
33.468944746000034
 20
2.120913068931425
 10
33.498700782982205
 20
2.124173012360696
 10
33.52704508320421
 20
2.133798518182492
 10
33.55263288793389
 20
2.1493328017680167
 10
34.47549899400003
 20
2.3738136420000124
 10
34.501836179170155
 20
2.384197163367025
 10
34.52583070432021
 20
2.3992213971740477
 10
34.54667350778585
 20
2.4183797473733013
 10
34.56366179952827
 20
2.4410262213226606
 10
34.57622275822654
 20
2.46639721174962
 10
34.583932846007485
 20
2.4936372445152895
 10
34.58653208954747
 20
2.5218278240000123
 10
34.585269815062524
 20
2.541515632170191
 10
34.58150379033575
 20
2.5608810672348277
 10
33.437091368000026
 20
7.054167248000012
 10
33.43710432200003
 20
7.056246238000013
 10
33.43375614538876
 20
7.089466716295903
 10
33.42384628963867
 20
7.121350963563799
 10
33.40777335999012
 20
7.150616496146358
 10
33.38618385969679
 20
7.176086163241013
 10
33.36121961081742
 20
7.195917823033643
 10
33.332932588037735
 20
7.2106267787315526
 10
33.302360320666764
 20
7.21967362919232
 10
33.270624086000026
 20
7.222726569519222
 10
33.26249507000003
 20
7.222528100000012
 10
32.189975244000024
 20
6.954398080000012
 10
32.15909756959313
 20
6.921396869963144
 10
32.135967842411276
 20
6.882569993174395
 10
32.12165018379835
 20
6.839703744300491
 10
32.116803301313034
 20
6.794770256000013
 10
32.11882019983404
 20
6.76568740223272
  0
LWPOLYLINE
  5
41
330
17
100
AcDbEntity
  8
0
100
AcDbPolyline
 90
7
 70
1
 10
11.272902524000026
 20
16.585435968000013
 10
11.596419022000026
 20
14.467172488000013
 10
4.694731276000026
 20
14.467172488000013
 10
4.694731276000026
 20
16.731788736000013
 10
4.964328400000027
 20
16.731788736000013
 10
5.072167148000028
 20
16.623949988000014
 10
11.242091054000028
 20
16.623949988000014
  0
LWPOLYLINE
  5
42
330
17
100
AcDbEntity
  8
0
100
AcDbPolyline
 90
33
 70
1
 10
30.370945862000028
 20
13.010100980000015
 10
30.202202963979932
 20
12.74899802543162
 10
29.982374740013938
 20
12.529169750488375
 10
29.721271824576323
 20
12.3604267919196
 10
27.95271422400003
 20
11.458101544000014
 10
27.464899193103534
 20
11.32976124949056
 10
26.96233749000003
 20
11.28655858594965
 10
26.55736815242568
 20
11.314538510660412
 10
26.160094776374745
 20
11.397946577274247
 10
25.480157891883483
 20
11.935015322676453
 10
24.860746321755293
 20
12.540891865292547
 10
24.785944135729082
 20
12.675803253201877
 10
24.73980400814377
 20
12.82300223015269
 10
24.724211558219675
 20
12.976473158000015
 10
24.735027345159182
 20
13.104494223696653
 10
24.767167790165377
 20
13.228886200993593
 10
24.827386445966308
 20
13.359637863063712
 10
24.911089486996207
 20
13.476753539597846
 10
25.015298199094634
 20
13.57606529665857
 10
25.13630401485244
 20
13.654038839097584
 10
25.2698005935079
 20
13.70789925364284
 10
26.56914904600003
 20
14.153046370000014
 10
27.28118668229389
 20
14.276715289125562
 10
28.00269710600003
 20
14.318119462103786
 10
28.84548011492491
 20
14.261558810058734
 10
29.67314767238127
 20
14.092891326515575
 10
29.868092928284547
 20
13.99768530931838
 10
30.039841023829585
 20
13.865131819573161
 10
30.18133873582492
 20
13.70067442853503
 10
30.286775148261896
 20
13.511066942133773
 10
30.35182028203141
 20
13.304096010503535
 10
30.37380291507782
 20
13.088261352000016
 10
30.373088368242104
 20
13.049155066796615
  0
ENDSEC
  0
SECTION
  2
OBJECTS
  0
DICTIONARY
  5
A
330
0
100
AcDbDictionary
281
1
  3
ACAD_COLOR
350
B
  3
ACAD_GROUP
350
C
  3
ACAD_LAYOUT
350
D
  3
ACAD_MATERIAL
350
E
  3
ACAD_MLEADERSTYLE
350
F
  3
ACAD_MLINESTYLE
350
10
  3
ACAD_PLOTSETTINGS
350
11
  3
ACAD_PLOTSTYLENAME
350
12
  3
ACAD_SCALELIST
350
14
  3
ACAD_TABLESTYLE
350
15
  3
ACAD_VISUALSTYLE
350
16
  3
EZDXF_META
350
2D
  0
DICTIONARY
  5
B
330
A
100
AcDbDictionary
281
1
  0
DICTIONARY
  5
C
330
A
100
AcDbDictionary
281
1
  0
DICTIONARY
  5
D
330
A
100
AcDbDictionary
281
1
  3
Model
350
1A
  3
Layout1
350
1E
  0
DICTIONARY
  5
E
330
A
100
AcDbDictionary
281
1
  3
ByBlock
350
1F
  3
ByLayer
350
20
  3
Global
350
21
  0
DICTIONARY
  5
F
330
A
100
AcDbDictionary
281
1
  3
Standard
350
2C
  0
DICTIONARY
  5
10
330
A
100
AcDbDictionary
281
1
  3
Standard
350
22
  0
DICTIONARY
  5
11
330
A
100
AcDbDictionary
281
1
  0
ACDBDICTIONARYWDFLT
  5
12
330
A
100
AcDbDictionary
281
1
  3
Normal
350
13
100
AcDbDictionaryWithDefault
340
13
  0
ACDBPLACEHOLDER
  5
13
330
12
  0
DICTIONARY
  5
14
330
A
100
AcDbDictionary
281
1
  0
DICTIONARY
  5
15
330
A
100
AcDbDictionary
281
1
  0
DICTIONARY
  5
16
330
A
100
AcDbDictionary
281
1
  0
LAYOUT
  5
1A
330
D
100
AcDbPlotSettings
  1

  4
A3
  6

 40
7.5
 41
20.0
 42
7.5
 43
20.0
 44
420.0
 45
297.0
 46
0.0
 47
0.0
 48
0.0
 49
0.0
140
0.0
141
0.0
142
1.0
143
1.0
 70
1024
 72
1
 73
0
 74
5
  7

 75
16
 76
0
 77
2
 78
300
147
1.0
148
0.0
149
0.0
100
AcDbLayout
  1
Model
 70
1
 71
0
 10
0.0
 20
0.0
 11
420.0
 21
297.0
 12
0.0
 22
0.0
 32
0.0
 14
1e+20
 24
1e+20
 34
1e+20
 15
-1e+20
 25
-1e+20
 35
-1e+20
146
0.0
 13
0.0
 23
0.0
 33
0.0
 16
1.0
 26
0.0
 36
0.0
 17
0.0
 27
1.0
 37
0.0
 76
1
330
17
  0
LAYOUT
  5
1E
330
D
100
AcDbPlotSettings
  1

  4
A3
  6

 40
7.5
 41
20.0
 42
7.5
 43
20.0
 44
420.0
 45
297.0
 46
0.0
 47
0.0
 48
0.0
 49
0.0
140
0.0
141
0.0
142
1.0
143
1.0
 70
0
 72
1
 73
0
 74
5
  7

 75
16
 76
0
 77
2
 78
300
147
1.0
148
0.0
149
0.0
100
AcDbLayout
  1
Layout1
 70
1
 71
1
 10
0.0
 20
0.0
 11
420.0
 21
297.0
 12
0.0
 22
0.0
 32
0.0
 14
1e+20
 24
1e+20
 34
1e+20
 15
-1e+20
 25
-1e+20
 35
-1e+20
146
0.0
 13
0.0
 23
0.0
 33
0.0
 16
1.0
 26
0.0
 36
0.0
 17
0.0
 27
1.0
 37
0.0
 76
1
330
1B
  0
MATERIAL
  5
1F
102
{ACAD_REACTORS
330
E
102
}
330
E
100
AcDbMaterial
  1
ByBlock
  2

 70
0
 40
1.0
 71
1
 41
1.0
 91
-1023410177
 42
1.0
 72
1
  3

 73
1
 74
1
 75
1
 44
0.5
 73
0
 45
1.0
 46
1.0
 77
1
  4

 78
1
 79
1
170
1
 48
1.0
171
1
  6

172
1
173
1
174
1
140
1.0
141
1.0
175
1
  7

176
1
177
1
178
1
143
1.0
179
1
  8

270
1
271
1
272
1
145
1.0
146
1.0
273
1
  9

274
1
275
1
276
1
 42
1.0
 72
1
  3

 73
1
 74
1
 75
1
 94
63
  0
MATERIAL
  5
20
102
{ACAD_REACTORS
330
E
102
}
330
E
100
AcDbMaterial
  1
ByLayer
  2

 70
0
 40
1.0
 71
1
 41
1.0
 91
-1023410177
 42
1.0
 72
1
  3

 73
1
 74
1
 75
1
 44
0.5
 73
0
 45
1.0
 46
1.0
 77
1
  4

 78
1
 79
1
170
1
 48
1.0
171
1
  6

172
1
173
1
174
1
140
1.0
141
1.0
175
1
  7

176
1
177
1
178
1
143
1.0
179
1
  8

270
1
271
1
272
1
145
1.0
146
1.0
273
1
  9

274
1
275
1
276
1
 42
1.0
 72
1
  3

 73
1
 74
1
 75
1
 94
63
  0
MATERIAL
  5
21
102
{ACAD_REACTORS
330
E
102
}
330
E
100
AcDbMaterial
  1
Global
  2

 70
0
 40
1.0
 71
1
 41
1.0
 91
-1023410177
 42
1.0
 72
1
  3

 73
1
 74
1
 75
1
 44
0.5
 73
0
 45
1.0
 46
1.0
 77
1
  4

 78
1
 79
1
170
1
 48
1.0
171
1
  6

172
1
173
1
174
1
140
1.0
141
1.0
175
1
  7

176
1
177
1
178
1
143
1.0
179
1
  8

270
1
271
1
272
1
145
1.0
146
1.0
273
1
  9

274
1
275
1
276
1
 42
1.0
 72
1
  3

 73
1
 74
1
 75
1
 94
63
  0
MLINESTYLE
  5
22
102
{ACAD_REACTORS
330
10
102
}
330
10
100
AcDbMlineStyle
  2
Standard
 70
0
  3

 62
256
 51
90.0
 52
90.0
 71
2
 49
0.5
 62
256
  6
BYLAYER
 49
-0.5
 62
256
  6
BYLAYER
  0
MLEADERSTYLE
  5
2C
102
{ACAD_REACTORS
330
F
102
}
330
F
100
AcDbMLeaderStyle
179
2
170
2
171
1
172
0
 90
2
 40
0.0
 41
0.0
173
1
 91
-1056964608
 92
-2
290
1
 42
2.0
291
1
 43
8.0
  3
Standard
 44
4.0
300

342
29
174
1
175
1
176
0
178
1
 93
-1056964608
 45
4.0
292
0
297
0
 46
4.0
 94
-1056964608
 47
1.0
 49
1.0
140
1.0
294
1
141
0.0
177
0
142
1.0
295
0
296
0
143
3.75
271
0
272
9
273
9
  0
DICTIONARY
  5
2D
330
A
100
AcDbDictionary
280
1
281
1
  3
CREATED_BY_EZDXF
350
2E
  3
WRITTEN_BY_EZDXF
350
45
  0
DICTIONARYVAR
  5
2E
330
2D
100
DictionaryVariables
280
0
  1
1.4.3 @ 2026-04-12T00:41:29.345469+00:00
  0
DICTIONARYVAR
  5
45
330
2D
100
DictionaryVariables
280
0
  1
1.4.3 @ 2026-04-12T00:41:29.347540+00:00
  0
ENDSEC
  0
EOF
