  0
SECTION
  2
HEADER
  9
$ACADVER
  1
AC1024
  9
$ACADMAINTVER
 70
6
  9
$DWGCODEPAGE
  3
ANSI_1252
  9
$LASTSAVEDBY
  1
ezdxf
  9
$INSBASE
 10
0.0
 20
0.0
 30
0.0
  9
$EXTMIN
 10
1e+20
 20
1e+20
 30
1e+20
  9
$EXTMAX
 10
-1e+20
 20
-1e+20
 30
-1e+20
  9
$LIMMIN
 10
0.0
 20
0.0
  9
$LIMMAX
 10
420.0
 20
297.0
  9
$ORTHOMODE
 70
0
  9
$REGENMODE
 70
1
  9
$FILLMODE
 70
1
  9
$QTEXTMODE
 70
0
  9
$MIRRTEXT
 70
1
  9
$LTSCALE
 40
1.0
  9
$ATTMODE
 70
1
  9
$TEXTSIZE
 40
2.5
  9
$TRACEWID
 40
1.0
  9
$TEXTSTYLE
  7
Standard
  9
$CLAYER
  8
0
  9
$CELTYPE
  6
ByLayer
  9
$CECOLOR
 62
256
  9
$CELTSCALE
 40
1.0
  9
$DISPSILH
 70
0
  9
$DIMSCALE
 40
1.0
  9
$DIMASZ
 40
2.5
  9
$DIMEXO
 40
0.625
  9
$DIMDLI
 40
3.75
  9
$DIMRND
 40
0.0
  9
$DIMDLE
 40
0.0
  9
$DIMEXE
 40
1.25
  9
$DIMTP
 40
0.0
  9
$DIMTM
 40
0.0
  9
$DIMTXT
 40
2.5
  9
$DIMCEN
 40
2.5
  9
$DIMTSZ
 40
0.0
  9
$DIMTOL
 70
0
  9
$DIMLIM
 70
0
  9
$DIMTIH
 70
0
  9
$DIMTOH
 70
0
  9
$DIMSE1
 70
0
  9
$DIMSE2
 70
0
  9
$DIMTAD
 70
1
  9
$DIMZIN
 70
8
  9
$DIMBLK
  1

  9
$DIMASO
 70
1
  9
$DIMSHO
 70
1
  9
$DIMPOST
  1

  9
$DIMAPOST
  1

  9
$DIMALT
 70
0
  9
$DIMALTD
 70
3
  9
$DIMALTF
 40
0.03937007874
  9
$DIMLFAC
 40
1.0
  9
$DIMTOFL
 70
1
  9
$DIMTVP
 40
0.0
  9
$DIMTIX
 70
0
  9
$DIMSOXD
 70
0
  9
$DIMSAH
 70
0
  9
$DIMBLK1
  1

  9
$DIMBLK2
  1

  9
$DIMSTYLE
  2
ISO-25
  9
$DIMCLRD
 70
0
  9
$DIMCLRE
 70
0
  9
$DIMCLRT
 70
0
  9
$DIMTFAC
 40
1.0
  9
$DIMGAP
 40
0.625
  9
$DIMJUST
 70
0
  9
$DIMSD1
 70
0
  9
$DIMSD2
 70
0
  9
$DIMTOLJ
 70
0
  9
$DIMTZIN
 70
8
  9
$DIMALTZ
 70
0
  9
$DIMALTTZ
 70
0
  9
$DIMUPT
 70
0
  9
$DIMDEC
 70
2
  9
$DIMTDEC
 70
2
  9
$DIMALTU
 70
2
  9
$DIMALTTD
 70
3
  9
$DIMTXSTY
  7
Standard
  9
$DIMAUNIT
 70
0
  9
$DIMADEC
 70
0
  9
$DIMALTRND
 40
0.0
  9
$DIMAZIN
 70
0
  9
$DIMDSEP
 70
44
  9
$DIMATFIT
 70
3
  9
$DIMFRAC
 70
0
  9
$DIMLDRBLK
  1

  9
$DIMLUNIT
 70
2
  9
$DIMLWD
 70
-2
  9
$DIMLWE
 70
-2
  9
$DIMTMOVE
 70
0
  9
$DIMFXL
 40
1.0
  9
$DIMFXLON
 70
0
  9
$DIMJOGANG
 40
0.785398163397
  9
$DIMTFILL
 70
0
  9
$DIMTFILLCLR
 70
0
  9
$DIMARCSYM
 70
0
  9
$DIMLTYPE
  6

  9
$DIMLTEX1
  6

  9
$DIMLTEX2
  6

  9
$DIMTXTDIRECTION
 70
0
  9
$LUNITS
 70
2
  9
$LUPREC
 70
4
  9
$SKETCHINC
 40
1.0
  9
$FILLETRAD
 40
10.0
  9
$AUNITS
 70
0
  9
$AUPREC
 70
2
  9
$MENU
  1
.
  9
$ELEVATION
 40
0.0
  9
$PELEVATION
 40
0.0
  9
$THICKNESS
 40
0.0
  9
$LIMCHECK
 70
0
  9
$CHAMFERA
 40
0.0
  9
$CHAMFERB
 40
0.0
  9
$CHAMFERC
 40
0.0
  9
$CHAMFERD
 40
0.0
  9
$SKPOLY
 70
0
  9
$TDCREATE
 40
2461140.590138889
  9
$TDUCREATE
 40
2458532.153996898
  9
$TDUPDATE
 40
2461140.590138889
  9
$TDUUPDATE
 40
2458532.1544311
  9
$TDINDWG
 40
0.0
  9
$TDUSRTIMER
 40
0.0
  9
$USRTIMER
 70
1
  9
$ANGBASE
 50
0.0
  9
$ANGDIR
 70
0
  9
$PDMODE
 70
0
  9
$PDSIZE
 40
0.0
  9
$PLINEWID
 40
0.0
  9
$SPLFRAME
 70
0
  9
$SPLINETYPE
 70
6
  9
$SPLINESEGS
 70
8
  9
$HANDSEED
  5
38
  9
$SURFTAB1
 70
6
  9
$SURFTAB2
 70
6
  9
$SURFTYPE
 70
6
  9
$SURFU
 70
6
  9
$SURFV
 70
6
  9
$UCSBASE
  2

  9
$UCSNAME
  2

  9
$UCSORG
 10
0.0
 20
0.0
 30
0.0
  9
$UCSXDIR
 10
1.0
 20
0.0
 30
0.0
  9
$UCSYDIR
 10
0.0
 20
1.0
 30
0.0
  9
$UCSORTHOREF
  2

  9
$UCSORTHOVIEW
 70
0
  9
$UCSORGTOP
 10
0.0
 20
0.0
 30
0.0
  9
$UCSORGBOTTOM
 10
0.0
 20
0.0
 30
0.0
  9
$UCSORGLEFT
 10
0.0
 20
0.0
 30
0.0
  9
$UCSORGRIGHT
 10
0.0
 20
0.0
 30
0.0
  9
$UCSORGFRONT
 10
0.0
 20
0.0
 30
0.0
  9
$UCSORGBACK
 10
0.0
 20
0.0
 30
0.0
  9
$PUCSBASE
  2

  9
$PUCSNAME
  2

  9
$PUCSORG
 10
0.0
 20
0.0
 30
0.0
  9
$PUCSXDIR
 10
1.0
 20
0.0
 30
0.0
  9
$PUCSYDIR
 10
0.0
 20
1.0
 30
0.0
  9
$PUCSORTHOREF
  2

  9
$PUCSORTHOVIEW
 70
0
  9
$PUCSORGTOP
 10
0.0
 20
0.0
 30
0.0
  9
$PUCSORGBOTTOM
 10
0.0
 20
0.0
 30
0.0
  9
$PUCSORGLEFT
 10
0.0
 20
0.0
 30
0.0
  9
$PUCSORGRIGHT
 10
0.0
 20
0.0
 30
0.0
  9
$PUCSORGFRONT
 10
0.0
 20
0.0
 30
0.0
  9
$PUCSORGBACK
 10
0.0
 20
0.0
 30
0.0
  9
$USERI1
 70
0
  9
$USERI2
 70
0
  9
$USERI3
 70
0
  9
$USERI4
 70
0
  9
$USERI5
 70
0
  9
$USERR1
 40
0.0
  9
$USERR2
 40
0.0
  9
$USERR3
 40
0.0
  9
$USERR4
 40
0.0
  9
$USERR5
 40
0.0
  9
$WORLDVIEW
 70
1
  9
$SHADEDGE
 70
3
  9
$SHADEDIF
 70
70
  9
$TILEMODE
 70
1
  9
$MAXACTVP
 70
64
  9
$PINSBASE
 10
0.0
 20
0.0
 30
0.0
  9
$PLIMCHECK
 70
0
  9
$PEXTMIN
 10
1e+20
 20
1e+20
 30
1e+20
  9
$PEXTMAX
 10
-1e+20
 20
-1e+20
 30
-1e+20
  9
$PLIMMIN
 10
0.0
 20
0.0
  9
$PLIMMAX
 10
420.0
 20
297.0
  9
$UNITMODE
 70
0
  9
$VISRETAIN
 70
1
  9
$PLINEGEN
 70
0
  9
$PSLTSCALE
 70
1
  9
$TREEDEPTH
 70
3020
  9
$CMLSTYLE
  2
Standard
  9
$CMLJUST
 70
0
  9
$CMLSCALE
 40
20.0
  9
$PROXYGRAPHICS
 70
1
  9
$MEASUREMENT
 70
1
  9
$CELWEIGHT
370
-1
  9
$ENDCAPS
280
0
  9
$JOINSTYLE
280
0
  9
$LWDISPLAY
290
0
  9
$INSUNITS
 70
6
  9
$HYPERLINKBASE
  1

  9
$STYLESHEET
  1

  9
$XEDIT
290
1
  9
$CEPSNTYPE
380
0
  9
$PSTYLEMODE
290
1
  9
$FINGERPRINTGUID
  2
{06D19FE2-C5FC-482C-A32E-0711F1528BA8}
  9
$VERSIONGUID
  2
{87301E7B-F27A-45B7-933B-AC073DD30B0C}
  9
$EXTNAMES
290
1
  9
$PSVPSCALE
 40
0.0
  9
$OLESTARTUP
290
0
  9
$SORTENTS
280
127
  9
$INDEXCTL
280
0
  9
$HIDETEXT
280
1
  9
$XCLIPFRAME
280
1
  9
$HALOGAP
280
0
  9
$OBSCOLOR
 70
257
  9
$OBSLTYPE
280
0
  9
$INTERSECTIONDISPLAY
280
0
  9
$INTERSECTIONCOLOR
 70
257
  9
$DIMASSOC
280
2
  9
$PROJECTNAME
  1

  9
$CAMERADISPLAY
290
0
  9
$LENSLENGTH
 40
50.0
  9
$CAMERAHEIGHT
 40
0.0
  9
$STEPSPERSEC
 40
24.0
  9
$STEPSIZE
 40
100.0
  9
$3DDWFPREC
 40
2.0
  9
$PSOLWIDTH
 40
0.005
  9
$PSOLHEIGHT
 40
0.08
  9
$LOFTANG1
 40
1.570796326795
  9
$LOFTANG2
 40
1.570796326795
  9
$LOFTMAG1
 40
0.0
  9
$LOFTMAG2
 40
0.0
  9
$LOFTPARAM
 70
7
  9
$LOFTNORMALS
280
1
  9
$LATITUDE
 40
37.795
  9
$LONGITUDE
 40
-122.394
  9
$NORTHDIRECTION
 40
0.0
  9
$TIMEZONE
 70
-8000
  9
$LIGHTGLYPHDISPLAY
280
1
  9
$TILEMODELIGHTSYNCH
280
1
  9
$CMATERIAL
347
20
  9
$SOLIDHIST
280
0
  9
$SHOWHIST
280
1
  9
$DWFFRAME
280
2
  9
$DGNFRAME
280
2
  9
$REALWORLDSCALE
290
1
  9
$INTERFERECOLOR
 62
256
  9
$CSHADOW
280
0
  9
$SHADOWPLANELOCATION
 40
0.0
  0
ENDSEC
  0
SECTION
  2
CLASSES
  0
CLASS
  1
ACDBDICTIONARYWDFLT
  2
AcDbDictionaryWithDefault
  3
ObjectDBX Classes
 90
0
 91
0
280
0
281
0
  0
CLASS
  1
SUN
  2
AcDbSun
  3
SCENEOE
 90
1153
 91
0
280
0
281
0
  0
CLASS
  1
VISUALSTYLE
  2
AcDbVisualStyle
  3
ObjectDBX Classes
 90
4095
 91
0
280
0
281
0
  0
CLASS
  1
MATERIAL
  2
AcDbMaterial
  3
ObjectDBX Classes
 90
1153
 91
0
280
0
281
0
  0
CLASS
  1
SCALE
  2
AcDbScale
  3
ObjectDBX Classes
 90
1153
 91
0
280
0
281
0
  0
CLASS
  1
TABLESTYLE
  2
AcDbTableStyle
  3
ObjectDBX Classes
 90
4095
 91
0
280
0
281
0
  0
CLASS
  1
MLEADERSTYLE
  2
AcDbMLeaderStyle
  3
ACDB_MLEADERSTYLE_CLASS
 90
4095
 91
0
280
0
281
0
  0
CLASS
  1
DICTIONARYVAR
  2
AcDbDictionaryVar
  3
ObjectDBX Classes
 90
0
 91
0
280
0
281
0
  0
CLASS
  1
CELLSTYLEMAP
  2
AcDbCellStyleMap
  3
ObjectDBX Classes
 90
1152
 91
0
280
0
281
0
  0
CLASS
  1
MENTALRAYRENDERSETTINGS
  2
AcDbMentalRayRenderSettings
  3
SCENEOE
 90
1024
 91
0
280
0
281
0
  0
CLASS
  1
ACDBDETAILVIEWSTYLE
  2
AcDbDetailViewStyle
  3
ObjectDBX Classes
 90
1025
 91
0
280
0
281
0
  0
CLASS
  1
ACDBSECTIONVIEWSTYLE
  2
AcDbSectionViewStyle
  3
ObjectDBX Classes
 90
1025
 91
0
280
0
281
0
  0
CLASS
  1
RASTERVARIABLES
  2
AcDbRasterVariables
  3
ISM
 90
0
 91
0
280
0
281
0
  0
CLASS
  1
LAYOUT
  2
AcDbLayout
  3
ObjectDBX Classes
 90
0
 91
0
280
0
281
0
  0
CLASS
  1
ACDBPLACEHOLDER
  2
AcDbPlaceHolder
  3
ObjectDBX Classes
 90
0
 91
0
280
0
281
0
  0
ENDSEC
  0
SECTION
  2
TABLES
  0
TABLE
  2
VPORT
  5
8
330
0
100
AcDbSymbolTable
 70
1
  0
VPORT
  5
23
330
8
100
AcDbSymbolTableRecord
100
AcDbViewportTableRecord
  2
*Active
 70
0
 10
0.0
 20
0.0
 11
1.0
 21
1.0
 12
0.0
 22
0.0
 13
0.0
 23
0.0
 14
0.5
 24
0.5
 15
0.5
 25
0.5
 16
0.0
 26
0.0
 36
1.0
 17
0.0
 27
0.0
 37
0.0
 40
1000.0
 41
1.34
 42
50.0
 43
0.0
 44
0.0
 50
0.0
 51
0.0
 71
0
 72
1000
 73
1
 74
3
 75
0
 76
0
 77
0
 78
0
281
0
 65
0
146
0.0
  0
ENDTAB
  0
TABLE
  2
LTYPE
  5
2
330
0
100
AcDbSymbolTable
 70
3
  0
LTYPE
  5
24
330
2
100
AcDbSymbolTableRecord
100
AcDbLinetypeTableRecord
  2
ByBlock
 70
0
  3

 72
65
 73
0
 40
0.0
  0
LTYPE
  5
25
330
2
100
AcDbSymbolTableRecord
100
AcDbLinetypeTableRecord
  2
ByLayer
 70
0
  3

 72
65
 73
0
 40
0.0
  0
LTYPE
  5
26
330
2
100
AcDbSymbolTableRecord
100
AcDbLinetypeTableRecord
  2
Continuous
 70
0
  3

 72
65
 73
0
 40
0.0
  0
ENDTAB
  0
TABLE
  2
LAYER
  5
1
330
0
100
AcDbSymbolTable
 70
2
  0
LAYER
  5
27
330
1
100
AcDbSymbolTableRecord
100
AcDbLayerTableRecord
  2
0
 70
0
 62
7
  6
Continuous
370
-3
390
13
347
21
  0
LAYER
  5
28
330
1
100
AcDbSymbolTableRecord
100
AcDbLayerTableRecord
  2
Defpoints
 70
0
 62
7
  6
Continuous
290
0
370
-3
390
13
347
21
  0
ENDTAB
  0
TABLE
  2
STYLE
  5
5
330
0
100
AcDbSymbolTable
 70
1
  0
STYLE
  5
29
330
5
100
AcDbSymbolTableRecord
100
AcDbTextStyleTableRecord
  2
Standard
 70
0
 40
0.0
 41
1.0
 50
0.0
 71
0
 42
2.5
  3
txt
  4

  0
ENDTAB
  0
TABLE
  2
VIEW
  5
7
330
0
100
AcDbSymbolTable
 70
0
  0
ENDTAB
  0
TABLE
  2
UCS
  5
6
330
0
100
AcDbSymbolTable
 70
0
  0
ENDTAB
  0
TABLE
  2
APPID
  5
3
330
0
100
AcDbSymbolTable
 70
3
  0
APPID
  5
2A
330
3
100
AcDbSymbolTableRecord
100
AcDbRegAppTableRecord
  2
ACAD
 70
0
  0
APPID
  5
35
330
3
100
AcDbSymbolTableRecord
100
AcDbRegAppTableRecord
  2
HATCHBACKGROUNDCOLOR
 70
0
  0
APPID
  5
36
330
3
100
AcDbSymbolTableRecord
100
AcDbRegAppTableRecord
  2
EZDXF
 70
0
  0
ENDTAB
  0
TABLE
  2
DIMSTYLE
  5
4
330
0
100
AcDbSymbolTable
 70
1
100
AcDbDimStyleTable
  0
DIMSTYLE
105
2B
330
4
100
AcDbSymbolTableRecord
100
AcDbDimStyleTableRecord
  2
Standard
 70
0
 40
1.0
 41
2.5
 42
0.625
 43
3.75
 44
1.25
 45
0.0
 46
0.0
 47
0.0
 48
0.0
 49
2.5
140
2.5
141
2.5
142
0.0
143
0.03937007874
144
1.0
145
0.0
146
1.0
147
0.625
148
0.0
 69
0
 70
0
 71
0
 72
0
 73
0
 74
0
 75
0
 76
0
 77
1
 78
8
 79
3
170
0
171
3
172
1
173
0
174
0
175
0
176
0
177
0
178
0
179
2
271
2
272
2
273
2
274
3
275
0
276
0
277
2
278
44
279
0
280
0
281
0
282
0
283
0
284
8
285
0
286
0
288
0
289
3
290
0
371
-2
372
-2
  0
ENDTAB
  0
TABLE
  2
BLOCK_RECORD
  5
9
330
0
100
AcDbSymbolTable
 70
2
  0
BLOCK_RECORD
  5
17
330
9
100
AcDbSymbolTableRecord
100
AcDbBlockTableRecord
  2
*Model_Space
340
1A
 70
0
280
1
281
0
  0
BLOCK_RECORD
  5
1B
330
9
100
AcDbSymbolTableRecord
100
AcDbBlockTableRecord
  2
*Paper_Space
340
1E
 70
0
280
1
281
0
  0
ENDTAB
  0
ENDSEC
  0
SECTION
  2
BLOCKS
  0
BLOCK
  5
18
330
17
100
AcDbEntity
  8
0
100
AcDbBlockBegin
  2
*Model_Space
 70
0
 10
0.0
 20
0.0
 30
0.0
  3
*Model_Space
  1

  0
ENDBLK
  5
19
330
17
100
AcDbEntity
  8
0
100
AcDbBlockEnd
  0
BLOCK
  5
1C
330
1B
100
AcDbEntity
  8
0
100
AcDbBlockBegin
  2
*Paper_Space
 70
0
 10
0.0
 20
0.0
 30
0.0
  3
*Paper_Space
  1

  0
ENDBLK
  5
1D
330
1B
100
AcDbEntity
  8
0
100
AcDbBlockEnd
  0
ENDSEC
  0
SECTION
  2
ENTITIES
  0
LWPOLYLINE
  5
2F
330
17
100
AcDbEntity
  8
0
100
AcDbPolyline
 90
545
 70
0
 10
135.792464
 20
-95.442786
 10
135.744458
 20
-95.310452
 10
135.69518200000002
 20
-95.177356
 10
135.64463600000002
 20
-95.043752
 10
135.59282000000005
 20
-94.90989400000001
 10
135.53948000000003
 20
-94.776036
 10
135.48461600000002
 20
-94.642432
 10
135.42822800000005
 20
-94.509336
 10
135.37006200000002
 20
-94.377002
 10
135.31011800000002
 20
-94.245684
 10
135.24814200000003
 20
-94.11538200000001
 10
135.18413400000003
 20
-93.986604
 10
135.11809400000004
 20
-93.859604
 10
135.050022
 20
-93.73438200000001
 10
134.979664
 20
-93.61144600000002
 10
134.906766
 20
-93.490796
 10
134.831328
 20
-93.37268600000002
 10
134.75334999999998
 20
-93.25762400000002
 10
134.672832
 20
-93.14561000000002
 10
134.58952
 20
-93.03689800000002
 10
134.503414
 20
-92.93174200000003
 10
134.41425999999998
 20
-92.83039600000002
 10
134.32231199999998
 20
-92.73336800000003
 10
134.227062
 20
-92.64065800000003
 10
134.12876400000002
 20
-92.55226600000002
 10
134.02716400000003
 20
-92.46870000000001
 10
133.922008
 20
-92.39021400000001
 10
133.81355000000002
 20
-92.317062
 10
133.701536
 20
-92.249498
 10
133.585712
 20
-92.187522
 10
133.466078
 20
-92.13164199999999
 10
133.342634
 20
-92.082112
 10
133.21538
 20
-92.03893199999999
 10
133.14222800000002
 20
-92.01759599999998
 10
133.068822
 20
-91.99879999999999
 10
132.994908
 20
-91.98228999999998
 10
132.92074
 20
-91.968066
 10
132.846318
 20
-91.95612799999998
 10
132.77164199999999
 20
-91.94647599999998
 10
132.696966
 20
-91.93885599999999
 10
132.622036
 20
-91.93326799999998
 10
132.546852
 20
-91.929458
 10
132.47141399999998
 20
-91.927426
 10
132.395976
 20
-91.927172
 10
132.320284
 20
-91.928696
 10
132.24459199999998
 20
-91.931744
 10
132.16889999999998
 20
-91.93631599999999
 10
132.092954
 20
-91.94215799999999
 10
132.01700799999998
 20
-91.949524
 10
131.941062
 20
-91.95815999999999
 10
131.865116
 20
-91.967812
 10
131.78917
 20
-91.978734
 10
131.71322400000003
 20
-91.990672
 10
131.637278
 20
-92.003626
 10
131.56133200000002
 20
-92.017342
 10
131.48564000000002
 20
-92.03182
 10
131.409948
 20
-92.04706
 10
131.33451000000002
 20
-92.06306199999999
 10
131.259072
 20
-92.079572
 10
131.183888
 20
-92.09658999999999
 10
131.108704
 20
-92.113862
 10
131.033774
 20
-92.131388
 10
130.959098
 20
-92.14916799999999
 10
130.88467599999998
 20
-92.167202
 10
130.810254
 20
-92.185236
 10
130.516884
 20
-92.25686400000001
 10
130.22351400000002
 20
-92.328492
 10
129.930144
 20
-92.40012
 10
129.63677400000003
 20
-92.47174799999999
 10
129.34340400000002
 20
-92.54337599999998
 10
129.05003400000004
 20
-92.61500399999998
 10
128.75666400000006
 20
-92.68663199999997
 10
128.46329400000005
 20
-92.75825999999998
 10
128.16992400000007
 20
-92.82988799999997
 10
127.87655400000007
 20
-92.90151599999996
 10
127.58318400000007
 20
-92.97314399999996
 10
127.28981400000008
 20
-93.04477199999995
 10
126.99644400000008
 20
-93.11639999999996
 10
126.70307400000009
 20
-93.18802799999995
 10
126.4097040000001
 20
-93.25965599999994
 10
126.11633400000011
 20
-93.33128399999994
 10
125.82296400000011
 20
-93.40291199999993
 10
125.52959400000012
 20
-93.47453999999993
 10
125.23622400000012
 20
-93.54616799999992
 10
124.94285400000014
 20
-93.61779599999991
 10
124.64948400000014
 20
-93.68942399999992
 10
124.35611400000015
 20
-93.7610519999999
 10
124.06274400000015
 20
-93.83267999999991
 10
123.76937400000016
 20
-93.9043079999999
 10
123.47600400000017
 20
-93.97593599999989
 10
123.18263400000018
 20
-94.0475639999999
 10
122.88926400000018
 20
-94.11919199999988
 10
122.59589400000019
 20
-94.19081999999989
 10
122.30252400000019
 20
-94.26244799999988
 10
122.00915400000021
 20
-94.33407599999987
 10
121.71578400000021
 20
-94.40570399999987
 10
121.42241400000022
 20
-94.47733199999986
 10
121.20575200000022
 20
-94.53067199999985
 10
120.98807400000021
 20
-94.58477399999987
 10
120.76988800000021
 20
-94.63989199999986
 10
120.5514480000002
 20
-94.69627999999986
 10
120.33275400000021
 20
-94.75393799999985
 10
120.11406000000021
 20
-94.81337399999984
 10
119.8956200000002
 20
-94.87458799999985
 10
119.67768800000022
 20
-94.93783399999985
 10
119.4605180000002
 20
-95.00336599999984
 10
119.2441100000002
 20
-95.07143799999983
 10
119.02871800000021
 20
-95.14204999999984
 10
118.81459600000021
 20
-95.21570999999985
 10
118.60199800000021
 20
-95.29241799999986
 10
118.39117800000021
 20
-95.37242799999984
 10
118.18213600000021
 20
-95.45599399999985
 10
117.97538000000021
 20
-95.54311599999986
 10
117.77091000000021
 20
-95.63430199999985
 10
117.56898000000021
 20
-95.72955199999986
 10
117.36984400000021
 20
-95.82911999999985
 10
117.1735020000002
 20
-95.93325999999986
 10
116.98020800000019
 20
-96.04222599999984
 10
116.7904700000002
 20
-96.15601799999985
 10
116.6042880000002
 20
-96.27488999999984
 10
116.4216620000002
 20
-96.39934999999986
 10
116.2431000000002
 20
-96.52914399999986
 10
116.0686020000002
 20
-96.66477999999985
 10
115.8986760000002
 20
-96.80651199999986
 10
115.7333220000002
 20
-96.95433999999985
 10
115.5725400000002
 20
-97.10851799999986
 10
115.4168380000002
 20
-97.26929999999986
 10
115.26647000000021
 20
-97.43693999999986
 10
115.1214360000002
 20
-97.61169199999986
 10
114.9512560000002
 20
-97.83571999999985
 10
114.7930140000002
 20
-98.06558999999986
 10
114.6462020000002
 20
-98.30130199999985
 10
114.51056600000021
 20
-98.54260199999985
 10
114.38585200000021
 20
-98.78898199999986
 10
114.27155200000021
 20
-99.04044199999986
 10
114.16741200000021
 20
-99.29647399999985
 10
114.07317800000021
 20
-99.55707799999986
 10
113.98834200000022
 20
-99.82174599999985
 10
113.91265000000021
 20
-100.09022399999985
 10
113.8455940000002
 20
-100.36225799999985
 10
113.78692000000021
 20
-100.63784799999985
 10
113.73637400000021
 20
-100.91648599999985
 10
113.6934480000002
 20
-101.19791799999985
 10
113.65788800000021
 20
-101.48188999999985
 10
113.6294400000002
 20
-101.76814799999985
 10
113.6075960000002
 20
-102.05643799999984
 10
113.59210200000021
 20
-102.34625199999985
 10
113.58270400000022
 20
-102.63758999999985
 10
113.57889400000022
 20
-102.93019799999985
 10
113.58041800000021
 20
-103.22356799999984
 10
113.5867680000002
 20
-103.51769999999985
 10
113.59769000000021
 20
-103.81233999999985
 10
113.6129300000002
 20
-104.10697999999987
 10
113.63198000000021
 20
-104.40161999999987
 10
113.65458600000021
 20
-104.69575199999987
 10
113.6804940000002
 20
-104.98912199999987
 10
113.7091960000002
 20
-105.28147599999987
 10
113.7404380000002
 20
-105.57281399999987
 10
113.7739660000002
 20
-105.86262799999987
 10
113.8092720000002
 20
-106.15066399999986
 10
113.8458480000002
 20
-106.43666799999987
 10
113.9698000000002
 20
-107.36148199999987
 10
114.0993400000002
 20
-108.28553399999987
 10
114.23446800000019
 20
-109.20882399999986
 10
114.37518400000019
 20
-110.13109799999985
 10
114.52148800000019
 20
-111.05235599999986
 10
114.6733800000002
 20
-111.97259799999985
 10
114.8308600000002
 20
-112.89182399999986
 10
114.9939280000002
 20
-113.81003399999986
 10
115.1625840000002
 20
-114.72722799999985
 10
115.33682800000018
 20
-115.64315199999986
 10
115.51640600000019
 20
-116.55805999999986
 10
115.70157200000018
 20
-117.47169799999985
 10
115.89232600000018
 20
-118.38406599999985
 10
116.08866800000018
 20
-119.29516399999984
 10
116.29034400000018
 20
-120.20499199999983
 10
116.49760800000017
 20
-121.11354999999983
 10
116.71046000000018
 20
-122.02058399999984
 10
116.92864600000017
 20
-122.92634799999983
 10
117.15242000000016
 20
-123.83058799999984
 10
117.38152800000016
 20
-124.73330399999983
 10
117.61622400000016
 20
-125.63449599999983
 10
117.85625400000015
 20
-126.53416399999983
 10
118.10161800000016
 20
-127.43205399999984
 10
118.35257000000016
 20
-128.32841999999982
 10
118.60885600000016
 20
-129.22300799999982
 10
118.87047600000015
 20
-130.11607199999983
 10
119.13768400000016
 20
-131.00735799999984
 10
119.41022600000015
 20
-131.89686599999982
 10
119.68810200000016
 20
-132.78459599999982
 10
119.97131200000015
 20
-133.6702939999998
 10
120.25985600000016
 20
-134.55421399999983
 10
120.55373400000016
 20
-135.4361019999998
 10
120.59462800000016
 20
-135.5496399999998
 10
120.63958600000016
 20
-135.66063799999984
 10
120.68860800000016
 20
-135.76884199999984
 10
120.74144000000017
 20
-135.8742519999998
 10
120.79808200000016
 20
-135.97686799999983
 10
120.85853400000016
 20
-136.07643599999983
 10
120.92254200000016
 20
-136.17295599999983
 10
120.99010600000017
 20
-136.26642799999985
 10
121.06097200000018
 20
-136.35659799999985
 10
121.13514000000016
 20
-136.44346599999986
 10
121.21235600000016
 20
-136.52703199999985
 10
121.29262000000016
 20
-136.60704199999986
 10
121.37567800000015
 20
-136.68349599999988
 10
121.46153000000015
 20
-136.75639399999986
 10
121.54992200000017
 20
-136.82548199999988
 10
121.64085400000016
 20
-136.89075999999986
 10
121.73432600000017
 20
-136.95222799999985
 10
121.83008400000017
 20
-137.00988599999985
 10
121.92812800000017
 20
-137.06347999999986
 10
122.02820400000017
 20
-137.11300999999986
 10
122.13031200000017
 20
-137.15822199999988
 10
122.23419800000016
 20
-137.19911599999986
 10
122.33986200000017
 20
-137.23569199999986
 10
122.44705000000017
 20
-137.26769599999986
 10
122.55576200000017
 20
-137.29538199999985
 10
122.66574400000017
 20
-137.31824199999986
 10
122.77699600000017
 20
-137.33652999999987
 10
122.88951800000017
 20
-137.34999199999987
 10
123.00305600000016
 20
-137.35862799999987
 10
123.11761000000017
 20
-137.36243799999986
 10
123.23292600000018
 20
-137.36116799999988
 10
123.34875000000018
 20
-137.35481799999988
 10
123.37542000000018
 20
-137.35278599999987
 10
123.40209000000019
 20
-137.35075399999985
 10
123.4287600000002
 20
-137.34872199999984
 10
123.45543000000019
 20
-137.34668999999982
 10
123.4821000000002
 20
-137.3446579999998
 10
123.5087700000002
 20
-137.34262599999983
 10
123.53544000000021
 20
-137.3405939999998
 10
123.56211000000022
 20
-137.3385619999998
 10
123.58878000000021
 20
-137.33652999999978
 10
123.61545000000022
 20
-137.33449799999977
 10
123.64212000000022
 20
-137.33246599999976
 10
123.66879000000023
 20
-137.33043399999974
 10
123.69546000000024
 20
-137.32840199999976
 10
123.72213000000023
 20
-137.32636999999974
 10
123.74880000000024
 20
-137.32433799999973
 10
123.77547000000025
 20
-137.3223059999997
 10
123.80214000000025
 20
-137.3202739999997
 10
123.82881000000026
 20
-137.31824199999969
 10
123.85522600000026
 20
-137.3162099999997
 10
123.88164200000026
 20
-137.31417799999969
 10
123.90805800000025
 20
-137.31214599999967
 10
123.93447400000024
 20
-137.31011399999966
 10
123.96089000000023
 20
-137.30808199999964
 10
123.98730600000023
 20
-137.30579599999965
 10
124.01372200000023
 20
-137.30376399999963
 10
124.04013800000023
 20
-137.30147799999963
 10
124.06630000000023
 20
-137.29919199999964
 10
124.09246200000022
 20
-137.2969059999996
 10
124.11862400000024
 20
-137.2946199999996
 10
124.14478600000024
 20
-137.2923339999996
 10
124.17094800000024
 20
-137.29004799999962
 10
124.19711000000024
 20
-137.28776199999962
 10
124.25095800000024
 20
-137.2821739999996
 10
124.30429800000023
 20
-137.2745539999996
 10
124.35713000000024
 20
-137.2649019999996
 10
124.40945400000024
 20
-137.25347199999962
 10
124.46127000000024
 20
-137.24000999999961
 10
124.51232400000025
 20
-137.22476999999964
 10
124.56287000000026
 20
-137.20775199999963
 10
124.61265400000026
 20
-137.1887019999996
 10
124.66167600000026
 20
-137.1678739999996
 10
124.70968200000026
 20
-137.1452679999996
 10
124.75692600000026
 20
-137.1211379999996
 10
124.80315400000026
 20
-137.0952299999996
 10
124.84862000000025
 20
-137.0677979999996
 10
124.89281600000025
 20
-137.0385879999996
 10
124.93599600000026
 20
-137.0078539999996
 10
124.97816000000026
 20
-136.97559599999963
 10
125.01905400000025
 20
-136.94181399999962
 10
125.05893200000025
 20
-136.9065079999996
 10
125.09754000000025
 20
-136.86967799999962
 10
125.13462400000024
 20
-136.83132399999963
 10
125.17043800000026
 20
-136.7914459999996
 10
125.20498200000026
 20
-136.75029799999962
 10
125.23800200000026
 20
-136.7078799999996
 10
125.26949800000027
 20
-136.6639379999996
 10
125.29947000000027
 20
-136.6187259999996
 10
125.32791800000027
 20
-136.5722439999996
 10
125.35458800000028
 20
-136.5244919999996
 10
125.37973400000027
 20
-136.47572399999962
 10
125.40310200000027
 20
-136.42568599999962
 10
125.42469200000026
 20
-136.3746319999996
 10
125.44450400000025
 20
-136.3223079999996
 10
125.46228400000025
 20
-136.26896799999957
 10
125.49327200000026
 20
-136.1747339999996
 10
125.52680000000026
 20
-136.08126199999958
 10
125.56286800000026
 20
-135.98855199999957
 10
125.60147600000026
 20
-135.89685799999958
 10
125.64262400000025
 20
-135.80617999999959
 10
125.68605800000024
 20
-135.7165179999996
 10
125.73177800000025
 20
-135.6278719999996
 10
125.77978400000025
 20
-135.54049599999956
 10
125.83007600000025
 20
-135.45438999999956
 10
125.88265400000024
 20
-135.36955399999957
 10
125.93726400000024
 20
-135.2862419999996
 10
125.99390600000024
 20
-135.20445399999957
 10
126.05258000000025
 20
-135.12418999999957
 10
126.11328600000023
 20
-135.0454499999996
 10
126.17602400000024
 20
-134.96848799999958
 10
126.24054000000025
 20
-134.89330399999957
 10
126.30683400000025
 20
-134.81989799999957
 10
126.37490600000024
 20
-134.74852399999958
 10
126.44475600000024
 20
-134.6789279999996
 10
126.51613000000025
 20
-134.6113639999996
 10
126.58902800000024
 20
-134.5460859999996
 10
126.66345000000024
 20
-134.4828399999996
 10
126.73939600000023
 20
-134.42187999999962
 10
126.81686600000023
 20
-134.3632059999996
 10
126.89560600000023
 20
-134.3070719999996
 10
126.97561600000023
 20
-134.25322399999962
 10
127.05689600000024
 20
-134.2019159999996
 10
127.13944600000023
 20
-134.1534019999996
 10
127.22326600000022
 20
-134.1074279999996
 10
127.30810200000022
 20
-134.0642479999996
 10
127.39395400000024
 20
-134.0238619999996
 10
127.48082200000023
 20
-133.9862699999996
 10
127.59309000000023
 20
-133.9415659999996
 10
127.70434200000022
 20
-133.90041799999958
 10
127.81457800000022
 20
-133.86257199999957
 10
127.92405200000023
 20
-133.8280279999996
 10
128.0327640000002
 20
-133.79678599999957
 10
128.14071400000023
 20
-133.76833799999957
 10
128.24815600000022
 20
-133.74293799999958
 10
128.35509000000022
 20
-133.72007799999957
 10
128.46151600000022
 20
-133.7000119999996
 10
128.56743400000022
 20
-133.68223199999957
 10
128.6730980000002
 20
-133.66673799999955
 10
128.77876200000023
 20
-133.65352999999956
 10
128.88417200000023
 20
-133.64235399999956
 10
128.9895820000002
 20
-133.63320999999956
 10
129.09524600000023
 20
-133.62584399999957
 10
129.20091000000022
 20
-133.62000199999957
 10
129.30708200000024
 20
-133.61568399999956
 10
129.41350800000023
 20
-133.61288999999957
 10
129.52044200000023
 20
-133.61111199999957
 10
129.62788400000022
 20
-133.6106039999996
 10
129.7358340000002
 20
-133.61111199999957
 10
129.84454600000024
 20
-133.61238199999957
 10
129.9540200000002
 20
-133.61441399999958
 10
130.06425600000023
 20
-133.61695399999957
 10
130.1755080000002
 20
-133.62000199999957
 10
130.28777600000024
 20
-133.62330399999956
 10
130.4013140000002
 20
-133.62660599999958
 10
130.51612200000022
 20
-133.6299079999996
 10
130.6322000000002
 20
-133.6332099999996
 10
130.74954800000023
 20
-133.63625799999957
 10
130.8684200000002
 20
-133.63879799999958
 10
130.9888160000002
 20
-133.6408299999996
 10
131.3347640000002
 20
-133.64616399999957
 10
131.6807120000002
 20
-133.65149799999958
 10
132.0266600000002
 20
-133.65657799999957
 10
132.37260800000018
 20
-133.66165799999956
 10
132.71855600000018
 20
-133.66673799999955
 10
133.06450400000017
 20
-133.67181799999955
 10
133.41045200000016
 20
-133.67689799999954
 10
133.75640000000016
 20
-133.68197799999953
 10
134.10234800000015
 20
-133.68705799999955
 10
134.44829600000014
 20
-133.69213799999955
 10
134.79424400000013
 20
-133.69721799999954
 10
135.14019200000013
 20
-133.70229799999953
 10
135.48614000000012
 20
-133.70737799999952
 10
135.8320880000001
 20
-133.71245799999951
 10
136.1780360000001
 20
-133.7175379999995
 10
136.52398400000007
 20
-133.7226179999995
 10
136.86993200000006
 20
-133.7279519999995
 10
137.21588000000006
 20
-133.73328599999948
 10
137.56182800000005
 20
-133.7386199999995
 10
137.90777600000004
 20
-133.74395399999946
 10
138.25372400000003
 20
-133.74928799999947
 10
138.59967200000003
 20
-133.75462199999944
 10
138.94562000000002
 20
-133.75995599999942
 10
139.291568
 20
-133.76528999999942
 10
139.637516
 20
-133.7706239999994
 10
139.983464
 20
-133.7759579999994
 10
140.329412
 20
-133.78129199999938
 10
140.67535999999998
 20
-133.7866259999994
 10
141.02130799999998
 20
-133.79195999999936
 10
141.36725599999997
 20
-133.79729399999937
 10
141.71320399999996
 20
-133.80262799999934
 10
142.05915199999995
 20
-133.80796199999935
 10
142.14271799999995
 20
-133.80973999999932
 10
142.22780799999995
 20
-133.81202599999932
 10
142.31442199999995
 20
-133.81481999999932
 10
142.40230599999995
 20
-133.8178679999993
 10
142.49145999999993
 20
-133.8209159999993
 10
142.58162999999996
 20
-133.8237099999993
 10
142.67256199999994
 20
-133.82624999999928
 10
142.76425599999993
 20
-133.8282819999993
 10
142.85645799999995
 20
-133.8295519999993
 10
142.94891399999995
 20
-133.82980599999928
 10
143.04162399999996
 20
-133.8287899999993
 10
143.13433399999997
 20
-133.82650399999926
 10
143.22704399999998
 20
-133.82269399999927
 10
143.31949999999998
 20
-133.81710599999926
 10
143.411702
 20
-133.80948599999928
 10
143.50339599999998
 20
-133.79983399999927
 10
143.59432799999996
 20
-133.78789599999925
 10
143.68424399999998
 20
-133.77341799999925
 10
143.773144
 20
-133.75614599999926
 10
143.86102799999998
 20
-133.73582599999926
 10
143.947642
 20
-133.71245799999926
 10
144.032732
 20
-133.68578799999926
 10
144.116044
 20
-133.65556199999924
 10
144.197578
 20
-133.62152599999925
 10
144.277334
 20
-133.58367999999925
 10
144.35480399999997
 20
-133.54176999999925
 10
144.430242
 20
-133.49554199999923
 10
144.50314
 20
-133.44474199999922
 10
144.573498
 20
-133.38911599999923
 10
144.641062
 20
-133.3286639999992
 10
144.705832
 20
-133.2631319999992
 10
144.76755400000002
 20
-133.1922659999992
 10
144.85188200000002
 20
-133.08101399999921
 10
144.92706600000002
 20
-132.96518999999918
 10
144.993614
 20
-132.8453019999992
 10
145.051526
 20
-132.72134999999918
 10
145.101564
 20
-132.5938419999992
 10
145.143982
 20
-132.4630319999992
 10
145.179034
 20
-132.3291739999992
 10
145.20722800000001
 20
-132.1922679999992
 10
145.22881800000002
 20
-132.0528219999992
 10
145.24431200000004
 20
-131.9110899999992
 10
145.25396400000002
 20
-131.7673259999992
 10
145.25828200000004
 20
-131.6217839999992
 10
145.25752000000003
 20
-131.4749719999992
 10
145.25218600000005
 20
-131.32688999999922
 10
145.24253400000003
 20
-131.17779199999922
 10
145.22907200000003
 20
-131.0281859999992
 10
145.21205400000002
 20
-130.8780719999992
 10
145.19198800000004
 20
-130.7277039999992
 10
145.16912800000003
 20
-130.5775899999992
 10
145.14398200000002
 20
-130.4277299999992
 10
145.11680400000003
 20
-130.2786319999992
 10
145.08810200000002
 20
-130.1305499999992
 10
145.05813
 20
-129.9834839999992
 10
145.027396
 20
-129.8379419999992
 10
144.996154
 20
-129.69417799999923
 10
144.964912
 20
-129.5524459999992
 10
144.933924
 20
-129.41299999999922
 10
144.903698
 20
-129.27609399999923
 10
144.87448799999999
 20
-129.14198199999922
 10
144.84654799999998
 20
-129.0109179999992
 10
144.82064
 20
-128.88315599999922
 10
144.79676399999997
 20
-128.75920399999922
 10
144.66900199999998
 20
-128.07518199999922
 10
144.53920799999997
 20
-127.39166799999923
 10
144.40712799999997
 20
-126.70866199999922
 10
144.27276199999997
 20
-126.02616399999923
 10
144.13610999999997
 20
-125.34391999999923
 10
143.99742599999996
 20
-124.66218399999921
 10
143.85645599999998
 20
-123.98095599999921
 10
143.7132
 20
-123.30023599999922
 10
143.56791199999998
 20
-122.62002399999922
 10
143.420338
 20
-121.94031999999922
 10
143.27047799999997
 20
-121.26112399999923
 10
143.118586
 20
-120.58268999999923
 10
142.964408
 20
-119.90476399999923
 10
142.807944
 20
-119.22734599999923
 10
142.649448
 20
-118.55043599999924
 10
142.488666
 20
-117.87403399999923
 10
142.32559799999996
 20
-117.19839399999923
 10
142.160498
 20
-116.52326199999922
 10
141.99311199999997
 20
-115.84863799999921
 10
141.82369399999996
 20
-115.17452199999921
 10
141.65198999999996
 20
-114.50116799999921
 10
141.47799999999998
 20
-113.82832199999922
 10
141.301978
 20
-113.1562379999992
 10
141.12366999999998
 20
-112.4846619999992
 10
140.94332999999997
 20
-111.81384799999921
 10
140.76070399999995
 20
-111.1435419999992
 10
140.57604599999996
 20
-110.4739979999992
 10
140.38910199999995
 20
-109.8049619999992
 10
140.19987199999997
 20
-109.1366879999992
 10
140.00860999999995
 20
-108.46917599999921
 10
139.81506199999995
 20
-107.8021719999992
 10
139.61948199999998
 20
-107.1359299999992
 10
139.56410999999997
 20
-106.94898599999921
 10
139.508738
 20
-106.76204199999921
 10
139.45311199999998
 20
-106.57535199999921
 10
139.39723199999997
 20
-106.38866199999921
 10
139.34135199999997
 20
-106.2019719999992
 10
139.28521799999996
 20
-106.0152819999992
 10
139.22882999999996
 20
-105.8288459999992
 10
139.17244199999996
 20
-105.64240999999922
 10
139.11579999999998
 20
-105.45597399999922
 10
139.05890399999998
 20
-105.26953799999922
 10
139.00200799999996
 20
-105.08310199999923
 10
138.94485799999995
 20
-104.89691999999923
 10
138.88745399999996
 20
-104.71073799999922
 10
138.83004999999994
 20
-104.52455599999922
 10
138.77239199999997
 20
-104.33837399999922
 10
138.71447999999998
 20
-104.15244599999922
 10
138.656568
 20
-103.96651799999921
 10
138.59840199999996
 20
-103.78058999999921
 10
138.53998199999998
 20
-103.59466199999919
 10
138.48156199999997
 20
-103.40873399999919
 10
138.42288799999997
 20
-103.2230599999992
 10
138.36395999999996
 20
-103.03738599999919
 10
138.30503199999998
 20
-102.8517119999992
 10
138.24585
 20
-102.66603799999919
 10
138.18641399999998
 20
-102.48061799999918
 10
138.12697799999998
 20
-102.29519799999919
 10
138.06728799999996
 20
-102.10977799999918
 10
138.007344
 20
-101.92435799999917
 10
137.9474
 20
-101.73919199999918
 10
137.88720199999997
 20
-101.55402599999918
 10
137.82674999999998
 20
-101.36885999999919
 10
137.76629799999995
 20
-101.18369399999919
 10
137.70889399999996
 20
-101.00690999999918
 10
137.65199799999994
 20
-100.82885599999918
 10
137.59560999999997
 20
-100.64978599999918
 10
137.53947599999995
 20
-100.46995399999918
 10
137.48384999999993
 20
-100.28935999999918
 10
137.42847799999996
 20
-100.10800399999917
 10
137.37310599999995
 20
-99.92588599999918
 10
137.31773399999997
 20
-99.74325999999918
 10
137.26236199999997
 20
-99.56012599999917
 10
137.20699
 20
-99.37673799999918
 10
137.15136399999997
 20
-99.19309599999917
 10
137.09548399999997
 20
-99.00919999999918
 10
137.03934999999996
 20
-98.82530399999918
 10
136.98270799999997
 20
-98.64140799999919
 10
136.92555799999997
 20
-98.45751199999918
 10
136.86764599999998
 20
-98.27386999999919
 10
136.80922599999997
 20
-98.09048199999918
 10
136.750044
 20
-97.90760199999919
 10
136.689846
 20
-97.72522999999919
 10
136.628886
 20
-97.54336599999918
 10
136.56690999999998
 20
-97.36226399999917
 10
136.503664
 20
-97.18192399999917
 10
136.43940199999997
 20
-97.00234599999918
 10
136.37386999999995
 20
-96.82378399999918
 10
136.30681399999997
 20
-96.64623799999919
 10
136.23848799999996
 20
-96.46970799999919
 10
136.16863799999996
 20
-96.29444799999918
 10
136.09700999999995
 20
-96.12045799999919
 10
136.02385799999996
 20
-95.94799199999919
 10
135.94892799999997
 20
-95.77704999999919
 10
135.87196599999996
 20
-95.6076319999992
 10
135.79322599999998
 20
-95.4399919999992
  0
ENDSEC
  0
SECTION
  2
OBJECTS
  0
DICTIONARY
  5
A
330
0
100
AcDbDictionary
281
1
  3
ACAD_COLOR
350
B
  3
ACAD_GROUP
350
C
  3
ACAD_LAYOUT
350
D
  3
ACAD_MATERIAL
350
E
  3
ACAD_MLEADERSTYLE
350
F
  3
ACAD_MLINESTYLE
350
10
  3
ACAD_PLOTSETTINGS
350
11
  3
ACAD_PLOTSTYLENAME
350
12
  3
ACAD_SCALELIST
350
14
  3
ACAD_TABLESTYLE
350
15
  3
ACAD_VISUALSTYLE
350
16
  3
EZDXF_META
350
2D
  0
DICTIONARY
  5
B
330
A
100
AcDbDictionary
281
1
  0
DICTIONARY
  5
C
330
A
100
AcDbDictionary
281
1
  0
DICTIONARY
  5
D
330
A
100
AcDbDictionary
281
1
  3
Model
350
1A
  3
Layout1
350
1E
  0
DICTIONARY
  5
E
330
A
100
AcDbDictionary
281
1
  3
ByBlock
350
1F
  3
ByLayer
350
20
  3
Global
350
21
  0
DICTIONARY
  5
F
330
A
100
AcDbDictionary
281
1
  3
Standard
350
2C
  0
DICTIONARY
  5
10
330
A
100
AcDbDictionary
281
1
  3
Standard
350
22
  0
DICTIONARY
  5
11
330
A
100
AcDbDictionary
281
1
  0
ACDBDICTIONARYWDFLT
  5
12
330
A
100
AcDbDictionary
281
1
  3
Normal
350
13
100
AcDbDictionaryWithDefault
340
13
  0
ACDBPLACEHOLDER
  5
13
330
12
  0
DICTIONARY
  5
14
330
A
100
AcDbDictionary
281
1
  0
DICTIONARY
  5
15
330
A
100
AcDbDictionary
281
1
  0
DICTIONARY
  5
16
330
A
100
AcDbDictionary
281
1
  0
LAYOUT
  5
1A
330
D
100
AcDbPlotSettings
  1

  4
A3
  6

 40
7.5
 41
20.0
 42
7.5
 43
20.0
 44
420.0
 45
297.0
 46
0.0
 47
0.0
 48
0.0
 49
0.0
140
0.0
141
0.0
142
1.0
143
1.0
 70
1024
 72
1
 73
0
 74
5
  7

 75
16
 76
0
 77
2
 78
300
147
1.0
148
0.0
149
0.0
100
AcDbLayout
  1
Model
 70
1
 71
0
 10
0.0
 20
0.0
 11
420.0
 21
297.0
 12
0.0
 22
0.0
 32
0.0
 14
1e+20
 24
1e+20
 34
1e+20
 15
-1e+20
 25
-1e+20
 35
-1e+20
146
0.0
 13
0.0
 23
0.0
 33
0.0
 16
1.0
 26
0.0
 36
0.0
 17
0.0
 27
1.0
 37
0.0
 76
1
330
17
  0
LAYOUT
  5
1E
330
D
100
AcDbPlotSettings
  1

  4
A3
  6

 40
7.5
 41
20.0
 42
7.5
 43
20.0
 44
420.0
 45
297.0
 46
0.0
 47
0.0
 48
0.0
 49
0.0
140
0.0
141
0.0
142
1.0
143
1.0
 70
0
 72
1
 73
0
 74
5
  7

 75
16
 76
0
 77
2
 78
300
147
1.0
148
0.0
149
0.0
100
AcDbLayout
  1
Layout1
 70
1
 71
1
 10
0.0
 20
0.0
 11
420.0
 21
297.0
 12
0.0
 22
0.0
 32
0.0
 14
1e+20
 24
1e+20
 34
1e+20
 15
-1e+20
 25
-1e+20
 35
-1e+20
146
0.0
 13
0.0
 23
0.0
 33
0.0
 16
1.0
 26
0.0
 36
0.0
 17
0.0
 27
1.0
 37
0.0
 76
1
330
1B
  0
MATERIAL
  5
1F
102
{ACAD_REACTORS
330
E
102
}
330
E
100
AcDbMaterial
  1
ByBlock
  2

 70
0
 40
1.0
 71
1
 41
1.0
 91
-1023410177
 42
1.0
 72
1
  3

 73
1
 74
1
 75
1
 44
0.5
 73
0
 45
1.0
 46
1.0
 77
1
  4

 78
1
 79
1
170
1
 48
1.0
171
1
  6

172
1
173
1
174
1
140
1.0
141
1.0
175
1
  7

176
1
177
1
178
1
143
1.0
179
1
  8

270
1
271
1
272
1
145
1.0
146
1.0
273
1
  9

274
1
275
1
276
1
 42
1.0
 72
1
  3

 73
1
 74
1
 75
1
 94
63
  0
MATERIAL
  5
20
102
{ACAD_REACTORS
330
E
102
}
330
E
100
AcDbMaterial
  1
ByLayer
  2

 70
0
 40
1.0
 71
1
 41
1.0
 91
-1023410177
 42
1.0
 72
1
  3

 73
1
 74
1
 75
1
 44
0.5
 73
0
 45
1.0
 46
1.0
 77
1
  4

 78
1
 79
1
170
1
 48
1.0
171
1
  6

172
1
173
1
174
1
140
1.0
141
1.0
175
1
  7

176
1
177
1
178
1
143
1.0
179
1
  8

270
1
271
1
272
1
145
1.0
146
1.0
273
1
  9

274
1
275
1
276
1
 42
1.0
 72
1
  3

 73
1
 74
1
 75
1
 94
63
  0
MATERIAL
  5
21
102
{ACAD_REACTORS
330
E
102
}
330
E
100
AcDbMaterial
  1
Global
  2

 70
0
 40
1.0
 71
1
 41
1.0
 91
-1023410177
 42
1.0
 72
1
  3

 73
1
 74
1
 75
1
 44
0.5
 73
0
 45
1.0
 46
1.0
 77
1
  4

 78
1
 79
1
170
1
 48
1.0
171
1
  6

172
1
173
1
174
1
140
1.0
141
1.0
175
1
  7

176
1
177
1
178
1
143
1.0
179
1
  8

270
1
271
1
272
1
145
1.0
146
1.0
273
1
  9

274
1
275
1
276
1
 42
1.0
 72
1
  3

 73
1
 74
1
 75
1
 94
63
  0
MLINESTYLE
  5
22
102
{ACAD_REACTORS
330
10
102
}
330
10
100
AcDbMlineStyle
  2
Standard
 70
0
  3

 62
256
 51
90.0
 52
90.0
 71
2
 49
0.5
 62
256
  6
BYLAYER
 49
-0.5
 62
256
  6
BYLAYER
  0
MLEADERSTYLE
  5
2C
102
{ACAD_REACTORS
330
F
102
}
330
F
100
AcDbMLeaderStyle
179
2
170
2
171
1
172
0
 90
2
 40
0.0
 41
0.0
173
1
 91
-1056964608
 92
-2
290
1
 42
2.0
291
1
 43
8.0
  3
Standard
 44
4.0
300

342
29
174
1
175
1
176
0
178
1
 93
-1056964608
 45
4.0
292
0
297
0
 46
4.0
 94
-1056964608
 47
1.0
 49
1.0
140
1.0
294
1
141
0.0
177
0
142
1.0
295
0
296
0
143
3.75
271
0
272
9
273
9
  0
DICTIONARY
  5
2D
330
A
100
AcDbDictionary
280
1
281
1
  3
CREATED_BY_EZDXF
350
2E
  3
WRITTEN_BY_EZDXF
350
37
  0
DICTIONARYVAR
  5
2E
330
2D
100
DictionaryVariables
280
0
  1
1.4.3 @ 2026-04-08T01:02:29.099507+00:00
  0
DICTIONARYVAR
  5
37
330
2D
100
DictionaryVariables
280
0
  1
1.4.3 @ 2026-04-09T21:09:48.722447+00:00
  0
ENDSEC
  0
EOF
