  0
SECTION
  2
HEADER
  9
$ACADVER
  1
AC1024
  9
$ACADMAINTVER
 70
6
  9
$DWGCODEPAGE
  3
ANSI_1252
  9
$LASTSAVEDBY
  1
ezdxf
  9
$INSBASE
 10
0.0
 20
0.0
 30
0.0
  9
$EXTMIN
 10
1e+20
 20
1e+20
 30
1e+20
  9
$EXTMAX
 10
-1e+20
 20
-1e+20
 30
-1e+20
  9
$LIMMIN
 10
0.0
 20
0.0
  9
$LIMMAX
 10
420.0
 20
297.0
  9
$ORTHOMODE
 70
0
  9
$REGENMODE
 70
1
  9
$FILLMODE
 70
1
  9
$QTEXTMODE
 70
0
  9
$MIRRTEXT
 70
1
  9
$LTSCALE
 40
1.0
  9
$ATTMODE
 70
1
  9
$TEXTSIZE
 40
2.5
  9
$TRACEWID
 40
1.0
  9
$TEXTSTYLE
  7
Standard
  9
$CLAYER
  8
0
  9
$CELTYPE
  6
ByLayer
  9
$CECOLOR
 62
256
  9
$CELTSCALE
 40
1.0
  9
$DISPSILH
 70
0
  9
$DIMSCALE
 40
1.0
  9
$DIMASZ
 40
2.5
  9
$DIMEXO
 40
0.625
  9
$DIMDLI
 40
3.75
  9
$DIMRND
 40
0.0
  9
$DIMDLE
 40
0.0
  9
$DIMEXE
 40
1.25
  9
$DIMTP
 40
0.0
  9
$DIMTM
 40
0.0
  9
$DIMTXT
 40
2.5
  9
$DIMCEN
 40
2.5
  9
$DIMTSZ
 40
0.0
  9
$DIMTOL
 70
0
  9
$DIMLIM
 70
0
  9
$DIMTIH
 70
0
  9
$DIMTOH
 70
0
  9
$DIMSE1
 70
0
  9
$DIMSE2
 70
0
  9
$DIMTAD
 70
1
  9
$DIMZIN
 70
8
  9
$DIMBLK
  1

  9
$DIMASO
 70
1
  9
$DIMSHO
 70
1
  9
$DIMPOST
  1

  9
$DIMAPOST
  1

  9
$DIMALT
 70
0
  9
$DIMALTD
 70
3
  9
$DIMALTF
 40
0.03937007874
  9
$DIMLFAC
 40
1.0
  9
$DIMTOFL
 70
1
  9
$DIMTVP
 40
0.0
  9
$DIMTIX
 70
0
  9
$DIMSOXD
 70
0
  9
$DIMSAH
 70
0
  9
$DIMBLK1
  1

  9
$DIMBLK2
  1

  9
$DIMSTYLE
  2
ISO-25
  9
$DIMCLRD
 70
0
  9
$DIMCLRE
 70
0
  9
$DIMCLRT
 70
0
  9
$DIMTFAC
 40
1.0
  9
$DIMGAP
 40
0.625
  9
$DIMJUST
 70
0
  9
$DIMSD1
 70
0
  9
$DIMSD2
 70
0
  9
$DIMTOLJ
 70
0
  9
$DIMTZIN
 70
8
  9
$DIMALTZ
 70
0
  9
$DIMALTTZ
 70
0
  9
$DIMUPT
 70
0
  9
$DIMDEC
 70
2
  9
$DIMTDEC
 70
2
  9
$DIMALTU
 70
2
  9
$DIMALTTD
 70
3
  9
$DIMTXSTY
  7
Standard
  9
$DIMAUNIT
 70
0
  9
$DIMADEC
 70
0
  9
$DIMALTRND
 40
0.0
  9
$DIMAZIN
 70
0
  9
$DIMDSEP
 70
44
  9
$DIMATFIT
 70
3
  9
$DIMFRAC
 70
0
  9
$DIMLDRBLK
  1

  9
$DIMLUNIT
 70
2
  9
$DIMLWD
 70
-2
  9
$DIMLWE
 70
-2
  9
$DIMTMOVE
 70
0
  9
$DIMFXL
 40
1.0
  9
$DIMFXLON
 70
0
  9
$DIMJOGANG
 40
0.785398163397
  9
$DIMTFILL
 70
0
  9
$DIMTFILLCLR
 70
0
  9
$DIMARCSYM
 70
0
  9
$DIMLTYPE
  6

  9
$DIMLTEX1
  6

  9
$DIMLTEX2
  6

  9
$DIMTXTDIRECTION
 70
0
  9
$LUNITS
 70
2
  9
$LUPREC
 70
4
  9
$SKETCHINC
 40
1.0
  9
$FILLETRAD
 40
10.0
  9
$AUNITS
 70
0
  9
$AUPREC
 70
2
  9
$MENU
  1
.
  9
$ELEVATION
 40
0.0
  9
$PELEVATION
 40
0.0
  9
$THICKNESS
 40
0.0
  9
$LIMCHECK
 70
0
  9
$CHAMFERA
 40
0.0
  9
$CHAMFERB
 40
0.0
  9
$CHAMFERC
 40
0.0
  9
$CHAMFERD
 40
0.0
  9
$SKPOLY
 70
0
  9
$TDCREATE
 40
2461140.590138889
  9
$TDUCREATE
 40
2458532.153996898
  9
$TDUPDATE
 40
2461140.590138889
  9
$TDUUPDATE
 40
2458532.1544311
  9
$TDINDWG
 40
0.0
  9
$TDUSRTIMER
 40
0.0
  9
$USRTIMER
 70
1
  9
$ANGBASE
 50
0.0
  9
$ANGDIR
 70
0
  9
$PDMODE
 70
0
  9
$PDSIZE
 40
0.0
  9
$PLINEWID
 40
0.0
  9
$SPLFRAME
 70
0
  9
$SPLINETYPE
 70
6
  9
$SPLINESEGS
 70
8
  9
$HANDSEED
  5
39
  9
$SURFTAB1
 70
6
  9
$SURFTAB2
 70
6
  9
$SURFTYPE
 70
6
  9
$SURFU
 70
6
  9
$SURFV
 70
6
  9
$UCSBASE
  2

  9
$UCSNAME
  2

  9
$UCSORG
 10
0.0
 20
0.0
 30
0.0
  9
$UCSXDIR
 10
1.0
 20
0.0
 30
0.0
  9
$UCSYDIR
 10
0.0
 20
1.0
 30
0.0
  9
$UCSORTHOREF
  2

  9
$UCSORTHOVIEW
 70
0
  9
$UCSORGTOP
 10
0.0
 20
0.0
 30
0.0
  9
$UCSORGBOTTOM
 10
0.0
 20
0.0
 30
0.0
  9
$UCSORGLEFT
 10
0.0
 20
0.0
 30
0.0
  9
$UCSORGRIGHT
 10
0.0
 20
0.0
 30
0.0
  9
$UCSORGFRONT
 10
0.0
 20
0.0
 30
0.0
  9
$UCSORGBACK
 10
0.0
 20
0.0
 30
0.0
  9
$PUCSBASE
  2

  9
$PUCSNAME
  2

  9
$PUCSORG
 10
0.0
 20
0.0
 30
0.0
  9
$PUCSXDIR
 10
1.0
 20
0.0
 30
0.0
  9
$PUCSYDIR
 10
0.0
 20
1.0
 30
0.0
  9
$PUCSORTHOREF
  2

  9
$PUCSORTHOVIEW
 70
0
  9
$PUCSORGTOP
 10
0.0
 20
0.0
 30
0.0
  9
$PUCSORGBOTTOM
 10
0.0
 20
0.0
 30
0.0
  9
$PUCSORGLEFT
 10
0.0
 20
0.0
 30
0.0
  9
$PUCSORGRIGHT
 10
0.0
 20
0.0
 30
0.0
  9
$PUCSORGFRONT
 10
0.0
 20
0.0
 30
0.0
  9
$PUCSORGBACK
 10
0.0
 20
0.0
 30
0.0
  9
$USERI1
 70
0
  9
$USERI2
 70
0
  9
$USERI3
 70
0
  9
$USERI4
 70
0
  9
$USERI5
 70
0
  9
$USERR1
 40
0.0
  9
$USERR2
 40
0.0
  9
$USERR3
 40
0.0
  9
$USERR4
 40
0.0
  9
$USERR5
 40
0.0
  9
$WORLDVIEW
 70
1
  9
$SHADEDGE
 70
3
  9
$SHADEDIF
 70
70
  9
$TILEMODE
 70
1
  9
$MAXACTVP
 70
64
  9
$PINSBASE
 10
0.0
 20
0.0
 30
0.0
  9
$PLIMCHECK
 70
0
  9
$PEXTMIN
 10
1e+20
 20
1e+20
 30
1e+20
  9
$PEXTMAX
 10
-1e+20
 20
-1e+20
 30
-1e+20
  9
$PLIMMIN
 10
0.0
 20
0.0
  9
$PLIMMAX
 10
420.0
 20
297.0
  9
$UNITMODE
 70
0
  9
$VISRETAIN
 70
1
  9
$PLINEGEN
 70
0
  9
$PSLTSCALE
 70
1
  9
$TREEDEPTH
 70
3020
  9
$CMLSTYLE
  2
Standard
  9
$CMLJUST
 70
0
  9
$CMLSCALE
 40
20.0
  9
$PROXYGRAPHICS
 70
1
  9
$MEASUREMENT
 70
1
  9
$CELWEIGHT
370
-1
  9
$ENDCAPS
280
0
  9
$JOINSTYLE
280
0
  9
$LWDISPLAY
290
0
  9
$INSUNITS
 70
6
  9
$HYPERLINKBASE
  1

  9
$STYLESHEET
  1

  9
$XEDIT
290
1
  9
$CEPSNTYPE
380
0
  9
$PSTYLEMODE
290
1
  9
$FINGERPRINTGUID
  2
{F79FE188-BF34-4C57-A2DA-C06EC8777741}
  9
$VERSIONGUID
  2
{90FBD959-804F-42A5-A22C-93BC563A5B79}
  9
$EXTNAMES
290
1
  9
$PSVPSCALE
 40
0.0
  9
$OLESTARTUP
290
0
  9
$SORTENTS
280
127
  9
$INDEXCTL
280
0
  9
$HIDETEXT
280
1
  9
$XCLIPFRAME
280
1
  9
$HALOGAP
280
0
  9
$OBSCOLOR
 70
257
  9
$OBSLTYPE
280
0
  9
$INTERSECTIONDISPLAY
280
0
  9
$INTERSECTIONCOLOR
 70
257
  9
$DIMASSOC
280
2
  9
$PROJECTNAME
  1

  9
$CAMERADISPLAY
290
0
  9
$LENSLENGTH
 40
50.0
  9
$CAMERAHEIGHT
 40
0.0
  9
$STEPSPERSEC
 40
24.0
  9
$STEPSIZE
 40
100.0
  9
$3DDWFPREC
 40
2.0
  9
$PSOLWIDTH
 40
0.005
  9
$PSOLHEIGHT
 40
0.08
  9
$LOFTANG1
 40
1.570796326795
  9
$LOFTANG2
 40
1.570796326795
  9
$LOFTMAG1
 40
0.0
  9
$LOFTMAG2
 40
0.0
  9
$LOFTPARAM
 70
7
  9
$LOFTNORMALS
280
1
  9
$LATITUDE
 40
37.795
  9
$LONGITUDE
 40
-122.394
  9
$NORTHDIRECTION
 40
0.0
  9
$TIMEZONE
 70
-8000
  9
$LIGHTGLYPHDISPLAY
280
1
  9
$TILEMODELIGHTSYNCH
280
1
  9
$CMATERIAL
347
20
  9
$SOLIDHIST
280
0
  9
$SHOWHIST
280
1
  9
$DWFFRAME
280
2
  9
$DGNFRAME
280
2
  9
$REALWORLDSCALE
290
1
  9
$INTERFERECOLOR
 62
256
  9
$CSHADOW
280
0
  9
$SHADOWPLANELOCATION
 40
0.0
  0
ENDSEC
  0
SECTION
  2
CLASSES
  0
CLASS
  1
ACDBDICTIONARYWDFLT
  2
AcDbDictionaryWithDefault
  3
ObjectDBX Classes
 90
0
 91
0
280
0
281
0
  0
CLASS
  1
SUN
  2
AcDbSun
  3
SCENEOE
 90
1153
 91
0
280
0
281
0
  0
CLASS
  1
VISUALSTYLE
  2
AcDbVisualStyle
  3
ObjectDBX Classes
 90
4095
 91
0
280
0
281
0
  0
CLASS
  1
MATERIAL
  2
AcDbMaterial
  3
ObjectDBX Classes
 90
1153
 91
0
280
0
281
0
  0
CLASS
  1
SCALE
  2
AcDbScale
  3
ObjectDBX Classes
 90
1153
 91
0
280
0
281
0
  0
CLASS
  1
TABLESTYLE
  2
AcDbTableStyle
  3
ObjectDBX Classes
 90
4095
 91
0
280
0
281
0
  0
CLASS
  1
MLEADERSTYLE
  2
AcDbMLeaderStyle
  3
ACDB_MLEADERSTYLE_CLASS
 90
4095
 91
0
280
0
281
0
  0
CLASS
  1
DICTIONARYVAR
  2
AcDbDictionaryVar
  3
ObjectDBX Classes
 90
0
 91
0
280
0
281
0
  0
CLASS
  1
CELLSTYLEMAP
  2
AcDbCellStyleMap
  3
ObjectDBX Classes
 90
1152
 91
0
280
0
281
0
  0
CLASS
  1
MENTALRAYRENDERSETTINGS
  2
AcDbMentalRayRenderSettings
  3
SCENEOE
 90
1024
 91
0
280
0
281
0
  0
CLASS
  1
ACDBDETAILVIEWSTYLE
  2
AcDbDetailViewStyle
  3
ObjectDBX Classes
 90
1025
 91
0
280
0
281
0
  0
CLASS
  1
ACDBSECTIONVIEWSTYLE
  2
AcDbSectionViewStyle
  3
ObjectDBX Classes
 90
1025
 91
0
280
0
281
0
  0
CLASS
  1
RASTERVARIABLES
  2
AcDbRasterVariables
  3
ISM
 90
0
 91
0
280
0
281
0
  0
CLASS
  1
LAYOUT
  2
AcDbLayout
  3
ObjectDBX Classes
 90
0
 91
0
280
0
281
0
  0
CLASS
  1
ACDBPLACEHOLDER
  2
AcDbPlaceHolder
  3
ObjectDBX Classes
 90
0
 91
0
280
0
281
0
  0
ENDSEC
  0
SECTION
  2
TABLES
  0
TABLE
  2
VPORT
  5
8
330
0
100
AcDbSymbolTable
 70
1
  0
VPORT
  5
23
330
8
100
AcDbSymbolTableRecord
100
AcDbViewportTableRecord
  2
*Active
 70
0
 10
0.0
 20
0.0
 11
1.0
 21
1.0
 12
0.0
 22
0.0
 13
0.0
 23
0.0
 14
0.5
 24
0.5
 15
0.5
 25
0.5
 16
0.0
 26
0.0
 36
1.0
 17
0.0
 27
0.0
 37
0.0
 40
1000.0
 41
1.34
 42
50.0
 43
0.0
 44
0.0
 50
0.0
 51
0.0
 71
0
 72
1000
 73
1
 74
3
 75
0
 76
0
 77
0
 78
0
281
0
 65
0
146
0.0
  0
ENDTAB
  0
TABLE
  2
LTYPE
  5
2
330
0
100
AcDbSymbolTable
 70
3
  0
LTYPE
  5
24
330
2
100
AcDbSymbolTableRecord
100
AcDbLinetypeTableRecord
  2
ByBlock
 70
0
  3

 72
65
 73
0
 40
0.0
  0
LTYPE
  5
25
330
2
100
AcDbSymbolTableRecord
100
AcDbLinetypeTableRecord
  2
ByLayer
 70
0
  3

 72
65
 73
0
 40
0.0
  0
LTYPE
  5
26
330
2
100
AcDbSymbolTableRecord
100
AcDbLinetypeTableRecord
  2
Continuous
 70
0
  3

 72
65
 73
0
 40
0.0
  0
ENDTAB
  0
TABLE
  2
LAYER
  5
1
330
0
100
AcDbSymbolTable
 70
2
  0
LAYER
  5
27
330
1
100
AcDbSymbolTableRecord
100
AcDbLayerTableRecord
  2
0
 70
0
 62
7
  6
Continuous
370
-3
390
13
347
21
  0
LAYER
  5
28
330
1
100
AcDbSymbolTableRecord
100
AcDbLayerTableRecord
  2
Defpoints
 70
0
 62
7
  6
Continuous
290
0
370
-3
390
13
347
21
  0
ENDTAB
  0
TABLE
  2
STYLE
  5
5
330
0
100
AcDbSymbolTable
 70
1
  0
STYLE
  5
29
330
5
100
AcDbSymbolTableRecord
100
AcDbTextStyleTableRecord
  2
Standard
 70
0
 40
0.0
 41
1.0
 50
0.0
 71
0
 42
2.5
  3
txt
  4

  0
ENDTAB
  0
TABLE
  2
VIEW
  5
7
330
0
100
AcDbSymbolTable
 70
0
  0
ENDTAB
  0
TABLE
  2
UCS
  5
6
330
0
100
AcDbSymbolTable
 70
0
  0
ENDTAB
  0
TABLE
  2
APPID
  5
3
330
0
100
AcDbSymbolTable
 70
3
  0
APPID
  5
2A
330
3
100
AcDbSymbolTableRecord
100
AcDbRegAppTableRecord
  2
ACAD
 70
0
  0
APPID
  5
36
330
3
100
AcDbSymbolTableRecord
100
AcDbRegAppTableRecord
  2
HATCHBACKGROUNDCOLOR
 70
0
  0
APPID
  5
37
330
3
100
AcDbSymbolTableRecord
100
AcDbRegAppTableRecord
  2
EZDXF
 70
0
  0
ENDTAB
  0
TABLE
  2
DIMSTYLE
  5
4
330
0
100
AcDbSymbolTable
 70
1
100
AcDbDimStyleTable
  0
DIMSTYLE
105
2B
330
4
100
AcDbSymbolTableRecord
100
AcDbDimStyleTableRecord
  2
Standard
 70
0
 40
1.0
 41
2.5
 42
0.625
 43
3.75
 44
1.25
 45
0.0
 46
0.0
 47
0.0
 48
0.0
 49
2.5
140
2.5
141
2.5
142
0.0
143
0.03937007874
144
1.0
145
0.0
146
1.0
147
0.625
148
0.0
 69
0
 70
0
 71
0
 72
0
 73
0
 74
0
 75
0
 76
0
 77
1
 78
8
 79
3
170
0
171
3
172
1
173
0
174
0
175
0
176
0
177
0
178
0
179
2
271
2
272
2
273
2
274
3
275
0
276
0
277
2
278
44
279
0
280
0
281
0
282
0
283
0
284
8
285
0
286
0
288
0
289
3
290
0
371
-2
372
-2
  0
ENDTAB
  0
TABLE
  2
BLOCK_RECORD
  5
9
330
0
100
AcDbSymbolTable
 70
2
  0
BLOCK_RECORD
  5
17
330
9
100
AcDbSymbolTableRecord
100
AcDbBlockTableRecord
  2
*Model_Space
340
1A
 70
0
280
1
281
0
  0
BLOCK_RECORD
  5
1B
330
9
100
AcDbSymbolTableRecord
100
AcDbBlockTableRecord
  2
*Paper_Space
340
1E
 70
0
280
1
281
0
  0
ENDTAB
  0
ENDSEC
  0
SECTION
  2
BLOCKS
  0
BLOCK
  5
18
330
17
100
AcDbEntity
  8
0
100
AcDbBlockBegin
  2
*Model_Space
 70
0
 10
0.0
 20
0.0
 30
0.0
  3
*Model_Space
  1

  0
ENDBLK
  5
19
330
17
100
AcDbEntity
  8
0
100
AcDbBlockEnd
  0
BLOCK
  5
1C
330
1B
100
AcDbEntity
  8
0
100
AcDbBlockBegin
  2
*Paper_Space
 70
0
 10
0.0
 20
0.0
 30
0.0
  3
*Paper_Space
  1

  0
ENDBLK
  5
1D
330
1B
100
AcDbEntity
  8
0
100
AcDbBlockEnd
  0
ENDSEC
  0
SECTION
  2
ENTITIES
  0
LWPOLYLINE
  5
2F
330
17
100
AcDbEntity
  8
0
100
AcDbPolyline
 90
545
 70
0
 10
180.515768
 20
-94.799404
 10
180.563774
 20
-94.66707
 10
180.61305
 20
-94.533974
 10
180.66359599999998
 20
-94.40037
 10
180.71541199999996
 20
-94.26651199999999
 10
180.76875199999998
 20
-94.132654
 10
180.82361599999996
 20
-93.99905
 10
180.88000399999996
 20
-93.865954
 10
180.93816999999999
 20
-93.73361999999999
 10
180.998114
 20
-93.602302
 10
181.06008999999997
 20
-93.47200000000001
 10
181.12409799999998
 20
-93.343222
 10
181.19013799999996
 20
-93.216222
 10
181.25820999999996
 20
-93.09100000000001
 10
181.328568
 20
-92.96806400000001
 10
181.401466
 20
-92.847414
 10
181.476904
 20
-92.72930400000001
 10
181.55488200000002
 20
-92.61424200000002
 10
181.6354
 20
-92.50222800000002
 10
181.718712
 20
-92.39351600000002
 10
181.804818
 20
-92.28836000000003
 10
181.89397200000002
 20
-92.18701400000002
 10
181.98592
 20
-92.08998600000002
 10
182.08117000000001
 20
-91.99727600000001
 10
182.17946799999999
 20
-91.90888400000001
 10
182.28106799999998
 20
-91.82531800000001
 10
182.38622399999997
 20
-91.74683200000001
 10
182.49468199999998
 20
-91.67368
 10
182.606696
 20
-91.606116
 10
182.72252
 20
-91.54414
 10
182.842154
 20
-91.48825999999998
 10
182.965598
 20
-91.43872999999999
 10
183.092852
 20
-91.39554999999999
 10
183.166004
 20
-91.37421399999998
 10
183.23941
 20
-91.35541799999999
 10
183.313324
 20
-91.33890799999998
 10
183.387492
 20
-91.32468399999999
 10
183.461914
 20
-91.31274599999998
 10
183.53659000000002
 20
-91.30309399999997
 10
183.611266
 20
-91.29547399999998
 10
183.686196
 20
-91.28988599999998
 10
183.76138
 20
-91.286076
 10
183.83681800000002
 20
-91.284044
 10
183.912256
 20
-91.28379
 10
183.98794800000002
 20
-91.28531399999999
 10
184.06364000000002
 20
-91.28836199999999
 10
184.13933200000002
 20
-91.29293399999999
 10
184.215278
 20
-91.29877599999999
 10
184.291224
 20
-91.306142
 10
184.36717000000002
 20
-91.31477799999999
 10
184.443116
 20
-91.32442999999999
 10
184.519062
 20
-91.33535199999999
 10
184.59500799999998
 20
-91.34729
 10
184.670954
 20
-91.360244
 10
184.74689999999998
 20
-91.37395999999998
 10
184.822592
 20
-91.388438
 10
184.898284
 20
-91.403678
 10
184.97372199999998
 20
-91.41967999999999
 10
185.04916
 20
-91.43619
 10
185.124344
 20
-91.45320799999999
 10
185.19952800000002
 20
-91.47048
 10
185.274458
 20
-91.488006
 10
185.349134
 20
-91.50578599999999
 10
185.42355600000002
 20
-91.52382
 10
185.49797800000002
 20
-91.541854
 10
185.791348
 20
-91.613482
 10
186.08471799999998
 20
-91.68511
 10
186.378088
 20
-91.75673799999998
 10
186.67145799999997
 20
-91.82836599999999
 10
186.96482799999998
 20
-91.89999399999998
 10
187.25819799999996
 20
-91.97162199999998
 10
187.55156799999995
 20
-92.04324999999997
 10
187.84493799999996
 20
-92.11487799999996
 10
188.13830799999994
 20
-92.18650599999997
 10
188.43167799999995
 20
-92.25813399999996
 10
188.72504799999993
 20
-92.32976199999996
 10
189.0184179999999
 20
-92.40138999999995
 10
189.31178799999992
 20
-92.47301799999994
 10
189.6051579999999
 20
-92.54464599999994
 10
189.8985279999999
 20
-92.61627399999993
 10
190.1918979999999
 20
-92.68790199999994
 10
190.48526799999988
 20
-92.75952999999993
 10
190.7786379999999
 20
-92.83115799999992
 10
191.07200799999987
 20
-92.90278599999992
 10
191.36537799999988
 20
-92.97441399999991
 10
191.65874799999986
 20
-93.04604199999991
 10
191.95211799999984
 20
-93.1176699999999
 10
192.24548799999985
 20
-93.1892979999999
 10
192.53885799999983
 20
-93.2609259999999
 10
192.83222799999984
 20
-93.33255399999989
 10
193.12559799999983
 20
-93.40418199999989
 10
193.4189679999998
 20
-93.47580999999988
 10
193.71233799999982
 20
-93.54743799999987
 10
194.0057079999998
 20
-93.61906599999988
 10
194.2990779999998
 20
-93.69069399999987
 10
194.5924479999998
 20
-93.76232199999987
 10
194.88581799999977
 20
-93.83394999999986
 10
195.1024799999998
 20
-93.88728999999985
 10
195.32015799999976
 20
-93.94139199999987
 10
195.53834399999977
 20
-93.99650999999986
 10
195.75678399999978
 20
-94.05289799999986
 10
195.97547799999978
 20
-94.11055599999985
 10
196.19417199999978
 20
-94.16999199999984
 10
196.41261199999977
 20
-94.23120599999983
 10
196.63054399999976
 20
-94.29445199999984
 10
196.84771399999977
 20
-94.35998399999984
 10
197.06412199999977
 20
-94.42805599999983
 10
197.27951399999975
 20
-94.49866799999984
 10
197.49363599999975
 20
-94.57232799999984
 10
197.70623399999974
 20
-94.64903599999985
 10
197.91705399999975
 20
-94.72904599999984
 10
198.12609599999973
 20
-94.81261199999985
 10
198.33285199999975
 20
-94.89973399999985
 10
198.53732199999973
 20
-94.99091999999985
 10
198.7392519999997
 20
-95.08616999999985
 10
198.93838799999972
 20
-95.18573799999984
 10
199.1347299999997
 20
-95.28987799999986
 10
199.32802399999971
 20
-95.39884399999984
 10
199.5177619999997
 20
-95.51263599999984
 10
199.7039439999997
 20
-95.63150799999984
 10
199.8865699999997
 20
-95.75596799999985
 10
200.0651319999997
 20
-95.88576199999986
 10
200.2396299999997
 20
-96.02139799999985
 10
200.4095559999997
 20
-96.16312999999985
 10
200.57490999999968
 20
-96.31095799999984
 10
200.7356919999997
 20
-96.46513599999986
 10
200.8913939999997
 20
-96.62591799999986
 10
201.0417619999997
 20
-96.79355799999986
 10
201.1867959999997
 20
-96.96830999999986
 10
201.3569759999997
 20
-97.19233799999985
 10
201.5152179999997
 20
-97.42220799999984
 10
201.6620299999997
 20
-97.65791999999985
 10
201.7976659999997
 20
-97.89921999999984
 10
201.9223799999997
 20
-98.14559999999985
 10
202.0366799999997
 20
-98.39705999999985
 10
202.1408199999997
 20
-98.65309199999984
 10
202.23505399999968
 20
-98.91369599999985
 10
202.31988999999967
 20
-99.17836399999985
 10
202.39558199999968
 20
-99.44684199999985
 10
202.46263799999969
 20
-99.71887599999985
 10
202.52131199999968
 20
-99.99446599999985
 10
202.57185799999968
 20
-100.27310399999985
 10
202.61478399999967
 20
-100.55453599999984
 10
202.65034399999965
 20
-100.83850799999985
 10
202.67879199999965
 20
-101.12476599999985
 10
202.70063599999966
 20
-101.41305599999984
 10
202.71612999999965
 20
-101.70286999999985
 10
202.72552799999968
 20
-101.99420799999984
 10
202.72933799999967
 20
-102.28681599999985
 10
202.72781399999968
 20
-102.58043999999984
 10
202.72146399999968
 20
-102.87457199999984
 10
202.7105419999997
 20
-103.16921199999986
 10
202.69530199999969
 20
-103.46385199999986
 10
202.6762519999997
 20
-103.75849199999988
 10
202.65364599999967
 20
-104.05262399999987
 10
202.62773799999968
 20
-104.34599399999986
 10
202.59903599999967
 20
-104.63860199999986
 10
202.56779399999965
 20
-104.92993999999986
 10
202.53451999999965
 20
-105.21975399999987
 10
202.49921399999965
 20
-105.50778999999987
 10
202.46263799999966
 20
-105.79379399999986
 10
202.33868599999963
 20
-106.71860799999986
 10
202.20914599999963
 20
-107.64265999999986
 10
202.07401799999963
 20
-108.56594999999986
 10
201.93330199999963
 20
-109.48822399999985
 10
201.78699799999964
 20
-110.40948199999985
 10
201.63510599999964
 20
-111.32972399999986
 10
201.47762599999965
 20
-112.24894999999987
 10
201.31455799999964
 20
-113.16715999999987
 10
201.14590199999964
 20
-114.08435399999986
 10
200.97165799999962
 20
-115.00027799999985
 10
200.79182599999962
 20
-115.91518599999985
 10
200.6066599999996
 20
-116.82882399999984
 10
200.41590599999964
 20
-117.74119199999984
 10
200.21956399999962
 20
-118.65228999999984
 10
200.01788799999963
 20
-119.56211799999984
 10
199.81062399999962
 20
-120.47067599999984
 10
199.59777199999962
 20
-121.37770999999985
 10
199.37958599999962
 20
-122.28347399999984
 10
199.15581199999963
 20
-123.18771399999984
 10
198.9267039999996
 20
-124.09042999999983
 10
198.69200799999962
 20
-124.99162199999984
 10
198.4519779999996
 20
-125.89128999999983
 10
198.2066139999996
 20
-126.78917999999983
 10
197.9556619999996
 20
-127.68554599999983
 10
197.69937599999957
 20
-128.58013399999982
 10
197.43775599999958
 20
-129.47319799999983
 10
197.17054799999957
 20
-130.36448399999983
 10
196.89800599999958
 20
-131.2539919999998
 10
196.62012999999956
 20
-132.14172199999982
 10
196.33691999999957
 20
-133.0274199999998
 10
196.0483759999996
 20
-133.9113399999998
 10
195.7544979999996
 20
-134.7932279999998
 10
195.71360399999958
 20
-134.9067659999998
 10
195.66864599999957
 20
-135.0177639999998
 10
195.6196239999996
 20
-135.12596799999983
 10
195.5667919999996
 20
-135.2313779999998
 10
195.5101499999996
 20
-135.33399399999982
 10
195.4496979999996
 20
-135.43356199999982
 10
195.3856899999996
 20
-135.53008199999982
 10
195.3181259999996
 20
-135.62355399999984
 10
195.2472599999996
 20
-135.71372399999984
 10
195.1730919999996
 20
-135.80059199999982
 10
195.0958759999996
 20
-135.88415799999981
 10
195.0156119999996
 20
-135.96416799999983
 10
194.9325539999996
 20
-136.04062199999984
 10
194.84670199999962
 20
-136.11351999999985
 10
194.75830999999963
 20
-136.18260799999987
 10
194.66737799999964
 20
-136.24788599999985
 10
194.57390599999962
 20
-136.30935399999984
 10
194.47814799999963
 20
-136.36701199999985
 10
194.38010399999965
 20
-136.42060599999985
 10
194.28002799999965
 20
-136.46988199999984
 10
194.17817399999964
 20
-136.51509399999983
 10
194.07428799999965
 20
-136.55598799999981
 10
193.96862399999964
 20
-136.5925639999998
 10
193.86143599999963
 20
-136.6245679999998
 10
193.75272399999963
 20
-136.65225399999983
 10
193.64274199999963
 20
-136.67511399999984
 10
193.53148999999965
 20
-136.69340199999982
 10
193.41896799999964
 20
-136.70686399999983
 10
193.30542999999963
 20
-136.71549999999982
 10
193.19087599999963
 20
-136.71930999999984
 10
193.07555999999965
 20
-136.71803999999983
 10
192.95973599999965
 20
-136.71168999999983
 10
192.93281199999964
 20
-136.70965799999982
 10
192.90614199999965
 20
-136.7076259999998
 10
192.87947199999965
 20
-136.7055939999998
 10
192.85280199999963
 20
-136.7035619999998
 10
192.82613199999963
 20
-136.7015299999998
 10
192.79946199999964
 20
-136.69949799999978
 10
192.7727919999996
 20
-136.69746599999976
 10
192.74612199999962
 20
-136.69543399999975
 10
192.71945199999962
 20
-136.69340199999974
 10
192.6927819999996
 20
-136.69136999999972
 10
192.6661119999996
 20
-136.68933799999974
 10
192.6394419999996
 20
-136.68730599999972
 10
192.61277199999958
 20
-136.6852739999997
 10
192.58610199999958
 20
-136.6832419999997
 10
192.5594319999996
 20
-136.68120999999968
 10
192.5327619999996
 20
-136.67917799999967
 10
192.50609199999957
 20
-136.67714599999968
 10
192.47967599999956
 20
-136.67511399999967
 10
192.45325999999955
 20
-136.67308199999965
 10
192.42684399999953
 20
-136.67104999999964
 10
192.40042799999952
 20
-136.66901799999962
 10
192.3740119999995
 20
-136.6669859999996
 10
192.3475959999995
 20
-136.6649539999996
 10
192.32117999999952
 20
-136.6629219999996
 10
192.2947639999995
 20
-136.66063599999958
 10
192.2683479999995
 20
-136.6583499999996
 10
192.2421859999995
 20
-136.6560639999996
 10
192.2160239999995
 20
-136.6537779999996
 10
192.18986199999952
 20
-136.6514919999996
 10
192.16369999999952
 20
-136.64920599999957
 10
192.13753799999955
 20
-136.64691999999957
 10
192.11137599999955
 20
-136.64463399999957
 10
192.05752799999956
 20
-136.63904599999955
 10
192.00418799999954
 20
-136.63142599999958
 10
191.95135599999955
 20
-136.62177399999956
 10
191.89903199999955
 20
-136.61034399999957
 10
191.84721599999958
 20
-136.59688199999957
 10
191.79616199999955
 20
-136.5816419999996
 10
191.74561599999956
 20
-136.5643699999996
 10
191.69583199999957
 20
-136.54531999999958
 10
191.64680999999956
 20
-136.52449199999958
 10
191.59880399999957
 20
-136.50188599999956
 10
191.55155999999957
 20
-136.47775599999957
 10
191.50533199999956
 20
-136.45184799999956
 10
191.45986599999958
 20
-136.42441599999958
 10
191.41566999999958
 20
-136.39520599999958
 10
191.37248999999957
 20
-136.36447199999958
 10
191.33032599999956
 20
-136.3322139999996
 10
191.28943199999958
 20
-136.2984319999996
 10
191.24955399999956
 20
-136.26312599999957
 10
191.21094599999955
 20
-136.2262959999996
 10
191.1738619999996
 20
-136.1879419999996
 10
191.13804799999957
 20
-136.14806399999958
 10
191.1035039999996
 20
-136.1069159999996
 10
191.0704839999996
 20
-136.06449799999956
 10
191.0389879999996
 20
-136.02055599999957
 10
191.00901599999958
 20
-135.97534399999958
 10
190.98056799999958
 20
-135.92886199999958
 10
190.95389799999958
 20
-135.88110999999958
 10
190.92875199999958
 20
-135.83234199999958
 10
190.90538399999957
 20
-135.78230399999958
 10
190.88379399999957
 20
-135.73124999999956
 10
190.86398199999957
 20
-135.67892599999956
 10
190.84620199999955
 20
-135.62558599999954
 10
190.81521399999957
 20
-135.53135199999957
 10
190.78168599999958
 20
-135.43787999999955
 10
190.74561799999955
 20
-135.34516999999954
 10
190.70700999999954
 20
-135.25347599999955
 10
190.66586199999955
 20
-135.16279799999955
 10
190.62242799999953
 20
-135.07313599999958
 10
190.57670799999954
 20
-134.98448999999957
 10
190.52870199999956
 20
-134.89711399999953
 10
190.47840999999957
 20
-134.81100799999953
 10
190.42583199999956
 20
-134.72617199999954
 10
190.37122199999956
 20
-134.64285999999956
 10
190.31457999999955
 20
-134.56107199999954
 10
190.25590599999956
 20
-134.48080799999954
 10
190.19519999999955
 20
-134.40206799999956
 10
190.13246199999958
 20
-134.32510599999955
 10
190.06794599999955
 20
-134.24992199999954
 10
190.00165199999958
 20
-134.17651599999954
 10
189.93357999999955
 20
-134.10514199999955
 10
189.86398399999956
 20
-134.03554599999956
 10
189.79260999999957
 20
-133.96798199999958
 10
189.71971199999956
 20
-133.90270399999957
 10
189.64528999999956
 20
-133.83945799999958
 10
189.56934399999957
 20
-133.77849799999956
 10
189.4918739999996
 20
-133.71982399999956
 10
189.4131339999996
 20
-133.66368999999958
 10
189.33312399999957
 20
-133.6098419999996
 10
189.25184399999958
 20
-133.55853399999958
 10
189.16929399999955
 20
-133.51001999999957
 10
189.08547399999955
 20
-133.46404599999957
 10
189.00063799999955
 20
-133.42086599999956
 10
188.91478599999957
 20
-133.38047999999958
 10
188.82791799999958
 20
-133.34288799999956
 10
188.71564999999958
 20
-133.29818399999957
 10
188.60439799999958
 20
-133.25703599999954
 10
188.4941619999996
 20
-133.21918999999954
 10
188.38468799999958
 20
-133.18464599999956
 10
188.2759759999996
 20
-133.15340399999954
 10
188.1680259999996
 20
-133.12495599999954
 10
188.06058399999958
 20
-133.09955599999955
 10
187.95364999999958
 20
-133.07669599999954
 10
187.84722399999958
 20
-133.05662999999956
 10
187.74130599999958
 20
-133.03884999999954
 10
187.63564199999956
 20
-133.02335599999952
 10
187.52997799999955
 20
-133.01014799999953
 10
187.42456799999957
 20
-132.99897199999953
 10
187.31915799999956
 20
-132.98982799999953
 10
187.21349399999954
 20
-132.98246199999954
 10
187.10782999999952
 20
-132.97661999999954
 10
187.00165799999954
 20
-132.97230199999953
 10
186.89523199999954
 20
-132.96950799999954
 10
186.78829799999951
 20
-132.96772999999953
 10
186.68085599999952
 20
-132.96722199999957
 10
186.57290599999953
 20
-132.96772999999953
 10
186.46419399999954
 20
-132.96899999999954
 10
186.35471999999953
 20
-132.97103199999955
 10
186.24448399999955
 20
-132.97357199999954
 10
186.13323199999954
 20
-132.97661999999954
 10
186.02096399999954
 20
-132.97992199999953
 10
185.90742599999953
 20
-132.98322399999955
 10
185.79261799999955
 20
-132.98652599999957
 10
185.67653999999953
 20
-132.98982799999956
 10
185.55919199999954
 20
-132.99287599999954
 10
185.44031999999956
 20
-132.99541599999955
 10
185.31992399999953
 20
-132.99744799999957
 10
184.97397599999954
 20
-133.00278199999954
 10
184.62802799999955
 20
-133.00811599999955
 10
184.28207999999955
 20
-133.01344999999952
 10
183.93613199999956
 20
-133.01852999999952
 10
183.5901839999996
 20
-133.0236099999995
 10
183.2442359999996
 20
-133.02868999999953
 10
182.8982879999996
 20
-133.03376999999952
 10
182.55233999999962
 20
-133.0388499999995
 10
182.20639199999962
 20
-133.0439299999995
 10
181.86044399999963
 20
-133.0490099999995
 10
181.51449599999964
 20
-133.0540899999995
 10
181.16854799999965
 20
-133.05916999999948
 10
180.82259999999965
 20
-133.06424999999948
 10
180.47665199999966
 20
-133.06932999999947
 10
180.13070399999967
 20
-133.07440999999946
 10
179.78475599999967
 20
-133.07948999999948
 10
179.43880799999968
 20
-133.08482399999946
 10
179.0928599999997
 20
-133.09015799999943
 10
178.7469119999997
 20
-133.09549199999944
 10
178.4009639999997
 20
-133.10082599999942
 10
178.0550159999997
 20
-133.10615999999942
 10
177.70906799999972
 20
-133.1114939999994
 10
177.36311999999972
 20
-133.1168279999994
 10
177.01717199999973
 20
-133.12216199999938
 10
176.67122399999974
 20
-133.12749599999938
 10
176.32527599999977
 20
-133.13282999999936
 10
175.97932799999978
 20
-133.13816399999936
 10
175.6333799999998
 20
-133.14349799999934
 10
175.2874319999998
 20
-133.14883199999932
 10
174.9414839999998
 20
-133.15416599999932
 10
174.5955359999998
 20
-133.1594999999993
 10
174.24958799999982
 20
-133.1648339999993
 10
174.16602199999983
 20
-133.16661199999928
 10
174.08093199999982
 20
-133.1688979999993
 10
173.99431799999982
 20
-133.17169199999927
 10
173.90643399999982
 20
-133.17473999999928
 10
173.8172799999998
 20
-133.17778799999925
 10
173.7271099999998
 20
-133.18058199999925
 10
173.63617799999983
 20
-133.18312199999923
 10
173.5444839999998
 20
-133.18515399999924
 10
173.4522819999998
 20
-133.18642399999925
 10
173.3598259999998
 20
-133.18667799999923
 10
173.2671159999998
 20
-133.18566199999924
 10
173.1744059999998
 20
-133.18337599999924
 10
173.0816959999998
 20
-133.17956599999923
 10
172.9892399999998
 20
-133.17397799999924
 10
172.89703799999978
 20
-133.16635799999924
 10
172.80534399999976
 20
-133.15670599999922
 10
172.71441199999978
 20
-133.14476799999923
 10
172.62449599999977
 20
-133.1302899999992
 10
172.53559599999977
 20
-133.11301799999922
 10
172.44771199999977
 20
-133.09269799999922
 10
172.36109799999977
 20
-133.0693299999992
 10
172.27600799999976
 20
-133.04265999999922
 10
172.19269599999976
 20
-133.01243399999922
 10
172.11116199999975
 20
-132.9783979999992
 10
172.03140599999978
 20
-132.9405519999992
 10
171.95393599999977
 20
-132.8986419999992
 10
171.87849799999978
 20
-132.85241399999921
 10
171.80559999999977
 20
-132.8016139999992
 10
171.73524199999974
 20
-132.7459879999992
 10
171.66767799999977
 20
-132.68553599999916
 10
171.60290799999976
 20
-132.62000399999917
 10
171.54118599999975
 20
-132.54913799999915
 10
171.45685799999976
 20
-132.43788599999917
 10
171.38167399999975
 20
-132.32206199999916
 10
171.31512599999976
 20
-132.20217399999916
 10
171.25721399999978
 20
-132.07822199999916
 10
171.20717599999978
 20
-131.95071399999915
 10
171.16475799999975
 20
-131.81990399999916
 10
171.12970599999974
 20
-131.68604599999915
 10
171.10151199999976
 20
-131.54913999999917
 10
171.07992199999975
 20
-131.40969399999915
 10
171.06442799999974
 20
-131.26796199999916
 10
171.05477599999972
 20
-131.12419799999915
 10
171.0504579999997
 20
-130.97890999999916
 10
171.05121999999972
 20
-130.83209799999915
 10
171.05655399999972
 20
-130.68401599999916
 10
171.0662059999997
 20
-130.53491799999918
 10
171.0796679999997
 20
-130.38531199999915
 10
171.09668599999972
 20
-130.23519799999914
 10
171.1167519999997
 20
-130.08482999999916
 10
171.13961199999972
 20
-129.93471599999916
 10
171.16475799999972
 20
-129.78485599999917
 10
171.1919359999997
 20
-129.63575799999916
 10
171.22063799999972
 20
-129.48767599999917
 10
171.25060999999974
 20
-129.34060999999915
 10
171.28134399999973
 20
-129.19506799999917
 10
171.31258599999975
 20
-129.05130399999916
 10
171.34382799999977
 20
-128.90957199999917
 10
171.37481599999975
 20
-128.77012599999918
 10
171.40504199999975
 20
-128.63321999999917
 10
171.43425199999976
 20
-128.49910799999918
 10
171.46219199999976
 20
-128.36804399999917
 10
171.48809999999978
 20
-128.24028199999918
 10
171.51197599999978
 20
-128.11632999999918
 10
171.6397379999998
 20
-127.43230799999918
 10
171.76953199999977
 20
-126.74879399999918
 10
171.90161199999977
 20
-126.06578799999917
 10
172.03597799999977
 20
-125.38328999999918
 10
172.17262999999977
 20
-124.70104599999918
 10
172.31131399999978
 20
-124.01930999999918
 10
172.45228399999976
 20
-123.33808199999918
 10
172.59553999999977
 20
-122.65736199999917
 10
172.74082799999977
 20
-121.97714999999917
 10
172.8884019999998
 20
-121.29744599999917
 10
173.03826199999978
 20
-120.61824999999918
 10
173.19015399999978
 20
-119.93981599999918
 10
173.34433199999975
 20
-119.26188999999918
 10
173.50079599999975
 20
-118.5844719999992
 10
173.65929199999977
 20
-117.90756199999919
 10
173.82007399999978
 20
-117.23115999999918
 10
173.9831419999998
 20
-116.55551999999918
 10
174.14824199999978
 20
-115.88038799999917
 10
174.31562799999978
 20
-115.20576399999918
 10
174.48504599999978
 20
-114.53164799999918
 10
174.6567499999998
 20
-113.85829399999918
 10
174.8307399999998
 20
-113.18544799999917
 10
175.00676199999978
 20
-112.51336399999917
 10
175.18506999999977
 20
-111.84178799999917
 10
175.3654099999998
 20
-111.17097399999916
 10
175.5480359999998
 20
-110.50066799999915
 10
175.7326939999998
 20
-109.83112399999915
 10
175.9196379999998
 20
-109.16208799999914
 10
176.1088679999998
 20
-108.49381399999915
 10
176.3001299999998
 20
-107.82630199999916
 10
176.4936779999998
 20
-107.15929799999917
 10
176.6892579999998
 20
-106.49305599999917
 10
176.74462999999977
 20
-106.30611199999917
 10
176.80000199999978
 20
-106.11916799999918
 10
176.85562799999977
 20
-105.93247799999916
 10
176.9115079999998
 20
-105.74578799999917
 10
176.9673879999998
 20
-105.55909799999917
 10
177.0235219999998
 20
-105.37240799999915
 10
177.07990999999978
 20
-105.18597199999917
 10
177.13629799999978
 20
-104.99953599999917
 10
177.19293999999977
 20
-104.81309999999917
 10
177.2498359999998
 20
-104.62666399999918
 10
177.3067319999998
 20
-104.44022799999918
 10
177.3638819999998
 20
-104.25404599999918
 10
177.4212859999998
 20
-104.06786399999918
 10
177.4786899999998
 20
-103.88168199999917
 10
177.5363479999998
 20
-103.69549999999919
 10
177.5942599999998
 20
-103.50957199999917
 10
177.65217199999978
 20
-103.32364399999916
 10
177.71033799999978
 20
-103.13771599999916
 10
177.7687579999998
 20
-102.95178799999915
 10
177.8271779999998
 20
-102.76585999999914
 10
177.8858519999998
 20
-102.58018599999914
 10
177.94477999999978
 20
-102.39451199999914
 10
178.0037079999998
 20
-102.20883799999915
 10
178.06288999999975
 20
-102.02316399999916
 10
178.12232599999976
 20
-101.83774399999915
 10
178.1817619999998
 20
-101.65232399999914
 10
178.24145199999978
 20
-101.46690399999913
 10
178.30139599999978
 20
-101.28148399999912
 10
178.36133999999979
 20
-101.09631799999913
 10
178.42153799999977
 20
-100.91115199999913
 10
178.4819899999998
 20
-100.72598599999914
 10
178.5424419999998
 20
-100.54081999999914
 10
178.59984599999981
 20
-100.36403599999913
 10
178.6567419999998
 20
-100.18598199999913
 10
178.7131299999998
 20
-100.00691199999913
 10
178.76926399999982
 20
-99.82707999999913
 10
178.8248899999998
 20
-99.64648599999913
 10
178.88026199999982
 20
-99.46512999999912
 10
178.9356339999998
 20
-99.28301199999913
 10
178.9910059999998
 20
-99.10038599999913
 10
179.04637799999978
 20
-98.91725199999914
 10
179.10174999999978
 20
-98.73386399999913
 10
179.15737599999977
 20
-98.55022199999914
 10
179.2132559999998
 20
-98.36632599999913
 10
179.2693899999998
 20
-98.18242999999914
 10
179.32603199999977
 20
-97.99853399999914
 10
179.38318199999978
 20
-97.81463799999915
 10
179.44109399999977
 20
-97.63099599999914
 10
179.49951399999978
 20
-97.44760799999915
 10
179.55869599999977
 20
-97.26472799999914
 10
179.61889399999976
 20
-97.08235599999914
 10
179.67985399999975
 20
-96.90049199999913
 10
179.74182999999977
 20
-96.71938999999912
 10
179.8050759999998
 20
-96.53904999999914
 10
179.86933799999977
 20
-96.35947199999913
 10
179.9348699999998
 20
-96.18090999999914
 10
180.0019259999998
 20
-96.00336399999914
 10
180.07025199999978
 20
-95.82683399999914
 10
180.14010199999979
 20
-95.65157399999914
 10
180.2117299999998
 20
-95.47758399999914
 10
180.2848819999998
 20
-95.30511799999914
 10
180.3598119999998
 20
-95.13417599999914
 10
180.4367739999998
 20
-94.96475799999915
 10
180.51551399999977
 20
-94.79711799999914
  0
ENDSEC
  0
SECTION
  2
OBJECTS
  0
DICTIONARY
  5
A
330
0
100
AcDbDictionary
281
1
  3
ACAD_COLOR
350
B
  3
ACAD_GROUP
350
C
  3
ACAD_LAYOUT
350
D
  3
ACAD_MATERIAL
350
E
  3
ACAD_MLEADERSTYLE
350
F
  3
ACAD_MLINESTYLE
350
10
  3
ACAD_PLOTSETTINGS
350
11
  3
ACAD_PLOTSTYLENAME
350
12
  3
ACAD_SCALELIST
350
14
  3
ACAD_TABLESTYLE
350
15
  3
ACAD_VISUALSTYLE
350
16
  3
EZDXF_META
350
2D
  0
DICTIONARY
  5
B
330
A
100
AcDbDictionary
281
1
  0
DICTIONARY
  5
C
330
A
100
AcDbDictionary
281
1
  0
DICTIONARY
  5
D
330
A
100
AcDbDictionary
281
1
  3
Model
350
1A
  3
Layout1
350
1E
  0
DICTIONARY
  5
E
330
A
100
AcDbDictionary
281
1
  3
ByBlock
350
1F
  3
ByLayer
350
20
  3
Global
350
21
  0
DICTIONARY
  5
F
330
A
100
AcDbDictionary
281
1
  3
Standard
350
2C
  0
DICTIONARY
  5
10
330
A
100
AcDbDictionary
281
1
  3
Standard
350
22
  0
DICTIONARY
  5
11
330
A
100
AcDbDictionary
281
1
  0
ACDBDICTIONARYWDFLT
  5
12
330
A
100
AcDbDictionary
281
1
  3
Normal
350
13
100
AcDbDictionaryWithDefault
340
13
  0
ACDBPLACEHOLDER
  5
13
330
12
  0
DICTIONARY
  5
14
330
A
100
AcDbDictionary
281
1
  0
DICTIONARY
  5
15
330
A
100
AcDbDictionary
281
1
  0
DICTIONARY
  5
16
330
A
100
AcDbDictionary
281
1
  0
LAYOUT
  5
1A
330
D
100
AcDbPlotSettings
  1

  4
A3
  6

 40
7.5
 41
20.0
 42
7.5
 43
20.0
 44
420.0
 45
297.0
 46
0.0
 47
0.0
 48
0.0
 49
0.0
140
0.0
141
0.0
142
1.0
143
1.0
 70
1024
 72
1
 73
0
 74
5
  7

 75
16
 76
0
 77
2
 78
300
147
1.0
148
0.0
149
0.0
100
AcDbLayout
  1
Model
 70
1
 71
0
 10
0.0
 20
0.0
 11
420.0
 21
297.0
 12
0.0
 22
0.0
 32
0.0
 14
1e+20
 24
1e+20
 34
1e+20
 15
-1e+20
 25
-1e+20
 35
-1e+20
146
0.0
 13
0.0
 23
0.0
 33
0.0
 16
1.0
 26
0.0
 36
0.0
 17
0.0
 27
1.0
 37
0.0
 76
1
330
17
  0
LAYOUT
  5
1E
330
D
100
AcDbPlotSettings
  1

  4
A3
  6

 40
7.5
 41
20.0
 42
7.5
 43
20.0
 44
420.0
 45
297.0
 46
0.0
 47
0.0
 48
0.0
 49
0.0
140
0.0
141
0.0
142
1.0
143
1.0
 70
0
 72
1
 73
0
 74
5
  7

 75
16
 76
0
 77
2
 78
300
147
1.0
148
0.0
149
0.0
100
AcDbLayout
  1
Layout1
 70
1
 71
1
 10
0.0
 20
0.0
 11
420.0
 21
297.0
 12
0.0
 22
0.0
 32
0.0
 14
1e+20
 24
1e+20
 34
1e+20
 15
-1e+20
 25
-1e+20
 35
-1e+20
146
0.0
 13
0.0
 23
0.0
 33
0.0
 16
1.0
 26
0.0
 36
0.0
 17
0.0
 27
1.0
 37
0.0
 76
1
330
1B
  0
MATERIAL
  5
1F
102
{ACAD_REACTORS
330
E
102
}
330
E
100
AcDbMaterial
  1
ByBlock
  2

 70
0
 40
1.0
 71
1
 41
1.0
 91
-1023410177
 42
1.0
 72
1
  3

 73
1
 74
1
 75
1
 44
0.5
 73
0
 45
1.0
 46
1.0
 77
1
  4

 78
1
 79
1
170
1
 48
1.0
171
1
  6

172
1
173
1
174
1
140
1.0
141
1.0
175
1
  7

176
1
177
1
178
1
143
1.0
179
1
  8

270
1
271
1
272
1
145
1.0
146
1.0
273
1
  9

274
1
275
1
276
1
 42
1.0
 72
1
  3

 73
1
 74
1
 75
1
 94
63
  0
MATERIAL
  5
20
102
{ACAD_REACTORS
330
E
102
}
330
E
100
AcDbMaterial
  1
ByLayer
  2

 70
0
 40
1.0
 71
1
 41
1.0
 91
-1023410177
 42
1.0
 72
1
  3

 73
1
 74
1
 75
1
 44
0.5
 73
0
 45
1.0
 46
1.0
 77
1
  4

 78
1
 79
1
170
1
 48
1.0
171
1
  6

172
1
173
1
174
1
140
1.0
141
1.0
175
1
  7

176
1
177
1
178
1
143
1.0
179
1
  8

270
1
271
1
272
1
145
1.0
146
1.0
273
1
  9

274
1
275
1
276
1
 42
1.0
 72
1
  3

 73
1
 74
1
 75
1
 94
63
  0
MATERIAL
  5
21
102
{ACAD_REACTORS
330
E
102
}
330
E
100
AcDbMaterial
  1
Global
  2

 70
0
 40
1.0
 71
1
 41
1.0
 91
-1023410177
 42
1.0
 72
1
  3

 73
1
 74
1
 75
1
 44
0.5
 73
0
 45
1.0
 46
1.0
 77
1
  4

 78
1
 79
1
170
1
 48
1.0
171
1
  6

172
1
173
1
174
1
140
1.0
141
1.0
175
1
  7

176
1
177
1
178
1
143
1.0
179
1
  8

270
1
271
1
272
1
145
1.0
146
1.0
273
1
  9

274
1
275
1
276
1
 42
1.0
 72
1
  3

 73
1
 74
1
 75
1
 94
63
  0
MLINESTYLE
  5
22
102
{ACAD_REACTORS
330
10
102
}
330
10
100
AcDbMlineStyle
  2
Standard
 70
0
  3

 62
256
 51
90.0
 52
90.0
 71
2
 49
0.5
 62
256
  6
BYLAYER
 49
-0.5
 62
256
  6
BYLAYER
  0
MLEADERSTYLE
  5
2C
102
{ACAD_REACTORS
330
F
102
}
330
F
100
AcDbMLeaderStyle
179
2
170
2
171
1
172
0
 90
2
 40
0.0
 41
0.0
173
1
 91
-1056964608
 92
-2
290
1
 42
2.0
291
1
 43
8.0
  3
Standard
 44
4.0
300

342
29
174
1
175
1
176
0
178
1
 93
-1056964608
 45
4.0
292
0
297
0
 46
4.0
 94
-1056964608
 47
1.0
 49
1.0
140
1.0
294
1
141
0.0
177
0
142
1.0
295
0
296
0
143
3.75
271
0
272
9
273
9
  0
DICTIONARY
  5
2D
330
A
100
AcDbDictionary
280
1
281
1
  3
CREATED_BY_EZDXF
350
2E
  3
WRITTEN_BY_EZDXF
350
38
  0
DICTIONARYVAR
  5
2E
330
2D
100
DictionaryVariables
280
0
  1
1.4.3 @ 2026-04-08T01:02:29.111531+00:00
  0
DICTIONARYVAR
  5
38
330
2D
100
DictionaryVariables
280
0
  1
1.4.3 @ 2026-04-09T21:09:48.734253+00:00
  0
ENDSEC
  0
EOF
