  0
SECTION
  2
HEADER
  9
$ACADVER
  1
AC1024
  9
$ACADMAINTVER
 70
6
  9
$DWGCODEPAGE
  3
ANSI_1252
  9
$LASTSAVEDBY
  1
ezdxf
  9
$INSBASE
 10
0.0
 20
0.0
 30
0.0
  9
$EXTMIN
 10
1e+20
 20
1e+20
 30
1e+20
  9
$EXTMAX
 10
-1e+20
 20
-1e+20
 30
-1e+20
  9
$LIMMIN
 10
0.0
 20
0.0
  9
$LIMMAX
 10
420.0
 20
297.0
  9
$ORTHOMODE
 70
0
  9
$REGENMODE
 70
1
  9
$FILLMODE
 70
1
  9
$QTEXTMODE
 70
0
  9
$MIRRTEXT
 70
1
  9
$LTSCALE
 40
1.0
  9
$ATTMODE
 70
1
  9
$TEXTSIZE
 40
2.5
  9
$TRACEWID
 40
1.0
  9
$TEXTSTYLE
  7
Standard
  9
$CLAYER
  8
0
  9
$CELTYPE
  6
ByLayer
  9
$CECOLOR
 62
256
  9
$CELTSCALE
 40
1.0
  9
$DISPSILH
 70
0
  9
$DIMSCALE
 40
1.0
  9
$DIMASZ
 40
2.5
  9
$DIMEXO
 40
0.625
  9
$DIMDLI
 40
3.75
  9
$DIMRND
 40
0.0
  9
$DIMDLE
 40
0.0
  9
$DIMEXE
 40
1.25
  9
$DIMTP
 40
0.0
  9
$DIMTM
 40
0.0
  9
$DIMTXT
 40
2.5
  9
$DIMCEN
 40
2.5
  9
$DIMTSZ
 40
0.0
  9
$DIMTOL
 70
0
  9
$DIMLIM
 70
0
  9
$DIMTIH
 70
0
  9
$DIMTOH
 70
0
  9
$DIMSE1
 70
0
  9
$DIMSE2
 70
0
  9
$DIMTAD
 70
1
  9
$DIMZIN
 70
8
  9
$DIMBLK
  1

  9
$DIMASO
 70
1
  9
$DIMSHO
 70
1
  9
$DIMPOST
  1

  9
$DIMAPOST
  1

  9
$DIMALT
 70
0
  9
$DIMALTD
 70
3
  9
$DIMALTF
 40
0.03937007874
  9
$DIMLFAC
 40
1.0
  9
$DIMTOFL
 70
1
  9
$DIMTVP
 40
0.0
  9
$DIMTIX
 70
0
  9
$DIMSOXD
 70
0
  9
$DIMSAH
 70
0
  9
$DIMBLK1
  1

  9
$DIMBLK2
  1

  9
$DIMSTYLE
  2
ISO-25
  9
$DIMCLRD
 70
0
  9
$DIMCLRE
 70
0
  9
$DIMCLRT
 70
0
  9
$DIMTFAC
 40
1.0
  9
$DIMGAP
 40
0.625
  9
$DIMJUST
 70
0
  9
$DIMSD1
 70
0
  9
$DIMSD2
 70
0
  9
$DIMTOLJ
 70
0
  9
$DIMTZIN
 70
8
  9
$DIMALTZ
 70
0
  9
$DIMALTTZ
 70
0
  9
$DIMUPT
 70
0
  9
$DIMDEC
 70
2
  9
$DIMTDEC
 70
2
  9
$DIMALTU
 70
2
  9
$DIMALTTD
 70
3
  9
$DIMTXSTY
  7
Standard
  9
$DIMAUNIT
 70
0
  9
$DIMADEC
 70
0
  9
$DIMALTRND
 40
0.0
  9
$DIMAZIN
 70
0
  9
$DIMDSEP
 70
44
  9
$DIMATFIT
 70
3
  9
$DIMFRAC
 70
0
  9
$DIMLDRBLK
  1

  9
$DIMLUNIT
 70
2
  9
$DIMLWD
 70
-2
  9
$DIMLWE
 70
-2
  9
$DIMTMOVE
 70
0
  9
$DIMFXL
 40
1.0
  9
$DIMFXLON
 70
0
  9
$DIMJOGANG
 40
0.785398163397
  9
$DIMTFILL
 70
0
  9
$DIMTFILLCLR
 70
0
  9
$DIMARCSYM
 70
0
  9
$DIMLTYPE
  6

  9
$DIMLTEX1
  6

  9
$DIMLTEX2
  6

  9
$DIMTXTDIRECTION
 70
0
  9
$LUNITS
 70
2
  9
$LUPREC
 70
4
  9
$SKETCHINC
 40
1.0
  9
$FILLETRAD
 40
10.0
  9
$AUNITS
 70
0
  9
$AUPREC
 70
2
  9
$MENU
  1
.
  9
$ELEVATION
 40
0.0
  9
$PELEVATION
 40
0.0
  9
$THICKNESS
 40
0.0
  9
$LIMCHECK
 70
0
  9
$CHAMFERA
 40
0.0
  9
$CHAMFERB
 40
0.0
  9
$CHAMFERC
 40
0.0
  9
$CHAMFERD
 40
0.0
  9
$SKPOLY
 70
0
  9
$TDCREATE
 40
2461138.715451389
  9
$TDUCREATE
 40
2458532.153996898
  9
$TDUPDATE
 40
2461138.715451389
  9
$TDUUPDATE
 40
2458532.1544311
  9
$TDINDWG
 40
0.0
  9
$TDUSRTIMER
 40
0.0
  9
$USRTIMER
 70
1
  9
$ANGBASE
 50
0.0
  9
$ANGDIR
 70
0
  9
$PDMODE
 70
0
  9
$PDSIZE
 40
0.0
  9
$PLINEWID
 40
0.0
  9
$SPLFRAME
 70
0
  9
$SPLINETYPE
 70
6
  9
$SPLINESEGS
 70
8
  9
$HANDSEED
  5
3D2
  9
$SURFTAB1
 70
6
  9
$SURFTAB2
 70
6
  9
$SURFTYPE
 70
6
  9
$SURFU
 70
6
  9
$SURFV
 70
6
  9
$UCSBASE
  2

  9
$UCSNAME
  2

  9
$UCSORG
 10
0.0
 20
0.0
 30
0.0
  9
$UCSXDIR
 10
1.0
 20
0.0
 30
0.0
  9
$UCSYDIR
 10
0.0
 20
1.0
 30
0.0
  9
$UCSORTHOREF
  2

  9
$UCSORTHOVIEW
 70
0
  9
$UCSORGTOP
 10
0.0
 20
0.0
 30
0.0
  9
$UCSORGBOTTOM
 10
0.0
 20
0.0
 30
0.0
  9
$UCSORGLEFT
 10
0.0
 20
0.0
 30
0.0
  9
$UCSORGRIGHT
 10
0.0
 20
0.0
 30
0.0
  9
$UCSORGFRONT
 10
0.0
 20
0.0
 30
0.0
  9
$UCSORGBACK
 10
0.0
 20
0.0
 30
0.0
  9
$PUCSBASE
  2

  9
$PUCSNAME
  2

  9
$PUCSORG
 10
0.0
 20
0.0
 30
0.0
  9
$PUCSXDIR
 10
1.0
 20
0.0
 30
0.0
  9
$PUCSYDIR
 10
0.0
 20
1.0
 30
0.0
  9
$PUCSORTHOREF
  2

  9
$PUCSORTHOVIEW
 70
0
  9
$PUCSORGTOP
 10
0.0
 20
0.0
 30
0.0
  9
$PUCSORGBOTTOM
 10
0.0
 20
0.0
 30
0.0
  9
$PUCSORGLEFT
 10
0.0
 20
0.0
 30
0.0
  9
$PUCSORGRIGHT
 10
0.0
 20
0.0
 30
0.0
  9
$PUCSORGFRONT
 10
0.0
 20
0.0
 30
0.0
  9
$PUCSORGBACK
 10
0.0
 20
0.0
 30
0.0
  9
$USERI1
 70
0
  9
$USERI2
 70
0
  9
$USERI3
 70
0
  9
$USERI4
 70
0
  9
$USERI5
 70
0
  9
$USERR1
 40
0.0
  9
$USERR2
 40
0.0
  9
$USERR3
 40
0.0
  9
$USERR4
 40
0.0
  9
$USERR5
 40
0.0
  9
$WORLDVIEW
 70
1
  9
$SHADEDGE
 70
3
  9
$SHADEDIF
 70
70
  9
$TILEMODE
 70
1
  9
$MAXACTVP
 70
64
  9
$PINSBASE
 10
0.0
 20
0.0
 30
0.0
  9
$PLIMCHECK
 70
0
  9
$PEXTMIN
 10
1e+20
 20
1e+20
 30
1e+20
  9
$PEXTMAX
 10
-1e+20
 20
-1e+20
 30
-1e+20
  9
$PLIMMIN
 10
0.0
 20
0.0
  9
$PLIMMAX
 10
420.0
 20
297.0
  9
$UNITMODE
 70
0
  9
$VISRETAIN
 70
1
  9
$PLINEGEN
 70
0
  9
$PSLTSCALE
 70
1
  9
$TREEDEPTH
 70
3020
  9
$CMLSTYLE
  2
Standard
  9
$CMLJUST
 70
0
  9
$CMLSCALE
 40
20.0
  9
$PROXYGRAPHICS
 70
1
  9
$MEASUREMENT
 70
1
  9
$CELWEIGHT
370
-1
  9
$ENDCAPS
280
0
  9
$JOINSTYLE
280
0
  9
$LWDISPLAY
290
0
  9
$INSUNITS
 70
6
  9
$HYPERLINKBASE
  1

  9
$STYLESHEET
  1

  9
$XEDIT
290
1
  9
$CEPSNTYPE
380
0
  9
$PSTYLEMODE
290
1
  9
$FINGERPRINTGUID
  2
{0147A58C-73D2-4E6F-8F10-692C5E0AEE9B}
  9
$VERSIONGUID
  2
{70A74E8E-90C3-4358-81F9-5A41049DDE70}
  9
$EXTNAMES
290
1
  9
$PSVPSCALE
 40
0.0
  9
$OLESTARTUP
290
0
  9
$SORTENTS
280
127
  9
$INDEXCTL
280
0
  9
$HIDETEXT
280
1
  9
$XCLIPFRAME
280
1
  9
$HALOGAP
280
0
  9
$OBSCOLOR
 70
257
  9
$OBSLTYPE
280
0
  9
$INTERSECTIONDISPLAY
280
0
  9
$INTERSECTIONCOLOR
 70
257
  9
$DIMASSOC
280
2
  9
$PROJECTNAME
  1

  9
$CAMERADISPLAY
290
0
  9
$LENSLENGTH
 40
50.0
  9
$CAMERAHEIGHT
 40
0.0
  9
$STEPSPERSEC
 40
24.0
  9
$STEPSIZE
 40
100.0
  9
$3DDWFPREC
 40
2.0
  9
$PSOLWIDTH
 40
0.005
  9
$PSOLHEIGHT
 40
0.08
  9
$LOFTANG1
 40
1.570796326795
  9
$LOFTANG2
 40
1.570796326795
  9
$LOFTMAG1
 40
0.0
  9
$LOFTMAG2
 40
0.0
  9
$LOFTPARAM
 70
7
  9
$LOFTNORMALS
280
1
  9
$LATITUDE
 40
37.795
  9
$LONGITUDE
 40
-122.394
  9
$NORTHDIRECTION
 40
0.0
  9
$TIMEZONE
 70
-8000
  9
$LIGHTGLYPHDISPLAY
280
1
  9
$TILEMODELIGHTSYNCH
280
1
  9
$CMATERIAL
347
20
  9
$SOLIDHIST
280
0
  9
$SHOWHIST
280
1
  9
$DWFFRAME
280
2
  9
$DGNFRAME
280
2
  9
$REALWORLDSCALE
290
1
  9
$INTERFERECOLOR
 62
256
  9
$CSHADOW
280
0
  9
$SHADOWPLANELOCATION
 40
0.0
  0
ENDSEC
  0
SECTION
  2
CLASSES
  0
CLASS
  1
ACDBDICTIONARYWDFLT
  2
AcDbDictionaryWithDefault
  3
ObjectDBX Classes
 90
0
 91
0
280
0
281
0
  0
CLASS
  1
SUN
  2
AcDbSun
  3
SCENEOE
 90
1153
 91
0
280
0
281
0
  0
CLASS
  1
VISUALSTYLE
  2
AcDbVisualStyle
  3
ObjectDBX Classes
 90
4095
 91
0
280
0
281
0
  0
CLASS
  1
MATERIAL
  2
AcDbMaterial
  3
ObjectDBX Classes
 90
1153
 91
0
280
0
281
0
  0
CLASS
  1
SCALE
  2
AcDbScale
  3
ObjectDBX Classes
 90
1153
 91
0
280
0
281
0
  0
CLASS
  1
TABLESTYLE
  2
AcDbTableStyle
  3
ObjectDBX Classes
 90
4095
 91
0
280
0
281
0
  0
CLASS
  1
MLEADERSTYLE
  2
AcDbMLeaderStyle
  3
ACDB_MLEADERSTYLE_CLASS
 90
4095
 91
0
280
0
281
0
  0
CLASS
  1
DICTIONARYVAR
  2
AcDbDictionaryVar
  3
ObjectDBX Classes
 90
0
 91
0
280
0
281
0
  0
CLASS
  1
CELLSTYLEMAP
  2
AcDbCellStyleMap
  3
ObjectDBX Classes
 90
1152
 91
0
280
0
281
0
  0
CLASS
  1
MENTALRAYRENDERSETTINGS
  2
AcDbMentalRayRenderSettings
  3
SCENEOE
 90
1024
 91
0
280
0
281
0
  0
CLASS
  1
ACDBDETAILVIEWSTYLE
  2
AcDbDetailViewStyle
  3
ObjectDBX Classes
 90
1025
 91
0
280
0
281
0
  0
CLASS
  1
ACDBSECTIONVIEWSTYLE
  2
AcDbSectionViewStyle
  3
ObjectDBX Classes
 90
1025
 91
0
280
0
281
0
  0
CLASS
  1
RASTERVARIABLES
  2
AcDbRasterVariables
  3
ISM
 90
0
 91
0
280
0
281
0
  0
CLASS
  1
ACDBPLACEHOLDER
  2
AcDbPlaceHolder
  3
ObjectDBX Classes
 90
0
 91
0
280
0
281
0
  0
CLASS
  1
LAYOUT
  2
AcDbLayout
  3
ObjectDBX Classes
 90
0
 91
0
280
0
281
0
  0
ENDSEC
  0
SECTION
  2
TABLES
  0
TABLE
  2
VPORT
  5
8
330
0
100
AcDbSymbolTable
 70
1
  0
VPORT
  5
23
330
8
100
AcDbSymbolTableRecord
100
AcDbViewportTableRecord
  2
*Active
 70
0
 10
0.0
 20
0.0
 11
1.0
 21
1.0
 12
0.0
 22
0.0
 13
0.0
 23
0.0
 14
0.5
 24
0.5
 15
0.5
 25
0.5
 16
0.0
 26
0.0
 36
1.0
 17
0.0
 27
0.0
 37
0.0
 40
1000.0
 41
1.34
 42
50.0
 43
0.0
 44
0.0
 50
0.0
 51
0.0
 71
0
 72
1000
 73
1
 74
3
 75
0
 76
0
 77
0
 78
0
281
0
 65
0
146
0.0
  0
ENDTAB
  0
TABLE
  2
LTYPE
  5
2
330
0
100
AcDbSymbolTable
 70
3
  0
LTYPE
  5
24
330
2
100
AcDbSymbolTableRecord
100
AcDbLinetypeTableRecord
  2
ByBlock
 70
0
  3

 72
65
 73
0
 40
0.0
  0
LTYPE
  5
25
330
2
100
AcDbSymbolTableRecord
100
AcDbLinetypeTableRecord
  2
ByLayer
 70
0
  3

 72
65
 73
0
 40
0.0
  0
LTYPE
  5
26
330
2
100
AcDbSymbolTableRecord
100
AcDbLinetypeTableRecord
  2
Continuous
 70
0
  3

 72
65
 73
0
 40
0.0
  0
ENDTAB
  0
TABLE
  2
LAYER
  5
1
330
0
100
AcDbSymbolTable
 70
2
  0
LAYER
  5
27
330
1
100
AcDbSymbolTableRecord
100
AcDbLayerTableRecord
  2
0
 70
0
 62
7
  6
Continuous
370
-3
390
13
347
21
  0
LAYER
  5
28
330
1
100
AcDbSymbolTableRecord
100
AcDbLayerTableRecord
  2
Defpoints
 70
0
 62
7
  6
Continuous
290
0
370
-3
390
13
347
21
  0
ENDTAB
  0
TABLE
  2
STYLE
  5
5
330
0
100
AcDbSymbolTable
 70
1
  0
STYLE
  5
29
330
5
100
AcDbSymbolTableRecord
100
AcDbTextStyleTableRecord
  2
Standard
 70
0
 40
0.0
 41
1.0
 50
0.0
 71
0
 42
2.5
  3
txt
  4

  0
ENDTAB
  0
TABLE
  2
VIEW
  5
7
330
0
100
AcDbSymbolTable
 70
0
  0
ENDTAB
  0
TABLE
  2
UCS
  5
6
330
0
100
AcDbSymbolTable
 70
0
  0
ENDTAB
  0
TABLE
  2
APPID
  5
3
330
0
100
AcDbSymbolTable
 70
3
  0
APPID
  5
2A
330
3
100
AcDbSymbolTableRecord
100
AcDbRegAppTableRecord
  2
ACAD
 70
0
  0
APPID
  5
3CF
330
3
100
AcDbSymbolTableRecord
100
AcDbRegAppTableRecord
  2
HATCHBACKGROUNDCOLOR
 70
0
  0
APPID
  5
3D0
330
3
100
AcDbSymbolTableRecord
100
AcDbRegAppTableRecord
  2
EZDXF
 70
0
  0
ENDTAB
  0
TABLE
  2
DIMSTYLE
  5
4
330
0
100
AcDbSymbolTable
 70
1
100
AcDbDimStyleTable
  0
DIMSTYLE
105
2B
330
4
100
AcDbSymbolTableRecord
100
AcDbDimStyleTableRecord
  2
Standard
 70
0
 40
1.0
 41
2.5
 42
0.625
 43
3.75
 44
1.25
 45
0.0
 46
0.0
 47
0.0
 48
0.0
 49
2.5
140
2.5
141
2.5
142
0.0
143
0.03937007874
144
1.0
145
0.0
146
1.0
147
0.625
148
0.0
 69
0
 70
0
 71
0
 72
0
 73
0
 74
0
 75
0
 76
0
 77
1
 78
8
 79
3
170
0
171
3
172
1
173
0
174
0
175
0
176
0
177
0
178
0
179
2
271
2
272
2
273
2
274
3
275
0
276
0
277
2
278
44
279
0
280
0
281
0
282
0
283
0
284
8
285
0
286
0
288
0
289
3
290
0
371
-2
372
-2
  0
ENDTAB
  0
TABLE
  2
BLOCK_RECORD
  5
9
330
0
100
AcDbSymbolTable
 70
2
  0
BLOCK_RECORD
  5
17
330
9
100
AcDbSymbolTableRecord
100
AcDbBlockTableRecord
  2
*Model_Space
340
1A
 70
0
280
1
281
0
  0
BLOCK_RECORD
  5
1B
330
9
100
AcDbSymbolTableRecord
100
AcDbBlockTableRecord
  2
*Paper_Space
340
1E
 70
0
280
1
281
0
  0
ENDTAB
  0
ENDSEC
  0
SECTION
  2
BLOCKS
  0
BLOCK
  5
18
330
17
100
AcDbEntity
  8
0
100
AcDbBlockBegin
  2
*Model_Space
 70
0
 10
0.0
 20
0.0
 30
0.0
  3
*Model_Space
  1

  0
ENDBLK
  5
19
330
17
100
AcDbEntity
  8
0
100
AcDbBlockEnd
  0
BLOCK
  5
1C
330
1B
100
AcDbEntity
  8
0
100
AcDbBlockBegin
  2
*Paper_Space
 70
0
 10
0.0
 20
0.0
 30
0.0
  3
*Paper_Space
  1

  0
ENDBLK
  5
1D
330
1B
100
AcDbEntity
  8
0
100
AcDbBlockEnd
  0
ENDSEC
  0
SECTION
  2
ENTITIES
  0
LINE
  5
2F
330
17
100
AcDbEntity
  8
0
100
AcDbLine
 10
395.801
 20
-294.767
 30
0.0
 11
411.459
 21
-289.957
 31
0.0
  0
LINE
  5
30
330
17
100
AcDbEntity
  8
0
100
AcDbLine
 10
411.459
 20
-289.957
 30
0.0
 11
422.616
 21
-287.564
 31
0.0
  0
LINE
  5
31
330
17
100
AcDbEntity
  8
0
100
AcDbLine
 10
422.616
 20
-287.564
 30
0.0
 11
435.152
 21
-285.956
 31
0.0
  0
LINE
  5
32
330
17
100
AcDbEntity
  8
0
100
AcDbLine
 10
435.152
 20
-285.956
 30
0.0
 11
448.43899999999996
 21
-285.716
 31
0.0
  0
LINE
  5
33
330
17
100
AcDbEntity
  8
0
100
AcDbLine
 10
448.43899999999996
 20
-285.716
 30
0.0
 11
455.167
 21
-286.291
 31
0.0
  0
LINE
  5
34
330
17
100
AcDbEntity
  8
0
100
AcDbLine
 10
455.167
 20
-286.291
 30
0.0
 11
461.847
 21
-287.427
 31
0.0
  0
LINE
  5
35
330
17
100
AcDbEntity
  8
0
100
AcDbLine
 10
461.847
 20
-287.427
 30
0.0
 11
468.4
 21
-289.196
 31
0.0
  0
LINE
  5
36
330
17
100
AcDbEntity
  8
0
100
AcDbLine
 10
468.4
 20
-289.196
 30
0.0
 11
474.74699999999996
 21
-291.672
 31
0.0
  0
LINE
  5
37
330
17
100
AcDbEntity
  8
0
100
AcDbLine
 10
474.74699999999996
 20
-291.672
 30
0.0
 11
480.80999999999995
 21
-294.927
 31
0.0
  0
LINE
  5
38
330
17
100
AcDbEntity
  8
0
100
AcDbLine
 10
480.80999999999995
 20
-294.927
 30
0.0
 11
486.50999999999993
 21
-299.03400000000005
 31
0.0
  0
LINE
  5
39
330
17
100
AcDbEntity
  8
0
100
AcDbLine
 10
486.50999999999993
 20
-299.03400000000005
 30
0.0
 11
564.684
 21
-499.32500000000005
 31
0.0
  0
LINE
  5
3A
330
17
100
AcDbEntity
  8
0
100
AcDbLine
 10
564.684
 20
-499.32500000000005
 30
0.0
 11
559.905
 21
-511.67900000000003
 31
0.0
  0
LINE
  5
3B
330
17
100
AcDbEntity
  8
0
100
AcDbLine
 10
559.905
 20
-511.67900000000003
 30
0.0
 11
554.622
 21
-522.118
 31
0.0
  0
LINE
  5
3C
330
17
100
AcDbEntity
  8
0
100
AcDbLine
 10
554.622
 20
-522.118
 30
0.0
 11
551.459
 21
-526.9440000000001
 31
0.0
  0
LINE
  5
3D
330
17
100
AcDbEntity
  8
0
100
AcDbLine
 10
551.459
 20
-526.9440000000001
 30
0.0
 11
549.7719999999999
 21
-529.076
 31
0.0
  0
LINE
  5
3E
330
17
100
AcDbEntity
  8
0
100
AcDbLine
 10
549.7719999999999
 20
-529.076
 30
0.0
 11
548.025
 21
-530.951
 31
0.0
  0
LINE
  5
3F
330
17
100
AcDbEntity
  8
0
100
AcDbLine
 10
548.025
 20
-530.951
 30
0.0
 11
471.215
 21
-543.753
 31
0.0
  0
LINE
  5
40
330
17
100
AcDbEntity
  8
0
100
AcDbLine
 10
471.215
 20
-543.753
 30
0.0
 11
393.325
 21
-299.23600000000005
 31
0.0
  0
LINE
  5
41
330
17
100
AcDbEntity
  8
0
100
AcDbLine
 10
393.325
 20
-299.23600000000005
 30
0.0
 11
393.264
 21
-298.86000000000007
 31
0.0
  0
LINE
  5
42
330
17
100
AcDbEntity
  8
0
100
AcDbLine
 10
393.264
 20
-298.86000000000007
 30
0.0
 11
393.24
 21
-298.48500000000007
 31
0.0
  0
LINE
  5
43
330
17
100
AcDbEntity
  8
0
100
AcDbLine
 10
393.24
 20
-298.48500000000007
 30
0.0
 11
393.252
 21
-298.1140000000001
 31
0.0
  0
LINE
  5
44
330
17
100
AcDbEntity
  8
0
100
AcDbLine
 10
393.252
 20
-298.1140000000001
 30
0.0
 11
393.29900000000004
 21
-297.7490000000001
 31
0.0
  0
LINE
  5
45
330
17
100
AcDbEntity
  8
0
100
AcDbLine
 10
393.29900000000004
 20
-297.7490000000001
 30
0.0
 11
393.38000000000005
 21
-297.39200000000005
 31
0.0
  0
LINE
  5
46
330
17
100
AcDbEntity
  8
0
100
AcDbLine
 10
393.38000000000005
 20
-297.39200000000005
 30
0.0
 11
393.494
 21
-297.0450000000001
 31
0.0
  0
LINE
  5
47
330
17
100
AcDbEntity
  8
0
100
AcDbLine
 10
393.494
 20
-297.0450000000001
 30
0.0
 11
393.639
 21
-296.71100000000007
 31
0.0
  0
LINE
  5
48
330
17
100
AcDbEntity
  8
0
100
AcDbLine
 10
393.639
 20
-296.71100000000007
 30
0.0
 11
393.815
 21
-296.39200000000005
 31
0.0
  0
LINE
  5
49
330
17
100
AcDbEntity
  8
0
100
AcDbLine
 10
393.815
 20
-296.39200000000005
 30
0.0
 11
394.02
 21
-296.09000000000003
 31
0.0
  0
LINE
  5
4A
330
17
100
AcDbEntity
  8
0
100
AcDbLine
 10
394.02
 20
-296.09000000000003
 30
0.0
 11
394.253
 21
-295.807
 31
0.0
  0
LINE
  5
4B
330
17
100
AcDbEntity
  8
0
100
AcDbLine
 10
394.253
 20
-295.807
 30
0.0
 11
394.513
 21
-295.546
 31
0.0
  0
LINE
  5
4C
330
17
100
AcDbEntity
  8
0
100
AcDbLine
 10
394.513
 20
-295.546
 30
0.0
 11
394.799
 21
-295.30899999999997
 31
0.0
  0
LINE
  5
4D
330
17
100
AcDbEntity
  8
0
100
AcDbLine
 10
394.799
 20
-295.30899999999997
 30
0.0
 11
395.10999999999996
 21
-295.09799999999996
 31
0.0
  0
LINE
  5
4E
330
17
100
AcDbEntity
  8
0
100
AcDbLine
 10
395.10999999999996
 20
-295.09799999999996
 30
0.0
 11
395.44499999999994
 21
-294.91599999999994
 31
0.0
  0
LINE
  5
4F
330
17
100
AcDbEntity
  8
0
100
AcDbLine
 10
395.44499999999994
 20
-294.91599999999994
 30
0.0
 11
395.80199999999996
 21
-294.76499999999993
 31
0.0
  0
LINE
  5
50
330
17
100
AcDbEntity
  8
0
100
AcDbLine
 10
456.14599999999996
 20
-317.8619999999999
 30
0.0
 11
456.09599999999995
 21
-318.8419999999999
 31
0.0
  0
LINE
  5
51
330
17
100
AcDbEntity
  8
0
100
AcDbLine
 10
456.09599999999995
 20
-318.8419999999999
 30
0.0
 11
455.95099999999996
 21
-319.7939999999999
 31
0.0
  0
LINE
  5
52
330
17
100
AcDbEntity
  8
0
100
AcDbLine
 10
455.95099999999996
 20
-319.7939999999999
 30
0.0
 11
455.715
 21
-320.7129999999999
 31
0.0
  0
LINE
  5
53
330
17
100
AcDbEntity
  8
0
100
AcDbLine
 10
455.715
 20
-320.7129999999999
 30
0.0
 11
455.393
 21
-321.5939999999999
 31
0.0
  0
LINE
  5
54
330
17
100
AcDbEntity
  8
0
100
AcDbLine
 10
455.393
 20
-321.5939999999999
 30
0.0
 11
454.989
 21
-322.4319999999999
 31
0.0
  0
LINE
  5
55
330
17
100
AcDbEntity
  8
0
100
AcDbLine
 10
454.989
 20
-322.4319999999999
 30
0.0
 11
454.50899999999996
 21
-323.2229999999999
 31
0.0
  0
LINE
  5
56
330
17
100
AcDbEntity
  8
0
100
AcDbLine
 10
454.50899999999996
 20
-323.2229999999999
 30
0.0
 11
453.95699999999994
 21
-323.9609999999999
 31
0.0
  0
LINE
  5
57
330
17
100
AcDbEntity
  8
0
100
AcDbLine
 10
453.95699999999994
 20
-323.9609999999999
 30
0.0
 11
453.3379999999999
 21
-324.6419999999999
 31
0.0
  0
LINE
  5
58
330
17
100
AcDbEntity
  8
0
100
AcDbLine
 10
453.3379999999999
 20
-324.6419999999999
 30
0.0
 11
452.6569999999999
 21
-325.2609999999999
 31
0.0
  0
LINE
  5
59
330
17
100
AcDbEntity
  8
0
100
AcDbLine
 10
452.6569999999999
 20
-325.2609999999999
 30
0.0
 11
451.9189999999999
 21
-325.81299999999993
 31
0.0
  0
LINE
  5
5A
330
17
100
AcDbEntity
  8
0
100
AcDbLine
 10
451.9189999999999
 20
-325.81299999999993
 30
0.0
 11
451.12799999999993
 21
-326.29299999999995
 31
0.0
  0
LINE
  5
5B
330
17
100
AcDbEntity
  8
0
100
AcDbLine
 10
451.12799999999993
 20
-326.29299999999995
 30
0.0
 11
450.2899999999999
 21
-326.69699999999995
 31
0.0
  0
LINE
  5
5C
330
17
100
AcDbEntity
  8
0
100
AcDbLine
 10
450.2899999999999
 20
-326.69699999999995
 30
0.0
 11
449.40899999999993
 21
-327.01899999999995
 31
0.0
  0
LINE
  5
5D
330
17
100
AcDbEntity
  8
0
100
AcDbLine
 10
449.40899999999993
 20
-327.01899999999995
 30
0.0
 11
448.48999999999995
 21
-327.25499999999994
 31
0.0
  0
LINE
  5
5E
330
17
100
AcDbEntity
  8
0
100
AcDbLine
 10
448.48999999999995
 20
-327.25499999999994
 30
0.0
 11
447.53799999999995
 21
-327.3999999999999
 31
0.0
  0
LINE
  5
5F
330
17
100
AcDbEntity
  8
0
100
AcDbLine
 10
447.53799999999995
 20
-327.3999999999999
 30
0.0
 11
446.55799999999994
 21
-327.4489999999999
 31
0.0
  0
LINE
  5
60
330
17
100
AcDbEntity
  8
0
100
AcDbLine
 10
446.55799999999994
 20
-327.4489999999999
 30
0.0
 11
445.5779999999999
 21
-327.3999999999999
 31
0.0
  0
LINE
  5
61
330
17
100
AcDbEntity
  8
0
100
AcDbLine
 10
445.5779999999999
 20
-327.3999999999999
 30
0.0
 11
444.6259999999999
 21
-327.25499999999994
 31
0.0
  0
LINE
  5
62
330
17
100
AcDbEntity
  8
0
100
AcDbLine
 10
444.6259999999999
 20
-327.25499999999994
 30
0.0
 11
443.70699999999994
 21
-327.01899999999995
 31
0.0
  0
LINE
  5
63
330
17
100
AcDbEntity
  8
0
100
AcDbLine
 10
443.70699999999994
 20
-327.01899999999995
 30
0.0
 11
442.82599999999996
 21
-326.69699999999995
 31
0.0
  0
LINE
  5
64
330
17
100
AcDbEntity
  8
0
100
AcDbLine
 10
442.82599999999996
 20
-326.69699999999995
 30
0.0
 11
441.98799999999994
 21
-326.29299999999995
 31
0.0
  0
LINE
  5
65
330
17
100
AcDbEntity
  8
0
100
AcDbLine
 10
441.98799999999994
 20
-326.29299999999995
 30
0.0
 11
441.19699999999995
 21
-325.81299999999993
 31
0.0
  0
LINE
  5
66
330
17
100
AcDbEntity
  8
0
100
AcDbLine
 10
441.19699999999995
 20
-325.81299999999993
 30
0.0
 11
440.45899999999995
 21
-325.2609999999999
 31
0.0
  0
LINE
  5
67
330
17
100
AcDbEntity
  8
0
100
AcDbLine
 10
440.45899999999995
 20
-325.2609999999999
 30
0.0
 11
439.77799999999996
 21
-324.6419999999999
 31
0.0
  0
LINE
  5
68
330
17
100
AcDbEntity
  8
0
100
AcDbLine
 10
439.77799999999996
 20
-324.6419999999999
 30
0.0
 11
439.15899999999993
 21
-323.9609999999999
 31
0.0
  0
LINE
  5
69
330
17
100
AcDbEntity
  8
0
100
AcDbLine
 10
439.15899999999993
 20
-323.9609999999999
 30
0.0
 11
438.6069999999999
 21
-323.2229999999999
 31
0.0
  0
LINE
  5
6A
330
17
100
AcDbEntity
  8
0
100
AcDbLine
 10
438.6069999999999
 20
-323.2229999999999
 30
0.0
 11
438.1269999999999
 21
-322.4319999999999
 31
0.0
  0
LINE
  5
6B
330
17
100
AcDbEntity
  8
0
100
AcDbLine
 10
438.1269999999999
 20
-322.4319999999999
 30
0.0
 11
437.7229999999999
 21
-321.5939999999999
 31
0.0
  0
LINE
  5
6C
330
17
100
AcDbEntity
  8
0
100
AcDbLine
 10
437.7229999999999
 20
-321.5939999999999
 30
0.0
 11
437.4009999999999
 21
-320.7129999999999
 31
0.0
  0
LINE
  5
6D
330
17
100
AcDbEntity
  8
0
100
AcDbLine
 10
437.4009999999999
 20
-320.7129999999999
 30
0.0
 11
437.1649999999999
 21
-319.7939999999999
 31
0.0
  0
LINE
  5
6E
330
17
100
AcDbEntity
  8
0
100
AcDbLine
 10
437.1649999999999
 20
-319.7939999999999
 30
0.0
 11
437.0199999999999
 21
-318.8419999999999
 31
0.0
  0
LINE
  5
6F
330
17
100
AcDbEntity
  8
0
100
AcDbLine
 10
437.0199999999999
 20
-318.8419999999999
 30
0.0
 11
436.9699999999999
 21
-317.8619999999999
 31
0.0
  0
LINE
  5
70
330
17
100
AcDbEntity
  8
0
100
AcDbLine
 10
436.9699999999999
 20
-317.8619999999999
 30
0.0
 11
437.0199999999999
 21
-316.8819999999999
 31
0.0
  0
LINE
  5
71
330
17
100
AcDbEntity
  8
0
100
AcDbLine
 10
437.0199999999999
 20
-316.8819999999999
 30
0.0
 11
437.1649999999999
 21
-315.9299999999999
 31
0.0
  0
LINE
  5
72
330
17
100
AcDbEntity
  8
0
100
AcDbLine
 10
437.1649999999999
 20
-315.9299999999999
 30
0.0
 11
437.4009999999999
 21
-315.0109999999999
 31
0.0
  0
LINE
  5
73
330
17
100
AcDbEntity
  8
0
100
AcDbLine
 10
437.4009999999999
 20
-315.0109999999999
 30
0.0
 11
437.7229999999999
 21
-314.12999999999994
 31
0.0
  0
LINE
  5
74
330
17
100
AcDbEntity
  8
0
100
AcDbLine
 10
437.7229999999999
 20
-314.12999999999994
 30
0.0
 11
438.1269999999999
 21
-313.2919999999999
 31
0.0
  0
LINE
  5
75
330
17
100
AcDbEntity
  8
0
100
AcDbLine
 10
438.1269999999999
 20
-313.2919999999999
 30
0.0
 11
438.6069999999999
 21
-312.5009999999999
 31
0.0
  0
LINE
  5
76
330
17
100
AcDbEntity
  8
0
100
AcDbLine
 10
438.6069999999999
 20
-312.5009999999999
 30
0.0
 11
439.15899999999993
 21
-311.7629999999999
 31
0.0
  0
LINE
  5
77
330
17
100
AcDbEntity
  8
0
100
AcDbLine
 10
439.15899999999993
 20
-311.7629999999999
 30
0.0
 11
439.77799999999996
 21
-311.08199999999994
 31
0.0
  0
LINE
  5
78
330
17
100
AcDbEntity
  8
0
100
AcDbLine
 10
439.77799999999996
 20
-311.08199999999994
 30
0.0
 11
440.45899999999995
 21
-310.4629999999999
 31
0.0
  0
LINE
  5
79
330
17
100
AcDbEntity
  8
0
100
AcDbLine
 10
440.45899999999995
 20
-310.4629999999999
 30
0.0
 11
441.19699999999995
 21
-309.9109999999999
 31
0.0
  0
LINE
  5
7A
330
17
100
AcDbEntity
  8
0
100
AcDbLine
 10
441.19699999999995
 20
-309.9109999999999
 30
0.0
 11
441.98799999999994
 21
-309.43099999999987
 31
0.0
  0
LINE
  5
7B
330
17
100
AcDbEntity
  8
0
100
AcDbLine
 10
441.98799999999994
 20
-309.43099999999987
 30
0.0
 11
442.82599999999996
 21
-309.0269999999999
 31
0.0
  0
LINE
  5
7C
330
17
100
AcDbEntity
  8
0
100
AcDbLine
 10
442.82599999999996
 20
-309.0269999999999
 30
0.0
 11
443.70699999999994
 21
-308.70499999999987
 31
0.0
  0
LINE
  5
7D
330
17
100
AcDbEntity
  8
0
100
AcDbLine
 10
443.70699999999994
 20
-308.70499999999987
 30
0.0
 11
444.6259999999999
 21
-308.4689999999999
 31
0.0
  0
LINE
  5
7E
330
17
100
AcDbEntity
  8
0
100
AcDbLine
 10
444.6259999999999
 20
-308.4689999999999
 30
0.0
 11
445.5779999999999
 21
-308.3239999999999
 31
0.0
  0
LINE
  5
7F
330
17
100
AcDbEntity
  8
0
100
AcDbLine
 10
445.5779999999999
 20
-308.3239999999999
 30
0.0
 11
446.55799999999994
 21
-308.2739999999999
 31
0.0
  0
LINE
  5
80
330
17
100
AcDbEntity
  8
0
100
AcDbLine
 10
446.55799999999994
 20
-308.2739999999999
 30
0.0
 11
447.53799999999995
 21
-308.3239999999999
 31
0.0
  0
LINE
  5
81
330
17
100
AcDbEntity
  8
0
100
AcDbLine
 10
447.53799999999995
 20
-308.3239999999999
 30
0.0
 11
448.48999999999995
 21
-308.4689999999999
 31
0.0
  0
LINE
  5
82
330
17
100
AcDbEntity
  8
0
100
AcDbLine
 10
448.48999999999995
 20
-308.4689999999999
 30
0.0
 11
449.40899999999993
 21
-308.70499999999987
 31
0.0
  0
LINE
  5
83
330
17
100
AcDbEntity
  8
0
100
AcDbLine
 10
449.40899999999993
 20
-308.70499999999987
 30
0.0
 11
450.2899999999999
 21
-309.0269999999999
 31
0.0
  0
LINE
  5
84
330
17
100
AcDbEntity
  8
0
100
AcDbLine
 10
450.2899999999999
 20
-309.0269999999999
 30
0.0
 11
451.12799999999993
 21
-309.43099999999987
 31
0.0
  0
LINE
  5
85
330
17
100
AcDbEntity
  8
0
100
AcDbLine
 10
451.12799999999993
 20
-309.43099999999987
 30
0.0
 11
451.9189999999999
 21
-309.9109999999999
 31
0.0
  0
LINE
  5
86
330
17
100
AcDbEntity
  8
0
100
AcDbLine
 10
451.9189999999999
 20
-309.9109999999999
 30
0.0
 11
452.6569999999999
 21
-310.4629999999999
 31
0.0
  0
LINE
  5
87
330
17
100
AcDbEntity
  8
0
100
AcDbLine
 10
452.6569999999999
 20
-310.4629999999999
 30
0.0
 11
453.3379999999999
 21
-311.08199999999994
 31
0.0
  0
LINE
  5
88
330
17
100
AcDbEntity
  8
0
100
AcDbLine
 10
453.3379999999999
 20
-311.08199999999994
 30
0.0
 11
453.95699999999994
 21
-311.7629999999999
 31
0.0
  0
LINE
  5
89
330
17
100
AcDbEntity
  8
0
100
AcDbLine
 10
453.95699999999994
 20
-311.7629999999999
 30
0.0
 11
454.50899999999996
 21
-312.5009999999999
 31
0.0
  0
LINE
  5
8A
330
17
100
AcDbEntity
  8
0
100
AcDbLine
 10
454.50899999999996
 20
-312.5009999999999
 30
0.0
 11
454.989
 21
-313.2919999999999
 31
0.0
  0
LINE
  5
8B
330
17
100
AcDbEntity
  8
0
100
AcDbLine
 10
454.989
 20
-313.2919999999999
 30
0.0
 11
455.393
 21
-314.12999999999994
 31
0.0
  0
LINE
  5
8C
330
17
100
AcDbEntity
  8
0
100
AcDbLine
 10
455.393
 20
-314.12999999999994
 30
0.0
 11
455.715
 21
-315.0109999999999
 31
0.0
  0
LINE
  5
8D
330
17
100
AcDbEntity
  8
0
100
AcDbLine
 10
455.715
 20
-315.0109999999999
 30
0.0
 11
455.95099999999996
 21
-315.9299999999999
 31
0.0
  0
LINE
  5
8E
330
17
100
AcDbEntity
  8
0
100
AcDbLine
 10
455.95099999999996
 20
-315.9299999999999
 30
0.0
 11
456.09599999999995
 21
-316.8819999999999
 31
0.0
  0
LINE
  5
8F
330
17
100
AcDbEntity
  8
0
100
AcDbLine
 10
456.09599999999995
 20
-316.8819999999999
 30
0.0
 11
456.14599999999996
 21
-317.8619999999999
 31
0.0
  0
LINE
  5
90
330
17
100
AcDbEntity
  8
0
100
AcDbLine
 10
524.6769999999999
 20
-504.5239999999999
 30
0.0
 11
524.632
 21
-505.42399999999986
 31
0.0
  0
LINE
  5
91
330
17
100
AcDbEntity
  8
0
100
AcDbLine
 10
524.632
 20
-505.42399999999986
 30
0.0
 11
524.4989999999999
 21
-506.2979999999999
 31
0.0
  0
LINE
  5
92
330
17
100
AcDbEntity
  8
0
100
AcDbLine
 10
524.4989999999999
 20
-506.2979999999999
 30
0.0
 11
524.2819999999999
 21
-507.1409999999999
 31
0.0
  0
LINE
  5
93
330
17
100
AcDbEntity
  8
0
100
AcDbLine
 10
524.2819999999999
 20
-507.1409999999999
 30
0.0
 11
523.9859999999999
 21
-507.94999999999993
 31
0.0
  0
LINE
  5
94
330
17
100
AcDbEntity
  8
0
100
AcDbLine
 10
523.9859999999999
 20
-507.94999999999993
 30
0.0
 11
523.6149999999999
 21
-508.71899999999994
 31
0.0
  0
LINE
  5
95
330
17
100
AcDbEntity
  8
0
100
AcDbLine
 10
523.6149999999999
 20
-508.71899999999994
 30
0.0
 11
523.1739999999999
 21
-509.44499999999994
 31
0.0
  0
LINE
  5
96
330
17
100
AcDbEntity
  8
0
100
AcDbLine
 10
523.1739999999999
 20
-509.44499999999994
 30
0.0
 11
522.6669999999999
 21
-510.12199999999996
 31
0.0
  0
LINE
  5
97
330
17
100
AcDbEntity
  8
0
100
AcDbLine
 10
522.6669999999999
 20
-510.12199999999996
 30
0.0
 11
522.0989999999999
 21
-510.74699999999996
 31
0.0
  0
LINE
  5
98
330
17
100
AcDbEntity
  8
0
100
AcDbLine
 10
522.0989999999999
 20
-510.74699999999996
 30
0.0
 11
521.4739999999999
 21
-511.31499999999994
 31
0.0
  0
LINE
  5
99
330
17
100
AcDbEntity
  8
0
100
AcDbLine
 10
521.4739999999999
 20
-511.31499999999994
 30
0.0
 11
520.7969999999999
 21
-511.82199999999995
 31
0.0
  0
LINE
  5
9A
330
17
100
AcDbEntity
  8
0
100
AcDbLine
 10
520.7969999999999
 20
-511.82199999999995
 30
0.0
 11
520.0709999999999
 21
-512.2629999999999
 31
0.0
  0
LINE
  5
9B
330
17
100
AcDbEntity
  8
0
100
AcDbLine
 10
520.0709999999999
 20
-512.2629999999999
 30
0.0
 11
519.3019999999999
 21
-512.6339999999999
 31
0.0
  0
LINE
  5
9C
330
17
100
AcDbEntity
  8
0
100
AcDbLine
 10
519.3019999999999
 20
-512.6339999999999
 30
0.0
 11
518.4929999999999
 21
-512.93
 31
0.0
  0
LINE
  5
9D
330
17
100
AcDbEntity
  8
0
100
AcDbLine
 10
518.4929999999999
 20
-512.93
 30
0.0
 11
517.65
 21
-513.1469999999999
 31
0.0
  0
LINE
  5
9E
330
17
100
AcDbEntity
  8
0
100
AcDbLine
 10
517.65
 20
-513.1469999999999
 30
0.0
 11
516.776
 21
-513.28
 31
0.0
  0
LINE
  5
9F
330
17
100
AcDbEntity
  8
0
100
AcDbLine
 10
516.776
 20
-513.28
 30
0.0
 11
515.876
 21
-513.3249999999999
 31
0.0
  0
LINE
  5
A0
330
17
100
AcDbEntity
  8
0
100
AcDbLine
 10
515.876
 20
-513.3249999999999
 30
0.0
 11
514.976
 21
-513.28
 31
0.0
  0
LINE
  5
A1
330
17
100
AcDbEntity
  8
0
100
AcDbLine
 10
514.976
 20
-513.28
 30
0.0
 11
514.102
 21
-513.1469999999999
 31
0.0
  0
LINE
  5
A2
330
17
100
AcDbEntity
  8
0
100
AcDbLine
 10
514.102
 20
-513.1469999999999
 30
0.0
 11
513.259
 21
-512.93
 31
0.0
  0
LINE
  5
A3
330
17
100
AcDbEntity
  8
0
100
AcDbLine
 10
513.259
 20
-512.93
 30
0.0
 11
512.45
 21
-512.6339999999999
 31
0.0
  0
LINE
  5
A4
330
17
100
AcDbEntity
  8
0
100
AcDbLine
 10
512.45
 20
-512.6339999999999
 30
0.0
 11
511.68100000000004
 21
-512.2629999999999
 31
0.0
  0
LINE
  5
A5
330
17
100
AcDbEntity
  8
0
100
AcDbLine
 10
511.68100000000004
 20
-512.2629999999999
 30
0.0
 11
510.95500000000004
 21
-511.82199999999995
 31
0.0
  0
LINE
  5
A6
330
17
100
AcDbEntity
  8
0
100
AcDbLine
 10
510.95500000000004
 20
-511.82199999999995
 30
0.0
 11
510.278
 21
-511.31499999999994
 31
0.0
  0
LINE
  5
A7
330
17
100
AcDbEntity
  8
0
100
AcDbLine
 10
510.278
 20
-511.31499999999994
 30
0.0
 11
509.653
 21
-510.74699999999996
 31
0.0
  0
LINE
  5
A8
330
17
100
AcDbEntity
  8
0
100
AcDbLine
 10
509.653
 20
-510.74699999999996
 30
0.0
 11
509.08500000000004
 21
-510.12199999999996
 31
0.0
  0
LINE
  5
A9
330
17
100
AcDbEntity
  8
0
100
AcDbLine
 10
509.08500000000004
 20
-510.12199999999996
 30
0.0
 11
508.57800000000003
 21
-509.44499999999994
 31
0.0
  0
LINE
  5
AA
330
17
100
AcDbEntity
  8
0
100
AcDbLine
 10
508.57800000000003
 20
-509.44499999999994
 30
0.0
 11
508.13700000000006
 21
-508.71899999999994
 31
0.0
  0
LINE
  5
AB
330
17
100
AcDbEntity
  8
0
100
AcDbLine
 10
508.13700000000006
 20
-508.71899999999994
 30
0.0
 11
507.7660000000001
 21
-507.94999999999993
 31
0.0
  0
LINE
  5
AC
330
17
100
AcDbEntity
  8
0
100
AcDbLine
 10
507.7660000000001
 20
-507.94999999999993
 30
0.0
 11
507.4700000000001
 21
-507.1409999999999
 31
0.0
  0
LINE
  5
AD
330
17
100
AcDbEntity
  8
0
100
AcDbLine
 10
507.4700000000001
 20
-507.1409999999999
 30
0.0
 11
507.2530000000001
 21
-506.2979999999999
 31
0.0
  0
LINE
  5
AE
330
17
100
AcDbEntity
  8
0
100
AcDbLine
 10
507.2530000000001
 20
-506.2979999999999
 30
0.0
 11
507.1200000000001
 21
-505.42399999999986
 31
0.0
  0
LINE
  5
AF
330
17
100
AcDbEntity
  8
0
100
AcDbLine
 10
507.1200000000001
 20
-505.42399999999986
 30
0.0
 11
507.0750000000001
 21
-504.5239999999999
 31
0.0
  0
LINE
  5
B0
330
17
100
AcDbEntity
  8
0
100
AcDbLine
 10
507.0750000000001
 20
-504.5239999999999
 30
0.0
 11
507.1200000000001
 21
-503.6239999999999
 31
0.0
  0
LINE
  5
B1
330
17
100
AcDbEntity
  8
0
100
AcDbLine
 10
507.1200000000001
 20
-503.6239999999999
 30
0.0
 11
507.2530000000001
 21
-502.7499999999999
 31
0.0
  0
LINE
  5
B2
330
17
100
AcDbEntity
  8
0
100
AcDbLine
 10
507.2530000000001
 20
-502.7499999999999
 30
0.0
 11
507.4700000000001
 21
-501.90699999999987
 31
0.0
  0
LINE
  5
B3
330
17
100
AcDbEntity
  8
0
100
AcDbLine
 10
507.4700000000001
 20
-501.90699999999987
 30
0.0
 11
507.7660000000001
 21
-501.09799999999984
 31
0.0
  0
LINE
  5
B4
330
17
100
AcDbEntity
  8
0
100
AcDbLine
 10
507.7660000000001
 20
-501.09799999999984
 30
0.0
 11
508.13700000000006
 21
-500.32899999999984
 31
0.0
  0
LINE
  5
B5
330
17
100
AcDbEntity
  8
0
100
AcDbLine
 10
508.13700000000006
 20
-500.32899999999984
 30
0.0
 11
508.57800000000003
 21
-499.60299999999984
 31
0.0
  0
LINE
  5
B6
330
17
100
AcDbEntity
  8
0
100
AcDbLine
 10
508.57800000000003
 20
-499.60299999999984
 30
0.0
 11
509.08500000000004
 21
-498.9259999999998
 31
0.0
  0
LINE
  5
B7
330
17
100
AcDbEntity
  8
0
100
AcDbLine
 10
509.08500000000004
 20
-498.9259999999998
 30
0.0
 11
509.653
 21
-498.3009999999998
 31
0.0
  0
LINE
  5
B8
330
17
100
AcDbEntity
  8
0
100
AcDbLine
 10
509.653
 20
-498.3009999999998
 30
0.0
 11
510.278
 21
-497.73299999999983
 31
0.0
  0
LINE
  5
B9
330
17
100
AcDbEntity
  8
0
100
AcDbLine
 10
510.278
 20
-497.73299999999983
 30
0.0
 11
510.95500000000004
 21
-497.22599999999983
 31
0.0
  0
LINE
  5
BA
330
17
100
AcDbEntity
  8
0
100
AcDbLine
 10
510.95500000000004
 20
-497.22599999999983
 30
0.0
 11
511.68100000000004
 21
-496.78499999999985
 31
0.0
  0
LINE
  5
BB
330
17
100
AcDbEntity
  8
0
100
AcDbLine
 10
511.68100000000004
 20
-496.78499999999985
 30
0.0
 11
512.45
 21
-496.4139999999999
 31
0.0
  0
LINE
  5
BC
330
17
100
AcDbEntity
  8
0
100
AcDbLine
 10
512.45
 20
-496.4139999999999
 30
0.0
 11
513.259
 21
-496.1179999999999
 31
0.0
  0
LINE
  5
BD
330
17
100
AcDbEntity
  8
0
100
AcDbLine
 10
513.259
 20
-496.1179999999999
 30
0.0
 11
514.102
 21
-495.9009999999999
 31
0.0
  0
LINE
  5
BE
330
17
100
AcDbEntity
  8
0
100
AcDbLine
 10
514.102
 20
-495.9009999999999
 30
0.0
 11
514.976
 21
-495.7679999999999
 31
0.0
  0
LINE
  5
BF
330
17
100
AcDbEntity
  8
0
100
AcDbLine
 10
514.976
 20
-495.7679999999999
 30
0.0
 11
515.876
 21
-495.7229999999999
 31
0.0
  0
LINE
  5
C0
330
17
100
AcDbEntity
  8
0
100
AcDbLine
 10
515.876
 20
-495.7229999999999
 30
0.0
 11
516.776
 21
-495.7679999999999
 31
0.0
  0
LINE
  5
C1
330
17
100
AcDbEntity
  8
0
100
AcDbLine
 10
516.776
 20
-495.7679999999999
 30
0.0
 11
517.65
 21
-495.9009999999999
 31
0.0
  0
LINE
  5
C2
330
17
100
AcDbEntity
  8
0
100
AcDbLine
 10
517.65
 20
-495.9009999999999
 30
0.0
 11
518.4929999999999
 21
-496.1179999999999
 31
0.0
  0
LINE
  5
C3
330
17
100
AcDbEntity
  8
0
100
AcDbLine
 10
518.4929999999999
 20
-496.1179999999999
 30
0.0
 11
519.3019999999999
 21
-496.4139999999999
 31
0.0
  0
LINE
  5
C4
330
17
100
AcDbEntity
  8
0
100
AcDbLine
 10
519.3019999999999
 20
-496.4139999999999
 30
0.0
 11
520.0709999999999
 21
-496.78499999999985
 31
0.0
  0
LINE
  5
C5
330
17
100
AcDbEntity
  8
0
100
AcDbLine
 10
520.0709999999999
 20
-496.78499999999985
 30
0.0
 11
520.7969999999999
 21
-497.22599999999983
 31
0.0
  0
LINE
  5
C6
330
17
100
AcDbEntity
  8
0
100
AcDbLine
 10
520.7969999999999
 20
-497.22599999999983
 30
0.0
 11
521.4739999999999
 21
-497.73299999999983
 31
0.0
  0
LINE
  5
C7
330
17
100
AcDbEntity
  8
0
100
AcDbLine
 10
521.4739999999999
 20
-497.73299999999983
 30
0.0
 11
522.0989999999999
 21
-498.3009999999998
 31
0.0
  0
LINE
  5
C8
330
17
100
AcDbEntity
  8
0
100
AcDbLine
 10
522.0989999999999
 20
-498.3009999999998
 30
0.0
 11
522.6669999999999
 21
-498.9259999999998
 31
0.0
  0
LINE
  5
C9
330
17
100
AcDbEntity
  8
0
100
AcDbLine
 10
522.6669999999999
 20
-498.9259999999998
 30
0.0
 11
523.1739999999999
 21
-499.60299999999984
 31
0.0
  0
LINE
  5
CA
330
17
100
AcDbEntity
  8
0
100
AcDbLine
 10
523.1739999999999
 20
-499.60299999999984
 30
0.0
 11
523.6149999999999
 21
-500.32899999999984
 31
0.0
  0
LINE
  5
CB
330
17
100
AcDbEntity
  8
0
100
AcDbLine
 10
523.6149999999999
 20
-500.32899999999984
 30
0.0
 11
523.9859999999999
 21
-501.09799999999984
 31
0.0
  0
LINE
  5
CC
330
17
100
AcDbEntity
  8
0
100
AcDbLine
 10
523.9859999999999
 20
-501.09799999999984
 30
0.0
 11
524.2819999999999
 21
-501.90699999999987
 31
0.0
  0
LINE
  5
CD
330
17
100
AcDbEntity
  8
0
100
AcDbLine
 10
524.2819999999999
 20
-501.90699999999987
 30
0.0
 11
524.4989999999999
 21
-502.7499999999999
 31
0.0
  0
LINE
  5
CE
330
17
100
AcDbEntity
  8
0
100
AcDbLine
 10
524.4989999999999
 20
-502.7499999999999
 30
0.0
 11
524.632
 21
-503.6239999999999
 31
0.0
  0
LINE
  5
CF
330
17
100
AcDbEntity
  8
0
100
AcDbLine
 10
524.632
 20
-503.6239999999999
 30
0.0
 11
524.6769999999999
 21
-504.5239999999999
 31
0.0
  0
LINE
  5
D0
330
17
100
AcDbEntity
  8
0
100
AcDbLine
 10
548.026
 20
-530.9499999999999
 30
0.0
 11
543.006
 21
-520.7529999999999
 31
0.0
  0
LINE
  5
D1
330
17
100
AcDbEntity
  8
0
100
AcDbLine
 10
481.517
 20
-273.51199999999994
 30
0.0
 11
487.98199999999997
 21
-273.49699999999996
 31
0.0
  0
LINE
  5
D2
330
17
100
AcDbEntity
  8
0
100
AcDbLine
 10
487.98199999999997
 20
-273.49699999999996
 30
0.0
 11
488.229
 21
-273.453
 31
0.0
  0
LINE
  5
D3
330
17
100
AcDbEntity
  8
0
100
AcDbLine
 10
488.229
 20
-273.453
 30
0.0
 11
488.467
 21
-273.381
 31
0.0
  0
LINE
  5
D4
330
17
100
AcDbEntity
  8
0
100
AcDbLine
 10
488.467
 20
-273.381
 30
0.0
 11
488.695
 21
-273.282
 31
0.0
  0
LINE
  5
D5
330
17
100
AcDbEntity
  8
0
100
AcDbLine
 10
488.695
 20
-273.282
 30
0.0
 11
488.909
 21
-273.157
 31
0.0
  0
LINE
  5
D6
330
17
100
AcDbEntity
  8
0
100
AcDbLine
 10
488.909
 20
-273.157
 30
0.0
 11
489.108
 21
-273.007
 31
0.0
  0
LINE
  5
D7
330
17
100
AcDbEntity
  8
0
100
AcDbLine
 10
489.108
 20
-273.007
 30
0.0
 11
489.289
 21
-272.834
 31
0.0
  0
LINE
  5
D8
330
17
100
AcDbEntity
  8
0
100
AcDbLine
 10
489.289
 20
-272.834
 30
0.0
 11
493.83099999999996
 21
-266.708
 31
0.0
  0
LINE
  5
D9
330
17
100
AcDbEntity
  8
0
100
AcDbLine
 10
493.83099999999996
 20
-266.708
 30
0.0
 11
494.26099999999997
 21
-266.27500000000003
 31
0.0
  0
LINE
  5
DA
330
17
100
AcDbEntity
  8
0
100
AcDbLine
 10
494.26099999999997
 20
-266.27500000000003
 30
0.0
 11
494.72499999999997
 21
-265.89200000000005
 31
0.0
  0
LINE
  5
DB
330
17
100
AcDbEntity
  8
0
100
AcDbLine
 10
494.72499999999997
 20
-265.89200000000005
 30
0.0
 11
495.219
 21
-265.56000000000006
 31
0.0
  0
LINE
  5
DC
330
17
100
AcDbEntity
  8
0
100
AcDbLine
 10
495.219
 20
-265.56000000000006
 30
0.0
 11
495.738
 21
-265.2800000000001
 31
0.0
  0
LINE
  5
DD
330
17
100
AcDbEntity
  8
0
100
AcDbLine
 10
495.738
 20
-265.2800000000001
 30
0.0
 11
496.279
 21
-265.0520000000001
 31
0.0
  0
LINE
  5
DE
330
17
100
AcDbEntity
  8
0
100
AcDbLine
 10
496.279
 20
-265.0520000000001
 30
0.0
 11
496.837
 21
-264.87700000000007
 31
0.0
  0
LINE
  5
DF
330
17
100
AcDbEntity
  8
0
100
AcDbLine
 10
496.837
 20
-264.87700000000007
 30
0.0
 11
497.408
 21
-264.7560000000001
 31
0.0
  0
LINE
  5
E0
330
17
100
AcDbEntity
  8
0
100
AcDbLine
 10
497.408
 20
-264.7560000000001
 30
0.0
 11
497.988
 21
-264.6890000000001
 31
0.0
  0
LINE
  5
E1
330
17
100
AcDbEntity
  8
0
100
AcDbLine
 10
497.988
 20
-264.6890000000001
 30
0.0
 11
498.572
 21
-264.6770000000001
 31
0.0
  0
LINE
  5
E2
330
17
100
AcDbEntity
  8
0
100
AcDbLine
 10
498.572
 20
-264.6770000000001
 30
0.0
 11
499.157
 21
-264.72100000000006
 31
0.0
  0
LINE
  5
E3
330
17
100
AcDbEntity
  8
0
100
AcDbLine
 10
499.157
 20
-264.72100000000006
 30
0.0
 11
499.738
 21
-264.82200000000006
 31
0.0
  0
LINE
  5
E4
330
17
100
AcDbEntity
  8
0
100
AcDbLine
 10
499.738
 20
-264.82200000000006
 30
0.0
 11
500.311
 21
-264.9800000000001
 31
0.0
  0
LINE
  5
E5
330
17
100
AcDbEntity
  8
0
100
AcDbLine
 10
500.311
 20
-264.9800000000001
 30
0.0
 11
500.87199999999996
 21
-265.1960000000001
 31
0.0
  0
LINE
  5
E6
330
17
100
AcDbEntity
  8
0
100
AcDbLine
 10
500.87199999999996
 20
-265.1960000000001
 30
0.0
 11
501.417
 21
-265.4700000000001
 31
0.0
  0
LINE
  5
E7
330
17
100
AcDbEntity
  8
0
100
AcDbLine
 10
501.417
 20
-265.4700000000001
 30
0.0
 11
511.30899999999997
 21
-272.4200000000001
 31
0.0
  0
LINE
  5
E8
330
17
100
AcDbEntity
  8
0
100
AcDbLine
 10
511.30899999999997
 20
-272.4200000000001
 30
0.0
 11
511.91799999999995
 21
-272.78100000000006
 31
0.0
  0
LINE
  5
E9
330
17
100
AcDbEntity
  8
0
100
AcDbLine
 10
511.91799999999995
 20
-272.78100000000006
 30
0.0
 11
512.5519999999999
 21
-273.09100000000007
 31
0.0
  0
LINE
  5
EA
330
17
100
AcDbEntity
  8
0
100
AcDbLine
 10
512.5519999999999
 20
-273.09100000000007
 30
0.0
 11
513.2069999999999
 21
-273.34900000000005
 31
0.0
  0
LINE
  5
EB
330
17
100
AcDbEntity
  8
0
100
AcDbLine
 10
513.2069999999999
 20
-273.34900000000005
 30
0.0
 11
513.8799999999999
 21
-273.55300000000005
 31
0.0
  0
LINE
  5
EC
330
17
100
AcDbEntity
  8
0
100
AcDbLine
 10
513.8799999999999
 20
-273.55300000000005
 30
0.0
 11
514.5679999999999
 21
-273.70300000000003
 31
0.0
  0
LINE
  5
ED
330
17
100
AcDbEntity
  8
0
100
AcDbLine
 10
514.5679999999999
 20
-273.70300000000003
 30
0.0
 11
515.2669999999998
 21
-273.79800000000006
 31
0.0
  0
LINE
  5
EE
330
17
100
AcDbEntity
  8
0
100
AcDbLine
 10
515.2669999999998
 20
-273.79800000000006
 30
0.0
 11
515.9739999999998
 21
-273.83600000000007
 31
0.0
  0
LINE
  5
EF
330
17
100
AcDbEntity
  8
0
100
AcDbLine
 10
515.9739999999998
 20
-273.83600000000007
 30
0.0
 11
524.0319999999998
 21
-273.61800000000005
 31
0.0
  0
LINE
  5
F0
330
17
100
AcDbEntity
  8
0
100
AcDbLine
 10
524.0319999999998
 20
-273.61800000000005
 30
0.0
 11
524.2439999999998
 21
-273.58000000000004
 31
0.0
  0
LINE
  5
F1
330
17
100
AcDbEntity
  8
0
100
AcDbLine
 10
524.2439999999998
 20
-273.58000000000004
 30
0.0
 11
524.4479999999998
 21
-273.521
 31
0.0
  0
LINE
  5
F2
330
17
100
AcDbEntity
  8
0
100
AcDbLine
 10
524.4479999999998
 20
-273.521
 30
0.0
 11
524.6429999999998
 21
-273.44300000000004
 31
0.0
  0
LINE
  5
F3
330
17
100
AcDbEntity
  8
0
100
AcDbLine
 10
524.6429999999998
 20
-273.44300000000004
 30
0.0
 11
524.8279999999997
 21
-273.34700000000004
 31
0.0
  0
LINE
  5
F4
330
17
100
AcDbEntity
  8
0
100
AcDbLine
 10
524.8279999999997
 20
-273.34700000000004
 30
0.0
 11
525.0019999999997
 21
-273.23400000000004
 31
0.0
  0
LINE
  5
F5
330
17
100
AcDbEntity
  8
0
100
AcDbLine
 10
525.0019999999997
 20
-273.23400000000004
 30
0.0
 11
525.1629999999997
 21
-273.10600000000005
 31
0.0
  0
LINE
  5
F6
330
17
100
AcDbEntity
  8
0
100
AcDbLine
 10
525.1629999999997
 20
-273.10600000000005
 30
0.0
 11
525.3109999999997
 21
-272.9630000000001
 31
0.0
  0
LINE
  5
F7
330
17
100
AcDbEntity
  8
0
100
AcDbLine
 10
525.3109999999997
 20
-272.9630000000001
 30
0.0
 11
525.4449999999997
 21
-272.8070000000001
 31
0.0
  0
LINE
  5
F8
330
17
100
AcDbEntity
  8
0
100
AcDbLine
 10
525.4449999999997
 20
-272.8070000000001
 30
0.0
 11
525.5629999999998
 21
-272.6380000000001
 31
0.0
  0
LINE
  5
F9
330
17
100
AcDbEntity
  8
0
100
AcDbLine
 10
525.5629999999998
 20
-272.6380000000001
 30
0.0
 11
525.6649999999997
 21
-272.4580000000001
 31
0.0
  0
LINE
  5
FA
330
17
100
AcDbEntity
  8
0
100
AcDbLine
 10
525.6649999999997
 20
-272.4580000000001
 30
0.0
 11
525.7489999999997
 21
-272.2680000000001
 31
0.0
  0
LINE
  5
FB
330
17
100
AcDbEntity
  8
0
100
AcDbLine
 10
525.7489999999997
 20
-272.2680000000001
 30
0.0
 11
525.8149999999997
 21
-272.0690000000001
 31
0.0
  0
LINE
  5
FC
330
17
100
AcDbEntity
  8
0
100
AcDbLine
 10
525.8149999999997
 20
-272.0690000000001
 30
0.0
 11
525.8609999999998
 21
-271.8620000000001
 31
0.0
  0
LINE
  5
FD
330
17
100
AcDbEntity
  8
0
100
AcDbLine
 10
525.8609999999998
 20
-271.8620000000001
 30
0.0
 11
525.8859999999997
 21
-271.6480000000001
 31
0.0
  0
LINE
  5
FE
330
17
100
AcDbEntity
  8
0
100
AcDbLine
 10
525.8859999999997
 20
-271.6480000000001
 30
0.0
 11
524.0549999999997
 21
-253.21900000000008
 31
0.0
  0
LINE
  5
FF
330
17
100
AcDbEntity
  8
0
100
AcDbLine
 10
524.0549999999997
 20
-253.21900000000008
 30
0.0
 11
520.6969999999998
 21
-238.57700000000008
 31
0.0
  0
LINE
  5
100
330
17
100
AcDbEntity
  8
0
100
AcDbLine
 10
520.6969999999998
 20
-238.57700000000008
 30
0.0
 11
518.0789999999997
 21
-231.12800000000007
 31
0.0
  0
LINE
  5
101
330
17
100
AcDbEntity
  8
0
100
AcDbLine
 10
518.0789999999997
 20
-231.12800000000007
 30
0.0
 11
514.7079999999997
 21
-224.01600000000008
 31
0.0
  0
LINE
  5
102
330
17
100
AcDbEntity
  8
0
100
AcDbLine
 10
514.7079999999997
 20
-224.01600000000008
 30
0.0
 11
512.6339999999998
 21
-220.57500000000007
 31
0.0
  0
LINE
  5
103
330
17
100
AcDbEntity
  8
0
100
AcDbLine
 10
512.6339999999998
 20
-220.57500000000007
 30
0.0
 11
512.4609999999998
 21
-220.37300000000008
 31
0.0
  0
LINE
  5
104
330
17
100
AcDbEntity
  8
0
100
AcDbLine
 10
512.4609999999998
 20
-220.37300000000008
 30
0.0
 11
512.2659999999997
 21
-220.19600000000008
 31
0.0
  0
LINE
  5
105
330
17
100
AcDbEntity
  8
0
100
AcDbLine
 10
512.2659999999997
 20
-220.19600000000008
 30
0.0
 11
512.0509999999997
 21
-220.04500000000007
 31
0.0
  0
LINE
  5
106
330
17
100
AcDbEntity
  8
0
100
AcDbLine
 10
512.0509999999997
 20
-220.04500000000007
 30
0.0
 11
511.8189999999997
 21
-219.92200000000008
 31
0.0
  0
LINE
  5
107
330
17
100
AcDbEntity
  8
0
100
AcDbLine
 10
511.8189999999997
 20
-219.92200000000008
 30
0.0
 11
511.5729999999997
 21
-219.8280000000001
 31
0.0
  0
LINE
  5
108
330
17
100
AcDbEntity
  8
0
100
AcDbLine
 10
511.5729999999997
 20
-219.8280000000001
 30
0.0
 11
511.3159999999997
 21
-219.7640000000001
 31
0.0
  0
LINE
  5
109
330
17
100
AcDbEntity
  8
0
100
AcDbLine
 10
511.3159999999997
 20
-219.7640000000001
 30
0.0
 11
511.0509999999997
 21
-219.7310000000001
 31
0.0
  0
LINE
  5
10A
330
17
100
AcDbEntity
  8
0
100
AcDbLine
 10
511.0509999999997
 20
-219.7310000000001
 30
0.0
 11
467.9419999999997
 21
-219.7420000000001
 31
0.0
  0
LINE
  5
10B
330
17
100
AcDbEntity
  8
0
100
AcDbLine
 10
467.9419999999997
 20
-219.7420000000001
 30
0.0
 11
467.69399999999973
 21
-219.7870000000001
 31
0.0
  0
LINE
  5
10C
330
17
100
AcDbEntity
  8
0
100
AcDbLine
 10
467.69399999999973
 20
-219.7870000000001
 30
0.0
 11
467.45799999999974
 21
-219.8590000000001
 31
0.0
  0
LINE
  5
10D
330
17
100
AcDbEntity
  8
0
100
AcDbLine
 10
467.45799999999974
 20
-219.8590000000001
 30
0.0
 11
467.23499999999973
 21
-219.9560000000001
 31
0.0
  0
LINE
  5
10E
330
17
100
AcDbEntity
  8
0
100
AcDbLine
 10
467.23499999999973
 20
-219.9560000000001
 30
0.0
 11
467.0269999999997
 21
-220.0770000000001
 31
0.0
  0
LINE
  5
10F
330
17
100
AcDbEntity
  8
0
100
AcDbLine
 10
467.0269999999997
 20
-220.0770000000001
 30
0.0
 11
466.8349999999997
 21
-220.2200000000001
 31
0.0
  0
LINE
  5
110
330
17
100
AcDbEntity
  8
0
100
AcDbLine
 10
466.8349999999997
 20
-220.2200000000001
 30
0.0
 11
466.6609999999997
 21
-220.38200000000012
 31
0.0
  0
LINE
  5
111
330
17
100
AcDbEntity
  8
0
100
AcDbLine
 10
466.6609999999997
 20
-220.38200000000012
 30
0.0
 11
466.50599999999974
 21
-220.56200000000013
 31
0.0
  0
LINE
  5
112
330
17
100
AcDbEntity
  8
0
100
AcDbLine
 10
466.50599999999974
 20
-220.56200000000013
 30
0.0
 11
466.37199999999973
 21
-220.75800000000012
 31
0.0
  0
LINE
  5
113
330
17
100
AcDbEntity
  8
0
100
AcDbLine
 10
466.37199999999973
 20
-220.75800000000012
 30
0.0
 11
466.2599999999997
 21
-220.96800000000013
 31
0.0
  0
LINE
  5
114
330
17
100
AcDbEntity
  8
0
100
AcDbLine
 10
466.2599999999997
 20
-220.96800000000013
 30
0.0
 11
466.1719999999997
 21
-221.19000000000014
 31
0.0
  0
LINE
  5
115
330
17
100
AcDbEntity
  8
0
100
AcDbLine
 10
466.1719999999997
 20
-221.19000000000014
 30
0.0
 11
466.1089999999997
 21
-221.42200000000014
 31
0.0
  0
LINE
  5
116
330
17
100
AcDbEntity
  8
0
100
AcDbLine
 10
466.1089999999997
 20
-221.42200000000014
 30
0.0
 11
466.0729999999997
 21
-221.66200000000015
 31
0.0
  0
LINE
  5
117
330
17
100
AcDbEntity
  8
0
100
AcDbLine
 10
466.0729999999997
 20
-221.66200000000015
 30
0.0
 11
466.0649999999997
 21
-221.90900000000016
 31
0.0
  0
LINE
  5
118
330
17
100
AcDbEntity
  8
0
100
AcDbLine
 10
466.0649999999997
 20
-221.90900000000016
 30
0.0
 11
466.08599999999973
 21
-222.16000000000017
 31
0.0
  0
LINE
  5
119
330
17
100
AcDbEntity
  8
0
100
AcDbLine
 10
466.08599999999973
 20
-222.16000000000017
 30
0.0
 11
479.5069999999997
 21
-272.10200000000015
 31
0.0
  0
LINE
  5
11A
330
17
100
AcDbEntity
  8
0
100
AcDbLine
 10
479.5069999999997
 20
-272.10200000000015
 30
0.0
 11
479.5739999999997
 21
-272.26600000000013
 31
0.0
  0
LINE
  5
11B
330
17
100
AcDbEntity
  8
0
100
AcDbLine
 10
479.5739999999997
 20
-272.26600000000013
 30
0.0
 11
479.6539999999997
 21
-272.42200000000014
 31
0.0
  0
LINE
  5
11C
330
17
100
AcDbEntity
  8
0
100
AcDbLine
 10
479.6539999999997
 20
-272.42200000000014
 30
0.0
 11
479.7449999999997
 21
-272.57000000000016
 31
0.0
  0
LINE
  5
11D
330
17
100
AcDbEntity
  8
0
100
AcDbLine
 10
479.7449999999997
 20
-272.57000000000016
 30
0.0
 11
479.84799999999973
 21
-272.7090000000002
 31
0.0
  0
LINE
  5
11E
330
17
100
AcDbEntity
  8
0
100
AcDbLine
 10
479.84799999999973
 20
-272.7090000000002
 30
0.0
 11
479.96099999999973
 21
-272.83900000000017
 31
0.0
  0
LINE
  5
11F
330
17
100
AcDbEntity
  8
0
100
AcDbLine
 10
479.96099999999973
 20
-272.83900000000017
 30
0.0
 11
480.0839999999997
 21
-272.9590000000002
 31
0.0
  0
LINE
  5
120
330
17
100
AcDbEntity
  8
0
100
AcDbLine
 10
480.0839999999997
 20
-272.9590000000002
 30
0.0
 11
480.2159999999997
 21
-273.0690000000002
 31
0.0
  0
LINE
  5
121
330
17
100
AcDbEntity
  8
0
100
AcDbLine
 10
480.2159999999997
 20
-273.0690000000002
 30
0.0
 11
480.3559999999997
 21
-273.1680000000002
 31
0.0
  0
LINE
  5
122
330
17
100
AcDbEntity
  8
0
100
AcDbLine
 10
480.3559999999997
 20
-273.1680000000002
 30
0.0
 11
480.50399999999973
 21
-273.25500000000017
 31
0.0
  0
LINE
  5
123
330
17
100
AcDbEntity
  8
0
100
AcDbLine
 10
480.50399999999973
 20
-273.25500000000017
 30
0.0
 11
480.6589999999997
 21
-273.33000000000015
 31
0.0
  0
LINE
  5
124
330
17
100
AcDbEntity
  8
0
100
AcDbLine
 10
480.6589999999997
 20
-273.33000000000015
 30
0.0
 11
480.8199999999997
 21
-273.39300000000014
 31
0.0
  0
LINE
  5
125
330
17
100
AcDbEntity
  8
0
100
AcDbLine
 10
480.8199999999997
 20
-273.39300000000014
 30
0.0
 11
480.9869999999997
 21
-273.44300000000015
 31
0.0
  0
LINE
  5
126
330
17
100
AcDbEntity
  8
0
100
AcDbLine
 10
480.9869999999997
 20
-273.44300000000015
 30
0.0
 11
481.1589999999997
 21
-273.47900000000016
 31
0.0
  0
LINE
  5
127
330
17
100
AcDbEntity
  8
0
100
AcDbLine
 10
481.1589999999997
 20
-273.47900000000016
 30
0.0
 11
481.3349999999997
 21
-273.50100000000015
 31
0.0
  0
LINE
  5
128
330
17
100
AcDbEntity
  8
0
100
AcDbLine
 10
481.3349999999997
 20
-273.50100000000015
 30
0.0
 11
481.51399999999967
 21
-273.5090000000001
 31
0.0
  0
LINE
  5
129
330
17
100
AcDbEntity
  8
0
100
AcDbLine
 10
310.5999999999997
 20
-273.9610000000001
 30
0.0
 11
128.4179999999997
 21
-273.04400000000015
 31
0.0
  0
LINE
  5
12A
330
17
100
AcDbEntity
  8
0
100
AcDbLine
 10
128.4179999999997
 20
-273.04400000000015
 30
0.0
 11
128.42799999999968
 21
-287.27200000000016
 31
0.0
  0
LINE
  5
12B
330
17
100
AcDbEntity
  8
0
100
AcDbLine
 10
128.42799999999968
 20
-287.27200000000016
 30
0.0
 11
128.45599999999968
 21
-287.45800000000014
 31
0.0
  0
LINE
  5
12C
330
17
100
AcDbEntity
  8
0
100
AcDbLine
 10
128.45599999999968
 20
-287.45800000000014
 30
0.0
 11
128.50199999999967
 21
-287.63800000000015
 31
0.0
  0
LINE
  5
12D
330
17
100
AcDbEntity
  8
0
100
AcDbLine
 10
128.50199999999967
 20
-287.63800000000015
 30
0.0
 11
128.56499999999966
 21
-287.8100000000002
 31
0.0
  0
LINE
  5
12E
330
17
100
AcDbEntity
  8
0
100
AcDbLine
 10
128.56499999999966
 20
-287.8100000000002
 30
0.0
 11
128.64399999999966
 21
-287.97400000000016
 31
0.0
  0
LINE
  5
12F
330
17
100
AcDbEntity
  8
0
100
AcDbLine
 10
128.64399999999966
 20
-287.97400000000016
 30
0.0
 11
128.73799999999966
 21
-288.12900000000013
 31
0.0
  0
LINE
  5
130
330
17
100
AcDbEntity
  8
0
100
AcDbLine
 10
128.73799999999966
 20
-288.12900000000013
 30
0.0
 11
128.84599999999966
 21
-288.2740000000001
 31
0.0
  0
LINE
  5
131
330
17
100
AcDbEntity
  8
0
100
AcDbLine
 10
128.84599999999966
 20
-288.2740000000001
 30
0.0
 11
128.96699999999967
 21
-288.4070000000001
 31
0.0
  0
LINE
  5
132
330
17
100
AcDbEntity
  8
0
100
AcDbLine
 10
128.96699999999967
 20
-288.4070000000001
 30
0.0
 11
129.09999999999968
 21
-288.5280000000001
 31
0.0
  0
LINE
  5
133
330
17
100
AcDbEntity
  8
0
100
AcDbLine
 10
129.09999999999968
 20
-288.5280000000001
 30
0.0
 11
129.2439999999997
 21
-288.6360000000001
 31
0.0
  0
LINE
  5
134
330
17
100
AcDbEntity
  8
0
100
AcDbLine
 10
129.2439999999997
 20
-288.6360000000001
 30
0.0
 11
129.39799999999968
 21
-288.7310000000001
 31
0.0
  0
LINE
  5
135
330
17
100
AcDbEntity
  8
0
100
AcDbLine
 10
129.39799999999968
 20
-288.7310000000001
 30
0.0
 11
129.5609999999997
 21
-288.8110000000001
 31
0.0
  0
LINE
  5
136
330
17
100
AcDbEntity
  8
0
100
AcDbLine
 10
129.5609999999997
 20
-288.8110000000001
 30
0.0
 11
129.7329999999997
 21
-288.8750000000001
 31
0.0
  0
LINE
  5
137
330
17
100
AcDbEntity
  8
0
100
AcDbLine
 10
129.7329999999997
 20
-288.8750000000001
 30
0.0
 11
129.9119999999997
 21
-288.92200000000014
 31
0.0
  0
LINE
  5
138
330
17
100
AcDbEntity
  8
0
100
AcDbLine
 10
129.9119999999997
 20
-288.92200000000014
 30
0.0
 11
130.0979999999997
 21
-288.95100000000014
 31
0.0
  0
LINE
  5
139
330
17
100
AcDbEntity
  8
0
100
AcDbLine
 10
130.0979999999997
 20
-288.95100000000014
 30
0.0
 11
251.3169999999997
 21
-289.80400000000014
 31
0.0
  0
LINE
  5
13A
330
17
100
AcDbEntity
  8
0
100
AcDbLine
 10
251.3169999999997
 20
-289.80400000000014
 30
0.0
 11
257.4309999999997
 21
-290.48400000000015
 31
0.0
  0
LINE
  5
13B
330
17
100
AcDbEntity
  8
0
100
AcDbLine
 10
257.4309999999997
 20
-290.48400000000015
 30
0.0
 11
262.6109999999997
 21
-291.73100000000017
 31
0.0
  0
LINE
  5
13C
330
17
100
AcDbEntity
  8
0
100
AcDbLine
 10
262.6109999999997
 20
-291.73100000000017
 30
0.0
 11
266.9189999999997
 21
-293.38000000000017
 31
0.0
  0
LINE
  5
13D
330
17
100
AcDbEntity
  8
0
100
AcDbLine
 10
266.9189999999997
 20
-293.38000000000017
 30
0.0
 11
270.4169999999997
 21
-295.26700000000017
 31
0.0
  0
LINE
  5
13E
330
17
100
AcDbEntity
  8
0
100
AcDbLine
 10
270.4169999999997
 20
-295.26700000000017
 30
0.0
 11
273.1669999999997
 21
-297.2280000000002
 31
0.0
  0
LINE
  5
13F
330
17
100
AcDbEntity
  8
0
100
AcDbLine
 10
273.1669999999997
 20
-297.2280000000002
 30
0.0
 11
275.2309999999997
 21
-299.0980000000002
 31
0.0
  0
LINE
  5
140
330
17
100
AcDbEntity
  8
0
100
AcDbLine
 10
275.2309999999997
 20
-299.0980000000002
 30
0.0
 11
276.6709999999997
 21
-300.71400000000017
 31
0.0
  0
LINE
  5
141
330
17
100
AcDbEntity
  8
0
100
AcDbLine
 10
276.6709999999997
 20
-300.71400000000017
 30
0.0
 11
277.2809999999997
 21
-301.5110000000002
 31
0.0
  0
LINE
  5
142
330
17
100
AcDbEntity
  8
0
100
AcDbLine
 10
277.2809999999997
 20
-301.5110000000002
 30
0.0
 11
277.51099999999974
 21
-301.76200000000017
 31
0.0
  0
LINE
  5
143
330
17
100
AcDbEntity
  8
0
100
AcDbLine
 10
277.51099999999974
 20
-301.76200000000017
 30
0.0
 11
277.76599999999974
 21
-301.9830000000002
 31
0.0
  0
LINE
  5
144
330
17
100
AcDbEntity
  8
0
100
AcDbLine
 10
277.76599999999974
 20
-301.9830000000002
 30
0.0
 11
278.0429999999997
 21
-302.1720000000002
 31
0.0
  0
LINE
  5
145
330
17
100
AcDbEntity
  8
0
100
AcDbLine
 10
278.0429999999997
 20
-302.1720000000002
 30
0.0
 11
278.33999999999975
 21
-302.32700000000017
 31
0.0
  0
LINE
  5
146
330
17
100
AcDbEntity
  8
0
100
AcDbLine
 10
278.33999999999975
 20
-302.32700000000017
 30
0.0
 11
278.65299999999974
 21
-302.4460000000002
 31
0.0
  0
LINE
  5
147
330
17
100
AcDbEntity
  8
0
100
AcDbLine
 10
278.65299999999974
 20
-302.4460000000002
 30
0.0
 11
278.97899999999976
 21
-302.5270000000002
 31
0.0
  0
LINE
  5
148
330
17
100
AcDbEntity
  8
0
100
AcDbLine
 10
278.97899999999976
 20
-302.5270000000002
 30
0.0
 11
279.31599999999975
 21
-302.5690000000002
 31
0.0
  0
LINE
  5
149
330
17
100
AcDbEntity
  8
0
100
AcDbLine
 10
279.31599999999975
 20
-302.5690000000002
 30
0.0
 11
311.15499999999975
 21
-302.5740000000002
 31
0.0
  0
LINE
  5
14A
330
17
100
AcDbEntity
  8
0
100
AcDbLine
 10
311.15499999999975
 20
-302.5740000000002
 30
0.0
 11
310.09699999999975
 21
-302.08000000000015
 31
0.0
  0
LINE
  5
14B
330
17
100
AcDbEntity
  8
0
100
AcDbLine
 10
310.09699999999975
 20
-302.08000000000015
 30
0.0
 11
309.10599999999977
 21
-301.51100000000014
 31
0.0
  0
LINE
  5
14C
330
17
100
AcDbEntity
  8
0
100
AcDbLine
 10
309.10599999999977
 20
-301.51100000000014
 30
0.0
 11
308.18299999999977
 21
-300.8720000000001
 31
0.0
  0
LINE
  5
14D
330
17
100
AcDbEntity
  8
0
100
AcDbLine
 10
308.18299999999977
 20
-300.8720000000001
 30
0.0
 11
307.32699999999977
 21
-300.1680000000001
 31
0.0
  0
LINE
  5
14E
330
17
100
AcDbEntity
  8
0
100
AcDbLine
 10
307.32699999999977
 20
-300.1680000000001
 30
0.0
 11
306.5379999999998
 21
-299.4040000000001
 31
0.0
  0
LINE
  5
14F
330
17
100
AcDbEntity
  8
0
100
AcDbLine
 10
306.5379999999998
 20
-299.4040000000001
 30
0.0
 11
305.8159999999998
 21
-298.5850000000001
 31
0.0
  0
LINE
  5
150
330
17
100
AcDbEntity
  8
0
100
AcDbLine
 10
305.8159999999998
 20
-298.5850000000001
 30
0.0
 11
305.16099999999983
 21
-297.7150000000001
 31
0.0
  0
LINE
  5
151
330
17
100
AcDbEntity
  8
0
100
AcDbLine
 10
305.16099999999983
 20
-297.7150000000001
 30
0.0
 11
304.5729999999998
 21
-296.80000000000007
 31
0.0
  0
LINE
  5
152
330
17
100
AcDbEntity
  8
0
100
AcDbLine
 10
304.5729999999998
 20
-296.80000000000007
 30
0.0
 11
303.5989999999998
 21
-294.85300000000007
 31
0.0
  0
LINE
  5
153
330
17
100
AcDbEntity
  8
0
100
AcDbLine
 10
303.5989999999998
 20
-294.85300000000007
 30
0.0
 11
302.89399999999983
 21
-292.7830000000001
 31
0.0
  0
LINE
  5
154
330
17
100
AcDbEntity
  8
0
100
AcDbLine
 10
302.89399999999983
 20
-292.7830000000001
 30
0.0
 11
302.4569999999998
 21
-290.63000000000005
 31
0.0
  0
LINE
  5
155
330
17
100
AcDbEntity
  8
0
100
AcDbLine
 10
302.4569999999998
 20
-290.63000000000005
 30
0.0
 11
302.2889999999998
 21
-288.4320000000001
 31
0.0
  0
LINE
  5
156
330
17
100
AcDbEntity
  8
0
100
AcDbLine
 10
302.2889999999998
 20
-288.4320000000001
 30
0.0
 11
302.38899999999984
 21
-286.2290000000001
 31
0.0
  0
LINE
  5
157
330
17
100
AcDbEntity
  8
0
100
AcDbLine
 10
302.38899999999984
 20
-286.2290000000001
 30
0.0
 11
302.75699999999983
 21
-284.0600000000001
 31
0.0
  0
LINE
  5
158
330
17
100
AcDbEntity
  8
0
100
AcDbLine
 10
302.75699999999983
 20
-284.0600000000001
 30
0.0
 11
303.39399999999983
 21
-281.9650000000001
 31
0.0
  0
LINE
  5
159
330
17
100
AcDbEntity
  8
0
100
AcDbLine
 10
303.39399999999983
 20
-281.9650000000001
 30
0.0
 11
304.2989999999998
 21
-279.9820000000001
 31
0.0
  0
LINE
  5
15A
330
17
100
AcDbEntity
  8
0
100
AcDbLine
 10
304.2989999999998
 20
-279.9820000000001
 30
0.0
 11
304.8519999999998
 21
-279.0450000000001
 31
0.0
  0
LINE
  5
15B
330
17
100
AcDbEntity
  8
0
100
AcDbLine
 10
304.8519999999998
 20
-279.0450000000001
 30
0.0
 11
305.4719999999998
 21
-278.15100000000007
 31
0.0
  0
LINE
  5
15C
330
17
100
AcDbEntity
  8
0
100
AcDbLine
 10
305.4719999999998
 20
-278.15100000000007
 30
0.0
 11
306.1589999999998
 21
-277.30500000000006
 31
0.0
  0
LINE
  5
15D
330
17
100
AcDbEntity
  8
0
100
AcDbLine
 10
306.1589999999998
 20
-277.30500000000006
 30
0.0
 11
306.91299999999984
 21
-276.5110000000001
 31
0.0
  0
LINE
  5
15E
330
17
100
AcDbEntity
  8
0
100
AcDbLine
 10
306.91299999999984
 20
-276.5110000000001
 30
0.0
 11
307.73399999999987
 21
-275.7750000000001
 31
0.0
  0
LINE
  5
15F
330
17
100
AcDbEntity
  8
0
100
AcDbLine
 10
307.73399999999987
 20
-275.7750000000001
 30
0.0
 11
308.62199999999984
 21
-275.1010000000001
 31
0.0
  0
LINE
  5
160
330
17
100
AcDbEntity
  8
0
100
AcDbLine
 10
308.62199999999984
 20
-275.1010000000001
 30
0.0
 11
309.5769999999998
 21
-274.4950000000001
 31
0.0
  0
LINE
  5
161
330
17
100
AcDbEntity
  8
0
100
AcDbLine
 10
309.5769999999998
 20
-274.4950000000001
 30
0.0
 11
310.5989999999998
 21
-273.9610000000001
 31
0.0
  0
LINE
  5
162
330
17
100
AcDbEntity
  8
0
100
AcDbLine
 10
371.53799999999984
 20
-271.83800000000014
 30
0.0
 11
314.21499999999986
 21
-271.83000000000015
 31
0.0
  0
LINE
  5
163
330
17
100
AcDbEntity
  8
0
100
AcDbLine
 10
314.21499999999986
 20
-271.83000000000015
 30
0.0
 11
314.05199999999985
 21
-271.80700000000013
 31
0.0
  0
LINE
  5
164
330
17
100
AcDbEntity
  8
0
100
AcDbLine
 10
314.05199999999985
 20
-271.80700000000013
 30
0.0
 11
313.89299999999986
 21
-271.7690000000001
 31
0.0
  0
LINE
  5
165
330
17
100
AcDbEntity
  8
0
100
AcDbLine
 10
313.89299999999986
 20
-271.7690000000001
 30
0.0
 11
313.7379999999999
 21
-271.7160000000001
 31
0.0
  0
LINE
  5
166
330
17
100
AcDbEntity
  8
0
100
AcDbLine
 10
313.7379999999999
 20
-271.7160000000001
 30
0.0
 11
313.5889999999999
 21
-271.6490000000001
 31
0.0
  0
LINE
  5
167
330
17
100
AcDbEntity
  8
0
100
AcDbLine
 10
313.5889999999999
 20
-271.6490000000001
 30
0.0
 11
313.4469999999999
 21
-271.5680000000001
 31
0.0
  0
LINE
  5
168
330
17
100
AcDbEntity
  8
0
100
AcDbLine
 10
313.4469999999999
 20
-271.5680000000001
 30
0.0
 11
313.3139999999999
 21
-271.47300000000007
 31
0.0
  0
LINE
  5
169
330
17
100
AcDbEntity
  8
0
100
AcDbLine
 10
313.3139999999999
 20
-271.47300000000007
 30
0.0
 11
312.5179999999999
 21
-270.76200000000006
 31
0.0
  0
LINE
  5
16A
330
17
100
AcDbEntity
  8
0
100
AcDbLine
 10
312.5179999999999
 20
-270.76200000000006
 30
0.0
 11
311.57499999999993
 21
-270.07800000000003
 31
0.0
  0
LINE
  5
16B
330
17
100
AcDbEntity
  8
0
100
AcDbLine
 10
311.57499999999993
 20
-270.07800000000003
 30
0.0
 11
311.00999999999993
 21
-269.745
 31
0.0
  0
LINE
  5
16C
330
17
100
AcDbEntity
  8
0
100
AcDbLine
 10
311.00999999999993
 20
-269.745
 30
0.0
 11
310.3879999999999
 21
-269.439
 31
0.0
  0
LINE
  5
16D
330
17
100
AcDbEntity
  8
0
100
AcDbLine
 10
310.3879999999999
 20
-269.439
 30
0.0
 11
309.71199999999993
 21
-269.17600000000004
 31
0.0
  0
LINE
  5
16E
330
17
100
AcDbEntity
  8
0
100
AcDbLine
 10
309.71199999999993
 20
-269.17600000000004
 30
0.0
 11
308.98499999999996
 21
-268.97200000000004
 31
0.0
  0
LINE
  5
16F
330
17
100
AcDbEntity
  8
0
100
AcDbLine
 10
308.98499999999996
 20
-268.97200000000004
 30
0.0
 11
308.21
 21
-268.843
 31
0.0
  0
LINE
  5
170
330
17
100
AcDbEntity
  8
0
100
AcDbLine
 10
308.21
 20
-268.843
 30
0.0
 11
307.39099999999996
 21
-268.80400000000003
 31
0.0
  0
LINE
  5
171
330
17
100
AcDbEntity
  8
0
100
AcDbLine
 10
307.39099999999996
 20
-268.80400000000003
 30
0.0
 11
306.53099999999995
 21
-268.872
 31
0.0
  0
LINE
  5
172
330
17
100
AcDbEntity
  8
0
100
AcDbLine
 10
306.53099999999995
 20
-268.872
 30
0.0
 11
305.63399999999996
 21
-269.062
 31
0.0
  0
LINE
  5
173
330
17
100
AcDbEntity
  8
0
100
AcDbLine
 10
305.63399999999996
 20
-269.062
 30
0.0
 11
304.703
 21
-269.39
 31
0.0
  0
LINE
  5
174
330
17
100
AcDbEntity
  8
0
100
AcDbLine
 10
304.703
 20
-269.39
 30
0.0
 11
303.74199999999996
 21
-269.872
 31
0.0
  0
LINE
  5
175
330
17
100
AcDbEntity
  8
0
100
AcDbLine
 10
303.74199999999996
 20
-269.872
 30
0.0
 11
302.753
 21
-270.524
 31
0.0
  0
LINE
  5
176
330
17
100
AcDbEntity
  8
0
100
AcDbLine
 10
302.753
 20
-270.524
 30
0.0
 11
301.55
 21
-271.516
 31
0.0
  0
LINE
  5
177
330
17
100
AcDbEntity
  8
0
100
AcDbLine
 10
301.55
 20
-271.516
 30
0.0
 11
301.413
 21
-271.603
 31
0.0
  0
LINE
  5
178
330
17
100
AcDbEntity
  8
0
100
AcDbLine
 10
301.413
 20
-271.603
 30
0.0
 11
301.27000000000004
 21
-271.678
 31
0.0
  0
LINE
  5
179
330
17
100
AcDbEntity
  8
0
100
AcDbLine
 10
301.27000000000004
 20
-271.678
 30
0.0
 11
301.12100000000004
 21
-271.739
 31
0.0
  0
LINE
  5
17A
330
17
100
AcDbEntity
  8
0
100
AcDbLine
 10
301.12100000000004
 20
-271.739
 30
0.0
 11
300.96700000000004
 21
-271.786
 31
0.0
  0
LINE
  5
17B
330
17
100
AcDbEntity
  8
0
100
AcDbLine
 10
300.96700000000004
 20
-271.786
 30
0.0
 11
300.809
 21
-271.818
 31
0.0
  0
LINE
  5
17C
330
17
100
AcDbEntity
  8
0
100
AcDbLine
 10
300.809
 20
-271.818
 30
0.0
 11
300.648
 21
-271.834
 31
0.0
  0
LINE
  5
17D
330
17
100
AcDbEntity
  8
0
100
AcDbLine
 10
300.648
 20
-271.834
 30
0.0
 11
267.226
 21
-271.829
 31
0.0
  0
LINE
  5
17E
330
17
100
AcDbEntity
  8
0
100
AcDbLine
 10
267.226
 20
-271.829
 30
0.0
 11
267.073
 21
-271.808
 31
0.0
  0
LINE
  5
17F
330
17
100
AcDbEntity
  8
0
100
AcDbLine
 10
267.073
 20
-271.808
 30
0.0
 11
266.92499999999995
 21
-271.774
 31
0.0
  0
LINE
  5
180
330
17
100
AcDbEntity
  8
0
100
AcDbLine
 10
266.92499999999995
 20
-271.774
 30
0.0
 11
266.78099999999995
 21
-271.727
 31
0.0
  0
LINE
  5
181
330
17
100
AcDbEntity
  8
0
100
AcDbLine
 10
266.78099999999995
 20
-271.727
 30
0.0
 11
266.643
 21
-271.66799999999995
 31
0.0
  0
LINE
  5
182
330
17
100
AcDbEntity
  8
0
100
AcDbLine
 10
266.643
 20
-271.66799999999995
 30
0.0
 11
266.51099999999997
 21
-271.59799999999996
 31
0.0
  0
LINE
  5
183
330
17
100
AcDbEntity
  8
0
100
AcDbLine
 10
266.51099999999997
 20
-271.59799999999996
 30
0.0
 11
266.38599999999997
 21
-271.51699999999994
 31
0.0
  0
LINE
  5
184
330
17
100
AcDbEntity
  8
0
100
AcDbLine
 10
266.38599999999997
 20
-271.51699999999994
 30
0.0
 11
266.26899999999995
 21
-271.42499999999995
 31
0.0
  0
LINE
  5
185
330
17
100
AcDbEntity
  8
0
100
AcDbLine
 10
266.26899999999995
 20
-271.42499999999995
 30
0.0
 11
266.16099999999994
 21
-271.32399999999996
 31
0.0
  0
LINE
  5
186
330
17
100
AcDbEntity
  8
0
100
AcDbLine
 10
266.16099999999994
 20
-271.32399999999996
 30
0.0
 11
266.06199999999995
 21
-271.21299999999997
 31
0.0
  0
LINE
  5
187
330
17
100
AcDbEntity
  8
0
100
AcDbLine
 10
266.06199999999995
 20
-271.21299999999997
 30
0.0
 11
265.972
 21
-271.09399999999994
 31
0.0
  0
LINE
  5
188
330
17
100
AcDbEntity
  8
0
100
AcDbLine
 10
265.972
 20
-271.09399999999994
 30
0.0
 11
265.893
 21
-270.9669999999999
 31
0.0
  0
LINE
  5
189
330
17
100
AcDbEntity
  8
0
100
AcDbLine
 10
265.893
 20
-270.9669999999999
 30
0.0
 11
265.825
 21
-270.83199999999994
 31
0.0
  0
LINE
  5
18A
330
17
100
AcDbEntity
  8
0
100
AcDbLine
 10
265.825
 20
-270.83199999999994
 30
0.0
 11
265.769
 21
-270.68999999999994
 31
0.0
  0
LINE
  5
18B
330
17
100
AcDbEntity
  8
0
100
AcDbLine
 10
265.769
 20
-270.68999999999994
 30
0.0
 11
265.725
 21
-270.5419999999999
 31
0.0
  0
LINE
  5
18C
330
17
100
AcDbEntity
  8
0
100
AcDbLine
 10
265.725
 20
-270.5419999999999
 30
0.0
 11
265.517
 21
-269.2389999999999
 31
0.0
  0
LINE
  5
18D
330
17
100
AcDbEntity
  8
0
100
AcDbLine
 10
265.517
 20
-269.2389999999999
 30
0.0
 11
265.45
 21
-268.9869999999999
 31
0.0
  0
LINE
  5
18E
330
17
100
AcDbEntity
  8
0
100
AcDbLine
 10
265.45
 20
-268.9869999999999
 30
0.0
 11
265.36199999999997
 21
-268.7459999999999
 31
0.0
  0
LINE
  5
18F
330
17
100
AcDbEntity
  8
0
100
AcDbLine
 10
265.36199999999997
 20
-268.7459999999999
 30
0.0
 11
265.25499999999994
 21
-268.5159999999999
 31
0.0
  0
LINE
  5
190
330
17
100
AcDbEntity
  8
0
100
AcDbLine
 10
265.25499999999994
 20
-268.5159999999999
 30
0.0
 11
265.12899999999996
 21
-268.2989999999999
 31
0.0
  0
LINE
  5
191
330
17
100
AcDbEntity
  8
0
100
AcDbLine
 10
265.12899999999996
 20
-268.2989999999999
 30
0.0
 11
264.98499999999996
 21
-268.0949999999999
 31
0.0
  0
LINE
  5
192
330
17
100
AcDbEntity
  8
0
100
AcDbLine
 10
264.98499999999996
 20
-268.0949999999999
 30
0.0
 11
264.82499999999993
 21
-267.9049999999999
 31
0.0
  0
LINE
  5
193
330
17
100
AcDbEntity
  8
0
100
AcDbLine
 10
264.82499999999993
 20
-267.9049999999999
 30
0.0
 11
264.6499999999999
 21
-267.7299999999999
 31
0.0
  0
LINE
  5
194
330
17
100
AcDbEntity
  8
0
100
AcDbLine
 10
264.6499999999999
 20
-267.7299999999999
 30
0.0
 11
264.4609999999999
 21
-267.5709999999999
 31
0.0
  0
LINE
  5
195
330
17
100
AcDbEntity
  8
0
100
AcDbLine
 10
264.4609999999999
 20
-267.5709999999999
 30
0.0
 11
264.2589999999999
 21
-267.4289999999999
 31
0.0
  0
LINE
  5
196
330
17
100
AcDbEntity
  8
0
100
AcDbLine
 10
264.2589999999999
 20
-267.4289999999999
 30
0.0
 11
264.0449999999999
 21
-267.3039999999999
 31
0.0
  0
LINE
  5
197
330
17
100
AcDbEntity
  8
0
100
AcDbLine
 10
264.0449999999999
 20
-267.3039999999999
 30
0.0
 11
263.8199999999999
 21
-267.1979999999999
 31
0.0
  0
LINE
  5
198
330
17
100
AcDbEntity
  8
0
100
AcDbLine
 10
263.8199999999999
 20
-267.1979999999999
 30
0.0
 11
263.5859999999999
 21
-267.11099999999993
 31
0.0
  0
LINE
  5
199
330
17
100
AcDbEntity
  8
0
100
AcDbLine
 10
263.5859999999999
 20
-267.11099999999993
 30
0.0
 11
263.3439999999999
 21
-267.04499999999996
 31
0.0
  0
LINE
  5
19A
330
17
100
AcDbEntity
  8
0
100
AcDbLine
 10
263.3439999999999
 20
-267.04499999999996
 30
0.0
 11
263.0939999999999
 21
-266.99999999999994
 31
0.0
  0
LINE
  5
19B
330
17
100
AcDbEntity
  8
0
100
AcDbLine
 10
263.0939999999999
 20
-266.99999999999994
 30
0.0
 11
262.8379999999999
 21
-266.9769999999999
 31
0.0
  0
LINE
  5
19C
330
17
100
AcDbEntity
  8
0
100
AcDbLine
 10
262.8379999999999
 20
-266.9769999999999
 30
0.0
 11
255.42299999999992
 21
-267.3069999999999
 31
0.0
  0
LINE
  5
19D
330
17
100
AcDbEntity
  8
0
100
AcDbLine
 10
255.42299999999992
 20
-267.3069999999999
 30
0.0
 11
255.10399999999993
 21
-267.3579999999999
 31
0.0
  0
LINE
  5
19E
330
17
100
AcDbEntity
  8
0
100
AcDbLine
 10
255.10399999999993
 20
-267.3579999999999
 30
0.0
 11
254.79499999999993
 21
-267.4439999999999
 31
0.0
  0
LINE
  5
19F
330
17
100
AcDbEntity
  8
0
100
AcDbLine
 10
254.79499999999993
 20
-267.4439999999999
 30
0.0
 11
254.49899999999994
 21
-267.56299999999993
 31
0.0
  0
LINE
  5
1A0
330
17
100
AcDbEntity
  8
0
100
AcDbLine
 10
254.49899999999994
 20
-267.56299999999993
 30
0.0
 11
254.21799999999993
 21
-267.71399999999994
 31
0.0
  0
LINE
  5
1A1
330
17
100
AcDbEntity
  8
0
100
AcDbLine
 10
254.21799999999993
 20
-267.71399999999994
 30
0.0
 11
253.95499999999993
 21
-267.8949999999999
 31
0.0
  0
LINE
  5
1A2
330
17
100
AcDbEntity
  8
0
100
AcDbLine
 10
253.95499999999993
 20
-267.8949999999999
 30
0.0
 11
253.71299999999994
 21
-268.1049999999999
 31
0.0
  0
LINE
  5
1A3
330
17
100
AcDbEntity
  8
0
100
AcDbLine
 10
253.71299999999994
 20
-268.1049999999999
 30
0.0
 11
250.85299999999992
 21
-271.3269999999999
 31
0.0
  0
LINE
  5
1A4
330
17
100
AcDbEntity
  8
0
100
AcDbLine
 10
250.85299999999992
 20
-271.3269999999999
 30
0.0
 11
250.71899999999994
 21
-271.4489999999999
 31
0.0
  0
LINE
  5
1A5
330
17
100
AcDbEntity
  8
0
100
AcDbLine
 10
250.71899999999994
 20
-271.4489999999999
 30
0.0
 11
250.57399999999993
 21
-271.5549999999999
 31
0.0
  0
LINE
  5
1A6
330
17
100
AcDbEntity
  8
0
100
AcDbLine
 10
250.57399999999993
 20
-271.5549999999999
 30
0.0
 11
250.41899999999993
 21
-271.64499999999987
 31
0.0
  0
LINE
  5
1A7
330
17
100
AcDbEntity
  8
0
100
AcDbLine
 10
250.41899999999993
 20
-271.64499999999987
 30
0.0
 11
250.25599999999991
 21
-271.71799999999985
 31
0.0
  0
LINE
  5
1A8
330
17
100
AcDbEntity
  8
0
100
AcDbLine
 10
250.25599999999991
 20
-271.71799999999985
 30
0.0
 11
250.08599999999993
 21
-271.77399999999983
 31
0.0
  0
LINE
  5
1A9
330
17
100
AcDbEntity
  8
0
100
AcDbLine
 10
250.08599999999993
 20
-271.77399999999983
 30
0.0
 11
249.90999999999994
 21
-271.81199999999984
 31
0.0
  0
LINE
  5
1AA
330
17
100
AcDbEntity
  8
0
100
AcDbLine
 10
249.90999999999994
 20
-271.81199999999984
 30
0.0
 11
249.72999999999993
 21
-271.83099999999985
 31
0.0
  0
LINE
  5
1AB
330
17
100
AcDbEntity
  8
0
100
AcDbLine
 10
249.72999999999993
 20
-271.83099999999985
 30
0.0
 11
130.49799999999993
 21
-271.8319999999998
 31
0.0
  0
LINE
  5
1AC
330
17
100
AcDbEntity
  8
0
100
AcDbLine
 10
130.49799999999993
 20
-271.8319999999998
 30
0.0
 11
130.35499999999993
 21
-271.8199999999998
 31
0.0
  0
LINE
  5
1AD
330
17
100
AcDbEntity
  8
0
100
AcDbLine
 10
130.35499999999993
 20
-271.8199999999998
 30
0.0
 11
130.21399999999994
 21
-271.7959999999998
 31
0.0
  0
LINE
  5
1AE
330
17
100
AcDbEntity
  8
0
100
AcDbLine
 10
130.21399999999994
 20
-271.7959999999998
 30
0.0
 11
130.07599999999994
 21
-271.7609999999998
 31
0.0
  0
LINE
  5
1AF
330
17
100
AcDbEntity
  8
0
100
AcDbLine
 10
130.07599999999994
 20
-271.7609999999998
 30
0.0
 11
129.94199999999995
 21
-271.71399999999977
 31
0.0
  0
LINE
  5
1B0
330
17
100
AcDbEntity
  8
0
100
AcDbLine
 10
129.94199999999995
 20
-271.71399999999977
 30
0.0
 11
129.81199999999995
 21
-271.6559999999998
 31
0.0
  0
LINE
  5
1B1
330
17
100
AcDbEntity
  8
0
100
AcDbLine
 10
129.81199999999995
 20
-271.6559999999998
 30
0.0
 11
129.68699999999995
 21
-271.58699999999976
 31
0.0
  0
LINE
  5
1B2
330
17
100
AcDbEntity
  8
0
100
AcDbLine
 10
129.68699999999995
 20
-271.58699999999976
 30
0.0
 11
126.85399999999996
 21
-269.61699999999973
 31
0.0
  0
LINE
  5
1B3
330
17
100
AcDbEntity
  8
0
100
AcDbLine
 10
126.85399999999996
 20
-269.61699999999973
 30
0.0
 11
123.66699999999996
 21
-267.7909999999997
 31
0.0
  0
LINE
  5
1B4
330
17
100
AcDbEntity
  8
0
100
AcDbLine
 10
123.66699999999996
 20
-267.7909999999997
 30
0.0
 11
119.27199999999996
 21
-265.7029999999997
 31
0.0
  0
LINE
  5
1B5
330
17
100
AcDbEntity
  8
0
100
AcDbLine
 10
119.27199999999996
 20
-265.7029999999997
 30
0.0
 11
113.60699999999996
 21
-263.5359999999997
 31
0.0
  0
LINE
  5
1B6
330
17
100
AcDbEntity
  8
0
100
AcDbLine
 10
113.60699999999996
 20
-263.5359999999997
 30
0.0
 11
106.60699999999996
 21
-261.47299999999973
 31
0.0
  0
LINE
  5
1B7
330
17
100
AcDbEntity
  8
0
100
AcDbLine
 10
106.60699999999996
 20
-261.47299999999973
 30
0.0
 11
98.20999999999995
 21
-259.6969999999997
 31
0.0
  0
LINE
  5
1B8
330
17
100
AcDbEntity
  8
0
100
AcDbLine
 10
98.20999999999995
 20
-259.6969999999997
 30
0.0
 11
88.35199999999995
 21
-258.3919999999997
 31
0.0
  0
LINE
  5
1B9
330
17
100
AcDbEntity
  8
0
100
AcDbLine
 10
88.35199999999995
 20
-258.3919999999997
 30
0.0
 11
38.00399999999995
 21
-257.3709999999997
 31
0.0
  0
LINE
  5
1BA
330
17
100
AcDbEntity
  8
0
100
AcDbLine
 10
38.00399999999995
 20
-257.3709999999997
 30
0.0
 11
37.83599999999995
 21
-257.3429999999997
 31
0.0
  0
LINE
  5
1BB
330
17
100
AcDbEntity
  8
0
100
AcDbLine
 10
37.83599999999995
 20
-257.3429999999997
 30
0.0
 11
37.67399999999995
 21
-257.2989999999997
 31
0.0
  0
LINE
  5
1BC
330
17
100
AcDbEntity
  8
0
100
AcDbLine
 10
37.67399999999995
 20
-257.2989999999997
 30
0.0
 11
37.51899999999995
 21
-257.23999999999967
 31
0.0
  0
LINE
  5
1BD
330
17
100
AcDbEntity
  8
0
100
AcDbLine
 10
37.51899999999995
 20
-257.23999999999967
 30
0.0
 11
37.37199999999995
 21
-257.1669999999997
 31
0.0
  0
LINE
  5
1BE
330
17
100
AcDbEntity
  8
0
100
AcDbLine
 10
37.37199999999995
 20
-257.1669999999997
 30
0.0
 11
37.23299999999995
 21
-257.0809999999997
 31
0.0
  0
LINE
  5
1BF
330
17
100
AcDbEntity
  8
0
100
AcDbLine
 10
37.23299999999995
 20
-257.0809999999997
 30
0.0
 11
37.102999999999945
 21
-256.9819999999997
 31
0.0
  0
LINE
  5
1C0
330
17
100
AcDbEntity
  8
0
100
AcDbLine
 10
37.102999999999945
 20
-256.9819999999997
 30
0.0
 11
36.98299999999995
 21
-256.8719999999997
 31
0.0
  0
LINE
  5
1C1
330
17
100
AcDbEntity
  8
0
100
AcDbLine
 10
36.98299999999995
 20
-256.8719999999997
 30
0.0
 11
36.873999999999945
 21
-256.7509999999997
 31
0.0
  0
LINE
  5
1C2
330
17
100
AcDbEntity
  8
0
100
AcDbLine
 10
36.873999999999945
 20
-256.7509999999997
 30
0.0
 11
36.776999999999944
 21
-256.6199999999997
 31
0.0
  0
LINE
  5
1C3
330
17
100
AcDbEntity
  8
0
100
AcDbLine
 10
36.776999999999944
 20
-256.6199999999997
 30
0.0
 11
36.69299999999994
 21
-256.47999999999973
 31
0.0
  0
LINE
  5
1C4
330
17
100
AcDbEntity
  8
0
100
AcDbLine
 10
36.69299999999994
 20
-256.47999999999973
 30
0.0
 11
36.62199999999994
 21
-256.3319999999997
 31
0.0
  0
LINE
  5
1C5
330
17
100
AcDbEntity
  8
0
100
AcDbLine
 10
36.62199999999994
 20
-256.3319999999997
 30
0.0
 11
36.565999999999946
 21
-256.1759999999997
 31
0.0
  0
LINE
  5
1C6
330
17
100
AcDbEntity
  8
0
100
AcDbLine
 10
36.565999999999946
 20
-256.1759999999997
 30
0.0
 11
36.52499999999995
 21
-256.0139999999997
 31
0.0
  0
LINE
  5
1C7
330
17
100
AcDbEntity
  8
0
100
AcDbLine
 10
36.52499999999995
 20
-256.0139999999997
 30
0.0
 11
36.49999999999995
 21
-255.84599999999972
 31
0.0
  0
LINE
  5
1C8
330
17
100
AcDbEntity
  8
0
100
AcDbLine
 10
36.49999999999995
 20
-255.84599999999972
 30
0.0
 11
36.49999999999995
 21
-216.0999999999997
 31
0.0
  0
LINE
  5
1C9
330
17
100
AcDbEntity
  8
0
100
AcDbLine
 10
36.49999999999995
 20
-216.0999999999997
 30
0.0
 11
36.525999999999954
 21
-215.92899999999972
 31
0.0
  0
LINE
  5
1CA
330
17
100
AcDbEntity
  8
0
100
AcDbLine
 10
36.525999999999954
 20
-215.92899999999972
 30
0.0
 11
36.56899999999995
 21
-215.76399999999973
 31
0.0
  0
LINE
  5
1CB
330
17
100
AcDbEntity
  8
0
100
AcDbLine
 10
36.56899999999995
 20
-215.76399999999973
 30
0.0
 11
36.62699999999995
 21
-215.60599999999974
 31
0.0
  0
LINE
  5
1CC
330
17
100
AcDbEntity
  8
0
100
AcDbLine
 10
36.62699999999995
 20
-215.60599999999974
 30
0.0
 11
36.69999999999995
 21
-215.45599999999973
 31
0.0
  0
LINE
  5
1CD
330
17
100
AcDbEntity
  8
0
100
AcDbLine
 10
36.69999999999995
 20
-215.45599999999973
 30
0.0
 11
36.786999999999956
 21
-215.31499999999974
 31
0.0
  0
LINE
  5
1CE
330
17
100
AcDbEntity
  8
0
100
AcDbLine
 10
36.786999999999956
 20
-215.31499999999974
 30
0.0
 11
36.88599999999995
 21
-215.18299999999974
 31
0.0
  0
LINE
  5
1CF
330
17
100
AcDbEntity
  8
0
100
AcDbLine
 10
36.88599999999995
 20
-215.18299999999974
 30
0.0
 11
36.99699999999995
 21
-215.06099999999972
 31
0.0
  0
LINE
  5
1D0
330
17
100
AcDbEntity
  8
0
100
AcDbLine
 10
36.99699999999995
 20
-215.06099999999972
 30
0.0
 11
37.11999999999995
 21
-214.9509999999997
 31
0.0
  0
LINE
  5
1D1
330
17
100
AcDbEntity
  8
0
100
AcDbLine
 10
37.11999999999995
 20
-214.9509999999997
 30
0.0
 11
37.25299999999995
 21
-214.8529999999997
 31
0.0
  0
LINE
  5
1D2
330
17
100
AcDbEntity
  8
0
100
AcDbLine
 10
37.25299999999995
 20
-214.8529999999997
 30
0.0
 11
37.39499999999995
 21
-214.7679999999997
 31
0.0
  0
LINE
  5
1D3
330
17
100
AcDbEntity
  8
0
100
AcDbLine
 10
37.39499999999995
 20
-214.7679999999997
 30
0.0
 11
37.54599999999996
 21
-214.6969999999997
 31
0.0
  0
LINE
  5
1D4
330
17
100
AcDbEntity
  8
0
100
AcDbLine
 10
37.54599999999996
 20
-214.6969999999997
 30
0.0
 11
37.70399999999996
 21
-214.6399999999997
 31
0.0
  0
LINE
  5
1D5
330
17
100
AcDbEntity
  8
0
100
AcDbLine
 10
37.70399999999996
 20
-214.6399999999997
 30
0.0
 11
37.86899999999996
 21
-214.5989999999997
 31
0.0
  0
LINE
  5
1D6
330
17
100
AcDbEntity
  8
0
100
AcDbLine
 10
37.86899999999996
 20
-214.5989999999997
 30
0.0
 11
38.03999999999996
 21
-214.5739999999997
 31
0.0
  0
LINE
  5
1D7
330
17
100
AcDbEntity
  8
0
100
AcDbLine
 10
38.03999999999996
 20
-214.5739999999997
 30
0.0
 11
283.26699999999994
 21
-217.1619999999997
 31
0.0
  0
LINE
  5
1D8
330
17
100
AcDbEntity
  8
0
100
AcDbLine
 10
283.26699999999994
 20
-217.1619999999997
 30
0.0
 11
313.80199999999996
 21
-220.18399999999968
 31
0.0
  0
LINE
  5
1D9
330
17
100
AcDbEntity
  8
0
100
AcDbLine
 10
313.80199999999996
 20
-220.18399999999968
 30
0.0
 11
357.79099999999994
 21
-219.6009999999997
 31
0.0
  0
LINE
  5
1DA
330
17
100
AcDbEntity
  8
0
100
AcDbLine
 10
357.79099999999994
 20
-219.6009999999997
 30
0.0
 11
357.93199999999996
 21
-219.61699999999968
 31
0.0
  0
LINE
  5
1DB
330
17
100
AcDbEntity
  8
0
100
AcDbLine
 10
357.93199999999996
 20
-219.61699999999968
 30
0.0
 11
358.06999999999994
 21
-219.64399999999966
 31
0.0
  0
LINE
  5
1DC
330
17
100
AcDbEntity
  8
0
100
AcDbLine
 10
358.06999999999994
 20
-219.64399999999966
 30
0.0
 11
358.20399999999995
 21
-219.68199999999968
 31
0.0
  0
LINE
  5
1DD
330
17
100
AcDbEntity
  8
0
100
AcDbLine
 10
358.20399999999995
 20
-219.68199999999968
 30
0.0
 11
358.33399999999995
 21
-219.73099999999968
 31
0.0
  0
LINE
  5
1DE
330
17
100
AcDbEntity
  8
0
100
AcDbLine
 10
358.33399999999995
 20
-219.73099999999968
 30
0.0
 11
358.45899999999995
 21
-219.78999999999968
 31
0.0
  0
LINE
  5
1DF
330
17
100
AcDbEntity
  8
0
100
AcDbLine
 10
358.45899999999995
 20
-219.78999999999968
 30
0.0
 11
358.578
 21
-219.8579999999997
 31
0.0
  0
LINE
  5
1E0
330
17
100
AcDbEntity
  8
0
100
AcDbLine
 10
358.578
 20
-219.8579999999997
 30
0.0
 11
358.691
 21
-219.9359999999997
 31
0.0
  0
LINE
  5
1E1
330
17
100
AcDbEntity
  8
0
100
AcDbLine
 10
358.691
 20
-219.9359999999997
 30
0.0
 11
358.798
 21
-220.0219999999997
 31
0.0
  0
LINE
  5
1E2
330
17
100
AcDbEntity
  8
0
100
AcDbLine
 10
358.798
 20
-220.0219999999997
 30
0.0
 11
358.898
 21
-220.1169999999997
 31
0.0
  0
LINE
  5
1E3
330
17
100
AcDbEntity
  8
0
100
AcDbLine
 10
358.898
 20
-220.1169999999997
 30
0.0
 11
358.99
 21
-220.21999999999971
 31
0.0
  0
LINE
  5
1E4
330
17
100
AcDbEntity
  8
0
100
AcDbLine
 10
358.99
 20
-220.21999999999971
 30
0.0
 11
359.074
 21
-220.32999999999973
 31
0.0
  0
LINE
  5
1E5
330
17
100
AcDbEntity
  8
0
100
AcDbLine
 10
359.074
 20
-220.32999999999973
 30
0.0
 11
359.149
 21
-220.44799999999972
 31
0.0
  0
LINE
  5
1E6
330
17
100
AcDbEntity
  8
0
100
AcDbLine
 10
359.149
 20
-220.44799999999972
 30
0.0
 11
359.214
 21
-220.57199999999972
 31
0.0
  0
LINE
  5
1E7
330
17
100
AcDbEntity
  8
0
100
AcDbLine
 10
359.214
 20
-220.57199999999972
 30
0.0
 11
359.27
 21
-220.70299999999972
 31
0.0
  0
LINE
  5
1E8
330
17
100
AcDbEntity
  8
0
100
AcDbLine
 10
359.27
 20
-220.70299999999972
 30
0.0
 11
373.226
 21
-269.8609999999997
 31
0.0
  0
LINE
  5
1E9
330
17
100
AcDbEntity
  8
0
100
AcDbLine
 10
373.226
 20
-269.8609999999997
 30
0.0
 11
373.246
 21
-270.0629999999997
 31
0.0
  0
LINE
  5
1EA
330
17
100
AcDbEntity
  8
0
100
AcDbLine
 10
373.246
 20
-270.0629999999997
 30
0.0
 11
373.24199999999996
 21
-270.2619999999997
 31
0.0
  0
LINE
  5
1EB
330
17
100
AcDbEntity
  8
0
100
AcDbLine
 10
373.24199999999996
 20
-270.2619999999997
 30
0.0
 11
373.215
 21
-270.45599999999973
 31
0.0
  0
LINE
  5
1EC
330
17
100
AcDbEntity
  8
0
100
AcDbLine
 10
373.215
 20
-270.45599999999973
 30
0.0
 11
373.166
 21
-270.6439999999997
 31
0.0
  0
LINE
  5
1ED
330
17
100
AcDbEntity
  8
0
100
AcDbLine
 10
373.166
 20
-270.6439999999997
 30
0.0
 11
373.097
 21
-270.8239999999997
 31
0.0
  0
LINE
  5
1EE
330
17
100
AcDbEntity
  8
0
100
AcDbLine
 10
373.097
 20
-270.8239999999997
 30
0.0
 11
373.008
 21
-270.99399999999974
 31
0.0
  0
LINE
  5
1EF
330
17
100
AcDbEntity
  8
0
100
AcDbLine
 10
373.008
 20
-270.99399999999974
 30
0.0
 11
372.90099999999995
 21
-271.15299999999974
 31
0.0
  0
LINE
  5
1F0
330
17
100
AcDbEntity
  8
0
100
AcDbLine
 10
372.90099999999995
 20
-271.15299999999974
 30
0.0
 11
372.77699999999993
 21
-271.29899999999975
 31
0.0
  0
LINE
  5
1F1
330
17
100
AcDbEntity
  8
0
100
AcDbLine
 10
372.77699999999993
 20
-271.29899999999975
 30
0.0
 11
372.6379999999999
 21
-271.43099999999976
 31
0.0
  0
LINE
  5
1F2
330
17
100
AcDbEntity
  8
0
100
AcDbLine
 10
372.6379999999999
 20
-271.43099999999976
 30
0.0
 11
372.4839999999999
 21
-271.54699999999974
 31
0.0
  0
LINE
  5
1F3
330
17
100
AcDbEntity
  8
0
100
AcDbLine
 10
372.4839999999999
 20
-271.54699999999974
 30
0.0
 11
372.31699999999995
 21
-271.64499999999975
 31
0.0
  0
LINE
  5
1F4
330
17
100
AcDbEntity
  8
0
100
AcDbLine
 10
372.31699999999995
 20
-271.64499999999975
 30
0.0
 11
372.138
 21
-271.72399999999976
 31
0.0
  0
LINE
  5
1F5
330
17
100
AcDbEntity
  8
0
100
AcDbLine
 10
372.138
 20
-271.72399999999976
 30
0.0
 11
371.948
 21
-271.7829999999998
 31
0.0
  0
LINE
  5
1F6
330
17
100
AcDbEntity
  8
0
100
AcDbLine
 10
371.948
 20
-271.7829999999998
 30
0.0
 11
371.748
 21
-271.8189999999998
 31
0.0
  0
LINE
  5
1F7
330
17
100
AcDbEntity
  8
0
100
AcDbLine
 10
371.748
 20
-271.8189999999998
 30
0.0
 11
371.539
 21
-271.8309999999998
 31
0.0
  0
LINE
  5
1F8
330
17
100
AcDbEntity
  8
0
100
AcDbLine
 10
405.98699999999997
 20
-350.7919999999998
 30
0.0
 11
406.64
 21
-350.5389999999998
 31
0.0
  0
LINE
  5
1F9
330
17
100
AcDbEntity
  8
0
100
AcDbLine
 10
406.64
 20
-350.5389999999998
 30
0.0
 11
391.154
 21
-301.59599999999983
 31
0.0
  0
LINE
  5
1FA
330
17
100
AcDbEntity
  8
0
100
AcDbLine
 10
391.154
 20
-301.59599999999983
 30
0.0
 11
390.973
 21
-301.19599999999986
 31
0.0
  0
LINE
  5
1FB
330
17
100
AcDbEntity
  8
0
100
AcDbLine
 10
390.973
 20
-301.19599999999986
 30
0.0
 11
390.764
 21
-300.8149999999999
 31
0.0
  0
LINE
  5
1FC
330
17
100
AcDbEntity
  8
0
100
AcDbLine
 10
390.764
 20
-300.8149999999999
 30
0.0
 11
390.528
 21
-300.45499999999987
 31
0.0
  0
LINE
  5
1FD
330
17
100
AcDbEntity
  8
0
100
AcDbLine
 10
390.528
 20
-300.45499999999987
 30
0.0
 11
390.266
 21
-300.1159999999999
 31
0.0
  0
LINE
  5
1FE
330
17
100
AcDbEntity
  8
0
100
AcDbLine
 10
390.266
 20
-300.1159999999999
 30
0.0
 11
389.98
 21
-299.7999999999999
 31
0.0
  0
LINE
  5
1FF
330
17
100
AcDbEntity
  8
0
100
AcDbLine
 10
389.98
 20
-299.7999999999999
 30
0.0
 11
389.672
 21
-299.5079999999999
 31
0.0
  0
LINE
  5
200
330
17
100
AcDbEntity
  8
0
100
AcDbLine
 10
389.672
 20
-299.5079999999999
 30
0.0
 11
389.343
 21
-299.2419999999999
 31
0.0
  0
LINE
  5
201
330
17
100
AcDbEntity
  8
0
100
AcDbLine
 10
389.343
 20
-299.2419999999999
 30
0.0
 11
388.995
 21
-299.0019999999999
 31
0.0
  0
LINE
  5
202
330
17
100
AcDbEntity
  8
0
100
AcDbLine
 10
388.995
 20
-299.0019999999999
 30
0.0
 11
388.629
 21
-298.7899999999999
 31
0.0
  0
LINE
  5
203
330
17
100
AcDbEntity
  8
0
100
AcDbLine
 10
388.629
 20
-298.7899999999999
 30
0.0
 11
388.247
 21
-298.6069999999999
 31
0.0
  0
LINE
  5
204
330
17
100
AcDbEntity
  8
0
100
AcDbLine
 10
388.247
 20
-298.6069999999999
 30
0.0
 11
387.851
 21
-298.4539999999999
 31
0.0
  0
LINE
  5
205
330
17
100
AcDbEntity
  8
0
100
AcDbLine
 10
387.851
 20
-298.4539999999999
 30
0.0
 11
387.442
 21
-298.3329999999999
 31
0.0
  0
LINE
  5
206
330
17
100
AcDbEntity
  8
0
100
AcDbLine
 10
387.442
 20
-298.3329999999999
 30
0.0
 11
387.021
 21
-298.2439999999999
 31
0.0
  0
LINE
  5
207
330
17
100
AcDbEntity
  8
0
100
AcDbLine
 10
387.021
 20
-298.2439999999999
 30
0.0
 11
386.591
 21
-298.1889999999999
 31
0.0
  0
LINE
  5
208
330
17
100
AcDbEntity
  8
0
100
AcDbLine
 10
386.591
 20
-298.1889999999999
 30
0.0
 11
347.857
 21
-300.5819999999999
 31
0.0
  0
LINE
  5
209
330
17
100
AcDbEntity
  8
0
100
AcDbLine
 10
347.857
 20
-300.5819999999999
 30
0.0
 11
356.98600000000005
 21
-301.9969999999999
 31
0.0
  0
LINE
  5
20A
330
17
100
AcDbEntity
  8
0
100
AcDbLine
 10
356.98600000000005
 20
-301.9969999999999
 30
0.0
 11
364.83500000000004
 21
-303.9459999999999
 31
0.0
  0
LINE
  5
20B
330
17
100
AcDbEntity
  8
0
100
AcDbLine
 10
364.83500000000004
 20
-303.9459999999999
 30
0.0
 11
371.48800000000006
 21
-306.3599999999999
 31
0.0
  0
LINE
  5
20C
330
17
100
AcDbEntity
  8
0
100
AcDbLine
 10
371.48800000000006
 20
-306.3599999999999
 30
0.0
 11
377.0280000000001
 21
-309.1669999999999
 31
0.0
  0
LINE
  5
20D
330
17
100
AcDbEntity
  8
0
100
AcDbLine
 10
377.0280000000001
 20
-309.1669999999999
 30
0.0
 11
379.4070000000001
 21
-310.6959999999999
 31
0.0
  0
LINE
  5
20E
330
17
100
AcDbEntity
  8
0
100
AcDbLine
 10
379.4070000000001
 20
-310.6959999999999
 30
0.0
 11
381.5390000000001
 21
-312.2969999999999
 31
0.0
  0
LINE
  5
20F
330
17
100
AcDbEntity
  8
0
100
AcDbLine
 10
381.5390000000001
 20
-312.2969999999999
 30
0.0
 11
383.4340000000001
 21
-313.96199999999993
 31
0.0
  0
LINE
  5
210
330
17
100
AcDbEntity
  8
0
100
AcDbLine
 10
383.4340000000001
 20
-313.96199999999993
 30
0.0
 11
385.10300000000007
 21
-315.6809999999999
 31
0.0
  0
LINE
  5
211
330
17
100
AcDbEntity
  8
0
100
AcDbLine
 10
385.10300000000007
 20
-315.6809999999999
 30
0.0
 11
386.55600000000004
 21
-317.4459999999999
 31
0.0
  0
LINE
  5
212
330
17
100
AcDbEntity
  8
0
100
AcDbLine
 10
386.55600000000004
 20
-317.4459999999999
 30
0.0
 11
387.80400000000003
 21
-319.2469999999999
 31
0.0
  0
LINE
  5
213
330
17
100
AcDbEntity
  8
0
100
AcDbLine
 10
387.80400000000003
 20
-319.2469999999999
 30
0.0
 11
388.857
 21
-321.0759999999999
 31
0.0
  0
LINE
  5
214
330
17
100
AcDbEntity
  8
0
100
AcDbLine
 10
388.857
 20
-321.0759999999999
 30
0.0
 11
389.72600000000006
 21
-322.9239999999999
 31
0.0
  0
LINE
  5
215
330
17
100
AcDbEntity
  8
0
100
AcDbLine
 10
389.72600000000006
 20
-322.9239999999999
 30
0.0
 11
390.42100000000005
 21
-324.7829999999999
 31
0.0
  0
LINE
  5
216
330
17
100
AcDbEntity
  8
0
100
AcDbLine
 10
390.42100000000005
 20
-324.7829999999999
 30
0.0
 11
390.95200000000006
 21
-326.6429999999999
 31
0.0
  0
LINE
  5
217
330
17
100
AcDbEntity
  8
0
100
AcDbLine
 10
390.95200000000006
 20
-326.6429999999999
 30
0.0
 11
391.33000000000004
 21
-328.4959999999999
 31
0.0
  0
LINE
  5
218
330
17
100
AcDbEntity
  8
0
100
AcDbLine
 10
391.33000000000004
 20
-328.4959999999999
 30
0.0
 11
391.56500000000005
 21
-330.3329999999999
 31
0.0
  0
LINE
  5
219
330
17
100
AcDbEntity
  8
0
100
AcDbLine
 10
391.56500000000005
 20
-330.3329999999999
 30
0.0
 11
391.64900000000006
 21
-333.9239999999999
 31
0.0
  0
LINE
  5
21A
330
17
100
AcDbEntity
  8
0
100
AcDbLine
 10
391.64900000000006
 20
-333.9239999999999
 30
0.0
 11
391.28700000000003
 21
-337.3449999999999
 31
0.0
  0
LINE
  5
21B
330
17
100
AcDbEntity
  8
0
100
AcDbLine
 10
391.28700000000003
 20
-337.3449999999999
 30
0.0
 11
390.562
 21
-340.5249999999999
 31
0.0
  0
LINE
  5
21C
330
17
100
AcDbEntity
  8
0
100
AcDbLine
 10
390.562
 20
-340.5249999999999
 30
0.0
 11
389.558
 21
-343.3949999999999
 31
0.0
  0
LINE
  5
21D
330
17
100
AcDbEntity
  8
0
100
AcDbLine
 10
389.558
 20
-343.3949999999999
 30
0.0
 11
388.358
 21
-345.8829999999999
 31
0.0
  0
LINE
  5
21E
330
17
100
AcDbEntity
  8
0
100
AcDbLine
 10
388.358
 20
-345.8829999999999
 30
0.0
 11
386.802
 21
-348.2989999999999
 31
0.0
  0
LINE
  5
21F
330
17
100
AcDbEntity
  8
0
100
AcDbLine
 10
386.802
 20
-348.2989999999999
 30
0.0
 11
386.74600000000004
 21
-348.41599999999994
 31
0.0
  0
LINE
  5
220
330
17
100
AcDbEntity
  8
0
100
AcDbLine
 10
386.74600000000004
 20
-348.41599999999994
 30
0.0
 11
386.70200000000006
 21
-348.52799999999996
 31
0.0
  0
LINE
  5
221
330
17
100
AcDbEntity
  8
0
100
AcDbLine
 10
386.70200000000006
 20
-348.52799999999996
 30
0.0
 11
386.6700000000001
 21
-348.635
 31
0.0
  0
LINE
  5
222
330
17
100
AcDbEntity
  8
0
100
AcDbLine
 10
386.6700000000001
 20
-348.635
 30
0.0
 11
386.6500000000001
 21
-348.73699999999997
 31
0.0
  0
LINE
  5
223
330
17
100
AcDbEntity
  8
0
100
AcDbLine
 10
386.6500000000001
 20
-348.73699999999997
 30
0.0
 11
386.6410000000001
 21
-348.835
 31
0.0
  0
LINE
  5
224
330
17
100
AcDbEntity
  8
0
100
AcDbLine
 10
386.6410000000001
 20
-348.835
 30
0.0
 11
386.64200000000005
 21
-348.928
 31
0.0
  0
LINE
  5
225
330
17
100
AcDbEntity
  8
0
100
AcDbLine
 10
386.64200000000005
 20
-348.928
 30
0.0
 11
386.65400000000005
 21
-349.017
 31
0.0
  0
LINE
  5
226
330
17
100
AcDbEntity
  8
0
100
AcDbLine
 10
386.65400000000005
 20
-349.017
 30
0.0
 11
386.67600000000004
 21
-349.101
 31
0.0
  0
LINE
  5
227
330
17
100
AcDbEntity
  8
0
100
AcDbLine
 10
386.67600000000004
 20
-349.101
 30
0.0
 11
386.708
 21
-349.181
 31
0.0
  0
LINE
  5
228
330
17
100
AcDbEntity
  8
0
100
AcDbLine
 10
386.708
 20
-349.181
 30
0.0
 11
386.749
 21
-349.257
 31
0.0
  0
LINE
  5
229
330
17
100
AcDbEntity
  8
0
100
AcDbLine
 10
386.749
 20
-349.257
 30
0.0
 11
386.79900000000004
 21
-349.32800000000003
 31
0.0
  0
LINE
  5
22A
330
17
100
AcDbEntity
  8
0
100
AcDbLine
 10
386.79900000000004
 20
-349.32800000000003
 30
0.0
 11
386.85800000000006
 21
-349.39500000000004
 31
0.0
  0
LINE
  5
22B
330
17
100
AcDbEntity
  8
0
100
AcDbLine
 10
386.85800000000006
 20
-349.39500000000004
 30
0.0
 11
386.92500000000007
 21
-349.458
 31
0.0
  0
LINE
  5
22C
330
17
100
AcDbEntity
  8
0
100
AcDbLine
 10
386.92500000000007
 20
-349.458
 30
0.0
 11
387.72400000000005
 21
-348.601
 31
0.0
  0
LINE
  5
22D
330
17
100
AcDbEntity
  8
0
100
AcDbLine
 10
387.72400000000005
 20
-348.601
 30
0.0
 11
388.61800000000005
 21
-347.828
 31
0.0
  0
LINE
  5
22E
330
17
100
AcDbEntity
  8
0
100
AcDbLine
 10
388.61800000000005
 20
-347.828
 30
0.0
 11
389.607
 21
-347.14799999999997
 31
0.0
  0
LINE
  5
22F
330
17
100
AcDbEntity
  8
0
100
AcDbLine
 10
389.607
 20
-347.14799999999997
 30
0.0
 11
390.69100000000003
 21
-346.57
 31
0.0
  0
LINE
  5
230
330
17
100
AcDbEntity
  8
0
100
AcDbLine
 10
390.69100000000003
 20
-346.57
 30
0.0
 11
391.869
 21
-346.104
 31
0.0
  0
LINE
  5
231
330
17
100
AcDbEntity
  8
0
100
AcDbLine
 10
391.869
 20
-346.104
 30
0.0
 11
393.14200000000005
 21
-345.76
 31
0.0
  0
LINE
  5
232
330
17
100
AcDbEntity
  8
0
100
AcDbLine
 10
393.14200000000005
 20
-345.76
 30
0.0
 11
394.51000000000005
 21
-345.54699999999997
 31
0.0
  0
LINE
  5
233
330
17
100
AcDbEntity
  8
0
100
AcDbLine
 10
394.51000000000005
 20
-345.54699999999997
 30
0.0
 11
395.97400000000005
 21
-345.474
 31
0.0
  0
LINE
  5
234
330
17
100
AcDbEntity
  8
0
100
AcDbLine
 10
395.97400000000005
 20
-345.474
 30
0.0
 11
397.68800000000005
 21
-345.575
 31
0.0
  0
LINE
  5
235
330
17
100
AcDbEntity
  8
0
100
AcDbLine
 10
397.68800000000005
 20
-345.575
 30
0.0
 11
399.27000000000004
 21
-345.868
 31
0.0
  0
LINE
  5
236
330
17
100
AcDbEntity
  8
0
100
AcDbLine
 10
399.27000000000004
 20
-345.868
 30
0.0
 11
400.72
 21
-346.337
 31
0.0
  0
LINE
  5
237
330
17
100
AcDbEntity
  8
0
100
AcDbLine
 10
400.72
 20
-346.337
 30
0.0
 11
402.038
 21
-346.967
 31
0.0
  0
LINE
  5
238
330
17
100
AcDbEntity
  8
0
100
AcDbLine
 10
402.038
 20
-346.967
 30
0.0
 11
403.224
 21
-347.743
 31
0.0
  0
LINE
  5
239
330
17
100
AcDbEntity
  8
0
100
AcDbLine
 10
403.224
 20
-347.743
 30
0.0
 11
404.27799999999996
 21
-348.649
 31
0.0
  0
LINE
  5
23A
330
17
100
AcDbEntity
  8
0
100
AcDbLine
 10
404.27799999999996
 20
-348.649
 30
0.0
 11
405.2
 21
-349.67
 31
0.0
  0
LINE
  5
23B
330
17
100
AcDbEntity
  8
0
100
AcDbLine
 10
405.2
 20
-349.67
 30
0.0
 11
405.991
 21
-350.791
 31
0.0
  0
LINE
  5
23C
330
17
100
AcDbEntity
  8
0
100
AcDbLine
 10
409.74199999999996
 20
-359.281
 30
0.0
 11
409.69699999999995
 21
-360.367
 31
0.0
  0
LINE
  5
23D
330
17
100
AcDbEntity
  8
0
100
AcDbLine
 10
409.69699999999995
 20
-360.367
 30
0.0
 11
409.57099999999997
 21
-361.445
 31
0.0
  0
LINE
  5
23E
330
17
100
AcDbEntity
  8
0
100
AcDbLine
 10
409.57099999999997
 20
-361.445
 30
0.0
 11
409.36299999999994
 21
-362.508
 31
0.0
  0
LINE
  5
23F
330
17
100
AcDbEntity
  8
0
100
AcDbLine
 10
409.36299999999994
 20
-362.508
 30
0.0
 11
409.0729999999999
 21
-363.548
 31
0.0
  0
LINE
  5
240
330
17
100
AcDbEntity
  8
0
100
AcDbLine
 10
409.0729999999999
 20
-363.548
 30
0.0
 11
408.7009999999999
 21
-364.558
 31
0.0
  0
LINE
  5
241
330
17
100
AcDbEntity
  8
0
100
AcDbLine
 10
408.7009999999999
 20
-364.558
 30
0.0
 11
408.2469999999999
 21
-365.531
 31
0.0
  0
LINE
  5
242
330
17
100
AcDbEntity
  8
0
100
AcDbLine
 10
408.2469999999999
 20
-365.531
 30
0.0
 11
407.7119999999999
 21
-366.459
 31
0.0
  0
LINE
  5
243
330
17
100
AcDbEntity
  8
0
100
AcDbLine
 10
407.7119999999999
 20
-366.459
 30
0.0
 11
407.09499999999986
 21
-367.335
 31
0.0
  0
LINE
  5
244
330
17
100
AcDbEntity
  8
0
100
AcDbLine
 10
407.09499999999986
 20
-367.335
 30
0.0
 11
406.39599999999984
 21
-368.15099999999995
 31
0.0
  0
LINE
  5
245
330
17
100
AcDbEntity
  8
0
100
AcDbLine
 10
406.39599999999984
 20
-368.15099999999995
 30
0.0
 11
405.61499999999984
 21
-368.9
 31
0.0
  0
LINE
  5
246
330
17
100
AcDbEntity
  8
0
100
AcDbLine
 10
405.61499999999984
 20
-368.9
 30
0.0
 11
404.7529999999998
 21
-369.57399999999996
 31
0.0
  0
LINE
  5
247
330
17
100
AcDbEntity
  8
0
100
AcDbLine
 10
404.7529999999998
 20
-369.57399999999996
 30
0.0
 11
403.8089999999998
 21
-370.16599999999994
 31
0.0
  0
LINE
  5
248
330
17
100
AcDbEntity
  8
0
100
AcDbLine
 10
403.8089999999998
 20
-370.16599999999994
 30
0.0
 11
402.7829999999998
 21
-370.6689999999999
 31
0.0
  0
LINE
  5
249
330
17
100
AcDbEntity
  8
0
100
AcDbLine
 10
402.7829999999998
 20
-370.6689999999999
 30
0.0
 11
401.67599999999976
 21
-371.07499999999993
 31
0.0
  0
LINE
  5
24A
330
17
100
AcDbEntity
  8
0
100
AcDbLine
 10
401.67599999999976
 20
-371.07499999999993
 30
0.0
 11
400.48699999999974
 21
-371.37699999999995
 31
0.0
  0
LINE
  5
24B
330
17
100
AcDbEntity
  8
0
100
AcDbLine
 10
400.48699999999974
 20
-371.37699999999995
 30
0.0
 11
397.7279999999997
 21
-371.71099999999996
 31
0.0
  0
LINE
  5
24C
330
17
100
AcDbEntity
  8
0
100
AcDbLine
 10
397.7279999999997
 20
-371.71099999999996
 30
0.0
 11
397.3799999999997
 21
-371.893
 31
0.0
  0
LINE
  5
24D
330
17
100
AcDbEntity
  8
0
100
AcDbLine
 10
397.3799999999997
 20
-371.893
 30
0.0
 11
397.2119999999997
 21
-372.003
 31
0.0
  0
LINE
  5
24E
330
17
100
AcDbEntity
  8
0
100
AcDbLine
 10
397.2119999999997
 20
-372.003
 30
0.0
 11
397.0529999999997
 21
-372.125
 31
0.0
  0
LINE
  5
24F
330
17
100
AcDbEntity
  8
0
100
AcDbLine
 10
397.0529999999997
 20
-372.125
 30
0.0
 11
396.9059999999997
 21
-372.258
 31
0.0
  0
LINE
  5
250
330
17
100
AcDbEntity
  8
0
100
AcDbLine
 10
396.9059999999997
 20
-372.258
 30
0.0
 11
396.7759999999997
 21
-372.402
 31
0.0
  0
LINE
  5
251
330
17
100
AcDbEntity
  8
0
100
AcDbLine
 10
396.7759999999997
 20
-372.402
 30
0.0
 11
396.6659999999997
 21
-372.555
 31
0.0
  0
LINE
  5
252
330
17
100
AcDbEntity
  8
0
100
AcDbLine
 10
396.6659999999997
 20
-372.555
 30
0.0
 11
396.6199999999997
 21
-372.635
 31
0.0
  0
LINE
  5
253
330
17
100
AcDbEntity
  8
0
100
AcDbLine
 10
396.6199999999997
 20
-372.635
 30
0.0
 11
396.5799999999997
 21
-372.717
 31
0.0
  0
LINE
  5
254
330
17
100
AcDbEntity
  8
0
100
AcDbLine
 10
396.5799999999997
 20
-372.717
 30
0.0
 11
396.5469999999997
 21
-372.801
 31
0.0
  0
LINE
  5
255
330
17
100
AcDbEntity
  8
0
100
AcDbLine
 10
396.5469999999997
 20
-372.801
 30
0.0
 11
396.5209999999997
 21
-372.887
 31
0.0
  0
LINE
  5
256
330
17
100
AcDbEntity
  8
0
100
AcDbLine
 10
396.5209999999997
 20
-372.887
 30
0.0
 11
396.5029999999997
 21
-372.974
 31
0.0
  0
LINE
  5
257
330
17
100
AcDbEntity
  8
0
100
AcDbLine
 10
396.5029999999997
 20
-372.974
 30
0.0
 11
396.4939999999997
 21
-373.063
 31
0.0
  0
LINE
  5
258
330
17
100
AcDbEntity
  8
0
100
AcDbLine
 10
396.4939999999997
 20
-373.063
 30
0.0
 11
396.4929999999997
 21
-373.15299999999996
 31
0.0
  0
LINE
  5
259
330
17
100
AcDbEntity
  8
0
100
AcDbLine
 10
396.4929999999997
 20
-373.15299999999996
 30
0.0
 11
396.5019999999997
 21
-373.24499999999995
 31
0.0
  0
LINE
  5
25A
330
17
100
AcDbEntity
  8
0
100
AcDbLine
 10
396.5019999999997
 20
-373.24499999999995
 30
0.0
 11
396.5199999999997
 21
-373.33799999999997
 31
0.0
  0
LINE
  5
25B
330
17
100
AcDbEntity
  8
0
100
AcDbLine
 10
396.5199999999997
 20
-373.33799999999997
 30
0.0
 11
396.5479999999997
 21
-373.43199999999996
 31
0.0
  0
LINE
  5
25C
330
17
100
AcDbEntity
  8
0
100
AcDbLine
 10
396.5479999999997
 20
-373.43199999999996
 30
0.0
 11
396.5869999999997
 21
-373.527
 31
0.0
  0
LINE
  5
25D
330
17
100
AcDbEntity
  8
0
100
AcDbLine
 10
396.5869999999997
 20
-373.527
 30
0.0
 11
396.6369999999997
 21
-373.623
 31
0.0
  0
LINE
  5
25E
330
17
100
AcDbEntity
  8
0
100
AcDbLine
 10
396.6369999999997
 20
-373.623
 30
0.0
 11
396.6989999999997
 21
-373.71999999999997
 31
0.0
  0
LINE
  5
25F
330
17
100
AcDbEntity
  8
0
100
AcDbLine
 10
396.6989999999997
 20
-373.71999999999997
 30
0.0
 11
396.77299999999974
 21
-373.818
 31
0.0
  0
LINE
  5
260
330
17
100
AcDbEntity
  8
0
100
AcDbLine
 10
396.77299999999974
 20
-373.818
 30
0.0
 11
396.9589999999997
 21
-374.015
 31
0.0
  0
LINE
  5
261
330
17
100
AcDbEntity
  8
0
100
AcDbLine
 10
396.9589999999997
 20
-374.015
 30
0.0
 11
397.1989999999997
 21
-374.214
 31
0.0
  0
LINE
  5
262
330
17
100
AcDbEntity
  8
0
100
AcDbLine
 10
397.1989999999997
 20
-374.214
 30
0.0
 11
397.2069999999997
 21
-374.218
 31
0.0
  0
LINE
  5
263
330
17
100
AcDbEntity
  8
0
100
AcDbLine
 10
397.2069999999997
 20
-374.218
 30
0.0
 11
397.2479999999997
 21
-374.25
 31
0.0
  0
LINE
  5
264
330
17
100
AcDbEntity
  8
0
100
AcDbLine
 10
397.2479999999997
 20
-374.25
 30
0.0
 11
401.8369999999997
 21
-376.727
 31
0.0
  0
LINE
  5
265
330
17
100
AcDbEntity
  8
0
100
AcDbLine
 10
401.8369999999997
 20
-376.727
 30
0.0
 11
406.1109999999997
 21
-379.55499999999995
 31
0.0
  0
LINE
  5
266
330
17
100
AcDbEntity
  8
0
100
AcDbLine
 10
406.1109999999997
 20
-379.55499999999995
 30
0.0
 11
413.3629999999997
 21
-385.43499999999995
 31
0.0
  0
LINE
  5
267
330
17
100
AcDbEntity
  8
0
100
AcDbLine
 10
413.3629999999997
 20
-385.43499999999995
 30
0.0
 11
420.0629999999997
 21
-392.16799999999995
 31
0.0
  0
LINE
  5
268
330
17
100
AcDbEntity
  8
0
100
AcDbLine
 10
420.0629999999997
 20
-392.16799999999995
 30
0.0
 11
409.7429999999997
 21
-359.28299999999996
 31
0.0
  0
LINE
  5
269
330
17
100
AcDbEntity
  8
0
100
AcDbLine
 10
500.46299999999974
 20
-328.917
 30
0.0
 11
502.40199999999976
 21
-330.00199999999995
 31
0.0
  0
LINE
  5
26A
330
17
100
AcDbEntity
  8
0
100
AcDbLine
 10
502.40199999999976
 20
-330.00199999999995
 30
0.0
 11
504.55299999999977
 21
-330.99699999999996
 31
0.0
  0
LINE
  5
26B
330
17
100
AcDbEntity
  8
0
100
AcDbLine
 10
504.55299999999977
 20
-330.99699999999996
 30
0.0
 11
507.2489999999998
 21
-331.972
 31
0.0
  0
LINE
  5
26C
330
17
100
AcDbEntity
  8
0
100
AcDbLine
 10
507.2489999999998
 20
-331.972
 30
0.0
 11
510.3089999999998
 21
-332.686
 31
0.0
  0
LINE
  5
26D
330
17
100
AcDbEntity
  8
0
100
AcDbLine
 10
510.3089999999998
 20
-332.686
 30
0.0
 11
511.9189999999998
 21
-332.87
 31
0.0
  0
LINE
  5
26E
330
17
100
AcDbEntity
  8
0
100
AcDbLine
 10
511.9189999999998
 20
-332.87
 30
0.0
 11
513.5519999999998
 21
-332.898
 31
0.0
  0
LINE
  5
26F
330
17
100
AcDbEntity
  8
0
100
AcDbLine
 10
513.5519999999998
 20
-332.898
 30
0.0
 11
515.1849999999998
 21
-332.74
 31
0.0
  0
LINE
  5
270
330
17
100
AcDbEntity
  8
0
100
AcDbLine
 10
515.1849999999998
 20
-332.74
 30
0.0
 11
515.9949999999998
 21
-332.582
 31
0.0
  0
LINE
  5
271
330
17
100
AcDbEntity
  8
0
100
AcDbLine
 10
515.9949999999998
 20
-332.582
 30
0.0
 11
516.7959999999998
 21
-332.366
 31
0.0
  0
LINE
  5
272
330
17
100
AcDbEntity
  8
0
100
AcDbLine
 10
516.7959999999998
 20
-332.366
 30
0.0
 11
517.5859999999998
 21
-332.089
 31
0.0
  0
LINE
  5
273
330
17
100
AcDbEntity
  8
0
100
AcDbLine
 10
517.5859999999998
 20
-332.089
 30
0.0
 11
518.3619999999997
 21
-331.746
 31
0.0
  0
LINE
  5
274
330
17
100
AcDbEntity
  8
0
100
AcDbLine
 10
518.3619999999997
 20
-331.746
 30
0.0
 11
519.1209999999998
 21
-331.334
 31
0.0
  0
LINE
  5
275
330
17
100
AcDbEntity
  8
0
100
AcDbLine
 10
519.1209999999998
 20
-331.334
 30
0.0
 11
519.8599999999998
 21
-330.85
 31
0.0
  0
LINE
  5
276
330
17
100
AcDbEntity
  8
0
100
AcDbLine
 10
519.8599999999998
 20
-330.85
 30
0.0
 11
519.5079999999998
 21
-331.15700000000004
 31
0.0
  0
LINE
  5
277
330
17
100
AcDbEntity
  8
0
100
AcDbLine
 10
519.5079999999998
 20
-331.15700000000004
 30
0.0
 11
518.5919999999998
 21
-332.16900000000004
 31
0.0
  0
LINE
  5
278
330
17
100
AcDbEntity
  8
0
100
AcDbLine
 10
518.5919999999998
 20
-332.16900000000004
 30
0.0
 11
517.3229999999998
 21
-334.02400000000006
 31
0.0
  0
LINE
  5
279
330
17
100
AcDbEntity
  8
0
100
AcDbLine
 10
517.3229999999998
 20
-334.02400000000006
 30
0.0
 11
515.9109999999997
 21
-336.85900000000004
 31
0.0
  0
LINE
  5
27A
330
17
100
AcDbEntity
  8
0
100
AcDbLine
 10
515.9109999999997
 20
-336.85900000000004
 30
0.0
 11
514.5659999999997
 21
-340.81100000000004
 31
0.0
  0
LINE
  5
27B
330
17
100
AcDbEntity
  8
0
100
AcDbLine
 10
514.5659999999997
 20
-340.81100000000004
 30
0.0
 11
513.4989999999997
 21
-346.01700000000005
 31
0.0
  0
LINE
  5
27C
330
17
100
AcDbEntity
  8
0
100
AcDbLine
 10
513.4989999999997
 20
-346.01700000000005
 30
0.0
 11
512.9209999999997
 21
-352.61400000000003
 31
0.0
  0
LINE
  5
27D
330
17
100
AcDbEntity
  8
0
100
AcDbLine
 10
512.9209999999997
 20
-352.61400000000003
 30
0.0
 11
513.0409999999997
 21
-360.74
 31
0.0
  0
LINE
  5
27E
330
17
100
AcDbEntity
  8
0
100
AcDbLine
 10
513.0409999999997
 20
-360.74
 30
0.0
 11
500.4639999999997
 21
-328.918
 31
0.0
  0
LINE
  5
27F
330
17
100
AcDbEntity
  8
0
100
AcDbLine
 10
45.33799999999974
 20
-240.635
 30
0.0
 11
45.31899999999974
 21
-240.632
 31
0.0
  0
LINE
  5
280
330
17
100
AcDbEntity
  8
0
100
AcDbLine
 10
45.31899999999974
 20
-240.632
 30
0.0
 11
45.30099999999974
 21
-240.627
 31
0.0
  0
LINE
  5
281
330
17
100
AcDbEntity
  8
0
100
AcDbLine
 10
45.30099999999974
 20
-240.627
 30
0.0
 11
45.28499999999974
 21
-240.621
 31
0.0
  0
LINE
  5
282
330
17
100
AcDbEntity
  8
0
100
AcDbLine
 10
45.28499999999974
 20
-240.621
 30
0.0
 11
45.26999999999974
 21
-240.613
 31
0.0
  0
LINE
  5
283
330
17
100
AcDbEntity
  8
0
100
AcDbLine
 10
45.26999999999974
 20
-240.613
 30
0.0
 11
45.25599999999974
 21
-240.604
 31
0.0
  0
LINE
  5
284
330
17
100
AcDbEntity
  8
0
100
AcDbLine
 10
45.25599999999974
 20
-240.604
 30
0.0
 11
45.24299999999974
 21
-240.59400000000002
 31
0.0
  0
LINE
  5
285
330
17
100
AcDbEntity
  8
0
100
AcDbLine
 10
45.24299999999974
 20
-240.59400000000002
 30
0.0
 11
45.231999999999736
 21
-240.58300000000003
 31
0.0
  0
LINE
  5
286
330
17
100
AcDbEntity
  8
0
100
AcDbLine
 10
45.231999999999736
 20
-240.58300000000003
 30
0.0
 11
45.22199999999974
 21
-240.57100000000003
 31
0.0
  0
LINE
  5
287
330
17
100
AcDbEntity
  8
0
100
AcDbLine
 10
45.22199999999974
 20
-240.57100000000003
 30
0.0
 11
45.21299999999974
 21
-240.55800000000002
 31
0.0
  0
LINE
  5
288
330
17
100
AcDbEntity
  8
0
100
AcDbLine
 10
45.21299999999974
 20
-240.55800000000002
 30
0.0
 11
45.20599999999974
 21
-240.54500000000002
 31
0.0
  0
LINE
  5
289
330
17
100
AcDbEntity
  8
0
100
AcDbLine
 10
45.20599999999974
 20
-240.54500000000002
 30
0.0
 11
45.19999999999974
 21
-240.531
 31
0.0
  0
LINE
  5
28A
330
17
100
AcDbEntity
  8
0
100
AcDbLine
 10
45.19999999999974
 20
-240.531
 30
0.0
 11
45.19499999999974
 21
-240.517
 31
0.0
  0
LINE
  5
28B
330
17
100
AcDbEntity
  8
0
100
AcDbLine
 10
45.19499999999974
 20
-240.517
 30
0.0
 11
45.19099999999974
 21
-240.502
 31
0.0
  0
LINE
  5
28C
330
17
100
AcDbEntity
  8
0
100
AcDbLine
 10
45.19099999999974
 20
-240.502
 30
0.0
 11
45.18899999999974
 21
-240.48700000000002
 31
0.0
  0
LINE
  5
28D
330
17
100
AcDbEntity
  8
0
100
AcDbLine
 10
45.18899999999974
 20
-240.48700000000002
 30
0.0
 11
45.18799999999974
 21
-240.47200000000004
 31
0.0
  0
LINE
  5
28E
330
17
100
AcDbEntity
  8
0
100
AcDbLine
 10
45.18799999999974
 20
-240.47200000000004
 30
0.0
 11
45.18799999999974
 21
-240.45700000000005
 31
0.0
  0
LINE
  5
28F
330
17
100
AcDbEntity
  8
0
100
AcDbLine
 10
45.18799999999974
 20
-240.45700000000005
 30
0.0
 11
45.18899999999974
 21
-240.44200000000006
 31
0.0
  0
LINE
  5
290
330
17
100
AcDbEntity
  8
0
100
AcDbLine
 10
45.18899999999974
 20
-240.44200000000006
 30
0.0
 11
45.19199999999974
 21
-240.42700000000008
 31
0.0
  0
LINE
  5
291
330
17
100
AcDbEntity
  8
0
100
AcDbLine
 10
45.19199999999974
 20
-240.42700000000008
 30
0.0
 11
45.195999999999735
 21
-240.4120000000001
 31
0.0
  0
LINE
  5
292
330
17
100
AcDbEntity
  8
0
100
AcDbLine
 10
45.195999999999735
 20
-240.4120000000001
 30
0.0
 11
45.20099999999974
 21
-240.39800000000008
 31
0.0
  0
LINE
  5
293
330
17
100
AcDbEntity
  8
0
100
AcDbLine
 10
45.20099999999974
 20
-240.39800000000008
 30
0.0
 11
45.20699999999974
 21
-240.38400000000007
 31
0.0
  0
LINE
  5
294
330
17
100
AcDbEntity
  8
0
100
AcDbLine
 10
45.20699999999974
 20
-240.38400000000007
 30
0.0
 11
45.213999999999736
 21
-240.37100000000007
 31
0.0
  0
LINE
  5
295
330
17
100
AcDbEntity
  8
0
100
AcDbLine
 10
45.213999999999736
 20
-240.37100000000007
 30
0.0
 11
45.222999999999736
 21
-240.35900000000007
 31
0.0
  0
LINE
  5
296
330
17
100
AcDbEntity
  8
0
100
AcDbLine
 10
45.222999999999736
 20
-240.35900000000007
 30
0.0
 11
45.232999999999734
 21
-240.34800000000007
 31
0.0
  0
LINE
  5
297
330
17
100
AcDbEntity
  8
0
100
AcDbLine
 10
45.232999999999734
 20
-240.34800000000007
 30
0.0
 11
45.24399999999974
 21
-240.33800000000008
 31
0.0
  0
LINE
  5
298
330
17
100
AcDbEntity
  8
0
100
AcDbLine
 10
45.24399999999974
 20
-240.33800000000008
 30
0.0
 11
45.25599999999974
 21
-240.3290000000001
 31
0.0
  0
LINE
  5
299
330
17
100
AcDbEntity
  8
0
100
AcDbLine
 10
45.25599999999974
 20
-240.3290000000001
 30
0.0
 11
45.268999999999735
 21
-240.32100000000008
 31
0.0
  0
LINE
  5
29A
330
17
100
AcDbEntity
  8
0
100
AcDbLine
 10
45.268999999999735
 20
-240.32100000000008
 30
0.0
 11
45.283999999999736
 21
-240.31400000000008
 31
0.0
  0
LINE
  5
29B
330
17
100
AcDbEntity
  8
0
100
AcDbLine
 10
45.283999999999736
 20
-240.31400000000008
 30
0.0
 11
45.299999999999734
 21
-240.30800000000008
 31
0.0
  0
LINE
  5
29C
330
17
100
AcDbEntity
  8
0
100
AcDbLine
 10
45.299999999999734
 20
-240.30800000000008
 30
0.0
 11
45.31699999999974
 21
-240.3040000000001
 31
0.0
  0
LINE
  5
29D
330
17
100
AcDbEntity
  8
0
100
AcDbLine
 10
45.31699999999974
 20
-240.3040000000001
 30
0.0
 11
45.33499999999974
 21
-240.30200000000008
 31
0.0
  0
LINE
  5
29E
330
17
100
AcDbEntity
  8
0
100
AcDbLine
 10
45.33499999999974
 20
-240.30200000000008
 30
0.0
 11
314.01699999999977
 21
-242.02800000000008
 31
0.0
  0
LINE
  5
29F
330
17
100
AcDbEntity
  8
0
100
AcDbLine
 10
314.01699999999977
 20
-242.02800000000008
 30
0.0
 11
314.0399999999998
 21
-242.03100000000006
 31
0.0
  0
LINE
  5
2A0
330
17
100
AcDbEntity
  8
0
100
AcDbLine
 10
314.0399999999998
 20
-242.03100000000006
 30
0.0
 11
314.0619999999998
 21
-242.03700000000006
 31
0.0
  0
LINE
  5
2A1
330
17
100
AcDbEntity
  8
0
100
AcDbLine
 10
314.0619999999998
 20
-242.03700000000006
 30
0.0
 11
314.08199999999977
 21
-242.04400000000007
 31
0.0
  0
LINE
  5
2A2
330
17
100
AcDbEntity
  8
0
100
AcDbLine
 10
314.08199999999977
 20
-242.04400000000007
 30
0.0
 11
314.1009999999998
 21
-242.05300000000005
 31
0.0
  0
LINE
  5
2A3
330
17
100
AcDbEntity
  8
0
100
AcDbLine
 10
314.1009999999998
 20
-242.05300000000005
 30
0.0
 11
314.11799999999977
 21
-242.06400000000005
 31
0.0
  0
LINE
  5
2A4
330
17
100
AcDbEntity
  8
0
100
AcDbLine
 10
314.11799999999977
 20
-242.06400000000005
 30
0.0
 11
314.1339999999998
 21
-242.07600000000005
 31
0.0
  0
LINE
  5
2A5
330
17
100
AcDbEntity
  8
0
100
AcDbLine
 10
314.1339999999998
 20
-242.07600000000005
 30
0.0
 11
314.1479999999998
 21
-242.09000000000006
 31
0.0
  0
LINE
  5
2A6
330
17
100
AcDbEntity
  8
0
100
AcDbLine
 10
314.1479999999998
 20
-242.09000000000006
 30
0.0
 11
314.1609999999998
 21
-242.10500000000005
 31
0.0
  0
LINE
  5
2A7
330
17
100
AcDbEntity
  8
0
100
AcDbLine
 10
314.1609999999998
 20
-242.10500000000005
 30
0.0
 11
314.1719999999998
 21
-242.12100000000004
 31
0.0
  0
LINE
  5
2A8
330
17
100
AcDbEntity
  8
0
100
AcDbLine
 10
314.1719999999998
 20
-242.12100000000004
 30
0.0
 11
314.1809999999998
 21
-242.13800000000003
 31
0.0
  0
LINE
  5
2A9
330
17
100
AcDbEntity
  8
0
100
AcDbLine
 10
314.1809999999998
 20
-242.13800000000003
 30
0.0
 11
314.1889999999998
 21
-242.15600000000003
 31
0.0
  0
LINE
  5
2AA
330
17
100
AcDbEntity
  8
0
100
AcDbLine
 10
314.1889999999998
 20
-242.15600000000003
 30
0.0
 11
314.19499999999977
 21
-242.17400000000004
 31
0.0
  0
LINE
  5
2AB
330
17
100
AcDbEntity
  8
0
100
AcDbLine
 10
314.19499999999977
 20
-242.17400000000004
 30
0.0
 11
314.19999999999976
 21
-242.19300000000004
 31
0.0
  0
LINE
  5
2AC
330
17
100
AcDbEntity
  8
0
100
AcDbLine
 10
314.19999999999976
 20
-242.19300000000004
 30
0.0
 11
314.20299999999975
 21
-242.21200000000005
 31
0.0
  0
LINE
  5
2AD
330
17
100
AcDbEntity
  8
0
100
AcDbLine
 10
314.20299999999975
 20
-242.21200000000005
 30
0.0
 11
314.20499999999976
 21
-242.23100000000005
 31
0.0
  0
LINE
  5
2AE
330
17
100
AcDbEntity
  8
0
100
AcDbLine
 10
314.20499999999976
 20
-242.23100000000005
 30
0.0
 11
314.20499999999976
 21
-242.25100000000006
 31
0.0
  0
LINE
  5
2AF
330
17
100
AcDbEntity
  8
0
100
AcDbLine
 10
314.20499999999976
 20
-242.25100000000006
 30
0.0
 11
314.20299999999975
 21
-242.27000000000007
 31
0.0
  0
LINE
  5
2B0
330
17
100
AcDbEntity
  8
0
100
AcDbLine
 10
314.20299999999975
 20
-242.27000000000007
 30
0.0
 11
314.19999999999976
 21
-242.28900000000007
 31
0.0
  0
LINE
  5
2B1
330
17
100
AcDbEntity
  8
0
100
AcDbLine
 10
314.19999999999976
 20
-242.28900000000007
 30
0.0
 11
314.19499999999977
 21
-242.30800000000008
 31
0.0
  0
LINE
  5
2B2
330
17
100
AcDbEntity
  8
0
100
AcDbLine
 10
314.19499999999977
 20
-242.30800000000008
 30
0.0
 11
314.1889999999998
 21
-242.32600000000008
 31
0.0
  0
LINE
  5
2B3
330
17
100
AcDbEntity
  8
0
100
AcDbLine
 10
314.1889999999998
 20
-242.32600000000008
 30
0.0
 11
314.1809999999998
 21
-242.34400000000008
 31
0.0
  0
LINE
  5
2B4
330
17
100
AcDbEntity
  8
0
100
AcDbLine
 10
314.1809999999998
 20
-242.34400000000008
 30
0.0
 11
314.1709999999998
 21
-242.36100000000008
 31
0.0
  0
LINE
  5
2B5
330
17
100
AcDbEntity
  8
0
100
AcDbLine
 10
314.1709999999998
 20
-242.36100000000008
 30
0.0
 11
314.1599999999998
 21
-242.37700000000007
 31
0.0
  0
LINE
  5
2B6
330
17
100
AcDbEntity
  8
0
100
AcDbLine
 10
314.1599999999998
 20
-242.37700000000007
 30
0.0
 11
314.1469999999998
 21
-242.39200000000005
 31
0.0
  0
LINE
  5
2B7
330
17
100
AcDbEntity
  8
0
100
AcDbLine
 10
314.1469999999998
 20
-242.39200000000005
 30
0.0
 11
314.13199999999983
 21
-242.40600000000006
 31
0.0
  0
LINE
  5
2B8
330
17
100
AcDbEntity
  8
0
100
AcDbLine
 10
314.13199999999983
 20
-242.40600000000006
 30
0.0
 11
314.1159999999998
 21
-242.41900000000007
 31
0.0
  0
LINE
  5
2B9
330
17
100
AcDbEntity
  8
0
100
AcDbLine
 10
314.1159999999998
 20
-242.41900000000007
 30
0.0
 11
314.09799999999984
 21
-242.43000000000006
 31
0.0
  0
LINE
  5
2BA
330
17
100
AcDbEntity
  8
0
100
AcDbLine
 10
314.09799999999984
 20
-242.43000000000006
 30
0.0
 11
314.07799999999986
 21
-242.44000000000005
 31
0.0
  0
LINE
  5
2BB
330
17
100
AcDbEntity
  8
0
100
AcDbLine
 10
314.07799999999986
 20
-242.44000000000005
 30
0.0
 11
314.05699999999985
 21
-242.44800000000006
 31
0.0
  0
LINE
  5
2BC
330
17
100
AcDbEntity
  8
0
100
AcDbLine
 10
314.05699999999985
 20
-242.44800000000006
 30
0.0
 11
314.0339999999998
 21
-242.45400000000006
 31
0.0
  0
LINE
  5
2BD
330
17
100
AcDbEntity
  8
0
100
AcDbLine
 10
314.0339999999998
 20
-242.45400000000006
 30
0.0
 11
289.9649999999998
 21
-244.62500000000006
 31
0.0
  0
LINE
  5
2BE
330
17
100
AcDbEntity
  8
0
100
AcDbLine
 10
289.9649999999998
 20
-244.62500000000006
 30
0.0
 11
66.29499999999982
 21
-243.13200000000006
 31
0.0
  0
LINE
  5
2BF
330
17
100
AcDbEntity
  8
0
100
AcDbLine
 10
66.29499999999982
 20
-243.13200000000006
 30
0.0
 11
45.337999999999816
 21
-240.63500000000005
 31
0.0
  0
LINE
  5
2C0
330
17
100
AcDbEntity
  8
0
100
AcDbLine
 10
305.2449999999998
 20
-310.62000000000006
 30
0.0
 11
270.91599999999977
 21
-310.5540000000001
 31
0.0
  0
LINE
  5
2C1
330
17
100
AcDbEntity
  8
0
100
AcDbLine
 10
270.91599999999977
 20
-310.5540000000001
 30
0.0
 11
272.8699999999998
 21
-312.07200000000006
 31
0.0
  0
LINE
  5
2C2
330
17
100
AcDbEntity
  8
0
100
AcDbLine
 10
272.8699999999998
 20
-312.07200000000006
 30
0.0
 11
274.8639999999998
 21
-313.8980000000001
 31
0.0
  0
LINE
  5
2C3
330
17
100
AcDbEntity
  8
0
100
AcDbLine
 10
274.8639999999998
 20
-313.8980000000001
 30
0.0
 11
277.1379999999998
 21
-316.3710000000001
 31
0.0
  0
LINE
  5
2C4
330
17
100
AcDbEntity
  8
0
100
AcDbLine
 10
277.1379999999998
 20
-316.3710000000001
 30
0.0
 11
279.3939999999998
 21
-319.4440000000001
 31
0.0
  0
LINE
  5
2C5
330
17
100
AcDbEntity
  8
0
100
AcDbLine
 10
279.3939999999998
 20
-319.4440000000001
 30
0.0
 11
280.42099999999976
 21
-321.1910000000001
 31
0.0
  0
LINE
  5
2C6
330
17
100
AcDbEntity
  8
0
100
AcDbLine
 10
280.42099999999976
 20
-321.1910000000001
 30
0.0
 11
281.33199999999977
 21
-323.0700000000001
 31
0.0
  0
LINE
  5
2C7
330
17
100
AcDbEntity
  8
0
100
AcDbLine
 10
281.33199999999977
 20
-323.0700000000001
 30
0.0
 11
282.08899999999977
 21
-325.0750000000001
 31
0.0
  0
LINE
  5
2C8
330
17
100
AcDbEntity
  8
0
100
AcDbLine
 10
282.08899999999977
 20
-325.0750000000001
 30
0.0
 11
282.65399999999977
 21
-327.2000000000001
 31
0.0
  0
LINE
  5
2C9
330
17
100
AcDbEntity
  8
0
100
AcDbLine
 10
282.65399999999977
 20
-327.2000000000001
 30
0.0
 11
282.99099999999976
 21
-329.4390000000001
 31
0.0
  0
LINE
  5
2CA
330
17
100
AcDbEntity
  8
0
100
AcDbLine
 10
282.99099999999976
 20
-329.4390000000001
 30
0.0
 11
283.0619999999998
 21
-331.78600000000006
 31
0.0
  0
LINE
  5
2CB
330
17
100
AcDbEntity
  8
0
100
AcDbLine
 10
283.0619999999998
 20
-331.78600000000006
 30
0.0
 11
284.0249999999998
 21
-328.80300000000005
 31
0.0
  0
LINE
  5
2CC
330
17
100
AcDbEntity
  8
0
100
AcDbLine
 10
284.0249999999998
 20
-328.80300000000005
 30
0.0
 11
285.3879999999998
 21
-325.69700000000006
 31
0.0
  0
LINE
  5
2CD
330
17
100
AcDbEntity
  8
0
100
AcDbLine
 10
285.3879999999998
 20
-325.69700000000006
 30
0.0
 11
287.4789999999998
 21
-322.06800000000004
 31
0.0
  0
LINE
  5
2CE
330
17
100
AcDbEntity
  8
0
100
AcDbLine
 10
287.4789999999998
 20
-322.06800000000004
 30
0.0
 11
288.8309999999998
 21
-320.18700000000007
 31
0.0
  0
LINE
  5
2CF
330
17
100
AcDbEntity
  8
0
100
AcDbLine
 10
288.8309999999998
 20
-320.18700000000007
 30
0.0
 11
290.4049999999998
 21
-318.3310000000001
 31
0.0
  0
LINE
  5
2D0
330
17
100
AcDbEntity
  8
0
100
AcDbLine
 10
290.4049999999998
 20
-318.3310000000001
 30
0.0
 11
292.2139999999998
 21
-316.5520000000001
 31
0.0
  0
LINE
  5
2D1
330
17
100
AcDbEntity
  8
0
100
AcDbLine
 10
292.2139999999998
 20
-316.5520000000001
 30
0.0
 11
294.27099999999984
 21
-314.90100000000007
 31
0.0
  0
LINE
  5
2D2
330
17
100
AcDbEntity
  8
0
100
AcDbLine
 10
294.27099999999984
 20
-314.90100000000007
 30
0.0
 11
296.5889999999998
 21
-313.43100000000004
 31
0.0
  0
LINE
  5
2D3
330
17
100
AcDbEntity
  8
0
100
AcDbLine
 10
296.5889999999998
 20
-313.43100000000004
 30
0.0
 11
299.18199999999985
 21
-312.19300000000004
 31
0.0
  0
LINE
  5
2D4
330
17
100
AcDbEntity
  8
0
100
AcDbLine
 10
299.18199999999985
 20
-312.19300000000004
 30
0.0
 11
302.0629999999998
 21
-311.24000000000007
 31
0.0
  0
LINE
  5
2D5
330
17
100
AcDbEntity
  8
0
100
AcDbLine
 10
302.0629999999998
 20
-311.24000000000007
 30
0.0
 11
305.24499999999983
 21
-310.62300000000005
 31
0.0
  0
LINE
  5
2D6
330
17
100
AcDbEntity
  8
0
100
AcDbLine
 10
125.29399999999984
 20
-272.8430000000001
 30
0.0
 11
104.40999999999984
 21
-272.80800000000005
 31
0.0
  0
LINE
  5
2D7
330
17
100
AcDbEntity
  8
0
100
AcDbLine
 10
104.40999999999984
 20
-272.80800000000005
 30
0.0
 11
103.41399999999985
 21
-272.70200000000006
 31
0.0
  0
LINE
  5
2D8
330
17
100
AcDbEntity
  8
0
100
AcDbLine
 10
103.41399999999985
 20
-272.70200000000006
 30
0.0
 11
102.43099999999984
 21
-272.5230000000001
 31
0.0
  0
LINE
  5
2D9
330
17
100
AcDbEntity
  8
0
100
AcDbLine
 10
102.43099999999984
 20
-272.5230000000001
 30
0.0
 11
101.46699999999984
 21
-272.2700000000001
 31
0.0
  0
LINE
  5
2DA
330
17
100
AcDbEntity
  8
0
100
AcDbLine
 10
101.46699999999984
 20
-272.2700000000001
 30
0.0
 11
100.52799999999985
 21
-271.9410000000001
 31
0.0
  0
LINE
  5
2DB
330
17
100
AcDbEntity
  8
0
100
AcDbLine
 10
100.52799999999985
 20
-271.9410000000001
 30
0.0
 11
99.62099999999985
 21
-271.5350000000001
 31
0.0
  0
LINE
  5
2DC
330
17
100
AcDbEntity
  8
0
100
AcDbLine
 10
99.62099999999985
 20
-271.5350000000001
 30
0.0
 11
98.75099999999985
 21
-271.0510000000001
 31
0.0
  0
LINE
  5
2DD
330
17
100
AcDbEntity
  8
0
100
AcDbLine
 10
98.75099999999985
 20
-271.0510000000001
 30
0.0
 11
97.14399999999985
 21
-269.9700000000001
 31
0.0
  0
LINE
  5
2DE
330
17
100
AcDbEntity
  8
0
100
AcDbLine
 10
97.14399999999985
 20
-269.9700000000001
 30
0.0
 11
96.12199999999984
 21
-269.4340000000001
 31
0.0
  0
LINE
  5
2DF
330
17
100
AcDbEntity
  8
0
100
AcDbLine
 10
96.12199999999984
 20
-269.4340000000001
 30
0.0
 11
94.82999999999984
 21
-268.8900000000001
 31
0.0
  0
LINE
  5
2E0
330
17
100
AcDbEntity
  8
0
100
AcDbLine
 10
94.82999999999984
 20
-268.8900000000001
 30
0.0
 11
91.31699999999984
 21
-267.8170000000001
 31
0.0
  0
LINE
  5
2E1
330
17
100
AcDbEntity
  8
0
100
AcDbLine
 10
91.31699999999984
 20
-267.8170000000001
 30
0.0
 11
86.37099999999984
 21
-266.8340000000001
 31
0.0
  0
LINE
  5
2E2
330
17
100
AcDbEntity
  8
0
100
AcDbLine
 10
86.37099999999984
 20
-266.8340000000001
 30
0.0
 11
71.24499999999983
 21
-265.4650000000001
 31
0.0
  0
LINE
  5
2E3
330
17
100
AcDbEntity
  8
0
100
AcDbLine
 10
71.24499999999983
 20
-265.4650000000001
 30
0.0
 11
39.96299999999984
 21
-265.7310000000001
 31
0.0
  0
LINE
  5
2E4
330
17
100
AcDbEntity
  8
0
100
AcDbLine
 10
39.96299999999984
 20
-265.7310000000001
 30
0.0
 11
39.81999999999984
 21
-265.7580000000001
 31
0.0
  0
LINE
  5
2E5
330
17
100
AcDbEntity
  8
0
100
AcDbLine
 10
39.81999999999984
 20
-265.7580000000001
 30
0.0
 11
39.68199999999984
 21
-265.7990000000001
 31
0.0
  0
LINE
  5
2E6
330
17
100
AcDbEntity
  8
0
100
AcDbLine
 10
39.68199999999984
 20
-265.7990000000001
 30
0.0
 11
39.548999999999836
 21
-265.8520000000001
 31
0.0
  0
LINE
  5
2E7
330
17
100
AcDbEntity
  8
0
100
AcDbLine
 10
39.548999999999836
 20
-265.8520000000001
 30
0.0
 11
39.42299999999984
 21
-265.9170000000001
 31
0.0
  0
LINE
  5
2E8
330
17
100
AcDbEntity
  8
0
100
AcDbLine
 10
39.42299999999984
 20
-265.9170000000001
 30
0.0
 11
39.30399999999984
 21
-265.9930000000001
 31
0.0
  0
LINE
  5
2E9
330
17
100
AcDbEntity
  8
0
100
AcDbLine
 10
39.30399999999984
 20
-265.9930000000001
 30
0.0
 11
39.19299999999984
 21
-266.0790000000001
 31
0.0
  0
LINE
  5
2EA
330
17
100
AcDbEntity
  8
0
100
AcDbLine
 10
39.19299999999984
 20
-266.0790000000001
 30
0.0
 11
39.08999999999984
 21
-266.1750000000001
 31
0.0
  0
LINE
  5
2EB
330
17
100
AcDbEntity
  8
0
100
AcDbLine
 10
39.08999999999984
 20
-266.1750000000001
 30
0.0
 11
38.99599999999984
 21
-266.2790000000001
 31
0.0
  0
LINE
  5
2EC
330
17
100
AcDbEntity
  8
0
100
AcDbLine
 10
38.99599999999984
 20
-266.2790000000001
 30
0.0
 11
38.911999999999836
 21
-266.3920000000001
 31
0.0
  0
LINE
  5
2ED
330
17
100
AcDbEntity
  8
0
100
AcDbLine
 10
38.911999999999836
 20
-266.3920000000001
 30
0.0
 11
38.838999999999835
 21
-266.5120000000001
 31
0.0
  0
LINE
  5
2EE
330
17
100
AcDbEntity
  8
0
100
AcDbLine
 10
38.838999999999835
 20
-266.5120000000001
 30
0.0
 11
38.77699999999984
 21
-266.6390000000001
 31
0.0
  0
LINE
  5
2EF
330
17
100
AcDbEntity
  8
0
100
AcDbLine
 10
38.77699999999984
 20
-266.6390000000001
 30
0.0
 11
38.72699999999984
 21
-266.7720000000001
 31
0.0
  0
LINE
  5
2F0
330
17
100
AcDbEntity
  8
0
100
AcDbLine
 10
38.72699999999984
 20
-266.7720000000001
 30
0.0
 11
38.68999999999984
 21
-266.9110000000001
 31
0.0
  0
LINE
  5
2F1
330
17
100
AcDbEntity
  8
0
100
AcDbLine
 10
38.68999999999984
 20
-266.9110000000001
 30
0.0
 11
38.66599999999984
 21
-267.0550000000001
 31
0.0
  0
LINE
  5
2F2
330
17
100
AcDbEntity
  8
0
100
AcDbLine
 10
38.66599999999984
 20
-267.0550000000001
 30
0.0
 11
38.66699999999984
 21
-286.7940000000001
 31
0.0
  0
LINE
  5
2F3
330
17
100
AcDbEntity
  8
0
100
AcDbLine
 10
38.66699999999984
 20
-286.7940000000001
 30
0.0
 11
38.70699999999984
 21
-287.0920000000001
 31
0.0
  0
LINE
  5
2F4
330
17
100
AcDbEntity
  8
0
100
AcDbLine
 10
38.70699999999984
 20
-287.0920000000001
 30
0.0
 11
38.77599999999984
 21
-287.3790000000001
 31
0.0
  0
LINE
  5
2F5
330
17
100
AcDbEntity
  8
0
100
AcDbLine
 10
38.77599999999984
 20
-287.3790000000001
 30
0.0
 11
38.87299999999984
 21
-287.6550000000001
 31
0.0
  0
LINE
  5
2F6
330
17
100
AcDbEntity
  8
0
100
AcDbLine
 10
38.87299999999984
 20
-287.6550000000001
 30
0.0
 11
38.99499999999984
 21
-287.91800000000006
 31
0.0
  0
LINE
  5
2F7
330
17
100
AcDbEntity
  8
0
100
AcDbLine
 10
38.99499999999984
 20
-287.91800000000006
 30
0.0
 11
39.14199999999984
 21
-288.16600000000005
 31
0.0
  0
LINE
  5
2F8
330
17
100
AcDbEntity
  8
0
100
AcDbLine
 10
39.14199999999984
 20
-288.16600000000005
 30
0.0
 11
39.31199999999984
 21
-288.3980000000001
 31
0.0
  0
LINE
  5
2F9
330
17
100
AcDbEntity
  8
0
100
AcDbLine
 10
39.31199999999984
 20
-288.3980000000001
 30
0.0
 11
39.502999999999844
 21
-288.6120000000001
 31
0.0
  0
LINE
  5
2FA
330
17
100
AcDbEntity
  8
0
100
AcDbLine
 10
39.502999999999844
 20
-288.6120000000001
 30
0.0
 11
39.712999999999845
 21
-288.8070000000001
 31
0.0
  0
LINE
  5
2FB
330
17
100
AcDbEntity
  8
0
100
AcDbLine
 10
39.712999999999845
 20
-288.8070000000001
 30
0.0
 11
39.941999999999844
 21
-288.98100000000005
 31
0.0
  0
LINE
  5
2FC
330
17
100
AcDbEntity
  8
0
100
AcDbLine
 10
39.941999999999844
 20
-288.98100000000005
 30
0.0
 11
40.18699999999984
 21
-289.13200000000006
 31
0.0
  0
LINE
  5
2FD
330
17
100
AcDbEntity
  8
0
100
AcDbLine
 10
40.18699999999984
 20
-289.13200000000006
 30
0.0
 11
40.44699999999984
 21
-289.25900000000007
 31
0.0
  0
LINE
  5
2FE
330
17
100
AcDbEntity
  8
0
100
AcDbLine
 10
40.44699999999984
 20
-289.25900000000007
 30
0.0
 11
40.72099999999984
 21
-289.36100000000005
 31
0.0
  0
LINE
  5
2FF
330
17
100
AcDbEntity
  8
0
100
AcDbLine
 10
40.72099999999984
 20
-289.36100000000005
 30
0.0
 11
41.00699999999984
 21
-289.43500000000006
 31
0.0
  0
LINE
  5
300
330
17
100
AcDbEntity
  8
0
100
AcDbLine
 10
41.00699999999984
 20
-289.43500000000006
 30
0.0
 11
41.30399999999984
 21
-289.48100000000005
 31
0.0
  0
LINE
  5
301
330
17
100
AcDbEntity
  8
0
100
AcDbLine
 10
41.30399999999984
 20
-289.48100000000005
 30
0.0
 11
125.47099999999983
 21
-289.48800000000006
 31
0.0
  0
LINE
  5
302
330
17
100
AcDbEntity
  8
0
100
AcDbLine
 10
125.47099999999983
 20
-289.48800000000006
 30
0.0
 11
125.64399999999983
 21
-289.46200000000005
 31
0.0
  0
LINE
  5
303
330
17
100
AcDbEntity
  8
0
100
AcDbLine
 10
125.64399999999983
 20
-289.46200000000005
 30
0.0
 11
125.81099999999984
 21
-289.41900000000004
 31
0.0
  0
LINE
  5
304
330
17
100
AcDbEntity
  8
0
100
AcDbLine
 10
125.81099999999984
 20
-289.41900000000004
 30
0.0
 11
125.97099999999983
 21
-289.36
 31
0.0
  0
LINE
  5
305
330
17
100
AcDbEntity
  8
0
100
AcDbLine
 10
125.97099999999983
 20
-289.36
 30
0.0
 11
126.12299999999983
 21
-289.28700000000003
 31
0.0
  0
LINE
  5
306
330
17
100
AcDbEntity
  8
0
100
AcDbLine
 10
126.12299999999983
 20
-289.28700000000003
 30
0.0
 11
126.26699999999984
 21
-289.20000000000005
 31
0.0
  0
LINE
  5
307
330
17
100
AcDbEntity
  8
0
100
AcDbLine
 10
126.26699999999984
 20
-289.20000000000005
 30
0.0
 11
126.40099999999984
 21
-289.1
 31
0.0
  0
LINE
  5
308
330
17
100
AcDbEntity
  8
0
100
AcDbLine
 10
126.40099999999984
 20
-289.1
 30
0.0
 11
126.52499999999984
 21
-288.988
 31
0.0
  0
LINE
  5
309
330
17
100
AcDbEntity
  8
0
100
AcDbLine
 10
126.52499999999984
 20
-288.988
 30
0.0
 11
126.63699999999983
 21
-288.864
 31
0.0
  0
LINE
  5
30A
330
17
100
AcDbEntity
  8
0
100
AcDbLine
 10
126.63699999999983
 20
-288.864
 30
0.0
 11
126.73699999999982
 21
-288.72999999999996
 31
0.0
  0
LINE
  5
30B
330
17
100
AcDbEntity
  8
0
100
AcDbLine
 10
126.73699999999982
 20
-288.72999999999996
 30
0.0
 11
126.82399999999983
 21
-288.58599999999996
 31
0.0
  0
LINE
  5
30C
330
17
100
AcDbEntity
  8
0
100
AcDbLine
 10
126.82399999999983
 20
-288.58599999999996
 30
0.0
 11
126.89699999999982
 21
-288.43399999999997
 31
0.0
  0
LINE
  5
30D
330
17
100
AcDbEntity
  8
0
100
AcDbLine
 10
126.89699999999982
 20
-288.43399999999997
 30
0.0
 11
126.95599999999982
 21
-288.27399999999994
 31
0.0
  0
LINE
  5
30E
330
17
100
AcDbEntity
  8
0
100
AcDbLine
 10
126.95599999999982
 20
-288.27399999999994
 30
0.0
 11
126.99899999999982
 21
-288.10699999999997
 31
0.0
  0
LINE
  5
30F
330
17
100
AcDbEntity
  8
0
100
AcDbLine
 10
126.99899999999982
 20
-288.10699999999997
 30
0.0
 11
127.02499999999982
 21
-287.93399999999997
 31
0.0
  0
LINE
  5
310
330
17
100
AcDbEntity
  8
0
100
AcDbLine
 10
127.02499999999982
 20
-287.93399999999997
 30
0.0
 11
127.02499999999982
 21
-274.40999999999997
 31
0.0
  0
LINE
  5
311
330
17
100
AcDbEntity
  8
0
100
AcDbLine
 10
127.02499999999982
 20
-274.40999999999997
 30
0.0
 11
126.99899999999982
 21
-274.23699999999997
 31
0.0
  0
LINE
  5
312
330
17
100
AcDbEntity
  8
0
100
AcDbLine
 10
126.99899999999982
 20
-274.23699999999997
 30
0.0
 11
126.95599999999982
 21
-274.07
 31
0.0
  0
LINE
  5
313
330
17
100
AcDbEntity
  8
0
100
AcDbLine
 10
126.95599999999982
 20
-274.07
 30
0.0
 11
126.89699999999982
 21
-273.90999999999997
 31
0.0
  0
LINE
  5
314
330
17
100
AcDbEntity
  8
0
100
AcDbLine
 10
126.89699999999982
 20
-273.90999999999997
 30
0.0
 11
126.82399999999983
 21
-273.758
 31
0.0
  0
LINE
  5
315
330
17
100
AcDbEntity
  8
0
100
AcDbLine
 10
126.82399999999983
 20
-273.758
 30
0.0
 11
126.73699999999982
 21
-273.614
 31
0.0
  0
LINE
  5
316
330
17
100
AcDbEntity
  8
0
100
AcDbLine
 10
126.73699999999982
 20
-273.614
 30
0.0
 11
126.63699999999983
 21
-273.47999999999996
 31
0.0
  0
LINE
  5
317
330
17
100
AcDbEntity
  8
0
100
AcDbLine
 10
126.63699999999983
 20
-273.47999999999996
 30
0.0
 11
126.52499999999984
 21
-273.35599999999994
 31
0.0
  0
LINE
  5
318
330
17
100
AcDbEntity
  8
0
100
AcDbLine
 10
126.52499999999984
 20
-273.35599999999994
 30
0.0
 11
126.40099999999984
 21
-273.2439999999999
 31
0.0
  0
LINE
  5
319
330
17
100
AcDbEntity
  8
0
100
AcDbLine
 10
126.40099999999984
 20
-273.2439999999999
 30
0.0
 11
126.26699999999984
 21
-273.1439999999999
 31
0.0
  0
LINE
  5
31A
330
17
100
AcDbEntity
  8
0
100
AcDbLine
 10
126.26699999999984
 20
-273.1439999999999
 30
0.0
 11
126.12299999999983
 21
-273.0569999999999
 31
0.0
  0
LINE
  5
31B
330
17
100
AcDbEntity
  8
0
100
AcDbLine
 10
126.12299999999983
 20
-273.0569999999999
 30
0.0
 11
125.97099999999983
 21
-272.9839999999999
 31
0.0
  0
LINE
  5
31C
330
17
100
AcDbEntity
  8
0
100
AcDbLine
 10
125.97099999999983
 20
-272.9839999999999
 30
0.0
 11
125.81099999999984
 21
-272.9249999999999
 31
0.0
  0
LINE
  5
31D
330
17
100
AcDbEntity
  8
0
100
AcDbLine
 10
125.81099999999984
 20
-272.9249999999999
 30
0.0
 11
125.64399999999983
 21
-272.8819999999999
 31
0.0
  0
LINE
  5
31E
330
17
100
AcDbEntity
  8
0
100
AcDbLine
 10
125.64399999999983
 20
-272.8819999999999
 30
0.0
 11
125.47099999999983
 21
-272.8559999999999
 31
0.0
  0
LINE
  5
31F
330
17
100
AcDbEntity
  8
0
100
AcDbLine
 10
125.47099999999983
 20
-272.8559999999999
 30
0.0
 11
125.29299999999984
 21
-272.84699999999987
 31
0.0
  0
LINE
  5
320
330
17
100
AcDbEntity
  8
0
100
AcDbLine
 10
343.86499999999984
 20
-321.04899999999986
 30
0.0
 11
344.85199999999986
 21
-322.3899999999999
 31
0.0
  0
LINE
  5
321
330
17
100
AcDbEntity
  8
0
100
AcDbLine
 10
344.85199999999986
 20
-322.3899999999999
 30
0.0
 11
345.84499999999986
 21
-323.97499999999985
 31
0.0
  0
LINE
  5
322
330
17
100
AcDbEntity
  8
0
100
AcDbLine
 10
345.84499999999986
 20
-323.97499999999985
 30
0.0
 11
347.72299999999984
 21
-327.83499999999987
 31
0.0
  0
LINE
  5
323
330
17
100
AcDbEntity
  8
0
100
AcDbLine
 10
347.72299999999984
 20
-327.83499999999987
 30
0.0
 11
348.5459999999998
 21
-330.0889999999999
 31
0.0
  0
LINE
  5
324
330
17
100
AcDbEntity
  8
0
100
AcDbLine
 10
348.5459999999998
 20
-330.0889999999999
 30
0.0
 11
349.24999999999983
 21
-332.5459999999999
 31
0.0
  0
LINE
  5
325
330
17
100
AcDbEntity
  8
0
100
AcDbLine
 10
349.24999999999983
 20
-332.5459999999999
 30
0.0
 11
349.8039999999998
 21
-335.19599999999986
 31
0.0
  0
LINE
  5
326
330
17
100
AcDbEntity
  8
0
100
AcDbLine
 10
349.8039999999998
 20
-335.19599999999986
 30
0.0
 11
350.1759999999998
 21
-338.02799999999985
 31
0.0
  0
LINE
  5
327
330
17
100
AcDbEntity
  8
0
100
AcDbLine
 10
350.1759999999998
 20
-338.02799999999985
 30
0.0
 11
350.33599999999984
 21
-341.03299999999984
 31
0.0
  0
LINE
  5
328
330
17
100
AcDbEntity
  8
0
100
AcDbLine
 10
350.33599999999984
 20
-341.03299999999984
 30
0.0
 11
350.25199999999984
 21
-344.1999999999998
 31
0.0
  0
LINE
  5
329
330
17
100
AcDbEntity
  8
0
100
AcDbLine
 10
350.25199999999984
 20
-344.1999999999998
 30
0.0
 11
349.89299999999986
 21
-347.51899999999983
 31
0.0
  0
LINE
  5
32A
330
17
100
AcDbEntity
  8
0
100
AcDbLine
 10
349.89299999999986
 20
-347.51899999999983
 30
0.0
 11
349.22799999999984
 21
-350.97999999999985
 31
0.0
  0
LINE
  5
32B
330
17
100
AcDbEntity
  8
0
100
AcDbLine
 10
349.22799999999984
 20
-350.97999999999985
 30
0.0
 11
348.22499999999985
 21
-354.57299999999987
 31
0.0
  0
LINE
  5
32C
330
17
100
AcDbEntity
  8
0
100
AcDbLine
 10
348.22499999999985
 20
-354.57299999999987
 30
0.0
 11
346.85399999999987
 21
-358.28799999999984
 31
0.0
  0
LINE
  5
32D
330
17
100
AcDbEntity
  8
0
100
AcDbLine
 10
346.85399999999987
 20
-358.28799999999984
 30
0.0
 11
345.08299999999986
 21
-362.11399999999986
 31
0.0
  0
LINE
  5
32E
330
17
100
AcDbEntity
  8
0
100
AcDbLine
 10
345.08299999999986
 20
-362.11399999999986
 30
0.0
 11
342.7889999999999
 21
-366.20499999999987
 31
0.0
  0
LINE
  5
32F
330
17
100
AcDbEntity
  8
0
100
AcDbLine
 10
342.7889999999999
 20
-366.20499999999987
 30
0.0
 11
342.7109999999999
 21
-366.37099999999987
 31
0.0
  0
LINE
  5
330
330
17
100
AcDbEntity
  8
0
100
AcDbLine
 10
342.7109999999999
 20
-366.37099999999987
 30
0.0
 11
342.6469999999999
 21
-366.5389999999999
 31
0.0
  0
LINE
  5
331
330
17
100
AcDbEntity
  8
0
100
AcDbLine
 10
342.6469999999999
 20
-366.5389999999999
 30
0.0
 11
342.5959999999999
 21
-366.70799999999986
 31
0.0
  0
LINE
  5
332
330
17
100
AcDbEntity
  8
0
100
AcDbLine
 10
342.5959999999999
 20
-366.70799999999986
 30
0.0
 11
342.5589999999999
 21
-366.8779999999999
 31
0.0
  0
LINE
  5
333
330
17
100
AcDbEntity
  8
0
100
AcDbLine
 10
342.5589999999999
 20
-366.8779999999999
 30
0.0
 11
342.53399999999993
 21
-367.04899999999986
 31
0.0
  0
LINE
  5
334
330
17
100
AcDbEntity
  8
0
100
AcDbLine
 10
342.53399999999993
 20
-367.04899999999986
 30
0.0
 11
342.52199999999993
 21
-367.2189999999999
 31
0.0
  0
LINE
  5
335
330
17
100
AcDbEntity
  8
0
100
AcDbLine
 10
342.52199999999993
 20
-367.2189999999999
 30
0.0
 11
342.53299999999996
 21
-367.5579999999999
 31
0.0
  0
LINE
  5
336
330
17
100
AcDbEntity
  8
0
100
AcDbLine
 10
342.53299999999996
 20
-367.5579999999999
 30
0.0
 11
342.59
 21
-367.8899999999999
 31
0.0
  0
LINE
  5
337
330
17
100
AcDbEntity
  8
0
100
AcDbLine
 10
342.59
 20
-367.8899999999999
 30
0.0
 11
342.69
 21
-368.2119999999999
 31
0.0
  0
LINE
  5
338
330
17
100
AcDbEntity
  8
0
100
AcDbLine
 10
342.69
 20
-368.2119999999999
 30
0.0
 11
342.83
 21
-368.5189999999999
 31
0.0
  0
LINE
  5
339
330
17
100
AcDbEntity
  8
0
100
AcDbLine
 10
342.83
 20
-368.5189999999999
 30
0.0
 11
343.008
 21
-368.8079999999999
 31
0.0
  0
LINE
  5
33A
330
17
100
AcDbEntity
  8
0
100
AcDbLine
 10
343.008
 20
-368.8079999999999
 30
0.0
 11
343.21999999999997
 21
-369.0749999999999
 31
0.0
  0
LINE
  5
33B
330
17
100
AcDbEntity
  8
0
100
AcDbLine
 10
343.21999999999997
 20
-369.0749999999999
 30
0.0
 11
343.465
 21
-369.31599999999986
 31
0.0
  0
LINE
  5
33C
330
17
100
AcDbEntity
  8
0
100
AcDbLine
 10
343.465
 20
-369.31599999999986
 30
0.0
 11
343.739
 21
-369.52599999999984
 31
0.0
  0
LINE
  5
33D
330
17
100
AcDbEntity
  8
0
100
AcDbLine
 10
343.739
 20
-369.52599999999984
 30
0.0
 11
344.03999999999996
 21
-369.7019999999998
 31
0.0
  0
LINE
  5
33E
330
17
100
AcDbEntity
  8
0
100
AcDbLine
 10
344.03999999999996
 20
-369.7019999999998
 30
0.0
 11
344.36499999999995
 21
-369.8399999999998
 31
0.0
  0
LINE
  5
33F
330
17
100
AcDbEntity
  8
0
100
AcDbLine
 10
344.36499999999995
 20
-369.8399999999998
 30
0.0
 11
344.71099999999996
 21
-369.9359999999998
 31
0.0
  0
LINE
  5
340
330
17
100
AcDbEntity
  8
0
100
AcDbLine
 10
344.71099999999996
 20
-369.9359999999998
 30
0.0
 11
345.07499999999993
 21
-369.9859999999998
 31
0.0
  0
LINE
  5
341
330
17
100
AcDbEntity
  8
0
100
AcDbLine
 10
345.07499999999993
 20
-369.9859999999998
 30
0.0
 11
356.8569999999999
 21
-369.9919999999998
 31
0.0
  0
LINE
  5
342
330
17
100
AcDbEntity
  8
0
100
AcDbLine
 10
356.8569999999999
 20
-369.9919999999998
 30
0.0
 11
358.0779999999999
 21
-369.0789999999998
 31
0.0
  0
LINE
  5
343
330
17
100
AcDbEntity
  8
0
100
AcDbLine
 10
358.0779999999999
 20
-369.0789999999998
 30
0.0
 11
361.12999999999994
 21
-366.3769999999998
 31
0.0
  0
LINE
  5
344
330
17
100
AcDbEntity
  8
0
100
AcDbLine
 10
361.12999999999994
 20
-366.3769999999998
 30
0.0
 11
365.09399999999994
 21
-361.9439999999998
 31
0.0
  0
LINE
  5
345
330
17
100
AcDbEntity
  8
0
100
AcDbLine
 10
365.09399999999994
 20
-361.9439999999998
 30
0.0
 11
367.1309999999999
 21
-359.0959999999998
 31
0.0
  0
LINE
  5
346
330
17
100
AcDbEntity
  8
0
100
AcDbLine
 10
367.1309999999999
 20
-359.0959999999998
 30
0.0
 11
369.05099999999993
 21
-355.83699999999976
 31
0.0
  0
LINE
  5
347
330
17
100
AcDbEntity
  8
0
100
AcDbLine
 10
369.05099999999993
 20
-355.83699999999976
 30
0.0
 11
370.6289999999999
 21
-352.31099999999975
 31
0.0
  0
LINE
  5
348
330
17
100
AcDbEntity
  8
0
100
AcDbLine
 10
370.6289999999999
 20
-352.31099999999975
 30
0.0
 11
371.7379999999999
 21
-348.64699999999976
 31
0.0
  0
LINE
  5
349
330
17
100
AcDbEntity
  8
0
100
AcDbLine
 10
371.7379999999999
 20
-348.64699999999976
 30
0.0
 11
372.3769999999999
 21
-344.8939999999998
 31
0.0
  0
LINE
  5
34A
330
17
100
AcDbEntity
  8
0
100
AcDbLine
 10
372.3769999999999
 20
-344.8939999999998
 30
0.0
 11
372.5449999999999
 21
-341.1009999999998
 31
0.0
  0
LINE
  5
34B
330
17
100
AcDbEntity
  8
0
100
AcDbLine
 10
372.5449999999999
 20
-341.1009999999998
 30
0.0
 11
372.2419999999999
 21
-337.31799999999976
 31
0.0
  0
LINE
  5
34C
330
17
100
AcDbEntity
  8
0
100
AcDbLine
 10
372.2419999999999
 20
-337.31799999999976
 30
0.0
 11
371.4669999999999
 21
-333.59499999999974
 31
0.0
  0
LINE
  5
34D
330
17
100
AcDbEntity
  8
0
100
AcDbLine
 10
371.4669999999999
 20
-333.59499999999974
 30
0.0
 11
370.2199999999999
 21
-329.98099999999977
 31
0.0
  0
LINE
  5
34E
330
17
100
AcDbEntity
  8
0
100
AcDbLine
 10
370.2199999999999
 20
-329.98099999999977
 30
0.0
 11
368.4999999999999
 21
-326.52499999999975
 31
0.0
  0
LINE
  5
34F
330
17
100
AcDbEntity
  8
0
100
AcDbLine
 10
368.4999999999999
 20
-326.52499999999975
 30
0.0
 11
366.6589999999999
 21
-323.76499999999976
 31
0.0
  0
LINE
  5
350
330
17
100
AcDbEntity
  8
0
100
AcDbLine
 10
366.6589999999999
 20
-323.76499999999976
 30
0.0
 11
365.5959999999999
 21
-322.48199999999974
 31
0.0
  0
LINE
  5
351
330
17
100
AcDbEntity
  8
0
100
AcDbLine
 10
365.5959999999999
 20
-322.48199999999974
 30
0.0
 11
364.4329999999999
 21
-321.29099999999977
 31
0.0
  0
LINE
  5
352
330
17
100
AcDbEntity
  8
0
100
AcDbLine
 10
364.4329999999999
 20
-321.29099999999977
 30
0.0
 11
363.1659999999999
 21
-320.2129999999998
 31
0.0
  0
LINE
  5
353
330
17
100
AcDbEntity
  8
0
100
AcDbLine
 10
363.1659999999999
 20
-320.2129999999998
 30
0.0
 11
361.7909999999999
 21
-319.2679999999998
 31
0.0
  0
LINE
  5
354
330
17
100
AcDbEntity
  8
0
100
AcDbLine
 10
361.7909999999999
 20
-319.2679999999998
 30
0.0
 11
360.30399999999986
 21
-318.4769999999998
 31
0.0
  0
LINE
  5
355
330
17
100
AcDbEntity
  8
0
100
AcDbLine
 10
360.30399999999986
 20
-318.4769999999998
 30
0.0
 11
358.7019999999999
 21
-317.8599999999998
 31
0.0
  0
LINE
  5
356
330
17
100
AcDbEntity
  8
0
100
AcDbLine
 10
358.7019999999999
 20
-317.8599999999998
 30
0.0
 11
345.6229999999999
 21
-317.2749999999998
 31
0.0
  0
LINE
  5
357
330
17
100
AcDbEntity
  8
0
100
AcDbLine
 10
345.6229999999999
 20
-317.2749999999998
 30
0.0
 11
345.44299999999987
 21
-317.2869999999998
 31
0.0
  0
LINE
  5
358
330
17
100
AcDbEntity
  8
0
100
AcDbLine
 10
345.44299999999987
 20
-317.2869999999998
 30
0.0
 11
345.26799999999986
 21
-317.3119999999998
 31
0.0
  0
LINE
  5
359
330
17
100
AcDbEntity
  8
0
100
AcDbLine
 10
345.26799999999986
 20
-317.3119999999998
 30
0.0
 11
345.0989999999999
 21
-317.34899999999976
 31
0.0
  0
LINE
  5
35A
330
17
100
AcDbEntity
  8
0
100
AcDbLine
 10
345.0989999999999
 20
-317.34899999999976
 30
0.0
 11
344.93599999999986
 21
-317.39799999999974
 31
0.0
  0
LINE
  5
35B
330
17
100
AcDbEntity
  8
0
100
AcDbLine
 10
344.93599999999986
 20
-317.39799999999974
 30
0.0
 11
344.7789999999999
 21
-317.45799999999974
 31
0.0
  0
LINE
  5
35C
330
17
100
AcDbEntity
  8
0
100
AcDbLine
 10
344.7789999999999
 20
-317.45799999999974
 30
0.0
 11
344.6289999999999
 21
-317.52799999999974
 31
0.0
  0
LINE
  5
35D
330
17
100
AcDbEntity
  8
0
100
AcDbLine
 10
344.6289999999999
 20
-317.52799999999974
 30
0.0
 11
344.4849999999999
 21
-317.6079999999997
 31
0.0
  0
LINE
  5
35E
330
17
100
AcDbEntity
  8
0
100
AcDbLine
 10
344.4849999999999
 20
-317.6079999999997
 30
0.0
 11
344.3489999999999
 21
-317.6979999999997
 31
0.0
  0
LINE
  5
35F
330
17
100
AcDbEntity
  8
0
100
AcDbLine
 10
344.3489999999999
 20
-317.6979999999997
 30
0.0
 11
344.0989999999999
 21
-317.9039999999997
 31
0.0
  0
LINE
  5
360
330
17
100
AcDbEntity
  8
0
100
AcDbLine
 10
344.0989999999999
 20
-317.9039999999997
 30
0.0
 11
343.88099999999986
 21
-318.14099999999974
 31
0.0
  0
LINE
  5
361
330
17
100
AcDbEntity
  8
0
100
AcDbLine
 10
343.88099999999986
 20
-318.14099999999974
 30
0.0
 11
343.69699999999983
 21
-318.4039999999997
 31
0.0
  0
LINE
  5
362
330
17
100
AcDbEntity
  8
0
100
AcDbLine
 10
343.69699999999983
 20
-318.4039999999997
 30
0.0
 11
343.54999999999984
 21
-318.6879999999997
 31
0.0
  0
LINE
  5
363
330
17
100
AcDbEntity
  8
0
100
AcDbLine
 10
343.54999999999984
 20
-318.6879999999997
 30
0.0
 11
343.44199999999984
 21
-318.9899999999997
 31
0.0
  0
LINE
  5
364
330
17
100
AcDbEntity
  8
0
100
AcDbLine
 10
343.44199999999984
 20
-318.9899999999997
 30
0.0
 11
343.37599999999986
 21
-319.30399999999975
 31
0.0
  0
LINE
  5
365
330
17
100
AcDbEntity
  8
0
100
AcDbLine
 10
343.37599999999986
 20
-319.30399999999975
 30
0.0
 11
343.35899999999987
 21
-319.46399999999977
 31
0.0
  0
LINE
  5
366
330
17
100
AcDbEntity
  8
0
100
AcDbLine
 10
343.35899999999987
 20
-319.46399999999977
 30
0.0
 11
343.35399999999987
 21
-319.62599999999975
 31
0.0
  0
LINE
  5
367
330
17
100
AcDbEntity
  8
0
100
AcDbLine
 10
343.35399999999987
 20
-319.62599999999975
 30
0.0
 11
343.35999999999984
 21
-319.7879999999997
 31
0.0
  0
LINE
  5
368
330
17
100
AcDbEntity
  8
0
100
AcDbLine
 10
343.35999999999984
 20
-319.7879999999997
 30
0.0
 11
343.3779999999998
 21
-319.95099999999974
 31
0.0
  0
LINE
  5
369
330
17
100
AcDbEntity
  8
0
100
AcDbLine
 10
343.3779999999998
 20
-319.95099999999974
 30
0.0
 11
343.4079999999998
 21
-320.1129999999997
 31
0.0
  0
LINE
  5
36A
330
17
100
AcDbEntity
  8
0
100
AcDbLine
 10
343.4079999999998
 20
-320.1129999999997
 30
0.0
 11
343.4509999999998
 21
-320.2749999999997
 31
0.0
  0
LINE
  5
36B
330
17
100
AcDbEntity
  8
0
100
AcDbLine
 10
343.4509999999998
 20
-320.2749999999997
 30
0.0
 11
343.5069999999998
 21
-320.4349999999997
 31
0.0
  0
LINE
  5
36C
330
17
100
AcDbEntity
  8
0
100
AcDbLine
 10
343.5069999999998
 20
-320.4349999999997
 30
0.0
 11
343.5759999999998
 21
-320.59299999999973
 31
0.0
  0
LINE
  5
36D
330
17
100
AcDbEntity
  8
0
100
AcDbLine
 10
343.5759999999998
 20
-320.59299999999973
 30
0.0
 11
343.6579999999998
 21
-320.7479999999997
 31
0.0
  0
LINE
  5
36E
330
17
100
AcDbEntity
  8
0
100
AcDbLine
 10
343.6579999999998
 20
-320.7479999999997
 30
0.0
 11
343.7539999999998
 21
-320.8999999999997
 31
0.0
  0
LINE
  5
36F
330
17
100
AcDbEntity
  8
0
100
AcDbLine
 10
343.7539999999998
 20
-320.8999999999997
 30
0.0
 11
343.8639999999998
 21
-321.0479999999997
 31
0.0
  0
LINE
  5
370
330
17
100
AcDbEntity
  8
0
100
AcDbLine
 10
357.1099999999998
 20
-374.5439999999997
 30
0.0
 11
362.49799999999976
 21
-370.7389999999997
 31
0.0
  0
LINE
  5
371
330
17
100
AcDbEntity
  8
0
100
AcDbLine
 10
362.49799999999976
 20
-370.7389999999997
 30
0.0
 11
367.22499999999974
 21
-366.5509999999997
 31
0.0
  0
LINE
  5
372
330
17
100
AcDbEntity
  8
0
100
AcDbLine
 10
367.22499999999974
 20
-366.5509999999997
 30
0.0
 11
369.51099999999974
 21
-364.0509999999997
 31
0.0
  0
LINE
  5
373
330
17
100
AcDbEntity
  8
0
100
AcDbLine
 10
369.51099999999974
 20
-364.0509999999997
 30
0.0
 11
371.52199999999976
 21
-361.3439999999997
 31
0.0
  0
LINE
  5
374
330
17
100
AcDbEntity
  8
0
100
AcDbLine
 10
371.52199999999976
 20
-361.3439999999997
 30
0.0
 11
371.66699999999975
 21
-362.9249999999997
 31
0.0
  0
LINE
  5
375
330
17
100
AcDbEntity
  8
0
100
AcDbLine
 10
371.66699999999975
 20
-362.9249999999997
 30
0.0
 11
372.41399999999976
 21
-366.71999999999974
 31
0.0
  0
LINE
  5
376
330
17
100
AcDbEntity
  8
0
100
AcDbLine
 10
372.41399999999976
 20
-366.71999999999974
 30
0.0
 11
373.15899999999976
 21
-369.00299999999976
 31
0.0
  0
LINE
  5
377
330
17
100
AcDbEntity
  8
0
100
AcDbLine
 10
373.15899999999976
 20
-369.00299999999976
 30
0.0
 11
374.2299999999998
 21
-371.30599999999976
 31
0.0
  0
LINE
  5
378
330
17
100
AcDbEntity
  8
0
100
AcDbLine
 10
374.2299999999998
 20
-371.30599999999976
 30
0.0
 11
374.9059999999998
 21
-372.40999999999974
 31
0.0
  0
LINE
  5
379
330
17
100
AcDbEntity
  8
0
100
AcDbLine
 10
374.9059999999998
 20
-372.40999999999974
 30
0.0
 11
375.6849999999998
 21
-373.4519999999997
 31
0.0
  0
LINE
  5
37A
330
17
100
AcDbEntity
  8
0
100
AcDbLine
 10
375.6849999999998
 20
-373.4519999999997
 30
0.0
 11
376.57499999999976
 21
-374.40999999999974
 31
0.0
  0
LINE
  5
37B
330
17
100
AcDbEntity
  8
0
100
AcDbLine
 10
376.57499999999976
 20
-374.40999999999974
 30
0.0
 11
377.58299999999974
 21
-375.2619999999997
 31
0.0
  0
LINE
  5
37C
330
17
100
AcDbEntity
  8
0
100
AcDbLine
 10
377.58299999999974
 20
-375.2619999999997
 30
0.0
 11
359.79499999999973
 21
-374.9739999999997
 31
0.0
  0
LINE
  5
37D
330
17
100
AcDbEntity
  8
0
100
AcDbLine
 10
359.79499999999973
 20
-374.9739999999997
 30
0.0
 11
357.1109999999997
 21
-374.5439999999997
 31
0.0
  0
LINE
  5
37E
330
17
100
AcDbEntity
  8
0
100
AcDbLine
 10
539.2029999999997
 20
-298.2699999999997
 30
0.0
 11
539.1059999999998
 21
-297.93699999999967
 31
0.0
  0
LINE
  5
37F
330
17
100
AcDbEntity
  8
0
100
AcDbLine
 10
539.1059999999998
 20
-297.93699999999967
 30
0.0
 11
538.9829999999997
 21
-297.61299999999966
 31
0.0
  0
LINE
  5
380
330
17
100
AcDbEntity
  8
0
100
AcDbLine
 10
538.9829999999997
 20
-297.61299999999966
 30
0.0
 11
538.8329999999997
 21
-297.29999999999967
 31
0.0
  0
LINE
  5
381
330
17
100
AcDbEntity
  8
0
100
AcDbLine
 10
538.8329999999997
 20
-297.29999999999967
 30
0.0
 11
538.6579999999998
 21
-297.0009999999997
 31
0.0
  0
LINE
  5
382
330
17
100
AcDbEntity
  8
0
100
AcDbLine
 10
538.6579999999998
 20
-297.0009999999997
 30
0.0
 11
538.4579999999997
 21
-296.7179999999997
 31
0.0
  0
LINE
  5
383
330
17
100
AcDbEntity
  8
0
100
AcDbLine
 10
538.4579999999997
 20
-296.7179999999997
 30
0.0
 11
538.2339999999997
 21
-296.45399999999967
 31
0.0
  0
LINE
  5
384
330
17
100
AcDbEntity
  8
0
100
AcDbLine
 10
538.2339999999997
 20
-296.45399999999967
 30
0.0
 11
537.9859999999996
 21
-296.2109999999997
 31
0.0
  0
LINE
  5
385
330
17
100
AcDbEntity
  8
0
100
AcDbLine
 10
537.9859999999996
 20
-296.2109999999997
 30
0.0
 11
537.7149999999997
 21
-295.99099999999964
 31
0.0
  0
LINE
  5
386
330
17
100
AcDbEntity
  8
0
100
AcDbLine
 10
537.7149999999997
 20
-295.99099999999964
 30
0.0
 11
537.4059999999997
 21
-295.78399999999965
 31
0.0
  0
LINE
  5
387
330
17
100
AcDbEntity
  8
0
100
AcDbLine
 10
537.4059999999997
 20
-295.78399999999965
 30
0.0
 11
536.7449999999998
 21
-295.44299999999964
 31
0.0
  0
LINE
  5
388
330
17
100
AcDbEntity
  8
0
100
AcDbLine
 10
536.7449999999998
 20
-295.44299999999964
 30
0.0
 11
517.6339999999998
 21
-290.10399999999964
 31
0.0
  0
LINE
  5
389
330
17
100
AcDbEntity
  8
0
100
AcDbLine
 10
517.6339999999998
 20
-290.10399999999964
 30
0.0
 11
517.6889999999997
 21
-290.37799999999964
 31
0.0
  0
LINE
  5
38A
330
17
100
AcDbEntity
  8
0
100
AcDbLine
 10
517.6889999999997
 20
-290.37799999999964
 30
0.0
 11
517.8639999999997
 21
-290.91399999999965
 31
0.0
  0
LINE
  5
38B
330
17
100
AcDbEntity
  8
0
100
AcDbLine
 10
517.8639999999997
 20
-290.91399999999965
 30
0.0
 11
518.8299999999997
 21
-292.98299999999966
 31
0.0
  0
LINE
  5
38C
330
17
100
AcDbEntity
  8
0
100
AcDbLine
 10
518.8299999999997
 20
-292.98299999999966
 30
0.0
 11
518.9119999999997
 21
-293.24299999999965
 31
0.0
  0
LINE
  5
38D
330
17
100
AcDbEntity
  8
0
100
AcDbLine
 10
518.9119999999997
 20
-293.24299999999965
 30
0.0
 11
518.9719999999996
 21
-293.50499999999965
 31
0.0
  0
LINE
  5
38E
330
17
100
AcDbEntity
  8
0
100
AcDbLine
 10
518.9719999999996
 20
-293.50499999999965
 30
0.0
 11
519.0059999999996
 21
-293.76999999999964
 31
0.0
  0
LINE
  5
38F
330
17
100
AcDbEntity
  8
0
100
AcDbLine
 10
519.0059999999996
 20
-293.76999999999964
 30
0.0
 11
519.0089999999997
 21
-294.03899999999965
 31
0.0
  0
LINE
  5
390
330
17
100
AcDbEntity
  8
0
100
AcDbLine
 10
519.0089999999997
 20
-294.03899999999965
 30
0.0
 11
518.9769999999996
 21
-294.31199999999967
 31
0.0
  0
LINE
  5
391
330
17
100
AcDbEntity
  8
0
100
AcDbLine
 10
518.9769999999996
 20
-294.31199999999967
 30
0.0
 11
518.9309999999996
 21
-294.5079999999997
 31
0.0
  0
LINE
  5
392
330
17
100
AcDbEntity
  8
0
100
AcDbLine
 10
518.9309999999996
 20
-294.5079999999997
 30
0.0
 11
518.8679999999996
 21
-294.69899999999967
 31
0.0
  0
LINE
  5
393
330
17
100
AcDbEntity
  8
0
100
AcDbLine
 10
518.8679999999996
 20
-294.69899999999967
 30
0.0
 11
518.6999999999996
 21
-295.0659999999997
 31
0.0
  0
LINE
  5
394
330
17
100
AcDbEntity
  8
0
100
AcDbLine
 10
518.6999999999996
 20
-295.0659999999997
 30
0.0
 11
513.3089999999996
 21
-303.0119999999997
 31
0.0
  0
LINE
  5
395
330
17
100
AcDbEntity
  8
0
100
AcDbLine
 10
513.3089999999996
 20
-303.0119999999997
 30
0.0
 11
512.9369999999997
 21
-303.40999999999974
 31
0.0
  0
LINE
  5
396
330
17
100
AcDbEntity
  8
0
100
AcDbLine
 10
512.9369999999997
 20
-303.40999999999974
 30
0.0
 11
512.5359999999997
 21
-303.76499999999976
 31
0.0
  0
LINE
  5
397
330
17
100
AcDbEntity
  8
0
100
AcDbLine
 10
512.5359999999997
 20
-303.76499999999976
 30
0.0
 11
512.1019999999997
 21
-304.06399999999974
 31
0.0
  0
LINE
  5
398
330
17
100
AcDbEntity
  8
0
100
AcDbLine
 10
512.1019999999997
 20
-304.06399999999974
 30
0.0
 11
511.87199999999973
 21
-304.18799999999976
 31
0.0
  0
LINE
  5
399
330
17
100
AcDbEntity
  8
0
100
AcDbLine
 10
511.87199999999973
 20
-304.18799999999976
 30
0.0
 11
511.6319999999997
 21
-304.2929999999998
 31
0.0
  0
LINE
  5
39A
330
17
100
AcDbEntity
  8
0
100
AcDbLine
 10
511.6319999999997
 20
-304.2929999999998
 30
0.0
 11
511.3819999999997
 21
-304.37799999999976
 31
0.0
  0
LINE
  5
39B
330
17
100
AcDbEntity
  8
0
100
AcDbLine
 10
511.3819999999997
 20
-304.37799999999976
 30
0.0
 11
511.1209999999997
 21
-304.44099999999975
 31
0.0
  0
LINE
  5
39C
330
17
100
AcDbEntity
  8
0
100
AcDbLine
 10
511.1209999999997
 20
-304.44099999999975
 30
0.0
 11
510.8579999999997
 21
-304.47899999999976
 31
0.0
  0
LINE
  5
39D
330
17
100
AcDbEntity
  8
0
100
AcDbLine
 10
510.8579999999997
 20
-304.47899999999976
 30
0.0
 11
510.5959999999997
 21
-304.49299999999977
 31
0.0
  0
LINE
  5
39E
330
17
100
AcDbEntity
  8
0
100
AcDbLine
 10
510.5959999999997
 20
-304.49299999999977
 30
0.0
 11
510.33599999999973
 21
-304.4849999999998
 31
0.0
  0
LINE
  5
39F
330
17
100
AcDbEntity
  8
0
100
AcDbLine
 10
510.33599999999973
 20
-304.4849999999998
 30
0.0
 11
510.0769999999997
 21
-304.4559999999998
 31
0.0
  0
LINE
  5
3A0
330
17
100
AcDbEntity
  8
0
100
AcDbLine
 10
510.0769999999997
 20
-304.4559999999998
 30
0.0
 11
509.5649999999997
 21
-304.34399999999977
 31
0.0
  0
LINE
  5
3A1
330
17
100
AcDbEntity
  8
0
100
AcDbLine
 10
509.5649999999997
 20
-304.34399999999977
 30
0.0
 11
509.0599999999997
 21
-304.17099999999976
 31
0.0
  0
LINE
  5
3A2
330
17
100
AcDbEntity
  8
0
100
AcDbLine
 10
509.0599999999997
 20
-304.17099999999976
 30
0.0
 11
503.7269999999997
 21
-301.2949999999998
 31
0.0
  0
LINE
  5
3A3
330
17
100
AcDbEntity
  8
0
100
AcDbLine
 10
503.7269999999997
 20
-301.2949999999998
 30
0.0
 11
500.1669999999997
 21
-299.7449999999998
 31
0.0
  0
LINE
  5
3A4
330
17
100
AcDbEntity
  8
0
100
AcDbLine
 10
500.1669999999997
 20
-299.7449999999998
 30
0.0
 11
496.48299999999966
 21
-298.5059999999998
 31
0.0
  0
LINE
  5
3A5
330
17
100
AcDbEntity
  8
0
100
AcDbLine
 10
496.48299999999966
 20
-298.5059999999998
 30
0.0
 11
492.70399999999967
 21
-297.5889999999998
 31
0.0
  0
LINE
  5
3A6
330
17
100
AcDbEntity
  8
0
100
AcDbLine
 10
492.70399999999967
 20
-297.5889999999998
 30
0.0
 11
493.56499999999966
 21
-298.4239999999998
 31
0.0
  0
LINE
  5
3A7
330
17
100
AcDbEntity
  8
0
100
AcDbLine
 10
493.56499999999966
 20
-298.4239999999998
 30
0.0
 11
494.32999999999964
 21
-299.3389999999998
 31
0.0
  0
LINE
  5
3A8
330
17
100
AcDbEntity
  8
0
100
AcDbLine
 10
494.32999999999964
 20
-299.3389999999998
 30
0.0
 11
495.00699999999966
 21
-300.32199999999983
 31
0.0
  0
LINE
  5
3A9
330
17
100
AcDbEntity
  8
0
100
AcDbLine
 10
495.00699999999966
 20
-300.32199999999983
 30
0.0
 11
495.60399999999964
 21
-301.3609999999998
 31
0.0
  0
LINE
  5
3AA
330
17
100
AcDbEntity
  8
0
100
AcDbLine
 10
495.60399999999964
 20
-301.3609999999998
 30
0.0
 11
496.58999999999963
 21
-303.56199999999984
 31
0.0
  0
LINE
  5
3AB
330
17
100
AcDbEntity
  8
0
100
AcDbLine
 10
496.58999999999963
 20
-303.56199999999984
 30
0.0
 11
499.75999999999965
 21
-314.24499999999983
 31
0.0
  0
LINE
  5
3AC
330
17
100
AcDbEntity
  8
0
100
AcDbLine
 10
499.75999999999965
 20
-314.24499999999983
 30
0.0
 11
500.5879999999996
 21
-315.86899999999986
 31
0.0
  0
LINE
  5
3AD
330
17
100
AcDbEntity
  8
0
100
AcDbLine
 10
500.5879999999996
 20
-315.86899999999986
 30
0.0
 11
501.6079999999996
 21
-317.36199999999985
 31
0.0
  0
LINE
  5
3AE
330
17
100
AcDbEntity
  8
0
100
AcDbLine
 10
501.6079999999996
 20
-317.36199999999985
 30
0.0
 11
502.7979999999996
 21
-318.76099999999985
 31
0.0
  0
LINE
  5
3AF
330
17
100
AcDbEntity
  8
0
100
AcDbLine
 10
502.7979999999996
 20
-318.76099999999985
 30
0.0
 11
503.9639999999996
 21
-319.93499999999983
 31
0.0
  0
LINE
  5
3B0
330
17
100
AcDbEntity
  8
0
100
AcDbLine
 10
503.9639999999996
 20
-319.93499999999983
 30
0.0
 11
506.1879999999996
 21
-321.74199999999985
 31
0.0
  0
LINE
  5
3B1
330
17
100
AcDbEntity
  8
0
100
AcDbLine
 10
506.1879999999996
 20
-321.74199999999985
 30
0.0
 11
507.39099999999956
 21
-322.52599999999984
 31
0.0
  0
LINE
  5
3B2
330
17
100
AcDbEntity
  8
0
100
AcDbLine
 10
507.39099999999956
 20
-322.52599999999984
 30
0.0
 11
508.7439999999996
 21
-323.26399999999984
 31
0.0
  0
LINE
  5
3B3
330
17
100
AcDbEntity
  8
0
100
AcDbLine
 10
508.7439999999996
 20
-323.26399999999984
 30
0.0
 11
509.50699999999955
 21
-323.59799999999984
 31
0.0
  0
LINE
  5
3B4
330
17
100
AcDbEntity
  8
0
100
AcDbLine
 10
509.50699999999955
 20
-323.59799999999984
 30
0.0
 11
510.29299999999955
 21
-323.87199999999984
 31
0.0
  0
LINE
  5
3B5
330
17
100
AcDbEntity
  8
0
100
AcDbLine
 10
510.29299999999955
 20
-323.87199999999984
 30
0.0
 11
511.09199999999953
 21
-324.0699999999998
 31
0.0
  0
LINE
  5
3B6
330
17
100
AcDbEntity
  8
0
100
AcDbLine
 10
511.09199999999953
 20
-324.0699999999998
 30
0.0
 11
511.8949999999995
 21
-324.1759999999998
 31
0.0
  0
LINE
  5
3B7
330
17
100
AcDbEntity
  8
0
100
AcDbLine
 10
511.8949999999995
 20
-324.1759999999998
 30
0.0
 11
512.2949999999995
 21
-324.1889999999998
 31
0.0
  0
LINE
  5
3B8
330
17
100
AcDbEntity
  8
0
100
AcDbLine
 10
512.2949999999995
 20
-324.1889999999998
 30
0.0
 11
512.6919999999996
 21
-324.1729999999998
 31
0.0
  0
LINE
  5
3B9
330
17
100
AcDbEntity
  8
0
100
AcDbLine
 10
512.6919999999996
 20
-324.1729999999998
 30
0.0
 11
513.0849999999996
 21
-324.12599999999975
 31
0.0
  0
LINE
  5
3BA
330
17
100
AcDbEntity
  8
0
100
AcDbLine
 10
513.0849999999996
 20
-324.12599999999975
 30
0.0
 11
513.4729999999996
 21
-324.04599999999976
 31
0.0
  0
LINE
  5
3BB
330
17
100
AcDbEntity
  8
0
100
AcDbLine
 10
513.4729999999996
 20
-324.04599999999976
 30
0.0
 11
513.8549999999996
 21
-323.9319999999998
 31
0.0
  0
LINE
  5
3BC
330
17
100
AcDbEntity
  8
0
100
AcDbLine
 10
513.8549999999996
 20
-323.9319999999998
 30
0.0
 11
514.2289999999996
 21
-323.7809999999998
 31
0.0
  0
LINE
  5
3BD
330
17
100
AcDbEntity
  8
0
100
AcDbLine
 10
514.2289999999996
 20
-323.7809999999998
 30
0.0
 11
514.7739999999995
 21
-323.4819999999998
 31
0.0
  0
LINE
  5
3BE
330
17
100
AcDbEntity
  8
0
100
AcDbLine
 10
514.7739999999995
 20
-323.4819999999998
 30
0.0
 11
515.2699999999995
 21
-323.1209999999998
 31
0.0
  0
LINE
  5
3BF
330
17
100
AcDbEntity
  8
0
100
AcDbLine
 10
515.2699999999995
 20
-323.1209999999998
 30
0.0
 11
515.7249999999996
 21
-322.7109999999998
 31
0.0
  0
LINE
  5
3C0
330
17
100
AcDbEntity
  8
0
100
AcDbLine
 10
515.7249999999996
 20
-322.7109999999998
 30
0.0
 11
523.2509999999995
 21
-314.0429999999998
 31
0.0
  0
LINE
  5
3C1
330
17
100
AcDbEntity
  8
0
100
AcDbLine
 10
523.2509999999995
 20
-314.0429999999998
 30
0.0
 11
527.3439999999995
 21
-310.2159999999998
 31
0.0
  0
LINE
  5
3C2
330
17
100
AcDbEntity
  8
0
100
AcDbLine
 10
527.3439999999995
 20
-310.2159999999998
 30
0.0
 11
537.5029999999995
 21
-302.69999999999976
 31
0.0
  0
LINE
  5
3C3
330
17
100
AcDbEntity
  8
0
100
AcDbLine
 10
537.5029999999995
 20
-302.69999999999976
 30
0.0
 11
537.9649999999995
 21
-302.27699999999976
 31
0.0
  0
LINE
  5
3C4
330
17
100
AcDbEntity
  8
0
100
AcDbLine
 10
537.9649999999995
 20
-302.27699999999976
 30
0.0
 11
538.3799999999994
 21
-301.81899999999973
 31
0.0
  0
LINE
  5
3C5
330
17
100
AcDbEntity
  8
0
100
AcDbLine
 10
538.3799999999994
 20
-301.81899999999973
 30
0.0
 11
538.7369999999994
 21
-301.31899999999973
 31
0.0
  0
LINE
  5
3C6
330
17
100
AcDbEntity
  8
0
100
AcDbLine
 10
538.7369999999994
 20
-301.31899999999973
 30
0.0
 11
538.8899999999994
 21
-301.05199999999974
 31
0.0
  0
LINE
  5
3C7
330
17
100
AcDbEntity
  8
0
100
AcDbLine
 10
538.8899999999994
 20
-301.05199999999974
 30
0.0
 11
539.0849999999995
 21
-300.62299999999976
 31
0.0
  0
LINE
  5
3C8
330
17
100
AcDbEntity
  8
0
100
AcDbLine
 10
539.0849999999995
 20
-300.62299999999976
 30
0.0
 11
539.1849999999995
 21
-300.31999999999977
 31
0.0
  0
LINE
  5
3C9
330
17
100
AcDbEntity
  8
0
100
AcDbLine
 10
539.1849999999995
 20
-300.31999999999977
 30
0.0
 11
539.2589999999994
 21
-300.00999999999976
 31
0.0
  0
LINE
  5
3CA
330
17
100
AcDbEntity
  8
0
100
AcDbLine
 10
539.2589999999994
 20
-300.00999999999976
 30
0.0
 11
539.3059999999995
 21
-299.69499999999977
 31
0.0
  0
LINE
  5
3CB
330
17
100
AcDbEntity
  8
0
100
AcDbLine
 10
539.3059999999995
 20
-299.69499999999977
 30
0.0
 11
539.3269999999994
 21
-299.3769999999998
 31
0.0
  0
LINE
  5
3CC
330
17
100
AcDbEntity
  8
0
100
AcDbLine
 10
539.3269999999994
 20
-299.3769999999998
 30
0.0
 11
539.3229999999994
 21
-299.05799999999977
 31
0.0
  0
LINE
  5
3CD
330
17
100
AcDbEntity
  8
0
100
AcDbLine
 10
539.3229999999994
 20
-299.05799999999977
 30
0.0
 11
539.2939999999994
 21
-298.7399999999998
 31
0.0
  0
LINE
  5
3CE
330
17
100
AcDbEntity
  8
0
100
AcDbLine
 10
539.2939999999994
 20
-298.7399999999998
 30
0.0
 11
539.2059999999994
 21
-298.2679999999998
 31
0.0
  0
ENDSEC
  0
SECTION
  2
OBJECTS
  0
DICTIONARY
  5
A
330
0
100
AcDbDictionary
281
1
  3
ACAD_COLOR
350
B
  3
ACAD_GROUP
350
C
  3
ACAD_LAYOUT
350
D
  3
ACAD_MATERIAL
350
E
  3
ACAD_MLEADERSTYLE
350
F
  3
ACAD_MLINESTYLE
350
10
  3
ACAD_PLOTSETTINGS
350
11
  3
ACAD_PLOTSTYLENAME
350
12
  3
ACAD_SCALELIST
350
14
  3
ACAD_TABLESTYLE
350
15
  3
ACAD_VISUALSTYLE
350
16
  3
EZDXF_META
350
2D
  0
DICTIONARY
  5
B
330
A
100
AcDbDictionary
281
1
  0
DICTIONARY
  5
C
330
A
100
AcDbDictionary
281
1
  0
DICTIONARY
  5
D
330
A
100
AcDbDictionary
281
1
  3
Model
350
1A
  3
Layout1
350
1E
  0
DICTIONARY
  5
E
330
A
100
AcDbDictionary
281
1
  3
ByBlock
350
1F
  3
ByLayer
350
20
  3
Global
350
21
  0
DICTIONARY
  5
F
330
A
100
AcDbDictionary
281
1
  3
Standard
350
2C
  0
DICTIONARY
  5
10
330
A
100
AcDbDictionary
281
1
  3
Standard
350
22
  0
DICTIONARY
  5
11
330
A
100
AcDbDictionary
281
1
  0
ACDBDICTIONARYWDFLT
  5
12
330
A
100
AcDbDictionary
281
1
  3
Normal
350
13
100
AcDbDictionaryWithDefault
340
13
  0
ACDBPLACEHOLDER
  5
13
330
12
  0
DICTIONARY
  5
14
330
A
100
AcDbDictionary
281
1
  0
DICTIONARY
  5
15
330
A
100
AcDbDictionary
281
1
  0
DICTIONARY
  5
16
330
A
100
AcDbDictionary
281
1
  0
LAYOUT
  5
1A
330
D
100
AcDbPlotSettings
  1

  4
A3
  6

 40
7.5
 41
20.0
 42
7.5
 43
20.0
 44
420.0
 45
297.0
 46
0.0
 47
0.0
 48
0.0
 49
0.0
140
0.0
141
0.0
142
1.0
143
1.0
 70
1024
 72
1
 73
0
 74
5
  7

 75
16
 76
0
 77
2
 78
300
147
1.0
148
0.0
149
0.0
100
AcDbLayout
  1
Model
 70
1
 71
0
 10
0.0
 20
0.0
 11
420.0
 21
297.0
 12
0.0
 22
0.0
 32
0.0
 14
1e+20
 24
1e+20
 34
1e+20
 15
-1e+20
 25
-1e+20
 35
-1e+20
146
0.0
 13
0.0
 23
0.0
 33
0.0
 16
1.0
 26
0.0
 36
0.0
 17
0.0
 27
1.0
 37
0.0
 76
1
330
17
  0
LAYOUT
  5
1E
330
D
100
AcDbPlotSettings
  1

  4
A3
  6

 40
7.5
 41
20.0
 42
7.5
 43
20.0
 44
420.0
 45
297.0
 46
0.0
 47
0.0
 48
0.0
 49
0.0
140
0.0
141
0.0
142
1.0
143
1.0
 70
0
 72
1
 73
0
 74
5
  7

 75
16
 76
0
 77
2
 78
300
147
1.0
148
0.0
149
0.0
100
AcDbLayout
  1
Layout1
 70
1
 71
1
 10
0.0
 20
0.0
 11
420.0
 21
297.0
 12
0.0
 22
0.0
 32
0.0
 14
1e+20
 24
1e+20
 34
1e+20
 15
-1e+20
 25
-1e+20
 35
-1e+20
146
0.0
 13
0.0
 23
0.0
 33
0.0
 16
1.0
 26
0.0
 36
0.0
 17
0.0
 27
1.0
 37
0.0
 76
1
330
1B
  0
MATERIAL
  5
1F
102
{ACAD_REACTORS
330
E
102
}
330
E
100
AcDbMaterial
  1
ByBlock
  2

 70
0
 40
1.0
 71
1
 41
1.0
 91
-1023410177
 42
1.0
 72
1
  3

 73
1
 74
1
 75
1
 44
0.5
 73
0
 45
1.0
 46
1.0
 77
1
  4

 78
1
 79
1
170
1
 48
1.0
171
1
  6

172
1
173
1
174
1
140
1.0
141
1.0
175
1
  7

176
1
177
1
178
1
143
1.0
179
1
  8

270
1
271
1
272
1
145
1.0
146
1.0
273
1
  9

274
1
275
1
276
1
 42
1.0
 72
1
  3

 73
1
 74
1
 75
1
 94
63
  0
MATERIAL
  5
20
102
{ACAD_REACTORS
330
E
102
}
330
E
100
AcDbMaterial
  1
ByLayer
  2

 70
0
 40
1.0
 71
1
 41
1.0
 91
-1023410177
 42
1.0
 72
1
  3

 73
1
 74
1
 75
1
 44
0.5
 73
0
 45
1.0
 46
1.0
 77
1
  4

 78
1
 79
1
170
1
 48
1.0
171
1
  6

172
1
173
1
174
1
140
1.0
141
1.0
175
1
  7

176
1
177
1
178
1
143
1.0
179
1
  8

270
1
271
1
272
1
145
1.0
146
1.0
273
1
  9

274
1
275
1
276
1
 42
1.0
 72
1
  3

 73
1
 74
1
 75
1
 94
63
  0
MATERIAL
  5
21
102
{ACAD_REACTORS
330
E
102
}
330
E
100
AcDbMaterial
  1
Global
  2

 70
0
 40
1.0
 71
1
 41
1.0
 91
-1023410177
 42
1.0
 72
1
  3

 73
1
 74
1
 75
1
 44
0.5
 73
0
 45
1.0
 46
1.0
 77
1
  4

 78
1
 79
1
170
1
 48
1.0
171
1
  6

172
1
173
1
174
1
140
1.0
141
1.0
175
1
  7

176
1
177
1
178
1
143
1.0
179
1
  8

270
1
271
1
272
1
145
1.0
146
1.0
273
1
  9

274
1
275
1
276
1
 42
1.0
 72
1
  3

 73
1
 74
1
 75
1
 94
63
  0
MLINESTYLE
  5
22
102
{ACAD_REACTORS
330
10
102
}
330
10
100
AcDbMlineStyle
  2
Standard
 70
0
  3

 62
256
 51
90.0
 52
90.0
 71
2
 49
0.5
 62
256
  6
BYLAYER
 49
-0.5
 62
256
  6
BYLAYER
  0
MLEADERSTYLE
  5
2C
102
{ACAD_REACTORS
330
F
102
}
330
F
100
AcDbMLeaderStyle
179
2
170
2
171
1
172
0
 90
2
 40
0.0
 41
0.0
173
1
 91
-1056964608
 92
-2
290
1
 42
2.0
291
1
 43
8.0
  3
Standard
 44
4.0
300

342
29
174
1
175
1
176
0
178
1
 93
-1056964608
 45
4.0
292
0
297
0
 46
4.0
 94
-1056964608
 47
1.0
 49
1.0
140
1.0
294
1
141
0.0
177
0
142
1.0
295
0
296
0
143
3.75
271
0
272
9
273
9
  0
DICTIONARY
  5
2D
330
A
100
AcDbDictionary
280
1
281
1
  3
CREATED_BY_EZDXF
350
2E
  3
WRITTEN_BY_EZDXF
350
3D1
  0
DICTIONARYVAR
  5
2E
330
2D
100
DictionaryVariables
280
0
  1
1.4.3 @ 2026-04-08T00:10:15.562981+00:00
  0
DICTIONARYVAR
  5
3D1
330
2D
100
DictionaryVariables
280
0
  1
1.4.3 @ 2026-04-08T00:10:15.571232+00:00
  0
ENDSEC
  0
EOF
