  0
SECTION
  2
HEADER
  9
$ACADVER
  1
AC1024
  9
$ACADMAINTVER
 70
6
  9
$DWGCODEPAGE
  3
ANSI_1252
  9
$LASTSAVEDBY
  1
ezdxf
  9
$INSBASE
 10
0.0
 20
0.0
 30
0.0
  9
$EXTMIN
 10
1e+20
 20
1e+20
 30
1e+20
  9
$EXTMAX
 10
-1e+20
 20
-1e+20
 30
-1e+20
  9
$LIMMIN
 10
0.0
 20
0.0
  9
$LIMMAX
 10
420.0
 20
297.0
  9
$ORTHOMODE
 70
0
  9
$REGENMODE
 70
1
  9
$FILLMODE
 70
1
  9
$QTEXTMODE
 70
0
  9
$MIRRTEXT
 70
1
  9
$LTSCALE
 40
1.0
  9
$ATTMODE
 70
1
  9
$TEXTSIZE
 40
2.5
  9
$TRACEWID
 40
1.0
  9
$TEXTSTYLE
  7
Standard
  9
$CLAYER
  8
0
  9
$CELTYPE
  6
ByLayer
  9
$CECOLOR
 62
256
  9
$CELTSCALE
 40
1.0
  9
$DISPSILH
 70
0
  9
$DIMSCALE
 40
1.0
  9
$DIMASZ
 40
2.5
  9
$DIMEXO
 40
0.625
  9
$DIMDLI
 40
3.75
  9
$DIMRND
 40
0.0
  9
$DIMDLE
 40
0.0
  9
$DIMEXE
 40
1.25
  9
$DIMTP
 40
0.0
  9
$DIMTM
 40
0.0
  9
$DIMTXT
 40
2.5
  9
$DIMCEN
 40
2.5
  9
$DIMTSZ
 40
0.0
  9
$DIMTOL
 70
0
  9
$DIMLIM
 70
0
  9
$DIMTIH
 70
0
  9
$DIMTOH
 70
0
  9
$DIMSE1
 70
0
  9
$DIMSE2
 70
0
  9
$DIMTAD
 70
1
  9
$DIMZIN
 70
8
  9
$DIMBLK
  1

  9
$DIMASO
 70
1
  9
$DIMSHO
 70
1
  9
$DIMPOST
  1

  9
$DIMAPOST
  1

  9
$DIMALT
 70
0
  9
$DIMALTD
 70
3
  9
$DIMALTF
 40
0.03937007874
  9
$DIMLFAC
 40
1.0
  9
$DIMTOFL
 70
1
  9
$DIMTVP
 40
0.0
  9
$DIMTIX
 70
0
  9
$DIMSOXD
 70
0
  9
$DIMSAH
 70
0
  9
$DIMBLK1
  1

  9
$DIMBLK2
  1

  9
$DIMSTYLE
  2
ISO-25
  9
$DIMCLRD
 70
0
  9
$DIMCLRE
 70
0
  9
$DIMCLRT
 70
0
  9
$DIMTFAC
 40
1.0
  9
$DIMGAP
 40
0.625
  9
$DIMJUST
 70
0
  9
$DIMSD1
 70
0
  9
$DIMSD2
 70
0
  9
$DIMTOLJ
 70
0
  9
$DIMTZIN
 70
8
  9
$DIMALTZ
 70
0
  9
$DIMALTTZ
 70
0
  9
$DIMUPT
 70
0
  9
$DIMDEC
 70
2
  9
$DIMTDEC
 70
2
  9
$DIMALTU
 70
2
  9
$DIMALTTD
 70
3
  9
$DIMTXSTY
  7
Standard
  9
$DIMAUNIT
 70
0
  9
$DIMADEC
 70
0
  9
$DIMALTRND
 40
0.0
  9
$DIMAZIN
 70
0
  9
$DIMDSEP
 70
44
  9
$DIMATFIT
 70
3
  9
$DIMFRAC
 70
0
  9
$DIMLDRBLK
  1

  9
$DIMLUNIT
 70
2
  9
$DIMLWD
 70
-2
  9
$DIMLWE
 70
-2
  9
$DIMTMOVE
 70
0
  9
$DIMFXL
 40
1.0
  9
$DIMFXLON
 70
0
  9
$DIMJOGANG
 40
0.785398163397
  9
$DIMTFILL
 70
0
  9
$DIMTFILLCLR
 70
0
  9
$DIMARCSYM
 70
0
  9
$DIMLTYPE
  6

  9
$DIMLTEX1
  6

  9
$DIMLTEX2
  6

  9
$DIMTXTDIRECTION
 70
0
  9
$LUNITS
 70
2
  9
$LUPREC
 70
4
  9
$SKETCHINC
 40
1.0
  9
$FILLETRAD
 40
10.0
  9
$AUNITS
 70
0
  9
$AUPREC
 70
2
  9
$MENU
  1
.
  9
$ELEVATION
 40
0.0
  9
$PELEVATION
 40
0.0
  9
$THICKNESS
 40
0.0
  9
$LIMCHECK
 70
0
  9
$CHAMFERA
 40
0.0
  9
$CHAMFERB
 40
0.0
  9
$CHAMFERC
 40
0.0
  9
$CHAMFERD
 40
0.0
  9
$SKPOLY
 70
0
  9
$TDCREATE
 40
2461138.7154050926
  9
$TDUCREATE
 40
2458532.153996898
  9
$TDUPDATE
 40
2461138.7154050926
  9
$TDUUPDATE
 40
2458532.1544311
  9
$TDINDWG
 40
0.0
  9
$TDUSRTIMER
 40
0.0
  9
$USRTIMER
 70
1
  9
$ANGBASE
 50
0.0
  9
$ANGDIR
 70
0
  9
$PDMODE
 70
0
  9
$PDSIZE
 40
0.0
  9
$PLINEWID
 40
0.0
  9
$SPLFRAME
 70
0
  9
$SPLINETYPE
 70
6
  9
$SPLINESEGS
 70
8
  9
$HANDSEED
  5
193
  9
$SURFTAB1
 70
6
  9
$SURFTAB2
 70
6
  9
$SURFTYPE
 70
6
  9
$SURFU
 70
6
  9
$SURFV
 70
6
  9
$UCSBASE
  2

  9
$UCSNAME
  2

  9
$UCSORG
 10
0.0
 20
0.0
 30
0.0
  9
$UCSXDIR
 10
1.0
 20
0.0
 30
0.0
  9
$UCSYDIR
 10
0.0
 20
1.0
 30
0.0
  9
$UCSORTHOREF
  2

  9
$UCSORTHOVIEW
 70
0
  9
$UCSORGTOP
 10
0.0
 20
0.0
 30
0.0
  9
$UCSORGBOTTOM
 10
0.0
 20
0.0
 30
0.0
  9
$UCSORGLEFT
 10
0.0
 20
0.0
 30
0.0
  9
$UCSORGRIGHT
 10
0.0
 20
0.0
 30
0.0
  9
$UCSORGFRONT
 10
0.0
 20
0.0
 30
0.0
  9
$UCSORGBACK
 10
0.0
 20
0.0
 30
0.0
  9
$PUCSBASE
  2

  9
$PUCSNAME
  2

  9
$PUCSORG
 10
0.0
 20
0.0
 30
0.0
  9
$PUCSXDIR
 10
1.0
 20
0.0
 30
0.0
  9
$PUCSYDIR
 10
0.0
 20
1.0
 30
0.0
  9
$PUCSORTHOREF
  2

  9
$PUCSORTHOVIEW
 70
0
  9
$PUCSORGTOP
 10
0.0
 20
0.0
 30
0.0
  9
$PUCSORGBOTTOM
 10
0.0
 20
0.0
 30
0.0
  9
$PUCSORGLEFT
 10
0.0
 20
0.0
 30
0.0
  9
$PUCSORGRIGHT
 10
0.0
 20
0.0
 30
0.0
  9
$PUCSORGFRONT
 10
0.0
 20
0.0
 30
0.0
  9
$PUCSORGBACK
 10
0.0
 20
0.0
 30
0.0
  9
$USERI1
 70
0
  9
$USERI2
 70
0
  9
$USERI3
 70
0
  9
$USERI4
 70
0
  9
$USERI5
 70
0
  9
$USERR1
 40
0.0
  9
$USERR2
 40
0.0
  9
$USERR3
 40
0.0
  9
$USERR4
 40
0.0
  9
$USERR5
 40
0.0
  9
$WORLDVIEW
 70
1
  9
$SHADEDGE
 70
3
  9
$SHADEDIF
 70
70
  9
$TILEMODE
 70
1
  9
$MAXACTVP
 70
64
  9
$PINSBASE
 10
0.0
 20
0.0
 30
0.0
  9
$PLIMCHECK
 70
0
  9
$PEXTMIN
 10
1e+20
 20
1e+20
 30
1e+20
  9
$PEXTMAX
 10
-1e+20
 20
-1e+20
 30
-1e+20
  9
$PLIMMIN
 10
0.0
 20
0.0
  9
$PLIMMAX
 10
420.0
 20
297.0
  9
$UNITMODE
 70
0
  9
$VISRETAIN
 70
1
  9
$PLINEGEN
 70
0
  9
$PSLTSCALE
 70
1
  9
$TREEDEPTH
 70
3020
  9
$CMLSTYLE
  2
Standard
  9
$CMLJUST
 70
0
  9
$CMLSCALE
 40
20.0
  9
$PROXYGRAPHICS
 70
1
  9
$MEASUREMENT
 70
1
  9
$CELWEIGHT
370
-1
  9
$ENDCAPS
280
0
  9
$JOINSTYLE
280
0
  9
$LWDISPLAY
290
0
  9
$INSUNITS
 70
6
  9
$HYPERLINKBASE
  1

  9
$STYLESHEET
  1

  9
$XEDIT
290
1
  9
$CEPSNTYPE
380
0
  9
$PSTYLEMODE
290
1
  9
$FINGERPRINTGUID
  2
{8D5314C3-AD4B-4A06-B784-09049633D842}
  9
$VERSIONGUID
  2
{11F9D38A-889B-4926-8BEB-3CC1C7D2B65B}
  9
$EXTNAMES
290
1
  9
$PSVPSCALE
 40
0.0
  9
$OLESTARTUP
290
0
  9
$SORTENTS
280
127
  9
$INDEXCTL
280
0
  9
$HIDETEXT
280
1
  9
$XCLIPFRAME
280
1
  9
$HALOGAP
280
0
  9
$OBSCOLOR
 70
257
  9
$OBSLTYPE
280
0
  9
$INTERSECTIONDISPLAY
280
0
  9
$INTERSECTIONCOLOR
 70
257
  9
$DIMASSOC
280
2
  9
$PROJECTNAME
  1

  9
$CAMERADISPLAY
290
0
  9
$LENSLENGTH
 40
50.0
  9
$CAMERAHEIGHT
 40
0.0
  9
$STEPSPERSEC
 40
24.0
  9
$STEPSIZE
 40
100.0
  9
$3DDWFPREC
 40
2.0
  9
$PSOLWIDTH
 40
0.005
  9
$PSOLHEIGHT
 40
0.08
  9
$LOFTANG1
 40
1.570796326795
  9
$LOFTANG2
 40
1.570796326795
  9
$LOFTMAG1
 40
0.0
  9
$LOFTMAG2
 40
0.0
  9
$LOFTPARAM
 70
7
  9
$LOFTNORMALS
280
1
  9
$LATITUDE
 40
37.795
  9
$LONGITUDE
 40
-122.394
  9
$NORTHDIRECTION
 40
0.0
  9
$TIMEZONE
 70
-8000
  9
$LIGHTGLYPHDISPLAY
280
1
  9
$TILEMODELIGHTSYNCH
280
1
  9
$CMATERIAL
347
20
  9
$SOLIDHIST
280
0
  9
$SHOWHIST
280
1
  9
$DWFFRAME
280
2
  9
$DGNFRAME
280
2
  9
$REALWORLDSCALE
290
1
  9
$INTERFERECOLOR
 62
256
  9
$CSHADOW
280
0
  9
$SHADOWPLANELOCATION
 40
0.0
  0
ENDSEC
  0
SECTION
  2
CLASSES
  0
CLASS
  1
ACDBDICTIONARYWDFLT
  2
AcDbDictionaryWithDefault
  3
ObjectDBX Classes
 90
0
 91
0
280
0
281
0
  0
CLASS
  1
SUN
  2
AcDbSun
  3
SCENEOE
 90
1153
 91
0
280
0
281
0
  0
CLASS
  1
VISUALSTYLE
  2
AcDbVisualStyle
  3
ObjectDBX Classes
 90
4095
 91
0
280
0
281
0
  0
CLASS
  1
MATERIAL
  2
AcDbMaterial
  3
ObjectDBX Classes
 90
1153
 91
0
280
0
281
0
  0
CLASS
  1
SCALE
  2
AcDbScale
  3
ObjectDBX Classes
 90
1153
 91
0
280
0
281
0
  0
CLASS
  1
TABLESTYLE
  2
AcDbTableStyle
  3
ObjectDBX Classes
 90
4095
 91
0
280
0
281
0
  0
CLASS
  1
MLEADERSTYLE
  2
AcDbMLeaderStyle
  3
ACDB_MLEADERSTYLE_CLASS
 90
4095
 91
0
280
0
281
0
  0
CLASS
  1
DICTIONARYVAR
  2
AcDbDictionaryVar
  3
ObjectDBX Classes
 90
0
 91
0
280
0
281
0
  0
CLASS
  1
CELLSTYLEMAP
  2
AcDbCellStyleMap
  3
ObjectDBX Classes
 90
1152
 91
0
280
0
281
0
  0
CLASS
  1
MENTALRAYRENDERSETTINGS
  2
AcDbMentalRayRenderSettings
  3
SCENEOE
 90
1024
 91
0
280
0
281
0
  0
CLASS
  1
ACDBDETAILVIEWSTYLE
  2
AcDbDetailViewStyle
  3
ObjectDBX Classes
 90
1025
 91
0
280
0
281
0
  0
CLASS
  1
ACDBSECTIONVIEWSTYLE
  2
AcDbSectionViewStyle
  3
ObjectDBX Classes
 90
1025
 91
0
280
0
281
0
  0
CLASS
  1
RASTERVARIABLES
  2
AcDbRasterVariables
  3
ISM
 90
0
 91
0
280
0
281
0
  0
CLASS
  1
ACDBPLACEHOLDER
  2
AcDbPlaceHolder
  3
ObjectDBX Classes
 90
0
 91
0
280
0
281
0
  0
CLASS
  1
LAYOUT
  2
AcDbLayout
  3
ObjectDBX Classes
 90
0
 91
0
280
0
281
0
  0
ENDSEC
  0
SECTION
  2
TABLES
  0
TABLE
  2
VPORT
  5
8
330
0
100
AcDbSymbolTable
 70
1
  0
VPORT
  5
23
330
8
100
AcDbSymbolTableRecord
100
AcDbViewportTableRecord
  2
*Active
 70
0
 10
0.0
 20
0.0
 11
1.0
 21
1.0
 12
0.0
 22
0.0
 13
0.0
 23
0.0
 14
0.5
 24
0.5
 15
0.5
 25
0.5
 16
0.0
 26
0.0
 36
1.0
 17
0.0
 27
0.0
 37
0.0
 40
1000.0
 41
1.34
 42
50.0
 43
0.0
 44
0.0
 50
0.0
 51
0.0
 71
0
 72
1000
 73
1
 74
3
 75
0
 76
0
 77
0
 78
0
281
0
 65
0
146
0.0
  0
ENDTAB
  0
TABLE
  2
LTYPE
  5
2
330
0
100
AcDbSymbolTable
 70
3
  0
LTYPE
  5
24
330
2
100
AcDbSymbolTableRecord
100
AcDbLinetypeTableRecord
  2
ByBlock
 70
0
  3

 72
65
 73
0
 40
0.0
  0
LTYPE
  5
25
330
2
100
AcDbSymbolTableRecord
100
AcDbLinetypeTableRecord
  2
ByLayer
 70
0
  3

 72
65
 73
0
 40
0.0
  0
LTYPE
  5
26
330
2
100
AcDbSymbolTableRecord
100
AcDbLinetypeTableRecord
  2
Continuous
 70
0
  3

 72
65
 73
0
 40
0.0
  0
ENDTAB
  0
TABLE
  2
LAYER
  5
1
330
0
100
AcDbSymbolTable
 70
2
  0
LAYER
  5
27
330
1
100
AcDbSymbolTableRecord
100
AcDbLayerTableRecord
  2
0
 70
0
 62
7
  6
Continuous
370
-3
390
13
347
21
  0
LAYER
  5
28
330
1
100
AcDbSymbolTableRecord
100
AcDbLayerTableRecord
  2
Defpoints
 70
0
 62
7
  6
Continuous
290
0
370
-3
390
13
347
21
  0
ENDTAB
  0
TABLE
  2
STYLE
  5
5
330
0
100
AcDbSymbolTable
 70
1
  0
STYLE
  5
29
330
5
100
AcDbSymbolTableRecord
100
AcDbTextStyleTableRecord
  2
Standard
 70
0
 40
0.0
 41
1.0
 50
0.0
 71
0
 42
2.5
  3
txt
  4

  0
ENDTAB
  0
TABLE
  2
VIEW
  5
7
330
0
100
AcDbSymbolTable
 70
0
  0
ENDTAB
  0
TABLE
  2
UCS
  5
6
330
0
100
AcDbSymbolTable
 70
0
  0
ENDTAB
  0
TABLE
  2
APPID
  5
3
330
0
100
AcDbSymbolTable
 70
3
  0
APPID
  5
2A
330
3
100
AcDbSymbolTableRecord
100
AcDbRegAppTableRecord
  2
ACAD
 70
0
  0
APPID
  5
190
330
3
100
AcDbSymbolTableRecord
100
AcDbRegAppTableRecord
  2
HATCHBACKGROUNDCOLOR
 70
0
  0
APPID
  5
191
330
3
100
AcDbSymbolTableRecord
100
AcDbRegAppTableRecord
  2
EZDXF
 70
0
  0
ENDTAB
  0
TABLE
  2
DIMSTYLE
  5
4
330
0
100
AcDbSymbolTable
 70
1
100
AcDbDimStyleTable
  0
DIMSTYLE
105
2B
330
4
100
AcDbSymbolTableRecord
100
AcDbDimStyleTableRecord
  2
Standard
 70
0
 40
1.0
 41
2.5
 42
0.625
 43
3.75
 44
1.25
 45
0.0
 46
0.0
 47
0.0
 48
0.0
 49
2.5
140
2.5
141
2.5
142
0.0
143
0.03937007874
144
1.0
145
0.0
146
1.0
147
0.625
148
0.0
 69
0
 70
0
 71
0
 72
0
 73
0
 74
0
 75
0
 76
0
 77
1
 78
8
 79
3
170
0
171
3
172
1
173
0
174
0
175
0
176
0
177
0
178
0
179
2
271
2
272
2
273
2
274
3
275
0
276
0
277
2
278
44
279
0
280
0
281
0
282
0
283
0
284
8
285
0
286
0
288
0
289
3
290
0
371
-2
372
-2
  0
ENDTAB
  0
TABLE
  2
BLOCK_RECORD
  5
9
330
0
100
AcDbSymbolTable
 70
2
  0
BLOCK_RECORD
  5
17
330
9
100
AcDbSymbolTableRecord
100
AcDbBlockTableRecord
  2
*Model_Space
340
1A
 70
0
280
1
281
0
  0
BLOCK_RECORD
  5
1B
330
9
100
AcDbSymbolTableRecord
100
AcDbBlockTableRecord
  2
*Paper_Space
340
1E
 70
0
280
1
281
0
  0
ENDTAB
  0
ENDSEC
  0
SECTION
  2
BLOCKS
  0
BLOCK
  5
18
330
17
100
AcDbEntity
  8
0
100
AcDbBlockBegin
  2
*Model_Space
 70
0
 10
0.0
 20
0.0
 30
0.0
  3
*Model_Space
  1

  0
ENDBLK
  5
19
330
17
100
AcDbEntity
  8
0
100
AcDbBlockEnd
  0
BLOCK
  5
1C
330
1B
100
AcDbEntity
  8
0
100
AcDbBlockBegin
  2
*Paper_Space
 70
0
 10
0.0
 20
0.0
 30
0.0
  3
*Paper_Space
  1

  0
ENDBLK
  5
1D
330
1B
100
AcDbEntity
  8
0
100
AcDbBlockEnd
  0
ENDSEC
  0
SECTION
  2
ENTITIES
  0
LINE
  5
2F
330
17
100
AcDbEntity
  8
0
100
AcDbLine
 10
732.74
 20
-207.795
 30
0.0
 11
732.715
 21
-207.07199999999997
 31
0.0
  0
LINE
  5
30
330
17
100
AcDbEntity
  8
0
100
AcDbLine
 10
732.715
 20
-207.07199999999997
 30
0.0
 11
732.6220000000001
 21
-206.36899999999997
 31
0.0
  0
LINE
  5
31
330
17
100
AcDbEntity
  8
0
100
AcDbLine
 10
732.6220000000001
 20
-206.36899999999997
 30
0.0
 11
732.464
 21
-205.68999999999997
 31
0.0
  0
LINE
  5
32
330
17
100
AcDbEntity
  8
0
100
AcDbLine
 10
732.464
 20
-205.68999999999997
 30
0.0
 11
732.245
 21
-205.03899999999996
 31
0.0
  0
LINE
  5
33
330
17
100
AcDbEntity
  8
0
100
AcDbLine
 10
732.245
 20
-205.03899999999996
 30
0.0
 11
731.969
 21
-204.41899999999995
 31
0.0
  0
LINE
  5
34
330
17
100
AcDbEntity
  8
0
100
AcDbLine
 10
731.969
 20
-204.41899999999995
 30
0.0
 11
731.639
 21
-203.83399999999995
 31
0.0
  0
LINE
  5
35
330
17
100
AcDbEntity
  8
0
100
AcDbLine
 10
731.639
 20
-203.83399999999995
 30
0.0
 11
731.258
 21
-203.28699999999995
 31
0.0
  0
LINE
  5
36
330
17
100
AcDbEntity
  8
0
100
AcDbLine
 10
731.258
 20
-203.28699999999995
 30
0.0
 11
730.8290000000001
 21
-202.78199999999995
 31
0.0
  0
LINE
  5
37
330
17
100
AcDbEntity
  8
0
100
AcDbLine
 10
730.8290000000001
 20
-202.78199999999995
 30
0.0
 11
730.3560000000001
 21
-202.32299999999995
 31
0.0
  0
LINE
  5
38
330
17
100
AcDbEntity
  8
0
100
AcDbLine
 10
730.3560000000001
 20
-202.32299999999995
 30
0.0
 11
729.8430000000001
 21
-201.91399999999996
 31
0.0
  0
LINE
  5
39
330
17
100
AcDbEntity
  8
0
100
AcDbLine
 10
729.8430000000001
 20
-201.91399999999996
 30
0.0
 11
729.292
 21
-201.55799999999996
 31
0.0
  0
LINE
  5
3A
330
17
100
AcDbEntity
  8
0
100
AcDbLine
 10
729.292
 20
-201.55799999999996
 30
0.0
 11
728.7080000000001
 21
-201.25799999999995
 31
0.0
  0
LINE
  5
3B
330
17
100
AcDbEntity
  8
0
100
AcDbLine
 10
728.7080000000001
 20
-201.25799999999995
 30
0.0
 11
728.0930000000001
 21
-201.01799999999994
 31
0.0
  0
LINE
  5
3C
330
17
100
AcDbEntity
  8
0
100
AcDbLine
 10
728.0930000000001
 20
-201.01799999999994
 30
0.0
 11
727.451
 21
-200.84199999999996
 31
0.0
  0
LINE
  5
3D
330
17
100
AcDbEntity
  8
0
100
AcDbLine
 10
727.451
 20
-200.84199999999996
 30
0.0
 11
726.7860000000001
 21
-200.73399999999995
 31
0.0
  0
LINE
  5
3E
330
17
100
AcDbEntity
  8
0
100
AcDbLine
 10
726.7860000000001
 20
-200.73399999999995
 30
0.0
 11
705.373
 21
-200.69699999999995
 31
0.0
  0
LINE
  5
3F
330
17
100
AcDbEntity
  8
0
100
AcDbLine
 10
705.373
 20
-200.69699999999995
 30
0.0
 11
704.466
 21
-268.04499999999996
 31
0.0
  0
LINE
  5
40
330
17
100
AcDbEntity
  8
0
100
AcDbLine
 10
704.466
 20
-268.04499999999996
 30
0.0
 11
731.928
 21
-268.04499999999996
 31
0.0
  0
LINE
  5
41
330
17
100
AcDbEntity
  8
0
100
AcDbLine
 10
731.928
 20
-268.04499999999996
 30
0.0
 11
732.739
 21
-207.79299999999995
 31
0.0
  0
LINE
  5
42
330
17
100
AcDbEntity
  8
0
100
AcDbLine
 10
583.821
 20
-201.56399999999994
 30
0.0
 11
66.88099999999997
 21
-200.62099999999992
 31
0.0
  0
LINE
  5
43
330
17
100
AcDbEntity
  8
0
100
AcDbLine
 10
66.88099999999997
 20
-200.62099999999992
 30
0.0
 11
65.89499999999997
 21
-200.78699999999992
 31
0.0
  0
LINE
  5
44
330
17
100
AcDbEntity
  8
0
100
AcDbLine
 10
65.89499999999997
 20
-200.78699999999992
 30
0.0
 11
64.94299999999997
 21
-201.05699999999993
 31
0.0
  0
LINE
  5
45
330
17
100
AcDbEntity
  8
0
100
AcDbLine
 10
64.94299999999997
 20
-201.05699999999993
 30
0.0
 11
64.03099999999996
 21
-201.42499999999993
 31
0.0
  0
LINE
  5
46
330
17
100
AcDbEntity
  8
0
100
AcDbLine
 10
64.03099999999996
 20
-201.42499999999993
 30
0.0
 11
63.16299999999996
 21
-201.88599999999994
 31
0.0
  0
LINE
  5
47
330
17
100
AcDbEntity
  8
0
100
AcDbLine
 10
63.16299999999996
 20
-201.88599999999994
 30
0.0
 11
62.34399999999996
 21
-202.43499999999995
 31
0.0
  0
LINE
  5
48
330
17
100
AcDbEntity
  8
0
100
AcDbLine
 10
62.34399999999996
 20
-202.43499999999995
 30
0.0
 11
61.579999999999956
 21
-203.06499999999994
 31
0.0
  0
LINE
  5
49
330
17
100
AcDbEntity
  8
0
100
AcDbLine
 10
61.579999999999956
 20
-203.06499999999994
 30
0.0
 11
60.87499999999996
 21
-203.77199999999993
 31
0.0
  0
LINE
  5
4A
330
17
100
AcDbEntity
  8
0
100
AcDbLine
 10
60.87499999999996
 20
-203.77199999999993
 30
0.0
 11
60.23399999999996
 21
-204.54999999999993
 31
0.0
  0
LINE
  5
4B
330
17
100
AcDbEntity
  8
0
100
AcDbLine
 10
60.23399999999996
 20
-204.54999999999993
 30
0.0
 11
59.661999999999956
 21
-205.39299999999992
 31
0.0
  0
LINE
  5
4C
330
17
100
AcDbEntity
  8
0
100
AcDbLine
 10
59.661999999999956
 20
-205.39299999999992
 30
0.0
 11
59.16499999999996
 21
-206.2959999999999
 31
0.0
  0
LINE
  5
4D
330
17
100
AcDbEntity
  8
0
100
AcDbLine
 10
59.16499999999996
 20
-206.2959999999999
 30
0.0
 11
58.74699999999996
 21
-207.2529999999999
 31
0.0
  0
LINE
  5
4E
330
17
100
AcDbEntity
  8
0
100
AcDbLine
 10
58.74699999999996
 20
-207.2529999999999
 30
0.0
 11
58.412999999999954
 21
-208.2589999999999
 31
0.0
  0
LINE
  5
4F
330
17
100
AcDbEntity
  8
0
100
AcDbLine
 10
58.412999999999954
 20
-208.2589999999999
 30
0.0
 11
58.16799999999996
 21
-209.3079999999999
 31
0.0
  0
LINE
  5
50
330
17
100
AcDbEntity
  8
0
100
AcDbLine
 10
58.16799999999996
 20
-209.3079999999999
 30
0.0
 11
58.01799999999996
 21
-210.3949999999999
 31
0.0
  0
LINE
  5
51
330
17
100
AcDbEntity
  8
0
100
AcDbLine
 10
58.01799999999996
 20
-210.3949999999999
 30
0.0
 11
56.966999999999956
 21
-266.0449999999999
 31
0.0
  0
LINE
  5
52
330
17
100
AcDbEntity
  8
0
100
AcDbLine
 10
56.966999999999956
 20
-266.0449999999999
 30
0.0
 11
309.86199999999997
 21
-268.0449999999999
 31
0.0
  0
LINE
  5
53
330
17
100
AcDbEntity
  8
0
100
AcDbLine
 10
309.86199999999997
 20
-268.0449999999999
 30
0.0
 11
338.575
 21
-263.5779999999999
 31
0.0
  0
LINE
  5
54
330
17
100
AcDbEntity
  8
0
100
AcDbLine
 10
338.575
 20
-263.5779999999999
 30
0.0
 11
370.546
 21
-263.5859999999999
 31
0.0
  0
LINE
  5
55
330
17
100
AcDbEntity
  8
0
100
AcDbLine
 10
370.546
 20
-263.5859999999999
 30
0.0
 11
370.75
 21
-263.6109999999999
 31
0.0
  0
LINE
  5
56
330
17
100
AcDbEntity
  8
0
100
AcDbLine
 10
370.75
 20
-263.6109999999999
 30
0.0
 11
370.95
 21
-263.6509999999999
 31
0.0
  0
LINE
  5
57
330
17
100
AcDbEntity
  8
0
100
AcDbLine
 10
370.95
 20
-263.6509999999999
 30
0.0
 11
371.145
 21
-263.7069999999999
 31
0.0
  0
LINE
  5
58
330
17
100
AcDbEntity
  8
0
100
AcDbLine
 10
371.145
 20
-263.7069999999999
 30
0.0
 11
371.335
 21
-263.7779999999999
 31
0.0
  0
LINE
  5
59
330
17
100
AcDbEntity
  8
0
100
AcDbLine
 10
371.335
 20
-263.7779999999999
 30
0.0
 11
371.52
 21
-263.8629999999999
 31
0.0
  0
LINE
  5
5A
330
17
100
AcDbEntity
  8
0
100
AcDbLine
 10
371.52
 20
-263.8629999999999
 30
0.0
 11
371.698
 21
-263.9619999999999
 31
0.0
  0
LINE
  5
5B
330
17
100
AcDbEntity
  8
0
100
AcDbLine
 10
371.698
 20
-263.9619999999999
 30
0.0
 11
371.86899999999997
 21
-264.0749999999999
 31
0.0
  0
LINE
  5
5C
330
17
100
AcDbEntity
  8
0
100
AcDbLine
 10
371.86899999999997
 20
-264.0749999999999
 30
0.0
 11
372.03299999999996
 21
-264.20099999999985
 31
0.0
  0
LINE
  5
5D
330
17
100
AcDbEntity
  8
0
100
AcDbLine
 10
372.03299999999996
 20
-264.20099999999985
 30
0.0
 11
372.18899999999996
 21
-264.3389999999998
 31
0.0
  0
LINE
  5
5E
330
17
100
AcDbEntity
  8
0
100
AcDbLine
 10
372.18899999999996
 20
-264.3389999999998
 30
0.0
 11
372.33599999999996
 21
-264.4889999999998
 31
0.0
  0
LINE
  5
5F
330
17
100
AcDbEntity
  8
0
100
AcDbLine
 10
372.33599999999996
 20
-264.4889999999998
 30
0.0
 11
372.47299999999996
 21
-264.6509999999998
 31
0.0
  0
LINE
  5
60
330
17
100
AcDbEntity
  8
0
100
AcDbLine
 10
372.47299999999996
 20
-264.6509999999998
 30
0.0
 11
372.71599999999995
 21
-265.0079999999998
 31
0.0
  0
LINE
  5
61
330
17
100
AcDbEntity
  8
0
100
AcDbLine
 10
372.71599999999995
 20
-265.0079999999998
 30
0.0
 11
374.001
 21
-268.0459999999998
 31
0.0
  0
LINE
  5
62
330
17
100
AcDbEntity
  8
0
100
AcDbLine
 10
374.001
 20
-268.0459999999998
 30
0.0
 11
583.822
 21
-269.0459999999998
 31
0.0
  0
LINE
  5
63
330
17
100
AcDbEntity
  8
0
100
AcDbLine
 10
583.822
 20
-269.0459999999998
 30
0.0
 11
583.822
 21
-201.56499999999983
 31
0.0
  0
LINE
  5
64
330
17
100
AcDbEntity
  8
0
100
AcDbLine
 10
754.501
 20
-611.5429999999999
 30
0.0
 11
750.985
 21
-599.0029999999999
 31
0.0
  0
LINE
  5
65
330
17
100
AcDbEntity
  8
0
100
AcDbLine
 10
750.985
 20
-599.0029999999999
 30
0.0
 11
673.827
 21
-425.96899999999994
 31
0.0
  0
LINE
  5
66
330
17
100
AcDbEntity
  8
0
100
AcDbLine
 10
673.827
 20
-425.96899999999994
 30
0.0
 11
663.269
 21
-394.96199999999993
 31
0.0
  0
LINE
  5
67
330
17
100
AcDbEntity
  8
0
100
AcDbLine
 10
663.269
 20
-394.96199999999993
 30
0.0
 11
659.258
 21
-379.1049999999999
 31
0.0
  0
LINE
  5
68
330
17
100
AcDbEntity
  8
0
100
AcDbLine
 10
659.258
 20
-379.1049999999999
 30
0.0
 11
657.284
 21
-367.6099999999999
 31
0.0
  0
LINE
  5
69
330
17
100
AcDbEntity
  8
0
100
AcDbLine
 10
657.284
 20
-367.6099999999999
 30
0.0
 11
656.48
 21
-357.0049999999999
 31
0.0
  0
LINE
  5
6A
330
17
100
AcDbEntity
  8
0
100
AcDbLine
 10
656.48
 20
-357.0049999999999
 30
0.0
 11
656.73
 21
-347.2569999999999
 31
0.0
  0
LINE
  5
6B
330
17
100
AcDbEntity
  8
0
100
AcDbLine
 10
656.73
 20
-347.2569999999999
 30
0.0
 11
657.918
 21
-338.3319999999999
 31
0.0
  0
LINE
  5
6C
330
17
100
AcDbEntity
  8
0
100
AcDbLine
 10
657.918
 20
-338.3319999999999
 30
0.0
 11
659.928
 21
-330.1969999999999
 31
0.0
  0
LINE
  5
6D
330
17
100
AcDbEntity
  8
0
100
AcDbLine
 10
659.928
 20
-330.1969999999999
 30
0.0
 11
662.644
 21
-322.8189999999999
 31
0.0
  0
LINE
  5
6E
330
17
100
AcDbEntity
  8
0
100
AcDbLine
 10
662.644
 20
-322.8189999999999
 30
0.0
 11
665.951
 21
-316.1649999999999
 31
0.0
  0
LINE
  5
6F
330
17
100
AcDbEntity
  8
0
100
AcDbLine
 10
665.951
 20
-316.1649999999999
 30
0.0
 11
669.7330000000001
 21
-310.2009999999999
 31
0.0
  0
LINE
  5
70
330
17
100
AcDbEntity
  8
0
100
AcDbLine
 10
669.7330000000001
 20
-310.2009999999999
 30
0.0
 11
673.874
 21
-304.8939999999999
 31
0.0
  0
LINE
  5
71
330
17
100
AcDbEntity
  8
0
100
AcDbLine
 10
673.874
 20
-304.8939999999999
 30
0.0
 11
678.258
 21
-300.2109999999999
 31
0.0
  0
LINE
  5
72
330
17
100
AcDbEntity
  8
0
100
AcDbLine
 10
678.258
 20
-300.2109999999999
 30
0.0
 11
682.769
 21
-296.1179999999999
 31
0.0
  0
LINE
  5
73
330
17
100
AcDbEntity
  8
0
100
AcDbLine
 10
682.769
 20
-296.1179999999999
 30
0.0
 11
691.71
 21
-289.57099999999986
 31
0.0
  0
LINE
  5
74
330
17
100
AcDbEntity
  8
0
100
AcDbLine
 10
691.71
 20
-289.57099999999986
 30
0.0
 11
703.392
 21
-283.23799999999983
 31
0.0
  0
LINE
  5
75
330
17
100
AcDbEntity
  8
0
100
AcDbLine
 10
703.392
 20
-283.23799999999983
 30
0.0
 11
703.57
 21
-283.12199999999984
 31
0.0
  0
LINE
  5
76
330
17
100
AcDbEntity
  8
0
100
AcDbLine
 10
703.57
 20
-283.12199999999984
 30
0.0
 11
703.715
 21
-283.00099999999986
 31
0.0
  0
LINE
  5
77
330
17
100
AcDbEntity
  8
0
100
AcDbLine
 10
703.715
 20
-283.00099999999986
 30
0.0
 11
703.775
 21
-282.93899999999985
 31
0.0
  0
LINE
  5
78
330
17
100
AcDbEntity
  8
0
100
AcDbLine
 10
703.775
 20
-282.93899999999985
 30
0.0
 11
703.827
 21
-282.87699999999984
 31
0.0
  0
LINE
  5
79
330
17
100
AcDbEntity
  8
0
100
AcDbLine
 10
703.827
 20
-282.87699999999984
 30
0.0
 11
703.871
 21
-282.81399999999985
 31
0.0
  0
LINE
  5
7A
330
17
100
AcDbEntity
  8
0
100
AcDbLine
 10
703.871
 20
-282.81399999999985
 30
0.0
 11
703.9069999999999
 21
-282.75099999999986
 31
0.0
  0
LINE
  5
7B
330
17
100
AcDbEntity
  8
0
100
AcDbLine
 10
703.9069999999999
 20
-282.75099999999986
 30
0.0
 11
703.935
 21
-282.68899999999985
 31
0.0
  0
LINE
  5
7C
330
17
100
AcDbEntity
  8
0
100
AcDbLine
 10
703.935
 20
-282.68899999999985
 30
0.0
 11
703.9549999999999
 21
-282.62699999999984
 31
0.0
  0
LINE
  5
7D
330
17
100
AcDbEntity
  8
0
100
AcDbLine
 10
703.9549999999999
 20
-282.62699999999984
 30
0.0
 11
703.968
 21
-282.56599999999986
 31
0.0
  0
LINE
  5
7E
330
17
100
AcDbEntity
  8
0
100
AcDbLine
 10
703.968
 20
-282.56599999999986
 30
0.0
 11
703.973
 21
-282.50599999999986
 31
0.0
  0
LINE
  5
7F
330
17
100
AcDbEntity
  8
0
100
AcDbLine
 10
703.973
 20
-282.50599999999986
 30
0.0
 11
703.9699999999999
 21
-282.44699999999983
 31
0.0
  0
LINE
  5
80
330
17
100
AcDbEntity
  8
0
100
AcDbLine
 10
703.9699999999999
 20
-282.44699999999983
 30
0.0
 11
703.9599999999999
 21
-282.38899999999984
 31
0.0
  0
LINE
  5
81
330
17
100
AcDbEntity
  8
0
100
AcDbLine
 10
703.9599999999999
 20
-282.38899999999984
 30
0.0
 11
703.9419999999999
 21
-282.33299999999986
 31
0.0
  0
LINE
  5
82
330
17
100
AcDbEntity
  8
0
100
AcDbLine
 10
703.9419999999999
 20
-282.33299999999986
 30
0.0
 11
703.9169999999999
 21
-282.2789999999999
 31
0.0
  0
LINE
  5
83
330
17
100
AcDbEntity
  8
0
100
AcDbLine
 10
703.9169999999999
 20
-282.2789999999999
 30
0.0
 11
703.8849999999999
 21
-282.22699999999986
 31
0.0
  0
LINE
  5
84
330
17
100
AcDbEntity
  8
0
100
AcDbLine
 10
703.8849999999999
 20
-282.22699999999986
 30
0.0
 11
703.8449999999999
 21
-282.17699999999985
 31
0.0
  0
LINE
  5
85
330
17
100
AcDbEntity
  8
0
100
AcDbLine
 10
703.8449999999999
 20
-282.17699999999985
 30
0.0
 11
703.7979999999999
 21
-282.1299999999998
 31
0.0
  0
LINE
  5
86
330
17
100
AcDbEntity
  8
0
100
AcDbLine
 10
703.7979999999999
 20
-282.1299999999998
 30
0.0
 11
703.7439999999999
 21
-282.08599999999984
 31
0.0
  0
LINE
  5
87
330
17
100
AcDbEntity
  8
0
100
AcDbLine
 10
703.7439999999999
 20
-282.08599999999984
 30
0.0
 11
703.6829999999999
 21
-282.04499999999985
 31
0.0
  0
LINE
  5
88
330
17
100
AcDbEntity
  8
0
100
AcDbLine
 10
703.6829999999999
 20
-282.04499999999985
 30
0.0
 11
703.6149999999999
 21
-282.00699999999983
 31
0.0
  0
LINE
  5
89
330
17
100
AcDbEntity
  8
0
100
AcDbLine
 10
703.6149999999999
 20
-282.00699999999983
 30
0.0
 11
703.5399999999998
 21
-281.97299999999984
 31
0.0
  0
LINE
  5
8A
330
17
100
AcDbEntity
  8
0
100
AcDbLine
 10
703.5399999999998
 20
-281.97299999999984
 30
0.0
 11
703.3699999999999
 21
-281.91699999999986
 31
0.0
  0
LINE
  5
8B
330
17
100
AcDbEntity
  8
0
100
AcDbLine
 10
703.3699999999999
 20
-281.91699999999986
 30
0.0
 11
703.1729999999999
 21
-281.8779999999999
 31
0.0
  0
LINE
  5
8C
330
17
100
AcDbEntity
  8
0
100
AcDbLine
 10
703.1729999999999
 20
-281.8779999999999
 30
0.0
 11
702.9489999999998
 21
-281.8579999999999
 31
0.0
  0
LINE
  5
8D
330
17
100
AcDbEntity
  8
0
100
AcDbLine
 10
702.9489999999998
 20
-281.8579999999999
 30
0.0
 11
568.6289999999999
 21
-281.6779999999999
 31
0.0
  0
LINE
  5
8E
330
17
100
AcDbEntity
  8
0
100
AcDbLine
 10
568.6289999999999
 20
-281.6779999999999
 30
0.0
 11
568.0009999999999
 21
-281.7519999999999
 31
0.0
  0
LINE
  5
8F
330
17
100
AcDbEntity
  8
0
100
AcDbLine
 10
568.0009999999999
 20
-281.7519999999999
 30
0.0
 11
567.3929999999999
 21
-281.8919999999999
 31
0.0
  0
LINE
  5
90
330
17
100
AcDbEntity
  8
0
100
AcDbLine
 10
567.3929999999999
 20
-281.8919999999999
 30
0.0
 11
566.8079999999999
 21
-282.0959999999999
 31
0.0
  0
LINE
  5
91
330
17
100
AcDbEntity
  8
0
100
AcDbLine
 10
566.8079999999999
 20
-282.0959999999999
 30
0.0
 11
566.2489999999999
 21
-282.35899999999987
 31
0.0
  0
LINE
  5
92
330
17
100
AcDbEntity
  8
0
100
AcDbLine
 10
566.2489999999999
 20
-282.35899999999987
 30
0.0
 11
565.7199999999999
 21
-282.67899999999986
 31
0.0
  0
LINE
  5
93
330
17
100
AcDbEntity
  8
0
100
AcDbLine
 10
565.7199999999999
 20
-282.67899999999986
 30
0.0
 11
565.2239999999999
 21
-283.0509999999999
 31
0.0
  0
LINE
  5
94
330
17
100
AcDbEntity
  8
0
100
AcDbLine
 10
565.2239999999999
 20
-283.0509999999999
 30
0.0
 11
564.7629999999999
 21
-283.4729999999999
 31
0.0
  0
LINE
  5
95
330
17
100
AcDbEntity
  8
0
100
AcDbLine
 10
564.7629999999999
 20
-283.4729999999999
 30
0.0
 11
564.3409999999999
 21
-283.9409999999999
 31
0.0
  0
LINE
  5
96
330
17
100
AcDbEntity
  8
0
100
AcDbLine
 10
564.3409999999999
 20
-283.9409999999999
 30
0.0
 11
563.9609999999999
 21
-284.4509999999999
 31
0.0
  0
LINE
  5
97
330
17
100
AcDbEntity
  8
0
100
AcDbLine
 10
563.9609999999999
 20
-284.4509999999999
 30
0.0
 11
563.6259999999999
 21
-284.9999999999999
 31
0.0
  0
LINE
  5
98
330
17
100
AcDbEntity
  8
0
100
AcDbLine
 10
563.6259999999999
 20
-284.9999999999999
 30
0.0
 11
563.3389999999998
 21
-285.58499999999987
 31
0.0
  0
LINE
  5
99
330
17
100
AcDbEntity
  8
0
100
AcDbLine
 10
563.3389999999998
 20
-285.58499999999987
 30
0.0
 11
563.1029999999998
 21
-286.2019999999999
 31
0.0
  0
LINE
  5
9A
330
17
100
AcDbEntity
  8
0
100
AcDbLine
 10
563.1029999999998
 20
-286.2019999999999
 30
0.0
 11
562.9219999999998
 21
-286.8479999999999
 31
0.0
  0
LINE
  5
9B
330
17
100
AcDbEntity
  8
0
100
AcDbLine
 10
562.9219999999998
 20
-286.8479999999999
 30
0.0
 11
562.7979999999998
 21
-287.5189999999999
 31
0.0
  0
LINE
  5
9C
330
17
100
AcDbEntity
  8
0
100
AcDbLine
 10
562.7979999999998
 20
-287.5189999999999
 30
0.0
 11
562.7339999999998
 21
-288.2119999999999
 31
0.0
  0
LINE
  5
9D
330
17
100
AcDbEntity
  8
0
100
AcDbLine
 10
562.7339999999998
 20
-288.2119999999999
 30
0.0
 11
562.7189999999998
 21
-307.2539999999999
 31
0.0
  0
LINE
  5
9E
330
17
100
AcDbEntity
  8
0
100
AcDbLine
 10
562.7189999999998
 20
-307.2539999999999
 30
0.0
 11
562.6689999999999
 21
-307.8029999999999
 31
0.0
  0
LINE
  5
9F
330
17
100
AcDbEntity
  8
0
100
AcDbLine
 10
562.6689999999999
 20
-307.8029999999999
 30
0.0
 11
562.5699999999998
 21
-308.3339999999999
 31
0.0
  0
LINE
  5
A0
330
17
100
AcDbEntity
  8
0
100
AcDbLine
 10
562.5699999999998
 20
-308.3339999999999
 30
0.0
 11
562.4259999999998
 21
-308.8449999999999
 31
0.0
  0
LINE
  5
A1
330
17
100
AcDbEntity
  8
0
100
AcDbLine
 10
562.4259999999998
 20
-308.8449999999999
 30
0.0
 11
562.2389999999998
 21
-309.3329999999999
 31
0.0
  0
LINE
  5
A2
330
17
100
AcDbEntity
  8
0
100
AcDbLine
 10
562.2389999999998
 20
-309.3329999999999
 30
0.0
 11
562.0109999999999
 21
-309.79599999999994
 31
0.0
  0
LINE
  5
A3
330
17
100
AcDbEntity
  8
0
100
AcDbLine
 10
562.0109999999999
 20
-309.79599999999994
 30
0.0
 11
561.7449999999999
 21
-310.22999999999996
 31
0.0
  0
LINE
  5
A4
330
17
100
AcDbEntity
  8
0
100
AcDbLine
 10
561.7449999999999
 20
-310.22999999999996
 30
0.0
 11
561.4429999999999
 21
-310.633
 31
0.0
  0
LINE
  5
A5
330
17
100
AcDbEntity
  8
0
100
AcDbLine
 10
561.4429999999999
 20
-310.633
 30
0.0
 11
561.1079999999998
 21
-311.002
 31
0.0
  0
LINE
  5
A6
330
17
100
AcDbEntity
  8
0
100
AcDbLine
 10
561.1079999999998
 20
-311.002
 30
0.0
 11
560.7419999999998
 21
-311.33500000000004
 31
0.0
  0
LINE
  5
A7
330
17
100
AcDbEntity
  8
0
100
AcDbLine
 10
560.7419999999998
 20
-311.33500000000004
 30
0.0
 11
560.3479999999998
 21
-311.62800000000004
 31
0.0
  0
LINE
  5
A8
330
17
100
AcDbEntity
  8
0
100
AcDbLine
 10
560.3479999999998
 20
-311.62800000000004
 30
0.0
 11
559.9289999999999
 21
-311.879
 31
0.0
  0
LINE
  5
A9
330
17
100
AcDbEntity
  8
0
100
AcDbLine
 10
559.9289999999999
 20
-311.879
 30
0.0
 11
559.4859999999999
 21
-312.08500000000004
 31
0.0
  0
LINE
  5
AA
330
17
100
AcDbEntity
  8
0
100
AcDbLine
 10
559.4859999999999
 20
-312.08500000000004
 30
0.0
 11
559.0219999999998
 21
-312.244
 31
0.0
  0
LINE
  5
AB
330
17
100
AcDbEntity
  8
0
100
AcDbLine
 10
559.0219999999998
 20
-312.244
 30
0.0
 11
558.5399999999998
 21
-312.353
 31
0.0
  0
LINE
  5
AC
330
17
100
AcDbEntity
  8
0
100
AcDbLine
 10
558.5399999999998
 20
-312.353
 30
0.0
 11
558.0419999999998
 21
-312.409
 31
0.0
  0
LINE
  5
AD
330
17
100
AcDbEntity
  8
0
100
AcDbLine
 10
558.0419999999998
 20
-312.409
 30
0.0
 11
504.1859999999998
 21
-312.409
 31
0.0
  0
LINE
  5
AE
330
17
100
AcDbEntity
  8
0
100
AcDbLine
 10
504.1859999999998
 20
-312.409
 30
0.0
 11
503.6879999999998
 21
-312.353
 31
0.0
  0
LINE
  5
AF
330
17
100
AcDbEntity
  8
0
100
AcDbLine
 10
503.6879999999998
 20
-312.353
 30
0.0
 11
503.2059999999998
 21
-312.244
 31
0.0
  0
LINE
  5
B0
330
17
100
AcDbEntity
  8
0
100
AcDbLine
 10
503.2059999999998
 20
-312.244
 30
0.0
 11
502.7419999999998
 21
-312.08500000000004
 31
0.0
  0
LINE
  5
B1
330
17
100
AcDbEntity
  8
0
100
AcDbLine
 10
502.7419999999998
 20
-312.08500000000004
 30
0.0
 11
502.2989999999998
 21
-311.879
 31
0.0
  0
LINE
  5
B2
330
17
100
AcDbEntity
  8
0
100
AcDbLine
 10
502.2989999999998
 20
-311.879
 30
0.0
 11
501.8799999999998
 21
-311.62800000000004
 31
0.0
  0
LINE
  5
B3
330
17
100
AcDbEntity
  8
0
100
AcDbLine
 10
501.8799999999998
 20
-311.62800000000004
 30
0.0
 11
501.4859999999998
 21
-311.33500000000004
 31
0.0
  0
LINE
  5
B4
330
17
100
AcDbEntity
  8
0
100
AcDbLine
 10
501.4859999999998
 20
-311.33500000000004
 30
0.0
 11
501.1209999999998
 21
-311.002
 31
0.0
  0
LINE
  5
B5
330
17
100
AcDbEntity
  8
0
100
AcDbLine
 10
501.1209999999998
 20
-311.002
 30
0.0
 11
500.78599999999983
 21
-310.633
 31
0.0
  0
LINE
  5
B6
330
17
100
AcDbEntity
  8
0
100
AcDbLine
 10
500.78599999999983
 20
-310.633
 30
0.0
 11
500.4839999999998
 21
-310.22999999999996
 31
0.0
  0
LINE
  5
B7
330
17
100
AcDbEntity
  8
0
100
AcDbLine
 10
500.4839999999998
 20
-310.22999999999996
 30
0.0
 11
500.2179999999998
 21
-309.79599999999994
 31
0.0
  0
LINE
  5
B8
330
17
100
AcDbEntity
  8
0
100
AcDbLine
 10
500.2179999999998
 20
-309.79599999999994
 30
0.0
 11
499.9899999999998
 21
-309.3329999999999
 31
0.0
  0
LINE
  5
B9
330
17
100
AcDbEntity
  8
0
100
AcDbLine
 10
499.9899999999998
 20
-309.3329999999999
 30
0.0
 11
499.80299999999977
 21
-308.8449999999999
 31
0.0
  0
LINE
  5
BA
330
17
100
AcDbEntity
  8
0
100
AcDbLine
 10
499.80299999999977
 20
-308.8449999999999
 30
0.0
 11
499.65899999999976
 21
-308.3339999999999
 31
0.0
  0
LINE
  5
BB
330
17
100
AcDbEntity
  8
0
100
AcDbLine
 10
499.65899999999976
 20
-308.3339999999999
 30
0.0
 11
499.56099999999975
 21
-307.8029999999999
 31
0.0
  0
LINE
  5
BC
330
17
100
AcDbEntity
  8
0
100
AcDbLine
 10
499.56099999999975
 20
-307.8029999999999
 30
0.0
 11
499.50399999999973
 21
-306.9739999999999
 31
0.0
  0
LINE
  5
BD
330
17
100
AcDbEntity
  8
0
100
AcDbLine
 10
499.50399999999973
 20
-306.9739999999999
 30
0.0
 11
500.50399999999973
 21
-288.96999999999986
 31
0.0
  0
LINE
  5
BE
330
17
100
AcDbEntity
  8
0
100
AcDbLine
 10
500.50399999999973
 20
-288.96999999999986
 30
0.0
 11
500.47199999999975
 21
-288.2649999999999
 31
0.0
  0
LINE
  5
BF
330
17
100
AcDbEntity
  8
0
100
AcDbLine
 10
500.47199999999975
 20
-288.2649999999999
 30
0.0
 11
500.3769999999997
 21
-287.58099999999985
 31
0.0
  0
LINE
  5
C0
330
17
100
AcDbEntity
  8
0
100
AcDbLine
 10
500.3769999999997
 20
-287.58099999999985
 30
0.0
 11
500.22199999999975
 21
-286.9209999999998
 31
0.0
  0
LINE
  5
C1
330
17
100
AcDbEntity
  8
0
100
AcDbLine
 10
500.22199999999975
 20
-286.9209999999998
 30
0.0
 11
500.01099999999974
 21
-286.28799999999984
 31
0.0
  0
LINE
  5
C2
330
17
100
AcDbEntity
  8
0
100
AcDbLine
 10
500.01099999999974
 20
-286.28799999999984
 30
0.0
 11
499.74699999999973
 21
-285.68599999999986
 31
0.0
  0
LINE
  5
C3
330
17
100
AcDbEntity
  8
0
100
AcDbLine
 10
499.74699999999973
 20
-285.68599999999986
 30
0.0
 11
499.4329999999997
 21
-285.1179999999999
 31
0.0
  0
LINE
  5
C4
330
17
100
AcDbEntity
  8
0
100
AcDbLine
 10
499.4329999999997
 20
-285.1179999999999
 30
0.0
 11
499.0719999999997
 21
-284.5879999999999
 31
0.0
  0
LINE
  5
C5
330
17
100
AcDbEntity
  8
0
100
AcDbLine
 10
499.0719999999997
 20
-284.5879999999999
 30
0.0
 11
498.6679999999997
 21
-284.0999999999999
 31
0.0
  0
LINE
  5
C6
330
17
100
AcDbEntity
  8
0
100
AcDbLine
 10
498.6679999999997
 20
-284.0999999999999
 30
0.0
 11
498.22299999999973
 21
-283.6569999999999
 31
0.0
  0
LINE
  5
C7
330
17
100
AcDbEntity
  8
0
100
AcDbLine
 10
498.22299999999973
 20
-283.6569999999999
 30
0.0
 11
497.7409999999997
 21
-283.26199999999994
 31
0.0
  0
LINE
  5
C8
330
17
100
AcDbEntity
  8
0
100
AcDbLine
 10
497.7409999999997
 20
-283.26199999999994
 30
0.0
 11
497.2249999999997
 21
-282.9189999999999
 31
0.0
  0
LINE
  5
C9
330
17
100
AcDbEntity
  8
0
100
AcDbLine
 10
497.2249999999997
 20
-282.9189999999999
 30
0.0
 11
496.67799999999966
 21
-282.6309999999999
 31
0.0
  0
LINE
  5
CA
330
17
100
AcDbEntity
  8
0
100
AcDbLine
 10
496.67799999999966
 20
-282.6309999999999
 30
0.0
 11
496.10299999999967
 21
-282.40199999999993
 31
0.0
  0
LINE
  5
CB
330
17
100
AcDbEntity
  8
0
100
AcDbLine
 10
496.10299999999967
 20
-282.40199999999993
 30
0.0
 11
495.50299999999964
 21
-282.23499999999996
 31
0.0
  0
LINE
  5
CC
330
17
100
AcDbEntity
  8
0
100
AcDbLine
 10
495.50299999999964
 20
-282.23499999999996
 30
0.0
 11
494.88199999999966
 21
-282.13399999999996
 31
0.0
  0
LINE
  5
CD
330
17
100
AcDbEntity
  8
0
100
AcDbLine
 10
494.88199999999966
 20
-282.13399999999996
 30
0.0
 11
390.48599999999965
 21
-281.68699999999995
 31
0.0
  0
LINE
  5
CE
330
17
100
AcDbEntity
  8
0
100
AcDbLine
 10
390.48599999999965
 20
-281.68699999999995
 30
0.0
 11
391.73399999999964
 21
-284.06899999999996
 31
0.0
  0
LINE
  5
CF
330
17
100
AcDbEntity
  8
0
100
AcDbLine
 10
391.73399999999964
 20
-284.06899999999996
 30
0.0
 11
394.71699999999964
 21
-291.14799999999997
 31
0.0
  0
LINE
  5
D0
330
17
100
AcDbEntity
  8
0
100
AcDbLine
 10
394.71699999999964
 20
-291.14799999999997
 30
0.0
 11
398.29599999999965
 21
-302.82699999999994
 31
0.0
  0
LINE
  5
D1
330
17
100
AcDbEntity
  8
0
100
AcDbLine
 10
398.29599999999965
 20
-302.82699999999994
 30
0.0
 11
401.33199999999965
 21
-319.0079999999999
 31
0.0
  0
LINE
  5
D2
330
17
100
AcDbEntity
  8
0
100
AcDbLine
 10
401.33199999999965
 20
-319.0079999999999
 30
0.0
 11
401.33499999999964
 21
-319.00699999999995
 31
0.0
  0
LINE
  5
D3
330
17
100
AcDbEntity
  8
0
100
AcDbLine
 10
401.33499999999964
 20
-319.00699999999995
 30
0.0
 11
401.3599999999996
 21
-319.00399999999996
 31
0.0
  0
LINE
  5
D4
330
17
100
AcDbEntity
  8
0
100
AcDbLine
 10
401.3599999999996
 20
-319.00399999999996
 30
0.0
 11
453.16699999999963
 21
-321.97999999999996
 31
0.0
  0
LINE
  5
D5
330
17
100
AcDbEntity
  8
0
100
AcDbLine
 10
453.16699999999963
 20
-321.97999999999996
 30
0.0
 11
469.3739999999996
 21
-324.28499999999997
 31
0.0
  0
LINE
  5
D6
330
17
100
AcDbEntity
  8
0
100
AcDbLine
 10
469.3739999999996
 20
-324.28499999999997
 30
0.0
 11
476.2709999999996
 21
-326.102
 31
0.0
  0
LINE
  5
D7
330
17
100
AcDbEntity
  8
0
100
AcDbLine
 10
476.2709999999996
 20
-326.102
 30
0.0
 11
482.44599999999963
 21
-328.51599999999996
 31
0.0
  0
LINE
  5
D8
330
17
100
AcDbEntity
  8
0
100
AcDbLine
 10
482.44599999999963
 20
-328.51599999999996
 30
0.0
 11
485.28199999999964
 21
-329.98299999999995
 31
0.0
  0
LINE
  5
D9
330
17
100
AcDbEntity
  8
0
100
AcDbLine
 10
485.28199999999964
 20
-329.98299999999995
 30
0.0
 11
487.95999999999964
 21
-331.64199999999994
 31
0.0
  0
LINE
  5
DA
330
17
100
AcDbEntity
  8
0
100
AcDbLine
 10
487.95999999999964
 20
-331.64199999999994
 30
0.0
 11
490.48899999999963
 21
-333.5079999999999
 31
0.0
  0
LINE
  5
DB
330
17
100
AcDbEntity
  8
0
100
AcDbLine
 10
490.48899999999963
 20
-333.5079999999999
 30
0.0
 11
492.87599999999964
 21
-335.59599999999995
 31
0.0
  0
LINE
  5
DC
330
17
100
AcDbEntity
  8
0
100
AcDbLine
 10
492.87599999999964
 20
-335.59599999999995
 30
0.0
 11
495.1289999999996
 21
-337.9189999999999
 31
0.0
  0
LINE
  5
DD
330
17
100
AcDbEntity
  8
0
100
AcDbLine
 10
495.1289999999996
 20
-337.9189999999999
 30
0.0
 11
497.2549999999996
 21
-340.4919999999999
 31
0.0
  0
LINE
  5
DE
330
17
100
AcDbEntity
  8
0
100
AcDbLine
 10
497.2549999999996
 20
-340.4919999999999
 30
0.0
 11
501.1579999999996
 21
-346.4459999999999
 31
0.0
  0
LINE
  5
DF
330
17
100
AcDbEntity
  8
0
100
AcDbLine
 10
501.1579999999996
 20
-346.4459999999999
 30
0.0
 11
504.6479999999996
 21
-353.5729999999999
 31
0.0
  0
LINE
  5
E0
330
17
100
AcDbEntity
  8
0
100
AcDbLine
 10
504.6479999999996
 20
-353.5729999999999
 30
0.0
 11
507.7859999999996
 21
-361.9889999999999
 31
0.0
  0
LINE
  5
E1
330
17
100
AcDbEntity
  8
0
100
AcDbLine
 10
507.7859999999996
 20
-361.9889999999999
 30
0.0
 11
511.9689999999996
 21
-377.2799999999999
 31
0.0
  0
LINE
  5
E2
330
17
100
AcDbEntity
  8
0
100
AcDbLine
 10
511.9689999999996
 20
-377.2799999999999
 30
0.0
 11
535.4019999999996
 21
-370.7339999999999
 31
0.0
  0
LINE
  5
E3
330
17
100
AcDbEntity
  8
0
100
AcDbLine
 10
535.4019999999996
 20
-370.7339999999999
 30
0.0
 11
535.9489999999996
 21
-370.6459999999999
 31
0.0
  0
LINE
  5
E4
330
17
100
AcDbEntity
  8
0
100
AcDbLine
 10
535.9489999999996
 20
-370.6459999999999
 30
0.0
 11
536.4959999999996
 21
-370.5999999999999
 31
0.0
  0
LINE
  5
E5
330
17
100
AcDbEntity
  8
0
100
AcDbLine
 10
536.4959999999996
 20
-370.5999999999999
 30
0.0
 11
537.0419999999997
 21
-370.5959999999999
 31
0.0
  0
LINE
  5
E6
330
17
100
AcDbEntity
  8
0
100
AcDbLine
 10
537.0419999999997
 20
-370.5959999999999
 30
0.0
 11
537.5839999999997
 21
-370.6319999999999
 31
0.0
  0
LINE
  5
E7
330
17
100
AcDbEntity
  8
0
100
AcDbLine
 10
537.5839999999997
 20
-370.6319999999999
 30
0.0
 11
538.1189999999997
 21
-370.7079999999999
 31
0.0
  0
LINE
  5
E8
330
17
100
AcDbEntity
  8
0
100
AcDbLine
 10
538.1189999999997
 20
-370.7079999999999
 30
0.0
 11
538.6459999999997
 21
-370.8239999999999
 31
0.0
  0
LINE
  5
E9
330
17
100
AcDbEntity
  8
0
100
AcDbLine
 10
538.6459999999997
 20
-370.8239999999999
 30
0.0
 11
539.1619999999997
 21
-370.97899999999987
 31
0.0
  0
LINE
  5
EA
330
17
100
AcDbEntity
  8
0
100
AcDbLine
 10
539.1619999999997
 20
-370.97899999999987
 30
0.0
 11
539.6639999999996
 21
-371.17199999999985
 31
0.0
  0
LINE
  5
EB
330
17
100
AcDbEntity
  8
0
100
AcDbLine
 10
539.6639999999996
 20
-371.17199999999985
 30
0.0
 11
540.1499999999996
 21
-371.4019999999999
 31
0.0
  0
LINE
  5
EC
330
17
100
AcDbEntity
  8
0
100
AcDbLine
 10
540.1499999999996
 20
-371.4019999999999
 30
0.0
 11
540.6179999999996
 21
-371.66899999999987
 31
0.0
  0
LINE
  5
ED
330
17
100
AcDbEntity
  8
0
100
AcDbLine
 10
540.6179999999996
 20
-371.66899999999987
 30
0.0
 11
541.0649999999996
 21
-371.97199999999987
 31
0.0
  0
LINE
  5
EE
330
17
100
AcDbEntity
  8
0
100
AcDbLine
 10
541.0649999999996
 20
-371.97199999999987
 30
0.0
 11
541.4889999999996
 21
-372.31099999999986
 31
0.0
  0
LINE
  5
EF
330
17
100
AcDbEntity
  8
0
100
AcDbLine
 10
541.4889999999996
 20
-372.31099999999986
 30
0.0
 11
541.8879999999996
 21
-372.6849999999999
 31
0.0
  0
LINE
  5
F0
330
17
100
AcDbEntity
  8
0
100
AcDbLine
 10
541.8879999999996
 20
-372.6849999999999
 30
0.0
 11
542.2589999999996
 21
-373.0929999999999
 31
0.0
  0
LINE
  5
F1
330
17
100
AcDbEntity
  8
0
100
AcDbLine
 10
542.2589999999996
 20
-373.0929999999999
 30
0.0
 11
543.0839999999996
 21
-374.2519999999999
 31
0.0
  0
LINE
  5
F2
330
17
100
AcDbEntity
  8
0
100
AcDbLine
 10
543.0839999999996
 20
-374.2519999999999
 30
0.0
 11
544.0449999999996
 21
-375.9259999999999
 31
0.0
  0
LINE
  5
F3
330
17
100
AcDbEntity
  8
0
100
AcDbLine
 10
544.0449999999996
 20
-375.9259999999999
 30
0.0
 11
544.9639999999996
 21
-377.94299999999987
 31
0.0
  0
LINE
  5
F4
330
17
100
AcDbEntity
  8
0
100
AcDbLine
 10
544.9639999999996
 20
-377.94299999999987
 30
0.0
 11
545.7999999999996
 21
-380.33099999999985
 31
0.0
  0
LINE
  5
F5
330
17
100
AcDbEntity
  8
0
100
AcDbLine
 10
545.7999999999996
 20
-380.33099999999985
 30
0.0
 11
546.5119999999996
 21
-383.1179999999998
 31
0.0
  0
LINE
  5
F6
330
17
100
AcDbEntity
  8
0
100
AcDbLine
 10
546.5119999999996
 20
-383.1179999999998
 30
0.0
 11
547.0579999999997
 21
-386.3319999999998
 31
0.0
  0
LINE
  5
F7
330
17
100
AcDbEntity
  8
0
100
AcDbLine
 10
547.0579999999997
 20
-386.3319999999998
 30
0.0
 11
547.3979999999997
 21
-390.0009999999998
 31
0.0
  0
LINE
  5
F8
330
17
100
AcDbEntity
  8
0
100
AcDbLine
 10
547.3979999999997
 20
-390.0009999999998
 30
0.0
 11
547.3839999999997
 21
-396.9919999999998
 31
0.0
  0
LINE
  5
F9
330
17
100
AcDbEntity
  8
0
100
AcDbLine
 10
547.3839999999997
 20
-396.9919999999998
 30
0.0
 11
547.2939999999996
 21
-397.5549999999998
 31
0.0
  0
LINE
  5
FA
330
17
100
AcDbEntity
  8
0
100
AcDbLine
 10
547.2939999999996
 20
-397.5549999999998
 30
0.0
 11
547.1629999999997
 21
-398.1049999999998
 31
0.0
  0
LINE
  5
FB
330
17
100
AcDbEntity
  8
0
100
AcDbLine
 10
547.1629999999997
 20
-398.1049999999998
 30
0.0
 11
546.9909999999996
 21
-398.6399999999998
 31
0.0
  0
LINE
  5
FC
330
17
100
AcDbEntity
  8
0
100
AcDbLine
 10
546.9909999999996
 20
-398.6399999999998
 30
0.0
 11
546.7799999999996
 21
-399.1569999999998
 31
0.0
  0
LINE
  5
FD
330
17
100
AcDbEntity
  8
0
100
AcDbLine
 10
546.7799999999996
 20
-399.1569999999998
 30
0.0
 11
546.5319999999996
 21
-399.6549999999998
 31
0.0
  0
LINE
  5
FE
330
17
100
AcDbEntity
  8
0
100
AcDbLine
 10
546.5319999999996
 20
-399.6549999999998
 30
0.0
 11
546.2479999999996
 21
-400.1319999999998
 31
0.0
  0
LINE
  5
FF
330
17
100
AcDbEntity
  8
0
100
AcDbLine
 10
546.2479999999996
 20
-400.1319999999998
 30
0.0
 11
545.9299999999996
 21
-400.5859999999998
 31
0.0
  0
LINE
  5
100
330
17
100
AcDbEntity
  8
0
100
AcDbLine
 10
545.9299999999996
 20
-400.5859999999998
 30
0.0
 11
545.5779999999996
 21
-401.0139999999998
 31
0.0
  0
LINE
  5
101
330
17
100
AcDbEntity
  8
0
100
AcDbLine
 10
545.5779999999996
 20
-401.0139999999998
 30
0.0
 11
545.1949999999996
 21
-401.4149999999998
 31
0.0
  0
LINE
  5
102
330
17
100
AcDbEntity
  8
0
100
AcDbLine
 10
545.1949999999996
 20
-401.4149999999998
 30
0.0
 11
544.7819999999996
 21
-401.7869999999998
 31
0.0
  0
LINE
  5
103
330
17
100
AcDbEntity
  8
0
100
AcDbLine
 10
544.7819999999996
 20
-401.7869999999998
 30
0.0
 11
544.3399999999996
 21
-402.1269999999998
 31
0.0
  0
LINE
  5
104
330
17
100
AcDbEntity
  8
0
100
AcDbLine
 10
544.3399999999996
 20
-402.1269999999998
 30
0.0
 11
543.8709999999995
 21
-402.4339999999998
 31
0.0
  0
LINE
  5
105
330
17
100
AcDbEntity
  8
0
100
AcDbLine
 10
543.8709999999995
 20
-402.4339999999998
 30
0.0
 11
543.3759999999995
 21
-402.7059999999998
 31
0.0
  0
LINE
  5
106
330
17
100
AcDbEntity
  8
0
100
AcDbLine
 10
543.3759999999995
 20
-402.7059999999998
 30
0.0
 11
542.8569999999995
 21
-402.9409999999998
 31
0.0
  0
LINE
  5
107
330
17
100
AcDbEntity
  8
0
100
AcDbLine
 10
542.8569999999995
 20
-402.9409999999998
 30
0.0
 11
542.3149999999995
 21
-403.13699999999983
 31
0.0
  0
LINE
  5
108
330
17
100
AcDbEntity
  8
0
100
AcDbLine
 10
542.3149999999995
 20
-403.13699999999983
 30
0.0
 11
526.2929999999994
 21
-407.5289999999998
 31
0.0
  0
LINE
  5
109
330
17
100
AcDbEntity
  8
0
100
AcDbLine
 10
526.2929999999994
 20
-407.5289999999998
 30
0.0
 11
539.6799999999994
 21
-441.56399999999985
 31
0.0
  0
LINE
  5
10A
330
17
100
AcDbEntity
  8
0
100
AcDbLine
 10
539.6799999999994
 20
-441.56399999999985
 30
0.0
 11
542.5719999999994
 21
-453.08999999999986
 31
0.0
  0
LINE
  5
10B
330
17
100
AcDbEntity
  8
0
100
AcDbLine
 10
542.5719999999994
 20
-453.08999999999986
 30
0.0
 11
543.1729999999994
 21
-457.84699999999987
 31
0.0
  0
LINE
  5
10C
330
17
100
AcDbEntity
  8
0
100
AcDbLine
 10
543.1729999999994
 20
-457.84699999999987
 30
0.0
 11
543.3159999999995
 21
-462.6559999999999
 31
0.0
  0
LINE
  5
10D
330
17
100
AcDbEntity
  8
0
100
AcDbLine
 10
543.3159999999995
 20
-462.6559999999999
 30
0.0
 11
542.9159999999995
 21
-467.4009999999999
 31
0.0
  0
LINE
  5
10E
330
17
100
AcDbEntity
  8
0
100
AcDbLine
 10
542.9159999999995
 20
-467.4009999999999
 30
0.0
 11
542.4859999999995
 21
-469.7129999999999
 31
0.0
  0
LINE
  5
10F
330
17
100
AcDbEntity
  8
0
100
AcDbLine
 10
542.4859999999995
 20
-469.7129999999999
 30
0.0
 11
540.1389999999996
 21
-477.5139999999999
 31
0.0
  0
LINE
  5
110
330
17
100
AcDbEntity
  8
0
100
AcDbLine
 10
540.1389999999996
 20
-477.5139999999999
 30
0.0
 11
539.8559999999995
 21
-478.9179999999999
 31
0.0
  0
LINE
  5
111
330
17
100
AcDbEntity
  8
0
100
AcDbLine
 10
539.8559999999995
 20
-478.9179999999999
 30
0.0
 11
539.7199999999996
 21
-480.31799999999987
 31
0.0
  0
LINE
  5
112
330
17
100
AcDbEntity
  8
0
100
AcDbLine
 10
539.7199999999996
 20
-480.31799999999987
 30
0.0
 11
539.7199999999996
 21
-481.0149999999999
 31
0.0
  0
LINE
  5
113
330
17
100
AcDbEntity
  8
0
100
AcDbLine
 10
539.7199999999996
 20
-481.0149999999999
 30
0.0
 11
539.7729999999996
 21
-481.7089999999999
 31
0.0
  0
LINE
  5
114
330
17
100
AcDbEntity
  8
0
100
AcDbLine
 10
539.7729999999996
 20
-481.7089999999999
 30
0.0
 11
539.8839999999996
 21
-482.3989999999999
 31
0.0
  0
LINE
  5
115
330
17
100
AcDbEntity
  8
0
100
AcDbLine
 10
539.8839999999996
 20
-482.3989999999999
 30
0.0
 11
540.0589999999995
 21
-483.0839999999999
 31
0.0
  0
LINE
  5
116
330
17
100
AcDbEntity
  8
0
100
AcDbLine
 10
540.0589999999995
 20
-483.0839999999999
 30
0.0
 11
540.3169999999996
 21
-483.7969999999999
 31
0.0
  0
LINE
  5
117
330
17
100
AcDbEntity
  8
0
100
AcDbLine
 10
540.3169999999996
 20
-483.7969999999999
 30
0.0
 11
540.6319999999996
 21
-484.44499999999994
 31
0.0
  0
LINE
  5
118
330
17
100
AcDbEntity
  8
0
100
AcDbLine
 10
540.6319999999996
 20
-484.44499999999994
 30
0.0
 11
540.9989999999996
 21
-485.03299999999996
 31
0.0
  0
LINE
  5
119
330
17
100
AcDbEntity
  8
0
100
AcDbLine
 10
540.9989999999996
 20
-485.03299999999996
 30
0.0
 11
541.4119999999996
 21
-485.56699999999995
 31
0.0
  0
LINE
  5
11A
330
17
100
AcDbEntity
  8
0
100
AcDbLine
 10
541.4119999999996
 20
-485.56699999999995
 30
0.0
 11
541.8669999999996
 21
-486.05199999999996
 31
0.0
  0
LINE
  5
11B
330
17
100
AcDbEntity
  8
0
100
AcDbLine
 10
541.8669999999996
 20
-486.05199999999996
 30
0.0
 11
542.3579999999996
 21
-486.49299999999994
 31
0.0
  0
LINE
  5
11C
330
17
100
AcDbEntity
  8
0
100
AcDbLine
 10
542.3579999999996
 20
-486.49299999999994
 30
0.0
 11
543.4299999999996
 21
-487.26499999999993
 31
0.0
  0
LINE
  5
11D
330
17
100
AcDbEntity
  8
0
100
AcDbLine
 10
543.4299999999996
 20
-487.26499999999993
 30
0.0
 11
549.4729999999996
 21
-490.42799999999994
 31
0.0
  0
LINE
  5
11E
330
17
100
AcDbEntity
  8
0
100
AcDbLine
 10
549.4729999999996
 20
-490.42799999999994
 30
0.0
 11
551.9299999999996
 21
-492.24199999999996
 31
0.0
  0
LINE
  5
11F
330
17
100
AcDbEntity
  8
0
100
AcDbLine
 10
551.9299999999996
 20
-492.24199999999996
 30
0.0
 11
554.1919999999996
 21
-494.417
 31
0.0
  0
LINE
  5
120
330
17
100
AcDbEntity
  8
0
100
AcDbLine
 10
554.1919999999996
 20
-494.417
 30
0.0
 11
556.2569999999996
 21
-496.911
 31
0.0
  0
LINE
  5
121
330
17
100
AcDbEntity
  8
0
100
AcDbLine
 10
556.2569999999996
 20
-496.911
 30
0.0
 11
558.1199999999997
 21
-499.679
 31
0.0
  0
LINE
  5
122
330
17
100
AcDbEntity
  8
0
100
AcDbLine
 10
558.1199999999997
 20
-499.679
 30
0.0
 11
559.7789999999997
 21
-502.678
 31
0.0
  0
LINE
  5
123
330
17
100
AcDbEntity
  8
0
100
AcDbLine
 10
559.7789999999997
 20
-502.678
 30
0.0
 11
561.2299999999997
 21
-505.864
 31
0.0
  0
LINE
  5
124
330
17
100
AcDbEntity
  8
0
100
AcDbLine
 10
561.2299999999997
 20
-505.864
 30
0.0
 11
563.4929999999997
 21
-512.622
 31
0.0
  0
LINE
  5
125
330
17
100
AcDbEntity
  8
0
100
AcDbLine
 10
563.4929999999997
 20
-512.622
 30
0.0
 11
564.8829999999997
 21
-519.6039999999999
 31
0.0
  0
LINE
  5
126
330
17
100
AcDbEntity
  8
0
100
AcDbLine
 10
564.8829999999997
 20
-519.6039999999999
 30
0.0
 11
565.3719999999997
 21
-526.4599999999999
 31
0.0
  0
LINE
  5
127
330
17
100
AcDbEntity
  8
0
100
AcDbLine
 10
565.3719999999997
 20
-526.4599999999999
 30
0.0
 11
565.2699999999998
 21
-529.732
 31
0.0
  0
LINE
  5
128
330
17
100
AcDbEntity
  8
0
100
AcDbLine
 10
565.2699999999998
 20
-529.732
 30
0.0
 11
564.9329999999998
 21
-532.841
 31
0.0
  0
LINE
  5
129
330
17
100
AcDbEntity
  8
0
100
AcDbLine
 10
564.9329999999998
 20
-532.841
 30
0.0
 11
564.3569999999997
 21
-535.744
 31
0.0
  0
LINE
  5
12A
330
17
100
AcDbEntity
  8
0
100
AcDbLine
 10
564.3569999999997
 20
-535.744
 30
0.0
 11
562.3179999999998
 21
-542.301
 31
0.0
  0
LINE
  5
12B
330
17
100
AcDbEntity
  8
0
100
AcDbLine
 10
562.3179999999998
 20
-542.301
 30
0.0
 11
562.0039999999998
 21
-543.705
 31
0.0
  0
LINE
  5
12C
330
17
100
AcDbEntity
  8
0
100
AcDbLine
 10
562.0039999999998
 20
-543.705
 30
0.0
 11
561.8269999999998
 21
-545.106
 31
0.0
  0
LINE
  5
12D
330
17
100
AcDbEntity
  8
0
100
AcDbLine
 10
561.8269999999998
 20
-545.106
 30
0.0
 11
561.8029999999998
 21
-545.804
 31
0.0
  0
LINE
  5
12E
330
17
100
AcDbEntity
  8
0
100
AcDbLine
 10
561.8029999999998
 20
-545.804
 30
0.0
 11
561.8289999999997
 21
-546.499
 31
0.0
  0
LINE
  5
12F
330
17
100
AcDbEntity
  8
0
100
AcDbLine
 10
561.8289999999997
 20
-546.499
 30
0.0
 11
561.9109999999997
 21
-547.191
 31
0.0
  0
LINE
  5
130
330
17
100
AcDbEntity
  8
0
100
AcDbLine
 10
561.9109999999997
 20
-547.191
 30
0.0
 11
562.0539999999997
 21
-547.879
 31
0.0
  0
LINE
  5
131
330
17
100
AcDbEntity
  8
0
100
AcDbLine
 10
562.0539999999997
 20
-547.879
 30
0.0
 11
562.2719999999997
 21
-548.586
 31
0.0
  0
LINE
  5
132
330
17
100
AcDbEntity
  8
0
100
AcDbLine
 10
562.2719999999997
 20
-548.586
 30
0.0
 11
562.5589999999997
 21
-549.266
 31
0.0
  0
LINE
  5
133
330
17
100
AcDbEntity
  8
0
100
AcDbLine
 10
562.5589999999997
 20
-549.266
 30
0.0
 11
562.8999999999997
 21
-549.8829999999999
 31
0.0
  0
LINE
  5
134
330
17
100
AcDbEntity
  8
0
100
AcDbLine
 10
562.8999999999997
 20
-549.8829999999999
 30
0.0
 11
563.2909999999997
 21
-550.4429999999999
 31
0.0
  0
LINE
  5
135
330
17
100
AcDbEntity
  8
0
100
AcDbLine
 10
563.2909999999997
 20
-550.4429999999999
 30
0.0
 11
563.7259999999997
 21
-550.9509999999999
 31
0.0
  0
LINE
  5
136
330
17
100
AcDbEntity
  8
0
100
AcDbLine
 10
563.7259999999997
 20
-550.9509999999999
 30
0.0
 11
564.1999999999997
 21
-551.4129999999999
 31
0.0
  0
LINE
  5
137
330
17
100
AcDbEntity
  8
0
100
AcDbLine
 10
564.1999999999997
 20
-551.4129999999999
 30
0.0
 11
565.2439999999997
 21
-552.2189999999999
 31
0.0
  0
LINE
  5
138
330
17
100
AcDbEntity
  8
0
100
AcDbLine
 10
565.2439999999997
 20
-552.2189999999999
 30
0.0
 11
579.7839999999997
 21
-559.977
 31
0.0
  0
LINE
  5
139
330
17
100
AcDbEntity
  8
0
100
AcDbLine
 10
579.7839999999997
 20
-559.977
 30
0.0
 11
581.7029999999996
 21
-561.422
 31
0.0
  0
LINE
  5
13A
330
17
100
AcDbEntity
  8
0
100
AcDbLine
 10
581.7029999999996
 20
-561.422
 30
0.0
 11
582.5699999999996
 21
-562.201
 31
0.0
  0
LINE
  5
13B
330
17
100
AcDbEntity
  8
0
100
AcDbLine
 10
582.5699999999996
 20
-562.201
 30
0.0
 11
583.3579999999996
 21
-563.019
 31
0.0
  0
LINE
  5
13C
330
17
100
AcDbEntity
  8
0
100
AcDbLine
 10
583.3579999999996
 20
-563.019
 30
0.0
 11
584.0529999999997
 21
-563.878
 31
0.0
  0
LINE
  5
13D
330
17
100
AcDbEntity
  8
0
100
AcDbLine
 10
584.0529999999997
 20
-563.878
 30
0.0
 11
584.6429999999997
 21
-564.7800000000001
 31
0.0
  0
LINE
  5
13E
330
17
100
AcDbEntity
  8
0
100
AcDbLine
 10
584.6429999999997
 20
-564.7800000000001
 30
0.0
 11
596.0319999999997
 21
-590.8790000000001
 31
0.0
  0
LINE
  5
13F
330
17
100
AcDbEntity
  8
0
100
AcDbLine
 10
596.0319999999997
 20
-590.8790000000001
 30
0.0
 11
606.5139999999997
 21
-621.1720000000001
 31
0.0
  0
LINE
  5
140
330
17
100
AcDbEntity
  8
0
100
AcDbLine
 10
606.5139999999997
 20
-621.1720000000001
 30
0.0
 11
607.1789999999996
 21
-622.6510000000002
 31
0.0
  0
LINE
  5
141
330
17
100
AcDbEntity
  8
0
100
AcDbLine
 10
607.1789999999996
 20
-622.6510000000002
 30
0.0
 11
607.9909999999996
 21
-624.0190000000002
 31
0.0
  0
LINE
  5
142
330
17
100
AcDbEntity
  8
0
100
AcDbLine
 10
607.9909999999996
 20
-624.0190000000002
 30
0.0
 11
608.9379999999996
 21
-625.2640000000002
 31
0.0
  0
LINE
  5
143
330
17
100
AcDbEntity
  8
0
100
AcDbLine
 10
608.9379999999996
 20
-625.2640000000002
 30
0.0
 11
610.0079999999997
 21
-626.3750000000002
 31
0.0
  0
LINE
  5
144
330
17
100
AcDbEntity
  8
0
100
AcDbLine
 10
610.0079999999997
 20
-626.3750000000002
 30
0.0
 11
611.1899999999997
 21
-627.3400000000003
 31
0.0
  0
LINE
  5
145
330
17
100
AcDbEntity
  8
0
100
AcDbLine
 10
611.1899999999997
 20
-627.3400000000003
 30
0.0
 11
612.4719999999998
 21
-628.1480000000003
 31
0.0
  0
LINE
  5
146
330
17
100
AcDbEntity
  8
0
100
AcDbLine
 10
612.4719999999998
 20
-628.1480000000003
 30
0.0
 11
613.8429999999997
 21
-628.7870000000003
 31
0.0
  0
LINE
  5
147
330
17
100
AcDbEntity
  8
0
100
AcDbLine
 10
613.8429999999997
 20
-628.7870000000003
 30
0.0
 11
614.5579999999998
 21
-629.0390000000002
 31
0.0
  0
LINE
  5
148
330
17
100
AcDbEntity
  8
0
100
AcDbLine
 10
614.5579999999998
 20
-629.0390000000002
 30
0.0
 11
620.1179999999997
 21
-630.2480000000002
 31
0.0
  0
LINE
  5
149
330
17
100
AcDbEntity
  8
0
100
AcDbLine
 10
620.1179999999997
 20
-630.2480000000002
 30
0.0
 11
642.0589999999997
 21
-632.1370000000002
 31
0.0
  0
LINE
  5
14A
330
17
100
AcDbEntity
  8
0
100
AcDbLine
 10
642.0589999999997
 20
-632.1370000000002
 30
0.0
 11
744.3159999999998
 21
-629.9630000000002
 31
0.0
  0
LINE
  5
14B
330
17
100
AcDbEntity
  8
0
100
AcDbLine
 10
744.3159999999998
 20
-629.9630000000002
 30
0.0
 11
745.0339999999998
 21
-629.8430000000002
 31
0.0
  0
LINE
  5
14C
330
17
100
AcDbEntity
  8
0
100
AcDbLine
 10
745.0339999999998
 20
-629.8430000000002
 30
0.0
 11
745.7329999999997
 21
-629.6740000000002
 31
0.0
  0
LINE
  5
14D
330
17
100
AcDbEntity
  8
0
100
AcDbLine
 10
745.7329999999997
 20
-629.6740000000002
 30
0.0
 11
746.4119999999997
 21
-629.4570000000002
 31
0.0
  0
LINE
  5
14E
330
17
100
AcDbEntity
  8
0
100
AcDbLine
 10
746.4119999999997
 20
-629.4570000000002
 30
0.0
 11
747.7089999999997
 21
-628.8870000000002
 31
0.0
  0
LINE
  5
14F
330
17
100
AcDbEntity
  8
0
100
AcDbLine
 10
747.7089999999997
 20
-628.8870000000002
 30
0.0
 11
748.9179999999997
 21
-628.1490000000001
 31
0.0
  0
LINE
  5
150
330
17
100
AcDbEntity
  8
0
100
AcDbLine
 10
748.9179999999997
 20
-628.1490000000001
 30
0.0
 11
750.0329999999997
 21
-627.2580000000002
 31
0.0
  0
LINE
  5
151
330
17
100
AcDbEntity
  8
0
100
AcDbLine
 10
750.0329999999997
 20
-627.2580000000002
 30
0.0
 11
751.0489999999996
 21
-626.2280000000002
 31
0.0
  0
LINE
  5
152
330
17
100
AcDbEntity
  8
0
100
AcDbLine
 10
751.0489999999996
 20
-626.2280000000002
 30
0.0
 11
751.9599999999996
 21
-625.0740000000002
 31
0.0
  0
LINE
  5
153
330
17
100
AcDbEntity
  8
0
100
AcDbLine
 10
751.9599999999996
 20
-625.0740000000002
 30
0.0
 11
752.7609999999996
 21
-623.8100000000002
 31
0.0
  0
LINE
  5
154
330
17
100
AcDbEntity
  8
0
100
AcDbLine
 10
752.7609999999996
 20
-623.8100000000002
 30
0.0
 11
753.4459999999996
 21
-622.4520000000002
 31
0.0
  0
LINE
  5
155
330
17
100
AcDbEntity
  8
0
100
AcDbLine
 10
753.4459999999996
 20
-622.4520000000002
 30
0.0
 11
754.0089999999996
 21
-621.0140000000002
 31
0.0
  0
LINE
  5
156
330
17
100
AcDbEntity
  8
0
100
AcDbLine
 10
754.0089999999996
 20
-621.0140000000002
 30
0.0
 11
754.4439999999995
 21
-619.5110000000002
 31
0.0
  0
LINE
  5
157
330
17
100
AcDbEntity
  8
0
100
AcDbLine
 10
754.4439999999995
 20
-619.5110000000002
 30
0.0
 11
754.7459999999995
 21
-617.9580000000002
 31
0.0
  0
LINE
  5
158
330
17
100
AcDbEntity
  8
0
100
AcDbLine
 10
754.7459999999995
 20
-617.9580000000002
 30
0.0
 11
754.9089999999995
 21
-616.3700000000002
 31
0.0
  0
LINE
  5
159
330
17
100
AcDbEntity
  8
0
100
AcDbLine
 10
754.9089999999995
 20
-616.3700000000002
 30
0.0
 11
754.9269999999996
 21
-614.7620000000003
 31
0.0
  0
LINE
  5
15A
330
17
100
AcDbEntity
  8
0
100
AcDbLine
 10
754.9269999999996
 20
-614.7620000000003
 30
0.0
 11
754.7939999999995
 21
-613.1480000000003
 31
0.0
  0
LINE
  5
15B
330
17
100
AcDbEntity
  8
0
100
AcDbLine
 10
754.7939999999995
 20
-613.1480000000003
 30
0.0
 11
754.5049999999995
 21
-611.5430000000002
 31
0.0
  0
LINE
  5
15C
330
17
100
AcDbEntity
  8
0
100
AcDbLine
 10
401.33799999999957
 20
-319.01300000000026
 30
0.0
 11
401.3369999999996
 21
-319.0070000000003
 31
0.0
  0
LINE
  5
15D
330
17
100
AcDbEntity
  8
0
100
AcDbLine
 10
401.3369999999996
 20
-319.0070000000003
 30
0.0
 11
401.3349999999996
 21
-319.00800000000027
 31
0.0
  0
LINE
  5
15E
330
17
100
AcDbEntity
  8
0
100
AcDbLine
 10
401.3349999999996
 20
-319.00800000000027
 30
0.0
 11
401.3339999999996
 21
-319.00900000000024
 31
0.0
  0
LINE
  5
15F
330
17
100
AcDbEntity
  8
0
100
AcDbLine
 10
401.3339999999996
 20
-319.00900000000024
 30
0.0
 11
401.3349999999996
 21
-319.00900000000024
 31
0.0
  0
LINE
  5
160
330
17
100
AcDbEntity
  8
0
100
AcDbLine
 10
401.3349999999996
 20
-319.00900000000024
 30
0.0
 11
401.33599999999956
 21
-319.0100000000002
 31
0.0
  0
LINE
  5
161
330
17
100
AcDbEntity
  8
0
100
AcDbLine
 10
401.33599999999956
 20
-319.0100000000002
 30
0.0
 11
401.33799999999957
 21
-319.0110000000002
 31
0.0
  0
LINE
  5
162
330
17
100
AcDbEntity
  8
0
100
AcDbLine
 10
336.9549999999996
 20
-280.8520000000002
 30
0.0
 11
256.9939999999996
 21
-280.8520000000002
 31
0.0
  0
LINE
  5
163
330
17
100
AcDbEntity
  8
0
100
AcDbLine
 10
256.9939999999996
 20
-280.8520000000002
 30
0.0
 11
256.8399999999996
 21
-282.1430000000002
 31
0.0
  0
LINE
  5
164
330
17
100
AcDbEntity
  8
0
100
AcDbLine
 10
256.8399999999996
 20
-282.1430000000002
 30
0.0
 11
256.6659999999996
 21
-285.9040000000002
 31
0.0
  0
LINE
  5
165
330
17
100
AcDbEntity
  8
0
100
AcDbLine
 10
256.6659999999996
 20
-285.9040000000002
 30
0.0
 11
256.9039999999996
 21
-291.9700000000002
 31
0.0
  0
LINE
  5
166
330
17
100
AcDbEntity
  8
0
100
AcDbLine
 10
256.9039999999996
 20
-291.9700000000002
 30
0.0
 11
257.9849999999996
 21
-300.1740000000002
 31
0.0
  0
LINE
  5
167
330
17
100
AcDbEntity
  8
0
100
AcDbLine
 10
257.9849999999996
 20
-300.1740000000002
 30
0.0
 11
258.34699999999964
 21
-301.7850000000002
 31
0.0
  0
LINE
  5
168
330
17
100
AcDbEntity
  8
0
100
AcDbLine
 10
258.34699999999964
 20
-301.7850000000002
 30
0.0
 11
258.84399999999965
 21
-303.3340000000002
 31
0.0
  0
LINE
  5
169
330
17
100
AcDbEntity
  8
0
100
AcDbLine
 10
258.84399999999965
 20
-303.3340000000002
 30
0.0
 11
259.4679999999997
 21
-304.8160000000002
 31
0.0
  0
LINE
  5
16A
330
17
100
AcDbEntity
  8
0
100
AcDbLine
 10
259.4679999999997
 20
-304.8160000000002
 30
0.0
 11
260.2129999999997
 21
-306.2250000000002
 31
0.0
  0
LINE
  5
16B
330
17
100
AcDbEntity
  8
0
100
AcDbLine
 10
260.2129999999997
 20
-306.2250000000002
 30
0.0
 11
261.0709999999997
 21
-307.5550000000002
 31
0.0
  0
LINE
  5
16C
330
17
100
AcDbEntity
  8
0
100
AcDbLine
 10
261.0709999999997
 20
-307.5550000000002
 30
0.0
 11
262.03599999999966
 21
-308.80100000000016
 31
0.0
  0
LINE
  5
16D
330
17
100
AcDbEntity
  8
0
100
AcDbLine
 10
262.03599999999966
 20
-308.80100000000016
 30
0.0
 11
263.10099999999966
 21
-309.95600000000013
 31
0.0
  0
LINE
  5
16E
330
17
100
AcDbEntity
  8
0
100
AcDbLine
 10
263.10099999999966
 20
-309.95600000000013
 30
0.0
 11
264.25799999999964
 21
-311.01500000000016
 31
0.0
  0
LINE
  5
16F
330
17
100
AcDbEntity
  8
0
100
AcDbLine
 10
264.25799999999964
 20
-311.01500000000016
 30
0.0
 11
265.50099999999964
 21
-311.9710000000002
 31
0.0
  0
LINE
  5
170
330
17
100
AcDbEntity
  8
0
100
AcDbLine
 10
265.50099999999964
 20
-311.9710000000002
 30
0.0
 11
266.82299999999964
 21
-312.8190000000002
 31
0.0
  0
LINE
  5
171
330
17
100
AcDbEntity
  8
0
100
AcDbLine
 10
266.82299999999964
 20
-312.8190000000002
 30
0.0
 11
268.21699999999964
 21
-313.55300000000017
 31
0.0
  0
LINE
  5
172
330
17
100
AcDbEntity
  8
0
100
AcDbLine
 10
268.21699999999964
 20
-313.55300000000017
 30
0.0
 11
269.67599999999965
 21
-314.16700000000014
 31
0.0
  0
LINE
  5
173
330
17
100
AcDbEntity
  8
0
100
AcDbLine
 10
269.67599999999965
 20
-314.16700000000014
 30
0.0
 11
271.19299999999964
 21
-314.65500000000014
 31
0.0
  0
LINE
  5
174
330
17
100
AcDbEntity
  8
0
100
AcDbLine
 10
271.19299999999964
 20
-314.65500000000014
 30
0.0
 11
272.7609999999996
 21
-315.01100000000014
 31
0.0
  0
LINE
  5
175
330
17
100
AcDbEntity
  8
0
100
AcDbLine
 10
272.7609999999996
 20
-315.01100000000014
 30
0.0
 11
274.37299999999965
 21
-315.23000000000013
 31
0.0
  0
LINE
  5
176
330
17
100
AcDbEntity
  8
0
100
AcDbLine
 10
274.37299999999965
 20
-315.23000000000013
 30
0.0
 11
350.2129999999996
 21
-315.36400000000015
 31
0.0
  0
LINE
  5
177
330
17
100
AcDbEntity
  8
0
100
AcDbLine
 10
350.2129999999996
 20
-315.36400000000015
 30
0.0
 11
349.7969999999996
 21
-314.97600000000017
 31
0.0
  0
LINE
  5
178
330
17
100
AcDbEntity
  8
0
100
AcDbLine
 10
349.7969999999996
 20
-314.97600000000017
 30
0.0
 11
348.6679999999996
 21
-313.7250000000002
 31
0.0
  0
LINE
  5
179
330
17
100
AcDbEntity
  8
0
100
AcDbLine
 10
348.6679999999996
 20
-313.7250000000002
 30
0.0
 11
347.0049999999996
 21
-311.48100000000017
 31
0.0
  0
LINE
  5
17A
330
17
100
AcDbEntity
  8
0
100
AcDbLine
 10
347.0049999999996
 20
-311.48100000000017
 30
0.0
 11
344.9869999999996
 21
-308.11600000000016
 31
0.0
  0
LINE
  5
17B
330
17
100
AcDbEntity
  8
0
100
AcDbLine
 10
344.9869999999996
 20
-308.11600000000016
 30
0.0
 11
342.79399999999964
 21
-303.50000000000017
 31
0.0
  0
LINE
  5
17C
330
17
100
AcDbEntity
  8
0
100
AcDbLine
 10
342.79399999999964
 20
-303.50000000000017
 30
0.0
 11
340.6049999999996
 21
-297.5040000000002
 31
0.0
  0
LINE
  5
17D
330
17
100
AcDbEntity
  8
0
100
AcDbLine
 10
340.6049999999996
 20
-297.5040000000002
 30
0.0
 11
338.5999999999996
 21
-289.99800000000016
 31
0.0
  0
LINE
  5
17E
330
17
100
AcDbEntity
  8
0
100
AcDbLine
 10
338.5999999999996
 20
-289.99800000000016
 30
0.0
 11
336.95699999999965
 21
-280.8530000000002
 31
0.0
  0
LINE
  5
17F
330
17
100
AcDbEntity
  8
0
100
AcDbLine
 10
59.90499999999963
 20
-278.1170000000002
 30
0.0
 11
61.53899999999963
 21
-281.4490000000002
 31
0.0
  0
LINE
  5
180
330
17
100
AcDbEntity
  8
0
100
AcDbLine
 10
61.53899999999963
 20
-281.4490000000002
 30
0.0
 11
62.50999999999963
 21
-283.0520000000002
 31
0.0
  0
LINE
  5
181
330
17
100
AcDbEntity
  8
0
100
AcDbLine
 10
62.50999999999963
 20
-283.0520000000002
 30
0.0
 11
63.58399999999963
 21
-284.5710000000002
 31
0.0
  0
LINE
  5
182
330
17
100
AcDbEntity
  8
0
100
AcDbLine
 10
63.58399999999963
 20
-284.5710000000002
 30
0.0
 11
64.75499999999963
 21
-286.0020000000002
 31
0.0
  0
LINE
  5
183
330
17
100
AcDbEntity
  8
0
100
AcDbLine
 10
64.75499999999963
 20
-286.0020000000002
 30
0.0
 11
67.36499999999963
 21
-288.5860000000002
 31
0.0
  0
LINE
  5
184
330
17
100
AcDbEntity
  8
0
100
AcDbLine
 10
67.36499999999963
 20
-288.5860000000002
 30
0.0
 11
70.29499999999963
 21
-290.77400000000017
 31
0.0
  0
LINE
  5
185
330
17
100
AcDbEntity
  8
0
100
AcDbLine
 10
70.29499999999963
 20
-290.77400000000017
 30
0.0
 11
73.49799999999964
 21
-292.53700000000015
 31
0.0
  0
LINE
  5
186
330
17
100
AcDbEntity
  8
0
100
AcDbLine
 10
73.49799999999964
 20
-292.53700000000015
 30
0.0
 11
76.92899999999963
 21
-293.84500000000014
 31
0.0
  0
LINE
  5
187
330
17
100
AcDbEntity
  8
0
100
AcDbLine
 10
76.92899999999963
 20
-293.84500000000014
 30
0.0
 11
78.71599999999964
 21
-294.31900000000013
 31
0.0
  0
LINE
  5
188
330
17
100
AcDbEntity
  8
0
100
AcDbLine
 10
78.71599999999964
 20
-294.31900000000013
 30
0.0
 11
80.54299999999964
 21
-294.6680000000001
 31
0.0
  0
LINE
  5
189
330
17
100
AcDbEntity
  8
0
100
AcDbLine
 10
80.54299999999964
 20
-294.6680000000001
 30
0.0
 11
82.40399999999964
 21
-294.8890000000001
 31
0.0
  0
LINE
  5
18A
330
17
100
AcDbEntity
  8
0
100
AcDbLine
 10
82.40399999999964
 20
-294.8890000000001
 30
0.0
 11
241.20799999999963
 21
-296.6970000000001
 31
0.0
  0
LINE
  5
18B
330
17
100
AcDbEntity
  8
0
100
AcDbLine
 10
241.20799999999963
 20
-296.6970000000001
 30
0.0
 11
241.22399999999962
 21
-296.6860000000001
 31
0.0
  0
LINE
  5
18C
330
17
100
AcDbEntity
  8
0
100
AcDbLine
 10
241.22399999999962
 20
-296.6860000000001
 30
0.0
 11
241.2389999999996
 21
-296.6520000000001
 31
0.0
  0
LINE
  5
18D
330
17
100
AcDbEntity
  8
0
100
AcDbLine
 10
241.2389999999996
 20
-296.6520000000001
 30
0.0
 11
241.25299999999962
 21
-296.5960000000001
 31
0.0
  0
LINE
  5
18E
330
17
100
AcDbEntity
  8
0
100
AcDbLine
 10
241.25299999999962
 20
-296.5960000000001
 30
0.0
 11
241.20799999999963
 21
-280.85500000000013
 31
0.0
  0
LINE
  5
18F
330
17
100
AcDbEntity
  8
0
100
AcDbLine
 10
241.20799999999963
 20
-280.85500000000013
 30
0.0
 11
59.905999999999636
 21
-278.11900000000014
 31
0.0
  0
ENDSEC
  0
SECTION
  2
OBJECTS
  0
DICTIONARY
  5
A
330
0
100
AcDbDictionary
281
1
  3
ACAD_COLOR
350
B
  3
ACAD_GROUP
350
C
  3
ACAD_LAYOUT
350
D
  3
ACAD_MATERIAL
350
E
  3
ACAD_MLEADERSTYLE
350
F
  3
ACAD_MLINESTYLE
350
10
  3
ACAD_PLOTSETTINGS
350
11
  3
ACAD_PLOTSTYLENAME
350
12
  3
ACAD_SCALELIST
350
14
  3
ACAD_TABLESTYLE
350
15
  3
ACAD_VISUALSTYLE
350
16
  3
EZDXF_META
350
2D
  0
DICTIONARY
  5
B
330
A
100
AcDbDictionary
281
1
  0
DICTIONARY
  5
C
330
A
100
AcDbDictionary
281
1
  0
DICTIONARY
  5
D
330
A
100
AcDbDictionary
281
1
  3
Model
350
1A
  3
Layout1
350
1E
  0
DICTIONARY
  5
E
330
A
100
AcDbDictionary
281
1
  3
ByBlock
350
1F
  3
ByLayer
350
20
  3
Global
350
21
  0
DICTIONARY
  5
F
330
A
100
AcDbDictionary
281
1
  3
Standard
350
2C
  0
DICTIONARY
  5
10
330
A
100
AcDbDictionary
281
1
  3
Standard
350
22
  0
DICTIONARY
  5
11
330
A
100
AcDbDictionary
281
1
  0
ACDBDICTIONARYWDFLT
  5
12
330
A
100
AcDbDictionary
281
1
  3
Normal
350
13
100
AcDbDictionaryWithDefault
340
13
  0
ACDBPLACEHOLDER
  5
13
330
12
  0
DICTIONARY
  5
14
330
A
100
AcDbDictionary
281
1
  0
DICTIONARY
  5
15
330
A
100
AcDbDictionary
281
1
  0
DICTIONARY
  5
16
330
A
100
AcDbDictionary
281
1
  0
LAYOUT
  5
1A
330
D
100
AcDbPlotSettings
  1

  4
A3
  6

 40
7.5
 41
20.0
 42
7.5
 43
20.0
 44
420.0
 45
297.0
 46
0.0
 47
0.0
 48
0.0
 49
0.0
140
0.0
141
0.0
142
1.0
143
1.0
 70
1024
 72
1
 73
0
 74
5
  7

 75
16
 76
0
 77
2
 78
300
147
1.0
148
0.0
149
0.0
100
AcDbLayout
  1
Model
 70
1
 71
0
 10
0.0
 20
0.0
 11
420.0
 21
297.0
 12
0.0
 22
0.0
 32
0.0
 14
1e+20
 24
1e+20
 34
1e+20
 15
-1e+20
 25
-1e+20
 35
-1e+20
146
0.0
 13
0.0
 23
0.0
 33
0.0
 16
1.0
 26
0.0
 36
0.0
 17
0.0
 27
1.0
 37
0.0
 76
1
330
17
  0
LAYOUT
  5
1E
330
D
100
AcDbPlotSettings
  1

  4
A3
  6

 40
7.5
 41
20.0
 42
7.5
 43
20.0
 44
420.0
 45
297.0
 46
0.0
 47
0.0
 48
0.0
 49
0.0
140
0.0
141
0.0
142
1.0
143
1.0
 70
0
 72
1
 73
0
 74
5
  7

 75
16
 76
0
 77
2
 78
300
147
1.0
148
0.0
149
0.0
100
AcDbLayout
  1
Layout1
 70
1
 71
1
 10
0.0
 20
0.0
 11
420.0
 21
297.0
 12
0.0
 22
0.0
 32
0.0
 14
1e+20
 24
1e+20
 34
1e+20
 15
-1e+20
 25
-1e+20
 35
-1e+20
146
0.0
 13
0.0
 23
0.0
 33
0.0
 16
1.0
 26
0.0
 36
0.0
 17
0.0
 27
1.0
 37
0.0
 76
1
330
1B
  0
MATERIAL
  5
1F
102
{ACAD_REACTORS
330
E
102
}
330
E
100
AcDbMaterial
  1
ByBlock
  2

 70
0
 40
1.0
 71
1
 41
1.0
 91
-1023410177
 42
1.0
 72
1
  3

 73
1
 74
1
 75
1
 44
0.5
 73
0
 45
1.0
 46
1.0
 77
1
  4

 78
1
 79
1
170
1
 48
1.0
171
1
  6

172
1
173
1
174
1
140
1.0
141
1.0
175
1
  7

176
1
177
1
178
1
143
1.0
179
1
  8

270
1
271
1
272
1
145
1.0
146
1.0
273
1
  9

274
1
275
1
276
1
 42
1.0
 72
1
  3

 73
1
 74
1
 75
1
 94
63
  0
MATERIAL
  5
20
102
{ACAD_REACTORS
330
E
102
}
330
E
100
AcDbMaterial
  1
ByLayer
  2

 70
0
 40
1.0
 71
1
 41
1.0
 91
-1023410177
 42
1.0
 72
1
  3

 73
1
 74
1
 75
1
 44
0.5
 73
0
 45
1.0
 46
1.0
 77
1
  4

 78
1
 79
1
170
1
 48
1.0
171
1
  6

172
1
173
1
174
1
140
1.0
141
1.0
175
1
  7

176
1
177
1
178
1
143
1.0
179
1
  8

270
1
271
1
272
1
145
1.0
146
1.0
273
1
  9

274
1
275
1
276
1
 42
1.0
 72
1
  3

 73
1
 74
1
 75
1
 94
63
  0
MATERIAL
  5
21
102
{ACAD_REACTORS
330
E
102
}
330
E
100
AcDbMaterial
  1
Global
  2

 70
0
 40
1.0
 71
1
 41
1.0
 91
-1023410177
 42
1.0
 72
1
  3

 73
1
 74
1
 75
1
 44
0.5
 73
0
 45
1.0
 46
1.0
 77
1
  4

 78
1
 79
1
170
1
 48
1.0
171
1
  6

172
1
173
1
174
1
140
1.0
141
1.0
175
1
  7

176
1
177
1
178
1
143
1.0
179
1
  8

270
1
271
1
272
1
145
1.0
146
1.0
273
1
  9

274
1
275
1
276
1
 42
1.0
 72
1
  3

 73
1
 74
1
 75
1
 94
63
  0
MLINESTYLE
  5
22
102
{ACAD_REACTORS
330
10
102
}
330
10
100
AcDbMlineStyle
  2
Standard
 70
0
  3

 62
256
 51
90.0
 52
90.0
 71
2
 49
0.5
 62
256
  6
BYLAYER
 49
-0.5
 62
256
  6
BYLAYER
  0
MLEADERSTYLE
  5
2C
102
{ACAD_REACTORS
330
F
102
}
330
F
100
AcDbMLeaderStyle
179
2
170
2
171
1
172
0
 90
2
 40
0.0
 41
0.0
173
1
 91
-1056964608
 92
-2
290
1
 42
2.0
291
1
 43
8.0
  3
Standard
 44
4.0
300

342
29
174
1
175
1
176
0
178
1
 93
-1056964608
 45
4.0
292
0
297
0
 46
4.0
 94
-1056964608
 47
1.0
 49
1.0
140
1.0
294
1
141
0.0
177
0
142
1.0
295
0
296
0
143
3.75
271
0
272
9
273
9
  0
DICTIONARY
  5
2D
330
A
100
AcDbDictionary
280
1
281
1
  3
CREATED_BY_EZDXF
350
2E
  3
WRITTEN_BY_EZDXF
350
192
  0
DICTIONARYVAR
  5
2E
330
2D
100
DictionaryVariables
280
0
  1
1.4.3 @ 2026-04-08T00:10:11.020552+00:00
  0
DICTIONARYVAR
  5
192
330
2D
100
DictionaryVariables
280
0
  1
1.4.3 @ 2026-04-08T00:10:11.024141+00:00
  0
ENDSEC
  0
EOF
