<?xml version="1.0" encoding="utf-8"?>
<!-- Generator: Fusion 360, Shaper Origin Export Add-In, Version 1.9.0  -->
<svg xmlns="http://www.w3.org/2000/svg" xmlns:xlink="http://www.w3.org/1999/xlink" xmlns:shaper="http://www.shapertools.com/namespaces/shaper" shaper:fusionaddin="version:1.9.0" width="10.950832cm" height="8.8cm" version="1.1" x="0cm" y="0cm" viewBox="0 0 10.950832 8.8" enable-background="new 0 0 10.950832 8.8" xml:space="preserve"><path d="M14.3095025,15.2106288 L14.6277386,14.1449561 13.2657301,14.1960806 12.9601472,15.221138 14.3095025,15.2106288z" transform="matrix(1,0,0,-1,-12.9601472,15.2482906)" stroke="rgb(100,100,100)" stroke-width="0.0010cm" stroke-linecap="round" stroke-linejoin="round" fill="none" /><path d="M18.3499646,11.5619872 L20.4443336,6.4482906 23.4970342,6.6952728 23.7929994,6.8845666 23.9109792,7.2254431 23.5168895,8.6356686 23.0026007,9.7118307 22.5179794,10.505168 21.9652065,11.7618566 21.6563076,13.2299047 21.5878907,13.7191551 21.6323773,13.873169 21.8178698,14.18358 22.0743618,14.5520813 22.3100999,14.783251 22.4758315,14.9161139 22.6345128,15.0085618 22.9836513,15.2103386 23.1117481,15.2376458 19.6518005,15.214594 19.6455764,15.0225329 19.6123594,14.8133561 19.5177831,14.6465289 19.2935201,14.6245427 18.6904792,14.6206198 18.1585396,14.6239355 18.0019954,14.746181 17.9601196,14.8877069 17.9467929,15.205396 15.2741161,15.2482906 15.6285934,14.1086639 16.5852474,14.0940319 16.8740055,14.0182825 17.1205234,13.8458611 17.3875713,13.6165689 17.5488224,13.28266 17.9529725,12.4064738 19.0166036,12.706872 19.3116533,11.8598685 18.3499646,11.5619872z" transform="matrix(1,0,0,-1,-12.9601472,15.2482906)" stroke="rgb(100,100,100)" stroke-width="0.0010cm" stroke-linecap="round" stroke-linejoin="round" fill="none" /></svg>