<svg xmlns="http://www.w3.org/2000/svg" viewBox="27.852 79.236 114.464 70.912" width="114.464mm" height="70.912mm">
  <g transform="scale(1,-1)" fill="none" stroke="black" stroke-width="0.05">
    <path d="M123.972,-149.144L123.268,-149.147L122.752,-149.130L121.903,-149.052L121.407,-148.965L120.941,-148.846L120.941,-148.715L122.457,-147.840L123.972,-148.715L123.972,-149.144Z M127.503,-149.035L124.472,-149.130L124.472,-148.715L125.988,-147.840L127.503,-148.715L127.503,-149.035Z M131.030,-148.924L128.003,-149.019L128.003,-148.715L129.519,-147.840L131.035,-148.715L131.030,-148.924Z M134.566,-148.812L131.535,-148.908L131.535,-148.715L133.050,-147.840L134.566,-148.715L134.566,-148.812Z M138.001,-148.660L137.110,-148.730L135.066,-148.796L135.066,-148.715L136.581,-147.840L138.001,-148.660Z M140.272,-147.932L139.997,-148.101L139.742,-148.227L139.334,-148.382L139.010,-148.476L140.112,-147.840L140.272,-147.932Z M118.676,-147.020L118.552,-146.717L118.412,-146.292L118.188,-145.375L118.676,-145.657L118.676,-147.020Z M122.207,-145.657L120.691,-144.782L119.176,-145.657L119.176,-147.407L120.691,-148.282L122.207,-147.407Z M125.738,-145.657L124.222,-144.782L122.707,-145.657L122.707,-147.407L124.222,-148.282L125.738,-147.407Z M129.269,-145.657L127.753,-144.782L126.238,-145.657L126.238,-147.407L127.753,-148.282L129.269,-147.407Z M132.800,-145.657L131.285,-144.782L129.769,-145.657L129.769,-147.407L131.285,-148.282L132.800,-147.407Z M136.331,-145.657L134.816,-144.782L133.300,-145.657L133.300,-147.407L134.816,-148.282L136.331,-147.407Z M139.862,-145.657L138.347,-144.782L136.831,-145.657L136.831,-147.407L138.347,-148.282L139.862,-147.407Z M141.276,-145.129L141.312,-145.554L141.314,-145.853L141.282,-146.246L141.228,-146.533L141.145,-146.811L141.030,-147.079L140.834,-147.398L140.674,-147.587L140.362,-147.407L140.362,-145.657L141.276,-145.129Z M118.058,-144.723L117.867,-143.818L117.530,-142.530L118.926,-141.724L120.441,-142.599L120.441,-144.349L118.926,-145.224L118.058,-144.723Z M123.972,-142.599L122.457,-141.724L120.941,-142.599L120.941,-144.349L122.457,-145.224L123.972,-144.349Z M127.503,-142.599L125.988,-141.724L124.472,-142.599L124.472,-144.349L125.988,-145.224L127.503,-144.349Z M131.035,-142.599L129.519,-141.724L128.003,-142.599L128.003,-144.349L129.519,-145.224L131.035,-144.349Z M134.566,-142.599L133.050,-141.724L131.535,-142.599L131.535,-144.349L133.050,-145.224L134.566,-144.349Z M138.097,-142.599L136.581,-141.724L135.066,-142.599L135.066,-144.349L136.581,-145.224L138.097,-144.349Z M140.519,-141.959L141.091,-144.164L141.190,-144.602L140.112,-145.224L138.597,-144.349L138.597,-142.599L140.112,-141.724L140.519,-141.959Z M117.397,-142.029L116.579,-139.002L117.160,-138.666L118.676,-139.541L118.676,-141.291L117.397,-142.029Z M122.207,-139.541L120.691,-138.666L119.176,-139.541L119.176,-141.291L120.691,-142.166L122.207,-141.291Z M125.738,-139.541L124.222,-138.666L122.707,-139.541L122.707,-141.291L124.222,-142.166L125.738,-141.291Z M129.269,-139.541L127.753,-138.666L126.238,-139.541L126.238,-141.291L127.753,-142.166L129.269,-141.291Z M132.800,-139.541L131.285,-138.666L129.769,-139.541L129.769,-141.291L131.285,-142.166L132.800,-141.291Z M136.331,-139.541L134.816,-138.666L133.300,-139.541L133.300,-141.291L134.816,-142.166L136.331,-141.291Z M139.862,-139.541L138.347,-138.666L136.831,-139.541L136.831,-141.291L138.347,-142.166L139.862,-141.291Z M116.442,-138.503L116.079,-137.185L115.689,-135.778L116.910,-136.483L116.910,-138.233L116.442,-138.503Z M120.441,-136.483L118.926,-135.608L117.410,-136.483L117.410,-138.233L118.926,-139.108L120.441,-138.233Z M123.972,-136.483L122.457,-135.608L120.941,-136.483L120.941,-138.233L122.457,-139.108L123.972,-138.233Z M127.503,-136.483L125.988,-135.608L124.472,-136.483L124.472,-138.233L125.988,-139.108L127.503,-138.233Z M131.035,-136.483L129.519,-135.608L128.003,-136.483L128.003,-138.233L129.519,-139.108L131.035,-138.233Z M134.566,-136.483L133.050,-135.608L131.535,-136.483L131.535,-138.233L133.050,-139.108L134.566,-138.233Z M138.097,-136.483L136.581,-135.608L135.066,-136.483L135.066,-138.233L136.581,-139.108L138.097,-138.233Z M138.981,-136.261L139.576,-138.423L139.696,-138.868L138.597,-138.233L138.597,-136.483L138.981,-136.261Z M115.010,-133.347L115.145,-133.425L115.145,-133.828L115.010,-133.347Z M118.676,-133.425L117.160,-132.550L115.645,-133.425L115.645,-135.175L117.160,-136.050L118.676,-135.175Z M122.207,-133.425L120.691,-132.550L119.176,-133.425L119.176,-135.175L120.691,-136.050L122.207,-135.175Z M125.738,-133.425L124.222,-132.550L122.707,-133.425L122.707,-135.175L124.222,-136.050L125.738,-135.175Z M129.269,-133.425L127.753,-132.550L126.238,-133.425L126.238,-135.175L127.753,-136.050L129.269,-135.175Z M132.800,-133.425L131.285,-132.550L129.769,-133.425L129.769,-135.175L131.285,-136.050L132.800,-135.175Z M136.331,-133.425L134.816,-132.550L133.300,-133.425L133.300,-135.175L134.816,-136.050L136.331,-135.175Z M137.985,-132.759L138.842,-135.764L138.347,-136.050L136.831,-135.175L136.831,-133.425L137.985,-132.759Z M114.817,-132.658L114.131,-130.221L115.395,-129.492L116.910,-130.367L116.910,-132.117L115.395,-132.992L114.817,-132.658Z M120.441,-130.367L118.926,-129.492L117.410,-130.367L117.410,-132.117L118.926,-132.992L120.441,-132.117Z M123.972,-130.367L122.457,-129.492L120.941,-130.367L120.941,-132.117L122.457,-132.992L123.972,-132.117Z M127.503,-130.367L125.988,-129.492L124.472,-130.367L124.472,-132.117L125.988,-132.992L127.503,-132.117Z M131.035,-130.367L129.519,-129.492L128.003,-130.367L128.003,-132.117L129.519,-132.992L131.035,-132.117Z M134.566,-130.367L133.050,-129.492L131.535,-130.367L131.535,-132.117L133.050,-132.992L134.566,-132.117Z M137.106,-129.795L137.841,-132.265L136.581,-132.992L135.066,-132.117L135.066,-130.367L136.581,-129.492L137.106,-129.795Z M113.991,-129.725L113.142,-126.715L113.629,-126.434L115.145,-127.309L115.145,-129.059L113.991,-129.725Z M118.676,-127.309L117.160,-126.434L115.645,-127.309L115.645,-129.059L117.160,-129.934L118.676,-129.059Z M122.207,-127.309L120.691,-126.434L119.176,-127.309L119.176,-129.059L120.691,-129.934L122.207,-129.059Z M125.738,-127.309L124.222,-126.434L122.707,-127.309L122.707,-129.059L124.222,-129.934L125.738,-129.059Z M129.269,-127.309L127.753,-126.434L126.238,-127.309L126.238,-129.059L127.753,-129.934L129.269,-129.059Z M132.800,-127.309L131.285,-126.434L129.769,-127.309L129.769,-129.059L131.285,-129.934L132.800,-129.059Z M136.331,-127.309L134.816,-126.434L133.300,-127.309L133.300,-129.059L134.816,-129.934L136.331,-129.059Z M136.893,-129.095L136.831,-129.059L136.831,-128.893L136.893,-129.095Z M113.002,-126.218L112.515,-124.488L112.267,-123.609L113.379,-124.251L113.379,-126.001L113.002,-126.218Z M116.910,-124.251L115.395,-123.376L113.879,-124.251L113.879,-126.001L115.395,-126.876L116.910,-126.001Z M120.441,-124.251L118.926,-123.376L117.410,-124.251L117.410,-126.001L118.926,-126.876L120.441,-126.001Z M123.972,-124.251L122.457,-123.376L120.941,-124.251L120.941,-126.001L122.457,-126.876L123.972,-126.001Z M127.503,-124.251L125.988,-123.376L124.472,-124.251L124.472,-126.001L125.988,-126.876L127.503,-126.001Z M131.035,-124.251L129.519,-123.376L128.003,-124.251L128.003,-126.001L129.519,-126.876L131.035,-126.001Z M134.566,-124.251L133.050,-123.376L131.535,-124.251L131.535,-126.001L133.050,-126.876L134.566,-126.001Z M135.311,-124.109L135.997,-126.224L136.119,-126.609L135.066,-126.001L135.066,-124.251L135.311,-124.109Z M111.585,-121.177L111.614,-121.193L111.614,-121.278L111.585,-121.177Z M115.145,-121.193L113.629,-120.318L112.114,-121.193L112.114,-122.943L113.629,-123.818L115.145,-122.943Z M118.676,-121.193L117.160,-120.318L115.645,-121.193L115.645,-122.943L117.160,-123.818L118.676,-122.943Z M122.207,-121.193L120.691,-120.318L119.176,-121.193L119.176,-122.943L120.691,-123.818L122.207,-122.943Z M125.738,-121.193L124.222,-120.318L122.707,-121.193L122.707,-122.943L124.222,-123.818L125.738,-122.943Z M129.269,-121.193L127.753,-120.318L126.238,-121.193L126.238,-122.943L127.753,-123.818L129.269,-122.943Z M132.800,-121.193L131.285,-120.318L129.769,-121.193L129.769,-122.943L131.285,-123.818L132.800,-122.943Z M134.156,-120.699L135.151,-123.625L134.816,-123.818L133.300,-122.943L133.300,-121.193L134.156,-120.699Z M111.393,-120.488L110.686,-117.940L111.864,-117.260L113.379,-118.135L113.379,-119.885L111.864,-120.760L111.393,-120.488Z M116.910,-118.135L115.395,-117.260L113.879,-118.135L113.879,-119.885L115.395,-120.760L116.910,-119.885Z M120.441,-118.135L118.926,-117.260L117.410,-118.135L117.410,-119.885L118.926,-120.760L120.441,-119.885Z M123.972,-118.135L122.457,-117.260L120.941,-118.135L120.941,-119.885L122.457,-120.760L123.972,-119.885Z M127.503,-118.135L125.988,-117.260L124.472,-118.135L124.472,-119.885L125.988,-120.760L127.503,-119.885Z M131.035,-118.135L129.519,-117.260L128.003,-118.135L128.003,-119.885L129.519,-120.760L131.035,-119.885Z M132.946,-117.320L133.988,-120.218L133.050,-120.760L131.535,-119.885L131.535,-118.135L132.946,-117.320Z M110.548,-117.442L109.724,-114.418L110.098,-114.202L111.614,-115.077L111.614,-116.827L110.548,-117.442Z M115.145,-115.077L113.629,-114.202L112.114,-115.077L112.114,-116.827L113.629,-117.702L115.145,-116.827Z M118.676,-115.077L117.160,-114.202L115.645,-115.077L115.645,-116.827L117.160,-117.702L118.676,-116.827Z M122.207,-115.077L120.691,-114.202L119.176,-115.077L119.176,-116.827L120.691,-117.702L122.207,-116.827Z M125.738,-115.077L124.222,-114.202L122.707,-115.077L122.707,-116.827L124.222,-117.702L125.738,-116.827Z M129.269,-115.077L127.753,-114.202L126.238,-115.077L126.238,-116.827L127.753,-117.702L129.269,-116.827Z M131.902,-114.558L132.769,-116.845L131.285,-117.702L129.769,-116.827L129.769,-115.077L131.285,-114.202L131.902,-114.558Z M109.590,-113.918L109.012,-111.735L108.943,-111.497L109.848,-112.019L109.848,-113.769L109.590,-113.918Z M113.379,-112.019L111.864,-111.144L110.348,-112.019L110.348,-113.769L111.864,-114.644L113.379,-113.769Z M116.910,-112.019L115.395,-111.144L113.879,-112.019L113.879,-113.769L115.395,-114.644L116.910,-113.769Z M120.441,-112.019L118.926,-111.144L117.410,-112.019L117.410,-113.769L118.926,-114.644L120.441,-113.769Z M123.972,-112.019L122.457,-111.144L120.941,-112.019L120.941,-113.769L122.457,-114.644L123.972,-113.769Z M127.503,-112.019L125.988,-111.144L124.472,-112.019L124.472,-113.769L125.988,-114.644L127.503,-113.769Z M130.854,-111.915L131.035,-112.361L131.035,-113.769L129.519,-114.644L128.003,-113.769L128.003,-112.019L129.519,-111.144L130.854,-111.915Z M131.611,-113.813L131.535,-113.769L131.535,-113.618L131.611,-113.813Z M108.761,-110.814L108.582,-110.092L108.582,-108.961L110.098,-108.086L111.614,-108.961L111.614,-110.711L110.098,-111.586L108.761,-110.814Z M115.145,-108.961L113.629,-108.086L112.114,-108.961L112.114,-110.711L113.629,-111.586L115.145,-110.711Z M118.676,-108.961L117.160,-108.086L115.645,-108.961L115.645,-110.711L117.160,-111.586L118.676,-110.711Z M122.207,-108.961L120.691,-108.086L119.176,-108.961L119.176,-110.711L120.691,-111.586L122.207,-110.711Z M125.738,-108.961L124.222,-108.086L122.707,-108.961L122.707,-110.711L124.222,-111.586L125.738,-110.711Z M129.269,-108.961L127.753,-108.086L126.238,-108.961L126.238,-110.711L127.753,-111.586L129.269,-110.711Z M129.769,-109.305L130.521,-111.099L130.546,-111.159L129.769,-110.711L129.769,-109.305Z M108.257,-108.484L108.134,-107.602L108.082,-107.050L108.043,-106.224L108.048,-105.675L108.075,-105.177L108.332,-105.028L109.848,-105.903L109.848,-107.653L108.332,-108.528L108.257,-108.484Z M113.379,-105.903L111.864,-105.028L110.348,-105.903L110.348,-107.653L111.864,-108.528L113.379,-107.653Z M116.910,-105.903L115.395,-105.028L113.879,-105.903L113.879,-107.653L115.395,-108.528L116.910,-107.653Z M120.441,-105.903L118.926,-105.028L117.410,-105.903L117.410,-107.653L118.926,-108.528L120.441,-107.653Z M123.972,-105.903L122.457,-105.028L120.941,-105.903L120.941,-107.653L122.457,-108.528L123.972,-107.653Z M127.503,-105.903L125.988,-105.028L124.472,-105.903L124.472,-107.653L125.988,-108.528L127.503,-107.653Z M128.350,-105.703L128.893,-107.202L129.412,-108.466L128.003,-107.653L128.003,-105.903L128.350,-105.703Z M97.489,-103.997L97.105,-102.745L97.060,-102.597L97.489,-102.845L97.489,-103.997Z M111.614,-102.845L110.098,-101.970L108.582,-102.845L108.582,-104.595L110.098,-105.470L111.614,-104.595Z M115.145,-102.845L113.629,-101.970L112.114,-102.845L112.114,-104.595L113.629,-105.470L115.145,-104.595Z M118.676,-102.845L117.160,-101.970L115.645,-102.845L115.645,-104.595L117.160,-105.470L118.676,-104.595Z M122.207,-102.845L120.691,-101.970L119.176,-102.845L119.176,-104.595L120.691,-105.470L122.207,-104.595Z M125.738,-102.845L124.222,-101.970L122.707,-102.845L122.707,-104.595L124.222,-105.470L125.738,-104.595Z M127.658,-102.025L127.714,-102.920L127.857,-103.843L127.993,-104.458L128.198,-105.213L127.753,-105.470L126.238,-104.595L126.238,-102.845L127.658,-102.025Z M99.139,-101.419L98.795,-101.601L98.631,-101.716L98.475,-101.849L98.220,-102.134L97.739,-102.412L96.845,-101.896L96.224,-99.867L96.224,-99.787L97.739,-98.912L99.255,-99.787L99.255,-101.374L99.139,-101.419Z M101.410,-99.102L101.277,-99.259L101.158,-99.470L101.084,-99.699L101.057,-99.938L101.066,-100.100L101.097,-100.261L101.410,-101.292L100.939,-101.209L100.520,-101.179L100.196,-101.184L99.755,-101.237L99.755,-99.787L101.270,-98.912L101.336,-98.950L101.410,-99.102Z M108.769,-102.160L109.379,-100.446L109.645,-99.670L109.848,-99.787L109.848,-101.537L108.769,-102.160Z M113.379,-99.787L111.864,-98.912L110.348,-99.787L110.348,-101.537L111.864,-102.412L113.379,-101.537Z M116.910,-99.787L115.395,-98.912L113.879,-99.787L113.879,-101.537L115.395,-102.412L116.910,-101.537Z M120.441,-99.787L118.926,-98.912L117.410,-99.787L117.410,-101.537L118.926,-102.412L120.441,-101.537Z M123.972,-99.787L122.457,-98.912L120.941,-99.787L120.941,-101.537L122.457,-102.412L123.972,-101.537Z M127.503,-99.787L125.988,-98.912L124.472,-99.787L124.472,-101.537L125.988,-102.412L127.503,-101.537Z M96.053,-99.308L95.731,-98.273L95.516,-97.733L95.223,-97.171L94.800,-96.532L95.974,-95.854L97.489,-96.729L97.489,-98.479L96.053,-99.308Z M100.406,-96.374L100.671,-97.304L100.827,-97.758L101.020,-98.252L101.020,-98.479L99.505,-99.354L97.989,-98.479L97.989,-96.729L99.505,-95.854L100.406,-96.374Z M109.802,-99.183L110.043,-98.356L110.217,-97.654L110.371,-96.885L110.500,-96.086L111.614,-96.729L111.614,-98.479L110.098,-99.354L109.802,-99.183Z M115.145,-96.729L113.629,-95.854L112.114,-96.729L112.114,-98.479L113.629,-99.354L115.145,-98.479Z M118.676,-96.729L117.160,-95.854L115.645,-96.729L115.645,-98.479L117.160,-99.354L118.676,-98.479Z M122.207,-96.729L120.691,-95.854L119.176,-96.729L119.176,-98.479L120.691,-99.354L122.207,-98.479Z M125.738,-96.729L124.222,-95.854L122.707,-96.729L122.707,-98.479L124.222,-99.354L125.738,-98.479Z M129.269,-97.369L128.938,-97.834L128.666,-98.258L128.420,-98.696L128.237,-99.075L127.753,-99.354L126.238,-98.479L126.238,-96.729L127.753,-95.854L129.269,-96.729L129.269,-97.369Z M72.960,-92.831L73.022,-92.796L73.083,-92.832L72.960,-92.831Z M76.469,-92.844L76.553,-92.796L76.638,-92.845L76.469,-92.844Z M79.977,-92.857L80.084,-92.796L80.192,-92.858L79.977,-92.857Z M92.193,-93.861L91.732,-93.567L91.365,-93.367L90.983,-93.193L90.388,-92.963L90.677,-92.796L92.193,-93.671L92.193,-93.861Z M94.501,-96.127L94.015,-95.528L93.630,-95.104L93.208,-94.685L92.693,-94.236L92.693,-93.671L94.208,-92.796L95.724,-93.671L95.724,-95.421L94.501,-96.127Z M99.255,-93.671L97.739,-92.796L96.224,-93.671L96.224,-95.421L97.739,-96.296L99.255,-95.421Z M99.966,-93.549L100.072,-94.606L100.257,-95.711L99.755,-95.421L99.755,-93.671L99.966,-93.549Z M110.571,-95.550L110.785,-93.419L111.864,-92.796L113.379,-93.671L113.379,-95.421L111.864,-96.296L110.571,-95.550Z M116.910,-93.671L115.395,-92.796L113.879,-93.671L113.879,-95.421L115.395,-96.296L116.910,-95.421Z M120.441,-93.671L118.926,-92.796L117.410,-93.671L117.410,-95.421L118.926,-96.296L120.441,-95.421Z M123.972,-93.671L122.457,-92.796L120.941,-93.671L120.941,-95.421L122.457,-96.296L123.972,-95.421Z M127.503,-93.671L125.988,-92.796L124.472,-93.671L124.472,-95.421L125.988,-96.296L127.503,-95.421Z M131.035,-95.198L130.692,-95.618L129.519,-96.296L128.003,-95.421L128.003,-93.671L129.519,-92.796L131.035,-93.671L131.035,-95.198Z M132.314,-93.221L131.936,-93.921L131.535,-94.535L131.535,-93.671L132.314,-93.221Z M58.562,-92.412L58.621,-91.934L58.647,-91.629L58.647,-92.363L58.562,-92.412Z M58.647,-91.297L58.594,-90.782L58.547,-90.555L58.647,-90.613L58.647,-91.297Z M61.442,-92.788L59.874,-92.782L59.147,-92.363L59.147,-90.613L60.663,-89.738L62.178,-90.613L62.178,-92.363L61.442,-92.788Z M64.950,-92.801L63.428,-92.795L62.678,-92.363L62.678,-90.613L64.194,-89.738L65.709,-90.613L65.709,-92.363L64.950,-92.801Z M68.458,-92.814L66.982,-92.809L66.209,-92.363L66.209,-90.613L67.725,-89.738L69.240,-90.613L69.240,-92.363L68.458,-92.814Z M71.967,-92.827L70.536,-92.822L69.740,-92.363L69.740,-90.613L71.256,-89.738L72.772,-90.613L72.772,-92.363L71.967,-92.827Z M75.475,-92.840L74.090,-92.835L73.272,-92.363L73.272,-90.613L74.787,-89.738L76.303,-90.613L76.303,-92.363L75.475,-92.840Z M78.984,-92.854L77.644,-92.849L76.803,-92.363L76.803,-90.613L78.318,-89.738L79.834,-90.613L79.834,-92.363L78.984,-92.854Z M81.893,-91.760L82.267,-92.246L82.739,-92.724L82.492,-92.867L81.198,-92.862L80.334,-92.363L80.334,-90.613L81.326,-90.040L81.369,-90.482L81.495,-90.973L81.655,-91.353L81.893,-91.760Z M89.965,-92.630L89.793,-92.384L89.671,-92.098L89.055,-89.821L90.427,-90.613L90.427,-92.363L89.965,-92.630Z M93.958,-90.613L92.443,-89.738L90.927,-90.613L90.927,-92.363L92.443,-93.238L93.958,-92.363Z M97.489,-90.613L95.974,-89.738L94.458,-90.613L94.458,-92.363L95.974,-93.238L97.489,-92.363Z M100.023,-90.037L99.927,-91.419L99.914,-92.143L99.933,-92.991L99.505,-93.238L97.989,-92.363L97.989,-90.613L99.505,-89.738L100.023,-90.037Z M110.833,-92.813L110.829,-92.264L110.863,-91.846L110.962,-90.992L111.080,-90.305L111.614,-90.613L111.614,-92.363L110.833,-92.813Z M115.145,-90.613L113.629,-89.738L112.114,-90.613L112.114,-92.363L113.629,-93.238L115.145,-92.363Z M118.676,-90.613L117.160,-89.738L115.645,-90.613L115.645,-92.363L117.160,-93.238L118.676,-92.363Z M122.207,-90.613L120.691,-89.738L119.176,-90.613L119.176,-92.363L120.691,-93.238L122.207,-92.363Z M125.738,-90.613L124.222,-89.738L122.707,-90.613L122.707,-92.363L124.222,-93.238L125.738,-92.363Z M129.269,-90.613L127.753,-89.738L126.238,-90.613L126.238,-92.363L127.753,-93.238L129.269,-92.363Z M132.800,-91.815L132.623,-92.465L131.285,-93.238L129.769,-92.363L129.769,-90.613L131.285,-89.738L132.800,-90.613L132.800,-91.815Z M136.331,-91.213L134.920,-91.936L133.818,-92.502L134.086,-91.828L134.189,-91.500L134.265,-91.171L134.332,-90.675L134.343,-90.344L134.328,-90.019L134.816,-89.738L136.331,-90.613L136.331,-91.213Z M138.659,-89.918L138.385,-90.120L138.078,-90.306L136.831,-90.956L136.831,-90.613L138.347,-89.738L138.659,-89.918Z M31.755,-87.319L30.014,-87.325L29.859,-87.306L29.665,-87.248L30.648,-86.680L31.755,-87.319Z M35.260,-87.304L34.368,-87.307L33.083,-87.313L34.180,-86.680L35.260,-87.304Z M38.765,-87.289L37.235,-87.295L36.640,-87.298L37.711,-86.680L38.765,-87.289Z M42.271,-87.274L40.819,-87.280L40.198,-87.283L41.242,-86.680L42.271,-87.274Z M45.776,-87.259L44.403,-87.265L43.755,-87.268L44.773,-86.680L45.776,-87.259Z M49.281,-87.244L47.987,-87.250L47.312,-87.252L48.304,-86.680L49.281,-87.244Z M52.786,-87.229L51.571,-87.234L50.869,-87.237L51.835,-86.680L52.786,-87.229Z M56.882,-88.123L56.315,-87.783L56.127,-87.695L55.735,-87.545L55.326,-87.433L55.116,-87.392L54.903,-87.362L54.268,-87.314L55.366,-86.680L56.882,-87.555L56.882,-88.123Z M58.302,-89.836L58.098,-89.439L57.874,-89.098L57.617,-88.780L57.382,-88.537L57.382,-87.555L58.897,-86.680L60.413,-87.555L60.413,-89.305L58.897,-90.180L58.302,-89.836Z M63.944,-87.555L62.428,-86.680L60.913,-87.555L60.913,-89.305L62.428,-90.180L63.944,-89.305Z M67.475,-87.555L65.959,-86.680L64.444,-87.555L64.444,-89.305L65.959,-90.180L67.475,-89.305Z M68.488,-87.259L68.740,-87.414L68.961,-87.514L69.195,-87.587L69.356,-87.620L69.690,-87.647L71.006,-87.647L71.006,-89.305L69.490,-90.180L67.975,-89.305L67.975,-87.555L68.488,-87.259Z M71.506,-87.647L74.537,-87.647L74.537,-89.305L73.022,-90.180L71.506,-89.305L71.506,-87.647Z M75.037,-87.647L78.068,-87.647L78.068,-89.305L76.553,-90.180L75.037,-89.305L75.037,-87.647Z M78.568,-87.647L81.599,-87.647L81.599,-88.762L81.467,-89.092L81.379,-89.432L80.084,-90.180L78.568,-89.305L78.568,-87.647Z M82.451,-87.647L82.249,-87.840L82.099,-88.003L82.099,-87.647L82.451,-87.647Z M88.661,-88.361L88.561,-87.992L88.402,-87.405L88.661,-87.555L88.661,-88.361Z M92.193,-87.555L90.677,-86.680L89.161,-87.555L89.161,-89.305L90.677,-90.180L92.193,-89.305Z M95.724,-87.555L94.208,-86.680L92.693,-87.555L92.693,-89.305L94.208,-90.180L95.724,-89.305Z M98.584,-87.168L98.602,-87.588L98.633,-87.735L98.708,-87.930L98.814,-88.098L98.948,-88.241L99.108,-88.362L99.255,-88.445L99.255,-89.305L97.739,-90.180L96.224,-89.305L96.224,-87.555L97.739,-86.680L98.584,-87.168Z M99.755,-88.623L100.213,-88.716L100.087,-89.497L99.755,-89.305L99.755,-88.623Z M111.200,-89.797L111.415,-89.129L111.686,-88.528L111.850,-88.241L112.032,-87.965L112.232,-87.704L112.450,-87.460L112.742,-87.187L113.379,-87.555L113.379,-89.305L111.864,-90.180L111.200,-89.797Z M116.910,-87.555L115.395,-86.680L113.879,-87.555L113.879,-89.305L115.395,-90.180L116.910,-89.305Z M120.441,-87.555L118.926,-86.680L117.410,-87.555L117.410,-89.305L118.926,-90.180L120.441,-89.305Z M123.972,-87.555L122.457,-86.680L120.941,-87.555L120.941,-89.305L122.457,-90.180L123.972,-89.305Z M127.503,-87.555L125.988,-86.680L124.472,-87.555L124.472,-89.305L125.988,-90.180L127.503,-89.305Z M129.298,-86.807L129.833,-86.991L130.230,-87.164L130.614,-87.365L131.035,-87.632L131.035,-89.305L129.519,-90.180L128.003,-89.305L128.003,-87.555L129.298,-86.807Z M131.535,-88.026L131.754,-88.235L132.038,-88.552L132.363,-89.013L132.500,-89.259L132.618,-89.515L132.716,-89.781L132.786,-90.027L131.535,-89.305L131.535,-88.026Z M134.247,-89.489L134.120,-89.035L133.997,-88.713L133.846,-88.395L133.666,-88.081L133.459,-87.771L133.224,-87.467L132.961,-87.168L132.683,-86.892L133.050,-86.680L134.566,-87.555L134.566,-89.305L134.247,-89.489Z M138.097,-87.555L136.581,-86.680L135.066,-87.555L135.066,-89.305L136.581,-90.180L138.097,-89.305Z M139.081,-87.275L139.226,-87.697L139.297,-88.000L139.338,-88.303L139.343,-88.605L139.305,-88.900L139.246,-89.115L139.156,-89.322L139.016,-89.547L138.597,-89.305L138.597,-87.555L139.081,-87.275Z M29.233,-86.919L29.151,-86.794L29.086,-86.658L29.041,-86.512L29.017,-86.357L28.942,-83.656L30.398,-84.497L30.398,-86.247L29.233,-86.919Z M33.930,-84.497L32.414,-83.622L30.898,-84.497L30.898,-86.247L32.414,-87.122L33.930,-86.247Z M37.461,-84.497L35.945,-83.622L34.430,-84.497L34.430,-86.247L35.945,-87.122L37.461,-86.247Z M40.992,-84.497L39.476,-83.622L37.961,-84.497L37.961,-86.247L39.476,-87.122L40.992,-86.247Z M44.523,-84.497L43.007,-83.622L41.492,-84.497L41.492,-86.247L43.007,-87.122L44.523,-86.247Z M48.054,-84.497L46.538,-83.622L45.023,-84.497L45.023,-86.247L46.538,-87.122L48.054,-86.247Z M51.585,-84.497L50.069,-83.622L48.554,-84.497L48.554,-86.247L50.069,-87.122L51.585,-86.247Z M55.116,-84.497L53.601,-83.622L52.085,-84.497L52.085,-86.247L53.601,-87.122L55.116,-86.247Z M58.647,-84.497L57.132,-83.622L55.616,-84.497L55.616,-86.247L57.132,-87.122L58.647,-86.247Z M62.178,-84.497L60.663,-83.622L59.147,-84.497L59.147,-86.247L60.663,-87.122L62.178,-86.247Z M65.709,-84.497L64.194,-83.622L62.678,-84.497L62.678,-86.247L64.194,-87.122L65.709,-86.247Z M67.057,-84.008L67.748,-86.272L67.884,-86.576L68.105,-86.902L67.725,-87.122L66.209,-86.247L66.209,-84.497L67.057,-84.008Z M88.217,-86.721L87.586,-84.387L88.911,-83.622L90.427,-84.497L90.427,-86.247L88.911,-87.122L88.217,-86.721Z M91.460,-84.189L91.636,-84.238L91.827,-84.261L93.551,-84.262L93.958,-84.497L93.958,-86.247L92.443,-87.122L90.927,-86.247L90.927,-84.497L91.460,-84.189Z M94.865,-84.262L96.241,-84.257L96.493,-84.193L96.619,-84.129L96.723,-84.054L97.489,-84.497L97.489,-86.247L95.974,-87.122L94.458,-86.247L94.458,-84.497L94.865,-84.262Z M98.601,-84.144L98.590,-86.096L98.587,-86.592L97.989,-86.247L97.989,-84.497L98.601,-84.144Z M113.187,-86.866L113.595,-86.657L113.962,-86.527L114.442,-86.421L114.942,-86.364L113.629,-87.122L113.187,-86.866Z M115.802,-86.338L117.329,-86.335L118.518,-86.338L117.160,-87.122L115.802,-86.338Z M119.340,-86.342L121.070,-86.353L122.011,-86.360L120.691,-87.122L119.340,-86.342Z M122.913,-86.366L125.179,-86.378L125.507,-86.380L124.222,-87.122L122.913,-86.366Z M125.738,-84.728L124.727,-84.709L124.718,-84.660L125.738,-84.615L125.738,-84.728Z M126.508,-86.403L127.615,-86.481L128.181,-86.556L128.601,-86.633L127.753,-87.122L126.508,-86.403Z M129.269,-85.176L128.618,-85.032L127.796,-84.897L126.960,-84.803L126.238,-84.751L126.238,-84.593L129.209,-84.462L129.269,-84.497L129.269,-85.176Z M132.279,-86.548L131.829,-86.229L131.158,-85.850L130.439,-85.538L129.769,-85.312L129.769,-84.497L129.880,-84.432L132.060,-84.341L132.581,-84.371L132.800,-84.497L132.800,-86.247L132.279,-86.548Z M133.300,-84.933L133.686,-85.203L134.024,-85.386L134.389,-85.531L134.680,-85.612L134.990,-85.668L135.318,-85.697L135.809,-85.694L136.331,-85.662L136.331,-86.247L134.816,-87.122L133.300,-86.247L133.300,-84.933Z M136.837,-85.605L137.508,-85.492L138.252,-85.317L138.326,-85.617L138.412,-85.837L138.879,-86.814L138.347,-87.122L136.831,-86.247L136.837,-85.605Z M32.164,-81.439L30.648,-80.564L29.133,-81.439L29.133,-83.189L30.648,-84.064L32.164,-83.189Z M35.695,-81.439L34.180,-80.564L32.664,-81.439L32.664,-83.189L34.180,-84.064L35.695,-83.189Z M39.226,-81.439L37.711,-80.564L36.195,-81.439L36.195,-83.189L37.711,-84.064L39.226,-83.189Z M42.757,-81.439L41.242,-80.564L39.726,-81.439L39.726,-83.189L41.242,-84.064L42.757,-83.189Z M46.288,-81.439L44.773,-80.564L43.257,-81.439L43.257,-83.189L44.773,-84.064L46.288,-83.189Z M49.819,-81.439L48.304,-80.564L46.788,-81.439L46.788,-83.189L48.304,-84.064L49.819,-83.189Z M53.351,-81.439L51.835,-80.564L50.319,-81.439L50.319,-83.189L51.835,-84.064L53.351,-83.189Z M56.882,-81.439L55.366,-80.564L53.851,-81.439L53.851,-83.189L55.366,-84.064L56.882,-83.189Z M60.413,-81.439L58.897,-80.564L57.382,-81.439L57.382,-83.189L58.897,-84.064L60.413,-83.189Z M63.944,-81.439L62.428,-80.564L60.913,-81.439L60.913,-83.189L62.428,-84.064L63.944,-83.189Z M66.875,-81.092L66.877,-82.804L66.896,-83.132L66.944,-83.496L65.959,-84.064L64.444,-83.189L64.444,-81.439L65.959,-80.564L66.875,-81.092Z M87.451,-83.887L86.633,-80.860L87.146,-80.564L88.661,-81.439L88.661,-83.189L87.451,-83.887Z M89.906,-81.009L90.736,-83.477L90.844,-83.692L90.992,-83.882L90.677,-84.064L89.161,-83.189L89.161,-81.439L89.906,-81.009Z M97.090,-83.689L97.492,-83.361L97.852,-83.142L98.047,-83.052L98.251,-82.981L98.608,-82.912L98.604,-83.564L97.739,-84.064L97.090,-83.689Z M28.870,-80.998L28.852,-80.347L30.025,-80.347L28.883,-81.006L28.870,-80.998Z M31.272,-80.347L33.556,-80.347L32.414,-81.006L31.272,-80.347Z M34.803,-80.347L37.087,-80.347L35.945,-81.006L34.803,-80.347Z M38.334,-80.347L39.546,-80.347L40.618,-80.347L39.476,-81.006L38.334,-80.347Z M41.866,-80.347L43.110,-80.347L44.149,-80.347L43.007,-81.006L41.866,-80.347Z M45.397,-80.347L46.675,-80.347L47.680,-80.347L46.538,-81.006L45.397,-80.347Z M48.928,-80.347L50.240,-80.347L51.211,-80.347L50.069,-81.006L48.928,-80.347Z M52.459,-80.347L53.804,-80.347L54.742,-80.347L53.601,-81.006L52.459,-80.347Z M55.990,-80.347L57.369,-80.347L58.273,-80.347L57.132,-81.006L55.990,-80.347Z M59.521,-80.347L60.934,-80.347L61.804,-80.347L60.663,-81.006L59.521,-80.347Z M63.052,-80.347L64.498,-80.347L65.336,-80.347L64.194,-81.006L63.052,-80.347Z M66.875,-80.347L66.875,-80.515L66.583,-80.347L66.875,-80.347Z M86.713,-80.236L86.498,-80.360L86.465,-80.236L86.469,-80.236L86.713,-80.236Z M87.579,-80.236L89.647,-80.236L89.744,-80.525L88.911,-81.006L87.579,-80.236Z"/>
  </g>
</svg>
