999
Dxf file generated by netDxf http://netdxf.codeplex.com, Copyright(C) 2015 Daniel Carvajal, Licensed under LGPL
0
SECTION
2
HEADER
9
$ACADVER
1
AC1015
9
$DWGCODEPAGE
3
ANSI_1252
9
$HANDSEED
5
10E
9
$ANGBASE
50
0.0
9
$ANGDIR
70
0
9
$ATTMODE
70
1
9
$AUNITS
70
0
9
$AUPREC
70
0
9
$CECOLOR
62
256
9
$CELTSCALE
40
1.0
9
$CELTYPE
6
ByLayer
9
$CELWEIGHT
370
-1
9
$CLAYER
8
0
9
$CMLJUST
70
0
9
$CMLSCALE
40
20.0
9
$CMLSTYLE
2
Standard
9
$DIMSTYLE
2
Standard
9
$TEXTSIZE
40
2.5
9
$TEXTSTYLE
7
Standard
9
$LUNITS
70
2
9
$LUPREC
70
4
9
$EXTNAMES
290
1
9
$INSBASE
10
0.0
20
0.0
30
0.0
9
$INSUNITS
70
0
9
$LTSCALE
40
1.0
9
$LWDISPLAY
290
0
9
$PDMODE
70
0
9
$PDSIZE
40
0.0
9
$PLINEGEN
70
0
9
$TDCREATE
40
2461131.66881186
9
$TDUCREATE
40
2461131.96047853
9
$TDUPDATE
40
2461131.66881186
9
$TDUUPDATE
40
2461131.96047853
9
$TDINDWG
40
0.0
0
ENDSEC
0
SECTION
2
CLASSES
0
CLASS
1
RASTERVARIABLES
2
AcDbRasterVariables
3
ISM
90
0
280
0
281
0
0
ENDSEC
0
SECTION
2
TABLES
0
TABLE
2
APPID
5
3
330
0
100
AcDbSymbolTable
70
2
0
APPID
5
14
330
3
100
AcDbSymbolTableRecord
100
AcDbRegAppTableRecord
2
ACAD
70
0
0
APPID
5
108
330
3
100
AcDbSymbolTableRecord
100
AcDbRegAppTableRecord
2
AcCmTransparency
70
0
0
ENDTAB
0
TABLE
2
VPORT
5
1
330
0
100
AcDbSymbolTable
70
1
0
VPORT
5
E
330
1
100
AcDbSymbolTableRecord
100
AcDbViewportTableRecord
2
*Active
70
0
10
0.0
20
0.0
11
1.0
21
1.0
12
-1.0
22
1.0
13
0.0
23
0.0
14
0.5
24
0.5
15
10.0
25
10.0
16
0.0
26
0.0
36
1.0
17
0.0
27
0.0
37
0.0
0
ENDTAB
0
TABLE
2
LTYPE
5
5
330
0
100
AcDbSymbolTable
70
3
0
LTYPE
5
10
330
5
100
AcDbSymbolTableRecord
100
AcDbLinetypeTableRecord
70
0
2
Continuous
3
Solid line
72
65
73
0
40
0.0
0
LTYPE
5
11
330
5
100
AcDbSymbolTableRecord
100
AcDbLinetypeTableRecord
70
0
2
ByLayer
3

72
65
73
0
40
0.0
0
LTYPE
5
12
330
5
100
AcDbSymbolTableRecord
100
AcDbLinetypeTableRecord
70
0
2
ByBlock
3

72
65
73
0
40
0.0
0
ENDTAB
0
TABLE
2
LAYER
5
4
330
0
100
AcDbSymbolTable
70
3
0
LAYER
5
F
330
4
100
AcDbSymbolTableRecord
100
AcDbLayerTableRecord
2
0
70
0
62
7
6
Continuous
290
1
370
-3
390
0
0
LAYER
5
1D
330
4
100
AcDbSymbolTableRecord
100
AcDbLayerTableRecord
2
Vector_Red
70
0
62
1
6
Continuous
290
1
370
-3
390
0
0
LAYER
5
1E
330
4
100
AcDbSymbolTableRecord
100
AcDbLayerTableRecord
2
Add_Red
70
0
62
1
6
Continuous
290
1
370
-3
390
0
0
ENDTAB
0
TABLE
2
STYLE
5
6
330
0
100
AcDbSymbolTable
70
1
0
STYLE
5
13
330
6
100
AcDbSymbolTableRecord
100
AcDbTextStyleTableRecord
2
Standard
3
simplex.shx
70
0
71
0
40
0.0
41
1.0
42
0.0
50
0.0
0
ENDTAB
0
TABLE
2
DIMSTYLE
5
7
330
0
100
AcDbSymbolTable
70
1
100
AcDbDimStyleTable
0
DIMSTYLE
105
15
330
7
100
AcDbSymbolTableRecord
100
AcDbDimStyleTableRecord
2
Standard
70
0
3
<>
40
1.0
41
0.18
42
0.0625
43
0.38
44
0.18
46
0.0
73
0
74
0
75
0
76
0
77
1
140
0.18
141
0.09
147
0.09
173
0
176
0
177
0
178
0
179
0
271
2
275
0
278
46
280
0
340
13
345
12
346
12
347
12
371
-2
372
-2
0
ENDTAB
0
TABLE
2
VIEW
5
2
330
0
100
AcDbSymbolTable
70
0
0
ENDTAB
0
TABLE
2
UCS
5
9
330
0
100
AcDbSymbolTable
70
0
0
ENDTAB
0
TABLE
2
BLOCK_RECORD
5
A
330
0
100
AcDbSymbolTable
70
2
0
BLOCK_RECORD
5
17
330
A
100
AcDbSymbolTableRecord
100
AcDbBlockTableRecord
2
*Model_Space
340
1B
0
BLOCK_RECORD
5
102
330
A
100
AcDbSymbolTableRecord
100
AcDbBlockTableRecord
2
*Paper_Space
340
107
0
ENDTAB
0
ENDSEC
0
SECTION
2
BLOCKS
0
BLOCK
5
19
330
17
100
AcDbEntity
8
0
100
AcDbBlockBegin
2
*Model_Space
70
0
10
0.0
20
0.0
30
0.0
3
*Model_Space
0
ENDBLK
5
18
330
17
100
AcDbEntity
8
0
100
AcDbBlockEnd
0
BLOCK
5
104
330
102
100
AcDbEntity
8
0
100
AcDbBlockBegin
2
*Paper_Space
70
0
10
0.0
20
0.0
30
0.0
3
*Paper_Space
0
ENDBLK
5
103
330
102
100
AcDbEntity
8
0
100
AcDbBlockEnd
0
ENDSEC
0
SECTION
2
ENTITIES
0
LWPOLYLINE
5
1F
330
17
100
AcDbEntity
67
0
8
Vector_Red
62
256
6
ByLayer
370
-1
48
1.0
60
0
100
AcDbPolyline
90
38
70
0
38
0.0
39
0.0
10
-0.0700152100156828
20
7.88179116815458
40
0.0
41
0.0
42
0.0
10
-8.1218424540581
20
10.4423731957126
40
0.0
41
0.0
42
0.0
10
-5.08115253886273
20
19.5144349227263
40
0.0
41
0.0
42
0.0
10
3.6608313771989
20
16.8638327022425
40
0.0
41
0.0
42
0.0
10
8.11184135753631
20
25.6358259271397
40
0.0
41
0.0
42
0.0
10
10.9024747667168
20
30.0268239098266
40
0.0
41
0.0
42
0.0
10
14.2932440884239
20
32.4873831530275
40
0.0
41
0.0
42
0.0
10
17.7540292914333
20
33.1475331720748
40
0.0
41
0.0
42
0.0
10
21.3448441160432
20
33.2175490857264
40
0.0
41
0.0
42
0.0
10
30.8670051655258
20
33.2775627246685
40
0.0
41
0.0
42
0.0
10
34.9479311592521
20
43.9599899533256
40
0.0
41
0.0
42
0.0
10
5.25119117278089
20
43.9899967727966
40
0.0
41
0.0
42
0.0
10
0.430097205832382
20
31.3471230303598
40
0.0
41
0.0
42
0.0
10
-23.1652568796944
20
31.3771298498309
40
0.0
41
0.0
42
0.0
10
-25.0656881139528
20
32.3673548784017
40
0.0
41
0.0
42
0.0
10
-25.975894645406
20
34.307795911228
40
0.0
41
0.0
42
0.0
10
-22.3150639394938
20
43.8999756995709
40
0.0
41
0.0
42
0.0
10
-44.4100789889311
20
43.9799938879321
40
0.0
41
0.0
42
0.0
10
-40.8292663053255
20
43.109796155876
40
0.0
41
0.0
42
0.0
10
-36.8583650550094
20
40.959307410041
40
0.0
41
0.0
42
0.0
10
-34.2377704276281
20
38.8088186642059
40
0.0
41
0.0
42
0.0
10
-32.0172665079615
20
35.0779708496117
40
0.0
41
0.0
42
0.0
10
-28.8365448301614
20
21.6849273423383
40
0.0
41
0.0
42
0.0
10
-32.2273141518685
20
11.822686080945
40
0.0
41
0.0
42
0.0
10
-38.0586374762444
20
0.470106241809351
40
0.0
41
0.0
42
0.0
10
-44.4200808318445
20
-10.1423053806025
40
0.0
41
0.0
42
0.0
10
-49.8313088684063
20
-20.5346674438017
40
0.0
41
0.0
42
0.0
10
-52.8019829022993
20
-28.9165722717474
40
0.0
41
0.0
42
0.0
10
-55.4525842507842
20
-36.2382360922633
40
0.0
41
0.0
42
0.0
10
-55.9627
20
-38.0686520473922
40
0.0
41
0.0
42
0.0
10
-54.0322618955925
20
-39.458967989823
40
0.0
41
0.0
42
0.0
10
-49.211167928644
20
-40.5392135094107
40
0.0
41
0.0
42
0.0
10
-41.5794359724156
20
-41.4994317324835
40
0.0
41
0.0
42
0.0
10
-18.9442993469315
20
-44.0
40
0.0
41
0.0
42
0.0
10
-18.9342970766769
20
-41.7294840321729
40
0.0
41
0.0
42
0.0
10
-18.7242494141392
20
-38.0386453909397
40
0.0
41
0.0
42
0.0
10
-17.3039270589475
20
-33.8276883902863
40
0.0
41
0.0
42
0.0
10
-0.0300071688221131
20
7.88179107500115
40
0.0
41
0.0
42
0.0
210
0.0
220
0.0
230
1.0
0
LWPOLYLINE
5
20
330
17
100
AcDbEntity
67
0
8
Vector_Red
62
256
6
ByLayer
370
-1
48
1.0
60
0
100
AcDbPolyline
90
6
70
0
38
0.0
39
0.0
10
55.9626995528637
20
43.9999997414992
40
0.0
41
0.0
42
0.0
10
51.0815918456171
20
32.8274608843972
40
0.0
41
0.0
42
0.0
10
36.9283804891755
20
32.1773131586902
40
0.0
41
0.0
42
0.0
10
38.4887346069719
20
35.2280065166021
40
0.0
41
0.0
42
0.0
10
41.9295155279728
20
43.9799954529097
40
0.0
41
0.0
42
0.0
10
55.9627
20
44.0
40
0.0
41
0.0
42
0.0
210
0.0
220
0.0
230
1.0
0
LWPOLYLINE
5
21
330
17
100
AcDbEntity
67
0
8
Add_Red
62
256
6
ByLayer
370
-1
48
1.0
60
0
100
AcDbPolyline
90
8
70
0
38
0.0
39
0.0
10
9.544062
20
41.526281
40
0.0
41
0.0
42
0.0
10
9.544062
20
43.526282
40
0.0
41
0.0
42
0.0
10
8.764351
20
43.976448
40
0.0
41
0.0
42
0.0
10
6.862999
20
43.978369
40
0.0
41
0.0
42
0.0
10
6.079961
20
43.526282
40
0.0
41
0.0
42
0.0
10
6.079961
20
41.526281
40
0.0
41
0.0
42
0.0
10
7.812011
20
40.526281
40
0.0
41
0.0
42
0.0
10
9.544062
20
41.526281
40
0.0
41
0.0
42
0.0
210
0.0
220
0.0
230
1.0
0
LWPOLYLINE
5
22
330
17
100
AcDbEntity
67
0
8
Add_Red
62
256
6
ByLayer
370
-1
48
1.0
60
0
100
AcDbPolyline
90
8
70
0
38
0.0
39
0.0
10
14.008163
20
41.526281
40
0.0
41
0.0
42
0.0
10
14.008163
20
43.526282
40
0.0
41
0.0
42
0.0
10
13.236279
20
43.97193
40
0.0
41
0.0
42
0.0
10
11.319301
20
43.973867
40
0.0
41
0.0
42
0.0
10
10.544062
20
43.526282
40
0.0
41
0.0
42
0.0
10
10.544062
20
41.526281
40
0.0
41
0.0
42
0.0
10
12.276113
20
40.526281
40
0.0
41
0.0
42
0.0
10
14.008163
20
41.526281
40
0.0
41
0.0
42
0.0
210
0.0
220
0.0
230
1.0
0
LWPOLYLINE
5
23
330
17
100
AcDbEntity
67
0
8
Add_Red
62
256
6
ByLayer
370
-1
48
1.0
60
0
100
AcDbPolyline
90
8
70
0
38
0.0
39
0.0
10
18.472264
20
41.526281
40
0.0
41
0.0
42
0.0
10
18.472264
20
43.526282
40
0.0
41
0.0
42
0.0
10
17.708206
20
43.967411
40
0.0
41
0.0
42
0.0
10
15.775602
20
43.969364
40
0.0
41
0.0
42
0.0
10
15.008162
20
43.526282
40
0.0
41
0.0
42
0.0
10
15.008162
20
41.526281
40
0.0
41
0.0
42
0.0
10
16.740213
20
40.526281
40
0.0
41
0.0
42
0.0
10
18.472264
20
41.526281
40
0.0
41
0.0
42
0.0
210
0.0
220
0.0
230
1.0
0
LWPOLYLINE
5
24
330
17
100
AcDbEntity
67
0
8
Add_Red
62
256
6
ByLayer
370
-1
48
1.0
60
0
100
AcDbPolyline
90
8
70
0
38
0.0
39
0.0
10
22.936366
20
41.526281
40
0.0
41
0.0
42
0.0
10
22.936366
20
43.526282
40
0.0
41
0.0
42
0.0
10
22.180135
20
43.962892
40
0.0
41
0.0
42
0.0
10
20.231905
20
43.964861
40
0.0
41
0.0
42
0.0
10
19.472264
20
43.526282
40
0.0
41
0.0
42
0.0
10
19.472264
20
41.526281
40
0.0
41
0.0
42
0.0
10
21.204315
20
40.526281
40
0.0
41
0.0
42
0.0
10
22.936366
20
41.526281
40
0.0
41
0.0
42
0.0
210
0.0
220
0.0
230
1.0
0
LWPOLYLINE
5
25
330
17
100
AcDbEntity
67
0
8
Add_Red
62
256
6
ByLayer
370
-1
48
1.0
60
0
100
AcDbPolyline
90
7
70
0
38
0.0
39
0.0
10
-39.561048
20
43.526282
40
0.0
41
0.0
42
0.0
10
-40.303823
20
43.955124
40
0.0
41
0.0
42
0.0
10
-42.270041
20
43.962244
40
0.0
41
0.0
42
0.0
10
-42.869803
20
43.615972
40
0.0
41
0.0
42
0.0
10
-40.825643
20
43.119205
40
0.0
41
0.0
42
0.0
10
-39.561048
20
42.43435
40
0.0
41
0.0
42
0.0
10
-39.561048
20
43.526282
40
0.0
41
0.0
42
0.0
210
0.0
220
0.0
230
1.0
0
LWPOLYLINE
5
26
330
17
100
AcDbEntity
67
0
8
Add_Red
62
256
6
ByLayer
370
-1
48
1.0
60
0
100
AcDbPolyline
90
8
70
0
38
0.0
39
0.0
10
27.400466
20
41.526281
40
0.0
41
0.0
42
0.0
10
27.400466
20
43.526282
40
0.0
41
0.0
42
0.0
10
26.652061
20
43.958374
40
0.0
41
0.0
42
0.0
10
24.688207
20
43.960358
40
0.0
41
0.0
42
0.0
10
23.936365
20
43.526282
40
0.0
41
0.0
42
0.0
10
23.936365
20
41.526281
40
0.0
41
0.0
42
0.0
10
25.668415
20
40.526281
40
0.0
41
0.0
42
0.0
10
27.400466
20
41.526281
40
0.0
41
0.0
42
0.0
210
0.0
220
0.0
230
1.0
0
LWPOLYLINE
5
27
330
17
100
AcDbEntity
67
0
8
Add_Red
62
256
6
ByLayer
370
-1
48
1.0
60
0
100
AcDbPolyline
90
8
70
0
38
0.0
39
0.0
10
31.864567
20
41.526281
40
0.0
41
0.0
42
0.0
10
31.864567
20
43.526282
40
0.0
41
0.0
42
0.0
10
31.123988
20
43.953855
40
0.0
41
0.0
42
0.0
10
29.144508
20
43.955855
40
0.0
41
0.0
42
0.0
10
28.400466
20
43.526282
40
0.0
41
0.0
42
0.0
10
28.400466
20
41.526281
40
0.0
41
0.0
42
0.0
10
30.132516
20
40.526281
40
0.0
41
0.0
42
0.0
10
31.864567
20
41.526281
40
0.0
41
0.0
42
0.0
210
0.0
220
0.0
230
1.0
0
LWPOLYLINE
5
28
330
17
100
AcDbEntity
67
0
8
Add_Red
62
256
6
ByLayer
370
-1
48
1.0
60
0
100
AcDbPolyline
90
6
70
0
38
0.0
39
0.0
10
34.93341
20
43.950006
40
0.0
41
0.0
42
0.0
10
33.600811
20
43.951353
40
0.0
41
0.0
42
0.0
10
32.864567
20
43.526282
40
0.0
41
0.0
42
0.0
10
32.864567
20
41.526281
40
0.0
41
0.0
42
0.0
10
33.800962
20
40.985653
40
0.0
41
0.0
42
0.0
10
34.93341
20
43.950006
40
0.0
41
0.0
42
0.0
210
0.0
220
0.0
230
1.0
0
LWPOLYLINE
5
29
330
17
100
AcDbEntity
67
0
8
Add_Red
62
256
6
ByLayer
370
-1
48
1.0
60
0
100
AcDbPolyline
90
9
70
0
38
0.0
39
0.0
10
-35.096947
20
41.526281
40
0.0
41
0.0
42
0.0
10
-35.096947
20
43.526282
40
0.0
41
0.0
42
0.0
10
-35.811543
20
43.938854
40
0.0
41
0.0
42
0.0
10
-37.833767
20
43.946178
40
0.0
41
0.0
42
0.0
10
-38.561048
20
43.526282
40
0.0
41
0.0
42
0.0
10
-38.561048
20
41.892788
40
0.0
41
0.0
42
0.0
10
-36.85276
20
40.967646
40
0.0
41
0.0
42
0.0
10
-36.527226
20
40.700509
40
0.0
41
0.0
42
0.0
10
-35.096947
20
41.526281
40
0.0
41
0.0
42
0.0
210
0.0
220
0.0
230
1.0
0
LWPOLYLINE
5
2A
330
17
100
AcDbEntity
67
0
8
Add_Red
62
256
6
ByLayer
370
-1
48
1.0
60
0
100
AcDbPolyline
90
8
70
0
38
0.0
39
0.0
10
-30.632846
20
41.526281
40
0.0
41
0.0
42
0.0
10
-30.632846
20
43.526282
40
0.0
41
0.0
42
0.0
10
-31.319262
20
43.922585
40
0.0
41
0.0
42
0.0
10
-33.397495
20
43.930111
40
0.0
41
0.0
42
0.0
10
-34.096947
20
43.526282
40
0.0
41
0.0
42
0.0
10
-34.096947
20
41.526281
40
0.0
41
0.0
42
0.0
10
-32.364897
20
40.526281
40
0.0
41
0.0
42
0.0
10
-30.632846
20
41.526281
40
0.0
41
0.0
42
0.0
210
0.0
220
0.0
230
1.0
0
LWPOLYLINE
5
2B
330
17
100
AcDbEntity
67
0
8
Add_Red
62
256
6
ByLayer
370
-1
48
1.0
60
0
100
AcDbPolyline
90
8
70
0
38
0.0
39
0.0
10
-26.168745
20
41.526281
40
0.0
41
0.0
42
0.0
10
-26.168745
20
43.526282
40
0.0
41
0.0
42
0.0
10
-26.826982
20
43.906315
40
0.0
41
0.0
42
0.0
10
-28.961222
20
43.914045
40
0.0
41
0.0
42
0.0
10
-29.632847
20
43.526282
40
0.0
41
0.0
42
0.0
10
-29.632847
20
41.526281
40
0.0
41
0.0
42
0.0
10
-27.900796
20
40.526281
40
0.0
41
0.0
42
0.0
10
-26.168745
20
41.526281
40
0.0
41
0.0
42
0.0
210
0.0
220
0.0
230
1.0
0
LWPOLYLINE
5
2C
330
17
100
AcDbEntity
67
0
8
Add_Red
62
256
6
ByLayer
370
-1
48
1.0
60
0
100
AcDbPolyline
90
7
70
0
38
0.0
39
0.0
10
-22.330486
20
43.887612
40
0.0
41
0.0
42
0.0
10
-22.334701
20
43.890046
40
0.0
41
0.0
42
0.0
10
-24.524949
20
43.897978
40
0.0
41
0.0
42
0.0
10
-25.168745
20
43.526282
40
0.0
41
0.0
42
0.0
10
-25.168745
20
41.526281
40
0.0
41
0.0
42
0.0
10
-23.581436
20
40.609848
40
0.0
41
0.0
42
0.0
10
-22.330486
20
43.887612
40
0.0
41
0.0
42
0.0
210
0.0
220
0.0
230
1.0
0
LWPOLYLINE
5
2D
330
17
100
AcDbEntity
67
0
8
Add_Red
62
256
6
ByLayer
370
-1
48
1.0
60
0
100
AcDbPolyline
90
4
70
0
38
0.0
39
0.0
10
5.079961
20
41.526281
40
0.0
41
0.0
42
0.0
10
5.079961
20
43.512898
40
0.0
41
0.0
42
0.0
10
4.108538
20
40.965429
40
0.0
41
0.0
42
0.0
10
5.079961
20
41.526281
40
0.0
41
0.0
42
0.0
210
0.0
220
0.0
230
1.0
0
LWPOLYLINE
5
2E
330
17
100
AcDbEntity
67
0
8
Add_Red
62
256
6
ByLayer
370
-1
48
1.0
60
0
100
AcDbPolyline
90
6
70
0
38
0.0
39
0.0
10
33.439554
20
40.039615
40
0.0
41
0.0
42
0.0
10
32.364573
20
40.660256
40
0.0
41
0.0
42
0.0
10
30.632522
20
39.660256
40
0.0
41
0.0
42
0.0
10
30.632522
20
37.660256
40
0.0
41
0.0
42
0.0
10
32.187598
20
36.762433
40
0.0
41
0.0
42
0.0
10
33.439554
20
40.039615
40
0.0
41
0.0
42
0.0
210
0.0
220
0.0
230
1.0
0
LWPOLYLINE
5
2F
330
17
100
AcDbEntity
67
0
8
Add_Red
62
256
6
ByLayer
370
-1
48
1.0
60
0
100
AcDbPolyline
90
7
70
0
38
0.0
39
0.0
10
29.632522
20
37.660256
40
0.0
41
0.0
42
0.0
10
29.632522
20
39.660256
40
0.0
41
0.0
42
0.0
10
27.900471
20
40.660256
40
0.0
41
0.0
42
0.0
10
26.168421
20
39.660256
40
0.0
41
0.0
42
0.0
10
26.168421
20
37.660256
40
0.0
41
0.0
42
0.0
10
27.900471
20
36.660256
40
0.0
41
0.0
42
0.0
10
29.632522
20
37.660256
40
0.0
41
0.0
42
0.0
210
0.0
220
0.0
230
1.0
0
LWPOLYLINE
5
30
330
17
100
AcDbEntity
67
0
8
Add_Red
62
256
6
ByLayer
370
-1
48
1.0
60
0
100
AcDbPolyline
90
7
70
0
38
0.0
39
0.0
10
25.168421
20
37.660256
40
0.0
41
0.0
42
0.0
10
25.168421
20
39.660256
40
0.0
41
0.0
42
0.0
10
23.436371
20
40.660256
40
0.0
41
0.0
42
0.0
10
21.70432
20
39.660256
40
0.0
41
0.0
42
0.0
10
21.70432
20
37.660256
40
0.0
41
0.0
42
0.0
10
23.436371
20
36.660256
40
0.0
41
0.0
42
0.0
10
25.168421
20
37.660256
40
0.0
41
0.0
42
0.0
210
0.0
220
0.0
230
1.0
0
LWPOLYLINE
5
31
330
17
100
AcDbEntity
67
0
8
Add_Red
62
256
6
ByLayer
370
-1
48
1.0
60
0
100
AcDbPolyline
90
7
70
0
38
0.0
39
0.0
10
20.704321
20
37.660256
40
0.0
41
0.0
42
0.0
10
20.704321
20
39.660256
40
0.0
41
0.0
42
0.0
10
18.97227
20
40.660256
40
0.0
41
0.0
42
0.0
10
17.240219
20
39.660256
40
0.0
41
0.0
42
0.0
10
17.240219
20
37.660256
40
0.0
41
0.0
42
0.0
10
18.97227
20
36.660256
40
0.0
41
0.0
42
0.0
10
20.704321
20
37.660256
40
0.0
41
0.0
42
0.0
210
0.0
220
0.0
230
1.0
0
LWPOLYLINE
5
32
330
17
100
AcDbEntity
67
0
8
Add_Red
62
256
6
ByLayer
370
-1
48
1.0
60
0
100
AcDbPolyline
90
7
70
0
38
0.0
39
0.0
10
16.240219
20
37.660256
40
0.0
41
0.0
42
0.0
10
16.240219
20
39.660256
40
0.0
41
0.0
42
0.0
10
14.508168
20
40.660256
40
0.0
41
0.0
42
0.0
10
12.776119
20
39.660256
40
0.0
41
0.0
42
0.0
10
12.776119
20
37.660256
40
0.0
41
0.0
42
0.0
10
14.508168
20
36.660256
40
0.0
41
0.0
42
0.0
10
16.240219
20
37.660256
40
0.0
41
0.0
42
0.0
210
0.0
220
0.0
230
1.0
0
LWPOLYLINE
5
33
330
17
100
AcDbEntity
67
0
8
Add_Red
62
256
6
ByLayer
370
-1
48
1.0
60
0
100
AcDbPolyline
90
7
70
0
38
0.0
39
0.0
10
11.776119
20
37.660256
40
0.0
41
0.0
42
0.0
10
11.776119
20
39.660256
40
0.0
41
0.0
42
0.0
10
10.044068
20
40.660256
40
0.0
41
0.0
42
0.0
10
8.312017
20
39.660256
40
0.0
41
0.0
42
0.0
10
8.312017
20
37.660256
40
0.0
41
0.0
42
0.0
10
10.044068
20
36.660256
40
0.0
41
0.0
42
0.0
10
11.776119
20
37.660256
40
0.0
41
0.0
42
0.0
210
0.0
220
0.0
230
1.0
0
LWPOLYLINE
5
34
330
17
100
AcDbEntity
67
0
8
Add_Red
62
256
6
ByLayer
370
-1
48
1.0
60
0
100
AcDbPolyline
90
7
70
0
38
0.0
39
0.0
10
7.312017
20
37.660256
40
0.0
41
0.0
42
0.0
10
7.312017
20
39.660256
40
0.0
41
0.0
42
0.0
10
5.579966
20
40.660256
40
0.0
41
0.0
42
0.0
10
3.847916
20
39.660256
40
0.0
41
0.0
42
0.0
10
3.847916
20
37.660256
40
0.0
41
0.0
42
0.0
10
5.579966
20
36.660256
40
0.0
41
0.0
42
0.0
10
7.312017
20
37.660256
40
0.0
41
0.0
42
0.0
210
0.0
220
0.0
230
1.0
0
LWPOLYLINE
5
35
330
17
100
AcDbEntity
67
0
8
Add_Red
62
256
6
ByLayer
370
-1
48
1.0
60
0
100
AcDbPolyline
90
7
70
0
38
0.0
39
0.0
10
-24.924883
20
37.089721
40
0.0
41
0.0
42
0.0
10
-23.942553
20
39.663642
40
0.0
41
0.0
42
0.0
10
-25.668739
20
40.660256
40
0.0
41
0.0
42
0.0
10
-27.40079
20
39.660256
40
0.0
41
0.0
42
0.0
10
-27.40079
20
37.660256
40
0.0
41
0.0
42
0.0
10
-25.668739
20
36.660256
40
0.0
41
0.0
42
0.0
10
-24.924883
20
37.089721
40
0.0
41
0.0
42
0.0
210
0.0
220
0.0
230
1.0
0
LWPOLYLINE
5
36
330
17
100
AcDbEntity
67
0
8
Add_Red
62
256
6
ByLayer
370
-1
48
1.0
60
0
100
AcDbPolyline
90
7
70
0
38
0.0
39
0.0
10
-28.40079
20
37.660256
40
0.0
41
0.0
42
0.0
10
-28.40079
20
39.660256
40
0.0
41
0.0
42
0.0
10
-30.132841
20
40.660256
40
0.0
41
0.0
42
0.0
10
-31.864892
20
39.660256
40
0.0
41
0.0
42
0.0
10
-31.864892
20
37.660256
40
0.0
41
0.0
42
0.0
10
-30.132841
20
36.660256
40
0.0
41
0.0
42
0.0
10
-28.40079
20
37.660256
40
0.0
41
0.0
42
0.0
210
0.0
220
0.0
230
1.0
0
LWPOLYLINE
5
37
330
17
100
AcDbEntity
67
0
8
Add_Red
62
256
6
ByLayer
370
-1
48
1.0
60
0
100
AcDbPolyline
90
7
70
0
38
0.0
39
0.0
10
-32.864891
20
37.660256
40
0.0
41
0.0
42
0.0
10
-32.864891
20
39.660256
40
0.0
41
0.0
42
0.0
10
-34.596941
20
40.660256
40
0.0
41
0.0
42
0.0
10
-35.701235
20
40.022692
40
0.0
41
0.0
42
0.0
10
-34.230072
20
38.815438
40
0.0
41
0.0
42
0.0
10
-33.369233
20
37.369074
40
0.0
41
0.0
42
0.0
10
-32.864891
20
37.660256
40
0.0
41
0.0
42
0.0
210
0.0
220
0.0
230
1.0
0
LWPOLYLINE
5
38
330
17
100
AcDbEntity
67
0
8
Add_Red
62
256
6
ByLayer
370
-1
48
1.0
60
0
100
AcDbPolyline
90
7
70
0
38
0.0
39
0.0
10
30.860103
20
33.287518
40
0.0
41
0.0
42
0.0
10
31.826194
20
35.816405
40
0.0
41
0.0
42
0.0
10
30.132549
20
36.794231
40
0.0
41
0.0
42
0.0
10
28.400498
20
35.794231
40
0.0
41
0.0
42
0.0
10
28.400498
20
33.794231
40
0.0
41
0.0
42
0.0
10
29.295233
20
33.277655
40
0.0
41
0.0
42
0.0
10
30.860103
20
33.287518
40
0.0
41
0.0
42
0.0
210
0.0
220
0.0
230
1.0
0
LWPOLYLINE
5
39
330
17
100
AcDbEntity
67
0
8
Add_Red
62
256
6
ByLayer
370
-1
48
1.0
60
0
100
AcDbPolyline
90
8
70
0
38
0.0
39
0.0
10
26.474976
20
33.259881
40
0.0
41
0.0
42
0.0
10
27.400498
20
33.794231
40
0.0
41
0.0
42
0.0
10
27.400498
20
35.794231
40
0.0
41
0.0
42
0.0
10
25.668447
20
36.794231
40
0.0
41
0.0
42
0.0
10
23.936398
20
35.794231
40
0.0
41
0.0
42
0.0
10
23.936398
20
33.794231
40
0.0
41
0.0
42
0.0
10
24.879338
20
33.249824
40
0.0
41
0.0
42
0.0
10
26.474976
20
33.259881
40
0.0
41
0.0
42
0.0
210
0.0
220
0.0
230
1.0
0
LWPOLYLINE
5
3A
330
17
100
AcDbEntity
67
0
8
Add_Red
62
256
6
ByLayer
370
-1
48
1.0
60
0
100
AcDbPolyline
90
9
70
0
38
0.0
39
0.0
10
21.344715
20
33.227547
40
0.0
41
0.0
42
0.0
10
21.961607
20
33.231435
40
0.0
41
0.0
42
0.0
10
22.936398
20
33.794231
40
0.0
41
0.0
42
0.0
10
22.936398
20
35.794231
40
0.0
41
0.0
42
0.0
10
21.204347
20
36.794231
40
0.0
41
0.0
42
0.0
10
19.472296
20
35.794231
40
0.0
41
0.0
42
0.0
10
19.472296
20
33.794231
40
0.0
41
0.0
42
0.0
10
20.482926
20
33.210744
40
0.0
41
0.0
42
0.0
10
21.344715
20
33.227547
40
0.0
41
0.0
42
0.0
210
0.0
220
0.0
230
1.0
0
LWPOLYLINE
5
3B
330
17
100
AcDbEntity
67
0
8
Add_Red
62
256
6
ByLayer
370
-1
48
1.0
60
0
100
AcDbPolyline
90
8
70
0
38
0.0
39
0.0
10
17.180243
20
33.048263
40
0.0
41
0.0
42
0.0
10
18.472297
20
33.794231
40
0.0
41
0.0
42
0.0
10
18.472297
20
35.794231
40
0.0
41
0.0
42
0.0
10
16.740246
20
36.794231
40
0.0
41
0.0
42
0.0
10
15.008195
20
35.794231
40
0.0
41
0.0
42
0.0
10
15.008195
20
33.794231
40
0.0
41
0.0
42
0.0
10
16.518788
20
32.92209
40
0.0
41
0.0
42
0.0
10
17.180243
20
33.048263
40
0.0
41
0.0
42
0.0
210
0.0
220
0.0
230
1.0
0
LWPOLYLINE
5
3C
330
17
100
AcDbEntity
67
0
8
Add_Red
62
256
6
ByLayer
370
-1
48
1.0
60
0
100
AcDbPolyline
90
7
70
0
38
0.0
39
0.0
10
14.008195
20
33.794231
40
0.0
41
0.0
42
0.0
10
14.008195
20
35.794231
40
0.0
41
0.0
42
0.0
10
12.276145
20
36.794231
40
0.0
41
0.0
42
0.0
10
10.544095
20
35.794231
40
0.0
41
0.0
42
0.0
10
10.544095
20
33.794231
40
0.0
41
0.0
42
0.0
10
12.276145
20
32.794231
40
0.0
41
0.0
42
0.0
10
14.008195
20
33.794231
40
0.0
41
0.0
42
0.0
210
0.0
220
0.0
230
1.0
0
LWPOLYLINE
5
3D
330
17
100
AcDbEntity
67
0
8
Add_Red
62
256
6
ByLayer
370
-1
48
1.0
60
0
100
AcDbPolyline
90
7
70
0
38
0.0
39
0.0
10
9.544095
20
33.794231
40
0.0
41
0.0
42
0.0
10
9.544095
20
35.794231
40
0.0
41
0.0
42
0.0
10
7.812044
20
36.794231
40
0.0
41
0.0
42
0.0
10
6.079993
20
35.794231
40
0.0
41
0.0
42
0.0
10
6.079993
20
33.794231
40
0.0
41
0.0
42
0.0
10
7.812044
20
32.794231
40
0.0
41
0.0
42
0.0
10
9.544095
20
33.794231
40
0.0
41
0.0
42
0.0
210
0.0
220
0.0
230
1.0
0
LWPOLYLINE
5
3E
330
17
100
AcDbEntity
67
0
8
Add_Red
62
256
6
ByLayer
370
-1
48
1.0
60
0
100
AcDbPolyline
90
8
70
0
38
0.0
39
0.0
10
5.079993
20
33.794231
40
0.0
41
0.0
42
0.0
10
5.079993
20
35.794231
40
0.0
41
0.0
42
0.0
10
3.347942
20
36.794231
40
0.0
41
0.0
42
0.0
10
2.283616
20
36.179742
40
0.0
41
0.0
42
0.0
10
1.615893
20
34.428699
40
0.0
41
0.0
42
0.0
10
1.615893
20
33.794231
40
0.0
41
0.0
42
0.0
10
3.347942
20
32.794231
40
0.0
41
0.0
42
0.0
10
5.079993
20
33.794231
40
0.0
41
0.0
42
0.0
210
0.0
220
0.0
230
1.0
0
LWPOLYLINE
5
3F
330
17
100
AcDbEntity
67
0
8
Add_Red
62
256
6
ByLayer
370
-1
48
1.0
60
0
100
AcDbPolyline
90
7
70
0
38
0.0
39
0.0
10
-26.168712
20
33.794231
40
0.0
41
0.0
42
0.0
10
-26.168712
20
35.794231
40
0.0
41
0.0
42
0.0
10
-27.900763
20
36.794231
40
0.0
41
0.0
42
0.0
10
-29.632814
20
35.794231
40
0.0
41
0.0
42
0.0
10
-29.632814
20
33.794231
40
0.0
41
0.0
42
0.0
10
-27.900763
20
32.794231
40
0.0
41
0.0
42
0.0
10
-26.168712
20
33.794231
40
0.0
41
0.0
42
0.0
210
0.0
220
0.0
230
1.0
0
LWPOLYLINE
5
40
330
17
100
AcDbEntity
67
0
8
Add_Red
62
256
6
ByLayer
370
-1
48
1.0
60
0
100
AcDbPolyline
90
7
70
0
38
0.0
39
0.0
10
-30.632814
20
33.794231
40
0.0
41
0.0
42
0.0
10
-30.632814
20
35.794231
40
0.0
41
0.0
42
0.0
10
-32.364865
20
36.794231
40
0.0
41
0.0
42
0.0
10
-32.857738
20
36.50967
40
0.0
41
0.0
42
0.0
10
-32.007889
20
35.081771
40
0.0
41
0.0
42
0.0
10
-31.573173
20
33.251315
40
0.0
41
0.0
42
0.0
10
-30.632814
20
33.794231
40
0.0
41
0.0
42
0.0
210
0.0
220
0.0
230
1.0
0
LWPOLYLINE
5
41
330
17
100
AcDbEntity
67
0
8
Add_Red
62
256
6
ByLayer
370
-1
48
1.0
60
0
100
AcDbPolyline
90
6
70
0
38
0.0
39
0.0
10
14.289177
20
32.496789
40
0.0
41
0.0
42
0.0
10
15.015474
20
32.635331
40
0.0
41
0.0
42
0.0
10
14.508201
20
32.928205
40
0.0
41
0.0
42
0.0
10
12.776151
20
31.928205
40
0.0
41
0.0
42
0.0
10
12.776151
20
31.398839
40
0.0
41
0.0
42
0.0
10
14.289177
20
32.496789
40
0.0
41
0.0
42
0.0
210
0.0
220
0.0
230
1.0
0
LWPOLYLINE
5
42
330
17
100
AcDbEntity
67
0
8
Add_Red
62
256
6
ByLayer
370
-1
48
1.0
60
0
100
AcDbPolyline
90
9
70
0
38
0.0
39
0.0
10
10.278377
20
29.063464
40
0.0
41
0.0
42
0.0
10
10.895057
20
30.033796
40
0.0
41
0.0
42
0.0
10
11.776151
20
30.673175
40
0.0
41
0.0
42
0.0
10
11.776151
20
31.928205
40
0.0
41
0.0
42
0.0
10
10.0441
20
32.928205
40
0.0
41
0.0
42
0.0
10
8.312049
20
31.928205
40
0.0
41
0.0
42
0.0
10
8.312049
20
29.928205
40
0.0
41
0.0
42
0.0
10
10.0441
20
28.928204
40
0.0
41
0.0
42
0.0
10
10.278377
20
29.063464
40
0.0
41
0.0
42
0.0
210
0.0
220
0.0
230
1.0
0
LWPOLYLINE
5
43
330
17
100
AcDbEntity
67
0
8
Add_Red
62
256
6
ByLayer
370
-1
48
1.0
60
0
100
AcDbPolyline
90
7
70
0
38
0.0
39
0.0
10
7.31205
20
29.928205
40
0.0
41
0.0
42
0.0
10
7.31205
20
31.928205
40
0.0
41
0.0
42
0.0
10
5.579999
20
32.928205
40
0.0
41
0.0
42
0.0
10
3.847948
20
31.928205
40
0.0
41
0.0
42
0.0
10
3.847948
20
29.928205
40
0.0
41
0.0
42
0.0
10
5.579999
20
28.928204
40
0.0
41
0.0
42
0.0
10
7.31205
20
29.928205
40
0.0
41
0.0
42
0.0
210
0.0
220
0.0
230
1.0
0
LWPOLYLINE
5
44
330
17
100
AcDbEntity
67
0
8
Add_Red
62
256
6
ByLayer
370
-1
48
1.0
60
0
100
AcDbPolyline
90
9
70
0
38
0.0
39
0.0
10
2.847948
20
29.928205
40
0.0
41
0.0
42
0.0
10
2.847948
20
31.928205
40
0.0
41
0.0
42
0.0
10
1.115899
20
32.928205
40
0.0
41
0.0
42
0.0
10
1.023332
20
32.874761
40
0.0
41
0.0
42
0.0
10
0.436982
20
31.337113
40
0.0
41
0.0
42
0.0
10
-0.616151
20
31.338452
40
0.0
41
0.0
42
0.0
10
-0.616151
20
29.928205
40
0.0
41
0.0
42
0.0
10
1.115899
20
28.928204
40
0.0
41
0.0
42
0.0
10
2.847948
20
29.928205
40
0.0
41
0.0
42
0.0
210
0.0
220
0.0
230
1.0
0
LWPOLYLINE
5
45
330
17
100
AcDbEntity
67
0
8
Add_Red
62
256
6
ByLayer
370
-1
48
1.0
60
0
100
AcDbPolyline
90
9
70
0
38
0.0
39
0.0
10
-23.936656
20
29.928205
40
0.0
41
0.0
42
0.0
10
-23.936656
20
31.767794
40
0.0
41
0.0
42
0.0
10
-25.073305
20
32.360048
40
0.0
41
0.0
42
0.0
10
-25.217659
20
32.667793
40
0.0
41
0.0
42
0.0
10
-25.668707
20
32.928205
40
0.0
41
0.0
42
0.0
10
-27.400758
20
31.928205
40
0.0
41
0.0
42
0.0
10
-27.400758
20
29.928205
40
0.0
41
0.0
42
0.0
10
-25.668707
20
28.928204
40
0.0
41
0.0
42
0.0
10
-23.936656
20
29.928205
40
0.0
41
0.0
42
0.0
210
0.0
220
0.0
230
1.0
0
LWPOLYLINE
5
46
330
17
100
AcDbEntity
67
0
8
Add_Red
62
256
6
ByLayer
370
-1
48
1.0
60
0
100
AcDbPolyline
90
7
70
0
38
0.0
39
0.0
10
-28.400757
20
29.928205
40
0.0
41
0.0
42
0.0
10
-28.400757
20
31.928205
40
0.0
41
0.0
42
0.0
10
-30.132808
20
32.928205
40
0.0
41
0.0
42
0.0
10
-31.332009
20
32.235846
40
0.0
41
0.0
42
0.0
10
-30.612208
20
29.204986
40
0.0
41
0.0
42
0.0
10
-30.132808
20
28.928204
40
0.0
41
0.0
42
0.0
10
-28.400757
20
29.928205
40
0.0
41
0.0
42
0.0
210
0.0
220
0.0
230
1.0
0
LWPOLYLINE
5
47
330
17
100
AcDbEntity
67
0
8
Add_Red
62
256
6
ByLayer
370
-1
48
1.0
60
0
100
AcDbPolyline
90
6
70
0
38
0.0
39
0.0
10
-19.472556
20
29.928205
40
0.0
41
0.0
42
0.0
10
-19.472556
20
31.362434
40
0.0
41
0.0
42
0.0
10
-22.936656
20
31.366839
40
0.0
41
0.0
42
0.0
10
-22.936656
20
29.928205
40
0.0
41
0.0
42
0.0
10
-21.204606
20
28.928204
40
0.0
41
0.0
42
0.0
10
-19.472556
20
29.928205
40
0.0
41
0.0
42
0.0
210
0.0
220
0.0
230
1.0
0
LWPOLYLINE
5
48
330
17
100
AcDbEntity
67
0
8
Add_Red
62
256
6
ByLayer
370
-1
48
1.0
60
0
100
AcDbPolyline
90
6
70
0
38
0.0
39
0.0
10
-15.008454
20
29.928205
40
0.0
41
0.0
42
0.0
10
-15.008454
20
31.356756
40
0.0
41
0.0
42
0.0
10
-18.472556
20
31.361162
40
0.0
41
0.0
42
0.0
10
-18.472556
20
29.928205
40
0.0
41
0.0
42
0.0
10
-16.740505
20
28.928204
40
0.0
41
0.0
42
0.0
10
-15.008454
20
29.928205
40
0.0
41
0.0
42
0.0
210
0.0
220
0.0
230
1.0
0
LWPOLYLINE
5
49
330
17
100
AcDbEntity
67
0
8
Add_Red
62
256
6
ByLayer
370
-1
48
1.0
60
0
100
AcDbPolyline
90
6
70
0
38
0.0
39
0.0
10
-10.544353
20
29.928205
40
0.0
41
0.0
42
0.0
10
-10.544353
20
31.351079
40
0.0
41
0.0
42
0.0
10
-14.008455
20
31.355484
40
0.0
41
0.0
42
0.0
10
-14.008455
20
29.928205
40
0.0
41
0.0
42
0.0
10
-12.276404
20
28.928204
40
0.0
41
0.0
42
0.0
10
-10.544353
20
29.928205
40
0.0
41
0.0
42
0.0
210
0.0
220
0.0
230
1.0
0
LWPOLYLINE
5
4A
330
17
100
AcDbEntity
67
0
8
Add_Red
62
256
6
ByLayer
370
-1
48
1.0
60
0
100
AcDbPolyline
90
6
70
0
38
0.0
39
0.0
10
-6.080252
20
29.928205
40
0.0
41
0.0
42
0.0
10
-6.080252
20
31.345401
40
0.0
41
0.0
42
0.0
10
-9.544353
20
31.349807
40
0.0
41
0.0
42
0.0
10
-9.544353
20
29.928205
40
0.0
41
0.0
42
0.0
10
-7.812303
20
28.928204
40
0.0
41
0.0
42
0.0
10
-6.080252
20
29.928205
40
0.0
41
0.0
42
0.0
210
0.0
220
0.0
230
1.0
0
LWPOLYLINE
5
4B
330
17
100
AcDbEntity
67
0
8
Add_Red
62
256
6
ByLayer
370
-1
48
1.0
60
0
100
AcDbPolyline
90
6
70
0
38
0.0
39
0.0
10
-1.616151
20
29.928205
40
0.0
41
0.0
42
0.0
10
-1.616151
20
31.339724
40
0.0
41
0.0
42
0.0
10
-5.080253
20
31.34413
40
0.0
41
0.0
42
0.0
10
-5.080253
20
29.928205
40
0.0
41
0.0
42
0.0
10
-3.348202
20
28.928204
40
0.0
41
0.0
42
0.0
10
-1.616151
20
29.928205
40
0.0
41
0.0
42
0.0
210
0.0
220
0.0
230
1.0
0
LWPOLYLINE
5
4C
330
17
100
AcDbEntity
67
0
8
Add_Red
62
256
6
ByLayer
370
-1
48
1.0
60
0
100
AcDbPolyline
90
8
70
0
38
0.0
39
0.0
10
8.103142
20
25.640782
40
0.0
41
0.0
42
0.0
10
9.544127
20
27.908139
40
0.0
41
0.0
42
0.0
10
9.544127
20
28.062179
40
0.0
41
0.0
42
0.0
10
7.812076
20
29.06218
40
0.0
41
0.0
42
0.0
10
6.080025
20
28.062179
40
0.0
41
0.0
42
0.0
10
6.080025
20
26.062179
40
0.0
41
0.0
42
0.0
10
7.810124
20
25.063306
40
0.0
41
0.0
42
0.0
10
8.103142
20
25.640782
40
0.0
41
0.0
42
0.0
210
0.0
220
0.0
230
1.0
0
LWPOLYLINE
5
4D
330
17
100
AcDbEntity
67
0
8
Add_Red
62
256
6
ByLayer
370
-1
48
1.0
60
0
100
AcDbPolyline
90
7
70
0
38
0.0
39
0.0
10
5.080026
20
26.062179
40
0.0
41
0.0
42
0.0
10
5.080026
20
28.062179
40
0.0
41
0.0
42
0.0
10
3.347975
20
29.06218
40
0.0
41
0.0
42
0.0
10
1.615925
20
28.062179
40
0.0
41
0.0
42
0.0
10
1.615925
20
26.062179
40
0.0
41
0.0
42
0.0
10
3.347975
20
25.062179
40
0.0
41
0.0
42
0.0
10
5.080026
20
26.062179
40
0.0
41
0.0
42
0.0
210
0.0
220
0.0
230
1.0
0
LWPOLYLINE
5
4E
330
17
100
AcDbEntity
67
0
8
Add_Red
62
256
6
ByLayer
370
-1
48
1.0
60
0
100
AcDbPolyline
90
7
70
0
38
0.0
39
0.0
10
0.615925
20
26.062179
40
0.0
41
0.0
42
0.0
10
0.615925
20
28.062179
40
0.0
41
0.0
42
0.0
10
-1.116125
20
29.06218
40
0.0
41
0.0
42
0.0
10
-2.848175
20
28.062179
40
0.0
41
0.0
42
0.0
10
-2.848175
20
26.062179
40
0.0
41
0.0
42
0.0
10
-1.116125
20
25.062179
40
0.0
41
0.0
42
0.0
10
0.615925
20
26.062179
40
0.0
41
0.0
42
0.0
210
0.0
220
0.0
230
1.0
0
LWPOLYLINE
5
4F
330
17
100
AcDbEntity
67
0
8
Add_Red
62
256
6
ByLayer
370
-1
48
1.0
60
0
100
AcDbPolyline
90
7
70
0
38
0.0
39
0.0
10
-3.848175
20
26.062179
40
0.0
41
0.0
42
0.0
10
-3.848175
20
28.062179
40
0.0
41
0.0
42
0.0
10
-5.580226
20
29.06218
40
0.0
41
0.0
42
0.0
10
-7.312277
20
28.062179
40
0.0
41
0.0
42
0.0
10
-7.312277
20
26.062179
40
0.0
41
0.0
42
0.0
10
-5.580226
20
25.062179
40
0.0
41
0.0
42
0.0
10
-3.848175
20
26.062179
40
0.0
41
0.0
42
0.0
210
0.0
220
0.0
230
1.0
0
LWPOLYLINE
5
50
330
17
100
AcDbEntity
67
0
8
Add_Red
62
256
6
ByLayer
370
-1
48
1.0
60
0
100
AcDbPolyline
90
7
70
0
38
0.0
39
0.0
10
-8.312276
20
26.062179
40
0.0
41
0.0
42
0.0
10
-8.312276
20
28.062179
40
0.0
41
0.0
42
0.0
10
-10.044326
20
29.06218
40
0.0
41
0.0
42
0.0
10
-11.776377
20
28.062179
40
0.0
41
0.0
42
0.0
10
-11.776377
20
26.062179
40
0.0
41
0.0
42
0.0
10
-10.044326
20
25.062179
40
0.0
41
0.0
42
0.0
10
-8.312276
20
26.062179
40
0.0
41
0.0
42
0.0
210
0.0
220
0.0
230
1.0
0
LWPOLYLINE
5
51
330
17
100
AcDbEntity
67
0
8
Add_Red
62
256
6
ByLayer
370
-1
48
1.0
60
0
100
AcDbPolyline
90
7
70
0
38
0.0
39
0.0
10
-12.776377
20
26.062179
40
0.0
41
0.0
42
0.0
10
-12.776377
20
28.062179
40
0.0
41
0.0
42
0.0
10
-14.508428
20
29.06218
40
0.0
41
0.0
42
0.0
10
-16.240479
20
28.062179
40
0.0
41
0.0
42
0.0
10
-16.240479
20
26.062179
40
0.0
41
0.0
42
0.0
10
-14.508428
20
25.062179
40
0.0
41
0.0
42
0.0
10
-12.776377
20
26.062179
40
0.0
41
0.0
42
0.0
210
0.0
220
0.0
230
1.0
0
LWPOLYLINE
5
52
330
17
100
AcDbEntity
67
0
8
Add_Red
62
256
6
ByLayer
370
-1
48
1.0
60
0
100
AcDbPolyline
90
7
70
0
38
0.0
39
0.0
10
-17.240478
20
26.062179
40
0.0
41
0.0
42
0.0
10
-17.240478
20
28.062179
40
0.0
41
0.0
42
0.0
10
-18.972529
20
29.06218
40
0.0
41
0.0
42
0.0
10
-20.70458
20
28.062179
40
0.0
41
0.0
42
0.0
10
-20.70458
20
26.062179
40
0.0
41
0.0
42
0.0
10
-18.972529
20
25.062179
40
0.0
41
0.0
42
0.0
10
-17.240478
20
26.062179
40
0.0
41
0.0
42
0.0
210
0.0
220
0.0
230
1.0
0
LWPOLYLINE
5
53
330
17
100
AcDbEntity
67
0
8
Add_Red
62
256
6
ByLayer
370
-1
48
1.0
60
0
100
AcDbPolyline
90
7
70
0
38
0.0
39
0.0
10
-21.70458
20
26.062179
40
0.0
41
0.0
42
0.0
10
-21.70458
20
28.062179
40
0.0
41
0.0
42
0.0
10
-23.436629
20
29.06218
40
0.0
41
0.0
42
0.0
10
-25.16868
20
28.062179
40
0.0
41
0.0
42
0.0
10
-25.16868
20
26.062179
40
0.0
41
0.0
42
0.0
10
-23.436629
20
25.062179
40
0.0
41
0.0
42
0.0
10
-21.70458
20
26.062179
40
0.0
41
0.0
42
0.0
210
0.0
220
0.0
230
1.0
0
LWPOLYLINE
5
54
330
17
100
AcDbEntity
67
0
8
Add_Red
62
256
6
ByLayer
370
-1
48
1.0
60
0
100
AcDbPolyline
90
7
70
0
38
0.0
39
0.0
10
-26.16868
20
26.062179
40
0.0
41
0.0
42
0.0
10
-26.16868
20
28.062179
40
0.0
41
0.0
42
0.0
10
-27.900731
20
29.06218
40
0.0
41
0.0
42
0.0
10
-29.632782
20
28.062179
40
0.0
41
0.0
42
0.0
10
-29.632782
20
26.062179
40
0.0
41
0.0
42
0.0
10
-27.900731
20
25.062179
40
0.0
41
0.0
42
0.0
10
-26.16868
20
26.062179
40
0.0
41
0.0
42
0.0
210
0.0
220
0.0
230
1.0
0
LWPOLYLINE
5
55
330
17
100
AcDbEntity
67
0
8
Add_Red
62
256
6
ByLayer
370
-1
48
1.0
60
0
100
AcDbPolyline
90
8
70
0
38
0.0
39
0.0
10
5.958869
20
21.414875
40
0.0
41
0.0
42
0.0
10
7.312082
20
24.081771
40
0.0
41
0.0
42
0.0
10
7.312082
20
24.196153
40
0.0
41
0.0
42
0.0
10
5.580031
20
25.196153
40
0.0
41
0.0
42
0.0
10
3.84798
20
24.196153
40
0.0
41
0.0
42
0.0
10
3.84798
20
22.196153
40
0.0
41
0.0
42
0.0
10
5.580031
20
21.196153
40
0.0
41
0.0
42
0.0
10
5.958869
20
21.414875
40
0.0
41
0.0
42
0.0
210
0.0
220
0.0
230
1.0
0
LWPOLYLINE
5
56
330
17
100
AcDbEntity
67
0
8
Add_Red
62
256
6
ByLayer
370
-1
48
1.0
60
0
100
AcDbPolyline
90
7
70
0
38
0.0
39
0.0
10
2.847981
20
22.196153
40
0.0
41
0.0
42
0.0
10
2.847981
20
24.196153
40
0.0
41
0.0
42
0.0
10
1.115931
20
25.196153
40
0.0
41
0.0
42
0.0
10
-0.616119
20
24.196153
40
0.0
41
0.0
42
0.0
10
-0.616119
20
22.196153
40
0.0
41
0.0
42
0.0
10
1.115931
20
21.196153
40
0.0
41
0.0
42
0.0
10
2.847981
20
22.196153
40
0.0
41
0.0
42
0.0
210
0.0
220
0.0
230
1.0
0
LWPOLYLINE
5
57
330
17
100
AcDbEntity
67
0
8
Add_Red
62
256
6
ByLayer
370
-1
48
1.0
60
0
100
AcDbPolyline
90
7
70
0
38
0.0
39
0.0
10
-1.616119
20
22.196153
40
0.0
41
0.0
42
0.0
10
-1.616119
20
24.196153
40
0.0
41
0.0
42
0.0
10
-3.348169
20
25.196153
40
0.0
41
0.0
42
0.0
10
-5.08022
20
24.196153
40
0.0
41
0.0
42
0.0
10
-5.08022
20
22.196153
40
0.0
41
0.0
42
0.0
10
-3.348169
20
21.196153
40
0.0
41
0.0
42
0.0
10
-1.616119
20
22.196153
40
0.0
41
0.0
42
0.0
210
0.0
220
0.0
230
1.0
0
LWPOLYLINE
5
58
330
17
100
AcDbEntity
67
0
8
Add_Red
62
256
6
ByLayer
370
-1
48
1.0
60
0
100
AcDbPolyline
90
7
70
0
38
0.0
39
0.0
10
-6.08022
20
22.196153
40
0.0
41
0.0
42
0.0
10
-6.08022
20
24.196153
40
0.0
41
0.0
42
0.0
10
-7.812271
20
25.196153
40
0.0
41
0.0
42
0.0
10
-9.544321
20
24.196153
40
0.0
41
0.0
42
0.0
10
-9.544321
20
22.196153
40
0.0
41
0.0
42
0.0
10
-7.812271
20
21.196153
40
0.0
41
0.0
42
0.0
10
-6.08022
20
22.196153
40
0.0
41
0.0
42
0.0
210
0.0
220
0.0
230
1.0
0
LWPOLYLINE
5
59
330
17
100
AcDbEntity
67
0
8
Add_Red
62
256
6
ByLayer
370
-1
48
1.0
60
0
100
AcDbPolyline
90
7
70
0
38
0.0
39
0.0
10
-10.54432
20
22.196153
40
0.0
41
0.0
42
0.0
10
-10.54432
20
24.196153
40
0.0
41
0.0
42
0.0
10
-12.276371
20
25.196153
40
0.0
41
0.0
42
0.0
10
-14.008422
20
24.196153
40
0.0
41
0.0
42
0.0
10
-14.008422
20
22.196153
40
0.0
41
0.0
42
0.0
10
-12.276371
20
21.196153
40
0.0
41
0.0
42
0.0
10
-10.54432
20
22.196153
40
0.0
41
0.0
42
0.0
210
0.0
220
0.0
230
1.0
0
LWPOLYLINE
5
5A
330
17
100
AcDbEntity
67
0
8
Add_Red
62
256
6
ByLayer
370
-1
48
1.0
60
0
100
AcDbPolyline
90
7
70
0
38
0.0
39
0.0
10
-15.008422
20
22.196153
40
0.0
41
0.0
42
0.0
10
-15.008422
20
24.196153
40
0.0
41
0.0
42
0.0
10
-16.740473
20
25.196153
40
0.0
41
0.0
42
0.0
10
-18.472524
20
24.196153
40
0.0
41
0.0
42
0.0
10
-18.472524
20
22.196153
40
0.0
41
0.0
42
0.0
10
-16.740473
20
21.196153
40
0.0
41
0.0
42
0.0
10
-15.008422
20
22.196153
40
0.0
41
0.0
42
0.0
210
0.0
220
0.0
230
1.0
0
LWPOLYLINE
5
5B
330
17
100
AcDbEntity
67
0
8
Add_Red
62
256
6
ByLayer
370
-1
48
1.0
60
0
100
AcDbPolyline
90
7
70
0
38
0.0
39
0.0
10
-19.472523
20
22.196153
40
0.0
41
0.0
42
0.0
10
-19.472523
20
24.196153
40
0.0
41
0.0
42
0.0
10
-21.204574
20
25.196153
40
0.0
41
0.0
42
0.0
10
-22.936624
20
24.196153
40
0.0
41
0.0
42
0.0
10
-22.936624
20
22.196153
40
0.0
41
0.0
42
0.0
10
-21.204574
20
21.196153
40
0.0
41
0.0
42
0.0
10
-19.472523
20
22.196153
40
0.0
41
0.0
42
0.0
210
0.0
220
0.0
230
1.0
0
LWPOLYLINE
5
5C
330
17
100
AcDbEntity
67
0
8
Add_Red
62
256
6
ByLayer
370
-1
48
1.0
60
0
100
AcDbPolyline
90
7
70
0
38
0.0
39
0.0
10
-23.936624
20
22.196153
40
0.0
41
0.0
42
0.0
10
-23.936624
20
24.196153
40
0.0
41
0.0
42
0.0
10
-25.668674
20
25.196153
40
0.0
41
0.0
42
0.0
10
-27.400725
20
24.196153
40
0.0
41
0.0
42
0.0
10
-27.400725
20
22.196153
40
0.0
41
0.0
42
0.0
10
-25.668674
20
21.196153
40
0.0
41
0.0
42
0.0
10
-23.936624
20
22.196153
40
0.0
41
0.0
42
0.0
210
0.0
220
0.0
230
1.0
0
LWPOLYLINE
5
5D
330
17
100
AcDbEntity
67
0
8
Add_Red
62
256
6
ByLayer
370
-1
48
1.0
60
0
100
AcDbPolyline
90
5
70
0
38
0.0
39
0.0
10
-28.400725
20
22.196153
40
0.0
41
0.0
42
0.0
10
-28.400725
20
24.196153
40
0.0
41
0.0
42
0.0
10
-29.585046
20
24.879921
40
0.0
41
0.0
42
0.0
10
-28.881724
20
21.918448
40
0.0
41
0.0
42
0.0
10
-28.400725
20
22.196153
40
0.0
41
0.0
42
0.0
210
0.0
220
0.0
230
1.0
0
LWPOLYLINE
5
5E
330
17
100
AcDbEntity
67
0
8
Add_Red
62
256
6
ByLayer
370
-1
48
1.0
60
0
100
AcDbPolyline
90
8
70
0
38
0.0
39
0.0
10
4.109223
20
17.769616
40
0.0
41
0.0
42
0.0
10
5.080058
20
19.682926
40
0.0
41
0.0
42
0.0
10
5.080058
20
20.330128
40
0.0
41
0.0
42
0.0
10
3.348007
20
21.330128
40
0.0
41
0.0
42
0.0
10
1.615958
20
20.330128
40
0.0
41
0.0
42
0.0
10
1.615958
20
18.330128
40
0.0
41
0.0
42
0.0
10
3.348007
20
17.330128
40
0.0
41
0.0
42
0.0
10
4.109223
20
17.769616
40
0.0
41
0.0
42
0.0
210
0.0
220
0.0
230
1.0
0
LWPOLYLINE
5
5F
330
17
100
AcDbEntity
67
0
8
Add_Red
62
256
6
ByLayer
370
-1
48
1.0
60
0
100
AcDbPolyline
90
7
70
0
38
0.0
39
0.0
10
0.615958
20
18.330128
40
0.0
41
0.0
42
0.0
10
0.615958
20
20.330128
40
0.0
41
0.0
42
0.0
10
-1.116092
20
21.330128
40
0.0
41
0.0
42
0.0
10
-2.848143
20
20.330128
40
0.0
41
0.0
42
0.0
10
-2.848143
20
18.847827
40
0.0
41
0.0
42
0.0
10
0.011078
20
17.9809
40
0.0
41
0.0
42
0.0
10
0.615958
20
18.330128
40
0.0
41
0.0
42
0.0
210
0.0
220
0.0
230
1.0
0
LWPOLYLINE
5
60
330
17
100
AcDbEntity
67
0
8
Add_Red
62
256
6
ByLayer
370
-1
48
1.0
60
0
100
AcDbPolyline
90
8
70
0
38
0.0
39
0.0
10
-5.087547
20
19.526823
40
0.0
41
0.0
42
0.0
10
-3.848143
20
19.151031
40
0.0
41
0.0
42
0.0
10
-3.848143
20
20.330128
40
0.0
41
0.0
42
0.0
10
-5.580193
20
21.330128
40
0.0
41
0.0
42
0.0
10
-7.312244
20
20.330128
40
0.0
41
0.0
42
0.0
10
-7.312244
20
18.330128
40
0.0
41
0.0
42
0.0
10
-5.784315
20
17.447978
40
0.0
41
0.0
42
0.0
10
-5.087547
20
19.526823
40
0.0
41
0.0
42
0.0
210
0.0
220
0.0
230
1.0
0
LWPOLYLINE
5
61
330
17
100
AcDbEntity
67
0
8
Add_Red
62
256
6
ByLayer
370
-1
48
1.0
60
0
100
AcDbPolyline
90
7
70
0
38
0.0
39
0.0
10
-8.312244
20
18.330128
40
0.0
41
0.0
42
0.0
10
-8.312244
20
20.330128
40
0.0
41
0.0
42
0.0
10
-10.044294
20
21.330128
40
0.0
41
0.0
42
0.0
10
-11.776345
20
20.330128
40
0.0
41
0.0
42
0.0
10
-11.776345
20
18.330128
40
0.0
41
0.0
42
0.0
10
-10.044294
20
17.330128
40
0.0
41
0.0
42
0.0
10
-8.312244
20
18.330128
40
0.0
41
0.0
42
0.0
210
0.0
220
0.0
230
1.0
0
LWPOLYLINE
5
62
330
17
100
AcDbEntity
67
0
8
Add_Red
62
256
6
ByLayer
370
-1
48
1.0
60
0
100
AcDbPolyline
90
7
70
0
38
0.0
39
0.0
10
-12.776344
20
18.330128
40
0.0
41
0.0
42
0.0
10
-12.776344
20
20.330128
40
0.0
41
0.0
42
0.0
10
-14.508395
20
21.330128
40
0.0
41
0.0
42
0.0
10
-16.240446
20
20.330128
40
0.0
41
0.0
42
0.0
10
-16.240446
20
18.330128
40
0.0
41
0.0
42
0.0
10
-14.508395
20
17.330128
40
0.0
41
0.0
42
0.0
10
-12.776344
20
18.330128
40
0.0
41
0.0
42
0.0
210
0.0
220
0.0
230
1.0
0
LWPOLYLINE
5
63
330
17
100
AcDbEntity
67
0
8
Add_Red
62
256
6
ByLayer
370
-1
48
1.0
60
0
100
AcDbPolyline
90
7
70
0
38
0.0
39
0.0
10
-17.240446
20
18.330128
40
0.0
41
0.0
42
0.0
10
-17.240446
20
20.330128
40
0.0
41
0.0
42
0.0
10
-18.972497
20
21.330128
40
0.0
41
0.0
42
0.0
10
-20.704548
20
20.330128
40
0.0
41
0.0
42
0.0
10
-20.704548
20
18.330128
40
0.0
41
0.0
42
0.0
10
-18.972497
20
17.330128
40
0.0
41
0.0
42
0.0
10
-17.240446
20
18.330128
40
0.0
41
0.0
42
0.0
210
0.0
220
0.0
230
1.0
0
LWPOLYLINE
5
64
330
17
100
AcDbEntity
67
0
8
Add_Red
62
256
6
ByLayer
370
-1
48
1.0
60
0
100
AcDbPolyline
90
7
70
0
38
0.0
39
0.0
10
-21.704547
20
18.330128
40
0.0
41
0.0
42
0.0
10
-21.704547
20
20.330128
40
0.0
41
0.0
42
0.0
10
-23.436597
20
21.330128
40
0.0
41
0.0
42
0.0
10
-25.168648
20
20.330128
40
0.0
41
0.0
42
0.0
10
-25.168648
20
18.330128
40
0.0
41
0.0
42
0.0
10
-23.436597
20
17.330128
40
0.0
41
0.0
42
0.0
10
-21.704547
20
18.330128
40
0.0
41
0.0
42
0.0
210
0.0
220
0.0
230
1.0
0
LWPOLYLINE
5
65
330
17
100
AcDbEntity
67
0
8
Add_Red
62
256
6
ByLayer
370
-1
48
1.0
60
0
100
AcDbPolyline
90
8
70
0
38
0.0
39
0.0
10
-26.168648
20
18.330128
40
0.0
41
0.0
42
0.0
10
-26.168648
20
20.330128
40
0.0
41
0.0
42
0.0
10
-27.900698
20
21.330128
40
0.0
41
0.0
42
0.0
10
-29.207318
20
20.57575
40
0.0
41
0.0
42
0.0
10
-29.632749
20
19.338362
40
0.0
41
0.0
42
0.0
10
-29.632749
20
18.330128
40
0.0
41
0.0
42
0.0
10
-27.900698
20
17.330128
40
0.0
41
0.0
42
0.0
10
-26.168648
20
18.330128
40
0.0
41
0.0
42
0.0
210
0.0
220
0.0
230
1.0
0
LWPOLYLINE
5
66
330
17
100
AcDbEntity
67
0
8
Add_Red
62
256
6
ByLayer
370
-1
48
1.0
60
0
100
AcDbPolyline
90
7
70
0
38
0.0
39
0.0
10
-6.953399
20
13.959953
40
0.0
41
0.0
42
0.0
10
-6.108586
20
16.480498
40
0.0
41
0.0
42
0.0
10
-7.812238
20
17.464103
40
0.0
41
0.0
42
0.0
10
-9.544288
20
16.464103
40
0.0
41
0.0
42
0.0
10
-9.544288
20
14.464102
40
0.0
41
0.0
42
0.0
10
-7.812238
20
13.464102
40
0.0
41
0.0
42
0.0
10
-6.953399
20
13.959953
40
0.0
41
0.0
42
0.0
210
0.0
220
0.0
230
1.0
0
LWPOLYLINE
5
67
330
17
100
AcDbEntity
67
0
8
Add_Red
62
256
6
ByLayer
370
-1
48
1.0
60
0
100
AcDbPolyline
90
7
70
0
38
0.0
39
0.0
10
-10.544288
20
14.464102
40
0.0
41
0.0
42
0.0
10
-10.544288
20
16.464103
40
0.0
41
0.0
42
0.0
10
-12.276339
20
17.464103
40
0.0
41
0.0
42
0.0
10
-14.00839
20
16.464103
40
0.0
41
0.0
42
0.0
10
-14.00839
20
14.464102
40
0.0
41
0.0
42
0.0
10
-12.276339
20
13.464102
40
0.0
41
0.0
42
0.0
10
-10.544288
20
14.464102
40
0.0
41
0.0
42
0.0
210
0.0
220
0.0
230
1.0
0
LWPOLYLINE
5
68
330
17
100
AcDbEntity
67
0
8
Add_Red
62
256
6
ByLayer
370
-1
48
1.0
60
0
100
AcDbPolyline
90
7
70
0
38
0.0
39
0.0
10
-15.008389
20
14.464102
40
0.0
41
0.0
42
0.0
10
-15.008389
20
16.464103
40
0.0
41
0.0
42
0.0
10
-16.74044
20
17.464103
40
0.0
41
0.0
42
0.0
10
-18.472491
20
16.464103
40
0.0
41
0.0
42
0.0
10
-18.472491
20
14.464102
40
0.0
41
0.0
42
0.0
10
-16.74044
20
13.464102
40
0.0
41
0.0
42
0.0
10
-15.008389
20
14.464102
40
0.0
41
0.0
42
0.0
210
0.0
220
0.0
230
1.0
0
LWPOLYLINE
5
69
330
17
100
AcDbEntity
67
0
8
Add_Red
62
256
6
ByLayer
370
-1
48
1.0
60
0
100
AcDbPolyline
90
7
70
0
38
0.0
39
0.0
10
-19.472491
20
14.464102
40
0.0
41
0.0
42
0.0
10
-19.472491
20
16.464103
40
0.0
41
0.0
42
0.0
10
-21.204542
20
17.464103
40
0.0
41
0.0
42
0.0
10
-22.936591
20
16.464103
40
0.0
41
0.0
42
0.0
10
-22.936591
20
14.464102
40
0.0
41
0.0
42
0.0
10
-21.204542
20
13.464102
40
0.0
41
0.0
42
0.0
10
-19.472491
20
14.464102
40
0.0
41
0.0
42
0.0
210
0.0
220
0.0
230
1.0
0
LWPOLYLINE
5
6A
330
17
100
AcDbEntity
67
0
8
Add_Red
62
256
6
ByLayer
370
-1
48
1.0
60
0
100
AcDbPolyline
90
7
70
0
38
0.0
39
0.0
10
-23.936591
20
14.464102
40
0.0
41
0.0
42
0.0
10
-23.936591
20
16.464103
40
0.0
41
0.0
42
0.0
10
-25.668642
20
17.464103
40
0.0
41
0.0
42
0.0
10
-27.400693
20
16.464103
40
0.0
41
0.0
42
0.0
10
-27.400693
20
14.464102
40
0.0
41
0.0
42
0.0
10
-25.668642
20
13.464102
40
0.0
41
0.0
42
0.0
10
-23.936591
20
14.464102
40
0.0
41
0.0
42
0.0
210
0.0
220
0.0
230
1.0
0
LWPOLYLINE
5
6B
330
17
100
AcDbEntity
67
0
8
Add_Red
62
256
6
ByLayer
370
-1
48
1.0
60
0
100
AcDbPolyline
90
7
70
0
38
0.0
39
0.0
10
-28.400693
20
14.464102
40
0.0
41
0.0
42
0.0
10
-28.400693
20
16.464103
40
0.0
41
0.0
42
0.0
10
-30.132743
20
17.464103
40
0.0
41
0.0
42
0.0
10
-30.312907
20
17.360085
40
0.0
41
0.0
42
0.0
10
-31.400706
20
14.196161
40
0.0
41
0.0
42
0.0
10
-30.132743
20
13.464102
40
0.0
41
0.0
42
0.0
10
-28.400693
20
14.464102
40
0.0
41
0.0
42
0.0
210
0.0
220
0.0
230
1.0
0
LWPOLYLINE
5
6C
330
17
100
AcDbEntity
67
0
8
Add_Red
62
256
6
ByLayer
370
-1
48
1.0
60
0
100
AcDbPolyline
90
7
70
0
38
0.0
39
0.0
10
-8.312212
20
10.598076
40
0.0
41
0.0
42
0.0
10
-8.312212
20
12.598076
40
0.0
41
0.0
42
0.0
10
-10.044261
20
13.598076
40
0.0
41
0.0
42
0.0
10
-11.776312
20
12.598076
40
0.0
41
0.0
42
0.0
10
-11.776312
20
10.598076
40
0.0
41
0.0
42
0.0
10
-10.044261
20
9.598076
40
0.0
41
0.0
42
0.0
10
-8.312212
20
10.598076
40
0.0
41
0.0
42
0.0
210
0.0
220
0.0
230
1.0
0
LWPOLYLINE
5
6D
330
17
100
AcDbEntity
67
0
8
Add_Red
62
256
6
ByLayer
370
-1
48
1.0
60
0
100
AcDbPolyline
90
7
70
0
38
0.0
39
0.0
10
-12.776312
20
10.598076
40
0.0
41
0.0
42
0.0
10
-12.776312
20
12.598076
40
0.0
41
0.0
42
0.0
10
-14.508363
20
13.598076
40
0.0
41
0.0
42
0.0
10
-16.240414
20
12.598076
40
0.0
41
0.0
42
0.0
10
-16.240414
20
10.598076
40
0.0
41
0.0
42
0.0
10
-14.508363
20
9.598076
40
0.0
41
0.0
42
0.0
10
-12.776312
20
10.598076
40
0.0
41
0.0
42
0.0
210
0.0
220
0.0
230
1.0
0
LWPOLYLINE
5
6E
330
17
100
AcDbEntity
67
0
8
Add_Red
62
256
6
ByLayer
370
-1
48
1.0
60
0
100
AcDbPolyline
90
7
70
0
38
0.0
39
0.0
10
-17.240413
20
10.598076
40
0.0
41
0.0
42
0.0
10
-17.240413
20
12.598076
40
0.0
41
0.0
42
0.0
10
-18.972464
20
13.598076
40
0.0
41
0.0
42
0.0
10
-20.704515
20
12.598076
40
0.0
41
0.0
42
0.0
10
-20.704515
20
10.598076
40
0.0
41
0.0
42
0.0
10
-18.972464
20
9.598076
40
0.0
41
0.0
42
0.0
10
-17.240413
20
10.598076
40
0.0
41
0.0
42
0.0
210
0.0
220
0.0
230
1.0
0
LWPOLYLINE
5
6F
330
17
100
AcDbEntity
67
0
8
Add_Red
62
256
6
ByLayer
370
-1
48
1.0
60
0
100
AcDbPolyline
90
7
70
0
38
0.0
39
0.0
10
-21.704515
20
10.598076
40
0.0
41
0.0
42
0.0
10
-21.704515
20
12.598076
40
0.0
41
0.0
42
0.0
10
-23.436565
20
13.598076
40
0.0
41
0.0
42
0.0
10
-25.168615
20
12.598076
40
0.0
41
0.0
42
0.0
10
-25.168615
20
10.598076
40
0.0
41
0.0
42
0.0
10
-23.436565
20
9.598076
40
0.0
41
0.0
42
0.0
10
-21.704515
20
10.598076
40
0.0
41
0.0
42
0.0
210
0.0
220
0.0
230
1.0
0
LWPOLYLINE
5
70
330
17
100
AcDbEntity
67
0
8
Add_Red
62
256
6
ByLayer
370
-1
48
1.0
60
0
100
AcDbPolyline
90
7
70
0
38
0.0
39
0.0
10
-26.168615
20
10.598076
40
0.0
41
0.0
42
0.0
10
-26.168615
20
12.598076
40
0.0
41
0.0
42
0.0
10
-27.900666
20
13.598076
40
0.0
41
0.0
42
0.0
10
-29.632717
20
12.598076
40
0.0
41
0.0
42
0.0
10
-29.632717
20
10.598076
40
0.0
41
0.0
42
0.0
10
-27.900666
20
9.598076
40
0.0
41
0.0
42
0.0
10
-26.168615
20
10.598076
40
0.0
41
0.0
42
0.0
210
0.0
220
0.0
230
1.0
0
LWPOLYLINE
5
71
330
17
100
AcDbEntity
67
0
8
Add_Red
62
256
6
ByLayer
370
-1
48
1.0
60
0
100
AcDbPolyline
90
7
70
0
38
0.0
39
0.0
10
-30.632717
20
10.598076
40
0.0
41
0.0
42
0.0
10
-30.632717
20
12.598076
40
0.0
41
0.0
42
0.0
10
-31.73195
20
13.232719
40
0.0
41
0.0
42
0.0
10
-32.21809
20
11.818755
40
0.0
41
0.0
42
0.0
10
-33.131402
20
10.040693
40
0.0
41
0.0
42
0.0
10
-32.364767
20
9.598076
40
0.0
41
0.0
42
0.0
10
-30.632717
20
10.598076
40
0.0
41
0.0
42
0.0
210
0.0
220
0.0
230
1.0
0
LWPOLYLINE
5
72
330
17
100
AcDbEntity
67
0
8
Add_Red
62
256
6
ByLayer
370
-1
48
1.0
60
0
100
AcDbPolyline
90
7
70
0
38
0.0
39
0.0
10
-6.080155
20
6.732051
40
0.0
41
0.0
42
0.0
10
-6.080155
20
8.732051
40
0.0
41
0.0
42
0.0
10
-7.812206
20
9.732051
40
0.0
41
0.0
42
0.0
10
-9.544256
20
8.732051
40
0.0
41
0.0
42
0.0
10
-9.544256
20
6.732051
40
0.0
41
0.0
42
0.0
10
-7.812206
20
5.732051
40
0.0
41
0.0
42
0.0
10
-6.080155
20
6.732051
40
0.0
41
0.0
42
0.0
210
0.0
220
0.0
230
1.0
0
LWPOLYLINE
5
73
330
17
100
AcDbEntity
67
0
8
Add_Red
62
256
6
ByLayer
370
-1
48
1.0
60
0
100
AcDbPolyline
90
7
70
0
38
0.0
39
0.0
10
-10.544256
20
6.732051
40
0.0
41
0.0
42
0.0
10
-10.544256
20
8.732051
40
0.0
41
0.0
42
0.0
10
-12.276306
20
9.732051
40
0.0
41
0.0
42
0.0
10
-14.008357
20
8.732051
40
0.0
41
0.0
42
0.0
10
-14.008357
20
6.732051
40
0.0
41
0.0
42
0.0
10
-12.276306
20
5.732051
40
0.0
41
0.0
42
0.0
10
-10.544256
20
6.732051
40
0.0
41
0.0
42
0.0
210
0.0
220
0.0
230
1.0
0
LWPOLYLINE
5
74
330
17
100
AcDbEntity
67
0
8
Add_Red
62
256
6
ByLayer
370
-1
48
1.0
60
0
100
AcDbPolyline
90
7
70
0
38
0.0
39
0.0
10
-15.008357
20
6.732051
40
0.0
41
0.0
42
0.0
10
-15.008357
20
8.732051
40
0.0
41
0.0
42
0.0
10
-16.740408
20
9.732051
40
0.0
41
0.0
42
0.0
10
-18.472459
20
8.732051
40
0.0
41
0.0
42
0.0
10
-18.472459
20
6.732051
40
0.0
41
0.0
42
0.0
10
-16.740408
20
5.732051
40
0.0
41
0.0
42
0.0
10
-15.008357
20
6.732051
40
0.0
41
0.0
42
0.0
210
0.0
220
0.0
230
1.0
0
LWPOLYLINE
5
75
330
17
100
AcDbEntity
67
0
8
Add_Red
62
256
6
ByLayer
370
-1
48
1.0
60
0
100
AcDbPolyline
90
7
70
0
38
0.0
39
0.0
10
-19.472458
20
6.732051
40
0.0
41
0.0
42
0.0
10
-19.472458
20
8.732051
40
0.0
41
0.0
42
0.0
10
-21.204509
20
9.732051
40
0.0
41
0.0
42
0.0
10
-22.936559
20
8.732051
40
0.0
41
0.0
42
0.0
10
-22.936559
20
6.732051
40
0.0
41
0.0
42
0.0
10
-21.204509
20
5.732051
40
0.0
41
0.0
42
0.0
10
-19.472458
20
6.732051
40
0.0
41
0.0
42
0.0
210
0.0
220
0.0
230
1.0
0
LWPOLYLINE
5
76
330
17
100
AcDbEntity
67
0
8
Add_Red
62
256
6
ByLayer
370
-1
48
1.0
60
0
100
AcDbPolyline
90
7
70
0
38
0.0
39
0.0
10
-23.936559
20
6.732051
40
0.0
41
0.0
42
0.0
10
-23.936559
20
8.732051
40
0.0
41
0.0
42
0.0
10
-25.66861
20
9.732051
40
0.0
41
0.0
42
0.0
10
-27.40066
20
8.732051
40
0.0
41
0.0
42
0.0
10
-27.40066
20
6.732051
40
0.0
41
0.0
42
0.0
10
-25.66861
20
5.732051
40
0.0
41
0.0
42
0.0
10
-23.936559
20
6.732051
40
0.0
41
0.0
42
0.0
210
0.0
220
0.0
230
1.0
0
LWPOLYLINE
5
77
330
17
100
AcDbEntity
67
0
8
Add_Red
62
256
6
ByLayer
370
-1
48
1.0
60
0
100
AcDbPolyline
90
7
70
0
38
0.0
39
0.0
10
-28.40066
20
6.732051
40
0.0
41
0.0
42
0.0
10
-28.40066
20
8.732051
40
0.0
41
0.0
42
0.0
10
-30.132711
20
9.732051
40
0.0
41
0.0
42
0.0
10
-31.864762
20
8.732051
40
0.0
41
0.0
42
0.0
10
-31.864762
20
6.732051
40
0.0
41
0.0
42
0.0
10
-30.132711
20
5.732051
40
0.0
41
0.0
42
0.0
10
-28.40066
20
6.732051
40
0.0
41
0.0
42
0.0
210
0.0
220
0.0
230
1.0
0
LWPOLYLINE
5
78
330
17
100
AcDbEntity
67
0
8
Add_Red
62
256
6
ByLayer
370
-1
48
1.0
60
0
100
AcDbPolyline
90
4
70
0
38
0.0
39
0.0
10
-5.551662
20
9.61453
40
0.0
41
0.0
42
0.0
10
-5.678554
20
9.654883
40
0.0
41
0.0
42
0.0
10
-5.580161
20
9.598076
40
0.0
41
0.0
42
0.0
10
-5.551662
20
9.61453
40
0.0
41
0.0
42
0.0
210
0.0
220
0.0
230
1.0
0
LWPOLYLINE
5
79
330
17
100
AcDbEntity
67
0
8
Add_Red
62
256
6
ByLayer
370
-1
48
1.0
60
0
100
AcDbPolyline
90
7
70
0
38
0.0
39
0.0
10
-1.616054
20
6.732051
40
0.0
41
0.0
42
0.0
10
-1.616054
20
8.362957
40
0.0
41
0.0
42
0.0
10
-4.262014
20
9.204405
40
0.0
41
0.0
42
0.0
10
-5.080155
20
8.732051
40
0.0
41
0.0
42
0.0
10
-5.080155
20
6.732051
40
0.0
41
0.0
42
0.0
10
-3.348105
20
5.732051
40
0.0
41
0.0
42
0.0
10
-1.616054
20
6.732051
40
0.0
41
0.0
42
0.0
210
0.0
220
0.0
230
1.0
0
LWPOLYLINE
5
7A
330
17
100
AcDbEntity
67
0
8
Add_Red
62
256
6
ByLayer
370
-1
48
1.0
60
0
100
AcDbPolyline
90
6
70
0
38
0.0
39
0.0
10
-32.864762
20
6.732051
40
0.0
41
0.0
42
0.0
10
-32.864762
20
8.732051
40
0.0
41
0.0
42
0.0
10
-33.588857
20
9.150108
40
0.0
41
0.0
42
0.0
10
-35.173531
20
6.06502
40
0.0
41
0.0
42
0.0
10
-34.596811
20
5.732051
40
0.0
41
0.0
42
0.0
10
-32.864762
20
6.732051
40
0.0
41
0.0
42
0.0
210
0.0
220
0.0
230
1.0
0
LWPOLYLINE
5
7B
330
17
100
AcDbEntity
67
0
8
Add_Red
62
256
6
ByLayer
370
-1
48
1.0
60
0
100
AcDbPolyline
90
5
70
0
38
0.0
39
0.0
10
-0.08341
20
7.875557
40
0.0
41
0.0
42
0.0
10
-0.616054
20
8.044944
40
0.0
41
0.0
42
0.0
10
-0.616054
20
6.732051
40
0.0
41
0.0
42
0.0
10
-0.567482
20
6.704008
40
0.0
41
0.0
42
0.0
10
-0.08341
20
7.875557
40
0.0
41
0.0
42
0.0
210
0.0
220
0.0
230
1.0
0
LWPOLYLINE
5
7C
330
17
100
AcDbEntity
67
0
8
Add_Red
62
256
6
ByLayer
370
-1
48
1.0
60
0
100
AcDbPolyline
90
6
70
0
38
0.0
39
0.0
10
-0.952692
20
5.771723
40
0.0
41
0.0
42
0.0
10
-1.116027
20
5.866025
40
0.0
41
0.0
42
0.0
10
-2.848078
20
4.866025
40
0.0
41
0.0
42
0.0
10
-2.848078
20
2.866025
40
0.0
41
0.0
42
0.0
10
-2.287115
20
2.542153
40
0.0
41
0.0
42
0.0
10
-0.952692
20
5.771723
40
0.0
41
0.0
42
0.0
210
0.0
220
0.0
230
1.0
0
LWPOLYLINE
5
7D
330
17
100
AcDbEntity
67
0
8
Add_Red
62
256
6
ByLayer
370
-1
48
1.0
60
0
100
AcDbPolyline
90
7
70
0
38
0.0
39
0.0
10
-3.848078
20
2.866025
40
0.0
41
0.0
42
0.0
10
-3.848078
20
4.866025
40
0.0
41
0.0
42
0.0
10
-5.580129
20
5.866025
40
0.0
41
0.0
42
0.0
10
-7.312179
20
4.866025
40
0.0
41
0.0
42
0.0
10
-7.312179
20
2.866025
40
0.0
41
0.0
42
0.0
10
-5.580129
20
1.866025
40
0.0
41
0.0
42
0.0
10
-3.848078
20
2.866025
40
0.0
41
0.0
42
0.0
210
0.0
220
0.0
230
1.0
0
LWPOLYLINE
5
7E
330
17
100
AcDbEntity
67
0
8
Add_Red
62
256
6
ByLayer
370
-1
48
1.0
60
0
100
AcDbPolyline
90
7
70
0
38
0.0
39
0.0
10
-8.312179
20
2.866025
40
0.0
41
0.0
42
0.0
10
-8.312179
20
4.866025
40
0.0
41
0.0
42
0.0
10
-10.044229
20
5.866025
40
0.0
41
0.0
42
0.0
10
-11.77628
20
4.866025
40
0.0
41
0.0
42
0.0
10
-11.77628
20
2.866025
40
0.0
41
0.0
42
0.0
10
-10.044229
20
1.866025
40
0.0
41
0.0
42
0.0
10
-8.312179
20
2.866025
40
0.0
41
0.0
42
0.0
210
0.0
220
0.0
230
1.0
0
LWPOLYLINE
5
7F
330
17
100
AcDbEntity
67
0
8
Add_Red
62
256
6
ByLayer
370
-1
48
1.0
60
0
100
AcDbPolyline
90
7
70
0
38
0.0
39
0.0
10
-12.77628
20
2.866025
40
0.0
41
0.0
42
0.0
10
-12.77628
20
4.866025
40
0.0
41
0.0
42
0.0
10
-14.50833
20
5.866025
40
0.0
41
0.0
42
0.0
10
-16.240381
20
4.866025
40
0.0
41
0.0
42
0.0
10
-16.240381
20
2.866025
40
0.0
41
0.0
42
0.0
10
-14.50833
20
1.866025
40
0.0
41
0.0
42
0.0
10
-12.77628
20
2.866025
40
0.0
41
0.0
42
0.0
210
0.0
220
0.0
230
1.0
0
LWPOLYLINE
5
80
330
17
100
AcDbEntity
67
0
8
Add_Red
62
256
6
ByLayer
370
-1
48
1.0
60
0
100
AcDbPolyline
90
7
70
0
38
0.0
39
0.0
10
-17.240381
20
2.866025
40
0.0
41
0.0
42
0.0
10
-17.240381
20
4.866025
40
0.0
41
0.0
42
0.0
10
-18.972432
20
5.866025
40
0.0
41
0.0
42
0.0
10
-20.704483
20
4.866025
40
0.0
41
0.0
42
0.0
10
-20.704483
20
2.866025
40
0.0
41
0.0
42
0.0
10
-18.972432
20
1.866025
40
0.0
41
0.0
42
0.0
10
-17.240381
20
2.866025
40
0.0
41
0.0
42
0.0
210
0.0
220
0.0
230
1.0
0
LWPOLYLINE
5
81
330
17
100
AcDbEntity
67
0
8
Add_Red
62
256
6
ByLayer
370
-1
48
1.0
60
0
100
AcDbPolyline
90
7
70
0
38
0.0
39
0.0
10
-21.704482
20
2.866025
40
0.0
41
0.0
42
0.0
10
-21.704482
20
4.866025
40
0.0
41
0.0
42
0.0
10
-23.436532
20
5.866025
40
0.0
41
0.0
42
0.0
10
-25.168583
20
4.866025
40
0.0
41
0.0
42
0.0
10
-25.168583
20
2.866025
40
0.0
41
0.0
42
0.0
10
-23.436532
20
1.866025
40
0.0
41
0.0
42
0.0
10
-21.704482
20
2.866025
40
0.0
41
0.0
42
0.0
210
0.0
220
0.0
230
1.0
0
LWPOLYLINE
5
82
330
17
100
AcDbEntity
67
0
8
Add_Red
62
256
6
ByLayer
370
-1
48
1.0
60
0
100
AcDbPolyline
90
7
70
0
38
0.0
39
0.0
10
-26.168583
20
2.866025
40
0.0
41
0.0
42
0.0
10
-26.168583
20
4.866025
40
0.0
41
0.0
42
0.0
10
-27.900634
20
5.866025
40
0.0
41
0.0
42
0.0
10
-29.632684
20
4.866025
40
0.0
41
0.0
42
0.0
10
-29.632684
20
2.866025
40
0.0
41
0.0
42
0.0
10
-27.900634
20
1.866025
40
0.0
41
0.0
42
0.0
10
-26.168583
20
2.866025
40
0.0
41
0.0
42
0.0
210
0.0
220
0.0
230
1.0
0
LWPOLYLINE
5
83
330
17
100
AcDbEntity
67
0
8
Add_Red
62
256
6
ByLayer
370
-1
48
1.0
60
0
100
AcDbPolyline
90
7
70
0
38
0.0
39
0.0
10
-30.632684
20
2.866025
40
0.0
41
0.0
42
0.0
10
-30.632684
20
4.866025
40
0.0
41
0.0
42
0.0
10
-32.364735
20
5.866025
40
0.0
41
0.0
42
0.0
10
-34.096785
20
4.866025
40
0.0
41
0.0
42
0.0
10
-34.096785
20
2.866025
40
0.0
41
0.0
42
0.0
10
-32.364735
20
1.866025
40
0.0
41
0.0
42
0.0
10
-30.632684
20
2.866025
40
0.0
41
0.0
42
0.0
210
0.0
220
0.0
230
1.0
0
LWPOLYLINE
5
84
330
17
100
AcDbEntity
67
0
8
Add_Red
62
256
6
ByLayer
370
-1
48
1.0
60
0
100
AcDbPolyline
90
6
70
0
38
0.0
39
0.0
10
-35.096785
20
2.866025
40
0.0
41
0.0
42
0.0
10
-35.096785
20
4.866025
40
0.0
41
0.0
42
0.0
10
-35.630981
20
5.174444
40
0.0
41
0.0
42
0.0
10
-37.215655
20
2.089356
40
0.0
41
0.0
42
0.0
10
-36.828835
20
1.866025
40
0.0
41
0.0
42
0.0
10
-35.096785
20
2.866025
40
0.0
41
0.0
42
0.0
210
0.0
220
0.0
230
1.0
0
LWPOLYLINE
5
85
330
17
100
AcDbEntity
67
0
8
Add_Red
62
256
6
ByLayer
370
-1
48
1.0
60
0
100
AcDbPolyline
90
6
70
0
38
0.0
39
0.0
10
-2.672329
20
1.60986
40
0.0
41
0.0
42
0.0
10
-3.348072
20
2.0
40
0.0
41
0.0
42
0.0
10
-5.080123
20
1.0
40
0.0
41
0.0
42
0.0
10
-5.080123
20
-1.0
40
0.0
41
0.0
42
0.0
10
-4.006753
20
-1.61971
40
0.0
41
0.0
42
0.0
10
-2.672329
20
1.60986
40
0.0
41
0.0
42
0.0
210
0.0
220
0.0
230
1.0
0
LWPOLYLINE
5
86
330
17
100
AcDbEntity
67
0
8
Add_Red
62
256
6
ByLayer
370
-1
48
1.0
60
0
100
AcDbPolyline
90
7
70
0
38
0.0
39
0.0
10
-6.080123
20
-1.0
40
0.0
41
0.0
42
0.0
10
-6.080123
20
1.0
40
0.0
41
0.0
42
0.0
10
-7.812174
20
2.0
40
0.0
41
0.0
42
0.0
10
-9.544223
20
1.0
40
0.0
41
0.0
42
0.0
10
-9.544223
20
-1.0
40
0.0
41
0.0
42
0.0
10
-7.812174
20
-2.0
40
0.0
41
0.0
42
0.0
10
-6.080123
20
-1.0
40
0.0
41
0.0
42
0.0
210
0.0
220
0.0
230
1.0
0
LWPOLYLINE
5
87
330
17
100
AcDbEntity
67
0
8
Add_Red
62
256
6
ByLayer
370
-1
48
1.0
60
0
100
AcDbPolyline
90
7
70
0
38
0.0
39
0.0
10
-10.544223
20
-1.0
40
0.0
41
0.0
42
0.0
10
-10.544223
20
1.0
40
0.0
41
0.0
42
0.0
10
-12.276274
20
2.0
40
0.0
41
0.0
42
0.0
10
-14.008325
20
1.0
40
0.0
41
0.0
42
0.0
10
-14.008325
20
-1.0
40
0.0
41
0.0
42
0.0
10
-12.276274
20
-2.0
40
0.0
41
0.0
42
0.0
10
-10.544223
20
-1.0
40
0.0
41
0.0
42
0.0
210
0.0
220
0.0
230
1.0
0
LWPOLYLINE
5
88
330
17
100
AcDbEntity
67
0
8
Add_Red
62
256
6
ByLayer
370
-1
48
1.0
60
0
100
AcDbPolyline
90
7
70
0
38
0.0
39
0.0
10
-15.008325
20
-1.0
40
0.0
41
0.0
42
0.0
10
-15.008325
20
1.0
40
0.0
41
0.0
42
0.0
10
-16.740375
20
2.0
40
0.0
41
0.0
42
0.0
10
-18.472426
20
1.0
40
0.0
41
0.0
42
0.0
10
-18.472426
20
-1.0
40
0.0
41
0.0
42
0.0
10
-16.740375
20
-2.0
40
0.0
41
0.0
42
0.0
10
-15.008325
20
-1.0
40
0.0
41
0.0
42
0.0
210
0.0
220
0.0
230
1.0
0
LWPOLYLINE
5
89
330
17
100
AcDbEntity
67
0
8
Add_Red
62
256
6
ByLayer
370
-1
48
1.0
60
0
100
AcDbPolyline
90
7
70
0
38
0.0
39
0.0
10
-19.472426
20
-1.0
40
0.0
41
0.0
42
0.0
10
-19.472426
20
1.0
40
0.0
41
0.0
42
0.0
10
-21.204477
20
2.0
40
0.0
41
0.0
42
0.0
10
-22.936527
20
1.0
40
0.0
41
0.0
42
0.0
10
-22.936527
20
-1.0
40
0.0
41
0.0
42
0.0
10
-21.204477
20
-2.0
40
0.0
41
0.0
42
0.0
10
-19.472426
20
-1.0
40
0.0
41
0.0
42
0.0
210
0.0
220
0.0
230
1.0
0
LWPOLYLINE
5
8A
330
17
100
AcDbEntity
67
0
8
Add_Red
62
256
6
ByLayer
370
-1
48
1.0
60
0
100
AcDbPolyline
90
7
70
0
38
0.0
39
0.0
10
-23.936526
20
-1.0
40
0.0
41
0.0
42
0.0
10
-23.936526
20
1.0
40
0.0
41
0.0
42
0.0
10
-25.668577
20
2.0
40
0.0
41
0.0
42
0.0
10
-27.400628
20
1.0
40
0.0
41
0.0
42
0.0
10
-27.400628
20
-1.0
40
0.0
41
0.0
42
0.0
10
-25.668577
20
-2.0
40
0.0
41
0.0
42
0.0
10
-23.936526
20
-1.0
40
0.0
41
0.0
42
0.0
210
0.0
220
0.0
230
1.0
0
LWPOLYLINE
5
8B
330
17
100
AcDbEntity
67
0
8
Add_Red
62
256
6
ByLayer
370
-1
48
1.0
60
0
100
AcDbPolyline
90
7
70
0
38
0.0
39
0.0
10
-28.400628
20
-1.0
40
0.0
41
0.0
42
0.0
10
-28.400628
20
1.0
40
0.0
41
0.0
42
0.0
10
-30.132679
20
2.0
40
0.0
41
0.0
42
0.0
10
-31.864729
20
1.0
40
0.0
41
0.0
42
0.0
10
-31.864729
20
-1.0
40
0.0
41
0.0
42
0.0
10
-30.132679
20
-2.0
40
0.0
41
0.0
42
0.0
10
-28.400628
20
-1.0
40
0.0
41
0.0
42
0.0
210
0.0
220
0.0
230
1.0
0
LWPOLYLINE
5
8C
330
17
100
AcDbEntity
67
0
8
Add_Red
62
256
6
ByLayer
370
-1
48
1.0
60
0
100
AcDbPolyline
90
7
70
0
38
0.0
39
0.0
10
-32.864729
20
-1.0
40
0.0
41
0.0
42
0.0
10
-32.864729
20
1.0
40
0.0
41
0.0
42
0.0
10
-34.596779
20
2.0
40
0.0
41
0.0
42
0.0
10
-36.32883
20
1.0
40
0.0
41
0.0
42
0.0
10
-36.32883
20
-1.0
40
0.0
41
0.0
42
0.0
10
-34.596779
20
-2.0
40
0.0
41
0.0
42
0.0
10
-32.864729
20
-1.0
40
0.0
41
0.0
42
0.0
210
0.0
220
0.0
230
1.0
0
LWPOLYLINE
5
8D
330
17
100
AcDbEntity
67
0
8
Add_Red
62
256
6
ByLayer
370
-1
48
1.0
60
0
100
AcDbPolyline
90
7
70
0
38
0.0
39
0.0
10
-37.32883
20
-1.0
40
0.0
41
0.0
42
0.0
10
-37.32883
20
1.0
40
0.0
41
0.0
42
0.0
10
-37.67311
20
1.19877
40
0.0
41
0.0
42
0.0
10
-38.04989
20
0.465245
40
0.0
41
0.0
42
0.0
10
-39.407637
20
-1.7998
40
0.0
41
0.0
42
0.0
10
-39.06088
20
-2.0
40
0.0
41
0.0
42
0.0
10
-37.32883
20
-1.0
40
0.0
41
0.0
42
0.0
210
0.0
220
0.0
230
1.0
0
LWPOLYLINE
5
8E
330
17
100
AcDbEntity
67
0
8
Add_Red
62
256
6
ByLayer
370
-1
48
1.0
60
0
100
AcDbPolyline
90
6
70
0
38
0.0
39
0.0
10
-4.391963
20
-2.551994
40
0.0
41
0.0
42
0.0
10
-5.580096
20
-1.866025
40
0.0
41
0.0
42
0.0
10
-7.312147
20
-2.866025
40
0.0
41
0.0
42
0.0
10
-7.312147
20
-4.866025
40
0.0
41
0.0
42
0.0
10
-5.726386
20
-5.781564
40
0.0
41
0.0
42
0.0
10
-4.391963
20
-2.551994
40
0.0
41
0.0
42
0.0
210
0.0
220
0.0
230
1.0
0
LWPOLYLINE
5
8F
330
17
100
AcDbEntity
67
0
8
Add_Red
62
256
6
ByLayer
370
-1
48
1.0
60
0
100
AcDbPolyline
90
7
70
0
38
0.0
39
0.0
10
-8.312147
20
-4.866025
40
0.0
41
0.0
42
0.0
10
-8.312147
20
-2.866025
40
0.0
41
0.0
42
0.0
10
-10.044196
20
-1.866025
40
0.0
41
0.0
42
0.0
10
-11.776247
20
-2.866025
40
0.0
41
0.0
42
0.0
10
-11.776247
20
-4.866025
40
0.0
41
0.0
42
0.0
10
-10.044196
20
-5.866025
40
0.0
41
0.0
42
0.0
10
-8.312147
20
-4.866025
40
0.0
41
0.0
42
0.0
210
0.0
220
0.0
230
1.0
0
LWPOLYLINE
5
90
330
17
100
AcDbEntity
67
0
8
Add_Red
62
256
6
ByLayer
370
-1
48
1.0
60
0
100
AcDbPolyline
90
7
70
0
38
0.0
39
0.0
10
-12.776247
20
-4.866025
40
0.0
41
0.0
42
0.0
10
-12.776247
20
-2.866025
40
0.0
41
0.0
42
0.0
10
-14.508298
20
-1.866025
40
0.0
41
0.0
42
0.0
10
-16.240349
20
-2.866025
40
0.0
41
0.0
42
0.0
10
-16.240349
20
-4.866025
40
0.0
41
0.0
42
0.0
10
-14.508298
20
-5.866025
40
0.0
41
0.0
42
0.0
10
-12.776247
20
-4.866025
40
0.0
41
0.0
42
0.0
210
0.0
220
0.0
230
1.0
0
LWPOLYLINE
5
91
330
17
100
AcDbEntity
67
0
8
Add_Red
62
256
6
ByLayer
370
-1
48
1.0
60
0
100
AcDbPolyline
90
7
70
0
38
0.0
39
0.0
10
-17.240349
20
-4.866025
40
0.0
41
0.0
42
0.0
10
-17.240349
20
-2.866025
40
0.0
41
0.0
42
0.0
10
-18.972399
20
-1.866025
40
0.0
41
0.0
42
0.0
10
-20.70445
20
-2.866025
40
0.0
41
0.0
42
0.0
10
-20.70445
20
-4.866025
40
0.0
41
0.0
42
0.0
10
-18.972399
20
-5.866025
40
0.0
41
0.0
42
0.0
10
-17.240349
20
-4.866025
40
0.0
41
0.0
42
0.0
210
0.0
220
0.0
230
1.0
0
LWPOLYLINE
5
92
330
17
100
AcDbEntity
67
0
8
Add_Red
62
256
6
ByLayer
370
-1
48
1.0
60
0
100
AcDbPolyline
90
7
70
0
38
0.0
39
0.0
10
-21.70445
20
-4.866025
40
0.0
41
0.0
42
0.0
10
-21.70445
20
-2.866025
40
0.0
41
0.0
42
0.0
10
-23.4365
20
-1.866025
40
0.0
41
0.0
42
0.0
10
-25.168551
20
-2.866025
40
0.0
41
0.0
42
0.0
10
-25.168551
20
-4.866025
40
0.0
41
0.0
42
0.0
10
-23.4365
20
-5.866025
40
0.0
41
0.0
42
0.0
10
-21.70445
20
-4.866025
40
0.0
41
0.0
42
0.0
210
0.0
220
0.0
230
1.0
0
LWPOLYLINE
5
93
330
17
100
AcDbEntity
67
0
8
Add_Red
62
256
6
ByLayer
370
-1
48
1.0
60
0
100
AcDbPolyline
90
7
70
0
38
0.0
39
0.0
10
-26.16855
20
-4.866025
40
0.0
41
0.0
42
0.0
10
-26.16855
20
-2.866025
40
0.0
41
0.0
42
0.0
10
-27.900601
20
-1.866025
40
0.0
41
0.0
42
0.0
10
-29.632652
20
-2.866025
40
0.0
41
0.0
42
0.0
10
-29.632652
20
-4.866025
40
0.0
41
0.0
42
0.0
10
-27.900601
20
-5.866025
40
0.0
41
0.0
42
0.0
10
-26.16855
20
-4.866025
40
0.0
41
0.0
42
0.0
210
0.0
220
0.0
230
1.0
0
LWPOLYLINE
5
94
330
17
100
AcDbEntity
67
0
8
Add_Red
62
256
6
ByLayer
370
-1
48
1.0
60
0
100
AcDbPolyline
90
7
70
0
38
0.0
39
0.0
10
-30.632652
20
-4.866025
40
0.0
41
0.0
42
0.0
10
-30.632652
20
-2.866025
40
0.0
41
0.0
42
0.0
10
-32.364703
20
-1.866025
40
0.0
41
0.0
42
0.0
10
-34.096752
20
-2.866025
40
0.0
41
0.0
42
0.0
10
-34.096752
20
-4.866025
40
0.0
41
0.0
42
0.0
10
-32.364703
20
-5.866025
40
0.0
41
0.0
42
0.0
10
-30.632652
20
-4.866025
40
0.0
41
0.0
42
0.0
210
0.0
220
0.0
230
1.0
0
LWPOLYLINE
5
95
330
17
100
AcDbEntity
67
0
8
Add_Red
62
256
6
ByLayer
370
-1
48
1.0
60
0
100
AcDbPolyline
90
7
70
0
38
0.0
39
0.0
10
-35.096752
20
-4.866025
40
0.0
41
0.0
42
0.0
10
-35.096752
20
-2.866025
40
0.0
41
0.0
42
0.0
10
-36.828803
20
-1.866025
40
0.0
41
0.0
42
0.0
10
-38.560854
20
-2.866025
40
0.0
41
0.0
42
0.0
10
-38.560854
20
-4.866025
40
0.0
41
0.0
42
0.0
10
-36.828803
20
-5.866025
40
0.0
41
0.0
42
0.0
10
-35.096752
20
-4.866025
40
0.0
41
0.0
42
0.0
210
0.0
220
0.0
230
1.0
0
LWPOLYLINE
5
96
330
17
100
AcDbEntity
67
0
8
Add_Red
62
256
6
ByLayer
370
-1
48
1.0
60
0
100
AcDbPolyline
90
6
70
0
38
0.0
39
0.0
10
-39.560854
20
-4.866025
40
0.0
41
0.0
42
0.0
10
-39.560854
20
-2.866025
40
0.0
41
0.0
42
0.0
10
-39.921838
20
-2.657611
40
0.0
41
0.0
42
0.0
10
-41.703108
20
-5.629194
40
0.0
41
0.0
42
0.0
10
-41.292904
20
-5.866025
40
0.0
41
0.0
42
0.0
10
-39.560854
20
-4.866025
40
0.0
41
0.0
42
0.0
210
0.0
220
0.0
230
1.0
0
LWPOLYLINE
5
97
330
17
100
AcDbEntity
67
0
8
Add_Red
62
256
6
ByLayer
370
-1
48
1.0
60
0
100
AcDbPolyline
90
7
70
0
38
0.0
39
0.0
10
-7.216621
20
-9.388227
40
0.0
41
0.0
42
0.0
10
-6.1116
20
-6.713858
40
0.0
41
0.0
42
0.0
10
-7.812141
20
-5.732051
40
0.0
41
0.0
42
0.0
10
-9.544191
20
-6.732051
40
0.0
41
0.0
42
0.0
10
-9.544191
20
-8.732051
40
0.0
41
0.0
42
0.0
10
-7.812141
20
-9.732051
40
0.0
41
0.0
42
0.0
10
-7.216621
20
-9.388227
40
0.0
41
0.0
42
0.0
210
0.0
220
0.0
230
1.0
0
LWPOLYLINE
5
98
330
17
100
AcDbEntity
67
0
8
Add_Red
62
256
6
ByLayer
370
-1
48
1.0
60
0
100
AcDbPolyline
90
7
70
0
38
0.0
39
0.0
10
-10.544191
20
-8.732051
40
0.0
41
0.0
42
0.0
10
-10.544191
20
-6.732051
40
0.0
41
0.0
42
0.0
10
-12.276242
20
-5.732051
40
0.0
41
0.0
42
0.0
10
-14.008292
20
-6.732051
40
0.0
41
0.0
42
0.0
10
-14.008292
20
-8.732051
40
0.0
41
0.0
42
0.0
10
-12.276242
20
-9.732051
40
0.0
41
0.0
42
0.0
10
-10.544191
20
-8.732051
40
0.0
41
0.0
42
0.0
210
0.0
220
0.0
230
1.0
0
LWPOLYLINE
5
99
330
17
100
AcDbEntity
67
0
8
Add_Red
62
256
6
ByLayer
370
-1
48
1.0
60
0
100
AcDbPolyline
90
7
70
0
38
0.0
39
0.0
10
-15.008292
20
-8.732051
40
0.0
41
0.0
42
0.0
10
-15.008292
20
-6.732051
40
0.0
41
0.0
42
0.0
10
-16.740343
20
-5.732051
40
0.0
41
0.0
42
0.0
10
-18.472394
20
-6.732051
40
0.0
41
0.0
42
0.0
10
-18.472394
20
-8.732051
40
0.0
41
0.0
42
0.0
10
-16.740343
20
-9.732051
40
0.0
41
0.0
42
0.0
10
-15.008292
20
-8.732051
40
0.0
41
0.0
42
0.0
210
0.0
220
0.0
230
1.0
0
LWPOLYLINE
5
9A
330
17
100
AcDbEntity
67
0
8
Add_Red
62
256
6
ByLayer
370
-1
48
1.0
60
0
100
AcDbPolyline
90
7
70
0
38
0.0
39
0.0
10
-19.472393
20
-8.732051
40
0.0
41
0.0
42
0.0
10
-19.472393
20
-6.732051
40
0.0
41
0.0
42
0.0
10
-21.204444
20
-5.732051
40
0.0
41
0.0
42
0.0
10
-22.936494
20
-6.732051
40
0.0
41
0.0
42
0.0
10
-22.936494
20
-8.732051
40
0.0
41
0.0
42
0.0
10
-21.204444
20
-9.732051
40
0.0
41
0.0
42
0.0
10
-19.472393
20
-8.732051
40
0.0
41
0.0
42
0.0
210
0.0
220
0.0
230
1.0
0
LWPOLYLINE
5
9B
330
17
100
AcDbEntity
67
0
8
Add_Red
62
256
6
ByLayer
370
-1
48
1.0
60
0
100
AcDbPolyline
90
7
70
0
38
0.0
39
0.0
10
-23.936494
20
-8.732051
40
0.0
41
0.0
42
0.0
10
-23.936494
20
-6.732051
40
0.0
41
0.0
42
0.0
10
-25.668545
20
-5.732051
40
0.0
41
0.0
42
0.0
10
-27.400596
20
-6.732051
40
0.0
41
0.0
42
0.0
10
-27.400596
20
-8.732051
40
0.0
41
0.0
42
0.0
10
-25.668545
20
-9.732051
40
0.0
41
0.0
42
0.0
10
-23.936494
20
-8.732051
40
0.0
41
0.0
42
0.0
210
0.0
220
0.0
230
1.0
0
LWPOLYLINE
5
9C
330
17
100
AcDbEntity
67
0
8
Add_Red
62
256
6
ByLayer
370
-1
48
1.0
60
0
100
AcDbPolyline
90
7
70
0
38
0.0
39
0.0
10
-28.400595
20
-8.732051
40
0.0
41
0.0
42
0.0
10
-28.400595
20
-6.732051
40
0.0
41
0.0
42
0.0
10
-30.132646
20
-5.732051
40
0.0
41
0.0
42
0.0
10
-31.864697
20
-6.732051
40
0.0
41
0.0
42
0.0
10
-31.864697
20
-8.732051
40
0.0
41
0.0
42
0.0
10
-30.132646
20
-9.732051
40
0.0
41
0.0
42
0.0
10
-28.400595
20
-8.732051
40
0.0
41
0.0
42
0.0
210
0.0
220
0.0
230
1.0
0
LWPOLYLINE
5
9D
330
17
100
AcDbEntity
67
0
8
Add_Red
62
256
6
ByLayer
370
-1
48
1.0
60
0
100
AcDbPolyline
90
7
70
0
38
0.0
39
0.0
10
-32.864697
20
-8.732051
40
0.0
41
0.0
42
0.0
10
-32.864697
20
-6.732051
40
0.0
41
0.0
42
0.0
10
-34.596746
20
-5.732051
40
0.0
41
0.0
42
0.0
10
-36.328797
20
-6.732051
40
0.0
41
0.0
42
0.0
10
-36.328797
20
-8.732051
40
0.0
41
0.0
42
0.0
10
-34.596746
20
-9.732051
40
0.0
41
0.0
42
0.0
10
-32.864697
20
-8.732051
40
0.0
41
0.0
42
0.0
210
0.0
220
0.0
230
1.0
0
LWPOLYLINE
5
9E
330
17
100
AcDbEntity
67
0
8
Add_Red
62
256
6
ByLayer
370
-1
48
1.0
60
0
100
AcDbPolyline
90
7
70
0
38
0.0
39
0.0
10
-37.328797
20
-8.732051
40
0.0
41
0.0
42
0.0
10
-37.328797
20
-6.732051
40
0.0
41
0.0
42
0.0
10
-39.060848
20
-5.732051
40
0.0
41
0.0
42
0.0
10
-40.792899
20
-6.732051
40
0.0
41
0.0
42
0.0
10
-40.792899
20
-8.732051
40
0.0
41
0.0
42
0.0
10
-39.060848
20
-9.732051
40
0.0
41
0.0
42
0.0
10
-37.328797
20
-8.732051
40
0.0
41
0.0
42
0.0
210
0.0
220
0.0
230
1.0
0
LWPOLYLINE
5
9F
330
17
100
AcDbEntity
67
0
8
Add_Red
62
256
6
ByLayer
370
-1
48
1.0
60
0
100
AcDbPolyline
90
6
70
0
38
0.0
39
0.0
10
-41.792898
20
-8.732051
40
0.0
41
0.0
42
0.0
10
-41.792898
20
-6.732051
40
0.0
41
0.0
42
0.0
10
-42.217315
20
-6.487014
40
0.0
41
0.0
42
0.0
10
-43.998585
20
-9.458597
40
0.0
41
0.0
42
0.0
10
-43.524949
20
-9.732051
40
0.0
41
0.0
42
0.0
10
-41.792898
20
-8.732051
40
0.0
41
0.0
42
0.0
210
0.0
220
0.0
230
1.0
0
LWPOLYLINE
5
A0
330
17
100
AcDbEntity
67
0
8
Add_Red
62
256
6
ByLayer
370
-1
48
1.0
60
0
100
AcDbPolyline
90
8
70
0
38
0.0
39
0.0
10
-8.615199
20
-12.773062
40
0.0
41
0.0
42
0.0
10
-8.312114
20
-12.039537
40
0.0
41
0.0
42
0.0
10
-8.312114
20
-10.598076
40
0.0
41
0.0
42
0.0
10
-10.044164
20
-9.598076
40
0.0
41
0.0
42
0.0
10
-11.776215
20
-10.598076
40
0.0
41
0.0
42
0.0
10
-11.776215
20
-12.598076
40
0.0
41
0.0
42
0.0
10
-10.044164
20
-13.598076
40
0.0
41
0.0
42
0.0
10
-8.615199
20
-12.773062
40
0.0
41
0.0
42
0.0
210
0.0
220
0.0
230
1.0
0
LWPOLYLINE
5
A1
330
17
100
AcDbEntity
67
0
8
Add_Red
62
256
6
ByLayer
370
-1
48
1.0
60
0
100
AcDbPolyline
90
7
70
0
38
0.0
39
0.0
10
-12.776215
20
-12.598076
40
0.0
41
0.0
42
0.0
10
-12.776215
20
-10.598076
40
0.0
41
0.0
42
0.0
10
-14.508266
20
-9.598076
40
0.0
41
0.0
42
0.0
10
-16.240316
20
-10.598076
40
0.0
41
0.0
42
0.0
10
-16.240316
20
-12.598076
40
0.0
41
0.0
42
0.0
10
-14.508266
20
-13.598076
40
0.0
41
0.0
42
0.0
10
-12.776215
20
-12.598076
40
0.0
41
0.0
42
0.0
210
0.0
220
0.0
230
1.0
0
LWPOLYLINE
5
A2
330
17
100
AcDbEntity
67
0
8
Add_Red
62
256
6
ByLayer
370
-1
48
1.0
60
0
100
AcDbPolyline
90
7
70
0
38
0.0
39
0.0
10
-17.240316
20
-12.598076
40
0.0
41
0.0
42
0.0
10
-17.240316
20
-10.598076
40
0.0
41
0.0
42
0.0
10
-18.972367
20
-9.598076
40
0.0
41
0.0
42
0.0
10
-20.704418
20
-10.598076
40
0.0
41
0.0
42
0.0
10
-20.704418
20
-12.598076
40
0.0
41
0.0
42
0.0
10
-18.972367
20
-13.598076
40
0.0
41
0.0
42
0.0
10
-17.240316
20
-12.598076
40
0.0
41
0.0
42
0.0
210
0.0
220
0.0
230
1.0
0
LWPOLYLINE
5
A3
330
17
100
AcDbEntity
67
0
8
Add_Red
62
256
6
ByLayer
370
-1
48
1.0
60
0
100
AcDbPolyline
90
7
70
0
38
0.0
39
0.0
10
-21.704417
20
-12.598076
40
0.0
41
0.0
42
0.0
10
-21.704417
20
-10.598076
40
0.0
41
0.0
42
0.0
10
-23.436467
20
-9.598076
40
0.0
41
0.0
42
0.0
10
-25.168518
20
-10.598076
40
0.0
41
0.0
42
0.0
10
-25.168518
20
-12.598076
40
0.0
41
0.0
42
0.0
10
-23.436467
20
-13.598076
40
0.0
41
0.0
42
0.0
10
-21.704417
20
-12.598076
40
0.0
41
0.0
42
0.0
210
0.0
220
0.0
230
1.0
0
LWPOLYLINE
5
A4
330
17
100
AcDbEntity
67
0
8
Add_Red
62
256
6
ByLayer
370
-1
48
1.0
60
0
100
AcDbPolyline
90
7
70
0
38
0.0
39
0.0
10
-26.168518
20
-12.598076
40
0.0
41
0.0
42
0.0
10
-26.168518
20
-10.598076
40
0.0
41
0.0
42
0.0
10
-27.900569
20
-9.598076
40
0.0
41
0.0
42
0.0
10
-29.63262
20
-10.598076
40
0.0
41
0.0
42
0.0
10
-29.63262
20
-12.598076
40
0.0
41
0.0
42
0.0
10
-27.900569
20
-13.598076
40
0.0
41
0.0
42
0.0
10
-26.168518
20
-12.598076
40
0.0
41
0.0
42
0.0
210
0.0
220
0.0
230
1.0
0
LWPOLYLINE
5
A5
330
17
100
AcDbEntity
67
0
8
Add_Red
62
256
6
ByLayer
370
-1
48
1.0
60
0
100
AcDbPolyline
90
7
70
0
38
0.0
39
0.0
10
-30.632619
20
-12.598076
40
0.0
41
0.0
42
0.0
10
-30.632619
20
-10.598076
40
0.0
41
0.0
42
0.0
10
-32.36467
20
-9.598076
40
0.0
41
0.0
42
0.0
10
-34.09672
20
-10.598076
40
0.0
41
0.0
42
0.0
10
-34.09672
20
-12.598076
40
0.0
41
0.0
42
0.0
10
-32.36467
20
-13.598076
40
0.0
41
0.0
42
0.0
10
-30.632619
20
-12.598076
40
0.0
41
0.0
42
0.0
210
0.0
220
0.0
230
1.0
0
LWPOLYLINE
5
A6
330
17
100
AcDbEntity
67
0
8
Add_Red
62
256
6
ByLayer
370
-1
48
1.0
60
0
100
AcDbPolyline
90
7
70
0
38
0.0
39
0.0
10
-35.09672
20
-12.598076
40
0.0
41
0.0
42
0.0
10
-35.09672
20
-10.598076
40
0.0
41
0.0
42
0.0
10
-36.828771
20
-9.598076
40
0.0
41
0.0
42
0.0
10
-38.560821
20
-10.598076
40
0.0
41
0.0
42
0.0
10
-38.560821
20
-12.598076
40
0.0
41
0.0
42
0.0
10
-36.828771
20
-13.598076
40
0.0
41
0.0
42
0.0
10
-35.09672
20
-12.598076
40
0.0
41
0.0
42
0.0
210
0.0
220
0.0
230
1.0
0
LWPOLYLINE
5
A7
330
17
100
AcDbEntity
67
0
8
Add_Red
62
256
6
ByLayer
370
-1
48
1.0
60
0
100
AcDbPolyline
90
7
70
0
38
0.0
39
0.0
10
-39.560821
20
-12.598076
40
0.0
41
0.0
42
0.0
10
-39.560821
20
-10.598076
40
0.0
41
0.0
42
0.0
10
-41.292872
20
-9.598076
40
0.0
41
0.0
42
0.0
10
-43.024923
20
-10.598076
40
0.0
41
0.0
42
0.0
10
-43.024923
20
-12.598076
40
0.0
41
0.0
42
0.0
10
-41.292872
20
-13.598076
40
0.0
41
0.0
42
0.0
10
-39.560821
20
-12.598076
40
0.0
41
0.0
42
0.0
210
0.0
220
0.0
230
1.0
0
LWPOLYLINE
5
A8
330
17
100
AcDbEntity
67
0
8
Add_Red
62
256
6
ByLayer
370
-1
48
1.0
60
0
100
AcDbPolyline
90
6
70
0
38
0.0
39
0.0
10
-44.024922
20
-12.598076
40
0.0
41
0.0
42
0.0
10
-44.024922
20
-10.598076
40
0.0
41
0.0
42
0.0
10
-44.502542
20
-10.322322
40
0.0
41
0.0
42
0.0
10
-46.103907
20
-13.397773
40
0.0
41
0.0
42
0.0
10
-45.756972
20
-13.598076
40
0.0
41
0.0
42
0.0
10
-44.024922
20
-12.598076
40
0.0
41
0.0
42
0.0
210
0.0
220
0.0
230
1.0
0
LWPOLYLINE
5
A9
330
17
100
AcDbEntity
67
0
8
Add_Red
62
256
6
ByLayer
370
-1
48
1.0
60
0
100
AcDbPolyline
90
7
70
0
38
0.0
39
0.0
10
-10.544158
20
-16.464103
40
0.0
41
0.0
42
0.0
10
-10.544158
20
-14.464102
40
0.0
41
0.0
42
0.0
10
-12.276209
20
-13.464102
40
0.0
41
0.0
42
0.0
10
-14.00826
20
-14.464102
40
0.0
41
0.0
42
0.0
10
-14.00826
20
-16.464103
40
0.0
41
0.0
42
0.0
10
-12.276209
20
-17.464103
40
0.0
41
0.0
42
0.0
10
-10.544158
20
-16.464103
40
0.0
41
0.0
42
0.0
210
0.0
220
0.0
230
1.0
0
LWPOLYLINE
5
AA
330
17
100
AcDbEntity
67
0
8
Add_Red
62
256
6
ByLayer
370
-1
48
1.0
60
0
100
AcDbPolyline
90
7
70
0
38
0.0
39
0.0
10
-15.00826
20
-16.464103
40
0.0
41
0.0
42
0.0
10
-15.00826
20
-14.464102
40
0.0
41
0.0
42
0.0
10
-16.740311
20
-13.464102
40
0.0
41
0.0
42
0.0
10
-18.472361
20
-14.464102
40
0.0
41
0.0
42
0.0
10
-18.472361
20
-16.464103
40
0.0
41
0.0
42
0.0
10
-16.740311
20
-17.464103
40
0.0
41
0.0
42
0.0
10
-15.00826
20
-16.464103
40
0.0
41
0.0
42
0.0
210
0.0
220
0.0
230
1.0
0
LWPOLYLINE
5
AB
330
17
100
AcDbEntity
67
0
8
Add_Red
62
256
6
ByLayer
370
-1
48
1.0
60
0
100
AcDbPolyline
90
7
70
0
38
0.0
39
0.0
10
-19.472361
20
-16.464103
40
0.0
41
0.0
42
0.0
10
-19.472361
20
-14.464102
40
0.0
41
0.0
42
0.0
10
-21.204412
20
-13.464102
40
0.0
41
0.0
42
0.0
10
-22.936462
20
-14.464102
40
0.0
41
0.0
42
0.0
10
-22.936462
20
-16.464103
40
0.0
41
0.0
42
0.0
10
-21.204412
20
-17.464103
40
0.0
41
0.0
42
0.0
10
-19.472361
20
-16.464103
40
0.0
41
0.0
42
0.0
210
0.0
220
0.0
230
1.0
0
LWPOLYLINE
5
AC
330
17
100
AcDbEntity
67
0
8
Add_Red
62
256
6
ByLayer
370
-1
48
1.0
60
0
100
AcDbPolyline
90
7
70
0
38
0.0
39
0.0
10
-23.936461
20
-16.464103
40
0.0
41
0.0
42
0.0
10
-23.936461
20
-14.464102
40
0.0
41
0.0
42
0.0
10
-25.668512
20
-13.464102
40
0.0
41
0.0
42
0.0
10
-27.400563
20
-14.464102
40
0.0
41
0.0
42
0.0
10
-27.400563
20
-16.464103
40
0.0
41
0.0
42
0.0
10
-25.668512
20
-17.464103
40
0.0
41
0.0
42
0.0
10
-23.936461
20
-16.464103
40
0.0
41
0.0
42
0.0
210
0.0
220
0.0
230
1.0
0
LWPOLYLINE
5
AD
330
17
100
AcDbEntity
67
0
8
Add_Red
62
256
6
ByLayer
370
-1
48
1.0
60
0
100
AcDbPolyline
90
7
70
0
38
0.0
39
0.0
10
-28.400563
20
-16.464103
40
0.0
41
0.0
42
0.0
10
-28.400563
20
-14.464102
40
0.0
41
0.0
42
0.0
10
-30.132614
20
-13.464102
40
0.0
41
0.0
42
0.0
10
-31.864665
20
-14.464102
40
0.0
41
0.0
42
0.0
10
-31.864665
20
-16.464103
40
0.0
41
0.0
42
0.0
10
-30.132614
20
-17.464103
40
0.0
41
0.0
42
0.0
10
-28.400563
20
-16.464103
40
0.0
41
0.0
42
0.0
210
0.0
220
0.0
230
1.0
0
LWPOLYLINE
5
AE
330
17
100
AcDbEntity
67
0
8
Add_Red
62
256
6
ByLayer
370
-1
48
1.0
60
0
100
AcDbPolyline
90
7
70
0
38
0.0
39
0.0
10
-32.864664
20
-16.464103
40
0.0
41
0.0
42
0.0
10
-32.864664
20
-14.464102
40
0.0
41
0.0
42
0.0
10
-34.596714
20
-13.464102
40
0.0
41
0.0
42
0.0
10
-36.328765
20
-14.464102
40
0.0
41
0.0
42
0.0
10
-36.328765
20
-16.464103
40
0.0
41
0.0
42
0.0
10
-34.596714
20
-17.464103
40
0.0
41
0.0
42
0.0
10
-32.864664
20
-16.464103
40
0.0
41
0.0
42
0.0
210
0.0
220
0.0
230
1.0
0
LWPOLYLINE
5
AF
330
17
100
AcDbEntity
67
0
8
Add_Red
62
256
6
ByLayer
370
-1
48
1.0
60
0
100
AcDbPolyline
90
7
70
0
38
0.0
39
0.0
10
-37.328765
20
-16.464103
40
0.0
41
0.0
42
0.0
10
-37.328765
20
-14.464102
40
0.0
41
0.0
42
0.0
10
-39.060816
20
-13.464102
40
0.0
41
0.0
42
0.0
10
-40.792866
20
-14.464102
40
0.0
41
0.0
42
0.0
10
-40.792866
20
-16.464103
40
0.0
41
0.0
42
0.0
10
-39.060816
20
-17.464103
40
0.0
41
0.0
42
0.0
10
-37.328765
20
-16.464103
40
0.0
41
0.0
42
0.0
210
0.0
220
0.0
230
1.0
0
LWPOLYLINE
5
B0
330
17
100
AcDbEntity
67
0
8
Add_Red
62
256
6
ByLayer
370
-1
48
1.0
60
0
100
AcDbPolyline
90
7
70
0
38
0.0
39
0.0
10
-41.792866
20
-16.464103
40
0.0
41
0.0
42
0.0
10
-41.792866
20
-14.464102
40
0.0
41
0.0
42
0.0
10
-43.524917
20
-13.464102
40
0.0
41
0.0
42
0.0
10
-45.256967
20
-14.464102
40
0.0
41
0.0
42
0.0
10
-45.256967
20
-16.464103
40
0.0
41
0.0
42
0.0
10
-43.524917
20
-17.464103
40
0.0
41
0.0
42
0.0
10
-41.792866
20
-16.464103
40
0.0
41
0.0
42
0.0
210
0.0
220
0.0
230
1.0
0
LWPOLYLINE
5
B1
330
17
100
AcDbEntity
67
0
8
Add_Red
62
256
6
ByLayer
370
-1
48
1.0
60
0
100
AcDbPolyline
90
6
70
0
38
0.0
39
0.0
10
-46.256966
20
-16.464103
40
0.0
41
0.0
42
0.0
10
-46.256966
20
-14.464102
40
0.0
41
0.0
42
0.0
10
-46.56618
20
-14.285577
40
0.0
41
0.0
42
0.0
10
-48.167546
20
-17.361029
40
0.0
41
0.0
42
0.0
10
-47.989017
20
-17.464103
40
0.0
41
0.0
42
0.0
10
-46.256966
20
-16.464103
40
0.0
41
0.0
42
0.0
210
0.0
220
0.0
230
1.0
0
LWPOLYLINE
5
B2
330
17
100
AcDbEntity
67
0
8
Add_Red
62
256
6
ByLayer
370
-1
48
1.0
60
0
100
AcDbPolyline
90
4
70
0
38
0.0
39
0.0
10
-9.241785
20
-14.289526
40
0.0
41
0.0
42
0.0
10
-9.544159
20
-14.464102
40
0.0
41
0.0
42
0.0
10
-9.544159
20
-15.02133
40
0.0
41
0.0
42
0.0
10
-9.241785
20
-14.289526
40
0.0
41
0.0
42
0.0
210
0.0
220
0.0
230
1.0
0
LWPOLYLINE
5
B3
330
17
100
AcDbEntity
67
0
8
Add_Red
62
256
6
ByLayer
370
-1
48
1.0
60
0
100
AcDbPolyline
90
7
70
0
38
0.0
39
0.0
10
-12.776182
20
-20.330128
40
0.0
41
0.0
42
0.0
10
-12.776182
20
-18.330128
40
0.0
41
0.0
42
0.0
10
-14.508233
20
-17.330128
40
0.0
41
0.0
42
0.0
10
-16.240284
20
-18.330128
40
0.0
41
0.0
42
0.0
10
-16.240284
20
-20.330128
40
0.0
41
0.0
42
0.0
10
-14.508233
20
-21.330128
40
0.0
41
0.0
42
0.0
10
-12.776182
20
-20.330128
40
0.0
41
0.0
42
0.0
210
0.0
220
0.0
230
1.0
0
LWPOLYLINE
5
B4
330
17
100
AcDbEntity
67
0
8
Add_Red
62
256
6
ByLayer
370
-1
48
1.0
60
0
100
AcDbPolyline
90
7
70
0
38
0.0
39
0.0
10
-17.240284
20
-20.330128
40
0.0
41
0.0
42
0.0
10
-17.240284
20
-18.330128
40
0.0
41
0.0
42
0.0
10
-18.972335
20
-17.330128
40
0.0
41
0.0
42
0.0
10
-20.704385
20
-18.330128
40
0.0
41
0.0
42
0.0
10
-20.704385
20
-20.330128
40
0.0
41
0.0
42
0.0
10
-18.972335
20
-21.330128
40
0.0
41
0.0
42
0.0
10
-17.240284
20
-20.330128
40
0.0
41
0.0
42
0.0
210
0.0
220
0.0
230
1.0
0
LWPOLYLINE
5
B5
330
17
100
AcDbEntity
67
0
8
Add_Red
62
256
6
ByLayer
370
-1
48
1.0
60
0
100
AcDbPolyline
90
7
70
0
38
0.0
39
0.0
10
-21.704385
20
-20.330128
40
0.0
41
0.0
42
0.0
10
-21.704385
20
-18.330128
40
0.0
41
0.0
42
0.0
10
-23.436435
20
-17.330128
40
0.0
41
0.0
42
0.0
10
-25.168486
20
-18.330128
40
0.0
41
0.0
42
0.0
10
-25.168486
20
-20.330128
40
0.0
41
0.0
42
0.0
10
-23.436435
20
-21.330128
40
0.0
41
0.0
42
0.0
10
-21.704385
20
-20.330128
40
0.0
41
0.0
42
0.0
210
0.0
220
0.0
230
1.0
0
LWPOLYLINE
5
B6
330
17
100
AcDbEntity
67
0
8
Add_Red
62
256
6
ByLayer
370
-1
48
1.0
60
0
100
AcDbPolyline
90
7
70
0
38
0.0
39
0.0
10
-26.168485
20
-20.330128
40
0.0
41
0.0
42
0.0
10
-26.168485
20
-18.330128
40
0.0
41
0.0
42
0.0
10
-27.900536
20
-17.330128
40
0.0
41
0.0
42
0.0
10
-29.632587
20
-18.330128
40
0.0
41
0.0
42
0.0
10
-29.632587
20
-20.330128
40
0.0
41
0.0
42
0.0
10
-27.900536
20
-21.330128
40
0.0
41
0.0
42
0.0
10
-26.168485
20
-20.330128
40
0.0
41
0.0
42
0.0
210
0.0
220
0.0
230
1.0
0
LWPOLYLINE
5
B7
330
17
100
AcDbEntity
67
0
8
Add_Red
62
256
6
ByLayer
370
-1
48
1.0
60
0
100
AcDbPolyline
90
7
70
0
38
0.0
39
0.0
10
-30.632587
20
-20.330128
40
0.0
41
0.0
42
0.0
10
-30.632587
20
-18.330128
40
0.0
41
0.0
42
0.0
10
-32.364638
20
-17.330128
40
0.0
41
0.0
42
0.0
10
-34.096688
20
-18.330128
40
0.0
41
0.0
42
0.0
10
-34.096688
20
-20.330128
40
0.0
41
0.0
42
0.0
10
-32.364638
20
-21.330128
40
0.0
41
0.0
42
0.0
10
-30.632587
20
-20.330128
40
0.0
41
0.0
42
0.0
210
0.0
220
0.0
230
1.0
0
LWPOLYLINE
5
B8
330
17
100
AcDbEntity
67
0
8
Add_Red
62
256
6
ByLayer
370
-1
48
1.0
60
0
100
AcDbPolyline
90
7
70
0
38
0.0
39
0.0
10
-35.096687
20
-20.330128
40
0.0
41
0.0
42
0.0
10
-35.096687
20
-18.330128
40
0.0
41
0.0
42
0.0
10
-36.828738
20
-17.330128
40
0.0
41
0.0
42
0.0
10
-38.560789
20
-18.330128
40
0.0
41
0.0
42
0.0
10
-38.560789
20
-20.330128
40
0.0
41
0.0
42
0.0
10
-36.828738
20
-21.330128
40
0.0
41
0.0
42
0.0
10
-35.096687
20
-20.330128
40
0.0
41
0.0
42
0.0
210
0.0
220
0.0
230
1.0
0
LWPOLYLINE
5
B9
330
17
100
AcDbEntity
67
0
8
Add_Red
62
256
6
ByLayer
370
-1
48
1.0
60
0
100
AcDbPolyline
90
7
70
0
38
0.0
39
0.0
10
-39.560789
20
-20.330128
40
0.0
41
0.0
42
0.0
10
-39.560789
20
-18.330128
40
0.0
41
0.0
42
0.0
10
-41.29284
20
-17.330128
40
0.0
41
0.0
42
0.0
10
-43.02489
20
-18.330128
40
0.0
41
0.0
42
0.0
10
-43.02489
20
-20.330128
40
0.0
41
0.0
42
0.0
10
-41.29284
20
-21.330128
40
0.0
41
0.0
42
0.0
10
-39.560789
20
-20.330128
40
0.0
41
0.0
42
0.0
210
0.0
220
0.0
230
1.0
0
LWPOLYLINE
5
BA
330
17
100
AcDbEntity
67
0
8
Add_Red
62
256
6
ByLayer
370
-1
48
1.0
60
0
100
AcDbPolyline
90
7
70
0
38
0.0
39
0.0
10
-44.02489
20
-20.330128
40
0.0
41
0.0
42
0.0
10
-44.02489
20
-18.330128
40
0.0
41
0.0
42
0.0
10
-45.75694
20
-17.330128
40
0.0
41
0.0
42
0.0
10
-47.488991
20
-18.330128
40
0.0
41
0.0
42
0.0
10
-47.488991
20
-20.330128
40
0.0
41
0.0
42
0.0
10
-45.75694
20
-21.330128
40
0.0
41
0.0
42
0.0
10
-44.02489
20
-20.330128
40
0.0
41
0.0
42
0.0
210
0.0
220
0.0
230
1.0
0
LWPOLYLINE
5
BB
330
17
100
AcDbEntity
67
0
8
Add_Red
62
256
6
ByLayer
370
-1
48
1.0
60
0
100
AcDbPolyline
90
5
70
0
38
0.0
39
0.0
10
-10.640363
20
-17.674362
40
0.0
41
0.0
42
0.0
10
-11.776183
20
-18.330128
40
0.0
41
0.0
42
0.0
10
-11.776183
20
-20.330128
40
0.0
41
0.0
42
0.0
10
-11.74511
20
-20.348068
40
0.0
41
0.0
42
0.0
10
-10.640363
20
-17.674362
40
0.0
41
0.0
42
0.0
210
0.0
220
0.0
230
1.0
0
LWPOLYLINE
5
BC
330
17
100
AcDbEntity
67
0
8
Add_Red
62
256
6
ByLayer
370
-1
48
1.0
60
0
100
AcDbPolyline
90
6
70
0
38
0.0
39
0.0
10
-48.48899
20
-20.330128
40
0.0
41
0.0
42
0.0
10
-48.48899
20
-18.330128
40
0.0
41
0.0
42
0.0
10
-48.629814
20
-18.248823
40
0.0
41
0.0
42
0.0
10
-49.822118
20
-20.538666
40
0.0
41
0.0
42
0.0
10
-50.07216
20
-21.244171
40
0.0
41
0.0
42
0.0
10
-48.48899
20
-20.330128
40
0.0
41
0.0
42
0.0
210
0.0
220
0.0
230
1.0
0
LWPOLYLINE
5
BD
330
17
100
AcDbEntity
67
0
8
Add_Red
62
256
6
ByLayer
370
-1
48
1.0
60
0
100
AcDbPolyline
90
6
70
0
38
0.0
39
0.0
10
-12.130324
20
-21.280361
40
0.0
41
0.0
42
0.0
10
-12.276177
20
-21.196153
40
0.0
41
0.0
42
0.0
10
-14.008228
20
-22.196153
40
0.0
41
0.0
42
0.0
10
-14.008228
20
-24.196153
40
0.0
41
0.0
42
0.0
10
-13.464748
20
-24.509932
40
0.0
41
0.0
42
0.0
10
-12.130324
20
-21.280361
40
0.0
41
0.0
42
0.0
210
0.0
220
0.0
230
1.0
0
LWPOLYLINE
5
BE
330
17
100
AcDbEntity
67
0
8
Add_Red
62
256
6
ByLayer
370
-1
48
1.0
60
0
100
AcDbPolyline
90
7
70
0
38
0.0
39
0.0
10
-15.008227
20
-24.196153
40
0.0
41
0.0
42
0.0
10
-15.008227
20
-22.196153
40
0.0
41
0.0
42
0.0
10
-16.740278
20
-21.196153
40
0.0
41
0.0
42
0.0
10
-18.472329
20
-22.196153
40
0.0
41
0.0
42
0.0
10
-18.472329
20
-24.196153
40
0.0
41
0.0
42
0.0
10
-16.740278
20
-25.196153
40
0.0
41
0.0
42
0.0
10
-15.008227
20
-24.196153
40
0.0
41
0.0
42
0.0
210
0.0
220
0.0
230
1.0
0
LWPOLYLINE
5
BF
330
17
100
AcDbEntity
67
0
8
Add_Red
62
256
6
ByLayer
370
-1
48
1.0
60
0
100
AcDbPolyline
90
7
70
0
38
0.0
39
0.0
10
-19.472329
20
-24.196153
40
0.0
41
0.0
42
0.0
10
-19.472329
20
-22.196153
40
0.0
41
0.0
42
0.0
10
-21.204379
20
-21.196153
40
0.0
41
0.0
42
0.0
10
-22.936429
20
-22.196153
40
0.0
41
0.0
42
0.0
10
-22.936429
20
-24.196153
40
0.0
41
0.0
42
0.0
10
-21.204379
20
-25.196153
40
0.0
41
0.0
42
0.0
10
-19.472329
20
-24.196153
40
0.0
41
0.0
42
0.0
210
0.0
220
0.0
230
1.0
0
LWPOLYLINE
5
C0
330
17
100
AcDbEntity
67
0
8
Add_Red
62
256
6
ByLayer
370
-1
48
1.0
60
0
100
AcDbPolyline
90
7
70
0
38
0.0
39
0.0
10
-23.936429
20
-24.196153
40
0.0
41
0.0
42
0.0
10
-23.936429
20
-22.196153
40
0.0
41
0.0
42
0.0
10
-25.66848
20
-21.196153
40
0.0
41
0.0
42
0.0
10
-27.400531
20
-22.196153
40
0.0
41
0.0
42
0.0
10
-27.400531
20
-24.196153
40
0.0
41
0.0
42
0.0
10
-25.66848
20
-25.196153
40
0.0
41
0.0
42
0.0
10
-23.936429
20
-24.196153
40
0.0
41
0.0
42
0.0
210
0.0
220
0.0
230
1.0
0
LWPOLYLINE
5
C1
330
17
100
AcDbEntity
67
0
8
Add_Red
62
256
6
ByLayer
370
-1
48
1.0
60
0
100
AcDbPolyline
90
7
70
0
38
0.0
39
0.0
10
-28.40053
20
-24.196153
40
0.0
41
0.0
42
0.0
10
-28.40053
20
-22.196153
40
0.0
41
0.0
42
0.0
10
-30.132581
20
-21.196153
40
0.0
41
0.0
42
0.0
10
-31.864632
20
-22.196153
40
0.0
41
0.0
42
0.0
10
-31.864632
20
-24.196153
40
0.0
41
0.0
42
0.0
10
-30.132581
20
-25.196153
40
0.0
41
0.0
42
0.0
10
-28.40053
20
-24.196153
40
0.0
41
0.0
42
0.0
210
0.0
220
0.0
230
1.0
0
LWPOLYLINE
5
C2
330
17
100
AcDbEntity
67
0
8
Add_Red
62
256
6
ByLayer
370
-1
48
1.0
60
0
100
AcDbPolyline
90
7
70
0
38
0.0
39
0.0
10
-32.864632
20
-24.196153
40
0.0
41
0.0
42
0.0
10
-32.864632
20
-22.196153
40
0.0
41
0.0
42
0.0
10
-34.596682
20
-21.196153
40
0.0
41
0.0
42
0.0
10
-36.328732
20
-22.196153
40
0.0
41
0.0
42
0.0
10
-36.328732
20
-24.196153
40
0.0
41
0.0
42
0.0
10
-34.596682
20
-25.196153
40
0.0
41
0.0
42
0.0
10
-32.864632
20
-24.196153
40
0.0
41
0.0
42
0.0
210
0.0
220
0.0
230
1.0
0
LWPOLYLINE
5
C3
330
17
100
AcDbEntity
67
0
8
Add_Red
62
256
6
ByLayer
370
-1
48
1.0
60
0
100
AcDbPolyline
90
7
70
0
38
0.0
39
0.0
10
-37.328732
20
-24.196153
40
0.0
41
0.0
42
0.0
10
-37.328732
20
-22.196153
40
0.0
41
0.0
42
0.0
10
-39.060783
20
-21.196153
40
0.0
41
0.0
42
0.0
10
-40.792834
20
-22.196153
40
0.0
41
0.0
42
0.0
10
-40.792834
20
-24.196153
40
0.0
41
0.0
42
0.0
10
-39.060783
20
-25.196153
40
0.0
41
0.0
42
0.0
10
-37.328732
20
-24.196153
40
0.0
41
0.0
42
0.0
210
0.0
220
0.0
230
1.0
0
LWPOLYLINE
5
C4
330
17
100
AcDbEntity
67
0
8
Add_Red
62
256
6
ByLayer
370
-1
48
1.0
60
0
100
AcDbPolyline
90
7
70
0
38
0.0
39
0.0
10
-41.792834
20
-24.196153
40
0.0
41
0.0
42
0.0
10
-41.792834
20
-22.196153
40
0.0
41
0.0
42
0.0
10
-43.524884
20
-21.196153
40
0.0
41
0.0
42
0.0
10
-45.256934
20
-22.196153
40
0.0
41
0.0
42
0.0
10
-45.256934
20
-24.196153
40
0.0
41
0.0
42
0.0
10
-43.524884
20
-25.196153
40
0.0
41
0.0
42
0.0
10
-41.792834
20
-24.196153
40
0.0
41
0.0
42
0.0
210
0.0
220
0.0
230
1.0
0
LWPOLYLINE
5
C5
330
17
100
AcDbEntity
67
0
8
Add_Red
62
256
6
ByLayer
370
-1
48
1.0
60
0
100
AcDbPolyline
90
7
70
0
38
0.0
39
0.0
10
-46.256934
20
-24.196153
40
0.0
41
0.0
42
0.0
10
-46.256934
20
-22.196153
40
0.0
41
0.0
42
0.0
10
-47.988985
20
-21.196153
40
0.0
41
0.0
42
0.0
10
-49.721036
20
-22.196153
40
0.0
41
0.0
42
0.0
10
-49.721036
20
-24.196153
40
0.0
41
0.0
42
0.0
10
-47.988985
20
-25.196153
40
0.0
41
0.0
42
0.0
10
-46.256934
20
-24.196153
40
0.0
41
0.0
42
0.0
210
0.0
220
0.0
230
1.0
0
LWPOLYLINE
5
C6
330
17
100
AcDbEntity
67
0
8
Add_Red
62
256
6
ByLayer
370
-1
48
1.0
60
0
100
AcDbPolyline
90
4
70
0
38
0.0
39
0.0
10
-50.721035
20
-24.196153
40
0.0
41
0.0
42
0.0
10
-50.721035
20
-23.075007
40
0.0
41
0.0
42
0.0
10
-51.22061
20
-24.484582
40
0.0
41
0.0
42
0.0
10
-50.721035
20
-24.196153
40
0.0
41
0.0
42
0.0
210
0.0
220
0.0
230
1.0
0
LWPOLYLINE
5
C7
330
17
100
AcDbEntity
67
0
8
Add_Red
62
256
6
ByLayer
370
-1
48
1.0
60
0
100
AcDbPolyline
90
6
70
0
38
0.0
39
0.0
10
-13.849958
20
-25.442216
40
0.0
41
0.0
42
0.0
10
-14.508201
20
-25.062179
40
0.0
41
0.0
42
0.0
10
-16.240252
20
-26.062179
40
0.0
41
0.0
42
0.0
10
-16.240252
20
-28.062179
40
0.0
41
0.0
42
0.0
10
-15.184382
20
-28.671787
40
0.0
41
0.0
42
0.0
10
-13.849958
20
-25.442216
40
0.0
41
0.0
42
0.0
210
0.0
220
0.0
230
1.0
0
LWPOLYLINE
5
C8
330
17
100
AcDbEntity
67
0
8
Add_Red
62
256
6
ByLayer
370
-1
48
1.0
60
0
100
AcDbPolyline
90
7
70
0
38
0.0
39
0.0
10
-17.240251
20
-28.062179
40
0.0
41
0.0
42
0.0
10
-17.240251
20
-26.062179
40
0.0
41
0.0
42
0.0
10
-18.972302
20
-25.062179
40
0.0
41
0.0
42
0.0
10
-20.704353
20
-26.062179
40
0.0
41
0.0
42
0.0
10
-20.704353
20
-28.062179
40
0.0
41
0.0
42
0.0
10
-18.972302
20
-29.06218
40
0.0
41
0.0
42
0.0
10
-17.240251
20
-28.062179
40
0.0
41
0.0
42
0.0
210
0.0
220
0.0
230
1.0
0
LWPOLYLINE
5
C9
330
17
100
AcDbEntity
67
0
8
Add_Red
62
256
6
ByLayer
370
-1
48
1.0
60
0
100
AcDbPolyline
90
7
70
0
38
0.0
39
0.0
10
-21.704353
20
-28.062179
40
0.0
41
0.0
42
0.0
10
-21.704353
20
-26.062179
40
0.0
41
0.0
42
0.0
10
-23.436402
20
-25.062179
40
0.0
41
0.0
42
0.0
10
-25.168453
20
-26.062179
40
0.0
41
0.0
42
0.0
10
-25.168453
20
-28.062179
40
0.0
41
0.0
42
0.0
10
-23.436402
20
-29.06218
40
0.0
41
0.0
42
0.0
10
-21.704353
20
-28.062179
40
0.0
41
0.0
42
0.0
210
0.0
220
0.0
230
1.0
0
LWPOLYLINE
5
CA
330
17
100
AcDbEntity
67
0
8
Add_Red
62
256
6
ByLayer
370
-1
48
1.0
60
0
100
AcDbPolyline
90
7
70
0
38
0.0
39
0.0
10
-26.168453
20
-28.062179
40
0.0
41
0.0
42
0.0
10
-26.168453
20
-26.062179
40
0.0
41
0.0
42
0.0
10
-27.900504
20
-25.062179
40
0.0
41
0.0
42
0.0
10
-29.632555
20
-26.062179
40
0.0
41
0.0
42
0.0
10
-29.632555
20
-28.062179
40
0.0
41
0.0
42
0.0
10
-27.900504
20
-29.06218
40
0.0
41
0.0
42
0.0
10
-26.168453
20
-28.062179
40
0.0
41
0.0
42
0.0
210
0.0
220
0.0
230
1.0
0
LWPOLYLINE
5
CB
330
17
100
AcDbEntity
67
0
8
Add_Red
62
256
6
ByLayer
370
-1
48
1.0
60
0
100
AcDbPolyline
90
7
70
0
38
0.0
39
0.0
10
-30.632554
20
-28.062179
40
0.0
41
0.0
42
0.0
10
-30.632554
20
-26.062179
40
0.0
41
0.0
42
0.0
10
-32.364605
20
-25.062179
40
0.0
41
0.0
42
0.0
10
-34.096655
20
-26.062179
40
0.0
41
0.0
42
0.0
10
-34.096655
20
-28.062179
40
0.0
41
0.0
42
0.0
10
-32.364605
20
-29.06218
40
0.0
41
0.0
42
0.0
10
-30.632554
20
-28.062179
40
0.0
41
0.0
42
0.0
210
0.0
220
0.0
230
1.0
0
LWPOLYLINE
5
CC
330
17
100
AcDbEntity
67
0
8
Add_Red
62
256
6
ByLayer
370
-1
48
1.0
60
0
100
AcDbPolyline
90
7
70
0
38
0.0
39
0.0
10
-35.096655
20
-28.062179
40
0.0
41
0.0
42
0.0
10
-35.096655
20
-26.062179
40
0.0
41
0.0
42
0.0
10
-36.828706
20
-25.062179
40
0.0
41
0.0
42
0.0
10
-38.560757
20
-26.062179
40
0.0
41
0.0
42
0.0
10
-38.560757
20
-28.062179
40
0.0
41
0.0
42
0.0
10
-36.828706
20
-29.06218
40
0.0
41
0.0
42
0.0
10
-35.096655
20
-28.062179
40
0.0
41
0.0
42
0.0
210
0.0
220
0.0
230
1.0
0
LWPOLYLINE
5
CD
330
17
100
AcDbEntity
67
0
8
Add_Red
62
256
6
ByLayer
370
-1
48
1.0
60
0
100
AcDbPolyline
90
7
70
0
38
0.0
39
0.0
10
-39.560756
20
-28.062179
40
0.0
41
0.0
42
0.0
10
-39.560756
20
-26.062179
40
0.0
41
0.0
42
0.0
10
-41.292807
20
-25.062179
40
0.0
41
0.0
42
0.0
10
-43.024858
20
-26.062179
40
0.0
41
0.0
42
0.0
10
-43.024858
20
-28.062179
40
0.0
41
0.0
42
0.0
10
-41.292807
20
-29.06218
40
0.0
41
0.0
42
0.0
10
-39.560756
20
-28.062179
40
0.0
41
0.0
42
0.0
210
0.0
220
0.0
230
1.0
0
LWPOLYLINE
5
CE
330
17
100
AcDbEntity
67
0
8
Add_Red
62
256
6
ByLayer
370
-1
48
1.0
60
0
100
AcDbPolyline
90
7
70
0
38
0.0
39
0.0
10
-44.024858
20
-28.062179
40
0.0
41
0.0
42
0.0
10
-44.024858
20
-26.062179
40
0.0
41
0.0
42
0.0
10
-45.756907
20
-25.062179
40
0.0
41
0.0
42
0.0
10
-47.488958
20
-26.062179
40
0.0
41
0.0
42
0.0
10
-47.488958
20
-28.062179
40
0.0
41
0.0
42
0.0
10
-45.756907
20
-29.06218
40
0.0
41
0.0
42
0.0
10
-44.024858
20
-28.062179
40
0.0
41
0.0
42
0.0
210
0.0
220
0.0
230
1.0
0
LWPOLYLINE
5
CF
330
17
100
AcDbEntity
67
0
8
Add_Red
62
256
6
ByLayer
370
-1
48
1.0
60
0
100
AcDbPolyline
90
8
70
0
38
0.0
39
0.0
10
-48.488958
20
-28.062179
40
0.0
41
0.0
42
0.0
10
-48.488958
20
-26.062179
40
0.0
41
0.0
42
0.0
10
-50.221009
20
-25.062179
40
0.0
41
0.0
42
0.0
10
-51.735143
20
-25.936364
40
0.0
41
0.0
42
0.0
10
-51.95306
20
-26.55123
40
0.0
41
0.0
42
0.0
10
-51.95306
20
-28.062179
40
0.0
41
0.0
42
0.0
10
-50.221009
20
-29.06218
40
0.0
41
0.0
42
0.0
10
-48.488958
20
-28.062179
40
0.0
41
0.0
42
0.0
210
0.0
220
0.0
230
1.0
0
LWPOLYLINE
5
D0
330
17
100
AcDbEntity
67
0
8
Add_Red
62
256
6
ByLayer
370
-1
48
1.0
60
0
100
AcDbPolyline
90
6
70
0
38
0.0
39
0.0
10
-15.569595
20
-29.60408
40
0.0
41
0.0
42
0.0
10
-16.740246
20
-28.928204
40
0.0
41
0.0
42
0.0
10
-18.472297
20
-29.928205
40
0.0
41
0.0
42
0.0
10
-18.472297
20
-31.928205
40
0.0
41
0.0
42
0.0
10
-16.904019
20
-32.833651
40
0.0
41
0.0
42
0.0
10
-15.569595
20
-29.60408
40
0.0
41
0.0
42
0.0
210
0.0
220
0.0
230
1.0
0
LWPOLYLINE
5
D1
330
17
100
AcDbEntity
67
0
8
Add_Red
62
256
6
ByLayer
370
-1
48
1.0
60
0
100
AcDbPolyline
90
7
70
0
38
0.0
39
0.0
10
-19.472296
20
-31.928205
40
0.0
41
0.0
42
0.0
10
-19.472296
20
-29.928205
40
0.0
41
0.0
42
0.0
10
-21.204347
20
-28.928204
40
0.0
41
0.0
42
0.0
10
-22.936397
20
-29.928205
40
0.0
41
0.0
42
0.0
10
-22.936397
20
-31.928205
40
0.0
41
0.0
42
0.0
10
-21.204347
20
-32.928205
40
0.0
41
0.0
42
0.0
10
-19.472296
20
-31.928205
40
0.0
41
0.0
42
0.0
210
0.0
220
0.0
230
1.0
0
LWPOLYLINE
5
D2
330
17
100
AcDbEntity
67
0
8
Add_Red
62
256
6
ByLayer
370
-1
48
1.0
60
0
100
AcDbPolyline
90
7
70
0
38
0.0
39
0.0
10
-23.936397
20
-31.928205
40
0.0
41
0.0
42
0.0
10
-23.936397
20
-29.928205
40
0.0
41
0.0
42
0.0
10
-25.668447
20
-28.928204
40
0.0
41
0.0
42
0.0
10
-27.400498
20
-29.928205
40
0.0
41
0.0
42
0.0
10
-27.400498
20
-31.928205
40
0.0
41
0.0
42
0.0
10
-25.668447
20
-32.928205
40
0.0
41
0.0
42
0.0
10
-23.936397
20
-31.928205
40
0.0
41
0.0
42
0.0
210
0.0
220
0.0
230
1.0
0
LWPOLYLINE
5
D3
330
17
100
AcDbEntity
67
0
8
Add_Red
62
256
6
ByLayer
370
-1
48
1.0
60
0
100
AcDbPolyline
90
7
70
0
38
0.0
39
0.0
10
-28.400498
20
-31.928205
40
0.0
41
0.0
42
0.0
10
-28.400498
20
-29.928205
40
0.0
41
0.0
42
0.0
10
-30.132549
20
-28.928204
40
0.0
41
0.0
42
0.0
10
-31.8646
20
-29.928205
40
0.0
41
0.0
42
0.0
10
-31.8646
20
-31.928205
40
0.0
41
0.0
42
0.0
10
-30.132549
20
-32.928205
40
0.0
41
0.0
42
0.0
10
-28.400498
20
-31.928205
40
0.0
41
0.0
42
0.0
210
0.0
220
0.0
230
1.0
0
LWPOLYLINE
5
D4
330
17
100
AcDbEntity
67
0
8
Add_Red
62
256
6
ByLayer
370
-1
48
1.0
60
0
100
AcDbPolyline
90
7
70
0
38
0.0
39
0.0
10
-32.864599
20
-31.928205
40
0.0
41
0.0
42
0.0
10
-32.864599
20
-29.928205
40
0.0
41
0.0
42
0.0
10
-34.596649
20
-28.928204
40
0.0
41
0.0
42
0.0
10
-36.3287
20
-29.928205
40
0.0
41
0.0
42
0.0
10
-36.3287
20
-31.928205
40
0.0
41
0.0
42
0.0
10
-34.596649
20
-32.928205
40
0.0
41
0.0
42
0.0
10
-32.864599
20
-31.928205
40
0.0
41
0.0
42
0.0
210
0.0
220
0.0
230
1.0
0
LWPOLYLINE
5
D5
330
17
100
AcDbEntity
67
0
8
Add_Red
62
256
6
ByLayer
370
-1
48
1.0
60
0
100
AcDbPolyline
90
7
70
0
38
0.0
39
0.0
10
-37.3287
20
-31.928205
40
0.0
41
0.0
42
0.0
10
-37.3287
20
-29.928205
40
0.0
41
0.0
42
0.0
10
-39.060751
20
-28.928204
40
0.0
41
0.0
42
0.0
10
-40.792802
20
-29.928205
40
0.0
41
0.0
42
0.0
10
-40.792802
20
-31.928205
40
0.0
41
0.0
42
0.0
10
-39.060751
20
-32.928205
40
0.0
41
0.0
42
0.0
10
-37.3287
20
-31.928205
40
0.0
41
0.0
42
0.0
210
0.0
220
0.0
230
1.0
0
LWPOLYLINE
5
D6
330
17
100
AcDbEntity
67
0
8
Add_Red
62
256
6
ByLayer
370
-1
48
1.0
60
0
100
AcDbPolyline
90
7
70
0
38
0.0
39
0.0
10
-41.792801
20
-31.928205
40
0.0
41
0.0
42
0.0
10
-41.792801
20
-29.928205
40
0.0
41
0.0
42
0.0
10
-43.524852
20
-28.928204
40
0.0
41
0.0
42
0.0
10
-45.256902
20
-29.928205
40
0.0
41
0.0
42
0.0
10
-45.256902
20
-31.928205
40
0.0
41
0.0
42
0.0
10
-43.524852
20
-32.928205
40
0.0
41
0.0
42
0.0
10
-41.792801
20
-31.928205
40
0.0
41
0.0
42
0.0
210
0.0
220
0.0
230
1.0
0
LWPOLYLINE
5
D7
330
17
100
AcDbEntity
67
0
8
Add_Red
62
256
6
ByLayer
370
-1
48
1.0
60
0
100
AcDbPolyline
90
7
70
0
38
0.0
39
0.0
10
-46.256902
20
-31.928205
40
0.0
41
0.0
42
0.0
10
-46.256902
20
-29.928205
40
0.0
41
0.0
42
0.0
10
-47.988952
20
-28.928204
40
0.0
41
0.0
42
0.0
10
-49.721003
20
-29.928205
40
0.0
41
0.0
42
0.0
10
-49.721003
20
-31.928205
40
0.0
41
0.0
42
0.0
10
-47.988952
20
-32.928205
40
0.0
41
0.0
42
0.0
10
-46.256902
20
-31.928205
40
0.0
41
0.0
42
0.0
210
0.0
220
0.0
230
1.0
0
LWPOLYLINE
5
D8
330
17
100
AcDbEntity
67
0
8
Add_Red
62
256
6
ByLayer
370
-1
48
1.0
60
0
100
AcDbPolyline
90
7
70
0
38
0.0
39
0.0
10
-50.721003
20
-31.928205
40
0.0
41
0.0
42
0.0
10
-50.721003
20
-29.928205
40
0.0
41
0.0
42
0.0
10
-52.453054
20
-28.928204
40
0.0
41
0.0
42
0.0
10
-52.886063
20
-29.178202
40
0.0
41
0.0
42
0.0
10
-53.934089
20
-32.073129
40
0.0
41
0.0
42
0.0
10
-52.453054
20
-32.928205
40
0.0
41
0.0
42
0.0
10
-50.721003
20
-31.928205
40
0.0
41
0.0
42
0.0
210
0.0
220
0.0
230
1.0
0
LWPOLYLINE
5
D9
330
17
100
AcDbEntity
67
0
8
Add_Red
62
256
6
ByLayer
370
-1
48
1.0
60
0
100
AcDbPolyline
90
8
70
0
38
0.0
39
0.0
10
-18.156141
20
-36.323039
40
0.0
41
0.0
42
0.0
10
-17.313295
20
-33.824179
40
0.0
41
0.0
42
0.0
10
-17.289229
20
-33.765935
40
0.0
41
0.0
42
0.0
10
-18.97227
20
-32.794231
40
0.0
41
0.0
42
0.0
10
-20.704321
20
-33.794231
40
0.0
41
0.0
42
0.0
10
-20.704321
20
-35.794231
40
0.0
41
0.0
42
0.0
10
-18.97227
20
-36.794231
40
0.0
41
0.0
42
0.0
10
-18.156141
20
-36.323039
40
0.0
41
0.0
42
0.0
210
0.0
220
0.0
230
1.0
0
LWPOLYLINE
5
DA
330
17
100
AcDbEntity
67
0
8
Add_Red
62
256
6
ByLayer
370
-1
48
1.0
60
0
100
AcDbPolyline
90
7
70
0
38
0.0
39
0.0
10
-21.70432
20
-35.794231
40
0.0
41
0.0
42
0.0
10
-21.70432
20
-33.794231
40
0.0
41
0.0
42
0.0
10
-23.43637
20
-32.794231
40
0.0
41
0.0
42
0.0
10
-25.168421
20
-33.794231
40
0.0
41
0.0
42
0.0
10
-25.168421
20
-35.794231
40
0.0
41
0.0
42
0.0
10
-23.43637
20
-36.794231
40
0.0
41
0.0
42
0.0
10
-21.70432
20
-35.794231
40
0.0
41
0.0
42
0.0
210
0.0
220
0.0
230
1.0
0
LWPOLYLINE
5
DB
330
17
100
AcDbEntity
67
0
8
Add_Red
62
256
6
ByLayer
370
-1
48
1.0
60
0
100
AcDbPolyline
90
7
70
0
38
0.0
39
0.0
10
-26.168421
20
-35.794231
40
0.0
41
0.0
42
0.0
10
-26.168421
20
-33.794231
40
0.0
41
0.0
42
0.0
10
-27.900471
20
-32.794231
40
0.0
41
0.0
42
0.0
10
-29.632522
20
-33.794231
40
0.0
41
0.0
42
0.0
10
-29.632522
20
-35.794231
40
0.0
41
0.0
42
0.0
10
-27.900471
20
-36.794231
40
0.0
41
0.0
42
0.0
10
-26.168421
20
-35.794231
40
0.0
41
0.0
42
0.0
210
0.0
220
0.0
230
1.0
0
LWPOLYLINE
5
DC
330
17
100
AcDbEntity
67
0
8
Add_Red
62
256
6
ByLayer
370
-1
48
1.0
60
0
100
AcDbPolyline
90
7
70
0
38
0.0
39
0.0
10
-30.632522
20
-35.794231
40
0.0
41
0.0
42
0.0
10
-30.632522
20
-33.794231
40
0.0
41
0.0
42
0.0
10
-32.364573
20
-32.794231
40
0.0
41
0.0
42
0.0
10
-34.096623
20
-33.794231
40
0.0
41
0.0
42
0.0
10
-34.096623
20
-35.794231
40
0.0
41
0.0
42
0.0
10
-32.364573
20
-36.794231
40
0.0
41
0.0
42
0.0
10
-30.632522
20
-35.794231
40
0.0
41
0.0
42
0.0
210
0.0
220
0.0
230
1.0
0
LWPOLYLINE
5
DD
330
17
100
AcDbEntity
67
0
8
Add_Red
62
256
6
ByLayer
370
-1
48
1.0
60
0
100
AcDbPolyline
90
7
70
0
38
0.0
39
0.0
10
-35.096622
20
-35.794231
40
0.0
41
0.0
42
0.0
10
-35.096622
20
-33.794231
40
0.0
41
0.0
42
0.0
10
-36.828673
20
-32.794231
40
0.0
41
0.0
42
0.0
10
-38.560724
20
-33.794231
40
0.0
41
0.0
42
0.0
10
-38.560724
20
-35.794231
40
0.0
41
0.0
42
0.0
10
-36.828673
20
-36.794231
40
0.0
41
0.0
42
0.0
10
-35.096622
20
-35.794231
40
0.0
41
0.0
42
0.0
210
0.0
220
0.0
230
1.0
0
LWPOLYLINE
5
DE
330
17
100
AcDbEntity
67
0
8
Add_Red
62
256
6
ByLayer
370
-1
48
1.0
60
0
100
AcDbPolyline
90
7
70
0
38
0.0
39
0.0
10
-39.560724
20
-35.794231
40
0.0
41
0.0
42
0.0
10
-39.560724
20
-33.794231
40
0.0
41
0.0
42
0.0
10
-41.292775
20
-32.794231
40
0.0
41
0.0
42
0.0
10
-43.024826
20
-33.794231
40
0.0
41
0.0
42
0.0
10
-43.024826
20
-35.794231
40
0.0
41
0.0
42
0.0
10
-41.292775
20
-36.794231
40
0.0
41
0.0
42
0.0
10
-39.560724
20
-35.794231
40
0.0
41
0.0
42
0.0
210
0.0
220
0.0
230
1.0
0
LWPOLYLINE
5
DF
330
17
100
AcDbEntity
67
0
8
Add_Red
62
256
6
ByLayer
370
-1
48
1.0
60
0
100
AcDbPolyline
90
7
70
0
38
0.0
39
0.0
10
-44.024825
20
-35.794231
40
0.0
41
0.0
42
0.0
10
-44.024825
20
-33.794231
40
0.0
41
0.0
42
0.0
10
-45.756875
20
-32.794231
40
0.0
41
0.0
42
0.0
10
-47.488926
20
-33.794231
40
0.0
41
0.0
42
0.0
10
-47.488926
20
-35.794231
40
0.0
41
0.0
42
0.0
10
-45.756875
20
-36.794231
40
0.0
41
0.0
42
0.0
10
-44.024825
20
-35.794231
40
0.0
41
0.0
42
0.0
210
0.0
220
0.0
230
1.0
0
LWPOLYLINE
5
E0
330
17
100
AcDbEntity
67
0
8
Add_Red
62
256
6
ByLayer
370
-1
48
1.0
60
0
100
AcDbPolyline
90
7
70
0
38
0.0
39
0.0
10
-48.488926
20
-35.794231
40
0.0
41
0.0
42
0.0
10
-48.488926
20
-33.794231
40
0.0
41
0.0
42
0.0
10
-50.220976
20
-32.794231
40
0.0
41
0.0
42
0.0
10
-51.953027
20
-33.794231
40
0.0
41
0.0
42
0.0
10
-51.953027
20
-35.794231
40
0.0
41
0.0
42
0.0
10
-50.220976
20
-36.794231
40
0.0
41
0.0
42
0.0
10
-48.488926
20
-35.794231
40
0.0
41
0.0
42
0.0
210
0.0
220
0.0
230
1.0
0
LWPOLYLINE
5
E1
330
17
100
AcDbEntity
67
0
8
Add_Red
62
256
6
ByLayer
370
-1
48
1.0
60
0
100
AcDbPolyline
90
7
70
0
38
0.0
39
0.0
10
-52.953027
20
-35.794231
40
0.0
41
0.0
42
0.0
10
-52.953027
20
-33.794231
40
0.0
41
0.0
42
0.0
10
-54.279843
20
-33.028194
40
0.0
41
0.0
42
0.0
10
-55.443051
20
-36.241284
40
0.0
41
0.0
42
0.0
10
-55.470738
20
-36.34063
40
0.0
41
0.0
42
0.0
10
-54.685078
20
-36.794231
40
0.0
41
0.0
42
0.0
10
-52.953027
20
-35.794231
40
0.0
41
0.0
42
0.0
210
0.0
220
0.0
230
1.0
0
LWPOLYLINE
5
E2
330
17
100
AcDbEntity
67
0
8
Add_Red
62
256
6
ByLayer
370
-1
48
1.0
60
0
100
AcDbPolyline
90
7
70
0
38
0.0
39
0.0
10
-19.472264
20
-39.660256
40
0.0
41
0.0
42
0.0
10
-19.472264
20
-37.660256
40
0.0
41
0.0
42
0.0
10
-21.204315
20
-36.660256
40
0.0
41
0.0
42
0.0
10
-22.936364
20
-37.660256
40
0.0
41
0.0
42
0.0
10
-22.936364
20
-39.660256
40
0.0
41
0.0
42
0.0
10
-21.204315
20
-40.660256
40
0.0
41
0.0
42
0.0
10
-19.472264
20
-39.660256
40
0.0
41
0.0
42
0.0
210
0.0
220
0.0
230
1.0
0
LWPOLYLINE
5
E3
330
17
100
AcDbEntity
67
0
8
Add_Red
62
256
6
ByLayer
370
-1
48
1.0
60
0
100
AcDbPolyline
90
7
70
0
38
0.0
39
0.0
10
-23.936364
20
-39.660256
40
0.0
41
0.0
42
0.0
10
-23.936364
20
-37.660256
40
0.0
41
0.0
42
0.0
10
-25.668415
20
-36.660256
40
0.0
41
0.0
42
0.0
10
-27.400466
20
-37.660256
40
0.0
41
0.0
42
0.0
10
-27.400466
20
-39.660256
40
0.0
41
0.0
42
0.0
10
-25.668415
20
-40.660256
40
0.0
41
0.0
42
0.0
10
-23.936364
20
-39.660256
40
0.0
41
0.0
42
0.0
210
0.0
220
0.0
230
1.0
0
LWPOLYLINE
5
E4
330
17
100
AcDbEntity
67
0
8
Add_Red
62
256
6
ByLayer
370
-1
48
1.0
60
0
100
AcDbPolyline
90
7
70
0
38
0.0
39
0.0
10
-28.400466
20
-39.660256
40
0.0
41
0.0
42
0.0
10
-28.400466
20
-37.660256
40
0.0
41
0.0
42
0.0
10
-30.132516
20
-36.660256
40
0.0
41
0.0
42
0.0
10
-31.864567
20
-37.660256
40
0.0
41
0.0
42
0.0
10
-31.864567
20
-39.660256
40
0.0
41
0.0
42
0.0
10
-30.132516
20
-40.660256
40
0.0
41
0.0
42
0.0
10
-28.400466
20
-39.660256
40
0.0
41
0.0
42
0.0
210
0.0
220
0.0
230
1.0
0
LWPOLYLINE
5
E5
330
17
100
AcDbEntity
67
0
8
Add_Red
62
256
6
ByLayer
370
-1
48
1.0
60
0
100
AcDbPolyline
90
7
70
0
38
0.0
39
0.0
10
-32.864567
20
-39.660256
40
0.0
41
0.0
42
0.0
10
-32.864567
20
-37.660256
40
0.0
41
0.0
42
0.0
10
-34.596617
20
-36.660256
40
0.0
41
0.0
42
0.0
10
-36.328668
20
-37.660256
40
0.0
41
0.0
42
0.0
10
-36.328668
20
-39.660256
40
0.0
41
0.0
42
0.0
10
-34.596617
20
-40.660256
40
0.0
41
0.0
42
0.0
10
-32.864567
20
-39.660256
40
0.0
41
0.0
42
0.0
210
0.0
220
0.0
230
1.0
0
LWPOLYLINE
5
E6
330
17
100
AcDbEntity
67
0
8
Add_Red
62
256
6
ByLayer
370
-1
48
1.0
60
0
100
AcDbPolyline
90
7
70
0
38
0.0
39
0.0
10
-37.328667
20
-39.660256
40
0.0
41
0.0
42
0.0
10
-37.328667
20
-37.660256
40
0.0
41
0.0
42
0.0
10
-39.060718
20
-36.660256
40
0.0
41
0.0
42
0.0
10
-40.792769
20
-37.660256
40
0.0
41
0.0
42
0.0
10
-40.792769
20
-39.660256
40
0.0
41
0.0
42
0.0
10
-39.060718
20
-40.660256
40
0.0
41
0.0
42
0.0
10
-37.328667
20
-39.660256
40
0.0
41
0.0
42
0.0
210
0.0
220
0.0
230
1.0
0
LWPOLYLINE
5
E7
330
17
100
AcDbEntity
67
0
8
Add_Red
62
256
6
ByLayer
370
-1
48
1.0
60
0
100
AcDbPolyline
90
7
70
0
38
0.0
39
0.0
10
-41.792769
20
-39.660256
40
0.0
41
0.0
42
0.0
10
-41.792769
20
-37.660256
40
0.0
41
0.0
42
0.0
10
-43.52482
20
-36.660256
40
0.0
41
0.0
42
0.0
10
-45.256869
20
-37.660256
40
0.0
41
0.0
42
0.0
10
-45.256869
20
-39.660256
40
0.0
41
0.0
42
0.0
10
-43.52482
20
-40.660256
40
0.0
41
0.0
42
0.0
10
-41.792769
20
-39.660256
40
0.0
41
0.0
42
0.0
210
0.0
220
0.0
230
1.0
0
LWPOLYLINE
5
E8
330
17
100
AcDbEntity
67
0
8
Add_Red
62
256
6
ByLayer
370
-1
48
1.0
60
0
100
AcDbPolyline
90
7
70
0
38
0.0
39
0.0
10
-46.256869
20
-39.660256
40
0.0
41
0.0
42
0.0
10
-46.256869
20
-37.660256
40
0.0
41
0.0
42
0.0
10
-47.98892
20
-36.660256
40
0.0
41
0.0
42
0.0
10
-49.720971
20
-37.660256
40
0.0
41
0.0
42
0.0
10
-49.720971
20
-39.660256
40
0.0
41
0.0
42
0.0
10
-47.98892
20
-40.660256
40
0.0
41
0.0
42
0.0
10
-46.256869
20
-39.660256
40
0.0
41
0.0
42
0.0
210
0.0
220
0.0
230
1.0
0
LWPOLYLINE
5
E9
330
17
100
AcDbEntity
67
0
8
Add_Red
62
256
6
ByLayer
370
-1
48
1.0
60
0
100
AcDbPolyline
90
8
70
0
38
0.0
39
0.0
10
-50.720971
20
-39.660256
40
0.0
41
0.0
42
0.0
10
-50.720971
20
-37.660256
40
0.0
41
0.0
42
0.0
10
-52.453021
20
-36.660256
40
0.0
41
0.0
42
0.0
10
-54.185072
20
-37.660256
40
0.0
41
0.0
42
0.0
10
-54.185072
20
-39.336589
40
0.0
41
0.0
42
0.0
10
-54.028077
20
-39.449658
40
0.0
41
0.0
42
0.0
10
-51.382816
20
-40.042372
40
0.0
41
0.0
42
0.0
10
-50.720971
20
-39.660256
40
0.0
41
0.0
42
0.0
210
0.0
220
0.0
230
1.0
0
LWPOLYLINE
5
EA
330
17
100
AcDbEntity
67
0
8
Add_Red
62
256
6
ByLayer
370
-1
48
1.0
60
0
100
AcDbPolyline
90
6
70
0
38
0.0
39
0.0
10
-55.185072
20
-37.660256
40
0.0
41
0.0
42
0.0
10
-55.747937
20
-37.335285
40
0.0
41
0.0
42
0.0
10
-55.951194
20
-38.064617
40
0.0
41
0.0
42
0.0
10
-55.951193
20
-38.064616
40
0.0
41
0.0
42
0.0
10
-55.185072
20
-38.616382
40
0.0
41
0.0
42
0.0
10
-55.185072
20
-37.660256
40
0.0
41
0.0
42
0.0
210
0.0
220
0.0
230
1.0
0
LWPOLYLINE
5
EB
330
17
100
AcDbEntity
67
0
8
Add_Red
62
256
6
ByLayer
370
-1
48
1.0
60
0
100
AcDbPolyline
90
8
70
0
38
0.0
39
0.0
10
-18.944296
20
-41.729178
40
0.0
41
0.0
42
0.0
10
-18.878905
20
-40.580167
40
0.0
41
0.0
42
0.0
10
-18.972237
20
-40.526282
40
0.0
41
0.0
42
0.0
10
-20.704288
20
-41.526282
40
0.0
41
0.0
42
0.0
10
-20.704288
20
-43.526282
40
0.0
41
0.0
42
0.0
10
-20.127638
20
-43.859212
40
0.0
41
0.0
42
0.0
10
-18.95425
20
-43.988839
40
0.0
41
0.0
42
0.0
10
-18.944296
20
-41.729178
40
0.0
41
0.0
42
0.0
210
0.0
220
0.0
230
1.0
0
LWPOLYLINE
5
EC
330
17
100
AcDbEntity
67
0
8
Add_Red
62
256
6
ByLayer
370
-1
48
1.0
60
0
100
AcDbPolyline
90
7
70
0
38
0.0
39
0.0
10
-21.704288
20
-43.526282
40
0.0
41
0.0
42
0.0
10
-21.704288
20
-41.526282
40
0.0
41
0.0
42
0.0
10
-23.436338
20
-40.526282
40
0.0
41
0.0
42
0.0
10
-25.168388
20
-41.526282
40
0.0
41
0.0
42
0.0
10
-25.168388
20
-43.302346
40
0.0
41
0.0
42
0.0
10
-21.935092
20
-43.659537
40
0.0
41
0.0
42
0.0
10
-21.704288
20
-43.526282
40
0.0
41
0.0
42
0.0
210
0.0
220
0.0
230
1.0
0
LWPOLYLINE
5
ED
330
17
100
AcDbEntity
67
0
8
Add_Red
62
256
6
ByLayer
370
-1
48
1.0
60
0
100
AcDbPolyline
90
6
70
0
38
0.0
39
0.0
10
-26.168388
20
-41.526282
40
0.0
41
0.0
42
0.0
10
-27.900439
20
-40.526282
40
0.0
41
0.0
42
0.0
10
-29.63249
20
-41.526282
40
0.0
41
0.0
42
0.0
10
-29.63249
20
-42.809184
40
0.0
41
0.0
42
0.0
10
-26.168388
20
-43.191873
40
0.0
41
0.0
42
0.0
10
-26.168388
20
-41.526282
40
0.0
41
0.0
42
0.0
210
0.0
220
0.0
230
1.0
0
LWPOLYLINE
5
EE
330
17
100
AcDbEntity
67
0
8
Add_Red
62
256
6
ByLayer
370
-1
48
1.0
60
0
100
AcDbPolyline
90
6
70
0
38
0.0
39
0.0
10
-30.63249
20
-41.526282
40
0.0
41
0.0
42
0.0
10
-32.36454
20
-40.526282
40
0.0
41
0.0
42
0.0
10
-34.09659
20
-41.526282
40
0.0
41
0.0
42
0.0
10
-34.09659
20
-42.316022
40
0.0
41
0.0
42
0.0
10
-30.63249
20
-42.698711
40
0.0
41
0.0
42
0.0
10
-30.63249
20
-41.526282
40
0.0
41
0.0
42
0.0
210
0.0
220
0.0
230
1.0
0
LWPOLYLINE
5
EF
330
17
100
AcDbEntity
67
0
8
Add_Red
62
256
6
ByLayer
370
-1
48
1.0
60
0
100
AcDbPolyline
90
6
70
0
38
0.0
39
0.0
10
-35.09659
20
-41.526282
40
0.0
41
0.0
42
0.0
10
-36.828641
20
-40.526282
40
0.0
41
0.0
42
0.0
10
-38.560692
20
-41.526282
40
0.0
41
0.0
42
0.0
10
-38.560692
20
-41.82286
40
0.0
41
0.0
42
0.0
10
-35.09659
20
-42.205549
40
0.0
41
0.0
42
0.0
10
-35.09659
20
-41.526282
40
0.0
41
0.0
42
0.0
210
0.0
220
0.0
230
1.0
0
LWPOLYLINE
5
F0
330
17
100
AcDbEntity
67
0
8
Add_Red
62
256
6
ByLayer
370
-1
48
1.0
60
0
100
AcDbPolyline
90
6
70
0
38
0.0
39
0.0
10
-39.560691
20
-41.526282
40
0.0
41
0.0
42
0.0
10
-41.292742
20
-40.526282
40
0.0
41
0.0
42
0.0
10
-42.713655
20
-41.346646
40
0.0
41
0.0
42
0.0
10
-41.578264
20
-41.4895
40
0.0
41
0.0
42
0.0
10
-39.560691
20
-41.712387
40
0.0
41
0.0
42
0.0
10
-39.560691
20
-41.526282
40
0.0
41
0.0
42
0.0
210
0.0
220
0.0
230
1.0
0
LWPOLYLINE
5
F1
330
17
100
AcDbEntity
67
0
8
Add_Red
62
256
6
ByLayer
370
-1
48
1.0
60
0
100
AcDbPolyline
90
4
70
0
38
0.0
39
0.0
10
-45.756843
20
-40.526282
40
0.0
41
0.0
42
0.0
10
-46.378988
20
-40.885477
40
0.0
41
0.0
42
0.0
10
-44.787978
20
-41.085657
40
0.0
41
0.0
42
0.0
10
-45.756843
20
-40.526282
40
0.0
41
0.0
42
0.0
210
0.0
220
0.0
230
1.0
0
LWPOLYLINE
5
F2
330
17
100
AcDbEntity
67
0
8
Add_Red
62
256
6
ByLayer
370
-1
48
1.0
60
0
100
AcDbPolyline
90
8
70
0
38
0.0
39
0.0
10
54.185072
20
41.526281
40
0.0
41
0.0
42
0.0
10
54.185072
20
43.526282
40
0.0
41
0.0
42
0.0
10
53.388246
20
43.98633
40
0.0
41
0.0
42
0.0
10
51.513167
20
43.983657
40
0.0
41
0.0
42
0.0
10
50.720971
20
43.526282
40
0.0
41
0.0
42
0.0
10
50.720971
20
41.526281
40
0.0
41
0.0
42
0.0
10
52.453021
20
40.526281
40
0.0
41
0.0
42
0.0
10
54.185072
20
41.526281
40
0.0
41
0.0
42
0.0
210
0.0
220
0.0
230
1.0
0
LWPOLYLINE
5
F3
330
17
100
AcDbEntity
67
0
8
Add_Red
62
256
6
ByLayer
370
-1
48
1.0
60
0
100
AcDbPolyline
90
8
70
0
38
0.0
39
0.0
10
49.720971
20
41.526281
40
0.0
41
0.0
42
0.0
10
49.720971
20
43.526282
40
0.0
41
0.0
42
0.0
10
48.93514
20
43.979982
40
0.0
41
0.0
42
0.0
10
47.038017
20
43.977278
40
0.0
41
0.0
42
0.0
10
46.25687
20
43.526282
40
0.0
41
0.0
42
0.0
10
46.25687
20
41.526281
40
0.0
41
0.0
42
0.0
10
47.988921
20
40.526281
40
0.0
41
0.0
42
0.0
10
49.720971
20
41.526281
40
0.0
41
0.0
42
0.0
210
0.0
220
0.0
230
1.0
0
LWPOLYLINE
5
F4
330
17
100
AcDbEntity
67
0
8
Add_Red
62
256
6
ByLayer
370
-1
48
1.0
60
0
100
AcDbPolyline
90
8
70
0
38
0.0
39
0.0
10
45.256871
20
41.526281
40
0.0
41
0.0
42
0.0
10
45.256871
20
43.526282
40
0.0
41
0.0
42
0.0
10
44.482035
20
43.973634
40
0.0
41
0.0
42
0.0
10
42.562867
20
43.970898
40
0.0
41
0.0
42
0.0
10
41.792769
20
43.526282
40
0.0
41
0.0
42
0.0
10
41.792769
20
41.526281
40
0.0
41
0.0
42
0.0
10
43.52482
20
40.526281
40
0.0
41
0.0
42
0.0
10
45.256871
20
41.526281
40
0.0
41
0.0
42
0.0
210
0.0
220
0.0
230
1.0
0
LWPOLYLINE
5
F5
330
17
100
AcDbEntity
67
0
8
Add_Red
62
256
6
ByLayer
370
-1
48
1.0
60
0
100
AcDbPolyline
90
4
70
0
38
0.0
39
0.0
10
55.933642
20
43.958469
40
0.0
41
0.0
42
0.0
10
55.185072
20
43.526282
40
0.0
41
0.0
42
0.0
10
55.185072
20
42.24504
40
0.0
41
0.0
42
0.0
10
55.933642
20
43.958469
40
0.0
41
0.0
42
0.0
210
0.0
220
0.0
230
1.0
0
LWPOLYLINE
5
F6
330
17
100
AcDbEntity
67
0
8
Add_Red
62
256
6
ByLayer
370
-1
48
1.0
60
0
100
AcDbPolyline
90
7
70
0
38
0.0
39
0.0
10
51.953027
20
37.660256
40
0.0
41
0.0
42
0.0
10
51.953027
20
39.660256
40
0.0
41
0.0
42
0.0
10
50.220976
20
40.660256
40
0.0
41
0.0
42
0.0
10
48.488927
20
39.660256
40
0.0
41
0.0
42
0.0
10
48.488927
20
37.660256
40
0.0
41
0.0
42
0.0
10
50.220976
20
36.660256
40
0.0
41
0.0
42
0.0
10
51.953027
20
37.660256
40
0.0
41
0.0
42
0.0
210
0.0
220
0.0
230
1.0
0
LWPOLYLINE
5
F7
330
17
100
AcDbEntity
67
0
8
Add_Red
62
256
6
ByLayer
370
-1
48
1.0
60
0
100
AcDbPolyline
90
7
70
0
38
0.0
39
0.0
10
47.488927
20
37.660256
40
0.0
41
0.0
42
0.0
10
47.488927
20
39.660256
40
0.0
41
0.0
42
0.0
10
45.756876
20
40.660256
40
0.0
41
0.0
42
0.0
10
44.024825
20
39.660256
40
0.0
41
0.0
42
0.0
10
44.024825
20
37.660256
40
0.0
41
0.0
42
0.0
10
45.756876
20
36.660256
40
0.0
41
0.0
42
0.0
10
47.488927
20
37.660256
40
0.0
41
0.0
42
0.0
210
0.0
220
0.0
230
1.0
0
LWPOLYLINE
5
F8
330
17
100
AcDbEntity
67
0
8
Add_Red
62
256
6
ByLayer
370
-1
48
1.0
60
0
100
AcDbPolyline
90
8
70
0
38
0.0
39
0.0
10
43.024826
20
37.660256
40
0.0
41
0.0
42
0.0
10
43.024826
20
39.660256
40
0.0
41
0.0
42
0.0
10
41.292775
20
40.660256
40
0.0
41
0.0
42
0.0
10
40.442025
20
40.169075
40
0.0
41
0.0
42
0.0
10
39.560724
20
37.927393
40
0.0
41
0.0
42
0.0
10
39.560724
20
37.660256
40
0.0
41
0.0
42
0.0
10
41.292775
20
36.660256
40
0.0
41
0.0
42
0.0
10
43.024826
20
37.660256
40
0.0
41
0.0
42
0.0
210
0.0
220
0.0
230
1.0
0
LWPOLYLINE
5
F9
330
17
100
AcDbEntity
67
0
8
Add_Red
62
256
6
ByLayer
370
-1
48
1.0
60
0
100
AcDbPolyline
90
5
70
0
38
0.0
39
0.0
10
54.427814
20
40.511724
40
0.0
41
0.0
42
0.0
10
52.953027
20
39.660256
40
0.0
41
0.0
42
0.0
10
52.953027
20
37.660256
40
0.0
41
0.0
42
0.0
10
53.13592
20
37.554663
40
0.0
41
0.0
42
0.0
10
54.427814
20
40.511724
40
0.0
41
0.0
42
0.0
210
0.0
220
0.0
230
1.0
0
LWPOLYLINE
5
FA
330
17
100
AcDbEntity
67
0
8
Add_Red
62
256
6
ByLayer
370
-1
48
1.0
60
0
100
AcDbPolyline
90
6
70
0
38
0.0
39
0.0
10
52.733069
20
36.632564
40
0.0
41
0.0
42
0.0
10
52.453054
20
36.794231
40
0.0
41
0.0
42
0.0
10
50.721003
20
35.794231
40
0.0
41
0.0
42
0.0
10
50.721003
20
33.794231
40
0.0
41
0.0
42
0.0
10
51.337535
20
33.438276
40
0.0
41
0.0
42
0.0
10
52.733069
20
36.632564
40
0.0
41
0.0
42
0.0
210
0.0
220
0.0
230
1.0
0
LWPOLYLINE
5
FB
330
17
100
AcDbEntity
67
0
8
Add_Red
62
256
6
ByLayer
370
-1
48
1.0
60
0
100
AcDbPolyline
90
7
70
0
38
0.0
39
0.0
10
49.721003
20
33.794231
40
0.0
41
0.0
42
0.0
10
49.721003
20
35.794231
40
0.0
41
0.0
42
0.0
10
47.988954
20
36.794231
40
0.0
41
0.0
42
0.0
10
46.256903
20
35.794231
40
0.0
41
0.0
42
0.0
10
46.256903
20
33.794231
40
0.0
41
0.0
42
0.0
10
47.988954
20
32.794231
40
0.0
41
0.0
42
0.0
10
49.721003
20
33.794231
40
0.0
41
0.0
42
0.0
210
0.0
220
0.0
230
1.0
0
LWPOLYLINE
5
FC
330
17
100
AcDbEntity
67
0
8
Add_Red
62
256
6
ByLayer
370
-1
48
1.0
60
0
100
AcDbPolyline
90
7
70
0
38
0.0
39
0.0
10
45.256903
20
33.794231
40
0.0
41
0.0
42
0.0
10
45.256903
20
35.794231
40
0.0
41
0.0
42
0.0
10
43.524852
20
36.794231
40
0.0
41
0.0
42
0.0
10
41.792801
20
35.794231
40
0.0
41
0.0
42
0.0
10
41.792801
20
33.794231
40
0.0
41
0.0
42
0.0
10
43.524852
20
32.794231
40
0.0
41
0.0
42
0.0
10
45.256903
20
33.794231
40
0.0
41
0.0
42
0.0
210
0.0
220
0.0
230
1.0
0
LWPOLYLINE
5
FD
330
17
100
AcDbEntity
67
0
8
Add_Red
62
256
6
ByLayer
370
-1
48
1.0
60
0
100
AcDbPolyline
90
7
70
0
38
0.0
39
0.0
10
40.792802
20
33.794231
40
0.0
41
0.0
42
0.0
10
40.792802
20
35.794231
40
0.0
41
0.0
42
0.0
10
39.105151
20
36.768596
40
0.0
41
0.0
42
0.0
10
38.497862
20
35.223892
40
0.0
41
0.0
42
0.0
10
37.666787
20
33.599037
40
0.0
41
0.0
42
0.0
10
39.060751
20
32.794231
40
0.0
41
0.0
42
0.0
10
40.792802
20
33.794231
40
0.0
41
0.0
42
0.0
210
0.0
220
0.0
230
1.0
0
LWPOLYLINE
5
FE
330
17
100
AcDbEntity
67
0
8
Add_Red
62
256
6
ByLayer
370
-1
48
1.0
60
0
100
AcDbPolyline
90
4
70
0
38
0.0
39
0.0
10
50.430007
20
32.80754
40
0.0
41
0.0
42
0.0
10
50.221009
20
32.928205
40
0.0
41
0.0
42
0.0
10
49.975879
20
32.786679
40
0.0
41
0.0
42
0.0
10
50.430007
20
32.80754
40
0.0
41
0.0
42
0.0
210
0.0
220
0.0
230
1.0
0
LWPOLYLINE
5
FF
330
17
100
AcDbEntity
67
0
8
Add_Red
62
256
6
ByLayer
370
-1
48
1.0
60
0
100
AcDbPolyline
90
4
70
0
38
0.0
39
0.0
10
46.294911
20
32.617589
40
0.0
41
0.0
42
0.0
10
45.756908
20
32.928205
40
0.0
41
0.0
42
0.0
10
45.125894
20
32.563889
40
0.0
41
0.0
42
0.0
10
46.294911
20
32.617589
40
0.0
41
0.0
42
0.0
210
0.0
220
0.0
230
1.0
0
LWPOLYLINE
5
100
330
17
100
AcDbEntity
67
0
8
Add_Red
62
256
6
ByLayer
370
-1
48
1.0
60
0
100
AcDbPolyline
90
4
70
0
38
0.0
39
0.0
10
42.159815
20
32.427638
40
0.0
41
0.0
42
0.0
10
41.292807
20
32.928205
40
0.0
41
0.0
42
0.0
10
40.275908
20
32.341098
40
0.0
41
0.0
42
0.0
10
42.159815
20
32.427638
40
0.0
41
0.0
42
0.0
210
0.0
220
0.0
230
1.0
0
LWPOLYLINE
5
101
330
17
100
AcDbEntity
67
0
8
Add_Red
62
256
6
ByLayer
370
-1
48
1.0
60
0
100
AcDbPolyline
90
5
70
0
38
0.0
39
0.0
10
36.945124
20
32.188094
40
0.0
41
0.0
42
0.0
10
38.024719
20
32.237687
40
0.0
41
0.0
42
0.0
10
37.210831
20
32.707585
40
0.0
41
0.0
42
0.0
10
36.945122
20
32.188092
40
0.0
41
0.0
42
0.0
10
36.945124
20
32.188094
40
0.0
41
0.0
42
0.0
210
0.0
220
0.0
230
1.0
0
VIEWPORT
5
106
330
102
100
AcDbEntity
67
1
8
0
62
256
6
ByLayer
370
-1
48
1.0
60
0
100
AcDbViewport
10
0.0
20
0.0
30
0.0
40
297.0
41
210.0
68
1
69
1
12
50.0
22
100.0
13
0.0
23
0.0
14
10.0
24
10.0
15
10.0
25
10.0
16
0.0
26
0.0
36
1.0
17
0.0
27
0.0
37
0.0
42
50.0
43
0.0
44
0.0
45
250.0
50
0.0
51
0.0
72
1000
90
819232
110
0.0
120
0.0
130
0.0
111
1.0
121
0.0
131
0.0
112
0.0
122
1.0
132
0.0
0
ENDSEC
0
SECTION
2
OBJECTS
0
DICTIONARY
5
109
330
0
100
AcDbDictionary
280
0
281
1
3
ACAD_GROUP
350
10A
3
ACAD_LAYOUT
350
10B
3
ACAD_MLINESTYLE
350
10C
0
DICTIONARY
5
10A
330
109
100
AcDbDictionary
280
0
281
1
0
DICTIONARY
5
10B
330
109
100
AcDbDictionary
280
0
281
1
3
Model
350
1B
3
Layout1
350
107
0
DICTIONARY
5
10C
330
109
100
AcDbDictionary
280
0
281
1
3
Standard
350
16
0
LAYOUT
5
1B
330
10B
100
AcDbPlotSettings
1

2
none_device
4
ISO_A4_(210.00_x_297.00_MM)
6

40
7.5
41
20.0
42
7.5
43
20.0
44
210.0
45
297.0
46
0.0
47
0.0
48
0.0
49
0.0
140
0.0
141
0.0
142
1.0
143
1.0
70
11952
72
1
73
1
74
5
7

75
16
147
1.0
148
0.0
149
0.0
100
AcDbLayout
1
Model
70
1
71
0
10
-20.0
20
-7.5
11
277.0
21
202.5
12
0.0
22
0.0
32
0.0
14
25.7
24
19.5
34
0.0
15
231.3
25
175.5
35
0.0
146
0.0
13
0.0
23
0.0
33
0.0
16
1.0
26
0.0
36
0.0
17
0.0
27
1.0
37
0.0
76
0
330
17
0
LAYOUT
5
107
330
10B
100
AcDbPlotSettings
1

2
none_device
4
ISO_A4_(210.00_x_297.00_MM)
6

40
7.5
41
20.0
42
7.5
43
20.0
44
210.0
45
297.0
46
0.0
47
0.0
48
0.0
49
0.0
140
0.0
141
0.0
142
1.0
143
1.0
70
688
72
1
73
1
74
5
7

75
16
147
1.0
148
0.0
149
0.0
100
AcDbLayout
1
Layout1
70
1
71
1
10
-20.0
20
-7.5
11
277.0
21
202.5
12
0.0
22
0.0
32
0.0
14
25.7
24
19.5
34
0.0
15
231.3
25
175.5
35
0.0
146
0.0
13
0.0
23
0.0
33
0.0
16
1.0
26
0.0
36
0.0
17
0.0
27
1.0
37
0.0
76
0
330
102
0
MLINESTYLE
5
16
330
10C
100
AcDbMlineStyle
2
Standard
70
0
3

62
256
51
90.0
52
90.0
71
2
49
0.5
62
256
6
ByLayer
49
-0.5
62
256
6
ByLayer
0
ENDSEC
0
EOF
