  0
SECTION
  2
HEADER
  9
$ACADVER
  1
AC1024
  9
$ACADMAINTVER
 70
6
  9
$DWGCODEPAGE
  3
ANSI_1252
  9
$LASTSAVEDBY
  1
ezdxf
  9
$INSBASE
 10
0.0
 20
0.0
 30
0.0
  9
$EXTMIN
 10
1e+20
 20
1e+20
 30
1e+20
  9
$EXTMAX
 10
-1e+20
 20
-1e+20
 30
-1e+20
  9
$LIMMIN
 10
0.0
 20
0.0
  9
$LIMMAX
 10
420.0
 20
297.0
  9
$ORTHOMODE
 70
0
  9
$REGENMODE
 70
1
  9
$FILLMODE
 70
1
  9
$QTEXTMODE
 70
0
  9
$MIRRTEXT
 70
1
  9
$LTSCALE
 40
1.0
  9
$ATTMODE
 70
1
  9
$TEXTSIZE
 40
2.5
  9
$TRACEWID
 40
1.0
  9
$TEXTSTYLE
  7
Standard
  9
$CLAYER
  8
0
  9
$CELTYPE
  6
ByLayer
  9
$CECOLOR
 62
256
  9
$CELTSCALE
 40
1.0
  9
$DISPSILH
 70
0
  9
$DIMSCALE
 40
1.0
  9
$DIMASZ
 40
2.5
  9
$DIMEXO
 40
0.625
  9
$DIMDLI
 40
3.75
  9
$DIMRND
 40
0.0
  9
$DIMDLE
 40
0.0
  9
$DIMEXE
 40
1.25
  9
$DIMTP
 40
0.0
  9
$DIMTM
 40
0.0
  9
$DIMTXT
 40
2.5
  9
$DIMCEN
 40
2.5
  9
$DIMTSZ
 40
0.0
  9
$DIMTOL
 70
0
  9
$DIMLIM
 70
0
  9
$DIMTIH
 70
0
  9
$DIMTOH
 70
0
  9
$DIMSE1
 70
0
  9
$DIMSE2
 70
0
  9
$DIMTAD
 70
1
  9
$DIMZIN
 70
8
  9
$DIMBLK
  1

  9
$DIMASO
 70
1
  9
$DIMSHO
 70
1
  9
$DIMPOST
  1

  9
$DIMAPOST
  1

  9
$DIMALT
 70
0
  9
$DIMALTD
 70
3
  9
$DIMALTF
 40
0.03937007874
  9
$DIMLFAC
 40
1.0
  9
$DIMTOFL
 70
1
  9
$DIMTVP
 40
0.0
  9
$DIMTIX
 70
0
  9
$DIMSOXD
 70
0
  9
$DIMSAH
 70
0
  9
$DIMBLK1
  1

  9
$DIMBLK2
  1

  9
$DIMSTYLE
  2
ISO-25
  9
$DIMCLRD
 70
0
  9
$DIMCLRE
 70
0
  9
$DIMCLRT
 70
0
  9
$DIMTFAC
 40
1.0
  9
$DIMGAP
 40
0.625
  9
$DIMJUST
 70
0
  9
$DIMSD1
 70
0
  9
$DIMSD2
 70
0
  9
$DIMTOLJ
 70
0
  9
$DIMTZIN
 70
8
  9
$DIMALTZ
 70
0
  9
$DIMALTTZ
 70
0
  9
$DIMUPT
 70
0
  9
$DIMDEC
 70
2
  9
$DIMTDEC
 70
2
  9
$DIMALTU
 70
2
  9
$DIMALTTD
 70
3
  9
$DIMTXSTY
  7
Standard
  9
$DIMAUNIT
 70
0
  9
$DIMADEC
 70
0
  9
$DIMALTRND
 40
0.0
  9
$DIMAZIN
 70
0
  9
$DIMDSEP
 70
44
  9
$DIMATFIT
 70
3
  9
$DIMFRAC
 70
0
  9
$DIMLDRBLK
  1

  9
$DIMLUNIT
 70
2
  9
$DIMLWD
 70
-2
  9
$DIMLWE
 70
-2
  9
$DIMTMOVE
 70
0
  9
$DIMFXL
 40
1.0
  9
$DIMFXLON
 70
0
  9
$DIMJOGANG
 40
0.785398163397
  9
$DIMTFILL
 70
0
  9
$DIMTFILLCLR
 70
0
  9
$DIMARCSYM
 70
0
  9
$DIMLTYPE
  6

  9
$DIMLTEX1
  6

  9
$DIMLTEX2
  6

  9
$DIMTXTDIRECTION
 70
0
  9
$LUNITS
 70
2
  9
$LUPREC
 70
4
  9
$SKETCHINC
 40
1.0
  9
$FILLETRAD
 40
10.0
  9
$AUNITS
 70
0
  9
$AUPREC
 70
2
  9
$MENU
  1
.
  9
$ELEVATION
 40
0.0
  9
$PELEVATION
 40
0.0
  9
$THICKNESS
 40
0.0
  9
$LIMCHECK
 70
0
  9
$CHAMFERA
 40
0.0
  9
$CHAMFERB
 40
0.0
  9
$CHAMFERC
 40
0.0
  9
$CHAMFERD
 40
0.0
  9
$SKPOLY
 70
0
  9
$TDCREATE
 40
2461138.751712963
  9
$TDUCREATE
 40
2458532.153996898
  9
$TDUPDATE
 40
2461138.751712963
  9
$TDUUPDATE
 40
2458532.1544311
  9
$TDINDWG
 40
0.0
  9
$TDUSRTIMER
 40
0.0
  9
$USRTIMER
 70
1
  9
$ANGBASE
 50
0.0
  9
$ANGDIR
 70
0
  9
$PDMODE
 70
0
  9
$PDSIZE
 40
0.0
  9
$PLINEWID
 40
0.0
  9
$SPLFRAME
 70
0
  9
$SPLINETYPE
 70
6
  9
$SPLINESEGS
 70
8
  9
$HANDSEED
  5
38
  9
$SURFTAB1
 70
6
  9
$SURFTAB2
 70
6
  9
$SURFTYPE
 70
6
  9
$SURFU
 70
6
  9
$SURFV
 70
6
  9
$UCSBASE
  2

  9
$UCSNAME
  2

  9
$UCSORG
 10
0.0
 20
0.0
 30
0.0
  9
$UCSXDIR
 10
1.0
 20
0.0
 30
0.0
  9
$UCSYDIR
 10
0.0
 20
1.0
 30
0.0
  9
$UCSORTHOREF
  2

  9
$UCSORTHOVIEW
 70
0
  9
$UCSORGTOP
 10
0.0
 20
0.0
 30
0.0
  9
$UCSORGBOTTOM
 10
0.0
 20
0.0
 30
0.0
  9
$UCSORGLEFT
 10
0.0
 20
0.0
 30
0.0
  9
$UCSORGRIGHT
 10
0.0
 20
0.0
 30
0.0
  9
$UCSORGFRONT
 10
0.0
 20
0.0
 30
0.0
  9
$UCSORGBACK
 10
0.0
 20
0.0
 30
0.0
  9
$PUCSBASE
  2

  9
$PUCSNAME
  2

  9
$PUCSORG
 10
0.0
 20
0.0
 30
0.0
  9
$PUCSXDIR
 10
1.0
 20
0.0
 30
0.0
  9
$PUCSYDIR
 10
0.0
 20
1.0
 30
0.0
  9
$PUCSORTHOREF
  2

  9
$PUCSORTHOVIEW
 70
0
  9
$PUCSORGTOP
 10
0.0
 20
0.0
 30
0.0
  9
$PUCSORGBOTTOM
 10
0.0
 20
0.0
 30
0.0
  9
$PUCSORGLEFT
 10
0.0
 20
0.0
 30
0.0
  9
$PUCSORGRIGHT
 10
0.0
 20
0.0
 30
0.0
  9
$PUCSORGFRONT
 10
0.0
 20
0.0
 30
0.0
  9
$PUCSORGBACK
 10
0.0
 20
0.0
 30
0.0
  9
$USERI1
 70
0
  9
$USERI2
 70
0
  9
$USERI3
 70
0
  9
$USERI4
 70
0
  9
$USERI5
 70
0
  9
$USERR1
 40
0.0
  9
$USERR2
 40
0.0
  9
$USERR3
 40
0.0
  9
$USERR4
 40
0.0
  9
$USERR5
 40
0.0
  9
$WORLDVIEW
 70
1
  9
$SHADEDGE
 70
3
  9
$SHADEDIF
 70
70
  9
$TILEMODE
 70
1
  9
$MAXACTVP
 70
64
  9
$PINSBASE
 10
0.0
 20
0.0
 30
0.0
  9
$PLIMCHECK
 70
0
  9
$PEXTMIN
 10
1e+20
 20
1e+20
 30
1e+20
  9
$PEXTMAX
 10
-1e+20
 20
-1e+20
 30
-1e+20
  9
$PLIMMIN
 10
0.0
 20
0.0
  9
$PLIMMAX
 10
420.0
 20
297.0
  9
$UNITMODE
 70
0
  9
$VISRETAIN
 70
1
  9
$PLINEGEN
 70
0
  9
$PSLTSCALE
 70
1
  9
$TREEDEPTH
 70
3020
  9
$CMLSTYLE
  2
Standard
  9
$CMLJUST
 70
0
  9
$CMLSCALE
 40
20.0
  9
$PROXYGRAPHICS
 70
1
  9
$MEASUREMENT
 70
1
  9
$CELWEIGHT
370
-1
  9
$ENDCAPS
280
0
  9
$JOINSTYLE
280
0
  9
$LWDISPLAY
290
0
  9
$INSUNITS
 70
6
  9
$HYPERLINKBASE
  1

  9
$STYLESHEET
  1

  9
$XEDIT
290
1
  9
$CEPSNTYPE
380
0
  9
$PSTYLEMODE
290
1
  9
$FINGERPRINTGUID
  2
{2B8D81E3-5399-4AE1-B106-164CC18E0B3A}
  9
$VERSIONGUID
  2
{67D8F000-D998-4A12-91FD-49B2A345E65E}
  9
$EXTNAMES
290
1
  9
$PSVPSCALE
 40
0.0
  9
$OLESTARTUP
290
0
  9
$SORTENTS
280
127
  9
$INDEXCTL
280
0
  9
$HIDETEXT
280
1
  9
$XCLIPFRAME
280
1
  9
$HALOGAP
280
0
  9
$OBSCOLOR
 70
257
  9
$OBSLTYPE
280
0
  9
$INTERSECTIONDISPLAY
280
0
  9
$INTERSECTIONCOLOR
 70
257
  9
$DIMASSOC
280
2
  9
$PROJECTNAME
  1

  9
$CAMERADISPLAY
290
0
  9
$LENSLENGTH
 40
50.0
  9
$CAMERAHEIGHT
 40
0.0
  9
$STEPSPERSEC
 40
24.0
  9
$STEPSIZE
 40
100.0
  9
$3DDWFPREC
 40
2.0
  9
$PSOLWIDTH
 40
0.005
  9
$PSOLHEIGHT
 40
0.08
  9
$LOFTANG1
 40
1.570796326795
  9
$LOFTANG2
 40
1.570796326795
  9
$LOFTMAG1
 40
0.0
  9
$LOFTMAG2
 40
0.0
  9
$LOFTPARAM
 70
7
  9
$LOFTNORMALS
280
1
  9
$LATITUDE
 40
37.795
  9
$LONGITUDE
 40
-122.394
  9
$NORTHDIRECTION
 40
0.0
  9
$TIMEZONE
 70
-8000
  9
$LIGHTGLYPHDISPLAY
280
1
  9
$TILEMODELIGHTSYNCH
280
1
  9
$CMATERIAL
347
20
  9
$SOLIDHIST
280
0
  9
$SHOWHIST
280
1
  9
$DWFFRAME
280
2
  9
$DGNFRAME
280
2
  9
$REALWORLDSCALE
290
1
  9
$INTERFERECOLOR
 62
256
  9
$CSHADOW
280
0
  9
$SHADOWPLANELOCATION
 40
0.0
  0
ENDSEC
  0
SECTION
  2
CLASSES
  0
CLASS
  1
ACDBDICTIONARYWDFLT
  2
AcDbDictionaryWithDefault
  3
ObjectDBX Classes
 90
0
 91
0
280
0
281
0
  0
CLASS
  1
SUN
  2
AcDbSun
  3
SCENEOE
 90
1153
 91
0
280
0
281
0
  0
CLASS
  1
VISUALSTYLE
  2
AcDbVisualStyle
  3
ObjectDBX Classes
 90
4095
 91
0
280
0
281
0
  0
CLASS
  1
MATERIAL
  2
AcDbMaterial
  3
ObjectDBX Classes
 90
1153
 91
0
280
0
281
0
  0
CLASS
  1
SCALE
  2
AcDbScale
  3
ObjectDBX Classes
 90
1153
 91
0
280
0
281
0
  0
CLASS
  1
TABLESTYLE
  2
AcDbTableStyle
  3
ObjectDBX Classes
 90
4095
 91
0
280
0
281
0
  0
CLASS
  1
MLEADERSTYLE
  2
AcDbMLeaderStyle
  3
ACDB_MLEADERSTYLE_CLASS
 90
4095
 91
0
280
0
281
0
  0
CLASS
  1
DICTIONARYVAR
  2
AcDbDictionaryVar
  3
ObjectDBX Classes
 90
0
 91
0
280
0
281
0
  0
CLASS
  1
CELLSTYLEMAP
  2
AcDbCellStyleMap
  3
ObjectDBX Classes
 90
1152
 91
0
280
0
281
0
  0
CLASS
  1
MENTALRAYRENDERSETTINGS
  2
AcDbMentalRayRenderSettings
  3
SCENEOE
 90
1024
 91
0
280
0
281
0
  0
CLASS
  1
ACDBDETAILVIEWSTYLE
  2
AcDbDetailViewStyle
  3
ObjectDBX Classes
 90
1025
 91
0
280
0
281
0
  0
CLASS
  1
ACDBSECTIONVIEWSTYLE
  2
AcDbSectionViewStyle
  3
ObjectDBX Classes
 90
1025
 91
0
280
0
281
0
  0
CLASS
  1
RASTERVARIABLES
  2
AcDbRasterVariables
  3
ISM
 90
0
 91
0
280
0
281
0
  0
CLASS
  1
LAYOUT
  2
AcDbLayout
  3
ObjectDBX Classes
 90
0
 91
0
280
0
281
0
  0
CLASS
  1
ACDBPLACEHOLDER
  2
AcDbPlaceHolder
  3
ObjectDBX Classes
 90
0
 91
0
280
0
281
0
  0
ENDSEC
  0
SECTION
  2
TABLES
  0
TABLE
  2
VPORT
  5
8
330
0
100
AcDbSymbolTable
 70
1
  0
VPORT
  5
23
330
8
100
AcDbSymbolTableRecord
100
AcDbViewportTableRecord
  2
*Active
 70
0
 10
0.0
 20
0.0
 11
1.0
 21
1.0
 12
0.0
 22
0.0
 13
0.0
 23
0.0
 14
0.5
 24
0.5
 15
0.5
 25
0.5
 16
0.0
 26
0.0
 36
1.0
 17
0.0
 27
0.0
 37
0.0
 40
1000.0
 41
1.34
 42
50.0
 43
0.0
 44
0.0
 50
0.0
 51
0.0
 71
0
 72
1000
 73
1
 74
3
 75
0
 76
0
 77
0
 78
0
281
0
 65
0
146
0.0
  0
ENDTAB
  0
TABLE
  2
LTYPE
  5
2
330
0
100
AcDbSymbolTable
 70
3
  0
LTYPE
  5
24
330
2
100
AcDbSymbolTableRecord
100
AcDbLinetypeTableRecord
  2
ByBlock
 70
0
  3

 72
65
 73
0
 40
0.0
  0
LTYPE
  5
25
330
2
100
AcDbSymbolTableRecord
100
AcDbLinetypeTableRecord
  2
ByLayer
 70
0
  3

 72
65
 73
0
 40
0.0
  0
LTYPE
  5
26
330
2
100
AcDbSymbolTableRecord
100
AcDbLinetypeTableRecord
  2
Continuous
 70
0
  3

 72
65
 73
0
 40
0.0
  0
ENDTAB
  0
TABLE
  2
LAYER
  5
1
330
0
100
AcDbSymbolTable
 70
2
  0
LAYER
  5
27
330
1
100
AcDbSymbolTableRecord
100
AcDbLayerTableRecord
  2
0
 70
0
 62
7
  6
Continuous
370
-3
390
13
347
21
  0
LAYER
  5
28
330
1
100
AcDbSymbolTableRecord
100
AcDbLayerTableRecord
  2
Defpoints
 70
0
 62
7
  6
Continuous
290
0
370
-3
390
13
347
21
  0
ENDTAB
  0
TABLE
  2
STYLE
  5
5
330
0
100
AcDbSymbolTable
 70
1
  0
STYLE
  5
29
330
5
100
AcDbSymbolTableRecord
100
AcDbTextStyleTableRecord
  2
Standard
 70
0
 40
0.0
 41
1.0
 50
0.0
 71
0
 42
2.5
  3
txt
  4

  0
ENDTAB
  0
TABLE
  2
VIEW
  5
7
330
0
100
AcDbSymbolTable
 70
0
  0
ENDTAB
  0
TABLE
  2
UCS
  5
6
330
0
100
AcDbSymbolTable
 70
0
  0
ENDTAB
  0
TABLE
  2
APPID
  5
3
330
0
100
AcDbSymbolTable
 70
3
  0
APPID
  5
2A
330
3
100
AcDbSymbolTableRecord
100
AcDbRegAppTableRecord
  2
ACAD
 70
0
  0
APPID
  5
35
330
3
100
AcDbSymbolTableRecord
100
AcDbRegAppTableRecord
  2
HATCHBACKGROUNDCOLOR
 70
0
  0
APPID
  5
36
330
3
100
AcDbSymbolTableRecord
100
AcDbRegAppTableRecord
  2
EZDXF
 70
0
  0
ENDTAB
  0
TABLE
  2
DIMSTYLE
  5
4
330
0
100
AcDbSymbolTable
 70
1
100
AcDbDimStyleTable
  0
DIMSTYLE
105
2B
330
4
100
AcDbSymbolTableRecord
100
AcDbDimStyleTableRecord
  2
Standard
 70
0
 40
1.0
 41
2.5
 42
0.625
 43
3.75
 44
1.25
 45
0.0
 46
0.0
 47
0.0
 48
0.0
 49
2.5
140
2.5
141
2.5
142
0.0
143
0.03937007874
144
1.0
145
0.0
146
1.0
147
0.625
148
0.0
 69
0
 70
0
 71
0
 72
0
 73
0
 74
0
 75
0
 76
0
 77
1
 78
8
 79
3
170
0
171
3
172
1
173
0
174
0
175
0
176
0
177
0
178
0
179
2
271
2
272
2
273
2
274
3
275
0
276
0
277
2
278
44
279
0
280
0
281
0
282
0
283
0
284
8
285
0
286
0
288
0
289
3
290
0
371
-2
372
-2
  0
ENDTAB
  0
TABLE
  2
BLOCK_RECORD
  5
9
330
0
100
AcDbSymbolTable
 70
2
  0
BLOCK_RECORD
  5
17
330
9
100
AcDbSymbolTableRecord
100
AcDbBlockTableRecord
  2
*Model_Space
340
1A
 70
0
280
1
281
0
  0
BLOCK_RECORD
  5
1B
330
9
100
AcDbSymbolTableRecord
100
AcDbBlockTableRecord
  2
*Paper_Space
340
1E
 70
0
280
1
281
0
  0
ENDTAB
  0
ENDSEC
  0
SECTION
  2
BLOCKS
  0
BLOCK
  5
18
330
17
100
AcDbEntity
  8
0
100
AcDbBlockBegin
  2
*Model_Space
 70
0
 10
0.0
 20
0.0
 30
0.0
  3
*Model_Space
  1

  0
ENDBLK
  5
19
330
17
100
AcDbEntity
  8
0
100
AcDbBlockEnd
  0
BLOCK
  5
1C
330
1B
100
AcDbEntity
  8
0
100
AcDbBlockBegin
  2
*Paper_Space
 70
0
 10
0.0
 20
0.0
 30
0.0
  3
*Paper_Space
  1

  0
ENDBLK
  5
1D
330
1B
100
AcDbEntity
  8
0
100
AcDbBlockEnd
  0
ENDSEC
  0
SECTION
  2
ENTITIES
  0
LWPOLYLINE
  5
2F
330
17
100
AcDbEntity
  8
0
100
AcDbPolyline
 90
20
 70
0
 10
186.11596
 20
-52.77993
 10
186.10961
 20
-52.596287999999994
 10
186.08598800000001
 20
-52.417725999999995
 10
186.04585600000001
 20
-52.245259999999995
 10
185.99023
 20
-52.07990599999999
 10
185.920126
 20
-51.92242599999999
 10
185.836306
 20
-51.77383599999999
 10
185.73953200000003
 20
-51.634897999999986
 10
185.63056600000002
 20
-51.50662799999999
 10
185.51042400000003
 20
-51.39004199999999
 10
185.38012200000003
 20
-51.28615599999999
 10
185.240168
 20
-51.19573199999999
 10
185.091832
 20
-51.119531999999985
 10
184.93562200000002
 20
-51.058571999999984
 10
184.772554
 20
-51.01386799999999
 10
184.60364400000003
 20
-50.98643599999999
 10
179.16474200000002
 20
-50.977037999999986
 10
178.93436400000002
 20
-68.08342999999999
 10
185.909712
 20
-68.08342999999999
 10
186.11570600000002
 20
-52.77942199999999
  0
LWPOLYLINE
  5
30
330
17
100
AcDbEntity
  8
0
100
AcDbPolyline
 90
35
 70
0
 10
148.290534
 20
-51.19725599999998
 10
16.987773999999995
 20
-50.95773399999998
 10
16.737329999999993
 20
-50.99989799999998
 10
16.495521999999994
 20
-51.068477999999985
 10
16.26387399999999
 20
-51.16194999999998
 10
16.04340199999999
 20
-51.279043999999985
 10
15.83537599999999
 20
-51.418489999999984
 10
15.64131999999999
 20
-51.57850999999999
 10
15.462249999999989
 20
-51.75808799999999
 10
15.29943599999999
 20
-51.95569999999998
 10
15.154147999999989
 20
-52.16982199999998
 10
15.02790999999999
 20
-52.39918399999998
 10
14.921737999999989
 20
-52.642261999999974
 10
14.836901999999988
 20
-52.897785999999975
 10
14.77467199999999
 20
-53.16423199999998
 10
14.73657199999999
 20
-53.440329999999975
 10
14.46961799999999
 20
-67.57542999999998
 10
78.70494799999999
 20
-68.08342999999998
 10
85.99804999999999
 20
-66.94881199999998
 10
94.118684
 20
-66.95084399999998
 10
94.1705
 20
-66.95719399999997
 10
94.2213
 20
-66.96735399999997
 10
94.27083
 20
-66.98157799999997
 10
94.31909
 20
-66.99961199999997
 10
94.36608
 20
-67.02120199999997
 10
94.411292
 20
-67.04634799999997
 10
94.454726
 20
-67.07504999999998
 10
94.496382
 20
-67.10705399999996
 10
94.53600599999999
 20
-67.14210599999996
 10
94.57334399999999
 20
-67.18020599999996
 10
94.60814199999999
 20
-67.22135399999995
 10
94.66986399999999
 20
-67.31203199999996
 10
94.996254
 20
-68.08368399999996
 10
148.290788
 20
-68.33768399999995
 10
148.290788
 20
-51.19750999999996
  0
LWPOLYLINE
  5
31
330
17
100
AcDbEntity
  8
0
100
AcDbPolyline
 90
249
 70
0
 10
191.64325399999998
 20
-155.33192199999996
 10
190.75019
 20
-152.146762
 10
171.152058
 20
-108.19612599999999
 10
168.470326
 20
-100.32034799999998
 10
167.45153200000001
 20
-96.29266999999997
 10
166.950136
 20
-93.37293999999997
 10
166.74592
 20
-90.67926999999997
 10
166.80942000000002
 20
-88.20327799999997
 10
167.111172
 20
-85.93632799999997
 10
167.621712
 20
-83.87003799999998
 10
168.311576
 20
-81.99602599999997
 10
169.151554
 20
-80.30590999999998
 10
170.11218200000002
 20
-78.79105399999997
 10
171.163996
 20
-77.44307599999998
 10
172.277532
 20
-76.25359399999998
 10
173.423326
 20
-75.21397199999997
 10
175.69434
 20
-73.55103399999996
 10
178.66156800000002
 20
-71.94245199999996
 10
178.70678
 20
-71.91298799999996
 10
178.74361000000002
 20
-71.88225399999996
 10
178.75885
 20
-71.86650599999996
 10
178.77205800000002
 20
-71.85075799999996
 10
178.783234
 20
-71.83475599999996
 10
178.79237799999999
 20
-71.81875399999997
 10
178.79949
 20
-71.80300599999997
 10
178.80456999999998
 20
-71.78725799999997
 10
178.807872
 20
-71.77176399999996
 10
178.80914199999998
 20
-71.75652399999997
 10
178.80837999999997
 20
-71.74153799999996
 10
178.80584
 20
-71.72680599999995
 10
178.80126799999996
 20
-71.71258199999997
 10
178.79491799999997
 20
-71.69886599999997
 10
178.78678999999997
 20
-71.68565799999996
 10
178.77662999999998
 20
-71.67295799999997
 10
178.76469199999997
 20
-71.66101999999995
 10
178.75097599999998
 20
-71.64984399999996
 10
178.73548199999996
 20
-71.63942999999996
 10
178.71820999999997
 20
-71.62977799999996
 10
178.69915999999998
 20
-71.62114199999996
 10
178.65597999999997
 20
-71.60691799999996
 10
178.60594199999997
 20
-71.59701199999996
 10
178.54904599999998
 20
-71.59193199999997
 10
144.43176599999998
 20
-71.54621199999997
 10
144.27225399999998
 20
-71.56500799999998
 10
144.117822
 20
-71.60056799999997
 10
143.96923199999998
 20
-71.65238399999997
 10
143.82724599999997
 20
-71.71918599999997
 10
143.69287999999997
 20
-71.80046599999997
 10
143.56689599999999
 20
-71.89495399999997
 10
143.44980199999998
 20
-72.00214199999998
 10
143.34261399999997
 20
-72.12101399999997
 10
143.24609399999997
 20
-72.25055399999998
 10
143.16100399999996
 20
-72.38999999999997
 10
143.08810599999995
 20
-72.53858999999997
 10
143.02816199999995
 20
-72.69530799999997
 10
142.98218799999995
 20
-72.85939199999997
 10
142.95069199999995
 20
-73.02982599999997
 10
142.93443599999995
 20
-73.20584799999997
 10
142.93062599999996
 20
-78.04251599999998
 10
142.91792599999997
 20
-78.18196199999997
 10
142.89277999999996
 20
-78.31683599999997
 10
142.85620399999996
 20
-78.44662999999998
 10
142.80870599999994
 20
-78.57058199999997
 10
142.75079399999996
 20
-78.68818399999998
 10
142.68322999999998
 20
-78.79842
 10
142.60652199999996
 20
-78.90078199999999
 10
142.52143199999995
 20
-78.99450800000001
 10
142.42846799999995
 20
-79.07909000000001
 10
142.32839199999995
 20
-79.153512
 10
142.22196599999998
 20
-79.21726600000001
 10
142.10944399999997
 20
-79.26959000000001
 10
141.99158799999995
 20
-79.309976
 10
141.86915999999997
 20
-79.33766200000001
 10
141.74266799999995
 20
-79.351886
 10
128.06324399999994
 20
-79.351886
 10
127.93675199999996
 20
-79.33766200000001
 10
127.81432399999994
 20
-79.309976
 10
127.69646799999995
 20
-79.26959000000001
 10
127.58394599999995
 20
-79.21726600000001
 10
127.47751999999996
 20
-79.153512
 10
127.37744399999995
 20
-79.07909000000001
 10
127.28473399999996
 20
-78.99450800000001
 10
127.19964399999996
 20
-78.90078199999999
 10
127.12293599999995
 20
-78.79842
 10
127.05537199999995
 20
-78.68818399999998
 10
126.99745999999995
 20
-78.57058199999997
 10
126.94996199999994
 20
-78.44662999999998
 10
126.91338599999995
 20
-78.31683599999997
 10
126.88849399999994
 20
-78.18196199999997
 10
126.87401599999994
 20
-77.97139599999997
 10
127.12801599999993
 20
-73.39837999999996
 10
127.11988799999993
 20
-73.21930999999996
 10
127.09575799999993
 20
-73.04557399999996
 10
127.05638799999994
 20
-72.87793399999995
 10
127.00279399999994
 20
-72.71715199999996
 10
126.93573799999993
 20
-72.56424399999997
 10
126.85598199999993
 20
-72.41997199999997
 10
126.76428799999994
 20
-72.28535199999997
 10
126.66167199999992
 20
-72.16139999999997
 10
126.54864199999993
 20
-72.04887799999999
 10
126.42621399999993
 20
-71.94854799999999
 10
126.29514999999992
 20
-71.86142599999998
 10
126.15621199999991
 20
-71.78827399999997
 10
126.01016199999992
 20
-71.73010799999999
 10
125.85776199999991
 20
-71.68768999999999
 10
125.70002799999992
 20
-71.66203599999999
 10
99.18344399999991
 20
-71.548498
 10
99.50043599999991
 20
-72.15352599999999
 10
100.25811799999991
 20
-73.95159199999999
 10
101.1671839999999
 20
-76.91805799999999
 10
101.93832799999991
 20
-81.02803199999998
 10
101.93908999999991
 20
-81.02777799999998
 10
101.9454399999999
 20
-81.02701599999999
 10
115.10441799999991
 20
-81.78291999999999
 10
119.2209959999999
 20
-82.36838999999999
 10
120.9728339999999
 20
-82.82990799999999
 10
122.5412839999999
 20
-83.44306399999999
 10
123.26162799999992
 20
-83.81568199999998
 10
123.94183999999991
 20
-84.23706799999998
 10
124.58420599999991
 20
-84.71103199999999
 10
125.1905039999999
 20
-85.24138399999998
 10
125.7627659999999
 20
-85.83142599999998
 10
126.3027699999999
 20
-86.48496799999998
 10
127.2941319999999
 20
-87.99728399999998
 10
128.1805919999999
 20
-89.80754199999998
 10
128.9776439999999
 20
-91.94520599999998
 10
130.0401259999999
 20
-95.82911999999997
 10
135.9921079999999
 20
-94.16643599999998
 10
136.1310459999999
 20
-94.14408399999998
 10
136.2699839999999
 20
-94.13239999999998
 10
136.40866799999992
 20
-94.13138399999997
 10
136.54633599999994
 20
-94.14052799999997
 10
136.68222599999993
 20
-94.15983199999998
 10
136.81608399999993
 20
-94.18929599999997
 10
136.9471479999999
 20
-94.22866599999998
 10
137.07465599999992
 20
-94.27768799999997
 10
137.1980999999999
 20
-94.33610799999997
 10
137.3169719999999
 20
-94.40392599999997
 10
137.4305099999999
 20
-94.48088799999996
 10
137.5382059999999
 20
-94.56699399999997
 10
137.6395519999999
 20
-94.66198999999997
 10
137.7337859999999
 20
-94.76562199999998
 10
137.9433359999999
 20
-95.06000799999997
 10
138.1874299999999
 20
-95.48520399999997
 10
138.4208559999999
 20
-95.99752199999998
 10
138.6331999999999
 20
-96.60407399999997
 10
138.8140479999999
 20
-97.31197199999995
 10
138.9527319999999
 20
-98.12832799999995
 10
139.03909199999993
 20
-99.06025399999996
 10
139.03553599999992
 20
-100.83596799999995
 10
139.0126759999999
 20
-100.97896999999995
 10
138.9794019999999
 20
-101.11866999999995
 10
138.9357139999999
 20
-101.25455999999996
 10
138.8821199999999
 20
-101.38587799999995
 10
138.8191279999999
 20
-101.51236999999995
 10
138.7469919999999
 20
-101.63352799999994
 10
138.6662199999999
 20
-101.74884399999995
 10
138.5768119999999
 20
-101.85755599999995
 10
138.4795299999999
 20
-101.95940999999995
 10
138.3746279999999
 20
-102.05389799999995
 10
138.2623599999999
 20
-102.14025799999995
 10
138.1432339999999
 20
-102.21823599999995
 10
138.0175039999999
 20
-102.28732399999994
 10
137.88567799999987
 20
-102.34701399999994
 10
137.74800999999988
 20
-102.39679799999996
 10
133.67842199999987
 20
-103.51236599999996
 10
137.07871999999983
 20
-112.15725599999996
 10
137.81328799999986
 20
-115.08485999999996
 10
137.96594199999987
 20
-116.29313799999997
 10
138.00226399999985
 20
-117.51462399999997
 10
137.90066399999986
 20
-118.71985399999997
 10
137.79144399999987
 20
-119.30710199999997
 10
137.1953059999999
 20
-121.28855599999997
 10
137.1234239999999
 20
-121.64517199999997
 10
137.0888799999999
 20
-122.00077199999997
 10
137.0888799999999
 20
-122.17780999999997
 10
137.10234199999988
 20
-122.35408599999997
 10
137.1305359999999
 20
-122.52934599999998
 10
137.17498599999988
 20
-122.70333599999998
 10
137.2405179999999
 20
-122.88443799999997
 10
137.3205279999999
 20
-123.04902999999999
 10
137.4137459999999
 20
-123.198382
 10
137.5186479999999
 20
-123.33401799999999
 10
137.63421799999992
 20
-123.457208
 10
137.7589319999999
 20
-123.56922199999998
 10
138.0312199999999
 20
-123.76530999999999
 10
139.5661419999999
 20
-124.56871199999999
 10
140.1902199999999
 20
-125.029468
 10
140.7647679999999
 20
-125.581918
 10
141.2892779999999
 20
-126.215394
 10
141.76247999999993
 20
-126.918466
 10
142.1838659999999
 20
-127.680212
 10
142.55241999999993
 20
-128.489456
 10
143.12722199999993
 20
-130.205988
 10
143.48028199999993
 20
-131.979416
 10
143.60448799999995
 20
-133.72083999999998
 10
143.57857999999993
 20
-134.551928
 10
143.49298199999996
 20
-135.341614
 10
143.34667799999994
 20
-136.078976
 10
142.82877199999993
 20
-137.74445400000002
 10
142.74901599999995
 20
-138.10107000000002
 10
142.70405799999995
 20
-138.456924
 10
142.69796199999993
 20
-138.634216
 10
142.70456599999994
 20
-138.810746
 10
142.72539399999994
 20
-138.986514
 10
142.76171599999995
 20
-139.161266
 10
142.81708799999993
 20
-139.340844
 10
142.88998599999994
 20
-139.513564
 10
142.97659999999993
 20
-139.670282
 10
143.07591399999993
 20
-139.81252199999997
 10
143.18640399999992
 20
-139.94155399999997
 10
143.30679999999992
 20
-140.058902
 10
143.57197599999992
 20
-140.263626
 10
147.26513599999993
 20
-142.234158
 10
147.7525619999999
 20
-142.601188
 10
147.9727799999999
 20
-142.799054
 10
148.1729319999999
 20
-143.006826
 10
148.3494619999999
 20
-143.22501200000002
 10
148.49932199999992
 20
-143.45412000000002
 10
151.39212799999993
 20
-150.08326600000004
 10
154.0545559999999
 20
-157.77768800000004
 10
154.22346599999992
 20
-158.15335400000004
 10
154.4297139999999
 20
-158.50082600000007
 10
154.67025199999992
 20
-158.81705600000006
 10
154.94203199999993
 20
-159.09925000000007
 10
155.24225999999993
 20
-159.34436000000008
 10
155.56788799999993
 20
-159.54959200000008
 10
155.91612199999994
 20
-159.71189800000008
 10
156.09773199999995
 20
-159.77590600000005
 10
157.50997199999992
 20
-160.08299200000005
 10
163.08298599999995
 20
-160.56279800000004
 10
189.05626399999994
 20
-160.01060200000006
 10
189.23863599999996
 20
-159.98012200000005
 10
189.41618199999994
 20
-159.93719600000006
 10
189.58864799999992
 20
-159.88207800000006
 10
189.91808599999993
 20
-159.73729800000004
 10
190.22517199999993
 20
-159.54984600000003
 10
190.50838199999993
 20
-159.32353200000003
 10
190.76644599999992
 20
-159.06191200000004
 10
190.99783999999988
 20
-158.76879600000004
 10
191.2012939999999
 20
-158.44774000000004
 10
191.37528399999988
 20
-158.10280800000007
 10
191.5182859999999
 20
-157.73755600000007
 10
191.62877599999987
 20
-157.35579400000006
 10
191.70548399999987
 20
-156.96133200000006
 10
191.74688599999988
 20
-156.55798000000007
 10
191.7514579999999
 20
-156.14954800000007
 10
191.71767599999987
 20
-155.73959200000007
 10
191.6442699999999
 20
-155.33192200000005
  0
LWPOLYLINE
  5
32
330
17
100
AcDbEntity
  8
0
100
AcDbPolyline
 90
7
 70
0
 10
101.93985199999989
 20
-81.02930200000007
 10
101.9395979999999
 20
-81.02777800000007
 10
101.9390899999999
 20
-81.02803200000007
 10
101.9388359999999
 20
-81.02828600000007
 10
101.9390899999999
 20
-81.02828600000007
 10
101.93934399999989
 20
-81.02854000000006
 10
101.93985199999989
 20
-81.02879400000005
  0
LWPOLYLINE
  5
33
330
17
100
AcDbEntity
  8
0
100
AcDbPolyline
 90
30
 70
0
 10
85.5865699999999
 20
-71.33640800000005
 10
65.27647599999989
 20
-71.33640800000005
 10
65.2373599999999
 20
-71.66432200000006
 10
65.1931639999999
 20
-72.61961600000006
 10
65.2536159999999
 20
-74.16038000000005
 10
65.52818999999991
 20
-76.24419600000006
 10
65.62013799999991
 20
-76.65339000000004
 10
65.74637599999991
 20
-77.04683600000004
 10
65.90487199999991
 20
-77.42326400000005
 10
66.09410199999992
 20
-77.78115000000005
 10
66.31203399999993
 20
-78.11897000000005
 10
66.55714399999991
 20
-78.43545400000004
 10
66.82765399999991
 20
-78.72882400000003
 10
67.1215319999999
 20
-78.99781000000004
 10
67.43725399999991
 20
-79.24063400000004
 10
67.7730419999999
 20
-79.45602600000005
 10
68.12711799999991
 20
-79.64246200000004
 10
68.49770399999991
 20
-79.79841800000004
 10
68.88302199999991
 20
-79.92237000000004
 10
69.2812939999999
 20
-80.01279400000004
 10
69.69074199999991
 20
-80.06842000000003
 10
88.9541019999999
 20
-80.10245600000003
 10
88.8484379999999
 20
-80.00390400000005
 10
88.5616719999999
 20
-79.68615000000005
 10
88.1392699999999
 20
-79.11617400000004
 10
87.6266979999999
 20
-78.26146400000005
 10
87.06967599999992
 20
-77.08900000000004
 10
86.5136699999999
 20
-75.56601600000005
 10
86.0043999999999
 20
-73.65949200000004
 10
85.58707799999992
 20
-71.33666200000005
  0
LWPOLYLINE
  5
34
330
17
100
AcDbEntity
  8
0
100
AcDbPolyline
 90
18
 70
0
 10
15.215869999999907
 20
-70.64171800000005
 10
15.630905999999907
 20
-71.48804600000005
 10
15.877539999999906
 20
-71.89520800000005
 10
16.150335999999907
 20
-72.28103400000005
 10
16.447769999999906
 20
-72.64450800000004
 10
17.110709999999905
 20
-73.30084400000004
 10
17.854929999999907
 20
-73.85659600000004
 10
18.668491999999908
 20
-74.30439800000003
 10
19.539965999999907
 20
-74.63663000000004
 10
19.99386399999991
 20
-74.75702600000004
 10
20.457921999999908
 20
-74.84567200000004
 10
20.930615999999908
 20
-74.90180600000004
 10
61.26683199999991
 20
-75.36103800000004
 10
61.2708959999999
 20
-75.35824400000003
 10
61.2747059999999
 20
-75.34960800000003
 10
61.278261999999906
 20
-75.33538400000003
 10
61.26683199999991
 20
-71.33717000000003
 10
15.216123999999908
 20
-70.64222600000004
  0
ENDSEC
  0
SECTION
  2
OBJECTS
  0
DICTIONARY
  5
A
330
0
100
AcDbDictionary
281
1
  3
ACAD_COLOR
350
B
  3
ACAD_GROUP
350
C
  3
ACAD_LAYOUT
350
D
  3
ACAD_MATERIAL
350
E
  3
ACAD_MLEADERSTYLE
350
F
  3
ACAD_MLINESTYLE
350
10
  3
ACAD_PLOTSETTINGS
350
11
  3
ACAD_PLOTSTYLENAME
350
12
  3
ACAD_SCALELIST
350
14
  3
ACAD_TABLESTYLE
350
15
  3
ACAD_VISUALSTYLE
350
16
  3
EZDXF_META
350
2D
  0
DICTIONARY
  5
B
330
A
100
AcDbDictionary
281
1
  0
DICTIONARY
  5
C
330
A
100
AcDbDictionary
281
1
  0
DICTIONARY
  5
D
330
A
100
AcDbDictionary
281
1
  3
Model
350
1A
  3
Layout1
350
1E
  0
DICTIONARY
  5
E
330
A
100
AcDbDictionary
281
1
  3
ByBlock
350
1F
  3
ByLayer
350
20
  3
Global
350
21
  0
DICTIONARY
  5
F
330
A
100
AcDbDictionary
281
1
  3
Standard
350
2C
  0
DICTIONARY
  5
10
330
A
100
AcDbDictionary
281
1
  3
Standard
350
22
  0
DICTIONARY
  5
11
330
A
100
AcDbDictionary
281
1
  0
ACDBDICTIONARYWDFLT
  5
12
330
A
100
AcDbDictionary
281
1
  3
Normal
350
13
100
AcDbDictionaryWithDefault
340
13
  0
ACDBPLACEHOLDER
  5
13
330
12
  0
DICTIONARY
  5
14
330
A
100
AcDbDictionary
281
1
  0
DICTIONARY
  5
15
330
A
100
AcDbDictionary
281
1
  0
DICTIONARY
  5
16
330
A
100
AcDbDictionary
281
1
  0
LAYOUT
  5
1A
330
D
100
AcDbPlotSettings
  1

  4
A3
  6

 40
7.5
 41
20.0
 42
7.5
 43
20.0
 44
420.0
 45
297.0
 46
0.0
 47
0.0
 48
0.0
 49
0.0
140
0.0
141
0.0
142
1.0
143
1.0
 70
1024
 72
1
 73
0
 74
5
  7

 75
16
 76
0
 77
2
 78
300
147
1.0
148
0.0
149
0.0
100
AcDbLayout
  1
Model
 70
1
 71
0
 10
0.0
 20
0.0
 11
420.0
 21
297.0
 12
0.0
 22
0.0
 32
0.0
 14
1e+20
 24
1e+20
 34
1e+20
 15
-1e+20
 25
-1e+20
 35
-1e+20
146
0.0
 13
0.0
 23
0.0
 33
0.0
 16
1.0
 26
0.0
 36
0.0
 17
0.0
 27
1.0
 37
0.0
 76
1
330
17
  0
LAYOUT
  5
1E
330
D
100
AcDbPlotSettings
  1

  4
A3
  6

 40
7.5
 41
20.0
 42
7.5
 43
20.0
 44
420.0
 45
297.0
 46
0.0
 47
0.0
 48
0.0
 49
0.0
140
0.0
141
0.0
142
1.0
143
1.0
 70
0
 72
1
 73
0
 74
5
  7

 75
16
 76
0
 77
2
 78
300
147
1.0
148
0.0
149
0.0
100
AcDbLayout
  1
Layout1
 70
1
 71
1
 10
0.0
 20
0.0
 11
420.0
 21
297.0
 12
0.0
 22
0.0
 32
0.0
 14
1e+20
 24
1e+20
 34
1e+20
 15
-1e+20
 25
-1e+20
 35
-1e+20
146
0.0
 13
0.0
 23
0.0
 33
0.0
 16
1.0
 26
0.0
 36
0.0
 17
0.0
 27
1.0
 37
0.0
 76
1
330
1B
  0
MATERIAL
  5
1F
102
{ACAD_REACTORS
330
E
102
}
330
E
100
AcDbMaterial
  1
ByBlock
  2

 70
0
 40
1.0
 71
1
 41
1.0
 91
-1023410177
 42
1.0
 72
1
  3

 73
1
 74
1
 75
1
 44
0.5
 73
0
 45
1.0
 46
1.0
 77
1
  4

 78
1
 79
1
170
1
 48
1.0
171
1
  6

172
1
173
1
174
1
140
1.0
141
1.0
175
1
  7

176
1
177
1
178
1
143
1.0
179
1
  8

270
1
271
1
272
1
145
1.0
146
1.0
273
1
  9

274
1
275
1
276
1
 42
1.0
 72
1
  3

 73
1
 74
1
 75
1
 94
63
  0
MATERIAL
  5
20
102
{ACAD_REACTORS
330
E
102
}
330
E
100
AcDbMaterial
  1
ByLayer
  2

 70
0
 40
1.0
 71
1
 41
1.0
 91
-1023410177
 42
1.0
 72
1
  3

 73
1
 74
1
 75
1
 44
0.5
 73
0
 45
1.0
 46
1.0
 77
1
  4

 78
1
 79
1
170
1
 48
1.0
171
1
  6

172
1
173
1
174
1
140
1.0
141
1.0
175
1
  7

176
1
177
1
178
1
143
1.0
179
1
  8

270
1
271
1
272
1
145
1.0
146
1.0
273
1
  9

274
1
275
1
276
1
 42
1.0
 72
1
  3

 73
1
 74
1
 75
1
 94
63
  0
MATERIAL
  5
21
102
{ACAD_REACTORS
330
E
102
}
330
E
100
AcDbMaterial
  1
Global
  2

 70
0
 40
1.0
 71
1
 41
1.0
 91
-1023410177
 42
1.0
 72
1
  3

 73
1
 74
1
 75
1
 44
0.5
 73
0
 45
1.0
 46
1.0
 77
1
  4

 78
1
 79
1
170
1
 48
1.0
171
1
  6

172
1
173
1
174
1
140
1.0
141
1.0
175
1
  7

176
1
177
1
178
1
143
1.0
179
1
  8

270
1
271
1
272
1
145
1.0
146
1.0
273
1
  9

274
1
275
1
276
1
 42
1.0
 72
1
  3

 73
1
 74
1
 75
1
 94
63
  0
MLINESTYLE
  5
22
102
{ACAD_REACTORS
330
10
102
}
330
10
100
AcDbMlineStyle
  2
Standard
 70
0
  3

 62
256
 51
90.0
 52
90.0
 71
2
 49
0.5
 62
256
  6
BYLAYER
 49
-0.5
 62
256
  6
BYLAYER
  0
MLEADERSTYLE
  5
2C
102
{ACAD_REACTORS
330
F
102
}
330
F
100
AcDbMLeaderStyle
179
2
170
2
171
1
172
0
 90
2
 40
0.0
 41
0.0
173
1
 91
-1056964608
 92
-2
290
1
 42
2.0
291
1
 43
8.0
  3
Standard
 44
4.0
300

342
29
174
1
175
1
176
0
178
1
 93
-1056964608
 45
4.0
292
0
297
0
 46
4.0
 94
-1056964608
 47
1.0
 49
1.0
140
1.0
294
1
141
0.0
177
0
142
1.0
295
0
296
0
143
3.75
271
0
272
9
273
9
  0
DICTIONARY
  5
2D
330
A
100
AcDbDictionary
280
1
281
1
  3
CREATED_BY_EZDXF
350
2E
  3
WRITTEN_BY_EZDXF
350
37
  0
DICTIONARYVAR
  5
2E
330
2D
100
DictionaryVariables
280
0
  1
1.4.3 @ 2026-04-08T01:02:28.481722+00:00
  0
DICTIONARYVAR
  5
37
330
2D
100
DictionaryVariables
280
0
  1
1.4.3 @ 2026-04-08T01:02:28.482946+00:00
  0
ENDSEC
  0
EOF
