  0
SECTION
  2
HEADER
  9
$ACADVER
  1
AC1024
  9
$ACADMAINTVER
 70
6
  9
$DWGCODEPAGE
  3
ANSI_1252
  9
$LASTSAVEDBY
  1
ezdxf
  9
$INSBASE
 10
0.0
 20
0.0
 30
0.0
  9
$EXTMIN
 10
1e+20
 20
1e+20
 30
1e+20
  9
$EXTMAX
 10
-1e+20
 20
-1e+20
 30
-1e+20
  9
$LIMMIN
 10
0.0
 20
0.0
  9
$LIMMAX
 10
420.0
 20
297.0
  9
$ORTHOMODE
 70
0
  9
$REGENMODE
 70
1
  9
$FILLMODE
 70
1
  9
$QTEXTMODE
 70
0
  9
$MIRRTEXT
 70
1
  9
$LTSCALE
 40
1.0
  9
$ATTMODE
 70
1
  9
$TEXTSIZE
 40
2.5
  9
$TRACEWID
 40
1.0
  9
$TEXTSTYLE
  7
Standard
  9
$CLAYER
  8
0
  9
$CELTYPE
  6
ByLayer
  9
$CECOLOR
 62
256
  9
$CELTSCALE
 40
1.0
  9
$DISPSILH
 70
0
  9
$DIMSCALE
 40
1.0
  9
$DIMASZ
 40
2.5
  9
$DIMEXO
 40
0.625
  9
$DIMDLI
 40
3.75
  9
$DIMRND
 40
0.0
  9
$DIMDLE
 40
0.0
  9
$DIMEXE
 40
1.25
  9
$DIMTP
 40
0.0
  9
$DIMTM
 40
0.0
  9
$DIMTXT
 40
2.5
  9
$DIMCEN
 40
2.5
  9
$DIMTSZ
 40
0.0
  9
$DIMTOL
 70
0
  9
$DIMLIM
 70
0
  9
$DIMTIH
 70
0
  9
$DIMTOH
 70
0
  9
$DIMSE1
 70
0
  9
$DIMSE2
 70
0
  9
$DIMTAD
 70
1
  9
$DIMZIN
 70
8
  9
$DIMBLK
  1

  9
$DIMASO
 70
1
  9
$DIMSHO
 70
1
  9
$DIMPOST
  1

  9
$DIMAPOST
  1

  9
$DIMALT
 70
0
  9
$DIMALTD
 70
3
  9
$DIMALTF
 40
0.03937007874
  9
$DIMLFAC
 40
1.0
  9
$DIMTOFL
 70
1
  9
$DIMTVP
 40
0.0
  9
$DIMTIX
 70
0
  9
$DIMSOXD
 70
0
  9
$DIMSAH
 70
0
  9
$DIMBLK1
  1

  9
$DIMBLK2
  1

  9
$DIMSTYLE
  2
ISO-25
  9
$DIMCLRD
 70
0
  9
$DIMCLRE
 70
0
  9
$DIMCLRT
 70
0
  9
$DIMTFAC
 40
1.0
  9
$DIMGAP
 40
0.625
  9
$DIMJUST
 70
0
  9
$DIMSD1
 70
0
  9
$DIMSD2
 70
0
  9
$DIMTOLJ
 70
0
  9
$DIMTZIN
 70
8
  9
$DIMALTZ
 70
0
  9
$DIMALTTZ
 70
0
  9
$DIMUPT
 70
0
  9
$DIMDEC
 70
2
  9
$DIMTDEC
 70
2
  9
$DIMALTU
 70
2
  9
$DIMALTTD
 70
3
  9
$DIMTXSTY
  7
Standard
  9
$DIMAUNIT
 70
0
  9
$DIMADEC
 70
0
  9
$DIMALTRND
 40
0.0
  9
$DIMAZIN
 70
0
  9
$DIMDSEP
 70
44
  9
$DIMATFIT
 70
3
  9
$DIMFRAC
 70
0
  9
$DIMLDRBLK
  1

  9
$DIMLUNIT
 70
2
  9
$DIMLWD
 70
-2
  9
$DIMLWE
 70
-2
  9
$DIMTMOVE
 70
0
  9
$DIMFXL
 40
1.0
  9
$DIMFXLON
 70
0
  9
$DIMJOGANG
 40
0.785398163397
  9
$DIMTFILL
 70
0
  9
$DIMTFILLCLR
 70
0
  9
$DIMARCSYM
 70
0
  9
$DIMLTYPE
  6

  9
$DIMLTEX1
  6

  9
$DIMLTEX2
  6

  9
$DIMTXTDIRECTION
 70
0
  9
$LUNITS
 70
2
  9
$LUPREC
 70
4
  9
$SKETCHINC
 40
1.0
  9
$FILLETRAD
 40
10.0
  9
$AUNITS
 70
0
  9
$AUPREC
 70
2
  9
$MENU
  1
.
  9
$ELEVATION
 40
0.0
  9
$PELEVATION
 40
0.0
  9
$THICKNESS
 40
0.0
  9
$LIMCHECK
 70
0
  9
$CHAMFERA
 40
0.0
  9
$CHAMFERB
 40
0.0
  9
$CHAMFERC
 40
0.0
  9
$CHAMFERD
 40
0.0
  9
$SKPOLY
 70
0
  9
$TDCREATE
 40
2461140.6092708334
  9
$TDUCREATE
 40
2458532.153996898
  9
$TDUPDATE
 40
2461140.6092708334
  9
$TDUUPDATE
 40
2458532.1544311
  9
$TDINDWG
 40
0.0
  9
$TDUSRTIMER
 40
0.0
  9
$USRTIMER
 70
1
  9
$ANGBASE
 50
0.0
  9
$ANGDIR
 70
0
  9
$PDMODE
 70
0
  9
$PDSIZE
 40
0.0
  9
$PLINEWID
 40
0.0
  9
$SPLFRAME
 70
0
  9
$SPLINETYPE
 70
6
  9
$SPLINESEGS
 70
8
  9
$HANDSEED
  5
176
  9
$SURFTAB1
 70
6
  9
$SURFTAB2
 70
6
  9
$SURFTYPE
 70
6
  9
$SURFU
 70
6
  9
$SURFV
 70
6
  9
$UCSBASE
  2

  9
$UCSNAME
  2

  9
$UCSORG
 10
0.0
 20
0.0
 30
0.0
  9
$UCSXDIR
 10
1.0
 20
0.0
 30
0.0
  9
$UCSYDIR
 10
0.0
 20
1.0
 30
0.0
  9
$UCSORTHOREF
  2

  9
$UCSORTHOVIEW
 70
0
  9
$UCSORGTOP
 10
0.0
 20
0.0
 30
0.0
  9
$UCSORGBOTTOM
 10
0.0
 20
0.0
 30
0.0
  9
$UCSORGLEFT
 10
0.0
 20
0.0
 30
0.0
  9
$UCSORGRIGHT
 10
0.0
 20
0.0
 30
0.0
  9
$UCSORGFRONT
 10
0.0
 20
0.0
 30
0.0
  9
$UCSORGBACK
 10
0.0
 20
0.0
 30
0.0
  9
$PUCSBASE
  2

  9
$PUCSNAME
  2

  9
$PUCSORG
 10
0.0
 20
0.0
 30
0.0
  9
$PUCSXDIR
 10
1.0
 20
0.0
 30
0.0
  9
$PUCSYDIR
 10
0.0
 20
1.0
 30
0.0
  9
$PUCSORTHOREF
  2

  9
$PUCSORTHOVIEW
 70
0
  9
$PUCSORGTOP
 10
0.0
 20
0.0
 30
0.0
  9
$PUCSORGBOTTOM
 10
0.0
 20
0.0
 30
0.0
  9
$PUCSORGLEFT
 10
0.0
 20
0.0
 30
0.0
  9
$PUCSORGRIGHT
 10
0.0
 20
0.0
 30
0.0
  9
$PUCSORGFRONT
 10
0.0
 20
0.0
 30
0.0
  9
$PUCSORGBACK
 10
0.0
 20
0.0
 30
0.0
  9
$USERI1
 70
0
  9
$USERI2
 70
0
  9
$USERI3
 70
0
  9
$USERI4
 70
0
  9
$USERI5
 70
0
  9
$USERR1
 40
0.0
  9
$USERR2
 40
0.0
  9
$USERR3
 40
0.0
  9
$USERR4
 40
0.0
  9
$USERR5
 40
0.0
  9
$WORLDVIEW
 70
1
  9
$SHADEDGE
 70
3
  9
$SHADEDIF
 70
70
  9
$TILEMODE
 70
1
  9
$MAXACTVP
 70
64
  9
$PINSBASE
 10
0.0
 20
0.0
 30
0.0
  9
$PLIMCHECK
 70
0
  9
$PEXTMIN
 10
1e+20
 20
1e+20
 30
1e+20
  9
$PEXTMAX
 10
-1e+20
 20
-1e+20
 30
-1e+20
  9
$PLIMMIN
 10
0.0
 20
0.0
  9
$PLIMMAX
 10
420.0
 20
297.0
  9
$UNITMODE
 70
0
  9
$VISRETAIN
 70
1
  9
$PLINEGEN
 70
0
  9
$PSLTSCALE
 70
1
  9
$TREEDEPTH
 70
3020
  9
$CMLSTYLE
  2
Standard
  9
$CMLJUST
 70
0
  9
$CMLSCALE
 40
20.0
  9
$PROXYGRAPHICS
 70
1
  9
$MEASUREMENT
 70
1
  9
$CELWEIGHT
370
-1
  9
$ENDCAPS
280
0
  9
$JOINSTYLE
280
0
  9
$LWDISPLAY
290
0
  9
$INSUNITS
 70
4
  9
$HYPERLINKBASE
  1

  9
$STYLESHEET
  1

  9
$XEDIT
290
1
  9
$CEPSNTYPE
380
0
  9
$PSTYLEMODE
290
1
  9
$FINGERPRINTGUID
  2
{C0EB5DD2-23E2-4F88-8E78-54DDF2E9320C}
  9
$VERSIONGUID
  2
{DB9EE75C-B526-40CA-9731-0065CEDF54E0}
  9
$EXTNAMES
290
1
  9
$PSVPSCALE
 40
0.0
  9
$OLESTARTUP
290
0
  9
$SORTENTS
280
127
  9
$INDEXCTL
280
0
  9
$HIDETEXT
280
1
  9
$XCLIPFRAME
280
1
  9
$HALOGAP
280
0
  9
$OBSCOLOR
 70
257
  9
$OBSLTYPE
280
0
  9
$INTERSECTIONDISPLAY
280
0
  9
$INTERSECTIONCOLOR
 70
257
  9
$DIMASSOC
280
2
  9
$PROJECTNAME
  1

  9
$CAMERADISPLAY
290
0
  9
$LENSLENGTH
 40
50.0
  9
$CAMERAHEIGHT
 40
0.0
  9
$STEPSPERSEC
 40
24.0
  9
$STEPSIZE
 40
100.0
  9
$3DDWFPREC
 40
2.0
  9
$PSOLWIDTH
 40
0.005
  9
$PSOLHEIGHT
 40
0.08
  9
$LOFTANG1
 40
1.570796326795
  9
$LOFTANG2
 40
1.570796326795
  9
$LOFTMAG1
 40
0.0
  9
$LOFTMAG2
 40
0.0
  9
$LOFTPARAM
 70
7
  9
$LOFTNORMALS
280
1
  9
$LATITUDE
 40
37.795
  9
$LONGITUDE
 40
-122.394
  9
$NORTHDIRECTION
 40
0.0
  9
$TIMEZONE
 70
-8000
  9
$LIGHTGLYPHDISPLAY
280
1
  9
$TILEMODELIGHTSYNCH
280
1
  9
$CMATERIAL
347
20
  9
$SOLIDHIST
280
0
  9
$SHOWHIST
280
1
  9
$DWFFRAME
280
2
  9
$DGNFRAME
280
2
  9
$REALWORLDSCALE
290
1
  9
$INTERFERECOLOR
 62
256
  9
$CSHADOW
280
0
  9
$SHADOWPLANELOCATION
 40
0.0
  0
ENDSEC
  0
SECTION
  2
CLASSES
  0
CLASS
  1
ACDBDICTIONARYWDFLT
  2
AcDbDictionaryWithDefault
  3
ObjectDBX Classes
 90
0
 91
0
280
0
281
0
  0
CLASS
  1
SUN
  2
AcDbSun
  3
SCENEOE
 90
1153
 91
0
280
0
281
0
  0
CLASS
  1
VISUALSTYLE
  2
AcDbVisualStyle
  3
ObjectDBX Classes
 90
4095
 91
0
280
0
281
0
  0
CLASS
  1
MATERIAL
  2
AcDbMaterial
  3
ObjectDBX Classes
 90
1153
 91
0
280
0
281
0
  0
CLASS
  1
SCALE
  2
AcDbScale
  3
ObjectDBX Classes
 90
1153
 91
0
280
0
281
0
  0
CLASS
  1
TABLESTYLE
  2
AcDbTableStyle
  3
ObjectDBX Classes
 90
4095
 91
0
280
0
281
0
  0
CLASS
  1
MLEADERSTYLE
  2
AcDbMLeaderStyle
  3
ACDB_MLEADERSTYLE_CLASS
 90
4095
 91
0
280
0
281
0
  0
CLASS
  1
DICTIONARYVAR
  2
AcDbDictionaryVar
  3
ObjectDBX Classes
 90
0
 91
0
280
0
281
0
  0
CLASS
  1
CELLSTYLEMAP
  2
AcDbCellStyleMap
  3
ObjectDBX Classes
 90
1152
 91
0
280
0
281
0
  0
CLASS
  1
MENTALRAYRENDERSETTINGS
  2
AcDbMentalRayRenderSettings
  3
SCENEOE
 90
1024
 91
0
280
0
281
0
  0
CLASS
  1
ACDBDETAILVIEWSTYLE
  2
AcDbDetailViewStyle
  3
ObjectDBX Classes
 90
1025
 91
0
280
0
281
0
  0
CLASS
  1
ACDBSECTIONVIEWSTYLE
  2
AcDbSectionViewStyle
  3
ObjectDBX Classes
 90
1025
 91
0
280
0
281
0
  0
CLASS
  1
RASTERVARIABLES
  2
AcDbRasterVariables
  3
ISM
 90
0
 91
0
280
0
281
0
  0
CLASS
  1
LAYOUT
  2
AcDbLayout
  3
ObjectDBX Classes
 90
0
 91
0
280
0
281
0
  0
CLASS
  1
ACDBPLACEHOLDER
  2
AcDbPlaceHolder
  3
ObjectDBX Classes
 90
0
 91
0
280
0
281
0
  0
ENDSEC
  0
SECTION
  2
TABLES
  0
TABLE
  2
VPORT
  5
8
330
0
100
AcDbSymbolTable
 70
1
  0
VPORT
  5
23
330
8
100
AcDbSymbolTableRecord
100
AcDbViewportTableRecord
  2
*Active
 70
0
 10
0.0
 20
0.0
 11
1.0
 21
1.0
 12
0.0
 22
0.0
 13
0.0
 23
0.0
 14
0.5
 24
0.5
 15
0.5
 25
0.5
 16
0.0
 26
0.0
 36
1.0
 17
0.0
 27
0.0
 37
0.0
 40
1000.0
 41
1.34
 42
50.0
 43
0.0
 44
0.0
 50
0.0
 51
0.0
 71
0
 72
1000
 73
1
 74
3
 75
0
 76
0
 77
0
 78
0
281
0
 65
0
146
0.0
  0
ENDTAB
  0
TABLE
  2
LTYPE
  5
2
330
0
100
AcDbSymbolTable
 70
3
  0
LTYPE
  5
24
330
2
100
AcDbSymbolTableRecord
100
AcDbLinetypeTableRecord
  2
ByBlock
 70
0
  3

 72
65
 73
0
 40
0.0
  0
LTYPE
  5
25
330
2
100
AcDbSymbolTableRecord
100
AcDbLinetypeTableRecord
  2
ByLayer
 70
0
  3

 72
65
 73
0
 40
0.0
  0
LTYPE
  5
26
330
2
100
AcDbSymbolTableRecord
100
AcDbLinetypeTableRecord
  2
Continuous
 70
0
  3

 72
65
 73
0
 40
0.0
  0
ENDTAB
  0
TABLE
  2
LAYER
  5
1
330
0
100
AcDbSymbolTable
 70
2
  0
LAYER
  5
27
330
1
100
AcDbSymbolTableRecord
100
AcDbLayerTableRecord
  2
0
 70
0
 62
7
  6
Continuous
370
-3
390
13
347
21
  0
LAYER
  5
28
330
1
100
AcDbSymbolTableRecord
100
AcDbLayerTableRecord
  2
Defpoints
 70
0
 62
7
  6
Continuous
290
0
370
-3
390
13
347
21
  0
ENDTAB
  0
TABLE
  2
STYLE
  5
5
330
0
100
AcDbSymbolTable
 70
1
  0
STYLE
  5
29
330
5
100
AcDbSymbolTableRecord
100
AcDbTextStyleTableRecord
  2
Standard
 70
0
 40
0.0
 41
1.0
 50
0.0
 71
0
 42
2.5
  3
txt
  4

  0
ENDTAB
  0
TABLE
  2
VIEW
  5
7
330
0
100
AcDbSymbolTable
 70
0
  0
ENDTAB
  0
TABLE
  2
UCS
  5
6
330
0
100
AcDbSymbolTable
 70
0
  0
ENDTAB
  0
TABLE
  2
APPID
  5
3
330
0
100
AcDbSymbolTable
 70
3
  0
APPID
  5
2A
330
3
100
AcDbSymbolTableRecord
100
AcDbRegAppTableRecord
  2
ACAD
 70
0
  0
APPID
  5
173
330
3
100
AcDbSymbolTableRecord
100
AcDbRegAppTableRecord
  2
HATCHBACKGROUNDCOLOR
 70
0
  0
APPID
  5
174
330
3
100
AcDbSymbolTableRecord
100
AcDbRegAppTableRecord
  2
EZDXF
 70
0
  0
ENDTAB
  0
TABLE
  2
DIMSTYLE
  5
4
330
0
100
AcDbSymbolTable
 70
1
100
AcDbDimStyleTable
  0
DIMSTYLE
105
2B
330
4
100
AcDbSymbolTableRecord
100
AcDbDimStyleTableRecord
  2
Standard
 70
0
 40
1.0
 41
2.5
 42
0.625
 43
3.75
 44
1.25
 45
0.0
 46
0.0
 47
0.0
 48
0.0
 49
2.5
140
2.5
141
2.5
142
0.0
143
0.03937007874
144
1.0
145
0.0
146
1.0
147
0.625
148
0.0
 69
0
 70
0
 71
0
 72
0
 73
0
 74
0
 75
0
 76
0
 77
1
 78
8
 79
3
170
0
171
3
172
1
173
0
174
0
175
0
176
0
177
0
178
0
179
2
271
2
272
2
273
2
274
3
275
0
276
0
277
2
278
44
279
0
280
0
281
0
282
0
283
0
284
8
285
0
286
0
288
0
289
3
290
0
371
-2
372
-2
  0
ENDTAB
  0
TABLE
  2
BLOCK_RECORD
  5
9
330
0
100
AcDbSymbolTable
 70
3
  0
BLOCK_RECORD
  5
17
330
9
100
AcDbSymbolTableRecord
100
AcDbBlockTableRecord
  2
*Model_Space
340
1A
 70
0
280
1
281
0
  0
BLOCK_RECORD
  5
1B
330
9
100
AcDbSymbolTableRecord
100
AcDbBlockTableRecord
  2
*Paper_Space
340
1E
 70
0
280
1
281
0
  0
BLOCK_RECORD
  5
2F
330
9
100
AcDbSymbolTableRecord
100
AcDbBlockTableRecord
  2
HEX
340
0
 70
0
280
1
281
0
  0
ENDTAB
  0
ENDSEC
  0
SECTION
  2
BLOCKS
  0
BLOCK
  5
18
330
17
100
AcDbEntity
  8
0
100
AcDbBlockBegin
  2
*Model_Space
 70
0
 10
0.0
 20
0.0
 30
0.0
  3
*Model_Space
  1

  0
ENDBLK
  5
19
330
17
100
AcDbEntity
  8
0
100
AcDbBlockEnd
  0
BLOCK
  5
1C
330
1B
100
AcDbEntity
  8
0
100
AcDbBlockBegin
  2
*Paper_Space
 70
0
 10
0.0
 20
0.0
 30
0.0
  3
*Paper_Space
  1

  0
ENDBLK
  5
1D
330
1B
100
AcDbEntity
  8
0
100
AcDbBlockEnd
  0
BLOCK
  5
30
330
2F
100
AcDbEntity
  8
0
100
AcDbBlockBegin
  2
HEX
 70
0
 10
0.0
 20
0.0
 30
0.0
  3
HEX
  1

  0
LWPOLYLINE
  5
32
330
2F
100
AcDbEntity
  8
0
100
AcDbPolyline
 90
6
 70
1
 10
1.516
 20
0.875
 10
0.0
 20
1.75
 10
-1.516
 20
0.875
 10
-1.516
 20
-0.875
 10
-0.0
 20
-1.75
 10
1.516
 20
-0.875
  0
ENDBLK
  5
31
330
2F
100
AcDbEntity
  8
0
100
AcDbBlockEnd
  0
ENDSEC
  0
SECTION
  2
ENTITIES
  0
LWPOLYLINE
  5
33
330
17
100
AcDbEntity
  8
0
100
AcDbPolyline
 90
7
 70
1
 10
162.476
 20
-151.228
 10
161.879
 20
-151.148
 10
161.485
 20
-151.059
 10
161.109
 20
-150.932
 10
160.837
 20
-150.806
 10
161.291
 20
-150.544
 10
162.476
 20
-151.228
  0
LWPOLYLINE
  5
34
330
17
100
AcDbEntity
  8
0
100
AcDbPolyline
 90
5
 70
1
 10
166.288
 20
-151.39
 10
164.68
 20
-151.33
 10
163.536
 20
-151.286
 10
164.822
 20
-150.544
 10
166.288
 20
-151.39
  0
LWPOLYLINE
  5
35
330
17
100
AcDbEntity
  8
0
100
AcDbPolyline
 90
6
 70
1
 10
169.869
 20
-151.525
 10
167.884
 20
-151.451
 10
166.851
 20
-151.412
 10
168.353
 20
-150.544
 10
169.869
 20
-151.419
 10
169.869
 20
-151.525
  0
LWPOLYLINE
  5
36
330
17
100
AcDbEntity
  8
0
100
AcDbPolyline
 90
6
 70
1
 10
173.4
 20
-151.659
 10
170.369
 20
-151.544
 10
170.369
 20
-151.419
 10
171.884
 20
-150.544
 10
173.4
 20
-151.419
 10
173.4
 20
-151.659
  0
LWPOLYLINE
  5
37
330
17
100
AcDbEntity
  8
0
100
AcDbPolyline
 90
6
 70
1
 10
176.931
 20
-151.792
 10
173.9
 20
-151.678
 10
173.9
 20
-151.419
 10
175.415
 20
-150.544
 10
176.931
 20
-151.419
 10
176.931
 20
-151.792
  0
LWPOLYLINE
  5
38
330
17
100
AcDbEntity
  8
0
100
AcDbPolyline
 90
9
 70
1
 10
180.462
 20
-151.663
 10
179.867
 20
-151.788
 10
179.232
 20
-151.844
 10
178.522
 20
-151.849
 10
177.431
 20
-151.811
 10
177.431
 20
-151.419
 10
178.946
 20
-150.544
 10
180.462
 20
-151.419
 10
180.462
 20
-151.663
  0
LWPOLYLINE
  5
39
330
17
100
AcDbEntity
  8
0
100
AcDbPolyline
 90
5
 70
1
 10
181.766
 20
-150.955
 10
181.396
 20
-151.244
 10
180.962
 20
-151.481
 10
180.962
 20
-151.419
 10
181.766
 20
-150.955
  0
LWPOLYLINE
  5
3A
330
17
100
AcDbEntity
  8
0
100
AcDbPolyline
 90
12
 70
1
 10
160.377
 20
-150.494
 10
160.123
 20
-150.237
 10
159.902
 20
-149.922
 10
159.731
 20
-149.576
 10
159.608
 20
-149.207
 10
159.53
 20
-148.822
 10
159.494
 20
-148.352
 10
159.51
 20
-147.944
 10
159.571
 20
-147.513
 10
161.041
 20
-148.361
 10
161.041
 20
-150.111
 10
160.377
 20
-150.494
  0
INSERT
  5
3B
330
17
100
AcDbEntity
  8
0
100
AcDbBlockReference
  2
HEX
 10
163.056
 20
-149.236
 30
0.0
  0
INSERT
  5
3D
330
17
100
AcDbEntity
  8
0
100
AcDbBlockReference
  2
HEX
 10
166.587
 20
-149.236
 30
0.0
  0
INSERT
  5
3F
330
17
100
AcDbEntity
  8
0
100
AcDbBlockReference
  2
HEX
 10
170.119
 20
-149.236
 30
0.0
  0
INSERT
  5
41
330
17
100
AcDbEntity
  8
0
100
AcDbBlockReference
  2
HEX
 10
173.65
 20
-149.236
 30
0.0
  0
INSERT
  5
43
330
17
100
AcDbEntity
  8
0
100
AcDbBlockReference
  2
HEX
 10
177.181
 20
-149.236
 30
0.0
  0
INSERT
  5
45
330
17
100
AcDbEntity
  8
0
100
AcDbBlockReference
  2
HEX
 10
180.712
 20
-149.236
 30
0.0
  0
LWPOLYLINE
  5
47
330
17
100
AcDbEntity
  8
0
100
AcDbPolyline
 90
5
 70
1
 10
182.832
 20
-148.305
 10
182.74
 20
-148.701
 10
182.727
 20
-148.757
 10
182.727
 20
-148.361
 10
182.832
 20
-148.305
  0
LWPOLYLINE
  5
48
330
17
100
AcDbEntity
  8
0
100
AcDbPolyline
 90
9
 70
1
 10
159.777
 20
-146.7
 10
160.072
 20
-145.724
 10
160.242
 20
-145.034
 10
161.291
 20
-144.428
 10
162.806
 20
-145.303
 10
162.806
 20
-147.053
 10
161.291
 20
-147.928
 10
159.775
 20
-147.053
 10
159.777
 20
-146.7
  0
INSERT
  5
49
330
17
100
AcDbEntity
  8
0
100
AcDbBlockReference
  2
HEX
 10
164.822
 20
-146.178
 30
0.0
  0
INSERT
  5
4B
330
17
100
AcDbEntity
  8
0
100
AcDbBlockReference
  2
HEX
 10
168.353
 20
-146.178
 30
0.0
  0
INSERT
  5
4D
330
17
100
AcDbEntity
  8
0
100
AcDbBlockReference
  2
HEX
 10
171.884
 20
-146.178
 30
0.0
  0
INSERT
  5
4F
330
17
100
AcDbEntity
  8
0
100
AcDbBlockReference
  2
HEX
 10
175.415
 20
-146.178
 30
0.0
  0
INSERT
  5
51
330
17
100
AcDbEntity
  8
0
100
AcDbBlockReference
  2
HEX
 10
178.946
 20
-146.178
 30
0.0
  0
LWPOLYLINE
  5
53
330
17
100
AcDbEntity
  8
0
100
AcDbPolyline
 90
7
 70
1
 10
183.651
 20
-145.106
 10
182.987
 20
-147.634
 10
182.477
 20
-147.928
 10
180.962
 20
-147.053
 10
180.962
 20
-145.303
 10
182.477
 20
-144.428
 10
183.651
 20
-145.106
  0
LWPOLYLINE
  5
54
330
17
100
AcDbEntity
  8
0
100
AcDbPolyline
 90
6
 70
1
 10
160.392
 20
-144.37
 10
160.667
 20
-143.139
 10
160.896
 20
-142.162
 10
161.041
 20
-142.245
 10
161.041
 20
-143.995
 10
160.392
 20
-144.37
  0
INSERT
  5
55
330
17
100
AcDbEntity
  8
0
100
AcDbBlockReference
  2
HEX
 10
163.056
 20
-143.12
 30
0.0
  0
INSERT
  5
57
330
17
100
AcDbEntity
  8
0
100
AcDbBlockReference
  2
HEX
 10
166.587
 20
-143.12
 30
0.0
  0
INSERT
  5
59
330
17
100
AcDbEntity
  8
0
100
AcDbBlockReference
  2
HEX
 10
170.119
 20
-143.12
 30
0.0
  0
INSERT
  5
5B
330
17
100
AcDbEntity
  8
0
100
AcDbBlockReference
  2
HEX
 10
173.65
 20
-143.12
 30
0.0
  0
INSERT
  5
5D
330
17
100
AcDbEntity
  8
0
100
AcDbBlockReference
  2
HEX
 10
177.181
 20
-143.12
 30
0.0
  0
INSERT
  5
5F
330
17
100
AcDbEntity
  8
0
100
AcDbBlockReference
  2
HEX
 10
180.712
 20
-143.12
 30
0.0
  0
LWPOLYLINE
  5
61
330
17
100
AcDbEntity
  8
0
100
AcDbPolyline
 90
7
 70
1
 10
184.59
 20
-141.571
 10
183.808
 20
-144.516
 10
183.784
 20
-144.605
 10
182.727
 20
-143.995
 10
182.727
 20
-142.245
 10
184.243
 20
-141.37
 10
184.59
 20
-141.571
  0
LWPOLYLINE
  5
62
330
17
100
AcDbEntity
  8
0
100
AcDbPolyline
 90
7
 70
1
 10
161.018
 20
-141.654
 10
161.436
 20
-139.958
 10
161.784
 20
-138.597
 10
162.806
 20
-139.187
 10
162.806
 20
-140.937
 10
161.291
 20
-141.812
 10
161.018
 20
-141.654
  0
INSERT
  5
63
330
17
100
AcDbEntity
  8
0
100
AcDbBlockReference
  2
HEX
 10
164.822
 20
-140.062
 30
0.0
  0
INSERT
  5
65
330
17
100
AcDbEntity
  8
0
100
AcDbBlockReference
  2
HEX
 10
168.353
 20
-140.062
 30
0.0
  0
INSERT
  5
67
330
17
100
AcDbEntity
  8
0
100
AcDbBlockReference
  2
HEX
 10
171.884
 20
-140.062
 30
0.0
  0
INSERT
  5
69
330
17
100
AcDbEntity
  8
0
100
AcDbBlockReference
  2
HEX
 10
175.415
 20
-140.062
 30
0.0
  0
INSERT
  5
6B
330
17
100
AcDbEntity
  8
0
100
AcDbBlockReference
  2
HEX
 10
178.946
 20
-140.062
 30
0.0
  0
INSERT
  5
6D
330
17
100
AcDbEntity
  8
0
100
AcDbBlockReference
  2
HEX
 10
182.477
 20
-140.062
 30
0.0
  0
LWPOLYLINE
  5
6F
330
17
100
AcDbEntity
  8
0
100
AcDbPolyline
 90
6
 70
1
 10
185.356
 20
-138.689
 10
184.963
 20
-140.169
 10
184.723
 20
-141.07
 10
184.493
 20
-140.937
 10
184.493
 20
-139.187
 10
185.356
 20
-138.689
  0
LWPOLYLINE
  5
70
330
17
100
AcDbEntity
  8
0
100
AcDbPolyline
 90
7
 70
1
 10
161.915
 20
-138.095
 10
162.615
 20
-135.509
 10
163.056
 20
-135.254
 10
164.572
 20
-136.129
 10
164.572
 20
-137.879
 10
163.056
 20
-138.754
 10
161.915
 20
-138.095
  0
INSERT
  5
71
330
17
100
AcDbEntity
  8
0
100
AcDbBlockReference
  2
HEX
 10
166.587
 20
-137.004
 30
0.0
  0
INSERT
  5
73
330
17
100
AcDbEntity
  8
0
100
AcDbBlockReference
  2
HEX
 10
170.119
 20
-137.004
 30
0.0
  0
INSERT
  5
75
330
17
100
AcDbEntity
  8
0
100
AcDbBlockReference
  2
HEX
 10
173.65
 20
-137.004
 30
0.0
  0
INSERT
  5
77
330
17
100
AcDbEntity
  8
0
100
AcDbBlockReference
  2
HEX
 10
177.181
 20
-137.004
 30
0.0
  0
INSERT
  5
79
330
17
100
AcDbEntity
  8
0
100
AcDbBlockReference
  2
HEX
 10
180.712
 20
-137.004
 30
0.0
  0
LWPOLYLINE
  5
7B
330
17
100
AcDbEntity
  8
0
100
AcDbPolyline
 90
8
 70
1
 10
185.758
 20
-137.176
 10
185.538
 20
-138.007
 10
184.243
 20
-138.754
 10
182.727
 20
-137.879
 10
182.727
 20
-136.129
 10
184.243
 20
-135.254
 10
185.758
 20
-136.129
 10
185.758
 20
-137.176
  0
LWPOLYLINE
  5
7C
330
17
100
AcDbEntity
  8
0
100
AcDbPolyline
 90
7
 70
1
 10
163.314
 20
-133.066
 10
164.822
 20
-132.196
 10
166.337
 20
-133.071
 10
166.337
 20
-134.821
 10
164.822
 20
-135.696
 10
163.306
 20
-134.821
 10
163.314
 20
-133.066
  0
INSERT
  5
7D
330
17
100
AcDbEntity
  8
0
100
AcDbBlockReference
  2
HEX
 10
168.353
 20
-133.946
 30
0.0
  0
INSERT
  5
7F
330
17
100
AcDbEntity
  8
0
100
AcDbBlockReference
  2
HEX
 10
171.884
 20
-133.946
 30
0.0
  0
INSERT
  5
81
330
17
100
AcDbEntity
  8
0
100
AcDbBlockReference
  2
HEX
 10
175.415
 20
-133.946
 30
0.0
  0
INSERT
  5
83
330
17
100
AcDbEntity
  8
0
100
AcDbBlockReference
  2
HEX
 10
178.946
 20
-133.946
 30
0.0
  0
INSERT
  5
85
330
17
100
AcDbEntity
  8
0
100
AcDbBlockReference
  2
HEX
 10
182.477
 20
-133.946
 30
0.0
  0
LWPOLYLINE
  5
87
330
17
100
AcDbEntity
  8
0
100
AcDbPolyline
 90
7
 70
1
 10
186.931
 20
-132.729
 10
186.179
 20
-135.597
 10
186.008
 20
-135.696
 10
184.493
 20
-134.821
 10
184.493
 20
-133.071
 10
186.008
 20
-132.196
 10
186.931
 20
-132.729
  0
LWPOLYLINE
  5
88
330
17
100
AcDbEntity
  8
0
100
AcDbPolyline
 90
6
 70
1
 10
163.521
 20
-132.37
 10
163.898
 20
-131.124
 10
164.293
 20
-129.852
 10
164.572
 20
-130.013
 10
164.572
 20
-131.763
 10
163.521
 20
-132.37
  0
INSERT
  5
89
330
17
100
AcDbEntity
  8
0
100
AcDbBlockReference
  2
HEX
 10
166.587
 20
-130.888
 30
0.0
  0
INSERT
  5
8B
330
17
100
AcDbEntity
  8
0
100
AcDbBlockReference
  2
HEX
 10
170.119
 20
-130.888
 30
0.0
  0
INSERT
  5
8D
330
17
100
AcDbEntity
  8
0
100
AcDbBlockReference
  2
HEX
 10
173.65
 20
-130.888
 30
0.0
  0
INSERT
  5
8F
330
17
100
AcDbEntity
  8
0
100
AcDbBlockReference
  2
HEX
 10
177.181
 20
-130.888
 30
0.0
  0
INSERT
  5
91
330
17
100
AcDbEntity
  8
0
100
AcDbBlockReference
  2
HEX
 10
180.712
 20
-130.888
 30
0.0
  0
INSERT
  5
93
330
17
100
AcDbEntity
  8
0
100
AcDbBlockReference
  2
HEX
 10
184.243
 20
-130.888
 30
0.0
  0
LWPOLYLINE
  5
95
330
17
100
AcDbEntity
  8
0
100
AcDbPolyline
 90
7
 70
1
 10
187.825
 20
-129.167
 10
187.25
 20
-131.465
 10
187.059
 20
-132.225
 10
186.258
 20
-131.763
 10
186.258
 20
-130.013
 10
187.774
 20
-129.138
 10
187.825
 20
-129.167
  0
LWPOLYLINE
  5
96
330
17
100
AcDbEntity
  8
0
100
AcDbPolyline
 90
7
 70
1
 10
164.448
 20
-129.364
 10
164.964
 20
-127.766
 10
165.413
 20
-126.421
 10
166.337
 20
-126.955
 10
166.337
 20
-128.705
 10
164.822
 20
-129.58
 10
164.448
 20
-129.364
  0
INSERT
  5
97
330
17
100
AcDbEntity
  8
0
100
AcDbBlockReference
  2
HEX
 10
168.353
 20
-127.83
 30
0.0
  0
INSERT
  5
99
330
17
100
AcDbEntity
  8
0
100
AcDbBlockReference
  2
HEX
 10
171.884
 20
-127.83
 30
0.0
  0
INSERT
  5
9B
330
17
100
AcDbEntity
  8
0
100
AcDbBlockReference
  2
HEX
 10
175.415
 20
-127.83
 30
0.0
  0
INSERT
  5
9D
330
17
100
AcDbEntity
  8
0
100
AcDbBlockReference
  2
HEX
 10
178.946
 20
-127.83
 30
0.0
  0
INSERT
  5
9F
330
17
100
AcDbEntity
  8
0
100
AcDbBlockReference
  2
HEX
 10
182.477
 20
-127.83
 30
0.0
  0
INSERT
  5
A1
330
17
100
AcDbEntity
  8
0
100
AcDbBlockReference
  2
HEX
 10
186.008
 20
-127.83
 30
0.0
  0
LWPOLYLINE
  5
A3
330
17
100
AcDbEntity
  8
0
100
AcDbPolyline
 90
5
 70
1
 10
188.453
 20
-126.708
 10
188.25
 20
-127.49
 10
188.024
 20
-128.379
 10
188.024
 20
-126.955
 10
188.453
 20
-126.708
  0
LWPOLYLINE
  5
A4
330
17
100
AcDbEntity
  8
0
100
AcDbPolyline
 90
6
 70
1
 10
165.576
 20
-125.938
 10
166.598
 20
-123.028
 10
168.103
 20
-123.897
 10
168.103
 20
-125.647
 10
166.587
 20
-126.522
 10
165.576
 20
-125.938
  0
INSERT
  5
A5
330
17
100
AcDbEntity
  8
0
100
AcDbBlockReference
  2
HEX
 10
170.119
 20
-124.772
 30
0.0
  0
INSERT
  5
A7
330
17
100
AcDbEntity
  8
0
100
AcDbBlockReference
  2
HEX
 10
173.65
 20
-124.772
 30
0.0
  0
INSERT
  5
A9
330
17
100
AcDbEntity
  8
0
100
AcDbBlockReference
  2
HEX
 10
177.181
 20
-124.772
 30
0.0
  0
INSERT
  5
AB
330
17
100
AcDbEntity
  8
0
100
AcDbBlockReference
  2
HEX
 10
180.712
 20
-124.772
 30
0.0
  0
INSERT
  5
AD
330
17
100
AcDbEntity
  8
0
100
AcDbBlockReference
  2
HEX
 10
184.243
 20
-124.772
 30
0.0
  0
LWPOLYLINE
  5
AF
330
17
100
AcDbEntity
  8
0
100
AcDbPolyline
 90
7
 70
1
 10
189.217
 20
-123.855
 10
188.631
 20
-126.027
 10
187.774
 20
-126.522
 10
186.258
 20
-125.647
 10
186.258
 20
-123.897
 10
187.774
 20
-123.022
 10
189.217
 20
-123.855
  0
LWPOLYLINE
  5
B0
330
17
100
AcDbEntity
  8
0
100
AcDbPolyline
 90
8
 70
1
 10
166.837
 20
-122.369
 10
167.563
 20
-120.42
 10
168.353
 20
-119.964
 10
169.869
 20
-120.839
 10
169.869
 20
-122.589
 10
168.353
 20
-123.464
 10
166.837
 20
-122.589
 10
166.837
 20
-122.369
  0
INSERT
  5
B1
330
17
100
AcDbEntity
  8
0
100
AcDbBlockReference
  2
HEX
 10
171.884
 20
-121.714
 30
0.0
  0
INSERT
  5
B3
330
17
100
AcDbEntity
  8
0
100
AcDbBlockReference
  2
HEX
 10
175.415
 20
-121.714
 30
0.0
  0
INSERT
  5
B5
330
17
100
AcDbEntity
  8
0
100
AcDbBlockReference
  2
HEX
 10
178.946
 20
-121.714
 30
0.0
  0
INSERT
  5
B7
330
17
100
AcDbEntity
  8
0
100
AcDbBlockReference
  2
HEX
 10
182.477
 20
-121.714
 30
0.0
  0
INSERT
  5
B9
330
17
100
AcDbEntity
  8
0
100
AcDbBlockReference
  2
HEX
 10
186.008
 20
-121.714
 30
0.0
  0
LWPOLYLINE
  5
BB
330
17
100
AcDbEntity
  8
0
100
AcDbPolyline
 90
7
 70
1
 10
190.167
 20
-120.326
 10
189.888
 20
-121.369
 10
189.352
 20
-123.356
 10
188.024
 20
-122.589
 10
188.024
 20
-120.839
 10
189.54
 20
-119.964
 10
190.167
 20
-120.326
  0
LWPOLYLINE
  5
BC
330
17
100
AcDbEntity
  8
0
100
AcDbPolyline
 90
5
 70
1
 10
167.846
 20
-119.679
 10
168.017
 20
-119.236
 10
168.103
 20
-119.015
 10
168.103
 20
-119.531
 10
167.846
 20
-119.679
  0
INSERT
  5
BD
330
17
100
AcDbEntity
  8
0
100
AcDbBlockReference
  2
HEX
 10
170.119
 20
-118.656
 30
0.0
  0
INSERT
  5
BF
330
17
100
AcDbEntity
  8
0
100
AcDbBlockReference
  2
HEX
 10
173.65
 20
-118.656
 30
0.0
  0
INSERT
  5
C1
330
17
100
AcDbEntity
  8
0
100
AcDbBlockReference
  2
HEX
 10
177.181
 20
-118.656
 30
0.0
  0
INSERT
  5
C3
330
17
100
AcDbEntity
  8
0
100
AcDbBlockReference
  2
HEX
 10
180.712
 20
-118.656
 30
0.0
  0
INSERT
  5
C5
330
17
100
AcDbEntity
  8
0
100
AcDbBlockReference
  2
HEX
 10
184.243
 20
-118.656
 30
0.0
  0
INSERT
  5
C7
330
17
100
AcDbEntity
  8
0
100
AcDbBlockReference
  2
HEX
 10
187.774
 20
-118.656
 30
0.0
  0
LWPOLYLINE
  5
C9
330
17
100
AcDbEntity
  8
0
100
AcDbPolyline
 90
6
 70
1
 10
191.038
 20
-117.06
 10
190.619
 20
-118.636
 10
190.301
 20
-119.826
 10
189.79
 20
-119.531
 10
189.79
 20
-117.781
 10
191.038
 20
-117.06
  0
LWPOLYLINE
  5
CA
330
17
100
AcDbEntity
  8
0
100
AcDbPolyline
 90
6
 70
1
 10
168.886
 20
-117.04
 10
169.515
 20
-115.497
 10
169.835
 20
-114.704
 10
169.869
 20
-114.723
 10
169.869
 20
-116.473
 10
168.886
 20
-117.04
  0
INSERT
  5
CB
330
17
100
AcDbEntity
  8
0
100
AcDbBlockReference
  2
HEX
 10
171.884
 20
-115.598
 30
0.0
  0
INSERT
  5
CD
330
17
100
AcDbEntity
  8
0
100
AcDbBlockReference
  2
HEX
 10
175.415
 20
-115.598
 30
0.0
  0
INSERT
  5
CF
330
17
100
AcDbEntity
  8
0
100
AcDbBlockReference
  2
HEX
 10
178.946
 20
-115.598
 30
0.0
  0
INSERT
  5
D1
330
17
100
AcDbEntity
  8
0
100
AcDbBlockReference
  2
HEX
 10
182.477
 20
-115.598
 30
0.0
  0
INSERT
  5
D3
330
17
100
AcDbEntity
  8
0
100
AcDbBlockReference
  2
HEX
 10
186.008
 20
-115.598
 30
0.0
  0
INSERT
  5
D5
330
17
100
AcDbEntity
  8
0
100
AcDbBlockReference
  2
HEX
 10
189.54
 20
-115.598
 30
0.0
  0
LWPOLYLINE
  5
D7
330
17
100
AcDbEntity
  8
0
100
AcDbPolyline
 90
4
 70
1
 10
191.672
 20
-114.656
 10
191.555
 20
-115.099
 10
191.555
 20
-114.723
 10
191.672
 20
-114.656
  0
LWPOLYLINE
  5
D8
330
17
100
AcDbEntity
  8
0
100
AcDbPolyline
 90
7
 70
1
 10
170.023
 20
-114.235
 10
170.602
 20
-112.767
 10
171.137
 20
-111.378
 10
171.634
 20
-111.665
 10
171.634
 20
-113.415
 10
170.119
 20
-114.29
 10
170.023
 20
-114.235
  0
INSERT
  5
D9
330
17
100
AcDbEntity
  8
0
100
AcDbBlockReference
  2
HEX
 10
173.65
 20
-112.54
 30
0.0
  0
INSERT
  5
DB
330
17
100
AcDbEntity
  8
0
100
AcDbBlockReference
  2
HEX
 10
177.181
 20
-112.54
 30
0.0
  0
INSERT
  5
DD
330
17
100
AcDbEntity
  8
0
100
AcDbBlockReference
  2
HEX
 10
180.712
 20
-112.54
 30
0.0
  0
INSERT
  5
DF
330
17
100
AcDbEntity
  8
0
100
AcDbBlockReference
  2
HEX
 10
184.243
 20
-112.54
 30
0.0
  0
INSERT
  5
E1
330
17
100
AcDbEntity
  8
0
100
AcDbBlockReference
  2
HEX
 10
187.774
 20
-112.54
 30
0.0
  0
LWPOLYLINE
  5
E3
330
17
100
AcDbEntity
  8
0
100
AcDbPolyline
 90
7
 70
1
 10
192.498
 20
-111.479
 10
191.85
 20
-113.976
 10
191.305
 20
-114.29
 10
189.79
 20
-113.415
 10
189.79
 20
-111.665
 10
191.305
 20
-110.79
 10
192.498
 20
-111.479
  0
LWPOLYLINE
  5
E4
330
17
100
AcDbEntity
  8
0
100
AcDbPolyline
 90
7
 70
1
 10
171.317
 20
-110.904
 10
171.976
 20
-109.114
 10
172.346
 20
-107.998
 10
173.4
 20
-108.607
 10
173.4
 20
-110.357
 10
171.884
 20
-111.232
 10
171.317
 20
-110.904
  0
INSERT
  5
E5
330
17
100
AcDbEntity
  8
0
100
AcDbBlockReference
  2
HEX
 10
175.415
 20
-109.482
 30
0.0
  0
INSERT
  5
E7
330
17
100
AcDbEntity
  8
0
100
AcDbBlockReference
  2
HEX
 10
178.946
 20
-109.482
 30
0.0
  0
INSERT
  5
E9
330
17
100
AcDbEntity
  8
0
100
AcDbBlockReference
  2
HEX
 10
182.477
 20
-109.482
 30
0.0
  0
INSERT
  5
EB
330
17
100
AcDbEntity
  8
0
100
AcDbBlockReference
  2
HEX
 10
186.008
 20
-109.482
 30
0.0
  0
INSERT
  5
ED
330
17
100
AcDbEntity
  8
0
100
AcDbBlockReference
  2
HEX
 10
189.54
 20
-109.482
 30
0.0
  0
LWPOLYLINE
  5
EF
330
17
100
AcDbEntity
  8
0
100
AcDbPolyline
 90
7
 70
1
 10
193.406
 20
-107.926
 10
193.047
 20
-109.341
 10
192.628
 20
-110.976
 10
191.555
 20
-110.357
 10
191.555
 20
-108.607
 10
193.071
 20
-107.732
 10
193.406
 20
-107.926
  0
LWPOLYLINE
  5
F0
330
17
100
AcDbEntity
  8
0
100
AcDbPolyline
 90
10
 70
1
 10
172.494
 20
-107.496
 10
172.674
 20
-106.801
 10
172.777
 20
-106.334
 10
172.904
 20
-105.623
 10
172.977
 20
-105.063
 10
173.65
 20
-104.674
 10
175.165
 20
-105.549
 10
175.165
 20
-107.299
 10
173.65
 20
-108.174
 10
172.494
 20
-107.496
  0
INSERT
  5
F1
330
17
100
AcDbEntity
  8
0
100
AcDbBlockReference
  2
HEX
 10
177.181
 20
-106.424
 30
0.0
  0
INSERT
  5
F3
330
17
100
AcDbEntity
  8
0
100
AcDbBlockReference
  2
HEX
 10
180.712
 20
-106.424
 30
0.0
  0
INSERT
  5
F5
330
17
100
AcDbEntity
  8
0
100
AcDbBlockReference
  2
HEX
 10
184.243
 20
-106.424
 30
0.0
  0
INSERT
  5
F7
330
17
100
AcDbEntity
  8
0
100
AcDbBlockReference
  2
HEX
 10
187.774
 20
-106.424
 30
0.0
  0
INSERT
  5
F9
330
17
100
AcDbEntity
  8
0
100
AcDbBlockReference
  2
HEX
 10
191.305
 20
-106.424
 30
0.0
  0
LWPOLYLINE
  5
FB
330
17
100
AcDbEntity
  8
0
100
AcDbPolyline
 90
6
 70
1
 10
194.118
 20
-105.089
 10
193.749
 20
-106.564
 10
193.534
 20
-107.422
 10
193.321
 20
-107.299
 10
193.321
 20
-105.549
 10
194.118
 20
-105.089
  0
LWPOLYLINE
  5
FC
330
17
100
AcDbEntity
  8
0
100
AcDbPolyline
 90
8
 70
1
 10
173.028
 20
-104.456
 10
173.05
 20
-103.632
 10
173.037
 20
-103.104
 10
173.008
 20
-102.673
 10
172.949
 20
-102.231
 10
173.4
 20
-102.491
 10
173.4
 20
-104.241
 10
173.028
 20
-104.456
  0
INSERT
  5
FD
330
17
100
AcDbEntity
  8
0
100
AcDbBlockReference
  2
HEX
 10
175.415
 20
-103.366
 30
0.0
  0
INSERT
  5
FF
330
17
100
AcDbEntity
  8
0
100
AcDbBlockReference
  2
HEX
 10
178.946
 20
-103.366
 30
0.0
  0
INSERT
  5
101
330
17
100
AcDbEntity
  8
0
100
AcDbBlockReference
  2
HEX
 10
182.477
 20
-103.366
 30
0.0
  0
INSERT
  5
103
330
17
100
AcDbEntity
  8
0
100
AcDbBlockReference
  2
HEX
 10
186.008
 20
-103.366
 30
0.0
  0
INSERT
  5
105
330
17
100
AcDbEntity
  8
0
100
AcDbBlockReference
  2
HEX
 10
189.54
 20
-103.366
 30
0.0
  0
LWPOLYLINE
  5
107
330
17
100
AcDbEntity
  8
0
100
AcDbPolyline
 90
8
 70
1
 10
194.586
 20
-103.188
 10
194.284
 20
-104.415
 10
193.071
 20
-105.116
 10
191.555
 20
-104.241
 10
191.555
 20
-102.491
 10
193.071
 20
-101.616
 10
194.586
 20
-102.491
 10
194.586
 20
-103.188
  0
LWPOLYLINE
  5
108
330
17
100
AcDbEntity
  8
0
100
AcDbPolyline
 90
7
 70
1
 10
196.835
 20
-101.751
 10
196.487
 20
-102.087
 10
196.21
 20
-102.421
 10
196.101
 20
-102.462
 10
196.361
 20
-101.755
 10
196.602
 20
-101.616
 10
196.835
 20
-101.751
  0
LWPOLYLINE
  5
109
330
17
100
AcDbEntity
  8
0
100
AcDbPolyline
 90
11
 70
1
 10
172.821
 20
-101.579
 10
172.69
 20
-101.052
 10
172.521
 20
-100.484
 10
172.373
 20
-100.06
 10
172.134
 20
-99.476
 10
172.134
 20
-99.433
 10
173.65
 20
-98.558
 10
175.165
 20
-99.433
 10
175.165
 20
-101.183
 10
173.65
 20
-102.058
 10
172.821
 20
-101.579
  0
INSERT
  5
10A
330
17
100
AcDbEntity
  8
0
100
AcDbBlockReference
  2
HEX
 10
177.181
 20
-100.308
 30
0.0
  0
INSERT
  5
10C
330
17
100
AcDbEntity
  8
0
100
AcDbBlockReference
  2
HEX
 10
180.712
 20
-100.308
 30
0.0
  0
INSERT
  5
10E
330
17
100
AcDbEntity
  8
0
100
AcDbBlockReference
  2
HEX
 10
184.243
 20
-100.308
 30
0.0
  0
INSERT
  5
110
330
17
100
AcDbEntity
  8
0
100
AcDbBlockReference
  2
HEX
 10
187.774
 20
-100.308
 30
0.0
  0
INSERT
  5
112
330
17
100
AcDbEntity
  8
0
100
AcDbBlockReference
  2
HEX
 10
191.305
 20
-100.308
 30
0.0
  0
LWPOLYLINE
  5
114
330
17
100
AcDbEntity
  8
0
100
AcDbPolyline
 90
7
 70
1
 10
195.673
 20
-99.041
 10
194.875
 20
-102.036
 10
194.836
 20
-102.058
 10
193.321
 20
-101.183
 10
193.321
 20
-99.433
 10
194.836
 20
-98.558
 10
195.673
 20
-99.041
  0
LWPOLYLINE
  5
115
330
17
100
AcDbEntity
  8
0
100
AcDbPolyline
 90
14
 70
1
 10
199.883
 20
-100.64
 10
199.446
 20
-100.672
 10
199.078
 20
-100.724
 10
198.712
 20
-100.801
 10
198.439
 20
-100.879
 10
198.165
 20
-100.974
 10
197.798
 20
-101.131
 10
197.271
 20
-101.425
 10
196.852
 20
-101.183
 10
196.852
 20
-100.171
 10
197.062
 20
-99.311
 10
198.367
 20
-98.558
 10
199.883
 20
-99.433
 10
199.883
 20
-100.64
  0
LWPOLYLINE
  5
116
330
17
100
AcDbEntity
  8
0
100
AcDbPolyline
 90
5
 70
1
 10
200.739
 20
-99.227
 10
200.484
 20
-100.638
 10
200.383
 20
-100.636
 10
200.383
 20
-99.433
 10
200.739
 20
-99.227
  0
LWPOLYLINE
  5
117
330
17
100
AcDbEntity
  8
0
100
AcDbPolyline
 90
10
 70
1
 10
171.914
 20
-98.983
 10
171.574
 20
-98.325
 10
171.2
 20
-97.704
 10
170.787
 20
-97.11
 10
170.369
 20
-96.584
 10
170.369
 20
-96.375
 10
171.884
 20
-95.5
 10
173.4
 20
-96.375
 10
173.4
 20
-98.125
 10
171.914
 20
-98.983
  0
INSERT
  5
118
330
17
100
AcDbEntity
  8
0
100
AcDbBlockReference
  2
HEX
 10
175.415
 20
-97.25
 30
0.0
  0
INSERT
  5
11A
330
17
100
AcDbEntity
  8
0
100
AcDbBlockReference
  2
HEX
 10
178.946
 20
-97.25
 30
0.0
  0
INSERT
  5
11C
330
17
100
AcDbEntity
  8
0
100
AcDbBlockReference
  2
HEX
 10
182.477
 20
-97.25
 30
0.0
  0
INSERT
  5
11E
330
17
100
AcDbEntity
  8
0
100
AcDbBlockReference
  2
HEX
 10
186.008
 20
-97.25
 30
0.0
  0
INSERT
  5
120
330
17
100
AcDbEntity
  8
0
100
AcDbBlockReference
  2
HEX
 10
189.54
 20
-97.25
 30
0.0
  0
INSERT
  5
122
330
17
100
AcDbEntity
  8
0
100
AcDbBlockReference
  2
HEX
 10
193.071
 20
-97.25
 30
0.0
  0
LWPOLYLINE
  5
124
330
17
100
AcDbEntity
  8
0
100
AcDbPolyline
 90
6
 70
1
 10
196.602
 20
-95.5
 10
196.222
 20
-96.997
 10
195.808
 20
-98.542
 10
195.086
 20
-98.125
 10
195.086
 20
-96.375
 10
196.602
 20
-95.5
  0
LWPOLYLINE
  5
125
330
17
100
AcDbEntity
  8
0
100
AcDbPolyline
 90
6
 70
1
 10
197.227
 20
-98.639
 10
197.331
 20
-98.211
 10
197.822
 20
-96.204
 10
198.117
 20
-96.375
 10
198.117
 20
-98.125
 10
197.227
 20
-98.639
  0
LWPOLYLINE
  5
126
330
17
100
AcDbEntity
  8
0
100
AcDbPolyline
 90
7
 70
1
 10
201.371
 20
-96.215
 10
200.865
 20
-98.577
 10
200.133
 20
-99.0
 10
198.617
 20
-98.125
 10
198.617
 20
-96.375
 10
200.133
 20
-95.5
 10
201.371
 20
-96.215
  0
LWPOLYLINE
  5
127
330
17
100
AcDbEntity
  8
0
100
AcDbPolyline
 90
5
 70
1
 10
168.103
 20
-93.845
 10
167.876
 20
-93.435
 10
167.724
 20
-93.098
 10
168.103
 20
-93.317
 10
168.103
 20
-93.845
  0
LWPOLYLINE
  5
128
330
17
100
AcDbEntity
  8
0
100
AcDbPolyline
 90
5
 70
1
 10
166.266
 20
-92.628
 10
166.381
 20
-92.932
 10
166.522
 20
-93.214
 10
165.754
 20
-92.923
 10
166.266
 20
-92.628
  0
LWPOLYLINE
  5
129
330
17
100
AcDbEntity
  8
0
100
AcDbPolyline
 90
9
 70
1
 10
169.441
 20
-95.551
 10
168.991
 20
-95.039
 10
168.603
 20
-94.565
 10
168.603
 20
-93.317
 10
170.119
 20
-92.442
 10
171.634
 20
-93.317
 10
171.634
 20
-95.067
 10
170.119
 20
-95.942
 10
169.441
 20
-95.551
  0
INSERT
  5
12A
330
17
100
AcDbEntity
  8
0
100
AcDbBlockReference
  2
HEX
 10
173.65
 20
-94.192
 30
0.0
  0
INSERT
  5
12C
330
17
100
AcDbEntity
  8
0
100
AcDbBlockReference
  2
HEX
 10
177.181
 20
-94.192
 30
0.0
  0
INSERT
  5
12E
330
17
100
AcDbEntity
  8
0
100
AcDbBlockReference
  2
HEX
 10
180.712
 20
-94.192
 30
0.0
  0
INSERT
  5
130
330
17
100
AcDbEntity
  8
0
100
AcDbBlockReference
  2
HEX
 10
184.243
 20
-94.192
 30
0.0
  0
INSERT
  5
132
330
17
100
AcDbEntity
  8
0
100
AcDbBlockReference
  2
HEX
 10
187.774
 20
-94.192
 30
0.0
  0
INSERT
  5
134
330
17
100
AcDbEntity
  8
0
100
AcDbBlockReference
  2
HEX
 10
191.305
 20
-94.192
 30
0.0
  0
INSERT
  5
136
330
17
100
AcDbEntity
  8
0
100
AcDbBlockReference
  2
HEX
 10
194.836
 20
-94.192
 30
0.0
  0
LWPOLYLINE
  5
138
330
17
100
AcDbEntity
  8
0
100
AcDbPolyline
 90
5
 70
1
 10
197.166
 20
-93.135
 10
196.947
 20
-94.111
 10
196.852
 20
-94.513
 10
196.852
 20
-93.317
 10
197.166
 20
-93.135
  0
LWPOLYLINE
  5
139
330
17
100
AcDbEntity
  8
0
100
AcDbPolyline
 90
7
 70
1
 10
197.946
 20
-95.698
 10
198.253
 20
-94.439
 10
198.698
 20
-92.633
 10
199.883
 20
-93.317
 10
199.883
 20
-95.067
 10
198.367
 20
-95.942
 10
197.946
 20
-95.698
  0
LWPOLYLINE
  5
13A
330
17
100
AcDbEntity
  8
0
100
AcDbPolyline
 90
7
 70
1
 10
202.27
 20
-92.657
 10
201.786
 20
-94.488
 10
201.489
 20
-95.706
 10
200.383
 20
-95.067
 10
200.383
 20
-93.317
 10
201.898
 20
-92.442
 10
202.27
 20
-92.657
  0
LWPOLYLINE
  5
13B
330
17
100
AcDbEntity
  8
0
100
AcDbPolyline
 90
11
 70
1
 10
162.806
 20
-91.808
 10
161.435
 20
-91.282
 10
161.138
 20
-91.132
 10
160.926
 20
-90.988
 10
160.718
 20
-90.787
 10
160.545
 20
-90.526
 10
160.427
 20
-90.235
 10
160.362
 20
-89.92
 10
161.291
 20
-89.384
 10
162.806
 20
-90.259
 10
162.806
 20
-91.808
  0
LWPOLYLINE
  5
13C
330
17
100
AcDbEntity
  8
0
100
AcDbPolyline
 90
10
 70
1
 10
166.014
 20
-91.202
 10
166.137
 20
-92.125
 10
165.15
 20
-92.695
 10
163.306
 20
-91.997
 10
163.306
 20
-90.259
 10
164.822
 20
-89.384
 10
166.069
 20
-90.104
 10
166.029
 20
-90.38
 10
166.002
 20
-90.788
 10
166.014
 20
-91.202
  0
LWPOLYLINE
  5
13D
330
17
100
AcDbEntity
  8
0
100
AcDbPolyline
 90
13
 70
1
 10
167.504
 20
-92.393
 10
167.425
 20
-91.951
 10
167.39
 20
-91.527
 10
167.403
 20
-90.838
 10
167.435
 20
-90.46
 10
167.469
 20
-90.281
 10
167.543
 20
-90.051
 10
167.66
 20
-89.784
 10
168.353
 20
-89.384
 10
169.869
 20
-90.259
 10
169.869
 20
-92.009
 10
168.353
 20
-92.884
 10
167.504
 20
-92.393
  0
INSERT
  5
13E
330
17
100
AcDbEntity
  8
0
100
AcDbBlockReference
  2
HEX
 10
171.884
 20
-91.134
 30
0.0
  0
INSERT
  5
140
330
17
100
AcDbEntity
  8
0
100
AcDbBlockReference
  2
HEX
 10
175.415
 20
-91.134
 30
0.0
  0
INSERT
  5
142
330
17
100
AcDbEntity
  8
0
100
AcDbBlockReference
  2
HEX
 10
178.946
 20
-91.134
 30
0.0
  0
INSERT
  5
144
330
17
100
AcDbEntity
  8
0
100
AcDbBlockReference
  2
HEX
 10
182.477
 20
-91.134
 30
0.0
  0
INSERT
  5
146
330
17
100
AcDbEntity
  8
0
100
AcDbBlockReference
  2
HEX
 10
186.008
 20
-91.134
 30
0.0
  0
INSERT
  5
148
330
17
100
AcDbEntity
  8
0
100
AcDbBlockReference
  2
HEX
 10
189.54
 20
-91.134
 30
0.0
  0
INSERT
  5
14A
330
17
100
AcDbEntity
  8
0
100
AcDbBlockReference
  2
HEX
 10
193.071
 20
-91.134
 30
0.0
  0
LWPOLYLINE
  5
14C
330
17
100
AcDbEntity
  8
0
100
AcDbPolyline
 90
10
 70
1
 10
197.535
 20
-89.923
 10
197.57
 20
-90.714
 10
197.54
 20
-91.148
 10
197.477
 20
-91.588
 10
197.304
 20
-92.479
 10
196.602
 20
-92.884
 10
195.086
 20
-92.009
 10
195.086
 20
-90.259
 10
196.602
 20
-89.384
 10
197.535
 20
-89.923
  0
LWPOLYLINE
  5
14D
330
17
100
AcDbEntity
  8
0
100
AcDbPolyline
 90
8
 70
1
 10
198.822
 20
-92.127
 10
199.286
 20
-90.294
 10
199.394
 20
-89.81
 10
200.133
 20
-89.384
 10
201.648
 20
-90.259
 10
201.648
 20
-92.009
 10
200.133
 20
-92.884
 10
198.822
 20
-92.127
  0
LWPOLYLINE
  5
14E
330
17
100
AcDbEntity
  8
0
100
AcDbPolyline
 90
6
 70
1
 10
203.156
 20
-89.677
 10
202.762
 20
-90.952
 10
202.41
 20
-92.16
 10
202.148
 20
-92.009
 10
202.148
 20
-90.259
 10
203.156
 20
-89.677
  0
LWPOLYLINE
  5
14F
330
17
100
AcDbEntity
  8
0
100
AcDbPolyline
 90
7
 70
1
 10
160.367
 20
-89.337
 10
160.441
 20
-88.976
 10
160.573
 20
-88.575
 10
160.741
 20
-88.186
 10
161.041
 20
-87.582
 10
161.041
 20
-88.951
 10
160.367
 20
-89.337
  0
INSERT
  5
150
330
17
100
AcDbEntity
  8
0
100
AcDbBlockReference
  2
HEX
 10
163.056
 20
-88.076
 30
0.0
  0
LWPOLYLINE
  5
152
330
17
100
AcDbEntity
  8
0
100
AcDbPolyline
 90
13
 70
1
 10
167.958
 20
-87.117
 10
167.546
 20
-87.48
 10
167.239
 20
-87.795
 10
167.052
 20
-88.014
 10
166.798
 20
-88.355
 10
166.647
 20
-88.591
 10
166.449
 20
-88.954
 10
166.286
 20
-89.33
 10
166.193
 20
-89.598
 10
165.072
 20
-88.951
 10
165.072
 20
-87.201
 10
166.587
 20
-86.326
 10
167.958
 20
-87.117
  0
LWPOLYLINE
  5
153
330
17
100
AcDbEntity
  8
0
100
AcDbPolyline
 90
13
 70
1
 10
168.603
 20
-88.456
 10
168.94
 20
-88.128
 10
169.208
 20
-87.902
 10
169.633
 20
-87.595
 10
169.931
 20
-87.412
 10
170.239
 20
-87.248
 10
170.718
 20
-87.039
 10
171.119
 20
-86.904
 10
171.634
 20
-87.201
 10
171.634
 20
-88.951
 10
170.119
 20
-89.826
 10
168.603
 20
-88.951
 10
168.603
 20
-88.456
  0
LWPOLYLINE
  5
154
330
17
100
AcDbEntity
  8
0
100
AcDbPolyline
 90
8
 70
1
 10
173.04
 20
-86.678
 10
174.248
 20
-86.671
 10
175.165
 20
-87.201
 10
175.165
 20
-88.951
 10
173.65
 20
-89.826
 10
172.134
 20
-88.951
 10
172.134
 20
-87.201
 10
173.04
 20
-86.678
  0
LWPOLYLINE
  5
155
330
17
100
AcDbEntity
  8
0
100
AcDbPolyline
 90
8
 70
1
 10
176.593
 20
-86.665
 10
177.77
 20
-86.666
 10
178.696
 20
-87.201
 10
178.696
 20
-88.951
 10
177.181
 20
-89.826
 10
175.665
 20
-88.951
 10
175.665
 20
-87.201
 10
176.593
 20
-86.665
  0
LWPOLYLINE
  5
156
330
17
100
AcDbEntity
  8
0
100
AcDbPolyline
 90
8
 70
1
 10
180.107
 20
-86.675
 10
181.332
 20
-86.684
 10
182.227
 20
-87.201
 10
182.227
 20
-88.951
 10
180.712
 20
-89.826
 10
179.196
 20
-88.951
 10
179.196
 20
-87.201
 10
180.107
 20
-86.675
  0
LWPOLYLINE
  5
157
330
17
100
AcDbEntity
  8
0
100
AcDbPolyline
 90
8
 70
1
 10
183.579
 20
-86.709
 10
184.94
 20
-86.729
 10
185.758
 20
-87.201
 10
185.758
 20
-88.951
 10
184.243
 20
-89.826
 10
182.727
 20
-88.951
 10
182.727
 20
-87.201
 10
183.579
 20
-86.709
  0
LWPOLYLINE
  5
158
330
17
100
AcDbEntity
  8
0
100
AcDbPolyline
 90
8
 70
1
 10
187.017
 20
-86.763
 10
188.581
 20
-86.792
 10
189.29
 20
-87.201
 10
189.29
 20
-88.951
 10
187.774
 20
-89.826
 10
186.258
 20
-88.951
 10
186.258
 20
-87.201
 10
187.017
 20
-86.763
  0
LWPOLYLINE
  5
159
330
17
100
AcDbEntity
  8
0
100
AcDbPolyline
 90
8
 70
1
 10
190.437
 20
-86.827
 10
192.234
 20
-86.862
 10
192.821
 20
-87.201
 10
192.821
 20
-88.951
 10
191.305
 20
-89.826
 10
189.79
 20
-88.951
 10
189.79
 20
-87.201
 10
190.437
 20
-86.827
  0
LWPOLYLINE
  5
15A
330
17
100
AcDbEntity
  8
0
100
AcDbPolyline
 90
12
 70
1
 10
195.254
 20
-86.949
 10
195.587
 20
-87.031
 10
195.896
 20
-87.16
 10
196.183
 20
-87.331
 10
196.352
 20
-87.462
 10
196.352
 20
-88.951
 10
194.836
 20
-89.826
 10
193.321
 20
-88.951
 10
193.321
 20
-87.201
 10
193.853
 20
-86.894
 10
194.895
 20
-86.914
 10
195.254
 20
-86.949
  0
LWPOLYLINE
  5
15B
330
17
100
AcDbEntity
  8
0
100
AcDbPolyline
 90
6
 70
1
 10
196.852
 20
-88.012
 10
197.161
 20
-88.551
 10
197.303
 20
-88.902
 10
197.417
 20
-89.277
 10
196.852
 20
-88.951
 10
196.852
 20
-88.012
  0
LWPOLYLINE
  5
15C
330
17
100
AcDbEntity
  8
0
100
AcDbPolyline
 90
16
 70
1
 10
198.831
 20
-86.964
 10
198.572
 20
-86.697
 10
198.211
 20
-86.416
 10
198.367
 20
-86.326
 10
199.883
 20
-87.201
 10
199.883
 20
-88.951
 10
199.486
 20
-89.18
 10
199.503
 20
-88.831
 10
199.493
 20
-88.568
 10
199.437
 20
-88.177
 10
199.369
 20
-87.919
 10
199.274
 20
-87.662
 10
199.148
 20
-87.407
 10
198.989
 20
-87.156
 10
198.987
 20
-87.166
 10
198.831
 20
-86.964
  0
LWPOLYLINE
  5
15D
330
17
100
AcDbEntity
  8
0
100
AcDbPolyline
 90
8
 70
1
 10
203.414
 20
-88.881
 10
203.385
 20
-88.967
 10
201.898
 20
-89.826
 10
200.383
 20
-88.951
 10
200.383
 20
-87.201
 10
201.898
 20
-86.326
 10
203.414
 20
-87.201
 10
203.414
 20
-88.881
  0
LWPOLYLINE
  5
15E
330
17
100
AcDbEntity
  8
0
100
AcDbPolyline
 90
4
 70
1
 10
203.914
 20
-87.411
 10
203.914
 20
-87.201
 10
204.007
 20
-87.147
 10
203.914
 20
-87.411
  0
LWPOLYLINE
  5
15F
330
17
100
AcDbEntity
  8
0
100
AcDbPolyline
 90
12
 70
1
 10
231.663
 20
-88.249
 10
231.29
 20
-88.212
 10
230.939
 20
-88.14
 10
230.602
 20
-88.035
 10
230.28
 20
-87.899
 10
229.974
 20
-87.733
 10
229.688
 20
-87.54
 10
229.422
 20
-87.32
 10
229.068
 20
-86.949
 10
230.147
 20
-86.326
 10
231.663
 20
-87.201
 10
231.663
 20
-88.249
  0
LWPOLYLINE
  5
160
330
17
100
AcDbEntity
  8
0
100
AcDbPolyline
 90
12
 70
1
 10
234.654
 20
-86.889
 10
234.377
 20
-87.201
 10
234.122
 20
-87.433
 10
233.846
 20
-87.64
 10
233.55
 20
-87.82
 10
233.236
 20
-87.971
 10
232.906
 20
-88.092
 10
232.561
 20
-88.18
 10
232.163
 20
-88.238
 10
232.163
 20
-87.201
 10
233.678
 20
-86.326
 10
234.654
 20
-86.889
  0
LWPOLYLINE
  5
161
330
17
100
AcDbEntity
  8
0
100
AcDbPolyline
 90
5
 70
1
 10
161.8
 20
-86.474
 10
162.006
 20
-86.304
 10
162.179
 20
-86.197
 10
162.498
 20
-86.071
 10
161.8
 20
-86.474
  0
LWPOLYLINE
  5
162
330
17
100
AcDbEntity
  8
0
100
AcDbPolyline
 90
5
 70
1
 10
163.573
 20
-86.047
 10
165.41
 20
-86.208
 10
165.755
 20
-86.229
 10
164.822
 20
-86.768
 10
163.573
 20
-86.047
  0
LWPOLYLINE
  5
163
330
17
100
AcDbEntity
  8
0
100
AcDbPolyline
 90
9
 70
1
 10
166.884
 20
-85.919
 10
167.029
 20
-85.771
 10
167.131
 20
-85.614
 10
167.197
 20
-85.442
 10
167.218
 20
-85.257
 10
169.869
 20
-85.424
 10
169.869
 20
-85.893
 10
168.353
 20
-86.768
 10
166.884
 20
-85.919
  0
LWPOLYLINE
  5
164
330
17
100
AcDbEntity
  8
0
100
AcDbPolyline
 90
4
 70
1
 10
171.839
 20
-86.742
 10
171.958
 20
-86.725
 10
171.884
 20
-86.768
 10
171.839
 20
-86.742
  0
LWPOLYLINE
  5
165
330
17
100
AcDbEntity
  8
0
100
AcDbPolyline
 90
7
 70
1
 10
170.369
 20
-85.455
 10
170.965
 20
-85.471
 10
171.15
 20
-85.494
 10
171.292
 20
-85.53
 10
171.24
 20
-85.613
 10
170.369
 20
-85.846
 10
170.369
 20
-85.455
  0
LWPOLYLINE
  5
166
330
17
100
AcDbEntity
  8
0
100
AcDbPolyline
 90
4
 70
1
 10
175.59
 20
-86.667
 10
175.415
 20
-86.768
 10
175.242
 20
-86.668
 10
175.59
 20
-86.667
  0
LWPOLYLINE
  5
167
330
17
100
AcDbEntity
  8
0
100
AcDbPolyline
 90
4
 70
1
 10
178.774
 20
-86.668
 10
179.116
 20
-86.67
 10
178.946
 20
-86.768
 10
178.774
 20
-86.668
  0
LWPOLYLINE
  5
168
330
17
100
AcDbEntity
  8
0
100
AcDbPolyline
 90
4
 70
1
 10
182.601
 20
-86.697
 10
182.477
 20
-86.768
 10
182.349
 20
-86.694
 10
182.601
 20
-86.697
  0
LWPOLYLINE
  5
169
330
17
100
AcDbEntity
  8
0
100
AcDbPolyline
 90
6
 70
1
 10
194.583
 20
-85.211
 10
192.614
 20
-84.761
 10
191.932
 20
-84.578
 10
191.555
 20
-84.517
 10
194.586
 20
-84.517
 10
194.583
 20
-85.211
  0
LWPOLYLINE
  5
16A
330
17
100
AcDbEntity
  8
0
100
AcDbPolyline
 90
8
 70
1
 10
197.704
 20
-86.131
 10
197.202
 20
-85.925
 10
196.73
 20
-85.773
 10
195.086
 20
-85.337
 10
195.086
 20
-84.517
 10
198.117
 20
-84.517
 10
198.117
 20
-85.893
 10
197.704
 20
-86.131
  0
LWPOLYLINE
  5
16B
330
17
100
AcDbEntity
  8
0
100
AcDbPolyline
 90
6
 70
1
 10
198.617
 20
-84.517
 10
201.648
 20
-84.517
 10
201.648
 20
-85.893
 10
200.133
 20
-86.768
 10
198.617
 20
-85.893
 10
198.617
 20
-84.517
  0
LWPOLYLINE
  5
16C
330
17
100
AcDbEntity
  8
0
100
AcDbPolyline
 90
6
 70
1
 10
202.148
 20
-84.517
 10
204.991
 20
-84.517
 10
204.269
 20
-86.418
 10
203.664
 20
-86.768
 10
202.148
 20
-85.893
 10
202.148
 20
-84.517
  0
LWPOLYLINE
  5
16D
330
17
100
AcDbEntity
  8
0
100
AcDbPolyline
 90
12
 70
1
 10
228.776
 20
-86.54
 10
228.527
 20
-86.059
 10
228.406
 20
-85.729
 10
228.318
 20
-85.385
 10
228.263
 20
-85.028
 10
228.249
 20
-84.476
 10
228.286
 20
-84.114
 10
228.358
 20
-83.763
 10
228.498
 20
-83.335
 10
229.897
 20
-84.143
 10
229.897
 20
-85.893
 10
228.776
 20
-86.54
  0
INSERT
  5
16E
330
17
100
AcDbEntity
  8
0
100
AcDbBlockReference
  2
HEX
 10
231.913
 20
-85.018
 30
0.0
  0
LWPOLYLINE
  5
170
330
17
100
AcDbEntity
  8
0
100
AcDbPolyline
 90
11
 70
1
 10
235.357
 20
-85.385
 10
235.212
 20
-85.896
 10
235.075
 20
-86.218
 10
234.937
 20
-86.475
 10
233.928
 20
-85.893
 10
233.928
 20
-84.143
 10
235.204
 20
-83.406
 10
235.317
 20
-83.763
 10
235.411
 20
-84.293
 10
235.425
 20
-84.846
 10
235.357
 20
-85.385
  0
LWPOLYLINE
  5
171
330
17
100
AcDbEntity
  8
0
100
AcDbPolyline
 90
13
 70
1
 10
228.716
 20
-82.883
 10
228.958
 20
-82.511
 10
229.297
 20
-82.12
 10
229.688
 20
-81.782
 10
229.974
 20
-81.588
 10
230.439
 20
-81.351
 10
230.769
 20
-81.23
 10
231.29
 20
-81.11
 10
231.643
 20
-81.074
 10
231.663
 20
-81.085
 10
231.663
 20
-82.835
 10
230.147
 20
-83.71
 10
228.716
 20
-82.883
  0
LWPOLYLINE
  5
172
330
17
100
AcDbEntity
  8
0
100
AcDbPolyline
 90
12
 70
1
 10
232.163
 20
-81.085
 10
232.561
 20
-81.141
 10
233.072
 20
-81.286
 10
233.395
 20
-81.422
 10
233.846
 20
-81.682
 10
234.122
 20
-81.889
 10
234.496
 20
-82.245
 10
234.716
 20
-82.511
 10
234.996
 20
-82.949
 10
233.678
 20
-83.71
 10
232.163
 20
-82.835
 10
232.163
 20
-81.085
  0
ENDSEC
  0
SECTION
  2
OBJECTS
  0
DICTIONARY
  5
A
330
0
100
AcDbDictionary
281
1
  3
ACAD_COLOR
350
B
  3
ACAD_GROUP
350
C
  3
ACAD_LAYOUT
350
D
  3
ACAD_MATERIAL
350
E
  3
ACAD_MLEADERSTYLE
350
F
  3
ACAD_MLINESTYLE
350
10
  3
ACAD_PLOTSETTINGS
350
11
  3
ACAD_PLOTSTYLENAME
350
12
  3
ACAD_SCALELIST
350
14
  3
ACAD_TABLESTYLE
350
15
  3
ACAD_VISUALSTYLE
350
16
  3
EZDXF_META
350
2D
  0
DICTIONARY
  5
B
330
A
100
AcDbDictionary
281
1
  0
DICTIONARY
  5
C
330
A
100
AcDbDictionary
281
1
  0
DICTIONARY
  5
D
330
A
100
AcDbDictionary
281
1
  3
Model
350
1A
  3
Layout1
350
1E
  0
DICTIONARY
  5
E
330
A
100
AcDbDictionary
281
1
  3
ByBlock
350
1F
  3
ByLayer
350
20
  3
Global
350
21
  0
DICTIONARY
  5
F
330
A
100
AcDbDictionary
281
1
  3
Standard
350
2C
  0
DICTIONARY
  5
10
330
A
100
AcDbDictionary
281
1
  3
Standard
350
22
  0
DICTIONARY
  5
11
330
A
100
AcDbDictionary
281
1
  0
ACDBDICTIONARYWDFLT
  5
12
330
A
100
AcDbDictionary
281
1
  3
Normal
350
13
100
AcDbDictionaryWithDefault
340
13
  0
ACDBPLACEHOLDER
  5
13
330
12
  0
DICTIONARY
  5
14
330
A
100
AcDbDictionary
281
1
  0
DICTIONARY
  5
15
330
A
100
AcDbDictionary
281
1
  0
DICTIONARY
  5
16
330
A
100
AcDbDictionary
281
1
  0
LAYOUT
  5
1A
330
D
100
AcDbPlotSettings
  1

  4
A3
  6

 40
7.5
 41
20.0
 42
7.5
 43
20.0
 44
420.0
 45
297.0
 46
0.0
 47
0.0
 48
0.0
 49
0.0
140
0.0
141
0.0
142
1.0
143
1.0
 70
1024
 72
1
 73
0
 74
5
  7

 75
16
 76
0
 77
2
 78
300
147
1.0
148
0.0
149
0.0
100
AcDbLayout
  1
Model
 70
1
 71
0
 10
0.0
 20
0.0
 11
420.0
 21
297.0
 12
0.0
 22
0.0
 32
0.0
 14
1e+20
 24
1e+20
 34
1e+20
 15
-1e+20
 25
-1e+20
 35
-1e+20
146
0.0
 13
0.0
 23
0.0
 33
0.0
 16
1.0
 26
0.0
 36
0.0
 17
0.0
 27
1.0
 37
0.0
 76
1
330
17
  0
LAYOUT
  5
1E
330
D
100
AcDbPlotSettings
  1

  4
A3
  6

 40
7.5
 41
20.0
 42
7.5
 43
20.0
 44
420.0
 45
297.0
 46
0.0
 47
0.0
 48
0.0
 49
0.0
140
0.0
141
0.0
142
1.0
143
1.0
 70
0
 72
1
 73
0
 74
5
  7

 75
16
 76
0
 77
2
 78
300
147
1.0
148
0.0
149
0.0
100
AcDbLayout
  1
Layout1
 70
1
 71
1
 10
0.0
 20
0.0
 11
420.0
 21
297.0
 12
0.0
 22
0.0
 32
0.0
 14
1e+20
 24
1e+20
 34
1e+20
 15
-1e+20
 25
-1e+20
 35
-1e+20
146
0.0
 13
0.0
 23
0.0
 33
0.0
 16
1.0
 26
0.0
 36
0.0
 17
0.0
 27
1.0
 37
0.0
 76
1
330
1B
  0
MATERIAL
  5
1F
102
{ACAD_REACTORS
330
E
102
}
330
E
100
AcDbMaterial
  1
ByBlock
  2

 70
0
 40
1.0
 71
1
 41
1.0
 91
-1023410177
 42
1.0
 72
1
  3

 73
1
 74
1
 75
1
 44
0.5
 73
0
 45
1.0
 46
1.0
 77
1
  4

 78
1
 79
1
170
1
 48
1.0
171
1
  6

172
1
173
1
174
1
140
1.0
141
1.0
175
1
  7

176
1
177
1
178
1
143
1.0
179
1
  8

270
1
271
1
272
1
145
1.0
146
1.0
273
1
  9

274
1
275
1
276
1
 42
1.0
 72
1
  3

 73
1
 74
1
 75
1
 94
63
  0
MATERIAL
  5
20
102
{ACAD_REACTORS
330
E
102
}
330
E
100
AcDbMaterial
  1
ByLayer
  2

 70
0
 40
1.0
 71
1
 41
1.0
 91
-1023410177
 42
1.0
 72
1
  3

 73
1
 74
1
 75
1
 44
0.5
 73
0
 45
1.0
 46
1.0
 77
1
  4

 78
1
 79
1
170
1
 48
1.0
171
1
  6

172
1
173
1
174
1
140
1.0
141
1.0
175
1
  7

176
1
177
1
178
1
143
1.0
179
1
  8

270
1
271
1
272
1
145
1.0
146
1.0
273
1
  9

274
1
275
1
276
1
 42
1.0
 72
1
  3

 73
1
 74
1
 75
1
 94
63
  0
MATERIAL
  5
21
102
{ACAD_REACTORS
330
E
102
}
330
E
100
AcDbMaterial
  1
Global
  2

 70
0
 40
1.0
 71
1
 41
1.0
 91
-1023410177
 42
1.0
 72
1
  3

 73
1
 74
1
 75
1
 44
0.5
 73
0
 45
1.0
 46
1.0
 77
1
  4

 78
1
 79
1
170
1
 48
1.0
171
1
  6

172
1
173
1
174
1
140
1.0
141
1.0
175
1
  7

176
1
177
1
178
1
143
1.0
179
1
  8

270
1
271
1
272
1
145
1.0
146
1.0
273
1
  9

274
1
275
1
276
1
 42
1.0
 72
1
  3

 73
1
 74
1
 75
1
 94
63
  0
MLINESTYLE
  5
22
102
{ACAD_REACTORS
330
10
102
}
330
10
100
AcDbMlineStyle
  2
Standard
 70
0
  3

 62
256
 51
90.0
 52
90.0
 71
2
 49
0.5
 62
256
  6
BYLAYER
 49
-0.5
 62
256
  6
BYLAYER
  0
MLEADERSTYLE
  5
2C
102
{ACAD_REACTORS
330
F
102
}
330
F
100
AcDbMLeaderStyle
179
2
170
2
171
1
172
0
 90
2
 40
0.0
 41
0.0
173
1
 91
-1056964608
 92
-2
290
1
 42
2.0
291
1
 43
8.0
  3
Standard
 44
4.0
300

342
29
174
1
175
1
176
0
178
1
 93
-1056964608
 45
4.0
292
0
297
0
 46
4.0
 94
-1056964608
 47
1.0
 49
1.0
140
1.0
294
1
141
0.0
177
0
142
1.0
295
0
296
0
143
3.75
271
0
272
9
273
9
  0
DICTIONARY
  5
2D
330
A
100
AcDbDictionary
280
1
281
1
  3
CREATED_BY_EZDXF
350
2E
  3
WRITTEN_BY_EZDXF
350
175
  0
DICTIONARYVAR
  5
2E
330
2D
100
DictionaryVariables
280
0
  1
1.4.3 @ 2026-04-09T21:37:21.138940+00:00
  0
DICTIONARYVAR
  5
175
330
2D
100
DictionaryVariables
280
0
  1
1.4.3 @ 2026-04-09T21:37:21.156940+00:00
  0
ENDSEC
  0
EOF
