  0
SECTION
  2
HEADER
  9
$ACADVER
  1
AC1024
  9
$ACADMAINTVER
 70
6
  9
$DWGCODEPAGE
  3
ANSI_1252
  9
$LASTSAVEDBY
  1
ezdxf
  9
$INSBASE
 10
0.0
 20
0.0
 30
0.0
  9
$EXTMIN
 10
1e+20
 20
1e+20
 30
1e+20
  9
$EXTMAX
 10
-1e+20
 20
-1e+20
 30
-1e+20
  9
$LIMMIN
 10
0.0
 20
0.0
  9
$LIMMAX
 10
420.0
 20
297.0
  9
$ORTHOMODE
 70
0
  9
$REGENMODE
 70
1
  9
$FILLMODE
 70
1
  9
$QTEXTMODE
 70
0
  9
$MIRRTEXT
 70
1
  9
$LTSCALE
 40
1.0
  9
$ATTMODE
 70
1
  9
$TEXTSIZE
 40
2.5
  9
$TRACEWID
 40
1.0
  9
$TEXTSTYLE
  7
Standard
  9
$CLAYER
  8
0
  9
$CELTYPE
  6
ByLayer
  9
$CECOLOR
 62
256
  9
$CELTSCALE
 40
1.0
  9
$DISPSILH
 70
0
  9
$DIMSCALE
 40
1.0
  9
$DIMASZ
 40
2.5
  9
$DIMEXO
 40
0.625
  9
$DIMDLI
 40
3.75
  9
$DIMRND
 40
0.0
  9
$DIMDLE
 40
0.0
  9
$DIMEXE
 40
1.25
  9
$DIMTP
 40
0.0
  9
$DIMTM
 40
0.0
  9
$DIMTXT
 40
2.5
  9
$DIMCEN
 40
2.5
  9
$DIMTSZ
 40
0.0
  9
$DIMTOL
 70
0
  9
$DIMLIM
 70
0
  9
$DIMTIH
 70
0
  9
$DIMTOH
 70
0
  9
$DIMSE1
 70
0
  9
$DIMSE2
 70
0
  9
$DIMTAD
 70
1
  9
$DIMZIN
 70
8
  9
$DIMBLK
  1

  9
$DIMASO
 70
1
  9
$DIMSHO
 70
1
  9
$DIMPOST
  1

  9
$DIMAPOST
  1

  9
$DIMALT
 70
0
  9
$DIMALTD
 70
3
  9
$DIMALTF
 40
0.03937007874
  9
$DIMLFAC
 40
1.0
  9
$DIMTOFL
 70
1
  9
$DIMTVP
 40
0.0
  9
$DIMTIX
 70
0
  9
$DIMSOXD
 70
0
  9
$DIMSAH
 70
0
  9
$DIMBLK1
  1

  9
$DIMBLK2
  1

  9
$DIMSTYLE
  2
ISO-25
  9
$DIMCLRD
 70
0
  9
$DIMCLRE
 70
0
  9
$DIMCLRT
 70
0
  9
$DIMTFAC
 40
1.0
  9
$DIMGAP
 40
0.625
  9
$DIMJUST
 70
0
  9
$DIMSD1
 70
0
  9
$DIMSD2
 70
0
  9
$DIMTOLJ
 70
0
  9
$DIMTZIN
 70
8
  9
$DIMALTZ
 70
0
  9
$DIMALTTZ
 70
0
  9
$DIMUPT
 70
0
  9
$DIMDEC
 70
2
  9
$DIMTDEC
 70
2
  9
$DIMALTU
 70
2
  9
$DIMALTTD
 70
3
  9
$DIMTXSTY
  7
Standard
  9
$DIMAUNIT
 70
0
  9
$DIMADEC
 70
0
  9
$DIMALTRND
 40
0.0
  9
$DIMAZIN
 70
0
  9
$DIMDSEP
 70
44
  9
$DIMATFIT
 70
3
  9
$DIMFRAC
 70
0
  9
$DIMLDRBLK
  1

  9
$DIMLUNIT
 70
2
  9
$DIMLWD
 70
-2
  9
$DIMLWE
 70
-2
  9
$DIMTMOVE
 70
0
  9
$DIMFXL
 40
1.0
  9
$DIMFXLON
 70
0
  9
$DIMJOGANG
 40
0.785398163397
  9
$DIMTFILL
 70
0
  9
$DIMTFILLCLR
 70
0
  9
$DIMARCSYM
 70
0
  9
$DIMLTYPE
  6

  9
$DIMLTEX1
  6

  9
$DIMLTEX2
  6

  9
$DIMTXTDIRECTION
 70
0
  9
$LUNITS
 70
2
  9
$LUPREC
 70
4
  9
$SKETCHINC
 40
1.0
  9
$FILLETRAD
 40
10.0
  9
$AUNITS
 70
0
  9
$AUPREC
 70
2
  9
$MENU
  1
.
  9
$ELEVATION
 40
0.0
  9
$PELEVATION
 40
0.0
  9
$THICKNESS
 40
0.0
  9
$LIMCHECK
 70
0
  9
$CHAMFERA
 40
0.0
  9
$CHAMFERB
 40
0.0
  9
$CHAMFERC
 40
0.0
  9
$CHAMFERD
 40
0.0
  9
$SKPOLY
 70
0
  9
$TDCREATE
 40
2461138.721076389
  9
$TDUCREATE
 40
2458532.153996898
  9
$TDUPDATE
 40
2461138.721076389
  9
$TDUUPDATE
 40
2458532.1544311
  9
$TDINDWG
 40
0.0
  9
$TDUSRTIMER
 40
0.0
  9
$USRTIMER
 70
1
  9
$ANGBASE
 50
0.0
  9
$ANGDIR
 70
0
  9
$PDMODE
 70
0
  9
$PDSIZE
 40
0.0
  9
$PLINEWID
 40
0.0
  9
$SPLFRAME
 70
0
  9
$SPLINETYPE
 70
6
  9
$SPLINESEGS
 70
8
  9
$HANDSEED
  5
203
  9
$SURFTAB1
 70
6
  9
$SURFTAB2
 70
6
  9
$SURFTYPE
 70
6
  9
$SURFU
 70
6
  9
$SURFV
 70
6
  9
$UCSBASE
  2

  9
$UCSNAME
  2

  9
$UCSORG
 10
0.0
 20
0.0
 30
0.0
  9
$UCSXDIR
 10
1.0
 20
0.0
 30
0.0
  9
$UCSYDIR
 10
0.0
 20
1.0
 30
0.0
  9
$UCSORTHOREF
  2

  9
$UCSORTHOVIEW
 70
0
  9
$UCSORGTOP
 10
0.0
 20
0.0
 30
0.0
  9
$UCSORGBOTTOM
 10
0.0
 20
0.0
 30
0.0
  9
$UCSORGLEFT
 10
0.0
 20
0.0
 30
0.0
  9
$UCSORGRIGHT
 10
0.0
 20
0.0
 30
0.0
  9
$UCSORGFRONT
 10
0.0
 20
0.0
 30
0.0
  9
$UCSORGBACK
 10
0.0
 20
0.0
 30
0.0
  9
$PUCSBASE
  2

  9
$PUCSNAME
  2

  9
$PUCSORG
 10
0.0
 20
0.0
 30
0.0
  9
$PUCSXDIR
 10
1.0
 20
0.0
 30
0.0
  9
$PUCSYDIR
 10
0.0
 20
1.0
 30
0.0
  9
$PUCSORTHOREF
  2

  9
$PUCSORTHOVIEW
 70
0
  9
$PUCSORGTOP
 10
0.0
 20
0.0
 30
0.0
  9
$PUCSORGBOTTOM
 10
0.0
 20
0.0
 30
0.0
  9
$PUCSORGLEFT
 10
0.0
 20
0.0
 30
0.0
  9
$PUCSORGRIGHT
 10
0.0
 20
0.0
 30
0.0
  9
$PUCSORGFRONT
 10
0.0
 20
0.0
 30
0.0
  9
$PUCSORGBACK
 10
0.0
 20
0.0
 30
0.0
  9
$USERI1
 70
0
  9
$USERI2
 70
0
  9
$USERI3
 70
0
  9
$USERI4
 70
0
  9
$USERI5
 70
0
  9
$USERR1
 40
0.0
  9
$USERR2
 40
0.0
  9
$USERR3
 40
0.0
  9
$USERR4
 40
0.0
  9
$USERR5
 40
0.0
  9
$WORLDVIEW
 70
1
  9
$SHADEDGE
 70
3
  9
$SHADEDIF
 70
70
  9
$TILEMODE
 70
1
  9
$MAXACTVP
 70
64
  9
$PINSBASE
 10
0.0
 20
0.0
 30
0.0
  9
$PLIMCHECK
 70
0
  9
$PEXTMIN
 10
1e+20
 20
1e+20
 30
1e+20
  9
$PEXTMAX
 10
-1e+20
 20
-1e+20
 30
-1e+20
  9
$PLIMMIN
 10
0.0
 20
0.0
  9
$PLIMMAX
 10
420.0
 20
297.0
  9
$UNITMODE
 70
0
  9
$VISRETAIN
 70
1
  9
$PLINEGEN
 70
0
  9
$PSLTSCALE
 70
1
  9
$TREEDEPTH
 70
3020
  9
$CMLSTYLE
  2
Standard
  9
$CMLJUST
 70
0
  9
$CMLSCALE
 40
20.0
  9
$PROXYGRAPHICS
 70
1
  9
$MEASUREMENT
 70
1
  9
$CELWEIGHT
370
-1
  9
$ENDCAPS
280
0
  9
$JOINSTYLE
280
0
  9
$LWDISPLAY
290
0
  9
$INSUNITS
 70
6
  9
$HYPERLINKBASE
  1

  9
$STYLESHEET
  1

  9
$XEDIT
290
1
  9
$CEPSNTYPE
380
0
  9
$PSTYLEMODE
290
1
  9
$FINGERPRINTGUID
  2
{A5CC6ECB-6560-46CE-80DE-F57A1FD51928}
  9
$VERSIONGUID
  2
{37966FB6-BD3F-4A0F-8985-7EABA575F412}
  9
$EXTNAMES
290
1
  9
$PSVPSCALE
 40
0.0
  9
$OLESTARTUP
290
0
  9
$SORTENTS
280
127
  9
$INDEXCTL
280
0
  9
$HIDETEXT
280
1
  9
$XCLIPFRAME
280
1
  9
$HALOGAP
280
0
  9
$OBSCOLOR
 70
257
  9
$OBSLTYPE
280
0
  9
$INTERSECTIONDISPLAY
280
0
  9
$INTERSECTIONCOLOR
 70
257
  9
$DIMASSOC
280
2
  9
$PROJECTNAME
  1

  9
$CAMERADISPLAY
290
0
  9
$LENSLENGTH
 40
50.0
  9
$CAMERAHEIGHT
 40
0.0
  9
$STEPSPERSEC
 40
24.0
  9
$STEPSIZE
 40
100.0
  9
$3DDWFPREC
 40
2.0
  9
$PSOLWIDTH
 40
0.005
  9
$PSOLHEIGHT
 40
0.08
  9
$LOFTANG1
 40
1.570796326795
  9
$LOFTANG2
 40
1.570796326795
  9
$LOFTMAG1
 40
0.0
  9
$LOFTMAG2
 40
0.0
  9
$LOFTPARAM
 70
7
  9
$LOFTNORMALS
280
1
  9
$LATITUDE
 40
37.795
  9
$LONGITUDE
 40
-122.394
  9
$NORTHDIRECTION
 40
0.0
  9
$TIMEZONE
 70
-8000
  9
$LIGHTGLYPHDISPLAY
280
1
  9
$TILEMODELIGHTSYNCH
280
1
  9
$CMATERIAL
347
20
  9
$SOLIDHIST
280
0
  9
$SHOWHIST
280
1
  9
$DWFFRAME
280
2
  9
$DGNFRAME
280
2
  9
$REALWORLDSCALE
290
1
  9
$INTERFERECOLOR
 62
256
  9
$CSHADOW
280
0
  9
$SHADOWPLANELOCATION
 40
0.0
  0
ENDSEC
  0
SECTION
  2
CLASSES
  0
CLASS
  1
ACDBDICTIONARYWDFLT
  2
AcDbDictionaryWithDefault
  3
ObjectDBX Classes
 90
0
 91
0
280
0
281
0
  0
CLASS
  1
SUN
  2
AcDbSun
  3
SCENEOE
 90
1153
 91
0
280
0
281
0
  0
CLASS
  1
VISUALSTYLE
  2
AcDbVisualStyle
  3
ObjectDBX Classes
 90
4095
 91
0
280
0
281
0
  0
CLASS
  1
MATERIAL
  2
AcDbMaterial
  3
ObjectDBX Classes
 90
1153
 91
0
280
0
281
0
  0
CLASS
  1
SCALE
  2
AcDbScale
  3
ObjectDBX Classes
 90
1153
 91
0
280
0
281
0
  0
CLASS
  1
TABLESTYLE
  2
AcDbTableStyle
  3
ObjectDBX Classes
 90
4095
 91
0
280
0
281
0
  0
CLASS
  1
MLEADERSTYLE
  2
AcDbMLeaderStyle
  3
ACDB_MLEADERSTYLE_CLASS
 90
4095
 91
0
280
0
281
0
  0
CLASS
  1
DICTIONARYVAR
  2
AcDbDictionaryVar
  3
ObjectDBX Classes
 90
0
 91
0
280
0
281
0
  0
CLASS
  1
CELLSTYLEMAP
  2
AcDbCellStyleMap
  3
ObjectDBX Classes
 90
1152
 91
0
280
0
281
0
  0
CLASS
  1
MENTALRAYRENDERSETTINGS
  2
AcDbMentalRayRenderSettings
  3
SCENEOE
 90
1024
 91
0
280
0
281
0
  0
CLASS
  1
ACDBDETAILVIEWSTYLE
  2
AcDbDetailViewStyle
  3
ObjectDBX Classes
 90
1025
 91
0
280
0
281
0
  0
CLASS
  1
ACDBSECTIONVIEWSTYLE
  2
AcDbSectionViewStyle
  3
ObjectDBX Classes
 90
1025
 91
0
280
0
281
0
  0
CLASS
  1
RASTERVARIABLES
  2
AcDbRasterVariables
  3
ISM
 90
0
 91
0
280
0
281
0
  0
CLASS
  1
ACDBPLACEHOLDER
  2
AcDbPlaceHolder
  3
ObjectDBX Classes
 90
0
 91
0
280
0
281
0
  0
CLASS
  1
LAYOUT
  2
AcDbLayout
  3
ObjectDBX Classes
 90
0
 91
0
280
0
281
0
  0
ENDSEC
  0
SECTION
  2
TABLES
  0
TABLE
  2
VPORT
  5
8
330
0
100
AcDbSymbolTable
 70
1
  0
VPORT
  5
23
330
8
100
AcDbSymbolTableRecord
100
AcDbViewportTableRecord
  2
*Active
 70
0
 10
0.0
 20
0.0
 11
1.0
 21
1.0
 12
0.0
 22
0.0
 13
0.0
 23
0.0
 14
0.5
 24
0.5
 15
0.5
 25
0.5
 16
0.0
 26
0.0
 36
1.0
 17
0.0
 27
0.0
 37
0.0
 40
1000.0
 41
1.34
 42
50.0
 43
0.0
 44
0.0
 50
0.0
 51
0.0
 71
0
 72
1000
 73
1
 74
3
 75
0
 76
0
 77
0
 78
0
281
0
 65
0
146
0.0
  0
ENDTAB
  0
TABLE
  2
LTYPE
  5
2
330
0
100
AcDbSymbolTable
 70
3
  0
LTYPE
  5
24
330
2
100
AcDbSymbolTableRecord
100
AcDbLinetypeTableRecord
  2
ByBlock
 70
0
  3

 72
65
 73
0
 40
0.0
  0
LTYPE
  5
25
330
2
100
AcDbSymbolTableRecord
100
AcDbLinetypeTableRecord
  2
ByLayer
 70
0
  3

 72
65
 73
0
 40
0.0
  0
LTYPE
  5
26
330
2
100
AcDbSymbolTableRecord
100
AcDbLinetypeTableRecord
  2
Continuous
 70
0
  3

 72
65
 73
0
 40
0.0
  0
ENDTAB
  0
TABLE
  2
LAYER
  5
1
330
0
100
AcDbSymbolTable
 70
2
  0
LAYER
  5
27
330
1
100
AcDbSymbolTableRecord
100
AcDbLayerTableRecord
  2
0
 70
0
 62
7
  6
Continuous
370
-3
390
13
347
21
  0
LAYER
  5
28
330
1
100
AcDbSymbolTableRecord
100
AcDbLayerTableRecord
  2
Defpoints
 70
0
 62
7
  6
Continuous
290
0
370
-3
390
13
347
21
  0
ENDTAB
  0
TABLE
  2
STYLE
  5
5
330
0
100
AcDbSymbolTable
 70
1
  0
STYLE
  5
29
330
5
100
AcDbSymbolTableRecord
100
AcDbTextStyleTableRecord
  2
Standard
 70
0
 40
0.0
 41
1.0
 50
0.0
 71
0
 42
2.5
  3
txt
  4

  0
ENDTAB
  0
TABLE
  2
VIEW
  5
7
330
0
100
AcDbSymbolTable
 70
0
  0
ENDTAB
  0
TABLE
  2
UCS
  5
6
330
0
100
AcDbSymbolTable
 70
0
  0
ENDTAB
  0
TABLE
  2
APPID
  5
3
330
0
100
AcDbSymbolTable
 70
3
  0
APPID
  5
2A
330
3
100
AcDbSymbolTableRecord
100
AcDbRegAppTableRecord
  2
ACAD
 70
0
  0
APPID
  5
200
330
3
100
AcDbSymbolTableRecord
100
AcDbRegAppTableRecord
  2
HATCHBACKGROUNDCOLOR
 70
0
  0
APPID
  5
201
330
3
100
AcDbSymbolTableRecord
100
AcDbRegAppTableRecord
  2
EZDXF
 70
0
  0
ENDTAB
  0
TABLE
  2
DIMSTYLE
  5
4
330
0
100
AcDbSymbolTable
 70
1
100
AcDbDimStyleTable
  0
DIMSTYLE
105
2B
330
4
100
AcDbSymbolTableRecord
100
AcDbDimStyleTableRecord
  2
Standard
 70
0
 40
1.0
 41
2.5
 42
0.625
 43
3.75
 44
1.25
 45
0.0
 46
0.0
 47
0.0
 48
0.0
 49
2.5
140
2.5
141
2.5
142
0.0
143
0.03937007874
144
1.0
145
0.0
146
1.0
147
0.625
148
0.0
 69
0
 70
0
 71
0
 72
0
 73
0
 74
0
 75
0
 76
0
 77
1
 78
8
 79
3
170
0
171
3
172
1
173
0
174
0
175
0
176
0
177
0
178
0
179
2
271
2
272
2
273
2
274
3
275
0
276
0
277
2
278
44
279
0
280
0
281
0
282
0
283
0
284
8
285
0
286
0
288
0
289
3
290
0
371
-2
372
-2
  0
ENDTAB
  0
TABLE
  2
BLOCK_RECORD
  5
9
330
0
100
AcDbSymbolTable
 70
2
  0
BLOCK_RECORD
  5
17
330
9
100
AcDbSymbolTableRecord
100
AcDbBlockTableRecord
  2
*Model_Space
340
1A
 70
0
280
1
281
0
  0
BLOCK_RECORD
  5
1B
330
9
100
AcDbSymbolTableRecord
100
AcDbBlockTableRecord
  2
*Paper_Space
340
1E
 70
0
280
1
281
0
  0
ENDTAB
  0
ENDSEC
  0
SECTION
  2
BLOCKS
  0
BLOCK
  5
18
330
17
100
AcDbEntity
  8
0
100
AcDbBlockBegin
  2
*Model_Space
 70
0
 10
0.0
 20
0.0
 30
0.0
  3
*Model_Space
  1

  0
ENDBLK
  5
19
330
17
100
AcDbEntity
  8
0
100
AcDbBlockEnd
  0
BLOCK
  5
1C
330
1B
100
AcDbEntity
  8
0
100
AcDbBlockBegin
  2
*Paper_Space
 70
0
 10
0.0
 20
0.0
 30
0.0
  3
*Paper_Space
  1

  0
ENDBLK
  5
1D
330
1B
100
AcDbEntity
  8
0
100
AcDbBlockEnd
  0
ENDSEC
  0
SECTION
  2
ENTITIES
  0
LINE
  5
2F
330
17
100
AcDbEntity
  8
0
100
AcDbLine
 10
93.494352
 20
-54.213252
 30
0.0
 11
100.877624
 21
-54.213252
 31
0.0
  0
LINE
  5
30
330
17
100
AcDbEntity
  8
0
100
AcDbLine
 10
100.877624
 20
-54.213252
 30
0.0
 11
104.818434
 21
-68.99148
 31
0.0
  0
LINE
  5
31
330
17
100
AcDbEntity
  8
0
100
AcDbLine
 10
104.818434
 20
-68.99148
 30
0.0
 11
93.461586
 21
-69.054218
 31
0.0
  0
LINE
  5
32
330
17
100
AcDbEntity
  8
0
100
AcDbLine
 10
93.461586
 20
-69.054218
 30
0.0
 11
93.41485
 21
-69.048122
 31
0.0
  0
LINE
  5
33
330
17
100
AcDbEntity
  8
0
100
AcDbLine
 10
93.41485
 20
-69.048122
 30
0.0
 11
93.369638
 21
-69.03770800000001
 31
0.0
  0
LINE
  5
34
330
17
100
AcDbEntity
  8
0
100
AcDbLine
 10
93.369638
 20
-69.03770800000001
 30
0.0
 11
93.32594999999999
 21
-69.02323
 31
0.0
  0
LINE
  5
35
330
17
100
AcDbEntity
  8
0
100
AcDbLine
 10
93.32594999999999
 20
-69.02323
 30
0.0
 11
93.28403999999999
 21
-69.004942
 31
0.0
  0
LINE
  5
36
330
17
100
AcDbEntity
  8
0
100
AcDbLine
 10
93.28403999999999
 20
-69.004942
 30
0.0
 11
93.24416199999999
 21
-68.983098
 31
0.0
  0
LINE
  5
37
330
17
100
AcDbEntity
  8
0
100
AcDbLine
 10
93.24416199999999
 20
-68.983098
 30
0.0
 11
93.20656999999999
 21
-68.957698
 31
0.0
  0
LINE
  5
38
330
17
100
AcDbEntity
  8
0
100
AcDbLine
 10
93.20656999999999
 20
-68.957698
 30
0.0
 11
93.17151799999999
 21
-68.928996
 31
0.0
  0
LINE
  5
39
330
17
100
AcDbEntity
  8
0
100
AcDbLine
 10
93.17151799999999
 20
-68.928996
 30
0.0
 11
93.13926
 21
-68.897246
 31
0.0
  0
LINE
  5
3A
330
17
100
AcDbEntity
  8
0
100
AcDbLine
 10
93.13926
 20
-68.897246
 30
0.0
 11
93.11004999999999
 21
-68.86270199999998
 31
0.0
  0
LINE
  5
3B
330
17
100
AcDbEntity
  8
0
100
AcDbLine
 10
93.11004999999999
 20
-68.86270199999998
 30
0.0
 11
93.08388799999999
 21
-68.82561799999998
 31
0.0
  0
LINE
  5
3C
330
17
100
AcDbEntity
  8
0
100
AcDbLine
 10
93.08388799999999
 20
-68.82561799999998
 30
0.0
 11
93.061028
 21
-68.78599399999999
 31
0.0
  0
LINE
  5
3D
330
17
100
AcDbEntity
  8
0
100
AcDbLine
 10
93.061028
 20
-68.78599399999999
 30
0.0
 11
93.04197799999999
 21
-68.74408399999997
 31
0.0
  0
LINE
  5
3E
330
17
100
AcDbEntity
  8
0
100
AcDbLine
 10
93.04197799999999
 20
-68.74408399999997
 30
0.0
 11
93.026738
 21
-68.70014199999997
 31
0.0
  0
LINE
  5
3F
330
17
100
AcDbEntity
  8
0
100
AcDbLine
 10
93.026738
 20
-68.70014199999997
 30
0.0
 11
93.01556199999999
 21
-68.65442199999997
 31
0.0
  0
LINE
  5
40
330
17
100
AcDbEntity
  8
0
100
AcDbLine
 10
93.01556199999999
 20
-68.65442199999997
 30
0.0
 11
92.939108
 21
-67.90131199999998
 31
0.0
  0
LINE
  5
41
330
17
100
AcDbEntity
  8
0
100
AcDbLine
 10
92.939108
 20
-67.90131199999998
 30
0.0
 11
81.11261400000001
 21
-67.88505599999998
 31
0.0
  0
LINE
  5
42
330
17
100
AcDbEntity
  8
0
100
AcDbLine
 10
81.11261400000001
 20
-67.88505599999998
 30
0.0
 11
81.11007400000001
 21
-68.69506199999998
 31
0.0
  0
LINE
  5
43
330
17
100
AcDbEntity
  8
0
100
AcDbLine
 10
81.11007400000001
 20
-68.69506199999998
 30
0.0
 11
81.10245400000001
 21
-68.74459199999998
 31
0.0
  0
LINE
  5
44
330
17
100
AcDbEntity
  8
0
100
AcDbLine
 10
81.10245400000001
 20
-68.74459199999998
 30
0.0
 11
81.09026200000001
 21
-68.79234399999997
 31
0.0
  0
LINE
  5
45
330
17
100
AcDbEntity
  8
0
100
AcDbLine
 10
81.09026200000001
 20
-68.79234399999997
 30
0.0
 11
81.07349800000001
 21
-68.83806399999997
 31
0.0
  0
LINE
  5
46
330
17
100
AcDbEntity
  8
0
100
AcDbLine
 10
81.07349800000001
 20
-68.83806399999997
 30
0.0
 11
81.05241600000001
 21
-68.88149799999998
 31
0.0
  0
LINE
  5
47
330
17
100
AcDbEntity
  8
0
100
AcDbLine
 10
81.05241600000001
 20
-68.88149799999998
 30
0.0
 11
81.02752400000001
 21
-68.92264599999997
 31
0.0
  0
LINE
  5
48
330
17
100
AcDbEntity
  8
0
100
AcDbLine
 10
81.02752400000001
 20
-68.92264599999997
 30
0.0
 11
80.998822
 21
-68.96099999999997
 31
0.0
  0
LINE
  5
49
330
17
100
AcDbEntity
  8
0
100
AcDbLine
 10
80.998822
 20
-68.96099999999997
 30
0.0
 11
80.966564
 21
-68.99630599999998
 31
0.0
  0
LINE
  5
4A
330
17
100
AcDbEntity
  8
0
100
AcDbLine
 10
80.966564
 20
-68.99630599999998
 30
0.0
 11
80.93100400000002
 21
-69.02830999999996
 31
0.0
  0
LINE
  5
4B
330
17
100
AcDbEntity
  8
0
100
AcDbLine
 10
80.93100400000002
 20
-69.02830999999996
 30
0.0
 11
80.89265
 21
-69.05701199999997
 31
0.0
  0
LINE
  5
4C
330
17
100
AcDbEntity
  8
0
100
AcDbLine
 10
80.89265
 20
-69.05701199999997
 30
0.0
 11
80.85150200000001
 21
-69.08190399999997
 31
0.0
  0
LINE
  5
4D
330
17
100
AcDbEntity
  8
0
100
AcDbLine
 10
80.85150200000001
 20
-69.08190399999997
 30
0.0
 11
80.80781400000001
 21
-69.10273199999997
 31
0.0
  0
LINE
  5
4E
330
17
100
AcDbEntity
  8
0
100
AcDbLine
 10
80.80781400000001
 20
-69.10273199999997
 30
0.0
 11
80.762094
 21
-69.11924199999997
 31
0.0
  0
LINE
  5
4F
330
17
100
AcDbEntity
  8
0
100
AcDbLine
 10
80.762094
 20
-69.11924199999997
 30
0.0
 11
80.714342
 21
-69.13143399999997
 31
0.0
  0
LINE
  5
50
330
17
100
AcDbEntity
  8
0
100
AcDbLine
 10
80.714342
 20
-69.13143399999997
 30
0.0
 11
80.66481200000001
 21
-69.13879999999997
 31
0.0
  0
LINE
  5
51
330
17
100
AcDbEntity
  8
0
100
AcDbLine
 10
80.66481200000001
 20
-69.13879999999997
 30
0.0
 11
47.61001400000001
 21
-69.02856399999996
 31
0.0
  0
LINE
  5
52
330
17
100
AcDbEntity
  8
0
100
AcDbLine
 10
47.61001400000001
 20
-69.02856399999996
 30
0.0
 11
47.426626000000006
 21
-68.90257999999997
 31
0.0
  0
LINE
  5
53
330
17
100
AcDbEntity
  8
0
100
AcDbLine
 10
47.426626000000006
 20
-68.90257999999997
 30
0.0
 11
46.90186200000001
 21
-68.59600199999997
 31
0.0
  0
LINE
  5
54
330
17
100
AcDbEntity
  8
0
100
AcDbLine
 10
46.90186200000001
 20
-68.59600199999997
 30
0.0
 11
46.07433
 21
-68.21627199999996
 31
0.0
  0
LINE
  5
55
330
17
100
AcDbEntity
  8
0
100
AcDbLine
 10
46.07433
 20
-68.21627199999996
 30
0.0
 11
44.982384
 21
-67.87083199999996
 31
0.0
  0
LINE
  5
56
330
17
100
AcDbEntity
  8
0
100
AcDbLine
 10
44.982384
 20
-67.87083199999996
 30
0.0
 11
44.349162
 21
-67.74459399999996
 31
0.0
  0
LINE
  5
57
330
17
100
AcDbEntity
  8
0
100
AcDbLine
 10
44.349162
 20
-67.74459399999996
 30
0.0
 11
43.664378000000006
 21
-67.66712399999996
 31
0.0
  0
LINE
  5
58
330
17
100
AcDbEntity
  8
0
100
AcDbLine
 10
43.664378000000006
 20
-67.66712399999996
 30
0.0
 11
42.932858
 21
-67.65188399999995
 31
0.0
  0
LINE
  5
59
330
17
100
AcDbEntity
  8
0
100
AcDbLine
 10
42.932858
 20
-67.65188399999995
 30
0.0
 11
42.15917400000001
 21
-67.71233599999996
 31
0.0
  0
LINE
  5
5A
330
17
100
AcDbEntity
  8
0
100
AcDbLine
 10
42.15917400000001
 20
-67.71233599999996
 30
0.0
 11
41.348406000000004
 21
-67.86194199999996
 31
0.0
  0
LINE
  5
5B
330
17
100
AcDbEntity
  8
0
100
AcDbLine
 10
41.348406000000004
 20
-67.86194199999996
 30
0.0
 11
40.505126000000004
 21
-68.11416399999996
 31
0.0
  0
LINE
  5
5C
330
17
100
AcDbEntity
  8
0
100
AcDbLine
 10
40.505126000000004
 20
-68.11416399999996
 30
0.0
 11
39.63416000000001
 21
-68.48220999999997
 31
0.0
  0
LINE
  5
5D
330
17
100
AcDbEntity
  8
0
100
AcDbLine
 10
39.63416000000001
 20
-68.48220999999997
 30
0.0
 11
38.740334000000004
 21
-68.97954199999997
 31
0.0
  0
LINE
  5
5E
330
17
100
AcDbEntity
  8
0
100
AcDbLine
 10
38.740334000000004
 20
-68.97954199999997
 30
0.0
 11
32.397192000000004
 21
-68.90105599999995
 31
0.0
  0
LINE
  5
5F
330
17
100
AcDbEntity
  8
0
100
AcDbLine
 10
32.397192000000004
 20
-68.90105599999995
 30
0.0
 11
32.341058000000004
 21
-68.89191199999996
 31
0.0
  0
LINE
  5
60
330
17
100
AcDbEntity
  8
0
100
AcDbLine
 10
32.341058000000004
 20
-68.89191199999996
 30
0.0
 11
32.286702000000005
 21
-68.87768799999996
 31
0.0
  0
LINE
  5
61
330
17
100
AcDbEntity
  8
0
100
AcDbLine
 10
32.286702000000005
 20
-68.87768799999996
 30
0.0
 11
32.234632000000005
 21
-68.85838399999996
 31
0.0
  0
LINE
  5
62
330
17
100
AcDbEntity
  8
0
100
AcDbLine
 10
32.234632000000005
 20
-68.85838399999996
 30
0.0
 11
32.18510200000001
 21
-68.83450799999996
 31
0.0
  0
LINE
  5
63
330
17
100
AcDbEntity
  8
0
100
AcDbLine
 10
32.18510200000001
 20
-68.83450799999996
 30
0.0
 11
32.138366000000005
 21
-68.80631399999996
 31
0.0
  0
LINE
  5
64
330
17
100
AcDbEntity
  8
0
100
AcDbLine
 10
32.138366000000005
 20
-68.80631399999996
 30
0.0
 11
32.094424000000004
 21
-68.77380199999996
 31
0.0
  0
LINE
  5
65
330
17
100
AcDbEntity
  8
0
100
AcDbLine
 10
32.094424000000004
 20
-68.77380199999996
 30
0.0
 11
32.05378400000001
 21
-68.73747999999998
 31
0.0
  0
LINE
  5
66
330
17
100
AcDbEntity
  8
0
100
AcDbLine
 10
32.05378400000001
 20
-68.73747999999998
 30
0.0
 11
32.01670000000001
 21
-68.69760199999997
 31
0.0
  0
LINE
  5
67
330
17
100
AcDbEntity
  8
0
100
AcDbLine
 10
32.01670000000001
 20
-68.69760199999997
 30
0.0
 11
31.98342600000001
 21
-68.65416799999998
 31
0.0
  0
LINE
  5
68
330
17
100
AcDbEntity
  8
0
100
AcDbLine
 10
31.98342600000001
 20
-68.65416799999998
 30
0.0
 11
31.954470000000004
 21
-68.60768599999999
 31
0.0
  0
LINE
  5
69
330
17
100
AcDbEntity
  8
0
100
AcDbLine
 10
31.954470000000004
 20
-68.60768599999999
 30
0.0
 11
31.929832000000008
 21
-68.55840999999998
 31
0.0
  0
LINE
  5
6A
330
17
100
AcDbEntity
  8
0
100
AcDbLine
 10
31.929832000000008
 20
-68.55840999999998
 30
0.0
 11
31.90976600000001
 21
-68.50659399999998
 31
0.0
  0
LINE
  5
6B
330
17
100
AcDbEntity
  8
0
100
AcDbLine
 10
31.90976600000001
 20
-68.50659399999998
 30
0.0
 11
31.89452600000001
 21
-68.45249199999996
 31
0.0
  0
LINE
  5
6C
330
17
100
AcDbEntity
  8
0
100
AcDbLine
 10
31.89452600000001
 20
-68.45249199999996
 30
0.0
 11
31.88462000000001
 21
-68.39661199999996
 31
0.0
  0
LINE
  5
6D
330
17
100
AcDbEntity
  8
0
100
AcDbLine
 10
31.88462000000001
 20
-68.39661199999996
 30
0.0
 11
31.71621800000001
 21
-62.54318199999996
 31
0.0
  0
LINE
  5
6E
330
17
100
AcDbEntity
  8
0
100
AcDbLine
 10
31.71621800000001
 20
-62.54318199999996
 30
0.0
 11
92.145104
 21
-62.04254799999996
 31
0.0
  0
LINE
  5
6F
330
17
100
AcDbEntity
  8
0
100
AcDbLine
 10
92.145104
 20
-62.04254799999996
 30
0.0
 11
93.608906
 21
-61.77533999999996
 31
0.0
  0
LINE
  5
70
330
17
100
AcDbEntity
  8
0
100
AcDbLine
 10
93.608906
 20
-61.77533999999996
 30
0.0
 11
93.494606
 21
-54.212235999999955
 31
0.0
  0
LINE
  5
71
330
17
100
AcDbEntity
  8
0
100
AcDbLine
 10
93.722952
 20
-61.751463999999956
 30
0.0
 11
25.835609999999996
 21
-61.52235599999996
 31
0.0
  0
LINE
  5
72
330
17
100
AcDbEntity
  8
0
100
AcDbLine
 10
25.835609999999996
 20
-61.52235599999996
 30
0.0
 11
25.608787999999993
 21
-53.42559799999996
 31
0.0
  0
LINE
  5
73
330
17
100
AcDbEntity
  8
0
100
AcDbLine
 10
25.608787999999993
 20
-53.42559799999996
 30
0.0
 11
25.621233999999994
 21
-53.32729999999995
 31
0.0
  0
LINE
  5
74
330
17
100
AcDbEntity
  8
0
100
AcDbLine
 10
25.621233999999994
 20
-53.32729999999995
 30
0.0
 11
25.643331999999997
 21
-53.23230399999996
 31
0.0
  0
LINE
  5
75
330
17
100
AcDbEntity
  8
0
100
AcDbLine
 10
25.643331999999997
 20
-53.23230399999996
 30
0.0
 11
25.674573999999996
 21
-53.141117999999956
 31
0.0
  0
LINE
  5
76
330
17
100
AcDbEntity
  8
0
100
AcDbLine
 10
25.674573999999996
 20
-53.141117999999956
 30
0.0
 11
25.714451999999998
 21
-53.05424999999995
 31
0.0
  0
LINE
  5
77
330
17
100
AcDbEntity
  8
0
100
AcDbLine
 10
25.714451999999998
 20
-53.05424999999995
 30
0.0
 11
25.762457999999995
 21
-52.972207999999945
 31
0.0
  0
LINE
  5
78
330
17
100
AcDbEntity
  8
0
100
AcDbLine
 10
25.762457999999995
 20
-52.972207999999945
 30
0.0
 11
25.818083999999992
 21
-52.89549999999995
 31
0.0
  0
LINE
  5
79
330
17
100
AcDbEntity
  8
0
100
AcDbLine
 10
25.818083999999992
 20
-52.89549999999995
 30
0.0
 11
25.880567999999993
 21
-52.82488799999995
 31
0.0
  0
LINE
  5
7A
330
17
100
AcDbEntity
  8
0
100
AcDbLine
 10
25.880567999999993
 20
-52.82488799999995
 30
0.0
 11
25.949655999999994
 21
-52.76062599999996
 31
0.0
  0
LINE
  5
7B
330
17
100
AcDbEntity
  8
0
100
AcDbLine
 10
25.949655999999994
 20
-52.76062599999996
 30
0.0
 11
26.024839999999994
 21
-52.703221999999954
 31
0.0
  0
LINE
  5
7C
330
17
100
AcDbEntity
  8
0
100
AcDbLine
 10
26.024839999999994
 20
-52.703221999999954
 30
0.0
 11
26.105611999999994
 21
-52.65318399999995
 31
0.0
  0
LINE
  5
7D
330
17
100
AcDbEntity
  8
0
100
AcDbLine
 10
26.105611999999994
 20
-52.65318399999995
 30
0.0
 11
26.191463999999993
 21
-52.61127399999996
 31
0.0
  0
LINE
  5
7E
330
17
100
AcDbEntity
  8
0
100
AcDbLine
 10
26.191463999999993
 20
-52.61127399999996
 30
0.0
 11
26.28188799999999
 21
-52.577745999999955
 31
0.0
  0
LINE
  5
7F
330
17
100
AcDbEntity
  8
0
100
AcDbLine
 10
26.28188799999999
 20
-52.577745999999955
 30
0.0
 11
26.376375999999993
 21
-52.55336199999996
 31
0.0
  0
LINE
  5
80
330
17
100
AcDbEntity
  8
0
100
AcDbLine
 10
26.376375999999993
 20
-52.55336199999996
 30
0.0
 11
26.474165999999993
 21
-52.53837599999996
 31
0.0
  0
LINE
  5
81
330
17
100
AcDbEntity
  8
0
100
AcDbLine
 10
26.474165999999993
 20
-52.53837599999996
 30
0.0
 11
86.81059599999999
 21
-52.98414599999995
 31
0.0
  0
LINE
  5
82
330
17
100
AcDbEntity
  8
0
100
AcDbLine
 10
86.81059599999999
 20
-52.98414599999995
 30
0.0
 11
91.526614
 21
-53.59272999999995
 31
0.0
  0
LINE
  5
83
330
17
100
AcDbEntity
  8
0
100
AcDbLine
 10
91.526614
 20
-53.59272999999995
 30
0.0
 11
92.69983999999998
 21
-53.89168799999995
 31
0.0
  0
LINE
  5
84
330
17
100
AcDbEntity
  8
0
100
AcDbLine
 10
92.69983999999998
 20
-53.89168799999995
 30
0.0
 11
93.18574199999999
 21
-54.06186799999995
 31
0.0
  0
LINE
  5
85
330
17
100
AcDbEntity
  8
0
100
AcDbLine
 10
93.18574199999999
 20
-54.06186799999995
 30
0.0
 11
93.59696799999999
 21
-54.246525999999946
 31
0.0
  0
LINE
  5
86
330
17
100
AcDbEntity
  8
0
100
AcDbLine
 10
93.59696799999999
 20
-54.246525999999946
 30
0.0
 11
93.72320599999999
 21
-61.75120999999994
 31
0.0
  0
LINE
  5
87
330
17
100
AcDbEntity
  8
0
100
AcDbLine
 10
61.62039999999999
 20
-81.53349199999994
 30
0.0
 11
61.20790399999999
 21
-81.15934999999993
 31
0.0
  0
LINE
  5
88
330
17
100
AcDbEntity
  8
0
100
AcDbLine
 10
61.20790399999999
 20
-81.15934999999993
 30
0.0
 11
60.68110799999999
 21
-80.76691999999993
 31
0.0
  0
LINE
  5
89
330
17
100
AcDbEntity
  8
0
100
AcDbLine
 10
60.68110799999999
 20
-80.76691999999993
 30
0.0
 11
59.930537999999984
 21
-80.30438599999992
 31
0.0
  0
LINE
  5
8A
330
17
100
AcDbEntity
  8
0
100
AcDbLine
 10
59.930537999999984
 20
-80.30438599999992
 30
0.0
 11
58.94908199999998
 21
-79.82178599999993
 31
0.0
  0
LINE
  5
8B
330
17
100
AcDbEntity
  8
0
100
AcDbLine
 10
58.94908199999998
 20
-79.82178599999993
 30
0.0
 11
57.72911999999999
 21
-79.36941199999993
 31
0.0
  0
LINE
  5
8C
330
17
100
AcDbEntity
  8
0
100
AcDbLine
 10
57.72911999999999
 20
-79.36941199999993
 30
0.0
 11
56.26328599999999
 21
-78.99755599999993
 31
0.0
  0
LINE
  5
8D
330
17
100
AcDbEntity
  8
0
100
AcDbLine
 10
56.26328599999999
 20
-78.99755599999993
 30
0.0
 11
54.54395999999999
 21
-78.75625599999994
 31
0.0
  0
LINE
  5
8E
330
17
100
AcDbEntity
  8
0
100
AcDbLine
 10
54.54395999999999
 20
-78.75625599999994
 30
0.0
 11
32.75609399999999
 21
-77.44917199999993
 31
0.0
  0
LINE
  5
8F
330
17
100
AcDbEntity
  8
0
100
AcDbLine
 10
32.75609399999999
 20
-77.44917199999993
 30
0.0
 11
32.655763999999984
 21
-77.42834399999994
 31
0.0
  0
LINE
  5
90
330
17
100
AcDbEntity
  8
0
100
AcDbLine
 10
32.655763999999984
 20
-77.42834399999994
 30
0.0
 11
32.559243999999985
 21
-77.39837199999994
 31
0.0
  0
LINE
  5
91
330
17
100
AcDbEntity
  8
0
100
AcDbLine
 10
32.559243999999985
 20
-77.39837199999994
 30
0.0
 11
32.467041999999985
 21
-77.35976399999994
 31
0.0
  0
LINE
  5
92
330
17
100
AcDbEntity
  8
0
100
AcDbLine
 10
32.467041999999985
 20
-77.35976399999994
 30
0.0
 11
32.37941199999999
 21
-77.31302799999993
 31
0.0
  0
LINE
  5
93
330
17
100
AcDbEntity
  8
0
100
AcDbLine
 10
32.37941199999999
 20
-77.31302799999993
 30
0.0
 11
32.29711599999999
 21
-77.25841799999993
 31
0.0
  0
LINE
  5
94
330
17
100
AcDbEntity
  8
0
100
AcDbLine
 10
32.29711599999999
 20
-77.25841799999993
 30
0.0
 11
32.220407999999985
 21
-77.19669599999993
 31
0.0
  0
LINE
  5
95
330
17
100
AcDbEntity
  8
0
100
AcDbLine
 10
32.220407999999985
 20
-77.19669599999993
 30
0.0
 11
32.14979599999999
 21
-77.12836999999993
 31
0.0
  0
LINE
  5
96
330
17
100
AcDbEntity
  8
0
100
AcDbLine
 10
32.14979599999999
 20
-77.12836999999993
 30
0.0
 11
32.08578799999999
 21
-77.05369399999994
 31
0.0
  0
LINE
  5
97
330
17
100
AcDbEntity
  8
0
100
AcDbLine
 10
32.08578799999999
 20
-77.05369399999994
 30
0.0
 11
32.028891999999985
 21
-76.97342999999995
 31
0.0
  0
LINE
  5
98
330
17
100
AcDbEntity
  8
0
100
AcDbLine
 10
32.028891999999985
 20
-76.97342999999995
 30
0.0
 11
31.979361999999988
 21
-76.88783199999995
 31
0.0
  0
LINE
  5
99
330
17
100
AcDbEntity
  8
0
100
AcDbLine
 10
31.979361999999988
 20
-76.88783199999995
 30
0.0
 11
31.93795999999999
 21
-76.79766199999995
 31
0.0
  0
LINE
  5
9A
330
17
100
AcDbEntity
  8
0
100
AcDbLine
 10
31.93795999999999
 20
-76.79766199999995
 30
0.0
 11
31.90493999999999
 21
-76.70317399999995
 31
0.0
  0
LINE
  5
9B
330
17
100
AcDbEntity
  8
0
100
AcDbLine
 10
31.90493999999999
 20
-76.70317399999995
 30
0.0
 11
31.88080999999999
 21
-76.60487599999995
 31
0.0
  0
LINE
  5
9C
330
17
100
AcDbEntity
  8
0
100
AcDbLine
 10
31.88080999999999
 20
-76.60487599999995
 30
0.0
 11
31.86582399999999
 21
-76.50352999999994
 31
0.0
  0
LINE
  5
9D
330
17
100
AcDbEntity
  8
0
100
AcDbLine
 10
31.86582399999999
 20
-76.50352999999994
 30
0.0
 11
31.86074399999999
 21
-69.40600799999994
 31
0.0
  0
LINE
  5
9E
330
17
100
AcDbEntity
  8
0
100
AcDbLine
 10
31.86074399999999
 20
-69.40600799999994
 30
0.0
 11
106.024934
 21
-69.40600799999994
 31
0.0
  0
LINE
  5
9F
330
17
100
AcDbEntity
  8
0
100
AcDbLine
 10
106.024934
 20
-69.40600799999994
 30
0.0
 11
105.97134
 21
-69.40270599999995
 31
0.0
  0
LINE
  5
A0
330
17
100
AcDbEntity
  8
0
100
AcDbLine
 10
105.97134
 20
-69.40270599999995
 30
0.0
 11
105.81893999999998
 21
-69.40702399999995
 31
0.0
  0
LINE
  5
A1
330
17
100
AcDbEntity
  8
0
100
AcDbLine
 10
105.81893999999998
 20
-69.40702399999995
 30
0.0
 11
105.580688
 21
-69.44080599999995
 31
0.0
  0
LINE
  5
A2
330
17
100
AcDbEntity
  8
0
100
AcDbLine
 10
105.580688
 20
-69.44080599999995
 30
0.0
 11
105.26953799999998
 21
-69.52564199999995
 31
0.0
  0
LINE
  5
A3
330
17
100
AcDbEntity
  8
0
100
AcDbLine
 10
105.26953799999998
 20
-69.52564199999995
 30
0.0
 11
104.89818999999999
 21
-69.68362999999995
 31
0.0
  0
LINE
  5
A4
330
17
100
AcDbEntity
  8
0
100
AcDbLine
 10
104.89818999999999
 20
-69.68362999999995
 30
0.0
 11
104.693974
 21
-69.79665999999995
 31
0.0
  0
LINE
  5
A5
330
17
100
AcDbEntity
  8
0
100
AcDbLine
 10
104.693974
 20
-69.79665999999995
 30
0.0
 11
104.479598
 21
-69.93610599999994
 31
0.0
  0
LINE
  5
A6
330
17
100
AcDbEntity
  8
0
100
AcDbLine
 10
104.479598
 20
-69.93610599999994
 30
0.0
 11
104.026462
 21
-70.30542199999995
 31
0.0
  0
LINE
  5
A7
330
17
100
AcDbEntity
  8
0
100
AcDbLine
 10
104.026462
 20
-70.30542199999995
 30
0.0
 11
103.55173599999999
 21
-70.81291399999995
 31
0.0
  0
LINE
  5
A8
330
17
100
AcDbEntity
  8
0
100
AcDbLine
 10
103.55173599999999
 20
-70.81291399999995
 30
0.0
 11
103.06837399999999
 21
-71.48042599999994
 31
0.0
  0
LINE
  5
A9
330
17
100
AcDbEntity
  8
0
100
AcDbLine
 10
103.06837399999999
 20
-71.48042599999994
 30
0.0
 11
102.58907599999999
 21
-72.32980199999994
 31
0.0
  0
LINE
  5
AA
330
17
100
AcDbEntity
  8
0
100
AcDbLine
 10
102.58907599999999
 20
-72.32980199999994
 30
0.0
 11
102.12679599999998
 21
-73.38263199999993
 31
0.0
  0
LINE
  5
AB
330
17
100
AcDbEntity
  8
0
100
AcDbLine
 10
102.12679599999998
 20
-73.38263199999993
 30
0.0
 11
101.694234
 21
-74.66101399999994
 31
0.0
  0
LINE
  5
AC
330
17
100
AcDbEntity
  8
0
100
AcDbLine
 10
101.694234
 20
-74.66101399999994
 30
0.0
 11
100.97008
 21
-77.98079399999993
 31
0.0
  0
LINE
  5
AD
330
17
100
AcDbEntity
  8
0
100
AcDbLine
 10
100.97008
 20
-77.98079399999993
 30
0.0
 11
100.51948399999999
 21
-82.46313199999993
 31
0.0
  0
LINE
  5
AE
330
17
100
AcDbEntity
  8
0
100
AcDbLine
 10
100.51948399999999
 20
-82.46313199999993
 30
0.0
 11
98.64826599999999
 21
-81.76031399999994
 31
0.0
  0
LINE
  5
AF
330
17
100
AcDbEntity
  8
0
100
AcDbLine
 10
98.64826599999999
 20
-81.76031399999994
 30
0.0
 11
97.859342
 21
-81.57032199999993
 31
0.0
  0
LINE
  5
B0
330
17
100
AcDbEntity
  8
0
100
AcDbLine
 10
97.859342
 20
-81.57032199999993
 30
0.0
 11
97.05593999999999
 21
-81.45576799999994
 31
0.0
  0
LINE
  5
B1
330
17
100
AcDbEntity
  8
0
100
AcDbLine
 10
97.05593999999999
 20
-81.45576799999994
 30
0.0
 11
61.62014599999999
 21
-81.53323799999993
 31
0.0
  0
LINE
  5
B2
330
17
100
AcDbEntity
  8
0
100
AcDbLine
 10
92.89999199999998
 20
-78.71688599999993
 30
0.0
 11
92.88983199999998
 21
-78.92008599999993
 31
0.0
  0
LINE
  5
B3
330
17
100
AcDbEntity
  8
0
100
AcDbLine
 10
92.88983199999998
 20
-78.92008599999993
 30
0.0
 11
92.85960599999997
 21
-79.11744399999992
 31
0.0
  0
LINE
  5
B4
330
17
100
AcDbEntity
  8
0
100
AcDbLine
 10
92.85960599999997
 20
-79.11744399999992
 30
0.0
 11
92.81058399999998
 21
-79.30794399999992
 31
0.0
  0
LINE
  5
B5
330
17
100
AcDbEntity
  8
0
100
AcDbLine
 10
92.81058399999998
 20
-79.30794399999992
 30
0.0
 11
92.74378199999998
 21
-79.49056999999992
 31
0.0
  0
LINE
  5
B6
330
17
100
AcDbEntity
  8
0
100
AcDbLine
 10
92.74378199999998
 20
-79.49056999999992
 30
0.0
 11
92.659962
 21
-79.66430599999993
 31
0.0
  0
LINE
  5
B7
330
17
100
AcDbEntity
  8
0
100
AcDbLine
 10
92.659962
 20
-79.66430599999993
 30
0.0
 11
92.56039399999999
 21
-79.82813599999993
 31
0.0
  0
LINE
  5
B8
330
17
100
AcDbEntity
  8
0
100
AcDbLine
 10
92.56039399999999
 20
-79.82813599999993
 30
0.0
 11
92.44583999999998
 21
-79.98129799999992
 31
0.0
  0
LINE
  5
B9
330
17
100
AcDbEntity
  8
0
100
AcDbLine
 10
92.44583999999998
 20
-79.98129799999992
 30
0.0
 11
92.31756999999999
 21
-80.12252199999992
 31
0.0
  0
LINE
  5
BA
330
17
100
AcDbEntity
  8
0
100
AcDbLine
 10
92.31756999999999
 20
-80.12252199999992
 30
0.0
 11
92.17634599999998
 21
-80.25079199999992
 31
0.0
  0
LINE
  5
BB
330
17
100
AcDbEntity
  8
0
100
AcDbLine
 10
92.17634599999998
 20
-80.25079199999992
 30
0.0
 11
92.02318399999999
 21
-80.36534599999993
 31
0.0
  0
LINE
  5
BC
330
17
100
AcDbEntity
  8
0
100
AcDbLine
 10
92.02318399999999
 20
-80.36534599999993
 30
0.0
 11
91.859354
 21
-80.46491399999992
 31
0.0
  0
LINE
  5
BD
330
17
100
AcDbEntity
  8
0
100
AcDbLine
 10
91.859354
 20
-80.46491399999992
 30
0.0
 11
91.68561799999998
 21
-80.54873399999993
 31
0.0
  0
LINE
  5
BE
330
17
100
AcDbEntity
  8
0
100
AcDbLine
 10
91.68561799999998
 20
-80.54873399999993
 30
0.0
 11
91.50299199999998
 21
-80.61553599999992
 31
0.0
  0
LINE
  5
BF
330
17
100
AcDbEntity
  8
0
100
AcDbLine
 10
91.50299199999998
 20
-80.61553599999992
 30
0.0
 11
91.31249199999998
 21
-80.66455799999991
 31
0.0
  0
LINE
  5
C0
330
17
100
AcDbEntity
  8
0
100
AcDbLine
 10
91.31249199999998
 20
-80.66455799999991
 30
0.0
 11
91.11513399999998
 21
-80.69478399999993
 31
0.0
  0
LINE
  5
C1
330
17
100
AcDbEntity
  8
0
100
AcDbLine
 10
91.11513399999998
 20
-80.69478399999993
 30
0.0
 11
90.91193399999999
 21
-80.70494399999993
 31
0.0
  0
LINE
  5
C2
330
17
100
AcDbEntity
  8
0
100
AcDbLine
 10
90.91193399999999
 20
-80.70494399999993
 30
0.0
 11
90.70873399999998
 21
-80.69478399999993
 31
0.0
  0
LINE
  5
C3
330
17
100
AcDbEntity
  8
0
100
AcDbLine
 10
90.70873399999998
 20
-80.69478399999993
 30
0.0
 11
90.51137599999998
 21
-80.66455799999991
 31
0.0
  0
LINE
  5
C4
330
17
100
AcDbEntity
  8
0
100
AcDbLine
 10
90.51137599999998
 20
-80.66455799999991
 30
0.0
 11
90.32087599999998
 21
-80.61553599999992
 31
0.0
  0
LINE
  5
C5
330
17
100
AcDbEntity
  8
0
100
AcDbLine
 10
90.32087599999998
 20
-80.61553599999992
 30
0.0
 11
90.13824999999999
 21
-80.54873399999993
 31
0.0
  0
LINE
  5
C6
330
17
100
AcDbEntity
  8
0
100
AcDbLine
 10
90.13824999999999
 20
-80.54873399999993
 30
0.0
 11
89.96451399999998
 21
-80.46491399999992
 31
0.0
  0
LINE
  5
C7
330
17
100
AcDbEntity
  8
0
100
AcDbLine
 10
89.96451399999998
 20
-80.46491399999992
 30
0.0
 11
89.80068399999999
 21
-80.36534599999993
 31
0.0
  0
LINE
  5
C8
330
17
100
AcDbEntity
  8
0
100
AcDbLine
 10
89.80068399999999
 20
-80.36534599999993
 30
0.0
 11
89.64752199999998
 21
-80.25079199999992
 31
0.0
  0
LINE
  5
C9
330
17
100
AcDbEntity
  8
0
100
AcDbLine
 10
89.64752199999998
 20
-80.25079199999992
 30
0.0
 11
89.50629799999999
 21
-80.12252199999992
 31
0.0
  0
LINE
  5
CA
330
17
100
AcDbEntity
  8
0
100
AcDbLine
 10
89.50629799999999
 20
-80.12252199999992
 30
0.0
 11
89.37802799999999
 21
-79.98129799999992
 31
0.0
  0
LINE
  5
CB
330
17
100
AcDbEntity
  8
0
100
AcDbLine
 10
89.37802799999999
 20
-79.98129799999992
 30
0.0
 11
89.26347399999999
 21
-79.82813599999993
 31
0.0
  0
LINE
  5
CC
330
17
100
AcDbEntity
  8
0
100
AcDbLine
 10
89.26347399999999
 20
-79.82813599999993
 30
0.0
 11
89.16390599999998
 21
-79.66430599999993
 31
0.0
  0
LINE
  5
CD
330
17
100
AcDbEntity
  8
0
100
AcDbLine
 10
89.16390599999998
 20
-79.66430599999993
 30
0.0
 11
89.080086
 21
-79.49056999999992
 31
0.0
  0
LINE
  5
CE
330
17
100
AcDbEntity
  8
0
100
AcDbLine
 10
89.080086
 20
-79.49056999999992
 30
0.0
 11
89.013284
 21
-79.30794399999992
 31
0.0
  0
LINE
  5
CF
330
17
100
AcDbEntity
  8
0
100
AcDbLine
 10
89.013284
 20
-79.30794399999992
 30
0.0
 11
88.96426199999999
 21
-79.11744399999992
 31
0.0
  0
LINE
  5
D0
330
17
100
AcDbEntity
  8
0
100
AcDbLine
 10
88.96426199999999
 20
-79.11744399999992
 30
0.0
 11
88.93403599999999
 21
-78.92008599999993
 31
0.0
  0
LINE
  5
D1
330
17
100
AcDbEntity
  8
0
100
AcDbLine
 10
88.93403599999999
 20
-78.92008599999993
 30
0.0
 11
88.92387599999998
 21
-78.71688599999993
 31
0.0
  0
LINE
  5
D2
330
17
100
AcDbEntity
  8
0
100
AcDbLine
 10
88.92387599999998
 20
-78.71688599999993
 30
0.0
 11
88.93403599999999
 21
-78.51368599999992
 31
0.0
  0
LINE
  5
D3
330
17
100
AcDbEntity
  8
0
100
AcDbLine
 10
88.93403599999999
 20
-78.51368599999992
 30
0.0
 11
88.96426199999999
 21
-78.31632799999993
 31
0.0
  0
LINE
  5
D4
330
17
100
AcDbEntity
  8
0
100
AcDbLine
 10
88.96426199999999
 20
-78.31632799999993
 30
0.0
 11
89.013284
 21
-78.12582799999993
 31
0.0
  0
LINE
  5
D5
330
17
100
AcDbEntity
  8
0
100
AcDbLine
 10
89.013284
 20
-78.12582799999993
 30
0.0
 11
89.080086
 21
-77.94320199999993
 31
0.0
  0
LINE
  5
D6
330
17
100
AcDbEntity
  8
0
100
AcDbLine
 10
89.080086
 20
-77.94320199999993
 30
0.0
 11
89.16390599999998
 21
-77.76946599999992
 31
0.0
  0
LINE
  5
D7
330
17
100
AcDbEntity
  8
0
100
AcDbLine
 10
89.16390599999998
 20
-77.76946599999992
 30
0.0
 11
89.26347399999999
 21
-77.60563599999993
 31
0.0
  0
LINE
  5
D8
330
17
100
AcDbEntity
  8
0
100
AcDbLine
 10
89.26347399999999
 20
-77.60563599999993
 30
0.0
 11
89.37802799999999
 21
-77.45247399999992
 31
0.0
  0
LINE
  5
D9
330
17
100
AcDbEntity
  8
0
100
AcDbLine
 10
89.37802799999999
 20
-77.45247399999992
 30
0.0
 11
89.50629799999999
 21
-77.31124999999993
 31
0.0
  0
LINE
  5
DA
330
17
100
AcDbEntity
  8
0
100
AcDbLine
 10
89.50629799999999
 20
-77.31124999999993
 30
0.0
 11
89.64752199999998
 21
-77.18297999999993
 31
0.0
  0
LINE
  5
DB
330
17
100
AcDbEntity
  8
0
100
AcDbLine
 10
89.64752199999998
 20
-77.18297999999993
 30
0.0
 11
89.80068399999999
 21
-77.06842599999993
 31
0.0
  0
LINE
  5
DC
330
17
100
AcDbEntity
  8
0
100
AcDbLine
 10
89.80068399999999
 20
-77.06842599999993
 30
0.0
 11
89.96451399999998
 21
-76.96885799999993
 31
0.0
  0
LINE
  5
DD
330
17
100
AcDbEntity
  8
0
100
AcDbLine
 10
89.96451399999998
 20
-76.96885799999993
 30
0.0
 11
90.13824999999999
 21
-76.88503799999992
 31
0.0
  0
LINE
  5
DE
330
17
100
AcDbEntity
  8
0
100
AcDbLine
 10
90.13824999999999
 20
-76.88503799999992
 30
0.0
 11
90.32087599999998
 21
-76.81823599999994
 31
0.0
  0
LINE
  5
DF
330
17
100
AcDbEntity
  8
0
100
AcDbLine
 10
90.32087599999998
 20
-76.81823599999994
 30
0.0
 11
90.51137599999998
 21
-76.76921399999993
 31
0.0
  0
LINE
  5
E0
330
17
100
AcDbEntity
  8
0
100
AcDbLine
 10
90.51137599999998
 20
-76.76921399999993
 30
0.0
 11
90.70873399999998
 21
-76.73898799999994
 31
0.0
  0
LINE
  5
E1
330
17
100
AcDbEntity
  8
0
100
AcDbLine
 10
90.70873399999998
 20
-76.73898799999994
 30
0.0
 11
90.91193399999999
 21
-76.72882799999992
 31
0.0
  0
LINE
  5
E2
330
17
100
AcDbEntity
  8
0
100
AcDbLine
 10
90.91193399999999
 20
-76.72882799999992
 30
0.0
 11
91.11513399999998
 21
-76.73898799999994
 31
0.0
  0
LINE
  5
E3
330
17
100
AcDbEntity
  8
0
100
AcDbLine
 10
91.11513399999998
 20
-76.73898799999994
 30
0.0
 11
91.31249199999998
 21
-76.76921399999993
 31
0.0
  0
LINE
  5
E4
330
17
100
AcDbEntity
  8
0
100
AcDbLine
 10
91.31249199999998
 20
-76.76921399999993
 30
0.0
 11
91.50299199999998
 21
-76.81823599999994
 31
0.0
  0
LINE
  5
E5
330
17
100
AcDbEntity
  8
0
100
AcDbLine
 10
91.50299199999998
 20
-76.81823599999994
 30
0.0
 11
91.68561799999998
 21
-76.88503799999992
 31
0.0
  0
LINE
  5
E6
330
17
100
AcDbEntity
  8
0
100
AcDbLine
 10
91.68561799999998
 20
-76.88503799999992
 30
0.0
 11
91.859354
 21
-76.96885799999993
 31
0.0
  0
LINE
  5
E7
330
17
100
AcDbEntity
  8
0
100
AcDbLine
 10
91.859354
 20
-76.96885799999993
 30
0.0
 11
92.02318399999999
 21
-77.06842599999993
 31
0.0
  0
LINE
  5
E8
330
17
100
AcDbEntity
  8
0
100
AcDbLine
 10
92.02318399999999
 20
-77.06842599999993
 30
0.0
 11
92.17634599999998
 21
-77.18297999999993
 31
0.0
  0
LINE
  5
E9
330
17
100
AcDbEntity
  8
0
100
AcDbLine
 10
92.17634599999998
 20
-77.18297999999993
 30
0.0
 11
92.31756999999999
 21
-77.31124999999993
 31
0.0
  0
LINE
  5
EA
330
17
100
AcDbEntity
  8
0
100
AcDbLine
 10
92.31756999999999
 20
-77.31124999999993
 30
0.0
 11
92.44583999999998
 21
-77.45247399999992
 31
0.0
  0
LINE
  5
EB
330
17
100
AcDbEntity
  8
0
100
AcDbLine
 10
92.44583999999998
 20
-77.45247399999992
 30
0.0
 11
92.56039399999999
 21
-77.60563599999993
 31
0.0
  0
LINE
  5
EC
330
17
100
AcDbEntity
  8
0
100
AcDbLine
 10
92.56039399999999
 20
-77.60563599999993
 30
0.0
 11
92.659962
 21
-77.76946599999992
 31
0.0
  0
LINE
  5
ED
330
17
100
AcDbEntity
  8
0
100
AcDbLine
 10
92.659962
 20
-77.76946599999992
 30
0.0
 11
92.74378199999998
 21
-77.94320199999993
 31
0.0
  0
LINE
  5
EE
330
17
100
AcDbEntity
  8
0
100
AcDbLine
 10
92.74378199999998
 20
-77.94320199999993
 30
0.0
 11
92.81058399999998
 21
-78.12582799999993
 31
0.0
  0
LINE
  5
EF
330
17
100
AcDbEntity
  8
0
100
AcDbLine
 10
92.81058399999998
 20
-78.12582799999993
 30
0.0
 11
92.85960599999997
 21
-78.31632799999993
 31
0.0
  0
LINE
  5
F0
330
17
100
AcDbEntity
  8
0
100
AcDbLine
 10
92.85960599999997
 20
-78.31632799999993
 30
0.0
 11
92.88983199999998
 21
-78.51368599999992
 31
0.0
  0
LINE
  5
F1
330
17
100
AcDbEntity
  8
0
100
AcDbLine
 10
92.88983199999998
 20
-78.51368599999992
 30
0.0
 11
92.89999199999998
 21
-78.71688599999993
 31
0.0
  0
LINE
  5
F2
330
17
100
AcDbEntity
  8
0
100
AcDbLine
 10
122.53798199999999
 20
-90.14231399999993
 30
0.0
 11
126.902718
 21
-87.08135999999993
 31
0.0
  0
LINE
  5
F3
330
17
100
AcDbEntity
  8
0
100
AcDbLine
 10
126.902718
 20
-87.08135999999993
 30
0.0
 11
127.11379199999999
 21
-86.99499999999995
 31
0.0
  0
LINE
  5
F4
330
17
100
AcDbEntity
  8
0
100
AcDbLine
 10
127.11379199999999
 20
-86.99499999999995
 30
0.0
 11
127.68834
 21
-86.81110399999994
 31
0.0
  0
LINE
  5
F5
330
17
100
AcDbEntity
  8
0
100
AcDbLine
 10
127.68834
 20
-86.81110399999994
 30
0.0
 11
128.537716
 21
-86.64193999999995
 31
0.0
  0
LINE
  5
F6
330
17
100
AcDbEntity
  8
0
100
AcDbLine
 10
128.537716
 20
-86.64193999999995
 30
0.0
 11
129.038096
 21
-86.59774399999995
 31
0.0
  0
LINE
  5
F7
330
17
100
AcDbEntity
  8
0
100
AcDbLine
 10
129.038096
 20
-86.59774399999995
 30
0.0
 11
129.574036
 21
-86.59952199999995
 31
0.0
  0
LINE
  5
F8
330
17
100
AcDbEntity
  8
0
100
AcDbLine
 10
129.574036
 20
-86.59952199999995
 30
0.0
 11
130.134614
 21
-86.66098999999996
 31
0.0
  0
LINE
  5
F9
330
17
100
AcDbEntity
  8
0
100
AcDbLine
 10
130.134614
 20
-86.66098999999996
 30
0.0
 11
130.708654
 21
-86.79637199999996
 31
0.0
  0
LINE
  5
FA
330
17
100
AcDbEntity
  8
0
100
AcDbLine
 10
130.708654
 20
-86.79637199999996
 30
0.0
 11
130.997198
 21
-86.89619399999995
 31
0.0
  0
LINE
  5
FB
330
17
100
AcDbEntity
  8
0
100
AcDbLine
 10
130.997198
 20
-86.89619399999995
 30
0.0
 11
131.28498
 21
-87.01963799999996
 31
0.0
  0
LINE
  5
FC
330
17
100
AcDbEntity
  8
0
100
AcDbLine
 10
131.28498
 20
-87.01963799999996
 30
0.0
 11
131.57073
 21
-87.16848199999995
 31
0.0
  0
LINE
  5
FD
330
17
100
AcDbEntity
  8
0
100
AcDbLine
 10
131.57073
 20
-87.16848199999995
 30
0.0
 11
131.852924
 21
-87.34450399999996
 31
0.0
  0
LINE
  5
FE
330
17
100
AcDbEntity
  8
0
100
AcDbLine
 10
131.852924
 20
-87.34450399999996
 30
0.0
 11
132.130292
 21
-87.54948199999995
 31
0.0
  0
LINE
  5
FF
330
17
100
AcDbEntity
  8
0
100
AcDbLine
 10
132.130292
 20
-87.54948199999995
 30
0.0
 11
132.40131
 21
-87.78519399999996
 31
0.0
  0
LINE
  5
100
330
17
100
AcDbEntity
  8
0
100
AcDbLine
 10
132.40131
 20
-87.78519399999996
 30
0.0
 11
132.66470800000002
 21
-88.05341799999995
 31
0.0
  0
LINE
  5
101
330
17
100
AcDbEntity
  8
0
100
AcDbLine
 10
132.66470800000002
 20
-88.05341799999995
 30
0.0
 11
132.918962
 21
-88.35593199999994
 31
0.0
  0
LINE
  5
102
330
17
100
AcDbEntity
  8
0
100
AcDbLine
 10
132.918962
 20
-88.35593199999994
 30
0.0
 11
133.162802
 21
-88.69451399999996
 31
0.0
  0
LINE
  5
103
330
17
100
AcDbEntity
  8
0
100
AcDbLine
 10
133.162802
 20
-88.69451399999996
 30
0.0
 11
133.613906
 21
-89.48673999999995
 31
0.0
  0
LINE
  5
104
330
17
100
AcDbEntity
  8
0
100
AcDbLine
 10
133.613906
 20
-89.48673999999995
 30
0.0
 11
136.00557
 21
-95.55175199999995
 31
0.0
  0
LINE
  5
105
330
17
100
AcDbEntity
  8
0
100
AcDbLine
 10
136.00557
 20
-95.55175199999995
 30
0.0
 11
136.00582400000002
 21
-95.55327599999995
 31
0.0
  0
LINE
  5
106
330
17
100
AcDbEntity
  8
0
100
AcDbLine
 10
136.00582400000002
 20
-95.55327599999995
 30
0.0
 11
148.15235800000002
 21
-125.97002999999995
 31
0.0
  0
LINE
  5
107
330
17
100
AcDbEntity
  8
0
100
AcDbLine
 10
148.15235800000002
 20
-125.97002999999995
 30
0.0
 11
151.02027200000003
 21
-136.49070999999995
 31
0.0
  0
LINE
  5
108
330
17
100
AcDbEntity
  8
0
100
AcDbLine
 10
151.02027200000003
 20
-136.49070999999995
 30
0.0
 11
151.73553600000002
 21
-141.64792599999993
 31
0.0
  0
LINE
  5
109
330
17
100
AcDbEntity
  8
0
100
AcDbLine
 10
151.73553600000002
 20
-141.64792599999993
 30
0.0
 11
151.80640200000002
 21
-144.04416199999994
 31
0.0
  0
LINE
  5
10A
330
17
100
AcDbEntity
  8
0
100
AcDbLine
 10
151.80640200000002
 20
-144.04416199999994
 30
0.0
 11
151.64562000000004
 21
-146.25929599999992
 31
0.0
  0
LINE
  5
10B
330
17
100
AcDbEntity
  8
0
100
AcDbLine
 10
151.64562000000004
 20
-146.25929599999992
 30
0.0
 11
135.169148
 21
-147.12010199999995
 31
0.0
  0
LINE
  5
10C
330
17
100
AcDbEntity
  8
0
100
AcDbLine
 10
135.169148
 20
-147.12010199999995
 30
0.0
 11
128.065022
 21
-146.65604399999992
 31
0.0
  0
LINE
  5
10D
330
17
100
AcDbEntity
  8
0
100
AcDbLine
 10
128.065022
 20
-146.65604399999992
 30
0.0
 11
128.00838000000002
 21
-145.77745799999994
 31
0.0
  0
LINE
  5
10E
330
17
100
AcDbEntity
  8
0
100
AcDbLine
 10
128.00838000000002
 20
-145.77745799999994
 30
0.0
 11
117.10619200000001
 21
-105.63631399999994
 31
0.0
  0
LINE
  5
10F
330
17
100
AcDbEntity
  8
0
100
AcDbLine
 10
117.10619200000001
 20
-105.63631399999994
 30
0.0
 11
117.04370800000001
 21
-105.18901999999994
 31
0.0
  0
LINE
  5
110
330
17
100
AcDbEntity
  8
0
100
AcDbLine
 10
117.04370800000001
 20
-105.18901999999994
 30
0.0
 11
117.01907000000001
 21
-104.73969399999994
 31
0.0
  0
LINE
  5
111
330
17
100
AcDbEntity
  8
0
100
AcDbLine
 10
117.01907000000001
 20
-104.73969399999994
 30
0.0
 11
117.03227800000002
 21
-104.29062199999994
 31
0.0
  0
LINE
  5
112
330
17
100
AcDbEntity
  8
0
100
AcDbLine
 10
117.03227800000002
 20
-104.29062199999994
 30
0.0
 11
117.08307800000001
 21
-103.84408999999995
 31
0.0
  0
LINE
  5
113
330
17
100
AcDbEntity
  8
0
100
AcDbLine
 10
117.08307800000001
 20
-103.84408999999995
 30
0.0
 11
117.17121600000002
 21
-103.40263799999995
 31
0.0
  0
LINE
  5
114
330
17
100
AcDbEntity
  8
0
100
AcDbLine
 10
117.17121600000002
 20
-103.40263799999995
 30
0.0
 11
117.29643800000001
 21
-102.96880599999994
 31
0.0
  0
LINE
  5
115
330
17
100
AcDbEntity
  8
0
100
AcDbLine
 10
117.29643800000001
 20
-102.96880599999994
 30
0.0
 11
117.66270600000001
 21
-102.07320199999994
 31
0.0
  0
LINE
  5
116
330
17
100
AcDbEntity
  8
0
100
AcDbLine
 10
117.66270600000001
 20
-102.07320199999994
 30
0.0
 11
117.86463600000002
 21
-100.98735199999994
 31
0.0
  0
LINE
  5
117
330
17
100
AcDbEntity
  8
0
100
AcDbLine
 10
117.86463600000002
 20
-100.98735199999994
 30
0.0
 11
117.93855
 21
-99.88905599999994
 31
0.0
  0
LINE
  5
118
330
17
100
AcDbEntity
  8
0
100
AcDbLine
 10
117.93855
 20
-99.88905599999994
 30
0.0
 11
117.88419400000001
 21
-98.78974399999996
 31
0.0
  0
LINE
  5
119
330
17
100
AcDbEntity
  8
0
100
AcDbLine
 10
117.88419400000001
 20
-98.78974399999996
 30
0.0
 11
117.50192400000002
 21
-96.77298399999995
 31
0.0
  0
LINE
  5
11A
330
17
100
AcDbEntity
  8
0
100
AcDbLine
 10
117.50192400000002
 20
-96.77298399999995
 30
0.0
 11
117.46534800000002
 21
-96.45497599999995
 31
0.0
  0
LINE
  5
11B
330
17
100
AcDbEntity
  8
0
100
AcDbLine
 10
117.46534800000002
 20
-96.45497599999995
 30
0.0
 11
117.45239400000001
 21
-96.13747599999995
 31
0.0
  0
LINE
  5
11C
330
17
100
AcDbEntity
  8
0
100
AcDbLine
 10
117.45239400000001
 20
-96.13747599999995
 30
0.0
 11
117.46230000000001
 21
-95.82200799999994
 31
0.0
  0
LINE
  5
11D
330
17
100
AcDbEntity
  8
0
100
AcDbLine
 10
117.46230000000001
 20
-95.82200799999994
 30
0.0
 11
117.49481200000001
 21
-95.50958799999994
 31
0.0
  0
LINE
  5
11E
330
17
100
AcDbEntity
  8
0
100
AcDbLine
 10
117.49481200000001
 20
-95.50958799999994
 30
0.0
 11
117.549422
 21
-95.20123199999995
 31
0.0
  0
LINE
  5
11F
330
17
100
AcDbEntity
  8
0
100
AcDbLine
 10
117.549422
 20
-95.20123199999995
 30
0.0
 11
117.625622
 21
-94.89846399999993
 31
0.0
  0
LINE
  5
120
330
17
100
AcDbEntity
  8
0
100
AcDbLine
 10
117.625622
 20
-94.89846399999993
 30
0.0
 11
117.72315800000001
 21
-94.60204599999994
 31
0.0
  0
LINE
  5
121
330
17
100
AcDbEntity
  8
0
100
AcDbLine
 10
117.72315800000001
 20
-94.60204599999994
 30
0.0
 11
117.84152200000001
 21
-94.31350199999994
 31
0.0
  0
LINE
  5
122
330
17
100
AcDbEntity
  8
0
100
AcDbLine
 10
117.84152200000001
 20
-94.31350199999994
 30
0.0
 11
117.98046000000002
 21
-94.03384799999994
 31
0.0
  0
LINE
  5
123
330
17
100
AcDbEntity
  8
0
100
AcDbLine
 10
117.98046000000002
 20
-94.03384799999994
 30
0.0
 11
118.13921000000002
 21
-93.76409999999994
 31
0.0
  0
LINE
  5
124
330
17
100
AcDbEntity
  8
0
100
AcDbLine
 10
118.13921000000002
 20
-93.76409999999994
 30
0.0
 11
118.31751800000002
 21
-93.50552799999994
 31
0.0
  0
LINE
  5
125
330
17
100
AcDbEntity
  8
0
100
AcDbLine
 10
118.31751800000002
 20
-93.50552799999994
 30
0.0
 11
118.51513000000003
 21
-93.25940199999995
 31
0.0
  0
LINE
  5
126
330
17
100
AcDbEntity
  8
0
100
AcDbLine
 10
118.51513000000003
 20
-93.25940199999995
 30
0.0
 11
118.73128400000002
 21
-93.02673799999995
 31
0.0
  0
LINE
  5
127
330
17
100
AcDbEntity
  8
0
100
AcDbLine
 10
118.73128400000002
 20
-93.02673799999995
 30
0.0
 11
118.96572600000002
 21
-92.80880599999995
 31
0.0
  0
LINE
  5
128
330
17
100
AcDbEntity
  8
0
100
AcDbLine
 10
118.96572600000002
 20
-92.80880599999995
 30
0.0
 11
122.53798200000003
 21
-90.14180599999995
 31
0.0
  0
LINE
  5
129
330
17
100
AcDbEntity
  8
0
100
AcDbLine
 10
109.23524000000003
 20
-77.25841799999995
 30
0.0
 11
118.04446800000004
 21
-77.37195599999995
 31
0.0
  0
LINE
  5
12A
330
17
100
AcDbEntity
  8
0
100
AcDbLine
 10
118.04446800000004
 20
-77.37195599999995
 30
0.0
 11
117.72519000000004
 21
-78.14182999999996
 31
0.0
  0
LINE
  5
12B
330
17
100
AcDbEntity
  8
0
100
AcDbLine
 10
117.72519000000004
 20
-78.14182999999996
 30
0.0
 11
117.44579000000003
 21
-79.05064199999995
 31
0.0
  0
LINE
  5
12C
330
17
100
AcDbEntity
  8
0
100
AcDbLine
 10
117.44579000000003
 20
-79.05064199999995
 30
0.0
 11
117.19306000000003
 21
-80.26120599999996
 31
0.0
  0
LINE
  5
12D
330
17
100
AcDbEntity
  8
0
100
AcDbLine
 10
117.19306000000003
 20
-80.26120599999996
 30
0.0
 11
117.04675600000002
 21
-81.73770799999996
 31
0.0
  0
LINE
  5
12E
330
17
100
AcDbEntity
  8
0
100
AcDbLine
 10
117.04675600000002
 20
-81.73770799999996
 30
0.0
 11
117.08663400000002
 21
-83.44458799999995
 31
0.0
  0
LINE
  5
12F
330
17
100
AcDbEntity
  8
0
100
AcDbLine
 10
117.08663400000002
 20
-83.44458799999995
 30
0.0
 11
117.20144200000001
 21
-84.37321199999995
 31
0.0
  0
LINE
  5
130
330
17
100
AcDbEntity
  8
0
100
AcDbLine
 10
117.20144200000001
 20
-84.37321199999995
 30
0.0
 11
117.39270400000001
 21
-85.34628599999996
 31
0.0
  0
LINE
  5
131
330
17
100
AcDbEntity
  8
0
100
AcDbLine
 10
117.39270400000001
 20
-85.34628599999996
 30
0.0
 11
117.67032600000002
 21
-86.35898399999996
 31
0.0
  0
LINE
  5
132
330
17
100
AcDbEntity
  8
0
100
AcDbLine
 10
117.67032600000002
 20
-86.35898399999996
 30
0.0
 11
118.04446800000002
 21
-87.40698799999996
 31
0.0
  0
LINE
  5
133
330
17
100
AcDbEntity
  8
0
100
AcDbLine
 10
118.04446800000002
 20
-87.40698799999996
 30
0.0
 11
110.52937000000003
 21
-92.56090199999996
 31
0.0
  0
LINE
  5
134
330
17
100
AcDbEntity
  8
0
100
AcDbLine
 10
110.52937000000003
 20
-92.56090199999996
 30
0.0
 11
109.99520800000002
 21
-91.20758999999997
 31
0.0
  0
LINE
  5
135
330
17
100
AcDbEntity
  8
0
100
AcDbLine
 10
109.99520800000002
 20
-91.20758999999997
 30
0.0
 11
108.99698800000002
 21
-87.67673599999996
 31
0.0
  0
LINE
  5
136
330
17
100
AcDbEntity
  8
0
100
AcDbLine
 10
108.99698800000002
 20
-87.67673599999996
 30
0.0
 11
108.60709800000001
 21
-85.34298399999997
 31
0.0
  0
LINE
  5
137
330
17
100
AcDbEntity
  8
0
100
AcDbLine
 10
108.60709800000001
 20
-85.34298399999997
 30
0.0
 11
108.441236
 21
-82.76259799999997
 31
0.0
  0
LINE
  5
138
330
17
100
AcDbEntity
  8
0
100
AcDbLine
 10
108.441236
 20
-82.76259799999997
 30
0.0
 11
108.47781200000001
 21
-81.41080999999997
 31
0.0
  0
LINE
  5
139
330
17
100
AcDbEntity
  8
0
100
AcDbLine
 10
108.47781200000001
 20
-81.41080999999997
 30
0.0
 11
108.61294000000001
 21
-80.03463799999997
 31
0.0
  0
LINE
  5
13A
330
17
100
AcDbEntity
  8
0
100
AcDbLine
 10
108.61294000000001
 20
-80.03463799999997
 30
0.0
 11
108.86059000000002
 21
-78.64652799999998
 31
0.0
  0
LINE
  5
13B
330
17
100
AcDbEntity
  8
0
100
AcDbLine
 10
108.86059000000002
 20
-78.64652799999998
 30
0.0
 11
109.23524000000002
 21
-77.25867199999998
 31
0.0
  0
LINE
  5
13C
330
17
100
AcDbEntity
  8
0
100
AcDbLine
 10
120.83059400000002
 20
-76.80604399999997
 30
0.0
 11
120.41962200000002
 21
-77.50200399999999
 31
0.0
  0
LINE
  5
13D
330
17
100
AcDbEntity
  8
0
100
AcDbLine
 10
120.41962200000002
 20
-77.50200399999999
 30
0.0
 11
120.04040000000002
 21
-78.32267799999998
 31
0.0
  0
LINE
  5
13E
330
17
100
AcDbEntity
  8
0
100
AcDbLine
 10
120.04040000000002
 20
-78.32267799999998
 30
0.0
 11
119.66448000000001
 21
-79.41487799999999
 31
0.0
  0
LINE
  5
13F
330
17
100
AcDbEntity
  8
0
100
AcDbLine
 10
119.66448000000001
 20
-79.41487799999999
 30
0.0
 11
119.38177800000001
 21
-80.74583799999998
 31
0.0
  0
LINE
  5
140
330
17
100
AcDbEntity
  8
0
100
AcDbLine
 10
119.38177800000001
 20
-80.74583799999998
 30
0.0
 11
119.30329200000001
 21
-81.49056599999999
 31
0.0
  0
LINE
  5
141
330
17
100
AcDbEntity
  8
0
100
AcDbLine
 10
119.30329200000001
 20
-81.49056599999999
 30
0.0
 11
119.28170200000001
 21
-82.282792
 31
0.0
  0
LINE
  5
142
330
17
100
AcDbEntity
  8
0
100
AcDbLine
 10
119.28170200000001
 20
-82.282792
 30
0.0
 11
119.32818400000001
 21
-83.11819799999999
 31
0.0
  0
LINE
  5
143
330
17
100
AcDbEntity
  8
0
100
AcDbLine
 10
119.32818400000001
 20
-83.11819799999999
 30
0.0
 11
119.45391400000001
 21
-83.992974
 31
0.0
  0
LINE
  5
144
330
17
100
AcDbEntity
  8
0
100
AcDbLine
 10
119.45391400000001
 20
-83.992974
 30
0.0
 11
119.67006800000001
 21
-84.902802
 31
0.0
  0
LINE
  5
145
330
17
100
AcDbEntity
  8
0
100
AcDbLine
 10
119.67006800000001
 20
-84.902802
 30
0.0
 11
120.07900800000002
 21
-86.11234999999999
 31
0.0
  0
LINE
  5
146
330
17
100
AcDbEntity
  8
0
100
AcDbLine
 10
120.07900800000002
 20
-86.11234999999999
 30
0.0
 11
120.14504800000002
 21
-86.384384
 31
0.0
  0
LINE
  5
147
330
17
100
AcDbEntity
  8
0
100
AcDbLine
 10
120.14504800000002
 20
-86.384384
 30
0.0
 11
120.18645000000002
 21
-86.65819599999999
 31
0.0
  0
LINE
  5
148
330
17
100
AcDbEntity
  8
0
100
AcDbLine
 10
120.18645000000002
 20
-86.65819599999999
 30
0.0
 11
120.20397600000003
 21
-86.932262
 31
0.0
  0
LINE
  5
149
330
17
100
AcDbEntity
  8
0
100
AcDbLine
 10
120.20397600000003
 20
-86.932262
 30
0.0
 11
120.19788000000003
 21
-87.205566
 31
0.0
  0
LINE
  5
14A
330
17
100
AcDbEntity
  8
0
100
AcDbLine
 10
120.19788000000003
 20
-87.205566
 30
0.0
 11
120.16892400000003
 21
-87.47632999999999
 31
0.0
  0
LINE
  5
14B
330
17
100
AcDbEntity
  8
0
100
AcDbLine
 10
120.16892400000003
 20
-87.47632999999999
 30
0.0
 11
120.11761600000003
 21
-87.743538
 31
0.0
  0
LINE
  5
14C
330
17
100
AcDbEntity
  8
0
100
AcDbLine
 10
120.11761600000003
 20
-87.743538
 30
0.0
 11
120.04446400000003
 21
-88.005412
 31
0.0
  0
LINE
  5
14D
330
17
100
AcDbEntity
  8
0
100
AcDbLine
 10
120.04446400000003
 20
-88.005412
 30
0.0
 11
119.94997600000002
 21
-88.260936
 31
0.0
  0
LINE
  5
14E
330
17
100
AcDbEntity
  8
0
100
AcDbLine
 10
119.94997600000002
 20
-88.260936
 30
0.0
 11
119.83491400000003
 21
-88.508332
 31
0.0
  0
LINE
  5
14F
330
17
100
AcDbEntity
  8
0
100
AcDbLine
 10
119.83491400000003
 20
-88.508332
 30
0.0
 11
119.69978600000003
 21
-88.74658399999998
 31
0.0
  0
LINE
  5
150
330
17
100
AcDbEntity
  8
0
100
AcDbLine
 10
119.69978600000003
 20
-88.74658399999998
 30
0.0
 11
119.54510000000003
 21
-88.97416799999999
 31
0.0
  0
LINE
  5
151
330
17
100
AcDbEntity
  8
0
100
AcDbLine
 10
119.54510000000003
 20
-88.97416799999999
 30
0.0
 11
119.37136400000003
 21
-89.18956
 31
0.0
  0
LINE
  5
152
330
17
100
AcDbEntity
  8
0
100
AcDbLine
 10
119.37136400000003
 20
-89.18956
 30
0.0
 11
119.17934000000004
 21
-89.39149
 31
0.0
  0
LINE
  5
153
330
17
100
AcDbEntity
  8
0
100
AcDbLine
 10
119.17934000000004
 20
-89.39149
 30
0.0
 11
118.96928200000004
 21
-89.57868800000001
 31
0.0
  0
LINE
  5
154
330
17
100
AcDbEntity
  8
0
100
AcDbLine
 10
118.96928200000004
 20
-89.57868800000001
 30
0.0
 11
114.45798800000003
 21
-92.69755400000001
 31
0.0
  0
LINE
  5
155
330
17
100
AcDbEntity
  8
0
100
AcDbLine
 10
114.45798800000003
 20
-92.69755400000001
 30
0.0
 11
114.59057600000003
 21
-93.12173400000002
 31
0.0
  0
LINE
  5
156
330
17
100
AcDbEntity
  8
0
100
AcDbLine
 10
114.59057600000003
 20
-93.12173400000002
 30
0.0
 11
115.00840600000002
 21
-94.18447000000002
 31
0.0
  0
LINE
  5
157
330
17
100
AcDbEntity
  8
0
100
AcDbLine
 10
115.00840600000002
 20
-94.18447000000002
 30
0.0
 11
115.74119600000003
 21
-95.57080200000003
 31
0.0
  0
LINE
  5
158
330
17
100
AcDbEntity
  8
0
100
AcDbLine
 10
115.74119600000003
 20
-95.57080200000003
 30
0.0
 11
116.23522600000003
 21
-96.28682800000003
 31
0.0
  0
LINE
  5
159
330
17
100
AcDbEntity
  8
0
100
AcDbLine
 10
116.23522600000003
 20
-96.28682800000003
 30
0.0
 11
116.81917200000002
 21
-96.96577000000003
 31
0.0
  0
LINE
  5
15A
330
17
100
AcDbEntity
  8
0
100
AcDbLine
 10
116.81917200000002
 20
-96.96577000000003
 30
0.0
 11
116.79986800000002
 21
-96.81641800000003
 31
0.0
  0
LINE
  5
15B
330
17
100
AcDbEntity
  8
0
100
AcDbLine
 10
116.79986800000002
 20
-96.81641800000003
 30
0.0
 11
116.77624600000001
 21
-96.40519200000001
 31
0.0
  0
LINE
  5
15C
330
17
100
AcDbEntity
  8
0
100
AcDbLine
 10
116.77624600000001
 20
-96.40519200000001
 30
0.0
 11
116.79885200000001
 21
-95.78797200000001
 31
0.0
  0
LINE
  5
15D
330
17
100
AcDbEntity
  8
0
100
AcDbLine
 10
116.79885200000001
 20
-95.78797200000001
 30
0.0
 11
116.918486
 21
-95.02038400000002
 31
0.0
  0
LINE
  5
15E
330
17
100
AcDbEntity
  8
0
100
AcDbLine
 10
116.918486
 20
-95.02038400000002
 30
0.0
 11
117.0305
 21
-94.59772800000002
 31
0.0
  0
LINE
  5
15F
330
17
100
AcDbEntity
  8
0
100
AcDbLine
 10
117.0305
 20
-94.59772800000002
 30
0.0
 11
117.18594800000001
 21
-94.15830800000002
 31
0.0
  0
LINE
  5
160
330
17
100
AcDbEntity
  8
0
100
AcDbLine
 10
117.18594800000001
 20
-94.15830800000002
 30
0.0
 11
117.39118
 21
-93.70923600000002
 31
0.0
  0
LINE
  5
161
330
17
100
AcDbEntity
  8
0
100
AcDbLine
 10
117.39118
 20
-93.70923600000002
 30
0.0
 11
117.65229200000002
 21
-93.25737000000002
 31
0.0
  0
LINE
  5
162
330
17
100
AcDbEntity
  8
0
100
AcDbLine
 10
117.65229200000002
 20
-93.25737000000002
 30
0.0
 11
117.97588800000001
 21
-92.80956800000003
 31
0.0
  0
LINE
  5
163
330
17
100
AcDbEntity
  8
0
100
AcDbLine
 10
117.97588800000001
 20
-92.80956800000003
 30
0.0
 11
118.36831800000002
 21
-92.37294200000004
 31
0.0
  0
LINE
  5
164
330
17
100
AcDbEntity
  8
0
100
AcDbLine
 10
118.36831800000002
 20
-92.37294200000004
 30
0.0
 11
118.83567800000002
 21
-91.95435000000002
 31
0.0
  0
LINE
  5
165
330
17
100
AcDbEntity
  8
0
100
AcDbLine
 10
118.83567800000002
 20
-91.95435000000002
 30
0.0
 11
126.75108000000002
 21
-86.57539200000002
 31
0.0
  0
LINE
  5
166
330
17
100
AcDbEntity
  8
0
100
AcDbLine
 10
126.75108000000002
 20
-86.57539200000002
 30
0.0
 11
127.137668
 21
-86.38565400000002
 31
0.0
  0
LINE
  5
167
330
17
100
AcDbEntity
  8
0
100
AcDbLine
 10
127.137668
 20
-86.38565400000002
 30
0.0
 11
127.53594000000001
 21
-86.22487200000002
 31
0.0
  0
LINE
  5
168
330
17
100
AcDbEntity
  8
0
100
AcDbLine
 10
127.53594000000001
 20
-86.22487200000002
 30
0.0
 11
127.944626
 21
-86.09406200000002
 31
0.0
  0
LINE
  5
169
330
17
100
AcDbEntity
  8
0
100
AcDbLine
 10
127.944626
 20
-86.09406200000002
 30
0.0
 11
128.36194799999998
 21
-85.99449400000003
 31
0.0
  0
LINE
  5
16A
330
17
100
AcDbEntity
  8
0
100
AcDbLine
 10
128.36194799999998
 20
-85.99449400000003
 30
0.0
 11
128.786128
 21
-85.92718400000003
 31
0.0
  0
LINE
  5
16B
330
17
100
AcDbEntity
  8
0
100
AcDbLine
 10
128.786128
 20
-85.92718400000003
 30
0.0
 11
129.215642
 21
-85.89314800000002
 31
0.0
  0
LINE
  5
16C
330
17
100
AcDbEntity
  8
0
100
AcDbLine
 10
129.215642
 20
-85.89314800000002
 30
0.0
 11
130.074162
 21
-85.91626200000003
 31
0.0
  0
LINE
  5
16D
330
17
100
AcDbEntity
  8
0
100
AcDbLine
 10
130.074162
 20
-85.91626200000003
 30
0.0
 11
130.51764599999998
 21
-85.97417400000003
 31
0.0
  0
LINE
  5
16E
330
17
100
AcDbEntity
  8
0
100
AcDbLine
 10
130.51764599999998
 20
-85.97417400000003
 30
0.0
 11
130.966972
 21
-86.07425000000003
 31
0.0
  0
LINE
  5
16F
330
17
100
AcDbEntity
  8
0
100
AcDbLine
 10
130.966972
 20
-86.07425000000003
 30
0.0
 11
131.41680599999998
 21
-86.22588800000003
 31
0.0
  0
LINE
  5
170
330
17
100
AcDbEntity
  8
0
100
AcDbLine
 10
131.41680599999998
 20
-86.22588800000003
 30
0.0
 11
131.86181399999995
 21
-86.43823200000003
 31
0.0
  0
LINE
  5
171
330
17
100
AcDbEntity
  8
0
100
AcDbLine
 10
131.86181399999995
 20
-86.43823200000003
 30
0.0
 11
132.29615399999997
 21
-86.72017200000003
 31
0.0
  0
LINE
  5
172
330
17
100
AcDbEntity
  8
0
100
AcDbLine
 10
132.29615399999997
 20
-86.72017200000003
 30
0.0
 11
132.714746
 21
-87.08110600000003
 31
0.0
  0
LINE
  5
173
330
17
100
AcDbEntity
  8
0
100
AcDbLine
 10
132.714746
 20
-87.08110600000003
 30
0.0
 11
132.98474799999997
 21
-87.37346000000004
 31
0.0
  0
LINE
  5
174
330
17
100
AcDbEntity
  8
0
100
AcDbLine
 10
132.98474799999997
 20
-87.37346000000004
 30
0.0
 11
133.26490999999996
 21
-87.74226800000004
 31
0.0
  0
LINE
  5
175
330
17
100
AcDbEntity
  8
0
100
AcDbLine
 10
133.26490999999996
 20
-87.74226800000004
 30
0.0
 11
133.77468799999994
 21
-88.58554800000003
 31
0.0
  0
LINE
  5
176
330
17
100
AcDbEntity
  8
0
100
AcDbLine
 10
133.77468799999994
 20
-88.58554800000003
 30
0.0
 11
136.75359999999995
 21
-95.17227600000004
 31
0.0
  0
LINE
  5
177
330
17
100
AcDbEntity
  8
0
100
AcDbLine
 10
136.75359999999995
 20
-95.17227600000004
 30
0.0
 11
136.61339199999992
 21
-94.81058000000004
 31
0.0
  0
LINE
  5
178
330
17
100
AcDbEntity
  8
0
100
AcDbLine
 10
136.61339199999992
 20
-94.81058000000004
 30
0.0
 11
136.30757599999995
 21
-93.79432600000004
 31
0.0
  0
LINE
  5
179
330
17
100
AcDbEntity
  8
0
100
AcDbLine
 10
136.30757599999995
 20
-93.79432600000004
 30
0.0
 11
136.00836399999994
 21
-92.22714600000005
 31
0.0
  0
LINE
  5
17A
330
17
100
AcDbEntity
  8
0
100
AcDbLine
 10
136.00836399999994
 20
-92.22714600000005
 30
0.0
 11
135.91514599999996
 21
-91.26931200000004
 31
0.0
  0
LINE
  5
17B
330
17
100
AcDbEntity
  8
0
100
AcDbLine
 10
135.91514599999996
 20
-91.26931200000004
 30
0.0
 11
135.88796799999997
 21
-90.21267200000003
 31
0.0
  0
LINE
  5
17C
330
17
100
AcDbEntity
  8
0
100
AcDbLine
 10
135.88796799999997
 20
-90.21267200000003
 30
0.0
 11
135.94867399999998
 21
-89.06992600000002
 31
0.0
  0
LINE
  5
17D
330
17
100
AcDbEntity
  8
0
100
AcDbLine
 10
135.94867399999998
 20
-89.06992600000002
 30
0.0
 11
136.11859999999996
 21
-87.85402800000003
 31
0.0
  0
LINE
  5
17E
330
17
100
AcDbEntity
  8
0
100
AcDbLine
 10
136.11859999999996
 20
-87.85402800000003
 30
0.0
 11
136.41933599999996
 21
-86.57818600000003
 31
0.0
  0
LINE
  5
17F
330
17
100
AcDbEntity
  8
0
100
AcDbLine
 10
136.41933599999996
 20
-86.57818600000003
 30
0.0
 11
136.87247199999996
 21
-85.25510000000003
 31
0.0
  0
LINE
  5
180
330
17
100
AcDbEntity
  8
0
100
AcDbLine
 10
136.87247199999996
 20
-85.25510000000003
 30
0.0
 11
137.49959799999996
 21
-83.89772400000003
 31
0.0
  0
LINE
  5
181
330
17
100
AcDbEntity
  8
0
100
AcDbLine
 10
137.49959799999996
 20
-83.89772400000003
 30
0.0
 11
138.32205
 21
-82.51901200000003
 31
0.0
  0
LINE
  5
182
330
17
100
AcDbEntity
  8
0
100
AcDbLine
 10
138.32205
 20
-82.51901200000003
 30
0.0
 11
139.361418
 21
-81.13191800000003
 31
0.0
  0
LINE
  5
183
330
17
100
AcDbEntity
  8
0
100
AcDbLine
 10
139.361418
 20
-81.13191800000003
 30
0.0
 11
140.72565199999997
 21
-79.65033600000001
 31
0.0
  0
LINE
  5
184
330
17
100
AcDbEntity
  8
0
100
AcDbLine
 10
140.72565199999997
 20
-79.65033600000001
 30
0.0
 11
140.77238799999998
 21
-79.57820000000002
 31
0.0
  0
LINE
  5
185
330
17
100
AcDbEntity
  8
0
100
AcDbLine
 10
140.77238799999998
 20
-79.57820000000002
 30
0.0
 11
140.80896399999997
 21
-79.50225400000002
 31
0.0
  0
LINE
  5
186
330
17
100
AcDbEntity
  8
0
100
AcDbLine
 10
140.80896399999997
 20
-79.50225400000002
 30
0.0
 11
140.823188
 21
-79.46313800000003
 31
0.0
  0
LINE
  5
187
330
17
100
AcDbEntity
  8
0
100
AcDbLine
 10
140.823188
 20
-79.46313800000003
 30
0.0
 11
140.83436399999997
 21
-79.42326000000003
 31
0.0
  0
LINE
  5
188
330
17
100
AcDbEntity
  8
0
100
AcDbLine
 10
140.83436399999997
 20
-79.42326000000003
 30
0.0
 11
140.84274599999998
 21
-79.38287400000003
 31
0.0
  0
LINE
  5
189
330
17
100
AcDbEntity
  8
0
100
AcDbLine
 10
140.84274599999998
 20
-79.38287400000003
 30
0.0
 11
140.84782599999997
 21
-79.34198000000004
 31
0.0
  0
LINE
  5
18A
330
17
100
AcDbEntity
  8
0
100
AcDbLine
 10
140.84782599999997
 20
-79.34198000000004
 30
0.0
 11
140.84960399999997
 21
-79.30057800000003
 31
0.0
  0
LINE
  5
18B
330
17
100
AcDbEntity
  8
0
100
AcDbLine
 10
140.84960399999997
 20
-79.30057800000003
 30
0.0
 11
140.84782599999997
 21
-79.25892200000003
 31
0.0
  0
LINE
  5
18C
330
17
100
AcDbEntity
  8
0
100
AcDbLine
 10
140.84782599999997
 20
-79.25892200000003
 30
0.0
 11
140.842492
 21
-79.21726600000004
 31
0.0
  0
LINE
  5
18D
330
17
100
AcDbEntity
  8
0
100
AcDbLine
 10
140.842492
 20
-79.21726600000004
 30
0.0
 11
140.833348
 21
-79.17535600000004
 31
0.0
  0
LINE
  5
18E
330
17
100
AcDbEntity
  8
0
100
AcDbLine
 10
140.833348
 20
-79.17535600000004
 30
0.0
 11
138.2522
 21
-71.96861400000003
 31
0.0
  0
LINE
  5
18F
330
17
100
AcDbEntity
  8
0
100
AcDbLine
 10
138.2522
 20
-71.96861400000003
 30
0.0
 11
137.480294
 21
-72.12761800000003
 31
0.0
  0
LINE
  5
190
330
17
100
AcDbEntity
  8
0
100
AcDbLine
 10
137.480294
 20
-72.12761800000003
 30
0.0
 11
137.35304
 21
-72.80706800000003
 31
0.0
  0
LINE
  5
191
330
17
100
AcDbEntity
  8
0
100
AcDbLine
 10
137.35304
 20
-72.80706800000003
 30
0.0
 11
137.141458
 21
-73.50582200000002
 31
0.0
  0
LINE
  5
192
330
17
100
AcDbEntity
  8
0
100
AcDbLine
 10
137.141458
 20
-73.50582200000002
 30
0.0
 11
136.98347
 21
-73.90104600000002
 31
0.0
  0
LINE
  5
193
330
17
100
AcDbEntity
  8
0
100
AcDbLine
 10
136.98347
 20
-73.90104600000002
 30
0.0
 11
136.784842
 21
-74.31024000000002
 31
0.0
  0
LINE
  5
194
330
17
100
AcDbEntity
  8
0
100
AcDbLine
 10
136.784842
 20
-74.31024000000002
 30
0.0
 11
136.54125600000003
 21
-74.72070400000001
 31
0.0
  0
LINE
  5
195
330
17
100
AcDbEntity
  8
0
100
AcDbLine
 10
136.54125600000003
 20
-74.72070400000001
 30
0.0
 11
136.24839400000002
 21
-75.11999200000001
 31
0.0
  0
LINE
  5
196
330
17
100
AcDbEntity
  8
0
100
AcDbLine
 10
136.24839400000002
 20
-75.11999200000001
 30
0.0
 11
135.901938
 21
-75.49540400000002
 31
0.0
  0
LINE
  5
197
330
17
100
AcDbEntity
  8
0
100
AcDbLine
 10
135.901938
 20
-75.49540400000002
 30
0.0
 11
135.497316
 21
-75.834494
 31
0.0
  0
LINE
  5
198
330
17
100
AcDbEntity
  8
0
100
AcDbLine
 10
135.497316
 20
-75.834494
 30
0.0
 11
135.27201800000003
 21
-75.98664000000001
 31
0.0
  0
LINE
  5
199
330
17
100
AcDbEntity
  8
0
100
AcDbLine
 10
135.27201800000003
 20
-75.98664000000001
 30
0.0
 11
135.03046400000002
 21
-76.12481600000001
 31
0.0
  0
LINE
  5
19A
330
17
100
AcDbEntity
  8
0
100
AcDbLine
 10
135.03046400000002
 20
-76.12481600000001
 30
0.0
 11
134.77214600000002
 21
-76.24775199999999
 31
0.0
  0
LINE
  5
19B
330
17
100
AcDbEntity
  8
0
100
AcDbLine
 10
134.77214600000002
 20
-76.24775199999999
 30
0.0
 11
134.49681000000004
 21
-76.353924
 31
0.0
  0
LINE
  5
19C
330
17
100
AcDbEntity
  8
0
100
AcDbLine
 10
134.49681000000004
 20
-76.353924
 30
0.0
 11
134.20369400000004
 21
-76.44155400000001
 31
0.0
  0
LINE
  5
19D
330
17
100
AcDbEntity
  8
0
100
AcDbLine
 10
134.20369400000004
 20
-76.44155400000001
 30
0.0
 11
133.89203600000005
 21
-76.50911800000002
 31
0.0
  0
LINE
  5
19E
330
17
100
AcDbEntity
  8
0
100
AcDbLine
 10
133.89203600000005
 20
-76.50911800000002
 30
0.0
 11
133.56158200000002
 21
-76.555092
 31
0.0
  0
LINE
  5
19F
330
17
100
AcDbEntity
  8
0
100
AcDbLine
 10
133.56158200000002
 20
-76.555092
 30
0.0
 11
120.83161000000003
 21
-76.806298
 31
0.0
  0
LINE
  5
1A0
330
17
100
AcDbEntity
  8
0
100
AcDbLine
 10
105.19486200000001
 20
-97.987866
 30
0.0
 11
105.32465600000003
 21
-94.314264
 31
0.0
  0
LINE
  5
1A1
330
17
100
AcDbEntity
  8
0
100
AcDbLine
 10
105.32465600000003
 20
-94.314264
 30
0.0
 11
105.29824000000004
 21
-93.92970799999999
 31
0.0
  0
LINE
  5
1A2
330
17
100
AcDbEntity
  8
0
100
AcDbLine
 10
105.29824000000004
 20
-93.92970799999999
 30
0.0
 11
105.24464600000003
 21
-93.547946
 31
0.0
  0
LINE
  5
1A3
330
17
100
AcDbEntity
  8
0
100
AcDbLine
 10
105.24464600000003
 20
-93.547946
 30
0.0
 11
103.53751200000002
 21
-86.72677599999999
 31
0.0
  0
LINE
  5
1A4
330
17
100
AcDbEntity
  8
0
100
AcDbLine
 10
103.53751200000002
 20
-86.72677599999999
 30
0.0
 11
103.46639200000003
 21
-86.553294
 31
0.0
  0
LINE
  5
1A5
330
17
100
AcDbEntity
  8
0
100
AcDbLine
 10
103.46639200000003
 20
-86.553294
 30
0.0
 11
103.21290000000003
 21
-86.07094799999999
 31
0.0
  0
LINE
  5
1A6
330
17
100
AcDbEntity
  8
0
100
AcDbLine
 10
103.21290000000003
 20
-86.07094799999999
 30
0.0
 11
102.71683800000004
 21
-85.336888
 31
0.0
  0
LINE
  5
1A7
330
17
100
AcDbEntity
  8
0
100
AcDbLine
 10
102.71683800000004
 20
-85.336888
 30
0.0
 11
101.67061200000003
 21
-84.12276800000001
 31
0.0
  0
LINE
  5
1A8
330
17
100
AcDbEntity
  8
0
100
AcDbLine
 10
101.67061200000003
 20
-84.12276800000001
 30
0.0
 11
101.45725200000004
 21
-83.815936
 31
0.0
  0
LINE
  5
1A9
330
17
100
AcDbEntity
  8
0
100
AcDbLine
 10
101.45725200000004
 20
-83.815936
 30
0.0
 11
101.27894400000004
 21
-83.49005399999999
 31
0.0
  0
LINE
  5
1AA
330
17
100
AcDbEntity
  8
0
100
AcDbLine
 10
101.27894400000004
 20
-83.49005399999999
 30
0.0
 11
101.13721200000005
 21
-83.14817
 31
0.0
  0
LINE
  5
1AB
330
17
100
AcDbEntity
  8
0
100
AcDbLine
 10
101.13721200000005
 20
-83.14817
 30
0.0
 11
101.03307200000003
 21
-82.79333199999999
 31
0.0
  0
LINE
  5
1AC
330
17
100
AcDbEntity
  8
0
100
AcDbLine
 10
101.03307200000003
 20
-82.79333199999999
 30
0.0
 11
100.96804800000004
 21
-82.42833399999999
 31
0.0
  0
LINE
  5
1AD
330
17
100
AcDbEntity
  8
0
100
AcDbLine
 10
100.96804800000004
 20
-82.42833399999999
 30
0.0
 11
100.94366400000004
 21
-82.056224
 31
0.0
  0
LINE
  5
1AE
330
17
100
AcDbEntity
  8
0
100
AcDbLine
 10
100.94366400000004
 20
-82.056224
 30
0.0
 11
101.45496600000004
 21
-78.005178
 31
0.0
  0
LINE
  5
1AF
330
17
100
AcDbEntity
  8
0
100
AcDbLine
 10
101.45496600000004
 20
-78.005178
 30
0.0
 11
102.03256200000004
 21
-75.23149799999999
 31
0.0
  0
LINE
  5
1B0
330
17
100
AcDbEntity
  8
0
100
AcDbLine
 10
102.03256200000004
 20
-75.23149799999999
 30
0.0
 11
102.40848200000005
 21
-73.92085799999998
 31
0.0
  0
LINE
  5
1B1
330
17
100
AcDbEntity
  8
0
100
AcDbLine
 10
102.40848200000005
 20
-73.92085799999998
 30
0.0
 11
102.84815600000005
 21
-72.73823399999998
 31
0.0
  0
LINE
  5
1B2
330
17
100
AcDbEntity
  8
0
100
AcDbLine
 10
102.84815600000005
 20
-72.73823399999998
 30
0.0
 11
103.09326600000003
 21
-72.21296199999999
 31
0.0
  0
LINE
  5
1B3
330
17
100
AcDbEntity
  8
0
100
AcDbLine
 10
103.09326600000003
 20
-72.21296199999999
 30
0.0
 11
103.35590200000003
 21
-71.74153799999999
 31
0.0
  0
LINE
  5
1B4
330
17
100
AcDbEntity
  8
0
100
AcDbLine
 10
103.35590200000003
 20
-71.74153799999999
 30
0.0
 11
103.38231800000003
 21
-71.77074799999998
 31
0.0
  0
LINE
  5
1B5
330
17
100
AcDbEntity
  8
0
100
AcDbLine
 10
103.38231800000003
 20
-71.77074799999998
 30
0.0
 11
103.45648600000003
 21
-71.86828399999999
 31
0.0
  0
LINE
  5
1B6
330
17
100
AcDbEntity
  8
0
100
AcDbLine
 10
103.45648600000003
 20
-71.86828399999999
 30
0.0
 11
103.57053200000003
 21
-72.04836999999999
 31
0.0
  0
LINE
  5
1B7
330
17
100
AcDbEntity
  8
0
100
AcDbLine
 10
103.57053200000003
 20
-72.04836999999999
 30
0.0
 11
103.71632800000003
 21
-72.32573799999999
 31
0.0
  0
LINE
  5
1B8
330
17
100
AcDbEntity
  8
0
100
AcDbLine
 10
103.71632800000003
 20
-72.32573799999999
 30
0.0
 11
104.07269000000004
 21
-73.22896199999998
 31
0.0
  0
LINE
  5
1B9
330
17
100
AcDbEntity
  8
0
100
AcDbLine
 10
104.07269000000004
 20
-73.22896199999998
 30
0.0
 11
104.48747200000003
 21
-74.787506
 31
0.0
  0
LINE
  5
1BA
330
17
100
AcDbEntity
  8
0
100
AcDbLine
 10
104.48747200000003
 20
-74.787506
 30
0.0
 11
104.51998400000002
 21
-74.877676
 31
0.0
  0
LINE
  5
1BB
330
17
100
AcDbEntity
  8
0
100
AcDbLine
 10
104.51998400000002
 20
-74.877676
 30
0.0
 11
104.55986200000002
 21
-74.963528
 31
0.0
  0
LINE
  5
1BC
330
17
100
AcDbEntity
  8
0
100
AcDbLine
 10
104.55986200000002
 20
-74.963528
 30
0.0
 11
104.60659800000003
 21
-75.044808
 31
0.0
  0
LINE
  5
1BD
330
17
100
AcDbEntity
  8
0
100
AcDbLine
 10
104.60659800000003
 20
-75.044808
 30
0.0
 11
104.65993800000003
 21
-75.121262
 31
0.0
  0
LINE
  5
1BE
330
17
100
AcDbEntity
  8
0
100
AcDbLine
 10
104.65993800000003
 20
-75.121262
 30
0.0
 11
104.71937400000002
 21
-75.192382
 31
0.0
  0
LINE
  5
1BF
330
17
100
AcDbEntity
  8
0
100
AcDbLine
 10
104.71937400000002
 20
-75.192382
 30
0.0
 11
104.78439800000001
 21
-75.258168
 31
0.0
  0
LINE
  5
1C0
330
17
100
AcDbEntity
  8
0
100
AcDbLine
 10
104.78439800000001
 20
-75.258168
 30
0.0
 11
104.85475600000001
 21
-75.31811199999999
 31
0.0
  0
LINE
  5
1C1
330
17
100
AcDbEntity
  8
0
100
AcDbLine
 10
104.85475600000001
 20
-75.31811199999999
 30
0.0
 11
104.92994
 21
-75.37195999999999
 31
0.0
  0
LINE
  5
1C2
330
17
100
AcDbEntity
  8
0
100
AcDbLine
 10
104.92994
 20
-75.37195999999999
 30
0.0
 11
105.009696
 21
-75.41945799999999
 31
0.0
  0
LINE
  5
1C3
330
17
100
AcDbEntity
  8
0
100
AcDbLine
 10
105.009696
 20
-75.41945799999999
 30
0.0
 11
105.09326200000001
 21
-75.46035199999999
 31
0.0
  0
LINE
  5
1C4
330
17
100
AcDbEntity
  8
0
100
AcDbLine
 10
105.09326200000001
 20
-75.46035199999999
 30
0.0
 11
105.18063800000002
 21
-75.49413399999999
 31
0.0
  0
LINE
  5
1C5
330
17
100
AcDbEntity
  8
0
100
AcDbLine
 10
105.18063800000002
 20
-75.49413399999999
 30
0.0
 11
105.27106200000001
 21
-75.520804
 31
0.0
  0
LINE
  5
1C6
330
17
100
AcDbEntity
  8
0
100
AcDbLine
 10
105.27106200000001
 20
-75.520804
 30
0.0
 11
105.36428000000001
 21
-75.53985399999999
 31
0.0
  0
LINE
  5
1C7
330
17
100
AcDbEntity
  8
0
100
AcDbLine
 10
105.36428000000001
 20
-75.53985399999999
 30
0.0
 11
105.99775600000002
 21
-75.58023999999999
 31
0.0
  0
LINE
  5
1C8
330
17
100
AcDbEntity
  8
0
100
AcDbLine
 10
105.99775600000002
 20
-75.58023999999999
 30
0.0
 11
106.29163400000002
 21
-75.64145399999998
 31
0.0
  0
LINE
  5
1C9
330
17
100
AcDbEntity
  8
0
100
AcDbLine
 10
106.29163400000002
 20
-75.64145399999998
 30
0.0
 11
106.43362000000002
 21
-75.68844399999999
 31
0.0
  0
LINE
  5
1CA
330
17
100
AcDbEntity
  8
0
100
AcDbLine
 10
106.43362000000002
 20
-75.68844399999999
 30
0.0
 11
106.57001800000002
 21
-75.74787999999998
 31
0.0
  0
LINE
  5
1CB
330
17
100
AcDbEntity
  8
0
100
AcDbLine
 10
106.57001800000002
 20
-75.74787999999998
 30
0.0
 11
106.69905000000001
 21
-75.82103199999999
 31
0.0
  0
LINE
  5
1CC
330
17
100
AcDbEntity
  8
0
100
AcDbLine
 10
106.69905000000001
 20
-75.82103199999999
 30
0.0
 11
106.818938
 21
-75.90891599999998
 31
0.0
  0
LINE
  5
1CD
330
17
100
AcDbEntity
  8
0
100
AcDbLine
 10
106.818938
 20
-75.90891599999998
 30
0.0
 11
106.92815800000001
 21
-76.01280199999998
 31
0.0
  0
LINE
  5
1CE
330
17
100
AcDbEntity
  8
0
100
AcDbLine
 10
106.92815800000001
 20
-76.01280199999998
 30
0.0
 11
107.024932
 21
-76.13345199999999
 31
0.0
  0
LINE
  5
1CF
330
17
100
AcDbEntity
  8
0
100
AcDbLine
 10
107.024932
 20
-76.13345199999999
 30
0.0
 11
107.107482
 21
-76.27238999999999
 31
0.0
  0
LINE
  5
1D0
330
17
100
AcDbEntity
  8
0
100
AcDbLine
 10
107.107482
 20
-76.27238999999999
 30
0.0
 11
107.17403
 21
-76.43037799999999
 31
0.0
  0
LINE
  5
1D1
330
17
100
AcDbEntity
  8
0
100
AcDbLine
 10
107.17403
 20
-76.43037799999999
 30
0.0
 11
107.223052
 21
-76.60893999999999
 31
0.0
  0
LINE
  5
1D2
330
17
100
AcDbEntity
  8
0
100
AcDbLine
 10
107.223052
 20
-76.60893999999999
 30
0.0
 11
107.25251599999999
 21
-76.80883799999998
 31
0.0
  0
LINE
  5
1D3
330
17
100
AcDbEntity
  8
0
100
AcDbLine
 10
107.25251599999999
 20
-76.80883799999998
 30
0.0
 11
107.261152
 21
-77.03134199999998
 31
0.0
  0
LINE
  5
1D4
330
17
100
AcDbEntity
  8
0
100
AcDbLine
 10
107.261152
 20
-77.03134199999998
 30
0.0
 11
106.96701999999999
 21
-77.93202599999998
 31
0.0
  0
LINE
  5
1D5
330
17
100
AcDbEntity
  8
0
100
AcDbLine
 10
106.96701999999999
 20
-77.93202599999998
 30
0.0
 11
106.71886199999999
 21
-79.00796999999997
 31
0.0
  0
LINE
  5
1D6
330
17
100
AcDbEntity
  8
0
100
AcDbLine
 10
106.71886199999999
 20
-79.00796999999997
 30
0.0
 11
106.50905799999998
 21
-80.45678599999998
 31
0.0
  0
LINE
  5
1D7
330
17
100
AcDbEntity
  8
0
100
AcDbLine
 10
106.50905799999998
 20
-80.45678599999998
 30
0.0
 11
106.41736399999999
 21
-82.24494599999998
 31
0.0
  0
LINE
  5
1D8
330
17
100
AcDbEntity
  8
0
100
AcDbLine
 10
106.41736399999999
 20
-82.24494599999998
 30
0.0
 11
106.523536
 21
-84.33942999999998
 31
0.0
  0
LINE
  5
1D9
330
17
100
AcDbEntity
  8
0
100
AcDbLine
 10
106.523536
 20
-84.33942999999998
 30
0.0
 11
106.90682199999999
 21
-86.70696399999999
 31
0.0
  0
LINE
  5
1DA
330
17
100
AcDbEntity
  8
0
100
AcDbLine
 10
106.90682199999999
 20
-86.70696399999999
 30
0.0
 11
107.64697799999999
 21
-89.31427399999998
 31
0.0
  0
LINE
  5
1DB
330
17
100
AcDbEntity
  8
0
100
AcDbLine
 10
107.64697799999999
 20
-89.31427399999998
 30
0.0
 11
107.44250799999999
 21
-90.36151599999998
 31
0.0
  0
LINE
  5
1DC
330
17
100
AcDbEntity
  8
0
100
AcDbLine
 10
107.44250799999999
 20
-90.36151599999998
 30
0.0
 11
107.43971399999998
 21
-90.44914599999998
 31
0.0
  0
LINE
  5
1DD
330
17
100
AcDbEntity
  8
0
100
AcDbLine
 10
107.43971399999998
 20
-90.44914599999998
 30
0.0
 11
107.44657199999997
 21
-90.53652199999998
 31
0.0
  0
LINE
  5
1DE
330
17
100
AcDbEntity
  8
0
100
AcDbLine
 10
107.44657199999997
 20
-90.53652199999998
 30
0.0
 11
108.44199799999997
 21
-94.55911999999998
 31
0.0
  0
LINE
  5
1DF
330
17
100
AcDbEntity
  8
0
100
AcDbLine
 10
108.44199799999997
 20
-94.55911999999998
 30
0.0
 11
110.07623399999999
 21
-95.55810199999998
 31
0.0
  0
LINE
  5
1E0
330
17
100
AcDbEntity
  8
0
100
AcDbLine
 10
110.07623399999999
 20
-95.55810199999998
 30
0.0
 11
109.93450199999998
 21
-95.53117799999998
 31
0.0
  0
LINE
  5
1E1
330
17
100
AcDbEntity
  8
0
100
AcDbLine
 10
109.93450199999998
 20
-95.53117799999998
 30
0.0
 11
109.54664399999999
 21
-95.48748999999998
 31
0.0
  0
LINE
  5
1E2
330
17
100
AcDbEntity
  8
0
100
AcDbLine
 10
109.54664399999999
 20
-95.48748999999998
 30
0.0
 11
108.96879399999999
 21
-95.48266399999997
 31
0.0
  0
LINE
  5
1E3
330
17
100
AcDbEntity
  8
0
100
AcDbLine
 10
108.96879399999999
 20
-95.48266399999997
 30
0.0
 11
108.626148
 21
-95.51212799999996
 31
0.0
  0
LINE
  5
1E4
330
17
100
AcDbEntity
  8
0
100
AcDbLine
 10
108.626148
 20
-95.51212799999996
 30
0.0
 11
108.257086
 21
-95.57232599999998
 31
0.0
  0
LINE
  5
1E5
330
17
100
AcDbEntity
  8
0
100
AcDbLine
 10
108.257086
 20
-95.57232599999998
 30
0.0
 11
107.86872
 21
-95.66986199999998
 31
0.0
  0
LINE
  5
1E6
330
17
100
AcDbEntity
  8
0
100
AcDbLine
 10
107.86872
 20
-95.66986199999998
 30
0.0
 11
107.46790800000001
 21
-95.81184799999998
 31
0.0
  0
LINE
  5
1E7
330
17
100
AcDbEntity
  8
0
100
AcDbLine
 10
107.46790800000001
 20
-95.81184799999998
 30
0.0
 11
107.061508
 21
-96.00539599999999
 31
0.0
  0
LINE
  5
1E8
330
17
100
AcDbEntity
  8
0
100
AcDbLine
 10
107.061508
 20
-96.00539599999999
 30
0.0
 11
106.656886
 21
-96.257364
 31
0.0
  0
LINE
  5
1E9
330
17
100
AcDbEntity
  8
0
100
AcDbLine
 10
106.656886
 20
-96.257364
 30
0.0
 11
106.26089999999999
 21
-96.57460999999999
 31
0.0
  0
LINE
  5
1EA
330
17
100
AcDbEntity
  8
0
100
AcDbLine
 10
106.26089999999999
 20
-96.57460999999999
 30
0.0
 11
105.88066199999999
 21
-96.963992
 31
0.0
  0
LINE
  5
1EB
330
17
100
AcDbEntity
  8
0
100
AcDbLine
 10
105.88066199999999
 20
-96.963992
 30
0.0
 11
105.52302999999999
 21
-97.43262200000001
 31
0.0
  0
LINE
  5
1EC
330
17
100
AcDbEntity
  8
0
100
AcDbLine
 10
105.52302999999999
 20
-97.43262200000001
 30
0.0
 11
105.19511599999998
 21
-97.98735800000001
 31
0.0
  0
LINE
  5
1ED
330
17
100
AcDbEntity
  8
0
100
AcDbLine
 10
24.56764199999999
 20
-72.52309600000001
 30
0.0
 11
30.81604199999999
 21
-72.52309600000001
 31
0.0
  0
LINE
  5
1EE
330
17
100
AcDbEntity
  8
0
100
AcDbLine
 10
30.81604199999999
 20
-72.52309600000001
 30
0.0
 11
30.79597599999999
 21
-68.21754200000001
 31
0.0
  0
LINE
  5
1EF
330
17
100
AcDbEntity
  8
0
100
AcDbLine
 10
30.79597599999999
 20
-68.21754200000001
 30
0.0
 11
30.73679399999999
 21
-67.81292
 31
0.0
  0
LINE
  5
1F0
330
17
100
AcDbEntity
  8
0
100
AcDbLine
 10
30.73679399999999
 20
-67.81292
 30
0.0
 11
30.64027399999999
 21
-67.426586
 31
0.0
  0
LINE
  5
1F1
330
17
100
AcDbEntity
  8
0
100
AcDbLine
 10
30.64027399999999
 20
-67.426586
 30
0.0
 11
30.50793999999999
 21
-67.06006400000001
 31
0.0
  0
LINE
  5
1F2
330
17
100
AcDbEntity
  8
0
100
AcDbLine
 10
30.50793999999999
 20
-67.06006400000001
 30
0.0
 11
30.341823999999992
 21
-66.714624
 31
0.0
  0
LINE
  5
1F3
330
17
100
AcDbEntity
  8
0
100
AcDbLine
 10
30.341823999999992
 20
-66.714624
 30
0.0
 11
30.14370399999999
 21
-66.39179
 31
0.0
  0
LINE
  5
1F4
330
17
100
AcDbEntity
  8
0
100
AcDbLine
 10
30.14370399999999
 20
-66.39179
 30
0.0
 11
29.91510399999999
 21
-66.09283199999999
 31
0.0
  0
LINE
  5
1F5
330
17
100
AcDbEntity
  8
0
100
AcDbLine
 10
29.91510399999999
 20
-66.09283199999999
 30
0.0
 11
29.658055999999988
 21
-65.819274
 31
0.0
  0
LINE
  5
1F6
330
17
100
AcDbEntity
  8
0
100
AcDbLine
 10
29.658055999999988
 20
-65.819274
 30
0.0
 11
29.37408399999999
 21
-65.57263999999999
 31
0.0
  0
LINE
  5
1F7
330
17
100
AcDbEntity
  8
0
100
AcDbLine
 10
29.37408399999999
 20
-65.57263999999999
 30
0.0
 11
29.06496599999999
 21
-65.35419999999999
 31
0.0
  0
LINE
  5
1F8
330
17
100
AcDbEntity
  8
0
100
AcDbLine
 10
29.06496599999999
 20
-65.35419999999999
 30
0.0
 11
28.732479999999992
 21
-65.165478
 31
0.0
  0
LINE
  5
1F9
330
17
100
AcDbEntity
  8
0
100
AcDbLine
 10
28.732479999999992
 20
-65.165478
 30
0.0
 11
28.37840399999999
 21
-65.00799799999999
 31
0.0
  0
LINE
  5
1FA
330
17
100
AcDbEntity
  8
0
100
AcDbLine
 10
28.37840399999999
 20
-65.00799799999999
 30
0.0
 11
28.00451599999999
 21
-64.88302999999999
 31
0.0
  0
LINE
  5
1FB
330
17
100
AcDbEntity
  8
0
100
AcDbLine
 10
28.00451599999999
 20
-64.88302999999999
 30
0.0
 11
27.61259399999999
 21
-64.79184399999998
 31
0.0
  0
LINE
  5
1FC
330
17
100
AcDbEntity
  8
0
100
AcDbLine
 10
27.61259399999999
 20
-64.79184399999998
 30
0.0
 11
27.204415999999988
 21
-64.736218
 31
0.0
  0
LINE
  5
1FD
330
17
100
AcDbEntity
  8
0
100
AcDbLine
 10
27.204415999999988
 20
-64.736218
 30
0.0
 11
24.55443399999999
 21
-64.71742199999998
 31
0.0
  0
LINE
  5
1FE
330
17
100
AcDbEntity
  8
0
100
AcDbLine
 10
24.55443399999999
 20
-64.71742199999998
 30
0.0
 11
24.69794399999999
 21
-69.216016
 31
0.0
  0
LINE
  5
1FF
330
17
100
AcDbEntity
  8
0
100
AcDbLine
 10
24.69794399999999
 20
-69.216016
 30
0.0
 11
24.56764199999999
 21
-72.52309599999998
 31
0.0
  0
ENDSEC
  0
SECTION
  2
OBJECTS
  0
DICTIONARY
  5
A
330
0
100
AcDbDictionary
281
1
  3
ACAD_COLOR
350
B
  3
ACAD_GROUP
350
C
  3
ACAD_LAYOUT
350
D
  3
ACAD_MATERIAL
350
E
  3
ACAD_MLEADERSTYLE
350
F
  3
ACAD_MLINESTYLE
350
10
  3
ACAD_PLOTSETTINGS
350
11
  3
ACAD_PLOTSTYLENAME
350
12
  3
ACAD_SCALELIST
350
14
  3
ACAD_TABLESTYLE
350
15
  3
ACAD_VISUALSTYLE
350
16
  3
EZDXF_META
350
2D
  0
DICTIONARY
  5
B
330
A
100
AcDbDictionary
281
1
  0
DICTIONARY
  5
C
330
A
100
AcDbDictionary
281
1
  0
DICTIONARY
  5
D
330
A
100
AcDbDictionary
281
1
  3
Model
350
1A
  3
Layout1
350
1E
  0
DICTIONARY
  5
E
330
A
100
AcDbDictionary
281
1
  3
ByBlock
350
1F
  3
ByLayer
350
20
  3
Global
350
21
  0
DICTIONARY
  5
F
330
A
100
AcDbDictionary
281
1
  3
Standard
350
2C
  0
DICTIONARY
  5
10
330
A
100
AcDbDictionary
281
1
  3
Standard
350
22
  0
DICTIONARY
  5
11
330
A
100
AcDbDictionary
281
1
  0
ACDBDICTIONARYWDFLT
  5
12
330
A
100
AcDbDictionary
281
1
  3
Normal
350
13
100
AcDbDictionaryWithDefault
340
13
  0
ACDBPLACEHOLDER
  5
13
330
12
  0
DICTIONARY
  5
14
330
A
100
AcDbDictionary
281
1
  0
DICTIONARY
  5
15
330
A
100
AcDbDictionary
281
1
  0
DICTIONARY
  5
16
330
A
100
AcDbDictionary
281
1
  0
LAYOUT
  5
1A
330
D
100
AcDbPlotSettings
  1

  4
A3
  6

 40
7.5
 41
20.0
 42
7.5
 43
20.0
 44
420.0
 45
297.0
 46
0.0
 47
0.0
 48
0.0
 49
0.0
140
0.0
141
0.0
142
1.0
143
1.0
 70
1024
 72
1
 73
0
 74
5
  7

 75
16
 76
0
 77
2
 78
300
147
1.0
148
0.0
149
0.0
100
AcDbLayout
  1
Model
 70
1
 71
0
 10
0.0
 20
0.0
 11
420.0
 21
297.0
 12
0.0
 22
0.0
 32
0.0
 14
1e+20
 24
1e+20
 34
1e+20
 15
-1e+20
 25
-1e+20
 35
-1e+20
146
0.0
 13
0.0
 23
0.0
 33
0.0
 16
1.0
 26
0.0
 36
0.0
 17
0.0
 27
1.0
 37
0.0
 76
1
330
17
  0
LAYOUT
  5
1E
330
D
100
AcDbPlotSettings
  1

  4
A3
  6

 40
7.5
 41
20.0
 42
7.5
 43
20.0
 44
420.0
 45
297.0
 46
0.0
 47
0.0
 48
0.0
 49
0.0
140
0.0
141
0.0
142
1.0
143
1.0
 70
0
 72
1
 73
0
 74
5
  7

 75
16
 76
0
 77
2
 78
300
147
1.0
148
0.0
149
0.0
100
AcDbLayout
  1
Layout1
 70
1
 71
1
 10
0.0
 20
0.0
 11
420.0
 21
297.0
 12
0.0
 22
0.0
 32
0.0
 14
1e+20
 24
1e+20
 34
1e+20
 15
-1e+20
 25
-1e+20
 35
-1e+20
146
0.0
 13
0.0
 23
0.0
 33
0.0
 16
1.0
 26
0.0
 36
0.0
 17
0.0
 27
1.0
 37
0.0
 76
1
330
1B
  0
MATERIAL
  5
1F
102
{ACAD_REACTORS
330
E
102
}
330
E
100
AcDbMaterial
  1
ByBlock
  2

 70
0
 40
1.0
 71
1
 41
1.0
 91
-1023410177
 42
1.0
 72
1
  3

 73
1
 74
1
 75
1
 44
0.5
 73
0
 45
1.0
 46
1.0
 77
1
  4

 78
1
 79
1
170
1
 48
1.0
171
1
  6

172
1
173
1
174
1
140
1.0
141
1.0
175
1
  7

176
1
177
1
178
1
143
1.0
179
1
  8

270
1
271
1
272
1
145
1.0
146
1.0
273
1
  9

274
1
275
1
276
1
 42
1.0
 72
1
  3

 73
1
 74
1
 75
1
 94
63
  0
MATERIAL
  5
20
102
{ACAD_REACTORS
330
E
102
}
330
E
100
AcDbMaterial
  1
ByLayer
  2

 70
0
 40
1.0
 71
1
 41
1.0
 91
-1023410177
 42
1.0
 72
1
  3

 73
1
 74
1
 75
1
 44
0.5
 73
0
 45
1.0
 46
1.0
 77
1
  4

 78
1
 79
1
170
1
 48
1.0
171
1
  6

172
1
173
1
174
1
140
1.0
141
1.0
175
1
  7

176
1
177
1
178
1
143
1.0
179
1
  8

270
1
271
1
272
1
145
1.0
146
1.0
273
1
  9

274
1
275
1
276
1
 42
1.0
 72
1
  3

 73
1
 74
1
 75
1
 94
63
  0
MATERIAL
  5
21
102
{ACAD_REACTORS
330
E
102
}
330
E
100
AcDbMaterial
  1
Global
  2

 70
0
 40
1.0
 71
1
 41
1.0
 91
-1023410177
 42
1.0
 72
1
  3

 73
1
 74
1
 75
1
 44
0.5
 73
0
 45
1.0
 46
1.0
 77
1
  4

 78
1
 79
1
170
1
 48
1.0
171
1
  6

172
1
173
1
174
1
140
1.0
141
1.0
175
1
  7

176
1
177
1
178
1
143
1.0
179
1
  8

270
1
271
1
272
1
145
1.0
146
1.0
273
1
  9

274
1
275
1
276
1
 42
1.0
 72
1
  3

 73
1
 74
1
 75
1
 94
63
  0
MLINESTYLE
  5
22
102
{ACAD_REACTORS
330
10
102
}
330
10
100
AcDbMlineStyle
  2
Standard
 70
0
  3

 62
256
 51
90.0
 52
90.0
 71
2
 49
0.5
 62
256
  6
BYLAYER
 49
-0.5
 62
256
  6
BYLAYER
  0
MLEADERSTYLE
  5
2C
102
{ACAD_REACTORS
330
F
102
}
330
F
100
AcDbMLeaderStyle
179
2
170
2
171
1
172
0
 90
2
 40
0.0
 41
0.0
173
1
 91
-1056964608
 92
-2
290
1
 42
2.0
291
1
 43
8.0
  3
Standard
 44
4.0
300

342
29
174
1
175
1
176
0
178
1
 93
-1056964608
 45
4.0
292
0
297
0
 46
4.0
 94
-1056964608
 47
1.0
 49
1.0
140
1.0
294
1
141
0.0
177
0
142
1.0
295
0
296
0
143
3.75
271
0
272
9
273
9
  0
DICTIONARY
  5
2D
330
A
100
AcDbDictionary
280
1
281
1
  3
CREATED_BY_EZDXF
350
2E
  3
WRITTEN_BY_EZDXF
350
202
  0
DICTIONARYVAR
  5
2E
330
2D
100
DictionaryVariables
280
0
  1
1.4.3 @ 2026-04-08T00:18:21.232155+00:00
  0
DICTIONARYVAR
  5
202
330
2D
100
DictionaryVariables
280
0
  1
1.4.3 @ 2026-04-08T00:18:21.236237+00:00
  0
ENDSEC
  0
EOF
