  0
SECTION
  2
HEADER
  9
$ACADVER
  1
AC1024
  9
$ACADMAINTVER
 70
6
  9
$DWGCODEPAGE
  3
ANSI_1252
  9
$LASTSAVEDBY
  1
ezdxf
  9
$INSBASE
 10
0.0
 20
0.0
 30
0.0
  9
$EXTMIN
 10
1e+20
 20
1e+20
 30
1e+20
  9
$EXTMAX
 10
-1e+20
 20
-1e+20
 30
-1e+20
  9
$LIMMIN
 10
0.0
 20
0.0
  9
$LIMMAX
 10
420.0
 20
297.0
  9
$ORTHOMODE
 70
0
  9
$REGENMODE
 70
1
  9
$FILLMODE
 70
1
  9
$QTEXTMODE
 70
0
  9
$MIRRTEXT
 70
1
  9
$LTSCALE
 40
1.0
  9
$ATTMODE
 70
1
  9
$TEXTSIZE
 40
2.5
  9
$TRACEWID
 40
1.0
  9
$TEXTSTYLE
  7
Standard
  9
$CLAYER
  8
0
  9
$CELTYPE
  6
ByLayer
  9
$CECOLOR
 62
256
  9
$CELTSCALE
 40
1.0
  9
$DISPSILH
 70
0
  9
$DIMSCALE
 40
1.0
  9
$DIMASZ
 40
2.5
  9
$DIMEXO
 40
0.625
  9
$DIMDLI
 40
3.75
  9
$DIMRND
 40
0.0
  9
$DIMDLE
 40
0.0
  9
$DIMEXE
 40
1.25
  9
$DIMTP
 40
0.0
  9
$DIMTM
 40
0.0
  9
$DIMTXT
 40
2.5
  9
$DIMCEN
 40
2.5
  9
$DIMTSZ
 40
0.0
  9
$DIMTOL
 70
0
  9
$DIMLIM
 70
0
  9
$DIMTIH
 70
0
  9
$DIMTOH
 70
0
  9
$DIMSE1
 70
0
  9
$DIMSE2
 70
0
  9
$DIMTAD
 70
1
  9
$DIMZIN
 70
8
  9
$DIMBLK
  1

  9
$DIMASO
 70
1
  9
$DIMSHO
 70
1
  9
$DIMPOST
  1

  9
$DIMAPOST
  1

  9
$DIMALT
 70
0
  9
$DIMALTD
 70
3
  9
$DIMALTF
 40
0.03937007874
  9
$DIMLFAC
 40
1.0
  9
$DIMTOFL
 70
1
  9
$DIMTVP
 40
0.0
  9
$DIMTIX
 70
0
  9
$DIMSOXD
 70
0
  9
$DIMSAH
 70
0
  9
$DIMBLK1
  1

  9
$DIMBLK2
  1

  9
$DIMSTYLE
  2
ISO-25
  9
$DIMCLRD
 70
0
  9
$DIMCLRE
 70
0
  9
$DIMCLRT
 70
0
  9
$DIMTFAC
 40
1.0
  9
$DIMGAP
 40
0.625
  9
$DIMJUST
 70
0
  9
$DIMSD1
 70
0
  9
$DIMSD2
 70
0
  9
$DIMTOLJ
 70
0
  9
$DIMTZIN
 70
8
  9
$DIMALTZ
 70
0
  9
$DIMALTTZ
 70
0
  9
$DIMUPT
 70
0
  9
$DIMDEC
 70
2
  9
$DIMTDEC
 70
2
  9
$DIMALTU
 70
2
  9
$DIMALTTD
 70
3
  9
$DIMTXSTY
  7
Standard
  9
$DIMAUNIT
 70
0
  9
$DIMADEC
 70
0
  9
$DIMALTRND
 40
0.0
  9
$DIMAZIN
 70
0
  9
$DIMDSEP
 70
44
  9
$DIMATFIT
 70
3
  9
$DIMFRAC
 70
0
  9
$DIMLDRBLK
  1

  9
$DIMLUNIT
 70
2
  9
$DIMLWD
 70
-2
  9
$DIMLWE
 70
-2
  9
$DIMTMOVE
 70
0
  9
$DIMFXL
 40
1.0
  9
$DIMFXLON
 70
0
  9
$DIMJOGANG
 40
0.785398163397
  9
$DIMTFILL
 70
0
  9
$DIMTFILLCLR
 70
0
  9
$DIMARCSYM
 70
0
  9
$DIMLTYPE
  6

  9
$DIMLTEX1
  6

  9
$DIMLTEX2
  6

  9
$DIMTXTDIRECTION
 70
0
  9
$LUNITS
 70
2
  9
$LUPREC
 70
4
  9
$SKETCHINC
 40
1.0
  9
$FILLETRAD
 40
10.0
  9
$AUNITS
 70
0
  9
$AUPREC
 70
2
  9
$MENU
  1
.
  9
$ELEVATION
 40
0.0
  9
$PELEVATION
 40
0.0
  9
$THICKNESS
 40
0.0
  9
$LIMCHECK
 70
0
  9
$CHAMFERA
 40
0.0
  9
$CHAMFERB
 40
0.0
  9
$CHAMFERC
 40
0.0
  9
$CHAMFERD
 40
0.0
  9
$SKPOLY
 70
0
  9
$TDCREATE
 40
2461225.617523148
  9
$TDUCREATE
 40
2458532.153996898
  9
$TDUPDATE
 40
2461225.617523148
  9
$TDUUPDATE
 40
2458532.1544311
  9
$TDINDWG
 40
0.0
  9
$TDUSRTIMER
 40
0.0
  9
$USRTIMER
 70
1
  9
$ANGBASE
 50
0.0
  9
$ANGDIR
 70
0
  9
$PDMODE
 70
0
  9
$PDSIZE
 40
0.0
  9
$PLINEWID
 40
0.0
  9
$SPLFRAME
 70
0
  9
$SPLINETYPE
 70
6
  9
$SPLINESEGS
 70
8
  9
$HANDSEED
  5
43
  9
$SURFTAB1
 70
6
  9
$SURFTAB2
 70
6
  9
$SURFTYPE
 70
6
  9
$SURFU
 70
6
  9
$SURFV
 70
6
  9
$UCSBASE
  2

  9
$UCSNAME
  2

  9
$UCSORG
 10
0.0
 20
0.0
 30
0.0
  9
$UCSXDIR
 10
1.0
 20
0.0
 30
0.0
  9
$UCSYDIR
 10
0.0
 20
1.0
 30
0.0
  9
$UCSORTHOREF
  2

  9
$UCSORTHOVIEW
 70
0
  9
$UCSORGTOP
 10
0.0
 20
0.0
 30
0.0
  9
$UCSORGBOTTOM
 10
0.0
 20
0.0
 30
0.0
  9
$UCSORGLEFT
 10
0.0
 20
0.0
 30
0.0
  9
$UCSORGRIGHT
 10
0.0
 20
0.0
 30
0.0
  9
$UCSORGFRONT
 10
0.0
 20
0.0
 30
0.0
  9
$UCSORGBACK
 10
0.0
 20
0.0
 30
0.0
  9
$PUCSBASE
  2

  9
$PUCSNAME
  2

  9
$PUCSORG
 10
0.0
 20
0.0
 30
0.0
  9
$PUCSXDIR
 10
1.0
 20
0.0
 30
0.0
  9
$PUCSYDIR
 10
0.0
 20
1.0
 30
0.0
  9
$PUCSORTHOREF
  2

  9
$PUCSORTHOVIEW
 70
0
  9
$PUCSORGTOP
 10
0.0
 20
0.0
 30
0.0
  9
$PUCSORGBOTTOM
 10
0.0
 20
0.0
 30
0.0
  9
$PUCSORGLEFT
 10
0.0
 20
0.0
 30
0.0
  9
$PUCSORGRIGHT
 10
0.0
 20
0.0
 30
0.0
  9
$PUCSORGFRONT
 10
0.0
 20
0.0
 30
0.0
  9
$PUCSORGBACK
 10
0.0
 20
0.0
 30
0.0
  9
$USERI1
 70
0
  9
$USERI2
 70
0
  9
$USERI3
 70
0
  9
$USERI4
 70
0
  9
$USERI5
 70
0
  9
$USERR1
 40
0.0
  9
$USERR2
 40
0.0
  9
$USERR3
 40
0.0
  9
$USERR4
 40
0.0
  9
$USERR5
 40
0.0
  9
$WORLDVIEW
 70
1
  9
$SHADEDGE
 70
3
  9
$SHADEDIF
 70
70
  9
$TILEMODE
 70
1
  9
$MAXACTVP
 70
64
  9
$PINSBASE
 10
0.0
 20
0.0
 30
0.0
  9
$PLIMCHECK
 70
0
  9
$PEXTMIN
 10
1e+20
 20
1e+20
 30
1e+20
  9
$PEXTMAX
 10
-1e+20
 20
-1e+20
 30
-1e+20
  9
$PLIMMIN
 10
0.0
 20
0.0
  9
$PLIMMAX
 10
420.0
 20
297.0
  9
$UNITMODE
 70
0
  9
$VISRETAIN
 70
1
  9
$PLINEGEN
 70
0
  9
$PSLTSCALE
 70
1
  9
$TREEDEPTH
 70
3020
  9
$CMLSTYLE
  2
Standard
  9
$CMLJUST
 70
0
  9
$CMLSCALE
 40
20.0
  9
$PROXYGRAPHICS
 70
1
  9
$MEASUREMENT
 70
1
  9
$CELWEIGHT
370
-1
  9
$ENDCAPS
280
0
  9
$JOINSTYLE
280
0
  9
$LWDISPLAY
290
0
  9
$INSUNITS
 70
4
  9
$HYPERLINKBASE
  1

  9
$STYLESHEET
  1

  9
$XEDIT
290
1
  9
$CEPSNTYPE
380
0
  9
$PSTYLEMODE
290
1
  9
$FINGERPRINTGUID
  2
{6C2C1E20-9FA6-450E-B13F-2BD5B9CE96D8}
  9
$VERSIONGUID
  2
{0B1089D2-9B27-4D03-9244-68C057A853AE}
  9
$EXTNAMES
290
1
  9
$PSVPSCALE
 40
0.0
  9
$OLESTARTUP
290
0
  9
$SORTENTS
280
127
  9
$INDEXCTL
280
0
  9
$HIDETEXT
280
1
  9
$XCLIPFRAME
280
1
  9
$HALOGAP
280
0
  9
$OBSCOLOR
 70
257
  9
$OBSLTYPE
280
0
  9
$INTERSECTIONDISPLAY
280
0
  9
$INTERSECTIONCOLOR
 70
257
  9
$DIMASSOC
280
2
  9
$PROJECTNAME
  1

  9
$CAMERADISPLAY
290
0
  9
$LENSLENGTH
 40
50.0
  9
$CAMERAHEIGHT
 40
0.0
  9
$STEPSPERSEC
 40
24.0
  9
$STEPSIZE
 40
100.0
  9
$3DDWFPREC
 40
2.0
  9
$PSOLWIDTH
 40
0.005
  9
$PSOLHEIGHT
 40
0.08
  9
$LOFTANG1
 40
1.570796326795
  9
$LOFTANG2
 40
1.570796326795
  9
$LOFTMAG1
 40
0.0
  9
$LOFTMAG2
 40
0.0
  9
$LOFTPARAM
 70
7
  9
$LOFTNORMALS
280
1
  9
$LATITUDE
 40
37.795
  9
$LONGITUDE
 40
-122.394
  9
$NORTHDIRECTION
 40
0.0
  9
$TIMEZONE
 70
-8000
  9
$LIGHTGLYPHDISPLAY
280
1
  9
$TILEMODELIGHTSYNCH
280
1
  9
$CMATERIAL
347
20
  9
$SOLIDHIST
280
0
  9
$SHOWHIST
280
1
  9
$DWFFRAME
280
2
  9
$DGNFRAME
280
2
  9
$REALWORLDSCALE
290
1
  9
$INTERFERECOLOR
 62
256
  9
$CSHADOW
280
0
  9
$SHADOWPLANELOCATION
 40
0.0
  0
ENDSEC
  0
SECTION
  2
CLASSES
  0
CLASS
  1
ACDBDICTIONARYWDFLT
  2
AcDbDictionaryWithDefault
  3
ObjectDBX Classes
 90
0
 91
0
280
0
281
0
  0
CLASS
  1
SUN
  2
AcDbSun
  3
SCENEOE
 90
1153
 91
0
280
0
281
0
  0
CLASS
  1
VISUALSTYLE
  2
AcDbVisualStyle
  3
ObjectDBX Classes
 90
4095
 91
0
280
0
281
0
  0
CLASS
  1
MATERIAL
  2
AcDbMaterial
  3
ObjectDBX Classes
 90
1153
 91
0
280
0
281
0
  0
CLASS
  1
SCALE
  2
AcDbScale
  3
ObjectDBX Classes
 90
1153
 91
0
280
0
281
0
  0
CLASS
  1
TABLESTYLE
  2
AcDbTableStyle
  3
ObjectDBX Classes
 90
4095
 91
0
280
0
281
0
  0
CLASS
  1
MLEADERSTYLE
  2
AcDbMLeaderStyle
  3
ACDB_MLEADERSTYLE_CLASS
 90
4095
 91
0
280
0
281
0
  0
CLASS
  1
DICTIONARYVAR
  2
AcDbDictionaryVar
  3
ObjectDBX Classes
 90
0
 91
0
280
0
281
0
  0
CLASS
  1
CELLSTYLEMAP
  2
AcDbCellStyleMap
  3
ObjectDBX Classes
 90
1152
 91
0
280
0
281
0
  0
CLASS
  1
MENTALRAYRENDERSETTINGS
  2
AcDbMentalRayRenderSettings
  3
SCENEOE
 90
1024
 91
0
280
0
281
0
  0
CLASS
  1
ACDBDETAILVIEWSTYLE
  2
AcDbDetailViewStyle
  3
ObjectDBX Classes
 90
1025
 91
0
280
0
281
0
  0
CLASS
  1
ACDBSECTIONVIEWSTYLE
  2
AcDbSectionViewStyle
  3
ObjectDBX Classes
 90
1025
 91
0
280
0
281
0
  0
CLASS
  1
RASTERVARIABLES
  2
AcDbRasterVariables
  3
ISM
 90
0
 91
0
280
0
281
0
  0
CLASS
  1
LAYOUT
  2
AcDbLayout
  3
ObjectDBX Classes
 90
0
 91
0
280
0
281
0
  0
CLASS
  1
ACDBPLACEHOLDER
  2
AcDbPlaceHolder
  3
ObjectDBX Classes
 90
0
 91
0
280
0
281
0
  0
ENDSEC
  0
SECTION
  2
TABLES
  0
TABLE
  2
VPORT
  5
8
330
0
100
AcDbSymbolTable
 70
1
  0
VPORT
  5
23
330
8
100
AcDbSymbolTableRecord
100
AcDbViewportTableRecord
  2
*Active
 70
0
 10
0.0
 20
0.0
 11
1.0
 21
1.0
 12
0.0
 22
0.0
 13
0.0
 23
0.0
 14
0.5
 24
0.5
 15
0.5
 25
0.5
 16
0.0
 26
0.0
 36
1.0
 17
0.0
 27
0.0
 37
0.0
 40
1000.0
 41
1.34
 42
50.0
 43
0.0
 44
0.0
 50
0.0
 51
0.0
 71
0
 72
1000
 73
1
 74
3
 75
0
 76
0
 77
0
 78
0
281
0
 65
0
146
0.0
  0
ENDTAB
  0
TABLE
  2
LTYPE
  5
2
330
0
100
AcDbSymbolTable
 70
3
  0
LTYPE
  5
24
330
2
100
AcDbSymbolTableRecord
100
AcDbLinetypeTableRecord
  2
ByBlock
 70
0
  3

 72
65
 73
0
 40
0.0
  0
LTYPE
  5
25
330
2
100
AcDbSymbolTableRecord
100
AcDbLinetypeTableRecord
  2
ByLayer
 70
0
  3

 72
65
 73
0
 40
0.0
  0
LTYPE
  5
26
330
2
100
AcDbSymbolTableRecord
100
AcDbLinetypeTableRecord
  2
Continuous
 70
0
  3

 72
65
 73
0
 40
0.0
  0
ENDTAB
  0
TABLE
  2
LAYER
  5
1
330
0
100
AcDbSymbolTable
 70
11
  0
LAYER
  5
27
330
1
100
AcDbSymbolTableRecord
100
AcDbLayerTableRecord
  2
0
 70
0
 62
7
  6
Continuous
370
-3
390
13
347
21
  0
LAYER
  5
28
330
1
100
AcDbSymbolTableRecord
100
AcDbLayerTableRecord
  2
Defpoints
 70
0
 62
7
  6
Continuous
290
0
370
-3
390
13
347
21
  0
LAYER
  5
2F
330
1
100
AcDbSymbolTableRecord
100
AcDbLayerTableRecord
  2
Layer 1
 70
0
 62
5
  6
Continuous
370
-3
390
13
347
21
  0
LAYER
  5
30
330
1
100
AcDbSymbolTableRecord
100
AcDbLayerTableRecord
  2
shape_1
 70
0
 62
2
  6
Continuous
370
-3
390
13
347
21
  0
LAYER
  5
32
330
1
100
AcDbSymbolTableRecord
100
AcDbLayerTableRecord
  2
shape_2
 70
0
 62
2
  6
Continuous
370
-3
390
13
347
21
  0
LAYER
  5
34
330
1
100
AcDbSymbolTableRecord
100
AcDbLayerTableRecord
  2
shape_3
 70
0
 62
2
  6
Continuous
370
-3
390
13
347
21
  0
LAYER
  5
36
330
1
100
AcDbSymbolTableRecord
100
AcDbLayerTableRecord
  2
shape_4
 70
0
 62
2
  6
Continuous
370
-3
390
13
347
21
  0
LAYER
  5
38
330
1
100
AcDbSymbolTableRecord
100
AcDbLayerTableRecord
  2
shape_5
 70
0
 62
2
  6
Continuous
370
-3
390
13
347
21
  0
LAYER
  5
3A
330
1
100
AcDbSymbolTableRecord
100
AcDbLayerTableRecord
  2
shape_6
 70
0
 62
2
  6
Continuous
370
-3
390
13
347
21
  0
LAYER
  5
3C
330
1
100
AcDbSymbolTableRecord
100
AcDbLayerTableRecord
  2
shape_7
 70
0
 62
2
  6
Continuous
370
-3
390
13
347
21
  0
LAYER
  5
3E
330
1
100
AcDbSymbolTableRecord
100
AcDbLayerTableRecord
  2
shape_8
 70
0
 62
2
  6
Continuous
370
-3
390
13
347
21
  0
ENDTAB
  0
TABLE
  2
STYLE
  5
5
330
0
100
AcDbSymbolTable
 70
1
  0
STYLE
  5
29
330
5
100
AcDbSymbolTableRecord
100
AcDbTextStyleTableRecord
  2
Standard
 70
0
 40
0.0
 41
1.0
 50
0.0
 71
0
 42
2.5
  3
txt
  4

  0
ENDTAB
  0
TABLE
  2
VIEW
  5
7
330
0
100
AcDbSymbolTable
 70
0
  0
ENDTAB
  0
TABLE
  2
UCS
  5
6
330
0
100
AcDbSymbolTable
 70
0
  0
ENDTAB
  0
TABLE
  2
APPID
  5
3
330
0
100
AcDbSymbolTable
 70
3
  0
APPID
  5
2A
330
3
100
AcDbSymbolTableRecord
100
AcDbRegAppTableRecord
  2
ACAD
 70
0
  0
APPID
  5
40
330
3
100
AcDbSymbolTableRecord
100
AcDbRegAppTableRecord
  2
HATCHBACKGROUNDCOLOR
 70
0
  0
APPID
  5
41
330
3
100
AcDbSymbolTableRecord
100
AcDbRegAppTableRecord
  2
EZDXF
 70
0
  0
ENDTAB
  0
TABLE
  2
DIMSTYLE
  5
4
330
0
100
AcDbSymbolTable
 70
1
100
AcDbDimStyleTable
  0
DIMSTYLE
105
2B
330
4
100
AcDbSymbolTableRecord
100
AcDbDimStyleTableRecord
  2
Standard
 70
0
 40
1.0
 41
2.5
 42
0.625
 43
3.75
 44
1.25
 45
0.0
 46
0.0
 47
0.0
 48
0.0
 49
2.5
140
2.5
141
2.5
142
0.0
143
0.03937007874
144
1.0
145
0.0
146
1.0
147
0.625
148
0.0
 69
0
 70
0
 71
0
 72
0
 73
0
 74
0
 75
0
 76
0
 77
1
 78
8
 79
3
170
0
171
3
172
1
173
0
174
0
175
0
176
0
177
0
178
0
179
2
271
2
272
2
273
2
274
3
275
0
276
0
277
2
278
44
279
0
280
0
281
0
282
0
283
0
284
8
285
0
286
0
288
0
289
3
290
0
371
-2
372
-2
  0
ENDTAB
  0
TABLE
  2
BLOCK_RECORD
  5
9
330
0
100
AcDbSymbolTable
 70
2
  0
BLOCK_RECORD
  5
17
330
9
100
AcDbSymbolTableRecord
100
AcDbBlockTableRecord
  2
*Model_Space
340
1A
 70
0
280
1
281
0
  0
BLOCK_RECORD
  5
1B
330
9
100
AcDbSymbolTableRecord
100
AcDbBlockTableRecord
  2
*Paper_Space
340
1E
 70
0
280
1
281
0
  0
ENDTAB
  0
ENDSEC
  0
SECTION
  2
BLOCKS
  0
BLOCK
  5
18
330
17
100
AcDbEntity
  8
0
100
AcDbBlockBegin
  2
*Model_Space
 70
0
 10
0.0
 20
0.0
 30
0.0
  3
*Model_Space
  1

  0
ENDBLK
  5
19
330
17
100
AcDbEntity
  8
0
100
AcDbBlockEnd
  0
BLOCK
  5
1C
330
1B
100
AcDbEntity
  8
0
100
AcDbBlockBegin
  2
*Paper_Space
 70
0
 10
0.0
 20
0.0
 30
0.0
  3
*Paper_Space
  1

  0
ENDBLK
  5
1D
330
1B
100
AcDbEntity
  8
0
100
AcDbBlockEnd
  0
ENDSEC
  0
SECTION
  2
ENTITIES
  0
LWPOLYLINE
  5
31
330
17
100
AcDbEntity
  8
shape_1
100
AcDbPolyline
 90
204
 70
1
 10
19.76307976418399
 20
16.17667923568122
 10
19.70879582564633
 20
16.113842749535415
 10
19.631628521091006
 20
16.061944335640526
 10
19.585013602516025
 20
16.016831414062842
 10
19.501043135090583
 20
15.979387512447834
 10
19.39899569203883
 20
15.943586972253403
 10
19.320997871496765
 20
15.943586972253403
 10
19.254061817075982
 20
15.951644744380086
 10
19.254061817075982
 20
15.911249860429212
 10
19.259221618525523
 20
15.871120034771977
 10
19.30361004743392
 20
15.838129112490138
 10
19.328896608647266
 20
15.800225776499488
 10
19.350719741490366
 20
15.756155417543459
 10
19.350719741490366
 20
15.697029747508626
 10
19.329108655282177
 20
15.543578666043448
 10
19.31859467630109
 20
15.451479744279686
 10
19.29959883192349
 20
15.307323373644849
 10
19.28291782997702
 20
15.221179428211553
 10
19.254273863710893
 20
15.08327843330664
 10
19.215964105003327
 20
14.925904489095576
 10
19.18166556180619
 20
14.802033913200724
 10
19.148603957312716
 20
14.622430413429642
 10
19.11909413395403
 20
14.503984697277973
 10
19.06719572005914
 20
14.33956020245606
 10
19.035512418692594
 20
14.221750626209129
 10
18.999446820204522
 20
14.082966103658748
 10
18.956984481563246
 20
13.975988576345276
 10
18.912931793160126
 20
13.844448980487746
 10
18.868914445862828
 20
13.758464070030634
 10
18.84030582070252
 20
13.70493996526808
 10
18.82358947765023
 20
13.641909103040271
 10
18.829067349052142
 20
13.61566833196982
 10
18.906234653607466
 20
13.61566833196982
 10
18.973895200697537
 20
13.621517284982831
 10
19.033710022295836
 20
13.673592404406815
 10
19.09836657539131
 20
13.765055186265839
 10
19.13217034310698
 20
13.83501290523413
 10
19.173024661433498
 20
13.926458016540245
 10
19.195872686345346
 20
13.9895772315326
 10
19.21126274533961
 20
14.020532823030791
 10
19.22290016469504
 20
14.034855613267379
 10
19.238359735857564
 20
14.042571219707874
 10
19.264383167885846
 20
14.042571219707874
 10
19.274735564434213
 20
14.040779048652563
 10
19.28037327035807
 20
14.031157589106984
 10
19.28037327035807
 20
14.009474274108578
 10
19.28037327035807
 20
13.946832164044777
 10
19.28037327035807
 20
13.802976192809398
 10
19.294527383238492
 20
13.704409848680799
 10
19.308787519436375
 20
13.609112556840435
 10
19.32697051838014
 20
13.521625649386024
 10
19.358371090900135
 20
13.425427159347283
 10
19.402388438197434
 20
13.382629080200731
 10
19.50551378497666
 20
13.298711624434018
 10
19.575294798415857
 20
13.265614678834723
 10
19.660749592285686
 20
13.265614678834723
 10
19.755587449750404
 20
13.244250980367266
 10
19.84553056405922
 20
13.276853150485097
 10
19.942188488473608
 20
13.314844839240296
 10
20.036167312231466
 20
13.363774674687159
 10
20.13375495256435
 20
13.410513212691756
 10
20.215887682487214
 20
13.440959575354642
 10
20.308216321438795
 20
13.501092466905309
 10
20.343910562206347
 20
13.54462138234415
 10
20.383863958443914
 20
13.574513614243841
 10
20.47668737287696
 20
13.58159950596051
 10
20.54811174773673
 20
13.59439298626691
 10
20.610630163930168
 20
13.619061078128425
 10
20.667317297663505
 20
13.662406944415169
 10
20.72490562959522
 20
13.713651547852411
 10
20.800942018764342
 20
13.770391693244475
 10
20.83861563756717
 20
13.817483716748011
 10
20.874663565502335
 20
13.851252143357863
 10
20.9197411459742
 20
13.893219706517675
 10
20.94018597569037
 20
13.956162215980935
 10
20.936810900084673
 20
13.995249479016517
 10
20.91242553706971
 20
14.016047719790873
 10
20.87420413112669
 20
14.016047719790873
 10
20.81953464062535
 20
14.002812878939544
 10
20.804798233369063
 20
13.993181818132937
 10
20.790234028790692
 20
13.970685965125357
 10
20.784974576188283
 20
13.951797244195872
 10
20.78001757420665
 20
13.943163417181735
 10
20.77187036099148
 20
13.938220782093692
 10
20.720735379108604
 20
13.91521954488987
 10
20.68009195085277
 20
13.90909558839361
 10
20.671801549925217
 20
13.911849104104688
 10
20.668146371708314
 20
13.920591513296403
 10
20.656273202095132
 20
13.973921121654877
 10
20.656273202095132
 20
14.042023432567682
 10
20.656273202095132
 20
14.117105611879698
 10
20.656273202095132
 20
14.192223132297531
 10
20.656273202095132
 20
14.275433765947868
 10
20.656273202095132
 20
14.347706327347291
 10
20.662546248377968
 20
14.410030367458724
 10
20.681807151049206
 20
14.412627938736405
 10
20.72780360027236
 20
14.412627938736405
 10
20.811049575028516
 20
14.412627938736405
 10
20.92790494141834
 20
14.452863787711095
 10
20.988974372273205
 20
14.474386521154738
 10
21.044990024995986
 20
14.498453814217333
 10
21.09306362504563
 20
14.517654903304722
 10
21.134049611659332
 20
14.538548298768747
 10
21.139891931916154
 20
14.559450298740565
 10
21.140384608483174
 20
14.58368357703726
 10
21.133266834014872
 20
14.60659303740386
 10
21.124844862368118
 20
14.628122831582
 10
21.10714958805167
 20
14.63354519120965
 10
21.048294418390043
 20
14.63354519120965
 10
20.958669374033594
 20
14.623844057662392
 10
20.925611195027937
 20
14.62200373256702
 10
20.904049694990658
 20
14.623844057662392
 10
20.897524429585907
 20
14.634885968367556
 10
20.896104363914343
 20
14.641842992212029
 10
20.89780427409741
 20
14.651576390893926
 10
20.919248388644075
 20
14.677596602848157
 10
20.962751271755664
 20
14.713080349854833
 10
21.037992486043866
 20
14.785087852960615
 10
21.072556925047543
 20
14.824536778751211
 10
21.094891666412114
 20
14.860064008955174
 10
21.1107107791124
 20
14.930772539969338
 10
21.117156563077952
 20
15.005245271658756
 10
21.117156563077952
 20
15.049050572321145
 10
21.117156563077952
 20
15.141290858508182
 10
21.117156563077952
 20
15.199303283709723
 10
21.117156563077952
 20
15.253781598329384
 10
21.05967425446369
 20
15.281188625891854
 10
20.997155838270256
 20
15.28511148863774
 10
20.91134763334224
 20
15.27866173682581
 10
20.86164036800811
 20
15.27079834078113
 10
20.833208448376897
 20
15.247543893152368
 10
20.778394393251954
 20
15.184177290419282
 10
20.699583727276057
 20
15.09349201288827
 10
20.632630002302363
 20
15.021731897523221
 10
20.58988761840461
 20
14.968822104587092
 10
20.55738584583625
 20
14.921570363711407
 10
20.52542275780107
 20
14.875861483256172
 10
20.459599948213576
 20
14.739833566959655
 10
20.426432320402643
 20
14.616404754887538
 10
20.400227945260642
 20
14.480687876100333
 10
20.375629480788135
 20
14.363221072801739
 10
20.348893934236223
 20
14.234950529232448
 10
20.33936950621806
 20
14.11763572846698
 10
20.33936950621806
 20
14.027268520888338
 10
20.33295509551195
 20
13.95605619266348
 10
20.33295509551195
 20
13.854132443482094
 10
20.324632265091623
 20
13.751749259925065
 10
20.324632265091623
 20
13.703826720434789
 10
20.306820347758954
 20
13.634999916852697
 10
20.251443163429535
 20
13.591829748003011
 10
20.1680543507829
 20
13.54597318963673
 10
20.08745650445742
 20
13.507963373073723
 10
20.0189852984139
 20
13.481879164669975
 10
19.944323160162927
 20
13.455560660329091
 10
19.879005843782526
 20
13.445021814087271
 10
19.8335788169869
 20
13.436775814523198
 10
19.79345713899716
 20
13.456236661924722
 10
19.742528953406204
 20
13.51946214110959
 10
19.72251257941784
 20
13.5627067363309
 10
19.672382919384933
 20
13.640855770945036
 10
19.65783200921609
 20
13.730822983818257
 10
19.637638185103718
 20
13.811314360069328
 10
19.631569390862566
 20
13.89613551934625
 10
19.601995525653127
 20
14.00603617610757
 10
19.58839577569086
 20
14.104887845231966
 10
19.58839577569086
 20
14.21833170951175
 10
19.58839577569086
 20
14.324251688533497
 10
19.578405333709078
 20
14.395213993125216
 10
19.578405333709078
 20
14.463141900596359
 10
19.599557388491107
 20
14.521735931544558
 10
19.656359173186804
 20
14.562496225029724
 10
19.713959483440547
 20
14.621249961089534
 10
19.79448634971642
 20
14.713736965723701
 10
19.828343833377584
 20
14.77488627845765
 10
19.85978799535221
 20
14.83191874831456
 10
19.878650943534506
 20
14.912019734292809
 10
19.8888898156899
 20
14.988216817542831
 10
19.912259997022055
 20
15.085814385748495
 10
19.912259997022055
 20
15.171061425323042
 10
19.91495723890701
 20
15.218706783619806
 10
19.91495723890701
 20
15.26581979154454
 10
19.875953701649546
 20
15.312418194109645
 10
19.829692454320064
 20
15.312418194109645
 10
19.798266037357838
 20
15.296962288308348
 10
19.767871406352537
 20
15.233494474419793
 10
19.73955214354847
 20
15.191030035855631
 10
19.691272363577742
 20
15.135715425330343
 10
19.610438142258797
 20
15.040571686980293
 10
19.522000013127567
 20
14.946667853731082
 10
19.47096147050734
 20
14.93776078035363
 10
19.464306469659984
 20
15.027577987607222
 10
19.489180484233945
 20
15.144875540565108
 10
19.518444775032304
 20
15.26033854005747
 10
19.54001659336832
 20
15.39218599981091
 10
19.56830667301602
 20
15.51670789779511
 10
19.604394660849465
 20
15.638988842607537
 10
19.664816837395566
 20
15.779365345687003
 10
19.71631085535896
 20
15.904178241807115
 10
19.770600985845668
 20
16.00948161072832
 10
19.836315956190106
 20
16.078119214524733
 10
19.883229916536113
 20
16.127968460415584
 10
19.902106839091733
 20
16.18229654718089
 10
19.86800944881868
 20
16.21849418486965
 10
19.820020060579086
 20
16.23682706743205
  0
LWPOLYLINE
  5
33
330
17
100
AcDbEntity
  8
shape_2
100
AcDbPolyline
 90
17
 70
1
 10
20.71908238760922
 20
14.86420975937903
 10
20.684596728355686
 20
14.810587414591769
 10
20.66740559201958
 20
14.73911785047576
 10
20.656940604865103
 20
14.684369202453961
 10
20.647663624545466
 20
14.63202885243449
 10
20.643106715870868
 20
14.573581545521185
 10
20.671403836745345
 20
14.54258058113646
 10
20.719618494512115
 20
14.547358925270947
 10
20.753230066423974
 20
14.581996092997038
 10
20.77157424610125
 20
14.63735495796976
 10
20.781181097219907
 20
14.677875715506845
 10
20.79232985803185
 20
14.782752243333658
 10
20.79625847263014
 20
14.839292442892361
 10
20.7992597962427
 20
14.877155987926495
 10
20.79801799833834
 20
14.88511492588404
 10
20.79229947458137
 20
14.888252988524025
 10
20.771853954050584
 20
14.888252988524025
  0
LWPOLYLINE
  5
35
330
17
100
AcDbEntity
  8
shape_3
100
AcDbPolyline
 90
26
 70
1
 10
19.450180815926007
 20
14.476289578371635
 10
19.439609010606837
 20
14.471914440185852
 10
19.404637019031185
 20
14.471914440185852
 10
19.382657232403194
 20
14.471914440185852
 10
19.375520110573976
 20
14.474383559303844
 10
19.372309728389663
 20
14.483509852204
 10
19.367730346535314
 20
14.515498213691862
 10
19.36387893050104
 20
14.54240151467505
 10
19.368433099307584
 20
14.568900259261868
 10
19.37396970148362
 20
14.60111536001324
 10
19.40567614510982
 20
14.652242109512388
 10
19.460679970062017
 20
14.705097825091949
 10
19.51551788412771
 20
14.758914077382851
 10
19.55003415470319
 20
14.77436526063631
 10
19.56168967073723
 20
14.778566399835222
 10
19.568815105445342
 20
14.779149175636924
 10
19.5732963936891
 20
14.776154705807295
 10
19.57440273570964
 20
14.77217889196539
 10
19.583757022690722
 20
14.706681522502283
 10
19.583115132869338
 20
14.697715295906224
 10
19.579262642282128
 20
14.69209930139088
 10
19.534501582404594
 20
14.644007690250612
 10
19.48737946997459
 20
14.582636975102606
 10
19.47915167149367
 20
14.568141507130342
 10
19.47336876784839
 20
14.551703194963565
 10
19.45806072903449
 20
14.492184783064197
  0
LWPOLYLINE
  5
37
330
17
100
AcDbEntity
  8
shape_4
100
AcDbPolyline
 90
114
 70
1
 10
21.254779380681327
 20
13.682233040424562
 10
21.348606851296964
 20
13.735225785442932
 10
21.378695109788453
 20
13.780581600842233
 10
21.419414801199895
 20
13.885834648646933
 10
21.436227732770327
 20
13.983975249209214
 10
21.47259058477149
 20
14.11659818561694
 10
21.483464064325343
 20
14.25670594870386
 10
21.50204579822046
 20
14.379665638727253
 10
21.526511127216637
 20
14.559655239492871
 10
21.538278317418754
 20
14.685780154728858
 10
21.551371606412044
 20
14.813510750749836
 10
21.565145806641475
 20
14.949859243369325
 10
21.56379559508767
 20
14.95565952672698
 10
21.551049897333716
 20
14.977174355729767
 10
21.524816800779305
 20
14.989213538785675
 10
21.47256539335653
 20
14.994499260869892
 10
21.46281937597305
 20
14.998813487204037
 10
21.457650100460196
 20
15.010102075183037
 10
21.44743635381728
 20
15.060244916350673
 10
21.449955530539352
 20
15.081127821456036
 10
21.45622256702346
 20
15.095827726172105
 10
21.46759450714473
 20
15.097802434722976
 10
21.50068661327623
 20
15.092586070434658
 10
21.5823121858175
 20
15.092586070434658
 10
21.670198758990242
 20
15.101088225266698
 10
21.683928164770936
 20
15.105737226377743
 10
21.694868897620292
 20
15.114981820063134
 10
21.721135239847545
 20
15.16136455240716
 10
21.775148877151885
 20
15.223514680405053
 10
21.823502347017232
 20
15.249748811725913
 10
21.88768194294555
 20
15.249748811725913
 10
21.913052813717293
 20
15.219950628572022
 10
21.912480571628777
 20
15.192770672500199
 10
21.907459184925607
 20
15.169528439179686
 10
21.885801426789833
 20
15.100312943747756
 10
21.870608345769377
 20
15.031553080747091
 10
21.84958752656338
 20
14.96722453304406
 10
21.81612923416907
 20
14.881223502120672
 10
21.80439928191063
 20
14.821326269715275
 10
21.80439928191063
 20
14.74439267807738
 10
21.806942434113985
 20
14.717206381023507
 10
21.80931276294243
 20
14.708963979814241
 10
21.817114516493042
 20
14.704585316286039
 10
21.84389012118071
 20
14.704585316286039
 10
21.933968706936792
 20
14.778130255049273
 10
21.98213598708375
 20
14.855436226123944
 10
22.040580939685725
 20
14.94516105141509
 10
22.07397956815972
 20
14.99732840934779
 10
22.09884609358238
 20
15.058309672465342
 10
22.127769160719374
 20
15.118815809257761
 10
22.142025555048832
 20
15.156577701184585
 10
22.15454289437369
 20
15.203168662249006
 10
22.16394473988723
 20
15.230027864071895
 10
22.195323214637938
 20
15.24438654783634
 10
22.25438259331059
 20
15.24438654783634
 10
22.282422764899813
 20
15.238205049185861
 10
22.293687242862283
 20
15.190968717630842
 10
22.293687242862283
 20
15.143695148132146
 10
22.293687242862283
 20
15.107845147618727
 10
22.28713556785444
 20
15.080655330262474
 10
22.27701061358174
 20
15.045547590813491
 10
22.265920075600874
 20
15.014645676016723
 10
22.254070743690974
 20
14.988706064784672
 10
22.242621361416308
 20
14.948526469561763
 10
22.228911890539795
 20
14.910630900575148
 10
22.206122218304436
 20
14.847150783655682
 10
22.160356785524684
 20
14.756867389209372
 10
22.137846448571583
 20
14.67431086807616
 10
22.133973702429113
 20
14.609312037386932
 10
22.117198008802358
 20
14.537610376835739
 10
22.113269405744376
 20
14.486985392406059
 10
22.10349444552901
 20
14.364714604340703
 10
22.089064742353944
 20
14.299641297764119
 10
22.082045389970716
 20
14.198298234045566
 10
22.082045389970716
 20
14.112353060037695
 10
22.075156370390363
 20
14.024359799127557
 10
22.075156370390363
 20
13.928974806397418
 10
22.075156370390363
 20
13.86783010287882
 10
22.07240076255822
 20
13.817949877322691
 10
22.133821264256227
 20
13.795237147864158
 10
22.25400707799425
 20
13.805534348200588
 10
22.2778266395272
 20
13.755978262053192
 10
22.245510268660038
 20
13.710605818306636
 10
22.132228112506063
 20
13.682874615891171
 10
22.028297627601017
 20
13.634549012802847
 10
21.91921206630113
 20
13.57522677690241
 10
21.809802693669912
 20
13.557365343866012
 10
21.70672707067959
 20
13.55320760637168
 10
21.628597956204604
 20
13.572585444546664
 10
21.643635670882425
 20
13.648252708344911
 10
21.72509364939287
 20
13.677253251179208
 10
21.75612772738795
 20
13.767000799771811
 10
21.78814619183028
 20
13.883546974145638
 10
21.814258337589074
 20
14.000637151556106
 10
21.834360545038304
 20
14.088143925735874
 10
21.850317967446458
 20
14.195817669631143
 10
21.840396388254373
 20
14.250295688014818
 10
21.771800195824525
 20
14.24784767434993
 10
21.722865827433292
 20
14.247744054723904
 10
21.71447263772511
 20
14.162063576452859
 10
21.710314900230777
 20
14.080942361727
 10
21.702932001876356
 20
14.007514904233645
 10
21.69321396496553
 20
13.922316575997222
 10
21.670654488368957
 20
13.860569322074157
 10
21.640060793784496
 20
13.789512163526169
 10
21.614531508422104
 20
13.720203586167385
 10
21.582525996433024
 20
13.671541219294472
 10
21.54653112884191
 20
13.613073845308758
 10
21.50288136137805
 20
13.582726247336112
 10
21.441214731438755
 20
13.565797390933955
 10
21.358850081200572
 20
13.56457986032814
 10
21.288958643445387
 20
13.580200518951704
 10
21.248683540828008
 20
13.599232872646471
 10
21.238354003211395
 20
13.646993606665768
  0
LWPOLYLINE
  5
39
330
17
100
AcDbEntity
  8
shape_5
100
AcDbPolyline
 90
110
 70
1
 10
22.449735642819547
 20
13.66764002344396
 10
22.515745372710047
 20
13.690719512336834
 10
22.554071674213496
 20
13.70907547889153
 10
22.591301799646907
 20
13.751726693253143
 10
22.616294614043852
 20
13.827741521092022
 10
22.625562284454205
 20
13.889306755280353
 10
22.632418367510464
 20
13.969188095075376
 10
22.64154652460281
 20
14.026288903087538
 10
22.644456373806918
 20
14.079024937293534
 10
22.644456373806918
 20
14.138636985029791
 10
22.661716164291573
 20
14.24634126652987
 10
22.661716164291573
 20
14.29606779916175
 10
22.672319176459975
 20
14.411146356042108
 10
22.674623121361485
 20
14.49322028559598
 10
22.679384245250006
 20
14.524880573732142
 10
22.69468116828882
 20
14.588467783226822
 10
22.722982441369894
 20
14.67956997988427
 10
22.757681396605207
 20
14.774179939965851
 10
22.8024851021589
 20
14.87295536911359
 10
22.845435273630528
 20
14.953853163082654
 10
22.910568062664993
 20
15.007107389612669
 10
22.984809078317802
 20
15.077442032361333
 10
23.1009638807942
 20
15.152500197448173
 10
23.18861810544952
 20
15.171474008696892
 10
23.24276920330957
 20
15.171474008696892
 10
23.29058241043738
 20
15.194015374791746
 10
23.31934208442047
 20
15.283582924951137
 10
23.34497267398544
 20
15.39700725248943
 10
23.356233391795865
 20
15.490102496546955
 10
23.371819022464454
 20
15.612635050703593
 10
23.383259114540888
 20
15.738216967382348
 10
23.383259114540888
 20
15.817580114853351
 10
23.30666630295599
 20
15.829179650721791
 10
23.177357387639095
 20
15.829179650721791
 10
23.09743618689607
 20
15.840041759052202
 10
23.053748587886414
 20
15.868462614977279
 10
23.050892842283375
 20
15.898765684281322
 10
23.067600267316937
 20
15.925124952561424
 10
23.117227147578816
 20
15.925124952561424
 10
23.1669138192627
 20
15.915857282151073
 10
23.256401647526086
 20
15.915857282151073
 10
23.327971979662795
 20
15.915857282151073
 10
23.436453549648903
 20
15.915857282151073
 10
23.507585411357596
 20
15.938079760661914
 10
23.56823384374189
 20
15.975349747043325
 10
23.62150800074591
 20
16.029480914429374
 10
23.667926074693664
 20
16.077553217719196
 10
23.717273928319532
 20
16.088913587899626
 10
23.765465814453357
 20
16.088913587899626
 10
23.79346227872209
 20
16.068862572660308
 10
23.802119380783754
 20
16.049509492996858
 10
23.79887592510484
 20
16.029724634180823
 10
23.780732557537934
 20
15.985873037315724
 10
23.7401341819984
 20
15.952688798104466
 10
23.71593858656148
 20
15.91051591511887
 10
23.685106143282315
 20
15.851541642550638
 10
23.658479030017308
 20
15.78473469370011
 10
23.633765242256374
 20
15.70102670289694
 10
23.615369414753676
 20
15.616083022705723
 10
23.599783784085087
 20
15.54014791676285
 10
23.586852339780926
 20
15.456660067919726
 10
23.559783322765572
 20
15.350629039489675
 10
23.537461191884727
 20
15.250199380999872
 10
23.5262403350223
 20
15.161269606008506
 10
23.500390510243324
 20
15.050755127674321
 10
23.472009515266247
 20
14.94821283894044
 10
23.461406503097848
 20
14.855874952894945
 10
23.448391903575356
 20
14.731847613188249
 10
23.427245670660554
 20
14.593350749357006
 10
23.39023478044115
 20
14.470937778044371
 10
23.378754827416717
 20
14.389741026965298
 10
23.35818657824794
 20
14.287995957191447
 10
23.342383204696986
 20
14.192824263077682
 10
23.33324204730265
 20
14.100555465013334
 10
23.320902233060547
 20
13.978883921106808
 10
23.31428153178624
 20
13.914803175477411
 10
23.309916623652448
 20
13.872555903439569
 10
23.327649625224595
 20
13.860511812776405
 10
23.37769851229468
 20
13.861344300257294
 10
23.44299074512115
 20
13.845579295322697
 10
23.466189816858027
 20
13.807631672825261
 10
23.450245437657426
 20
13.776121593430068
 10
23.427265601134554
 20
13.769125997055802
 10
23.378673812114705
 20
13.733521641743124
 10
23.30929712552409
 20
13.700963775973221
 10
23.26022741520611
 20
13.677607112516005
 10
23.18885081843185
 20
13.642005388330954
 10
23.124260694060187
 20
13.605956146402491
 10
23.065399526842345
 20
13.581133479967392
 10
22.99551993617076
 20
13.549084850275799
 10
22.91680630102723
 20
13.546064132039358
 10
22.88888370695217
 20
13.588217084550953
 10
22.88888370695217
 20
13.621799933242226
 10
22.927010703715617
 20
13.670848829758082
 10
22.974784049895426
 20
13.670848829758082
 10
23.008765508066713
 20
13.67740595570433
 10
23.027520084101422
 20
13.744352417872864
 10
23.033399573931643
 20
13.799500039432953
 10
23.02939354865749
 20
13.854209190565024
 10
23.004301081890542
 20
13.892196674010462
 10
22.927249869403624
 20
13.892196674010462
 10
22.874892514203644
 20
13.892196674010462
 10
22.84974025601469
 20
13.83960015312247
 10
22.80483689809099
 20
13.741362846772752
 10
22.755429253043122
 20
13.679159837416396
 10
22.696893450902905
 20
13.611037477281817
 10
22.644795191864933
 20
13.592003874611096
 10
22.583807941422624
 20
13.585147791554837
 10
22.513931699575977
 20
13.585147791554837
 10
22.447902039211478
 20
13.59441546196519
  0
LWPOLYLINE
  5
3B
330
17
100
AcDbEntity
  8
shape_6
100
AcDbPolyline
 90
37
 70
1
 10
23.032273903451966
 20
14.849192722184622
 10
23.00763919172206
 20
14.793356888561801
 10
22.97679670341412
 20
14.719128275366636
 10
22.95466388788417
 20
14.642457538235682
 10
22.932915322623835
 20
14.571968960998126
 10
22.924282499899768
 20
14.507457610176836
 10
22.907939055098716
 20
14.434979470432149
 10
22.90420755803599
 20
14.381329593898707
 10
22.899903955016274
 20
14.331248975425263
 10
22.892987450163165
 20
14.261409354198616
 10
22.886702823531206
 20
14.197342025911105
 10
22.886702823531206
 20
14.13071302915948
 10
22.924162955371443
 20
14.106325945381109
 10
22.96765154699723
 20
14.106325945381109
 10
23.00486405088594
 20
14.11571872974953
 10
23.035185666606175
 20
14.152598216737902
 10
23.05555946979077
 20
14.20862190604809
 10
23.08423307879909
 20
14.264466278565791
 10
23.100875384920958
 20
14.315281241998948
 10
23.11481086136574
 20
14.36110095192708
 10
23.126560209823374
 20
14.396798493118796
 10
23.14379187058976
 20
14.451784015556742
 10
23.154047083341098
 20
14.495605624082865
 10
23.17173113463837
 20
14.553653031479705
 10
23.178323161486027
 20
14.601667237392096
 10
23.185811772296123
 20
14.658066638077022
 10
23.197838491762486
 20
14.704159314818645
 10
23.208839827353433
 20
14.747016459535805
 10
23.226038506077604
 20
14.797250624627257
 10
23.239349396990868
 20
14.840676899737778
 10
23.24672824837277
 20
14.889035205696487
 10
23.24672824837277
 20
14.932224936001461
 10
23.23723736861811
 20
14.95942299441354
 10
23.20361536812172
 20
14.967985827760502
 10
23.156839301966983
 20
14.967985827760502
 10
23.111011053143972
 20
14.943504816138447
 10
23.06748830593866
 20
14.901963092545387
  0
LWPOLYLINE
  5
3D
330
17
100
AcDbEntity
  8
shape_7
100
AcDbPolyline
 90
49
 70
1
 10
23.89814332365304
 20
14.466314138915306
 10
23.880273080248624
 20
14.363481067375464
 10
23.87028987254084
 20
14.254661087285786
 10
23.866190219913964
 20
14.131866339271994
 10
23.862960810688904
 20
14.021262136087346
 10
23.85671210996947
 20
13.889106071465426
 10
23.85364113944508
 20
13.768258698453682
 10
23.85364113944508
 20
13.678832079560696
 10
23.85364113944508
 20
13.58985787189314
 10
23.85364113944508
 20
13.550754461641956
 10
23.908413058470263
 20
13.550754461641956
 10
23.976289822658682
 20
13.550754461641956
 10
24.048675618727206
 20
13.550754461641956
 10
24.074915469802043
 20
13.553318125252716
 10
24.125691089669274
 20
13.563044966599424
 10
24.18718885557916
 20
13.589013370939005
 10
24.263329664818734
 20
13.625326911966715
 10
24.30198066384449
 20
13.656905215501606
 10
24.33494636180403
 20
13.682662494602656
 10
24.35952737171896
 20
13.713124850448159
 10
24.415822408536417
 20
13.765996642326542
 10
24.449496884082464
 20
13.812368792932938
 10
24.488524892462742
 20
13.874545175680963
 10
24.512140758430096
 20
13.921761827241491
 10
24.543990508700244
 20
13.985265282917439
 10
24.58167636377842
 20
14.037865628060564
 10
24.606242293319173
 20
14.090254847965156
 10
24.624187938594496
 20
14.150229496082762
 10
24.64622036527285
 20
14.216809348091621
 10
24.657530645908558
 20
14.284520228164052
 10
24.673048350940746
 20
14.363481067375464
 10
24.67917098285821
 20
14.451761577830698
 10
24.67917098285821
 20
14.564231008472163
 10
24.67917098285821
 20
15.22420850412691
 10
24.675043499565078
 20
15.261186666804768
 10
24.6392746666823
 20
15.262848381227741
 10
24.58071639202583
 20
15.24658007223879
 10
24.51103052315461
 20
15.225432691341634
 10
24.426893046748766
 20
15.19369726446119
 10
24.367942220511928
 20
15.16547044669214
 10
24.303217254527326
 20
15.108662677152532
 10
24.230650493968632
 20
15.043681344806853
 10
24.174641984260614
 20
14.985124251862254
 10
24.129400861717787
 20
14.933850979647053
 10
24.079288778314517
 20
14.880722821407593
 10
24.018891879719845
 20
14.800299185900629
 10
23.977315288102986
 20
14.720599408354351
 10
23.946234636916067
 20
14.630509252997404
 10
23.925046711191843
 20
14.577878747105917
  0
LWPOLYLINE
  5
3F
330
17
100
AcDbEntity
  8
shape_8
100
AcDbPolyline
 90
36
 70
1
 10
24.282747560173664
 20
14.892597339288299
 10
24.23766286796277
 20
14.790255656696122
 10
24.203287839044183
 20
14.723208476026201
 10
24.19022602896781
 20
14.688054251297933
 10
24.178623590364236
 20
14.650878761329093
 10
24.167267681286134
 20
14.57539048536606
 10
24.146230559303717
 20
14.478484000879327
 10
24.12817935140913
 20
14.378712245298216
 10
24.119369736561875
 20
14.241886408709618
 10
24.117472285740664
 20
14.12040051595286
 10
24.117472285740664
 20
14.004764206733396
 10
24.117472285740664
 20
13.914749453247353
 10
24.142385063887577
 20
13.864833414708436
 10
24.2074116373558
 20
13.864833414708436
 10
24.262123234884257
 20
13.869176562472546
 10
24.293882502909323
 20
13.939043936052851
 10
24.321796275518246
 20
14.008051728304842
 10
24.333195458086994
 20
14.07890650178578
 10
24.34250883330721
 20
14.14528608015075
 10
24.347817513388982
 20
14.1927072912147
 10
24.358746818226464
 20
14.26311404721714
 10
24.3655449638685
 20
14.317330593610746
 10
24.372059162663327
 20
14.386765165110837
 10
24.372059162663327
 20
14.424570177252292
 10
24.372059162663327
 20
14.484214543068084
 10
24.372059162663327
 20
14.566613707592753
 10
24.372059162663327
 20
14.645242778572184
 10
24.372059162663327
 20
14.717583333518164
 10
24.380654975946463
 20
14.797479155928794
 10
24.380654975946463
 20
14.849747732839939
 10
24.38285671057688
 20
14.883512690631068
 10
24.373543250415374
 20
14.914924264340584
 10
24.350014926283315
 20
14.933722112202592
 10
24.32273026232096
 20
14.935792916218041
 10
24.31339727839783
 20
14.929897913267215
 10
24.30097011170536
 20
14.922226456430948
  0
ENDSEC
  0
SECTION
  2
OBJECTS
  0
DICTIONARY
  5
A
330
0
100
AcDbDictionary
281
1
  3
ACAD_COLOR
350
B
  3
ACAD_GROUP
350
C
  3
ACAD_LAYOUT
350
D
  3
ACAD_MATERIAL
350
E
  3
ACAD_MLEADERSTYLE
350
F
  3
ACAD_MLINESTYLE
350
10
  3
ACAD_PLOTSETTINGS
350
11
  3
ACAD_PLOTSTYLENAME
350
12
  3
ACAD_SCALELIST
350
14
  3
ACAD_TABLESTYLE
350
15
  3
ACAD_VISUALSTYLE
350
16
  3
EZDXF_META
350
2D
  0
DICTIONARY
  5
B
330
A
100
AcDbDictionary
281
1
  0
DICTIONARY
  5
C
330
A
100
AcDbDictionary
281
1
  0
DICTIONARY
  5
D
330
A
100
AcDbDictionary
281
1
  3
Model
350
1A
  3
Layout1
350
1E
  0
DICTIONARY
  5
E
330
A
100
AcDbDictionary
281
1
  3
ByBlock
350
1F
  3
ByLayer
350
20
  3
Global
350
21
  0
DICTIONARY
  5
F
330
A
100
AcDbDictionary
281
1
  3
Standard
350
2C
  0
DICTIONARY
  5
10
330
A
100
AcDbDictionary
281
1
  3
Standard
350
22
  0
DICTIONARY
  5
11
330
A
100
AcDbDictionary
281
1
  0
ACDBDICTIONARYWDFLT
  5
12
330
A
100
AcDbDictionary
281
1
  3
Normal
350
13
100
AcDbDictionaryWithDefault
340
13
  0
ACDBPLACEHOLDER
  5
13
330
12
  0
DICTIONARY
  5
14
330
A
100
AcDbDictionary
281
1
  0
DICTIONARY
  5
15
330
A
100
AcDbDictionary
281
1
  0
DICTIONARY
  5
16
330
A
100
AcDbDictionary
281
1
  0
LAYOUT
  5
1A
330
D
100
AcDbPlotSettings
  1

  4
A3
  6

 40
7.5
 41
20.0
 42
7.5
 43
20.0
 44
420.0
 45
297.0
 46
0.0
 47
0.0
 48
0.0
 49
0.0
140
0.0
141
0.0
142
1.0
143
1.0
 70
1024
 72
1
 73
0
 74
5
  7

 75
16
 76
0
 77
2
 78
300
147
1.0
148
0.0
149
0.0
100
AcDbLayout
  1
Model
 70
1
 71
0
 10
0.0
 20
0.0
 11
420.0
 21
297.0
 12
0.0
 22
0.0
 32
0.0
 14
1e+20
 24
1e+20
 34
1e+20
 15
-1e+20
 25
-1e+20
 35
-1e+20
146
0.0
 13
0.0
 23
0.0
 33
0.0
 16
1.0
 26
0.0
 36
0.0
 17
0.0
 27
1.0
 37
0.0
 76
1
330
17
  0
LAYOUT
  5
1E
330
D
100
AcDbPlotSettings
  1

  4
A3
  6

 40
7.5
 41
20.0
 42
7.5
 43
20.0
 44
420.0
 45
297.0
 46
0.0
 47
0.0
 48
0.0
 49
0.0
140
0.0
141
0.0
142
1.0
143
1.0
 70
0
 72
1
 73
0
 74
5
  7

 75
16
 76
0
 77
2
 78
300
147
1.0
148
0.0
149
0.0
100
AcDbLayout
  1
Layout1
 70
1
 71
1
 10
0.0
 20
0.0
 11
420.0
 21
297.0
 12
0.0
 22
0.0
 32
0.0
 14
1e+20
 24
1e+20
 34
1e+20
 15
-1e+20
 25
-1e+20
 35
-1e+20
146
0.0
 13
0.0
 23
0.0
 33
0.0
 16
1.0
 26
0.0
 36
0.0
 17
0.0
 27
1.0
 37
0.0
 76
1
330
1B
  0
MATERIAL
  5
1F
102
{ACAD_REACTORS
330
E
102
}
330
E
100
AcDbMaterial
  1
ByBlock
  2

 70
0
 40
1.0
 71
1
 41
1.0
 91
-1023410177
 42
1.0
 72
1
  3

 73
1
 74
1
 75
1
 44
0.5
 73
0
 45
1.0
 46
1.0
 77
1
  4

 78
1
 79
1
170
1
 48
1.0
171
1
  6

172
1
173
1
174
1
140
1.0
141
1.0
175
1
  7

176
1
177
1
178
1
143
1.0
179
1
  8

270
1
271
1
272
1
145
1.0
146
1.0
273
1
  9

274
1
275
1
276
1
 42
1.0
 72
1
  3

 73
1
 74
1
 75
1
 94
63
  0
MATERIAL
  5
20
102
{ACAD_REACTORS
330
E
102
}
330
E
100
AcDbMaterial
  1
ByLayer
  2

 70
0
 40
1.0
 71
1
 41
1.0
 91
-1023410177
 42
1.0
 72
1
  3

 73
1
 74
1
 75
1
 44
0.5
 73
0
 45
1.0
 46
1.0
 77
1
  4

 78
1
 79
1
170
1
 48
1.0
171
1
  6

172
1
173
1
174
1
140
1.0
141
1.0
175
1
  7

176
1
177
1
178
1
143
1.0
179
1
  8

270
1
271
1
272
1
145
1.0
146
1.0
273
1
  9

274
1
275
1
276
1
 42
1.0
 72
1
  3

 73
1
 74
1
 75
1
 94
63
  0
MATERIAL
  5
21
102
{ACAD_REACTORS
330
E
102
}
330
E
100
AcDbMaterial
  1
Global
  2

 70
0
 40
1.0
 71
1
 41
1.0
 91
-1023410177
 42
1.0
 72
1
  3

 73
1
 74
1
 75
1
 44
0.5
 73
0
 45
1.0
 46
1.0
 77
1
  4

 78
1
 79
1
170
1
 48
1.0
171
1
  6

172
1
173
1
174
1
140
1.0
141
1.0
175
1
  7

176
1
177
1
178
1
143
1.0
179
1
  8

270
1
271
1
272
1
145
1.0
146
1.0
273
1
  9

274
1
275
1
276
1
 42
1.0
 72
1
  3

 73
1
 74
1
 75
1
 94
63
  0
MLINESTYLE
  5
22
102
{ACAD_REACTORS
330
10
102
}
330
10
100
AcDbMlineStyle
  2
Standard
 70
0
  3

 62
256
 51
90.0
 52
90.0
 71
2
 49
0.5
 62
256
  6
BYLAYER
 49
-0.5
 62
256
  6
BYLAYER
  0
MLEADERSTYLE
  5
2C
102
{ACAD_REACTORS
330
F
102
}
330
F
100
AcDbMLeaderStyle
179
2
170
2
171
1
172
0
 90
2
 40
0.0
 41
0.0
173
1
 91
-1056964608
 92
-2
290
1
 42
2.0
291
1
 43
8.0
  3
Standard
 44
4.0
300

342
29
174
1
175
1
176
0
178
1
 93
-1056964608
 45
4.0
292
0
297
0
 46
4.0
 94
-1056964608
 47
1.0
 49
1.0
140
1.0
294
1
141
0.0
177
0
142
1.0
295
0
296
0
143
3.75
271
0
272
9
273
9
  0
DICTIONARY
  5
2D
330
A
100
AcDbDictionary
280
1
281
1
  3
CREATED_BY_EZDXF
350
2E
  3
WRITTEN_BY_EZDXF
350
42
  0
DICTIONARYVAR
  5
2E
330
2D
100
DictionaryVariables
280
0
  1
1.4.3 @ 2026-07-03T21:49:14.119972+00:00
  0
DICTIONARYVAR
  5
42
330
2D
100
DictionaryVariables
280
0
  1
1.4.3 @ 2026-07-03T21:49:14.123063+00:00
  0
ENDSEC
  0
EOF
