  0
SECTION
  2
HEADER
  9
$ACADVER
  1
AC1024
  9
$ACADMAINTVER
 70
6
  9
$DWGCODEPAGE
  3
ANSI_1252
  9
$LASTSAVEDBY
  1
ezdxf
  9
$INSBASE
 10
0.0
 20
0.0
 30
0.0
  9
$EXTMIN
 10
1e+20
 20
1e+20
 30
1e+20
  9
$EXTMAX
 10
-1e+20
 20
-1e+20
 30
-1e+20
  9
$LIMMIN
 10
0.0
 20
0.0
  9
$LIMMAX
 10
420.0
 20
297.0
  9
$ORTHOMODE
 70
0
  9
$REGENMODE
 70
1
  9
$FILLMODE
 70
1
  9
$QTEXTMODE
 70
0
  9
$MIRRTEXT
 70
1
  9
$LTSCALE
 40
1.0
  9
$ATTMODE
 70
1
  9
$TEXTSIZE
 40
2.5
  9
$TRACEWID
 40
1.0
  9
$TEXTSTYLE
  7
Standard
  9
$CLAYER
  8
0
  9
$CELTYPE
  6
ByLayer
  9
$CECOLOR
 62
256
  9
$CELTSCALE
 40
1.0
  9
$DISPSILH
 70
0
  9
$DIMSCALE
 40
1.0
  9
$DIMASZ
 40
2.5
  9
$DIMEXO
 40
0.625
  9
$DIMDLI
 40
3.75
  9
$DIMRND
 40
0.0
  9
$DIMDLE
 40
0.0
  9
$DIMEXE
 40
1.25
  9
$DIMTP
 40
0.0
  9
$DIMTM
 40
0.0
  9
$DIMTXT
 40
2.5
  9
$DIMCEN
 40
2.5
  9
$DIMTSZ
 40
0.0
  9
$DIMTOL
 70
0
  9
$DIMLIM
 70
0
  9
$DIMTIH
 70
0
  9
$DIMTOH
 70
0
  9
$DIMSE1
 70
0
  9
$DIMSE2
 70
0
  9
$DIMTAD
 70
1
  9
$DIMZIN
 70
8
  9
$DIMBLK
  1

  9
$DIMASO
 70
1
  9
$DIMSHO
 70
1
  9
$DIMPOST
  1

  9
$DIMAPOST
  1

  9
$DIMALT
 70
0
  9
$DIMALTD
 70
3
  9
$DIMALTF
 40
0.03937007874
  9
$DIMLFAC
 40
1.0
  9
$DIMTOFL
 70
1
  9
$DIMTVP
 40
0.0
  9
$DIMTIX
 70
0
  9
$DIMSOXD
 70
0
  9
$DIMSAH
 70
0
  9
$DIMBLK1
  1

  9
$DIMBLK2
  1

  9
$DIMSTYLE
  2
ISO-25
  9
$DIMCLRD
 70
0
  9
$DIMCLRE
 70
0
  9
$DIMCLRT
 70
0
  9
$DIMTFAC
 40
1.0
  9
$DIMGAP
 40
0.625
  9
$DIMJUST
 70
0
  9
$DIMSD1
 70
0
  9
$DIMSD2
 70
0
  9
$DIMTOLJ
 70
0
  9
$DIMTZIN
 70
8
  9
$DIMALTZ
 70
0
  9
$DIMALTTZ
 70
0
  9
$DIMUPT
 70
0
  9
$DIMDEC
 70
2
  9
$DIMTDEC
 70
2
  9
$DIMALTU
 70
2
  9
$DIMALTTD
 70
3
  9
$DIMTXSTY
  7
Standard
  9
$DIMAUNIT
 70
0
  9
$DIMADEC
 70
0
  9
$DIMALTRND
 40
0.0
  9
$DIMAZIN
 70
0
  9
$DIMDSEP
 70
44
  9
$DIMATFIT
 70
3
  9
$DIMFRAC
 70
0
  9
$DIMLDRBLK
  1

  9
$DIMLUNIT
 70
2
  9
$DIMLWD
 70
-2
  9
$DIMLWE
 70
-2
  9
$DIMTMOVE
 70
0
  9
$DIMFXL
 40
1.0
  9
$DIMFXLON
 70
0
  9
$DIMJOGANG
 40
0.785398163397
  9
$DIMTFILL
 70
0
  9
$DIMTFILLCLR
 70
0
  9
$DIMARCSYM
 70
0
  9
$DIMLTYPE
  6

  9
$DIMLTEX1
  6

  9
$DIMLTEX2
  6

  9
$DIMTXTDIRECTION
 70
0
  9
$LUNITS
 70
2
  9
$LUPREC
 70
4
  9
$SKETCHINC
 40
1.0
  9
$FILLETRAD
 40
10.0
  9
$AUNITS
 70
0
  9
$AUPREC
 70
2
  9
$MENU
  1
.
  9
$ELEVATION
 40
0.0
  9
$PELEVATION
 40
0.0
  9
$THICKNESS
 40
0.0
  9
$LIMCHECK
 70
0
  9
$CHAMFERA
 40
0.0
  9
$CHAMFERB
 40
0.0
  9
$CHAMFERC
 40
0.0
  9
$CHAMFERD
 40
0.0
  9
$SKPOLY
 70
0
  9
$TDCREATE
 40
2461140.590138889
  9
$TDUCREATE
 40
2458532.153996898
  9
$TDUPDATE
 40
2461140.590138889
  9
$TDUUPDATE
 40
2458532.1544311
  9
$TDINDWG
 40
0.0
  9
$TDUSRTIMER
 40
0.0
  9
$USRTIMER
 70
1
  9
$ANGBASE
 50
0.0
  9
$ANGDIR
 70
0
  9
$PDMODE
 70
0
  9
$PDSIZE
 40
0.0
  9
$PLINEWID
 40
0.0
  9
$SPLFRAME
 70
0
  9
$SPLINETYPE
 70
6
  9
$SPLINESEGS
 70
8
  9
$HANDSEED
  5
3B
  9
$SURFTAB1
 70
6
  9
$SURFTAB2
 70
6
  9
$SURFTYPE
 70
6
  9
$SURFU
 70
6
  9
$SURFV
 70
6
  9
$UCSBASE
  2

  9
$UCSNAME
  2

  9
$UCSORG
 10
0.0
 20
0.0
 30
0.0
  9
$UCSXDIR
 10
1.0
 20
0.0
 30
0.0
  9
$UCSYDIR
 10
0.0
 20
1.0
 30
0.0
  9
$UCSORTHOREF
  2

  9
$UCSORTHOVIEW
 70
0
  9
$UCSORGTOP
 10
0.0
 20
0.0
 30
0.0
  9
$UCSORGBOTTOM
 10
0.0
 20
0.0
 30
0.0
  9
$UCSORGLEFT
 10
0.0
 20
0.0
 30
0.0
  9
$UCSORGRIGHT
 10
0.0
 20
0.0
 30
0.0
  9
$UCSORGFRONT
 10
0.0
 20
0.0
 30
0.0
  9
$UCSORGBACK
 10
0.0
 20
0.0
 30
0.0
  9
$PUCSBASE
  2

  9
$PUCSNAME
  2

  9
$PUCSORG
 10
0.0
 20
0.0
 30
0.0
  9
$PUCSXDIR
 10
1.0
 20
0.0
 30
0.0
  9
$PUCSYDIR
 10
0.0
 20
1.0
 30
0.0
  9
$PUCSORTHOREF
  2

  9
$PUCSORTHOVIEW
 70
0
  9
$PUCSORGTOP
 10
0.0
 20
0.0
 30
0.0
  9
$PUCSORGBOTTOM
 10
0.0
 20
0.0
 30
0.0
  9
$PUCSORGLEFT
 10
0.0
 20
0.0
 30
0.0
  9
$PUCSORGRIGHT
 10
0.0
 20
0.0
 30
0.0
  9
$PUCSORGFRONT
 10
0.0
 20
0.0
 30
0.0
  9
$PUCSORGBACK
 10
0.0
 20
0.0
 30
0.0
  9
$USERI1
 70
0
  9
$USERI2
 70
0
  9
$USERI3
 70
0
  9
$USERI4
 70
0
  9
$USERI5
 70
0
  9
$USERR1
 40
0.0
  9
$USERR2
 40
0.0
  9
$USERR3
 40
0.0
  9
$USERR4
 40
0.0
  9
$USERR5
 40
0.0
  9
$WORLDVIEW
 70
1
  9
$SHADEDGE
 70
3
  9
$SHADEDIF
 70
70
  9
$TILEMODE
 70
1
  9
$MAXACTVP
 70
64
  9
$PINSBASE
 10
0.0
 20
0.0
 30
0.0
  9
$PLIMCHECK
 70
0
  9
$PEXTMIN
 10
1e+20
 20
1e+20
 30
1e+20
  9
$PEXTMAX
 10
-1e+20
 20
-1e+20
 30
-1e+20
  9
$PLIMMIN
 10
0.0
 20
0.0
  9
$PLIMMAX
 10
420.0
 20
297.0
  9
$UNITMODE
 70
0
  9
$VISRETAIN
 70
1
  9
$PLINEGEN
 70
0
  9
$PSLTSCALE
 70
1
  9
$TREEDEPTH
 70
3020
  9
$CMLSTYLE
  2
Standard
  9
$CMLJUST
 70
0
  9
$CMLSCALE
 40
20.0
  9
$PROXYGRAPHICS
 70
1
  9
$MEASUREMENT
 70
1
  9
$CELWEIGHT
370
-1
  9
$ENDCAPS
280
0
  9
$JOINSTYLE
280
0
  9
$LWDISPLAY
290
0
  9
$INSUNITS
 70
6
  9
$HYPERLINKBASE
  1

  9
$STYLESHEET
  1

  9
$XEDIT
290
1
  9
$CEPSNTYPE
380
0
  9
$PSTYLEMODE
290
1
  9
$FINGERPRINTGUID
  2
{0D3C2CB8-F1CA-4505-AD0E-1585CEBE9931}
  9
$VERSIONGUID
  2
{4B4D1CFC-4DC0-4CFB-8DDE-B6A0853D01B5}
  9
$EXTNAMES
290
1
  9
$PSVPSCALE
 40
0.0
  9
$OLESTARTUP
290
0
  9
$SORTENTS
280
127
  9
$INDEXCTL
280
0
  9
$HIDETEXT
280
1
  9
$XCLIPFRAME
280
1
  9
$HALOGAP
280
0
  9
$OBSCOLOR
 70
257
  9
$OBSLTYPE
280
0
  9
$INTERSECTIONDISPLAY
280
0
  9
$INTERSECTIONCOLOR
 70
257
  9
$DIMASSOC
280
2
  9
$PROJECTNAME
  1

  9
$CAMERADISPLAY
290
0
  9
$LENSLENGTH
 40
50.0
  9
$CAMERAHEIGHT
 40
0.0
  9
$STEPSPERSEC
 40
24.0
  9
$STEPSIZE
 40
100.0
  9
$3DDWFPREC
 40
2.0
  9
$PSOLWIDTH
 40
0.005
  9
$PSOLHEIGHT
 40
0.08
  9
$LOFTANG1
 40
1.570796326795
  9
$LOFTANG2
 40
1.570796326795
  9
$LOFTMAG1
 40
0.0
  9
$LOFTMAG2
 40
0.0
  9
$LOFTPARAM
 70
7
  9
$LOFTNORMALS
280
1
  9
$LATITUDE
 40
37.795
  9
$LONGITUDE
 40
-122.394
  9
$NORTHDIRECTION
 40
0.0
  9
$TIMEZONE
 70
-8000
  9
$LIGHTGLYPHDISPLAY
280
1
  9
$TILEMODELIGHTSYNCH
280
1
  9
$CMATERIAL
347
20
  9
$SOLIDHIST
280
0
  9
$SHOWHIST
280
1
  9
$DWFFRAME
280
2
  9
$DGNFRAME
280
2
  9
$REALWORLDSCALE
290
1
  9
$INTERFERECOLOR
 62
256
  9
$CSHADOW
280
0
  9
$SHADOWPLANELOCATION
 40
0.0
  0
ENDSEC
  0
SECTION
  2
CLASSES
  0
CLASS
  1
ACDBDICTIONARYWDFLT
  2
AcDbDictionaryWithDefault
  3
ObjectDBX Classes
 90
0
 91
0
280
0
281
0
  0
CLASS
  1
SUN
  2
AcDbSun
  3
SCENEOE
 90
1153
 91
0
280
0
281
0
  0
CLASS
  1
VISUALSTYLE
  2
AcDbVisualStyle
  3
ObjectDBX Classes
 90
4095
 91
0
280
0
281
0
  0
CLASS
  1
MATERIAL
  2
AcDbMaterial
  3
ObjectDBX Classes
 90
1153
 91
0
280
0
281
0
  0
CLASS
  1
SCALE
  2
AcDbScale
  3
ObjectDBX Classes
 90
1153
 91
0
280
0
281
0
  0
CLASS
  1
TABLESTYLE
  2
AcDbTableStyle
  3
ObjectDBX Classes
 90
4095
 91
0
280
0
281
0
  0
CLASS
  1
MLEADERSTYLE
  2
AcDbMLeaderStyle
  3
ACDB_MLEADERSTYLE_CLASS
 90
4095
 91
0
280
0
281
0
  0
CLASS
  1
DICTIONARYVAR
  2
AcDbDictionaryVar
  3
ObjectDBX Classes
 90
0
 91
0
280
0
281
0
  0
CLASS
  1
CELLSTYLEMAP
  2
AcDbCellStyleMap
  3
ObjectDBX Classes
 90
1152
 91
0
280
0
281
0
  0
CLASS
  1
MENTALRAYRENDERSETTINGS
  2
AcDbMentalRayRenderSettings
  3
SCENEOE
 90
1024
 91
0
280
0
281
0
  0
CLASS
  1
ACDBDETAILVIEWSTYLE
  2
AcDbDetailViewStyle
  3
ObjectDBX Classes
 90
1025
 91
0
280
0
281
0
  0
CLASS
  1
ACDBSECTIONVIEWSTYLE
  2
AcDbSectionViewStyle
  3
ObjectDBX Classes
 90
1025
 91
0
280
0
281
0
  0
CLASS
  1
RASTERVARIABLES
  2
AcDbRasterVariables
  3
ISM
 90
0
 91
0
280
0
281
0
  0
CLASS
  1
LAYOUT
  2
AcDbLayout
  3
ObjectDBX Classes
 90
0
 91
0
280
0
281
0
  0
CLASS
  1
ACDBPLACEHOLDER
  2
AcDbPlaceHolder
  3
ObjectDBX Classes
 90
0
 91
0
280
0
281
0
  0
ENDSEC
  0
SECTION
  2
TABLES
  0
TABLE
  2
VPORT
  5
8
330
0
100
AcDbSymbolTable
 70
1
  0
VPORT
  5
23
330
8
100
AcDbSymbolTableRecord
100
AcDbViewportTableRecord
  2
*Active
 70
0
 10
0.0
 20
0.0
 11
1.0
 21
1.0
 12
0.0
 22
0.0
 13
0.0
 23
0.0
 14
0.5
 24
0.5
 15
0.5
 25
0.5
 16
0.0
 26
0.0
 36
1.0
 17
0.0
 27
0.0
 37
0.0
 40
1000.0
 41
1.34
 42
50.0
 43
0.0
 44
0.0
 50
0.0
 51
0.0
 71
0
 72
1000
 73
1
 74
3
 75
0
 76
0
 77
0
 78
0
281
0
 65
0
146
0.0
  0
ENDTAB
  0
TABLE
  2
LTYPE
  5
2
330
0
100
AcDbSymbolTable
 70
3
  0
LTYPE
  5
24
330
2
100
AcDbSymbolTableRecord
100
AcDbLinetypeTableRecord
  2
ByBlock
 70
0
  3

 72
65
 73
0
 40
0.0
  0
LTYPE
  5
25
330
2
100
AcDbSymbolTableRecord
100
AcDbLinetypeTableRecord
  2
ByLayer
 70
0
  3

 72
65
 73
0
 40
0.0
  0
LTYPE
  5
26
330
2
100
AcDbSymbolTableRecord
100
AcDbLinetypeTableRecord
  2
Continuous
 70
0
  3

 72
65
 73
0
 40
0.0
  0
ENDTAB
  0
TABLE
  2
LAYER
  5
1
330
0
100
AcDbSymbolTable
 70
2
  0
LAYER
  5
27
330
1
100
AcDbSymbolTableRecord
100
AcDbLayerTableRecord
  2
0
 70
0
 62
7
  6
Continuous
370
-3
390
13
347
21
  0
LAYER
  5
28
330
1
100
AcDbSymbolTableRecord
100
AcDbLayerTableRecord
  2
Defpoints
 70
0
 62
7
  6
Continuous
290
0
370
-3
390
13
347
21
  0
ENDTAB
  0
TABLE
  2
STYLE
  5
5
330
0
100
AcDbSymbolTable
 70
1
  0
STYLE
  5
29
330
5
100
AcDbSymbolTableRecord
100
AcDbTextStyleTableRecord
  2
Standard
 70
0
 40
0.0
 41
1.0
 50
0.0
 71
0
 42
2.5
  3
txt
  4

  0
ENDTAB
  0
TABLE
  2
VIEW
  5
7
330
0
100
AcDbSymbolTable
 70
0
  0
ENDTAB
  0
TABLE
  2
UCS
  5
6
330
0
100
AcDbSymbolTable
 70
0
  0
ENDTAB
  0
TABLE
  2
APPID
  5
3
330
0
100
AcDbSymbolTable
 70
3
  0
APPID
  5
2A
330
3
100
AcDbSymbolTableRecord
100
AcDbRegAppTableRecord
  2
ACAD
 70
0
  0
APPID
  5
38
330
3
100
AcDbSymbolTableRecord
100
AcDbRegAppTableRecord
  2
HATCHBACKGROUNDCOLOR
 70
0
  0
APPID
  5
39
330
3
100
AcDbSymbolTableRecord
100
AcDbRegAppTableRecord
  2
EZDXF
 70
0
  0
ENDTAB
  0
TABLE
  2
DIMSTYLE
  5
4
330
0
100
AcDbSymbolTable
 70
1
100
AcDbDimStyleTable
  0
DIMSTYLE
105
2B
330
4
100
AcDbSymbolTableRecord
100
AcDbDimStyleTableRecord
  2
Standard
 70
0
 40
1.0
 41
2.5
 42
0.625
 43
3.75
 44
1.25
 45
0.0
 46
0.0
 47
0.0
 48
0.0
 49
2.5
140
2.5
141
2.5
142
0.0
143
0.03937007874
144
1.0
145
0.0
146
1.0
147
0.625
148
0.0
 69
0
 70
0
 71
0
 72
0
 73
0
 74
0
 75
0
 76
0
 77
1
 78
8
 79
3
170
0
171
3
172
1
173
0
174
0
175
0
176
0
177
0
178
0
179
2
271
2
272
2
273
2
274
3
275
0
276
0
277
2
278
44
279
0
280
0
281
0
282
0
283
0
284
8
285
0
286
0
288
0
289
3
290
0
371
-2
372
-2
  0
ENDTAB
  0
TABLE
  2
BLOCK_RECORD
  5
9
330
0
100
AcDbSymbolTable
 70
2
  0
BLOCK_RECORD
  5
17
330
9
100
AcDbSymbolTableRecord
100
AcDbBlockTableRecord
  2
*Model_Space
340
1A
 70
0
280
1
281
0
  0
BLOCK_RECORD
  5
1B
330
9
100
AcDbSymbolTableRecord
100
AcDbBlockTableRecord
  2
*Paper_Space
340
1E
 70
0
280
1
281
0
  0
ENDTAB
  0
ENDSEC
  0
SECTION
  2
BLOCKS
  0
BLOCK
  5
18
330
17
100
AcDbEntity
  8
0
100
AcDbBlockBegin
  2
*Model_Space
 70
0
 10
0.0
 20
0.0
 30
0.0
  3
*Model_Space
  1

  0
ENDBLK
  5
19
330
17
100
AcDbEntity
  8
0
100
AcDbBlockEnd
  0
BLOCK
  5
1C
330
1B
100
AcDbEntity
  8
0
100
AcDbBlockBegin
  2
*Paper_Space
 70
0
 10
0.0
 20
0.0
 30
0.0
  3
*Paper_Space
  1

  0
ENDBLK
  5
1D
330
1B
100
AcDbEntity
  8
0
100
AcDbBlockEnd
  0
ENDSEC
  0
SECTION
  2
ENTITIES
  0
LWPOLYLINE
  5
30
330
17
100
AcDbEntity
  8
0
100
AcDbPolyline
 90
88
 70
0
 10
90.50477200000005
 20
-76.70876200000006
 10
95.68002200000004
 20
-76.70876200000006
 10
96.62210800000004
 20
-79.74761800000007
 10
96.66325600000003
 20
-79.84007400000006
 10
96.71100800000004
 20
-79.92821200000006
 10
96.76511000000004
 20
-80.01177800000006
 10
96.82530800000005
 20
-80.09051800000006
 10
96.89109400000005
 20
-80.16417800000006
 10
96.96221400000005
 20
-80.23225000000006
 10
97.03816000000003
 20
-80.29473400000005
 10
97.11867800000003
 20
-80.35112200000005
 10
97.20326000000004
 20
-80.40141400000005
 10
97.29165200000004
 20
-80.44510200000005
 10
97.38360000000006
 20
-80.48193200000004
 10
97.47859600000005
 20
-80.51165000000005
 10
97.57638600000006
 20
-80.53425600000006
 10
97.67646200000006
 20
-80.54924200000006
 10
102.95153400000007
 20
-80.70443600000006
 10
103.09275800000006
 20
-80.48421800000006
 10
103.25785800000006
 20
-80.26247600000005
 10
103.47553600000006
 20
-80.01431800000006
 10
103.73817200000006
 20
-79.77530400000006
 10
103.88396800000007
 20
-79.67040200000007
 10
104.03814600000007
 20
-79.58124800000006
 10
104.19969000000007
 20
-79.51241400000006
 10
104.28300200000007
 20
-79.48701400000006
 10
104.36783800000008
 20
-79.46821800000005
 10
104.45394400000008
 20
-79.45678800000005
 10
104.54132000000007
 20
-79.45323200000004
 10
104.62996600000007
 20
-79.45805800000005
 10
104.71962800000007
 20
-79.47177400000004
 10
105.02188800000008
 20
-84.06739600000004
 10
105.04398600000006
 20
-84.16823400000004
 10
105.07421200000007
 20
-84.26602400000004
 10
105.11231200000007
 20
-84.36025800000003
 10
105.15803200000006
 20
-84.45068200000003
 10
105.21086400000007
 20
-84.53678800000003
 10
105.27055400000008
 20
-84.61806800000002
 10
105.33684800000009
 20
-84.69426800000004
 10
105.40923800000009
 20
-84.76462600000004
 10
105.48747000000009
 20
-84.82914200000003
 10
105.57103600000009
 20
-84.88705400000003
 10
105.6599360000001
 20
-84.93810800000004
 10
105.7536620000001
 20
-84.98179600000005
 10
105.8517060000001
 20
-85.01761000000005
 10
106.75086600000012
 20
-85.22462000000006
 10
106.54436400000012
 20
-86.09203000000005
 10
106.39501200000011
 20
-87.13393800000006
 10
106.31144600000012
 20
-88.54389200000004
 10
106.3660560000001
 20
-90.29369800000005
 10
106.6312320000001
 20
-92.35516200000005
 10
107.1793640000001
 20
-94.70009000000005
 10
108.08284200000011
 20
-97.30028800000005
 10
108.8908160000001
 20
-98.69779600000005
 10
108.7005700000001
 20
-98.60534000000006
 10
108.1892680000001
 20
-98.40010800000006
 10
107.44555600000011
 20
-98.19055800000005
 10
107.01451800000011
 20
-98.11791400000006
 10
106.55884200000011
 20
-98.08464000000006
 10
106.0894500000001
 20
-98.10445200000007
 10
105.85323000000011
 20
-98.13848800000007
 10
105.6177720000001
 20
-98.19081200000007
 10
105.38434600000011
 20
-98.26320200000008
 10
105.15447600000012
 20
-98.35718200000008
 10
104.92968600000012
 20
-98.47453000000007
 10
104.7112460000001
 20
-98.61702400000007
 10
104.50042600000012
 20
-98.78618800000007
 10
104.29875000000011
 20
-98.98380000000007
 10
104.10774200000012
 20
-99.21163800000006
 10
103.92841800000011
 20
-99.47122600000007
 10
103.7625560000001
 20
-99.76434200000007
 10
103.6114260000001
 20
-100.09276400000007
 10
103.4762980000001
 20
-100.45801600000006
 10
103.3586960000001
 20
-100.86187600000005
 10
101.7912620000001
 20
-94.96628200000005
 10
101.56240800000009
 20
-94.39148000000006
 10
101.13746600000009
 20
-93.56801200000005
 10
100.48113000000009
 20
-92.60586000000005
 10
100.0549180000001
 20
-92.10700400000005
 10
99.55758600000009
 20
-91.61475200000005
 10
98.9845620000001
 20
-91.14282000000006
 10
98.33127400000009
 20
-90.70517800000005
 10
97.5934040000001
 20
-90.31528800000005
 10
96.76663400000011
 20
-89.98712000000005
 10
95.84639200000011
 20
-89.73413600000006
 10
94.8281060000001
 20
-89.57030600000006
 10
93.71253800000011
 20
-89.03157200000007
 10
90.5047720000001
 20
-76.70901600000006
  0
LWPOLYLINE
  5
31
330
17
100
AcDbEntity
  8
0
100
AcDbPolyline
 90
81
 70
0
 10
70.0006220000001
 20
-76.90561200000006
 10
70.10984200000011
 20
-80.05013200000006
 10
71.01890800000011
 20
-83.22005200000007
 10
71.07072400000011
 20
-83.34197200000007
 10
71.13168400000012
 20
-83.45805000000007
 10
71.20128000000011
 20
-83.56803200000007
 10
71.27925800000011
 20
-83.67141000000007
 10
71.36485600000012
 20
-83.76793000000006
 10
71.45756600000011
 20
-83.85708400000006
 10
71.55688000000012
 20
-83.93836400000006
 10
71.66229000000013
 20
-84.01151600000006
 10
71.77328800000014
 20
-84.07628600000007
 10
71.88936600000012
 20
-84.13216600000007
 10
72.01027000000013
 20
-84.17864800000007
 10
72.13523800000013
 20
-84.21547800000006
 10
72.26376200000013
 20
-84.24240200000006
 10
72.39533400000012
 20
-84.25865800000007
 10
88.84539000000012
 20
-84.37346600000006
 10
88.06332400000012
 20
-84.79790000000007
 10
87.84971000000012
 20
-84.97900200000007
 10
87.66733800000011
 20
-85.17966200000008
 10
87.51595400000011
 20
-85.39657800000008
 10
87.39555800000012
 20
-85.62695600000006
 10
87.30564200000012
 20
-85.86749400000006
 10
87.24620600000013
 20
-86.11539800000007
 10
87.21725000000013
 20
-86.36736600000008
 10
87.21826600000014
 20
-86.62060400000007
 10
87.24925400000014
 20
-86.87181000000007
 10
87.30996000000013
 20
-87.11819000000008
 10
87.40013000000013
 20
-87.35644200000007
 10
87.51951000000014
 20
-87.58377200000007
 10
87.66810000000014
 20
-87.79687800000006
 10
87.84564600000014
 20
-87.99296600000007
 10
88.05189400000015
 20
-88.16898800000006
 10
88.28684400000014
 20
-88.32164200000007
 10
90.96349600000015
 20
-89.67978000000005
 10
65.17513000000015
 20
-89.67978000000005
 10
64.83807200000015
 20
-89.35999400000006
 10
63.952374000000155
 20
-88.64523800000005
 10
63.36258600000016
 20
-88.25407800000005
 10
62.70625000000015
 20
-87.90178000000004
 10
62.36055600000015
 20
-87.75446000000005
 10
62.006988000000156
 20
-87.63381000000004
 10
61.64859400000016
 20
-87.54592600000004
 10
60.40501000000016
 20
-87.42832400000003
 10
61.17920200000016
 20
-87.49614200000003
 10
63.515748000000166
 20
-86.14232200000004
 10
63.49390400000016
 20
-85.02878600000004
 10
61.25184600000016
 20
-84.51088000000004
 10
57.183020000000155
 20
-84.08746200000004
 10
30.56991600000016
 20
-83.97951200000004
 10
30.53308600000016
 20
-83.97392400000004
 10
30.49752600000016
 20
-83.96478000000005
 10
30.46349000000016
 20
-83.95233400000005
 10
30.43123200000016
 20
-83.93658600000005
 10
30.40075200000016
 20
-83.91804400000005
 10
30.37230400000016
 20
-83.89670800000005
 10
30.345888000000162
 20
-83.87283200000005
 10
30.322012000000164
 20
-83.84641600000006
 10
30.300676000000163
 20
-83.81796800000005
 10
30.282134000000163
 20
-83.78748800000005
 10
30.266640000000162
 20
-83.75497600000006
 10
30.25419400000016
 20
-83.72094000000004
 10
30.24505000000016
 20
-83.68538000000005
 10
30.23946200000016
 20
-83.64855000000006
 10
30.239970000000156
 20
-77.34731800000006
 10
30.247336000000157
 20
-77.29855000000006
 10
30.259528000000156
 20
-77.25156000000005
 10
30.276038000000156
 20
-77.20634800000006
 10
30.296612000000156
 20
-77.16342200000005
 10
30.321250000000155
 20
-77.12303600000006
 10
30.349444000000158
 20
-77.08519000000007
 10
30.381194000000157
 20
-77.05039200000006
 10
30.415992000000156
 20
-77.01864200000006
 10
30.453838000000157
 20
-76.99044800000007
 10
30.49422400000016
 20
-76.96581000000008
 10
30.537150000000157
 20
-76.94523600000007
 10
30.582362000000156
 20
-76.92872600000007
 10
30.629352000000157
 20
-76.91653400000007
 10
30.678120000000156
 20
-76.90916800000007
 10
70.00062200000015
 20
-76.90662800000007
  0
LWPOLYLINE
  5
35
330
17
100
AcDbEntity
  8
0
100
AcDbPolyline
 90
92
 70
0
 10
148.40153200000017
 20
-146.92579200000006
 10
144.64157000000017
 20
-130.39852000000005
 10
142.15795800000018
 20
-122.66091800000005
 10
140.6359900000002
 20
-119.14505000000005
 10
133.49376400000017
 20
-106.80039600000006
 10
133.01395800000017
 20
-105.74451800000006
 10
132.46785800000018
 20
-104.20248400000006
 10
132.15620000000018
 20
-102.72674400000005
 10
132.08330200000017
 20
-102.01249600000006
 10
132.0632360000002
 20
-101.31323400000005
 10
132.09397000000018
 20
-100.62819600000006
 10
132.17347200000017
 20
-99.95712800000005
 10
132.4711600000002
 20
-98.65410800000005
 10
132.9408060000002
 20
-97.39960200000004
 10
133.5666620000002
 20
-96.18954600000005
 10
134.64819400000022
 20
-94.59264800000005
 10
137.39647400000024
 20
-91.53652000000005
 10
137.54836600000024
 20
-91.31935000000006
 10
137.67435000000023
 20
-91.08871800000004
 10
137.77595000000022
 20
-90.84589400000004
 10
137.8541820000002
 20
-90.59265600000005
 10
137.91031600000022
 20
-90.33078200000004
 10
137.94587600000023
 20
-90.06154200000005
 10
137.96010000000024
 20
-89.50807600000005
 10
137.90726800000024
 20
-88.94546600000005
 10
137.79754000000023
 20
-88.38641200000005
 10
137.54912800000025
 20
-87.58275600000005
 10
137.38352000000023
 20
-87.20353400000005
 10
137.18819400000024
 20
-86.86469800000005
 10
136.9649280000002
 20
-86.56396200000005
 10
136.71550000000022
 20
-86.29904000000005
 10
136.44168800000023
 20
-86.06764600000004
 10
136.14527000000024
 20
-85.86774800000005
 10
135.8282780000002
 20
-85.69680600000005
 10
135.49249000000023
 20
-85.55278800000005
 10
134.77163800000022
 20
-85.33638000000005
 10
133.99719200000024
 20
-85.20049000000004
 10
121.36932800000024
 20
-84.94699800000005
 10
120.93498800000023
 20
-84.98560600000005
 10
120.50928400000024
 20
-85.07222000000004
 10
120.09755000000024
 20
-85.20861800000004
 10
119.70461200000024
 20
-85.39607000000004
 10
119.14682800000023
 20
-85.75954400000003
 10
118.88622400000023
 20
-85.97188800000004
 10
118.63908200000023
 20
-86.20582200000004
 10
118.40591000000022
 20
-86.46261600000004
 10
118.18772400000023
 20
-86.74328600000005
 10
117.98528600000022
 20
-87.04884800000004
 10
117.79935800000021
 20
-87.38057200000004
 10
117.65407000000022
 20
-87.69756400000003
 10
117.43258200000021
 20
-88.38107800000003
 10
117.2847540000002
 20
-89.11615400000002
 10
116.8854660000002
 20
-92.96527000000003
 10
116.71604800000021
 20
-93.67926400000002
 10
115.09502000000022
 20
-97.88931400000003
 10
114.89537600000021
 20
-98.61118200000001
 10
114.7699000000002
 20
-99.29114000000003
 10
114.67744400000022
 20
-100.54564600000003
 10
114.72824400000022
 20
-101.80675600000002
 10
114.88496200000021
 20
-103.06532600000001
 10
126.61620600000022
 20
-148.55723400000002
 10
126.81229400000021
 20
-149.06802800000003
 10
127.04445000000021
 20
-149.55393
 10
127.3205480000002
 20
-150.00427200000001
 10
127.4775200000002
 20
-150.21280600000003
 10
127.64846200000021
 20
-150.40838600000004
 10
127.8341360000002
 20
-150.58974200000003
 10
128.0358120000002
 20
-150.75560400000006
 10
128.2542520000002
 20
-150.90444800000006
 10
128.5915640000002
 20
-151.08250200000006
 10
128.94538600000018
 20
-151.21661400000005
 10
129.31241600000018
 20
-151.31288000000006
 10
130.0739080000002
 20
-151.41549600000008
 10
146.0398400000002
 20
-151.01417600000005
 10
146.5882260000002
 20
-150.94610400000005
 10
146.8569580000002
 20
-150.89124000000004
 10
147.1178160000002
 20
-150.81681800000004
 10
147.36749800000018
 20
-150.71826600000003
 10
147.60295600000018
 20
-150.59152000000003
 10
147.71446200000017
 20
-150.516082
 10
147.82114200000015
 20
-150.43200800000002
 10
147.98573400000018
 20
-150.27402000000004
 10
148.12721200000018
 20
-150.10130000000004
 10
148.24710000000016
 20
-149.91511800000006
 10
148.34641400000015
 20
-149.71725200000006
 10
148.42667800000018
 20
-149.50871800000004
 10
148.48890800000018
 20
-149.29129400000005
 10
148.53437400000016
 20
-149.06599600000007
 10
148.58034800000019
 20
-148.59812800000006
 10
148.57476000000017
 20
-148.1165440000001
 10
148.44979200000017
 20
-147.15693200000007
 10
148.40204000000017
 20
-146.92604600000007
  0
LWPOLYLINE
  5
37
330
17
100
AcDbEntity
  8
0
100
AcDbPolyline
 90
49
 70
0
 10
139.26718400000019
 20
-89.41689000000007
 10
139.8524000000002
 20
-88.77325400000007
 10
140.5150860000002
 20
-88.19819800000006
 10
141.2440660000002
 20
-87.68918200000006
 10
142.0281640000002
 20
-87.24417400000006
 10
142.8567120000002
 20
-86.86063400000006
 10
144.60296200000016
 20
-86.26856000000005
 10
145.49856600000015
 20
-86.05520000000006
 10
145.45843400000015
 20
-85.73897000000007
 10
145.39569600000016
 20
-85.42680400000006
 10
145.3108600000002
 20
-85.12048000000006
 10
145.2044340000002
 20
-84.82152200000006
 10
145.0771800000002
 20
-84.53196200000006
 10
144.92960600000018
 20
-84.25332400000006
 10
144.76222000000018
 20
-83.98738600000006
 10
144.57578400000017
 20
-83.73592600000005
 10
144.34489800000017
 20
-83.47303600000005
 10
144.09318400000018
 20
-83.23224400000005
 10
143.8229280000002
 20
-83.01482000000006
 10
143.5361620000002
 20
-82.82228800000006
 10
143.2351720000002
 20
-82.65566400000006
 10
142.92199000000022
 20
-82.51647200000006
 10
142.59864800000022
 20
-82.40572800000007
 10
142.2674320000002
 20
-82.32495600000007
 10
141.91665800000024
 20
-82.27288600000007
 10
141.5641060000002
 20
-82.25053400000006
 10
140.85646200000022
 20
-82.28177600000006
 10
140.15085000000022
 20
-82.39150400000007
 10
138.9763540000002
 20
-82.68157200000006
 10
138.04442800000024
 20
-83.01405800000008
 10
137.60018200000022
 20
-83.23503800000007
 10
137.17854200000022
 20
-83.50529400000008
 10
136.79220800000024
 20
-83.82812800000008
 10
136.61669400000022
 20
-84.00923000000009
 10
136.45515000000023
 20
-84.20354000000009
 10
136.30960800000025
 20
-84.41105800000008
 10
136.18159200000025
 20
-84.6317840000001
 10
136.61593200000024
 20
-84.8083140000001
 10
137.02995200000024
 20
-85.0323420000001
 10
137.41984200000024
 20
-85.30031200000009
 10
137.78204600000026
 20
-85.6086680000001
 10
138.11275400000025
 20
-85.9541080000001
 10
138.40841000000026
 20
-86.3330760000001
 10
138.66495000000026
 20
-86.7420160000001
 10
138.87907200000024
 20
-87.1776260000001
 10
139.06957200000025
 20
-87.70797800000011
 10
139.20038200000025
 20
-88.2667780000001
 10
139.26769200000024
 20
-88.8408180000001
 10
139.26769200000024
 20
-89.4171440000001
  0
ENDSEC
  0
SECTION
  2
OBJECTS
  0
DICTIONARY
  5
A
330
0
100
AcDbDictionary
281
1
  3
ACAD_COLOR
350
B
  3
ACAD_GROUP
350
C
  3
ACAD_LAYOUT
350
D
  3
ACAD_MATERIAL
350
E
  3
ACAD_MLEADERSTYLE
350
F
  3
ACAD_MLINESTYLE
350
10
  3
ACAD_PLOTSETTINGS
350
11
  3
ACAD_PLOTSTYLENAME
350
12
  3
ACAD_SCALELIST
350
14
  3
ACAD_TABLESTYLE
350
15
  3
ACAD_VISUALSTYLE
350
16
  3
EZDXF_META
350
2D
  0
DICTIONARY
  5
B
330
A
100
AcDbDictionary
281
1
  0
DICTIONARY
  5
C
330
A
100
AcDbDictionary
281
1
  0
DICTIONARY
  5
D
330
A
100
AcDbDictionary
281
1
  3
Model
350
1A
  3
Layout1
350
1E
  0
DICTIONARY
  5
E
330
A
100
AcDbDictionary
281
1
  3
ByBlock
350
1F
  3
ByLayer
350
20
  3
Global
350
21
  0
DICTIONARY
  5
F
330
A
100
AcDbDictionary
281
1
  3
Standard
350
2C
  0
DICTIONARY
  5
10
330
A
100
AcDbDictionary
281
1
  3
Standard
350
22
  0
DICTIONARY
  5
11
330
A
100
AcDbDictionary
281
1
  0
ACDBDICTIONARYWDFLT
  5
12
330
A
100
AcDbDictionary
281
1
  3
Normal
350
13
100
AcDbDictionaryWithDefault
340
13
  0
ACDBPLACEHOLDER
  5
13
330
12
  0
DICTIONARY
  5
14
330
A
100
AcDbDictionary
281
1
  0
DICTIONARY
  5
15
330
A
100
AcDbDictionary
281
1
  0
DICTIONARY
  5
16
330
A
100
AcDbDictionary
281
1
  0
LAYOUT
  5
1A
330
D
100
AcDbPlotSettings
  1

  4
A3
  6

 40
7.5
 41
20.0
 42
7.5
 43
20.0
 44
420.0
 45
297.0
 46
0.0
 47
0.0
 48
0.0
 49
0.0
140
0.0
141
0.0
142
1.0
143
1.0
 70
1024
 72
1
 73
0
 74
5
  7

 75
16
 76
0
 77
2
 78
300
147
1.0
148
0.0
149
0.0
100
AcDbLayout
  1
Model
 70
1
 71
0
 10
0.0
 20
0.0
 11
420.0
 21
297.0
 12
0.0
 22
0.0
 32
0.0
 14
1e+20
 24
1e+20
 34
1e+20
 15
-1e+20
 25
-1e+20
 35
-1e+20
146
0.0
 13
0.0
 23
0.0
 33
0.0
 16
1.0
 26
0.0
 36
0.0
 17
0.0
 27
1.0
 37
0.0
 76
1
330
17
  0
LAYOUT
  5
1E
330
D
100
AcDbPlotSettings
  1

  4
A3
  6

 40
7.5
 41
20.0
 42
7.5
 43
20.0
 44
420.0
 45
297.0
 46
0.0
 47
0.0
 48
0.0
 49
0.0
140
0.0
141
0.0
142
1.0
143
1.0
 70
0
 72
1
 73
0
 74
5
  7

 75
16
 76
0
 77
2
 78
300
147
1.0
148
0.0
149
0.0
100
AcDbLayout
  1
Layout1
 70
1
 71
1
 10
0.0
 20
0.0
 11
420.0
 21
297.0
 12
0.0
 22
0.0
 32
0.0
 14
1e+20
 24
1e+20
 34
1e+20
 15
-1e+20
 25
-1e+20
 35
-1e+20
146
0.0
 13
0.0
 23
0.0
 33
0.0
 16
1.0
 26
0.0
 36
0.0
 17
0.0
 27
1.0
 37
0.0
 76
1
330
1B
  0
MATERIAL
  5
1F
102
{ACAD_REACTORS
330
E
102
}
330
E
100
AcDbMaterial
  1
ByBlock
  2

 70
0
 40
1.0
 71
1
 41
1.0
 91
-1023410177
 42
1.0
 72
1
  3

 73
1
 74
1
 75
1
 44
0.5
 73
0
 45
1.0
 46
1.0
 77
1
  4

 78
1
 79
1
170
1
 48
1.0
171
1
  6

172
1
173
1
174
1
140
1.0
141
1.0
175
1
  7

176
1
177
1
178
1
143
1.0
179
1
  8

270
1
271
1
272
1
145
1.0
146
1.0
273
1
  9

274
1
275
1
276
1
 42
1.0
 72
1
  3

 73
1
 74
1
 75
1
 94
63
  0
MATERIAL
  5
20
102
{ACAD_REACTORS
330
E
102
}
330
E
100
AcDbMaterial
  1
ByLayer
  2

 70
0
 40
1.0
 71
1
 41
1.0
 91
-1023410177
 42
1.0
 72
1
  3

 73
1
 74
1
 75
1
 44
0.5
 73
0
 45
1.0
 46
1.0
 77
1
  4

 78
1
 79
1
170
1
 48
1.0
171
1
  6

172
1
173
1
174
1
140
1.0
141
1.0
175
1
  7

176
1
177
1
178
1
143
1.0
179
1
  8

270
1
271
1
272
1
145
1.0
146
1.0
273
1
  9

274
1
275
1
276
1
 42
1.0
 72
1
  3

 73
1
 74
1
 75
1
 94
63
  0
MATERIAL
  5
21
102
{ACAD_REACTORS
330
E
102
}
330
E
100
AcDbMaterial
  1
Global
  2

 70
0
 40
1.0
 71
1
 41
1.0
 91
-1023410177
 42
1.0
 72
1
  3

 73
1
 74
1
 75
1
 44
0.5
 73
0
 45
1.0
 46
1.0
 77
1
  4

 78
1
 79
1
170
1
 48
1.0
171
1
  6

172
1
173
1
174
1
140
1.0
141
1.0
175
1
  7

176
1
177
1
178
1
143
1.0
179
1
  8

270
1
271
1
272
1
145
1.0
146
1.0
273
1
  9

274
1
275
1
276
1
 42
1.0
 72
1
  3

 73
1
 74
1
 75
1
 94
63
  0
MLINESTYLE
  5
22
102
{ACAD_REACTORS
330
10
102
}
330
10
100
AcDbMlineStyle
  2
Standard
 70
0
  3

 62
256
 51
90.0
 52
90.0
 71
2
 49
0.5
 62
256
  6
BYLAYER
 49
-0.5
 62
256
  6
BYLAYER
  0
MLEADERSTYLE
  5
2C
102
{ACAD_REACTORS
330
F
102
}
330
F
100
AcDbMLeaderStyle
179
2
170
2
171
1
172
0
 90
2
 40
0.0
 41
0.0
173
1
 91
-1056964608
 92
-2
290
1
 42
2.0
291
1
 43
8.0
  3
Standard
 44
4.0
300

342
29
174
1
175
1
176
0
178
1
 93
-1056964608
 45
4.0
292
0
297
0
 46
4.0
 94
-1056964608
 47
1.0
 49
1.0
140
1.0
294
1
141
0.0
177
0
142
1.0
295
0
296
0
143
3.75
271
0
272
9
273
9
  0
DICTIONARY
  5
2D
330
A
100
AcDbDictionary
280
1
281
1
  3
CREATED_BY_EZDXF
350
2E
  3
WRITTEN_BY_EZDXF
350
3A
  0
DICTIONARYVAR
  5
2E
330
2D
100
DictionaryVariables
280
0
  1
1.4.3 @ 2026-04-08T01:02:29.326662+00:00
  0
DICTIONARYVAR
  5
3A
330
2D
100
DictionaryVariables
280
0
  1
1.4.3 @ 2026-04-09T21:09:48.376044+00:00
  0
ENDSEC
  0
EOF
