  0
SECTION
  2
HEADER
  9
$ACADVER
  1
AC1024
  9
$ACADMAINTVER
 70
6
  9
$DWGCODEPAGE
  3
ANSI_1252
  9
$LASTSAVEDBY
  1
ezdxf
  9
$INSBASE
 10
0.0
 20
0.0
 30
0.0
  9
$EXTMIN
 10
1e+20
 20
1e+20
 30
1e+20
  9
$EXTMAX
 10
-1e+20
 20
-1e+20
 30
-1e+20
  9
$LIMMIN
 10
0.0
 20
0.0
  9
$LIMMAX
 10
420.0
 20
297.0
  9
$ORTHOMODE
 70
0
  9
$REGENMODE
 70
1
  9
$FILLMODE
 70
1
  9
$QTEXTMODE
 70
0
  9
$MIRRTEXT
 70
1
  9
$LTSCALE
 40
1.0
  9
$ATTMODE
 70
1
  9
$TEXTSIZE
 40
2.5
  9
$TRACEWID
 40
1.0
  9
$TEXTSTYLE
  7
Standard
  9
$CLAYER
  8
0
  9
$CELTYPE
  6
ByLayer
  9
$CECOLOR
 62
256
  9
$CELTSCALE
 40
1.0
  9
$DISPSILH
 70
0
  9
$DIMSCALE
 40
1.0
  9
$DIMASZ
 40
2.5
  9
$DIMEXO
 40
0.625
  9
$DIMDLI
 40
3.75
  9
$DIMRND
 40
0.0
  9
$DIMDLE
 40
0.0
  9
$DIMEXE
 40
1.25
  9
$DIMTP
 40
0.0
  9
$DIMTM
 40
0.0
  9
$DIMTXT
 40
2.5
  9
$DIMCEN
 40
2.5
  9
$DIMTSZ
 40
0.0
  9
$DIMTOL
 70
0
  9
$DIMLIM
 70
0
  9
$DIMTIH
 70
0
  9
$DIMTOH
 70
0
  9
$DIMSE1
 70
0
  9
$DIMSE2
 70
0
  9
$DIMTAD
 70
1
  9
$DIMZIN
 70
8
  9
$DIMBLK
  1

  9
$DIMASO
 70
1
  9
$DIMSHO
 70
1
  9
$DIMPOST
  1

  9
$DIMAPOST
  1

  9
$DIMALT
 70
0
  9
$DIMALTD
 70
3
  9
$DIMALTF
 40
0.03937007874
  9
$DIMLFAC
 40
1.0
  9
$DIMTOFL
 70
1
  9
$DIMTVP
 40
0.0
  9
$DIMTIX
 70
0
  9
$DIMSOXD
 70
0
  9
$DIMSAH
 70
0
  9
$DIMBLK1
  1

  9
$DIMBLK2
  1

  9
$DIMSTYLE
  2
ISO-25
  9
$DIMCLRD
 70
0
  9
$DIMCLRE
 70
0
  9
$DIMCLRT
 70
0
  9
$DIMTFAC
 40
1.0
  9
$DIMGAP
 40
0.625
  9
$DIMJUST
 70
0
  9
$DIMSD1
 70
0
  9
$DIMSD2
 70
0
  9
$DIMTOLJ
 70
0
  9
$DIMTZIN
 70
8
  9
$DIMALTZ
 70
0
  9
$DIMALTTZ
 70
0
  9
$DIMUPT
 70
0
  9
$DIMDEC
 70
2
  9
$DIMTDEC
 70
2
  9
$DIMALTU
 70
2
  9
$DIMALTTD
 70
3
  9
$DIMTXSTY
  7
Standard
  9
$DIMAUNIT
 70
0
  9
$DIMADEC
 70
0
  9
$DIMALTRND
 40
0.0
  9
$DIMAZIN
 70
0
  9
$DIMDSEP
 70
44
  9
$DIMATFIT
 70
3
  9
$DIMFRAC
 70
0
  9
$DIMLDRBLK
  1

  9
$DIMLUNIT
 70
2
  9
$DIMLWD
 70
-2
  9
$DIMLWE
 70
-2
  9
$DIMTMOVE
 70
0
  9
$DIMFXL
 40
1.0
  9
$DIMFXLON
 70
0
  9
$DIMJOGANG
 40
0.785398163397
  9
$DIMTFILL
 70
0
  9
$DIMTFILLCLR
 70
0
  9
$DIMARCSYM
 70
0
  9
$DIMLTYPE
  6

  9
$DIMLTEX1
  6

  9
$DIMLTEX2
  6

  9
$DIMTXTDIRECTION
 70
0
  9
$LUNITS
 70
2
  9
$LUPREC
 70
4
  9
$SKETCHINC
 40
1.0
  9
$FILLETRAD
 40
10.0
  9
$AUNITS
 70
0
  9
$AUPREC
 70
2
  9
$MENU
  1
.
  9
$ELEVATION
 40
0.0
  9
$PELEVATION
 40
0.0
  9
$THICKNESS
 40
0.0
  9
$LIMCHECK
 70
0
  9
$CHAMFERA
 40
0.0
  9
$CHAMFERB
 40
0.0
  9
$CHAMFERC
 40
0.0
  9
$CHAMFERD
 40
0.0
  9
$SKPOLY
 70
0
  9
$TDCREATE
 40
2461138.7154050926
  9
$TDUCREATE
 40
2458532.153996898
  9
$TDUPDATE
 40
2461138.7154050926
  9
$TDUUPDATE
 40
2458532.1544311
  9
$TDINDWG
 40
0.0
  9
$TDUSRTIMER
 40
0.0
  9
$USRTIMER
 70
1
  9
$ANGBASE
 50
0.0
  9
$ANGDIR
 70
0
  9
$PDMODE
 70
0
  9
$PDSIZE
 40
0.0
  9
$PLINEWID
 40
0.0
  9
$SPLFRAME
 70
0
  9
$SPLINETYPE
 70
6
  9
$SPLINESEGS
 70
8
  9
$HANDSEED
  5
14E
  9
$SURFTAB1
 70
6
  9
$SURFTAB2
 70
6
  9
$SURFTYPE
 70
6
  9
$SURFU
 70
6
  9
$SURFV
 70
6
  9
$UCSBASE
  2

  9
$UCSNAME
  2

  9
$UCSORG
 10
0.0
 20
0.0
 30
0.0
  9
$UCSXDIR
 10
1.0
 20
0.0
 30
0.0
  9
$UCSYDIR
 10
0.0
 20
1.0
 30
0.0
  9
$UCSORTHOREF
  2

  9
$UCSORTHOVIEW
 70
0
  9
$UCSORGTOP
 10
0.0
 20
0.0
 30
0.0
  9
$UCSORGBOTTOM
 10
0.0
 20
0.0
 30
0.0
  9
$UCSORGLEFT
 10
0.0
 20
0.0
 30
0.0
  9
$UCSORGRIGHT
 10
0.0
 20
0.0
 30
0.0
  9
$UCSORGFRONT
 10
0.0
 20
0.0
 30
0.0
  9
$UCSORGBACK
 10
0.0
 20
0.0
 30
0.0
  9
$PUCSBASE
  2

  9
$PUCSNAME
  2

  9
$PUCSORG
 10
0.0
 20
0.0
 30
0.0
  9
$PUCSXDIR
 10
1.0
 20
0.0
 30
0.0
  9
$PUCSYDIR
 10
0.0
 20
1.0
 30
0.0
  9
$PUCSORTHOREF
  2

  9
$PUCSORTHOVIEW
 70
0
  9
$PUCSORGTOP
 10
0.0
 20
0.0
 30
0.0
  9
$PUCSORGBOTTOM
 10
0.0
 20
0.0
 30
0.0
  9
$PUCSORGLEFT
 10
0.0
 20
0.0
 30
0.0
  9
$PUCSORGRIGHT
 10
0.0
 20
0.0
 30
0.0
  9
$PUCSORGFRONT
 10
0.0
 20
0.0
 30
0.0
  9
$PUCSORGBACK
 10
0.0
 20
0.0
 30
0.0
  9
$USERI1
 70
0
  9
$USERI2
 70
0
  9
$USERI3
 70
0
  9
$USERI4
 70
0
  9
$USERI5
 70
0
  9
$USERR1
 40
0.0
  9
$USERR2
 40
0.0
  9
$USERR3
 40
0.0
  9
$USERR4
 40
0.0
  9
$USERR5
 40
0.0
  9
$WORLDVIEW
 70
1
  9
$SHADEDGE
 70
3
  9
$SHADEDIF
 70
70
  9
$TILEMODE
 70
1
  9
$MAXACTVP
 70
64
  9
$PINSBASE
 10
0.0
 20
0.0
 30
0.0
  9
$PLIMCHECK
 70
0
  9
$PEXTMIN
 10
1e+20
 20
1e+20
 30
1e+20
  9
$PEXTMAX
 10
-1e+20
 20
-1e+20
 30
-1e+20
  9
$PLIMMIN
 10
0.0
 20
0.0
  9
$PLIMMAX
 10
420.0
 20
297.0
  9
$UNITMODE
 70
0
  9
$VISRETAIN
 70
1
  9
$PLINEGEN
 70
0
  9
$PSLTSCALE
 70
1
  9
$TREEDEPTH
 70
3020
  9
$CMLSTYLE
  2
Standard
  9
$CMLJUST
 70
0
  9
$CMLSCALE
 40
20.0
  9
$PROXYGRAPHICS
 70
1
  9
$MEASUREMENT
 70
1
  9
$CELWEIGHT
370
-1
  9
$ENDCAPS
280
0
  9
$JOINSTYLE
280
0
  9
$LWDISPLAY
290
0
  9
$INSUNITS
 70
6
  9
$HYPERLINKBASE
  1

  9
$STYLESHEET
  1

  9
$XEDIT
290
1
  9
$CEPSNTYPE
380
0
  9
$PSTYLEMODE
290
1
  9
$FINGERPRINTGUID
  2
{375E3032-9A0F-49ED-A233-748A0388636A}
  9
$VERSIONGUID
  2
{42804178-4DD2-40B5-9CC5-C37A29DEAB9F}
  9
$EXTNAMES
290
1
  9
$PSVPSCALE
 40
0.0
  9
$OLESTARTUP
290
0
  9
$SORTENTS
280
127
  9
$INDEXCTL
280
0
  9
$HIDETEXT
280
1
  9
$XCLIPFRAME
280
1
  9
$HALOGAP
280
0
  9
$OBSCOLOR
 70
257
  9
$OBSLTYPE
280
0
  9
$INTERSECTIONDISPLAY
280
0
  9
$INTERSECTIONCOLOR
 70
257
  9
$DIMASSOC
280
2
  9
$PROJECTNAME
  1

  9
$CAMERADISPLAY
290
0
  9
$LENSLENGTH
 40
50.0
  9
$CAMERAHEIGHT
 40
0.0
  9
$STEPSPERSEC
 40
24.0
  9
$STEPSIZE
 40
100.0
  9
$3DDWFPREC
 40
2.0
  9
$PSOLWIDTH
 40
0.005
  9
$PSOLHEIGHT
 40
0.08
  9
$LOFTANG1
 40
1.570796326795
  9
$LOFTANG2
 40
1.570796326795
  9
$LOFTMAG1
 40
0.0
  9
$LOFTMAG2
 40
0.0
  9
$LOFTPARAM
 70
7
  9
$LOFTNORMALS
280
1
  9
$LATITUDE
 40
37.795
  9
$LONGITUDE
 40
-122.394
  9
$NORTHDIRECTION
 40
0.0
  9
$TIMEZONE
 70
-8000
  9
$LIGHTGLYPHDISPLAY
280
1
  9
$TILEMODELIGHTSYNCH
280
1
  9
$CMATERIAL
347
20
  9
$SOLIDHIST
280
0
  9
$SHOWHIST
280
1
  9
$DWFFRAME
280
2
  9
$DGNFRAME
280
2
  9
$REALWORLDSCALE
290
1
  9
$INTERFERECOLOR
 62
256
  9
$CSHADOW
280
0
  9
$SHADOWPLANELOCATION
 40
0.0
  0
ENDSEC
  0
SECTION
  2
CLASSES
  0
CLASS
  1
ACDBDICTIONARYWDFLT
  2
AcDbDictionaryWithDefault
  3
ObjectDBX Classes
 90
0
 91
0
280
0
281
0
  0
CLASS
  1
SUN
  2
AcDbSun
  3
SCENEOE
 90
1153
 91
0
280
0
281
0
  0
CLASS
  1
VISUALSTYLE
  2
AcDbVisualStyle
  3
ObjectDBX Classes
 90
4095
 91
0
280
0
281
0
  0
CLASS
  1
MATERIAL
  2
AcDbMaterial
  3
ObjectDBX Classes
 90
1153
 91
0
280
0
281
0
  0
CLASS
  1
SCALE
  2
AcDbScale
  3
ObjectDBX Classes
 90
1153
 91
0
280
0
281
0
  0
CLASS
  1
TABLESTYLE
  2
AcDbTableStyle
  3
ObjectDBX Classes
 90
4095
 91
0
280
0
281
0
  0
CLASS
  1
MLEADERSTYLE
  2
AcDbMLeaderStyle
  3
ACDB_MLEADERSTYLE_CLASS
 90
4095
 91
0
280
0
281
0
  0
CLASS
  1
DICTIONARYVAR
  2
AcDbDictionaryVar
  3
ObjectDBX Classes
 90
0
 91
0
280
0
281
0
  0
CLASS
  1
CELLSTYLEMAP
  2
AcDbCellStyleMap
  3
ObjectDBX Classes
 90
1152
 91
0
280
0
281
0
  0
CLASS
  1
MENTALRAYRENDERSETTINGS
  2
AcDbMentalRayRenderSettings
  3
SCENEOE
 90
1024
 91
0
280
0
281
0
  0
CLASS
  1
ACDBDETAILVIEWSTYLE
  2
AcDbDetailViewStyle
  3
ObjectDBX Classes
 90
1025
 91
0
280
0
281
0
  0
CLASS
  1
ACDBSECTIONVIEWSTYLE
  2
AcDbSectionViewStyle
  3
ObjectDBX Classes
 90
1025
 91
0
280
0
281
0
  0
CLASS
  1
RASTERVARIABLES
  2
AcDbRasterVariables
  3
ISM
 90
0
 91
0
280
0
281
0
  0
CLASS
  1
ACDBPLACEHOLDER
  2
AcDbPlaceHolder
  3
ObjectDBX Classes
 90
0
 91
0
280
0
281
0
  0
CLASS
  1
LAYOUT
  2
AcDbLayout
  3
ObjectDBX Classes
 90
0
 91
0
280
0
281
0
  0
ENDSEC
  0
SECTION
  2
TABLES
  0
TABLE
  2
VPORT
  5
8
330
0
100
AcDbSymbolTable
 70
1
  0
VPORT
  5
23
330
8
100
AcDbSymbolTableRecord
100
AcDbViewportTableRecord
  2
*Active
 70
0
 10
0.0
 20
0.0
 11
1.0
 21
1.0
 12
0.0
 22
0.0
 13
0.0
 23
0.0
 14
0.5
 24
0.5
 15
0.5
 25
0.5
 16
0.0
 26
0.0
 36
1.0
 17
0.0
 27
0.0
 37
0.0
 40
1000.0
 41
1.34
 42
50.0
 43
0.0
 44
0.0
 50
0.0
 51
0.0
 71
0
 72
1000
 73
1
 74
3
 75
0
 76
0
 77
0
 78
0
281
0
 65
0
146
0.0
  0
ENDTAB
  0
TABLE
  2
LTYPE
  5
2
330
0
100
AcDbSymbolTable
 70
3
  0
LTYPE
  5
24
330
2
100
AcDbSymbolTableRecord
100
AcDbLinetypeTableRecord
  2
ByBlock
 70
0
  3

 72
65
 73
0
 40
0.0
  0
LTYPE
  5
25
330
2
100
AcDbSymbolTableRecord
100
AcDbLinetypeTableRecord
  2
ByLayer
 70
0
  3

 72
65
 73
0
 40
0.0
  0
LTYPE
  5
26
330
2
100
AcDbSymbolTableRecord
100
AcDbLinetypeTableRecord
  2
Continuous
 70
0
  3

 72
65
 73
0
 40
0.0
  0
ENDTAB
  0
TABLE
  2
LAYER
  5
1
330
0
100
AcDbSymbolTable
 70
2
  0
LAYER
  5
27
330
1
100
AcDbSymbolTableRecord
100
AcDbLayerTableRecord
  2
0
 70
0
 62
7
  6
Continuous
370
-3
390
13
347
21
  0
LAYER
  5
28
330
1
100
AcDbSymbolTableRecord
100
AcDbLayerTableRecord
  2
Defpoints
 70
0
 62
7
  6
Continuous
290
0
370
-3
390
13
347
21
  0
ENDTAB
  0
TABLE
  2
STYLE
  5
5
330
0
100
AcDbSymbolTable
 70
1
  0
STYLE
  5
29
330
5
100
AcDbSymbolTableRecord
100
AcDbTextStyleTableRecord
  2
Standard
 70
0
 40
0.0
 41
1.0
 50
0.0
 71
0
 42
2.5
  3
txt
  4

  0
ENDTAB
  0
TABLE
  2
VIEW
  5
7
330
0
100
AcDbSymbolTable
 70
0
  0
ENDTAB
  0
TABLE
  2
UCS
  5
6
330
0
100
AcDbSymbolTable
 70
0
  0
ENDTAB
  0
TABLE
  2
APPID
  5
3
330
0
100
AcDbSymbolTable
 70
3
  0
APPID
  5
2A
330
3
100
AcDbSymbolTableRecord
100
AcDbRegAppTableRecord
  2
ACAD
 70
0
  0
APPID
  5
14B
330
3
100
AcDbSymbolTableRecord
100
AcDbRegAppTableRecord
  2
HATCHBACKGROUNDCOLOR
 70
0
  0
APPID
  5
14C
330
3
100
AcDbSymbolTableRecord
100
AcDbRegAppTableRecord
  2
EZDXF
 70
0
  0
ENDTAB
  0
TABLE
  2
DIMSTYLE
  5
4
330
0
100
AcDbSymbolTable
 70
1
100
AcDbDimStyleTable
  0
DIMSTYLE
105
2B
330
4
100
AcDbSymbolTableRecord
100
AcDbDimStyleTableRecord
  2
Standard
 70
0
 40
1.0
 41
2.5
 42
0.625
 43
3.75
 44
1.25
 45
0.0
 46
0.0
 47
0.0
 48
0.0
 49
2.5
140
2.5
141
2.5
142
0.0
143
0.03937007874
144
1.0
145
0.0
146
1.0
147
0.625
148
0.0
 69
0
 70
0
 71
0
 72
0
 73
0
 74
0
 75
0
 76
0
 77
1
 78
8
 79
3
170
0
171
3
172
1
173
0
174
0
175
0
176
0
177
0
178
0
179
2
271
2
272
2
273
2
274
3
275
0
276
0
277
2
278
44
279
0
280
0
281
0
282
0
283
0
284
8
285
0
286
0
288
0
289
3
290
0
371
-2
372
-2
  0
ENDTAB
  0
TABLE
  2
BLOCK_RECORD
  5
9
330
0
100
AcDbSymbolTable
 70
2
  0
BLOCK_RECORD
  5
17
330
9
100
AcDbSymbolTableRecord
100
AcDbBlockTableRecord
  2
*Model_Space
340
1A
 70
0
280
1
281
0
  0
BLOCK_RECORD
  5
1B
330
9
100
AcDbSymbolTableRecord
100
AcDbBlockTableRecord
  2
*Paper_Space
340
1E
 70
0
280
1
281
0
  0
ENDTAB
  0
ENDSEC
  0
SECTION
  2
BLOCKS
  0
BLOCK
  5
18
330
17
100
AcDbEntity
  8
0
100
AcDbBlockBegin
  2
*Model_Space
 70
0
 10
0.0
 20
0.0
 30
0.0
  3
*Model_Space
  1

  0
ENDBLK
  5
19
330
17
100
AcDbEntity
  8
0
100
AcDbBlockEnd
  0
BLOCK
  5
1C
330
1B
100
AcDbEntity
  8
0
100
AcDbBlockBegin
  2
*Paper_Space
 70
0
 10
0.0
 20
0.0
 30
0.0
  3
*Paper_Space
  1

  0
ENDBLK
  5
1D
330
1B
100
AcDbEntity
  8
0
100
AcDbBlockEnd
  0
ENDSEC
  0
SECTION
  2
ENTITIES
  0
LINE
  5
2F
330
17
100
AcDbEntity
  8
0
100
AcDbLine
 10
343.498
 20
-327.92
 30
0.0
 11
342.371
 21
-326.028
 31
0.0
  0
LINE
  5
30
330
17
100
AcDbEntity
  8
0
100
AcDbLine
 10
342.371
 20
-326.028
 30
0.0
 11
339.709
 21
-320.422
 31
0.0
  0
LINE
  5
31
330
17
100
AcDbEntity
  8
0
100
AcDbLine
 10
339.709
 20
-320.422
 30
0.0
 11
336.59
 21
-311.208
 31
0.0
  0
LINE
  5
32
330
17
100
AcDbEntity
  8
0
100
AcDbLine
 10
336.59
 20
-311.208
 30
0.0
 11
334.092
 21
-298.49300000000005
 31
0.0
  0
LINE
  5
33
330
17
100
AcDbEntity
  8
0
100
AcDbLine
 10
334.092
 20
-298.49300000000005
 30
0.0
 11
239.11899999999997
 21
-298.77000000000004
 31
0.0
  0
LINE
  5
34
330
17
100
AcDbEntity
  8
0
100
AcDbLine
 10
239.11899999999997
 20
-298.77000000000004
 30
0.0
 11
238.56999999999996
 21
-298.85600000000005
 31
0.0
  0
LINE
  5
35
330
17
100
AcDbEntity
  8
0
100
AcDbLine
 10
238.56999999999996
 20
-298.85600000000005
 30
0.0
 11
238.04199999999997
 21
-298.99800000000005
 31
0.0
  0
LINE
  5
36
330
17
100
AcDbEntity
  8
0
100
AcDbLine
 10
238.04199999999997
 20
-298.99800000000005
 30
0.0
 11
237.539
 21
-299.19300000000004
 31
0.0
  0
LINE
  5
37
330
17
100
AcDbEntity
  8
0
100
AcDbLine
 10
237.539
 20
-299.19300000000004
 30
0.0
 11
237.064
 21
-299.43800000000005
 31
0.0
  0
LINE
  5
38
330
17
100
AcDbEntity
  8
0
100
AcDbLine
 10
237.064
 20
-299.43800000000005
 30
0.0
 11
236.62
 21
-299.72900000000004
 31
0.0
  0
LINE
  5
39
330
17
100
AcDbEntity
  8
0
100
AcDbLine
 10
236.62
 20
-299.72900000000004
 30
0.0
 11
236.21
 21
-300.06300000000005
 31
0.0
  0
LINE
  5
3A
330
17
100
AcDbEntity
  8
0
100
AcDbLine
 10
236.21
 20
-300.06300000000005
 30
0.0
 11
235.83700000000002
 21
-300.43600000000004
 31
0.0
  0
LINE
  5
3B
330
17
100
AcDbEntity
  8
0
100
AcDbLine
 10
235.83700000000002
 20
-300.43600000000004
 30
0.0
 11
235.50400000000002
 21
-300.845
 31
0.0
  0
LINE
  5
3C
330
17
100
AcDbEntity
  8
0
100
AcDbLine
 10
235.50400000000002
 20
-300.845
 30
0.0
 11
235.21400000000003
 21
-301.28700000000003
 31
0.0
  0
LINE
  5
3D
330
17
100
AcDbEntity
  8
0
100
AcDbLine
 10
235.21400000000003
 20
-301.28700000000003
 30
0.0
 11
234.97000000000003
 21
-301.75800000000004
 31
0.0
  0
LINE
  5
3E
330
17
100
AcDbEntity
  8
0
100
AcDbLine
 10
234.97000000000003
 20
-301.75800000000004
 30
0.0
 11
234.77500000000003
 21
-302.25500000000005
 31
0.0
  0
LINE
  5
3F
330
17
100
AcDbEntity
  8
0
100
AcDbLine
 10
234.77500000000003
 20
-302.25500000000005
 30
0.0
 11
234.63200000000003
 21
-302.77500000000003
 31
0.0
  0
LINE
  5
40
330
17
100
AcDbEntity
  8
0
100
AcDbLine
 10
234.63200000000003
 20
-302.77500000000003
 30
0.0
 11
234.54400000000004
 21
-303.314
 31
0.0
  0
LINE
  5
41
330
17
100
AcDbEntity
  8
0
100
AcDbLine
 10
234.54400000000004
 20
-303.314
 30
0.0
 11
234.51400000000004
 21
-303.869
 31
0.0
  0
LINE
  5
42
330
17
100
AcDbEntity
  8
0
100
AcDbLine
 10
234.51400000000004
 20
-303.869
 30
0.0
 11
236.48700000000005
 21
-321.697
 31
0.0
  0
LINE
  5
43
330
17
100
AcDbEntity
  8
0
100
AcDbLine
 10
236.48700000000005
 20
-321.697
 30
0.0
 11
236.64300000000006
 21
-322.307
 31
0.0
  0
LINE
  5
44
330
17
100
AcDbEntity
  8
0
100
AcDbLine
 10
236.64300000000006
 20
-322.307
 30
0.0
 11
236.85200000000006
 21
-322.89300000000003
 31
0.0
  0
LINE
  5
45
330
17
100
AcDbEntity
  8
0
100
AcDbLine
 10
236.85200000000006
 20
-322.89300000000003
 30
0.0
 11
237.11100000000005
 21
-323.45200000000006
 31
0.0
  0
LINE
  5
46
330
17
100
AcDbEntity
  8
0
100
AcDbLine
 10
237.11100000000005
 20
-323.45200000000006
 30
0.0
 11
237.41700000000006
 21
-323.98100000000005
 31
0.0
  0
LINE
  5
47
330
17
100
AcDbEntity
  8
0
100
AcDbLine
 10
237.41700000000006
 20
-323.98100000000005
 30
0.0
 11
237.76800000000006
 21
-324.47800000000007
 31
0.0
  0
LINE
  5
48
330
17
100
AcDbEntity
  8
0
100
AcDbLine
 10
237.76800000000006
 20
-324.47800000000007
 30
0.0
 11
238.16000000000005
 21
-324.9410000000001
 31
0.0
  0
LINE
  5
49
330
17
100
AcDbEntity
  8
0
100
AcDbLine
 10
238.16000000000005
 20
-324.9410000000001
 30
0.0
 11
238.59100000000007
 21
-325.3660000000001
 31
0.0
  0
LINE
  5
4A
330
17
100
AcDbEntity
  8
0
100
AcDbLine
 10
238.59100000000007
 20
-325.3660000000001
 30
0.0
 11
239.05800000000008
 21
-325.7510000000001
 31
0.0
  0
LINE
  5
4B
330
17
100
AcDbEntity
  8
0
100
AcDbLine
 10
239.05800000000008
 20
-325.7510000000001
 30
0.0
 11
239.55800000000008
 21
-326.0940000000001
 31
0.0
  0
LINE
  5
4C
330
17
100
AcDbEntity
  8
0
100
AcDbLine
 10
239.55800000000008
 20
-326.0940000000001
 30
0.0
 11
240.08800000000008
 21
-326.3920000000001
 31
0.0
  0
LINE
  5
4D
330
17
100
AcDbEntity
  8
0
100
AcDbLine
 10
240.08800000000008
 20
-326.3920000000001
 30
0.0
 11
240.64600000000007
 21
-326.6430000000001
 31
0.0
  0
LINE
  5
4E
330
17
100
AcDbEntity
  8
0
100
AcDbLine
 10
240.64600000000007
 20
-326.6430000000001
 30
0.0
 11
241.22800000000007
 21
-326.8440000000001
 31
0.0
  0
LINE
  5
4F
330
17
100
AcDbEntity
  8
0
100
AcDbLine
 10
241.22800000000007
 20
-326.8440000000001
 30
0.0
 11
241.83200000000008
 21
-326.99200000000013
 31
0.0
  0
LINE
  5
50
330
17
100
AcDbEntity
  8
0
100
AcDbLine
 10
241.83200000000008
 20
-326.99200000000013
 30
0.0
 11
242.45500000000007
 21
-327.08500000000015
 31
0.0
  0
LINE
  5
51
330
17
100
AcDbEntity
  8
0
100
AcDbLine
 10
242.45500000000007
 20
-327.08500000000015
 30
0.0
 11
343.49700000000007
 21
-327.91900000000015
 31
0.0
  0
LINE
  5
52
330
17
100
AcDbEntity
  8
0
100
AcDbLine
 10
713.528
 20
-581.4040000000002
 30
0.0
 11
711.932
 21
-572.2760000000002
 31
0.0
  0
LINE
  5
53
330
17
100
AcDbEntity
  8
0
100
AcDbLine
 10
711.932
 20
-572.2760000000002
 30
0.0
 11
706.553
 21
-553.8130000000002
 31
0.0
  0
LINE
  5
54
330
17
100
AcDbEntity
  8
0
100
AcDbLine
 10
706.553
 20
-553.8130000000002
 30
0.0
 11
699.094
 21
-535.6760000000002
 31
0.0
  0
LINE
  5
55
330
17
100
AcDbEntity
  8
0
100
AcDbLine
 10
699.094
 20
-535.6760000000002
 30
0.0
 11
644.481
 21
-428.6340000000001
 31
0.0
  0
LINE
  5
56
330
17
100
AcDbEntity
  8
0
100
AcDbLine
 10
644.481
 20
-428.6340000000001
 30
0.0
 11
637.325
 21
-410.7040000000001
 31
0.0
  0
LINE
  5
57
330
17
100
AcDbEntity
  8
0
100
AcDbLine
 10
637.325
 20
-410.7040000000001
 30
0.0
 11
634.495
 21
-401.4910000000001
 31
0.0
  0
LINE
  5
58
330
17
100
AcDbEntity
  8
0
100
AcDbLine
 10
634.495
 20
-401.4910000000001
 30
0.0
 11
632.328
 21
-392.1370000000001
 31
0.0
  0
LINE
  5
59
330
17
100
AcDbEntity
  8
0
100
AcDbLine
 10
632.328
 20
-392.1370000000001
 30
0.0
 11
630.947
 21
-382.6610000000001
 31
0.0
  0
LINE
  5
5A
330
17
100
AcDbEntity
  8
0
100
AcDbLine
 10
630.947
 20
-382.6610000000001
 30
0.0
 11
630.476
 21
-373.0820000000001
 31
0.0
  0
LINE
  5
5B
330
17
100
AcDbEntity
  8
0
100
AcDbLine
 10
630.476
 20
-373.0820000000001
 30
0.0
 11
631.039
 21
-363.4180000000001
 31
0.0
  0
LINE
  5
5C
330
17
100
AcDbEntity
  8
0
100
AcDbLine
 10
631.039
 20
-363.4180000000001
 30
0.0
 11
632.481
 21
-353.8200000000001
 31
0.0
  0
LINE
  5
5D
330
17
100
AcDbEntity
  8
0
100
AcDbLine
 10
632.481
 20
-353.8200000000001
 30
0.0
 11
634.554
 21
-344.53300000000013
 31
0.0
  0
LINE
  5
5E
330
17
100
AcDbEntity
  8
0
100
AcDbLine
 10
634.554
 20
-344.53300000000013
 30
0.0
 11
637.351
 21
-335.69600000000014
 31
0.0
  0
LINE
  5
5F
330
17
100
AcDbEntity
  8
0
100
AcDbLine
 10
637.351
 20
-335.69600000000014
 30
0.0
 11
640.966
 21
-327.44800000000015
 31
0.0
  0
LINE
  5
60
330
17
100
AcDbEntity
  8
0
100
AcDbLine
 10
640.966
 20
-327.44800000000015
 30
0.0
 11
643.109
 21
-323.58800000000014
 31
0.0
  0
LINE
  5
61
330
17
100
AcDbEntity
  8
0
100
AcDbLine
 10
643.109
 20
-323.58800000000014
 30
0.0
 11
645.4920000000001
 21
-319.92700000000013
 31
0.0
  0
LINE
  5
62
330
17
100
AcDbEntity
  8
0
100
AcDbLine
 10
645.4920000000001
 20
-319.92700000000013
 30
0.0
 11
648.1260000000001
 21
-316.48200000000014
 31
0.0
  0
LINE
  5
63
330
17
100
AcDbEntity
  8
0
100
AcDbLine
 10
648.1260000000001
 20
-316.48200000000014
 30
0.0
 11
651.022
 21
-313.27100000000013
 31
0.0
  0
LINE
  5
64
330
17
100
AcDbEntity
  8
0
100
AcDbLine
 10
651.022
 20
-313.27100000000013
 30
0.0
 11
654.1930000000001
 21
-310.31100000000015
 31
0.0
  0
LINE
  5
65
330
17
100
AcDbEntity
  8
0
100
AcDbLine
 10
654.1930000000001
 20
-310.31100000000015
 30
0.0
 11
657.6500000000001
 21
-307.6200000000002
 31
0.0
  0
LINE
  5
66
330
17
100
AcDbEntity
  8
0
100
AcDbLine
 10
657.6500000000001
 20
-307.6200000000002
 30
0.0
 11
661.4050000000001
 21
-305.2150000000002
 31
0.0
  0
LINE
  5
67
330
17
100
AcDbEntity
  8
0
100
AcDbLine
 10
661.4050000000001
 20
-305.2150000000002
 30
0.0
 11
665.647
 21
-303.0220000000002
 31
0.0
  0
LINE
  5
68
330
17
100
AcDbEntity
  8
0
100
AcDbLine
 10
665.647
 20
-303.0220000000002
 30
0.0
 11
665.8100000000001
 21
-302.92000000000024
 31
0.0
  0
LINE
  5
69
330
17
100
AcDbEntity
  8
0
100
AcDbLine
 10
665.8100000000001
 20
-302.92000000000024
 30
0.0
 11
665.9580000000001
 21
-302.80700000000024
 31
0.0
  0
LINE
  5
6A
330
17
100
AcDbEntity
  8
0
100
AcDbLine
 10
665.9580000000001
 20
-302.80700000000024
 30
0.0
 11
666.0910000000001
 21
-302.68500000000023
 31
0.0
  0
LINE
  5
6B
330
17
100
AcDbEntity
  8
0
100
AcDbLine
 10
666.0910000000001
 20
-302.68500000000023
 30
0.0
 11
666.2090000000002
 21
-302.55500000000023
 31
0.0
  0
LINE
  5
6C
330
17
100
AcDbEntity
  8
0
100
AcDbLine
 10
666.2090000000002
 20
-302.55500000000023
 30
0.0
 11
666.3130000000002
 21
-302.41700000000026
 31
0.0
  0
LINE
  5
6D
330
17
100
AcDbEntity
  8
0
100
AcDbLine
 10
666.3130000000002
 20
-302.41700000000026
 30
0.0
 11
666.4030000000002
 21
-302.27300000000025
 31
0.0
  0
LINE
  5
6E
330
17
100
AcDbEntity
  8
0
100
AcDbLine
 10
666.4030000000002
 20
-302.27300000000025
 30
0.0
 11
666.4790000000003
 21
-302.1230000000003
 31
0.0
  0
LINE
  5
6F
330
17
100
AcDbEntity
  8
0
100
AcDbLine
 10
666.4790000000003
 20
-302.1230000000003
 30
0.0
 11
666.5410000000003
 21
-301.9680000000003
 31
0.0
  0
LINE
  5
70
330
17
100
AcDbEntity
  8
0
100
AcDbLine
 10
666.5410000000003
 20
-301.9680000000003
 30
0.0
 11
666.5890000000003
 21
-301.8100000000003
 31
0.0
  0
LINE
  5
71
330
17
100
AcDbEntity
  8
0
100
AcDbLine
 10
666.5890000000003
 20
-301.8100000000003
 30
0.0
 11
666.6240000000003
 21
-301.6490000000003
 31
0.0
  0
LINE
  5
72
330
17
100
AcDbEntity
  8
0
100
AcDbLine
 10
666.6240000000003
 20
-301.6490000000003
 30
0.0
 11
666.6460000000003
 21
-301.4860000000003
 31
0.0
  0
LINE
  5
73
330
17
100
AcDbEntity
  8
0
100
AcDbLine
 10
666.6460000000003
 20
-301.4860000000003
 30
0.0
 11
666.6550000000003
 21
-301.3220000000003
 31
0.0
  0
LINE
  5
74
330
17
100
AcDbEntity
  8
0
100
AcDbLine
 10
666.6550000000003
 20
-301.3220000000003
 30
0.0
 11
666.6510000000003
 21
-301.1580000000003
 31
0.0
  0
LINE
  5
75
330
17
100
AcDbEntity
  8
0
100
AcDbLine
 10
666.6510000000003
 20
-301.1580000000003
 30
0.0
 11
666.6340000000002
 21
-300.9950000000003
 31
0.0
  0
LINE
  5
76
330
17
100
AcDbEntity
  8
0
100
AcDbLine
 10
666.6340000000002
 20
-300.9950000000003
 30
0.0
 11
666.6050000000002
 21
-300.8330000000003
 31
0.0
  0
LINE
  5
77
330
17
100
AcDbEntity
  8
0
100
AcDbLine
 10
666.6050000000002
 20
-300.8330000000003
 30
0.0
 11
666.5640000000002
 21
-300.6740000000003
 31
0.0
  0
LINE
  5
78
330
17
100
AcDbEntity
  8
0
100
AcDbLine
 10
666.5640000000002
 20
-300.6740000000003
 30
0.0
 11
666.5110000000002
 21
-300.5180000000003
 31
0.0
  0
LINE
  5
79
330
17
100
AcDbEntity
  8
0
100
AcDbLine
 10
666.5110000000002
 20
-300.5180000000003
 30
0.0
 11
666.4460000000001
 21
-300.3670000000003
 31
0.0
  0
LINE
  5
7A
330
17
100
AcDbEntity
  8
0
100
AcDbLine
 10
666.4460000000001
 20
-300.3670000000003
 30
0.0
 11
666.3690000000001
 21
-300.2210000000003
 31
0.0
  0
LINE
  5
7B
330
17
100
AcDbEntity
  8
0
100
AcDbLine
 10
666.3690000000001
 20
-300.2210000000003
 30
0.0
 11
666.2810000000002
 21
-300.0820000000003
 31
0.0
  0
LINE
  5
7C
330
17
100
AcDbEntity
  8
0
100
AcDbLine
 10
666.2810000000002
 20
-300.0820000000003
 30
0.0
 11
666.1820000000001
 21
-299.9500000000003
 31
0.0
  0
LINE
  5
7D
330
17
100
AcDbEntity
  8
0
100
AcDbLine
 10
666.1820000000001
 20
-299.9500000000003
 30
0.0
 11
666.0720000000001
 21
-299.82600000000025
 31
0.0
  0
LINE
  5
7E
330
17
100
AcDbEntity
  8
0
100
AcDbLine
 10
666.0720000000001
 20
-299.82600000000025
 30
0.0
 11
665.9510000000001
 21
-299.71100000000024
 31
0.0
  0
LINE
  5
7F
330
17
100
AcDbEntity
  8
0
100
AcDbLine
 10
665.9510000000001
 20
-299.71100000000024
 30
0.0
 11
665.8190000000002
 21
-299.6060000000002
 31
0.0
  0
LINE
  5
80
330
17
100
AcDbEntity
  8
0
100
AcDbLine
 10
665.8190000000002
 20
-299.6060000000002
 30
0.0
 11
665.6770000000001
 21
-299.5120000000002
 31
0.0
  0
LINE
  5
81
330
17
100
AcDbEntity
  8
0
100
AcDbLine
 10
665.6770000000001
 20
-299.5120000000002
 30
0.0
 11
665.5250000000001
 21
-299.43000000000023
 31
0.0
  0
LINE
  5
82
330
17
100
AcDbEntity
  8
0
100
AcDbLine
 10
665.5250000000001
 20
-299.43000000000023
 30
0.0
 11
665.363
 21
-299.36000000000024
 31
0.0
  0
LINE
  5
83
330
17
100
AcDbEntity
  8
0
100
AcDbLine
 10
665.363
 20
-299.36000000000024
 30
0.0
 11
665.191
 21
-299.30400000000026
 31
0.0
  0
LINE
  5
84
330
17
100
AcDbEntity
  8
0
100
AcDbLine
 10
665.191
 20
-299.30400000000026
 30
0.0
 11
665.01
 21
-299.26300000000026
 31
0.0
  0
LINE
  5
85
330
17
100
AcDbEntity
  8
0
100
AcDbLine
 10
665.01
 20
-299.26300000000026
 30
0.0
 11
664.819
 21
-299.23700000000025
 31
0.0
  0
LINE
  5
86
330
17
100
AcDbEntity
  8
0
100
AcDbLine
 10
664.819
 20
-299.23700000000025
 30
0.0
 11
545.016
 21
-298.63800000000026
 31
0.0
  0
LINE
  5
87
330
17
100
AcDbEntity
  8
0
100
AcDbLine
 10
545.016
 20
-298.63800000000026
 30
0.0
 11
545.319
 21
-320.3610000000003
 31
0.0
  0
LINE
  5
88
330
17
100
AcDbEntity
  8
0
100
AcDbLine
 10
545.319
 20
-320.3610000000003
 30
0.0
 11
545.223
 21
-321.04900000000026
 31
0.0
  0
LINE
  5
89
330
17
100
AcDbEntity
  8
0
100
AcDbLine
 10
545.223
 20
-321.04900000000026
 30
0.0
 11
545.0609999999999
 21
-321.71500000000026
 31
0.0
  0
LINE
  5
8A
330
17
100
AcDbEntity
  8
0
100
AcDbLine
 10
545.0609999999999
 20
-321.71500000000026
 30
0.0
 11
544.8359999999999
 21
-322.35500000000025
 31
0.0
  0
LINE
  5
8B
330
17
100
AcDbEntity
  8
0
100
AcDbLine
 10
544.8359999999999
 20
-322.35500000000025
 30
0.0
 11
544.5519999999999
 21
-322.96500000000026
 31
0.0
  0
LINE
  5
8C
330
17
100
AcDbEntity
  8
0
100
AcDbLine
 10
544.5519999999999
 20
-322.96500000000026
 30
0.0
 11
544.2119999999999
 21
-323.54200000000026
 31
0.0
  0
LINE
  5
8D
330
17
100
AcDbEntity
  8
0
100
AcDbLine
 10
544.2119999999999
 20
-323.54200000000026
 30
0.0
 11
543.8199999999998
 21
-324.0820000000003
 31
0.0
  0
LINE
  5
8E
330
17
100
AcDbEntity
  8
0
100
AcDbLine
 10
543.8199999999998
 20
-324.0820000000003
 30
0.0
 11
543.3789999999998
 21
-324.5810000000003
 31
0.0
  0
LINE
  5
8F
330
17
100
AcDbEntity
  8
0
100
AcDbLine
 10
543.3789999999998
 20
-324.5810000000003
 30
0.0
 11
542.8929999999998
 21
-325.0360000000003
 31
0.0
  0
LINE
  5
90
330
17
100
AcDbEntity
  8
0
100
AcDbLine
 10
542.8929999999998
 20
-325.0360000000003
 30
0.0
 11
542.3649999999998
 21
-325.4440000000003
 31
0.0
  0
LINE
  5
91
330
17
100
AcDbEntity
  8
0
100
AcDbLine
 10
542.3649999999998
 20
-325.4440000000003
 30
0.0
 11
541.7979999999998
 21
-325.80100000000033
 31
0.0
  0
LINE
  5
92
330
17
100
AcDbEntity
  8
0
100
AcDbLine
 10
541.7979999999998
 20
-325.80100000000033
 30
0.0
 11
541.1969999999998
 21
-326.10300000000035
 31
0.0
  0
LINE
  5
93
330
17
100
AcDbEntity
  8
0
100
AcDbLine
 10
541.1969999999998
 20
-326.10300000000035
 30
0.0
 11
540.5639999999997
 21
-326.34600000000034
 31
0.0
  0
LINE
  5
94
330
17
100
AcDbEntity
  8
0
100
AcDbLine
 10
540.5639999999997
 20
-326.34600000000034
 30
0.0
 11
539.9029999999998
 21
-326.5270000000003
 31
0.0
  0
LINE
  5
95
330
17
100
AcDbEntity
  8
0
100
AcDbLine
 10
539.9029999999998
 20
-326.5270000000003
 30
0.0
 11
539.2179999999998
 21
-326.6430000000003
 31
0.0
  0
LINE
  5
96
330
17
100
AcDbEntity
  8
0
100
AcDbLine
 10
539.2179999999998
 20
-326.6430000000003
 30
0.0
 11
538.5119999999998
 21
-326.6890000000003
 31
0.0
  0
LINE
  5
97
330
17
100
AcDbEntity
  8
0
100
AcDbLine
 10
538.5119999999998
 20
-326.6890000000003
 30
0.0
 11
488.34999999999985
 21
-326.4040000000003
 31
0.0
  0
LINE
  5
98
330
17
100
AcDbEntity
  8
0
100
AcDbLine
 10
488.34999999999985
 20
-326.4040000000003
 30
0.0
 11
487.66199999999986
 21
-326.3080000000003
 31
0.0
  0
LINE
  5
99
330
17
100
AcDbEntity
  8
0
100
AcDbLine
 10
487.66199999999986
 20
-326.3080000000003
 30
0.0
 11
486.99599999999987
 21
-326.1460000000003
 31
0.0
  0
LINE
  5
9A
330
17
100
AcDbEntity
  8
0
100
AcDbLine
 10
486.99599999999987
 20
-326.1460000000003
 30
0.0
 11
486.3559999999999
 21
-325.9210000000003
 31
0.0
  0
LINE
  5
9B
330
17
100
AcDbEntity
  8
0
100
AcDbLine
 10
486.3559999999999
 20
-325.9210000000003
 30
0.0
 11
485.74599999999987
 21
-325.6370000000003
 31
0.0
  0
LINE
  5
9C
330
17
100
AcDbEntity
  8
0
100
AcDbLine
 10
485.74599999999987
 20
-325.6370000000003
 30
0.0
 11
485.16899999999987
 21
-325.2970000000003
 31
0.0
  0
LINE
  5
9D
330
17
100
AcDbEntity
  8
0
100
AcDbLine
 10
485.16899999999987
 20
-325.2970000000003
 30
0.0
 11
484.62899999999985
 21
-324.9050000000003
 31
0.0
  0
LINE
  5
9E
330
17
100
AcDbEntity
  8
0
100
AcDbLine
 10
484.62899999999985
 20
-324.9050000000003
 30
0.0
 11
484.1299999999998
 21
-324.46400000000034
 31
0.0
  0
LINE
  5
9F
330
17
100
AcDbEntity
  8
0
100
AcDbLine
 10
484.1299999999998
 20
-324.46400000000034
 30
0.0
 11
483.67499999999984
 21
-323.97800000000035
 31
0.0
  0
LINE
  5
A0
330
17
100
AcDbEntity
  8
0
100
AcDbLine
 10
483.67499999999984
 20
-323.97800000000035
 30
0.0
 11
483.2669999999998
 21
-323.45000000000033
 31
0.0
  0
LINE
  5
A1
330
17
100
AcDbEntity
  8
0
100
AcDbLine
 10
483.2669999999998
 20
-323.45000000000033
 30
0.0
 11
482.9099999999998
 21
-322.8830000000003
 31
0.0
  0
LINE
  5
A2
330
17
100
AcDbEntity
  8
0
100
AcDbLine
 10
482.9099999999998
 20
-322.8830000000003
 30
0.0
 11
482.6079999999998
 21
-322.2820000000003
 31
0.0
  0
LINE
  5
A3
330
17
100
AcDbEntity
  8
0
100
AcDbLine
 10
482.6079999999998
 20
-322.2820000000003
 30
0.0
 11
482.3649999999998
 21
-321.64900000000034
 31
0.0
  0
LINE
  5
A4
330
17
100
AcDbEntity
  8
0
100
AcDbLine
 10
482.3649999999998
 20
-321.64900000000034
 30
0.0
 11
482.1839999999998
 21
-320.98800000000034
 31
0.0
  0
LINE
  5
A5
330
17
100
AcDbEntity
  8
0
100
AcDbLine
 10
482.1839999999998
 20
-320.98800000000034
 30
0.0
 11
482.0679999999998
 21
-320.30300000000034
 31
0.0
  0
LINE
  5
A6
330
17
100
AcDbEntity
  8
0
100
AcDbLine
 10
482.0679999999998
 20
-320.30300000000034
 30
0.0
 11
481.8149999999998
 21
-298.79700000000037
 31
0.0
  0
LINE
  5
A7
330
17
100
AcDbEntity
  8
0
100
AcDbLine
 10
481.8149999999998
 20
-298.79700000000037
 30
0.0
 11
391.43499999999983
 21
-298.57700000000034
 31
0.0
  0
LINE
  5
A8
330
17
100
AcDbEntity
  8
0
100
AcDbLine
 10
391.43499999999983
 20
-298.57700000000034
 30
0.0
 11
390.9359999999998
 21
-298.67200000000037
 31
0.0
  0
LINE
  5
A9
330
17
100
AcDbEntity
  8
0
100
AcDbLine
 10
390.9359999999998
 20
-298.67200000000037
 30
0.0
 11
390.4649999999998
 21
-298.82600000000036
 31
0.0
  0
LINE
  5
AA
330
17
100
AcDbEntity
  8
0
100
AcDbLine
 10
390.4649999999998
 20
-298.82600000000036
 30
0.0
 11
390.0249999999998
 21
-299.0340000000004
 31
0.0
  0
LINE
  5
AB
330
17
100
AcDbEntity
  8
0
100
AcDbLine
 10
390.0249999999998
 20
-299.0340000000004
 30
0.0
 11
389.6189999999998
 21
-299.29200000000037
 31
0.0
  0
LINE
  5
AC
330
17
100
AcDbEntity
  8
0
100
AcDbLine
 10
389.6189999999998
 20
-299.29200000000037
 30
0.0
 11
389.2489999999998
 21
-299.5940000000004
 31
0.0
  0
LINE
  5
AD
330
17
100
AcDbEntity
  8
0
100
AcDbLine
 10
389.2489999999998
 20
-299.5940000000004
 30
0.0
 11
388.9199999999998
 21
-299.9370000000004
 31
0.0
  0
LINE
  5
AE
330
17
100
AcDbEntity
  8
0
100
AcDbLine
 10
388.9199999999998
 20
-299.9370000000004
 30
0.0
 11
388.6339999999998
 21
-300.3150000000004
 31
0.0
  0
LINE
  5
AF
330
17
100
AcDbEntity
  8
0
100
AcDbLine
 10
388.6339999999998
 20
-300.3150000000004
 30
0.0
 11
388.3939999999998
 21
-300.7240000000004
 31
0.0
  0
LINE
  5
B0
330
17
100
AcDbEntity
  8
0
100
AcDbLine
 10
388.3939999999998
 20
-300.7240000000004
 30
0.0
 11
388.2039999999998
 21
-301.16000000000037
 31
0.0
  0
LINE
  5
B1
330
17
100
AcDbEntity
  8
0
100
AcDbLine
 10
388.2039999999998
 20
-301.16000000000037
 30
0.0
 11
388.0659999999998
 21
-301.61700000000036
 31
0.0
  0
LINE
  5
B2
330
17
100
AcDbEntity
  8
0
100
AcDbLine
 10
388.0659999999998
 20
-301.61700000000036
 30
0.0
 11
387.9839999999998
 21
-302.09100000000035
 31
0.0
  0
LINE
  5
B3
330
17
100
AcDbEntity
  8
0
100
AcDbLine
 10
387.9839999999998
 20
-302.09100000000035
 30
0.0
 11
387.9609999999998
 21
-302.57700000000034
 31
0.0
  0
LINE
  5
B4
330
17
100
AcDbEntity
  8
0
100
AcDbLine
 10
387.9609999999998
 20
-302.57700000000034
 30
0.0
 11
387.9989999999998
 21
-303.07100000000037
 31
0.0
  0
LINE
  5
B5
330
17
100
AcDbEntity
  8
0
100
AcDbLine
 10
387.9989999999998
 20
-303.07100000000037
 30
0.0
 11
388.1019999999998
 21
-303.5680000000004
 31
0.0
  0
LINE
  5
B6
330
17
100
AcDbEntity
  8
0
100
AcDbLine
 10
388.1019999999998
 20
-303.5680000000004
 30
0.0
 11
388.27399999999983
 21
-304.0630000000004
 31
0.0
  0
LINE
  5
B7
330
17
100
AcDbEntity
  8
0
100
AcDbLine
 10
388.27399999999983
 20
-304.0630000000004
 30
0.0
 11
394.3879999999998
 21
-326.7120000000004
 31
0.0
  0
LINE
  5
B8
330
17
100
AcDbEntity
  8
0
100
AcDbLine
 10
394.3879999999998
 20
-326.7120000000004
 30
0.0
 11
395.6239999999998
 21
-329.7400000000004
 31
0.0
  0
LINE
  5
B9
330
17
100
AcDbEntity
  8
0
100
AcDbLine
 10
395.6239999999998
 20
-329.7400000000004
 30
0.0
 11
397.1149999999998
 21
-332.5720000000004
 31
0.0
  0
LINE
  5
BA
330
17
100
AcDbEntity
  8
0
100
AcDbLine
 10
397.1149999999998
 20
-332.5720000000004
 30
0.0
 11
397.9759999999998
 21
-333.8990000000004
 31
0.0
  0
LINE
  5
BB
330
17
100
AcDbEntity
  8
0
100
AcDbLine
 10
397.9759999999998
 20
-333.8990000000004
 30
0.0
 11
398.9249999999998
 21
-335.1590000000004
 31
0.0
  0
LINE
  5
BC
330
17
100
AcDbEntity
  8
0
100
AcDbLine
 10
398.9249999999998
 20
-335.1590000000004
 30
0.0
 11
399.9699999999998
 21
-336.34500000000037
 31
0.0
  0
LINE
  5
BD
330
17
100
AcDbEntity
  8
0
100
AcDbLine
 10
399.9699999999998
 20
-336.34500000000037
 30
0.0
 11
401.1189999999998
 21
-337.4520000000004
 31
0.0
  0
LINE
  5
BE
330
17
100
AcDbEntity
  8
0
100
AcDbLine
 10
401.1189999999998
 20
-337.4520000000004
 30
0.0
 11
402.3809999999998
 21
-338.4730000000004
 31
0.0
  0
LINE
  5
BF
330
17
100
AcDbEntity
  8
0
100
AcDbLine
 10
402.3809999999998
 20
-338.4730000000004
 30
0.0
 11
403.7629999999998
 21
-339.4020000000004
 31
0.0
  0
LINE
  5
C0
330
17
100
AcDbEntity
  8
0
100
AcDbLine
 10
403.7629999999998
 20
-339.4020000000004
 30
0.0
 11
405.27399999999983
 21
-340.2330000000004
 31
0.0
  0
LINE
  5
C1
330
17
100
AcDbEntity
  8
0
100
AcDbLine
 10
405.27399999999983
 20
-340.2330000000004
 30
0.0
 11
407.9789999999998
 21
-341.3490000000004
 31
0.0
  0
LINE
  5
C2
330
17
100
AcDbEntity
  8
0
100
AcDbLine
 10
407.9789999999998
 20
-341.3490000000004
 30
0.0
 11
412.33399999999983
 21
-342.5140000000004
 31
0.0
  0
LINE
  5
C3
330
17
100
AcDbEntity
  8
0
100
AcDbLine
 10
412.33399999999983
 20
-342.5140000000004
 30
0.0
 11
452.8779999999998
 21
-347.0190000000004
 31
0.0
  0
LINE
  5
C4
330
17
100
AcDbEntity
  8
0
100
AcDbLine
 10
452.8779999999998
 20
-347.0190000000004
 30
0.0
 11
461.1949999999998
 21
-348.6500000000004
 31
0.0
  0
LINE
  5
C5
330
17
100
AcDbEntity
  8
0
100
AcDbLine
 10
461.1949999999998
 20
-348.6500000000004
 30
0.0
 11
469.2729999999998
 21
-351.0770000000004
 31
0.0
  0
LINE
  5
C6
330
17
100
AcDbEntity
  8
0
100
AcDbLine
 10
469.2729999999998
 20
-351.0770000000004
 30
0.0
 11
473.1619999999998
 21
-352.67900000000037
 31
0.0
  0
LINE
  5
C7
330
17
100
AcDbEntity
  8
0
100
AcDbLine
 10
473.1619999999998
 20
-352.67900000000037
 30
0.0
 11
478.2509999999998
 21
-355.3640000000004
 31
0.0
  0
LINE
  5
C8
330
17
100
AcDbEntity
  8
0
100
AcDbLine
 10
478.2509999999998
 20
-355.3640000000004
 30
0.0
 11
481.1589999999998
 21
-357.2840000000004
 31
0.0
  0
LINE
  5
C9
330
17
100
AcDbEntity
  8
0
100
AcDbLine
 10
481.1589999999998
 20
-357.2840000000004
 30
0.0
 11
483.8019999999998
 21
-359.3470000000004
 31
0.0
  0
LINE
  5
CA
330
17
100
AcDbEntity
  8
0
100
AcDbLine
 10
483.8019999999998
 20
-359.3470000000004
 30
0.0
 11
486.1979999999998
 21
-361.54700000000037
 31
0.0
  0
LINE
  5
CB
330
17
100
AcDbEntity
  8
0
100
AcDbLine
 10
486.1979999999998
 20
-361.54700000000037
 30
0.0
 11
488.3659999999998
 21
-363.8780000000004
 31
0.0
  0
LINE
  5
CC
330
17
100
AcDbEntity
  8
0
100
AcDbLine
 10
488.3659999999998
 20
-363.8780000000004
 30
0.0
 11
490.3249999999998
 21
-366.3340000000004
 31
0.0
  0
LINE
  5
CD
330
17
100
AcDbEntity
  8
0
100
AcDbLine
 10
490.3249999999998
 20
-366.3340000000004
 30
0.0
 11
493.6899999999998
 21
-371.5980000000004
 31
0.0
  0
LINE
  5
CE
330
17
100
AcDbEntity
  8
0
100
AcDbLine
 10
493.6899999999998
 20
-371.5980000000004
 30
0.0
 11
496.4429999999998
 21
-377.2920000000004
 31
0.0
  0
LINE
  5
CF
330
17
100
AcDbEntity
  8
0
100
AcDbLine
 10
496.4429999999998
 20
-377.2920000000004
 30
0.0
 11
502.5179999999998
 21
-396.48100000000045
 31
0.0
  0
LINE
  5
D0
330
17
100
AcDbEntity
  8
0
100
AcDbLine
 10
502.5179999999998
 20
-396.48100000000045
 30
0.0
 11
521.4649999999998
 21
-390.82200000000046
 31
0.0
  0
LINE
  5
D1
330
17
100
AcDbEntity
  8
0
100
AcDbLine
 10
521.4649999999998
 20
-390.82200000000046
 30
0.0
 11
521.7379999999998
 21
-390.78300000000047
 31
0.0
  0
LINE
  5
D2
330
17
100
AcDbEntity
  8
0
100
AcDbLine
 10
521.7379999999998
 20
-390.78300000000047
 30
0.0
 11
522.0099999999999
 21
-390.77200000000045
 31
0.0
  0
LINE
  5
D3
330
17
100
AcDbEntity
  8
0
100
AcDbLine
 10
522.0099999999999
 20
-390.77200000000045
 30
0.0
 11
522.2779999999999
 21
-390.78800000000047
 31
0.0
  0
LINE
  5
D4
330
17
100
AcDbEntity
  8
0
100
AcDbLine
 10
522.2779999999999
 20
-390.78800000000047
 30
0.0
 11
522.5409999999999
 21
-390.83000000000044
 31
0.0
  0
LINE
  5
D5
330
17
100
AcDbEntity
  8
0
100
AcDbLine
 10
522.5409999999999
 20
-390.83000000000044
 30
0.0
 11
522.7979999999999
 21
-390.8960000000004
 31
0.0
  0
LINE
  5
D6
330
17
100
AcDbEntity
  8
0
100
AcDbLine
 10
522.7979999999999
 20
-390.8960000000004
 30
0.0
 11
523.0459999999999
 21
-390.9860000000004
 31
0.0
  0
LINE
  5
D7
330
17
100
AcDbEntity
  8
0
100
AcDbLine
 10
523.0459999999999
 20
-390.9860000000004
 30
0.0
 11
523.284
 21
-391.0990000000004
 31
0.0
  0
LINE
  5
D8
330
17
100
AcDbEntity
  8
0
100
AcDbLine
 10
523.284
 20
-391.0990000000004
 30
0.0
 11
523.51
 21
-391.2340000000004
 31
0.0
  0
LINE
  5
D9
330
17
100
AcDbEntity
  8
0
100
AcDbLine
 10
523.51
 20
-391.2340000000004
 30
0.0
 11
523.723
 21
-391.39100000000036
 31
0.0
  0
LINE
  5
DA
330
17
100
AcDbEntity
  8
0
100
AcDbLine
 10
523.723
 20
-391.39100000000036
 30
0.0
 11
523.92
 21
-391.5680000000004
 31
0.0
  0
LINE
  5
DB
330
17
100
AcDbEntity
  8
0
100
AcDbLine
 10
523.92
 20
-391.5680000000004
 30
0.0
 11
524.0999999999999
 21
-391.7640000000004
 31
0.0
  0
LINE
  5
DC
330
17
100
AcDbEntity
  8
0
100
AcDbLine
 10
524.0999999999999
 20
-391.7640000000004
 30
0.0
 11
524.262
 21
-391.9790000000004
 31
0.0
  0
LINE
  5
DD
330
17
100
AcDbEntity
  8
0
100
AcDbLine
 10
524.262
 20
-391.9790000000004
 30
0.0
 11
524.4029999999999
 21
-392.2110000000004
 31
0.0
  0
LINE
  5
DE
330
17
100
AcDbEntity
  8
0
100
AcDbLine
 10
524.4029999999999
 20
-392.2110000000004
 30
0.0
 11
524.5219999999999
 21
-392.46000000000043
 31
0.0
  0
LINE
  5
DF
330
17
100
AcDbEntity
  8
0
100
AcDbLine
 10
524.5219999999999
 20
-392.46000000000043
 30
0.0
 11
533.77
 21
-422.70200000000045
 31
0.0
  0
LINE
  5
E0
330
17
100
AcDbEntity
  8
0
100
AcDbLine
 10
533.77
 20
-422.70200000000045
 30
0.0
 11
512.227
 21
-430.33400000000046
 31
0.0
  0
LINE
  5
E1
330
17
100
AcDbEntity
  8
0
100
AcDbLine
 10
512.227
 20
-430.33400000000046
 30
0.0
 11
579.3629999999999
 21
-602.5820000000004
 31
0.0
  0
LINE
  5
E2
330
17
100
AcDbEntity
  8
0
100
AcDbLine
 10
579.3629999999999
 20
-602.5820000000004
 30
0.0
 11
579.8399999999999
 21
-603.5420000000005
 31
0.0
  0
LINE
  5
E3
330
17
100
AcDbEntity
  8
0
100
AcDbLine
 10
579.8399999999999
 20
-603.5420000000005
 30
0.0
 11
580.3849999999999
 21
-604.4540000000005
 31
0.0
  0
LINE
  5
E4
330
17
100
AcDbEntity
  8
0
100
AcDbLine
 10
580.3849999999999
 20
-604.4540000000005
 30
0.0
 11
580.9939999999999
 21
-605.3160000000005
 31
0.0
  0
LINE
  5
E5
330
17
100
AcDbEntity
  8
0
100
AcDbLine
 10
580.9939999999999
 20
-605.3160000000005
 30
0.0
 11
581.6629999999999
 21
-606.1250000000005
 31
0.0
  0
LINE
  5
E6
330
17
100
AcDbEntity
  8
0
100
AcDbLine
 10
581.6629999999999
 20
-606.1250000000005
 30
0.0
 11
582.3889999999999
 21
-606.8780000000005
 31
0.0
  0
LINE
  5
E7
330
17
100
AcDbEntity
  8
0
100
AcDbLine
 10
582.3889999999999
 20
-606.8780000000005
 30
0.0
 11
583.1669999999999
 21
-607.5730000000005
 31
0.0
  0
LINE
  5
E8
330
17
100
AcDbEntity
  8
0
100
AcDbLine
 10
583.1669999999999
 20
-607.5730000000005
 30
0.0
 11
583.9939999999999
 21
-608.2060000000006
 31
0.0
  0
LINE
  5
E9
330
17
100
AcDbEntity
  8
0
100
AcDbLine
 10
583.9939999999999
 20
-608.2060000000006
 30
0.0
 11
584.8659999999999
 21
-608.7760000000006
 31
0.0
  0
LINE
  5
EA
330
17
100
AcDbEntity
  8
0
100
AcDbLine
 10
584.8659999999999
 20
-608.7760000000006
 30
0.0
 11
585.7799999999999
 21
-609.2790000000007
 31
0.0
  0
LINE
  5
EB
330
17
100
AcDbEntity
  8
0
100
AcDbLine
 10
585.7799999999999
 20
-609.2790000000007
 30
0.0
 11
586.7309999999999
 21
-609.7130000000006
 31
0.0
  0
LINE
  5
EC
330
17
100
AcDbEntity
  8
0
100
AcDbLine
 10
586.7309999999999
 20
-609.7130000000006
 30
0.0
 11
587.7159999999999
 21
-610.0750000000006
 31
0.0
  0
LINE
  5
ED
330
17
100
AcDbEntity
  8
0
100
AcDbLine
 10
587.7159999999999
 20
-610.0750000000006
 30
0.0
 11
588.7309999999999
 21
-610.3630000000006
 31
0.0
  0
LINE
  5
EE
330
17
100
AcDbEntity
  8
0
100
AcDbLine
 10
588.7309999999999
 20
-610.3630000000006
 30
0.0
 11
589.7729999999999
 21
-610.5740000000006
 31
0.0
  0
LINE
  5
EF
330
17
100
AcDbEntity
  8
0
100
AcDbLine
 10
589.7729999999999
 20
-610.5740000000006
 30
0.0
 11
590.8369999999999
 21
-610.7050000000006
 31
0.0
  0
LINE
  5
F0
330
17
100
AcDbEntity
  8
0
100
AcDbLine
 10
590.8369999999999
 20
-610.7050000000006
 30
0.0
 11
591.9199999999998
 21
-610.7530000000006
 31
0.0
  0
LINE
  5
F1
330
17
100
AcDbEntity
  8
0
100
AcDbLine
 10
591.9199999999998
 20
-610.7530000000006
 30
0.0
 11
698.3679999999998
 21
-599.3120000000006
 31
0.0
  0
LINE
  5
F2
330
17
100
AcDbEntity
  8
0
100
AcDbLine
 10
698.3679999999998
 20
-599.3120000000006
 30
0.0
 11
703.3149999999998
 21
-597.7330000000006
 31
0.0
  0
LINE
  5
F3
330
17
100
AcDbEntity
  8
0
100
AcDbLine
 10
703.3149999999998
 20
-597.7330000000006
 30
0.0
 11
705.4559999999998
 21
-596.7770000000006
 31
0.0
  0
LINE
  5
F4
330
17
100
AcDbEntity
  8
0
100
AcDbLine
 10
705.4559999999998
 20
-596.7770000000006
 30
0.0
 11
707.3669999999997
 21
-595.6970000000006
 31
0.0
  0
LINE
  5
F5
330
17
100
AcDbEntity
  8
0
100
AcDbLine
 10
707.3669999999997
 20
-595.6970000000006
 30
0.0
 11
709.0399999999997
 21
-594.4830000000005
 31
0.0
  0
LINE
  5
F6
330
17
100
AcDbEntity
  8
0
100
AcDbLine
 10
709.0399999999997
 20
-594.4830000000005
 30
0.0
 11
709.7849999999997
 21
-593.8230000000005
 31
0.0
  0
LINE
  5
F7
330
17
100
AcDbEntity
  8
0
100
AcDbLine
 10
709.7849999999997
 20
-593.8230000000005
 30
0.0
 11
710.4679999999997
 21
-593.1250000000006
 31
0.0
  0
LINE
  5
F8
330
17
100
AcDbEntity
  8
0
100
AcDbLine
 10
710.4679999999997
 20
-593.1250000000006
 30
0.0
 11
711.0889999999997
 21
-592.3890000000006
 31
0.0
  0
LINE
  5
F9
330
17
100
AcDbEntity
  8
0
100
AcDbLine
 10
711.0889999999997
 20
-592.3890000000006
 30
0.0
 11
711.6459999999997
 21
-591.6130000000006
 31
0.0
  0
LINE
  5
FA
330
17
100
AcDbEntity
  8
0
100
AcDbLine
 10
711.6459999999997
 20
-591.6130000000006
 30
0.0
 11
712.1379999999997
 21
-590.7970000000006
 31
0.0
  0
LINE
  5
FB
330
17
100
AcDbEntity
  8
0
100
AcDbLine
 10
712.1379999999997
 20
-590.7970000000006
 30
0.0
 11
712.5649999999997
 21
-589.9380000000006
 31
0.0
  0
LINE
  5
FC
330
17
100
AcDbEntity
  8
0
100
AcDbLine
 10
712.5649999999997
 20
-589.9380000000006
 30
0.0
 11
712.9259999999997
 21
-589.0360000000005
 31
0.0
  0
LINE
  5
FD
330
17
100
AcDbEntity
  8
0
100
AcDbLine
 10
712.9259999999997
 20
-589.0360000000005
 30
0.0
 11
713.2199999999997
 21
-588.0900000000005
 31
0.0
  0
LINE
  5
FE
330
17
100
AcDbEntity
  8
0
100
AcDbLine
 10
713.2199999999997
 20
-588.0900000000005
 30
0.0
 11
713.4459999999997
 21
-587.0980000000005
 31
0.0
  0
LINE
  5
FF
330
17
100
AcDbEntity
  8
0
100
AcDbLine
 10
713.4459999999997
 20
-587.0980000000005
 30
0.0
 11
713.6029999999997
 21
-586.0590000000005
 31
0.0
  0
LINE
  5
100
330
17
100
AcDbEntity
  8
0
100
AcDbLine
 10
713.6029999999997
 20
-586.0590000000005
 30
0.0
 11
713.7069999999998
 21
-583.8350000000005
 31
0.0
  0
LINE
  5
101
330
17
100
AcDbEntity
  8
0
100
AcDbLine
 10
713.7069999999998
 20
-583.8350000000005
 30
0.0
 11
713.5249999999997
 21
-581.4080000000005
 31
0.0
  0
LINE
  5
102
330
17
100
AcDbEntity
  8
0
100
AcDbLine
 10
116.87999999999977
 20
-219.29200000000048
 30
0.0
 11
106.71099999999977
 21
-219.2990000000005
 31
0.0
  0
LINE
  5
103
330
17
100
AcDbEntity
  8
0
100
AcDbLine
 10
106.71099999999977
 20
-219.2990000000005
 30
0.0
 11
105.24799999999978
 21
-219.5040000000005
 31
0.0
  0
LINE
  5
104
330
17
100
AcDbEntity
  8
0
100
AcDbLine
 10
105.24799999999978
 20
-219.5040000000005
 30
0.0
 11
103.81599999999978
 21
-219.84600000000052
 31
0.0
  0
LINE
  5
105
330
17
100
AcDbEntity
  8
0
100
AcDbLine
 10
103.81599999999978
 20
-219.84600000000052
 30
0.0
 11
102.42599999999977
 21
-220.31900000000053
 31
0.0
  0
LINE
  5
106
330
17
100
AcDbEntity
  8
0
100
AcDbLine
 10
102.42599999999977
 20
-220.31900000000053
 30
0.0
 11
101.08799999999978
 21
-220.91600000000054
 31
0.0
  0
LINE
  5
107
330
17
100
AcDbEntity
  8
0
100
AcDbLine
 10
101.08799999999978
 20
-220.91600000000054
 30
0.0
 11
99.81199999999978
 21
-221.62900000000053
 31
0.0
  0
LINE
  5
108
330
17
100
AcDbEntity
  8
0
100
AcDbLine
 10
99.81199999999978
 20
-221.62900000000053
 30
0.0
 11
98.60899999999978
 21
-222.45000000000053
 31
0.0
  0
LINE
  5
109
330
17
100
AcDbEntity
  8
0
100
AcDbLine
 10
98.60899999999978
 20
-222.45000000000053
 30
0.0
 11
97.48899999999978
 21
-223.37300000000053
 31
0.0
  0
LINE
  5
10A
330
17
100
AcDbEntity
  8
0
100
AcDbLine
 10
97.48899999999978
 20
-223.37300000000053
 30
0.0
 11
96.46199999999978
 21
-224.39000000000053
 31
0.0
  0
LINE
  5
10B
330
17
100
AcDbEntity
  8
0
100
AcDbLine
 10
96.46199999999978
 20
-224.39000000000053
 30
0.0
 11
95.53799999999977
 21
-225.49400000000054
 31
0.0
  0
LINE
  5
10C
330
17
100
AcDbEntity
  8
0
100
AcDbLine
 10
95.53799999999977
 20
-225.49400000000054
 30
0.0
 11
94.72799999999977
 21
-226.67800000000054
 31
0.0
  0
LINE
  5
10D
330
17
100
AcDbEntity
  8
0
100
AcDbLine
 10
94.72799999999977
 20
-226.67800000000054
 30
0.0
 11
94.04199999999976
 21
-227.93400000000054
 31
0.0
  0
LINE
  5
10E
330
17
100
AcDbEntity
  8
0
100
AcDbLine
 10
94.04199999999976
 20
-227.93400000000054
 30
0.0
 11
93.49099999999976
 21
-229.25500000000054
 31
0.0
  0
LINE
  5
10F
330
17
100
AcDbEntity
  8
0
100
AcDbLine
 10
93.49099999999976
 20
-229.25500000000054
 30
0.0
 11
93.08499999999975
 21
-230.63400000000053
 31
0.0
  0
LINE
  5
110
330
17
100
AcDbEntity
  8
0
100
AcDbLine
 10
93.08499999999975
 20
-230.63400000000053
 30
0.0
 11
92.83399999999975
 21
-232.06300000000053
 31
0.0
  0
LINE
  5
111
330
17
100
AcDbEntity
  8
0
100
AcDbLine
 10
92.83399999999975
 20
-232.06300000000053
 30
0.0
 11
92.74799999999975
 21
-282.9980000000005
 31
0.0
  0
LINE
  5
112
330
17
100
AcDbEntity
  8
0
100
AcDbLine
 10
92.74799999999975
 20
-282.9980000000005
 30
0.0
 11
116.87999999999975
 21
-283.0740000000005
 31
0.0
  0
LINE
  5
113
330
17
100
AcDbEntity
  8
0
100
AcDbLine
 10
116.87999999999975
 20
-283.0740000000005
 30
0.0
 11
116.87999999999975
 21
-219.29300000000052
 31
0.0
  0
LINE
  5
114
330
17
100
AcDbEntity
  8
0
100
AcDbLine
 10
483.3099999999998
 20
-225.9160000000005
 30
0.0
 11
483.3099999999998
 21
-221.5180000000005
 31
0.0
  0
LINE
  5
115
330
17
100
AcDbEntity
  8
0
100
AcDbLine
 10
483.3099999999998
 20
-221.5180000000005
 30
0.0
 11
243.2949999999998
 21
-220.0540000000005
 31
0.0
  0
LINE
  5
116
330
17
100
AcDbEntity
  8
0
100
AcDbLine
 10
243.2949999999998
 20
-220.0540000000005
 30
0.0
 11
243.2949999999998
 21
-284.46800000000053
 31
0.0
  0
LINE
  5
117
330
17
100
AcDbEntity
  8
0
100
AcDbLine
 10
243.2949999999998
 20
-284.46800000000053
 30
0.0
 11
296.6939999999998
 21
-284.6390000000005
 31
0.0
  0
LINE
  5
118
330
17
100
AcDbEntity
  8
0
100
AcDbLine
 10
296.6939999999998
 20
-284.6390000000005
 30
0.0
 11
328.3759999999998
 21
-280.8610000000005
 31
0.0
  0
LINE
  5
119
330
17
100
AcDbEntity
  8
0
100
AcDbLine
 10
328.3759999999998
 20
-280.8610000000005
 30
0.0
 11
366.6429999999998
 21
-280.3190000000005
 31
0.0
  0
LINE
  5
11A
330
17
100
AcDbEntity
  8
0
100
AcDbLine
 10
366.6429999999998
 20
-280.3190000000005
 30
0.0
 11
367.1809999999998
 21
-284.8600000000005
 31
0.0
  0
LINE
  5
11B
330
17
100
AcDbEntity
  8
0
100
AcDbLine
 10
367.1809999999998
 20
-284.8600000000005
 30
0.0
 11
553.6969999999998
 21
-285.4470000000005
 31
0.0
  0
LINE
  5
11C
330
17
100
AcDbEntity
  8
0
100
AcDbLine
 10
553.6969999999998
 20
-285.4470000000005
 30
0.0
 11
554.0589999999997
 21
-225.9140000000005
 31
0.0
  0
LINE
  5
11D
330
17
100
AcDbEntity
  8
0
100
AcDbLine
 10
554.0589999999997
 20
-225.9140000000005
 30
0.0
 11
483.30899999999974
 21
-225.9140000000005
 31
0.0
  0
LINE
  5
11E
330
17
100
AcDbEntity
  8
0
100
AcDbLine
 10
698.3869999999997
 20
-222.9150000000005
 30
0.0
 11
678.0659999999997
 21
-222.9150000000005
 31
0.0
  0
LINE
  5
11F
330
17
100
AcDbEntity
  8
0
100
AcDbLine
 10
678.0659999999997
 20
-222.9150000000005
 30
0.0
 11
678.0659999999997
 21
-285.4460000000005
 31
0.0
  0
LINE
  5
120
330
17
100
AcDbEntity
  8
0
100
AcDbLine
 10
678.0659999999997
 20
-285.4460000000005
 30
0.0
 11
703.0629999999996
 21
-285.43200000000047
 31
0.0
  0
LINE
  5
121
330
17
100
AcDbEntity
  8
0
100
AcDbLine
 10
703.0629999999996
 20
-285.43200000000047
 30
0.0
 11
703.3339999999996
 21
-285.3910000000005
 31
0.0
  0
LINE
  5
122
330
17
100
AcDbEntity
  8
0
100
AcDbLine
 10
703.3339999999996
 20
-285.3910000000005
 30
0.0
 11
703.5949999999996
 21
-285.32400000000047
 31
0.0
  0
LINE
  5
123
330
17
100
AcDbEntity
  8
0
100
AcDbLine
 10
703.5949999999996
 20
-285.32400000000047
 30
0.0
 11
703.8449999999996
 21
-285.2320000000005
 31
0.0
  0
LINE
  5
124
330
17
100
AcDbEntity
  8
0
100
AcDbLine
 10
703.8449999999996
 20
-285.2320000000005
 30
0.0
 11
704.0829999999996
 21
-285.1170000000005
 31
0.0
  0
LINE
  5
125
330
17
100
AcDbEntity
  8
0
100
AcDbLine
 10
704.0829999999996
 20
-285.1170000000005
 30
0.0
 11
704.3079999999997
 21
-284.9800000000005
 31
0.0
  0
LINE
  5
126
330
17
100
AcDbEntity
  8
0
100
AcDbLine
 10
704.3079999999997
 20
-284.9800000000005
 30
0.0
 11
704.5179999999997
 21
-284.8230000000005
 31
0.0
  0
LINE
  5
127
330
17
100
AcDbEntity
  8
0
100
AcDbLine
 10
704.5179999999997
 20
-284.8230000000005
 30
0.0
 11
704.7119999999996
 21
-284.6470000000005
 31
0.0
  0
LINE
  5
128
330
17
100
AcDbEntity
  8
0
100
AcDbLine
 10
704.7119999999996
 20
-284.6470000000005
 30
0.0
 11
704.8879999999997
 21
-284.4530000000005
 31
0.0
  0
LINE
  5
129
330
17
100
AcDbEntity
  8
0
100
AcDbLine
 10
704.8879999999997
 20
-284.4530000000005
 30
0.0
 11
705.0449999999997
 21
-284.2430000000005
 31
0.0
  0
LINE
  5
12A
330
17
100
AcDbEntity
  8
0
100
AcDbLine
 10
705.0449999999997
 20
-284.2430000000005
 30
0.0
 11
705.1819999999997
 21
-284.0180000000005
 31
0.0
  0
LINE
  5
12B
330
17
100
AcDbEntity
  8
0
100
AcDbLine
 10
705.1819999999997
 20
-284.0180000000005
 30
0.0
 11
705.2969999999997
 21
-283.7800000000005
 31
0.0
  0
LINE
  5
12C
330
17
100
AcDbEntity
  8
0
100
AcDbLine
 10
705.2969999999997
 20
-283.7800000000005
 30
0.0
 11
705.3889999999997
 21
-283.5300000000005
 31
0.0
  0
LINE
  5
12D
330
17
100
AcDbEntity
  8
0
100
AcDbLine
 10
705.3889999999997
 20
-283.5300000000005
 30
0.0
 11
705.4559999999997
 21
-283.26900000000046
 31
0.0
  0
LINE
  5
12E
330
17
100
AcDbEntity
  8
0
100
AcDbLine
 10
705.4559999999997
 20
-283.26900000000046
 30
0.0
 11
705.4969999999997
 21
-282.99800000000045
 31
0.0
  0
LINE
  5
12F
330
17
100
AcDbEntity
  8
0
100
AcDbLine
 10
705.4969999999997
 20
-282.99800000000045
 30
0.0
 11
705.4739999999997
 21
-229.31000000000046
 31
0.0
  0
LINE
  5
130
330
17
100
AcDbEntity
  8
0
100
AcDbLine
 10
705.4739999999997
 20
-229.31000000000046
 30
0.0
 11
705.3659999999998
 21
-228.60300000000046
 31
0.0
  0
LINE
  5
131
330
17
100
AcDbEntity
  8
0
100
AcDbLine
 10
705.3659999999998
 20
-228.60300000000046
 30
0.0
 11
705.1899999999997
 21
-227.92000000000047
 31
0.0
  0
LINE
  5
132
330
17
100
AcDbEntity
  8
0
100
AcDbLine
 10
705.1899999999997
 20
-227.92000000000047
 30
0.0
 11
704.9499999999997
 21
-227.26500000000047
 31
0.0
  0
LINE
  5
133
330
17
100
AcDbEntity
  8
0
100
AcDbLine
 10
704.9499999999997
 20
-227.26500000000047
 30
0.0
 11
704.6499999999997
 21
-226.64200000000048
 31
0.0
  0
LINE
  5
134
330
17
100
AcDbEntity
  8
0
100
AcDbLine
 10
704.6499999999997
 20
-226.64200000000048
 30
0.0
 11
704.2929999999998
 21
-226.0550000000005
 31
0.0
  0
LINE
  5
135
330
17
100
AcDbEntity
  8
0
100
AcDbLine
 10
704.2929999999998
 20
-226.0550000000005
 30
0.0
 11
703.8829999999998
 21
-225.5070000000005
 31
0.0
  0
LINE
  5
136
330
17
100
AcDbEntity
  8
0
100
AcDbLine
 10
703.8829999999998
 20
-225.5070000000005
 30
0.0
 11
703.4229999999998
 21
-225.0010000000005
 31
0.0
  0
LINE
  5
137
330
17
100
AcDbEntity
  8
0
100
AcDbLine
 10
703.4229999999998
 20
-225.0010000000005
 30
0.0
 11
702.9169999999998
 21
-224.54100000000048
 31
0.0
  0
LINE
  5
138
330
17
100
AcDbEntity
  8
0
100
AcDbLine
 10
702.9169999999998
 20
-224.54100000000048
 30
0.0
 11
702.3689999999998
 21
-224.13100000000048
 31
0.0
  0
LINE
  5
139
330
17
100
AcDbEntity
  8
0
100
AcDbLine
 10
702.3689999999998
 20
-224.13100000000048
 30
0.0
 11
701.7819999999998
 21
-223.77400000000048
 31
0.0
  0
LINE
  5
13A
330
17
100
AcDbEntity
  8
0
100
AcDbLine
 10
701.7819999999998
 20
-223.77400000000048
 30
0.0
 11
701.1589999999998
 21
-223.47400000000047
 31
0.0
  0
LINE
  5
13B
330
17
100
AcDbEntity
  8
0
100
AcDbLine
 10
701.1589999999998
 20
-223.47400000000047
 30
0.0
 11
700.5039999999998
 21
-223.23400000000046
 31
0.0
  0
LINE
  5
13C
330
17
100
AcDbEntity
  8
0
100
AcDbLine
 10
700.5039999999998
 20
-223.23400000000046
 30
0.0
 11
699.8209999999998
 21
-223.05800000000048
 31
0.0
  0
LINE
  5
13D
330
17
100
AcDbEntity
  8
0
100
AcDbLine
 10
699.8209999999998
 20
-223.05800000000048
 30
0.0
 11
699.1139999999998
 21
-222.95000000000047
 31
0.0
  0
LINE
  5
13E
330
17
100
AcDbEntity
  8
0
100
AcDbLine
 10
699.1139999999998
 20
-222.95000000000047
 30
0.0
 11
698.3859999999999
 21
-222.91300000000047
 31
0.0
  0
LINE
  5
13F
330
17
100
AcDbEntity
  8
0
100
AcDbLine
 10
94.5139999999999
 20
-298.4920000000005
 30
0.0
 11
96.8419999999999
 21
-299.7460000000005
 31
0.0
  0
LINE
  5
140
330
17
100
AcDbEntity
  8
0
100
AcDbLine
 10
96.8419999999999
 20
-299.7460000000005
 30
0.0
 11
98.9699999999999
 21
-301.2920000000005
 31
0.0
  0
LINE
  5
141
330
17
100
AcDbEntity
  8
0
100
AcDbLine
 10
98.9699999999999
 20
-301.2920000000005
 30
0.0
 11
99.9429999999999
 21
-302.17000000000047
 31
0.0
  0
LINE
  5
142
330
17
100
AcDbEntity
  8
0
100
AcDbLine
 10
99.9429999999999
 20
-302.17000000000047
 30
0.0
 11
100.8469999999999
 21
-303.11500000000046
 31
0.0
  0
LINE
  5
143
330
17
100
AcDbEntity
  8
0
100
AcDbLine
 10
100.8469999999999
 20
-303.11500000000046
 30
0.0
 11
101.6749999999999
 21
-304.1260000000005
 31
0.0
  0
LINE
  5
144
330
17
100
AcDbEntity
  8
0
100
AcDbLine
 10
101.6749999999999
 20
-304.1260000000005
 30
0.0
 11
103.0729999999999
 21
-306.29500000000047
 31
0.0
  0
LINE
  5
145
330
17
100
AcDbEntity
  8
0
100
AcDbLine
 10
103.0729999999999
 20
-306.29500000000047
 30
0.0
 11
104.1949999999999
 21
-308.5780000000005
 31
0.0
  0
LINE
  5
146
330
17
100
AcDbEntity
  8
0
100
AcDbLine
 10
104.1949999999999
 20
-308.5780000000005
 30
0.0
 11
105.0969999999999
 21
-310.9670000000005
 31
0.0
  0
LINE
  5
147
330
17
100
AcDbEntity
  8
0
100
AcDbLine
 10
105.0969999999999
 20
-310.9670000000005
 30
0.0
 11
106.0969999999999
 21
-314.6960000000005
 31
0.0
  0
LINE
  5
148
330
17
100
AcDbEntity
  8
0
100
AcDbLine
 10
106.0969999999999
 20
-314.6960000000005
 30
0.0
 11
217.4339999999999
 21
-315.6960000000005
 31
0.0
  0
LINE
  5
149
330
17
100
AcDbEntity
  8
0
100
AcDbLine
 10
217.4339999999999
 20
-315.6960000000005
 30
0.0
 11
217.4339999999999
 21
-299.4930000000005
 31
0.0
  0
LINE
  5
14A
330
17
100
AcDbEntity
  8
0
100
AcDbLine
 10
217.4339999999999
 20
-299.4930000000005
 30
0.0
 11
94.5129999999999
 21
-298.4930000000005
 31
0.0
  0
ENDSEC
  0
SECTION
  2
OBJECTS
  0
DICTIONARY
  5
A
330
0
100
AcDbDictionary
281
1
  3
ACAD_COLOR
350
B
  3
ACAD_GROUP
350
C
  3
ACAD_LAYOUT
350
D
  3
ACAD_MATERIAL
350
E
  3
ACAD_MLEADERSTYLE
350
F
  3
ACAD_MLINESTYLE
350
10
  3
ACAD_PLOTSETTINGS
350
11
  3
ACAD_PLOTSTYLENAME
350
12
  3
ACAD_SCALELIST
350
14
  3
ACAD_TABLESTYLE
350
15
  3
ACAD_VISUALSTYLE
350
16
  3
EZDXF_META
350
2D
  0
DICTIONARY
  5
B
330
A
100
AcDbDictionary
281
1
  0
DICTIONARY
  5
C
330
A
100
AcDbDictionary
281
1
  0
DICTIONARY
  5
D
330
A
100
AcDbDictionary
281
1
  3
Model
350
1A
  3
Layout1
350
1E
  0
DICTIONARY
  5
E
330
A
100
AcDbDictionary
281
1
  3
ByBlock
350
1F
  3
ByLayer
350
20
  3
Global
350
21
  0
DICTIONARY
  5
F
330
A
100
AcDbDictionary
281
1
  3
Standard
350
2C
  0
DICTIONARY
  5
10
330
A
100
AcDbDictionary
281
1
  3
Standard
350
22
  0
DICTIONARY
  5
11
330
A
100
AcDbDictionary
281
1
  0
ACDBDICTIONARYWDFLT
  5
12
330
A
100
AcDbDictionary
281
1
  3
Normal
350
13
100
AcDbDictionaryWithDefault
340
13
  0
ACDBPLACEHOLDER
  5
13
330
12
  0
DICTIONARY
  5
14
330
A
100
AcDbDictionary
281
1
  0
DICTIONARY
  5
15
330
A
100
AcDbDictionary
281
1
  0
DICTIONARY
  5
16
330
A
100
AcDbDictionary
281
1
  0
LAYOUT
  5
1A
330
D
100
AcDbPlotSettings
  1

  4
A3
  6

 40
7.5
 41
20.0
 42
7.5
 43
20.0
 44
420.0
 45
297.0
 46
0.0
 47
0.0
 48
0.0
 49
0.0
140
0.0
141
0.0
142
1.0
143
1.0
 70
1024
 72
1
 73
0
 74
5
  7

 75
16
 76
0
 77
2
 78
300
147
1.0
148
0.0
149
0.0
100
AcDbLayout
  1
Model
 70
1
 71
0
 10
0.0
 20
0.0
 11
420.0
 21
297.0
 12
0.0
 22
0.0
 32
0.0
 14
1e+20
 24
1e+20
 34
1e+20
 15
-1e+20
 25
-1e+20
 35
-1e+20
146
0.0
 13
0.0
 23
0.0
 33
0.0
 16
1.0
 26
0.0
 36
0.0
 17
0.0
 27
1.0
 37
0.0
 76
1
330
17
  0
LAYOUT
  5
1E
330
D
100
AcDbPlotSettings
  1

  4
A3
  6

 40
7.5
 41
20.0
 42
7.5
 43
20.0
 44
420.0
 45
297.0
 46
0.0
 47
0.0
 48
0.0
 49
0.0
140
0.0
141
0.0
142
1.0
143
1.0
 70
0
 72
1
 73
0
 74
5
  7

 75
16
 76
0
 77
2
 78
300
147
1.0
148
0.0
149
0.0
100
AcDbLayout
  1
Layout1
 70
1
 71
1
 10
0.0
 20
0.0
 11
420.0
 21
297.0
 12
0.0
 22
0.0
 32
0.0
 14
1e+20
 24
1e+20
 34
1e+20
 15
-1e+20
 25
-1e+20
 35
-1e+20
146
0.0
 13
0.0
 23
0.0
 33
0.0
 16
1.0
 26
0.0
 36
0.0
 17
0.0
 27
1.0
 37
0.0
 76
1
330
1B
  0
MATERIAL
  5
1F
102
{ACAD_REACTORS
330
E
102
}
330
E
100
AcDbMaterial
  1
ByBlock
  2

 70
0
 40
1.0
 71
1
 41
1.0
 91
-1023410177
 42
1.0
 72
1
  3

 73
1
 74
1
 75
1
 44
0.5
 73
0
 45
1.0
 46
1.0
 77
1
  4

 78
1
 79
1
170
1
 48
1.0
171
1
  6

172
1
173
1
174
1
140
1.0
141
1.0
175
1
  7

176
1
177
1
178
1
143
1.0
179
1
  8

270
1
271
1
272
1
145
1.0
146
1.0
273
1
  9

274
1
275
1
276
1
 42
1.0
 72
1
  3

 73
1
 74
1
 75
1
 94
63
  0
MATERIAL
  5
20
102
{ACAD_REACTORS
330
E
102
}
330
E
100
AcDbMaterial
  1
ByLayer
  2

 70
0
 40
1.0
 71
1
 41
1.0
 91
-1023410177
 42
1.0
 72
1
  3

 73
1
 74
1
 75
1
 44
0.5
 73
0
 45
1.0
 46
1.0
 77
1
  4

 78
1
 79
1
170
1
 48
1.0
171
1
  6

172
1
173
1
174
1
140
1.0
141
1.0
175
1
  7

176
1
177
1
178
1
143
1.0
179
1
  8

270
1
271
1
272
1
145
1.0
146
1.0
273
1
  9

274
1
275
1
276
1
 42
1.0
 72
1
  3

 73
1
 74
1
 75
1
 94
63
  0
MATERIAL
  5
21
102
{ACAD_REACTORS
330
E
102
}
330
E
100
AcDbMaterial
  1
Global
  2

 70
0
 40
1.0
 71
1
 41
1.0
 91
-1023410177
 42
1.0
 72
1
  3

 73
1
 74
1
 75
1
 44
0.5
 73
0
 45
1.0
 46
1.0
 77
1
  4

 78
1
 79
1
170
1
 48
1.0
171
1
  6

172
1
173
1
174
1
140
1.0
141
1.0
175
1
  7

176
1
177
1
178
1
143
1.0
179
1
  8

270
1
271
1
272
1
145
1.0
146
1.0
273
1
  9

274
1
275
1
276
1
 42
1.0
 72
1
  3

 73
1
 74
1
 75
1
 94
63
  0
MLINESTYLE
  5
22
102
{ACAD_REACTORS
330
10
102
}
330
10
100
AcDbMlineStyle
  2
Standard
 70
0
  3

 62
256
 51
90.0
 52
90.0
 71
2
 49
0.5
 62
256
  6
BYLAYER
 49
-0.5
 62
256
  6
BYLAYER
  0
MLEADERSTYLE
  5
2C
102
{ACAD_REACTORS
330
F
102
}
330
F
100
AcDbMLeaderStyle
179
2
170
2
171
1
172
0
 90
2
 40
0.0
 41
0.0
173
1
 91
-1056964608
 92
-2
290
1
 42
2.0
291
1
 43
8.0
  3
Standard
 44
4.0
300

342
29
174
1
175
1
176
0
178
1
 93
-1056964608
 45
4.0
292
0
297
0
 46
4.0
 94
-1056964608
 47
1.0
 49
1.0
140
1.0
294
1
141
0.0
177
0
142
1.0
295
0
296
0
143
3.75
271
0
272
9
273
9
  0
DICTIONARY
  5
2D
330
A
100
AcDbDictionary
280
1
281
1
  3
CREATED_BY_EZDXF
350
2E
  3
WRITTEN_BY_EZDXF
350
14D
  0
DICTIONARYVAR
  5
2E
330
2D
100
DictionaryVariables
280
0
  1
1.4.3 @ 2026-04-08T00:10:11.068966+00:00
  0
DICTIONARYVAR
  5
14D
330
2D
100
DictionaryVariables
280
0
  1
1.4.3 @ 2026-04-08T00:10:11.071524+00:00
  0
ENDSEC
  0
EOF
