  0
SECTION
  2
HEADER
  9
$ACADVER
  1
AC1024
  9
$ACADMAINTVER
 70
6
  9
$DWGCODEPAGE
  3
ANSI_1252
  9
$LASTSAVEDBY
  1
ezdxf
  9
$INSBASE
 10
0.0
 20
0.0
 30
0.0
  9
$EXTMIN
 10
1e+20
 20
1e+20
 30
1e+20
  9
$EXTMAX
 10
-1e+20
 20
-1e+20
 30
-1e+20
  9
$LIMMIN
 10
0.0
 20
0.0
  9
$LIMMAX
 10
420.0
 20
297.0
  9
$ORTHOMODE
 70
0
  9
$REGENMODE
 70
1
  9
$FILLMODE
 70
1
  9
$QTEXTMODE
 70
0
  9
$MIRRTEXT
 70
1
  9
$LTSCALE
 40
1.0
  9
$ATTMODE
 70
1
  9
$TEXTSIZE
 40
2.5
  9
$TRACEWID
 40
1.0
  9
$TEXTSTYLE
  7
Standard
  9
$CLAYER
  8
0
  9
$CELTYPE
  6
ByLayer
  9
$CECOLOR
 62
256
  9
$CELTSCALE
 40
1.0
  9
$DISPSILH
 70
0
  9
$DIMSCALE
 40
1.0
  9
$DIMASZ
 40
2.5
  9
$DIMEXO
 40
0.625
  9
$DIMDLI
 40
3.75
  9
$DIMRND
 40
0.0
  9
$DIMDLE
 40
0.0
  9
$DIMEXE
 40
1.25
  9
$DIMTP
 40
0.0
  9
$DIMTM
 40
0.0
  9
$DIMTXT
 40
2.5
  9
$DIMCEN
 40
2.5
  9
$DIMTSZ
 40
0.0
  9
$DIMTOL
 70
0
  9
$DIMLIM
 70
0
  9
$DIMTIH
 70
0
  9
$DIMTOH
 70
0
  9
$DIMSE1
 70
0
  9
$DIMSE2
 70
0
  9
$DIMTAD
 70
1
  9
$DIMZIN
 70
8
  9
$DIMBLK
  1

  9
$DIMASO
 70
1
  9
$DIMSHO
 70
1
  9
$DIMPOST
  1

  9
$DIMAPOST
  1

  9
$DIMALT
 70
0
  9
$DIMALTD
 70
3
  9
$DIMALTF
 40
0.03937007874
  9
$DIMLFAC
 40
1.0
  9
$DIMTOFL
 70
1
  9
$DIMTVP
 40
0.0
  9
$DIMTIX
 70
0
  9
$DIMSOXD
 70
0
  9
$DIMSAH
 70
0
  9
$DIMBLK1
  1

  9
$DIMBLK2
  1

  9
$DIMSTYLE
  2
ISO-25
  9
$DIMCLRD
 70
0
  9
$DIMCLRE
 70
0
  9
$DIMCLRT
 70
0
  9
$DIMTFAC
 40
1.0
  9
$DIMGAP
 40
0.625
  9
$DIMJUST
 70
0
  9
$DIMSD1
 70
0
  9
$DIMSD2
 70
0
  9
$DIMTOLJ
 70
0
  9
$DIMTZIN
 70
8
  9
$DIMALTZ
 70
0
  9
$DIMALTTZ
 70
0
  9
$DIMUPT
 70
0
  9
$DIMDEC
 70
2
  9
$DIMTDEC
 70
2
  9
$DIMALTU
 70
2
  9
$DIMALTTD
 70
3
  9
$DIMTXSTY
  7
Standard
  9
$DIMAUNIT
 70
0
  9
$DIMADEC
 70
0
  9
$DIMALTRND
 40
0.0
  9
$DIMAZIN
 70
0
  9
$DIMDSEP
 70
44
  9
$DIMATFIT
 70
3
  9
$DIMFRAC
 70
0
  9
$DIMLDRBLK
  1

  9
$DIMLUNIT
 70
2
  9
$DIMLWD
 70
-2
  9
$DIMLWE
 70
-2
  9
$DIMTMOVE
 70
0
  9
$DIMFXL
 40
1.0
  9
$DIMFXLON
 70
0
  9
$DIMJOGANG
 40
0.785398163397
  9
$DIMTFILL
 70
0
  9
$DIMTFILLCLR
 70
0
  9
$DIMARCSYM
 70
0
  9
$DIMLTYPE
  6

  9
$DIMLTEX1
  6

  9
$DIMLTEX2
  6

  9
$DIMTXTDIRECTION
 70
0
  9
$LUNITS
 70
2
  9
$LUPREC
 70
4
  9
$SKETCHINC
 40
1.0
  9
$FILLETRAD
 40
10.0
  9
$AUNITS
 70
0
  9
$AUPREC
 70
2
  9
$MENU
  1
.
  9
$ELEVATION
 40
0.0
  9
$PELEVATION
 40
0.0
  9
$THICKNESS
 40
0.0
  9
$LIMCHECK
 70
0
  9
$CHAMFERA
 40
0.0
  9
$CHAMFERB
 40
0.0
  9
$CHAMFERC
 40
0.0
  9
$CHAMFERD
 40
0.0
  9
$SKPOLY
 70
0
  9
$TDCREATE
 40
2461142.7371412036
  9
$TDUCREATE
 40
2458532.153996898
  9
$TDUPDATE
 40
2461142.7371412036
  9
$TDUUPDATE
 40
2458532.1544311
  9
$TDINDWG
 40
0.0
  9
$TDUSRTIMER
 40
0.0
  9
$USRTIMER
 70
1
  9
$ANGBASE
 50
0.0
  9
$ANGDIR
 70
0
  9
$PDMODE
 70
0
  9
$PDSIZE
 40
0.0
  9
$PLINEWID
 40
0.0
  9
$SPLFRAME
 70
0
  9
$SPLINETYPE
 70
6
  9
$SPLINESEGS
 70
8
  9
$HANDSEED
  5
41
  9
$SURFTAB1
 70
6
  9
$SURFTAB2
 70
6
  9
$SURFTYPE
 70
6
  9
$SURFU
 70
6
  9
$SURFV
 70
6
  9
$UCSBASE
  2

  9
$UCSNAME
  2

  9
$UCSORG
 10
0.0
 20
0.0
 30
0.0
  9
$UCSXDIR
 10
1.0
 20
0.0
 30
0.0
  9
$UCSYDIR
 10
0.0
 20
1.0
 30
0.0
  9
$UCSORTHOREF
  2

  9
$UCSORTHOVIEW
 70
0
  9
$UCSORGTOP
 10
0.0
 20
0.0
 30
0.0
  9
$UCSORGBOTTOM
 10
0.0
 20
0.0
 30
0.0
  9
$UCSORGLEFT
 10
0.0
 20
0.0
 30
0.0
  9
$UCSORGRIGHT
 10
0.0
 20
0.0
 30
0.0
  9
$UCSORGFRONT
 10
0.0
 20
0.0
 30
0.0
  9
$UCSORGBACK
 10
0.0
 20
0.0
 30
0.0
  9
$PUCSBASE
  2

  9
$PUCSNAME
  2

  9
$PUCSORG
 10
0.0
 20
0.0
 30
0.0
  9
$PUCSXDIR
 10
1.0
 20
0.0
 30
0.0
  9
$PUCSYDIR
 10
0.0
 20
1.0
 30
0.0
  9
$PUCSORTHOREF
  2

  9
$PUCSORTHOVIEW
 70
0
  9
$PUCSORGTOP
 10
0.0
 20
0.0
 30
0.0
  9
$PUCSORGBOTTOM
 10
0.0
 20
0.0
 30
0.0
  9
$PUCSORGLEFT
 10
0.0
 20
0.0
 30
0.0
  9
$PUCSORGRIGHT
 10
0.0
 20
0.0
 30
0.0
  9
$PUCSORGFRONT
 10
0.0
 20
0.0
 30
0.0
  9
$PUCSORGBACK
 10
0.0
 20
0.0
 30
0.0
  9
$USERI1
 70
0
  9
$USERI2
 70
0
  9
$USERI3
 70
0
  9
$USERI4
 70
0
  9
$USERI5
 70
0
  9
$USERR1
 40
0.0
  9
$USERR2
 40
0.0
  9
$USERR3
 40
0.0
  9
$USERR4
 40
0.0
  9
$USERR5
 40
0.0
  9
$WORLDVIEW
 70
1
  9
$SHADEDGE
 70
3
  9
$SHADEDIF
 70
70
  9
$TILEMODE
 70
1
  9
$MAXACTVP
 70
64
  9
$PINSBASE
 10
0.0
 20
0.0
 30
0.0
  9
$PLIMCHECK
 70
0
  9
$PEXTMIN
 10
1e+20
 20
1e+20
 30
1e+20
  9
$PEXTMAX
 10
-1e+20
 20
-1e+20
 30
-1e+20
  9
$PLIMMIN
 10
0.0
 20
0.0
  9
$PLIMMAX
 10
420.0
 20
297.0
  9
$UNITMODE
 70
0
  9
$VISRETAIN
 70
1
  9
$PLINEGEN
 70
0
  9
$PSLTSCALE
 70
1
  9
$TREEDEPTH
 70
3020
  9
$CMLSTYLE
  2
Standard
  9
$CMLJUST
 70
0
  9
$CMLSCALE
 40
20.0
  9
$PROXYGRAPHICS
 70
1
  9
$MEASUREMENT
 70
1
  9
$CELWEIGHT
370
-1
  9
$ENDCAPS
280
0
  9
$JOINSTYLE
280
0
  9
$LWDISPLAY
290
0
  9
$INSUNITS
 70
4
  9
$HYPERLINKBASE
  1

  9
$STYLESHEET
  1

  9
$XEDIT
290
1
  9
$CEPSNTYPE
380
0
  9
$PSTYLEMODE
290
1
  9
$FINGERPRINTGUID
  2
{0FFB2E00-9638-4E8F-AF43-5636A1299EA5}
  9
$VERSIONGUID
  2
{93435785-AB3B-4923-9A2E-8D6E83BAFA54}
  9
$EXTNAMES
290
1
  9
$PSVPSCALE
 40
0.0
  9
$OLESTARTUP
290
0
  9
$SORTENTS
280
127
  9
$INDEXCTL
280
0
  9
$HIDETEXT
280
1
  9
$XCLIPFRAME
280
1
  9
$HALOGAP
280
0
  9
$OBSCOLOR
 70
257
  9
$OBSLTYPE
280
0
  9
$INTERSECTIONDISPLAY
280
0
  9
$INTERSECTIONCOLOR
 70
257
  9
$DIMASSOC
280
2
  9
$PROJECTNAME
  1

  9
$CAMERADISPLAY
290
0
  9
$LENSLENGTH
 40
50.0
  9
$CAMERAHEIGHT
 40
0.0
  9
$STEPSPERSEC
 40
24.0
  9
$STEPSIZE
 40
100.0
  9
$3DDWFPREC
 40
2.0
  9
$PSOLWIDTH
 40
0.005
  9
$PSOLHEIGHT
 40
0.08
  9
$LOFTANG1
 40
1.570796326795
  9
$LOFTANG2
 40
1.570796326795
  9
$LOFTMAG1
 40
0.0
  9
$LOFTMAG2
 40
0.0
  9
$LOFTPARAM
 70
7
  9
$LOFTNORMALS
280
1
  9
$LATITUDE
 40
37.795
  9
$LONGITUDE
 40
-122.394
  9
$NORTHDIRECTION
 40
0.0
  9
$TIMEZONE
 70
-8000
  9
$LIGHTGLYPHDISPLAY
280
1
  9
$TILEMODELIGHTSYNCH
280
1
  9
$CMATERIAL
347
20
  9
$SOLIDHIST
280
0
  9
$SHOWHIST
280
1
  9
$DWFFRAME
280
2
  9
$DGNFRAME
280
2
  9
$REALWORLDSCALE
290
1
  9
$INTERFERECOLOR
 62
256
  9
$CSHADOW
280
0
  9
$SHADOWPLANELOCATION
 40
0.0
  0
ENDSEC
  0
SECTION
  2
CLASSES
  0
CLASS
  1
ACDBDICTIONARYWDFLT
  2
AcDbDictionaryWithDefault
  3
ObjectDBX Classes
 90
0
 91
0
280
0
281
0
  0
CLASS
  1
SUN
  2
AcDbSun
  3
SCENEOE
 90
1153
 91
0
280
0
281
0
  0
CLASS
  1
VISUALSTYLE
  2
AcDbVisualStyle
  3
ObjectDBX Classes
 90
4095
 91
0
280
0
281
0
  0
CLASS
  1
MATERIAL
  2
AcDbMaterial
  3
ObjectDBX Classes
 90
1153
 91
0
280
0
281
0
  0
CLASS
  1
SCALE
  2
AcDbScale
  3
ObjectDBX Classes
 90
1153
 91
0
280
0
281
0
  0
CLASS
  1
TABLESTYLE
  2
AcDbTableStyle
  3
ObjectDBX Classes
 90
4095
 91
0
280
0
281
0
  0
CLASS
  1
MLEADERSTYLE
  2
AcDbMLeaderStyle
  3
ACDB_MLEADERSTYLE_CLASS
 90
4095
 91
0
280
0
281
0
  0
CLASS
  1
DICTIONARYVAR
  2
AcDbDictionaryVar
  3
ObjectDBX Classes
 90
0
 91
0
280
0
281
0
  0
CLASS
  1
CELLSTYLEMAP
  2
AcDbCellStyleMap
  3
ObjectDBX Classes
 90
1152
 91
0
280
0
281
0
  0
CLASS
  1
MENTALRAYRENDERSETTINGS
  2
AcDbMentalRayRenderSettings
  3
SCENEOE
 90
1024
 91
0
280
0
281
0
  0
CLASS
  1
ACDBDETAILVIEWSTYLE
  2
AcDbDetailViewStyle
  3
ObjectDBX Classes
 90
1025
 91
0
280
0
281
0
  0
CLASS
  1
ACDBSECTIONVIEWSTYLE
  2
AcDbSectionViewStyle
  3
ObjectDBX Classes
 90
1025
 91
0
280
0
281
0
  0
CLASS
  1
RASTERVARIABLES
  2
AcDbRasterVariables
  3
ISM
 90
0
 91
0
280
0
281
0
  0
CLASS
  1
ACDBPLACEHOLDER
  2
AcDbPlaceHolder
  3
ObjectDBX Classes
 90
0
 91
0
280
0
281
0
  0
CLASS
  1
LAYOUT
  2
AcDbLayout
  3
ObjectDBX Classes
 90
0
 91
0
280
0
281
0
  0
ENDSEC
  0
SECTION
  2
TABLES
  0
TABLE
  2
VPORT
  5
8
330
0
100
AcDbSymbolTable
 70
1
  0
VPORT
  5
23
330
8
100
AcDbSymbolTableRecord
100
AcDbViewportTableRecord
  2
*Active
 70
0
 10
0.0
 20
0.0
 11
1.0
 21
1.0
 12
0.0
 22
0.0
 13
0.0
 23
0.0
 14
0.5
 24
0.5
 15
0.5
 25
0.5
 16
0.0
 26
0.0
 36
1.0
 17
0.0
 27
0.0
 37
0.0
 40
1000.0
 41
1.34
 42
50.0
 43
0.0
 44
0.0
 50
0.0
 51
0.0
 71
0
 72
1000
 73
1
 74
3
 75
0
 76
0
 77
0
 78
0
281
0
 65
0
146
0.0
  0
ENDTAB
  0
TABLE
  2
LTYPE
  5
2
330
0
100
AcDbSymbolTable
 70
3
  0
LTYPE
  5
24
330
2
100
AcDbSymbolTableRecord
100
AcDbLinetypeTableRecord
  2
ByBlock
 70
0
  3

 72
65
 73
0
 40
0.0
  0
LTYPE
  5
25
330
2
100
AcDbSymbolTableRecord
100
AcDbLinetypeTableRecord
  2
ByLayer
 70
0
  3

 72
65
 73
0
 40
0.0
  0
LTYPE
  5
26
330
2
100
AcDbSymbolTableRecord
100
AcDbLinetypeTableRecord
  2
Continuous
 70
0
  3

 72
65
 73
0
 40
0.0
  0
ENDTAB
  0
TABLE
  2
LAYER
  5
1
330
0
100
AcDbSymbolTable
 70
2
  0
LAYER
  5
27
330
1
100
AcDbSymbolTableRecord
100
AcDbLayerTableRecord
  2
0
 70
0
 62
7
  6
Continuous
370
-3
390
13
347
21
  0
LAYER
  5
28
330
1
100
AcDbSymbolTableRecord
100
AcDbLayerTableRecord
  2
Defpoints
 70
0
 62
7
  6
Continuous
290
0
370
-3
390
13
347
21
  0
ENDTAB
  0
TABLE
  2
STYLE
  5
5
330
0
100
AcDbSymbolTable
 70
1
  0
STYLE
  5
29
330
5
100
AcDbSymbolTableRecord
100
AcDbTextStyleTableRecord
  2
Standard
 70
0
 40
0.0
 41
1.0
 50
0.0
 71
0
 42
2.5
  3
txt
  4

  0
ENDTAB
  0
TABLE
  2
VIEW
  5
7
330
0
100
AcDbSymbolTable
 70
0
  0
ENDTAB
  0
TABLE
  2
UCS
  5
6
330
0
100
AcDbSymbolTable
 70
0
  0
ENDTAB
  0
TABLE
  2
APPID
  5
3
330
0
100
AcDbSymbolTable
 70
3
  0
APPID
  5
2A
330
3
100
AcDbSymbolTableRecord
100
AcDbRegAppTableRecord
  2
ACAD
 70
0
  0
APPID
  5
3E
330
3
100
AcDbSymbolTableRecord
100
AcDbRegAppTableRecord
  2
HATCHBACKGROUNDCOLOR
 70
0
  0
APPID
  5
3F
330
3
100
AcDbSymbolTableRecord
100
AcDbRegAppTableRecord
  2
EZDXF
 70
0
  0
ENDTAB
  0
TABLE
  2
DIMSTYLE
  5
4
330
0
100
AcDbSymbolTable
 70
1
100
AcDbDimStyleTable
  0
DIMSTYLE
105
2B
330
4
100
AcDbSymbolTableRecord
100
AcDbDimStyleTableRecord
  2
Standard
 70
0
 40
1.0
 41
2.5
 42
0.625
 43
3.75
 44
1.25
 45
0.0
 46
0.0
 47
0.0
 48
0.0
 49
2.5
140
2.5
141
2.5
142
0.0
143
0.03937007874
144
1.0
145
0.0
146
1.0
147
0.625
148
0.0
 69
0
 70
0
 71
0
 72
0
 73
0
 74
0
 75
0
 76
0
 77
1
 78
8
 79
3
170
0
171
3
172
1
173
0
174
0
175
0
176
0
177
0
178
0
179
2
271
2
272
2
273
2
274
3
275
0
276
0
277
2
278
44
279
0
280
0
281
0
282
0
283
0
284
8
285
0
286
0
288
0
289
3
290
0
371
-2
372
-2
  0
ENDTAB
  0
TABLE
  2
BLOCK_RECORD
  5
9
330
0
100
AcDbSymbolTable
 70
2
  0
BLOCK_RECORD
  5
17
330
9
100
AcDbSymbolTableRecord
100
AcDbBlockTableRecord
  2
*Model_Space
340
1A
 70
0
280
1
281
0
  0
BLOCK_RECORD
  5
1B
330
9
100
AcDbSymbolTableRecord
100
AcDbBlockTableRecord
  2
*Paper_Space
340
1E
 70
0
280
1
281
0
  0
ENDTAB
  0
ENDSEC
  0
SECTION
  2
BLOCKS
  0
BLOCK
  5
18
330
17
100
AcDbEntity
  8
0
100
AcDbBlockBegin
  2
*Model_Space
 70
0
 10
0.0
 20
0.0
 30
0.0
  3
*Model_Space
  1

  0
ENDBLK
  5
19
330
17
100
AcDbEntity
  8
0
100
AcDbBlockEnd
  0
BLOCK
  5
1C
330
1B
100
AcDbEntity
  8
0
100
AcDbBlockBegin
  2
*Paper_Space
 70
0
 10
0.0
 20
0.0
 30
0.0
  3
*Paper_Space
  1

  0
ENDBLK
  5
1D
330
1B
100
AcDbEntity
  8
0
100
AcDbBlockEnd
  0
ENDSEC
  0
SECTION
  2
ENTITIES
  0
LWPOLYLINE
  5
2F
330
17
100
AcDbEntity
  8
0
100
AcDbPolyline
 90
67
 70
1
 10
105.49229600000001
 20
-78.92923
 10
108.63326
 20
-77.653896
 10
111.005366
 20
-76.95336400000001
 10
113.787936
 20
-76.39685000000001
 10
116.88826
 20
-76.123292
 10
118.528592
 20
-76.13624600000001
 10
120.21362800000001
 20
-76.27239
 10
121.93143
 20
-76.54874200000002
 10
123.67082200000002
 20
-76.98308200000001
 10
125.41986600000001
 20
-77.592682
 10
127.16713200000002
 20
-78.395068
 10
127.22885400000001
 20
-78.43088200000001
 10
127.28702000000001
 20
-78.47203
 10
127.34112200000003
 20
-78.51800399999999
 10
127.39090600000003
 20
-78.56855
 10
127.43586400000004
 20
-78.623414
 10
127.47599600000004
 20
-78.682088
 10
127.51104800000003
 20
-78.74406400000001
 10
151.96667600000004
 20
-139.597892
 10
151.98547200000002
 20
-139.68272799999997
 10
151.99487000000002
 20
-139.76756399999996
 10
151.995124
 20
-139.85163799999998
 10
151.986488
 20
-139.93444199999996
 10
151.96947000000003
 20
-140.01546799999997
 10
151.944324
 20
-140.09395399999997
 10
151.911304
 20
-140.16939199999996
 10
151.870664
 20
-140.24101999999996
 10
151.82291200000003
 20
-140.30807599999997
 10
151.76804800000002
 20
-140.370052
 10
151.70683400000001
 20
-140.42643999999999
 10
151.63927000000004
 20
-140.476478
 10
151.56561000000005
 20
-140.51940399999998
 10
151.48636200000004
 20
-140.55470999999997
 10
141.90624400000004
 20
-142.74799999999996
 10
130.54355400000003
 20
-144.33219799999998
 10
127.09728200000004
 20
-144.39747599999995
 10
125.55093000000004
 20
-144.29739999999995
 10
125.49124000000003
 20
-144.28927199999995
 10
125.43282000000002
 20
-144.27682599999994
 10
125.37617800000002
 20
-144.26031599999993
 10
125.32106000000003
 20
-144.23999599999993
 10
125.26797400000002
 20
-144.21586599999992
 10
125.21692000000002
 20
-144.18792599999992
 10
125.16815200000002
 20
-144.15642999999992
 10
125.12192400000002
 20
-144.12163199999992
 10
125.078236
 20
-144.08353199999993
 10
125.03734200000001
 20
-144.0423839999999
 10
124.99949600000001
 20
-143.99844199999993
 10
124.964952
 20
-143.95145199999993
 10
124.93371
 20
-143.90192199999993
 10
124.906024
 20
-143.8498519999999
 10
124.88214800000002
 20
-143.7952419999999
 10
105.06202000000002
 20
-79.81086399999988
 10
105.050082
 20
-79.73974399999989
 10
105.044748
 20
-79.6686239999999
 10
105.045764
 20
-79.5980119999999
 10
105.05287600000001
 20
-79.5284159999999
 10
105.06608400000002
 20
-79.4600899999999
 10
105.08513400000001
 20
-79.3932879999999
 10
105.109772
 20
-79.3285179999999
 10
105.13999800000002
 20
-79.2662879999999
 10
105.17555800000001
 20
-79.20685199999991
 10
105.21619800000002
 20
-79.15046399999991
 10
105.26191800000002
 20
-79.0976319999999
 10
105.31246400000002
 20
-79.04860999999991
 10
105.36783600000003
 20
-79.00390599999992
 10
105.42778000000003
 20
-78.96402799999991
  0
LWPOLYLINE
  5
30
330
17
100
AcDbEntity
  8
0
100
AcDbPolyline
 90
64
 70
1
 10
120.71121400000003
 20
-84.77402399999993
 10
120.69826000000003
 20
-85.02853199999993
 10
120.66066800000003
 20
-85.27567399999992
 10
120.59945400000002
 20
-85.51417999999994
 10
120.51563400000003
 20
-85.74277999999993
 10
120.41073200000002
 20
-85.96045799999993
 10
120.28601800000003
 20
-86.16568999999993
 10
120.14276200000003
 20
-86.35720599999993
 10
119.98198000000004
 20
-86.53398999999995
 10
119.80519600000002
 20
-86.69477199999994
 10
119.61368000000002
 20
-86.83802799999995
 10
119.40844800000002
 20
-86.96274199999993
 10
119.19077000000001
 20
-87.06764399999994
 10
118.96217000000001
 20
-87.15146399999993
 10
118.72366400000001
 20
-87.21267799999994
 10
118.47652200000002
 20
-87.25026999999994
 10
118.22201400000002
 20
-87.26322399999994
 10
117.967506
 20
-87.25026999999994
 10
117.720364
 20
-87.21267799999994
 10
117.481858
 20
-87.15146399999993
 10
117.253258
 20
-87.06764399999994
 10
117.03558
 20
-86.96274199999993
 10
116.830348
 20
-86.83802799999995
 10
116.638832
 20
-86.69477199999994
 10
116.46204799999998
 20
-86.53398999999995
 10
116.30151999999998
 20
-86.35720599999993
 10
116.15826399999997
 20
-86.16568999999993
 10
116.03354999999999
 20
-85.96045799999993
 10
115.92864799999998
 20
-85.74277999999993
 10
115.84482799999999
 20
-85.51417999999994
 10
115.78361399999999
 20
-85.27567399999992
 10
115.74602199999998
 20
-85.02853199999993
 10
115.73306799999999
 20
-84.77402399999993
 10
115.74602199999998
 20
-84.51951599999992
 10
115.78361399999999
 20
-84.27237399999991
 10
115.84482799999999
 20
-84.03386799999991
 10
115.92864799999998
 20
-83.80526799999991
 10
116.03354999999999
 20
-83.5875899999999
 10
116.15826399999997
 20
-83.38235799999991
 10
116.30151999999998
 20
-83.1908419999999
 10
116.46204799999998
 20
-83.0140579999999
 10
116.638832
 20
-82.85327599999991
 10
116.830348
 20
-82.7100199999999
 10
117.03558
 20
-82.5853059999999
 10
117.253258
 20
-82.4804039999999
 10
117.481858
 20
-82.3965839999999
 10
117.720364
 20
-82.33536999999991
 10
117.967506
 20
-82.2977779999999
 10
118.22201400000002
 20
-82.2848239999999
 10
118.47652200000002
 20
-82.2977779999999
 10
118.72366400000001
 20
-82.33536999999991
 10
118.96217000000001
 20
-82.3965839999999
 10
119.19077000000001
 20
-82.4804039999999
 10
119.40844800000002
 20
-82.5853059999999
 10
119.61368000000002
 20
-82.7100199999999
 10
119.80519600000002
 20
-82.85327599999991
 10
119.98198000000004
 20
-83.0140579999999
 10
120.14276200000003
 20
-83.1908419999999
 10
120.28601800000003
 20
-83.38235799999991
 10
120.41073200000002
 20
-83.5875899999999
 10
120.51563400000003
 20
-83.80526799999991
 10
120.59945400000002
 20
-84.03386799999991
 10
120.66066800000003
 20
-84.27237399999991
 10
120.69826000000003
 20
-84.51951599999992
  0
LWPOLYLINE
  5
31
330
17
100
AcDbEntity
  8
0
100
AcDbPolyline
 90
64
 70
1
 10
138.741912
 20
-133.96569599999995
 10
138.728958
 20
-134.22020399999994
 10
138.691366
 20
-134.4673459999999
 10
138.630152
 20
-134.7058519999999
 10
138.546332
 20
-134.9344519999999
 10
138.44143
 20
-135.1521299999999
 10
138.31671599999999
 20
-135.35736199999988
 10
138.17346
 20
-135.5488779999999
 10
138.012678
 20
-135.72566199999991
 10
137.835894
 20
-135.88644399999993
 10
137.644378
 20
-136.0296999999999
 10
137.439146
 20
-136.1544139999999
 10
137.221468
 20
-136.2593159999999
 10
136.992868
 20
-136.3431359999999
 10
136.75436200000001
 20
-136.4046039999999
 10
136.50722000000002
 20
-136.4421959999999
 10
136.25271200000003
 20
-136.45514999999992
 10
135.99820400000004
 20
-136.4421959999999
 10
135.75106200000005
 20
-136.4046039999999
 10
135.51255600000007
 20
-136.3431359999999
 10
135.28395600000007
 20
-136.2593159999999
 10
135.06627800000007
 20
-136.1544139999999
 10
134.86104600000007
 20
-136.0296999999999
 10
134.66953000000007
 20
-135.88644399999993
 10
134.49274600000007
 20
-135.72566199999991
 10
134.33196400000006
 20
-135.5488779999999
 10
134.18870800000008
 20
-135.35736199999988
 10
134.06399400000006
 20
-135.1521299999999
 10
133.95909200000006
 20
-134.9344519999999
 10
133.87527200000005
 20
-134.7058519999999
 10
133.81405800000005
 20
-134.4673459999999
 10
133.77646600000006
 20
-134.22020399999994
 10
133.76351200000005
 20
-133.96569599999995
 10
133.77646600000006
 20
-133.71118799999996
 10
133.81405800000005
 20
-133.46404599999997
 10
133.87527200000005
 20
-133.22553999999997
 10
133.95909200000006
 20
-132.99693999999997
 10
134.06399400000006
 20
-132.779262
 10
134.18870800000008
 20
-132.57403
 10
134.33196400000006
 20
-132.382514
 10
134.49274600000007
 20
-132.20572999999996
 10
134.66953000000007
 20
-132.045202
 10
134.86104600000007
 20
-131.901946
 10
135.06627800000007
 20
-131.777232
 10
135.28395600000007
 20
-131.67233
 10
135.51255600000007
 20
-131.58850999999999
 10
135.75106200000005
 20
-131.52729599999998
 10
135.99820400000004
 20
-131.489704
 10
136.25271200000003
 20
-131.47674999999998
 10
136.50722000000002
 20
-131.489704
 10
136.75436200000001
 20
-131.52729599999998
 10
136.992868
 20
-131.58850999999999
 10
137.221468
 20
-131.67233
 10
137.439146
 20
-131.777232
 10
137.644378
 20
-131.901946
 10
137.835894
 20
-132.045202
 10
138.012678
 20
-132.20572999999996
 10
138.17346
 20
-132.382514
 10
138.31671599999999
 20
-132.57403
 10
138.44143
 20
-132.779262
 10
138.546332
 20
-132.99693999999997
 10
138.630152
 20
-133.22553999999997
 10
138.691366
 20
-133.46404599999997
 10
138.728958
 20
-133.71118799999996
  0
LWPOLYLINE
  5
32
330
17
100
AcDbEntity
  8
0
100
AcDbPolyline
 90
64
 70
1
 10
131.75183200000004
 20
-109.52530799999994
 10
131.72821000000005
 20
-109.99114399999995
 10
131.65912200000002
 20
-110.44351799999994
 10
131.54685400000002
 20
-110.88014399999994
 10
131.39369200000004
 20
-111.29873599999995
 10
131.20192200000002
 20
-111.69700799999994
 10
130.97383000000002
 20
-112.07267399999995
 10
130.711702
 20
-112.42344799999994
 10
130.41757
 20
-112.74704399999993
 10
130.093974
 20
-113.04117599999994
 10
129.74320000000003
 20
-113.30355799999994
 10
129.36753400000003
 20
-113.53164999999996
 10
128.96926200000001
 20
-113.72341999999995
 10
128.55067000000003
 20
-113.87658199999996
 10
128.11404400000004
 20
-113.98884999999996
 10
127.66167000000002
 20
-114.05793799999995
 10
127.19583400000002
 20
-114.08155999999995
 10
126.72999800000002
 20
-114.05793799999995
 10
126.27762400000002
 20
-113.98884999999996
 10
125.84099800000001
 20
-113.87658199999996
 10
125.42240600000001
 20
-113.72341999999995
 10
125.02413400000002
 20
-113.53164999999996
 10
124.64846800000002
 20
-113.30355799999994
 10
124.29769400000002
 20
-113.04117599999994
 10
123.97409800000003
 20
-112.74704399999993
 10
123.67996600000002
 20
-112.42344799999994
 10
123.41758400000002
 20
-112.07267399999995
 10
123.18949200000002
 20
-111.69700799999994
 10
122.99772200000001
 20
-111.29873599999995
 10
122.84456000000002
 20
-110.88014399999994
 10
122.73229200000002
 20
-110.44351799999994
 10
122.66320400000001
 20
-109.99114399999995
 10
122.639582
 20
-109.52530799999994
 10
122.66320400000001
 20
-109.05947199999994
 10
122.73229200000002
 20
-108.60709799999994
 10
122.84456000000002
 20
-108.17047199999995
 10
122.99772200000001
 20
-107.75187999999994
 10
123.18949200000002
 20
-107.35360799999994
 10
123.41758400000002
 20
-106.97794199999994
 10
123.67996600000002
 20
-106.62716799999995
 10
123.97409800000003
 20
-106.30357199999995
 10
124.29769400000002
 20
-106.00943999999994
 10
124.64846800000002
 20
-105.74705799999994
 10
125.02413400000002
 20
-105.51896599999993
 10
125.42240600000001
 20
-105.32719599999994
 10
125.84099800000001
 20
-105.17403399999993
 10
126.27762400000002
 20
-105.06176599999993
 10
126.72999800000002
 20
-104.99267799999994
 10
127.19583400000002
 20
-104.96905599999994
 10
127.66167000000002
 20
-104.99267799999994
 10
128.11404400000004
 20
-105.06176599999993
 10
128.55067000000003
 20
-105.17403399999993
 10
128.96926200000001
 20
-105.32719599999994
 10
129.36753400000003
 20
-105.51896599999993
 10
129.74320000000003
 20
-105.74705799999994
 10
130.093974
 20
-106.00943999999994
 10
130.41757
 20
-106.30357199999995
 10
130.711702
 20
-106.62716799999995
 10
130.97383000000002
 20
-106.97794199999994
 10
131.20192200000002
 20
-107.35360799999994
 10
131.39369200000004
 20
-107.75187999999994
 10
131.54685400000002
 20
-108.17047199999995
 10
131.65912200000002
 20
-108.60709799999994
 10
131.72821000000005
 20
-109.05947199999994
  0
LWPOLYLINE
  5
33
330
17
100
AcDbEntity
  8
0
100
AcDbPolyline
 90
43
 70
1
 10
93.12833800000001
 20
-75.14335999999994
 10
85.20582400000002
 20
-74.97698999999996
 10
84.88324400000002
 20
-75.02855199999995
 10
84.72576400000003
 20
-75.07071599999995
 10
84.57184000000002
 20
-75.12430999999995
 10
84.42223400000003
 20
-75.19009599999995
 10
84.21370000000002
 20
-75.30795199999996
 10
83.98078200000002
 20
-75.47889399999995
 10
83.87715000000001
 20
-75.57109599999995
 10
83.67903000000003
 20
-75.78369399999995
 10
83.54923600000002
 20
-75.95920799999995
 10
83.43925400000002
 20
-76.14386599999995
 10
83.34857600000002
 20
-76.33639799999993
 10
83.27694800000002
 20
-76.53553399999994
 10
83.22411600000001
 20
-76.74000399999994
 10
83.19008000000001
 20
-76.94853799999994
 10
83.174332
 20
-77.15986599999994
 10
83.176872
 20
-77.37246399999994
 10
83.197192
 20
-77.58531599999995
 10
83.235292
 20
-77.79715199999994
 10
83.29091799999999
 20
-78.00670199999995
 10
83.363562
 20
-78.21244199999994
 10
83.45322399999999
 20
-78.41335599999994
 10
83.55964999999999
 20
-78.60791999999995
 10
83.68258599999999
 20
-78.79511799999996
 10
83.779614
 20
-78.92033999999995
 10
83.99348199999999
 20
-79.14766999999995
 10
84.23097199999998
 20
-79.34324999999994
 10
84.48903599999998
 20
-79.50555599999994
 10
84.764118
 20
-79.63280999999994
 10
85.052916
 20
-79.72348799999995
 10
85.352128
 20
-79.77631999999996
 10
85.658452
 20
-79.78952799999996
 10
93.345
 20
-79.10271199999995
 10
93.268292
 20
-75.13091399999996
 10
93.267276
 20
-75.12837399999997
 10
93.265498
 20
-75.12608799999995
 10
93.26321199999998
 20
-75.12430999999995
 10
93.26016399999999
 20
-75.12278599999996
 10
93.25660799999999
 20
-75.12176999999996
 10
93.25254399999997
 20
-75.12100799999996
 10
93.24289199999997
 20
-75.12049999999996
 10
93.21926999999997
 20
-75.12227799999997
  0
LWPOLYLINE
  5
34
330
17
100
AcDbEntity
  8
0
100
AcDbPolyline
 90
80
 70
1
 10
142.32432799999998
 20
-79.95259599999996
 10
142.29664199999996
 20
-79.86826799999996
 10
142.26209799999998
 20
-79.78647999999995
 10
142.22094999999996
 20
-79.70773999999996
 10
142.17345199999997
 20
-79.63280999999995
 10
142.11985799999997
 20
-79.56219799999995
 10
142.06016799999995
 20
-79.49641199999995
 10
141.99463599999993
 20
-79.43621399999994
 10
141.92351599999995
 20
-79.38236599999995
 10
141.84198199999994
 20
-79.33308999999994
 10
141.75638399999994
 20
-79.29219599999993
 10
136.72692999999992
 20
-77.64500599999994
 10
136.98067599999993
 20
-78.06969399999994
 10
137.02715799999993
 20
-78.18348599999993
 10
137.06474999999995
 20
-78.32140799999993
 10
137.09218199999992
 20
-78.49387399999993
 10
137.10843799999992
 20
-78.71155199999994
 10
137.1076759999999
 20
-78.77784599999994
 10
137.09980199999993
 20
-78.84642599999994
 10
137.08532399999993
 20
-78.91703799999995
 10
137.03757199999993
 20
-79.06308799999994
 10
136.9672139999999
 20
-79.21447199999994
 10
136.8770439999999
 20
-79.36915799999994
 10
136.6476819999999
 20
-79.68157799999994
 10
136.37107599999987
 20
-79.98612399999995
 10
136.0690699999999
 20
-80.26831799999994
 10
135.7629999999999
 20
-80.51368199999995
 10
135.4747099999999
 20
-80.70748399999994
 10
135.3441539999999
 20
-80.78063599999994
 10
135.25195199999987
 20
-80.82381599999995
 10
135.18845199999987
 20
-80.84311999999996
 10
135.12418999999986
 20
-80.85353399999995
 10
135.05916599999986
 20
-80.85581999999995
 10
134.99363399999987
 20
-80.85073999999996
 10
134.92784799999984
 20
-80.83905599999996
 10
134.79551399999986
 20
-80.79917799999997
 10
134.66343399999988
 20
-80.74228199999997
 10
133.89965599999988
 20
-80.34527999999997
 10
133.36295399999986
 20
-80.15731999999997
 10
132.13994399999984
 20
-79.88045999999997
 10
129.59308599999986
 20
-79.51622399999997
 10
130.09143399999988
 20
-79.98256799999997
 10
130.59943399999986
 20
-80.56803799999997
 10
131.07822399999986
 20
-81.22030999999997
 10
131.48944999999986
 20
-81.88756799999997
 10
132.36219399999987
 20
-83.98738599999997
 10
132.5887619999999
 20
-84.39607199999996
 10
132.8630819999999
 20
-84.76945199999997
 10
133.18007399999993
 20
-85.11717799999998
 10
133.48919199999992
 20
-85.40749999999997
 10
134.07491599999992
 20
-85.85047599999999
 10
134.38987599999993
 20
-86.04072199999999
 10
134.74293599999993
 20
-86.21775999999998
 10
134.9413099999999
 20
-86.29649999999998
 10
135.1450179999999
 20
-86.35974599999999
 10
135.3515199999999
 20
-86.403434
 10
135.5580219999999
 20
-86.4235
 10
135.66063799999992
 20
-86.4235
 10
135.7622379999999
 20
-86.41588
 10
135.8625679999999
 20
-86.40038600000001
 10
135.9611199999999
 20
-86.37651000000001
 10
136.0578939999999
 20
-86.34374400000002
 10
136.1523819999999
 20
-86.30158000000002
 10
136.28928799999989
 20
-86.22030000000001
 10
136.41298599999988
 20
-86.12352600000003
 10
136.52576199999987
 20
-86.01430600000002
 10
137.44117799999987
 20
-84.83396800000003
 10
138.37691399999986
 20
-83.85606800000001
 10
141.92707199999987
 20
-81.10270800000002
 10
142.04162599999987
 20
-80.99018600000002
 10
142.14398799999987
 20
-80.86902800000003
 10
142.23110999999986
 20
-80.73771000000004
 10
142.26793999999987
 20
-80.66786000000003
 10
142.31391399999987
 20
-80.55635400000003
 10
142.33702799999986
 20
-80.47761400000003
 10
142.35328399999986
 20
-80.39760400000003
 10
142.36268199999986
 20
-80.31657800000004
 10
142.36547599999986
 20
-80.23479000000003
 10
142.36166599999987
 20
-80.15300200000003
 10
142.3515059999999
 20
-80.07172200000002
  0
LWPOLYLINE
  5
35
330
17
100
AcDbEntity
  8
0
100
AcDbPolyline
 90
28
 70
1
 10
138.92783999999986
 20
-72.26604800000003
 10
133.88162199999988
 20
-72.37349000000003
 10
132.73404999999988
 20
-71.58761400000003
 10
132.56209199999986
 20
-71.50252400000004
 10
132.38505399999985
 20
-71.43572200000004
 10
132.20445999999987
 20
-71.38670000000005
 10
132.02132599999985
 20
-71.35545800000006
 10
131.83717599999986
 20
-71.34199600000005
 10
131.65327999999985
 20
-71.34580600000005
 10
131.47065399999983
 20
-71.36688800000006
 10
131.29082199999985
 20
-71.40473400000005
 10
131.11505399999984
 20
-71.45934400000004
 10
130.94461999999982
 20
-71.53046400000004
 10
130.78078999999983
 20
-71.61784000000004
 10
130.62483399999982
 20
-71.72147200000005
 10
130.4780219999998
 20
-71.84110600000004
 10
130.34162399999983
 20
-71.97623400000003
 10
130.1452819999998
 20
-72.22286800000003
 10
127.58978799999981
 20
-72.24445800000004
 10
124.30429799999982
 20
-59.74664200000003
 10
134.9336899999998
 20
-59.74664200000003
 10
135.0683099999998
 20
-59.873388000000034
 10
135.43102199999979
 20
-60.29274200000003
 10
135.9598499999998
 20
-61.06388600000003
 10
136.5928179999998
 20
-62.24600200000003
 10
137.2679499999998
 20
-63.89801800000003
 10
137.9235239999998
 20
-66.07937000000004
 10
138.49756399999978
 20
-68.84898600000004
  0
LWPOLYLINE
  5
36
330
17
100
AcDbEntity
  8
0
100
AcDbPolyline
 90
84
 70
1
 10
99.3838499999998
 20
-59.65418600000003
 10
85.40292799999979
 20
-59.66333000000003
 10
85.2274139999998
 20
-59.69000000000003
 10
85.0579959999998
 20
-59.733180000000026
 10
84.8954359999998
 20
-59.792362000000026
 10
84.7407499999998
 20
-59.86627600000003
 10
84.59469999999982
 20
-59.95441400000003
 10
84.45830199999982
 20
-60.05576000000003
 10
84.33231799999983
 20
-60.16929800000003
 10
84.21750999999983
 20
-60.29426600000003
 10
84.11489399999982
 20
-60.42990200000003
 10
84.02548599999983
 20
-60.57519000000003
 10
83.95004799999982
 20
-60.729114000000024
 10
83.88959599999983
 20
-60.89116600000003
 10
83.84463799999982
 20
-61.060076000000024
 10
83.81644399999982
 20
-61.235336000000025
 10
83.76919999999983
 20
-64.65646200000002
 10
83.74786399999984
 20
-64.78854200000002
 10
83.71382799999982
 20
-64.91579600000003
 10
83.66785399999983
 20
-65.03771600000002
 10
83.61070399999983
 20
-65.15354000000002
 10
83.54288599999983
 20
-65.26276000000003
 10
83.46516199999984
 20
-65.36461400000003
 10
83.37829399999984
 20
-65.45834000000004
 10
83.28278999999984
 20
-65.54343000000003
 10
83.17941199999984
 20
-65.61912200000003
 10
83.06892199999984
 20
-65.68490800000004
 10
82.95182799999984
 20
-65.74002600000003
 10
82.82889199999984
 20
-65.78371400000005
 10
82.70087599999984
 20
-65.81546400000003
 10
82.56828799999984
 20
-65.83451400000004
 10
15.779749999999842
 20
-65.63207600000003
 10
15.72513999999984
 20
-65.64020400000003
 10
15.672307999999841
 20
-65.65366600000003
 10
15.621761999999842
 20
-65.67195400000003
 10
15.573501999999841
 20
-65.69506800000003
 10
15.528035999999842
 20
-65.72250000000003
 10
15.48561799999984
 20
-65.75425000000003
 10
15.44650199999984
 20
-65.78981000000003
 10
15.41094199999984
 20
-65.82892600000002
 10
15.37919199999984
 20
-65.87134400000002
 10
15.351505999999839
 20
-65.91681000000001
 10
15.32839199999984
 20
-65.96481600000001
 10
15.30984999999984
 20
-66.01536200000002
 10
15.296133999999839
 20
-66.06819400000003
 10
15.287751999999838
 20
-66.12280400000002
 10
15.294863999999839
 20
-67.09841800000002
 10
15.323819999999838
 20
-67.28764800000002
 10
15.371063999999837
 20
-67.47078200000003
 10
15.435579999999836
 20
-67.64680400000002
 10
15.516097999999836
 20
-67.81444400000002
 10
15.611855999999838
 20
-67.97294000000004
 10
15.721837999999837
 20
-68.12127600000004
 10
15.845281999999838
 20
-68.25843600000005
 10
15.980917999999836
 20
-68.38365800000004
 10
16.127983999999838
 20
-68.49567200000003
 10
16.285209999999836
 20
-68.59346200000003
 10
16.451833999999838
 20
-68.67626600000004
 10
16.626839999999838
 20
-68.74281400000004
 10
16.80921199999984
 20
-68.79234400000003
 10
16.998187999999836
 20
-68.82384000000003
 10
26.870151999999837
 20
-69.03212000000003
 10
28.704031999999838
 20
-69.32117200000003
 10
32.23513999999984
 20
-70.30923200000002
 10
34.68750999999983
 20
-71.26732000000003
 10
34.74872399999984
 20
-71.28052800000003
 10
34.81120799999984
 20
-71.28662400000003
 10
103.15574999999983
 20
-71.88047600000003
 10
103.15574999999983
 20
-71.70978800000003
 10
99.89845399999983
 20
-60.01283400000003
 10
99.88092799999983
 20
-59.97092400000003
 10
99.86035399999982
 20
-59.93104600000003
 10
99.83673199999981
 20
-59.893200000000036
 10
99.81031599999982
 20
-59.85764000000004
 10
99.78110599999981
 20
-59.82462000000004
 10
99.7496099999998
 20
-59.794140000000034
 10
99.71582799999982
 20
-59.76620000000003
 10
99.67975999999982
 20
-59.741054000000034
 10
99.64191399999982
 20
-59.718702000000036
 10
99.60228999999981
 20
-59.69939800000004
 10
99.5608879999998
 20
-59.683396000000045
 10
99.51821599999981
 20
-59.67069600000004
 10
99.47427399999981
 20
-59.661552000000036
 10
99.4293159999998
 20
-59.65596400000004
  0
LWPOLYLINE
  5
37
330
17
100
AcDbEntity
  8
0
100
AcDbPolyline
 90
46
 70
1
 10
15.439643999999799
 20
-65.06006800000004
 10
15.445993999999798
 20
-59.911996000000045
 10
15.464535999999798
 20
-59.79033000000004
 10
15.494761999999799
 20
-59.67272800000004
 10
15.535909999999799
 20
-59.559952000000045
 10
15.5874719999998
 20
-59.452764000000045
 10
15.648939999999797
 20
-59.35167200000004
 10
15.719551999999798
 20
-59.257184000000045
 10
15.798799999999797
 20
-59.170062000000044
 10
15.885921999999798
 20
-59.090814000000044
 10
15.980409999999798
 20
-59.02020200000005
 10
16.081501999999798
 20
-58.95873400000005
 10
16.1886899999998
 20
-58.907172000000045
 10
16.3014659999998
 20
-58.866024000000046
 10
16.419067999999797
 20
-58.83579800000005
 10
16.540733999999798
 20
-58.81725600000004
 10
77.01838799999979
 20
-58.81090600000004
 10
81.4108099999998
 20
-59.34024200000004
 10
81.59241999999979
 20
-59.37732600000004
 10
81.7603139999998
 20
-59.431174000000034
 10
81.9147459999998
 20
-59.50102400000004
 10
82.05596999999979
 20
-59.585606000000034
 10
82.18449399999977
 20
-59.68415800000004
 10
82.30057199999978
 20
-59.795918000000036
 10
82.40445799999978
 20
-59.91961600000003
 10
82.49640599999978
 20
-60.05449000000004
 10
82.57692399999978
 20
-60.19952400000004
 10
82.64626599999978
 20
-60.353702000000034
 10
82.7046859999998
 20
-60.51600800000004
 10
82.7905379999998
 20
-60.86170200000004
 10
82.8367659999998
 20
-61.228986000000035
 10
82.82355799999979
 20
-64.34836000000004
 10
82.8133979999998
 20
-64.42659200000004
 10
82.79561799999979
 20
-64.50228400000003
 10
82.7704719999998
 20
-64.57492800000004
 10
82.7387219999998
 20
-64.64401600000004
 10
82.7003679999998
 20
-64.70929400000004
 10
82.6561719999998
 20
-64.77025400000004
 10
82.6061339999998
 20
-64.82664200000004
 10
82.5510159999998
 20
-64.87795000000004
 10
82.4910719999998
 20
-64.92367000000004
 10
82.4268099999998
 20
-64.96354800000005
 10
82.3584839999998
 20
-64.99707600000005
 10
82.2866019999998
 20
-65.02400000000004
 10
82.21141799999981
 20
-65.04355800000005
 10
82.13343999999981
 20
-65.05575000000005
  0
LWPOLYLINE
  5
38
330
17
100
AcDbEntity
  8
0
100
AcDbPolyline
 90
68
 70
1
 10
84.2233519999998
 20
-73.53833400000005
 10
84.2307179999998
 20
-73.47762800000005
 10
36.6981739999998
 20
-72.96683400000005
 10
37.4662699999998
 20
-75.17942800000006
 10
37.523927999999806
 20
-75.29880800000007
 10
37.5899679999998
 20
-75.41234600000006
 10
37.6641359999998
 20
-75.51953400000006
 10
37.7459239999998
 20
-75.62011800000008
 10
37.834823999999806
 20
-75.71384400000008
 10
37.930327999999804
 20
-75.80045800000008
 10
38.03192799999981
 20
-75.87945200000007
 10
38.1391159999998
 20
-75.95057200000007
 10
38.25163799999981
 20
-76.01331000000008
 10
38.36873199999981
 20
-76.06741200000008
 10
38.490143999999816
 20
-76.11262400000007
 10
38.61536599999981
 20
-76.14869200000007
 10
38.74388999999981
 20
-76.17510800000007
 10
38.87520799999981
 20
-76.19161800000006
 10
70.99960399999982
 20
-76.42656800000007
 10
71.13346199999981
 20
-76.44307800000007
 10
71.26452599999982
 20
-76.46949400000007
 10
71.39228799999981
 20
-76.50556200000007
 10
71.51649399999981
 20
-76.55102800000006
 10
71.6363819999998
 20
-76.60538400000006
 10
71.7514439999998
 20
-76.66837600000005
 10
71.8614259999998
 20
-76.73975000000006
 10
71.9658199999998
 20
-76.81925200000006
 10
72.0641179999998
 20
-76.90637400000006
 10
72.1558119999998
 20
-77.00086200000007
 10
72.2406479999998
 20
-77.10220800000006
 10
72.31786399999979
 20
-77.21015800000006
 10
72.3872059999998
 20
-77.32445800000006
 10
72.4481659999998
 20
-77.44485400000006
 10
74.1923839999998
 20
-82.17662000000007
 10
78.2421599999998
 20
-82.17662000000007
 10
78.3015959999998
 20
-82.10677000000007
 10
78.4852379999998
 20
-81.92287400000008
 10
78.8017219999998
 20
-81.66379400000008
 10
79.2596839999998
 20
-81.36839200000007
 10
79.86750599999979
 20
-81.07527600000007
 10
80.63356999999979
 20
-80.82330800000007
 10
81.56651199999979
 20
-80.65135000000006
 10
82.6747139999998
 20
-80.59826400000007
 10
82.4450979999998
 20
-80.42859200000007
 10
82.2332619999998
 20
-80.24139400000006
 10
82.0392059999998
 20
-80.03819400000006
 10
81.86318399999979
 20
-79.82026200000006
 10
81.7049419999998
 20
-79.58912200000005
 10
81.5644799999998
 20
-79.34604400000005
 10
81.44179799999979
 20
-79.09255200000005
 10
81.2502819999998
 20
-78.56016800000005
 10
81.1303939999998
 20
-78.00314600000006
 10
81.0821339999998
 20
-77.43317000000005
 10
81.1057559999998
 20
-76.86116200000005
 10
81.20125999999979
 20
-76.29880600000004
 10
81.36889999999981
 20
-75.75753200000005
 10
81.4798979999998
 20
-75.49819800000004
 10
81.6089299999998
 20
-75.24851600000005
 10
81.75599599999981
 20
-75.00975600000005
 10
81.92109599999979
 20
-74.78344200000005
 10
82.1042299999998
 20
-74.57084400000005
 10
82.3056519999998
 20
-74.37348600000006
 10
82.52510799999979
 20
-74.19263800000006
 10
82.7625979999998
 20
-74.02982400000005
 10
83.0183759999998
 20
-73.88656800000004
 10
83.2921879999998
 20
-73.76414000000004
 10
83.58428799999979
 20
-73.66406400000004
 10
83.89467599999978
 20
-73.58786400000004
  0
LWPOLYLINE
  5
39
330
17
100
AcDbEntity
  8
0
100
AcDbPolyline
 90
23
 70
1
 10
109.16767599999979
 20
-95.22409200000003
 10
109.20221999999978
 20
-95.59798000000002
 10
109.20425199999978
 20
-95.97390000000001
 10
109.17351799999979
 20
-96.34804200000002
 10
109.11027199999978
 20
-96.71735800000003
 10
109.01451399999978
 20
-97.07829200000002
 10
108.88624399999978
 20
-97.42754200000003
 10
108.72546199999978
 20
-97.76155200000002
 10
108.53191399999979
 20
-98.07702000000003
 10
108.30585399999978
 20
-98.37064400000003
 10
108.0472819999998
 20
-98.63912200000003
 10
107.75619799999978
 20
-98.87889800000004
 10
107.43260199999979
 20
-99.08667000000004
 10
107.0764939999998
 20
-99.25888200000003
 10
106.6878739999998
 20
-99.39248600000003
 10
106.2667419999998
 20
-99.48367200000003
 10
105.8130979999998
 20
-99.52939200000003
 10
107.2573419999998
 20
-100.17836200000004
 10
108.5021959999998
 20
-100.90429400000004
 10
109.5494379999998
 20
-101.65689600000005
 10
110.4016079999998
 20
-102.38562200000005
 10
111.5286059999998
 20
-103.57002400000005
 10
111.9004619999998
 20
-104.05440200000005
  0
LWPOLYLINE
  5
3A
330
17
100
AcDbEntity
  8
0
100
AcDbPolyline
 90
87
 70
1
 10
103.7056599999998
 20
-84.57641200000005
 10
104.0163019999998
 20
-85.13978400000005
 10
104.26598399999979
 20
-85.70468000000005
 10
104.45851599999979
 20
-86.26906800000005
 10
104.5982159999998
 20
-86.83091600000004
 10
104.6888939999998
 20
-87.38819200000005
 10
104.7346139999998
 20
-87.93886400000005
 10
104.7069279999998
 20
-89.01277600000004
 10
104.54741599999981
 20
-90.03614200000005
 10
104.28833599999982
 20
-90.99321400000004
 10
103.96169199999981
 20
-91.86773600000004
 10
103.59948799999982
 20
-92.64370600000004
 10
103.59974199999981
 20
-92.64396000000004
 10
103.5999959999998
 20
-92.64421400000002
 10
103.8070059999998
 20
-92.51975400000002
 10
104.0264619999998
 20
-92.40875600000003
 10
104.2583639999998
 20
-92.31249000000001
 10
104.5029659999998
 20
-92.23171800000001
 10
104.76001399999981
 20
-92.16720200000002
 10
105.0300159999998
 20
-92.11995800000003
 10
105.6083739999998
 20
-92.08109600000002
 10
106.1719999999998
 20
-92.11741800000001
 10
106.4356519999998
 20
-92.161614
 10
106.6873659999998
 20
-92.222066
 10
106.92688799999979
 20
-92.298012
 10
107.1544719999998
 20
-92.388944
 10
107.37011799999979
 20
-92.493846
 10
107.5738259999998
 20
-92.61195599999999
 10
107.7653419999998
 20
-92.74276599999999
 10
107.9449199999998
 20
-92.88525999999999
 10
108.26826199999981
 20
-93.20250599999999
 10
108.5438519999998
 20
-93.557598
 10
108.77168999999981
 20
-93.94444
 10
104.5540199999998
 20
-80.315816
 10
102.72191799999979
 20
-80.365346
 10
102.60533199999979
 20
-80.351122
 10
102.49179399999979
 20
-80.324706
 10
102.38460599999978
 20
-80.28533600000002
 10
102.33456799999978
 20
-80.260444
 10
102.28732399999978
 20
-80.23199600000001
 10
102.24338199999978
 20
-80.19973800000001
 10
102.20299599999979
 20
-80.16367000000001
 10
102.1666739999998
 20
-80.12379200000001
 10
102.1349239999998
 20
-80.07985000000001
 10
102.10825399999979
 20
-80.031844
 10
102.0869179999998
 20
-79.97952
 10
101.42778799999978
 20
-79.97952
 10
95.36810999999977
 20
-80.437228
 10
95.35794999999978
 20
-80.439514
 10
95.34855199999978
 20
-80.44256200000001
 10
95.33966199999978
 20
-80.44662600000001
 10
95.33153399999978
 20
-80.451198
 10
95.32416799999977
 20
-80.45653200000001
 10
95.31730999999978
 20
-80.46262800000001
 10
95.31121399999978
 20
-80.46923200000002
 10
95.30587999999977
 20
-80.47634400000003
 10
95.30105399999978
 20
-80.48371000000002
 10
95.29698999999977
 20
-80.49158400000002
 10
95.29368799999978
 20
-80.49971200000002
 10
95.29114799999978
 20
-80.50809400000001
 10
95.28911599999978
 20
-80.51673000000001
 10
95.28784599999979
 20
-80.52536600000002
 10
95.28733799999978
 20
-80.53400200000002
 10
95.28759199999978
 20
-80.54263800000001
 10
95.28835399999977
 20
-80.551274
 10
95.28987799999976
 20
-80.55991
 10
95.29216399999977
 20
-80.56829200000001
 10
95.29521199999976
 20
-80.57642
 10
95.29876799999977
 20
-80.58429400000001
 10
95.30308599999977
 20
-80.59166
 10
95.30816599999977
 20
-80.598518
 10
95.31400799999977
 20
-80.604868
 10
95.32061199999977
 20
-80.61071
 10
95.32772399999978
 20
-80.61579
 10
95.33559799999978
 20
-80.62036199999999
 10
95.34423399999979
 20
-80.62417199999999
 10
95.35363199999978
 20
-80.626966
 10
95.36379199999978
 20
-80.628998
 10
98.02926799999977
 20
-80.87613999999999
 10
99.27107399999977
 20
-81.13140999999999
 10
100.34701799999978
 20
-81.491074
 10
100.83139599999977
 20
-81.71535599999999
 10
101.28453199999977
 20
-81.97215
 10
101.70998199999977
 20
-82.263488
 10
102.11104799999977
 20
-82.59140199999999
 10
102.49128599999977
 20
-82.95792399999999
 10
103.20248599999978
 20
-83.81568199999998
  0
LWPOLYLINE
  5
3B
330
17
100
AcDbEntity
  8
0
100
AcDbPolyline
 90
26
 70
1
 10
131.7520859999998
 20
-87.67063999999999
 10
132.2976779999998
 20
-88.07957999999999
 10
132.90880199999978
 20
-88.45423
 10
133.6827399999998
 20
-88.82126
 10
134.1160639999998
 20
-88.973406
 10
134.5722479999998
 20
-89.08973800000001
 10
135.04544999999982
 20
-89.158572
 10
135.53008199999982
 20
-89.16873200000002
 10
135.7746839999998
 20
-89.14815800000001
 10
136.01979399999982
 20
-89.10878800000002
 10
136.26490399999983
 20
-89.04884400000002
 10
136.50899799999982
 20
-88.96731000000001
 10
136.75156799999985
 20
-88.86240800000002
 10
136.99185199999985
 20
-88.73286800000001
 10
137.22908799999985
 20
-88.57742
 10
137.46251399999983
 20
-88.39453999999999
 10
137.01725199999981
 20
-89.023952
 10
136.58468999999982
 20
-89.779348
 10
136.12240999999983
 20
-90.80068200000001
 10
135.71321599999982
 20
-92.066872
 10
135.55421199999984
 20
-92.785184
 10
135.4396579999998
 20
-93.55709
 10
135.37971399999984
 20
-94.379542
 10
135.38453999999982
 20
-95.250254
 10
135.46480399999984
 20
-96.166432
 10
135.63066599999985
 20
-97.12553600000001
  0
LWPOLYLINE
  5
3C
330
17
100
AcDbEntity
  8
0
100
AcDbPolyline
 90
26
 70
1
 10
73.82916399999982
 20
-84.44611
 10
75.74940399999983
 20
-84.65286600000002
 10
76.48727399999981
 20
-84.65210400000002
 10
77.22158799999983
 20
-84.59292200000002
 10
77.94878999999983
 20
-84.475828
 10
80.29270199999982
 20
-83.83651000000002
 10
79.71891599999982
 20
-84.18296600000001
 10
79.12252399999981
 20
-84.60790800000001
 10
78.42707199999982
 20
-85.193124
 10
77.71307799999983
 20
-85.93328
 10
77.37424199999982
 20
-86.35974599999999
 10
77.06105999999983
 20
-86.82278799999999
 10
76.78343799999982
 20
-87.32189799999998
 10
76.55153599999981
 20
-87.85631399999998
 10
76.37551399999982
 20
-88.42527399999997
 10
76.26527799999981
 20
-89.02826999999999
 10
76.20507999999981
 20
-88.46337399999999
 10
76.0953519999998
 20
-87.86164799999999
 10
75.9018039999998
 20
-87.13977999999999
 10
75.6015759999998
 20
-86.36761999999997
 10
75.4042179999998
 20
-85.98433399999998
 10
75.1715539999998
 20
-85.61476399999998
 10
74.9005359999998
 20
-85.26729199999998
 10
74.58836999999981
 20
-84.95080799999998
 10
74.2322619999998
 20
-84.673948
 10
74.03693599999981
 20
-84.553044
  0
LWPOLYLINE
  5
3D
330
17
100
AcDbEntity
  8
0
100
AcDbPolyline
 90
21
 70
1
 10
93.7013619999998
 20
-100.03536
 10
94.34067999999981
 20
-99.850702
 10
95.8352159999998
 20
-99.268534
 10
96.70465799999981
 20
-98.815144
 10
97.5497159999998
 20
-98.246692
 10
97.93808199999981
 20
-97.917508
 10
98.2906339999998
 20
-97.55759
 10
98.59746599999981
 20
-97.16643
 10
98.73056199999981
 20
-96.958912
 10
98.84841799999981
 20
-96.743266
 10
98.8034599999998
 20
-97.11918600000001
 10
98.7978719999998
 20
-97.53244400000001
 10
98.84841799999981
 20
-98.04552400000001
 10
98.9053139999998
 20
-98.327718
 10
98.98887999999981
 20
-98.620834
 10
99.10317999999981
 20
-98.91979200000002
 10
99.2525319999998
 20
-99.220274
 10
99.4412539999998
 20
-99.51745400000001
 10
99.6734099999998
 20
-99.80650600000001
 10
99.9533179999998
 20
-100.08285800000002
 10
100.2852959999998
 20
-100.34168400000001
  0
ENDSEC
  0
SECTION
  2
OBJECTS
  0
DICTIONARY
  5
A
330
0
100
AcDbDictionary
281
1
  3
ACAD_COLOR
350
B
  3
ACAD_GROUP
350
C
  3
ACAD_LAYOUT
350
D
  3
ACAD_MATERIAL
350
E
  3
ACAD_MLEADERSTYLE
350
F
  3
ACAD_MLINESTYLE
350
10
  3
ACAD_PLOTSETTINGS
350
11
  3
ACAD_PLOTSTYLENAME
350
12
  3
ACAD_SCALELIST
350
14
  3
ACAD_TABLESTYLE
350
15
  3
ACAD_VISUALSTYLE
350
16
  3
EZDXF_META
350
2D
  0
DICTIONARY
  5
B
330
A
100
AcDbDictionary
281
1
  0
DICTIONARY
  5
C
330
A
100
AcDbDictionary
281
1
  0
DICTIONARY
  5
D
330
A
100
AcDbDictionary
281
1
  3
Model
350
1A
  3
Layout1
350
1E
  0
DICTIONARY
  5
E
330
A
100
AcDbDictionary
281
1
  3
ByBlock
350
1F
  3
ByLayer
350
20
  3
Global
350
21
  0
DICTIONARY
  5
F
330
A
100
AcDbDictionary
281
1
  3
Standard
350
2C
  0
DICTIONARY
  5
10
330
A
100
AcDbDictionary
281
1
  3
Standard
350
22
  0
DICTIONARY
  5
11
330
A
100
AcDbDictionary
281
1
  0
ACDBDICTIONARYWDFLT
  5
12
330
A
100
AcDbDictionary
281
1
  3
Normal
350
13
100
AcDbDictionaryWithDefault
340
13
  0
ACDBPLACEHOLDER
  5
13
330
12
  0
DICTIONARY
  5
14
330
A
100
AcDbDictionary
281
1
  0
DICTIONARY
  5
15
330
A
100
AcDbDictionary
281
1
  0
DICTIONARY
  5
16
330
A
100
AcDbDictionary
281
1
  0
LAYOUT
  5
1A
330
D
100
AcDbPlotSettings
  1

  4
A3
  6

 40
7.5
 41
20.0
 42
7.5
 43
20.0
 44
420.0
 45
297.0
 46
0.0
 47
0.0
 48
0.0
 49
0.0
140
0.0
141
0.0
142
1.0
143
1.0
 70
1024
 72
1
 73
0
 74
5
  7

 75
16
 76
0
 77
2
 78
300
147
1.0
148
0.0
149
0.0
100
AcDbLayout
  1
Model
 70
1
 71
0
 10
0.0
 20
0.0
 11
420.0
 21
297.0
 12
0.0
 22
0.0
 32
0.0
 14
1e+20
 24
1e+20
 34
1e+20
 15
-1e+20
 25
-1e+20
 35
-1e+20
146
0.0
 13
0.0
 23
0.0
 33
0.0
 16
1.0
 26
0.0
 36
0.0
 17
0.0
 27
1.0
 37
0.0
 76
1
330
17
  0
LAYOUT
  5
1E
330
D
100
AcDbPlotSettings
  1

  4
A3
  6

 40
7.5
 41
20.0
 42
7.5
 43
20.0
 44
420.0
 45
297.0
 46
0.0
 47
0.0
 48
0.0
 49
0.0
140
0.0
141
0.0
142
1.0
143
1.0
 70
0
 72
1
 73
0
 74
5
  7

 75
16
 76
0
 77
2
 78
300
147
1.0
148
0.0
149
0.0
100
AcDbLayout
  1
Layout1
 70
1
 71
1
 10
0.0
 20
0.0
 11
420.0
 21
297.0
 12
0.0
 22
0.0
 32
0.0
 14
1e+20
 24
1e+20
 34
1e+20
 15
-1e+20
 25
-1e+20
 35
-1e+20
146
0.0
 13
0.0
 23
0.0
 33
0.0
 16
1.0
 26
0.0
 36
0.0
 17
0.0
 27
1.0
 37
0.0
 76
1
330
1B
  0
MATERIAL
  5
1F
102
{ACAD_REACTORS
330
E
102
}
330
E
100
AcDbMaterial
  1
ByBlock
  2

 70
0
 40
1.0
 71
1
 41
1.0
 91
-1023410177
 42
1.0
 72
1
  3

 73
1
 74
1
 75
1
 44
0.5
 73
0
 45
1.0
 46
1.0
 77
1
  4

 78
1
 79
1
170
1
 48
1.0
171
1
  6

172
1
173
1
174
1
140
1.0
141
1.0
175
1
  7

176
1
177
1
178
1
143
1.0
179
1
  8

270
1
271
1
272
1
145
1.0
146
1.0
273
1
  9

274
1
275
1
276
1
 42
1.0
 72
1
  3

 73
1
 74
1
 75
1
 94
63
  0
MATERIAL
  5
20
102
{ACAD_REACTORS
330
E
102
}
330
E
100
AcDbMaterial
  1
ByLayer
  2

 70
0
 40
1.0
 71
1
 41
1.0
 91
-1023410177
 42
1.0
 72
1
  3

 73
1
 74
1
 75
1
 44
0.5
 73
0
 45
1.0
 46
1.0
 77
1
  4

 78
1
 79
1
170
1
 48
1.0
171
1
  6

172
1
173
1
174
1
140
1.0
141
1.0
175
1
  7

176
1
177
1
178
1
143
1.0
179
1
  8

270
1
271
1
272
1
145
1.0
146
1.0
273
1
  9

274
1
275
1
276
1
 42
1.0
 72
1
  3

 73
1
 74
1
 75
1
 94
63
  0
MATERIAL
  5
21
102
{ACAD_REACTORS
330
E
102
}
330
E
100
AcDbMaterial
  1
Global
  2

 70
0
 40
1.0
 71
1
 41
1.0
 91
-1023410177
 42
1.0
 72
1
  3

 73
1
 74
1
 75
1
 44
0.5
 73
0
 45
1.0
 46
1.0
 77
1
  4

 78
1
 79
1
170
1
 48
1.0
171
1
  6

172
1
173
1
174
1
140
1.0
141
1.0
175
1
  7

176
1
177
1
178
1
143
1.0
179
1
  8

270
1
271
1
272
1
145
1.0
146
1.0
273
1
  9

274
1
275
1
276
1
 42
1.0
 72
1
  3

 73
1
 74
1
 75
1
 94
63
  0
MLINESTYLE
  5
22
102
{ACAD_REACTORS
330
10
102
}
330
10
100
AcDbMlineStyle
  2
Standard
 70
0
  3

 62
256
 51
90.0
 52
90.0
 71
2
 49
0.5
 62
256
  6
BYLAYER
 49
-0.5
 62
256
  6
BYLAYER
  0
MLEADERSTYLE
  5
2C
102
{ACAD_REACTORS
330
F
102
}
330
F
100
AcDbMLeaderStyle
179
2
170
2
171
1
172
0
 90
2
 40
0.0
 41
0.0
173
1
 91
-1056964608
 92
-2
290
1
 42
2.0
291
1
 43
8.0
  3
Standard
 44
4.0
300

342
29
174
1
175
1
176
0
178
1
 93
-1056964608
 45
4.0
292
0
297
0
 46
4.0
 94
-1056964608
 47
1.0
 49
1.0
140
1.0
294
1
141
0.0
177
0
142
1.0
295
0
296
0
143
3.75
271
0
272
9
273
9
  0
DICTIONARY
  5
2D
330
A
100
AcDbDictionary
280
1
281
1
  3
CREATED_BY_EZDXF
350
2E
  3
WRITTEN_BY_EZDXF
350
40
  0
DICTIONARYVAR
  5
2E
330
2D
100
DictionaryVariables
280
0
  1
1.4.3 @ 2026-04-12T00:41:29.701517+00:00
  0
DICTIONARYVAR
  5
40
330
2D
100
DictionaryVariables
280
0
  1
1.4.3 @ 2026-04-12T00:41:29.703756+00:00
  0
ENDSEC
  0
EOF
