  0
SECTION
  2
HEADER
  9
$ACADVER
  1
AC1024
  9
$ACADMAINTVER
 70
6
  9
$DWGCODEPAGE
  3
ANSI_1252
  9
$LASTSAVEDBY
  1
ezdxf
  9
$INSBASE
 10
0.0
 20
0.0
 30
0.0
  9
$EXTMIN
 10
1e+20
 20
1e+20
 30
1e+20
  9
$EXTMAX
 10
-1e+20
 20
-1e+20
 30
-1e+20
  9
$LIMMIN
 10
0.0
 20
0.0
  9
$LIMMAX
 10
420.0
 20
297.0
  9
$ORTHOMODE
 70
0
  9
$REGENMODE
 70
1
  9
$FILLMODE
 70
1
  9
$QTEXTMODE
 70
0
  9
$MIRRTEXT
 70
1
  9
$LTSCALE
 40
1.0
  9
$ATTMODE
 70
1
  9
$TEXTSIZE
 40
2.5
  9
$TRACEWID
 40
1.0
  9
$TEXTSTYLE
  7
Standard
  9
$CLAYER
  8
0
  9
$CELTYPE
  6
ByLayer
  9
$CECOLOR
 62
256
  9
$CELTSCALE
 40
1.0
  9
$DISPSILH
 70
0
  9
$DIMSCALE
 40
1.0
  9
$DIMASZ
 40
2.5
  9
$DIMEXO
 40
0.625
  9
$DIMDLI
 40
3.75
  9
$DIMRND
 40
0.0
  9
$DIMDLE
 40
0.0
  9
$DIMEXE
 40
1.25
  9
$DIMTP
 40
0.0
  9
$DIMTM
 40
0.0
  9
$DIMTXT
 40
2.5
  9
$DIMCEN
 40
2.5
  9
$DIMTSZ
 40
0.0
  9
$DIMTOL
 70
0
  9
$DIMLIM
 70
0
  9
$DIMTIH
 70
0
  9
$DIMTOH
 70
0
  9
$DIMSE1
 70
0
  9
$DIMSE2
 70
0
  9
$DIMTAD
 70
1
  9
$DIMZIN
 70
8
  9
$DIMBLK
  1

  9
$DIMASO
 70
1
  9
$DIMSHO
 70
1
  9
$DIMPOST
  1

  9
$DIMAPOST
  1

  9
$DIMALT
 70
0
  9
$DIMALTD
 70
3
  9
$DIMALTF
 40
0.03937007874
  9
$DIMLFAC
 40
1.0
  9
$DIMTOFL
 70
1
  9
$DIMTVP
 40
0.0
  9
$DIMTIX
 70
0
  9
$DIMSOXD
 70
0
  9
$DIMSAH
 70
0
  9
$DIMBLK1
  1

  9
$DIMBLK2
  1

  9
$DIMSTYLE
  2
ISO-25
  9
$DIMCLRD
 70
0
  9
$DIMCLRE
 70
0
  9
$DIMCLRT
 70
0
  9
$DIMTFAC
 40
1.0
  9
$DIMGAP
 40
0.625
  9
$DIMJUST
 70
0
  9
$DIMSD1
 70
0
  9
$DIMSD2
 70
0
  9
$DIMTOLJ
 70
0
  9
$DIMTZIN
 70
8
  9
$DIMALTZ
 70
0
  9
$DIMALTTZ
 70
0
  9
$DIMUPT
 70
0
  9
$DIMDEC
 70
2
  9
$DIMTDEC
 70
2
  9
$DIMALTU
 70
2
  9
$DIMALTTD
 70
3
  9
$DIMTXSTY
  7
Standard
  9
$DIMAUNIT
 70
0
  9
$DIMADEC
 70
0
  9
$DIMALTRND
 40
0.0
  9
$DIMAZIN
 70
0
  9
$DIMDSEP
 70
44
  9
$DIMATFIT
 70
3
  9
$DIMFRAC
 70
0
  9
$DIMLDRBLK
  1

  9
$DIMLUNIT
 70
2
  9
$DIMLWD
 70
-2
  9
$DIMLWE
 70
-2
  9
$DIMTMOVE
 70
0
  9
$DIMFXL
 40
1.0
  9
$DIMFXLON
 70
0
  9
$DIMJOGANG
 40
0.785398163397
  9
$DIMTFILL
 70
0
  9
$DIMTFILLCLR
 70
0
  9
$DIMARCSYM
 70
0
  9
$DIMLTYPE
  6

  9
$DIMLTEX1
  6

  9
$DIMLTEX2
  6

  9
$DIMTXTDIRECTION
 70
0
  9
$LUNITS
 70
2
  9
$LUPREC
 70
4
  9
$SKETCHINC
 40
1.0
  9
$FILLETRAD
 40
10.0
  9
$AUNITS
 70
0
  9
$AUPREC
 70
2
  9
$MENU
  1
.
  9
$ELEVATION
 40
0.0
  9
$PELEVATION
 40
0.0
  9
$THICKNESS
 40
0.0
  9
$LIMCHECK
 70
0
  9
$CHAMFERA
 40
0.0
  9
$CHAMFERB
 40
0.0
  9
$CHAMFERC
 40
0.0
  9
$CHAMFERD
 40
0.0
  9
$SKPOLY
 70
0
  9
$TDCREATE
 40
2461142.7371527776
  9
$TDUCREATE
 40
2458532.153996898
  9
$TDUPDATE
 40
2461142.7371527776
  9
$TDUUPDATE
 40
2458532.1544311
  9
$TDINDWG
 40
0.0
  9
$TDUSRTIMER
 40
0.0
  9
$USRTIMER
 70
1
  9
$ANGBASE
 50
0.0
  9
$ANGDIR
 70
0
  9
$PDMODE
 70
0
  9
$PDSIZE
 40
0.0
  9
$PLINEWID
 40
0.0
  9
$SPLFRAME
 70
0
  9
$SPLINETYPE
 70
6
  9
$SPLINESEGS
 70
8
  9
$HANDSEED
  5
42
  9
$SURFTAB1
 70
6
  9
$SURFTAB2
 70
6
  9
$SURFTYPE
 70
6
  9
$SURFU
 70
6
  9
$SURFV
 70
6
  9
$UCSBASE
  2

  9
$UCSNAME
  2

  9
$UCSORG
 10
0.0
 20
0.0
 30
0.0
  9
$UCSXDIR
 10
1.0
 20
0.0
 30
0.0
  9
$UCSYDIR
 10
0.0
 20
1.0
 30
0.0
  9
$UCSORTHOREF
  2

  9
$UCSORTHOVIEW
 70
0
  9
$UCSORGTOP
 10
0.0
 20
0.0
 30
0.0
  9
$UCSORGBOTTOM
 10
0.0
 20
0.0
 30
0.0
  9
$UCSORGLEFT
 10
0.0
 20
0.0
 30
0.0
  9
$UCSORGRIGHT
 10
0.0
 20
0.0
 30
0.0
  9
$UCSORGFRONT
 10
0.0
 20
0.0
 30
0.0
  9
$UCSORGBACK
 10
0.0
 20
0.0
 30
0.0
  9
$PUCSBASE
  2

  9
$PUCSNAME
  2

  9
$PUCSORG
 10
0.0
 20
0.0
 30
0.0
  9
$PUCSXDIR
 10
1.0
 20
0.0
 30
0.0
  9
$PUCSYDIR
 10
0.0
 20
1.0
 30
0.0
  9
$PUCSORTHOREF
  2

  9
$PUCSORTHOVIEW
 70
0
  9
$PUCSORGTOP
 10
0.0
 20
0.0
 30
0.0
  9
$PUCSORGBOTTOM
 10
0.0
 20
0.0
 30
0.0
  9
$PUCSORGLEFT
 10
0.0
 20
0.0
 30
0.0
  9
$PUCSORGRIGHT
 10
0.0
 20
0.0
 30
0.0
  9
$PUCSORGFRONT
 10
0.0
 20
0.0
 30
0.0
  9
$PUCSORGBACK
 10
0.0
 20
0.0
 30
0.0
  9
$USERI1
 70
0
  9
$USERI2
 70
0
  9
$USERI3
 70
0
  9
$USERI4
 70
0
  9
$USERI5
 70
0
  9
$USERR1
 40
0.0
  9
$USERR2
 40
0.0
  9
$USERR3
 40
0.0
  9
$USERR4
 40
0.0
  9
$USERR5
 40
0.0
  9
$WORLDVIEW
 70
1
  9
$SHADEDGE
 70
3
  9
$SHADEDIF
 70
70
  9
$TILEMODE
 70
1
  9
$MAXACTVP
 70
64
  9
$PINSBASE
 10
0.0
 20
0.0
 30
0.0
  9
$PLIMCHECK
 70
0
  9
$PEXTMIN
 10
1e+20
 20
1e+20
 30
1e+20
  9
$PEXTMAX
 10
-1e+20
 20
-1e+20
 30
-1e+20
  9
$PLIMMIN
 10
0.0
 20
0.0
  9
$PLIMMAX
 10
420.0
 20
297.0
  9
$UNITMODE
 70
0
  9
$VISRETAIN
 70
1
  9
$PLINEGEN
 70
0
  9
$PSLTSCALE
 70
1
  9
$TREEDEPTH
 70
3020
  9
$CMLSTYLE
  2
Standard
  9
$CMLJUST
 70
0
  9
$CMLSCALE
 40
20.0
  9
$PROXYGRAPHICS
 70
1
  9
$MEASUREMENT
 70
1
  9
$CELWEIGHT
370
-1
  9
$ENDCAPS
280
0
  9
$JOINSTYLE
280
0
  9
$LWDISPLAY
290
0
  9
$INSUNITS
 70
4
  9
$HYPERLINKBASE
  1

  9
$STYLESHEET
  1

  9
$XEDIT
290
1
  9
$CEPSNTYPE
380
0
  9
$PSTYLEMODE
290
1
  9
$FINGERPRINTGUID
  2
{EFF5ABCF-F4D2-4315-A826-5C398D82F51C}
  9
$VERSIONGUID
  2
{C5AF6B32-389C-4DFC-A92B-BC92036C9DAA}
  9
$EXTNAMES
290
1
  9
$PSVPSCALE
 40
0.0
  9
$OLESTARTUP
290
0
  9
$SORTENTS
280
127
  9
$INDEXCTL
280
0
  9
$HIDETEXT
280
1
  9
$XCLIPFRAME
280
1
  9
$HALOGAP
280
0
  9
$OBSCOLOR
 70
257
  9
$OBSLTYPE
280
0
  9
$INTERSECTIONDISPLAY
280
0
  9
$INTERSECTIONCOLOR
 70
257
  9
$DIMASSOC
280
2
  9
$PROJECTNAME
  1

  9
$CAMERADISPLAY
290
0
  9
$LENSLENGTH
 40
50.0
  9
$CAMERAHEIGHT
 40
0.0
  9
$STEPSPERSEC
 40
24.0
  9
$STEPSIZE
 40
100.0
  9
$3DDWFPREC
 40
2.0
  9
$PSOLWIDTH
 40
0.005
  9
$PSOLHEIGHT
 40
0.08
  9
$LOFTANG1
 40
1.570796326795
  9
$LOFTANG2
 40
1.570796326795
  9
$LOFTMAG1
 40
0.0
  9
$LOFTMAG2
 40
0.0
  9
$LOFTPARAM
 70
7
  9
$LOFTNORMALS
280
1
  9
$LATITUDE
 40
37.795
  9
$LONGITUDE
 40
-122.394
  9
$NORTHDIRECTION
 40
0.0
  9
$TIMEZONE
 70
-8000
  9
$LIGHTGLYPHDISPLAY
280
1
  9
$TILEMODELIGHTSYNCH
280
1
  9
$CMATERIAL
347
20
  9
$SOLIDHIST
280
0
  9
$SHOWHIST
280
1
  9
$DWFFRAME
280
2
  9
$DGNFRAME
280
2
  9
$REALWORLDSCALE
290
1
  9
$INTERFERECOLOR
 62
256
  9
$CSHADOW
280
0
  9
$SHADOWPLANELOCATION
 40
0.0
  0
ENDSEC
  0
SECTION
  2
CLASSES
  0
CLASS
  1
ACDBDICTIONARYWDFLT
  2
AcDbDictionaryWithDefault
  3
ObjectDBX Classes
 90
0
 91
0
280
0
281
0
  0
CLASS
  1
SUN
  2
AcDbSun
  3
SCENEOE
 90
1153
 91
0
280
0
281
0
  0
CLASS
  1
VISUALSTYLE
  2
AcDbVisualStyle
  3
ObjectDBX Classes
 90
4095
 91
0
280
0
281
0
  0
CLASS
  1
MATERIAL
  2
AcDbMaterial
  3
ObjectDBX Classes
 90
1153
 91
0
280
0
281
0
  0
CLASS
  1
SCALE
  2
AcDbScale
  3
ObjectDBX Classes
 90
1153
 91
0
280
0
281
0
  0
CLASS
  1
TABLESTYLE
  2
AcDbTableStyle
  3
ObjectDBX Classes
 90
4095
 91
0
280
0
281
0
  0
CLASS
  1
MLEADERSTYLE
  2
AcDbMLeaderStyle
  3
ACDB_MLEADERSTYLE_CLASS
 90
4095
 91
0
280
0
281
0
  0
CLASS
  1
DICTIONARYVAR
  2
AcDbDictionaryVar
  3
ObjectDBX Classes
 90
0
 91
0
280
0
281
0
  0
CLASS
  1
CELLSTYLEMAP
  2
AcDbCellStyleMap
  3
ObjectDBX Classes
 90
1152
 91
0
280
0
281
0
  0
CLASS
  1
MENTALRAYRENDERSETTINGS
  2
AcDbMentalRayRenderSettings
  3
SCENEOE
 90
1024
 91
0
280
0
281
0
  0
CLASS
  1
ACDBDETAILVIEWSTYLE
  2
AcDbDetailViewStyle
  3
ObjectDBX Classes
 90
1025
 91
0
280
0
281
0
  0
CLASS
  1
ACDBSECTIONVIEWSTYLE
  2
AcDbSectionViewStyle
  3
ObjectDBX Classes
 90
1025
 91
0
280
0
281
0
  0
CLASS
  1
RASTERVARIABLES
  2
AcDbRasterVariables
  3
ISM
 90
0
 91
0
280
0
281
0
  0
CLASS
  1
ACDBPLACEHOLDER
  2
AcDbPlaceHolder
  3
ObjectDBX Classes
 90
0
 91
0
280
0
281
0
  0
CLASS
  1
LAYOUT
  2
AcDbLayout
  3
ObjectDBX Classes
 90
0
 91
0
280
0
281
0
  0
ENDSEC
  0
SECTION
  2
TABLES
  0
TABLE
  2
VPORT
  5
8
330
0
100
AcDbSymbolTable
 70
1
  0
VPORT
  5
23
330
8
100
AcDbSymbolTableRecord
100
AcDbViewportTableRecord
  2
*Active
 70
0
 10
0.0
 20
0.0
 11
1.0
 21
1.0
 12
0.0
 22
0.0
 13
0.0
 23
0.0
 14
0.5
 24
0.5
 15
0.5
 25
0.5
 16
0.0
 26
0.0
 36
1.0
 17
0.0
 27
0.0
 37
0.0
 40
1000.0
 41
1.34
 42
50.0
 43
0.0
 44
0.0
 50
0.0
 51
0.0
 71
0
 72
1000
 73
1
 74
3
 75
0
 76
0
 77
0
 78
0
281
0
 65
0
146
0.0
  0
ENDTAB
  0
TABLE
  2
LTYPE
  5
2
330
0
100
AcDbSymbolTable
 70
3
  0
LTYPE
  5
24
330
2
100
AcDbSymbolTableRecord
100
AcDbLinetypeTableRecord
  2
ByBlock
 70
0
  3

 72
65
 73
0
 40
0.0
  0
LTYPE
  5
25
330
2
100
AcDbSymbolTableRecord
100
AcDbLinetypeTableRecord
  2
ByLayer
 70
0
  3

 72
65
 73
0
 40
0.0
  0
LTYPE
  5
26
330
2
100
AcDbSymbolTableRecord
100
AcDbLinetypeTableRecord
  2
Continuous
 70
0
  3

 72
65
 73
0
 40
0.0
  0
ENDTAB
  0
TABLE
  2
LAYER
  5
1
330
0
100
AcDbSymbolTable
 70
2
  0
LAYER
  5
27
330
1
100
AcDbSymbolTableRecord
100
AcDbLayerTableRecord
  2
0
 70
0
 62
7
  6
Continuous
370
-3
390
13
347
21
  0
LAYER
  5
28
330
1
100
AcDbSymbolTableRecord
100
AcDbLayerTableRecord
  2
Defpoints
 70
0
 62
7
  6
Continuous
290
0
370
-3
390
13
347
21
  0
ENDTAB
  0
TABLE
  2
STYLE
  5
5
330
0
100
AcDbSymbolTable
 70
1
  0
STYLE
  5
29
330
5
100
AcDbSymbolTableRecord
100
AcDbTextStyleTableRecord
  2
Standard
 70
0
 40
0.0
 41
1.0
 50
0.0
 71
0
 42
2.5
  3
txt
  4

  0
ENDTAB
  0
TABLE
  2
VIEW
  5
7
330
0
100
AcDbSymbolTable
 70
0
  0
ENDTAB
  0
TABLE
  2
UCS
  5
6
330
0
100
AcDbSymbolTable
 70
0
  0
ENDTAB
  0
TABLE
  2
APPID
  5
3
330
0
100
AcDbSymbolTable
 70
3
  0
APPID
  5
2A
330
3
100
AcDbSymbolTableRecord
100
AcDbRegAppTableRecord
  2
ACAD
 70
0
  0
APPID
  5
3F
330
3
100
AcDbSymbolTableRecord
100
AcDbRegAppTableRecord
  2
HATCHBACKGROUNDCOLOR
 70
0
  0
APPID
  5
40
330
3
100
AcDbSymbolTableRecord
100
AcDbRegAppTableRecord
  2
EZDXF
 70
0
  0
ENDTAB
  0
TABLE
  2
DIMSTYLE
  5
4
330
0
100
AcDbSymbolTable
 70
1
100
AcDbDimStyleTable
  0
DIMSTYLE
105
2B
330
4
100
AcDbSymbolTableRecord
100
AcDbDimStyleTableRecord
  2
Standard
 70
0
 40
1.0
 41
2.5
 42
0.625
 43
3.75
 44
1.25
 45
0.0
 46
0.0
 47
0.0
 48
0.0
 49
2.5
140
2.5
141
2.5
142
0.0
143
0.03937007874
144
1.0
145
0.0
146
1.0
147
0.625
148
0.0
 69
0
 70
0
 71
0
 72
0
 73
0
 74
0
 75
0
 76
0
 77
1
 78
8
 79
3
170
0
171
3
172
1
173
0
174
0
175
0
176
0
177
0
178
0
179
2
271
2
272
2
273
2
274
3
275
0
276
0
277
2
278
44
279
0
280
0
281
0
282
0
283
0
284
8
285
0
286
0
288
0
289
3
290
0
371
-2
372
-2
  0
ENDTAB
  0
TABLE
  2
BLOCK_RECORD
  5
9
330
0
100
AcDbSymbolTable
 70
2
  0
BLOCK_RECORD
  5
17
330
9
100
AcDbSymbolTableRecord
100
AcDbBlockTableRecord
  2
*Model_Space
340
1A
 70
0
280
1
281
0
  0
BLOCK_RECORD
  5
1B
330
9
100
AcDbSymbolTableRecord
100
AcDbBlockTableRecord
  2
*Paper_Space
340
1E
 70
0
280
1
281
0
  0
ENDTAB
  0
ENDSEC
  0
SECTION
  2
BLOCKS
  0
BLOCK
  5
18
330
17
100
AcDbEntity
  8
0
100
AcDbBlockBegin
  2
*Model_Space
 70
0
 10
0.0
 20
0.0
 30
0.0
  3
*Model_Space
  1

  0
ENDBLK
  5
19
330
17
100
AcDbEntity
  8
0
100
AcDbBlockEnd
  0
BLOCK
  5
1C
330
1B
100
AcDbEntity
  8
0
100
AcDbBlockBegin
  2
*Paper_Space
 70
0
 10
0.0
 20
0.0
 30
0.0
  3
*Paper_Space
  1

  0
ENDBLK
  5
1D
330
1B
100
AcDbEntity
  8
0
100
AcDbBlockEnd
  0
ENDSEC
  0
SECTION
  2
ENTITIES
  0
LWPOLYLINE
  5
2F
330
17
100
AcDbEntity
  8
0
100
AcDbPolyline
 90
31
 70
1
 10
209.65541
 20
-74.28611
 10
206.09483799999998
 20
-73.094596
 10
201.02601399999998
 20
-71.95794599999999
 10
198.18451599999997
 20
-71.68133999999999
 10
195.27647
 20
-71.74356999999999
 10
193.82968599999998
 20
-71.935594
 10
192.40499999999997
 20
-72.25309399999999
 10
191.01536599999997
 20
-72.709532
 10
189.67373799999996
 20
-73.318624
 10
166.43400799999995
 20
-127.602996
 10
167.64787399999997
 20
-130.740912
 10
168.98975599999997
 20
-133.39241800000002
 10
169.79315799999998
 20
-134.618222
 10
170.22165599999997
 20
-135.15975
 10
170.66539399999996
 20
-135.636254
 10
190.17513399999996
 20
-138.887962
 10
210.28456799999995
 20
-75.42149
 10
210.30006199999997
 20
-75.32598600000001
 10
210.30615799999995
 20
-75.23073600000001
 10
210.30310999999998
 20
-75.13650200000001
 10
210.291172
 20
-75.04379200000001
 10
210.27059799999998
 20
-74.953114
 10
210.24164199999996
 20
-74.86497600000001
 10
210.20481199999998
 20
-74.78014
 10
210.16010799999995
 20
-74.69911400000001
 10
210.10803799999994
 20
-74.622406
 10
210.04885599999997
 20
-74.550524
 10
209.98281599999996
 20
-74.48422999999998
 10
209.910172
 20
-74.42403199999998
 10
209.83117799999997
 20
-74.37043799999998
 10
209.74608799999996
 20
-74.32420999999998
  0
LWPOLYLINE
  5
30
330
17
100
AcDbEntity
  8
0
100
AcDbPolyline
 90
64
 70
1
 10
195.190364
 20
-80.04149599999998
 10
195.20280999999997
 20
-80.29041599999998
 10
195.23963999999995
 20
-80.53222399999999
 10
195.29958399999995
 20
-80.76564999999998
 10
195.38137199999997
 20
-80.98942399999997
 10
195.48398799999995
 20
-81.20227599999998
 10
195.60590799999997
 20
-81.40318999999998
 10
195.74611599999997
 20
-81.59064199999997
 10
195.90334199999998
 20
-81.76361599999997
 10
196.076316
 20
-81.92084199999998
 10
196.263768
 20
-82.06104999999998
 10
196.464682
 20
-82.18296999999998
 10
196.677534
 20
-82.28558599999998
 10
196.901308
 20
-82.36737399999998
 10
197.134734
 20
-82.42731799999999
 10
197.376542
 20
-82.46414799999998
 10
197.62571599999998
 20
-82.47684799999999
 10
197.874636
 20
-82.46414799999998
 10
198.116444
 20
-82.42731799999999
 10
198.34987
 20
-82.36737399999998
 10
198.573644
 20
-82.28558599999998
 10
198.78649599999997
 20
-82.18296999999998
 10
198.98740999999998
 20
-82.06104999999998
 10
199.17486200000002
 20
-81.92084199999998
 10
199.34783600000003
 20
-81.76361599999997
 10
199.50506200000004
 20
-81.59064199999997
 10
199.64527000000004
 20
-81.40318999999998
 10
199.76719000000003
 20
-81.20227599999998
 10
199.86980600000004
 20
-80.98942399999997
 10
199.95184800000004
 20
-80.76564999999998
 10
200.011792
 20
-80.53222399999999
 10
200.04862200000002
 20
-80.29041599999998
 10
200.061068
 20
-80.04149599999998
 10
200.04862200000002
 20
-79.79257599999997
 10
200.011792
 20
-79.55076799999998
 10
199.95184800000004
 20
-79.31734199999998
 10
199.86980600000004
 20
-79.09356799999999
 10
199.76719000000003
 20
-78.88071599999998
 10
199.64527000000004
 20
-78.67980199999998
 10
199.50506200000004
 20
-78.49234999999999
 10
199.34783600000003
 20
-78.31937599999999
 10
199.17486200000002
 20
-78.16214999999998
 10
198.98740999999998
 20
-78.02194199999997
 10
198.78649599999997
 20
-77.90002199999996
 10
198.573644
 20
-77.79740599999997
 10
198.34987
 20
-77.71561799999996
 10
198.116444
 20
-77.65567399999998
 10
197.874636
 20
-77.61884399999998
 10
197.62571599999998
 20
-77.60639799999998
 10
197.376542
 20
-77.61884399999998
 10
197.134734
 20
-77.65567399999998
 10
196.901308
 20
-77.71561799999996
 10
196.677534
 20
-77.79740599999997
 10
196.464682
 20
-77.90002199999996
 10
196.263768
 20
-78.02194199999997
 10
196.076316
 20
-78.16214999999998
 10
195.90334199999998
 20
-78.31937599999999
 10
195.74611599999997
 20
-78.49234999999999
 10
195.60590799999997
 20
-78.67980199999998
 10
195.48398799999995
 20
-78.88071599999998
 10
195.38137199999997
 20
-79.09356799999999
 10
195.29958399999995
 20
-79.31734199999998
 10
195.23963999999995
 20
-79.55076799999998
 10
195.20280999999997
 20
-79.79257599999997
  0
LWPOLYLINE
  5
31
330
17
100
AcDbEntity
  8
0
100
AcDbPolyline
 90
64
 70
1
 10
177.38623399999997
 20
-129.06273399999998
 10
177.39766399999996
 20
-129.29133399999998
 10
177.43144599999997
 20
-129.51333
 10
177.48656399999996
 20
-129.727452
 10
177.56174799999997
 20
-129.932938
 10
177.65598199999997
 20
-130.12826399999997
 10
177.76799599999998
 20
-130.31266799999997
 10
177.89677399999997
 20
-130.484626
 10
178.04104599999997
 20
-130.643376
 10
178.19979599999996
 20
-130.787648
 10
178.37175399999998
 20
-130.91642599999997
 10
178.55615799999995
 20
-131.02844
 10
178.75148399999998
 20
-131.12267399999996
 10
178.95696999999996
 20
-131.197858
 10
179.17109199999996
 20
-131.252976
 10
179.39308799999995
 20
-131.286758
 10
179.62168799999995
 20
-131.29818799999998
 10
179.85028799999995
 20
-131.286758
 10
180.07228399999994
 20
-131.252976
 10
180.28640599999994
 20
-131.197858
 10
180.49189199999992
 20
-131.12267399999996
 10
180.68721799999994
 20
-131.02844
 10
180.87162199999995
 20
-130.91642599999997
 10
181.04357999999993
 20
-130.787648
 10
181.20232999999993
 20
-130.643376
 10
181.34660199999993
 20
-130.484626
 10
181.47537999999992
 20
-130.31266799999997
 10
181.58739399999993
 20
-130.12826399999997
 10
181.68162799999993
 20
-129.93293799999998
 10
181.75681199999994
 20
-129.72745199999997
 10
181.81192999999993
 20
-129.51332999999997
 10
181.84571199999993
 20
-129.29133399999995
 10
181.85714199999993
 20
-129.06273399999998
 10
181.84571199999993
 20
-128.83413399999998
 10
181.81192999999993
 20
-128.61213799999996
 10
181.75681199999994
 20
-128.39801599999996
 10
181.68162799999993
 20
-128.19252999999995
 10
181.58739399999993
 20
-127.99720399999995
 10
181.47537999999992
 20
-127.81279999999995
 10
181.34660199999993
 20
-127.64084199999995
 10
181.20232999999993
 20
-127.48209199999995
 10
181.04357999999993
 20
-127.33781999999995
 10
180.87162199999995
 20
-127.20904199999995
 10
180.68721799999994
 20
-127.09702799999997
 10
180.49189199999992
 20
-127.00279399999997
 10
180.28640599999994
 20
-126.92760999999997
 10
180.07228399999994
 20
-126.87249199999997
 10
179.85028799999995
 20
-126.83870999999998
 10
179.62168799999995
 20
-126.82727999999997
 10
179.39308799999995
 20
-126.83870999999998
 10
179.17109199999996
 20
-126.87249199999997
 10
178.95696999999996
 20
-126.92760999999997
 10
178.75148399999998
 20
-127.00279399999997
 10
178.55615799999995
 20
-127.09702799999997
 10
178.37175399999998
 20
-127.20904199999995
 10
178.19979599999996
 20
-127.33781999999995
 10
178.04104599999997
 20
-127.48209199999995
 10
177.89677399999997
 20
-127.64084199999995
 10
177.76799599999998
 20
-127.81279999999995
 10
177.65598199999997
 20
-127.99720399999995
 10
177.56174799999997
 20
-128.19252999999995
 10
177.48656399999996
 20
-128.39801599999996
 10
177.43144599999997
 20
-128.61213799999996
 10
177.39766399999996
 20
-128.83413399999998
  0
LWPOLYLINE
  5
32
330
17
100
AcDbEntity
  8
0
100
AcDbPolyline
 90
2
 70
0
 10
170.66564799999998
 20
-135.63599999999997
 10
171.94072799999998
 20
-133.04596199999997
  0
LWPOLYLINE
  5
33
330
17
100
AcDbEntity
  8
0
100
AcDbPolyline
 90
38
 70
1
 10
298.598082
 20
-60.375291999999966
 10
242.43715799999998
 20
-60.39611999999997
 10
242.33454199999997
 20
-60.58941399999996
 10
242.21567
 20
-60.77305599999997
 10
242.08028799999997
 20
-60.945013999999965
 10
241.92814199999995
 20
-61.10401799999997
 10
294.653208
 20
-60.92012199999997
 10
298.60900399999997
 20
-60.48400399999996
 10
298.614846
 20
-60.48247999999997
 10
298.62017999999995
 20
-60.48044799999996
 10
298.62525999999997
 20
-60.477907999999964
 10
298.62983199999996
 20
-60.47511399999997
 10
298.633896
 20
-60.471811999999964
 10
298.63770600000004
 20
-60.46825599999996
 10
298.641008
 20
-60.46444599999997
 10
298.643802
 20
-60.46038199999997
 10
298.646342
 20
-60.45606399999997
 10
298.648374
 20
-60.451491999999966
 10
298.649898
 20
-60.44691999999997
 10
298.65116800000004
 20
-60.44209399999997
 10
298.65193000000005
 20
-60.43726799999997
 10
298.652438
 20
-60.432441999999966
 10
298.652438
 20
-60.42736199999996
 10
298.65193000000005
 20
-60.42253599999996
 10
298.65116800000004
 20
-60.41770999999996
 10
298.649898
 20
-60.412883999999956
 10
298.648374
 20
-60.40831199999996
 10
298.646342
 20
-60.40373999999996
 10
298.643802
 20
-60.39942199999996
 10
298.641008
 20
-60.39535799999996
 10
298.63770600000004
 20
-60.391547999999965
 10
298.63415000000003
 20
-60.38799199999996
 10
298.630086
 20
-60.38494399999996
 10
298.625768
 20
-60.38214999999996
 10
298.620942
 20
-60.37986399999997
 10
298.615862
 20
-60.37808599999997
 10
298.610274
 20
-60.376561999999964
 10
298.60443200000003
 20
-60.37579999999997
  0
LWPOLYLINE
  5
34
330
17
100
AcDbEntity
  8
0
100
AcDbPolyline
 90
249
 70
1
 10
177.76774200000003
 20
-69.38721199999998
 10
177.504344
 20
-70.20585399999997
 10
177.172874
 20
-70.94143799999998
 10
176.78298400000003
 20
-71.59853599999998
 10
176.34381800000003
 20
-72.18171999999997
 10
175.864774
 20
-72.69581599999998
 10
175.35525000000004
 20
-73.14539599999996
 10
174.824644
 20
-73.53528599999997
 10
174.28235400000003
 20
-73.87005799999997
 10
174.48047400000002
 20
-73.93482799999997
 10
174.666402
 20
-74.01407599999997
 10
174.84039199999998
 20
-74.10729399999998
 10
175.002444
 20
-74.21321199999997
 10
175.15230400000002
 20
-74.33106799999997
 10
175.29022600000002
 20
-74.45984599999997
 10
175.41595600000002
 20
-74.59878399999998
 10
175.529748
 20
-74.74686599999998
 10
175.631602
 20
-74.90307599999998
 10
175.721264
 20
-75.06665199999999
 10
175.79898799999998
 20
-75.23657799999998
 10
175.918368
 20
-75.59217799999998
 10
175.989488
 20
-75.96225599999998
 10
176.012602
 20
-76.33969999999998
 10
175.98771
 20
-76.71688999999998
 10
175.914558
 20
-77.08671399999999
 10
175.79340000000002
 20
-77.44155199999999
 10
175.71466
 20
-77.61122399999998
 10
175.62398200000004
 20
-77.77429199999999
 10
175.52136600000003
 20
-77.92999399999998
 10
175.40681200000003
 20
-78.07756799999999
 10
175.280066
 20
-78.21574399999999
 10
175.141382
 20
-78.34375999999999
 10
174.99076000000002
 20
-78.46085399999998
 10
174.82794600000003
 20
-78.56600999999999
 10
174.65319400000004
 20
-78.65821199999999
 10
175.57318200000003
 20
-79.22386999999998
 10
176.40071400000002
 20
-79.84693199999997
 10
177.14010800000003
 20
-80.52053999999997
 10
177.79619
 20
-81.23758199999996
 10
178.37327800000003
 20
-81.99119999999996
 10
178.87594400000003
 20
-82.77402799999996
 10
179.30876
 20
-83.57946199999996
 10
179.98313000000002
 20
-85.22944599999995
 10
180.43220200000002
 20
-86.88501799999995
 10
180.692044
 20
-88.49029799999994
 10
180.807868
 20
-90.72930799999995
 10
180.81371000000004
 20
-90.77528199999993
 10
180.82336200000003
 20
-90.81896999999995
 10
180.83657000000005
 20
-90.86037199999994
 10
180.85308000000006
 20
-90.89923399999995
 10
180.87289200000004
 20
-90.93580999999996
 10
180.89549800000006
 20
-90.96984599999996
 10
180.92064400000007
 20
-91.00134199999997
 10
180.94833000000008
 20
-91.03004399999996
 10
180.9783020000001
 20
-91.05620599999996
 10
181.0103060000001
 20
-91.07957399999997
 10
181.0440880000001
 20
-91.10040199999996
 10
181.0793940000001
 20
-91.11843599999997
 10
181.11597000000012
 20
-91.13342199999997
 10
181.1535620000001
 20
-91.14561399999998
 10
181.1919160000001
 20
-91.15501199999997
 10
181.2310320000001
 20
-91.16136199999997
 10
181.2704020000001
 20
-91.16466399999996
 10
181.31002600000008
 20
-91.16491799999996
 10
181.34965000000005
 20
-91.16212399999995
 10
181.38876600000006
 20
-91.15602799999995
 10
181.42737400000007
 20
-91.14688399999994
 10
181.46522000000007
 20
-91.13443799999995
 10
181.50205000000008
 20
-91.11868999999994
 10
181.53786400000007
 20
-91.09963999999995
 10
181.57215400000007
 20
-91.07728799999994
 10
181.60466600000007
 20
-91.05137999999995
 10
181.63540000000006
 20
-91.02191599999995
 10
181.66384800000006
 20
-90.98914999999995
 10
181.69001000000006
 20
-90.95282799999995
 10
181.71363200000005
 20
-90.91269599999995
 10
187.11037000000002
 20
-77.89367199999994
 10
187.047378
 20
-77.92059599999995
 10
186.98083000000003
 20
-77.94320199999994
 10
186.91072600000004
 20
-77.96123599999996
 10
186.83706600000005
 20
-77.97444399999995
 10
186.75985000000006
 20
-77.98257199999995
 10
186.59424200000004
 20
-77.98206399999995
 10
186.50585000000007
 20
-77.97291999999995
 10
186.40348800000004
 20
-77.95412399999995
 10
186.30798400000006
 20
-77.92669199999995
 10
186.21959200000006
 20
-77.89113199999994
 10
186.13805800000006
 20
-77.84820599999995
 10
186.06338200000008
 20
-77.79842199999995
 10
185.99581800000007
 20
-77.74254199999994
 10
185.93511200000006
 20
-77.68081999999994
 10
185.88126400000007
 20
-77.61401799999994
 10
185.83427400000008
 20
-77.54289799999995
 10
185.79414200000008
 20
-77.46771399999996
 10
185.7606140000001
 20
-77.38922799999995
 10
185.7339440000001
 20
-77.30794799999995
 10
185.7141320000001
 20
-77.22463599999996
 10
185.7009240000001
 20
-77.13979999999995
 10
185.6943200000001
 20
-77.05394799999995
 10
185.6945740000001
 20
-76.96758799999995
 10
185.7014320000001
 20
-76.88148199999996
 10
185.7148940000001
 20
-76.79613799999996
 10
185.7349600000001
 20
-76.71231799999995
 10
185.76163000000008
 20
-76.63027599999997
 10
185.7946500000001
 20
-76.55077399999996
 10
185.83427400000008
 20
-76.47457399999996
 10
185.8805020000001
 20
-76.40192999999996
 10
185.93308000000007
 20
-76.33360399999997
 10
185.99200800000008
 20
-76.27010399999996
 10
186.05754000000007
 20
-76.21219199999996
 10
186.1294220000001
 20
-76.16037599999996
 10
186.20765400000008
 20
-76.11516399999995
 10
186.2922360000001
 20
-76.07706399999996
 10
186.38316800000007
 20
-76.04683799999995
 10
186.48045000000008
 20
-76.02499399999995
 10
186.63767600000008
 20
-76.00924599999995
 10
186.74080000000006
 20
-76.00975399999996
 10
186.83833600000008
 20
-76.01889799999995
 10
186.93003000000007
 20
-76.03591599999996
 10
187.01613600000007
 20
-76.06055399999995
 10
187.0964000000001
 20
-76.09204999999996
 10
187.17107600000008
 20
-76.13014999999994
 10
187.2401640000001
 20
-76.17434599999994
 10
187.3036640000001
 20
-76.22412999999995
 10
187.3615760000001
 20
-76.27924799999995
 10
187.4139000000001
 20
-76.33893799999996
 10
187.46063600000008
 20
-76.40269199999994
 10
187.5017840000001
 20
-76.47025599999995
 10
187.5373440000001
 20
-76.54112199999994
 10
187.56731600000012
 20
-76.61478199999995
 10
187.6018600000001
 20
-76.72933599999996
 10
189.14364000000012
 20
-73.08113399999996
 10
189.1891060000001
 20
-73.00518799999996
 10
189.2411760000001
 20
-72.93406799999997
 10
189.29959600000012
 20
-72.86828199999997
 10
189.36411200000012
 20
-72.80833799999996
 10
189.43396200000012
 20
-72.75499799999997
 10
189.50914600000013
 20
-72.70851599999997
 10
189.58890200000013
 20
-72.66939999999998
 10
190.90868600000013
 20
-72.16241599999998
 10
192.24955200000014
 20
-71.76160399999999
 10
194.97548000000012
 20
-71.25512799999998
 10
197.72807800000012
 20
-71.10399799999998
 10
200.46873800000012
 20
-71.26249399999998
 10
203.1593600000001
 20
-71.68489599999998
 10
205.7615900000001
 20
-72.32573799999999
 10
210.5469500000001
 20
-74.07884599999998
 10
210.6066400000001
 20
-74.11008799999999
 10
210.6612500000001
 20
-74.14742599999998
 10
210.7105260000001
 20
-74.19060599999999
 10
210.7547220000001
 20
-74.23886599999999
 10
210.7935840000001
 20
-74.291698
 10
210.82736600000013
 20
-74.34834
 10
210.85606800000014
 20
-74.40853800000001
 10
210.87943600000014
 20
-74.47153
 10
210.89772400000012
 20
-74.53706199999999
 10
210.91067800000013
 20
-74.604372
 10
210.91855200000012
 20
-74.672698
 10
210.9213460000001
 20
-74.74178599999999
 10
210.91880600000013
 20
-74.81087399999998
 10
210.91118600000013
 20
-74.879708
 10
210.89848600000013
 20
-74.947526
 10
206.71993200000014
 20
-88.22029599999999
 10
206.99755400000012
 20
-88.173814
 10
207.25892000000013
 20
-88.153494
 10
207.50377600000013
 20
-88.15603399999999
 10
207.73186800000013
 20
-88.178386
 10
207.94319600000014
 20
-88.217248
 10
208.13725200000013
 20
-88.269318
 10
208.31403600000016
 20
-88.331802
 10
208.61426400000016
 20
-88.474296
 10
208.84235600000017
 20
-88.61907599999999
 10
208.99628000000016
 20
-88.74074199999998
 10
209.08391000000017
 20
-88.82430799999999
 10
209.30260400000017
 20
-88.68181399999999
 10
209.51926600000016
 20
-88.563704
 10
209.73338800000013
 20
-88.468962
 10
209.94471600000014
 20
-88.39606400000001
 10
210.15299600000014
 20
-88.34374
 10
210.35797400000016
 20
-88.310974
 10
210.55914200000018
 20
-88.295988
 10
210.7565000000002
 20
-88.297766
 10
210.94954000000018
 20
-88.31503799999999
 10
211.13775400000017
 20
-88.34627999999998
 10
211.49919600000018
 20
-88.44559399999999
 10
211.83828600000018
 20
-88.58554799999999
 10
212.15248400000016
 20
-88.75522
 10
212.4392500000002
 20
-88.94444999999999
 10
212.92007200000018
 20
-89.338912
 10
213.2606860000002
 20
-89.68486
 10
213.46414000000019
 20
-89.92869999999999
 10
212.3907360000002
 20
-86.492842
 10
212.08085600000018
 20
-85.133434
 10
211.92515400000016
 20
-83.751674
 10
211.91702600000016
 20
-83.057238
 10
211.96198400000017
 20
-82.363056
 10
212.12530600000017
 20
-81.407508
 10
212.41359600000018
 20
-80.48650400000001
 10
212.60536600000017
 20
-80.04429000000002
 10
212.82939400000015
 20
-79.617062
 10
213.08568000000017
 20
-79.20685200000001
 10
213.37473200000017
 20
-78.81594600000001
 10
213.92286400000017
 20
-78.215236
 10
214.53881400000017
 20
-77.68564600000002
 10
215.21115200000017
 20
-77.22870000000002
 10
215.92844800000017
 20
-76.84566800000002
 10
216.55455800000018
 20
-76.58862000000002
 10
217.1979400000002
 20
-76.39685000000003
 10
217.85326000000018
 20
-76.27239000000002
 10
218.51518400000018
 20
-76.21727200000002
 10
219.17837800000018
 20
-76.23352800000004
 10
219.8372540000002
 20
-76.32319000000004
 10
220.4864780000002
 20
-76.48803600000004
 10
221.12097000000023
 20
-76.73009800000003
 10
221.2507640000002
 20
-76.65643800000002
 10
221.60839600000023
 20
-76.50937200000001
 10
222.5172080000002
 20
-76.24114800000002
 10
223.30435400000022
 20
-76.07503200000002
 10
224.06330600000024
 20
-76.00721400000003
 10
240.52047400000023
 20
-76.07604800000003
 10
240.58270400000023
 20
-76.06588800000003
 10
240.64315600000026
 20
-76.04937800000002
 10
240.70132200000026
 20
-76.02651800000004
 10
240.75694800000028
 20
-75.99781600000003
 10
240.80978000000027
 20
-75.96352600000003
 10
240.85931000000028
 20
-75.92390200000003
 10
241.4427480000003
 20
-75.37069000000004
 10
242.0371080000003
 20
-74.92669800000003
 10
242.6756640000003
 20
-74.54290400000004
 10
243.34571600000032
 20
-74.21473600000003
 10
244.7297620000003
 20
-73.70851400000004
 10
246.08840800000033
 20
-73.37272600000004
 10
248.32640200000031
 20
-73.07275200000004
 10
277.89454200000034
 20
-73.08062600000004
 10
277.9410240000003
 20
-73.07351400000003
 10
277.98598200000026
 20
-73.06208400000003
 10
278.0291620000003
 20
-73.04633600000003
 10
278.0700560000003
 20
-73.02677800000004
 10
278.1086640000003
 20
-73.00341000000003
 10
278.1447320000004
 20
-72.97648600000004
 10
278.1780060000004
 20
-72.94626000000002
 10
278.20823200000035
 20
-72.91298600000003
 10
278.23515600000036
 20
-72.87691800000003
 10
278.25877800000035
 20
-72.83831000000004
 10
278.27859000000035
 20
-72.79741600000004
 10
278.2943380000003
 20
-72.75449000000005
 10
278.3060220000003
 20
-72.70953200000004
 10
278.31313400000033
 20
-72.66305000000004
 10
278.31567400000034
 20
-69.23913000000003
  0
LWPOLYLINE
  5
35
330
17
100
AcDbEntity
  8
0
100
AcDbPolyline
 90
64
 70
1
 10
180.61178000000035
 20
-74.24369200000002
 10
180.43550400000038
 20
-74.23505600000003
 10
180.27065800000037
 20
-74.20991000000004
 10
180.11724200000037
 20
-74.16927000000003
 10
179.9750020000004
 20
-74.11440600000003
 10
179.8441920000004
 20
-74.04608000000003
 10
179.72481200000038
 20
-73.96581600000003
 10
179.6168620000004
 20
-73.87437600000003
 10
179.5203420000004
 20
-73.77303000000003
 10
179.43499800000038
 20
-73.66279400000002
 10
179.36108400000037
 20
-73.54493800000002
 10
179.29860000000036
 20
-73.42047800000002
 10
179.24754600000037
 20
-73.29043000000001
 10
179.20792200000037
 20
-73.15606400000001
 10
179.1794740000004
 20
-73.01839600000002
 10
179.1624560000004
 20
-72.87844200000004
 10
179.15686800000037
 20
-72.73747200000003
 10
179.16271000000037
 20
-72.59650200000003
 10
179.17972800000038
 20
-72.45654800000003
 10
179.20817600000038
 20
-72.31888000000004
 10
179.2480540000004
 20
-72.18451400000004
 10
179.29936200000037
 20
-72.05446600000003
 10
179.36184600000038
 20
-71.93000600000003
 10
179.43576000000039
 20
-71.81215000000003
 10
179.5211040000004
 20
-71.70191400000003
 10
179.6176240000004
 20
-71.60056800000002
 10
179.7255740000004
 20
-71.50912800000003
 10
179.8449540000004
 20
-71.42886400000003
 10
179.97551000000038
 20
-71.36053800000003
 10
180.1174960000004
 20
-71.30567400000002
 10
180.2709120000004
 20
-71.26503400000003
 10
180.4355040000004
 20
-71.23988800000002
 10
180.6115260000004
 20
-71.23125200000003
 10
180.7878020000004
 20
-71.23988800000002
 10
180.95264800000038
 20
-71.26503400000003
 10
181.1060640000004
 20
-71.30567400000002
 10
181.2483040000004
 20
-71.36053800000003
 10
181.37911400000038
 20
-71.42886400000003
 10
181.4984940000004
 20
-71.50912800000003
 10
181.60644400000038
 20
-71.60056800000002
 10
181.70296400000038
 20
-71.70191400000003
 10
181.78830800000037
 20
-71.81215000000003
 10
181.8622220000004
 20
-71.93000600000003
 10
181.92470600000038
 20
-72.05446600000003
 10
181.97576000000038
 20
-72.18451400000004
 10
182.01538400000038
 20
-72.31888000000004
 10
182.04383200000038
 20
-72.45654800000003
 10
182.06085000000039
 20
-72.59650200000003
 10
182.06643800000037
 20
-72.73747200000003
 10
182.06059600000037
 20
-72.87844200000004
 10
182.04357800000037
 20
-73.01839600000002
 10
182.0151300000004
 20
-73.15606400000001
 10
181.97525200000038
 20
-73.29043000000001
 10
181.92394400000038
 20
-73.42047800000002
 10
181.8614600000004
 20
-73.54493800000002
 10
181.78754600000036
 20
-73.66279400000002
 10
181.70220200000037
 20
-73.77303000000003
 10
181.60568200000037
 20
-73.87437600000003
 10
181.49773200000038
 20
-73.96581600000003
 10
181.37835200000038
 20
-74.04608000000003
 10
181.24779600000036
 20
-74.11440600000003
 10
181.10581000000036
 20
-74.16927000000003
 10
180.95239400000037
 20
-74.20991000000004
 10
180.78780200000037
 20
-74.23505600000003
  0
LWPOLYLINE
  5
36
330
17
100
AcDbEntity
  8
0
100
AcDbPolyline
 90
64
 70
1
 10
230.61498200000034
 20
-74.32421000000004
 10
230.41508400000035
 20
-74.31430400000004
 10
230.22814000000034
 20
-74.28585600000002
 10
230.05389600000032
 20
-74.23988200000004
 10
229.89260600000034
 20
-74.17765200000004
 10
229.74427000000034
 20
-74.10018200000003
 10
229.60888800000035
 20
-74.00899600000004
 10
229.48646000000036
 20
-73.90536400000003
 10
229.37698600000033
 20
-73.79055600000004
 10
229.28021200000035
 20
-73.66558800000003
 10
229.19639200000034
 20
-73.53198400000002
 10
229.12552600000035
 20
-73.39076000000003
 10
229.06761400000036
 20
-73.24344000000004
 10
229.02265600000035
 20
-73.09104000000002
 10
228.99039800000037
 20
-72.93483000000002
 10
228.97109400000036
 20
-72.77608000000002
 10
228.96474400000037
 20
-72.61606000000003
 10
228.97134800000035
 20
-72.45604000000003
 10
228.99065200000035
 20
-72.29729000000003
 10
229.02291000000034
 20
-72.14108000000003
 10
229.06812200000033
 20
-71.98868000000002
 10
229.12628800000036
 20
-71.84136000000002
 10
229.19715400000035
 20
-71.70013600000003
 10
229.28097400000036
 20
-71.56653200000002
 10
229.37774800000037
 20
-71.44156400000001
 10
229.48722200000037
 20
-71.32675600000002
 10
229.60965000000036
 20
-71.22312400000001
 10
229.74503200000035
 20
-71.13193800000002
 10
229.89311400000034
 20
-71.05446800000001
 10
230.05415000000036
 20
-70.99223800000001
 10
230.22814000000034
 20
-70.94626400000003
 10
230.41483000000034
 20
-70.91781600000002
 10
230.61447400000034
 20
-70.90791000000002
 10
230.81437200000033
 20
-70.91781600000002
 10
231.00131600000034
 20
-70.94626400000003
 10
231.17556000000036
 20
-70.99223800000001
 10
231.33685000000034
 20
-71.05446800000001
 10
231.48518600000034
 20
-71.13193800000002
 10
231.62056800000033
 20
-71.22312400000001
 10
231.74299600000032
 20
-71.32675600000002
 10
231.85247000000032
 20
-71.44156400000001
 10
231.94924400000033
 20
-71.56653200000002
 10
232.03306400000034
 20
-71.70013600000003
 10
232.10393000000033
 20
-71.84136000000002
 10
232.16184200000032
 20
-71.98868000000002
 10
232.20680000000033
 20
-72.14108000000003
 10
232.2390580000003
 20
-72.29729000000003
 10
232.25836200000032
 20
-72.45604000000003
 10
232.26471200000032
 20
-72.61606000000003
 10
232.25810800000033
 20
-72.77608000000002
 10
232.23880400000033
 20
-72.93483000000002
 10
232.20654600000034
 20
-73.09104000000002
 10
232.16133400000035
 20
-73.24344000000004
 10
232.10316800000032
 20
-73.39076000000003
 10
232.03230200000033
 20
-73.53198400000002
 10
231.94848200000033
 20
-73.66558800000003
 10
231.85170800000031
 20
-73.79055600000004
 10
231.74198000000032
 20
-73.90536400000003
 10
231.61955200000034
 20
-74.00899600000004
 10
231.48417000000032
 20
-74.10018200000003
 10
231.33608800000033
 20
-74.17765200000004
 10
231.17505200000033
 20
-74.23988200000004
 10
231.00106200000033
 20
-74.28585600000002
 10
230.81437200000033
 20
-74.31430400000004
  0
LWPOLYLINE
  5
37
330
17
100
AcDbEntity
  8
0
100
AcDbPolyline
 90
35
 70
1
 10
209.85886400000035
 20
-94.54438800000003
 10
209.64575800000034
 20
-94.53702200000002
 10
209.44255800000036
 20
-94.51543200000003
 10
209.24901000000037
 20
-94.48012600000003
 10
209.06511400000036
 20
-94.43186600000003
 10
208.89087000000035
 20
-94.37141400000003
 10
208.72627800000035
 20
-94.29927800000003
 10
208.57133800000034
 20
-94.21622000000004
 10
208.42605000000034
 20
-94.12300200000003
 10
208.29041400000034
 20
-94.02013200000003
 10
208.16417600000034
 20
-93.90811800000004
 10
208.04759000000035
 20
-93.78797600000004
 10
207.94040200000035
 20
-93.65996000000003
 10
207.75472800000034
 20
-93.38386200000004
 10
207.60690000000037
 20
-93.08515800000004
 10
207.29575000000034
 20
-93.14053000000004
 10
206.95996200000036
 20
-93.16034200000004
 10
206.71028000000035
 20
-93.15018200000003
 10
206.47406000000038
 20
-93.12021000000003
 10
206.25130200000038
 20
-93.07169600000005
 10
206.04175200000037
 20
-93.00591000000003
 10
205.84541000000036
 20
-92.92361400000003
 10
205.66253000000037
 20
-92.82607800000002
 10
205.49260400000037
 20
-92.71457200000002
 10
205.3358860000004
 20
-92.59011200000002
 10
203.17815600000037
 20
-100.10978200000002
 10
203.49489400000036
 20
-99.45979600000003
 10
203.85735200000036
 20
-98.85730800000002
 10
204.25918000000036
 20
-98.30054000000001
 10
204.69352000000038
 20
-97.78796800000002
 10
205.63306600000035
 20
-96.88957000000002
 10
206.62239600000035
 20
-96.14992200000003
 10
207.60791600000036
 20
-95.55683200000004
 10
209.35416600000036
 20
-94.76232000000005
 10
210.00770800000035
 20
-94.53651400000004
  0
LWPOLYLINE
  5
38
330
17
100
AcDbEntity
  8
0
100
AcDbPolyline
 90
24
 70
1
 10
234.15904400000034
 20
-78.76235200000004
 10
236.42523200000034
 20
-78.57667800000004
 10
238.95100800000034
 20
-78.61985800000004
 10
242.13261200000034
 20
-78.99831800000004
 10
241.7528820000003
 20
-79.34426600000005
 10
241.36578600000033
 20
-79.76743000000005
 10
240.9250960000003
 20
-80.34909000000006
 10
240.48923200000033
 20
-81.08315000000005
 10
240.29136600000032
 20
-81.50529800000004
 10
240.11636000000033
 20
-81.96326000000005
 10
239.97183400000034
 20
-82.45627400000004
 10
239.86490000000032
 20
-82.98357800000004
 10
239.80292400000033
 20
-83.54415600000004
 10
239.79327200000031
 20
-84.13750000000005
 10
239.54867000000033
 20
-83.37981800000004
 10
239.20246800000032
 20
-82.59089400000005
 10
238.67135400000032
 20
-81.66912800000004
 10
238.3279460000003
 20
-81.19135400000005
 10
237.92815000000033
 20
-80.71993000000005
 10
237.46866400000033
 20
-80.26806400000005
 10
236.94618600000032
 20
-79.84871000000005
 10
236.35741400000035
 20
-79.47533000000004
 10
235.69879200000034
 20
-79.16087800000004
 10
234.96701800000037
 20
-78.91881600000005
  0
LWPOLYLINE
  5
39
330
17
100
AcDbEntity
  8
0
100
AcDbPolyline
 90
75
 70
1
 10
280.86507200000034
 20
-66.99910400000005
 10
280.91866600000037
 20
-66.99656400000005
 10
281.02356800000035
 20
-66.97929200000006
 10
284.61919200000034
 20
-65.83476800000005
 10
287.74263000000036
 20
-65.11391600000006
 10
290.62832400000036
 20
-64.67856000000006
 10
295.60443800000036
 20
-64.44132400000005
 10
300.87468400000034
 20
-64.84162800000006
 10
300.9765380000004
 20
-64.83680200000005
 10
301.07534400000037
 20
-64.82105400000005
 10
301.17059400000034
 20
-64.79514600000005
 10
301.26152600000034
 20
-64.75958600000006
 10
301.3476320000003
 20
-64.71488200000006
 10
301.42840400000034
 20
-64.66179600000005
 10
301.50308000000035
 20
-64.60058200000005
 10
301.5711520000004
 20
-64.53200200000005
 10
301.63185800000036
 20
-64.45681800000006
 10
301.6846900000004
 20
-64.37528400000005
 10
301.7288860000004
 20
-64.28816200000006
 10
301.76393800000034
 20
-64.19596000000006
 10
301.78908400000034
 20
-64.09918600000006
 10
301.8038160000003
 20
-63.99834800000006
 10
301.63490600000034
 20
-55.14314600000006
 10
301.61941200000035
 20
-55.052214000000056
 10
301.59528200000034
 20
-54.96458400000005
 10
301.5630240000004
 20
-54.88051000000006
 10
301.5231460000004
 20
-54.80075400000006
 10
301.4761560000004
 20
-54.72557000000006
 10
301.4223080000004
 20
-54.65546600000006
 10
301.36236400000035
 20
-54.59069600000006
 10
301.29657800000035
 20
-54.53202200000006
 10
301.2252040000004
 20
-54.47969800000006
 10
301.1490040000004
 20
-54.434232000000065
 10
301.0684860000004
 20
-54.396132000000065
 10
300.9839040000004
 20
-54.36565200000006
 10
300.8957660000004
 20
-54.34330000000006
 10
300.8045800000004
 20
-54.32958400000006
 10
241.9786880000004
 20
-54.40908600000006
 10
242.06504800000042
 20
-54.53202200000006
 10
242.2766300000004
 20
-54.88533600000006
 10
242.54155200000042
 20
-55.44591400000006
 10
242.7884400000004
 20
-56.19038800000006
 10
242.8826740000004
 20
-56.62447400000006
 10
242.94566600000041
 20
-57.09589800000006
 10
242.96827200000044
 20
-57.60161200000007
 10
242.94160200000042
 20
-58.13882200000007
 10
242.85676600000045
 20
-58.704734000000066
 10
242.70462000000043
 20
-59.29630000000007
 10
242.47627400000042
 20
-59.910726000000075
 10
242.16283800000042
 20
-60.54521800000007
 10
242.09070200000042
 20
-60.66231200000007
 10
242.00739000000044
 20
-60.776104000000075
 10
241.8113020000004
 20
-60.99098800000008
 10
241.5821940000004
 20
-61.185298000000074
 10
241.3279400000004
 20
-61.354716000000074
 10
241.05641400000042
 20
-61.49441600000008
 10
240.77523600000043
 20
-61.59982600000007
 10
240.49202600000044
 20
-61.666374000000076
 10
240.35207200000042
 20
-61.683646000000074
 10
215.9436880000004
 20
-61.66866000000008
 10
215.86266200000043
 20
-61.67882000000007
 10
215.78341400000042
 20
-61.69533000000008
 10
215.7064520000004
 20
-61.71819000000008
 10
215.6320300000004
 20
-61.74714600000008
 10
215.5604020000004
 20
-61.781690000000076
 10
215.4920760000004
 20
-61.821822000000076
 10
215.4273060000004
 20
-61.86728800000007
 10
215.36634600000042
 20
-61.91783400000008
 10
215.3094500000004
 20
-61.973206000000076
 10
215.2571260000004
 20
-62.03315000000007
 10
215.20962800000038
 20
-62.09715800000007
 10
215.16721000000038
 20
-62.16523000000007
 10
215.1301260000004
 20
-62.237112000000074
 10
215.09888400000037
 20
-62.31280400000007
 10
213.8126280000004
 20
-67.00901000000007
  0
LWPOLYLINE
  5
3A
330
17
100
AcDbEntity
  8
0
100
AcDbPolyline
 90
75
 70
1
 10
189.03924600000042
 20
-67.48348200000007
 10
178.21935400000044
 20
-67.48043400000007
 10
178.1611880000004
 20
-67.47129000000007
 10
178.1053080000004
 20
-67.45630400000006
 10
178.0519680000004
 20
-67.43573000000006
 10
178.00142200000042
 20
-67.41007600000006
 10
177.9541780000004
 20
-67.37959600000006
 10
177.91049000000038
 20
-67.34479800000005
 10
177.8706120000004
 20
-67.30593600000006
 10
177.8347980000004
 20
-67.26326400000005
 10
177.8033020000004
 20
-67.21703600000005
 10
177.77663200000038
 20
-67.16776000000004
 10
177.75504200000037
 20
-67.11569000000004
 10
177.73878600000037
 20
-67.06108000000006
 10
177.72837200000038
 20
-67.00418400000005
 10
177.72380000000035
 20
-66.94551000000006
 10
178.37353200000035
 20
-62.563756000000055
 10
179.31511000000035
 20
-59.20435200000006
 10
179.99887800000036
 20
-57.52338000000006
 10
180.84800000000035
 20
-55.94070600000006
 10
181.36031800000038
 20
-55.18327800000006
 10
181.40502200000037
 20
-55.13552600000006
 10
181.4548060000004
 20
-55.09387000000007
 10
181.50890800000036
 20
-55.05856400000006
 10
181.56682000000035
 20
-55.029862000000065
 10
181.62778000000037
 20
-55.008018000000064
 10
181.69102600000036
 20
-54.99328600000006
 10
181.75605000000036
 20
-54.98566600000006
 10
189.38900400000037
 20
-54.98617400000006
 10
189.42608800000036
 20
-54.99023800000006
 10
189.46241000000038
 20
-54.996842000000065
 10
189.49797000000038
 20
-55.005986000000064
 10
189.56629600000036
 20
-55.03164000000007
 10
189.63055800000038
 20
-55.066184000000064
 10
189.69050200000038
 20
-55.10885600000007
 10
189.7453660000004
 20
-55.15864000000006
 10
189.7948960000004
 20
-55.21502800000007
 10
189.8489980000004
 20
-55.291482000000066
 10
189.8606820000004
 20
-55.304690000000065
 10
189.8741440000004
 20
-55.31662800000006
 10
189.88938400000038
 20
-55.32729600000006
 10
189.90665600000037
 20
-55.33644000000006
 10
189.9257060000004
 20
-55.34380600000006
 10
189.94704200000038
 20
-55.34939400000006
 10
189.97041000000036
 20
-55.352950000000064
 10
192.15379400000037
 20
-55.357014000000056
 10
192.21856400000036
 20
-55.36869800000006
 10
192.2802860000004
 20
-55.38749400000006
 10
192.3384520000004
 20
-55.413148000000064
 10
192.3928080000004
 20
-55.44489800000006
 10
192.4428460000004
 20
-55.48223600000006
 10
192.4880580000004
 20
-55.524654000000055
 10
192.52819000000042
 20
-55.57189800000006
 10
192.5629880000004
 20
-55.62320600000006
 10
192.5919440000004
 20
-55.67807000000006
 10
192.6145500000004
 20
-55.73623600000006
 10
192.63055200000042
 20
-55.796942000000065
 10
192.6396960000004
 20
-55.85968000000007
 10
192.6414740000004
 20
-55.924196000000066
 10
192.6353780000004
 20
-55.98972800000007
 10
189.5594380000004
 20
-67.12051600000007
 10
189.5419120000004
 20
-67.16293400000005
 10
189.5210840000004
 20
-67.20332000000005
 10
189.49720800000037
 20
-67.24142000000005
 10
189.47053800000037
 20
-67.27723400000005
 10
189.44107400000038
 20
-67.31076200000005
 10
189.40907000000038
 20
-67.34175000000006
 10
189.37478000000038
 20
-67.36994400000006
 10
189.33845800000037
 20
-67.39534400000007
 10
189.3001040000004
 20
-67.41795000000006
 10
189.2599720000004
 20
-67.43725400000007
 10
189.21831600000039
 20
-67.45351000000008
 10
189.1751360000004
 20
-67.46646400000007
 10
189.13068600000042
 20
-67.47586200000006
 10
189.08522000000042
 20
-67.48145000000007
  0
LWPOLYLINE
  5
3B
330
17
100
AcDbEntity
  8
0
100
AcDbPolyline
 90
74
 70
1
 10
279.4452120000004
 20
-68.77380200000005
 10
284.74974800000047
 20
-68.76491200000005
 10
285.0027320000005
 20
-68.73798800000004
 10
285.25241400000044
 20
-68.69252200000005
 10
285.4972700000004
 20
-68.62826000000005
 10
285.73577600000044
 20
-68.54469400000005
 10
285.9661540000004
 20
-68.44157000000006
 10
286.1871340000004
 20
-68.31863400000006
 10
286.5953120000004
 20
-68.04406000000006
 10
286.8549000000004
 20
-67.90791600000006
 10
287.1830680000004
 20
-67.76974000000006
 10
288.07537000000036
 20
-67.49719800000007
 10
289.3316540000003
 20
-67.24751600000006
 10
293.17340400000035
 20
-66.89979000000005
 10
301.1190320000003
 20
-66.96735400000006
 10
301.15535400000033
 20
-66.97421200000005
 10
301.1904060000003
 20
-66.98462600000006
 10
301.2241880000003
 20
-66.99808800000005
 10
301.2561920000003
 20
-67.01459800000005
 10
301.28641800000025
 20
-67.03390200000005
 10
301.3146120000003
 20
-67.05574600000007
 10
301.3407740000003
 20
-67.08013000000007
 10
301.3646500000003
 20
-67.10654600000007
 10
301.38598600000034
 20
-67.13524800000006
 10
301.40452800000037
 20
-67.16572800000006
 10
301.42027600000034
 20
-67.19798600000007
 10
301.43297600000034
 20
-67.23176800000006
 10
301.4423740000003
 20
-67.26707400000006
 10
301.4484700000003
 20
-67.30365000000006
 10
301.44821600000034
 20
-72.31735600000006
 10
301.4380560000003
 20
-72.39304800000006
 10
301.4205300000003
 20
-72.46594600000006
 10
301.39589200000034
 20
-72.53605000000006
 10
301.3646500000003
 20
-72.60285200000006
 10
301.32731200000035
 20
-72.66584400000005
 10
301.2843860000003
 20
-72.72477200000006
 10
301.2358720000003
 20
-72.77912800000006
 10
301.1825320000003
 20
-72.82865800000005
 10
301.1243660000003
 20
-72.87285400000005
 10
301.0621360000003
 20
-72.91120800000004
 10
300.9960960000003
 20
-72.94346600000006
 10
300.9265000000004
 20
-72.96937400000004
 10
300.85385600000035
 20
-72.98817000000005
 10
300.77841800000033
 20
-72.99985400000004
 10
279.4000000000004
 20
-73.00163200000004
 10
279.35605800000036
 20
-72.99502800000005
 10
279.31364000000036
 20
-72.98410600000004
 10
279.27300000000037
 20
-72.96912000000003
 10
279.23439200000035
 20
-72.95057800000004
 10
279.19781600000033
 20
-72.92848000000005
 10
279.1637800000003
 20
-72.90308000000005
 10
279.1322840000003
 20
-72.87463200000003
 10
279.1038360000003
 20
-72.84313600000003
 10
279.07843600000035
 20
-72.80910000000003
 10
279.0563380000003
 20
-72.77252400000002
 10
279.0377960000003
 20
-72.73391600000002
 10
279.0230640000003
 20
-72.69327600000003
 10
279.0121420000003
 20
-72.65085800000003
 10
279.00553800000034
 20
-72.60691600000003
 10
279.00553800000034
 20
-69.17182000000003
 10
279.0121420000003
 20
-69.12787800000002
 10
279.0230640000003
 20
-69.08546000000003
 10
279.0377960000003
 20
-69.04482000000003
 10
279.0563380000003
 20
-69.00621200000003
 10
279.07843600000035
 20
-68.96963600000002
 10
279.1038360000003
 20
-68.93560000000002
 10
279.1322840000003
 20
-68.90410400000002
 10
279.1637800000003
 20
-68.875656
 10
279.19781600000033
 20
-68.850256
 10
279.23439200000035
 20
-68.82815800000002
 10
279.27300000000037
 20
-68.80961600000002
 10
279.31364000000036
 20
-68.79463000000001
 10
279.35605800000036
 20
-68.783708
 10
279.4000000000004
 20
-68.77710400000001
  0
LWPOLYLINE
  5
3C
330
17
100
AcDbEntity
  8
0
100
AcDbPolyline
 90
80
 70
1
 10
224.4514180000004
 20
-81.63432999999999
 10
224.2007200000004
 20
-81.974944
 10
223.94849800000037
 20
-82.377534
 10
223.47148600000037
 20
-83.357974
 10
223.2624440000004
 20
-83.93049
 10
223.0836280000004
 20
-84.554568
 10
222.9429120000004
 20
-85.227668
 10
222.8484240000004
 20
-85.946996
 10
222.80778400000042
 20
-86.71026599999999
 10
222.8291200000004
 20
-87.51468399999999
 10
222.9203060000004
 20
-88.35770999999998
 10
223.0892160000004
 20
-89.23680399999999
 10
223.34397800000042
 20
-90.14942599999999
 10
223.6922120000004
 20
-91.09303599999998
 10
224.1420460000004
 20
-92.06483999999999
 10
224.72472200000038
 20
-93.103954
 10
224.74453400000039
 20
-93.146118
 10
224.76079000000038
 20
-93.18879
 10
224.7737440000004
 20
-93.23171599999999
 10
224.7831420000004
 20
-93.274896
 10
224.7894920000004
 20
-93.31833
 10
224.79254000000037
 20
-93.36151
 10
224.78974600000038
 20
-93.447616
 10
224.77526800000038
 20
-93.531944
 10
224.74986800000036
 20
-93.613732
 10
224.7143080000004
 20
-93.69171
 10
224.66909600000037
 20
-93.765116
 10
224.61524800000038
 20
-93.832934
 10
224.55301800000038
 20
-93.894148
 10
224.4834220000004
 20
-93.94748799999999
 10
224.40696800000038
 20
-93.99219199999999
 10
224.32441800000035
 20
-94.02724399999998
 10
224.23653400000035
 20
-94.05162799999998
 10
224.14407800000035
 20
-94.06432799999999
 10
221.15145000000035
 20
-94.06585199999998
 10
220.84131600000035
 20
-93.83394999999997
 10
220.06610800000033
 20
-93.14764199999998
 10
219.05925200000033
 20
-92.02165999999998
 10
218.5418540000003
 20
-91.29826799999998
 10
218.05417400000033
 20
-90.47048199999998
 10
217.65336200000033
 20
-89.57487799999997
 10
217.37167600000032
 20
-88.64422199999997
 10
217.20937000000032
 20
-87.69095999999998
 10
217.1666980000003
 20
-86.72753799999997
 10
217.24366000000032
 20
-85.76665599999997
 10
217.4405100000003
 20
-84.82101399999996
 10
217.7572480000003
 20
-83.90305799999997
 10
218.1941280000003
 20
-83.02523399999997
 10
218.66174200000032
 20
-82.32419399999996
 10
218.9317440000003
 20
-81.99831199999997
 10
219.22714600000032
 20
-81.69579799999997
 10
219.54896400000032
 20
-81.42198599999998
 10
219.8982140000003
 20
-81.18195599999999
 10
220.27591200000032
 20
-80.98104199999999
 10
220.6828200000003
 20
-80.82432399999998
 10
224.00488600000028
 20
-80.67573399999998
 10
224.05060600000027
 20
-80.67878199999998
 10
224.09505600000026
 20
-80.68513199999998
 10
224.13798200000025
 20
-80.69452999999997
 10
224.17938400000025
 20
-80.70697599999997
 10
224.21926200000027
 20
-80.72221599999996
 10
224.25736200000026
 20
-80.73999599999996
 10
224.29393800000028
 20
-80.76031599999996
 10
224.32848200000026
 20
-80.78317599999995
 10
224.39198200000027
 20
-80.83549999999995
 10
224.44735400000025
 20
-80.89569799999997
 10
224.49409000000026
 20
-80.96249999999996
 10
224.53142800000026
 20
-81.03463599999995
 10
224.55886000000024
 20
-81.11134399999996
 10
224.57562400000026
 20
-81.19109999999996
 10
224.57994200000027
 20
-81.23173999999997
 10
224.58121200000025
 20
-81.27288799999997
 10
224.57968800000026
 20
-81.31403599999996
 10
224.57511600000026
 20
-81.35543799999996
 10
224.56749600000026
 20
-81.39658599999996
 10
224.55657400000027
 20
-81.43773399999995
 10
224.54235000000025
 20
-81.47837399999996
 10
224.52482400000028
 20
-81.51850599999996
 10
224.50399600000026
 20
-81.55787599999995
 10
224.47961200000026
 20
-81.59648399999995
  0
LWPOLYLINE
  5
3D
330
17
100
AcDbEntity
  8
0
100
AcDbPolyline
 90
14
 70
1
 10
220.57385400000024
 20
-95.63049199999996
 10
219.20530200000024
 20
-94.66402199999996
 10
218.00464400000024
 20
-93.60026999999995
 10
217.42400000000026
 20
-92.96526999999996
 10
216.91320600000026
 20
-92.27769199999996
 10
216.87637600000028
 20
-92.67926599999996
 10
216.6866380000003
 20
-93.64319599999996
 10
216.4974080000003
 20
-94.22307799999997
 10
216.22537400000027
 20
-94.80803999999998
 10
216.05367000000027
 20
-95.08845599999997
 10
215.85580400000026
 20
-95.35312399999997
 10
215.62974400000027
 20
-95.59645599999996
 10
215.37371200000027
 20
-95.81286399999996
 10
219.89186400000025
 20
-95.73971199999995
  0
LWPOLYLINE
  5
3E
330
17
100
AcDbEntity
  8
0
100
AcDbPolyline
 90
16
 70
1
 10
222.50958800000024
 20
-58.39586999999996
 10
215.87612400000026
 20
-58.39586999999996
 10
216.95943400000024
 20
-54.46318799999996
 10
216.99220000000025
 20
-54.61076199999995
 10
217.12123200000025
 20
-55.004461999999954
 10
217.23629400000024
 20
-55.27039999999996
 10
217.39275800000024
 20
-55.57037399999996
 10
217.59646600000025
 20
-55.894731999999955
 10
217.85326000000026
 20
-56.234583999999955
 10
218.16872800000024
 20
-56.580531999999955
 10
218.54896600000023
 20
-56.92317799999995
 10
218.99956200000022
 20
-57.253377999999955
 10
219.52610400000023
 20
-57.56198799999996
 10
220.1346880000002
 20
-57.83986399999995
 10
220.8309020000002
 20
-58.077607999999955
 10
221.62058800000023
 20
-58.26607599999995
  0
ENDSEC
  0
SECTION
  2
OBJECTS
  0
DICTIONARY
  5
A
330
0
100
AcDbDictionary
281
1
  3
ACAD_COLOR
350
B
  3
ACAD_GROUP
350
C
  3
ACAD_LAYOUT
350
D
  3
ACAD_MATERIAL
350
E
  3
ACAD_MLEADERSTYLE
350
F
  3
ACAD_MLINESTYLE
350
10
  3
ACAD_PLOTSETTINGS
350
11
  3
ACAD_PLOTSTYLENAME
350
12
  3
ACAD_SCALELIST
350
14
  3
ACAD_TABLESTYLE
350
15
  3
ACAD_VISUALSTYLE
350
16
  3
EZDXF_META
350
2D
  0
DICTIONARY
  5
B
330
A
100
AcDbDictionary
281
1
  0
DICTIONARY
  5
C
330
A
100
AcDbDictionary
281
1
  0
DICTIONARY
  5
D
330
A
100
AcDbDictionary
281
1
  3
Model
350
1A
  3
Layout1
350
1E
  0
DICTIONARY
  5
E
330
A
100
AcDbDictionary
281
1
  3
ByBlock
350
1F
  3
ByLayer
350
20
  3
Global
350
21
  0
DICTIONARY
  5
F
330
A
100
AcDbDictionary
281
1
  3
Standard
350
2C
  0
DICTIONARY
  5
10
330
A
100
AcDbDictionary
281
1
  3
Standard
350
22
  0
DICTIONARY
  5
11
330
A
100
AcDbDictionary
281
1
  0
ACDBDICTIONARYWDFLT
  5
12
330
A
100
AcDbDictionary
281
1
  3
Normal
350
13
100
AcDbDictionaryWithDefault
340
13
  0
ACDBPLACEHOLDER
  5
13
330
12
  0
DICTIONARY
  5
14
330
A
100
AcDbDictionary
281
1
  0
DICTIONARY
  5
15
330
A
100
AcDbDictionary
281
1
  0
DICTIONARY
  5
16
330
A
100
AcDbDictionary
281
1
  0
LAYOUT
  5
1A
330
D
100
AcDbPlotSettings
  1

  4
A3
  6

 40
7.5
 41
20.0
 42
7.5
 43
20.0
 44
420.0
 45
297.0
 46
0.0
 47
0.0
 48
0.0
 49
0.0
140
0.0
141
0.0
142
1.0
143
1.0
 70
1024
 72
1
 73
0
 74
5
  7

 75
16
 76
0
 77
2
 78
300
147
1.0
148
0.0
149
0.0
100
AcDbLayout
  1
Model
 70
1
 71
0
 10
0.0
 20
0.0
 11
420.0
 21
297.0
 12
0.0
 22
0.0
 32
0.0
 14
1e+20
 24
1e+20
 34
1e+20
 15
-1e+20
 25
-1e+20
 35
-1e+20
146
0.0
 13
0.0
 23
0.0
 33
0.0
 16
1.0
 26
0.0
 36
0.0
 17
0.0
 27
1.0
 37
0.0
 76
1
330
17
  0
LAYOUT
  5
1E
330
D
100
AcDbPlotSettings
  1

  4
A3
  6

 40
7.5
 41
20.0
 42
7.5
 43
20.0
 44
420.0
 45
297.0
 46
0.0
 47
0.0
 48
0.0
 49
0.0
140
0.0
141
0.0
142
1.0
143
1.0
 70
0
 72
1
 73
0
 74
5
  7

 75
16
 76
0
 77
2
 78
300
147
1.0
148
0.0
149
0.0
100
AcDbLayout
  1
Layout1
 70
1
 71
1
 10
0.0
 20
0.0
 11
420.0
 21
297.0
 12
0.0
 22
0.0
 32
0.0
 14
1e+20
 24
1e+20
 34
1e+20
 15
-1e+20
 25
-1e+20
 35
-1e+20
146
0.0
 13
0.0
 23
0.0
 33
0.0
 16
1.0
 26
0.0
 36
0.0
 17
0.0
 27
1.0
 37
0.0
 76
1
330
1B
  0
MATERIAL
  5
1F
102
{ACAD_REACTORS
330
E
102
}
330
E
100
AcDbMaterial
  1
ByBlock
  2

 70
0
 40
1.0
 71
1
 41
1.0
 91
-1023410177
 42
1.0
 72
1
  3

 73
1
 74
1
 75
1
 44
0.5
 73
0
 45
1.0
 46
1.0
 77
1
  4

 78
1
 79
1
170
1
 48
1.0
171
1
  6

172
1
173
1
174
1
140
1.0
141
1.0
175
1
  7

176
1
177
1
178
1
143
1.0
179
1
  8

270
1
271
1
272
1
145
1.0
146
1.0
273
1
  9

274
1
275
1
276
1
 42
1.0
 72
1
  3

 73
1
 74
1
 75
1
 94
63
  0
MATERIAL
  5
20
102
{ACAD_REACTORS
330
E
102
}
330
E
100
AcDbMaterial
  1
ByLayer
  2

 70
0
 40
1.0
 71
1
 41
1.0
 91
-1023410177
 42
1.0
 72
1
  3

 73
1
 74
1
 75
1
 44
0.5
 73
0
 45
1.0
 46
1.0
 77
1
  4

 78
1
 79
1
170
1
 48
1.0
171
1
  6

172
1
173
1
174
1
140
1.0
141
1.0
175
1
  7

176
1
177
1
178
1
143
1.0
179
1
  8

270
1
271
1
272
1
145
1.0
146
1.0
273
1
  9

274
1
275
1
276
1
 42
1.0
 72
1
  3

 73
1
 74
1
 75
1
 94
63
  0
MATERIAL
  5
21
102
{ACAD_REACTORS
330
E
102
}
330
E
100
AcDbMaterial
  1
Global
  2

 70
0
 40
1.0
 71
1
 41
1.0
 91
-1023410177
 42
1.0
 72
1
  3

 73
1
 74
1
 75
1
 44
0.5
 73
0
 45
1.0
 46
1.0
 77
1
  4

 78
1
 79
1
170
1
 48
1.0
171
1
  6

172
1
173
1
174
1
140
1.0
141
1.0
175
1
  7

176
1
177
1
178
1
143
1.0
179
1
  8

270
1
271
1
272
1
145
1.0
146
1.0
273
1
  9

274
1
275
1
276
1
 42
1.0
 72
1
  3

 73
1
 74
1
 75
1
 94
63
  0
MLINESTYLE
  5
22
102
{ACAD_REACTORS
330
10
102
}
330
10
100
AcDbMlineStyle
  2
Standard
 70
0
  3

 62
256
 51
90.0
 52
90.0
 71
2
 49
0.5
 62
256
  6
BYLAYER
 49
-0.5
 62
256
  6
BYLAYER
  0
MLEADERSTYLE
  5
2C
102
{ACAD_REACTORS
330
F
102
}
330
F
100
AcDbMLeaderStyle
179
2
170
2
171
1
172
0
 90
2
 40
0.0
 41
0.0
173
1
 91
-1056964608
 92
-2
290
1
 42
2.0
291
1
 43
8.0
  3
Standard
 44
4.0
300

342
29
174
1
175
1
176
0
178
1
 93
-1056964608
 45
4.0
292
0
297
0
 46
4.0
 94
-1056964608
 47
1.0
 49
1.0
140
1.0
294
1
141
0.0
177
0
142
1.0
295
0
296
0
143
3.75
271
0
272
9
273
9
  0
DICTIONARY
  5
2D
330
A
100
AcDbDictionary
280
1
281
1
  3
CREATED_BY_EZDXF
350
2E
  3
WRITTEN_BY_EZDXF
350
41
  0
DICTIONARYVAR
  5
2E
330
2D
100
DictionaryVariables
280
0
  1
1.4.3 @ 2026-04-12T00:41:30.479528+00:00
  0
DICTIONARYVAR
  5
41
330
2D
100
DictionaryVariables
280
0
  1
1.4.3 @ 2026-04-12T00:41:30.482069+00:00
  0
ENDSEC
  0
EOF
