  0
SECTION
  2
HEADER
  9
$ACADVER
  1
AC1024
  9
$ACADMAINTVER
 70
6
  9
$DWGCODEPAGE
  3
ANSI_1252
  9
$LASTSAVEDBY
  1
ezdxf
  9
$INSBASE
 10
0.0
 20
0.0
 30
0.0
  9
$EXTMIN
 10
1e+20
 20
1e+20
 30
1e+20
  9
$EXTMAX
 10
-1e+20
 20
-1e+20
 30
-1e+20
  9
$LIMMIN
 10
0.0
 20
0.0
  9
$LIMMAX
 10
420.0
 20
297.0
  9
$ORTHOMODE
 70
0
  9
$REGENMODE
 70
1
  9
$FILLMODE
 70
1
  9
$QTEXTMODE
 70
0
  9
$MIRRTEXT
 70
1
  9
$LTSCALE
 40
1.0
  9
$ATTMODE
 70
1
  9
$TEXTSIZE
 40
2.5
  9
$TRACEWID
 40
1.0
  9
$TEXTSTYLE
  7
Standard
  9
$CLAYER
  8
0
  9
$CELTYPE
  6
ByLayer
  9
$CECOLOR
 62
256
  9
$CELTSCALE
 40
1.0
  9
$DISPSILH
 70
0
  9
$DIMSCALE
 40
1.0
  9
$DIMASZ
 40
2.5
  9
$DIMEXO
 40
0.625
  9
$DIMDLI
 40
3.75
  9
$DIMRND
 40
0.0
  9
$DIMDLE
 40
0.0
  9
$DIMEXE
 40
1.25
  9
$DIMTP
 40
0.0
  9
$DIMTM
 40
0.0
  9
$DIMTXT
 40
2.5
  9
$DIMCEN
 40
2.5
  9
$DIMTSZ
 40
0.0
  9
$DIMTOL
 70
0
  9
$DIMLIM
 70
0
  9
$DIMTIH
 70
0
  9
$DIMTOH
 70
0
  9
$DIMSE1
 70
0
  9
$DIMSE2
 70
0
  9
$DIMTAD
 70
1
  9
$DIMZIN
 70
8
  9
$DIMBLK
  1

  9
$DIMASO
 70
1
  9
$DIMSHO
 70
1
  9
$DIMPOST
  1

  9
$DIMAPOST
  1

  9
$DIMALT
 70
0
  9
$DIMALTD
 70
3
  9
$DIMALTF
 40
0.03937007874
  9
$DIMLFAC
 40
1.0
  9
$DIMTOFL
 70
1
  9
$DIMTVP
 40
0.0
  9
$DIMTIX
 70
0
  9
$DIMSOXD
 70
0
  9
$DIMSAH
 70
0
  9
$DIMBLK1
  1

  9
$DIMBLK2
  1

  9
$DIMSTYLE
  2
ISO-25
  9
$DIMCLRD
 70
0
  9
$DIMCLRE
 70
0
  9
$DIMCLRT
 70
0
  9
$DIMTFAC
 40
1.0
  9
$DIMGAP
 40
0.625
  9
$DIMJUST
 70
0
  9
$DIMSD1
 70
0
  9
$DIMSD2
 70
0
  9
$DIMTOLJ
 70
0
  9
$DIMTZIN
 70
8
  9
$DIMALTZ
 70
0
  9
$DIMALTTZ
 70
0
  9
$DIMUPT
 70
0
  9
$DIMDEC
 70
2
  9
$DIMTDEC
 70
2
  9
$DIMALTU
 70
2
  9
$DIMALTTD
 70
3
  9
$DIMTXSTY
  7
Standard
  9
$DIMAUNIT
 70
0
  9
$DIMADEC
 70
0
  9
$DIMALTRND
 40
0.0
  9
$DIMAZIN
 70
0
  9
$DIMDSEP
 70
44
  9
$DIMATFIT
 70
3
  9
$DIMFRAC
 70
0
  9
$DIMLDRBLK
  1

  9
$DIMLUNIT
 70
2
  9
$DIMLWD
 70
-2
  9
$DIMLWE
 70
-2
  9
$DIMTMOVE
 70
0
  9
$DIMFXL
 40
1.0
  9
$DIMFXLON
 70
0
  9
$DIMJOGANG
 40
0.785398163397
  9
$DIMTFILL
 70
0
  9
$DIMTFILLCLR
 70
0
  9
$DIMARCSYM
 70
0
  9
$DIMLTYPE
  6

  9
$DIMLTEX1
  6

  9
$DIMLTEX2
  6

  9
$DIMTXTDIRECTION
 70
0
  9
$LUNITS
 70
2
  9
$LUPREC
 70
4
  9
$SKETCHINC
 40
1.0
  9
$FILLETRAD
 40
10.0
  9
$AUNITS
 70
0
  9
$AUPREC
 70
2
  9
$MENU
  1
.
  9
$ELEVATION
 40
0.0
  9
$PELEVATION
 40
0.0
  9
$THICKNESS
 40
0.0
  9
$LIMCHECK
 70
0
  9
$CHAMFERA
 40
0.0
  9
$CHAMFERB
 40
0.0
  9
$CHAMFERC
 40
0.0
  9
$CHAMFERD
 40
0.0
  9
$SKPOLY
 70
0
  9
$TDCREATE
 40
2461140.590138889
  9
$TDUCREATE
 40
2458532.153996898
  9
$TDUPDATE
 40
2461140.590138889
  9
$TDUUPDATE
 40
2458532.1544311
  9
$TDINDWG
 40
0.0
  9
$TDUSRTIMER
 40
0.0
  9
$USRTIMER
 70
1
  9
$ANGBASE
 50
0.0
  9
$ANGDIR
 70
0
  9
$PDMODE
 70
0
  9
$PDSIZE
 40
0.0
  9
$PLINEWID
 40
0.0
  9
$SPLFRAME
 70
0
  9
$SPLINETYPE
 70
6
  9
$SPLINESEGS
 70
8
  9
$HANDSEED
  5
3E
  9
$SURFTAB1
 70
6
  9
$SURFTAB2
 70
6
  9
$SURFTYPE
 70
6
  9
$SURFU
 70
6
  9
$SURFV
 70
6
  9
$UCSBASE
  2

  9
$UCSNAME
  2

  9
$UCSORG
 10
0.0
 20
0.0
 30
0.0
  9
$UCSXDIR
 10
1.0
 20
0.0
 30
0.0
  9
$UCSYDIR
 10
0.0
 20
1.0
 30
0.0
  9
$UCSORTHOREF
  2

  9
$UCSORTHOVIEW
 70
0
  9
$UCSORGTOP
 10
0.0
 20
0.0
 30
0.0
  9
$UCSORGBOTTOM
 10
0.0
 20
0.0
 30
0.0
  9
$UCSORGLEFT
 10
0.0
 20
0.0
 30
0.0
  9
$UCSORGRIGHT
 10
0.0
 20
0.0
 30
0.0
  9
$UCSORGFRONT
 10
0.0
 20
0.0
 30
0.0
  9
$UCSORGBACK
 10
0.0
 20
0.0
 30
0.0
  9
$PUCSBASE
  2

  9
$PUCSNAME
  2

  9
$PUCSORG
 10
0.0
 20
0.0
 30
0.0
  9
$PUCSXDIR
 10
1.0
 20
0.0
 30
0.0
  9
$PUCSYDIR
 10
0.0
 20
1.0
 30
0.0
  9
$PUCSORTHOREF
  2

  9
$PUCSORTHOVIEW
 70
0
  9
$PUCSORGTOP
 10
0.0
 20
0.0
 30
0.0
  9
$PUCSORGBOTTOM
 10
0.0
 20
0.0
 30
0.0
  9
$PUCSORGLEFT
 10
0.0
 20
0.0
 30
0.0
  9
$PUCSORGRIGHT
 10
0.0
 20
0.0
 30
0.0
  9
$PUCSORGFRONT
 10
0.0
 20
0.0
 30
0.0
  9
$PUCSORGBACK
 10
0.0
 20
0.0
 30
0.0
  9
$USERI1
 70
0
  9
$USERI2
 70
0
  9
$USERI3
 70
0
  9
$USERI4
 70
0
  9
$USERI5
 70
0
  9
$USERR1
 40
0.0
  9
$USERR2
 40
0.0
  9
$USERR3
 40
0.0
  9
$USERR4
 40
0.0
  9
$USERR5
 40
0.0
  9
$WORLDVIEW
 70
1
  9
$SHADEDGE
 70
3
  9
$SHADEDIF
 70
70
  9
$TILEMODE
 70
1
  9
$MAXACTVP
 70
64
  9
$PINSBASE
 10
0.0
 20
0.0
 30
0.0
  9
$PLIMCHECK
 70
0
  9
$PEXTMIN
 10
1e+20
 20
1e+20
 30
1e+20
  9
$PEXTMAX
 10
-1e+20
 20
-1e+20
 30
-1e+20
  9
$PLIMMIN
 10
0.0
 20
0.0
  9
$PLIMMAX
 10
420.0
 20
297.0
  9
$UNITMODE
 70
0
  9
$VISRETAIN
 70
1
  9
$PLINEGEN
 70
0
  9
$PSLTSCALE
 70
1
  9
$TREEDEPTH
 70
3020
  9
$CMLSTYLE
  2
Standard
  9
$CMLJUST
 70
0
  9
$CMLSCALE
 40
20.0
  9
$PROXYGRAPHICS
 70
1
  9
$MEASUREMENT
 70
1
  9
$CELWEIGHT
370
-1
  9
$ENDCAPS
280
0
  9
$JOINSTYLE
280
0
  9
$LWDISPLAY
290
0
  9
$INSUNITS
 70
6
  9
$HYPERLINKBASE
  1

  9
$STYLESHEET
  1

  9
$XEDIT
290
1
  9
$CEPSNTYPE
380
0
  9
$PSTYLEMODE
290
1
  9
$FINGERPRINTGUID
  2
{F98315D7-DF60-4887-8E2D-11E7221E6337}
  9
$VERSIONGUID
  2
{F08A0370-8E87-4D60-A6BA-F0E7598E4966}
  9
$EXTNAMES
290
1
  9
$PSVPSCALE
 40
0.0
  9
$OLESTARTUP
290
0
  9
$SORTENTS
280
127
  9
$INDEXCTL
280
0
  9
$HIDETEXT
280
1
  9
$XCLIPFRAME
280
1
  9
$HALOGAP
280
0
  9
$OBSCOLOR
 70
257
  9
$OBSLTYPE
280
0
  9
$INTERSECTIONDISPLAY
280
0
  9
$INTERSECTIONCOLOR
 70
257
  9
$DIMASSOC
280
2
  9
$PROJECTNAME
  1

  9
$CAMERADISPLAY
290
0
  9
$LENSLENGTH
 40
50.0
  9
$CAMERAHEIGHT
 40
0.0
  9
$STEPSPERSEC
 40
24.0
  9
$STEPSIZE
 40
100.0
  9
$3DDWFPREC
 40
2.0
  9
$PSOLWIDTH
 40
0.005
  9
$PSOLHEIGHT
 40
0.08
  9
$LOFTANG1
 40
1.570796326795
  9
$LOFTANG2
 40
1.570796326795
  9
$LOFTMAG1
 40
0.0
  9
$LOFTMAG2
 40
0.0
  9
$LOFTPARAM
 70
7
  9
$LOFTNORMALS
280
1
  9
$LATITUDE
 40
37.795
  9
$LONGITUDE
 40
-122.394
  9
$NORTHDIRECTION
 40
0.0
  9
$TIMEZONE
 70
-8000
  9
$LIGHTGLYPHDISPLAY
280
1
  9
$TILEMODELIGHTSYNCH
280
1
  9
$CMATERIAL
347
20
  9
$SOLIDHIST
280
0
  9
$SHOWHIST
280
1
  9
$DWFFRAME
280
2
  9
$DGNFRAME
280
2
  9
$REALWORLDSCALE
290
1
  9
$INTERFERECOLOR
 62
256
  9
$CSHADOW
280
0
  9
$SHADOWPLANELOCATION
 40
0.0
  0
ENDSEC
  0
SECTION
  2
CLASSES
  0
CLASS
  1
ACDBDICTIONARYWDFLT
  2
AcDbDictionaryWithDefault
  3
ObjectDBX Classes
 90
0
 91
0
280
0
281
0
  0
CLASS
  1
SUN
  2
AcDbSun
  3
SCENEOE
 90
1153
 91
0
280
0
281
0
  0
CLASS
  1
VISUALSTYLE
  2
AcDbVisualStyle
  3
ObjectDBX Classes
 90
4095
 91
0
280
0
281
0
  0
CLASS
  1
MATERIAL
  2
AcDbMaterial
  3
ObjectDBX Classes
 90
1153
 91
0
280
0
281
0
  0
CLASS
  1
SCALE
  2
AcDbScale
  3
ObjectDBX Classes
 90
1153
 91
0
280
0
281
0
  0
CLASS
  1
TABLESTYLE
  2
AcDbTableStyle
  3
ObjectDBX Classes
 90
4095
 91
0
280
0
281
0
  0
CLASS
  1
MLEADERSTYLE
  2
AcDbMLeaderStyle
  3
ACDB_MLEADERSTYLE_CLASS
 90
4095
 91
0
280
0
281
0
  0
CLASS
  1
DICTIONARYVAR
  2
AcDbDictionaryVar
  3
ObjectDBX Classes
 90
0
 91
0
280
0
281
0
  0
CLASS
  1
CELLSTYLEMAP
  2
AcDbCellStyleMap
  3
ObjectDBX Classes
 90
1152
 91
0
280
0
281
0
  0
CLASS
  1
MENTALRAYRENDERSETTINGS
  2
AcDbMentalRayRenderSettings
  3
SCENEOE
 90
1024
 91
0
280
0
281
0
  0
CLASS
  1
ACDBDETAILVIEWSTYLE
  2
AcDbDetailViewStyle
  3
ObjectDBX Classes
 90
1025
 91
0
280
0
281
0
  0
CLASS
  1
ACDBSECTIONVIEWSTYLE
  2
AcDbSectionViewStyle
  3
ObjectDBX Classes
 90
1025
 91
0
280
0
281
0
  0
CLASS
  1
RASTERVARIABLES
  2
AcDbRasterVariables
  3
ISM
 90
0
 91
0
280
0
281
0
  0
CLASS
  1
LAYOUT
  2
AcDbLayout
  3
ObjectDBX Classes
 90
0
 91
0
280
0
281
0
  0
CLASS
  1
ACDBPLACEHOLDER
  2
AcDbPlaceHolder
  3
ObjectDBX Classes
 90
0
 91
0
280
0
281
0
  0
ENDSEC
  0
SECTION
  2
TABLES
  0
TABLE
  2
VPORT
  5
8
330
0
100
AcDbSymbolTable
 70
1
  0
VPORT
  5
23
330
8
100
AcDbSymbolTableRecord
100
AcDbViewportTableRecord
  2
*Active
 70
0
 10
0.0
 20
0.0
 11
1.0
 21
1.0
 12
0.0
 22
0.0
 13
0.0
 23
0.0
 14
0.5
 24
0.5
 15
0.5
 25
0.5
 16
0.0
 26
0.0
 36
1.0
 17
0.0
 27
0.0
 37
0.0
 40
1000.0
 41
1.34
 42
50.0
 43
0.0
 44
0.0
 50
0.0
 51
0.0
 71
0
 72
1000
 73
1
 74
3
 75
0
 76
0
 77
0
 78
0
281
0
 65
0
146
0.0
  0
ENDTAB
  0
TABLE
  2
LTYPE
  5
2
330
0
100
AcDbSymbolTable
 70
3
  0
LTYPE
  5
24
330
2
100
AcDbSymbolTableRecord
100
AcDbLinetypeTableRecord
  2
ByBlock
 70
0
  3

 72
65
 73
0
 40
0.0
  0
LTYPE
  5
25
330
2
100
AcDbSymbolTableRecord
100
AcDbLinetypeTableRecord
  2
ByLayer
 70
0
  3

 72
65
 73
0
 40
0.0
  0
LTYPE
  5
26
330
2
100
AcDbSymbolTableRecord
100
AcDbLinetypeTableRecord
  2
Continuous
 70
0
  3

 72
65
 73
0
 40
0.0
  0
ENDTAB
  0
TABLE
  2
LAYER
  5
1
330
0
100
AcDbSymbolTable
 70
2
  0
LAYER
  5
27
330
1
100
AcDbSymbolTableRecord
100
AcDbLayerTableRecord
  2
0
 70
0
 62
7
  6
Continuous
370
-3
390
13
347
21
  0
LAYER
  5
28
330
1
100
AcDbSymbolTableRecord
100
AcDbLayerTableRecord
  2
Defpoints
 70
0
 62
7
  6
Continuous
290
0
370
-3
390
13
347
21
  0
ENDTAB
  0
TABLE
  2
STYLE
  5
5
330
0
100
AcDbSymbolTable
 70
1
  0
STYLE
  5
29
330
5
100
AcDbSymbolTableRecord
100
AcDbTextStyleTableRecord
  2
Standard
 70
0
 40
0.0
 41
1.0
 50
0.0
 71
0
 42
2.5
  3
txt
  4

  0
ENDTAB
  0
TABLE
  2
VIEW
  5
7
330
0
100
AcDbSymbolTable
 70
0
  0
ENDTAB
  0
TABLE
  2
UCS
  5
6
330
0
100
AcDbSymbolTable
 70
0
  0
ENDTAB
  0
TABLE
  2
APPID
  5
3
330
0
100
AcDbSymbolTable
 70
3
  0
APPID
  5
2A
330
3
100
AcDbSymbolTableRecord
100
AcDbRegAppTableRecord
  2
ACAD
 70
0
  0
APPID
  5
3B
330
3
100
AcDbSymbolTableRecord
100
AcDbRegAppTableRecord
  2
HATCHBACKGROUNDCOLOR
 70
0
  0
APPID
  5
3C
330
3
100
AcDbSymbolTableRecord
100
AcDbRegAppTableRecord
  2
EZDXF
 70
0
  0
ENDTAB
  0
TABLE
  2
DIMSTYLE
  5
4
330
0
100
AcDbSymbolTable
 70
1
100
AcDbDimStyleTable
  0
DIMSTYLE
105
2B
330
4
100
AcDbSymbolTableRecord
100
AcDbDimStyleTableRecord
  2
Standard
 70
0
 40
1.0
 41
2.5
 42
0.625
 43
3.75
 44
1.25
 45
0.0
 46
0.0
 47
0.0
 48
0.0
 49
2.5
140
2.5
141
2.5
142
0.0
143
0.03937007874
144
1.0
145
0.0
146
1.0
147
0.625
148
0.0
 69
0
 70
0
 71
0
 72
0
 73
0
 74
0
 75
0
 76
0
 77
1
 78
8
 79
3
170
0
171
3
172
1
173
0
174
0
175
0
176
0
177
0
178
0
179
2
271
2
272
2
273
2
274
3
275
0
276
0
277
2
278
44
279
0
280
0
281
0
282
0
283
0
284
8
285
0
286
0
288
0
289
3
290
0
371
-2
372
-2
  0
ENDTAB
  0
TABLE
  2
BLOCK_RECORD
  5
9
330
0
100
AcDbSymbolTable
 70
2
  0
BLOCK_RECORD
  5
17
330
9
100
AcDbSymbolTableRecord
100
AcDbBlockTableRecord
  2
*Model_Space
340
1A
 70
0
280
1
281
0
  0
BLOCK_RECORD
  5
1B
330
9
100
AcDbSymbolTableRecord
100
AcDbBlockTableRecord
  2
*Paper_Space
340
1E
 70
0
280
1
281
0
  0
ENDTAB
  0
ENDSEC
  0
SECTION
  2
BLOCKS
  0
BLOCK
  5
18
330
17
100
AcDbEntity
  8
0
100
AcDbBlockBegin
  2
*Model_Space
 70
0
 10
0.0
 20
0.0
 30
0.0
  3
*Model_Space
  1

  0
ENDBLK
  5
19
330
17
100
AcDbEntity
  8
0
100
AcDbBlockEnd
  0
BLOCK
  5
1C
330
1B
100
AcDbEntity
  8
0
100
AcDbBlockBegin
  2
*Paper_Space
 70
0
 10
0.0
 20
0.0
 30
0.0
  3
*Paper_Space
  1

  0
ENDBLK
  5
1D
330
1B
100
AcDbEntity
  8
0
100
AcDbBlockEnd
  0
ENDSEC
  0
SECTION
  2
ENTITIES
  0
LWPOLYLINE
  5
2F
330
17
100
AcDbEntity
  8
0
100
AcDbPolyline
 90
353
 70
0
 10
219.50171999999998
 20
-80.79613
 10
219.429076
 20
-81.054956
 10
219.356432
 20
-81.31378200000002
 10
219.28378800000004
 20
-81.57260800000002
 10
219.21114400000005
 20
-81.83143400000002
 10
219.13850000000005
 20
-82.09026000000001
 10
219.06585600000008
 20
-82.34908600000001
 10
218.99321200000009
 20
-82.60791200000001
 10
218.92056800000012
 20
-82.86673800000001
 10
218.84792400000012
 20
-83.12556400000003
 10
218.77528000000012
 20
-83.38439000000002
 10
218.70263600000015
 20
-83.64321600000002
 10
218.62999200000016
 20
-83.90204200000002
 10
218.55734800000016
 20
-84.16086800000002
 10
218.4847040000002
 20
-84.41969400000002
 10
218.4120600000002
 20
-84.67852000000003
 10
218.33941600000023
 20
-84.93734600000003
 10
218.26677200000023
 20
-85.19617200000003
 10
218.19412800000023
 20
-85.45499800000003
 10
218.12148400000027
 20
-85.71382400000003
 10
218.04884000000027
 20
-85.97265000000003
 10
217.9761960000003
 20
-86.23147600000004
 10
217.9035520000003
 20
-86.49030200000004
 10
217.8309080000003
 20
-86.74912800000004
 10
217.75826400000034
 20
-87.00795400000004
 10
217.68562000000034
 20
-87.26678000000004
 10
217.61297600000034
 20
-87.52560600000004
 10
217.54033200000038
 20
-87.78443200000005
 10
217.46768800000038
 20
-88.04325800000005
 10
217.3950440000004
 20
-88.30208400000005
 10
217.3224000000004
 20
-88.56091000000005
 10
217.24975600000042
 20
-88.81973600000005
 10
217.17711200000045
 20
-89.07856200000005
 10
217.20606800000044
 20
-89.02573000000005
 10
217.23680200000044
 20
-88.97366000000005
 10
217.26906000000042
 20
-88.92260600000004
 10
217.30284200000045
 20
-88.87256800000004
 10
217.33814800000044
 20
-88.82354600000005
 10
217.37497800000045
 20
-88.77579400000005
 10
217.41333200000042
 20
-88.72905800000004
 10
217.45346400000042
 20
-88.68359200000005
 10
217.49512000000044
 20
-88.63939600000006
 10
217.53830000000042
 20
-88.59647000000007
 10
217.58300400000044
 20
-88.55506800000006
 10
217.62948600000044
 20
-88.51493600000005
 10
217.67749200000043
 20
-88.47632800000005
 10
217.72702200000043
 20
-88.43924400000006
 10
217.77807600000042
 20
-88.40368400000006
 10
217.83065400000044
 20
-88.36990200000007
 10
217.88501000000045
 20
-88.33764400000005
 10
217.94089000000045
 20
-88.30716400000006
 10
217.99829400000047
 20
-88.27846200000006
 10
218.05722200000045
 20
-88.25153800000005
 10
218.11767400000048
 20
-88.22639200000006
 10
218.17990400000048
 20
-88.20327800000005
 10
218.24365800000047
 20
-88.18219600000005
 10
218.30893600000044
 20
-88.16314600000005
 10
218.37573800000047
 20
-88.14612800000006
 10
218.44431800000044
 20
-88.13114200000005
 10
218.51442200000045
 20
-88.11844200000004
 10
218.58605000000045
 20
-88.10777400000005
 10
218.65920200000045
 20
-88.09939200000005
 10
218.73413200000044
 20
-88.09329600000005
 10
218.81058600000046
 20
-88.08974000000005
 10
218.88856400000046
 20
-88.08847000000004
 10
219.12681600000045
 20
-88.10015400000005
 10
219.34957400000044
 20
-88.13419000000005
 10
219.55709200000044
 20
-88.18905400000006
 10
219.74911600000044
 20
-88.26322200000004
 10
219.92590000000044
 20
-88.35542400000004
 10
220.08719000000045
 20
-88.46388200000005
 10
220.23298600000044
 20
-88.58732600000005
 10
220.36354200000042
 20
-88.72423200000004
 10
220.47860400000042
 20
-88.87307600000004
 10
220.57842600000043
 20
-89.03233400000005
 10
220.66275400000043
 20
-89.20048200000004
 10
220.73184200000046
 20
-89.37599600000003
 10
220.78543600000046
 20
-89.55760600000004
 10
220.82379000000043
 20
-89.74378800000004
 10
220.84665000000044
 20
-89.93276400000003
 10
220.85427000000044
 20
-90.12326400000003
 10
220.84639600000045
 20
-90.31376400000003
 10
220.82328200000043
 20
-90.50274000000005
 10
220.78467400000042
 20
-90.68892200000005
 10
220.73082600000043
 20
-90.87053200000004
 10
220.6617380000004
 20
-91.04604600000003
 10
220.57715600000043
 20
-91.21419400000003
 10
220.47733400000044
 20
-91.37345200000003
 10
220.36201800000043
 20
-91.52229600000004
 10
220.23146200000045
 20
-91.65920200000004
 10
220.08566600000046
 20
-91.78264600000003
 10
219.92437600000045
 20
-91.89110400000003
 10
219.74784600000044
 20
-91.98330600000003
 10
219.55607600000044
 20
-92.05747400000003
 10
219.34881200000044
 20
-92.11233800000002
 10
219.12630800000045
 20
-92.14637400000004
 10
218.88831000000044
 20
-92.15805800000003
 10
218.76080200000044
 20
-92.15475600000003
 10
218.63761200000044
 20
-92.14510400000003
 10
218.51874000000046
 20
-92.12935600000003
 10
218.40418600000044
 20
-92.10751200000003
 10
218.29395000000045
 20
-92.07982600000003
 10
218.18777800000046
 20
-92.04680600000003
 10
218.08592400000046
 20
-92.00845200000003
 10
217.98838800000047
 20
-91.96501800000003
 10
217.89517000000046
 20
-91.91650400000003
 10
217.80627000000047
 20
-91.86341800000004
 10
217.72168800000048
 20
-91.80601400000003
 10
217.64117000000047
 20
-91.74429200000004
 10
217.56497000000047
 20
-91.67850600000004
 10
217.49308800000048
 20
-91.60891000000004
 10
217.42552400000048
 20
-91.53575800000003
 10
217.3622780000005
 20
-91.45930400000003
 10
217.3030960000005
 20
-91.37980200000004
 10
217.24823200000048
 20
-91.29725200000004
 10
217.19768600000052
 20
-91.21216200000005
 10
217.1514580000005
 20
-91.12453200000004
 10
217.1095480000005
 20
-91.03461600000004
 10
217.0719560000005
 20
-90.94266800000004
 10
217.03842800000052
 20
-90.84894200000004
 10
217.00921800000052
 20
-90.75343800000003
 10
216.98432600000052
 20
-90.65666400000005
 10
216.9637520000005
 20
-90.55862000000003
 10
216.9472420000005
 20
-90.45981400000004
 10
216.9350500000005
 20
-90.36024600000003
 10
216.92717600000051
 20
-90.26017000000003
 10
216.9236200000005
 20
-90.15984000000005
 10
216.92438200000052
 20
-90.05925600000003
 10
216.92920800000053
 20
-89.95892600000003
 10
216.89720400000053
 20
-90.07271800000004
 10
216.86520000000053
 20
-90.18651000000003
 10
216.83319600000056
 20
-90.30030200000003
 10
216.80119200000055
 20
-90.41409400000002
 10
216.76918800000055
 20
-90.52788600000001
 10
216.73718400000055
 20
-90.64167800000001
 10
216.70518000000058
 20
-90.75547
 10
216.67317600000058
 20
-90.86926199999999
 10
216.64117200000058
 20
-90.983054
 10
216.60916800000058
 20
-91.09684599999999
 10
216.5771640000006
 20
-91.21063799999999
 10
216.5451600000006
 20
-91.32442999999998
 10
216.5131560000006
 20
-91.43822199999997
 10
216.4811520000006
 20
-91.55201399999997
 10
216.4491480000006
 20
-91.66580599999996
 10
216.41714400000063
 20
-91.77959799999995
 10
216.38514000000063
 20
-91.89338999999995
 10
216.35313600000063
 20
-92.00718199999994
 10
216.32113200000063
 20
-92.12097399999993
 10
216.28912800000066
 20
-92.23476599999994
 10
216.25712400000066
 20
-92.34855799999993
 10
216.22512000000066
 20
-92.46234999999993
 10
216.19311600000066
 20
-92.57614199999992
 10
216.16111200000068
 20
-92.68993399999991
 10
216.12910800000068
 20
-92.80372599999991
 10
216.09710400000068
 20
-92.9175179999999
 10
216.06510000000068
 20
-93.03130999999989
 10
216.03309600000068
 20
-93.1451019999999
 10
216.0010920000007
 20
-93.25889399999988
 10
215.9690880000007
 20
-93.37268599999987
 10
215.9370840000007
 20
-93.48647799999988
 10
215.9050800000007
 20
-93.60026999999987
 10
216.80703400000073
 20
-93.60026999999987
 10
217.70898800000074
 20
-93.60026999999987
 10
218.61094200000076
 20
-93.60026999999987
 10
219.51289600000078
 20
-93.60026999999987
 10
220.41485000000077
 20
-93.60026999999987
 10
221.3168040000008
 20
-93.60026999999987
 10
222.2187580000008
 20
-93.60026999999987
 10
223.12071200000082
 20
-93.60026999999987
 10
224.0226660000008
 20
-93.60026999999987
 10
224.92462000000083
 20
-93.60026999999987
 10
225.82657400000085
 20
-93.60026999999987
 10
226.72852800000086
 20
-93.60026999999987
 10
227.63048200000088
 20
-93.60026999999987
 10
228.53243600000087
 20
-93.60026999999987
 10
229.4343900000009
 20
-93.60026999999987
 10
230.3363440000009
 20
-93.60026999999987
 10
231.23829800000092
 20
-93.60026999999987
 10
232.1402520000009
 20
-93.60026999999987
 10
233.04220600000093
 20
-93.60026999999987
 10
233.94416000000095
 20
-93.60026999999987
 10
234.84611400000097
 20
-93.60026999999987
 10
235.74806800000096
 20
-93.60026999999987
 10
236.65002200000097
 20
-93.60026999999987
 10
237.551976000001
 20
-93.60026999999987
 10
238.453930000001
 20
-93.60026999999987
 10
239.35588400000103
 20
-93.60026999999987
 10
240.25783800000102
 20
-93.60026999999987
 10
241.15979200000103
 20
-93.60026999999987
 10
242.06174600000105
 20
-93.60026999999987
 10
242.96370000000107
 20
-93.60026999999987
 10
243.86565400000106
 20
-93.60026999999987
 10
244.76760800000108
 20
-93.60026999999987
 10
244.71833200000108
 20
-93.09785799999987
 10
244.7010600000011
 20
-92.62592599999986
 10
244.7137600000011
 20
-92.18371199999987
 10
244.75440000000108
 20
-91.76994599999986
 10
244.82094800000107
 20
-91.38386599999987
 10
244.91162600000106
 20
-91.02470999999987
 10
245.02414800000105
 20
-90.69120799999988
 10
245.15673600000108
 20
-90.38259799999989
 10
245.30735800000105
 20
-90.09786399999989
 10
245.47398200000103
 20
-89.83598999999988
 10
245.65457600000104
 20
-89.59595999999989
 10
245.84710800000104
 20
-89.37701199999988
 10
246.04954600000107
 20
-89.17812999999988
 10
246.26011200000104
 20
-88.99829799999988
 10
246.47677400000103
 20
-88.83649999999987
 10
246.69750000000104
 20
-88.69197399999987
 10
246.92025800000104
 20
-88.56344999999988
 10
247.143016000001
 20
-88.45016599999987
 10
247.363996000001
 20
-88.35110599999987
 10
247.58091200000104
 20
-88.26550799999987
 10
247.79198600000103
 20
-88.19235599999988
 10
247.995186000001
 20
-88.13037999999986
 10
248.18848000000102
 20
-88.07907199999987
 10
248.36983600000102
 20
-88.03716199999985
 10
248.53722200000104
 20
-88.00363399999986
 10
248.68886000000103
 20
-87.97772599999986
 10
248.82271800000103
 20
-87.95842199999986
 10
248.93651000000102
 20
-87.94470599999987
 10
249.02845800000102
 20
-87.93581599999986
 10
249.096784000001
 20
-87.93073599999987
 10
249.13920200000103
 20
-87.92844999999986
 10
249.15368000000103
 20
-87.92794199999986
 10
249.95378000000102
 20
-87.92794199999986
 10
250.75388000000103
 20
-87.92794199999986
 10
251.55398000000102
 20
-87.92794199999986
 10
252.354080000001
 20
-87.92794199999986
 10
253.154180000001
 20
-87.92794199999986
 10
253.954280000001
 20
-87.92794199999986
 10
254.754380000001
 20
-87.92794199999986
 10
255.55448000000098
 20
-87.92794199999986
 10
256.35458000000096
 20
-87.92794199999986
 10
257.15468000000095
 20
-87.92794199999986
 10
257.954780000001
 20
-87.92794199999986
 10
258.754880000001
 20
-87.92794199999986
 10
259.55498000000097
 20
-87.92794199999986
 10
260.35508000000095
 20
-87.92794199999986
 10
261.155180000001
 20
-87.92794199999986
 10
261.95528000000104
 20
-87.92794199999986
 10
262.755380000001
 20
-87.92794199999986
 10
263.55548000000107
 20
-87.92794199999986
 10
264.3555800000011
 20
-87.92794199999986
 10
265.1556800000011
 20
-87.92794199999986
 10
265.95578000000114
 20
-87.92794199999986
 10
266.7558800000012
 20
-87.92794199999986
 10
267.55598000000117
 20
-87.92794199999986
 10
268.3560800000012
 20
-87.92794199999986
 10
269.15618000000126
 20
-87.92794199999986
 10
269.95628000000124
 20
-87.92794199999986
 10
270.7563800000013
 20
-87.92794199999986
 10
271.55648000000133
 20
-87.92794199999986
 10
272.3565800000013
 20
-87.92794199999986
 10
273.15668000000136
 20
-87.92794199999986
 10
273.9567800000014
 20
-87.92794199999986
 10
274.7568800000014
 20
-87.92794199999986
 10
274.8008220000014
 20
-87.92692599999985
 10
274.8442560000014
 20
-87.92362399999986
 10
274.8871820000014
 20
-87.91828999999986
 10
274.92934600000143
 20
-87.91066999999987
 10
274.97074800000144
 20
-87.90101799999987
 10
275.01138800000143
 20
-87.88958799999986
 10
275.0512660000014
 20
-87.87612599999986
 10
275.0901280000014
 20
-87.86088599999985
 10
275.1279740000014
 20
-87.84361399999986
 10
275.16480400000137
 20
-87.82481799999985
 10
275.20061800000144
 20
-87.80424399999985
 10
275.2354160000014
 20
-87.78189199999984
 10
275.2689440000014
 20
-87.75801599999984
 10
275.3012020000014
 20
-87.73261599999984
 10
275.33219000000145
 20
-87.70569199999984
 10
275.3619080000014
 20
-87.67724399999983
 10
275.3903560000014
 20
-87.64752599999983
 10
275.4172800000014
 20
-87.61653799999984
 10
275.4426800000014
 20
-87.58427999999982
 10
275.46655600000145
 20
-87.55075199999982
 10
275.4889080000014
 20
-87.51595399999982
 10
275.5094820000014
 20
-87.48013999999982
 10
275.5282780000014
 20
-87.44330999999983
 10
275.5455500000014
 20
-87.40546399999982
 10
275.56079000000136
 20
-87.36660199999982
 10
275.5742520000014
 20
-87.32672399999983
 10
275.58568200000144
 20
-87.28608399999982
 10
275.59533400000146
 20
-87.24468199999981
 10
275.60295400000143
 20
-87.20251799999981
 10
275.60828800000144
 20
-87.15959199999982
 10
275.6115900000014
 20
-87.11615799999983
 10
275.6126060000014
 20
-87.07196199999983
 10
275.6126060000014
 20
-86.87587399999983
 10
275.6126060000014
 20
-86.67978599999984
 10
275.6126060000014
 20
-86.48369799999983
 10
275.6126060000014
 20
-86.28760999999983
 10
275.6126060000014
 20
-86.09152199999984
 10
275.6126060000014
 20
-85.89543399999984
 10
275.6126060000014
 20
-85.69934599999985
 10
275.6126060000014
 20
-85.50325799999985
 10
275.6126060000014
 20
-85.30716999999984
 10
275.6126060000014
 20
-85.11108199999985
 10
275.6126060000014
 20
-84.91499399999985
 10
275.6126060000014
 20
-84.71890599999985
 10
275.6126060000014
 20
-84.52281799999986
 10
275.6126060000014
 20
-84.32672999999986
 10
275.6126060000014
 20
-84.13064199999987
 10
275.6126060000014
 20
-83.93455399999986
 10
275.6126060000014
 20
-83.73846599999986
 10
275.6126060000014
 20
-83.54237799999987
 10
275.6126060000014
 20
-83.34628999999987
 10
275.6126060000014
 20
-83.15020199999987
 10
275.6126060000014
 20
-82.95411399999988
 10
275.6126060000014
 20
-82.75802599999987
 10
275.6126060000014
 20
-82.56193799999988
 10
275.6126060000014
 20
-82.36584999999988
 10
275.6126060000014
 20
-82.16976199999988
 10
275.6126060000014
 20
-81.97367399999989
 10
275.6126060000014
 20
-81.77758599999989
 10
275.6126060000014
 20
-81.58149799999988
 10
275.6126060000014
 20
-81.3854099999999
 10
275.6126060000014
 20
-81.18932199999989
 10
275.6126060000014
 20
-80.9932339999999
 10
275.6126060000014
 20
-80.7971459999999
 10
273.85899000000137
 20
-80.7971459999999
 10
272.1053740000014
 20
-80.7971459999999
 10
270.35201200000137
 20
-80.7971459999999
 10
268.5983960000014
 20
-80.7971459999999
 10
266.8447800000014
 20
-80.7971459999999
 10
265.09116400000136
 20
-80.7971459999999
 10
263.3375480000014
 20
-80.7971459999999
 10
261.58418600000135
 20
-80.7971459999999
 10
259.8305700000014
 20
-80.7971459999999
 10
258.07695400000136
 20
-80.7971459999999
 10
256.3233380000014
 20
-80.7971459999999
 10
254.56972200000138
 20
-80.7971459999999
 10
252.81610600000138
 20
-80.7971459999999
 10
251.0624900000014
 20
-80.7971459999999
 10
249.30887400000137
 20
-80.7971459999999
 10
247.55525800000137
 20
-80.7971459999999
 10
245.80164200000138
 20
-80.7971459999999
 10
244.04802600000139
 20
-80.7971459999999
 10
242.2944100000014
 20
-80.7971459999999
 10
240.54079400000137
 20
-80.7971459999999
 10
238.78717800000138
 20
-80.7971459999999
 10
237.03356200000138
 20
-80.7971459999999
 10
235.2799460000014
 20
-80.7971459999999
 10
233.5263300000014
 20
-80.7971459999999
 10
231.77271400000137
 20
-80.7971459999999
 10
230.01909800000138
 20
-80.7971459999999
 10
228.26548200000138
 20
-80.7971459999999
 10
226.5118660000014
 20
-80.7971459999999
 10
224.7582500000014
 20
-80.7971459999999
 10
223.0046340000014
 20
-80.7971459999999
 10
221.25101800000138
 20
-80.7971459999999
 10
219.4974020000014
 20
-80.7971459999999
  0
LWPOLYLINE
  5
30
330
17
100
AcDbEntity
  8
0
100
AcDbPolyline
 90
129
 70
0
 10
235.4295520000014
 20
-84.6607399999999
 10
235.4249800000014
 20
-84.8456519999999
 10
235.4110100000014
 20
-85.0280239999999
 10
235.3881500000014
 20
-85.20785599999991
 10
235.35665400000138
 20
-85.38489399999992
 10
235.31652200000138
 20
-85.55862999999992
 10
235.26800800000137
 20
-85.72906399999992
 10
235.21162000000137
 20
-85.89594199999992
 10
235.14735800000136
 20
-86.05900999999992
 10
235.07547600000137
 20
-86.21826799999991
 10
234.99622800000137
 20
-86.37320799999992
 10
234.90961400000137
 20
-86.52357599999992
 10
234.81614200000135
 20
-86.66937199999992
 10
234.71606600000135
 20
-86.81034199999992
 10
234.60938600000136
 20
-86.94597799999993
 10
234.49635600000136
 20
-87.07627999999991
 10
234.37748400000135
 20
-87.20099399999991
 10
234.25277000000136
 20
-87.31986599999992
 10
234.12246800000136
 20
-87.43289599999991
 10
233.98683200000136
 20
-87.53957599999991
 10
233.84586200000138
 20
-87.63965199999991
 10
233.70006600000139
 20
-87.73312399999992
 10
233.54969800000137
 20
-87.81973799999992
 10
233.3947580000014
 20
-87.89898599999992
 10
233.2355000000014
 20
-87.97086799999992
 10
233.07243200000138
 20
-88.03512999999992
 10
232.90555400000136
 20
-88.09151799999992
 10
232.73512000000136
 20
-88.1400319999999
 10
232.56138400000137
 20
-88.18016399999992
 10
232.38434600000136
 20
-88.21165999999992
 10
232.20451400000138
 20
-88.23451999999992
 10
232.02214200000137
 20
-88.24848999999992
 10
231.8372300000014
 20
-88.25306199999991
 10
231.6523180000014
 20
-88.24848999999992
 10
231.4699460000014
 20
-88.23451999999992
 10
231.2901140000014
 20
-88.21165999999992
 10
231.11307600000143
 20
-88.18016399999992
 10
230.93934000000144
 20
-88.1400319999999
 10
230.7689060000014
 20
-88.09151799999992
 10
230.6020280000014
 20
-88.03512999999992
 10
230.4389600000014
 20
-87.97086799999992
 10
230.2797020000014
 20
-87.89898599999992
 10
230.1247620000014
 20
-87.81973799999992
 10
229.9743940000014
 20
-87.73312399999992
 10
229.82859800000142
 20
-87.63965199999991
 10
229.68762800000144
 20
-87.53957599999991
 10
229.55199200000143
 20
-87.43289599999991
 10
229.42169000000143
 20
-87.31986599999992
 10
229.29697600000142
 20
-87.20099399999991
 10
229.17810400000144
 20
-87.07627999999991
 10
229.06507400000143
 20
-86.94597799999993
 10
228.95839400000142
 20
-86.81034199999992
 10
228.85831800000142
 20
-86.66937199999992
 10
228.76484600000143
 20
-86.52357599999992
 10
228.67823200000143
 20
-86.37320799999992
 10
228.59898400000142
 20
-86.21826799999991
 10
228.5271020000014
 20
-86.05900999999992
 10
228.4628400000014
 20
-85.89594199999992
 10
228.4064520000014
 20
-85.72906399999992
 10
228.35793800000138
 20
-85.55862999999992
 10
228.31780600000138
 20
-85.38489399999992
 10
228.28631000000138
 20
-85.20785599999991
 10
228.26345000000137
 20
-85.0280239999999
 10
228.2494800000014
 20
-84.8456519999999
 10
228.24490800000137
 20
-84.6607399999999
 10
228.2494800000014
 20
-84.4758279999999
 10
228.26345000000137
 20
-84.29345599999989
 10
228.28631000000138
 20
-84.11362399999989
 10
228.31780600000138
 20
-83.93658599999989
 10
228.35793800000138
 20
-83.76284999999989
 10
228.4064520000014
 20
-83.59241599999989
 10
228.4628400000014
 20
-83.42553799999989
 10
228.5271020000014
 20
-83.2624699999999
 10
228.59898400000142
 20
-83.10321199999989
 10
228.67823200000143
 20
-82.94827199999987
 10
228.76484600000143
 20
-82.79790399999989
 10
228.85831800000142
 20
-82.65210799999988
 10
228.95839400000142
 20
-82.51113799999987
 10
229.06507400000143
 20
-82.37550199999988
 10
229.17810400000144
 20
-82.24519999999988
 10
229.29697600000142
 20
-82.12048599999989
 10
229.42169000000143
 20
-82.00161399999989
 10
229.55199200000143
 20
-81.8885839999999
 10
229.68762800000144
 20
-81.78190399999988
 10
229.82859800000142
 20
-81.68182799999988
 10
229.9743940000014
 20
-81.58835599999989
 10
230.1247620000014
 20
-81.50174199999988
 10
230.2797020000014
 20
-81.42249399999989
 10
230.4389600000014
 20
-81.35061199999987
 10
230.6020280000014
 20
-81.28634999999989
 10
230.7689060000014
 20
-81.22996199999989
 10
230.93934000000144
 20
-81.18144799999989
 10
231.11307600000143
 20
-81.14131599999989
 10
231.2901140000014
 20
-81.10981999999989
 10
231.4699460000014
 20
-81.08695999999989
 10
231.6523180000014
 20
-81.07298999999989
 10
231.8372300000014
 20
-81.0684179999999
 10
232.02214200000137
 20
-81.07298999999989
 10
232.20451400000138
 20
-81.08695999999989
 10
232.38434600000136
 20
-81.10981999999989
 10
232.56138400000137
 20
-81.14131599999989
 10
232.73512000000136
 20
-81.18144799999989
 10
232.90555400000136
 20
-81.22996199999989
 10
233.07243200000138
 20
-81.28634999999989
 10
233.2355000000014
 20
-81.35061199999987
 10
233.3947580000014
 20
-81.42249399999989
 10
233.54969800000137
 20
-81.50174199999988
 10
233.70006600000139
 20
-81.58835599999989
 10
233.84586200000138
 20
-81.68182799999988
 10
233.98683200000136
 20
-81.78190399999988
 10
234.12246800000136
 20
-81.8885839999999
 10
234.25277000000136
 20
-82.00161399999989
 10
234.37748400000135
 20
-82.12048599999989
 10
234.49635600000136
 20
-82.24519999999988
 10
234.60938600000136
 20
-82.37550199999988
 10
234.71606600000135
 20
-82.51113799999987
 10
234.81614200000135
 20
-82.65210799999988
 10
234.90961400000137
 20
-82.79790399999989
 10
234.99622800000137
 20
-82.94827199999987
 10
235.07547600000137
 20
-83.10321199999989
 10
235.14735800000136
 20
-83.2624699999999
 10
235.21162000000137
 20
-83.42553799999989
 10
235.26800800000137
 20
-83.59241599999989
 10
235.31652200000138
 20
-83.76284999999989
 10
235.35665400000138
 20
-83.93658599999989
 10
235.3881500000014
 20
-84.11362399999989
 10
235.4110100000014
 20
-84.29345599999989
 10
235.4249800000014
 20
-84.4758279999999
 10
235.4295520000014
 20
-84.6607399999999
  0
LWPOLYLINE
  5
31
330
17
100
AcDbEntity
  8
0
100
AcDbPolyline
 90
289
 70
0
 10
213.92692800000137
 20
-93.4041819999999
 10
214.0280200000014
 20
-93.0102279999999
 10
214.12911200000138
 20
-92.6162739999999
 10
214.2302040000014
 20
-92.22231999999991
 10
214.3312960000014
 20
-91.82836599999992
 10
214.43238800000142
 20
-91.43441199999992
 10
214.53348000000142
 20
-91.04045799999992
 10
214.6345720000014
 20
-90.64650399999992
 10
214.73566400000144
 20
-90.25254999999993
 10
214.83675600000143
 20
-89.85859599999993
 10
214.93784800000145
 20
-89.46464199999993
 10
215.03894000000145
 20
-89.07068799999993
 10
215.14003200000147
 20
-88.67673399999994
 10
215.24112400000146
 20
-88.28277999999995
 10
215.34221600000146
 20
-87.88882599999995
 10
215.44330800000148
 20
-87.49487199999994
 10
215.54440000000147
 20
-87.10091799999995
 10
215.6454920000015
 20
-86.70696399999996
 10
215.7465840000015
 20
-86.31300999999996
 10
215.8476760000015
 20
-85.91905599999996
 10
215.9487680000015
 20
-85.52510199999996
 10
216.0498600000015
 20
-85.13114799999997
 10
216.15095200000152
 20
-84.73719399999997
 10
216.25204400000152
 20
-84.34323999999997
 10
216.35313600000154
 20
-83.94928599999997
 10
216.45422800000154
 20
-83.55533199999998
 10
216.55532000000156
 20
-83.16137799999998
 10
216.65641200000155
 20
-82.76742399999999
 10
216.75750400000155
 20
-82.37346999999998
 10
216.85859600000157
 20
-81.97951599999999
 10
216.95968800000156
 20
-81.585562
 10
217.06078000000159
 20
-81.191608
 10
217.16187200000158
 20
-80.797654
 10
216.88399600000156
 20
-80.797654
 10
216.60612000000157
 20
-80.797654
 10
216.32824400000155
 20
-80.797654
 10
216.05036800000153
 20
-80.797654
 10
215.7724920000015
 20
-80.797654
 10
215.4946160000015
 20
-80.797654
 10
215.2167400000015
 20
-80.797654
 10
214.93886400000147
 20
-80.797654
 10
214.66098800000145
 20
-80.797654
 10
214.38311200000146
 20
-80.797654
 10
214.10523600000144
 20
-80.797654
 10
213.82736000000142
 20
-80.797654
 10
213.5494840000014
 20
-80.797654
 10
213.2716080000014
 20
-80.797654
 10
212.9937320000014
 20
-80.797654
 10
212.71585600000137
 20
-80.797654
 10
212.43798000000137
 20
-80.797654
 10
212.16010400000135
 20
-80.797654
 10
211.88222800000133
 20
-80.797654
 10
211.6043520000013
 20
-80.797654
 10
211.32647600000132
 20
-80.797654
 10
211.0486000000013
 20
-80.797654
 10
210.77072400000128
 20
-80.797654
 10
210.49284800000126
 20
-80.797654
 10
210.21497200000127
 20
-80.797654
 10
209.93709600000125
 20
-80.797654
 10
209.65922000000123
 20
-80.797654
 10
209.3813440000012
 20
-80.797654
 10
209.10346800000121
 20
-80.797654
 10
208.8255920000012
 20
-80.797654
 10
208.54771600000117
 20
-80.797654
 10
208.26984000000115
 20
-80.797654
 10
208.26933200000119
 20
-80.80502
 10
208.2678080000012
 20
-80.826356
 10
208.2647600000012
 20
-80.861154
 10
208.2599340000012
 20
-80.90839799999999
 10
208.2530760000012
 20
-80.967326
 10
208.2439320000012
 20
-81.036922
 10
208.2319940000012
 20
-81.11667800000001
 10
208.21700800000121
 20
-81.20557800000002
 10
208.1989740000012
 20
-81.30286000000001
 10
208.17738400000118
 20
-81.407762
 10
208.15173000000118
 20
-81.51926800000001
 10
208.1220120000012
 20
-81.63687000000002
 10
208.0879760000012
 20
-81.75955200000003
 10
208.0491140000012
 20
-81.88655200000002
 10
208.00517200000118
 20
-82.01710800000002
 10
207.9558960000012
 20
-82.15045800000001
 10
207.9010320000012
 20
-82.28558600000002
 10
207.8400720000012
 20
-82.42173000000001
 10
207.77301600000118
 20
-82.55812800000001
 10
207.6993560000012
 20
-82.69401800000001
 10
207.6188380000012
 20
-82.82863800000001
 10
207.5312080000012
 20
-82.96097200000001
 10
207.4359580000012
 20
-83.09025800000002
 10
207.3330880000012
 20
-83.21573400000003
 10
207.2220900000012
 20
-83.33663800000002
 10
207.1027100000012
 20
-83.45220800000003
 10
206.9746940000012
 20
-83.56142800000002
 10
206.83778800000118
 20
-83.66353600000002
 10
206.69148400000117
 20
-83.75777000000001
 10
206.53578200000118
 20
-83.84336800000001
 10
206.37017400000116
 20
-83.919314
 10
206.19440600000115
 20
-83.9851
 10
206.19339000000116
 20
-83.998816
 10
206.19008800000114
 20
-84.038948
 10
206.18424600000114
 20
-84.10448
 10
206.17586400000113
 20
-84.194142
 10
206.16468800000115
 20
-84.30691800000001
 10
206.15046400000114
 20
-84.44153800000001
 10
206.13293800000113
 20
-84.596732
 10
206.11211000000114
 20
-84.771738
 10
206.08747200000116
 20
-84.96503200000001
 10
206.05927800000114
 20
-85.175852
 10
206.02702000000116
 20
-85.402674
 10
205.99044400000116
 20
-85.644482
 10
205.94955000000118
 20
-85.90026
 10
205.90408400000118
 20
-86.168738
 10
205.85404600000118
 20
-86.44890000000001
 10
205.79892800000118
 20
-86.73947600000001
 10
205.7387300000012
 20
-87.03945
 10
205.67319800000118
 20
-87.34755200000001
 10
205.60207800000117
 20
-87.662766
 10
205.52537000000117
 20
-87.983822
 10
205.44256600000116
 20
-88.30970400000001
 10
205.35392000000115
 20
-88.63914200000002
 10
205.25892400000114
 20
-88.97112000000003
 10
205.15732400000115
 20
-89.30436800000003
 10
205.04912000000115
 20
-89.63761600000002
 10
204.93405800000116
 20
-89.97010200000004
 10
204.81188400000116
 20
-90.30030200000004
 10
204.68259800000115
 20
-90.62745400000004
 10
204.54594600000115
 20
-90.95003400000003
 10
204.40167400000115
 20
-91.26702600000003
 10
204.24952800000113
 20
-91.57741400000003
 10
204.08925400000115
 20
-91.87992800000002
 10
203.92999600000115
 20
-92.18523600000002
 10
203.77632600000115
 20
-92.51111800000002
 10
203.62824400000116
 20
-92.85554200000003
 10
203.48575000000116
 20
-93.21647600000003
 10
203.34884400000115
 20
-93.59188800000003
 10
203.21752600000116
 20
-93.98000000000003
 10
203.09154200000114
 20
-94.37852600000004
 10
202.97114600000114
 20
-94.78568800000004
 10
202.85608400000115
 20
-95.19945400000005
 10
202.74635600000116
 20
-95.61804600000005
 10
202.64196200000114
 20
-96.03917800000005
 10
202.54290200000116
 20
-96.46107200000006
 10
202.44892200000115
 20
-96.88169600000005
 10
202.36027600000114
 20
-97.29901800000005
 10
202.27671000000117
 20
-97.71100600000005
 10
202.19822400000118
 20
-98.11588200000004
 10
202.12481800000117
 20
-98.51161400000005
 10
202.05649200000116
 20
-98.89617000000005
 10
201.99299200000118
 20
-99.26751800000005
 10
201.93457200000117
 20
-99.62362600000004
 10
201.88097800000116
 20
-99.96271600000004
 10
201.83221000000117
 20
-100.28275600000003
 10
201.78826800000115
 20
-100.58171400000005
 10
201.74915200000117
 20
-100.85755800000004
 10
201.71486200000118
 20
-101.10825600000005
 10
201.68514400000117
 20
-101.33203000000005
 10
201.66025200000118
 20
-101.52684800000004
 10
201.63993200000118
 20
-101.69067800000003
 10
201.62418400000118
 20
-101.82148800000003
 10
201.61300800000117
 20
-101.91750000000003
 10
201.6064040000012
 20
-101.97642800000004
 10
201.6041180000012
 20
-101.99649400000004
 10
201.6122460000012
 20
-101.99827200000004
 10
201.63586800000118
 20
-102.00386000000003
 10
201.67396800000117
 20
-102.01325800000004
 10
201.72553000000116
 20
-102.02672000000003
 10
201.78953800000116
 20
-102.04450000000003
 10
201.86497600000118
 20
-102.06659800000003
 10
201.95057400000115
 20
-102.09301400000003
 10
202.04557000000116
 20
-102.12400200000003
 10
202.14869400000114
 20
-102.15981600000003
 10
202.25893000000116
 20
-102.20045600000005
 10
202.37526200000113
 20
-102.24617600000003
 10
202.49667400000112
 20
-102.29723000000004
 10
202.62189600000113
 20
-102.35361800000004
 10
202.75016600000114
 20
-102.41534000000004
 10
202.88021400000113
 20
-102.48265000000004
 10
203.01102400000113
 20
-102.55580200000004
 10
203.1415800000011
 20
-102.63479600000004
 10
203.27086600000112
 20
-102.71988600000003
 10
203.39786600000113
 20
-102.81107200000002
 10
203.52131000000114
 20
-102.90860800000003
 10
203.64043600000113
 20
-103.01274800000003
 10
203.75397400000114
 20
-103.12349200000003
 10
203.86090800000116
 20
-103.24109400000003
 10
203.96022200000115
 20
-103.36555400000003
 10
204.05090000000112
 20
-103.49712600000002
 10
204.13167200000112
 20
-103.63581000000002
 10
204.20177600000113
 20
-103.78186000000002
 10
204.25994200000113
 20
-103.93553000000003
 10
204.30515400000112
 20
-104.09682000000002
 10
204.33639600000114
 20
-104.26598400000003
 10
204.35265200000114
 20
-104.44302200000003
 10
204.35290600000113
 20
-104.62818800000002
 10
204.39786400000114
 20
-104.46258000000003
 10
204.44282200000114
 20
-104.29697200000003
 10
204.48778000000115
 20
-104.13136400000003
 10
204.53273800000116
 20
-103.96575600000004
 10
204.57769600000114
 20
-103.80014800000004
 10
204.62265400000115
 20
-103.63454000000004
 10
204.66761200000116
 20
-103.46893200000005
 10
204.71257000000116
 20
-103.30332400000005
 10
204.75752800000117
 20
-103.13771600000005
 10
204.80248600000118
 20
-102.97210800000006
 10
204.8474440000012
 20
-102.80650000000006
 10
204.8924020000012
 20
-102.64089200000006
 10
204.9373600000012
 20
-102.47528400000006
 10
204.98231800000121
 20
-102.30967600000007
 10
205.0272760000012
 20
-102.14406800000008
 10
205.0722340000012
 20
-101.97846000000007
 10
205.1171920000012
 20
-101.81285200000008
 10
205.16215000000122
 20
-101.64724400000009
 10
205.20710800000123
 20
-101.48163600000008
 10
205.25206600000124
 20
-101.31602800000009
 10
205.29702400000124
 20
-101.1504200000001
 10
205.34198200000125
 20
-100.98481200000009
 10
205.38694000000126
 20
-100.8192040000001
 10
205.43189800000124
 20
-100.6535960000001
 10
205.47685600000125
 20
-100.4879880000001
 10
205.52181400000126
 20
-100.32238000000011
 10
205.56677200000127
 20
-100.15677200000012
 10
205.61173000000127
 20
-99.99116400000011
 10
205.65668800000128
 20
-99.82555600000012
 10
205.7016460000013
 20
-99.65994800000013
 10
205.7466040000013
 20
-99.49434000000012
 10
205.7915620000013
 20
-99.32873200000013
 10
205.8222960000013
 20
-99.21798800000013
 10
205.8545540000013
 20
-99.10775200000013
 10
205.8883360000013
 20
-98.99802400000013
 10
205.92364200000128
 20
-98.88880400000012
 10
205.9604720000013
 20
-98.78009200000012
 10
205.9988260000013
 20
-98.67214200000012
 10
206.03870400000127
 20
-98.56470000000012
 10
206.08010600000128
 20
-98.45802000000012
 10
206.12303200000127
 20
-98.35184800000012
 10
206.16748200000129
 20
-98.24643800000011
 10
206.2134560000013
 20
-98.1415360000001
 10
206.26095400000128
 20
-98.0373960000001
 10
206.30997600000129
 20
-97.93401800000011
 10
206.36052200000128
 20
-97.83140200000011
 10
206.41259200000127
 20
-97.72954800000011
 10
206.46618600000127
 20
-97.62871000000011
 10
206.52130400000127
 20
-97.52863400000011
 10
206.57794600000128
 20
-97.4293200000001
 10
206.63585800000126
 20
-97.3310220000001
 10
206.69529400000127
 20
-97.2334860000001
 10
206.75625400000126
 20
-97.1369660000001
 10
206.81873800000128
 20
-97.0414620000001
 10
206.88274600000125
 20
-96.9467200000001
 10
206.94827800000127
 20
-96.8529940000001
 10
207.01533400000127
 20
-96.7602840000001
 10
207.08391400000127
 20
-96.6685900000001
 10
207.15401800000126
 20
-96.5781660000001
 10
207.22539200000122
 20
-96.4887580000001
 10
207.29829000000123
 20
-96.4003660000001
 10
207.37271200000126
 20
-96.3132440000001
 10
207.44865800000125
 20
-96.2271380000001
 10
207.52612800000122
 20
-96.1423020000001
 10
207.64601600000123
 20
-96.01530200000009
 10
207.77098400000122
 20
-95.8875400000001
 10
207.9010320000012
 20
-95.7592700000001
 10
208.03616000000122
 20
-95.6310000000001
 10
208.17636800000122
 20
-95.5029840000001
 10
208.3216560000012
 20
-95.37547600000009
 10
208.4720240000012
 20
-95.2487300000001
 10
208.6274720000012
 20
-95.12350800000009
 10
208.78825400000122
 20
-94.99981000000008
 10
208.95411600000122
 20
-94.87814400000009
 10
209.12505800000122
 20
-94.75876400000008
 10
209.30133400000122
 20
-94.64192400000009
 10
209.4826900000012
 20
-94.5281320000001
 10
209.6693800000012
 20
-94.41764200000009
 10
209.86115000000123
 20
-94.31096200000009
 10
210.0582540000012
 20
-94.20834600000009
 10
210.26043800000122
 20
-94.11004800000009
 10
210.46795600000124
 20
-94.01657600000009
 10
210.6808080000012
 20
-93.92818400000009
 10
210.89899400000124
 20
-93.84512600000009
 10
211.12226000000123
 20
-93.7679100000001
 10
211.35086000000123
 20
-93.6967900000001
 10
211.58479400000124
 20
-93.6322740000001
 10
211.82406200000125
 20
-93.5746160000001
 10
212.06866400000123
 20
-93.5240700000001
 10
212.31860000000123
 20
-93.4811440000001
 10
212.57387000000125
 20
-93.4460920000001
 10
212.83447400000122
 20
-93.41916800000011
 10
213.10041200000123
 20
-93.40088000000011
 10
213.37193800000122
 20
-93.39148200000011
 10
213.64879800000122
 20
-93.39122800000013
 10
213.93099200000123
 20
-93.40062600000012
  0
LWPOLYLINE
  5
36
330
17
100
AcDbEntity
  8
0
100
AcDbPolyline
 90
865
 70
0
 10
194.89496200000124
 20
-86.91371999999984
 10
193.97726000000122
 20
-86.89593999999984
 10
193.09486400000122
 20
-86.87892199999985
 10
192.24548800000122
 20
-86.86241199999985
 10
191.42710000000122
 20
-86.84640999999985
 10
190.6374140000012
 20
-86.83116999999984
 10
189.8746520000012
 20
-86.81643799999985
 10
189.1365280000012
 20
-86.80221399999985
 10
188.4210100000012
 20
-86.78875199999986
 10
187.7260660000012
 20
-86.77579799999985
 10
187.04941000000122
 20
-86.76360599999985
 10
186.3892640000012
 20
-86.75217599999985
 10
185.7433420000012
 20
-86.74125399999986
 10
185.1096120000012
 20
-86.73109399999984
 10
184.48578800000118
 20
-86.72169599999985
 10
183.8700920000012
 20
-86.71280599999984
 10
183.2602380000012
 20
-86.70467799999984
 10
182.6541940000012
 20
-86.69731199999985
 10
182.04992800000122
 20
-86.69070799999984
 10
181.4454080000012
 20
-86.68486599999984
 10
180.83834800000122
 20
-86.67978599999985
 10
180.22697000000122
 20
-86.67546799999985
 10
179.6089880000012
 20
-86.67191199999985
 10
178.9821160000012
 20
-86.66911799999984
 10
178.3445760000012
 20
-86.66708599999984
 10
177.6940820000012
 20
-86.66581599999985
 10
177.0286020000012
 20
-86.66530799999984
 10
176.3463580000012
 20
-86.66556199999984
 10
175.6448100000012
 20
-86.66683199999983
 10
174.9221800000012
 20
-86.66886399999983
 10
174.1761820000012
 20
-86.67165799999984
 10
173.4047840000012
 20
-86.67546799999984
 10
172.6059540000012
 20
-86.68003999999982
 10
172.4284080000012
 20
-86.68410399999983
 10
172.2518780000012
 20
-86.69426399999983
 10
172.0761100000012
 20
-86.71026599999983
 10
171.9013580000012
 20
-86.73210999999984
 10
171.7278760000012
 20
-86.75954199999984
 10
171.5556640000012
 20
-86.79256199999983
 10
171.3849760000012
 20
-86.83116999999983
 10
171.2158120000012
 20
-86.87511199999983
 10
171.0481720000012
 20
-86.92438799999984
 10
170.88231000000118
 20
-86.97899799999983
 10
170.7184800000012
 20
-87.03868799999984
 10
170.55642800000118
 20
-87.10345799999983
 10
170.39666200000119
 20
-87.17330799999982
 10
170.23918200000116
 20
-87.24823799999983
 10
170.08398800000117
 20
-87.32799399999983
 10
169.93108000000117
 20
-87.41232199999983
 10
169.78096600000117
 20
-87.50122199999984
 10
169.63339200000118
 20
-87.59469399999983
 10
169.48861200000115
 20
-87.69273799999985
 10
169.34688000000116
 20
-87.79509999999985
 10
169.20819600000115
 20
-87.90177999999986
 10
169.07256000000115
 20
-88.01277799999986
 10
168.94022600000116
 20
-88.12783999999985
 10
168.81119400000117
 20
-88.24696599999984
 10
168.68571800000115
 20
-88.37015599999985
 10
168.56379800000116
 20
-88.49715599999985
 10
168.44568800000113
 20
-88.62796599999984
 10
168.3313880000011
 20
-88.76233199999984
 10
168.22115200000113
 20
-88.90050799999985
 10
168.11498000000114
 20
-89.04198599999985
 10
168.01287200000112
 20
-89.18701999999986
 10
167.91508200000112
 20
-89.33535599999986
 10
167.8873960000011
 20
-89.37929799999986
 10
167.86047200000112
 20
-89.42298599999987
 10
167.8340560000011
 20
-89.46641999999986
 10
167.8084020000011
 20
-89.50985399999986
 10
167.78351000000112
 20
-89.55303399999987
 10
167.7593800000011
 20
-89.59595999999986
 10
167.7357580000011
 20
-89.63863199999986
 10
167.7128980000011
 20
-89.68104999999986
 10
167.6908000000011
 20
-89.72321399999986
 10
167.6694640000011
 20
-89.76512399999986
 10
167.64889000000113
 20
-89.80677999999986
 10
167.62907800000113
 20
-89.84818199999985
 10
167.61028200000115
 20
-89.88932999999986
 10
167.59224800000112
 20
-89.93022399999985
 10
167.57497600000113
 20
-89.97060999999985
 10
167.55872000000113
 20
-90.01074199999985
 10
167.54322600000114
 20
-90.05061999999985
 10
167.52849400000113
 20
-90.08998999999984
 10
167.51477800000114
 20
-90.12910599999984
 10
167.50207800000115
 20
-90.16771399999983
 10
167.49014000000116
 20
-90.20581399999983
 10
167.47921800000114
 20
-90.24340599999984
 10
167.46931200000114
 20
-90.28074399999984
 10
167.46042200000116
 20
-90.31757399999984
 10
167.45254800000117
 20
-90.35389599999982
 10
167.44569000000115
 20
-90.38970999999982
 10
167.43984800000115
 20
-90.42501599999983
 10
167.43502200000114
 20
-90.45981399999984
 10
167.43121200000115
 20
-90.49410399999984
 10
167.42841800000116
 20
-90.52763199999983
 10
167.42664000000119
 20
-90.56065199999983
 10
167.4261320000012
 20
-90.59316399999983
 10
167.40327200000118
 20
-90.83827399999983
 10
167.38981000000118
 20
-91.07525599999983
 10
167.38549200000116
 20
-91.30461799999982
 10
167.3900640000012
 20
-91.52686799999982
 10
167.40352600000116
 20
-91.74225999999983
 10
167.42537000000118
 20
-91.95104799999983
 10
167.4553420000012
 20
-92.15373999999983
 10
167.49344200000118
 20
-92.35084399999982
 10
167.53916200000117
 20
-92.54261399999983
 10
167.5925020000012
 20
-92.72930399999983
 10
167.6529540000012
 20
-92.91142199999983
 10
167.7205180000012
 20
-93.08947599999983
 10
167.7949400000012
 20
-93.26371999999984
 10
167.8757120000012
 20
-93.43466199999983
 10
167.96283400000118
 20
-93.60255599999984
 10
168.05605200000116
 20
-93.76765599999983
 10
168.15511200000117
 20
-93.93046999999983
 10
168.25976000000117
 20
-94.09150599999984
 10
168.36974200000117
 20
-94.25101799999983
 10
168.48480400000116
 20
-94.40951399999983
 10
168.60469200000117
 20
-94.56724799999984
 10
168.72915200000116
 20
-94.72447399999984
 10
168.85793000000115
 20
-94.88169999999984
 10
168.99102600000114
 20
-95.03943399999984
 10
169.12793200000115
 20
-95.19792999999984
 10
169.26839400000114
 20
-95.35769599999985
 10
169.41241200000115
 20
-95.51898599999986
 10
169.55947800000112
 20
-95.68205399999985
 10
169.70959200000112
 20
-95.84766199999984
 10
169.86224600000114
 20
-96.01580999999985
 10
170.01744000000113
 20
-96.18700599999984
 10
170.17492000000112
 20
-96.36175799999982
 10
170.25518400000115
 20
-96.45243599999984
 10
170.33443200000116
 20
-96.54387599999984
 10
170.41266400000114
 20
-96.63607799999984
 10
170.48962600000115
 20
-96.72929599999985
 10
170.56557200000114
 20
-96.82327599999985
 10
170.64050200000113
 20
-96.91801799999985
 10
170.71441600000114
 20
-97.01352199999984
 10
170.78706000000113
 20
-97.10978799999984
 10
170.85868800000114
 20
-97.20706999999985
 10
170.92930000000115
 20
-97.30511399999985
 10
170.99864200000115
 20
-97.40391999999984
 10
171.06696800000114
 20
-97.50348799999985
 10
171.13427800000113
 20
-97.60356399999985
 10
171.20031800000115
 20
-97.70440199999985
 10
171.26534200000114
 20
-97.80600199999984
 10
171.3293500000011
 20
-97.90836399999985
 10
171.3920880000011
 20
-98.01148799999984
 10
171.4538100000011
 20
-98.11511999999985
 10
171.51451600000112
 20
-98.21951399999985
 10
171.57395200000116
 20
-98.32466999999984
 10
171.63237200000114
 20
-98.43033399999985
 10
171.68952200000115
 20
-98.53675999999984
 10
171.74565600000116
 20
-98.64369399999984
 10
171.80052000000114
 20
-98.75138999999983
 10
171.85436800000116
 20
-98.85959399999983
 10
171.90694600000114
 20
-98.96830599999983
 10
171.95850800000113
 20
-99.07752599999984
 10
172.00880000000114
 20
-99.18750799999982
 10
172.05807600000114
 20
-99.29799799999984
 10
172.10608200000112
 20
-99.40899599999983
 10
172.15307200000112
 20
-99.52050199999984
 10
172.1987920000011
 20
-99.63251599999984
 10
172.2023480000011
 20
-99.64115199999983
 10
172.2059040000011
 20
-99.64978799999983
 10
172.20946000000112
 20
-99.65842399999983
 10
172.21301600000112
 20
-99.66705999999982
 10
172.2165720000011
 20
-99.67569599999982
 10
172.2201280000011
 20
-99.68433199999983
 10
172.2236840000011
 20
-99.69296799999982
 10
172.2272400000011
 20
-99.70160399999982
 10
172.2307960000011
 20
-99.71023999999981
 10
172.2343520000011
 20
-99.71887599999981
 10
172.2379080000011
 20
-99.7275119999998
 10
172.24146400000112
 20
-99.7361479999998
 10
172.24502000000112
 20
-99.74478399999981
 10
172.24857600000112
 20
-99.7534199999998
 10
172.25213200000113
 20
-99.7620559999998
 10
172.25568800000113
 20
-99.7706919999998
 10
172.25924400000113
 20
-99.7793279999998
 10
172.26280000000114
 20
-99.78796399999979
 10
172.26635600000114
 20
-99.7965999999998
 10
172.26991200000114
 20
-99.8052359999998
 10
172.27346800000115
 20
-99.81387199999979
 10
172.27702400000115
 20
-99.82250799999979
 10
172.28058000000115
 20
-99.83114399999978
 10
172.28413600000115
 20
-99.83977999999978
 10
172.28769200000116
 20
-99.84841599999979
 10
172.29124800000116
 20
-99.85705199999978
 10
172.29480400000116
 20
-99.86568799999978
 10
172.29836000000117
 20
-99.87432399999977
 10
172.30191600000117
 20
-99.88295999999977
 10
172.30547200000117
 20
-99.89159599999977
 10
172.30902800000118
 20
-99.89997799999978
 10
172.31258400000118
 20
-99.90835999999977
 10
172.3425560000012
 20
-99.98252799999977
 10
172.3725280000012
 20
-100.05974399999977
 10
172.40250000000123
 20
-100.13975399999977
 10
172.43247200000124
 20
-100.22230399999977
 10
172.46219000000121
 20
-100.30739399999976
 10
172.4916540000012
 20
-100.39476999999975
 10
172.52111800000122
 20
-100.48417799999974
 10
172.55007400000122
 20
-100.57536399999974
 10
172.57877600000123
 20
-100.66807399999975
 10
172.60722400000122
 20
-100.76230799999973
 10
172.63516400000123
 20
-100.85781199999974
 10
172.6625960000012
 20
-100.95458599999972
 10
172.6895200000012
 20
-101.05212199999973
 10
172.7156820000012
 20
-101.15041999999973
 10
172.7413360000012
 20
-101.24922599999974
 10
172.76622800000118
 20
-101.34853999999974
 10
172.7903580000012
 20
-101.44810799999973
 10
172.8134720000012
 20
-101.54767599999974
 10
172.8358240000012
 20
-101.64698999999975
 10
172.8571600000012
 20
-101.74579599999974
 10
172.87748000000119
 20
-101.84409399999974
 10
172.8967840000012
 20
-101.94162999999975
 10
172.9150720000012
 20
-102.03814999999975
 10
172.9323440000012
 20
-102.13365399999974
 10
172.94834600000118
 20
-102.22788799999974
 10
172.9630780000012
 20
-102.32059799999973
 10
172.9765400000012
 20
-102.41152999999974
 10
172.98847800000118
 20
-102.50068399999974
 10
172.9991460000012
 20
-102.58780599999974
 10
173.00829000000118
 20
-102.67264199999974
 10
173.01591000000118
 20
-102.75493799999975
 10
173.02200600000117
 20
-102.83469399999976
 10
173.03699200000116
 20
-103.10393399999975
 10
173.04639000000117
 20
-103.36961799999975
 10
173.05045400000117
 20
-103.63174599999975
 10
173.04918400000116
 20
-103.89031799999974
 10
173.04283400000116
 20
-104.14584199999973
 10
173.03140400000117
 20
-104.39831799999975
 10
173.0151480000012
 20
-104.64799999999974
 10
172.9940660000012
 20
-104.89514199999975
 10
172.9684120000012
 20
-105.13974399999975
 10
172.93844000000118
 20
-105.38231399999975
 10
172.90415000000118
 20
-105.62285199999975
 10
172.8657960000012
 20
-105.86135799999975
 10
172.82337800000118
 20
-106.09833999999975
 10
172.7771500000012
 20
-106.33379799999976
 10
172.72736600000118
 20
-106.56798599999976
 10
172.67402600000116
 20
-106.80115799999976
 10
172.61713000000117
 20
-107.03331399999976
 10
172.55693200000118
 20
-107.26470799999976
 10
172.49368600000116
 20
-107.49559399999976
 10
172.42764600000118
 20
-107.72622599999977
 10
172.35855800000115
 20
-107.95660399999976
 10
172.28693000000115
 20
-108.18723599999976
 10
172.21276200000113
 20
-108.41812199999976
 10
172.13605400000114
 20
-108.64926199999977
 10
172.05731400000116
 20
-108.88116399999977
 10
171.97628800000115
 20
-109.11382799999977
 10
171.89348400000117
 20
-109.34750799999978
 10
171.80890200000115
 20
-109.58220399999976
 10
171.72254200000114
 20
-109.81842399999977
 10
171.63465800000114
 20
-110.05616799999976
 10
171.54550400000116
 20
-110.29568999999977
 10
171.45508000000115
 20
-110.53724399999976
 10
171.39056400000115
 20
-110.70920199999978
 10
171.32579400000114
 20
-110.88090599999977
 10
171.26077000000114
 20
-111.05260999999976
 10
171.19574600000115
 20
-111.22431399999977
 10
171.13046800000117
 20
-111.39601799999976
 10
171.06493600000115
 20
-111.56746799999976
 10
170.99940400000116
 20
-111.73891799999977
 10
170.93361800000116
 20
-111.91036799999976
 10
170.86757800000115
 20
-112.08181799999977
 10
170.80153800000116
 20
-112.25326799999978
 10
170.73524400000116
 20
-112.42446399999977
 10
170.66869600000118
 20
-112.59565999999977
 10
170.6021480000012
 20
-112.76685599999976
 10
170.5353460000012
 20
-112.93805199999974
 10
170.46854400000117
 20
-113.10899399999975
 10
170.40148800000117
 20
-113.27993599999975
 10
170.33417800000117
 20
-113.45087799999975
 10
170.26686800000118
 20
-113.62181999999976
 10
170.1993040000012
 20
-113.79250799999976
 10
170.1314860000012
 20
-113.96319599999977
 10
170.06366800000117
 20
-114.13388399999977
 10
169.99559600000117
 20
-114.30457199999978
 10
169.92727000000116
 20
-114.47500599999978
 10
169.85894400000115
 20
-114.64543999999978
 10
169.79036400000115
 20
-114.81587399999977
 10
169.72178400000115
 20
-114.98630799999977
 10
169.65295000000117
 20
-115.15648799999977
 10
169.58386200000118
 20
-115.32666799999978
 10
169.51477400000115
 20
-115.49684799999979
 10
169.44543200000115
 20
-115.66677399999978
 10
169.37583600000116
 20
-115.83669999999978
 10
169.30624000000114
 20
-116.00662599999977
 10
169.17441400000115
 20
-116.32844399999976
 10
169.04335000000114
 20
-116.65051599999975
 10
168.91279400000116
 20
-116.97284199999976
 10
168.78300000000115
 20
-117.29542199999976
 10
168.65371400000114
 20
-117.61825599999976
 10
168.52519000000117
 20
-117.94134399999976
 10
168.39717400000114
 20
-118.26468599999977
 10
168.26992000000115
 20
-118.58828199999977
 10
168.14317400000115
 20
-118.91213199999976
 10
168.01719000000116
 20
-119.23623599999976
 10
167.89171400000114
 20
-119.56059399999975
 10
167.76700000000116
 20
-119.88520599999977
 10
167.64304800000113
 20
-120.21007199999977
 10
167.51960400000115
 20
-120.53519199999975
 10
167.39692200000115
 20
-120.86056599999976
 10
167.27474800000115
 20
-121.18619399999976
 10
167.15333600000116
 20
-121.51207599999975
 10
167.03243200000117
 20
-121.83821199999976
 10
166.91229000000118
 20
-122.16460199999976
 10
166.79291000000117
 20
-122.49124599999976
 10
166.6740380000012
 20
-122.81814399999976
 10
166.5559280000012
 20
-123.14529599999976
 10
166.43832600000118
 20
-123.47244799999976
 10
166.3214860000012
 20
-123.79985399999975
 10
166.2051540000012
 20
-124.12751399999976
 10
166.08958400000117
 20
-124.45542799999977
 10
165.97477600000119
 20
-124.78359599999976
 10
165.86047600000117
 20
-125.11201799999976
 10
165.74693800000117
 20
-125.44069399999975
 10
165.63390800000116
 20
-125.76962399999975
 10
165.52164000000116
 20
-126.09880799999975
 10
165.41013400000116
 20
-126.42824599999976
 10
165.29761200000115
 20
-126.76225599999977
 10
165.18585200000115
 20
-127.09651999999976
 10
165.07485400000115
 20
-127.43103799999976
 10
164.96436400000115
 20
-127.76580999999975
 10
164.85463600000116
 20
-128.10058199999975
 10
164.74567000000116
 20
-128.43560799999975
 10
164.63721200000117
 20
-128.77088799999976
 10
164.52951600000117
 20
-129.10642199999975
 10
164.42258200000114
 20
-129.44220999999976
 10
164.31615600000114
 20
-129.77825199999975
 10
164.21049200000115
 20
-130.11454799999976
 10
164.10559000000114
 20
-130.45084399999973
 10
164.00119600000116
 20
-130.78739399999975
 10
163.89756400000115
 20
-131.12419799999975
 10
163.79469400000116
 20
-131.46125599999976
 10
163.69233200000116
 20
-131.79856799999976
 10
163.59073200000117
 20
-132.13587999999976
 10
163.48989400000113
 20
-132.47344599999974
 10
163.38956400000114
 20
-132.81126599999973
 10
163.28999600000114
 20
-133.14933999999974
 10
163.19119000000114
 20
-133.48766799999976
 10
163.09289200000114
 20
-133.82599599999975
 10
162.99535600000115
 20
-134.16457799999975
 10
162.89832800000116
 20
-134.50341399999974
 10
162.80206200000114
 20
-134.84250399999974
 10
162.70655800000117
 20
-135.18159399999973
 10
162.61156200000116
 20
-135.52093799999975
 10
162.51732800000116
 20
-135.86053599999974
 10
162.42385600000114
 20
-136.20038799999975
 10
162.33089200000114
 20
-136.54023999999973
 10
162.23869000000113
 20
-136.88034599999975
 10
162.14725000000112
 20
-137.22070599999975
 10
162.10153000000113
 20
-137.39139399999976
 10
162.05606400000116
 20
-137.56208199999978
 10
162.01059800000115
 20
-137.73302399999977
 10
161.96538600000116
 20
-137.90396599999977
 10
161.92042800000115
 20
-138.07490799999977
 10
161.87547000000114
 20
-138.24584999999976
 10
161.83076600000112
 20
-138.41679199999976
 10
161.78631600000114
 20
-138.58798799999977
 10
161.74186600000115
 20
-138.75918399999975
 10
161.69767000000115
 20
-138.93037999999976
 10
161.65372800000117
 20
-139.10157599999974
 10
161.60978600000115
 20
-139.27277199999975
 10
161.56609800000115
 20
-139.44396799999973
 10
161.52266400000113
 20
-139.61516399999974
 10
161.47923000000114
 20
-139.7866139999997
 10
161.43605000000113
 20
-139.9580639999997
 10
161.39312400000114
 20
-140.1295139999997
 10
161.35019800000114
 20
-140.30096399999968
 10
161.30752600000116
 20
-140.47241399999967
 10
161.26510800000113
 20
-140.64411799999968
 10
161.22269000000114
 20
-140.81582199999968
 10
161.18052600000112
 20
-140.9875259999997
 10
161.1383620000011
 20
-141.15922999999972
 10
161.0964520000011
 20
-141.33093399999973
 10
161.05479600000112
 20
-141.50263799999973
 10
161.01314000000113
 20
-141.67434199999974
 10
160.97173800000112
 20
-141.84629999999976
 10
160.9305900000011
 20
-142.01825799999975
 10
160.8894420000011
 20
-142.19021599999977
 10
160.8485480000011
 20
-142.36217399999978
 10
160.80790800000113
 20
-142.53413199999977
 10
160.76726800000114
 20
-142.7060899999998
 10
160.7469480000011
 20
-142.79244999999977
 10
160.72688200000113
 20
-142.8788099999998
 10
160.70681600000114
 20
-142.96542399999979
 10
160.68700400000114
 20
-143.0520379999998
 10
160.66719200000117
 20
-143.1386519999998
 10
160.64763400000115
 20
-143.2252659999998
 10
160.62807600000116
 20
-143.3118799999998
 10
160.60851800000117
 20
-143.3984939999998
 10
160.58921400000116
 20
-143.4851079999998
 10
160.56991000000116
 20
-143.57172199999982
 10
160.55060600000115
 20
-143.65833599999982
 10
160.53130200000115
 20
-143.74494999999982
 10
160.51199800000114
 20
-143.83156399999982
 10
160.49269400000114
 20
-143.9181779999998
 10
160.47339000000113
 20
-144.0047919999998
 10
160.45408600000113
 20
-144.09140599999984
 10
160.43478200000112
 20
-144.17801999999983
 10
160.41547800000112
 20
-144.26463399999983
 10
160.3961740000011
 20
-144.35124799999983
 10
160.3768700000011
 20
-144.43786199999983
 10
160.3575660000011
 20
-144.52447599999982
 10
160.33800800000108
 20
-144.61108999999985
 10
160.3184500000011
 20
-144.69770399999985
 10
160.29889200000108
 20
-144.78431799999984
 10
160.2790800000011
 20
-144.87093199999984
 10
160.2592680000011
 20
-144.95754599999984
 10
160.23920200000111
 20
-145.04415999999983
 10
160.21913600000113
 20
-145.13051999999985
 10
160.1988160000011
 20
-145.21687999999986
 10
160.17824200000112
 20
-145.30323999999987
 10
160.1576680000011
 20
-145.3895999999999
 10
160.13684000000111
 20
-145.4759599999999
 10
160.1162660000011
 20
-145.5590179999999
 10
160.0946760000011
 20
-145.6418219999999
 10
160.07232400000112
 20
-145.7243719999999
 10
160.0492100000011
 20
-145.8064139999999
 10
160.0255880000011
 20
-145.8882019999999
 10
160.0014580000011
 20
-145.9697359999999
 10
159.9770740000011
 20
-146.0512699999999
 10
159.9521820000011
 20
-146.13254999999992
 10
159.9270360000011
 20
-146.21382999999994
 10
159.9018900000011
 20
-146.29485599999992
 10
159.87674400000108
 20
-146.37588199999993
 10
159.85159800000108
 20
-146.4569079999999
 10
159.82645200000107
 20
-146.5379339999999
 10
159.80156000000107
 20
-146.6189599999999
 10
159.77717600000108
 20
-146.69998599999988
 10
159.75304600000106
 20
-146.78101199999986
 10
159.72942400000107
 20
-146.86229199999988
 10
159.70631000000105
 20
-146.9435719999999
 10
159.68395800000107
 20
-147.0251059999999
 10
159.66236800000107
 20
-147.1068939999999
 10
159.64179400000106
 20
-147.1889359999999
 10
159.62198200000108
 20
-147.27123199999988
 10
159.6034400000011
 20
-147.3537819999999
 10
159.58591400000108
 20
-147.4368399999999
 10
159.56965800000108
 20
-147.52015199999988
 10
159.5546720000011
 20
-147.6039719999999
 10
159.54121000000112
 20
-147.68829999999988
 10
159.5292720000011
 20
-147.7728819999999
 10
159.51885800000107
 20
-147.8582259999999
 10
159.51022200000108
 20
-147.94407799999988
 10
159.50336400000108
 20
-148.0304379999999
 10
159.49828400000106
 20
-148.1173059999999
 10
159.4954900000011
 20
-148.1952839999999
 10
159.4942200000011
 20
-148.2735159999999
 10
159.49447400000108
 20
-148.35200199999989
 10
159.49625200000108
 20
-148.43048799999988
 10
159.49980800000108
 20
-148.50897399999988
 10
159.50488800000107
 20
-148.58745999999985
 10
159.51174600000107
 20
-148.66594599999985
 10
159.52012800000108
 20
-148.74417799999986
 10
159.53028800000106
 20
-148.82215599999986
 10
159.54222600000108
 20
-148.89987999999985
 10
159.55594200000107
 20
-148.97734999999986
 10
159.57143600000109
 20
-149.05431199999984
 10
159.58870800000108
 20
-149.13076599999985
 10
159.6077580000011
 20
-149.20671199999987
 10
159.6285860000011
 20
-149.28214999999986
 10
159.6511920000011
 20
-149.35682599999987
 10
159.6758300000011
 20
-149.43073999999987
 10
159.7022460000011
 20
-149.50389199999987
 10
159.7306940000011
 20
-149.57602799999987
 10
159.7609200000011
 20
-149.64740199999986
 10
159.7931780000011
 20
-149.71775999999988
 10
159.8274680000011
 20
-149.7871019999999
 10
159.8635360000011
 20
-149.8551739999999
 10
159.9016360000011
 20
-149.9222299999999
 10
159.9417680000011
 20
-149.9880159999999
 10
159.98393200000112
 20
-150.05227799999992
 10
160.02812800000112
 20
-150.11526999999992
 10
160.07461000000112
 20
-150.17673799999992
 10
160.12312400000113
 20
-150.2366819999999
 10
160.1736700000011
 20
-150.2951019999999
 10
160.2265020000011
 20
-150.35199799999992
 10
160.2813660000011
 20
-150.40711599999992
 10
160.3550260000011
 20
-150.47518799999992
 10
160.43097200000108
 20
-150.53944999999993
 10
160.50895000000108
 20
-150.60015599999994
 10
160.5892140000011
 20
-150.65730599999995
 10
160.67125600000108
 20
-150.71089999999995
 10
160.7553300000011
 20
-150.76119199999994
 10
160.84118200000108
 20
-150.80843599999994
 10
160.9288120000011
 20
-150.85263199999994
 10
161.01796600000108
 20
-150.89377999999996
 10
161.10864400000108
 20
-150.93213399999993
 10
161.2008460000011
 20
-150.96769399999994
 10
161.2945720000011
 20
-151.00045999999995
 10
161.38931400000112
 20
-151.03068599999995
 10
161.48532600000112
 20
-151.05862599999995
 10
161.58235400000112
 20
-151.08427999999995
 10
161.6803980000011
 20
-151.10764799999995
 10
161.7794580000011
 20
-151.12898399999995
 10
161.8792800000011
 20
-151.14828799999995
 10
161.97961000000112
 20
-151.16581399999993
 10
162.0807020000011
 20
-151.18156199999993
 10
162.1823020000011
 20
-151.19578599999994
 10
162.2841560000011
 20
-151.20848599999994
 10
162.3865180000011
 20
-151.21966199999994
 10
162.4891340000011
 20
-151.22956799999992
 10
162.5917500000011
 20
-151.23845799999992
 10
162.6943660000011
 20
-151.2463319999999
 10
162.7969820000011
 20
-151.25318999999993
 10
162.8995980000011
 20
-151.25928599999992
 10
163.0019600000011
 20
-151.26461999999992
 10
163.10381400000108
 20
-151.2694459999999
 10
163.20541400000107
 20
-151.27376399999991
 10
163.3065060000011
 20
-151.27782799999991
 10
163.7642140000011
 20
-151.2950999999999
 10
164.22192200000111
 20
-151.3123719999999
 10
164.6796300000011
 20
-151.3296439999999
 10
165.1373380000011
 20
-151.3469159999999
 10
165.5950460000011
 20
-151.3641879999999
 10
166.05275400000113
 20
-151.3814599999999
 10
166.51046200000113
 20
-151.39873199999988
 10
166.96817000000112
 20
-151.41600399999987
 10
167.42587800000115
 20
-151.43327599999986
 10
167.88358600000115
 20
-151.45054799999988
 10
168.34129400000114
 20
-151.46781999999988
 10
168.79900200000117
 20
-151.48509199999987
 10
169.25671000000116
 20
-151.50236399999986
 10
169.71441800000116
 20
-151.51963599999985
 10
170.17212600000116
 20
-151.53690799999984
 10
170.62983400000118
 20
-151.55417999999986
 10
171.08754200000118
 20
-151.57145199999985
 10
171.54525000000118
 20
-151.58872399999984
 10
172.0029580000012
 20
-151.60599599999983
 10
172.4606660000012
 20
-151.62326799999983
 10
172.9183740000012
 20
-151.64053999999982
 10
173.37608200000122
 20
-151.65781199999984
 10
173.83379000000122
 20
-151.67508399999983
 10
174.2914980000012
 20
-151.69235599999982
 10
174.74920600000124
 20
-151.7096279999998
 10
175.20691400000123
 20
-151.7268999999998
 10
175.66462200000123
 20
-151.7441719999998
 10
176.12233000000123
 20
-151.76144399999978
 10
176.58003800000125
 20
-151.7787159999998
 10
177.03774600000125
 20
-151.7959879999998
 10
177.49545400000125
 20
-151.8132599999998
 10
177.95316200000127
 20
-151.83053199999978
 10
178.02402800000127
 20
-151.8330719999998
 10
178.09489400000126
 20
-151.83561199999977
 10
178.16601400000124
 20
-151.83815199999978
 10
178.23713400000125
 20
-151.84069199999976
 10
178.30825400000123
 20
-151.8429779999998
 10
178.37937400000123
 20
-151.84500999999977
 10
178.4504940000012
 20
-151.8470419999998
 10
178.52161400000122
 20
-151.8488199999998
 10
178.5927340000012
 20
-151.85008999999977
 10
178.6638540000012
 20
-151.8511059999998
 10
178.7349740000012
 20
-151.8518679999998
 10
178.8060940000012
 20
-151.85212199999978
 10
178.87721400000117
 20
-151.85212199999978
 10
178.94833400000118
 20
-151.8516139999998
 10
179.01945400000116
 20
-151.8505979999998
 10
179.09032000000116
 20
-151.8490739999998
 10
179.16118600000118
 20
-151.8470419999998
 10
179.23205200000118
 20
-151.8442479999998
 10
179.30291800000117
 20
-151.8409459999998
 10
179.37378400000117
 20
-151.8368819999998
 10
179.44439600000118
 20
-151.8323099999998
 10
179.5150080000012
 20
-151.8269759999998
 10
179.58562000000117
 20
-151.82087999999982
 10
179.6559780000012
 20
-151.8140219999998
 10
179.7263360000012
 20
-151.8061479999998
 10
179.79644000000118
 20
-151.7975119999998
 10
179.86654400000117
 20
-151.7878599999998
 10
179.93639400000117
 20
-151.7774459999998
 10
180.00624400000117
 20
-151.7660159999998
 10
180.07584000000116
 20
-151.7535699999998
 10
180.14543600000115
 20
-151.74010799999982
 10
180.21477800000116
 20
-151.7256299999998
 10
180.28412000000117
 20
-151.7098819999998
 10
180.3532080000012
 20
-151.69286399999982
 10
180.42204200000117
 20
-151.6745759999998
 10
180.49062200000117
 20
-151.6550179999998
 10
180.55894800000118
 20
-151.6341899999998
 10
180.62702000000118
 20
-151.61209199999982
 10
180.69458400000119
 20
-151.58872399999981
 10
180.76164000000117
 20
-151.5640859999998
 10
180.82818800000118
 20
-151.53817799999982
 10
180.89422800000116
 20
-151.51074599999984
 10
180.95976000000118
 20
-151.48204399999983
 10
181.02453000000116
 20
-151.45207199999982
 10
181.08853800000117
 20
-151.4208299999998
 10
181.15178400000116
 20
-151.38831799999977
 10
181.21426800000117
 20
-151.35428199999978
 10
181.27599000000117
 20
-151.31897599999976
 10
181.33669600000118
 20
-151.28239999999977
 10
181.39638600000117
 20
-151.24429999999978
 10
181.4550600000012
 20
-151.2049299999998
 10
181.51271800000117
 20
-151.1640359999998
 10
181.56910600000117
 20
-151.1218719999998
 10
181.62447800000118
 20
-151.0781839999998
 10
181.67858000000115
 20
-151.0332259999998
 10
181.73141200000114
 20
-150.9867439999998
 10
181.78297400000113
 20
-150.93899199999979
 10
181.83301200000113
 20
-150.8897159999998
 10
181.88178000000113
 20
-150.83891599999978
 10
181.92902400000116
 20
-150.78684599999977
 10
181.97474400000112
 20
-150.73325199999977
 10
182.01894000000112
 20
-150.67813399999977
 10
182.06135800000115
 20
-150.62174599999977
 10
182.10225200000113
 20
-150.5638339999998
 10
182.13120800000112
 20
-150.52014599999978
 10
182.15914800000112
 20
-150.47594999999978
 10
182.18607200000113
 20
-150.4312459999998
 10
182.21198000000112
 20
-150.38603399999977
 10
182.2368720000011
 20
-150.34031399999978
 10
182.26100200000113
 20
-150.2940859999998
 10
182.28411600000112
 20
-150.2476039999998
 10
182.30646800000113
 20
-150.2006139999998
 10
182.32805800000114
 20
-150.1531159999998
 10
182.34863200000115
 20
-150.1053639999998
 10
182.36869800000113
 20
-150.05710399999978
 10
182.38800200000114
 20
-150.00858999999977
 10
182.40654400000113
 20
-149.95982199999978
 10
182.42432400000112
 20
-149.9107999999998
 10
182.44159600000114
 20
-149.8615239999998
 10
182.45836000000114
 20
-149.81199399999977
 10
182.47436200000112
 20
-149.76220999999978
 10
182.48985600000114
 20
-149.71217199999978
 10
182.50509600000112
 20
-149.66187999999977
 10
182.51982800000113
 20
-149.6113339999998
 10
182.53405200000114
 20
-149.5607879999998
 10
182.54776800000113
 20
-149.5099879999998
 10
182.56123000000113
 20
-149.45893399999977
 10
182.57443800000112
 20
-149.40787999999978
 10
182.58739200000116
 20
-149.35682599999978
 10
182.59983800000114
 20
-149.30577199999976
 10
182.61228400000113
 20
-149.25446399999976
 10
182.62447600000112
 20
-149.20315599999978
 10
182.63641400000114
 20
-149.15184799999977
 10
182.64835200000115
 20
-149.10053999999977
 10
182.66003600000116
 20
-149.04948599999977
 10
182.6717200000012
 20
-148.99843199999975
 10
182.68315000000118
 20
-148.94890199999975
 10
182.69458000000114
 20
-148.89937199999974
 10
182.70601000000113
 20
-148.8498419999997
 10
182.71744000000112
 20
-148.8003119999997
 10
182.7288700000011
 20
-148.7507819999997
 10
182.7403000000011
 20
-148.70125199999967
 10
182.7517300000011
 20
-148.65172199999967
 10
182.76316000000108
 20
-148.60219199999966
 10
182.77459000000107
 20
-148.55266199999966
 10
182.78602000000106
 20
-148.50313199999962
 10
182.79745000000105
 20
-148.45360199999962
 10
182.80888000000104
 20
-148.40407199999962
 10
182.82031000000103
 20
-148.35454199999958
 10
182.83174000000102
 20
-148.30501199999958
 10
182.843170000001
 20
-148.25548199999957
 10
182.854600000001
 20
-148.20595199999954
 10
182.866030000001
 20
-148.15642199999954
 10
182.87746000000098
 20
-148.10689199999953
 10
182.88889000000097
 20
-148.05736199999953
 10
182.90032000000096
 20
-148.0078319999995
 10
182.91175000000095
 20
-147.9583019999995
 10
182.92318000000094
 20
-147.9087719999995
 10
182.93461000000093
 20
-147.85924199999945
 10
182.94604000000092
 20
-147.80971199999945
 10
182.9574700000009
 20
-147.76018199999945
 10
182.9689000000009
 20
-147.7106519999994
 10
182.9803300000009
 20
-147.6611219999994
 10
182.99176000000088
 20
-147.6115919999994
 10
183.00319000000087
 20
-147.5620619999994
 10
183.01462000000086
 20
-147.51253199999937
 10
183.02605000000085
 20
-147.46300199999936
 10
183.03748000000084
 20
-147.41347199999936
 10
183.13374600000085
 20
-147.05126799999934
 10
183.23001200000084
 20
-146.68906399999932
 10
183.32627800000085
 20
-146.32685999999933
 10
183.42254400000087
 20
-145.9646559999993
 10
183.51881000000085
 20
-145.6024519999993
 10
183.61507600000087
 20
-145.24024799999927
 10
183.71134200000088
 20
-144.87804399999928
 10
183.80760800000087
 20
-144.51583999999926
 10
183.90387400000088
 20
-144.15363599999924
 10
184.0001400000009
 20
-143.79143199999925
 10
184.09640600000088
 20
-143.42922799999923
 10
184.1926720000009
 20
-143.0670239999992
 10
184.2889380000009
 20
-142.70481999999922
 10
184.3852040000009
 20
-142.3426159999992
 10
184.4814700000009
 20
-141.98041199999918
 10
184.57773600000093
 20
-141.61820799999916
 10
184.6740020000009
 20
-141.25600399999917
 10
184.77026800000093
 20
-140.89379999999915
 10
184.86653400000094
 20
-140.53159599999913
 10
184.96280000000093
 20
-140.16939199999914
 10
185.05906600000094
 20
-139.80718799999912
 10
185.15533200000095
 20
-139.4449839999991
 10
185.25159800000094
 20
-139.0827799999991
 10
185.34786400000095
 20
-138.72057599999908
 10
185.44413000000097
 20
-138.35837199999906
 10
185.54039600000095
 20
-137.99616799999905
 10
185.63666200000097
 20
-137.63396399999905
 10
185.73292800000098
 20
-137.27175999999903
 10
185.829194000001
 20
-136.90955599999901
 10
185.92546000000098
 20
-136.54735199999902
 10
186.021726000001
 20
-136.185147999999
 10
186.117992000001
 20
-135.82294399999898
 10
186.210956000001
 20
-135.481059999999
 10
186.302650000001
 20
-135.140699999999
 10
186.39307400000098
 20
-134.80160999999896
 10
186.48248200000097
 20
-134.46378999999897
 10
186.57087400000097
 20
-134.12723999999895
 10
186.65825000000098
 20
-133.79170599999895
 10
186.744610000001
 20
-133.45718799999895
 10
186.830208000001
 20
-133.12343199999896
 10
186.915298000001
 20
-132.79043799999894
 10
186.999626000001
 20
-132.45820599999894
 10
187.083446000001
 20
-132.12648199999893
 10
187.167012000001
 20
-131.79526599999895
 10
187.250070000001
 20
-131.46455799999893
 10
187.332874000001
 20
-131.13410399999893
 10
187.41542400000102
 20
-130.80390399999894
 10
187.49797400000102
 20
-130.47370399999895
 10
187.58052400000105
 20
-130.14350399999896
 10
187.66307400000105
 20
-129.81330399999896
 10
187.74587800000106
 20
-129.48284999999896
 10
187.82893600000105
 20
-129.15214199999895
 10
187.91224800000106
 20
-128.82092599999896
 10
187.99606800000106
 20
-128.48920199999895
 10
188.08014200000105
 20
-128.15696999999898
 10
188.16497800000104
 20
-127.82397599999896
 10
188.25032200000106
 20
-127.49021999999897
 10
188.33642800000106
 20
-127.15544799999897
 10
188.42329600000107
 20
-126.81991399999896
 10
188.51118000000105
 20
-126.48310999999896
 10
188.60008000000107
 20
-126.14528999999897
 10
188.6899960000011
 20
-125.80619999999897
 10
188.78118200000108
 20
-125.46558599999896
 10
188.8733840000011
 20
-125.12370199999896
 10
188.96584000000112
 20
-124.78232599999896
 10
189.05829600000112
 20
-124.44094999999896
 10
189.15075200000112
 20
-124.09957399999897
 10
189.24320800000115
 20
-123.75819799999897
 10
189.33541000000116
 20
-123.41682199999897
 10
189.42761200000118
 20
-123.07544599999898
 10
189.5198140000012
 20
-122.73406999999898
 10
189.61176200000116
 20
-122.39269399999897
 10
189.70371000000117
 20
-122.05131799999897
 10
189.79565800000114
 20
-121.70994199999897
 10
189.88760600000114
 20
-121.36856599999898
 10
189.97930000000113
 20
-121.02718999999898
 10
190.07099400000115
 20
-120.68581399999898
 10
190.16243400000113
 20
-120.34418399999898
 10
190.25387400000113
 20
-120.00255399999897
 10
190.34531400000114
 20
-119.66092399999896
 10
190.43650000000116
 20
-119.31929399999895
 10
190.52768600000115
 20
-118.97766399999895
 10
190.61887200000118
 20
-118.63603399999894
 10
190.70980400000116
 20
-118.29440399999893
 10
190.80073600000114
 20
-117.95277399999893
 10
190.89141400000113
 20
-117.61114399999892
 10
190.98209200000113
 20
-117.2695139999989
 10
191.07277000000113
 20
-116.92762999999891
 10
191.1631940000011
 20
-116.5857459999989
 10
191.25361800000113
 20
-116.24386199999891
 10
191.34378800000113
 20
-115.9019779999989
 10
191.43395800000113
 20
-115.56009399999891
 10
191.52387400000114
 20
-115.2182099999989
 10
191.61379000000116
 20
-114.87632599999891
 10
191.70345200000114
 20
-114.5344419999989
 10
191.79311400000114
 20
-114.19230399999891
 10
191.88353800000112
 20
-113.84610199999891
 10
191.97396200000114
 20
-113.49964599999892
 10
192.06413200000114
 20
-113.15318999999893
 10
192.15430200000114
 20
-112.80673399999893
 10
192.24421800000115
 20
-112.46027799999894
 10
192.33413400000117
 20
-112.11382199999895
 10
192.42379600000115
 20
-111.76736599999894
 10
192.51320400000114
 20
-111.42090999999895
 10
192.60261200000113
 20
-111.07419999999895
 10
192.69176600000114
 20
-110.72748999999895
 10
192.78092000000115
 20
-110.38077999999895
 10
192.86982000000114
 20
-110.03406999999895
 10
192.95846600000115
 20
-109.68735999999895
 10
193.04711200000116
 20
-109.34064999999894
 10
193.13550400000116
 20
-108.99368599999895
 10
193.22364200000115
 20
-108.64672199999895
 10
193.31178000000114
 20
-108.29975799999895
 10
193.39966400000114
 20
-107.95279399999896
 10
193.48729400000116
 20
-107.60582999999896
 10
193.57492400000115
 20
-107.25886599999896
 10
193.66230000000118
 20
-106.91164799999896
 10
193.74942200000115
 20
-106.56442999999895
 10
193.83629000000116
 20
-106.21721199999895
 10
193.92315800000114
 20
-105.86999399999894
 10
194.00977200000116
 20
-105.52277599999894
 10
194.09613200000115
 20
-105.17530399999895
 10
194.18223800000118
 20
-104.82783199999893
 10
194.26834400000118
 20
-104.48035999999894
 10
194.35419600000117
 20
-104.13288799999894
 10
194.43979400000117
 20
-103.78541599999895
 10
194.5251380000012
 20
-103.43768999999894
 10
194.6102280000012
 20
-103.08996399999893
 10
194.6981120000012
 20
-102.73436399999893
 10
194.7875200000012
 20
-102.37825599999894
 10
194.87845200000118
 20
-102.02163999999894
 10
194.9706540000012
 20
-101.66476999999895
 10
195.0641260000012
 20
-101.30739199999896
 10
195.1586140000012
 20
-100.94975999999895
 10
195.25411800000117
 20
-100.59161999999894
 10
195.3501300000012
 20
-100.23322599999894
 10
195.44690400000118
 20
-99.87457799999895
 10
195.54393200000118
 20
-99.51567599999895
 10
195.64121400000118
 20
-99.15651999999895
 10
195.73875000000118
 20
-98.79710999999894
 10
195.8362860000012
 20
-98.43744599999894
 10
195.9335680000012
 20
-98.07752799999895
 10
196.03034200000118
 20
-97.71735599999894
 10
196.1266080000012
 20
-97.35718399999895
 10
196.2223660000012
 20
-96.99675799999895
 10
196.3173620000012
 20
-96.63633199999896
 10
196.41134200000118
 20
-96.27565199999896
 10
196.50430600000118
 20
-95.91497199999894
 10
196.5960000000012
 20
-95.55429199999894
 10
196.6861700000012
 20
-95.19361199999894
 10
196.7748160000012
 20
-94.83267799999894
 10
196.8616840000012
 20
-94.47174399999894
 10
196.9467740000012
 20
-94.11106399999893
 10
197.02983200000122
 20
-93.75038399999893
 10
197.11060400000122
 20
-93.38970399999893
 10
197.1890900000012
 20
-93.02902399999893
 10
197.2650360000012
 20
-92.66859799999894
 10
197.33844200000118
 20
-92.30817199999893
 10
197.4090540000012
 20
-91.94799999999893
 10
197.4766180000012
 20
-91.58808199999893
 10
197.5126860000012
 20
-91.36786399999893
 10
197.54011800000117
 20
-91.14840799999894
 10
197.5591680000012
 20
-90.93022199999895
 10
197.56958200000122
 20
-90.71355999999895
 10
197.57186800000122
 20
-90.49892999999894
 10
197.5657720000012
 20
-90.28683999999895
 10
197.5515480000012
 20
-90.07754399999894
 10
197.5294500000012
 20
-89.87129599999894
 10
197.4994780000012
 20
-89.66860399999894
 10
197.4618860000012
 20
-89.46997599999894
 10
197.41642000000118
 20
-89.27566599999895
 10
197.3635880000012
 20
-89.08618199999894
 10
197.3033900000012
 20
-88.90203199999894
 10
197.23582600000123
 20
-88.72346999999895
 10
197.16115000000121
 20
-88.55074999999894
 10
197.07936200000123
 20
-88.38437999999896
 10
196.9904620000012
 20
-88.22486799999896
 10
196.89470400000124
 20
-88.07246799999895
 10
196.7923420000012
 20
-87.92768799999895
 10
196.68337600000123
 20
-87.79078199999896
 10
196.5678060000012
 20
-87.66225799999897
 10
196.44588600000122
 20
-87.54262399999897
 10
196.3176160000012
 20
-87.43213399999897
 10
196.1832500000012
 20
-87.33129599999897
 10
196.04278800000122
 20
-87.24036399999896
 10
195.8964840000012
 20
-87.15984599999896
 10
195.7443380000012
 20
-87.08999599999896
 10
195.58660400000122
 20
-87.03132199999897
 10
195.4232820000012
 20
-86.98433199999897
 10
195.2543720000012
 20
-86.94927999999898
 10
195.0801280000012
 20
-86.92641999999898
 10
194.9005500000012
 20
-86.91651399999898
  0
LWPOLYLINE
  5
37
330
17
100
AcDbEntity
  8
0
100
AcDbPolyline
 90
513
 70
0
 10
198.9891880000012
 20
-87.15552799999898
 10
199.07275400000117
 20
-87.28125799999899
 10
199.1479380000012
 20
-87.40749599999899
 10
199.2147400000012
 20
-87.53449599999898
 10
199.27366800000118
 20
-87.66200399999899
 10
199.3252300000012
 20
-87.79001999999899
 10
199.36942600000117
 20
-87.91854399999899
 10
199.4067640000012
 20
-88.04757599999898
 10
199.4374980000012
 20
-88.17711599999897
 10
199.4618820000012
 20
-88.30690999999898
 10
199.48017000000118
 20
-88.43721199999898
 10
199.49287000000118
 20
-88.56802199999898
 10
199.50023600000117
 20
-88.69908599999897
 10
199.5025220000012
 20
-88.83065799999898
 10
199.50023600000117
 20
-88.96248399999897
 10
199.49337800000117
 20
-89.09456399999897
 10
199.48245600000118
 20
-89.22689799999897
 10
199.46772400000117
 20
-89.35948599999897
 10
199.44969000000117
 20
-89.49232799999898
 10
199.42835400000118
 20
-89.62542399999897
 10
199.40422400000116
 20
-89.75877399999897
 10
199.37755400000117
 20
-89.89237799999897
 10
199.34885200000116
 20
-90.02598199999898
 10
199.31811800000116
 20
-90.15983999999897
 10
199.28586000000118
 20
-90.29369799999897
 10
199.2523320000012
 20
-90.42780999999897
 10
199.21778800000118
 20
-90.56192199999897
 10
199.18273600000117
 20
-90.69603399999899
 10
199.14743000000118
 20
-90.83014599999899
 10
199.11212400000116
 20
-90.96425799999899
 10
199.07707200000115
 20
-91.098369999999
 10
199.04278200000115
 20
-91.23248199999901
 10
199.0092540000012
 20
-91.36659399999901
 10
198.9856320000012
 20
-91.462605999999
 10
198.96201000000121
 20
-91.558617999999
 10
198.9383880000012
 20
-91.654629999999
 10
198.9147660000012
 20
-91.75064199999899
 10
198.89114400000122
 20
-91.84665399999899
 10
198.86752200000123
 20
-91.942665999999
 10
198.84390000000124
 20
-92.03867799999898
 10
198.82027800000125
 20
-92.13468999999898
 10
198.79665600000126
 20
-92.23070199999897
 10
198.77303400000127
 20
-92.32671399999897
 10
198.74941200000129
 20
-92.42272599999897
 10
198.7257900000013
 20
-92.51873799999896
 10
198.7021680000013
 20
-92.61474999999896
 10
198.67854600000132
 20
-92.71076199999897
 10
198.65492400000133
 20
-92.80677399999895
 10
198.63130200000134
 20
-92.90278599999895
 10
198.60768000000135
 20
-92.99879799999894
 10
198.58405800000136
 20
-93.09480999999894
 10
198.56043600000137
 20
-93.19082199999895
 10
198.53681400000139
 20
-93.28683399999893
 10
198.5131920000014
 20
-93.38284599999893
 10
198.4895700000014
 20
-93.47885799999894
 10
198.46594800000142
 20
-93.57486999999892
 10
198.44232600000143
 20
-93.67088199999893
 10
198.41870400000144
 20
-93.76689399999891
 10
198.39508200000145
 20
-93.86290599999892
 10
198.37146000000146
 20
-93.95891799999892
 10
198.34783800000145
 20
-94.0549299999989
 10
198.32421600000146
 20
-94.1509419999989
 10
198.30059400000147
 20
-94.2469539999989
 10
198.27697200000148
 20
-94.3429659999989
 10
198.2533500000015
 20
-94.4389779999989
 10
198.21144000000152
 20
-94.61042799999889
 10
198.16953000000152
 20
-94.7818779999989
 10
198.1276200000015
 20
-94.9533279999989
 10
198.08571000000154
 20
-95.12477799999891
 10
198.04380000000154
 20
-95.2962279999989
 10
198.00189000000157
 20
-95.46767799999891
 10
197.95998000000156
 20
-95.63912799999892
 10
197.91807000000156
 20
-95.81057799999891
 10
197.8761600000016
 20
-95.98202799999892
 10
197.8342500000016
 20
-96.15347799999893
 10
197.7923400000016
 20
-96.32492799999892
 10
197.75043000000161
 20
-96.49637799999893
 10
197.7085200000016
 20
-96.66782799999893
 10
197.66661000000164
 20
-96.83927799999893
 10
197.62470000000164
 20
-97.01072799999893
 10
197.58279000000164
 20
-97.18217799999894
 10
197.54088000000166
 20
-97.35362799999895
 10
197.49897000000166
 20
-97.52507799999894
 10
197.45706000000166
 20
-97.69652799999895
 10
197.4151500000017
 20
-97.86797799999896
 10
197.3732400000017
 20
-98.03942799999895
 10
197.3313300000017
 20
-98.21087799999896
 10
197.2894200000017
 20
-98.38232799999896
 10
197.2475100000017
 20
-98.55377799999896
 10
197.20560000000174
 20
-98.72522799999896
 10
197.16369000000174
 20
-98.89667799999897
 10
197.12178000000173
 20
-99.06812799999898
 10
197.07987000000176
 20
-99.23957799999897
 10
197.03796000000176
 20
-99.41102799999898
 10
196.9960500000018
 20
-99.58247799999899
 10
196.9541400000018
 20
-99.75392799999898
 10
196.91223000000178
 20
-99.92537799999899
 10
196.9084200000018
 20
-99.94087199999898
 10
196.9046100000018
 20
-99.95636599999898
 10
196.9008000000018
 20
-99.97185999999897
 10
196.8969900000018
 20
-99.98735399999896
 10
196.89318000000182
 20
-100.00284799999896
 10
196.8893700000018
 20
-100.01834199999895
 10
196.88556000000182
 20
-100.03383599999894
 10
196.88175000000183
 20
-100.04932999999895
 10
196.87794000000181
 20
-100.06482399999894
 10
196.87413000000183
 20
-100.08031799999893
 10
196.87032000000184
 20
-100.09581199999893
 10
196.86651000000182
 20
-100.11130599999892
 10
196.86270000000184
 20
-100.12679999999891
 10
196.85889000000185
 20
-100.14229399999891
 10
196.85508000000183
 20
-100.1577879999989
 10
196.85127000000185
 20
-100.1732819999989
 10
196.84746000000186
 20
-100.1887759999989
 10
196.84365000000184
 20
-100.20426999999889
 10
196.83984000000186
 20
-100.21976399999889
 10
196.83603000000187
 20
-100.23525799999888
 10
196.83222000000185
 20
-100.25075199999887
 10
196.82841000000187
 20
-100.26624599999887
 10
196.82460000000188
 20
-100.28173999999886
 10
196.82079000000186
 20
-100.29723399999885
 10
196.81698000000188
 20
-100.31272799999886
 10
196.8131700000019
 20
-100.32822199999885
 10
196.80936000000187
 20
-100.34371599999884
 10
196.8055500000019
 20
-100.35920999999884
 10
196.8017400000019
 20
-100.37470399999883
 10
196.7979300000019
 20
-100.39019799999882
 10
196.7941200000019
 20
-100.40569199999882
 10
196.7903100000019
 20
-100.42118599999881
 10
196.7712600000019
 20
-100.48570199999882
 10
196.7522100000019
 20
-100.55021799999882
 10
196.7329060000019
 20
-100.61473399999883
 10
196.71334800000187
 20
-100.67899599999882
 10
196.69379000000188
 20
-100.74325799999882
 10
196.67397800000188
 20
-100.80751999999882
 10
196.6539120000019
 20
-100.87178199999882
 10
196.6338460000019
 20
-100.93604399999882
 10
196.6135260000019
 20
-101.00005199999882
 10
196.59320600000189
 20
-101.06405999999882
 10
196.57263200000187
 20
-101.12806799999882
 10
196.55180400000188
 20
-101.19207599999882
 10
196.53097600000189
 20
-101.25608399999882
 10
196.5098940000019
 20
-101.31983799999881
 10
196.48855800000192
 20
-101.38359199999881
 10
196.46722200000193
 20
-101.4473459999988
 10
196.44563200000192
 20
-101.51109999999879
 10
196.4237880000019
 20
-101.5748539999988
 10
196.40194400000192
 20
-101.63860799999878
 10
196.37984600000192
 20
-101.70210799999879
 10
196.3574940000019
 20
-101.76560799999879
 10
196.33514200000192
 20
-101.82910799999878
 10
196.3125360000019
 20
-101.89260799999879
 10
196.2896760000019
 20
-101.95610799999878
 10
196.2668160000019
 20
-102.01935399999878
 10
196.2437020000019
 20
-102.08259999999879
 10
196.22033400000188
 20
-102.1458459999988
 10
196.1969660000019
 20
-102.2090919999988
 10
196.17334400000192
 20
-102.27233799999881
 10
196.1494680000019
 20
-102.33558399999882
 10
196.1255920000019
 20
-102.39857599999881
 10
196.10146200000187
 20
-102.46156799999882
 10
196.1047640000019
 20
-102.46029799999882
 10
196.10806600000188
 20
-102.45902799999882
 10
196.1113680000019
 20
-102.45775799999882
 10
196.11467000000192
 20
-102.45648799999883
 10
196.1179720000019
 20
-102.45521799999882
 10
196.12127400000193
 20
-102.45394799999882
 10
196.12457600000195
 20
-102.45267799999883
 10
196.12787800000194
 20
-102.45140799999882
 10
196.13118000000196
 20
-102.45013799999883
 10
196.13448200000195
 20
-102.44886799999882
 10
196.13778400000197
 20
-102.44759799999883
 10
196.141086000002
 20
-102.44632799999883
 10
196.144642000002
 20
-102.44505799999884
 10
196.148198000002
 20
-102.44378799999883
 10
196.151754000002
 20
-102.44251799999883
 10
196.155310000002
 20
-102.44124799999884
 10
196.158866000002
 20
-102.43997799999883
 10
196.162422000002
 20
-102.43870799999884
 10
196.165978000002
 20
-102.43743799999883
 10
196.169534000002
 20
-102.43616799999884
 10
196.173090000002
 20
-102.43489799999884
 10
196.176646000002
 20
-102.43362799999885
 10
196.179948000002
 20
-102.43235799999884
 10
196.18325000000203
 20
-102.43108799999884
 10
196.18655200000202
 20
-102.42981799999885
 10
196.18985400000204
 20
-102.42854799999884
 10
196.19315600000206
 20
-102.42727799999885
 10
196.19645800000205
 20
-102.42600799999884
 10
196.19976000000207
 20
-102.42473799999885
 10
196.20306200000206
 20
-102.42346799999885
 10
196.20636400000208
 20
-102.42219799999886
 10
196.2096660000021
 20
-102.42092799999885
 10
196.2424320000021
 20
-102.37774799999885
 10
196.2757060000021
 20
-102.33482199999885
 10
196.3094880000021
 20
-102.29240399999885
 10
196.3440320000021
 20
-102.25049399999885
 10
196.3790840000021
 20
-102.20883799999886
 10
196.41464400000208
 20
-102.16768999999887
 10
196.4507120000021
 20
-102.12704999999886
 10
196.4872880000021
 20
-102.08691799999886
 10
196.5243720000021
 20
-102.04703999999886
 10
196.56196400000212
 20
-102.00766999999887
 10
196.6000640000021
 20
-101.96880799999886
 10
196.63867200000212
 20
-101.93045399999886
 10
196.67778800000212
 20
-101.89260799999886
 10
196.7176660000021
 20
-101.85526999999885
 10
196.75805200000212
 20
-101.81843999999886
 10
196.7989460000021
 20
-101.78211799999887
 10
196.8403480000021
 20
-101.74630399999887
 10
196.8822580000021
 20
-101.71099799999887
 10
196.9246760000021
 20
-101.67619999999886
 10
196.9676020000021
 20
-101.64190999999887
 10
197.01103600000212
 20
-101.60812799999887
 10
197.0549780000021
 20
-101.57485399999888
 10
197.0994280000021
 20
-101.54208799999887
 10
197.1443860000021
 20
-101.51008399999888
 10
197.1898520000021
 20
-101.47858799999888
 10
197.2358260000021
 20
-101.44759999999887
 10
197.2823080000021
 20
-101.41711999999887
 10
197.3292980000021
 20
-101.38740199999886
 10
197.3767960000021
 20
-101.35819199999887
 10
197.4248020000021
 20
-101.32948999999886
 10
197.4730620000021
 20
-101.30129599999887
 10
197.5218300000021
 20
-101.27386399999887
 10
197.61428600000212
 20
-101.22382599999887
 10
197.70648800000214
 20
-101.17632799999886
 10
197.7984360000021
 20
-101.13136999999885
 10
197.89038400000211
 20
-101.08869799999886
 10
197.9820780000021
 20
-101.04831199999886
 10
198.0735180000021
 20
-101.01021199999886
 10
198.16495800000212
 20
-100.97414399999886
 10
198.25639800000212
 20
-100.94036199999887
 10
198.34758400000212
 20
-100.90861199999887
 10
198.43877000000214
 20
-100.87889399999887
 10
198.52995600000216
 20
-100.85120799999886
 10
198.62114200000215
 20
-100.82529999999888
 10
198.71232800000217
 20
-100.80142399999887
 10
198.80351400000217
 20
-100.77932599999887
 10
198.89495400000217
 20
-100.75900599999888
 10
198.98639400000218
 20
-100.74046399999888
 10
199.07808800000217
 20
-100.7236999999989
 10
199.1697820000022
 20
-100.7084599999989
 10
199.26173000000216
 20
-100.69474399999889
 10
199.35393200000217
 20
-100.68255199999889
 10
199.4463880000022
 20
-100.67188399999891
 10
199.53909800000218
 20
-100.6627399999989
 10
199.63206200000218
 20
-100.6548659999989
 10
199.7252800000022
 20
-100.6482619999989
 10
199.8187520000022
 20
-100.6429279999989
 10
199.9124780000022
 20
-100.63886399999889
 10
200.0067120000022
 20
-100.63606999999888
 10
200.1012000000022
 20
-100.63429199999888
 10
200.1961960000022
 20
-100.63378399999888
 10
200.29170000000218
 20
-100.63429199999888
 10
200.38745800000217
 20
-100.63556199999888
 10
200.48372400000218
 20
-100.63784799999888
 10
200.57414800000217
 20
-100.12171999999889
 10
200.66787400000217
 20
-99.6060999999989
 10
200.76490200000217
 20
-99.0912419999989
 10
200.86523200000218
 20
-98.5768919999989
 10
200.96886400000216
 20
-98.06330399999891
 10
201.07579800000218
 20
-97.55022399999892
 10
201.18603400000217
 20
-97.03790599999891
 10
201.29957200000217
 20
-96.52634999999891
 10
201.41615800000216
 20
-96.01555599999891
 10
201.53604600000216
 20
-95.50552399999891
 10
201.65923600000215
 20
-94.99625399999891
 10
201.78572800000217
 20
-94.48774599999891
 10
201.91552200000217
 20
-93.97999999999891
 10
202.04836400000218
 20
-93.4730159999989
 10
202.18450800000215
 20
-92.9670479999989
 10
202.32395400000215
 20
-92.46184199999891
 10
202.46670200000216
 20
-91.9576519999989
 10
202.61249800000215
 20
-91.4542239999989
 10
202.76159600000213
 20
-90.9518119999989
 10
202.91399600000216
 20
-90.4504159999989
 10
203.06944400000214
 20
-89.95003599999889
 10
203.22819400000213
 20
-89.45067199999889
 10
203.39024600000215
 20
-88.9523239999989
 10
203.55534600000215
 20
-88.45499199999888
 10
203.72374800000213
 20
-87.95867599999889
 10
203.89519800000213
 20
-87.46362999999889
 10
204.06995000000214
 20
-86.96959999999888
 10
204.24775000000213
 20
-86.47658599999889
 10
204.42885200000214
 20
-85.98484199999889
 10
204.61300200000213
 20
-85.4943679999989
 10
204.80045400000216
 20
-85.0049099999989
 10
204.99095400000215
 20
-84.5167219999989
 10
204.85760400000217
 20
-84.5167219999989
 10
204.72425400000216
 20
-84.5167219999989
 10
204.59090400000215
 20
-84.5167219999989
 10
204.45755400000218
 20
-84.5167219999989
 10
204.32420400000217
 20
-84.5167219999989
 10
204.1908540000022
 20
-84.5167219999989
 10
204.05750400000218
 20
-84.5167219999989
 10
203.9241540000022
 20
-84.5167219999989
 10
203.7908040000022
 20
-84.5167219999989
 10
203.65745400000222
 20
-84.5167219999989
 10
203.5241040000022
 20
-84.5167219999989
 10
203.39075400000223
 20
-84.5167219999989
 10
203.25740400000223
 20
-84.5167219999989
 10
203.12405400000222
 20
-84.5167219999989
 10
202.99070400000224
 20
-84.5167219999989
 10
202.85735400000223
 20
-84.5167219999989
 10
202.72400400000225
 20
-84.5167219999989
 10
202.59065400000225
 20
-84.5167219999989
 10
202.45730400000227
 20
-84.5167219999989
 10
202.32395400000226
 20
-84.5167219999989
 10
202.19060400000228
 20
-84.5167219999989
 10
202.05725400000227
 20
-84.5167219999989
 10
201.9239040000023
 20
-84.5167219999989
 10
201.7905540000023
 20
-84.5167219999989
 10
201.6572040000023
 20
-84.5167219999989
 10
201.5238540000023
 20
-84.5167219999989
 10
201.3905040000023
 20
-84.5167219999989
 10
201.25715400000232
 20
-84.5167219999989
 10
201.1238040000023
 20
-84.5167219999989
 10
200.99045400000233
 20
-84.5167219999989
 10
200.85710400000232
 20
-84.5167219999989
 10
200.72375400000234
 20
-84.5167219999989
 10
200.48575600000234
 20
-84.5167219999989
 10
200.24775800000234
 20
-84.5167219999989
 10
200.00976000000233
 20
-84.5167219999989
 10
199.7720160000023
 20
-84.5167219999989
 10
199.5340180000023
 20
-84.5167219999989
 10
199.2960200000023
 20
-84.5167219999989
 10
199.0580220000023
 20
-84.5167219999989
 10
198.8200240000023
 20
-84.5167219999989
 10
198.58202600000232
 20
-84.5167219999989
 10
198.3440280000023
 20
-84.5167219999989
 10
198.1060300000023
 20
-84.5167219999989
 10
197.8680320000023
 20
-84.5167219999989
 10
197.63028800000228
 20
-84.5167219999989
 10
197.39229000000228
 20
-84.5167219999989
 10
197.15429200000227
 20
-84.5167219999989
 10
196.91629400000227
 20
-84.5167219999989
 10
196.67829600000226
 20
-84.5167219999989
 10
196.44029800000226
 20
-84.5167219999989
 10
196.20230000000225
 20
-84.5167219999989
 10
195.96430200000228
 20
-84.5167219999989
 10
195.72630400000227
 20
-84.5167219999989
 10
195.48856000000225
 20
-84.5167219999989
 10
195.25056200000225
 20
-84.5167219999989
 10
195.01256400000224
 20
-84.5167219999989
 10
194.77456600000224
 20
-84.5167219999989
 10
194.53656800000223
 20
-84.5167219999989
 10
194.29857000000223
 20
-84.5167219999989
 10
194.06057200000222
 20
-84.5167219999989
 10
193.82257400000222
 20
-84.5167219999989
 10
193.58457600000222
 20
-84.5167219999989
 10
193.34683200000222
 20
-84.5167219999989
 10
193.10883400000222
 20
-84.5167219999989
 10
193.0580340000022
 20
-84.5167219999989
 10
193.0072340000022
 20
-84.5167219999989
 10
192.9564340000022
 20
-84.5167219999989
 10
192.90563400000218
 20
-84.5167219999989
 10
192.85483400000217
 20
-84.5167219999989
 10
192.80403400000213
 20
-84.5167219999989
 10
192.75323400000212
 20
-84.5167219999989
 10
192.7024340000021
 20
-84.5167219999989
 10
192.6516340000021
 20
-84.5167219999989
 10
192.6008340000021
 20
-84.5167219999989
 10
192.55003400000209
 20
-84.5167219999989
 10
192.49923400000208
 20
-84.5167219999989
 10
192.44843400000207
 20
-84.5167219999989
 10
192.39763400000206
 20
-84.5167219999989
 10
192.34683400000205
 20
-84.5167219999989
 10
192.29603400000204
 20
-84.5167219999989
 10
192.24523400000203
 20
-84.5167219999989
 10
192.19443400000202
 20
-84.5167219999989
 10
192.143634000002
 20
-84.5167219999989
 10
192.09283400000197
 20
-84.5167219999989
 10
192.04203400000196
 20
-84.5167219999989
 10
191.99123400000195
 20
-84.5167219999989
 10
191.94043400000194
 20
-84.5167219999989
 10
191.88963400000193
 20
-84.5167219999989
 10
191.83883400000192
 20
-84.5167219999989
 10
191.78803400000191
 20
-84.5167219999989
 10
191.7372340000019
 20
-84.5167219999989
 10
191.6864340000019
 20
-84.5167219999989
 10
191.6356340000019
 20
-84.5167219999989
 10
191.58483400000188
 20
-84.5167219999989
 10
191.53403400000187
 20
-84.5167219999989
 10
191.48323400000186
 20
-84.5167219999989
 10
191.51904800000185
 20
-84.51722999999889
 10
191.55511600000185
 20
-84.51875399999888
 10
191.59169200000184
 20
-84.52129399999887
 10
191.62852200000185
 20
-84.52459599999888
 10
191.66560600000184
 20
-84.52891399999888
 10
191.70294400000185
 20
-84.53399399999887
 10
191.74053600000187
 20
-84.53983599999887
 10
191.77838200000184
 20
-84.54618599999887
 10
191.81648200000186
 20
-84.55329799999888
 10
191.85483600000182
 20
-84.56091799999886
 10
191.89319000000182
 20
-84.56904599999886
 10
191.93179800000183
 20
-84.57768199999886
 10
191.97040600000184
 20
-84.58682599999887
 10
192.00901400000186
 20
-84.59647799999887
 10
192.04762200000187
 20
-84.60638399999885
 10
192.08623000000188
 20
-84.61654399999887
 10
192.1248380000019
 20
-84.62695799999887
 10
192.1634460000019
 20
-84.63762599999886
 10
192.2020540000019
 20
-84.64829399999886
 10
192.2404080000019
 20
-84.65921599999885
 10
192.2787620000019
 20
-84.67013799999886
 10
192.3168620000019
 20
-84.68105999999885
 10
192.35496200000188
 20
-84.69172799999885
 10
192.39280800000188
 20
-84.70239599999884
 10
192.4304000000019
 20
-84.71280999999884
 10
192.4677380000019
 20
-84.72296999999885
 10
192.5048220000019
 20
-84.73287599999884
 10
192.5413980000019
 20
-84.74252799999884
 10
192.5777200000019
 20
-84.75192599999885
 10
192.6135340000019
 20
-84.76081599999885
 10
192.6490940000019
 20
-84.76919799999885
 10
192.6841460000019
 20
-84.77707199999885
 10
192.7171660000019
 20
-84.78418399999886
 10
192.7501860000019
 20
-84.79129599999887
 10
192.78320600000188
 20
-84.79840799999887
 10
192.81622600000188
 20
-84.80577399999886
 10
192.8492460000019
 20
-84.81313999999887
 10
192.8822660000019
 20
-84.82050599999887
 10
192.91528600000188
 20
-84.82787199999886
 10
192.94830600000188
 20
-84.83523799999887
 10
192.98132600000187
 20
-84.84260399999886
 10
193.0143460000019
 20
-84.84996999999886
 10
193.0473660000019
 20
-84.85733599999887
 10
193.08038600000188
 20
-84.86470199999886
 10
193.11340600000187
 20
-84.87206799999886
 10
193.14642600000187
 20
-84.87943399999885
 10
193.17944600000186
 20
-84.88679999999886
 10
193.21246600000188
 20
-84.89416599999886
 10
193.24548600000188
 20
-84.90153199999885
 10
193.27850600000187
 20
-84.90889799999886
 10
193.31152600000186
 20
-84.91626399999885
 10
193.34454600000186
 20
-84.92362999999885
 10
193.37756600000188
 20
-84.93099599999886
 10
193.41058600000187
 20
-84.93836199999885
 10
193.44360600000186
 20
-84.94572799999885
 10
193.47662600000186
 20
-84.95309399999886
 10
193.50964600000185
 20
-84.96045999999885
 10
193.54266600000187
 20
-84.96782599999885
 10
193.57568600000187
 20
-84.97519199999884
 10
193.60870600000186
 20
-84.98255799999885
 10
193.64172600000185
 20
-84.98992399999885
 10
193.67474600000185
 20
-84.99728999999884
 10
193.70776600000187
 20
-85.00490999999883
 10
193.74078600000186
 20
-85.01252999999883
 10
193.79692000000185
 20
-85.02548399999883
 10
193.85305400000186
 20
-85.03843799999882
 10
193.90918800000185
 20
-85.05139199999883
 10
193.96532200000186
 20
-85.06434599999882
 10
194.02145600000185
 20
-85.07729999999881
 10
194.07759000000186
 20
-85.09050799999882
 10
194.13372400000185
 20
-85.10371599999883
 10
194.18985800000186
 20
-85.11692399999883
 10
194.24599200000188
 20
-85.13013199999884
 10
194.30212600000186
 20
-85.14359399999883
 10
194.35826000000188
 20
-85.15705599999883
 10
194.41439400000186
 20
-85.17051799999884
 10
194.47052800000188
 20
-85.18397999999883
 10
194.52666200000186
 20
-85.19744199999883
 10
194.58279600000188
 20
-85.21115799999883
 10
194.63893000000186
 20
-85.22487399999882
 10
194.69506400000188
 20
-85.23858999999881
 10
194.75094400000188
 20
-85.25255999999881
 10
194.80682400000188
 20
-85.26652999999881
 10
194.86270400000188
 20
-85.28049999999882
 10
194.91858400000189
 20
-85.29446999999882
 10
194.97446400000192
 20
-85.30869399999881
 10
195.03034400000192
 20
-85.32291799999881
 10
195.08622400000192
 20
-85.3371419999988
 10
195.14210400000192
 20
-85.35161999999882
 10
195.19798400000192
 20
-85.36609799999881
 10
195.25386400000193
 20
-85.38057599999883
 10
195.30974400000196
 20
-85.39505399999882
 10
195.36562400000196
 20
-85.40978599999882
 10
195.42150400000196
 20
-85.42451799999881
 10
195.47713000000198
 20
-85.43950399999882
 10
195.532756000002
 20
-85.45448999999883
 10
195.650612000002
 20
-85.48598599999883
 10
195.76923000000198
 20
-85.51697399999884
 10
195.888610000002
 20
-85.54770799999883
 10
196.008498000002
 20
-85.57844199999883
 10
196.12864000000198
 20
-85.60942999999884
 10
196.249036000002
 20
-85.64067199999883
 10
196.369432000002
 20
-85.67242199999883
 10
196.48982800000203
 20
-85.70493399999883
 10
196.60997000000202
 20
-85.73846199999883
 10
196.729604000002
 20
-85.77300599999884
 10
196.84873000000204
 20
-85.80881999999885
 10
196.96734800000203
 20
-85.84590399999884
 10
197.08520400000202
 20
-85.88476599999885
 10
197.20204400000205
 20
-85.92540599999886
 10
197.31786800000205
 20
-85.96782399999886
 10
197.43242200000205
 20
-86.01252799999885
 10
197.54570600000207
 20
-86.05951799999885
 10
197.65746600000207
 20
-86.10904799999885
 10
197.76744800000208
 20
-86.16111799999884
 10
197.87565200000208
 20
-86.21623599999884
 10
197.98207800000208
 20
-86.27440199999883
 10
198.08647200000206
 20
-86.33561599999884
 10
198.18858000000208
 20
-86.40038599999883
 10
198.2884020000021
 20
-86.46871199999883
 10
198.3856840000021
 20
-86.54084799999883
 10
198.4804260000021
 20
-86.61679399999882
 10
198.5723740000021
 20
-86.69705799999882
 10
198.6615280000021
 20
-86.78163999999883
 10
198.7476340000021
 20
-86.87053999999883
 10
198.8306920000021
 20
-86.96426599999883
 10
198.9104480000021
 20
-87.06281799999883
 10
198.98664800000208
 20
-87.16644999999883
  0
LWPOLYLINE
  5
38
330
17
100
AcDbEntity
  8
0
100
AcDbPolyline
 90
545
 70
0
 10
166.04538800000208
 20
-91.48089399999883
 10
166.02760800000206
 20
-91.34119399999884
 10
166.01440000000207
 20
-91.20200199999883
 10
166.00576400000207
 20
-91.06331799999883
 10
166.00170000000207
 20
-90.92539599999883
 10
166.00195400000206
 20
-90.78798199999883
 10
166.00652600000208
 20
-90.65132999999882
 10
166.01541600000206
 20
-90.51518599999882
 10
166.02862400000208
 20
-90.37980399999883
 10
166.04615000000206
 20
-90.24518399999883
 10
166.06799400000207
 20
-90.11157999999882
 10
166.09390200000206
 20
-89.97873799999883
 10
166.12412800000206
 20
-89.84691199999882
 10
166.15841800000206
 20
-89.71610199999883
 10
166.19677200000206
 20
-89.58630799999882
 10
166.23919000000205
 20
-89.45752999999881
 10
166.28567200000205
 20
-89.33002199999882
 10
166.33621800000205
 20
-89.20352999999882
 10
166.39057400000206
 20
-89.07830799999881
 10
166.44899400000207
 20
-88.95435599999881
 10
166.51122400000207
 20
-88.83167399999881
 10
166.57726400000206
 20
-88.71051599999882
 10
166.64711400000206
 20
-88.59062799999883
 10
166.72077400000205
 20
-88.47226399999883
 10
166.79799000000205
 20
-88.35542399999883
 10
166.87901600000203
 20
-88.24010799999883
 10
166.963598000002
 20
-88.12631599999884
 10
167.05173600000202
 20
-88.01430199999884
 10
167.143684000002
 20
-87.90381199999884
 10
167.23893400000202
 20
-87.79509999999884
 10
167.33774000000201
 20
-87.68816599999884
 10
167.440102000002
 20
-87.58326399999883
 10
167.54576600000203
 20
-87.48013999999884
 10
167.64939800000204
 20
-87.38336599999884
 10
167.75379200000202
 20
-87.28963999999884
 10
167.85894800000202
 20
-87.19896199999883
 10
167.96486600000202
 20
-87.11133199999882
 10
168.071546000002
 20
-87.02649599999883
 10
168.17898800000202
 20
-86.94445399999883
 10
168.28719200000202
 20
-86.86520599999882
 10
168.396158000002
 20
-86.78875199999882
 10
168.50588600000202
 20
-86.71509199999882
 10
168.61637600000202
 20
-86.64397199999883
 10
168.727628000002
 20
-86.57539199999883
 10
168.83964200000202
 20
-86.50909799999883
 10
168.952418000002
 20
-86.44534399999884
 10
169.065956000002
 20
-86.38387599999884
 10
169.180256000002
 20
-86.32469399999883
 10
169.295318000002
 20
-86.26779799999883
 10
169.411142000002
 20
-86.21318799999884
 10
169.52772800000199
 20
-86.16060999999884
 10
169.645076000002
 20
-86.11006399999884
 10
169.763186000002
 20
-86.06154999999885
 10
169.882058000002
 20
-86.01506799999885
 10
170.001692000002
 20
-85.97036399999885
 10
170.122088000002
 20
-85.92743799999886
 10
170.243246000002
 20
-85.88628999999885
 10
170.365166000002
 20
-85.84691999999886
 10
170.487848000002
 20
-85.80907399999886
 10
170.61129200000198
 20
-85.77275199999887
 10
170.735498000002
 20
-85.73795399999887
 10
170.860466000002
 20
-85.70467999999887
 10
170.986196000002
 20
-85.67292999999889
 10
171.112688000002
 20
-85.64244999999887
 10
171.239942000002
 20
-85.61323999999888
 10
171.242228000002
 20
-85.61069999999887
 10
171.244514000002
 20
-85.60815999999888
 10
171.246546000002
 20
-85.60561999999888
 10
171.24857800000203
 20
-85.60307999999888
 10
171.25061000000204
 20
-85.60053999999889
 10
171.25264200000206
 20
-85.59799999999889
 10
171.25467400000204
 20
-85.5954599999989
 10
171.25670600000205
 20
-85.5929199999989
 10
171.25873800000207
 20
-85.5903799999989
 10
171.26077000000208
 20
-85.5878399999989
 10
171.26254800000206
 20
-85.5852999999989
 10
171.26432600000206
 20
-85.5827599999989
 10
171.26610400000203
 20
-85.5802199999989
 10
171.26788200000203
 20
-85.5776799999989
 10
171.269660000002
 20
-85.57513999999891
 10
171.271438000002
 20
-85.57259999999891
 10
171.272962000002
 20
-85.57005999999892
 10
171.27448600000199
 20
-85.56751999999892
 10
171.27601000000197
 20
-85.56497999999893
 10
171.27753400000196
 20
-85.56243999999892
 10
171.27905800000195
 20
-85.55989999999892
 10
171.28058200000197
 20
-85.55735999999892
 10
171.28185200000195
 20
-85.55481999999893
 10
171.28312200000195
 20
-85.55227999999893
 10
171.28439200000196
 20
-85.54948599999892
 10
171.28566200000196
 20
-85.54694599999893
 10
171.28693200000194
 20
-85.54415199999892
 10
171.28820200000195
 20
-85.54135799999891
 10
171.28921800000197
 20
-85.53856399999891
 10
171.29023400000196
 20
-85.5357699999989
 10
171.29125000000195
 20
-85.5329759999989
 10
171.29226600000197
 20
-85.53018199999889
 10
171.264834000002
 20
-85.52154599999889
 10
171.23689400000197
 20
-85.51367199999889
 10
171.208446000002
 20
-85.50655999999888
 10
171.17949000000198
 20
-85.50020999999889
 10
171.150026000002
 20
-85.49436799999889
 10
171.12005400000197
 20
-85.4892879999989
 10
171.08982800000197
 20
-85.4847159999989
 10
171.05909400000198
 20
-85.4806519999989
 10
171.02810600000197
 20
-85.4770959999989
 10
170.99686400000198
 20
-85.47404799999889
 10
170.96536800000197
 20
-85.47125399999888
 10
170.93361800000196
 20
-85.46896799999888
 10
170.90161400000196
 20
-85.46693599999888
 10
170.86935600000197
 20
-85.46515799999888
 10
170.837098000002
 20
-85.46388799999889
 10
170.804586000002
 20
-85.46287199999888
 10
170.77207400000196
 20
-85.46185599999887
 10
170.73956200000197
 20
-85.46109399999888
 10
170.70705000000194
 20
-85.46058599999887
 10
170.67453800000195
 20
-85.46007799999887
 10
170.64202600000192
 20
-85.45982399999887
 10
170.60976800000194
 20
-85.45956999999889
 10
170.57776400000193
 20
-85.45931599999889
 10
170.54576000000196
 20
-85.4590619999989
 10
170.51401000000195
 20
-85.45880799999891
 10
170.48251400000194
 20
-85.4582999999989
 10
170.45127200000192
 20
-85.4577919999989
 10
170.42053800000193
 20
-85.45702999999891
 10
170.39005800000194
 20
-85.4560139999989
 10
170.36008600000193
 20
-85.4549979999989
 10
170.33036800000193
 20
-85.45372799999889
 10
170.30115800000192
 20
-85.45194999999889
 10
170.26966200000192
 20
-85.4499179999989
 10
170.2381660000019
 20
-85.4478859999989
 10
170.2066700000019
 20
-85.4458539999989
 10
170.1751740000019
 20
-85.44382199999892
 10
170.1436780000019
 20
-85.44178999999892
 10
170.1121820000019
 20
-85.43975799999892
 10
170.0806860000019
 20
-85.43772599999893
 10
170.0491900000019
 20
-85.43569399999893
 10
170.01769400000188
 20
-85.43366199999893
 10
169.98619800000188
 20
-85.43162999999895
 10
169.95470200000187
 20
-85.42959799999895
 10
169.92320600000187
 20
-85.42756599999895
 10
169.89171000000186
 20
-85.42553399999895
 10
169.86021400000186
 20
-85.42350199999896
 10
169.82871800000183
 20
-85.42146999999896
 10
169.79722200000182
 20
-85.41943799999896
 10
169.76572600000182
 20
-85.41740599999898
 10
169.73423000000182
 20
-85.41537399999898
 10
169.7027340000018
 20
-85.41334199999898
 10
169.6712380000018
 20
-85.41130999999899
 10
169.6397420000018
 20
-85.40927799999899
 10
169.6082460000018
 20
-85.40724599999899
 10
169.5767500000018
 20
-85.405213999999
 10
169.5452540000018
 20
-85.403181999999
 10
169.5137580000018
 20
-85.401149999999
 10
169.48226200000178
 20
-85.39911799999902
 10
169.45076600000178
 20
-85.39708599999902
 10
169.41927000000177
 20
-85.39505399999902
 10
169.38777400000177
 20
-85.39302199999904
 10
169.35627800000174
 20
-85.39098999999904
 10
169.32478200000173
 20
-85.38895799999904
 10
169.29328600000173
 20
-85.38692599999905
 10
169.22851600000175
 20
-85.38286199999904
 10
169.16374600000174
 20
-85.37879799999904
 10
169.09872200000174
 20
-85.37473399999902
 10
169.03395200000176
 20
-85.37066999999902
 10
168.96918200000175
 20
-85.36660599999902
 10
168.90415800000176
 20
-85.36254199999901
 10
168.83938800000175
 20
-85.35847799999901
 10
168.77436400000175
 20
-85.35441399999901
 10
168.70959400000177
 20
-85.350349999999
 10
168.64482400000176
 20
-85.346285999999
 10
168.57980000000177
 20
-85.34222199999898
 10
168.5150300000018
 20
-85.33815799999898
 10
168.45026000000178
 20
-85.33409399999898
 10
168.38523600000178
 20
-85.33002999999897
 10
168.32046600000177
 20
-85.32596599999897
 10
168.2556960000018
 20
-85.32190199999897
 10
168.1906720000018
 20
-85.31783799999896
 10
168.1259020000018
 20
-85.31377399999896
 10
168.0611320000018
 20
-85.30970999999894
 10
167.9961080000018
 20
-85.30564599999894
 10
167.9313380000018
 20
-85.30158199999894
 10
167.86656800000182
 20
-85.29751799999893
 10
167.80154400000183
 20
-85.29345399999893
 10
167.73677400000182
 20
-85.28938999999893
 10
167.6720040000018
 20
-85.28532599999892
 10
167.6069800000018
 20
-85.28126199999892
 10
167.54221000000183
 20
-85.2771979999989
 10
167.47744000000182
 20
-85.2731339999989
 10
167.41241600000183
 20
-85.2690699999989
 10
167.34764600000184
 20
-85.26500599999889
 10
167.28262200000185
 20
-85.26094199999889
 10
167.21785200000184
 20
-85.25687799999889
 10
167.21734400000184
 20
-85.29472399999888
 10
167.21505800000185
 20
-85.33206199999888
 10
167.21074000000183
 20
-85.36914599999889
 10
167.20464400000185
 20
-85.40572199999889
 10
167.19651600000182
 20
-85.44178999999889
 10
167.18686400000183
 20
-85.47734999999888
 10
167.17543400000184
 20
-85.51240199999887
 10
167.16222600000182
 20
-85.54694599999888
 10
167.14749400000184
 20
-85.58098199999888
 10
167.13123800000184
 20
-85.61425599999887
 10
167.11345800000183
 20
-85.64702199999888
 10
167.0944080000018
 20
-85.67902599999888
 10
167.07383400000182
 20
-85.71026799999888
 10
167.0519900000018
 20
-85.74100199999887
 10
167.02887600000182
 20
-85.77097399999887
 10
167.0047460000018
 20
-85.80018399999888
 10
166.97934600000178
 20
-85.82837799999886
 10
166.95293000000177
 20
-85.85580999999887
 10
166.9254980000018
 20
-85.88247999999888
 10
166.8970500000018
 20
-85.90813399999888
 10
166.8675860000018
 20
-85.93302599999888
 10
166.8373600000018
 20
-85.95690199999888
 10
166.8063720000018
 20
-85.97976199999887
 10
166.7746220000018
 20
-86.00160599999887
 10
166.7421100000018
 20
-86.02243399999887
 10
166.7090900000018
 20
-86.04224599999887
 10
166.6753080000018
 20
-86.06104199999886
 10
166.6410180000018
 20
-86.07856799999887
 10
166.6062200000018
 20
-86.09507799999888
 10
166.5711680000018
 20
-86.11031799999887
 10
166.53560800000182
 20
-86.12454199999887
 10
166.4997940000018
 20
-86.13749599999886
 10
166.4637260000018
 20
-86.14943399999888
 10
166.4274040000018
 20
-86.16035599999887
 10
166.39108200000177
 20
-86.17026199999887
 10
166.35450600000178
 20
-86.17940599999888
 10
166.3176760000018
 20
-86.18753399999886
 10
166.2808460000018
 20
-86.19489999999887
 10
166.2437620000018
 20
-86.20150399999886
 10
166.2066780000018
 20
-86.20734599999888
 10
166.1693400000018
 20
-86.21242599999887
 10
166.1320020000018
 20
-86.21674399999887
 10
166.09441000000177
 20
-86.22055399999887
 10
166.05681800000178
 20
-86.22360199999886
 10
166.01897200000178
 20
-86.22614199999886
 10
165.98112600000178
 20
-86.22817399999886
 10
165.94328000000178
 20
-86.22944399999886
 10
165.9051800000018
 20
-86.23020599999886
 10
165.86708000000178
 20
-86.23045999999884
 10
165.8289800000018
 20
-86.23045999999884
 10
165.7908800000018
 20
-86.22995199999885
 10
165.7527800000018
 20
-86.22893599999884
 10
165.7146800000018
 20
-86.22766599999885
 10
165.67658000000182
 20
-86.22614199999884
 10
165.63848000000183
 20
-86.22410999999886
 10
165.60038000000182
 20
-86.22182399999885
 10
165.56228000000183
 20
-86.21928399999885
 10
165.52418000000185
 20
-86.21648999999884
 10
165.48608000000183
 20
-86.21369599999885
 10
165.44798000000185
 20
-86.21064799999884
 10
165.40988000000186
 20
-86.20759999999883
 10
165.37178000000188
 20
-86.20429799999884
 10
165.33393400000188
 20
-86.20099599999885
 10
165.29608800000187
 20
-86.19769399999886
 10
165.24097000000188
 20
-86.19286799999885
 10
165.18585200000186
 20
-86.18804199999886
 10
165.13073400000187
 20
-86.18321599999885
 10
165.07561600000187
 20
-86.17838999999886
 10
165.02049800000188
 20
-86.17356399999885
 10
164.9653800000019
 20
-86.16873799999885
 10
164.9102620000019
 20
-86.16391199999885
 10
164.8551440000019
 20
-86.15908599999885
 10
164.8000260000019
 20
-86.15425999999884
 10
164.7449080000019
 20
-86.14943399999885
 10
164.6897900000019
 20
-86.14460799999884
 10
164.6346720000019
 20
-86.13978199999885
 10
164.5795540000019
 20
-86.13495599999884
 10
164.5244360000019
 20
-86.13012999999884
 10
164.46931800000192
 20
-86.12530399999883
 10
164.41420000000193
 20
-86.12047799999884
 10
164.35908200000193
 20
-86.11565199999883
 10
164.30396400000194
 20
-86.11082599999884
 10
164.24884600000195
 20
-86.10599999999883
 10
164.19372800000195
 20
-86.10117399999884
 10
164.13861000000193
 20
-86.09634799999883
 10
164.08349200000194
 20
-86.09152199999883
 10
164.02837400000195
 20
-86.08669599999882
 10
163.97325600000195
 20
-86.08186999999883
 10
163.91813800000196
 20
-86.07704399999882
 10
163.86302000000197
 20
-86.07221799999883
 10
163.80790200000197
 20
-86.06739199999882
 10
163.75278400000198
 20
-86.06256599999882
 10
163.697666000002
 20
-86.05773999999882
 10
163.642548000002
 20
-86.05291399999882
 10
163.58743000000197
 20
-86.04808799999881
 10
163.53231200000198
 20
-86.04326199999882
 10
163.497768000002
 20
-86.04021399999881
 10
163.46322400000201
 20
-86.03716599999882
 10
163.428680000002
 20
-86.03411799999881
 10
163.39388200000204
 20
-86.0313239999988
 10
163.35908400000204
 20
-86.0285299999988
 10
163.32428600000205
 20
-86.0259899999988
 10
163.28948800000208
 20
-86.0234499999988
 10
163.25469000000209
 20
-86.0211639999988
 10
163.2198920000021
 20
-86.0191319999988
 10
163.18509400000212
 20
-86.0173539999988
 10
163.15029600000213
 20
-86.01582999999881
 10
163.11549800000213
 20
-86.01455999999881
 10
163.08070000000217
 20
-86.0135439999988
 10
163.04590200000217
 20
-86.0130359999988
 10
163.01110400000218
 20
-86.01278199999881
 10
162.9763060000022
 20
-86.0130359999988
 10
162.94150800000222
 20
-86.0135439999988
 10
162.90696400000223
 20
-86.01455999999881
 10
162.87242000000222
 20
-86.01608399999881
 10
162.83787600000224
 20
-86.0181159999988
 10
162.80358600000224
 20
-86.0206559999988
 10
162.76929600000224
 20
-86.0237039999988
 10
162.73500600000224
 20
-86.0272599999988
 10
162.70097000000223
 20
-86.0315779999988
 10
162.66693400000224
 20
-86.0364039999988
 10
162.63289800000223
 20
-86.0419919999988
 10
162.59911600000223
 20
-86.0480879999988
 10
162.56533400000222
 20
-86.0549459999988
 10
162.53180600000223
 20
-86.0625659999988
 10
162.49827800000224
 20
-86.0709479999988
 10
162.46500400000224
 20
-86.0800919999988
 10
162.43198400000225
 20
-86.08999799999879
 10
162.36619800000224
 20
-86.1126039999988
 10
162.30193600000223
 20
-86.1380039999988
 10
162.23945200000225
 20
-86.1661979999988
 10
162.17874600000223
 20
-86.1969319999988
 10
162.11956400000224
 20
-86.23020599999879
 10
162.06190600000224
 20
-86.26601999999879
 10
162.00577200000225
 20
-86.30411999999878
 10
161.95116200000226
 20
-86.34450599999877
 10
161.89807600000225
 20
-86.38692399999877
 10
161.84626000000227
 20
-86.43137399999877
 10
161.79596800000226
 20
-86.47760199999878
 10
161.74694600000228
 20
-86.52586199999878
 10
161.69919400000228
 20
-86.57564599999878
 10
161.65271200000228
 20
-86.62720799999877
 10
161.60724600000228
 20
-86.68003999999878
 10
161.5630500000023
 20
-86.73439599999878
 10
161.5198700000023
 20
-86.79002199999879
 10
161.47770600000229
 20
-86.84691799999878
 10
161.4365580000023
 20
-86.90482999999878
 10
161.3964260000023
 20
-86.96375799999879
 10
161.3573100000023
 20
-87.0234479999988
 10
161.3189560000023
 20
-87.08389999999879
 10
161.28161800000228
 20
-87.14511399999878
 10
161.2450420000023
 20
-87.20683599999879
 10
161.2092280000023
 20
-87.26906599999879
 10
161.1741760000023
 20
-87.3318039999988
 10
161.13963200000228
 20
-87.39479599999879
 10
161.10585000000228
 20
-87.45778799999879
 10
161.07257600000227
 20
-87.52077999999878
 10
161.0398100000023
 20
-87.58377199999879
 10
161.0075520000023
 20
-87.64676399999878
 10
160.9758020000023
 20
-87.70950199999878
 10
160.9519260000023
 20
-87.75674599999878
 10
160.92805000000226
 20
-87.80398999999878
 10
160.90417400000226
 20
-87.85148799999878
 10
160.88029800000223
 20
-87.89898599999879
 10
160.85667600000224
 20
-87.94648399999879
 10
160.83305400000225
 20
-87.99423599999878
 10
160.80968600000227
 20
-88.04198799999878
 10
160.78657200000225
 20
-88.08973999999877
 10
160.76371200000224
 20
-88.13774599999878
 10
160.74110600000225
 20
-88.18575199999879
 10
160.71875400000224
 20
-88.23401199999878
 10
160.69665600000226
 20
-88.28227199999878
 10
160.67506600000223
 20
-88.33078599999878
 10
160.65373000000227
 20
-88.37929999999876
 10
160.63290200000225
 20
-88.42806799999877
 10
160.61258200000225
 20
-88.47708999999877
 10
160.59277000000225
 20
-88.52611199999876
 10
160.57346600000224
 20
-88.57538799999877
 10
160.55467000000226
 20
-88.62466399999877
 10
160.53638200000225
 20
-88.67419399999878
 10
160.51885600000227
 20
-88.72397799999878
 10
160.50183800000227
 20
-88.77401599999878
 10
160.48558200000227
 20
-88.82405399999878
 10
160.47008800000228
 20
-88.87434599999878
 10
160.45510200000228
 20
-88.92489199999878
 10
160.44113200000228
 20
-88.97569199999877
 10
160.4279240000023
 20
-89.02674599999878
 10
160.41547800000228
 20
-89.07805399999879
 10
160.40379400000228
 20
-89.12936199999878
 10
160.39312600000227
 20
-89.18092399999877
 10
160.38347400000225
 20
-89.23273999999877
 10
160.37458400000227
 20
-89.28480999999877
 10
160.36696400000227
 20
-89.33713399999877
 10
160.3603600000023
 20
-89.38996599999878
 10
160.3550260000023
 20
-89.44305199999879
 10
160.3509620000023
 20
-89.49639199999878
 10
160.34791400000233
 20
-89.54973199999877
 10
160.34613600000233
 20
-89.60307199999876
 10
160.34562800000236
 20
-89.65666599999876
 10
160.34639000000237
 20
-89.71025999999877
 10
160.34842200000236
 20
-89.76385399999877
 10
160.35172400000238
 20
-89.81719399999878
 10
160.35629600000237
 20
-89.87053399999877
 10
160.3623920000024
 20
-89.92361999999876
 10
160.36975800000238
 20
-89.97645199999877
 10
160.37839400000237
 20
-90.02902999999877
 10
160.3885540000024
 20
-90.08109999999877
 10
160.39998400000238
 20
-90.13291599999877
 10
160.41293800000238
 20
-90.18422399999876
 10
160.42741600000238
 20
-90.23502399999877
 10
160.44316400000238
 20
-90.28531599999876
 10
160.46043600000237
 20
-90.33484599999876
 10
160.47923200000236
 20
-90.38386799999876
 10
160.49955200000238
 20
-90.43212799999876
 10
160.52139600000237
 20
-90.47962599999876
 10
160.54476400000237
 20
-90.52636199999877
 10
160.56965600000237
 20
-90.57208199999877
 10
160.59607200000238
 20
-90.61703999999877
 10
160.62401200000238
 20
-90.66098199999877
 10
160.65373000000238
 20
-90.70390799999876
 10
160.68497200000238
 20
-90.74581799999878
 10
160.71773800000238
 20
-90.78671199999877
 10
160.75228200000237
 20
-90.82633599999878
 10
160.78860400000238
 20
-90.86468999999877
 10
160.81476600000238
 20
-90.89085199999877
 10
160.8416900000024
 20
-90.91625199999879
 10
160.86912200000236
 20
-90.94088999999877
 10
160.89706200000236
 20
-90.96476599999878
 10
160.92551000000236
 20
-90.98787999999878
 10
160.95446600000236
 20
-91.01023199999878
 10
160.98393000000235
 20
-91.0320759999988
 10
161.01390200000236
 20
-91.0531579999988
 10
161.04438200000237
 20
-91.0737319999988
 10
161.07511600000237
 20
-91.0937979999988
 10
161.1063580000024
 20
-91.1133559999988
 10
161.1378540000024
 20
-91.13215199999881
 10
161.1698580000024
 20
-91.15043999999881
 10
161.20211600000238
 20
-91.16821999999881
 10
161.23462800000237
 20
-91.18574599999882
 10
161.26739400000238
 20
-91.20276399999881
 10
161.30041400000238
 20
-91.2192739999988
 10
161.33394200000237
 20
-91.23552999999882
 10
161.36747000000236
 20
-91.25127799999882
 10
161.40125200000236
 20
-91.26677199999881
 10
161.43528800000237
 20
-91.28201199999882
 10
161.46957800000237
 20
-91.29674399999881
 10
161.50386800000237
 20
-91.31122199999882
 10
161.53841200000235
 20
-91.3254459999988
 10
161.57295600000234
 20
-91.33941599999882
 10
161.60750000000235
 20
-91.35338599999882
 10
161.6422980000023
 20
-91.36710199999881
 10
161.6770960000023
 20
-91.38056399999881
 10
161.7118940000023
 20
-91.3940259999988
 10
161.7466920000023
 20
-91.40723399999881
 10
161.78149000000226
 20
-91.42044199999881
 10
161.81603400000225
 20
-91.43364999999882
 10
161.96310000000224
 20
-91.48927599999882
 10
162.11016600000224
 20
-91.54490199999881
 10
162.25723200000223
 20
-91.60052799999882
 10
162.4042980000022
 20
-91.65615399999882
 10
162.5513640000022
 20
-91.71177999999881
 10
162.6984300000022
 20
-91.76740599999881
 10
162.84549600000219
 20
-91.82303199999882
 10
162.99256200000215
 20
-91.87865799999881
 10
163.13962800000215
 20
-91.93428399999881
 10
163.28669400000214
 20
-91.9899099999988
 10
163.43376000000214
 20
-92.0455359999988
 10
163.5808260000021
 20
-92.10116199999881
 10
163.7278920000021
 20
-92.1567879999988
 10
163.8749580000021
 20
-92.2124139999988
 10
164.02202400000206
 20
-92.2680399999988
 10
164.16909000000206
 20
-92.3236659999988
 10
164.31615600000205
 20
-92.3792919999988
 10
164.46322200000205
 20
-92.4349179999988
 10
164.61028800000201
 20
-92.49054399999879
 10
164.757354000002
 20
-92.5461699999988
 10
164.904420000002
 20
-92.60179599999879
 10
165.051486000002
 20
-92.65742199999879
 10
165.19855200000197
 20
-92.71304799999879
 10
165.34561800000196
 20
-92.76867399999878
 10
165.49268400000196
 20
-92.82429999999879
 10
165.63975000000192
 20
-92.87992599999879
 10
165.78681600000192
 20
-92.93555199999878
 10
165.93388200000192
 20
-92.99117799999878
 10
166.0809480000019
 20
-93.04680399999879
 10
166.22801400000188
 20
-93.10242999999878
 10
166.37508000000187
 20
-93.15805599999878
 10
166.52214600000187
 20
-93.21368199999877
 10
166.51046200000184
 20
-93.19310799999877
 10
166.49903200000185
 20
-93.17227999999878
 10
166.48760200000186
 20
-93.15145199999877
 10
166.47642600000188
 20
-93.13036999999876
 10
166.46525000000187
 20
-93.10903399999877
 10
166.45432800000188
 20
-93.08769799999877
 10
166.4434060000019
 20
-93.06610799999878
 10
166.43273800000188
 20
-93.04426399999876
 10
166.42207000000187
 20
-93.02216599999878
 10
166.41165600000184
 20
-93.00006799999878
 10
166.40124200000184
 20
-92.97771599999876
 10
166.39108200000183
 20
-92.95510999999877
 10
166.38092200000185
 20
-92.93224999999877
 10
166.37101600000184
 20
-92.90913599999877
 10
166.36111000000187
 20
-92.88602199999877
 10
166.35145800000186
 20
-92.86265399999877
 10
166.34180600000187
 20
-92.83903199999877
 10
166.33240800000183
 20
-92.81515599999877
 10
166.32326400000187
 20
-92.79102599999877
 10
166.31412000000188
 20
-92.76689599999875
 10
166.30523000000187
 20
-92.74251199999875
 10
166.2963400000019
 20
-92.71787399999876
 10
166.2877040000019
 20
-92.69298199999876
 10
166.2790680000019
 20
-92.66783599999876
 10
166.2706860000019
 20
-92.64243599999875
 10
166.26230400000188
 20
-92.61678199999875
 10
166.25417600000188
 20
-92.59087399999876
 10
166.24604800000188
 20
-92.56471199999876
 10
166.2381740000019
 20
-92.53829599999877
 10
166.2303000000019
 20
-92.51187999999877
 10
166.2226800000019
 20
-92.48520999999876
 10
166.2150600000019
 20
-92.45828599999876
 10
166.2069320000019
 20
-92.42805999999875
 10
166.1990580000019
 20
-92.39783399999875
 10
166.19118400000193
 20
-92.36735399999874
 10
166.18356400000192
 20
-92.33687399999874
 10
166.17619800000193
 20
-92.30639399999875
 10
166.16908600000193
 20
-92.27591399999875
 10
166.1622280000019
 20
-92.24543399999874
 10
166.1553700000019
 20
-92.21495399999874
 10
166.1487660000019
 20
-92.18447399999874
 10
166.14241600000193
 20
-92.15399399999875
 10
166.13632000000192
 20
-92.12351399999874
 10
166.13047800000192
 20
-92.09303399999874
 10
166.1246360000019
 20
-92.06255399999874
 10
166.1190480000019
 20
-92.03207399999873
 10
166.1137140000019
 20
-92.00159399999873
 10
166.1086340000019
 20
-91.97111399999874
 10
166.1035540000019
 20
-91.94063399999874
 10
166.0987280000019
 20
-91.91015399999873
 10
166.0941560000019
 20
-91.87967399999873
 10
166.0898380000019
 20
-91.84919399999873
 10
166.08552000000188
 20
-91.81871399999872
 10
166.08145600000188
 20
-91.78823399999872
 10
166.0776460000019
 20
-91.75775399999873
 10
166.0740900000019
 20
-91.72727399999873
 10
166.07053400000189
 20
-91.69679399999872
 10
166.06723200000187
 20
-91.66631399999872
 10
166.0641840000019
 20
-91.63583399999872
 10
166.0613900000019
 20
-91.60535399999871
 10
166.0585960000019
 20
-91.57487399999872
 10
166.05605600000192
 20
-91.54439399999872
 10
166.05377000000192
 20
-91.5141679999987
 10
166.0514840000019
 20
-91.4839419999987
  0
LWPOLYLINE
  5
39
330
17
100
AcDbEntity
  8
0
100
AcDbPolyline
 90
545
 70
0
 10
185.7197200000019
 20
-88.2192799999987
 10
185.7225140000019
 20
-88.2192799999987
 10
185.7253080000019
 20
-88.2192799999987
 10
185.72810200000188
 20
-88.2192799999987
 10
185.73089600000185
 20
-88.2192799999987
 10
185.73369000000184
 20
-88.2192799999987
 10
185.73648400000184
 20
-88.2192799999987
 10
185.73927800000183
 20
-88.2192799999987
 10
185.74207200000183
 20
-88.2192799999987
 10
185.74486600000182
 20
-88.2192799999987
 10
185.74766000000182
 20
-88.2192799999987
 10
185.7504540000018
 20
-88.2192799999987
 10
185.7532480000018
 20
-88.2192799999987
 10
185.7560420000018
 20
-88.2192799999987
 10
185.7588360000018
 20
-88.2192799999987
 10
185.76163000000176
 20
-88.2192799999987
 10
185.76442400000175
 20
-88.2192799999987
 10
185.76721800000175
 20
-88.2192799999987
 10
185.77001200000174
 20
-88.2192799999987
 10
185.77280600000174
 20
-88.2192799999987
 10
185.77560000000173
 20
-88.2192799999987
 10
185.77839400000173
 20
-88.2192799999987
 10
185.78118800000172
 20
-88.2192799999987
 10
185.7839820000017
 20
-88.2192799999987
 10
185.7867760000017
 20
-88.2192799999987
 10
185.78957000000167
 20
-88.2192799999987
 10
185.79236400000167
 20
-88.2192799999987
 10
185.79515800000166
 20
-88.2192799999987
 10
185.79795200000166
 20
-88.2192799999987
 10
185.80074600000165
 20
-88.2192799999987
 10
185.80354000000165
 20
-88.2192799999987
 10
185.80633400000164
 20
-88.2192799999987
 10
185.80912800000164
 20
-88.2192799999987
 10
186.11723000000163
 20
-88.2304559999987
 10
186.40729800000165
 20
-88.26372999999869
 10
186.68009400000162
 20
-88.31783199999869
 10
186.93612600000162
 20
-88.39199999999869
 10
187.17590200000163
 20
-88.4852179999987
 10
187.39967600000162
 20
-88.59646999999869
 10
187.60821000000163
 20
-88.72473999999869
 10
187.80201200000164
 20
-88.86901199999869
 10
187.98159000000163
 20
-89.02852399999868
 10
188.14719800000165
 20
-89.20225999999869
 10
188.29959800000165
 20
-89.38894999999869
 10
188.43929800000163
 20
-89.5878319999987
 10
188.56680600000163
 20
-89.79814399999869
 10
188.68263000000164
 20
-90.01861599999869
 10
188.78702400000162
 20
-90.24848599999868
 10
188.88075000000163
 20
-90.48648399999868
 10
188.96431600000162
 20
-90.73184799999868
 10
189.03823000000162
 20
-90.98356199999868
 10
189.10300000000163
 20
-91.24060999999868
 10
189.15913400000161
 20
-91.50222999999868
 10
189.2071400000016
 20
-91.76715199999867
 10
189.2475260000016
 20
-92.03461399999867
 10
189.2808000000016
 20
-92.30359999999868
 10
189.3072160000016
 20
-92.57309399999868
 10
189.32753600000163
 20
-92.84207999999869
 10
189.3422680000016
 20
-93.10979599999868
 10
189.35192000000163
 20
-93.37497199999868
 10
189.35700000000162
 20
-93.63684599999867
 10
189.3580160000016
 20
-93.89440199999868
 10
189.35547600000163
 20
-94.14662399999868
 10
189.3498880000016
 20
-94.39274999999867
 10
189.3417600000016
 20
-94.63150999999867
 10
189.3138200000016
 20
-95.13290599999867
 10
189.2693700000016
 20
-95.63379399999866
 10
189.20917200000162
 20
-96.13391999999867
 10
189.1334800000016
 20
-96.63302999999866
 10
189.04280200000161
 20
-97.13086999999865
 10
188.93739200000164
 20
-97.62743999999864
 10
188.81775800000165
 20
-98.12223199999865
 10
188.68440800000164
 20
-98.61499199999864
 10
188.53785000000164
 20
-99.10546599999864
 10
188.37859200000165
 20
-99.59339999999864
 10
188.20688800000164
 20
-100.07879399999864
 10
188.02324600000165
 20
-100.56113999999863
 10
187.82817400000164
 20
-101.04018399999865
 10
187.62192600000165
 20
-101.51567199999864
 10
187.40501000000162
 20
-101.98734999999866
 10
187.17793400000164
 20
-102.45521799999865
 10
186.9412060000016
 20
-102.91876799999865
 10
186.6950800000016
 20
-103.37774599999865
 10
186.4400640000016
 20
-103.83189799999866
 10
186.1766660000016
 20
-104.28122399999866
 10
185.9053940000016
 20
-104.72521599999865
 10
185.6265020000016
 20
-105.16361999999866
 10
185.34049800000162
 20
-105.59618199999865
 10
185.04789000000162
 20
-106.02290199999865
 10
184.7491860000016
 20
-106.44327199999864
 10
184.4446400000016
 20
-106.85703799999864
 10
184.1347600000016
 20
-107.26419999999865
 10
183.8200540000016
 20
-107.66424999999865
 10
183.50077600000162
 20
-108.05693399999865
 10
183.1776880000016
 20
-108.44225199999865
 10
182.85104400000162
 20
-108.81969599999864
 10
182.52109800000161
 20
-109.18901199999864
 10
182.3359320000016
 20
-109.39017999999864
 10
182.14822600000159
 20
-109.58753799999863
 10
181.9584880000016
 20
-109.78108599999864
 10
181.7664640000016
 20
-109.97107799999863
 10
181.57240800000162
 20
-110.15776799999863
 10
181.3763200000016
 20
-110.34115599999863
 10
181.1784540000016
 20
-110.52149599999862
 10
180.9785560000016
 20
-110.69904199999863
 10
180.7768800000016
 20
-110.87379399999863
 10
180.57342600000158
 20
-111.04600599999863
 10
180.3684480000016
 20
-111.21567799999862
 10
180.1619460000016
 20
-111.38331799999862
 10
179.9539200000016
 20
-111.54867199999863
 10
179.7443700000016
 20
-111.71199399999863
 10
179.53355000000158
 20
-111.87353799999863
 10
179.32146000000157
 20
-112.03355799999864
 10
179.10810000000154
 20
-112.19205399999863
 10
178.89372400000155
 20
-112.34927999999864
 10
178.67833200000155
 20
-112.50523599999863
 10
178.46192400000157
 20
-112.66017599999864
 10
178.24450000000155
 20
-112.81435399999864
 10
178.02631400000155
 20
-112.96776999999864
 10
177.80736600000156
 20
-113.12067799999863
 10
177.58765600000154
 20
-113.27307799999865
 10
177.36743800000156
 20
-113.42522399999864
 10
177.14671200000157
 20
-113.57736999999864
 10
176.92547800000156
 20
-113.72951599999864
 10
176.70373600000156
 20
-113.88191599999864
 10
176.48174000000154
 20
-114.03456999999864
 10
176.25949000000153
 20
-114.18773199999865
 10
176.03698600000155
 20
-114.34165599999864
 10
175.81448200000156
 20
-114.49634199999863
 10
175.61102800000154
 20
-114.63883599999863
 10
175.40782800000156
 20
-114.78209199999864
 10
175.20488200000156
 20
-114.92585599999863
 10
175.00244400000156
 20
-115.07038199999863
 10
174.80026000000154
 20
-115.21566999999864
 10
174.59858400000155
 20
-115.36171999999863
 10
174.39716200000154
 20
-115.50853199999862
 10
174.19624800000153
 20
-115.65585199999862
 10
173.99558800000153
 20
-115.80393399999863
 10
173.79543600000153
 20
-115.95277799999863
 10
173.59579200000155
 20
-116.10238399999864
 10
173.39640200000156
 20
-116.25275199999862
 10
173.19752000000156
 20
-116.40388199999863
 10
172.9991460000016
 20
-116.55577399999864
 10
172.80128000000158
 20
-116.70817399999865
 10
172.60392200000157
 20
-116.86133599999864
 10
172.40681800000158
 20
-117.01525999999865
 10
172.21022200000158
 20
-117.16994599999865
 10
172.01413400000158
 20
-117.32539399999864
 10
171.81855400000157
 20
-117.48160399999864
 10
171.62348200000156
 20
-117.63857599999865
 10
171.42917200000156
 20
-117.79605599999864
 10
171.23537000000155
 20
-117.95429799999864
 10
171.04207600000157
 20
-118.11330199999864
 10
170.84929000000156
 20
-118.27306799999864
 10
170.65701200000157
 20
-118.43359599999864
 10
170.46549600000156
 20
-118.59488599999864
 10
170.27448800000158
 20
-118.75693799999864
 10
170.08398800000157
 20
-118.91975199999864
 10
169.8942500000016
 20
-119.08332799999864
 10
169.70502000000158
 20
-119.24741199999865
 10
169.5165520000016
 20
-119.41225799999864
 10
169.54627000000158
 20
-119.33148599999865
 10
169.57649600000158
 20
-119.24995199999864
 10
169.6069760000016
 20
-119.16765599999864
 10
169.6377100000016
 20
-119.08434399999865
 10
169.66869800000157
 20
-119.00026999999865
 10
169.7001940000016
 20
-118.91543399999864
 10
169.7319440000016
 20
-118.82958199999864
 10
169.7639480000016
 20
-118.74296799999864
 10
169.7964600000016
 20
-118.65533799999862
 10
169.8292260000016
 20
-118.56669199999862
 10
169.8622460000016
 20
-118.47728399999863
 10
169.89577400000158
 20
-118.38685999999863
 10
169.92955600000158
 20
-118.29541999999863
 10
169.96384600000158
 20
-118.20296399999864
 10
169.9983900000016
 20
-118.10974599999864
 10
170.0334420000016
 20
-118.01551199999864
 10
170.0687480000016
 20
-117.92026199999864
 10
170.10456200000158
 20
-117.82399599999863
 10
170.1406300000016
 20
-117.72671399999864
 10
170.1772060000016
 20
-117.62816199999865
 10
170.21403600000158
 20
-117.52859399999865
 10
170.25137400000162
 20
-117.42800999999865
 10
170.28922000000162
 20
-117.32640999999865
 10
170.3273200000016
 20
-117.22353999999865
 10
170.36592800000162
 20
-117.11965399999866
 10
170.40504400000162
 20
-117.01475199999865
 10
170.44441400000161
 20
-116.90857999999865
 10
170.4842920000016
 20
-116.80139199999864
 10
170.52467800000161
 20
-116.69293399999864
 10
170.5653180000016
 20
-116.58320599999864
 10
170.6064660000016
 20
-116.47246199999864
 10
170.64812200000162
 20
-116.36044799999866
 10
170.6778400000016
 20
-116.28119999999865
 10
170.7080660000016
 20
-116.20220599999865
 10
170.7388000000016
 20
-116.12295799999865
 10
170.7700420000016
 20
-116.04370999999864
 10
170.80179200000163
 20
-115.96446199999865
 10
170.8340500000016
 20
-115.88521399999864
 10
170.8665620000016
 20
-115.80596599999863
 10
170.8995820000016
 20
-115.72671799999864
 10
170.9331100000016
 20
-115.64721599999864
 10
170.9671460000016
 20
-115.56771399999865
 10
171.0014360000016
 20
-115.48821199999864
 10
171.0362340000016
 20
-115.40845599999864
 10
171.0712860000016
 20
-115.32869999999863
 10
171.10684600000158
 20
-115.24894399999863
 10
171.14266000000157
 20
-115.16893399999863
 10
171.17898200000158
 20
-115.08892399999863
 10
171.21555800000158
 20
-115.00865999999864
 10
171.2523880000016
 20
-114.92814199999863
 10
171.28947200000158
 20
-114.84762399999863
 10
171.32706400000157
 20
-114.76685199999864
 10
171.36491000000157
 20
-114.68582599999863
 10
171.4030100000016
 20
-114.60479999999863
 10
171.44136400000156
 20
-114.52351999999863
 10
171.47997200000157
 20
-114.44198599999862
 10
171.5188340000016
 20
-114.36019799999862
 10
171.55795000000157
 20
-114.27815599999863
 10
171.59732000000156
 20
-114.19585999999862
 10
171.63669000000158
 20
-114.11330999999862
 10
171.67631400000155
 20
-114.03050599999862
 10
171.71619200000157
 20
-113.94744799999862
 10
171.75632400000157
 20
-113.86413599999862
 10
171.79645600000157
 20
-113.78056999999862
 10
171.8376040000016
 20
-113.69497199999863
 10
171.87875200000158
 20
-113.60911999999863
 10
171.9201540000016
 20
-113.52301399999862
 10
171.9615560000016
 20
-113.43690799999862
 10
172.0029580000016
 20
-113.35054799999862
 10
172.0443600000016
 20
-113.26393399999863
 10
172.0857620000016
 20
-113.17706599999863
 10
172.1271640000016
 20
-113.09019799999864
 10
172.1683120000016
 20
-113.00307599999863
 10
172.20946000000163
 20
-112.91569999999864
 10
172.25060800000162
 20
-112.82806999999863
 10
172.29150200000163
 20
-112.74018599999863
 10
172.3323960000016
 20
-112.65204799999863
 10
172.3730360000016
 20
-112.56390999999863
 10
172.41367600000157
 20
-112.47551799999863
 10
172.45406200000158
 20
-112.38687199999863
 10
172.49419400000158
 20
-112.29797199999862
 10
172.5340720000016
 20
-112.20881799999863
 10
172.57369600000158
 20
-112.11940999999864
 10
172.61306600000157
 20
-112.02974799999863
 10
172.65218200000157
 20
-111.94008599999863
 10
172.69104400000157
 20
-111.85016999999864
 10
172.7296520000016
 20
-111.75999999999863
 10
172.76800600000158
 20
-111.66957599999863
 10
172.80585200000158
 20
-111.57889799999863
 10
172.8434440000016
 20
-111.48796599999862
 10
172.8805280000016
 20
-111.39677999999863
 10
172.91735800000157
 20
-111.30533999999862
 10
172.95368000000158
 20
-111.21364599999863
 10
172.98949400000157
 20
-111.12169799999862
 10
173.02505400000157
 20
-111.02949599999862
 10
173.06010600000158
 20
-110.93703999999863
 10
173.07814000000158
 20
-110.88928799999863
 10
173.09617400000158
 20
-110.84153599999864
 10
173.11420800000158
 20
-110.79378399999864
 10
173.1324960000016
 20
-110.74628599999863
 10
173.1507840000016
 20
-110.69878799999863
 10
173.1690720000016
 20
-110.65128999999862
 10
173.1876140000016
 20
-110.60379199999862
 10
173.20615600000158
 20
-110.55629399999862
 10
173.22469800000158
 20
-110.50904999999862
 10
173.24324000000158
 20
-110.46180599999863
 10
173.26178200000157
 20
-110.41456199999864
 10
173.28057800000155
 20
-110.36731799999865
 10
173.29937400000154
 20
-110.32032799999864
 10
173.31817000000154
 20
-110.27333799999865
 10
173.33696600000152
 20
-110.22634799999864
 10
173.3557620000015
 20
-110.17961199999864
 10
173.3745580000015
 20
-110.13287599999863
 10
173.3933540000015
 20
-110.08613999999862
 10
173.41240400000152
 20
-110.03940399999861
 10
173.4314540000015
 20
-109.99292199999861
 10
173.45050400000153
 20
-109.94643999999862
 10
173.46955400000155
 20
-109.89995799999862
 10
173.48860400000154
 20
-109.85372999999862
 10
173.50765400000157
 20
-109.8075019999986
 10
173.5267040000016
 20
-109.76127399999861
 10
173.54575400000158
 20
-109.7152999999986
 10
173.56455000000156
 20
-109.66932599999862
 10
173.58334600000157
 20
-109.62335199999862
 10
173.60214200000155
 20
-109.57763199999862
 10
173.62093800000153
 20
-109.53191199999861
 10
173.63973400000154
 20
-109.48619199999861
 10
173.65853000000152
 20
-109.44072599999862
 10
173.7497160000015
 20
-109.21949199999862
 10
173.84064800000152
 20
-108.99774999999863
 10
173.93132600000152
 20
-108.77524599999863
 10
174.0212420000015
 20
-108.55147199999864
 10
174.10988800000152
 20
-108.32668199999864
 10
174.19726400000155
 20
-108.10036799999864
 10
174.28286200000153
 20
-107.87252999999865
 10
174.36642800000152
 20
-107.64291399999864
 10
174.44770800000154
 20
-107.41126599999865
 10
174.52644800000152
 20
-107.17758599999864
 10
174.60214000000153
 20
-106.94161999999865
 10
174.6745300000015
 20
-106.70311399999865
 10
174.74336400000152
 20
-106.46181399999865
 10
174.8083880000015
 20
-106.21771999999865
 10
174.8690940000015
 20
-105.97057799999864
 10
174.9252280000015
 20
-105.72013399999865
 10
174.97653600000152
 20
-105.46638799999864
 10
175.0227640000015
 20
-105.20883199999864
 10
175.0634040000015
 20
-104.94746599999864
 10
175.0982020000015
 20
-104.68228999999864
 10
175.1269040000015
 20
-104.41279599999865
 10
175.1492560000015
 20
-104.13898399999866
 10
175.1647500000015
 20
-103.86059999999866
 10
175.17313200000152
 20
-103.57738999999864
 10
175.1741480000015
 20
-103.28935399999865
 10
175.16754400000153
 20
-102.99623799999864
 10
175.15306600000153
 20
-102.69778799999864
 10
175.13020600000152
 20
-102.39400399999865
 10
175.09871000000152
 20
-102.08437799999864
 10
175.05807000000152
 20
-101.76890999999864
 10
175.0082860000015
 20
-101.44759999999864
 10
174.9488500000015
 20
-101.11993999999864
 10
174.9381820000015
 20
-101.06583799999862
 10
174.92700600000148
 20
-101.01173599999862
 10
174.91532200000148
 20
-100.95737999999862
 10
174.90338400000147
 20
-100.90302399999862
 10
174.89093800000148
 20
-100.84841399999863
 10
174.87798400000148
 20
-100.79380399999863
 10
174.86477600000146
 20
-100.73919399999865
 10
174.85106000000147
 20
-100.68432999999864
 10
174.83683600000145
 20
-100.62946599999864
 10
174.82235800000146
 20
-100.57460199999863
 10
174.80737200000146
 20
-100.51948399999864
 10
174.79187800000145
 20
-100.46436599999865
 10
174.77613000000144
 20
-100.40924799999864
 10
174.75987400000147
 20
-100.35387599999865
 10
174.74311000000145
 20
-100.29850399999864
 10
174.72609200000144
 20
-100.24313199999864
 10
174.70856600000147
 20
-100.18775999999863
 10
174.69053200000147
 20
-100.13213399999863
 10
174.67224400000146
 20
-100.07650799999863
 10
174.65344800000148
 20
-100.02088199999864
 10
174.63414400000147
 20
-99.96525599999863
 10
174.61458600000145
 20
-99.90937599999863
 10
174.59452000000147
 20
-99.85349599999861
 10
174.57394600000146
 20
-99.79761599999861
 10
174.55311800000146
 20
-99.74173599999861
 10
174.5317820000015
 20
-99.6858559999986
 10
174.51019200000147
 20
-99.62997599999859
 10
174.48809400000147
 20
-99.57384199999859
 10
174.46548800000147
 20
-99.51770799999859
 10
174.44262800000146
 20
-99.46157399999859
 10
174.41926000000146
 20
-99.40543999999859
 10
174.39563800000147
 20
-99.34930599999859
 10
174.39538400000148
 20
-99.3485439999986
 10
174.39513000000147
 20
-99.3477819999986
 10
174.3948760000015
 20
-99.3470199999986
 10
174.3946220000015
 20
-99.3462579999986
 10
174.3943680000015
 20
-99.3454959999986
 10
174.3941140000015
 20
-99.34473399999861
 10
174.39386000000152
 20
-99.34397199999862
 10
174.3936060000015
 20
-99.34320999999862
 10
174.39335200000153
 20
-99.34244799999863
 10
174.39309800000154
 20
-99.34168599999863
 10
174.39284400000153
 20
-99.34092399999862
 10
174.39259000000155
 20
-99.34016199999863
 10
174.39233600000154
 20
-99.33939999999863
 10
174.39208200000155
 20
-99.33863799999864
 10
174.39182800000157
 20
-99.33787599999864
 10
174.39157400000155
 20
-99.33711399999865
 10
174.39132000000157
 20
-99.33635199999866
 10
174.3910660000016
 20
-99.33558999999866
 10
174.39081200000157
 20
-99.33482799999865
 10
174.3905580000016
 20
-99.33406599999866
 10
174.3903040000016
 20
-99.33330399999866
 10
174.3900500000016
 20
-99.33254199999867
 10
174.3897960000016
 20
-99.33177999999867
 10
174.38954200000163
 20
-99.33101799999868
 10
174.3892880000016
 20
-99.33025599999868
 10
174.38903400000163
 20
-99.32949399999868
 10
174.38878000000165
 20
-99.32873199999868
 10
174.38852600000163
 20
-99.32796999999869
 10
174.38827200000165
 20
-99.32720799999869
 10
174.38801800000164
 20
-99.3264459999987
 10
174.38776400000165
 20
-99.3256839999987
 10
174.38751000000167
 20
-99.32492199999871
 10
174.32401000000166
 20
-99.17836399999871
 10
174.25924000000165
 20
-99.0325679999987
 10
174.19294600000168
 20
-98.88778799999871
 10
174.12512800000167
 20
-98.7437699999987
 10
174.05604000000164
 20
-98.60076799999871
 10
173.98542800000163
 20
-98.45852799999871
 10
173.91354600000165
 20
-98.31730399999871
 10
173.84014000000164
 20
-98.17684199999871
 10
173.76546400000166
 20
-98.03739599999871
 10
173.68926400000166
 20
-97.89871199999871
 10
173.61179400000168
 20
-97.76104399999872
 10
173.53280000000166
 20
-97.62439199999872
 10
173.45253600000166
 20
-97.48875599999872
 10
173.37100200000165
 20
-97.35388199999872
 10
173.28794400000166
 20
-97.22002399999873
 10
173.20361600000166
 20
-97.08718199999872
 10
173.11776400000164
 20
-96.95535599999872
 10
173.03064200000168
 20
-96.82454599999872
 10
172.94225000000168
 20
-96.69475199999872
 10
172.85233400000166
 20
-96.56571999999872
 10
172.76114800000167
 20
-96.43770399999872
 10
172.66869200000164
 20
-96.31070399999871
 10
172.57496600000164
 20
-96.18471999999872
 10
172.47971600000164
 20
-96.05975199999871
 10
172.38319600000165
 20
-95.9360539999987
 10
172.28540600000164
 20
-95.81337199999871
 10
172.18634600000163
 20
-95.6917059999987
 10
172.08601600000165
 20
-95.5710559999987
 10
171.98416200000167
 20
-95.4514219999987
 10
171.88103800000167
 20
-95.3328039999987
 10
171.77664400000168
 20
-95.21545599999871
 10
171.6709800000017
 20
-95.09912399999871
 10
171.55896600000167
 20
-94.9756799999987
 10
171.45127000000167
 20
-94.8542679999987
 10
171.34738400000168
 20
-94.7346339999987
 10
171.24756200000166
 20
-94.6167779999987
 10
171.15180400000168
 20
-94.5006999999987
 10
171.06011000000169
 20
-94.3861459999987
 10
170.97222600000168
 20
-94.2731159999987
 10
170.88840600000168
 20
-94.16160999999869
 10
170.80839600000166
 20
-94.0516279999987
 10
170.73219600000166
 20
-93.9429159999987
 10
170.65980600000168
 20
-93.8354739999987
 10
170.59122600000168
 20
-93.7293019999987
 10
170.52645600000167
 20
-93.62439999999869
 10
170.46549600000168
 20
-93.5205139999987
 10
170.4080920000017
 20
-93.4176439999987
 10
170.3542440000017
 20
-93.3157899999987
 10
170.3042060000017
 20
-93.2149519999987
 10
170.2577240000017
 20
-93.1148759999987
 10
170.21479800000168
 20
-93.01581599999871
 10
170.1754280000017
 20
-92.91751799999871
 10
170.1393600000017
 20
-92.8197279999987
 10
170.10684800000166
 20
-92.72269999999871
 10
170.07789200000167
 20
-92.62617999999871
 10
170.05223800000167
 20
-92.53016799999871
 10
170.02988600000168
 20
-92.43466399999872
 10
170.01083600000166
 20
-92.33941399999871
 10
169.99508800000166
 20
-92.2444179999987
 10
169.98264200000168
 20
-92.1496759999987
 10
169.97349800000168
 20
-92.05518799999871
 10
169.96765600000168
 20
-91.96095399999871
 10
169.9648620000017
 20
-91.86671999999872
 10
169.96511600000167
 20
-91.77248599999872
 10
169.9719740000017
 20
-91.59646399999873
 10
169.98518200000169
 20
-91.42374399999872
 10
170.0047400000017
 20
-91.25432599999873
 10
170.03039400000168
 20
-91.08846399999872
 10
170.06239800000168
 20
-90.92641199999873
 10
170.1004980000017
 20
-90.76816999999873
 10
170.14469400000166
 20
-90.61399199999873
 10
170.19498600000168
 20
-90.46387799999873
 10
170.25137400000168
 20
-90.31808199999872
 10
170.31360400000167
 20
-90.17660399999872
 10
170.38193000000166
 20
-90.03995199999872
 10
170.45609800000167
 20
-89.90787199999872
 10
170.5361080000017
 20
-89.78087199999872
 10
170.62196000000168
 20
-89.65895199999872
 10
170.71340000000168
 20
-89.54211199999872
 10
170.8106820000017
 20
-89.43060599999872
 10
170.9135520000017
 20
-89.32468799999872
 10
171.0220100000017
 20
-89.22435799999873
 10
171.13605600000167
 20
-89.12986999999872
 10
171.2556900000017
 20
-89.04122399999872
 10
171.3809120000017
 20
-88.95867399999872
 10
171.51146800000168
 20
-88.88247399999872
 10
171.6476120000017
 20
-88.81262399999873
 10
171.7890900000017
 20
-88.74937799999873
 10
171.93590200000168
 20
-88.69298999999873
 10
172.08779400000168
 20
-88.64345999999874
 10
172.2450200000017
 20
-88.60078799999873
 10
172.4073260000017
 20
-88.56522799999874
 10
172.57496600000167
 20
-88.53703399999874
 10
172.74768600000166
 20
-88.51645999999873
 10
172.92523200000164
 20
-88.50350599999874
 10
173.10785800000167
 20
-88.49817199999873
 10
173.51832200000166
 20
-88.49512399999873
 10
173.91126000000168
 20
-88.49207599999873
 10
174.28768800000165
 20
-88.48877399999874
 10
174.64836800000165
 20
-88.48547199999875
 10
174.99431600000165
 20
-88.48216999999875
 10
175.32654800000162
 20
-88.47861399999874
 10
175.64582600000162
 20
-88.47505799999874
 10
175.95316600000163
 20
-88.47150199999874
 10
176.24958400000165
 20
-88.46769199999875
 10
176.53584200000162
 20
-88.46388199999875
 10
176.81295600000163
 20
-88.45981799999875
 10
177.08194200000162
 20
-88.45549999999875
 10
177.3435620000016
 20
-88.45118199999875
 10
177.5988320000016
 20
-88.44660999999876
 10
177.8485140000016
 20
-88.44178399999875
 10
178.0936240000016
 20
-88.43695799999875
 10
178.3351780000016
 20
-88.43187799999876
 10
178.57393800000162
 20
-88.42654399999876
 10
178.81092000000163
 20
-88.42095599999875
 10
179.04688600000162
 20
-88.41536799999875
 10
179.2828520000016
 20
-88.40952599999875
 10
179.51983400000162
 20
-88.40342999999875
 10
179.75859400000164
 20
-88.39707999999875
 10
180.00014800000162
 20
-88.39047599999876
 10
180.24551200000164
 20
-88.38361799999876
 10
180.49544800000163
 20
-88.37650599999876
 10
180.75097200000164
 20
-88.36888599999875
 10
181.01310000000163
 20
-88.36101199999875
 10
181.28259400000167
 20
-88.35288399999877
 10
181.56047000000166
 20
-88.34450199999876
 10
181.84749000000167
 20
-88.33586599999876
 10
182.14467000000164
 20
-88.32672199999875
 10
182.23636400000166
 20
-88.32392799999876
 10
182.32907400000164
 20
-88.32113399999875
 10
182.42280000000167
 20
-88.31833999999874
 10
182.51754200000167
 20
-88.31554599999873
 10
182.61355400000167
 20
-88.31249799999874
 10
182.71058200000166
 20
-88.30944999999873
 10
182.80888000000166
 20
-88.30640199999873
 10
182.90844800000167
 20
-88.30335399999873
 10
183.00903200000167
 20
-88.30030599999873
 10
183.11088600000164
 20
-88.29725799999873
 10
183.21401000000162
 20
-88.29420999999873
 10
183.3184040000016
 20
-88.29116199999874
 10
183.42432200000164
 20
-88.28785999999874
 10
183.53151000000165
 20
-88.28455799999874
 10
183.63996800000163
 20
-88.28125599999875
 10
183.74995000000163
 20
-88.27795399999876
 10
183.86120200000164
 20
-88.27465199999877
 10
183.97397800000164
 20
-88.27134999999876
 10
184.08827800000162
 20
-88.26804799999877
 10
184.20410200000163
 20
-88.26474599999878
 10
184.32145000000165
 20
-88.26118999999878
 10
184.44032200000163
 20
-88.25763399999877
 10
184.56071800000163
 20
-88.25407799999877
 10
184.68263800000165
 20
-88.25052199999877
 10
184.80633600000164
 20
-88.24696599999876
 10
184.93155800000164
 20
-88.24340999999876
 10
185.05855800000165
 20
-88.23959999999877
 10
185.18708200000165
 20
-88.23578999999877
 10
185.31738400000165
 20
-88.23197999999877
 10
185.44946400000165
 20
-88.22816999999878
 10
185.58332200000166
 20
-88.22435999999878
 10
185.71895800000166
 20
-88.22054999999878
  0
LWPOLYLINE
  5
3A
330
17
100
AcDbEntity
  8
0
100
AcDbPolyline
 90
769
 70
0
 10
162.30777800000166
 20
-149.00681399999877
 10
162.31285800000165
 20
-148.87778199999877
 10
162.31819200000166
 20
-148.74874999999875
 10
162.32378000000165
 20
-148.61971799999876
 10
162.32987600000166
 20
-148.49068599999873
 10
162.33622600000166
 20
-148.36165399999874
 10
162.34308400000165
 20
-148.2326219999987
 10
162.35019600000166
 20
-148.10358999999872
 10
162.35781600000166
 20
-147.9745579999987
 10
162.36569000000165
 20
-147.8455259999987
 10
162.37407200000166
 20
-147.71649399999868
 10
162.38270800000166
 20
-147.58746199999868
 10
162.39185200000165
 20
-147.45842999999866
 10
162.40150400000164
 20
-147.32939799999866
 10
162.41141000000164
 20
-147.20036599999864
 10
162.42182400000166
 20
-147.07158799999866
 10
162.43274600000166
 20
-146.94280999999867
 10
162.44392200000166
 20
-146.8140319999987
 10
162.45560600000167
 20
-146.6852539999987
 10
162.46779800000166
 20
-146.5564759999987
 10
162.48024400000165
 20
-146.4276979999987
 10
162.49319800000166
 20
-146.29891999999873
 10
162.50666000000166
 20
-146.17014199999875
 10
162.52063000000166
 20
-146.04136399999877
 10
162.53510800000166
 20
-145.91283999999877
 10
162.54984000000167
 20
-145.78431599999877
 10
162.56508000000164
 20
-145.6557919999988
 10
162.58082800000165
 20
-145.5272679999988
 10
162.59708400000164
 20
-145.3987439999988
 10
162.61384800000164
 20
-145.2702199999988
 10
162.63112000000163
 20
-145.1416959999988
 10
162.64890000000165
 20
-145.01317199999883
 10
162.66718800000166
 20
-144.88490199999882
 10
162.76701000000168
 20
-144.24253599999884
 10
162.88080200000167
 20
-143.60728199999883
 10
163.00831000000164
 20
-142.97888599999882
 10
163.14953400000167
 20
-142.3573479999988
 10
163.30422000000166
 20
-141.74266799999882
 10
163.47236800000167
 20
-141.13459199999883
 10
163.65347000000168
 20
-140.5331199999988
 10
163.84752600000166
 20
-139.9382519999988
 10
164.0545360000017
 20
-139.3499879999988
 10
164.27424600000168
 20
-138.7680739999988
 10
164.50640200000169
 20
-138.1925099999988
 10
164.7507500000017
 20
-137.62329599999882
 10
165.0072900000017
 20
-137.0604319999988
 10
165.27576800000168
 20
-136.5036639999988
 10
165.55593000000167
 20
-135.9529919999988
 10
165.84777600000166
 20
-135.4084159999988
 10
166.15105200000167
 20
-134.8699359999988
 10
166.46550400000166
 20
-134.3372979999988
 10
166.79087800000167
 20
-133.81050199999882
 10
167.12717400000165
 20
-133.2895479999988
 10
167.47439200000164
 20
-132.7741819999988
 10
167.83202400000164
 20
-132.2646579999988
 10
168.20007000000163
 20
-131.7607219999988
 10
168.57827600000164
 20
-131.2623739999988
 10
168.96664200000163
 20
-130.76935999999878
 10
169.36491400000162
 20
-130.2816799999988
 10
169.77283800000163
 20
-129.7993339999988
 10
170.19041400000162
 20
-129.32232199999882
 10
170.6171340000016
 20
-128.8506439999988
 10
171.0532520000016
 20
-128.38404599999882
 10
171.4982600000016
 20
-127.9225279999988
 10
171.95215800000162
 20
-127.4658359999988
 10
172.1746620000016
 20
-127.24637999999881
 10
172.3981820000016
 20
-127.02768599999881
 10
172.6229720000016
 20
-126.8100079999988
 10
172.8490320000016
 20
-126.5930919999988
 10
173.0761080000016
 20
-126.3771919999988
 10
173.3044540000016
 20
-126.1623079999988
 10
173.5338160000016
 20
-125.9481859999988
 10
173.7644480000016
 20
-125.7350799999988
 10
173.99609600000161
 20
-125.5229899999988
 10
174.22876000000164
 20
-125.3121699999988
 10
174.46269400000165
 20
-125.1023659999988
 10
174.69764400000165
 20
-124.8935779999988
 10
174.93386400000162
 20
-124.6860599999988
 10
175.17110000000162
 20
-124.4798119999988
 10
175.4093520000016
 20
-124.27483399999879
 10
175.6486200000016
 20
-124.07087199999879
 10
175.8891580000016
 20
-123.86843399999879
 10
176.1307120000016
 20
-123.66726599999879
 10
176.37328200000164
 20
-123.4673679999988
 10
176.6168680000016
 20
-123.2687399999988
 10
176.86147000000162
 20
-123.0716359999988
 10
177.1073420000016
 20
-122.87605599999881
 10
177.3542300000016
 20
-122.68174599999881
 10
177.6021340000016
 20
-122.48895999999881
 10
177.8510540000016
 20
-122.2976979999988
 10
178.10099000000162
 20
-122.10795999999881
 10
178.35194200000163
 20
-121.91974599999881
 10
178.6039100000016
 20
-121.73330999999881
 10
178.8568940000016
 20
-121.54839799999881
 10
179.1108940000016
 20
-121.36526399999882
 10
179.36565600000162
 20
-121.18390799999881
 10
179.6214340000016
 20
-121.0040759999988
 10
179.9102320000016
 20
-120.8039239999988
 10
180.20004600000158
 20
-120.6052959999988
 10
180.4906220000016
 20
-120.40793799999881
 10
180.78170600000158
 20
-120.2115959999988
 10
181.07329800000159
 20
-120.01601599999881
 10
181.36514400000158
 20
-119.82094399999882
 10
181.65699000000157
 20
-119.62612599999882
 10
181.94883600000156
 20
-119.43130799999882
 10
182.2401740000016
 20
-119.23623599999883
 10
182.5310040000016
 20
-119.04065599999883
 10
182.8213260000016
 20
-118.84431399999882
 10
183.1106320000016
 20
-118.64695599999882
 10
183.3989220000016
 20
-118.44858199999882
 10
183.6859420000016
 20
-118.24868399999883
 10
183.9714380000016
 20
-118.04700799999884
 10
184.2551560000016
 20
-117.84329999999883
 10
184.53709600000158
 20
-117.63730599999883
 10
184.8170040000016
 20
-117.42877199999883
 10
185.09462600000157
 20
-117.21769799999882
 10
185.36996200000155
 20
-117.00357599999882
 10
185.64275800000155
 20
-116.78615199999882
 10
185.91276000000155
 20
-116.56517199999882
 10
186.17971400000155
 20
-116.34063599999881
 10
186.44336600000156
 20
-116.11203599999882
 10
186.70371600000155
 20
-115.87911799999883
 10
186.96051000000153
 20
-115.64162799999883
 10
187.21374800000154
 20
-115.39956599999883
 10
187.46292200000153
 20
-115.15242399999883
 10
187.70803200000154
 20
-114.89994799999883
 10
187.94882400000154
 20
-114.64213799999882
 10
188.1850440000015
 20
-114.37848599999883
 10
188.41669200000155
 20
-114.10873799999882
 10
188.52946800000151
 20
-113.97386399999883
 10
188.64122800000155
 20
-113.83848199999882
 10
188.75222600000154
 20
-113.70259199999882
 10
188.86220800000154
 20
-113.56619399999882
 10
188.97142800000154
 20
-113.42928799999882
 10
189.07963200000154
 20
-113.29187399999881
 10
189.18707400000153
 20
-113.15395199999882
 10
189.2937540000015
 20
-113.01552199999881
 10
189.39967200000154
 20
-112.8765839999988
 10
189.50457400000153
 20
-112.73713799999881
 10
189.60871400000153
 20
-112.59718399999882
 10
189.71209200000155
 20
-112.4569759999988
 10
189.81470800000153
 20
-112.31625999999882
 10
189.91656200000153
 20
-112.17503599999883
 10
190.01765400000153
 20
-112.03330399999882
 10
190.11798400000154
 20
-111.89106399999882
 10
190.21755200000155
 20
-111.74856999999882
 10
190.31635800000154
 20
-111.60556799999883
 10
190.41440200000153
 20
-111.46205799999883
 10
190.51168400000154
 20
-111.31829399999884
 10
190.60820400000154
 20
-111.17402199999884
 10
190.70421600000157
 20
-111.02924199999885
 10
190.79946600000156
 20
-110.88420799999884
 10
190.89395400000154
 20
-110.73866599999884
 10
190.98793400000156
 20
-110.59261599999884
 10
191.08115200000154
 20
-110.44631199999884
 10
191.17360800000154
 20
-110.29949999999884
 10
191.26555600000154
 20
-110.15243399999885
 10
191.35674200000153
 20
-110.00485999999884
 10
191.44742000000153
 20
-109.85703199999884
 10
191.53759000000153
 20
-109.70869599999884
 10
191.62699800000155
 20
-109.56010599999884
 10
191.61912400000156
 20
-109.59388799999884
 10
191.61125000000158
 20
-109.62766999999883
 10
191.6033760000016
 20
-109.66145199999883
 10
191.59524800000156
 20
-109.69523399999883
 10
191.58712000000156
 20
-109.72901599999882
 10
191.57899200000153
 20
-109.76305199999882
 10
191.57086400000154
 20
-109.79708799999884
 10
191.56273600000154
 20
-109.83112399999884
 10
191.5546080000015
 20
-109.86515999999884
 10
191.5464800000015
 20
-109.89919599999884
 10
191.5380980000015
 20
-109.93323199999884
 10
191.52971600000149
 20
-109.96752199999884
 10
191.5213340000015
 20
-110.00181199999884
 10
191.5129520000015
 20
-110.03610199999883
 10
191.50457000000148
 20
-110.07039199999883
 10
191.4961880000015
 20
-110.10468199999883
 10
191.48755200000147
 20
-110.13922599999884
 10
191.47891600000148
 20
-110.17376999999884
 10
191.47028000000148
 20
-110.20831399999885
 10
191.46164400000148
 20
-110.24285799999886
 10
191.4530080000015
 20
-110.27765599999886
 10
191.4443720000015
 20
-110.31245399999885
 10
191.4354820000015
 20
-110.34725199999886
 10
191.4265920000015
 20
-110.38204999999886
 10
191.41770200000153
 20
-110.41684799999886
 10
191.40881200000152
 20
-110.45189999999886
 10
191.39992200000154
 20
-110.48695199999885
 10
191.39077800000155
 20
-110.52200399999884
 10
191.38163400000155
 20
-110.55705599999884
 10
191.3724900000016
 20
-110.59236199999884
 10
191.3633460000016
 20
-110.62766799999883
 10
191.3542020000016
 20
-110.66297399999884
 10
191.3046720000016
 20
-110.85144199999884
 10
191.2531100000016
 20
-111.04575199999884
 10
191.1995160000016
 20
-111.24564999999883
 10
191.1441440000016
 20
-111.45088199999884
 10
191.0869940000016
 20
-111.66119399999883
 10
191.02806600000162
 20
-111.87658599999884
 10
190.9673600000016
 20
-112.09654999999883
 10
190.9051300000016
 20
-112.32108599999883
 10
190.84137600000162
 20
-112.54993999999884
 10
190.7760980000016
 20
-112.78311199999884
 10
190.70955000000163
 20
-113.02009399999883
 10
190.6417320000016
 20
-113.26088599999883
 10
190.57264400000162
 20
-113.50523399999882
 10
190.5022860000016
 20
-113.75288399999883
 10
190.4309120000016
 20
-114.00358199999884
 10
190.3585220000016
 20
-114.25707399999884
 10
190.2851160000016
 20
-114.51335999999884
 10
190.21094800000162
 20
-114.77218599999884
 10
190.13601800000163
 20
-115.03329799999885
 10
190.06032600000162
 20
-115.29644199999885
 10
189.9838720000016
 20
-115.56136399999885
 10
189.9069100000016
 20
-115.82806399999885
 10
189.82944000000163
 20
-116.09628799999885
 10
189.75146200000162
 20
-116.36578199999884
 10
189.67297600000163
 20
-116.63629199999885
 10
189.59423600000164
 20
-116.90756399999884
 10
189.51524200000162
 20
-117.17959799999885
 10
189.43599400000164
 20
-117.45213999999883
 10
189.35674600000164
 20
-117.72468199999884
 10
189.27749800000163
 20
-117.99747799999884
 10
189.19825000000162
 20
-118.27001999999884
 10
189.11900200000161
 20
-118.54230799999883
 10
189.05296200000163
 20
-118.76963799999882
 10
188.98717600000163
 20
-118.99595199999884
 10
188.9216440000016
 20
-119.22124999999883
 10
188.85636600000163
 20
-119.44553199999882
 10
188.79134200000163
 20
-119.66879799999883
 10
188.7268260000016
 20
-119.89079399999883
 10
188.66281800000164
 20
-120.11151999999885
 10
188.59906400000165
 20
-120.33072199999884
 10
188.53581800000163
 20
-120.54839999999885
 10
188.47308000000163
 20
-120.76455399999885
 10
188.41110400000164
 20
-120.97892999999885
 10
188.34963600000165
 20
-121.19152799999885
 10
188.28867600000166
 20
-121.40209399999885
 10
188.22847800000164
 20
-121.61062799999885
 10
188.16904200000164
 20
-121.81712999999885
 10
188.11036800000164
 20
-122.02159999999886
 10
188.05245600000165
 20
-122.22378399999886
 10
187.99530600000165
 20
-122.42368199999885
 10
187.93891800000165
 20
-122.62103999999884
 10
187.88329200000163
 20
-122.81585799999884
 10
187.82868200000163
 20
-123.00813599999884
 10
187.77483400000165
 20
-123.19761999999884
 10
187.72200200000165
 20
-123.38430999999885
 10
187.67018600000165
 20
-123.56795199999884
 10
187.61938600000164
 20
-123.74879999999884
 10
187.56960200000165
 20
-123.92634599999884
 10
187.52083400000163
 20
-124.10084399999884
 10
187.47333600000164
 20
-124.27203999999884
 10
187.42685400000164
 20
-124.43993399999884
 10
187.38164200000165
 20
-124.60427199999884
 10
187.33770000000163
 20
-124.76505399999884
 10
187.29502800000162
 20
-124.92227999999885
 10
187.26734200000163
 20
-125.02387999999884
 10
187.23991000000163
 20
-125.12547999999883
 10
187.21222400000164
 20
-125.22707999999882
 10
187.18479200000164
 20
-125.32867999999883
 10
187.15710600000165
 20
-125.43027999999882
 10
187.12967400000164
 20
-125.53187999999881
 10
187.10198800000163
 20
-125.6334799999988
 10
187.07455600000165
 20
-125.7350799999988
 10
187.04687000000163
 20
-125.8366799999988
 10
187.01943800000166
 20
-125.93827999999878
 10
186.99175200000164
 20
-126.03987999999877
 10
186.96406600000162
 20
-126.14147999999878
 10
186.93663400000165
 20
-126.24307999999877
 10
186.90894800000163
 20
-126.34467999999876
 10
186.88151600000165
 20
-126.44627999999877
 10
186.85383000000164
 20
-126.54787999999876
 10
186.82639800000166
 20
-126.64947999999875
 10
186.79871200000164
 20
-126.75107999999874
 10
186.77128000000167
 20
-126.85267999999874
 10
186.74359400000165
 20
-126.95427999999873
 10
186.71616200000167
 20
-127.05587999999872
 10
186.68847600000166
 20
-127.15747999999871
 10
186.66079000000164
 20
-127.25907999999872
 10
186.63335800000166
 20
-127.36067999999871
 10
186.60567200000165
 20
-127.4622799999987
 10
186.57824000000167
 20
-127.56387999999869
 10
186.55055400000165
 20
-127.6654799999987
 10
186.52312200000168
 20
-127.76707999999869
 10
186.49543600000166
 20
-127.86867999999868
 10
186.46800400000168
 20
-127.97027999999867
 10
186.44031800000167
 20
-128.07187999999866
 10
186.41263200000165
 20
-128.17347999999865
 10
186.35167200000166
 20
-128.39826999999866
 10
186.29096600000165
 20
-128.62255199999865
 10
186.23026000000164
 20
-128.84632599999864
 10
186.1698080000016
 20
-129.06984599999865
 10
186.1093560000016
 20
-129.29311199999864
 10
186.04890400000158
 20
-129.51612399999865
 10
185.9884520000016
 20
-129.73913599999864
 10
185.92800000000156
 20
-129.96189399999864
 10
185.86754800000153
 20
-130.18465199999864
 10
185.80709600000154
 20
-130.40740999999863
 10
185.7466440000015
 20
-130.63016799999863
 10
185.6861920000015
 20
-130.85317999999864
 10
185.62574000000149
 20
-131.07619199999866
 10
185.5652880000015
 20
-131.29945799999865
 10
185.50458200000148
 20
-131.52297799999866
 10
185.44387600000147
 20
-131.74675199999865
 10
185.38291600000144
 20
-131.97103399999864
 10
185.32195600000145
 20
-132.19582399999865
 10
185.26074200000147
 20
-132.42112199999863
 10
185.19952800000146
 20
-132.64692799999864
 10
185.13806000000147
 20
-132.87324199999864
 10
185.07633800000147
 20
-133.10031799999862
 10
185.01436200000146
 20
-133.32790199999863
 10
184.95213200000146
 20
-133.55624799999862
 10
184.88964800000144
 20
-133.78560999999863
 10
184.82691000000148
 20
-134.01573399999862
 10
184.76391800000147
 20
-134.2468739999986
 10
184.70067200000145
 20
-134.47877599999862
 10
184.63717200000144
 20
-134.7119479999986
 10
184.57341800000145
 20
-134.9461359999986
 10
184.50915600000144
 20
-135.1813399999986
 10
184.44464000000144
 20
-135.41781399999863
 10
184.34812000000144
 20
-135.74598199999863
 10
184.25160000000145
 20
-136.07414999999864
 10
184.15508000000145
 20
-136.40231799999864
 10
184.05856000000145
 20
-136.73048599999868
 10
183.96204000000145
 20
-137.05865399999868
 10
183.86552000000145
 20
-137.3868219999987
 10
183.76900000000145
 20
-137.7149899999987
 10
183.67248000000146
 20
-138.0431579999987
 10
183.57596000000146
 20
-138.3713259999987
 10
183.47944000000146
 20
-138.6994939999987
 10
183.38292000000146
 20
-139.0276619999987
 10
183.28640000000146
 20
-139.35582999999872
 10
183.18988000000147
 20
-139.68399799999872
 10
183.09336000000147
 20
-140.01216599999873
 10
182.99684000000147
 20
-140.34033399999876
 10
182.90032000000144
 20
-140.66850199999877
 10
182.80380000000144
 20
-140.99666999999877
 10
182.70728000000145
 20
-141.32483799999878
 10
182.61076000000145
 20
-141.65300599999878
 10
182.51424000000145
 20
-141.9811739999988
 10
182.41772000000145
 20
-142.3093419999988
 10
182.32120000000145
 20
-142.6375099999988
 10
182.22468000000146
 20
-142.9656779999988
 10
182.12816000000146
 20
-143.2938459999988
 10
182.03164000000146
 20
-143.6220139999988
 10
181.93512000000146
 20
-143.95018199999885
 10
181.83860000000146
 20
-144.27834999999885
 10
181.74208000000147
 20
-144.60651799999886
 10
181.64556000000147
 20
-144.93468599999886
 10
181.54904000000147
 20
-145.26285399999887
 10
181.45252000000147
 20
-145.59102199999887
 10
181.35600000000147
 20
-145.91918999999888
 10
181.35549200000148
 20
-145.92096799999888
 10
181.3549840000015
 20
-145.92274599999885
 10
181.3544760000015
 20
-145.92452399999883
 10
181.35396800000152
 20
-145.92630199999883
 10
181.35346000000155
 20
-145.9280799999988
 10
181.35295200000155
 20
-145.9298579999988
 10
181.35244400000155
 20
-145.93163599999878
 10
181.35193600000156
 20
-145.93341399999878
 10
181.3514280000016
 20
-145.93519199999875
 10
181.3509200000016
 20
-145.93696999999875
 10
181.3504120000016
 20
-145.93874799999872
 10
181.34990400000163
 20
-145.94052599999873
 10
181.34939600000163
 20
-145.9423039999987
 10
181.34888800000164
 20
-145.9440819999987
 10
181.34838000000167
 20
-145.94585999999867
 10
181.34787200000167
 20
-145.94763799999868
 10
181.34736400000168
 20
-145.94941599999865
 10
181.34685600000168
 20
-145.95119399999865
 10
181.3463480000017
 20
-145.95297199999862
 10
181.34584000000171
 20
-145.95474999999863
 10
181.34533200000172
 20
-145.9565279999986
 10
181.34482400000175
 20
-145.9583059999986
 10
181.34431600000175
 20
-145.96008399999857
 10
181.34380800000176
 20
-145.96186199999858
 10
181.34330000000176
 20
-145.96363999999855
 10
181.3427920000018
 20
-145.96541799999855
 10
181.3422840000018
 20
-145.96719599999852
 10
181.3417760000018
 20
-145.9689739999985
 10
181.34126800000183
 20
-145.9707519999985
 10
181.34076000000184
 20
-145.97252999999847
 10
181.34025200000184
 20
-145.97430799999847
 10
181.33974400000187
 20
-145.97608599999845
 10
181.33923600000188
 20
-145.97786399999845
 10
181.33872800000188
 20
-145.97964199999842
 10
181.33822000000188
 20
-145.98141999999842
 10
181.33771200000191
 20
-145.9831979999984
 10
181.33720400000192
 20
-145.9849759999984
 10
181.33669600000192
 20
-145.98675399999837
 10
181.33618800000195
 20
-145.98853199999837
 10
181.33568000000196
 20
-145.99030999999835
 10
181.33517200000196
 20
-145.99208799999835
 10
181.334664000002
 20
-145.99386599999832
 10
181.334156000002
 20
-145.99564399999832
 10
181.333648000002
 20
-145.9974219999983
 10
181.333140000002
 20
-145.9991999999983
 10
181.33263200000204
 20
-146.00097799999827
 10
181.33212400000204
 20
-146.00275599999827
 10
181.33161600000204
 20
-146.00453399999824
 10
181.33110800000208
 20
-146.00631199999825
 10
181.33060000000208
 20
-146.00808999999822
 10
181.33009200000208
 20
-146.00986799999822
 10
181.3295840000021
 20
-146.0116459999982
 10
181.32907600000212
 20
-146.01342399999817
 10
181.32856800000212
 20
-146.01520199999817
 10
181.32806000000213
 20
-146.01697999999814
 10
181.32755200000216
 20
-146.01875799999814
 10
181.32704400000216
 20
-146.02053599999812
 10
181.32653600000216
 20
-146.02231399999812
 10
181.3260280000022
 20
-146.0240919999981
 10
181.3255200000022
 20
-146.0258699999981
 10
181.3250120000022
 20
-146.02764799999807
 10
181.3245040000022
 20
-146.02942599999807
 10
181.32399600000224
 20
-146.03120399999804
 10
181.32348800000224
 20
-146.03298199999804
 10
181.31866200000223
 20
-146.05380999999804
 10
181.31383600000225
 20
-146.07463799999803
 10
181.30926400000223
 20
-146.09546599999803
 10
181.30469200000223
 20
-146.11629399999802
 10
181.3001200000022
 20
-146.13712199999802
 10
181.2955480000022
 20
-146.15794999999804
 10
181.29097600000222
 20
-146.17877799999803
 10
181.2864040000022
 20
-146.19960599999803
 10
181.2818320000022
 20
-146.22043399999802
 10
181.27726000000217
 20
-146.24126199999802
 10
181.27268800000218
 20
-146.262089999998
 10
181.26811600000218
 20
-146.282917999998
 10
181.26354400000216
 20
-146.303999999998
 10
181.25897200000216
 20
-146.325081999998
 10
181.25440000000214
 20
-146.346163999998
 10
181.24982800000214
 20
-146.36724599999798
 10
181.24551000000213
 20
-146.38832799999798
 10
181.24119200000212
 20
-146.40940999999796
 10
181.2368740000021
 20
-146.43049199999797
 10
181.2325560000021
 20
-146.45157399999795
 10
181.22823800000208
 20
-146.47265599999795
 10
181.22392000000207
 20
-146.49373799999793
 10
181.21960200000206
 20
-146.51481999999794
 10
181.21528400000204
 20
-146.53590199999792
 10
181.21096600000203
 20
-146.55698399999793
 10
181.206648000002
 20
-146.5780659999979
 10
181.20233000000198
 20
-146.5991479999979
 10
181.19801200000197
 20
-146.6202299999979
 10
181.19369400000195
 20
-146.6413119999979
 10
181.18937600000194
 20
-146.66239399999787
 10
181.18505800000193
 20
-146.68347599999788
 10
181.18074000000192
 20
-146.70455799999786
 10
181.17210400000192
 20
-146.74672199999787
 10
181.16346800000193
 20
-146.78863199999788
 10
181.15483200000193
 20
-146.83028799999786
 10
181.14619600000194
 20
-146.87194399999785
 10
181.13756000000194
 20
-146.91334599999786
 10
181.12892400000194
 20
-146.95449399999788
 10
181.12028800000195
 20
-146.99564199999787
 10
181.11165200000195
 20
-147.03653599999788
 10
181.10301600000193
 20
-147.07717599999785
 10
181.09438000000193
 20
-147.11756199999786
 10
181.08574400000194
 20
-147.15794799999784
 10
181.07685400000196
 20
-147.19807999999787
 10
181.06796400000195
 20
-147.23795799999786
 10
181.05907400000197
 20
-147.27758199999786
 10
181.050184000002
 20
-147.31695199999785
 10
181.041040000002
 20
-147.35606799999786
 10
181.031896000002
 20
-147.39492999999786
 10
181.02275200000201
 20
-147.43353799999787
 10
181.013354000002
 20
-147.47189199999787
 10
181.003956000002
 20
-147.50999199999785
 10
180.994304000002
 20
-147.54783799999785
 10
180.984652000002
 20
-147.58542999999784
 10
180.974746000002
 20
-147.62276799999788
 10
180.964840000002
 20
-147.65985199999787
 10
180.954680000002
 20
-147.69668199999785
 10
180.94452000000203
 20
-147.73325799999785
 10
180.934106000002
 20
-147.76957999999786
 10
180.923438000002
 20
-147.80539399999785
 10
180.91277000000198
 20
-147.84095399999785
 10
180.901848000002
 20
-147.87625999999784
 10
180.89067200000198
 20
-147.91131199999785
 10
180.879496000002
 20
-147.94610999999784
 10
180.85816000000202
 20
-148.00859399999783
 10
180.834792000002
 20
-148.07183999999785
 10
180.80939200000202
 20
-148.13584799999782
 10
180.78221400000203
 20
-148.20036399999785
 10
180.75300400000202
 20
-148.26538799999784
 10
180.721762000002
 20
-148.33066599999782
 10
180.688742000002
 20
-148.3959439999978
 10
180.653690000002
 20
-148.4612219999978
 10
180.616860000002
 20
-148.5262459999978
 10
180.57825200000198
 20
-148.5907619999978
 10
180.537612000002
 20
-148.65476999999777
 10
180.495194000002
 20
-148.7180159999978
 10
180.450998000002
 20
-148.78049999999777
 10
180.404770000002
 20
-148.84196799999776
 10
180.35676400000202
 20
-148.9024199999978
 10
180.306980000002
 20
-148.96134799999777
 10
180.255418000002
 20
-149.01900599999777
 10
180.202078000002
 20
-149.07488599999778
 10
180.146960000002
 20
-149.12898799999778
 10
180.09006400000197
 20
-149.18131199999777
 10
180.03139000000198
 20
-149.23160399999776
 10
179.97093800000198
 20
-149.27960999999775
 10
179.90870800000198
 20
-149.32532999999773
 10
179.84470000000198
 20
-149.36850999999774
 10
179.77891400000198
 20
-149.40889599999772
 10
179.711350000002
 20
-149.44648799999774
 10
179.642008000002
 20
-149.48103199999773
 10
179.570888000002
 20
-149.51252799999773
 10
179.49824400000202
 20
-149.54072199999774
 10
179.423822000002
 20
-149.56561399999774
 10
179.34762200000202
 20
-149.58669599999772
 10
179.269898000002
 20
-149.60422199999772
 10
179.24221200000198
 20
-149.6095559999977
 10
179.214018000002
 20
-149.6146359999977
 10
179.185570000002
 20
-149.61971599999768
 10
179.156868000002
 20
-149.6245419999977
 10
179.127658000002
 20
-149.62911399999768
 10
179.098194000002
 20
-149.6336859999977
 10
179.068476000002
 20
-149.63800399999772
 10
179.03850400000198
 20
-149.6420679999977
 10
179.008024000002
 20
-149.6461319999977
 10
178.977290000002
 20
-149.64994199999768
 10
178.946302000002
 20
-149.65349799999768
 10
178.914806000002
 20
-149.6570539999977
 10
178.883056000002
 20
-149.6603559999977
 10
178.85079800000202
 20
-149.66340399999768
 10
178.818286000002
 20
-149.6664519999977
 10
178.78552000000198
 20
-149.66924599999766
 10
178.752246000002
 20
-149.67178599999767
 10
178.718718000002
 20
-149.67432599999768
 10
178.684682000002
 20
-149.67661199999768
 10
178.650392000002
 20
-149.6786439999977
 10
178.61559400000203
 20
-149.68067599999767
 10
178.58054200000203
 20
-149.68245399999768
 10
178.54498200000202
 20
-149.68397799999767
 10
178.50916800000203
 20
-149.68550199999765
 10
178.47284600000202
 20
-149.68677199999766
 10
178.43601600000204
 20
-149.68778799999765
 10
178.39893200000205
 20
-149.68880399999767
 10
178.36134000000203
 20
-149.68956599999768
 10
178.32349400000203
 20
-149.69007399999768
 10
178.28514000000203
 20
-149.69058199999765
 10
178.24627800000204
 20
-149.69083599999766
 10
178.20716200000203
 20
-149.69083599999766
 10
178.16753800000205
 20
-149.69083599999766
 10
178.12791400000208
 20
-149.69058199999765
 10
178.08803600000206
 20
-149.69007399999768
 10
178.04815800000205
 20
-149.68956599999768
 10
178.00802600000205
 20
-149.68880399999767
 10
177.96789400000205
 20
-149.68804199999767
 10
177.92750800000204
 20
-149.68702599999764
 10
177.88712200000205
 20
-149.68600999999765
 10
177.84673600000204
 20
-149.68473999999765
 10
177.80609600000204
 20
-149.68346999999764
 10
177.76545600000208
 20
-149.68194599999765
 10
177.72456200000207
 20
-149.68042199999766
 10
177.6836680000021
 20
-149.67889799999767
 10
177.6425200000021
 20
-149.67711999999767
 10
177.60137200000207
 20
-149.6753419999977
 10
177.55997000000207
 20
-149.67330999999768
 10
177.51856800000206
 20
-149.67127799999767
 10
177.47691200000207
 20
-149.66924599999766
 10
177.43525600000208
 20
-149.66721399999767
 10
177.39334600000208
 20
-149.66492799999764
 10
177.35143600000208
 20
-149.66264199999765
 10
177.30927200000207
 20
-149.66035599999765
 10
177.26710800000205
 20
-149.65806999999765
 10
177.22469000000206
 20
-149.65552999999764
 10
177.18227200000206
 20
-149.65298999999766
 10
177.13960000000205
 20
-149.65044999999765
 10
177.09667400000205
 20
-149.64790999999767
 10
177.05374800000206
 20
-149.64536999999765
 10
177.01056800000205
 20
-149.64282999999764
 10
176.96738800000207
 20
-149.64028999999766
 10
176.92395400000206
 20
-149.63749599999767
 10
176.88026600000205
 20
-149.63470199999767
 10
176.85105600000205
 20
-149.6329239999977
 10
176.82184600000204
 20
-149.6311459999977
 10
176.79263600000206
 20
-149.62936799999773
 10
176.76368000000204
 20
-149.62758999999772
 10
176.73472400000205
 20
-149.62581199999775
 10
176.70576800000202
 20
-149.62403399999775
 10
176.67681200000203
 20
-149.62225599999778
 10
176.647856000002
 20
-149.62047799999777
 10
176.61890000000201
 20
-149.6186999999978
 10
176.589944000002
 20
-149.6169219999978
 10
176.56098800000197
 20
-149.61514399999783
 10
176.53203200000198
 20
-149.61336599999782
 10
176.50307600000195
 20
-149.61158799999785
 10
176.47412000000196
 20
-149.60980999999785
 10
176.44516400000194
 20
-149.60828599999786
 10
176.41620800000194
 20
-149.60676199999787
 10
176.38750600000193
 20
-149.60523799999788
 10
176.35880400000192
 20
-149.6037139999979
 10
176.3301020000019
 20
-149.6021899999979
 10
176.30140000000188
 20
-149.60066599999791
 10
176.27269800000187
 20
-149.59914199999793
 10
176.24399600000186
 20
-149.5976179999979
 10
176.21529400000185
 20
-149.59609399999792
 10
176.18659200000184
 20
-149.5948239999979
 10
176.1578900000018
 20
-149.59355399999794
 10
176.1291880000018
 20
-149.59228399999793
 10
176.10048600000178
 20
-149.59101399999793
 10
176.07203800000178
 20
-149.58974399999792
 10
176.0435900000018
 20
-149.58847399999794
 10
176.01514200000182
 20
-149.58720399999794
 10
175.98669400000182
 20
-149.58593399999793
 10
175.95824600000182
 20
-149.58491799999794
 10
175.85893200000183
 20
-149.58110799999793
 10
175.75911000000184
 20
-149.57729799999794
 10
175.65903400000184
 20
-149.57323399999794
 10
175.55845000000184
 20
-149.56916999999797
 10
175.45761200000183
 20
-149.56510599999797
 10
175.3565200000018
 20
-149.56104199999797
 10
175.25492000000182
 20
-149.55672399999796
 10
175.15306600000184
 20
-149.55240599999794
 10
175.05095800000183
 20
-149.54808799999793
 10
174.94859600000183
 20
-149.54351599999794
 10
174.84598000000182
 20
-149.5389439999979
 10
174.74311000000182
 20
-149.53437199999792
 10
174.63998600000184
 20
-149.52979999999792
 10
174.53686200000186
 20
-149.5252279999979
 10
174.43348400000184
 20
-149.5204019999979
 10
174.33010600000185
 20
-149.5155759999979
 10
174.22647400000184
 20
-149.5107499999979
 10
174.12284200000184
 20
-149.5059239999979
 10
174.01921000000183
 20
-149.50109799999788
 10
173.91532400000182
 20
-149.4962719999979
 10
173.81143800000183
 20
-149.4914459999979
 10
173.70755200000184
 20
-149.4863659999979
 10
173.60366600000182
 20
-149.4812859999979
 10
173.49978000000183
 20
-149.47620599999792
 10
173.39614800000183
 20
-149.4711259999979
 10
173.29251600000183
 20
-149.4660459999979
 10
173.18888400000182
 20
-149.4609659999979
 10
173.0855060000018
 20
-149.45588599999792
 10
172.9821280000018
 20
-149.45080599999793
 10
172.87900400000183
 20
-149.44572599999793
 10
172.77613400000183
 20
-149.44064599999794
 10
172.67326400000184
 20
-149.43556599999795
 10
172.56937800000182
 20
-149.43048599999796
 10
172.46523800000185
 20
-149.42540599999793
 10
172.36084400000186
 20
-149.42032599999794
 10
172.25645000000188
 20
-149.41524599999795
 10
172.15180200000185
 20
-149.41016599999796
 10
172.04715400000185
 20
-149.40508599999797
 10
171.94225200000184
 20
-149.40000599999797
 10
171.83735000000183
 20
-149.39492599999798
 10
171.73244800000185
 20
-149.389845999998
 10
171.62729200000186
 20
-149.384765999998
 10
171.52213600000184
 20
-149.379685999998
 10
171.41698000000184
 20
-149.37460599999798
 10
171.31182400000185
 20
-149.369525999998
 10
171.20666800000186
 20
-149.364699999998
 10
171.10151200000186
 20
-149.359873999998
 10
170.99661000000185
 20
-149.355047999998
 10
170.89170800000187
 20
-149.35022199999798
 10
170.78680600000186
 20
-149.345395999998
 10
170.68215800000183
 20
-149.340569999998
 10
170.57751000000184
 20
-149.33599799999797
 10
170.47311600000185
 20
-149.33142599999798
 10
170.36897600000185
 20
-149.32685399999798
 10
170.26509000000186
 20
-149.32228199999795
 10
170.16120400000187
 20
-149.31770999999796
 10
170.05757200000187
 20
-149.31339199999795
 10
169.95419400000185
 20
-149.30907399999793
 10
169.85107000000187
 20
-149.30475599999792
 10
169.74820000000187
 20
-149.30069199999792
 10
169.64583800000187
 20
-149.29662799999792
 10
169.54373000000186
 20
-149.29256399999795
 10
169.44187600000186
 20
-149.28849999999795
 10
169.34053000000188
 20
-149.28468999999797
 10
169.27576000000187
 20
-149.28214999999796
 10
169.21099000000186
 20
-149.27960999999797
 10
169.14596600000186
 20
-149.27706999999796
 10
169.08094200000187
 20
-149.27452999999795
 10
169.0156640000019
 20
-149.27198999999797
 10
168.9503860000019
 20
-149.26919599999798
 10
168.8851080000019
 20
-149.26640199999798
 10
168.81983000000193
 20
-149.263607999998
 10
168.7542980000019
 20
-149.260813999998
 10
168.68876600000192
 20
-149.258019999998
 10
168.6232340000019
 20
-149.255225999998
 10
168.55770200000188
 20
-149.25217799999803
 10
168.4921700000019
 20
-149.24912999999805
 10
168.42663800000187
 20
-149.24608199999807
 10
168.36110600000185
 20
-149.24303399999806
 10
168.29557400000186
 20
-149.23998599999808
 10
168.23004200000184
 20
-149.2369379999981
 10
168.16451000000183
 20
-149.23388999999813
 10
168.09897800000184
 20
-149.23084199999812
 10
168.03344600000182
 20
-149.22779399999814
 10
167.9679140000018
 20
-149.22449199999815
 10
167.90263600000182
 20
-149.22118999999813
 10
167.83735800000184
 20
-149.2178879999981
 10
167.77208000000184
 20
-149.21458599999812
 10
167.70680200000186
 20
-149.2112839999981
 10
167.64177800000186
 20
-149.20798199999808
 10
167.57675400000187
 20
-149.2046799999981
 10
167.51173000000188
 20
-149.20137799999807
 10
167.4469600000019
 20
-149.19807599999808
 10
167.38219000000188
 20
-149.19477399999806
 10
167.3176740000019
 20
-149.19147199999804
 10
167.25315800000186
 20
-149.18816999999805
 10
167.12158600000186
 20
-149.18156599999804
 10
166.98976000000187
 20
-149.17496199999806
 10
166.85768000000186
 20
-149.16835799999808
 10
166.72534600000188
 20
-149.1617539999981
 10
166.59275800000188
 20
-149.15514999999812
 10
166.45991600000187
 20
-149.14879999999812
 10
166.32707400000186
 20
-149.14244999999812
 10
166.19397800000186
 20
-149.13609999999812
 10
166.06062800000186
 20
-149.1300039999981
 10
165.92702400000186
 20
-149.12390799999812
 10
165.79316600000186
 20
-149.1178119999981
 10
165.65930800000186
 20
-149.1119699999981
 10
165.52519600000184
 20
-149.1063819999981
 10
165.39108400000185
 20
-149.10079399999807
 10
165.25671800000185
 20
-149.0954599999981
 10
165.12209800000184
 20
-149.0903799999981
 10
164.98747800000186
 20
-149.0852999999981
 10
164.85260400000186
 20
-149.0804739999981
 10
164.7177300000019
 20
-149.0759019999981
 10
164.5828560000019
 20
-149.0715839999981
 10
164.4477280000019
 20
-149.0675199999981
 10
164.31260000000188
 20
-149.0637099999981
 10
164.17747200000187
 20
-149.0601539999981
 10
164.04209000000185
 20
-149.0568519999981
 10
163.90670800000186
 20
-149.0540579999981
 10
163.77132600000186
 20
-149.0515179999981
 10
163.63594400000184
 20
-149.04923199999809
 10
163.50056200000185
 20
-149.0474539999981
 10
163.36518000000183
 20
-149.04592999999812
 10
163.22979800000184
 20
-149.0449139999981
 10
163.09441600000184
 20
-149.0441519999981
 10
162.95903400000182
 20
-149.0438979999981
 10
162.94176200000183
 20
-149.0431359999981
 10
162.92423600000186
 20
-149.0423739999981
 10
162.90645600000184
 20
-149.04161199999808
 10
162.8884220000018
 20
-149.04084999999807
 10
162.87013400000183
 20
-149.04008799999806
 10
162.85159200000183
 20
-149.03932599999803
 10
162.83279600000185
 20
-149.03856399999802
 10
162.81374600000183
 20
-149.037801999998
 10
162.79444200000182
 20
-149.037039999998
 10
162.77488400000183
 20
-149.036023999998
 10
162.75507200000183
 20
-149.035007999998
 10
162.73500600000185
 20
-149.033991999998
 10
162.71494000000186
 20
-149.032975999998
 10
162.69462000000183
 20
-149.03195999999798
 10
162.67404600000185
 20
-149.030943999998
 10
162.65347200000184
 20
-149.02992799999797
 10
162.63264400000185
 20
-149.02865799999796
 10
162.61156200000184
 20
-149.02738799999798
 10
162.59048000000186
 20
-149.02611799999798
 10
162.56914400000187
 20
-149.02484799999797
 10
162.54780800000188
 20
-149.02357799999797
 10
162.52621800000188
 20
-149.022307999998
 10
162.50462800000187
 20
-149.02078399999797
 10
162.48303800000184
 20
-149.01925999999798
 10
162.46119400000185
 20
-149.017735999998
 10
162.43935000000184
 20
-149.016211999998
 10
162.41750600000185
 20
-149.01468799999802
 10
162.39540800000185
 20
-149.01290999999802
 10
162.37331000000185
 20
-149.01113199999804
 10
162.35121200000185
 20
-149.00935399999807
 10
162.32911400000185
 20
-149.00757599999807
 10
162.30701600000185
 20
-149.00554399999805
  0
ENDSEC
  0
SECTION
  2
OBJECTS
  0
DICTIONARY
  5
A
330
0
100
AcDbDictionary
281
1
  3
ACAD_COLOR
350
B
  3
ACAD_GROUP
350
C
  3
ACAD_LAYOUT
350
D
  3
ACAD_MATERIAL
350
E
  3
ACAD_MLEADERSTYLE
350
F
  3
ACAD_MLINESTYLE
350
10
  3
ACAD_PLOTSETTINGS
350
11
  3
ACAD_PLOTSTYLENAME
350
12
  3
ACAD_SCALELIST
350
14
  3
ACAD_TABLESTYLE
350
15
  3
ACAD_VISUALSTYLE
350
16
  3
EZDXF_META
350
2D
  0
DICTIONARY
  5
B
330
A
100
AcDbDictionary
281
1
  0
DICTIONARY
  5
C
330
A
100
AcDbDictionary
281
1
  0
DICTIONARY
  5
D
330
A
100
AcDbDictionary
281
1
  3
Model
350
1A
  3
Layout1
350
1E
  0
DICTIONARY
  5
E
330
A
100
AcDbDictionary
281
1
  3
ByBlock
350
1F
  3
ByLayer
350
20
  3
Global
350
21
  0
DICTIONARY
  5
F
330
A
100
AcDbDictionary
281
1
  3
Standard
350
2C
  0
DICTIONARY
  5
10
330
A
100
AcDbDictionary
281
1
  3
Standard
350
22
  0
DICTIONARY
  5
11
330
A
100
AcDbDictionary
281
1
  0
ACDBDICTIONARYWDFLT
  5
12
330
A
100
AcDbDictionary
281
1
  3
Normal
350
13
100
AcDbDictionaryWithDefault
340
13
  0
ACDBPLACEHOLDER
  5
13
330
12
  0
DICTIONARY
  5
14
330
A
100
AcDbDictionary
281
1
  0
DICTIONARY
  5
15
330
A
100
AcDbDictionary
281
1
  0
DICTIONARY
  5
16
330
A
100
AcDbDictionary
281
1
  0
LAYOUT
  5
1A
330
D
100
AcDbPlotSettings
  1

  4
A3
  6

 40
7.5
 41
20.0
 42
7.5
 43
20.0
 44
420.0
 45
297.0
 46
0.0
 47
0.0
 48
0.0
 49
0.0
140
0.0
141
0.0
142
1.0
143
1.0
 70
1024
 72
1
 73
0
 74
5
  7

 75
16
 76
0
 77
2
 78
300
147
1.0
148
0.0
149
0.0
100
AcDbLayout
  1
Model
 70
1
 71
0
 10
0.0
 20
0.0
 11
420.0
 21
297.0
 12
0.0
 22
0.0
 32
0.0
 14
1e+20
 24
1e+20
 34
1e+20
 15
-1e+20
 25
-1e+20
 35
-1e+20
146
0.0
 13
0.0
 23
0.0
 33
0.0
 16
1.0
 26
0.0
 36
0.0
 17
0.0
 27
1.0
 37
0.0
 76
1
330
17
  0
LAYOUT
  5
1E
330
D
100
AcDbPlotSettings
  1

  4
A3
  6

 40
7.5
 41
20.0
 42
7.5
 43
20.0
 44
420.0
 45
297.0
 46
0.0
 47
0.0
 48
0.0
 49
0.0
140
0.0
141
0.0
142
1.0
143
1.0
 70
0
 72
1
 73
0
 74
5
  7

 75
16
 76
0
 77
2
 78
300
147
1.0
148
0.0
149
0.0
100
AcDbLayout
  1
Layout1
 70
1
 71
1
 10
0.0
 20
0.0
 11
420.0
 21
297.0
 12
0.0
 22
0.0
 32
0.0
 14
1e+20
 24
1e+20
 34
1e+20
 15
-1e+20
 25
-1e+20
 35
-1e+20
146
0.0
 13
0.0
 23
0.0
 33
0.0
 16
1.0
 26
0.0
 36
0.0
 17
0.0
 27
1.0
 37
0.0
 76
1
330
1B
  0
MATERIAL
  5
1F
102
{ACAD_REACTORS
330
E
102
}
330
E
100
AcDbMaterial
  1
ByBlock
  2

 70
0
 40
1.0
 71
1
 41
1.0
 91
-1023410177
 42
1.0
 72
1
  3

 73
1
 74
1
 75
1
 44
0.5
 73
0
 45
1.0
 46
1.0
 77
1
  4

 78
1
 79
1
170
1
 48
1.0
171
1
  6

172
1
173
1
174
1
140
1.0
141
1.0
175
1
  7

176
1
177
1
178
1
143
1.0
179
1
  8

270
1
271
1
272
1
145
1.0
146
1.0
273
1
  9

274
1
275
1
276
1
 42
1.0
 72
1
  3

 73
1
 74
1
 75
1
 94
63
  0
MATERIAL
  5
20
102
{ACAD_REACTORS
330
E
102
}
330
E
100
AcDbMaterial
  1
ByLayer
  2

 70
0
 40
1.0
 71
1
 41
1.0
 91
-1023410177
 42
1.0
 72
1
  3

 73
1
 74
1
 75
1
 44
0.5
 73
0
 45
1.0
 46
1.0
 77
1
  4

 78
1
 79
1
170
1
 48
1.0
171
1
  6

172
1
173
1
174
1
140
1.0
141
1.0
175
1
  7

176
1
177
1
178
1
143
1.0
179
1
  8

270
1
271
1
272
1
145
1.0
146
1.0
273
1
  9

274
1
275
1
276
1
 42
1.0
 72
1
  3

 73
1
 74
1
 75
1
 94
63
  0
MATERIAL
  5
21
102
{ACAD_REACTORS
330
E
102
}
330
E
100
AcDbMaterial
  1
Global
  2

 70
0
 40
1.0
 71
1
 41
1.0
 91
-1023410177
 42
1.0
 72
1
  3

 73
1
 74
1
 75
1
 44
0.5
 73
0
 45
1.0
 46
1.0
 77
1
  4

 78
1
 79
1
170
1
 48
1.0
171
1
  6

172
1
173
1
174
1
140
1.0
141
1.0
175
1
  7

176
1
177
1
178
1
143
1.0
179
1
  8

270
1
271
1
272
1
145
1.0
146
1.0
273
1
  9

274
1
275
1
276
1
 42
1.0
 72
1
  3

 73
1
 74
1
 75
1
 94
63
  0
MLINESTYLE
  5
22
102
{ACAD_REACTORS
330
10
102
}
330
10
100
AcDbMlineStyle
  2
Standard
 70
0
  3

 62
256
 51
90.0
 52
90.0
 71
2
 49
0.5
 62
256
  6
BYLAYER
 49
-0.5
 62
256
  6
BYLAYER
  0
MLEADERSTYLE
  5
2C
102
{ACAD_REACTORS
330
F
102
}
330
F
100
AcDbMLeaderStyle
179
2
170
2
171
1
172
0
 90
2
 40
0.0
 41
0.0
173
1
 91
-1056964608
 92
-2
290
1
 42
2.0
291
1
 43
8.0
  3
Standard
 44
4.0
300

342
29
174
1
175
1
176
0
178
1
 93
-1056964608
 45
4.0
292
0
297
0
 46
4.0
 94
-1056964608
 47
1.0
 49
1.0
140
1.0
294
1
141
0.0
177
0
142
1.0
295
0
296
0
143
3.75
271
0
272
9
273
9
  0
DICTIONARY
  5
2D
330
A
100
AcDbDictionary
280
1
281
1
  3
CREATED_BY_EZDXF
350
2E
  3
WRITTEN_BY_EZDXF
350
3D
  0
DICTIONARYVAR
  5
2E
330
2D
100
DictionaryVariables
280
0
  1
1.4.3 @ 2026-04-08T01:02:29.286933+00:00
  0
DICTIONARYVAR
  5
3D
330
2D
100
DictionaryVariables
280
0
  1
1.4.3 @ 2026-04-09T21:09:48.614700+00:00
  0
ENDSEC
  0
EOF
