  0
SECTION
  2
HEADER
  9
$ACADVER
  1
AC1024
  9
$ACADMAINTVER
 70
6
  9
$DWGCODEPAGE
  3
ANSI_1252
  9
$LASTSAVEDBY
  1
ezdxf
  9
$INSBASE
 10
0.0
 20
0.0
 30
0.0
  9
$EXTMIN
 10
1e+20
 20
1e+20
 30
1e+20
  9
$EXTMAX
 10
-1e+20
 20
-1e+20
 30
-1e+20
  9
$LIMMIN
 10
0.0
 20
0.0
  9
$LIMMAX
 10
420.0
 20
297.0
  9
$ORTHOMODE
 70
0
  9
$REGENMODE
 70
1
  9
$FILLMODE
 70
1
  9
$QTEXTMODE
 70
0
  9
$MIRRTEXT
 70
1
  9
$LTSCALE
 40
1.0
  9
$ATTMODE
 70
1
  9
$TEXTSIZE
 40
2.5
  9
$TRACEWID
 40
1.0
  9
$TEXTSTYLE
  7
Standard
  9
$CLAYER
  8
0
  9
$CELTYPE
  6
ByLayer
  9
$CECOLOR
 62
256
  9
$CELTSCALE
 40
1.0
  9
$DISPSILH
 70
0
  9
$DIMSCALE
 40
1.0
  9
$DIMASZ
 40
2.5
  9
$DIMEXO
 40
0.625
  9
$DIMDLI
 40
3.75
  9
$DIMRND
 40
0.0
  9
$DIMDLE
 40
0.0
  9
$DIMEXE
 40
1.25
  9
$DIMTP
 40
0.0
  9
$DIMTM
 40
0.0
  9
$DIMTXT
 40
2.5
  9
$DIMCEN
 40
2.5
  9
$DIMTSZ
 40
0.0
  9
$DIMTOL
 70
0
  9
$DIMLIM
 70
0
  9
$DIMTIH
 70
0
  9
$DIMTOH
 70
0
  9
$DIMSE1
 70
0
  9
$DIMSE2
 70
0
  9
$DIMTAD
 70
1
  9
$DIMZIN
 70
8
  9
$DIMBLK
  1

  9
$DIMASO
 70
1
  9
$DIMSHO
 70
1
  9
$DIMPOST
  1

  9
$DIMAPOST
  1

  9
$DIMALT
 70
0
  9
$DIMALTD
 70
3
  9
$DIMALTF
 40
0.03937007874
  9
$DIMLFAC
 40
1.0
  9
$DIMTOFL
 70
1
  9
$DIMTVP
 40
0.0
  9
$DIMTIX
 70
0
  9
$DIMSOXD
 70
0
  9
$DIMSAH
 70
0
  9
$DIMBLK1
  1

  9
$DIMBLK2
  1

  9
$DIMSTYLE
  2
ISO-25
  9
$DIMCLRD
 70
0
  9
$DIMCLRE
 70
0
  9
$DIMCLRT
 70
0
  9
$DIMTFAC
 40
1.0
  9
$DIMGAP
 40
0.625
  9
$DIMJUST
 70
0
  9
$DIMSD1
 70
0
  9
$DIMSD2
 70
0
  9
$DIMTOLJ
 70
0
  9
$DIMTZIN
 70
8
  9
$DIMALTZ
 70
0
  9
$DIMALTTZ
 70
0
  9
$DIMUPT
 70
0
  9
$DIMDEC
 70
2
  9
$DIMTDEC
 70
2
  9
$DIMALTU
 70
2
  9
$DIMALTTD
 70
3
  9
$DIMTXSTY
  7
Standard
  9
$DIMAUNIT
 70
0
  9
$DIMADEC
 70
0
  9
$DIMALTRND
 40
0.0
  9
$DIMAZIN
 70
0
  9
$DIMDSEP
 70
44
  9
$DIMATFIT
 70
3
  9
$DIMFRAC
 70
0
  9
$DIMLDRBLK
  1

  9
$DIMLUNIT
 70
2
  9
$DIMLWD
 70
-2
  9
$DIMLWE
 70
-2
  9
$DIMTMOVE
 70
0
  9
$DIMFXL
 40
1.0
  9
$DIMFXLON
 70
0
  9
$DIMJOGANG
 40
0.785398163397
  9
$DIMTFILL
 70
0
  9
$DIMTFILLCLR
 70
0
  9
$DIMARCSYM
 70
0
  9
$DIMLTYPE
  6

  9
$DIMLTEX1
  6

  9
$DIMLTEX2
  6

  9
$DIMTXTDIRECTION
 70
0
  9
$LUNITS
 70
2
  9
$LUPREC
 70
4
  9
$SKETCHINC
 40
1.0
  9
$FILLETRAD
 40
10.0
  9
$AUNITS
 70
0
  9
$AUPREC
 70
2
  9
$MENU
  1
.
  9
$ELEVATION
 40
0.0
  9
$PELEVATION
 40
0.0
  9
$THICKNESS
 40
0.0
  9
$LIMCHECK
 70
0
  9
$CHAMFERA
 40
0.0
  9
$CHAMFERB
 40
0.0
  9
$CHAMFERC
 40
0.0
  9
$CHAMFERD
 40
0.0
  9
$SKPOLY
 70
0
  9
$TDCREATE
 40
2461140.590138889
  9
$TDUCREATE
 40
2458532.153996898
  9
$TDUPDATE
 40
2461140.590138889
  9
$TDUUPDATE
 40
2458532.1544311
  9
$TDINDWG
 40
0.0
  9
$TDUSRTIMER
 40
0.0
  9
$USRTIMER
 70
1
  9
$ANGBASE
 50
0.0
  9
$ANGDIR
 70
0
  9
$PDMODE
 70
0
  9
$PDSIZE
 40
0.0
  9
$PLINEWID
 40
0.0
  9
$SPLFRAME
 70
0
  9
$SPLINETYPE
 70
6
  9
$SPLINESEGS
 70
8
  9
$HANDSEED
  5
39
  9
$SURFTAB1
 70
6
  9
$SURFTAB2
 70
6
  9
$SURFTYPE
 70
6
  9
$SURFU
 70
6
  9
$SURFV
 70
6
  9
$UCSBASE
  2

  9
$UCSNAME
  2

  9
$UCSORG
 10
0.0
 20
0.0
 30
0.0
  9
$UCSXDIR
 10
1.0
 20
0.0
 30
0.0
  9
$UCSYDIR
 10
0.0
 20
1.0
 30
0.0
  9
$UCSORTHOREF
  2

  9
$UCSORTHOVIEW
 70
0
  9
$UCSORGTOP
 10
0.0
 20
0.0
 30
0.0
  9
$UCSORGBOTTOM
 10
0.0
 20
0.0
 30
0.0
  9
$UCSORGLEFT
 10
0.0
 20
0.0
 30
0.0
  9
$UCSORGRIGHT
 10
0.0
 20
0.0
 30
0.0
  9
$UCSORGFRONT
 10
0.0
 20
0.0
 30
0.0
  9
$UCSORGBACK
 10
0.0
 20
0.0
 30
0.0
  9
$PUCSBASE
  2

  9
$PUCSNAME
  2

  9
$PUCSORG
 10
0.0
 20
0.0
 30
0.0
  9
$PUCSXDIR
 10
1.0
 20
0.0
 30
0.0
  9
$PUCSYDIR
 10
0.0
 20
1.0
 30
0.0
  9
$PUCSORTHOREF
  2

  9
$PUCSORTHOVIEW
 70
0
  9
$PUCSORGTOP
 10
0.0
 20
0.0
 30
0.0
  9
$PUCSORGBOTTOM
 10
0.0
 20
0.0
 30
0.0
  9
$PUCSORGLEFT
 10
0.0
 20
0.0
 30
0.0
  9
$PUCSORGRIGHT
 10
0.0
 20
0.0
 30
0.0
  9
$PUCSORGFRONT
 10
0.0
 20
0.0
 30
0.0
  9
$PUCSORGBACK
 10
0.0
 20
0.0
 30
0.0
  9
$USERI1
 70
0
  9
$USERI2
 70
0
  9
$USERI3
 70
0
  9
$USERI4
 70
0
  9
$USERI5
 70
0
  9
$USERR1
 40
0.0
  9
$USERR2
 40
0.0
  9
$USERR3
 40
0.0
  9
$USERR4
 40
0.0
  9
$USERR5
 40
0.0
  9
$WORLDVIEW
 70
1
  9
$SHADEDGE
 70
3
  9
$SHADEDIF
 70
70
  9
$TILEMODE
 70
1
  9
$MAXACTVP
 70
64
  9
$PINSBASE
 10
0.0
 20
0.0
 30
0.0
  9
$PLIMCHECK
 70
0
  9
$PEXTMIN
 10
1e+20
 20
1e+20
 30
1e+20
  9
$PEXTMAX
 10
-1e+20
 20
-1e+20
 30
-1e+20
  9
$PLIMMIN
 10
0.0
 20
0.0
  9
$PLIMMAX
 10
420.0
 20
297.0
  9
$UNITMODE
 70
0
  9
$VISRETAIN
 70
1
  9
$PLINEGEN
 70
0
  9
$PSLTSCALE
 70
1
  9
$TREEDEPTH
 70
3020
  9
$CMLSTYLE
  2
Standard
  9
$CMLJUST
 70
0
  9
$CMLSCALE
 40
20.0
  9
$PROXYGRAPHICS
 70
1
  9
$MEASUREMENT
 70
1
  9
$CELWEIGHT
370
-1
  9
$ENDCAPS
280
0
  9
$JOINSTYLE
280
0
  9
$LWDISPLAY
290
0
  9
$INSUNITS
 70
6
  9
$HYPERLINKBASE
  1

  9
$STYLESHEET
  1

  9
$XEDIT
290
1
  9
$CEPSNTYPE
380
0
  9
$PSTYLEMODE
290
1
  9
$FINGERPRINTGUID
  2
{E76883D3-FBB3-447D-8F56-6D645EF27A9E}
  9
$VERSIONGUID
  2
{188109A4-AD48-4073-B313-C58EF868EB56}
  9
$EXTNAMES
290
1
  9
$PSVPSCALE
 40
0.0
  9
$OLESTARTUP
290
0
  9
$SORTENTS
280
127
  9
$INDEXCTL
280
0
  9
$HIDETEXT
280
1
  9
$XCLIPFRAME
280
1
  9
$HALOGAP
280
0
  9
$OBSCOLOR
 70
257
  9
$OBSLTYPE
280
0
  9
$INTERSECTIONDISPLAY
280
0
  9
$INTERSECTIONCOLOR
 70
257
  9
$DIMASSOC
280
2
  9
$PROJECTNAME
  1

  9
$CAMERADISPLAY
290
0
  9
$LENSLENGTH
 40
50.0
  9
$CAMERAHEIGHT
 40
0.0
  9
$STEPSPERSEC
 40
24.0
  9
$STEPSIZE
 40
100.0
  9
$3DDWFPREC
 40
2.0
  9
$PSOLWIDTH
 40
0.005
  9
$PSOLHEIGHT
 40
0.08
  9
$LOFTANG1
 40
1.570796326795
  9
$LOFTANG2
 40
1.570796326795
  9
$LOFTMAG1
 40
0.0
  9
$LOFTMAG2
 40
0.0
  9
$LOFTPARAM
 70
7
  9
$LOFTNORMALS
280
1
  9
$LATITUDE
 40
37.795
  9
$LONGITUDE
 40
-122.394
  9
$NORTHDIRECTION
 40
0.0
  9
$TIMEZONE
 70
-8000
  9
$LIGHTGLYPHDISPLAY
280
1
  9
$TILEMODELIGHTSYNCH
280
1
  9
$CMATERIAL
347
20
  9
$SOLIDHIST
280
0
  9
$SHOWHIST
280
1
  9
$DWFFRAME
280
2
  9
$DGNFRAME
280
2
  9
$REALWORLDSCALE
290
1
  9
$INTERFERECOLOR
 62
256
  9
$CSHADOW
280
0
  9
$SHADOWPLANELOCATION
 40
0.0
  0
ENDSEC
  0
SECTION
  2
CLASSES
  0
CLASS
  1
ACDBDICTIONARYWDFLT
  2
AcDbDictionaryWithDefault
  3
ObjectDBX Classes
 90
0
 91
0
280
0
281
0
  0
CLASS
  1
SUN
  2
AcDbSun
  3
SCENEOE
 90
1153
 91
0
280
0
281
0
  0
CLASS
  1
VISUALSTYLE
  2
AcDbVisualStyle
  3
ObjectDBX Classes
 90
4095
 91
0
280
0
281
0
  0
CLASS
  1
MATERIAL
  2
AcDbMaterial
  3
ObjectDBX Classes
 90
1153
 91
0
280
0
281
0
  0
CLASS
  1
SCALE
  2
AcDbScale
  3
ObjectDBX Classes
 90
1153
 91
0
280
0
281
0
  0
CLASS
  1
TABLESTYLE
  2
AcDbTableStyle
  3
ObjectDBX Classes
 90
4095
 91
0
280
0
281
0
  0
CLASS
  1
MLEADERSTYLE
  2
AcDbMLeaderStyle
  3
ACDB_MLEADERSTYLE_CLASS
 90
4095
 91
0
280
0
281
0
  0
CLASS
  1
DICTIONARYVAR
  2
AcDbDictionaryVar
  3
ObjectDBX Classes
 90
0
 91
0
280
0
281
0
  0
CLASS
  1
CELLSTYLEMAP
  2
AcDbCellStyleMap
  3
ObjectDBX Classes
 90
1152
 91
0
280
0
281
0
  0
CLASS
  1
MENTALRAYRENDERSETTINGS
  2
AcDbMentalRayRenderSettings
  3
SCENEOE
 90
1024
 91
0
280
0
281
0
  0
CLASS
  1
ACDBDETAILVIEWSTYLE
  2
AcDbDetailViewStyle
  3
ObjectDBX Classes
 90
1025
 91
0
280
0
281
0
  0
CLASS
  1
ACDBSECTIONVIEWSTYLE
  2
AcDbSectionViewStyle
  3
ObjectDBX Classes
 90
1025
 91
0
280
0
281
0
  0
CLASS
  1
RASTERVARIABLES
  2
AcDbRasterVariables
  3
ISM
 90
0
 91
0
280
0
281
0
  0
CLASS
  1
LAYOUT
  2
AcDbLayout
  3
ObjectDBX Classes
 90
0
 91
0
280
0
281
0
  0
CLASS
  1
ACDBPLACEHOLDER
  2
AcDbPlaceHolder
  3
ObjectDBX Classes
 90
0
 91
0
280
0
281
0
  0
ENDSEC
  0
SECTION
  2
TABLES
  0
TABLE
  2
VPORT
  5
8
330
0
100
AcDbSymbolTable
 70
1
  0
VPORT
  5
23
330
8
100
AcDbSymbolTableRecord
100
AcDbViewportTableRecord
  2
*Active
 70
0
 10
0.0
 20
0.0
 11
1.0
 21
1.0
 12
0.0
 22
0.0
 13
0.0
 23
0.0
 14
0.5
 24
0.5
 15
0.5
 25
0.5
 16
0.0
 26
0.0
 36
1.0
 17
0.0
 27
0.0
 37
0.0
 40
1000.0
 41
1.34
 42
50.0
 43
0.0
 44
0.0
 50
0.0
 51
0.0
 71
0
 72
1000
 73
1
 74
3
 75
0
 76
0
 77
0
 78
0
281
0
 65
0
146
0.0
  0
ENDTAB
  0
TABLE
  2
LTYPE
  5
2
330
0
100
AcDbSymbolTable
 70
3
  0
LTYPE
  5
24
330
2
100
AcDbSymbolTableRecord
100
AcDbLinetypeTableRecord
  2
ByBlock
 70
0
  3

 72
65
 73
0
 40
0.0
  0
LTYPE
  5
25
330
2
100
AcDbSymbolTableRecord
100
AcDbLinetypeTableRecord
  2
ByLayer
 70
0
  3

 72
65
 73
0
 40
0.0
  0
LTYPE
  5
26
330
2
100
AcDbSymbolTableRecord
100
AcDbLinetypeTableRecord
  2
Continuous
 70
0
  3

 72
65
 73
0
 40
0.0
  0
ENDTAB
  0
TABLE
  2
LAYER
  5
1
330
0
100
AcDbSymbolTable
 70
2
  0
LAYER
  5
27
330
1
100
AcDbSymbolTableRecord
100
AcDbLayerTableRecord
  2
0
 70
0
 62
7
  6
Continuous
370
-3
390
13
347
21
  0
LAYER
  5
28
330
1
100
AcDbSymbolTableRecord
100
AcDbLayerTableRecord
  2
Defpoints
 70
0
 62
7
  6
Continuous
290
0
370
-3
390
13
347
21
  0
ENDTAB
  0
TABLE
  2
STYLE
  5
5
330
0
100
AcDbSymbolTable
 70
1
  0
STYLE
  5
29
330
5
100
AcDbSymbolTableRecord
100
AcDbTextStyleTableRecord
  2
Standard
 70
0
 40
0.0
 41
1.0
 50
0.0
 71
0
 42
2.5
  3
txt
  4

  0
ENDTAB
  0
TABLE
  2
VIEW
  5
7
330
0
100
AcDbSymbolTable
 70
0
  0
ENDTAB
  0
TABLE
  2
UCS
  5
6
330
0
100
AcDbSymbolTable
 70
0
  0
ENDTAB
  0
TABLE
  2
APPID
  5
3
330
0
100
AcDbSymbolTable
 70
3
  0
APPID
  5
2A
330
3
100
AcDbSymbolTableRecord
100
AcDbRegAppTableRecord
  2
ACAD
 70
0
  0
APPID
  5
36
330
3
100
AcDbSymbolTableRecord
100
AcDbRegAppTableRecord
  2
HATCHBACKGROUNDCOLOR
 70
0
  0
APPID
  5
37
330
3
100
AcDbSymbolTableRecord
100
AcDbRegAppTableRecord
  2
EZDXF
 70
0
  0
ENDTAB
  0
TABLE
  2
DIMSTYLE
  5
4
330
0
100
AcDbSymbolTable
 70
1
100
AcDbDimStyleTable
  0
DIMSTYLE
105
2B
330
4
100
AcDbSymbolTableRecord
100
AcDbDimStyleTableRecord
  2
Standard
 70
0
 40
1.0
 41
2.5
 42
0.625
 43
3.75
 44
1.25
 45
0.0
 46
0.0
 47
0.0
 48
0.0
 49
2.5
140
2.5
141
2.5
142
0.0
143
0.03937007874
144
1.0
145
0.0
146
1.0
147
0.625
148
0.0
 69
0
 70
0
 71
0
 72
0
 73
0
 74
0
 75
0
 76
0
 77
1
 78
8
 79
3
170
0
171
3
172
1
173
0
174
0
175
0
176
0
177
0
178
0
179
2
271
2
272
2
273
2
274
3
275
0
276
0
277
2
278
44
279
0
280
0
281
0
282
0
283
0
284
8
285
0
286
0
288
0
289
3
290
0
371
-2
372
-2
  0
ENDTAB
  0
TABLE
  2
BLOCK_RECORD
  5
9
330
0
100
AcDbSymbolTable
 70
2
  0
BLOCK_RECORD
  5
17
330
9
100
AcDbSymbolTableRecord
100
AcDbBlockTableRecord
  2
*Model_Space
340
1A
 70
0
280
1
281
0
  0
BLOCK_RECORD
  5
1B
330
9
100
AcDbSymbolTableRecord
100
AcDbBlockTableRecord
  2
*Paper_Space
340
1E
 70
0
280
1
281
0
  0
ENDTAB
  0
ENDSEC
  0
SECTION
  2
BLOCKS
  0
BLOCK
  5
18
330
17
100
AcDbEntity
  8
0
100
AcDbBlockBegin
  2
*Model_Space
 70
0
 10
0.0
 20
0.0
 30
0.0
  3
*Model_Space
  1

  0
ENDBLK
  5
19
330
17
100
AcDbEntity
  8
0
100
AcDbBlockEnd
  0
BLOCK
  5
1C
330
1B
100
AcDbEntity
  8
0
100
AcDbBlockBegin
  2
*Paper_Space
 70
0
 10
0.0
 20
0.0
 30
0.0
  3
*Paper_Space
  1

  0
ENDBLK
  5
1D
330
1B
100
AcDbEntity
  8
0
100
AcDbBlockEnd
  0
ENDSEC
  0
SECTION
  2
ENTITIES
  0
LWPOLYLINE
  5
2F
330
17
100
AcDbEntity
  8
0
100
AcDbPolyline
 90
545
 70
0
 10
126.02413200000001
 20
-91.473782
 10
125.976126
 20
-91.341448
 10
125.92685
 20
-91.20835199999999
 10
125.87630399999999
 20
-91.07474799999999
 10
125.82448799999999
 20
-90.94089
 10
125.771148
 20
-90.80703199999999
 10
125.71628399999999
 20
-90.67342799999999
 10
125.659896
 20
-90.54033199999999
 10
125.60173
 20
-90.40799799999999
 10
125.541786
 20
-90.27667999999998
 10
125.47981
 20
-90.146378
 10
125.415802
 20
-90.0176
 10
125.349762
 20
-89.89059999999999
 10
125.28169000000001
 20
-89.765378
 10
125.21133200000001
 20
-89.642442
 10
125.13843400000002
 20
-89.52179199999999
 10
125.06299600000001
 20
-89.403682
 10
124.985018
 20
-89.28862000000001
 10
124.9045
 20
-89.17660600000002
 10
124.821188
 20
-89.06789400000001
 10
124.735082
 20
-88.96273800000002
 10
124.64592800000001
 20
-88.86139200000002
 10
124.55398000000001
 20
-88.76411000000003
 10
124.45873
 20
-88.67140000000002
 10
124.360432
 20
-88.58300800000002
 10
124.25883200000001
 20
-88.49944200000002
 10
124.15367600000002
 20
-88.420956
 10
124.045218
 20
-88.34780400000001
 10
123.93320400000002
 20
-88.28024
 10
123.81738000000001
 20
-88.21826399999999
 10
123.69774600000001
 20
-88.16238399999999
 10
123.57430200000002
 20
-88.11285399999998
 10
123.44704800000001
 20
-88.06967399999999
 10
123.37389600000002
 20
-88.04833799999999
 10
123.30023600000001
 20
-88.02954199999998
 10
123.22632200000001
 20
-88.01303199999998
 10
123.15215400000001
 20
-87.99880799999998
 10
123.07773200000001
 20
-87.98686999999998
 10
123.00305600000002
 20
-87.97721799999998
 10
122.92838000000002
 20
-87.96959799999999
 10
122.85345000000002
 20
-87.96400999999999
 10
122.77826600000002
 20
-87.96019999999999
 10
122.70282800000001
 20
-87.958168
 10
122.62739
 20
-87.957914
 10
122.551698
 20
-87.95943799999999
 10
122.47600600000001
 20
-87.962486
 10
122.40031400000001
 20
-87.96705799999998
 10
122.324368
 20
-87.9729
 10
122.24842200000002
 20
-87.98026599999999
 10
122.17247600000002
 20
-87.988902
 10
122.09653000000003
 20
-87.998554
 10
122.02058400000003
 20
-88.00947599999999
 10
121.94463800000004
 20
-88.02141400000001
 10
121.86869200000004
 20
-88.034368
 10
121.79274600000005
 20
-88.04808399999999
 10
121.71705400000005
 20
-88.062562
 10
121.64136200000004
 20
-88.07780199999999
 10
121.56592400000004
 20
-88.09355
 10
121.49048600000003
 20
-88.11006
 10
121.41530200000004
 20
-88.127078
 10
121.34011800000005
 20
-88.14434999999999
 10
121.26518800000004
 20
-88.161876
 10
121.19051200000004
 20
-88.179656
 10
121.11609000000004
 20
-88.19769000000001
 10
121.04166800000004
 20
-88.21572400000001
 10
120.74829800000005
 20
-88.28735200000001
 10
120.45492800000005
 20
-88.35898
 10
120.16155800000006
 20
-88.43060799999999
 10
119.86818800000006
 20
-88.502236
 10
119.57481800000008
 20
-88.57386399999999
 10
119.28144800000008
 20
-88.64549199999999
 10
118.98807800000009
 20
-88.71711999999998
 10
118.69470800000009
 20
-88.78874799999997
 10
118.4013380000001
 20
-88.86037599999997
 10
118.10796800000011
 20
-88.93200399999996
 10
117.81459800000012
 20
-89.00363199999997
 10
117.52122800000012
 20
-89.07525999999996
 10
117.22785800000013
 20
-89.14688799999995
 10
116.93448800000013
 20
-89.21851599999995
 10
116.64111800000015
 20
-89.29014399999994
 10
116.34774800000015
 20
-89.36177199999995
 10
116.05437800000016
 20
-89.43339999999993
 10
115.76100800000016
 20
-89.50502799999992
 10
115.46763800000016
 20
-89.57665599999993
 10
115.17426800000018
 20
-89.64828399999992
 10
114.88089800000019
 20
-89.71991199999992
 10
114.58752800000019
 20
-89.79153999999991
 10
114.2941580000002
 20
-89.8631679999999
 10
114.0007880000002
 20
-89.9347959999999
 10
113.70741800000022
 20
-90.0064239999999
 10
113.41404800000022
 20
-90.0780519999999
 10
113.12067800000023
 20
-90.14967999999989
 10
112.82730800000023
 20
-90.22130799999988
 10
112.53393800000023
 20
-90.29293599999988
 10
112.24056800000025
 20
-90.36456399999987
 10
111.94719800000026
 20
-90.43619199999988
 10
111.65382800000026
 20
-90.50781999999987
 10
111.43716600000026
 20
-90.56115999999986
 10
111.21948800000025
 20
-90.61526199999987
 10
111.00130200000025
 20
-90.67037999999987
 10
110.78286200000025
 20
-90.72676799999986
 10
110.56416800000025
 20
-90.78442599999985
 10
110.34547400000025
 20
-90.84386199999985
 10
110.12703400000025
 20
-90.90507599999984
 10
109.90910200000025
 20
-90.96832199999984
 10
109.69193200000025
 20
-91.03385399999985
 10
109.47552400000025
 20
-91.10192599999984
 10
109.26013200000025
 20
-91.17253799999985
 10
109.04601000000025
 20
-91.24619799999985
 10
108.83341200000025
 20
-91.32290599999985
 10
108.62259200000025
 20
-91.40291599999985
 10
108.41355000000026
 20
-91.48648199999985
 10
108.20679400000026
 20
-91.57360399999986
 10
108.00232400000026
 20
-91.66478999999985
 10
107.80039400000025
 20
-91.76003999999986
 10
107.60125800000024
 20
-91.85960799999985
 10
107.40491600000024
 20
-91.96374799999985
 10
107.21162200000023
 20
-92.07271399999985
 10
107.02188400000023
 20
-92.18650599999985
 10
106.83570200000024
 20
-92.30537799999985
 10
106.65307600000024
 20
-92.42983799999986
 10
106.47451400000024
 20
-92.55963199999987
 10
106.30001600000024
 20
-92.69526799999986
 10
106.13009000000024
 20
-92.83699999999986
 10
105.96473600000024
 20
-92.98482799999985
 10
105.80395400000025
 20
-93.13900599999987
 10
105.64825200000024
 20
-93.29978799999986
 10
105.49788400000025
 20
-93.46742799999987
 10
105.35285000000025
 20
-93.64217999999985
 10
105.18267000000024
 20
-93.86620799999986
 10
105.02442800000024
 20
-94.09607799999985
 10
104.87761600000024
 20
-94.33178999999986
 10
104.74198000000025
 20
-94.57308999999985
 10
104.61726600000026
 20
-94.81946999999985
 10
104.50296600000026
 20
-95.07092999999986
 10
104.39882600000024
 20
-95.32696199999985
 10
104.30459200000026
 20
-95.58756599999985
 10
104.21975600000025
 20
-95.85223399999985
 10
104.14406400000026
 20
-96.12071199999986
 10
104.07700800000025
 20
-96.39274599999986
 10
104.01833400000025
 20
-96.66833599999985
 10
103.96778800000025
 20
-96.94697399999986
 10
103.92486200000025
 20
-97.22840599999985
 10
103.88930200000026
 20
-97.51237799999986
 10
103.86085400000024
 20
-97.79863599999986
 10
103.83901000000024
 20
-98.08692599999985
 10
103.82351600000025
 20
-98.37673999999986
 10
103.81411800000026
 20
-98.66807799999985
 10
103.81030800000026
 20
-98.96068599999985
 10
103.81183200000025
 20
-99.25405599999985
 10
103.81818200000025
 20
-99.54818799999985
 10
103.82910400000024
 20
-99.84282799999986
 10
103.84434400000025
 20
-100.13746799999986
 10
103.86339400000024
 20
-100.43210799999987
 10
103.88600000000025
 20
-100.72623999999988
 10
103.91190800000024
 20
-101.01960999999986
 10
103.94061000000023
 20
-101.31196399999986
 10
103.97185200000024
 20
-101.60330199999987
 10
104.00538000000024
 20
-101.89311599999986
 10
104.04068600000024
 20
-102.18115199999987
 10
104.07726200000025
 20
-102.46715599999987
 10
104.19867400000024
 20
-103.37622199999987
 10
104.32059400000026
 20
-104.25455399999987
 10
104.44353000000025
 20
-105.10367599999988
 10
104.56773600000024
 20
-105.9258739999999
 10
104.69372000000024
 20
-106.72317999999989
 10
104.82173600000024
 20
-107.49737199999988
 10
104.95178400000025
 20
-108.25048199999988
 10
105.08462600000024
 20
-108.98428799999989
 10
105.22026200000025
 20
-109.70107599999989
 10
105.35920000000024
 20
-110.40262399999989
 10
105.50169400000024
 20
-111.09096399999989
 10
105.64799800000026
 20
-111.76812799999988
 10
105.79862000000026
 20
-112.43589399999989
 10
105.95356000000025
 20
-113.09629399999989
 10
106.11358000000025
 20
-113.75135999999989
 10
106.27868000000025
 20
-114.40312399999989
 10
106.44911400000025
 20
-115.05361799999989
 10
106.62539000000025
 20
-115.70461999999988
 10
106.80776200000025
 20
-116.35816199999988
 10
106.99673800000026
 20
-117.01627599999988
 10
107.19231800000026
 20
-117.68099399999988
 10
107.39501000000025
 20
-118.35409399999988
 10
107.60532200000026
 20
-119.03760799999986
 10
107.82325400000026
 20
-119.73356799999988
 10
108.04931400000025
 20
-120.44400599999987
 10
108.28375600000025
 20
-121.17069999999987
 10
108.52683400000025
 20
-121.91568199999988
 10
108.77880200000025
 20
-122.68098399999987
 10
109.04016800000025
 20
-123.46863799999987
 10
109.31118600000026
 20
-124.28042199999987
 10
109.59236400000026
 20
-125.11836799999986
 10
109.88370200000026
 20
-125.98450799999988
 10
109.92459600000026
 20
-126.09804599999987
 10
109.96955400000027
 20
-126.20904399999988
 10
110.01857600000027
 20
-126.31724799999988
 10
110.07140800000028
 20
-126.42265799999988
 10
110.12805000000027
 20
-126.52527399999988
 10
110.18850200000027
 20
-126.62484199999987
 10
110.25251000000027
 20
-126.72136199999987
 10
110.32007400000028
 20
-126.81483399999988
 10
110.39094000000028
 20
-126.90500399999988
 10
110.46510800000027
 20
-126.99187199999987
 10
110.54232400000026
 20
-127.07543799999988
 10
110.62258800000026
 20
-127.15544799999988
 10
110.70564600000026
 20
-127.23190199999988
 10
110.79149800000026
 20
-127.30479999999987
 10
110.87989000000027
 20
-127.37388799999987
 10
110.97082200000027
 20
-127.43916599999987
 10
111.06429400000027
 20
-127.50063399999988
 10
111.16005200000026
 20
-127.55829199999987
 10
111.25809600000028
 20
-127.61188599999987
 10
111.35817200000028
 20
-127.66116199999988
 10
111.46028000000027
 20
-127.70637399999987
 10
111.56416600000027
 20
-127.74726799999988
 10
111.66983000000027
 20
-127.78384399999987
 10
111.77701800000028
 20
-127.81584799999987
 10
111.88573000000028
 20
-127.84353399999986
 10
111.99571200000028
 20
-127.86639399999986
 10
112.10696400000027
 20
-127.88468199999986
 10
112.21948600000027
 20
-127.89814399999986
 10
112.33302400000026
 20
-127.90677999999986
 10
112.44757800000028
 20
-127.91058999999986
 10
112.56289400000027
 20
-127.90931999999985
 10
112.67871800000029
 20
-127.90296999999985
 10
112.70538800000028
 20
-127.90093799999987
 10
112.7320580000003
 20
-127.89890599999987
 10
112.75872800000029
 20
-127.89687399999987
 10
112.7853980000003
 20
-127.89484199999988
 10
112.81206800000031
 20
-127.89280999999988
 10
112.8387380000003
 20
-127.89077799999988
 10
112.86540800000031
 20
-127.8887459999999
 10
112.89207800000031
 20
-127.8867139999999
 10
112.91874800000032
 20
-127.8846819999999
 10
112.94541800000033
 20
-127.88264999999991
 10
112.97208800000033
 20
-127.88061799999991
 10
112.99875800000034
 20
-127.87858599999991
 10
113.02542800000035
 20
-127.87655399999993
 10
113.05209800000034
 20
-127.87452199999993
 10
113.07876800000035
 20
-127.87248999999993
 10
113.10543800000035
 20
-127.87045799999993
 10
113.13210800000036
 20
-127.86842599999994
 10
113.15877800000037
 20
-127.86639399999994
 10
113.18519400000037
 20
-127.86436199999994
 10
113.21161000000036
 20
-127.86232999999996
 10
113.23802600000035
 20
-127.86029799999996
 10
113.26444200000034
 20
-127.85826599999996
 10
113.29085800000034
 20
-127.85623399999997
 10
113.31727400000034
 20
-127.85420199999997
 10
113.34369000000034
 20
-127.85191599999997
 10
113.37010600000033
 20
-127.84962999999996
 10
113.39626800000033
 20
-127.84734399999996
 10
113.42243000000033
 20
-127.84505799999995
 10
113.44859200000035
 20
-127.84277199999995
 10
113.47475400000035
 20
-127.84048599999996
 10
113.50091600000034
 20
-127.83819999999994
 10
113.52707800000034
 20
-127.83591399999995
 10
113.58092600000035
 20
-127.83032599999994
 10
113.63426600000034
 20
-127.82270599999995
 10
113.68709800000035
 20
-127.81305399999995
 10
113.73942200000035
 20
-127.80162399999995
 10
113.79123800000035
 20
-127.78816199999994
 10
113.84229200000036
 20
-127.77292199999995
 10
113.89283800000037
 20
-127.75590399999994
 10
113.94262200000037
 20
-127.73685399999995
 10
113.99164400000036
 20
-127.71602599999994
 10
114.03965000000036
 20
-127.69341999999995
 10
114.08689400000036
 20
-127.66928999999995
 10
114.13312200000037
 20
-127.64338199999995
 10
114.17858800000036
 20
-127.61594999999994
 10
114.22278400000036
 20
-127.58673999999995
 10
114.26596400000035
 20
-127.55600599999995
 10
114.30812800000035
 20
-127.52374799999994
 10
114.34902200000036
 20
-127.48996599999995
 10
114.38890000000035
 20
-127.45465999999995
 10
114.42750800000034
 20
-127.41782999999995
 10
114.46459200000035
 20
-127.37947599999995
 10
114.50040600000035
 20
-127.33959799999995
 10
114.53495000000036
 20
-127.29844999999996
 10
114.56797000000036
 20
-127.25603199999996
 10
114.59946600000038
 20
-127.21208999999996
 10
114.62943800000036
 20
-127.16687799999997
 10
114.65788600000037
 20
-127.12039599999997
 10
114.68455600000038
 20
-127.07264399999997
 10
114.70970200000038
 20
-127.02387599999997
 10
114.73307000000037
 20
-126.97383799999997
 10
114.75466000000037
 20
-126.92278399999996
 10
114.77447200000036
 20
-126.87045999999997
 10
114.79225200000036
 20
-126.81711999999996
 10
114.82324000000037
 20
-126.72288599999997
 10
114.85676800000036
 20
-126.62941399999997
 10
114.89283600000036
 20
-126.53670399999997
 10
114.93144400000035
 20
-126.44500999999997
 10
114.97259200000036
 20
-126.35433199999997
 10
115.01602600000035
 20
-126.26466999999997
 10
115.06174600000035
 20
-126.17602399999997
 10
115.10975200000036
 20
-126.08864799999996
 10
115.16004400000035
 20
-126.00254199999996
 10
115.21262200000035
 20
-125.91770599999997
 10
115.26723200000035
 20
-125.83439399999997
 10
115.32387400000034
 20
-125.75260599999997
 10
115.38254800000036
 20
-125.67234199999997
 10
115.44325400000034
 20
-125.59360199999998
 10
115.50599200000035
 20
-125.51663999999998
 10
115.57050800000034
 20
-125.44145599999999
 10
115.63680200000036
 20
-125.36804999999998
 10
115.70487400000034
 20
-125.29642199999999
 10
115.77472400000035
 20
-125.22682599999999
 10
115.84609800000034
 20
-125.15926199999998
 10
115.91899600000033
 20
-125.09398399999998
 10
115.99341800000035
 20
-125.03073799999997
 10
116.06936400000033
 20
-124.96977799999998
 10
116.14683400000034
 20
-124.91110399999998
 10
116.22557400000034
 20
-124.85496999999998
 10
116.30558400000034
 20
-124.80112199999998
 10
116.38686400000033
 20
-124.74981399999997
 10
116.46941400000033
 20
-124.70129999999999
 10
116.55323400000033
 20
-124.65532599999999
 10
116.63807000000033
 20
-124.61214599999998
 10
116.72392200000033
 20
-124.57175999999998
 10
116.81079000000034
 20
-124.53416799999998
 10
116.92305800000034
 20
-124.48946399999998
 10
117.03431000000033
 20
-124.44831599999999
 10
117.14454600000033
 20
-124.41046999999999
 10
117.25402000000034
 20
-124.37592599999998
 10
117.36273200000034
 20
-124.34468399999999
 10
117.47068200000034
 20
-124.31623599999998
 10
117.57812400000033
 20
-124.29083599999997
 10
117.68505800000034
 20
-124.26797599999998
 10
117.79148400000032
 20
-124.24790999999998
 10
117.89740200000033
 20
-124.23012999999997
 10
118.00306600000032
 20
-124.21463599999998
 10
118.10873000000032
 20
-124.20142799999998
 10
118.21414000000033
 20
-124.19025199999999
 10
118.31955000000033
 20
-124.18110799999998
 10
118.42521400000032
 20
-124.17374199999999
 10
118.53087800000033
 20
-124.16789999999997
 10
118.63705000000033
 20
-124.16358199999998
 10
118.74347600000033
 20
-124.16078799999997
 10
118.85041000000032
 20
-124.15900999999997
 10
118.95785200000033
 20
-124.15850199999997
 10
119.06580200000033
 20
-124.15900999999997
 10
119.17451400000033
 20
-124.16027999999997
 10
119.28398800000032
 20
-124.16231199999997
 10
119.39422400000034
 20
-124.16485199999997
 10
119.50547600000033
 20
-124.16789999999996
 10
119.61774400000033
 20
-124.17120199999995
 10
119.73128200000033
 20
-124.17450399999996
 10
119.84609000000033
 20
-124.17780599999995
 10
119.96216800000033
 20
-124.18110799999994
 10
120.07951600000032
 20
-124.18415599999994
 10
120.19838800000034
 20
-124.18669599999994
 10
120.31878400000032
 20
-124.18872799999994
 10
120.66473200000033
 20
-124.19406199999993
 10
121.01068000000033
 20
-124.19939599999994
 10
121.35662800000034
 20
-124.20447599999994
 10
121.70257600000035
 20
-124.20955599999994
 10
122.04852400000036
 20
-124.21463599999993
 10
122.39447200000036
 20
-124.21971599999992
 10
122.74042000000037
 20
-124.22479599999991
 10
123.08636800000038
 20
-124.22987599999992
 10
123.43231600000038
 20
-124.23495599999991
 10
123.77826400000039
 20
-124.2400359999999
 10
124.1242120000004
 20
-124.2451159999999
 10
124.47016000000039
 20
-124.25019599999989
 10
124.8161080000004
 20
-124.2552759999999
 10
125.1620560000004
 20
-124.26035599999989
 10
125.50800400000041
 20
-124.26543599999988
 10
125.85395200000042
 20
-124.27051599999987
 10
126.19990000000043
 20
-124.27559599999987
 10
126.54584800000043
 20
-124.28092999999987
 10
126.89179600000044
 20
-124.28626399999987
 10
127.23774400000045
 20
-124.29159799999988
 10
127.58369200000045
 20
-124.29693199999988
 10
127.92964000000046
 20
-124.30226599999989
 10
128.27558800000045
 20
-124.3075999999999
 10
128.62153600000048
 20
-124.3129339999999
 10
128.96748400000047
 20
-124.3182679999999
 10
129.3134320000005
 20
-124.32360199999991
 10
129.65938000000048
 20
-124.32893599999991
 10
130.0053280000005
 20
-124.33426999999992
 10
130.3512760000005
 20
-124.33960399999992
 10
130.69722400000046
 20
-124.34493799999993
 10
131.04317200000045
 20
-124.35027199999992
 10
131.38912000000045
 20
-124.35560599999992
 10
131.47268600000044
 20
-124.35738399999993
 10
131.55777600000044
 20
-124.35966999999994
 10
131.64439000000044
 20
-124.36246399999995
 10
131.73227400000044
 20
-124.36551199999994
 10
131.82142800000045
 20
-124.36855999999995
 10
131.91159800000045
 20
-124.37135399999994
 10
132.00253000000043
 20
-124.37389399999995
 10
132.09422400000045
 20
-124.37592599999994
 10
132.18642600000047
 20
-124.37719599999994
 10
132.27888200000046
 20
-124.37744999999994
 10
132.37159200000048
 20
-124.37643399999993
 10
132.46455600000047
 20
-124.37414799999992
 10
132.55726600000048
 20
-124.37033799999993
 10
132.64972200000048
 20
-124.36474999999993
 10
132.7419240000005
 20
-124.35712999999994
 10
132.83361800000048
 20
-124.34747799999994
 10
132.92455000000047
 20
-124.33553999999992
 10
133.01446600000048
 20
-124.32106199999993
 10
133.1033660000005
 20
-124.30378999999992
 10
133.19125000000048
 20
-124.28372399999992
 10
133.2778640000005
 20
-124.26035599999993
 10
133.3629540000005
 20
-124.23368599999992
 10
133.4462660000005
 20
-124.20345999999992
 10
133.5278000000005
 20
-124.1694239999999
 10
133.6075560000005
 20
-124.13157799999992
 10
133.68502600000048
 20
-124.0896679999999
 10
133.7604640000005
 20
-124.0434399999999
 10
133.8333620000005
 20
-123.99263999999991
 10
133.9037200000005
 20
-123.9370139999999
 10
133.9712840000005
 20
-123.87656199999991
 10
134.0360540000005
 20
-123.81102999999992
 10
134.09777600000052
 20
-123.74016399999991
 10
134.18210400000052
 20
-123.6286579999999
 10
134.25728800000053
 20
-123.5128339999999
 10
134.3238360000005
 20
-123.39294599999991
 10
134.3817480000005
 20
-123.2689939999999
 10
134.4317860000005
 20
-123.1414859999999
 10
134.4742040000005
 20
-123.0106759999999
 10
134.5092560000005
 20
-122.87681799999991
 10
134.53745000000052
 20
-122.73991199999992
 10
134.55904000000052
 20
-122.60046599999993
 10
134.57453400000054
 20
-122.45873399999992
 10
134.58418600000053
 20
-122.31496999999993
 10
134.58850400000054
 20
-122.16968199999992
 10
134.58774200000053
 20
-122.02286999999994
 10
134.58240800000056
 20
-121.87478799999992
 10
134.57275600000054
 20
-121.72568999999993
 10
134.55929400000053
 20
-121.57582999999994
 10
134.54227600000053
 20
-121.42571599999994
 10
134.52221000000054
 20
-121.27534799999994
 10
134.49935000000053
 20
-121.12523399999994
 10
134.47420400000053
 20
-120.97537399999995
 10
134.44702600000053
 20
-120.82627599999995
 10
134.41832400000052
 20
-120.67819399999995
 10
134.3883520000005
 20
-120.53112799999994
 10
134.3576180000005
 20
-120.38558599999995
 10
134.3263760000005
 20
-120.24182199999996
 10
134.2951340000005
 20
-120.10008999999995
 10
134.2641460000005
 20
-119.96064399999996
 10
134.2339200000005
 20
-119.82373799999996
 10
134.2047100000005
 20
-119.68962599999996
 10
134.1767700000005
 20
-119.55856199999995
 10
134.1508620000005
 20
-119.43079999999996
 10
134.12698600000047
 20
-119.30684799999996
 10
134.0020180000005
 20
-118.63857399999996
 10
133.8795900000005
 20
-118.00077999999996
 10
133.75970200000052
 20
-117.39168799999995
 10
133.6418460000005
 20
-116.80901199999995
 10
133.52576800000048
 20
-116.25097399999996
 10
133.4109600000005
 20
-115.71554199999996
 10
133.2974220000005
 20
-115.20068399999995
 10
133.1846460000005
 20
-114.70436799999996
 10
133.0721240000005
 20
-114.22456199999995
 10
132.9598560000005
 20
-113.75948799999995
 10
132.8473340000005
 20
-113.30685999999996
 10
132.7343040000005
 20
-112.86489999999995
 10
132.62025800000052
 20
-112.43157599999995
 10
132.5049420000005
 20
-112.00485599999995
 10
132.38810200000052
 20
-111.58270799999995
 10
132.26948400000052
 20
-111.16309999999996
 10
132.14858000000052
 20
-110.74399999999996
 10
132.02539000000053
 20
-110.32337599999995
 10
131.89915200000053
 20
-109.89944999999996
 10
131.76986600000052
 20
-109.46993599999996
 10
131.6370240000005
 20
-109.03305599999996
 10
131.5003720000005
 20
-108.58677799999995
 10
131.3596560000005
 20
-108.12906999999996
 10
131.21436800000052
 20
-107.65789999999996
 10
131.06425400000052
 20
-107.17148999999995
 10
130.90906000000052
 20
-106.66755399999995
 10
130.7482780000005
 20
-106.14405999999995
 10
130.58165400000053
 20
-105.59922999999996
 10
130.40893400000053
 20
-105.03103199999995
 10
130.22986400000053
 20
-104.43743399999995
 10
130.0439360000005
 20
-103.81640399999996
 10
129.85089600000052
 20
-103.16590999999997
 10
129.7955240000005
 20
-102.97896599999997
 10
129.7401520000005
 20
-102.79202199999997
 10
129.68452600000052
 20
-102.60533199999996
 10
129.62864600000051
 20
-102.41864199999996
 10
129.57276600000048
 20
-102.23195199999996
 10
129.5166320000005
 20
-102.04526199999995
 10
129.4602440000005
 20
-101.85882599999997
 10
129.4038560000005
 20
-101.67238999999996
 10
129.3472140000005
 20
-101.48595399999996
 10
129.2903180000005
 20
-101.29951799999998
 10
129.2334220000005
 20
-101.11308199999998
 10
129.1762720000005
 20
-100.92689999999997
 10
129.1188680000005
 20
-100.74071799999997
 10
129.0614640000005
 20
-100.55453599999997
 10
129.0038060000005
 20
-100.36835399999997
 10
128.94589400000052
 20
-100.18242599999996
 10
128.8879820000005
 20
-99.99649799999996
 10
128.8298160000005
 20
-99.81056999999996
 10
128.7713960000005
 20
-99.62464199999995
 10
128.7129760000005
 20
-99.43871399999993
 10
128.6543020000005
 20
-99.25303999999994
 10
128.5953740000005
 20
-99.06736599999994
 10
128.5364460000005
 20
-98.88169199999994
 10
128.47726400000047
 20
-98.69601799999995
 10
128.4178280000005
 20
-98.51059799999994
 10
128.3583920000005
 20
-98.32517799999994
 10
128.2987020000005
 20
-98.13975799999993
 10
128.2387580000005
 20
-97.95433799999992
 10
128.1788140000005
 20
-97.76917199999993
 10
128.1186160000005
 20
-97.58400599999993
 10
128.0581640000005
 20
-97.39883999999994
 10
127.99771200000049
 20
-97.21367399999994
 10
127.9403080000005
 20
-97.03688999999993
 10
127.88341200000049
 20
-96.85883599999993
 10
127.8270240000005
 20
-96.67976599999993
 10
127.7708900000005
 20
-96.49993399999993
 10
127.7152640000005
 20
-96.31908599999993
 10
127.6598920000005
 20
-96.13772999999993
 10
127.60452000000049
 20
-95.95561199999993
 10
127.54914800000049
 20
-95.77298599999993
 10
127.49377600000048
 20
-95.58985199999994
 10
127.43840400000047
 20
-95.40646399999994
 10
127.38277800000049
 20
-95.22282199999994
 10
127.32689800000047
 20
-95.03892599999993
 10
127.27076400000047
 20
-94.85502999999994
 10
127.21412200000047
 20
-94.67113399999994
 10
127.15697200000047
 20
-94.48723799999995
 10
127.09906000000046
 20
-94.30359599999994
 10
127.04064000000045
 20
-94.12020799999995
 10
126.98145800000046
 20
-93.93732799999994
 10
126.92126000000044
 20
-93.75495599999994
 10
126.86030000000045
 20
-93.57309199999993
 10
126.79832400000043
 20
-93.39198999999994
 10
126.73507800000043
 20
-93.21164999999993
 10
126.67081600000044
 20
-93.03207199999994
 10
126.60528400000044
 20
-92.85350999999994
 10
126.53822800000044
 20
-92.67596399999994
 10
126.46990200000043
 20
-92.49943399999994
 10
126.40005200000044
 20
-92.32417399999994
 10
126.32842400000045
 20
-92.15018399999994
 10
126.25527200000045
 20
-91.97771799999995
 10
126.18034200000044
 20
-91.80677599999994
 10
126.10338000000044
 20
-91.63735799999995
 10
126.02464000000045
 20
-91.46971799999994
  0
ENDSEC
  0
SECTION
  2
OBJECTS
  0
DICTIONARY
  5
A
330
0
100
AcDbDictionary
281
1
  3
ACAD_COLOR
350
B
  3
ACAD_GROUP
350
C
  3
ACAD_LAYOUT
350
D
  3
ACAD_MATERIAL
350
E
  3
ACAD_MLEADERSTYLE
350
F
  3
ACAD_MLINESTYLE
350
10
  3
ACAD_PLOTSETTINGS
350
11
  3
ACAD_PLOTSTYLENAME
350
12
  3
ACAD_SCALELIST
350
14
  3
ACAD_TABLESTYLE
350
15
  3
ACAD_VISUALSTYLE
350
16
  3
EZDXF_META
350
2D
  0
DICTIONARY
  5
B
330
A
100
AcDbDictionary
281
1
  0
DICTIONARY
  5
C
330
A
100
AcDbDictionary
281
1
  0
DICTIONARY
  5
D
330
A
100
AcDbDictionary
281
1
  3
Model
350
1A
  3
Layout1
350
1E
  0
DICTIONARY
  5
E
330
A
100
AcDbDictionary
281
1
  3
ByBlock
350
1F
  3
ByLayer
350
20
  3
Global
350
21
  0
DICTIONARY
  5
F
330
A
100
AcDbDictionary
281
1
  3
Standard
350
2C
  0
DICTIONARY
  5
10
330
A
100
AcDbDictionary
281
1
  3
Standard
350
22
  0
DICTIONARY
  5
11
330
A
100
AcDbDictionary
281
1
  0
ACDBDICTIONARYWDFLT
  5
12
330
A
100
AcDbDictionary
281
1
  3
Normal
350
13
100
AcDbDictionaryWithDefault
340
13
  0
ACDBPLACEHOLDER
  5
13
330
12
  0
DICTIONARY
  5
14
330
A
100
AcDbDictionary
281
1
  0
DICTIONARY
  5
15
330
A
100
AcDbDictionary
281
1
  0
DICTIONARY
  5
16
330
A
100
AcDbDictionary
281
1
  0
LAYOUT
  5
1A
330
D
100
AcDbPlotSettings
  1

  4
A3
  6

 40
7.5
 41
20.0
 42
7.5
 43
20.0
 44
420.0
 45
297.0
 46
0.0
 47
0.0
 48
0.0
 49
0.0
140
0.0
141
0.0
142
1.0
143
1.0
 70
1024
 72
1
 73
0
 74
5
  7

 75
16
 76
0
 77
2
 78
300
147
1.0
148
0.0
149
0.0
100
AcDbLayout
  1
Model
 70
1
 71
0
 10
0.0
 20
0.0
 11
420.0
 21
297.0
 12
0.0
 22
0.0
 32
0.0
 14
1e+20
 24
1e+20
 34
1e+20
 15
-1e+20
 25
-1e+20
 35
-1e+20
146
0.0
 13
0.0
 23
0.0
 33
0.0
 16
1.0
 26
0.0
 36
0.0
 17
0.0
 27
1.0
 37
0.0
 76
1
330
17
  0
LAYOUT
  5
1E
330
D
100
AcDbPlotSettings
  1

  4
A3
  6

 40
7.5
 41
20.0
 42
7.5
 43
20.0
 44
420.0
 45
297.0
 46
0.0
 47
0.0
 48
0.0
 49
0.0
140
0.0
141
0.0
142
1.0
143
1.0
 70
0
 72
1
 73
0
 74
5
  7

 75
16
 76
0
 77
2
 78
300
147
1.0
148
0.0
149
0.0
100
AcDbLayout
  1
Layout1
 70
1
 71
1
 10
0.0
 20
0.0
 11
420.0
 21
297.0
 12
0.0
 22
0.0
 32
0.0
 14
1e+20
 24
1e+20
 34
1e+20
 15
-1e+20
 25
-1e+20
 35
-1e+20
146
0.0
 13
0.0
 23
0.0
 33
0.0
 16
1.0
 26
0.0
 36
0.0
 17
0.0
 27
1.0
 37
0.0
 76
1
330
1B
  0
MATERIAL
  5
1F
102
{ACAD_REACTORS
330
E
102
}
330
E
100
AcDbMaterial
  1
ByBlock
  2

 70
0
 40
1.0
 71
1
 41
1.0
 91
-1023410177
 42
1.0
 72
1
  3

 73
1
 74
1
 75
1
 44
0.5
 73
0
 45
1.0
 46
1.0
 77
1
  4

 78
1
 79
1
170
1
 48
1.0
171
1
  6

172
1
173
1
174
1
140
1.0
141
1.0
175
1
  7

176
1
177
1
178
1
143
1.0
179
1
  8

270
1
271
1
272
1
145
1.0
146
1.0
273
1
  9

274
1
275
1
276
1
 42
1.0
 72
1
  3

 73
1
 74
1
 75
1
 94
63
  0
MATERIAL
  5
20
102
{ACAD_REACTORS
330
E
102
}
330
E
100
AcDbMaterial
  1
ByLayer
  2

 70
0
 40
1.0
 71
1
 41
1.0
 91
-1023410177
 42
1.0
 72
1
  3

 73
1
 74
1
 75
1
 44
0.5
 73
0
 45
1.0
 46
1.0
 77
1
  4

 78
1
 79
1
170
1
 48
1.0
171
1
  6

172
1
173
1
174
1
140
1.0
141
1.0
175
1
  7

176
1
177
1
178
1
143
1.0
179
1
  8

270
1
271
1
272
1
145
1.0
146
1.0
273
1
  9

274
1
275
1
276
1
 42
1.0
 72
1
  3

 73
1
 74
1
 75
1
 94
63
  0
MATERIAL
  5
21
102
{ACAD_REACTORS
330
E
102
}
330
E
100
AcDbMaterial
  1
Global
  2

 70
0
 40
1.0
 71
1
 41
1.0
 91
-1023410177
 42
1.0
 72
1
  3

 73
1
 74
1
 75
1
 44
0.5
 73
0
 45
1.0
 46
1.0
 77
1
  4

 78
1
 79
1
170
1
 48
1.0
171
1
  6

172
1
173
1
174
1
140
1.0
141
1.0
175
1
  7

176
1
177
1
178
1
143
1.0
179
1
  8

270
1
271
1
272
1
145
1.0
146
1.0
273
1
  9

274
1
275
1
276
1
 42
1.0
 72
1
  3

 73
1
 74
1
 75
1
 94
63
  0
MLINESTYLE
  5
22
102
{ACAD_REACTORS
330
10
102
}
330
10
100
AcDbMlineStyle
  2
Standard
 70
0
  3

 62
256
 51
90.0
 52
90.0
 71
2
 49
0.5
 62
256
  6
BYLAYER
 49
-0.5
 62
256
  6
BYLAYER
  0
MLEADERSTYLE
  5
2C
102
{ACAD_REACTORS
330
F
102
}
330
F
100
AcDbMLeaderStyle
179
2
170
2
171
1
172
0
 90
2
 40
0.0
 41
0.0
173
1
 91
-1056964608
 92
-2
290
1
 42
2.0
291
1
 43
8.0
  3
Standard
 44
4.0
300

342
29
174
1
175
1
176
0
178
1
 93
-1056964608
 45
4.0
292
0
297
0
 46
4.0
 94
-1056964608
 47
1.0
 49
1.0
140
1.0
294
1
141
0.0
177
0
142
1.0
295
0
296
0
143
3.75
271
0
272
9
273
9
  0
DICTIONARY
  5
2D
330
A
100
AcDbDictionary
280
1
281
1
  3
CREATED_BY_EZDXF
350
2E
  3
WRITTEN_BY_EZDXF
350
38
  0
DICTIONARYVAR
  5
2E
330
2D
100
DictionaryVariables
280
0
  1
1.4.3 @ 2026-04-08T01:02:28.756547+00:00
  0
DICTIONARYVAR
  5
38
330
2D
100
DictionaryVariables
280
0
  1
1.4.3 @ 2026-04-09T21:09:48.653996+00:00
  0
ENDSEC
  0
EOF
