  0
SECTION
  2
HEADER
  9
$ACADVER
  1
AC1024
  9
$ACADMAINTVER
 70
6
  9
$DWGCODEPAGE
  3
ANSI_1252
  9
$LASTSAVEDBY
  1
ezdxf
  9
$INSBASE
 10
0.0
 20
0.0
 30
0.0
  9
$EXTMIN
 10
1e+20
 20
1e+20
 30
1e+20
  9
$EXTMAX
 10
-1e+20
 20
-1e+20
 30
-1e+20
  9
$LIMMIN
 10
0.0
 20
0.0
  9
$LIMMAX
 10
420.0
 20
297.0
  9
$ORTHOMODE
 70
0
  9
$REGENMODE
 70
1
  9
$FILLMODE
 70
1
  9
$QTEXTMODE
 70
0
  9
$MIRRTEXT
 70
1
  9
$LTSCALE
 40
1.0
  9
$ATTMODE
 70
1
  9
$TEXTSIZE
 40
2.5
  9
$TRACEWID
 40
1.0
  9
$TEXTSTYLE
  7
Standard
  9
$CLAYER
  8
0
  9
$CELTYPE
  6
ByLayer
  9
$CECOLOR
 62
256
  9
$CELTSCALE
 40
1.0
  9
$DISPSILH
 70
0
  9
$DIMSCALE
 40
1.0
  9
$DIMASZ
 40
2.5
  9
$DIMEXO
 40
0.625
  9
$DIMDLI
 40
3.75
  9
$DIMRND
 40
0.0
  9
$DIMDLE
 40
0.0
  9
$DIMEXE
 40
1.25
  9
$DIMTP
 40
0.0
  9
$DIMTM
 40
0.0
  9
$DIMTXT
 40
2.5
  9
$DIMCEN
 40
2.5
  9
$DIMTSZ
 40
0.0
  9
$DIMTOL
 70
0
  9
$DIMLIM
 70
0
  9
$DIMTIH
 70
0
  9
$DIMTOH
 70
0
  9
$DIMSE1
 70
0
  9
$DIMSE2
 70
0
  9
$DIMTAD
 70
1
  9
$DIMZIN
 70
8
  9
$DIMBLK
  1

  9
$DIMASO
 70
1
  9
$DIMSHO
 70
1
  9
$DIMPOST
  1

  9
$DIMAPOST
  1

  9
$DIMALT
 70
0
  9
$DIMALTD
 70
3
  9
$DIMALTF
 40
0.03937007874
  9
$DIMLFAC
 40
1.0
  9
$DIMTOFL
 70
1
  9
$DIMTVP
 40
0.0
  9
$DIMTIX
 70
0
  9
$DIMSOXD
 70
0
  9
$DIMSAH
 70
0
  9
$DIMBLK1
  1

  9
$DIMBLK2
  1

  9
$DIMSTYLE
  2
ISO-25
  9
$DIMCLRD
 70
0
  9
$DIMCLRE
 70
0
  9
$DIMCLRT
 70
0
  9
$DIMTFAC
 40
1.0
  9
$DIMGAP
 40
0.625
  9
$DIMJUST
 70
0
  9
$DIMSD1
 70
0
  9
$DIMSD2
 70
0
  9
$DIMTOLJ
 70
0
  9
$DIMTZIN
 70
8
  9
$DIMALTZ
 70
0
  9
$DIMALTTZ
 70
0
  9
$DIMUPT
 70
0
  9
$DIMDEC
 70
2
  9
$DIMTDEC
 70
2
  9
$DIMALTU
 70
2
  9
$DIMALTTD
 70
3
  9
$DIMTXSTY
  7
Standard
  9
$DIMAUNIT
 70
0
  9
$DIMADEC
 70
0
  9
$DIMALTRND
 40
0.0
  9
$DIMAZIN
 70
0
  9
$DIMDSEP
 70
44
  9
$DIMATFIT
 70
3
  9
$DIMFRAC
 70
0
  9
$DIMLDRBLK
  1

  9
$DIMLUNIT
 70
2
  9
$DIMLWD
 70
-2
  9
$DIMLWE
 70
-2
  9
$DIMTMOVE
 70
0
  9
$DIMFXL
 40
1.0
  9
$DIMFXLON
 70
0
  9
$DIMJOGANG
 40
0.785398163397
  9
$DIMTFILL
 70
0
  9
$DIMTFILLCLR
 70
0
  9
$DIMARCSYM
 70
0
  9
$DIMLTYPE
  6

  9
$DIMLTEX1
  6

  9
$DIMLTEX2
  6

  9
$DIMTXTDIRECTION
 70
0
  9
$LUNITS
 70
2
  9
$LUPREC
 70
4
  9
$SKETCHINC
 40
1.0
  9
$FILLETRAD
 40
10.0
  9
$AUNITS
 70
0
  9
$AUPREC
 70
2
  9
$MENU
  1
.
  9
$ELEVATION
 40
0.0
  9
$PELEVATION
 40
0.0
  9
$THICKNESS
 40
0.0
  9
$LIMCHECK
 70
0
  9
$CHAMFERA
 40
0.0
  9
$CHAMFERB
 40
0.0
  9
$CHAMFERC
 40
0.0
  9
$CHAMFERD
 40
0.0
  9
$SKPOLY
 70
0
  9
$TDCREATE
 40
2461140.590138889
  9
$TDUCREATE
 40
2458532.153996898
  9
$TDUPDATE
 40
2461140.590138889
  9
$TDUUPDATE
 40
2458532.1544311
  9
$TDINDWG
 40
0.0
  9
$TDUSRTIMER
 40
0.0
  9
$USRTIMER
 70
1
  9
$ANGBASE
 50
0.0
  9
$ANGDIR
 70
0
  9
$PDMODE
 70
0
  9
$PDSIZE
 40
0.0
  9
$PLINEWID
 40
0.0
  9
$SPLFRAME
 70
0
  9
$SPLINETYPE
 70
6
  9
$SPLINESEGS
 70
8
  9
$HANDSEED
  5
3B
  9
$SURFTAB1
 70
6
  9
$SURFTAB2
 70
6
  9
$SURFTYPE
 70
6
  9
$SURFU
 70
6
  9
$SURFV
 70
6
  9
$UCSBASE
  2

  9
$UCSNAME
  2

  9
$UCSORG
 10
0.0
 20
0.0
 30
0.0
  9
$UCSXDIR
 10
1.0
 20
0.0
 30
0.0
  9
$UCSYDIR
 10
0.0
 20
1.0
 30
0.0
  9
$UCSORTHOREF
  2

  9
$UCSORTHOVIEW
 70
0
  9
$UCSORGTOP
 10
0.0
 20
0.0
 30
0.0
  9
$UCSORGBOTTOM
 10
0.0
 20
0.0
 30
0.0
  9
$UCSORGLEFT
 10
0.0
 20
0.0
 30
0.0
  9
$UCSORGRIGHT
 10
0.0
 20
0.0
 30
0.0
  9
$UCSORGFRONT
 10
0.0
 20
0.0
 30
0.0
  9
$UCSORGBACK
 10
0.0
 20
0.0
 30
0.0
  9
$PUCSBASE
  2

  9
$PUCSNAME
  2

  9
$PUCSORG
 10
0.0
 20
0.0
 30
0.0
  9
$PUCSXDIR
 10
1.0
 20
0.0
 30
0.0
  9
$PUCSYDIR
 10
0.0
 20
1.0
 30
0.0
  9
$PUCSORTHOREF
  2

  9
$PUCSORTHOVIEW
 70
0
  9
$PUCSORGTOP
 10
0.0
 20
0.0
 30
0.0
  9
$PUCSORGBOTTOM
 10
0.0
 20
0.0
 30
0.0
  9
$PUCSORGLEFT
 10
0.0
 20
0.0
 30
0.0
  9
$PUCSORGRIGHT
 10
0.0
 20
0.0
 30
0.0
  9
$PUCSORGFRONT
 10
0.0
 20
0.0
 30
0.0
  9
$PUCSORGBACK
 10
0.0
 20
0.0
 30
0.0
  9
$USERI1
 70
0
  9
$USERI2
 70
0
  9
$USERI3
 70
0
  9
$USERI4
 70
0
  9
$USERI5
 70
0
  9
$USERR1
 40
0.0
  9
$USERR2
 40
0.0
  9
$USERR3
 40
0.0
  9
$USERR4
 40
0.0
  9
$USERR5
 40
0.0
  9
$WORLDVIEW
 70
1
  9
$SHADEDGE
 70
3
  9
$SHADEDIF
 70
70
  9
$TILEMODE
 70
1
  9
$MAXACTVP
 70
64
  9
$PINSBASE
 10
0.0
 20
0.0
 30
0.0
  9
$PLIMCHECK
 70
0
  9
$PEXTMIN
 10
1e+20
 20
1e+20
 30
1e+20
  9
$PEXTMAX
 10
-1e+20
 20
-1e+20
 30
-1e+20
  9
$PLIMMIN
 10
0.0
 20
0.0
  9
$PLIMMAX
 10
420.0
 20
297.0
  9
$UNITMODE
 70
0
  9
$VISRETAIN
 70
1
  9
$PLINEGEN
 70
0
  9
$PSLTSCALE
 70
1
  9
$TREEDEPTH
 70
3020
  9
$CMLSTYLE
  2
Standard
  9
$CMLJUST
 70
0
  9
$CMLSCALE
 40
20.0
  9
$PROXYGRAPHICS
 70
1
  9
$MEASUREMENT
 70
1
  9
$CELWEIGHT
370
-1
  9
$ENDCAPS
280
0
  9
$JOINSTYLE
280
0
  9
$LWDISPLAY
290
0
  9
$INSUNITS
 70
6
  9
$HYPERLINKBASE
  1

  9
$STYLESHEET
  1

  9
$XEDIT
290
1
  9
$CEPSNTYPE
380
0
  9
$PSTYLEMODE
290
1
  9
$FINGERPRINTGUID
  2
{66DC851F-7AD4-4053-9427-126C6EC8574C}
  9
$VERSIONGUID
  2
{7E92E284-753A-4BB1-AA63-37ADCC74EA99}
  9
$EXTNAMES
290
1
  9
$PSVPSCALE
 40
0.0
  9
$OLESTARTUP
290
0
  9
$SORTENTS
280
127
  9
$INDEXCTL
280
0
  9
$HIDETEXT
280
1
  9
$XCLIPFRAME
280
1
  9
$HALOGAP
280
0
  9
$OBSCOLOR
 70
257
  9
$OBSLTYPE
280
0
  9
$INTERSECTIONDISPLAY
280
0
  9
$INTERSECTIONCOLOR
 70
257
  9
$DIMASSOC
280
2
  9
$PROJECTNAME
  1

  9
$CAMERADISPLAY
290
0
  9
$LENSLENGTH
 40
50.0
  9
$CAMERAHEIGHT
 40
0.0
  9
$STEPSPERSEC
 40
24.0
  9
$STEPSIZE
 40
100.0
  9
$3DDWFPREC
 40
2.0
  9
$PSOLWIDTH
 40
0.005
  9
$PSOLHEIGHT
 40
0.08
  9
$LOFTANG1
 40
1.570796326795
  9
$LOFTANG2
 40
1.570796326795
  9
$LOFTMAG1
 40
0.0
  9
$LOFTMAG2
 40
0.0
  9
$LOFTPARAM
 70
7
  9
$LOFTNORMALS
280
1
  9
$LATITUDE
 40
37.795
  9
$LONGITUDE
 40
-122.394
  9
$NORTHDIRECTION
 40
0.0
  9
$TIMEZONE
 70
-8000
  9
$LIGHTGLYPHDISPLAY
280
1
  9
$TILEMODELIGHTSYNCH
280
1
  9
$CMATERIAL
347
20
  9
$SOLIDHIST
280
0
  9
$SHOWHIST
280
1
  9
$DWFFRAME
280
2
  9
$DGNFRAME
280
2
  9
$REALWORLDSCALE
290
1
  9
$INTERFERECOLOR
 62
256
  9
$CSHADOW
280
0
  9
$SHADOWPLANELOCATION
 40
0.0
  0
ENDSEC
  0
SECTION
  2
CLASSES
  0
CLASS
  1
ACDBDICTIONARYWDFLT
  2
AcDbDictionaryWithDefault
  3
ObjectDBX Classes
 90
0
 91
0
280
0
281
0
  0
CLASS
  1
SUN
  2
AcDbSun
  3
SCENEOE
 90
1153
 91
0
280
0
281
0
  0
CLASS
  1
VISUALSTYLE
  2
AcDbVisualStyle
  3
ObjectDBX Classes
 90
4095
 91
0
280
0
281
0
  0
CLASS
  1
MATERIAL
  2
AcDbMaterial
  3
ObjectDBX Classes
 90
1153
 91
0
280
0
281
0
  0
CLASS
  1
SCALE
  2
AcDbScale
  3
ObjectDBX Classes
 90
1153
 91
0
280
0
281
0
  0
CLASS
  1
TABLESTYLE
  2
AcDbTableStyle
  3
ObjectDBX Classes
 90
4095
 91
0
280
0
281
0
  0
CLASS
  1
MLEADERSTYLE
  2
AcDbMLeaderStyle
  3
ACDB_MLEADERSTYLE_CLASS
 90
4095
 91
0
280
0
281
0
  0
CLASS
  1
DICTIONARYVAR
  2
AcDbDictionaryVar
  3
ObjectDBX Classes
 90
0
 91
0
280
0
281
0
  0
CLASS
  1
CELLSTYLEMAP
  2
AcDbCellStyleMap
  3
ObjectDBX Classes
 90
1152
 91
0
280
0
281
0
  0
CLASS
  1
MENTALRAYRENDERSETTINGS
  2
AcDbMentalRayRenderSettings
  3
SCENEOE
 90
1024
 91
0
280
0
281
0
  0
CLASS
  1
ACDBDETAILVIEWSTYLE
  2
AcDbDetailViewStyle
  3
ObjectDBX Classes
 90
1025
 91
0
280
0
281
0
  0
CLASS
  1
ACDBSECTIONVIEWSTYLE
  2
AcDbSectionViewStyle
  3
ObjectDBX Classes
 90
1025
 91
0
280
0
281
0
  0
CLASS
  1
RASTERVARIABLES
  2
AcDbRasterVariables
  3
ISM
 90
0
 91
0
280
0
281
0
  0
CLASS
  1
LAYOUT
  2
AcDbLayout
  3
ObjectDBX Classes
 90
0
 91
0
280
0
281
0
  0
CLASS
  1
ACDBPLACEHOLDER
  2
AcDbPlaceHolder
  3
ObjectDBX Classes
 90
0
 91
0
280
0
281
0
  0
ENDSEC
  0
SECTION
  2
TABLES
  0
TABLE
  2
VPORT
  5
8
330
0
100
AcDbSymbolTable
 70
1
  0
VPORT
  5
23
330
8
100
AcDbSymbolTableRecord
100
AcDbViewportTableRecord
  2
*Active
 70
0
 10
0.0
 20
0.0
 11
1.0
 21
1.0
 12
0.0
 22
0.0
 13
0.0
 23
0.0
 14
0.5
 24
0.5
 15
0.5
 25
0.5
 16
0.0
 26
0.0
 36
1.0
 17
0.0
 27
0.0
 37
0.0
 40
1000.0
 41
1.34
 42
50.0
 43
0.0
 44
0.0
 50
0.0
 51
0.0
 71
0
 72
1000
 73
1
 74
3
 75
0
 76
0
 77
0
 78
0
281
0
 65
0
146
0.0
  0
ENDTAB
  0
TABLE
  2
LTYPE
  5
2
330
0
100
AcDbSymbolTable
 70
3
  0
LTYPE
  5
24
330
2
100
AcDbSymbolTableRecord
100
AcDbLinetypeTableRecord
  2
ByBlock
 70
0
  3

 72
65
 73
0
 40
0.0
  0
LTYPE
  5
25
330
2
100
AcDbSymbolTableRecord
100
AcDbLinetypeTableRecord
  2
ByLayer
 70
0
  3

 72
65
 73
0
 40
0.0
  0
LTYPE
  5
26
330
2
100
AcDbSymbolTableRecord
100
AcDbLinetypeTableRecord
  2
Continuous
 70
0
  3

 72
65
 73
0
 40
0.0
  0
ENDTAB
  0
TABLE
  2
LAYER
  5
1
330
0
100
AcDbSymbolTable
 70
2
  0
LAYER
  5
27
330
1
100
AcDbSymbolTableRecord
100
AcDbLayerTableRecord
  2
0
 70
0
 62
7
  6
Continuous
370
-3
390
13
347
21
  0
LAYER
  5
28
330
1
100
AcDbSymbolTableRecord
100
AcDbLayerTableRecord
  2
Defpoints
 70
0
 62
7
  6
Continuous
290
0
370
-3
390
13
347
21
  0
ENDTAB
  0
TABLE
  2
STYLE
  5
5
330
0
100
AcDbSymbolTable
 70
1
  0
STYLE
  5
29
330
5
100
AcDbSymbolTableRecord
100
AcDbTextStyleTableRecord
  2
Standard
 70
0
 40
0.0
 41
1.0
 50
0.0
 71
0
 42
2.5
  3
txt
  4

  0
ENDTAB
  0
TABLE
  2
VIEW
  5
7
330
0
100
AcDbSymbolTable
 70
0
  0
ENDTAB
  0
TABLE
  2
UCS
  5
6
330
0
100
AcDbSymbolTable
 70
0
  0
ENDTAB
  0
TABLE
  2
APPID
  5
3
330
0
100
AcDbSymbolTable
 70
3
  0
APPID
  5
2A
330
3
100
AcDbSymbolTableRecord
100
AcDbRegAppTableRecord
  2
ACAD
 70
0
  0
APPID
  5
38
330
3
100
AcDbSymbolTableRecord
100
AcDbRegAppTableRecord
  2
HATCHBACKGROUNDCOLOR
 70
0
  0
APPID
  5
39
330
3
100
AcDbSymbolTableRecord
100
AcDbRegAppTableRecord
  2
EZDXF
 70
0
  0
ENDTAB
  0
TABLE
  2
DIMSTYLE
  5
4
330
0
100
AcDbSymbolTable
 70
1
100
AcDbDimStyleTable
  0
DIMSTYLE
105
2B
330
4
100
AcDbSymbolTableRecord
100
AcDbDimStyleTableRecord
  2
Standard
 70
0
 40
1.0
 41
2.5
 42
0.625
 43
3.75
 44
1.25
 45
0.0
 46
0.0
 47
0.0
 48
0.0
 49
2.5
140
2.5
141
2.5
142
0.0
143
0.03937007874
144
1.0
145
0.0
146
1.0
147
0.625
148
0.0
 69
0
 70
0
 71
0
 72
0
 73
0
 74
0
 75
0
 76
0
 77
1
 78
8
 79
3
170
0
171
3
172
1
173
0
174
0
175
0
176
0
177
0
178
0
179
2
271
2
272
2
273
2
274
3
275
0
276
0
277
2
278
44
279
0
280
0
281
0
282
0
283
0
284
8
285
0
286
0
288
0
289
3
290
0
371
-2
372
-2
  0
ENDTAB
  0
TABLE
  2
BLOCK_RECORD
  5
9
330
0
100
AcDbSymbolTable
 70
2
  0
BLOCK_RECORD
  5
17
330
9
100
AcDbSymbolTableRecord
100
AcDbBlockTableRecord
  2
*Model_Space
340
1A
 70
0
280
1
281
0
  0
BLOCK_RECORD
  5
1B
330
9
100
AcDbSymbolTableRecord
100
AcDbBlockTableRecord
  2
*Paper_Space
340
1E
 70
0
280
1
281
0
  0
ENDTAB
  0
ENDSEC
  0
SECTION
  2
BLOCKS
  0
BLOCK
  5
18
330
17
100
AcDbEntity
  8
0
100
AcDbBlockBegin
  2
*Model_Space
 70
0
 10
0.0
 20
0.0
 30
0.0
  3
*Model_Space
  1

  0
ENDBLK
  5
19
330
17
100
AcDbEntity
  8
0
100
AcDbBlockEnd
  0
BLOCK
  5
1C
330
1B
100
AcDbEntity
  8
0
100
AcDbBlockBegin
  2
*Paper_Space
 70
0
 10
0.0
 20
0.0
 30
0.0
  3
*Paper_Space
  1

  0
ENDBLK
  5
1D
330
1B
100
AcDbEntity
  8
0
100
AcDbBlockEnd
  0
ENDSEC
  0
SECTION
  2
ENTITIES
  0
LWPOLYLINE
  5
2F
330
17
100
AcDbEntity
  8
0
100
AcDbPolyline
 90
545
 70
0
 10
175.07585
 20
-91.474798
 10
175.123856
 20
-91.34246399999999
 10
175.17313199999998
 20
-91.209368
 10
175.22367799999998
 20
-91.07576399999999
 10
175.27549399999995
 20
-90.941906
 10
175.32883399999997
 20
-90.808048
 10
175.38369799999995
 20
-90.674444
 10
175.44008599999995
 20
-90.541348
 10
175.49825199999998
 20
-90.409014
 10
175.55819599999998
 20
-90.27769599999999
 10
175.62017199999997
 20
-90.147394
 10
175.68417999999997
 20
-90.018616
 10
175.75021999999996
 20
-89.891616
 10
175.81829199999996
 20
-89.766394
 10
175.88864999999998
 20
-89.64345800000001
 10
175.961548
 20
-89.522808
 10
176.03698599999998
 20
-89.40469800000001
 10
176.114964
 20
-89.28963600000002
 10
176.195482
 20
-89.17762200000001
 10
176.278794
 20
-89.06891000000002
 10
176.3649
 20
-88.96375400000002
 10
176.454054
 20
-88.86240800000003
 10
176.546002
 20
-88.76512600000002
 10
176.641252
 20
-88.67241600000003
 10
176.73954999999998
 20
-88.58402400000003
 10
176.84114999999997
 20
-88.50045800000002
 10
176.94630599999996
 20
-88.42197200000001
 10
177.05476399999998
 20
-88.34882000000002
 10
177.166778
 20
-88.28125600000001
 10
177.282602
 20
-88.21928
 10
177.402236
 20
-88.1634
 10
177.52568
 20
-88.11386999999999
 10
177.652934
 20
-88.07068999999998
 10
177.72608599999998
 20
-88.049354
 10
177.799492
 20
-88.03055799999998
 10
177.873406
 20
-88.01404799999999
 10
177.947574
 20
-87.99982399999999
 10
178.021996
 20
-87.98788599999999
 10
178.096672
 20
-87.97823399999999
 10
178.171348
 20
-87.97061399999998
 10
178.246278
 20
-87.965026
 10
178.321462
 20
-87.961216
 10
178.39690000000002
 20
-87.959184
 10
178.472338
 20
-87.95893000000001
 10
178.54803
 20
-87.960454
 10
178.62372200000001
 20
-87.96350199999999
 10
178.69941400000002
 20
-87.96807399999999
 10
178.77536
 20
-87.973916
 10
178.851306
 20
-87.981282
 10
178.927252
 20
-87.98991799999999
 10
179.003198
 20
-87.99956999999999
 10
179.07914399999999
 20
-88.010492
 10
179.15508999999997
 20
-88.02243
 10
179.231036
 20
-88.03538400000001
 10
179.30698199999998
 20
-88.0491
 10
179.38267399999998
 20
-88.06357799999999
 10
179.45836599999998
 20
-88.078818
 10
179.53380399999998
 20
-88.094566
 10
179.609242
 20
-88.111076
 10
179.684426
 20
-88.128094
 10
179.75961
 20
-88.145366
 10
179.83454
 20
-88.162892
 10
179.909216
 20
-88.180672
 10
179.98363799999998
 20
-88.19870600000002
 10
180.057806
 20
-88.21674000000002
 10
180.351176
 20
-88.288368
 10
180.644546
 20
-88.35999600000001
 10
180.93791599999997
 20
-88.431624
 10
181.23128599999998
 20
-88.503252
 10
181.52465599999996
 20
-88.57488
 10
181.81802599999997
 20
-88.64650799999998
 10
182.11139599999996
 20
-88.71813599999999
 10
182.40476599999994
 20
-88.78976399999998
 10
182.69813599999995
 20
-88.86139199999998
 10
182.99150599999993
 20
-88.93301999999997
 10
183.28487599999994
 20
-89.00464799999996
 10
183.57824599999992
 20
-89.07627599999996
 10
183.8716159999999
 20
-89.14790399999995
 10
184.1649859999999
 20
-89.21953199999996
 10
184.4583559999999
 20
-89.29115999999995
 10
184.7517259999999
 20
-89.36278799999994
 10
185.0450959999999
 20
-89.43441599999994
 10
185.33846599999987
 20
-89.50604399999993
 10
185.63183599999988
 20
-89.57767199999994
 10
185.92520599999986
 20
-89.64929999999993
 10
186.21857599999987
 20
-89.72092799999992
 10
186.51194599999985
 20
-89.79255599999992
 10
186.80531599999983
 20
-89.86418399999991
 10
187.09868599999984
 20
-89.93581199999991
 10
187.39205599999983
 20
-90.0074399999999
 10
187.68542599999984
 20
-90.07906799999989
 10
187.97879599999982
 20
-90.1506959999999
 10
188.2721659999998
 20
-90.22232399999989
 10
188.5655359999998
 20
-90.29395199999989
 10
188.8589059999998
 20
-90.36557999999988
 10
189.1522759999998
 20
-90.43720799999987
 10
189.44564599999978
 20
-90.50883599999987
 10
189.66230799999977
 20
-90.56217599999987
 10
189.87998599999978
 20
-90.61627799999987
 10
190.09817199999978
 20
-90.67139599999987
 10
190.31661199999976
 20
-90.72778399999986
 10
190.53530599999976
 20
-90.78544199999986
 10
190.75399999999976
 20
-90.84487799999985
 10
190.97243999999978
 20
-90.90609199999984
 10
191.19037199999977
 20
-90.96933799999985
 10
191.40754199999978
 20
-91.03486999999986
 10
191.62394999999975
 20
-91.10294199999984
 10
191.83934199999976
 20
-91.17355399999985
 10
192.05346399999974
 20
-91.24721399999986
 10
192.26606199999975
 20
-91.32392199999985
 10
192.47688199999973
 20
-91.40393199999986
 10
192.68592399999974
 20
-91.48749799999986
 10
192.89267999999973
 20
-91.57461999999987
 10
193.09714999999971
 20
-91.66580599999986
 10
193.29907999999972
 20
-91.76105599999985
 10
193.4982159999997
 20
-91.86062399999986
 10
193.69455799999972
 20
-91.96476399999986
 10
193.8878519999997
 20
-92.07372999999986
 10
194.0775899999997
 20
-92.18752199999986
 10
194.26377199999968
 20
-92.30639399999986
 10
194.4463979999997
 20
-92.43085399999985
 10
194.62495999999967
 20
-92.56064799999987
 10
194.7994579999997
 20
-92.69628399999986
 10
194.96938399999968
 20
-92.83801599999987
 10
195.1347379999997
 20
-92.98584399999986
 10
195.2955199999997
 20
-93.14002199999987
 10
195.4512219999997
 20
-93.30080399999986
 10
195.6015899999997
 20
-93.46844399999986
 10
195.7466239999997
 20
-93.64319599999986
 10
195.9168039999997
 20
-93.86722399999987
 10
196.0750459999997
 20
-94.09709399999986
 10
196.22185799999968
 20
-94.33280599999986
 10
196.3574939999997
 20
-94.57410599999986
 10
196.4822079999997
 20
-94.82048599999986
 10
196.59650799999972
 20
-95.07194599999987
 10
196.7006479999997
 20
-95.32797799999986
 10
196.7948819999997
 20
-95.58858199999986
 10
196.87971799999968
 20
-95.85324999999986
 10
196.9554099999997
 20
-96.12172799999986
 10
197.02246599999967
 20
-96.39376199999987
 10
197.08113999999966
 20
-96.66935199999986
 10
197.13168599999966
 20
-96.94798999999986
 10
197.17461199999966
 20
-97.22942199999986
 10
197.21017199999966
 20
-97.51339399999986
 10
197.23861999999966
 20
-97.79965199999987
 10
197.26046399999964
 20
-98.08794199999986
 10
197.27595799999966
 20
-98.37775599999986
 10
197.28535599999967
 20
-98.66909399999986
 10
197.28916599999965
 20
-98.96170199999986
 10
197.28764199999966
 20
-99.25507199999986
 10
197.28129199999967
 20
-99.54920399999985
 10
197.27036999999967
 20
-99.84384399999986
 10
197.2551299999997
 20
-100.13848399999986
 10
197.23607999999967
 20
-100.43312399999988
 10
197.21347399999968
 20
-100.72725599999988
 10
197.18756599999966
 20
-101.02062599999987
 10
197.15886399999965
 20
-101.31297999999987
 10
197.12762199999963
 20
-101.60431799999986
 10
197.09434799999966
 20
-101.89413199999987
 10
197.05904199999966
 20
-102.18216799999988
 10
197.02246599999964
 20
-102.46817199999987
 10
196.90105399999968
 20
-103.37723799999988
 10
196.77913399999966
 20
-104.25556999999988
 10
196.65619799999965
 20
-105.10469199999989
 10
196.53199199999963
 20
-105.92688999999989
 10
196.40600799999964
 20
-106.72419599999989
 10
196.27799199999964
 20
-107.49838799999989
 10
196.14768999999964
 20
-108.25149799999988
 10
196.01484799999963
 20
-108.98530399999989
 10
195.87921199999963
 20
-109.7020919999999
 10
195.74027399999963
 20
-110.4036399999999
 10
195.5977799999996
 20
-111.0919799999999
 10
195.45147599999962
 20
-111.76914399999988
 10
195.30085399999962
 20
-112.4369099999999
 10
195.1459139999996
 20
-113.0973099999999
 10
194.9858939999996
 20
-113.7523759999999
 10
194.8207939999996
 20
-114.4041399999999
 10
194.6503599999996
 20
-115.0546339999999
 10
194.4740839999996
 20
-115.70563599999988
 10
194.29171199999962
 20
-116.35917799999987
 10
194.10273599999962
 20
-117.01729199999988
 10
193.90690199999963
 20
-117.68200999999989
 10
193.70420999999962
 20
-118.35510999999988
 10
193.49389799999963
 20
-119.03862399999987
 10
193.27596599999964
 20
-119.73458399999987
 10
193.04990599999965
 20
-120.44502199999988
 10
192.81546399999965
 20
-121.17171599999988
 10
192.57238599999965
 20
-121.91669799999988
 10
192.32041799999968
 20
-122.68199999999987
 10
192.05905199999967
 20
-123.46965399999988
 10
191.78803399999967
 20
-124.28143799999988
 10
191.50685599999966
 20
-125.11938399999987
 10
191.21551799999966
 20
-125.98552399999988
 10
191.17462399999968
 20
-126.09906199999988
 10
191.12966599999967
 20
-126.21005999999988
 10
191.08064399999967
 20
-126.31826399999989
 10
191.02781199999967
 20
-126.42367399999989
 10
190.9711699999997
 20
-126.52628999999989
 10
190.91071799999966
 20
-126.62585799999988
 10
190.8467099999997
 20
-126.72237799999988
 10
190.77914599999968
 20
-126.81584999999988
 10
190.7082799999997
 20
-126.90601999999988
 10
190.6341119999997
 20
-126.99288799999988
 10
190.5568959999997
 20
-127.07645399999988
 10
190.47663199999968
 20
-127.15646399999989
 10
190.3935739999997
 20
-127.23291799999988
 10
190.3077219999997
 20
-127.30581599999988
 10
190.2193299999997
 20
-127.37490399999987
 10
190.12839799999972
 20
-127.44018199999988
 10
190.0349259999997
 20
-127.50164999999988
 10
189.9391679999997
 20
-127.55930799999987
 10
189.84112399999972
 20
-127.61290199999988
 10
189.74104799999972
 20
-127.66217799999988
 10
189.6389399999997
 20
-127.70738999999988
 10
189.53505399999972
 20
-127.74828399999988
 10
189.4293899999997
 20
-127.78485999999988
 10
189.3222019999997
 20
-127.81686399999987
 10
189.2134899999997
 20
-127.84454999999987
 10
189.1035079999997
 20
-127.86740999999986
 10
188.9922559999997
 20
-127.88569799999986
 10
188.8797339999997
 20
-127.89915999999987
 10
188.7661959999997
 20
-127.90779599999986
 10
188.6516419999997
 20
-127.91160599999986
 10
188.53632599999972
 20
-127.91033599999986
 10
188.42050199999971
 20
-127.90398599999986
 10
188.39383199999972
 20
-127.90195399999988
 10
188.3671619999997
 20
-127.89992199999988
 10
188.3404919999997
 20
-127.89788999999988
 10
188.3138219999997
 20
-127.89585799999988
 10
188.28715199999968
 20
-127.89382599999989
 10
188.26048199999968
 20
-127.89179399999989
 10
188.2338119999997
 20
-127.88976199999989
 10
188.20714199999966
 20
-127.8877299999999
 10
188.18047199999967
 20
-127.8856979999999
 10
188.15380199999967
 20
-127.8836659999999
 10
188.12713199999965
 20
-127.88163399999992
 10
188.10046199999965
 20
-127.87960199999992
 10
188.07379199999966
 20
-127.87756999999992
 10
188.04712199999963
 20
-127.87553799999993
 10
188.02045199999964
 20
-127.87350599999994
 10
187.99378199999964
 20
-127.87147399999994
 10
187.96711199999964
 20
-127.86944199999995
 10
187.94044199999962
 20
-127.86740999999995
 10
187.9140259999996
 20
-127.86537799999995
 10
187.8876099999996
 20
-127.86334599999996
 10
187.86119399999959
 20
-127.86131399999996
 10
187.83477799999957
 20
-127.85928199999996
 10
187.80836199999956
 20
-127.85724999999998
 10
187.78194599999955
 20
-127.85521799999998
 10
187.75552999999957
 20
-127.85293199999997
 10
187.72911399999956
 20
-127.85064599999997
 10
187.70295199999956
 20
-127.84835999999997
 10
187.67678999999956
 20
-127.84607399999996
 10
187.65062799999959
 20
-127.84378799999996
 10
187.6244659999996
 20
-127.84150199999995
 10
187.59830399999962
 20
-127.83921599999995
 10
187.57214199999962
 20
-127.83692999999995
 10
187.51829399999963
 20
-127.83134199999995
 10
187.4649539999996
 20
-127.82372199999996
 10
187.4121219999996
 20
-127.81406999999996
 10
187.3597979999996
 20
-127.80263999999995
 10
187.3079819999996
 20
-127.78917799999995
 10
187.25692799999962
 20
-127.77393799999994
 10
187.20638199999962
 20
-127.75691999999995
 10
187.15659799999963
 20
-127.73786999999996
 10
187.10757599999963
 20
-127.71704199999995
 10
187.05956999999964
 20
-127.69443599999995
 10
187.01232599999963
 20
-127.67030599999994
 10
186.96609799999962
 20
-127.64439799999995
 10
186.92063199999964
 20
-127.61696599999995
 10
186.87643599999964
 20
-127.58775599999996
 10
186.83325599999964
 20
-127.55702199999996
 10
186.79109199999962
 20
-127.52476399999995
 10
186.75019799999964
 20
-127.49098199999996
 10
186.71031999999963
 20
-127.45567599999995
 10
186.67171199999962
 20
-127.41884599999996
 10
186.63462799999965
 20
-127.38049199999996
 10
186.59881399999963
 20
-127.34061399999996
 10
186.56426999999965
 20
-127.29946599999997
 10
186.53124999999966
 20
-127.25704799999997
 10
186.49975399999965
 20
-127.21310599999997
 10
186.46978199999964
 20
-127.16789399999998
 10
186.44133399999964
 20
-127.12141199999998
 10
186.41466399999965
 20
-127.07365999999998
 10
186.38951799999964
 20
-127.02489199999998
 10
186.36614999999964
 20
-126.97485399999998
 10
186.34455999999963
 20
-126.92379999999997
 10
186.32474799999963
 20
-126.87147599999996
 10
186.3069679999996
 20
-126.81813599999997
 10
186.27597999999963
 20
-126.72390199999998
 10
186.24245199999964
 20
-126.63042999999998
 10
186.20638399999962
 20
-126.53771999999998
 10
186.1677759999996
 20
-126.44602599999997
 10
186.1266279999996
 20
-126.35534799999996
 10
186.0831939999996
 20
-126.26568599999997
 10
186.0374739999996
 20
-126.17703999999998
 10
185.98946799999962
 20
-126.08966399999997
 10
185.93917599999963
 20
-126.00355799999997
 10
185.88659799999962
 20
-125.91872199999997
 10
185.83198799999963
 20
-125.83540999999998
 10
185.77534599999962
 20
-125.75362199999998
 10
185.71667199999962
 20
-125.67335799999998
 10
185.6559659999996
 20
-125.59461799999998
 10
185.59322799999964
 20
-125.51765599999999
 10
185.52871199999962
 20
-125.44247199999998
 10
185.46241799999964
 20
-125.36906599999999
 10
185.39434599999962
 20
-125.297438
 10
185.32449599999964
 20
-125.227842
 10
185.25312199999965
 20
-125.16027799999999
 10
185.18022399999964
 20
-125.09499999999998
 10
185.10580199999964
 20
-125.03175399999998
 10
185.02985599999965
 20
-124.97079399999998
 10
184.95238599999965
 20
-124.91211999999999
 10
184.87364599999967
 20
-124.85598599999997
 10
184.79363599999965
 20
-124.80213799999999
 10
184.71235599999963
 20
-124.75082999999998
 10
184.62980599999963
 20
-124.702316
 10
184.54598599999963
 20
-124.656342
 10
184.46114999999963
 20
-124.61316199999999
 10
184.37529799999965
 20
-124.57277599999999
 10
184.28842999999964
 20
-124.53518399999999
 10
184.17616199999964
 20
-124.49047999999999
 10
184.06490999999966
 20
-124.449332
 10
183.95467399999964
 20
-124.411486
 10
183.84519999999964
 20
-124.37694199999999
 10
183.73648799999964
 20
-124.3457
 10
183.62853799999965
 20
-124.31725199999998
 10
183.52109599999966
 20
-124.29185199999998
 10
183.41416199999964
 20
-124.26899199999998
 10
183.30773599999964
 20
-124.24892599999998
 10
183.20181799999963
 20
-124.23114599999998
 10
183.09615399999961
 20
-124.21565199999999
 10
182.99048999999962
 20
-124.20244399999999
 10
182.88507999999962
 20
-124.191268
 10
182.77966999999964
 20
-124.18212399999999
 10
182.67400599999962
 20
-124.17475799999998
 10
182.56808799999962
 20
-124.16891599999998
 10
182.46216999999962
 20
-124.16459799999998
 10
182.35574399999962
 20
-124.16180399999998
 10
182.2488099999996
 20
-124.16002599999997
 10
182.1413679999996
 20
-124.15951799999998
 10
182.0334179999996
 20
-124.16002599999997
 10
181.92470599999962
 20
-124.16129599999998
 10
181.81523199999958
 20
-124.16332799999996
 10
181.7049959999996
 20
-124.16586799999997
 10
181.59374399999962
 20
-124.16891599999997
 10
181.48147599999962
 20
-124.17221799999996
 10
181.3679379999996
 20
-124.17551999999996
 10
181.2531299999996
 20
-124.17882199999995
 10
181.1370519999996
 20
-124.18212399999994
 10
181.01970399999962
 20
-124.18517199999995
 10
180.9008319999996
 20
-124.18771199999995
 10
180.7804359999996
 20
-124.18974399999993
 10
180.43448799999962
 20
-124.19507799999994
 10
180.08853999999963
 20
-124.20041199999994
 10
179.74259199999963
 20
-124.20549199999994
 10
179.39664399999964
 20
-124.21057199999994
 10
179.05069599999965
 20
-124.21565199999993
 10
178.70474799999965
 20
-124.22073199999993
 10
178.35879999999966
 20
-124.22581199999992
 10
178.01285199999967
 20
-124.23089199999991
 10
177.66690399999968
 20
-124.23597199999992
 10
177.32095599999968
 20
-124.24105199999991
 10
176.9750079999997
 20
-124.2461319999999
 10
176.6290599999997
 20
-124.2512119999999
 10
176.28311199999973
 20
-124.25629199999989
 10
175.93716399999974
 20
-124.2613719999999
 10
175.59121599999975
 20
-124.26645199999989
 10
175.24526799999975
 20
-124.27153199999988
 10
174.89931999999976
 20
-124.27661199999987
 10
174.55337199999977
 20
-124.28194599999988
 10
174.20742399999978
 20
-124.28727999999988
 10
173.86147599999978
 20
-124.29261399999989
 10
173.5155279999998
 20
-124.29794799999989
 10
173.1695799999998
 20
-124.3032819999999
 10
172.8236319999998
 20
-124.3086159999999
 10
172.4776839999998
 20
-124.3139499999999
 10
172.13173599999982
 20
-124.31928399999991
 10
171.78578799999983
 20
-124.32461799999992
 10
171.43983999999983
 20
-124.32995199999992
 10
171.09389199999984
 20
-124.33528599999993
 10
170.74794399999985
 20
-124.34061999999992
 10
170.40199599999985
 20
-124.34595399999992
 10
170.05604799999986
 20
-124.35128799999993
 10
169.71009999999987
 20
-124.35662199999993
 10
169.6265339999999
 20
-124.35839999999993
 10
169.54144399999987
 20
-124.36068599999994
 10
169.45482999999987
 20
-124.36347999999994
 10
169.36694599999987
 20
-124.36652799999995
 10
169.2777919999999
 20
-124.36957599999995
 10
169.1876219999999
 20
-124.37236999999995
 10
169.09668999999988
 20
-124.37490999999994
 10
169.0049959999999
 20
-124.37694199999994
 10
168.91279399999988
 20
-124.37821199999995
 10
168.82033799999988
 20
-124.37846599999993
 10
168.72762799999987
 20
-124.37744999999994
 10
168.63466399999987
 20
-124.37516399999993
 10
168.54195399999986
 20
-124.37135399999993
 10
168.44949799999986
 20
-124.36576599999994
 10
168.35729599999985
 20
-124.35814599999995
 10
168.26560199999986
 20
-124.34849399999995
 10
168.17466999999985
 20
-124.33655599999993
 10
168.08475399999986
 20
-124.32207799999993
 10
167.99585399999984
 20
-124.30480599999993
 10
167.90796999999984
 20
-124.28473999999993
 10
167.82135599999984
 20
-124.26137199999994
 10
167.73626599999983
 20
-124.23470199999993
 10
167.65295399999985
 20
-124.20447599999993
 10
167.57141999999985
 20
-124.17043999999991
 10
167.49166399999984
 20
-124.13259399999991
 10
167.41419399999987
 20
-124.09068399999991
 10
167.33875599999985
 20
-124.04445599999991
 10
167.26585799999984
 20
-123.99365599999992
 10
167.19549999999984
 20
-123.93802999999991
 10
167.12793599999983
 20
-123.87757799999991
 10
167.06316599999985
 20
-123.81204599999992
 10
167.00144399999982
 20
-123.74117999999991
 10
166.91711599999982
 20
-123.62967399999991
 10
166.84193199999982
 20
-123.5138499999999
 10
166.77538399999983
 20
-123.39396199999992
 10
166.71747199999984
 20
-123.27000999999991
 10
166.66743399999984
 20
-123.14250199999991
 10
166.62501599999985
 20
-123.01169199999991
 10
166.58996399999984
 20
-122.87783399999992
 10
166.56176999999983
 20
-122.74092799999993
 10
166.54017999999982
 20
-122.60148199999993
 10
166.5246859999998
 20
-122.45974999999993
 10
166.51503399999982
 20
-122.31598599999994
 10
166.5107159999998
 20
-122.17069799999993
 10
166.5114779999998
 20
-122.02388599999995
 10
166.5168119999998
 20
-121.87580399999993
 10
166.5264639999998
 20
-121.72670599999994
 10
166.5399259999998
 20
-121.57684599999995
 10
166.5569439999998
 20
-121.42673199999994
 10
166.57700999999977
 20
-121.27636399999994
 10
166.59986999999978
 20
-121.12624999999994
 10
166.62501599999982
 20
-120.97638999999995
 10
166.6521939999998
 20
-120.82729199999996
 10
166.68089599999982
 20
-120.67920999999994
 10
166.71086799999983
 20
-120.53214399999995
 10
166.74160199999983
 20
-120.38660199999995
 10
166.77284399999982
 20
-120.24283799999995
 10
166.80408599999984
 20
-120.10110599999996
 10
166.83507399999982
 20
-119.96165999999997
 10
166.86529999999985
 20
-119.82475399999997
 10
166.89450999999985
 20
-119.69064199999997
 10
166.92244999999986
 20
-119.55957799999996
 10
166.94835799999984
 20
-119.43181599999996
 10
166.97223399999984
 20
-119.30786399999997
 10
167.09720199999984
 20
-118.63958999999997
 10
167.21962999999982
 20
-118.00179599999996
 10
167.33951799999983
 20
-117.39270399999995
 10
167.45737399999985
 20
-116.81002799999996
 10
167.57345199999983
 20
-116.25198999999996
 10
167.68825999999984
 20
-115.71655799999996
 10
167.80179799999985
 20
-115.20169999999996
 10
167.91457399999985
 20
-114.70538399999995
 10
168.02709599999983
 20
-114.22557799999996
 10
168.13936399999983
 20
-113.76050399999995
 10
168.2518859999998
 20
-113.30787599999995
 10
168.36491599999985
 20
-112.86591599999996
 10
168.47896199999983
 20
-112.43259199999996
 10
168.5942779999998
 20
-112.00587199999995
 10
168.71111799999983
 20
-111.58372399999996
 10
168.82973599999983
 20
-111.16411599999996
 10
168.95063999999982
 20
-110.74501599999996
 10
169.07382999999982
 20
-110.32439199999996
 10
169.20006799999982
 20
-109.90046599999997
 10
169.32935399999982
 20
-109.47095199999997
 10
169.46219599999984
 20
-109.03407199999997
 10
169.59884799999983
 20
-108.58779399999996
 10
169.73956399999983
 20
-108.13008599999996
 10
169.88485199999982
 20
-107.65891599999995
 10
170.03496599999983
 20
-107.17250599999996
 10
170.19015999999982
 20
-106.66856999999996
 10
170.35094199999983
 20
-106.14507599999996
 10
170.51756599999982
 20
-105.60024599999997
 10
170.69028599999982
 20
-105.03204799999996
 10
170.8693559999998
 20
-104.43844999999996
 10
171.0552839999998
 20
-103.81741999999996
 10
171.2483239999998
 20
-103.16692599999998
 10
171.3036959999998
 20
-102.97998199999996
 10
171.35906799999978
 20
-102.79303799999997
 10
171.4146939999998
 20
-102.60634799999997
 10
171.4705739999998
 20
-102.41965799999997
 10
171.5264539999998
 20
-102.23296799999996
 10
171.58258799999982
 20
-102.04627799999996
 10
171.63897599999981
 20
-101.85984199999996
 10
171.6953639999998
 20
-101.67340599999997
 10
171.7520059999998
 20
-101.48696999999997
 10
171.8089019999998
 20
-101.30053399999998
 10
171.8657979999998
 20
-101.11409799999998
 10
171.92294799999982
 20
-100.92791599999998
 10
171.9803519999998
 20
-100.74173399999998
 10
172.03775599999983
 20
-100.55555199999998
 10
172.0954139999998
 20
-100.36936999999998
 10
172.1533259999998
 20
-100.18344199999997
 10
172.21123799999978
 20
-99.99751399999997
 10
172.2694039999998
 20
-99.81158599999996
 10
172.3278239999998
 20
-99.62565799999996
 10
172.3862439999998
 20
-99.43972999999994
 10
172.4449179999998
 20
-99.25405599999995
 10
172.5038459999998
 20
-99.06838199999994
 10
172.5627739999998
 20
-98.88270799999995
 10
172.62195599999978
 20
-98.69703399999995
 10
172.6813919999998
 20
-98.51161399999995
 10
172.7408279999998
 20
-98.32619399999994
 10
172.8005179999998
 20
-98.14077399999994
 10
172.8604619999998
 20
-97.95535399999993
 10
172.9204059999998
 20
-97.77018799999993
 10
172.9806039999998
 20
-97.58502199999994
 10
173.0410559999998
 20
-97.39985599999994
 10
173.10150799999982
 20
-97.21468999999995
 10
173.15891199999982
 20
-97.03790599999994
 10
173.21580799999984
 20
-96.85985199999993
 10
173.27219599999984
 20
-96.68078199999994
 10
173.32832999999982
 20
-96.50094999999993
 10
173.38395599999984
 20
-96.32010199999993
 10
173.43932799999982
 20
-96.13874599999994
 10
173.49469999999982
 20
-95.95662799999994
 10
173.5500719999998
 20
-95.77400199999994
 10
173.6054439999998
 20
-95.59086799999994
 10
173.66081599999978
 20
-95.40747999999995
 10
173.7164419999998
 20
-95.22383799999994
 10
173.7723219999998
 20
-95.03994199999994
 10
173.82845599999982
 20
-94.85604599999995
 10
173.8850979999998
 20
-94.67214999999995
 10
173.9422479999998
 20
-94.48825399999996
 10
174.0001599999998
 20
-94.30461199999995
 10
174.0585799999998
 20
-94.12122399999996
 10
174.11776199999977
 20
-93.93834399999994
 10
174.17795999999979
 20
-93.75597199999994
 10
174.23891999999978
 20
-93.57410799999994
 10
174.3008959999998
 20
-93.39300599999993
 10
174.3641419999998
 20
-93.21266599999994
 10
174.4284039999998
 20
-93.03308799999994
 10
174.49393599999982
 20
-92.85452599999995
 10
174.5609919999998
 20
-92.67697999999994
 10
174.6293179999998
 20
-92.50044999999994
 10
174.69916799999982
 20
-92.32518999999995
 10
174.77079599999982
 20
-92.15119999999995
 10
174.8439479999998
 20
-91.97873399999995
 10
174.9188779999998
 20
-91.80779199999995
 10
174.99583999999982
 20
-91.63837399999996
 10
175.0745799999998
 20
-91.47073399999995
  0
ENDSEC
  0
SECTION
  2
OBJECTS
  0
DICTIONARY
  5
A
330
0
100
AcDbDictionary
281
1
  3
ACAD_COLOR
350
B
  3
ACAD_GROUP
350
C
  3
ACAD_LAYOUT
350
D
  3
ACAD_MATERIAL
350
E
  3
ACAD_MLEADERSTYLE
350
F
  3
ACAD_MLINESTYLE
350
10
  3
ACAD_PLOTSETTINGS
350
11
  3
ACAD_PLOTSTYLENAME
350
12
  3
ACAD_SCALELIST
350
14
  3
ACAD_TABLESTYLE
350
15
  3
ACAD_VISUALSTYLE
350
16
  3
EZDXF_META
350
2D
  0
DICTIONARY
  5
B
330
A
100
AcDbDictionary
281
1
  0
DICTIONARY
  5
C
330
A
100
AcDbDictionary
281
1
  0
DICTIONARY
  5
D
330
A
100
AcDbDictionary
281
1
  3
Model
350
1A
  3
Layout1
350
1E
  0
DICTIONARY
  5
E
330
A
100
AcDbDictionary
281
1
  3
ByBlock
350
1F
  3
ByLayer
350
20
  3
Global
350
21
  0
DICTIONARY
  5
F
330
A
100
AcDbDictionary
281
1
  3
Standard
350
2C
  0
DICTIONARY
  5
10
330
A
100
AcDbDictionary
281
1
  3
Standard
350
22
  0
DICTIONARY
  5
11
330
A
100
AcDbDictionary
281
1
  0
ACDBDICTIONARYWDFLT
  5
12
330
A
100
AcDbDictionary
281
1
  3
Normal
350
13
100
AcDbDictionaryWithDefault
340
13
  0
ACDBPLACEHOLDER
  5
13
330
12
  0
DICTIONARY
  5
14
330
A
100
AcDbDictionary
281
1
  0
DICTIONARY
  5
15
330
A
100
AcDbDictionary
281
1
  0
DICTIONARY
  5
16
330
A
100
AcDbDictionary
281
1
  0
LAYOUT
  5
1A
330
D
100
AcDbPlotSettings
  1

  4
A3
  6

 40
7.5
 41
20.0
 42
7.5
 43
20.0
 44
420.0
 45
297.0
 46
0.0
 47
0.0
 48
0.0
 49
0.0
140
0.0
141
0.0
142
1.0
143
1.0
 70
1024
 72
1
 73
0
 74
5
  7

 75
16
 76
0
 77
2
 78
300
147
1.0
148
0.0
149
0.0
100
AcDbLayout
  1
Model
 70
1
 71
0
 10
0.0
 20
0.0
 11
420.0
 21
297.0
 12
0.0
 22
0.0
 32
0.0
 14
1e+20
 24
1e+20
 34
1e+20
 15
-1e+20
 25
-1e+20
 35
-1e+20
146
0.0
 13
0.0
 23
0.0
 33
0.0
 16
1.0
 26
0.0
 36
0.0
 17
0.0
 27
1.0
 37
0.0
 76
1
330
17
  0
LAYOUT
  5
1E
330
D
100
AcDbPlotSettings
  1

  4
A3
  6

 40
7.5
 41
20.0
 42
7.5
 43
20.0
 44
420.0
 45
297.0
 46
0.0
 47
0.0
 48
0.0
 49
0.0
140
0.0
141
0.0
142
1.0
143
1.0
 70
0
 72
1
 73
0
 74
5
  7

 75
16
 76
0
 77
2
 78
300
147
1.0
148
0.0
149
0.0
100
AcDbLayout
  1
Layout1
 70
1
 71
1
 10
0.0
 20
0.0
 11
420.0
 21
297.0
 12
0.0
 22
0.0
 32
0.0
 14
1e+20
 24
1e+20
 34
1e+20
 15
-1e+20
 25
-1e+20
 35
-1e+20
146
0.0
 13
0.0
 23
0.0
 33
0.0
 16
1.0
 26
0.0
 36
0.0
 17
0.0
 27
1.0
 37
0.0
 76
1
330
1B
  0
MATERIAL
  5
1F
102
{ACAD_REACTORS
330
E
102
}
330
E
100
AcDbMaterial
  1
ByBlock
  2

 70
0
 40
1.0
 71
1
 41
1.0
 91
-1023410177
 42
1.0
 72
1
  3

 73
1
 74
1
 75
1
 44
0.5
 73
0
 45
1.0
 46
1.0
 77
1
  4

 78
1
 79
1
170
1
 48
1.0
171
1
  6

172
1
173
1
174
1
140
1.0
141
1.0
175
1
  7

176
1
177
1
178
1
143
1.0
179
1
  8

270
1
271
1
272
1
145
1.0
146
1.0
273
1
  9

274
1
275
1
276
1
 42
1.0
 72
1
  3

 73
1
 74
1
 75
1
 94
63
  0
MATERIAL
  5
20
102
{ACAD_REACTORS
330
E
102
}
330
E
100
AcDbMaterial
  1
ByLayer
  2

 70
0
 40
1.0
 71
1
 41
1.0
 91
-1023410177
 42
1.0
 72
1
  3

 73
1
 74
1
 75
1
 44
0.5
 73
0
 45
1.0
 46
1.0
 77
1
  4

 78
1
 79
1
170
1
 48
1.0
171
1
  6

172
1
173
1
174
1
140
1.0
141
1.0
175
1
  7

176
1
177
1
178
1
143
1.0
179
1
  8

270
1
271
1
272
1
145
1.0
146
1.0
273
1
  9

274
1
275
1
276
1
 42
1.0
 72
1
  3

 73
1
 74
1
 75
1
 94
63
  0
MATERIAL
  5
21
102
{ACAD_REACTORS
330
E
102
}
330
E
100
AcDbMaterial
  1
Global
  2

 70
0
 40
1.0
 71
1
 41
1.0
 91
-1023410177
 42
1.0
 72
1
  3

 73
1
 74
1
 75
1
 44
0.5
 73
0
 45
1.0
 46
1.0
 77
1
  4

 78
1
 79
1
170
1
 48
1.0
171
1
  6

172
1
173
1
174
1
140
1.0
141
1.0
175
1
  7

176
1
177
1
178
1
143
1.0
179
1
  8

270
1
271
1
272
1
145
1.0
146
1.0
273
1
  9

274
1
275
1
276
1
 42
1.0
 72
1
  3

 73
1
 74
1
 75
1
 94
63
  0
MLINESTYLE
  5
22
102
{ACAD_REACTORS
330
10
102
}
330
10
100
AcDbMlineStyle
  2
Standard
 70
0
  3

 62
256
 51
90.0
 52
90.0
 71
2
 49
0.5
 62
256
  6
BYLAYER
 49
-0.5
 62
256
  6
BYLAYER
  0
MLEADERSTYLE
  5
2C
102
{ACAD_REACTORS
330
F
102
}
330
F
100
AcDbMLeaderStyle
179
2
170
2
171
1
172
0
 90
2
 40
0.0
 41
0.0
173
1
 91
-1056964608
 92
-2
290
1
 42
2.0
291
1
 43
8.0
  3
Standard
 44
4.0
300

342
29
174
1
175
1
176
0
178
1
 93
-1056964608
 45
4.0
292
0
297
0
 46
4.0
 94
-1056964608
 47
1.0
 49
1.0
140
1.0
294
1
141
0.0
177
0
142
1.0
295
0
296
0
143
3.75
271
0
272
9
273
9
  0
DICTIONARY
  5
2D
330
A
100
AcDbDictionary
280
1
281
1
  3
CREATED_BY_EZDXF
350
2E
  3
WRITTEN_BY_EZDXF
350
3A
  0
DICTIONARYVAR
  5
2E
330
2D
100
DictionaryVariables
280
0
  1
1.4.3 @ 2026-04-08T01:02:28.771695+00:00
  0
DICTIONARYVAR
  5
3A
330
2D
100
DictionaryVariables
280
0
  1
1.4.3 @ 2026-04-09T21:09:48.666308+00:00
  0
ENDSEC
  0
EOF
