999
Dxf file generated by netDxf http://netdxf.codeplex.com, Copyright(C) 2015 Daniel Carvajal, Licensed under LGPL
0
SECTION
2
HEADER
9
$ACADVER
1
AC1015
9
$DWGCODEPAGE
3
ANSI_1252
9
$HANDSEED
5
AA
9
$ANGBASE
50
0.0
9
$ANGDIR
70
0
9
$ATTMODE
70
1
9
$AUNITS
70
0
9
$AUPREC
70
0
9
$CECOLOR
62
256
9
$CELTSCALE
40
1.0
9
$CELTYPE
6
ByLayer
9
$CELWEIGHT
370
-1
9
$CLAYER
8
0
9
$CMLJUST
70
0
9
$CMLSCALE
40
20.0
9
$CMLSTYLE
2
Standard
9
$DIMSTYLE
2
Standard
9
$TEXTSIZE
40
2.5
9
$TEXTSTYLE
7
Standard
9
$LUNITS
70
2
9
$LUPREC
70
4
9
$EXTNAMES
290
1
9
$INSBASE
10
0.0
20
0.0
30
0.0
9
$INSUNITS
70
0
9
$LTSCALE
40
1.0
9
$LWDISPLAY
290
0
9
$PDMODE
70
0
9
$PDSIZE
40
0.0
9
$PLINEGEN
70
0
9
$TDCREATE
40
2461141.65653138
9
$TDUCREATE
40
2461141.94819804
9
$TDUPDATE
40
2461141.65653138
9
$TDUUPDATE
40
2461141.94819804
9
$TDINDWG
40
0.0
0
ENDSEC
0
SECTION
2
CLASSES
0
CLASS
1
RASTERVARIABLES
2
AcDbRasterVariables
3
ISM
90
0
280
0
281
0
0
ENDSEC
0
SECTION
2
TABLES
0
TABLE
2
APPID
5
3
330
0
100
AcDbSymbolTable
70
2
0
APPID
5
14
330
3
100
AcDbSymbolTableRecord
100
AcDbRegAppTableRecord
2
ACAD
70
0
0
APPID
5
A4
330
3
100
AcDbSymbolTableRecord
100
AcDbRegAppTableRecord
2
AcCmTransparency
70
0
0
ENDTAB
0
TABLE
2
VPORT
5
1
330
0
100
AcDbSymbolTable
70
1
0
VPORT
5
E
330
1
100
AcDbSymbolTableRecord
100
AcDbViewportTableRecord
2
*Active
70
0
10
0.0
20
0.0
11
1.0
21
1.0
12
-1.0
22
1.0
13
0.0
23
0.0
14
0.5
24
0.5
15
10.0
25
10.0
16
0.0
26
0.0
36
1.0
17
0.0
27
0.0
37
0.0
0
ENDTAB
0
TABLE
2
LTYPE
5
5
330
0
100
AcDbSymbolTable
70
3
0
LTYPE
5
10
330
5
100
AcDbSymbolTableRecord
100
AcDbLinetypeTableRecord
70
0
2
Continuous
3
Solid line
72
65
73
0
40
0.0
0
LTYPE
5
11
330
5
100
AcDbSymbolTableRecord
100
AcDbLinetypeTableRecord
70
0
2
ByLayer
3

72
65
73
0
40
0.0
0
LTYPE
5
12
330
5
100
AcDbSymbolTableRecord
100
AcDbLinetypeTableRecord
70
0
2
ByBlock
3

72
65
73
0
40
0.0
0
ENDTAB
0
TABLE
2
LAYER
5
4
330
0
100
AcDbSymbolTable
70
1
0
LAYER
5
F
330
4
100
AcDbSymbolTableRecord
100
AcDbLayerTableRecord
2
0
70
0
62
5
6
Continuous
290
1
370
-3
390
0
0
ENDTAB
0
TABLE
2
STYLE
5
6
330
0
100
AcDbSymbolTable
70
1
0
STYLE
5
13
330
6
100
AcDbSymbolTableRecord
100
AcDbTextStyleTableRecord
2
Standard
3
simplex.shx
70
0
71
0
40
0.0
41
1.0
42
0.0
50
0.0
0
ENDTAB
0
TABLE
2
DIMSTYLE
5
7
330
0
100
AcDbSymbolTable
70
1
100
AcDbDimStyleTable
0
DIMSTYLE
105
15
330
7
100
AcDbSymbolTableRecord
100
AcDbDimStyleTableRecord
2
Standard
70
0
3
<>
40
1.0
41
0.18
42
0.0625
43
0.38
44
0.18
46
0.0
73
0
74
0
75
0
76
0
77
1
140
0.18
141
0.09
147
0.09
173
0
176
0
177
0
178
0
179
0
271
2
275
0
278
46
280
0
340
13
345
12
346
12
347
12
371
-2
372
-2
0
ENDTAB
0
TABLE
2
VIEW
5
2
330
0
100
AcDbSymbolTable
70
0
0
ENDTAB
0
TABLE
2
UCS
5
9
330
0
100
AcDbSymbolTable
70
0
0
ENDTAB
0
TABLE
2
BLOCK_RECORD
5
A
330
0
100
AcDbSymbolTable
70
2
0
BLOCK_RECORD
5
17
330
A
100
AcDbSymbolTableRecord
100
AcDbBlockTableRecord
2
*Model_Space
340
1B
0
BLOCK_RECORD
5
9E
330
A
100
AcDbSymbolTableRecord
100
AcDbBlockTableRecord
2
*Paper_Space
340
A3
0
ENDTAB
0
ENDSEC
0
SECTION
2
BLOCKS
0
BLOCK
5
19
330
17
100
AcDbEntity
8
0
100
AcDbBlockBegin
2
*Model_Space
70
0
10
0.0
20
0.0
30
0.0
3
*Model_Space
0
ENDBLK
5
18
330
17
100
AcDbEntity
8
0
100
AcDbBlockEnd
0
BLOCK
5
A0
330
9E
100
AcDbEntity
8
0
100
AcDbBlockBegin
2
*Paper_Space
70
0
10
0.0
20
0.0
30
0.0
3
*Paper_Space
0
ENDBLK
5
9F
330
9E
100
AcDbEntity
8
0
100
AcDbBlockEnd
0
ENDSEC
0
SECTION
2
ENTITIES
0
LINE
5
1D
330
17
100
AcDbEntity
67
0
8
0
62
256
6
ByLayer
370
-1
48
1.0
60
0
100
AcDbLine
10
27.3099994659424
20
-21.7929992675781
30
0.0
11
27.5090007781982
21
-21.9069995880127
31
0.0
39
0.0
210
0.0
220
0.0
230
1.0
0
LINE
5
1E
330
17
100
AcDbEntity
67
0
8
0
62
256
6
ByLayer
370
-1
48
1.0
60
0
100
AcDbLine
10
27.5090007781982
20
-21.9069995880127
30
0.0
11
28.5259990692139
21
-21.3199996948242
31
0.0
39
0.0
210
0.0
220
0.0
230
1.0
0
LINE
5
1F
330
17
100
AcDbEntity
67
0
8
0
62
256
6
ByLayer
370
-1
48
1.0
60
0
100
AcDbLine
10
28.5259990692139
20
-21.3199996948242
30
0.0
11
27.3719997406006
21
-21.4720001220703
31
0.0
39
0.0
210
0.0
220
0.0
230
1.0
0
LINE
5
20
330
17
100
AcDbEntity
67
0
8
0
62
256
6
ByLayer
370
-1
48
1.0
60
0
100
AcDbLine
10
27.3719997406006
20
-21.4720001220703
30
0.0
11
27.44700050354
21
-21.7210006713867
31
0.0
39
0.0
210
0.0
220
0.0
230
1.0
0
LINE
5
21
330
17
100
AcDbEntity
67
0
8
0
62
256
6
ByLayer
370
-1
48
1.0
60
0
100
AcDbLine
10
27.44700050354
20
-21.7210006713867
30
0.0
11
27.3099994659424
21
-21.7929992675781
31
0.0
39
0.0
210
0.0
220
0.0
230
1.0
0
LINE
5
22
330
17
100
AcDbEntity
67
0
8
0
62
256
6
ByLayer
370
-1
48
1.0
60
0
100
AcDbLine
10
29.7450008392334
20
-21.1590003967285
30
0.0
11
31.0400009155273
21
-21.9069995880127
31
0.0
39
0.0
210
0.0
220
0.0
230
1.0
0
LINE
5
23
330
17
100
AcDbEntity
67
0
8
0
62
256
6
ByLayer
370
-1
48
1.0
60
0
100
AcDbLine
10
31.0400009155273
20
-21.9069995880127
30
0.0
11
32.5550003051758
21
-21.0319995880127
31
0.0
39
0.0
210
0.0
220
0.0
230
1.0
0
LINE
5
24
330
17
100
AcDbEntity
67
0
8
0
62
256
6
ByLayer
370
-1
48
1.0
60
0
100
AcDbLine
10
32.5550003051758
20
-21.0319995880127
30
0.0
11
32.5550003051758
21
-20.7889995574951
31
0.0
39
0.0
210
0.0
220
0.0
230
1.0
0
LINE
5
25
330
17
100
AcDbEntity
67
0
8
0
62
256
6
ByLayer
370
-1
48
1.0
60
0
100
AcDbLine
10
32.5550003051758
20
-20.7889995574951
30
0.0
11
29.7450008392334
21
-21.1590003967285
31
0.0
39
0.0
210
0.0
220
0.0
230
1.0
0
LINE
5
26
330
17
100
AcDbEntity
67
0
8
0
62
256
6
ByLayer
370
-1
48
1.0
60
0
100
AcDbLine
10
33.9980010986328
20
-20.5990009307861
30
0.0
11
33.0550003051758
21
-20.7229995727539
31
0.0
39
0.0
210
0.0
220
0.0
230
1.0
0
LINE
5
27
330
17
100
AcDbEntity
67
0
8
0
62
256
6
ByLayer
370
-1
48
1.0
60
0
100
AcDbLine
10
33.0550003051758
20
-20.7229995727539
30
0.0
11
33.0550003051758
21
-21.0319995880127
31
0.0
39
0.0
210
0.0
220
0.0
230
1.0
0
LINE
5
28
330
17
100
AcDbEntity
67
0
8
0
62
256
6
ByLayer
370
-1
48
1.0
60
0
100
AcDbLine
10
33.0550003051758
20
-21.0319995880127
30
0.0
11
34.5390014648438
21
-21.8889999389648
31
0.0
39
0.0
210
0.0
220
0.0
230
1.0
0
LINE
5
29
330
17
100
AcDbEntity
67
0
8
0
62
256
6
ByLayer
370
-1
48
1.0
60
0
100
AcDbLine
10
34.5390014648438
20
-21.8889999389648
30
0.0
11
33.9980010986328
21
-20.5990009307861
31
0.0
39
0.0
210
0.0
220
0.0
230
1.0
0
LINE
5
2A
330
17
100
AcDbEntity
67
0
8
0
62
256
6
ByLayer
370
-1
48
1.0
60
0
100
AcDbLine
10
25.7119998931885
20
-22.6350002288818
30
0.0
11
26.5629997253418
21
-24.492000579834
31
0.0
39
0.0
210
0.0
220
0.0
230
1.0
0
LINE
5
2B
330
17
100
AcDbEntity
67
0
8
0
62
256
6
ByLayer
370
-1
48
1.0
60
0
100
AcDbLine
10
26.5629997253418
20
-24.492000579834
30
0.0
11
27.2590007781982
21
-24.0900001525879
31
0.0
39
0.0
210
0.0
220
0.0
230
1.0
0
LINE
5
2C
330
17
100
AcDbEntity
67
0
8
0
62
256
6
ByLayer
370
-1
48
1.0
60
0
100
AcDbLine
10
27.2590007781982
20
-24.0900001525879
30
0.0
11
27.2590007781982
21
-22.3400001525879
31
0.0
39
0.0
210
0.0
220
0.0
230
1.0
0
LINE
5
2D
330
17
100
AcDbEntity
67
0
8
0
62
256
6
ByLayer
370
-1
48
1.0
60
0
100
AcDbLine
10
27.2590007781982
20
-22.3400001525879
30
0.0
11
26.7880001068115
21
-22.068000793457
31
0.0
39
0.0
210
0.0
220
0.0
230
1.0
0
LINE
5
2E
330
17
100
AcDbEntity
67
0
8
0
62
256
6
ByLayer
370
-1
48
1.0
60
0
100
AcDbLine
10
26.7880001068115
20
-22.068000793457
30
0.0
11
25.7119998931885
21
-22.6350002288818
31
0.0
39
0.0
210
0.0
220
0.0
230
1.0
0
LINE
5
2F
330
17
100
AcDbEntity
67
0
8
0
62
256
6
ByLayer
370
-1
48
1.0
60
0
100
AcDbLine
10
30.7900009155273
20
-24.0900001525879
30
0.0
11
29.2740001678467
21
-24.9650001525879
31
0.0
39
0.0
210
0.0
220
0.0
230
1.0
0
LINE
5
30
330
17
100
AcDbEntity
67
0
8
0
62
256
6
ByLayer
370
-1
48
1.0
60
0
100
AcDbLine
10
29.2740001678467
20
-24.9650001525879
30
0.0
11
27.7590007781982
21
-24.0900001525879
31
0.0
39
0.0
210
0.0
220
0.0
230
1.0
0
LINE
5
31
330
17
100
AcDbEntity
67
0
8
0
62
256
6
ByLayer
370
-1
48
1.0
60
0
100
AcDbLine
10
27.7590007781982
20
-24.0900001525879
30
0.0
11
27.7590007781982
21
-22.3400001525879
31
0.0
39
0.0
210
0.0
220
0.0
230
1.0
0
LINE
5
32
330
17
100
AcDbEntity
67
0
8
0
62
256
6
ByLayer
370
-1
48
1.0
60
0
100
AcDbLine
10
27.7590007781982
20
-22.3400001525879
30
0.0
11
29.2740001678467
21
-21.4650001525879
31
0.0
39
0.0
210
0.0
220
0.0
230
1.0
0
LINE
5
33
330
17
100
AcDbEntity
67
0
8
0
62
256
6
ByLayer
370
-1
48
1.0
60
0
100
AcDbLine
10
29.2740001678467
20
-21.4650001525879
30
0.0
11
30.7900009155273
21
-22.3400001525879
31
0.0
39
0.0
210
0.0
220
0.0
230
1.0
0
LINE
5
34
330
17
100
AcDbEntity
67
0
8
0
62
256
6
ByLayer
370
-1
48
1.0
60
0
100
AcDbLine
10
30.7900009155273
20
-22.3400001525879
30
0.0
11
30.7900009155273
21
-24.0900001525879
31
0.0
39
0.0
210
0.0
220
0.0
230
1.0
0
LINE
5
35
330
17
100
AcDbEntity
67
0
8
0
62
256
6
ByLayer
370
-1
48
1.0
60
0
100
AcDbLine
10
34.3209991455078
20
-24.0900001525879
30
0.0
11
32.8050003051758
21
-24.9650001525879
31
0.0
39
0.0
210
0.0
220
0.0
230
1.0
0
LINE
5
36
330
17
100
AcDbEntity
67
0
8
0
62
256
6
ByLayer
370
-1
48
1.0
60
0
100
AcDbLine
10
32.8050003051758
20
-24.9650001525879
30
0.0
11
31.2900009155273
21
-24.0900001525879
31
0.0
39
0.0
210
0.0
220
0.0
230
1.0
0
LINE
5
37
330
17
100
AcDbEntity
67
0
8
0
62
256
6
ByLayer
370
-1
48
1.0
60
0
100
AcDbLine
10
31.2900009155273
20
-24.0900001525879
30
0.0
11
31.2900009155273
21
-22.3400001525879
31
0.0
39
0.0
210
0.0
220
0.0
230
1.0
0
LINE
5
38
330
17
100
AcDbEntity
67
0
8
0
62
256
6
ByLayer
370
-1
48
1.0
60
0
100
AcDbLine
10
31.2900009155273
20
-22.3400001525879
30
0.0
11
32.8050003051758
21
-21.4650001525879
31
0.0
39
0.0
210
0.0
220
0.0
230
1.0
0
LINE
5
39
330
17
100
AcDbEntity
67
0
8
0
62
256
6
ByLayer
370
-1
48
1.0
60
0
100
AcDbLine
10
32.8050003051758
20
-21.4650001525879
30
0.0
11
34.3209991455078
21
-22.3400001525879
31
0.0
39
0.0
210
0.0
220
0.0
230
1.0
0
LINE
5
3A
330
17
100
AcDbEntity
67
0
8
0
62
256
6
ByLayer
370
-1
48
1.0
60
0
100
AcDbLine
10
34.3209991455078
20
-22.3400001525879
30
0.0
11
34.3209991455078
21
-24.0900001525879
31
0.0
39
0.0
210
0.0
220
0.0
230
1.0
0
LINE
5
3B
330
17
100
AcDbEntity
67
0
8
0
62
256
6
ByLayer
370
-1
48
1.0
60
0
100
AcDbLine
10
34.8209991455078
20
-22.5599994659424
30
0.0
11
34.8209991455078
21
-24.0900001525879
31
0.0
39
0.0
210
0.0
220
0.0
230
1.0
0
LINE
5
3C
330
17
100
AcDbEntity
67
0
8
0
62
256
6
ByLayer
370
-1
48
1.0
60
0
100
AcDbLine
10
34.8209991455078
20
-24.0900001525879
30
0.0
11
35.6679992675781
21
-24.5799999237061
31
0.0
39
0.0
210
0.0
220
0.0
230
1.0
0
LINE
5
3D
330
17
100
AcDbEntity
67
0
8
0
62
256
6
ByLayer
370
-1
48
1.0
60
0
100
AcDbLine
10
35.6679992675781
20
-24.5799999237061
30
0.0
11
34.8209991455078
21
-22.5599994659424
31
0.0
39
0.0
210
0.0
220
0.0
230
1.0
0
LINE
5
3E
330
17
100
AcDbEntity
67
0
8
0
62
256
6
ByLayer
370
-1
48
1.0
60
0
100
AcDbLine
10
28.0419998168945
20
-27.7150001525879
30
0.0
11
29.0240001678467
21
-27.1480007171631
31
0.0
39
0.0
210
0.0
220
0.0
230
1.0
0
LINE
5
3F
330
17
100
AcDbEntity
67
0
8
0
62
256
6
ByLayer
370
-1
48
1.0
60
0
100
AcDbLine
10
29.0240001678467
20
-27.1480007171631
30
0.0
11
29.0240001678467
21
-25.3980007171631
31
0.0
39
0.0
210
0.0
220
0.0
230
1.0
0
LINE
5
40
330
17
100
AcDbEntity
67
0
8
0
62
256
6
ByLayer
370
-1
48
1.0
60
0
100
AcDbLine
10
29.0240001678467
20
-25.3980007171631
30
0.0
11
27.5090007781982
21
-24.5230007171631
31
0.0
39
0.0
210
0.0
220
0.0
230
1.0
0
LINE
5
41
330
17
100
AcDbEntity
67
0
8
0
62
256
6
ByLayer
370
-1
48
1.0
60
0
100
AcDbLine
10
27.5090007781982
20
-24.5230007171631
30
0.0
11
26.7730007171631
21
-24.9479999542236
31
0.0
39
0.0
210
0.0
220
0.0
230
1.0
0
LINE
5
42
330
17
100
AcDbEntity
67
0
8
0
62
256
6
ByLayer
370
-1
48
1.0
60
0
100
AcDbLine
10
26.7730007171631
20
-24.9479999542236
30
0.0
11
28.0419998168945
21
-27.7150001525879
31
0.0
39
0.0
210
0.0
220
0.0
230
1.0
0
LINE
5
43
330
17
100
AcDbEntity
67
0
8
0
62
256
6
ByLayer
370
-1
48
1.0
60
0
100
AcDbLine
10
32.5550003051758
20
-27.1480007171631
30
0.0
11
31.0400009155273
21
-28.0230007171631
31
0.0
39
0.0
210
0.0
220
0.0
230
1.0
0
LINE
5
44
330
17
100
AcDbEntity
67
0
8
0
62
256
6
ByLayer
370
-1
48
1.0
60
0
100
AcDbLine
10
31.0400009155273
20
-28.0230007171631
30
0.0
11
29.5240001678467
21
-27.1480007171631
31
0.0
39
0.0
210
0.0
220
0.0
230
1.0
0
LINE
5
45
330
17
100
AcDbEntity
67
0
8
0
62
256
6
ByLayer
370
-1
48
1.0
60
0
100
AcDbLine
10
29.5240001678467
20
-27.1480007171631
30
0.0
11
29.5240001678467
21
-25.3980007171631
31
0.0
39
0.0
210
0.0
220
0.0
230
1.0
0
LINE
5
46
330
17
100
AcDbEntity
67
0
8
0
62
256
6
ByLayer
370
-1
48
1.0
60
0
100
AcDbLine
10
29.5240001678467
20
-25.3980007171631
30
0.0
11
31.0400009155273
21
-24.5230007171631
31
0.0
39
0.0
210
0.0
220
0.0
230
1.0
0
LINE
5
47
330
17
100
AcDbEntity
67
0
8
0
62
256
6
ByLayer
370
-1
48
1.0
60
0
100
AcDbLine
10
31.0400009155273
20
-24.5230007171631
30
0.0
11
32.5550003051758
21
-25.3980007171631
31
0.0
39
0.0
210
0.0
220
0.0
230
1.0
0
LINE
5
48
330
17
100
AcDbEntity
67
0
8
0
62
256
6
ByLayer
370
-1
48
1.0
60
0
100
AcDbLine
10
32.5550003051758
20
-25.3980007171631
30
0.0
11
32.5550003051758
21
-27.1480007171631
31
0.0
39
0.0
210
0.0
220
0.0
230
1.0
0
LINE
5
49
330
17
100
AcDbEntity
67
0
8
0
62
256
6
ByLayer
370
-1
48
1.0
60
0
100
AcDbLine
10
35.9879989624023
20
-25.3419990539551
30
0.0
11
34.5709991455078
21
-24.5230007171631
31
0.0
39
0.0
210
0.0
220
0.0
230
1.0
0
LINE
5
4A
330
17
100
AcDbEntity
67
0
8
0
62
256
6
ByLayer
370
-1
48
1.0
60
0
100
AcDbLine
10
34.5709991455078
20
-24.5230007171631
30
0.0
11
33.0550003051758
21
-25.3980007171631
31
0.0
39
0.0
210
0.0
220
0.0
230
1.0
0
LINE
5
4B
330
17
100
AcDbEntity
67
0
8
0
62
256
6
ByLayer
370
-1
48
1.0
60
0
100
AcDbLine
10
33.0550003051758
20
-25.3980007171631
30
0.0
11
33.0550003051758
21
-27.1480007171631
31
0.0
39
0.0
210
0.0
220
0.0
230
1.0
0
LINE
5
4C
330
17
100
AcDbEntity
67
0
8
0
62
256
6
ByLayer
370
-1
48
1.0
60
0
100
AcDbLine
10
33.0550003051758
20
-27.1480007171631
30
0.0
11
34.5709991455078
21
-28.0230007171631
31
0.0
39
0.0
210
0.0
220
0.0
230
1.0
0
LINE
5
4D
330
17
100
AcDbEntity
67
0
8
0
62
256
6
ByLayer
370
-1
48
1.0
60
0
100
AcDbLine
10
34.5709991455078
20
-28.0230007171631
30
0.0
11
36.0859985351563
21
-27.1480007171631
31
0.0
39
0.0
210
0.0
220
0.0
230
1.0
0
LINE
5
4E
330
17
100
AcDbEntity
67
0
8
0
62
256
6
ByLayer
370
-1
48
1.0
60
0
100
AcDbLine
10
36.0859985351563
20
-27.1480007171631
30
0.0
11
36.0859985351563
21
-25.5750007629395
31
0.0
39
0.0
210
0.0
220
0.0
230
1.0
0
LINE
5
4F
330
17
100
AcDbEntity
67
0
8
0
62
256
6
ByLayer
370
-1
48
1.0
60
0
100
AcDbLine
10
36.0859985351563
20
-25.5750007629395
30
0.0
11
35.9879989624023
21
-25.3419990539551
31
0.0
39
0.0
210
0.0
220
0.0
230
1.0
0
LINE
5
50
330
17
100
AcDbEntity
67
0
8
0
62
256
6
ByLayer
370
-1
48
1.0
60
0
100
AcDbLine
10
36.5859985351563
20
-26.7670001983643
30
0.0
11
36.5859985351563
21
-27.1480007171631
31
0.0
39
0.0
210
0.0
220
0.0
230
1.0
0
LINE
5
51
330
17
100
AcDbEntity
67
0
8
0
62
256
6
ByLayer
370
-1
48
1.0
60
0
100
AcDbLine
10
36.5859985351563
20
-27.1480007171631
30
0.0
11
36.7970008850098
21
-27.2700004577637
31
0.0
39
0.0
210
0.0
220
0.0
230
1.0
0
LINE
5
52
330
17
100
AcDbEntity
67
0
8
0
62
256
6
ByLayer
370
-1
48
1.0
60
0
100
AcDbLine
10
36.7970008850098
20
-27.2700004577637
30
0.0
11
36.5859985351563
21
-26.7670001983643
31
0.0
39
0.0
210
0.0
220
0.0
230
1.0
0
LINE
5
53
330
17
100
AcDbEntity
67
0
8
0
62
256
6
ByLayer
370
-1
48
1.0
60
0
100
AcDbLine
10
29.5200004577637
20
-30.9389991760254
30
0.0
11
30.7900009155273
21
-30.2059993743896
31
0.0
39
0.0
210
0.0
220
0.0
230
1.0
0
LINE
5
54
330
17
100
AcDbEntity
67
0
8
0
62
256
6
ByLayer
370
-1
48
1.0
60
0
100
AcDbLine
10
30.7900009155273
20
-30.2059993743896
30
0.0
11
30.7900009155273
21
-28.4559993743896
31
0.0
39
0.0
210
0.0
220
0.0
230
1.0
0
LINE
5
55
330
17
100
AcDbEntity
67
0
8
0
62
256
6
ByLayer
370
-1
48
1.0
60
0
100
AcDbLine
10
30.7900009155273
20
-28.4559993743896
30
0.0
11
29.2740001678467
21
-27.5809993743896
31
0.0
39
0.0
210
0.0
220
0.0
230
1.0
0
LINE
5
56
330
17
100
AcDbEntity
67
0
8
0
62
256
6
ByLayer
370
-1
48
1.0
60
0
100
AcDbLine
10
29.2740001678467
20
-27.5809993743896
30
0.0
11
28.2509994506836
21
-28.1720008850098
31
0.0
39
0.0
210
0.0
220
0.0
230
1.0
0
LINE
5
57
330
17
100
AcDbEntity
67
0
8
0
62
256
6
ByLayer
370
-1
48
1.0
60
0
100
AcDbLine
10
28.2509994506836
20
-28.1720008850098
30
0.0
11
29.5200004577637
21
-30.9389991760254
31
0.0
39
0.0
210
0.0
220
0.0
230
1.0
0
LINE
5
58
330
17
100
AcDbEntity
67
0
8
0
62
256
6
ByLayer
370
-1
48
1.0
60
0
100
AcDbLine
10
34.3209991455078
20
-30.2059993743896
30
0.0
11
32.8050003051758
21
-31.0809993743896
31
0.0
39
0.0
210
0.0
220
0.0
230
1.0
0
LINE
5
59
330
17
100
AcDbEntity
67
0
8
0
62
256
6
ByLayer
370
-1
48
1.0
60
0
100
AcDbLine
10
32.8050003051758
20
-31.0809993743896
30
0.0
11
31.2900009155273
21
-30.2059993743896
31
0.0
39
0.0
210
0.0
220
0.0
230
1.0
0
LINE
5
5A
330
17
100
AcDbEntity
67
0
8
0
62
256
6
ByLayer
370
-1
48
1.0
60
0
100
AcDbLine
10
31.2900009155273
20
-30.2059993743896
30
0.0
11
31.2900009155273
21
-28.4559993743896
31
0.0
39
0.0
210
0.0
220
0.0
230
1.0
0
LINE
5
5B
330
17
100
AcDbEntity
67
0
8
0
62
256
6
ByLayer
370
-1
48
1.0
60
0
100
AcDbLine
10
31.2900009155273
20
-28.4559993743896
30
0.0
11
32.8050003051758
21
-27.5809993743896
31
0.0
39
0.0
210
0.0
220
0.0
230
1.0
0
LINE
5
5C
330
17
100
AcDbEntity
67
0
8
0
62
256
6
ByLayer
370
-1
48
1.0
60
0
100
AcDbLine
10
32.8050003051758
20
-27.5809993743896
30
0.0
11
34.3209991455078
21
-28.4559993743896
31
0.0
39
0.0
210
0.0
220
0.0
230
1.0
0
LINE
5
5D
330
17
100
AcDbEntity
67
0
8
0
62
256
6
ByLayer
370
-1
48
1.0
60
0
100
AcDbLine
10
34.3209991455078
20
-28.4559993743896
30
0.0
11
34.3209991455078
21
-30.2059993743896
31
0.0
39
0.0
210
0.0
220
0.0
230
1.0
0
LINE
5
5E
330
17
100
AcDbEntity
67
0
8
0
62
256
6
ByLayer
370
-1
48
1.0
60
0
100
AcDbLine
10
37.117000579834
20
-28.0319995880127
30
0.0
11
36.3359985351563
21
-27.5809993743896
31
0.0
39
0.0
210
0.0
220
0.0
230
1.0
0
LINE
5
5F
330
17
100
AcDbEntity
67
0
8
0
62
256
6
ByLayer
370
-1
48
1.0
60
0
100
AcDbLine
10
36.3359985351563
20
-27.5809993743896
30
0.0
11
34.8209991455078
21
-28.4559993743896
31
0.0
39
0.0
210
0.0
220
0.0
230
1.0
0
LINE
5
60
330
17
100
AcDbEntity
67
0
8
0
62
256
6
ByLayer
370
-1
48
1.0
60
0
100
AcDbLine
10
34.8209991455078
20
-28.4559993743896
30
0.0
11
34.8209991455078
21
-30.2059993743896
31
0.0
39
0.0
210
0.0
220
0.0
230
1.0
0
LINE
5
61
330
17
100
AcDbEntity
67
0
8
0
62
256
6
ByLayer
370
-1
48
1.0
60
0
100
AcDbLine
10
34.8209991455078
20
-30.2059993743896
30
0.0
11
36.3359985351563
21
-31.0809993743896
31
0.0
39
0.0
210
0.0
220
0.0
230
1.0
0
LINE
5
62
330
17
100
AcDbEntity
67
0
8
0
62
256
6
ByLayer
370
-1
48
1.0
60
0
100
AcDbLine
10
36.3359985351563
20
-31.0809993743896
30
0.0
11
37.8520011901855
21
-30.2059993743896
31
0.0
39
0.0
210
0.0
220
0.0
230
1.0
0
LINE
5
63
330
17
100
AcDbEntity
67
0
8
0
62
256
6
ByLayer
370
-1
48
1.0
60
0
100
AcDbLine
10
37.8520011901855
20
-30.2059993743896
30
0.0
11
37.8520011901855
21
-29.7830009460449
31
0.0
39
0.0
210
0.0
220
0.0
230
1.0
0
LINE
5
64
330
17
100
AcDbEntity
67
0
8
0
62
256
6
ByLayer
370
-1
48
1.0
60
0
100
AcDbLine
10
37.8520011901855
20
-29.7830009460449
30
0.0
11
37.117000579834
21
-28.0319995880127
31
0.0
39
0.0
210
0.0
220
0.0
230
1.0
0
LINE
5
65
330
17
100
AcDbEntity
67
0
8
0
62
256
6
ByLayer
370
-1
48
1.0
60
0
100
AcDbLine
10
30.9689998626709
20
-34.0979995727539
30
0.0
11
31.0400009155273
21
-34.1389999389648
31
0.0
39
0.0
210
0.0
220
0.0
230
1.0
0
LINE
5
66
330
17
100
AcDbEntity
67
0
8
0
62
256
6
ByLayer
370
-1
48
1.0
60
0
100
AcDbLine
10
31.0400009155273
20
-34.1389999389648
30
0.0
11
32.5550003051758
21
-33.2639999389648
31
0.0
39
0.0
210
0.0
220
0.0
230
1.0
0
LINE
5
67
330
17
100
AcDbEntity
67
0
8
0
62
256
6
ByLayer
370
-1
48
1.0
60
0
100
AcDbLine
10
32.5550003051758
20
-33.2639999389648
30
0.0
11
32.5550003051758
21
-31.5139999389648
31
0.0
39
0.0
210
0.0
220
0.0
230
1.0
0
LINE
5
68
330
17
100
AcDbEntity
67
0
8
0
62
256
6
ByLayer
370
-1
48
1.0
60
0
100
AcDbLine
10
32.5550003051758
20
-31.5139999389648
30
0.0
11
31.0400009155273
21
-30.6389999389648
31
0.0
39
0.0
210
0.0
220
0.0
230
1.0
0
LINE
5
69
330
17
100
AcDbEntity
67
0
8
0
62
256
6
ByLayer
370
-1
48
1.0
60
0
100
AcDbLine
10
31.0400009155273
20
-30.6389999389648
30
0.0
11
29.7290000915527
21
-31.3959999084473
31
0.0
39
0.0
210
0.0
220
0.0
230
1.0
0
LINE
5
6A
330
17
100
AcDbEntity
67
0
8
0
62
256
6
ByLayer
370
-1
48
1.0
60
0
100
AcDbLine
10
29.7290000915527
20
-31.3959999084473
30
0.0
11
30.9689998626709
21
-34.0979995727539
31
0.0
39
0.0
210
0.0
220
0.0
230
1.0
0
LINE
5
6B
330
17
100
AcDbEntity
67
0
8
0
62
256
6
ByLayer
370
-1
48
1.0
60
0
100
AcDbLine
10
36.0859985351563
20
-33.2639999389648
30
0.0
11
34.5709991455078
21
-34.1389999389648
31
0.0
39
0.0
210
0.0
220
0.0
230
1.0
0
LINE
5
6C
330
17
100
AcDbEntity
67
0
8
0
62
256
6
ByLayer
370
-1
48
1.0
60
0
100
AcDbLine
10
34.5709991455078
20
-34.1389999389648
30
0.0
11
33.0550003051758
21
-33.2639999389648
31
0.0
39
0.0
210
0.0
220
0.0
230
1.0
0
LINE
5
6D
330
17
100
AcDbEntity
67
0
8
0
62
256
6
ByLayer
370
-1
48
1.0
60
0
100
AcDbLine
10
33.0550003051758
20
-33.2639999389648
30
0.0
11
33.0550003051758
21
-31.5139999389648
31
0.0
39
0.0
210
0.0
220
0.0
230
1.0
0
LINE
5
6E
330
17
100
AcDbEntity
67
0
8
0
62
256
6
ByLayer
370
-1
48
1.0
60
0
100
AcDbLine
10
33.0550003051758
20
-31.5139999389648
30
0.0
11
34.5709991455078
21
-30.6389999389648
31
0.0
39
0.0
210
0.0
220
0.0
230
1.0
0
LINE
5
6F
330
17
100
AcDbEntity
67
0
8
0
62
256
6
ByLayer
370
-1
48
1.0
60
0
100
AcDbLine
10
34.5709991455078
20
-30.6389999389648
30
0.0
11
36.0859985351563
21
-31.5139999389648
31
0.0
39
0.0
210
0.0
220
0.0
230
1.0
0
LINE
5
70
330
17
100
AcDbEntity
67
0
8
0
62
256
6
ByLayer
370
-1
48
1.0
60
0
100
AcDbLine
10
36.0859985351563
20
-31.5139999389648
30
0.0
11
36.0859985351563
21
-33.2639999389648
31
0.0
39
0.0
210
0.0
220
0.0
230
1.0
0
LINE
5
71
330
17
100
AcDbEntity
67
0
8
0
62
256
6
ByLayer
370
-1
48
1.0
60
0
100
AcDbLine
10
39.068000793457
20
-32.6800003051758
30
0.0
11
38.2459983825684
21
-30.7229995727539
31
0.0
39
0.0
210
0.0
220
0.0
230
1.0
0
LINE
5
72
330
17
100
AcDbEntity
67
0
8
0
62
256
6
ByLayer
370
-1
48
1.0
60
0
100
AcDbLine
10
38.2459983825684
20
-30.7229995727539
30
0.0
11
38.1020011901855
21
-30.6389999389648
31
0.0
39
0.0
210
0.0
220
0.0
230
1.0
0
LINE
5
73
330
17
100
AcDbEntity
67
0
8
0
62
256
6
ByLayer
370
-1
48
1.0
60
0
100
AcDbLine
10
38.1020011901855
20
-30.6389999389648
30
0.0
11
36.5859985351563
21
-31.5139999389648
31
0.0
39
0.0
210
0.0
220
0.0
230
1.0
0
LINE
5
74
330
17
100
AcDbEntity
67
0
8
0
62
256
6
ByLayer
370
-1
48
1.0
60
0
100
AcDbLine
10
36.5859985351563
20
-31.5139999389648
30
0.0
11
36.5859985351563
21
-33.2639999389648
31
0.0
39
0.0
210
0.0
220
0.0
230
1.0
0
LINE
5
75
330
17
100
AcDbEntity
67
0
8
0
62
256
6
ByLayer
370
-1
48
1.0
60
0
100
AcDbLine
10
36.5859985351563
20
-33.2639999389648
30
0.0
11
36.8969993591309
21
-33.4440002441406
31
0.0
39
0.0
210
0.0
220
0.0
230
1.0
0
LINE
5
76
330
17
100
AcDbEntity
67
0
8
0
62
256
6
ByLayer
370
-1
48
1.0
60
0
100
AcDbLine
10
36.8969993591309
20
-33.4440002441406
30
0.0
11
39.068000793457
21
-32.6800003051758
31
0.0
39
0.0
210
0.0
220
0.0
230
1.0
0
LINE
5
77
330
17
100
AcDbEntity
67
0
8
0
62
256
6
ByLayer
370
-1
48
1.0
60
0
100
AcDbLine
10
32.1590003967285
20
-36.6949996948242
30
0.0
11
32.1829986572266
21
-36.8380012512207
31
0.0
39
0.0
210
0.0
220
0.0
230
1.0
0
LINE
5
78
330
17
100
AcDbEntity
67
0
8
0
62
256
6
ByLayer
370
-1
48
1.0
60
0
100
AcDbLine
10
32.1829986572266
20
-36.8380012512207
30
0.0
11
32.8050003051758
21
-37.1969985961914
31
0.0
39
0.0
210
0.0
220
0.0
230
1.0
0
LINE
5
79
330
17
100
AcDbEntity
67
0
8
0
62
256
6
ByLayer
370
-1
48
1.0
60
0
100
AcDbLine
10
32.8050003051758
20
-37.1969985961914
30
0.0
11
34.3209991455078
21
-36.3219985961914
31
0.0
39
0.0
210
0.0
220
0.0
230
1.0
0
LINE
5
7A
330
17
100
AcDbEntity
67
0
8
0
62
256
6
ByLayer
370
-1
48
1.0
60
0
100
AcDbLine
10
34.3209991455078
20
-36.3219985961914
30
0.0
11
34.3209991455078
21
-34.5719985961914
31
0.0
39
0.0
210
0.0
220
0.0
230
1.0
0
LINE
5
7B
330
17
100
AcDbEntity
67
0
8
0
62
256
6
ByLayer
370
-1
48
1.0
60
0
100
AcDbLine
10
34.3209991455078
20
-34.5719985961914
30
0.0
11
32.8050003051758
21
-33.6969985961914
31
0.0
39
0.0
210
0.0
220
0.0
230
1.0
0
LINE
5
7C
330
17
100
AcDbEntity
67
0
8
0
62
256
6
ByLayer
370
-1
48
1.0
60
0
100
AcDbLine
10
32.8050003051758
20
-33.6969985961914
30
0.0
11
31.2900009155273
21
-34.5719985961914
31
0.0
39
0.0
210
0.0
220
0.0
230
1.0
0
LINE
5
7D
330
17
100
AcDbEntity
67
0
8
0
62
256
6
ByLayer
370
-1
48
1.0
60
0
100
AcDbLine
10
31.2900009155273
20
-34.5719985961914
30
0.0
11
31.2900009155273
21
-34.7980003356934
31
0.0
39
0.0
210
0.0
220
0.0
230
1.0
0
LINE
5
7E
330
17
100
AcDbEntity
67
0
8
0
62
256
6
ByLayer
370
-1
48
1.0
60
0
100
AcDbLine
10
31.2900009155273
20
-34.7980003356934
30
0.0
11
32.1590003967285
21
-36.6949996948242
31
0.0
39
0.0
210
0.0
220
0.0
230
1.0
0
LINE
5
7F
330
17
100
AcDbEntity
67
0
8
0
62
256
6
ByLayer
370
-1
48
1.0
60
0
100
AcDbLine
10
37.4199981689453
20
-36.1790008544922
30
0.0
11
36.601001739502
21
-33.8499984741211
31
0.0
39
0.0
210
0.0
220
0.0
230
1.0
0
LINE
5
80
330
17
100
AcDbEntity
67
0
8
0
62
256
6
ByLayer
370
-1
48
1.0
60
0
100
AcDbLine
10
36.601001739502
20
-33.8499984741211
30
0.0
11
36.3359985351563
21
-33.6969985961914
31
0.0
39
0.0
210
0.0
220
0.0
230
1.0
0
LINE
5
81
330
17
100
AcDbEntity
67
0
8
0
62
256
6
ByLayer
370
-1
48
1.0
60
0
100
AcDbLine
10
36.3359985351563
20
-33.6969985961914
30
0.0
11
34.8209991455078
21
-34.5719985961914
31
0.0
39
0.0
210
0.0
220
0.0
230
1.0
0
LINE
5
82
330
17
100
AcDbEntity
67
0
8
0
62
256
6
ByLayer
370
-1
48
1.0
60
0
100
AcDbLine
10
34.8209991455078
20
-34.5719985961914
30
0.0
11
34.8209991455078
21
-36.3219985961914
31
0.0
39
0.0
210
0.0
220
0.0
230
1.0
0
LINE
5
83
330
17
100
AcDbEntity
67
0
8
0
62
256
6
ByLayer
370
-1
48
1.0
60
0
100
AcDbLine
10
34.8209991455078
20
-36.3219985961914
30
0.0
11
36.3359985351563
21
-37.1969985961914
31
0.0
39
0.0
210
0.0
220
0.0
230
1.0
0
LINE
5
84
330
17
100
AcDbEntity
67
0
8
0
62
256
6
ByLayer
370
-1
48
1.0
60
0
100
AcDbLine
10
36.3359985351563
20
-37.1969985961914
30
0.0
11
37.8520011901855
21
-36.3219985961914
31
0.0
39
0.0
210
0.0
220
0.0
230
1.0
0
LINE
5
85
330
17
100
AcDbEntity
67
0
8
0
62
256
6
ByLayer
370
-1
48
1.0
60
0
100
AcDbLine
10
37.8520011901855
20
-36.3219985961914
30
0.0
11
37.8520011901855
21
-36.0279998779297
31
0.0
39
0.0
210
0.0
220
0.0
230
1.0
0
LINE
5
86
330
17
100
AcDbEntity
67
0
8
0
62
256
6
ByLayer
370
-1
48
1.0
60
0
100
AcDbLine
10
37.8520011901855
20
-36.0279998779297
30
0.0
11
37.4199981689453
21
-36.1790008544922
31
0.0
39
0.0
210
0.0
220
0.0
230
1.0
0
LINE
5
87
330
17
100
AcDbEntity
67
0
8
0
62
256
6
ByLayer
370
-1
48
1.0
60
0
100
AcDbLine
10
40.1360015869141
20
-35.2249984741211
30
0.0
11
38.3520011901855
21
-35.8520011901855
31
0.0
39
0.0
210
0.0
220
0.0
230
1.0
0
LINE
5
88
330
17
100
AcDbEntity
67
0
8
0
62
256
6
ByLayer
370
-1
48
1.0
60
0
100
AcDbLine
10
38.3520011901855
20
-35.8520011901855
30
0.0
11
38.3520011901855
21
-36.3219985961914
31
0.0
39
0.0
210
0.0
220
0.0
230
1.0
0
LINE
5
89
330
17
100
AcDbEntity
67
0
8
0
62
256
6
ByLayer
370
-1
48
1.0
60
0
100
AcDbLine
10
38.3520011901855
20
-36.3219985961914
30
0.0
11
39.867000579834
21
-37.1969985961914
31
0.0
39
0.0
210
0.0
220
0.0
230
1.0
0
LINE
5
8A
330
17
100
AcDbEntity
67
0
8
0
62
256
6
ByLayer
370
-1
48
1.0
60
0
100
AcDbLine
10
39.867000579834
20
-37.1969985961914
30
0.0
11
40.7719993591309
21
-36.6749992370605
31
0.0
39
0.0
210
0.0
220
0.0
230
1.0
0
LINE
5
8B
330
17
100
AcDbEntity
67
0
8
0
62
256
6
ByLayer
370
-1
48
1.0
60
0
100
AcDbLine
10
40.7719993591309
20
-36.6749992370605
30
0.0
11
40.1360015869141
21
-35.2249984741211
31
0.0
39
0.0
210
0.0
220
0.0
230
1.0
0
LINE
5
8C
330
17
100
AcDbEntity
67
0
8
0
62
256
6
ByLayer
370
-1
48
1.0
60
0
100
AcDbLine
10
32.3779983520508
20
-38.0089988708496
30
0.0
11
32.5550003051758
21
-38.0089988708496
31
0.0
39
0.0
210
0.0
220
0.0
230
1.0
0
LINE
5
8D
330
17
100
AcDbEntity
67
0
8
0
62
256
6
ByLayer
370
-1
48
1.0
60
0
100
AcDbLine
10
32.5550003051758
20
-38.0089988708496
30
0.0
11
32.5550003051758
21
-37.6300010681152
31
0.0
39
0.0
210
0.0
220
0.0
230
1.0
0
LINE
5
8E
330
17
100
AcDbEntity
67
0
8
0
62
256
6
ByLayer
370
-1
48
1.0
60
0
100
AcDbLine
10
32.5550003051758
20
-37.6300010681152
30
0.0
11
32.2900009155273
21
-37.4770011901855
31
0.0
39
0.0
210
0.0
220
0.0
230
1.0
0
LINE
5
8F
330
17
100
AcDbEntity
67
0
8
0
62
256
6
ByLayer
370
-1
48
1.0
60
0
100
AcDbLine
10
32.2900009155273
20
-37.4770011901855
30
0.0
11
32.3779983520508
21
-38.0089988708496
31
0.0
39
0.0
210
0.0
220
0.0
230
1.0
0
LINE
5
90
330
17
100
AcDbEntity
67
0
8
0
62
256
6
ByLayer
370
-1
48
1.0
60
0
100
AcDbLine
10
36.0859985351563
20
-38.0099983215332
30
0.0
11
36.0859985351563
21
-37.6300010681152
31
0.0
39
0.0
210
0.0
220
0.0
230
1.0
0
LINE
5
91
330
17
100
AcDbEntity
67
0
8
0
62
256
6
ByLayer
370
-1
48
1.0
60
0
100
AcDbLine
10
36.0859985351563
20
-37.6300010681152
30
0.0
11
34.5709991455078
21
-36.7550010681152
31
0.0
39
0.0
210
0.0
220
0.0
230
1.0
0
LINE
5
92
330
17
100
AcDbEntity
67
0
8
0
62
256
6
ByLayer
370
-1
48
1.0
60
0
100
AcDbLine
10
34.5709991455078
20
-36.7550010681152
30
0.0
11
33.0550003051758
21
-37.6300010681152
31
0.0
39
0.0
210
0.0
220
0.0
230
1.0
0
LINE
5
93
330
17
100
AcDbEntity
67
0
8
0
62
256
6
ByLayer
370
-1
48
1.0
60
0
100
AcDbLine
10
33.0550003051758
20
-37.6300010681152
30
0.0
11
33.0550003051758
21
-38.0089988708496
31
0.0
39
0.0
210
0.0
220
0.0
230
1.0
0
LINE
5
94
330
17
100
AcDbEntity
67
0
8
0
62
256
6
ByLayer
370
-1
48
1.0
60
0
100
AcDbLine
10
33.0550003051758
20
-38.0089988708496
30
0.0
11
36.0859985351563
21
-38.0099983215332
31
0.0
39
0.0
210
0.0
220
0.0
230
1.0
0
LINE
5
95
330
17
100
AcDbEntity
67
0
8
0
62
256
6
ByLayer
370
-1
48
1.0
60
0
100
AcDbLine
10
39.617000579834
20
-38.0110015869141
30
0.0
11
39.617000579834
21
-37.6300010681152
31
0.0
39
0.0
210
0.0
220
0.0
230
1.0
0
LINE
5
96
330
17
100
AcDbEntity
67
0
8
0
62
256
6
ByLayer
370
-1
48
1.0
60
0
100
AcDbLine
10
39.617000579834
20
-37.6300010681152
30
0.0
11
38.1020011901855
21
-36.7550010681152
31
0.0
39
0.0
210
0.0
220
0.0
230
1.0
0
LINE
5
97
330
17
100
AcDbEntity
67
0
8
0
62
256
6
ByLayer
370
-1
48
1.0
60
0
100
AcDbLine
10
38.1020011901855
20
-36.7550010681152
30
0.0
11
36.5859985351563
21
-37.6300010681152
31
0.0
39
0.0
210
0.0
220
0.0
230
1.0
0
LINE
5
98
330
17
100
AcDbEntity
67
0
8
0
62
256
6
ByLayer
370
-1
48
1.0
60
0
100
AcDbLine
10
36.5859985351563
20
-37.6300010681152
30
0.0
11
36.5859985351563
21
-38.0099983215332
31
0.0
39
0.0
210
0.0
220
0.0
230
1.0
0
LINE
5
99
330
17
100
AcDbEntity
67
0
8
0
62
256
6
ByLayer
370
-1
48
1.0
60
0
100
AcDbLine
10
36.5859985351563
20
-38.0099983215332
30
0.0
11
39.617000579834
21
-38.0110015869141
31
0.0
39
0.0
210
0.0
220
0.0
230
1.0
0
LINE
5
9A
330
17
100
AcDbEntity
67
0
8
0
62
256
6
ByLayer
370
-1
48
1.0
60
0
100
AcDbLine
10
41.3580017089844
20
-38.0110015869141
30
0.0
11
40.9739990234375
21
-37.1360015869141
31
0.0
39
0.0
210
0.0
220
0.0
230
1.0
0
LINE
5
9B
330
17
100
AcDbEntity
67
0
8
0
62
256
6
ByLayer
370
-1
48
1.0
60
0
100
AcDbLine
10
40.9739990234375
20
-37.1360015869141
30
0.0
11
40.117000579834
21
-37.6300010681152
31
0.0
39
0.0
210
0.0
220
0.0
230
1.0
0
LINE
5
9C
330
17
100
AcDbEntity
67
0
8
0
62
256
6
ByLayer
370
-1
48
1.0
60
0
100
AcDbLine
10
40.117000579834
20
-37.6300010681152
30
0.0
11
40.117000579834
21
-38.0110015869141
31
0.0
39
0.0
210
0.0
220
0.0
230
1.0
0
LINE
5
9D
330
17
100
AcDbEntity
67
0
8
0
62
256
6
ByLayer
370
-1
48
1.0
60
0
100
AcDbLine
10
40.117000579834
20
-38.0110015869141
30
0.0
11
41.3580017089844
21
-38.0110015869141
31
0.0
39
0.0
210
0.0
220
0.0
230
1.0
0
VIEWPORT
5
A2
330
9E
100
AcDbEntity
67
1
8
0
62
256
6
ByLayer
370
-1
48
1.0
60
0
100
AcDbViewport
10
0.0
20
0.0
30
0.0
40
297.0
41
210.0
68
1
69
1
12
50.0
22
100.0
13
0.0
23
0.0
14
10.0
24
10.0
15
10.0
25
10.0
16
0.0
26
0.0
36
1.0
17
0.0
27
0.0
37
0.0
42
50.0
43
0.0
44
0.0
45
250.0
50
0.0
51
0.0
72
1000
90
819232
110
0.0
120
0.0
130
0.0
111
1.0
121
0.0
131
0.0
112
0.0
122
1.0
132
0.0
0
ENDSEC
0
SECTION
2
OBJECTS
0
DICTIONARY
5
A5
330
0
100
AcDbDictionary
280
0
281
1
3
ACAD_GROUP
350
A6
3
ACAD_LAYOUT
350
A7
3
ACAD_MLINESTYLE
350
A8
0
DICTIONARY
5
A6
330
A5
100
AcDbDictionary
280
0
281
1
0
DICTIONARY
5
A7
330
A5
100
AcDbDictionary
280
0
281
1
3
Model
350
1B
3
Layout1
350
A3
0
DICTIONARY
5
A8
330
A5
100
AcDbDictionary
280
0
281
1
3
Standard
350
16
0
LAYOUT
5
1B
330
A7
100
AcDbPlotSettings
1

2
none_device
4
ISO_A4_(210.00_x_297.00_MM)
6

40
7.5
41
20.0
42
7.5
43
20.0
44
210.0
45
297.0
46
0.0
47
0.0
48
0.0
49
0.0
140
0.0
141
0.0
142
1.0
143
1.0
70
11952
72
1
73
1
74
5
7

75
16
147
1.0
148
0.0
149
0.0
100
AcDbLayout
1
Model
70
1
71
0
10
-20.0
20
-7.5
11
277.0
21
202.5
12
0.0
22
0.0
32
0.0
14
25.7
24
19.5
34
0.0
15
231.3
25
175.5
35
0.0
146
0.0
13
0.0
23
0.0
33
0.0
16
1.0
26
0.0
36
0.0
17
0.0
27
1.0
37
0.0
76
0
330
17
0
LAYOUT
5
A3
330
A7
100
AcDbPlotSettings
1

2
none_device
4
ISO_A4_(210.00_x_297.00_MM)
6

40
7.5
41
20.0
42
7.5
43
20.0
44
210.0
45
297.0
46
0.0
47
0.0
48
0.0
49
0.0
140
0.0
141
0.0
142
1.0
143
1.0
70
688
72
1
73
1
74
5
7

75
16
147
1.0
148
0.0
149
0.0
100
AcDbLayout
1
Layout1
70
1
71
1
10
-20.0
20
-7.5
11
277.0
21
202.5
12
0.0
22
0.0
32
0.0
14
25.7
24
19.5
34
0.0
15
231.3
25
175.5
35
0.0
146
0.0
13
0.0
23
0.0
33
0.0
16
1.0
26
0.0
36
0.0
17
0.0
27
1.0
37
0.0
76
0
330
9E
0
MLINESTYLE
5
16
330
A8
100
AcDbMlineStyle
2
Standard
70
0
3

62
256
51
90.0
52
90.0
71
2
49
0.5
62
256
6
ByLayer
49
-0.5
62
256
6
ByLayer
0
ENDSEC
0
EOF
