  0
SECTION
  2
HEADER
  9
$ACADVER
  1
AC1024
  9
$ACADMAINTVER
 70
6
  9
$DWGCODEPAGE
  3
ANSI_1252
  9
$LASTSAVEDBY
  1
ezdxf
  9
$INSBASE
 10
0.0
 20
0.0
 30
0.0
  9
$EXTMIN
 10
1e+20
 20
1e+20
 30
1e+20
  9
$EXTMAX
 10
-1e+20
 20
-1e+20
 30
-1e+20
  9
$LIMMIN
 10
0.0
 20
0.0
  9
$LIMMAX
 10
420.0
 20
297.0
  9
$ORTHOMODE
 70
0
  9
$REGENMODE
 70
1
  9
$FILLMODE
 70
1
  9
$QTEXTMODE
 70
0
  9
$MIRRTEXT
 70
1
  9
$LTSCALE
 40
1.0
  9
$ATTMODE
 70
1
  9
$TEXTSIZE
 40
2.5
  9
$TRACEWID
 40
1.0
  9
$TEXTSTYLE
  7
Standard
  9
$CLAYER
  8
0
  9
$CELTYPE
  6
ByLayer
  9
$CECOLOR
 62
256
  9
$CELTSCALE
 40
1.0
  9
$DISPSILH
 70
0
  9
$DIMSCALE
 40
1.0
  9
$DIMASZ
 40
2.5
  9
$DIMEXO
 40
0.625
  9
$DIMDLI
 40
3.75
  9
$DIMRND
 40
0.0
  9
$DIMDLE
 40
0.0
  9
$DIMEXE
 40
1.25
  9
$DIMTP
 40
0.0
  9
$DIMTM
 40
0.0
  9
$DIMTXT
 40
2.5
  9
$DIMCEN
 40
2.5
  9
$DIMTSZ
 40
0.0
  9
$DIMTOL
 70
0
  9
$DIMLIM
 70
0
  9
$DIMTIH
 70
0
  9
$DIMTOH
 70
0
  9
$DIMSE1
 70
0
  9
$DIMSE2
 70
0
  9
$DIMTAD
 70
1
  9
$DIMZIN
 70
8
  9
$DIMBLK
  1

  9
$DIMASO
 70
1
  9
$DIMSHO
 70
1
  9
$DIMPOST
  1

  9
$DIMAPOST
  1

  9
$DIMALT
 70
0
  9
$DIMALTD
 70
3
  9
$DIMALTF
 40
0.03937007874
  9
$DIMLFAC
 40
1.0
  9
$DIMTOFL
 70
1
  9
$DIMTVP
 40
0.0
  9
$DIMTIX
 70
0
  9
$DIMSOXD
 70
0
  9
$DIMSAH
 70
0
  9
$DIMBLK1
  1

  9
$DIMBLK2
  1

  9
$DIMSTYLE
  2
ISO-25
  9
$DIMCLRD
 70
0
  9
$DIMCLRE
 70
0
  9
$DIMCLRT
 70
0
  9
$DIMTFAC
 40
1.0
  9
$DIMGAP
 40
0.625
  9
$DIMJUST
 70
0
  9
$DIMSD1
 70
0
  9
$DIMSD2
 70
0
  9
$DIMTOLJ
 70
0
  9
$DIMTZIN
 70
8
  9
$DIMALTZ
 70
0
  9
$DIMALTTZ
 70
0
  9
$DIMUPT
 70
0
  9
$DIMDEC
 70
2
  9
$DIMTDEC
 70
2
  9
$DIMALTU
 70
2
  9
$DIMALTTD
 70
3
  9
$DIMTXSTY
  7
Standard
  9
$DIMAUNIT
 70
0
  9
$DIMADEC
 70
0
  9
$DIMALTRND
 40
0.0
  9
$DIMAZIN
 70
0
  9
$DIMDSEP
 70
44
  9
$DIMATFIT
 70
3
  9
$DIMFRAC
 70
0
  9
$DIMLDRBLK
  1

  9
$DIMLUNIT
 70
2
  9
$DIMLWD
 70
-2
  9
$DIMLWE
 70
-2
  9
$DIMTMOVE
 70
0
  9
$DIMFXL
 40
1.0
  9
$DIMFXLON
 70
0
  9
$DIMJOGANG
 40
0.785398163397
  9
$DIMTFILL
 70
0
  9
$DIMTFILLCLR
 70
0
  9
$DIMARCSYM
 70
0
  9
$DIMLTYPE
  6

  9
$DIMLTEX1
  6

  9
$DIMLTEX2
  6

  9
$DIMTXTDIRECTION
 70
0
  9
$LUNITS
 70
2
  9
$LUPREC
 70
4
  9
$SKETCHINC
 40
1.0
  9
$FILLETRAD
 40
10.0
  9
$AUNITS
 70
0
  9
$AUPREC
 70
2
  9
$MENU
  1
.
  9
$ELEVATION
 40
0.0
  9
$PELEVATION
 40
0.0
  9
$THICKNESS
 40
0.0
  9
$LIMCHECK
 70
0
  9
$CHAMFERA
 40
0.0
  9
$CHAMFERB
 40
0.0
  9
$CHAMFERC
 40
0.0
  9
$CHAMFERD
 40
0.0
  9
$SKPOLY
 70
0
  9
$TDCREATE
 40
2461142.7371527776
  9
$TDUCREATE
 40
2458532.153996898
  9
$TDUPDATE
 40
2461142.7371527776
  9
$TDUUPDATE
 40
2458532.1544311
  9
$TDINDWG
 40
0.0
  9
$TDUSRTIMER
 40
0.0
  9
$USRTIMER
 70
1
  9
$ANGBASE
 50
0.0
  9
$ANGDIR
 70
0
  9
$PDMODE
 70
0
  9
$PDSIZE
 40
0.0
  9
$PLINEWID
 40
0.0
  9
$SPLFRAME
 70
0
  9
$SPLINETYPE
 70
6
  9
$SPLINESEGS
 70
8
  9
$HANDSEED
  5
3D
  9
$SURFTAB1
 70
6
  9
$SURFTAB2
 70
6
  9
$SURFTYPE
 70
6
  9
$SURFU
 70
6
  9
$SURFV
 70
6
  9
$UCSBASE
  2

  9
$UCSNAME
  2

  9
$UCSORG
 10
0.0
 20
0.0
 30
0.0
  9
$UCSXDIR
 10
1.0
 20
0.0
 30
0.0
  9
$UCSYDIR
 10
0.0
 20
1.0
 30
0.0
  9
$UCSORTHOREF
  2

  9
$UCSORTHOVIEW
 70
0
  9
$UCSORGTOP
 10
0.0
 20
0.0
 30
0.0
  9
$UCSORGBOTTOM
 10
0.0
 20
0.0
 30
0.0
  9
$UCSORGLEFT
 10
0.0
 20
0.0
 30
0.0
  9
$UCSORGRIGHT
 10
0.0
 20
0.0
 30
0.0
  9
$UCSORGFRONT
 10
0.0
 20
0.0
 30
0.0
  9
$UCSORGBACK
 10
0.0
 20
0.0
 30
0.0
  9
$PUCSBASE
  2

  9
$PUCSNAME
  2

  9
$PUCSORG
 10
0.0
 20
0.0
 30
0.0
  9
$PUCSXDIR
 10
1.0
 20
0.0
 30
0.0
  9
$PUCSYDIR
 10
0.0
 20
1.0
 30
0.0
  9
$PUCSORTHOREF
  2

  9
$PUCSORTHOVIEW
 70
0
  9
$PUCSORGTOP
 10
0.0
 20
0.0
 30
0.0
  9
$PUCSORGBOTTOM
 10
0.0
 20
0.0
 30
0.0
  9
$PUCSORGLEFT
 10
0.0
 20
0.0
 30
0.0
  9
$PUCSORGRIGHT
 10
0.0
 20
0.0
 30
0.0
  9
$PUCSORGFRONT
 10
0.0
 20
0.0
 30
0.0
  9
$PUCSORGBACK
 10
0.0
 20
0.0
 30
0.0
  9
$USERI1
 70
0
  9
$USERI2
 70
0
  9
$USERI3
 70
0
  9
$USERI4
 70
0
  9
$USERI5
 70
0
  9
$USERR1
 40
0.0
  9
$USERR2
 40
0.0
  9
$USERR3
 40
0.0
  9
$USERR4
 40
0.0
  9
$USERR5
 40
0.0
  9
$WORLDVIEW
 70
1
  9
$SHADEDGE
 70
3
  9
$SHADEDIF
 70
70
  9
$TILEMODE
 70
1
  9
$MAXACTVP
 70
64
  9
$PINSBASE
 10
0.0
 20
0.0
 30
0.0
  9
$PLIMCHECK
 70
0
  9
$PEXTMIN
 10
1e+20
 20
1e+20
 30
1e+20
  9
$PEXTMAX
 10
-1e+20
 20
-1e+20
 30
-1e+20
  9
$PLIMMIN
 10
0.0
 20
0.0
  9
$PLIMMAX
 10
420.0
 20
297.0
  9
$UNITMODE
 70
0
  9
$VISRETAIN
 70
1
  9
$PLINEGEN
 70
0
  9
$PSLTSCALE
 70
1
  9
$TREEDEPTH
 70
3020
  9
$CMLSTYLE
  2
Standard
  9
$CMLJUST
 70
0
  9
$CMLSCALE
 40
20.0
  9
$PROXYGRAPHICS
 70
1
  9
$MEASUREMENT
 70
1
  9
$CELWEIGHT
370
-1
  9
$ENDCAPS
280
0
  9
$JOINSTYLE
280
0
  9
$LWDISPLAY
290
0
  9
$INSUNITS
 70
4
  9
$HYPERLINKBASE
  1

  9
$STYLESHEET
  1

  9
$XEDIT
290
1
  9
$CEPSNTYPE
380
0
  9
$PSTYLEMODE
290
1
  9
$FINGERPRINTGUID
  2
{F48B0497-112F-4DE3-AFB1-086B0501DB37}
  9
$VERSIONGUID
  2
{068DFDC7-D3BE-4980-B012-3FB2DB042EC2}
  9
$EXTNAMES
290
1
  9
$PSVPSCALE
 40
0.0
  9
$OLESTARTUP
290
0
  9
$SORTENTS
280
127
  9
$INDEXCTL
280
0
  9
$HIDETEXT
280
1
  9
$XCLIPFRAME
280
1
  9
$HALOGAP
280
0
  9
$OBSCOLOR
 70
257
  9
$OBSLTYPE
280
0
  9
$INTERSECTIONDISPLAY
280
0
  9
$INTERSECTIONCOLOR
 70
257
  9
$DIMASSOC
280
2
  9
$PROJECTNAME
  1

  9
$CAMERADISPLAY
290
0
  9
$LENSLENGTH
 40
50.0
  9
$CAMERAHEIGHT
 40
0.0
  9
$STEPSPERSEC
 40
24.0
  9
$STEPSIZE
 40
100.0
  9
$3DDWFPREC
 40
2.0
  9
$PSOLWIDTH
 40
0.005
  9
$PSOLHEIGHT
 40
0.08
  9
$LOFTANG1
 40
1.570796326795
  9
$LOFTANG2
 40
1.570796326795
  9
$LOFTMAG1
 40
0.0
  9
$LOFTMAG2
 40
0.0
  9
$LOFTPARAM
 70
7
  9
$LOFTNORMALS
280
1
  9
$LATITUDE
 40
37.795
  9
$LONGITUDE
 40
-122.394
  9
$NORTHDIRECTION
 40
0.0
  9
$TIMEZONE
 70
-8000
  9
$LIGHTGLYPHDISPLAY
280
1
  9
$TILEMODELIGHTSYNCH
280
1
  9
$CMATERIAL
347
20
  9
$SOLIDHIST
280
0
  9
$SHOWHIST
280
1
  9
$DWFFRAME
280
2
  9
$DGNFRAME
280
2
  9
$REALWORLDSCALE
290
1
  9
$INTERFERECOLOR
 62
256
  9
$CSHADOW
280
0
  9
$SHADOWPLANELOCATION
 40
0.0
  0
ENDSEC
  0
SECTION
  2
CLASSES
  0
CLASS
  1
ACDBDICTIONARYWDFLT
  2
AcDbDictionaryWithDefault
  3
ObjectDBX Classes
 90
0
 91
0
280
0
281
0
  0
CLASS
  1
SUN
  2
AcDbSun
  3
SCENEOE
 90
1153
 91
0
280
0
281
0
  0
CLASS
  1
VISUALSTYLE
  2
AcDbVisualStyle
  3
ObjectDBX Classes
 90
4095
 91
0
280
0
281
0
  0
CLASS
  1
MATERIAL
  2
AcDbMaterial
  3
ObjectDBX Classes
 90
1153
 91
0
280
0
281
0
  0
CLASS
  1
SCALE
  2
AcDbScale
  3
ObjectDBX Classes
 90
1153
 91
0
280
0
281
0
  0
CLASS
  1
TABLESTYLE
  2
AcDbTableStyle
  3
ObjectDBX Classes
 90
4095
 91
0
280
0
281
0
  0
CLASS
  1
MLEADERSTYLE
  2
AcDbMLeaderStyle
  3
ACDB_MLEADERSTYLE_CLASS
 90
4095
 91
0
280
0
281
0
  0
CLASS
  1
DICTIONARYVAR
  2
AcDbDictionaryVar
  3
ObjectDBX Classes
 90
0
 91
0
280
0
281
0
  0
CLASS
  1
CELLSTYLEMAP
  2
AcDbCellStyleMap
  3
ObjectDBX Classes
 90
1152
 91
0
280
0
281
0
  0
CLASS
  1
MENTALRAYRENDERSETTINGS
  2
AcDbMentalRayRenderSettings
  3
SCENEOE
 90
1024
 91
0
280
0
281
0
  0
CLASS
  1
ACDBDETAILVIEWSTYLE
  2
AcDbDetailViewStyle
  3
ObjectDBX Classes
 90
1025
 91
0
280
0
281
0
  0
CLASS
  1
ACDBSECTIONVIEWSTYLE
  2
AcDbSectionViewStyle
  3
ObjectDBX Classes
 90
1025
 91
0
280
0
281
0
  0
CLASS
  1
RASTERVARIABLES
  2
AcDbRasterVariables
  3
ISM
 90
0
 91
0
280
0
281
0
  0
CLASS
  1
ACDBPLACEHOLDER
  2
AcDbPlaceHolder
  3
ObjectDBX Classes
 90
0
 91
0
280
0
281
0
  0
CLASS
  1
LAYOUT
  2
AcDbLayout
  3
ObjectDBX Classes
 90
0
 91
0
280
0
281
0
  0
ENDSEC
  0
SECTION
  2
TABLES
  0
TABLE
  2
VPORT
  5
8
330
0
100
AcDbSymbolTable
 70
1
  0
VPORT
  5
23
330
8
100
AcDbSymbolTableRecord
100
AcDbViewportTableRecord
  2
*Active
 70
0
 10
0.0
 20
0.0
 11
1.0
 21
1.0
 12
0.0
 22
0.0
 13
0.0
 23
0.0
 14
0.5
 24
0.5
 15
0.5
 25
0.5
 16
0.0
 26
0.0
 36
1.0
 17
0.0
 27
0.0
 37
0.0
 40
1000.0
 41
1.34
 42
50.0
 43
0.0
 44
0.0
 50
0.0
 51
0.0
 71
0
 72
1000
 73
1
 74
3
 75
0
 76
0
 77
0
 78
0
281
0
 65
0
146
0.0
  0
ENDTAB
  0
TABLE
  2
LTYPE
  5
2
330
0
100
AcDbSymbolTable
 70
3
  0
LTYPE
  5
24
330
2
100
AcDbSymbolTableRecord
100
AcDbLinetypeTableRecord
  2
ByBlock
 70
0
  3

 72
65
 73
0
 40
0.0
  0
LTYPE
  5
25
330
2
100
AcDbSymbolTableRecord
100
AcDbLinetypeTableRecord
  2
ByLayer
 70
0
  3

 72
65
 73
0
 40
0.0
  0
LTYPE
  5
26
330
2
100
AcDbSymbolTableRecord
100
AcDbLinetypeTableRecord
  2
Continuous
 70
0
  3

 72
65
 73
0
 40
0.0
  0
ENDTAB
  0
TABLE
  2
LAYER
  5
1
330
0
100
AcDbSymbolTable
 70
2
  0
LAYER
  5
27
330
1
100
AcDbSymbolTableRecord
100
AcDbLayerTableRecord
  2
0
 70
0
 62
7
  6
Continuous
370
-3
390
13
347
21
  0
LAYER
  5
28
330
1
100
AcDbSymbolTableRecord
100
AcDbLayerTableRecord
  2
Defpoints
 70
0
 62
7
  6
Continuous
290
0
370
-3
390
13
347
21
  0
ENDTAB
  0
TABLE
  2
STYLE
  5
5
330
0
100
AcDbSymbolTable
 70
1
  0
STYLE
  5
29
330
5
100
AcDbSymbolTableRecord
100
AcDbTextStyleTableRecord
  2
Standard
 70
0
 40
0.0
 41
1.0
 50
0.0
 71
0
 42
2.5
  3
txt
  4

  0
ENDTAB
  0
TABLE
  2
VIEW
  5
7
330
0
100
AcDbSymbolTable
 70
0
  0
ENDTAB
  0
TABLE
  2
UCS
  5
6
330
0
100
AcDbSymbolTable
 70
0
  0
ENDTAB
  0
TABLE
  2
APPID
  5
3
330
0
100
AcDbSymbolTable
 70
3
  0
APPID
  5
2A
330
3
100
AcDbSymbolTableRecord
100
AcDbRegAppTableRecord
  2
ACAD
 70
0
  0
APPID
  5
3A
330
3
100
AcDbSymbolTableRecord
100
AcDbRegAppTableRecord
  2
HATCHBACKGROUNDCOLOR
 70
0
  0
APPID
  5
3B
330
3
100
AcDbSymbolTableRecord
100
AcDbRegAppTableRecord
  2
EZDXF
 70
0
  0
ENDTAB
  0
TABLE
  2
DIMSTYLE
  5
4
330
0
100
AcDbSymbolTable
 70
1
100
AcDbDimStyleTable
  0
DIMSTYLE
105
2B
330
4
100
AcDbSymbolTableRecord
100
AcDbDimStyleTableRecord
  2
Standard
 70
0
 40
1.0
 41
2.5
 42
0.625
 43
3.75
 44
1.25
 45
0.0
 46
0.0
 47
0.0
 48
0.0
 49
2.5
140
2.5
141
2.5
142
0.0
143
0.03937007874
144
1.0
145
0.0
146
1.0
147
0.625
148
0.0
 69
0
 70
0
 71
0
 72
0
 73
0
 74
0
 75
0
 76
0
 77
1
 78
8
 79
3
170
0
171
3
172
1
173
0
174
0
175
0
176
0
177
0
178
0
179
2
271
2
272
2
273
2
274
3
275
0
276
0
277
2
278
44
279
0
280
0
281
0
282
0
283
0
284
8
285
0
286
0
288
0
289
3
290
0
371
-2
372
-2
  0
ENDTAB
  0
TABLE
  2
BLOCK_RECORD
  5
9
330
0
100
AcDbSymbolTable
 70
2
  0
BLOCK_RECORD
  5
17
330
9
100
AcDbSymbolTableRecord
100
AcDbBlockTableRecord
  2
*Model_Space
340
1A
 70
0
280
1
281
0
  0
BLOCK_RECORD
  5
1B
330
9
100
AcDbSymbolTableRecord
100
AcDbBlockTableRecord
  2
*Paper_Space
340
1E
 70
0
280
1
281
0
  0
ENDTAB
  0
ENDSEC
  0
SECTION
  2
BLOCKS
  0
BLOCK
  5
18
330
17
100
AcDbEntity
  8
0
100
AcDbBlockBegin
  2
*Model_Space
 70
0
 10
0.0
 20
0.0
 30
0.0
  3
*Model_Space
  1

  0
ENDBLK
  5
19
330
17
100
AcDbEntity
  8
0
100
AcDbBlockEnd
  0
BLOCK
  5
1C
330
1B
100
AcDbEntity
  8
0
100
AcDbBlockBegin
  2
*Paper_Space
 70
0
 10
0.0
 20
0.0
 30
0.0
  3
*Paper_Space
  1

  0
ENDBLK
  5
1D
330
1B
100
AcDbEntity
  8
0
100
AcDbBlockEnd
  0
ENDSEC
  0
SECTION
  2
ENTITIES
  0
LWPOLYLINE
  5
2F
330
17
100
AcDbEntity
  8
0
100
AcDbPolyline
 90
4
 70
1
 10
221.507558
 20
-65.443608
 10
221.507558
 20
-63.183007999999994
 10
211.802472
 20
-63.132208
 10
210.96097
 20
-65.494154
  0
LWPOLYLINE
  5
30
330
17
100
AcDbEntity
  8
0
100
AcDbPolyline
 90
71
 70
1
 10
280.407872
 20
-76.99527400000001
 10
281.88081800000003
 20
-76.98892400000001
 10
282.00629399999997
 20
-76.97063600000001
 10
282.127706
 20
-76.94091800000001
 10
282.244546
 20
-76.900278
 10
282.356306
 20
-76.84922399999999
 10
282.462224
 20
-76.788264
 10
282.561792
 20
-76.71816
 10
282.65424800000005
 20
-76.639166
 10
282.73908400000005
 20
-76.552044
 10
282.81579200000004
 20
-76.457302
 10
282.88361000000003
 20
-76.35570200000001
 10
282.94203000000005
 20
-76.24775199999999
 10
282.99054400000006
 20
-76.13370599999999
 10
283.02839
 20
-76.01432599999998
 10
283.05506
 20
-75.890374
 10
283.15208800000005
 20
-74.67371399999999
 10
283.19831600000003
 20
-74.42707999999998
 10
283.26359400000007
 20
-74.18933599999998
 10
283.3474140000001
 20
-73.96098999999998
 10
283.4492680000001
 20
-73.74254999999998
 10
283.56864800000005
 20
-73.53452399999998
 10
283.7053000000001
 20
-73.33767399999998
 10
283.8587160000001
 20
-73.15250799999998
 10
284.02838800000006
 20
-72.97953399999999
 10
284.2138080000001
 20
-72.819514
 10
284.41472200000004
 20
-72.672702
 10
284.630622
 20
-72.53985999999999
 10
284.861
 20
-72.42175
 10
285.105348
 20
-72.318626
 10
285.36341200000004
 20
-72.23125
 10
285.72231400000004
 20
-72.142858
 10
285.959804
 20
-72.11745799999998
 10
298.097956
 20
-72.113648
 10
298.08551
 20
-65.355724
 10
298.049188
 20
-65.11772599999999
 10
297.99000600000005
 20
-64.887856
 10
297.909488
 20
-64.667638
 10
297.80865000000006
 20
-64.458088
 10
297.68850800000007
 20
-64.260476
 10
297.55058600000007
 20
-64.075818
 10
297.3959000000001
 20
-63.905638
 10
297.2257200000001
 20
-63.750952
 10
297.04106200000007
 20
-63.612776
 10
296.8434500000001
 20
-63.492633999999995
 10
296.63390000000004
 20
-63.391541999999994
 10
296.41368200000005
 20
-63.31076999999999
 10
296.18381200000005
 20
-63.25158799999999
 10
295.9458140000001
 20
-63.21526599999999
 10
243.7597360000001
 20
-63.34023399999999
 10
243.7384000000001
 20
-66.57797199999999
 10
243.6756620000001
 20
-66.98792799999998
 10
243.57380800000013
 20
-67.38340599999998
 10
243.4348700000001
 20
-67.76262799999998
 10
243.26088000000013
 20
-68.12330799999998
 10
243.0538700000001
 20
-68.46366799999998
 10
242.8161260000001
 20
-68.78142199999998
 10
242.54942600000012
 20
-69.07428399999998
 10
242.25605600000011
 20
-69.34047599999998
 10
241.93804800000012
 20
-69.57796599999998
 10
241.59743400000013
 20
-69.78446799999998
 10
241.23650000000012
 20
-69.95794999999997
 10
240.8570240000001
 20
-70.09637999999998
 10
240.4612920000001
 20
-70.19772599999997
 10
240.0513360000001
 20
-70.25970199999999
 10
224.7831420000001
 20
-70.25919399999998
 10
223.3754740000001
 20
-69.85304799999999
 10
209.40852200000012
 20
-69.85304799999999
 10
206.90357400000013
 20
-76.88503799999998
 10
222.6175380000001
 20
-76.78293
 10
223.24009200000012
 20
-76.995528
  0
LWPOLYLINE
  5
31
330
17
100
AcDbEntity
  8
0
100
AcDbPolyline
 90
6
 70
1
 10
179.04307600000013
 20
-63.33947199999999
 10
179.02732800000013
 20
-63.32931199999999
 10
178.99430800000013
 20
-63.320421999999986
 10
175.7888280000001
 20
-63.33947199999999
 10
170.8091580000001
 20
-76.90611999999997
 10
174.2605100000001
 20
-76.90611999999997
  0
LWPOLYLINE
  5
32
330
17
100
AcDbEntity
  8
0
100
AcDbPolyline
 90
34
 70
1
 10
297.7050180000001
 20
-73.15377799999997
 10
285.4601860000001
 20
-73.16317599999996
 10
285.2783220000001
 20
-73.19086199999997
 10
285.1025540000001
 20
-73.23607399999996
 10
284.9341520000001
 20
-73.29779599999996
 10
284.7738780000001
 20
-73.37501199999996
 10
284.6227480000001
 20
-73.46670599999995
 10
284.4815240000001
 20
-73.57211599999995
 10
284.3514760000001
 20
-73.69047999999997
 10
284.2331120000001
 20
-73.82052799999995
 10
284.1277020000001
 20
-73.96175199999996
 10
284.0360080000001
 20
-74.11288199999996
 10
283.9587920000001
 20
-74.27315599999996
 10
283.8970700000001
 20
-74.44155799999996
 10
283.85185800000005
 20
-74.61732599999996
 10
283.8241720000001
 20
-74.79918999999997
 10
283.81477400000006
 20
-81.78545999999996
 10
295.8307520000001
 20
-81.78012599999995
 10
295.9328600000001
 20
-81.76463199999996
 10
296.0314120000001
 20
-81.73923199999996
 10
296.1259000000001
 20
-81.70468799999995
 10
296.21581600000013
 20
-81.66125399999996
 10
296.3006520000001
 20
-81.60969199999995
 10
296.3799000000001
 20
-81.55050999999996
 10
296.4530520000001
 20
-81.48421599999995
 10
296.5193460000001
 20
-81.41106399999995
 10
296.57852800000006
 20
-81.33181599999995
 10
296.63009000000005
 20
-81.24697999999995
 10
296.6735240000001
 20
-81.15706399999995
 10
296.7080680000001
 20
-81.06257599999995
 10
296.7334680000001
 20
-80.96402399999995
 10
296.748962
 20
-80.86191599999995
 10
296.754296
 20
-76.18044199999996
 10
297.704764
 20
-74.62469199999995
  0
LWPOLYLINE
  5
33
330
17
100
AcDbEntity
  8
0
100
AcDbPolyline
 90
48
 70
1
 10
222.61703000000003
 20
-77.46974599999994
 10
213.927436
 20
-77.46974599999994
 10
213.07856800000002
 20
-81.13140999999995
 10
213.027768
 20
-81.29371599999995
 10
212.963506
 20
-81.44916399999995
 10
212.886544
 20
-81.59699199999996
 10
212.79739
 20
-81.73643799999995
 10
212.69706
 20
-81.86699399999995
 10
212.586062
 20
-81.98815199999994
 10
212.465412
 20
-82.09914999999995
 10
212.335618
 20
-82.19947999999995
 10
212.197442
 20
-82.28837999999995
 10
212.05190000000002
 20
-82.36534199999996
 10
211.8995
 20
-82.42960399999994
 10
211.74075
 20
-82.48065799999995
 10
211.57666600000002
 20
-82.51799599999995
 10
211.40801000000002
 20
-82.54085599999995
 10
210.65185200000002
 20
-82.54872999999995
 10
206.902812
 20
-98.67087199999995
 10
206.98612400000002
 20
-98.67595199999994
 10
207.211422
 20
-98.70871799999995
 10
207.54213000000001
 20
-98.79609399999995
 10
207.735424
 20
-98.86848399999995
 10
207.941418
 20
-98.96449599999995
 10
208.15528600000002
 20
-99.08743199999995
 10
208.372456
 20
-99.24084799999994
 10
208.588356
 20
-99.42779199999994
 10
208.798414
 20
-99.65181999999994
 10
208.99805800000001
 20
-99.91597999999995
 10
209.18246200000002
 20
-100.22382799999994
 10
209.347308
 20
-100.57866599999994
 10
209.48777
 20
-100.98379599999994
 10
210.70951
 20
-96.27082599999994
 10
210.99652999999998
 20
-95.52076399999996
 10
211.34146199999998
 20
-94.79813399999995
 10
211.74328999999997
 20
-94.10776199999994
 10
212.200744
 20
-93.45396599999994
 10
212.71255399999998
 20
-92.84131799999994
 10
213.27745
 20
-92.27438999999994
 10
213.894162
 20
-91.75775399999993
 10
214.41791
 20
-91.39046999999994
 10
214.997792
 20
-91.04858599999993
 10
215.627966
 20
-90.74327799999993
 10
216.30208199999998
 20
-90.48572199999992
 10
217.01379
 20
-90.28709399999994
 10
217.757248
 20
-90.15856999999994
 10
218.52610600000003
 20
-90.11107199999994
 10
219.31452200000004
 20
-90.15602999999994
  0
LWPOLYLINE
  5
34
330
17
100
AcDbEntity
  8
0
100
AcDbPolyline
 90
104
 70
1
 10
224.728532
 20
-77.59522199999994
 10
222.52787600000002
 20
-85.59342799999993
 10
222.663258
 20
-85.49563799999994
 10
222.80727600000003
 20
-85.40826199999994
 10
222.95942200000005
 20
-85.33206199999994
 10
223.11918800000004
 20
-85.26779999999994
 10
223.28581200000002
 20
-85.21649199999995
 10
223.45878600000003
 20
-85.17889999999993
 10
223.63734800000003
 20
-85.15578599999994
 10
223.82124400000004
 20
-85.14791199999993
 10
224.02469800000006
 20
-85.15730999999992
 10
224.22231000000005
 20
-85.18474199999993
 10
224.41306400000005
 20
-85.22944599999992
 10
224.59594400000006
 20
-85.29040599999992
 10
224.76993400000003
 20
-85.36685999999992
 10
224.93401800000004
 20
-85.45779199999993
 10
225.08718000000002
 20
-85.56218599999993
 10
225.22840400000004
 20
-85.67927999999992
 10
225.356928
 20
-85.80805799999993
 10
225.47148200000004
 20
-85.94775799999994
 10
225.57105000000004
 20
-86.09736399999993
 10
225.65487000000005
 20
-86.25585999999994
 10
225.72167200000007
 20
-86.42248399999994
 10
225.77069400000005
 20
-86.59621999999995
 10
225.80092000000008
 20
-86.77630599999995
 10
225.81108000000006
 20
-86.96172599999996
 10
225.80092000000008
 20
-87.14714599999995
 10
225.77069400000005
 20
-87.32723199999995
 10
225.72167200000007
 20
-87.50096799999996
 10
225.65487000000005
 20
-87.66759199999997
 10
225.57105000000004
 20
-87.82608799999997
 10
225.47148200000004
 20
-87.97569399999998
 10
225.356928
 20
-88.11539399999997
 10
225.22840400000004
 20
-88.24417199999998
 10
225.08718000000002
 20
-88.36126599999997
 10
224.93401800000004
 20
-88.46565999999997
 10
224.76993400000003
 20
-88.55659199999998
 10
224.59594400000006
 20
-88.63304599999998
 10
224.41306400000005
 20
-88.69400599999997
 10
224.22231000000005
 20
-88.73870999999997
 10
224.02469800000006
 20
-88.76614199999997
 10
223.82124400000004
 20
-88.77553999999996
 10
223.66452600000005
 20
-88.76995199999998
 10
223.51111000000003
 20
-88.75344199999998
 10
223.36175800000004
 20
-88.72651799999997
 10
223.21672400000006
 20
-88.68968799999998
 10
223.07626200000004
 20
-88.64320599999998
 10
222.94113400000003
 20
-88.58757999999999
 10
222.81159400000004
 20
-88.52306399999998
 10
222.68815000000004
 20
-88.45041999999998
 10
222.57105600000003
 20
-88.36964799999998
 10
222.46107400000002
 20
-88.28150999999998
 10
222.35845800000004
 20
-88.18625999999999
 10
222.26346200000003
 20
-88.08440599999999
 10
222.17684800000004
 20
-87.97620199999999
 10
222.09887000000003
 20
-87.86215599999998
 10
222.03003600000002
 20
-87.74277599999998
 10
221.97085400000006
 20
-87.61831599999998
 10
221.06483600000004
 20
-90.91117199999998
 10
247.38634800000005
 20
-90.91117199999998
 10
247.70664200000004
 20
-90.44127199999997
 10
248.05436800000007
 20
-90.02420399999997
 10
248.42292200000006
 20
-89.65691999999996
 10
248.80544600000005
 20
-89.33611799999997
 10
249.19533600000005
 20
-89.05874999999997
 10
249.97105200000004
 20
-88.62237799999997
 10
250.69723800000006
 20
-88.32265799999996
 10
251.32080800000006
 20
-88.13495199999997
 10
252.04801000000006
 20
-87.99601399999996
 10
252.08280800000006
 20
-87.99245799999996
 10
249.84964000000005
 20
-86.79941999999997
 10
249.86767400000005
 20
-86.10244399999995
 10
249.87732600000007
 20
-86.03614999999995
 10
249.89231200000006
 20
-85.97163399999994
 10
249.91237800000005
 20
-85.90914999999995
 10
249.93727000000004
 20
-85.84869799999996
 10
249.96673400000003
 20
-85.79078599999994
 10
250.00077000000002
 20
-85.73541399999995
 10
250.03912400000002
 20
-85.68308999999994
 10
250.08128800000003
 20
-85.63406799999994
 10
250.12751600000004
 20
-85.58834799999994
 10
250.17730000000003
 20
-85.54643799999994
 10
250.23038600000004
 20
-85.50859199999994
 10
250.28677400000004
 20
-85.47480999999993
 10
250.34621000000004
 20
-85.44559999999994
 10
250.40844000000004
 20
-85.42121599999993
 10
253.23698400000004
 20
-84.75040199999994
 10
254.36880800000003
 20
-84.65946999999993
 10
281.734514
 20
-84.57869799999993
 10
281.782774
 20
-84.57107799999994
 10
281.82951
 20
-84.55888599999994
 10
281.874214
 20
-84.54237599999995
 10
281.916632
 20
-84.52180199999994
 10
281.95676399999996
 20
-84.49741799999994
 10
281.99410199999994
 20
-84.46922399999994
 10
282.0286459999999
 20
-84.43772799999994
 10
282.0601419999999
 20
-84.40318399999992
 10
282.08808199999993
 20
-84.36559199999992
 10
282.1124659999999
 20
-84.32545999999992
 10
282.1330399999999
 20
-84.28278799999991
 10
282.1492959999999
 20
-84.23808399999992
 10
282.1612339999999
 20
-84.1913479999999
 10
282.1685999999999
 20
-84.1430879999999
 10
282.1711399999999
 20
-77.47050799999991
  0
LWPOLYLINE
  5
35
330
17
100
AcDbEntity
  8
0
100
AcDbPolyline
 90
10
 70
1
 10
242.80901399999993
 20
-68.95947599999992
 10
242.75389599999994
 20
-69.05751999999993
 10
242.69115799999994
 20
-69.15124599999993
 10
242.61952999999994
 20
-69.23938399999993
 10
242.53748799999994
 20
-69.32066399999992
 10
242.27840799999993
 20
-69.53173799999993
 10
241.73535599999994
 20
-69.88530599999993
 10
241.45341599999992
 20
-70.03364199999993
 10
288.04692199999994
 20
-69.90689599999993
 10
294.55465599999997
 20
-69.05980599999994
  0
LWPOLYLINE
  5
36
330
17
100
AcDbEntity
  8
0
100
AcDbPolyline
 90
87
 70
1
 10
175.70399199999994
 20
-114.50396199999993
 10
179.17032999999998
 20
-108.59566799999992
 10
180.07406199999997
 20
-106.50702599999993
 10
180.50865599999997
 20
-105.15650799999992
 10
180.82183799999996
 20
-103.76179399999992
 10
180.99912999999995
 20
-102.34498199999993
 10
181.02579999999995
 20
-100.92867799999992
 10
180.88736999999998
 20
-99.53548799999992
 10
180.75148
 20
-98.85451399999992
 10
180.56885399999996
 20
-98.18750999999993
 10
180.33771399999998
 20
-97.53752399999992
 10
180.05602799999997
 20
-96.90734999999992
 10
179.72227199999998
 20
-96.29952799999992
 10
179.17083799999995
 20
-95.50069799999993
 10
176.28895399999996
 20
-92.25610199999994
 10
175.99202799999995
 20
-91.79153599999994
 10
175.73624999999998
 20
-91.30080799999993
 10
175.53127199999997
 20
-90.79052199999992
 10
175.386746
 20
-90.26728199999992
 10
175.312324
 20
-89.73794599999992
 10
175.30445
 20
-89.47302399999992
 10
175.317658
 20
-89.20911799999992
 10
175.352964
 20
-88.94724399999993
 10
175.411892
 20
-88.68790999999992
 10
175.49545799999999
 20
-88.43213199999992
 10
175.66817799999995
 20
-88.05697399999993
 10
175.88331599999995
 20
-87.72042399999992
 10
176.13731599999997
 20
-87.42044999999993
 10
176.42662199999995
 20
-87.15476599999994
 10
176.74767799999998
 20
-86.92159399999993
 10
177.09667399999998
 20
-86.71890199999993
 10
177.4698
 20
-86.54465799999994
 10
178.274726
 20
-86.27313199999993
 10
179.13324599999999
 20
-86.09075999999993
 10
180.89422799999997
 20
-85.92794599999992
 10
197.03160999999997
 20
-85.74201799999992
 10
198.09307599999997
 20
-85.88019399999992
 10
198.609458
 20
-86.00516199999991
 10
199.112632
 20
-86.17686599999992
 10
199.35824999999997
 20
-86.28252999999991
 10
199.647302
 20
-86.43213599999991
 10
199.919336
 20
-86.60485599999991
 10
200.17359
 20
-86.79891199999992
 10
200.40955599999998
 20
-87.0127799999999
 10
200.62621799999997
 20
-87.24493599999991
 10
200.82281399999997
 20
-87.49360199999991
 10
200.99858199999997
 20
-87.7569999999999
 10
201.15275999999997
 20
-88.0336059999999
 10
201.28458599999996
 20
-88.3216419999999
 10
201.39355199999994
 20
-88.6195839999999
 10
201.47864199999995
 20
-88.9256539999999
 10
201.53909399999998
 20
-89.2380739999999
 10
201.57414599999998
 20
-89.55531999999991
 10
201.58328999999998
 20
-89.87561399999991
 10
201.56550999999996
 20
-90.19743199999992
 10
186.71920999999995
 20
-148.30475799999994
 10
186.35548199999994
 20
-149.3273619999999
 10
186.12332599999993
 20
-149.80742199999992
 10
185.84722799999994
 20
-150.2521759999999
 10
185.69025599999995
 20
-150.4581699999999
 10
185.51931399999992
 20
-150.65146399999992
 10
185.33363999999995
 20
-150.83053399999991
 10
185.13196399999995
 20
-150.9943639999999
 10
184.91352399999994
 20
-151.1414299999999
 10
184.57621199999994
 20
-151.3174519999999
 10
184.22238999999993
 20
-151.45003999999992
 10
183.85535999999993
 20
-151.54503599999993
 10
183.0938679999999
 20
-151.64638199999993
 10
167.07967599999992
 20
-150.9555019999999
 10
166.81094399999992
 20
-150.9013999999999
 10
166.5500859999999
 20
-150.82799399999993
 10
166.30040399999993
 20
-150.73071199999993
 10
166.0649459999999
 20
-150.6054899999999
 10
165.95343999999992
 20
-150.5310679999999
 10
165.84675999999993
 20
-150.4480099999999
 10
165.68267599999993
 20
-150.2920539999999
 10
165.54246799999993
 20
-150.1216199999999
 10
165.4246119999999
 20
-149.93823199999989
 10
165.32758399999994
 20
-149.74315999999988
 10
165.25011399999994
 20
-149.53792799999988
 10
165.19067799999993
 20
-149.32355199999986
 10
165.12006599999992
 20
-148.87346399999984
 10
165.10380999999995
 20
-148.40381799999983
 10
165.18839199999994
 20
-147.44877799999983
 10
167.65320799999992
 20
-135.09853599999983
 10
169.7951899999999
 20
-127.33502599999983
 10
172.73473199999992
 20
-119.89028599999983
  0
LWPOLYLINE
  5
37
330
17
100
AcDbEntity
  8
0
100
AcDbPolyline
 90
59
 70
1
 10
194.96862199999993
 20
-84.29497999999982
 10
190.35242599999995
 20
-83.85886199999983
 10
185.78194999999994
 20
-83.07882799999983
 10
181.28259399999996
 20
-81.95970399999983
 10
176.87975799999995
 20
-80.50606199999982
 10
176.75072599999996
 20
-80.83422999999982
 10
176.59248399999993
 20
-81.14791999999981
 10
176.40706399999993
 20
-81.44611599999982
 10
176.19675199999995
 20
-81.72729399999982
 10
175.96332599999994
 20
-81.99043799999983
 10
175.70881799999995
 20
-82.23402399999982
 10
175.43551399999996
 20
-82.45678199999982
 10
175.14519199999995
 20
-82.65744199999983
 10
174.84013799999994
 20
-82.83473399999983
 10
174.52212999999995
 20
-82.98738799999983
 10
174.19345399999995
 20
-83.11387999999982
 10
173.85614199999995
 20
-83.21319399999983
 10
173.51197199999996
 20
-83.28380599999983
 10
173.16322999999994
 20
-83.32469999999984
 10
172.81194799999994
 20
-83.33435199999984
 10
172.28184999999993
 20
-83.28812399999983
 10
170.84573399999994
 20
-83.03513999999983
 10
170.49368999999996
 20
-83.01481999999984
 10
170.32020799999995
 20
-83.02040799999983
 10
170.14875799999996
 20
-83.03844199999985
 10
169.97959399999993
 20
-83.07095399999984
 10
169.81296999999995
 20
-83.11946799999983
 10
169.64939399999997
 20
-83.18550799999983
 10
169.49115199999994
 20
-83.26958199999983
 10
169.34535599999995
 20
-83.36813399999983
 10
169.21149799999995
 20
-83.47963999999983
 10
169.08856199999994
 20
-83.60308399999982
 10
168.97603999999995
 20
-83.73744999999982
 10
168.77969799999994
 20
-84.03412199999983
 10
168.61688399999994
 20
-84.36051199999984
 10
168.37024999999994
 20
-85.06536199999984
 10
168.23258199999995
 20
-85.60384199999983
 10
169.01921999999993
 20
-85.78875399999984
 10
169.78706199999993
 20
-86.03970599999984
 10
170.53153599999996
 20
-86.35364999999983
 10
171.24806999999996
 20
-86.72753799999983
 10
171.93183799999997
 20
-87.15832199999984
 10
172.57852199999996
 20
-87.64320799999983
 10
173.18354999999997
 20
-88.17914799999984
 10
173.74234999999996
 20
-88.76309399999982
 10
173.85131599999997
 20
-88.36380599999983
 10
173.99863599999998
 20
-87.97112199999984
 10
174.18557999999996
 20
-87.58605799999982
 10
174.41316399999997
 20
-87.20962999999982
 10
174.68265799999998
 20
-86.84310799999983
 10
174.99507799999998
 20
-86.48776199999982
 10
175.35169399999998
 20
-86.14435399999984
 10
175.75352199999998
 20
-85.81415399999983
 10
176.48250199999998
 20
-85.33587199999984
 10
177.24754999999996
 20
-84.96833399999983
 10
178.04231599999997
 20
-84.69452199999984
 10
178.86095799999995
 20
-84.49767199999984
 10
182.25211199999995
 20
-84.14181799999984
 10
194.99300599999995
 20
-84.32926999999984
  0
LWPOLYLINE
  5
38
330
17
100
AcDbEntity
  8
0
100
AcDbPolyline
 90
13
 70
1
 10
181.25389199999995
 20
-79.34731399999983
 10
178.87314999999995
 20
-79.38515999999983
 10
180.52897599999994
 20
-80.15274799999983
 10
184.37377399999997
 20
-81.38617199999983
 10
188.27140399999996
 20
-82.28609399999984
 10
192.23431199999996
 20
-82.76437599999983
 10
193.23583399999995
 20
-82.80628599999983
 10
196.79818399999996
 20
-82.64245599999984
 10
200.40879399999997
 20
-81.97392799999983
 10
202.17587199999997
 20
-81.44916399999984
 10
203.88732399999998
 20
-80.79638399999985
 10
205.52054399999997
 20
-80.01533399999984
 10
207.05317999999997
 20
-79.10525199999984
  0
LWPOLYLINE
  5
39
330
17
100
AcDbEntity
  8
0
100
AcDbPolyline
 90
27
 70
1
 10
202.78216999999998
 20
-88.33484999999983
 10
202.83754199999996
 20
-88.72194599999983
 10
202.84871799999996
 20
-89.58351399999984
 10
202.62773799999997
 20
-91.35084599999985
 10
201.50962999999996
 20
-97.01148999999984
 10
201.88834399999996
 20
-96.77628599999984
 10
202.28331399999993
 20
-96.57105399999985
 10
202.6917459999999
 20
-96.39782599999984
 10
203.11084599999992
 20
-96.25812599999985
 10
203.53781999999993
 20
-96.15398599999983
 10
203.96987399999992
 20
-96.08718399999984
 10
204.40446799999992
 20
-96.05949799999985
 10
204.83880799999994
 20
-96.07270599999985
 10
208.31073399999994
 20
-80.01990599999985
 10
205.82051799999994
 20
-81.43824199999986
 10
203.20355599999994
 20
-82.60714999999985
 10
200.48575599999992
 20
-83.51672399999985
 10
197.69226399999994
 20
-84.15680399999985
 10
200.26756999999992
 20
-85.22588999999985
 10
200.66431799999992
 20
-85.45093399999986
 10
201.03185599999992
 20
-85.70721999999986
 10
201.66609399999993
 20
-86.26271799999986
 10
201.9338099999999
 20
-86.55354799999985
 10
202.1685059999999
 20
-86.85961799999986
 10
202.3706899999999
 20
-87.18575399999985
 10
202.54036199999993
 20
-87.53703599999984
 10
202.67752199999993
 20
-87.91854399999986
  0
ENDSEC
  0
SECTION
  2
OBJECTS
  0
DICTIONARY
  5
A
330
0
100
AcDbDictionary
281
1
  3
ACAD_COLOR
350
B
  3
ACAD_GROUP
350
C
  3
ACAD_LAYOUT
350
D
  3
ACAD_MATERIAL
350
E
  3
ACAD_MLEADERSTYLE
350
F
  3
ACAD_MLINESTYLE
350
10
  3
ACAD_PLOTSETTINGS
350
11
  3
ACAD_PLOTSTYLENAME
350
12
  3
ACAD_SCALELIST
350
14
  3
ACAD_TABLESTYLE
350
15
  3
ACAD_VISUALSTYLE
350
16
  3
EZDXF_META
350
2D
  0
DICTIONARY
  5
B
330
A
100
AcDbDictionary
281
1
  0
DICTIONARY
  5
C
330
A
100
AcDbDictionary
281
1
  0
DICTIONARY
  5
D
330
A
100
AcDbDictionary
281
1
  3
Model
350
1A
  3
Layout1
350
1E
  0
DICTIONARY
  5
E
330
A
100
AcDbDictionary
281
1
  3
ByBlock
350
1F
  3
ByLayer
350
20
  3
Global
350
21
  0
DICTIONARY
  5
F
330
A
100
AcDbDictionary
281
1
  3
Standard
350
2C
  0
DICTIONARY
  5
10
330
A
100
AcDbDictionary
281
1
  3
Standard
350
22
  0
DICTIONARY
  5
11
330
A
100
AcDbDictionary
281
1
  0
ACDBDICTIONARYWDFLT
  5
12
330
A
100
AcDbDictionary
281
1
  3
Normal
350
13
100
AcDbDictionaryWithDefault
340
13
  0
ACDBPLACEHOLDER
  5
13
330
12
  0
DICTIONARY
  5
14
330
A
100
AcDbDictionary
281
1
  0
DICTIONARY
  5
15
330
A
100
AcDbDictionary
281
1
  0
DICTIONARY
  5
16
330
A
100
AcDbDictionary
281
1
  0
LAYOUT
  5
1A
330
D
100
AcDbPlotSettings
  1

  4
A3
  6

 40
7.5
 41
20.0
 42
7.5
 43
20.0
 44
420.0
 45
297.0
 46
0.0
 47
0.0
 48
0.0
 49
0.0
140
0.0
141
0.0
142
1.0
143
1.0
 70
1024
 72
1
 73
0
 74
5
  7

 75
16
 76
0
 77
2
 78
300
147
1.0
148
0.0
149
0.0
100
AcDbLayout
  1
Model
 70
1
 71
0
 10
0.0
 20
0.0
 11
420.0
 21
297.0
 12
0.0
 22
0.0
 32
0.0
 14
1e+20
 24
1e+20
 34
1e+20
 15
-1e+20
 25
-1e+20
 35
-1e+20
146
0.0
 13
0.0
 23
0.0
 33
0.0
 16
1.0
 26
0.0
 36
0.0
 17
0.0
 27
1.0
 37
0.0
 76
1
330
17
  0
LAYOUT
  5
1E
330
D
100
AcDbPlotSettings
  1

  4
A3
  6

 40
7.5
 41
20.0
 42
7.5
 43
20.0
 44
420.0
 45
297.0
 46
0.0
 47
0.0
 48
0.0
 49
0.0
140
0.0
141
0.0
142
1.0
143
1.0
 70
0
 72
1
 73
0
 74
5
  7

 75
16
 76
0
 77
2
 78
300
147
1.0
148
0.0
149
0.0
100
AcDbLayout
  1
Layout1
 70
1
 71
1
 10
0.0
 20
0.0
 11
420.0
 21
297.0
 12
0.0
 22
0.0
 32
0.0
 14
1e+20
 24
1e+20
 34
1e+20
 15
-1e+20
 25
-1e+20
 35
-1e+20
146
0.0
 13
0.0
 23
0.0
 33
0.0
 16
1.0
 26
0.0
 36
0.0
 17
0.0
 27
1.0
 37
0.0
 76
1
330
1B
  0
MATERIAL
  5
1F
102
{ACAD_REACTORS
330
E
102
}
330
E
100
AcDbMaterial
  1
ByBlock
  2

 70
0
 40
1.0
 71
1
 41
1.0
 91
-1023410177
 42
1.0
 72
1
  3

 73
1
 74
1
 75
1
 44
0.5
 73
0
 45
1.0
 46
1.0
 77
1
  4

 78
1
 79
1
170
1
 48
1.0
171
1
  6

172
1
173
1
174
1
140
1.0
141
1.0
175
1
  7

176
1
177
1
178
1
143
1.0
179
1
  8

270
1
271
1
272
1
145
1.0
146
1.0
273
1
  9

274
1
275
1
276
1
 42
1.0
 72
1
  3

 73
1
 74
1
 75
1
 94
63
  0
MATERIAL
  5
20
102
{ACAD_REACTORS
330
E
102
}
330
E
100
AcDbMaterial
  1
ByLayer
  2

 70
0
 40
1.0
 71
1
 41
1.0
 91
-1023410177
 42
1.0
 72
1
  3

 73
1
 74
1
 75
1
 44
0.5
 73
0
 45
1.0
 46
1.0
 77
1
  4

 78
1
 79
1
170
1
 48
1.0
171
1
  6

172
1
173
1
174
1
140
1.0
141
1.0
175
1
  7

176
1
177
1
178
1
143
1.0
179
1
  8

270
1
271
1
272
1
145
1.0
146
1.0
273
1
  9

274
1
275
1
276
1
 42
1.0
 72
1
  3

 73
1
 74
1
 75
1
 94
63
  0
MATERIAL
  5
21
102
{ACAD_REACTORS
330
E
102
}
330
E
100
AcDbMaterial
  1
Global
  2

 70
0
 40
1.0
 71
1
 41
1.0
 91
-1023410177
 42
1.0
 72
1
  3

 73
1
 74
1
 75
1
 44
0.5
 73
0
 45
1.0
 46
1.0
 77
1
  4

 78
1
 79
1
170
1
 48
1.0
171
1
  6

172
1
173
1
174
1
140
1.0
141
1.0
175
1
  7

176
1
177
1
178
1
143
1.0
179
1
  8

270
1
271
1
272
1
145
1.0
146
1.0
273
1
  9

274
1
275
1
276
1
 42
1.0
 72
1
  3

 73
1
 74
1
 75
1
 94
63
  0
MLINESTYLE
  5
22
102
{ACAD_REACTORS
330
10
102
}
330
10
100
AcDbMlineStyle
  2
Standard
 70
0
  3

 62
256
 51
90.0
 52
90.0
 71
2
 49
0.5
 62
256
  6
BYLAYER
 49
-0.5
 62
256
  6
BYLAYER
  0
MLEADERSTYLE
  5
2C
102
{ACAD_REACTORS
330
F
102
}
330
F
100
AcDbMLeaderStyle
179
2
170
2
171
1
172
0
 90
2
 40
0.0
 41
0.0
173
1
 91
-1056964608
 92
-2
290
1
 42
2.0
291
1
 43
8.0
  3
Standard
 44
4.0
300

342
29
174
1
175
1
176
0
178
1
 93
-1056964608
 45
4.0
292
0
297
0
 46
4.0
 94
-1056964608
 47
1.0
 49
1.0
140
1.0
294
1
141
0.0
177
0
142
1.0
295
0
296
0
143
3.75
271
0
272
9
273
9
  0
DICTIONARY
  5
2D
330
A
100
AcDbDictionary
280
1
281
1
  3
CREATED_BY_EZDXF
350
2E
  3
WRITTEN_BY_EZDXF
350
3C
  0
DICTIONARYVAR
  5
2E
330
2D
100
DictionaryVariables
280
0
  1
1.4.3 @ 2026-04-12T00:41:30.078173+00:00
  0
DICTIONARYVAR
  5
3C
330
2D
100
DictionaryVariables
280
0
  1
1.4.3 @ 2026-04-12T00:41:30.079575+00:00
  0
ENDSEC
  0
EOF
