  0
SECTION
  2
HEADER
  9
$ACADVER
  1
AC1024
  9
$ACADMAINTVER
 70
6
  9
$DWGCODEPAGE
  3
ANSI_1252
  9
$LASTSAVEDBY
  1
ezdxf
  9
$INSBASE
 10
0.0
 20
0.0
 30
0.0
  9
$EXTMIN
 10
1e+20
 20
1e+20
 30
1e+20
  9
$EXTMAX
 10
-1e+20
 20
-1e+20
 30
-1e+20
  9
$LIMMIN
 10
0.0
 20
0.0
  9
$LIMMAX
 10
420.0
 20
297.0
  9
$ORTHOMODE
 70
0
  9
$REGENMODE
 70
1
  9
$FILLMODE
 70
1
  9
$QTEXTMODE
 70
0
  9
$MIRRTEXT
 70
1
  9
$LTSCALE
 40
1.0
  9
$ATTMODE
 70
1
  9
$TEXTSIZE
 40
2.5
  9
$TRACEWID
 40
1.0
  9
$TEXTSTYLE
  7
Standard
  9
$CLAYER
  8
0
  9
$CELTYPE
  6
ByLayer
  9
$CECOLOR
 62
256
  9
$CELTSCALE
 40
1.0
  9
$DISPSILH
 70
0
  9
$DIMSCALE
 40
1.0
  9
$DIMASZ
 40
2.5
  9
$DIMEXO
 40
0.625
  9
$DIMDLI
 40
3.75
  9
$DIMRND
 40
0.0
  9
$DIMDLE
 40
0.0
  9
$DIMEXE
 40
1.25
  9
$DIMTP
 40
0.0
  9
$DIMTM
 40
0.0
  9
$DIMTXT
 40
2.5
  9
$DIMCEN
 40
2.5
  9
$DIMTSZ
 40
0.0
  9
$DIMTOL
 70
0
  9
$DIMLIM
 70
0
  9
$DIMTIH
 70
0
  9
$DIMTOH
 70
0
  9
$DIMSE1
 70
0
  9
$DIMSE2
 70
0
  9
$DIMTAD
 70
1
  9
$DIMZIN
 70
8
  9
$DIMBLK
  1

  9
$DIMASO
 70
1
  9
$DIMSHO
 70
1
  9
$DIMPOST
  1

  9
$DIMAPOST
  1

  9
$DIMALT
 70
0
  9
$DIMALTD
 70
3
  9
$DIMALTF
 40
0.03937007874
  9
$DIMLFAC
 40
1.0
  9
$DIMTOFL
 70
1
  9
$DIMTVP
 40
0.0
  9
$DIMTIX
 70
0
  9
$DIMSOXD
 70
0
  9
$DIMSAH
 70
0
  9
$DIMBLK1
  1

  9
$DIMBLK2
  1

  9
$DIMSTYLE
  2
ISO-25
  9
$DIMCLRD
 70
0
  9
$DIMCLRE
 70
0
  9
$DIMCLRT
 70
0
  9
$DIMTFAC
 40
1.0
  9
$DIMGAP
 40
0.625
  9
$DIMJUST
 70
0
  9
$DIMSD1
 70
0
  9
$DIMSD2
 70
0
  9
$DIMTOLJ
 70
0
  9
$DIMTZIN
 70
8
  9
$DIMALTZ
 70
0
  9
$DIMALTTZ
 70
0
  9
$DIMUPT
 70
0
  9
$DIMDEC
 70
2
  9
$DIMTDEC
 70
2
  9
$DIMALTU
 70
2
  9
$DIMALTTD
 70
3
  9
$DIMTXSTY
  7
Standard
  9
$DIMAUNIT
 70
0
  9
$DIMADEC
 70
0
  9
$DIMALTRND
 40
0.0
  9
$DIMAZIN
 70
0
  9
$DIMDSEP
 70
44
  9
$DIMATFIT
 70
3
  9
$DIMFRAC
 70
0
  9
$DIMLDRBLK
  1

  9
$DIMLUNIT
 70
2
  9
$DIMLWD
 70
-2
  9
$DIMLWE
 70
-2
  9
$DIMTMOVE
 70
0
  9
$DIMFXL
 40
1.0
  9
$DIMFXLON
 70
0
  9
$DIMJOGANG
 40
0.785398163397
  9
$DIMTFILL
 70
0
  9
$DIMTFILLCLR
 70
0
  9
$DIMARCSYM
 70
0
  9
$DIMLTYPE
  6

  9
$DIMLTEX1
  6

  9
$DIMLTEX2
  6

  9
$DIMTXTDIRECTION
 70
0
  9
$LUNITS
 70
2
  9
$LUPREC
 70
4
  9
$SKETCHINC
 40
1.0
  9
$FILLETRAD
 40
10.0
  9
$AUNITS
 70
0
  9
$AUPREC
 70
2
  9
$MENU
  1
.
  9
$ELEVATION
 40
0.0
  9
$PELEVATION
 40
0.0
  9
$THICKNESS
 40
0.0
  9
$LIMCHECK
 70
0
  9
$CHAMFERA
 40
0.0
  9
$CHAMFERB
 40
0.0
  9
$CHAMFERC
 40
0.0
  9
$CHAMFERD
 40
0.0
  9
$SKPOLY
 70
0
  9
$TDCREATE
 40
2461227.7065625
  9
$TDUCREATE
 40
2458532.153996898
  9
$TDUPDATE
 40
2461227.7065625
  9
$TDUUPDATE
 40
2458532.1544311
  9
$TDINDWG
 40
0.0
  9
$TDUSRTIMER
 40
0.0
  9
$USRTIMER
 70
1
  9
$ANGBASE
 50
0.0
  9
$ANGDIR
 70
0
  9
$PDMODE
 70
0
  9
$PDSIZE
 40
0.0
  9
$PLINEWID
 40
0.0
  9
$SPLFRAME
 70
0
  9
$SPLINETYPE
 70
6
  9
$SPLINESEGS
 70
8
  9
$HANDSEED
  5
4A
  9
$SURFTAB1
 70
6
  9
$SURFTAB2
 70
6
  9
$SURFTYPE
 70
6
  9
$SURFU
 70
6
  9
$SURFV
 70
6
  9
$UCSBASE
  2

  9
$UCSNAME
  2

  9
$UCSORG
 10
0.0
 20
0.0
 30
0.0
  9
$UCSXDIR
 10
1.0
 20
0.0
 30
0.0
  9
$UCSYDIR
 10
0.0
 20
1.0
 30
0.0
  9
$UCSORTHOREF
  2

  9
$UCSORTHOVIEW
 70
0
  9
$UCSORGTOP
 10
0.0
 20
0.0
 30
0.0
  9
$UCSORGBOTTOM
 10
0.0
 20
0.0
 30
0.0
  9
$UCSORGLEFT
 10
0.0
 20
0.0
 30
0.0
  9
$UCSORGRIGHT
 10
0.0
 20
0.0
 30
0.0
  9
$UCSORGFRONT
 10
0.0
 20
0.0
 30
0.0
  9
$UCSORGBACK
 10
0.0
 20
0.0
 30
0.0
  9
$PUCSBASE
  2

  9
$PUCSNAME
  2

  9
$PUCSORG
 10
0.0
 20
0.0
 30
0.0
  9
$PUCSXDIR
 10
1.0
 20
0.0
 30
0.0
  9
$PUCSYDIR
 10
0.0
 20
1.0
 30
0.0
  9
$PUCSORTHOREF
  2

  9
$PUCSORTHOVIEW
 70
0
  9
$PUCSORGTOP
 10
0.0
 20
0.0
 30
0.0
  9
$PUCSORGBOTTOM
 10
0.0
 20
0.0
 30
0.0
  9
$PUCSORGLEFT
 10
0.0
 20
0.0
 30
0.0
  9
$PUCSORGRIGHT
 10
0.0
 20
0.0
 30
0.0
  9
$PUCSORGFRONT
 10
0.0
 20
0.0
 30
0.0
  9
$PUCSORGBACK
 10
0.0
 20
0.0
 30
0.0
  9
$USERI1
 70
0
  9
$USERI2
 70
0
  9
$USERI3
 70
0
  9
$USERI4
 70
0
  9
$USERI5
 70
0
  9
$USERR1
 40
0.0
  9
$USERR2
 40
0.0
  9
$USERR3
 40
0.0
  9
$USERR4
 40
0.0
  9
$USERR5
 40
0.0
  9
$WORLDVIEW
 70
1
  9
$SHADEDGE
 70
3
  9
$SHADEDIF
 70
70
  9
$TILEMODE
 70
1
  9
$MAXACTVP
 70
64
  9
$PINSBASE
 10
0.0
 20
0.0
 30
0.0
  9
$PLIMCHECK
 70
0
  9
$PEXTMIN
 10
1e+20
 20
1e+20
 30
1e+20
  9
$PEXTMAX
 10
-1e+20
 20
-1e+20
 30
-1e+20
  9
$PLIMMIN
 10
0.0
 20
0.0
  9
$PLIMMAX
 10
420.0
 20
297.0
  9
$UNITMODE
 70
0
  9
$VISRETAIN
 70
1
  9
$PLINEGEN
 70
0
  9
$PSLTSCALE
 70
1
  9
$TREEDEPTH
 70
3020
  9
$CMLSTYLE
  2
Standard
  9
$CMLJUST
 70
0
  9
$CMLSCALE
 40
20.0
  9
$PROXYGRAPHICS
 70
1
  9
$MEASUREMENT
 70
1
  9
$CELWEIGHT
370
-1
  9
$ENDCAPS
280
0
  9
$JOINSTYLE
280
0
  9
$LWDISPLAY
290
0
  9
$INSUNITS
 70
4
  9
$HYPERLINKBASE
  1

  9
$STYLESHEET
  1

  9
$XEDIT
290
1
  9
$CEPSNTYPE
380
0
  9
$PSTYLEMODE
290
1
  9
$FINGERPRINTGUID
  2
{AFB14464-C34F-4955-BC8B-245B264D99FD}
  9
$VERSIONGUID
  2
{7A9B42F8-63AF-4C5A-903A-1D6C626CCCE2}
  9
$EXTNAMES
290
1
  9
$PSVPSCALE
 40
0.0
  9
$OLESTARTUP
290
0
  9
$SORTENTS
280
127
  9
$INDEXCTL
280
0
  9
$HIDETEXT
280
1
  9
$XCLIPFRAME
280
1
  9
$HALOGAP
280
0
  9
$OBSCOLOR
 70
257
  9
$OBSLTYPE
280
0
  9
$INTERSECTIONDISPLAY
280
0
  9
$INTERSECTIONCOLOR
 70
257
  9
$DIMASSOC
280
2
  9
$PROJECTNAME
  1

  9
$CAMERADISPLAY
290
0
  9
$LENSLENGTH
 40
50.0
  9
$CAMERAHEIGHT
 40
0.0
  9
$STEPSPERSEC
 40
24.0
  9
$STEPSIZE
 40
100.0
  9
$3DDWFPREC
 40
2.0
  9
$PSOLWIDTH
 40
0.005
  9
$PSOLHEIGHT
 40
0.08
  9
$LOFTANG1
 40
1.570796326795
  9
$LOFTANG2
 40
1.570796326795
  9
$LOFTMAG1
 40
0.0
  9
$LOFTMAG2
 40
0.0
  9
$LOFTPARAM
 70
7
  9
$LOFTNORMALS
280
1
  9
$LATITUDE
 40
37.795
  9
$LONGITUDE
 40
-122.394
  9
$NORTHDIRECTION
 40
0.0
  9
$TIMEZONE
 70
-8000
  9
$LIGHTGLYPHDISPLAY
280
1
  9
$TILEMODELIGHTSYNCH
280
1
  9
$CMATERIAL
347
20
  9
$SOLIDHIST
280
0
  9
$SHOWHIST
280
1
  9
$DWFFRAME
280
2
  9
$DGNFRAME
280
2
  9
$REALWORLDSCALE
290
1
  9
$INTERFERECOLOR
 62
256
  9
$CSHADOW
280
0
  9
$SHADOWPLANELOCATION
 40
0.0
  0
ENDSEC
  0
SECTION
  2
CLASSES
  0
CLASS
  1
ACDBDICTIONARYWDFLT
  2
AcDbDictionaryWithDefault
  3
ObjectDBX Classes
 90
0
 91
0
280
0
281
0
  0
CLASS
  1
SUN
  2
AcDbSun
  3
SCENEOE
 90
1153
 91
0
280
0
281
0
  0
CLASS
  1
VISUALSTYLE
  2
AcDbVisualStyle
  3
ObjectDBX Classes
 90
4095
 91
0
280
0
281
0
  0
CLASS
  1
MATERIAL
  2
AcDbMaterial
  3
ObjectDBX Classes
 90
1153
 91
0
280
0
281
0
  0
CLASS
  1
SCALE
  2
AcDbScale
  3
ObjectDBX Classes
 90
1153
 91
0
280
0
281
0
  0
CLASS
  1
TABLESTYLE
  2
AcDbTableStyle
  3
ObjectDBX Classes
 90
4095
 91
0
280
0
281
0
  0
CLASS
  1
MLEADERSTYLE
  2
AcDbMLeaderStyle
  3
ACDB_MLEADERSTYLE_CLASS
 90
4095
 91
0
280
0
281
0
  0
CLASS
  1
DICTIONARYVAR
  2
AcDbDictionaryVar
  3
ObjectDBX Classes
 90
0
 91
0
280
0
281
0
  0
CLASS
  1
CELLSTYLEMAP
  2
AcDbCellStyleMap
  3
ObjectDBX Classes
 90
1152
 91
0
280
0
281
0
  0
CLASS
  1
MENTALRAYRENDERSETTINGS
  2
AcDbMentalRayRenderSettings
  3
SCENEOE
 90
1024
 91
0
280
0
281
0
  0
CLASS
  1
ACDBDETAILVIEWSTYLE
  2
AcDbDetailViewStyle
  3
ObjectDBX Classes
 90
1025
 91
0
280
0
281
0
  0
CLASS
  1
ACDBSECTIONVIEWSTYLE
  2
AcDbSectionViewStyle
  3
ObjectDBX Classes
 90
1025
 91
0
280
0
281
0
  0
CLASS
  1
RASTERVARIABLES
  2
AcDbRasterVariables
  3
ISM
 90
0
 91
0
280
0
281
0
  0
CLASS
  1
LAYOUT
  2
AcDbLayout
  3
ObjectDBX Classes
 90
0
 91
0
280
0
281
0
  0
CLASS
  1
ACDBPLACEHOLDER
  2
AcDbPlaceHolder
  3
ObjectDBX Classes
 90
0
 91
0
280
0
281
0
  0
ENDSEC
  0
SECTION
  2
TABLES
  0
TABLE
  2
VPORT
  5
8
330
0
100
AcDbSymbolTable
 70
1
  0
VPORT
  5
23
330
8
100
AcDbSymbolTableRecord
100
AcDbViewportTableRecord
  2
*Active
 70
0
 10
0.0
 20
0.0
 11
1.0
 21
1.0
 12
0.0
 22
0.0
 13
0.0
 23
0.0
 14
0.5
 24
0.5
 15
0.5
 25
0.5
 16
0.0
 26
0.0
 36
1.0
 17
0.0
 27
0.0
 37
0.0
 40
1000.0
 41
1.34
 42
50.0
 43
0.0
 44
0.0
 50
0.0
 51
0.0
 71
0
 72
1000
 73
1
 74
3
 75
0
 76
0
 77
0
 78
0
281
0
 65
0
146
0.0
  0
ENDTAB
  0
TABLE
  2
LTYPE
  5
2
330
0
100
AcDbSymbolTable
 70
3
  0
LTYPE
  5
24
330
2
100
AcDbSymbolTableRecord
100
AcDbLinetypeTableRecord
  2
ByBlock
 70
0
  3

 72
65
 73
0
 40
0.0
  0
LTYPE
  5
25
330
2
100
AcDbSymbolTableRecord
100
AcDbLinetypeTableRecord
  2
ByLayer
 70
0
  3

 72
65
 73
0
 40
0.0
  0
LTYPE
  5
26
330
2
100
AcDbSymbolTableRecord
100
AcDbLinetypeTableRecord
  2
Continuous
 70
0
  3

 72
65
 73
0
 40
0.0
  0
ENDTAB
  0
TABLE
  2
LAYER
  5
1
330
0
100
AcDbSymbolTable
 70
5
  0
LAYER
  5
27
330
1
100
AcDbSymbolTableRecord
100
AcDbLayerTableRecord
  2
0
 70
0
 62
7
  6
Continuous
370
-3
390
13
347
21
  0
LAYER
  5
28
330
1
100
AcDbSymbolTableRecord
100
AcDbLayerTableRecord
  2
Defpoints
 70
0
 62
7
  6
Continuous
290
0
370
-3
390
13
347
21
  0
LAYER
  5
2F
330
1
100
AcDbSymbolTableRecord
100
AcDbLayerTableRecord
  2
Layer 1
 70
0
 62
5
  6
Continuous
370
-3
390
13
347
21
  0
LAYER
  5
37
330
1
100
AcDbSymbolTableRecord
100
AcDbLayerTableRecord
  2
Layer 2
 70
0
 62
4
  6
Continuous
370
-3
390
13
347
21
  0
LAYER
  5
40
330
1
100
AcDbSymbolTableRecord
100
AcDbLayerTableRecord
  2
Layer 3
 70
0
 62
6
  6
Continuous
370
-3
390
13
347
21
  0
ENDTAB
  0
TABLE
  2
STYLE
  5
5
330
0
100
AcDbSymbolTable
 70
1
  0
STYLE
  5
29
330
5
100
AcDbSymbolTableRecord
100
AcDbTextStyleTableRecord
  2
Standard
 70
0
 40
0.0
 41
1.0
 50
0.0
 71
0
 42
2.5
  3
txt
  4

  0
ENDTAB
  0
TABLE
  2
VIEW
  5
7
330
0
100
AcDbSymbolTable
 70
0
  0
ENDTAB
  0
TABLE
  2
UCS
  5
6
330
0
100
AcDbSymbolTable
 70
0
  0
ENDTAB
  0
TABLE
  2
APPID
  5
3
330
0
100
AcDbSymbolTable
 70
3
  0
APPID
  5
2A
330
3
100
AcDbSymbolTableRecord
100
AcDbRegAppTableRecord
  2
ACAD
 70
0
  0
APPID
  5
47
330
3
100
AcDbSymbolTableRecord
100
AcDbRegAppTableRecord
  2
HATCHBACKGROUNDCOLOR
 70
0
  0
APPID
  5
48
330
3
100
AcDbSymbolTableRecord
100
AcDbRegAppTableRecord
  2
EZDXF
 70
0
  0
ENDTAB
  0
TABLE
  2
DIMSTYLE
  5
4
330
0
100
AcDbSymbolTable
 70
1
100
AcDbDimStyleTable
  0
DIMSTYLE
105
2B
330
4
100
AcDbSymbolTableRecord
100
AcDbDimStyleTableRecord
  2
Standard
 70
0
 40
1.0
 41
2.5
 42
0.625
 43
3.75
 44
1.25
 45
0.0
 46
0.0
 47
0.0
 48
0.0
 49
2.5
140
2.5
141
2.5
142
0.0
143
0.03937007874
144
1.0
145
0.0
146
1.0
147
0.625
148
0.0
 69
0
 70
0
 71
0
 72
0
 73
0
 74
0
 75
0
 76
0
 77
1
 78
8
 79
3
170
0
171
3
172
1
173
0
174
0
175
0
176
0
177
0
178
0
179
2
271
2
272
2
273
2
274
3
275
0
276
0
277
2
278
44
279
0
280
0
281
0
282
0
283
0
284
8
285
0
286
0
288
0
289
3
290
0
371
-2
372
-2
  0
ENDTAB
  0
TABLE
  2
BLOCK_RECORD
  5
9
330
0
100
AcDbSymbolTable
 70
2
  0
BLOCK_RECORD
  5
17
330
9
100
AcDbSymbolTableRecord
100
AcDbBlockTableRecord
  2
*Model_Space
340
1A
 70
0
280
1
281
0
  0
BLOCK_RECORD
  5
1B
330
9
100
AcDbSymbolTableRecord
100
AcDbBlockTableRecord
  2
*Paper_Space
340
1E
 70
0
280
1
281
0
  0
ENDTAB
  0
ENDSEC
  0
SECTION
  2
BLOCKS
  0
BLOCK
  5
18
330
17
100
AcDbEntity
  8
0
100
AcDbBlockBegin
  2
*Model_Space
 70
0
 10
0.0
 20
0.0
 30
0.0
  3
*Model_Space
  1

  0
ENDBLK
  5
19
330
17
100
AcDbEntity
  8
0
100
AcDbBlockEnd
  0
BLOCK
  5
1C
330
1B
100
AcDbEntity
  8
0
100
AcDbBlockBegin
  2
*Paper_Space
 70
0
 10
0.0
 20
0.0
 30
0.0
  3
*Paper_Space
  1

  0
ENDBLK
  5
1D
330
1B
100
AcDbEntity
  8
0
100
AcDbBlockEnd
  0
ENDSEC
  0
SECTION
  2
ENTITIES
  0
LWPOLYLINE
  5
30
330
17
100
AcDbEntity
  8
Layer 1
100
AcDbPolyline
 90
33
 70
1
 10
7.408529130539657
 20
15.718630744544756
 10
7.3097250195281145
 20
15.682536035767091
 10
7.2235149267675975
 20
15.618284180085489
 10
7.150514703580118
 20
15.525231164324481
 10
7.085604226492613
 20
15.402937658317413
 10
7.006363648876775
 20
15.211657760530219
 10
6.947910683517552
 20
15.018064945239871
 10
6.918748037136638
 20
14.849196927421225
 10
6.906760978827458
 20
14.646193028806206
 10
6.914685402246848
 20
14.464740042203081
 10
6.939510258342912
 20
14.293767498243646
 10
6.981070533519343
 20
14.13831127052289
 10
7.038830574562116
 20
13.999999395403028
 10
7.124514525507557
 20
13.863726904517051
 10
7.212593398911574
 20
13.768928657328686
 10
7.3089424509875425
 20
13.706600632022106
 10
7.400575919250764
 20
13.687755622892753
 10
7.495554070060976
 20
13.709708062789476
 10
7.592618263957107
 20
13.766978529705849
 10
7.6703732435198635
 20
13.84131449734329
 10
7.742020714491833
 20
13.94845954046687
 10
7.818646893665031
 20
14.10920284664687
 10
7.875037901399292
 20
14.274726371993648
 10
7.901186278326076
 20
14.413315786808292
 10
7.910265734449522
 20
14.58867762525613
 10
7.898510975614117
 20
14.807597336755618
 10
7.8661728025885544
 20
15.023288213859576
 10
7.814855912928959
 20
15.23026613687731
 10
7.754934277659991
 20
15.395768210331052
 10
7.66209465832986
 20
15.56396098660238
 10
7.546968576149052
 20
15.698994088150362
 10
7.4923287385912865
 20
15.735412812974802
 10
7.408529416669991
 20
15.718630856988293
  0
LWPOLYLINE
  5
31
330
17
100
AcDbEntity
  8
Layer 1
100
AcDbPolyline
 90
51
 70
1
 10
9.114386386401877
 20
16.05303953100387
 10
9.24674043045903
 20
16.011599898872625
 10
9.360288244209833
 20
15.893671697582018
 10
9.709698628496877
 20
15.003186658464406
 10
9.798227347045234
 20
14.868802870017142
 10
9.921033218652777
 20
14.792489190400577
 10
10.038114128640904
 20
14.845196413124143
 10
10.122004688435748
 20
14.949608982967423
 10
10.597916530038045
 20
15.97664617902118
 10
10.655709967535042
 20
16.034418788974016
 10
10.727681111499408
 20
16.066899606074823
 10
10.786857504816124
 20
16.05370807665205
 10
10.839005243025806
 20
16.00050424461804
 10
10.900527193003308
 20
15.774827950859436
 10
10.934670960199368
 20
15.537127515704485
 10
10.98129751238511
 20
14.46716326394912
 10
10.934968687713674
 20
13.549548097665134
 10
10.895347077758425
 20
13.38693693714257
 10
10.814354545772867
 20
13.267572396622327
 10
10.73445884530564
 20
13.251305128586223
 10
10.637506896686412
 20
13.273942774077911
 10
10.572037753242467
 20
13.313627807390544
 10
10.54126904209778
 20
13.373795316076745
 10
10.517626589221639
 20
13.689525461277709
 10
10.51868301234009
 20
14.284721948048944
 10
10.500340058271135
 20
14.491764811147933
 10
10.468927726160631
 20
14.585289255926481
 10
10.392844630733492
 20
14.60993514993574
 10
10.330032244913742
 20
14.572403644202469
 10
10.085970885054769
 20
14.07928944830616
 10
10.00241892463726
 20
14.00090903924345
 10
9.895867998088292
 20
13.971583267835323
 10
9.839232263896458
 20
13.99561300812995
 10
9.78052050669159
 20
14.056591646552851
 10
9.550619836211437
 20
14.56558210690296
 10
9.480109380708958
 20
14.663245284969154
 10
9.394576430007287
 20
14.718395337673865
 10
9.306699194881242
 20
14.653675619666
 10
9.277080564467031
 20
14.542783365784093
 10
9.298114794182785
 20
13.762821007219435
 10
9.276484398101784
 20
13.42545812804263
 10
9.221265120431415
 20
13.333835619650666
 10
9.126254473581117
 20
13.28064665502065
 10
9.032173760517988
 20
13.290200994121443
 10
8.949517509385615
 20
13.361103038329352
 10
8.902233485698947
 20
13.507726027360931
 10
8.877449536366433
 20
13.735178208007866
 10
8.904329809009043
 20
15.132374644551081
 10
8.987921717746712
 20
15.919858188000163
 10
9.030686266819103
 20
16.032898356154163
 10
9.11438609713435
 20
16.053039647384107
  0
LWPOLYLINE
  5
32
330
17
100
AcDbEntity
  8
Layer 1
100
AcDbPolyline
 90
38
 70
1
 10
0.17484200690397245
 20
16.06873876004734
 10
0.32496547307090395
 20
15.98707888242617
 10
0.3726866084433347
 20
15.840462799285154
 10
0.3193764518651996
 20
14.548727150338351
 10
0.3556230251829433
 20
14.092143578014689
 10
0.4043343986336332
 20
13.971463074917624
 10
0.47921484010738524
 20
13.887043599045526
 10
0.609108331846766
 20
13.812735006436403
 10
0.7526801230391875
 20
13.776814056083213
 10
1.0651275069800832
 20
13.801703140874828
 10
1.1471464003696177
 20
13.8434968583747
 10
1.191174478540031
 20
13.90543951233357
 10
1.2600183280804416
 20
14.275407798682652
 10
1.3243054387798274
 20
14.904401739400484
 10
1.26908876344487
 20
15.940902667985393
 10
1.3195992785747066
 20
16.027542858245436
 10
1.4290535440948453
 20
16.072908820523224
 10
1.5362467260832808
 20
16.029239236993543
 10
1.6044740092085306
 20
15.931254088457472
 10
1.6377703194290838
 20
15.712241509035616
 10
1.6437369289691866
 20
15.33020797753131
 10
1.575865865990778
 20
13.916018628983414
 10
1.54301188944671
 20
13.791900711344503
 10
1.468632838753468
 20
13.669569692378381
 10
1.3617550543680892
 20
13.567138101572263
 10
1.2297517230846324
 20
13.488346119839525
 10
0.8880326043075399
 20
13.419503344137246
 10
0.6731774205664394
 20
13.424711642430601
 10
0.47110104674118247
 20
13.461844584240776
 10
0.2468571365968799
 20
13.587243337040892
 10
0.10197930501315966
 20
13.798539784728415
 10
0.040988907256593876
 20
14.227301726321562
 10
0.032658300802786755
 20
15.08444708486077
 10
-0.022818358371278435
 20
15.887334653095971
 10
-0.0038021927609577233
 20
15.983506948775002
 10
0.049034397186833445
 20
16.072501814775237
 10
0.10177591362460348
 20
16.093334117534276
 10
0.17484173602526454
 20
16.068738915155144
  0
LWPOLYLINE
  5
33
330
17
100
AcDbEntity
  8
Layer 1
100
AcDbPolyline
 90
33
 70
1
 10
7.666655707087255
 20
16.041474373889145
 10
7.7950717603697495
 20
15.948340352302147
 10
7.935487995402742
 20
15.780084754338906
 10
8.055275178226108
 20
15.570761513123546
 10
8.143260376783788
 20
15.346884144594133
 10
8.206896420185982
 20
15.098028924118848
 10
8.24310550276963
 20
14.830517606311908
 10
8.251473040172781
 20
14.534715075253214
 10
8.231221558335625
 20
14.296164034212714
 10
8.18296606752868
 20
14.095627565616509
 10
8.101407815412209
 20
13.89519399706376
 10
7.978563601420612
 20
13.67852617108506
 10
7.853881279005742
 20
13.525025755445593
 10
7.725192843619565
 20
13.43141398657629
 10
7.581954232665012
 20
13.371549452116717
 10
7.420715713915701
 20
13.335584188211293
 10
7.256488883814136
 20
13.334500865110233
 10
7.094856021248717
 20
13.384895917621305
 10
6.958993770365119
 20
13.480223957183595
 10
6.822685974901228
 20
13.640146497010331
 10
6.736729736372347
 20
13.81275730586402
 10
6.661443135743939
 20
14.065980475163636
 10
6.613366351711665
 20
14.356084732553649
 10
6.6012791356770215
 20
14.633431983178127
 10
6.625711663619638
 20
14.917496874219836
 10
6.681309581518173
 20
15.186223402847784
 10
6.769682455370738
 20
15.466423661836489
 10
6.889586375532671
 20
15.731119506155114
 10
7.008467557607853
 20
15.903792634011205
 10
7.16588642915954
 20
16.0234528767177
 10
7.383914314337655
 20
16.099018041544458
 10
7.536407208381652
 20
16.11107217744195
 10
7.66665545211332
 20
16.04147456715013
  0
LWPOLYLINE
  5
34
330
17
100
AcDbEntity
  8
Layer 1
100
AcDbPolyline
 90
36
 70
1
 10
4.750571363322035
 20
16.1606269261597
 10
5.164479506482616
 20
16.17431507211824
 10
5.637710633636809
 20
16.143255599547242
 10
5.954519079589568
 20
16.065156764356615
 10
6.016429670500575
 20
16.02815994447545
 10
6.052141151271323
 20
15.97196241192879
 10
6.043414950053247
 20
15.89930193417126
 10
5.984903968526076
 20
15.846681873760843
 10
5.65742128296189
 20
15.758674042835171
 10
5.550288930079686
 20
15.709754363819856
 10
5.481660072280823
 20
15.64140281220766
 10
5.440295624991677
 20
15.549410912916674
 10
5.411288620423619
 20
15.391855130870724
 10
5.404546582182492
 20
15.20072479229385
 10
5.450941499453595
 20
14.089433356485943
 10
5.448725647763283
 20
13.785161583705358
 10
5.400339209601775
 20
13.527588541942983
 10
5.35939276728617
 20
13.474291443181423
 10
5.295602960501542
 20
13.440155536360525
 10
5.210129732949971
 20
13.447401264894701
 10
5.136892109288002
 20
13.490449206956937
 10
5.088596065980951
 20
13.571038922641305
 10
5.069599704958042
 20
13.663867992391335
 10
5.070018692467691
 20
14.203545115469726
 10
5.111882667466656
 20
15.236107524572786
 10
5.106101839476844
 20
15.469142695635465
 10
5.077366886073028
 20
15.664245714452356
 10
5.035474530662615
 20
15.742185843372907
 10
4.979208542507401
 20
15.789682540621166
 10
4.5631184276298455
 20
15.899075225437233
 10
4.511905169340405
 20
15.928878853386596
 10
4.485055944171489
 20
15.972605040079085
 10
4.4972506995940655
 20
16.05616048962939
 10
4.555725067045866
 20
16.116453295948816
 10
4.630738483036307
 20
16.150146630410774
 10
4.750571032705139
 20
16.160626917812127
  0
LWPOLYLINE
  5
35
330
17
100
AcDbEntity
  8
Layer 1
100
AcDbPolyline
 90
73
 70
1
 10
2.9859012639780786
 20
16.157053564507777
 10
3.2513565454728486
 20
16.164180158120836
 10
3.4143049325089017
 20
16.124954217920912
 10
3.4758503951401956
 20
16.084106468005075
 10
3.5207587102093214
 20
16.026945292566243
 10
3.545845960592519
 20
15.960951321260506
 10
3.542341470221139
 20
15.901832266776985
 10
3.4999923534343296
 20
15.851375951746464
 10
3.428108299569544
 20
15.82217170002503
 10
2.974526334852868
 20
15.776410109840004
 10
2.801876246944289
 20
15.7275518256584
 10
2.7351941126393235
 20
15.668283305140852
 10
2.6850788717484484
 20
15.579128819460767
 10
2.6662976609556566
 20
15.493974211471121
 10
2.6816969917901723
 20
15.408037999327144
 10
2.757135739502786
 20
15.324338774554553
 10
2.846982862021733
 20
15.26200554815073
 10
3.5065004928317087
 20
14.932206055616714
 10
3.6434231805576047
 20
14.852129795076124
 10
3.751746459450853
 20
14.772900163586003
 10
3.856550774945383
 20
14.659338425302902
 10
3.9418654261735853
 20
14.52411009144376
 10
3.992708037014637
 20
14.388064576530525
 10
4.011492249729383
 20
14.248979682076316
 10
4.004091742869463
 20
14.07180175334637
 10
3.9650953361475416
 20
13.914914038035072
 10
3.888036134409724
 20
13.768136130963775
 10
3.778694830410828
 20
13.638176256168759
 10
3.6420852178203766
 20
13.522796090707699
 10
3.5030053951612388
 20
13.446725858411893
 10
3.3279085339017698
 20
13.393618236424322
 10
3.129085999542628
 20
13.364110108558634
 10
2.8104940737251454
 20
13.380880751922746
 10
2.7276988792668853
 20
13.400482355263307
 10
2.6404542443344923
 20
13.439150933980198
 10
2.5628017916439063
 20
13.498839123459048
 10
2.486266360093637
 20
13.58964557593962
 10
2.4206111506617987
 20
13.707326268585001
 10
2.396373893997417
 20
13.800773785145662
 10
2.401738247392732
 20
13.843477595884076
 10
2.425699283145203
 20
13.881727515365895
 10
2.4733893096944612
 20
13.910295692024217
 10
2.519876561399119
 20
13.91536459306313
 10
2.616594095042938
 20
13.886652447872084
 10
2.8270722610381185
 20
13.783235430649325
 10
2.9444858494209534
 20
13.740703541246468
 10
3.099239762129031
 20
13.716262329189712
 10
3.259050114609998
 20
13.723852258800651
 10
3.3733457847346635
 20
13.754836724575947
 10
3.4924325967202208
 20
13.824789920967753
 10
3.565341461237658
 20
13.90360869927232
 10
3.6107666175154662
 20
14.00094891006494
 10
3.62449530093998
 20
14.13035812935327
 10
3.597130416301553
 20
14.26181645594173
 10
3.533858717476509
 20
14.409055113048462
 10
3.4445588177108633
 20
14.527878824624835
 10
3.307180971195809
 20
14.637109477851858
 10
3.1101604827705636
 20
14.739723173614227
 10
2.997131758794975
 20
14.776483998575975
 10
2.742985754385785
 20
14.829374859050827
 10
2.639084907222948
 20
14.877609967756857
 10
2.559529806396263
 20
14.946473213175015
 10
2.468650475132101
 20
15.058288387787028
 10
2.411406699722665
 20
15.154049044605566
 10
2.3718737480816436
 20
15.254363203426355
 10
2.342880564279337
 20
15.408313566498455
 10
2.349486653981618
 20
15.555107653046356
 10
2.3981240187223243
 20
15.719810135060085
 10
2.472834767364578
 20
15.861255792021877
 10
2.5687701514079464
 20
15.97130004545138
 10
2.718662308353384
 20
16.07851613692347
 10
2.859442286798032
 20
16.142605594400436
 10
2.9859009427078824
 20
16.15705355979387
  0
LWPOLYLINE
  5
36
330
17
100
AcDbEntity
  8
Layer 1
100
AcDbPolyline
 90
41
 70
1
 10
-1.2925183738254624
 20
16.235252568141192
 10
-1.1219865822439168
 20
16.221138278433468
 10
-1.0056937954286447
 20
16.184446436921277
 10
-0.9094807684023252
 20
16.10165701666926
 10
-0.8885000622666297
 20
16.007792322988283
 10
-0.9252470013074188
 20
15.965278715396629
 10
-0.9835293608228852
 20
15.93853684631784
 10
-1.4823395832629593
 20
15.791213124567852
 10
-1.6006345496176415
 20
15.685520136779378
 10
-1.7025176089150982
 20
15.491268722791217
 10
-1.7643855601190879
 20
15.290044795050921
 10
-1.7899197832107987
 20
15.04333624987381
 10
-1.7824603948181554
 20
14.746402922585071
 10
-1.685789688417131
 20
14.177340487545877
 10
-1.6463514396367103
 20
14.0650484996298
 10
-1.580020096811733
 20
13.953769412646249
 10
-1.5046929765929242
 20
13.888285796517328
 10
-1.4184005096634422
 20
13.841606551648155
 10
-0.9694253101459651
 20
13.731766653374471
 10
-0.8464965017026032
 20
13.690921103894308
 10
-0.8002714516596185
 20
13.659503902923726
 10
-0.7999425540939704
 20
13.591729589939224
 10
-0.8448160642254656
 20
13.537551958919371
 10
-0.9204056179863898
 20
13.495862198712555
 10
-1.022998870262743
 20
13.47677430227871
 10
-1.2393638018988824
 20
13.4708334322607
 10
-1.4213599264951498
 20
13.490707402710989
 10
-1.5814800288596196
 20
13.542598146505977
 10
-1.7086503750944324
 20
13.625144064652602
 10
-1.8107754264057512
 20
13.754358909670914
 10
-1.8857587687279
 20
13.915212164116223
 10
-1.949695343970614
 20
14.122174855170098
 10
-1.982466318731003
 20
14.332252772794588
 10
-2.0014628183880347
 20
14.711419702508447
 10
-1.9939586723987475
 20
15.11173417301524
 10
-1.9513163588027602
 20
15.511264273800277
 10
-1.890077471913692
 20
15.819293482100246
 10
-1.8094559031934274
 20
15.962119272676489
 10
-1.66637373898865
 20
16.0812142127555
 10
-1.4861372323731388
 20
16.184353760808225
 10
-1.2925186787070082
 20
16.235252609651205
  0
LWPOLYLINE
  5
38
330
17
100
AcDbEntity
  8
Layer 2
100
AcDbPolyline
 90
29
 70
1
 10
16.525745931710972
 20
14.949277234654463
 10
16.449218102923957
 20
14.937422236825638
 10
16.36522654757768
 20
14.909326456509543
 10
16.27348746920124
 20
14.865169716037604
 10
16.20584042683881
 20
14.818680300287497
 10
16.115486470027058
 20
14.737899374520072
 10
16.028419900913235
 20
14.642976148077716
 10
15.94182910258516
 20
14.535688054226537
 10
15.880645349733587
 20
14.443805053635154
 10
15.852664443017936
 20
14.373403120129204
 10
15.83529961569145
 20
14.297459478334492
 10
15.830801699848454
 20
14.228703702467799
 10
15.837680749868152
 20
14.145063113107604
 10
15.854654562707521
 20
14.059205939122217
 10
15.88137493499428
 20
13.980646212903821
 10
15.918117717151354
 20
13.918035460823859
 10
15.960470792786971
 20
13.878805671643542
 10
16.002217232730473
 20
13.868705213836996
 10
16.05332901037363
 20
13.875841301971617
 10
16.097251784391005
 20
13.893869493909802
 10
16.135748698419533
 20
13.924997803505576
 10
16.26051686825535
 20
14.071733185718228
 10
16.396290775551748
 20
14.303744515540338
 10
16.52709277794129
 20
14.583160232729233
 10
16.599684487344504
 20
14.844237450386466
 10
16.60862840762475
 20
14.901949106517977
 10
16.605670065253218
 20
14.940423507889545
 10
16.578962821151613
 20
14.953526317211336
 10
16.525746231735827
 20
14.949277284841395
  0
LWPOLYLINE
  5
39
330
17
100
AcDbEntity
  8
Layer 2
100
AcDbPolyline
 90
27
 70
1
 10
20.127394340364543
 20
15.251942177806756
 10
20.071751912544762
 20
15.22842869766567
 10
20.026037273781352
 20
15.1963456222844
 10
19.969859329509156
 20
15.140887718051658
 10
19.926399148907258
 20
15.081908397657728
 10
19.84432715567127
 20
14.884246641683763
 10
19.782532802631096
 20
14.652728784579379
 10
19.7525600591242
 20
14.452040641289194
 10
19.76179587495702
 20
14.312007713719407
 10
19.781141422790718
 20
14.257008318919365
 10
19.81566040158127
 20
14.197925491095608
 10
19.853088790908355
 20
14.16249897217839
 10
19.89581281549015
 20
14.144275565436075
 10
19.95719224475463
 20
14.145386314971805
 10
20.019772685370757
 20
14.166380099985426
 10
20.077883261633566
 20
14.201582358257028
 10
20.117494097153685
 20
14.2476822698079
 10
20.1623922619951
 20
14.326436149863818
 10
20.19921714654028
 20
14.41230696608393
 10
20.2761049860843
 20
14.690745163508305
 10
20.313507859692727
 20
14.94533138649332
 10
20.312464233840775
 20
15.025425911589384
 10
20.30232457970681
 20
15.090554422214144
 10
20.267518795728986
 20
15.173411461389346
 10
20.219038342045664
 20
15.235774509973766
 10
20.17618145853563
 20
15.26281373795145
 10
20.127394611686952
 20
15.251942299625803
  0
LWPOLYLINE
  5
3A
330
17
100
AcDbEntity
  8
Layer 2
100
AcDbPolyline
 90
21
 70
1
 10
31.120310147445217
 20
15.363965786940186
 10
30.91158495240905
 20
15.112290738524882
 10
30.809839195841384
 20
14.885120644883235
 10
30.66352482444006
 20
14.354095081340216
 10
30.574091786310245
 20
13.787580163777529
 10
30.489642588618263
 20
12.456172560371078
 10
30.52072104942951
 20
12.271387258398347
 10
30.584666240479798
 20
12.102827543206315
 10
30.64945107658434
 20
12.04265050179193
 10
30.742822451112296
 20
12.007691454983572
 10
30.850027385810783
 20
12.022831514672005
 10
30.951654400220086
 20
12.074037650706481
 10
31.128686997897002
 20
12.28929577431199
 10
31.2547267549302
 20
12.733684405198813
 10
31.33947646343112
 20
13.289170825105998
 10
31.414931765174554
 20
14.194862179656797
 10
31.426336236057196
 20
14.939882563940625
 10
31.38112396271907
 20
15.137986285386644
 10
31.28230555621489
 20
15.341594406273046
 10
31.198760982324757
 20
15.415862187313856
 10
31.120310338490007
 20
15.363966038546254
  0
LWPOLYLINE
  5
3B
330
17
100
AcDbEntity
  8
Layer 2
100
AcDbPolyline
 90
20
 70
1
 10
27.622605623309063
 20
15.514273895302892
 10
27.406841599331912
 20
15.436445271496355
 10
27.200971672947
 20
15.297153362744998
 10
27.077271188252173
 20
15.12411018982949
 10
27.00000939627668
 20
14.909905252685196
 10
26.824224754688444
 20
14.11490385584638
 10
26.69183523258651
 20
13.274413377348372
 10
26.706797401136615
 20
12.941977265785154
 10
26.760549932031445
 20
12.86580207478946
 10
26.841157718932845
 20
12.812780189741714
 10
27.0304843281069
 20
12.824925657408086
 10
27.189343344847646
 20
12.926309285817851
 10
27.32186675875018
 20
13.110937021918811
 10
27.41205557950649
 20
13.354039039250843
 10
27.679281282985364
 20
14.643161240468181
 10
27.857997887317747
 20
15.24681332714975
 10
27.845266239915922
 20
15.37171662378226
 10
27.78061700020463
 20
15.488178226742393
 10
27.713560687726908
 20
15.536304773611018
 10
27.622605916922137
 20
15.514274006757374
  0
LWPOLYLINE
  5
3C
330
17
100
AcDbEntity
  8
Layer 2
100
AcDbPolyline
 90
20
 70
1
 10
32.126558661033584
 20
16.197991266968028
 10
32.257084805579986
 20
15.419782373760912
 10
32.204413708645106
 20
14.148880554331493
 10
32.08758903939156
 20
13.38669523414207
 10
31.79583145059984
 20
12.53238954183089
 10
31.42405405682611
 20
11.877836513958036
 10
30.981630980596655
 20
11.44649314925743
 10
30.72964322027159
 20
11.299709988927324
 10
30.389921251234064
 20
11.181860256254566
 10
29.897167957290222
 20
11.178681368609933
 10
29.78653365457336
 20
11.280641420667477
 10
29.749603592595
 20
11.405594374560941
 10
29.7804286270543
 20
12.633387772999606
 10
29.910109804680317
 20
13.946258069422486
 10
30.131192127082628
 20
14.755289196324197
 10
30.49105140161049
 20
15.316198350301956
 10
31.033034731575352
 20
15.827639631628946
 10
31.835613421120087
 20
16.207718082533408
 10
31.987907131411696
 20
16.24401790295793
 10
32.12655863469034
 20
16.197991596580398
  0
LWPOLYLINE
  5
3D
330
17
100
AcDbEntity
  8
Layer 2
100
AcDbPolyline
 90
68
 70
1
 10
24.81069038294578
 20
16.257788492270258
 10
24.844431165146666
 20
16.142748461992976
 10
24.832335538254878
 20
16.02764565848725
 10
24.454015394078343
 20
14.569064272424923
 10
24.296035009193986
 20
13.810216782009178
 10
24.215272883935178
 20
13.181151655713348
 10
24.168245749015647
 20
12.506810980015311
 10
24.1737611110372
 20
12.173740098795236
 10
24.23611808020034
 20
11.912598706318207
 10
24.3591298755875
 20
11.824333417552193
 10
24.655983898029394
 20
11.820990240171488
 10
24.701796196407717
 20
11.777191633413455
 10
24.693138363875978
 20
11.715666718471102
 10
24.57615716409438
 20
11.612920291891518
 10
24.427994203628174
 20
11.531768701669902
 10
23.553898974735688
 20
11.216842436820098
 10
23.16702680412175
 20
11.149055313800108
 10
23.057597987499168
 20
11.168534061581454
 10
22.97236229365474
 20
11.22081162569373
 10
22.951779352604053
 20
11.267536367106926
 10
22.96454214231629
 20
11.317292199027767
 10
23.169465971998193
 20
11.47878358089379
 10
23.266215882960008
 20
11.683589460646093
 10
23.534066238177033
 20
12.811859602301361
 10
23.560049758119195
 20
13.048364980451838
 10
23.545514209905928
 20
13.22628830091817
 10
23.435588226210335
 20
13.304204268962474
 10
23.290664066109823
 20
13.31254812345924
 10
23.135118053248405
 20
13.245994934132364
 10
23.052933199897595
 20
13.12610414907517
 10
22.891216241631213
 20
12.08042718842615
 10
22.787137575116915
 20
11.813393953580619
 10
22.603592605195335
 20
11.482150430920655
 10
22.45687856471696
 20
11.328478525696884
 10
22.25201582523319
 20
11.237187670536152
 10
22.034318005256484
 20
11.229293085971182
 10
21.80120731914429
 20
11.289212574343216
 10
21.7509480116575
 20
11.345766013304932
 10
21.745741460467926
 20
11.414486171098368
 10
22.08746361157092
 20
11.804513197706061
 10
22.305023412915038
 20
12.404699206405052
 10
22.419965372935177
 20
12.933322555865217
 10
22.630465075693785
 20
14.330766248121302
 10
22.69624497577362
 20
14.943145682200543
 10
22.684005017849252
 20
15.265187319588659
 10
22.599947222166733
 20
15.477268834075497
 10
22.42172167951971
 20
15.652676487516485
 10
22.36857279406823
 20
15.75448959058401
 10
22.421479346233877
 20
15.780806334745643
 10
22.73306162630707
 20
15.819117206215505
 10
22.903282351499605
 20
15.877073362590075
 10
23.08258655929903
 20
15.990731392605868
 10
23.379566717030933
 20
16.274126931433265
 10
23.467388652494392
 20
16.30952286782205
 10
23.549326232690966
 20
16.300717465721384
 10
23.579471510987897
 20
16.180080568108128
 10
23.56954031135614
 20
16.03005899958589
 10
23.35819678762993
 20
14.815296999402346
 10
23.371083300756865
 20
14.659564108251205
 10
23.419990431432517
 20
14.608280848295824
 10
23.47254240039271
 20
14.59535057430499
 10
23.669120283785443
 20
14.746186875155574
 10
23.84235498807287
 20
14.965062487307069
 10
24.49131774926543
 20
16.202699687627053
 10
24.56687760674386
 20
16.261604527403357
 10
24.695361846439763
 20
16.303728666857292
 10
24.767024165542107
 20
16.306925346867754
 10
24.81069031730924
 20
16.257788789369393
  0
LWPOLYLINE
  5
3E
330
17
100
AcDbEntity
  8
Layer 2
100
AcDbPolyline
 90
54
 70
1
 10
29.380434202921922
 20
18.830364298941145
 10
29.328734178032008
 20
18.54227277303555
 10
29.024559431954014
 20
17.72382993776628
 10
28.82928780343458
 20
16.977676252869056
 10
28.39342258245614
 20
14.979454181005757
 10
28.076295479579187
 20
13.240247482162754
 10
28.01418048171095
 20
12.648557151535568
 10
28.01062698811013
 20
12.2327771652226
 10
28.08755734751258
 20
12.052469693452867
 10
28.335439966914894
 20
11.957077785316615
 10
28.372444545823853
 20
11.904889975100165
 10
28.36632616986118
 20
11.835655896054062
 10
28.19702151866629
 20
11.699835858468324
 10
27.623248659717113
 20
11.396273116908556
 10
27.29495265826634
 20
11.271537302925339
 10
26.970187579874054
 20
11.203720949189561
 10
26.92820662439208
 20
11.238698901305234
 10
26.937290443080617
 20
11.290886410563536
 10
27.111698820756203
 20
11.47889453666196
 10
27.179116453745426
 20
11.611886100782094
 10
27.21851653013974
 20
12.03513277753726
 10
27.180831886058876
 20
12.125542908836524
 10
27.099247472203245
 20
12.201189252426218
 10
26.77341976423547
 20
12.215314051076888
 10
26.571945443309588
 20
12.083499036732153
 10
26.31466832626414
 20
11.62464175029022
 10
26.06466804620571
 20
11.349267441558666
 10
25.830511770046563
 20
11.253192905881697
 10
25.546476389761157
 20
11.287456839845776
 10
25.50040470439321
 20
11.33474829781931
 10
25.514096777058555
 20
11.393517256022127
 10
25.813909391880934
 20
11.653393631429548
 10
25.942064575966644
 20
11.95353390719206
 10
26.134100553018712
 20
14.095565083045512
 10
26.249118365675756
 20
14.61196888943835
 10
26.413678956392836
 20
15.035626208010573
 10
26.6537637741573
 20
15.41041250933872
 10
27.019220118782837
 20
15.780911063221271
 10
27.289005521058055
 20
15.953603581200648
 10
27.759692353838034
 20
16.145291637910255
 10
27.964847693398955
 20
16.272291947554702
 10
28.077530089077218
 20
16.435425368949772
 10
28.15540415790398
 20
16.666990127255964
 10
28.316893899671484
 20
17.49202065746432
 10
28.325347568471408
 20
17.82590921920623
 10
28.292896784612708
 20
18.08032795687518
 10
28.225844754348532
 20
18.176640980988736
 10
28.12216741365169
 20
18.230824051602344
 10
27.58889465696099
 20
18.291264906514797
 10
28.53145349129472
 20
18.473015813066304
 10
28.790210135092924
 20
18.580772234150214
 10
29.263662182109073
 20
18.89053571183407
 10
29.348909525755758
 20
18.905452088753766
 10
29.380434282420122
 20
18.83036460214877
  0
LWPOLYLINE
  5
3F
330
17
100
AcDbEntity
  8
Layer 2
100
AcDbPolyline
 90
92
 70
1
 10
17.3566691183547
 20
19.217457136737778
 10
17.234239562040777
 20
18.915133870604212
 10
16.809394814936983
 20
18.2700826243818
 10
16.61914180036042
 20
17.818721975408273
 10
16.294031886787252
 20
16.726621078719806
 10
16.111234758173218
 20
15.695478956800924
 10
16.152416338929786
 20
15.416671126854713
 10
16.211715884658254
 20
15.367313208780221
 10
16.28592615559409
 20
15.367164532061716
 10
16.51626524968264
 20
15.57064025083372
 10
17.154119073884768
 20
16.309052665145188
 10
17.36240442999849
 20
16.365356149508774
 10
17.491896931299134
 20
16.212216206885167
 10
17.518491339396714
 20
16.003845036327522
 10
17.490368765273704
 20
15.670886799950242
 10
17.33414655736189
 20
15.073115459639162
 10
17.043678960541534
 20
14.609790453114057
 10
16.478964677429882
 20
13.98039923317394
 10
16.397771178015734
 20
13.777521821924974
 10
16.369433191881548
 20
13.548312309156831
 10
16.45579525366272
 20
12.537438792147917
 10
16.597212651699873
 20
11.817619273684025
 10
16.851018461147703
 20
11.09933189535053
 10
17.132301767371967
 20
10.675302140126746
 10
17.391630666080907
 20
10.579946476896115
 10
17.704733904036136
 20
10.678900160153798
 10
18.38919336268665
 20
11.082185041803385
 10
18.634010720969854
 20
11.285061989484618
 10
18.764537297866653
 20
11.45618015494875
 10
18.836483249935753
 20
11.76641346345161
 10
18.884598468689546
 20
13.185770427048693
 10
18.979493580820993
 20
13.774009169428918
 10
19.26506040468115
 20
14.789855991866027
 10
19.606920644336654
 20
15.354758724974992
 10
20.361324066885327
 20
16.164033478765298
 10
20.562719531828975
 20
16.314505289097713
 10
20.76668216369716
 20
16.405199229486527
 10
20.98444815952138
 20
16.41332443553742
 10
21.13471421271326
 20
16.30797015200389
 10
21.205865311846868
 20
16.03667892317609
 10
21.215156721131642
 20
15.740150351269072
 10
21.156471675785987
 20
15.364275178261146
 10
21.01993410833603
 20
15.00212561346926
 10
20.851584565994372
 20
14.770667735218716
 10
20.506066292402664
 20
14.440064039265712
 10
20.699933578085204
 20
14.351332162987314
 10
21.067963865840024
 20
14.422114868725513
 10
21.132656503255365
 20
14.353186358929122
 10
21.09850120618939
 20
14.247019300557326
 10
20.800602806150593
 20
14.042173626662823
 10
19.957959969030565
 20
13.781485760417118
 10
19.82368563052169
 20
13.661004746458877
 10
19.75978453878088
 20
13.490571235195668
 10
19.681901074951067
 20
12.815673759055437
 10
19.75152575155268
 20
12.28959103540515
 10
19.841855268447866
 20
12.160293856799774
 10
20.022366753299
 20
12.129042128592097
 10
20.579595805975888
 20
12.383223824781961
 10
20.350370276672773
 20
12.000489557494395
 10
20.084551894170982
 20
11.714490727696012
 10
19.739980357608477
 20
11.44128243896533
 10
18.962792551269462
 20
11.204811379873052
 10
18.303969039806276
 20
10.727266358077939
 10
17.65625920309062
 20
10.390515132887607
 10
17.274623111541956
 20
10.25480918035127
 10
16.881928679727736
 20
10.19316837204024
 10
16.585451192834554
 20
10.266755283958064
 10
16.27815602261466
 20
10.416842678717911
 10
16.052598560560092
 20
10.596784535265055
 10
15.866264617187003
 20
10.830735921882326
 10
15.729550371104313
 20
11.196435491390258
 10
15.629042947253735
 20
12.265776065700168
 10
15.579787617354267
 20
12.505322936145838
 10
15.513766971660406
 20
12.61974889374493
 10
15.354414178292163
 20
12.526670533639555
 10
14.792660615675107
 20
11.616573118516985
 10
14.615498052653582
 20
11.401420965124945
 10
14.454898737596277
 20
11.301684916873802
 10
14.301551649353371
 20
11.271778622374073
 10
14.212398950618194
 20
11.323386476792395
 10
14.181541663845799
 20
11.44007863078879
 10
14.319295132148872
 20
11.91673255857026
 10
14.8953459316438
 20
13.46287947834637
 10
15.283555561134577
 20
14.974779906915881
 10
15.803321786840991
 20
17.624841885766365
 10
15.813778561475745
 20
17.901745399606828
 10
15.721444738655926
 20
18.27017045071735
 10
15.961320369832599
 20
18.450168512145947
 10
16.556270900418305
 20
18.721532891700832
 10
17.293731949249278
 20
19.285420884360544
 10
17.343276879807387
 20
19.293389366197193
 10
17.356669259225516
 20
19.217457421803488
  0
LWPOLYLINE
  5
41
330
17
100
AcDbEntity
  8
Layer 3
100
AcDbPolyline
 90
33
 70
1
 10
40.77337200959463
 20
15.658467453322379
 10
40.67140410402914
 20
15.600861046277402
 10
40.56664322798498
 20
15.496036764245384
 10
40.4933396851802
 20
15.37824550040962
 10
40.43922114725949
 20
15.243231772647553
 10
40.384681309397884
 20
15.030231997859548
 10
40.35141532255933
 20
14.803506418301282
 10
40.33626669005787
 20
14.552715607320145
 10
40.34287101183539
 20
14.33156269830759
 10
40.3654573092777
 20
14.176806706516363
 10
40.400000868371414
 20
14.046404116218044
 10
40.436069682032056
 20
13.9614835205607
 10
40.495868337345456
 20
13.877722786053802
 10
40.598811480757085
 20
13.792234262807982
 10
40.70622758083489
 20
13.7354477131308
 10
40.81670864891419
 20
13.703348383674514
 10
40.9432739006099
 20
13.700123495121804
 10
41.07348228428448
 20
13.728903955320755
 10
41.18049384235502
 20
13.779736509137056
 10
41.252538036989606
 20
13.848956625633534
 10
41.29931089647299
 20
13.94009636397101
 10
41.35829102140174
 20
14.127799670326862
 10
41.40866248107133
 20
14.395557157622608
 10
41.43680389871782
 20
14.677802766311757
 10
41.439586018016
 20
14.933836679839784
 10
41.415327661814985
 20
15.07998751676068
 10
41.36349019210079
 20
15.241434884681402
 10
41.294582824199225
 20
15.386772961311689
 10
41.209210157472995
 20
15.507743651807042
 10
41.089247699965085
 20
15.60721928270316
 10
40.94129547597842
 20
15.676419151904156
 10
40.8600381089651
 20
15.694100496294055
 10
40.773372090120326
 20
15.658467501029751
  0
LWPOLYLINE
  5
42
330
17
100
AcDbEntity
  8
Layer 3
100
AcDbPolyline
 90
33
 70
1
 10
43.06658619218917
 20
15.715663410844636
 10
43.02020117476917
 20
15.672957310236646
 10
42.98134704677197
 20
15.611156896818818
 10
42.95279834192861
 20
15.529424541681148
 10
42.93094167452077
 20
15.423923627325731
 10
42.91333616625052
 20
15.284712134177749
 10
42.90728665644535
 20
15.143015475229806
 10
42.91376132085709
 20
15.001737578578016
 10
42.93356906502454
 20
14.892339216954532
 10
42.95632736184266
 20
14.846330304476988
 10
42.99019962366182
 20
14.806595218613898
 10
43.02927848310887
 20
14.779657150926779
 10
43.08172036432697
 20
14.758482009914479
 10
43.16365816980391
 20
14.740157085997557
 10
43.24088660822518
 20
14.73297650964968
 10
43.325413935999386
 20
14.737314227301388
 10
43.395822458103865
 20
14.752984843426637
 10
43.49275400099915
 20
14.800443155078755
 10
43.57934662335654
 20
14.868977724561589
 10
43.639101035495486
 20
14.942732779420213
 10
43.67934937476788
 20
15.027900488882901
 10
43.70281733388104
 20
15.133568711298924
 10
43.707032356718564
 20
15.246689121167154
 10
43.69364894315626
 20
15.397883015198946
 10
43.6646336967866
 20
15.524039786779195
 10
43.62746393157632
 20
15.598379566274156
 10
43.57766623425559
 20
15.659596753094952
 10
43.52035253793616
 20
15.702538155621058
 10
43.45011220472291
 20
15.734032670740433
 10
43.32101470918099
 20
15.759907588662543
 10
43.20612159797016
 20
15.763089566170065
 10
43.12886528423905
 20
15.752602985474162
 10
43.06658625892066
 20
15.715663476667544
  0
LWPOLYLINE
  5
43
330
17
100
AcDbEntity
  8
Layer 3
100
AcDbPolyline
 90
32
 70
1
 10
41.118995925512834
 20
15.971383162351946
 10
41.308102324125755
 20
15.881665636171238
 10
41.4504465917246
 20
15.77411758589877
 10
41.558662936154775
 20
15.642179836606845
 10
41.644160208964905
 20
15.464653660605375
 10
41.718875911715244
 20
15.203752004747376
 10
41.76280113034283
 20
14.910103303425172
 10
41.77461719675772
 20
14.576649715420329
 10
41.750079987157605
 20
14.288257477315216
 10
41.69722275276928
 20
14.043705432819978
 10
41.616693785435345
 20
13.81427981298585
 10
41.53310597294637
 20
13.652893153824778
 10
41.419003956789226
 20
13.51226075686619
 10
41.28847193516191
 20
13.421750308515183
 10
41.10659424495469
 20
13.35498954255596
 10
40.91944322073396
 20
13.325056158300958
 10
40.73435464347314
 20
13.329798440292308
 10
40.512288009280226
 20
13.386432821530763
 10
40.33099811785932
 20
13.475600648171051
 10
40.1681527393865
 20
13.638829857056972
 10
40.070871506238475
 20
13.8267742261982
 10
40.03531715685878
 20
13.991829544216735
 10
40.024236297541044
 20
14.188694726351136
 10
40.07879747076252
 20
15.201012018578764
 10
40.12351978321716
 20
15.38303532448362
 10
40.199245446953974
 20
15.55796672008545
 10
40.31642799365355
 20
15.732669303304036
 10
40.45490893403541
 20
15.87717164458077
 10
40.62533136684112
 20
15.971060362909702
 10
40.805645823988044
 20
16.014838382140574
 10
40.983763902281446
 20
16.023162669515266
 10
41.1189958414808
 20
15.971383203551074
  0
LWPOLYLINE
  5
44
330
17
100
AcDbEntity
  8
Layer 3
100
AcDbPolyline
 90
67
 70
1
 10
37.95197145038098
 20
16.081790184095105
 10
38.03412836494641
 20
16.07562139313204
 10
38.091997374380526
 20
16.052486411349367
 10
38.150808999874826
 20
16.006962871445687
 10
38.1812450496049
 20
15.951140346295322
 10
38.20933253214942
 20
15.731411457507768
 10
38.210731610146794
 20
15.27551677685379
 10
38.2269930483472
 20
15.191953392936142
 10
38.26219871158734
 20
15.121545021810737
 10
38.35021534047641
 20
15.027906536568711
 10
38.48746428509294
 20
14.941481010606205
 10
38.653837922103975
 20
14.875699697471944
 10
38.827743981046474
 20
14.838578537635128
 10
38.90027776463012
 20
14.843553658416988
 10
38.96932538857367
 20
14.877583514264295
 10
39.0248861886801
 20
14.941447779484823
 10
39.05659030275159
 20
15.012588647582687
 10
39.08231086919294
 20
15.249925902140518
 10
39.09399488991147
 20
15.794017112389966
 10
39.13012249715851
 20
15.981421345338092
 10
39.19060987024142
 20
16.041818233294762
 10
39.27852738037019
 20
16.06496280959503
 10
39.35715915101382
 20
16.039537039584363
 10
39.41027640163422
 20
15.973668036967092
 10
39.464678185428
 20
15.738623809867006
 10
39.48048762279634
 20
15.461172119124539
 10
39.44714790414437
 20
13.861246344880412
 10
39.42650606532573
 20
13.689663404603204
 10
39.37819071631849
 20
13.51044847618449
 10
39.328642018284356
 20
13.421128802961226
 10
39.23923905192228
 20
13.349618218835277
 10
39.14291572070327
 20
13.327457707675167
 10
39.03235942931359
 20
13.338155937514525
 10
38.95703723760097
 20
13.367545724617052
 10
38.91974599492664
 20
13.423269268950632
 10
38.93196697881778
 20
13.566836363603404
 10
39.019779846505614
 20
13.815908754731064
 10
39.062149731779655
 20
14.028658556492617
 10
39.06003760883781
 20
14.214736083935248
 10
39.00873874013742
 20
14.37593845655364
 10
38.912204436359104
 20
14.47357262149509
 10
38.76918275794179
 20
14.558432831526956
 10
38.58218059206541
 20
14.628577323622498
 10
38.40056917558968
 20
14.669472458512324
 10
38.32446984627512
 20
14.664846799779081
 10
38.25056724453739
 20
14.64055128737651
 10
38.20543817934329
 20
14.60161905688693
 10
38.17308853361683
 20
14.543540681902664
 10
38.136493436352545
 20
14.280974169238744
 10
38.09510816658294
 20
13.649875634881301
 10
38.0764013792903
 20
13.548521499268183
 10
38.037976766920934
 20
13.456306586364143
 10
37.93178043765194
 20
13.372916118795352
 10
37.77073487742044
 20
13.35065239044686
 10
37.58915879389427
 20
13.391366077669277
 10
37.49734537934074
 20
13.480007720410988
 10
37.490025571428035
 20
13.54414185973861
 10
37.509825046475385
 20
13.596893597961285
 10
37.73280366651265
 20
13.754667305052775
 10
37.77090956660054
 20
13.8018958994812
 10
37.79028963714856
 20
13.858730059795432
 10
37.79771099362186
 20
14.282662716639544
 10
37.77866934611265
 20
15.17282192687106
 10
37.793467849521434
 20
15.661368325138756
 10
37.84019532435879
 20
16.02219335705194
 10
37.87393234986895
 20
16.06634461979945
 10
37.95197135699549
 20
16.081790195275417
  0
LWPOLYLINE
  5
45
330
17
100
AcDbEntity
  8
Layer 3
100
AcDbPolyline
 90
35
 70
1
 10
43.80612157899904
 20
15.947346693943572
 10
43.94786231338492
 20
15.798977934497401
 10
44.007355139618674
 20
15.629716634569979
 10
44.09109174019326
 20
15.078934291904417
 10
44.09167101862143
 20
14.94275320698644
 10
44.0604922435982
 20
14.822538441288497
 10
43.90997382723017
 20
14.637264198304191
 10
43.63321100869799
 20
14.464807738831134
 10
43.43627928002995
 20
14.390499763589432
 10
43.10721871282545
 20
14.342260676532284
 10
42.96551223347384
 20
14.272887285737136
 10
42.912650447497285
 20
14.151142976395244
 10
42.874052669442634
 20
13.720459610727472
 10
42.816991826445474
 20
13.483896353892572
 10
42.761236976784154
 20
13.413569496051789
 10
42.67318833103472
 20
13.35683931543493
 10
42.58616937010514
 20
13.343632931405427
 10
42.50523322144535
 20
13.36152566583026
 10
42.43534788831791
 20
13.429614341689422
 10
42.40699848858311
 20
13.512026361771012
 10
42.44474031320252
 20
13.622808865486865
 10
42.554623261679225
 20
13.839843794881338
 10
42.600564087474055
 20
14.069479041142495
 10
42.60767997375963
 20
14.400857524602385
 10
42.58435203715859
 20
15.635589062660141
 10
42.60146075878467
 20
15.788884526015371
 10
42.64038089167889
 20
15.918294362563964
 10
42.70378177385864
 20
15.989494794774991
 10
42.80708281979797
 20
16.042578893427986
 10
42.95787803937425
 20
16.081500927581157
 10
43.10204238448132
 20
16.094469306575416
 10
43.34459678163344
 20
16.082616915516567
 10
43.5883863513031
 20
16.042799158707176
 10
43.69382433610741
 20
16.014332428701984
 10
43.806121516866796
 20
15.947346764721312
  0
LWPOLYLINE
  5
46
330
17
100
AcDbEntity
  8
Layer 3
100
AcDbPolyline
 90
63
 70
1
 10
36.77942985819554
 20
16.12065142212283
 10
36.84017999462912
 20
16.07262074602056
 10
36.86869243389023
 20
15.990517648555826
 10
36.85945456595373
 20
15.907351242390128
 10
36.81334002545647
 20
15.84317316754676
 10
36.665518002172135
 20
15.797096273193405
 10
36.233993900835365
 20
15.746449630581575
 10
35.983164716022884
 20
15.690976843500843
 10
35.91680326780536
 20
15.64548619888261
 10
35.86370297599977
 20
15.57673604002345
 10
35.829280860689096
 20
15.493362874006706
 10
35.8177733406519
 20
15.407920137303734
 10
35.86857036820973
 20
15.248935134709042
 10
35.9635983816416
 20
15.129486194089168
 10
36.097954597420106
 20
15.040147520699547
 10
36.582432406228065
 20
14.777813664482538
 10
36.726681727794045
 20
14.655391685757133
 10
36.8506685450032
 20
14.508496365550418
 10
36.925986002712264
 20
14.340019169696511
 10
36.95150205036222
 20
14.184680550343082
 10
36.952750697238464
 20
13.948262222691229
 10
36.91268580351081
 20
13.731857425336285
 10
36.829654297186885
 20
13.606922799252422
 10
36.72170448215414
 20
13.517211107957234
 10
36.56228412288949
 20
13.43328271932045
 10
36.35952419105749
 20
13.367066619963628
 10
36.189941253281596
 20
13.34300566433229
 10
36.01100662173707
 20
13.347219101102697
 10
35.80342564989717
 20
13.38513859692484
 10
35.62906239257529
 20
13.438257324287868
 10
35.47272151283341
 20
13.52969374306546
 10
35.38466961781999
 20
13.630999992456953
 10
35.383729778874596
 20
13.733139605915014
 10
35.46221043256475
 20
13.83873053736814
 10
35.50901192889341
 20
13.856519223132528
 10
35.56663529281419
 20
13.85214955304492
 10
35.818641786369646
 20
13.749521145671096
 10
35.98989848945247
 20
13.703814504035389
 10
36.13715630018479
 20
13.695834885233603
 10
36.27026513461629
 20
13.712589634713886
 10
36.40186375990085
 20
13.76393911403338
 10
36.51948229300343
 20
13.856113536777405
 10
36.58190418651809
 20
13.974563791476193
 10
36.607102182032435
 20
14.133905396017685
 10
36.585827572923876
 20
14.215385057082152
 10
36.54711133832776
 20
14.280680139421026
 10
36.41296745389569
 20
14.404299910892878
 10
36.24657533960179
 20
14.498305710528005
 10
35.73991347556281
 20
14.741615275386211
 10
35.64600437718582
 20
14.807340016302204
 10
35.56486293533992
 20
14.892546018223532
 10
35.481150949555904
 20
15.067511519043336
 10
35.437414701259115
 20
15.3024323866551
 10
35.44307857257452
 20
15.52286802735413
 10
35.4933405239951
 20
15.708191489185285
 10
35.573429630129226
 20
15.838718225662882
 10
35.6772843020519
 20
15.94611559356857
 10
35.78615280301826
 20
16.025432086559455
 10
35.92416702425906
 20
16.08748068326713
 10
36.15881099236185
 20
16.138646736321594
 10
36.431613446053426
 20
16.160345710445462
 10
36.62748775968148
 20
16.159163382715327
 10
36.779429787836996
 20
16.120651485862695
  0
ENDSEC
  0
SECTION
  2
OBJECTS
  0
DICTIONARY
  5
A
330
0
100
AcDbDictionary
281
1
  3
ACAD_COLOR
350
B
  3
ACAD_GROUP
350
C
  3
ACAD_LAYOUT
350
D
  3
ACAD_MATERIAL
350
E
  3
ACAD_MLEADERSTYLE
350
F
  3
ACAD_MLINESTYLE
350
10
  3
ACAD_PLOTSETTINGS
350
11
  3
ACAD_PLOTSTYLENAME
350
12
  3
ACAD_SCALELIST
350
14
  3
ACAD_TABLESTYLE
350
15
  3
ACAD_VISUALSTYLE
350
16
  3
EZDXF_META
350
2D
  0
DICTIONARY
  5
B
330
A
100
AcDbDictionary
281
1
  0
DICTIONARY
  5
C
330
A
100
AcDbDictionary
281
1
  0
DICTIONARY
  5
D
330
A
100
AcDbDictionary
281
1
  3
Model
350
1A
  3
Layout1
350
1E
  0
DICTIONARY
  5
E
330
A
100
AcDbDictionary
281
1
  3
ByBlock
350
1F
  3
ByLayer
350
20
  3
Global
350
21
  0
DICTIONARY
  5
F
330
A
100
AcDbDictionary
281
1
  3
Standard
350
2C
  0
DICTIONARY
  5
10
330
A
100
AcDbDictionary
281
1
  3
Standard
350
22
  0
DICTIONARY
  5
11
330
A
100
AcDbDictionary
281
1
  0
ACDBDICTIONARYWDFLT
  5
12
330
A
100
AcDbDictionary
281
1
  3
Normal
350
13
100
AcDbDictionaryWithDefault
340
13
  0
ACDBPLACEHOLDER
  5
13
330
12
  0
DICTIONARY
  5
14
330
A
100
AcDbDictionary
281
1
  0
DICTIONARY
  5
15
330
A
100
AcDbDictionary
281
1
  0
DICTIONARY
  5
16
330
A
100
AcDbDictionary
281
1
  0
LAYOUT
  5
1A
330
D
100
AcDbPlotSettings
  1

  4
A3
  6

 40
7.5
 41
20.0
 42
7.5
 43
20.0
 44
420.0
 45
297.0
 46
0.0
 47
0.0
 48
0.0
 49
0.0
140
0.0
141
0.0
142
1.0
143
1.0
 70
1024
 72
1
 73
0
 74
5
  7

 75
16
 76
0
 77
2
 78
300
147
1.0
148
0.0
149
0.0
100
AcDbLayout
  1
Model
 70
1
 71
0
 10
0.0
 20
0.0
 11
420.0
 21
297.0
 12
0.0
 22
0.0
 32
0.0
 14
1e+20
 24
1e+20
 34
1e+20
 15
-1e+20
 25
-1e+20
 35
-1e+20
146
0.0
 13
0.0
 23
0.0
 33
0.0
 16
1.0
 26
0.0
 36
0.0
 17
0.0
 27
1.0
 37
0.0
 76
1
330
17
  0
LAYOUT
  5
1E
330
D
100
AcDbPlotSettings
  1

  4
A3
  6

 40
7.5
 41
20.0
 42
7.5
 43
20.0
 44
420.0
 45
297.0
 46
0.0
 47
0.0
 48
0.0
 49
0.0
140
0.0
141
0.0
142
1.0
143
1.0
 70
0
 72
1
 73
0
 74
5
  7

 75
16
 76
0
 77
2
 78
300
147
1.0
148
0.0
149
0.0
100
AcDbLayout
  1
Layout1
 70
1
 71
1
 10
0.0
 20
0.0
 11
420.0
 21
297.0
 12
0.0
 22
0.0
 32
0.0
 14
1e+20
 24
1e+20
 34
1e+20
 15
-1e+20
 25
-1e+20
 35
-1e+20
146
0.0
 13
0.0
 23
0.0
 33
0.0
 16
1.0
 26
0.0
 36
0.0
 17
0.0
 27
1.0
 37
0.0
 76
1
330
1B
  0
MATERIAL
  5
1F
102
{ACAD_REACTORS
330
E
102
}
330
E
100
AcDbMaterial
  1
ByBlock
  2

 70
0
 40
1.0
 71
1
 41
1.0
 91
-1023410177
 42
1.0
 72
1
  3

 73
1
 74
1
 75
1
 44
0.5
 73
0
 45
1.0
 46
1.0
 77
1
  4

 78
1
 79
1
170
1
 48
1.0
171
1
  6

172
1
173
1
174
1
140
1.0
141
1.0
175
1
  7

176
1
177
1
178
1
143
1.0
179
1
  8

270
1
271
1
272
1
145
1.0
146
1.0
273
1
  9

274
1
275
1
276
1
 42
1.0
 72
1
  3

 73
1
 74
1
 75
1
 94
63
  0
MATERIAL
  5
20
102
{ACAD_REACTORS
330
E
102
}
330
E
100
AcDbMaterial
  1
ByLayer
  2

 70
0
 40
1.0
 71
1
 41
1.0
 91
-1023410177
 42
1.0
 72
1
  3

 73
1
 74
1
 75
1
 44
0.5
 73
0
 45
1.0
 46
1.0
 77
1
  4

 78
1
 79
1
170
1
 48
1.0
171
1
  6

172
1
173
1
174
1
140
1.0
141
1.0
175
1
  7

176
1
177
1
178
1
143
1.0
179
1
  8

270
1
271
1
272
1
145
1.0
146
1.0
273
1
  9

274
1
275
1
276
1
 42
1.0
 72
1
  3

 73
1
 74
1
 75
1
 94
63
  0
MATERIAL
  5
21
102
{ACAD_REACTORS
330
E
102
}
330
E
100
AcDbMaterial
  1
Global
  2

 70
0
 40
1.0
 71
1
 41
1.0
 91
-1023410177
 42
1.0
 72
1
  3

 73
1
 74
1
 75
1
 44
0.5
 73
0
 45
1.0
 46
1.0
 77
1
  4

 78
1
 79
1
170
1
 48
1.0
171
1
  6

172
1
173
1
174
1
140
1.0
141
1.0
175
1
  7

176
1
177
1
178
1
143
1.0
179
1
  8

270
1
271
1
272
1
145
1.0
146
1.0
273
1
  9

274
1
275
1
276
1
 42
1.0
 72
1
  3

 73
1
 74
1
 75
1
 94
63
  0
MLINESTYLE
  5
22
102
{ACAD_REACTORS
330
10
102
}
330
10
100
AcDbMlineStyle
  2
Standard
 70
0
  3

 62
256
 51
90.0
 52
90.0
 71
2
 49
0.5
 62
256
  6
BYLAYER
 49
-0.5
 62
256
  6
BYLAYER
  0
MLEADERSTYLE
  5
2C
102
{ACAD_REACTORS
330
F
102
}
330
F
100
AcDbMLeaderStyle
179
2
170
2
171
1
172
0
 90
2
 40
0.0
 41
0.0
173
1
 91
-1056964608
 92
-2
290
1
 42
2.0
291
1
 43
8.0
  3
Standard
 44
4.0
300

342
29
174
1
175
1
176
0
178
1
 93
-1056964608
 45
4.0
292
0
297
0
 46
4.0
 94
-1056964608
 47
1.0
 49
1.0
140
1.0
294
1
141
0.0
177
0
142
1.0
295
0
296
0
143
3.75
271
0
272
9
273
9
  0
DICTIONARY
  5
2D
330
A
100
AcDbDictionary
280
1
281
1
  3
CREATED_BY_EZDXF
350
2E
  3
WRITTEN_BY_EZDXF
350
49
  0
DICTIONARYVAR
  5
2E
330
2D
100
DictionaryVariables
280
0
  1
1.4.3 @ 2026-07-05T23:57:27.735047+00:00
  0
DICTIONARYVAR
  5
49
330
2D
100
DictionaryVariables
280
0
  1
1.4.3 @ 2026-07-05T23:57:27.741697+00:00
  0
ENDSEC
  0
EOF
