  0
SECTION
  2
HEADER
  9
$ACADVER
  1
AC1024
  9
$ACADMAINTVER
 70
6
  9
$DWGCODEPAGE
  3
ANSI_1252
  9
$LASTSAVEDBY
  1
ezdxf
  9
$INSBASE
 10
0.0
 20
0.0
 30
0.0
  9
$EXTMIN
 10
1e+20
 20
1e+20
 30
1e+20
  9
$EXTMAX
 10
-1e+20
 20
-1e+20
 30
-1e+20
  9
$LIMMIN
 10
0.0
 20
0.0
  9
$LIMMAX
 10
420.0
 20
297.0
  9
$ORTHOMODE
 70
0
  9
$REGENMODE
 70
1
  9
$FILLMODE
 70
1
  9
$QTEXTMODE
 70
0
  9
$MIRRTEXT
 70
1
  9
$LTSCALE
 40
1.0
  9
$ATTMODE
 70
1
  9
$TEXTSIZE
 40
2.5
  9
$TRACEWID
 40
1.0
  9
$TEXTSTYLE
  7
Standard
  9
$CLAYER
  8
0
  9
$CELTYPE
  6
ByLayer
  9
$CECOLOR
 62
256
  9
$CELTSCALE
 40
1.0
  9
$DISPSILH
 70
0
  9
$DIMSCALE
 40
1.0
  9
$DIMASZ
 40
2.5
  9
$DIMEXO
 40
0.625
  9
$DIMDLI
 40
3.75
  9
$DIMRND
 40
0.0
  9
$DIMDLE
 40
0.0
  9
$DIMEXE
 40
1.25
  9
$DIMTP
 40
0.0
  9
$DIMTM
 40
0.0
  9
$DIMTXT
 40
2.5
  9
$DIMCEN
 40
2.5
  9
$DIMTSZ
 40
0.0
  9
$DIMTOL
 70
0
  9
$DIMLIM
 70
0
  9
$DIMTIH
 70
0
  9
$DIMTOH
 70
0
  9
$DIMSE1
 70
0
  9
$DIMSE2
 70
0
  9
$DIMTAD
 70
1
  9
$DIMZIN
 70
8
  9
$DIMBLK
  1

  9
$DIMASO
 70
1
  9
$DIMSHO
 70
1
  9
$DIMPOST
  1

  9
$DIMAPOST
  1

  9
$DIMALT
 70
0
  9
$DIMALTD
 70
3
  9
$DIMALTF
 40
0.03937007874
  9
$DIMLFAC
 40
1.0
  9
$DIMTOFL
 70
1
  9
$DIMTVP
 40
0.0
  9
$DIMTIX
 70
0
  9
$DIMSOXD
 70
0
  9
$DIMSAH
 70
0
  9
$DIMBLK1
  1

  9
$DIMBLK2
  1

  9
$DIMSTYLE
  2
ISO-25
  9
$DIMCLRD
 70
0
  9
$DIMCLRE
 70
0
  9
$DIMCLRT
 70
0
  9
$DIMTFAC
 40
1.0
  9
$DIMGAP
 40
0.625
  9
$DIMJUST
 70
0
  9
$DIMSD1
 70
0
  9
$DIMSD2
 70
0
  9
$DIMTOLJ
 70
0
  9
$DIMTZIN
 70
8
  9
$DIMALTZ
 70
0
  9
$DIMALTTZ
 70
0
  9
$DIMUPT
 70
0
  9
$DIMDEC
 70
2
  9
$DIMTDEC
 70
2
  9
$DIMALTU
 70
2
  9
$DIMALTTD
 70
3
  9
$DIMTXSTY
  7
Standard
  9
$DIMAUNIT
 70
0
  9
$DIMADEC
 70
0
  9
$DIMALTRND
 40
0.0
  9
$DIMAZIN
 70
0
  9
$DIMDSEP
 70
44
  9
$DIMATFIT
 70
3
  9
$DIMFRAC
 70
0
  9
$DIMLDRBLK
  1

  9
$DIMLUNIT
 70
2
  9
$DIMLWD
 70
-2
  9
$DIMLWE
 70
-2
  9
$DIMTMOVE
 70
0
  9
$DIMFXL
 40
1.0
  9
$DIMFXLON
 70
0
  9
$DIMJOGANG
 40
0.785398163397
  9
$DIMTFILL
 70
0
  9
$DIMTFILLCLR
 70
0
  9
$DIMARCSYM
 70
0
  9
$DIMLTYPE
  6

  9
$DIMLTEX1
  6

  9
$DIMLTEX2
  6

  9
$DIMTXTDIRECTION
 70
0
  9
$LUNITS
 70
2
  9
$LUPREC
 70
4
  9
$SKETCHINC
 40
1.0
  9
$FILLETRAD
 40
10.0
  9
$AUNITS
 70
0
  9
$AUPREC
 70
2
  9
$MENU
  1
.
  9
$ELEVATION
 40
0.0
  9
$PELEVATION
 40
0.0
  9
$THICKNESS
 40
0.0
  9
$LIMCHECK
 70
0
  9
$CHAMFERA
 40
0.0
  9
$CHAMFERB
 40
0.0
  9
$CHAMFERC
 40
0.0
  9
$CHAMFERD
 40
0.0
  9
$SKPOLY
 70
0
  9
$TDCREATE
 40
2461227.647314815
  9
$TDUCREATE
 40
2458532.153996898
  9
$TDUPDATE
 40
2461227.647314815
  9
$TDUUPDATE
 40
2458532.1544311
  9
$TDINDWG
 40
0.0
  9
$TDUSRTIMER
 40
0.0
  9
$USRTIMER
 70
1
  9
$ANGBASE
 50
0.0
  9
$ANGDIR
 70
0
  9
$PDMODE
 70
0
  9
$PDSIZE
 40
0.0
  9
$PLINEWID
 40
0.0
  9
$SPLFRAME
 70
0
  9
$SPLINETYPE
 70
6
  9
$SPLINESEGS
 70
8
  9
$HANDSEED
  5
58
  9
$SURFTAB1
 70
6
  9
$SURFTAB2
 70
6
  9
$SURFTYPE
 70
6
  9
$SURFU
 70
6
  9
$SURFV
 70
6
  9
$UCSBASE
  2

  9
$UCSNAME
  2

  9
$UCSORG
 10
0.0
 20
0.0
 30
0.0
  9
$UCSXDIR
 10
1.0
 20
0.0
 30
0.0
  9
$UCSYDIR
 10
0.0
 20
1.0
 30
0.0
  9
$UCSORTHOREF
  2

  9
$UCSORTHOVIEW
 70
0
  9
$UCSORGTOP
 10
0.0
 20
0.0
 30
0.0
  9
$UCSORGBOTTOM
 10
0.0
 20
0.0
 30
0.0
  9
$UCSORGLEFT
 10
0.0
 20
0.0
 30
0.0
  9
$UCSORGRIGHT
 10
0.0
 20
0.0
 30
0.0
  9
$UCSORGFRONT
 10
0.0
 20
0.0
 30
0.0
  9
$UCSORGBACK
 10
0.0
 20
0.0
 30
0.0
  9
$PUCSBASE
  2

  9
$PUCSNAME
  2

  9
$PUCSORG
 10
0.0
 20
0.0
 30
0.0
  9
$PUCSXDIR
 10
1.0
 20
0.0
 30
0.0
  9
$PUCSYDIR
 10
0.0
 20
1.0
 30
0.0
  9
$PUCSORTHOREF
  2

  9
$PUCSORTHOVIEW
 70
0
  9
$PUCSORGTOP
 10
0.0
 20
0.0
 30
0.0
  9
$PUCSORGBOTTOM
 10
0.0
 20
0.0
 30
0.0
  9
$PUCSORGLEFT
 10
0.0
 20
0.0
 30
0.0
  9
$PUCSORGRIGHT
 10
0.0
 20
0.0
 30
0.0
  9
$PUCSORGFRONT
 10
0.0
 20
0.0
 30
0.0
  9
$PUCSORGBACK
 10
0.0
 20
0.0
 30
0.0
  9
$USERI1
 70
0
  9
$USERI2
 70
0
  9
$USERI3
 70
0
  9
$USERI4
 70
0
  9
$USERI5
 70
0
  9
$USERR1
 40
0.0
  9
$USERR2
 40
0.0
  9
$USERR3
 40
0.0
  9
$USERR4
 40
0.0
  9
$USERR5
 40
0.0
  9
$WORLDVIEW
 70
1
  9
$SHADEDGE
 70
3
  9
$SHADEDIF
 70
70
  9
$TILEMODE
 70
1
  9
$MAXACTVP
 70
64
  9
$PINSBASE
 10
0.0
 20
0.0
 30
0.0
  9
$PLIMCHECK
 70
0
  9
$PEXTMIN
 10
1e+20
 20
1e+20
 30
1e+20
  9
$PEXTMAX
 10
-1e+20
 20
-1e+20
 30
-1e+20
  9
$PLIMMIN
 10
0.0
 20
0.0
  9
$PLIMMAX
 10
420.0
 20
297.0
  9
$UNITMODE
 70
0
  9
$VISRETAIN
 70
1
  9
$PLINEGEN
 70
0
  9
$PSLTSCALE
 70
1
  9
$TREEDEPTH
 70
3020
  9
$CMLSTYLE
  2
Standard
  9
$CMLJUST
 70
0
  9
$CMLSCALE
 40
20.0
  9
$PROXYGRAPHICS
 70
1
  9
$MEASUREMENT
 70
1
  9
$CELWEIGHT
370
-1
  9
$ENDCAPS
280
0
  9
$JOINSTYLE
280
0
  9
$LWDISPLAY
290
0
  9
$INSUNITS
 70
4
  9
$HYPERLINKBASE
  1

  9
$STYLESHEET
  1

  9
$XEDIT
290
1
  9
$CEPSNTYPE
380
0
  9
$PSTYLEMODE
290
1
  9
$FINGERPRINTGUID
  2
{0188344E-4F77-40A9-A179-5FC5D1B33CAD}
  9
$VERSIONGUID
  2
{EEE4DC0A-1253-4EA8-8203-ED575C379D9E}
  9
$EXTNAMES
290
1
  9
$PSVPSCALE
 40
0.0
  9
$OLESTARTUP
290
0
  9
$SORTENTS
280
127
  9
$INDEXCTL
280
0
  9
$HIDETEXT
280
1
  9
$XCLIPFRAME
280
1
  9
$HALOGAP
280
0
  9
$OBSCOLOR
 70
257
  9
$OBSLTYPE
280
0
  9
$INTERSECTIONDISPLAY
280
0
  9
$INTERSECTIONCOLOR
 70
257
  9
$DIMASSOC
280
2
  9
$PROJECTNAME
  1

  9
$CAMERADISPLAY
290
0
  9
$LENSLENGTH
 40
50.0
  9
$CAMERAHEIGHT
 40
0.0
  9
$STEPSPERSEC
 40
24.0
  9
$STEPSIZE
 40
100.0
  9
$3DDWFPREC
 40
2.0
  9
$PSOLWIDTH
 40
0.005
  9
$PSOLHEIGHT
 40
0.08
  9
$LOFTANG1
 40
1.570796326795
  9
$LOFTANG2
 40
1.570796326795
  9
$LOFTMAG1
 40
0.0
  9
$LOFTMAG2
 40
0.0
  9
$LOFTPARAM
 70
7
  9
$LOFTNORMALS
280
1
  9
$LATITUDE
 40
37.795
  9
$LONGITUDE
 40
-122.394
  9
$NORTHDIRECTION
 40
0.0
  9
$TIMEZONE
 70
-8000
  9
$LIGHTGLYPHDISPLAY
280
1
  9
$TILEMODELIGHTSYNCH
280
1
  9
$CMATERIAL
347
20
  9
$SOLIDHIST
280
0
  9
$SHOWHIST
280
1
  9
$DWFFRAME
280
2
  9
$DGNFRAME
280
2
  9
$REALWORLDSCALE
290
1
  9
$INTERFERECOLOR
 62
256
  9
$CSHADOW
280
0
  9
$SHADOWPLANELOCATION
 40
0.0
  0
ENDSEC
  0
SECTION
  2
CLASSES
  0
CLASS
  1
ACDBDICTIONARYWDFLT
  2
AcDbDictionaryWithDefault
  3
ObjectDBX Classes
 90
0
 91
0
280
0
281
0
  0
CLASS
  1
SUN
  2
AcDbSun
  3
SCENEOE
 90
1153
 91
0
280
0
281
0
  0
CLASS
  1
VISUALSTYLE
  2
AcDbVisualStyle
  3
ObjectDBX Classes
 90
4095
 91
0
280
0
281
0
  0
CLASS
  1
MATERIAL
  2
AcDbMaterial
  3
ObjectDBX Classes
 90
1153
 91
0
280
0
281
0
  0
CLASS
  1
SCALE
  2
AcDbScale
  3
ObjectDBX Classes
 90
1153
 91
0
280
0
281
0
  0
CLASS
  1
TABLESTYLE
  2
AcDbTableStyle
  3
ObjectDBX Classes
 90
4095
 91
0
280
0
281
0
  0
CLASS
  1
MLEADERSTYLE
  2
AcDbMLeaderStyle
  3
ACDB_MLEADERSTYLE_CLASS
 90
4095
 91
0
280
0
281
0
  0
CLASS
  1
DICTIONARYVAR
  2
AcDbDictionaryVar
  3
ObjectDBX Classes
 90
0
 91
0
280
0
281
0
  0
CLASS
  1
CELLSTYLEMAP
  2
AcDbCellStyleMap
  3
ObjectDBX Classes
 90
1152
 91
0
280
0
281
0
  0
CLASS
  1
MENTALRAYRENDERSETTINGS
  2
AcDbMentalRayRenderSettings
  3
SCENEOE
 90
1024
 91
0
280
0
281
0
  0
CLASS
  1
ACDBDETAILVIEWSTYLE
  2
AcDbDetailViewStyle
  3
ObjectDBX Classes
 90
1025
 91
0
280
0
281
0
  0
CLASS
  1
ACDBSECTIONVIEWSTYLE
  2
AcDbSectionViewStyle
  3
ObjectDBX Classes
 90
1025
 91
0
280
0
281
0
  0
CLASS
  1
RASTERVARIABLES
  2
AcDbRasterVariables
  3
ISM
 90
0
 91
0
280
0
281
0
  0
CLASS
  1
LAYOUT
  2
AcDbLayout
  3
ObjectDBX Classes
 90
0
 91
0
280
0
281
0
  0
CLASS
  1
ACDBPLACEHOLDER
  2
AcDbPlaceHolder
  3
ObjectDBX Classes
 90
0
 91
0
280
0
281
0
  0
ENDSEC
  0
SECTION
  2
TABLES
  0
TABLE
  2
VPORT
  5
8
330
0
100
AcDbSymbolTable
 70
1
  0
VPORT
  5
23
330
8
100
AcDbSymbolTableRecord
100
AcDbViewportTableRecord
  2
*Active
 70
0
 10
0.0
 20
0.0
 11
1.0
 21
1.0
 12
0.0
 22
0.0
 13
0.0
 23
0.0
 14
0.5
 24
0.5
 15
0.5
 25
0.5
 16
0.0
 26
0.0
 36
1.0
 17
0.0
 27
0.0
 37
0.0
 40
1000.0
 41
1.34
 42
50.0
 43
0.0
 44
0.0
 50
0.0
 51
0.0
 71
0
 72
1000
 73
1
 74
3
 75
0
 76
0
 77
0
 78
0
281
0
 65
0
146
0.0
  0
ENDTAB
  0
TABLE
  2
LTYPE
  5
2
330
0
100
AcDbSymbolTable
 70
3
  0
LTYPE
  5
24
330
2
100
AcDbSymbolTableRecord
100
AcDbLinetypeTableRecord
  2
ByBlock
 70
0
  3

 72
65
 73
0
 40
0.0
  0
LTYPE
  5
25
330
2
100
AcDbSymbolTableRecord
100
AcDbLinetypeTableRecord
  2
ByLayer
 70
0
  3

 72
65
 73
0
 40
0.0
  0
LTYPE
  5
26
330
2
100
AcDbSymbolTableRecord
100
AcDbLinetypeTableRecord
  2
Continuous
 70
0
  3

 72
65
 73
0
 40
0.0
  0
ENDTAB
  0
TABLE
  2
LAYER
  5
1
330
0
100
AcDbSymbolTable
 70
3
  0
LAYER
  5
27
330
1
100
AcDbSymbolTableRecord
100
AcDbLayerTableRecord
  2
0
 70
0
 62
7
  6
Continuous
370
-3
390
13
347
21
  0
LAYER
  5
28
330
1
100
AcDbSymbolTableRecord
100
AcDbLayerTableRecord
  2
Defpoints
 70
0
 62
7
  6
Continuous
290
0
370
-3
390
13
347
21
  0
LAYER
  5
2F
330
1
100
AcDbSymbolTableRecord
100
AcDbLayerTableRecord
  2
Layer 1
 70
0
 62
5
  6
Continuous
370
-3
390
13
347
21
  0
ENDTAB
  0
TABLE
  2
STYLE
  5
5
330
0
100
AcDbSymbolTable
 70
1
  0
STYLE
  5
29
330
5
100
AcDbSymbolTableRecord
100
AcDbTextStyleTableRecord
  2
Standard
 70
0
 40
0.0
 41
1.0
 50
0.0
 71
0
 42
2.5
  3
txt
  4

  0
ENDTAB
  0
TABLE
  2
VIEW
  5
7
330
0
100
AcDbSymbolTable
 70
0
  0
ENDTAB
  0
TABLE
  2
UCS
  5
6
330
0
100
AcDbSymbolTable
 70
0
  0
ENDTAB
  0
TABLE
  2
APPID
  5
3
330
0
100
AcDbSymbolTable
 70
3
  0
APPID
  5
2A
330
3
100
AcDbSymbolTableRecord
100
AcDbRegAppTableRecord
  2
ACAD
 70
0
  0
APPID
  5
55
330
3
100
AcDbSymbolTableRecord
100
AcDbRegAppTableRecord
  2
HATCHBACKGROUNDCOLOR
 70
0
  0
APPID
  5
56
330
3
100
AcDbSymbolTableRecord
100
AcDbRegAppTableRecord
  2
EZDXF
 70
0
  0
ENDTAB
  0
TABLE
  2
DIMSTYLE
  5
4
330
0
100
AcDbSymbolTable
 70
1
100
AcDbDimStyleTable
  0
DIMSTYLE
105
2B
330
4
100
AcDbSymbolTableRecord
100
AcDbDimStyleTableRecord
  2
Standard
 70
0
 40
1.0
 41
2.5
 42
0.625
 43
3.75
 44
1.25
 45
0.0
 46
0.0
 47
0.0
 48
0.0
 49
2.5
140
2.5
141
2.5
142
0.0
143
0.03937007874
144
1.0
145
0.0
146
1.0
147
0.625
148
0.0
 69
0
 70
0
 71
0
 72
0
 73
0
 74
0
 75
0
 76
0
 77
1
 78
8
 79
3
170
0
171
3
172
1
173
0
174
0
175
0
176
0
177
0
178
0
179
2
271
2
272
2
273
2
274
3
275
0
276
0
277
2
278
44
279
0
280
0
281
0
282
0
283
0
284
8
285
0
286
0
288
0
289
3
290
0
371
-2
372
-2
  0
ENDTAB
  0
TABLE
  2
BLOCK_RECORD
  5
9
330
0
100
AcDbSymbolTable
 70
2
  0
BLOCK_RECORD
  5
17
330
9
100
AcDbSymbolTableRecord
100
AcDbBlockTableRecord
  2
*Model_Space
340
1A
 70
0
280
1
281
0
  0
BLOCK_RECORD
  5
1B
330
9
100
AcDbSymbolTableRecord
100
AcDbBlockTableRecord
  2
*Paper_Space
340
1E
 70
0
280
1
281
0
  0
ENDTAB
  0
ENDSEC
  0
SECTION
  2
BLOCKS
  0
BLOCK
  5
18
330
17
100
AcDbEntity
  8
0
100
AcDbBlockBegin
  2
*Model_Space
 70
0
 10
0.0
 20
0.0
 30
0.0
  3
*Model_Space
  1

  0
ENDBLK
  5
19
330
17
100
AcDbEntity
  8
0
100
AcDbBlockEnd
  0
BLOCK
  5
1C
330
1B
100
AcDbEntity
  8
0
100
AcDbBlockBegin
  2
*Paper_Space
 70
0
 10
0.0
 20
0.0
 30
0.0
  3
*Paper_Space
  1

  0
ENDBLK
  5
1D
330
1B
100
AcDbEntity
  8
0
100
AcDbBlockEnd
  0
ENDSEC
  0
SECTION
  2
ENTITIES
  0
LWPOLYLINE
  5
30
330
17
100
AcDbEntity
  8
Layer 1
100
AcDbPolyline
 90
7
 70
1
 10
22.961309369295332
 20
9.957365025058483
 10
23.151793805884694
 20
9.369347851239164
 10
22.98615516537221
 20
9.120889890470439
 10
22.588622428142244
 20
8.971815114009203
 10
22.27390901116853
 20
9.361065919213537
 10
22.2987548072454
 20
9.708907064289757
 10
22.53893083598851
 20
9.965646957084104
  0
LWPOLYLINE
  5
31
330
17
100
AcDbEntity
  8
Layer 1
100
AcDbPolyline
 90
8
 70
1
 10
18.46422027938141
 20
10.05674820936597
 10
18.78721562838075
 20
9.874545704802241
 10
18.861753016611367
 20
9.501858763649153
 10
18.72924210420139
 20
9.26168273490605
 10
18.273735842792057
 20
9.16229955059856
 10
17.96730435784396
 20
9.493576831623527
 10
17.950740493792708
 20
9.717188996315379
 10
18.190916522535815
 20
9.98221082113535
  0
LWPOLYLINE
  5
32
330
17
100
AcDbEntity
  8
Layer 1
100
AcDbPolyline
 90
8
 70
1
 10
13.495061064006906
 20
10.031902413289098
 10
13.619290044391269
 20
9.891109568853487
 10
13.602726180340017
 20
9.460449103521032
 10
13.279730831340677
 20
9.294810463008549
 10
12.92360775423884
 20
9.327938191111043
 10
12.7745329777776
 20
9.510140695674774
 10
12.782814909803227
 20
9.857981840750988
 10
13.064400598674446
 20
10.081594005442845
  0
LWPOLYLINE
  5
33
330
17
100
AcDbEntity
  8
Layer 1
100
AcDbPolyline
 90
8
 70
1
 10
7.0185902199688
 20
10.172695257724708
 10
7.38299522909627
 20
10.131285597596587
 10
7.532070005557502
 20
9.990492753160977
 10
7.573479665685623
 20
9.592960015931016
 10
7.349867500993767
 20
9.385911715290412
 10
6.944052831738183
 20
9.361065919213537
 10
6.753568395148832
 20
9.592960015931016
 10
6.753568395148832
 20
9.932519228981608
  0
LWPOLYLINE
  5
34
330
17
100
AcDbEntity
  8
Layer 1
100
AcDbPolyline
 90
8
 70
1
 10
3.117800235899818
 20
10.197541053801581
 10
3.3082846724891724
 20
10.05674820936597
 10
3.382822060719789
 20
9.7585986564435
 10
3.1592098960279387
 20
9.460449103521032
 10
2.7202674986698554
 20
9.427321375418533
 10
2.5049372660036298
 20
9.684061268212883
 10
2.5463469261317506
 20
9.990492753160977
 10
2.6871397705673594
 20
10.15613139367346
  0
LWPOLYLINE
  5
35
330
17
100
AcDbEntity
  8
Layer 1
100
AcDbPolyline
 90
7
 70
1
 10
43.285170560177065
 20
10.28864230608345
 10
43.02014873535708
 20
10.305206170134696
 10
42.46525928964026
 20
10.098157869494091
 10
42.3410303092559
 20
9.783444452520373
 10
42.44869542558902
 20
9.65921547213601
 10
42.879355890921474
 20
9.750316724417878
 10
43.27688862815144
 20
10.073312073417219
  0
LWPOLYLINE
  5
36
330
17
100
AcDbEntity
  8
Layer 1
100
AcDbPolyline
 90
6
 70
1
 10
35.110903650886
 20
10.43771708254468
 10
34.25786465224672
 20
10.280360374057823
 10
34.1170718078111
 20
10.098157869494091
 10
34.13363567186235
 20
9.866263772776614
 10
34.382093632631076
 20
9.841417976699741
 10
34.94526501037352
 20
10.098157869494091
  0
LWPOLYLINE
  5
37
330
17
100
AcDbEntity
  8
Layer 1
100
AcDbPolyline
 90
7
 70
1
 10
40.44446787538797
 20
11.025734256363998
 10
40.469313671464846
 20
10.702738907364658
 10
41.23953334984789
 20
10.669611179262159
 10
41.33891653415539
 20
10.7524304995184
 10
41.23953334984789
 20
11.158245168773988
 10
41.08217664136103
 20
11.307319945235218
 10
40.767463224387306
 20
11.348729605363339
  0
LWPOLYLINE
  5
38
330
17
100
AcDbEntity
  8
Layer 1
100
AcDbPolyline
 90
6
 70
1
 10
29.13963066041097
 20
11.224500624978976
 10
29.156194524462222
 20
10.884941411928388
 10
29.91813227081964
 20
10.918069140030884
 10
29.94297806689652
 20
11.166527100799609
 10
29.686238174102165
 20
11.414985061568334
 10
29.354960893077198
 20
11.406703129542713
  0
LWPOLYLINE
  5
39
330
17
100
AcDbEntity
  8
Layer 1
100
AcDbPolyline
 90
7
 70
1
 10
27.69029255592674
 20
11.439830857645207
 10
27.19337663438929
 20
11.373575401440213
 10
27.201658566414913
 20
9.949083093032856
 10
27.648882895798618
 20
9.94080116100723
 10
27.955314380746717
 20
10.164413325699087
 10
28.071261429105455
 20
10.744148567492779
 10
27.996724040874838
 20
11.20793676092773
  0
LWPOLYLINE
  5
3A
330
17
100
AcDbEntity
  8
Layer 1
100
AcDbPolyline
 90
19
 70
1
 10
42.481823153691515
 20
11.481240517773328
 10
43.14437771574145
 20
11.530932109927075
 10
43.61644784120203
 20
11.224500624978976
 10
43.59988397715078
 20
9.352783987187916
 10
43.4011176085358
 20
9.37762978326479
 10
43.26032476410019
 20
9.592960015931016
 10
42.49010508571714
 20
9.344502055162291
 10
42.05116268835906
 20
9.5184226277004
 10
42.03459882430781
 20
10.065030141391592
 10
42.13398200861529
 20
10.280360374057823
 10
42.589488270024624
 20
10.520536402800921
 10
43.19406930789519
 20
10.65304731521091
 10
43.31829828827956
 20
10.810404023697767
 10
43.27688862815144
 20
11.100271644594613
 10
42.96217521117771
 20
11.232782557004603
 10
42.62261599812713
 20
11.183090964850855
 10
42.481823153691515
 20
10.810404023697767
 10
42.23336519292279
 20
10.744148567492779
 10
42.13398200861529
 20
11.034016188389625
  0
LWPOLYLINE
  5
3B
330
17
100
AcDbEntity
  8
Layer 1
100
AcDbPolyline
 90
24
 70
1
 10
44.196183082995724
 20
11.439830857645207
 10
44.403231383636324
 20
11.56405983802957
 10
44.58543388820006
 20
11.439830857645207
 10
45.14860526594251
 20
11.481240517773328
 10
45.413627090762475
 20
11.381857333465838
 10
46.291511885478634
 20
11.456394721696455
 10
46.54825177827298
 20
11.307319945235218
 10
46.68904462270859
 20
10.810404023697767
 10
46.65591689460611
 20
9.327938191111043
 10
46.415740865863
 20
9.311374327059795
 10
46.30807574952989
 20
9.501858763649153
 10
46.3163576815555
 20
11.00917039231275
 10
45.94367074040242
 20
11.133399372697113
 10
45.71177664368494
 20
11.091989712568992
 10
45.59582959532621
 20
10.777276295595273
 10
45.59582959532621
 20
9.352783987187916
 10
45.34737163455748
 20
9.361065919213537
 10
45.33908970253185
 20
10.984324596235878
 10
45.02437628555814
 20
11.191372896876482
 10
44.71794480061004
 20
11.116835508645867
 10
44.53574229604631
 20
10.926351072056509
 10
44.53574229604631
 20
9.443885239469779
 10
44.30384819932883
 20
9.33622012313667
 10
44.16305535489322
 20
9.477012967572279
  0
LWPOLYLINE
  5
3C
330
17
100
AcDbEntity
  8
Layer 1
100
AcDbPolyline
 90
17
 70
1
 10
40.966229593002296
 20
11.655161090311438
 10
41.47142744656536
 20
11.348729605363339
 10
41.603938358975356
 20
11.025734256363998
 10
41.603938358975356
 20
10.445999014570306
 10
40.40305821525985
 20
10.379743558365313
 10
40.3533666231061
 20
10.222386849878454
 10
40.576978787797955
 20
9.717188996315379
 10
41.11530436946353
 20
9.708907064289757
 10
41.43829971846287
 20
9.949083093032856
 10
41.49627324264224
 20
9.592960015931016
 10
41.181559825668515
 20
9.394193647316037
 10
40.452749807413596
 20
9.402475579341658
 10
40.063499002209255
 20
9.932519228981608
 10
39.980679681953006
 20
10.768994363569647
 10
40.096626730311755
 20
11.199654828902109
 10
40.30367503095236
 20
11.456394721696455
 10
40.58526071982358
 20
11.630315294234563
  0
LWPOLYLINE
  5
3D
330
17
100
AcDbEntity
  8
Layer 1
100
AcDbPolyline
 90
21
 70
1
 10
31.442007763534495
 20
11.696570750439559
 10
31.905795956969442
 20
11.66344302233706
 10
32.30332869419941
 20
11.199654828902109
 10
32.27848289812253
 20
10.984324596235878
 10
32.104562325584425
 20
10.93463300408213
 10
31.748439248482583
 20
11.332165741312092
 10
31.259805258970758
 20
11.274192217132724
 10
31.069320822381407
 20
10.951196868133383
 10
31.069320822381407
 20
10.280360374057823
 10
31.342624579227
 20
9.932519228981608
 10
31.71531152038009
 20
9.874545704802241
 10
31.99689720925131
 20
10.305206170134696
 10
32.28676483014816
 20
10.230668781904075
 10
32.25363710204566
 20
9.949083093032856
 10
31.92235982102069
 20
9.601241947956641
 10
31.110730482509528
 20
9.675779336187258
 10
30.87055445376642
 20
9.849699908725366
 10
30.71319774527956
 20
10.272078442032196
 10
30.69663388122832
 20
10.868377547877142
 10
30.8291447936383
 20
11.257628353081476
 10
31.08588468643265
 20
11.539214041952697
  0
LWPOLYLINE
  5
3E
330
17
100
AcDbEntity
  8
Layer 1
100
AcDbPolyline
 90
18
 70
1
 10
34.108789875785476
 20
11.522650177901449
 10
34.72165284568166
 20
11.70485268246518
 10
35.13574944696287
 20
11.638597226260185
 10
35.37592547570598
 20
11.43154892561958
 10
35.34279774760347
 20
9.493576831623527
 10
35.04464819468101
 20
9.725470928341004
 10
34.31583817642608
 20
9.4852948995979
 10
34.0176886235036
 20
9.534986491751647
 10
33.818922254888626
 20
9.70062513226413
 10
33.769230662734884
 20
10.247232645955329
 10
33.96799703134987
 20
10.495690606724054
 10
35.119185582911626
 20
10.951196868133383
 10
35.12746751493725
 20
11.20793676092773
 10
34.89557341821977
 20
11.39013926549146
 10
34.43178522478482
 20
11.340447673337717
 10
34.183327264016086
 20
10.918069140030884
 10
33.992842827426735
 20
10.951196868133383
 10
33.95971509932424
 20
11.24934642105585
  0
LWPOLYLINE
  5
3F
330
17
100
AcDbEntity
  8
Layer 1
100
AcDbPolyline
 90
17
 70
1
 10
29.272141572820956
 20
11.721416546516426
 10
29.951259998922144
 20
11.688288818413932
 10
30.274255347921486
 20
11.20793676092773
 10
30.21628182374211
 20
10.61163765508279
 10
29.106502932308473
 20
10.5122544707753
 10
29.131348728385344
 20
10.131285597596587
 10
29.296987368897828
 20
9.891109568853487
 10
29.586854989794674
 20
9.857981840750988
 10
29.893286474742773
 20
10.106439801519713
 10
30.141744435511498
 20
10.11472173354534
 10
30.166590231588366
 20
9.824854112648493
 10
30.02579738715276
 20
9.650933540110383
 10
29.131348728385344
 20
9.601241947956641
 10
28.758661787232256
 20
10.081594005442845
 10
28.667560534950397
 20
10.495690606724054
 10
28.76694371925788
 20
11.28247414915835
 10
29.00711974800098
 20
11.588905634106442
  0
LWPOLYLINE
  5
40
330
17
100
AcDbEntity
  8
Layer 1
100
AcDbPolyline
 90
8
 70
1
 10
33.04042064447996
 20
11.754544274618926
 10
33.19777735296682
 20
11.572341770055196
 10
33.17293155688995
 20
10.677893111287784
 10
33.09839416865933
 20
9.667497404161637
 10
32.93275552814685
 20
9.55983228782852
 10
32.78368075168561
 20
9.783444452520373
 10
32.79196268371123
 20
11.406703129542713
 10
32.85821813991622
 20
11.655161090311438
  0
LWPOLYLINE
  5
41
330
17
100
AcDbEntity
  8
Layer 1
100
AcDbPolyline
 90
11
 70
1
 10
27.864213128464847
 20
11.746262342593301
 10
28.195490409489814
 20
11.530932109927075
 10
28.33628325392543
 20
11.28247414915835
 10
28.42738450620729
 20
10.686175043313405
 10
28.31971938987418
 20
10.21410491785283
 10
27.955314380746717
 20
9.692343200238504
 10
27.201658566414913
 20
9.650933540110383
 10
27.144384861686184
 20
8.8885535428798
 10
26.84122771488197
 20
8.932000222101962
 10
26.853817421338697
 20
11.56405983802957
 10
27.143685042235543
 20
11.795953934747047
  0
LWPOLYLINE
  5
42
330
17
100
AcDbEntity
  8
Layer 1
100
AcDbPolyline
 90
7
 70
1
 10
36.27865606649901
 20
12.41709883666886
 10
36.40288504688337
 20
11.953310643233905
 10
36.33662959067837
 20
9.534986491751647
 10
36.14614515408903
 20
9.477012967572279
 10
35.98050651357654
 20
9.576396151879768
 10
36.005352309653404
 20
12.019566099438899
 10
36.08817162990965
 20
12.284587924258872
  0
LWPOLYLINE
  5
43
330
17
100
AcDbEntity
  8
Layer 1
100
AcDbPolyline
 90
7
 70
1
 10
33.04042064447996
 20
12.433662700720108
 10
33.16464962486432
 20
12.400534972617614
 10
33.20605928499244
 20
12.19348667197701
 10
33.131521896761825
 20
12.052693827541393
 10
32.99072905232621
 20
12.027848031464526
 10
32.85906611006232
 20
12.144876409312477
 10
32.91619166409559
 20
12.350843380463866
  0
LWPOLYLINE
  5
44
330
17
100
AcDbEntity
  8
Layer 1
100
AcDbPolyline
 90
29
 70
1
 10
25.321659996598225
 20
12.51648202097635
 10
25.951086830545663
 20
12.45850849679698
 10
26.315491839673125
 20
12.243178264130751
 10
26.49769434423686
 20
11.986438371336405
 10
26.49769434423686
 20
11.787672002721422
 10
26.340337635750004
 20
11.680006886388306
 10
25.71919273382819
 20
12.176922807925756
 10
25.41276124888009
 20
12.176922807925756
 10
25.189149084188244
 20
11.96159257525953
 10
25.255404540393233
 20
11.472958585747701
 10
26.08359774295565
 20
11.10855357662024
 10
26.39002922790375
 20
10.735866635467152
 10
26.406593091954992
 20
10.205822985827208
 10
26.298927975621883
 20
9.915955364930362
 10
25.710910801802562
 20
9.617805812007889
 10
25.122893627983245
 20
9.775162520494746
 10
24.882717599240145
 20
9.94080116100723
 10
24.700515094676412
 20
10.28864230608345
 10
24.758488618855782
 20
10.777276295595273
 10
24.98210078354764
 20
10.686175043313405
 10
25.08976589988075
 20
10.28864230608345
 10
25.487298637110708
 20
9.965646957084104
 10
25.93452296649442
 20
10.081594005442845
 10
26.116725471058146
 20
10.445999014570306
 10
25.93452296649442
 20
10.851813683825888
 10
25.0732020358295
 20
11.183090964850855
 10
24.8992814632914
 20
11.357011537388965
 10
24.91584532734264
 20
12.085821555643893
 10
25.081483967855124
 20
12.375689176540739
  0
LWPOLYLINE
  5
45
330
17
100
AcDbEntity
  8
Layer 1
100
AcDbPolyline
 90
12
 70
1
 10
38.00129792782884
 20
12.508200088950725
 10
39.73222172118429
 20
12.524763953001976
 10
39.85645070156865
 20
12.392253040591987
 10
39.79019524536366
 20
12.218332468053877
 10
39.26843352774934
 20
12.210050536028255
 10
39.02825749900623
 20
12.011284167413272
 10
39.04482136305748
 20
9.849699908725366
 10
38.94543817874999
 20
9.477012967572279
 10
38.74667181013501
 20
9.543268423777274
 10
38.76323567418626
 20
12.085821555643893
 10
38.65557055785314
 20
12.20176860400263
 10
37.993015995803205
 20
12.251460196156376
  0
LWPOLYLINE
  5
46
330
17
100
AcDbEntity
  8
Layer 1
100
AcDbPolyline
 90
5
 70
1
 10
30.622096492997695
 20
14.330225134588042
 10
30.754607405407683
 20
14.197714222178059
 10
30.704915813253937
 20
13.858155009127465
 10
30.48130364856209
 20
13.924410465332459
 10
30.489585580587715
 20
14.230841950280553
  0
LWPOLYLINE
  5
47
330
17
100
AcDbEntity
  8
Layer 1
100
AcDbPolyline
 90
6
 70
1
 10
27.218222430466167
 20
14.388198658767415
 10
27.325887546799276
 20
14.18115035812681
 10
27.251350158568663
 20
13.899564669255586
 10
27.052583789953683
 20
13.96582012546058
 10
27.01386907586406
 20
14.12143918202801
 10
27.04430185792806
 20
14.297097406485547
  0
LWPOLYLINE
  5
48
330
17
100
AcDbEntity
  8
Layer 1
100
AcDbPolyline
 90
5
 70
1
 10
10.405900418449093
 20
15.837536763251645
 10
9.685372332219787
 20
13.029961806565048
 10
10.82827895175592
 20
13.063089534667547
 10
10.82827895175592
 20
13.22872817518003
 10
10.753741563525303
 20
13.758771824819975
  0
LWPOLYLINE
  5
49
330
17
100
AcDbEntity
  8
Layer 1
100
AcDbPolyline
 90
8
 70
1
 10
16.484838525257235
 20
16.375862344917216
 10
16.269508292591006
 20
16.442117801122208
 10
15.00237269267051
 20
15.920356083507887
 10
14.96096303254239
 20
13.816745348999344
 10
16.120433516129772
 20
14.114894901921817
 10
16.633913301718465
 20
14.686348211689882
 10
16.840961602359073
 20
15.141854473099212
 10
16.865807398435948
 20
15.928638015533508
  0
LWPOLYLINE
  5
4A
330
17
100
AcDbEntity
  8
Layer 1
100
AcDbPolyline
 90
8
 70
1
 10
31.872668228866946
 20
16.458681665173458
 10
31.789848908610704
 20
14.172868426101184
 10
32.59319631509625
 20
14.172868426101184
 10
32.85821813991622
 20
14.396480590793036
 10
33.065266440556826
 20
14.976215832586728
 10
33.08793131994112
 20
15.552532908829722
 10
32.96588325624934
 20
15.961765743636008
 10
32.60147824712188
 20
16.417272005045337
  0
LWPOLYLINE
  5
4B
330
17
100
AcDbEntity
  8
Layer 1
100
AcDbPolyline
 90
6
 70
1
 10
28.53504962254041
 20
16.483527461250326
 10
28.501921894437913
 20
15.299211181586074
 10
29.37152475712845
 20
15.299211181586074
 10
29.57029112574343
 20
15.671898122739162
 10
29.479189873461564
 20
16.301324956686596
 10
29.18104032053909
 20
16.491809393275954
  0
LWPOLYLINE
  5
4C
330
17
100
AcDbEntity
  8
Layer 1
100
AcDbPolyline
 90
6
 70
1
 10
25.1394574920345
 20
16.591192577583442
 10
25.064920103803882
 20
15.423440161970436
 10
25.926241034468795
 20
15.382030501842316
 10
26.224390587391266
 20
15.854100627302893
 10
26.149853199160642
 20
16.442117801122208
 10
25.98421455864816
 20
16.574628713532196
  0
LWPOLYLINE
  5
4D
330
17
100
AcDbEntity
  8
Layer 1
100
AcDbPolyline
 90
11
 70
1
 10
31.63249220012385
 20
16.64916610176281
 10
31.92235982102069
 20
16.73198542201905
 10
32.75055302358311
 20
16.64916610176281
 10
33.22262314904369
 20
16.226787568455983
 10
33.41310758563304
 20
15.506259482226678
 10
33.388261789556175
 20
14.984497764612355
 10
33.09839416865933
 20
14.18115035812681
 10
32.80024461573686
 20
13.916128533306834
 10
31.5828006079701
 20
13.866436941153092
 10
31.458571627585737
 20
14.023793649639948
 10
31.483417423662615
 20
16.384144276942838
  0
LWPOLYLINE
  5
4E
330
17
100
AcDbEntity
  8
Layer 1
100
AcDbPolyline
 90
13
 70
1
 10
29.363242825102827
 20
16.69885769391656
 10
29.562009193717806
 20
16.616038373660317
 10
29.802185222460903
 20
16.276479160609725
 10
29.885004542717144
 20
16.01145733578975
 10
29.81046715448653
 20
15.357184705765443
 10
29.603418853845923
 20
15.09216288094547
 10
29.33011509700033
 20
14.984497764612355
 10
28.501921894437913
 20
14.984497764612355
 10
28.485358030386664
 20
14.131458765973063
 10
28.33628325392543
 20
13.940974329383707
 10
28.203772341515442
 20
14.255687746357426
 10
28.253463933669188
 20
16.58291064555782
 10
28.477076098361035
 20
16.756831218095925
  0
LWPOLYLINE
  5
4F
330
17
100
AcDbEntity
  8
Layer 1
100
AcDbPolyline
 90
16
 70
1
 10
26.12500740308377
 20
16.86449633442904
 10
26.381747295878125
 20
16.64916610176281
 10
26.56394980044185
 20
16.01145733578975
 10
26.464566616134366
 20
15.572514938431668
 10
26.10844353903252
 20
15.034189356766097
 10
26.63020525664685
 20
14.090049105844942
 10
26.489412412211234
 20
13.982383989511828
 10
26.315491839673125
 20
14.040357513691196
 10
25.793730122058804
 20
14.976215832586728
 10
25.197431016213862
 20
15.108726744996718
 10
25.04835623975263
 20
14.976215832586728
 10
25.04835623975263
 20
13.96582012546058
 10
24.824744075060774
 20
13.924410465332459
 10
24.68395123062517
 20
14.197714222178059
 10
24.72536089075329
 20
16.60775644163469
 10
24.957254987470762
 20
16.856214402403417
  0
LWPOLYLINE
  5
50
330
17
100
AcDbEntity
  8
Layer 1
100
AcDbPolyline
 90
26
 70
1
 10
16.509684321334106
 20
17.55189669255585
 10
16.94862671869219
 20
17.262029071659
 10
17.362723319973398
 20
16.42555393707096
 10
17.52836196048588
 20
15.804409035149146
 10
17.544925824537124
 20
15.224673793355453
 10
17.18880274743529
 20
13.891282737229965
 10
16.940344786666564
 20
13.477186135948756
 10
16.609067505641598
 20
13.303265563410646
 10
16.683604893872214
 20
12.433662700720108
 10
17.01488217489718
 20
10.97604266421025
 10
17.544925824537124
 20
10.123003665570966
 10
17.52836196048588
 20
9.874545704802241
 10
17.180520815409665
 20
9.178863414649808
 10
16.5428120494366
 20
10.023620481263471
 10
16.21153476841163
 20
10.992606528261504
 10
16.079023856001655
 20
12.566173613130097
 10
15.929949079540412
 20
13.063089534667547
 10
15.28395838154173
 20
12.889168962129437
 10
15.00237269267051
 20
12.65727486541196
 10
15.00237269267051
 20
9.394193647316037
 10
14.19902528618496
 20
9.352783987187916
 10
14.099642101877468
 20
9.551550355802895
 10
14.22387108226183
 20
13.361239087590015
 10
14.232153014287457
 20
13.82502728102497
 10
14.298408470492456
 20
16.905905994557163
 10
14.439201314928061
 20
17.063262703044018
  0
LWPOLYLINE
  5
51
330
17
100
AcDbEntity
  8
Layer 1
100
AcDbPolyline
 90
22
 70
1
 10
22.050296846476673
 20
17.585024420658343
 10
22.08342457457918
 20
16.04458506389225
 10
22.000605254322938
 20
15.845818695277266
 10
20.849416702761168
 20
15.299211181586074
 10
20.36906464527497
 20
14.752603667894878
 10
20.642368402120564
 20
13.998947853563076
 10
21.222103643914256
 20
13.203882379103158
 10
21.84324854583607
 20
12.325997584386993
 10
22.000605254322938
 20
11.66344302233706
 10
22.01716911837418
 20
10.89322334395401
 10
21.62791831316985
 20
10.43771708254468
 10
20.98192761517116
 20
9.973928889109729
 10
19.400078598276938
 20
9.079480230342318
 10
19.424924394353816
 20
10.71102083939028
 10
20.758315450479312
 20
11.56405983802957
 10
21.03990113935053
 20
12.019566099438899
 10
20.319373053121225
 20
13.278419767333773
 10
20.0709150923525
 20
13.634542844435613
 10
19.400078598276938
 20
15.075599016894218
 10
19.44148825840506
 20
15.605642666534168
 10
19.72307394727629
 20
16.15225018022536
 10
21.652764109246718
 20
17.45251350824836
  0
LWPOLYLINE
  5
52
330
17
100
AcDbEntity
  8
Layer 1
100
AcDbPolyline
 90
18
 70
1
 10
11.068454980499027
 20
17.54361476053022
 10
11.391450329498369
 20
14.678066279664261
 10
11.449423853677732
 20
13.982383989511828
 10
11.548807037985226
 20
13.311547495436272
 10
12.012595231420182
 20
9.452167171495406
 10
11.855238522933325
 20
9.369347851239164
 10
11.275503281139633
 20
9.477012967572279
 10
11.027045320370906
 20
11.60546949815769
 10
9.63568074006604
 20
11.721416546516426
 10
9.279557662964205
 20
11.588905634106442
 10
8.79092367345238
 20
9.543268423777274
 10
8.650130829016765
 20
9.435603307444158
 10
8.0124220630437
 20
9.443885239469779
 10
7.979294334941205
 20
9.733752860366625
 10
8.96484424599048
 20
12.955424418334433
 10
9.262993798912952
 20
14.06520330976807
 10
10.13259666160349
 20
17.43594964419711
 10
10.314799166167226
 20
17.593306352683967
  0
LWPOLYLINE
  5
53
330
17
100
AcDbEntity
  8
Layer 1
100
AcDbPolyline
 90
13
 70
1
 10
7.38299522909627
 20
17.67612567294021
 10
7.523788073531875
 20
17.568460556607096
 10
7.58176159771125
 20
16.806522810249675
 10
6.339471793867624
 20
16.50009132530158
 10
6.074449969047645
 20
16.32617075276347
 10
5.966784852714536
 20
9.576396151879768
 10
5.792864280176424
 20
9.468731035546654
 10
5.014362669767756
 20
9.477012967572279
 10
5.07233619394712
 20
13.419212611769384
 10
5.0806181259727445
 20
13.733926028743102
 10
5.155155514203361
 20
16.293043024660975
 10
3.9294295744109853
 20
16.35101654884034
 10
3.9211476423853604
 20
17.170927819377134
  0
LWPOLYLINE
  5
54
330
17
100
AcDbEntity
  8
Layer 1
100
AcDbPolyline
 90
24
 70
1
 10
2.380708285619267
 20
17.99083908991393
 10
2.306170897388647
 20
16.32617075276347
 10
0.7905773366994246
 20
15.58907880248292
 10
0.49242778377695373
 20
15.19154606525296
 10
0.6497844922638123
 20
14.83542298815112
 10
1.320620986339371
 20
13.800181484948096
 10
1.610488607236217
 20
13.518595796076877
 10
2.090840664722421
 20
12.748376117693828
 10
2.264761237260526
 20
12.226614400079503
 10
2.273043169286151
 20
11.398421197517086
 10
1.5359512190056002
 20
10.586791859005917
 10
-0.22810030245234714
 20
9.5184226277004
 10
-0.31091962270858886
 20
10.7524304995184
 10
-0.23638223447797557
 20
11.191372896876482
 10
0.8568327929044166
 20
11.870491322977664
 10
1.3289029183649959
 20
12.367407244515114
 10
1.1052907536731418
 20
13.104499194795668
 10
0.8319869968275455
 20
13.526877728102498
 10
0.6497844922638123
 20
13.800181484948096
 10
-0.18669064232422627
 20
15.37374856981669
 10
-0.2198183704267258
 20
15.912074151482262
 10
-0.11215325409361299
 20
16.359298480865966
 10
0.27709755111072454
 20
16.814804742275292
 10
2.132250324850542
 20
18.0156848859908
  0
ENDSEC
  0
SECTION
  2
OBJECTS
  0
DICTIONARY
  5
A
330
0
100
AcDbDictionary
281
1
  3
ACAD_COLOR
350
B
  3
ACAD_GROUP
350
C
  3
ACAD_LAYOUT
350
D
  3
ACAD_MATERIAL
350
E
  3
ACAD_MLEADERSTYLE
350
F
  3
ACAD_MLINESTYLE
350
10
  3
ACAD_PLOTSETTINGS
350
11
  3
ACAD_PLOTSTYLENAME
350
12
  3
ACAD_SCALELIST
350
14
  3
ACAD_TABLESTYLE
350
15
  3
ACAD_VISUALSTYLE
350
16
  3
EZDXF_META
350
2D
  0
DICTIONARY
  5
B
330
A
100
AcDbDictionary
281
1
  0
DICTIONARY
  5
C
330
A
100
AcDbDictionary
281
1
  0
DICTIONARY
  5
D
330
A
100
AcDbDictionary
281
1
  3
Model
350
1A
  3
Layout1
350
1E
  0
DICTIONARY
  5
E
330
A
100
AcDbDictionary
281
1
  3
ByBlock
350
1F
  3
ByLayer
350
20
  3
Global
350
21
  0
DICTIONARY
  5
F
330
A
100
AcDbDictionary
281
1
  3
Standard
350
2C
  0
DICTIONARY
  5
10
330
A
100
AcDbDictionary
281
1
  3
Standard
350
22
  0
DICTIONARY
  5
11
330
A
100
AcDbDictionary
281
1
  0
ACDBDICTIONARYWDFLT
  5
12
330
A
100
AcDbDictionary
281
1
  3
Normal
350
13
100
AcDbDictionaryWithDefault
340
13
  0
ACDBPLACEHOLDER
  5
13
330
12
  0
DICTIONARY
  5
14
330
A
100
AcDbDictionary
281
1
  0
DICTIONARY
  5
15
330
A
100
AcDbDictionary
281
1
  0
DICTIONARY
  5
16
330
A
100
AcDbDictionary
281
1
  0
LAYOUT
  5
1A
330
D
100
AcDbPlotSettings
  1

  4
A3
  6

 40
7.5
 41
20.0
 42
7.5
 43
20.0
 44
420.0
 45
297.0
 46
0.0
 47
0.0
 48
0.0
 49
0.0
140
0.0
141
0.0
142
1.0
143
1.0
 70
1024
 72
1
 73
0
 74
5
  7

 75
16
 76
0
 77
2
 78
300
147
1.0
148
0.0
149
0.0
100
AcDbLayout
  1
Model
 70
1
 71
0
 10
0.0
 20
0.0
 11
420.0
 21
297.0
 12
0.0
 22
0.0
 32
0.0
 14
1e+20
 24
1e+20
 34
1e+20
 15
-1e+20
 25
-1e+20
 35
-1e+20
146
0.0
 13
0.0
 23
0.0
 33
0.0
 16
1.0
 26
0.0
 36
0.0
 17
0.0
 27
1.0
 37
0.0
 76
1
330
17
  0
LAYOUT
  5
1E
330
D
100
AcDbPlotSettings
  1

  4
A3
  6

 40
7.5
 41
20.0
 42
7.5
 43
20.0
 44
420.0
 45
297.0
 46
0.0
 47
0.0
 48
0.0
 49
0.0
140
0.0
141
0.0
142
1.0
143
1.0
 70
0
 72
1
 73
0
 74
5
  7

 75
16
 76
0
 77
2
 78
300
147
1.0
148
0.0
149
0.0
100
AcDbLayout
  1
Layout1
 70
1
 71
1
 10
0.0
 20
0.0
 11
420.0
 21
297.0
 12
0.0
 22
0.0
 32
0.0
 14
1e+20
 24
1e+20
 34
1e+20
 15
-1e+20
 25
-1e+20
 35
-1e+20
146
0.0
 13
0.0
 23
0.0
 33
0.0
 16
1.0
 26
0.0
 36
0.0
 17
0.0
 27
1.0
 37
0.0
 76
1
330
1B
  0
MATERIAL
  5
1F
102
{ACAD_REACTORS
330
E
102
}
330
E
100
AcDbMaterial
  1
ByBlock
  2

 70
0
 40
1.0
 71
1
 41
1.0
 91
-1023410177
 42
1.0
 72
1
  3

 73
1
 74
1
 75
1
 44
0.5
 73
0
 45
1.0
 46
1.0
 77
1
  4

 78
1
 79
1
170
1
 48
1.0
171
1
  6

172
1
173
1
174
1
140
1.0
141
1.0
175
1
  7

176
1
177
1
178
1
143
1.0
179
1
  8

270
1
271
1
272
1
145
1.0
146
1.0
273
1
  9

274
1
275
1
276
1
 42
1.0
 72
1
  3

 73
1
 74
1
 75
1
 94
63
  0
MATERIAL
  5
20
102
{ACAD_REACTORS
330
E
102
}
330
E
100
AcDbMaterial
  1
ByLayer
  2

 70
0
 40
1.0
 71
1
 41
1.0
 91
-1023410177
 42
1.0
 72
1
  3

 73
1
 74
1
 75
1
 44
0.5
 73
0
 45
1.0
 46
1.0
 77
1
  4

 78
1
 79
1
170
1
 48
1.0
171
1
  6

172
1
173
1
174
1
140
1.0
141
1.0
175
1
  7

176
1
177
1
178
1
143
1.0
179
1
  8

270
1
271
1
272
1
145
1.0
146
1.0
273
1
  9

274
1
275
1
276
1
 42
1.0
 72
1
  3

 73
1
 74
1
 75
1
 94
63
  0
MATERIAL
  5
21
102
{ACAD_REACTORS
330
E
102
}
330
E
100
AcDbMaterial
  1
Global
  2

 70
0
 40
1.0
 71
1
 41
1.0
 91
-1023410177
 42
1.0
 72
1
  3

 73
1
 74
1
 75
1
 44
0.5
 73
0
 45
1.0
 46
1.0
 77
1
  4

 78
1
 79
1
170
1
 48
1.0
171
1
  6

172
1
173
1
174
1
140
1.0
141
1.0
175
1
  7

176
1
177
1
178
1
143
1.0
179
1
  8

270
1
271
1
272
1
145
1.0
146
1.0
273
1
  9

274
1
275
1
276
1
 42
1.0
 72
1
  3

 73
1
 74
1
 75
1
 94
63
  0
MLINESTYLE
  5
22
102
{ACAD_REACTORS
330
10
102
}
330
10
100
AcDbMlineStyle
  2
Standard
 70
0
  3

 62
256
 51
90.0
 52
90.0
 71
2
 49
0.5
 62
256
  6
BYLAYER
 49
-0.5
 62
256
  6
BYLAYER
  0
MLEADERSTYLE
  5
2C
102
{ACAD_REACTORS
330
F
102
}
330
F
100
AcDbMLeaderStyle
179
2
170
2
171
1
172
0
 90
2
 40
0.0
 41
0.0
173
1
 91
-1056964608
 92
-2
290
1
 42
2.0
291
1
 43
8.0
  3
Standard
 44
4.0
300

342
29
174
1
175
1
176
0
178
1
 93
-1056964608
 45
4.0
292
0
297
0
 46
4.0
 94
-1056964608
 47
1.0
 49
1.0
140
1.0
294
1
141
0.0
177
0
142
1.0
295
0
296
0
143
3.75
271
0
272
9
273
9
  0
DICTIONARY
  5
2D
330
A
100
AcDbDictionary
280
1
281
1
  3
CREATED_BY_EZDXF
350
2E
  3
WRITTEN_BY_EZDXF
350
57
  0
DICTIONARYVAR
  5
2E
330
2D
100
DictionaryVariables
280
0
  1
1.4.3 @ 2026-07-05T22:32:08.264627+00:00
  0
DICTIONARYVAR
  5
57
330
2D
100
DictionaryVariables
280
0
  1
1.4.3 @ 2026-07-05T22:32:08.268781+00:00
  0
ENDSEC
  0
EOF
