  0
SECTION
  2
HEADER
  9
$ACADVER
  1
AC1024
  9
$ACADMAINTVER
 70
6
  9
$DWGCODEPAGE
  3
ANSI_1252
  9
$LASTSAVEDBY
  1
ezdxf
  9
$INSBASE
 10
0.0
 20
0.0
 30
0.0
  9
$EXTMIN
 10
1e+20
 20
1e+20
 30
1e+20
  9
$EXTMAX
 10
-1e+20
 20
-1e+20
 30
-1e+20
  9
$LIMMIN
 10
0.0
 20
0.0
  9
$LIMMAX
 10
420.0
 20
297.0
  9
$ORTHOMODE
 70
0
  9
$REGENMODE
 70
1
  9
$FILLMODE
 70
1
  9
$QTEXTMODE
 70
0
  9
$MIRRTEXT
 70
1
  9
$LTSCALE
 40
1.0
  9
$ATTMODE
 70
1
  9
$TEXTSIZE
 40
2.5
  9
$TRACEWID
 40
1.0
  9
$TEXTSTYLE
  7
Standard
  9
$CLAYER
  8
0
  9
$CELTYPE
  6
ByLayer
  9
$CECOLOR
 62
256
  9
$CELTSCALE
 40
1.0
  9
$DISPSILH
 70
0
  9
$DIMSCALE
 40
1.0
  9
$DIMASZ
 40
2.5
  9
$DIMEXO
 40
0.625
  9
$DIMDLI
 40
3.75
  9
$DIMRND
 40
0.0
  9
$DIMDLE
 40
0.0
  9
$DIMEXE
 40
1.25
  9
$DIMTP
 40
0.0
  9
$DIMTM
 40
0.0
  9
$DIMTXT
 40
2.5
  9
$DIMCEN
 40
2.5
  9
$DIMTSZ
 40
0.0
  9
$DIMTOL
 70
0
  9
$DIMLIM
 70
0
  9
$DIMTIH
 70
0
  9
$DIMTOH
 70
0
  9
$DIMSE1
 70
0
  9
$DIMSE2
 70
0
  9
$DIMTAD
 70
1
  9
$DIMZIN
 70
8
  9
$DIMBLK
  1

  9
$DIMASO
 70
1
  9
$DIMSHO
 70
1
  9
$DIMPOST
  1

  9
$DIMAPOST
  1

  9
$DIMALT
 70
0
  9
$DIMALTD
 70
3
  9
$DIMALTF
 40
0.03937007874
  9
$DIMLFAC
 40
1.0
  9
$DIMTOFL
 70
1
  9
$DIMTVP
 40
0.0
  9
$DIMTIX
 70
0
  9
$DIMSOXD
 70
0
  9
$DIMSAH
 70
0
  9
$DIMBLK1
  1

  9
$DIMBLK2
  1

  9
$DIMSTYLE
  2
ISO-25
  9
$DIMCLRD
 70
0
  9
$DIMCLRE
 70
0
  9
$DIMCLRT
 70
0
  9
$DIMTFAC
 40
1.0
  9
$DIMGAP
 40
0.625
  9
$DIMJUST
 70
0
  9
$DIMSD1
 70
0
  9
$DIMSD2
 70
0
  9
$DIMTOLJ
 70
0
  9
$DIMTZIN
 70
8
  9
$DIMALTZ
 70
0
  9
$DIMALTTZ
 70
0
  9
$DIMUPT
 70
0
  9
$DIMDEC
 70
2
  9
$DIMTDEC
 70
2
  9
$DIMALTU
 70
2
  9
$DIMALTTD
 70
3
  9
$DIMTXSTY
  7
Standard
  9
$DIMAUNIT
 70
0
  9
$DIMADEC
 70
0
  9
$DIMALTRND
 40
0.0
  9
$DIMAZIN
 70
0
  9
$DIMDSEP
 70
44
  9
$DIMATFIT
 70
3
  9
$DIMFRAC
 70
0
  9
$DIMLDRBLK
  1

  9
$DIMLUNIT
 70
2
  9
$DIMLWD
 70
-2
  9
$DIMLWE
 70
-2
  9
$DIMTMOVE
 70
0
  9
$DIMFXL
 40
1.0
  9
$DIMFXLON
 70
0
  9
$DIMJOGANG
 40
0.785398163397
  9
$DIMTFILL
 70
0
  9
$DIMTFILLCLR
 70
0
  9
$DIMARCSYM
 70
0
  9
$DIMLTYPE
  6

  9
$DIMLTEX1
  6

  9
$DIMLTEX2
  6

  9
$DIMTXTDIRECTION
 70
0
  9
$LUNITS
 70
2
  9
$LUPREC
 70
4
  9
$SKETCHINC
 40
1.0
  9
$FILLETRAD
 40
10.0
  9
$AUNITS
 70
0
  9
$AUPREC
 70
2
  9
$MENU
  1
.
  9
$ELEVATION
 40
0.0
  9
$PELEVATION
 40
0.0
  9
$THICKNESS
 40
0.0
  9
$LIMCHECK
 70
0
  9
$CHAMFERA
 40
0.0
  9
$CHAMFERB
 40
0.0
  9
$CHAMFERC
 40
0.0
  9
$CHAMFERD
 40
0.0
  9
$SKPOLY
 70
0
  9
$TDCREATE
 40
2461142.7371527776
  9
$TDUCREATE
 40
2458532.153996898
  9
$TDUPDATE
 40
2461142.7371527776
  9
$TDUUPDATE
 40
2458532.1544311
  9
$TDINDWG
 40
0.0
  9
$TDUSRTIMER
 40
0.0
  9
$USRTIMER
 70
1
  9
$ANGBASE
 50
0.0
  9
$ANGDIR
 70
0
  9
$PDMODE
 70
0
  9
$PDSIZE
 40
0.0
  9
$PLINEWID
 40
0.0
  9
$SPLFRAME
 70
0
  9
$SPLINETYPE
 70
6
  9
$SPLINESEGS
 70
8
  9
$HANDSEED
  5
3F
  9
$SURFTAB1
 70
6
  9
$SURFTAB2
 70
6
  9
$SURFTYPE
 70
6
  9
$SURFU
 70
6
  9
$SURFV
 70
6
  9
$UCSBASE
  2

  9
$UCSNAME
  2

  9
$UCSORG
 10
0.0
 20
0.0
 30
0.0
  9
$UCSXDIR
 10
1.0
 20
0.0
 30
0.0
  9
$UCSYDIR
 10
0.0
 20
1.0
 30
0.0
  9
$UCSORTHOREF
  2

  9
$UCSORTHOVIEW
 70
0
  9
$UCSORGTOP
 10
0.0
 20
0.0
 30
0.0
  9
$UCSORGBOTTOM
 10
0.0
 20
0.0
 30
0.0
  9
$UCSORGLEFT
 10
0.0
 20
0.0
 30
0.0
  9
$UCSORGRIGHT
 10
0.0
 20
0.0
 30
0.0
  9
$UCSORGFRONT
 10
0.0
 20
0.0
 30
0.0
  9
$UCSORGBACK
 10
0.0
 20
0.0
 30
0.0
  9
$PUCSBASE
  2

  9
$PUCSNAME
  2

  9
$PUCSORG
 10
0.0
 20
0.0
 30
0.0
  9
$PUCSXDIR
 10
1.0
 20
0.0
 30
0.0
  9
$PUCSYDIR
 10
0.0
 20
1.0
 30
0.0
  9
$PUCSORTHOREF
  2

  9
$PUCSORTHOVIEW
 70
0
  9
$PUCSORGTOP
 10
0.0
 20
0.0
 30
0.0
  9
$PUCSORGBOTTOM
 10
0.0
 20
0.0
 30
0.0
  9
$PUCSORGLEFT
 10
0.0
 20
0.0
 30
0.0
  9
$PUCSORGRIGHT
 10
0.0
 20
0.0
 30
0.0
  9
$PUCSORGFRONT
 10
0.0
 20
0.0
 30
0.0
  9
$PUCSORGBACK
 10
0.0
 20
0.0
 30
0.0
  9
$USERI1
 70
0
  9
$USERI2
 70
0
  9
$USERI3
 70
0
  9
$USERI4
 70
0
  9
$USERI5
 70
0
  9
$USERR1
 40
0.0
  9
$USERR2
 40
0.0
  9
$USERR3
 40
0.0
  9
$USERR4
 40
0.0
  9
$USERR5
 40
0.0
  9
$WORLDVIEW
 70
1
  9
$SHADEDGE
 70
3
  9
$SHADEDIF
 70
70
  9
$TILEMODE
 70
1
  9
$MAXACTVP
 70
64
  9
$PINSBASE
 10
0.0
 20
0.0
 30
0.0
  9
$PLIMCHECK
 70
0
  9
$PEXTMIN
 10
1e+20
 20
1e+20
 30
1e+20
  9
$PEXTMAX
 10
-1e+20
 20
-1e+20
 30
-1e+20
  9
$PLIMMIN
 10
0.0
 20
0.0
  9
$PLIMMAX
 10
420.0
 20
297.0
  9
$UNITMODE
 70
0
  9
$VISRETAIN
 70
1
  9
$PLINEGEN
 70
0
  9
$PSLTSCALE
 70
1
  9
$TREEDEPTH
 70
3020
  9
$CMLSTYLE
  2
Standard
  9
$CMLJUST
 70
0
  9
$CMLSCALE
 40
20.0
  9
$PROXYGRAPHICS
 70
1
  9
$MEASUREMENT
 70
1
  9
$CELWEIGHT
370
-1
  9
$ENDCAPS
280
0
  9
$JOINSTYLE
280
0
  9
$LWDISPLAY
290
0
  9
$INSUNITS
 70
4
  9
$HYPERLINKBASE
  1

  9
$STYLESHEET
  1

  9
$XEDIT
290
1
  9
$CEPSNTYPE
380
0
  9
$PSTYLEMODE
290
1
  9
$FINGERPRINTGUID
  2
{06DB900F-3611-4B7D-8F9D-632FE45C5EEF}
  9
$VERSIONGUID
  2
{5E069FD1-E501-4805-A0F9-979982E57D4D}
  9
$EXTNAMES
290
1
  9
$PSVPSCALE
 40
0.0
  9
$OLESTARTUP
290
0
  9
$SORTENTS
280
127
  9
$INDEXCTL
280
0
  9
$HIDETEXT
280
1
  9
$XCLIPFRAME
280
1
  9
$HALOGAP
280
0
  9
$OBSCOLOR
 70
257
  9
$OBSLTYPE
280
0
  9
$INTERSECTIONDISPLAY
280
0
  9
$INTERSECTIONCOLOR
 70
257
  9
$DIMASSOC
280
2
  9
$PROJECTNAME
  1

  9
$CAMERADISPLAY
290
0
  9
$LENSLENGTH
 40
50.0
  9
$CAMERAHEIGHT
 40
0.0
  9
$STEPSPERSEC
 40
24.0
  9
$STEPSIZE
 40
100.0
  9
$3DDWFPREC
 40
2.0
  9
$PSOLWIDTH
 40
0.005
  9
$PSOLHEIGHT
 40
0.08
  9
$LOFTANG1
 40
1.570796326795
  9
$LOFTANG2
 40
1.570796326795
  9
$LOFTMAG1
 40
0.0
  9
$LOFTMAG2
 40
0.0
  9
$LOFTPARAM
 70
7
  9
$LOFTNORMALS
280
1
  9
$LATITUDE
 40
37.795
  9
$LONGITUDE
 40
-122.394
  9
$NORTHDIRECTION
 40
0.0
  9
$TIMEZONE
 70
-8000
  9
$LIGHTGLYPHDISPLAY
280
1
  9
$TILEMODELIGHTSYNCH
280
1
  9
$CMATERIAL
347
20
  9
$SOLIDHIST
280
0
  9
$SHOWHIST
280
1
  9
$DWFFRAME
280
2
  9
$DGNFRAME
280
2
  9
$REALWORLDSCALE
290
1
  9
$INTERFERECOLOR
 62
256
  9
$CSHADOW
280
0
  9
$SHADOWPLANELOCATION
 40
0.0
  0
ENDSEC
  0
SECTION
  2
CLASSES
  0
CLASS
  1
ACDBDICTIONARYWDFLT
  2
AcDbDictionaryWithDefault
  3
ObjectDBX Classes
 90
0
 91
0
280
0
281
0
  0
CLASS
  1
SUN
  2
AcDbSun
  3
SCENEOE
 90
1153
 91
0
280
0
281
0
  0
CLASS
  1
VISUALSTYLE
  2
AcDbVisualStyle
  3
ObjectDBX Classes
 90
4095
 91
0
280
0
281
0
  0
CLASS
  1
MATERIAL
  2
AcDbMaterial
  3
ObjectDBX Classes
 90
1153
 91
0
280
0
281
0
  0
CLASS
  1
SCALE
  2
AcDbScale
  3
ObjectDBX Classes
 90
1153
 91
0
280
0
281
0
  0
CLASS
  1
TABLESTYLE
  2
AcDbTableStyle
  3
ObjectDBX Classes
 90
4095
 91
0
280
0
281
0
  0
CLASS
  1
MLEADERSTYLE
  2
AcDbMLeaderStyle
  3
ACDB_MLEADERSTYLE_CLASS
 90
4095
 91
0
280
0
281
0
  0
CLASS
  1
DICTIONARYVAR
  2
AcDbDictionaryVar
  3
ObjectDBX Classes
 90
0
 91
0
280
0
281
0
  0
CLASS
  1
CELLSTYLEMAP
  2
AcDbCellStyleMap
  3
ObjectDBX Classes
 90
1152
 91
0
280
0
281
0
  0
CLASS
  1
MENTALRAYRENDERSETTINGS
  2
AcDbMentalRayRenderSettings
  3
SCENEOE
 90
1024
 91
0
280
0
281
0
  0
CLASS
  1
ACDBDETAILVIEWSTYLE
  2
AcDbDetailViewStyle
  3
ObjectDBX Classes
 90
1025
 91
0
280
0
281
0
  0
CLASS
  1
ACDBSECTIONVIEWSTYLE
  2
AcDbSectionViewStyle
  3
ObjectDBX Classes
 90
1025
 91
0
280
0
281
0
  0
CLASS
  1
RASTERVARIABLES
  2
AcDbRasterVariables
  3
ISM
 90
0
 91
0
280
0
281
0
  0
CLASS
  1
ACDBPLACEHOLDER
  2
AcDbPlaceHolder
  3
ObjectDBX Classes
 90
0
 91
0
280
0
281
0
  0
CLASS
  1
LAYOUT
  2
AcDbLayout
  3
ObjectDBX Classes
 90
0
 91
0
280
0
281
0
  0
ENDSEC
  0
SECTION
  2
TABLES
  0
TABLE
  2
VPORT
  5
8
330
0
100
AcDbSymbolTable
 70
1
  0
VPORT
  5
23
330
8
100
AcDbSymbolTableRecord
100
AcDbViewportTableRecord
  2
*Active
 70
0
 10
0.0
 20
0.0
 11
1.0
 21
1.0
 12
0.0
 22
0.0
 13
0.0
 23
0.0
 14
0.5
 24
0.5
 15
0.5
 25
0.5
 16
0.0
 26
0.0
 36
1.0
 17
0.0
 27
0.0
 37
0.0
 40
1000.0
 41
1.34
 42
50.0
 43
0.0
 44
0.0
 50
0.0
 51
0.0
 71
0
 72
1000
 73
1
 74
3
 75
0
 76
0
 77
0
 78
0
281
0
 65
0
146
0.0
  0
ENDTAB
  0
TABLE
  2
LTYPE
  5
2
330
0
100
AcDbSymbolTable
 70
3
  0
LTYPE
  5
24
330
2
100
AcDbSymbolTableRecord
100
AcDbLinetypeTableRecord
  2
ByBlock
 70
0
  3

 72
65
 73
0
 40
0.0
  0
LTYPE
  5
25
330
2
100
AcDbSymbolTableRecord
100
AcDbLinetypeTableRecord
  2
ByLayer
 70
0
  3

 72
65
 73
0
 40
0.0
  0
LTYPE
  5
26
330
2
100
AcDbSymbolTableRecord
100
AcDbLinetypeTableRecord
  2
Continuous
 70
0
  3

 72
65
 73
0
 40
0.0
  0
ENDTAB
  0
TABLE
  2
LAYER
  5
1
330
0
100
AcDbSymbolTable
 70
2
  0
LAYER
  5
27
330
1
100
AcDbSymbolTableRecord
100
AcDbLayerTableRecord
  2
0
 70
0
 62
7
  6
Continuous
370
-3
390
13
347
21
  0
LAYER
  5
28
330
1
100
AcDbSymbolTableRecord
100
AcDbLayerTableRecord
  2
Defpoints
 70
0
 62
7
  6
Continuous
290
0
370
-3
390
13
347
21
  0
ENDTAB
  0
TABLE
  2
STYLE
  5
5
330
0
100
AcDbSymbolTable
 70
1
  0
STYLE
  5
29
330
5
100
AcDbSymbolTableRecord
100
AcDbTextStyleTableRecord
  2
Standard
 70
0
 40
0.0
 41
1.0
 50
0.0
 71
0
 42
2.5
  3
txt
  4

  0
ENDTAB
  0
TABLE
  2
VIEW
  5
7
330
0
100
AcDbSymbolTable
 70
0
  0
ENDTAB
  0
TABLE
  2
UCS
  5
6
330
0
100
AcDbSymbolTable
 70
0
  0
ENDTAB
  0
TABLE
  2
APPID
  5
3
330
0
100
AcDbSymbolTable
 70
3
  0
APPID
  5
2A
330
3
100
AcDbSymbolTableRecord
100
AcDbRegAppTableRecord
  2
ACAD
 70
0
  0
APPID
  5
3C
330
3
100
AcDbSymbolTableRecord
100
AcDbRegAppTableRecord
  2
HATCHBACKGROUNDCOLOR
 70
0
  0
APPID
  5
3D
330
3
100
AcDbSymbolTableRecord
100
AcDbRegAppTableRecord
  2
EZDXF
 70
0
  0
ENDTAB
  0
TABLE
  2
DIMSTYLE
  5
4
330
0
100
AcDbSymbolTable
 70
1
100
AcDbDimStyleTable
  0
DIMSTYLE
105
2B
330
4
100
AcDbSymbolTableRecord
100
AcDbDimStyleTableRecord
  2
Standard
 70
0
 40
1.0
 41
2.5
 42
0.625
 43
3.75
 44
1.25
 45
0.0
 46
0.0
 47
0.0
 48
0.0
 49
2.5
140
2.5
141
2.5
142
0.0
143
0.03937007874
144
1.0
145
0.0
146
1.0
147
0.625
148
0.0
 69
0
 70
0
 71
0
 72
0
 73
0
 74
0
 75
0
 76
0
 77
1
 78
8
 79
3
170
0
171
3
172
1
173
0
174
0
175
0
176
0
177
0
178
0
179
2
271
2
272
2
273
2
274
3
275
0
276
0
277
2
278
44
279
0
280
0
281
0
282
0
283
0
284
8
285
0
286
0
288
0
289
3
290
0
371
-2
372
-2
  0
ENDTAB
  0
TABLE
  2
BLOCK_RECORD
  5
9
330
0
100
AcDbSymbolTable
 70
2
  0
BLOCK_RECORD
  5
17
330
9
100
AcDbSymbolTableRecord
100
AcDbBlockTableRecord
  2
*Model_Space
340
1A
 70
0
280
1
281
0
  0
BLOCK_RECORD
  5
1B
330
9
100
AcDbSymbolTableRecord
100
AcDbBlockTableRecord
  2
*Paper_Space
340
1E
 70
0
280
1
281
0
  0
ENDTAB
  0
ENDSEC
  0
SECTION
  2
BLOCKS
  0
BLOCK
  5
18
330
17
100
AcDbEntity
  8
0
100
AcDbBlockBegin
  2
*Model_Space
 70
0
 10
0.0
 20
0.0
 30
0.0
  3
*Model_Space
  1

  0
ENDBLK
  5
19
330
17
100
AcDbEntity
  8
0
100
AcDbBlockEnd
  0
BLOCK
  5
1C
330
1B
100
AcDbEntity
  8
0
100
AcDbBlockBegin
  2
*Paper_Space
 70
0
 10
0.0
 20
0.0
 30
0.0
  3
*Paper_Space
  1

  0
ENDBLK
  5
1D
330
1B
100
AcDbEntity
  8
0
100
AcDbBlockEnd
  0
ENDSEC
  0
SECTION
  2
ENTITIES
  0
LWPOLYLINE
  5
2F
330
17
100
AcDbEntity
  8
0
100
AcDbPolyline
 90
69
 70
1
 10
202.685904
 20
-110.40414799999999
 10
187.297822
 20
-110.39220999999999
 10
187.065412
 20
-110.351824
 10
186.84468600000002
 20
-110.28476799999999
 10
186.63691400000002
 20
-110.193074
 10
186.44387400000002
 20
-110.078774
 10
186.266836
 20
-109.943646
 10
186.10707000000002
 20
-109.789722
 10
185.9661
 20
-109.61878
 10
185.84545000000003
 20
-109.433106
 10
185.746644
 20
-109.23447800000001
 10
185.67095200000003
 20
-109.024928
 10
185.619898
 20
-108.80623400000002
 10
185.595006
 20
-108.58068200000001
 10
185.59754600000002
 20
-108.35005000000001
 10
185.62904200000003
 20
-108.11611600000002
 10
188.65215000000003
 20
-98.90861600000001
 10
188.70650600000005
 20
-98.78517200000002
 10
188.77229200000005
 20
-98.66833200000002
 10
188.84874600000006
 20
-98.55885800000003
 10
188.93510600000008
 20
-98.45725800000004
 10
189.03086400000007
 20
-98.36429400000003
 10
189.13551200000006
 20
-98.28047400000004
 10
189.24854200000007
 20
-98.20681400000004
 10
191.28689200000008
 20
-97.21875400000003
 10
195.82409400000006
 20
-95.47301200000004
 10
198.72985400000007
 20
-94.63913000000004
 10
201.9556540000001
 20
-93.97390400000003
 10
205.42300800000007
 20
-93.58503000000003
 10
209.05368400000006
 20
-93.57944200000003
 10
210.90559800000008
 20
-93.75394000000003
 10
211.1362300000001
 20
-93.79661200000004
 10
211.3554320000001
 20
-93.86290600000004
 10
211.56244200000012
 20
-93.95104400000004
 10
211.7559900000001
 20
-94.05950200000004
 10
211.9348060000001
 20
-94.18675600000003
 10
212.0981280000001
 20
-94.33102800000003
 10
212.2446860000001
 20
-94.49079400000004
 10
212.37321000000009
 20
-94.66453000000004
 10
212.4829380000001
 20
-94.85071200000004
 10
212.57260000000008
 20
-95.04756200000004
 10
212.6409260000001
 20
-95.25355600000003
 10
212.68715400000008
 20
-95.46717000000004
 10
212.7100140000001
 20
-95.68662600000003
 10
212.7082360000001
 20
-95.91065400000004
 10
212.68105800000012
 20
-96.13747600000002
 10
210.0742560000001
 20
-105.26674400000003
 10
210.0038980000001
 20
-105.43032000000002
 10
209.9142360000001
 20
-105.58195800000001
 10
209.8067940000001
 20
-105.72013400000002
 10
209.68309600000012
 20
-105.84332400000002
 10
209.5444120000001
 20
-105.95000400000002
 10
209.3925200000001
 20
-106.03865000000002
 10
209.2286900000001
 20
-106.10799200000002
 10
208.4997100000001
 20
-106.34700600000002
 10
207.99729800000014
 20
-106.56087400000001
 10
207.45297600000012
 20
-106.84332200000003
 10
206.88122200000012
 20
-107.20374800000002
 10
206.29676800000013
 20
-107.65129600000002
 10
205.71409200000014
 20
-108.19536400000001
 10
205.1476720000001
 20
-108.84509600000001
 10
204.7768320000001
 20
-109.34471400000001
 10
204.5606780000001
 20
-109.58957000000001
 10
204.3206480000001
 20
-109.806486
 10
204.0592820000001
 20
-109.993176
 10
203.77912000000012
 20
-110.147862
 10
203.48244800000012
 20
-110.268004
 10
203.1720600000001
 20
-110.35157000000001
 10
202.8502420000001
 20
-110.39652800000002
  0
LWPOLYLINE
  5
30
330
17
100
AcDbEntity
  8
0
100
AcDbPolyline
 90
73
 70
1
 10
202.0552220000001
 20
-114.70030400000002
 10
195.9942740000001
 20
-114.89969400000003
 10
195.9325520000001
 20
-115.14150200000003
 10
195.8540660000001
 20
-115.37772200000003
 10
195.7588160000001
 20
-115.60683000000003
 10
195.6468020000001
 20
-115.82755600000003
 10
195.5177700000001
 20
-116.03837600000003
 10
195.3719740000001
 20
-116.23827400000002
 10
195.2094140000001
 20
-116.42547200000003
 10
195.0298360000001
 20
-116.59895400000002
 10
194.8334940000001
 20
-116.75694200000004
 10
194.62038800000008
 20
-116.89842000000003
 10
194.3902640000001
 20
-117.02186400000004
 10
194.1433760000001
 20
-117.12600400000004
 10
193.8794700000001
 20
-117.20931600000003
 10
193.5988000000001
 20
-117.27053000000002
 10
193.3011120000001
 20
-117.30837600000002
 10
192.9866600000001
 20
-117.32133000000003
 10
192.68033600000007
 20
-117.30913800000002
 10
192.39001400000006
 20
-117.27357800000003
 10
192.11569400000005
 20
-117.21566600000003
 10
191.85737600000004
 20
-117.13692600000003
 10
191.61506000000006
 20
-117.03837400000003
 10
191.38874600000005
 20
-116.92128000000002
 10
191.17818000000008
 20
-116.78716800000002
 10
190.9836160000001
 20
-116.63705400000002
 10
190.8050540000001
 20
-116.47220800000002
 10
190.64249400000008
 20
-116.29390000000002
 10
190.49593600000009
 20
-116.10340000000002
 10
190.3651260000001
 20
-115.90197800000001
 10
190.2503180000001
 20
-115.69090400000002
 10
190.1515120000001
 20
-115.47144800000002
 10
190.0687080000001
 20
-115.24488000000002
 10
190.0016520000001
 20
-115.01221600000002
 10
188.3709720000001
 20
-115.40439200000002
 10
186.8106500000001
 20
-115.98529000000002
 10
185.3361800000001
 20
-116.74525800000002
 10
183.96331000000012
 20
-117.67489800000003
 10
182.70804200000012
 20
-118.76430400000002
 10
181.5858700000001
 20
-120.00407800000004
 10
180.61279600000012
 20
-121.38456800000003
 10
179.4565880000001
 20
-123.65609000000002
 10
172.7619100000001
 20
-145.13687000000002
 10
171.3110620000001
 20
-151.60269400000004
 10
171.01464400000012
 20
-154.28036200000003
 10
170.9943240000001
 20
-156.92170800000002
 10
171.12665800000008
 20
-158.15691000000004
 10
171.37481600000007
 20
-159.29660800000005
 10
171.54702800000007
 20
-159.82188000000005
 10
171.7540380000001
 20
-160.31235400000006
 10
171.9978780000001
 20
-160.76472800000005
 10
173.82159800000008
 20
-163.63137200000003
 10
179.13146800000007
 20
-163.08959000000002
 10
185.2000360000001
 20
-163.021772
 10
193.0384760000001
 20
-163.631372
 10
192.7951440000001
 20
-160.76345799999999
 10
192.8474680000001
 20
-158.557468
 10
193.1134060000001
 20
-156.36697199999998
 10
204.05826600000012
 20
-117.12549599999998
 10
204.0831580000001
 20
-116.88140199999998
 10
204.0796020000001
 20
-116.64111799999996
 10
204.0488680000001
 20
-116.40642199999998
 10
203.99222600000013
 20
-116.17909199999998
 10
203.91120000000012
 20
-115.96090599999998
 10
203.80706000000015
 20
-115.75389599999998
 10
203.68107600000016
 20
-115.55983999999998
 10
203.53477200000015
 20
-115.38076999999998
 10
203.36941800000017
 20
-115.21846399999998
 10
203.18653800000016
 20
-115.07469999999999
 10
202.98740200000015
 20
-114.95150999999998
 10
202.77328000000017
 20
-114.85067199999999
 10
202.54544200000015
 20
-114.77396399999998
 10
202.30541200000013
 20
-114.72316399999998
  0
LWPOLYLINE
  5
31
330
17
100
AcDbEntity
  8
0
100
AcDbPolyline
 90
64
 70
1
 10
191.31381600000014
 20
-136.08710399999998
 10
191.28892400000015
 20
-136.58214999999998
 10
191.21551800000015
 20
-137.06297199999997
 10
191.09613800000014
 20
-137.52703
 10
190.93332400000014
 20
-137.97203799999997
 10
190.72936200000015
 20
-138.39545599999997
 10
190.48679200000015
 20
-138.79474399999998
 10
190.20815400000015
 20
-139.16761599999998
 10
189.89573400000015
 20
-139.511532
 10
189.55181800000014
 20
-139.823952
 10
189.17894600000014
 20
-140.10284399999998
 10
188.77965800000015
 20
-140.34541399999998
 10
188.35624000000013
 20
-140.549376
 10
187.91123200000015
 20
-140.71218999999996
 10
187.44717400000013
 20
-140.83156999999997
 10
186.96635200000014
 20
-140.90497599999998
 10
186.47130600000014
 20
-140.92986799999997
 10
185.97626000000017
 20
-140.90497599999998
 10
185.49543800000015
 20
-140.83156999999997
 10
185.03138000000015
 20
-140.71218999999996
 10
184.58637200000015
 20
-140.549376
 10
184.16295400000016
 20
-140.34541399999998
 10
183.76366600000017
 20
-140.10284399999998
 10
183.39079400000017
 20
-139.823952
 10
183.04687800000016
 20
-139.511532
 10
182.73445800000016
 20
-139.16761599999998
 10
182.45556600000018
 20
-138.79474399999998
 10
182.21299600000015
 20
-138.39545599999997
 10
182.00903400000016
 20
-137.97203799999997
 10
181.84622000000016
 20
-137.52703
 10
181.72684000000015
 20
-137.06297199999997
 10
181.65343400000015
 20
-136.58214999999998
 10
181.62854200000018
 20
-136.08710399999998
 10
181.65343400000015
 20
-135.592058
 10
181.72684000000015
 20
-135.111236
 10
181.84622000000016
 20
-134.647178
 10
182.00903400000016
 20
-134.20217
 10
182.21299600000015
 20
-133.778752
 10
182.45556600000018
 20
-133.37946399999998
 10
182.73445800000016
 20
-133.006592
 10
183.04687800000016
 20
-132.662676
 10
183.39079400000017
 20
-132.350256
 10
183.76366600000017
 20
-132.071618
 10
184.16295400000016
 20
-131.829048
 10
184.58637200000015
 20
-131.62508599999998
 10
185.03138000000015
 20
-131.46227199999998
 10
185.49543800000015
 20
-131.34289199999998
 10
185.97626000000017
 20
-131.269486
 10
186.47130600000014
 20
-131.244594
 10
186.96635200000014
 20
-131.269486
 10
187.44717400000013
 20
-131.34289199999998
 10
187.91123200000015
 20
-131.46227199999998
 10
188.35624000000013
 20
-131.62508599999998
 10
188.77965800000015
 20
-131.829048
 10
189.17894600000014
 20
-132.071618
 10
189.55181800000014
 20
-132.350256
 10
189.89573400000015
 20
-132.662676
 10
190.20815400000015
 20
-133.006592
 10
190.48679200000015
 20
-133.37946399999998
 10
190.72936200000015
 20
-133.778752
 10
190.93332400000014
 20
-134.20217
 10
191.09613800000014
 20
-134.647178
 10
191.21551800000015
 20
-135.111236
 10
191.28892400000015
 20
-135.592058
  0
LWPOLYLINE
  5
32
330
17
100
AcDbEntity
  8
0
100
AcDbPolyline
 90
20
 70
1
 10
186.86170400000012
 20
-101.27081599999998
 10
181.94197800000012
 20
-96.10775799999999
 10
185.69330400000013
 20
-89.770966
 10
213.56599400000013
 20
-89.43949599999999
 10
213.45423400000013
 20
-89.553542
 10
213.09711000000013
 20
-89.86037400000001
 10
212.46084000000013
 20
-90.307414
 10
211.51240400000012
 20
-90.842338
 10
210.2180200000001
 20
-91.41231400000001
 10
208.54466800000012
 20
-91.964764
 10
206.45882000000012
 20
-92.44711000000001
 10
201.2655360000001
 20
-93.188028
 10
196.2129680000001
 20
-94.40799
 10
189.40246600000012
 20
-96.866964
 10
188.82131400000011
 20
-97.19818
 10
188.6069380000001
 20
-97.35388199999998
 10
188.4276140000001
 20
-97.51948999999999
 10
188.2716580000001
 20
-97.70745
 10
188.1273860000001
 20
-97.92995399999998
 10
187.82741200000007
 20
-98.52786999999998
  0
LWPOLYLINE
  5
33
330
17
100
AcDbEntity
  8
0
100
AcDbPolyline
 90
23
 70
1
 10
225.23805600000009
 20
-100.38257799999997
 10
228.7069340000001
 20
-87.42578399999996
 10
288.9120460000001
 20
-87.42578399999996
 10
288.9120460000001
 20
-95.01250999999996
 10
258.41172600000004
 20
-95.31324599999996
 10
257.07619400000004
 20
-95.56191199999996
 10
256.5598120000001
 20
-95.72396399999995
 10
256.36575600000003
 20
-95.81489599999996
 10
256.28803200000004
 20
-95.86290199999996
 10
256.224278
 20
-95.91268599999997
 10
256.15747600000003
 20
-97.04679599999996
 10
258.09194
 20
-98.21417999999996
 10
257.56514400000003
 20
-98.34448199999996
 10
256.32841800000006
 20
-98.78110799999996
 10
255.60502600000004
 20
-99.13594599999995
 10
254.89763600000006
 20
-99.59314599999996
 10
254.57023000000007
 20
-99.86289399999995
 10
254.27101800000005
 20
-100.16134399999996
 10
254.00787400000007
 20
-100.48976599999996
 10
253.78918000000007
 20
-100.84917599999997
 10
228.01808600000007
 20
-100.99192399999997
 10
227.45014200000008
 20
-100.93426599999998
 10
226.88778600000006
 20
-100.83622199999998
  0
LWPOLYLINE
  5
34
330
17
100
AcDbEntity
  8
0
100
AcDbPolyline
 90
64
 70
1
 10
248.65228400000004
 20
-91.69349199999998
 10
248.63475800000006
 20
-92.03969399999998
 10
248.58345000000006
 20
-92.37573599999997
 10
248.50013800000005
 20
-92.70009399999998
 10
248.38634600000006
 20
-93.01124399999998
 10
248.24385200000006
 20
-93.30715399999998
 10
248.07418000000004
 20
-93.58629999999998
 10
247.87936200000004
 20
-93.84690399999998
 10
247.66092200000003
 20
-94.08744199999998
 10
247.42038400000004
 20
-94.305882
 10
247.15978000000004
 20
-94.5007
 10
246.88063400000004
 20
-94.67037199999999
 10
246.58472400000005
 20
-94.81286599999999
 10
246.27357400000002
 20
-94.92665799999997
 10
245.94921600000004
 20
-95.00996999999997
 10
245.61317400000004
 20
-95.06127799999997
 10
245.266972
 20
-95.07880399999998
 10
244.92077
 20
-95.06127799999997
 10
244.584728
 20
-95.00996999999997
 10
244.26037
 20
-94.92665799999997
 10
243.94922
 20
-94.81286599999999
 10
243.65331
 20
-94.67037199999999
 10
243.37416399999998
 20
-94.5007
 10
243.11356
 20
-94.305882
 10
242.873276
 20
-94.08744199999998
 10
242.654836
 20
-93.84690399999998
 10
242.46001799999996
 20
-93.58629999999998
 10
242.29034599999997
 20
-93.30715399999998
 10
242.14785199999997
 20
-93.01124399999998
 10
242.03405999999998
 20
-92.70009399999998
 10
241.95074799999998
 20
-92.37573599999997
 10
241.89943999999997
 20
-92.03969399999998
 10
241.881914
 20
-91.69349199999998
 10
241.89943999999997
 20
-91.34728999999999
 10
241.95074799999998
 20
-91.011248
 10
242.03405999999998
 20
-90.68688999999999
 10
242.14785199999997
 20
-90.37574
 10
242.29034599999997
 20
-90.07982999999999
 10
242.46001799999996
 20
-89.80068399999999
 10
242.654836
 20
-89.54007999999999
 10
242.873276
 20
-89.29954199999999
 10
243.11356
 20
-89.08110199999997
 10
243.37416399999998
 20
-88.88628399999997
 10
243.65331
 20
-88.71661199999998
 10
243.94922
 20
-88.57411799999998
 10
244.26037
 20
-88.460326
 10
244.584728
 20
-88.37701399999999
 10
244.92077
 20
-88.325706
 10
245.266972
 20
-88.30818
 10
245.61317400000004
 20
-88.325706
 10
245.94921600000004
 20
-88.37701399999999
 10
246.27357400000002
 20
-88.460326
 10
246.58472400000005
 20
-88.57411799999998
 10
246.88063400000004
 20
-88.71661199999998
 10
247.15978000000004
 20
-88.88628399999997
 10
247.42038400000004
 20
-89.08110199999997
 10
247.66092200000003
 20
-89.29954199999999
 10
247.87936200000004
 20
-89.54007999999999
 10
248.07418000000004
 20
-89.80068399999999
 10
248.24385200000006
 20
-90.07982999999999
 10
248.38634600000006
 20
-90.37574
 10
248.50013800000005
 20
-90.68688999999999
 10
248.58345000000006
 20
-91.011248
 10
248.63475800000006
 20
-91.34728999999999
  0
LWPOLYLINE
  5
35
330
17
100
AcDbEntity
  8
0
100
AcDbPolyline
 90
64
 70
1
 10
231.84154800000005
 20
-97.38055199999998
 10
231.83240400000005
 20
-97.56139999999998
 10
231.80573400000006
 20
-97.73691399999997
 10
231.76204600000005
 20
-97.90633199999996
 10
231.70261000000005
 20
-98.06863799999996
 10
231.62818800000005
 20
-98.22306999999996
 10
231.53954200000004
 20
-98.36886599999997
 10
231.43768800000004
 20
-98.50500999999997
 10
231.32364200000006
 20
-98.63048599999998
 10
231.19816600000004
 20
-98.74453199999998
 10
231.06202200000007
 20
-98.84638599999998
 10
230.91622600000008
 20
-98.93503199999998
 10
230.7617940000001
 20
-99.00945399999998
 10
230.59948800000006
 20
-99.06888999999998
 10
230.43007000000006
 20
-99.11232399999997
 10
230.25455600000006
 20
-99.13899399999998
 10
230.07370800000007
 20
-99.14813799999999
 10
229.89286000000007
 20
-99.13899399999998
 10
229.71734600000005
 20
-99.11232399999997
 10
229.54792800000004
 20
-99.06888999999998
 10
229.38562200000004
 20
-99.00945399999998
 10
229.23119000000005
 20
-98.93503199999998
 10
229.08539400000006
 20
-98.84638599999998
 10
228.9492500000001
 20
-98.74453199999998
 10
228.82377400000007
 20
-98.63048599999998
 10
228.7097280000001
 20
-98.50500999999997
 10
228.6078740000001
 20
-98.36886599999997
 10
228.51922800000008
 20
-98.22306999999996
 10
228.44480600000009
 20
-98.06863799999996
 10
228.38537000000008
 20
-97.90633199999996
 10
228.34193600000006
 20
-97.73691399999997
 10
228.31526600000007
 20
-97.56139999999998
 10
228.30612200000007
 20
-97.38055199999998
 10
228.31526600000007
 20
-97.19970399999998
 10
228.34193600000006
 20
-97.02418999999999
 10
228.38537000000008
 20
-96.854772
 10
228.44480600000009
 20
-96.692466
 10
228.51922800000008
 20
-96.538034
 10
228.6078740000001
 20
-96.39223799999999
 10
228.7097280000001
 20
-96.25609399999999
 10
228.82377400000007
 20
-96.13061799999998
 10
228.9492500000001
 20
-96.01657199999998
 10
229.08539400000006
 20
-95.91471799999998
 10
229.23119000000005
 20
-95.82607199999998
 10
229.38562200000004
 20
-95.75164999999998
 10
229.54792800000004
 20
-95.69221399999998
 10
229.71734600000005
 20
-95.64877999999999
 10
229.89286000000007
 20
-95.62210999999998
 10
230.07370800000007
 20
-95.61296599999999
 10
230.25455600000006
 20
-95.62210999999998
 10
230.43007000000006
 20
-95.64877999999999
 10
230.59948800000006
 20
-95.69221399999998
 10
230.7617940000001
 20
-95.75164999999998
 10
230.91622600000008
 20
-95.82607199999998
 10
231.06202200000007
 20
-95.91471799999998
 10
231.19816600000004
 20
-96.01657199999998
 10
231.32364200000006
 20
-96.13061799999998
 10
231.43768800000004
 20
-96.25609399999999
 10
231.53954200000004
 20
-96.39223799999999
 10
231.62818800000005
 20
-96.538034
 10
231.70261000000005
 20
-96.692466
 10
231.76204600000005
 20
-96.854772
 10
231.80573400000006
 20
-97.02418999999999
 10
231.83240400000005
 20
-97.19970399999998
  0
LWPOLYLINE
  5
36
330
17
100
AcDbEntity
  8
0
100
AcDbPolyline
 90
52
 70
1
 10
220.85909600000002
 20
-87.42578399999998
 10
228.24998800000003
 20
-87.39809799999999
 10
224.88245600000002
 20
-100.290122
 10
224.1423
 20
-100.39095999999999
 10
223.44202200000004
 20
-100.54209
 10
222.78035200000002
 20
-100.74020999999999
 10
222.156528
 20
-100.981764
 10
221.56928000000002
 20
-101.263196
 10
221.017592
 20
-101.58094999999999
 10
220.50044800000003
 20
-101.93146999999999
 10
219.56522
 20
-102.717092
 10
218.75521400000002
 20
-103.59186799999999
 10
218.06154000000004
 20
-104.52760400000001
 10
217.475816
 20
-105.49636000000001
 10
216.59392800000003
 20
-107.41990200000001
 10
216.04071600000003
 20
-109.13745
 10
215.64625400000003
 20
-111.05438800000002
 10
215.64269800000002
 20
-111.08309000000001
 10
215.49360000000001
 20
-110.83467800000001
 10
215.30386200000004
 20
-110.580678
 10
215.03411400000005
 20
-110.29035600000002
 10
214.86876000000004
 20
-110.14329000000001
 10
214.68257800000006
 20
-110.001304
 10
214.47531400000005
 20
-109.86922400000002
 10
214.24646000000007
 20
-109.75162200000001
 10
213.99601600000005
 20
-109.65332400000001
 10
213.72372800000005
 20
-109.578902
 10
213.42908800000006
 20
-109.533182
 10
213.11209600000007
 20
-109.52073600000001
 10
213.64371800000006
 20
-108.99622600000001
 10
213.82913800000006
 20
-108.776008
 10
213.99830200000008
 20
-108.543852
 10
214.15044800000007
 20
-108.300774
 10
214.28506800000008
 20
-108.04753600000001
 10
214.40190800000008
 20
-107.785154
 10
214.50020600000008
 20
-107.514644
 10
218.01912200000007
 20
-93.3323
 10
218.13037400000007
 20
-93.32087
 10
218.23934000000008
 20
-93.301312
 10
218.34551200000007
 20
-93.273626
 10
218.44863600000005
 20
-93.23832
 10
218.54820400000008
 20
-93.19564799999999
 10
218.64396200000007
 20
-93.14586399999999
 10
218.73565600000006
 20
-93.08922199999999
 10
218.82277800000006
 20
-93.02597599999999
 10
218.90507400000004
 20
-92.95663399999998
 10
218.98203600000002
 20
-92.88119599999996
 10
219.05341
 20
-92.80016999999997
 10
219.11868800000002
 20
-92.71355599999995
 10
219.177616
 20
-92.62186199999996
 10
219.22994
 20
-92.52534199999997
 10
219.27515200000002
 20
-92.42424999999996
  0
LWPOLYLINE
  5
37
330
17
100
AcDbEntity
  8
0
100
AcDbPolyline
 90
76
 70
1
 10
303.254664
 20
-72.97089799999996
 10
303.10074
 20
-73.00823599999997
 10
302.80991
 20
-73.04760599999996
 10
250.05283999999997
 20
-72.46492999999997
 10
250.033028
 20
-76.62671999999996
 10
249.974608
 20
-77.01356199999996
 10
249.87961199999998
 20
-77.38719599999996
 10
249.74981799999998
 20
-77.74558999999996
 10
249.587258
 20
-78.08696599999996
 10
249.39371
 20
-78.40929199999997
 10
249.171206
 20
-78.71078999999997
 10
248.92177800000002
 20
-78.98942799999996
 10
248.64695000000003
 20
-79.24317399999997
 10
248.34900800000003
 20
-79.47024999999998
 10
248.02973000000003
 20
-79.66862399999998
 10
247.69089400000004
 20
-79.83651799999997
 10
247.33453200000005
 20
-79.97189999999998
 10
246.96242200000003
 20
-80.07273799999997
 10
246.57659600000002
 20
-80.13725399999998
 10
230.70743800000002
 20
-80.40344599999999
 10
228.83952200000002
 20
-79.96986799999998
 10
216.96527600000002
 20
-80.00314199999998
 10
214.37346000000002
 20
-87.07780399999997
 10
261.10615800000005
 20
-87.03690999999998
 10
263.708388
 20
-80.56778399999997
 10
283.865574
 20
-80.62137799999998
 10
281.519884
 20
-87.07754999999999
 10
288.081974
 20
-87.07145399999999
 10
288.276792
 20
-87.04630799999998
 10
288.46627600000005
 20
-87.00287399999999
 10
288.64915600000006
 20
-86.94191399999998
 10
288.82416200000006
 20
-86.86444399999998
 10
288.99002400000006
 20
-86.77147999999998
 10
289.1457260000001
 20
-86.66378399999999
 10
289.2899980000001
 20
-86.54237199999999
 10
289.4218240000001
 20
-86.40825999999998
 10
289.5399340000001
 20
-86.26221
 10
289.64305800000005
 20
-86.10523799999999
 10
289.7301800000001
 20
-85.93810599999999
 10
289.8000300000001
 20
-85.76182999999999
 10
289.8513380000001
 20
-85.57742599999999
 10
289.8830880000001
 20
-85.38565599999998
 10
289.90417000000014
 20
-84.47430399999998
 10
289.93388800000014
 20
-84.27770799999998
 10
289.98240200000015
 20
-84.08796999999997
 10
290.04844200000014
 20
-83.90585199999998
 10
290.13124600000015
 20
-83.73236999999997
 10
290.22979800000013
 20
-83.56879399999998
 10
290.3430820000001
 20
-83.41588599999999
 10
290.4700820000001
 20
-83.27466199999999
 10
290.6100360000001
 20
-83.14588399999998
 10
290.7616740000001
 20
-83.030822
 10
290.92423400000007
 20
-82.930492
 10
291.0967000000001
 20
-82.84565599999999
 10
291.2780560000001
 20
-82.777584
 10
291.46728600000006
 20
-82.72703800000001
 10
291.663628
 20
-82.695034
 10
304.03469800000005
 20
-82.74685000000001
 10
304.12156600000003
 20
-82.73415000000001
 10
304.20538600000003
 20
-82.713068
 10
304.285904
 20
-82.68411200000001
 10
304.36235800000003
 20
-82.647536
 10
304.43449400000003
 20
-82.60410200000001
 10
304.50205800000003
 20
-82.55406400000001
 10
304.56428800000003
 20
-82.49793000000001
 10
304.62093000000004
 20
-82.435954
 10
304.67147600000004
 20
-82.368898
 10
304.71541800000006
 20
-82.29701599999999
 10
304.752248
 20
-82.220562
 10
304.781712
 20
-82.140298
 10
304.80330200000003
 20
-82.056478
 10
304.81651
 20
-81.96961
 10
304.725832
 20
-72.16546400000001
 10
304.370486
 20
-72.43851400000001
 10
304.03647600000005
 20
-72.65517600000001
 10
303.67935200000005
 20
-72.82815000000001
  0
LWPOLYLINE
  5
38
330
17
100
AcDbEntity
  8
0
100
AcDbPolyline
 90
18
 70
1
 10
179.80406000000002
 20
-86.89848
 10
176.84953200000004
 20
-86.89848
 10
181.60136400000005
 20
-74.235818
 10
181.65724400000005
 20
-74.12685200000001
 10
181.72074400000005
 20
-74.02347400000001
 10
181.79135600000004
 20
-73.925938
 10
181.86882600000004
 20
-73.83449800000001
 10
181.95264600000004
 20
-73.749408
 10
182.04230800000002
 20
-73.670922
 10
182.13755800000004
 20
-73.599548
 10
182.23788800000003
 20
-73.53554
 10
182.34279000000004
 20
-73.479152
 10
182.45175600000002
 20
-73.43063800000002
 10
182.564532
 20
-73.39025200000002
 10
182.68061
 20
-73.35824800000002
 10
182.79973600000002
 20
-73.33513400000001
 10
182.92140200000003
 20
-73.32091000000003
 10
184.90438000000003
 20
-73.31608400000002
  0
LWPOLYLINE
  5
39
330
17
100
AcDbEntity
  8
0
100
AcDbPolyline
 90
4
 70
1
 10
218.64142200000003
 20
-75.64170800000002
 10
219.45041200000003
 20
-73.31608400000002
 10
227.47173200000003
 20
-73.31608400000002
 10
227.47173200000003
 20
-75.64170800000002
  0
LWPOLYLINE
  5
3A
330
17
100
AcDbEntity
  8
0
100
AcDbPolyline
 90
40
 70
1
 10
289.95751
 20
-92.22359000000003
 10
303.573688
 20
-92.32163400000003
 10
303.581562
 20
-86.60993600000002
 10
303.605438
 20
-86.46414000000003
 10
303.644808
 20
-86.32190000000003
 10
303.893474
 20
-85.69502800000002
 10
304.033428
 20
-85.18906000000001
 10
304.11801
 20
-84.67115400000002
 10
304.14645800000005
 20
-83.59571800000002
 10
292.15486400000003
 20
-83.60587800000003
 10
292.06698000000006
 20
-83.61984800000003
 10
291.9854460000001
 20
-83.63966000000002
 10
291.9097540000001
 20
-83.66506000000003
 10
291.83990400000005
 20
-83.69579400000002
 10
291.77564200000006
 20
-83.73186200000002
 10
291.71646000000004
 20
-83.77301000000001
 10
291.6623580000001
 20
-83.81923800000001
 10
291.6130820000001
 20
-83.87029200000002
 10
291.5681240000001
 20
-83.92617200000004
 10
291.5274840000001
 20
-83.98662400000003
 10
291.45763400000004
 20
-84.12073600000004
 10
291.40150000000006
 20
-84.27135800000003
 10
291.3570500000001
 20
-84.43747400000004
 10
291.2953280000001
 20
-84.81136200000003
 10
291.1868700000001
 20
-86.05545400000004
 10
291.1599460000001
 20
-86.17051600000003
 10
291.1226080000001
 20
-86.28100600000003
 10
291.07561800000013
 20
-86.38667000000004
 10
291.01948400000015
 20
-86.48674600000004
 10
290.95471400000014
 20
-86.58072600000004
 10
290.8820700000001
 20
-86.66810200000003
 10
290.8018060000001
 20
-86.74862000000003
 10
290.7146840000001
 20
-86.82151800000003
 10
290.62121200000007
 20
-86.88628800000004
 10
290.5218980000001
 20
-86.94242200000004
 10
290.4172500000001
 20
-86.98966600000003
 10
290.30803000000003
 20
-87.02725800000003
 10
290.1944920000001
 20
-87.05469000000004
 10
290.0773980000001
 20
-87.07145400000003
 10
289.9572560000001
 20
-87.07729600000003
  0
LWPOLYLINE
  5
3B
330
17
100
AcDbEntity
  8
0
100
AcDbPolyline
 90
11
 70
1
 10
249.1544420000001
 20
-79.14106600000004
 10
249.06274800000008
 20
-79.25130200000004
 10
248.9588620000001
 20
-79.35645800000003
 10
248.84100600000008
 20
-79.45551800000003
 10
248.7074020000001
 20
-79.54746600000004
 10
248.13031400000008
 20
-79.87157000000003
 10
247.5382400000001
 20
-80.14335000000004
 10
246.31599200000008
 20
-80.55025800000003
 10
295.2539180000001
 20
-80.38236400000004
 10
297.6438040000001
 20
-80.09001000000004
 10
302.2874320000001
 20
-79.02524200000003
  0
ENDSEC
  0
SECTION
  2
OBJECTS
  0
DICTIONARY
  5
A
330
0
100
AcDbDictionary
281
1
  3
ACAD_COLOR
350
B
  3
ACAD_GROUP
350
C
  3
ACAD_LAYOUT
350
D
  3
ACAD_MATERIAL
350
E
  3
ACAD_MLEADERSTYLE
350
F
  3
ACAD_MLINESTYLE
350
10
  3
ACAD_PLOTSETTINGS
350
11
  3
ACAD_PLOTSTYLENAME
350
12
  3
ACAD_SCALELIST
350
14
  3
ACAD_TABLESTYLE
350
15
  3
ACAD_VISUALSTYLE
350
16
  3
EZDXF_META
350
2D
  0
DICTIONARY
  5
B
330
A
100
AcDbDictionary
281
1
  0
DICTIONARY
  5
C
330
A
100
AcDbDictionary
281
1
  0
DICTIONARY
  5
D
330
A
100
AcDbDictionary
281
1
  3
Model
350
1A
  3
Layout1
350
1E
  0
DICTIONARY
  5
E
330
A
100
AcDbDictionary
281
1
  3
ByBlock
350
1F
  3
ByLayer
350
20
  3
Global
350
21
  0
DICTIONARY
  5
F
330
A
100
AcDbDictionary
281
1
  3
Standard
350
2C
  0
DICTIONARY
  5
10
330
A
100
AcDbDictionary
281
1
  3
Standard
350
22
  0
DICTIONARY
  5
11
330
A
100
AcDbDictionary
281
1
  0
ACDBDICTIONARYWDFLT
  5
12
330
A
100
AcDbDictionary
281
1
  3
Normal
350
13
100
AcDbDictionaryWithDefault
340
13
  0
ACDBPLACEHOLDER
  5
13
330
12
  0
DICTIONARY
  5
14
330
A
100
AcDbDictionary
281
1
  0
DICTIONARY
  5
15
330
A
100
AcDbDictionary
281
1
  0
DICTIONARY
  5
16
330
A
100
AcDbDictionary
281
1
  0
LAYOUT
  5
1A
330
D
100
AcDbPlotSettings
  1

  4
A3
  6

 40
7.5
 41
20.0
 42
7.5
 43
20.0
 44
420.0
 45
297.0
 46
0.0
 47
0.0
 48
0.0
 49
0.0
140
0.0
141
0.0
142
1.0
143
1.0
 70
1024
 72
1
 73
0
 74
5
  7

 75
16
 76
0
 77
2
 78
300
147
1.0
148
0.0
149
0.0
100
AcDbLayout
  1
Model
 70
1
 71
0
 10
0.0
 20
0.0
 11
420.0
 21
297.0
 12
0.0
 22
0.0
 32
0.0
 14
1e+20
 24
1e+20
 34
1e+20
 15
-1e+20
 25
-1e+20
 35
-1e+20
146
0.0
 13
0.0
 23
0.0
 33
0.0
 16
1.0
 26
0.0
 36
0.0
 17
0.0
 27
1.0
 37
0.0
 76
1
330
17
  0
LAYOUT
  5
1E
330
D
100
AcDbPlotSettings
  1

  4
A3
  6

 40
7.5
 41
20.0
 42
7.5
 43
20.0
 44
420.0
 45
297.0
 46
0.0
 47
0.0
 48
0.0
 49
0.0
140
0.0
141
0.0
142
1.0
143
1.0
 70
0
 72
1
 73
0
 74
5
  7

 75
16
 76
0
 77
2
 78
300
147
1.0
148
0.0
149
0.0
100
AcDbLayout
  1
Layout1
 70
1
 71
1
 10
0.0
 20
0.0
 11
420.0
 21
297.0
 12
0.0
 22
0.0
 32
0.0
 14
1e+20
 24
1e+20
 34
1e+20
 15
-1e+20
 25
-1e+20
 35
-1e+20
146
0.0
 13
0.0
 23
0.0
 33
0.0
 16
1.0
 26
0.0
 36
0.0
 17
0.0
 27
1.0
 37
0.0
 76
1
330
1B
  0
MATERIAL
  5
1F
102
{ACAD_REACTORS
330
E
102
}
330
E
100
AcDbMaterial
  1
ByBlock
  2

 70
0
 40
1.0
 71
1
 41
1.0
 91
-1023410177
 42
1.0
 72
1
  3

 73
1
 74
1
 75
1
 44
0.5
 73
0
 45
1.0
 46
1.0
 77
1
  4

 78
1
 79
1
170
1
 48
1.0
171
1
  6

172
1
173
1
174
1
140
1.0
141
1.0
175
1
  7

176
1
177
1
178
1
143
1.0
179
1
  8

270
1
271
1
272
1
145
1.0
146
1.0
273
1
  9

274
1
275
1
276
1
 42
1.0
 72
1
  3

 73
1
 74
1
 75
1
 94
63
  0
MATERIAL
  5
20
102
{ACAD_REACTORS
330
E
102
}
330
E
100
AcDbMaterial
  1
ByLayer
  2

 70
0
 40
1.0
 71
1
 41
1.0
 91
-1023410177
 42
1.0
 72
1
  3

 73
1
 74
1
 75
1
 44
0.5
 73
0
 45
1.0
 46
1.0
 77
1
  4

 78
1
 79
1
170
1
 48
1.0
171
1
  6

172
1
173
1
174
1
140
1.0
141
1.0
175
1
  7

176
1
177
1
178
1
143
1.0
179
1
  8

270
1
271
1
272
1
145
1.0
146
1.0
273
1
  9

274
1
275
1
276
1
 42
1.0
 72
1
  3

 73
1
 74
1
 75
1
 94
63
  0
MATERIAL
  5
21
102
{ACAD_REACTORS
330
E
102
}
330
E
100
AcDbMaterial
  1
Global
  2

 70
0
 40
1.0
 71
1
 41
1.0
 91
-1023410177
 42
1.0
 72
1
  3

 73
1
 74
1
 75
1
 44
0.5
 73
0
 45
1.0
 46
1.0
 77
1
  4

 78
1
 79
1
170
1
 48
1.0
171
1
  6

172
1
173
1
174
1
140
1.0
141
1.0
175
1
  7

176
1
177
1
178
1
143
1.0
179
1
  8

270
1
271
1
272
1
145
1.0
146
1.0
273
1
  9

274
1
275
1
276
1
 42
1.0
 72
1
  3

 73
1
 74
1
 75
1
 94
63
  0
MLINESTYLE
  5
22
102
{ACAD_REACTORS
330
10
102
}
330
10
100
AcDbMlineStyle
  2
Standard
 70
0
  3

 62
256
 51
90.0
 52
90.0
 71
2
 49
0.5
 62
256
  6
BYLAYER
 49
-0.5
 62
256
  6
BYLAYER
  0
MLEADERSTYLE
  5
2C
102
{ACAD_REACTORS
330
F
102
}
330
F
100
AcDbMLeaderStyle
179
2
170
2
171
1
172
0
 90
2
 40
0.0
 41
0.0
173
1
 91
-1056964608
 92
-2
290
1
 42
2.0
291
1
 43
8.0
  3
Standard
 44
4.0
300

342
29
174
1
175
1
176
0
178
1
 93
-1056964608
 45
4.0
292
0
297
0
 46
4.0
 94
-1056964608
 47
1.0
 49
1.0
140
1.0
294
1
141
0.0
177
0
142
1.0
295
0
296
0
143
3.75
271
0
272
9
273
9
  0
DICTIONARY
  5
2D
330
A
100
AcDbDictionary
280
1
281
1
  3
CREATED_BY_EZDXF
350
2E
  3
WRITTEN_BY_EZDXF
350
3E
  0
DICTIONARYVAR
  5
2E
330
2D
100
DictionaryVariables
280
0
  1
1.4.3 @ 2026-04-12T00:41:30.188655+00:00
  0
DICTIONARYVAR
  5
3E
330
2D
100
DictionaryVariables
280
0
  1
1.4.3 @ 2026-04-12T00:41:30.190326+00:00
  0
ENDSEC
  0
EOF
