  0
SECTION
  2
HEADER
  9
$ACADVER
  1
AC1024
  9
$ACADMAINTVER
 70
6
  9
$DWGCODEPAGE
  3
ANSI_1252
  9
$LASTSAVEDBY
  1
ezdxf
  9
$INSBASE
 10
0.0
 20
0.0
 30
0.0
  9
$EXTMIN
 10
1e+20
 20
1e+20
 30
1e+20
  9
$EXTMAX
 10
-1e+20
 20
-1e+20
 30
-1e+20
  9
$LIMMIN
 10
0.0
 20
0.0
  9
$LIMMAX
 10
420.0
 20
297.0
  9
$ORTHOMODE
 70
0
  9
$REGENMODE
 70
1
  9
$FILLMODE
 70
1
  9
$QTEXTMODE
 70
0
  9
$MIRRTEXT
 70
1
  9
$LTSCALE
 40
1.0
  9
$ATTMODE
 70
1
  9
$TEXTSIZE
 40
2.5
  9
$TRACEWID
 40
1.0
  9
$TEXTSTYLE
  7
Standard
  9
$CLAYER
  8
0
  9
$CELTYPE
  6
ByLayer
  9
$CECOLOR
 62
256
  9
$CELTSCALE
 40
1.0
  9
$DISPSILH
 70
0
  9
$DIMSCALE
 40
1.0
  9
$DIMASZ
 40
2.5
  9
$DIMEXO
 40
0.625
  9
$DIMDLI
 40
3.75
  9
$DIMRND
 40
0.0
  9
$DIMDLE
 40
0.0
  9
$DIMEXE
 40
1.25
  9
$DIMTP
 40
0.0
  9
$DIMTM
 40
0.0
  9
$DIMTXT
 40
2.5
  9
$DIMCEN
 40
2.5
  9
$DIMTSZ
 40
0.0
  9
$DIMTOL
 70
0
  9
$DIMLIM
 70
0
  9
$DIMTIH
 70
0
  9
$DIMTOH
 70
0
  9
$DIMSE1
 70
0
  9
$DIMSE2
 70
0
  9
$DIMTAD
 70
1
  9
$DIMZIN
 70
8
  9
$DIMBLK
  1

  9
$DIMASO
 70
1
  9
$DIMSHO
 70
1
  9
$DIMPOST
  1

  9
$DIMAPOST
  1

  9
$DIMALT
 70
0
  9
$DIMALTD
 70
3
  9
$DIMALTF
 40
0.03937007874
  9
$DIMLFAC
 40
1.0
  9
$DIMTOFL
 70
1
  9
$DIMTVP
 40
0.0
  9
$DIMTIX
 70
0
  9
$DIMSOXD
 70
0
  9
$DIMSAH
 70
0
  9
$DIMBLK1
  1

  9
$DIMBLK2
  1

  9
$DIMSTYLE
  2
ISO-25
  9
$DIMCLRD
 70
0
  9
$DIMCLRE
 70
0
  9
$DIMCLRT
 70
0
  9
$DIMTFAC
 40
1.0
  9
$DIMGAP
 40
0.625
  9
$DIMJUST
 70
0
  9
$DIMSD1
 70
0
  9
$DIMSD2
 70
0
  9
$DIMTOLJ
 70
0
  9
$DIMTZIN
 70
8
  9
$DIMALTZ
 70
0
  9
$DIMALTTZ
 70
0
  9
$DIMUPT
 70
0
  9
$DIMDEC
 70
2
  9
$DIMTDEC
 70
2
  9
$DIMALTU
 70
2
  9
$DIMALTTD
 70
3
  9
$DIMTXSTY
  7
Standard
  9
$DIMAUNIT
 70
0
  9
$DIMADEC
 70
0
  9
$DIMALTRND
 40
0.0
  9
$DIMAZIN
 70
0
  9
$DIMDSEP
 70
44
  9
$DIMATFIT
 70
3
  9
$DIMFRAC
 70
0
  9
$DIMLDRBLK
  1

  9
$DIMLUNIT
 70
2
  9
$DIMLWD
 70
-2
  9
$DIMLWE
 70
-2
  9
$DIMTMOVE
 70
0
  9
$DIMFXL
 40
1.0
  9
$DIMFXLON
 70
0
  9
$DIMJOGANG
 40
0.785398163397
  9
$DIMTFILL
 70
0
  9
$DIMTFILLCLR
 70
0
  9
$DIMARCSYM
 70
0
  9
$DIMLTYPE
  6

  9
$DIMLTEX1
  6

  9
$DIMLTEX2
  6

  9
$DIMTXTDIRECTION
 70
0
  9
$LUNITS
 70
2
  9
$LUPREC
 70
4
  9
$SKETCHINC
 40
1.0
  9
$FILLETRAD
 40
10.0
  9
$AUNITS
 70
0
  9
$AUPREC
 70
2
  9
$MENU
  1
.
  9
$ELEVATION
 40
0.0
  9
$PELEVATION
 40
0.0
  9
$THICKNESS
 40
0.0
  9
$LIMCHECK
 70
0
  9
$CHAMFERA
 40
0.0
  9
$CHAMFERB
 40
0.0
  9
$CHAMFERC
 40
0.0
  9
$CHAMFERD
 40
0.0
  9
$SKPOLY
 70
0
  9
$TDCREATE
 40
2461140.6092592594
  9
$TDUCREATE
 40
2458532.153996898
  9
$TDUPDATE
 40
2461140.6092592594
  9
$TDUUPDATE
 40
2458532.1544311
  9
$TDINDWG
 40
0.0
  9
$TDUSRTIMER
 40
0.0
  9
$USRTIMER
 70
1
  9
$ANGBASE
 50
0.0
  9
$ANGDIR
 70
0
  9
$PDMODE
 70
0
  9
$PDSIZE
 40
0.0
  9
$PLINEWID
 40
0.0
  9
$SPLFRAME
 70
0
  9
$SPLINETYPE
 70
6
  9
$SPLINESEGS
 70
8
  9
$HANDSEED
  5
1B1
  9
$SURFTAB1
 70
6
  9
$SURFTAB2
 70
6
  9
$SURFTYPE
 70
6
  9
$SURFU
 70
6
  9
$SURFV
 70
6
  9
$UCSBASE
  2

  9
$UCSNAME
  2

  9
$UCSORG
 10
0.0
 20
0.0
 30
0.0
  9
$UCSXDIR
 10
1.0
 20
0.0
 30
0.0
  9
$UCSYDIR
 10
0.0
 20
1.0
 30
0.0
  9
$UCSORTHOREF
  2

  9
$UCSORTHOVIEW
 70
0
  9
$UCSORGTOP
 10
0.0
 20
0.0
 30
0.0
  9
$UCSORGBOTTOM
 10
0.0
 20
0.0
 30
0.0
  9
$UCSORGLEFT
 10
0.0
 20
0.0
 30
0.0
  9
$UCSORGRIGHT
 10
0.0
 20
0.0
 30
0.0
  9
$UCSORGFRONT
 10
0.0
 20
0.0
 30
0.0
  9
$UCSORGBACK
 10
0.0
 20
0.0
 30
0.0
  9
$PUCSBASE
  2

  9
$PUCSNAME
  2

  9
$PUCSORG
 10
0.0
 20
0.0
 30
0.0
  9
$PUCSXDIR
 10
1.0
 20
0.0
 30
0.0
  9
$PUCSYDIR
 10
0.0
 20
1.0
 30
0.0
  9
$PUCSORTHOREF
  2

  9
$PUCSORTHOVIEW
 70
0
  9
$PUCSORGTOP
 10
0.0
 20
0.0
 30
0.0
  9
$PUCSORGBOTTOM
 10
0.0
 20
0.0
 30
0.0
  9
$PUCSORGLEFT
 10
0.0
 20
0.0
 30
0.0
  9
$PUCSORGRIGHT
 10
0.0
 20
0.0
 30
0.0
  9
$PUCSORGFRONT
 10
0.0
 20
0.0
 30
0.0
  9
$PUCSORGBACK
 10
0.0
 20
0.0
 30
0.0
  9
$USERI1
 70
0
  9
$USERI2
 70
0
  9
$USERI3
 70
0
  9
$USERI4
 70
0
  9
$USERI5
 70
0
  9
$USERR1
 40
0.0
  9
$USERR2
 40
0.0
  9
$USERR3
 40
0.0
  9
$USERR4
 40
0.0
  9
$USERR5
 40
0.0
  9
$WORLDVIEW
 70
1
  9
$SHADEDGE
 70
3
  9
$SHADEDIF
 70
70
  9
$TILEMODE
 70
1
  9
$MAXACTVP
 70
64
  9
$PINSBASE
 10
0.0
 20
0.0
 30
0.0
  9
$PLIMCHECK
 70
0
  9
$PEXTMIN
 10
1e+20
 20
1e+20
 30
1e+20
  9
$PEXTMAX
 10
-1e+20
 20
-1e+20
 30
-1e+20
  9
$PLIMMIN
 10
0.0
 20
0.0
  9
$PLIMMAX
 10
420.0
 20
297.0
  9
$UNITMODE
 70
0
  9
$VISRETAIN
 70
1
  9
$PLINEGEN
 70
0
  9
$PSLTSCALE
 70
1
  9
$TREEDEPTH
 70
3020
  9
$CMLSTYLE
  2
Standard
  9
$CMLJUST
 70
0
  9
$CMLSCALE
 40
20.0
  9
$PROXYGRAPHICS
 70
1
  9
$MEASUREMENT
 70
1
  9
$CELWEIGHT
370
-1
  9
$ENDCAPS
280
0
  9
$JOINSTYLE
280
0
  9
$LWDISPLAY
290
0
  9
$INSUNITS
 70
4
  9
$HYPERLINKBASE
  1

  9
$STYLESHEET
  1

  9
$XEDIT
290
1
  9
$CEPSNTYPE
380
0
  9
$PSTYLEMODE
290
1
  9
$FINGERPRINTGUID
  2
{0C0CB604-FFBB-48C9-BDB5-69B7F339AF22}
  9
$VERSIONGUID
  2
{9D289F01-6FBA-43BE-8265-D742402EA27D}
  9
$EXTNAMES
290
1
  9
$PSVPSCALE
 40
0.0
  9
$OLESTARTUP
290
0
  9
$SORTENTS
280
127
  9
$INDEXCTL
280
0
  9
$HIDETEXT
280
1
  9
$XCLIPFRAME
280
1
  9
$HALOGAP
280
0
  9
$OBSCOLOR
 70
257
  9
$OBSLTYPE
280
0
  9
$INTERSECTIONDISPLAY
280
0
  9
$INTERSECTIONCOLOR
 70
257
  9
$DIMASSOC
280
2
  9
$PROJECTNAME
  1

  9
$CAMERADISPLAY
290
0
  9
$LENSLENGTH
 40
50.0
  9
$CAMERAHEIGHT
 40
0.0
  9
$STEPSPERSEC
 40
24.0
  9
$STEPSIZE
 40
100.0
  9
$3DDWFPREC
 40
2.0
  9
$PSOLWIDTH
 40
0.005
  9
$PSOLHEIGHT
 40
0.08
  9
$LOFTANG1
 40
1.570796326795
  9
$LOFTANG2
 40
1.570796326795
  9
$LOFTMAG1
 40
0.0
  9
$LOFTMAG2
 40
0.0
  9
$LOFTPARAM
 70
7
  9
$LOFTNORMALS
280
1
  9
$LATITUDE
 40
37.795
  9
$LONGITUDE
 40
-122.394
  9
$NORTHDIRECTION
 40
0.0
  9
$TIMEZONE
 70
-8000
  9
$LIGHTGLYPHDISPLAY
280
1
  9
$TILEMODELIGHTSYNCH
280
1
  9
$CMATERIAL
347
20
  9
$SOLIDHIST
280
0
  9
$SHOWHIST
280
1
  9
$DWFFRAME
280
2
  9
$DGNFRAME
280
2
  9
$REALWORLDSCALE
290
1
  9
$INTERFERECOLOR
 62
256
  9
$CSHADOW
280
0
  9
$SHADOWPLANELOCATION
 40
0.0
  0
ENDSEC
  0
SECTION
  2
CLASSES
  0
CLASS
  1
ACDBDICTIONARYWDFLT
  2
AcDbDictionaryWithDefault
  3
ObjectDBX Classes
 90
0
 91
0
280
0
281
0
  0
CLASS
  1
SUN
  2
AcDbSun
  3
SCENEOE
 90
1153
 91
0
280
0
281
0
  0
CLASS
  1
VISUALSTYLE
  2
AcDbVisualStyle
  3
ObjectDBX Classes
 90
4095
 91
0
280
0
281
0
  0
CLASS
  1
MATERIAL
  2
AcDbMaterial
  3
ObjectDBX Classes
 90
1153
 91
0
280
0
281
0
  0
CLASS
  1
SCALE
  2
AcDbScale
  3
ObjectDBX Classes
 90
1153
 91
0
280
0
281
0
  0
CLASS
  1
TABLESTYLE
  2
AcDbTableStyle
  3
ObjectDBX Classes
 90
4095
 91
0
280
0
281
0
  0
CLASS
  1
MLEADERSTYLE
  2
AcDbMLeaderStyle
  3
ACDB_MLEADERSTYLE_CLASS
 90
4095
 91
0
280
0
281
0
  0
CLASS
  1
DICTIONARYVAR
  2
AcDbDictionaryVar
  3
ObjectDBX Classes
 90
0
 91
0
280
0
281
0
  0
CLASS
  1
CELLSTYLEMAP
  2
AcDbCellStyleMap
  3
ObjectDBX Classes
 90
1152
 91
0
280
0
281
0
  0
CLASS
  1
MENTALRAYRENDERSETTINGS
  2
AcDbMentalRayRenderSettings
  3
SCENEOE
 90
1024
 91
0
280
0
281
0
  0
CLASS
  1
ACDBDETAILVIEWSTYLE
  2
AcDbDetailViewStyle
  3
ObjectDBX Classes
 90
1025
 91
0
280
0
281
0
  0
CLASS
  1
ACDBSECTIONVIEWSTYLE
  2
AcDbSectionViewStyle
  3
ObjectDBX Classes
 90
1025
 91
0
280
0
281
0
  0
CLASS
  1
RASTERVARIABLES
  2
AcDbRasterVariables
  3
ISM
 90
0
 91
0
280
0
281
0
  0
CLASS
  1
LAYOUT
  2
AcDbLayout
  3
ObjectDBX Classes
 90
0
 91
0
280
0
281
0
  0
CLASS
  1
ACDBPLACEHOLDER
  2
AcDbPlaceHolder
  3
ObjectDBX Classes
 90
0
 91
0
280
0
281
0
  0
ENDSEC
  0
SECTION
  2
TABLES
  0
TABLE
  2
VPORT
  5
8
330
0
100
AcDbSymbolTable
 70
1
  0
VPORT
  5
23
330
8
100
AcDbSymbolTableRecord
100
AcDbViewportTableRecord
  2
*Active
 70
0
 10
0.0
 20
0.0
 11
1.0
 21
1.0
 12
0.0
 22
0.0
 13
0.0
 23
0.0
 14
0.5
 24
0.5
 15
0.5
 25
0.5
 16
0.0
 26
0.0
 36
1.0
 17
0.0
 27
0.0
 37
0.0
 40
1000.0
 41
1.34
 42
50.0
 43
0.0
 44
0.0
 50
0.0
 51
0.0
 71
0
 72
1000
 73
1
 74
3
 75
0
 76
0
 77
0
 78
0
281
0
 65
0
146
0.0
  0
ENDTAB
  0
TABLE
  2
LTYPE
  5
2
330
0
100
AcDbSymbolTable
 70
3
  0
LTYPE
  5
24
330
2
100
AcDbSymbolTableRecord
100
AcDbLinetypeTableRecord
  2
ByBlock
 70
0
  3

 72
65
 73
0
 40
0.0
  0
LTYPE
  5
25
330
2
100
AcDbSymbolTableRecord
100
AcDbLinetypeTableRecord
  2
ByLayer
 70
0
  3

 72
65
 73
0
 40
0.0
  0
LTYPE
  5
26
330
2
100
AcDbSymbolTableRecord
100
AcDbLinetypeTableRecord
  2
Continuous
 70
0
  3

 72
65
 73
0
 40
0.0
  0
ENDTAB
  0
TABLE
  2
LAYER
  5
1
330
0
100
AcDbSymbolTable
 70
2
  0
LAYER
  5
27
330
1
100
AcDbSymbolTableRecord
100
AcDbLayerTableRecord
  2
0
 70
0
 62
7
  6
Continuous
370
-3
390
13
347
21
  0
LAYER
  5
28
330
1
100
AcDbSymbolTableRecord
100
AcDbLayerTableRecord
  2
Defpoints
 70
0
 62
7
  6
Continuous
290
0
370
-3
390
13
347
21
  0
ENDTAB
  0
TABLE
  2
STYLE
  5
5
330
0
100
AcDbSymbolTable
 70
1
  0
STYLE
  5
29
330
5
100
AcDbSymbolTableRecord
100
AcDbTextStyleTableRecord
  2
Standard
 70
0
 40
0.0
 41
1.0
 50
0.0
 71
0
 42
2.5
  3
txt
  4

  0
ENDTAB
  0
TABLE
  2
VIEW
  5
7
330
0
100
AcDbSymbolTable
 70
0
  0
ENDTAB
  0
TABLE
  2
UCS
  5
6
330
0
100
AcDbSymbolTable
 70
0
  0
ENDTAB
  0
TABLE
  2
APPID
  5
3
330
0
100
AcDbSymbolTable
 70
3
  0
APPID
  5
2A
330
3
100
AcDbSymbolTableRecord
100
AcDbRegAppTableRecord
  2
ACAD
 70
0
  0
APPID
  5
1AE
330
3
100
AcDbSymbolTableRecord
100
AcDbRegAppTableRecord
  2
HATCHBACKGROUNDCOLOR
 70
0
  0
APPID
  5
1AF
330
3
100
AcDbSymbolTableRecord
100
AcDbRegAppTableRecord
  2
EZDXF
 70
0
  0
ENDTAB
  0
TABLE
  2
DIMSTYLE
  5
4
330
0
100
AcDbSymbolTable
 70
1
100
AcDbDimStyleTable
  0
DIMSTYLE
105
2B
330
4
100
AcDbSymbolTableRecord
100
AcDbDimStyleTableRecord
  2
Standard
 70
0
 40
1.0
 41
2.5
 42
0.625
 43
3.75
 44
1.25
 45
0.0
 46
0.0
 47
0.0
 48
0.0
 49
2.5
140
2.5
141
2.5
142
0.0
143
0.03937007874
144
1.0
145
0.0
146
1.0
147
0.625
148
0.0
 69
0
 70
0
 71
0
 72
0
 73
0
 74
0
 75
0
 76
0
 77
1
 78
8
 79
3
170
0
171
3
172
1
173
0
174
0
175
0
176
0
177
0
178
0
179
2
271
2
272
2
273
2
274
3
275
0
276
0
277
2
278
44
279
0
280
0
281
0
282
0
283
0
284
8
285
0
286
0
288
0
289
3
290
0
371
-2
372
-2
  0
ENDTAB
  0
TABLE
  2
BLOCK_RECORD
  5
9
330
0
100
AcDbSymbolTable
 70
3
  0
BLOCK_RECORD
  5
17
330
9
100
AcDbSymbolTableRecord
100
AcDbBlockTableRecord
  2
*Model_Space
340
1A
 70
0
280
1
281
0
  0
BLOCK_RECORD
  5
1B
330
9
100
AcDbSymbolTableRecord
100
AcDbBlockTableRecord
  2
*Paper_Space
340
1E
 70
0
280
1
281
0
  0
BLOCK_RECORD
  5
2F
330
9
100
AcDbSymbolTableRecord
100
AcDbBlockTableRecord
  2
HEX
340
0
 70
0
280
1
281
0
  0
ENDTAB
  0
ENDSEC
  0
SECTION
  2
BLOCKS
  0
BLOCK
  5
18
330
17
100
AcDbEntity
  8
0
100
AcDbBlockBegin
  2
*Model_Space
 70
0
 10
0.0
 20
0.0
 30
0.0
  3
*Model_Space
  1

  0
ENDBLK
  5
19
330
17
100
AcDbEntity
  8
0
100
AcDbBlockEnd
  0
BLOCK
  5
1C
330
1B
100
AcDbEntity
  8
0
100
AcDbBlockBegin
  2
*Paper_Space
 70
0
 10
0.0
 20
0.0
 30
0.0
  3
*Paper_Space
  1

  0
ENDBLK
  5
1D
330
1B
100
AcDbEntity
  8
0
100
AcDbBlockEnd
  0
BLOCK
  5
30
330
2F
100
AcDbEntity
  8
0
100
AcDbBlockBegin
  2
HEX
 70
0
 10
0.0
 20
0.0
 30
0.0
  3
HEX
  1

  0
LWPOLYLINE
  5
32
330
2F
100
AcDbEntity
  8
0
100
AcDbPolyline
 90
6
 70
1
 10
1.516
 20
0.875
 10
0.0
 20
1.75
 10
-1.516
 20
0.875
 10
-1.516
 20
-0.875
 10
-0.0
 20
-1.75
 10
1.516
 20
-0.875
  0
ENDBLK
  5
31
330
2F
100
AcDbEntity
  8
0
100
AcDbBlockEnd
  0
ENDSEC
  0
SECTION
  2
ENTITIES
  0
LWPOLYLINE
  5
33
330
17
100
AcDbEntity
  8
0
100
AcDbPolyline
 90
9
 70
1
 10
128.592
 20
-151.083
 10
128.254
 20
-150.904
 10
128.036
 20
-150.756
 10
127.834
 20
-150.59
 10
127.648
 20
-150.408
 10
127.416
 20
-150.131
 10
128.891
 20
-150.982
 10
128.891
 20
-151.196
 10
128.592
 20
-151.083
  0
LWPOLYLINE
  5
34
330
17
100
AcDbEntity
  8
0
100
AcDbPolyline
 90
7
 70
1
 10
130.074
 20
-151.415
 10
129.391
 20
-151.323
 10
129.391
 20
-150.982
 10
130.907
 20
-150.107
 10
132.422
 20
-150.982
 10
132.422
 20
-151.356
 10
130.074
 20
-151.415
  0
LWPOLYLINE
  5
35
330
17
100
AcDbEntity
  8
0
100
AcDbPolyline
 90
6
 70
1
 10
132.922
 20
-151.344
 10
132.922
 20
-150.982
 10
134.438
 20
-150.107
 10
135.953
 20
-150.982
 10
135.953
 20
-151.268
 10
132.922
 20
-151.344
  0
LWPOLYLINE
  5
36
330
17
100
AcDbEntity
  8
0
100
AcDbPolyline
 90
6
 70
1
 10
136.453
 20
-151.255
 10
136.453
 20
-150.982
 10
137.969
 20
-150.107
 10
139.484
 20
-150.982
 10
139.484
 20
-151.179
 10
136.453
 20
-151.255
  0
LWPOLYLINE
  5
37
330
17
100
AcDbEntity
  8
0
100
AcDbPolyline
 90
6
 70
1
 10
139.984
 20
-151.166
 10
139.984
 20
-150.982
 10
141.5
 20
-150.107
 10
143.015
 20
-150.982
 10
143.015
 20
-151.09
 10
139.984
 20
-151.166
  0
LWPOLYLINE
  5
38
330
17
100
AcDbEntity
  8
0
100
AcDbPolyline
 90
6
 70
1
 10
146.04
 20
-151.014
 10
143.515
 20
-151.078
 10
143.515
 20
-150.982
 10
145.031
 20
-150.107
 10
146.502
 20
-150.957
 10
146.04
 20
-151.014
  0
LWPOLYLINE
  5
39
330
17
100
AcDbEntity
  8
0
100
AcDbPolyline
 90
7
 70
1
 10
127.044
 20
-149.554
 10
126.812
 20
-149.068
 10
126.616
 20
-148.557
 10
126.335
 20
-147.468
 10
127.125
 20
-147.924
 10
127.125
 20
-149.674
 10
127.044
 20
-149.554
  0
INSERT
  5
3A
330
17
100
AcDbEntity
  8
0
100
AcDbBlockReference
  2
HEX
 10
129.141
 20
-148.799
 30
0.0
  0
INSERT
  5
3C
330
17
100
AcDbEntity
  8
0
100
AcDbBlockReference
  2
HEX
 10
132.672
 20
-148.799
 30
0.0
  0
INSERT
  5
3E
330
17
100
AcDbEntity
  8
0
100
AcDbBlockReference
  2
HEX
 10
136.203
 20
-148.799
 30
0.0
  0
INSERT
  5
40
330
17
100
AcDbEntity
  8
0
100
AcDbBlockReference
  2
HEX
 10
139.734
 20
-148.799
 30
0.0
  0
INSERT
  5
42
330
17
100
AcDbEntity
  8
0
100
AcDbBlockReference
  2
HEX
 10
143.265
 20
-148.799
 30
0.0
  0
INSERT
  5
44
330
17
100
AcDbEntity
  8
0
100
AcDbBlockReference
  2
HEX
 10
146.796
 20
-148.799
 30
0.0
  0
LWPOLYLINE
  5
46
330
17
100
AcDbEntity
  8
0
100
AcDbPolyline
 90
8
 70
1
 10
125.86
 20
-145.625
 10
125.86
 20
-144.866
 10
127.375
 20
-143.991
 10
128.891
 20
-144.866
 10
128.891
 20
-146.616
 10
127.375
 20
-147.491
 10
126.16
 20
-146.79
 10
125.86
 20
-145.625
  0
INSERT
  5
47
330
17
100
AcDbEntity
  8
0
100
AcDbBlockReference
  2
HEX
 10
130.907
 20
-145.741
 30
0.0
  0
INSERT
  5
49
330
17
100
AcDbEntity
  8
0
100
AcDbBlockReference
  2
HEX
 10
134.438
 20
-145.741
 30
0.0
  0
INSERT
  5
4B
330
17
100
AcDbEntity
  8
0
100
AcDbBlockReference
  2
HEX
 10
137.969
 20
-145.741
 30
0.0
  0
INSERT
  5
4D
330
17
100
AcDbEntity
  8
0
100
AcDbBlockReference
  2
HEX
 10
141.5
 20
-145.741
 30
0.0
  0
INSERT
  5
4F
330
17
100
AcDbEntity
  8
0
100
AcDbBlockReference
  2
HEX
 10
145.031
 20
-145.741
 30
0.0
  0
LWPOLYLINE
  5
51
330
17
100
AcDbEntity
  8
0
100
AcDbPolyline
 90
6
 70
1
 10
148.45
 20
-147.157
 10
148.488
 20
-147.449
 10
147.046
 20
-146.616
 10
147.046
 20
-144.866
 10
147.83
 20
-144.414
 10
148.45
 20
-147.157
  0
LWPOLYLINE
  5
52
330
17
100
AcDbEntity
  8
0
100
AcDbPolyline
 90
7
 70
1
 10
124.775
 20
-141.416
 10
125.61
 20
-140.933
 10
127.125
 20
-141.808
 10
127.125
 20
-143.558
 10
125.61
 20
-144.433
 10
125.543
 20
-144.395
 10
124.775
 20
-141.416
  0
INSERT
  5
53
330
17
100
AcDbEntity
  8
0
100
AcDbBlockReference
  2
HEX
 10
129.141
 20
-142.683
 30
0.0
  0
INSERT
  5
55
330
17
100
AcDbEntity
  8
0
100
AcDbBlockReference
  2
HEX
 10
132.672
 20
-142.683
 30
0.0
  0
INSERT
  5
57
330
17
100
AcDbEntity
  8
0
100
AcDbBlockReference
  2
HEX
 10
136.203
 20
-142.683
 30
0.0
  0
INSERT
  5
59
330
17
100
AcDbEntity
  8
0
100
AcDbBlockReference
  2
HEX
 10
139.734
 20
-142.683
 30
0.0
  0
INSERT
  5
5B
330
17
100
AcDbEntity
  8
0
100
AcDbBlockReference
  2
HEX
 10
143.265
 20
-142.683
 30
0.0
  0
LWPOLYLINE
  5
5D
330
17
100
AcDbEntity
  8
0
100
AcDbPolyline
 90
7
 70
1
 10
147.714
 20
-143.904
 10
146.796
 20
-144.433
 10
145.281
 20
-143.558
 10
145.281
 20
-141.808
 10
146.796
 20
-140.933
 10
147.075
 20
-141.094
 10
147.714
 20
-143.904
  0
LWPOLYLINE
  5
5E
330
17
100
AcDbEntity
  8
0
100
AcDbPolyline
 90
5
 70
1
 10
123.865
 20
-137.887
 10
125.36
 20
-138.75
 10
125.36
 20
-140.5
 10
124.645
 20
-140.913
 10
123.865
 20
-137.887
  0
INSERT
  5
5F
330
17
100
AcDbEntity
  8
0
100
AcDbBlockReference
  2
HEX
 10
127.375
 20
-139.625
 30
0.0
  0
INSERT
  5
61
330
17
100
AcDbEntity
  8
0
100
AcDbBlockReference
  2
HEX
 10
130.907
 20
-139.625
 30
0.0
  0
INSERT
  5
63
330
17
100
AcDbEntity
  8
0
100
AcDbBlockReference
  2
HEX
 10
134.438
 20
-139.625
 30
0.0
  0
INSERT
  5
65
330
17
100
AcDbEntity
  8
0
100
AcDbBlockReference
  2
HEX
 10
137.969
 20
-139.625
 30
0.0
  0
INSERT
  5
67
330
17
100
AcDbEntity
  8
0
100
AcDbBlockReference
  2
HEX
 10
141.5
 20
-139.625
 30
0.0
  0
LWPOLYLINE
  5
69
330
17
100
AcDbEntity
  8
0
100
AcDbPolyline
 90
7
 70
1
 10
146.541
 20
-138.747
 10
146.546
 20
-140.5
 10
145.031
 20
-141.375
 10
143.515
 20
-140.5
 10
143.515
 20
-138.75
 10
145.031
 20
-137.875
 10
146.541
 20
-138.747
  0
LWPOLYLINE
  5
6A
330
17
100
AcDbEntity
  8
0
100
AcDbPolyline
 90
4
 70
1
 10
123.247
 20
-135.492
 10
123.594
 20
-135.692
 10
123.594
 20
-136.839
 10
123.247
 20
-135.492
  0
INSERT
  5
6B
330
17
100
AcDbEntity
  8
0
100
AcDbBlockReference
  2
HEX
 10
125.61
 20
-136.567
 30
0.0
  0
INSERT
  5
6D
330
17
100
AcDbEntity
  8
0
100
AcDbBlockReference
  2
HEX
 10
129.141
 20
-136.567
 30
0.0
  0
INSERT
  5
6F
330
17
100
AcDbEntity
  8
0
100
AcDbBlockReference
  2
HEX
 10
132.672
 20
-136.567
 30
0.0
  0
INSERT
  5
71
330
17
100
AcDbEntity
  8
0
100
AcDbBlockReference
  2
HEX
 10
136.203
 20
-136.567
 30
0.0
  0
INSERT
  5
73
330
17
100
AcDbEntity
  8
0
100
AcDbBlockReference
  2
HEX
 10
139.734
 20
-136.567
 30
0.0
  0
INSERT
  5
75
330
17
100
AcDbEntity
  8
0
100
AcDbBlockReference
  2
HEX
 10
143.265
 20
-136.567
 30
0.0
  0
LWPOLYLINE
  5
77
330
17
100
AcDbEntity
  8
0
100
AcDbPolyline
 90
5
 70
1
 10
146.39
 20
-138.083
 10
145.281
 20
-137.442
 10
145.281
 20
-135.692
 10
145.78
 20
-135.404
 10
146.39
 20
-138.083
  0
LWPOLYLINE
  5
78
330
17
100
AcDbEntity
  8
0
100
AcDbPolyline
 90
7
 70
1
 10
122.487
 20
-132.543
 10
123.844
 20
-131.759
 10
125.36
 20
-132.634
 10
125.36
 20
-134.384
 10
123.844
 20
-135.259
 10
123.072
 20
-134.813
 10
122.487
 20
-132.543
  0
INSERT
  5
79
330
17
100
AcDbEntity
  8
0
100
AcDbBlockReference
  2
HEX
 10
127.375
 20
-133.509
 30
0.0
  0
INSERT
  5
7B
330
17
100
AcDbEntity
  8
0
100
AcDbBlockReference
  2
HEX
 10
130.907
 20
-133.509
 30
0.0
  0
INSERT
  5
7D
330
17
100
AcDbEntity
  8
0
100
AcDbBlockReference
  2
HEX
 10
134.438
 20
-133.509
 30
0.0
  0
INSERT
  5
7F
330
17
100
AcDbEntity
  8
0
100
AcDbBlockReference
  2
HEX
 10
137.969
 20
-133.509
 30
0.0
  0
INSERT
  5
81
330
17
100
AcDbEntity
  8
0
100
AcDbBlockReference
  2
HEX
 10
141.5
 20
-133.509
 30
0.0
  0
LWPOLYLINE
  5
83
330
17
100
AcDbEntity
  8
0
100
AcDbPolyline
 90
6
 70
1
 10
145.664
 20
-134.894
 10
145.031
 20
-135.259
 10
143.515
 20
-134.384
 10
143.515
 20
-132.634
 10
144.96
 20
-131.8
 10
145.664
 20
-134.894
  0
LWPOLYLINE
  5
84
330
17
100
AcDbEntity
  8
0
100
AcDbPolyline
 90
6
 70
1
 10
121.571
 20
-128.994
 10
122.079
 20
-128.701
 10
123.594
 20
-129.576
 10
123.594
 20
-131.326
 10
122.357
 20
-132.041
 10
121.571
 20
-128.994
  0
INSERT
  5
85
330
17
100
AcDbEntity
  8
0
100
AcDbBlockReference
  2
HEX
 10
125.61
 20
-130.451
 30
0.0
  0
INSERT
  5
87
330
17
100
AcDbEntity
  8
0
100
AcDbBlockReference
  2
HEX
 10
129.141
 20
-130.451
 30
0.0
  0
INSERT
  5
89
330
17
100
AcDbEntity
  8
0
100
AcDbBlockReference
  2
HEX
 10
132.672
 20
-130.451
 30
0.0
  0
INSERT
  5
8B
330
17
100
AcDbEntity
  8
0
100
AcDbBlockReference
  2
HEX
 10
136.203
 20
-130.451
 30
0.0
  0
INSERT
  5
8D
330
17
100
AcDbEntity
  8
0
100
AcDbBlockReference
  2
HEX
 10
139.734
 20
-130.451
 30
0.0
  0
LWPOLYLINE
  5
8F
330
17
100
AcDbEntity
  8
0
100
AcDbPolyline
 90
9
 70
1
 10
144.642
 20
-130.399
 10
144.781
 20
-131.011
 10
144.781
 20
-131.326
 10
143.265
 20
-132.201
 10
141.75
 20
-131.326
 10
141.75
 20
-129.576
 10
143.265
 20
-128.701
 10
144.286
 20
-129.291
 10
144.642
 20
-130.399
  0
LWPOLYLINE
  5
90
330
17
100
AcDbEntity
  8
0
100
AcDbPolyline
 90
5
 70
1
 10
120.776
 20
-125.911
 10
121.829
 20
-126.518
 10
121.829
 20
-128.268
 10
121.442
 20
-128.492
 10
120.776
 20
-125.911
  0
INSERT
  5
91
330
17
100
AcDbEntity
  8
0
100
AcDbBlockReference
  2
HEX
 10
123.844
 20
-127.393
 30
0.0
  0
INSERT
  5
93
330
17
100
AcDbEntity
  8
0
100
AcDbBlockReference
  2
HEX
 10
127.375
 20
-127.393
 30
0.0
  0
INSERT
  5
95
330
17
100
AcDbEntity
  8
0
100
AcDbBlockReference
  2
HEX
 10
130.907
 20
-127.393
 30
0.0
  0
INSERT
  5
97
330
17
100
AcDbEntity
  8
0
100
AcDbBlockReference
  2
HEX
 10
134.438
 20
-127.393
 30
0.0
  0
INSERT
  5
99
330
17
100
AcDbEntity
  8
0
100
AcDbBlockReference
  2
HEX
 10
137.969
 20
-127.393
 30
0.0
  0
INSERT
  5
9B
330
17
100
AcDbEntity
  8
0
100
AcDbBlockReference
  2
HEX
 10
141.5
 20
-127.393
 30
0.0
  0
LWPOLYLINE
  5
9D
330
17
100
AcDbEntity
  8
0
100
AcDbPolyline
 90
4
 70
1
 10
144.058
 20
-128.582
 10
143.515
 20
-128.268
 10
143.515
 20
-126.89
 10
144.058
 20
-128.582
  0
LWPOLYLINE
  5
9E
330
17
100
AcDbEntity
  8
0
100
AcDbPolyline
 90
8
 70
1
 10
120.563
 20
-125.085
 10
120.563
 20
-123.46
 10
122.079
 20
-122.585
 10
123.594
 20
-123.46
 10
123.594
 20
-125.21
 10
122.079
 20
-126.085
 10
120.601
 20
-125.232
 10
120.563
 20
-125.085
  0
INSERT
  5
9F
330
17
100
AcDbEntity
  8
0
100
AcDbBlockReference
  2
HEX
 10
125.61
 20
-124.335
 30
0.0
  0
INSERT
  5
A1
330
17
100
AcDbEntity
  8
0
100
AcDbBlockReference
  2
HEX
 10
129.141
 20
-124.335
 30
0.0
  0
INSERT
  5
A3
330
17
100
AcDbEntity
  8
0
100
AcDbBlockReference
  2
HEX
 10
132.672
 20
-124.335
 30
0.0
  0
INSERT
  5
A5
330
17
100
AcDbEntity
  8
0
100
AcDbBlockReference
  2
HEX
 10
136.203
 20
-124.335
 30
0.0
  0
INSERT
  5
A7
330
17
100
AcDbEntity
  8
0
100
AcDbBlockReference
  2
HEX
 10
139.734
 20
-124.335
 30
0.0
  0
LWPOLYLINE
  5
A9
330
17
100
AcDbEntity
  8
0
100
AcDbPolyline
 90
5
 70
1
 10
143.255
 20
-126.08
 10
141.75
 20
-125.21
 10
141.75
 20
-123.46
 10
142.311
 20
-123.137
 10
143.255
 20
-126.08
  0
LWPOLYLINE
  5
AA
330
17
100
AcDbEntity
  8
0
100
AcDbPolyline
 90
7
 70
1
 10
119.283
 20
-120.122
 10
120.313
 20
-119.527
 10
121.829
 20
-120.402
 10
121.829
 20
-122.152
 10
120.313
 20
-123.027
 10
119.984
 20
-122.837
 10
119.283
 20
-120.122
  0
INSERT
  5
AB
330
17
100
AcDbEntity
  8
0
100
AcDbBlockReference
  2
HEX
 10
123.844
 20
-121.277
 30
0.0
  0
INSERT
  5
AD
330
17
100
AcDbEntity
  8
0
100
AcDbBlockReference
  2
HEX
 10
127.375
 20
-121.277
 30
0.0
  0
INSERT
  5
AF
330
17
100
AcDbEntity
  8
0
100
AcDbBlockReference
  2
HEX
 10
130.907
 20
-121.277
 30
0.0
  0
INSERT
  5
B1
330
17
100
AcDbEntity
  8
0
100
AcDbBlockReference
  2
HEX
 10
134.438
 20
-121.277
 30
0.0
  0
INSERT
  5
B3
330
17
100
AcDbEntity
  8
0
100
AcDbBlockReference
  2
HEX
 10
137.969
 20
-121.277
 30
0.0
  0
LWPOLYLINE
  5
B5
330
17
100
AcDbEntity
  8
0
100
AcDbPolyline
 90
6
 70
1
 10
142.153
 20
-122.65
 10
141.5
 20
-123.027
 10
139.984
 20
-122.152
 10
139.984
 20
-120.402
 10
140.941
 20
-119.85
 10
142.153
 20
-122.65
  0
LWPOLYLINE
  5
B6
330
17
100
AcDbEntity
  8
0
100
AcDbPolyline
 90
6
 70
1
 10
118.368
 20
-116.573
 10
118.548
 20
-116.469
 10
120.063
 20
-117.344
 10
120.063
 20
-119.094
 10
119.154
 20
-119.619
 10
118.368
 20
-116.573
  0
INSERT
  5
B7
330
17
100
AcDbEntity
  8
0
100
AcDbBlockReference
  2
HEX
 10
122.079
 20
-118.219
 30
0.0
  0
INSERT
  5
B9
330
17
100
AcDbEntity
  8
0
100
AcDbBlockReference
  2
HEX
 10
125.61
 20
-118.219
 30
0.0
  0
INSERT
  5
BB
330
17
100
AcDbEntity
  8
0
100
AcDbBlockReference
  2
HEX
 10
129.141
 20
-118.219
 30
0.0
  0
INSERT
  5
BD
330
17
100
AcDbEntity
  8
0
100
AcDbBlockReference
  2
HEX
 10
132.672
 20
-118.219
 30
0.0
  0
INSERT
  5
BF
330
17
100
AcDbEntity
  8
0
100
AcDbBlockReference
  2
HEX
 10
136.203
 20
-118.219
 30
0.0
  0
LWPOLYLINE
  5
C1
330
17
100
AcDbEntity
  8
0
100
AcDbPolyline
 90
7
 70
1
 10
140.636
 20
-119.145
 10
140.741
 20
-119.388
 10
139.734
 20
-119.969
 10
138.219
 20
-119.094
 10
138.219
 20
-117.344
 10
139.25
 20
-116.749
 10
140.636
 20
-119.145
  0
LWPOLYLINE
  5
C2
330
17
100
AcDbEntity
  8
0
100
AcDbPolyline
 90
5
 70
1
 10
117.688
 20
-113.934
 10
118.298
 20
-114.286
 10
118.298
 20
-116.036
 10
118.239
 20
-116.07
 10
117.688
 20
-113.934
  0
INSERT
  5
C3
330
17
100
AcDbEntity
  8
0
100
AcDbBlockReference
  2
HEX
 10
120.313
 20
-115.161
 30
0.0
  0
INSERT
  5
C5
330
17
100
AcDbEntity
  8
0
100
AcDbBlockReference
  2
HEX
 10
123.844
 20
-115.161
 30
0.0
  0
INSERT
  5
C7
330
17
100
AcDbEntity
  8
0
100
AcDbBlockReference
  2
HEX
 10
127.375
 20
-115.161
 30
0.0
  0
INSERT
  5
C9
330
17
100
AcDbEntity
  8
0
100
AcDbBlockReference
  2
HEX
 10
130.907
 20
-115.161
 30
0.0
  0
INSERT
  5
CB
330
17
100
AcDbEntity
  8
0
100
AcDbBlockReference
  2
HEX
 10
134.438
 20
-115.161
 30
0.0
  0
LWPOLYLINE
  5
CD
330
17
100
AcDbEntity
  8
0
100
AcDbPolyline
 90
6
 70
1
 10
138.999
 20
-116.316
 10
137.969
 20
-116.911
 10
136.453
 20
-116.036
 10
136.453
 20
-114.286
 10
137.481
 20
-113.693
 10
138.999
 20
-116.316
  0
LWPOLYLINE
  5
CE
330
17
100
AcDbEntity
  8
0
100
AcDbPolyline
 90
8
 70
1
 10
117.032
 20
-111.392
 10
117.032
 20
-111.228
 10
118.548
 20
-110.353
 10
120.063
 20
-111.228
 10
120.063
 20
-112.978
 10
118.548
 20
-113.853
 10
117.513
 20
-113.256
 10
117.032
 20
-111.392
  0
INSERT
  5
CF
330
17
100
AcDbEntity
  8
0
100
AcDbBlockReference
  2
HEX
 10
122.079
 20
-112.103
 30
0.0
  0
INSERT
  5
D1
330
17
100
AcDbEntity
  8
0
100
AcDbBlockReference
  2
HEX
 10
125.61
 20
-112.103
 30
0.0
  0
INSERT
  5
D3
330
17
100
AcDbEntity
  8
0
100
AcDbBlockReference
  2
HEX
 10
129.141
 20
-112.103
 30
0.0
  0
INSERT
  5
D5
330
17
100
AcDbEntity
  8
0
100
AcDbBlockReference
  2
HEX
 10
132.672
 20
-112.103
 30
0.0
  0
LWPOLYLINE
  5
D7
330
17
100
AcDbEntity
  8
0
100
AcDbPolyline
 90
6
 70
1
 10
137.231
 20
-113.26
 10
136.203
 20
-113.853
 10
134.688
 20
-112.978
 10
134.688
 20
-111.228
 10
135.713
 20
-110.636
 10
137.231
 20
-113.26
  0
LWPOLYLINE
  5
D8
330
17
100
AcDbEntity
  8
0
100
AcDbPolyline
 90
6
 70
1
 10
116.08
 20
-107.701
 10
116.782
 20
-107.295
 10
118.298
 20
-108.17
 10
118.298
 20
-109.92
 10
116.866
 20
-110.747
 10
116.08
 20
-107.701
  0
INSERT
  5
D9
330
17
100
AcDbEntity
  8
0
100
AcDbBlockReference
  2
HEX
 10
120.313
 20
-109.045
 30
0.0
  0
INSERT
  5
DB
330
17
100
AcDbEntity
  8
0
100
AcDbBlockReference
  2
HEX
 10
123.844
 20
-109.045
 30
0.0
  0
INSERT
  5
DD
330
17
100
AcDbEntity
  8
0
100
AcDbBlockReference
  2
HEX
 10
127.375
 20
-109.045
 30
0.0
  0
INSERT
  5
DF
330
17
100
AcDbEntity
  8
0
100
AcDbBlockReference
  2
HEX
 10
130.907
 20
-109.045
 30
0.0
  0
LWPOLYLINE
  5
E1
330
17
100
AcDbEntity
  8
0
100
AcDbPolyline
 90
6
 70
1
 10
135.463
 20
-110.204
 10
134.438
 20
-110.795
 10
132.922
 20
-109.92
 10
132.922
 20
-108.17
 10
133.945
 20
-107.58
 10
135.463
 20
-110.204
  0
LWPOLYLINE
  5
E2
330
17
100
AcDbEntity
  8
0
100
AcDbPolyline
 90
5
 70
1
 10
115.217
 20
-104.353
 10
116.532
 20
-105.112
 10
116.532
 20
-106.862
 10
115.951
 20
-107.198
 10
115.217
 20
-104.353
  0
INSERT
  5
E3
330
17
100
AcDbEntity
  8
0
100
AcDbBlockReference
  2
HEX
 10
118.548
 20
-105.987
 30
0.0
  0
INSERT
  5
E5
330
17
100
AcDbEntity
  8
0
100
AcDbBlockReference
  2
HEX
 10
122.079
 20
-105.987
 30
0.0
  0
INSERT
  5
E7
330
17
100
AcDbEntity
  8
0
100
AcDbBlockReference
  2
HEX
 10
125.61
 20
-105.987
 30
0.0
  0
INSERT
  5
E9
330
17
100
AcDbEntity
  8
0
100
AcDbBlockReference
  2
HEX
 10
129.141
 20
-105.987
 30
0.0
  0
LWPOLYLINE
  5
EB
330
17
100
AcDbEntity
  8
0
100
AcDbPolyline
 90
8
 70
1
 10
133.014
 20
-105.745
 10
133.494
 20
-106.8
 10
133.694
 20
-107.147
 10
132.672
 20
-107.737
 10
131.157
 20
-106.862
 10
131.157
 20
-105.112
 10
132.513
 20
-104.329
 10
133.014
 20
-105.745
  0
INSERT
  5
EC
330
17
100
AcDbEntity
  8
0
100
AcDbBlockReference
  2
HEX
 10
116.782
 20
-102.929
 30
0.0
  0
INSERT
  5
EE
330
17
100
AcDbEntity
  8
0
100
AcDbBlockReference
  2
HEX
 10
120.313
 20
-102.929
 30
0.0
  0
INSERT
  5
F0
330
17
100
AcDbEntity
  8
0
100
AcDbBlockReference
  2
HEX
 10
123.844
 20
-102.929
 30
0.0
  0
INSERT
  5
F2
330
17
100
AcDbEntity
  8
0
100
AcDbBlockReference
  2
HEX
 10
127.375
 20
-102.929
 30
0.0
  0
LWPOLYLINE
  5
F4
330
17
100
AcDbEntity
  8
0
100
AcDbPolyline
 90
8
 70
1
 10
132.079
 20
-101.856
 10
132.156
 20
-102.727
 10
132.388
 20
-103.824
 10
130.907
 20
-104.679
 10
129.391
 20
-103.804
 10
129.391
 20
-102.054
 10
130.907
 20
-101.179
 10
132.079
 20
-101.856
  0
LWPOLYLINE
  5
F5
330
17
100
AcDbEntity
  8
0
100
AcDbPolyline
 90
14
 70
1
 10
104.985
 20
-98.446
 10
104.711
 20
-98.617
 10
104.5
 20
-98.786
 10
104.299
 20
-98.984
 10
104.108
 20
-99.212
 10
103.928
 20
-99.471
 10
103.763
 20
-99.764
 10
103.611
 20
-100.093
 10
103.476
 20
-100.458
 10
103.359
 20
-100.862
 10
102.908
 20
-99.166
 10
102.908
 20
-98.996
 10
104.423
 20
-98.121
 10
104.985
 20
-98.446
  0
LWPOLYLINE
  5
F6
330
17
100
AcDbEntity
  8
0
100
AcDbPolyline
 90
7
 70
1
 10
108.891
 20
-98.698
 10
108.701
 20
-98.605
 10
108.189
 20
-98.4
 10
107.707
 20
-98.264
 10
107.955
 20
-98.121
 10
108.86
 20
-98.644
 10
108.891
 20
-98.698
  0
LWPOLYLINE
  5
F7
330
17
100
AcDbEntity
  8
0
100
AcDbPolyline
 90
9
 70
1
 10
114.677
 20
-100.546
 10
114.77
 20
-99.291
 10
114.895
 20
-98.611
 10
115.029
 20
-98.128
 10
116.532
 20
-98.996
 10
116.532
 20
-100.746
 10
115.017
 20
-101.621
 10
114.714
 20
-101.446
 10
114.677
 20
-100.546
  0
INSERT
  5
F8
330
17
100
AcDbEntity
  8
0
100
AcDbBlockReference
  2
HEX
 10
118.548
 20
-99.871
 30
0.0
  0
INSERT
  5
FA
330
17
100
AcDbEntity
  8
0
100
AcDbBlockReference
  2
HEX
 10
122.079
 20
-99.871
 30
0.0
  0
INSERT
  5
FC
330
17
100
AcDbEntity
  8
0
100
AcDbBlockReference
  2
HEX
 10
125.61
 20
-99.871
 30
0.0
  0
INSERT
  5
FE
330
17
100
AcDbEntity
  8
0
100
AcDbBlockReference
  2
HEX
 10
129.141
 20
-99.871
 30
0.0
  0
LWPOLYLINE
  5
100
330
17
100
AcDbEntity
  8
0
100
AcDbPolyline
 90
8
 70
1
 10
132.471
 20
-98.654
 10
132.173
 20
-99.957
 10
132.094
 20
-100.628
 10
132.065
 20
-101.271
 10
131.157
 20
-100.746
 10
131.157
 20
-98.996
 10
132.67
 20
-98.122
 10
132.471
 20
-98.654
  0
LWPOLYLINE
  5
101
330
17
100
AcDbEntity
  8
0
100
AcDbPolyline
 90
6
 70
1
 10
101.929
 20
-95.484
 10
102.658
 20
-95.063
 10
104.173
 20
-95.938
 10
104.173
 20
-97.688
 10
102.736
 20
-98.518
 10
101.929
 20
-95.484
  0
LWPOLYLINE
  5
102
330
17
100
AcDbEntity
  8
0
100
AcDbPolyline
 90
12
 70
1
 10
107.705
 20
-96.211
 10
107.705
 20
-97.688
 10
106.966
 20
-98.114
 10
106.559
 20
-98.085
 10
106.089
 20
-98.104
 10
105.853
 20
-98.138
 10
105.57
 20
-98.206
 10
104.673
 20
-97.688
 10
104.673
 20
-95.938
 10
106.189
 20
-95.063
 10
107.586
 20
-95.87
 10
107.705
 20
-96.211
  0
LWPOLYLINE
  5
103
330
17
100
AcDbEntity
  8
0
100
AcDbPolyline
 90
4
 70
1
 10
108.359
 20
-97.777
 10
108.205
 20
-97.688
 10
108.205
 20
-97.511
 10
108.359
 20
-97.777
  0
LWPOLYLINE
  5
104
330
17
100
AcDbEntity
  8
0
100
AcDbPolyline
 90
8
 70
1
 10
116.012
 20
-95.508
 10
116.782
 20
-95.063
 10
118.298
 20
-95.938
 10
118.298
 20
-97.688
 10
116.782
 20
-98.563
 10
115.267
 20
-97.688
 10
115.267
 20
-97.443
 10
116.012
 20
-95.508
  0
INSERT
  5
105
330
17
100
AcDbEntity
  8
0
100
AcDbBlockReference
  2
HEX
 10
120.313
 20
-96.813
 30
0.0
  0
INSERT
  5
107
330
17
100
AcDbEntity
  8
0
100
AcDbBlockReference
  2
HEX
 10
123.844
 20
-96.813
 30
0.0
  0
INSERT
  5
109
330
17
100
AcDbEntity
  8
0
100
AcDbBlockReference
  2
HEX
 10
127.375
 20
-96.813
 30
0.0
  0
INSERT
  5
10B
330
17
100
AcDbEntity
  8
0
100
AcDbBlockReference
  2
HEX
 10
130.907
 20
-96.813
 30
0.0
  0
LWPOLYLINE
  5
10D
330
17
100
AcDbEntity
  8
0
100
AcDbPolyline
 90
6
 70
1
 10
133.567
 20
-96.19
 10
132.941
 20
-97.4
 10
132.922
 20
-97.449
 10
132.922
 20
-95.938
 10
134.26
 20
-95.166
 10
133.567
 20
-96.19
  0
LWPOLYLINE
  5
10E
330
17
100
AcDbEntity
  8
0
100
AcDbPolyline
 90
9
 70
1
 10
101.796
 20
-94.984
 10
101.562
 20
-94.391
 10
101.137
 20
-93.568
 10
100.481
 20
-92.606
 10
100.273
 20
-92.363
 10
100.892
 20
-92.005
 10
102.408
 20
-92.88
 10
102.408
 20
-94.63
 10
101.796
 20
-94.984
  0
INSERT
  5
10F
330
17
100
AcDbEntity
  8
0
100
AcDbBlockReference
  2
HEX
 10
104.423
 20
-93.755
 30
0.0
  0
LWPOLYLINE
  5
111
330
17
100
AcDbEntity
  8
0
100
AcDbPolyline
 90
6
 70
1
 10
107.179
 20
-94.7
 10
107.335
 20
-95.147
 10
106.439
 20
-94.63
 10
106.439
 20
-92.88
 10
106.717
 20
-92.72
 10
107.179
 20
-94.7
  0
LWPOLYLINE
  5
112
330
17
100
AcDbEntity
  8
0
100
AcDbPolyline
 90
4
 70
1
 10
116.532
 20
-94.157
 10
116.532
 20
-94.63
 10
116.298
 20
-94.766
 10
116.532
 20
-94.157
  0
INSERT
  5
113
330
17
100
AcDbEntity
  8
0
100
AcDbBlockReference
  2
HEX
 10
118.548
 20
-93.755
 30
0.0
  0
INSERT
  5
115
330
17
100
AcDbEntity
  8
0
100
AcDbBlockReference
  2
HEX
 10
122.079
 20
-93.755
 30
0.0
  0
INSERT
  5
117
330
17
100
AcDbEntity
  8
0
100
AcDbBlockReference
  2
HEX
 10
125.61
 20
-93.755
 30
0.0
  0
INSERT
  5
119
330
17
100
AcDbEntity
  8
0
100
AcDbBlockReference
  2
HEX
 10
129.141
 20
-93.755
 30
0.0
  0
INSERT
  5
11B
330
17
100
AcDbEntity
  8
0
100
AcDbBlockReference
  2
HEX
 10
132.672
 20
-93.755
 30
0.0
  0
LWPOLYLINE
  5
11D
330
17
100
AcDbEntity
  8
0
100
AcDbPolyline
 90
5
 70
1
 10
134.688
 20
-94.549
 10
134.688
 20
-92.88
 10
136.203
 20
-92.005
 10
136.711
 20
-92.299
 10
134.688
 20
-94.549
  0
LWPOLYLINE
  5
11E
330
17
100
AcDbEntity
  8
0
100
AcDbPolyline
 90
4
 70
1
 10
66.078
 20
-89.68
 10
67.347
 20
-88.947
 10
68.616
 20
-89.68
 10
66.078
 20
-89.68
  0
LWPOLYLINE
  5
11F
330
17
100
AcDbEntity
  8
0
100
AcDbPolyline
 90
4
 70
1
 10
69.609
 20
-89.68
 10
70.878
 20
-88.947
 10
72.147
 20
-89.68
 10
69.609
 20
-89.68
  0
LWPOLYLINE
  5
120
330
17
100
AcDbEntity
  8
0
100
AcDbPolyline
 90
4
 70
1
 10
73.14
 20
-89.68
 10
74.409
 20
-88.947
 10
75.678
 20
-89.68
 10
73.14
 20
-89.68
  0
LWPOLYLINE
  5
121
330
17
100
AcDbEntity
  8
0
100
AcDbPolyline
 90
4
 70
1
 10
76.671
 20
-89.68
 10
77.94
 20
-88.947
 10
79.209
 20
-89.68
 10
76.671
 20
-89.68
  0
LWPOLYLINE
  5
122
330
17
100
AcDbEntity
  8
0
100
AcDbPolyline
 90
4
 70
1
 10
80.203
 20
-89.68
 10
81.471
 20
-88.947
 10
82.74
 20
-89.68
 10
80.203
 20
-89.68
  0
LWPOLYLINE
  5
123
330
17
100
AcDbEntity
  8
0
100
AcDbPolyline
 90
4
 70
1
 10
83.734
 20
-89.68
 10
85.002
 20
-88.947
 10
86.271
 20
-89.68
 10
83.734
 20
-89.68
  0
LWPOLYLINE
  5
124
330
17
100
AcDbEntity
  8
0
100
AcDbPolyline
 90
4
 70
1
 10
87.265
 20
-89.68
 10
88.534
 20
-88.947
 10
89.802
 20
-89.68
 10
87.265
 20
-89.68
  0
LWPOLYLINE
  5
125
330
17
100
AcDbEntity
  8
0
100
AcDbPolyline
 90
4
 70
1
 10
90.963
 20
-89.68
 10
90.796
 20
-89.68
 10
90.874
 20
-89.634
 10
90.963
 20
-89.68
  0
LWPOLYLINE
  5
126
330
17
100
AcDbEntity
  8
0
100
AcDbPolyline
 90
8
 70
1
 10
96.767
 20
-89.987
 10
95.846
 20
-89.734
 10
94.828
 20
-89.57
 10
94.658
 20
-89.488
 10
95.596
 20
-88.947
 10
97.111
 20
-89.822
 10
97.111
 20
-90.124
 10
96.767
 20
-89.987
  0
LWPOLYLINE
  5
127
330
17
100
AcDbEntity
  8
0
100
AcDbPolyline
 90
10
 70
1
 10
99.558
 20
-91.615
 10
98.985
 20
-91.143
 10
98.331
 20
-90.705
 10
97.611
 20
-90.325
 10
97.611
 20
-89.822
 10
99.127
 20
-88.947
 10
100.642
 20
-89.822
 10
100.642
 20
-91.572
 10
99.93
 20
-91.983
 10
99.558
 20
-91.615
  0
INSERT
  5
128
330
17
100
AcDbEntity
  8
0
100
AcDbBlockReference
  2
HEX
 10
102.658
 20
-90.697
 30
0.0
  0
LWPOLYLINE
  5
12A
330
17
100
AcDbEntity
  8
0
100
AcDbPolyline
 90
8
 70
1
 10
106.366
 20
-90.294
 10
106.612
 20
-92.203
 10
106.189
 20
-92.447
 10
104.673
 20
-91.572
 10
104.673
 20
-89.822
 10
106.189
 20
-88.947
 10
106.327
 20
-89.027
 10
106.366
 20
-90.294
  0
LWPOLYLINE
  5
12B
330
17
100
AcDbEntity
  8
0
100
AcDbPolyline
 90
5
 70
1
 10
117.273
 20
-89.231
 10
118.298
 20
-89.822
 10
118.298
 20
-91.572
 10
116.949
 20
-92.351
 10
117.273
 20
-89.231
  0
INSERT
  5
12C
330
17
100
AcDbEntity
  8
0
100
AcDbBlockReference
  2
HEX
 10
120.313
 20
-90.697
 30
0.0
  0
INSERT
  5
12E
330
17
100
AcDbEntity
  8
0
100
AcDbBlockReference
  2
HEX
 10
123.844
 20
-90.697
 30
0.0
  0
INSERT
  5
130
330
17
100
AcDbEntity
  8
0
100
AcDbBlockReference
  2
HEX
 10
127.375
 20
-90.697
 30
0.0
  0
INSERT
  5
132
330
17
100
AcDbEntity
  8
0
100
AcDbBlockReference
  2
HEX
 10
130.907
 20
-90.697
 30
0.0
  0
INSERT
  5
134
330
17
100
AcDbEntity
  8
0
100
AcDbBlockReference
  2
HEX
 10
134.438
 20
-90.697
 30
0.0
  0
LWPOLYLINE
  5
136
330
17
100
AcDbEntity
  8
0
100
AcDbPolyline
 90
13
 70
1
 10
137.96
 20
-89.508
 10
137.946
 20
-90.062
 10
137.91
 20
-90.331
 10
137.854
 20
-90.593
 10
137.776
 20
-90.846
 10
137.674
 20
-91.089
 10
137.548
 20
-91.319
 10
137.396
 20
-91.537
 10
137.053
 20
-91.918
 10
136.453
 20
-91.572
 10
136.453
 20
-89.822
 10
137.911
 20
-88.981
 10
137.96
 20
-89.508
  0
LWPOLYLINE
  5
137
330
17
100
AcDbEntity
  8
0
100
AcDbPolyline
 90
11
 70
1
 10
63.363
 20
-88.254
 10
62.706
 20
-87.902
 10
62.361
 20
-87.754
 10
62.007
 20
-87.634
 10
61.649
 20
-87.546
 10
60.535
 20
-87.44
 10
61.179
 20
-87.496
 10
63.003
 20
-86.439
 10
63.566
 20
-86.764
 10
63.566
 20
-88.389
 10
63.363
 20
-88.254
  0
INSERT
  5
138
330
17
100
AcDbEntity
  8
0
100
AcDbBlockReference
  2
HEX
 10
65.581
 20
-87.639
 30
0.0
  0
INSERT
  5
13A
330
17
100
AcDbEntity
  8
0
100
AcDbBlockReference
  2
HEX
 10
69.113
 20
-87.639
 30
0.0
  0
INSERT
  5
13C
330
17
100
AcDbEntity
  8
0
100
AcDbBlockReference
  2
HEX
 10
72.644
 20
-87.639
 30
0.0
  0
INSERT
  5
13E
330
17
100
AcDbEntity
  8
0
100
AcDbBlockReference
  2
HEX
 10
76.175
 20
-87.639
 30
0.0
  0
INSERT
  5
140
330
17
100
AcDbEntity
  8
0
100
AcDbBlockReference
  2
HEX
 10
79.706
 20
-87.639
 30
0.0
  0
INSERT
  5
142
330
17
100
AcDbEntity
  8
0
100
AcDbBlockReference
  2
HEX
 10
83.237
 20
-87.639
 30
0.0
  0
LWPOLYLINE
  5
144
330
17
100
AcDbEntity
  8
0
100
AcDbPolyline
 90
17
 70
1
 10
87.217
 20
-86.367
 10
87.218
 20
-86.621
 10
87.249
 20
-86.872
 10
87.31
 20
-87.118
 10
87.4
 20
-87.356
 10
87.52
 20
-87.584
 10
87.668
 20
-87.797
 10
87.846
 20
-87.993
 10
88.052
 20
-88.169
 10
88.284
 20
-88.319
 10
88.284
 20
-88.514
 10
86.768
 20
-89.389
 10
85.252
 20
-88.514
 10
85.252
 20
-86.764
 10
86.768
 20
-85.889
 10
87.241
 20
-86.162
 10
87.217
 20
-86.367
  0
LWPOLYLINE
  5
145
330
17
100
AcDbEntity
  8
0
100
AcDbPolyline
 90
4
 70
1
 10
90.342
 20
-89.364
 10
90.299
 20
-89.389
 10
89.633
 20
-89.005
 10
90.342
 20
-89.364
  0
LWPOLYLINE
  5
146
330
17
100
AcDbEntity
  8
0
100
AcDbPolyline
 90
7
 70
1
 10
93.713
 20
-89.032
 10
93.017
 20
-86.359
 10
93.83
 20
-85.889
 10
95.346
 20
-86.764
 10
95.346
 20
-88.514
 10
94.114
 20
-89.225
 10
93.713
 20
-89.032
  0
INSERT
  5
147
330
17
100
AcDbEntity
  8
0
100
AcDbBlockReference
  2
HEX
 10
97.361
 20
-87.639
 30
0.0
  0
INSERT
  5
149
330
17
100
AcDbEntity
  8
0
100
AcDbBlockReference
  2
HEX
 10
100.892
 20
-87.639
 30
0.0
  0
INSERT
  5
14B
330
17
100
AcDbEntity
  8
0
100
AcDbBlockReference
  2
HEX
 10
104.423
 20
-87.639
 30
0.0
  0
LWPOLYLINE
  5
14D
330
17
100
AcDbEntity
  8
0
100
AcDbPolyline
 90
13
 70
1
 10
117.433
 20
-88.381
 10
117.654
 20
-87.698
 10
117.799
 20
-87.381
 10
117.985
 20
-87.049
 10
118.188
 20
-86.743
 10
118.406
 20
-86.463
 10
118.639
 20
-86.206
 10
118.812
 20
-86.042
 10
120.063
 20
-86.764
 10
120.063
 20
-88.514
 10
118.548
 20
-89.389
 10
117.367
 20
-88.707
 10
117.433
 20
-88.381
  0
INSERT
  5
14E
330
17
100
AcDbEntity
  8
0
100
AcDbBlockReference
  2
HEX
 10
122.079
 20
-87.639
 30
0.0
  0
INSERT
  5
150
330
17
100
AcDbEntity
  8
0
100
AcDbBlockReference
  2
HEX
 10
125.61
 20
-87.639
 30
0.0
  0
INSERT
  5
152
330
17
100
AcDbEntity
  8
0
100
AcDbBlockReference
  2
HEX
 10
129.141
 20
-87.639
 30
0.0
  0
INSERT
  5
154
330
17
100
AcDbEntity
  8
0
100
AcDbBlockReference
  2
HEX
 10
132.672
 20
-87.639
 30
0.0
  0
LWPOLYLINE
  5
156
330
17
100
AcDbEntity
  8
0
100
AcDbPolyline
 90
13
 70
1
 10
136.442
 20
-86.068
 10
136.716
 20
-86.299
 10
136.965
 20
-86.564
 10
137.188
 20
-86.865
 10
137.384
 20
-87.204
 10
137.549
 20
-87.583
 10
137.719
 20
-88.132
 10
137.719
 20
-88.514
 10
136.203
 20
-89.389
 10
134.688
 20
-88.514
 10
134.688
 20
-86.764
 10
136.189
 20
-85.897
 10
136.442
 20
-86.068
  0
LWPOLYLINE
  5
157
330
17
100
AcDbEntity
  8
0
100
AcDbPolyline
 90
6
 70
1
 10
33.552
 20
-83.992
 10
30.521
 20
-83.971
 10
30.521
 20
-83.706
 10
32.036
 20
-82.831
 10
33.552
 20
-83.706
 10
33.552
 20
-83.992
  0
LWPOLYLINE
  5
158
330
17
100
AcDbEntity
  8
0
100
AcDbPolyline
 90
6
 70
1
 10
34.052
 20
-83.994
 10
34.052
 20
-83.706
 10
35.567
 20
-82.831
 10
37.083
 20
-83.706
 10
37.083
 20
-84.006
 10
34.052
 20
-83.994
  0
LWPOLYLINE
  5
159
330
17
100
AcDbEntity
  8
0
100
AcDbPolyline
 90
6
 70
1
 10
37.583
 20
-84.008
 10
37.583
 20
-83.706
 10
39.098
 20
-82.831
 10
40.614
 20
-83.706
 10
40.614
 20
-84.02
 10
37.583
 20
-84.008
  0
LWPOLYLINE
  5
15A
330
17
100
AcDbEntity
  8
0
100
AcDbPolyline
 90
6
 70
1
 10
41.114
 20
-84.022
 10
41.114
 20
-83.706
 10
42.629
 20
-82.831
 10
44.145
 20
-83.706
 10
44.145
 20
-84.035
 10
41.114
 20
-84.022
  0
LWPOLYLINE
  5
15B
330
17
100
AcDbEntity
  8
0
100
AcDbPolyline
 90
6
 70
1
 10
44.645
 20
-84.037
 10
44.645
 20
-83.706
 10
46.16
 20
-82.831
 10
47.676
 20
-83.706
 10
47.676
 20
-84.049
 10
44.645
 20
-84.037
  0
LWPOLYLINE
  5
15C
330
17
100
AcDbEntity
  8
0
100
AcDbPolyline
 90
6
 70
1
 10
48.176
 20
-84.051
 10
48.176
 20
-83.706
 10
49.692
 20
-82.831
 10
51.207
 20
-83.706
 10
51.207
 20
-84.063
 10
48.176
 20
-84.051
  0
LWPOLYLINE
  5
15D
330
17
100
AcDbEntity
  8
0
100
AcDbPolyline
 90
6
 70
1
 10
51.707
 20
-84.065
 10
51.707
 20
-83.706
 10
53.223
 20
-82.831
 10
54.738
 20
-83.706
 10
54.738
 20
-84.078
 10
51.707
 20
-84.065
  0
LWPOLYLINE
  5
15E
330
17
100
AcDbEntity
  8
0
100
AcDbPolyline
 90
7
 70
1
 10
57.183
 20
-84.087
 10
55.238
 20
-84.08
 10
55.238
 20
-83.706
 10
56.754
 20
-82.831
 10
58.269
 20
-83.706
 10
58.269
 20
-84.201
 10
57.183
 20
-84.087
  0
LWPOLYLINE
  5
15F
330
17
100
AcDbEntity
  8
0
100
AcDbPolyline
 90
7
 70
1
 10
61.252
 20
-84.511
 10
58.769
 20
-84.253
 10
58.769
 20
-83.706
 10
60.285
 20
-82.831
 10
61.8
 20
-83.706
 10
61.8
 20
-84.638
 10
61.252
 20
-84.511
  0
LWPOLYLINE
  5
160
330
17
100
AcDbEntity
  8
0
100
AcDbPolyline
 90
10
 70
1
 10
63.516
 20
-86.142
 10
63.494
 20
-85.029
 10
62.3
 20
-84.753
 10
62.3
 20
-83.706
 10
63.816
 20
-82.831
 10
65.331
 20
-83.706
 10
65.331
 20
-85.456
 10
63.816
 20
-86.331
 10
63.502
 20
-86.15
 10
63.516
 20
-86.142
  0
INSERT
  5
161
330
17
100
AcDbEntity
  8
0
100
AcDbBlockReference
  2
HEX
 10
67.347
 20
-84.581
 30
0.0
  0
LWPOLYLINE
  5
163
330
17
100
AcDbEntity
  8
0
100
AcDbPolyline
 90
17
 70
1
 10
71.071
 20
-83.342
 10
71.201
 20
-83.568
 10
71.279
 20
-83.671
 10
71.458
 20
-83.857
 10
71.662
 20
-84.012
 10
71.889
 20
-84.132
 10
72.01
 20
-84.179
 10
72.264
 20
-84.242
 10
72.394
 20
-84.258
 10
72.394
 20
-85.456
 10
70.878
 20
-86.331
 10
69.363
 20
-85.456
 10
69.363
 20
-83.706
 10
70.878
 20
-82.831
 10
70.913
 20
-82.851
 10
71.019
 20
-83.22
 10
71.071
 20
-83.342
  0
LWPOLYLINE
  5
164
330
17
100
AcDbEntity
  8
0
100
AcDbPolyline
 90
6
 70
1
 10
75.925
 20
-84.283
 10
75.925
 20
-85.456
 10
74.409
 20
-86.331
 10
72.894
 20
-85.456
 10
72.894
 20
-84.262
 10
75.925
 20
-84.283
  0
LWPOLYLINE
  5
165
330
17
100
AcDbEntity
  8
0
100
AcDbPolyline
 90
6
 70
1
 10
79.456
 20
-84.308
 10
79.456
 20
-85.456
 10
77.94
 20
-86.331
 10
76.425
 20
-85.456
 10
76.425
 20
-84.287
 10
79.456
 20
-84.308
  0
LWPOLYLINE
  5
166
330
17
100
AcDbEntity
  8
0
100
AcDbPolyline
 90
6
 70
1
 10
82.987
 20
-84.333
 10
82.987
 20
-85.456
 10
81.471
 20
-86.331
 10
79.956
 20
-85.456
 10
79.956
 20
-84.311
 10
82.987
 20
-84.333
  0
LWPOLYLINE
  5
167
330
17
100
AcDbEntity
  8
0
100
AcDbPolyline
 90
6
 70
1
 10
86.518
 20
-84.357
 10
86.518
 20
-85.456
 10
85.002
 20
-86.331
 10
83.487
 20
-85.456
 10
83.487
 20
-84.336
 10
86.518
 20
-84.357
  0
LWPOLYLINE
  5
168
330
17
100
AcDbEntity
  8
0
100
AcDbPolyline
 90
9
 70
1
 10
88.845
 20
-84.373
 10
88.063
 20
-84.798
 10
87.85
 20
-84.979
 10
87.667
 20
-85.18
 10
87.516
 20
-85.397
 10
87.381
 20
-85.666
 10
87.018
 20
-85.456
 10
87.018
 20
-84.361
 10
88.845
 20
-84.373
  0
LWPOLYLINE
  5
169
330
17
100
AcDbEntity
  8
0
100
AcDbPolyline
 90
5
 70
1
 10
92.104
 20
-82.854
 10
93.58
 20
-83.706
 10
93.58
 20
-85.456
 10
92.886
 20
-85.857
 10
92.104
 20
-82.854
  0
INSERT
  5
16A
330
17
100
AcDbEntity
  8
0
100
AcDbBlockReference
  2
HEX
 10
95.596
 20
-84.581
 30
0.0
  0
INSERT
  5
16C
330
17
100
AcDbEntity
  8
0
100
AcDbBlockReference
  2
HEX
 10
99.127
 20
-84.581
 30
0.0
  0
INSERT
  5
16E
330
17
100
AcDbEntity
  8
0
100
AcDbBlockReference
  2
HEX
 10
102.658
 20
-84.581
 30
0.0
  0
LWPOLYLINE
  5
170
330
17
100
AcDbEntity
  8
0
100
AcDbPolyline
 90
13
 70
1
 10
105.022
 20
-84.067
 10
105.074
 20
-84.266
 10
105.211
 20
-84.537
 10
105.337
 20
-84.694
 10
105.571
 20
-84.887
 10
105.852
 20
-85.018
 10
106.751
 20
-85.225
 10
106.539
 20
-86.129
 10
106.189
 20
-86.331
 10
104.673
 20
-85.456
 10
104.673
 20
-83.706
 10
104.986
 20
-83.526
 10
105.022
 20
-84.067
  0
LWPOLYLINE
  5
171
330
17
100
AcDbEntity
  8
0
100
AcDbPolyline
 90
10
 70
1
 10
119.705
 20
-85.396
 10
120.098
 20
-85.209
 10
120.509
 20
-85.072
 10
120.935
 20
-84.986
 10
121.369
 20
-84.947
 10
121.829
 20
-84.956
 10
121.829
 20
-85.456
 10
120.313
 20
-86.331
 10
119.23
 20
-85.706
 10
119.705
 20
-85.396
  0
LWPOLYLINE
  5
172
330
17
100
AcDbEntity
  8
0
100
AcDbPolyline
 90
6
 70
1
 10
125.36
 20
-85.027
 10
125.36
 20
-85.456
 10
123.844
 20
-86.331
 10
122.329
 20
-85.456
 10
122.329
 20
-84.966
 10
125.36
 20
-85.027
  0
LWPOLYLINE
  5
173
330
17
100
AcDbEntity
  8
0
100
AcDbPolyline
 90
6
 70
1
 10
128.891
 20
-85.098
 10
128.891
 20
-85.456
 10
127.375
 20
-86.331
 10
125.86
 20
-85.456
 10
125.86
 20
-85.037
 10
128.891
 20
-85.098
  0
LWPOLYLINE
  5
174
330
17
100
AcDbEntity
  8
0
100
AcDbPolyline
 90
6
 70
1
 10
132.422
 20
-85.169
 10
132.422
 20
-85.456
 10
130.907
 20
-86.331
 10
129.391
 20
-85.456
 10
129.391
 20
-85.108
 10
132.422
 20
-85.169
  0
LWPOLYLINE
  5
175
330
17
100
AcDbEntity
  8
0
100
AcDbPolyline
 90
8
 70
1
 10
133.997
 20
-85.2
 10
134.772
 20
-85.336
 10
135.492
 20
-85.553
 10
135.661
 20
-85.625
 10
134.438
 20
-86.331
 10
132.922
 20
-85.456
 10
132.922
 20
-85.179
 10
133.997
 20
-85.2
  0
LWPOLYLINE
  5
176
330
17
100
AcDbEntity
  8
0
100
AcDbPolyline
 90
7
 70
1
 10
30.24
 20
-79.791
 10
30.271
 20
-79.773
 10
31.786
 20
-80.648
 10
31.786
 20
-82.398
 10
30.271
 20
-83.273
 10
30.239
 20
-83.255
 10
30.24
 20
-79.791
  0
INSERT
  5
177
330
17
100
AcDbEntity
  8
0
100
AcDbBlockReference
  2
HEX
 10
33.802
 20
-81.523
 30
0.0
  0
INSERT
  5
179
330
17
100
AcDbEntity
  8
0
100
AcDbBlockReference
  2
HEX
 10
37.333
 20
-81.523
 30
0.0
  0
INSERT
  5
17B
330
17
100
AcDbEntity
  8
0
100
AcDbBlockReference
  2
HEX
 10
40.864
 20
-81.523
 30
0.0
  0
INSERT
  5
17D
330
17
100
AcDbEntity
  8
0
100
AcDbBlockReference
  2
HEX
 10
44.395
 20
-81.523
 30
0.0
  0
INSERT
  5
17F
330
17
100
AcDbEntity
  8
0
100
AcDbBlockReference
  2
HEX
 10
47.926
 20
-81.523
 30
0.0
  0
INSERT
  5
181
330
17
100
AcDbEntity
  8
0
100
AcDbBlockReference
  2
HEX
 10
51.457
 20
-81.523
 30
0.0
  0
INSERT
  5
183
330
17
100
AcDbEntity
  8
0
100
AcDbBlockReference
  2
HEX
 10
54.988
 20
-81.523
 30
0.0
  0
INSERT
  5
185
330
17
100
AcDbEntity
  8
0
100
AcDbBlockReference
  2
HEX
 10
58.519
 20
-81.523
 30
0.0
  0
INSERT
  5
187
330
17
100
AcDbEntity
  8
0
100
AcDbBlockReference
  2
HEX
 10
62.05
 20
-81.523
 30
0.0
  0
INSERT
  5
189
330
17
100
AcDbEntity
  8
0
100
AcDbBlockReference
  2
HEX
 10
65.581
 20
-81.523
 30
0.0
  0
LWPOLYLINE
  5
18B
330
17
100
AcDbEntity
  8
0
100
AcDbPolyline
 90
8
 70
1
 10
70.628
 20
-81.857
 10
70.628
 20
-82.398
 10
69.113
 20
-83.273
 10
67.597
 20
-82.398
 10
67.597
 20
-80.648
 10
69.113
 20
-79.773
 10
70.213
 20
-80.408
 10
70.628
 20
-81.857
  0
LWPOLYLINE
  5
18C
330
17
100
AcDbEntity
  8
0
100
AcDbPolyline
 90
4
 70
1
 10
91.48
 20
-80.455
 10
91.815
 20
-80.648
 10
91.815
 20
-81.741
 10
91.48
 20
-80.455
  0
INSERT
  5
18D
330
17
100
AcDbEntity
  8
0
100
AcDbBlockReference
  2
HEX
 10
93.83
 20
-81.523
 30
0.0
  0
LWPOLYLINE
  5
18F
330
17
100
AcDbEntity
  8
0
100
AcDbPolyline
 90
13
 70
1
 10
96.825
 20
-80.091
 10
96.962
 20
-80.232
 10
97.119
 20
-80.351
 10
97.292
 20
-80.445
 10
97.479
 20
-80.512
 10
97.676
 20
-80.549
 10
98.761
 20
-80.581
 10
98.877
 20
-80.648
 10
98.877
 20
-82.398
 10
97.361
 20
-83.273
 10
95.846
 20
-82.398
 10
95.846
 20
-80.648
 10
96.825
 20
-80.091
  0
LWPOLYLINE
  5
190
330
17
100
AcDbEntity
  8
0
100
AcDbPolyline
 90
7
 70
1
 10
102.408
 20
-80.688
 10
102.408
 20
-82.398
 10
100.892
 20
-83.273
 10
99.377
 20
-82.398
 10
99.377
 20
-80.648
 10
99.457
 20
-80.602
 10
102.408
 20
-80.688
  0
LWPOLYLINE
  5
191
330
17
100
AcDbEntity
  8
0
100
AcDbPolyline
 90
9
 70
1
 10
102.952
 20
-80.704
 10
103.034
 20
-80.575
 10
104.423
 20
-79.773
 10
104.752
 20
-79.963
 10
104.95
 20
-82.969
 10
104.423
 20
-83.273
 10
102.908
 20
-82.398
 10
102.908
 20
-80.703
 10
102.952
 20
-80.704
  0
LWPOLYLINE
  5
192
330
17
100
AcDbEntity
  8
0
100
AcDbPolyline
 90
8
 70
1
 10
32.372
 20
-76.909
 10
33.552
 20
-77.59
 10
33.552
 20
-79.34
 10
32.036
 20
-80.215
 10
30.521
 20
-79.34
 10
30.521
 20
-77.59
 10
31.7
 20
-76.909
 10
32.372
 20
-76.909
  0
LWPOLYLINE
  5
193
330
17
100
AcDbEntity
  8
0
100
AcDbPolyline
 90
8
 70
1
 10
35.903
 20
-76.909
 10
37.083
 20
-77.59
 10
37.083
 20
-79.34
 10
35.567
 20
-80.215
 10
34.052
 20
-79.34
 10
34.052
 20
-77.59
 10
35.232
 20
-76.909
 10
35.903
 20
-76.909
  0
LWPOLYLINE
  5
194
330
17
100
AcDbEntity
  8
0
100
AcDbPolyline
 90
8
 70
1
 10
39.433
 20
-76.909
 10
40.614
 20
-77.59
 10
40.614
 20
-79.34
 10
39.098
 20
-80.215
 10
37.583
 20
-79.34
 10
37.583
 20
-77.59
 10
38.763
 20
-76.909
 10
39.433
 20
-76.909
  0
LWPOLYLINE
  5
195
330
17
100
AcDbEntity
  8
0
100
AcDbPolyline
 90
8
 70
1
 10
42.964
 20
-76.908
 10
44.145
 20
-77.59
 10
44.145
 20
-79.34
 10
42.629
 20
-80.215
 10
41.114
 20
-79.34
 10
41.114
 20
-77.59
 10
42.295
 20
-76.908
 10
42.964
 20
-76.908
  0
LWPOLYLINE
  5
196
330
17
100
AcDbEntity
  8
0
100
AcDbPolyline
 90
8
 70
1
 10
46.495
 20
-76.908
 10
47.676
 20
-77.59
 10
47.676
 20
-79.34
 10
46.16
 20
-80.215
 10
44.645
 20
-79.34
 10
44.645
 20
-77.59
 10
45.826
 20
-76.908
 10
46.495
 20
-76.908
  0
LWPOLYLINE
  5
197
330
17
100
AcDbEntity
  8
0
100
AcDbPolyline
 90
8
 70
1
 10
50.025
 20
-76.908
 10
51.207
 20
-77.59
 10
51.207
 20
-79.34
 10
49.692
 20
-80.215
 10
48.176
 20
-79.34
 10
48.176
 20
-77.59
 10
49.358
 20
-76.908
 10
50.025
 20
-76.908
  0
LWPOLYLINE
  5
198
330
17
100
AcDbEntity
  8
0
100
AcDbPolyline
 90
8
 70
1
 10
53.556
 20
-76.908
 10
54.738
 20
-77.59
 10
54.738
 20
-79.34
 10
53.223
 20
-80.215
 10
51.707
 20
-79.34
 10
51.707
 20
-77.59
 10
52.889
 20
-76.908
 10
53.556
 20
-76.908
  0
LWPOLYLINE
  5
199
330
17
100
AcDbEntity
  8
0
100
AcDbPolyline
 90
8
 70
1
 10
57.087
 20
-76.907
 10
58.269
 20
-77.59
 10
58.269
 20
-79.34
 10
56.754
 20
-80.215
 10
55.238
 20
-79.34
 10
55.238
 20
-77.59
 10
56.421
 20
-76.908
 10
57.087
 20
-76.907
  0
LWPOLYLINE
  5
19A
330
17
100
AcDbEntity
  8
0
100
AcDbPolyline
 90
8
 70
1
 10
60.617
 20
-76.907
 10
61.8
 20
-77.59
 10
61.8
 20
-79.34
 10
60.285
 20
-80.215
 10
58.769
 20
-79.34
 10
58.769
 20
-77.59
 10
59.952
 20
-76.907
 10
60.617
 20
-76.907
  0
LWPOLYLINE
  5
19B
330
17
100
AcDbEntity
  8
0
100
AcDbPolyline
 90
8
 70
1
 10
64.148
 20
-76.907
 10
65.331
 20
-77.59
 10
65.331
 20
-79.34
 10
63.816
 20
-80.215
 10
62.3
 20
-79.34
 10
62.3
 20
-77.59
 10
63.484
 20
-76.907
 10
64.148
 20
-76.907
  0
LWPOLYLINE
  5
19C
330
17
100
AcDbEntity
  8
0
100
AcDbPolyline
 90
8
 70
1
 10
67.679
 20
-76.907
 10
68.863
 20
-77.59
 10
68.863
 20
-79.34
 10
67.347
 20
-80.215
 10
65.831
 20
-79.34
 10
65.831
 20
-77.59
 10
67.015
 20
-76.907
 10
67.679
 20
-76.907
  0
LWPOLYLINE
  5
19D
330
17
100
AcDbEntity
  8
0
100
AcDbPolyline
 90
5
 70
1
 10
70.1
 20
-79.766
 10
69.363
 20
-79.34
 10
69.363
 20
-77.59
 10
70.011
 20
-77.216
 10
70.1
 20
-79.766
  0
LWPOLYLINE
  5
19E
330
17
100
AcDbEntity
  8
0
100
AcDbPolyline
 90
7
 70
1
 10
90.71
 20
-77.497
 10
92.065
 20
-76.715
 10
93.58
 20
-77.59
 10
93.58
 20
-79.34
 10
92.065
 20
-80.215
 10
91.303
 20
-79.775
 10
90.71
 20
-77.497
  0
LWPOLYLINE
  5
19F
330
17
100
AcDbEntity
  8
0
100
AcDbPolyline
 90
7
 70
1
 10
96.589
 20
-79.642
 10
95.596
 20
-80.215
 10
94.08
 20
-79.34
 10
94.08
 20
-77.59
 10
95.596
 20
-76.715
 10
95.701
 20
-76.776
 10
96.589
 20
-79.642
  0
LWPOLYLINE
  5
1A0
330
17
100
AcDbEntity
  8
0
100
AcDbPolyline
 90
6
 70
1
 10
30.321
 20
-77.123
 10
30.416
 20
-77.019
 10
30.494
 20
-76.966
 10
30.582
 20
-76.929
 10
30.7
 20
-76.909
 10
30.321
 20
-77.123
  0
LWPOLYLINE
  5
1A1
330
17
100
AcDbEntity
  8
0
100
AcDbPolyline
 90
4
 70
1
 10
34.232
 20
-76.909
 10
33.802
 20
-77.157
 10
33.372
 20
-76.909
 10
34.232
 20
-76.909
  0
LWPOLYLINE
  5
1A2
330
17
100
AcDbEntity
  8
0
100
AcDbPolyline
 90
4
 70
1
 10
37.763
 20
-76.909
 10
37.333
 20
-77.157
 10
36.902
 20
-76.909
 10
37.763
 20
-76.909
  0
LWPOLYLINE
  5
1A3
330
17
100
AcDbEntity
  8
0
100
AcDbPolyline
 90
4
 70
1
 10
41.295
 20
-76.908
 10
40.864
 20
-77.157
 10
40.433
 20
-76.909
 10
41.295
 20
-76.908
  0
LWPOLYLINE
  5
1A4
330
17
100
AcDbEntity
  8
0
100
AcDbPolyline
 90
4
 70
1
 10
44.826
 20
-76.908
 10
44.395
 20
-77.157
 10
43.964
 20
-76.908
 10
44.826
 20
-76.908
  0
LWPOLYLINE
  5
1A5
330
17
100
AcDbEntity
  8
0
100
AcDbPolyline
 90
4
 70
1
 10
48.358
 20
-76.908
 10
47.926
 20
-77.157
 10
47.495
 20
-76.908
 10
48.358
 20
-76.908
  0
LWPOLYLINE
  5
1A6
330
17
100
AcDbEntity
  8
0
100
AcDbPolyline
 90
4
 70
1
 10
51.889
 20
-76.908
 10
51.457
 20
-77.157
 10
51.025
 20
-76.908
 10
51.889
 20
-76.908
  0
LWPOLYLINE
  5
1A7
330
17
100
AcDbEntity
  8
0
100
AcDbPolyline
 90
4
 70
1
 10
55.42
 20
-76.908
 10
54.988
 20
-77.157
 10
54.556
 20
-76.908
 10
55.42
 20
-76.908
  0
LWPOLYLINE
  5
1A8
330
17
100
AcDbEntity
  8
0
100
AcDbPolyline
 90
4
 70
1
 10
58.952
 20
-76.907
 10
58.519
 20
-77.157
 10
58.087
 20
-76.907
 10
58.952
 20
-76.907
  0
LWPOLYLINE
  5
1A9
330
17
100
AcDbEntity
  8
0
100
AcDbPolyline
 90
4
 70
1
 10
62.483
 20
-76.907
 10
62.05
 20
-77.157
 10
61.617
 20
-76.907
 10
62.483
 20
-76.907
  0
LWPOLYLINE
  5
1AA
330
17
100
AcDbEntity
  8
0
100
AcDbPolyline
 90
4
 70
1
 10
66.015
 20
-76.907
 10
65.581
 20
-77.157
 10
65.148
 20
-76.907
 10
66.015
 20
-76.907
  0
LWPOLYLINE
  5
1AB
330
17
100
AcDbEntity
  8
0
100
AcDbPolyline
 90
4
 70
1
 10
69.546
 20
-76.907
 10
69.113
 20
-77.157
 10
68.679
 20
-76.907
 10
69.546
 20
-76.907
  0
LWPOLYLINE
  5
1AC
330
17
100
AcDbEntity
  8
0
100
AcDbPolyline
 90
4
 70
1
 10
90.579
 20
-76.995
 10
90.505
 20
-76.709
 10
91.076
 20
-76.709
 10
90.579
 20
-76.995
  0
LWPOLYLINE
  5
1AD
330
17
100
AcDbEntity
  8
0
100
AcDbPolyline
 90
4
 70
1
 10
94.607
 20
-76.709
 10
93.83
 20
-77.157
 10
93.053
 20
-76.709
 10
94.607
 20
-76.709
  0
ENDSEC
  0
SECTION
  2
OBJECTS
  0
DICTIONARY
  5
A
330
0
100
AcDbDictionary
281
1
  3
ACAD_COLOR
350
B
  3
ACAD_GROUP
350
C
  3
ACAD_LAYOUT
350
D
  3
ACAD_MATERIAL
350
E
  3
ACAD_MLEADERSTYLE
350
F
  3
ACAD_MLINESTYLE
350
10
  3
ACAD_PLOTSETTINGS
350
11
  3
ACAD_PLOTSTYLENAME
350
12
  3
ACAD_SCALELIST
350
14
  3
ACAD_TABLESTYLE
350
15
  3
ACAD_VISUALSTYLE
350
16
  3
EZDXF_META
350
2D
  0
DICTIONARY
  5
B
330
A
100
AcDbDictionary
281
1
  0
DICTIONARY
  5
C
330
A
100
AcDbDictionary
281
1
  0
DICTIONARY
  5
D
330
A
100
AcDbDictionary
281
1
  3
Model
350
1A
  3
Layout1
350
1E
  0
DICTIONARY
  5
E
330
A
100
AcDbDictionary
281
1
  3
ByBlock
350
1F
  3
ByLayer
350
20
  3
Global
350
21
  0
DICTIONARY
  5
F
330
A
100
AcDbDictionary
281
1
  3
Standard
350
2C
  0
DICTIONARY
  5
10
330
A
100
AcDbDictionary
281
1
  3
Standard
350
22
  0
DICTIONARY
  5
11
330
A
100
AcDbDictionary
281
1
  0
ACDBDICTIONARYWDFLT
  5
12
330
A
100
AcDbDictionary
281
1
  3
Normal
350
13
100
AcDbDictionaryWithDefault
340
13
  0
ACDBPLACEHOLDER
  5
13
330
12
  0
DICTIONARY
  5
14
330
A
100
AcDbDictionary
281
1
  0
DICTIONARY
  5
15
330
A
100
AcDbDictionary
281
1
  0
DICTIONARY
  5
16
330
A
100
AcDbDictionary
281
1
  0
LAYOUT
  5
1A
330
D
100
AcDbPlotSettings
  1

  4
A3
  6

 40
7.5
 41
20.0
 42
7.5
 43
20.0
 44
420.0
 45
297.0
 46
0.0
 47
0.0
 48
0.0
 49
0.0
140
0.0
141
0.0
142
1.0
143
1.0
 70
1024
 72
1
 73
0
 74
5
  7

 75
16
 76
0
 77
2
 78
300
147
1.0
148
0.0
149
0.0
100
AcDbLayout
  1
Model
 70
1
 71
0
 10
0.0
 20
0.0
 11
420.0
 21
297.0
 12
0.0
 22
0.0
 32
0.0
 14
1e+20
 24
1e+20
 34
1e+20
 15
-1e+20
 25
-1e+20
 35
-1e+20
146
0.0
 13
0.0
 23
0.0
 33
0.0
 16
1.0
 26
0.0
 36
0.0
 17
0.0
 27
1.0
 37
0.0
 76
1
330
17
  0
LAYOUT
  5
1E
330
D
100
AcDbPlotSettings
  1

  4
A3
  6

 40
7.5
 41
20.0
 42
7.5
 43
20.0
 44
420.0
 45
297.0
 46
0.0
 47
0.0
 48
0.0
 49
0.0
140
0.0
141
0.0
142
1.0
143
1.0
 70
0
 72
1
 73
0
 74
5
  7

 75
16
 76
0
 77
2
 78
300
147
1.0
148
0.0
149
0.0
100
AcDbLayout
  1
Layout1
 70
1
 71
1
 10
0.0
 20
0.0
 11
420.0
 21
297.0
 12
0.0
 22
0.0
 32
0.0
 14
1e+20
 24
1e+20
 34
1e+20
 15
-1e+20
 25
-1e+20
 35
-1e+20
146
0.0
 13
0.0
 23
0.0
 33
0.0
 16
1.0
 26
0.0
 36
0.0
 17
0.0
 27
1.0
 37
0.0
 76
1
330
1B
  0
MATERIAL
  5
1F
102
{ACAD_REACTORS
330
E
102
}
330
E
100
AcDbMaterial
  1
ByBlock
  2

 70
0
 40
1.0
 71
1
 41
1.0
 91
-1023410177
 42
1.0
 72
1
  3

 73
1
 74
1
 75
1
 44
0.5
 73
0
 45
1.0
 46
1.0
 77
1
  4

 78
1
 79
1
170
1
 48
1.0
171
1
  6

172
1
173
1
174
1
140
1.0
141
1.0
175
1
  7

176
1
177
1
178
1
143
1.0
179
1
  8

270
1
271
1
272
1
145
1.0
146
1.0
273
1
  9

274
1
275
1
276
1
 42
1.0
 72
1
  3

 73
1
 74
1
 75
1
 94
63
  0
MATERIAL
  5
20
102
{ACAD_REACTORS
330
E
102
}
330
E
100
AcDbMaterial
  1
ByLayer
  2

 70
0
 40
1.0
 71
1
 41
1.0
 91
-1023410177
 42
1.0
 72
1
  3

 73
1
 74
1
 75
1
 44
0.5
 73
0
 45
1.0
 46
1.0
 77
1
  4

 78
1
 79
1
170
1
 48
1.0
171
1
  6

172
1
173
1
174
1
140
1.0
141
1.0
175
1
  7

176
1
177
1
178
1
143
1.0
179
1
  8

270
1
271
1
272
1
145
1.0
146
1.0
273
1
  9

274
1
275
1
276
1
 42
1.0
 72
1
  3

 73
1
 74
1
 75
1
 94
63
  0
MATERIAL
  5
21
102
{ACAD_REACTORS
330
E
102
}
330
E
100
AcDbMaterial
  1
Global
  2

 70
0
 40
1.0
 71
1
 41
1.0
 91
-1023410177
 42
1.0
 72
1
  3

 73
1
 74
1
 75
1
 44
0.5
 73
0
 45
1.0
 46
1.0
 77
1
  4

 78
1
 79
1
170
1
 48
1.0
171
1
  6

172
1
173
1
174
1
140
1.0
141
1.0
175
1
  7

176
1
177
1
178
1
143
1.0
179
1
  8

270
1
271
1
272
1
145
1.0
146
1.0
273
1
  9

274
1
275
1
276
1
 42
1.0
 72
1
  3

 73
1
 74
1
 75
1
 94
63
  0
MLINESTYLE
  5
22
102
{ACAD_REACTORS
330
10
102
}
330
10
100
AcDbMlineStyle
  2
Standard
 70
0
  3

 62
256
 51
90.0
 52
90.0
 71
2
 49
0.5
 62
256
  6
BYLAYER
 49
-0.5
 62
256
  6
BYLAYER
  0
MLEADERSTYLE
  5
2C
102
{ACAD_REACTORS
330
F
102
}
330
F
100
AcDbMLeaderStyle
179
2
170
2
171
1
172
0
 90
2
 40
0.0
 41
0.0
173
1
 91
-1056964608
 92
-2
290
1
 42
2.0
291
1
 43
8.0
  3
Standard
 44
4.0
300

342
29
174
1
175
1
176
0
178
1
 93
-1056964608
 45
4.0
292
0
297
0
 46
4.0
 94
-1056964608
 47
1.0
 49
1.0
140
1.0
294
1
141
0.0
177
0
142
1.0
295
0
296
0
143
3.75
271
0
272
9
273
9
  0
DICTIONARY
  5
2D
330
A
100
AcDbDictionary
280
1
281
1
  3
CREATED_BY_EZDXF
350
2E
  3
WRITTEN_BY_EZDXF
350
1B0
  0
DICTIONARYVAR
  5
2E
330
2D
100
DictionaryVariables
280
0
  1
1.4.3 @ 2026-04-09T21:37:20.307388+00:00
  0
DICTIONARYVAR
  5
1B0
330
2D
100
DictionaryVariables
280
0
  1
1.4.3 @ 2026-04-09T21:37:20.333159+00:00
  0
ENDSEC
  0
EOF
