  0
SECTION
  2
HEADER
  9
$ACADVER
  1
AC1024
  9
$ACADMAINTVER
 70
6
  9
$DWGCODEPAGE
  3
ANSI_1252
  9
$LASTSAVEDBY
  1
ezdxf
  9
$INSBASE
 10
0.0
 20
0.0
 30
0.0
  9
$EXTMIN
 10
1e+20
 20
1e+20
 30
1e+20
  9
$EXTMAX
 10
-1e+20
 20
-1e+20
 30
-1e+20
  9
$LIMMIN
 10
0.0
 20
0.0
  9
$LIMMAX
 10
420.0
 20
297.0
  9
$ORTHOMODE
 70
0
  9
$REGENMODE
 70
1
  9
$FILLMODE
 70
1
  9
$QTEXTMODE
 70
0
  9
$MIRRTEXT
 70
1
  9
$LTSCALE
 40
1.0
  9
$ATTMODE
 70
1
  9
$TEXTSIZE
 40
2.5
  9
$TRACEWID
 40
1.0
  9
$TEXTSTYLE
  7
Standard
  9
$CLAYER
  8
0
  9
$CELTYPE
  6
ByLayer
  9
$CECOLOR
 62
256
  9
$CELTSCALE
 40
1.0
  9
$DISPSILH
 70
0
  9
$DIMSCALE
 40
1.0
  9
$DIMASZ
 40
2.5
  9
$DIMEXO
 40
0.625
  9
$DIMDLI
 40
3.75
  9
$DIMRND
 40
0.0
  9
$DIMDLE
 40
0.0
  9
$DIMEXE
 40
1.25
  9
$DIMTP
 40
0.0
  9
$DIMTM
 40
0.0
  9
$DIMTXT
 40
2.5
  9
$DIMCEN
 40
2.5
  9
$DIMTSZ
 40
0.0
  9
$DIMTOL
 70
0
  9
$DIMLIM
 70
0
  9
$DIMTIH
 70
0
  9
$DIMTOH
 70
0
  9
$DIMSE1
 70
0
  9
$DIMSE2
 70
0
  9
$DIMTAD
 70
1
  9
$DIMZIN
 70
8
  9
$DIMBLK
  1

  9
$DIMASO
 70
1
  9
$DIMSHO
 70
1
  9
$DIMPOST
  1

  9
$DIMAPOST
  1

  9
$DIMALT
 70
0
  9
$DIMALTD
 70
3
  9
$DIMALTF
 40
0.03937007874
  9
$DIMLFAC
 40
1.0
  9
$DIMTOFL
 70
1
  9
$DIMTVP
 40
0.0
  9
$DIMTIX
 70
0
  9
$DIMSOXD
 70
0
  9
$DIMSAH
 70
0
  9
$DIMBLK1
  1

  9
$DIMBLK2
  1

  9
$DIMSTYLE
  2
ISO-25
  9
$DIMCLRD
 70
0
  9
$DIMCLRE
 70
0
  9
$DIMCLRT
 70
0
  9
$DIMTFAC
 40
1.0
  9
$DIMGAP
 40
0.625
  9
$DIMJUST
 70
0
  9
$DIMSD1
 70
0
  9
$DIMSD2
 70
0
  9
$DIMTOLJ
 70
0
  9
$DIMTZIN
 70
8
  9
$DIMALTZ
 70
0
  9
$DIMALTTZ
 70
0
  9
$DIMUPT
 70
0
  9
$DIMDEC
 70
2
  9
$DIMTDEC
 70
2
  9
$DIMALTU
 70
2
  9
$DIMALTTD
 70
3
  9
$DIMTXSTY
  7
Standard
  9
$DIMAUNIT
 70
0
  9
$DIMADEC
 70
0
  9
$DIMALTRND
 40
0.0
  9
$DIMAZIN
 70
0
  9
$DIMDSEP
 70
44
  9
$DIMATFIT
 70
3
  9
$DIMFRAC
 70
0
  9
$DIMLDRBLK
  1

  9
$DIMLUNIT
 70
2
  9
$DIMLWD
 70
-2
  9
$DIMLWE
 70
-2
  9
$DIMTMOVE
 70
0
  9
$DIMFXL
 40
1.0
  9
$DIMFXLON
 70
0
  9
$DIMJOGANG
 40
0.785398163397
  9
$DIMTFILL
 70
0
  9
$DIMTFILLCLR
 70
0
  9
$DIMARCSYM
 70
0
  9
$DIMLTYPE
  6

  9
$DIMLTEX1
  6

  9
$DIMLTEX2
  6

  9
$DIMTXTDIRECTION
 70
0
  9
$LUNITS
 70
2
  9
$LUPREC
 70
4
  9
$SKETCHINC
 40
1.0
  9
$FILLETRAD
 40
10.0
  9
$AUNITS
 70
0
  9
$AUPREC
 70
2
  9
$MENU
  1
.
  9
$ELEVATION
 40
0.0
  9
$PELEVATION
 40
0.0
  9
$THICKNESS
 40
0.0
  9
$LIMCHECK
 70
0
  9
$CHAMFERA
 40
0.0
  9
$CHAMFERB
 40
0.0
  9
$CHAMFERC
 40
0.0
  9
$CHAMFERD
 40
0.0
  9
$SKPOLY
 70
0
  9
$TDCREATE
 40
2461140.609212963
  9
$TDUCREATE
 40
2458532.153996898
  9
$TDUPDATE
 40
2461140.609212963
  9
$TDUUPDATE
 40
2458532.1544311
  9
$TDINDWG
 40
0.0
  9
$TDUSRTIMER
 40
0.0
  9
$USRTIMER
 70
1
  9
$ANGBASE
 50
0.0
  9
$ANGDIR
 70
0
  9
$PDMODE
 70
0
  9
$PDSIZE
 40
0.0
  9
$PLINEWID
 40
0.0
  9
$SPLFRAME
 70
0
  9
$SPLINETYPE
 70
6
  9
$SPLINESEGS
 70
8
  9
$HANDSEED
  5
24B
  9
$SURFTAB1
 70
6
  9
$SURFTAB2
 70
6
  9
$SURFTYPE
 70
6
  9
$SURFU
 70
6
  9
$SURFV
 70
6
  9
$UCSBASE
  2

  9
$UCSNAME
  2

  9
$UCSORG
 10
0.0
 20
0.0
 30
0.0
  9
$UCSXDIR
 10
1.0
 20
0.0
 30
0.0
  9
$UCSYDIR
 10
0.0
 20
1.0
 30
0.0
  9
$UCSORTHOREF
  2

  9
$UCSORTHOVIEW
 70
0
  9
$UCSORGTOP
 10
0.0
 20
0.0
 30
0.0
  9
$UCSORGBOTTOM
 10
0.0
 20
0.0
 30
0.0
  9
$UCSORGLEFT
 10
0.0
 20
0.0
 30
0.0
  9
$UCSORGRIGHT
 10
0.0
 20
0.0
 30
0.0
  9
$UCSORGFRONT
 10
0.0
 20
0.0
 30
0.0
  9
$UCSORGBACK
 10
0.0
 20
0.0
 30
0.0
  9
$PUCSBASE
  2

  9
$PUCSNAME
  2

  9
$PUCSORG
 10
0.0
 20
0.0
 30
0.0
  9
$PUCSXDIR
 10
1.0
 20
0.0
 30
0.0
  9
$PUCSYDIR
 10
0.0
 20
1.0
 30
0.0
  9
$PUCSORTHOREF
  2

  9
$PUCSORTHOVIEW
 70
0
  9
$PUCSORGTOP
 10
0.0
 20
0.0
 30
0.0
  9
$PUCSORGBOTTOM
 10
0.0
 20
0.0
 30
0.0
  9
$PUCSORGLEFT
 10
0.0
 20
0.0
 30
0.0
  9
$PUCSORGRIGHT
 10
0.0
 20
0.0
 30
0.0
  9
$PUCSORGFRONT
 10
0.0
 20
0.0
 30
0.0
  9
$PUCSORGBACK
 10
0.0
 20
0.0
 30
0.0
  9
$USERI1
 70
0
  9
$USERI2
 70
0
  9
$USERI3
 70
0
  9
$USERI4
 70
0
  9
$USERI5
 70
0
  9
$USERR1
 40
0.0
  9
$USERR2
 40
0.0
  9
$USERR3
 40
0.0
  9
$USERR4
 40
0.0
  9
$USERR5
 40
0.0
  9
$WORLDVIEW
 70
1
  9
$SHADEDGE
 70
3
  9
$SHADEDIF
 70
70
  9
$TILEMODE
 70
1
  9
$MAXACTVP
 70
64
  9
$PINSBASE
 10
0.0
 20
0.0
 30
0.0
  9
$PLIMCHECK
 70
0
  9
$PEXTMIN
 10
1e+20
 20
1e+20
 30
1e+20
  9
$PEXTMAX
 10
-1e+20
 20
-1e+20
 30
-1e+20
  9
$PLIMMIN
 10
0.0
 20
0.0
  9
$PLIMMAX
 10
420.0
 20
297.0
  9
$UNITMODE
 70
0
  9
$VISRETAIN
 70
1
  9
$PLINEGEN
 70
0
  9
$PSLTSCALE
 70
1
  9
$TREEDEPTH
 70
3020
  9
$CMLSTYLE
  2
Standard
  9
$CMLJUST
 70
0
  9
$CMLSCALE
 40
20.0
  9
$PROXYGRAPHICS
 70
1
  9
$MEASUREMENT
 70
1
  9
$CELWEIGHT
370
-1
  9
$ENDCAPS
280
0
  9
$JOINSTYLE
280
0
  9
$LWDISPLAY
290
0
  9
$INSUNITS
 70
4
  9
$HYPERLINKBASE
  1

  9
$STYLESHEET
  1

  9
$XEDIT
290
1
  9
$CEPSNTYPE
380
0
  9
$PSTYLEMODE
290
1
  9
$FINGERPRINTGUID
  2
{09E48039-CE29-4A95-A8E2-8C0BB2A2B761}
  9
$VERSIONGUID
  2
{2AEB9629-45F9-4C63-A90B-ED5CBAE3C854}
  9
$EXTNAMES
290
1
  9
$PSVPSCALE
 40
0.0
  9
$OLESTARTUP
290
0
  9
$SORTENTS
280
127
  9
$INDEXCTL
280
0
  9
$HIDETEXT
280
1
  9
$XCLIPFRAME
280
1
  9
$HALOGAP
280
0
  9
$OBSCOLOR
 70
257
  9
$OBSLTYPE
280
0
  9
$INTERSECTIONDISPLAY
280
0
  9
$INTERSECTIONCOLOR
 70
257
  9
$DIMASSOC
280
2
  9
$PROJECTNAME
  1

  9
$CAMERADISPLAY
290
0
  9
$LENSLENGTH
 40
50.0
  9
$CAMERAHEIGHT
 40
0.0
  9
$STEPSPERSEC
 40
24.0
  9
$STEPSIZE
 40
100.0
  9
$3DDWFPREC
 40
2.0
  9
$PSOLWIDTH
 40
0.005
  9
$PSOLHEIGHT
 40
0.08
  9
$LOFTANG1
 40
1.570796326795
  9
$LOFTANG2
 40
1.570796326795
  9
$LOFTMAG1
 40
0.0
  9
$LOFTMAG2
 40
0.0
  9
$LOFTPARAM
 70
7
  9
$LOFTNORMALS
280
1
  9
$LATITUDE
 40
37.795
  9
$LONGITUDE
 40
-122.394
  9
$NORTHDIRECTION
 40
0.0
  9
$TIMEZONE
 70
-8000
  9
$LIGHTGLYPHDISPLAY
280
1
  9
$TILEMODELIGHTSYNCH
280
1
  9
$CMATERIAL
347
20
  9
$SOLIDHIST
280
0
  9
$SHOWHIST
280
1
  9
$DWFFRAME
280
2
  9
$DGNFRAME
280
2
  9
$REALWORLDSCALE
290
1
  9
$INTERFERECOLOR
 62
256
  9
$CSHADOW
280
0
  9
$SHADOWPLANELOCATION
 40
0.0
  0
ENDSEC
  0
SECTION
  2
CLASSES
  0
CLASS
  1
ACDBDICTIONARYWDFLT
  2
AcDbDictionaryWithDefault
  3
ObjectDBX Classes
 90
0
 91
0
280
0
281
0
  0
CLASS
  1
SUN
  2
AcDbSun
  3
SCENEOE
 90
1153
 91
0
280
0
281
0
  0
CLASS
  1
VISUALSTYLE
  2
AcDbVisualStyle
  3
ObjectDBX Classes
 90
4095
 91
0
280
0
281
0
  0
CLASS
  1
MATERIAL
  2
AcDbMaterial
  3
ObjectDBX Classes
 90
1153
 91
0
280
0
281
0
  0
CLASS
  1
SCALE
  2
AcDbScale
  3
ObjectDBX Classes
 90
1153
 91
0
280
0
281
0
  0
CLASS
  1
TABLESTYLE
  2
AcDbTableStyle
  3
ObjectDBX Classes
 90
4095
 91
0
280
0
281
0
  0
CLASS
  1
MLEADERSTYLE
  2
AcDbMLeaderStyle
  3
ACDB_MLEADERSTYLE_CLASS
 90
4095
 91
0
280
0
281
0
  0
CLASS
  1
DICTIONARYVAR
  2
AcDbDictionaryVar
  3
ObjectDBX Classes
 90
0
 91
0
280
0
281
0
  0
CLASS
  1
CELLSTYLEMAP
  2
AcDbCellStyleMap
  3
ObjectDBX Classes
 90
1152
 91
0
280
0
281
0
  0
CLASS
  1
MENTALRAYRENDERSETTINGS
  2
AcDbMentalRayRenderSettings
  3
SCENEOE
 90
1024
 91
0
280
0
281
0
  0
CLASS
  1
ACDBDETAILVIEWSTYLE
  2
AcDbDetailViewStyle
  3
ObjectDBX Classes
 90
1025
 91
0
280
0
281
0
  0
CLASS
  1
ACDBSECTIONVIEWSTYLE
  2
AcDbSectionViewStyle
  3
ObjectDBX Classes
 90
1025
 91
0
280
0
281
0
  0
CLASS
  1
RASTERVARIABLES
  2
AcDbRasterVariables
  3
ISM
 90
0
 91
0
280
0
281
0
  0
CLASS
  1
LAYOUT
  2
AcDbLayout
  3
ObjectDBX Classes
 90
0
 91
0
280
0
281
0
  0
CLASS
  1
ACDBPLACEHOLDER
  2
AcDbPlaceHolder
  3
ObjectDBX Classes
 90
0
 91
0
280
0
281
0
  0
ENDSEC
  0
SECTION
  2
TABLES
  0
TABLE
  2
VPORT
  5
8
330
0
100
AcDbSymbolTable
 70
1
  0
VPORT
  5
23
330
8
100
AcDbSymbolTableRecord
100
AcDbViewportTableRecord
  2
*Active
 70
0
 10
0.0
 20
0.0
 11
1.0
 21
1.0
 12
0.0
 22
0.0
 13
0.0
 23
0.0
 14
0.5
 24
0.5
 15
0.5
 25
0.5
 16
0.0
 26
0.0
 36
1.0
 17
0.0
 27
0.0
 37
0.0
 40
1000.0
 41
1.34
 42
50.0
 43
0.0
 44
0.0
 50
0.0
 51
0.0
 71
0
 72
1000
 73
1
 74
3
 75
0
 76
0
 77
0
 78
0
281
0
 65
0
146
0.0
  0
ENDTAB
  0
TABLE
  2
LTYPE
  5
2
330
0
100
AcDbSymbolTable
 70
3
  0
LTYPE
  5
24
330
2
100
AcDbSymbolTableRecord
100
AcDbLinetypeTableRecord
  2
ByBlock
 70
0
  3

 72
65
 73
0
 40
0.0
  0
LTYPE
  5
25
330
2
100
AcDbSymbolTableRecord
100
AcDbLinetypeTableRecord
  2
ByLayer
 70
0
  3

 72
65
 73
0
 40
0.0
  0
LTYPE
  5
26
330
2
100
AcDbSymbolTableRecord
100
AcDbLinetypeTableRecord
  2
Continuous
 70
0
  3

 72
65
 73
0
 40
0.0
  0
ENDTAB
  0
TABLE
  2
LAYER
  5
1
330
0
100
AcDbSymbolTable
 70
2
  0
LAYER
  5
27
330
1
100
AcDbSymbolTableRecord
100
AcDbLayerTableRecord
  2
0
 70
0
 62
7
  6
Continuous
370
-3
390
13
347
21
  0
LAYER
  5
28
330
1
100
AcDbSymbolTableRecord
100
AcDbLayerTableRecord
  2
Defpoints
 70
0
 62
7
  6
Continuous
290
0
370
-3
390
13
347
21
  0
ENDTAB
  0
TABLE
  2
STYLE
  5
5
330
0
100
AcDbSymbolTable
 70
1
  0
STYLE
  5
29
330
5
100
AcDbSymbolTableRecord
100
AcDbTextStyleTableRecord
  2
Standard
 70
0
 40
0.0
 41
1.0
 50
0.0
 71
0
 42
2.5
  3
txt
  4

  0
ENDTAB
  0
TABLE
  2
VIEW
  5
7
330
0
100
AcDbSymbolTable
 70
0
  0
ENDTAB
  0
TABLE
  2
UCS
  5
6
330
0
100
AcDbSymbolTable
 70
0
  0
ENDTAB
  0
TABLE
  2
APPID
  5
3
330
0
100
AcDbSymbolTable
 70
3
  0
APPID
  5
2A
330
3
100
AcDbSymbolTableRecord
100
AcDbRegAppTableRecord
  2
ACAD
 70
0
  0
APPID
  5
248
330
3
100
AcDbSymbolTableRecord
100
AcDbRegAppTableRecord
  2
HATCHBACKGROUNDCOLOR
 70
0
  0
APPID
  5
249
330
3
100
AcDbSymbolTableRecord
100
AcDbRegAppTableRecord
  2
EZDXF
 70
0
  0
ENDTAB
  0
TABLE
  2
DIMSTYLE
  5
4
330
0
100
AcDbSymbolTable
 70
1
100
AcDbDimStyleTable
  0
DIMSTYLE
105
2B
330
4
100
AcDbSymbolTableRecord
100
AcDbDimStyleTableRecord
  2
Standard
 70
0
 40
1.0
 41
2.5
 42
0.625
 43
3.75
 44
1.25
 45
0.0
 46
0.0
 47
0.0
 48
0.0
 49
2.5
140
2.5
141
2.5
142
0.0
143
0.03937007874
144
1.0
145
0.0
146
1.0
147
0.625
148
0.0
 69
0
 70
0
 71
0
 72
0
 73
0
 74
0
 75
0
 76
0
 77
1
 78
8
 79
3
170
0
171
3
172
1
173
0
174
0
175
0
176
0
177
0
178
0
179
2
271
2
272
2
273
2
274
3
275
0
276
0
277
2
278
44
279
0
280
0
281
0
282
0
283
0
284
8
285
0
286
0
288
0
289
3
290
0
371
-2
372
-2
  0
ENDTAB
  0
TABLE
  2
BLOCK_RECORD
  5
9
330
0
100
AcDbSymbolTable
 70
3
  0
BLOCK_RECORD
  5
17
330
9
100
AcDbSymbolTableRecord
100
AcDbBlockTableRecord
  2
*Model_Space
340
1A
 70
0
280
1
281
0
  0
BLOCK_RECORD
  5
1B
330
9
100
AcDbSymbolTableRecord
100
AcDbBlockTableRecord
  2
*Paper_Space
340
1E
 70
0
280
1
281
0
  0
BLOCK_RECORD
  5
2F
330
9
100
AcDbSymbolTableRecord
100
AcDbBlockTableRecord
  2
HEX
340
0
 70
0
280
1
281
0
  0
ENDTAB
  0
ENDSEC
  0
SECTION
  2
BLOCKS
  0
BLOCK
  5
18
330
17
100
AcDbEntity
  8
0
100
AcDbBlockBegin
  2
*Model_Space
 70
0
 10
0.0
 20
0.0
 30
0.0
  3
*Model_Space
  1

  0
ENDBLK
  5
19
330
17
100
AcDbEntity
  8
0
100
AcDbBlockEnd
  0
BLOCK
  5
1C
330
1B
100
AcDbEntity
  8
0
100
AcDbBlockBegin
  2
*Paper_Space
 70
0
 10
0.0
 20
0.0
 30
0.0
  3
*Paper_Space
  1

  0
ENDBLK
  5
1D
330
1B
100
AcDbEntity
  8
0
100
AcDbBlockEnd
  0
BLOCK
  5
30
330
2F
100
AcDbEntity
  8
0
100
AcDbBlockBegin
  2
HEX
 70
0
 10
0.0
 20
0.0
 30
0.0
  3
HEX
  1

  0
LWPOLYLINE
  5
32
330
2F
100
AcDbEntity
  8
0
100
AcDbPolyline
 90
6
 70
1
 10
1.516
 20
0.875
 10
0.0
 20
1.75
 10
-1.516
 20
0.875
 10
-1.516
 20
-0.875
 10
-0.0
 20
-1.75
 10
1.516
 20
-0.875
  0
ENDBLK
  5
31
330
2F
100
AcDbEntity
  8
0
100
AcDbBlockEnd
  0
ENDSEC
  0
SECTION
  2
ENTITIES
  0
LWPOLYLINE
  5
33
330
17
100
AcDbEntity
  8
0
100
AcDbPolyline
 90
4
 70
1
 10
43.328
 20
-281.633
 10
43.749
 20
-281.39
 10
44.383
 20
-281.755
 10
43.328
 20
-281.633
  0
LWPOLYLINE
  5
34
330
17
100
AcDbEntity
  8
0
100
AcDbPolyline
 90
4
 70
1
 10
46.267
 20
-281.975
 10
47.28
 20
-281.39
 10
48.796
 20
-282.269
 10
46.267
 20
-281.975
  0
LWPOLYLINE
  5
35
330
17
100
AcDbEntity
  8
0
100
AcDbPolyline
 90
6
 70
1
 10
49.296
 20
-282.327
 10
49.296
 20
-282.265
 10
50.811
 20
-281.39
 10
52.327
 20
-282.265
 10
52.327
 20
-282.679
 10
49.296
 20
-282.327
  0
LWPOLYLINE
  5
36
330
17
100
AcDbEntity
  8
0
100
AcDbPolyline
 90
11
 70
1
 10
54.907
 20
-281.719
 10
54.709
 20
-281.895
 10
54.498
 20
-282.056
 10
54.044
 20
-282.327
 10
53.802
 20
-282.437
 10
53.552
 20
-282.528
 10
53.294
 20
-282.601
 10
52.827
 20
-282.678
 10
52.827
 20
-282.265
 10
54.342
 20
-281.39
 10
54.907
 20
-281.719
  0
LWPOLYLINE
  5
37
330
17
100
AcDbEntity
  8
0
100
AcDbPolyline
 90
8
 70
1
 10
25.571
 20
-279.567
 10
24.835
 20
-279.372
 10
24.168
 20
-279.131
 10
23.502
 20
-278.809
 10
24.328
 20
-278.332
 10
25.844
 20
-279.207
 10
25.844
 20
-279.599
 10
25.571
 20
-279.567
  0
LWPOLYLINE
  5
38
330
17
100
AcDbEntity
  8
0
100
AcDbPolyline
 90
6
 70
1
 10
26.344
 20
-279.657
 10
26.344
 20
-279.207
 10
27.859
 20
-278.332
 10
29.375
 20
-279.207
 10
29.375
 20
-280.01
 10
26.344
 20
-279.657
  0
LWPOLYLINE
  5
39
330
17
100
AcDbEntity
  8
0
100
AcDbPolyline
 90
6
 70
1
 10
29.875
 20
-280.068
 10
29.875
 20
-279.207
 10
31.39
 20
-278.332
 10
32.906
 20
-279.207
 10
32.906
 20
-280.421
 10
29.875
 20
-280.068
  0
LWPOLYLINE
  5
3A
330
17
100
AcDbEntity
  8
0
100
AcDbPolyline
 90
6
 70
1
 10
33.406
 20
-280.479
 10
33.406
 20
-279.207
 10
34.921
 20
-278.332
 10
36.437
 20
-279.207
 10
36.437
 20
-280.831
 10
33.406
 20
-280.479
  0
LWPOLYLINE
  5
3B
330
17
100
AcDbEntity
  8
0
100
AcDbPolyline
 90
7
 70
1
 10
36.937
 20
-280.889
 10
36.937
 20
-279.207
 10
38.453
 20
-278.332
 10
39.968
 20
-279.207
 10
39.968
 20
-280.957
 10
39.557
 20
-281.194
 10
36.937
 20
-280.889
  0
LWPOLYLINE
  5
3C
330
17
100
AcDbEntity
  8
0
100
AcDbPolyline
 90
8
 70
1
 10
41.213
 20
-281.387
 10
40.468
 20
-280.957
 10
40.468
 20
-279.207
 10
41.984
 20
-278.332
 10
43.499
 20
-279.207
 10
43.499
 20
-280.957
 10
42.496
 20
-281.536
 10
41.213
 20
-281.387
  0
INSERT
  5
3D
330
17
100
AcDbEntity
  8
0
100
AcDbBlockReference
  2
HEX
 10
45.515
 20
-280.082
 30
0.0
  0
INSERT
  5
3F
330
17
100
AcDbEntity
  8
0
100
AcDbBlockReference
  2
HEX
 10
49.046
 20
-280.082
 30
0.0
  0
INSERT
  5
41
330
17
100
AcDbEntity
  8
0
100
AcDbBlockReference
  2
HEX
 10
52.577
 20
-280.082
 30
0.0
  0
LWPOLYLINE
  5
43
330
17
100
AcDbEntity
  8
0
100
AcDbPolyline
 90
9
 70
1
 10
55.678
 20
-280.63
 10
55.556
 20
-280.874
 10
55.417
 20
-281.105
 10
55.251
 20
-281.337
 10
54.592
 20
-280.957
 10
54.592
 20
-279.207
 10
56.108
 20
-278.332
 10
56.507
 20
-278.562
 10
55.678
 20
-280.63
  0
LWPOLYLINE
  5
44
330
17
100
AcDbEntity
  8
0
100
AcDbPolyline
 90
11
 70
1
 10
22.56
 20
-278.161
 10
22.148
 20
-277.76
 10
21.794
 20
-277.325
 10
21.497
 20
-276.856
 10
21.253
 20
-276.357
 10
21.155
 20
-276.086
 10
22.563
 20
-275.274
 10
24.078
 20
-276.149
 10
24.078
 20
-277.899
 10
23.016
 20
-278.512
 10
22.56
 20
-278.161
  0
INSERT
  5
45
330
17
100
AcDbEntity
  8
0
100
AcDbBlockReference
  2
HEX
 10
26.094
 20
-277.024
 30
0.0
  0
INSERT
  5
47
330
17
100
AcDbEntity
  8
0
100
AcDbBlockReference
  2
HEX
 10
29.625
 20
-277.024
 30
0.0
  0
INSERT
  5
49
330
17
100
AcDbEntity
  8
0
100
AcDbBlockReference
  2
HEX
 10
33.156
 20
-277.024
 30
0.0
  0
INSERT
  5
4B
330
17
100
AcDbEntity
  8
0
100
AcDbBlockReference
  2
HEX
 10
36.687
 20
-277.024
 30
0.0
  0
INSERT
  5
4D
330
17
100
AcDbEntity
  8
0
100
AcDbBlockReference
  2
HEX
 10
40.218
 20
-277.024
 30
0.0
  0
INSERT
  5
4F
330
17
100
AcDbEntity
  8
0
100
AcDbBlockReference
  2
HEX
 10
43.749
 20
-277.024
 30
0.0
  0
INSERT
  5
51
330
17
100
AcDbEntity
  8
0
100
AcDbBlockReference
  2
HEX
 10
47.28
 20
-277.024
 30
0.0
  0
INSERT
  5
53
330
17
100
AcDbEntity
  8
0
100
AcDbBlockReference
  2
HEX
 10
50.811
 20
-277.024
 30
0.0
  0
INSERT
  5
55
330
17
100
AcDbEntity
  8
0
100
AcDbBlockReference
  2
HEX
 10
54.342
 20
-277.024
 30
0.0
  0
LWPOLYLINE
  5
57
330
17
100
AcDbEntity
  8
0
100
AcDbPolyline
 90
5
 70
1
 10
56.695
 20
-278.093
 10
56.358
 20
-277.899
 10
56.358
 20
-276.149
 10
57.813
 20
-275.309
 10
56.695
 20
-278.093
  0
LWPOLYLINE
  5
58
330
17
100
AcDbEntity
  8
0
100
AcDbPolyline
 90
10
 70
1
 10
20.919
 20
-275.27
 10
20.823
 20
-274.688
 10
20.773
 20
-274.083
 10
20.766
 20
-273.455
 10
20.826
 20
-272.517
 10
20.866
 20
-272.255
 10
22.313
 20
-273.091
 10
22.313
 20
-274.841
 10
21.002
 20
-275.597
 10
20.919
 20
-275.27
  0
INSERT
  5
59
330
17
100
AcDbEntity
  8
0
100
AcDbBlockReference
  2
HEX
 10
24.328
 20
-273.966
 30
0.0
  0
INSERT
  5
5B
330
17
100
AcDbEntity
  8
0
100
AcDbBlockReference
  2
HEX
 10
27.859
 20
-273.966
 30
0.0
  0
INSERT
  5
5D
330
17
100
AcDbEntity
  8
0
100
AcDbBlockReference
  2
HEX
 10
31.39
 20
-273.966
 30
0.0
  0
INSERT
  5
5F
330
17
100
AcDbEntity
  8
0
100
AcDbBlockReference
  2
HEX
 10
34.921
 20
-273.966
 30
0.0
  0
INSERT
  5
61
330
17
100
AcDbEntity
  8
0
100
AcDbBlockReference
  2
HEX
 10
38.453
 20
-273.966
 30
0.0
  0
INSERT
  5
63
330
17
100
AcDbEntity
  8
0
100
AcDbBlockReference
  2
HEX
 10
41.984
 20
-273.966
 30
0.0
  0
INSERT
  5
65
330
17
100
AcDbEntity
  8
0
100
AcDbBlockReference
  2
HEX
 10
45.515
 20
-273.966
 30
0.0
  0
INSERT
  5
67
330
17
100
AcDbEntity
  8
0
100
AcDbBlockReference
  2
HEX
 10
49.046
 20
-273.966
 30
0.0
  0
INSERT
  5
69
330
17
100
AcDbEntity
  8
0
100
AcDbBlockReference
  2
HEX
 10
52.577
 20
-273.966
 30
0.0
  0
INSERT
  5
6B
330
17
100
AcDbEntity
  8
0
100
AcDbBlockReference
  2
HEX
 10
56.108
 20
-273.966
 30
0.0
  0
LWPOLYLINE
  5
6D
330
17
100
AcDbEntity
  8
0
100
AcDbPolyline
 90
4
 70
1
 10
58.124
 20
-274.534
 10
58.124
 20
-273.091
 10
58.877
 20
-272.656
 10
58.124
 20
-274.534
  0
LWPOLYLINE
  5
6E
330
17
100
AcDbEntity
  8
0
100
AcDbPolyline
 90
8
 70
1
 10
21.404
 20
-269.827
 10
22.563
 20
-269.158
 10
24.078
 20
-270.033
 10
24.078
 20
-271.783
 10
22.563
 20
-272.658
 10
21.047
 20
-271.783
 10
21.047
 20
-271.142
 10
21.404
 20
-269.827
  0
INSERT
  5
6F
330
17
100
AcDbEntity
  8
0
100
AcDbBlockReference
  2
HEX
 10
26.094
 20
-270.908
 30
0.0
  0
INSERT
  5
71
330
17
100
AcDbEntity
  8
0
100
AcDbBlockReference
  2
HEX
 10
29.625
 20
-270.908
 30
0.0
  0
INSERT
  5
73
330
17
100
AcDbEntity
  8
0
100
AcDbBlockReference
  2
HEX
 10
33.156
 20
-270.908
 30
0.0
  0
INSERT
  5
75
330
17
100
AcDbEntity
  8
0
100
AcDbBlockReference
  2
HEX
 10
36.687
 20
-270.908
 30
0.0
  0
INSERT
  5
77
330
17
100
AcDbEntity
  8
0
100
AcDbBlockReference
  2
HEX
 10
40.218
 20
-270.908
 30
0.0
  0
INSERT
  5
79
330
17
100
AcDbEntity
  8
0
100
AcDbBlockReference
  2
HEX
 10
43.749
 20
-270.908
 30
0.0
  0
INSERT
  5
7B
330
17
100
AcDbEntity
  8
0
100
AcDbBlockReference
  2
HEX
 10
47.28
 20
-270.908
 30
0.0
  0
INSERT
  5
7D
330
17
100
AcDbEntity
  8
0
100
AcDbBlockReference
  2
HEX
 10
50.811
 20
-270.908
 30
0.0
  0
INSERT
  5
7F
330
17
100
AcDbEntity
  8
0
100
AcDbBlockReference
  2
HEX
 10
54.342
 20
-270.908
 30
0.0
  0
LWPOLYLINE
  5
81
330
17
100
AcDbEntity
  8
0
100
AcDbPolyline
 90
8
 70
1
 10
59.389
 20
-271.4
 10
59.178
 20
-271.904
 10
57.874
 20
-272.658
 10
56.358
 20
-271.783
 10
56.358
 20
-270.033
 10
57.874
 20
-269.158
 10
59.389
 20
-270.033
 10
59.389
 20
-271.4
  0
LWPOLYLINE
  5
82
330
17
100
AcDbEntity
  8
0
100
AcDbPolyline
 90
8
 70
1
 10
62.022
 20
-269.514
 10
61.7
 20
-269.782
 10
61.137
 20
-270.146
 10
60.062
 20
-270.706
 10
59.889
 20
-270.824
 10
59.889
 20
-270.033
 10
61.405
 20
-269.158
 10
62.022
 20
-269.514
  0
LWPOLYLINE
  5
83
330
17
100
AcDbEntity
  8
0
100
AcDbPolyline
 90
5
 70
1
 10
21.748
 20
-268.555
 10
22.313
 20
-267.108
 10
22.313
 20
-268.725
 10
21.589
 20
-269.142
 10
21.748
 20
-268.555
  0
INSERT
  5
84
330
17
100
AcDbEntity
  8
0
100
AcDbBlockReference
  2
HEX
 10
24.328
 20
-267.85
 30
0.0
  0
INSERT
  5
86
330
17
100
AcDbEntity
  8
0
100
AcDbBlockReference
  2
HEX
 10
27.859
 20
-267.85
 30
0.0
  0
INSERT
  5
88
330
17
100
AcDbEntity
  8
0
100
AcDbBlockReference
  2
HEX
 10
31.39
 20
-267.85
 30
0.0
  0
INSERT
  5
8A
330
17
100
AcDbEntity
  8
0
100
AcDbBlockReference
  2
HEX
 10
34.921
 20
-267.85
 30
0.0
  0
INSERT
  5
8C
330
17
100
AcDbEntity
  8
0
100
AcDbBlockReference
  2
HEX
 10
38.453
 20
-267.85
 30
0.0
  0
INSERT
  5
8E
330
17
100
AcDbEntity
  8
0
100
AcDbBlockReference
  2
HEX
 10
41.984
 20
-267.85
 30
0.0
  0
INSERT
  5
90
330
17
100
AcDbEntity
  8
0
100
AcDbBlockReference
  2
HEX
 10
45.515
 20
-267.85
 30
0.0
  0
INSERT
  5
92
330
17
100
AcDbEntity
  8
0
100
AcDbBlockReference
  2
HEX
 10
49.046
 20
-267.85
 30
0.0
  0
INSERT
  5
94
330
17
100
AcDbEntity
  8
0
100
AcDbBlockReference
  2
HEX
 10
52.577
 20
-267.85
 30
0.0
  0
INSERT
  5
96
330
17
100
AcDbEntity
  8
0
100
AcDbBlockReference
  2
HEX
 10
56.108
 20
-267.85
 30
0.0
  0
INSERT
  5
98
330
17
100
AcDbEntity
  8
0
100
AcDbBlockReference
  2
HEX
 10
59.639
 20
-267.85
 30
0.0
  0
LWPOLYLINE
  5
9A
330
17
100
AcDbEntity
  8
0
100
AcDbPolyline
 90
13
 70
1
 10
62.563
 20
-266.828
 10
62.687
 20
-267.218
 10
62.762
 20
-267.61
 10
62.777
 20
-267.999
 10
62.724
 20
-268.385
 10
62.668
 20
-268.575
 10
62.592
 20
-268.763
 10
62.493
 20
-268.949
 10
62.368
 20
-269.136
 10
61.655
 20
-268.725
 10
61.655
 20
-266.975
 10
62.423
 20
-266.531
 10
62.563
 20
-266.828
  0
LWPOLYLINE
  5
9B
330
17
100
AcDbEntity
  8
0
100
AcDbPolyline
 90
7
 70
1
 10
22.829
 20
-265.783
 10
23.955
 20
-263.845
 10
24.078
 20
-263.917
 10
24.078
 20
-265.667
 10
22.563
 20
-266.542
 10
22.539
 20
-266.528
 10
22.829
 20
-265.783
  0
INSERT
  5
9C
330
17
100
AcDbEntity
  8
0
100
AcDbBlockReference
  2
HEX
 10
26.094
 20
-264.792
 30
0.0
  0
INSERT
  5
9E
330
17
100
AcDbEntity
  8
0
100
AcDbBlockReference
  2
HEX
 10
29.625
 20
-264.792
 30
0.0
  0
INSERT
  5
A0
330
17
100
AcDbEntity
  8
0
100
AcDbBlockReference
  2
HEX
 10
33.156
 20
-264.792
 30
0.0
  0
INSERT
  5
A2
330
17
100
AcDbEntity
  8
0
100
AcDbBlockReference
  2
HEX
 10
36.687
 20
-264.792
 30
0.0
  0
INSERT
  5
A4
330
17
100
AcDbEntity
  8
0
100
AcDbBlockReference
  2
HEX
 10
40.218
 20
-264.792
 30
0.0
  0
INSERT
  5
A6
330
17
100
AcDbEntity
  8
0
100
AcDbBlockReference
  2
HEX
 10
43.749
 20
-264.792
 30
0.0
  0
INSERT
  5
A8
330
17
100
AcDbEntity
  8
0
100
AcDbBlockReference
  2
HEX
 10
47.28
 20
-264.792
 30
0.0
  0
INSERT
  5
AA
330
17
100
AcDbEntity
  8
0
100
AcDbBlockReference
  2
HEX
 10
50.811
 20
-264.792
 30
0.0
  0
INSERT
  5
AC
330
17
100
AcDbEntity
  8
0
100
AcDbBlockReference
  2
HEX
 10
54.342
 20
-264.792
 30
0.0
  0
INSERT
  5
AE
330
17
100
AcDbEntity
  8
0
100
AcDbBlockReference
  2
HEX
 10
57.874
 20
-264.792
 30
0.0
  0
LWPOLYLINE
  5
B0
330
17
100
AcDbEntity
  8
0
100
AcDbPolyline
 90
11
 70
1
 10
62.039
 20
-264.854
 10
61.993
 20
-265.16
 10
62.006
 20
-265.467
 10
62.077
 20
-265.769
 10
62.209
 20
-266.077
 10
61.405
 20
-266.542
 10
59.889
 20
-265.667
 10
59.889
 20
-263.917
 10
61.405
 20
-263.042
 10
62.515
 20
-263.682
 10
62.039
 20
-264.854
  0
LWPOLYLINE
  5
B1
330
17
100
AcDbEntity
  8
0
100
AcDbPolyline
 90
6
 70
1
 10
25.729
 20
-260.792
 10
25.844
 20
-260.859
 10
25.844
 20
-262.609
 10
24.328
 20
-263.484
 10
24.206
 20
-263.413
 10
25.729
 20
-260.792
  0
INSERT
  5
B2
330
17
100
AcDbEntity
  8
0
100
AcDbBlockReference
  2
HEX
 10
27.859
 20
-261.734
 30
0.0
  0
INSERT
  5
B4
330
17
100
AcDbEntity
  8
0
100
AcDbBlockReference
  2
HEX
 10
31.39
 20
-261.734
 30
0.0
  0
INSERT
  5
B6
330
17
100
AcDbEntity
  8
0
100
AcDbBlockReference
  2
HEX
 10
34.921
 20
-261.734
 30
0.0
  0
INSERT
  5
B8
330
17
100
AcDbEntity
  8
0
100
AcDbBlockReference
  2
HEX
 10
38.453
 20
-261.734
 30
0.0
  0
INSERT
  5
BA
330
17
100
AcDbEntity
  8
0
100
AcDbBlockReference
  2
HEX
 10
41.984
 20
-261.734
 30
0.0
  0
INSERT
  5
BC
330
17
100
AcDbEntity
  8
0
100
AcDbBlockReference
  2
HEX
 10
45.515
 20
-261.734
 30
0.0
  0
INSERT
  5
BE
330
17
100
AcDbEntity
  8
0
100
AcDbBlockReference
  2
HEX
 10
49.046
 20
-261.734
 30
0.0
  0
INSERT
  5
C0
330
17
100
AcDbEntity
  8
0
100
AcDbBlockReference
  2
HEX
 10
52.577
 20
-261.734
 30
0.0
  0
INSERT
  5
C2
330
17
100
AcDbEntity
  8
0
100
AcDbBlockReference
  2
HEX
 10
56.108
 20
-261.734
 30
0.0
  0
INSERT
  5
C4
330
17
100
AcDbEntity
  8
0
100
AcDbBlockReference
  2
HEX
 10
59.639
 20
-261.734
 30
0.0
  0
LWPOLYLINE
  5
C6
330
17
100
AcDbEntity
  8
0
100
AcDbPolyline
 90
6
 70
1
 10
62.705
 20
-263.215
 10
61.655
 20
-262.609
 10
61.655
 20
-260.859
 10
63.17
 20
-259.984
 10
63.856
 20
-260.38
 10
62.705
 20
-263.215
  0
LWPOLYLINE
  5
C7
330
17
100
AcDbEntity
  8
0
100
AcDbPolyline
 90
6
 70
1
 10
27.502
 20
-257.739
 10
27.609
 20
-257.801
 10
27.609
 20
-259.551
 10
26.094
 20
-260.426
 10
25.98
 20
-260.36
 10
27.502
 20
-257.739
  0
INSERT
  5
C8
330
17
100
AcDbEntity
  8
0
100
AcDbBlockReference
  2
HEX
 10
29.625
 20
-258.676
 30
0.0
  0
INSERT
  5
CA
330
17
100
AcDbEntity
  8
0
100
AcDbBlockReference
  2
HEX
 10
33.156
 20
-258.676
 30
0.0
  0
INSERT
  5
CC
330
17
100
AcDbEntity
  8
0
100
AcDbBlockReference
  2
HEX
 10
36.687
 20
-258.676
 30
0.0
  0
INSERT
  5
CE
330
17
100
AcDbEntity
  8
0
100
AcDbBlockReference
  2
HEX
 10
40.218
 20
-258.676
 30
0.0
  0
INSERT
  5
D0
330
17
100
AcDbEntity
  8
0
100
AcDbBlockReference
  2
HEX
 10
43.749
 20
-258.676
 30
0.0
  0
INSERT
  5
D2
330
17
100
AcDbEntity
  8
0
100
AcDbBlockReference
  2
HEX
 10
47.28
 20
-258.676
 30
0.0
  0
INSERT
  5
D4
330
17
100
AcDbEntity
  8
0
100
AcDbBlockReference
  2
HEX
 10
50.811
 20
-258.676
 30
0.0
  0
INSERT
  5
D6
330
17
100
AcDbEntity
  8
0
100
AcDbBlockReference
  2
HEX
 10
54.342
 20
-258.676
 30
0.0
  0
INSERT
  5
D8
330
17
100
AcDbEntity
  8
0
100
AcDbBlockReference
  2
HEX
 10
57.874
 20
-258.676
 30
0.0
  0
INSERT
  5
DA
330
17
100
AcDbEntity
  8
0
100
AcDbBlockReference
  2
HEX
 10
61.405
 20
-258.676
 30
0.0
  0
LWPOLYLINE
  5
DC
330
17
100
AcDbEntity
  8
0
100
AcDbPolyline
 90
6
 70
1
 10
64.046
 20
-259.912
 10
63.42
 20
-259.551
 10
63.42
 20
-257.801
 10
64.936
 20
-256.926
 10
65.197
 20
-257.077
 10
64.046
 20
-259.912
  0
LWPOLYLINE
  5
DD
330
17
100
AcDbEntity
  8
0
100
AcDbPolyline
 90
6
 70
1
 10
29.276
 20
-254.686
 10
29.375
 20
-254.743
 10
29.375
 20
-256.493
 10
27.859
 20
-257.368
 10
27.754
 20
-257.307
 10
29.276
 20
-254.686
  0
INSERT
  5
DE
330
17
100
AcDbEntity
  8
0
100
AcDbBlockReference
  2
HEX
 10
31.39
 20
-255.618
 30
0.0
  0
INSERT
  5
E0
330
17
100
AcDbEntity
  8
0
100
AcDbBlockReference
  2
HEX
 10
34.921
 20
-255.618
 30
0.0
  0
INSERT
  5
E2
330
17
100
AcDbEntity
  8
0
100
AcDbBlockReference
  2
HEX
 10
38.453
 20
-255.618
 30
0.0
  0
INSERT
  5
E4
330
17
100
AcDbEntity
  8
0
100
AcDbBlockReference
  2
HEX
 10
41.984
 20
-255.618
 30
0.0
  0
INSERT
  5
E6
330
17
100
AcDbEntity
  8
0
100
AcDbBlockReference
  2
HEX
 10
45.515
 20
-255.618
 30
0.0
  0
INSERT
  5
E8
330
17
100
AcDbEntity
  8
0
100
AcDbBlockReference
  2
HEX
 10
49.046
 20
-255.618
 30
0.0
  0
INSERT
  5
EA
330
17
100
AcDbEntity
  8
0
100
AcDbBlockReference
  2
HEX
 10
52.577
 20
-255.618
 30
0.0
  0
INSERT
  5
EC
330
17
100
AcDbEntity
  8
0
100
AcDbBlockReference
  2
HEX
 10
56.108
 20
-255.618
 30
0.0
  0
INSERT
  5
EE
330
17
100
AcDbEntity
  8
0
100
AcDbBlockReference
  2
HEX
 10
59.639
 20
-255.618
 30
0.0
  0
INSERT
  5
F0
330
17
100
AcDbEntity
  8
0
100
AcDbBlockReference
  2
HEX
 10
63.17
 20
-255.618
 30
0.0
  0
LWPOLYLINE
  5
F2
330
17
100
AcDbEntity
  8
0
100
AcDbPolyline
 90
12
 70
1
 10
67.341
 20
-254.938
 10
66.239
 20
-255.506
 10
66.006
 20
-255.667
 10
65.802
 20
-255.856
 10
65.631
 20
-256.071
 10
65.559
 20
-256.186
 10
65.387
 20
-256.609
 10
65.186
 20
-256.493
 10
65.186
 20
-254.743
 10
66.701
 20
-253.868
 10
67.919
 20
-254.571
 10
67.341
 20
-254.938
  0
LWPOLYLINE
  5
F3
330
17
100
AcDbEntity
  8
0
100
AcDbPolyline
 90
6
 70
1
 10
31.05
 20
-251.632
 10
31.14
 20
-251.685
 10
31.14
 20
-253.435
 10
29.625
 20
-254.31
 10
29.527
 20
-254.253
 10
31.05
 20
-251.632
  0
INSERT
  5
F4
330
17
100
AcDbEntity
  8
0
100
AcDbBlockReference
  2
HEX
 10
33.156
 20
-252.56
 30
0.0
  0
INSERT
  5
F6
330
17
100
AcDbEntity
  8
0
100
AcDbBlockReference
  2
HEX
 10
36.687
 20
-252.56
 30
0.0
  0
INSERT
  5
F8
330
17
100
AcDbEntity
  8
0
100
AcDbBlockReference
  2
HEX
 10
40.218
 20
-252.56
 30
0.0
  0
INSERT
  5
FA
330
17
100
AcDbEntity
  8
0
100
AcDbBlockReference
  2
HEX
 10
43.749
 20
-252.56
 30
0.0
  0
INSERT
  5
FC
330
17
100
AcDbEntity
  8
0
100
AcDbBlockReference
  2
HEX
 10
47.28
 20
-252.56
 30
0.0
  0
INSERT
  5
FE
330
17
100
AcDbEntity
  8
0
100
AcDbBlockReference
  2
HEX
 10
50.811
 20
-252.56
 30
0.0
  0
INSERT
  5
100
330
17
100
AcDbEntity
  8
0
100
AcDbBlockReference
  2
HEX
 10
54.342
 20
-252.56
 30
0.0
  0
INSERT
  5
102
330
17
100
AcDbEntity
  8
0
100
AcDbBlockReference
  2
HEX
 10
57.874
 20
-252.56
 30
0.0
  0
INSERT
  5
104
330
17
100
AcDbEntity
  8
0
100
AcDbBlockReference
  2
HEX
 10
61.405
 20
-252.56
 30
0.0
  0
INSERT
  5
106
330
17
100
AcDbEntity
  8
0
100
AcDbBlockReference
  2
HEX
 10
64.936
 20
-252.56
 30
0.0
  0
LWPOLYLINE
  5
108
330
17
100
AcDbEntity
  8
0
100
AcDbPolyline
 90
16
 70
1
 10
68.796
 20
-251.541
 10
68.929
 20
-251.94
 10
69.011
 20
-252.34
 10
69.032
 20
-252.738
 10
69.016
 20
-252.936
 10
68.981
 20
-253.132
 10
68.926
 20
-253.327
 10
68.849
 20
-253.519
 10
68.749
 20
-253.709
 10
68.625
 20
-253.897
 10
68.423
 20
-254.138
 10
68.327
 20
-254.229
 10
66.951
 20
-253.435
 10
66.951
 20
-251.685
 10
68.448
 20
-250.82
 10
68.796
 20
-251.541
  0
LWPOLYLINE
  5
109
330
17
100
AcDbEntity
  8
0
100
AcDbPolyline
 90
6
 70
1
 10
32.824
 20
-248.579
 10
32.906
 20
-248.627
 10
32.906
 20
-250.377
 10
31.39
 20
-251.252
 10
31.301
 20
-251.2
 10
32.824
 20
-248.579
  0
INSERT
  5
10A
330
17
100
AcDbEntity
  8
0
100
AcDbBlockReference
  2
HEX
 10
34.921
 20
-249.502
 30
0.0
  0
INSERT
  5
10C
330
17
100
AcDbEntity
  8
0
100
AcDbBlockReference
  2
HEX
 10
38.453
 20
-249.502
 30
0.0
  0
INSERT
  5
10E
330
17
100
AcDbEntity
  8
0
100
AcDbBlockReference
  2
HEX
 10
41.984
 20
-249.502
 30
0.0
  0
INSERT
  5
110
330
17
100
AcDbEntity
  8
0
100
AcDbBlockReference
  2
HEX
 10
45.515
 20
-249.502
 30
0.0
  0
INSERT
  5
112
330
17
100
AcDbEntity
  8
0
100
AcDbBlockReference
  2
HEX
 10
49.046
 20
-249.502
 30
0.0
  0
INSERT
  5
114
330
17
100
AcDbEntity
  8
0
100
AcDbBlockReference
  2
HEX
 10
52.577
 20
-249.502
 30
0.0
  0
INSERT
  5
116
330
17
100
AcDbEntity
  8
0
100
AcDbBlockReference
  2
HEX
 10
56.108
 20
-249.502
 30
0.0
  0
INSERT
  5
118
330
17
100
AcDbEntity
  8
0
100
AcDbBlockReference
  2
HEX
 10
59.639
 20
-249.502
 30
0.0
  0
INSERT
  5
11A
330
17
100
AcDbEntity
  8
0
100
AcDbBlockReference
  2
HEX
 10
63.17
 20
-249.502
 30
0.0
  0
LWPOLYLINE
  5
11C
330
17
100
AcDbEntity
  8
0
100
AcDbPolyline
 90
8
 70
1
 10
68.217
 20
-248.627
 10
68.202
 20
-249.887
 10
68.217
 20
-250.377
 10
66.701
 20
-251.252
 10
65.186
 20
-250.377
 10
65.186
 20
-248.627
 10
66.701
 20
-247.752
 10
68.217
 20
-248.627
  0
LWPOLYLINE
  5
11D
330
17
100
AcDbEntity
  8
0
100
AcDbPolyline
 90
6
 70
1
 10
34.598
 20
-245.526
 10
34.671
 20
-245.569
 10
34.671
 20
-247.319
 10
33.156
 20
-248.194
 10
33.075
 20
-248.147
 10
34.598
 20
-245.526
  0
INSERT
  5
11E
330
17
100
AcDbEntity
  8
0
100
AcDbBlockReference
  2
HEX
 10
36.687
 20
-246.444
 30
0.0
  0
INSERT
  5
120
330
17
100
AcDbEntity
  8
0
100
AcDbBlockReference
  2
HEX
 10
40.218
 20
-246.444
 30
0.0
  0
INSERT
  5
122
330
17
100
AcDbEntity
  8
0
100
AcDbBlockReference
  2
HEX
 10
43.749
 20
-246.444
 30
0.0
  0
INSERT
  5
124
330
17
100
AcDbEntity
  8
0
100
AcDbBlockReference
  2
HEX
 10
47.28
 20
-246.444
 30
0.0
  0
INSERT
  5
126
330
17
100
AcDbEntity
  8
0
100
AcDbBlockReference
  2
HEX
 10
50.811
 20
-246.444
 30
0.0
  0
INSERT
  5
128
330
17
100
AcDbEntity
  8
0
100
AcDbBlockReference
  2
HEX
 10
54.342
 20
-246.444
 30
0.0
  0
INSERT
  5
12A
330
17
100
AcDbEntity
  8
0
100
AcDbBlockReference
  2
HEX
 10
57.874
 20
-246.444
 30
0.0
  0
INSERT
  5
12C
330
17
100
AcDbEntity
  8
0
100
AcDbBlockReference
  2
HEX
 10
61.405
 20
-246.444
 30
0.0
  0
INSERT
  5
12E
330
17
100
AcDbEntity
  8
0
100
AcDbBlockReference
  2
HEX
 10
64.936
 20
-246.444
 30
0.0
  0
LWPOLYLINE
  5
130
330
17
100
AcDbEntity
  8
0
100
AcDbPolyline
 90
7
 70
1
 10
68.832
 20
-247.983
 10
68.467
 20
-248.194
 10
66.951
 20
-247.319
 10
66.951
 20
-245.569
 10
68.467
 20
-244.694
 10
69.77
 20
-245.446
 10
68.832
 20
-247.983
  0
LWPOLYLINE
  5
131
330
17
100
AcDbEntity
  8
0
100
AcDbPolyline
 90
6
 70
1
 10
36.372
 20
-242.473
 10
36.437
 20
-242.511
 10
36.437
 20
-244.261
 10
34.921
 20
-245.136
 10
34.849
 20
-245.094
 10
36.372
 20
-242.473
  0
INSERT
  5
132
330
17
100
AcDbEntity
  8
0
100
AcDbBlockReference
  2
HEX
 10
38.453
 20
-243.386
 30
0.0
  0
INSERT
  5
134
330
17
100
AcDbEntity
  8
0
100
AcDbBlockReference
  2
HEX
 10
41.984
 20
-243.386
 30
0.0
  0
INSERT
  5
136
330
17
100
AcDbEntity
  8
0
100
AcDbBlockReference
  2
HEX
 10
45.515
 20
-243.386
 30
0.0
  0
INSERT
  5
138
330
17
100
AcDbEntity
  8
0
100
AcDbBlockReference
  2
HEX
 10
49.046
 20
-243.386
 30
0.0
  0
INSERT
  5
13A
330
17
100
AcDbEntity
  8
0
100
AcDbBlockReference
  2
HEX
 10
52.577
 20
-243.386
 30
0.0
  0
INSERT
  5
13C
330
17
100
AcDbEntity
  8
0
100
AcDbBlockReference
  2
HEX
 10
56.108
 20
-243.386
 30
0.0
  0
INSERT
  5
13E
330
17
100
AcDbEntity
  8
0
100
AcDbBlockReference
  2
HEX
 10
59.639
 20
-243.386
 30
0.0
  0
INSERT
  5
140
330
17
100
AcDbEntity
  8
0
100
AcDbBlockReference
  2
HEX
 10
63.17
 20
-243.386
 30
0.0
  0
INSERT
  5
142
330
17
100
AcDbEntity
  8
0
100
AcDbBlockReference
  2
HEX
 10
66.701
 20
-243.386
 30
0.0
  0
LWPOLYLINE
  5
144
330
17
100
AcDbEntity
  8
0
100
AcDbPolyline
 90
6
 70
1
 10
69.946
 20
-244.97
 10
68.717
 20
-244.261
 10
68.717
 20
-242.511
 10
70.232
 20
-241.636
 10
71.013
 20
-242.086
 10
69.946
 20
-244.97
  0
LWPOLYLINE
  5
145
330
17
100
AcDbEntity
  8
0
100
AcDbPolyline
 90
6
 70
1
 10
38.145
 20
-239.419
 10
38.203
 20
-239.452
 10
38.203
 20
-241.202
 10
36.687
 20
-242.077
 10
36.623
 20
-242.04
 10
38.145
 20
-239.419
  0
INSERT
  5
146
330
17
100
AcDbEntity
  8
0
100
AcDbBlockReference
  2
HEX
 10
40.218
 20
-240.327
 30
0.0
  0
INSERT
  5
148
330
17
100
AcDbEntity
  8
0
100
AcDbBlockReference
  2
HEX
 10
43.749
 20
-240.327
 30
0.0
  0
INSERT
  5
14A
330
17
100
AcDbEntity
  8
0
100
AcDbBlockReference
  2
HEX
 10
47.28
 20
-240.327
 30
0.0
  0
INSERT
  5
14C
330
17
100
AcDbEntity
  8
0
100
AcDbBlockReference
  2
HEX
 10
50.811
 20
-240.327
 30
0.0
  0
INSERT
  5
14E
330
17
100
AcDbEntity
  8
0
100
AcDbBlockReference
  2
HEX
 10
54.342
 20
-240.327
 30
0.0
  0
INSERT
  5
150
330
17
100
AcDbEntity
  8
0
100
AcDbBlockReference
  2
HEX
 10
57.874
 20
-240.327
 30
0.0
  0
INSERT
  5
152
330
17
100
AcDbEntity
  8
0
100
AcDbBlockReference
  2
HEX
 10
61.405
 20
-240.327
 30
0.0
  0
INSERT
  5
154
330
17
100
AcDbEntity
  8
0
100
AcDbBlockReference
  2
HEX
 10
64.936
 20
-240.327
 30
0.0
  0
INSERT
  5
156
330
17
100
AcDbEntity
  8
0
100
AcDbBlockReference
  2
HEX
 10
68.467
 20
-240.327
 30
0.0
  0
LWPOLYLINE
  5
158
330
17
100
AcDbEntity
  8
0
100
AcDbPolyline
 90
6
 70
1
 10
71.189
 20
-241.61
 10
70.482
 20
-241.202
 10
70.482
 20
-239.452
 10
71.998
 20
-238.577
 10
72.255
 20
-238.726
 10
71.189
 20
-241.61
  0
LWPOLYLINE
  5
159
330
17
100
AcDbEntity
  8
0
100
AcDbPolyline
 90
6
 70
1
 10
39.919
 20
-236.366
 10
39.968
 20
-236.394
 10
39.968
 20
-238.144
 10
38.453
 20
-239.019
 10
38.397
 20
-238.987
 10
39.919
 20
-236.366
  0
INSERT
  5
15A
330
17
100
AcDbEntity
  8
0
100
AcDbBlockReference
  2
HEX
 10
41.984
 20
-237.269
 30
0.0
  0
INSERT
  5
15C
330
17
100
AcDbEntity
  8
0
100
AcDbBlockReference
  2
HEX
 10
45.515
 20
-237.269
 30
0.0
  0
INSERT
  5
15E
330
17
100
AcDbEntity
  8
0
100
AcDbBlockReference
  2
HEX
 10
49.046
 20
-237.269
 30
0.0
  0
INSERT
  5
160
330
17
100
AcDbEntity
  8
0
100
AcDbBlockReference
  2
HEX
 10
52.577
 20
-237.269
 30
0.0
  0
INSERT
  5
162
330
17
100
AcDbEntity
  8
0
100
AcDbBlockReference
  2
HEX
 10
56.108
 20
-237.269
 30
0.0
  0
INSERT
  5
164
330
17
100
AcDbEntity
  8
0
100
AcDbBlockReference
  2
HEX
 10
59.639
 20
-237.269
 30
0.0
  0
INSERT
  5
166
330
17
100
AcDbEntity
  8
0
100
AcDbBlockReference
  2
HEX
 10
63.17
 20
-237.269
 30
0.0
  0
INSERT
  5
168
330
17
100
AcDbEntity
  8
0
100
AcDbBlockReference
  2
HEX
 10
66.701
 20
-237.269
 30
0.0
  0
INSERT
  5
16A
330
17
100
AcDbEntity
  8
0
100
AcDbBlockReference
  2
HEX
 10
70.232
 20
-237.269
 30
0.0
  0
LWPOLYLINE
  5
16C
330
17
100
AcDbEntity
  8
0
100
AcDbPolyline
 90
5
 70
1
 10
72.431
 20
-238.25
 10
72.248
 20
-238.144
 10
72.248
 20
-236.394
 10
73.354
 20
-235.756
 10
72.431
 20
-238.25
  0
LWPOLYLINE
  5
16D
330
17
100
AcDbEntity
  8
0
100
AcDbPolyline
 90
7
 70
1
 10
40.657
 20
-235.096
 10
41.43
 20
-233.161
 10
41.734
 20
-233.336
 10
41.734
 20
-235.086
 10
40.218
 20
-235.961
 10
40.17
 20
-235.934
 10
40.657
 20
-235.096
  0
INSERT
  5
16E
330
17
100
AcDbEntity
  8
0
100
AcDbBlockReference
  2
HEX
 10
43.749
 20
-234.211
 30
0.0
  0
INSERT
  5
170
330
17
100
AcDbEntity
  8
0
100
AcDbBlockReference
  2
HEX
 10
47.28
 20
-234.211
 30
0.0
  0
INSERT
  5
172
330
17
100
AcDbEntity
  8
0
100
AcDbBlockReference
  2
HEX
 10
50.811
 20
-234.211
 30
0.0
  0
INSERT
  5
174
330
17
100
AcDbEntity
  8
0
100
AcDbBlockReference
  2
HEX
 10
54.342
 20
-234.211
 30
0.0
  0
INSERT
  5
176
330
17
100
AcDbEntity
  8
0
100
AcDbBlockReference
  2
HEX
 10
57.874
 20
-234.211
 30
0.0
  0
INSERT
  5
178
330
17
100
AcDbEntity
  8
0
100
AcDbBlockReference
  2
HEX
 10
61.405
 20
-234.211
 30
0.0
  0
INSERT
  5
17A
330
17
100
AcDbEntity
  8
0
100
AcDbBlockReference
  2
HEX
 10
64.936
 20
-234.211
 30
0.0
  0
INSERT
  5
17C
330
17
100
AcDbEntity
  8
0
100
AcDbBlockReference
  2
HEX
 10
68.467
 20
-234.211
 30
0.0
  0
INSERT
  5
17E
330
17
100
AcDbEntity
  8
0
100
AcDbBlockReference
  2
HEX
 10
71.998
 20
-234.211
 30
0.0
  0
LWPOLYLINE
  5
180
330
17
100
AcDbEntity
  8
0
100
AcDbPolyline
 90
4
 70
1
 10
74.013
 20
-233.972
 10
74.013
 20
-233.336
 10
74.312
 20
-233.164
 10
74.013
 20
-233.972
  0
LWPOLYLINE
  5
181
330
17
100
AcDbEntity
  8
0
100
AcDbPolyline
 90
6
 70
1
 10
42.753
 20
-229.848
 10
43.499
 20
-230.278
 10
43.499
 20
-232.028
 10
41.984
 20
-232.903
 10
41.617
 20
-232.692
 10
42.753
 20
-229.848
  0
INSERT
  5
182
330
17
100
AcDbEntity
  8
0
100
AcDbBlockReference
  2
HEX
 10
45.515
 20
-231.153
 30
0.0
  0
INSERT
  5
184
330
17
100
AcDbEntity
  8
0
100
AcDbBlockReference
  2
HEX
 10
49.046
 20
-231.153
 30
0.0
  0
INSERT
  5
186
330
17
100
AcDbEntity
  8
0
100
AcDbBlockReference
  2
HEX
 10
52.577
 20
-231.153
 30
0.0
  0
INSERT
  5
188
330
17
100
AcDbEntity
  8
0
100
AcDbBlockReference
  2
HEX
 10
56.108
 20
-231.153
 30
0.0
  0
INSERT
  5
18A
330
17
100
AcDbEntity
  8
0
100
AcDbBlockReference
  2
HEX
 10
59.639
 20
-231.153
 30
0.0
  0
INSERT
  5
18C
330
17
100
AcDbEntity
  8
0
100
AcDbBlockReference
  2
HEX
 10
63.17
 20
-231.153
 30
0.0
  0
INSERT
  5
18E
330
17
100
AcDbEntity
  8
0
100
AcDbBlockReference
  2
HEX
 10
66.701
 20
-231.153
 30
0.0
  0
INSERT
  5
190
330
17
100
AcDbEntity
  8
0
100
AcDbBlockReference
  2
HEX
 10
70.232
 20
-231.153
 30
0.0
  0
LWPOLYLINE
  5
192
330
17
100
AcDbEntity
  8
0
100
AcDbPolyline
 90
8
 70
1
 10
74.584
 20
-232.43
 10
73.763
 20
-232.903
 10
72.248
 20
-232.028
 10
72.248
 20
-230.278
 10
73.763
 20
-229.403
 10
75.279
 20
-230.278
 10
75.279
 20
-230.549
 10
74.584
 20
-232.43
  0
LWPOLYLINE
  5
193
330
17
100
AcDbEntity
  8
0
100
AcDbPolyline
 90
7
 70
1
 10
43.021
 20
-229.179
 10
43.767
 20
-226.356
 10
45.265
 20
-227.22
 10
45.265
 20
-228.97
 10
43.749
 20
-229.845
 10
42.941
 20
-229.379
 10
43.021
 20
-229.179
  0
INSERT
  5
194
330
17
100
AcDbEntity
  8
0
100
AcDbBlockReference
  2
HEX
 10
47.28
 20
-228.095
 30
0.0
  0
INSERT
  5
196
330
17
100
AcDbEntity
  8
0
100
AcDbBlockReference
  2
HEX
 10
50.811
 20
-228.095
 30
0.0
  0
INSERT
  5
198
330
17
100
AcDbEntity
  8
0
100
AcDbBlockReference
  2
HEX
 10
54.342
 20
-228.095
 30
0.0
  0
INSERT
  5
19A
330
17
100
AcDbEntity
  8
0
100
AcDbBlockReference
  2
HEX
 10
57.874
 20
-228.095
 30
0.0
  0
INSERT
  5
19C
330
17
100
AcDbEntity
  8
0
100
AcDbBlockReference
  2
HEX
 10
61.405
 20
-228.095
 30
0.0
  0
INSERT
  5
19E
330
17
100
AcDbEntity
  8
0
100
AcDbBlockReference
  2
HEX
 10
64.936
 20
-228.095
 30
0.0
  0
INSERT
  5
1A0
330
17
100
AcDbEntity
  8
0
100
AcDbBlockReference
  2
HEX
 10
68.467
 20
-228.095
 30
0.0
  0
INSERT
  5
1A2
330
17
100
AcDbEntity
  8
0
100
AcDbBlockReference
  2
HEX
 10
71.998
 20
-228.095
 30
0.0
  0
LWPOLYLINE
  5
1A4
330
17
100
AcDbEntity
  8
0
100
AcDbPolyline
 90
6
 70
1
 10
76.604
 20
-226.966
 10
75.529
 20
-229.845
 10
74.013
 20
-228.97
 10
74.013
 20
-227.22
 10
75.529
 20
-226.345
 10
76.604
 20
-226.966
  0
LWPOLYLINE
  5
1A5
330
17
100
AcDbEntity
  8
0
100
AcDbPolyline
 90
8
 70
1
 10
44.125
 20
-224.09
 10
45.515
 20
-223.287
 10
47.03
 20
-224.162
 10
47.03
 20
-225.912
 10
45.515
 20
-226.787
 10
43.999
 20
-225.912
 10
43.999
 20
-224.943
 10
44.125
 20
-224.09
  0
INSERT
  5
1A6
330
17
100
AcDbEntity
  8
0
100
AcDbBlockReference
  2
HEX
 10
49.046
 20
-225.037
 30
0.0
  0
INSERT
  5
1A8
330
17
100
AcDbEntity
  8
0
100
AcDbBlockReference
  2
HEX
 10
52.577
 20
-225.037
 30
0.0
  0
INSERT
  5
1AA
330
17
100
AcDbEntity
  8
0
100
AcDbBlockReference
  2
HEX
 10
56.108
 20
-225.037
 30
0.0
  0
INSERT
  5
1AC
330
17
100
AcDbEntity
  8
0
100
AcDbBlockReference
  2
HEX
 10
59.639
 20
-225.037
 30
0.0
  0
INSERT
  5
1AE
330
17
100
AcDbEntity
  8
0
100
AcDbBlockReference
  2
HEX
 10
63.17
 20
-225.037
 30
0.0
  0
INSERT
  5
1B0
330
17
100
AcDbEntity
  8
0
100
AcDbBlockReference
  2
HEX
 10
66.701
 20
-225.037
 30
0.0
  0
INSERT
  5
1B2
330
17
100
AcDbEntity
  8
0
100
AcDbBlockReference
  2
HEX
 10
70.232
 20
-225.037
 30
0.0
  0
INSERT
  5
1B4
330
17
100
AcDbEntity
  8
0
100
AcDbBlockReference
  2
HEX
 10
73.763
 20
-225.037
 30
0.0
  0
LWPOLYLINE
  5
1B6
330
17
100
AcDbEntity
  8
0
100
AcDbPolyline
 90
6
 70
1
 10
76.786
 20
-226.494
 10
75.779
 20
-225.912
 10
75.779
 20
-224.162
 10
77.295
 20
-223.287
 10
78.188
 20
-223.804
 10
76.786
 20
-226.494
  0
LWPOLYLINE
  5
1B7
330
17
100
AcDbEntity
  8
0
100
AcDbPolyline
 90
7
 70
1
 10
44.269
 20
-223.108
 10
44.337
 20
-221.593
 10
44.303
 20
-220.549
 10
45.265
 20
-221.104
 10
45.265
 20
-222.854
 10
44.217
 20
-223.459
 10
44.269
 20
-223.108
  0
INSERT
  5
1B8
330
17
100
AcDbEntity
  8
0
100
AcDbBlockReference
  2
HEX
 10
47.28
 20
-221.979
 30
0.0
  0
INSERT
  5
1BA
330
17
100
AcDbEntity
  8
0
100
AcDbBlockReference
  2
HEX
 10
50.811
 20
-221.979
 30
0.0
  0
INSERT
  5
1BC
330
17
100
AcDbEntity
  8
0
100
AcDbBlockReference
  2
HEX
 10
54.342
 20
-221.979
 30
0.0
  0
INSERT
  5
1BE
330
17
100
AcDbEntity
  8
0
100
AcDbBlockReference
  2
HEX
 10
57.874
 20
-221.979
 30
0.0
  0
INSERT
  5
1C0
330
17
100
AcDbEntity
  8
0
100
AcDbBlockReference
  2
HEX
 10
61.405
 20
-221.979
 30
0.0
  0
INSERT
  5
1C2
330
17
100
AcDbEntity
  8
0
100
AcDbBlockReference
  2
HEX
 10
64.936
 20
-221.979
 30
0.0
  0
INSERT
  5
1C4
330
17
100
AcDbEntity
  8
0
100
AcDbBlockReference
  2
HEX
 10
68.467
 20
-221.979
 30
0.0
  0
INSERT
  5
1C6
330
17
100
AcDbEntity
  8
0
100
AcDbBlockReference
  2
HEX
 10
71.998
 20
-221.979
 30
0.0
  0
INSERT
  5
1C8
330
17
100
AcDbEntity
  8
0
100
AcDbBlockReference
  2
HEX
 10
75.529
 20
-221.979
 30
0.0
  0
LWPOLYLINE
  5
1CA
330
17
100
AcDbEntity
  8
0
100
AcDbPolyline
 90
8
 70
1
 10
80.118
 20
-220.989
 10
79.153
 20
-222.27
 10
78.444
 20
-223.374
 10
77.545
 20
-222.854
 10
77.545
 20
-221.104
 10
79.06
 20
-220.229
 10
80.207
 20
-220.891
 10
80.118
 20
-220.989
  0
LWPOLYLINE
  5
1CB
330
17
100
AcDbEntity
  8
0
100
AcDbPolyline
 90
8
 70
1
 10
44.12
 20
-218.636
 10
44.002
 20
-218.045
 10
45.515
 20
-217.171
 10
47.03
 20
-218.046
 10
47.03
 20
-219.796
 10
45.515
 20
-220.671
 10
44.272
 20
-219.954
 10
44.12
 20
-218.636
  0
INSERT
  5
1CC
330
17
100
AcDbEntity
  8
0
100
AcDbBlockReference
  2
HEX
 10
49.046
 20
-218.921
 30
0.0
  0
INSERT
  5
1CE
330
17
100
AcDbEntity
  8
0
100
AcDbBlockReference
  2
HEX
 10
52.577
 20
-218.921
 30
0.0
  0
INSERT
  5
1D0
330
17
100
AcDbEntity
  8
0
100
AcDbBlockReference
  2
HEX
 10
56.108
 20
-218.921
 30
0.0
  0
INSERT
  5
1D2
330
17
100
AcDbEntity
  8
0
100
AcDbBlockReference
  2
HEX
 10
59.639
 20
-218.921
 30
0.0
  0
INSERT
  5
1D4
330
17
100
AcDbEntity
  8
0
100
AcDbBlockReference
  2
HEX
 10
63.17
 20
-218.921
 30
0.0
  0
INSERT
  5
1D6
330
17
100
AcDbEntity
  8
0
100
AcDbBlockReference
  2
HEX
 10
66.701
 20
-218.921
 30
0.0
  0
INSERT
  5
1D8
330
17
100
AcDbEntity
  8
0
100
AcDbBlockReference
  2
HEX
 10
70.232
 20
-218.921
 30
0.0
  0
INSERT
  5
1DA
330
17
100
AcDbEntity
  8
0
100
AcDbBlockReference
  2
HEX
 10
73.763
 20
-218.921
 30
0.0
  0
INSERT
  5
1DC
330
17
100
AcDbEntity
  8
0
100
AcDbBlockReference
  2
HEX
 10
77.295
 20
-218.921
 30
0.0
  0
LWPOLYLINE
  5
1DE
330
17
100
AcDbEntity
  8
0
100
AcDbPolyline
 90
8
 70
1
 10
81.186
 20
-219.802
 10
80.548
 20
-220.511
 10
79.31
 20
-219.796
 10
79.31
 20
-218.046
 10
80.826
 20
-217.171
 10
82.341
 20
-218.046
 10
82.341
 20
-218.744
 10
81.186
 20
-219.802
  0
LWPOLYLINE
  5
1DF
330
17
100
AcDbEntity
  8
0
100
AcDbPolyline
 90
6
 70
1
 10
83.672
 20
-217.757
 10
82.841
 20
-218.37
 10
82.841
 20
-218.046
 10
84.357
 20
-217.171
 10
84.521
 20
-217.266
 10
83.672
 20
-217.757
  0
LWPOLYLINE
  5
1E0
330
17
100
AcDbEntity
  8
0
100
AcDbPolyline
 90
9
 70
1
 10
43.851
 20
-217.286
 10
43.481
 20
-216.005
 10
43.016
 20
-214.795
 10
42.918
 20
-214.593
 10
43.749
 20
-214.113
 10
45.265
 20
-214.988
 10
45.265
 20
-216.738
 10
43.899
 20
-217.527
 10
43.851
 20
-217.286
  0
INSERT
  5
1E1
330
17
100
AcDbEntity
  8
0
100
AcDbBlockReference
  2
HEX
 10
47.28
 20
-215.863
 30
0.0
  0
INSERT
  5
1E3
330
17
100
AcDbEntity
  8
0
100
AcDbBlockReference
  2
HEX
 10
50.811
 20
-215.863
 30
0.0
  0
INSERT
  5
1E5
330
17
100
AcDbEntity
  8
0
100
AcDbBlockReference
  2
HEX
 10
54.342
 20
-215.863
 30
0.0
  0
INSERT
  5
1E7
330
17
100
AcDbEntity
  8
0
100
AcDbBlockReference
  2
HEX
 10
57.874
 20
-215.863
 30
0.0
  0
INSERT
  5
1E9
330
17
100
AcDbEntity
  8
0
100
AcDbBlockReference
  2
HEX
 10
61.405
 20
-215.863
 30
0.0
  0
INSERT
  5
1EB
330
17
100
AcDbEntity
  8
0
100
AcDbBlockReference
  2
HEX
 10
64.936
 20
-215.863
 30
0.0
  0
INSERT
  5
1ED
330
17
100
AcDbEntity
  8
0
100
AcDbBlockReference
  2
HEX
 10
68.467
 20
-215.863
 30
0.0
  0
INSERT
  5
1EF
330
17
100
AcDbEntity
  8
0
100
AcDbBlockReference
  2
HEX
 10
71.998
 20
-215.863
 30
0.0
  0
INSERT
  5
1F1
330
17
100
AcDbEntity
  8
0
100
AcDbBlockReference
  2
HEX
 10
75.529
 20
-215.863
 30
0.0
  0
INSERT
  5
1F3
330
17
100
AcDbEntity
  8
0
100
AcDbBlockReference
  2
HEX
 10
79.06
 20
-215.863
 30
0.0
  0
INSERT
  5
1F5
330
17
100
AcDbEntity
  8
0
100
AcDbBlockReference
  2
HEX
 10
82.591
 20
-215.863
 30
0.0
  0
LWPOLYLINE
  5
1F7
330
17
100
AcDbEntity
  8
0
100
AcDbPolyline
 90
9
 70
1
 10
86.822
 20
-216.169
 10
85.111
 20
-216.925
 10
85.021
 20
-216.978
 10
84.607
 20
-216.738
 10
84.607
 20
-214.988
 10
86.122
 20
-214.113
 10
87.638
 20
-214.988
 10
87.638
 20
-215.893
 10
86.822
 20
-216.169
  0
LWPOLYLINE
  5
1F8
330
17
100
AcDbEntity
  8
0
100
AcDbPolyline
 90
6
 70
1
 10
88.602
 20
-215.567
 10
88.138
 20
-215.724
 10
88.138
 20
-214.988
 10
89.653
 20
-214.113
 10
91.15
 20
-214.978
 10
88.602
 20
-215.567
  0
LWPOLYLINE
  5
1F9
330
17
100
AcDbEntity
  8
0
100
AcDbPolyline
 90
5
 70
1
 10
92.299
 20
-214.712
 10
92.047
 20
-214.77
 10
93.184
 20
-214.113
 10
93.824
 20
-214.483
 10
92.299
 20
-214.712
  0
LWPOLYLINE
  5
1FA
330
17
100
AcDbEntity
  8
0
100
AcDbPolyline
 90
8
 70
1
 10
42.459
 20
-213.653
 10
41.814
 20
-212.58
 10
41.084
 20
-211.575
 10
41.984
 20
-211.055
 10
43.499
 20
-211.93
 10
43.499
 20
-213.68
 10
42.698
 20
-214.143
 10
42.459
 20
-213.653
  0
INSERT
  5
1FB
330
17
100
AcDbEntity
  8
0
100
AcDbBlockReference
  2
HEX
 10
45.515
 20
-212.805
 30
0.0
  0
LWPOLYLINE
  5
1FD
330
17
100
AcDbEntity
  8
0
100
AcDbPolyline
 90
11
 70
1
 10
48.791
 20
-211.208
 10
49.058
 20
-211.313
 10
49.198
 20
-211.35
 10
49.487
 20
-211.392
 10
49.627
 20
-211.391
 10
50.561
 20
-211.93
 10
50.561
 20
-213.68
 10
49.046
 20
-214.555
 10
47.53
 20
-213.68
 10
47.53
 20
-211.93
 10
48.791
 20
-211.208
  0
LWPOLYLINE
  5
1FE
330
17
100
AcDbEntity
  8
0
100
AcDbPolyline
 90
8
 70
1
 10
53.122
 20
-211.37
 10
54.092
 20
-211.93
 10
54.092
 20
-213.68
 10
52.577
 20
-214.555
 10
51.061
 20
-213.68
 10
51.061
 20
-211.93
 10
52.02
 20
-211.377
 10
53.122
 20
-211.37
  0
LWPOLYLINE
  5
1FF
330
17
100
AcDbEntity
  8
0
100
AcDbPolyline
 90
8
 70
1
 10
56.617
 20
-211.349
 10
57.624
 20
-211.93
 10
57.624
 20
-213.68
 10
56.108
 20
-214.555
 10
54.592
 20
-213.68
 10
54.592
 20
-211.93
 10
55.589
 20
-211.355
 10
56.617
 20
-211.349
  0
LWPOLYLINE
  5
200
330
17
100
AcDbEntity
  8
0
100
AcDbPolyline
 90
8
 70
1
 10
60.111
 20
-211.328
 10
61.155
 20
-211.93
 10
61.155
 20
-213.68
 10
59.639
 20
-214.555
 10
58.124
 20
-213.68
 10
58.124
 20
-211.93
 10
59.157
 20
-211.334
 10
60.111
 20
-211.328
  0
LWPOLYLINE
  5
201
330
17
100
AcDbEntity
  8
0
100
AcDbPolyline
 90
8
 70
1
 10
63.606
 20
-211.307
 10
64.686
 20
-211.93
 10
64.686
 20
-213.68
 10
63.17
 20
-214.555
 10
61.655
 20
-213.68
 10
61.655
 20
-211.93
 10
62.725
 20
-211.312
 10
63.606
 20
-211.307
  0
LWPOLYLINE
  5
202
330
17
100
AcDbEntity
  8
0
100
AcDbPolyline
 90
8
 70
1
 10
67.101
 20
-211.286
 10
68.217
 20
-211.93
 10
68.217
 20
-213.68
 10
66.701
 20
-214.555
 10
65.186
 20
-213.68
 10
65.186
 20
-211.93
 10
66.293
 20
-211.291
 10
67.101
 20
-211.286
  0
LWPOLYLINE
  5
203
330
17
100
AcDbEntity
  8
0
100
AcDbPolyline
 90
8
 70
1
 10
70.595
 20
-211.265
 10
71.748
 20
-211.93
 10
71.748
 20
-213.68
 10
70.232
 20
-214.555
 10
68.717
 20
-213.68
 10
68.717
 20
-211.93
 10
69.862
 20
-211.269
 10
70.595
 20
-211.265
  0
LWPOLYLINE
  5
204
330
17
100
AcDbEntity
  8
0
100
AcDbPolyline
 90
8
 70
1
 10
74.09
 20
-211.244
 10
75.279
 20
-211.93
 10
75.279
 20
-213.68
 10
73.763
 20
-214.555
 10
72.248
 20
-213.68
 10
72.248
 20
-211.93
 10
73.43
 20
-211.248
 10
74.09
 20
-211.244
  0
LWPOLYLINE
  5
205
330
17
100
AcDbEntity
  8
0
100
AcDbPolyline
 90
8
 70
1
 10
77.585
 20
-211.223
 10
78.81
 20
-211.93
 10
78.81
 20
-213.68
 10
77.295
 20
-214.555
 10
75.779
 20
-213.68
 10
75.779
 20
-211.93
 10
76.998
 20
-211.226
 10
77.585
 20
-211.223
  0
INSERT
  5
206
330
17
100
AcDbEntity
  8
0
100
AcDbBlockReference
  2
HEX
 10
80.826
 20
-212.805
 30
0.0
  0
INSERT
  5
208
330
17
100
AcDbEntity
  8
0
100
AcDbBlockReference
  2
HEX
 10
84.357
 20
-212.805
 30
0.0
  0
INSERT
  5
20A
330
17
100
AcDbEntity
  8
0
100
AcDbBlockReference
  2
HEX
 10
87.888
 20
-212.805
 30
0.0
  0
INSERT
  5
20C
330
17
100
AcDbEntity
  8
0
100
AcDbBlockReference
  2
HEX
 10
91.419
 20
-212.805
 30
0.0
  0
LWPOLYLINE
  5
20E
330
17
100
AcDbEntity
  8
0
100
AcDbPolyline
 90
8
 70
1
 10
94.618
 20
-214.364
 10
93.434
 20
-213.68
 10
93.434
 20
-211.93
 10
94.95
 20
-211.055
 10
96.466
 20
-211.93
 10
96.466
 20
-213.68
 10
95.515
 20
-214.229
 10
94.618
 20
-214.364
  0
LWPOLYLINE
  5
20F
330
17
100
AcDbEntity
  8
0
100
AcDbPolyline
 90
8
 70
1
 10
99.779
 20
-213.589
 10
97.421
 20
-213.943
 10
96.966
 20
-213.68
 10
96.966
 20
-211.93
 10
98.481
 20
-211.055
 10
99.997
 20
-211.93
 10
99.997
 20
-213.539
 10
99.779
 20
-213.589
  0
LWPOLYLINE
  5
210
330
17
100
AcDbEntity
  8
0
100
AcDbPolyline
 90
9
 70
1
 10
102.805
 20
-212.03
 10
102.293
 20
-212.487
 10
101.728
 20
-212.876
 10
101.116
 20
-213.193
 10
100.497
 20
-213.42
 10
100.497
 20
-211.93
 10
102.012
 20
-211.055
 10
103.105
 20
-211.686
 10
102.805
 20
-212.03
  0
LWPOLYLINE
  5
211
330
17
100
AcDbEntity
  8
0
100
AcDbPolyline
 90
9
 70
1
 10
40.275
 20
-210.639
 10
39.389
 20
-209.77
 10
38.703
 20
-209.195
 10
38.703
 20
-208.872
 10
40.218
 20
-207.997
 10
41.734
 20
-208.872
 10
41.734
 20
-210.622
 10
40.751
 20
-211.19
 10
40.275
 20
-210.639
  0
INSERT
  5
212
330
17
100
AcDbEntity
  8
0
100
AcDbBlockReference
  2
HEX
 10
43.749
 20
-209.747
 30
0.0
  0
LWPOLYLINE
  5
214
330
17
100
AcDbEntity
  8
0
100
AcDbPolyline
 90
9
 70
1
 10
47.896
 20
-210.305
 10
47.964
 20
-210.435
 10
48.126
 20
-210.676
 10
48.328
 20
-210.893
 10
47.28
 20
-211.497
 10
45.765
 20
-210.622
 10
45.765
 20
-208.872
 10
47.091
 20
-208.107
 10
47.896
 20
-210.305
  0
LWPOLYLINE
  5
215
330
17
100
AcDbEntity
  8
0
100
AcDbPolyline
 90
4
 70
1
 10
51.01
 20
-211.383
 10
50.811
 20
-211.497
 10
50.617
 20
-211.385
 10
51.01
 20
-211.383
  0
LWPOLYLINE
  5
216
330
17
100
AcDbEntity
  8
0
100
AcDbPolyline
 90
4
 70
1
 10
54.578
 20
-211.361
 10
54.342
 20
-211.497
 10
54.112
 20
-211.364
 10
54.578
 20
-211.361
  0
LWPOLYLINE
  5
217
330
17
100
AcDbEntity
  8
0
100
AcDbPolyline
 90
4
 70
1
 10
58.146
 20
-211.34
 10
57.874
 20
-211.497
 10
57.606
 20
-211.343
 10
58.146
 20
-211.34
  0
LWPOLYLINE
  5
218
330
17
100
AcDbEntity
  8
0
100
AcDbPolyline
 90
4
 70
1
 10
61.715
 20
-211.318
 10
61.405
 20
-211.497
 10
61.101
 20
-211.322
 10
61.715
 20
-211.318
  0
LWPOLYLINE
  5
219
330
17
100
AcDbEntity
  8
0
100
AcDbPolyline
 90
4
 70
1
 10
65.283
 20
-211.297
 10
64.936
 20
-211.497
 10
64.596
 20
-211.301
 10
65.283
 20
-211.297
  0
LWPOLYLINE
  5
21A
330
17
100
AcDbEntity
  8
0
100
AcDbPolyline
 90
4
 70
1
 10
68.851
 20
-211.276
 10
68.467
 20
-211.497
 10
68.09
 20
-211.28
 10
68.851
 20
-211.276
  0
LWPOLYLINE
  5
21B
330
17
100
AcDbEntity
  8
0
100
AcDbPolyline
 90
4
 70
1
 10
72.419
 20
-211.254
 10
71.998
 20
-211.497
 10
71.585
 20
-211.259
 10
72.419
 20
-211.254
  0
LWPOLYLINE
  5
21C
330
17
100
AcDbEntity
  8
0
100
AcDbPolyline
 90
4
 70
1
 10
75.988
 20
-211.233
 10
75.529
 20
-211.497
 10
75.08
 20
-211.238
 10
75.988
 20
-211.233
  0
LWPOLYLINE
  5
21D
330
17
100
AcDbEntity
  8
0
100
AcDbPolyline
 90
4
 70
1
 10
79.556
 20
-211.211
 10
79.06
 20
-211.497
 10
78.574
 20
-211.217
 10
79.556
 20
-211.211
  0
LWPOLYLINE
  5
21E
330
17
100
AcDbEntity
  8
0
100
AcDbPolyline
 90
9
 70
1
 10
81.421
 20
-210.594
 10
81.63
 20
-210.365
 10
81.809
 20
-210.105
 10
82.877
 20
-208.162
 10
84.107
 20
-208.872
 10
84.107
 20
-210.622
 10
82.591
 20
-211.497
 10
81.261
 20
-210.729
 10
81.421
 20
-210.594
  0
INSERT
  5
21F
330
17
100
AcDbEntity
  8
0
100
AcDbBlockReference
  2
HEX
 10
86.122
 20
-209.747
 30
0.0
  0
INSERT
  5
221
330
17
100
AcDbEntity
  8
0
100
AcDbBlockReference
  2
HEX
 10
89.653
 20
-209.747
 30
0.0
  0
INSERT
  5
223
330
17
100
AcDbEntity
  8
0
100
AcDbBlockReference
  2
HEX
 10
93.184
 20
-209.747
 30
0.0
  0
INSERT
  5
225
330
17
100
AcDbEntity
  8
0
100
AcDbBlockReference
  2
HEX
 10
96.716
 20
-209.747
 30
0.0
  0
INSERT
  5
227
330
17
100
AcDbEntity
  8
0
100
AcDbBlockReference
  2
HEX
 10
100.247
 20
-209.747
 30
0.0
  0
LWPOLYLINE
  5
229
330
17
100
AcDbEntity
  8
0
100
AcDbPolyline
 90
8
 70
1
 10
103.958
 20
-210.306
 10
103.645
 20
-210.935
 10
103.41
 20
-211.285
 10
102.262
 20
-210.622
 10
102.262
 20
-208.872
 10
103.778
 20
-207.997
 10
104.482
 20
-208.404
 10
103.958
 20
-210.306
  0
LWPOLYLINE
  5
22A
330
17
100
AcDbEntity
  8
0
100
AcDbPolyline
 90
6
 70
1
 10
32.682
 20
-205.939
 10
30.691
 20
-205.343
 10
31.39
 20
-204.939
 10
32.906
 20
-205.814
 10
32.906
 20
-206.031
 10
32.682
 20
-205.939
  0
LWPOLYLINE
  5
22B
330
17
100
AcDbEntity
  8
0
100
AcDbPolyline
 90
8
 70
1
 10
35.157
 20
-206.955
 10
33.406
 20
-206.236
 10
33.406
 20
-205.814
 10
34.921
 20
-204.939
 10
36.437
 20
-205.814
 10
36.437
 20
-207.564
 10
36.334
 20
-207.624
 10
35.157
 20
-206.955
  0
INSERT
  5
22C
330
17
100
AcDbEntity
  8
0
100
AcDbBlockReference
  2
HEX
 10
38.453
 20
-206.689
 30
0.0
  0
INSERT
  5
22E
330
17
100
AcDbEntity
  8
0
100
AcDbBlockReference
  2
HEX
 10
41.984
 20
-206.689
 30
0.0
  0
LWPOLYLINE
  5
230
330
17
100
AcDbEntity
  8
0
100
AcDbPolyline
 90
7
 70
1
 10
46.916
 20
-207.63
 10
45.515
 20
-208.439
 10
43.999
 20
-207.564
 10
43.999
 20
-205.814
 10
45.515
 20
-204.939
 10
46.042
 20
-205.244
 10
46.916
 20
-207.63
  0
LWPOLYLINE
  5
231
330
17
100
AcDbEntity
  8
0
100
AcDbPolyline
 90
6
 70
1
 10
84.579
 20
-205.068
 10
85.872
 20
-205.814
 10
85.872
 20
-207.564
 10
84.357
 20
-208.439
 10
83.118
 20
-207.724
 10
84.579
 20
-205.068
  0
INSERT
  5
232
330
17
100
AcDbEntity
  8
0
100
AcDbBlockReference
  2
HEX
 10
87.888
 20
-206.689
 30
0.0
  0
INSERT
  5
234
330
17
100
AcDbEntity
  8
0
100
AcDbBlockReference
  2
HEX
 10
91.419
 20
-206.689
 30
0.0
  0
INSERT
  5
236
330
17
100
AcDbEntity
  8
0
100
AcDbBlockReference
  2
HEX
 10
94.95
 20
-206.689
 30
0.0
  0
INSERT
  5
238
330
17
100
AcDbEntity
  8
0
100
AcDbBlockReference
  2
HEX
 10
98.481
 20
-206.689
 30
0.0
  0
INSERT
  5
23A
330
17
100
AcDbEntity
  8
0
100
AcDbBlockReference
  2
HEX
 10
102.012
 20
-206.689
 30
0.0
  0
LWPOLYLINE
  5
23C
330
17
100
AcDbEntity
  8
0
100
AcDbPolyline
 90
5
 70
1
 10
104.62
 20
-207.906
 10
104.028
 20
-207.564
 10
104.028
 20
-205.814
 10
105.416
 20
-205.013
 10
104.62
 20
-207.906
  0
LWPOLYLINE
  5
23D
330
17
100
AcDbEntity
  8
0
100
AcDbPolyline
 90
18
 70
1
 10
30.101
 20
-205.002
 10
29.925
 20
-204.747
 10
29.85
 20
-204.557
 10
29.809
 20
-204.358
 10
29.802
 20
-204.156
 10
29.826
 20
-203.955
 10
29.923
 20
-203.668
 10
30.026
 20
-203.494
 10
30.159
 20
-203.34
 10
30.322
 20
-203.212
 10
30.414
 20
-203.159
 10
30.62
 20
-203.078
 10
30.733
 20
-203.052
 10
30.853
 20
-203.036
 10
31.14
 20
-203.034
 10
31.14
 20
-204.506
 10
30.168
 20
-205.068
 10
30.101
 20
-205.002
  0
LWPOLYLINE
  5
23E
330
17
100
AcDbEntity
  8
0
100
AcDbPolyline
 90
6
 70
1
 10
34.671
 20
-203.013
 10
34.671
 20
-204.506
 10
33.156
 20
-205.381
 10
31.64
 20
-204.506
 10
31.64
 20
-203.031
 10
34.671
 20
-203.013
  0
LWPOLYLINE
  5
23F
330
17
100
AcDbEntity
  8
0
100
AcDbPolyline
 90
6
 70
1
 10
38.203
 20
-202.993
 10
38.203
 20
-204.506
 10
36.687
 20
-205.381
 10
35.171
 20
-204.506
 10
35.171
 20
-203.011
 10
38.203
 20
-202.993
  0
LWPOLYLINE
  5
240
330
17
100
AcDbEntity
  8
0
100
AcDbPolyline
 90
6
 70
1
 10
41.734
 20
-202.972
 10
41.734
 20
-204.506
 10
40.218
 20
-205.381
 10
38.703
 20
-204.506
 10
38.703
 20
-202.99
 10
41.734
 20
-202.972
  0
LWPOLYLINE
  5
241
330
17
100
AcDbEntity
  8
0
100
AcDbPolyline
 90
11
 70
1
 10
44.106
 20
-202.958
 10
44.381
 20
-203.001
 10
44.513
 20
-203.037
 10
44.766
 20
-203.141
 10
44.999
 20
-203.281
 10
45.265
 20
-203.517
 10
45.265
 20
-204.506
 10
43.749
 20
-205.381
 10
42.234
 20
-204.506
 10
42.234
 20
-202.969
 10
44.106
 20
-202.958
  0
LWPOLYLINE
  5
242
330
17
100
AcDbEntity
  8
0
100
AcDbPolyline
 90
13
 70
1
 10
85.303
 20
-203.751
 10
85.441
 20
-203.55
 10
85.604
 20
-203.371
 10
85.788
 20
-203.218
 10
85.991
 20
-203.091
 10
86.21
 20
-202.992
 10
86.442
 20
-202.924
 10
86.684
 20
-202.888
 10
87.638
 20
-202.88
 10
87.638
 20
-204.506
 10
86.122
 20
-205.381
 10
84.82
 20
-204.629
 10
85.303
 20
-203.751
  0
LWPOLYLINE
  5
243
330
17
100
AcDbEntity
  8
0
100
AcDbPolyline
 90
6
 70
1
 10
91.169
 20
-202.849
 10
91.169
 20
-204.506
 10
89.653
 20
-205.381
 10
88.138
 20
-204.506
 10
88.138
 20
-202.875
 10
91.169
 20
-202.849
  0
LWPOLYLINE
  5
244
330
17
100
AcDbEntity
  8
0
100
AcDbPolyline
 90
6
 70
1
 10
94.7
 20
-202.819
 10
94.7
 20
-204.506
 10
93.184
 20
-205.381
 10
91.669
 20
-204.506
 10
91.669
 20
-202.845
 10
94.7
 20
-202.819
  0
LWPOLYLINE
  5
245
330
17
100
AcDbEntity
  8
0
100
AcDbPolyline
 90
6
 70
1
 10
98.231
 20
-202.789
 10
98.231
 20
-204.506
 10
96.716
 20
-205.381
 10
95.2
 20
-204.506
 10
95.2
 20
-202.815
 10
98.231
 20
-202.789
  0
LWPOLYLINE
  5
246
330
17
100
AcDbEntity
  8
0
100
AcDbPolyline
 90
6
 70
1
 10
101.762
 20
-202.759
 10
101.762
 20
-204.506
 10
100.247
 20
-205.381
 10
98.731
 20
-204.506
 10
98.731
 20
-202.785
 10
101.762
 20
-202.759
  0
LWPOLYLINE
  5
247
330
17
100
AcDbEntity
  8
0
100
AcDbPolyline
 90
9
 70
1
 10
104.723
 20
-202.733
 10
104.983
 20
-202.767
 10
105.103
 20
-202.807
 10
105.293
 20
-202.91
 10
105.293
 20
-204.506
 10
103.778
 20
-205.381
 10
102.262
 20
-204.506
 10
102.262
 20
-202.756
 10
104.723
 20
-202.733
  0
ENDSEC
  0
SECTION
  2
OBJECTS
  0
DICTIONARY
  5
A
330
0
100
AcDbDictionary
281
1
  3
ACAD_COLOR
350
B
  3
ACAD_GROUP
350
C
  3
ACAD_LAYOUT
350
D
  3
ACAD_MATERIAL
350
E
  3
ACAD_MLEADERSTYLE
350
F
  3
ACAD_MLINESTYLE
350
10
  3
ACAD_PLOTSETTINGS
350
11
  3
ACAD_PLOTSTYLENAME
350
12
  3
ACAD_SCALELIST
350
14
  3
ACAD_TABLESTYLE
350
15
  3
ACAD_VISUALSTYLE
350
16
  3
EZDXF_META
350
2D
  0
DICTIONARY
  5
B
330
A
100
AcDbDictionary
281
1
  0
DICTIONARY
  5
C
330
A
100
AcDbDictionary
281
1
  0
DICTIONARY
  5
D
330
A
100
AcDbDictionary
281
1
  3
Model
350
1A
  3
Layout1
350
1E
  0
DICTIONARY
  5
E
330
A
100
AcDbDictionary
281
1
  3
ByBlock
350
1F
  3
ByLayer
350
20
  3
Global
350
21
  0
DICTIONARY
  5
F
330
A
100
AcDbDictionary
281
1
  3
Standard
350
2C
  0
DICTIONARY
  5
10
330
A
100
AcDbDictionary
281
1
  3
Standard
350
22
  0
DICTIONARY
  5
11
330
A
100
AcDbDictionary
281
1
  0
ACDBDICTIONARYWDFLT
  5
12
330
A
100
AcDbDictionary
281
1
  3
Normal
350
13
100
AcDbDictionaryWithDefault
340
13
  0
ACDBPLACEHOLDER
  5
13
330
12
  0
DICTIONARY
  5
14
330
A
100
AcDbDictionary
281
1
  0
DICTIONARY
  5
15
330
A
100
AcDbDictionary
281
1
  0
DICTIONARY
  5
16
330
A
100
AcDbDictionary
281
1
  0
LAYOUT
  5
1A
330
D
100
AcDbPlotSettings
  1

  4
A3
  6

 40
7.5
 41
20.0
 42
7.5
 43
20.0
 44
420.0
 45
297.0
 46
0.0
 47
0.0
 48
0.0
 49
0.0
140
0.0
141
0.0
142
1.0
143
1.0
 70
1024
 72
1
 73
0
 74
5
  7

 75
16
 76
0
 77
2
 78
300
147
1.0
148
0.0
149
0.0
100
AcDbLayout
  1
Model
 70
1
 71
0
 10
0.0
 20
0.0
 11
420.0
 21
297.0
 12
0.0
 22
0.0
 32
0.0
 14
1e+20
 24
1e+20
 34
1e+20
 15
-1e+20
 25
-1e+20
 35
-1e+20
146
0.0
 13
0.0
 23
0.0
 33
0.0
 16
1.0
 26
0.0
 36
0.0
 17
0.0
 27
1.0
 37
0.0
 76
1
330
17
  0
LAYOUT
  5
1E
330
D
100
AcDbPlotSettings
  1

  4
A3
  6

 40
7.5
 41
20.0
 42
7.5
 43
20.0
 44
420.0
 45
297.0
 46
0.0
 47
0.0
 48
0.0
 49
0.0
140
0.0
141
0.0
142
1.0
143
1.0
 70
0
 72
1
 73
0
 74
5
  7

 75
16
 76
0
 77
2
 78
300
147
1.0
148
0.0
149
0.0
100
AcDbLayout
  1
Layout1
 70
1
 71
1
 10
0.0
 20
0.0
 11
420.0
 21
297.0
 12
0.0
 22
0.0
 32
0.0
 14
1e+20
 24
1e+20
 34
1e+20
 15
-1e+20
 25
-1e+20
 35
-1e+20
146
0.0
 13
0.0
 23
0.0
 33
0.0
 16
1.0
 26
0.0
 36
0.0
 17
0.0
 27
1.0
 37
0.0
 76
1
330
1B
  0
MATERIAL
  5
1F
102
{ACAD_REACTORS
330
E
102
}
330
E
100
AcDbMaterial
  1
ByBlock
  2

 70
0
 40
1.0
 71
1
 41
1.0
 91
-1023410177
 42
1.0
 72
1
  3

 73
1
 74
1
 75
1
 44
0.5
 73
0
 45
1.0
 46
1.0
 77
1
  4

 78
1
 79
1
170
1
 48
1.0
171
1
  6

172
1
173
1
174
1
140
1.0
141
1.0
175
1
  7

176
1
177
1
178
1
143
1.0
179
1
  8

270
1
271
1
272
1
145
1.0
146
1.0
273
1
  9

274
1
275
1
276
1
 42
1.0
 72
1
  3

 73
1
 74
1
 75
1
 94
63
  0
MATERIAL
  5
20
102
{ACAD_REACTORS
330
E
102
}
330
E
100
AcDbMaterial
  1
ByLayer
  2

 70
0
 40
1.0
 71
1
 41
1.0
 91
-1023410177
 42
1.0
 72
1
  3

 73
1
 74
1
 75
1
 44
0.5
 73
0
 45
1.0
 46
1.0
 77
1
  4

 78
1
 79
1
170
1
 48
1.0
171
1
  6

172
1
173
1
174
1
140
1.0
141
1.0
175
1
  7

176
1
177
1
178
1
143
1.0
179
1
  8

270
1
271
1
272
1
145
1.0
146
1.0
273
1
  9

274
1
275
1
276
1
 42
1.0
 72
1
  3

 73
1
 74
1
 75
1
 94
63
  0
MATERIAL
  5
21
102
{ACAD_REACTORS
330
E
102
}
330
E
100
AcDbMaterial
  1
Global
  2

 70
0
 40
1.0
 71
1
 41
1.0
 91
-1023410177
 42
1.0
 72
1
  3

 73
1
 74
1
 75
1
 44
0.5
 73
0
 45
1.0
 46
1.0
 77
1
  4

 78
1
 79
1
170
1
 48
1.0
171
1
  6

172
1
173
1
174
1
140
1.0
141
1.0
175
1
  7

176
1
177
1
178
1
143
1.0
179
1
  8

270
1
271
1
272
1
145
1.0
146
1.0
273
1
  9

274
1
275
1
276
1
 42
1.0
 72
1
  3

 73
1
 74
1
 75
1
 94
63
  0
MLINESTYLE
  5
22
102
{ACAD_REACTORS
330
10
102
}
330
10
100
AcDbMlineStyle
  2
Standard
 70
0
  3

 62
256
 51
90.0
 52
90.0
 71
2
 49
0.5
 62
256
  6
BYLAYER
 49
-0.5
 62
256
  6
BYLAYER
  0
MLEADERSTYLE
  5
2C
102
{ACAD_REACTORS
330
F
102
}
330
F
100
AcDbMLeaderStyle
179
2
170
2
171
1
172
0
 90
2
 40
0.0
 41
0.0
173
1
 91
-1056964608
 92
-2
290
1
 42
2.0
291
1
 43
8.0
  3
Standard
 44
4.0
300

342
29
174
1
175
1
176
0
178
1
 93
-1056964608
 45
4.0
292
0
297
0
 46
4.0
 94
-1056964608
 47
1.0
 49
1.0
140
1.0
294
1
141
0.0
177
0
142
1.0
295
0
296
0
143
3.75
271
0
272
9
273
9
  0
DICTIONARY
  5
2D
330
A
100
AcDbDictionary
280
1
281
1
  3
CREATED_BY_EZDXF
350
2E
  3
WRITTEN_BY_EZDXF
350
24A
  0
DICTIONARYVAR
  5
2E
330
2D
100
DictionaryVariables
280
0
  1
1.4.3 @ 2026-04-09T21:37:16.954983+00:00
  0
DICTIONARYVAR
  5
24A
330
2D
100
DictionaryVariables
280
0
  1
1.4.3 @ 2026-04-09T21:37:16.971142+00:00
  0
ENDSEC
  0
EOF
