  0
SECTION
  2
HEADER
  9
$ACADVER
  1
AC1024
  9
$ACADMAINTVER
 70
6
  9
$DWGCODEPAGE
  3
ANSI_1252
  9
$LASTSAVEDBY
  1
ezdxf
  9
$INSBASE
 10
0.0
 20
0.0
 30
0.0
  9
$EXTMIN
 10
1e+20
 20
1e+20
 30
1e+20
  9
$EXTMAX
 10
-1e+20
 20
-1e+20
 30
-1e+20
  9
$LIMMIN
 10
0.0
 20
0.0
  9
$LIMMAX
 10
420.0
 20
297.0
  9
$ORTHOMODE
 70
0
  9
$REGENMODE
 70
1
  9
$FILLMODE
 70
1
  9
$QTEXTMODE
 70
0
  9
$MIRRTEXT
 70
1
  9
$LTSCALE
 40
1.0
  9
$ATTMODE
 70
1
  9
$TEXTSIZE
 40
2.5
  9
$TRACEWID
 40
1.0
  9
$TEXTSTYLE
  7
Standard
  9
$CLAYER
  8
0
  9
$CELTYPE
  6
ByLayer
  9
$CECOLOR
 62
256
  9
$CELTSCALE
 40
1.0
  9
$DISPSILH
 70
0
  9
$DIMSCALE
 40
1.0
  9
$DIMASZ
 40
2.5
  9
$DIMEXO
 40
0.625
  9
$DIMDLI
 40
3.75
  9
$DIMRND
 40
0.0
  9
$DIMDLE
 40
0.0
  9
$DIMEXE
 40
1.25
  9
$DIMTP
 40
0.0
  9
$DIMTM
 40
0.0
  9
$DIMTXT
 40
2.5
  9
$DIMCEN
 40
2.5
  9
$DIMTSZ
 40
0.0
  9
$DIMTOL
 70
0
  9
$DIMLIM
 70
0
  9
$DIMTIH
 70
0
  9
$DIMTOH
 70
0
  9
$DIMSE1
 70
0
  9
$DIMSE2
 70
0
  9
$DIMTAD
 70
1
  9
$DIMZIN
 70
8
  9
$DIMBLK
  1

  9
$DIMASO
 70
1
  9
$DIMSHO
 70
1
  9
$DIMPOST
  1

  9
$DIMAPOST
  1

  9
$DIMALT
 70
0
  9
$DIMALTD
 70
3
  9
$DIMALTF
 40
0.03937007874
  9
$DIMLFAC
 40
1.0
  9
$DIMTOFL
 70
1
  9
$DIMTVP
 40
0.0
  9
$DIMTIX
 70
0
  9
$DIMSOXD
 70
0
  9
$DIMSAH
 70
0
  9
$DIMBLK1
  1

  9
$DIMBLK2
  1

  9
$DIMSTYLE
  2
ISO-25
  9
$DIMCLRD
 70
0
  9
$DIMCLRE
 70
0
  9
$DIMCLRT
 70
0
  9
$DIMTFAC
 40
1.0
  9
$DIMGAP
 40
0.625
  9
$DIMJUST
 70
0
  9
$DIMSD1
 70
0
  9
$DIMSD2
 70
0
  9
$DIMTOLJ
 70
0
  9
$DIMTZIN
 70
8
  9
$DIMALTZ
 70
0
  9
$DIMALTTZ
 70
0
  9
$DIMUPT
 70
0
  9
$DIMDEC
 70
2
  9
$DIMTDEC
 70
2
  9
$DIMALTU
 70
2
  9
$DIMALTTD
 70
3
  9
$DIMTXSTY
  7
Standard
  9
$DIMAUNIT
 70
0
  9
$DIMADEC
 70
0
  9
$DIMALTRND
 40
0.0
  9
$DIMAZIN
 70
0
  9
$DIMDSEP
 70
44
  9
$DIMATFIT
 70
3
  9
$DIMFRAC
 70
0
  9
$DIMLDRBLK
  1

  9
$DIMLUNIT
 70
2
  9
$DIMLWD
 70
-2
  9
$DIMLWE
 70
-2
  9
$DIMTMOVE
 70
0
  9
$DIMFXL
 40
1.0
  9
$DIMFXLON
 70
0
  9
$DIMJOGANG
 40
0.785398163397
  9
$DIMTFILL
 70
0
  9
$DIMTFILLCLR
 70
0
  9
$DIMARCSYM
 70
0
  9
$DIMLTYPE
  6

  9
$DIMLTEX1
  6

  9
$DIMLTEX2
  6

  9
$DIMTXTDIRECTION
 70
0
  9
$LUNITS
 70
2
  9
$LUPREC
 70
4
  9
$SKETCHINC
 40
1.0
  9
$FILLETRAD
 40
10.0
  9
$AUNITS
 70
0
  9
$AUPREC
 70
2
  9
$MENU
  1
.
  9
$ELEVATION
 40
0.0
  9
$PELEVATION
 40
0.0
  9
$THICKNESS
 40
0.0
  9
$LIMCHECK
 70
0
  9
$CHAMFERA
 40
0.0
  9
$CHAMFERB
 40
0.0
  9
$CHAMFERC
 40
0.0
  9
$CHAMFERD
 40
0.0
  9
$SKPOLY
 70
0
  9
$TDCREATE
 40
2461142.7371527776
  9
$TDUCREATE
 40
2458532.153996898
  9
$TDUPDATE
 40
2461142.7371527776
  9
$TDUUPDATE
 40
2458532.1544311
  9
$TDINDWG
 40
0.0
  9
$TDUSRTIMER
 40
0.0
  9
$USRTIMER
 70
1
  9
$ANGBASE
 50
0.0
  9
$ANGDIR
 70
0
  9
$PDMODE
 70
0
  9
$PDSIZE
 40
0.0
  9
$PLINEWID
 40
0.0
  9
$SPLFRAME
 70
0
  9
$SPLINETYPE
 70
6
  9
$SPLINESEGS
 70
8
  9
$HANDSEED
  5
3E
  9
$SURFTAB1
 70
6
  9
$SURFTAB2
 70
6
  9
$SURFTYPE
 70
6
  9
$SURFU
 70
6
  9
$SURFV
 70
6
  9
$UCSBASE
  2

  9
$UCSNAME
  2

  9
$UCSORG
 10
0.0
 20
0.0
 30
0.0
  9
$UCSXDIR
 10
1.0
 20
0.0
 30
0.0
  9
$UCSYDIR
 10
0.0
 20
1.0
 30
0.0
  9
$UCSORTHOREF
  2

  9
$UCSORTHOVIEW
 70
0
  9
$UCSORGTOP
 10
0.0
 20
0.0
 30
0.0
  9
$UCSORGBOTTOM
 10
0.0
 20
0.0
 30
0.0
  9
$UCSORGLEFT
 10
0.0
 20
0.0
 30
0.0
  9
$UCSORGRIGHT
 10
0.0
 20
0.0
 30
0.0
  9
$UCSORGFRONT
 10
0.0
 20
0.0
 30
0.0
  9
$UCSORGBACK
 10
0.0
 20
0.0
 30
0.0
  9
$PUCSBASE
  2

  9
$PUCSNAME
  2

  9
$PUCSORG
 10
0.0
 20
0.0
 30
0.0
  9
$PUCSXDIR
 10
1.0
 20
0.0
 30
0.0
  9
$PUCSYDIR
 10
0.0
 20
1.0
 30
0.0
  9
$PUCSORTHOREF
  2

  9
$PUCSORTHOVIEW
 70
0
  9
$PUCSORGTOP
 10
0.0
 20
0.0
 30
0.0
  9
$PUCSORGBOTTOM
 10
0.0
 20
0.0
 30
0.0
  9
$PUCSORGLEFT
 10
0.0
 20
0.0
 30
0.0
  9
$PUCSORGRIGHT
 10
0.0
 20
0.0
 30
0.0
  9
$PUCSORGFRONT
 10
0.0
 20
0.0
 30
0.0
  9
$PUCSORGBACK
 10
0.0
 20
0.0
 30
0.0
  9
$USERI1
 70
0
  9
$USERI2
 70
0
  9
$USERI3
 70
0
  9
$USERI4
 70
0
  9
$USERI5
 70
0
  9
$USERR1
 40
0.0
  9
$USERR2
 40
0.0
  9
$USERR3
 40
0.0
  9
$USERR4
 40
0.0
  9
$USERR5
 40
0.0
  9
$WORLDVIEW
 70
1
  9
$SHADEDGE
 70
3
  9
$SHADEDIF
 70
70
  9
$TILEMODE
 70
1
  9
$MAXACTVP
 70
64
  9
$PINSBASE
 10
0.0
 20
0.0
 30
0.0
  9
$PLIMCHECK
 70
0
  9
$PEXTMIN
 10
1e+20
 20
1e+20
 30
1e+20
  9
$PEXTMAX
 10
-1e+20
 20
-1e+20
 30
-1e+20
  9
$PLIMMIN
 10
0.0
 20
0.0
  9
$PLIMMAX
 10
420.0
 20
297.0
  9
$UNITMODE
 70
0
  9
$VISRETAIN
 70
1
  9
$PLINEGEN
 70
0
  9
$PSLTSCALE
 70
1
  9
$TREEDEPTH
 70
3020
  9
$CMLSTYLE
  2
Standard
  9
$CMLJUST
 70
0
  9
$CMLSCALE
 40
20.0
  9
$PROXYGRAPHICS
 70
1
  9
$MEASUREMENT
 70
1
  9
$CELWEIGHT
370
-1
  9
$ENDCAPS
280
0
  9
$JOINSTYLE
280
0
  9
$LWDISPLAY
290
0
  9
$INSUNITS
 70
4
  9
$HYPERLINKBASE
  1

  9
$STYLESHEET
  1

  9
$XEDIT
290
1
  9
$CEPSNTYPE
380
0
  9
$PSTYLEMODE
290
1
  9
$FINGERPRINTGUID
  2
{DCB6588A-1483-4916-A512-2BF64556E336}
  9
$VERSIONGUID
  2
{E2DA8C28-C410-4984-B8AF-F5F93E0561E8}
  9
$EXTNAMES
290
1
  9
$PSVPSCALE
 40
0.0
  9
$OLESTARTUP
290
0
  9
$SORTENTS
280
127
  9
$INDEXCTL
280
0
  9
$HIDETEXT
280
1
  9
$XCLIPFRAME
280
1
  9
$HALOGAP
280
0
  9
$OBSCOLOR
 70
257
  9
$OBSLTYPE
280
0
  9
$INTERSECTIONDISPLAY
280
0
  9
$INTERSECTIONCOLOR
 70
257
  9
$DIMASSOC
280
2
  9
$PROJECTNAME
  1

  9
$CAMERADISPLAY
290
0
  9
$LENSLENGTH
 40
50.0
  9
$CAMERAHEIGHT
 40
0.0
  9
$STEPSPERSEC
 40
24.0
  9
$STEPSIZE
 40
100.0
  9
$3DDWFPREC
 40
2.0
  9
$PSOLWIDTH
 40
0.005
  9
$PSOLHEIGHT
 40
0.08
  9
$LOFTANG1
 40
1.570796326795
  9
$LOFTANG2
 40
1.570796326795
  9
$LOFTMAG1
 40
0.0
  9
$LOFTMAG2
 40
0.0
  9
$LOFTPARAM
 70
7
  9
$LOFTNORMALS
280
1
  9
$LATITUDE
 40
37.795
  9
$LONGITUDE
 40
-122.394
  9
$NORTHDIRECTION
 40
0.0
  9
$TIMEZONE
 70
-8000
  9
$LIGHTGLYPHDISPLAY
280
1
  9
$TILEMODELIGHTSYNCH
280
1
  9
$CMATERIAL
347
20
  9
$SOLIDHIST
280
0
  9
$SHOWHIST
280
1
  9
$DWFFRAME
280
2
  9
$DGNFRAME
280
2
  9
$REALWORLDSCALE
290
1
  9
$INTERFERECOLOR
 62
256
  9
$CSHADOW
280
0
  9
$SHADOWPLANELOCATION
 40
0.0
  0
ENDSEC
  0
SECTION
  2
CLASSES
  0
CLASS
  1
ACDBDICTIONARYWDFLT
  2
AcDbDictionaryWithDefault
  3
ObjectDBX Classes
 90
0
 91
0
280
0
281
0
  0
CLASS
  1
SUN
  2
AcDbSun
  3
SCENEOE
 90
1153
 91
0
280
0
281
0
  0
CLASS
  1
VISUALSTYLE
  2
AcDbVisualStyle
  3
ObjectDBX Classes
 90
4095
 91
0
280
0
281
0
  0
CLASS
  1
MATERIAL
  2
AcDbMaterial
  3
ObjectDBX Classes
 90
1153
 91
0
280
0
281
0
  0
CLASS
  1
SCALE
  2
AcDbScale
  3
ObjectDBX Classes
 90
1153
 91
0
280
0
281
0
  0
CLASS
  1
TABLESTYLE
  2
AcDbTableStyle
  3
ObjectDBX Classes
 90
4095
 91
0
280
0
281
0
  0
CLASS
  1
MLEADERSTYLE
  2
AcDbMLeaderStyle
  3
ACDB_MLEADERSTYLE_CLASS
 90
4095
 91
0
280
0
281
0
  0
CLASS
  1
DICTIONARYVAR
  2
AcDbDictionaryVar
  3
ObjectDBX Classes
 90
0
 91
0
280
0
281
0
  0
CLASS
  1
CELLSTYLEMAP
  2
AcDbCellStyleMap
  3
ObjectDBX Classes
 90
1152
 91
0
280
0
281
0
  0
CLASS
  1
MENTALRAYRENDERSETTINGS
  2
AcDbMentalRayRenderSettings
  3
SCENEOE
 90
1024
 91
0
280
0
281
0
  0
CLASS
  1
ACDBDETAILVIEWSTYLE
  2
AcDbDetailViewStyle
  3
ObjectDBX Classes
 90
1025
 91
0
280
0
281
0
  0
CLASS
  1
ACDBSECTIONVIEWSTYLE
  2
AcDbSectionViewStyle
  3
ObjectDBX Classes
 90
1025
 91
0
280
0
281
0
  0
CLASS
  1
RASTERVARIABLES
  2
AcDbRasterVariables
  3
ISM
 90
0
 91
0
280
0
281
0
  0
CLASS
  1
ACDBPLACEHOLDER
  2
AcDbPlaceHolder
  3
ObjectDBX Classes
 90
0
 91
0
280
0
281
0
  0
CLASS
  1
LAYOUT
  2
AcDbLayout
  3
ObjectDBX Classes
 90
0
 91
0
280
0
281
0
  0
ENDSEC
  0
SECTION
  2
TABLES
  0
TABLE
  2
VPORT
  5
8
330
0
100
AcDbSymbolTable
 70
1
  0
VPORT
  5
23
330
8
100
AcDbSymbolTableRecord
100
AcDbViewportTableRecord
  2
*Active
 70
0
 10
0.0
 20
0.0
 11
1.0
 21
1.0
 12
0.0
 22
0.0
 13
0.0
 23
0.0
 14
0.5
 24
0.5
 15
0.5
 25
0.5
 16
0.0
 26
0.0
 36
1.0
 17
0.0
 27
0.0
 37
0.0
 40
1000.0
 41
1.34
 42
50.0
 43
0.0
 44
0.0
 50
0.0
 51
0.0
 71
0
 72
1000
 73
1
 74
3
 75
0
 76
0
 77
0
 78
0
281
0
 65
0
146
0.0
  0
ENDTAB
  0
TABLE
  2
LTYPE
  5
2
330
0
100
AcDbSymbolTable
 70
3
  0
LTYPE
  5
24
330
2
100
AcDbSymbolTableRecord
100
AcDbLinetypeTableRecord
  2
ByBlock
 70
0
  3

 72
65
 73
0
 40
0.0
  0
LTYPE
  5
25
330
2
100
AcDbSymbolTableRecord
100
AcDbLinetypeTableRecord
  2
ByLayer
 70
0
  3

 72
65
 73
0
 40
0.0
  0
LTYPE
  5
26
330
2
100
AcDbSymbolTableRecord
100
AcDbLinetypeTableRecord
  2
Continuous
 70
0
  3

 72
65
 73
0
 40
0.0
  0
ENDTAB
  0
TABLE
  2
LAYER
  5
1
330
0
100
AcDbSymbolTable
 70
2
  0
LAYER
  5
27
330
1
100
AcDbSymbolTableRecord
100
AcDbLayerTableRecord
  2
0
 70
0
 62
7
  6
Continuous
370
-3
390
13
347
21
  0
LAYER
  5
28
330
1
100
AcDbSymbolTableRecord
100
AcDbLayerTableRecord
  2
Defpoints
 70
0
 62
7
  6
Continuous
290
0
370
-3
390
13
347
21
  0
ENDTAB
  0
TABLE
  2
STYLE
  5
5
330
0
100
AcDbSymbolTable
 70
1
  0
STYLE
  5
29
330
5
100
AcDbSymbolTableRecord
100
AcDbTextStyleTableRecord
  2
Standard
 70
0
 40
0.0
 41
1.0
 50
0.0
 71
0
 42
2.5
  3
txt
  4

  0
ENDTAB
  0
TABLE
  2
VIEW
  5
7
330
0
100
AcDbSymbolTable
 70
0
  0
ENDTAB
  0
TABLE
  2
UCS
  5
6
330
0
100
AcDbSymbolTable
 70
0
  0
ENDTAB
  0
TABLE
  2
APPID
  5
3
330
0
100
AcDbSymbolTable
 70
3
  0
APPID
  5
2A
330
3
100
AcDbSymbolTableRecord
100
AcDbRegAppTableRecord
  2
ACAD
 70
0
  0
APPID
  5
3B
330
3
100
AcDbSymbolTableRecord
100
AcDbRegAppTableRecord
  2
HATCHBACKGROUNDCOLOR
 70
0
  0
APPID
  5
3C
330
3
100
AcDbSymbolTableRecord
100
AcDbRegAppTableRecord
  2
EZDXF
 70
0
  0
ENDTAB
  0
TABLE
  2
DIMSTYLE
  5
4
330
0
100
AcDbSymbolTable
 70
1
100
AcDbDimStyleTable
  0
DIMSTYLE
105
2B
330
4
100
AcDbSymbolTableRecord
100
AcDbDimStyleTableRecord
  2
Standard
 70
0
 40
1.0
 41
2.5
 42
0.625
 43
3.75
 44
1.25
 45
0.0
 46
0.0
 47
0.0
 48
0.0
 49
2.5
140
2.5
141
2.5
142
0.0
143
0.03937007874
144
1.0
145
0.0
146
1.0
147
0.625
148
0.0
 69
0
 70
0
 71
0
 72
0
 73
0
 74
0
 75
0
 76
0
 77
1
 78
8
 79
3
170
0
171
3
172
1
173
0
174
0
175
0
176
0
177
0
178
0
179
2
271
2
272
2
273
2
274
3
275
0
276
0
277
2
278
44
279
0
280
0
281
0
282
0
283
0
284
8
285
0
286
0
288
0
289
3
290
0
371
-2
372
-2
  0
ENDTAB
  0
TABLE
  2
BLOCK_RECORD
  5
9
330
0
100
AcDbSymbolTable
 70
2
  0
BLOCK_RECORD
  5
17
330
9
100
AcDbSymbolTableRecord
100
AcDbBlockTableRecord
  2
*Model_Space
340
1A
 70
0
280
1
281
0
  0
BLOCK_RECORD
  5
1B
330
9
100
AcDbSymbolTableRecord
100
AcDbBlockTableRecord
  2
*Paper_Space
340
1E
 70
0
280
1
281
0
  0
ENDTAB
  0
ENDSEC
  0
SECTION
  2
BLOCKS
  0
BLOCK
  5
18
330
17
100
AcDbEntity
  8
0
100
AcDbBlockBegin
  2
*Model_Space
 70
0
 10
0.0
 20
0.0
 30
0.0
  3
*Model_Space
  1

  0
ENDBLK
  5
19
330
17
100
AcDbEntity
  8
0
100
AcDbBlockEnd
  0
BLOCK
  5
1C
330
1B
100
AcDbEntity
  8
0
100
AcDbBlockBegin
  2
*Paper_Space
 70
0
 10
0.0
 20
0.0
 30
0.0
  3
*Paper_Space
  1

  0
ENDBLK
  5
1D
330
1B
100
AcDbEntity
  8
0
100
AcDbBlockEnd
  0
ENDSEC
  0
SECTION
  2
ENTITIES
  0
LWPOLYLINE
  5
2F
330
17
100
AcDbEntity
  8
0
100
AcDbPolyline
 90
208
 70
1
 10
264.5537
 20
-69.464174
 10
262.249412
 20
-69.44741
 10
259.945124
 20
-69.43064600000001
 10
257.64083600000004
 20
-69.41388200000002
 10
255.33654800000002
 20
-69.39711800000002
 10
253.03226
 20
-69.38035400000004
 10
250.72797200000002
 20
-69.36359000000004
 10
248.423684
 20
-69.34682600000005
 10
246.11939600000002
 20
-69.33006200000005
 10
243.815108
 20
-69.31329800000006
 10
241.51082000000002
 20
-69.29653400000007
 10
239.206532
 20
-69.27977000000007
 10
236.90224400000002
 20
-69.26300600000008
 10
234.597956
 20
-69.24624200000008
 10
232.293668
 20
-69.22947800000009
 10
229.98938
 20
-69.2127140000001
 10
227.685092
 20
-69.19595000000011
 10
227.674424
 20
-69.6338460000001
 10
227.663756
 20
-70.0717420000001
 10
227.653088
 20
-70.5096380000001
 10
227.64242
 20
-70.94753400000009
 10
227.63175199999998
 20
-71.38543000000008
 10
227.62108399999997
 20
-71.8233260000001
 10
227.61041599999996
 20
-72.26122200000009
 10
227.59974799999995
 20
-72.69911800000008
 10
227.58907999999994
 20
-73.13701400000008
 10
227.57841199999993
 20
-73.57491000000007
 10
227.56774399999992
 20
-74.01280600000007
 10
227.5570759999999
 20
-74.45070200000008
 10
227.5464079999999
 20
-74.88859800000007
 10
227.5357399999999
 20
-75.32649400000007
 10
227.5250719999999
 20
-75.76439000000006
 10
227.5144039999999
 20
-76.20228600000006
 10
227.5037359999999
 20
-76.41285200000006
 10
227.47274799999988
 20
-76.61757600000006
 10
227.4224559999999
 20
-76.81518800000006
 10
227.35362199999992
 20
-77.00467200000006
 10
227.2675159999999
 20
-77.18526600000007
 10
227.1648999999999
 20
-77.35570000000006
 10
227.0470439999999
 20
-77.51495800000006
 10
226.9147099999999
 20
-77.66202400000006
 10
226.7691679999999
 20
-77.79613600000008
 10
226.6111799999999
 20
-77.91602400000006
 10
226.44201599999988
 20
-78.02067200000006
 10
226.2624379999999
 20
-78.10906400000006
 10
226.07371599999988
 20
-78.18018400000005
 10
225.87661199999988
 20
-78.23301600000006
 10
225.6723959999999
 20
-78.26654400000007
 10
225.4618299999999
 20
-78.27975200000007
 10
224.4631019999999
 20
-78.27670400000007
 10
223.4643739999999
 20
-78.27365600000007
 10
222.4656459999999
 20
-78.27060800000007
 10
221.4669179999999
 20
-78.26756000000007
 10
220.46818999999988
 20
-78.26451200000007
 10
219.46946199999988
 20
-78.26146400000007
 10
218.47073399999988
 20
-78.25841600000007
 10
217.47200599999988
 20
-78.25536800000008
 10
216.47327799999988
 20
-78.25232000000007
 10
215.47454999999988
 20
-78.24927200000008
 10
214.47582199999988
 20
-78.24622400000007
 10
213.47709399999985
 20
-78.24317600000006
 10
212.47836599999985
 20
-78.24012800000007
 10
211.47963799999985
 20
-78.23708000000006
 10
210.48090999999985
 20
-78.23403200000007
 10
209.48218199999985
 20
-78.23098400000006
 10
209.29066599999985
 20
-78.22361800000007
 10
209.10448399999984
 20
-78.19720200000008
 10
208.92465199999987
 20
-78.15300600000008
 10
208.75218599999988
 20
-78.09179200000008
 10
208.58810199999988
 20
-78.01432200000008
 10
208.43316199999987
 20
-77.9218660000001
 10
208.28838199999987
 20
-77.81518600000008
 10
208.15477799999988
 20
-77.6952980000001
 10
208.0333659999999
 20
-77.56321800000009
 10
207.92490799999987
 20
-77.4197080000001
 10
207.8304199999999
 20
-77.2657840000001
 10
207.75117199999988
 20
-77.1024620000001
 10
207.68767199999988
 20
-76.93075800000011
 10
207.64118999999988
 20
-76.7514340000001
 10
207.61248799999987
 20
-76.5655060000001
 10
207.60283599999988
 20
-76.37399000000009
 10
207.60029599999987
 20
-75.94777800000008
 10
207.5977559999999
 20
-75.52156600000009
 10
207.59521599999988
 20
-75.09535400000009
 10
207.59267599999987
 20
-74.6691420000001
 10
207.5901359999999
 20
-74.24293000000009
 10
207.58759599999988
 20
-73.8167180000001
 10
207.5850559999999
 20
-73.39050600000009
 10
207.58251599999988
 20
-72.9642940000001
 10
207.5799759999999
 20
-72.53808200000009
 10
207.5774359999999
 20
-72.1118700000001
 10
207.5748959999999
 20
-71.68565800000009
 10
207.5723559999999
 20
-71.2594460000001
 10
207.56981599999992
 20
-70.8332340000001
 10
207.5672759999999
 20
-70.4070220000001
 10
207.5647359999999
 20
-69.9808100000001
 10
207.56219599999991
 20
-69.5545980000001
 10
207.18525999999991
 20
-69.5545980000001
 10
206.80832399999989
 20
-69.5545980000001
 10
206.43138799999988
 20
-69.5545980000001
 10
206.05445199999988
 20
-69.5545980000001
 10
205.67751599999986
 20
-69.5545980000001
 10
205.30057999999985
 20
-69.5545980000001
 10
204.92364399999985
 20
-69.5545980000001
 10
204.54670799999982
 20
-69.5545980000001
 10
204.16977199999982
 20
-69.5545980000001
 10
203.79283599999982
 20
-69.5545980000001
 10
203.4158999999998
 20
-69.5545980000001
 10
203.0389639999998
 20
-69.5545980000001
 10
202.6620279999998
 20
-69.5545980000001
 10
202.28509199999976
 20
-69.5545980000001
 10
201.90815599999976
 20
-69.5545980000001
 10
201.53121999999976
 20
-69.5545980000001
 10
201.28382399999975
 20
-70.45553600000011
 10
201.03642799999974
 20
-71.3564740000001
 10
200.78903199999974
 20
-72.25741200000012
 10
200.5416359999997
 20
-73.15835000000013
 10
200.2942399999997
 20
-74.05928800000014
 10
200.04684399999968
 20
-74.96022600000013
 10
199.79944799999967
 20
-75.86116400000014
 10
199.55205199999966
 20
-76.76210200000016
 10
199.30465599999965
 20
-77.66304000000015
 10
199.05725999999964
 20
-78.56397800000016
 10
198.80986399999964
 20
-79.46491600000017
 10
198.56246799999963
 20
-80.36585400000018
 10
198.31507199999962
 20
-81.26679200000018
 10
198.0676759999996
 20
-82.16773000000019
 10
197.82027999999957
 20
-83.0686680000002
 10
197.57288399999956
 20
-83.9696060000002
 10
198.75271399999957
 20
-83.9729080000002
 10
199.93254399999955
 20
-83.9762100000002
 10
201.11237399999956
 20
-83.97951200000018
 10
202.29220399999954
 20
-83.98281400000018
 10
203.47203399999955
 20
-83.98611600000018
 10
204.65186399999953
 20
-83.98941800000017
 10
205.83169399999954
 20
-83.99272000000016
 10
207.01152399999953
 20
-83.99602200000015
 10
208.19135399999954
 20
-83.99932400000014
 10
209.37118399999952
 20
-84.00262600000015
 10
210.55101399999953
 20
-84.00592800000014
 10
211.7308439999995
 20
-84.00923000000013
 10
212.91067399999952
 20
-84.01253200000012
 10
214.0905039999995
 20
-84.01583400000013
 10
215.2703339999995
 20
-84.01913600000012
 10
216.4501639999995
 20
-84.02243800000011
 10
219.0003239999995
 20
-84.02599400000011
 10
221.55048399999947
 20
-84.02955000000011
 10
224.10064399999948
 20
-84.03310600000012
 10
226.65080399999945
 20
-84.03666200000012
 10
229.20096399999946
 20
-84.04021800000012
 10
231.75112399999944
 20
-84.04377400000013
 10
234.30128399999944
 20
-84.04733000000013
 10
236.85144399999942
 20
-84.05088600000013
 10
239.40160399999942
 20
-84.05444200000014
 10
241.9517639999994
 20
-84.05799800000014
 10
244.5019239999994
 20
-84.06155400000014
 10
247.05208399999938
 20
-84.06511000000013
 10
249.6022439999994
 20
-84.06866600000014
 10
252.15240399999936
 20
-84.07222200000014
 10
254.70256399999937
 20
-84.07577800000014
 10
257.2527239999994
 20
-84.07933400000015
 10
257.28320399999933
 20
-84.04225000000015
 10
257.37286599999936
 20
-83.93633200000015
 10
257.51942399999933
 20
-83.76920000000015
 10
257.7208459999993
 20
-83.54872800000015
 10
257.97459199999935
 20
-83.28253600000015
 10
258.27862999999934
 20
-82.97849800000014
 10
258.6306739999993
 20
-82.64423400000015
 10
259.02843799999937
 20
-82.28761800000015
 10
259.46963599999935
 20
-81.91627000000015
 10
259.95223599999935
 20
-81.53806400000016
 10
260.47369799999933
 20
-81.16087400000016
 10
261.0319899999994
 20
-80.79206600000016
 10
261.62482599999936
 20
-80.43976800000016
 10
262.24991999999935
 20
-80.11134600000015
 10
262.9049859999994
 20
-79.81492800000017
 10
263.5877379999994
 20
-79.55813400000017
 10
263.6969579999994
 20
-79.51622400000015
 10
263.8008439999994
 20
-79.46618600000015
 10
263.8993959999994
 20
-79.40827400000015
 10
263.9923599999994
 20
-79.34299600000016
 10
264.07922799999943
 20
-79.27086000000016
 10
264.1597459999994
 20
-79.19237400000014
 10
264.2336599999994
 20
-79.10804600000014
 10
264.3007159999994
 20
-79.01813000000016
 10
264.3604059999994
 20
-78.92338800000016
 10
264.4127299999993
 20
-78.82407400000015
 10
264.4571799999993
 20
-78.72069600000016
 10
264.49350199999935
 20
-78.61350800000015
 10
264.5214419999993
 20
-78.50327200000014
 10
264.54074599999933
 20
-78.39024200000014
 10
264.5511599999993
 20
-78.27518000000015
 10
264.5521759999993
 20
-78.15834000000015
 10
264.5521759999993
 20
-77.61503400000015
 10
264.5521759999993
 20
-77.07172800000015
 10
264.5521759999993
 20
-76.52842200000015
 10
264.5521759999993
 20
-75.98511600000015
 10
264.5521759999993
 20
-75.44181000000015
 10
264.5521759999993
 20
-74.89850400000014
 10
264.5521759999993
 20
-74.35519800000014
 10
264.5521759999993
 20
-73.81189200000013
 10
264.5521759999993
 20
-73.26858600000013
 10
264.5521759999993
 20
-72.72528000000013
 10
264.5521759999993
 20
-72.18197400000012
 10
264.5521759999993
 20
-71.63866800000012
 10
264.5521759999993
 20
-71.09536200000012
 10
264.5521759999993
 20
-70.55205600000012
 10
264.5521759999993
 20
-70.00875000000012
  0
LWPOLYLINE
  5
30
330
17
100
AcDbEntity
  8
0
100
AcDbPolyline
 90
80
 70
1
 10
171.8358259999993
 20
-84.04707600000012
 10
172.0819519999993
 20
-83.14131200000013
 10
172.3280779999993
 20
-82.23554800000014
 10
172.57420399999933
 20
-81.32978400000013
 10
172.82032999999933
 20
-80.42402000000014
 10
173.06645599999933
 20
-79.51825600000015
 10
173.31258199999937
 20
-78.61249200000016
 10
173.55870799999937
 20
-77.70672800000017
 10
173.80483399999937
 20
-76.80096400000016
 10
174.0509599999994
 20
-75.89520000000017
 10
174.2970859999994
 20
-74.98943600000018
 10
174.54321199999941
 20
-74.08367200000019
 10
174.78933799999945
 20
-73.1779080000002
 10
175.03546399999945
 20
-72.27214400000021
 10
175.28158999999945
 20
-71.3663800000002
 10
175.5277159999995
 20
-70.46061600000021
 10
175.7738419999995
 20
-69.55485200000022
 10
175.29327399999949
 20
-69.55485200000022
 10
174.81270599999945
 20
-69.55485200000022
 10
174.33213799999945
 20
-69.55485200000022
 10
173.85156999999944
 20
-69.55485200000022
 10
173.37100199999944
 20
-69.55485200000022
 10
172.8904339999994
 20
-69.55485200000022
 10
172.4098659999994
 20
-69.55485200000022
 10
171.9292979999994
 20
-69.55485200000022
 10
171.44872999999936
 20
-69.55485200000022
 10
170.96816199999935
 20
-69.55485200000022
 10
170.48759399999935
 20
-69.55485200000022
 10
170.0070259999993
 20
-69.55485200000022
 10
169.5264579999993
 20
-69.55485200000022
 10
169.0458899999993
 20
-69.55485200000022
 10
168.5653219999993
 20
-69.55485200000022
 10
168.08475399999926
 20
-69.55485200000022
 10
168.04665399999928
 20
-69.62546400000024
 10
167.93794199999928
 20
-69.83247400000023
 10
167.76725399999927
 20
-70.16851600000022
 10
167.54297199999925
 20
-70.62647800000022
 10
167.27347799999924
 20
-71.19899400000023
 10
166.96740799999924
 20
-71.87895200000023
 10
166.63314399999925
 20
-72.65873200000023
 10
166.27932199999924
 20
-73.53147600000023
 10
165.91406999999924
 20
-74.48956400000023
 10
165.54627799999923
 20
-75.52588400000022
 10
165.1840739999992
 20
-76.63307000000022
 10
164.83609399999924
 20
-77.80401000000022
 10
164.51071999999922
 20
-79.03133800000022
 10
164.21658799999923
 20
-80.30768800000021
 10
163.96207999999925
 20
-81.62594800000021
 10
163.75557799999925
 20
-82.97875200000021
 10
163.74744999999925
 20
-83.0846700000002
 10
163.75100599999925
 20
-83.1885560000002
 10
163.76548399999925
 20
-83.28964800000021
 10
163.79037599999924
 20
-83.38718400000022
 10
163.8251739999992
 20
-83.48065600000021
 10
163.86911599999922
 20
-83.56955600000022
 10
163.92194799999922
 20
-83.65312200000022
 10
163.9829079999992
 20
-83.73059200000023
 10
164.0514879999992
 20
-83.80145800000022
 10
164.12692599999923
 20
-83.86495800000023
 10
164.2089679999992
 20
-83.92033000000023
 10
164.2968519999992
 20
-83.96732000000023
 10
164.3900699999992
 20
-84.00491200000023
 10
164.4881139999992
 20
-84.03259800000023
 10
164.5904759999992
 20
-84.04961600000023
 10
164.6963939999992
 20
-84.05545800000024
 10
165.1426719999992
 20
-84.05520400000024
 10
165.5889499999992
 20
-84.05495000000025
 10
166.03522799999917
 20
-84.05469600000025
 10
166.48150599999914
 20
-84.05444200000026
 10
166.92778399999915
 20
-84.05418800000027
 10
167.37406199999913
 20
-84.05393400000027
 10
167.8203399999991
 20
-84.05368000000028
 10
168.2666179999991
 20
-84.05342600000029
 10
168.7128959999991
 20
-84.05317200000029
 10
169.15917399999907
 20
-84.0529180000003
 10
169.60545199999908
 20
-84.0526640000003
 10
170.05172999999905
 20
-84.05241000000031
 10
170.49800799999903
 20
-84.05215600000031
 10
170.944285999999
 20
-84.05190200000033
 10
171.39056399999902
 20
-84.05164800000033
  0
LWPOLYLINE
  5
31
330
17
100
AcDbEntity
  8
0
100
AcDbPolyline
 90
208
 70
1
 10
192.719705999999
 20
-110.78819600000034
 10
192.52361799999898
 20
-110.74806400000034
 10
192.330323999999
 20
-110.69802600000034
 10
192.14058599999902
 20
-110.63833600000034
 10
191.95440399999902
 20
-110.56924800000034
 10
191.77253999999903
 20
-110.49076200000033
 10
191.59524799999903
 20
-110.40313200000033
 10
191.42303599999903
 20
-110.30661200000033
 10
191.256157999999
 20
-110.20145600000033
 10
191.095375999999
 20
-110.08766400000033
 10
190.940943999999
 20
-109.96549000000033
 10
190.79311599999903
 20
-109.83493400000033
 10
190.65239999999903
 20
-109.69625000000033
 10
190.51930399999904
 20
-109.54969200000033
 10
190.39433599999904
 20
-109.39551400000033
 10
190.27774999999906
 20
-109.23397000000033
 10
190.17005399999906
 20
-109.06506000000032
 10
190.03213199999905
 20
-108.80166200000032
 10
189.92570599999905
 20
-108.52835800000031
 10
189.84975999999907
 20
-108.24743400000031
 10
189.80327799999907
 20
-107.96117600000032
 10
189.78549799999905
 20
-107.67212400000032
 10
189.79565799999904
 20
-107.38256400000033
 10
189.83248799999905
 20
-107.09452800000032
 10
189.89547999999905
 20
-106.81055600000032
 10
189.98336399999906
 20
-106.53293400000032
 10
190.09537799999907
 20
-106.26394800000031
 10
190.23075999999907
 20
-106.00613800000032
 10
190.38849399999907
 20
-105.7615360000003
 10
190.56756399999907
 20
-105.5326820000003
 10
190.76720799999904
 20
-105.32186200000031
 10
190.98666399999905
 20
-105.13110800000031
 10
191.22466199999906
 20
-104.96321400000032
 10
191.44005399999907
 20
-104.83926200000032
 10
191.66484399999905
 20
-104.7325820000003
 10
191.89776199999906
 20
-104.64292000000032
 10
192.13753799999904
 20
-104.5702760000003
 10
192.38290199999906
 20
-104.5141420000003
 10
192.63283799999905
 20
-104.47426400000032
 10
192.88632999999908
 20
-104.45038800000032
 10
193.14210799999907
 20
-104.44251400000032
 10
193.39890199999905
 20
-104.4501340000003
 10
193.65544199999906
 20
-104.4729940000003
 10
193.91071199999905
 20
-104.5108400000003
 10
194.16344199999904
 20
-104.5634180000003
 10
194.41261599999905
 20
-104.6304740000003
 10
194.65696399999905
 20
-104.71200800000031
 10
194.89521599999904
 20
-104.8075120000003
 10
195.12635599999905
 20
-104.91673200000031
 10
195.43953799999903
 20
-103.65511400000031
 10
195.752465999999
 20
-102.39349600000031
 10
196.065393999999
 20
-101.13187800000031
 10
196.378575999999
 20
-99.87026000000031
 10
196.691503999999
 20
-98.60864200000032
 10
197.00443199999899
 20
-97.34702400000033
 10
197.31761399999897
 20
-96.08540600000033
 10
197.63054199999897
 20
-94.82378800000033
 10
197.94372399999895
 20
-93.56217000000034
 10
198.25665199999895
 20
-92.30055200000034
 10
198.56957999999892
 20
-91.03893400000035
 10
198.8827619999989
 20
-89.77731600000035
 10
199.1956899999989
 20
-88.51569800000036
 10
199.5086179999989
 20
-87.25408000000036
 10
199.8217999999989
 20
-85.99246200000036
 10
200.1347279999989
 20
-84.73084400000036
 10
198.33031199999888
 20
-84.75040200000036
 10
196.52589599999885
 20
-84.76996000000037
 10
194.72173399999886
 20
-84.78951800000037
 10
192.91731799999886
 20
-84.80907600000036
 10
191.11290199999885
 20
-84.82863400000036
 10
189.30848599999885
 20
-84.84819200000037
 10
187.50406999999882
 20
-84.86775000000036
 10
185.69965399999882
 20
-84.88730800000036
 10
183.8952379999988
 20
-84.90686600000036
 10
182.0908219999988
 20
-84.92642400000037
 10
180.28665999999882
 20
-84.94598200000036
 10
178.4822439999988
 20
-84.96554000000036
 10
176.67782799999878
 20
-84.98509800000036
 10
174.87341199999878
 20
-85.00465600000035
 10
173.06899599999878
 20
-85.02421400000036
 10
171.26457999999874
 20
-85.04377200000036
 10
171.46396999999874
 20
-85.47125400000036
 10
171.61179799999874
 20
-85.92591400000036
 10
171.70806399999876
 20
-86.39987800000036
 10
171.75251399999874
 20
-86.88578000000037
 10
171.74514799999875
 20
-87.37625400000036
 10
171.68571199999874
 20
-87.86368000000036
 10
171.57420599999875
 20
-88.34043800000036
 10
171.41037599999873
 20
-88.79890800000035
 10
171.19422199999875
 20
-89.23172400000036
 10
170.92574399999873
 20
-89.63126600000035
 10
170.60468799999873
 20
-89.98991400000034
 10
170.23079999999874
 20
-90.30030200000034
 10
169.80407999999875
 20
-90.55481000000034
 10
169.32452799999874
 20
-90.74607200000034
 10
168.79188999999874
 20
-90.86621400000034
 10
168.20616599999875
 20
-90.90787000000034
 10
168.14876199999875
 20
-90.90761600000035
 10
168.09186599999873
 20
-90.90660000000034
 10
168.03522399999875
 20
-90.90482200000034
 10
167.97908999999873
 20
-90.90228200000034
 10
167.92346399999872
 20
-90.89898000000035
 10
167.86834599999872
 20
-90.89491600000035
 10
167.81373599999873
 20
-90.89034400000035
 10
167.75963399999873
 20
-90.88501000000035
 10
167.70603999999872
 20
-90.87891400000035
 10
167.65269999999873
 20
-90.87231000000034
 10
167.59986799999874
 20
-90.86494400000035
 10
167.54754399999874
 20
-90.85707000000035
 10
167.49572799999873
 20
-90.84843400000035
 10
167.44441999999873
 20
-90.83929000000035
 10
167.39336599999874
 20
-90.82938400000035
 10
167.34281999999874
 20
-90.81897000000035
 10
167.33367599999875
 20
-90.83217800000035
 10
167.32453199999878
 20
-90.84538600000036
 10
167.3153879999988
 20
-90.85859400000037
 10
167.3062439999988
 20
-90.87180200000037
 10
167.2970999999988
 20
-90.88501000000038
 10
167.28795599999881
 20
-90.89821800000038
 10
167.27881199999885
 20
-90.91142600000039
 10
167.26966799999886
 20
-90.9246340000004
 10
167.26052399999887
 20
-90.9378420000004
 10
167.25137999999887
 20
-90.95105000000041
 10
167.2422359999989
 20
-90.96425800000041
 10
167.23309199999892
 20
-90.97746600000042
 10
167.22394799999893
 20
-90.99067400000042
 10
167.21480399999894
 20
-91.00388200000043
 10
167.20565999999894
 20
-91.01709000000042
 10
167.19651599999898
 20
-91.03029800000043
 10
166.41724399999896
 20
-94.08337800000044
 10
165.63797199999897
 20
-97.13645800000043
 10
164.85869999999898
 20
-100.18953800000043
 10
164.07942799999898
 20
-103.24261800000042
 10
163.300155999999
 20
-106.29569800000041
 10
162.520883999999
 20
-109.34877800000041
 10
161.741611999999
 20
-112.4018580000004
 10
160.962339999999
 20
-115.4549380000004
 10
160.183067999999
 20
-118.50801800000039
 10
159.403795999999
 20
-121.56109800000038
 10
158.624523999999
 20
-124.61417800000038
 10
157.84525199999902
 20
-127.66725800000037
 10
157.06597999999903
 20
-130.7203380000004
 10
156.28670799999904
 20
-133.7734180000004
 10
155.50743599999902
 20
-136.82649800000038
 10
154.72816399999903
 20
-139.87957800000038
 10
154.77591599999903
 20
-139.87348200000037
 10
154.910535999999
 20
-139.86179800000036
 10
155.11830799999902
 20
-139.85392400000038
 10
155.38551599999903
 20
-139.85925800000035
 10
155.69895199999903
 20
-139.88745200000037
 10
156.04489999999902
 20
-139.94790400000036
 10
156.40989799999903
 20
-140.0502660000004
 10
156.780483999999
 20
-140.2039360000004
 10
157.142941999999
 20
-140.4185660000004
 10
157.483809999999
 20
-140.7035540000004
 10
157.789625999999
 20
-141.0682980000004
 10
158.046673999999
 20
-141.5224500000004
 10
158.241491999999
 20
-142.0754080000004
 10
158.36061799999902
 20
-142.7368240000004
 10
158.390335999999
 20
-143.5160960000004
 10
158.317437999999
 20
-144.42287600000043
 10
159.921193999999
 20
-144.64969800000043
 10
161.52494999999897
 20
-144.87652000000043
 10
163.12870599999897
 20
-145.10334200000045
 10
164.73246199999897
 20
-145.33016400000045
 10
166.33621799999895
 20
-145.55698600000045
 10
167.93997399999895
 20
-145.78380800000048
 10
169.54372999999893
 20
-146.01063000000048
 10
171.14748599999893
 20
-146.23745200000047
 10
172.7512419999989
 20
-146.46427400000047
 10
174.35499799999891
 20
-146.6910960000005
 10
175.9587539999989
 20
-146.9179180000005
 10
177.5625099999989
 20
-147.1447400000005
 10
179.16626599999887
 20
-147.37156200000052
 10
180.77002199999887
 20
-147.59838400000052
 10
182.37377799999885
 20
-147.82520600000052
 10
183.97753399999885
 20
-148.05202800000055
 10
184.57265599999886
 20
-145.73046800000054
 10
185.16777799999883
 20
-143.40890800000054
 10
185.76289999999884
 20
-141.08734800000056
 10
186.3580219999988
 20
-138.76578800000055
 10
186.95314399999882
 20
-136.44422800000055
 10
187.5482659999988
 20
-134.12266800000054
 10
188.1433879999988
 20
-131.80110800000057
 10
188.73850999999877
 20
-129.47954800000056
 10
189.33363199999877
 20
-127.15798800000057
 10
189.92875399999875
 20
-124.83642800000057
 10
190.52387599999875
 20
-122.51486800000058
 10
191.11899799999873
 20
-120.19330800000058
 10
191.71411999999873
 20
-117.87174800000058
 10
192.3092419999987
 20
-115.55018800000059
 10
192.9043639999987
 20
-113.22862800000058
 10
193.49948599999868
 20
-110.90706800000059
 10
193.4606239999987
 20
-110.90529000000059
 10
193.41795199999868
 20
-110.9019880000006
 10
193.37197799999868
 20
-110.8974160000006
 10
193.32320999999868
 20
-110.8915740000006
 10
193.27240999999867
 20
-110.8847160000006
 10
193.21983199999866
 20
-110.8770960000006
 10
193.16598399999867
 20
-110.86871400000061
 10
193.11162799999866
 20
-110.8598240000006
 10
193.05727199999865
 20
-110.8506800000006
 10
193.00342399999863
 20
-110.8412820000006
 10
192.95059199999866
 20
-110.83188400000061
 10
192.89902999999865
 20
-110.82248600000061
 10
192.84975399999865
 20
-110.81359600000062
 10
192.80301799999867
 20
-110.8049600000006
 10
192.75932999999867
 20
-110.7970860000006
  0
LWPOLYLINE
  5
32
330
17
100
AcDbEntity
  8
0
100
AcDbPolyline
 90
64
 70
1
 10
180.92572399999867
 20
-92.00286400000061
 10
180.94375799999867
 20
-92.36100400000062
 10
180.99684399999865
 20
-92.70873000000063
 10
181.08320399999866
 20
-93.04426400000062
 10
181.20105999999868
 20
-93.36608200000063
 10
181.34863399999867
 20
-93.67215200000062
 10
181.5241479999987
 20
-93.96095000000062
 10
181.72582399999868
 20
-94.23044400000062
 10
181.95188399999867
 20
-94.47911000000062
 10
182.20054999999869
 20
-94.7051700000006
 10
182.4700439999987
 20
-94.90684600000061
 10
182.75884199999868
 20
-95.0823600000006
 10
183.06491199999869
 20
-95.22993400000061
 10
183.3867299999987
 20
-95.3477900000006
 10
183.72226399999872
 20
-95.4341500000006
 10
184.0699899999987
 20
-95.4872360000006
 10
184.4281299999987
 20
-95.5052700000006
 10
184.7862699999987
 20
-95.4872360000006
 10
185.13399599999872
 20
-95.4341500000006
 10
185.4695299999987
 20
-95.3477900000006
 10
185.79134799999872
 20
-95.22993400000061
 10
186.09741799999873
 20
-95.0823600000006
 10
186.3862159999987
 20
-94.90684600000061
 10
186.65570999999872
 20
-94.7051700000006
 10
186.90437599999873
 20
-94.47911000000062
 10
187.13043599999875
 20
-94.23044400000062
 10
187.33211199999874
 20
-93.96095000000062
 10
187.50762599999874
 20
-93.67215200000062
 10
187.65519999999876
 20
-93.36608200000063
 10
187.77305599999877
 20
-93.04426400000062
 10
187.85941599999876
 20
-92.70873000000063
 10
187.91250199999877
 20
-92.36100400000062
 10
187.93053599999877
 20
-92.00286400000061
 10
187.91250199999877
 20
-91.64472400000061
 10
187.85941599999876
 20
-91.2969980000006
 10
187.77305599999877
 20
-90.96146400000059
 10
187.65519999999876
 20
-90.6396460000006
 10
187.50762599999874
 20
-90.33357600000059
 10
187.33211199999874
 20
-90.04477800000059
 10
187.13043599999875
 20
-89.7752840000006
 10
186.90437599999873
 20
-89.52661800000061
 10
186.65570999999872
 20
-89.3005580000006
 10
186.3862159999987
 20
-89.09888200000061
 10
186.09741799999873
 20
-88.92336800000062
 10
185.79134799999872
 20
-88.77579400000062
 10
185.4695299999987
 20
-88.65793800000061
 10
185.13399599999872
 20
-88.57157800000061
 10
184.7862699999987
 20
-88.51849200000062
 10
184.4281299999987
 20
-88.50045800000062
 10
184.0699899999987
 20
-88.51849200000062
 10
183.72226399999872
 20
-88.57157800000061
 10
183.3867299999987
 20
-88.65793800000061
 10
183.06491199999869
 20
-88.77579400000062
 10
182.75884199999868
 20
-88.92336800000062
 10
182.4700439999987
 20
-89.09888200000061
 10
182.20054999999869
 20
-89.3005580000006
 10
181.95188399999867
 20
-89.52661800000061
 10
181.72582399999868
 20
-89.7752840000006
 10
181.5241479999987
 20
-90.04477800000059
 10
181.34863399999867
 20
-90.33357600000059
 10
181.20105999999868
 20
-90.6396460000006
 10
181.08320399999866
 20
-90.96146400000059
 10
180.99684399999865
 20
-91.2969980000006
 10
180.94375799999867
 20
-91.64472400000061
  0
LWPOLYLINE
  5
33
330
17
100
AcDbEntity
  8
0
100
AcDbPolyline
 90
64
 70
1
 10
171.26203999999865
 20
-137.71422800000062
 10
171.28007399999865
 20
-138.0723680000006
 10
171.33315999999863
 20
-138.4200940000006
 10
171.41951999999864
 20
-138.75562800000063
 10
171.53737599999866
 20
-139.07744600000063
 10
171.68494999999865
 20
-139.38351600000064
 10
171.86046399999867
 20
-139.67231400000063
 10
172.06213999999866
 20
-139.94180800000063
 10
172.28819999999865
 20
-140.19047400000065
 10
172.53686599999867
 20
-140.41653400000064
 10
172.80635999999868
 20
-140.61821000000063
 10
173.09515799999866
 20
-140.79372400000065
 10
173.40122799999867
 20
-140.94129800000064
 10
173.7230459999987
 20
-141.05915400000066
 10
174.0585799999987
 20
-141.14551400000067
 10
174.4063059999987
 20
-141.19860000000065
 10
174.76444599999869
 20
-141.21663400000068
 10
175.12258599999868
 20
-141.19860000000065
 10
175.4703119999987
 20
-141.14551400000067
 10
175.8058459999987
 20
-141.05915400000066
 10
176.1276639999987
 20
-140.94129800000064
 10
176.43373399999874
 20
-140.79372400000065
 10
176.72253199999872
 20
-140.61821000000063
 10
176.99202599999873
 20
-140.41653400000064
 10
177.24069199999875
 20
-140.19047400000065
 10
177.46675199999873
 20
-139.94180800000063
 10
177.66842799999873
 20
-139.67231400000063
 10
177.84394199999872
 20
-139.38351600000064
 10
177.99151599999874
 20
-139.07744600000063
 10
178.10937199999876
 20
-138.75562800000063
 10
178.19573199999877
 20
-138.4200940000006
 10
178.24881799999875
 20
-138.0723680000006
 10
178.26685199999875
 20
-137.71422800000062
 10
178.24881799999875
 20
-137.35608800000063
 10
178.19573199999877
 20
-137.0083620000006
 10
178.10937199999876
 20
-136.6728280000006
 10
177.99151599999874
 20
-136.3510100000006
 10
177.84394199999872
 20
-136.0449400000006
 10
177.66842799999873
 20
-135.7561420000006
 10
177.46675199999873
 20
-135.4866480000006
 10
177.24069199999875
 20
-135.23798200000059
 10
176.99202599999873
 20
-135.01192200000057
 10
176.72253199999872
 20
-134.81024600000057
 10
176.43373399999874
 20
-134.63473200000058
 10
176.1276639999987
 20
-134.48715800000056
 10
175.8058459999987
 20
-134.36930200000057
 10
175.4703119999987
 20
-134.28294200000056
 10
175.12258599999868
 20
-134.22985600000055
 10
174.76444599999869
 20
-134.21182200000055
 10
174.4063059999987
 20
-134.22985600000055
 10
174.0585799999987
 20
-134.28294200000056
 10
173.7230459999987
 20
-134.36930200000057
 10
173.40122799999867
 20
-134.48715800000056
 10
173.09515799999866
 20
-134.63473200000058
 10
172.80635999999868
 20
-134.81024600000057
 10
172.53686599999867
 20
-135.01192200000057
 10
172.28819999999865
 20
-135.23798200000059
 10
172.06213999999866
 20
-135.4866480000006
 10
171.86046399999867
 20
-135.7561420000006
 10
171.68494999999865
 20
-136.0449400000006
 10
171.53737599999866
 20
-136.3510100000006
 10
171.41951999999864
 20
-136.6728280000006
 10
171.33315999999863
 20
-137.0083620000006
 10
171.28007399999865
 20
-137.35608800000063
  0
LWPOLYLINE
  5
34
330
17
100
AcDbEntity
  8
0
100
AcDbPolyline
 90
96
 70
1
 10
224.27463399999866
 20
-94.8817000000006
 10
224.65741199999863
 20
-94.99981000000061
 10
225.03028399999863
 20
-95.1346840000006
 10
225.39375799999863
 20
-95.28606800000061
 10
225.74783399999865
 20
-95.4534540000006
 10
226.09301999999863
 20
-95.63633400000062
 10
226.42931599999864
 20
-95.8344540000006
 10
226.75697599999862
 20
-96.04730600000062
 10
227.0762539999986
 20
-96.27463600000061
 10
227.3874039999986
 20
-96.51593600000061
 10
227.6906799999986
 20
-96.7709520000006
 10
227.9863359999986
 20
-97.03892200000061
 10
228.2746259999986
 20
-97.31984600000061
 10
228.5555499999986
 20
-97.6132160000006
 10
228.8296159999986
 20
-97.9185240000006
 10
229.0968239999986
 20
-98.2352620000006
 10
229.3576819999986
 20
-98.56317600000061
 10
229.4986519999986
 20
-98.7508820000006
 10
229.6360659999986
 20
-98.94417600000061
 10
229.7696699999986
 20
-99.1428040000006
 10
229.8989559999986
 20
-99.3465120000006
 10
230.0236699999986
 20
-99.55504600000062
 10
230.1435579999986
 20
-99.76789800000061
 10
230.2581119999986
 20
-99.98481400000061
 10
230.3670779999986
 20
-100.20528600000061
 10
230.47020199999858
 20
-100.42931400000062
 10
230.56697599999856
 20
-100.65639000000061
 10
230.65739999999857
 20
-100.8862600000006
 10
230.74096599999856
 20
-101.11841600000061
 10
230.81716599999854
 20
-101.35260400000061
 10
230.88574599999853
 20
-101.5885700000006
 10
230.94645199999854
 20
-101.82606000000061
 10
230.99902999999856
 20
-102.06456600000061
 10
231.01172999999852
 20
-101.96042600000061
 10
231.02442999999852
 20
-101.8565400000006
 10
231.03738399999853
 20
-101.7526540000006
 10
231.05084599999853
 20
-101.6490220000006
 10
231.06481599999853
 20
-101.5456440000006
 10
231.07929399999853
 20
-101.44226600000061
 10
231.09478799999854
 20
-101.3391420000006
 10
231.11129799999856
 20
-101.23601800000061
 10
231.12882399999853
 20
-101.1328940000006
 10
231.1476199999985
 20
-101.02977000000061
 10
231.16793999999854
 20
-100.9266460000006
 10
231.18978399999853
 20
-100.82352200000061
 10
231.2134059999985
 20
-100.7203980000006
 10
231.23880599999853
 20
-100.61702000000061
 10
231.2662379999985
 20
-100.51364200000062
 10
231.2959559999985
 20
-100.41026400000061
 10
231.3363419999985
 20
-100.27818400000062
 10
231.3785059999985
 20
-100.14686600000063
 10
231.42244799999852
 20
-100.01605600000063
 10
231.4681679999985
 20
-99.88575400000063
 10
231.5156659999985
 20
-99.75621400000064
 10
231.5649419999985
 20
-99.62718200000064
 10
231.61599599999852
 20
-99.49891200000064
 10
231.6685739999985
 20
-99.37115000000064
 10
231.7226759999985
 20
-99.24415000000064
 10
231.77830199999852
 20
-99.11791200000064
 10
231.83545199999853
 20
-98.99218200000064
 10
231.89412599999852
 20
-98.86721400000063
 10
231.95406999999852
 20
-98.74300800000064
 10
232.01553799999851
 20
-98.61931000000064
 10
232.07827599999848
 20
-98.49637400000064
 10
232.14228399999848
 20
-98.37420000000064
 10
232.2850319999985
 20
-98.11639000000065
 10
232.43285999999847
 20
-97.86950200000065
 10
232.58551399999848
 20
-97.63226600000064
 10
232.7427399999985
 20
-97.40315800000064
 10
232.90428399999848
 20
-97.18116200000064
 10
233.06963799999846
 20
-96.96475400000064
 10
233.23829399999846
 20
-96.75266400000065
 10
233.40999799999847
 20
-96.54362200000065
 10
233.58449599999847
 20
-96.33635800000066
 10
233.7612799999985
 20
-96.12960200000066
 10
233.94009599999848
 20
-95.92208400000065
 10
234.1206899999985
 20
-95.71228000000065
 10
234.30255399999848
 20
-95.49917400000065
 10
234.4854339999985
 20
-95.28124200000065
 10
234.66882199999847
 20
-95.05746800000065
 10
234.85246399999846
 20
-94.82632800000064
 10
234.19130199999847
 20
-94.82988400000065
 10
233.53013999999848
 20
-94.83344000000065
 10
232.8689779999985
 20
-94.83699600000065
 10
232.20781599999853
 20
-94.84055200000066
 10
231.54665399999854
 20
-94.84410800000066
 10
230.88549199999855
 20
-94.84766400000066
 10
230.22432999999856
 20
-94.85122000000067
 10
229.56316799999857
 20
-94.85477600000067
 10
228.90200599999858
 20
-94.85833200000067
 10
228.2408439999986
 20
-94.86188800000068
 10
227.5796819999986
 20
-94.86544400000068
 10
226.9185199999986
 20
-94.86900000000068
 10
226.25735799999862
 20
-94.87255600000069
 10
225.59619599999863
 20
-94.87611200000069
 10
224.93503399999867
 20
-94.87966800000069
  0
LWPOLYLINE
  5
35
330
17
100
AcDbEntity
  8
0
100
AcDbPolyline
 90
144
 70
1
 10
263.8224339999987
 20
-88.41841600000069
 10
263.4264479999987
 20
-88.4267980000007
 10
263.0302079999987
 20
-88.4351800000007
 10
262.63396799999873
 20
-88.4435620000007
 10
262.23798199999874
 20
-88.45194400000071
 10
261.84174199999876
 20
-88.4603260000007
 10
261.44575599999877
 20
-88.46870800000072
 10
261.0495159999988
 20
-88.47709000000071
 10
260.6535299999988
 20
-88.48547200000073
 10
260.25728999999876
 20
-88.49385400000072
 10
259.8613039999988
 20
-88.50223600000074
 10
259.4650639999988
 20
-88.51061800000073
 10
259.0688239999988
 20
-88.51900000000074
 10
258.67258399999884
 20
-88.52738200000074
 10
258.27634399999886
 20
-88.53576400000074
 10
257.8801039999989
 20
-88.54414600000075
 10
257.4838639999989
 20
-88.55252800000075
 10
257.47624399999887
 20
-88.30132200000077
 10
257.4686239999989
 20
-88.05011600000077
 10
257.4610039999989
 20
-87.79891000000077
 10
257.4533839999989
 20
-87.54770400000078
 10
257.4457639999989
 20
-87.29649800000078
 10
257.43814399999894
 20
-87.04529200000079
 10
257.4305239999989
 20
-86.7940860000008
 10
257.42290399999894
 20
-86.5428800000008
 10
257.41528399999896
 20
-86.29167400000081
 10
257.40766399999893
 20
-86.04046800000081
 10
257.40004399999896
 20
-85.78926200000082
 10
257.392423999999
 20
-85.53805600000082
 10
257.38480399999895
 20
-85.28685000000084
 10
257.377183999999
 20
-85.03564400000084
 10
257.369563999999
 20
-84.78443800000085
 10
257.36194399999897
 20
-84.53323200000085
 10
257.417569999999
 20
-84.49792600000085
 10
257.472433999999
 20
-84.46135000000085
 10
257.526281999999
 20
-84.42350400000085
 10
257.57936799999896
 20
-84.38464200000084
 10
257.631945999999
 20
-84.34501800000083
 10
257.683761999999
 20
-84.30437800000084
 10
257.735069999999
 20
-84.26297600000083
 10
257.78586999999897
 20
-84.22081200000083
 10
257.836161999999
 20
-84.17814000000084
 10
257.886199999999
 20
-84.13496000000083
 10
257.935983999999
 20
-84.09152600000083
 10
257.985513999999
 20
-84.04783800000082
 10
258.03478999999896
 20
-84.00389600000082
 10
258.084065999999
 20
-83.95995400000082
 10
258.13334199999895
 20
-83.91601200000082
 10
258.18261799999897
 20
-83.87207000000082
 10
258.43458599999894
 20
-83.65185200000082
 10
258.69036399999897
 20
-83.43595200000081
 10
258.94969799999893
 20
-83.2243700000008
 10
259.2125879999989
 20
-83.0173600000008
 10
259.47903399999893
 20
-82.81492200000079
 10
259.7487819999989
 20
-82.6170560000008
 10
260.02183199999894
 20
-82.42376200000079
 10
260.2981839999989
 20
-82.2350400000008
 10
260.57783799999896
 20
-82.05089000000079
 10
260.86053999999893
 20
-81.87156600000078
 10
261.14603599999896
 20
-81.69706800000078
 10
261.43457999999896
 20
-81.52739600000078
 10
261.72591799999896
 20
-81.36280400000078
 10
262.02004999999895
 20
-81.20303800000077
 10
262.3167219999989
 20
-81.04835200000078
 10
262.6161879999989
 20
-80.89874600000077
 10
262.65936799999895
 20
-80.87639400000077
 10
262.7142319999989
 20
-80.84667600000076
 10
262.77925599999895
 20
-80.81086200000075
 10
262.85240799999895
 20
-80.77073000000075
 10
262.932163999999
 20
-80.72755000000075
 10
263.01649199999895
 20
-80.68310000000075
 10
263.103867999999
 20
-80.63865000000074
 10
263.192513999999
 20
-80.59572400000074
 10
263.28090599999894
 20
-80.55610000000074
 10
263.36701199999897
 20
-80.52104800000075
 10
263.44930799999895
 20
-80.49209200000075
 10
263.52576199999896
 20
-80.47075600000076
 10
263.5948499999989
 20
-80.45856400000076
 10
263.65504799999894
 20
-80.45704000000076
 10
263.70432399999896
 20
-80.46770800000075
 10
263.7411539999989
 20
-80.49209200000075
 10
263.7591879999989
 20
-80.51673000000075
 10
263.7734119999989
 20
-80.54721000000076
 10
263.7840799999989
 20
-80.58277000000075
 10
263.7916999999989
 20
-80.62264800000075
 10
263.7965259999989
 20
-80.66608200000074
 10
263.7990659999989
 20
-80.71205600000074
 10
263.79957399999887
 20
-80.76006200000074
 10
263.79855799999893
 20
-80.80933800000075
 10
263.7962719999989
 20
-80.85886800000075
 10
263.79322399999893
 20
-80.90789000000075
 10
263.7894139999989
 20
-80.95589600000075
 10
263.78560399999884
 20
-81.00187000000075
 10
263.7820479999989
 20
-81.04505000000074
 10
263.7789999999989
 20
-81.08467400000075
 10
263.7769679999989
 20
-81.11998000000075
 10
263.7764599999989
 20
-81.14995200000075
 10
263.7767139999989
 20
-81.19872000000075
 10
263.7769679999989
 20
-81.24748800000076
 10
263.7772219999989
 20
-81.29625600000075
 10
263.7774759999989
 20
-81.34502400000076
 10
263.7777299999989
 20
-81.39379200000076
 10
263.77798399999887
 20
-81.44256000000077
 10
263.77823799999885
 20
-81.49132800000076
 10
263.77849199999883
 20
-81.54009600000077
 10
263.7787459999989
 20
-81.58886400000077
 10
263.77899999999886
 20
-81.63763200000076
 10
263.77925399999884
 20
-81.68640000000077
 10
263.7795079999988
 20
-81.73516800000077
 10
263.7797619999988
 20
-81.78393600000078
 10
263.78001599999885
 20
-81.83270400000077
 10
263.78026999999884
 20
-81.88147200000078
 10
263.7805239999988
 20
-81.93024000000078
 10
263.78179399999885
 20
-82.11972400000077
 10
263.7830639999989
 20
-82.30920800000077
 10
263.7843339999989
 20
-82.49869200000077
 10
263.7856039999989
 20
-82.68817600000077
 10
263.78687399999893
 20
-82.87766000000076
 10
263.78814399999897
 20
-83.06714400000075
 10
263.789413999999
 20
-83.25662800000075
 10
263.79068399999903
 20
-83.44611200000074
 10
263.79195399999907
 20
-83.63559600000073
 10
263.7932239999991
 20
-83.82508000000074
 10
263.79449399999913
 20
-84.01456400000073
 10
263.79576399999917
 20
-84.20404800000072
 10
263.7970339999992
 20
-84.39353200000072
 10
263.7983039999992
 20
-84.58301600000071
 10
263.7995739999992
 20
-84.7725000000007
 10
263.80084399999924
 20
-84.9619840000007
 10
263.8021139999993
 20
-85.1781380000007
 10
263.8033839999993
 20
-85.3942920000007
 10
263.80465399999935
 20
-85.6104460000007
 10
263.8059239999994
 20
-85.82660000000071
 10
263.8071939999994
 20
-86.0427540000007
 10
263.80846399999945
 20
-86.2589080000007
 10
263.8097339999994
 20
-86.4750620000007
 10
263.81100399999946
 20
-86.69121600000071
 10
263.8122739999995
 20
-86.9073700000007
 10
263.8135439999995
 20
-87.1235240000007
 10
263.81481399999956
 20
-87.3396780000007
 10
263.8160839999996
 20
-87.5558320000007
 10
263.8173539999996
 20
-87.7719860000007
 10
263.81862399999966
 20
-87.9881400000007
 10
263.8198939999997
 20
-88.2042940000007
  0
LWPOLYLINE
  5
36
330
17
100
AcDbEntity
  8
0
100
AcDbPolyline
 90
368
 70
1
 10
256.84581599999973
 20
-84.8578440000007
 10
253.30200799999972
 20
-84.8621620000007
 10
249.7581999999997
 20
-84.86648000000069
 10
246.2143919999997
 20
-84.87079800000069
 10
242.6705839999997
 20
-84.87511600000069
 10
239.1267759999997
 20
-84.87943400000069
 10
235.5829679999997
 20
-84.8837520000007
 10
232.0391599999997
 20
-84.8880700000007
 10
228.4953519999997
 20
-84.8923880000007
 10
224.9515439999997
 20
-84.89670600000069
 10
221.40773599999972
 20
-84.90102400000069
 10
217.8639279999997
 20
-84.90534200000069
 10
214.32011999999972
 20
-84.90966000000068
 10
210.7763119999997
 20
-84.91397800000068
 10
207.23250399999972
 20
-84.91829600000068
 10
203.6886959999997
 20
-84.92261400000068
 10
200.1448879999997
 20
-84.92693200000068
 10
199.8314519999997
 20
-86.17889800000067
 10
199.51801599999968
 20
-87.43086400000067
 10
199.20457999999968
 20
-88.68283000000066
 10
198.89114399999968
 20
-89.93479600000066
 10
198.57770799999966
 20
-91.18676200000064
 10
198.26427199999966
 20
-92.43872800000064
 10
197.95083599999964
 20
-93.69069400000063
 10
197.63739999999964
 20
-94.94266000000063
 10
197.32396399999962
 20
-96.19462600000062
 10
197.01052799999962
 20
-97.44659200000062
 10
196.6970919999996
 20
-98.6985580000006
 10
196.3836559999996
 20
-99.9505240000006
 10
196.07021999999958
 20
-101.2024900000006
 10
195.75678399999958
 20
-102.45445600000059
 10
195.44334799999956
 20
-103.70642200000059
 10
195.12991199999956
 20
-104.95838800000057
 10
195.07555599999955
 20
-104.93019400000058
 10
195.01764399999956
 20
-104.90123800000059
 10
194.95617599999957
 20
-104.87177400000058
 10
194.89115199999958
 20
-104.84205600000058
 10
194.82257199999958
 20
-104.81208400000058
 10
194.75068999999957
 20
-104.78236600000058
 10
194.67525199999957
 20
-104.75290200000059
 10
194.5965119999996
 20
-104.7239460000006
 10
194.5144699999996
 20
-104.6957520000006
 10
194.42912599999957
 20
-104.66857400000059
 10
194.3407339999996
 20
-104.64266600000059
 10
194.2492939999996
 20
-104.61802800000059
 10
194.15455199999957
 20
-104.5951680000006
 10
194.0567619999996
 20
-104.57408600000059
 10
193.9561779999996
 20
-104.5550360000006
 10
193.8525459999996
 20
-104.5385260000006
 10
193.76745599999958
 20
-104.5263340000006
 10
193.65493399999957
 20
-104.5121100000006
 10
193.5177739999996
 20
-104.4983940000006
 10
193.3585159999996
 20
-104.48747200000061
 10
193.1799539999996
 20
-104.4816300000006
 10
192.98462799999962
 20
-104.48340800000061
 10
192.77533199999962
 20
-104.4950920000006
 10
192.5546059999996
 20
-104.51922200000061
 10
192.32498999999962
 20
-104.5580840000006
 10
192.0892779999996
 20
-104.61421800000062
 10
191.8500099999996
 20
-104.68991000000061
 10
191.6099799999996
 20
-104.78744600000061
 10
191.3717279999996
 20
-104.90936600000062
 10
191.1380479999996
 20
-105.05795600000062
 10
190.9114799999996
 20
-105.23575600000062
 10
190.6948179999996
 20
-105.44505200000062
 10
190.5408939999996
 20
-105.62336000000062
 10
190.4022099999996
 20
-105.81208200000061
 10
190.2790199999996
 20
-106.00994800000062
 10
190.17106999999962
 20
-106.21594200000061
 10
190.0786139999996
 20
-106.42879400000061
 10
190.0019059999996
 20
-106.6474880000006
 10
189.9409459999996
 20
-106.87075400000062
 10
189.8959879999996
 20
-107.09732200000062
 10
189.86677799999958
 20
-107.32617600000061
 10
189.85382399999958
 20
-107.55630000000062
 10
189.8571259999996
 20
-107.78617000000061
 10
189.87668399999959
 20
-108.01502400000062
 10
189.91249799999957
 20
-108.24133800000062
 10
189.96482199999957
 20
-108.46435000000062
 10
190.0339099999996
 20
-108.68253600000061
 10
190.11976199999958
 20
-108.89488000000061
 10
190.25336599999957
 20
-109.15523000000061
 10
190.40627399999957
 20
-109.3909420000006
 10
190.57543799999956
 20
-109.60303200000061
 10
190.75755599999957
 20
-109.7930240000006
 10
190.94957999999957
 20
-109.96193400000061
 10
191.14846199999957
 20
-110.1110320000006
 10
191.35089999999957
 20
-110.2415880000006
 10
191.55384599999957
 20
-110.35512600000061
 10
191.75425199999955
 20
-110.45266200000061
 10
191.94881599999957
 20
-110.53546600000061
 10
192.13474399999956
 20
-110.60480800000062
 10
192.30847999999955
 20
-110.66195800000062
 10
192.46722999999955
 20
-110.70793200000062
 10
192.60769199999953
 20
-110.74425400000062
 10
192.72681799999955
 20
-110.77219400000062
 10
192.82155999999958
 20
-110.79302200000062
 10
192.87515399999958
 20
-110.80419800000061
 10
192.92773199999957
 20
-110.81435800000062
 10
192.97929399999956
 20
-110.82375600000061
 10
193.02958599999957
 20
-110.83213800000061
 10
193.07886199999953
 20
-110.83975800000061
 10
193.12686799999955
 20
-110.84661600000061
 10
193.17360399999953
 20
-110.85271200000061
 10
193.21906999999953
 20
-110.85804600000061
 10
193.2632659999995
 20
-110.8628720000006
 10
193.3061919999995
 20
-110.86693600000062
 10
193.3475939999995
 20
-110.87049200000062
 10
193.38747199999952
 20
-110.87354000000062
 10
193.42582599999952
 20
-110.87608000000061
 10
193.4626559999995
 20
-110.87811200000061
 10
193.49796199999952
 20
-110.87989000000061
 10
193.5314899999995
 20
-110.88116000000062
 10
193.3661359999995
 20
-111.52708200000062
 10
193.20078199999952
 20
-112.17300400000062
 10
193.03542799999954
 20
-112.81892600000062
 10
192.87007399999953
 20
-113.46484800000061
 10
192.70471999999955
 20
-114.11077000000063
 10
192.53936599999957
 20
-114.75669200000063
 10
192.37401199999957
 20
-115.40261400000063
 10
192.2086579999996
 20
-116.04853600000062
 10
192.0433039999996
 20
-116.69445800000062
 10
191.87794999999963
 20
-117.34038000000064
 10
191.71259599999962
 20
-117.98630200000063
 10
191.54724199999964
 20
-118.63222400000063
 10
191.38188799999966
 20
-119.27814600000063
 10
191.21653399999965
 20
-119.92406800000063
 10
191.05117999999968
 20
-120.56999000000064
 10
190.8858259999997
 20
-121.21591200000064
 10
190.98971199999968
 20
-121.02998400000064
 10
191.1360159999997
 20
-120.77141200000064
 10
191.32067399999968
 20
-120.44984800000063
 10
191.53962199999967
 20
-120.07494400000063
 10
191.78904999999966
 20
-119.65635200000062
 10
192.06489399999967
 20
-119.20372400000063
 10
192.36308999999966
 20
-118.72671200000063
 10
192.67982799999965
 20
-118.23496800000065
 10
193.01104399999966
 20
-117.73814400000063
 10
193.35292799999965
 20
-117.24563800000062
 10
193.70141599999963
 20
-116.76735600000063
 10
194.05244399999964
 20
-116.31269600000063
 10
194.4019479999996
 20
-115.89156400000063
 10
194.74611799999963
 20
-115.51335800000064
 10
195.08114399999963
 20
-115.18798400000063
 10
195.4027079999996
 20
-114.92484000000063
 10
195.4408079999996
 20
-114.89715400000064
 10
195.4781459999996
 20
-114.87048400000063
 10
195.5142139999996
 20
-114.84508400000063
 10
195.5490119999996
 20
-114.82070000000063
 10
195.5820319999996
 20
-114.79784000000063
 10
195.61327399999962
 20
-114.77625000000063
 10
195.64248399999963
 20
-114.75618400000063
 10
195.66966199999962
 20
-114.73789600000063
 10
195.6942999999996
 20
-114.72138600000063
 10
195.7163979999996
 20
-114.70665400000064
 10
195.7357019999996
 20
-114.69395400000063
 10
195.7519579999996
 20
-114.68328600000063
 10
195.7649119999996
 20
-114.67490400000064
 10
195.77430999999962
 20
-114.66880800000064
 10
195.78015199999962
 20
-114.66499800000064
 10
195.78218399999963
 20
-114.66372800000065
 10
195.95845999999963
 20
-114.55374600000064
 10
196.13752999999963
 20
-114.44935200000064
 10
196.31939399999965
 20
-114.35054600000063
 10
196.50405199999963
 20
-114.25707400000064
 10
196.69099599999964
 20
-114.16868200000064
 10
196.88022599999962
 20
-114.08511600000064
 10
197.07174199999963
 20
-114.00637600000063
 10
197.26528999999962
 20
-113.93220800000064
 10
197.46061599999962
 20
-113.86235800000065
 10
197.65746599999963
 20
-113.79682600000065
 10
197.8558399999996
 20
-113.73535800000064
 10
198.05548399999958
 20
-113.67770000000066
 10
198.25639799999962
 20
-113.62385200000065
 10
198.4583279999996
 20
-113.57330600000066
 10
198.6610199999996
 20
-113.52606200000066
 10
198.8644739999996
 20
-113.48212000000066
 10
198.93279999999962
 20
-113.46738800000067
 10
199.00087199999962
 20
-113.45214800000066
 10
199.06868999999963
 20
-113.43614600000066
 10
199.13599999999963
 20
-113.41938200000067
 10
199.20305599999963
 20
-113.40185600000066
 10
199.26960399999962
 20
-113.38382200000066
 10
199.3356439999996
 20
-113.36502600000065
 10
199.40117599999962
 20
-113.34546800000065
 10
199.46619999999962
 20
-113.32514800000067
 10
199.53071599999961
 20
-113.30406600000066
 10
199.5944699999996
 20
-113.28222200000064
 10
199.65771599999962
 20
-113.25987000000065
 10
199.7201999999996
 20
-113.23675600000064
 10
199.78192199999964
 20
-113.21288000000064
 10
199.84288199999963
 20
-113.18824200000064
 10
199.90307999999962
 20
-113.16284200000064
 10
200.16317599999962
 20
-113.04168400000064
 10
200.4171759999996
 20
-112.90604800000065
 10
200.66380999999961
 20
-112.75618800000066
 10
200.90206199999963
 20
-112.59261200000066
 10
201.13091599999962
 20
-112.41557400000066
 10
201.3493559999996
 20
-112.22583600000065
 10
201.55611199999962
 20
-112.02365200000065
 10
201.74991399999962
 20
-111.80953000000065
 10
201.9299999999996
 20
-111.58372400000064
 10
202.0950999999996
 20
-111.34674200000065
 10
202.24419799999959
 20
-111.09909200000064
 10
202.3760239999996
 20
-110.84102800000063
 10
202.48956199999958
 20
-110.57331200000064
 10
202.58379599999958
 20
-110.29619800000064
 10
202.65745599999957
 20
-110.00994000000064
 10
202.70977999999957
 20
-109.71504600000064
 10
202.7270519999996
 20
-109.57636200000064
 10
202.7412759999996
 20
-109.42421600000064
 10
202.75118199999957
 20
-109.25835400000064
 10
202.7549919999996
 20
-109.07852200000063
 10
202.7509279999996
 20
-108.88446600000063
 10
202.7377199999996
 20
-108.67618600000063
 10
202.71358999999958
 20
-108.45342800000063
 10
202.67675999999958
 20
-108.21593800000063
 10
202.62570599999958
 20
-107.96346200000062
 10
202.55890399999956
 20
-107.69600000000062
 10
202.47482999999957
 20
-107.41329800000062
 10
202.3717059999996
 20
-107.11535600000062
 10
202.24800799999957
 20
-106.80166600000062
 10
202.1022119999996
 20
-106.47222800000061
 10
201.9325399999996
 20
-106.1267880000006
 10
201.73746799999958
 20
-105.7653460000006
 10
201.61656399999958
 20
-105.5395400000006
 10
201.50581999999957
 20
-105.30967000000061
 10
201.4052359999996
 20
-105.07599000000062
 10
201.3148119999996
 20
-104.8387540000006
 10
201.2345479999996
 20
-104.5982160000006
 10
201.16418999999956
 20
-104.3548840000006
 10
201.10348399999955
 20
-104.10901200000059
 10
201.05268399999954
 20
-103.8608540000006
 10
201.01153599999955
 20
-103.6106640000006
 10
200.98003999999955
 20
-103.35895000000059
 10
200.95794199999955
 20
-103.1057120000006
 10
200.94524199999955
 20
-102.8514580000006
 10
200.94193999999953
 20
-102.5964420000006
 10
200.94778199999956
 20
-102.3411720000006
 10
200.96276799999956
 20
-102.0856480000006
 10
200.98689799999954
 20
-101.83037800000061
 10
201.05928799999955
 20
-101.30891600000061
 10
201.16799999999955
 20
-100.7480840000006
 10
201.31760599999956
 20
-100.15829600000059
 10
201.51293199999955
 20
-99.5494580000006
 10
201.75880399999954
 20
-98.9319840000006
 10
202.06004799999957
 20
-98.3157800000006
 10
202.42123599999957
 20
-97.71100600000061
 10
202.84719399999958
 20
-97.12756800000061
 10
203.34274799999957
 20
-96.5758800000006
 10
203.91272399999957
 20
-96.0658480000006
 10
204.5619479999996
 20
-95.6076320000006
 10
205.29499199999958
 20
-95.21139200000061
 10
206.1166819999996
 20
-94.88728800000061
 10
207.03184399999958
 20
-94.64522600000062
 10
208.0453039999996
 20
-94.49562000000061
 10
209.16188799999958
 20
-94.44837600000062
 10
209.17992199999958
 20
-94.43567600000061
 10
209.23402399999955
 20
-94.40011600000062
 10
209.32368599999955
 20
-94.34474400000062
 10
209.44865399999955
 20
-94.27286200000061
 10
209.60841999999954
 20
-94.18777200000062
 10
209.80272999999954
 20
-94.09277600000061
 10
210.03107599999953
 20
-93.99117600000062
 10
210.29320399999955
 20
-93.88627400000061
 10
210.58885999999956
 20
-93.78137200000062
 10
210.91753599999956
 20
-93.67977200000063
 10
211.27897799999954
 20
-93.58477600000062
 10
211.67267799999954
 20
-93.49968600000062
 10
212.09838199999953
 20
-93.42780400000062
 10
212.55558199999953
 20
-93.37243200000061
 10
213.04402399999952
 20
-93.33687200000061
 10
213.56345399999952
 20
-93.32417200000062
 10
214.84716999999952
 20
-93.32417200000062
 10
216.13088599999952
 20
-93.32417200000062
 10
217.4146019999995
 20
-93.32417200000062
 10
218.6983179999995
 20
-93.32417200000062
 10
219.9820339999995
 20
-93.32417200000062
 10
221.26574999999949
 20
-93.32417200000062
 10
222.54946599999948
 20
-93.32417200000062
 10
223.83318199999948
 20
-93.32417200000062
 10
225.11689799999945
 20
-93.32417200000062
 10
226.40061399999945
 20
-93.32417200000062
 10
227.68432999999945
 20
-93.32417200000062
 10
228.96804599999945
 20
-93.32417200000062
 10
230.25176199999945
 20
-93.32417200000062
 10
231.53547799999944
 20
-93.32417200000062
 10
232.8191939999994
 20
-93.32417200000062
 10
234.1029099999994
 20
-93.32417200000062
 10
234.19638199999943
 20
-93.2334940000006
 10
234.28985399999945
 20
-93.1428160000006
 10
234.38332599999944
 20
-93.05213800000058
 10
234.47679799999946
 20
-92.96146000000059
 10
234.57026999999948
 20
-92.87078200000057
 10
234.6637419999995
 20
-92.78010400000056
 10
234.75721399999952
 20
-92.68942600000057
 10
234.8506859999995
 20
-92.59874800000055
 10
234.94415799999953
 20
-92.50807000000054
 10
235.03762999999955
 20
-92.41739200000053
 10
235.13110199999957
 20
-92.32671400000054
 10
235.22457399999956
 20
-92.23603600000052
 10
235.31804599999958
 20
-92.14535800000051
 10
235.4115179999996
 20
-92.05468000000052
 10
235.50498999999962
 20
-91.9640020000005
 10
235.5984619999996
 20
-91.8733240000005
 10
235.83315799999963
 20
-91.6559000000005
 10
236.07699799999963
 20
-91.4506680000005
 10
236.32947399999964
 20
-91.25788200000049
 10
236.58982399999962
 20
-91.0775420000005
 10
236.85779399999961
 20
-90.9099020000005
 10
237.1328759999996
 20
-90.7554700000005
 10
237.4148159999996
 20
-90.61424600000049
 10
237.7028519999996
 20
-90.48623000000049
 10
237.9964759999996
 20
-90.37193000000049
 10
238.2954339999996
 20
-90.27134600000049
 10
238.59896399999963
 20
-90.1847320000005
 10
238.90681199999963
 20
-90.11234200000048
 10
239.21821599999961
 20
-90.05443000000048
 10
239.53292199999962
 20
-90.01125000000047
 10
239.85042199999964
 20
-89.98280200000048
 10
240.17020799999963
 20
-89.96934000000047
 10
241.16512599999965
 20
-89.96222800000047
 10
242.16004399999966
 20
-89.95511600000046
 10
243.15496199999964
 20
-89.94800400000045
 10
244.14987999999965
 20
-89.94089200000045
 10
245.14479799999967
 20
-89.93378000000045
 10
246.13971599999968
 20
-89.92666800000045
 10
247.1346339999997
 20
-89.91955600000044
 10
248.1295519999997
 20
-89.91244400000043
 10
249.1244699999997
 20
-89.90533200000043
 10
250.1193879999997
 20
-89.89822000000042
 10
251.11430599999971
 20
-89.89110800000041
 10
252.10922399999973
 20
-89.88399600000041
 10
253.10414199999974
 20
-89.8768840000004
 10
254.09905999999975
 20
-89.8697720000004
 10
255.09397799999974
 20
-89.8626600000004
 10
256.08889599999975
 20
-89.8555480000004
 10
256.16661999999974
 20
-89.85021400000039
 10
256.24205799999976
 20
-89.83751400000038
 10
256.31495599999977
 20
-89.8177020000004
 10
256.38455199999976
 20
-89.79103200000038
 10
256.4508459999998
 20
-89.75801200000039
 10
256.51332999999977
 20
-89.71915000000038
 10
256.5714959999998
 20
-89.67470000000039
 10
256.6250899999998
 20
-89.62491600000037
 10
256.67385799999977
 20
-89.57030600000039
 10
256.7172919999998
 20
-89.51112400000038
 10
256.7551379999998
 20
-89.44787800000037
 10
256.7868879999998
 20
-89.38107600000038
 10
256.8122879999998
 20
-89.31097200000038
 10
256.8308299999998
 20
-89.23782000000037
 10
256.8422599999998
 20
-89.16212800000037
 10
256.84606999999977
 20
-89.08415000000036
 10
256.84606999999977
 20
-88.82024400000037
 10
256.84606999999977
 20
-88.55633800000038
 10
256.84606999999977
 20
-88.29243200000037
 10
256.84606999999977
 20
-88.02852600000038
 10
256.84606999999977
 20
-87.76462000000038
 10
256.84606999999977
 20
-87.50071400000039
 10
256.84606999999977
 20
-87.2368080000004
 10
256.84606999999977
 20
-86.97290200000039
 10
256.84606999999977
 20
-86.7089960000004
 10
256.84606999999977
 20
-86.4450900000004
 10
256.84606999999977
 20
-86.1811840000004
 10
256.84606999999977
 20
-85.91727800000041
 10
256.84606999999977
 20
-85.65337200000042
 10
256.84606999999977
 20
-85.38946600000041
 10
256.84606999999977
 20
-85.12556000000042
  0
LWPOLYLINE
  5
37
330
17
100
AcDbEntity
  8
0
100
AcDbPolyline
 90
32
 70
1
 10
208.7013859999998
 20
-93.41713600000041
 10
208.5185059999998
 20
-93.39910200000041
 10
208.3600099999998
 20
-93.3477940000004
 10
208.22589799999977
 20
-93.2680380000004
 10
208.11616999999978
 20
-93.16466000000041
 10
208.03082599999976
 20
-93.04248600000041
 10
207.96986599999977
 20
-92.90608800000042
 10
207.93328999999977
 20
-92.76029200000042
 10
207.92109799999977
 20
-92.6096700000004
 10
207.93328999999977
 20
-92.45904800000041
 10
207.96986599999977
 20
-92.3132520000004
 10
208.03082599999976
 20
-92.1768540000004
 10
208.11616999999978
 20
-92.0546800000004
 10
208.22589799999977
 20
-91.95130200000041
 10
208.3600099999998
 20
-91.87154600000041
 10
208.5185059999998
 20
-91.82023800000042
 10
208.7011319999998
 20
-91.8022040000004
 10
208.8840119999998
 20
-91.82023800000042
 10
209.04250799999983
 20
-91.87154600000041
 10
209.17661999999982
 20
-91.95130200000041
 10
209.28634799999983
 20
-92.0546800000004
 10
209.37169199999983
 20
-92.1768540000004
 10
209.43265199999982
 20
-92.3132520000004
 10
209.46922799999984
 20
-92.45904800000041
 10
209.48141999999984
 20
-92.6096700000004
 10
209.46922799999984
 20
-92.76029200000042
 10
209.43265199999982
 20
-92.90608800000042
 10
209.37169199999983
 20
-93.04248600000041
 10
209.28634799999983
 20
-93.16466000000041
 10
209.17661999999982
 20
-93.2680380000004
 10
209.04250799999983
 20
-93.3477940000004
 10
208.8840119999998
 20
-93.39910200000041
  0
LWPOLYLINE
  5
38
330
17
100
AcDbEntity
  8
0
100
AcDbPolyline
 90
32
 70
1
 10
215.0064279999998
 20
-88.86215400000042
 10
214.5751359999998
 20
-88.81948200000042
 10
214.2012479999998
 20
-88.69857800000042
 10
213.8850179999998
 20
-88.51087200000042
 10
213.6264459999998
 20
-88.26728600000042
 10
213.4252779999998
 20
-87.97899600000042
 10
213.28176799999977
 20
-87.65717800000043
 10
213.19566199999977
 20
-87.31326200000044
 10
213.16721399999977
 20
-86.95817000000042
 10
213.19616999999977
 20
-86.60307800000042
 10
213.28252999999978
 20
-86.25916200000042
 10
213.42629399999979
 20
-85.93734400000042
 10
213.6274619999998
 20
-85.64905400000042
 10
213.8860339999998
 20
-85.40546800000043
 10
214.2020099999998
 20
-85.21776200000043
 10
214.57538999999983
 20
-85.09685800000044
 10
215.00617399999982
 20
-85.05418600000043
 10
215.4377199999998
 20
-85.09685800000044
 10
215.8116079999998
 20
-85.21776200000043
 10
216.12783799999983
 20
-85.40546800000043
 10
216.3864099999998
 20
-85.64905400000042
 10
216.58757799999984
 20
-85.93734400000042
 10
216.73108799999983
 20
-86.25916200000042
 10
216.81719399999986
 20
-86.60307800000042
 10
216.84564199999986
 20
-86.95817000000042
 10
216.81668599999983
 20
-87.31326200000044
 10
216.73032599999982
 20
-87.65717800000043
 10
216.58656199999982
 20
-87.97899600000042
 10
216.38539399999982
 20
-88.26728600000042
 10
216.1268219999998
 20
-88.51087200000042
 10
215.8108459999998
 20
-88.69857800000042
 10
215.4374659999998
 20
-88.81948200000042
  0
LWPOLYLINE
  5
39
330
17
100
AcDbEntity
  8
0
100
AcDbPolyline
 90
64
 70
1
 10
212.31555199999977
 20
-111.85575800000042
 10
212.25509999999977
 20
-111.86160000000042
 10
212.19464799999975
 20
-111.86744200000044
 10
212.13419599999975
 20
-111.87328400000044
 10
212.07399799999973
 20
-111.87912600000045
 10
212.01354599999974
 20
-111.88496800000046
 10
211.95334799999975
 20
-111.89081000000046
 10
211.89314999999974
 20
-111.89665200000047
 10
211.83269799999974
 20
-111.90249400000047
 10
211.77249999999975
 20
-111.90833600000047
 10
211.71230199999974
 20
-111.91417800000049
 10
211.65210399999975
 20
-111.92002000000049
 10
211.59190599999977
 20
-111.92586200000049
 10
211.53145399999974
 20
-111.93170400000051
 10
211.47125599999976
 20
-111.93754600000051
 10
211.41105799999977
 20
-111.94338800000051
 10
211.35085999999978
 20
-111.94923000000053
 10
210.79713999999979
 20
-111.97412200000052
 10
210.2576439999998
 20
-111.94186400000052
 10
209.7344039999998
 20
-111.85525000000052
 10
209.2299599999998
 20
-111.71656600000053
 10
208.7463439999998
 20
-111.52886000000053
 10
208.28558799999982
 20
-111.29441800000053
 10
207.8502319999998
 20
-111.01603400000053
 10
207.4423079999998
 20
-110.69650200000054
 10
207.0641019999998
 20
-110.33810800000053
 10
206.7178999999998
 20
-109.94390000000053
 10
206.40573399999977
 20
-109.51616400000051
 10
206.13014399999975
 20
-109.05769400000052
 10
205.89316199999976
 20
-108.57128400000052
 10
205.69681999999975
 20
-108.05947400000052
 10
205.54365799999977
 20
-107.52480400000051
 10
205.43570799999978
 20
-106.96981400000051
 10
205.28610199999977
 20
-105.28096800000051
 10
205.35010999999975
 20
-103.75519000000051
 10
205.59953799999974
 20
-102.38511400000051
 10
206.00619199999974
 20
-101.1633740000005
 10
206.54187799999974
 20
-100.08235000000052
 10
207.17865599999973
 20
-99.13467600000051
 10
207.88833199999974
 20
-98.31273200000052
 10
208.64271199999973
 20
-97.60889800000052
 10
209.41360199999974
 20
-97.01606200000052
 10
210.17306199999973
 20
-96.52635000000052
 10
210.89289799999972
 20
-96.13265000000051
 10
211.54491599999972
 20
-95.82734200000051
 10
212.1009219999997
 20
-95.60280600000051
 10
212.53297599999973
 20
-95.4516760000005
 10
212.8128839999997
 20
-95.36658600000051
 10
212.91245199999972
 20
-95.3399160000005
 10
211.7808819999997
 20
-96.68002000000051
 10
210.89137399999973
 20
-98.0142820000005
 10
210.22335399999974
 20
-99.3348280000005
 10
209.75624799999972
 20
-100.63454600000051
 10
209.46948199999972
 20
-101.90556200000051
 10
209.34222799999972
 20
-103.14076400000052
 10
209.35416599999974
 20
-104.33227800000051
 10
209.48446799999974
 20
-105.4727380000005
 10
209.71255999999974
 20
-106.55452400000051
 10
210.01786799999974
 20
-107.57027000000052
 10
210.37981799999972
 20
-108.51235600000052
 10
210.77758199999974
 20
-109.37316200000052
 10
211.19083999999972
 20
-110.14532200000053
 10
211.59876399999973
 20
-110.82147000000052
 10
211.9810339999997
 20
-111.39373200000053
  0
LWPOLYLINE
  5
3A
330
17
100
AcDbEntity
  8
0
100
AcDbPolyline
 90
96
 70
1
 10
201.27518799999973
 20
-108.84433400000053
 10
201.24724799999973
 20
-108.83392000000053
 10
201.21905399999972
 20
-108.82350600000052
 10
201.19111399999971
 20
-108.81309200000052
 10
201.16291999999973
 20
-108.80267800000053
 10
201.13497999999973
 20
-108.79226400000053
 10
201.10678599999972
 20
-108.78185000000053
 10
201.07884599999971
 20
-108.77143600000053
 10
201.05065199999973
 20
-108.76102200000054
 10
201.0227119999997
 20
-108.75060800000053
 10
200.99451799999972
 20
-108.74019400000053
 10
200.9665779999997
 20
-108.72978000000053
 10
200.9383839999997
 20
-108.71936600000053
 10
200.9104439999997
 20
-108.70895200000054
 10
200.88224999999971
 20
-108.69853800000054
 10
200.8543099999997
 20
-108.68812400000054
 10
200.8261159999997
 20
-108.67771000000054
 10
200.77937999999972
 20
-108.55299600000055
 10
200.7245159999997
 20
-108.43209200000054
 10
200.6615239999997
 20
-108.31525200000054
 10
200.59040399999972
 20
-108.20349200000055
 10
200.51115599999972
 20
-108.09732000000055
 10
200.4235259999997
 20
-107.99724400000055
 10
200.3277679999997
 20
-107.90377200000054
 10
200.22388199999972
 20
-107.81766600000054
 10
200.1118679999997
 20
-107.73943400000054
 10
199.99172599999972
 20
-107.66958400000055
 10
199.86320199999972
 20
-107.60887800000056
 10
199.72654999999972
 20
-107.55782400000055
 10
199.58176999999972
 20
-107.51718400000055
 10
199.42886199999973
 20
-107.48746600000054
 10
199.26757199999972
 20
-107.46917800000054
 10
199.0981539999997
 20
-107.46282800000054
 10
198.66736999999972
 20
-107.50550000000055
 10
198.2939899999997
 20
-107.62640400000055
 10
197.9780139999997
 20
-107.81411000000054
 10
197.71944199999967
 20
-108.05769600000055
 10
197.51827399999968
 20
-108.34598600000054
 10
197.37450999999967
 20
-108.66780400000054
 10
197.28814999999966
 20
-109.01172000000054
 10
197.25919399999967
 20
-109.36681200000055
 10
197.28764199999964
 20
-109.72190400000055
 10
197.37374799999967
 20
-110.06582000000054
 10
197.51725799999969
 20
-110.38763800000055
 10
197.71842599999968
 20
-110.67592800000054
 10
197.9769979999997
 20
-110.91951400000055
 10
198.2932279999997
 20
-111.10722000000054
 10
198.66711599999968
 20
-111.22812400000053
 10
199.09840799999967
 20
-111.27079600000054
 10
199.19467399999968
 20
-111.26876400000054
 10
199.28839999999968
 20
-111.26292200000054
 10
199.3795859999997
 20
-111.25327000000054
 10
199.46797799999968
 20
-111.23980800000054
 10
199.5538299999997
 20
-111.22279000000053
 10
199.63714199999967
 20
-111.20221600000053
 10
199.71791399999967
 20
-111.17834000000053
 10
199.79589199999967
 20
-111.15116200000053
 10
199.8713299999997
 20
-111.12068200000053
 10
199.9442279999997
 20
-111.08715400000052
 10
200.0145859999997
 20
-111.05057800000051
 10
200.0824039999997
 20
-111.01120800000052
 10
200.1476819999997
 20
-110.96929800000052
 10
200.2101659999997
 20
-110.92459400000052
 10
200.2701099999997
 20
-110.87735000000053
 10
200.3275139999997
 20
-110.82782000000053
 10
200.3508819999997
 20
-110.83366200000054
 10
200.37424999999968
 20
-110.83950400000055
 10
200.39761799999968
 20
-110.84534600000055
 10
200.4209859999997
 20
-110.85118800000056
 10
200.44435399999966
 20
-110.85703000000056
 10
200.46772199999967
 20
-110.86287200000056
 10
200.49108999999967
 20
-110.86871400000058
 10
200.51445799999965
 20
-110.87455600000058
 10
200.53782599999965
 20
-110.88039800000058
 10
200.56119399999966
 20
-110.8862400000006
 10
200.58456199999964
 20
-110.8920820000006
 10
200.60792999999964
 20
-110.8979240000006
 10
200.63129799999965
 20
-110.90376600000062
 10
200.65466599999965
 20
-110.90960800000062
 10
200.67803399999963
 20
-110.91545000000063
 10
200.70140199999963
 20
-110.92129200000063
 10
200.73746999999963
 20
-110.79149800000063
 10
200.77353799999966
 20
-110.66170400000063
 10
200.80960599999966
 20
-110.53191000000061
 10
200.8456739999997
 20
-110.4021160000006
 10
200.8817419999997
 20
-110.2723220000006
 10
200.91780999999972
 20
-110.1425280000006
 10
200.95387799999972
 20
-110.01273400000059
 10
200.98994599999975
 20
-109.88294000000059
 10
201.02601399999975
 20
-109.75314600000057
 10
201.06208199999978
 20
-109.62335200000057
 10
201.09814999999978
 20
-109.49355800000056
 10
201.13421799999978
 20
-109.36376400000056
 10
201.1702859999998
 20
-109.23397000000055
 10
201.2063539999998
 20
-109.10417600000055
 10
201.24242199999983
 20
-108.97438200000055
  0
ENDSEC
  0
SECTION
  2
OBJECTS
  0
DICTIONARY
  5
A
330
0
100
AcDbDictionary
281
1
  3
ACAD_COLOR
350
B
  3
ACAD_GROUP
350
C
  3
ACAD_LAYOUT
350
D
  3
ACAD_MATERIAL
350
E
  3
ACAD_MLEADERSTYLE
350
F
  3
ACAD_MLINESTYLE
350
10
  3
ACAD_PLOTSETTINGS
350
11
  3
ACAD_PLOTSTYLENAME
350
12
  3
ACAD_SCALELIST
350
14
  3
ACAD_TABLESTYLE
350
15
  3
ACAD_VISUALSTYLE
350
16
  3
EZDXF_META
350
2D
  0
DICTIONARY
  5
B
330
A
100
AcDbDictionary
281
1
  0
DICTIONARY
  5
C
330
A
100
AcDbDictionary
281
1
  0
DICTIONARY
  5
D
330
A
100
AcDbDictionary
281
1
  3
Model
350
1A
  3
Layout1
350
1E
  0
DICTIONARY
  5
E
330
A
100
AcDbDictionary
281
1
  3
ByBlock
350
1F
  3
ByLayer
350
20
  3
Global
350
21
  0
DICTIONARY
  5
F
330
A
100
AcDbDictionary
281
1
  3
Standard
350
2C
  0
DICTIONARY
  5
10
330
A
100
AcDbDictionary
281
1
  3
Standard
350
22
  0
DICTIONARY
  5
11
330
A
100
AcDbDictionary
281
1
  0
ACDBDICTIONARYWDFLT
  5
12
330
A
100
AcDbDictionary
281
1
  3
Normal
350
13
100
AcDbDictionaryWithDefault
340
13
  0
ACDBPLACEHOLDER
  5
13
330
12
  0
DICTIONARY
  5
14
330
A
100
AcDbDictionary
281
1
  0
DICTIONARY
  5
15
330
A
100
AcDbDictionary
281
1
  0
DICTIONARY
  5
16
330
A
100
AcDbDictionary
281
1
  0
LAYOUT
  5
1A
330
D
100
AcDbPlotSettings
  1

  4
A3
  6

 40
7.5
 41
20.0
 42
7.5
 43
20.0
 44
420.0
 45
297.0
 46
0.0
 47
0.0
 48
0.0
 49
0.0
140
0.0
141
0.0
142
1.0
143
1.0
 70
1024
 72
1
 73
0
 74
5
  7

 75
16
 76
0
 77
2
 78
300
147
1.0
148
0.0
149
0.0
100
AcDbLayout
  1
Model
 70
1
 71
0
 10
0.0
 20
0.0
 11
420.0
 21
297.0
 12
0.0
 22
0.0
 32
0.0
 14
1e+20
 24
1e+20
 34
1e+20
 15
-1e+20
 25
-1e+20
 35
-1e+20
146
0.0
 13
0.0
 23
0.0
 33
0.0
 16
1.0
 26
0.0
 36
0.0
 17
0.0
 27
1.0
 37
0.0
 76
1
330
17
  0
LAYOUT
  5
1E
330
D
100
AcDbPlotSettings
  1

  4
A3
  6

 40
7.5
 41
20.0
 42
7.5
 43
20.0
 44
420.0
 45
297.0
 46
0.0
 47
0.0
 48
0.0
 49
0.0
140
0.0
141
0.0
142
1.0
143
1.0
 70
0
 72
1
 73
0
 74
5
  7

 75
16
 76
0
 77
2
 78
300
147
1.0
148
0.0
149
0.0
100
AcDbLayout
  1
Layout1
 70
1
 71
1
 10
0.0
 20
0.0
 11
420.0
 21
297.0
 12
0.0
 22
0.0
 32
0.0
 14
1e+20
 24
1e+20
 34
1e+20
 15
-1e+20
 25
-1e+20
 35
-1e+20
146
0.0
 13
0.0
 23
0.0
 33
0.0
 16
1.0
 26
0.0
 36
0.0
 17
0.0
 27
1.0
 37
0.0
 76
1
330
1B
  0
MATERIAL
  5
1F
102
{ACAD_REACTORS
330
E
102
}
330
E
100
AcDbMaterial
  1
ByBlock
  2

 70
0
 40
1.0
 71
1
 41
1.0
 91
-1023410177
 42
1.0
 72
1
  3

 73
1
 74
1
 75
1
 44
0.5
 73
0
 45
1.0
 46
1.0
 77
1
  4

 78
1
 79
1
170
1
 48
1.0
171
1
  6

172
1
173
1
174
1
140
1.0
141
1.0
175
1
  7

176
1
177
1
178
1
143
1.0
179
1
  8

270
1
271
1
272
1
145
1.0
146
1.0
273
1
  9

274
1
275
1
276
1
 42
1.0
 72
1
  3

 73
1
 74
1
 75
1
 94
63
  0
MATERIAL
  5
20
102
{ACAD_REACTORS
330
E
102
}
330
E
100
AcDbMaterial
  1
ByLayer
  2

 70
0
 40
1.0
 71
1
 41
1.0
 91
-1023410177
 42
1.0
 72
1
  3

 73
1
 74
1
 75
1
 44
0.5
 73
0
 45
1.0
 46
1.0
 77
1
  4

 78
1
 79
1
170
1
 48
1.0
171
1
  6

172
1
173
1
174
1
140
1.0
141
1.0
175
1
  7

176
1
177
1
178
1
143
1.0
179
1
  8

270
1
271
1
272
1
145
1.0
146
1.0
273
1
  9

274
1
275
1
276
1
 42
1.0
 72
1
  3

 73
1
 74
1
 75
1
 94
63
  0
MATERIAL
  5
21
102
{ACAD_REACTORS
330
E
102
}
330
E
100
AcDbMaterial
  1
Global
  2

 70
0
 40
1.0
 71
1
 41
1.0
 91
-1023410177
 42
1.0
 72
1
  3

 73
1
 74
1
 75
1
 44
0.5
 73
0
 45
1.0
 46
1.0
 77
1
  4

 78
1
 79
1
170
1
 48
1.0
171
1
  6

172
1
173
1
174
1
140
1.0
141
1.0
175
1
  7

176
1
177
1
178
1
143
1.0
179
1
  8

270
1
271
1
272
1
145
1.0
146
1.0
273
1
  9

274
1
275
1
276
1
 42
1.0
 72
1
  3

 73
1
 74
1
 75
1
 94
63
  0
MLINESTYLE
  5
22
102
{ACAD_REACTORS
330
10
102
}
330
10
100
AcDbMlineStyle
  2
Standard
 70
0
  3

 62
256
 51
90.0
 52
90.0
 71
2
 49
0.5
 62
256
  6
BYLAYER
 49
-0.5
 62
256
  6
BYLAYER
  0
MLEADERSTYLE
  5
2C
102
{ACAD_REACTORS
330
F
102
}
330
F
100
AcDbMLeaderStyle
179
2
170
2
171
1
172
0
 90
2
 40
0.0
 41
0.0
173
1
 91
-1056964608
 92
-2
290
1
 42
2.0
291
1
 43
8.0
  3
Standard
 44
4.0
300

342
29
174
1
175
1
176
0
178
1
 93
-1056964608
 45
4.0
292
0
297
0
 46
4.0
 94
-1056964608
 47
1.0
 49
1.0
140
1.0
294
1
141
0.0
177
0
142
1.0
295
0
296
0
143
3.75
271
0
272
9
273
9
  0
DICTIONARY
  5
2D
330
A
100
AcDbDictionary
280
1
281
1
  3
CREATED_BY_EZDXF
350
2E
  3
WRITTEN_BY_EZDXF
350
3D
  0
DICTIONARYVAR
  5
2E
330
2D
100
DictionaryVariables
280
0
  1
1.4.3 @ 2026-04-12T00:41:30.085627+00:00
  0
DICTIONARYVAR
  5
3D
330
2D
100
DictionaryVariables
280
0
  1
1.4.3 @ 2026-04-12T00:41:30.089043+00:00
  0
ENDSEC
  0
EOF
