  0
SECTION
  2
HEADER
  9
$ACADVER
  1
AC1024
  9
$ACADMAINTVER
 70
6
  9
$DWGCODEPAGE
  3
ANSI_1252
  9
$LASTSAVEDBY
  1
ezdxf
  9
$INSBASE
 10
0.0
 20
0.0
 30
0.0
  9
$EXTMIN
 10
1e+20
 20
1e+20
 30
1e+20
  9
$EXTMAX
 10
-1e+20
 20
-1e+20
 30
-1e+20
  9
$LIMMIN
 10
0.0
 20
0.0
  9
$LIMMAX
 10
420.0
 20
297.0
  9
$ORTHOMODE
 70
0
  9
$REGENMODE
 70
1
  9
$FILLMODE
 70
1
  9
$QTEXTMODE
 70
0
  9
$MIRRTEXT
 70
1
  9
$LTSCALE
 40
1.0
  9
$ATTMODE
 70
1
  9
$TEXTSIZE
 40
2.5
  9
$TRACEWID
 40
1.0
  9
$TEXTSTYLE
  7
Standard
  9
$CLAYER
  8
0
  9
$CELTYPE
  6
ByLayer
  9
$CECOLOR
 62
256
  9
$CELTSCALE
 40
1.0
  9
$DISPSILH
 70
0
  9
$DIMSCALE
 40
1.0
  9
$DIMASZ
 40
2.5
  9
$DIMEXO
 40
0.625
  9
$DIMDLI
 40
3.75
  9
$DIMRND
 40
0.0
  9
$DIMDLE
 40
0.0
  9
$DIMEXE
 40
1.25
  9
$DIMTP
 40
0.0
  9
$DIMTM
 40
0.0
  9
$DIMTXT
 40
2.5
  9
$DIMCEN
 40
2.5
  9
$DIMTSZ
 40
0.0
  9
$DIMTOL
 70
0
  9
$DIMLIM
 70
0
  9
$DIMTIH
 70
0
  9
$DIMTOH
 70
0
  9
$DIMSE1
 70
0
  9
$DIMSE2
 70
0
  9
$DIMTAD
 70
1
  9
$DIMZIN
 70
8
  9
$DIMBLK
  1

  9
$DIMASO
 70
1
  9
$DIMSHO
 70
1
  9
$DIMPOST
  1

  9
$DIMAPOST
  1

  9
$DIMALT
 70
0
  9
$DIMALTD
 70
3
  9
$DIMALTF
 40
0.03937007874
  9
$DIMLFAC
 40
1.0
  9
$DIMTOFL
 70
1
  9
$DIMTVP
 40
0.0
  9
$DIMTIX
 70
0
  9
$DIMSOXD
 70
0
  9
$DIMSAH
 70
0
  9
$DIMBLK1
  1

  9
$DIMBLK2
  1

  9
$DIMSTYLE
  2
ISO-25
  9
$DIMCLRD
 70
0
  9
$DIMCLRE
 70
0
  9
$DIMCLRT
 70
0
  9
$DIMTFAC
 40
1.0
  9
$DIMGAP
 40
0.625
  9
$DIMJUST
 70
0
  9
$DIMSD1
 70
0
  9
$DIMSD2
 70
0
  9
$DIMTOLJ
 70
0
  9
$DIMTZIN
 70
8
  9
$DIMALTZ
 70
0
  9
$DIMALTTZ
 70
0
  9
$DIMUPT
 70
0
  9
$DIMDEC
 70
2
  9
$DIMTDEC
 70
2
  9
$DIMALTU
 70
2
  9
$DIMALTTD
 70
3
  9
$DIMTXSTY
  7
Standard
  9
$DIMAUNIT
 70
0
  9
$DIMADEC
 70
0
  9
$DIMALTRND
 40
0.0
  9
$DIMAZIN
 70
0
  9
$DIMDSEP
 70
44
  9
$DIMATFIT
 70
3
  9
$DIMFRAC
 70
0
  9
$DIMLDRBLK
  1

  9
$DIMLUNIT
 70
2
  9
$DIMLWD
 70
-2
  9
$DIMLWE
 70
-2
  9
$DIMTMOVE
 70
0
  9
$DIMFXL
 40
1.0
  9
$DIMFXLON
 70
0
  9
$DIMJOGANG
 40
0.785398163397
  9
$DIMTFILL
 70
0
  9
$DIMTFILLCLR
 70
0
  9
$DIMARCSYM
 70
0
  9
$DIMLTYPE
  6

  9
$DIMLTEX1
  6

  9
$DIMLTEX2
  6

  9
$DIMTXTDIRECTION
 70
0
  9
$LUNITS
 70
2
  9
$LUPREC
 70
4
  9
$SKETCHINC
 40
1.0
  9
$FILLETRAD
 40
10.0
  9
$AUNITS
 70
0
  9
$AUPREC
 70
2
  9
$MENU
  1
.
  9
$ELEVATION
 40
0.0
  9
$PELEVATION
 40
0.0
  9
$THICKNESS
 40
0.0
  9
$LIMCHECK
 70
0
  9
$CHAMFERA
 40
0.0
  9
$CHAMFERB
 40
0.0
  9
$CHAMFERC
 40
0.0
  9
$CHAMFERD
 40
0.0
  9
$SKPOLY
 70
0
  9
$TDCREATE
 40
2461140.609224537
  9
$TDUCREATE
 40
2458532.153996898
  9
$TDUPDATE
 40
2461140.609224537
  9
$TDUUPDATE
 40
2458532.1544311
  9
$TDINDWG
 40
0.0
  9
$TDUSRTIMER
 40
0.0
  9
$USRTIMER
 70
1
  9
$ANGBASE
 50
0.0
  9
$ANGDIR
 70
0
  9
$PDMODE
 70
0
  9
$PDSIZE
 40
0.0
  9
$PLINEWID
 40
0.0
  9
$SPLFRAME
 70
0
  9
$SPLINETYPE
 70
6
  9
$SPLINESEGS
 70
8
  9
$HANDSEED
  5
296
  9
$SURFTAB1
 70
6
  9
$SURFTAB2
 70
6
  9
$SURFTYPE
 70
6
  9
$SURFU
 70
6
  9
$SURFV
 70
6
  9
$UCSBASE
  2

  9
$UCSNAME
  2

  9
$UCSORG
 10
0.0
 20
0.0
 30
0.0
  9
$UCSXDIR
 10
1.0
 20
0.0
 30
0.0
  9
$UCSYDIR
 10
0.0
 20
1.0
 30
0.0
  9
$UCSORTHOREF
  2

  9
$UCSORTHOVIEW
 70
0
  9
$UCSORGTOP
 10
0.0
 20
0.0
 30
0.0
  9
$UCSORGBOTTOM
 10
0.0
 20
0.0
 30
0.0
  9
$UCSORGLEFT
 10
0.0
 20
0.0
 30
0.0
  9
$UCSORGRIGHT
 10
0.0
 20
0.0
 30
0.0
  9
$UCSORGFRONT
 10
0.0
 20
0.0
 30
0.0
  9
$UCSORGBACK
 10
0.0
 20
0.0
 30
0.0
  9
$PUCSBASE
  2

  9
$PUCSNAME
  2

  9
$PUCSORG
 10
0.0
 20
0.0
 30
0.0
  9
$PUCSXDIR
 10
1.0
 20
0.0
 30
0.0
  9
$PUCSYDIR
 10
0.0
 20
1.0
 30
0.0
  9
$PUCSORTHOREF
  2

  9
$PUCSORTHOVIEW
 70
0
  9
$PUCSORGTOP
 10
0.0
 20
0.0
 30
0.0
  9
$PUCSORGBOTTOM
 10
0.0
 20
0.0
 30
0.0
  9
$PUCSORGLEFT
 10
0.0
 20
0.0
 30
0.0
  9
$PUCSORGRIGHT
 10
0.0
 20
0.0
 30
0.0
  9
$PUCSORGFRONT
 10
0.0
 20
0.0
 30
0.0
  9
$PUCSORGBACK
 10
0.0
 20
0.0
 30
0.0
  9
$USERI1
 70
0
  9
$USERI2
 70
0
  9
$USERI3
 70
0
  9
$USERI4
 70
0
  9
$USERI5
 70
0
  9
$USERR1
 40
0.0
  9
$USERR2
 40
0.0
  9
$USERR3
 40
0.0
  9
$USERR4
 40
0.0
  9
$USERR5
 40
0.0
  9
$WORLDVIEW
 70
1
  9
$SHADEDGE
 70
3
  9
$SHADEDIF
 70
70
  9
$TILEMODE
 70
1
  9
$MAXACTVP
 70
64
  9
$PINSBASE
 10
0.0
 20
0.0
 30
0.0
  9
$PLIMCHECK
 70
0
  9
$PEXTMIN
 10
1e+20
 20
1e+20
 30
1e+20
  9
$PEXTMAX
 10
-1e+20
 20
-1e+20
 30
-1e+20
  9
$PLIMMIN
 10
0.0
 20
0.0
  9
$PLIMMAX
 10
420.0
 20
297.0
  9
$UNITMODE
 70
0
  9
$VISRETAIN
 70
1
  9
$PLINEGEN
 70
0
  9
$PSLTSCALE
 70
1
  9
$TREEDEPTH
 70
3020
  9
$CMLSTYLE
  2
Standard
  9
$CMLJUST
 70
0
  9
$CMLSCALE
 40
20.0
  9
$PROXYGRAPHICS
 70
1
  9
$MEASUREMENT
 70
1
  9
$CELWEIGHT
370
-1
  9
$ENDCAPS
280
0
  9
$JOINSTYLE
280
0
  9
$LWDISPLAY
290
0
  9
$INSUNITS
 70
4
  9
$HYPERLINKBASE
  1

  9
$STYLESHEET
  1

  9
$XEDIT
290
1
  9
$CEPSNTYPE
380
0
  9
$PSTYLEMODE
290
1
  9
$FINGERPRINTGUID
  2
{B2DAD82D-400F-439A-8B24-09A93E39420B}
  9
$VERSIONGUID
  2
{AC695D5A-AF2B-4649-A525-13A4F19D9575}
  9
$EXTNAMES
290
1
  9
$PSVPSCALE
 40
0.0
  9
$OLESTARTUP
290
0
  9
$SORTENTS
280
127
  9
$INDEXCTL
280
0
  9
$HIDETEXT
280
1
  9
$XCLIPFRAME
280
1
  9
$HALOGAP
280
0
  9
$OBSCOLOR
 70
257
  9
$OBSLTYPE
280
0
  9
$INTERSECTIONDISPLAY
280
0
  9
$INTERSECTIONCOLOR
 70
257
  9
$DIMASSOC
280
2
  9
$PROJECTNAME
  1

  9
$CAMERADISPLAY
290
0
  9
$LENSLENGTH
 40
50.0
  9
$CAMERAHEIGHT
 40
0.0
  9
$STEPSPERSEC
 40
24.0
  9
$STEPSIZE
 40
100.0
  9
$3DDWFPREC
 40
2.0
  9
$PSOLWIDTH
 40
0.005
  9
$PSOLHEIGHT
 40
0.08
  9
$LOFTANG1
 40
1.570796326795
  9
$LOFTANG2
 40
1.570796326795
  9
$LOFTMAG1
 40
0.0
  9
$LOFTMAG2
 40
0.0
  9
$LOFTPARAM
 70
7
  9
$LOFTNORMALS
280
1
  9
$LATITUDE
 40
37.795
  9
$LONGITUDE
 40
-122.394
  9
$NORTHDIRECTION
 40
0.0
  9
$TIMEZONE
 70
-8000
  9
$LIGHTGLYPHDISPLAY
280
1
  9
$TILEMODELIGHTSYNCH
280
1
  9
$CMATERIAL
347
20
  9
$SOLIDHIST
280
0
  9
$SHOWHIST
280
1
  9
$DWFFRAME
280
2
  9
$DGNFRAME
280
2
  9
$REALWORLDSCALE
290
1
  9
$INTERFERECOLOR
 62
256
  9
$CSHADOW
280
0
  9
$SHADOWPLANELOCATION
 40
0.0
  0
ENDSEC
  0
SECTION
  2
CLASSES
  0
CLASS
  1
ACDBDICTIONARYWDFLT
  2
AcDbDictionaryWithDefault
  3
ObjectDBX Classes
 90
0
 91
0
280
0
281
0
  0
CLASS
  1
SUN
  2
AcDbSun
  3
SCENEOE
 90
1153
 91
0
280
0
281
0
  0
CLASS
  1
VISUALSTYLE
  2
AcDbVisualStyle
  3
ObjectDBX Classes
 90
4095
 91
0
280
0
281
0
  0
CLASS
  1
MATERIAL
  2
AcDbMaterial
  3
ObjectDBX Classes
 90
1153
 91
0
280
0
281
0
  0
CLASS
  1
SCALE
  2
AcDbScale
  3
ObjectDBX Classes
 90
1153
 91
0
280
0
281
0
  0
CLASS
  1
TABLESTYLE
  2
AcDbTableStyle
  3
ObjectDBX Classes
 90
4095
 91
0
280
0
281
0
  0
CLASS
  1
MLEADERSTYLE
  2
AcDbMLeaderStyle
  3
ACDB_MLEADERSTYLE_CLASS
 90
4095
 91
0
280
0
281
0
  0
CLASS
  1
DICTIONARYVAR
  2
AcDbDictionaryVar
  3
ObjectDBX Classes
 90
0
 91
0
280
0
281
0
  0
CLASS
  1
CELLSTYLEMAP
  2
AcDbCellStyleMap
  3
ObjectDBX Classes
 90
1152
 91
0
280
0
281
0
  0
CLASS
  1
MENTALRAYRENDERSETTINGS
  2
AcDbMentalRayRenderSettings
  3
SCENEOE
 90
1024
 91
0
280
0
281
0
  0
CLASS
  1
ACDBDETAILVIEWSTYLE
  2
AcDbDetailViewStyle
  3
ObjectDBX Classes
 90
1025
 91
0
280
0
281
0
  0
CLASS
  1
ACDBSECTIONVIEWSTYLE
  2
AcDbSectionViewStyle
  3
ObjectDBX Classes
 90
1025
 91
0
280
0
281
0
  0
CLASS
  1
RASTERVARIABLES
  2
AcDbRasterVariables
  3
ISM
 90
0
 91
0
280
0
281
0
  0
CLASS
  1
LAYOUT
  2
AcDbLayout
  3
ObjectDBX Classes
 90
0
 91
0
280
0
281
0
  0
CLASS
  1
ACDBPLACEHOLDER
  2
AcDbPlaceHolder
  3
ObjectDBX Classes
 90
0
 91
0
280
0
281
0
  0
ENDSEC
  0
SECTION
  2
TABLES
  0
TABLE
  2
VPORT
  5
8
330
0
100
AcDbSymbolTable
 70
1
  0
VPORT
  5
23
330
8
100
AcDbSymbolTableRecord
100
AcDbViewportTableRecord
  2
*Active
 70
0
 10
0.0
 20
0.0
 11
1.0
 21
1.0
 12
0.0
 22
0.0
 13
0.0
 23
0.0
 14
0.5
 24
0.5
 15
0.5
 25
0.5
 16
0.0
 26
0.0
 36
1.0
 17
0.0
 27
0.0
 37
0.0
 40
1000.0
 41
1.34
 42
50.0
 43
0.0
 44
0.0
 50
0.0
 51
0.0
 71
0
 72
1000
 73
1
 74
3
 75
0
 76
0
 77
0
 78
0
281
0
 65
0
146
0.0
  0
ENDTAB
  0
TABLE
  2
LTYPE
  5
2
330
0
100
AcDbSymbolTable
 70
3
  0
LTYPE
  5
24
330
2
100
AcDbSymbolTableRecord
100
AcDbLinetypeTableRecord
  2
ByBlock
 70
0
  3

 72
65
 73
0
 40
0.0
  0
LTYPE
  5
25
330
2
100
AcDbSymbolTableRecord
100
AcDbLinetypeTableRecord
  2
ByLayer
 70
0
  3

 72
65
 73
0
 40
0.0
  0
LTYPE
  5
26
330
2
100
AcDbSymbolTableRecord
100
AcDbLinetypeTableRecord
  2
Continuous
 70
0
  3

 72
65
 73
0
 40
0.0
  0
ENDTAB
  0
TABLE
  2
LAYER
  5
1
330
0
100
AcDbSymbolTable
 70
2
  0
LAYER
  5
27
330
1
100
AcDbSymbolTableRecord
100
AcDbLayerTableRecord
  2
0
 70
0
 62
7
  6
Continuous
370
-3
390
13
347
21
  0
LAYER
  5
28
330
1
100
AcDbSymbolTableRecord
100
AcDbLayerTableRecord
  2
Defpoints
 70
0
 62
7
  6
Continuous
290
0
370
-3
390
13
347
21
  0
ENDTAB
  0
TABLE
  2
STYLE
  5
5
330
0
100
AcDbSymbolTable
 70
1
  0
STYLE
  5
29
330
5
100
AcDbSymbolTableRecord
100
AcDbTextStyleTableRecord
  2
Standard
 70
0
 40
0.0
 41
1.0
 50
0.0
 71
0
 42
2.5
  3
txt
  4

  0
ENDTAB
  0
TABLE
  2
VIEW
  5
7
330
0
100
AcDbSymbolTable
 70
0
  0
ENDTAB
  0
TABLE
  2
UCS
  5
6
330
0
100
AcDbSymbolTable
 70
0
  0
ENDTAB
  0
TABLE
  2
APPID
  5
3
330
0
100
AcDbSymbolTable
 70
3
  0
APPID
  5
2A
330
3
100
AcDbSymbolTableRecord
100
AcDbRegAppTableRecord
  2
ACAD
 70
0
  0
APPID
  5
293
330
3
100
AcDbSymbolTableRecord
100
AcDbRegAppTableRecord
  2
HATCHBACKGROUNDCOLOR
 70
0
  0
APPID
  5
294
330
3
100
AcDbSymbolTableRecord
100
AcDbRegAppTableRecord
  2
EZDXF
 70
0
  0
ENDTAB
  0
TABLE
  2
DIMSTYLE
  5
4
330
0
100
AcDbSymbolTable
 70
1
100
AcDbDimStyleTable
  0
DIMSTYLE
105
2B
330
4
100
AcDbSymbolTableRecord
100
AcDbDimStyleTableRecord
  2
Standard
 70
0
 40
1.0
 41
2.5
 42
0.625
 43
3.75
 44
1.25
 45
0.0
 46
0.0
 47
0.0
 48
0.0
 49
2.5
140
2.5
141
2.5
142
0.0
143
0.03937007874
144
1.0
145
0.0
146
1.0
147
0.625
148
0.0
 69
0
 70
0
 71
0
 72
0
 73
0
 74
0
 75
0
 76
0
 77
1
 78
8
 79
3
170
0
171
3
172
1
173
0
174
0
175
0
176
0
177
0
178
0
179
2
271
2
272
2
273
2
274
3
275
0
276
0
277
2
278
44
279
0
280
0
281
0
282
0
283
0
284
8
285
0
286
0
288
0
289
3
290
0
371
-2
372
-2
  0
ENDTAB
  0
TABLE
  2
BLOCK_RECORD
  5
9
330
0
100
AcDbSymbolTable
 70
3
  0
BLOCK_RECORD
  5
17
330
9
100
AcDbSymbolTableRecord
100
AcDbBlockTableRecord
  2
*Model_Space
340
1A
 70
0
280
1
281
0
  0
BLOCK_RECORD
  5
1B
330
9
100
AcDbSymbolTableRecord
100
AcDbBlockTableRecord
  2
*Paper_Space
340
1E
 70
0
280
1
281
0
  0
BLOCK_RECORD
  5
2F
330
9
100
AcDbSymbolTableRecord
100
AcDbBlockTableRecord
  2
HEX
340
0
 70
0
280
1
281
0
  0
ENDTAB
  0
ENDSEC
  0
SECTION
  2
BLOCKS
  0
BLOCK
  5
18
330
17
100
AcDbEntity
  8
0
100
AcDbBlockBegin
  2
*Model_Space
 70
0
 10
0.0
 20
0.0
 30
0.0
  3
*Model_Space
  1

  0
ENDBLK
  5
19
330
17
100
AcDbEntity
  8
0
100
AcDbBlockEnd
  0
BLOCK
  5
1C
330
1B
100
AcDbEntity
  8
0
100
AcDbBlockBegin
  2
*Paper_Space
 70
0
 10
0.0
 20
0.0
 30
0.0
  3
*Paper_Space
  1

  0
ENDBLK
  5
1D
330
1B
100
AcDbEntity
  8
0
100
AcDbBlockEnd
  0
BLOCK
  5
30
330
2F
100
AcDbEntity
  8
0
100
AcDbBlockBegin
  2
HEX
 70
0
 10
0.0
 20
0.0
 30
0.0
  3
HEX
  1

  0
LWPOLYLINE
  5
32
330
2F
100
AcDbEntity
  8
0
100
AcDbPolyline
 90
6
 70
1
 10
1.516
 20
0.875
 10
0.0
 20
1.75
 10
-1.516
 20
0.875
 10
-1.516
 20
-0.875
 10
-0.0
 20
-1.75
 10
1.516
 20
-0.875
  0
ENDBLK
  5
31
330
2F
100
AcDbEntity
  8
0
100
AcDbBlockEnd
  0
ENDSEC
  0
SECTION
  2
ENTITIES
  0
LWPOLYLINE
  5
33
330
17
100
AcDbEntity
  8
0
100
AcDbPolyline
 90
12
 70
1
 10
67.845
 20
9.214
 10
67.57
 20
9.224
 10
67.3
 20
9.254
 10
67.035
 20
9.306
 10
66.776
 20
9.377
 10
66.525
 20
9.467
 10
66.283
 20
9.575
 10
66.027
 20
9.715
 10
67.423
 20
10.522
 10
68.939
 20
9.647
 10
68.939
 20
9.345
 10
67.845
 20
9.214
  0
LWPOLYLINE
  5
34
330
17
100
AcDbEntity
  8
0
100
AcDbPolyline
 90
5
 70
1
 10
69.439
 20
9.405
 10
69.439
 20
9.647
 10
70.955
 20
10.522
 10
72.295
 20
9.748
 10
69.439
 20
9.405
  0
LWPOLYLINE
  5
35
330
17
100
AcDbEntity
  8
0
100
AcDbPolyline
 90
4
 70
1
 10
73.369
 20
9.877
 10
74.486
 20
10.522
 10
75.218
 20
10.099
 10
73.369
 20
9.877
  0
LWPOLYLINE
  5
36
330
17
100
AcDbEntity
  8
0
100
AcDbPolyline
 90
4
 70
1
 10
77.827
 20
10.412
 10
78.017
 20
10.522
 10
78.141
 20
10.45
 10
77.827
 20
10.412
  0
LWPOLYLINE
  5
37
330
17
100
AcDbEntity
  8
0
100
AcDbPolyline
 90
11
 70
1
 10
65.322
 20
10.273
 10
65.059
 20
10.571
 10
64.902
 20
10.789
 10
64.762
 20
11.019
 10
64.142
 20
12.377
 10
64.142
 20
12.705
 10
65.658
 20
13.58
 10
67.173
 20
12.705
 10
67.173
 20
10.955
 10
65.658
 20
10.08
 10
65.322
 20
10.273
  0
INSERT
  5
38
330
17
100
AcDbEntity
  8
0
100
AcDbBlockReference
  2
HEX
 10
69.189
 20
11.83
 30
0.0
  0
INSERT
  5
3A
330
17
100
AcDbEntity
  8
0
100
AcDbBlockReference
  2
HEX
 10
72.72
 20
11.83
 30
0.0
  0
LWPOLYLINE
  5
3C
330
17
100
AcDbEntity
  8
0
100
AcDbPolyline
 90
8
 70
1
 10
76.046
 20
10.198
 10
74.736
 20
10.955
 10
74.736
 20
12.705
 10
76.251
 20
13.58
 10
77.767
 20
12.705
 10
77.767
 20
10.955
 10
76.565
 20
10.261
 10
76.046
 20
10.198
  0
LWPOLYLINE
  5
3D
330
17
100
AcDbEntity
  8
0
100
AcDbPolyline
 90
8
 70
1
 10
78.969
 20
10.549
 10
78.267
 20
10.955
 10
78.267
 20
12.705
 10
79.782
 20
13.58
 10
81.298
 20
12.705
 10
81.298
 20
10.955
 10
81.023
 20
10.796
 10
78.969
 20
10.549
  0
LWPOLYLINE
  5
3E
330
17
100
AcDbEntity
  8
0
100
AcDbPolyline
 90
7
 70
1
 10
81.892
 20
10.9
 10
81.798
 20
10.955
 10
81.798
 20
12.705
 10
83.313
 20
13.58
 10
84.829
 20
12.705
 10
84.829
 20
11.253
 10
81.892
 20
10.9
  0
LWPOLYLINE
  5
3F
330
17
100
AcDbEntity
  8
0
100
AcDbPolyline
 90
6
 70
1
 10
85.329
 20
11.313
 10
85.329
 20
12.705
 10
86.844
 20
13.58
 10
88.36
 20
12.705
 10
88.36
 20
11.677
 10
85.329
 20
11.313
  0
LWPOLYLINE
  5
40
330
17
100
AcDbEntity
  8
0
100
AcDbPolyline
 90
6
 70
1
 10
88.86
 20
11.737
 10
88.86
 20
12.705
 10
90.376
 20
13.58
 10
91.891
 20
12.705
 10
91.891
 20
12.101
 10
88.86
 20
11.737
  0
LWPOLYLINE
  5
41
330
17
100
AcDbEntity
  8
0
100
AcDbPolyline
 90
7
 70
1
 10
94.818
 20
12.594
 10
93.378
 20
12.279
 10
92.391
 20
12.161
 10
92.391
 20
12.705
 10
93.907
 20
13.58
 10
95.322
 20
12.763
 10
94.818
 20
12.594
  0
LWPOLYLINE
  5
42
330
17
100
AcDbEntity
  8
0
100
AcDbPolyline
 90
7
 70
1
 10
62.552
 20
15.864
 10
63.892
 20
16.638
 10
65.408
 20
15.763
 10
65.408
 20
14.013
 10
63.892
 20
13.138
 10
63.761
 20
13.214
 10
62.552
 20
15.864
  0
INSERT
  5
43
330
17
100
AcDbEntity
  8
0
100
AcDbBlockReference
  2
HEX
 10
67.423
 20
14.888
 30
0.0
  0
INSERT
  5
45
330
17
100
AcDbEntity
  8
0
100
AcDbBlockReference
  2
HEX
 10
70.955
 20
14.888
 30
0.0
  0
INSERT
  5
47
330
17
100
AcDbEntity
  8
0
100
AcDbBlockReference
  2
HEX
 10
74.486
 20
14.888
 30
0.0
  0
INSERT
  5
49
330
17
100
AcDbEntity
  8
0
100
AcDbBlockReference
  2
HEX
 10
78.017
 20
14.888
 30
0.0
  0
INSERT
  5
4B
330
17
100
AcDbEntity
  8
0
100
AcDbBlockReference
  2
HEX
 10
81.548
 20
14.888
 30
0.0
  0
INSERT
  5
4D
330
17
100
AcDbEntity
  8
0
100
AcDbBlockReference
  2
HEX
 10
85.079
 20
14.888
 30
0.0
  0
INSERT
  5
4F
330
17
100
AcDbEntity
  8
0
100
AcDbBlockReference
  2
HEX
 10
88.61
 20
14.888
 30
0.0
  0
INSERT
  5
51
330
17
100
AcDbEntity
  8
0
100
AcDbBlockReference
  2
HEX
 10
92.141
 20
14.888
 30
0.0
  0
INSERT
  5
53
330
17
100
AcDbEntity
  8
0
100
AcDbBlockReference
  2
HEX
 10
95.672
 20
14.888
 30
0.0
  0
LWPOLYLINE
  5
55
330
17
100
AcDbEntity
  8
0
100
AcDbPolyline
 90
10
 70
1
 10
98.657
 20
16.322
 10
98.569
 20
15.723
 10
98.423
 20
15.228
 10
98.328
 20
14.997
 10
98.092
 20
14.569
 10
97.952
 20
14.371
 10
97.797
 20
14.183
 10
97.688
 20
14.076
 10
97.688
 20
15.763
 10
98.657
 20
16.322
  0
LWPOLYLINE
  5
56
330
17
100
AcDbEntity
  8
0
100
AcDbPolyline
 90
6
 70
1
 10
61.079
 20
19.091
 10
62.127
 20
19.696
 10
63.642
 20
18.821
 10
63.642
 20
17.071
 10
62.343
 20
16.321
 10
61.079
 20
19.091
  0
INSERT
  5
57
330
17
100
AcDbEntity
  8
0
100
AcDbBlockReference
  2
HEX
 10
65.658
 20
17.946
 30
0.0
  0
INSERT
  5
59
330
17
100
AcDbEntity
  8
0
100
AcDbBlockReference
  2
HEX
 10
69.189
 20
17.946
 30
0.0
  0
INSERT
  5
5B
330
17
100
AcDbEntity
  8
0
100
AcDbBlockReference
  2
HEX
 10
72.72
 20
17.946
 30
0.0
  0
INSERT
  5
5D
330
17
100
AcDbEntity
  8
0
100
AcDbBlockReference
  2
HEX
 10
76.251
 20
17.946
 30
0.0
  0
INSERT
  5
5F
330
17
100
AcDbEntity
  8
0
100
AcDbBlockReference
  2
HEX
 10
79.782
 20
17.946
 30
0.0
  0
INSERT
  5
61
330
17
100
AcDbEntity
  8
0
100
AcDbBlockReference
  2
HEX
 10
83.313
 20
17.946
 30
0.0
  0
INSERT
  5
63
330
17
100
AcDbEntity
  8
0
100
AcDbBlockReference
  2
HEX
 10
86.844
 20
17.946
 30
0.0
  0
INSERT
  5
65
330
17
100
AcDbEntity
  8
0
100
AcDbBlockReference
  2
HEX
 10
90.376
 20
17.946
 30
0.0
  0
INSERT
  5
67
330
17
100
AcDbEntity
  8
0
100
AcDbBlockReference
  2
HEX
 10
93.907
 20
17.946
 30
0.0
  0
LWPOLYLINE
  5
69
330
17
100
AcDbEntity
  8
0
100
AcDbPolyline
 90
8
 70
1
 10
98.677
 20
16.911
 10
97.438
 20
16.196
 10
95.922
 20
17.071
 10
95.922
 20
18.821
 10
97.438
 20
19.696
 10
98.422
 20
19.127
 10
98.668
 20
17.177
 10
98.677
 20
16.911
  0
LWPOLYLINE
  5
6A
330
17
100
AcDbEntity
  8
0
100
AcDbPolyline
 90
12
 70
1
 10
60.374
 20
20.635
 10
60.303
 20
20.743
 10
60.135
 20
20.941
 10
59.935
 20
21.111
 10
59.823
 20
21.185
 10
58.846
 20
21.684
 10
58.846
 20
21.879
 10
60.361
 20
22.754
 10
61.877
 20
21.879
 10
61.877
 20
20.129
 10
60.871
 20
19.548
 10
60.374
 20
20.635
  0
INSERT
  5
6B
330
17
100
AcDbEntity
  8
0
100
AcDbBlockReference
  2
HEX
 10
63.892
 20
21.004
 30
0.0
  0
INSERT
  5
6D
330
17
100
AcDbEntity
  8
0
100
AcDbBlockReference
  2
HEX
 10
67.423
 20
21.004
 30
0.0
  0
INSERT
  5
6F
330
17
100
AcDbEntity
  8
0
100
AcDbBlockReference
  2
HEX
 10
70.955
 20
21.004
 30
0.0
  0
INSERT
  5
71
330
17
100
AcDbEntity
  8
0
100
AcDbBlockReference
  2
HEX
 10
74.486
 20
21.004
 30
0.0
  0
INSERT
  5
73
330
17
100
AcDbEntity
  8
0
100
AcDbBlockReference
  2
HEX
 10
78.017
 20
21.004
 30
0.0
  0
INSERT
  5
75
330
17
100
AcDbEntity
  8
0
100
AcDbBlockReference
  2
HEX
 10
81.548
 20
21.004
 30
0.0
  0
INSERT
  5
77
330
17
100
AcDbEntity
  8
0
100
AcDbBlockReference
  2
HEX
 10
85.079
 20
21.004
 30
0.0
  0
INSERT
  5
79
330
17
100
AcDbEntity
  8
0
100
AcDbBlockReference
  2
HEX
 10
88.61
 20
21.004
 30
0.0
  0
INSERT
  5
7B
330
17
100
AcDbEntity
  8
0
100
AcDbBlockReference
  2
HEX
 10
92.141
 20
21.004
 30
0.0
  0
INSERT
  5
7D
330
17
100
AcDbEntity
  8
0
100
AcDbBlockReference
  2
HEX
 10
95.672
 20
21.004
 30
0.0
  0
LWPOLYLINE
  5
7F
330
17
100
AcDbEntity
  8
0
100
AcDbPolyline
 90
5
 70
1
 10
97.783
 20
21.933
 10
98.312
 20
19.768
 10
97.688
 20
20.129
 10
97.688
 20
21.879
 10
97.783
 20
21.933
  0
LWPOLYLINE
  5
80
330
17
100
AcDbEntity
  8
0
100
AcDbPolyline
 90
12
 70
1
 10
57.3
 20
23.06
 10
57.212
 20
23.418
 10
57.195
 20
23.591
 10
57.207
 20
23.939
 10
57.27
 20
24.289
 10
57.376
 20
24.639
 10
57.662
 20
25.273
 10
58.596
 20
25.812
 10
60.111
 20
24.937
 10
60.111
 20
23.187
 10
58.596
 20
22.312
 10
57.3
 20
23.06
  0
INSERT
  5
81
330
17
100
AcDbEntity
  8
0
100
AcDbBlockReference
  2
HEX
 10
62.127
 20
24.062
 30
0.0
  0
INSERT
  5
83
330
17
100
AcDbEntity
  8
0
100
AcDbBlockReference
  2
HEX
 10
65.658
 20
24.062
 30
0.0
  0
INSERT
  5
85
330
17
100
AcDbEntity
  8
0
100
AcDbBlockReference
  2
HEX
 10
69.189
 20
24.062
 30
0.0
  0
INSERT
  5
87
330
17
100
AcDbEntity
  8
0
100
AcDbBlockReference
  2
HEX
 10
72.72
 20
24.062
 30
0.0
  0
INSERT
  5
89
330
17
100
AcDbEntity
  8
0
100
AcDbBlockReference
  2
HEX
 10
76.251
 20
24.062
 30
0.0
  0
INSERT
  5
8B
330
17
100
AcDbEntity
  8
0
100
AcDbBlockReference
  2
HEX
 10
79.782
 20
24.062
 30
0.0
  0
INSERT
  5
8D
330
17
100
AcDbEntity
  8
0
100
AcDbBlockReference
  2
HEX
 10
83.313
 20
24.062
 30
0.0
  0
INSERT
  5
8F
330
17
100
AcDbEntity
  8
0
100
AcDbBlockReference
  2
HEX
 10
86.844
 20
24.062
 30
0.0
  0
INSERT
  5
91
330
17
100
AcDbEntity
  8
0
100
AcDbBlockReference
  2
HEX
 10
90.376
 20
24.062
 30
0.0
  0
INSERT
  5
93
330
17
100
AcDbEntity
  8
0
100
AcDbBlockReference
  2
HEX
 10
93.907
 20
24.062
 30
0.0
  0
LWPOLYLINE
  5
95
330
17
100
AcDbEntity
  8
0
100
AcDbPolyline
 90
6
 70
1
 10
97.605
 20
22.408
 10
97.438
 20
22.312
 10
95.922
 20
23.187
 10
95.922
 20
24.937
 10
96.525
 20
25.285
 10
97.605
 20
22.408
  0
LWPOLYLINE
  5
96
330
17
100
AcDbEntity
  8
0
100
AcDbPolyline
 90
7
 70
1
 10
57.862
 20
25.965
 10
57.848
 20
26.269
 10
57.821
 20
26.405
 10
57.035
 20
28.751
 10
58.346
 20
27.995
 10
58.346
 20
26.245
 10
57.862
 20
25.965
  0
INSERT
  5
97
330
17
100
AcDbEntity
  8
0
100
AcDbBlockReference
  2
HEX
 10
60.361
 20
27.12
 30
0.0
  0
INSERT
  5
99
330
17
100
AcDbEntity
  8
0
100
AcDbBlockReference
  2
HEX
 10
63.892
 20
27.12
 30
0.0
  0
INSERT
  5
9B
330
17
100
AcDbEntity
  8
0
100
AcDbBlockReference
  2
HEX
 10
67.423
 20
27.12
 30
0.0
  0
INSERT
  5
9D
330
17
100
AcDbEntity
  8
0
100
AcDbBlockReference
  2
HEX
 10
70.955
 20
27.12
 30
0.0
  0
INSERT
  5
9F
330
17
100
AcDbEntity
  8
0
100
AcDbBlockReference
  2
HEX
 10
74.486
 20
27.12
 30
0.0
  0
INSERT
  5
A1
330
17
100
AcDbEntity
  8
0
100
AcDbBlockReference
  2
HEX
 10
78.017
 20
27.12
 30
0.0
  0
INSERT
  5
A3
330
17
100
AcDbEntity
  8
0
100
AcDbBlockReference
  2
HEX
 10
81.548
 20
27.12
 30
0.0
  0
INSERT
  5
A5
330
17
100
AcDbEntity
  8
0
100
AcDbBlockReference
  2
HEX
 10
85.079
 20
27.12
 30
0.0
  0
INSERT
  5
A7
330
17
100
AcDbEntity
  8
0
100
AcDbBlockReference
  2
HEX
 10
88.61
 20
27.12
 30
0.0
  0
INSERT
  5
A9
330
17
100
AcDbEntity
  8
0
100
AcDbBlockReference
  2
HEX
 10
92.141
 20
27.12
 30
0.0
  0
LWPOLYLINE
  5
AB
330
17
100
AcDbEntity
  8
0
100
AcDbPolyline
 90
7
 70
1
 10
95.976
 20
26.747
 10
96.347
 20
25.759
 10
95.672
 20
25.37
 10
94.157
 20
26.245
 10
94.157
 20
27.995
 10
95.058
 20
28.515
 10
95.976
 20
26.747
  0
LWPOLYLINE
  5
AC
330
17
100
AcDbEntity
  8
0
100
AcDbPolyline
 90
4
 70
1
 10
56.188
 20
31.279
 10
56.58
 20
31.053
 10
56.58
 20
30.109
 10
56.188
 20
31.279
  0
INSERT
  5
AD
330
17
100
AcDbEntity
  8
0
100
AcDbBlockReference
  2
HEX
 10
58.596
 20
30.178
 30
0.0
  0
INSERT
  5
AF
330
17
100
AcDbEntity
  8
0
100
AcDbBlockReference
  2
HEX
 10
62.127
 20
30.178
 30
0.0
  0
INSERT
  5
B1
330
17
100
AcDbEntity
  8
0
100
AcDbBlockReference
  2
HEX
 10
65.658
 20
30.178
 30
0.0
  0
INSERT
  5
B3
330
17
100
AcDbEntity
  8
0
100
AcDbBlockReference
  2
HEX
 10
69.189
 20
30.178
 30
0.0
  0
INSERT
  5
B5
330
17
100
AcDbEntity
  8
0
100
AcDbBlockReference
  2
HEX
 10
72.72
 20
30.178
 30
0.0
  0
INSERT
  5
B7
330
17
100
AcDbEntity
  8
0
100
AcDbBlockReference
  2
HEX
 10
76.251
 20
30.178
 30
0.0
  0
INSERT
  5
B9
330
17
100
AcDbEntity
  8
0
100
AcDbBlockReference
  2
HEX
 10
79.782
 20
30.178
 30
0.0
  0
INSERT
  5
BB
330
17
100
AcDbEntity
  8
0
100
AcDbBlockReference
  2
HEX
 10
83.313
 20
30.178
 30
0.0
  0
INSERT
  5
BD
330
17
100
AcDbEntity
  8
0
100
AcDbBlockReference
  2
HEX
 10
86.844
 20
30.178
 30
0.0
  0
INSERT
  5
BF
330
17
100
AcDbEntity
  8
0
100
AcDbBlockReference
  2
HEX
 10
90.376
 20
30.178
 30
0.0
  0
LWPOLYLINE
  5
C1
330
17
100
AcDbEntity
  8
0
100
AcDbPolyline
 90
6
 70
1
 10
94.828
 20
28.959
 10
93.907
 20
28.428
 10
92.391
 20
29.303
 10
92.391
 20
31.053
 10
93.429
 20
31.652
 10
94.828
 20
28.959
  0
LWPOLYLINE
  5
C2
330
17
100
AcDbEntity
  8
0
100
AcDbPolyline
 90
8
 70
1
 10
55.315
 20
33.885
 10
55.315
 20
34.111
 10
56.83
 20
34.986
 10
58.346
 20
34.111
 10
58.346
 20
32.361
 10
56.83
 20
31.486
 10
55.948
 20
31.995
 10
55.315
 20
33.885
  0
INSERT
  5
C3
330
17
100
AcDbEntity
  8
0
100
AcDbBlockReference
  2
HEX
 10
60.361
 20
33.236
 30
0.0
  0
INSERT
  5
C5
330
17
100
AcDbEntity
  8
0
100
AcDbBlockReference
  2
HEX
 10
63.892
 20
33.236
 30
0.0
  0
INSERT
  5
C7
330
17
100
AcDbEntity
  8
0
100
AcDbBlockReference
  2
HEX
 10
67.423
 20
33.236
 30
0.0
  0
INSERT
  5
C9
330
17
100
AcDbEntity
  8
0
100
AcDbBlockReference
  2
HEX
 10
70.955
 20
33.236
 30
0.0
  0
INSERT
  5
CB
330
17
100
AcDbEntity
  8
0
100
AcDbBlockReference
  2
HEX
 10
74.486
 20
33.236
 30
0.0
  0
INSERT
  5
CD
330
17
100
AcDbEntity
  8
0
100
AcDbBlockReference
  2
HEX
 10
78.017
 20
33.236
 30
0.0
  0
INSERT
  5
CF
330
17
100
AcDbEntity
  8
0
100
AcDbBlockReference
  2
HEX
 10
81.548
 20
33.236
 30
0.0
  0
INSERT
  5
D1
330
17
100
AcDbEntity
  8
0
100
AcDbBlockReference
  2
HEX
 10
85.079
 20
33.236
 30
0.0
  0
INSERT
  5
D3
330
17
100
AcDbEntity
  8
0
100
AcDbBlockReference
  2
HEX
 10
88.61
 20
33.236
 30
0.0
  0
LWPOLYLINE
  5
D5
330
17
100
AcDbEntity
  8
0
100
AcDbPolyline
 90
6
 70
1
 10
93.198
 20
32.096
 10
92.141
 20
31.486
 10
90.626
 20
32.361
 10
90.626
 20
34.111
 10
91.8
 20
34.789
 10
93.198
 20
32.096
  0
LWPOLYLINE
  5
D6
330
17
100
AcDbEntity
  8
0
100
AcDbPolyline
 90
10
 70
1
 10
54.465
 20
36.421
 10
54.252
 20
36.714
 10
54.074
 20
36.883
 10
53.87
 20
37.025
 10
53.571
 20
37.181
 10
55.065
 20
38.044
 10
56.58
 20
37.169
 10
56.58
 20
35.419
 10
55.089
 20
34.558
 10
54.465
 20
36.421
  0
INSERT
  5
D7
330
17
100
AcDbEntity
  8
0
100
AcDbBlockReference
  2
HEX
 10
58.596
 20
36.294
 30
0.0
  0
INSERT
  5
D9
330
17
100
AcDbEntity
  8
0
100
AcDbBlockReference
  2
HEX
 10
62.127
 20
36.294
 30
0.0
  0
INSERT
  5
DB
330
17
100
AcDbEntity
  8
0
100
AcDbBlockReference
  2
HEX
 10
65.658
 20
36.294
 30
0.0
  0
INSERT
  5
DD
330
17
100
AcDbEntity
  8
0
100
AcDbBlockReference
  2
HEX
 10
69.189
 20
36.294
 30
0.0
  0
INSERT
  5
DF
330
17
100
AcDbEntity
  8
0
100
AcDbBlockReference
  2
HEX
 10
72.72
 20
36.294
 30
0.0
  0
INSERT
  5
E1
330
17
100
AcDbEntity
  8
0
100
AcDbBlockReference
  2
HEX
 10
76.251
 20
36.294
 30
0.0
  0
INSERT
  5
E3
330
17
100
AcDbEntity
  8
0
100
AcDbBlockReference
  2
HEX
 10
79.782
 20
36.294
 30
0.0
  0
INSERT
  5
E5
330
17
100
AcDbEntity
  8
0
100
AcDbBlockReference
  2
HEX
 10
83.313
 20
36.294
 30
0.0
  0
INSERT
  5
E7
330
17
100
AcDbEntity
  8
0
100
AcDbBlockReference
  2
HEX
 10
86.844
 20
36.294
 30
0.0
  0
LWPOLYLINE
  5
E9
330
17
100
AcDbEntity
  8
0
100
AcDbPolyline
 90
6
 70
1
 10
91.569
 20
35.233
 10
90.376
 20
34.544
 10
88.86
 20
35.419
 10
88.86
 20
37.169
 10
90.171
 20
37.926
 10
91.569
 20
35.233
  0
INSERT
  5
EA
330
17
100
AcDbEntity
  8
0
100
AcDbBlockReference
  2
HEX
 10
53.299
 20
39.352
 30
0.0
  0
INSERT
  5
EC
330
17
100
AcDbEntity
  8
0
100
AcDbBlockReference
  2
HEX
 10
56.83
 20
39.352
 30
0.0
  0
INSERT
  5
EE
330
17
100
AcDbEntity
  8
0
100
AcDbBlockReference
  2
HEX
 10
60.361
 20
39.352
 30
0.0
  0
INSERT
  5
F0
330
17
100
AcDbEntity
  8
0
100
AcDbBlockReference
  2
HEX
 10
63.892
 20
39.352
 30
0.0
  0
INSERT
  5
F2
330
17
100
AcDbEntity
  8
0
100
AcDbBlockReference
  2
HEX
 10
67.423
 20
39.352
 30
0.0
  0
INSERT
  5
F4
330
17
100
AcDbEntity
  8
0
100
AcDbBlockReference
  2
HEX
 10
70.955
 20
39.352
 30
0.0
  0
INSERT
  5
F6
330
17
100
AcDbEntity
  8
0
100
AcDbBlockReference
  2
HEX
 10
74.486
 20
39.352
 30
0.0
  0
INSERT
  5
F8
330
17
100
AcDbEntity
  8
0
100
AcDbBlockReference
  2
HEX
 10
78.017
 20
39.352
 30
0.0
  0
INSERT
  5
FA
330
17
100
AcDbEntity
  8
0
100
AcDbBlockReference
  2
HEX
 10
81.548
 20
39.352
 30
0.0
  0
INSERT
  5
FC
330
17
100
AcDbEntity
  8
0
100
AcDbBlockReference
  2
HEX
 10
85.079
 20
39.352
 30
0.0
  0
LWPOLYLINE
  5
FE
330
17
100
AcDbEntity
  8
0
100
AcDbPolyline
 90
6
 70
1
 10
89.94
 20
38.37
 10
88.61
 20
37.602
 10
87.094
 20
38.477
 10
87.094
 20
40.227
 10
88.542
 20
41.063
 10
89.94
 20
38.37
  0
LWPOLYLINE
  5
FF
330
17
100
AcDbEntity
  8
0
100
AcDbPolyline
 90
11
 70
1
 10
52.011
 20
41.383
 10
52.096
 20
41.641
 10
52.121
 20
41.772
 10
52.136
 20
42.038
 10
52.103
 20
42.304
 10
51.391
 20
44.078
 10
51.534
 20
44.16
 10
53.049
 20
43.285
 10
53.049
 20
41.535
 10
51.727
 20
40.772
 10
52.011
 20
41.383
  0
INSERT
  5
100
330
17
100
AcDbEntity
  8
0
100
AcDbBlockReference
  2
HEX
 10
55.065
 20
42.41
 30
0.0
  0
INSERT
  5
102
330
17
100
AcDbEntity
  8
0
100
AcDbBlockReference
  2
HEX
 10
58.596
 20
42.41
 30
0.0
  0
INSERT
  5
104
330
17
100
AcDbEntity
  8
0
100
AcDbBlockReference
  2
HEX
 10
62.127
 20
42.41
 30
0.0
  0
INSERT
  5
106
330
17
100
AcDbEntity
  8
0
100
AcDbBlockReference
  2
HEX
 10
65.658
 20
42.41
 30
0.0
  0
INSERT
  5
108
330
17
100
AcDbEntity
  8
0
100
AcDbBlockReference
  2
HEX
 10
69.189
 20
42.41
 30
0.0
  0
INSERT
  5
10A
330
17
100
AcDbEntity
  8
0
100
AcDbBlockReference
  2
HEX
 10
72.72
 20
42.41
 30
0.0
  0
INSERT
  5
10C
330
17
100
AcDbEntity
  8
0
100
AcDbBlockReference
  2
HEX
 10
76.251
 20
42.41
 30
0.0
  0
INSERT
  5
10E
330
17
100
AcDbEntity
  8
0
100
AcDbBlockReference
  2
HEX
 10
79.782
 20
42.41
 30
0.0
  0
INSERT
  5
110
330
17
100
AcDbEntity
  8
0
100
AcDbBlockReference
  2
HEX
 10
83.313
 20
42.41
 30
0.0
  0
LWPOLYLINE
  5
112
330
17
100
AcDbEntity
  8
0
100
AcDbPolyline
 90
7
 70
1
 10
88.311
 20
41.507
 10
86.844
 20
40.66
 10
85.329
 20
41.535
 10
85.329
 20
43.285
 10
86.844
 20
44.16
 10
86.972
 20
44.086
 10
88.311
 20
41.507
  0
LWPOLYLINE
  5
113
330
17
100
AcDbEntity
  8
0
100
AcDbPolyline
 90
5
 70
1
 10
50.24
 20
46.945
 10
51.284
 20
46.343
 10
51.284
 20
44.593
 10
51.203
 20
44.546
 10
50.24
 20
46.945
  0
INSERT
  5
114
330
17
100
AcDbEntity
  8
0
100
AcDbBlockReference
  2
HEX
 10
53.299
 20
45.468
 30
0.0
  0
INSERT
  5
116
330
17
100
AcDbEntity
  8
0
100
AcDbBlockReference
  2
HEX
 10
56.83
 20
45.468
 30
0.0
  0
INSERT
  5
118
330
17
100
AcDbEntity
  8
0
100
AcDbBlockReference
  2
HEX
 10
60.361
 20
45.468
 30
0.0
  0
INSERT
  5
11A
330
17
100
AcDbEntity
  8
0
100
AcDbBlockReference
  2
HEX
 10
63.892
 20
45.468
 30
0.0
  0
INSERT
  5
11C
330
17
100
AcDbEntity
  8
0
100
AcDbBlockReference
  2
HEX
 10
67.423
 20
45.468
 30
0.0
  0
INSERT
  5
11E
330
17
100
AcDbEntity
  8
0
100
AcDbBlockReference
  2
HEX
 10
70.955
 20
45.468
 30
0.0
  0
INSERT
  5
120
330
17
100
AcDbEntity
  8
0
100
AcDbBlockReference
  2
HEX
 10
74.486
 20
45.468
 30
0.0
  0
INSERT
  5
122
330
17
100
AcDbEntity
  8
0
100
AcDbBlockReference
  2
HEX
 10
78.017
 20
45.468
 30
0.0
  0
INSERT
  5
124
330
17
100
AcDbEntity
  8
0
100
AcDbBlockReference
  2
HEX
 10
81.548
 20
45.468
 30
0.0
  0
LWPOLYLINE
  5
126
330
17
100
AcDbEntity
  8
0
100
AcDbPolyline
 90
8
 70
1
 10
86.594
 20
44.813
 10
86.594
 20
44.593
 10
85.079
 20
43.718
 10
83.563
 20
44.593
 10
83.563
 20
46.343
 10
85.079
 20
47.218
 10
85.46
 20
46.998
 10
86.594
 20
44.813
  0
LWPOLYLINE
  5
127
330
17
100
AcDbEntity
  8
0
100
AcDbPolyline
 90
4
 70
1
 10
49.298
 20
49.528
 10
49.518
 20
49.401
 10
49.518
 20
48.953
 10
49.298
 20
49.528
  0
INSERT
  5
128
330
17
100
AcDbEntity
  8
0
100
AcDbBlockReference
  2
HEX
 10
51.534
 20
48.526
 30
0.0
  0
INSERT
  5
12A
330
17
100
AcDbEntity
  8
0
100
AcDbBlockReference
  2
HEX
 10
55.065
 20
48.526
 30
0.0
  0
INSERT
  5
12C
330
17
100
AcDbEntity
  8
0
100
AcDbBlockReference
  2
HEX
 10
58.596
 20
48.526
 30
0.0
  0
INSERT
  5
12E
330
17
100
AcDbEntity
  8
0
100
AcDbBlockReference
  2
HEX
 10
62.127
 20
48.526
 30
0.0
  0
INSERT
  5
130
330
17
100
AcDbEntity
  8
0
100
AcDbBlockReference
  2
HEX
 10
65.658
 20
48.526
 30
0.0
  0
INSERT
  5
132
330
17
100
AcDbEntity
  8
0
100
AcDbBlockReference
  2
HEX
 10
69.189
 20
48.526
 30
0.0
  0
INSERT
  5
134
330
17
100
AcDbEntity
  8
0
100
AcDbBlockReference
  2
HEX
 10
72.72
 20
48.526
 30
0.0
  0
INSERT
  5
136
330
17
100
AcDbEntity
  8
0
100
AcDbBlockReference
  2
HEX
 10
76.251
 20
48.526
 30
0.0
  0
INSERT
  5
138
330
17
100
AcDbEntity
  8
0
100
AcDbBlockReference
  2
HEX
 10
79.782
 20
48.526
 30
0.0
  0
LWPOLYLINE
  5
13A
330
17
100
AcDbEntity
  8
0
100
AcDbPolyline
 90
8
 70
1
 10
84.829
 20
48.213
 10
84.829
 20
47.651
 10
83.313
 20
46.776
 10
81.798
 20
47.651
 10
81.798
 20
49.401
 10
83.313
 20
50.276
 10
83.948
 20
49.91
 10
84.829
 20
48.213
  0
LWPOLYLINE
  5
13B
330
17
100
AcDbEntity
  8
0
100
AcDbPolyline
 90
8
 70
1
 10
48.252
 20
52.261
 10
48.252
 20
52.459
 10
49.768
 20
53.334
 10
51.284
 20
52.459
 10
51.284
 20
50.709
 10
49.768
 20
49.834
 10
49.015
 20
50.269
 10
48.252
 20
52.261
  0
INSERT
  5
13C
330
17
100
AcDbEntity
  8
0
100
AcDbBlockReference
  2
HEX
 10
53.299
 20
51.584
 30
0.0
  0
INSERT
  5
13E
330
17
100
AcDbEntity
  8
0
100
AcDbBlockReference
  2
HEX
 10
56.83
 20
51.584
 30
0.0
  0
INSERT
  5
140
330
17
100
AcDbEntity
  8
0
100
AcDbBlockReference
  2
HEX
 10
60.361
 20
51.584
 30
0.0
  0
INSERT
  5
142
330
17
100
AcDbEntity
  8
0
100
AcDbBlockReference
  2
HEX
 10
63.892
 20
51.584
 30
0.0
  0
INSERT
  5
144
330
17
100
AcDbEntity
  8
0
100
AcDbBlockReference
  2
HEX
 10
67.423
 20
51.584
 30
0.0
  0
INSERT
  5
146
330
17
100
AcDbEntity
  8
0
100
AcDbBlockReference
  2
HEX
 10
70.955
 20
51.584
 30
0.0
  0
INSERT
  5
148
330
17
100
AcDbEntity
  8
0
100
AcDbBlockReference
  2
HEX
 10
74.486
 20
51.584
 30
0.0
  0
INSERT
  5
14A
330
17
100
AcDbEntity
  8
0
100
AcDbBlockReference
  2
HEX
 10
78.017
 20
51.584
 30
0.0
  0
LWPOLYLINE
  5
14C
330
17
100
AcDbEntity
  8
0
100
AcDbPolyline
 90
8
 70
1
 10
83.063
 20
51.613
 10
83.063
 20
50.709
 10
81.548
 20
49.834
 10
80.032
 20
50.709
 10
80.032
 20
52.459
 10
81.548
 20
53.334
 10
82.436
 20
52.821
 10
83.063
 20
51.613
  0
LWPOLYLINE
  5
14D
330
17
100
AcDbEntity
  8
0
100
AcDbPolyline
 90
6
 70
1
 10
46.963
 20
55.631
 10
48.458
 20
56.129
 10
49.518
 20
55.517
 10
49.518
 20
53.767
 10
48.01
 20
52.896
 10
46.963
 20
55.631
  0
INSERT
  5
14E
330
17
100
AcDbEntity
  8
0
100
AcDbBlockReference
  2
HEX
 10
51.534
 20
54.642
 30
0.0
  0
INSERT
  5
150
330
17
100
AcDbEntity
  8
0
100
AcDbBlockReference
  2
HEX
 10
55.065
 20
54.642
 30
0.0
  0
INSERT
  5
152
330
17
100
AcDbEntity
  8
0
100
AcDbBlockReference
  2
HEX
 10
58.596
 20
54.642
 30
0.0
  0
INSERT
  5
154
330
17
100
AcDbEntity
  8
0
100
AcDbBlockReference
  2
HEX
 10
62.127
 20
54.642
 30
0.0
  0
INSERT
  5
156
330
17
100
AcDbEntity
  8
0
100
AcDbBlockReference
  2
HEX
 10
65.658
 20
54.642
 30
0.0
  0
INSERT
  5
158
330
17
100
AcDbEntity
  8
0
100
AcDbBlockReference
  2
HEX
 10
69.189
 20
54.642
 30
0.0
  0
INSERT
  5
15A
330
17
100
AcDbEntity
  8
0
100
AcDbBlockReference
  2
HEX
 10
72.72
 20
54.642
 30
0.0
  0
INSERT
  5
15C
330
17
100
AcDbEntity
  8
0
100
AcDbBlockReference
  2
HEX
 10
76.251
 20
54.642
 30
0.0
  0
LWPOLYLINE
  5
15E
330
17
100
AcDbEntity
  8
0
100
AcDbPolyline
 90
8
 70
1
 10
81.298
 20
55.012
 10
81.298
 20
53.767
 10
79.782
 20
52.892
 10
78.267
 20
53.767
 10
78.267
 20
55.517
 10
79.782
 20
56.392
 10
80.924
 20
55.733
 10
81.298
 20
55.012
  0
LWPOLYLINE
  5
15F
330
17
100
AcDbEntity
  8
0
100
AcDbPolyline
 90
4
 70
1
 10
82.007
 20
53.646
 10
81.798
 20
53.767
 10
81.798
 20
54.049
 10
82.007
 20
53.646
  0
LWPOLYLINE
  5
160
330
17
100
AcDbEntity
  8
0
100
AcDbPolyline
 90
5
 70
1
 10
51.284
 20
57.071
 10
51.284
 20
56.825
 10
49.768
 20
55.95
 10
49.092
 20
56.34
 10
51.284
 20
57.071
  0
LWPOLYLINE
  5
161
330
17
100
AcDbEntity
  8
0
100
AcDbPolyline
 90
9
 70
1
 10
52.927
 20
57.618
 10
52.474
 20
58.973
 10
53.299
 20
59.45
 10
54.815
 20
58.575
 10
54.815
 20
56.825
 10
53.299
 20
55.95
 10
51.784
 20
56.825
 10
51.784
 20
57.237
 10
52.927
 20
57.618
  0
INSERT
  5
162
330
17
100
AcDbEntity
  8
0
100
AcDbBlockReference
  2
HEX
 10
56.83
 20
57.7
 30
0.0
  0
INSERT
  5
164
330
17
100
AcDbEntity
  8
0
100
AcDbBlockReference
  2
HEX
 10
60.361
 20
57.7
 30
0.0
  0
INSERT
  5
166
330
17
100
AcDbEntity
  8
0
100
AcDbBlockReference
  2
HEX
 10
63.892
 20
57.7
 30
0.0
  0
INSERT
  5
168
330
17
100
AcDbEntity
  8
0
100
AcDbBlockReference
  2
HEX
 10
67.423
 20
57.7
 30
0.0
  0
INSERT
  5
16A
330
17
100
AcDbEntity
  8
0
100
AcDbBlockReference
  2
HEX
 10
70.955
 20
57.7
 30
0.0
  0
INSERT
  5
16C
330
17
100
AcDbEntity
  8
0
100
AcDbBlockReference
  2
HEX
 10
74.486
 20
57.7
 30
0.0
  0
LWPOLYLINE
  5
16E
330
17
100
AcDbEntity
  8
0
100
AcDbPolyline
 90
8
 70
1
 10
79.532
 20
58.451
 10
79.532
 20
56.825
 10
78.017
 20
55.95
 10
76.501
 20
56.825
 10
76.501
 20
58.575
 10
78.017
 20
59.45
 10
79.478
 20
58.606
 10
79.532
 20
58.451
  0
LWPOLYLINE
  5
16F
330
17
100
AcDbEntity
  8
0
100
AcDbPolyline
 90
4
 70
1
 10
80.495
 20
56.557
 10
80.032
 20
56.825
 10
80.032
 20
57.449
 10
80.495
 20
56.557
  0
LWPOLYLINE
  5
170
330
17
100
AcDbEntity
  8
0
100
AcDbPolyline
 90
6
 70
1
 10
51.331
 20
62.391
 10
51.534
 20
62.508
 10
53.049
 20
61.633
 10
53.049
 20
59.883
 10
52.312
 20
59.457
 10
51.331
 20
62.391
  0
INSERT
  5
171
330
17
100
AcDbEntity
  8
0
100
AcDbBlockReference
  2
HEX
 10
55.065
 20
60.758
 30
0.0
  0
INSERT
  5
173
330
17
100
AcDbEntity
  8
0
100
AcDbBlockReference
  2
HEX
 10
58.596
 20
60.758
 30
0.0
  0
INSERT
  5
175
330
17
100
AcDbEntity
  8
0
100
AcDbBlockReference
  2
HEX
 10
62.127
 20
60.758
 30
0.0
  0
INSERT
  5
177
330
17
100
AcDbEntity
  8
0
100
AcDbBlockReference
  2
HEX
 10
65.658
 20
60.758
 30
0.0
  0
INSERT
  5
179
330
17
100
AcDbEntity
  8
0
100
AcDbBlockReference
  2
HEX
 10
69.189
 20
60.758
 30
0.0
  0
INSERT
  5
17B
330
17
100
AcDbEntity
  8
0
100
AcDbBlockReference
  2
HEX
 10
72.72
 20
60.758
 30
0.0
  0
INSERT
  5
17D
330
17
100
AcDbEntity
  8
0
100
AcDbBlockReference
  2
HEX
 10
76.251
 20
60.758
 30
0.0
  0
LWPOLYLINE
  5
17F
330
17
100
AcDbEntity
  8
0
100
AcDbPolyline
 90
5
 70
1
 10
79.226
 20
59.329
 10
78.267
 20
59.883
 10
78.267
 20
61.633
 10
78.397
 20
61.708
 10
79.226
 20
59.329
  0
LWPOLYLINE
  5
180
330
17
100
AcDbEntity
  8
0
100
AcDbPolyline
 90
7
 70
1
 10
44.938
 20
63.704
 10
44.721
 20
64.385
 10
44.721
 20
64.691
 10
46.237
 20
65.566
 10
47.752
 20
64.691
 10
47.752
 20
64.573
 10
44.938
 20
63.704
  0
LWPOLYLINE
  5
181
330
17
100
AcDbEntity
  8
0
100
AcDbPolyline
 90
5
 70
1
 10
50.389
 20
65.208
 10
51.284
 20
64.691
 10
51.284
 20
62.941
 10
51.169
 20
62.875
 10
50.389
 20
65.208
  0
LWPOLYLINE
  5
182
330
17
100
AcDbEntity
  8
0
100
AcDbPolyline
 90
4
 70
1
 10
48.387
 20
64.769
 10
49.768
 20
65.566
 10
50.187
 20
65.324
 10
48.387
 20
64.769
  0
INSERT
  5
183
330
17
100
AcDbEntity
  8
0
100
AcDbBlockReference
  2
HEX
 10
53.299
 20
63.816
 30
0.0
  0
INSERT
  5
185
330
17
100
AcDbEntity
  8
0
100
AcDbBlockReference
  2
HEX
 10
56.83
 20
63.816
 30
0.0
  0
INSERT
  5
187
330
17
100
AcDbEntity
  8
0
100
AcDbBlockReference
  2
HEX
 10
60.361
 20
63.816
 30
0.0
  0
INSERT
  5
189
330
17
100
AcDbEntity
  8
0
100
AcDbBlockReference
  2
HEX
 10
63.892
 20
63.816
 30
0.0
  0
INSERT
  5
18B
330
17
100
AcDbEntity
  8
0
100
AcDbBlockReference
  2
HEX
 10
67.423
 20
63.816
 30
0.0
  0
INSERT
  5
18D
330
17
100
AcDbEntity
  8
0
100
AcDbBlockReference
  2
HEX
 10
70.955
 20
63.816
 30
0.0
  0
INSERT
  5
18F
330
17
100
AcDbEntity
  8
0
100
AcDbBlockReference
  2
HEX
 10
74.486
 20
63.816
 30
0.0
  0
LWPOLYLINE
  5
191
330
17
100
AcDbEntity
  8
0
100
AcDbPolyline
 90
7
 70
1
 10
77.96
 20
62.959
 10
78.229
 20
62.188
 10
78.017
 20
62.066
 10
76.501
 20
62.941
 10
76.501
 20
64.691
 10
77.417
 20
65.219
 10
77.96
 20
62.959
  0
LWPOLYLINE
  5
192
330
17
100
AcDbEntity
  8
0
100
AcDbPolyline
 90
7
 70
1
 10
43.869
 20
67.066
 10
43.454
 20
68.036
 10
44.471
 20
68.624
 10
45.987
 20
67.749
 10
45.987
 20
65.999
 10
44.484
 20
65.131
 10
43.869
 20
67.066
  0
INSERT
  5
193
330
17
100
AcDbEntity
  8
0
100
AcDbBlockReference
  2
HEX
 10
48.002
 20
66.874
 30
0.0
  0
INSERT
  5
195
330
17
100
AcDbEntity
  8
0
100
AcDbBlockReference
  2
HEX
 10
51.534
 20
66.874
 30
0.0
  0
INSERT
  5
197
330
17
100
AcDbEntity
  8
0
100
AcDbBlockReference
  2
HEX
 10
55.065
 20
66.874
 30
0.0
  0
INSERT
  5
199
330
17
100
AcDbEntity
  8
0
100
AcDbBlockReference
  2
HEX
 10
58.596
 20
66.874
 30
0.0
  0
INSERT
  5
19B
330
17
100
AcDbEntity
  8
0
100
AcDbBlockReference
  2
HEX
 10
62.127
 20
66.874
 30
0.0
  0
INSERT
  5
19D
330
17
100
AcDbEntity
  8
0
100
AcDbBlockReference
  2
HEX
 10
65.658
 20
66.874
 30
0.0
  0
INSERT
  5
19F
330
17
100
AcDbEntity
  8
0
100
AcDbBlockReference
  2
HEX
 10
69.189
 20
66.874
 30
0.0
  0
INSERT
  5
1A1
330
17
100
AcDbEntity
  8
0
100
AcDbBlockReference
  2
HEX
 10
72.72
 20
66.874
 30
0.0
  0
LWPOLYLINE
  5
1A3
330
17
100
AcDbEntity
  8
0
100
AcDbPolyline
 90
8
 70
1
 10
77.019
 20
67.734
 10
77.326
 20
65.744
 10
76.251
 20
65.124
 10
74.736
 20
65.999
 10
74.736
 20
67.749
 10
76.251
 20
68.624
 10
76.993
 20
68.196
 10
77.019
 20
67.734
  0
LWPOLYLINE
  5
1A4
330
17
100
AcDbEntity
  8
0
100
AcDbPolyline
 90
8
 70
1
 10
43.193
 20
68.645
 10
42.389
 20
70.131
 10
41.708
 20
71.106
 10
42.706
 20
71.682
 10
44.221
 20
70.807
 10
44.221
 20
69.057
 10
43.255
 20
68.499
 10
43.193
 20
68.645
  0
INSERT
  5
1A5
330
17
100
AcDbEntity
  8
0
100
AcDbBlockReference
  2
HEX
 10
46.237
 20
69.932
 30
0.0
  0
INSERT
  5
1A7
330
17
100
AcDbEntity
  8
0
100
AcDbBlockReference
  2
HEX
 10
49.768
 20
69.932
 30
0.0
  0
INSERT
  5
1A9
330
17
100
AcDbEntity
  8
0
100
AcDbBlockReference
  2
HEX
 10
53.299
 20
69.932
 30
0.0
  0
INSERT
  5
1AB
330
17
100
AcDbEntity
  8
0
100
AcDbBlockReference
  2
HEX
 10
56.83
 20
69.932
 30
0.0
  0
INSERT
  5
1AD
330
17
100
AcDbEntity
  8
0
100
AcDbBlockReference
  2
HEX
 10
60.361
 20
69.932
 30
0.0
  0
INSERT
  5
1AF
330
17
100
AcDbEntity
  8
0
100
AcDbBlockReference
  2
HEX
 10
63.892
 20
69.932
 30
0.0
  0
INSERT
  5
1B1
330
17
100
AcDbEntity
  8
0
100
AcDbBlockReference
  2
HEX
 10
67.423
 20
69.932
 30
0.0
  0
INSERT
  5
1B3
330
17
100
AcDbEntity
  8
0
100
AcDbBlockReference
  2
HEX
 10
70.955
 20
69.932
 30
0.0
  0
INSERT
  5
1B5
330
17
100
AcDbEntity
  8
0
100
AcDbBlockReference
  2
HEX
 10
74.486
 20
69.932
 30
0.0
  0
LWPOLYLINE
  5
1B7
330
17
100
AcDbEntity
  8
0
100
AcDbPolyline
 90
6
 70
1
 10
76.88
 20
70.166
 10
76.959
 20
68.793
 10
76.501
 20
69.057
 10
76.501
 20
70.807
 10
76.924
 20
71.051
 10
76.88
 20
70.166
  0
LWPOLYLINE
  5
1B8
330
17
100
AcDbEntity
  8
0
100
AcDbPolyline
 90
9
 70
1
 10
40.289
 20
72.754
 10
39.643
 20
73.324
 10
39.425
 20
73.489
 10
39.425
 20
73.865
 10
40.94
 20
74.74
 10
42.456
 20
73.865
 10
42.456
 20
72.115
 10
41.42
 20
71.517
 10
40.289
 20
72.754
  0
INSERT
  5
1B9
330
17
100
AcDbEntity
  8
0
100
AcDbBlockReference
  2
HEX
 10
44.471
 20
72.99
 30
0.0
  0
INSERT
  5
1BB
330
17
100
AcDbEntity
  8
0
100
AcDbBlockReference
  2
HEX
 10
48.002
 20
72.99
 30
0.0
  0
INSERT
  5
1BD
330
17
100
AcDbEntity
  8
0
100
AcDbBlockReference
  2
HEX
 10
51.534
 20
72.99
 30
0.0
  0
INSERT
  5
1BF
330
17
100
AcDbEntity
  8
0
100
AcDbBlockReference
  2
HEX
 10
55.065
 20
72.99
 30
0.0
  0
INSERT
  5
1C1
330
17
100
AcDbEntity
  8
0
100
AcDbBlockReference
  2
HEX
 10
58.596
 20
72.99
 30
0.0
  0
INSERT
  5
1C3
330
17
100
AcDbEntity
  8
0
100
AcDbBlockReference
  2
HEX
 10
62.127
 20
72.99
 30
0.0
  0
INSERT
  5
1C5
330
17
100
AcDbEntity
  8
0
100
AcDbBlockReference
  2
HEX
 10
65.658
 20
72.99
 30
0.0
  0
INSERT
  5
1C7
330
17
100
AcDbEntity
  8
0
100
AcDbBlockReference
  2
HEX
 10
69.189
 20
72.99
 30
0.0
  0
INSERT
  5
1C9
330
17
100
AcDbEntity
  8
0
100
AcDbBlockReference
  2
HEX
 10
72.72
 20
72.99
 30
0.0
  0
LWPOLYLINE
  5
1CB
330
17
100
AcDbEntity
  8
0
100
AcDbPolyline
 90
8
 70
1
 10
77.002
 20
72.622
 10
76.954
 20
71.645
 10
76.251
 20
71.24
 10
74.736
 20
72.115
 10
74.736
 20
73.865
 10
76.251
 20
74.74
 10
77.231
 20
74.174
 10
77.002
 20
72.622
  0
LWPOLYLINE
  5
1CC
330
17
100
AcDbEntity
  8
0
100
AcDbPolyline
 90
4
 70
1
 10
24.229
 20
77.324
 10
25.05
 20
77.798
 10
26.36
 20
77.042
 10
24.229
 20
77.324
  0
LWPOLYLINE
  5
1CD
330
17
100
AcDbEntity
  8
0
100
AcDbPolyline
 90
5
 70
1
 10
27.101
 20
76.943
 10
28.581
 20
77.798
 10
30.097
 20
76.923
 10
30.097
 20
76.546
 10
27.101
 20
76.943
  0
LWPOLYLINE
  5
1CE
330
17
100
AcDbEntity
  8
0
100
AcDbPolyline
 90
6
 70
1
 10
30.597
 20
76.48
 10
30.597
 20
76.923
 10
32.113
 20
77.798
 10
33.628
 20
76.923
 10
33.628
 20
76.079
 10
30.597
 20
76.48
  0
LWPOLYLINE
  5
1CF
330
17
100
AcDbEntity
  8
0
100
AcDbPolyline
 90
8
 70
1
 10
35.647
 20
75.514
 10
34.128
 20
75.968
 10
34.128
 20
76.923
 10
35.644
 20
77.798
 10
37.159
 20
76.923
 10
37.159
 20
75.173
 10
36.862
 20
75.001
 10
35.647
 20
75.514
  0
INSERT
  5
1D0
330
17
100
AcDbEntity
  8
0
100
AcDbBlockReference
  2
HEX
 10
39.175
 20
76.048
 30
0.0
  0
INSERT
  5
1D2
330
17
100
AcDbEntity
  8
0
100
AcDbBlockReference
  2
HEX
 10
42.706
 20
76.048
 30
0.0
  0
INSERT
  5
1D4
330
17
100
AcDbEntity
  8
0
100
AcDbBlockReference
  2
HEX
 10
46.237
 20
76.048
 30
0.0
  0
INSERT
  5
1D6
330
17
100
AcDbEntity
  8
0
100
AcDbBlockReference
  2
HEX
 10
49.768
 20
76.048
 30
0.0
  0
INSERT
  5
1D8
330
17
100
AcDbEntity
  8
0
100
AcDbBlockReference
  2
HEX
 10
53.299
 20
76.048
 30
0.0
  0
INSERT
  5
1DA
330
17
100
AcDbEntity
  8
0
100
AcDbBlockReference
  2
HEX
 10
56.83
 20
76.048
 30
0.0
  0
INSERT
  5
1DC
330
17
100
AcDbEntity
  8
0
100
AcDbBlockReference
  2
HEX
 10
60.361
 20
76.048
 30
0.0
  0
INSERT
  5
1DE
330
17
100
AcDbEntity
  8
0
100
AcDbBlockReference
  2
HEX
 10
63.892
 20
76.048
 30
0.0
  0
INSERT
  5
1E0
330
17
100
AcDbEntity
  8
0
100
AcDbBlockReference
  2
HEX
 10
67.423
 20
76.048
 30
0.0
  0
INSERT
  5
1E2
330
17
100
AcDbEntity
  8
0
100
AcDbBlockReference
  2
HEX
 10
70.955
 20
76.048
 30
0.0
  0
INSERT
  5
1E4
330
17
100
AcDbEntity
  8
0
100
AcDbBlockReference
  2
HEX
 10
74.486
 20
76.048
 30
0.0
  0
LWPOLYLINE
  5
1E6
330
17
100
AcDbEntity
  8
0
100
AcDbPolyline
 90
8
 70
1
 10
77.895
 20
77.387
 10
77.36
 20
75.052
 10
77.309
 20
74.707
 10
76.501
 20
75.173
 10
76.501
 20
76.923
 10
78.017
 20
77.798
 10
78.029
 20
77.791
 10
77.895
 20
77.387
  0
LWPOLYLINE
  5
1E7
330
17
100
AcDbEntity
  8
0
100
AcDbPolyline
 90
4
 70
1
 10
-19.186
 20
80.799
 10
-19.088
 20
80.856
 10
-18.99
 20
80.799
 10
-19.186
 20
80.799
  0
LWPOLYLINE
  5
1E8
330
17
100
AcDbEntity
  8
0
100
AcDbPolyline
 90
4
 70
1
 10
-15.657
 20
80.798
 10
-15.557
 20
80.856
 10
-15.457
 20
80.798
 10
-15.657
 20
80.798
  0
LWPOLYLINE
  5
1E9
330
17
100
AcDbEntity
  8
0
100
AcDbPolyline
 90
4
 70
1
 10
-12.128
 20
80.797
 10
-12.026
 20
80.856
 10
-11.924
 20
80.797
 10
-12.128
 20
80.797
  0
LWPOLYLINE
  5
1EA
330
17
100
AcDbEntity
  8
0
100
AcDbPolyline
 90
4
 70
1
 10
-8.598
 20
80.796
 10
-8.495
 20
80.856
 10
-8.391
 20
80.796
 10
-8.598
 20
80.796
  0
LWPOLYLINE
  5
1EB
330
17
100
AcDbEntity
  8
0
100
AcDbPolyline
 90
4
 70
1
 10
-5.069
 20
80.795
 10
-4.964
 20
80.856
 10
-4.858
 20
80.795
 10
-5.069
 20
80.795
  0
LWPOLYLINE
  5
1EC
330
17
100
AcDbEntity
  8
0
100
AcDbPolyline
 90
4
 70
1
 10
-1.54
 20
80.794
 10
-1.433
 20
80.856
 10
-1.325
 20
80.794
 10
-1.54
 20
80.794
  0
LWPOLYLINE
  5
1ED
330
17
100
AcDbEntity
  8
0
100
AcDbPolyline
 90
4
 70
1
 10
1.989
 20
80.793
 10
2.098
 20
80.856
 10
2.208
 20
80.793
 10
1.989
 20
80.793
  0
LWPOLYLINE
  5
1EE
330
17
100
AcDbEntity
  8
0
100
AcDbPolyline
 90
11
 70
1
 10
20.722
 20
78.232
 10
20.155
 20
78.618
 10
19.64
 20
79.071
 10
19.184
 20
79.587
 10
18.794
 20
80.161
 10
18.739
 20
80.27
 10
19.754
 20
80.856
 10
21.269
 20
79.981
 10
21.269
 20
78.231
 10
21.014
 20
78.083
 10
20.722
 20
78.232
  0
LWPOLYLINE
  5
1EF
330
17
100
AcDbEntity
  8
0
100
AcDbPolyline
 90
8
 70
1
 10
23.076
 20
77.477
 10
21.769
 20
78.231
 10
21.769
 20
79.981
 10
23.285
 20
80.856
 10
24.8
 20
79.981
 10
24.8
 20
78.231
 10
23.416
 20
77.432
 10
23.076
 20
77.477
  0
INSERT
  5
1F0
330
17
100
AcDbEntity
  8
0
100
AcDbBlockReference
  2
HEX
 10
26.816
 20
79.106
 30
0.0
  0
INSERT
  5
1F2
330
17
100
AcDbEntity
  8
0
100
AcDbBlockReference
  2
HEX
 10
30.347
 20
79.106
 30
0.0
  0
INSERT
  5
1F4
330
17
100
AcDbEntity
  8
0
100
AcDbBlockReference
  2
HEX
 10
33.878
 20
79.106
 30
0.0
  0
INSERT
  5
1F6
330
17
100
AcDbEntity
  8
0
100
AcDbBlockReference
  2
HEX
 10
37.409
 20
79.106
 30
0.0
  0
INSERT
  5
1F8
330
17
100
AcDbEntity
  8
0
100
AcDbBlockReference
  2
HEX
 10
40.94
 20
79.106
 30
0.0
  0
INSERT
  5
1FA
330
17
100
AcDbEntity
  8
0
100
AcDbBlockReference
  2
HEX
 10
44.471
 20
79.106
 30
0.0
  0
INSERT
  5
1FC
330
17
100
AcDbEntity
  8
0
100
AcDbBlockReference
  2
HEX
 10
48.002
 20
79.106
 30
0.0
  0
INSERT
  5
1FE
330
17
100
AcDbEntity
  8
0
100
AcDbBlockReference
  2
HEX
 10
51.534
 20
79.106
 30
0.0
  0
INSERT
  5
200
330
17
100
AcDbEntity
  8
0
100
AcDbBlockReference
  2
HEX
 10
55.065
 20
79.106
 30
0.0
  0
INSERT
  5
202
330
17
100
AcDbEntity
  8
0
100
AcDbBlockReference
  2
HEX
 10
58.596
 20
79.106
 30
0.0
  0
INSERT
  5
204
330
17
100
AcDbEntity
  8
0
100
AcDbBlockReference
  2
HEX
 10
62.127
 20
79.106
 30
0.0
  0
INSERT
  5
206
330
17
100
AcDbEntity
  8
0
100
AcDbBlockReference
  2
HEX
 10
65.658
 20
79.106
 30
0.0
  0
INSERT
  5
208
330
17
100
AcDbEntity
  8
0
100
AcDbBlockReference
  2
HEX
 10
69.189
 20
79.106
 30
0.0
  0
INSERT
  5
20A
330
17
100
AcDbEntity
  8
0
100
AcDbBlockReference
  2
HEX
 10
72.72
 20
79.106
 30
0.0
  0
INSERT
  5
20C
330
17
100
AcDbEntity
  8
0
100
AcDbBlockReference
  2
HEX
 10
76.251
 20
79.106
 30
0.0
  0
LWPOLYLINE
  5
20E
330
17
100
AcDbEntity
  8
0
100
AcDbPolyline
 90
5
 70
1
 10
78.628
 20
79.597
 10
78.267
 20
78.506
 10
78.267
 20
79.981
 10
79.001
 20
80.405
 10
78.628
 20
79.597
  0
LWPOLYLINE
  5
20F
330
17
100
AcDbEntity
  8
0
100
AcDbPolyline
 90
4
 70
1
 10
-55.915
 20
83.77
 10
-56.226
 20
83.879
 10
-56.165
 20
83.914
 10
-55.915
 20
83.77
  0
LWPOLYLINE
  5
210
330
17
100
AcDbEntity
  8
0
100
AcDbPolyline
 90
4
 70
1
 10
-53.039
 20
83.68
 10
-52.634
 20
83.914
 10
-52.227
 20
83.679
 10
-53.039
 20
83.68
  0
LWPOLYLINE
  5
211
330
17
100
AcDbEntity
  8
0
100
AcDbPolyline
 90
4
 70
1
 10
-49.513
 20
83.677
 10
-49.102
 20
83.914
 10
-48.691
 20
83.676
 10
-49.513
 20
83.677
  0
LWPOLYLINE
  5
212
330
17
100
AcDbEntity
  8
0
100
AcDbPolyline
 90
4
 70
1
 10
-45.986
 20
83.674
 10
-45.571
 20
83.914
 10
-45.155
 20
83.674
 10
-45.986
 20
83.674
  0
LWPOLYLINE
  5
213
330
17
100
AcDbEntity
  8
0
100
AcDbPolyline
 90
4
 70
1
 10
-42.46
 20
83.672
 10
-42.04
 20
83.914
 10
-41.62
 20
83.671
 10
-42.46
 20
83.672
  0
LWPOLYLINE
  5
214
330
17
100
AcDbEntity
  8
0
100
AcDbPolyline
 90
4
 70
1
 10
-38.933
 20
83.669
 10
-38.509
 20
83.914
 10
-38.084
 20
83.668
 10
-38.933
 20
83.669
  0
LWPOLYLINE
  5
215
330
17
100
AcDbEntity
  8
0
100
AcDbPolyline
 90
4
 70
1
 10
-35.407
 20
83.666
 10
-34.978
 20
83.914
 10
-34.548
 20
83.666
 10
-35.407
 20
83.666
  0
LWPOLYLINE
  5
216
330
17
100
AcDbEntity
  8
0
100
AcDbPolyline
 90
4
 70
1
 10
-31.88
 20
83.664
 10
-31.447
 20
83.914
 10
-31.013
 20
83.663
 10
-31.88
 20
83.664
  0
LWPOLYLINE
  5
217
330
17
100
AcDbEntity
  8
0
100
AcDbPolyline
 90
4
 70
1
 10
-28.354
 20
83.661
 10
-27.916
 20
83.914
 10
-27.477
 20
83.66
 10
-28.354
 20
83.661
  0
LWPOLYLINE
  5
218
330
17
100
AcDbEntity
  8
0
100
AcDbPolyline
 90
12
 70
1
 10
-19.968
 20
81.045
 10
-20.215
 20
81.228
 10
-20.426
 20
81.452
 10
-20.596
 20
81.711
 10
-20.717
 20
82.001
 10
-20.758
 20
82.156
 10
-20.96
 20
83.853
 10
-20.854
 20
83.914
 10
-19.338
 20
83.039
 10
-19.338
 20
81.289
 10
-19.862
 20
80.986
 10
-19.968
 20
81.045
  0
LWPOLYLINE
  5
219
330
17
100
AcDbEntity
  8
0
100
AcDbPolyline
 90
8
 70
1
 10
-17.99
 20
80.799
 10
-18.838
 20
81.289
 10
-18.838
 20
83.039
 10
-17.323
 20
83.914
 10
-15.807
 20
83.039
 10
-15.807
 20
81.289
 10
-16.656
 20
80.799
 10
-17.99
 20
80.799
  0
LWPOLYLINE
  5
21A
330
17
100
AcDbEntity
  8
0
100
AcDbPolyline
 90
8
 70
1
 10
-14.457
 20
80.798
 10
-15.307
 20
81.289
 10
-15.307
 20
83.039
 10
-13.792
 20
83.914
 10
-12.276
 20
83.039
 10
-12.276
 20
81.289
 10
-13.127
 20
80.798
 10
-14.457
 20
80.798
  0
LWPOLYLINE
  5
21B
330
17
100
AcDbEntity
  8
0
100
AcDbPolyline
 90
8
 70
1
 10
-10.924
 20
80.797
 10
-11.776
 20
81.289
 10
-11.776
 20
83.039
 10
-10.26
 20
83.914
 10
-8.745
 20
83.039
 10
-8.745
 20
81.289
 10
-9.598
 20
80.796
 10
-10.924
 20
80.797
  0
LWPOLYLINE
  5
21C
330
17
100
AcDbEntity
  8
0
100
AcDbPolyline
 90
8
 70
1
 10
-7.391
 20
80.796
 10
-8.245
 20
81.289
 10
-8.245
 20
83.039
 10
-6.729
 20
83.914
 10
-5.214
 20
83.039
 10
-5.214
 20
81.289
 10
-6.069
 20
80.795
 10
-7.391
 20
80.796
  0
LWPOLYLINE
  5
21D
330
17
100
AcDbEntity
  8
0
100
AcDbPolyline
 90
8
 70
1
 10
-3.858
 20
80.795
 10
-4.714
 20
81.289
 10
-4.714
 20
83.039
 10
-3.198
 20
83.914
 10
-1.683
 20
83.039
 10
-1.683
 20
81.289
 10
-2.54
 20
80.794
 10
-3.858
 20
80.795
  0
LWPOLYLINE
  5
21E
330
17
100
AcDbEntity
  8
0
100
AcDbPolyline
 90
8
 70
1
 10
-0.325
 20
80.794
 10
-1.183
 20
81.289
 10
-1.183
 20
83.039
 10
0.333
 20
83.914
 10
1.848
 20
83.039
 10
1.848
 20
81.289
 10
0.99
 20
80.793
 10
-0.325
 20
80.794
  0
LWPOLYLINE
  5
21F
330
17
100
AcDbEntity
  8
0
100
AcDbPolyline
 90
9
 70
1
 10
4.442
 20
82.688
 10
5.186
 20
81.177
 10
4.519
 20
80.792
 10
3.208
 20
80.792
 10
2.348
 20
81.289
 10
2.348
 20
83.039
 10
3.864
 20
83.914
 10
4.054
 20
83.804
 10
4.442
 20
82.688
  0
LWPOLYLINE
  5
220
330
17
100
AcDbEntity
  8
0
100
AcDbPolyline
 90
7
 70
1
 10
18.476
 20
80.788
 10
17.65
 20
83.719
 10
17.988
 20
83.914
 10
19.504
 20
83.039
 10
19.504
 20
81.289
 10
18.512
 20
80.717
 10
18.476
 20
80.788
  0
INSERT
  5
221
330
17
100
AcDbEntity
  8
0
100
AcDbBlockReference
  2
HEX
 10
21.519
 20
82.164
 30
0.0
  0
INSERT
  5
223
330
17
100
AcDbEntity
  8
0
100
AcDbBlockReference
  2
HEX
 10
25.05
 20
82.164
 30
0.0
  0
INSERT
  5
225
330
17
100
AcDbEntity
  8
0
100
AcDbBlockReference
  2
HEX
 10
28.581
 20
82.164
 30
0.0
  0
INSERT
  5
227
330
17
100
AcDbEntity
  8
0
100
AcDbBlockReference
  2
HEX
 10
32.113
 20
82.164
 30
0.0
  0
INSERT
  5
229
330
17
100
AcDbEntity
  8
0
100
AcDbBlockReference
  2
HEX
 10
35.644
 20
82.164
 30
0.0
  0
LWPOLYLINE
  5
22B
330
17
100
AcDbEntity
  8
0
100
AcDbPolyline
 90
15
 70
1
 10
38.567
 20
83.002
 10
38.645
 20
82.661
 10
38.786
 20
82.349
 10
38.983
 20
82.072
 10
39.227
 20
81.839
 10
39.512
 20
81.655
 10
39.831
 20
81.528
 10
40.175
 20
81.466
 10
40.69
 20
81.467
 10
40.69
 20
81.289
 10
39.175
 20
80.414
 10
37.659
 20
81.289
 10
37.659
 20
83.039
 10
38.556
 20
83.557
 10
38.567
 20
83.002
  0
LWPOLYLINE
  5
22C
330
17
100
AcDbEntity
  8
0
100
AcDbPolyline
 90
6
 70
1
 10
44.221
 20
81.478
 10
44.221
 20
81.289
 10
42.706
 20
80.414
 10
41.19
 20
81.289
 10
41.19
 20
81.469
 10
44.221
 20
81.478
  0
LWPOLYLINE
  5
22D
330
17
100
AcDbEntity
  8
0
100
AcDbPolyline
 90
6
 70
1
 10
47.752
 20
81.488
 10
47.752
 20
81.289
 10
46.237
 20
80.414
 10
44.721
 20
81.289
 10
44.721
 20
81.479
 10
47.752
 20
81.488
  0
LWPOLYLINE
  5
22E
330
17
100
AcDbEntity
  8
0
100
AcDbPolyline
 90
6
 70
1
 10
51.284
 20
81.498
 10
51.284
 20
81.289
 10
49.768
 20
80.414
 10
48.252
 20
81.289
 10
48.252
 20
81.489
 10
51.284
 20
81.498
  0
LWPOLYLINE
  5
22F
330
17
100
AcDbEntity
  8
0
100
AcDbPolyline
 90
10
 70
1
 10
53.678
 20
81.505
 10
54.031
 20
81.549
 10
54.359
 20
81.66
 10
54.654
 20
81.829
 10
54.815
 20
81.96
 10
54.815
 20
81.289
 10
53.299
 20
80.414
 10
51.784
 20
81.289
 10
51.784
 20
81.5
 10
53.678
 20
81.505
  0
LWPOLYLINE
  5
230
330
17
100
AcDbEntity
  8
0
100
AcDbPolyline
 90
8
 70
1
 10
55.315
 20
82.733
 10
55.388
 20
83.081
 10
56.83
 20
83.914
 10
58.346
 20
83.039
 10
58.346
 20
81.289
 10
56.83
 20
80.414
 10
55.315
 20
81.289
 10
55.315
 20
82.733
  0
INSERT
  5
231
330
17
100
AcDbEntity
  8
0
100
AcDbBlockReference
  2
HEX
 10
60.361
 20
82.164
 30
0.0
  0
INSERT
  5
233
330
17
100
AcDbEntity
  8
0
100
AcDbBlockReference
  2
HEX
 10
63.892
 20
82.164
 30
0.0
  0
INSERT
  5
235
330
17
100
AcDbEntity
  8
0
100
AcDbBlockReference
  2
HEX
 10
67.423
 20
82.164
 30
0.0
  0
INSERT
  5
237
330
17
100
AcDbEntity
  8
0
100
AcDbBlockReference
  2
HEX
 10
70.955
 20
82.164
 30
0.0
  0
INSERT
  5
239
330
17
100
AcDbEntity
  8
0
100
AcDbBlockReference
  2
HEX
 10
74.486
 20
82.164
 30
0.0
  0
LWPOLYLINE
  5
23B
330
17
100
AcDbEntity
  8
0
100
AcDbPolyline
 90
8
 70
1
 10
79.363
 20
81.191
 10
78.017
 20
80.414
 10
76.501
 20
81.289
 10
76.501
 20
83.039
 10
78.017
 20
83.914
 10
79.532
 20
83.039
 10
79.532
 20
81.558
 10
79.363
 20
81.191
  0
LWPOLYLINE
  5
23C
330
17
100
AcDbEntity
  8
0
100
AcDbPolyline
 90
5
 70
1
 10
80.136
 20
82.615
 10
80.032
 20
82.437
 10
80.032
 20
83.039
 10
80.679
 20
83.412
 10
80.136
 20
82.615
  0
LWPOLYLINE
  5
23D
330
17
100
AcDbEntity
  8
0
100
AcDbPolyline
 90
11
 70
1
 10
-56.738
 20
84.16
 10
-57.037
 20
84.397
 10
-57.273
 20
84.645
 10
-57.479
 20
84.922
 10
-57.661
 20
85.264
 10
-57.741
 20
85.48
 10
-57.84
 20
85.928
 10
-57.924
 20
86.968
 10
-56.415
 20
86.097
 10
-56.415
 20
84.347
 10
-56.738
 20
84.16
  0
LWPOLYLINE
  5
23E
330
17
100
AcDbEntity
  8
0
100
AcDbPolyline
 90
8
 70
1
 10
-54.761
 20
83.681
 10
-55.915
 20
84.347
 10
-55.915
 20
86.097
 10
-54.399
 20
86.972
 10
-52.884
 20
86.097
 10
-52.884
 20
84.347
 10
-54.038
 20
83.68
 10
-54.761
 20
83.681
  0
LWPOLYLINE
  5
23F
330
17
100
AcDbEntity
  8
0
100
AcDbPolyline
 90
8
 70
1
 10
-51.226
 20
83.678
 10
-52.384
 20
84.347
 10
-52.384
 20
86.097
 10
-50.868
 20
86.972
 10
-49.352
 20
86.097
 10
-49.352
 20
84.347
 10
-50.511
 20
83.678
 10
-51.226
 20
83.678
  0
LWPOLYLINE
  5
240
330
17
100
AcDbEntity
  8
0
100
AcDbPolyline
 90
8
 70
1
 10
-47.69
 20
83.676
 10
-48.852
 20
84.347
 10
-48.852
 20
86.097
 10
-47.337
 20
86.972
 10
-45.821
 20
86.097
 10
-45.821
 20
84.347
 10
-46.985
 20
83.675
 10
-47.69
 20
83.676
  0
LWPOLYLINE
  5
241
330
17
100
AcDbEntity
  8
0
100
AcDbPolyline
 90
8
 70
1
 10
-44.154
 20
83.673
 10
-45.321
 20
84.347
 10
-45.321
 20
86.097
 10
-43.806
 20
86.972
 10
-42.29
 20
86.097
 10
-42.29
 20
84.347
 10
-43.458
 20
83.672
 10
-44.154
 20
83.673
  0
LWPOLYLINE
  5
242
330
17
100
AcDbEntity
  8
0
100
AcDbPolyline
 90
8
 70
1
 10
-40.618
 20
83.67
 10
-41.79
 20
84.347
 10
-41.79
 20
86.097
 10
-40.275
 20
86.972
 10
-38.759
 20
86.097
 10
-38.759
 20
84.347
 10
-39.932
 20
83.67
 10
-40.618
 20
83.67
  0
LWPOLYLINE
  5
243
330
17
100
AcDbEntity
  8
0
100
AcDbPolyline
 90
8
 70
1
 10
-37.083
 20
83.668
 10
-38.259
 20
84.347
 10
-38.259
 20
86.097
 10
-36.744
 20
86.972
 10
-35.228
 20
86.097
 10
-35.228
 20
84.347
 10
-36.405
 20
83.667
 10
-37.083
 20
83.668
  0
LWPOLYLINE
  5
244
330
17
100
AcDbEntity
  8
0
100
AcDbPolyline
 90
8
 70
1
 10
-33.547
 20
83.665
 10
-34.728
 20
84.347
 10
-34.728
 20
86.097
 10
-33.213
 20
86.972
 10
-31.697
 20
86.097
 10
-31.697
 20
84.347
 10
-32.879
 20
83.665
 10
-33.547
 20
83.665
  0
LWPOLYLINE
  5
245
330
17
100
AcDbEntity
  8
0
100
AcDbPolyline
 90
8
 70
1
 10
-30.011
 20
83.662
 10
-31.197
 20
84.347
 10
-31.197
 20
86.097
 10
-29.681
 20
86.972
 10
-28.166
 20
86.097
 10
-28.166
 20
84.347
 10
-29.353
 20
83.662
 10
-30.011
 20
83.662
  0
LWPOLYLINE
  5
246
330
17
100
AcDbEntity
  8
0
100
AcDbPolyline
 90
7
 70
1
 10
-25.868
 20
83.659
 10
-26.476
 20
83.66
 10
-27.666
 20
84.347
 10
-27.666
 20
86.097
 10
-26.15
 20
86.972
 10
-25.868
 20
86.809
 10
-25.868
 20
83.659
  0
LWPOLYLINE
  5
247
330
17
100
AcDbEntity
  8
0
100
AcDbPolyline
 90
4
 70
1
 10
-21.236
 20
86.173
 10
-21.104
 20
86.097
 10
-21.104
 20
85.061
 10
-21.236
 20
86.173
  0
INSERT
  5
248
330
17
100
AcDbEntity
  8
0
100
AcDbBlockReference
  2
HEX
 10
-19.088
 20
85.222
 30
0.0
  0
INSERT
  5
24A
330
17
100
AcDbEntity
  8
0
100
AcDbBlockReference
  2
HEX
 10
-15.557
 20
85.222
 30
0.0
  0
INSERT
  5
24C
330
17
100
AcDbEntity
  8
0
100
AcDbBlockReference
  2
HEX
 10
-12.026
 20
85.222
 30
0.0
  0
INSERT
  5
24E
330
17
100
AcDbEntity
  8
0
100
AcDbBlockReference
  2
HEX
 10
-8.495
 20
85.222
 30
0.0
  0
INSERT
  5
250
330
17
100
AcDbEntity
  8
0
100
AcDbBlockReference
  2
HEX
 10
-4.964
 20
85.222
 30
0.0
  0
INSERT
  5
252
330
17
100
AcDbEntity
  8
0
100
AcDbBlockReference
  2
HEX
 10
-1.433
 20
85.222
 30
0.0
  0
LWPOLYLINE
  5
254
330
17
100
AcDbEntity
  8
0
100
AcDbPolyline
 90
8
 70
1
 10
3.614
 20
85.102
 10
3.614
 20
84.347
 10
2.098
 20
83.472
 10
0.583
 20
84.347
 10
0.583
 20
86.097
 10
2.098
 20
86.972
 10
3.382
 20
86.231
 10
3.614
 20
85.102
  0
LWPOLYLINE
  5
255
330
17
100
AcDbEntity
  8
0
100
AcDbPolyline
 90
5
 70
1
 10
16.832
 20
86.62
 10
17.738
 20
86.097
 10
17.738
 20
84.347
 10
17.51
 20
84.215
 10
16.832
 20
86.62
  0
INSERT
  5
256
330
17
100
AcDbEntity
  8
0
100
AcDbBlockReference
  2
HEX
 10
19.754
 20
85.222
 30
0.0
  0
INSERT
  5
258
330
17
100
AcDbEntity
  8
0
100
AcDbBlockReference
  2
HEX
 10
23.285
 20
85.222
 30
0.0
  0
INSERT
  5
25A
330
17
100
AcDbEntity
  8
0
100
AcDbBlockReference
  2
HEX
 10
26.816
 20
85.222
 30
0.0
  0
INSERT
  5
25C
330
17
100
AcDbEntity
  8
0
100
AcDbBlockReference
  2
HEX
 10
30.347
 20
85.222
 30
0.0
  0
INSERT
  5
25E
330
17
100
AcDbEntity
  8
0
100
AcDbBlockReference
  2
HEX
 10
33.878
 20
85.222
 30
0.0
  0
LWPOLYLINE
  5
260
330
17
100
AcDbEntity
  8
0
100
AcDbPolyline
 90
7
 70
1
 10
38.544
 20
84.127
 10
37.409
 20
83.472
 10
35.894
 20
84.347
 10
35.894
 20
86.097
 10
37.409
 20
86.972
 10
38.5
 20
86.342
 10
38.544
 20
84.127
  0
LWPOLYLINE
  5
261
330
17
100
AcDbEntity
  8
0
100
AcDbPolyline
 90
5
 70
1
 10
55.311
 20
86.829
 10
56.58
 20
86.097
 10
56.58
 20
84.347
 10
55.382
 20
83.655
 10
55.311
 20
86.829
  0
INSERT
  5
262
330
17
100
AcDbEntity
  8
0
100
AcDbBlockReference
  2
HEX
 10
58.596
 20
85.222
 30
0.0
  0
INSERT
  5
264
330
17
100
AcDbEntity
  8
0
100
AcDbBlockReference
  2
HEX
 10
62.127
 20
85.222
 30
0.0
  0
INSERT
  5
266
330
17
100
AcDbEntity
  8
0
100
AcDbBlockReference
  2
HEX
 10
65.658
 20
85.222
 30
0.0
  0
INSERT
  5
268
330
17
100
AcDbEntity
  8
0
100
AcDbBlockReference
  2
HEX
 10
69.189
 20
85.222
 30
0.0
  0
INSERT
  5
26A
330
17
100
AcDbEntity
  8
0
100
AcDbBlockReference
  2
HEX
 10
72.72
 20
85.222
 30
0.0
  0
INSERT
  5
26C
330
17
100
AcDbEntity
  8
0
100
AcDbBlockReference
  2
HEX
 10
76.251
 20
85.222
 30
0.0
  0
INSERT
  5
26E
330
17
100
AcDbEntity
  8
0
100
AcDbBlockReference
  2
HEX
 10
79.782
 20
85.222
 30
0.0
  0
LWPOLYLINE
  5
270
330
17
100
AcDbEntity
  8
0
100
AcDbPolyline
 90
7
 70
1
 10
83.914
 20
86.625
 10
83.004
 20
85.93
 10
82.188
 20
85.188
 10
81.798
 20
84.77
 10
81.798
 20
86.097
 10
83.313
 20
86.972
 10
83.914
 20
86.625
  0
LWPOLYLINE
  5
271
330
17
100
AcDbEntity
  8
0
100
AcDbPolyline
 90
6
 70
1
 10
-54.649
 20
87.471
 10
-54.649
 20
87.405
 10
-56.165
 20
86.53
 10
-57.68
 20
87.405
 10
-57.68
 20
87.471
 10
-54.649
 20
87.471
  0
LWPOLYLINE
  5
272
330
17
100
AcDbEntity
  8
0
100
AcDbPolyline
 90
6
 70
1
 10
-51.118
 20
87.471
 10
-51.118
 20
87.405
 10
-52.634
 20
86.53
 10
-54.149
 20
87.405
 10
-54.149
 20
87.471
 10
-51.118
 20
87.471
  0
LWPOLYLINE
  5
273
330
17
100
AcDbEntity
  8
0
100
AcDbPolyline
 90
6
 70
1
 10
-47.587
 20
87.471
 10
-47.587
 20
87.405
 10
-49.102
 20
86.53
 10
-50.618
 20
87.405
 10
-50.618
 20
87.471
 10
-47.587
 20
87.471
  0
LWPOLYLINE
  5
274
330
17
100
AcDbEntity
  8
0
100
AcDbPolyline
 90
6
 70
1
 10
-44.056
 20
87.471
 10
-44.056
 20
87.405
 10
-45.571
 20
86.53
 10
-47.087
 20
87.405
 10
-47.087
 20
87.471
 10
-44.056
 20
87.471
  0
LWPOLYLINE
  5
275
330
17
100
AcDbEntity
  8
0
100
AcDbPolyline
 90
6
 70
1
 10
-40.525
 20
87.471
 10
-40.525
 20
87.405
 10
-42.04
 20
86.53
 10
-43.556
 20
87.405
 10
-43.556
 20
87.471
 10
-40.525
 20
87.471
  0
LWPOLYLINE
  5
276
330
17
100
AcDbEntity
  8
0
100
AcDbPolyline
 90
6
 70
1
 10
-36.994
 20
87.471
 10
-36.994
 20
87.405
 10
-38.509
 20
86.53
 10
-40.025
 20
87.405
 10
-40.025
 20
87.471
 10
-36.994
 20
87.471
  0
LWPOLYLINE
  5
277
330
17
100
AcDbEntity
  8
0
100
AcDbPolyline
 90
6
 70
1
 10
-33.463
 20
87.471
 10
-33.463
 20
87.405
 10
-34.978
 20
86.53
 10
-36.494
 20
87.405
 10
-36.494
 20
87.471
 10
-33.463
 20
87.471
  0
LWPOLYLINE
  5
278
330
17
100
AcDbEntity
  8
0
100
AcDbPolyline
 90
6
 70
1
 10
-29.931
 20
87.471
 10
-29.931
 20
87.405
 10
-31.447
 20
86.53
 10
-32.963
 20
87.405
 10
-32.963
 20
87.471
 10
-29.931
 20
87.471
  0
LWPOLYLINE
  5
279
330
17
100
AcDbEntity
  8
0
100
AcDbPolyline
 90
6
 70
1
 10
-26.4
 20
87.471
 10
-26.4
 20
87.405
 10
-27.916
 20
86.53
 10
-29.431
 20
87.405
 10
-29.431
 20
87.471
 10
-26.4
 20
87.471
  0
LWPOLYLINE
  5
27A
330
17
100
AcDbEntity
  8
0
100
AcDbPolyline
 90
5
 70
1
 10
-25.868
 20
87.471
 10
-25.868
 20
87.386
 10
-25.9
 20
87.405
 10
-25.9
 20
87.471
 10
-25.868
 20
87.471
  0
LWPOLYLINE
  5
27B
330
17
100
AcDbEntity
  8
0
100
AcDbPolyline
 90
12
 70
1
 10
-21.292
 20
86.783
 10
-21.234
 20
87.09
 10
-21.124
 20
87.337
 10
-20.967
 20
87.555
 10
-20.873
 20
87.65
 10
-20.658
 20
87.811
 10
-20.41
 20
87.924
 10
-20.137
 20
87.985
 10
-19.338
 20
88.0
 10
-19.338
 20
87.405
 10
-20.854
 20
86.53
 10
-21.292
 20
86.783
  0
LWPOLYLINE
  5
27C
330
17
100
AcDbEntity
  8
0
100
AcDbPolyline
 90
6
 70
1
 10
-15.807
 20
88.039
 10
-15.807
 20
87.405
 10
-17.323
 20
86.53
 10
-18.838
 20
87.405
 10
-18.838
 20
88.005
 10
-15.807
 20
88.039
  0
LWPOLYLINE
  5
27D
330
17
100
AcDbEntity
  8
0
100
AcDbPolyline
 90
6
 70
1
 10
-12.276
 20
88.078
 10
-12.276
 20
87.405
 10
-13.792
 20
86.53
 10
-15.307
 20
87.405
 10
-15.307
 20
88.044
 10
-12.276
 20
88.078
  0
LWPOLYLINE
  5
27E
330
17
100
AcDbEntity
  8
0
100
AcDbPolyline
 90
6
 70
1
 10
-8.745
 20
88.117
 10
-8.745
 20
87.405
 10
-10.26
 20
86.53
 10
-11.776
 20
87.405
 10
-11.776
 20
88.083
 10
-8.745
 20
88.117
  0
LWPOLYLINE
  5
27F
330
17
100
AcDbEntity
  8
0
100
AcDbPolyline
 90
6
 70
1
 10
-5.214
 20
88.156
 10
-5.214
 20
87.405
 10
-6.729
 20
86.53
 10
-8.245
 20
87.405
 10
-8.245
 20
88.122
 10
-5.214
 20
88.156
  0
LWPOLYLINE
  5
280
330
17
100
AcDbEntity
  8
0
100
AcDbPolyline
 90
6
 70
1
 10
-1.683
 20
88.195
 10
-1.683
 20
87.405
 10
-3.198
 20
86.53
 10
-4.714
 20
87.405
 10
-4.714
 20
88.161
 10
-1.683
 20
88.195
  0
LWPOLYLINE
  5
281
330
17
100
AcDbEntity
  8
0
100
AcDbPolyline
 90
6
 70
1
 10
1.848
 20
88.234
 10
1.848
 20
87.405
 10
0.333
 20
86.53
 10
-1.183
 20
87.405
 10
-1.183
 20
88.201
 10
1.848
 20
88.234
  0
LWPOLYLINE
  5
282
330
17
100
AcDbEntity
  8
0
100
AcDbPolyline
 90
5
 70
1
 10
3.248
 20
86.885
 10
2.348
 20
87.405
 10
2.348
 20
88.24
 10
2.969
 20
88.246
 10
3.248
 20
86.885
  0
LWPOLYLINE
  5
283
330
17
100
AcDbEntity
  8
0
100
AcDbPolyline
 90
12
 70
1
 10
16.661
 20
87.296
 10
16.683
 20
87.568
 10
16.717
 20
87.684
 10
16.825
 20
87.899
 10
16.897
 20
87.996
 10
17.073
 20
88.161
 10
17.287
 20
88.282
 10
17.533
 20
88.347
 10
19.504
 20
88.358
 10
19.504
 20
87.405
 10
17.988
 20
86.53
 10
16.661
 20
87.296
  0
LWPOLYLINE
  5
284
330
17
100
AcDbEntity
  8
0
100
AcDbPolyline
 90
6
 70
1
 10
23.035
 20
88.378
 10
23.035
 20
87.405
 10
21.519
 20
86.53
 10
20.004
 20
87.405
 10
20.004
 20
88.361
 10
23.035
 20
88.378
  0
LWPOLYLINE
  5
285
330
17
100
AcDbEntity
  8
0
100
AcDbPolyline
 90
6
 70
1
 10
26.566
 20
88.398
 10
26.566
 20
87.405
 10
25.05
 20
86.53
 10
23.535
 20
87.405
 10
23.535
 20
88.381
 10
26.566
 20
88.398
  0
LWPOLYLINE
  5
286
330
17
100
AcDbEntity
  8
0
100
AcDbPolyline
 90
6
 70
1
 10
30.097
 20
88.417
 10
30.097
 20
87.405
 10
28.581
 20
86.53
 10
27.066
 20
87.405
 10
27.066
 20
88.4
 10
30.097
 20
88.417
  0
LWPOLYLINE
  5
287
330
17
100
AcDbEntity
  8
0
100
AcDbPolyline
 90
6
 70
1
 10
33.628
 20
88.437
 10
33.628
 20
87.405
 10
32.113
 20
86.53
 10
30.597
 20
87.405
 10
30.597
 20
88.42
 10
33.628
 20
88.437
  0
LWPOLYLINE
  5
288
330
17
100
AcDbEntity
  8
0
100
AcDbPolyline
 90
6
 70
1
 10
37.159
 20
88.457
 10
37.159
 20
87.405
 10
35.644
 20
86.53
 10
34.128
 20
87.405
 10
34.128
 20
88.44
 10
37.159
 20
88.457
  0
LWPOLYLINE
  5
289
330
17
100
AcDbEntity
  8
0
100
AcDbPolyline
 90
5
 70
1
 10
38.457
 20
88.464
 10
38.488
 20
86.926
 10
37.659
 20
87.405
 10
37.659
 20
88.46
 10
38.457
 20
88.464
  0
LWPOLYLINE
  5
28A
330
17
100
AcDbEntity
  8
0
100
AcDbPolyline
 90
6
 70
1
 10
58.346
 20
88.653
 10
58.346
 20
87.405
 10
56.83
 20
86.53
 10
55.315
 20
87.405
 10
55.315
 20
88.643
 10
58.346
 20
88.653
  0
LWPOLYLINE
  5
28B
330
17
100
AcDbEntity
  8
0
100
AcDbPolyline
 90
6
 70
1
 10
61.877
 20
88.664
 10
61.877
 20
87.405
 10
60.361
 20
86.53
 10
58.846
 20
87.405
 10
58.846
 20
88.654
 10
61.877
 20
88.664
  0
LWPOLYLINE
  5
28C
330
17
100
AcDbEntity
  8
0
100
AcDbPolyline
 90
6
 70
1
 10
65.408
 20
88.676
 10
65.408
 20
87.405
 10
63.892
 20
86.53
 10
62.377
 20
87.405
 10
62.377
 20
88.666
 10
65.408
 20
88.676
  0
LWPOLYLINE
  5
28D
330
17
100
AcDbEntity
  8
0
100
AcDbPolyline
 90
6
 70
1
 10
68.939
 20
88.688
 10
68.939
 20
87.405
 10
67.423
 20
86.53
 10
65.908
 20
87.405
 10
65.908
 20
88.678
 10
68.939
 20
88.688
  0
LWPOLYLINE
  5
28E
330
17
100
AcDbEntity
  8
0
100
AcDbPolyline
 90
6
 70
1
 10
72.47
 20
88.699
 10
72.47
 20
87.405
 10
70.955
 20
86.53
 10
69.439
 20
87.405
 10
69.439
 20
88.689
 10
72.47
 20
88.699
  0
LWPOLYLINE
  5
28F
330
17
100
AcDbEntity
  8
0
100
AcDbPolyline
 90
6
 70
1
 10
76.001
 20
88.711
 10
76.001
 20
87.405
 10
74.486
 20
86.53
 10
72.97
 20
87.405
 10
72.97
 20
88.701
 10
76.001
 20
88.711
  0
LWPOLYLINE
  5
290
330
17
100
AcDbEntity
  8
0
100
AcDbPolyline
 90
6
 70
1
 10
79.532
 20
88.722
 10
79.532
 20
87.405
 10
78.017
 20
86.53
 10
76.501
 20
87.405
 10
76.501
 20
88.712
 10
79.532
 20
88.722
  0
LWPOLYLINE
  5
291
330
17
100
AcDbEntity
  8
0
100
AcDbPolyline
 90
6
 70
1
 10
83.063
 20
88.734
 10
83.063
 20
87.405
 10
81.548
 20
86.53
 10
80.032
 20
87.405
 10
80.032
 20
88.724
 10
83.063
 20
88.734
  0
LWPOLYLINE
  5
292
330
17
100
AcDbEntity
  8
0
100
AcDbPolyline
 90
14
 70
1
 10
85.701
 20
88.743
 10
85.84
 20
88.712
 10
85.99
 20
88.624
 10
86.097
 20
88.496
 10
86.159
 20
88.341
 10
86.171
 20
88.175
 10
86.13
 20
88.013
 10
86.033
 20
87.87
 10
85.921
 20
87.783
 10
84.845
 20
87.22
 10
84.389
 20
86.928
 10
83.563
 20
87.405
 10
83.563
 20
88.736
 10
85.701
 20
88.743
  0
ENDSEC
  0
SECTION
  2
OBJECTS
  0
DICTIONARY
  5
A
330
0
100
AcDbDictionary
281
1
  3
ACAD_COLOR
350
B
  3
ACAD_GROUP
350
C
  3
ACAD_LAYOUT
350
D
  3
ACAD_MATERIAL
350
E
  3
ACAD_MLEADERSTYLE
350
F
  3
ACAD_MLINESTYLE
350
10
  3
ACAD_PLOTSETTINGS
350
11
  3
ACAD_PLOTSTYLENAME
350
12
  3
ACAD_SCALELIST
350
14
  3
ACAD_TABLESTYLE
350
15
  3
ACAD_VISUALSTYLE
350
16
  3
EZDXF_META
350
2D
  0
DICTIONARY
  5
B
330
A
100
AcDbDictionary
281
1
  0
DICTIONARY
  5
C
330
A
100
AcDbDictionary
281
1
  0
DICTIONARY
  5
D
330
A
100
AcDbDictionary
281
1
  3
Model
350
1A
  3
Layout1
350
1E
  0
DICTIONARY
  5
E
330
A
100
AcDbDictionary
281
1
  3
ByBlock
350
1F
  3
ByLayer
350
20
  3
Global
350
21
  0
DICTIONARY
  5
F
330
A
100
AcDbDictionary
281
1
  3
Standard
350
2C
  0
DICTIONARY
  5
10
330
A
100
AcDbDictionary
281
1
  3
Standard
350
22
  0
DICTIONARY
  5
11
330
A
100
AcDbDictionary
281
1
  0
ACDBDICTIONARYWDFLT
  5
12
330
A
100
AcDbDictionary
281
1
  3
Normal
350
13
100
AcDbDictionaryWithDefault
340
13
  0
ACDBPLACEHOLDER
  5
13
330
12
  0
DICTIONARY
  5
14
330
A
100
AcDbDictionary
281
1
  0
DICTIONARY
  5
15
330
A
100
AcDbDictionary
281
1
  0
DICTIONARY
  5
16
330
A
100
AcDbDictionary
281
1
  0
LAYOUT
  5
1A
330
D
100
AcDbPlotSettings
  1

  4
A3
  6

 40
7.5
 41
20.0
 42
7.5
 43
20.0
 44
420.0
 45
297.0
 46
0.0
 47
0.0
 48
0.0
 49
0.0
140
0.0
141
0.0
142
1.0
143
1.0
 70
1024
 72
1
 73
0
 74
5
  7

 75
16
 76
0
 77
2
 78
300
147
1.0
148
0.0
149
0.0
100
AcDbLayout
  1
Model
 70
1
 71
0
 10
0.0
 20
0.0
 11
420.0
 21
297.0
 12
0.0
 22
0.0
 32
0.0
 14
1e+20
 24
1e+20
 34
1e+20
 15
-1e+20
 25
-1e+20
 35
-1e+20
146
0.0
 13
0.0
 23
0.0
 33
0.0
 16
1.0
 26
0.0
 36
0.0
 17
0.0
 27
1.0
 37
0.0
 76
1
330
17
  0
LAYOUT
  5
1E
330
D
100
AcDbPlotSettings
  1

  4
A3
  6

 40
7.5
 41
20.0
 42
7.5
 43
20.0
 44
420.0
 45
297.0
 46
0.0
 47
0.0
 48
0.0
 49
0.0
140
0.0
141
0.0
142
1.0
143
1.0
 70
0
 72
1
 73
0
 74
5
  7

 75
16
 76
0
 77
2
 78
300
147
1.0
148
0.0
149
0.0
100
AcDbLayout
  1
Layout1
 70
1
 71
1
 10
0.0
 20
0.0
 11
420.0
 21
297.0
 12
0.0
 22
0.0
 32
0.0
 14
1e+20
 24
1e+20
 34
1e+20
 15
-1e+20
 25
-1e+20
 35
-1e+20
146
0.0
 13
0.0
 23
0.0
 33
0.0
 16
1.0
 26
0.0
 36
0.0
 17
0.0
 27
1.0
 37
0.0
 76
1
330
1B
  0
MATERIAL
  5
1F
102
{ACAD_REACTORS
330
E
102
}
330
E
100
AcDbMaterial
  1
ByBlock
  2

 70
0
 40
1.0
 71
1
 41
1.0
 91
-1023410177
 42
1.0
 72
1
  3

 73
1
 74
1
 75
1
 44
0.5
 73
0
 45
1.0
 46
1.0
 77
1
  4

 78
1
 79
1
170
1
 48
1.0
171
1
  6

172
1
173
1
174
1
140
1.0
141
1.0
175
1
  7

176
1
177
1
178
1
143
1.0
179
1
  8

270
1
271
1
272
1
145
1.0
146
1.0
273
1
  9

274
1
275
1
276
1
 42
1.0
 72
1
  3

 73
1
 74
1
 75
1
 94
63
  0
MATERIAL
  5
20
102
{ACAD_REACTORS
330
E
102
}
330
E
100
AcDbMaterial
  1
ByLayer
  2

 70
0
 40
1.0
 71
1
 41
1.0
 91
-1023410177
 42
1.0
 72
1
  3

 73
1
 74
1
 75
1
 44
0.5
 73
0
 45
1.0
 46
1.0
 77
1
  4

 78
1
 79
1
170
1
 48
1.0
171
1
  6

172
1
173
1
174
1
140
1.0
141
1.0
175
1
  7

176
1
177
1
178
1
143
1.0
179
1
  8

270
1
271
1
272
1
145
1.0
146
1.0
273
1
  9

274
1
275
1
276
1
 42
1.0
 72
1
  3

 73
1
 74
1
 75
1
 94
63
  0
MATERIAL
  5
21
102
{ACAD_REACTORS
330
E
102
}
330
E
100
AcDbMaterial
  1
Global
  2

 70
0
 40
1.0
 71
1
 41
1.0
 91
-1023410177
 42
1.0
 72
1
  3

 73
1
 74
1
 75
1
 44
0.5
 73
0
 45
1.0
 46
1.0
 77
1
  4

 78
1
 79
1
170
1
 48
1.0
171
1
  6

172
1
173
1
174
1
140
1.0
141
1.0
175
1
  7

176
1
177
1
178
1
143
1.0
179
1
  8

270
1
271
1
272
1
145
1.0
146
1.0
273
1
  9

274
1
275
1
276
1
 42
1.0
 72
1
  3

 73
1
 74
1
 75
1
 94
63
  0
MLINESTYLE
  5
22
102
{ACAD_REACTORS
330
10
102
}
330
10
100
AcDbMlineStyle
  2
Standard
 70
0
  3

 62
256
 51
90.0
 52
90.0
 71
2
 49
0.5
 62
256
  6
BYLAYER
 49
-0.5
 62
256
  6
BYLAYER
  0
MLEADERSTYLE
  5
2C
102
{ACAD_REACTORS
330
F
102
}
330
F
100
AcDbMLeaderStyle
179
2
170
2
171
1
172
0
 90
2
 40
0.0
 41
0.0
173
1
 91
-1056964608
 92
-2
290
1
 42
2.0
291
1
 43
8.0
  3
Standard
 44
4.0
300

342
29
174
1
175
1
176
0
178
1
 93
-1056964608
 45
4.0
292
0
297
0
 46
4.0
 94
-1056964608
 47
1.0
 49
1.0
140
1.0
294
1
141
0.0
177
0
142
1.0
295
0
296
0
143
3.75
271
0
272
9
273
9
  0
DICTIONARY
  5
2D
330
A
100
AcDbDictionary
280
1
281
1
  3
CREATED_BY_EZDXF
350
2E
  3
WRITTEN_BY_EZDXF
350
295
  0
DICTIONARYVAR
  5
2E
330
2D
100
DictionaryVariables
280
0
  1
1.4.3 @ 2026-04-09T21:37:17.022841+00:00
  0
DICTIONARYVAR
  5
295
330
2D
100
DictionaryVariables
280
0
  1
1.4.3 @ 2026-04-09T21:37:17.046283+00:00
  0
ENDSEC
  0
EOF
