  0
SECTION
  2
HEADER
  9
$ACADVER
  1
AC1024
  9
$ACADMAINTVER
 70
6
  9
$DWGCODEPAGE
  3
ANSI_1252
  9
$LASTSAVEDBY
  1
ezdxf
  9
$INSBASE
 10
0.0
 20
0.0
 30
0.0
  9
$EXTMIN
 10
1e+20
 20
1e+20
 30
1e+20
  9
$EXTMAX
 10
-1e+20
 20
-1e+20
 30
-1e+20
  9
$LIMMIN
 10
0.0
 20
0.0
  9
$LIMMAX
 10
420.0
 20
297.0
  9
$ORTHOMODE
 70
0
  9
$REGENMODE
 70
1
  9
$FILLMODE
 70
1
  9
$QTEXTMODE
 70
0
  9
$MIRRTEXT
 70
1
  9
$LTSCALE
 40
1.0
  9
$ATTMODE
 70
1
  9
$TEXTSIZE
 40
2.5
  9
$TRACEWID
 40
1.0
  9
$TEXTSTYLE
  7
Standard
  9
$CLAYER
  8
0
  9
$CELTYPE
  6
ByLayer
  9
$CECOLOR
 62
256
  9
$CELTSCALE
 40
1.0
  9
$DISPSILH
 70
0
  9
$DIMSCALE
 40
1.0
  9
$DIMASZ
 40
2.5
  9
$DIMEXO
 40
0.625
  9
$DIMDLI
 40
3.75
  9
$DIMRND
 40
0.0
  9
$DIMDLE
 40
0.0
  9
$DIMEXE
 40
1.25
  9
$DIMTP
 40
0.0
  9
$DIMTM
 40
0.0
  9
$DIMTXT
 40
2.5
  9
$DIMCEN
 40
2.5
  9
$DIMTSZ
 40
0.0
  9
$DIMTOL
 70
0
  9
$DIMLIM
 70
0
  9
$DIMTIH
 70
0
  9
$DIMTOH
 70
0
  9
$DIMSE1
 70
0
  9
$DIMSE2
 70
0
  9
$DIMTAD
 70
1
  9
$DIMZIN
 70
8
  9
$DIMBLK
  1

  9
$DIMASO
 70
1
  9
$DIMSHO
 70
1
  9
$DIMPOST
  1

  9
$DIMAPOST
  1

  9
$DIMALT
 70
0
  9
$DIMALTD
 70
3
  9
$DIMALTF
 40
0.03937007874
  9
$DIMLFAC
 40
1.0
  9
$DIMTOFL
 70
1
  9
$DIMTVP
 40
0.0
  9
$DIMTIX
 70
0
  9
$DIMSOXD
 70
0
  9
$DIMSAH
 70
0
  9
$DIMBLK1
  1

  9
$DIMBLK2
  1

  9
$DIMSTYLE
  2
ISO-25
  9
$DIMCLRD
 70
0
  9
$DIMCLRE
 70
0
  9
$DIMCLRT
 70
0
  9
$DIMTFAC
 40
1.0
  9
$DIMGAP
 40
0.625
  9
$DIMJUST
 70
0
  9
$DIMSD1
 70
0
  9
$DIMSD2
 70
0
  9
$DIMTOLJ
 70
0
  9
$DIMTZIN
 70
8
  9
$DIMALTZ
 70
0
  9
$DIMALTTZ
 70
0
  9
$DIMUPT
 70
0
  9
$DIMDEC
 70
2
  9
$DIMTDEC
 70
2
  9
$DIMALTU
 70
2
  9
$DIMALTTD
 70
3
  9
$DIMTXSTY
  7
Standard
  9
$DIMAUNIT
 70
0
  9
$DIMADEC
 70
0
  9
$DIMALTRND
 40
0.0
  9
$DIMAZIN
 70
0
  9
$DIMDSEP
 70
44
  9
$DIMATFIT
 70
3
  9
$DIMFRAC
 70
0
  9
$DIMLDRBLK
  1

  9
$DIMLUNIT
 70
2
  9
$DIMLWD
 70
-2
  9
$DIMLWE
 70
-2
  9
$DIMTMOVE
 70
0
  9
$DIMFXL
 40
1.0
  9
$DIMFXLON
 70
0
  9
$DIMJOGANG
 40
0.785398163397
  9
$DIMTFILL
 70
0
  9
$DIMTFILLCLR
 70
0
  9
$DIMARCSYM
 70
0
  9
$DIMLTYPE
  6

  9
$DIMLTEX1
  6

  9
$DIMLTEX2
  6

  9
$DIMTXTDIRECTION
 70
0
  9
$LUNITS
 70
2
  9
$LUPREC
 70
4
  9
$SKETCHINC
 40
1.0
  9
$FILLETRAD
 40
10.0
  9
$AUNITS
 70
0
  9
$AUPREC
 70
2
  9
$MENU
  1
.
  9
$ELEVATION
 40
0.0
  9
$PELEVATION
 40
0.0
  9
$THICKNESS
 40
0.0
  9
$LIMCHECK
 70
0
  9
$CHAMFERA
 40
0.0
  9
$CHAMFERB
 40
0.0
  9
$CHAMFERC
 40
0.0
  9
$CHAMFERD
 40
0.0
  9
$SKPOLY
 70
0
  9
$TDCREATE
 40
2461142.7371412036
  9
$TDUCREATE
 40
2458532.153996898
  9
$TDUPDATE
 40
2461142.7371412036
  9
$TDUUPDATE
 40
2458532.1544311
  9
$TDINDWG
 40
0.0
  9
$TDUSRTIMER
 40
0.0
  9
$USRTIMER
 70
1
  9
$ANGBASE
 50
0.0
  9
$ANGDIR
 70
0
  9
$PDMODE
 70
0
  9
$PDSIZE
 40
0.0
  9
$PLINEWID
 40
0.0
  9
$SPLFRAME
 70
0
  9
$SPLINETYPE
 70
6
  9
$SPLINESEGS
 70
8
  9
$HANDSEED
  5
11F
  9
$SURFTAB1
 70
6
  9
$SURFTAB2
 70
6
  9
$SURFTYPE
 70
6
  9
$SURFU
 70
6
  9
$SURFV
 70
6
  9
$UCSBASE
  2

  9
$UCSNAME
  2

  9
$UCSORG
 10
0.0
 20
0.0
 30
0.0
  9
$UCSXDIR
 10
1.0
 20
0.0
 30
0.0
  9
$UCSYDIR
 10
0.0
 20
1.0
 30
0.0
  9
$UCSORTHOREF
  2

  9
$UCSORTHOVIEW
 70
0
  9
$UCSORGTOP
 10
0.0
 20
0.0
 30
0.0
  9
$UCSORGBOTTOM
 10
0.0
 20
0.0
 30
0.0
  9
$UCSORGLEFT
 10
0.0
 20
0.0
 30
0.0
  9
$UCSORGRIGHT
 10
0.0
 20
0.0
 30
0.0
  9
$UCSORGFRONT
 10
0.0
 20
0.0
 30
0.0
  9
$UCSORGBACK
 10
0.0
 20
0.0
 30
0.0
  9
$PUCSBASE
  2

  9
$PUCSNAME
  2

  9
$PUCSORG
 10
0.0
 20
0.0
 30
0.0
  9
$PUCSXDIR
 10
1.0
 20
0.0
 30
0.0
  9
$PUCSYDIR
 10
0.0
 20
1.0
 30
0.0
  9
$PUCSORTHOREF
  2

  9
$PUCSORTHOVIEW
 70
0
  9
$PUCSORGTOP
 10
0.0
 20
0.0
 30
0.0
  9
$PUCSORGBOTTOM
 10
0.0
 20
0.0
 30
0.0
  9
$PUCSORGLEFT
 10
0.0
 20
0.0
 30
0.0
  9
$PUCSORGRIGHT
 10
0.0
 20
0.0
 30
0.0
  9
$PUCSORGFRONT
 10
0.0
 20
0.0
 30
0.0
  9
$PUCSORGBACK
 10
0.0
 20
0.0
 30
0.0
  9
$USERI1
 70
0
  9
$USERI2
 70
0
  9
$USERI3
 70
0
  9
$USERI4
 70
0
  9
$USERI5
 70
0
  9
$USERR1
 40
0.0
  9
$USERR2
 40
0.0
  9
$USERR3
 40
0.0
  9
$USERR4
 40
0.0
  9
$USERR5
 40
0.0
  9
$WORLDVIEW
 70
1
  9
$SHADEDGE
 70
3
  9
$SHADEDIF
 70
70
  9
$TILEMODE
 70
1
  9
$MAXACTVP
 70
64
  9
$PINSBASE
 10
0.0
 20
0.0
 30
0.0
  9
$PLIMCHECK
 70
0
  9
$PEXTMIN
 10
1e+20
 20
1e+20
 30
1e+20
  9
$PEXTMAX
 10
-1e+20
 20
-1e+20
 30
-1e+20
  9
$PLIMMIN
 10
0.0
 20
0.0
  9
$PLIMMAX
 10
420.0
 20
297.0
  9
$UNITMODE
 70
0
  9
$VISRETAIN
 70
1
  9
$PLINEGEN
 70
0
  9
$PSLTSCALE
 70
1
  9
$TREEDEPTH
 70
3020
  9
$CMLSTYLE
  2
Standard
  9
$CMLJUST
 70
0
  9
$CMLSCALE
 40
20.0
  9
$PROXYGRAPHICS
 70
1
  9
$MEASUREMENT
 70
1
  9
$CELWEIGHT
370
-1
  9
$ENDCAPS
280
0
  9
$JOINSTYLE
280
0
  9
$LWDISPLAY
290
0
  9
$INSUNITS
 70
4
  9
$HYPERLINKBASE
  1

  9
$STYLESHEET
  1

  9
$XEDIT
290
1
  9
$CEPSNTYPE
380
0
  9
$PSTYLEMODE
290
1
  9
$FINGERPRINTGUID
  2
{A1BD42C3-36EC-4D6C-9FB5-BB6FB9F86058}
  9
$VERSIONGUID
  2
{C9A96C6B-8C75-4556-A20D-36A1DE3981AE}
  9
$EXTNAMES
290
1
  9
$PSVPSCALE
 40
0.0
  9
$OLESTARTUP
290
0
  9
$SORTENTS
280
127
  9
$INDEXCTL
280
0
  9
$HIDETEXT
280
1
  9
$XCLIPFRAME
280
1
  9
$HALOGAP
280
0
  9
$OBSCOLOR
 70
257
  9
$OBSLTYPE
280
0
  9
$INTERSECTIONDISPLAY
280
0
  9
$INTERSECTIONCOLOR
 70
257
  9
$DIMASSOC
280
2
  9
$PROJECTNAME
  1

  9
$CAMERADISPLAY
290
0
  9
$LENSLENGTH
 40
50.0
  9
$CAMERAHEIGHT
 40
0.0
  9
$STEPSPERSEC
 40
24.0
  9
$STEPSIZE
 40
100.0
  9
$3DDWFPREC
 40
2.0
  9
$PSOLWIDTH
 40
0.005
  9
$PSOLHEIGHT
 40
0.08
  9
$LOFTANG1
 40
1.570796326795
  9
$LOFTANG2
 40
1.570796326795
  9
$LOFTMAG1
 40
0.0
  9
$LOFTMAG2
 40
0.0
  9
$LOFTPARAM
 70
7
  9
$LOFTNORMALS
280
1
  9
$LATITUDE
 40
37.795
  9
$LONGITUDE
 40
-122.394
  9
$NORTHDIRECTION
 40
0.0
  9
$TIMEZONE
 70
-8000
  9
$LIGHTGLYPHDISPLAY
280
1
  9
$TILEMODELIGHTSYNCH
280
1
  9
$CMATERIAL
347
20
  9
$SOLIDHIST
280
0
  9
$SHOWHIST
280
1
  9
$DWFFRAME
280
2
  9
$DGNFRAME
280
2
  9
$REALWORLDSCALE
290
1
  9
$INTERFERECOLOR
 62
256
  9
$CSHADOW
280
0
  9
$SHADOWPLANELOCATION
 40
0.0
  0
ENDSEC
  0
SECTION
  2
CLASSES
  0
CLASS
  1
ACDBDICTIONARYWDFLT
  2
AcDbDictionaryWithDefault
  3
ObjectDBX Classes
 90
0
 91
0
280
0
281
0
  0
CLASS
  1
SUN
  2
AcDbSun
  3
SCENEOE
 90
1153
 91
0
280
0
281
0
  0
CLASS
  1
VISUALSTYLE
  2
AcDbVisualStyle
  3
ObjectDBX Classes
 90
4095
 91
0
280
0
281
0
  0
CLASS
  1
MATERIAL
  2
AcDbMaterial
  3
ObjectDBX Classes
 90
1153
 91
0
280
0
281
0
  0
CLASS
  1
SCALE
  2
AcDbScale
  3
ObjectDBX Classes
 90
1153
 91
0
280
0
281
0
  0
CLASS
  1
TABLESTYLE
  2
AcDbTableStyle
  3
ObjectDBX Classes
 90
4095
 91
0
280
0
281
0
  0
CLASS
  1
MLEADERSTYLE
  2
AcDbMLeaderStyle
  3
ACDB_MLEADERSTYLE_CLASS
 90
4095
 91
0
280
0
281
0
  0
CLASS
  1
DICTIONARYVAR
  2
AcDbDictionaryVar
  3
ObjectDBX Classes
 90
0
 91
0
280
0
281
0
  0
CLASS
  1
CELLSTYLEMAP
  2
AcDbCellStyleMap
  3
ObjectDBX Classes
 90
1152
 91
0
280
0
281
0
  0
CLASS
  1
MENTALRAYRENDERSETTINGS
  2
AcDbMentalRayRenderSettings
  3
SCENEOE
 90
1024
 91
0
280
0
281
0
  0
CLASS
  1
ACDBDETAILVIEWSTYLE
  2
AcDbDetailViewStyle
  3
ObjectDBX Classes
 90
1025
 91
0
280
0
281
0
  0
CLASS
  1
ACDBSECTIONVIEWSTYLE
  2
AcDbSectionViewStyle
  3
ObjectDBX Classes
 90
1025
 91
0
280
0
281
0
  0
CLASS
  1
RASTERVARIABLES
  2
AcDbRasterVariables
  3
ISM
 90
0
 91
0
280
0
281
0
  0
CLASS
  1
ACDBPLACEHOLDER
  2
AcDbPlaceHolder
  3
ObjectDBX Classes
 90
0
 91
0
280
0
281
0
  0
CLASS
  1
LAYOUT
  2
AcDbLayout
  3
ObjectDBX Classes
 90
0
 91
0
280
0
281
0
  0
ENDSEC
  0
SECTION
  2
TABLES
  0
TABLE
  2
VPORT
  5
8
330
0
100
AcDbSymbolTable
 70
1
  0
VPORT
  5
23
330
8
100
AcDbSymbolTableRecord
100
AcDbViewportTableRecord
  2
*Active
 70
0
 10
0.0
 20
0.0
 11
1.0
 21
1.0
 12
0.0
 22
0.0
 13
0.0
 23
0.0
 14
0.5
 24
0.5
 15
0.5
 25
0.5
 16
0.0
 26
0.0
 36
1.0
 17
0.0
 27
0.0
 37
0.0
 40
1000.0
 41
1.34
 42
50.0
 43
0.0
 44
0.0
 50
0.0
 51
0.0
 71
0
 72
1000
 73
1
 74
3
 75
0
 76
0
 77
0
 78
0
281
0
 65
0
146
0.0
  0
ENDTAB
  0
TABLE
  2
LTYPE
  5
2
330
0
100
AcDbSymbolTable
 70
3
  0
LTYPE
  5
24
330
2
100
AcDbSymbolTableRecord
100
AcDbLinetypeTableRecord
  2
ByBlock
 70
0
  3

 72
65
 73
0
 40
0.0
  0
LTYPE
  5
25
330
2
100
AcDbSymbolTableRecord
100
AcDbLinetypeTableRecord
  2
ByLayer
 70
0
  3

 72
65
 73
0
 40
0.0
  0
LTYPE
  5
26
330
2
100
AcDbSymbolTableRecord
100
AcDbLinetypeTableRecord
  2
Continuous
 70
0
  3

 72
65
 73
0
 40
0.0
  0
ENDTAB
  0
TABLE
  2
LAYER
  5
1
330
0
100
AcDbSymbolTable
 70
2
  0
LAYER
  5
27
330
1
100
AcDbSymbolTableRecord
100
AcDbLayerTableRecord
  2
0
 70
0
 62
7
  6
Continuous
370
-3
390
13
347
21
  0
LAYER
  5
28
330
1
100
AcDbSymbolTableRecord
100
AcDbLayerTableRecord
  2
Defpoints
 70
0
 62
7
  6
Continuous
290
0
370
-3
390
13
347
21
  0
ENDTAB
  0
TABLE
  2
STYLE
  5
5
330
0
100
AcDbSymbolTable
 70
1
  0
STYLE
  5
29
330
5
100
AcDbSymbolTableRecord
100
AcDbTextStyleTableRecord
  2
Standard
 70
0
 40
0.0
 41
1.0
 50
0.0
 71
0
 42
2.5
  3
txt
  4

  0
ENDTAB
  0
TABLE
  2
VIEW
  5
7
330
0
100
AcDbSymbolTable
 70
0
  0
ENDTAB
  0
TABLE
  2
UCS
  5
6
330
0
100
AcDbSymbolTable
 70
0
  0
ENDTAB
  0
TABLE
  2
APPID
  5
3
330
0
100
AcDbSymbolTable
 70
3
  0
APPID
  5
2A
330
3
100
AcDbSymbolTableRecord
100
AcDbRegAppTableRecord
  2
ACAD
 70
0
  0
APPID
  5
11C
330
3
100
AcDbSymbolTableRecord
100
AcDbRegAppTableRecord
  2
HATCHBACKGROUNDCOLOR
 70
0
  0
APPID
  5
11D
330
3
100
AcDbSymbolTableRecord
100
AcDbRegAppTableRecord
  2
EZDXF
 70
0
  0
ENDTAB
  0
TABLE
  2
DIMSTYLE
  5
4
330
0
100
AcDbSymbolTable
 70
1
100
AcDbDimStyleTable
  0
DIMSTYLE
105
2B
330
4
100
AcDbSymbolTableRecord
100
AcDbDimStyleTableRecord
  2
Standard
 70
0
 40
1.0
 41
2.5
 42
0.625
 43
3.75
 44
1.25
 45
0.0
 46
0.0
 47
0.0
 48
0.0
 49
2.5
140
2.5
141
2.5
142
0.0
143
0.03937007874
144
1.0
145
0.0
146
1.0
147
0.625
148
0.0
 69
0
 70
0
 71
0
 72
0
 73
0
 74
0
 75
0
 76
0
 77
1
 78
8
 79
3
170
0
171
3
172
1
173
0
174
0
175
0
176
0
177
0
178
0
179
2
271
2
272
2
273
2
274
3
275
0
276
0
277
2
278
44
279
0
280
0
281
0
282
0
283
0
284
8
285
0
286
0
288
0
289
3
290
0
371
-2
372
-2
  0
ENDTAB
  0
TABLE
  2
BLOCK_RECORD
  5
9
330
0
100
AcDbSymbolTable
 70
2
  0
BLOCK_RECORD
  5
17
330
9
100
AcDbSymbolTableRecord
100
AcDbBlockTableRecord
  2
*Model_Space
340
1A
 70
0
280
1
281
0
  0
BLOCK_RECORD
  5
1B
330
9
100
AcDbSymbolTableRecord
100
AcDbBlockTableRecord
  2
*Paper_Space
340
1E
 70
0
280
1
281
0
  0
ENDTAB
  0
ENDSEC
  0
SECTION
  2
BLOCKS
  0
BLOCK
  5
18
330
17
100
AcDbEntity
  8
0
100
AcDbBlockBegin
  2
*Model_Space
 70
0
 10
0.0
 20
0.0
 30
0.0
  3
*Model_Space
  1

  0
ENDBLK
  5
19
330
17
100
AcDbEntity
  8
0
100
AcDbBlockEnd
  0
BLOCK
  5
1C
330
1B
100
AcDbEntity
  8
0
100
AcDbBlockBegin
  2
*Paper_Space
 70
0
 10
0.0
 20
0.0
 30
0.0
  3
*Paper_Space
  1

  0
ENDBLK
  5
1D
330
1B
100
AcDbEntity
  8
0
100
AcDbBlockEnd
  0
ENDSEC
  0
SECTION
  2
ENTITIES
  0
LWPOLYLINE
  5
2F
330
17
100
AcDbEntity
  8
0
100
AcDbPolyline
 90
37
 70
1
 10
-12.616709082
 20
10.072785798000002
 10
-11.607657995204
 20
9.527902545884002
 10
-10.94168430404
 20
8.983019293768002
 10
-10.376615697832001
 20
8.034518778022003
 10
-9.569204012176
 20
4.633762889428001
 10
-10.43130208122
 20
2.1283102518800017
 10
-11.913033187602
 20
-0.7543074657279982
 10
-13.529467089348
 20
-3.448342762431998
 10
-14.903435959642
 20
-6.0884973675579985
 10
-15.657771792343999
 20
-8.216785163805998
 10
-16.33128594798
 20
-10.075669501909998
 10
-16.461498675108
 20
-10.541732704147998
 10
-15.972224829426
 20
-10.894007092815997
 10
-14.749040215094
 20
-11.167998290577998
 10
-12.81151581456
 20
-11.412633277049999
 10
-7.063438687166
 20
-12.046707668283998
 10
-7.06070558646
 20
-11.470320798199998
 10
-7.007214900452
 20
-10.534241175061998
 10
-6.646152763548001
 20
-9.464435908529998
 10
-2.2605022138100006
 20
1.1272656192260022
 10
-4.306163170740001
 20
1.7767840506920023
 10
-3.533086058782001
 20
4.081680886660002
 10
-1.314068388368001
 20
3.4088228259780022
 10
-0.1843215894460009
 20
5.635436351660003
 10
0.5249180847819992
 20
6.749947009096003
 10
1.3861376935559993
 20
7.374748407700002
 10
2.2642439683279996
 20
7.543613656456003
 10
3.1761235156599996
 20
7.560500181230003
 10
5.595123743689999
 20
7.575293513848003
 10
6.630578466782
 20
10.288547016972002
 10
-0.9119121294360006
 20
10.297049929608002
 10
-2.137469265820001
 20
7.086766405560003
 10
-8.129120556814001
 20
7.093360501338003
 10
-8.612228670352001
 20
7.344977307730003
 10
-8.843717971152001
 20
7.838146258652003
 10
-7.914531482310002
 20
10.274594122094003
 10
-13.524855462808002
 20
10.294774982672005
  0
LWPOLYLINE
  5
30
330
17
100
AcDbEntity
  8
0
100
AcDbPolyline
 90
9
 70
1
 10
7.521656409793999
 20
8.070674776068003
 10
8.39559795604
 20
10.294229868446005
 10
16.4614987254
 20
10.305292331208003
 10
15.864120986959998
 20
8.634860356610004
 10
12.965732540923998
 20
8.601672967054004
 10
12.036478281071998
 20
8.380423699114003
 10
11.195724387017998
 20
7.904737773932004
 10
10.720034696286
 20
7.462239238052003
 10
7.124705555234
 20
7.2963022907800035
  0
LWPOLYLINE
  5
31
330
17
100
AcDbEntity
  8
0
100
AcDbPolyline
 90
7
 70
1
 10
0.15643339731799932
 20
9.676970242668004
 10
0.15643339731799932
 20
10.184970242668003
 10
-0.03157994268200069
 20
10.293519936668003
 10
-0.5344529526820007
 20
10.294086864668003
 10
-0.7234482566820006
 20
10.184970242668003
 10
-0.7234482566820006
 20
9.676970242668004
 10
-0.2835073026820006
 20
9.422970242668004
  0
LWPOLYLINE
  5
32
330
17
100
AcDbEntity
  8
0
100
AcDbPolyline
 90
7
 70
1
 10
1.2903147973179996
 20
9.676970242668004
 10
1.2903147973179996
 20
10.184970242668003
 10
1.1045193853179995
 20
10.292239268668004
 10
0.5972189013179995
 20
10.292811022668005
 10
0.4104331433179995
 20
10.184970242668003
 10
0.4104331433179995
 20
9.676970242668004
 10
0.8503738433179995
 20
9.422970242668004
  0
LWPOLYLINE
  5
33
330
17
100
AcDbEntity
  8
0
100
AcDbPolyline
 90
7
 70
1
 10
2.424196451317999
 20
9.676970242668004
 10
2.424196451317999
 20
10.184970242668003
 10
2.2406194753179993
 20
10.290958600668004
 10
1.7288910093179992
 20
10.291535434668003
 10
1.5443147973179994
 20
10.184970242668003
 10
1.5443147973179994
 20
9.676970242668004
 10
1.9842554973179993
 20
9.422970242668004
  0
LWPOLYLINE
  5
34
330
17
100
AcDbEntity
  8
0
100
AcDbPolyline
 90
6
 70
1
 10
-12.316264796682
 20
10.184970242668003
 10
-12.495643914682002
 20
10.288534932668004
 10
-13.013540770682003
 20
10.290397768668004
 10
-13.157119350682002
 20
10.207502836668004
 10
-12.615784898682001
 20
10.075177726668006
 10
-12.316264796682
 20
9.913438400668005
  0
LWPOLYLINE
  5
35
330
17
100
AcDbEntity
  8
0
100
AcDbPolyline
 90
7
 70
1
 10
3.5580781053179993
 20
9.676970242668006
 10
3.5580781053179993
 20
10.184970242668005
 10
3.3767193113179994
 20
10.289677932668006
 10
2.8605631173179993
 20
10.290259592668006
 10
2.678196451317999
 20
10.184970242668006
 10
2.678196451317999
 20
9.676970242668007
 10
3.1181374053179995
 20
9.422970242668008
  0
LWPOLYLINE
  5
36
330
17
100
AcDbEntity
  8
0
100
AcDbPolyline
 90
7
 70
1
 10
4.691959759317999
 20
9.676970242668007
 10
4.691959759317999
 20
10.184970242668006
 10
4.512819147317999
 20
10.288397010668008
 10
3.9922349713179988
 20
10.288984004668007
 10
3.812077851317999
 20
10.184970242668006
 10
3.812077851317999
 20
9.676970242668007
 10
4.252018805317999
 20
9.422970242668008
  0
LWPOLYLINE
  5
37
330
17
100
AcDbEntity
  8
0
100
AcDbPolyline
 90
7
 70
1
 10
5.825841667317999
 20
9.676970242668007
 10
5.825841667317999
 20
10.184970242668006
 10
5.648919237317998
 20
10.287116342668007
 10
5.123907333317998
 20
10.287708162668007
 10
4.945959759317998
 20
10.184970242668006
 10
4.945959759317998
 20
9.676970242668007
 10
5.385900713317998
 20
9.422970242668008
  0
LWPOLYLINE
  5
38
330
17
100
AcDbEntity
  8
0
100
AcDbPolyline
 90
5
 70
1
 10
6.626896199317997
 20
10.286013982668008
 10
6.255579187317998
 20
10.286432574668009
 10
6.0798414133179985
 20
10.184970242668006
 10
6.0798414133179985
 20
9.676970242668007
 10
6.337661573317998
 20
9.528117606668008
  0
LWPOLYLINE
  5
39
330
17
100
AcDbEntity
  8
0
100
AcDbPolyline
 90
8
 70
1
 10
-11.182383142682003
 20
9.676970242668007
 10
-11.182383142682003
 20
10.184970242668006
 10
-11.354653562682003
 20
10.284430546668007
 10
-11.886679676682004
 20
10.286344436668006
 10
-12.062264796682003
 20
10.184970242668006
 10
-12.062264796682003
 20
9.776279924668007
 10
-11.606232434682003
 20
9.530024892668008
 10
-11.536176948682002
 20
9.472707252668007
  0
LWPOLYLINE
  5
3A
330
17
100
AcDbEntity
  8
0
100
AcDbPolyline
 90
7
 70
1
 10
-10.048501488682003
 20
9.676970242668007
 10
-10.048501488682003
 20
10.184970242668006
 10
-10.213663210682004
 20
10.280326414668009
 10
-10.759819090682004
 20
10.282290850668009
 10
-10.928383396682005
 20
10.184970242668006
 10
-10.928383396682005
 20
9.676970242668007
 10
-10.488442442682004
 20
9.422970242668008
  0
LWPOLYLINE
  5
3B
330
17
100
AcDbEntity
  8
0
100
AcDbPolyline
 90
7
 70
1
 10
-8.914619834682005
 20
9.676970242668007
 10
-8.914619834682005
 20
10.184970242668006
 10
-9.072672604682007
 20
10.276222028668007
 10
-9.632957996682007
 20
10.278237518668009
 10
-9.794501488682007
 20
10.184970242668008
 10
-9.794501488682007
 20
9.676970242668009
 10
-9.354560788682006
 20
9.42297024266801
  0
LWPOLYLINE
  5
3C
330
17
100
AcDbEntity
  8
0
100
AcDbPolyline
 90
6
 70
1
 10
-7.9206248706820075
 20
10.26573386066801
 10
-7.931682252682007
 20
10.27211789666801
 10
-8.506096902682007
 20
10.27418418666801
 10
-8.660619834682008
 20
10.18497024266801
 10
-8.660619834682008
 20
9.67697024266801
 10
-8.238176686682007
 20
9.433072330668011
  0
LWPOLYLINE
  5
3D
330
17
100
AcDbEntity
  8
0
100
AcDbPolyline
 90
3
 70
1
 10
-0.9774482566820072
 20
9.676970242668009
 10
-0.9774482566820072
 20
10.11824926866801
 10
-1.193539264682007
 20
9.552210014668008
  0
LWPOLYLINE
  5
3E
330
17
100
AcDbEntity
  8
0
100
AcDbPolyline
 90
5
 70
1
 10
6.245941665317993
 20
9.287779250668008
 10
5.9528429373179925
 20
9.456999892668009
 10
5.512901983317993
 20
9.202999892668009
 10
5.512901983317993
 20
8.694999892668008
 10
5.928213319317993
 20
8.45521982866801
  0
LWPOLYLINE
  5
3F
330
17
100
AcDbEntity
  8
0
100
AcDbPolyline
 90
6
 70
1
 10
5.258902237317993
 20
8.69499989266801
 10
5.258902237317993
 20
9.20299989266801
 10
4.818961283317994
 20
9.45699989266801
 10
4.379020329317994
 20
9.20299989266801
 10
4.379020329317994
 20
8.69499989266801
 10
4.818961283317994
 20
8.44099989266801
  0
LWPOLYLINE
  5
40
330
17
100
AcDbEntity
  8
0
100
AcDbPolyline
 90
6
 70
1
 10
4.125020329317993
 20
8.69499989266801
 10
4.125020329317993
 20
9.20299989266801
 10
3.685079375317993
 20
9.45699989266801
 10
3.245138929317993
 20
9.20299989266801
 10
3.245138929317993
 20
8.69499989266801
 10
3.685079375317993
 20
8.44099989266801
  0
LWPOLYLINE
  5
41
330
17
100
AcDbEntity
  8
0
100
AcDbPolyline
 90
6
 70
1
 10
2.991138929317993
 20
8.69499989266801
 10
2.991138929317993
 20
9.20299989266801
 10
2.5511979753179927
 20
9.45699989266801
 10
2.111257021317993
 20
9.20299989266801
 10
2.111257021317993
 20
8.69499989266801
 10
2.5511979753179927
 20
8.44099989266801
  0
LWPOLYLINE
  5
42
330
17
100
AcDbEntity
  8
0
100
AcDbPolyline
 90
6
 70
1
 10
1.857257021317993
 20
8.69499989266801
 10
1.857257021317993
 20
9.20299989266801
 10
1.417316067317993
 20
9.45699989266801
 10
0.9773753673179929
 20
9.20299989266801
 10
0.9773753673179929
 20
8.69499989266801
 10
1.417316067317993
 20
8.44099989266801
  0
LWPOLYLINE
  5
43
330
17
100
AcDbEntity
  8
0
100
AcDbPolyline
 90
6
 70
1
 10
0.7233753673179929
 20
8.69499989266801
 10
0.7233753673179929
 20
9.20299989266801
 10
0.2834346673179929
 20
9.45699989266801
 10
-0.15650603268200713
 20
9.20299989266801
 10
-0.15650603268200713
 20
8.69499989266801
 10
0.2834346673179929
 20
8.44099989266801
  0
LWPOLYLINE
  5
44
330
17
100
AcDbEntity
  8
0
100
AcDbPolyline
 90
6
 70
1
 10
-0.4105057786820071
 20
8.69499989266801
 10
-0.4105057786820071
 20
9.20299989266801
 10
-0.8504467326820072
 20
9.45699989266801
 10
-1.2903876866820072
 20
9.20299989266801
 10
-1.2903876866820072
 20
8.69499989266801
 10
-0.8504467326820072
 20
8.44099989266801
  0
LWPOLYLINE
  5
45
330
17
100
AcDbEntity
  8
0
100
AcDbPolyline
 90
7
 70
1
 10
-8.568213110682006
 20
8.56767350266801
 10
-8.347677610682005
 20
9.14594641266801
 10
-8.347677610682005
 20
9.20299989266801
 10
-8.787618310682005
 20
9.45699989266801
 10
-9.227559264682005
 20
9.20299989266801
 10
-9.227559264682005
 20
8.69499989266801
 10
-8.787618310682005
 20
8.44099989266801
  0
LWPOLYLINE
  5
46
330
17
100
AcDbEntity
  8
0
100
AcDbPolyline
 90
6
 70
1
 10
-9.481559264682007
 20
8.69499989266801
 10
-9.481559264682007
 20
9.20299989266801
 10
-9.921500218682006
 20
9.45699989266801
 10
-10.361440918682007
 20
9.20299989266801
 10
-10.361440918682007
 20
8.69499989266801
 10
-9.921500218682006
 20
8.44099989266801
  0
LWPOLYLINE
  5
47
330
17
100
AcDbEntity
  8
0
100
AcDbPolyline
 90
6
 70
1
 10
-10.615440918682006
 20
8.69499989266801
 10
-10.615440918682006
 20
9.20299989266801
 10
-11.055381872682007
 20
9.45699989266801
 10
-11.326009220682005
 20
9.300753062668011
 10
-10.939725258682005
 20
8.98470518066801
 10
-10.728311152682005
 20
8.629834160668011
  0
LWPOLYLINE
  5
48
330
17
100
AcDbEntity
  8
0
100
AcDbPolyline
 90
8
 70
1
 10
5.5916508733179935
 20
7.577814420668012
 10
5.593856863317994
 20
7.579088230668011
 10
5.8258497953179935
 20
8.18699125666801
 10
5.8258497953179935
 20
8.22102954266801
 10
5.385908841317994
 20
8.475029542668011
 10
4.945967887317994
 20
8.22102954266801
 10
4.945967887317994
 20
7.713029542668011
 10
5.184479729317994
 20
7.57532445866801
  0
LWPOLYLINE
  5
49
330
17
100
AcDbEntity
  8
0
100
AcDbPolyline
 90
7
 70
1
 10
4.4456303053179935
 20
7.570806306668011
 10
4.691968141317993
 20
7.713029542668011
 10
4.691968141317993
 20
8.22102954266801
 10
4.252027187317994
 20
8.475029542668011
 10
3.8120862333179937
 20
8.22102954266801
 10
3.8120862333179937
 20
7.713029542668011
 10
4.062482481317994
 20
7.5684631566680105
  0
LWPOLYLINE
  5
4A
330
17
100
AcDbEntity
  8
0
100
AcDbPolyline
 90
8
 70
1
 10
3.176096649317994
 20
7.563042542668011
 10
3.2996097373179936
 20
7.56379793866801
 10
3.5580862333179937
 20
7.713029542668011
 10
3.5580862333179937
 20
8.22102954266801
 10
3.118145533317994
 20
8.475029542668011
 10
2.6782048333179937
 20
8.22102954266801
 10
2.6782048333179937
 20
7.713029542668011
 10
2.945389465317994
 20
7.55877026266801
  0
LWPOLYLINE
  5
4B
330
17
100
AcDbEntity
  8
0
100
AcDbPolyline
 90
7
 70
1
 10
2.070826571317994
 20
7.5090063286680095
 10
2.424204833317994
 20
7.71302954266801
 10
2.424204833317994
 20
8.22102954266801
 10
1.984263879317994
 20
8.475029542668011
 10
1.544322925317994
 20
8.22102954266801
 10
1.544322925317994
 20
7.713029542668011
 10
1.9409581493179937
 20
7.484031778668011
  0
LWPOLYLINE
  5
4C
330
17
100
AcDbEntity
  8
0
100
AcDbPolyline
 90
6
 70
1
 10
1.290322925317994
 20
7.713029542668011
 10
1.290322925317994
 20
8.22102954266801
 10
0.8503819713179939
 20
8.475029542668011
 10
0.4104415253179939
 20
8.22102954266801
 10
0.4104415253179939
 20
7.713029542668011
 10
0.8503819713179939
 20
7.4590292886680105
  0
LWPOLYLINE
  5
4D
330
17
100
AcDbEntity
  8
0
100
AcDbPolyline
 90
6
 70
1
 10
0.15644152531799385
 20
7.713029542668011
 10
0.15644152531799385
 20
8.22102954266801
 10
-0.2834991746820062
 20
8.475029542668011
 10
-0.7234401286820062
 20
8.22102954266801
 10
-0.7234401286820062
 20
7.713029542668011
 10
-0.28349917468200625
 20
7.4590292886680105
  0
LWPOLYLINE
  5
4E
330
17
100
AcDbEntity
  8
0
100
AcDbPolyline
 90
7
 70
1
 10
-0.9774398746820062
 20
7.713029542668011
 10
-0.9774398746820062
 20
8.22102954266801
 10
-1.4173808286820062
 20
8.475029542668011
 10
-1.6577412826820064
 20
8.336257404668011
 10
-1.8573217826820063
 20
7.8134667306680115
 10
-1.8573217826820063
 20
7.7130295426680116
 10
-1.4173808286820062
 20
7.459029288668011
  0
LWPOLYLINE
  5
4F
330
17
100
AcDbEntity
  8
0
100
AcDbPolyline
 90
6
 70
1
 10
-8.914611452682006
 20
7.7130295426680116
 10
-8.914611452682006
 20
8.22102954266801
 10
-9.354552406682005
 20
8.475029542668011
 10
-9.794493360682006
 20
8.22102954266801
 10
-9.794493360682006
 20
7.713029542668011
 10
-9.354552406682005
 20
7.4590292886680105
  0
LWPOLYLINE
  5
50
330
17
100
AcDbEntity
  8
0
100
AcDbPolyline
 90
6
 70
1
 10
-10.048493360682006
 20
7.713029542668011
 10
-10.048493360682006
 20
8.22102954266801
 10
-10.488434314682005
 20
8.475029542668011
 10
-10.598298204682006
 20
8.41159964666801
 10
-10.374229564682006
 20
8.03548686066801
 10
-10.267632622682004
 20
7.586509348668011
  0
LWPOLYLINE
  5
51
330
17
100
AcDbEntity
  8
0
100
AcDbPolyline
 90
5
 70
1
 10
1.3851078513179946
 20
7.377138418668011
 10
1.5598880453179946
 20
7.4107497306680115
 10
1.4173244493179946
 20
7.493058938668011
 10
0.9773834953179945
 20
7.239058684668011
 10
0.9773834953179945
 20
7.08134068666801
  0
LWPOLYLINE
  5
52
330
17
100
AcDbEntity
  8
0
100
AcDbPolyline
 90
8
 70
1
 10
0.38589420331799457
 20
6.53620893466801
 10
0.5230394713179946
 20
6.751721330668009
 10
0.7233834953179945
 20
6.89706775066801
 10
0.7233834953179945
 20
7.23905868466801
 10
0.2834430493179945
 20
7.49305893866801
 10
-0.1564976506820055
 20
7.23905868466801
 10
-0.1564976506820055
 20
6.73105868466801
 10
0.2834430493179945
 20
6.47705868466801
  0
LWPOLYLINE
  5
53
330
17
100
AcDbEntity
  8
0
100
AcDbPolyline
 90
6
 70
1
 10
-0.41049765068200544
 20
6.73105868466801
 10
-0.41049765068200544
 20
7.23905868466801
 10
-0.8504386046820055
 20
7.49305893866801
 10
-1.2903795586820055
 20
7.23905868466801
 10
-1.2903795586820055
 20
6.73105868466801
 10
-0.8504386046820054
 20
6.47705868466801
  0
LWPOLYLINE
  5
54
330
17
100
AcDbEntity
  8
0
100
AcDbPolyline
 90
8
 70
1
 10
-8.347669482682006
 20
6.73105868466801
 10
-8.347669482682006
 20
7.204327994668009
 10
-8.614158916682007
 20
7.343123246668009
 10
-8.646220066682005
 20
7.411427148668009
 10
-8.787610182682005
 20
7.4930589386680095
 10
-9.227550882682007
 20
7.239058684668009
 10
-9.227550882682007
 20
6.731058684668009
 10
-8.787610182682005
 20
6.477058684668009
  0
LWPOLYLINE
  5
55
330
17
100
AcDbEntity
  8
0
100
AcDbPolyline
 90
6
 70
1
 10
-9.481550882682006
 20
6.731058684668009
 10
-9.481550882682006
 20
7.239058684668009
 10
-9.921491836682007
 20
7.4930589386680095
 10
-10.206392714682005
 20
7.328571332668009
 10
-10.017367692682004
 20
6.532412650668009
 10
-9.921491836682005
 20
6.477058684668009
  0
LWPOLYLINE
  5
56
330
17
100
AcDbEntity
  8
0
100
AcDbPolyline
 90
7
 70
1
 10
-1.5443793046820047
 20
6.731058684668009
 10
-1.5443793046820047
 20
7.239058684668009
 10
-1.9804858746820049
 20
7.490845074668009
 10
-2.135716196682005
 20
7.084227142668009
 10
-2.424260958682005
 20
7.08454464266801
 10
-2.424260958682005
 20
6.731058684668009
 10
-1.984320258682005
 20
6.477058684668009
  0
LWPOLYLINE
  5
57
330
17
100
AcDbEntity
  8
0
100
AcDbPolyline
 90
5
 70
1
 10
-7.213787574682005
 20
6.731058684668009
 10
-7.213787574682005
 20
7.089815650668009
 10
-8.093669482682005
 20
7.090784152668009
 10
-8.093669482682005
 20
6.731058684668009
 10
-7.653728528682006
 20
6.477058684668009
  0
LWPOLYLINE
  5
58
330
17
100
AcDbEntity
  8
0
100
AcDbPolyline
 90
5
 70
1
 10
-6.079905920682006
 20
6.731058684668009
 10
-6.079905920682006
 20
7.08856774866801
 10
-6.959787828682006
 20
7.08953625066801
 10
-6.959787828682006
 20
6.73105868466801
 10
-6.519846874682006
 20
6.47705868466801
  0
LWPOLYLINE
  5
59
330
17
100
AcDbEntity
  8
0
100
AcDbPolyline
 90
5
 70
1
 10
-4.946024520682006
 20
6.73105868466801
 10
-4.946024520682006
 20
7.08732010066801
 10
-5.825905920682007
 20
7.0882883486680095
 10
-5.825905920682007
 20
6.73105868466801
 10
-5.385965220682007
 20
6.47705868466801
  0
LWPOLYLINE
  5
5A
330
17
100
AcDbEntity
  8
0
100
AcDbPolyline
 90
5
 70
1
 10
-3.812142612682006
 20
6.73105868466801
 10
-3.812142612682006
 20
7.086072198668011
 10
-4.692024520682007
 20
7.08704044666801
 10
-4.692024520682007
 20
6.73105868466801
 10
-4.252083566682007
 20
6.47705868466801
  0
LWPOLYLINE
  5
5B
330
17
100
AcDbEntity
  8
0
100
AcDbPolyline
 90
5
 70
1
 10
-2.6782609586820065
 20
6.73105868466801
 10
-2.6782609586820065
 20
7.0848242966680095
 10
-3.5581428666820063
 20
7.08579254466801
 10
-3.5581428666820063
 20
6.73105868466801
 10
-3.1182019126820064
 20
6.47705868466801
  0
LWPOLYLINE
  5
5C
330
17
100
AcDbEntity
  8
0
100
AcDbPolyline
 90
8
 70
1
 10
-0.24797117868200622
 20
5.51559578666801
 10
-0.18652603868200623
 20
5.63669790666801
 10
0.1564496533179938
 20
6.175655680668011
 10
0.1564496533179938
 20
6.257088334668011
 10
-0.28349104668200625
 20
6.511088334668011
 10
-0.7234317466820063
 20
6.257088334668011
 10
-0.7234317466820063
 20
5.749088334668011
 10
-0.28349104668200625
 20
5.495088334668011
  0
LWPOLYLINE
  5
5D
330
17
100
AcDbEntity
  8
0
100
AcDbPolyline
 90
6
 70
1
 10
-0.9774317466820062
 20
5.749088334668011
 10
-0.9774317466820062
 20
6.257088334668011
 10
-1.4173727006820063
 20
6.511088334668011
 10
-1.8573136546820064
 20
6.257088334668011
 10
-1.8573136546820064
 20
5.749088334668011
 10
-1.4173727006820063
 20
5.495088334668011
  0
LWPOLYLINE
  5
5E
330
17
100
AcDbEntity
  8
0
100
AcDbPolyline
 90
6
 70
1
 10
-2.1113134006820062
 20
5.749088334668011
 10
-2.1113134006820062
 20
6.257088334668011
 10
-2.5512541006820064
 20
6.511088334668011
 10
-2.9911950546820067
 20
6.257088334668011
 10
-2.9911950546820067
 20
5.749088334668011
 10
-2.5512541006820064
 20
5.495088334668011
  0
LWPOLYLINE
  5
5F
330
17
100
AcDbEntity
  8
0
100
AcDbPolyline
 90
6
 70
1
 10
-3.2451950546820063
 20
5.749088334668011
 10
-3.2451950546820063
 20
6.257088334668011
 10
-3.685136008682006
 20
6.511088334668011
 10
-4.125076962682006
 20
6.257088334668011
 10
-4.125076962682006
 20
5.749088334668011
 10
-3.685136008682006
 20
5.495088334668011
  0
LWPOLYLINE
  5
60
330
17
100
AcDbEntity
  8
0
100
AcDbPolyline
 90
6
 70
1
 10
-4.379076708682006
 20
5.749088334668011
 10
-4.379076708682006
 20
6.257088334668011
 10
-4.819017662682006
 20
6.511088334668011
 10
-5.258958616682005
 20
6.257088334668011
 10
-5.258958616682005
 20
5.749088334668011
 10
-4.819017662682006
 20
5.495088334668011
  0
LWPOLYLINE
  5
61
330
17
100
AcDbEntity
  8
0
100
AcDbPolyline
 90
6
 70
1
 10
-5.512958616682006
 20
5.749088334668011
 10
-5.512958616682006
 20
6.257088334668011
 10
-5.952899062682006
 20
6.511088334668011
 10
-6.392840016682006
 20
6.257088334668011
 10
-6.392840016682006
 20
5.749088334668011
 10
-5.952899062682006
 20
5.495088334668011
  0
LWPOLYLINE
  5
62
330
17
100
AcDbEntity
  8
0
100
AcDbPolyline
 90
6
 70
1
 10
-6.646840016682006
 20
5.749088334668011
 10
-6.646840016682006
 20
6.257088334668011
 10
-7.086780970682005
 20
6.511088334668011
 10
-7.526721924682005
 20
6.257088334668011
 10
-7.526721924682005
 20
5.749088334668011
 10
-7.086780970682005
 20
5.495088334668011
  0
LWPOLYLINE
  5
63
330
17
100
AcDbEntity
  8
0
100
AcDbPolyline
 90
6
 70
1
 10
-7.780721670682006
 20
5.749088334668011
 10
-7.780721670682006
 20
6.257088334668011
 10
-8.220662624682005
 20
6.511088334668011
 10
-8.660603324682006
 20
6.257088334668011
 10
-8.660603324682006
 20
5.749088334668011
 10
-8.220662624682005
 20
5.495088334668011
  0
LWPOLYLINE
  5
64
330
17
100
AcDbEntity
  8
0
100
AcDbPolyline
 90
6
 70
1
 10
-8.914603324682005
 20
5.749088334668011
 10
-8.914603324682005
 20
6.257088334668011
 10
-9.354544278682004
 20
6.511088334668011
 10
-9.794485232682005
 20
6.257088334668011
 10
-9.794485232682005
 20
5.749088334668011
 10
-9.354544278682004
 20
5.495088334668011
  0
LWPOLYLINE
  5
65
330
17
100
AcDbEntity
  8
0
100
AcDbPolyline
 90
7
 70
1
 10
-0.7177429086820051
 20
4.58972489266801
 10
-0.4104895226820051
 20
5.19528908666801
 10
-0.4104895226820051
 20
5.27511773066801
 10
-0.8504302226820051
 20
5.52911773066801
 10
-1.2903711766820052
 20
5.27511773066801
 10
-1.2903711766820052
 20
4.76711773066801
 10
-0.8504302226820051
 20
4.51311773066801
  0
LWPOLYLINE
  5
66
330
17
100
AcDbEntity
  8
0
100
AcDbPolyline
 90
6
 70
1
 10
-1.5443711766820052
 20
4.76711773066801
 10
-1.5443711766820052
 20
5.27511773066801
 10
-1.9843121306820053
 20
5.52911773066801
 10
-2.424252830682005
 20
5.27511773066801
 10
-2.424252830682005
 20
4.76711773066801
 10
-1.9843121306820053
 20
4.51311773066801
  0
LWPOLYLINE
  5
67
330
17
100
AcDbEntity
  8
0
100
AcDbPolyline
 90
6
 70
1
 10
-2.678252576682005
 20
4.76711773066801
 10
-2.678252576682005
 20
5.27511773066801
 10
-3.118193530682005
 20
5.52911773066801
 10
-3.558134484682005
 20
5.27511773066801
 10
-3.558134484682005
 20
4.76711773066801
 10
-3.118193530682005
 20
4.51311773066801
  0
LWPOLYLINE
  5
68
330
17
100
AcDbEntity
  8
0
100
AcDbPolyline
 90
6
 70
1
 10
-3.812134484682005
 20
4.76711773066801
 10
-3.812134484682005
 20
5.27511773066801
 10
-4.252075438682005
 20
5.52911773066801
 10
-4.692016392682004
 20
5.27511773066801
 10
-4.692016392682004
 20
4.76711773066801
 10
-4.252075438682005
 20
4.51311773066801
  0
LWPOLYLINE
  5
69
330
17
100
AcDbEntity
  8
0
100
AcDbPolyline
 90
6
 70
1
 10
-4.946016138682005
 20
4.76711773066801
 10
-4.946016138682005
 20
5.27511773066801
 10
-5.385957092682005
 20
5.52911773066801
 10
-5.825897792682005
 20
5.27511773066801
 10
-5.825897792682005
 20
4.76711773066801
 10
-5.385957092682005
 20
4.51311773066801
  0
LWPOLYLINE
  5
6A
330
17
100
AcDbEntity
  8
0
100
AcDbPolyline
 90
6
 70
1
 10
-6.079897792682005
 20
4.76711773066801
 10
-6.079897792682005
 20
5.27511773066801
 10
-6.519838492682005
 20
5.52911773066801
 10
-6.959779446682004
 20
5.27511773066801
 10
-6.959779446682004
 20
4.76711773066801
 10
-6.519838492682005
 20
4.51311773066801
  0
LWPOLYLINE
  5
6B
330
17
100
AcDbEntity
  8
0
100
AcDbPolyline
 90
6
 70
1
 10
-7.213779446682005
 20
4.76711773066801
 10
-7.213779446682005
 20
5.27511773066801
 10
-7.653720400682005
 20
5.52911773066801
 10
-8.093661354682004
 20
5.27511773066801
 10
-8.093661354682004
 20
4.76711773066801
 10
-7.653720400682005
 20
4.51311773066801
  0
LWPOLYLINE
  5
6C
330
17
100
AcDbEntity
  8
0
100
AcDbPolyline
 90
6
 70
1
 10
-8.347661100682005
 20
4.76711773066801
 10
-8.347661100682005
 20
5.27511773066801
 10
-8.787601800682006
 20
5.52911773066801
 10
-9.227542754682005
 20
5.27511773066801
 10
-9.227542754682005
 20
4.76711773066801
 10
-8.787601800682006
 20
4.51311773066801
  0
LWPOLYLINE
  5
6D
330
17
100
AcDbEntity
  8
0
100
AcDbPolyline
 90
4
 70
1
 10
-9.481542754682005
 20
4.76711773066801
 10
-9.481542754682005
 20
5.27511773066801
 10
-9.756556682682005
 20
5.433896940668011
 10
-9.584179836682006
 20
4.707860038668011
  0
LWPOLYLINE
  5
6E
330
17
100
AcDbEntity
  8
0
100
AcDbPolyline
 90
7
 70
1
 10
-1.1875164166820054
 20
3.663849934668011
 10
-0.9774236186820054
 20
4.077920988668011
 10
-0.9774236186820054
 20
4.293147380668011
 10
-1.4173643186820055
 20
4.547147380668011
 10
-1.8573052726820056
 20
4.293147380668011
 10
-1.8573052726820056
 20
3.7851471266680106
 10
-1.4173643186820055
 20
3.5311471266680106
  0
LWPOLYLINE
  5
6F
330
17
100
AcDbEntity
  8
0
100
AcDbPolyline
 90
6
 70
1
 10
-2.1113052726820056
 20
3.7851471266680106
 10
-2.1113052726820056
 20
4.293147380668011
 10
-2.5512459726820054
 20
4.547147380668011
 10
-2.9911869266820053
 20
4.293147380668011
 10
-2.9911869266820053
 20
3.920022142668011
 10
-2.261122854682006
 20
3.698649966668011
  0
LWPOLYLINE
  5
70
330
17
100
AcDbEntity
  8
0
100
AcDbPolyline
 90
7
 70
1
 10
-3.5347050166820053
 20
4.084829534668011
 10
-3.245186672682005
 20
3.9970407846680107
 10
-3.245186672682005
 20
4.293147380668011
 10
-3.6851276266820054
 20
4.547147380668011
 10
-4.125068580682005
 20
4.293147380668011
 10
-4.125068580682005
 20
3.7851471266680106
 10
-3.7146891626820047
 20
3.5482144026680107
  0
LWPOLYLINE
  5
71
330
17
100
AcDbEntity
  8
0
100
AcDbPolyline
 90
6
 70
1
 10
-4.379068580682005
 20
3.7851471266680106
 10
-4.379068580682005
 20
4.293147380668011
 10
-4.819009534682005
 20
4.547147380668011
 10
-5.258950488682004
 20
4.293147380668011
 10
-5.258950488682004
 20
3.7851471266680106
 10
-4.819009534682005
 20
3.5311471266680106
  0
LWPOLYLINE
  5
72
330
17
100
AcDbEntity
  8
0
100
AcDbPolyline
 90
6
 70
1
 10
-5.5129502346820045
 20
3.7851471266680106
 10
-5.5129502346820045
 20
4.293147380668011
 10
-5.952890934682005
 20
4.547147380668011
 10
-6.392831888682005
 20
4.293147380668011
 10
-6.392831888682005
 20
3.7851471266680106
 10
-5.952890934682005
 20
3.5311471266680106
  0
LWPOLYLINE
  5
73
330
17
100
AcDbEntity
  8
0
100
AcDbPolyline
 90
6
 70
1
 10
-6.646831888682005
 20
3.7851471266680106
 10
-6.646831888682005
 20
4.293147380668011
 10
-7.086772588682005
 20
4.547147380668011
 10
-7.526713542682004
 20
4.293147380668011
 10
-7.526713542682004
 20
3.7851471266680106
 10
-7.086772588682005
 20
3.5311471266680106
  0
LWPOLYLINE
  5
74
330
17
100
AcDbEntity
  8
0
100
AcDbPolyline
 90
6
 70
1
 10
-7.780713542682005
 20
3.7851471266680106
 10
-7.780713542682005
 20
4.293147380668011
 10
-8.220654496682004
 20
4.547147380668011
 10
-8.660595196682005
 20
4.293147380668011
 10
-8.660595196682005
 20
3.7851471266680106
 10
-8.220654496682004
 20
3.5311471266680106
  0
LWPOLYLINE
  5
75
330
17
100
AcDbEntity
  8
0
100
AcDbPolyline
 90
7
 70
1
 10
-8.914594942682005
 20
3.7851471266680106
 10
-8.914594942682005
 20
4.293147380668011
 10
-9.354535896682005
 20
4.547147380668011
 10
-9.656256654682005
 20
4.37294884666801
 10
-9.794476850682004
 20
3.971249624668011
 10
-9.794476850682004
 20
3.7851471266680106
 10
-9.354535896682005
 20
3.5311471266680106
  0
LWPOLYLINE
  5
76
330
17
100
AcDbEntity
  8
0
100
AcDbPolyline
 90
7
 70
1
 10
-4.001191256682005
 20
2.6940200226680107
 10
-3.8121261026820052
 20
3.257710030668011
 10
-3.8121261026820052
 20
3.311176776668011
 10
-4.252067056682005
 20
3.565176776668011
 10
-4.692008010682005
 20
3.311176776668011
 10
-4.692008010682005
 20
2.803176776668011
 10
-4.252067056682005
 20
2.549176776668011
  0
LWPOLYLINE
  5
77
330
17
100
AcDbEntity
  8
0
100
AcDbPolyline
 90
6
 70
1
 10
-4.946008010682005
 20
2.803176776668011
 10
-4.946008010682005
 20
3.311176776668011
 10
-5.3859489646820045
 20
3.565176776668011
 10
-5.825889410682004
 20
3.311176776668011
 10
-5.825889410682004
 20
2.803176776668011
 10
-5.3859489646820045
 20
2.549176776668011
  0
LWPOLYLINE
  5
78
330
17
100
AcDbEntity
  8
0
100
AcDbPolyline
 90
6
 70
1
 10
-6.079889410682005
 20
2.803176776668011
 10
-6.079889410682005
 20
3.311176776668011
 10
-6.519830364682005
 20
3.565176776668011
 10
-6.959771318682004
 20
3.311176776668011
 10
-6.959771318682004
 20
2.803176776668011
 10
-6.519830364682005
 20
2.549176776668011
  0
LWPOLYLINE
  5
79
330
17
100
AcDbEntity
  8
0
100
AcDbPolyline
 90
6
 70
1
 10
-7.213771318682006
 20
2.803176776668011
 10
-7.213771318682006
 20
3.311176776668011
 10
-7.653712018682006
 20
3.565176776668011
 10
-8.093652972682005
 20
3.311176776668011
 10
-8.093652972682005
 20
2.803176776668011
 10
-7.653712018682006
 20
2.549176776668011
  0
LWPOLYLINE
  5
7A
330
17
100
AcDbEntity
  8
0
100
AcDbPolyline
 90
6
 70
1
 10
-8.347652972682006
 20
2.803176776668011
 10
-8.347652972682006
 20
3.311176776668011
 10
-8.787593672682007
 20
3.565176776668011
 10
-9.227534626682006
 20
3.311176776668011
 10
-9.227534626682006
 20
2.803176776668011
 10
-8.787593672682007
 20
2.549176776668011
  0
LWPOLYLINE
  5
7B
330
17
100
AcDbEntity
  8
0
100
AcDbPolyline
 90
6
 70
1
 10
-9.481534372682006
 20
2.803176776668011
 10
-9.481534372682006
 20
3.311176776668011
 10
-9.921475326682007
 20
3.565176776668011
 10
-9.937357184682007
 20
3.556007376668011
 10
-10.223747264682006
 20
2.723693572668011
 10
-9.921475326682007
 20
2.5491767766680113
  0
LWPOLYLINE
  5
7C
330
17
100
AcDbEntity
  8
0
100
AcDbPolyline
 90
6
 70
1
 10
-4.379060198682006
 20
1.8212061726680115
 10
-4.379060198682006
 20
2.3292061726680116
 10
-4.819001152682006
 20
2.5832061726680116
 10
-5.258942106682006
 20
2.3292061726680116
 10
-5.258942106682006
 20
1.8212061726680115
 10
-4.819001152682006
 20
1.5672061726680115
  0
LWPOLYLINE
  5
7D
330
17
100
AcDbEntity
  8
0
100
AcDbPolyline
 90
6
 70
1
 10
-5.512942106682006
 20
1.8212061726680115
 10
-5.512942106682006
 20
2.3292061726680116
 10
-5.952882806682006
 20
2.5832061726680116
 10
-6.3928235066820065
 20
2.3292061726680116
 10
-6.3928235066820065
 20
1.8212061726680115
 10
-5.952882806682006
 20
1.5672061726680115
  0
LWPOLYLINE
  5
7E
330
17
100
AcDbEntity
  8
0
100
AcDbPolyline
 90
6
 70
1
 10
-6.646823506682006
 20
1.8212061726680115
 10
-6.646823506682006
 20
2.3292061726680116
 10
-7.086764460682006
 20
2.5832061726680116
 10
-7.526705414682005
 20
2.3292061726680116
 10
-7.526705414682005
 20
1.8212061726680115
 10
-7.086764460682006
 20
1.5672061726680115
  0
LWPOLYLINE
  5
7F
330
17
100
AcDbEntity
  8
0
100
AcDbPolyline
 90
6
 70
1
 10
-7.780705414682006
 20
1.8212061726680115
 10
-7.780705414682006
 20
2.3292061726680116
 10
-8.220646114682005
 20
2.5832061726680116
 10
-8.660586814682006
 20
2.3292061726680116
 10
-8.660586814682006
 20
1.8212061726680115
 10
-8.220646114682005
 20
1.5672061726680115
  0
LWPOLYLINE
  5
80
330
17
100
AcDbEntity
  8
0
100
AcDbPolyline
 90
6
 70
1
 10
-8.914586814682005
 20
1.8212061726680115
 10
-8.914586814682005
 20
2.3292061726680116
 10
-9.354527768682006
 20
2.5832061726680116
 10
-9.794468722682005
 20
2.3292061726680116
 10
-9.794468722682005
 20
1.8212061726680115
 10
-9.354527768682006
 20
1.5672061726680115
  0
LWPOLYLINE
  5
81
330
17
100
AcDbEntity
  8
0
100
AcDbPolyline
 90
6
 70
1
 10
-10.048468468682005
 20
1.8212061726680115
 10
-10.048468468682005
 20
2.3292061726680116
 10
-10.307939374682006
 20
2.4790118166680117
 10
-10.428954880682005
 20
2.1273137646680116
 10
-10.664580520682005
 20
1.6689184406680115
 10
-10.488409422682006
 20
1.5672061726680115
  0
LWPOLYLINE
  5
82
330
17
100
AcDbEntity
  8
0
100
AcDbPolyline
 90
3
 70
1
 10
-4.123189996682005
 20
2.3302861806680113
 10
-4.125060452682005
 20
2.3292061726680116
 10
-4.125060452682005
 20
2.3247093566680115
  0
LWPOLYLINE
  5
83
330
17
100
AcDbEntity
  8
0
100
AcDbPolyline
 90
6
 70
1
 10
-3.8121179746820055
 20
0.8392358226680114
 10
-3.8121179746820055
 20
1.3472358226680115
 10
-4.252058928682006
 20
1.6012358226680115
 10
-4.691999882682006
 20
1.3472358226680115
 10
-4.691999882682006
 20
0.8392358226680114
 10
-4.252058928682006
 20
0.5852358226680114
  0
LWPOLYLINE
  5
84
330
17
100
AcDbEntity
  8
0
100
AcDbPolyline
 90
6
 70
1
 10
-4.9459996286820065
 20
0.8392358226680114
 10
-4.9459996286820065
 20
1.3472358226680115
 10
-5.3859405826820055
 20
1.6012358226680115
 10
-5.825881282682006
 20
1.3472358226680115
 10
-5.825881282682006
 20
0.8392358226680114
 10
-5.3859405826820055
 20
0.5852358226680114
  0
LWPOLYLINE
  5
85
330
17
100
AcDbEntity
  8
0
100
AcDbPolyline
 90
6
 70
1
 10
-6.079881282682006
 20
0.8392358226680114
 10
-6.079881282682006
 20
1.3472358226680115
 10
-6.519822236682005
 20
1.6012358226680115
 10
-6.959762936682006
 20
1.3472358226680115
 10
-6.959762936682006
 20
0.8392358226680114
 10
-6.519822236682005
 20
0.5852358226680114
  0
LWPOLYLINE
  5
86
330
17
100
AcDbEntity
  8
0
100
AcDbPolyline
 90
6
 70
1
 10
-7.213762936682006
 20
0.8392358226680114
 10
-7.213762936682006
 20
1.3472358226680115
 10
-7.653703890682006
 20
1.6012358226680115
 10
-8.093644844682006
 20
1.3472358226680115
 10
-8.093644844682006
 20
0.8392358226680114
 10
-7.653703890682006
 20
0.5852358226680114
  0
LWPOLYLINE
  5
87
330
17
100
AcDbEntity
  8
0
100
AcDbPolyline
 90
6
 70
1
 10
-8.347644844682005
 20
0.8392358226680114
 10
-8.347644844682005
 20
1.3472358226680115
 10
-8.787585290682005
 20
1.6012358226680115
 10
-9.227526244682004
 20
1.3472358226680115
 10
-9.227526244682004
 20
0.8392358226680114
 10
-8.787585290682005
 20
0.5852358226680114
  0
LWPOLYLINE
  5
88
330
17
100
AcDbEntity
  8
0
100
AcDbPolyline
 90
6
 70
1
 10
-9.481526244682003
 20
0.8392358226680114
 10
-9.481526244682003
 20
1.3472358226680115
 10
-9.921467198682004
 20
1.6012358226680115
 10
-10.361408152682003
 20
1.3472358226680115
 10
-10.361408152682003
 20
0.8392358226680114
 10
-9.921467198682004
 20
0.5852358226680114
  0
LWPOLYLINE
  5
89
330
17
100
AcDbEntity
  8
0
100
AcDbPolyline
 90
3
 70
1
 10
-3.6742475366820035
 20
1.5734832746680114
 10
-3.7225616386820035
 20
1.5888233506680112
 10
-3.685119498682003
 20
1.5672061726680113
  0
LWPOLYLINE
  5
8A
330
17
100
AcDbEntity
  8
0
100
AcDbPolyline
 90
6
 70
1
 10
-2.6782363206820037
 20
0.8392358226680114
 10
-2.6782363206820037
 20
1.2572393046680115
 10
-3.346492794682004
 20
1.4694176966680113
 10
-3.5581179746820033
 20
1.3472358226680115
 10
-3.5581179746820033
 20
0.8392358226680114
 10
-3.1181770206820034
 20
0.5852358226680114
  0
LWPOLYLINE
  5
8B
330
17
100
AcDbEntity
  8
0
100
AcDbPolyline
 90
5
 70
1
 10
-10.615407898682003
 20
0.8392358226680114
 10
-10.615407898682003
 20
1.3472358226680115
 10
-10.780837844682004
 20
1.4427469346680113
 10
-11.183566782682004
 20
0.6592625986680114
 10
-11.055348852682004
 20
0.5852358226680114
  0
LWPOLYLINE
  5
8C
330
17
100
AcDbEntity
  8
0
100
AcDbPolyline
 90
4
 70
1
 10
-2.263902376682004
 20
1.1256840686680114
 10
-2.424236320682004
 20
1.1765917646680113
 10
-2.424236320682004
 20
0.8392358226680113
 10
-2.3905610006820037
 20
0.8197933926680113
  0
LWPOLYLINE
  5
8D
330
17
100
AcDbEntity
  8
0
100
AcDbPolyline
 90
5
 70
1
 10
-2.4885717266820038
 20
0.5830897766680113
 10
-2.5512294626820036
 20
0.6192652186680113
 10
-2.991170416682004
 20
0.36526521866801137
 10
-2.991170416682004
 20
-0.14273478133198866
 10
-2.828094796682004
 20
-0.23688648533198867
  0
LWPOLYLINE
  5
8E
330
17
100
AcDbEntity
  8
0
100
AcDbPolyline
 90
6
 70
1
 10
-3.245170416682004
 20
-0.14273478133198866
 10
-3.245170416682004
 20
0.36526521866801137
 10
-3.6851111166820036
 20
0.6192652186680113
 10
-4.1250520706820035
 20
0.36526521866801137
 10
-4.1250520706820035
 20
-0.14273478133198866
 10
-3.685111116682003
 20
-0.39673478133198864
  0
LWPOLYLINE
  5
8F
330
17
100
AcDbEntity
  8
0
100
AcDbPolyline
 90
6
 70
1
 10
-4.379052070682003
 20
-0.14273478133198866
 10
-4.379052070682003
 20
0.36526521866801137
 10
-4.818993024682003
 20
0.6192652186680113
 10
-5.258933978682003
 20
0.36526521866801137
 10
-5.258933978682003
 20
-0.14273478133198866
 10
-4.818993024682003
 20
-0.39673478133198864
  0
LWPOLYLINE
  5
90
330
17
100
AcDbEntity
  8
0
100
AcDbPolyline
 90
6
 70
1
 10
-5.512933724682003
 20
-0.14273478133198866
 10
-5.512933724682003
 20
0.36526521866801137
 10
-5.952874424682004
 20
0.6192652186680113
 10
-6.392815378682003
 20
0.36526521866801137
 10
-6.392815378682003
 20
-0.14273478133198866
 10
-5.952874424682004
 20
-0.39673478133198864
  0
LWPOLYLINE
  5
91
330
17
100
AcDbEntity
  8
0
100
AcDbPolyline
 90
6
 70
1
 10
-6.646815378682003
 20
-0.14273478133198866
 10
-6.646815378682003
 20
0.36526521866801137
 10
-7.086756332682002
 20
0.6192652186680113
 10
-7.526697032682003
 20
0.36526521866801137
 10
-7.526697032682003
 20
-0.14273478133198866
 10
-7.086756332682002
 20
-0.39673478133198864
  0
LWPOLYLINE
  5
92
330
17
100
AcDbEntity
  8
0
100
AcDbPolyline
 90
6
 70
1
 10
-7.780697032682003
 20
-0.14273478133198866
 10
-7.780697032682003
 20
0.36526521866801137
 10
-8.220637986682002
 20
0.6192652186680113
 10
-8.660578686682003
 20
0.36526521866801137
 10
-8.660578686682003
 20
-0.14273478133198866
 10
-8.220637986682002
 20
-0.39673478133198864
  0
LWPOLYLINE
  5
93
330
17
100
AcDbEntity
  8
0
100
AcDbPolyline
 90
6
 70
1
 10
-8.914578686682002
 20
-0.14273478133198866
 10
-8.914578686682002
 20
0.36526521866801137
 10
-9.354519386682004
 20
0.6192652186680113
 10
-9.794460340682003
 20
0.36526521866801137
 10
-9.794460340682003
 20
-0.14273478133198866
 10
-9.354519386682004
 20
-0.39673478133198864
  0
LWPOLYLINE
  5
94
330
17
100
AcDbEntity
  8
0
100
AcDbPolyline
 90
6
 70
1
 10
-10.048460340682002
 20
-0.14273478133198866
 10
-10.048460340682002
 20
0.36526521866801137
 10
-10.488401294682003
 20
0.6192652186680113
 10
-10.928342248682002
 20
0.36526521866801137
 10
-10.928342248682002
 20
-0.14273478133198866
 10
-10.488401294682003
 20
-0.39673478133198864
  0
LWPOLYLINE
  5
95
330
17
100
AcDbEntity
  8
0
100
AcDbPolyline
 90
5
 70
1
 10
-11.182341994682002
 20
-0.14273478133198866
 10
-11.182341994682002
 20
0.36526521866801137
 10
-11.299823090682002
 20
0.43309287066801133
 10
-11.702551774682004
 20
-0.35039146533198867
 10
-11.622282694682003
 20
-0.39673478133198864
  0
LWPOLYLINE
  5
96
330
17
100
AcDbEntity
  8
0
100
AcDbPolyline
 90
5
 70
1
 10
-2.926106538682003
 20
-0.47359238733198866
 10
-3.118168892682003
 20
-0.3627051313319887
 10
-3.5581098466820027
 20
-0.6167051313319887
 10
-3.5581098466820027
 20
-1.1247051313319887
 10
-3.265629862682003
 20
-1.2935686493319887
  0
LWPOLYLINE
  5
97
330
17
100
AcDbEntity
  8
0
100
AcDbPolyline
 90
6
 70
1
 10
-3.8121098466820027
 20
-1.1247051313319887
 10
-3.8121098466820027
 20
-0.6167051313319887
 10
-4.252050546682002
 20
-0.3627051313319887
 10
-4.691991500682002
 20
-0.6167051313319887
 10
-4.691991500682002
 20
-1.1247051313319887
 10
-4.252050546682002
 20
-1.3787051313319887
  0
LWPOLYLINE
  5
98
330
17
100
AcDbEntity
  8
0
100
AcDbPolyline
 90
6
 70
1
 10
-4.945991500682002
 20
-1.1247051313319887
 10
-4.945991500682002
 20
-0.6167051313319887
 10
-5.385932454682002
 20
-0.3627051313319887
 10
-5.825873154682002
 20
-0.6167051313319887
 10
-5.825873154682002
 20
-1.1247051313319887
 10
-5.385932454682002
 20
-1.3787051313319887
  0
LWPOLYLINE
  5
99
330
17
100
AcDbEntity
  8
0
100
AcDbPolyline
 90
6
 70
1
 10
-6.079872900682002
 20
-1.1247051313319887
 10
-6.079872900682002
 20
-0.6167051313319887
 10
-6.519813854682002
 20
-0.3627051313319887
 10
-6.959754808682001
 20
-0.6167051313319887
 10
-6.959754808682001
 20
-1.1247051313319887
 10
-6.519813854682002
 20
-1.3787051313319887
  0
LWPOLYLINE
  5
9A
330
17
100
AcDbEntity
  8
0
100
AcDbPolyline
 90
6
 70
1
 10
-7.213754808682002
 20
-1.1247051313319887
 10
-7.213754808682002
 20
-0.6167051313319887
 10
-7.653695762682002
 20
-0.3627051313319887
 10
-8.093636462682001
 20
-0.6167051313319887
 10
-8.093636462682001
 20
-1.1247051313319887
 10
-7.653695762682002
 20
-1.3787051313319887
  0
LWPOLYLINE
  5
9B
330
17
100
AcDbEntity
  8
0
100
AcDbPolyline
 90
6
 70
1
 10
-8.347636462682003
 20
-1.1247051313319887
 10
-8.347636462682003
 20
-0.6167051313319887
 10
-8.787577162682004
 20
-0.3627051313319887
 10
-9.227518116682003
 20
-0.6167051313319887
 10
-9.227518116682003
 20
-1.1247051313319887
 10
-8.787577162682004
 20
-1.3787051313319887
  0
LWPOLYLINE
  5
9C
330
17
100
AcDbEntity
  8
0
100
AcDbPolyline
 90
6
 70
1
 10
-9.481518116682002
 20
-1.1247051313319887
 10
-9.481518116682002
 20
-0.6167051313319887
 10
-9.921458816682003
 20
-0.3627051313319887
 10
-10.361399770682002
 20
-0.6167051313319887
 10
-10.361399770682002
 20
-1.1247051313319887
 10
-9.921458816682003
 20
-1.3787051313319887
  0
LWPOLYLINE
  5
9D
330
17
100
AcDbEntity
  8
0
100
AcDbPolyline
 90
6
 70
1
 10
-10.615399770682002
 20
-1.1247051313319887
 10
-10.615399770682002
 20
-0.6167051313319887
 10
-11.055340724682003
 20
-0.3627051313319887
 10
-11.495281424682002
 20
-0.6167051313319887
 10
-11.495281424682002
 20
-1.1247051313319887
 10
-11.055340724682003
 20
-1.3787051313319887
  0
LWPOLYLINE
  5
9E
330
17
100
AcDbEntity
  8
0
100
AcDbPolyline
 90
6
 70
1
 10
-11.749281170682004
 20
-1.1247051313319887
 10
-11.749281170682004
 20
-0.6167051313319887
 10
-11.818809352682003
 20
-0.5765629713319886
 10
-11.910807644682002
 20
-0.7555402613319887
 10
-12.260141972682003
 20
-1.3377595693319886
 10
-12.189222124682003
 20
-1.3787051313319887
  0
LWPOLYLINE
  5
9F
330
17
100
AcDbEntity
  8
0
100
AcDbPolyline
 90
5
 70
1
 10
-3.363640334682003
 20
-1.5302720113319885
 10
-3.6851029886820035
 20
-1.3446754813319886
 10
-4.125043942682003
 20
-1.5986754813319886
 10
-4.125043942682003
 20
-2.106675481331989
 10
-3.703163658682003
 20
-2.3502482733319887
  0
LWPOLYLINE
  5
A0
330
17
100
AcDbEntity
  8
0
100
AcDbPolyline
 90
6
 70
1
 10
-4.379043942682003
 20
-2.106675481331989
 10
-4.379043942682003
 20
-1.5986754813319888
 10
-4.818984642682003
 20
-1.3446754813319888
 10
-5.258925596682003
 20
-1.5986754813319888
 10
-5.258925596682003
 20
-2.106675481331989
 10
-4.818984642682003
 20
-2.360675481331989
  0
LWPOLYLINE
  5
A1
330
17
100
AcDbEntity
  8
0
100
AcDbPolyline
 90
6
 70
1
 10
-5.5129255966820025
 20
-2.106675481331989
 10
-5.5129255966820025
 20
-1.5986754813319888
 10
-5.952866296682003
 20
-1.3446754813319888
 10
-6.392807250682003
 20
-1.5986754813319888
 10
-6.392807250682003
 20
-2.106675481331989
 10
-5.952866296682003
 20
-2.360675481331989
  0
LWPOLYLINE
  5
A2
330
17
100
AcDbEntity
  8
0
100
AcDbPolyline
 90
6
 70
1
 10
-6.6468069966820025
 20
-2.106675481331989
 10
-6.6468069966820025
 20
-1.5986754813319888
 10
-7.086747950682002
 20
-1.3446754813319888
 10
-7.526688904682001
 20
-1.5986754813319888
 10
-7.526688904682001
 20
-2.106675481331989
 10
-7.086747950682002
 20
-2.360675481331989
  0
LWPOLYLINE
  5
A3
330
17
100
AcDbEntity
  8
0
100
AcDbPolyline
 90
6
 70
1
 10
-7.780688904682003
 20
-2.106675481331989
 10
-7.780688904682003
 20
-1.5986754813319888
 10
-8.220629858682003
 20
-1.3446754813319888
 10
-8.660570304682002
 20
-1.5986754813319888
 10
-8.660570304682002
 20
-2.106675481331989
 10
-8.220629858682
 20
-2.360675481331989
  0
LWPOLYLINE
  5
A4
330
17
100
AcDbEntity
  8
0
100
AcDbPolyline
 90
6
 70
1
 10
-8.914570304682002
 20
-2.106675481331989
 10
-8.914570304682002
 20
-1.5986754813319888
 10
-9.354511258682003
 20
-1.3446754813319888
 10
-9.794452212682002
 20
-1.5986754813319888
 10
-9.794452212682002
 20
-2.106675481331989
 10
-9.354511258682003
 20
-2.360675481331989
  0
LWPOLYLINE
  5
A5
330
17
100
AcDbEntity
  8
0
100
AcDbPolyline
 90
6
 70
1
 10
-10.048452212682001
 20
-2.106675481331989
 10
-10.048452212682001
 20
-1.5986754813319888
 10
-10.488392912682002
 20
-1.3446754813319888
 10
-10.928333866682001
 20
-1.5986754813319888
 10
-10.928333866682001
 20
-2.106675481331989
 10
-10.488392912682002
 20
-2.360675481331989
  0
LWPOLYLINE
  5
A6
330
17
100
AcDbEntity
  8
0
100
AcDbPolyline
 90
6
 70
1
 10
-11.182333866682
 20
-2.106675481331989
 10
-11.182333866682
 20
-1.5986754813319888
 10
-11.622274566682002
 20
-1.3446754813319888
 10
-12.062215520682
 20
-1.5986754813319888
 10
-12.062215520682
 20
-2.106675481331989
 10
-11.622274566682002
 20
-2.360675481331989
  0
LWPOLYLINE
  5
A7
330
17
100
AcDbEntity
  8
0
100
AcDbPolyline
 90
5
 70
1
 10
-12.316215266682002
 20
-2.106675481331989
 10
-12.316215266682002
 20
-1.5986754813319888
 10
-12.390841228682001
 20
-1.5555902233319887
 10
-12.843603340682002
 20
-2.310187901331989
 10
-12.756156220682001
 20
-2.360675481331989
  0
LWPOLYLINE
  5
A8
330
17
100
AcDbEntity
  8
0
100
AcDbPolyline
 90
7
 70
1
 10
-4.0707379806820025
 20
-3.2379698913319888
 10
-3.8121014646820024
 20
-2.6133419813319887
 10
-3.8121014646820024
 20
-2.580646085331989
 10
-4.252042418682002
 20
-2.326646085331989
 10
-4.691983372682002
 20
-2.580646085331989
 10
-4.691983372682002
 20
-3.088646085331989
 10
-4.252042418682002
 20
-3.342646085331989
  0
LWPOLYLINE
  5
A9
330
17
100
AcDbEntity
  8
0
100
AcDbPolyline
 90
6
 70
1
 10
-4.945983118682003
 20
-3.088646085331989
 10
-4.945983118682003
 20
-2.580646085331989
 10
-5.385924072682002
 20
-2.326646085331989
 10
-5.825864772682002
 20
-2.580646085331989
 10
-5.825864772682002
 20
-3.088646085331989
 10
-5.385924072682002
 20
-3.342646085331989
  0
LWPOLYLINE
  5
AA
330
17
100
AcDbEntity
  8
0
100
AcDbPolyline
 90
6
 70
1
 10
-6.0798647726820025
 20
-3.088646085331989
 10
-6.0798647726820025
 20
-2.580646085331989
 10
-6.519805726682002
 20
-2.326646085331989
 10
-6.959746680682001
 20
-2.580646085331989
 10
-6.959746680682001
 20
-3.088646085331989
 10
-6.519805726682002
 20
-3.342646085331989
  0
LWPOLYLINE
  5
AB
330
17
100
AcDbEntity
  8
0
100
AcDbPolyline
 90
6
 70
1
 10
-7.213746426682002
 20
-3.088646085331989
 10
-7.213746426682002
 20
-2.580646085331989
 10
-7.653687380682002
 20
-2.326646085331989
 10
-8.093628334682002
 20
-2.580646085331989
 10
-8.093628334682002
 20
-3.088646085331989
 10
-7.653687380682002
 20
-3.342646085331989
  0
LWPOLYLINE
  5
AC
330
17
100
AcDbEntity
  8
0
100
AcDbPolyline
 90
6
 70
1
 10
-8.347628334682001
 20
-3.088646085331989
 10
-8.347628334682001
 20
-2.580646085331989
 10
-8.787568780682003
 20
-2.326646085331989
 10
-9.227509734682002
 20
-2.580646085331989
 10
-9.227509734682002
 20
-3.088646085331989
 10
-8.787568780682003
 20
-3.342646085331989
  0
LWPOLYLINE
  5
AD
330
17
100
AcDbEntity
  8
0
100
AcDbPolyline
 90
6
 70
1
 10
-9.481509734682001
 20
-3.088646085331989
 10
-9.481509734682001
 20
-2.580646085331989
 10
-9.921450688682002
 20
-2.326646085331989
 10
-10.361391642682001
 20
-2.580646085331989
 10
-10.361391642682001
 20
-3.088646085331989
 10
-9.921450688682002
 20
-3.342646085331989
  0
LWPOLYLINE
  5
AE
330
17
100
AcDbEntity
  8
0
100
AcDbPolyline
 90
6
 70
1
 10
-10.615391388682003
 20
-3.088646085331989
 10
-10.615391388682003
 20
-2.580646085331989
 10
-11.055332342682002
 20
-2.326646085331989
 10
-11.495273042682001
 20
-2.580646085331989
 10
-11.495273042682001
 20
-3.088646085331989
 10
-11.055332342682002
 20
-3.342646085331989
  0
LWPOLYLINE
  5
AF
330
17
100
AcDbEntity
  8
0
100
AcDbPolyline
 90
6
 70
1
 10
-11.749273042682002
 20
-3.088646085331989
 10
-11.749273042682002
 20
-2.580646085331989
 10
-12.189213996682001
 20
-2.326646085331989
 10
-12.629154950682
 20
-2.580646085331989
 10
-12.629154950682
 20
-3.088646085331989
 10
-12.189213996682001
 20
-3.342646085331989
  0
LWPOLYLINE
  5
B0
330
17
100
AcDbEntity
  8
0
100
AcDbPolyline
 90
5
 70
1
 10
-12.883154696682002
 20
-3.088646085331989
 10
-12.883154696682002
 20
-2.580646085331989
 10
-12.974304120682003
 20
-2.5280208413319887
 10
-13.427066232682002
 20
-3.2826187733319885
 10
-13.323095650682003
 20
-3.342646085331989
  0
LWPOLYLINE
  5
B1
330
17
100
AcDbEntity
  8
0
100
AcDbPolyline
 90
7
 70
1
 10
-4.426965868682003
 20
-4.098289227331989
 10
-4.379035560682003
 20
-3.9825335533319888
 10
-4.379035560682003
 20
-3.5626166893319886
 10
-4.818976514682003
 20
-3.308616435331989
 10
-5.258917468682003
 20
-3.5626166893319886
 10
-5.258917468682003
 20
-4.070616689331989
 10
-4.818976514682003
 20
-4.324616689331989
  0
LWPOLYLINE
  5
B2
330
17
100
AcDbEntity
  8
0
100
AcDbPolyline
 90
6
 70
1
 10
-5.512917214682004
 20
-4.070616689331989
 10
-5.512917214682004
 20
-3.5626166893319886
 10
-5.952857914682004
 20
-3.308616435331989
 10
-6.392798868682003
 20
-3.5626166893319886
 10
-6.392798868682003
 20
-4.070616689331989
 10
-5.952857914682004
 20
-4.324616689331989
  0
LWPOLYLINE
  5
B3
330
17
100
AcDbEntity
  8
0
100
AcDbPolyline
 90
6
 70
1
 10
-6.646798868682003
 20
-4.070616689331989
 10
-6.646798868682003
 20
-3.5626166893319886
 10
-7.086739822682003
 20
-3.308616435331989
 10
-7.526680776682002
 20
-3.5626166893319886
 10
-7.526680776682002
 20
-4.070616689331989
 10
-7.086739822682003
 20
-4.324616689331989
  0
LWPOLYLINE
  5
B4
330
17
100
AcDbEntity
  8
0
100
AcDbPolyline
 90
6
 70
1
 10
-7.780680522682003
 20
-4.070616689331989
 10
-7.780680522682003
 20
-3.5626166893319886
 10
-8.220621476682002
 20
-3.308616435331989
 10
-8.660562176682003
 20
-3.5626166893319886
 10
-8.660562176682003
 20
-4.070616689331989
 10
-8.220621476682002
 20
-4.324616689331989
  0
LWPOLYLINE
  5
B5
330
17
100
AcDbEntity
  8
0
100
AcDbPolyline
 90
6
 70
1
 10
-8.914562176682002
 20
-4.070616689331989
 10
-8.914562176682002
 20
-3.5626166893319886
 10
-9.354503130682003
 20
-3.308616435331989
 10
-9.794443830682003
 20
-3.5626166893319886
 10
-9.794443830682003
 20
-4.070616689331989
 10
-9.354503130682003
 20
-4.324616689331989
  0
LWPOLYLINE
  5
B6
330
17
100
AcDbEntity
  8
0
100
AcDbPolyline
 90
6
 70
1
 10
-10.048443830682002
 20
-4.070616689331989
 10
-10.048443830682002
 20
-3.5626166893319886
 10
-10.488384784682003
 20
-3.308616435331989
 10
-10.928325738682002
 20
-3.5626166893319886
 10
-10.928325738682002
 20
-4.070616689331989
 10
-10.488384784682003
 20
-4.324616689331989
  0
LWPOLYLINE
  5
B7
330
17
100
AcDbEntity
  8
0
100
AcDbPolyline
 90
6
 70
1
 10
-11.182325484682003
 20
-4.070616689331989
 10
-11.182325484682003
 20
-3.5626166893319886
 10
-11.622266184682003
 20
-3.308616435331989
 10
-12.062207138682002
 20
-3.5626166893319886
 10
-12.062207138682002
 20
-4.070616689331989
 10
-11.622266184682003
 20
-4.324616689331989
  0
LWPOLYLINE
  5
B8
330
17
100
AcDbEntity
  8
0
100
AcDbPolyline
 90
6
 70
1
 10
-12.316207138682003
 20
-4.070616689331989
 10
-12.316207138682003
 20
-3.5626166893319886
 10
-12.756148092682002
 20
-3.308616435331989
 10
-13.196089046682001
 20
-3.5626166893319886
 10
-13.196089046682001
 20
-4.070616689331989
 10
-12.756148092682002
 20
-4.324616689331989
  0
LWPOLYLINE
  5
B9
330
17
100
AcDbEntity
  8
0
100
AcDbPolyline
 90
5
 70
1
 10
-13.450088792682003
 20
-4.070616689331989
 10
-13.450088792682003
 20
-3.5626166893319886
 10
-13.554652210682002
 20
-3.5022469853319884
 10
-13.961230772682004
 20
-4.2835088213319885
 10
-13.890029746682004
 20
-4.324616689331989
  0
LWPOLYLINE
  5
BA
330
17
100
AcDbEntity
  8
0
100
AcDbPolyline
 90
6
 70
1
 10
-4.945974990682004
 20
-5.052587293331989
 10
-4.945974990682004
 20
-4.544587293331989
 10
-5.385915944682003
 20
-4.290587293331989
 10
-5.825856644682003
 20
-4.544587293331989
 10
-5.825856644682003
 20
-5.052587293331989
 10
-5.385915944682003
 20
-5.306587293331989
  0
LWPOLYLINE
  5
BB
330
17
100
AcDbEntity
  8
0
100
AcDbPolyline
 90
6
 70
1
 10
-6.079856390682004
 20
-5.052587293331989
 10
-6.079856390682004
 20
-4.544587293331989
 10
-6.5197973446820034
 20
-4.290587293331989
 10
-6.959738298682003
 20
-4.544587293331989
 10
-6.959738298682003
 20
-5.052587293331989
 10
-6.5197973446820034
 20
-5.306587293331989
  0
LWPOLYLINE
  5
BC
330
17
100
AcDbEntity
  8
0
100
AcDbPolyline
 90
6
 70
1
 10
-7.213738298682004
 20
-5.052587293331989
 10
-7.213738298682004
 20
-4.544587293331989
 10
-7.653679252682004
 20
-4.290587293331989
 10
-8.093620206682003
 20
-4.544587293331989
 10
-8.093620206682003
 20
-5.052587293331989
 10
-7.653679252682004
 20
-5.306587293331989
  0
LWPOLYLINE
  5
BD
330
17
100
AcDbEntity
  8
0
100
AcDbPolyline
 90
6
 70
1
 10
-8.347619952682004
 20
-5.052587293331989
 10
-8.347619952682004
 20
-4.544587293331989
 10
-8.787560652682005
 20
-4.290587293331989
 10
-9.227501606682004
 20
-4.544587293331989
 10
-9.227501606682004
 20
-5.052587293331989
 10
-8.787560652682005
 20
-5.306587293331989
  0
LWPOLYLINE
  5
BE
330
17
100
AcDbEntity
  8
0
100
AcDbPolyline
 90
6
 70
1
 10
-9.481501606682004
 20
-5.052587293331989
 10
-9.481501606682004
 20
-4.544587293331989
 10
-9.921442560682005
 20
-4.290587293331989
 10
-10.361383260682004
 20
-4.544587293331989
 10
-10.361383260682004
 20
-5.052587293331989
 10
-9.921442560682005
 20
-5.306587293331989
  0
LWPOLYLINE
  5
BF
330
17
100
AcDbEntity
  8
0
100
AcDbPolyline
 90
6
 70
1
 10
-10.615383260682005
 20
-5.052587293331989
 10
-10.615383260682005
 20
-4.544587293331989
 10
-11.055324214682004
 20
-4.290587293331989
 10
-11.495264914682004
 20
-4.544587293331989
 10
-11.495264914682004
 20
-5.052587293331989
 10
-11.055324214682004
 20
-5.306587293331989
  0
LWPOLYLINE
  5
C0
330
17
100
AcDbEntity
  8
0
100
AcDbPolyline
 90
6
 70
1
 10
-11.749264660682005
 20
-5.052587293331989
 10
-11.749264660682005
 20
-4.544587293331989
 10
-12.189205614682004
 20
-4.290587293331989
 10
-12.629146568682005
 20
-4.544587293331989
 10
-12.629146568682005
 20
-5.052587293331989
 10
-12.189205614682004
 20
-5.306587293331989
  0
LWPOLYLINE
  5
C1
330
17
100
AcDbEntity
  8
0
100
AcDbPolyline
 90
6
 70
1
 10
-12.883146568682005
 20
-5.052587293331989
 10
-12.883146568682005
 20
-4.544587293331989
 10
-13.323087522682004
 20
-4.290587293331989
 10
-13.763028476682003
 20
-4.544587293331989
 10
-13.763028476682003
 20
-5.052587293331989
 10
-13.323087522682004
 20
-5.306587293331989
  0
LWPOLYLINE
  5
C2
330
17
100
AcDbEntity
  8
0
100
AcDbPolyline
 90
3
 70
1
 10
-4.586562196682003
 20
-4.483727115331989
 10
-4.691974990682003
 20
-4.544587293331989
 10
-4.691974990682003
 20
-4.738307505331989
  0
LWPOLYLINE
  5
C3
330
17
100
AcDbEntity
  8
0
100
AcDbPolyline
 90
5
 70
1
 10
-14.017028222682004
 20
-5.052587293331989
 10
-14.017028222682004
 20
-4.544587293331989
 10
-14.078599600682004
 20
-4.509038977331989
 10
-14.485177908682004
 20
-5.2903008133319895
 10
-14.456968922682004
 20
-5.306587293331989
  0
LWPOLYLINE
  5
C4
330
17
100
AcDbEntity
  8
0
100
AcDbPolyline
 90
6
 70
1
 10
-5.512909086682004
 20
-6.034557643331989
 10
-5.512909086682004
 20
-5.526557643331989
 10
-5.9528497866820045
 20
-5.272557643331989
 10
-6.3927907406820035
 20
-5.526557643331989
 10
-6.3927907406820035
 20
-6.034557643331989
 10
-5.9528497866820045
 20
-6.288557643331989
  0
LWPOLYLINE
  5
C5
330
17
100
AcDbEntity
  8
0
100
AcDbPolyline
 90
6
 70
1
 10
-6.646790486682004
 20
-6.034557643331989
 10
-6.646790486682004
 20
-5.526557643331989
 10
-7.086731440682004
 20
-5.272557643331989
 10
-7.526672394682004
 20
-5.526557643331989
 10
-7.526672394682004
 20
-6.034557643331989
 10
-7.086731440682004
 20
-6.288557643331989
  0
LWPOLYLINE
  5
C6
330
17
100
AcDbEntity
  8
0
100
AcDbPolyline
 90
6
 70
1
 10
-7.7806723946820044
 20
-6.034557643331989
 10
-7.7806723946820044
 20
-5.526557643331989
 10
-8.220613348682004
 20
-5.272557643331989
 10
-8.660554048682005
 20
-5.526557643331989
 10
-8.660554048682005
 20
-6.034557643331989
 10
-8.220613348682004
 20
-6.288557643331989
  0
LWPOLYLINE
  5
C7
330
17
100
AcDbEntity
  8
0
100
AcDbPolyline
 90
6
 70
1
 10
-8.914553794682005
 20
-6.034557643331989
 10
-8.914553794682005
 20
-5.526557643331989
 10
-9.354494748682006
 20
-5.272557643331989
 10
-9.794435702682005
 20
-5.526557643331989
 10
-9.794435702682005
 20
-6.034557643331989
 10
-9.354494748682006
 20
-6.288557643331989
  0
LWPOLYLINE
  5
C8
330
17
100
AcDbEntity
  8
0
100
AcDbPolyline
 90
6
 70
1
 10
-10.048435702682005
 20
-6.034557643331989
 10
-10.048435702682005
 20
-5.526557643331989
 10
-10.488376656682005
 20
-5.272557643331989
 10
-10.928317356682005
 20
-5.526557643331989
 10
-10.928317356682005
 20
-6.034557643331989
 10
-10.488376656682005
 20
-6.288557643331989
  0
LWPOLYLINE
  5
C9
330
17
100
AcDbEntity
  8
0
100
AcDbPolyline
 90
6
 70
1
 10
-11.182317356682006
 20
-6.034557643331989
 10
-11.182317356682006
 20
-5.526557643331989
 10
-11.622258056682005
 20
-5.272557643331989
 10
-12.062199010682004
 20
-5.526557643331989
 10
-12.062199010682004
 20
-6.034557643331989
 10
-11.622258056682005
 20
-6.288557643331989
  0
LWPOLYLINE
  5
CA
330
17
100
AcDbEntity
  8
0
100
AcDbPolyline
 90
6
 70
1
 10
-12.316198756682006
 20
-6.034557643331989
 10
-12.316198756682006
 20
-5.526557643331989
 10
-12.756139710682005
 20
-5.272557643331989
 10
-13.196080664682006
 20
-5.526557643331989
 10
-13.196080664682006
 20
-6.034557643331989
 10
-12.756139710682005
 20
-6.288557643331989
  0
LWPOLYLINE
  5
CB
330
17
100
AcDbEntity
  8
0
100
AcDbPolyline
 90
6
 70
1
 10
-13.450080664682005
 20
-6.034557643331989
 10
-13.450080664682005
 20
-5.526557643331989
 10
-13.890021618682004
 20
-5.272557643331989
 10
-14.329962318682005
 20
-5.526557643331989
 10
-14.329962318682005
 20
-6.034557643331989
 10
-13.890021618682004
 20
-6.288557643331989
  0
LWPOLYLINE
  5
CC
330
17
100
AcDbEntity
  8
0
100
AcDbPolyline
 90
4
 70
1
 10
-4.942790084682004
 20
-5.3440461973319895
 10
-5.258909086682004
 20
-5.526557643331989
 10
-5.258909086682004
 20
-6.034557643331989
 10
-5.234533722682004
 20
-6.048630767331989
  0
LWPOLYLINE
  5
CD
330
17
100
AcDbEntity
  8
0
100
AcDbPolyline
 90
5
 70
1
 10
-14.583962064682003
 20
-6.034557643331989
 10
-14.583962064682003
 20
-5.526557643331989
 10
-14.602545466682004
 20
-5.5158284293319895
 10
-14.901096558682005
 20
-6.089510289331989
 10
-14.958200838682005
 20
-6.250624521331989
  0
LWPOLYLINE
  5
CE
330
17
100
AcDbEntity
  8
0
100
AcDbPolyline
 90
5
 70
1
 10
-5.332545210682003
 20
-6.285336669331989
 10
-5.385907562682003
 20
-6.2545279933319895
 10
-5.825848262682003
 20
-6.508527993331989
 10
-5.825848262682003
 20
-7.016527993331989
 10
-5.672068534682002
 20
-7.10531293133199
  0
LWPOLYLINE
  5
CF
330
17
100
AcDbEntity
  8
0
100
AcDbPolyline
 90
6
 70
1
 10
-6.0798482626820025
 20
-7.01652799333199
 10
-6.0798482626820025
 20
-6.50852799333199
 10
-6.519789216682002
 20
-6.25452799333199
 10
-6.959730170682002
 20
-6.50852799333199
 10
-6.959730170682002
 20
-7.01652799333199
 10
-6.519789216682002
 20
-7.270528247331991
  0
LWPOLYLINE
  5
D0
330
17
100
AcDbEntity
  8
0
100
AcDbPolyline
 90
6
 70
1
 10
-7.213729916682002
 20
-7.01652799333199
 10
-7.213729916682002
 20
-6.50852799333199
 10
-7.653670870682002
 20
-6.25452799333199
 10
-8.093611824682002
 20
-6.50852799333199
 10
-8.093611824682002
 20
-7.01652799333199
 10
-7.653670870682002
 20
-7.270528247331991
  0
LWPOLYLINE
  5
D1
330
17
100
AcDbEntity
  8
0
100
AcDbPolyline
 90
6
 70
1
 10
-8.347611824682001
 20
-7.01652799333199
 10
-8.347611824682001
 20
-6.50852799333199
 10
-8.787552524682003
 20
-6.25452799333199
 10
-9.227493224682002
 20
-6.50852799333199
 10
-9.227493224682002
 20
-7.01652799333199
 10
-8.787552524682003
 20
-7.270528247331991
  0
LWPOLYLINE
  5
D2
330
17
100
AcDbEntity
  8
0
100
AcDbPolyline
 90
6
 70
1
 10
-9.481493224682001
 20
-7.01652799333199
 10
-9.481493224682001
 20
-6.50852799333199
 10
-9.921434178682002
 20
-6.25452799333199
 10
-10.361375132682001
 20
-6.50852799333199
 10
-10.361375132682001
 20
-7.01652799333199
 10
-9.921434178682002
 20
-7.270528247331991
  0
LWPOLYLINE
  5
D3
330
17
100
AcDbEntity
  8
0
100
AcDbPolyline
 90
6
 70
1
 10
-10.615375132682
 20
-7.01652799333199
 10
-10.615375132682
 20
-6.50852799333199
 10
-11.055315832682002
 20
-6.25452799333199
 10
-11.495256532682003
 20
-6.50852799333199
 10
-11.495256532682003
 20
-7.01652799333199
 10
-11.055315832682002
 20
-7.270528247331991
  0
LWPOLYLINE
  5
D4
330
17
100
AcDbEntity
  8
0
100
AcDbPolyline
 90
6
 70
1
 10
-11.749256532682002
 20
-7.01652799333199
 10
-11.749256532682002
 20
-6.50852799333199
 10
-12.189197486682001
 20
-6.25452799333199
 10
-12.629138440682
 20
-6.50852799333199
 10
-12.629138440682
 20
-7.01652799333199
 10
-12.189197486682001
 20
-7.270528247331991
  0
LWPOLYLINE
  5
D5
330
17
100
AcDbEntity
  8
0
100
AcDbPolyline
 90
6
 70
1
 10
-12.883138186682002
 20
-7.01652799333199
 10
-12.883138186682002
 20
-6.50852799333199
 10
-13.323079140682001
 20
-6.25452799333199
 10
-13.763020094682002
 20
-6.50852799333199
 10
-13.763020094682002
 20
-7.01652799333199
 10
-13.323079140682001
 20
-7.270528247331991
  0
LWPOLYLINE
  5
D6
330
17
100
AcDbEntity
  8
0
100
AcDbPolyline
 90
6
 70
1
 10
-14.017020094682001
 20
-7.01652799333199
 10
-14.017020094682001
 20
-6.50852799333199
 10
-14.456960794682
 20
-6.25452799333199
 10
-14.896901494682002
 20
-6.50852799333199
 10
-14.896901494682002
 20
-7.01652799333199
 10
-14.456960794682
 20
-7.270528247331991
  0
LWPOLYLINE
  5
D7
330
17
100
AcDbEntity
  8
0
100
AcDbPolyline
 90
3
 70
1
 10
-15.150901494682001
 20
-7.01652799333199
 10
-15.150901494682001
 20
-6.794311775331991
 10
-15.249925934682002
 20
-7.073699837331991
  0
LWPOLYLINE
  5
D8
330
17
100
AcDbEntity
  8
0
100
AcDbPolyline
 90
5
 70
1
 10
-5.770079260682
 20
-7.3420165473319905
 10
-5.952841404682001
 20
-7.236498597331991
 10
-6.392782358682001
 20
-7.490498851331991
 10
-6.392782358682001
 20
-7.998498851331991
 10
-6.109602584682
 20
-8.161992809331991
  0
LWPOLYLINE
  5
D9
330
17
100
AcDbEntity
  8
0
100
AcDbPolyline
 90
6
 70
1
 10
-6.6467823586820005
 20
-7.998498851331992
 10
-6.6467823586820005
 20
-7.490498851331992
 10
-7.086723312682
 20
-7.236498597331992
 10
-7.526664266682
 20
-7.490498851331992
 10
-7.526664266682
 20
-7.998498851331992
 10
-7.086723312682
 20
-8.252498851331993
  0
LWPOLYLINE
  5
DA
330
17
100
AcDbEntity
  8
0
100
AcDbPolyline
 90
6
 70
1
 10
-7.780664012682
 20
-7.998498851331992
 10
-7.780664012682
 20
-7.490498851331992
 10
-8.220604966682002
 20
-7.236498597331992
 10
-8.660545666682001
 20
-7.490498851331992
 10
-8.660545666682001
 20
-7.998498851331992
 10
-8.220604966682002
 20
-8.252498851331993
  0
LWPOLYLINE
  5
DB
330
17
100
AcDbEntity
  8
0
100
AcDbPolyline
 90
6
 70
1
 10
-8.914545666682
 20
-7.998498851331992
 10
-8.914545666682
 20
-7.490498851331992
 10
-9.354486620682001
 20
-7.236498597331992
 10
-9.794427574682
 20
-7.490498851331992
 10
-9.794427574682
 20
-7.998498851331992
 10
-9.354486620682001
 20
-8.252498851331993
  0
LWPOLYLINE
  5
DC
330
17
100
AcDbEntity
  8
0
100
AcDbPolyline
 90
6
 70
1
 10
-10.048427320682
 20
-7.998498851331992
 10
-10.048427320682
 20
-7.490498851331992
 10
-10.488368274682001
 20
-7.236498597331992
 10
-10.928309228682
 20
-7.490498851331992
 10
-10.928309228682
 20
-7.998498851331992
 10
-10.488368274682001
 20
-8.252498851331993
  0
LWPOLYLINE
  5
DD
330
17
100
AcDbEntity
  8
0
100
AcDbPolyline
 90
6
 70
1
 10
-11.182309228682
 20
-7.998498851331992
 10
-11.182309228682
 20
-7.490498851331992
 10
-11.622249674682
 20
-7.236498597331992
 10
-12.062190628682
 20
-7.490498851331992
 10
-12.062190628682
 20
-7.998498851331992
 10
-11.622249674682
 20
-8.252498851331993
  0
LWPOLYLINE
  5
DE
330
17
100
AcDbEntity
  8
0
100
AcDbPolyline
 90
6
 70
1
 10
-12.316190628682
 20
-7.998498851331992
 10
-12.316190628682
 20
-7.490498851331992
 10
-12.756131582681999
 20
-7.236498597331992
 10
-13.196072536681998
 20
-7.490498851331992
 10
-13.196072536681998
 20
-7.998498851331992
 10
-12.756131582681999
 20
-8.252498851331993
  0
LWPOLYLINE
  5
DF
330
17
100
AcDbEntity
  8
0
100
AcDbPolyline
 90
6
 70
1
 10
-13.450072282682
 20
-7.998498851331992
 10
-13.450072282682
 20
-7.490498851331992
 10
-13.890013236681998
 20
-7.236498597331992
 10
-14.329953936682
 20
-7.490498851331992
 10
-14.329953936682
 20
-7.998498851331992
 10
-13.890013236681998
 20
-8.252498851331993
  0
LWPOLYLINE
  5
E0
330
17
100
AcDbEntity
  8
0
100
AcDbPolyline
 90
7
 70
1
 10
-14.583953936681999
 20
-7.998498851331992
 10
-14.583953936681999
 20
-7.490498851331992
 10
-15.023894890681998
 20
-7.236498597331992
 10
-15.380625698681998
 20
-7.442457545331991
 10
-15.463835844681999
 20
-7.677226951331992
 10
-15.463835844681999
 20
-7.998498851331992
 10
-15.023894890681998
 20
-8.252498851331993
  0
LWPOLYLINE
  5
E1
330
17
100
AcDbEntity
  8
0
100
AcDbPolyline
 90
5
 70
1
 10
-6.207614072681999
 20
-8.398698711331992
 10
-6.519780834681998
 20
-8.218469201331992
 10
-6.959721788681998
 20
-8.472469201331991
 10
-6.959721788681998
 20
-8.980469201331992
 10
-6.547137396681998
 20
-9.218674973331993
  0
LWPOLYLINE
  5
E2
330
17
100
AcDbEntity
  8
0
100
AcDbPolyline
 90
6
 70
1
 10
-7.2137217886819975
 20
-8.980469201331992
 10
-7.2137217886819975
 20
-8.472469201331991
 10
-7.653662742681997
 20
-8.218469201331992
 10
-8.093603696681997
 20
-8.472469201331991
 10
-8.093603696681997
 20
-8.980469201331992
 10
-7.653662742681997
 20
-9.234469201331992
  0
LWPOLYLINE
  5
E3
330
17
100
AcDbEntity
  8
0
100
AcDbPolyline
 90
6
 70
1
 10
-8.347603442681997
 20
-8.980469201331992
 10
-8.347603442681997
 20
-8.472469201331991
 10
-8.787544142681998
 20
-8.218469201331992
 10
-9.227485096681997
 20
-8.472469201331991
 10
-9.227485096681997
 20
-8.980469201331992
 10
-8.787544142681998
 20
-9.234469201331992
  0
LWPOLYLINE
  5
E4
330
17
100
AcDbEntity
  8
0
100
AcDbPolyline
 90
6
 70
1
 10
-9.481485096681997
 20
-8.980469201331992
 10
-9.481485096681997
 20
-8.472469201331991
 10
-9.921426050681998
 20
-8.218469201331992
 10
-10.361367004681997
 20
-8.472469201331991
 10
-10.361367004681997
 20
-8.980469201331992
 10
-9.921426050681998
 20
-9.234469201331992
  0
LWPOLYLINE
  5
E5
330
17
100
AcDbEntity
  8
0
100
AcDbPolyline
 90
6
 70
1
 10
-10.615366750681998
 20
-8.980469201331992
 10
-10.615366750681998
 20
-8.472469201331991
 10
-11.055307704681997
 20
-8.218469201331992
 10
-11.495248404681996
 20
-8.472469201331991
 10
-11.495248404681996
 20
-8.980469201331992
 10
-11.055307704681997
 20
-9.234469201331992
  0
LWPOLYLINE
  5
E6
330
17
100
AcDbEntity
  8
0
100
AcDbPolyline
 90
6
 70
1
 10
-11.749248404681998
 20
-8.980469201331992
 10
-11.749248404681998
 20
-8.472469201331991
 10
-12.189189104681997
 20
-8.218469201331992
 10
-12.629130058681998
 20
-8.472469201331991
 10
-12.629130058681998
 20
-8.980469201331992
 10
-12.189189104681997
 20
-9.234469201331992
  0
LWPOLYLINE
  5
E7
330
17
100
AcDbEntity
  8
0
100
AcDbPolyline
 90
6
 70
1
 10
-12.883130058681997
 20
-8.980469201331992
 10
-12.883130058681997
 20
-8.472469201331991
 10
-13.323071012681996
 20
-8.218469201331992
 10
-13.763011966681997
 20
-8.472469201331991
 10
-13.763011966681997
 20
-8.980469201331992
 10
-13.323071012681996
 20
-9.234469201331992
  0
LWPOLYLINE
  5
E8
330
17
100
AcDbEntity
  8
0
100
AcDbPolyline
 90
6
 70
1
 10
-14.017011712681997
 20
-8.980469201331992
 10
-14.017011712681997
 20
-8.472469201331991
 10
-14.456952412681998
 20
-8.218469201331992
 10
-14.896893366681997
 20
-8.472469201331991
 10
-14.896893366681997
 20
-8.980469201331992
 10
-14.456952412681998
 20
-9.234469201331992
  0
LWPOLYLINE
  5
E9
330
17
100
AcDbEntity
  8
0
100
AcDbPolyline
 90
6
 70
1
 10
-15.150893366681997
 20
-8.980469201331992
 10
-15.150893366681997
 20
-8.472469201331991
 10
-15.590834320681996
 20
-8.218469201331992
 10
-15.672828568681997
 20
-8.265808705331994
 10
-15.948894056681997
 20
-9.027743427331993
 10
-15.590834320681996
 20
-9.234469201331994
  0
LWPOLYLINE
  5
EA
330
17
100
AcDbEntity
  8
0
100
AcDbPolyline
 90
8
 70
1
 10
-6.858081910681996
 20
-10.084438545331993
 10
-6.6485275926819964
 20
-9.463540371331993
 10
-6.646774230681996
 20
-9.459305937331992
 10
-6.646774230681996
 20
-9.454439805331994
 10
-7.086714930681996
 20
-9.200439805331992
 10
-7.526655884681996
 20
-9.454439805331994
 10
-7.526655884681996
 20
-9.962439805331993
 10
-7.086714930681996
 20
-10.216439805331992
  0
LWPOLYLINE
  5
EB
330
17
100
AcDbEntity
  8
0
100
AcDbPolyline
 90
6
 70
1
 10
-7.7806558846819955
 20
-9.962439805331993
 10
-7.7806558846819955
 20
-9.454439805331994
 10
-8.220596838681995
 20
-9.200439805331992
 10
-8.660537538681996
 20
-9.454439805331994
 10
-8.660537538681996
 20
-9.962439805331993
 10
-8.220596838681995
 20
-10.216439805331992
  0
LWPOLYLINE
  5
EC
330
17
100
AcDbEntity
  8
0
100
AcDbPolyline
 90
6
 70
1
 10
-8.914537284681996
 20
-9.962439805331993
 10
-8.914537284681996
 20
-9.454439805331994
 10
-9.354478238681997
 20
-9.200439805331992
 10
-9.794419192681996
 20
-9.454439805331994
 10
-9.794419192681996
 20
-9.962439805331993
 10
-9.354478238681997
 20
-10.216439805331992
  0
LWPOLYLINE
  5
ED
330
17
100
AcDbEntity
  8
0
100
AcDbPolyline
 90
6
 70
1
 10
-10.048419192681996
 20
-9.962439805331993
 10
-10.048419192681996
 20
-9.454439805331994
 10
-10.488360146681996
 20
-9.200439805331992
 10
-10.928301100681995
 20
-9.454439805331994
 10
-10.928301100681995
 20
-9.962439805331993
 10
-10.488360146681996
 20
-10.216439805331992
  0
LWPOLYLINE
  5
EE
330
17
100
AcDbEntity
  8
0
100
AcDbPolyline
 90
6
 70
1
 10
-11.182300846681997
 20
-9.962439805331993
 10
-11.182300846681997
 20
-9.454439805331994
 10
-11.622241546681996
 20
-9.200439805331992
 10
-12.062182500681995
 20
-9.454439805331994
 10
-12.062182500681995
 20
-9.962439805331993
 10
-11.622241546681996
 20
-10.216439805331992
  0
LWPOLYLINE
  5
EF
330
17
100
AcDbEntity
  8
0
100
AcDbPolyline
 90
6
 70
1
 10
-12.316182500681997
 20
-9.962439805331993
 10
-12.316182500681997
 20
-9.454439805331994
 10
-12.756123200681996
 20
-9.200439805331992
 10
-13.196064154681997
 20
-9.454439805331994
 10
-13.196064154681997
 20
-9.962439805331993
 10
-12.756123200681996
 20
-10.216439805331992
  0
LWPOLYLINE
  5
F0
330
17
100
AcDbEntity
  8
0
100
AcDbPolyline
 90
6
 70
1
 10
-13.450064154681996
 20
-9.962439805331993
 10
-13.450064154681996
 20
-9.454439805331994
 10
-13.890005108681995
 20
-9.200439805331992
 10
-14.329945808681996
 20
-9.454439805331994
 10
-14.329945808681996
 20
-9.962439805331993
 10
-13.890005108681995
 20
-10.216439805331992
  0
LWPOLYLINE
  5
F1
330
17
100
AcDbEntity
  8
0
100
AcDbPolyline
 90
6
 70
1
 10
-14.583945554681996
 20
-9.962439805331993
 10
-14.583945554681996
 20
-9.454439805331994
 10
-15.023886508681997
 20
-9.200439805331992
 10
-15.463827462681996
 20
-9.454439805331994
 10
-15.463827462681996
 20
-9.962439805331993
 10
-15.023886508681997
 20
-10.216439805331992
  0
LWPOLYLINE
  5
F2
330
17
100
AcDbEntity
  8
0
100
AcDbPolyline
 90
6
 70
1
 10
-15.717827462681996
 20
-9.962439805331993
 10
-15.717827462681996
 20
-9.454439805331994
 10
-16.036775770681995
 20
-9.270294885331992
 10
-16.328860530681993
 20
-10.076442625331994
 10
-16.338776690681993
 20
-10.111934807331993
 10
-16.157768416681993
 20
-10.216439805331992
  0
LWPOLYLINE
  5
F3
330
17
100
AcDbEntity
  8
0
100
AcDbPolyline
 90
6
 70
1
 10
-7.213713660681993
 20
-10.944410409331994
 10
-7.213713660681993
 20
-10.436410155331993
 10
-7.653654360681993
 20
-10.182410155331993
 10
-8.093595314681993
 20
-10.436410155331993
 10
-8.093595314681993
 20
-10.944410409331994
 10
-7.653654360681993
 20
-11.198410409331993
  0
LWPOLYLINE
  5
F4
330
17
100
AcDbEntity
  8
0
100
AcDbPolyline
 90
6
 70
1
 10
-8.347595314681993
 20
-10.944410409331994
 10
-8.347595314681993
 20
-10.436410155331993
 10
-8.787536014681994
 20
-10.182410155331993
 10
-9.227476968681993
 20
-10.436410155331993
 10
-9.227476968681993
 20
-10.944410409331994
 10
-8.787536014681994
 20
-11.198410409331993
  0
LWPOLYLINE
  5
F5
330
17
100
AcDbEntity
  8
0
100
AcDbPolyline
 90
6
 70
1
 10
-9.481476714681994
 20
-10.944410409331994
 10
-9.481476714681994
 20
-10.436410155331993
 10
-9.921417668681993
 20
-10.182410155331993
 10
-10.361358622681992
 20
-10.436410155331993
 10
-10.361358622681992
 20
-10.944410409331994
 10
-9.921417668681993
 20
-11.198410409331993
  0
LWPOLYLINE
  5
F6
330
17
100
AcDbEntity
  8
0
100
AcDbPolyline
 90
6
 70
1
 10
-10.615358622681992
 20
-10.944410409331994
 10
-10.615358622681992
 20
-10.436410155331993
 10
-11.055299576681993
 20
-10.182410155331993
 10
-11.495240022681992
 20
-10.436410155331993
 10
-11.495240022681992
 20
-10.944410409331994
 10
-11.05529957668199
 20
-11.198410409331993
  0
LWPOLYLINE
  5
F7
330
17
100
AcDbEntity
  8
0
100
AcDbPolyline
 90
6
 70
1
 10
-11.749240022681992
 20
-10.944410409331994
 10
-11.749240022681992
 20
-10.436410155331993
 10
-12.18918097668199
 20
-10.182410155331993
 10
-12.62912193068199
 20
-10.436410155331993
 10
-12.62912193068199
 20
-10.944410409331994
 10
-12.18918097668199
 20
-11.198410409331993
  0
LWPOLYLINE
  5
F8
330
17
100
AcDbEntity
  8
0
100
AcDbPolyline
 90
6
 70
1
 10
-12.883121930681991
 20
-10.944410409331994
 10
-12.883121930681991
 20
-10.436410155331993
 10
-13.32306263068199
 20
-10.182410155331993
 10
-13.763003584681991
 20
-10.436410155331993
 10
-13.763003584681991
 20
-10.944410409331994
 10
-13.32306263068199
 20
-11.198410409331993
  0
LWPOLYLINE
  5
F9
330
17
100
AcDbEntity
  8
0
100
AcDbPolyline
 90
6
 70
1
 10
-14.01700358468199
 20
-10.944410409331994
 10
-14.01700358468199
 20
-10.436410155331993
 10
-14.45694428468199
 20
-10.182410155331993
 10
-14.89688523868199
 20
-10.436410155331993
 10
-14.89688523868199
 20
-10.944410409331994
 10
-14.45694428468199
 20
-11.198410409331993
  0
LWPOLYLINE
  5
FA
330
17
100
AcDbEntity
  8
0
100
AcDbPolyline
 90
7
 70
1
 10
-15.15088498468199
 20
-10.944410409331994
 10
-15.15088498468199
 20
-10.436410155331993
 10
-15.590825938681991
 20
-10.182410155331993
 10
-16.03076689268199
 20
-10.436410155331993
 10
-16.03076689268199
 20
-10.848721243331994
 10
-15.971157410681991
 20
-10.891639877331993
 10
-15.31432077668199
 20
-11.038770139331994
  0
LWPOLYLINE
  5
FB
330
17
100
AcDbEntity
  8
0
100
AcDbPolyline
 90
5
 70
1
 10
-16.28476689268199
 20
-10.436410155331993
 10
-16.40933738268199
 20
-10.364489293331994
 10
-16.45856994868199
 20
-10.540704587331994
 10
-16.458570710681993
 20
-10.540704841331994
 10
-16.28476689268199
 20
-10.665842767331993
  0
LWPOLYLINE
  5
FC
330
17
100
AcDbEntity
  8
0
100
AcDbPolyline
 90
7
 70
1
 10
-7.06324050468199
 20
-11.470239939331995
 10
-7.0470703566819894
 20
-11.187265143331993
 10
-7.08670680268199
 20
-11.164381013331994
 10
-7.52664775668199
 20
-11.418381013331993
 10
-7.52664775668199
 20
-11.926381013331994
 10
-7.383895438681989
 20
-12.008799187331993
 10
-7.065960336681989
 20
-12.043870745331995
  0
LWPOLYLINE
  5
FD
330
17
100
AcDbEntity
  8
0
100
AcDbPolyline
 90
6
 70
1
 10
-7.780647756681989
 20
-11.926381013331994
 10
-7.780647756681989
 20
-11.418381013331993
 10
-8.22058845668199
 20
-11.164381013331994
 10
-8.660529156681989
 20
-11.418381013331993
 10
-8.660529156681989
 20
-11.867972951331994
 10
-7.836855924681989
 20
-11.958832815331995
  0
LWPOLYLINE
  5
FE
330
17
100
AcDbEntity
  8
0
100
AcDbPolyline
 90
5
 70
1
 10
-8.914529156681988
 20
-11.418381013331993
 10
-9.354470110681989
 20
-11.164381013331994
 10
-9.794411064681988
 20
-11.418381013331993
 10
-9.794411064681988
 20
-11.742893699331994
 10
-8.914529156681988
 20
-11.839953957331993
  0
LWPOLYLINE
  5
FF
330
17
100
AcDbEntity
  8
0
100
AcDbPolyline
 90
5
 70
1
 10
-10.048410810681988
 20
-11.418381013331992
 10
-10.488351764681989
 20
-11.164381013331992
 10
-10.928292718681988
 20
-11.418381013331992
 10
-10.928292718681988
 20
-11.617814701331993
 10
-10.048410810681988
 20
-11.714874959331992
  0
LWPOLYLINE
  5
100
330
17
100
AcDbEntity
  8
0
100
AcDbPolyline
 90
5
 70
1
 10
-11.182292718681987
 20
-11.418381013331992
 10
-11.622233418681988
 20
-11.164381013331992
 10
-12.06217411868199
 20
-11.418381013331992
 10
-12.06217411868199
 20
-11.492735449331994
 10
-11.182292718681987
 20
-11.589795707331993
  0
LWPOLYLINE
  5
101
330
17
100
AcDbEntity
  8
0
100
AcDbPolyline
 90
5
 70
1
 10
-12.316174118681989
 20
-11.418381013331992
 10
-12.756115072681988
 20
-11.164381013331992
 10
-13.115239830681988
 20
-11.371721721331992
 10
-12.811212244681988
 20
-11.410108741331992
 10
-12.316174118681989
 20
-11.464716709331993
  0
LWPOLYLINE
  5
102
330
17
100
AcDbEntity
  8
0
100
AcDbPolyline
 90
3
 70
1
 10
-13.889996726681987
 20
-11.164381013331994
 10
-14.045648434681988
 20
-11.254246721331995
 10
-13.64720981068199
 20
-11.304554215331995
  0
LWPOLYLINE
  5
103
330
17
100
AcDbEntity
  8
0
100
AcDbPolyline
 90
7
 70
1
 10
16.030776299318013
 20
9.676970242668006
 10
16.030776299318013
 20
10.184970242668005
 10
15.828271243318012
 20
10.301886442668005
 10
15.352268639318012
 20
10.301233662668006
 10
15.150894645318013
 20
10.184970242668005
 10
15.150894645318013
 20
9.676970242668006
 10
15.590835345318013
 20
9.422970242668006
  0
LWPOLYLINE
  5
104
330
17
100
AcDbEntity
  8
0
100
AcDbPolyline
 90
7
 70
1
 10
14.896894899318012
 20
9.676970242668006
 10
14.896894899318012
 20
10.184970242668005
 10
14.697077163318012
 20
10.300335010668006
 10
14.215687219318012
 20
10.299674864668006
 10
14.017012991318012
 20
10.184970242668005
 10
14.017012991318012
 20
9.676970242668006
 10
14.456953945318013
 20
9.422970242668006
  0
LWPOLYLINE
  5
105
330
17
100
AcDbEntity
  8
0
100
AcDbPolyline
 90
7
 70
1
 10
13.763012991318012
 20
9.676970242668006
 10
13.763012991318012
 20
10.184970242668005
 10
13.565882321318012
 20
10.298783578668006
 10
13.079105545318013
 20
10.298116066668005
 10
12.883131337318012
 20
10.184970242668005
 10
12.883131337318012
 20
9.676970242668006
 10
13.323072037318013
 20
9.422970242668006
  0
LWPOLYLINE
  5
106
330
17
100
AcDbEntity
  8
0
100
AcDbPolyline
 90
7
 70
1
 10
12.629131337318013
 20
9.676970242668006
 10
12.629131337318013
 20
10.184970242668005
 10
12.434687987318014
 20
10.297232146668005
 10
11.942523871318013
 20
10.296557268668005
 10
11.749249683318013
 20
10.184970242668005
 10
11.749249683318013
 20
9.676970242668006
 10
12.189190637318012
 20
9.422970242668006
  0
LWPOLYLINE
  5
107
330
17
100
AcDbEntity
  8
0
100
AcDbPolyline
 90
7
 70
1
 10
11.495249937318013
 20
9.676970242668006
 10
11.495249937318013
 20
10.184970242668005
 10
11.303493653318013
 20
10.295680714668006
 10
10.805942451318012
 20
10.294998470668006
 10
10.615368029318013
 20
10.184970242668005
 10
10.615368029318013
 20
9.676970242668006
 10
11.055308983318012
 20
9.422970242668006
  0
LWPOLYLINE
  5
108
330
17
100
AcDbEntity
  8
0
100
AcDbPolyline
 90
7
 70
1
 10
10.361368029318013
 20
9.676970242668006
 10
10.361368029318013
 20
10.184970242668005
 10
10.172299065318013
 20
10.294129282668006
 10
9.669360523318014
 20
10.293439418668006
 10
9.481486121318014
 20
10.184970242668005
 10
9.481486121318014
 20
9.676970242668006
 10
9.921427075318013
 20
9.422970242668006
  0
LWPOLYLINE
  5
109
330
17
100
AcDbEntity
  8
0
100
AcDbPolyline
 90
8
 70
1
 10
9.227486375318014
 20
9.676970242668006
 10
9.227486375318014
 20
10.184970242668005
 10
9.041104477318013
 20
10.292577850668005
 10
8.532779103318013
 20
10.291880620668005
 10
8.357672011318014
 20
10.190782524668005
 10
8.347604721318016
 20
10.165168656668005
 10
8.347604721318016
 20
9.676970242668006
 10
8.787545675318015
 20
9.422970242668006
  0
LWPOLYLINE
  5
10A
330
17
100
AcDbEntity
  8
0
100
AcDbPolyline
 90
3
 70
1
 10
16.449861059318017
 20
10.280281964668005
 10
16.284776299318015
 20
10.184970242668005
 10
16.284776299318015
 20
9.818660078668005
  0
LWPOLYLINE
  5
10B
330
17
100
AcDbEntity
  8
0
100
AcDbPolyline
 90
7
 70
1
 10
15.353958247318017
 20
8.631561360668005
 10
15.463836869318015
 20
8.694999892668005
 10
15.463836869318015
 20
9.202999892668005
 10
15.023896169318016
 20
9.456999892668005
 10
14.583955469318015
 20
9.202999892668005
 10
14.583955469318015
 20
8.694999892668005
 10
14.706671505318015
 20
8.624149640668007
  0
LWPOLYLINE
  5
10C
330
17
100
AcDbEntity
  8
0
100
AcDbPolyline
 90
7
 70
1
 10
14.197133789318016
 20
8.618315260668005
 10
14.329955469318016
 20
8.694999892668005
 10
14.329955469318016
 20
9.202999892668005
 10
13.890014515318017
 20
9.456999892668005
 10
13.450073561318016
 20
9.202999892668005
 10
13.450073561318016
 20
8.694999892668005
 10
13.594840353318016
 20
8.611418652668005
  0
LWPOLYLINE
  5
10D
330
17
100
AcDbEntity
  8
0
100
AcDbPolyline
 90
8
 70
1
 10
12.965424797318015
 20
8.604211656668006
 10
13.040308823318014
 20
8.605069160668007
 10
13.196073561318014
 20
8.694999892668006
 10
13.196073561318014
 20
9.202999892668007
 10
12.756132607318015
 20
9.456999892668007
 10
12.316192161318016
 20
9.202999892668007
 10
12.316192161318016
 20
8.694999892668006
 10
12.617090975318016
 20
8.521275830668007
  0
LWPOLYLINE
  5
10E
330
17
100
AcDbEntity
  8
0
100
AcDbPolyline
 90
6
 70
1
 10
12.062192161318016
 20
8.694999892668005
 10
12.062192161318016
 20
9.202999892668005
 10
11.622251207318016
 20
9.456999892668005
 10
11.182310253318017
 20
9.202999892668005
 10
11.182310253318017
 20
8.694999892668005
 10
11.622251207318016
 20
8.440999892668005
  0
LWPOLYLINE
  5
10F
330
17
100
AcDbEntity
  8
0
100
AcDbPolyline
 90
6
 70
1
 10
10.928310507318017
 20
8.694999892668005
 10
10.928310507318017
 20
9.202999892668005
 10
10.488369553318016
 20
9.456999892668005
 10
10.048428599318017
 20
9.202999892668005
 10
10.048428599318017
 20
8.694999892668005
 10
10.488369553318016
 20
8.440999892668005
  0
LWPOLYLINE
  5
110
330
17
100
AcDbEntity
  8
0
100
AcDbPolyline
 90
6
 70
1
 10
9.794428599318017
 20
8.694999892668005
 10
9.794428599318017
 20
9.202999892668005
 10
9.354487645318017
 20
9.456999892668005
 10
8.914547199318017
 20
9.202999892668005
 10
8.914547199318017
 20
8.694999892668005
 10
9.354487645318017
 20
8.440999892668005
  0
LWPOLYLINE
  5
111
330
17
100
AcDbEntity
  8
0
100
AcDbPolyline
 90
7
 70
1
 10
8.660547199318016
 20
8.694999892668005
 10
8.660547199318016
 20
9.202999892668005
 10
8.220606245318017
 20
9.456999892668005
 10
8.024845143318016
 20
9.343977258668005
 10
7.780665291318016
 20
8.722714340668004
 10
7.780665291318016
 20
8.694999892668003
 10
8.220606245318017
 20
8.440999892668003
  0
LWPOLYLINE
  5
112
330
17
100
AcDbEntity
  8
0
100
AcDbPolyline
 90
5
 70
1
 10
15.862328833318015
 20
8.637382532668003
 10
16.154831423318015
 20
9.455298600668003
 10
15.717836869318017
 20
9.202999892668004
 10
15.717836869318017
 20
8.694999892668003
 10
15.818502403318016
 20
8.636880628668003
  0
LWPOLYLINE
  5
113
330
17
100
AcDbEntity
  8
0
100
AcDbPolyline
 90
5
 70
1
 10
12.035545021318017
 20
8.382813572668002
 10
12.257421895318016
 20
8.435641000668003
 10
12.189199019318016
 20
8.475029542668004
 10
11.749258065318017
 20
8.221029542668003
 10
11.749258065318017
 20
8.220836756668003
  0
LWPOLYLINE
  5
114
330
17
100
AcDbEntity
  8
0
100
AcDbPolyline
 90
7
 70
1
 10
11.194218027318016
 20
7.906803348668003
 10
11.495258065318017
 20
8.077127366668002
 10
11.495258065318017
 20
8.221029542668001
 10
11.055317111318017
 20
8.475029542668002
 10
10.615376157318018
 20
8.221029542668001
 10
10.615376157318018
 20
7.713029542668002
 10
10.844007399318018
 20
7.581029044668001
  0
LWPOLYLINE
  5
115
330
17
100
AcDbEntity
  8
0
100
AcDbPolyline
 90
6
 70
1
 10
10.36137641131802
 20
7.713029542668001
 10
10.36137641131802
 20
8.221029542668
 10
9.921435457318019
 20
8.475029542668
 10
9.48149450331802
 20
8.221029542668
 10
9.48149450331802
 20
7.713029542668
 10
9.921435457318019
 20
7.459029288668
  0
LWPOLYLINE
  5
116
330
17
100
AcDbEntity
  8
0
100
AcDbPolyline
 90
6
 70
1
 10
9.22749450331802
 20
7.713029542668
 10
9.22749450331802
 20
8.221029542668
 10
8.78755380331802
 20
8.475029542668
 10
8.34761310331802
 20
8.221029542668
 10
8.34761310331802
 20
7.713029542668
 10
8.78755380331802
 20
7.459029288668
  0
LWPOLYLINE
  5
117
330
17
100
AcDbEntity
  8
0
100
AcDbPolyline
 90
6
 70
1
 10
8.093613103318019
 20
7.713029542668
 10
8.093613103318019
 20
8.221029542668
 10
7.67783313731802
 20
8.461080116668
 10
7.523978479318019
 20
8.069630556668
 10
7.312075931318019
 20
7.656250128668001
 10
7.6536721493180195
 20
7.459029288668001
  0
LWPOLYLINE
  5
118
330
17
100
AcDbEntity
  8
0
100
AcDbPolyline
 90
3
 70
1
 10
10.550873619318018
 20
7.456976968668
 10
10.488377681318019
 20
7.493058938668
 10
10.41502171931802
 20
7.450706978668
  0
LWPOLYLINE
  5
119
330
17
100
AcDbEntity
  8
0
100
AcDbPolyline
 90
3
 70
1
 10
9.500924995318018
 20
7.408518086668001
 10
9.354496027318017
 20
7.493058938668
 10
9.182621847318018
 20
7.3938272346680005
  0
LWPOLYLINE
  5
11A
330
17
100
AcDbEntity
  8
0
100
AcDbPolyline
 90
3
 70
1
 10
8.450976371318017
 20
7.3600592046680005
 10
8.220614373318018
 20
7.493058938668
 10
7.950221721318018
 20
7.336947490668
  0
LWPOLYLINE
  5
11B
330
17
100
AcDbEntity
  8
0
100
AcDbPolyline
 90
4
 70
1
 10
7.128968855318017
 20
7.299043832668
 10
7.401028001318017
 20
7.311600322667999
 10
7.196064987318017
 20
7.429935874668
 10
7.128968093318018
 20
7.299043070668
  0
ENDSEC
  0
SECTION
  2
OBJECTS
  0
DICTIONARY
  5
A
330
0
100
AcDbDictionary
281
1
  3
ACAD_COLOR
350
B
  3
ACAD_GROUP
350
C
  3
ACAD_LAYOUT
350
D
  3
ACAD_MATERIAL
350
E
  3
ACAD_MLEADERSTYLE
350
F
  3
ACAD_MLINESTYLE
350
10
  3
ACAD_PLOTSETTINGS
350
11
  3
ACAD_PLOTSTYLENAME
350
12
  3
ACAD_SCALELIST
350
14
  3
ACAD_TABLESTYLE
350
15
  3
ACAD_VISUALSTYLE
350
16
  3
EZDXF_META
350
2D
  0
DICTIONARY
  5
B
330
A
100
AcDbDictionary
281
1
  0
DICTIONARY
  5
C
330
A
100
AcDbDictionary
281
1
  0
DICTIONARY
  5
D
330
A
100
AcDbDictionary
281
1
  3
Model
350
1A
  3
Layout1
350
1E
  0
DICTIONARY
  5
E
330
A
100
AcDbDictionary
281
1
  3
ByBlock
350
1F
  3
ByLayer
350
20
  3
Global
350
21
  0
DICTIONARY
  5
F
330
A
100
AcDbDictionary
281
1
  3
Standard
350
2C
  0
DICTIONARY
  5
10
330
A
100
AcDbDictionary
281
1
  3
Standard
350
22
  0
DICTIONARY
  5
11
330
A
100
AcDbDictionary
281
1
  0
ACDBDICTIONARYWDFLT
  5
12
330
A
100
AcDbDictionary
281
1
  3
Normal
350
13
100
AcDbDictionaryWithDefault
340
13
  0
ACDBPLACEHOLDER
  5
13
330
12
  0
DICTIONARY
  5
14
330
A
100
AcDbDictionary
281
1
  0
DICTIONARY
  5
15
330
A
100
AcDbDictionary
281
1
  0
DICTIONARY
  5
16
330
A
100
AcDbDictionary
281
1
  0
LAYOUT
  5
1A
330
D
100
AcDbPlotSettings
  1

  4
A3
  6

 40
7.5
 41
20.0
 42
7.5
 43
20.0
 44
420.0
 45
297.0
 46
0.0
 47
0.0
 48
0.0
 49
0.0
140
0.0
141
0.0
142
1.0
143
1.0
 70
1024
 72
1
 73
0
 74
5
  7

 75
16
 76
0
 77
2
 78
300
147
1.0
148
0.0
149
0.0
100
AcDbLayout
  1
Model
 70
1
 71
0
 10
0.0
 20
0.0
 11
420.0
 21
297.0
 12
0.0
 22
0.0
 32
0.0
 14
1e+20
 24
1e+20
 34
1e+20
 15
-1e+20
 25
-1e+20
 35
-1e+20
146
0.0
 13
0.0
 23
0.0
 33
0.0
 16
1.0
 26
0.0
 36
0.0
 17
0.0
 27
1.0
 37
0.0
 76
1
330
17
  0
LAYOUT
  5
1E
330
D
100
AcDbPlotSettings
  1

  4
A3
  6

 40
7.5
 41
20.0
 42
7.5
 43
20.0
 44
420.0
 45
297.0
 46
0.0
 47
0.0
 48
0.0
 49
0.0
140
0.0
141
0.0
142
1.0
143
1.0
 70
0
 72
1
 73
0
 74
5
  7

 75
16
 76
0
 77
2
 78
300
147
1.0
148
0.0
149
0.0
100
AcDbLayout
  1
Layout1
 70
1
 71
1
 10
0.0
 20
0.0
 11
420.0
 21
297.0
 12
0.0
 22
0.0
 32
0.0
 14
1e+20
 24
1e+20
 34
1e+20
 15
-1e+20
 25
-1e+20
 35
-1e+20
146
0.0
 13
0.0
 23
0.0
 33
0.0
 16
1.0
 26
0.0
 36
0.0
 17
0.0
 27
1.0
 37
0.0
 76
1
330
1B
  0
MATERIAL
  5
1F
102
{ACAD_REACTORS
330
E
102
}
330
E
100
AcDbMaterial
  1
ByBlock
  2

 70
0
 40
1.0
 71
1
 41
1.0
 91
-1023410177
 42
1.0
 72
1
  3

 73
1
 74
1
 75
1
 44
0.5
 73
0
 45
1.0
 46
1.0
 77
1
  4

 78
1
 79
1
170
1
 48
1.0
171
1
  6

172
1
173
1
174
1
140
1.0
141
1.0
175
1
  7

176
1
177
1
178
1
143
1.0
179
1
  8

270
1
271
1
272
1
145
1.0
146
1.0
273
1
  9

274
1
275
1
276
1
 42
1.0
 72
1
  3

 73
1
 74
1
 75
1
 94
63
  0
MATERIAL
  5
20
102
{ACAD_REACTORS
330
E
102
}
330
E
100
AcDbMaterial
  1
ByLayer
  2

 70
0
 40
1.0
 71
1
 41
1.0
 91
-1023410177
 42
1.0
 72
1
  3

 73
1
 74
1
 75
1
 44
0.5
 73
0
 45
1.0
 46
1.0
 77
1
  4

 78
1
 79
1
170
1
 48
1.0
171
1
  6

172
1
173
1
174
1
140
1.0
141
1.0
175
1
  7

176
1
177
1
178
1
143
1.0
179
1
  8

270
1
271
1
272
1
145
1.0
146
1.0
273
1
  9

274
1
275
1
276
1
 42
1.0
 72
1
  3

 73
1
 74
1
 75
1
 94
63
  0
MATERIAL
  5
21
102
{ACAD_REACTORS
330
E
102
}
330
E
100
AcDbMaterial
  1
Global
  2

 70
0
 40
1.0
 71
1
 41
1.0
 91
-1023410177
 42
1.0
 72
1
  3

 73
1
 74
1
 75
1
 44
0.5
 73
0
 45
1.0
 46
1.0
 77
1
  4

 78
1
 79
1
170
1
 48
1.0
171
1
  6

172
1
173
1
174
1
140
1.0
141
1.0
175
1
  7

176
1
177
1
178
1
143
1.0
179
1
  8

270
1
271
1
272
1
145
1.0
146
1.0
273
1
  9

274
1
275
1
276
1
 42
1.0
 72
1
  3

 73
1
 74
1
 75
1
 94
63
  0
MLINESTYLE
  5
22
102
{ACAD_REACTORS
330
10
102
}
330
10
100
AcDbMlineStyle
  2
Standard
 70
0
  3

 62
256
 51
90.0
 52
90.0
 71
2
 49
0.5
 62
256
  6
BYLAYER
 49
-0.5
 62
256
  6
BYLAYER
  0
MLEADERSTYLE
  5
2C
102
{ACAD_REACTORS
330
F
102
}
330
F
100
AcDbMLeaderStyle
179
2
170
2
171
1
172
0
 90
2
 40
0.0
 41
0.0
173
1
 91
-1056964608
 92
-2
290
1
 42
2.0
291
1
 43
8.0
  3
Standard
 44
4.0
300

342
29
174
1
175
1
176
0
178
1
 93
-1056964608
 45
4.0
292
0
297
0
 46
4.0
 94
-1056964608
 47
1.0
 49
1.0
140
1.0
294
1
141
0.0
177
0
142
1.0
295
0
296
0
143
3.75
271
0
272
9
273
9
  0
DICTIONARY
  5
2D
330
A
100
AcDbDictionary
280
1
281
1
  3
CREATED_BY_EZDXF
350
2E
  3
WRITTEN_BY_EZDXF
350
11E
  0
DICTIONARYVAR
  5
2E
330
2D
100
DictionaryVariables
280
0
  1
1.4.3 @ 2026-04-12T00:41:29.553836+00:00
  0
DICTIONARYVAR
  5
11E
330
2D
100
DictionaryVariables
280
0
  1
1.4.3 @ 2026-04-12T00:41:29.559053+00:00
  0
ENDSEC
  0
EOF
