  0
SECTION
  2
HEADER
  9
$ACADVER
  1
AC1024
  9
$ACADMAINTVER
 70
6
  9
$DWGCODEPAGE
  3
ANSI_1252
  9
$LASTSAVEDBY
  1
ezdxf
  9
$INSBASE
 10
0.0
 20
0.0
 30
0.0
  9
$EXTMIN
 10
1e+20
 20
1e+20
 30
1e+20
  9
$EXTMAX
 10
-1e+20
 20
-1e+20
 30
-1e+20
  9
$LIMMIN
 10
0.0
 20
0.0
  9
$LIMMAX
 10
420.0
 20
297.0
  9
$ORTHOMODE
 70
0
  9
$REGENMODE
 70
1
  9
$FILLMODE
 70
1
  9
$QTEXTMODE
 70
0
  9
$MIRRTEXT
 70
1
  9
$LTSCALE
 40
1.0
  9
$ATTMODE
 70
1
  9
$TEXTSIZE
 40
2.5
  9
$TRACEWID
 40
1.0
  9
$TEXTSTYLE
  7
Standard
  9
$CLAYER
  8
0
  9
$CELTYPE
  6
ByLayer
  9
$CECOLOR
 62
256
  9
$CELTSCALE
 40
1.0
  9
$DISPSILH
 70
0
  9
$DIMSCALE
 40
1.0
  9
$DIMASZ
 40
2.5
  9
$DIMEXO
 40
0.625
  9
$DIMDLI
 40
3.75
  9
$DIMRND
 40
0.0
  9
$DIMDLE
 40
0.0
  9
$DIMEXE
 40
1.25
  9
$DIMTP
 40
0.0
  9
$DIMTM
 40
0.0
  9
$DIMTXT
 40
2.5
  9
$DIMCEN
 40
2.5
  9
$DIMTSZ
 40
0.0
  9
$DIMTOL
 70
0
  9
$DIMLIM
 70
0
  9
$DIMTIH
 70
0
  9
$DIMTOH
 70
0
  9
$DIMSE1
 70
0
  9
$DIMSE2
 70
0
  9
$DIMTAD
 70
1
  9
$DIMZIN
 70
8
  9
$DIMBLK
  1

  9
$DIMASO
 70
1
  9
$DIMSHO
 70
1
  9
$DIMPOST
  1

  9
$DIMAPOST
  1

  9
$DIMALT
 70
0
  9
$DIMALTD
 70
3
  9
$DIMALTF
 40
0.03937007874
  9
$DIMLFAC
 40
1.0
  9
$DIMTOFL
 70
1
  9
$DIMTVP
 40
0.0
  9
$DIMTIX
 70
0
  9
$DIMSOXD
 70
0
  9
$DIMSAH
 70
0
  9
$DIMBLK1
  1

  9
$DIMBLK2
  1

  9
$DIMSTYLE
  2
ISO-25
  9
$DIMCLRD
 70
0
  9
$DIMCLRE
 70
0
  9
$DIMCLRT
 70
0
  9
$DIMTFAC
 40
1.0
  9
$DIMGAP
 40
0.625
  9
$DIMJUST
 70
0
  9
$DIMSD1
 70
0
  9
$DIMSD2
 70
0
  9
$DIMTOLJ
 70
0
  9
$DIMTZIN
 70
8
  9
$DIMALTZ
 70
0
  9
$DIMALTTZ
 70
0
  9
$DIMUPT
 70
0
  9
$DIMDEC
 70
2
  9
$DIMTDEC
 70
2
  9
$DIMALTU
 70
2
  9
$DIMALTTD
 70
3
  9
$DIMTXSTY
  7
Standard
  9
$DIMAUNIT
 70
0
  9
$DIMADEC
 70
0
  9
$DIMALTRND
 40
0.0
  9
$DIMAZIN
 70
0
  9
$DIMDSEP
 70
44
  9
$DIMATFIT
 70
3
  9
$DIMFRAC
 70
0
  9
$DIMLDRBLK
  1

  9
$DIMLUNIT
 70
2
  9
$DIMLWD
 70
-2
  9
$DIMLWE
 70
-2
  9
$DIMTMOVE
 70
0
  9
$DIMFXL
 40
1.0
  9
$DIMFXLON
 70
0
  9
$DIMJOGANG
 40
0.785398163397
  9
$DIMTFILL
 70
0
  9
$DIMTFILLCLR
 70
0
  9
$DIMARCSYM
 70
0
  9
$DIMLTYPE
  6

  9
$DIMLTEX1
  6

  9
$DIMLTEX2
  6

  9
$DIMTXTDIRECTION
 70
0
  9
$LUNITS
 70
2
  9
$LUPREC
 70
4
  9
$SKETCHINC
 40
1.0
  9
$FILLETRAD
 40
10.0
  9
$AUNITS
 70
0
  9
$AUPREC
 70
2
  9
$MENU
  1
.
  9
$ELEVATION
 40
0.0
  9
$PELEVATION
 40
0.0
  9
$THICKNESS
 40
0.0
  9
$LIMCHECK
 70
0
  9
$CHAMFERA
 40
0.0
  9
$CHAMFERB
 40
0.0
  9
$CHAMFERC
 40
0.0
  9
$CHAMFERD
 40
0.0
  9
$SKPOLY
 70
0
  9
$TDCREATE
 40
2461138.751712963
  9
$TDUCREATE
 40
2458532.153996898
  9
$TDUPDATE
 40
2461138.751712963
  9
$TDUUPDATE
 40
2458532.1544311
  9
$TDINDWG
 40
0.0
  9
$TDUSRTIMER
 40
0.0
  9
$USRTIMER
 70
1
  9
$ANGBASE
 50
0.0
  9
$ANGDIR
 70
0
  9
$PDMODE
 70
0
  9
$PDSIZE
 40
0.0
  9
$PLINEWID
 40
0.0
  9
$SPLFRAME
 70
0
  9
$SPLINETYPE
 70
6
  9
$SPLINESEGS
 70
8
  9
$HANDSEED
  5
42
  9
$SURFTAB1
 70
6
  9
$SURFTAB2
 70
6
  9
$SURFTYPE
 70
6
  9
$SURFU
 70
6
  9
$SURFV
 70
6
  9
$UCSBASE
  2

  9
$UCSNAME
  2

  9
$UCSORG
 10
0.0
 20
0.0
 30
0.0
  9
$UCSXDIR
 10
1.0
 20
0.0
 30
0.0
  9
$UCSYDIR
 10
0.0
 20
1.0
 30
0.0
  9
$UCSORTHOREF
  2

  9
$UCSORTHOVIEW
 70
0
  9
$UCSORGTOP
 10
0.0
 20
0.0
 30
0.0
  9
$UCSORGBOTTOM
 10
0.0
 20
0.0
 30
0.0
  9
$UCSORGLEFT
 10
0.0
 20
0.0
 30
0.0
  9
$UCSORGRIGHT
 10
0.0
 20
0.0
 30
0.0
  9
$UCSORGFRONT
 10
0.0
 20
0.0
 30
0.0
  9
$UCSORGBACK
 10
0.0
 20
0.0
 30
0.0
  9
$PUCSBASE
  2

  9
$PUCSNAME
  2

  9
$PUCSORG
 10
0.0
 20
0.0
 30
0.0
  9
$PUCSXDIR
 10
1.0
 20
0.0
 30
0.0
  9
$PUCSYDIR
 10
0.0
 20
1.0
 30
0.0
  9
$PUCSORTHOREF
  2

  9
$PUCSORTHOVIEW
 70
0
  9
$PUCSORGTOP
 10
0.0
 20
0.0
 30
0.0
  9
$PUCSORGBOTTOM
 10
0.0
 20
0.0
 30
0.0
  9
$PUCSORGLEFT
 10
0.0
 20
0.0
 30
0.0
  9
$PUCSORGRIGHT
 10
0.0
 20
0.0
 30
0.0
  9
$PUCSORGFRONT
 10
0.0
 20
0.0
 30
0.0
  9
$PUCSORGBACK
 10
0.0
 20
0.0
 30
0.0
  9
$USERI1
 70
0
  9
$USERI2
 70
0
  9
$USERI3
 70
0
  9
$USERI4
 70
0
  9
$USERI5
 70
0
  9
$USERR1
 40
0.0
  9
$USERR2
 40
0.0
  9
$USERR3
 40
0.0
  9
$USERR4
 40
0.0
  9
$USERR5
 40
0.0
  9
$WORLDVIEW
 70
1
  9
$SHADEDGE
 70
3
  9
$SHADEDIF
 70
70
  9
$TILEMODE
 70
1
  9
$MAXACTVP
 70
64
  9
$PINSBASE
 10
0.0
 20
0.0
 30
0.0
  9
$PLIMCHECK
 70
0
  9
$PEXTMIN
 10
1e+20
 20
1e+20
 30
1e+20
  9
$PEXTMAX
 10
-1e+20
 20
-1e+20
 30
-1e+20
  9
$PLIMMIN
 10
0.0
 20
0.0
  9
$PLIMMAX
 10
420.0
 20
297.0
  9
$UNITMODE
 70
0
  9
$VISRETAIN
 70
1
  9
$PLINEGEN
 70
0
  9
$PSLTSCALE
 70
1
  9
$TREEDEPTH
 70
3020
  9
$CMLSTYLE
  2
Standard
  9
$CMLJUST
 70
0
  9
$CMLSCALE
 40
20.0
  9
$PROXYGRAPHICS
 70
1
  9
$MEASUREMENT
 70
1
  9
$CELWEIGHT
370
-1
  9
$ENDCAPS
280
0
  9
$JOINSTYLE
280
0
  9
$LWDISPLAY
290
0
  9
$INSUNITS
 70
6
  9
$HYPERLINKBASE
  1

  9
$STYLESHEET
  1

  9
$XEDIT
290
1
  9
$CEPSNTYPE
380
0
  9
$PSTYLEMODE
290
1
  9
$FINGERPRINTGUID
  2
{71547D12-A98F-4F36-893B-5138799DC131}
  9
$VERSIONGUID
  2
{3322F888-1B3C-47F1-A18F-6E06BB020A0A}
  9
$EXTNAMES
290
1
  9
$PSVPSCALE
 40
0.0
  9
$OLESTARTUP
290
0
  9
$SORTENTS
280
127
  9
$INDEXCTL
280
0
  9
$HIDETEXT
280
1
  9
$XCLIPFRAME
280
1
  9
$HALOGAP
280
0
  9
$OBSCOLOR
 70
257
  9
$OBSLTYPE
280
0
  9
$INTERSECTIONDISPLAY
280
0
  9
$INTERSECTIONCOLOR
 70
257
  9
$DIMASSOC
280
2
  9
$PROJECTNAME
  1

  9
$CAMERADISPLAY
290
0
  9
$LENSLENGTH
 40
50.0
  9
$CAMERAHEIGHT
 40
0.0
  9
$STEPSPERSEC
 40
24.0
  9
$STEPSIZE
 40
100.0
  9
$3DDWFPREC
 40
2.0
  9
$PSOLWIDTH
 40
0.005
  9
$PSOLHEIGHT
 40
0.08
  9
$LOFTANG1
 40
1.570796326795
  9
$LOFTANG2
 40
1.570796326795
  9
$LOFTMAG1
 40
0.0
  9
$LOFTMAG2
 40
0.0
  9
$LOFTPARAM
 70
7
  9
$LOFTNORMALS
280
1
  9
$LATITUDE
 40
37.795
  9
$LONGITUDE
 40
-122.394
  9
$NORTHDIRECTION
 40
0.0
  9
$TIMEZONE
 70
-8000
  9
$LIGHTGLYPHDISPLAY
280
1
  9
$TILEMODELIGHTSYNCH
280
1
  9
$CMATERIAL
347
20
  9
$SOLIDHIST
280
0
  9
$SHOWHIST
280
1
  9
$DWFFRAME
280
2
  9
$DGNFRAME
280
2
  9
$REALWORLDSCALE
290
1
  9
$INTERFERECOLOR
 62
256
  9
$CSHADOW
280
0
  9
$SHADOWPLANELOCATION
 40
0.0
  0
ENDSEC
  0
SECTION
  2
CLASSES
  0
CLASS
  1
ACDBDICTIONARYWDFLT
  2
AcDbDictionaryWithDefault
  3
ObjectDBX Classes
 90
0
 91
0
280
0
281
0
  0
CLASS
  1
SUN
  2
AcDbSun
  3
SCENEOE
 90
1153
 91
0
280
0
281
0
  0
CLASS
  1
VISUALSTYLE
  2
AcDbVisualStyle
  3
ObjectDBX Classes
 90
4095
 91
0
280
0
281
0
  0
CLASS
  1
MATERIAL
  2
AcDbMaterial
  3
ObjectDBX Classes
 90
1153
 91
0
280
0
281
0
  0
CLASS
  1
SCALE
  2
AcDbScale
  3
ObjectDBX Classes
 90
1153
 91
0
280
0
281
0
  0
CLASS
  1
TABLESTYLE
  2
AcDbTableStyle
  3
ObjectDBX Classes
 90
4095
 91
0
280
0
281
0
  0
CLASS
  1
MLEADERSTYLE
  2
AcDbMLeaderStyle
  3
ACDB_MLEADERSTYLE_CLASS
 90
4095
 91
0
280
0
281
0
  0
CLASS
  1
DICTIONARYVAR
  2
AcDbDictionaryVar
  3
ObjectDBX Classes
 90
0
 91
0
280
0
281
0
  0
CLASS
  1
CELLSTYLEMAP
  2
AcDbCellStyleMap
  3
ObjectDBX Classes
 90
1152
 91
0
280
0
281
0
  0
CLASS
  1
MENTALRAYRENDERSETTINGS
  2
AcDbMentalRayRenderSettings
  3
SCENEOE
 90
1024
 91
0
280
0
281
0
  0
CLASS
  1
ACDBDETAILVIEWSTYLE
  2
AcDbDetailViewStyle
  3
ObjectDBX Classes
 90
1025
 91
0
280
0
281
0
  0
CLASS
  1
ACDBSECTIONVIEWSTYLE
  2
AcDbSectionViewStyle
  3
ObjectDBX Classes
 90
1025
 91
0
280
0
281
0
  0
CLASS
  1
RASTERVARIABLES
  2
AcDbRasterVariables
  3
ISM
 90
0
 91
0
280
0
281
0
  0
CLASS
  1
LAYOUT
  2
AcDbLayout
  3
ObjectDBX Classes
 90
0
 91
0
280
0
281
0
  0
CLASS
  1
ACDBPLACEHOLDER
  2
AcDbPlaceHolder
  3
ObjectDBX Classes
 90
0
 91
0
280
0
281
0
  0
ENDSEC
  0
SECTION
  2
TABLES
  0
TABLE
  2
VPORT
  5
8
330
0
100
AcDbSymbolTable
 70
1
  0
VPORT
  5
23
330
8
100
AcDbSymbolTableRecord
100
AcDbViewportTableRecord
  2
*Active
 70
0
 10
0.0
 20
0.0
 11
1.0
 21
1.0
 12
0.0
 22
0.0
 13
0.0
 23
0.0
 14
0.5
 24
0.5
 15
0.5
 25
0.5
 16
0.0
 26
0.0
 36
1.0
 17
0.0
 27
0.0
 37
0.0
 40
1000.0
 41
1.34
 42
50.0
 43
0.0
 44
0.0
 50
0.0
 51
0.0
 71
0
 72
1000
 73
1
 74
3
 75
0
 76
0
 77
0
 78
0
281
0
 65
0
146
0.0
  0
ENDTAB
  0
TABLE
  2
LTYPE
  5
2
330
0
100
AcDbSymbolTable
 70
3
  0
LTYPE
  5
24
330
2
100
AcDbSymbolTableRecord
100
AcDbLinetypeTableRecord
  2
ByBlock
 70
0
  3

 72
65
 73
0
 40
0.0
  0
LTYPE
  5
25
330
2
100
AcDbSymbolTableRecord
100
AcDbLinetypeTableRecord
  2
ByLayer
 70
0
  3

 72
65
 73
0
 40
0.0
  0
LTYPE
  5
26
330
2
100
AcDbSymbolTableRecord
100
AcDbLinetypeTableRecord
  2
Continuous
 70
0
  3

 72
65
 73
0
 40
0.0
  0
ENDTAB
  0
TABLE
  2
LAYER
  5
1
330
0
100
AcDbSymbolTable
 70
2
  0
LAYER
  5
27
330
1
100
AcDbSymbolTableRecord
100
AcDbLayerTableRecord
  2
0
 70
0
 62
7
  6
Continuous
370
-3
390
13
347
21
  0
LAYER
  5
28
330
1
100
AcDbSymbolTableRecord
100
AcDbLayerTableRecord
  2
Defpoints
 70
0
 62
7
  6
Continuous
290
0
370
-3
390
13
347
21
  0
ENDTAB
  0
TABLE
  2
STYLE
  5
5
330
0
100
AcDbSymbolTable
 70
1
  0
STYLE
  5
29
330
5
100
AcDbSymbolTableRecord
100
AcDbTextStyleTableRecord
  2
Standard
 70
0
 40
0.0
 41
1.0
 50
0.0
 71
0
 42
2.5
  3
txt
  4

  0
ENDTAB
  0
TABLE
  2
VIEW
  5
7
330
0
100
AcDbSymbolTable
 70
0
  0
ENDTAB
  0
TABLE
  2
UCS
  5
6
330
0
100
AcDbSymbolTable
 70
0
  0
ENDTAB
  0
TABLE
  2
APPID
  5
3
330
0
100
AcDbSymbolTable
 70
3
  0
APPID
  5
2A
330
3
100
AcDbSymbolTableRecord
100
AcDbRegAppTableRecord
  2
ACAD
 70
0
  0
APPID
  5
3F
330
3
100
AcDbSymbolTableRecord
100
AcDbRegAppTableRecord
  2
HATCHBACKGROUNDCOLOR
 70
0
  0
APPID
  5
40
330
3
100
AcDbSymbolTableRecord
100
AcDbRegAppTableRecord
  2
EZDXF
 70
0
  0
ENDTAB
  0
TABLE
  2
DIMSTYLE
  5
4
330
0
100
AcDbSymbolTable
 70
1
100
AcDbDimStyleTable
  0
DIMSTYLE
105
2B
330
4
100
AcDbSymbolTableRecord
100
AcDbDimStyleTableRecord
  2
Standard
 70
0
 40
1.0
 41
2.5
 42
0.625
 43
3.75
 44
1.25
 45
0.0
 46
0.0
 47
0.0
 48
0.0
 49
2.5
140
2.5
141
2.5
142
0.0
143
0.03937007874
144
1.0
145
0.0
146
1.0
147
0.625
148
0.0
 69
0
 70
0
 71
0
 72
0
 73
0
 74
0
 75
0
 76
0
 77
1
 78
8
 79
3
170
0
171
3
172
1
173
0
174
0
175
0
176
0
177
0
178
0
179
2
271
2
272
2
273
2
274
3
275
0
276
0
277
2
278
44
279
0
280
0
281
0
282
0
283
0
284
8
285
0
286
0
288
0
289
3
290
0
371
-2
372
-2
  0
ENDTAB
  0
TABLE
  2
BLOCK_RECORD
  5
9
330
0
100
AcDbSymbolTable
 70
2
  0
BLOCK_RECORD
  5
17
330
9
100
AcDbSymbolTableRecord
100
AcDbBlockTableRecord
  2
*Model_Space
340
1A
 70
0
280
1
281
0
  0
BLOCK_RECORD
  5
1B
330
9
100
AcDbSymbolTableRecord
100
AcDbBlockTableRecord
  2
*Paper_Space
340
1E
 70
0
280
1
281
0
  0
ENDTAB
  0
ENDSEC
  0
SECTION
  2
BLOCKS
  0
BLOCK
  5
18
330
17
100
AcDbEntity
  8
0
100
AcDbBlockBegin
  2
*Model_Space
 70
0
 10
0.0
 20
0.0
 30
0.0
  3
*Model_Space
  1

  0
ENDBLK
  5
19
330
17
100
AcDbEntity
  8
0
100
AcDbBlockEnd
  0
BLOCK
  5
1C
330
1B
100
AcDbEntity
  8
0
100
AcDbBlockBegin
  2
*Paper_Space
 70
0
 10
0.0
 20
0.0
 30
0.0
  3
*Paper_Space
  1

  0
ENDBLK
  5
1D
330
1B
100
AcDbEntity
  8
0
100
AcDbBlockEnd
  0
ENDSEC
  0
SECTION
  2
ENTITIES
  0
LWPOLYLINE
  5
2F
330
17
100
AcDbEntity
  8
0
100
AcDbPolyline
 90
161
 70
0
 10
224.17684400000002
 20
-71.77532
 10
223.85756600000002
 20
-71.77532
 10
223.53828800000002
 20
-71.77532
 10
223.21901000000005
 20
-71.77532
 10
222.89973200000006
 20
-71.77532
 10
222.58045400000006
 20
-71.77532
 10
222.2611760000001
 20
-71.77532
 10
221.9418980000001
 20
-71.77532
 10
221.62262000000013
 20
-71.77532
 10
221.30334200000013
 20
-71.77532
 10
220.98406400000013
 20
-71.77532
 10
220.66478600000016
 20
-71.77532
 10
220.34550800000017
 20
-71.77532
 10
220.02623000000017
 20
-71.77532
 10
219.7069520000002
 20
-71.77532
 10
219.3876740000002
 20
-71.77532
 10
219.0683960000002
 20
-71.77532
 10
218.74911800000024
 20
-71.77532
 10
218.42984000000024
 20
-71.77532
 10
218.11056200000024
 20
-71.77532
 10
217.79128400000027
 20
-71.77532
 10
217.47200600000028
 20
-71.77532
 10
217.1527280000003
 20
-71.77532
 10
216.8334500000003
 20
-71.77532
 10
216.51417200000031
 20
-71.77532
 10
216.19489400000035
 20
-71.77532
 10
215.87561600000035
 20
-71.77532
 10
215.55633800000035
 20
-71.77532
 10
215.23706000000038
 20
-71.77532
 10
214.9177820000004
 20
-71.77532
 10
214.5985040000004
 20
-71.77532
 10
214.27922600000042
 20
-71.77532
 10
213.95994800000042
 20
-71.77532
 10
213.88247800000045
 20
-71.986394
 10
213.80500800000044
 20
-72.197468
 10
213.72753800000046
 20
-72.40854200000001
 10
213.6500680000005
 20
-72.61961600000001
 10
213.57259800000048
 20
-72.83069000000002
 10
213.4951280000005
 20
-73.04176400000003
 10
213.41765800000053
 20
-73.25283800000003
 10
213.34018800000052
 20
-73.46391200000004
 10
213.26271800000055
 20
-73.67498600000003
 10
213.18524800000054
 20
-73.88606000000004
 10
213.10777800000056
 20
-74.09713400000004
 10
213.0303080000006
 20
-74.30820800000005
 10
212.95283800000058
 20
-74.51928200000006
 10
212.8753680000006
 20
-74.73035600000006
 10
212.79789800000063
 20
-74.94143000000007
 10
212.72042800000062
 20
-75.15250400000006
 10
212.64295800000065
 20
-75.36357800000008
 10
212.56548800000067
 20
-75.57465200000007
 10
212.48801800000066
 20
-75.78572600000008
 10
212.4105480000007
 20
-75.99680000000008
 10
212.33307800000068
 20
-76.20787400000009
 10
212.2556080000007
 20
-76.4189480000001
 10
212.17813800000073
 20
-76.6300220000001
 10
212.10066800000072
 20
-76.8410960000001
 10
212.02319800000075
 20
-77.0521700000001
 10
211.94572800000077
 20
-77.26324400000011
 10
211.86825800000076
 20
-77.47431800000011
 10
211.7907880000008
 20
-77.68539200000012
 10
211.71331800000078
 20
-77.89646600000012
 10
211.6358480000008
 20
-78.10754000000013
 10
211.55837800000083
 20
-78.31861400000014
 10
211.48090800000082
 20
-78.52968800000014
 10
212.82406000000083
 20
-78.53680000000014
 10
214.16721200000083
 20
-78.54365800000014
 10
215.51036400000083
 20
-78.55077000000014
 10
216.85351600000084
 20
-78.55762800000014
 10
218.19666800000084
 20
-78.56474000000014
 10
219.53982000000084
 20
-78.57159800000014
 10
220.88297200000085
 20
-78.57871000000014
 10
222.22612400000085
 20
-78.58556800000015
 10
223.56927600000085
 20
-78.59268000000014
 10
224.91242800000086
 20
-78.59953800000015
 10
226.25558000000086
 20
-78.60665000000016
 10
227.59873200000087
 20
-78.61350800000015
 10
228.94188400000087
 20
-78.62062000000016
 10
230.28503600000087
 20
-78.62747800000015
 10
231.62818800000088
 20
-78.63459000000016
 10
232.97134000000088
 20
-78.64144800000015
 10
234.31449200000088
 20
-78.64856000000016
 10
235.6576440000009
 20
-78.65541800000015
 10
237.0007960000009
 20
-78.66253000000016
 10
238.3439480000009
 20
-78.66938800000015
 10
239.6871000000009
 20
-78.67650000000016
 10
241.0302520000009
 20
-78.68335800000015
 10
242.3734040000009
 20
-78.69047000000016
 10
243.7165560000009
 20
-78.69732800000016
 10
245.0597080000009
 20
-78.70444000000016
 10
246.4028600000009
 20
-78.71129800000016
 10
247.74601200000092
 20
-78.71841000000016
 10
249.08916400000092
 20
-78.72526800000016
 10
250.43231600000092
 20
-78.73238000000016
 10
251.77546800000093
 20
-78.73923800000016
 10
253.11862000000093
 20
-78.74635000000016
 10
254.46177200000093
 20
-78.75320800000017
 10
254.53873400000091
 20
-78.54365800000016
 10
254.61569600000092
 20
-78.33410800000017
 10
254.69265800000093
 20
-78.12455800000018
 10
254.7696200000009
 20
-77.91500800000017
 10
254.84658200000092
 20
-77.70545800000018
 10
254.92354400000093
 20
-77.49590800000018
 10
255.0005060000009
 20
-77.28635800000019
 10
255.07746800000092
 20
-77.07680800000018
 10
255.15443000000093
 20
-76.86725800000019
 10
255.2313920000009
 20
-76.6577080000002
 10
255.30835400000092
 20
-76.44815800000019
 10
255.38531600000093
 20
-76.2386080000002
 10
255.4622780000009
 20
-76.0290580000002
 10
255.53924000000092
 20
-75.81950800000021
 10
255.61620200000092
 20
-75.6099580000002
 10
255.6931640000009
 20
-75.40040800000021
 10
255.77012600000091
 20
-75.19085800000022
 10
255.84708800000092
 20
-74.98130800000021
 10
255.9240500000009
 20
-74.77175800000022
 10
256.0010120000009
 20
-74.56220800000023
 10
256.0779740000009
 20
-74.35265800000023
 10
256.15493600000093
 20
-74.14310800000023
 10
256.2318980000009
 20
-73.93355800000023
 10
256.3088600000009
 20
-73.72400800000024
 10
256.3858220000009
 20
-73.51445800000023
 10
256.4627840000009
 20
-73.30490800000024
 10
256.5397460000009
 20
-73.09535800000025
 10
256.6167080000009
 20
-72.88580800000025
 10
256.6936700000009
 20
-72.67625800000025
 10
256.7706320000009
 20
-72.46670800000025
 10
256.8475940000009
 20
-72.25715800000026
 10
256.9245560000009
 20
-72.04760800000025
 10
255.9011900000009
 20
-72.03897200000026
 10
254.8778240000009
 20
-72.03033600000026
 10
253.8544580000009
 20
-72.02170000000027
 10
252.8310920000009
 20
-72.01306400000027
 10
251.8077260000009
 20
-72.00442800000027
 10
250.7843600000009
 20
-71.99579200000026
 10
249.76099400000092
 20
-71.98715600000027
 10
248.7376280000009
 20
-71.97852000000027
 10
247.7142620000009
 20
-71.96988400000028
 10
246.69089600000092
 20
-71.96124800000028
 10
245.6675300000009
 20
-71.95261200000029
 10
244.6441640000009
 20
-71.94397600000028
 10
243.62079800000092
 20
-71.93534000000028
 10
242.5974320000009
 20
-71.92670400000029
 10
241.57406600000093
 20
-71.91806800000029
 10
240.55070000000092
 20
-71.9094320000003
 10
239.5273340000009
 20
-71.9007960000003
 10
238.50396800000092
 20
-71.89216000000029
 10
237.4806020000009
 20
-71.88352400000029
 10
236.45723600000093
 20
-71.8748880000003
 10
235.43387000000092
 20
-71.8662520000003
 10
234.4105040000009
 20
-71.8576160000003
 10
233.38713800000093
 20
-71.84898000000031
 10
232.36377200000092
 20
-71.84034400000031
 10
231.3404060000009
 20
-71.8317080000003
 10
230.31704000000093
 20
-71.82307200000031
 10
229.29367400000092
 20
-71.81443600000031
 10
228.27030800000094
 20
-71.80580000000032
 10
227.24694200000093
 20
-71.79716400000032
 10
226.22357600000092
 20
-71.78852800000033
 10
225.20021000000094
 20
-71.77989200000032
 10
224.17684400000093
 20
-71.77125600000032
  0
LWPOLYLINE
  5
30
330
17
100
AcDbEntity
  8
0
100
AcDbPolyline
 90
129
 70
0
 10
224.17684400000093
 20
-67.59727400000033
 10
224.17684400000093
 20
-67.53987000000032
 10
224.17684400000093
 20
-67.48246600000033
 10
224.17684400000093
 20
-67.42506200000032
 10
224.17684400000093
 20
-67.36765800000033
 10
224.17684400000093
 20
-67.31025400000033
 10
224.17684400000093
 20
-67.25285000000032
 10
224.17684400000093
 20
-67.19544600000033
 10
224.17684400000093
 20
-67.13804200000033
 10
224.17684400000093
 20
-67.08063800000033
 10
224.17684400000093
 20
-67.02323400000033
 10
224.17684400000093
 20
-66.96583000000032
 10
224.17684400000093
 20
-66.90842600000033
 10
224.17684400000093
 20
-66.85102200000033
 10
224.17684400000093
 20
-66.79361800000034
 10
224.17684400000093
 20
-66.73621400000033
 10
224.17684400000093
 20
-66.67881000000033
 10
224.17684400000093
 20
-66.62140600000033
 10
224.17684400000093
 20
-66.56400200000033
 10
224.17684400000093
 20
-66.50659800000032
 10
224.17684400000093
 20
-66.44919400000033
 10
224.17684400000093
 20
-66.39179000000033
 10
224.17684400000093
 20
-66.33438600000034
 10
224.17684400000093
 20
-66.27698200000033
 10
224.17684400000093
 20
-66.21957800000033
 10
224.17684400000093
 20
-66.16217400000033
 10
224.17684400000093
 20
-66.10477000000033
 10
224.17684400000093
 20
-66.04736600000034
 10
224.17684400000093
 20
-65.98996200000033
 10
224.17684400000093
 20
-65.93255800000033
 10
224.17684400000093
 20
-65.87515400000034
 10
224.17684400000093
 20
-65.81775000000033
 10
224.17684400000093
 20
-65.76034600000034
 10
223.93224200000094
 20
-65.76034600000034
 10
223.68764000000095
 20
-65.76034600000034
 10
223.44303800000097
 20
-65.76034600000034
 10
223.19843600000095
 20
-65.76034600000034
 10
222.95383400000097
 20
-65.76034600000034
 10
222.70923200000098
 20
-65.76034600000034
 10
222.464630000001
 20
-65.76034600000034
 10
222.220028000001
 20
-65.76034600000034
 10
221.97542600000102
 20
-65.76034600000034
 10
221.730824000001
 20
-65.76034600000034
 10
221.48622200000102
 20
-65.76034600000034
 10
221.24162000000103
 20
-65.76034600000034
 10
220.99701800000105
 20
-65.76034600000034
 10
220.75241600000106
 20
-65.76034600000034
 10
220.50781400000108
 20
-65.76034600000034
 10
220.26321200000106
 20
-65.76034600000034
 10
220.01861000000108
 20
-65.76034600000034
 10
219.7740080000011
 20
-65.76034600000034
 10
219.5294060000011
 20
-65.76034600000034
 10
219.28480400000112
 20
-65.76034600000034
 10
219.0402020000011
 20
-65.76034600000034
 10
218.79560000000112
 20
-65.76034600000034
 10
218.55099800000113
 20
-65.76034600000034
 10
218.30639600000114
 20
-65.76034600000034
 10
218.06179400000116
 20
-65.76034600000034
 10
217.81719200000117
 20
-65.76034600000034
 10
217.57259000000116
 20
-65.76034600000034
 10
217.32798800000117
 20
-65.76034600000034
 10
217.08338600000118
 20
-65.76034600000034
 10
216.8387840000012
 20
-65.76034600000034
 10
216.5941820000012
 20
-65.76034600000034
 10
216.34958000000123
 20
-65.76034600000034
 10
216.32672000000122
 20
-65.81775000000033
 10
216.3038600000012
 20
-65.87515400000034
 10
216.2810000000012
 20
-65.93255800000033
 10
216.2581400000012
 20
-65.98996200000033
 10
216.23528000000118
 20
-66.04736600000034
 10
216.21242000000117
 20
-66.10477000000033
 10
216.18956000000117
 20
-66.16217400000033
 10
216.16670000000116
 20
-66.21957800000033
 10
216.14384000000115
 20
-66.27698200000033
 10
216.12098000000114
 20
-66.33438600000034
 10
216.09812000000113
 20
-66.39179000000033
 10
216.07526000000112
 20
-66.44919400000033
 10
216.05240000000111
 20
-66.50659800000032
 10
216.0295400000011
 20
-66.56400200000033
 10
216.0066800000011
 20
-66.62140600000033
 10
215.9838200000011
 20
-66.67881000000033
 10
215.96096000000108
 20
-66.73621400000033
 10
215.93810000000107
 20
-66.79361800000034
 10
215.91524000000106
 20
-66.85102200000033
 10
215.89238000000105
 20
-66.90842600000033
 10
215.86952000000105
 20
-66.96583000000032
 10
215.84666000000104
 20
-67.02323400000033
 10
215.82380000000103
 20
-67.08063800000033
 10
215.80094000000102
 20
-67.13804200000033
 10
215.778080000001
 20
-67.19544600000033
 10
215.755220000001
 20
-67.25285000000032
 10
215.732360000001
 20
-67.31025400000033
 10
215.709500000001
 20
-67.36765800000033
 10
215.68664000000098
 20
-67.42506200000032
 10
215.66378000000097
 20
-67.48246600000033
 10
215.64092000000096
 20
-67.53987000000032
 10
215.61806000000095
 20
-67.59727400000033
 10
215.88552200000095
 20
-67.59727400000033
 10
216.15298400000094
 20
-67.59727400000033
 10
216.42044600000094
 20
-67.59727400000033
 10
216.68790800000096
 20
-67.59727400000033
 10
216.95537000000095
 20
-67.59727400000033
 10
217.22283200000095
 20
-67.59727400000033
 10
217.49029400000094
 20
-67.59727400000033
 10
217.75775600000094
 20
-67.59727400000033
 10
218.02521800000093
 20
-67.59727400000033
 10
218.29268000000096
 20
-67.59727400000033
 10
218.56014200000095
 20
-67.59727400000033
 10
218.82760400000095
 20
-67.59727400000033
 10
219.09506600000094
 20
-67.59727400000033
 10
219.36252800000094
 20
-67.59727400000033
 10
219.62999000000093
 20
-67.59727400000033
 10
219.89745200000095
 20
-67.59727400000033
 10
220.16491400000095
 20
-67.59727400000033
 10
220.43237600000094
 20
-67.59727400000033
 10
220.69983800000094
 20
-67.59727400000033
 10
220.96730000000093
 20
-67.59727400000033
 10
221.23476200000093
 20
-67.59727400000033
 10
221.50222400000095
 20
-67.59727400000033
 10
221.76968600000095
 20
-67.59727400000033
 10
222.03714800000094
 20
-67.59727400000033
 10
222.30461000000093
 20
-67.59727400000033
 10
222.57207200000093
 20
-67.59727400000033
 10
222.83953400000092
 20
-67.59727400000033
 10
223.10699600000095
 20
-67.59727400000033
 10
223.37445800000094
 20
-67.59727400000033
 10
223.64192000000094
 20
-67.59727400000033
 10
223.90938200000093
 20
-67.59727400000033
 10
224.17684400000093
 20
-67.59727400000033
  0
LWPOLYLINE
  5
31
330
17
100
AcDbEntity
  8
0
100
AcDbPolyline
 90
225
 70
0
 10
289.5439980000009
 20
-71.19975600000032
 10
288.0540340000009
 20
-71.19975600000032
 10
286.5640700000009
 20
-71.19975600000032
 10
285.07410600000094
 20
-71.19975600000032
 10
283.5841420000009
 20
-71.19975600000032
 10
282.0941780000009
 20
-71.19975600000032
 10
280.6042140000009
 20
-71.19975600000032
 10
279.11425000000094
 20
-71.19975600000032
 10
277.62428600000095
 20
-71.19975600000032
 10
276.1343220000009
 20
-71.19975600000032
 10
274.6443580000009
 20
-71.19975600000032
 10
273.15439400000093
 20
-71.19975600000032
 10
271.66443000000095
 20
-71.19975600000032
 10
270.17446600000096
 20
-71.19975600000032
 10
268.684502000001
 20
-71.19975600000032
 10
267.19453800000093
 20
-71.19975600000032
 10
265.70457400000095
 20
-71.19975600000032
 10
264.21461000000096
 20
-71.19975600000032
 10
262.724646000001
 20
-71.19975600000032
 10
261.234682000001
 20
-71.19975600000032
 10
259.744718000001
 20
-71.19975600000032
 10
258.25475400000096
 20
-71.19975600000032
 10
256.76479000000097
 20
-71.19975600000032
 10
255.27482600000099
 20
-71.19975600000032
 10
253.784862000001
 20
-71.19975600000032
 10
252.29489800000098
 20
-71.19975600000032
 10
250.804934000001
 20
-71.19975600000032
 10
249.314970000001
 20
-71.19975600000032
 10
247.825006000001
 20
-71.19975600000032
 10
246.335042000001
 20
-71.19975600000032
 10
244.84507800000102
 20
-71.19975600000032
 10
243.355114000001
 20
-71.19975600000032
 10
241.86515000000102
 20
-71.19975600000032
 10
241.86921400000102
 20
-71.19670800000033
 10
241.881152000001
 20
-71.18781800000032
 10
241.90020200000103
 20
-71.17308600000032
 10
241.92611000000102
 20
-71.15251200000031
 10
241.958368000001
 20
-71.12609600000032
 10
241.996214000001
 20
-71.09383800000032
 10
242.039394000001
 20
-71.05573800000032
 10
242.087400000001
 20
-71.01179600000032
 10
242.139470000001
 20
-70.96226600000033
 10
242.195350000001
 20
-70.90689400000032
 10
242.254278000001
 20
-70.84593400000031
 10
242.31600000000103
 20
-70.77938600000031
 10
242.380008000001
 20
-70.70725000000031
 10
242.44554000000102
 20
-70.62952600000033
 10
242.512342000001
 20
-70.54621400000033
 10
242.579652000001
 20
-70.45756800000034
 10
242.647216000001
 20
-70.36333400000034
 10
242.71427200000102
 20
-70.26376600000035
 10
242.780566000001
 20
-70.15886400000034
 10
242.84559000000098
 20
-70.04862800000033
 10
242.90858200000102
 20
-69.93305800000033
 10
242.969288000001
 20
-69.81215400000033
 10
243.026946000001
 20
-69.68591600000033
 10
243.08130200000102
 20
-69.55434400000034
 10
243.13159400000103
 20
-69.41769200000033
 10
243.17756800000103
 20
-69.27596000000034
 10
243.218462000001
 20
-69.12889400000033
 10
243.25402200000102
 20
-68.97674800000034
 10
243.283486000001
 20
-68.81952200000033
 10
243.306600000001
 20
-68.65721600000033
 10
243.322602000001
 20
-68.49008400000032
 10
243.331238000001
 20
-68.31787200000032
 10
243.334286000001
 20
-68.19138000000032
 10
243.33733400000096
 20
-68.06488800000032
 10
243.34038200000097
 20
-67.93839600000032
 10
243.34343000000095
 20
-67.81190400000034
 10
243.34647800000093
 20
-67.68541200000034
 10
243.3495260000009
 20
-67.55892000000034
 10
243.3525740000009
 20
-67.43242800000034
 10
243.3556220000009
 20
-67.30593600000034
 10
243.35867000000087
 20
-67.17944400000034
 10
243.36171800000085
 20
-67.05295200000035
 10
243.36476600000086
 20
-66.92646000000035
 10
243.36781400000083
 20
-66.79996800000035
 10
243.3708620000008
 20
-66.67347600000035
 10
243.3739100000008
 20
-66.54698400000035
 10
243.3769580000008
 20
-66.42049200000037
 10
243.38000600000078
 20
-66.29400000000037
 10
243.38305400000075
 20
-66.16750800000037
 10
243.38610200000073
 20
-66.04101600000037
 10
243.38915000000074
 20
-65.91452400000037
 10
243.39219800000072
 20
-65.78803200000037
 10
243.3952460000007
 20
-65.66154000000037
 10
243.39829400000067
 20
-65.53504800000037
 10
243.40134200000068
 20
-65.40855600000037
 10
243.40439000000066
 20
-65.28206400000037
 10
243.40743800000064
 20
-65.15557200000039
 10
243.41048600000062
 20
-65.02908000000039
 10
243.41353400000062
 20
-64.90258800000039
 10
243.4165820000006
 20
-64.7760960000004
 10
243.41963000000058
 20
-64.6496040000004
 10
243.4226780000006
 20
-64.5231120000004
 10
243.42572600000057
 20
-64.3966200000004
 10
243.42877400000054
 20
-64.2701280000004
 10
244.82704400000054
 20
-64.2762240000004
 10
246.22531400000054
 20
-64.2823200000004
 10
247.62358400000053
 20
-64.2884160000004
 10
249.02185400000053
 20
-64.2945120000004
 10
250.42012400000053
 20
-64.3006080000004
 10
251.81839400000055
 20
-64.30670400000041
 10
253.21666400000055
 20
-64.31280000000041
 10
254.61493400000055
 20
-64.31889600000041
 10
256.01320400000054
 20
-64.3249920000004
 10
257.4114740000005
 20
-64.3310880000004
 10
258.80974400000053
 20
-64.3371840000004
 10
260.2080140000005
 20
-64.3432800000004
 10
261.6062840000006
 20
-64.3493760000004
 10
263.0045540000006
 20
-64.3554720000004
 10
264.40282400000063
 20
-64.3615680000004
 10
265.80109400000066
 20
-64.3676640000004
 10
267.1993640000007
 20
-64.3737600000004
 10
268.5976340000007
 20
-64.3798560000004
 10
269.99590400000073
 20
-64.3859520000004
 10
271.39417400000076
 20
-64.3920480000004
 10
272.7924440000008
 20
-64.3981440000004
 10
274.1907140000008
 20
-64.4042400000004
 10
275.58898400000083
 20
-64.41033600000041
 10
276.98725400000086
 20
-64.41643200000041
 10
278.3855240000009
 20
-64.42252800000041
 10
279.7837940000009
 20
-64.42862400000041
 10
281.18206400000093
 20
-64.43472000000041
 10
282.58033400000096
 20
-64.44081600000041
 10
283.978604000001
 20
-64.44691200000041
 10
285.376874000001
 20
-64.45300800000041
 10
286.77514400000103
 20
-64.45910400000041
 10
288.17341400000106
 20
-64.46520000000041
 10
288.2178640000011
 20
-64.4659620000004
 10
288.26206000000104
 20
-64.4682480000004
 10
288.30600200000106
 20
-64.4718040000004
 10
288.3496900000011
 20
-64.4766300000004
 10
288.39337800000106
 20
-64.48272600000041
 10
288.4365580000011
 20
-64.4900920000004
 10
288.47948400000115
 20
-64.4987280000004
 10
288.5221560000011
 20
-64.5086340000004
 10
288.5643200000011
 20
-64.5198100000004
 10
288.6059760000011
 20
-64.5322560000004
 10
288.6473780000011
 20
-64.5457180000004
 10
288.6882720000011
 20
-64.5604500000004
 10
288.72865800000113
 20
-64.5764520000004
 10
288.7685360000011
 20
-64.5934700000004
 10
288.8079060000011
 20
-64.6117580000004
 10
288.8465140000011
 20
-64.6313160000004
 10
288.88461400000114
 20
-64.65189000000039
 10
288.9222060000011
 20
-64.6737340000004
 10
288.9590360000011
 20
-64.6965940000004
 10
288.9951040000011
 20
-64.7204700000004
 10
289.03066400000114
 20
-64.7456160000004
 10
289.0654620000011
 20
-64.7717780000004
 10
289.0994980000011
 20
-64.7989560000004
 10
289.13251800000114
 20
-64.8271500000004
 10
289.16477600000115
 20
-64.8563600000004
 10
289.19627200000116
 20
-64.88658600000039
 10
289.2267520000011
 20
-64.9178280000004
 10
289.2564700000011
 20
-64.9500860000004
 10
289.2851720000011
 20
-64.9833600000004
 10
289.3128580000011
 20
-65.0176500000004
 10
289.3397820000011
 20
-65.05295600000039
 10
289.3656900000011
 20
-65.08927800000039
 10
289.38245400000113
 20
-65.11391600000039
 10
289.3989640000012
 20
-65.1388080000004
 10
289.41522000000117
 20
-65.1642080000004
 10
289.4312220000012
 20
-65.19011600000039
 10
289.44697000000116
 20
-65.21627800000039
 10
289.46221000000116
 20
-65.2429480000004
 10
289.47719600000113
 20
-65.26987200000039
 10
289.4916740000012
 20
-65.2973040000004
 10
289.5058980000012
 20
-65.3249900000004
 10
289.5196140000012
 20
-65.35318400000038
 10
289.53282200000115
 20
-65.3816320000004
 10
289.5457760000011
 20
-65.41058800000039
 10
289.55822200000114
 20
-65.4397980000004
 10
289.5701600000011
 20
-65.46926200000038
 10
289.58133600000116
 20
-65.49923400000038
 10
289.59200400000117
 20
-65.5294600000004
 10
289.60216400000115
 20
-65.5601940000004
 10
289.61181600000117
 20
-65.59118200000039
 10
289.6207060000012
 20
-65.6224240000004
 10
289.62908800000116
 20
-65.6541740000004
 10
289.63670800000114
 20
-65.68617800000038
 10
289.64356600000116
 20
-65.71843600000038
 10
289.6496620000011
 20
-65.75094800000038
 10
289.6549960000011
 20
-65.78396800000039
 10
289.6595680000011
 20
-65.81724200000038
 10
289.66337800000116
 20
-65.85077000000038
 10
289.66642600000114
 20
-65.88455200000037
 10
289.6687120000011
 20
-65.91858800000037
 10
289.66998200000114
 20
-65.95313200000038
 10
289.67049000000117
 20
-65.98793000000038
 10
289.66998200000114
 20
-66.02298200000037
 10
289.6687120000011
 20
-66.05828800000037
 10
289.6649020000011
 20
-66.21907000000037
 10
289.6610920000011
 20
-66.37985200000037
 10
289.65728200000103
 20
-66.54063400000037
 10
289.65347200000105
 20
-66.70141600000036
 10
289.649662000001
 20
-66.86219800000035
 10
289.64585200000096
 20
-67.02298000000035
 10
289.64204200000097
 20
-67.18376200000034
 10
289.6382320000009
 20
-67.34454400000034
 10
289.6344220000009
 20
-67.50532600000034
 10
289.6306120000009
 20
-67.66610800000034
 10
289.62680200000085
 20
-67.82689000000032
 10
289.6229920000008
 20
-67.98767200000032
 10
289.6191820000008
 20
-68.14845400000031
 10
289.6153720000008
 20
-68.30923600000031
 10
289.61156200000073
 20
-68.47001800000031
 10
289.60775200000074
 20
-68.6308000000003
 10
289.6039420000007
 20
-68.79158200000029
 10
289.60013200000066
 20
-68.95236400000029
 10
289.59632200000067
 20
-69.11314600000028
 10
289.5925120000006
 20
-69.27392800000028
 10
289.5887020000006
 20
-69.43471000000028
 10
289.5848920000006
 20
-69.59549200000028
 10
289.58108200000055
 20
-69.75627400000027
 10
289.5772720000005
 20
-69.91705600000026
 10
289.5734620000005
 20
-70.07783800000026
 10
289.5696520000005
 20
-70.23862000000025
 10
289.56584200000043
 20
-70.39940200000025
 10
289.56203200000044
 20
-70.56018400000025
 10
289.5582220000004
 20
-70.72096600000025
 10
289.55441200000035
 20
-70.88174800000023
 10
289.55060200000037
 20
-71.04253000000023
 10
289.5467920000003
 20
-71.20331200000022
  0
LWPOLYLINE
  5
32
330
17
100
AcDbEntity
  8
0
100
AcDbPolyline
 90
257
 70
0
 10
275.66645400000033
 20
-71.98487000000023
 10
275.88362400000034
 20
-71.98791800000022
 10
276.10079400000035
 20
-71.99096600000023
 10
276.31796400000036
 20
-71.99401400000022
 10
276.53513400000037
 20
-71.99706200000023
 10
276.7523040000004
 20
-72.00011000000022
 10
276.9694740000004
 20
-72.00315800000023
 10
277.18664400000034
 20
-72.00620600000022
 10
277.40381400000035
 20
-72.00925400000023
 10
277.62098400000036
 20
-72.01230200000023
 10
277.8381540000004
 20
-72.01535000000023
 10
278.0553240000004
 20
-72.01839800000023
 10
278.2724940000004
 20
-72.02144600000022
 10
278.4896640000004
 20
-72.02449400000023
 10
278.7068340000004
 20
-72.02754200000022
 10
278.9240040000004
 20
-72.03059000000023
 10
279.14117400000043
 20
-72.03363800000022
 10
279.3583440000004
 20
-72.03668600000023
 10
279.5755140000004
 20
-72.03973400000022
 10
279.7926840000004
 20
-72.04278200000023
 10
280.0098540000004
 20
-72.04583000000022
 10
280.2270240000004
 20
-72.04887800000023
 10
280.44419400000044
 20
-72.05192600000022
 10
280.66136400000045
 20
-72.05497400000023
 10
280.87853400000046
 20
-72.05802200000022
 10
281.09570400000047
 20
-72.06107000000023
 10
281.3128740000005
 20
-72.06411800000024
 10
281.53004400000043
 20
-72.06716600000023
 10
281.74721400000044
 20
-72.07021400000023
 10
281.96438400000045
 20
-72.07326200000023
 10
282.18155400000046
 20
-72.07631000000023
 10
282.39872400000047
 20
-72.07935800000023
 10
282.6158940000005
 20
-72.08240600000023
 10
282.6618680000005
 20
-72.08367600000022
 10
282.7078420000005
 20
-72.08469200000023
 10
282.7538160000005
 20
-72.08570800000024
 10
282.79979000000054
 20
-72.08647000000023
 10
282.84576400000054
 20
-72.08697800000023
 10
282.89173800000054
 20
-72.08748600000024
 10
282.93771200000054
 20
-72.08774000000024
 10
282.98368600000055
 20
-72.08799400000022
 10
283.02966000000055
 20
-72.08799400000022
 10
283.0756340000006
 20
-72.08774000000024
 10
283.1216080000006
 20
-72.08748600000024
 10
283.1675820000006
 20
-72.08697800000023
 10
283.2135560000006
 20
-72.08647000000023
 10
283.2595300000006
 20
-72.08570800000024
 10
283.3055040000006
 20
-72.08469200000023
 10
283.35147800000067
 20
-72.08367600000022
 10
283.39745200000067
 20
-72.08240600000023
 10
283.44342600000067
 20
-72.08113600000023
 10
283.48940000000067
 20
-72.07961200000024
 10
283.5353740000007
 20
-72.07783400000024
 10
283.5813480000007
 20
-72.07605600000024
 10
283.62732200000073
 20
-72.07402400000024
 10
283.67329600000073
 20
-72.07173800000024
 10
283.71901600000075
 20
-72.06945200000023
 10
283.76499000000075
 20
-72.06691200000023
 10
283.81071000000077
 20
-72.06437200000023
 10
283.8564300000008
 20
-72.06157800000022
 10
283.9021500000008
 20
-72.05853000000023
 10
283.9478700000008
 20
-72.05548200000023
 10
283.99359000000084
 20
-72.05218000000023
 10
284.03931000000085
 20
-72.04887800000024
 10
284.08503000000087
 20
-72.04532200000024
 10
284.24606600000084
 20
-72.03668600000024
 10
284.40710200000086
 20
-72.02805000000025
 10
284.5681380000009
 20
-72.01941400000024
 10
284.72917400000085
 20
-72.01077800000024
 10
284.8902100000009
 20
-72.00214200000025
 10
285.0512460000009
 20
-71.99350600000025
 10
285.21228200000087
 20
-71.98487000000026
 10
285.3733180000009
 20
-71.97623400000026
 10
285.53435400000086
 20
-71.96759800000025
 10
285.6953900000009
 20
-71.95896200000026
 10
285.8564260000009
 20
-71.95032600000026
 10
286.0174620000009
 20
-71.94169000000026
 10
286.1784980000009
 20
-71.93305400000027
 10
286.3395340000009
 20
-71.92441800000027
 10
286.5005700000009
 20
-71.91578200000028
 10
286.6616060000009
 20
-71.90714600000027
 10
286.82264200000094
 20
-71.89851000000027
 10
286.9836780000009
 20
-71.88987400000028
 10
287.14471400000093
 20
-71.88123800000028
 10
287.30575000000096
 20
-71.87260200000028
 10
287.4667860000009
 20
-71.86396600000029
 10
287.62782200000095
 20
-71.85533000000028
 10
287.7888580000009
 20
-71.84669400000028
 10
287.94989400000094
 20
-71.83805800000029
 10
288.11093000000096
 20
-71.82942200000029
 10
288.27196600000093
 20
-71.8207860000003
 10
288.43300200000095
 20
-71.8121500000003
 10
288.594038000001
 20
-71.80351400000029
 10
288.75507400000095
 20
-71.7948780000003
 10
288.91611000000097
 20
-71.7862420000003
 10
289.077146000001
 20
-71.7776060000003
 10
289.23818200000096
 20
-71.76897000000031
 10
289.23818200000096
 20
-71.8360260000003
 10
289.23818200000096
 20
-71.90308200000031
 10
289.23818200000096
 20
-71.97013800000032
 10
289.23818200000096
 20
-72.03719400000031
 10
289.23818200000096
 20
-72.10425000000032
 10
289.23818200000096
 20
-72.17130600000033
 10
289.23818200000096
 20
-72.23836200000032
 10
289.23818200000096
 20
-72.30541800000033
 10
289.23818200000096
 20
-72.37247400000032
 10
289.23818200000096
 20
-72.43953000000033
 10
289.23818200000096
 20
-72.50658600000034
 10
289.23818200000096
 20
-72.57364200000033
 10
289.23818200000096
 20
-72.64069800000034
 10
289.23818200000096
 20
-72.70775400000034
 10
289.23818200000096
 20
-72.77481000000034
 10
289.23818200000096
 20
-72.84186600000035
 10
289.23818200000096
 20
-72.90892200000035
 10
289.23818200000096
 20
-72.97597800000035
 10
289.23818200000096
 20
-73.04303400000036
 10
289.23818200000096
 20
-73.11009000000035
 10
289.23818200000096
 20
-73.17714600000036
 10
289.23818200000096
 20
-73.24420200000036
 10
289.23818200000096
 20
-73.31125800000036
 10
289.23818200000096
 20
-73.37831400000037
 10
289.23818200000096
 20
-73.44537000000037
 10
289.23818200000096
 20
-73.51242600000037
 10
289.23818200000096
 20
-73.57948200000037
 10
289.23818200000096
 20
-73.64653800000038
 10
289.23818200000096
 20
-73.71359400000038
 10
289.23818200000096
 20
-73.78065000000038
 10
289.23818200000096
 20
-73.84770600000039
 10
289.23818200000096
 20
-73.9147620000004
 10
289.21938600000095
 20
-73.91247600000038
 10
289.1642680000009
 20
-73.90663400000038
 10
289.0751140000009
 20
-73.89850600000038
 10
288.95395600000086
 20
-73.88910800000039
 10
288.80333400000086
 20
-73.87971000000039
 10
288.6252800000008
 20
-73.87132800000039
 10
288.42208000000085
 20
-73.86523200000039
 10
288.19602000000083
 20
-73.8626920000004
 10
287.9491320000009
 20
-73.86497800000039
 10
287.6839560000008
 20
-73.87310600000039
 10
287.4025240000008
 20
-73.8883460000004
 10
287.10712200000086
 20
-73.9119680000004
 10
286.80003600000083
 20
-73.9449880000004
 10
286.4832980000008
 20
-73.9886760000004
 10
286.1591940000008
 20
-74.0443020000004
 10
285.83001000000075
 20
-74.1128820000004
 10
285.49803200000076
 20
-74.1956860000004
 10
285.16554600000075
 20
-74.2939840000004
 10
284.8348380000008
 20
-74.4087920000004
 10
284.5079400000008
 20
-74.5413800000004
 10
284.1871380000008
 20
-74.6930180000004
 10
283.8747180000008
 20
-74.86472200000038
 10
283.5729660000008
 20
-75.05801600000039
 10
283.2839140000008
 20
-75.2736620000004
 10
283.00984800000083
 20
-75.5131840000004
 10
282.7530540000008
 20
-75.77759800000038
 10
282.5158180000008
 20
-76.06817400000038
 10
282.3004260000008
 20
-76.38618200000039
 10
282.10891000000083
 20
-76.73263800000039
 10
281.94355600000085
 20
-77.10881200000038
 10
281.8069040000008
 20
-77.51572000000037
 10
281.70073200000087
 20
-77.95488600000037
 10
281.6862540000009
 20
-78.02041800000038
 10
281.6689820000009
 20
-78.08468000000036
 10
281.6489160000009
 20
-78.14767200000037
 10
281.6263100000009
 20
-78.20939400000036
 10
281.6011640000009
 20
-78.26959200000037
 10
281.57347800000093
 20
-78.32826600000037
 10
281.54350600000095
 20
-78.38541600000038
 10
281.51099400000095
 20
-78.44104200000037
 10
281.476196000001
 20
-78.49489000000037
 10
281.439366000001
 20
-78.54721400000037
 10
281.400250000001
 20
-78.59776000000038
 10
281.359102000001
 20
-78.64652800000037
 10
281.31592200000097
 20
-78.69326400000038
 10
281.27096400000096
 20
-78.73822200000039
 10
281.224228000001
 20
-78.78114800000039
 10
281.175714000001
 20
-78.82204200000038
 10
281.125422000001
 20
-78.86090400000039
 10
281.07360600000095
 20
-78.89748000000039
 10
281.020012000001
 20
-78.93177000000038
 10
280.965148000001
 20
-78.96377400000038
 10
280.908760000001
 20
-78.99349200000039
 10
280.851102000001
 20
-79.02092400000039
 10
280.792174000001
 20
-79.0458160000004
 10
280.73197600000094
 20
-79.0681680000004
 10
280.670762000001
 20
-79.08798000000039
 10
280.608532000001
 20
-79.10525200000039
 10
280.545286000001
 20
-79.11973000000039
 10
280.481024000001
 20
-79.1316680000004
 10
280.41600000000096
 20
-79.1408120000004
 10
280.35021400000096
 20
-79.1469080000004
 10
280.283666000001
 20
-79.1502100000004
 10
280.216610000001
 20
-79.15046400000038
 10
279.99105800000103
 20
-79.1466540000004
 10
279.76550600000104
 20
-79.1428440000004
 10
279.5399540000011
 20
-79.1390340000004
 10
279.3144020000011
 20
-79.1352240000004
 10
279.0888500000011
 20
-79.1314140000004
 10
278.8632980000011
 20
-79.1276040000004
 10
278.6377460000012
 20
-79.12379400000042
 10
278.4121940000012
 20
-79.11998400000041
 10
278.1866420000012
 20
-79.11617400000041
 10
277.9610900000012
 20
-79.11236400000043
 10
277.73553800000127
 20
-79.10855400000042
 10
277.5099860000013
 20
-79.10474400000042
 10
277.2844340000013
 20
-79.10093400000044
 10
277.0588820000013
 20
-79.09712400000043
 10
276.83333000000135
 20
-79.09331400000043
 10
276.60777800000136
 20
-79.08950400000045
 10
276.38222600000137
 20
-79.08569400000044
 10
276.1566740000014
 20
-79.08188400000044
 10
275.9311220000014
 20
-79.07807400000046
 10
275.70557000000144
 20
-79.07426400000045
 10
275.48001800000145
 20
-79.07045400000047
 10
275.25446600000146
 20
-79.06664400000047
 10
275.02891400000146
 20
-79.06283400000046
 10
274.8033620000015
 20
-79.05902400000048
 10
274.57781000000153
 20
-79.05521400000048
 10
274.35225800000154
 20
-79.05140400000047
 10
274.12670600000155
 20
-79.04759400000049
 10
273.9011540000016
 20
-79.04378400000049
 10
273.6756020000016
 20
-79.03997400000048
 10
273.4500500000016
 20
-79.0361640000005
 10
273.22449800000163
 20
-79.0323540000005
 10
272.9989460000017
 20
-79.0285440000005
 10
273.08251200000166
 20
-78.80832600000049
 10
273.1660780000017
 20
-78.58810800000049
 10
273.24964400000164
 20
-78.36789000000049
 10
273.3332100000016
 20
-78.14767200000048
 10
273.4167760000016
 20
-77.92745400000048
 10
273.5003420000016
 20
-77.70723600000046
 10
273.5839080000016
 20
-77.48701800000046
 10
273.66747400000156
 20
-77.26680000000046
 10
273.7510400000016
 20
-77.04658200000046
 10
273.83460600000154
 20
-76.82636400000045
 10
273.91817200000156
 20
-76.60614600000045
 10
274.0017380000015
 20
-76.38592800000045
 10
274.0853040000015
 20
-76.16571000000043
 10
274.1688700000015
 20
-75.94549200000043
 10
274.25243600000147
 20
-75.72527400000043
 10
274.3360020000015
 20
-75.50505600000042
 10
274.41956800000145
 20
-75.28483800000042
 10
274.50313400000147
 20
-75.06462000000042
 10
274.58670000000143
 20
-74.84440200000041
 10
274.67026600000145
 20
-74.6241840000004
 10
274.7538320000014
 20
-74.4039660000004
 10
274.8373980000014
 20
-74.18374800000039
 10
274.9209640000014
 20
-73.96353000000039
 10
275.00453000000135
 20
-73.74331200000039
 10
275.08809600000137
 20
-73.52309400000038
 10
275.17166200000133
 20
-73.30287600000038
 10
275.25522800000135
 20
-73.08265800000036
 10
275.3387940000013
 20
-72.86244000000036
 10
275.42236000000133
 20
-72.64222200000036
 10
275.5059260000013
 20
-72.42200400000036
 10
275.5894920000013
 20
-72.20178600000035
 10
275.6730580000013
 20
-71.98156800000035
  0
LWPOLYLINE
  5
33
330
17
100
AcDbEntity
  8
0
100
AcDbPolyline
 90
257
 70
0
 10
227.34778000000125
 20
-79.15300400000034
 10
227.23119400000127
 20
-79.55788000000034
 10
227.11460800000128
 20
-79.96275600000034
 10
226.9980220000013
 20
-80.36763200000034
 10
226.88143600000132
 20
-80.77250800000033
 10
226.76485000000133
 20
-81.17738400000033
 10
226.64826400000135
 20
-81.58226000000033
 10
226.53167800000136
 20
-81.98713600000033
 10
226.41509200000138
 20
-82.39201200000034
 10
226.29850600000137
 20
-82.79688800000032
 10
226.18192000000138
 20
-83.20176400000032
 10
226.0653340000014
 20
-83.60664000000033
 10
225.94874800000142
 20
-84.01151600000033
 10
225.83216200000143
 20
-84.41639200000033
 10
225.71557600000145
 20
-84.82126800000032
 10
225.59899000000146
 20
-85.22614400000032
 10
225.48240400000148
 20
-85.63102000000032
 10
225.3658180000015
 20
-86.03589600000032
 10
225.2492320000015
 20
-86.44077200000031
 10
225.13264600000153
 20
-86.84564800000031
 10
225.01606000000152
 20
-87.25052400000031
 10
224.89947400000153
 20
-87.65540000000031
 10
224.78288800000155
 20
-88.06027600000031
 10
224.66630200000156
 20
-88.4651520000003
 10
224.54971600000158
 20
-88.8700280000003
 10
224.4331300000016
 20
-89.2749040000003
 10
224.3165440000016
 20
-89.6797800000003
 10
224.19995800000163
 20
-90.08465600000031
 10
224.08337200000165
 20
-90.4895320000003
 10
223.96678600000166
 20
-90.8944080000003
 10
223.85020000000168
 20
-91.2992840000003
 10
223.7336140000017
 20
-91.7041600000003
 10
223.61702800000168
 20
-92.10903600000029
 10
223.98583600000168
 20
-92.07500000000029
 10
224.4407500000017
 20
-92.04629800000029
 10
224.9761820000017
 20
-92.02267600000029
 10
225.5867980000017
 20
-92.00413400000029
 10
226.2667560000017
 20
-91.99016400000029
 10
227.0107220000017
 20
-91.9807660000003
 10
227.81310800000168
 20
-91.9754320000003
 10
228.66807200000167
 20
-91.97390800000029
 10
229.5702800000017
 20
-91.97594000000029
 10
230.5141440000017
 20
-91.9815280000003
 10
231.49407600000168
 20
-91.99016400000029
 10
232.50448800000166
 20
-92.0015940000003
 10
233.53979200000168
 20
-92.0155640000003
 10
234.59440000000168
 20
-92.03207400000029
 10
235.66272400000167
 20
-92.05061600000029
 10
236.7391760000017
 20
-92.07093600000029
 10
237.81816800000172
 20
-92.09278000000029
 10
238.8943660000017
 20
-92.1158940000003
 10
239.9619280000017
 20
-92.1400240000003
 10
241.01552000000171
 20
-92.1649160000003
 10
242.04930000000172
 20
-92.19031600000031
 10
243.05793400000172
 20
-92.2162240000003
 10
244.03558000000174
 20
-92.2421320000003
 10
244.97690400000172
 20
-92.2677860000003
 10
245.87631800000176
 20
-92.29293200000029
 10
246.72823400000175
 20
-92.31706200000029
 10
247.52681000000177
 20
-92.3401760000003
 10
248.26671200000177
 20
-92.3620200000003
 10
248.94235200000176
 20
-92.3823400000003
 10
249.54814200000175
 20
-92.4008820000003
 10
250.07874800000178
 20
-92.41739200000029
 10
250.52832800000175
 20
-92.43161600000029
 10
250.57125400000177
 20
-92.43187000000029
 10
250.61367200000177
 20
-92.42983800000029
 10
250.65558200000174
 20
-92.42577400000029
 10
250.69698400000175
 20
-92.41967800000029
 10
250.73762400000174
 20
-92.41155000000029
 10
250.77750200000176
 20
-92.40139000000028
 10
250.81661800000177
 20
-92.38945200000028
 10
250.85497200000174
 20
-92.37548200000028
 10
250.89231000000177
 20
-92.35973400000027
 10
250.92863200000176
 20
-92.34220800000027
 10
250.96393800000178
 20
-92.32290400000026
 10
250.99822800000177
 20
-92.30207600000027
 10
251.03150200000175
 20
-92.27972400000026
 10
251.06350600000175
 20
-92.25559400000024
 10
251.09449400000173
 20
-92.23019400000024
 10
251.12421200000173
 20
-92.20327000000024
 10
251.15240600000172
 20
-92.17482200000023
 10
251.17933000000173
 20
-92.14510400000023
 10
251.20473000000175
 20
-92.11411600000024
 10
251.22860600000175
 20
-92.08185800000022
 10
251.25095800000173
 20
-92.04833000000023
 10
251.27178600000175
 20
-92.01378600000022
 10
251.29109000000176
 20
-91.97822600000022
 10
251.30861600000173
 20
-91.94165000000022
 10
251.32436400000174
 20
-91.90405800000022
 10
251.33833400000174
 20
-91.86545000000022
 10
251.35027200000172
 20
-91.82608000000023
 10
251.36043200000174
 20
-91.78594800000022
 10
251.36856000000174
 20
-91.74505400000022
 10
251.37465600000172
 20
-91.70339800000022
 10
251.37872000000172
 20
-91.66098000000024
 10
251.38075200000173
 20
-91.61805400000024
 10
251.40310400000172
 20
-91.16974400000024
 10
251.45060200000174
 20
-90.75089800000025
 10
251.52146800000173
 20
-90.36024600000025
 10
251.61417800000171
 20
-89.99702600000023
 10
251.7269540000017
 20
-89.66022200000023
 10
251.85801800000172
 20
-89.34881800000024
 10
252.0058460000017
 20
-89.06154400000024
 10
252.1686600000017
 20
-88.79789200000023
 10
252.34468200000168
 20
-88.55659200000024
 10
252.5323880000017
 20
-88.33662800000025
 10
252.7300000000017
 20
-88.13698400000024
 10
252.9357400000017
 20
-87.95689800000024
 10
253.1480840000017
 20
-87.79510000000025
 10
253.3652540000017
 20
-87.65082800000025
 10
253.5854720000017
 20
-87.52306600000024
 10
253.8072140000017
 20
-87.41079800000024
 10
254.0287020000017
 20
-87.31300800000025
 10
254.2481580000017
 20
-87.22868000000025
 10
254.46380400000172
 20
-87.15679800000025
 10
254.6741160000017
 20
-87.09634600000025
 10
254.87731600000168
 20
-87.04656200000024
 10
255.0718800000017
 20
-87.00617600000024
 10
255.2557760000017
 20
-86.97442600000024
 10
255.4277340000017
 20
-86.95029600000024
 10
255.58572200000168
 20
-86.93251600000023
 10
255.7282160000017
 20
-86.92032400000024
 10
255.85343800000172
 20
-86.91270400000025
 10
255.9596100000017
 20
-86.90864000000023
 10
256.0452080000017
 20
-86.90737000000024
 10
256.1084540000017
 20
-86.90762400000024
 10
256.14757000000174
 20
-86.90838600000023
 10
256.16103200000174
 20
-86.90889400000023
 10
256.9055060000017
 20
-86.91321200000023
 10
257.64998000000173
 20
-86.91753000000023
 10
258.39445400000176
 20
-86.92184800000022
 10
259.1389280000018
 20
-86.92616600000022
 10
259.88340200000175
 20
-86.93048400000023
 10
260.6278760000018
 20
-86.93480200000023
 10
261.37235000000175
 20
-86.93912000000023
 10
262.11682400000177
 20
-86.94343800000023
 10
262.8612980000018
 20
-86.94775600000023
 10
263.60577200000176
 20
-86.95207400000022
 10
264.3502460000018
 20
-86.95639200000022
 10
265.0947200000018
 20
-86.96071000000022
 10
265.83919400000184
 20
-86.96502800000022
 10
266.5836680000018
 20
-86.96934600000021
 10
267.32814200000183
 20
-86.97366400000021
 10
268.07261600000186
 20
-86.97798200000021
 10
268.8170900000019
 20
-86.98230000000021
 10
269.56156400000185
 20
-86.98661800000022
 10
270.3060380000019
 20
-86.99093600000022
 10
271.0505120000019
 20
-86.99525400000022
 10
271.7949860000019
 20
-86.99957200000021
 10
272.5394600000019
 20
-87.00389000000021
 10
273.2839340000019
 20
-87.00820800000021
 10
274.02840800000195
 20
-87.01252600000021
 10
274.7728820000019
 20
-87.0168440000002
 10
275.51735600000194
 20
-87.0211620000002
 10
276.26183000000196
 20
-87.0254800000002
 10
277.006304000002
 20
-87.0297980000002
 10
277.75077800000196
 20
-87.0341160000002
 10
278.495252000002
 20
-87.03843400000021
 10
279.239726000002
 20
-87.0427520000002
 10
279.98420000000203
 20
-87.0470700000002
 10
280.033476000002
 20
-87.0460540000002
 10
280.082244000002
 20
-87.0424980000002
 10
280.13025000000204
 20
-87.03665600000019
 10
280.177494000002
 20
-87.0285280000002
 10
280.223976000002
 20
-87.0181140000002
 10
280.269696000002
 20
-87.00541400000019
 10
280.314400000002
 20
-86.99042800000018
 10
280.358088000002
 20
-86.97341000000019
 10
280.400760000002
 20
-86.95436000000018
 10
280.442162000002
 20
-86.93327800000017
 10
280.482548000002
 20
-86.91041800000018
 10
280.52166400000203
 20
-86.88552600000018
 10
280.559256000002
 20
-86.85885600000017
 10
280.595578000002
 20
-86.83040800000016
 10
280.630376000002
 20
-86.80043600000018
 10
280.663650000002
 20
-86.76868600000017
 10
280.695400000002
 20
-86.73541200000018
 10
280.72562600000197
 20
-86.70061400000017
 10
280.754328000002
 20
-86.66454600000017
 10
280.781252000002
 20
-86.62695400000017
 10
280.806398000002
 20
-86.58809200000016
 10
280.82951200000196
 20
-86.54796000000016
 10
280.850848000002
 20
-86.50655800000015
 10
280.87015200000195
 20
-86.46414000000017
 10
280.88742400000194
 20
-86.42070600000017
 10
280.90266400000195
 20
-86.37600200000017
 10
280.9156180000019
 20
-86.33053600000018
 10
280.92628600000194
 20
-86.28405400000018
 10
280.93466800000186
 20
-86.23681000000019
 10
280.9407640000019
 20
-86.18880400000018
 10
280.94457400000186
 20
-86.14003600000018
 10
280.9458440000019
 20
-86.09050600000018
 10
280.9458440000019
 20
-85.89213200000017
 10
280.9458440000019
 20
-85.69375800000017
 10
280.9458440000019
 20
-85.49538400000017
 10
280.9458440000019
 20
-85.29701000000017
 10
280.9458440000019
 20
-85.09863600000017
 10
280.9458440000019
 20
-84.90026200000017
 10
280.9458440000019
 20
-84.70188800000017
 10
280.9458440000019
 20
-84.50351400000017
 10
280.9458440000019
 20
-84.30514000000016
 10
280.9458440000019
 20
-84.10676600000016
 10
280.9458440000019
 20
-83.90839200000016
 10
280.9458440000019
 20
-83.71001800000016
 10
280.9458440000019
 20
-83.51164400000016
 10
280.9458440000019
 20
-83.31327000000016
 10
280.9458440000019
 20
-83.11489600000016
 10
280.9458440000019
 20
-82.91652200000016
 10
280.9458440000019
 20
-82.71814800000016
 10
280.9458440000019
 20
-82.51977400000015
 10
280.9458440000019
 20
-82.32140000000015
 10
280.9458440000019
 20
-82.12302600000015
 10
280.9458440000019
 20
-81.92465200000015
 10
280.9458440000019
 20
-81.72627800000015
 10
280.9458440000019
 20
-81.52790400000015
 10
280.9458440000019
 20
-81.32953000000015
 10
280.9458440000019
 20
-81.13115600000015
 10
280.9458440000019
 20
-80.93278200000015
 10
280.9458440000019
 20
-80.73440800000014
 10
280.9458440000019
 20
-80.53603400000014
 10
280.9458440000019
 20
-80.33766000000014
 10
280.9458440000019
 20
-80.13928600000014
 10
280.9458440000019
 20
-79.94091200000014
 10
280.9458440000019
 20
-79.74253800000014
 10
279.2712220000019
 20
-79.72425000000013
 10
277.59634600000186
 20
-79.70596200000013
 10
275.92172400000186
 20
-79.68767400000013
 10
274.24710200000186
 20
-79.66938600000013
 10
272.5722260000018
 20
-79.65109800000013
 10
270.8976040000018
 20
-79.63281000000013
 10
269.2227280000018
 20
-79.61452200000012
 10
267.5481060000018
 20
-79.59623400000012
 10
265.87323000000174
 20
-79.57794600000013
 10
264.19860800000174
 20
-79.55965800000013
 10
262.52398600000174
 20
-79.54137000000013
 10
260.8491100000017
 20
-79.52308200000013
 10
259.1744880000017
 20
-79.50479400000012
 10
257.49986600000176
 20
-79.48650600000012
 10
255.82524400000173
 20
-79.46821800000012
 10
254.15062200000176
 20
-79.44993000000012
 10
252.47600000000176
 20
-79.43164200000012
 10
250.80137800000176
 20
-79.41335400000013
 10
249.1267560000018
 20
-79.39506600000011
 10
247.4521340000018
 20
-79.37677800000012
 10
245.7775120000018
 20
-79.35849000000012
 10
244.10289000000182
 20
-79.34020200000012
 10
242.42826800000182
 20
-79.32191400000012
 10
240.75364600000182
 20
-79.30362600000012
 10
239.07902400000185
 20
-79.28533800000011
 10
237.40440200000185
 20
-79.26705000000011
 10
235.72978000000185
 20
-79.24876200000011
 10
234.05515800000188
 20
-79.23047400000011
 10
232.38053600000188
 20
-79.21218600000012
 10
230.70591400000188
 20
-79.19389800000012
 10
229.0312920000019
 20
-79.1756100000001
 10
227.3566700000019
 20
-79.15732200000011
  0
LWPOLYLINE
  5
34
330
17
100
AcDbEntity
  8
0
100
AcDbPolyline
 90
65
 70
0
 10
226.41966400000192
 20
-90.42984200000011
 10
226.23526000000192
 20
-90.42069800000012
 10
226.06279400000193
 20
-90.39428200000012
 10
225.90226600000193
 20
-90.35186400000012
 10
225.75342200000193
 20
-90.29446000000011
 10
225.61651600000195
 20
-90.22308600000012
 10
225.49154800000196
 20
-90.13901200000011
 10
225.37851800000195
 20
-90.04350800000012
 10
225.27742600000192
 20
-89.93759000000013
 10
225.18827200000194
 20
-89.82227400000012
 10
225.11105600000195
 20
-89.69908400000013
 10
225.04577800000195
 20
-89.56878200000013
 10
224.99218400000194
 20
-89.43289200000012
 10
224.95052800000195
 20
-89.29217600000013
 10
224.92081000000195
 20
-89.14815800000012
 10
224.90303000000196
 20
-89.00185400000012
 10
224.89718800000193
 20
-88.85428000000012
 10
224.90328400000195
 20
-88.70670600000011
 10
224.92131800000195
 20
-88.56040200000011
 10
224.95103600000195
 20
-88.41638400000011
 10
224.99269200000194
 20
-88.27566800000011
 10
225.04628600000194
 20
-88.1397780000001
 10
225.11181800000196
 20
-88.0094760000001
 10
225.18928800000194
 20
-87.88628600000011
 10
225.27844200000195
 20
-87.7709700000001
 10
225.37953400000194
 20
-87.66505200000012
 10
225.49256400000195
 20
-87.56954800000011
 10
225.61753200000194
 20
-87.48547400000011
 10
225.75418400000194
 20
-87.4141000000001
 10
225.90277400000195
 20
-87.35669600000011
 10
226.06330200000195
 20
-87.31427800000012
 10
226.23551400000196
 20
-87.28786200000012
 10
226.41966400000194
 20
-87.27871800000013
 10
226.60406800000194
 20
-87.28786200000012
 10
226.77653400000193
 20
-87.31427800000012
 10
226.93706200000193
 20
-87.35669600000011
 10
227.08590600000193
 20
-87.4141000000001
 10
227.22281200000194
 20
-87.48547400000011
 10
227.34778000000193
 20
-87.56954800000011
 10
227.46081000000194
 20
-87.66505200000012
 10
227.56190200000194
 20
-87.7709700000001
 10
227.65105600000194
 20
-87.88628600000011
 10
227.72827200000194
 20
-88.0094760000001
 10
227.79355000000191
 20
-88.1397780000001
 10
227.84689000000193
 20
-88.27566800000011
 10
227.88854600000192
 20
-88.41638400000011
 10
227.91826400000193
 20
-88.56040200000011
 10
227.93604400000194
 20
-88.70670600000011
 10
227.94188600000194
 20
-88.85428000000012
 10
227.93579000000193
 20
-89.00185400000012
 10
227.91775600000193
 20
-89.14815800000012
 10
227.88803800000193
 20
-89.29217600000013
 10
227.84638200000194
 20
-89.43289200000012
 10
227.79278800000193
 20
-89.56878200000013
 10
227.72725600000192
 20
-89.69908400000013
 10
227.64978600000194
 20
-89.82227400000012
 10
227.56063200000193
 20
-89.93759000000013
 10
227.45954000000194
 20
-90.04350800000012
 10
227.34651000000193
 20
-90.13901200000011
 10
227.22154200000193
 20
-90.22308600000012
 10
227.08489000000193
 20
-90.29446000000011
 10
226.93630000000192
 20
-90.35186400000012
 10
226.77577200000192
 20
-90.39428200000012
 10
226.60356000000195
 20
-90.42069800000012
 10
226.41941000000193
 20
-90.42984200000011
  0
LWPOLYLINE
  5
35
330
17
100
AcDbEntity
  8
0
100
AcDbPolyline
 90
129
 70
0
 10
242.34698800000191
 20
-83.47837000000011
 10
242.34241600000192
 20
-83.6543920000001
 10
242.32920800000193
 20
-83.8281280000001
 10
242.3073640000019
 20
-83.9993240000001
 10
242.2773920000019
 20
-84.16772600000012
 10
242.2392920000019
 20
-84.33308000000011
 10
242.19331800000188
 20
-84.49538600000011
 10
242.1394700000019
 20
-84.6543900000001
 10
242.0782560000019
 20
-84.8095840000001
 10
242.00967600000192
 20
-84.96096800000011
 10
241.9342380000019
 20
-85.10854200000011
 10
241.8519420000019
 20
-85.25179800000012
 10
241.76304200000192
 20
-85.39048200000012
 10
241.6677920000019
 20
-85.52459400000012
 10
241.5661920000019
 20
-85.65388000000013
 10
241.4587500000019
 20
-85.77808600000012
 10
241.3454660000019
 20
-85.89695800000013
 10
241.2265940000019
 20
-86.01024200000013
 10
241.1023880000019
 20
-86.11768400000012
 10
240.9731020000019
 20
-86.21928400000013
 10
240.8389900000019
 20
-86.31453400000012
 10
240.7003060000019
 20
-86.40343400000013
 10
240.55705000000188
 20
-86.48573000000013
 10
240.4094760000019
 20
-86.56116800000014
 10
240.25809200000188
 20
-86.62974800000013
 10
240.1028980000019
 20
-86.69096200000013
 10
239.9438940000019
 20
-86.74481000000013
 10
239.7815880000019
 20
-86.79078400000013
 10
239.6162340000019
 20
-86.82888400000012
 10
239.4478320000019
 20
-86.85885600000012
 10
239.2766360000019
 20
-86.88070000000012
 10
239.1029000000019
 20
-86.89390800000012
 10
238.92687800000192
 20
-86.89848000000012
 10
238.75085600000193
 20
-86.89390800000012
 10
238.57712000000194
 20
-86.88070000000012
 10
238.40592400000193
 20
-86.85885600000012
 10
238.23752200000195
 20
-86.82888400000012
 10
238.07216800000194
 20
-86.79078400000013
 10
237.90986200000194
 20
-86.74481000000013
 10
237.75085800000195
 20
-86.69096200000013
 10
237.59566400000196
 20
-86.62974800000013
 10
237.44428000000195
 20
-86.56116800000014
 10
237.29670600000193
 20
-86.48573000000013
 10
237.15345000000195
 20
-86.40343400000013
 10
237.01476600000194
 20
-86.31453400000012
 10
236.88065400000193
 20
-86.21928400000013
 10
236.75136800000195
 20
-86.11768400000012
 10
236.62716200000193
 20
-86.01024200000013
 10
236.50829000000195
 20
-85.89695800000013
 10
236.39500600000193
 20
-85.77808600000012
 10
236.28756400000194
 20
-85.65388000000013
 10
236.18596400000195
 20
-85.52459400000012
 10
236.09071400000192
 20
-85.39048200000012
 10
236.00181400000193
 20
-85.25179800000012
 10
235.91951800000194
 20
-85.10854200000011
 10
235.84408000000192
 20
-84.96096800000011
 10
235.77550000000193
 20
-84.8095840000001
 10
235.71428600000195
 20
-84.6543900000001
 10
235.66043800000193
 20
-84.49538600000011
 10
235.61446400000193
 20
-84.33308000000011
 10
235.57636400000194
 20
-84.16772600000012
 10
235.54639200000193
 20
-83.9993240000001
 10
235.52454800000191
 20
-83.8281280000001
 10
235.51134000000192
 20
-83.6543920000001
 10
235.5067680000019
 20
-83.47837000000011
 10
235.51134000000192
 20
-83.30234800000011
 10
235.52454800000191
 20
-83.1286120000001
 10
235.54639200000193
 20
-82.95741600000011
 10
235.57636400000194
 20
-82.78901400000011
 10
235.61446400000193
 20
-82.6236600000001
 10
235.66043800000193
 20
-82.4613540000001
 10
235.71428600000195
 20
-82.30235000000012
 10
235.77550000000193
 20
-82.14715600000011
 10
235.84408000000192
 20
-81.99577200000012
 10
235.91951800000194
 20
-81.84819800000011
 10
236.00181400000193
 20
-81.7049420000001
 10
236.09071400000192
 20
-81.5662580000001
 10
236.18596400000195
 20
-81.4321460000001
 10
236.28756400000194
 20
-81.3028600000001
 10
236.39500600000193
 20
-81.17865400000011
 10
236.50829000000195
 20
-81.0597820000001
 10
236.62716200000193
 20
-80.94649800000009
 10
236.75136800000195
 20
-80.83905600000008
 10
236.88065400000193
 20
-80.7374560000001
 10
237.01476600000194
 20
-80.6422060000001
 10
237.15345000000195
 20
-80.55330600000009
 10
237.29670600000193
 20
-80.47101000000009
 10
237.44428000000195
 20
-80.39557200000009
 10
237.59566400000196
 20
-80.32699200000009
 10
237.75085800000195
 20
-80.26577800000008
 10
237.90986200000194
 20
-80.2119300000001
 10
238.07216800000194
 20
-80.1659560000001
 10
238.23752200000195
 20
-80.12785600000011
 10
238.40592400000193
 20
-80.09788400000011
 10
238.57712000000194
 20
-80.0760400000001
 10
238.75085600000193
 20
-80.0628320000001
 10
238.92687800000192
 20
-80.0582600000001
 10
239.1029000000019
 20
-80.0628320000001
 10
239.2766360000019
 20
-80.0760400000001
 10
239.4478320000019
 20
-80.09788400000011
 10
239.6162340000019
 20
-80.12785600000011
 10
239.7815880000019
 20
-80.1659560000001
 10
239.9438940000019
 20
-80.2119300000001
 10
240.1028980000019
 20
-80.26577800000008
 10
240.25809200000188
 20
-80.32699200000009
 10
240.4094760000019
 20
-80.39557200000009
 10
240.55705000000188
 20
-80.47101000000009
 10
240.7003060000019
 20
-80.55330600000009
 10
240.8389900000019
 20
-80.6422060000001
 10
240.9731020000019
 20
-80.7374560000001
 10
241.1023880000019
 20
-80.83905600000008
 10
241.2265940000019
 20
-80.94649800000009
 10
241.3454660000019
 20
-81.0597820000001
 10
241.4587500000019
 20
-81.17865400000011
 10
241.5661920000019
 20
-81.3028600000001
 10
241.6677920000019
 20
-81.4321460000001
 10
241.76304200000192
 20
-81.5662580000001
 10
241.8519420000019
 20
-81.7049420000001
 10
241.9342380000019
 20
-81.84819800000011
 10
242.00967600000192
 20
-81.99577200000012
 10
242.0782560000019
 20
-82.14715600000011
 10
242.1394700000019
 20
-82.30235000000012
 10
242.19331800000188
 20
-82.4613540000001
 10
242.2392920000019
 20
-82.6236600000001
 10
242.2773920000019
 20
-82.78901400000011
 10
242.3073640000019
 20
-82.95741600000011
 10
242.32920800000193
 20
-83.1286120000001
 10
242.34241600000192
 20
-83.30234800000011
 10
242.34698800000191
 20
-83.47837000000011
  0
LWPOLYLINE
  5
36
330
17
100
AcDbEntity
  8
0
100
AcDbPolyline
 90
321
 70
0
 10
217.16923800000194
 20
-79.28102000000011
 10
217.2210540000019
 20
-79.4186880000001
 10
217.26448800000193
 20
-79.55610200000011
 10
217.29954000000194
 20
-79.6930080000001
 10
217.32671800000193
 20
-79.8294060000001
 10
217.34653000000193
 20
-79.96529600000011
 10
217.35897600000192
 20
-80.1004240000001
 10
217.36456400000193
 20
-80.2345360000001
 10
217.36380200000193
 20
-80.3676320000001
 10
217.35669000000192
 20
-80.4997120000001
 10
217.34399000000192
 20
-80.6302680000001
 10
217.3257020000019
 20
-80.75955400000011
 10
217.30233400000193
 20
-80.88706200000011
 10
217.27414000000192
 20
-81.0130460000001
 10
217.2413740000019
 20
-81.1369980000001
 10
217.20454400000193
 20
-81.2591720000001
 10
217.16415800000192
 20
-81.3790600000001
 10
217.12021600000193
 20
-81.4966620000001
 10
217.07322600000194
 20
-81.61197800000011
 10
217.02344200000195
 20
-81.7247540000001
 10
216.97137200000194
 20
-81.83499000000012
 10
216.91727000000193
 20
-81.94243200000012
 10
216.86139000000193
 20
-82.04682600000012
 10
216.80424000000193
 20
-82.14817200000012
 10
216.74607400000193
 20
-82.24621600000012
 10
216.68714600000192
 20
-82.34095800000013
 10
216.62796400000192
 20
-82.43239800000012
 10
216.56878200000196
 20
-82.52002800000014
 10
216.51010800000194
 20
-82.60410200000014
 10
216.45219600000195
 20
-82.68411200000014
 10
216.39530000000195
 20
-82.76031200000014
 10
216.33967400000193
 20
-82.83219400000014
 10
216.28582600000195
 20
-82.89975800000015
 10
216.26474400000194
 20
-82.92515800000015
 10
216.24315400000194
 20
-82.94979600000015
 10
216.22080200000195
 20
-82.97367200000015
 10
216.19794200000194
 20
-82.99678600000014
 10
216.17432000000196
 20
-83.01939200000015
 10
216.15019000000194
 20
-83.04123600000015
 10
216.12555200000196
 20
-83.06231800000016
 10
216.10040600000193
 20
-83.08263800000016
 10
216.07475200000192
 20
-83.10219600000015
 10
216.04859000000195
 20
-83.12099200000016
 10
216.02192000000196
 20
-83.13902600000016
 10
215.99474200000196
 20
-83.15629800000016
 10
215.96705600000195
 20
-83.17280800000016
 10
215.93911600000195
 20
-83.18855600000016
 10
215.91066800000195
 20
-83.20354200000017
 10
215.88171200000193
 20
-83.21776600000017
 10
215.85250200000195
 20
-83.23097400000017
 10
215.82303800000193
 20
-83.24342000000017
 10
215.79306600000191
 20
-83.25510400000016
 10
215.76284000000192
 20
-83.26602600000017
 10
215.7323600000019
 20
-83.27618600000017
 10
215.70137200000192
 20
-83.28533000000017
 10
215.6701300000019
 20
-83.29371200000017
 10
215.6386340000019
 20
-83.30133200000017
 10
215.6068840000019
 20
-83.30793600000017
 10
215.5748800000019
 20
-83.31377800000017
 10
215.5428760000019
 20
-83.31860400000018
 10
215.51061800000193
 20
-83.32266800000018
 10
215.47810600000193
 20
-83.32571600000018
 10
215.44534000000192
 20
-83.32800200000018
 10
215.4125740000019
 20
-83.32927200000019
 10
215.37955400000192
 20
-83.32978000000018
 10
215.3467880000019
 20
-83.32978000000018
 10
215.3140220000019
 20
-83.32978000000018
 10
215.2812560000019
 20
-83.32978000000018
 10
215.2484900000019
 20
-83.32978000000018
 10
215.2157240000019
 20
-83.32978000000018
 10
215.1829580000019
 20
-83.32978000000018
 10
215.15019200000188
 20
-83.32978000000018
 10
215.11742600000187
 20
-83.32978000000018
 10
215.08466000000186
 20
-83.32978000000018
 10
215.05189400000185
 20
-83.32978000000018
 10
215.01912800000187
 20
-83.32978000000018
 10
214.98636200000186
 20
-83.32978000000018
 10
214.95359600000185
 20
-83.32978000000018
 10
214.92083000000184
 20
-83.32978000000018
 10
214.88806400000183
 20
-83.32978000000018
 10
214.85529800000182
 20
-83.32978000000018
 10
214.82253200000184
 20
-83.32978000000018
 10
214.78976600000183
 20
-83.32978000000018
 10
214.75700000000182
 20
-83.32978000000018
 10
214.72423400000181
 20
-83.32978000000018
 10
214.6914680000018
 20
-83.32978000000018
 10
214.6587020000018
 20
-83.32978000000018
 10
214.62593600000181
 20
-83.32978000000018
 10
214.5931700000018
 20
-83.32978000000018
 10
214.5604040000018
 20
-83.32978000000018
 10
214.5276380000018
 20
-83.32978000000018
 10
214.49487200000178
 20
-83.32978000000018
 10
214.46210600000177
 20
-83.32978000000018
 10
214.4293400000018
 20
-83.32978000000018
 10
214.39657400000178
 20
-83.32978000000018
 10
214.36380800000177
 20
-83.32978000000018
 10
214.33104200000176
 20
-83.32978000000018
 10
214.27998800000177
 20
-83.50935800000019
 10
214.22868000000176
 20
-83.68893600000018
 10
214.17762600000174
 20
-83.86851400000018
 10
214.12631800000176
 20
-84.04809200000018
 10
214.07526400000174
 20
-84.22767000000017
 10
214.02395600000173
 20
-84.40724800000018
 10
213.97290200000174
 20
-84.58682600000017
 10
213.92159400000173
 20
-84.76640400000018
 10
213.87054000000174
 20
-84.94598200000017
 10
213.81923200000173
 20
-85.12556000000018
 10
213.76817800000174
 20
-85.30513800000017
 10
213.71687000000173
 20
-85.48471600000016
 10
213.6658160000017
 20
-85.66429400000017
 10
213.61450800000173
 20
-85.84387200000016
 10
213.5634540000017
 20
-86.02345000000017
 10
213.5121460000017
 20
-86.20302800000016
 10
213.4610920000017
 20
-86.38260600000017
 10
213.4097840000017
 20
-86.56218400000016
 10
213.3587300000017
 20
-86.74176200000015
 10
213.3074220000017
 20
-86.92134000000016
 10
213.25636800000171
 20
-87.10091800000015
 10
213.2050600000017
 20
-87.28049600000016
 10
213.1540060000017
 20
-87.46007400000015
 10
213.1026980000017
 20
-87.63965200000015
 10
213.0516440000017
 20
-87.81923000000015
 10
213.00033600000168
 20
-87.99880800000014
 10
212.9492820000017
 20
-88.17838600000015
 10
212.89797400000168
 20
-88.35796400000014
 10
212.8469200000017
 20
-88.53754200000014
 10
212.79561200000168
 20
-88.71712000000014
 10
212.7445580000017
 20
-88.89669800000014
 10
212.69325000000168
 20
-89.07627600000014
 10
212.54847000000166
 20
-89.35720000000013
 10
212.40927800000168
 20
-89.63355200000014
 10
212.27542000000165
 20
-89.90609400000014
 10
212.14664200000166
 20
-90.17584200000013
 10
212.02269000000166
 20
-90.44330400000014
 10
211.90356400000164
 20
-90.70949600000014
 10
211.78875600000163
 20
-90.97518000000014
 10
211.67801200000164
 20
-91.24137200000014
 10
211.57107800000162
 20
-91.50858000000014
 10
211.46795400000164
 20
-91.77782000000015
 10
211.36813200000162
 20
-92.04985400000015
 10
211.27161200000162
 20
-92.32544400000015
 10
211.17788600000162
 20
-92.60535200000014
 10
211.08695400000164
 20
-92.89034000000014
 10
210.99830800000163
 20
-93.18142400000015
 10
210.91194800000162
 20
-93.47936600000014
 10
210.82736600000163
 20
-93.78492800000014
 10
210.74456200000162
 20
-94.09887200000014
 10
210.6632820000016
 20
-94.42221400000014
 10
210.5830180000016
 20
-94.75546200000015
 10
210.5037700000016
 20
-95.09963200000016
 10
210.4252840000016
 20
-95.45548600000015
 10
210.3473060000016
 20
-95.82378600000015
 10
210.26958200000158
 20
-96.20554800000015
 10
210.19185800000156
 20
-96.60128000000014
 10
210.11388000000156
 20
-97.01199800000015
 10
210.0353940000016
 20
-97.43846400000014
 10
209.95614600000158
 20
-97.88144000000015
 10
209.87588200000155
 20
-98.34194200000015
 10
209.79434800000155
 20
-98.82047800000015
 10
209.71129000000155
 20
-99.31806400000015
 10
209.6264540000016
 20
-99.83546200000015
 10
209.90839400000158
 20
-99.91420200000015
 10
210.16899800000158
 20
-100.00488000000016
 10
210.40928200000158
 20
-100.10648000000015
 10
210.63026200000158
 20
-100.21798600000015
 10
210.8324460000016
 20
-100.33863600000016
 10
211.01659600000158
 20
-100.46741400000016
 10
211.1837280000016
 20
-100.60330400000016
 10
211.3346040000016
 20
-100.74554400000017
 10
211.4697320000016
 20
-100.89311800000017
 10
211.59012800000164
 20
-101.04501000000018
 10
211.69680800000162
 20
-101.20020400000017
 10
211.79028000000164
 20
-101.35793800000016
 10
211.87130600000162
 20
-101.51719600000017
 10
211.9409020000016
 20
-101.67696200000017
 10
211.99983000000162
 20
-101.83647400000017
 10
212.04859800000162
 20
-101.99471600000017
 10
212.0882220000016
 20
-102.15067200000016
 10
212.1197180000016
 20
-102.30332600000015
 10
212.14359400000163
 20
-102.45191600000015
 10
212.16061200000163
 20
-102.59542600000016
 10
212.1717880000016
 20
-102.73284000000015
 10
212.17788400000163
 20
-102.86314200000015
 10
212.17940800000162
 20
-102.98557000000015
 10
212.1773760000016
 20
-103.09910800000016
 10
212.1728040000016
 20
-103.20299400000016
 10
212.1662000000016
 20
-103.29595800000016
 10
212.1583260000016
 20
-103.37723800000015
 10
212.1501980000016
 20
-103.44581800000014
 10
212.14232400000162
 20
-103.50093600000014
 10
212.13572000000164
 20
-103.54132200000014
 10
212.13114800000162
 20
-103.56621400000014
 10
212.12937000000164
 20
-103.57485000000014
 10
212.17864600000163
 20
-103.40187600000014
 10
212.22792200000163
 20
-103.22890200000015
 10
212.27719800000162
 20
-103.05592800000015
 10
212.3264740000016
 20
-102.88295400000015
 10
212.3757500000016
 20
-102.70998000000016
 10
212.4250260000016
 20
-102.53700600000016
 10
212.47430200000156
 20
-102.36403200000017
 10
212.52357800000155
 20
-102.19105800000017
 10
212.57285400000154
 20
-102.01808400000017
 10
212.62213000000153
 20
-101.84511000000018
 10
212.67140600000153
 20
-101.6721360000002
 10
212.72068200000152
 20
-101.4991620000002
 10
212.7699580000015
 20
-101.3261880000002
 10
212.8192340000015
 20
-101.1532140000002
 10
212.8685100000015
 20
-100.98024000000021
 10
212.91778600000148
 20
-100.80726600000021
 10
212.96706200000148
 20
-100.63429200000022
 10
213.01633800000147
 20
-100.46131800000022
 10
213.06561400000146
 20
-100.28834400000022
 10
213.11489000000145
 20
-100.11537000000023
 10
213.16416600000142
 20
-99.94239600000023
 10
213.2134420000014
 20
-99.76942200000023
 10
213.2627180000014
 20
-99.59644800000024
 10
213.3119940000014
 20
-99.42347400000024
 10
213.36127000000138
 20
-99.25050000000024
 10
213.41054600000137
 20
-99.07752600000025
 10
213.45982200000137
 20
-98.90455200000025
 10
213.50909800000136
 20
-98.73157800000025
 10
213.55837400000135
 20
-98.55860400000026
 10
213.60765000000134
 20
-98.38563000000026
 10
213.65692600000133
 20
-98.21265600000027
 10
213.70620200000133
 20
-98.03968200000028
 10
213.8697780000013
 20
-97.47681800000028
 10
214.0582460000013
 20
-96.94875200000027
 10
214.2698280000013
 20
-96.45446800000026
 10
214.50223800000128
 20
-95.99295000000026
 10
214.7536980000013
 20
-95.56292800000027
 10
215.0221760000013
 20
-95.16313200000026
 10
215.3058940000013
 20
-94.79280000000026
 10
215.6025660000013
 20
-94.45066200000026
 10
215.91041400000128
 20
-94.13544800000027
 10
216.2274060000013
 20
-93.84639600000027
 10
216.5515100000013
 20
-93.58223600000026
 10
216.8809480000013
 20
-93.34169800000026
 10
217.21343400000129
 20
-93.12376600000026
 10
217.54719000000128
 20
-92.92742400000026
 10
217.8801840000013
 20
-92.75140200000027
 10
218.21038400000128
 20
-92.59468400000026
 10
218.53601200000128
 20
-92.45600000000026
 10
218.85503600000126
 20
-92.33433400000027
 10
219.16517000000127
 20
-92.22867000000026
 10
219.46489000000128
 20
-92.13773800000027
 10
219.75191000000126
 20
-92.06052200000028
 10
220.02445200000125
 20
-91.99575200000027
 10
220.28023000000124
 20
-91.94266600000027
 10
220.51746600000124
 20
-91.89974000000028
 10
220.73438200000126
 20
-91.86621200000027
 10
220.92869200000123
 20
-91.84055800000027
 10
221.09861800000124
 20
-91.82201600000027
 10
221.24212800000126
 20
-91.80931600000028
 10
221.35719000000125
 20
-91.80144200000028
 10
221.44177200000124
 20
-91.79712400000028
 10
221.49409600000124
 20
-91.79534600000028
 10
221.51187600000125
 20
-91.79509200000028
 10
221.61754000000127
 20
-91.40393200000028
 10
221.7232040000013
 20
-91.01277200000027
 10
221.8288680000013
 20
-90.62161200000027
 10
221.93453200000133
 20
-90.23045200000026
 10
222.04019600000132
 20
-89.83929200000026
 10
222.14586000000133
 20
-89.44813200000026
 10
222.25152400000135
 20
-89.05697200000024
 10
222.35718800000137
 20
-88.66581200000024
 10
222.4628520000014
 20
-88.27465200000023
 10
222.56851600000138
 20
-87.88349200000023
 10
222.6741800000014
 20
-87.49233200000022
 10
222.77984400000142
 20
-87.10117200000022
 10
222.88550800000144
 20
-86.71001200000022
 10
222.99117200000146
 20
-86.3188520000002
 10
223.09683600000147
 20
-85.9276920000002
 10
223.20250000000146
 20
-85.5365320000002
 10
223.30816400000148
 20
-85.1453720000002
 10
223.4138280000015
 20
-84.7542120000002
 10
223.51949200000152
 20
-84.36305200000018
 10
223.62515600000154
 20
-83.97189200000018
 10
223.73082000000156
 20
-83.58073200000017
 10
223.83648400000155
 20
-83.18957200000017
 10
223.94214800000157
 20
-82.79841200000016
 10
224.04781200000158
 20
-82.40725200000016
 10
224.1534760000016
 20
-82.01609200000016
 10
224.25914000000162
 20
-81.62493200000014
 10
224.3648040000016
 20
-81.23377200000014
 10
224.47046800000163
 20
-80.84261200000013
 10
224.57613200000165
 20
-80.45145200000013
 10
224.68179600000167
 20
-80.06029200000013
 10
224.7874600000017
 20
-79.66913200000012
 10
224.8931240000017
 20
-79.27797200000012
 10
224.6515700000017
 20
-79.27797200000012
 10
224.4100160000017
 20
-79.27797200000012
 10
224.16846200000168
 20
-79.27797200000012
 10
223.92690800000167
 20
-79.27797200000012
 10
223.68535400000167
 20
-79.27797200000012
 10
223.44380000000166
 20
-79.27797200000012
 10
223.20224600000165
 20
-79.27797200000012
 10
222.96069200000164
 20
-79.27797200000012
 10
222.71913800000164
 20
-79.27797200000012
 10
222.47758400000163
 20
-79.27797200000012
 10
222.23603000000162
 20
-79.27797200000012
 10
221.99447600000164
 20
-79.27797200000012
 10
221.75292200000163
 20
-79.27797200000012
 10
221.51136800000162
 20
-79.27797200000012
 10
221.26981400000162
 20
-79.27797200000012
 10
221.0282600000016
 20
-79.27797200000012
 10
220.7867060000016
 20
-79.27797200000012
 10
220.5451520000016
 20
-79.27797200000012
 10
220.30359800000159
 20
-79.27797200000012
 10
220.06204400000158
 20
-79.27797200000012
 10
219.82049000000157
 20
-79.27797200000012
 10
219.57893600000156
 20
-79.27797200000012
 10
219.33738200000155
 20
-79.27797200000012
 10
219.09582800000157
 20
-79.27797200000012
 10
218.85427400000157
 20
-79.27797200000012
 10
218.61272000000156
 20
-79.27797200000012
 10
218.37116600000155
 20
-79.27797200000012
 10
218.12961200000154
 20
-79.27797200000012
 10
217.88805800000154
 20
-79.27797200000012
 10
217.64650400000153
 20
-79.27797200000012
 10
217.40495000000152
 20
-79.27797200000012
 10
217.1633960000015
 20
-79.27797200000012
  0
LWPOLYLINE
  5
37
330
17
100
AcDbEntity
  8
0
100
AcDbPolyline
 90
129
 70
0
 10
179.96027000000154
 20
-78.49743000000012
 10
179.84038200000154
 20
-78.49743000000012
 10
179.72049400000154
 20
-78.49743000000012
 10
179.60060600000153
 20
-78.49743000000012
 10
179.48071800000156
 20
-78.49743000000012
 10
179.36083000000156
 20
-78.49743000000012
 10
179.24094200000155
 20
-78.49743000000012
 10
179.12105400000158
 20
-78.49743000000012
 10
179.00116600000158
 20
-78.49743000000012
 10
178.88127800000157
 20
-78.49743000000012
 10
178.76139000000157
 20
-78.49743000000012
 10
178.6415020000016
 20
-78.49743000000012
 10
178.5216140000016
 20
-78.49743000000012
 10
178.4017260000016
 20
-78.49743000000012
 10
178.2818380000016
 20
-78.49743000000012
 10
178.1619500000016
 20
-78.49743000000012
 10
178.0420620000016
 20
-78.49743000000012
 10
177.9221740000016
 20
-78.49743000000012
 10
177.80228600000163
 20
-78.49743000000012
 10
177.68239800000163
 20
-78.49743000000012
 10
177.56251000000162
 20
-78.49743000000012
 10
177.44262200000165
 20
-78.49743000000012
 10
177.32273400000165
 20
-78.49743000000012
 10
177.20284600000164
 20
-78.49743000000012
 10
177.08295800000167
 20
-78.49743000000012
 10
176.96307000000166
 20
-78.49743000000012
 10
176.84318200000166
 20
-78.49743000000012
 10
176.72329400000166
 20
-78.49743000000012
 10
176.60340600000168
 20
-78.49743000000012
 10
176.48351800000168
 20
-78.49743000000012
 10
176.36363000000168
 20
-78.49743000000012
 10
176.2437420000017
 20
-78.49743000000012
 10
176.1238540000017
 20
-78.49743000000012
 10
176.2660940000017
 20
-78.09941200000011
 10
176.40833400000167
 20
-77.70139400000012
 10
176.55057400000166
 20
-77.30337600000011
 10
176.69281400000165
 20
-76.9053580000001
 10
176.83505400000163
 20
-76.50734000000011
 10
176.97729400000162
 20
-76.1093220000001
 10
177.1195340000016
 20
-75.71130400000011
 10
177.2617740000016
 20
-75.3132860000001
 10
177.40401400000158
 20
-74.9152680000001
 10
177.54625400000157
 20
-74.5172500000001
 10
177.68849400000155
 20
-74.1192320000001
 10
177.83073400000154
 20
-73.7212140000001
 10
177.97297400000153
 20
-73.3231960000001
 10
178.1152140000015
 20
-72.92517800000009
 10
178.25745400000147
 20
-72.5271600000001
 10
178.39969400000146
 20
-72.12914200000009
 10
178.54193400000145
 20
-71.7311240000001
 10
178.68417400000143
 20
-71.33310600000009
 10
178.82641400000142
 20
-70.93508800000008
 10
178.9686540000014
 20
-70.53707000000009
 10
179.1108940000014
 20
-70.13905200000008
 10
179.25313400000138
 20
-69.74103400000008
 10
179.39537400000137
 20
-69.34301600000008
 10
179.53761400000135
 20
-68.94499800000007
 10
179.67985400000134
 20
-68.54698000000008
 10
179.82209400000133
 20
-68.14896200000007
 10
179.96433400000132
 20
-67.75094400000008
 10
180.1065740000013
 20
-67.35292600000007
 10
180.2488140000013
 20
-66.95490800000006
 10
180.39105400000128
 20
-66.55689000000007
 10
180.53329400000126
 20
-66.15887200000006
 10
180.67553400000125
 20
-65.76085400000007
 10
180.80101000000127
 20
-65.76085400000007
 10
180.92648600000126
 20
-65.76085400000007
 10
181.05196200000128
 20
-65.76085400000007
 10
181.17743800000127
 20
-65.76085400000007
 10
181.3029140000013
 20
-65.76085400000007
 10
181.4283900000013
 20
-65.76085400000007
 10
181.5538660000013
 20
-65.76085400000007
 10
181.6793420000013
 20
-65.76085400000007
 10
181.80481800000132
 20
-65.76085400000007
 10
181.9302940000013
 20
-65.76085400000007
 10
182.05577000000133
 20
-65.76085400000007
 10
182.18124600000132
 20
-65.76085400000007
 10
182.30672200000134
 20
-65.76085400000007
 10
182.43219800000136
 20
-65.76085400000007
 10
182.55767400000136
 20
-65.76085400000007
 10
182.68315000000138
 20
-65.76085400000007
 10
182.80862600000137
 20
-65.76085400000007
 10
182.9341020000014
 20
-65.76085400000007
 10
183.05957800000138
 20
-65.76085400000007
 10
183.1850540000014
 20
-65.76085400000007
 10
183.3105300000014
 20
-65.76085400000007
 10
183.4360060000014
 20
-65.76085400000007
 10
183.5614820000014
 20
-65.76085400000007
 10
183.68695800000143
 20
-65.76085400000007
 10
183.81243400000142
 20
-65.76085400000007
 10
183.93791000000144
 20
-65.76085400000007
 10
184.06338600000146
 20
-65.76085400000007
 10
184.18886200000145
 20
-65.76085400000007
 10
184.31433800000147
 20
-65.76085400000007
 10
184.43981400000146
 20
-65.76085400000007
 10
184.56529000000148
 20
-65.76085400000007
 10
184.69076600000147
 20
-65.76085400000007
 10
184.54293800000147
 20
-66.15887200000006
 10
184.3951100000015
 20
-66.55689000000007
 10
184.2472820000015
 20
-66.95490800000006
 10
184.0994540000015
 20
-67.35292600000007
 10
183.95162600000148
 20
-67.75094400000008
 10
183.80379800000148
 20
-68.14896200000007
 10
183.6559700000015
 20
-68.54698000000008
 10
183.5081420000015
 20
-68.94499800000007
 10
183.3603140000015
 20
-69.34301600000008
 10
183.2124860000015
 20
-69.74103400000008
 10
183.0646580000015
 20
-70.13905200000008
 10
182.9168300000015
 20
-70.53707000000009
 10
182.7690020000015
 20
-70.93508800000008
 10
182.6211740000015
 20
-71.33310600000009
 10
182.4733460000015
 20
-71.7311240000001
 10
182.3255180000015
 20
-72.12914200000009
 10
182.17769000000152
 20
-72.5271600000001
 10
182.02986200000151
 20
-72.92517800000009
 10
181.8820340000015
 20
-73.3231960000001
 10
181.7342060000015
 20
-73.7212140000001
 10
181.5863780000015
 20
-74.1192320000001
 10
181.43855000000153
 20
-74.5172500000001
 10
181.29072200000152
 20
-74.9152680000001
 10
181.14289400000152
 20
-75.3132860000001
 10
180.99506600000151
 20
-75.71130400000011
 10
180.8472380000015
 20
-76.1093220000001
 10
180.69941000000154
 20
-76.50734000000011
 10
180.55158200000153
 20
-76.9053580000001
 10
180.40375400000153
 20
-77.30337600000011
 10
180.25592600000152
 20
-77.70139400000012
 10
180.10809800000152
 20
-78.09941200000011
 10
179.96027000000154
 20
-78.49743000000012
  0
LWPOLYLINE
  5
38
330
17
100
AcDbEntity
  8
0
100
AcDbPolyline
 90
641
 70
0
 10
205.47050600000154
 20
-86.41842000000013
 10
205.37601800000152
 20
-86.29599200000011
 10
205.27619600000153
 20
-86.18067600000012
 10
205.17129400000152
 20
-86.07196400000011
 10
205.06156600000153
 20
-85.96985600000012
 10
204.9470120000015
 20
-85.87435200000012
 10
204.82814000000153
 20
-85.78494400000012
 10
204.70495000000153
 20
-85.70137800000013
 10
204.57795000000152
 20
-85.62365400000013
 10
204.44714000000153
 20
-85.55151800000013
 10
204.31277400000153
 20
-85.48471600000013
 10
204.1751060000015
 20
-85.42324800000013
 10
204.03413600000152
 20
-85.36660600000013
 10
203.89037200000152
 20
-85.31479000000013
 10
203.7440680000015
 20
-85.26754600000014
 10
203.5952240000015
 20
-85.22462000000014
 10
203.4440940000015
 20
-85.18601200000015
 10
203.29093200000153
 20
-85.15121400000014
 10
203.13599200000152
 20
-85.12022600000014
 10
202.97952800000152
 20
-85.09279400000014
 10
202.82179400000152
 20
-85.06866400000013
 10
202.66279000000154
 20
-85.04783600000013
 10
202.50302400000152
 20
-85.02980200000013
 10
202.34249600000155
 20
-85.01456200000013
 10
202.18171400000153
 20
-85.00186200000012
 10
202.02067800000154
 20
-84.99144800000012
 10
201.85964200000151
 20
-84.98332000000013
 10
201.69860600000152
 20
-84.97722400000012
 10
201.53807800000152
 20
-84.97265200000014
 10
201.37831200000153
 20
-84.96960400000013
 10
201.21930800000152
 20
-84.96808000000014
 10
201.06132000000153
 20
-84.96757200000013
 10
200.90485600000156
 20
-84.96808000000014
 10
200.35088200000155
 20
-84.97138200000013
 10
199.79690800000154
 20
-84.97468400000012
 10
199.24293400000153
 20
-84.97798600000013
 10
198.68896000000152
 20
-84.98128800000012
 10
198.1349860000015
 20
-84.98459000000011
 10
197.5810120000015
 20
-84.9878920000001
 10
197.02703800000148
 20
-84.9911940000001
 10
196.47306400000147
 20
-84.9944960000001
 10
195.91909000000146
 20
-84.99779800000009
 10
195.36511600000145
 20
-85.00110000000008
 10
194.81114200000144
 20
-85.00440200000007
 10
194.25716800000143
 20
-85.00770400000007
 10
193.70319400000142
 20
-85.01100600000007
 10
193.1492200000014
 20
-85.01430800000006
 10
192.5952460000014
 20
-85.01761000000005
 10
192.04127200000138
 20
-85.02091200000005
 10
191.48729800000137
 20
-85.02421400000004
 10
190.93332400000136
 20
-85.02751600000003
 10
190.37935000000135
 20
-85.03081800000002
 10
189.82537600000134
 20
-85.03412000000003
 10
189.27140200000133
 20
-85.03742200000002
 10
188.71742800000132
 20
-85.04072400000001
 10
188.1634540000013
 20
-85.044026
 10
187.6094800000013
 20
-85.047328
 10
187.0555060000013
 20
-85.05063
 10
186.50153200000128
 20
-85.05393199999999
 10
185.94755800000127
 20
-85.05723399999998
 10
185.39358400000125
 20
-85.06053599999997
 10
184.83961000000124
 20
-85.06383799999998
 10
184.28563600000123
 20
-85.06713999999997
 10
183.73166200000122
 20
-85.07044199999996
 10
183.1776880000012
 20
-85.07374399999995
 10
183.0268120000012
 20
-85.07475999999996
 10
182.87466600000118
 20
-85.07602999999996
 10
182.72175800000122
 20
-85.07806199999995
 10
182.5678340000012
 20
-85.08060199999994
 10
182.4131480000012
 20
-85.08415799999995
 10
182.2579540000012
 20
-85.08872999999994
 10
182.1022520000012
 20
-85.09431799999994
 10
181.94604200000117
 20
-85.10142999999995
 10
181.78957800000117
 20
-85.10981199999995
 10
181.6328600000012
 20
-85.11997199999996
 10
181.4761420000012
 20
-85.13190999999996
 10
181.3196780000012
 20
-85.14587999999996
 10
181.16346800000122
 20
-85.16188199999996
 10
181.00751200000119
 20
-85.18016999999996
 10
180.8520640000012
 20
-85.20099799999996
 10
180.6971240000012
 20
-85.22436599999996
 10
180.54294600000122
 20
-85.25052799999996
 10
180.3895300000012
 20
-85.27948399999995
 10
180.2368760000012
 20
-85.31148799999994
 10
180.0854920000012
 20
-85.34679399999995
 10
179.9351240000012
 20
-85.38540199999994
 10
179.78602600000121
 20
-85.42781999999994
 10
179.6384520000012
 20
-85.47379399999994
 10
179.4924020000012
 20
-85.52357799999994
 10
179.3478760000012
 20
-85.57742599999995
 10
179.2051280000012
 20
-85.63559199999993
 10
179.0644120000012
 20
-85.69807599999993
 10
178.9257280000012
 20
-85.76487799999992
 10
178.7890760000012
 20
-85.83650599999991
 10
178.6547100000012
 20
-85.91295999999991
 10
178.5228840000012
 20
-85.99423999999992
 10
178.39334400000118
 20
-86.08085399999992
 10
178.2632960000012
 20
-86.17610399999992
 10
178.1388360000012
 20
-86.27668799999992
 10
178.0197100000012
 20
-86.38235199999993
 10
177.9059180000012
 20
-86.49309599999991
 10
177.79771400000118
 20
-86.60841199999992
 10
177.69484400000118
 20
-86.7282999999999
 10
177.59756200000118
 20
-86.85225199999991
 10
177.5056140000012
 20
-86.98026799999991
 10
177.41900000000118
 20
-87.11209399999991
 10
177.33772000000118
 20
-87.24722199999991
 10
177.26177400000117
 20
-87.38565199999992
 10
177.19141600000117
 20
-87.52712999999993
 10
177.12639200000118
 20
-87.67140199999992
 10
177.0667020000012
 20
-87.81821399999991
 10
177.01209200000116
 20
-87.96756599999992
 10
176.96281600000117
 20
-88.11894999999991
 10
176.91887400000118
 20
-88.27211199999992
 10
176.88026600000117
 20
-88.42705199999992
 10
176.84699200000117
 20
-88.58326199999992
 10
176.81879800000118
 20
-88.74074199999993
 10
176.79593800000117
 20
-88.89898399999993
 10
176.77815800000116
 20
-89.05798799999992
 10
176.76571200000114
 20
-89.21749999999992
 10
176.75834600000115
 20
-89.37726599999992
 10
176.75631400000114
 20
-89.53677799999991
 10
176.75936200000115
 20
-89.69603599999992
 10
176.76749000000115
 20
-89.85478599999992
 10
176.78069800000114
 20
-90.01302799999992
 10
176.79924000000113
 20
-90.17025399999993
 10
176.82286200000112
 20
-90.32620999999992
 10
176.85156400000116
 20
-90.48064199999992
 10
176.88534600000116
 20
-90.63354999999991
 10
176.93690800000115
 20
-90.83065399999991
 10
176.99583600000113
 20
-91.02293199999991
 10
177.06162200000114
 20
-91.2106379999999
 10
177.13401200000115
 20
-91.39402599999991
 10
177.21249800000112
 20
-91.5733499999999
 10
177.29682600000112
 20
-91.7488639999999
 10
177.38648800000112
 20
-91.9208219999999
 10
177.48123000000112
 20
-92.0894779999999
 10
177.58079800000115
 20
-92.2550859999999
 10
177.68468400000114
 20
-92.4178999999999
 10
177.79238000000115
 20
-92.5781739999999
 10
177.90363200000112
 20
-92.73616199999991
 10
178.01818600000115
 20
-92.8921179999999
 10
178.13553400000114
 20
-93.0462959999999
 10
178.25542200000112
 20
-93.1989499999999
 10
178.37734200000114
 20
-93.3503339999999
 10
178.50104000000113
 20
-93.5007019999999
 10
178.62600800000112
 20
-93.6503079999999
 10
178.7519920000011
 20
-93.79940599999989
 10
178.87848400000112
 20
-93.9485039999999
 10
179.00523000000112
 20
-94.0976019999999
 10
179.13172200000113
 20
-94.2469539999999
 10
179.25770600000115
 20
-94.39681399999989
 10
179.38292800000116
 20
-94.54768999999989
 10
179.50688000000116
 20
-94.6995819999999
 10
179.62905400000116
 20
-94.8527439999999
 10
179.74919600000115
 20
-95.00742999999989
 10
179.86705200000117
 20
-95.1641479999999
 10
179.98211400000116
 20
-95.3228979999999
 10
180.09387400000116
 20
-95.48418799999989
 10
180.20233200000118
 20
-95.6480179999999
 10
180.30672600000116
 20
-95.81489599999988
 10
180.46166600000117
 20
-96.07702399999988
 10
180.60898600000118
 20
-96.34118399999988
 10
180.74868600000116
 20
-96.60737599999989
 10
180.88076600000116
 20
-96.87559999999988
 10
181.00522600000116
 20
-97.14560199999988
 10
181.12206600000118
 20
-97.41738199999988
 10
181.23128600000115
 20
-97.69093999999987
 10
181.33288600000117
 20
-97.96602199999988
 10
181.42686600000116
 20
-98.24262799999988
 10
181.51322600000117
 20
-98.52075799999989
 10
181.59196600000115
 20
-98.8004119999999
 10
181.66308600000116
 20
-99.0813359999999
 10
181.72658600000113
 20
-99.36352999999988
 10
181.78246600000116
 20
-99.64699399999988
 10
181.83072600000116
 20
-99.93147399999988
 10
181.87136600000116
 20
-100.21696999999989
 10
181.90438600000115
 20
-100.50348199999988
 10
181.92978600000117
 20
-100.79075599999987
 10
181.94756600000116
 20
-101.07904599999988
 10
181.95772600000117
 20
-101.36809799999988
 10
181.96026600000116
 20
-101.65765799999987
 10
181.95518600000116
 20
-101.94797999999986
 10
181.94248600000117
 20
-102.23880999999986
 10
181.92216600000117
 20
-102.52989399999986
 10
181.89422600000117
 20
-102.82148599999987
 10
181.85866600000116
 20
-103.11333199999986
 10
181.8154860000012
 20
-103.40543199999986
 10
181.76468600000118
 20
-103.69778599999987
 10
181.70626600000116
 20
-103.99013999999987
 10
181.64022600000118
 20
-104.28249399999987
 10
181.56656600000116
 20
-104.57484799999988
 10
181.48528600000117
 20
-104.86694799999987
 10
181.44388400000116
 20
-105.00639399999986
 10
181.40146600000116
 20
-105.14558599999985
 10
181.35777800000113
 20
-105.28426999999985
 10
181.31307400000114
 20
-105.42269999999986
 10
181.26735400000115
 20
-105.56062199999987
 10
181.22061800000117
 20
-105.69828999999986
 10
181.17286600000116
 20
-105.83544999999987
 10
181.12409800000117
 20
-105.97235599999986
 10
181.07431400000115
 20
-106.10900799999986
 10
181.02376800000116
 20
-106.24515199999986
 10
180.97220600000117
 20
-106.38104199999987
 10
180.91988200000117
 20
-106.51667799999987
 10
180.8667960000012
 20
-106.65205999999986
 10
180.81294800000117
 20
-106.78693399999987
 10
180.75833800000117
 20
-106.92155399999986
 10
180.70296600000117
 20
-107.05591999999986
 10
180.64683200000118
 20
-107.19003199999986
 10
180.5901900000012
 20
-107.32388999999986
 10
180.53278600000118
 20
-107.45749399999987
 10
180.4748740000012
 20
-107.59084399999986
 10
180.4164540000012
 20
-107.72393999999986
 10
180.3575260000012
 20
-107.85678199999987
 10
180.2980900000012
 20
-107.98962399999988
 10
180.2381460000012
 20
-108.12221199999988
 10
180.1779480000012
 20
-108.25454599999988
 10
180.1172420000012
 20
-108.38662599999986
 10
180.0562820000012
 20
-108.51870599999987
 10
179.9950680000012
 20
-108.65053199999987
 10
179.9336000000012
 20
-108.78210399999986
 10
179.8718780000012
 20
-108.91367599999985
 10
179.8099020000012
 20
-109.04499399999985
 10
179.7476720000012
 20
-109.17631199999985
 10
179.68925200000118
 20
-109.30026399999986
 10
179.6315940000012
 20
-109.42497799999985
 10
179.57469800000118
 20
-109.55019999999985
 10
179.51831000000118
 20
-109.67567599999985
 10
179.46268400000116
 20
-109.80165999999984
 10
179.40756600000117
 20
-109.92815199999984
 10
179.35295600000117
 20
-110.05489799999985
 10
179.29885400000117
 20
-110.18215199999985
 10
179.24526000000117
 20
-110.30965999999985
 10
179.1921740000012
 20
-110.43767599999985
 10
179.13959600000118
 20
-110.56594599999985
 10
179.08727200000118
 20
-110.69446999999984
 10
179.0354560000012
 20
-110.82324799999985
 10
178.98389400000121
 20
-110.95202599999985
 10
178.9325860000012
 20
-111.08105799999984
 10
178.8817860000012
 20
-111.21034399999985
 10
178.8309860000012
 20
-111.33962999999984
 10
178.7804400000012
 20
-111.46916999999985
 10
178.7301480000012
 20
-111.59870999999984
 10
178.6801100000012
 20
-111.72824999999985
 10
178.6300720000012
 20
-111.85778999999984
 10
178.5800340000012
 20
-111.98732999999984
 10
178.5302500000012
 20
-112.11686999999984
 10
178.48046600000117
 20
-112.24640999999983
 10
178.43068200000118
 20
-112.37594999999983
 10
178.38064400000118
 20
-112.50523599999984
 10
178.33060600000118
 20
-112.63452199999983
 10
178.28056800000118
 20
-112.76355399999983
 10
178.23027600000117
 20
-112.89233199999984
 10
178.17998400000118
 20
-113.02110999999984
 10
178.1294380000012
 20
-113.14963399999984
 10
178.07863800000118
 20
-113.27790399999982
 10
177.97272000000117
 20
-113.54434999999982
 10
177.8673100000012
 20
-113.81079599999981
 10
177.76215400000117
 20
-114.07749599999983
 10
177.65750600000118
 20
-114.34444999999981
 10
177.5531120000012
 20
-114.61140399999981
 10
177.4492260000012
 20
-114.87861199999982
 10
177.3455940000012
 20
-115.14581999999983
 10
177.2424700000012
 20
-115.41328199999982
 10
177.13960000000122
 20
-115.68099799999982
 10
177.0372380000012
 20
-115.94871399999981
 10
176.93513000000118
 20
-116.21668399999982
 10
176.8335300000012
 20
-116.48465399999981
 10
176.7321840000012
 20
-116.75287799999981
 10
176.63134600000117
 20
-117.0211019999998
 10
176.5307620000012
 20
-117.28957999999982
 10
176.4306860000012
 20
-117.55805799999982
 10
176.33086400000118
 20
-117.82678999999982
 10
176.2315500000012
 20
-118.09577599999982
 10
176.1324900000012
 20
-118.36476199999983
 10
176.0339380000012
 20
-118.63400199999982
 10
175.9356400000012
 20
-118.90324199999982
 10
175.8378500000012
 20
-119.17273599999982
 10
175.7403140000012
 20
-119.44222999999981
 10
175.6432860000012
 20
-119.71197799999982
 10
175.54651200000123
 20
-119.98172599999982
 10
175.45024600000121
 20
-120.25172799999982
 10
175.3542340000012
 20
-120.52198399999982
 10
175.2587300000012
 20
-120.79223999999982
 10
175.16348000000121
 20
-121.06274999999982
 10
175.06873800000122
 20
-121.33325999999983
 10
174.9742500000012
 20
-121.60402399999982
 10
174.88027000000122
 20
-121.87478799999981
 10
174.78654400000121
 20
-122.1460599999998
 10
174.6930720000012
 20
-122.41758599999982
 10
174.6001080000012
 20
-122.68911199999982
 10
174.5073980000012
 20
-122.96089199999982
 10
174.41519600000117
 20
-123.23267199999981
 10
174.3232480000012
 20
-123.50470599999983
 10
174.2318080000012
 20
-123.77673999999983
 10
174.14062200000117
 20
-124.04902799999984
 10
174.04994400000118
 20
-124.32131599999983
 10
173.9595200000012
 20
-124.59385799999983
 10
173.8693500000012
 20
-124.86639999999981
 10
173.7796880000012
 20
-125.13919599999983
 10
173.6902800000012
 20
-125.41199199999983
 10
173.6013800000012
 20
-125.68504199999983
 10
173.5127340000012
 20
-125.95809199999982
 10
173.42459600000117
 20
-126.23139599999982
 10
173.3367120000012
 20
-126.50469999999983
 10
173.24933600000116
 20
-126.77825799999984
 10
173.16221400000117
 20
-127.05181599999983
 10
173.07560000000117
 20
-127.32562799999982
 10
172.98924000000116
 20
-127.59943999999982
 10
172.90313400000116
 20
-127.87325199999981
 10
172.81753600000116
 20
-128.1473179999998
 10
172.73219200000116
 20
-128.42138399999982
 10
172.64735600000117
 20
-128.6957039999998
 10
172.56277400000118
 20
-128.9700239999998
 10
172.47870000000117
 20
-129.2445979999998
 10
172.39488000000117
 20
-129.51917199999983
 10
172.31156800000116
 20
-129.7939999999998
 10
172.22851000000117
 20
-130.06882799999983
 10
172.14570600000116
 20
-130.34365599999984
 10
172.06341000000117
 20
-130.6187379999998
 10
171.98086000000117
 20
-130.8961059999998
 10
171.8985640000012
 20
-131.1737279999998
 10
171.81652200000119
 20
-131.4513499999998
 10
171.73498800000118
 20
-131.7292259999998
 10
171.65370800000116
 20
-132.00710199999983
 10
171.57293600000116
 20
-132.28497799999982
 10
171.49241800000115
 20
-132.56310799999983
 10
171.41240800000116
 20
-132.84123799999983
 10
171.33265200000116
 20
-133.11962199999985
 10
171.25315000000117
 20
-133.39800599999984
 10
171.17415600000115
 20
-133.67638999999986
 10
171.09541600000117
 20
-133.95502799999986
 10
171.01718400000118
 20
-134.23366599999983
 10
170.93920600000118
 20
-134.51255799999984
 10
170.86148200000116
 20
-134.79144999999983
 10
170.78426600000117
 20
-135.0703419999998
 10
170.70730400000116
 20
-135.3494879999998
 10
170.63085000000115
 20
-135.62863399999983
 10
170.55465000000117
 20
-135.90803399999984
 10
170.47870400000116
 20
-136.18743399999985
 10
170.40326600000117
 20
-136.46683399999984
 10
170.32808200000116
 20
-136.74648799999986
 10
170.25315200000117
 20
-137.02614199999985
 10
170.17873000000117
 20
-137.30579599999984
 10
170.10456200000115
 20
-137.58570399999985
 10
170.03064800000115
 20
-137.86561199999983
 10
169.95724200000114
 20
-138.14551999999983
 10
169.88409000000115
 20
-138.42568199999982
 10
169.81144600000115
 20
-138.70584399999981
 10
169.73905600000117
 20
-138.98625999999982
 10
169.66692000000117
 20
-139.26667599999982
 10
169.59529200000117
 20
-139.54709199999982
 10
169.56252600000116
 20
-139.67612399999985
 10
169.52976000000115
 20
-139.80515599999984
 10
169.49699400000114
 20
-139.93418799999986
 10
169.46448200000114
 20
-140.0632199999999
 10
169.43197000000112
 20
-140.19225199999988
 10
169.39945800000112
 20
-140.3212839999999
 10
169.3669460000011
 20
-140.4503159999999
 10
169.3346880000011
 20
-140.57934799999992
 10
169.30243000000112
 20
-140.70837999999992
 10
169.27017200000114
 20
-140.83741199999994
 10
169.23791400000115
 20
-140.96644399999994
 10
169.20591000000115
 20
-141.09547599999996
 10
169.17390600000115
 20
-141.22450799999996
 10
169.14190200000115
 20
-141.35353999999998
 10
169.11015200000116
 20
-141.48257199999998
 10
169.07840200000115
 20
-141.61185799999998
 10
169.04665200000116
 20
-141.741144
 10
169.01490200000117
 20
-141.87043
 10
168.98340600000117
 20
-141.999716
 10
168.95191000000113
 20
-142.12900199999999
 10
168.92041400000113
 20
-142.258288
 10
168.88891800000113
 20
-142.387574
 10
168.85767600000113
 20
-142.51686
 10
168.82643400000111
 20
-142.64614600000002
 10
168.7951920000011
 20
-142.77543200000002
 10
168.76420400000111
 20
-142.90471800000003
 10
168.73321600000114
 20
-143.03400400000004
 10
168.70222800000113
 20
-143.16329000000002
 10
168.67124000000115
 20
-143.29257600000003
 10
168.64050600000115
 20
-143.42211600000002
 10
168.60977200000116
 20
-143.55165600000004
 10
168.57903800000116
 20
-143.68119600000003
 10
168.55668600000118
 20
-143.77695400000002
 10
168.53458800000118
 20
-143.87347400000002
 10
168.5132520000012
 20
-143.97075600000002
 10
168.4924240000012
 20
-144.0688
 10
168.4723580000012
 20
-144.16735200000002
 10
168.4533080000012
 20
-144.26641200000003
 10
168.4352740000012
 20
-144.36598000000004
 10
168.41825600000118
 20
-144.46580200000005
 10
168.40250800000118
 20
-144.56587800000005
 10
168.38828400000116
 20
-144.66620800000004
 10
168.37558400000117
 20
-144.76653800000003
 10
168.3644080000012
 20
-144.86712200000002
 10
168.35501000000116
 20
-144.96770600000002
 10
168.34739000000118
 20
-145.068036
 10
168.34180200000117
 20
-145.168366
 10
168.33824600000116
 20
-145.268442
 10
168.33697600000116
 20
-145.36801000000003
 10
168.33799200000118
 20
-145.46732400000002
 10
168.34129400000117
 20
-145.56613000000002
 10
168.34713600000117
 20
-145.664428
 10
168.3557720000012
 20
-145.762218
 10
168.36720200000119
 20
-145.85924599999998
 10
168.38142600000117
 20
-145.95551199999997
 10
168.3986980000012
 20
-146.05101599999998
 10
168.41927200000117
 20
-146.14550399999996
 10
168.4431480000012
 20
-146.23922999999996
 10
168.4703260000012
 20
-146.33193999999997
 10
168.5010600000012
 20
-146.42337999999998
 10
168.5353500000012
 20
-146.51380399999996
 10
168.57345000000117
 20
-146.60295799999997
 10
168.61536000000117
 20
-146.690588
 10
168.66133400000118
 20
-146.776948
 10
168.73347000000118
 20
-146.896582
 10
168.81221000000116
 20
-147.009866
 10
168.89730000000117
 20
-147.117054
 10
168.98874000000117
 20
-147.2184
 10
169.08576800000117
 20
-147.314158
 10
169.18838400000115
 20
-147.404328
 10
169.29633400000114
 20
-147.489164
 10
169.40911000000114
 20
-147.56866599999998
 10
169.52645800000113
 20
-147.643342
 10
169.64812400000113
 20
-147.71293799999998
 10
169.77385400000114
 20
-147.77796199999997
 10
169.90339400000116
 20
-147.838414
 10
170.03649000000115
 20
-147.894548
 10
170.17263400000112
 20
-147.946364
 10
170.31157200000115
 20
-147.99411599999996
 10
170.45305000000113
 20
-148.03805799999998
 10
170.59681400000116
 20
-148.07844399999996
 10
170.74261000000115
 20
-148.11527399999997
 10
170.88993000000116
 20
-148.14854799999995
 10
171.03877400000115
 20
-148.17877399999998
 10
171.18863400000114
 20
-148.20595199999997
 10
171.33925600000114
 20
-148.23033599999997
 10
171.49013200000115
 20
-148.25192599999997
 10
171.64126200000118
 20
-148.270976
 10
171.79239200000117
 20
-148.28773999999999
 10
171.94301400000117
 20
-148.30221799999998
 10
172.09287400000116
 20
-148.314664
 10
172.24171800000119
 20
-148.325332
 10
172.38929200000118
 20
-148.33422199999998
 10
172.53508800000117
 20
-148.34158799999997
 10
172.67910600000118
 20
-148.347684
 10
172.82083800000117
 20
-148.35251
 10
173.2061560000012
 20
-148.364702
 10
173.58944200000118
 20
-148.376894
 10
173.97069600000117
 20
-148.389086
 10
174.35017200000118
 20
-148.401278
 10
174.7278700000012
 20
-148.41347
 10
175.10404400000118
 20
-148.425662
 10
175.47894800000117
 20
-148.437854
 10
175.85258200000118
 20
-148.450046
 10
176.22520000000117
 20
-148.46223799999999
 10
176.59680200000116
 20
-148.47442999999998
 10
176.96738800000116
 20
-148.48662199999998
 10
177.33746600000114
 20
-148.49881399999998
 10
177.70703600000115
 20
-148.51100599999998
 10
178.07609800000117
 20
-148.52319799999998
 10
178.44490600000117
 20
-148.53539
 10
178.81346000000116
 20
-148.547582
 10
179.18201400000117
 20
-148.559774
 10
179.55082200000118
 20
-148.571966
 10
179.91988400000116
 20
-148.584158
 10
180.28945400000117
 20
-148.59635
 10
180.65953200000118
 20
-148.608542
 10
181.03011800000115
 20
-148.620734
 10
181.40172000000115
 20
-148.632926
 10
181.77433800000114
 20
-148.645118
 10
182.14797200000115
 20
-148.65731
 10
182.52287600000113
 20
-148.669502
 10
182.89905000000115
 20
-148.681694
 10
183.27674800000113
 20
-148.693886
 10
183.65622400000115
 20
-148.706078
 10
184.03747800000113
 20
-148.71827
 10
184.42076400000113
 20
-148.730462
 10
184.80608200000114
 20
-148.74265400000002
 10
184.97448400000115
 20
-148.747734
 10
185.14390200000116
 20
-148.752306
 10
185.31408200000115
 20
-148.755862
 10
185.48502400000115
 20
-148.75840200000002
 10
185.65647400000114
 20
-148.759926
 10
185.82817800000115
 20
-148.759926
 10
186.00013600000116
 20
-148.75840200000002
 10
186.17209400000115
 20
-148.7551
 10
186.34405200000117
 20
-148.749766
 10
186.51575600000118
 20
-148.74214600000002
 10
186.68695200000118
 20
-148.73224000000002
 10
186.85764000000117
 20
-148.71954000000002
 10
187.02756600000117
 20
-148.70404600000003
 10
187.1967300000012
 20
-148.68550400000004
 10
187.3648780000012
 20
-148.66366000000002
 10
187.5317560000012
 20
-148.63851400000001
 10
187.69736400000122
 20
-148.609812
 10
187.86144800000122
 20
-148.577046
 10
188.0240080000012
 20
-148.540216
 10
188.18479000000121
 20
-148.499322
 10
188.3435400000012
 20
-148.45385600000003
 10
188.5002580000012
 20
-148.40381800000003
 10
188.65469000000118
 20
-148.3487
 10
188.8068360000012
 20
-148.28850200000002
 10
188.9564420000012
 20
-148.22322400000004
 10
189.10325400000121
 20
-148.15235800000005
 10
189.2472720000012
 20
-148.07590400000004
 10
189.38824200000118
 20
-147.99360800000005
 10
189.5261640000012
 20
-147.90496200000004
 10
189.6607840000012
 20
-147.81022000000002
 10
189.79184800000118
 20
-147.708874
 10
189.91935600000116
 20
-147.60092400000002
 10
190.01486000000116
 20
-147.51075400000002
 10
190.10503000000116
 20
-147.41448800000003
 10
190.19012000000117
 20
-147.31263400000003
 10
190.2703840000012
 20
-147.20519200000004
 10
190.34607600000118
 20
-147.09267000000003
 10
190.41745000000117
 20
-146.97557600000005
 10
190.48450600000118
 20
-146.85391
 10
190.5477520000012
 20
-146.72818
 10
190.6071880000012
 20
-146.59864000000002
 10
190.6630680000012
 20
-146.46554400000002
 10
190.7156460000012
 20
-146.329146
 10
190.76517600000122
 20
-146.189954
 10
190.81165800000122
 20
-146.048222
 10
190.8556000000012
 20
-145.90420400000002
 10
190.8970020000012
 20
-145.75840800000003
 10
190.93611800000122
 20
-145.61108800000002
 10
190.9732020000012
 20
-145.462498
 10
191.0085080000012
 20
-145.312892
 10
191.0422900000012
 20
-145.162778
 10
191.07454800000122
 20
-145.01241
 10
191.1057900000012
 20
-144.862042
 10
191.13601600000123
 20
-144.711928
 10
191.16548000000122
 20
-144.562576
 10
191.19443600000122
 20
-144.41424
 10
191.22313800000123
 20
-144.26717400000004
 10
191.25158600000123
 20
-144.12188600000002
 10
191.28028800000124
 20
-143.97837600000003
 10
191.30924400000126
 20
-143.837152
 10
191.33870800000125
 20
-143.698722
 10
191.36893400000125
 20
-143.56308600000003
 10
191.40017600000127
 20
-143.43075200000004
 10
191.4326880000013
 20
-143.30197400000003
 10
191.6559540000013
 20
-142.45031200000005
 10
191.8888720000013
 20
-141.57121800000004
 10
192.1306800000013
 20
-140.66621600000005
 10
192.3808700000013
 20
-139.73733800000005
 10
192.6386800000013
 20
-138.78636200000003
 10
192.90360200000129
 20
-137.81532000000004
 10
193.1748740000013
 20
-136.82573600000006
 10
193.45198800000128
 20
-135.81964200000004
 10
193.73418200000128
 20
-134.79881600000004
 10
194.02094800000128
 20
-133.76503600000004
 10
194.3115240000013
 20
-132.72008000000002
 10
194.6054020000013
 20
-131.66598000000002
 10
194.90182000000132
 20
-130.60451400000005
 10
195.2002700000013
 20
-129.53746000000004
 10
195.49999000000128
 20
-128.46659600000004
 10
195.80021800000128
 20
-127.39370000000004
 10
196.1007000000013
 20
-126.32080400000004
 10
196.40042000000128
 20
-125.24943200000003
 10
196.69887000000128
 20
-124.18161600000003
 10
196.99554200000128
 20
-123.11913400000003
 10
197.28967400000127
 20
-122.06401800000003
 10
197.58075800000125
 20
-121.01779200000003
 10
197.86803200000125
 20
-119.98248800000002
 10
198.15073400000128
 20
-118.95988400000002
 10
198.42861000000127
 20
-117.95175800000001
 10
198.7006440000013
 20
-116.96014200000002
 10
198.9663280000013
 20
-115.98656000000001
 10
199.2251540000013
 20
-115.033044
 10
199.4763600000013
 20
-114.10137200000001
 10
199.71918400000132
 20
-113.19332200000001
 10
199.95311800000133
 20
-112.310672
 10
200.17765400000133
 20
-111.455454
 10
200.37018600000135
 20
-110.712504
 10
200.55840000000134
 20
-109.98911199999999
 10
200.74280400000134
 20
-109.28400799999999
 10
200.92339800000133
 20
-108.59592199999999
 10
201.10069000000132
 20
-107.92358399999999
 10
201.27493400000134
 20
-107.26572399999999
 10
201.44638400000133
 20
-106.621072
 10
201.6152940000013
 20
-105.98810399999999
 10
201.7819180000013
 20
-105.36554999999998
 10
201.94651000000133
 20
-104.75213999999998
 10
202.10957800000133
 20
-104.14660399999998
 10
202.27112200000133
 20
-103.54767199999998
 10
202.4316500000013
 20
-102.95381999999996
 10
202.59141600000132
 20
-102.36377799999997
 10
202.7506740000013
 20
-101.77627599999998
 10
202.9096780000013
 20
-101.19004399999997
 10
203.0686820000013
 20
-100.60381199999998
 10
203.22794000000127
 20
-100.01630999999999
 10
203.3877060000013
 20
-99.42601399999998
 10
203.54823400000126
 20
-98.83165399999999
 10
203.71003200000126
 20
-98.23195999999999
 10
203.87335400000126
 20
-97.62566199999999
 10
204.03820000000127
 20
-97.01148999999998
 10
204.20507800000127
 20
-96.38792
 10
204.3742420000013
 20
-95.753936
 10
204.5459460000013
 20
-95.108014
 10
204.7204440000013
 20
-94.44888399999999
 10
204.8979900000013
 20
-93.77502199999998
 10
205.07909200000128
 20
-93.08541199999999
 10
205.26375000000127
 20
-92.37852999999998
 10
205.45247200000128
 20
-91.65335999999998
 10
205.6452580000013
 20
-90.90837799999998
 10
205.6813260000013
 20
-90.76715399999999
 10
205.7171400000013
 20
-90.62465999999999
 10
205.75219200000132
 20
-90.48115
 10
205.7862280000013
 20
-90.33662399999999
 10
205.8192480000013
 20
-90.191082
 10
205.8509980000013
 20
-90.04503199999999
 10
205.88097000000133
 20
-89.89822000000001
 10
205.9091640000013
 20
-89.751154
 10
205.9353260000013
 20
-89.60358
 10
205.95945600000132
 20
-89.45600599999999
 10
205.98104600000133
 20
-89.308178
 10
205.9998420000013
 20
-89.16060399999999
 10
206.0158440000013
 20
-89.01302999999999
 10
206.0285440000013
 20
-88.86596399999998
 10
206.0379420000013
 20
-88.71940599999998
 10
206.0437840000013
 20
-88.57335599999999
 10
206.0458160000013
 20
-88.42806799999998
 10
206.0437840000013
 20
-88.28354199999998
 10
206.0376880000013
 20
-88.14003199999998
 10
206.0270200000013
 20
-87.99753799999999
 10
206.01152600000128
 20
-87.856314
 10
205.99120600000128
 20
-87.71661399999999
 10
205.96580600000127
 20
-87.57843799999999
 10
205.93507200000127
 20
-87.441786
 10
205.8987500000013
 20
-87.30691199999998
 10
205.85658600000127
 20
-87.17406999999999
 10
205.80832600000124
 20
-87.04325999999999
 10
205.75371600000125
 20
-86.91448199999998
 10
205.69275600000122
 20
-86.78799
 10
205.6249380000012
 20
-86.66403799999999
 10
205.55026200000123
 20
-86.54262599999998
 10
205.46847400000124
 20
-86.42375399999997
  0
LWPOLYLINE
  5
39
330
17
100
AcDbEntity
  8
0
100
AcDbPolyline
 90
97
 70
0
 10
200.20584800000123
 20
-111.34623399999998
 10
200.2050860000012
 20
-111.34953599999997
 10
200.20432400000118
 20
-111.35283799999998
 10
200.20356200000117
 20
-111.35613999999997
 10
200.20280000000116
 20
-111.35944199999996
 10
200.20203800000115
 20
-111.36274399999995
 10
200.20127600000114
 20
-111.36604599999994
 10
200.20051400000114
 20
-111.36934799999995
 10
200.19975200000113
 20
-111.37264999999994
 10
200.19873600000113
 20
-111.37595199999993
 10
200.1979740000011
 20
-111.37925399999992
 10
200.1969580000011
 20
-111.38255599999992
 10
200.1961960000011
 20
-111.38585799999991
 10
200.1951800000011
 20
-111.3891599999999
 10
200.19416400000108
 20
-111.3924619999999
 10
200.1931480000011
 20
-111.3957639999999
 10
200.19238600000108
 20
-111.39906599999989
 10
200.19137000000106
 20
-111.40236799999988
 10
200.19035400000107
 20
-111.40566999999987
 10
200.18933800000104
 20
-111.40897199999986
 10
200.18832200000105
 20
-111.41227399999987
 10
200.18756000000104
 20
-111.41557599999986
 10
200.18654400000102
 20
-111.41887799999985
 10
200.18552800000103
 20
-111.42217999999984
 10
200.18476600000102
 20
-111.42548199999985
 10
200.184004000001
 20
-111.42878399999984
 10
200.182988000001
 20
-111.43208599999983
 10
200.18222600000098
 20
-111.43538799999982
 10
200.18146400000097
 20
-111.43868999999982
 10
200.18070200000096
 20
-111.44199199999981
 10
200.17994000000095
 20
-111.4452939999998
 10
200.17917800000095
 20
-111.4485959999998
 10
200.17841600000094
 20
-111.45189799999979
 10
200.17790800000094
 20
-111.4541839999998
 10
200.17740000000097
 20
-111.4564699999998
 10
200.17689200000098
 20
-111.45875599999981
 10
200.17638400000098
 20
-111.46104199999981
 10
200.175876000001
 20
-111.4633279999998
 10
200.17536800000101
 20
-111.46561399999982
 10
200.17486000000102
 20
-111.46789999999982
 10
200.17435200000102
 20
-111.47018599999983
 10
200.17384400000105
 20
-111.47247199999983
 10
200.17333600000106
 20
-111.47475799999982
 10
200.17282800000106
 20
-111.47704399999984
 10
200.1723200000011
 20
-111.47932999999983
 10
200.1718120000011
 20
-111.48161599999985
 10
200.1713040000011
 20
-111.48390199999984
 10
200.1707960000011
 20
-111.48618799999984
 10
200.17028800000114
 20
-111.48847399999985
 10
200.16978000000114
 20
-111.49075999999985
 10
200.16927200000114
 20
-111.49304599999986
 10
200.16876400000118
 20
-111.49533199999986
 10
200.16825600000118
 20
-111.49761799999986
 10
200.16774800000118
 20
-111.49990399999987
 10
200.16724000000121
 20
-111.50218999999987
 10
200.16673200000122
 20
-111.50447599999988
 10
200.16622400000122
 20
-111.50676199999988
 10
200.16571600000123
 20
-111.50904799999988
 10
200.16520800000126
 20
-111.51133399999989
 10
200.16470000000126
 20
-111.51361999999989
 10
200.16419200000126
 20
-111.5159059999999
 10
200.1636840000013
 20
-111.5181919999999
 10
200.1631760000013
 20
-111.5204779999999
 10
200.1626680000013
 20
-111.52276399999991
 10
200.16216000000134
 20
-111.52504999999991
 10
200.16368400000133
 20
-111.51946199999992
 10
200.16520800000131
 20
-111.51387399999992
 10
200.1667320000013
 20
-111.50828599999991
 10
200.1682560000013
 20
-111.50269799999992
 10
200.16978000000128
 20
-111.49710999999992
 10
200.17130400000127
 20
-111.49152199999993
 10
200.17282800000126
 20
-111.48593399999993
 10
200.17435200000128
 20
-111.48034599999993
 10
200.17587600000127
 20
-111.47475799999994
 10
200.17740000000126
 20
-111.46916999999993
 10
200.17892400000125
 20
-111.46358199999993
 10
200.18044800000123
 20
-111.45799399999994
 10
200.18197200000122
 20
-111.45240599999994
 10
200.1834960000012
 20
-111.44681799999994
 10
200.1850200000012
 20
-111.44122999999995
 10
200.18654400000122
 20
-111.43564199999994
 10
200.1880680000012
 20
-111.43005399999996
 10
200.1895920000012
 20
-111.42446599999995
 10
200.1911160000012
 20
-111.41887799999995
 10
200.19264000000118
 20
-111.41328999999996
 10
200.19416400000117
 20
-111.40770199999996
 10
200.19568800000116
 20
-111.40211399999995
 10
200.19721200000114
 20
-111.39652599999997
 10
200.19873600000116
 20
-111.39093799999996
 10
200.20026000000115
 20
-111.38534999999996
 10
200.20178400000114
 20
-111.37976199999997
 10
200.20330800000113
 20
-111.37417399999997
 10
200.20483200000112
 20
-111.36858599999998
 10
200.2063560000011
 20
-111.36299799999998
 10
200.2078800000011
 20
-111.35740999999997
 10
200.2094040000011
 20
-111.35182199999998
 10
200.2109280000011
 20
-111.34623399999998
  0
LWPOLYLINE
  5
3A
330
17
100
AcDbEntity
  8
0
100
AcDbPolyline
 90
353
 70
0
 10
178.72583000000108
 20
-84.39861199999997
 10
178.83378000000107
 20
-84.35416199999997
 10
178.94223800000108
 20
-84.31123599999998
 10
179.0512040000011
 20
-84.26983399999997
 10
179.1606780000011
 20
-84.22970199999997
 10
179.2706600000011
 20
-84.19083999999997
 10
179.38115000000107
 20
-84.15350199999997
 10
179.49214800000107
 20
-84.11743399999997
 10
179.60340000000107
 20
-84.08238199999998
 10
179.71516000000108
 20
-84.04859999999998
 10
179.8271740000011
 20
-84.01608799999998
 10
179.9394420000011
 20
-83.98459199999998
 10
180.0522180000011
 20
-83.95411199999998
 10
180.1652480000011
 20
-83.92464799999998
 10
180.27853200000112
 20
-83.89594599999998
 10
180.3920700000011
 20
-83.86825999999999
 10
180.50586200000112
 20
-83.84133599999998
 10
180.6199080000011
 20
-83.81517399999998
 10
180.7342080000011
 20
-83.78977399999998
 10
180.8487620000011
 20
-83.76513599999998
 10
180.96331600000113
 20
-83.74100599999998
 10
181.0781240000011
 20
-83.71763799999998
 10
181.19293200000112
 20
-83.69477799999999
 10
181.30799400000112
 20
-83.67242599999999
 10
181.4230560000011
 20
-83.65058199999999
 10
181.5383720000011
 20
-83.62899199999998
 10
181.65368800000107
 20
-83.60790999999998
 10
181.76900400000108
 20
-83.58708199999998
 10
181.88432000000105
 20
-83.56650799999997
 10
181.99963600000103
 20
-83.54618799999997
 10
182.11495200000104
 20
-83.52586799999999
 10
182.23026800000102
 20
-83.50580199999997
 10
182.345584000001
 20
-83.48573599999997
 10
182.073804000001
 20
-83.41639399999997
 10
181.799738000001
 20
-83.35086199999998
 10
181.523386000001
 20
-83.28913999999997
 10
181.245256000001
 20
-83.23173599999998
 10
180.965348000001
 20
-83.17864999999998
 10
180.68417000000102
 20
-83.13038999999998
 10
180.401976000001
 20
-83.08695599999999
 10
180.11876600000102
 20
-83.04885599999999
 10
179.83504800000102
 20
-83.01634399999999
 10
179.55082200000103
 20
-82.98942
 10
179.26659600000102
 20
-82.96859199999999
 10
178.982624000001
 20
-82.95385999999999
 10
178.69890600000102
 20
-82.94573199999999
 10
178.415950000001
 20
-82.944208
 10
178.13401000000098
 20
-82.949796
 10
177.853086000001
 20
-82.96275
 10
177.573686000001
 20
-82.98307
 10
177.29581000000098
 20
-83.011264
 10
177.01996600000098
 20
-83.047332
 10
176.74640800000097
 20
-83.091782
 10
176.47539000000097
 20
-83.144868
 10
176.20691200000098
 20
-83.20658999999999
 10
175.94148200000097
 20
-83.277456
 10
175.67935400000098
 20
-83.35746599999999
 10
175.42052800000099
 20
-83.44712799999999
 10
175.16551200000097
 20
-83.546696
 10
174.91456000000096
 20
-83.65616999999999
 10
174.66792600000096
 20
-83.77605799999999
 10
174.42561000000097
 20
-83.90661399999999
 10
174.18812000000096
 20
-84.04783799999998
 10
173.95571000000098
 20
-84.20023799999998
 10
173.72838000000098
 20
-84.36406799999999
 10
173.761146000001
 20
-84.33739799999998
 10
173.793150000001
 20
-84.31021999999997
 10
173.824646000001
 20
-84.28278799999997
 10
173.85563400000098
 20
-84.25484799999997
 10
173.886114000001
 20
-84.22665399999997
 10
173.916086000001
 20
-84.19820599999997
 10
173.94580400000098
 20
-84.16950399999996
 10
173.97501400000098
 20
-84.14054799999997
 10
174.003970000001
 20
-84.11133799999998
 10
174.032672000001
 20
-84.08187399999997
 10
174.061120000001
 20
-84.05240999999998
 10
174.089314000001
 20
-84.02269199999998
 10
174.117254000001
 20
-83.99297399999996
 10
174.145194000001
 20
-83.96300199999997
 10
174.17313400000103
 20
-83.93302999999997
 10
174.20082000000102
 20
-83.90305799999997
 10
174.22850600000103
 20
-83.87308599999997
 10
174.25644600000103
 20
-83.84311399999997
 10
174.28438600000104
 20
-83.81314199999997
 10
174.31232600000104
 20
-83.78342399999997
 10
174.34052000000105
 20
-83.75370599999997
 10
174.36896800000102
 20
-83.72424199999998
 10
174.39767000000106
 20
-83.69477799999997
 10
174.42662600000105
 20
-83.66556799999996
 10
174.45583600000106
 20
-83.63661199999997
 10
174.48555400000106
 20
-83.60790999999998
 10
174.51552600000107
 20
-83.57946199999998
 10
174.54600600000106
 20
-83.55126799999998
 10
174.57699400000106
 20
-83.52332799999996
 10
174.60849000000107
 20
-83.49589599999997
 10
174.64049400000104
 20
-83.46871799999997
 10
174.67326000000105
 20
-83.44204799999996
 10
174.57953400000105
 20
-83.47608399999996
 10
174.48530000000105
 20
-83.50834199999997
 10
174.39055800000105
 20
-83.53907599999997
 10
174.29530800000103
 20
-83.56803199999996
 10
174.19955000000104
 20
-83.59546399999995
 10
174.10328400000105
 20
-83.62111799999995
 10
174.00651000000104
 20
-83.64524799999997
 10
173.90948200000108
 20
-83.66759999999996
 10
173.81194600000106
 20
-83.68842799999996
 10
173.71415600000105
 20
-83.70747799999997
 10
173.61611200000107
 20
-83.72500399999997
 10
173.5178140000011
 20
-83.74075199999997
 10
173.41926200000108
 20
-83.75472199999997
 10
173.3204560000011
 20
-83.76716799999997
 10
173.22139600000108
 20
-83.77783599999997
 10
173.1220820000011
 20
-83.78697999999996
 10
173.0227680000011
 20
-83.79434599999996
 10
172.9232000000011
 20
-83.79993399999995
 10
172.82363200000108
 20
-83.80399799999996
 10
172.72406400000105
 20
-83.80628399999996
 10
172.62449600000105
 20
-83.80679199999997
 10
172.52492800000104
 20
-83.80577599999997
 10
172.42536000000104
 20
-83.80298199999996
 10
172.325792000001
 20
-83.79840999999996
 10
172.226478000001
 20
-83.79231399999996
 10
172.12716400000102
 20
-83.78443999999996
 10
172.02810400000104
 20
-83.77478799999996
 10
171.92904400000103
 20
-83.76361199999997
 10
171.83023800000103
 20
-83.75065799999997
 10
171.73168600000102
 20
-83.73592599999996
 10
171.63338800000105
 20
-83.71941599999997
 10
171.53534400000103
 20
-83.70138199999997
 10
171.48962400000107
 20
-83.77885199999996
 10
171.44415800000107
 20
-83.85657599999996
 10
171.39869200000106
 20
-83.93429999999995
 10
171.3532260000011
 20
-84.01227799999995
 10
171.30801400000107
 20
-84.09025599999997
 10
171.2630560000011
 20
-84.16848799999997
 10
171.21835200000106
 20
-84.24697399999997
 10
171.17390200000108
 20
-84.32545999999998
 10
171.12996000000106
 20
-84.40419999999997
 10
171.08627200000106
 20
-84.48319399999997
 10
171.04309200000108
 20
-84.56244199999998
 10
171.00067400000108
 20
-84.64194399999997
 10
170.95876400000108
 20
-84.72169999999997
 10
170.91736200000108
 20
-84.80170999999997
 10
170.87672200000108
 20
-84.88197399999997
 10
170.83684400000107
 20
-84.96249199999997
 10
170.7977280000011
 20
-85.04351799999998
 10
170.75962800000107
 20
-85.12479799999997
 10
170.72229000000107
 20
-85.20633199999997
 10
170.68596800000105
 20
-85.28837399999998
 10
170.65066200000106
 20
-85.37066999999998
 10
170.61637200000106
 20
-85.45347399999999
 10
170.58335200000107
 20
-85.53653199999998
 10
170.55134800000107
 20
-85.62009799999998
 10
170.52061400000107
 20
-85.70417199999999
 10
170.49115000000108
 20
-85.78849999999998
 10
170.46295600000107
 20
-85.87333599999998
 10
170.43628600000108
 20
-85.95867999999999
 10
170.41114000000107
 20
-86.04453199999999
 10
170.38726400000104
 20
-86.13089199999999
 10
170.36516600000104
 20
-86.21775999999998
 10
170.34459200000106
 20
-86.30513599999999
 10
170.32579600000105
 20
-86.39301999999998
 10
170.30877800000107
 20
-86.48166599999999
 10
170.29379200000108
 20
-86.57081999999998
 10
170.28083800000104
 20
-86.66048199999999
 10
170.26991600000105
 20
-86.75065199999999
 10
170.26102600000107
 20
-86.84107599999999
 10
170.25416800000104
 20
-86.931754
 10
170.24959600000105
 20
-87.02243200000001
 10
170.24705600000104
 20
-87.113364
 10
170.24680200000105
 20
-87.20404200000002
 10
170.24883400000107
 20
-87.29472000000001
 10
170.25315200000108
 20
-87.38514400000001
 10
170.25975600000106
 20
-87.47531400000003
 10
170.26864600000104
 20
-87.56523000000001
 10
170.28007600000103
 20
-87.654638
 10
170.29379200000105
 20
-87.74353800000002
 10
170.31004800000102
 20
-87.83193000000001
 10
170.32859000000101
 20
-87.91956000000003
 10
170.34967200000102
 20
-88.00642800000003
 10
170.373294000001
 20
-88.09253400000003
 10
170.39971000000102
 20
-88.17762400000002
 10
170.42866600000102
 20
-88.26169800000002
 10
170.46016200000102
 20
-88.34450200000003
 10
170.49445200000102
 20
-88.42629000000002
 10
170.531536000001
 20
-88.50680800000004
 10
170.57116000000102
 20
-88.58580200000003
 10
170.613578000001
 20
-88.66352600000002
 10
170.658790000001
 20
-88.73972600000002
 10
170.70705000000103
 20
-88.81414800000003
 10
170.75810400000103
 20
-88.88704600000001
 10
170.81220600000103
 20
-88.958166
 10
170.86910200000102
 20
-89.02725400000001
 10
170.92904600000102
 20
-89.094564
 10
170.99102200000104
 20
-89.159334
 10
171.05503000000104
 20
-89.221564
 10
171.12081600000104
 20
-89.281254
 10
171.18863400000103
 20
-89.33865800000001
 10
171.25797600000104
 20
-89.393776
 10
171.32909600000104
 20
-89.44686200000001
 10
171.40174000000104
 20
-89.49791600000002
 10
171.47590800000103
 20
-89.54719200000001
 10
171.55134600000105
 20
-89.59469000000001
 10
171.62805400000104
 20
-89.64041000000002
 10
171.70603200000104
 20
-89.68460600000002
 10
171.78502600000107
 20
-89.72727800000001
 10
171.86503600000108
 20
-89.76868000000002
 10
171.94606200000106
 20
-89.80881200000002
 10
172.02785000000105
 20
-89.84767400000003
 10
172.11065400000106
 20
-89.88552000000003
 10
172.19396600000107
 20
-89.92235000000002
 10
172.27778600000107
 20
-89.95841800000002
 10
172.36211400000107
 20
-89.99372400000003
 10
172.44695000000107
 20
-90.02852200000002
 10
172.53204000000107
 20
-90.06281200000002
 10
172.61738400000107
 20
-90.09659400000002
 10
172.70298200000107
 20
-90.13012200000001
 10
172.78858000000108
 20
-90.16339600000002
 10
172.87417800000105
 20
-90.19667000000001
 10
172.95977600000106
 20
-90.229944
 10
173.04512000000108
 20
-90.263218
 10
173.13021000000109
 20
-90.296746
 10
173.21479200000107
 20
-90.33052799999999
 10
173.29886600000108
 20
-90.36481799999999
 10
173.38243200000105
 20
-90.39961599999998
 10
173.51959200000104
 20
-90.45879799999999
 10
173.65573600000104
 20
-90.52026599999999
 10
173.79086400000105
 20
-90.58401999999998
 10
173.92472200000105
 20
-90.65005999999998
 10
174.05756400000107
 20
-90.71838599999998
 10
174.18913600000107
 20
-90.78899799999999
 10
174.31969200000108
 20
-90.86164199999999
 10
174.44897800000106
 20
-90.936572
 10
174.5769940000011
 20
-91.01353399999999
 10
174.7037400000011
 20
-91.092782
 10
174.82921600000108
 20
-91.17406199999999
 10
174.9531680000011
 20
-91.25737399999998
 10
175.07585000000108
 20
-91.34271799999999
 10
175.1970080000011
 20
-91.430094
 10
175.3168960000011
 20
-91.51950199999999
 10
175.43526000000108
 20
-91.61068799999998
 10
175.5521000000011
 20
-91.70390599999999
 10
175.66741600000108
 20
-91.79890199999998
 10
175.7809540000011
 20
-91.89592999999999
 10
175.89296800000108
 20
-91.99473599999999
 10
176.00345800000107
 20
-92.09532
 10
176.11217000000107
 20
-92.197682
 10
176.2191040000011
 20
-92.30182200000002
 10
176.3242600000011
 20
-92.40774
 10
176.42763800000108
 20
-92.515436
 10
176.5292380000011
 20
-92.62490999999999
 10
176.6290600000011
 20
-92.735908
 10
176.72710400000108
 20
-92.848684
 10
176.8231160000011
 20
-92.96298399999999
 10
176.9173500000011
 20
-93.079062
 10
177.00955200000112
 20
-93.196664
 10
177.09972200000112
 20
-93.31578999999999
 10
177.07483000000113
 20
-93.276674
 10
177.04993800000113
 20
-93.237558
 10
177.02504600000114
 20
-93.198442
 10
177.00015400000115
 20
-93.15932600000001
 10
176.97526200000118
 20
-93.12021
 10
176.9503700000012
 20
-93.08109400000001
 10
176.9254780000012
 20
-93.041978
 10
176.9005860000012
 20
-93.00286200000001
 10
176.8756940000012
 20
-92.963746
 10
176.85080200000124
 20
-92.92463000000001
 10
176.82591000000124
 20
-92.88551400000001
 10
176.80101800000125
 20
-92.84639800000001
 10
176.77612600000126
 20
-92.80728200000001
 10
176.75123400000126
 20
-92.76816600000001
 10
176.72634200000127
 20
-92.72905000000002
 10
176.7014500000013
 20
-92.68993400000001
 10
176.6765580000013
 20
-92.65081800000002
 10
176.6516660000013
 20
-92.61170200000002
 10
176.62677400000132
 20
-92.57258600000002
 10
176.60188200000132
 20
-92.53347000000002
 10
176.57699000000136
 20
-92.49435400000002
 10
176.55209800000137
 20
-92.45523800000002
 10
176.52720600000137
 20
-92.41612200000002
 10
176.50231400000138
 20
-92.37700600000002
 10
176.47742200000138
 20
-92.33789000000002
 10
176.4525300000014
 20
-92.29877400000002
 10
176.42763800000142
 20
-92.25965800000003
 10
176.40274600000143
 20
-92.22054200000002
 10
176.37785400000143
 20
-92.18142600000003
 10
176.35296200000144
 20
-92.14231000000002
 10
176.32807000000145
 20
-92.10319400000003
 10
176.30317800000148
 20
-92.06407800000002
 10
176.21529400000148
 20
-91.91345600000002
 10
176.13122000000146
 20
-91.76004000000003
 10
176.05121000000145
 20
-91.60408400000003
 10
175.97526400000146
 20
-91.44584200000004
 10
175.90338200000144
 20
-91.28531400000003
 10
175.83581800000147
 20
-91.12275400000004
 10
175.77257200000145
 20
-90.95841600000004
 10
175.71364400000147
 20
-90.79230000000004
 10
175.65928800000145
 20
-90.62466000000003
 10
175.60975800000142
 20
-90.45575000000002
 10
175.56505400000142
 20
-90.28582400000003
 10
175.5251760000014
 20
-90.11488200000004
 10
175.4901240000014
 20
-89.94292400000003
 10
175.4601520000014
 20
-89.77045800000003
 10
175.4355140000014
 20
-89.59748400000004
 10
175.4162100000014
 20
-89.42425600000004
 10
175.4022400000014
 20
-89.25102800000003
 10
175.3938580000014
 20
-89.07780000000002
 10
175.39106400000142
 20
-88.90482600000003
 10
175.3938580000014
 20
-88.73210600000003
 10
175.4024940000014
 20
-88.55989400000003
 10
175.4169720000014
 20
-88.38844400000002
 10
175.43754600000142
 20
-88.21801000000004
 10
175.46421600000141
 20
-88.04859200000004
 10
175.4972360000014
 20
-87.88044400000004
 10
175.5366060000014
 20
-87.71382000000004
 10
175.5823260000014
 20
-87.54872000000005
 10
175.6346500000014
 20
-87.38539800000005
 10
175.6935780000014
 20
-87.22410800000006
 10
175.7593640000014
 20
-87.06485000000005
 10
175.83200800000137
 20
-86.90813200000005
 10
175.91151000000139
 20
-86.75370000000005
 10
175.9686600000014
 20
-86.65184600000005
 10
176.02860400000137
 20
-86.55177000000005
 10
176.09108800000138
 20
-86.45372600000003
 10
176.15611200000137
 20
-86.35746000000003
 10
176.22367600000135
 20
-86.26297200000003
 10
176.29352600000135
 20
-86.17026200000002
 10
176.36566200000135
 20
-86.07958400000003
 10
176.44008400000135
 20
-85.99068400000002
 10
176.51679200000135
 20
-85.90356200000001
 10
176.59553200000133
 20
-85.818218
 10
176.67655800000134
 20
-85.734652
 10
176.75936200000135
 20
-85.65311799999999
 10
176.8441980000013
 20
-85.57336199999999
 10
176.9308120000013
 20
-85.49538399999999
 10
177.0192040000013
 20
-85.41918399999999
 10
177.1093740000013
 20
-85.34476199999999
 10
177.20106800000133
 20
-85.27211799999998
 10
177.2942860000013
 20
-85.20125199999998
 10
177.3890280000013
 20
-85.13216399999999
 10
177.48529400000132
 20
-85.06485399999998
 10
177.58283000000134
 20
-84.99932199999999
 10
177.68163600000133
 20
-84.935568
 10
177.78171200000133
 20
-84.87359199999999
 10
177.88280400000133
 20
-84.81339399999999
 10
177.98491200000134
 20
-84.75497399999998
 10
178.08803600000132
 20
-84.69833199999998
 10
178.19217600000133
 20
-84.64346799999997
 10
178.29707800000133
 20
-84.59038199999998
 10
178.40274200000135
 20
-84.53907399999997
 10
178.50916800000135
 20
-84.48954399999998
 10
178.61610200000135
 20
-84.44179199999998
 10
178.72354400000134
 20
-84.39556399999998
  0
LWPOLYLINE
  5
3B
330
17
100
AcDbEntity
  8
0
100
AcDbPolyline
 90
257
 70
0
 10
172.74743200000134
 20
-85.25484599999997
 10
172.79162800000134
 20
-85.25001999999998
 10
172.83531600000134
 20
-85.24392399999996
 10
172.87875000000136
 20
-85.23655799999997
 10
172.92193000000134
 20
-85.22792199999998
 10
172.96485600000133
 20
-85.21801599999998
 10
173.00752800000134
 20
-85.20709399999997
 10
173.04969200000136
 20
-85.19490199999997
 10
173.09160200000136
 20
-85.18169399999996
 10
173.13325800000135
 20
-85.16746999999998
 10
173.17466000000135
 20
-85.15222999999997
 10
173.21555400000133
 20
-85.13597399999996
 10
173.25619400000133
 20
-85.11895599999997
 10
173.2965800000013
 20
-85.10092199999995
 10
173.33671200000134
 20
-85.08212599999996
 10
173.37659000000133
 20
-85.06256799999996
 10
173.41621400000133
 20
-85.04224799999996
 10
173.45558400000132
 20
-85.02116599999995
 10
173.49444600000132
 20
-84.99932199999995
 10
173.53305400000133
 20
-84.97696999999995
 10
173.57140800000133
 20
-84.95385599999994
 10
173.6095080000013
 20
-84.93023399999994
 10
173.64735400000131
 20
-84.90610399999993
 10
173.68494600000133
 20
-84.88146599999993
 10
173.72228400000134
 20
-84.85631999999994
 10
173.75936800000133
 20
-84.83066599999994
 10
173.7961980000013
 20
-84.80475799999995
 10
173.83252000000132
 20
-84.77859599999995
 10
173.86858800000135
 20
-84.75192599999994
 10
173.90440200000134
 20
-84.72500199999995
 10
173.93996200000134
 20
-84.69782399999994
 10
173.97526800000134
 20
-84.67064599999992
 10
174.01032000000134
 20
-84.64321399999993
 10
174.04537200000135
 20
-84.61578199999992
 10
174.08017000000135
 20
-84.58809599999994
 10
174.1149680000013
 20
-84.56015599999992
 10
174.1497660000013
 20
-84.53221599999992
 10
174.1845640000013
 20
-84.50427599999992
 10
174.21936200000127
 20
-84.47633599999992
 10
174.25416000000126
 20
-84.44839599999992
 10
174.28895800000126
 20
-84.4204559999999
 10
174.32401000000127
 20
-84.3925159999999
 10
174.35906200000127
 20
-84.36482999999991
 10
174.39411400000128
 20
-84.33714399999991
 10
174.42942000000127
 20
-84.30971199999992
 10
174.4647260000013
 20
-84.28253399999991
 10
174.50028600000127
 20
-84.2553559999999
 10
174.53584600000127
 20
-84.2286859999999
 10
174.57166000000126
 20
-84.2022699999999
 10
174.6077280000013
 20
-84.1761079999999
 10
174.64405000000127
 20
-84.1501999999999
 10
174.6806260000013
 20
-84.1247999999999
 10
174.7172020000013
 20
-84.0999079999999
 10
174.7542860000013
 20
-84.07552399999989
 10
174.7916240000013
 20
-84.0516479999999
 10
174.82921600000128
 20
-84.0282799999999
 10
174.86706200000128
 20
-84.0054199999999
 10
174.9051620000013
 20
-83.9830679999999
 10
174.9437700000013
 20
-83.9614779999999
 10
174.9826320000013
 20
-83.9403959999999
 10
175.0220020000013
 20
-83.9200759999999
 10
175.0616260000013
 20
-83.9005179999999
 10
175.1017580000013
 20
-83.8817219999999
 10
175.1423980000013
 20
-83.8636879999999
 10
175.18329200000127
 20
-83.84641599999989
 10
175.14620800000128
 20
-83.8644499999999
 10
175.1091240000013
 20
-83.8824839999999
 10
175.0720400000013
 20
-83.90051799999992
 10
175.0349560000013
 20
-83.91855199999992
 10
174.9978720000013
 20
-83.93658599999993
 10
174.96078800000134
 20
-83.95461999999993
 10
174.92370400000135
 20
-83.97265399999995
 10
174.88662000000136
 20
-83.99068799999995
 10
174.84953600000136
 20
-84.00872199999996
 10
174.81245200000137
 20
-84.02675599999996
 10
174.77536800000138
 20
-84.04478999999996
 10
174.73828400000139
 20
-84.06282399999998
 10
174.7012000000014
 20
-84.08085799999998
 10
174.66411600000143
 20
-84.09889199999999
 10
174.62703200000144
 20
-84.11692599999999
 10
174.58994800000144
 20
-84.13496
 10
174.55286400000145
 20
-84.152994
 10
174.51578000000146
 20
-84.17102800000002
 10
174.47869600000146
 20
-84.18906200000002
 10
174.44161200000147
 20
-84.20709600000004
 10
174.40452800000148
 20
-84.22513000000004
 10
174.3674440000015
 20
-84.24316400000005
 10
174.33036000000152
 20
-84.26119800000005
 10
174.29327600000153
 20
-84.27923200000005
 10
174.25619200000153
 20
-84.29726600000006
 10
174.21910800000154
 20
-84.31530000000006
 10
174.18202400000155
 20
-84.33333400000008
 10
174.14494000000155
 20
-84.35136800000008
 10
174.1078560000016
 20
-84.3694020000001
 10
174.0707720000016
 20
-84.3874360000001
 10
174.0336880000016
 20
-84.40547000000011
 10
173.9966040000016
 20
-84.42350400000011
 10
173.9869520000016
 20
-84.42833000000012
 10
173.9773000000016
 20
-84.43315600000011
 10
173.9673940000016
 20
-84.4377280000001
 10
173.9574880000016
 20
-84.4423000000001
 10
173.9475820000016
 20
-84.4468720000001
 10
173.9376760000016
 20
-84.45144400000008
 10
173.92751600000162
 20
-84.45576200000008
 10
173.91735600000163
 20
-84.46008000000009
 10
173.90719600000165
 20
-84.46439800000009
 10
173.89703600000166
 20
-84.46846200000009
 10
173.88687600000165
 20
-84.47227200000009
 10
173.87671600000166
 20
-84.47608200000008
 10
173.86630200000167
 20
-84.47963800000008
 10
173.85588800000164
 20
-84.48294000000007
 10
173.84547400000162
 20
-84.48624200000008
 10
173.83506000000162
 20
-84.48929000000007
 10
173.8246460000016
 20
-84.49208400000008
 10
173.8142320000016
 20
-84.49462400000007
 10
173.80381800000157
 20
-84.49691000000009
 10
173.79340400000157
 20
-84.49868800000009
 10
173.78299000000155
 20
-84.50021200000008
 10
173.77257600000152
 20
-84.50148200000007
 10
173.76216200000152
 20
-84.50249800000007
 10
173.7517480000015
 20
-84.50300600000008
 10
173.7413340000015
 20
-84.50326000000007
 10
173.73092000000148
 20
-84.50300600000008
 10
173.72050600000148
 20
-84.50249800000007
 10
173.71009200000145
 20
-84.50148200000007
 10
173.69967800000143
 20
-84.49995800000008
 10
173.68926400000143
 20
-84.49818000000008
 10
173.6788500000014
 20
-84.49589400000008
 10
173.6684360000014
 20
-84.49310000000007
 10
173.65751400000138
 20
-84.48954400000007
 10
173.64684600000137
 20
-84.48548000000007
 10
173.63643200000138
 20
-84.48090800000007
 10
173.62652600000138
 20
-84.47582800000008
 10
173.6168740000014
 20
-84.47049400000007
 10
173.60747600000136
 20
-84.46465200000006
 10
173.5983320000014
 20
-84.45830200000007
 10
173.58944200000138
 20
-84.45169800000006
 10
173.5808060000014
 20
-84.44458600000006
 10
173.57242400000138
 20
-84.43722000000007
 10
173.56429600000138
 20
-84.42934600000005
 10
173.5564220000014
 20
-84.42121800000007
 10
173.5490560000014
 20
-84.41283600000006
 10
173.5419440000014
 20
-84.40420000000006
 10
173.53508600000137
 20
-84.39505600000007
 10
173.5284820000014
 20
-84.38565800000006
 10
173.5221320000014
 20
-84.37600600000006
 10
173.5162900000014
 20
-84.36610000000007
 10
173.51070200000137
 20
-84.35594000000006
 10
173.5053680000014
 20
-84.34578000000006
 10
173.50028800000138
 20
-84.33536600000006
 10
173.49571600000138
 20
-84.32469800000007
 10
173.49139800000137
 20
-84.31403000000007
 10
173.48733400000137
 20
-84.30310800000007
 10
173.48352400000138
 20
-84.29218600000007
 10
173.48022200000136
 20
-84.28101000000007
 10
173.47717400000138
 20
-84.26983400000007
 10
173.4743800000014
 20
-84.25865800000008
 10
173.4720940000014
 20
-84.24722800000008
 10
173.47006200000138
 20
-84.23579800000007
 10
173.4682840000014
 20
-84.22436800000007
 10
173.4670140000014
 20
-84.21293800000007
 10
173.4665060000014
 20
-84.20684200000007
 10
173.46599800000143
 20
-84.20049200000007
 10
173.46549000000144
 20
-84.19414200000007
 10
173.46523600000143
 20
-84.18779200000009
 10
173.46498200000144
 20
-84.18144200000009
 10
173.46472800000146
 20
-84.17509200000009
 10
173.46472800000146
 20
-84.1687420000001
 10
173.46472800000146
 20
-84.16239200000011
 10
173.46472800000146
 20
-84.15604200000011
 10
173.46472800000146
 20
-84.14969200000012
 10
173.46498200000144
 20
-84.14334200000012
 10
173.46523600000143
 20
-84.13699200000013
 10
173.46549000000144
 20
-84.13064200000014
 10
173.46574400000142
 20
-84.12429200000014
 10
173.46625200000142
 20
-84.11794200000014
 10
173.46676000000141
 20
-84.11159200000016
 10
173.46726800000138
 20
-84.10524200000016
 10
173.46777600000138
 20
-84.09889200000016
 10
173.4685380000014
 20
-84.09254200000017
 10
173.4693000000014
 20
-84.08619200000018
 10
173.4700620000014
 20
-84.08009600000017
 10
173.47082400000141
 20
-84.07400000000017
 10
173.47158600000142
 20
-84.06790400000017
 10
173.47234800000143
 20
-84.06180800000017
 10
173.47336400000145
 20
-84.05571200000017
 10
173.47438000000145
 20
-84.04961600000017
 10
173.47539600000147
 20
-84.04352000000017
 10
173.47641200000146
 20
-84.03742400000017
 10
173.47742800000148
 20
-84.03132800000017
 10
173.47844400000147
 20
-84.02523200000017
 10
173.47946000000147
 20
-84.01913600000017
 10
173.4804760000015
 20
-84.01304000000017
 10
173.4695540000015
 20
-84.03107400000017
 10
173.45888600000148
 20
-84.04936200000017
 10
173.44847200000146
 20
-84.06790400000017
 10
173.43831200000147
 20
-84.08644600000017
 10
173.42840600000147
 20
-84.10524200000017
 10
173.41875400000146
 20
-84.12429200000017
 10
173.40935600000145
 20
-84.14359600000017
 10
173.4002120000015
 20
-84.16290000000018
 10
173.3910680000015
 20
-84.18245800000018
 10
173.3821780000015
 20
-84.20201600000019
 10
173.3732880000015
 20
-84.22182800000017
 10
173.3646520000015
 20
-84.24164000000016
 10
173.35601600000152
 20
-84.26145200000016
 10
173.3476340000015
 20
-84.28151800000016
 10
173.3392520000015
 20
-84.30158400000016
 10
173.3308700000015
 20
-84.32165000000016
 10
173.3224880000015
 20
-84.34171600000016
 10
173.3141060000015
 20
-84.36178200000018
 10
173.30572400000148
 20
-84.38184800000018
 10
173.2973420000015
 20
-84.40191400000018
 10
173.2887060000015
 20
-84.42198000000018
 10
173.28007000000147
 20
-84.44204600000018
 10
173.27143400000148
 20
-84.46185800000018
 10
173.2625440000015
 20
-84.48167000000016
 10
173.25365400000152
 20
-84.50148200000015
 10
173.24451000000153
 20
-84.52104000000016
 10
173.23536600000153
 20
-84.54059800000016
 10
173.22596800000153
 20
-84.55990200000016
 10
173.2163160000015
 20
-84.57920600000017
 10
173.2064100000015
 20
-84.59825600000016
 10
173.19625000000153
 20
-84.61705200000017
 10
173.18583600000153
 20
-84.63584800000017
 10
173.1741520000015
 20
-84.65642200000018
 10
173.1622140000015
 20
-84.67674200000017
 10
173.1502760000015
 20
-84.69706200000017
 10
173.1380840000015
 20
-84.71738200000016
 10
173.1258920000015
 20
-84.73744800000017
 10
173.1134460000015
 20
-84.75751400000017
 10
173.1010000000015
 20
-84.77758000000017
 10
173.08855400000152
 20
-84.79764600000017
 10
173.07585400000153
 20
-84.81745800000016
 10
173.06315400000153
 20
-84.83727000000016
 10
173.05020000000152
 20
-84.85708200000015
 10
173.03724600000152
 20
-84.87664000000015
 10
173.0240380000015
 20
-84.89619800000015
 10
173.0108300000015
 20
-84.91575600000014
 10
172.9973680000015
 20
-84.93506000000016
 10
172.9839060000015
 20
-84.95436400000017
 10
172.9701900000015
 20
-84.97366800000017
 10
172.95647400000152
 20
-84.99271800000017
 10
172.94250400000152
 20
-85.01176800000016
 10
172.92853400000155
 20
-85.03081800000015
 10
172.91456400000155
 20
-85.04961400000016
 10
172.90034000000153
 20
-85.06841000000017
 10
172.88611600000152
 20
-85.08720600000017
 10
172.87163800000152
 20
-85.10574800000016
 10
172.85716000000153
 20
-85.12429000000016
 10
172.84242800000152
 20
-85.14283200000015
 10
172.82769600000154
 20
-85.16112000000015
 10
172.81271000000154
 20
-85.17940800000015
 10
172.79772400000155
 20
-85.19769600000015
 10
172.78248400000155
 20
-85.21573000000016
 10
172.76724400000157
 20
-85.23376400000016
 10
172.7520040000016
 20
-85.25154400000017
  0
LWPOLYLINE
  5
3C
330
17
100
AcDbEntity
  8
0
100
AcDbPolyline
 90
321
 70
0
 10
190.30442000000158
 20
-94.99549200000017
 10
190.20485200000158
 20
-95.17303800000018
 10
190.1022360000016
 20
-95.34855200000017
 10
189.9968260000016
 20
-95.52228800000017
 10
189.88836800000158
 20
-95.69424600000018
 10
189.7771160000016
 20
-95.86442600000018
 10
189.6630700000016
 20
-96.0328280000002
 10
189.5464840000016
 20
-96.19945200000019
 10
189.4271040000016
 20
-96.36455200000019
 10
189.30518400000162
 20
-96.52787400000018
 10
189.1809780000016
 20
-96.68941800000019
 10
189.05423200000158
 20
-96.84943800000018
 10
188.92520000000158
 20
-97.00793400000019
 10
188.79388200000156
 20
-97.16465200000019
 10
188.66053200000158
 20
-97.31984600000018
 10
188.52489600000158
 20
-97.47351600000019
 10
188.38722800000156
 20
-97.62566200000019
 10
188.24778200000156
 20
-97.77628400000019
 10
188.10630400000156
 20
-97.9253820000002
 10
187.96304800000158
 20
-98.07321000000019
 10
187.81801400000157
 20
-98.2195140000002
 10
187.67145600000157
 20
-98.3645480000002
 10
187.5231200000016
 20
-98.5080580000002
 10
187.37326000000158
 20
-98.6502980000002
 10
187.22213000000156
 20
-98.7912680000002
 10
187.06947600000157
 20
-98.9307140000002
 10
186.91555200000158
 20
-99.0688900000002
 10
186.76035800000156
 20
-99.20579600000019
 10
186.60414800000157
 20
-99.3416860000002
 10
186.44666800000158
 20
-99.47630600000019
 10
186.28817200000157
 20
-99.60965600000019
 10
186.12866000000156
 20
-99.74173600000019
 10
185.96838600000157
 20
-99.87280000000018
 10
185.95873400000156
 20
-99.7724700000002
 10
185.94832000000153
 20
-99.6723940000002
 10
185.93689000000154
 20
-99.5723180000002
 10
185.92469800000154
 20
-99.47249600000019
 10
185.91149000000155
 20
-99.3726740000002
 10
185.89752000000155
 20
-99.2731060000002
 10
185.88253400000156
 20
-99.1737920000002
 10
185.86653200000157
 20
-99.0744780000002
 10
185.84976800000157
 20
-98.9754180000002
 10
185.83198800000156
 20
-98.8766120000002
 10
185.81319200000155
 20
-98.7780600000002
 10
185.79363400000156
 20
-98.67950800000021
 10
185.77306000000155
 20
-98.58121000000021
 10
185.75147000000155
 20
-98.4831660000002
 10
185.72886400000152
 20
-98.3853760000002
 10
185.70549600000155
 20
-98.2878400000002
 10
185.68111200000155
 20
-98.19055800000021
 10
185.65571200000153
 20
-98.0935300000002
 10
185.62929600000152
 20
-97.9967560000002
 10
185.60186400000154
 20
-97.9002360000002
 10
185.57341600000154
 20
-97.8039700000002
 10
185.54395200000155
 20
-97.7079580000002
 10
185.51347200000154
 20
-97.61245400000021
 10
185.48197600000154
 20
-97.51720400000022
 10
185.44946400000154
 20
-97.42220800000021
 10
185.4156820000015
 20
-97.32746600000021
 10
185.38088400000154
 20
-97.2329780000002
 10
185.34507000000156
 20
-97.1389980000002
 10
185.30824000000155
 20
-97.0452720000002
 10
185.27014000000156
 20
-96.9518000000002
 10
185.23102400000155
 20
-96.85883600000021
 10
185.19089200000155
 20
-96.7661260000002
 10
185.14999800000157
 20
-96.67443200000021
 10
185.10783400000156
 20
-96.58324600000022
 10
185.06490800000157
 20
-96.4925680000002
 10
185.02096600000155
 20
-96.4023980000002
 10
184.97600800000154
 20
-96.3127360000002
 10
184.93028800000155
 20
-96.22358200000019
 10
184.88355200000157
 20
-96.1349360000002
 10
184.83605400000155
 20
-96.04679800000021
 10
184.78754000000157
 20
-95.95916800000019
 10
184.73826400000158
 20
-95.8717920000002
 10
184.68822600000158
 20
-95.7849240000002
 10
184.63717200000156
 20
-95.6985640000002
 10
184.58535600000158
 20
-95.6127120000002
 10
184.53277800000157
 20
-95.5273680000002
 10
184.4796920000016
 20
-95.4422780000002
 10
184.4258440000016
 20
-95.3576960000002
 10
184.37123400000158
 20
-95.27362200000019
 10
184.3158620000016
 20
-95.1900560000002
 10
184.2599820000016
 20
-95.1067440000002
 10
184.2033400000016
 20
-95.0239400000002
 10
184.14619000000158
 20
-94.9413900000002
 10
184.0882780000016
 20
-94.8593480000002
 10
184.0298580000016
 20
-94.77781400000019
 10
183.9709300000016
 20
-94.6965340000002
 10
183.9114940000016
 20
-94.6157620000002
 10
183.8515500000016
 20
-94.5352440000002
 10
183.7910980000016
 20
-94.4552340000002
 10
183.73013800000157
 20
-94.3754780000002
 10
183.66867000000158
 20
-94.2962300000002
 10
183.6066940000016
 20
-94.2172360000002
 10
183.5444640000016
 20
-94.13875000000019
 10
183.4817260000016
 20
-94.06051800000019
 10
183.40425600000162
 20
-93.96603000000019
 10
183.3252620000016
 20
-93.87205000000019
 10
183.2444900000016
 20
-93.77832400000018
 10
183.1624480000016
 20
-93.68510600000018
 10
183.07913600000163
 20
-93.59214200000018
 10
182.99480800000163
 20
-93.49917800000019
 10
182.90971800000162
 20
-93.40646800000017
 10
182.8241200000016
 20
-93.31375800000018
 10
182.7380140000016
 20
-93.22079400000018
 10
182.65190800000158
 20
-93.12783000000019
 10
182.56580200000158
 20
-93.03461200000018
 10
182.47969600000155
 20
-92.94088600000018
 10
182.39409800000155
 20
-92.84690600000017
 10
182.30900800000154
 20
-92.75241800000016
 10
182.22468000000154
 20
-92.65742200000017
 10
182.14136800000156
 20
-92.56166400000016
 10
182.05907200000158
 20
-92.46514400000017
 10
181.97830000000158
 20
-92.36786200000016
 10
181.89905200000157
 20
-92.26956400000016
 10
181.82132800000156
 20
-92.17025000000017
 10
181.74563600000155
 20
-92.06992000000017
 10
181.67197600000156
 20
-91.96832000000018
 10
181.60060200000157
 20
-91.86545000000018
 10
181.5317680000016
 20
-91.76131000000017
 10
181.4657280000016
 20
-91.65564600000017
 10
181.40248200000158
 20
-91.54845800000017
 10
181.34253800000158
 20
-91.43974600000017
 10
181.2858960000016
 20
-91.32925600000017
 10
181.23255600000158
 20
-91.21698800000016
 10
181.18302600000158
 20
-91.10294200000016
 10
181.1373060000016
 20
-90.98711800000015
 10
181.0956500000016
 20
-90.86926200000016
 10
181.0872680000016
 20
-90.84386200000016
 10
181.0793940000016
 20
-90.81846200000014
 10
181.07177400000162
 20
-90.79280800000015
 10
181.0644080000016
 20
-90.76690000000015
 10
181.0572960000016
 20
-90.74099200000016
 10
181.05069200000162
 20
-90.71483000000015
 10
181.04434200000162
 20
-90.68866800000015
 10
181.03850000000162
 20
-90.66225200000015
 10
181.0329120000016
 20
-90.63583600000015
 10
181.0278320000016
 20
-90.60942000000017
 10
181.0232600000016
 20
-90.58300400000017
 10
181.0191960000016
 20
-90.55658800000018
 10
181.0156400000016
 20
-90.52991800000017
 10
181.01259200000163
 20
-90.50324800000017
 10
181.01005200000162
 20
-90.47657800000016
 10
181.00827400000165
 20
-90.44990800000015
 10
181.00700400000164
 20
-90.42349200000015
 10
181.00624200000163
 20
-90.39707600000015
 10
181.00624200000163
 20
-90.37066000000017
 10
181.00700400000164
 20
-90.34424400000017
 10
181.00827400000165
 20
-90.31808200000016
 10
181.01030600000166
 20
-90.29192000000016
 10
181.01310000000163
 20
-90.26601200000017
 10
181.01665600000163
 20
-90.24010400000017
 10
181.02122800000166
 20
-90.21445000000018
 10
181.02656200000163
 20
-90.18879600000018
 10
181.03265800000165
 20
-90.16339600000018
 10
181.03951600000164
 20
-90.13825000000017
 10
181.04739000000163
 20
-90.11335800000018
 10
181.05602600000165
 20
-90.08872000000018
 10
181.06567800000164
 20
-90.06433600000018
 10
181.07634600000165
 20
-90.04020600000017
 10
181.09209400000165
 20
-90.00794800000017
 10
181.10885800000165
 20
-89.97746800000016
 10
181.12663800000166
 20
-89.94876600000016
 10
181.14543400000167
 20
-89.92184200000017
 10
181.16499200000166
 20
-89.89669600000016
 10
181.18531200000166
 20
-89.87307400000016
 10
181.20664800000165
 20
-89.85097600000017
 10
181.22874600000165
 20
-89.83040200000016
 10
181.25160600000166
 20
-89.81109800000016
 10
181.27522800000165
 20
-89.79331800000016
 10
181.29961200000164
 20
-89.77680800000016
 10
181.32450400000164
 20
-89.76156800000015
 10
181.35015800000164
 20
-89.74734400000017
 10
181.37632000000164
 20
-89.73439000000016
 10
181.40324400000162
 20
-89.72245200000016
 10
181.43067600000163
 20
-89.71153000000015
 10
181.45861600000163
 20
-89.70162400000017
 10
181.48706400000162
 20
-89.69273400000016
 10
181.51576600000163
 20
-89.68460600000016
 10
181.54497600000164
 20
-89.67724000000015
 10
181.5746940000016
 20
-89.67063600000016
 10
181.60466600000163
 20
-89.66479400000016
 10
181.63489200000163
 20
-89.65971400000015
 10
181.66562600000162
 20
-89.65514200000017
 10
181.69661400000163
 20
-89.65107800000015
 10
181.7276020000016
 20
-89.64752200000015
 10
181.75884400000163
 20
-89.64447400000016
 10
181.79034000000163
 20
-89.64168000000015
 10
181.82209000000162
 20
-89.63914000000015
 10
181.85384000000164
 20
-89.63685400000014
 10
181.88559000000163
 20
-89.63482200000016
 10
181.91734000000162
 20
-89.63304400000015
 10
181.9678860000016
 20
-89.63025000000015
 10
182.0184320000016
 20
-89.62720200000014
 10
182.0689780000016
 20
-89.62415400000015
 10
182.11952400000158
 20
-89.62110600000014
 10
182.17007000000157
 20
-89.61805800000015
 10
182.22061600000157
 20
-89.61501000000014
 10
182.27116200000154
 20
-89.61196200000015
 10
182.32170800000154
 20
-89.60891400000014
 10
182.37225400000153
 20
-89.60586600000015
 10
182.4228000000015
 20
-89.60256400000016
 10
182.4733460000015
 20
-89.59926200000015
 10
182.5238920000015
 20
-89.59596000000016
 10
182.5744380000015
 20
-89.59265800000017
 10
182.62498400000146
 20
-89.58935600000018
 10
182.67553000000146
 20
-89.58605400000017
 10
182.72607600000146
 20
-89.58275200000018
 10
182.77662200000142
 20
-89.5794500000002
 10
182.82716800000142
 20
-89.5761480000002
 10
182.87771400000142
 20
-89.5728460000002
 10
182.92826000000142
 20
-89.5695440000002
 10
182.97880600000138
 20
-89.56624200000022
 10
183.02935200000138
 20
-89.56319400000021
 10
183.07989800000138
 20
-89.56014600000022
 10
183.13044400000135
 20
-89.55709800000021
 10
183.18099000000134
 20
-89.55405000000022
 10
183.23153600000134
 20
-89.55100200000021
 10
183.2820820000013
 20
-89.54795400000022
 10
183.3326280000013
 20
-89.54490600000021
 10
183.3831740000013
 20
-89.54185800000022
 10
183.4337200000013
 20
-89.53906400000021
 10
183.48426600000127
 20
-89.5362700000002
 10
183.53481200000127
 20
-89.53347600000019
 10
183.76188800000128
 20
-89.5210300000002
 10
183.98921800000127
 20
-89.5090920000002
 10
184.21654800000127
 20
-89.49766200000019
 10
184.44387800000126
 20
-89.4864860000002
 10
184.67120800000126
 20
-89.4758180000002
 10
184.89853800000125
 20
-89.4656580000002
 10
185.12586800000125
 20
-89.4557520000002
 10
185.35319800000124
 20
-89.44635400000021
 10
185.58052800000124
 20
-89.4374640000002
 10
185.80785800000123
 20
-89.4288280000002
 10
186.03518800000123
 20
-89.42070000000021
 10
186.26251800000122
 20
-89.4130800000002
 10
186.48984800000122
 20
-89.40571400000022
 10
186.7171780000012
 20
-89.39885600000022
 10
186.9445080000012
 20
-89.39250600000022
 10
187.1718380000012
 20
-89.38641000000023
 10
187.3991680000012
 20
-89.38082200000022
 10
187.62675200000118
 20
-89.37574200000023
 10
187.85433600000118
 20
-89.37091600000022
 10
188.08192000000116
 20
-89.36659800000022
 10
188.30950400000114
 20
-89.36278800000024
 10
188.53708800000115
 20
-89.35923200000023
 10
188.76467200000113
 20
-89.35618400000023
 10
188.9922560000011
 20
-89.35364400000023
 10
189.2198400000011
 20
-89.35135800000023
 10
189.4474240000011
 20
-89.34958000000023
 10
189.6750080000011
 20
-89.34831000000023
 10
189.90259200000108
 20
-89.34729400000022
 10
190.13017600000106
 20
-89.34678600000022
 10
190.35776000000106
 20
-89.34678600000022
 10
190.58534400000104
 20
-89.34704000000022
 10
190.81292800000102
 20
-89.34780200000021
 10
190.84417000000104
 20
-89.34805600000021
 10
190.87541200000106
 20
-89.3483100000002
 10
190.90665400000108
 20
-89.3485640000002
 10
190.93789600000107
 20
-89.3488180000002
 10
190.9691380000011
 20
-89.34907200000018
 10
191.00038000000112
 20
-89.34932600000018
 10
191.0316220000011
 20
-89.34983400000017
 10
191.06286400000113
 20
-89.35034200000018
 10
191.09410600000115
 20
-89.35085000000018
 10
191.12534800000117
 20
-89.35135800000019
 10
191.15659000000116
 20
-89.35186600000019
 10
191.18783200000118
 20
-89.3523740000002
 10
191.2190740000012
 20
-89.35288200000019
 10
191.2503160000012
 20
-89.35339000000019
 10
191.2815580000012
 20
-89.3538980000002
 10
191.31280000000123
 20
-89.3544060000002
 10
191.34404200000125
 20
-89.3549140000002
 10
191.37528400000124
 20
-89.3554220000002
 10
191.40652600000126
 20
-89.35593000000021
 10
191.43776800000128
 20
-89.35643800000021
 10
191.46901000000128
 20
-89.3569460000002
 10
191.5002520000013
 20
-89.35745400000022
 10
191.53149400000132
 20
-89.35796200000021
 10
191.56273600000134
 20
-89.35847000000022
 10
191.59397800000133
 20
-89.35897800000022
 10
191.62522000000135
 20
-89.35948600000023
 10
191.65646200000137
 20
-89.35999400000023
 10
191.68770400000136
 20
-89.36050200000022
 10
191.71894600000138
 20
-89.36101000000023
 10
191.7501880000014
 20
-89.36151800000023
 10
191.78143000000142
 20
-89.36202600000024
 10
191.8126720000014
 20
-89.36253400000024
 10
191.80048000000141
 20
-89.54744600000024
 10
191.7862560000014
 20
-89.73235800000025
 10
191.77000000000143
 20
-89.91701600000023
 10
191.75171200000142
 20
-90.10142000000023
 10
191.73139200000142
 20
-90.28557000000025
 10
191.7090400000014
 20
-90.46946600000024
 10
191.68440200000143
 20
-90.65285400000023
 10
191.6577320000014
 20
-90.83598800000024
 10
191.6287760000014
 20
-91.01861400000024
 10
191.59778800000143
 20
-91.20073200000023
 10
191.56451400000142
 20
-91.38234200000022
 10
191.52895400000142
 20
-91.56344400000023
 10
191.49110800000142
 20
-91.74378400000022
 10
191.45097600000142
 20
-91.92361600000024
 10
191.40855800000142
 20
-92.10268600000023
 10
191.3638540000014
 20
-92.28099400000022
 10
191.3166100000014
 20
-92.45854000000023
 10
191.26708000000139
 20
-92.63507000000023
 10
191.21501000000137
 20
-92.81083800000023
 10
191.16040000000137
 20
-92.98559000000023
 10
191.10350400000135
 20
-93.15932600000023
 10
191.04406800000135
 20
-93.33204600000023
 10
190.98209200000133
 20
-93.50375000000024
 10
190.91757600000133
 20
-93.67418400000022
 10
190.85026600000134
 20
-93.84360200000022
 10
190.78041600000134
 20
-94.01175000000022
 10
190.70802600000135
 20
-94.17862800000022
 10
190.63284200000135
 20
-94.34423600000021
 10
190.55511800000133
 20
-94.50857400000021
 10
190.47460000000132
 20
-94.6713880000002
 10
190.39128800000134
 20
-94.83293200000021
 10
190.3051820000013
 20
-94.99295200000022
  0
LWPOLYLINE
  5
3D
330
17
100
AcDbEntity
  8
0
100
AcDbPolyline
 90
321
 70
0
 10
193.22008600000132
 20
-123.90094600000023
 10
193.0981660000013
 20
-124.02489800000022
 10
192.97548400000133
 20
-124.14808800000023
 10
192.85204000000132
 20
-124.27051600000024
 10
192.7278340000013
 20
-124.39218200000023
 10
192.60312000000133
 20
-124.51308600000023
 10
192.4776440000013
 20
-124.63322800000023
 10
192.35140600000133
 20
-124.75260800000025
 10
192.22440600000132
 20
-124.87148000000025
 10
192.09689800000135
 20
-124.98959000000025
 10
191.96862800000133
 20
-125.10693800000024
 10
191.83985000000135
 20
-125.22352400000024
 10
191.71031000000136
 20
-125.33934800000024
 10
191.58026200000137
 20
-125.45441000000024
 10
191.44970600000136
 20
-125.56871000000024
 10
191.31864200000138
 20
-125.68224800000023
 10
191.1868160000014
 20
-125.79502400000024
 10
191.0544820000014
 20
-125.90703800000023
 10
190.9216400000014
 20
-126.01829000000023
 10
190.78829000000138
 20
-126.12903400000023
 10
190.65443200000138
 20
-126.23901600000022
 10
190.52006600000138
 20
-126.34823600000023
 10
190.3854460000014
 20
-126.45669400000023
 10
190.25031800000139
 20
-126.56439000000023
 10
190.11468200000138
 20
-126.67132400000023
 10
189.9787920000014
 20
-126.77749600000023
 10
189.84239400000138
 20
-126.88290600000023
 10
189.70574200000138
 20
-126.98755400000023
 10
189.56858200000138
 20
-127.09144000000022
 10
189.43116800000138
 20
-127.19456400000023
 10
189.29324600000137
 20
-127.29692600000023
 10
189.15507000000136
 20
-127.39852600000022
 10
189.0166400000014
 20
-127.49936400000023
 10
188.60389000000137
 20
-127.79552800000022
 10
188.18910800000137
 20
-128.08712000000023
 10
187.77204000000137
 20
-128.37414000000024
 10
187.35294000000135
 20
-128.65658800000023
 10
186.93180800000135
 20
-128.93471800000023
 10
186.50839000000136
 20
-129.20827600000024
 10
186.08294000000137
 20
-129.47751600000024
 10
185.65545800000137
 20
-129.74243800000025
 10
185.22619800000135
 20
-130.00304200000025
 10
184.79490600000136
 20
-130.25958200000025
 10
184.36158200000136
 20
-130.51180400000027
 10
183.92648000000136
 20
-130.75996200000026
 10
183.48934600000135
 20
-131.00405600000028
 10
183.05043400000136
 20
-131.24408600000027
 10
182.60974400000137
 20
-131.48030600000027
 10
182.16727600000138
 20
-131.71246200000027
 10
181.72303000000136
 20
-131.94080800000026
 10
181.2770060000014
 20
-132.16534400000026
 10
180.82920400000137
 20
-132.38607000000027
 10
180.37987800000138
 20
-132.60324000000028
 10
179.92877400000137
 20
-132.81660000000028
 10
179.47614600000136
 20
-133.0264040000003
 10
179.02199400000137
 20
-133.2326520000003
 10
178.56631800000136
 20
-133.4353440000003
 10
178.10886400000138
 20
-133.6347340000003
 10
177.65014000000136
 20
-133.83056800000028
 10
177.18989200000135
 20
-134.02310000000028
 10
176.72812000000135
 20
-134.2123300000003
 10
176.26482400000137
 20
-134.39825800000028
 10
175.80025800000138
 20
-134.58088400000028
 10
175.33442200000138
 20
-134.7604620000003
 10
174.86706200000137
 20
-134.93699200000032
 10
175.07432600000138
 20
-134.2143620000003
 10
175.2833680000014
 20
-133.4922400000003
 10
175.49444200000138
 20
-132.7708800000003
 10
175.7075480000014
 20
-132.0500280000003
 10
175.9226860000014
 20
-131.3299380000003
 10
176.1398560000014
 20
-130.6103560000003
 10
176.35905800000143
 20
-129.89153600000031
 10
176.58054600000142
 20
-129.1734780000003
 10
176.8043200000014
 20
-128.4561820000003
 10
177.0303800000014
 20
-127.7396480000003
 10
177.2587260000014
 20
-127.0238760000003
 10
177.4893580000014
 20
-126.30886600000031
 10
177.7225300000014
 20
-125.5946180000003
 10
177.9579880000014
 20
-124.8813860000003
 10
178.1959860000014
 20
-124.1689160000003
 10
178.4367780000014
 20
-123.4574620000003
 10
178.6801100000014
 20
-122.74677000000031
 10
178.9259820000014
 20
-122.03709400000031
 10
179.17464800000138
 20
-121.3284340000003
 10
179.4261080000014
 20
-120.6207900000003
 10
179.6803620000014
 20
-119.9141620000003
 10
179.9374100000014
 20
-119.2085500000003
 10
180.19750600000137
 20
-118.5039540000003
 10
180.46065000000138
 20
-117.8006280000003
 10
180.72658800000139
 20
-117.0983180000003
 10
180.99582800000135
 20
-116.39727800000031
 10
181.26811600000136
 20
-115.69725400000031
 10
181.54345200000134
 20
-114.99850000000032
 10
181.82209000000134
 20
-114.30101600000033
 10
182.10403000000133
 20
-113.60480200000033
 10
182.38927200000137
 20
-112.90985800000033
 10
182.67781600000134
 20
-112.21618400000033
 10
182.67781600000134
 20
-112.21593000000034
 10
182.67781600000134
 20
-112.21567600000034
 10
182.67781600000134
 20
-112.21542200000034
 10
182.67781600000134
 20
-112.21516800000036
 10
182.67781600000134
 20
-112.21491400000036
 10
182.67781600000134
 20
-112.21466000000036
 10
182.67781600000134
 20
-112.21440600000038
 10
182.67781600000134
 20
-112.21415200000038
 10
182.67781600000134
 20
-112.21389800000038
 10
182.67781600000134
 20
-112.21364400000039
 10
182.67781600000134
 20
-112.2133900000004
 10
182.67781600000134
 20
-112.2131360000004
 10
182.67781600000134
 20
-112.2128820000004
 10
182.67781600000134
 20
-112.21262800000042
 10
182.67781600000134
 20
-112.21237400000042
 10
182.67781600000134
 20
-112.21212000000043
 10
182.67781600000134
 20
-112.21186600000043
 10
182.67781600000134
 20
-112.21161200000044
 10
182.67781600000134
 20
-112.21135800000044
 10
182.67781600000134
 20
-112.21110400000045
 10
182.67781600000134
 20
-112.21085000000046
 10
182.67781600000134
 20
-112.21059600000046
 10
182.67781600000134
 20
-112.21034200000047
 10
182.67781600000134
 20
-112.21008800000048
 10
182.67781600000134
 20
-112.20983400000048
 10
182.67781600000134
 20
-112.20958000000049
 10
182.67781600000134
 20
-112.20932600000049
 10
182.67781600000134
 20
-112.2090720000005
 10
182.67781600000134
 20
-112.2088180000005
 10
182.67781600000134
 20
-112.20856400000051
 10
182.67781600000134
 20
-112.20831000000052
 10
182.67781600000134
 20
-112.20805600000052
 10
182.69026200000135
 20
-112.17935400000053
 10
182.70321600000136
 20
-112.15090600000052
 10
182.71667800000137
 20
-112.12271200000052
 10
182.73064800000134
 20
-112.09477200000052
 10
182.74487200000135
 20
-112.06708600000053
 10
182.75960400000136
 20
-112.03965400000052
 10
182.77484400000134
 20
-112.01247600000052
 10
182.79059200000134
 20
-111.98555200000051
 10
182.80684800000134
 20
-111.95913600000051
 10
182.82361200000133
 20
-111.93297400000051
 10
182.84088400000132
 20
-111.90706600000053
 10
182.85841000000133
 20
-111.88141200000052
 10
182.87644400000133
 20
-111.85626600000053
 10
182.89498600000132
 20
-111.83137400000052
 10
182.91403600000135
 20
-111.80673600000053
 10
182.93334000000135
 20
-111.78260600000053
 10
182.95315200000132
 20
-111.75873000000053
 10
182.97347200000135
 20
-111.73510800000052
 10
182.99404600000136
 20
-111.71199400000052
 10
183.01512800000134
 20
-111.68913400000052
 10
183.03671800000134
 20
-111.66678200000052
 10
183.05856200000136
 20
-111.64468400000052
 10
183.08091400000134
 20
-111.62309400000052
 10
183.10352000000137
 20
-111.60175800000053
 10
183.12663400000136
 20
-111.58093000000052
 10
183.15000200000136
 20
-111.56035600000052
 10
183.17387800000137
 20
-111.54029000000052
 10
183.19800800000138
 20
-111.52073200000052
 10
183.22264600000136
 20
-111.50142800000052
 10
183.24753800000136
 20
-111.4826320000005
 10
183.27268400000136
 20
-111.46434400000051
 10
183.29833800000137
 20
-111.44631000000051
 10
183.35218600000138
 20
-111.40948000000051
 10
183.40578000000139
 20
-111.37265000000052
 10
183.4593740000014
 20
-111.33582000000052
 10
183.51296800000136
 20
-111.29899000000052
 10
183.56656200000137
 20
-111.26216000000052
 10
183.62015600000137
 20
-111.22558400000052
 10
183.6734960000014
 20
-111.18900800000053
 10
183.7268360000014
 20
-111.15243200000052
 10
183.7801760000014
 20
-111.11585600000052
 10
183.83351600000142
 20
-111.07953400000052
 10
183.8866020000014
 20
-111.04321200000054
 10
183.93968800000138
 20
-111.00689000000054
 10
183.9927740000014
 20
-110.97056800000055
 10
184.04586000000137
 20
-110.93450000000055
 10
184.09894600000135
 20
-110.89843200000055
 10
184.15177800000134
 20
-110.86236400000055
 10
184.20461000000134
 20
-110.82655000000055
 10
184.25744200000133
 20
-110.79073600000054
 10
184.31027400000133
 20
-110.75492200000053
 10
184.36310600000132
 20
-110.71936200000054
 10
184.4156840000013
 20
-110.68380200000054
 10
184.46826200000132
 20
-110.64824200000055
 10
184.5208400000013
 20
-110.61293600000054
 10
184.5734180000013
 20
-110.57763000000054
 10
184.6257420000013
 20
-110.54232400000053
 10
184.6780660000013
 20
-110.50727200000054
 10
184.73039000000134
 20
-110.47222000000055
 10
184.78271400000133
 20
-110.43742200000055
 10
184.83478400000135
 20
-110.40262400000056
 10
184.88685400000134
 20
-110.36782600000055
 10
184.93892400000135
 20
-110.33328200000055
 10
184.99099400000136
 20
-110.29873800000054
 10
185.37732800000137
 20
-110.04219800000054
 10
185.76493200000135
 20
-109.78286400000054
 10
186.15355200000133
 20
-109.52099000000054
 10
186.54268000000135
 20
-109.25632200000054
 10
186.93206200000137
 20
-108.98860600000054
 10
187.32119000000137
 20
-108.71784200000056
 10
187.70981000000137
 20
-108.44377600000055
 10
188.09741400000135
 20
-108.16615400000055
 10
188.48374800000133
 20
-107.88497600000055
 10
188.86830400000133
 20
-107.60024200000055
 10
189.25057400000134
 20
-107.31169800000055
 10
189.63055800000134
 20
-107.01909000000055
 10
190.00749400000134
 20
-106.72241800000054
 10
190.38112800000135
 20
-106.42142800000055
 10
190.75120600000133
 20
-106.11612000000055
 10
191.11696600000136
 20
-105.80624000000054
 10
191.47840800000137
 20
-105.49178800000054
 10
191.83502400000134
 20
-105.17251000000053
 10
192.18630600000137
 20
-104.84815200000054
 10
192.53200000000135
 20
-104.51871400000053
 10
192.87159800000137
 20
-104.18419600000053
 10
193.20484600000137
 20
-103.84434400000052
 10
193.53123600000134
 20
-103.49890400000052
 10
193.85051400000134
 20
-103.14787600000052
 10
194.16217200000133
 20
-102.79100600000052
 10
194.46570200000136
 20
-102.42804000000054
 10
194.76085000000134
 20
-102.05897800000054
 10
195.04736200000136
 20
-101.68382000000055
 10
195.32473000000135
 20
-101.30231200000054
 10
195.59244600000136
 20
-100.91420000000053
 10
195.85025600000134
 20
-100.51948400000055
 10
196.09765200000137
 20
-100.11816400000055
 10
196.14591200000137
 20
-100.24745000000055
 10
196.1941720000014
 20
-100.37673600000056
 10
196.2424320000014
 20
-100.50602200000056
 10
196.2909460000014
 20
-100.63530800000056
 10
196.33920600000144
 20
-100.76459400000057
 10
196.38746600000144
 20
-100.89388000000058
 10
196.43547200000143
 20
-101.02316600000057
 10
196.48322400000143
 20
-101.15245200000058
 10
196.53072200000142
 20
-101.28199200000057
 10
196.5777120000014
 20
-101.41153200000058
 10
196.62444800000142
 20
-101.54107200000057
 10
196.6706760000014
 20
-101.67086600000057
 10
196.7161420000014
 20
-101.80091400000057
 10
196.76110000000142
 20
-101.93096200000058
 10
196.80529600000142
 20
-102.06126400000058
 10
196.8487300000014
 20
-102.19182000000058
 10
196.89140200000142
 20
-102.32237600000057
 10
196.9330580000014
 20
-102.45318600000057
 10
196.9739520000014
 20
-102.58425000000058
 10
197.0138300000014
 20
-102.71556800000057
 10
197.05269200000143
 20
-102.84714000000056
 10
197.09028400000142
 20
-102.97896600000057
 10
197.12660600000143
 20
-103.11104600000057
 10
197.16165800000144
 20
-103.24338000000057
 10
197.19544000000144
 20
-103.37622200000058
 10
197.22795200000147
 20
-103.50931800000058
 10
197.25894000000145
 20
-103.64266800000057
 10
197.28840400000144
 20
-103.77652600000057
 10
197.31634400000144
 20
-103.91063800000057
 10
197.34250600000144
 20
-104.04525800000057
 10
197.36714400000145
 20
-104.18038600000057
 10
197.39000400000145
 20
-104.31576800000056
 10
197.42937400000145
 20
-104.58196000000056
 10
197.46163200000143
 20
-104.84840600000057
 10
197.48728600000143
 20
-105.11510600000057
 10
197.50633600000143
 20
-105.38180600000057
 10
197.51903600000142
 20
-105.64876000000056
 10
197.5256400000014
 20
-105.91571400000056
 10
197.5264020000014
 20
-106.18292200000056
 10
197.52157600000143
 20
-106.45013000000057
 10
197.5111620000014
 20
-106.71733800000058
 10
197.4956680000014
 20
-106.98454600000058
 10
197.4750940000014
 20
-107.25150000000058
 10
197.44994800000137
 20
-107.51845400000057
 10
197.4202300000014
 20
-107.78540800000057
 10
197.38619400000138
 20
-108.05210800000057
 10
197.3480940000014
 20
-108.31880800000057
 10
197.3061840000014
 20
-108.58525400000057
 10
197.26071800000142
 20
-108.85144600000058
 10
197.2119500000014
 20
-109.11738400000058
 10
197.1598800000014
 20
-109.38306800000058
 10
197.1050160000014
 20
-109.64849800000059
 10
197.0473580000014
 20
-109.91367400000058
 10
196.9871600000014
 20
-110.17859600000058
 10
196.9249300000014
 20
-110.44301000000058
 10
196.8606680000014
 20
-110.70717000000059
 10
196.7946280000014
 20
-110.97082200000058
 10
196.7270640000014
 20
-111.23422000000058
 10
196.65797600000138
 20
-111.49711000000059
 10
196.5878720000014
 20
-111.75949200000059
 10
196.5170060000014
 20
-112.0213660000006
 10
196.4453780000014
 20
-112.28273200000059
 10
196.37349600000138
 20
-112.5433360000006
 10
196.3013600000014
 20
-112.8034320000006
 10
196.2050940000014
 20
-113.1501420000006
 10
196.10882800000138
 20
-113.4968520000006
 10
196.0125620000014
 20
-113.8435620000006
 10
195.91629600000138
 20
-114.1902720000006
 10
195.82003000000137
 20
-114.5369820000006
 10
195.72376400000138
 20
-114.88369200000061
 10
195.62749800000137
 20
-115.23040200000061
 10
195.53123200000135
 20
-115.57711200000061
 10
195.43496600000137
 20
-115.92382200000061
 10
195.33870000000135
 20
-116.27053200000061
 10
195.24243400000134
 20
-116.61724200000062
 10
195.14616800000132
 20
-116.96395200000062
 10
195.04990200000134
 20
-117.31066200000062
 10
194.95363600000132
 20
-117.65737200000062
 10
194.8573700000013
 20
-118.00408200000064
 10
194.76110400000132
 20
-118.35079200000064
 10
194.6648380000013
 20
-118.69750200000064
 10
194.5685720000013
 20
-119.04421200000064
 10
194.4723060000013
 20
-119.39092200000064
 10
194.3760400000013
 20
-119.73763200000064
 10
194.27977400000128
 20
-120.08434200000065
 10
194.1835080000013
 20
-120.43105200000065
 10
194.08724200000128
 20
-120.77776200000065
 10
193.99097600000127
 20
-121.12447200000065
 10
193.89471000000128
 20
-121.47118200000065
 10
193.79844400000127
 20
-121.81789200000065
 10
193.70217800000125
 20
-122.16460200000066
 10
193.60591200000127
 20
-122.51131200000066
 10
193.50964600000125
 20
-122.85802200000066
 10
193.41338000000124
 20
-123.20473200000066
 10
193.31711400000125
 20
-123.55144200000066
 10
193.22084800000124
 20
-123.89815200000066
  0
LWPOLYLINE
  5
3E
330
17
100
AcDbEntity
  8
0
100
AcDbPolyline
 90
129
 70
0
 10
189.86754000000124
 20
-135.96416800000068
 10
189.78727600000124
 20
-136.25322000000068
 10
189.7070120000012
 20
-136.54227200000068
 10
189.62674800000121
 20
-136.8313240000007
 10
189.54648400000121
 20
-137.1203760000007
 10
189.46622000000121
 20
-137.40942800000073
 10
189.3859560000012
 20
-137.69848000000073
 10
189.3056920000012
 20
-137.98753200000073
 10
189.2254280000012
 20
-138.27658400000075
 10
189.14516400000116
 20
-138.56563600000075
 10
189.06490000000116
 20
-138.85468800000075
 10
188.98463600000116
 20
-139.14374000000078
 10
188.90437200000116
 20
-139.43279200000077
 10
188.82410800000113
 20
-139.72184400000077
 10
188.74384400000113
 20
-140.0108960000008
 10
188.66358000000113
 20
-140.2999480000008
 10
188.5833160000011
 20
-140.58900000000082
 10
188.5030520000011
 20
-140.87805200000082
 10
188.4227880000011
 20
-141.16710400000082
 10
188.3425240000011
 20
-141.45615600000085
 10
188.26226000000108
 20
-141.74520800000084
 10
188.18199600000108
 20
-142.03426000000084
 10
188.10173200000108
 20
-142.32331200000087
 10
188.02146800000105
 20
-142.61236400000087
 10
187.94120400000105
 20
-142.9014160000009
 10
187.86094000000105
 20
-143.1904680000009
 10
187.78067600000105
 20
-143.4795200000009
 10
187.70041200000102
 20
-143.76857200000092
 10
187.62014800000102
 20
-144.0576240000009
 10
187.53988400000102
 20
-144.3466760000009
 10
187.459620000001
 20
-144.63572800000094
 10
187.379356000001
 20
-144.92478000000094
 10
187.299092000001
 20
-145.21383200000093
 10
186.82716000000102
 20
-145.21865800000094
 10
186.355228000001
 20
-145.22246800000096
 10
185.88329600000102
 20
-145.22526200000092
 10
185.41136400000104
 20
-145.22704000000093
 10
184.93943200000106
 20
-145.22780200000093
 10
184.46750000000108
 20
-145.22754800000095
 10
183.99556800000107
 20
-145.22627800000095
 10
183.5236360000011
 20
-145.22373800000094
 10
183.0517040000011
 20
-145.22018200000093
 10
182.57977200000113
 20
-145.21561000000094
 10
182.10784000000115
 20
-145.21002200000092
 10
181.63590800000114
 20
-145.20341800000094
 10
181.16397600000116
 20
-145.19579800000093
 10
180.69204400000118
 20
-145.18716200000094
 10
180.2201120000012
 20
-145.17751000000095
 10
179.7481800000012
 20
-145.16658800000093
 10
179.27624800000123
 20
-145.15465000000094
 10
178.80431600000122
 20
-145.14169600000093
 10
178.33263800000123
 20
-145.12772600000093
 10
177.86096000000126
 20
-145.11274000000094
 10
177.38928200000126
 20
-145.09673800000095
 10
176.91760400000126
 20
-145.07972000000095
 10
176.44592600000126
 20
-145.06168600000095
 10
175.97424800000127
 20
-145.04238200000094
 10
175.50257000000127
 20
-145.02206200000091
 10
175.03114600000129
 20
-145.00072600000092
 10
174.55972200000127
 20
-144.97837400000094
 10
174.0882980000013
 20
-144.95500600000094
 10
173.6168740000013
 20
-144.93062200000094
 10
173.1454500000013
 20
-144.90522200000095
 10
172.6742800000013
 20
-144.87880600000094
 10
172.2031100000013
 20
-144.85112000000092
 10
172.21225400000128
 20
-144.81505200000092
 10
172.22139800000124
 20
-144.7789840000009
 10
172.23054200000124
 20
-144.7429160000009
 10
172.23968600000123
 20
-144.70684800000086
 10
172.24883000000122
 20
-144.67078000000086
 10
172.25797400000118
 20
-144.63471200000083
 10
172.26711800000118
 20
-144.59864400000083
 10
172.27626200000117
 20
-144.5625760000008
 10
172.28566000000117
 20
-144.5265080000008
 10
172.29480400000116
 20
-144.49044000000077
 10
172.30420200000117
 20
-144.45437200000077
 10
172.31360000000117
 20
-144.41830400000075
 10
172.32299800000118
 20
-144.38223600000074
 10
172.3323960000012
 20
-144.34616800000074
 10
172.34179400000122
 20
-144.31010000000072
 10
172.35119200000122
 20
-144.27403200000072
 10
172.36059000000122
 20
-144.2379640000007
 10
172.36998800000123
 20
-144.2018960000007
 10
172.37938600000123
 20
-144.16582800000066
 10
172.38878400000124
 20
-144.12976000000066
 10
172.39818200000127
 20
-144.09369200000063
 10
172.40758000000127
 20
-144.05762400000063
 10
172.41697800000128
 20
-144.0215560000006
 10
172.42637600000128
 20
-143.9854880000006
 10
172.4357740000013
 20
-143.94942000000057
 10
172.4451720000013
 20
-143.91335200000057
 10
172.45457000000133
 20
-143.87728400000057
 10
172.46396800000133
 20
-143.84121600000054
 10
172.47336600000133
 20
-143.80514800000054
 10
172.48276400000134
 20
-143.7690800000005
 10
172.49216200000134
 20
-143.7330120000005
 10
172.50156000000135
 20
-143.69694400000049
 10
173.07204400000134
 20
-143.5193980000005
 10
173.64125800000136
 20
-143.3382960000005
 10
174.20920200000134
 20
-143.1536380000005
 10
174.77562200000136
 20
-142.96517000000054
 10
175.34077200000135
 20
-142.77314600000054
 10
175.90439800000138
 20
-142.57731200000055
 10
176.46650000000136
 20
-142.37766800000057
 10
177.02707800000135
 20
-142.17396000000056
 10
177.58613200000136
 20
-141.96644200000054
 10
178.14340800000136
 20
-141.75486000000055
 10
178.69890600000136
 20
-141.53921400000056
 10
179.25262600000136
 20
-141.31925000000055
 10
179.80456800000135
 20
-141.09522200000058
 10
180.35447800000134
 20
-140.86687600000056
 10
180.90261000000135
 20
-140.63421200000056
 10
181.44871000000134
 20
-140.39723000000055
 10
181.99277800000135
 20
-140.15593000000055
 10
182.53456000000136
 20
-139.91005800000056
 10
183.07431000000136
 20
-139.65961400000054
 10
183.61177400000136
 20
-139.40459800000056
 10
184.14695200000133
 20
-139.14501000000052
 10
184.67984400000134
 20
-138.8805960000005
 10
185.21045000000134
 20
-138.61161000000052
 10
185.73851600000134
 20
-138.33779800000053
 10
186.26429600000134
 20
-138.05890600000055
 10
186.78753600000132
 20
-137.77518800000055
 10
187.30823600000133
 20
-137.48639000000057
 10
187.8261420000013
 20
-137.19276600000057
 10
188.3415080000013
 20
-136.89406200000056
 10
188.85408000000132
 20
-136.59002400000057
 10
189.3638580000013
 20
-136.28090600000058
 10
189.87084200000132
 20
-135.96645400000057
  0
ENDSEC
  0
SECTION
  2
OBJECTS
  0
DICTIONARY
  5
A
330
0
100
AcDbDictionary
281
1
  3
ACAD_COLOR
350
B
  3
ACAD_GROUP
350
C
  3
ACAD_LAYOUT
350
D
  3
ACAD_MATERIAL
350
E
  3
ACAD_MLEADERSTYLE
350
F
  3
ACAD_MLINESTYLE
350
10
  3
ACAD_PLOTSETTINGS
350
11
  3
ACAD_PLOTSTYLENAME
350
12
  3
ACAD_SCALELIST
350
14
  3
ACAD_TABLESTYLE
350
15
  3
ACAD_VISUALSTYLE
350
16
  3
EZDXF_META
350
2D
  0
DICTIONARY
  5
B
330
A
100
AcDbDictionary
281
1
  0
DICTIONARY
  5
C
330
A
100
AcDbDictionary
281
1
  0
DICTIONARY
  5
D
330
A
100
AcDbDictionary
281
1
  3
Model
350
1A
  3
Layout1
350
1E
  0
DICTIONARY
  5
E
330
A
100
AcDbDictionary
281
1
  3
ByBlock
350
1F
  3
ByLayer
350
20
  3
Global
350
21
  0
DICTIONARY
  5
F
330
A
100
AcDbDictionary
281
1
  3
Standard
350
2C
  0
DICTIONARY
  5
10
330
A
100
AcDbDictionary
281
1
  3
Standard
350
22
  0
DICTIONARY
  5
11
330
A
100
AcDbDictionary
281
1
  0
ACDBDICTIONARYWDFLT
  5
12
330
A
100
AcDbDictionary
281
1
  3
Normal
350
13
100
AcDbDictionaryWithDefault
340
13
  0
ACDBPLACEHOLDER
  5
13
330
12
  0
DICTIONARY
  5
14
330
A
100
AcDbDictionary
281
1
  0
DICTIONARY
  5
15
330
A
100
AcDbDictionary
281
1
  0
DICTIONARY
  5
16
330
A
100
AcDbDictionary
281
1
  0
LAYOUT
  5
1A
330
D
100
AcDbPlotSettings
  1

  4
A3
  6

 40
7.5
 41
20.0
 42
7.5
 43
20.0
 44
420.0
 45
297.0
 46
0.0
 47
0.0
 48
0.0
 49
0.0
140
0.0
141
0.0
142
1.0
143
1.0
 70
1024
 72
1
 73
0
 74
5
  7

 75
16
 76
0
 77
2
 78
300
147
1.0
148
0.0
149
0.0
100
AcDbLayout
  1
Model
 70
1
 71
0
 10
0.0
 20
0.0
 11
420.0
 21
297.0
 12
0.0
 22
0.0
 32
0.0
 14
1e+20
 24
1e+20
 34
1e+20
 15
-1e+20
 25
-1e+20
 35
-1e+20
146
0.0
 13
0.0
 23
0.0
 33
0.0
 16
1.0
 26
0.0
 36
0.0
 17
0.0
 27
1.0
 37
0.0
 76
1
330
17
  0
LAYOUT
  5
1E
330
D
100
AcDbPlotSettings
  1

  4
A3
  6

 40
7.5
 41
20.0
 42
7.5
 43
20.0
 44
420.0
 45
297.0
 46
0.0
 47
0.0
 48
0.0
 49
0.0
140
0.0
141
0.0
142
1.0
143
1.0
 70
0
 72
1
 73
0
 74
5
  7

 75
16
 76
0
 77
2
 78
300
147
1.0
148
0.0
149
0.0
100
AcDbLayout
  1
Layout1
 70
1
 71
1
 10
0.0
 20
0.0
 11
420.0
 21
297.0
 12
0.0
 22
0.0
 32
0.0
 14
1e+20
 24
1e+20
 34
1e+20
 15
-1e+20
 25
-1e+20
 35
-1e+20
146
0.0
 13
0.0
 23
0.0
 33
0.0
 16
1.0
 26
0.0
 36
0.0
 17
0.0
 27
1.0
 37
0.0
 76
1
330
1B
  0
MATERIAL
  5
1F
102
{ACAD_REACTORS
330
E
102
}
330
E
100
AcDbMaterial
  1
ByBlock
  2

 70
0
 40
1.0
 71
1
 41
1.0
 91
-1023410177
 42
1.0
 72
1
  3

 73
1
 74
1
 75
1
 44
0.5
 73
0
 45
1.0
 46
1.0
 77
1
  4

 78
1
 79
1
170
1
 48
1.0
171
1
  6

172
1
173
1
174
1
140
1.0
141
1.0
175
1
  7

176
1
177
1
178
1
143
1.0
179
1
  8

270
1
271
1
272
1
145
1.0
146
1.0
273
1
  9

274
1
275
1
276
1
 42
1.0
 72
1
  3

 73
1
 74
1
 75
1
 94
63
  0
MATERIAL
  5
20
102
{ACAD_REACTORS
330
E
102
}
330
E
100
AcDbMaterial
  1
ByLayer
  2

 70
0
 40
1.0
 71
1
 41
1.0
 91
-1023410177
 42
1.0
 72
1
  3

 73
1
 74
1
 75
1
 44
0.5
 73
0
 45
1.0
 46
1.0
 77
1
  4

 78
1
 79
1
170
1
 48
1.0
171
1
  6

172
1
173
1
174
1
140
1.0
141
1.0
175
1
  7

176
1
177
1
178
1
143
1.0
179
1
  8

270
1
271
1
272
1
145
1.0
146
1.0
273
1
  9

274
1
275
1
276
1
 42
1.0
 72
1
  3

 73
1
 74
1
 75
1
 94
63
  0
MATERIAL
  5
21
102
{ACAD_REACTORS
330
E
102
}
330
E
100
AcDbMaterial
  1
Global
  2

 70
0
 40
1.0
 71
1
 41
1.0
 91
-1023410177
 42
1.0
 72
1
  3

 73
1
 74
1
 75
1
 44
0.5
 73
0
 45
1.0
 46
1.0
 77
1
  4

 78
1
 79
1
170
1
 48
1.0
171
1
  6

172
1
173
1
174
1
140
1.0
141
1.0
175
1
  7

176
1
177
1
178
1
143
1.0
179
1
  8

270
1
271
1
272
1
145
1.0
146
1.0
273
1
  9

274
1
275
1
276
1
 42
1.0
 72
1
  3

 73
1
 74
1
 75
1
 94
63
  0
MLINESTYLE
  5
22
102
{ACAD_REACTORS
330
10
102
}
330
10
100
AcDbMlineStyle
  2
Standard
 70
0
  3

 62
256
 51
90.0
 52
90.0
 71
2
 49
0.5
 62
256
  6
BYLAYER
 49
-0.5
 62
256
  6
BYLAYER
  0
MLEADERSTYLE
  5
2C
102
{ACAD_REACTORS
330
F
102
}
330
F
100
AcDbMLeaderStyle
179
2
170
2
171
1
172
0
 90
2
 40
0.0
 41
0.0
173
1
 91
-1056964608
 92
-2
290
1
 42
2.0
291
1
 43
8.0
  3
Standard
 44
4.0
300

342
29
174
1
175
1
176
0
178
1
 93
-1056964608
 45
4.0
292
0
297
0
 46
4.0
 94
-1056964608
 47
1.0
 49
1.0
140
1.0
294
1
141
0.0
177
0
142
1.0
295
0
296
0
143
3.75
271
0
272
9
273
9
  0
DICTIONARY
  5
2D
330
A
100
AcDbDictionary
280
1
281
1
  3
CREATED_BY_EZDXF
350
2E
  3
WRITTEN_BY_EZDXF
350
41
  0
DICTIONARYVAR
  5
2E
330
2D
100
DictionaryVariables
280
0
  1
1.4.3 @ 2026-04-08T01:02:28.612302+00:00
  0
DICTIONARYVAR
  5
41
330
2D
100
DictionaryVariables
280
0
  1
1.4.3 @ 2026-04-08T01:02:28.621488+00:00
  0
ENDSEC
  0
EOF
