  0
SECTION
  2
HEADER
  9
$ACADVER
  1
AC1024
  9
$ACADMAINTVER
 70
6
  9
$DWGCODEPAGE
  3
ANSI_1252
  9
$LASTSAVEDBY
  1
ezdxf
  9
$INSBASE
 10
0.0
 20
0.0
 30
0.0
  9
$EXTMIN
 10
1e+20
 20
1e+20
 30
1e+20
  9
$EXTMAX
 10
-1e+20
 20
-1e+20
 30
-1e+20
  9
$LIMMIN
 10
0.0
 20
0.0
  9
$LIMMAX
 10
420.0
 20
297.0
  9
$ORTHOMODE
 70
0
  9
$REGENMODE
 70
1
  9
$FILLMODE
 70
1
  9
$QTEXTMODE
 70
0
  9
$MIRRTEXT
 70
1
  9
$LTSCALE
 40
1.0
  9
$ATTMODE
 70
1
  9
$TEXTSIZE
 40
2.5
  9
$TRACEWID
 40
1.0
  9
$TEXTSTYLE
  7
Standard
  9
$CLAYER
  8
0
  9
$CELTYPE
  6
ByLayer
  9
$CECOLOR
 62
256
  9
$CELTSCALE
 40
1.0
  9
$DISPSILH
 70
0
  9
$DIMSCALE
 40
1.0
  9
$DIMASZ
 40
2.5
  9
$DIMEXO
 40
0.625
  9
$DIMDLI
 40
3.75
  9
$DIMRND
 40
0.0
  9
$DIMDLE
 40
0.0
  9
$DIMEXE
 40
1.25
  9
$DIMTP
 40
0.0
  9
$DIMTM
 40
0.0
  9
$DIMTXT
 40
2.5
  9
$DIMCEN
 40
2.5
  9
$DIMTSZ
 40
0.0
  9
$DIMTOL
 70
0
  9
$DIMLIM
 70
0
  9
$DIMTIH
 70
0
  9
$DIMTOH
 70
0
  9
$DIMSE1
 70
0
  9
$DIMSE2
 70
0
  9
$DIMTAD
 70
1
  9
$DIMZIN
 70
8
  9
$DIMBLK
  1

  9
$DIMASO
 70
1
  9
$DIMSHO
 70
1
  9
$DIMPOST
  1

  9
$DIMAPOST
  1

  9
$DIMALT
 70
0
  9
$DIMALTD
 70
3
  9
$DIMALTF
 40
0.03937007874
  9
$DIMLFAC
 40
1.0
  9
$DIMTOFL
 70
1
  9
$DIMTVP
 40
0.0
  9
$DIMTIX
 70
0
  9
$DIMSOXD
 70
0
  9
$DIMSAH
 70
0
  9
$DIMBLK1
  1

  9
$DIMBLK2
  1

  9
$DIMSTYLE
  2
ISO-25
  9
$DIMCLRD
 70
0
  9
$DIMCLRE
 70
0
  9
$DIMCLRT
 70
0
  9
$DIMTFAC
 40
1.0
  9
$DIMGAP
 40
0.625
  9
$DIMJUST
 70
0
  9
$DIMSD1
 70
0
  9
$DIMSD2
 70
0
  9
$DIMTOLJ
 70
0
  9
$DIMTZIN
 70
8
  9
$DIMALTZ
 70
0
  9
$DIMALTTZ
 70
0
  9
$DIMUPT
 70
0
  9
$DIMDEC
 70
2
  9
$DIMTDEC
 70
2
  9
$DIMALTU
 70
2
  9
$DIMALTTD
 70
3
  9
$DIMTXSTY
  7
Standard
  9
$DIMAUNIT
 70
0
  9
$DIMADEC
 70
0
  9
$DIMALTRND
 40
0.0
  9
$DIMAZIN
 70
0
  9
$DIMDSEP
 70
44
  9
$DIMATFIT
 70
3
  9
$DIMFRAC
 70
0
  9
$DIMLDRBLK
  1

  9
$DIMLUNIT
 70
2
  9
$DIMLWD
 70
-2
  9
$DIMLWE
 70
-2
  9
$DIMTMOVE
 70
0
  9
$DIMFXL
 40
1.0
  9
$DIMFXLON
 70
0
  9
$DIMJOGANG
 40
0.785398163397
  9
$DIMTFILL
 70
0
  9
$DIMTFILLCLR
 70
0
  9
$DIMARCSYM
 70
0
  9
$DIMLTYPE
  6

  9
$DIMLTEX1
  6

  9
$DIMLTEX2
  6

  9
$DIMTXTDIRECTION
 70
0
  9
$LUNITS
 70
2
  9
$LUPREC
 70
4
  9
$SKETCHINC
 40
1.0
  9
$FILLETRAD
 40
10.0
  9
$AUNITS
 70
0
  9
$AUPREC
 70
2
  9
$MENU
  1
.
  9
$ELEVATION
 40
0.0
  9
$PELEVATION
 40
0.0
  9
$THICKNESS
 40
0.0
  9
$LIMCHECK
 70
0
  9
$CHAMFERA
 40
0.0
  9
$CHAMFERB
 40
0.0
  9
$CHAMFERC
 40
0.0
  9
$CHAMFERD
 40
0.0
  9
$SKPOLY
 70
0
  9
$TDCREATE
 40
2461138.7153935186
  9
$TDUCREATE
 40
2458532.153996898
  9
$TDUPDATE
 40
2461138.7153935186
  9
$TDUUPDATE
 40
2458532.1544311
  9
$TDINDWG
 40
0.0
  9
$TDUSRTIMER
 40
0.0
  9
$USRTIMER
 70
1
  9
$ANGBASE
 50
0.0
  9
$ANGDIR
 70
0
  9
$PDMODE
 70
0
  9
$PDSIZE
 40
0.0
  9
$PLINEWID
 40
0.0
  9
$SPLFRAME
 70
0
  9
$SPLINETYPE
 70
6
  9
$SPLINESEGS
 70
8
  9
$HANDSEED
  5
133
  9
$SURFTAB1
 70
6
  9
$SURFTAB2
 70
6
  9
$SURFTYPE
 70
6
  9
$SURFU
 70
6
  9
$SURFV
 70
6
  9
$UCSBASE
  2

  9
$UCSNAME
  2

  9
$UCSORG
 10
0.0
 20
0.0
 30
0.0
  9
$UCSXDIR
 10
1.0
 20
0.0
 30
0.0
  9
$UCSYDIR
 10
0.0
 20
1.0
 30
0.0
  9
$UCSORTHOREF
  2

  9
$UCSORTHOVIEW
 70
0
  9
$UCSORGTOP
 10
0.0
 20
0.0
 30
0.0
  9
$UCSORGBOTTOM
 10
0.0
 20
0.0
 30
0.0
  9
$UCSORGLEFT
 10
0.0
 20
0.0
 30
0.0
  9
$UCSORGRIGHT
 10
0.0
 20
0.0
 30
0.0
  9
$UCSORGFRONT
 10
0.0
 20
0.0
 30
0.0
  9
$UCSORGBACK
 10
0.0
 20
0.0
 30
0.0
  9
$PUCSBASE
  2

  9
$PUCSNAME
  2

  9
$PUCSORG
 10
0.0
 20
0.0
 30
0.0
  9
$PUCSXDIR
 10
1.0
 20
0.0
 30
0.0
  9
$PUCSYDIR
 10
0.0
 20
1.0
 30
0.0
  9
$PUCSORTHOREF
  2

  9
$PUCSORTHOVIEW
 70
0
  9
$PUCSORGTOP
 10
0.0
 20
0.0
 30
0.0
  9
$PUCSORGBOTTOM
 10
0.0
 20
0.0
 30
0.0
  9
$PUCSORGLEFT
 10
0.0
 20
0.0
 30
0.0
  9
$PUCSORGRIGHT
 10
0.0
 20
0.0
 30
0.0
  9
$PUCSORGFRONT
 10
0.0
 20
0.0
 30
0.0
  9
$PUCSORGBACK
 10
0.0
 20
0.0
 30
0.0
  9
$USERI1
 70
0
  9
$USERI2
 70
0
  9
$USERI3
 70
0
  9
$USERI4
 70
0
  9
$USERI5
 70
0
  9
$USERR1
 40
0.0
  9
$USERR2
 40
0.0
  9
$USERR3
 40
0.0
  9
$USERR4
 40
0.0
  9
$USERR5
 40
0.0
  9
$WORLDVIEW
 70
1
  9
$SHADEDGE
 70
3
  9
$SHADEDIF
 70
70
  9
$TILEMODE
 70
1
  9
$MAXACTVP
 70
64
  9
$PINSBASE
 10
0.0
 20
0.0
 30
0.0
  9
$PLIMCHECK
 70
0
  9
$PEXTMIN
 10
1e+20
 20
1e+20
 30
1e+20
  9
$PEXTMAX
 10
-1e+20
 20
-1e+20
 30
-1e+20
  9
$PLIMMIN
 10
0.0
 20
0.0
  9
$PLIMMAX
 10
420.0
 20
297.0
  9
$UNITMODE
 70
0
  9
$VISRETAIN
 70
1
  9
$PLINEGEN
 70
0
  9
$PSLTSCALE
 70
1
  9
$TREEDEPTH
 70
3020
  9
$CMLSTYLE
  2
Standard
  9
$CMLJUST
 70
0
  9
$CMLSCALE
 40
20.0
  9
$PROXYGRAPHICS
 70
1
  9
$MEASUREMENT
 70
1
  9
$CELWEIGHT
370
-1
  9
$ENDCAPS
280
0
  9
$JOINSTYLE
280
0
  9
$LWDISPLAY
290
0
  9
$INSUNITS
 70
6
  9
$HYPERLINKBASE
  1

  9
$STYLESHEET
  1

  9
$XEDIT
290
1
  9
$CEPSNTYPE
380
0
  9
$PSTYLEMODE
290
1
  9
$FINGERPRINTGUID
  2
{190A3422-A912-40C1-BC57-940D980D1B63}
  9
$VERSIONGUID
  2
{4949CD01-D084-4961-92FF-9D2AAD1CBEF3}
  9
$EXTNAMES
290
1
  9
$PSVPSCALE
 40
0.0
  9
$OLESTARTUP
290
0
  9
$SORTENTS
280
127
  9
$INDEXCTL
280
0
  9
$HIDETEXT
280
1
  9
$XCLIPFRAME
280
1
  9
$HALOGAP
280
0
  9
$OBSCOLOR
 70
257
  9
$OBSLTYPE
280
0
  9
$INTERSECTIONDISPLAY
280
0
  9
$INTERSECTIONCOLOR
 70
257
  9
$DIMASSOC
280
2
  9
$PROJECTNAME
  1

  9
$CAMERADISPLAY
290
0
  9
$LENSLENGTH
 40
50.0
  9
$CAMERAHEIGHT
 40
0.0
  9
$STEPSPERSEC
 40
24.0
  9
$STEPSIZE
 40
100.0
  9
$3DDWFPREC
 40
2.0
  9
$PSOLWIDTH
 40
0.005
  9
$PSOLHEIGHT
 40
0.08
  9
$LOFTANG1
 40
1.570796326795
  9
$LOFTANG2
 40
1.570796326795
  9
$LOFTMAG1
 40
0.0
  9
$LOFTMAG2
 40
0.0
  9
$LOFTPARAM
 70
7
  9
$LOFTNORMALS
280
1
  9
$LATITUDE
 40
37.795
  9
$LONGITUDE
 40
-122.394
  9
$NORTHDIRECTION
 40
0.0
  9
$TIMEZONE
 70
-8000
  9
$LIGHTGLYPHDISPLAY
280
1
  9
$TILEMODELIGHTSYNCH
280
1
  9
$CMATERIAL
347
20
  9
$SOLIDHIST
280
0
  9
$SHOWHIST
280
1
  9
$DWFFRAME
280
2
  9
$DGNFRAME
280
2
  9
$REALWORLDSCALE
290
1
  9
$INTERFERECOLOR
 62
256
  9
$CSHADOW
280
0
  9
$SHADOWPLANELOCATION
 40
0.0
  0
ENDSEC
  0
SECTION
  2
CLASSES
  0
CLASS
  1
ACDBDICTIONARYWDFLT
  2
AcDbDictionaryWithDefault
  3
ObjectDBX Classes
 90
0
 91
0
280
0
281
0
  0
CLASS
  1
SUN
  2
AcDbSun
  3
SCENEOE
 90
1153
 91
0
280
0
281
0
  0
CLASS
  1
VISUALSTYLE
  2
AcDbVisualStyle
  3
ObjectDBX Classes
 90
4095
 91
0
280
0
281
0
  0
CLASS
  1
MATERIAL
  2
AcDbMaterial
  3
ObjectDBX Classes
 90
1153
 91
0
280
0
281
0
  0
CLASS
  1
SCALE
  2
AcDbScale
  3
ObjectDBX Classes
 90
1153
 91
0
280
0
281
0
  0
CLASS
  1
TABLESTYLE
  2
AcDbTableStyle
  3
ObjectDBX Classes
 90
4095
 91
0
280
0
281
0
  0
CLASS
  1
MLEADERSTYLE
  2
AcDbMLeaderStyle
  3
ACDB_MLEADERSTYLE_CLASS
 90
4095
 91
0
280
0
281
0
  0
CLASS
  1
DICTIONARYVAR
  2
AcDbDictionaryVar
  3
ObjectDBX Classes
 90
0
 91
0
280
0
281
0
  0
CLASS
  1
CELLSTYLEMAP
  2
AcDbCellStyleMap
  3
ObjectDBX Classes
 90
1152
 91
0
280
0
281
0
  0
CLASS
  1
MENTALRAYRENDERSETTINGS
  2
AcDbMentalRayRenderSettings
  3
SCENEOE
 90
1024
 91
0
280
0
281
0
  0
CLASS
  1
ACDBDETAILVIEWSTYLE
  2
AcDbDetailViewStyle
  3
ObjectDBX Classes
 90
1025
 91
0
280
0
281
0
  0
CLASS
  1
ACDBSECTIONVIEWSTYLE
  2
AcDbSectionViewStyle
  3
ObjectDBX Classes
 90
1025
 91
0
280
0
281
0
  0
CLASS
  1
RASTERVARIABLES
  2
AcDbRasterVariables
  3
ISM
 90
0
 91
0
280
0
281
0
  0
CLASS
  1
ACDBPLACEHOLDER
  2
AcDbPlaceHolder
  3
ObjectDBX Classes
 90
0
 91
0
280
0
281
0
  0
CLASS
  1
LAYOUT
  2
AcDbLayout
  3
ObjectDBX Classes
 90
0
 91
0
280
0
281
0
  0
ENDSEC
  0
SECTION
  2
TABLES
  0
TABLE
  2
VPORT
  5
8
330
0
100
AcDbSymbolTable
 70
1
  0
VPORT
  5
23
330
8
100
AcDbSymbolTableRecord
100
AcDbViewportTableRecord
  2
*Active
 70
0
 10
0.0
 20
0.0
 11
1.0
 21
1.0
 12
0.0
 22
0.0
 13
0.0
 23
0.0
 14
0.5
 24
0.5
 15
0.5
 25
0.5
 16
0.0
 26
0.0
 36
1.0
 17
0.0
 27
0.0
 37
0.0
 40
1000.0
 41
1.34
 42
50.0
 43
0.0
 44
0.0
 50
0.0
 51
0.0
 71
0
 72
1000
 73
1
 74
3
 75
0
 76
0
 77
0
 78
0
281
0
 65
0
146
0.0
  0
ENDTAB
  0
TABLE
  2
LTYPE
  5
2
330
0
100
AcDbSymbolTable
 70
3
  0
LTYPE
  5
24
330
2
100
AcDbSymbolTableRecord
100
AcDbLinetypeTableRecord
  2
ByBlock
 70
0
  3

 72
65
 73
0
 40
0.0
  0
LTYPE
  5
25
330
2
100
AcDbSymbolTableRecord
100
AcDbLinetypeTableRecord
  2
ByLayer
 70
0
  3

 72
65
 73
0
 40
0.0
  0
LTYPE
  5
26
330
2
100
AcDbSymbolTableRecord
100
AcDbLinetypeTableRecord
  2
Continuous
 70
0
  3

 72
65
 73
0
 40
0.0
  0
ENDTAB
  0
TABLE
  2
LAYER
  5
1
330
0
100
AcDbSymbolTable
 70
2
  0
LAYER
  5
27
330
1
100
AcDbSymbolTableRecord
100
AcDbLayerTableRecord
  2
0
 70
0
 62
7
  6
Continuous
370
-3
390
13
347
21
  0
LAYER
  5
28
330
1
100
AcDbSymbolTableRecord
100
AcDbLayerTableRecord
  2
Defpoints
 70
0
 62
7
  6
Continuous
290
0
370
-3
390
13
347
21
  0
ENDTAB
  0
TABLE
  2
STYLE
  5
5
330
0
100
AcDbSymbolTable
 70
1
  0
STYLE
  5
29
330
5
100
AcDbSymbolTableRecord
100
AcDbTextStyleTableRecord
  2
Standard
 70
0
 40
0.0
 41
1.0
 50
0.0
 71
0
 42
2.5
  3
txt
  4

  0
ENDTAB
  0
TABLE
  2
VIEW
  5
7
330
0
100
AcDbSymbolTable
 70
0
  0
ENDTAB
  0
TABLE
  2
UCS
  5
6
330
0
100
AcDbSymbolTable
 70
0
  0
ENDTAB
  0
TABLE
  2
APPID
  5
3
330
0
100
AcDbSymbolTable
 70
3
  0
APPID
  5
2A
330
3
100
AcDbSymbolTableRecord
100
AcDbRegAppTableRecord
  2
ACAD
 70
0
  0
APPID
  5
130
330
3
100
AcDbSymbolTableRecord
100
AcDbRegAppTableRecord
  2
HATCHBACKGROUNDCOLOR
 70
0
  0
APPID
  5
131
330
3
100
AcDbSymbolTableRecord
100
AcDbRegAppTableRecord
  2
EZDXF
 70
0
  0
ENDTAB
  0
TABLE
  2
DIMSTYLE
  5
4
330
0
100
AcDbSymbolTable
 70
1
100
AcDbDimStyleTable
  0
DIMSTYLE
105
2B
330
4
100
AcDbSymbolTableRecord
100
AcDbDimStyleTableRecord
  2
Standard
 70
0
 40
1.0
 41
2.5
 42
0.625
 43
3.75
 44
1.25
 45
0.0
 46
0.0
 47
0.0
 48
0.0
 49
2.5
140
2.5
141
2.5
142
0.0
143
0.03937007874
144
1.0
145
0.0
146
1.0
147
0.625
148
0.0
 69
0
 70
0
 71
0
 72
0
 73
0
 74
0
 75
0
 76
0
 77
1
 78
8
 79
3
170
0
171
3
172
1
173
0
174
0
175
0
176
0
177
0
178
0
179
2
271
2
272
2
273
2
274
3
275
0
276
0
277
2
278
44
279
0
280
0
281
0
282
0
283
0
284
8
285
0
286
0
288
0
289
3
290
0
371
-2
372
-2
  0
ENDTAB
  0
TABLE
  2
BLOCK_RECORD
  5
9
330
0
100
AcDbSymbolTable
 70
2
  0
BLOCK_RECORD
  5
17
330
9
100
AcDbSymbolTableRecord
100
AcDbBlockTableRecord
  2
*Model_Space
340
1A
 70
0
280
1
281
0
  0
BLOCK_RECORD
  5
1B
330
9
100
AcDbSymbolTableRecord
100
AcDbBlockTableRecord
  2
*Paper_Space
340
1E
 70
0
280
1
281
0
  0
ENDTAB
  0
ENDSEC
  0
SECTION
  2
BLOCKS
  0
BLOCK
  5
18
330
17
100
AcDbEntity
  8
0
100
AcDbBlockBegin
  2
*Model_Space
 70
0
 10
0.0
 20
0.0
 30
0.0
  3
*Model_Space
  1

  0
ENDBLK
  5
19
330
17
100
AcDbEntity
  8
0
100
AcDbBlockEnd
  0
BLOCK
  5
1C
330
1B
100
AcDbEntity
  8
0
100
AcDbBlockBegin
  2
*Paper_Space
 70
0
 10
0.0
 20
0.0
 30
0.0
  3
*Paper_Space
  1

  0
ENDBLK
  5
1D
330
1B
100
AcDbEntity
  8
0
100
AcDbBlockEnd
  0
ENDSEC
  0
SECTION
  2
ENTITIES
  0
LINE
  5
2F
330
17
100
AcDbEntity
  8
0
100
AcDbLine
 10
129.819
 20
-200.567
 30
0.0
 11
128.40099999999998
 21
-200.636
 31
0.0
  0
LINE
  5
30
330
17
100
AcDbEntity
  8
0
100
AcDbLine
 10
128.40099999999998
 20
-200.636
 30
0.0
 11
127.02399999999999
 21
-200.844
 31
0.0
  0
LINE
  5
31
330
17
100
AcDbEntity
  8
0
100
AcDbLine
 10
127.02399999999999
 20
-200.844
 30
0.0
 11
125.695
 21
-201.184
 31
0.0
  0
LINE
  5
32
330
17
100
AcDbEntity
  8
0
100
AcDbLine
 10
125.695
 20
-201.184
 30
0.0
 11
124.42099999999999
 21
-201.649
 31
0.0
  0
LINE
  5
33
330
17
100
AcDbEntity
  8
0
100
AcDbLine
 10
124.42099999999999
 20
-201.649
 30
0.0
 11
123.208
 21
-202.231
 31
0.0
  0
LINE
  5
34
330
17
100
AcDbEntity
  8
0
100
AcDbLine
 10
123.208
 20
-202.231
 30
0.0
 11
122.064
 21
-202.924
 31
0.0
  0
LINE
  5
35
330
17
100
AcDbEntity
  8
0
100
AcDbLine
 10
122.064
 20
-202.924
 30
0.0
 11
120.996
 21
-203.721
 31
0.0
  0
LINE
  5
36
330
17
100
AcDbEntity
  8
0
100
AcDbLine
 10
120.996
 20
-203.721
 30
0.0
 11
120.011
 21
-204.615
 31
0.0
  0
LINE
  5
37
330
17
100
AcDbEntity
  8
0
100
AcDbLine
 10
120.011
 20
-204.615
 30
0.0
 11
119.115
 21
-205.59900000000002
 31
0.0
  0
LINE
  5
38
330
17
100
AcDbEntity
  8
0
100
AcDbLine
 10
119.115
 20
-205.59900000000002
 30
0.0
 11
118.31599999999999
 21
-206.66600000000003
 31
0.0
  0
LINE
  5
39
330
17
100
AcDbEntity
  8
0
100
AcDbLine
 10
118.31599999999999
 20
-206.66600000000003
 30
0.0
 11
117.621
 21
-207.80900000000003
 31
0.0
  0
LINE
  5
3A
330
17
100
AcDbEntity
  8
0
100
AcDbLine
 10
117.621
 20
-207.80900000000003
 30
0.0
 11
117.03699999999999
 21
-209.02100000000002
 31
0.0
  0
LINE
  5
3B
330
17
100
AcDbEntity
  8
0
100
AcDbLine
 10
117.03699999999999
 20
-209.02100000000002
 30
0.0
 11
116.57
 21
-210.29500000000002
 31
0.0
  0
LINE
  5
3C
330
17
100
AcDbEntity
  8
0
100
AcDbLine
 10
116.57
 20
-210.29500000000002
 30
0.0
 11
116.228
 21
-211.62400000000002
 31
0.0
  0
LINE
  5
3D
330
17
100
AcDbEntity
  8
0
100
AcDbLine
 10
116.228
 20
-211.62400000000002
 30
0.0
 11
116.018
 21
-213.00100000000003
 31
0.0
  0
LINE
  5
3E
330
17
100
AcDbEntity
  8
0
100
AcDbLine
 10
116.018
 20
-213.00100000000003
 30
0.0
 11
115.946
 21
-271.845
 31
0.0
  0
LINE
  5
3F
330
17
100
AcDbEntity
  8
0
100
AcDbLine
 10
115.946
 20
-271.845
 30
0.0
 11
323.222
 21
-272.17900000000003
 31
0.0
  0
LINE
  5
40
330
17
100
AcDbEntity
  8
0
100
AcDbLine
 10
323.222
 20
-272.17900000000003
 30
0.0
 11
336.73699999999997
 21
-267.78000000000003
 31
0.0
  0
LINE
  5
41
330
17
100
AcDbEntity
  8
0
100
AcDbLine
 10
336.73699999999997
 20
-267.78000000000003
 30
0.0
 11
337.56199999999995
 21
-267.61400000000003
 31
0.0
  0
LINE
  5
42
330
17
100
AcDbEntity
  8
0
100
AcDbLine
 10
337.56199999999995
 20
-267.61400000000003
 30
0.0
 11
338.39799999999997
 21
-267.514
 31
0.0
  0
LINE
  5
43
330
17
100
AcDbEntity
  8
0
100
AcDbLine
 10
338.39799999999997
 20
-267.514
 30
0.0
 11
357.068
 21
-267.48900000000003
 31
0.0
  0
LINE
  5
44
330
17
100
AcDbEntity
  8
0
100
AcDbLine
 10
357.068
 20
-267.48900000000003
 30
0.0
 11
357.274
 21
-267.51500000000004
 31
0.0
  0
LINE
  5
45
330
17
100
AcDbEntity
  8
0
100
AcDbLine
 10
357.274
 20
-267.51500000000004
 30
0.0
 11
357.475
 21
-267.557
 31
0.0
  0
LINE
  5
46
330
17
100
AcDbEntity
  8
0
100
AcDbLine
 10
357.475
 20
-267.557
 30
0.0
 11
357.67100000000005
 21
-267.615
 31
0.0
  0
LINE
  5
47
330
17
100
AcDbEntity
  8
0
100
AcDbLine
 10
357.67100000000005
 20
-267.615
 30
0.0
 11
357.86000000000007
 21
-267.688
 31
0.0
  0
LINE
  5
48
330
17
100
AcDbEntity
  8
0
100
AcDbLine
 10
357.86000000000007
 20
-267.688
 30
0.0
 11
358.0420000000001
 21
-267.775
 31
0.0
  0
LINE
  5
49
330
17
100
AcDbEntity
  8
0
100
AcDbLine
 10
358.0420000000001
 20
-267.775
 30
0.0
 11
358.21600000000007
 21
-267.876
 31
0.0
  0
LINE
  5
4A
330
17
100
AcDbEntity
  8
0
100
AcDbLine
 10
358.21600000000007
 20
-267.876
 30
0.0
 11
358.3810000000001
 21
-267.991
 31
0.0
  0
LINE
  5
4B
330
17
100
AcDbEntity
  8
0
100
AcDbLine
 10
358.3810000000001
 20
-267.991
 30
0.0
 11
358.5370000000001
 21
-268.118
 31
0.0
  0
LINE
  5
4C
330
17
100
AcDbEntity
  8
0
100
AcDbLine
 10
358.5370000000001
 20
-268.118
 30
0.0
 11
358.6820000000001
 21
-268.257
 31
0.0
  0
LINE
  5
4D
330
17
100
AcDbEntity
  8
0
100
AcDbLine
 10
358.6820000000001
 20
-268.257
 30
0.0
 11
358.8160000000001
 21
-268.408
 31
0.0
  0
LINE
  5
4E
330
17
100
AcDbEntity
  8
0
100
AcDbLine
 10
358.8160000000001
 20
-268.408
 30
0.0
 11
358.9380000000001
 21
-268.57
 31
0.0
  0
LINE
  5
4F
330
17
100
AcDbEntity
  8
0
100
AcDbLine
 10
358.9380000000001
 20
-268.57
 30
0.0
 11
359.0470000000001
 21
-268.742
 31
0.0
  0
LINE
  5
50
330
17
100
AcDbEntity
  8
0
100
AcDbLine
 10
359.0470000000001
 20
-268.742
 30
0.0
 11
359.1430000000001
 21
-268.92400000000004
 31
0.0
  0
LINE
  5
51
330
17
100
AcDbEntity
  8
0
100
AcDbLine
 10
359.1430000000001
 20
-268.92400000000004
 30
0.0
 11
359.2240000000001
 21
-269.115
 31
0.0
  0
LINE
  5
52
330
17
100
AcDbEntity
  8
0
100
AcDbLine
 10
359.2240000000001
 20
-269.115
 30
0.0
 11
360.1250000000001
 21
-272.238
 31
0.0
  0
LINE
  5
53
330
17
100
AcDbEntity
  8
0
100
AcDbLine
 10
360.1250000000001
 20
-272.238
 30
0.0
 11
579.8740000000001
 21
-272.592
 31
0.0
  0
LINE
  5
54
330
17
100
AcDbEntity
  8
0
100
AcDbLine
 10
579.8740000000001
 20
-272.592
 30
0.0
 11
579.8740000000001
 21
-201.29199999999997
 31
0.0
  0
LINE
  5
55
330
17
100
AcDbEntity
  8
0
100
AcDbLine
 10
579.8740000000001
 20
-201.29199999999997
 30
0.0
 11
129.82000000000016
 21
-200.56599999999997
 31
0.0
  0
LINE
  5
56
330
17
100
AcDbEntity
  8
0
100
AcDbLine
 10
115.94700000000016
 20
-281.529
 30
0.0
 11
116.02000000000015
 21
-294.078
 31
0.0
  0
LINE
  5
57
330
17
100
AcDbEntity
  8
0
100
AcDbLine
 10
116.02000000000015
 20
-294.078
 30
0.0
 11
116.23400000000015
 21
-295.49899999999997
 31
0.0
  0
LINE
  5
58
330
17
100
AcDbEntity
  8
0
100
AcDbLine
 10
116.23400000000015
 20
-295.49899999999997
 30
0.0
 11
116.58200000000015
 21
-296.871
 31
0.0
  0
LINE
  5
59
330
17
100
AcDbEntity
  8
0
100
AcDbLine
 10
116.58200000000015
 20
-296.871
 30
0.0
 11
117.05700000000014
 21
-298.188
 31
0.0
  0
LINE
  5
5A
330
17
100
AcDbEntity
  8
0
100
AcDbLine
 10
117.05700000000014
 20
-298.188
 30
0.0
 11
117.65300000000015
 21
-299.443
 31
0.0
  0
LINE
  5
5B
330
17
100
AcDbEntity
  8
0
100
AcDbLine
 10
117.65300000000015
 20
-299.443
 30
0.0
 11
118.36200000000015
 21
-300.628
 31
0.0
  0
LINE
  5
5C
330
17
100
AcDbEntity
  8
0
100
AcDbLine
 10
118.36200000000015
 20
-300.628
 30
0.0
 11
119.17700000000015
 21
-301.73699999999997
 31
0.0
  0
LINE
  5
5D
330
17
100
AcDbEntity
  8
0
100
AcDbLine
 10
119.17700000000015
 20
-301.73699999999997
 30
0.0
 11
120.09200000000016
 21
-302.76199999999994
 31
0.0
  0
LINE
  5
5E
330
17
100
AcDbEntity
  8
0
100
AcDbLine
 10
120.09200000000016
 20
-302.76199999999994
 30
0.0
 11
121.09900000000016
 21
-303.69599999999997
 31
0.0
  0
LINE
  5
5F
330
17
100
AcDbEntity
  8
0
100
AcDbLine
 10
121.09900000000016
 20
-303.69599999999997
 30
0.0
 11
122.19200000000016
 21
-304.532
 31
0.0
  0
LINE
  5
60
330
17
100
AcDbEntity
  8
0
100
AcDbLine
 10
122.19200000000016
 20
-304.532
 30
0.0
 11
123.36300000000017
 21
-305.263
 31
0.0
  0
LINE
  5
61
330
17
100
AcDbEntity
  8
0
100
AcDbLine
 10
123.36300000000017
 20
-305.263
 30
0.0
 11
124.60600000000017
 21
-305.882
 31
0.0
  0
LINE
  5
62
330
17
100
AcDbEntity
  8
0
100
AcDbLine
 10
124.60600000000017
 20
-305.882
 30
0.0
 11
125.91400000000017
 21
-306.382
 31
0.0
  0
LINE
  5
63
330
17
100
AcDbEntity
  8
0
100
AcDbLine
 10
125.91400000000017
 20
-306.382
 30
0.0
 11
127.27900000000017
 21
-306.75600000000003
 31
0.0
  0
LINE
  5
64
330
17
100
AcDbEntity
  8
0
100
AcDbLine
 10
127.27900000000017
 20
-306.75600000000003
 30
0.0
 11
128.69500000000016
 21
-306.997
 31
0.0
  0
LINE
  5
65
330
17
100
AcDbEntity
  8
0
100
AcDbLine
 10
128.69500000000016
 20
-306.997
 30
0.0
 11
231.49200000000016
 21
-307.081
 31
0.0
  0
LINE
  5
66
330
17
100
AcDbEntity
  8
0
100
AcDbLine
 10
231.49200000000016
 20
-307.081
 30
0.0
 11
237.49200000000016
 21
-281.747
 31
0.0
  0
LINE
  5
67
330
17
100
AcDbEntity
  8
0
100
AcDbLine
 10
237.49200000000016
 20
-281.747
 30
0.0
 11
115.94400000000016
 21
-281.527
 31
0.0
  0
LINE
  5
68
330
17
100
AcDbEntity
  8
0
100
AcDbLine
 10
339.0740000000002
 20
-285.815
 30
0.0
 11
280.3310000000002
 21
-285.815
 31
0.0
  0
LINE
  5
69
330
17
100
AcDbEntity
  8
0
100
AcDbLine
 10
280.3310000000002
 20
-285.815
 30
0.0
 11
281.6700000000002
 21
-288.992
 31
0.0
  0
LINE
  5
6A
330
17
100
AcDbEntity
  8
0
100
AcDbLine
 10
281.6700000000002
 20
-288.992
 30
0.0
 11
282.6920000000002
 21
-292.129
 31
0.0
  0
LINE
  5
6B
330
17
100
AcDbEntity
  8
0
100
AcDbLine
 10
282.6920000000002
 20
-292.129
 30
0.0
 11
283.4290000000002
 21
-295.20300000000003
 31
0.0
  0
LINE
  5
6C
330
17
100
AcDbEntity
  8
0
100
AcDbLine
 10
283.4290000000002
 20
-295.20300000000003
 30
0.0
 11
284.1740000000002
 21
-301.072
 31
0.0
  0
LINE
  5
6D
330
17
100
AcDbEntity
  8
0
100
AcDbLine
 10
284.1740000000002
 20
-301.072
 30
0.0
 11
284.1600000000002
 21
-306.416
 31
0.0
  0
LINE
  5
6E
330
17
100
AcDbEntity
  8
0
100
AcDbLine
 10
284.1600000000002
 20
-306.416
 30
0.0
 11
283.6420000000002
 21
-311.054
 31
0.0
  0
LINE
  5
6F
330
17
100
AcDbEntity
  8
0
100
AcDbLine
 10
283.6420000000002
 20
-311.054
 30
0.0
 11
282.8750000000002
 21
-314.803
 31
0.0
  0
LINE
  5
70
330
17
100
AcDbEntity
  8
0
100
AcDbLine
 10
282.8750000000002
 20
-314.803
 30
0.0
 11
281.6090000000002
 21
-318.909
 31
0.0
  0
LINE
  5
71
330
17
100
AcDbEntity
  8
0
100
AcDbLine
 10
281.6090000000002
 20
-318.909
 30
0.0
 11
281.5340000000002
 21
-319.096
 31
0.0
  0
LINE
  5
72
330
17
100
AcDbEntity
  8
0
100
AcDbLine
 10
281.5340000000002
 20
-319.096
 30
0.0
 11
350.11500000000024
 21
-319.096
 31
0.0
  0
LINE
  5
73
330
17
100
AcDbEntity
  8
0
100
AcDbLine
 10
350.11500000000024
 20
-319.096
 30
0.0
 11
339.28800000000024
 21
-289.062
 31
0.0
  0
LINE
  5
74
330
17
100
AcDbEntity
  8
0
100
AcDbLine
 10
339.28800000000024
 20
-289.062
 30
0.0
 11
339.09600000000023
 21
-287.986
 31
0.0
  0
LINE
  5
75
330
17
100
AcDbEntity
  8
0
100
AcDbLine
 10
339.09600000000023
 20
-287.986
 30
0.0
 11
339.0250000000002
 21
-286.9
 31
0.0
  0
LINE
  5
76
330
17
100
AcDbEntity
  8
0
100
AcDbLine
 10
339.0250000000002
 20
-286.9
 30
0.0
 11
339.0730000000002
 21
-285.81399999999996
 31
0.0
  0
LINE
  5
77
330
17
100
AcDbEntity
  8
0
100
AcDbLine
 10
707.6280000000002
 20
-505.904
 30
0.0
 11
687.7190000000002
 21
-472.992
 31
0.0
  0
LINE
  5
78
330
17
100
AcDbEntity
  8
0
100
AcDbLine
 10
687.7190000000002
 20
-472.992
 30
0.0
 11
672.9360000000001
 21
-441.432
 31
0.0
  0
LINE
  5
79
330
17
100
AcDbEntity
  8
0
100
AcDbLine
 10
672.9360000000001
 20
-441.432
 30
0.0
 11
657.1400000000001
 21
-396.084
 31
0.0
  0
LINE
  5
7A
330
17
100
AcDbEntity
  8
0
100
AcDbLine
 10
657.1400000000001
 20
-396.084
 30
0.0
 11
655.4070000000002
 21
-388.903
 31
0.0
  0
LINE
  5
7B
330
17
100
AcDbEntity
  8
0
100
AcDbLine
 10
655.4070000000002
 20
-388.903
 30
0.0
 11
654.2060000000001
 21
-381.615
 31
0.0
  0
LINE
  5
7C
330
17
100
AcDbEntity
  8
0
100
AcDbLine
 10
654.2060000000001
 20
-381.615
 30
0.0
 11
653.0870000000001
 21
-367.231
 31
0.0
  0
LINE
  5
7D
330
17
100
AcDbEntity
  8
0
100
AcDbLine
 10
653.0870000000001
 20
-367.231
 30
0.0
 11
653.3980000000001
 21
-354.31
 31
0.0
  0
LINE
  5
7E
330
17
100
AcDbEntity
  8
0
100
AcDbLine
 10
653.3980000000001
 20
-354.31
 30
0.0
 11
654.9510000000001
 21
-342.778
 31
0.0
  0
LINE
  5
7F
330
17
100
AcDbEntity
  8
0
100
AcDbLine
 10
654.9510000000001
 20
-342.778
 30
0.0
 11
657.5590000000001
 21
-332.56100000000004
 31
0.0
  0
LINE
  5
80
330
17
100
AcDbEntity
  8
0
100
AcDbLine
 10
657.5590000000001
 20
-332.56100000000004
 30
0.0
 11
661.0350000000001
 21
-323.58500000000004
 31
0.0
  0
LINE
  5
81
330
17
100
AcDbEntity
  8
0
100
AcDbLine
 10
661.0350000000001
 20
-323.58500000000004
 30
0.0
 11
665.191
 21
-315.776
 31
0.0
  0
LINE
  5
82
330
17
100
AcDbEntity
  8
0
100
AcDbLine
 10
665.191
 20
-315.776
 30
0.0
 11
669.84
 21
-309.06100000000004
 31
0.0
  0
LINE
  5
83
330
17
100
AcDbEntity
  8
0
100
AcDbLine
 10
669.84
 20
-309.06100000000004
 30
0.0
 11
674.7950000000001
 21
-303.36600000000004
 31
0.0
  0
LINE
  5
84
330
17
100
AcDbEntity
  8
0
100
AcDbLine
 10
674.7950000000001
 20
-303.36600000000004
 30
0.0
 11
679.868
 21
-298.617
 31
0.0
  0
LINE
  5
85
330
17
100
AcDbEntity
  8
0
100
AcDbLine
 10
679.868
 20
-298.617
 30
0.0
 11
684.8720000000001
 21
-294.74
 31
0.0
  0
LINE
  5
86
330
17
100
AcDbEntity
  8
0
100
AcDbLine
 10
684.8720000000001
 20
-294.74
 30
0.0
 11
689.6200000000001
 21
-291.66200000000003
 31
0.0
  0
LINE
  5
87
330
17
100
AcDbEntity
  8
0
100
AcDbLine
 10
689.6200000000001
 20
-291.66200000000003
 30
0.0
 11
697.5990000000002
 21
-287.60800000000006
 31
0.0
  0
LINE
  5
88
330
17
100
AcDbEntity
  8
0
100
AcDbLine
 10
697.5990000000002
 20
-287.60800000000006
 30
0.0
 11
702.3060000000002
 21
-285.86300000000006
 31
0.0
  0
LINE
  5
89
330
17
100
AcDbEntity
  8
0
100
AcDbLine
 10
702.3060000000002
 20
-285.86300000000006
 30
0.0
 11
702.9650000000001
 21
-285.67300000000006
 31
0.0
  0
LINE
  5
8A
330
17
100
AcDbEntity
  8
0
100
AcDbLine
 10
702.9650000000001
 20
-285.67300000000006
 30
0.0
 11
560.0420000000001
 21
-285.71100000000007
 31
0.0
  0
LINE
  5
8B
330
17
100
AcDbEntity
  8
0
100
AcDbLine
 10
560.0420000000001
 20
-285.71100000000007
 30
0.0
 11
559.3170000000001
 21
-285.82200000000006
 31
0.0
  0
LINE
  5
8C
330
17
100
AcDbEntity
  8
0
100
AcDbLine
 10
559.3170000000001
 20
-285.82200000000006
 30
0.0
 11
558.6170000000001
 21
-286.00200000000007
 31
0.0
  0
LINE
  5
8D
330
17
100
AcDbEntity
  8
0
100
AcDbLine
 10
558.6170000000001
 20
-286.00200000000007
 30
0.0
 11
557.946
 21
-286.24800000000005
 31
0.0
  0
LINE
  5
8E
330
17
100
AcDbEntity
  8
0
100
AcDbLine
 10
557.946
 20
-286.24800000000005
 30
0.0
 11
557.308
 21
-286.55600000000004
 31
0.0
  0
LINE
  5
8F
330
17
100
AcDbEntity
  8
0
100
AcDbLine
 10
557.308
 20
-286.55600000000004
 30
0.0
 11
556.706
 21
-286.922
 31
0.0
  0
LINE
  5
90
330
17
100
AcDbEntity
  8
0
100
AcDbLine
 10
556.706
 20
-286.922
 30
0.0
 11
556.144
 21
-287.34200000000004
 31
0.0
  0
LINE
  5
91
330
17
100
AcDbEntity
  8
0
100
AcDbLine
 10
556.144
 20
-287.34200000000004
 30
0.0
 11
555.625
 21
-287.81300000000005
 31
0.0
  0
LINE
  5
92
330
17
100
AcDbEntity
  8
0
100
AcDbLine
 10
555.625
 20
-287.81300000000005
 30
0.0
 11
555.154
 21
-288.33200000000005
 31
0.0
  0
LINE
  5
93
330
17
100
AcDbEntity
  8
0
100
AcDbLine
 10
555.154
 20
-288.33200000000005
 30
0.0
 11
554.734
 21
-288.89400000000006
 31
0.0
  0
LINE
  5
94
330
17
100
AcDbEntity
  8
0
100
AcDbLine
 10
554.734
 20
-288.89400000000006
 30
0.0
 11
554.368
 21
-289.49600000000004
 31
0.0
  0
LINE
  5
95
330
17
100
AcDbEntity
  8
0
100
AcDbLine
 10
554.368
 20
-289.49600000000004
 30
0.0
 11
554.061
 21
-290.134
 31
0.0
  0
LINE
  5
96
330
17
100
AcDbEntity
  8
0
100
AcDbLine
 10
554.061
 20
-290.134
 30
0.0
 11
553.815
 21
-290.805
 31
0.0
  0
LINE
  5
97
330
17
100
AcDbEntity
  8
0
100
AcDbLine
 10
553.815
 20
-290.805
 30
0.0
 11
553.6350000000001
 21
-291.505
 31
0.0
  0
LINE
  5
98
330
17
100
AcDbEntity
  8
0
100
AcDbLine
 10
553.6350000000001
 20
-291.505
 30
0.0
 11
553.5240000000001
 21
-292.23
 31
0.0
  0
LINE
  5
99
330
17
100
AcDbEntity
  8
0
100
AcDbLine
 10
553.5240000000001
 20
-292.23
 30
0.0
 11
553.4480000000001
 21
-310.062
 31
0.0
  0
LINE
  5
9A
330
17
100
AcDbEntity
  8
0
100
AcDbLine
 10
553.4480000000001
 20
-310.062
 30
0.0
 11
553.3360000000001
 21
-310.796
 31
0.0
  0
LINE
  5
9B
330
17
100
AcDbEntity
  8
0
100
AcDbLine
 10
553.3360000000001
 20
-310.796
 30
0.0
 11
553.1540000000001
 21
-311.504
 31
0.0
  0
LINE
  5
9C
330
17
100
AcDbEntity
  8
0
100
AcDbLine
 10
553.1540000000001
 20
-311.504
 30
0.0
 11
552.9060000000001
 21
-312.183
 31
0.0
  0
LINE
  5
9D
330
17
100
AcDbEntity
  8
0
100
AcDbLine
 10
552.9060000000001
 20
-312.183
 30
0.0
 11
552.595
 21
-312.829
 31
0.0
  0
LINE
  5
9E
330
17
100
AcDbEntity
  8
0
100
AcDbLine
 10
552.595
 20
-312.829
 30
0.0
 11
552.225
 21
-313.438
 31
0.0
  0
LINE
  5
9F
330
17
100
AcDbEntity
  8
0
100
AcDbLine
 10
552.225
 20
-313.438
 30
0.0
 11
551.8000000000001
 21
-314.007
 31
0.0
  0
LINE
  5
A0
330
17
100
AcDbEntity
  8
0
100
AcDbLine
 10
551.8000000000001
 20
-314.007
 30
0.0
 11
551.3230000000001
 21
-314.532
 31
0.0
  0
LINE
  5
A1
330
17
100
AcDbEntity
  8
0
100
AcDbLine
 10
551.3230000000001
 20
-314.532
 30
0.0
 11
550.7980000000001
 21
-315.00899999999996
 31
0.0
  0
LINE
  5
A2
330
17
100
AcDbEntity
  8
0
100
AcDbLine
 10
550.7980000000001
 20
-315.00899999999996
 30
0.0
 11
550.2290000000002
 21
-315.43399999999997
 31
0.0
  0
LINE
  5
A3
330
17
100
AcDbEntity
  8
0
100
AcDbLine
 10
550.2290000000002
 20
-315.43399999999997
 30
0.0
 11
549.6200000000001
 21
-315.804
 31
0.0
  0
LINE
  5
A4
330
17
100
AcDbEntity
  8
0
100
AcDbLine
 10
549.6200000000001
 20
-315.804
 30
0.0
 11
548.9740000000002
 21
-316.11499999999995
 31
0.0
  0
LINE
  5
A5
330
17
100
AcDbEntity
  8
0
100
AcDbLine
 10
548.9740000000002
 20
-316.11499999999995
 30
0.0
 11
548.2950000000002
 21
-316.36299999999994
 31
0.0
  0
LINE
  5
A6
330
17
100
AcDbEntity
  8
0
100
AcDbLine
 10
548.2950000000002
 20
-316.36299999999994
 30
0.0
 11
547.5870000000002
 21
-316.54499999999996
 31
0.0
  0
LINE
  5
A7
330
17
100
AcDbEntity
  8
0
100
AcDbLine
 10
547.5870000000002
 20
-316.54499999999996
 30
0.0
 11
546.8530000000002
 21
-316.657
 31
0.0
  0
LINE
  5
A8
330
17
100
AcDbEntity
  8
0
100
AcDbLine
 10
546.8530000000002
 20
-316.657
 30
0.0
 11
493.23100000000017
 21
-316.659
 31
0.0
  0
LINE
  5
A9
330
17
100
AcDbEntity
  8
0
100
AcDbLine
 10
493.23100000000017
 20
-316.659
 30
0.0
 11
492.5400000000002
 21
-316.553
 31
0.0
  0
LINE
  5
AA
330
17
100
AcDbEntity
  8
0
100
AcDbLine
 10
492.5400000000002
 20
-316.553
 30
0.0
 11
491.8730000000002
 21
-316.381
 31
0.0
  0
LINE
  5
AB
330
17
100
AcDbEntity
  8
0
100
AcDbLine
 10
491.8730000000002
 20
-316.381
 30
0.0
 11
491.23300000000023
 21
-316.147
 31
0.0
  0
LINE
  5
AC
330
17
100
AcDbEntity
  8
0
100
AcDbLine
 10
491.23300000000023
 20
-316.147
 30
0.0
 11
490.62400000000025
 21
-315.854
 31
0.0
  0
LINE
  5
AD
330
17
100
AcDbEntity
  8
0
100
AcDbLine
 10
490.62400000000025
 20
-315.854
 30
0.0
 11
490.05000000000024
 21
-315.505
 31
0.0
  0
LINE
  5
AE
330
17
100
AcDbEntity
  8
0
100
AcDbLine
 10
490.05000000000024
 20
-315.505
 30
0.0
 11
489.51400000000024
 21
-315.104
 31
0.0
  0
LINE
  5
AF
330
17
100
AcDbEntity
  8
0
100
AcDbLine
 10
489.51400000000024
 20
-315.104
 30
0.0
 11
489.0200000000002
 21
-314.655
 31
0.0
  0
LINE
  5
B0
330
17
100
AcDbEntity
  8
0
100
AcDbLine
 10
489.0200000000002
 20
-314.655
 30
0.0
 11
488.5710000000002
 21
-314.15999999999997
 31
0.0
  0
LINE
  5
B1
330
17
100
AcDbEntity
  8
0
100
AcDbLine
 10
488.5710000000002
 20
-314.15999999999997
 30
0.0
 11
488.1700000000002
 21
-313.62399999999997
 31
0.0
  0
LINE
  5
B2
330
17
100
AcDbEntity
  8
0
100
AcDbLine
 10
488.1700000000002
 20
-313.62399999999997
 30
0.0
 11
487.8210000000002
 21
-313.04999999999995
 31
0.0
  0
LINE
  5
B3
330
17
100
AcDbEntity
  8
0
100
AcDbLine
 10
487.8210000000002
 20
-313.04999999999995
 30
0.0
 11
487.5280000000002
 21
-312.441
 31
0.0
  0
LINE
  5
B4
330
17
100
AcDbEntity
  8
0
100
AcDbLine
 10
487.5280000000002
 20
-312.441
 30
0.0
 11
487.2940000000002
 21
-311.801
 31
0.0
  0
LINE
  5
B5
330
17
100
AcDbEntity
  8
0
100
AcDbLine
 10
487.2940000000002
 20
-311.801
 30
0.0
 11
487.1220000000002
 21
-311.134
 31
0.0
  0
LINE
  5
B6
330
17
100
AcDbEntity
  8
0
100
AcDbLine
 10
487.1220000000002
 20
-311.134
 30
0.0
 11
487.0160000000002
 21
-310.44300000000004
 31
0.0
  0
LINE
  5
B7
330
17
100
AcDbEntity
  8
0
100
AcDbLine
 10
487.0160000000002
 20
-310.44300000000004
 30
0.0
 11
486.9440000000002
 21
-291.956
 31
0.0
  0
LINE
  5
B8
330
17
100
AcDbEntity
  8
0
100
AcDbLine
 10
486.9440000000002
 20
-291.956
 30
0.0
 11
486.8380000000002
 21
-291.261
 31
0.0
  0
LINE
  5
B9
330
17
100
AcDbEntity
  8
0
100
AcDbLine
 10
486.8380000000002
 20
-291.261
 30
0.0
 11
486.6650000000002
 21
-290.59000000000003
 31
0.0
  0
LINE
  5
BA
330
17
100
AcDbEntity
  8
0
100
AcDbLine
 10
486.6650000000002
 20
-290.59000000000003
 30
0.0
 11
486.4300000000002
 21
-289.94700000000006
 31
0.0
  0
LINE
  5
BB
330
17
100
AcDbEntity
  8
0
100
AcDbLine
 10
486.4300000000002
 20
-289.94700000000006
 30
0.0
 11
486.13500000000016
 21
-289.33500000000004
 31
0.0
  0
LINE
  5
BC
330
17
100
AcDbEntity
  8
0
100
AcDbLine
 10
486.13500000000016
 20
-289.33500000000004
 30
0.0
 11
485.78400000000016
 21
-288.75800000000004
 31
0.0
  0
LINE
  5
BD
330
17
100
AcDbEntity
  8
0
100
AcDbLine
 10
485.78400000000016
 20
-288.75800000000004
 30
0.0
 11
485.38100000000014
 21
-288.21900000000005
 31
0.0
  0
LINE
  5
BE
330
17
100
AcDbEntity
  8
0
100
AcDbLine
 10
485.38100000000014
 20
-288.21900000000005
 30
0.0
 11
484.92900000000014
 21
-287.72200000000004
 31
0.0
  0
LINE
  5
BF
330
17
100
AcDbEntity
  8
0
100
AcDbLine
 10
484.92900000000014
 20
-287.72200000000004
 30
0.0
 11
484.43200000000013
 21
-287.27000000000004
 31
0.0
  0
LINE
  5
C0
330
17
100
AcDbEntity
  8
0
100
AcDbLine
 10
484.43200000000013
 20
-287.27000000000004
 30
0.0
 11
483.89300000000014
 21
-286.867
 31
0.0
  0
LINE
  5
C1
330
17
100
AcDbEntity
  8
0
100
AcDbLine
 10
483.89300000000014
 20
-286.867
 30
0.0
 11
483.31600000000014
 21
-286.516
 31
0.0
  0
LINE
  5
C2
330
17
100
AcDbEntity
  8
0
100
AcDbLine
 10
483.31600000000014
 20
-286.516
 30
0.0
 11
482.7040000000001
 21
-286.221
 31
0.0
  0
LINE
  5
C3
330
17
100
AcDbEntity
  8
0
100
AcDbLine
 10
482.7040000000001
 20
-286.221
 30
0.0
 11
482.06100000000015
 21
-285.986
 31
0.0
  0
LINE
  5
C4
330
17
100
AcDbEntity
  8
0
100
AcDbLine
 10
482.06100000000015
 20
-285.986
 30
0.0
 11
481.39000000000016
 21
-285.81399999999996
 31
0.0
  0
LINE
  5
C5
330
17
100
AcDbEntity
  8
0
100
AcDbLine
 10
481.39000000000016
 20
-285.81399999999996
 30
0.0
 11
480.69500000000016
 21
-285.70799999999997
 31
0.0
  0
LINE
  5
C6
330
17
100
AcDbEntity
  8
0
100
AcDbLine
 10
480.69500000000016
 20
-285.70799999999997
 30
0.0
 11
389.95700000000016
 21
-285.67199999999997
 31
0.0
  0
LINE
  5
C7
330
17
100
AcDbEntity
  8
0
100
AcDbLine
 10
389.95700000000016
 20
-285.67199999999997
 30
0.0
 11
390.34200000000016
 21
-286.18699999999995
 31
0.0
  0
LINE
  5
C8
330
17
100
AcDbEntity
  8
0
100
AcDbLine
 10
390.34200000000016
 20
-286.18699999999995
 30
0.0
 11
391.1100000000001
 21
-287.46
 31
0.0
  0
LINE
  5
C9
330
17
100
AcDbEntity
  8
0
100
AcDbLine
 10
391.1100000000001
 20
-287.46
 30
0.0
 11
392.62900000000013
 21
-290.852
 31
0.0
  0
LINE
  5
CA
330
17
100
AcDbEntity
  8
0
100
AcDbLine
 10
392.62900000000013
 20
-290.852
 30
0.0
 11
395.5070000000001
 21
-300.027
 31
0.0
  0
LINE
  5
CB
330
17
100
AcDbEntity
  8
0
100
AcDbLine
 10
395.5070000000001
 20
-300.027
 30
0.0
 11
400.35200000000015
 21
-321.988
 31
0.0
  0
LINE
  5
CC
330
17
100
AcDbEntity
  8
0
100
AcDbLine
 10
400.35200000000015
 20
-321.988
 30
0.0
 11
400.59200000000016
 21
-322.628
 31
0.0
  0
LINE
  5
CD
330
17
100
AcDbEntity
  8
0
100
AcDbLine
 10
400.59200000000016
 20
-322.628
 30
0.0
 11
400.8840000000001
 21
-323.238
 31
0.0
  0
LINE
  5
CE
330
17
100
AcDbEntity
  8
0
100
AcDbLine
 10
400.8840000000001
 20
-323.238
 30
0.0
 11
401.22500000000014
 21
-323.816
 31
0.0
  0
LINE
  5
CF
330
17
100
AcDbEntity
  8
0
100
AcDbLine
 10
401.22500000000014
 20
-323.816
 30
0.0
 11
401.6130000000001
 21
-324.35999999999996
 31
0.0
  0
LINE
  5
D0
330
17
100
AcDbEntity
  8
0
100
AcDbLine
 10
401.6130000000001
 20
-324.35999999999996
 30
0.0
 11
402.0440000000001
 21
-324.86699999999996
 31
0.0
  0
LINE
  5
D1
330
17
100
AcDbEntity
  8
0
100
AcDbLine
 10
402.0440000000001
 20
-324.86699999999996
 30
0.0
 11
402.5150000000001
 21
-325.33399999999995
 31
0.0
  0
LINE
  5
D2
330
17
100
AcDbEntity
  8
0
100
AcDbLine
 10
402.5150000000001
 20
-325.33399999999995
 30
0.0
 11
403.0230000000001
 21
-325.75899999999996
 31
0.0
  0
LINE
  5
D3
330
17
100
AcDbEntity
  8
0
100
AcDbLine
 10
403.0230000000001
 20
-325.75899999999996
 30
0.0
 11
403.5660000000001
 21
-326.13899999999995
 31
0.0
  0
LINE
  5
D4
330
17
100
AcDbEntity
  8
0
100
AcDbLine
 10
403.5660000000001
 20
-326.13899999999995
 30
0.0
 11
404.1410000000001
 21
-326.472
 31
0.0
  0
LINE
  5
D5
330
17
100
AcDbEntity
  8
0
100
AcDbLine
 10
404.1410000000001
 20
-326.472
 30
0.0
 11
404.7440000000001
 21
-326.755
 31
0.0
  0
LINE
  5
D6
330
17
100
AcDbEntity
  8
0
100
AcDbLine
 10
404.7440000000001
 20
-326.755
 30
0.0
 11
405.3730000000001
 21
-326.986
 31
0.0
  0
LINE
  5
D7
330
17
100
AcDbEntity
  8
0
100
AcDbLine
 10
405.3730000000001
 20
-326.986
 30
0.0
 11
406.0250000000001
 21
-327.162
 31
0.0
  0
LINE
  5
D8
330
17
100
AcDbEntity
  8
0
100
AcDbLine
 10
406.0250000000001
 20
-327.162
 30
0.0
 11
406.6970000000001
 21
-327.281
 31
0.0
  0
LINE
  5
D9
330
17
100
AcDbEntity
  8
0
100
AcDbLine
 10
406.6970000000001
 20
-327.281
 30
0.0
 11
431.8680000000001
 21
-328.686
 31
0.0
  0
LINE
  5
DA
330
17
100
AcDbEntity
  8
0
100
AcDbLine
 10
431.8680000000001
 20
-328.686
 30
0.0
 11
445.5150000000001
 21
-331.031
 31
0.0
  0
LINE
  5
DB
330
17
100
AcDbEntity
  8
0
100
AcDbLine
 10
445.5150000000001
 20
-331.031
 30
0.0
 11
457.3580000000001
 21
-334.334
 31
0.0
  0
LINE
  5
DC
330
17
100
AcDbEntity
  8
0
100
AcDbLine
 10
457.3580000000001
 20
-334.334
 30
0.0
 11
467.5240000000001
 21
-338.423
 31
0.0
  0
LINE
  5
DD
330
17
100
AcDbEntity
  8
0
100
AcDbLine
 10
467.5240000000001
 20
-338.423
 30
0.0
 11
476.14100000000013
 21
-343.124
 31
0.0
  0
LINE
  5
DE
330
17
100
AcDbEntity
  8
0
100
AcDbLine
 10
476.14100000000013
 20
-343.124
 30
0.0
 11
483.33700000000016
 21
-348.26300000000003
 31
0.0
  0
LINE
  5
DF
330
17
100
AcDbEntity
  8
0
100
AcDbLine
 10
483.33700000000016
 20
-348.26300000000003
 30
0.0
 11
489.23900000000015
 21
-353.668
 31
0.0
  0
LINE
  5
E0
330
17
100
AcDbEntity
  8
0
100
AcDbLine
 10
489.23900000000015
 20
-353.668
 30
0.0
 11
493.97600000000017
 21
-359.165
 31
0.0
  0
LINE
  5
E1
330
17
100
AcDbEntity
  8
0
100
AcDbLine
 10
493.97600000000017
 20
-359.165
 30
0.0
 11
497.67400000000015
 21
-364.58000000000004
 31
0.0
  0
LINE
  5
E2
330
17
100
AcDbEntity
  8
0
100
AcDbLine
 10
497.67400000000015
 20
-364.58000000000004
 30
0.0
 11
500.46200000000016
 21
-369.74100000000004
 31
0.0
  0
LINE
  5
E3
330
17
100
AcDbEntity
  8
0
100
AcDbLine
 10
500.46200000000016
 20
-369.74100000000004
 30
0.0
 11
502.46700000000016
 21
-374.47400000000005
 31
0.0
  0
LINE
  5
E4
330
17
100
AcDbEntity
  8
0
100
AcDbLine
 10
502.46700000000016
 20
-374.47400000000005
 30
0.0
 11
503.8170000000002
 21
-378.605
 31
0.0
  0
LINE
  5
E5
330
17
100
AcDbEntity
  8
0
100
AcDbLine
 10
503.8170000000002
 20
-378.605
 30
0.0
 11
505.0610000000002
 21
-384.37
 31
0.0
  0
LINE
  5
E6
330
17
100
AcDbEntity
  8
0
100
AcDbLine
 10
505.0610000000002
 20
-384.37
 30
0.0
 11
505.2240000000002
 21
-385.826
 31
0.0
  0
LINE
  5
E7
330
17
100
AcDbEntity
  8
0
100
AcDbLine
 10
505.2240000000002
 20
-385.826
 30
0.0
 11
530.0700000000002
 21
-378.91
 31
0.0
  0
LINE
  5
E8
330
17
100
AcDbEntity
  8
0
100
AcDbLine
 10
530.0700000000002
 20
-378.91
 30
0.0
 11
531.1470000000002
 21
-379.761
 31
0.0
  0
LINE
  5
E9
330
17
100
AcDbEntity
  8
0
100
AcDbLine
 10
531.1470000000002
 20
-379.761
 30
0.0
 11
532.1500000000002
 21
-380.699
 31
0.0
  0
LINE
  5
EA
330
17
100
AcDbEntity
  8
0
100
AcDbLine
 10
532.1500000000002
 20
-380.699
 30
0.0
 11
533.0820000000002
 21
-381.717
 31
0.0
  0
LINE
  5
EB
330
17
100
AcDbEntity
  8
0
100
AcDbLine
 10
533.0820000000002
 20
-381.717
 30
0.0
 11
534.7430000000002
 21
-383.962
 31
0.0
  0
LINE
  5
EC
330
17
100
AcDbEntity
  8
0
100
AcDbLine
 10
534.7430000000002
 20
-383.962
 30
0.0
 11
536.1510000000002
 21
-386.436
 31
0.0
  0
LINE
  5
ED
330
17
100
AcDbEntity
  8
0
100
AcDbLine
 10
536.1510000000002
 20
-386.436
 30
0.0
 11
537.3260000000001
 21
-389.078
 31
0.0
  0
LINE
  5
EE
330
17
100
AcDbEntity
  8
0
100
AcDbLine
 10
537.3260000000001
 20
-389.078
 30
0.0
 11
539.0620000000001
 21
-394.63
 31
0.0
  0
LINE
  5
EF
330
17
100
AcDbEntity
  8
0
100
AcDbLine
 10
539.0620000000001
 20
-394.63
 30
0.0
 11
540.1160000000001
 21
-400.139
 31
0.0
  0
LINE
  5
F0
330
17
100
AcDbEntity
  8
0
100
AcDbLine
 10
540.1160000000001
 20
-400.139
 30
0.0
 11
540.8430000000001
 21
-409.111
 31
0.0
  0
LINE
  5
F1
330
17
100
AcDbEntity
  8
0
100
AcDbLine
 10
540.8430000000001
 20
-409.111
 30
0.0
 11
540.8290000000001
 21
-412.234
 31
0.0
  0
LINE
  5
F2
330
17
100
AcDbEntity
  8
0
100
AcDbLine
 10
540.8290000000001
 20
-412.234
 30
0.0
 11
519.3130000000001
 21
-419.381
 31
0.0
  0
LINE
  5
F3
330
17
100
AcDbEntity
  8
0
100
AcDbLine
 10
519.3130000000001
 20
-419.381
 30
0.0
 11
568.527
 21
-557.669
 31
0.0
  0
LINE
  5
F4
330
17
100
AcDbEntity
  8
0
100
AcDbLine
 10
568.527
 20
-557.669
 30
0.0
 11
568.791
 21
-558.213
 31
0.0
  0
LINE
  5
F5
330
17
100
AcDbEntity
  8
0
100
AcDbLine
 10
568.791
 20
-558.213
 30
0.0
 11
569.0920000000001
 21
-558.732
 31
0.0
  0
LINE
  5
F6
330
17
100
AcDbEntity
  8
0
100
AcDbLine
 10
569.0920000000001
 20
-558.732
 30
0.0
 11
569.4280000000001
 21
-559.225
 31
0.0
  0
LINE
  5
F7
330
17
100
AcDbEntity
  8
0
100
AcDbLine
 10
569.4280000000001
 20
-559.225
 30
0.0
 11
569.7970000000001
 21
-559.69
 31
0.0
  0
LINE
  5
F8
330
17
100
AcDbEntity
  8
0
100
AcDbLine
 10
569.7970000000001
 20
-559.69
 30
0.0
 11
570.1970000000001
 21
-560.1260000000001
 31
0.0
  0
LINE
  5
F9
330
17
100
AcDbEntity
  8
0
100
AcDbLine
 10
570.1970000000001
 20
-560.1260000000001
 30
0.0
 11
570.6260000000001
 21
-560.5310000000001
 31
0.0
  0
LINE
  5
FA
330
17
100
AcDbEntity
  8
0
100
AcDbLine
 10
570.6260000000001
 20
-560.5310000000001
 30
0.0
 11
571.0820000000001
 21
-560.9040000000001
 31
0.0
  0
LINE
  5
FB
330
17
100
AcDbEntity
  8
0
100
AcDbLine
 10
571.0820000000001
 20
-560.9040000000001
 30
0.0
 11
571.5640000000001
 21
-561.2430000000002
 31
0.0
  0
LINE
  5
FC
330
17
100
AcDbEntity
  8
0
100
AcDbLine
 10
571.5640000000001
 20
-561.2430000000002
 30
0.0
 11
572.0690000000001
 21
-561.5480000000001
 31
0.0
  0
LINE
  5
FD
330
17
100
AcDbEntity
  8
0
100
AcDbLine
 10
572.0690000000001
 20
-561.5480000000001
 30
0.0
 11
572.5960000000001
 21
-561.8160000000001
 31
0.0
  0
LINE
  5
FE
330
17
100
AcDbEntity
  8
0
100
AcDbLine
 10
572.5960000000001
 20
-561.8160000000001
 30
0.0
 11
573.1430000000001
 21
-562.0470000000001
 31
0.0
  0
LINE
  5
FF
330
17
100
AcDbEntity
  8
0
100
AcDbLine
 10
573.1430000000001
 20
-562.0470000000001
 30
0.0
 11
573.7080000000002
 21
-562.2380000000002
 31
0.0
  0
LINE
  5
100
330
17
100
AcDbEntity
  8
0
100
AcDbLine
 10
573.7080000000002
 20
-562.2380000000002
 30
0.0
 11
574.2890000000002
 21
-562.3890000000001
 31
0.0
  0
LINE
  5
101
330
17
100
AcDbEntity
  8
0
100
AcDbLine
 10
574.2890000000002
 20
-562.3890000000001
 30
0.0
 11
574.8840000000002
 21
-562.4980000000002
 31
0.0
  0
LINE
  5
102
330
17
100
AcDbEntity
  8
0
100
AcDbLine
 10
574.8840000000002
 20
-562.4980000000002
 30
0.0
 11
598.1070000000002
 21
-562.6920000000001
 31
0.0
  0
LINE
  5
103
330
17
100
AcDbEntity
  8
0
100
AcDbLine
 10
598.1070000000002
 20
-562.6920000000001
 30
0.0
 11
707.0890000000002
 21
-550.4440000000001
 31
0.0
  0
LINE
  5
104
330
17
100
AcDbEntity
  8
0
100
AcDbLine
 10
707.0890000000002
 20
-550.4440000000001
 30
0.0
 11
709.4050000000002
 21
-550.3510000000001
 31
0.0
  0
LINE
  5
105
330
17
100
AcDbEntity
  8
0
100
AcDbLine
 10
709.4050000000002
 20
-550.3510000000001
 30
0.0
 11
711.6980000000002
 21
-550.5210000000001
 31
0.0
  0
LINE
  5
106
330
17
100
AcDbEntity
  8
0
100
AcDbLine
 10
711.6980000000002
 20
-550.5210000000001
 30
0.0
 11
713.9470000000002
 21
-550.9480000000001
 31
0.0
  0
LINE
  5
107
330
17
100
AcDbEntity
  8
0
100
AcDbLine
 10
713.9470000000002
 20
-550.9480000000001
 30
0.0
 11
716.1300000000002
 21
-551.6250000000001
 31
0.0
  0
LINE
  5
108
330
17
100
AcDbEntity
  8
0
100
AcDbLine
 10
716.1300000000002
 20
-551.6250000000001
 30
0.0
 11
718.2260000000002
 21
-552.5450000000001
 31
0.0
  0
LINE
  5
109
330
17
100
AcDbEntity
  8
0
100
AcDbLine
 10
718.2260000000002
 20
-552.5450000000001
 30
0.0
 11
720.2140000000003
 21
-553.701
 31
0.0
  0
LINE
  5
10A
330
17
100
AcDbEntity
  8
0
100
AcDbLine
 10
720.2140000000003
 20
-553.701
 30
0.0
 11
722.0720000000002
 21
-555.087
 31
0.0
  0
LINE
  5
10B
330
17
100
AcDbEntity
  8
0
100
AcDbLine
 10
722.0720000000002
 20
-555.087
 30
0.0
 11
726.0060000000002
 21
-558.747
 31
0.0
  0
LINE
  5
10C
330
17
100
AcDbEntity
  8
0
100
AcDbLine
 10
726.0060000000002
 20
-558.747
 30
0.0
 11
726.1680000000002
 21
-558.9599999999999
 31
0.0
  0
LINE
  5
10D
330
17
100
AcDbEntity
  8
0
100
AcDbLine
 10
726.1680000000002
 20
-558.9599999999999
 30
0.0
 11
726.3420000000002
 21
-559.151
 31
0.0
  0
LINE
  5
10E
330
17
100
AcDbEntity
  8
0
100
AcDbLine
 10
726.3420000000002
 20
-559.151
 30
0.0
 11
726.5260000000002
 21
-559.3199999999999
 31
0.0
  0
LINE
  5
10F
330
17
100
AcDbEntity
  8
0
100
AcDbLine
 10
726.5260000000002
 20
-559.3199999999999
 30
0.0
 11
726.7190000000002
 21
-559.468
 31
0.0
  0
LINE
  5
110
330
17
100
AcDbEntity
  8
0
100
AcDbLine
 10
726.7190000000002
 20
-559.468
 30
0.0
 11
726.9190000000002
 21
-559.596
 31
0.0
  0
LINE
  5
111
330
17
100
AcDbEntity
  8
0
100
AcDbLine
 10
726.9190000000002
 20
-559.596
 30
0.0
 11
727.1260000000002
 21
-559.703
 31
0.0
  0
LINE
  5
112
330
17
100
AcDbEntity
  8
0
100
AcDbLine
 10
727.1260000000002
 20
-559.703
 30
0.0
 11
727.3380000000002
 21
-559.7909999999999
 31
0.0
  0
LINE
  5
113
330
17
100
AcDbEntity
  8
0
100
AcDbLine
 10
727.3380000000002
 20
-559.7909999999999
 30
0.0
 11
727.5550000000002
 21
-559.8589999999999
 31
0.0
  0
LINE
  5
114
330
17
100
AcDbEntity
  8
0
100
AcDbLine
 10
727.5550000000002
 20
-559.8589999999999
 30
0.0
 11
727.7750000000002
 21
-559.9079999999999
 31
0.0
  0
LINE
  5
115
330
17
100
AcDbEntity
  8
0
100
AcDbLine
 10
727.7750000000002
 20
-559.9079999999999
 30
0.0
 11
727.9970000000002
 21
-559.9389999999999
 31
0.0
  0
LINE
  5
116
330
17
100
AcDbEntity
  8
0
100
AcDbLine
 10
727.9970000000002
 20
-559.9389999999999
 30
0.0
 11
728.2200000000001
 21
-559.9519999999999
 31
0.0
  0
LINE
  5
117
330
17
100
AcDbEntity
  8
0
100
AcDbLine
 10
728.2200000000001
 20
-559.9519999999999
 30
0.0
 11
728.4430000000001
 21
-559.9469999999999
 31
0.0
  0
LINE
  5
118
330
17
100
AcDbEntity
  8
0
100
AcDbLine
 10
728.4430000000001
 20
-559.9469999999999
 30
0.0
 11
728.6640000000001
 21
-559.9249999999998
 31
0.0
  0
LINE
  5
119
330
17
100
AcDbEntity
  8
0
100
AcDbLine
 10
728.6640000000001
 20
-559.9249999999998
 30
0.0
 11
728.8830000000002
 21
-559.8859999999999
 31
0.0
  0
LINE
  5
11A
330
17
100
AcDbEntity
  8
0
100
AcDbLine
 10
728.8830000000002
 20
-559.8859999999999
 30
0.0
 11
729.0980000000002
 21
-559.8309999999999
 31
0.0
  0
LINE
  5
11B
330
17
100
AcDbEntity
  8
0
100
AcDbLine
 10
729.0980000000002
 20
-559.8309999999999
 30
0.0
 11
729.3080000000002
 21
-559.7599999999999
 31
0.0
  0
LINE
  5
11C
330
17
100
AcDbEntity
  8
0
100
AcDbLine
 10
729.3080000000002
 20
-559.7599999999999
 30
0.0
 11
729.5120000000002
 21
-559.6739999999999
 31
0.0
  0
LINE
  5
11D
330
17
100
AcDbEntity
  8
0
100
AcDbLine
 10
729.5120000000002
 20
-559.6739999999999
 30
0.0
 11
729.7090000000002
 21
-559.5719999999999
 31
0.0
  0
LINE
  5
11E
330
17
100
AcDbEntity
  8
0
100
AcDbLine
 10
729.7090000000002
 20
-559.5719999999999
 30
0.0
 11
729.8980000000001
 21
-559.4559999999999
 31
0.0
  0
LINE
  5
11F
330
17
100
AcDbEntity
  8
0
100
AcDbLine
 10
729.8980000000001
 20
-559.4559999999999
 30
0.0
 11
730.0780000000001
 21
-559.3259999999999
 31
0.0
  0
LINE
  5
120
330
17
100
AcDbEntity
  8
0
100
AcDbLine
 10
730.0780000000001
 20
-559.3259999999999
 30
0.0
 11
730.2470000000001
 21
-559.1819999999999
 31
0.0
  0
LINE
  5
121
330
17
100
AcDbEntity
  8
0
100
AcDbLine
 10
730.2470000000001
 20
-559.1819999999999
 30
0.0
 11
730.4050000000001
 21
-559.0249999999999
 31
0.0
  0
LINE
  5
122
330
17
100
AcDbEntity
  8
0
100
AcDbLine
 10
730.4050000000001
 20
-559.0249999999999
 30
0.0
 11
730.5500000000001
 21
-558.8549999999999
 31
0.0
  0
LINE
  5
123
330
17
100
AcDbEntity
  8
0
100
AcDbLine
 10
730.5500000000001
 20
-558.8549999999999
 30
0.0
 11
730.681
 21
-558.6719999999999
 31
0.0
  0
LINE
  5
124
330
17
100
AcDbEntity
  8
0
100
AcDbLine
 10
730.681
 20
-558.6719999999999
 30
0.0
 11
730.797
 21
-558.4769999999999
 31
0.0
  0
LINE
  5
125
330
17
100
AcDbEntity
  8
0
100
AcDbLine
 10
730.797
 20
-558.4769999999999
 30
0.0
 11
730.897
 21
-558.2709999999998
 31
0.0
  0
LINE
  5
126
330
17
100
AcDbEntity
  8
0
100
AcDbLine
 10
730.897
 20
-558.2709999999998
 30
0.0
 11
730.979
 21
-558.0539999999999
 31
0.0
  0
LINE
  5
127
330
17
100
AcDbEntity
  8
0
100
AcDbLine
 10
730.979
 20
-558.0539999999999
 30
0.0
 11
731.043
 21
-557.8259999999999
 31
0.0
  0
LINE
  5
128
330
17
100
AcDbEntity
  8
0
100
AcDbLine
 10
731.043
 20
-557.8259999999999
 30
0.0
 11
731.087
 21
-557.5869999999999
 31
0.0
  0
LINE
  5
129
330
17
100
AcDbEntity
  8
0
100
AcDbLine
 10
731.087
 20
-557.5869999999999
 30
0.0
 11
731.11
 21
-557.3389999999998
 31
0.0
  0
LINE
  5
12A
330
17
100
AcDbEntity
  8
0
100
AcDbLine
 10
731.11
 20
-557.3389999999998
 30
0.0
 11
731.112
 21
-557.0809999999998
 31
0.0
  0
LINE
  5
12B
330
17
100
AcDbEntity
  8
0
100
AcDbLine
 10
731.112
 20
-557.0809999999998
 30
0.0
 11
730.168
 21
-551.2039999999998
 31
0.0
  0
LINE
  5
12C
330
17
100
AcDbEntity
  8
0
100
AcDbLine
 10
730.168
 20
-551.2039999999998
 30
0.0
 11
728.413
 21
-544.5239999999999
 31
0.0
  0
LINE
  5
12D
330
17
100
AcDbEntity
  8
0
100
AcDbLine
 10
728.413
 20
-544.5239999999999
 30
0.0
 11
726.048
 21
-537.9519999999999
 31
0.0
  0
LINE
  5
12E
330
17
100
AcDbEntity
  8
0
100
AcDbLine
 10
726.048
 20
-537.9519999999999
 30
0.0
 11
719.892
 21
-525.1999999999999
 31
0.0
  0
LINE
  5
12F
330
17
100
AcDbEntity
  8
0
100
AcDbLine
 10
719.892
 20
-525.1999999999999
 30
0.0
 11
707.6350000000001
 21
-505.9049999999999
 31
0.0
  0
ENDSEC
  0
SECTION
  2
OBJECTS
  0
DICTIONARY
  5
A
330
0
100
AcDbDictionary
281
1
  3
ACAD_COLOR
350
B
  3
ACAD_GROUP
350
C
  3
ACAD_LAYOUT
350
D
  3
ACAD_MATERIAL
350
E
  3
ACAD_MLEADERSTYLE
350
F
  3
ACAD_MLINESTYLE
350
10
  3
ACAD_PLOTSETTINGS
350
11
  3
ACAD_PLOTSTYLENAME
350
12
  3
ACAD_SCALELIST
350
14
  3
ACAD_TABLESTYLE
350
15
  3
ACAD_VISUALSTYLE
350
16
  3
EZDXF_META
350
2D
  0
DICTIONARY
  5
B
330
A
100
AcDbDictionary
281
1
  0
DICTIONARY
  5
C
330
A
100
AcDbDictionary
281
1
  0
DICTIONARY
  5
D
330
A
100
AcDbDictionary
281
1
  3
Model
350
1A
  3
Layout1
350
1E
  0
DICTIONARY
  5
E
330
A
100
AcDbDictionary
281
1
  3
ByBlock
350
1F
  3
ByLayer
350
20
  3
Global
350
21
  0
DICTIONARY
  5
F
330
A
100
AcDbDictionary
281
1
  3
Standard
350
2C
  0
DICTIONARY
  5
10
330
A
100
AcDbDictionary
281
1
  3
Standard
350
22
  0
DICTIONARY
  5
11
330
A
100
AcDbDictionary
281
1
  0
ACDBDICTIONARYWDFLT
  5
12
330
A
100
AcDbDictionary
281
1
  3
Normal
350
13
100
AcDbDictionaryWithDefault
340
13
  0
ACDBPLACEHOLDER
  5
13
330
12
  0
DICTIONARY
  5
14
330
A
100
AcDbDictionary
281
1
  0
DICTIONARY
  5
15
330
A
100
AcDbDictionary
281
1
  0
DICTIONARY
  5
16
330
A
100
AcDbDictionary
281
1
  0
LAYOUT
  5
1A
330
D
100
AcDbPlotSettings
  1

  4
A3
  6

 40
7.5
 41
20.0
 42
7.5
 43
20.0
 44
420.0
 45
297.0
 46
0.0
 47
0.0
 48
0.0
 49
0.0
140
0.0
141
0.0
142
1.0
143
1.0
 70
1024
 72
1
 73
0
 74
5
  7

 75
16
 76
0
 77
2
 78
300
147
1.0
148
0.0
149
0.0
100
AcDbLayout
  1
Model
 70
1
 71
0
 10
0.0
 20
0.0
 11
420.0
 21
297.0
 12
0.0
 22
0.0
 32
0.0
 14
1e+20
 24
1e+20
 34
1e+20
 15
-1e+20
 25
-1e+20
 35
-1e+20
146
0.0
 13
0.0
 23
0.0
 33
0.0
 16
1.0
 26
0.0
 36
0.0
 17
0.0
 27
1.0
 37
0.0
 76
1
330
17
  0
LAYOUT
  5
1E
330
D
100
AcDbPlotSettings
  1

  4
A3
  6

 40
7.5
 41
20.0
 42
7.5
 43
20.0
 44
420.0
 45
297.0
 46
0.0
 47
0.0
 48
0.0
 49
0.0
140
0.0
141
0.0
142
1.0
143
1.0
 70
0
 72
1
 73
0
 74
5
  7

 75
16
 76
0
 77
2
 78
300
147
1.0
148
0.0
149
0.0
100
AcDbLayout
  1
Layout1
 70
1
 71
1
 10
0.0
 20
0.0
 11
420.0
 21
297.0
 12
0.0
 22
0.0
 32
0.0
 14
1e+20
 24
1e+20
 34
1e+20
 15
-1e+20
 25
-1e+20
 35
-1e+20
146
0.0
 13
0.0
 23
0.0
 33
0.0
 16
1.0
 26
0.0
 36
0.0
 17
0.0
 27
1.0
 37
0.0
 76
1
330
1B
  0
MATERIAL
  5
1F
102
{ACAD_REACTORS
330
E
102
}
330
E
100
AcDbMaterial
  1
ByBlock
  2

 70
0
 40
1.0
 71
1
 41
1.0
 91
-1023410177
 42
1.0
 72
1
  3

 73
1
 74
1
 75
1
 44
0.5
 73
0
 45
1.0
 46
1.0
 77
1
  4

 78
1
 79
1
170
1
 48
1.0
171
1
  6

172
1
173
1
174
1
140
1.0
141
1.0
175
1
  7

176
1
177
1
178
1
143
1.0
179
1
  8

270
1
271
1
272
1
145
1.0
146
1.0
273
1
  9

274
1
275
1
276
1
 42
1.0
 72
1
  3

 73
1
 74
1
 75
1
 94
63
  0
MATERIAL
  5
20
102
{ACAD_REACTORS
330
E
102
}
330
E
100
AcDbMaterial
  1
ByLayer
  2

 70
0
 40
1.0
 71
1
 41
1.0
 91
-1023410177
 42
1.0
 72
1
  3

 73
1
 74
1
 75
1
 44
0.5
 73
0
 45
1.0
 46
1.0
 77
1
  4

 78
1
 79
1
170
1
 48
1.0
171
1
  6

172
1
173
1
174
1
140
1.0
141
1.0
175
1
  7

176
1
177
1
178
1
143
1.0
179
1
  8

270
1
271
1
272
1
145
1.0
146
1.0
273
1
  9

274
1
275
1
276
1
 42
1.0
 72
1
  3

 73
1
 74
1
 75
1
 94
63
  0
MATERIAL
  5
21
102
{ACAD_REACTORS
330
E
102
}
330
E
100
AcDbMaterial
  1
Global
  2

 70
0
 40
1.0
 71
1
 41
1.0
 91
-1023410177
 42
1.0
 72
1
  3

 73
1
 74
1
 75
1
 44
0.5
 73
0
 45
1.0
 46
1.0
 77
1
  4

 78
1
 79
1
170
1
 48
1.0
171
1
  6

172
1
173
1
174
1
140
1.0
141
1.0
175
1
  7

176
1
177
1
178
1
143
1.0
179
1
  8

270
1
271
1
272
1
145
1.0
146
1.0
273
1
  9

274
1
275
1
276
1
 42
1.0
 72
1
  3

 73
1
 74
1
 75
1
 94
63
  0
MLINESTYLE
  5
22
102
{ACAD_REACTORS
330
10
102
}
330
10
100
AcDbMlineStyle
  2
Standard
 70
0
  3

 62
256
 51
90.0
 52
90.0
 71
2
 49
0.5
 62
256
  6
BYLAYER
 49
-0.5
 62
256
  6
BYLAYER
  0
MLEADERSTYLE
  5
2C
102
{ACAD_REACTORS
330
F
102
}
330
F
100
AcDbMLeaderStyle
179
2
170
2
171
1
172
0
 90
2
 40
0.0
 41
0.0
173
1
 91
-1056964608
 92
-2
290
1
 42
2.0
291
1
 43
8.0
  3
Standard
 44
4.0
300

342
29
174
1
175
1
176
0
178
1
 93
-1056964608
 45
4.0
292
0
297
0
 46
4.0
 94
-1056964608
 47
1.0
 49
1.0
140
1.0
294
1
141
0.0
177
0
142
1.0
295
0
296
0
143
3.75
271
0
272
9
273
9
  0
DICTIONARY
  5
2D
330
A
100
AcDbDictionary
280
1
281
1
  3
CREATED_BY_EZDXF
350
2E
  3
WRITTEN_BY_EZDXF
350
132
  0
DICTIONARYVAR
  5
2E
330
2D
100
DictionaryVariables
280
0
  1
1.4.3 @ 2026-04-08T00:10:10.956965+00:00
  0
DICTIONARYVAR
  5
132
330
2D
100
DictionaryVariables
280
0
  1
1.4.3 @ 2026-04-08T00:10:10.959272+00:00
  0
ENDSEC
  0
EOF
