  0
SECTION
  2
HEADER
  9
$ACADVER
  1
AC1024
  9
$ACADMAINTVER
 70
6
  9
$DWGCODEPAGE
  3
ANSI_1252
  9
$LASTSAVEDBY
  1
ezdxf
  9
$INSBASE
 10
0.0
 20
0.0
 30
0.0
  9
$EXTMIN
 10
1e+20
 20
1e+20
 30
1e+20
  9
$EXTMAX
 10
-1e+20
 20
-1e+20
 30
-1e+20
  9
$LIMMIN
 10
0.0
 20
0.0
  9
$LIMMAX
 10
420.0
 20
297.0
  9
$ORTHOMODE
 70
0
  9
$REGENMODE
 70
1
  9
$FILLMODE
 70
1
  9
$QTEXTMODE
 70
0
  9
$MIRRTEXT
 70
1
  9
$LTSCALE
 40
1.0
  9
$ATTMODE
 70
1
  9
$TEXTSIZE
 40
2.5
  9
$TRACEWID
 40
1.0
  9
$TEXTSTYLE
  7
Standard
  9
$CLAYER
  8
0
  9
$CELTYPE
  6
ByLayer
  9
$CECOLOR
 62
256
  9
$CELTSCALE
 40
1.0
  9
$DISPSILH
 70
0
  9
$DIMSCALE
 40
1.0
  9
$DIMASZ
 40
2.5
  9
$DIMEXO
 40
0.625
  9
$DIMDLI
 40
3.75
  9
$DIMRND
 40
0.0
  9
$DIMDLE
 40
0.0
  9
$DIMEXE
 40
1.25
  9
$DIMTP
 40
0.0
  9
$DIMTM
 40
0.0
  9
$DIMTXT
 40
2.5
  9
$DIMCEN
 40
2.5
  9
$DIMTSZ
 40
0.0
  9
$DIMTOL
 70
0
  9
$DIMLIM
 70
0
  9
$DIMTIH
 70
0
  9
$DIMTOH
 70
0
  9
$DIMSE1
 70
0
  9
$DIMSE2
 70
0
  9
$DIMTAD
 70
1
  9
$DIMZIN
 70
8
  9
$DIMBLK
  1

  9
$DIMASO
 70
1
  9
$DIMSHO
 70
1
  9
$DIMPOST
  1

  9
$DIMAPOST
  1

  9
$DIMALT
 70
0
  9
$DIMALTD
 70
3
  9
$DIMALTF
 40
0.03937007874
  9
$DIMLFAC
 40
1.0
  9
$DIMTOFL
 70
1
  9
$DIMTVP
 40
0.0
  9
$DIMTIX
 70
0
  9
$DIMSOXD
 70
0
  9
$DIMSAH
 70
0
  9
$DIMBLK1
  1

  9
$DIMBLK2
  1

  9
$DIMSTYLE
  2
ISO-25
  9
$DIMCLRD
 70
0
  9
$DIMCLRE
 70
0
  9
$DIMCLRT
 70
0
  9
$DIMTFAC
 40
1.0
  9
$DIMGAP
 40
0.625
  9
$DIMJUST
 70
0
  9
$DIMSD1
 70
0
  9
$DIMSD2
 70
0
  9
$DIMTOLJ
 70
0
  9
$DIMTZIN
 70
8
  9
$DIMALTZ
 70
0
  9
$DIMALTTZ
 70
0
  9
$DIMUPT
 70
0
  9
$DIMDEC
 70
2
  9
$DIMTDEC
 70
2
  9
$DIMALTU
 70
2
  9
$DIMALTTD
 70
3
  9
$DIMTXSTY
  7
Standard
  9
$DIMAUNIT
 70
0
  9
$DIMADEC
 70
0
  9
$DIMALTRND
 40
0.0
  9
$DIMAZIN
 70
0
  9
$DIMDSEP
 70
44
  9
$DIMATFIT
 70
3
  9
$DIMFRAC
 70
0
  9
$DIMLDRBLK
  1

  9
$DIMLUNIT
 70
2
  9
$DIMLWD
 70
-2
  9
$DIMLWE
 70
-2
  9
$DIMTMOVE
 70
0
  9
$DIMFXL
 40
1.0
  9
$DIMFXLON
 70
0
  9
$DIMJOGANG
 40
0.785398163397
  9
$DIMTFILL
 70
0
  9
$DIMTFILLCLR
 70
0
  9
$DIMARCSYM
 70
0
  9
$DIMLTYPE
  6

  9
$DIMLTEX1
  6

  9
$DIMLTEX2
  6

  9
$DIMTXTDIRECTION
 70
0
  9
$LUNITS
 70
2
  9
$LUPREC
 70
4
  9
$SKETCHINC
 40
1.0
  9
$FILLETRAD
 40
10.0
  9
$AUNITS
 70
0
  9
$AUPREC
 70
2
  9
$MENU
  1
.
  9
$ELEVATION
 40
0.0
  9
$PELEVATION
 40
0.0
  9
$THICKNESS
 40
0.0
  9
$LIMCHECK
 70
0
  9
$CHAMFERA
 40
0.0
  9
$CHAMFERB
 40
0.0
  9
$CHAMFERC
 40
0.0
  9
$CHAMFERD
 40
0.0
  9
$SKPOLY
 70
0
  9
$TDCREATE
 40
2461223.66625
  9
$TDUCREATE
 40
2458532.153996898
  9
$TDUPDATE
 40
2461223.66625
  9
$TDUUPDATE
 40
2458532.1544311
  9
$TDINDWG
 40
0.0
  9
$TDUSRTIMER
 40
0.0
  9
$USRTIMER
 70
1
  9
$ANGBASE
 50
0.0
  9
$ANGDIR
 70
0
  9
$PDMODE
 70
0
  9
$PDSIZE
 40
0.0
  9
$PLINEWID
 40
0.0
  9
$SPLFRAME
 70
0
  9
$SPLINETYPE
 70
6
  9
$SPLINESEGS
 70
8
  9
$HANDSEED
  5
83
  9
$SURFTAB1
 70
6
  9
$SURFTAB2
 70
6
  9
$SURFTYPE
 70
6
  9
$SURFU
 70
6
  9
$SURFV
 70
6
  9
$UCSBASE
  2

  9
$UCSNAME
  2

  9
$UCSORG
 10
0.0
 20
0.0
 30
0.0
  9
$UCSXDIR
 10
1.0
 20
0.0
 30
0.0
  9
$UCSYDIR
 10
0.0
 20
1.0
 30
0.0
  9
$UCSORTHOREF
  2

  9
$UCSORTHOVIEW
 70
0
  9
$UCSORGTOP
 10
0.0
 20
0.0
 30
0.0
  9
$UCSORGBOTTOM
 10
0.0
 20
0.0
 30
0.0
  9
$UCSORGLEFT
 10
0.0
 20
0.0
 30
0.0
  9
$UCSORGRIGHT
 10
0.0
 20
0.0
 30
0.0
  9
$UCSORGFRONT
 10
0.0
 20
0.0
 30
0.0
  9
$UCSORGBACK
 10
0.0
 20
0.0
 30
0.0
  9
$PUCSBASE
  2

  9
$PUCSNAME
  2

  9
$PUCSORG
 10
0.0
 20
0.0
 30
0.0
  9
$PUCSXDIR
 10
1.0
 20
0.0
 30
0.0
  9
$PUCSYDIR
 10
0.0
 20
1.0
 30
0.0
  9
$PUCSORTHOREF
  2

  9
$PUCSORTHOVIEW
 70
0
  9
$PUCSORGTOP
 10
0.0
 20
0.0
 30
0.0
  9
$PUCSORGBOTTOM
 10
0.0
 20
0.0
 30
0.0
  9
$PUCSORGLEFT
 10
0.0
 20
0.0
 30
0.0
  9
$PUCSORGRIGHT
 10
0.0
 20
0.0
 30
0.0
  9
$PUCSORGFRONT
 10
0.0
 20
0.0
 30
0.0
  9
$PUCSORGBACK
 10
0.0
 20
0.0
 30
0.0
  9
$USERI1
 70
0
  9
$USERI2
 70
0
  9
$USERI3
 70
0
  9
$USERI4
 70
0
  9
$USERI5
 70
0
  9
$USERR1
 40
0.0
  9
$USERR2
 40
0.0
  9
$USERR3
 40
0.0
  9
$USERR4
 40
0.0
  9
$USERR5
 40
0.0
  9
$WORLDVIEW
 70
1
  9
$SHADEDGE
 70
3
  9
$SHADEDIF
 70
70
  9
$TILEMODE
 70
1
  9
$MAXACTVP
 70
64
  9
$PINSBASE
 10
0.0
 20
0.0
 30
0.0
  9
$PLIMCHECK
 70
0
  9
$PEXTMIN
 10
1e+20
 20
1e+20
 30
1e+20
  9
$PEXTMAX
 10
-1e+20
 20
-1e+20
 30
-1e+20
  9
$PLIMMIN
 10
0.0
 20
0.0
  9
$PLIMMAX
 10
420.0
 20
297.0
  9
$UNITMODE
 70
0
  9
$VISRETAIN
 70
1
  9
$PLINEGEN
 70
0
  9
$PSLTSCALE
 70
1
  9
$TREEDEPTH
 70
3020
  9
$CMLSTYLE
  2
Standard
  9
$CMLJUST
 70
0
  9
$CMLSCALE
 40
20.0
  9
$PROXYGRAPHICS
 70
1
  9
$MEASUREMENT
 70
1
  9
$CELWEIGHT
370
-1
  9
$ENDCAPS
280
0
  9
$JOINSTYLE
280
0
  9
$LWDISPLAY
290
0
  9
$INSUNITS
 70
4
  9
$HYPERLINKBASE
  1

  9
$STYLESHEET
  1

  9
$XEDIT
290
1
  9
$CEPSNTYPE
380
0
  9
$PSTYLEMODE
290
1
  9
$FINGERPRINTGUID
  2
{C9770155-D801-409A-A2F2-EC86DD0B10BD}
  9
$VERSIONGUID
  2
{00EAC0DE-7E2E-4022-A137-7C7FA5601E34}
  9
$EXTNAMES
290
1
  9
$PSVPSCALE
 40
0.0
  9
$OLESTARTUP
290
0
  9
$SORTENTS
280
127
  9
$INDEXCTL
280
0
  9
$HIDETEXT
280
1
  9
$XCLIPFRAME
280
1
  9
$HALOGAP
280
0
  9
$OBSCOLOR
 70
257
  9
$OBSLTYPE
280
0
  9
$INTERSECTIONDISPLAY
280
0
  9
$INTERSECTIONCOLOR
 70
257
  9
$DIMASSOC
280
2
  9
$PROJECTNAME
  1

  9
$CAMERADISPLAY
290
0
  9
$LENSLENGTH
 40
50.0
  9
$CAMERAHEIGHT
 40
0.0
  9
$STEPSPERSEC
 40
24.0
  9
$STEPSIZE
 40
100.0
  9
$3DDWFPREC
 40
2.0
  9
$PSOLWIDTH
 40
0.005
  9
$PSOLHEIGHT
 40
0.08
  9
$LOFTANG1
 40
1.570796326795
  9
$LOFTANG2
 40
1.570796326795
  9
$LOFTMAG1
 40
0.0
  9
$LOFTMAG2
 40
0.0
  9
$LOFTPARAM
 70
7
  9
$LOFTNORMALS
280
1
  9
$LATITUDE
 40
37.795
  9
$LONGITUDE
 40
-122.394
  9
$NORTHDIRECTION
 40
0.0
  9
$TIMEZONE
 70
-8000
  9
$LIGHTGLYPHDISPLAY
280
1
  9
$TILEMODELIGHTSYNCH
280
1
  9
$CMATERIAL
347
20
  9
$SOLIDHIST
280
0
  9
$SHOWHIST
280
1
  9
$DWFFRAME
280
2
  9
$DGNFRAME
280
2
  9
$REALWORLDSCALE
290
1
  9
$INTERFERECOLOR
 62
256
  9
$CSHADOW
280
0
  9
$SHADOWPLANELOCATION
 40
0.0
  0
ENDSEC
  0
SECTION
  2
CLASSES
  0
CLASS
  1
ACDBDICTIONARYWDFLT
  2
AcDbDictionaryWithDefault
  3
ObjectDBX Classes
 90
0
 91
0
280
0
281
0
  0
CLASS
  1
SUN
  2
AcDbSun
  3
SCENEOE
 90
1153
 91
0
280
0
281
0
  0
CLASS
  1
VISUALSTYLE
  2
AcDbVisualStyle
  3
ObjectDBX Classes
 90
4095
 91
0
280
0
281
0
  0
CLASS
  1
MATERIAL
  2
AcDbMaterial
  3
ObjectDBX Classes
 90
1153
 91
0
280
0
281
0
  0
CLASS
  1
SCALE
  2
AcDbScale
  3
ObjectDBX Classes
 90
1153
 91
0
280
0
281
0
  0
CLASS
  1
TABLESTYLE
  2
AcDbTableStyle
  3
ObjectDBX Classes
 90
4095
 91
0
280
0
281
0
  0
CLASS
  1
MLEADERSTYLE
  2
AcDbMLeaderStyle
  3
ACDB_MLEADERSTYLE_CLASS
 90
4095
 91
0
280
0
281
0
  0
CLASS
  1
DICTIONARYVAR
  2
AcDbDictionaryVar
  3
ObjectDBX Classes
 90
0
 91
0
280
0
281
0
  0
CLASS
  1
CELLSTYLEMAP
  2
AcDbCellStyleMap
  3
ObjectDBX Classes
 90
1152
 91
0
280
0
281
0
  0
CLASS
  1
MENTALRAYRENDERSETTINGS
  2
AcDbMentalRayRenderSettings
  3
SCENEOE
 90
1024
 91
0
280
0
281
0
  0
CLASS
  1
ACDBDETAILVIEWSTYLE
  2
AcDbDetailViewStyle
  3
ObjectDBX Classes
 90
1025
 91
0
280
0
281
0
  0
CLASS
  1
ACDBSECTIONVIEWSTYLE
  2
AcDbSectionViewStyle
  3
ObjectDBX Classes
 90
1025
 91
0
280
0
281
0
  0
CLASS
  1
RASTERVARIABLES
  2
AcDbRasterVariables
  3
ISM
 90
0
 91
0
280
0
281
0
  0
CLASS
  1
ACDBPLACEHOLDER
  2
AcDbPlaceHolder
  3
ObjectDBX Classes
 90
0
 91
0
280
0
281
0
  0
CLASS
  1
LAYOUT
  2
AcDbLayout
  3
ObjectDBX Classes
 90
0
 91
0
280
0
281
0
  0
ENDSEC
  0
SECTION
  2
TABLES
  0
TABLE
  2
VPORT
  5
8
330
0
100
AcDbSymbolTable
 70
1
  0
VPORT
  5
23
330
8
100
AcDbSymbolTableRecord
100
AcDbViewportTableRecord
  2
*Active
 70
0
 10
0.0
 20
0.0
 11
1.0
 21
1.0
 12
0.0
 22
0.0
 13
0.0
 23
0.0
 14
0.5
 24
0.5
 15
0.5
 25
0.5
 16
0.0
 26
0.0
 36
1.0
 17
0.0
 27
0.0
 37
0.0
 40
1000.0
 41
1.34
 42
50.0
 43
0.0
 44
0.0
 50
0.0
 51
0.0
 71
0
 72
1000
 73
1
 74
3
 75
0
 76
0
 77
0
 78
0
281
0
 65
0
146
0.0
  0
ENDTAB
  0
TABLE
  2
LTYPE
  5
2
330
0
100
AcDbSymbolTable
 70
3
  0
LTYPE
  5
24
330
2
100
AcDbSymbolTableRecord
100
AcDbLinetypeTableRecord
  2
ByBlock
 70
0
  3

 72
65
 73
0
 40
0.0
  0
LTYPE
  5
25
330
2
100
AcDbSymbolTableRecord
100
AcDbLinetypeTableRecord
  2
ByLayer
 70
0
  3

 72
65
 73
0
 40
0.0
  0
LTYPE
  5
26
330
2
100
AcDbSymbolTableRecord
100
AcDbLinetypeTableRecord
  2
Continuous
 70
0
  3

 72
65
 73
0
 40
0.0
  0
ENDTAB
  0
TABLE
  2
LAYER
  5
1
330
0
100
AcDbSymbolTable
 70
43
  0
LAYER
  5
27
330
1
100
AcDbSymbolTableRecord
100
AcDbLayerTableRecord
  2
0
 70
0
 62
7
  6
Continuous
370
-3
390
13
347
21
  0
LAYER
  5
28
330
1
100
AcDbSymbolTableRecord
100
AcDbLayerTableRecord
  2
Defpoints
 70
0
 62
7
  6
Continuous
290
0
370
-3
390
13
347
21
  0
LAYER
  5
2F
330
1
100
AcDbSymbolTableRecord
100
AcDbLayerTableRecord
  2
Layer 1
 70
0
 62
5
  6
Continuous
370
-3
390
13
347
21
  0
LAYER
  5
30
330
1
100
AcDbSymbolTableRecord
100
AcDbLayerTableRecord
  2
shape_1
 70
0
 62
2
  6
Continuous
370
-3
390
13
347
21
  0
LAYER
  5
32
330
1
100
AcDbSymbolTableRecord
100
AcDbLayerTableRecord
  2
shape_2
 70
0
 62
2
  6
Continuous
370
-3
390
13
347
21
  0
LAYER
  5
34
330
1
100
AcDbSymbolTableRecord
100
AcDbLayerTableRecord
  2
shape_3
 70
0
 62
2
  6
Continuous
370
-3
390
13
347
21
  0
LAYER
  5
36
330
1
100
AcDbSymbolTableRecord
100
AcDbLayerTableRecord
  2
shape_4
 70
0
 62
2
  6
Continuous
370
-3
390
13
347
21
  0
LAYER
  5
38
330
1
100
AcDbSymbolTableRecord
100
AcDbLayerTableRecord
  2
shape_5
 70
0
 62
2
  6
Continuous
370
-3
390
13
347
21
  0
LAYER
  5
3A
330
1
100
AcDbSymbolTableRecord
100
AcDbLayerTableRecord
  2
shape_6
 70
0
 62
2
  6
Continuous
370
-3
390
13
347
21
  0
LAYER
  5
3C
330
1
100
AcDbSymbolTableRecord
100
AcDbLayerTableRecord
  2
shape_7
 70
0
 62
2
  6
Continuous
370
-3
390
13
347
21
  0
LAYER
  5
3E
330
1
100
AcDbSymbolTableRecord
100
AcDbLayerTableRecord
  2
shape_8
 70
0
 62
2
  6
Continuous
370
-3
390
13
347
21
  0
LAYER
  5
40
330
1
100
AcDbSymbolTableRecord
100
AcDbLayerTableRecord
  2
shape_9
 70
0
 62
2
  6
Continuous
370
-3
390
13
347
21
  0
LAYER
  5
42
330
1
100
AcDbSymbolTableRecord
100
AcDbLayerTableRecord
  2
shape_10
 70
0
 62
2
  6
Continuous
370
-3
390
13
347
21
  0
LAYER
  5
44
330
1
100
AcDbSymbolTableRecord
100
AcDbLayerTableRecord
  2
shape_11
 70
0
 62
2
  6
Continuous
370
-3
390
13
347
21
  0
LAYER
  5
46
330
1
100
AcDbSymbolTableRecord
100
AcDbLayerTableRecord
  2
shape_12
 70
0
 62
2
  6
Continuous
370
-3
390
13
347
21
  0
LAYER
  5
48
330
1
100
AcDbSymbolTableRecord
100
AcDbLayerTableRecord
  2
shape_13
 70
0
 62
2
  6
Continuous
370
-3
390
13
347
21
  0
LAYER
  5
4A
330
1
100
AcDbSymbolTableRecord
100
AcDbLayerTableRecord
  2
shape_14
 70
0
 62
2
  6
Continuous
370
-3
390
13
347
21
  0
LAYER
  5
4C
330
1
100
AcDbSymbolTableRecord
100
AcDbLayerTableRecord
  2
shape_15
 70
0
 62
2
  6
Continuous
370
-3
390
13
347
21
  0
LAYER
  5
4E
330
1
100
AcDbSymbolTableRecord
100
AcDbLayerTableRecord
  2
shape_16
 70
0
 62
2
  6
Continuous
370
-3
390
13
347
21
  0
LAYER
  5
50
330
1
100
AcDbSymbolTableRecord
100
AcDbLayerTableRecord
  2
shape_17
 70
0
 62
2
  6
Continuous
370
-3
390
13
347
21
  0
LAYER
  5
52
330
1
100
AcDbSymbolTableRecord
100
AcDbLayerTableRecord
  2
shape_18
 70
0
 62
2
  6
Continuous
370
-3
390
13
347
21
  0
LAYER
  5
54
330
1
100
AcDbSymbolTableRecord
100
AcDbLayerTableRecord
  2
shape_19
 70
0
 62
2
  6
Continuous
370
-3
390
13
347
21
  0
LAYER
  5
56
330
1
100
AcDbSymbolTableRecord
100
AcDbLayerTableRecord
  2
shape_20
 70
0
 62
2
  6
Continuous
370
-3
390
13
347
21
  0
LAYER
  5
58
330
1
100
AcDbSymbolTableRecord
100
AcDbLayerTableRecord
  2
shape_21
 70
0
 62
2
  6
Continuous
370
-3
390
13
347
21
  0
LAYER
  5
5A
330
1
100
AcDbSymbolTableRecord
100
AcDbLayerTableRecord
  2
shape_22
 70
0
 62
2
  6
Continuous
370
-3
390
13
347
21
  0
LAYER
  5
5C
330
1
100
AcDbSymbolTableRecord
100
AcDbLayerTableRecord
  2
shape_23
 70
0
 62
2
  6
Continuous
370
-3
390
13
347
21
  0
LAYER
  5
5E
330
1
100
AcDbSymbolTableRecord
100
AcDbLayerTableRecord
  2
shape_24
 70
0
 62
2
  6
Continuous
370
-3
390
13
347
21
  0
LAYER
  5
60
330
1
100
AcDbSymbolTableRecord
100
AcDbLayerTableRecord
  2
shape_25
 70
0
 62
2
  6
Continuous
370
-3
390
13
347
21
  0
LAYER
  5
62
330
1
100
AcDbSymbolTableRecord
100
AcDbLayerTableRecord
  2
shape_26
 70
0
 62
2
  6
Continuous
370
-3
390
13
347
21
  0
LAYER
  5
64
330
1
100
AcDbSymbolTableRecord
100
AcDbLayerTableRecord
  2
shape_27
 70
0
 62
2
  6
Continuous
370
-3
390
13
347
21
  0
LAYER
  5
66
330
1
100
AcDbSymbolTableRecord
100
AcDbLayerTableRecord
  2
shape_28
 70
0
 62
2
  6
Continuous
370
-3
390
13
347
21
  0
LAYER
  5
68
330
1
100
AcDbSymbolTableRecord
100
AcDbLayerTableRecord
  2
shape_29
 70
0
 62
2
  6
Continuous
370
-3
390
13
347
21
  0
LAYER
  5
6A
330
1
100
AcDbSymbolTableRecord
100
AcDbLayerTableRecord
  2
shape_30
 70
0
 62
2
  6
Continuous
370
-3
390
13
347
21
  0
LAYER
  5
6C
330
1
100
AcDbSymbolTableRecord
100
AcDbLayerTableRecord
  2
shape_31
 70
0
 62
2
  6
Continuous
370
-3
390
13
347
21
  0
LAYER
  5
6E
330
1
100
AcDbSymbolTableRecord
100
AcDbLayerTableRecord
  2
shape_32
 70
0
 62
2
  6
Continuous
370
-3
390
13
347
21
  0
LAYER
  5
70
330
1
100
AcDbSymbolTableRecord
100
AcDbLayerTableRecord
  2
shape_33
 70
0
 62
2
  6
Continuous
370
-3
390
13
347
21
  0
LAYER
  5
72
330
1
100
AcDbSymbolTableRecord
100
AcDbLayerTableRecord
  2
shape_34
 70
0
 62
2
  6
Continuous
370
-3
390
13
347
21
  0
LAYER
  5
74
330
1
100
AcDbSymbolTableRecord
100
AcDbLayerTableRecord
  2
shape_35
 70
0
 62
2
  6
Continuous
370
-3
390
13
347
21
  0
LAYER
  5
76
330
1
100
AcDbSymbolTableRecord
100
AcDbLayerTableRecord
  2
shape_36
 70
0
 62
2
  6
Continuous
370
-3
390
13
347
21
  0
LAYER
  5
78
330
1
100
AcDbSymbolTableRecord
100
AcDbLayerTableRecord
  2
shape_37
 70
0
 62
2
  6
Continuous
370
-3
390
13
347
21
  0
LAYER
  5
7A
330
1
100
AcDbSymbolTableRecord
100
AcDbLayerTableRecord
  2
shape_38
 70
0
 62
2
  6
Continuous
370
-3
390
13
347
21
  0
LAYER
  5
7C
330
1
100
AcDbSymbolTableRecord
100
AcDbLayerTableRecord
  2
shape_39
 70
0
 62
2
  6
Continuous
370
-3
390
13
347
21
  0
LAYER
  5
7E
330
1
100
AcDbSymbolTableRecord
100
AcDbLayerTableRecord
  2
shape_40
 70
0
 62
2
  6
Continuous
370
-3
390
13
347
21
  0
ENDTAB
  0
TABLE
  2
STYLE
  5
5
330
0
100
AcDbSymbolTable
 70
1
  0
STYLE
  5
29
330
5
100
AcDbSymbolTableRecord
100
AcDbTextStyleTableRecord
  2
Standard
 70
0
 40
0.0
 41
1.0
 50
0.0
 71
0
 42
2.5
  3
txt
  4

  0
ENDTAB
  0
TABLE
  2
VIEW
  5
7
330
0
100
AcDbSymbolTable
 70
0
  0
ENDTAB
  0
TABLE
  2
UCS
  5
6
330
0
100
AcDbSymbolTable
 70
0
  0
ENDTAB
  0
TABLE
  2
APPID
  5
3
330
0
100
AcDbSymbolTable
 70
3
  0
APPID
  5
2A
330
3
100
AcDbSymbolTableRecord
100
AcDbRegAppTableRecord
  2
ACAD
 70
0
  0
APPID
  5
80
330
3
100
AcDbSymbolTableRecord
100
AcDbRegAppTableRecord
  2
HATCHBACKGROUNDCOLOR
 70
0
  0
APPID
  5
81
330
3
100
AcDbSymbolTableRecord
100
AcDbRegAppTableRecord
  2
EZDXF
 70
0
  0
ENDTAB
  0
TABLE
  2
DIMSTYLE
  5
4
330
0
100
AcDbSymbolTable
 70
1
100
AcDbDimStyleTable
  0
DIMSTYLE
105
2B
330
4
100
AcDbSymbolTableRecord
100
AcDbDimStyleTableRecord
  2
Standard
 70
0
 40
1.0
 41
2.5
 42
0.625
 43
3.75
 44
1.25
 45
0.0
 46
0.0
 47
0.0
 48
0.0
 49
2.5
140
2.5
141
2.5
142
0.0
143
0.03937007874
144
1.0
145
0.0
146
1.0
147
0.625
148
0.0
 69
0
 70
0
 71
0
 72
0
 73
0
 74
0
 75
0
 76
0
 77
1
 78
8
 79
3
170
0
171
3
172
1
173
0
174
0
175
0
176
0
177
0
178
0
179
2
271
2
272
2
273
2
274
3
275
0
276
0
277
2
278
44
279
0
280
0
281
0
282
0
283
0
284
8
285
0
286
0
288
0
289
3
290
0
371
-2
372
-2
  0
ENDTAB
  0
TABLE
  2
BLOCK_RECORD
  5
9
330
0
100
AcDbSymbolTable
 70
2
  0
BLOCK_RECORD
  5
17
330
9
100
AcDbSymbolTableRecord
100
AcDbBlockTableRecord
  2
*Model_Space
340
1A
 70
0
280
1
281
0
  0
BLOCK_RECORD
  5
1B
330
9
100
AcDbSymbolTableRecord
100
AcDbBlockTableRecord
  2
*Paper_Space
340
1E
 70
0
280
1
281
0
  0
ENDTAB
  0
ENDSEC
  0
SECTION
  2
BLOCKS
  0
BLOCK
  5
18
330
17
100
AcDbEntity
  8
0
100
AcDbBlockBegin
  2
*Model_Space
 70
0
 10
0.0
 20
0.0
 30
0.0
  3
*Model_Space
  1

  0
ENDBLK
  5
19
330
17
100
AcDbEntity
  8
0
100
AcDbBlockEnd
  0
BLOCK
  5
1C
330
1B
100
AcDbEntity
  8
0
100
AcDbBlockBegin
  2
*Paper_Space
 70
0
 10
0.0
 20
0.0
 30
0.0
  3
*Paper_Space
  1

  0
ENDBLK
  5
1D
330
1B
100
AcDbEntity
  8
0
100
AcDbBlockEnd
  0
ENDSEC
  0
SECTION
  2
ENTITIES
  0
LWPOLYLINE
  5
31
330
17
100
AcDbEntity
  8
shape_1
100
AcDbPolyline
 90
4
 70
1
 10
153.9265815085158
 20
-139.5848540145986
 10
157.4099210101204
 20
-126.58485401459853
 10
156.2099210101204
 20
-126.58485401459853
 10
152.7265815085158
 20
-139.5848540145986
  0
LWPOLYLINE
  5
33
330
17
100
AcDbEntity
  8
shape_2
100
AcDbPolyline
 90
4
 70
1
 10
155.7765815085158
 20
-139.5848540145986
 10
159.2599210101204
 20
-126.58485401459853
 10
158.0599210101204
 20
-126.58485401459853
 10
154.5765815085158
 20
-139.5848540145986
  0
LWPOLYLINE
  5
35
330
17
100
AcDbEntity
  8
shape_3
100
AcDbPolyline
 90
4
 70
1
 10
157.62658150851576
 20
-139.5848540145986
 10
161.10992101012036
 20
-126.58485401459853
 10
159.90992101012037
 20
-126.58485401459853
 10
156.42658150851577
 20
-139.5848540145986
  0
LWPOLYLINE
  5
37
330
17
100
AcDbEntity
  8
shape_4
100
AcDbPolyline
 90
4
 70
1
 10
159.47658150851572
 20
-139.5848540145986
 10
162.95992101012033
 20
-126.58485401459853
 10
161.75992101012034
 20
-126.58485401459853
 10
158.27658150851573
 20
-139.5848540145986
  0
LWPOLYLINE
  5
39
330
17
100
AcDbEntity
  8
shape_5
100
AcDbPolyline
 90
4
 70
1
 10
161.3265815085157
 20
-139.5848540145986
 10
164.8099210101203
 20
-126.58485401459853
 10
163.6099210101203
 20
-126.58485401459853
 10
160.1265815085157
 20
-139.5848540145986
  0
LWPOLYLINE
  5
3B
330
17
100
AcDbEntity
  8
shape_6
100
AcDbPolyline
 90
4
 70
1
 10
163.17658150851565
 20
-139.5848540145986
 10
166.65992101012026
 20
-126.58485401459853
 10
165.45992101012027
 20
-126.58485401459853
 10
161.97658150851566
 20
-139.5848540145986
  0
LWPOLYLINE
  5
3D
330
17
100
AcDbEntity
  8
shape_7
100
AcDbPolyline
 90
4
 70
1
 10
165.02658150851562
 20
-139.5848540145986
 10
168.50992101012022
 20
-126.58485401459853
 10
167.30992101012023
 20
-126.58485401459853
 10
163.82658150851563
 20
-139.5848540145986
  0
LWPOLYLINE
  5
3F
330
17
100
AcDbEntity
  8
shape_8
100
AcDbPolyline
 90
4
 70
1
 10
166.87658150851559
 20
-139.5848540145986
 10
170.3599210101202
 20
-126.58485401459853
 10
169.1599210101202
 20
-126.58485401459853
 10
165.6765815085156
 20
-139.5848540145986
  0
LWPOLYLINE
  5
41
330
17
100
AcDbEntity
  8
shape_9
100
AcDbPolyline
 90
4
 70
1
 10
168.72658150851555
 20
-139.5848540145986
 10
172.20992101012015
 20
-126.58485401459853
 10
171.00992101012017
 20
-126.58485401459853
 10
167.52658150851556
 20
-139.5848540145986
  0
LWPOLYLINE
  5
43
330
17
100
AcDbEntity
  8
shape_10
100
AcDbPolyline
 90
4
 70
1
 10
170.57658150851552
 20
-139.5848540145986
 10
174.05992101012012
 20
-126.58485401459853
 10
172.85992101012013
 20
-126.58485401459853
 10
169.37658150851553
 20
-139.5848540145986
  0
LWPOLYLINE
  5
45
330
17
100
AcDbEntity
  8
shape_11
100
AcDbPolyline
 90
4
 70
1
 10
172.42658150851548
 20
-139.5848540145986
 10
175.9099210101201
 20
-126.58485401459853
 10
174.7099210101201
 20
-126.58485401459853
 10
171.2265815085155
 20
-139.5848540145986
  0
LWPOLYLINE
  5
47
330
17
100
AcDbEntity
  8
shape_12
100
AcDbPolyline
 90
4
 70
1
 10
174.27658150851545
 20
-139.5848540145986
 10
177.75992101012005
 20
-126.58485401459853
 10
176.55992101012006
 20
-126.58485401459853
 10
173.07658150851546
 20
-139.5848540145986
  0
LWPOLYLINE
  5
49
330
17
100
AcDbEntity
  8
shape_13
100
AcDbPolyline
 90
4
 70
1
 10
176.12658150851541
 20
-139.5848540145986
 10
179.60992101012002
 20
-126.58485401459853
 10
178.40992101012003
 20
-126.58485401459853
 10
174.92658150851543
 20
-139.5848540145986
  0
LWPOLYLINE
  5
4B
330
17
100
AcDbEntity
  8
shape_14
100
AcDbPolyline
 90
4
 70
1
 10
177.97658150851538
 20
-139.5848540145986
 10
181.45992101011998
 20
-126.58485401459853
 10
180.25992101012
 20
-126.58485401459853
 10
176.7765815085154
 20
-139.5848540145986
  0
LWPOLYLINE
  5
4D
330
17
100
AcDbEntity
  8
shape_15
100
AcDbPolyline
 90
4
 70
1
 10
179.82658150851535
 20
-139.5848540145986
 10
183.30992101011995
 20
-126.58485401459853
 10
182.10992101011996
 20
-126.58485401459853
 10
178.62658150851536
 20
-139.5848540145986
  0
LWPOLYLINE
  5
4F
330
17
100
AcDbEntity
  8
shape_16
100
AcDbPolyline
 90
4
 70
1
 10
181.6765815085153
 20
-139.5848540145986
 10
185.15992101011992
 20
-126.58485401459853
 10
183.95992101011993
 20
-126.58485401459853
 10
180.47658150851532
 20
-139.5848540145986
  0
LWPOLYLINE
  5
51
330
17
100
AcDbEntity
  8
shape_17
100
AcDbPolyline
 90
4
 70
1
 10
183.52658150851528
 20
-139.5848540145986
 10
187.00992101011988
 20
-126.58485401459853
 10
185.8099210101199
 20
-126.58485401459853
 10
182.3265815085153
 20
-139.5848540145986
  0
LWPOLYLINE
  5
53
330
17
100
AcDbEntity
  8
shape_18
100
AcDbPolyline
 90
4
 70
1
 10
185.37658150851524
 20
-139.5848540145986
 10
188.85992101011985
 20
-126.58485401459853
 10
187.65992101011986
 20
-126.58485401459853
 10
184.17658150851526
 20
-139.5848540145986
  0
LWPOLYLINE
  5
55
330
17
100
AcDbEntity
  8
shape_19
100
AcDbPolyline
 90
4
 70
1
 10
187.2265815085152
 20
-139.5848540145986
 10
190.7099210101198
 20
-126.58485401459853
 10
189.50992101011983
 20
-126.58485401459853
 10
186.02658150851522
 20
-139.5848540145986
  0
LWPOLYLINE
  5
57
330
17
100
AcDbEntity
  8
shape_20
100
AcDbPolyline
 90
4
 70
1
 10
189.07658150851518
 20
-139.5848540145986
 10
192.55992101011978
 20
-126.58485401459853
 10
191.3599210101198
 20
-126.58485401459853
 10
187.8765815085152
 20
-139.5848540145986
  0
LWPOLYLINE
  5
59
330
17
100
AcDbEntity
  8
shape_21
100
AcDbPolyline
 90
4
 70
1
 10
235.48175944687924
 20
-139.5848540145986
 10
238.96509894848384
 20
-126.58485401459853
 10
237.76509894848385
 20
-126.58485401459853
 10
234.28175944687925
 20
-139.5848540145986
  0
LWPOLYLINE
  5
5B
330
17
100
AcDbEntity
  8
shape_22
100
AcDbPolyline
 90
4
 70
1
 10
237.33175944687923
 20
-139.5848540145986
 10
240.81509894848384
 20
-126.58485401459853
 10
239.61509894848385
 20
-126.58485401459853
 10
236.13175944687924
 20
-139.5848540145986
  0
LWPOLYLINE
  5
5D
330
17
100
AcDbEntity
  8
shape_23
100
AcDbPolyline
 90
4
 70
1
 10
239.1817594468792
 20
-139.5848540145986
 10
242.6650989484838
 20
-126.58485401459853
 10
241.4650989484838
 20
-126.58485401459853
 10
237.9817594468792
 20
-139.5848540145986
  0
LWPOLYLINE
  5
5F
330
17
100
AcDbEntity
  8
shape_24
100
AcDbPolyline
 90
4
 70
1
 10
241.03175944687916
 20
-139.5848540145986
 10
244.51509894848377
 20
-126.58485401459853
 10
243.31509894848378
 20
-126.58485401459853
 10
239.83175944687918
 20
-139.5848540145986
  0
LWPOLYLINE
  5
61
330
17
100
AcDbEntity
  8
shape_25
100
AcDbPolyline
 90
4
 70
1
 10
242.88175944687913
 20
-139.5848540145986
 10
246.36509894848373
 20
-126.58485401459853
 10
245.16509894848375
 20
-126.58485401459853
 10
241.68175944687914
 20
-139.5848540145986
  0
LWPOLYLINE
  5
63
330
17
100
AcDbEntity
  8
shape_26
100
AcDbPolyline
 90
4
 70
1
 10
244.7317594468791
 20
-139.5848540145986
 10
248.2150989484837
 20
-126.58485401459853
 10
247.0150989484837
 20
-126.58485401459853
 10
243.5317594468791
 20
-139.5848540145986
  0
LWPOLYLINE
  5
65
330
17
100
AcDbEntity
  8
shape_27
100
AcDbPolyline
 90
4
 70
1
 10
246.58175944687906
 20
-139.5848540145986
 10
250.06509894848367
 20
-126.58485401459853
 10
248.86509894848368
 20
-126.58485401459853
 10
245.38175944687907
 20
-139.5848540145986
  0
LWPOLYLINE
  5
67
330
17
100
AcDbEntity
  8
shape_28
100
AcDbPolyline
 90
4
 70
1
 10
248.43175944687903
 20
-139.5848540145986
 10
251.91509894848363
 20
-126.58485401459853
 10
250.71509894848364
 20
-126.58485401459853
 10
247.23175944687904
 20
-139.5848540145986
  0
LWPOLYLINE
  5
69
330
17
100
AcDbEntity
  8
shape_29
100
AcDbPolyline
 90
4
 70
1
 10
250.281759446879
 20
-139.5848540145986
 10
253.7650989484836
 20
-126.58485401459853
 10
252.5650989484836
 20
-126.58485401459853
 10
249.081759446879
 20
-139.5848540145986
  0
LWPOLYLINE
  5
6B
330
17
100
AcDbEntity
  8
shape_30
100
AcDbPolyline
 90
4
 70
1
 10
252.13175944687896
 20
-139.5848540145986
 10
255.61509894848356
 20
-126.58485401459853
 10
254.41509894848357
 20
-126.58485401459853
 10
250.93175944687897
 20
-139.5848540145986
  0
LWPOLYLINE
  5
6D
330
17
100
AcDbEntity
  8
shape_31
100
AcDbPolyline
 90
4
 70
1
 10
253.98175944687893
 20
-139.5848540145986
 10
257.46509894848356
 20
-126.58485401459853
 10
256.2650989484836
 20
-126.58485401459853
 10
252.78175944687894
 20
-139.5848540145986
  0
LWPOLYLINE
  5
6F
330
17
100
AcDbEntity
  8
shape_32
100
AcDbPolyline
 90
4
 70
1
 10
255.8317594468789
 20
-139.5848540145986
 10
259.3150989484836
 20
-126.58485401459853
 10
258.11509894848353
 20
-126.58485401459853
 10
254.63175944687893
 20
-139.5848540145986
  0
LWPOLYLINE
  5
71
330
17
100
AcDbEntity
  8
shape_33
100
AcDbPolyline
 90
4
 70
1
 10
257.68175944687897
 20
-139.5848540145986
 10
261.1650989484835
 20
-126.58485401459853
 10
259.96509894848356
 20
-126.58485401459853
 10
256.4817594468789
 20
-139.5848540145986
  0
LWPOLYLINE
  5
73
330
17
100
AcDbEntity
  8
shape_34
100
AcDbPolyline
 90
4
 70
1
 10
259.5317594468789
 20
-139.5848540145986
 10
263.0150989484835
 20
-126.58485401459853
 10
261.81509894848347
 20
-126.58485401459853
 10
258.33175944687883
 20
-139.5848540145986
  0
LWPOLYLINE
  5
75
330
17
100
AcDbEntity
  8
shape_35
100
AcDbPolyline
 90
4
 70
1
 10
261.3817594468788
 20
-139.5848540145986
 10
264.8650989484834
 20
-126.58485401459853
 10
263.6650989484835
 20
-126.58485401459853
 10
260.18175944687886
 20
-139.5848540145986
  0
LWPOLYLINE
  5
77
330
17
100
AcDbEntity
  8
shape_36
100
AcDbPolyline
 90
4
 70
1
 10
263.2317594468788
 20
-139.5848540145986
 10
266.71509894848344
 20
-126.58485401459853
 10
265.5150989484834
 20
-126.58485401459853
 10
262.03175944687877
 20
-139.5848540145986
  0
LWPOLYLINE
  5
79
330
17
100
AcDbEntity
  8
shape_37
100
AcDbPolyline
 90
4
 70
1
 10
265.0817594468787
 20
-139.5848540145986
 10
268.56509894848335
 20
-126.58485401459853
 10
267.3650989484834
 20
-126.58485401459853
 10
263.8817594468788
 20
-139.5848540145986
  0
LWPOLYLINE
  5
7B
330
17
100
AcDbEntity
  8
shape_38
100
AcDbPolyline
 90
4
 70
1
 10
266.93175944687874
 20
-139.5848540145986
 10
270.4150989484834
 20
-126.58485401459853
 10
269.21509894848333
 20
-126.58485401459853
 10
265.7317594468788
 20
-139.5848540145986
  0
LWPOLYLINE
  5
7D
330
17
100
AcDbEntity
  8
shape_39
100
AcDbPolyline
 90
4
 70
1
 10
268.78175944687865
 20
-139.5848540145986
 10
272.2650989484833
 20
-126.58485401459853
 10
271.06509894848335
 20
-126.58485401459853
 10
267.5817594468787
 20
-139.5848540145986
  0
LWPOLYLINE
  5
7F
330
17
100
AcDbEntity
  8
shape_40
100
AcDbPolyline
 90
4
 70
1
 10
270.6317594468787
 20
-139.5848540145986
 10
274.1150989484833
 20
-126.58485401459853
 10
272.91509894848326
 20
-126.58485401459853
 10
269.43175944687863
 20
-139.5848540145986
  0
ENDSEC
  0
SECTION
  2
OBJECTS
  0
DICTIONARY
  5
A
330
0
100
AcDbDictionary
281
1
  3
ACAD_COLOR
350
B
  3
ACAD_GROUP
350
C
  3
ACAD_LAYOUT
350
D
  3
ACAD_MATERIAL
350
E
  3
ACAD_MLEADERSTYLE
350
F
  3
ACAD_MLINESTYLE
350
10
  3
ACAD_PLOTSETTINGS
350
11
  3
ACAD_PLOTSTYLENAME
350
12
  3
ACAD_SCALELIST
350
14
  3
ACAD_TABLESTYLE
350
15
  3
ACAD_VISUALSTYLE
350
16
  3
EZDXF_META
350
2D
  0
DICTIONARY
  5
B
330
A
100
AcDbDictionary
281
1
  0
DICTIONARY
  5
C
330
A
100
AcDbDictionary
281
1
  0
DICTIONARY
  5
D
330
A
100
AcDbDictionary
281
1
  3
Model
350
1A
  3
Layout1
350
1E
  0
DICTIONARY
  5
E
330
A
100
AcDbDictionary
281
1
  3
ByBlock
350
1F
  3
ByLayer
350
20
  3
Global
350
21
  0
DICTIONARY
  5
F
330
A
100
AcDbDictionary
281
1
  3
Standard
350
2C
  0
DICTIONARY
  5
10
330
A
100
AcDbDictionary
281
1
  3
Standard
350
22
  0
DICTIONARY
  5
11
330
A
100
AcDbDictionary
281
1
  0
ACDBDICTIONARYWDFLT
  5
12
330
A
100
AcDbDictionary
281
1
  3
Normal
350
13
100
AcDbDictionaryWithDefault
340
13
  0
ACDBPLACEHOLDER
  5
13
330
12
  0
DICTIONARY
  5
14
330
A
100
AcDbDictionary
281
1
  0
DICTIONARY
  5
15
330
A
100
AcDbDictionary
281
1
  0
DICTIONARY
  5
16
330
A
100
AcDbDictionary
281
1
  0
LAYOUT
  5
1A
330
D
100
AcDbPlotSettings
  1

  4
A3
  6

 40
7.5
 41
20.0
 42
7.5
 43
20.0
 44
420.0
 45
297.0
 46
0.0
 47
0.0
 48
0.0
 49
0.0
140
0.0
141
0.0
142
1.0
143
1.0
 70
1024
 72
1
 73
0
 74
5
  7

 75
16
 76
0
 77
2
 78
300
147
1.0
148
0.0
149
0.0
100
AcDbLayout
  1
Model
 70
1
 71
0
 10
0.0
 20
0.0
 11
420.0
 21
297.0
 12
0.0
 22
0.0
 32
0.0
 14
1e+20
 24
1e+20
 34
1e+20
 15
-1e+20
 25
-1e+20
 35
-1e+20
146
0.0
 13
0.0
 23
0.0
 33
0.0
 16
1.0
 26
0.0
 36
0.0
 17
0.0
 27
1.0
 37
0.0
 76
1
330
17
  0
LAYOUT
  5
1E
330
D
100
AcDbPlotSettings
  1

  4
A3
  6

 40
7.5
 41
20.0
 42
7.5
 43
20.0
 44
420.0
 45
297.0
 46
0.0
 47
0.0
 48
0.0
 49
0.0
140
0.0
141
0.0
142
1.0
143
1.0
 70
0
 72
1
 73
0
 74
5
  7

 75
16
 76
0
 77
2
 78
300
147
1.0
148
0.0
149
0.0
100
AcDbLayout
  1
Layout1
 70
1
 71
1
 10
0.0
 20
0.0
 11
420.0
 21
297.0
 12
0.0
 22
0.0
 32
0.0
 14
1e+20
 24
1e+20
 34
1e+20
 15
-1e+20
 25
-1e+20
 35
-1e+20
146
0.0
 13
0.0
 23
0.0
 33
0.0
 16
1.0
 26
0.0
 36
0.0
 17
0.0
 27
1.0
 37
0.0
 76
1
330
1B
  0
MATERIAL
  5
1F
102
{ACAD_REACTORS
330
E
102
}
330
E
100
AcDbMaterial
  1
ByBlock
  2

 70
0
 40
1.0
 71
1
 41
1.0
 91
-1023410177
 42
1.0
 72
1
  3

 73
1
 74
1
 75
1
 44
0.5
 73
0
 45
1.0
 46
1.0
 77
1
  4

 78
1
 79
1
170
1
 48
1.0
171
1
  6

172
1
173
1
174
1
140
1.0
141
1.0
175
1
  7

176
1
177
1
178
1
143
1.0
179
1
  8

270
1
271
1
272
1
145
1.0
146
1.0
273
1
  9

274
1
275
1
276
1
 42
1.0
 72
1
  3

 73
1
 74
1
 75
1
 94
63
  0
MATERIAL
  5
20
102
{ACAD_REACTORS
330
E
102
}
330
E
100
AcDbMaterial
  1
ByLayer
  2

 70
0
 40
1.0
 71
1
 41
1.0
 91
-1023410177
 42
1.0
 72
1
  3

 73
1
 74
1
 75
1
 44
0.5
 73
0
 45
1.0
 46
1.0
 77
1
  4

 78
1
 79
1
170
1
 48
1.0
171
1
  6

172
1
173
1
174
1
140
1.0
141
1.0
175
1
  7

176
1
177
1
178
1
143
1.0
179
1
  8

270
1
271
1
272
1
145
1.0
146
1.0
273
1
  9

274
1
275
1
276
1
 42
1.0
 72
1
  3

 73
1
 74
1
 75
1
 94
63
  0
MATERIAL
  5
21
102
{ACAD_REACTORS
330
E
102
}
330
E
100
AcDbMaterial
  1
Global
  2

 70
0
 40
1.0
 71
1
 41
1.0
 91
-1023410177
 42
1.0
 72
1
  3

 73
1
 74
1
 75
1
 44
0.5
 73
0
 45
1.0
 46
1.0
 77
1
  4

 78
1
 79
1
170
1
 48
1.0
171
1
  6

172
1
173
1
174
1
140
1.0
141
1.0
175
1
  7

176
1
177
1
178
1
143
1.0
179
1
  8

270
1
271
1
272
1
145
1.0
146
1.0
273
1
  9

274
1
275
1
276
1
 42
1.0
 72
1
  3

 73
1
 74
1
 75
1
 94
63
  0
MLINESTYLE
  5
22
102
{ACAD_REACTORS
330
10
102
}
330
10
100
AcDbMlineStyle
  2
Standard
 70
0
  3

 62
256
 51
90.0
 52
90.0
 71
2
 49
0.5
 62
256
  6
BYLAYER
 49
-0.5
 62
256
  6
BYLAYER
  0
MLEADERSTYLE
  5
2C
102
{ACAD_REACTORS
330
F
102
}
330
F
100
AcDbMLeaderStyle
179
2
170
2
171
1
172
0
 90
2
 40
0.0
 41
0.0
173
1
 91
-1056964608
 92
-2
290
1
 42
2.0
291
1
 43
8.0
  3
Standard
 44
4.0
300

342
29
174
1
175
1
176
0
178
1
 93
-1056964608
 45
4.0
292
0
297
0
 46
4.0
 94
-1056964608
 47
1.0
 49
1.0
140
1.0
294
1
141
0.0
177
0
142
1.0
295
0
296
0
143
3.75
271
0
272
9
273
9
  0
DICTIONARY
  5
2D
330
A
100
AcDbDictionary
280
1
281
1
  3
CREATED_BY_EZDXF
350
2E
  3
WRITTEN_BY_EZDXF
350
82
  0
DICTIONARYVAR
  5
2E
330
2D
100
DictionaryVariables
280
0
  1
1.4.4 @ 2026-07-01T22:59:24.807201+00:00
  0
DICTIONARYVAR
  5
82
330
2D
100
DictionaryVariables
280
0
  1
1.4.4 @ 2026-07-01T22:59:24.807201+00:00
  0
ENDSEC
  0
EOF
