  0
SECTION
  2
HEADER
  9
$ACADVER
  1
AC1024
  9
$ACADMAINTVER
 70
6
  9
$DWGCODEPAGE
  3
ANSI_1252
  9
$LASTSAVEDBY
  1
ezdxf
  9
$INSBASE
 10
0.0
 20
0.0
 30
0.0
  9
$EXTMIN
 10
1e+20
 20
1e+20
 30
1e+20
  9
$EXTMAX
 10
-1e+20
 20
-1e+20
 30
-1e+20
  9
$LIMMIN
 10
0.0
 20
0.0
  9
$LIMMAX
 10
420.0
 20
297.0
  9
$ORTHOMODE
 70
0
  9
$REGENMODE
 70
1
  9
$FILLMODE
 70
1
  9
$QTEXTMODE
 70
0
  9
$MIRRTEXT
 70
1
  9
$LTSCALE
 40
1.0
  9
$ATTMODE
 70
1
  9
$TEXTSIZE
 40
2.5
  9
$TRACEWID
 40
1.0
  9
$TEXTSTYLE
  7
Standard
  9
$CLAYER
  8
0
  9
$CELTYPE
  6
ByLayer
  9
$CECOLOR
 62
256
  9
$CELTSCALE
 40
1.0
  9
$DISPSILH
 70
0
  9
$DIMSCALE
 40
1.0
  9
$DIMASZ
 40
2.5
  9
$DIMEXO
 40
0.625
  9
$DIMDLI
 40
3.75
  9
$DIMRND
 40
0.0
  9
$DIMDLE
 40
0.0
  9
$DIMEXE
 40
1.25
  9
$DIMTP
 40
0.0
  9
$DIMTM
 40
0.0
  9
$DIMTXT
 40
2.5
  9
$DIMCEN
 40
2.5
  9
$DIMTSZ
 40
0.0
  9
$DIMTOL
 70
0
  9
$DIMLIM
 70
0
  9
$DIMTIH
 70
0
  9
$DIMTOH
 70
0
  9
$DIMSE1
 70
0
  9
$DIMSE2
 70
0
  9
$DIMTAD
 70
1
  9
$DIMZIN
 70
8
  9
$DIMBLK
  1

  9
$DIMASO
 70
1
  9
$DIMSHO
 70
1
  9
$DIMPOST
  1

  9
$DIMAPOST
  1

  9
$DIMALT
 70
0
  9
$DIMALTD
 70
3
  9
$DIMALTF
 40
0.03937007874
  9
$DIMLFAC
 40
1.0
  9
$DIMTOFL
 70
1
  9
$DIMTVP
 40
0.0
  9
$DIMTIX
 70
0
  9
$DIMSOXD
 70
0
  9
$DIMSAH
 70
0
  9
$DIMBLK1
  1

  9
$DIMBLK2
  1

  9
$DIMSTYLE
  2
ISO-25
  9
$DIMCLRD
 70
0
  9
$DIMCLRE
 70
0
  9
$DIMCLRT
 70
0
  9
$DIMTFAC
 40
1.0
  9
$DIMGAP
 40
0.625
  9
$DIMJUST
 70
0
  9
$DIMSD1
 70
0
  9
$DIMSD2
 70
0
  9
$DIMTOLJ
 70
0
  9
$DIMTZIN
 70
8
  9
$DIMALTZ
 70
0
  9
$DIMALTTZ
 70
0
  9
$DIMUPT
 70
0
  9
$DIMDEC
 70
2
  9
$DIMTDEC
 70
2
  9
$DIMALTU
 70
2
  9
$DIMALTTD
 70
3
  9
$DIMTXSTY
  7
Standard
  9
$DIMAUNIT
 70
0
  9
$DIMADEC
 70
0
  9
$DIMALTRND
 40
0.0
  9
$DIMAZIN
 70
0
  9
$DIMDSEP
 70
44
  9
$DIMATFIT
 70
3
  9
$DIMFRAC
 70
0
  9
$DIMLDRBLK
  1

  9
$DIMLUNIT
 70
2
  9
$DIMLWD
 70
-2
  9
$DIMLWE
 70
-2
  9
$DIMTMOVE
 70
0
  9
$DIMFXL
 40
1.0
  9
$DIMFXLON
 70
0
  9
$DIMJOGANG
 40
0.785398163397
  9
$DIMTFILL
 70
0
  9
$DIMTFILLCLR
 70
0
  9
$DIMARCSYM
 70
0
  9
$DIMLTYPE
  6

  9
$DIMLTEX1
  6

  9
$DIMLTEX2
  6

  9
$DIMTXTDIRECTION
 70
0
  9
$LUNITS
 70
2
  9
$LUPREC
 70
4
  9
$SKETCHINC
 40
1.0
  9
$FILLETRAD
 40
10.0
  9
$AUNITS
 70
0
  9
$AUPREC
 70
2
  9
$MENU
  1
.
  9
$ELEVATION
 40
0.0
  9
$PELEVATION
 40
0.0
  9
$THICKNESS
 40
0.0
  9
$LIMCHECK
 70
0
  9
$CHAMFERA
 40
0.0
  9
$CHAMFERB
 40
0.0
  9
$CHAMFERC
 40
0.0
  9
$CHAMFERD
 40
0.0
  9
$SKPOLY
 70
0
  9
$TDCREATE
 40
2461138.721041667
  9
$TDUCREATE
 40
2458532.153996898
  9
$TDUPDATE
 40
2461138.721041667
  9
$TDUUPDATE
 40
2458532.1544311
  9
$TDINDWG
 40
0.0
  9
$TDUSRTIMER
 40
0.0
  9
$USRTIMER
 70
1
  9
$ANGBASE
 50
0.0
  9
$ANGDIR
 70
0
  9
$PDMODE
 70
0
  9
$PDSIZE
 40
0.0
  9
$PLINEWID
 40
0.0
  9
$SPLFRAME
 70
0
  9
$SPLINETYPE
 70
6
  9
$SPLINESEGS
 70
8
  9
$HANDSEED
  5
2A2
  9
$SURFTAB1
 70
6
  9
$SURFTAB2
 70
6
  9
$SURFTYPE
 70
6
  9
$SURFU
 70
6
  9
$SURFV
 70
6
  9
$UCSBASE
  2

  9
$UCSNAME
  2

  9
$UCSORG
 10
0.0
 20
0.0
 30
0.0
  9
$UCSXDIR
 10
1.0
 20
0.0
 30
0.0
  9
$UCSYDIR
 10
0.0
 20
1.0
 30
0.0
  9
$UCSORTHOREF
  2

  9
$UCSORTHOVIEW
 70
0
  9
$UCSORGTOP
 10
0.0
 20
0.0
 30
0.0
  9
$UCSORGBOTTOM
 10
0.0
 20
0.0
 30
0.0
  9
$UCSORGLEFT
 10
0.0
 20
0.0
 30
0.0
  9
$UCSORGRIGHT
 10
0.0
 20
0.0
 30
0.0
  9
$UCSORGFRONT
 10
0.0
 20
0.0
 30
0.0
  9
$UCSORGBACK
 10
0.0
 20
0.0
 30
0.0
  9
$PUCSBASE
  2

  9
$PUCSNAME
  2

  9
$PUCSORG
 10
0.0
 20
0.0
 30
0.0
  9
$PUCSXDIR
 10
1.0
 20
0.0
 30
0.0
  9
$PUCSYDIR
 10
0.0
 20
1.0
 30
0.0
  9
$PUCSORTHOREF
  2

  9
$PUCSORTHOVIEW
 70
0
  9
$PUCSORGTOP
 10
0.0
 20
0.0
 30
0.0
  9
$PUCSORGBOTTOM
 10
0.0
 20
0.0
 30
0.0
  9
$PUCSORGLEFT
 10
0.0
 20
0.0
 30
0.0
  9
$PUCSORGRIGHT
 10
0.0
 20
0.0
 30
0.0
  9
$PUCSORGFRONT
 10
0.0
 20
0.0
 30
0.0
  9
$PUCSORGBACK
 10
0.0
 20
0.0
 30
0.0
  9
$USERI1
 70
0
  9
$USERI2
 70
0
  9
$USERI3
 70
0
  9
$USERI4
 70
0
  9
$USERI5
 70
0
  9
$USERR1
 40
0.0
  9
$USERR2
 40
0.0
  9
$USERR3
 40
0.0
  9
$USERR4
 40
0.0
  9
$USERR5
 40
0.0
  9
$WORLDVIEW
 70
1
  9
$SHADEDGE
 70
3
  9
$SHADEDIF
 70
70
  9
$TILEMODE
 70
1
  9
$MAXACTVP
 70
64
  9
$PINSBASE
 10
0.0
 20
0.0
 30
0.0
  9
$PLIMCHECK
 70
0
  9
$PEXTMIN
 10
1e+20
 20
1e+20
 30
1e+20
  9
$PEXTMAX
 10
-1e+20
 20
-1e+20
 30
-1e+20
  9
$PLIMMIN
 10
0.0
 20
0.0
  9
$PLIMMAX
 10
420.0
 20
297.0
  9
$UNITMODE
 70
0
  9
$VISRETAIN
 70
1
  9
$PLINEGEN
 70
0
  9
$PSLTSCALE
 70
1
  9
$TREEDEPTH
 70
3020
  9
$CMLSTYLE
  2
Standard
  9
$CMLJUST
 70
0
  9
$CMLSCALE
 40
20.0
  9
$PROXYGRAPHICS
 70
1
  9
$MEASUREMENT
 70
1
  9
$CELWEIGHT
370
-1
  9
$ENDCAPS
280
0
  9
$JOINSTYLE
280
0
  9
$LWDISPLAY
290
0
  9
$INSUNITS
 70
6
  9
$HYPERLINKBASE
  1

  9
$STYLESHEET
  1

  9
$XEDIT
290
1
  9
$CEPSNTYPE
380
0
  9
$PSTYLEMODE
290
1
  9
$FINGERPRINTGUID
  2
{94406ADB-7EB9-4298-A15D-D5B6B0DEEF08}
  9
$VERSIONGUID
  2
{91EF97B8-7409-403D-BBCE-35C4F6EA89B6}
  9
$EXTNAMES
290
1
  9
$PSVPSCALE
 40
0.0
  9
$OLESTARTUP
290
0
  9
$SORTENTS
280
127
  9
$INDEXCTL
280
0
  9
$HIDETEXT
280
1
  9
$XCLIPFRAME
280
1
  9
$HALOGAP
280
0
  9
$OBSCOLOR
 70
257
  9
$OBSLTYPE
280
0
  9
$INTERSECTIONDISPLAY
280
0
  9
$INTERSECTIONCOLOR
 70
257
  9
$DIMASSOC
280
2
  9
$PROJECTNAME
  1

  9
$CAMERADISPLAY
290
0
  9
$LENSLENGTH
 40
50.0
  9
$CAMERAHEIGHT
 40
0.0
  9
$STEPSPERSEC
 40
24.0
  9
$STEPSIZE
 40
100.0
  9
$3DDWFPREC
 40
2.0
  9
$PSOLWIDTH
 40
0.005
  9
$PSOLHEIGHT
 40
0.08
  9
$LOFTANG1
 40
1.570796326795
  9
$LOFTANG2
 40
1.570796326795
  9
$LOFTMAG1
 40
0.0
  9
$LOFTMAG2
 40
0.0
  9
$LOFTPARAM
 70
7
  9
$LOFTNORMALS
280
1
  9
$LATITUDE
 40
37.795
  9
$LONGITUDE
 40
-122.394
  9
$NORTHDIRECTION
 40
0.0
  9
$TIMEZONE
 70
-8000
  9
$LIGHTGLYPHDISPLAY
280
1
  9
$TILEMODELIGHTSYNCH
280
1
  9
$CMATERIAL
347
20
  9
$SOLIDHIST
280
0
  9
$SHOWHIST
280
1
  9
$DWFFRAME
280
2
  9
$DGNFRAME
280
2
  9
$REALWORLDSCALE
290
1
  9
$INTERFERECOLOR
 62
256
  9
$CSHADOW
280
0
  9
$SHADOWPLANELOCATION
 40
0.0
  0
ENDSEC
  0
SECTION
  2
CLASSES
  0
CLASS
  1
ACDBDICTIONARYWDFLT
  2
AcDbDictionaryWithDefault
  3
ObjectDBX Classes
 90
0
 91
0
280
0
281
0
  0
CLASS
  1
SUN
  2
AcDbSun
  3
SCENEOE
 90
1153
 91
0
280
0
281
0
  0
CLASS
  1
VISUALSTYLE
  2
AcDbVisualStyle
  3
ObjectDBX Classes
 90
4095
 91
0
280
0
281
0
  0
CLASS
  1
MATERIAL
  2
AcDbMaterial
  3
ObjectDBX Classes
 90
1153
 91
0
280
0
281
0
  0
CLASS
  1
SCALE
  2
AcDbScale
  3
ObjectDBX Classes
 90
1153
 91
0
280
0
281
0
  0
CLASS
  1
TABLESTYLE
  2
AcDbTableStyle
  3
ObjectDBX Classes
 90
4095
 91
0
280
0
281
0
  0
CLASS
  1
MLEADERSTYLE
  2
AcDbMLeaderStyle
  3
ACDB_MLEADERSTYLE_CLASS
 90
4095
 91
0
280
0
281
0
  0
CLASS
  1
DICTIONARYVAR
  2
AcDbDictionaryVar
  3
ObjectDBX Classes
 90
0
 91
0
280
0
281
0
  0
CLASS
  1
CELLSTYLEMAP
  2
AcDbCellStyleMap
  3
ObjectDBX Classes
 90
1152
 91
0
280
0
281
0
  0
CLASS
  1
MENTALRAYRENDERSETTINGS
  2
AcDbMentalRayRenderSettings
  3
SCENEOE
 90
1024
 91
0
280
0
281
0
  0
CLASS
  1
ACDBDETAILVIEWSTYLE
  2
AcDbDetailViewStyle
  3
ObjectDBX Classes
 90
1025
 91
0
280
0
281
0
  0
CLASS
  1
ACDBSECTIONVIEWSTYLE
  2
AcDbSectionViewStyle
  3
ObjectDBX Classes
 90
1025
 91
0
280
0
281
0
  0
CLASS
  1
RASTERVARIABLES
  2
AcDbRasterVariables
  3
ISM
 90
0
 91
0
280
0
281
0
  0
CLASS
  1
ACDBPLACEHOLDER
  2
AcDbPlaceHolder
  3
ObjectDBX Classes
 90
0
 91
0
280
0
281
0
  0
CLASS
  1
LAYOUT
  2
AcDbLayout
  3
ObjectDBX Classes
 90
0
 91
0
280
0
281
0
  0
ENDSEC
  0
SECTION
  2
TABLES
  0
TABLE
  2
VPORT
  5
8
330
0
100
AcDbSymbolTable
 70
1
  0
VPORT
  5
23
330
8
100
AcDbSymbolTableRecord
100
AcDbViewportTableRecord
  2
*Active
 70
0
 10
0.0
 20
0.0
 11
1.0
 21
1.0
 12
0.0
 22
0.0
 13
0.0
 23
0.0
 14
0.5
 24
0.5
 15
0.5
 25
0.5
 16
0.0
 26
0.0
 36
1.0
 17
0.0
 27
0.0
 37
0.0
 40
1000.0
 41
1.34
 42
50.0
 43
0.0
 44
0.0
 50
0.0
 51
0.0
 71
0
 72
1000
 73
1
 74
3
 75
0
 76
0
 77
0
 78
0
281
0
 65
0
146
0.0
  0
ENDTAB
  0
TABLE
  2
LTYPE
  5
2
330
0
100
AcDbSymbolTable
 70
3
  0
LTYPE
  5
24
330
2
100
AcDbSymbolTableRecord
100
AcDbLinetypeTableRecord
  2
ByBlock
 70
0
  3

 72
65
 73
0
 40
0.0
  0
LTYPE
  5
25
330
2
100
AcDbSymbolTableRecord
100
AcDbLinetypeTableRecord
  2
ByLayer
 70
0
  3

 72
65
 73
0
 40
0.0
  0
LTYPE
  5
26
330
2
100
AcDbSymbolTableRecord
100
AcDbLinetypeTableRecord
  2
Continuous
 70
0
  3

 72
65
 73
0
 40
0.0
  0
ENDTAB
  0
TABLE
  2
LAYER
  5
1
330
0
100
AcDbSymbolTable
 70
2
  0
LAYER
  5
27
330
1
100
AcDbSymbolTableRecord
100
AcDbLayerTableRecord
  2
0
 70
0
 62
7
  6
Continuous
370
-3
390
13
347
21
  0
LAYER
  5
28
330
1
100
AcDbSymbolTableRecord
100
AcDbLayerTableRecord
  2
Defpoints
 70
0
 62
7
  6
Continuous
290
0
370
-3
390
13
347
21
  0
ENDTAB
  0
TABLE
  2
STYLE
  5
5
330
0
100
AcDbSymbolTable
 70
1
  0
STYLE
  5
29
330
5
100
AcDbSymbolTableRecord
100
AcDbTextStyleTableRecord
  2
Standard
 70
0
 40
0.0
 41
1.0
 50
0.0
 71
0
 42
2.5
  3
txt
  4

  0
ENDTAB
  0
TABLE
  2
VIEW
  5
7
330
0
100
AcDbSymbolTable
 70
0
  0
ENDTAB
  0
TABLE
  2
UCS
  5
6
330
0
100
AcDbSymbolTable
 70
0
  0
ENDTAB
  0
TABLE
  2
APPID
  5
3
330
0
100
AcDbSymbolTable
 70
3
  0
APPID
  5
2A
330
3
100
AcDbSymbolTableRecord
100
AcDbRegAppTableRecord
  2
ACAD
 70
0
  0
APPID
  5
29F
330
3
100
AcDbSymbolTableRecord
100
AcDbRegAppTableRecord
  2
HATCHBACKGROUNDCOLOR
 70
0
  0
APPID
  5
2A0
330
3
100
AcDbSymbolTableRecord
100
AcDbRegAppTableRecord
  2
EZDXF
 70
0
  0
ENDTAB
  0
TABLE
  2
DIMSTYLE
  5
4
330
0
100
AcDbSymbolTable
 70
1
100
AcDbDimStyleTable
  0
DIMSTYLE
105
2B
330
4
100
AcDbSymbolTableRecord
100
AcDbDimStyleTableRecord
  2
Standard
 70
0
 40
1.0
 41
2.5
 42
0.625
 43
3.75
 44
1.25
 45
0.0
 46
0.0
 47
0.0
 48
0.0
 49
2.5
140
2.5
141
2.5
142
0.0
143
0.03937007874
144
1.0
145
0.0
146
1.0
147
0.625
148
0.0
 69
0
 70
0
 71
0
 72
0
 73
0
 74
0
 75
0
 76
0
 77
1
 78
8
 79
3
170
0
171
3
172
1
173
0
174
0
175
0
176
0
177
0
178
0
179
2
271
2
272
2
273
2
274
3
275
0
276
0
277
2
278
44
279
0
280
0
281
0
282
0
283
0
284
8
285
0
286
0
288
0
289
3
290
0
371
-2
372
-2
  0
ENDTAB
  0
TABLE
  2
BLOCK_RECORD
  5
9
330
0
100
AcDbSymbolTable
 70
2
  0
BLOCK_RECORD
  5
17
330
9
100
AcDbSymbolTableRecord
100
AcDbBlockTableRecord
  2
*Model_Space
340
1A
 70
0
280
1
281
0
  0
BLOCK_RECORD
  5
1B
330
9
100
AcDbSymbolTableRecord
100
AcDbBlockTableRecord
  2
*Paper_Space
340
1E
 70
0
280
1
281
0
  0
ENDTAB
  0
ENDSEC
  0
SECTION
  2
BLOCKS
  0
BLOCK
  5
18
330
17
100
AcDbEntity
  8
0
100
AcDbBlockBegin
  2
*Model_Space
 70
0
 10
0.0
 20
0.0
 30
0.0
  3
*Model_Space
  1

  0
ENDBLK
  5
19
330
17
100
AcDbEntity
  8
0
100
AcDbBlockEnd
  0
BLOCK
  5
1C
330
1B
100
AcDbEntity
  8
0
100
AcDbBlockBegin
  2
*Paper_Space
 70
0
 10
0.0
 20
0.0
 30
0.0
  3
*Paper_Space
  1

  0
ENDBLK
  5
1D
330
1B
100
AcDbEntity
  8
0
100
AcDbBlockEnd
  0
ENDSEC
  0
SECTION
  2
ENTITIES
  0
LINE
  5
2F
330
17
100
AcDbEntity
  8
0
100
AcDbLine
 10
29.389324000000002
 20
-198.69531
 30
0.0
 11
28.56738
 21
-198.69378600000002
 31
0.0
  0
LINE
  5
30
330
17
100
AcDbEntity
  8
0
100
AcDbLine
 10
28.56738
 20
-198.69378600000002
 30
0.0
 11
27.745435999999998
 21
-198.692262
 31
0.0
  0
LINE
  5
31
330
17
100
AcDbEntity
  8
0
100
AcDbLine
 10
27.745435999999998
 20
-198.692262
 30
0.0
 11
26.923492
 21
-198.690738
 31
0.0
  0
LINE
  5
32
330
17
100
AcDbEntity
  8
0
100
AcDbLine
 10
26.923492
 20
-198.690738
 30
0.0
 11
26.101547999999998
 21
-198.68921400000002
 31
0.0
  0
LINE
  5
33
330
17
100
AcDbEntity
  8
0
100
AcDbLine
 10
26.101547999999998
 20
-198.68921400000002
 30
0.0
 11
25.279603999999996
 21
-198.68769000000003
 31
0.0
  0
LINE
  5
34
330
17
100
AcDbEntity
  8
0
100
AcDbLine
 10
25.279603999999996
 20
-198.68769000000003
 30
0.0
 11
24.457659999999994
 21
-198.68616600000004
 31
0.0
  0
LINE
  5
35
330
17
100
AcDbEntity
  8
0
100
AcDbLine
 10
24.457659999999994
 20
-198.68616600000004
 30
0.0
 11
23.635715999999995
 21
-198.68464200000005
 31
0.0
  0
LINE
  5
36
330
17
100
AcDbEntity
  8
0
100
AcDbLine
 10
23.635715999999995
 20
-198.68464200000005
 30
0.0
 11
22.813771999999993
 21
-198.68311800000006
 31
0.0
  0
LINE
  5
37
330
17
100
AcDbEntity
  8
0
100
AcDbLine
 10
22.813771999999993
 20
-198.68311800000006
 30
0.0
 11
22.789133999999994
 21
-196.93229600000004
 31
0.0
  0
LINE
  5
38
330
17
100
AcDbEntity
  8
0
100
AcDbLine
 10
22.789133999999994
 20
-196.93229600000004
 30
0.0
 11
22.764495999999994
 21
-195.18147400000004
 31
0.0
  0
LINE
  5
39
330
17
100
AcDbEntity
  8
0
100
AcDbLine
 10
22.764495999999994
 20
-195.18147400000004
 30
0.0
 11
22.739857999999998
 21
-193.43065200000004
 31
0.0
  0
LINE
  5
3A
330
17
100
AcDbEntity
  8
0
100
AcDbLine
 10
22.739857999999998
 20
-193.43065200000004
 30
0.0
 11
22.71522
 21
-191.67983000000004
 31
0.0
  0
LINE
  5
3B
330
17
100
AcDbEntity
  8
0
100
AcDbLine
 10
22.71522
 20
-191.67983000000004
 30
0.0
 11
22.690582
 21
-189.929008
 31
0.0
  0
LINE
  5
3C
330
17
100
AcDbEntity
  8
0
100
AcDbLine
 10
22.690582
 20
-189.929008
 30
0.0
 11
22.665944
 21
-188.178186
 31
0.0
  0
LINE
  5
3D
330
17
100
AcDbEntity
  8
0
100
AcDbLine
 10
22.665944
 20
-188.178186
 30
0.0
 11
22.641306000000004
 21
-186.427364
 31
0.0
  0
LINE
  5
3E
330
17
100
AcDbEntity
  8
0
100
AcDbLine
 10
22.641306000000004
 20
-186.427364
 30
0.0
 11
22.616668000000004
 21
-184.67654199999998
 31
0.0
  0
LINE
  5
3F
330
17
100
AcDbEntity
  8
0
100
AcDbLine
 10
22.616668000000004
 20
-184.67654199999998
 30
0.0
 11
22.648672000000005
 21
-184.309258
 31
0.0
  0
LINE
  5
40
330
17
100
AcDbEntity
  8
0
100
AcDbLine
 10
22.648672000000005
 20
-184.309258
 30
0.0
 11
22.750780000000006
 21
-183.96661199999997
 31
0.0
  0
LINE
  5
41
330
17
100
AcDbEntity
  8
0
100
AcDbLine
 10
22.750780000000006
 20
-183.96661199999997
 30
0.0
 11
22.915372000000005
 21
-183.65597
 31
0.0
  0
LINE
  5
42
330
17
100
AcDbEntity
  8
0
100
AcDbLine
 10
22.915372000000005
 20
-183.65597
 30
0.0
 11
23.135082000000004
 21
-183.384952
 31
0.0
  0
LINE
  5
43
330
17
100
AcDbEntity
  8
0
100
AcDbLine
 10
23.135082000000004
 20
-183.384952
 30
0.0
 11
23.402544000000002
 21
-183.160924
 31
0.0
  0
LINE
  5
44
330
17
100
AcDbEntity
  8
0
100
AcDbLine
 10
23.402544000000002
 20
-183.160924
 30
0.0
 11
23.710392000000002
 21
-182.991506
 31
0.0
  0
LINE
  5
45
330
17
100
AcDbEntity
  8
0
100
AcDbLine
 10
23.710392000000002
 20
-182.991506
 30
0.0
 11
24.051514000000005
 21
-182.88431799999998
 31
0.0
  0
LINE
  5
46
330
17
100
AcDbEntity
  8
0
100
AcDbLine
 10
24.051514000000005
 20
-182.88431799999998
 30
0.0
 11
24.418290000000006
 21
-182.84647199999998
 31
0.0
  0
LINE
  5
47
330
17
100
AcDbEntity
  8
0
100
AcDbLine
 10
24.418290000000006
 20
-182.84647199999998
 30
0.0
 11
25.006554000000005
 21
-182.84570999999997
 31
0.0
  0
LINE
  5
48
330
17
100
AcDbEntity
  8
0
100
AcDbLine
 10
25.006554000000005
 20
-182.84570999999997
 30
0.0
 11
25.594818000000007
 21
-182.84494799999996
 31
0.0
  0
LINE
  5
49
330
17
100
AcDbEntity
  8
0
100
AcDbLine
 10
25.594818000000007
 20
-182.84494799999996
 30
0.0
 11
26.183082000000006
 21
-182.84418599999995
 31
0.0
  0
LINE
  5
4A
330
17
100
AcDbEntity
  8
0
100
AcDbLine
 10
26.183082000000006
 20
-182.84418599999995
 30
0.0
 11
26.77134600000001
 21
-182.84342399999994
 31
0.0
  0
LINE
  5
4B
330
17
100
AcDbEntity
  8
0
100
AcDbLine
 10
26.77134600000001
 20
-182.84342399999994
 30
0.0
 11
27.359610000000007
 21
-182.84266199999993
 31
0.0
  0
LINE
  5
4C
330
17
100
AcDbEntity
  8
0
100
AcDbLine
 10
27.359610000000007
 20
-182.84266199999993
 30
0.0
 11
27.94787400000001
 21
-182.84189999999992
 31
0.0
  0
LINE
  5
4D
330
17
100
AcDbEntity
  8
0
100
AcDbLine
 10
27.94787400000001
 20
-182.84189999999992
 30
0.0
 11
28.536138000000008
 21
-182.84113799999992
 31
0.0
  0
LINE
  5
4E
330
17
100
AcDbEntity
  8
0
100
AcDbLine
 10
28.536138000000008
 20
-182.84113799999992
 30
0.0
 11
29.12440200000001
 21
-182.8403759999999
 31
0.0
  0
LINE
  5
4F
330
17
100
AcDbEntity
  8
0
100
AcDbLine
 10
29.12440200000001
 20
-182.8403759999999
 30
0.0
 11
29.157422000000008
 21
-184.8223379999999
 31
0.0
  0
LINE
  5
50
330
17
100
AcDbEntity
  8
0
100
AcDbLine
 10
29.157422000000008
 20
-184.8223379999999
 30
0.0
 11
29.190442000000008
 21
-186.8042999999999
 31
0.0
  0
LINE
  5
51
330
17
100
AcDbEntity
  8
0
100
AcDbLine
 10
29.190442000000008
 20
-186.8042999999999
 30
0.0
 11
29.22346200000001
 21
-188.7862619999999
 31
0.0
  0
LINE
  5
52
330
17
100
AcDbEntity
  8
0
100
AcDbLine
 10
29.22346200000001
 20
-188.7862619999999
 30
0.0
 11
29.256482000000005
 21
-190.7682239999999
 31
0.0
  0
LINE
  5
53
330
17
100
AcDbEntity
  8
0
100
AcDbLine
 10
29.256482000000005
 20
-190.7682239999999
 30
0.0
 11
29.289502000000006
 21
-192.7501859999999
 31
0.0
  0
LINE
  5
54
330
17
100
AcDbEntity
  8
0
100
AcDbLine
 10
29.289502000000006
 20
-192.7501859999999
 30
0.0
 11
29.322522000000003
 21
-194.7321479999999
 31
0.0
  0
LINE
  5
55
330
17
100
AcDbEntity
  8
0
100
AcDbLine
 10
29.322522000000003
 20
-194.7321479999999
 30
0.0
 11
29.355542000000003
 21
-196.7141099999999
 31
0.0
  0
LINE
  5
56
330
17
100
AcDbEntity
  8
0
100
AcDbLine
 10
29.355542000000003
 20
-196.7141099999999
 30
0.0
 11
29.388562
 21
-198.6960719999999
 31
0.0
  0
LINE
  5
57
330
17
100
AcDbEntity
  8
0
100
AcDbLine
 10
178.420268
 20
-198.2749399999999
 30
0.0
 11
179.304188
 21
-198.2665579999999
 31
0.0
  0
LINE
  5
58
330
17
100
AcDbEntity
  8
0
100
AcDbLine
 10
179.304188
 20
-198.2665579999999
 30
0.0
 11
180.188108
 21
-198.25817599999988
 31
0.0
  0
LINE
  5
59
330
17
100
AcDbEntity
  8
0
100
AcDbLine
 10
180.188108
 20
-198.25817599999988
 30
0.0
 11
181.07202800000002
 21
-198.24979399999987
 31
0.0
  0
LINE
  5
5A
330
17
100
AcDbEntity
  8
0
100
AcDbLine
 10
181.07202800000002
 20
-198.24979399999987
 30
0.0
 11
181.95594800000003
 21
-198.24141199999988
 31
0.0
  0
LINE
  5
5B
330
17
100
AcDbEntity
  8
0
100
AcDbLine
 10
181.95594800000003
 20
-198.24141199999988
 30
0.0
 11
182.83986800000002
 21
-198.23302999999987
 31
0.0
  0
LINE
  5
5C
330
17
100
AcDbEntity
  8
0
100
AcDbLine
 10
182.83986800000002
 20
-198.23302999999987
 30
0.0
 11
183.72378800000004
 21
-198.22464799999986
 31
0.0
  0
LINE
  5
5D
330
17
100
AcDbEntity
  8
0
100
AcDbLine
 10
183.72378800000004
 20
-198.22464799999986
 30
0.0
 11
184.60770800000003
 21
-198.21626599999988
 31
0.0
  0
LINE
  5
5E
330
17
100
AcDbEntity
  8
0
100
AcDbLine
 10
184.60770800000003
 20
-198.21626599999988
 30
0.0
 11
185.49162800000005
 21
-198.20788399999986
 31
0.0
  0
LINE
  5
5F
330
17
100
AcDbEntity
  8
0
100
AcDbLine
 10
185.49162800000005
 20
-198.20788399999986
 30
0.0
 11
185.49061200000003
 21
-196.64629199999985
 31
0.0
  0
LINE
  5
60
330
17
100
AcDbEntity
  8
0
100
AcDbLine
 10
185.49061200000003
 20
-196.64629199999985
 30
0.0
 11
185.48959600000003
 21
-195.08469999999986
 31
0.0
  0
LINE
  5
61
330
17
100
AcDbEntity
  8
0
100
AcDbLine
 10
185.48959600000003
 20
-195.08469999999986
 30
0.0
 11
185.48858
 21
-193.52310799999984
 31
0.0
  0
LINE
  5
62
330
17
100
AcDbEntity
  8
0
100
AcDbLine
 10
185.48858
 20
-193.52310799999984
 30
0.0
 11
185.48756400000002
 21
-191.96151599999985
 31
0.0
  0
LINE
  5
63
330
17
100
AcDbEntity
  8
0
100
AcDbLine
 10
185.48756400000002
 20
-191.96151599999985
 30
0.0
 11
185.48654800000003
 21
-190.39992399999983
 31
0.0
  0
LINE
  5
64
330
17
100
AcDbEntity
  8
0
100
AcDbLine
 10
185.48654800000003
 20
-190.39992399999983
 30
0.0
 11
185.485532
 21
-188.8383319999998
 31
0.0
  0
LINE
  5
65
330
17
100
AcDbEntity
  8
0
100
AcDbLine
 10
185.485532
 20
-188.8383319999998
 30
0.0
 11
185.484516
 21
-187.27673999999982
 31
0.0
  0
LINE
  5
66
330
17
100
AcDbEntity
  8
0
100
AcDbLine
 10
185.484516
 20
-187.27673999999982
 30
0.0
 11
185.4835
 21
-185.7151479999998
 31
0.0
  0
LINE
  5
67
330
17
100
AcDbEntity
  8
0
100
AcDbLine
 10
185.4835
 20
-185.7151479999998
 30
0.0
 11
185.217816
 21
-185.3046839999998
 31
0.0
  0
LINE
  5
68
330
17
100
AcDbEntity
  8
0
100
AcDbLine
 10
185.217816
 20
-185.3046839999998
 30
0.0
 11
184.965848
 21
-184.8838059999998
 31
0.0
  0
LINE
  5
69
330
17
100
AcDbEntity
  8
0
100
AcDbLine
 10
184.965848
 20
-184.8838059999998
 30
0.0
 11
184.725564
 21
-184.4525139999998
 31
0.0
  0
LINE
  5
6A
330
17
100
AcDbEntity
  8
0
100
AcDbLine
 10
184.725564
 20
-184.4525139999998
 30
0.0
 11
184.495186
 21
-184.01055399999981
 31
0.0
  0
LINE
  5
6B
330
17
100
AcDbEntity
  8
0
100
AcDbLine
 10
184.495186
 20
-184.01055399999981
 30
0.0
 11
184.272936
 21
-183.5579259999998
 31
0.0
  0
LINE
  5
6C
330
17
100
AcDbEntity
  8
0
100
AcDbLine
 10
184.272936
 20
-183.5579259999998
 30
0.0
 11
184.05678199999997
 21
-183.0946299999998
 31
0.0
  0
LINE
  5
6D
330
17
100
AcDbEntity
  8
0
100
AcDbLine
 10
184.05678199999997
 20
-183.0946299999998
 30
0.0
 11
183.844946
 21
-182.62041199999982
 31
0.0
  0
LINE
  5
6E
330
17
100
AcDbEntity
  8
0
100
AcDbLine
 10
183.844946
 20
-182.62041199999982
 30
0.0
 11
183.635396
 21
-182.13501799999983
 31
0.0
  0
LINE
  5
6F
330
17
100
AcDbEntity
  8
0
100
AcDbLine
 10
183.635396
 20
-182.13501799999983
 30
0.0
 11
182.983378
 21
-182.13831999999985
 31
0.0
  0
LINE
  5
70
330
17
100
AcDbEntity
  8
0
100
AcDbLine
 10
182.983378
 20
-182.13831999999985
 30
0.0
 11
182.33136
 21
-182.14162199999984
 31
0.0
  0
LINE
  5
71
330
17
100
AcDbEntity
  8
0
100
AcDbLine
 10
182.33136
 20
-182.14162199999984
 30
0.0
 11
181.679342
 21
-182.14492399999986
 31
0.0
  0
LINE
  5
72
330
17
100
AcDbEntity
  8
0
100
AcDbLine
 10
181.679342
 20
-182.14492399999986
 30
0.0
 11
181.02732399999996
 21
-182.14822599999985
 31
0.0
  0
LINE
  5
73
330
17
100
AcDbEntity
  8
0
100
AcDbLine
 10
181.02732399999996
 20
-182.14822599999985
 30
0.0
 11
180.37530599999997
 21
-182.15152799999987
 31
0.0
  0
LINE
  5
74
330
17
100
AcDbEntity
  8
0
100
AcDbLine
 10
180.37530599999997
 20
-182.15152799999987
 30
0.0
 11
179.72328799999997
 21
-182.1548299999999
 31
0.0
  0
LINE
  5
75
330
17
100
AcDbEntity
  8
0
100
AcDbLine
 10
179.72328799999997
 20
-182.1548299999999
 30
0.0
 11
179.07126999999997
 21
-182.15813199999988
 31
0.0
  0
LINE
  5
76
330
17
100
AcDbEntity
  8
0
100
AcDbLine
 10
179.07126999999997
 20
-182.15813199999988
 30
0.0
 11
178.41925199999997
 21
-182.1614339999999
 31
0.0
  0
LINE
  5
77
330
17
100
AcDbEntity
  8
0
100
AcDbLine
 10
178.41925199999997
 20
-182.1614339999999
 30
0.0
 11
178.41925199999997
 21
-184.1759079999999
 31
0.0
  0
LINE
  5
78
330
17
100
AcDbEntity
  8
0
100
AcDbLine
 10
178.41925199999997
 20
-184.1759079999999
 30
0.0
 11
178.41925199999997
 21
-186.19038199999991
 31
0.0
  0
LINE
  5
79
330
17
100
AcDbEntity
  8
0
100
AcDbLine
 10
178.41925199999997
 20
-186.19038199999991
 30
0.0
 11
178.41925199999997
 21
-188.20485599999992
 31
0.0
  0
LINE
  5
7A
330
17
100
AcDbEntity
  8
0
100
AcDbLine
 10
178.41925199999997
 20
-188.20485599999992
 30
0.0
 11
178.41925199999997
 21
-190.21932999999993
 31
0.0
  0
LINE
  5
7B
330
17
100
AcDbEntity
  8
0
100
AcDbLine
 10
178.41925199999997
 20
-190.21932999999993
 30
0.0
 11
178.41925199999997
 21
-192.23380399999996
 31
0.0
  0
LINE
  5
7C
330
17
100
AcDbEntity
  8
0
100
AcDbLine
 10
178.41925199999997
 20
-192.23380399999996
 30
0.0
 11
178.41925199999997
 21
-194.24827799999997
 31
0.0
  0
LINE
  5
7D
330
17
100
AcDbEntity
  8
0
100
AcDbLine
 10
178.41925199999997
 20
-194.24827799999997
 30
0.0
 11
178.41925199999997
 21
-196.26275199999998
 31
0.0
  0
LINE
  5
7E
330
17
100
AcDbEntity
  8
0
100
AcDbLine
 10
178.41925199999997
 20
-196.26275199999998
 30
0.0
 11
178.41925199999997
 21
-198.27722599999998
 31
0.0
  0
LINE
  5
7F
330
17
100
AcDbEntity
  8
0
100
AcDbLine
 10
113.50574199999997
 20
-206.17459399999998
 30
0.0
 11
113.66576199999997
 21
-205.802992
 31
0.0
  0
LINE
  5
80
330
17
100
AcDbEntity
  8
0
100
AcDbLine
 10
113.66576199999997
 20
-205.802992
 30
0.0
 11
113.82578199999996
 21
-205.43139
 31
0.0
  0
LINE
  5
81
330
17
100
AcDbEntity
  8
0
100
AcDbLine
 10
113.82578199999996
 20
-205.43139
 30
0.0
 11
113.98580199999996
 21
-205.059788
 31
0.0
  0
LINE
  5
82
330
17
100
AcDbEntity
  8
0
100
AcDbLine
 10
113.98580199999996
 20
-205.059788
 30
0.0
 11
114.14582199999997
 21
-204.688186
 31
0.0
  0
LINE
  5
83
330
17
100
AcDbEntity
  8
0
100
AcDbLine
 10
114.14582199999997
 20
-204.688186
 30
0.0
 11
114.30584199999997
 21
-204.31658400000003
 31
0.0
  0
LINE
  5
84
330
17
100
AcDbEntity
  8
0
100
AcDbLine
 10
114.30584199999997
 20
-204.31658400000003
 30
0.0
 11
114.46586199999996
 21
-203.94498200000004
 31
0.0
  0
LINE
  5
85
330
17
100
AcDbEntity
  8
0
100
AcDbLine
 10
114.46586199999996
 20
-203.94498200000004
 30
0.0
 11
114.62588199999996
 21
-203.57338000000004
 31
0.0
  0
LINE
  5
86
330
17
100
AcDbEntity
  8
0
100
AcDbLine
 10
114.62588199999996
 20
-203.57338000000004
 30
0.0
 11
114.78590199999996
 21
-203.20177800000005
 31
0.0
  0
LINE
  5
87
330
17
100
AcDbEntity
  8
0
100
AcDbLine
 10
114.78590199999996
 20
-203.20177800000005
 30
0.0
 11
114.88496199999996
 21
-202.95285800000005
 31
0.0
  0
LINE
  5
88
330
17
100
AcDbEntity
  8
0
100
AcDbLine
 10
114.88496199999996
 20
-202.95285800000005
 30
0.0
 11
115.01805799999995
 21
-202.71308200000004
 31
0.0
  0
LINE
  5
89
330
17
100
AcDbEntity
  8
0
100
AcDbLine
 10
115.01805799999995
 20
-202.71308200000004
 30
0.0
 11
115.18163399999996
 21
-202.49007000000003
 31
0.0
  0
LINE
  5
8A
330
17
100
AcDbEntity
  8
0
100
AcDbLine
 10
115.18163399999996
 20
-202.49007000000003
 30
0.0
 11
115.37187999999996
 21
-202.29068000000004
 31
0.0
  0
LINE
  5
8B
330
17
100
AcDbEntity
  8
0
100
AcDbLine
 10
115.37187999999996
 20
-202.29068000000004
 30
0.0
 11
115.58498599999996
 21
-202.12227800000005
 31
0.0
  0
LINE
  5
8C
330
17
100
AcDbEntity
  8
0
100
AcDbLine
 10
115.58498599999996
 20
-202.12227800000005
 30
0.0
 11
115.81739599999997
 21
-201.99223000000006
 31
0.0
  0
LINE
  5
8D
330
17
100
AcDbEntity
  8
0
100
AcDbLine
 10
115.81739599999997
 20
-201.99223000000006
 30
0.0
 11
116.06504599999998
 21
-201.90764800000008
 31
0.0
  0
LINE
  5
8E
330
17
100
AcDbEntity
  8
0
100
AcDbLine
 10
116.06504599999998
 20
-201.90764800000008
 30
0.0
 11
116.32437999999998
 21
-201.87589800000006
 31
0.0
  0
LINE
  5
8F
330
17
100
AcDbEntity
  8
0
100
AcDbLine
 10
116.32437999999998
 20
-201.87589800000006
 30
0.0
 11
118.88520799999998
 21
-201.87589800000006
 31
0.0
  0
LINE
  5
90
330
17
100
AcDbEntity
  8
0
100
AcDbLine
 10
118.88520799999998
 20
-201.87589800000006
 30
0.0
 11
121.44603599999998
 21
-201.87589800000006
 31
0.0
  0
LINE
  5
91
330
17
100
AcDbEntity
  8
0
100
AcDbLine
 10
121.44603599999998
 20
-201.87589800000006
 30
0.0
 11
124.00686399999998
 21
-201.87589800000006
 31
0.0
  0
LINE
  5
92
330
17
100
AcDbEntity
  8
0
100
AcDbLine
 10
124.00686399999998
 20
-201.87589800000006
 30
0.0
 11
126.56769199999998
 21
-201.87589800000006
 31
0.0
  0
LINE
  5
93
330
17
100
AcDbEntity
  8
0
100
AcDbLine
 10
126.56769199999998
 20
-201.87589800000006
 30
0.0
 11
129.12851999999998
 21
-201.87589800000006
 31
0.0
  0
LINE
  5
94
330
17
100
AcDbEntity
  8
0
100
AcDbLine
 10
129.12851999999998
 20
-201.87589800000006
 30
0.0
 11
131.68934799999997
 21
-201.87589800000006
 31
0.0
  0
LINE
  5
95
330
17
100
AcDbEntity
  8
0
100
AcDbLine
 10
131.68934799999997
 20
-201.87589800000006
 30
0.0
 11
134.25017599999998
 21
-201.87589800000006
 31
0.0
  0
LINE
  5
96
330
17
100
AcDbEntity
  8
0
100
AcDbLine
 10
134.25017599999998
 20
-201.87589800000006
 30
0.0
 11
136.81100399999997
 21
-201.87589800000006
 31
0.0
  0
LINE
  5
97
330
17
100
AcDbEntity
  8
0
100
AcDbLine
 10
136.81100399999997
 20
-201.87589800000006
 30
0.0
 11
137.06754399999997
 21
-201.90104400000007
 31
0.0
  0
LINE
  5
98
330
17
100
AcDbEntity
  8
0
100
AcDbLine
 10
137.06754399999997
 20
-201.90104400000007
 30
0.0
 11
137.30401799999999
 21
-201.97826000000006
 31
0.0
  0
LINE
  5
99
330
17
100
AcDbEntity
  8
0
100
AcDbLine
 10
137.30401799999999
 20
-201.97826000000006
 30
0.0
 11
137.51458399999996
 21
-202.10145000000009
 31
0.0
  0
LINE
  5
9A
330
17
100
AcDbEntity
  8
0
100
AcDbLine
 10
137.51458399999996
 20
-202.10145000000009
 30
0.0
 11
137.69365399999998
 21
-202.26426400000008
 31
0.0
  0
LINE
  5
9B
330
17
100
AcDbEntity
  8
0
100
AcDbLine
 10
137.69365399999998
 20
-202.26426400000008
 30
0.0
 11
137.83538599999997
 21
-202.46009800000004
 31
0.0
  0
LINE
  5
9C
330
17
100
AcDbEntity
  8
0
100
AcDbLine
 10
137.83538599999997
 20
-202.46009800000004
 30
0.0
 11
137.93419199999997
 21
-202.68285600000004
 31
0.0
  0
LINE
  5
9D
330
17
100
AcDbEntity
  8
0
100
AcDbLine
 10
137.93419199999997
 20
-202.68285600000004
 30
0.0
 11
137.98422999999997
 21
-202.92618800000002
 31
0.0
  0
LINE
  5
9E
330
17
100
AcDbEntity
  8
0
100
AcDbLine
 10
137.98422999999997
 20
-202.92618800000002
 30
0.0
 11
137.97991199999996
 21
-203.18374400000005
 31
0.0
  0
LINE
  5
9F
330
17
100
AcDbEntity
  8
0
100
AcDbLine
 10
137.97991199999996
 20
-203.18374400000005
 30
0.0
 11
137.91996799999995
 21
-203.64627800000005
 31
0.0
  0
LINE
  5
A0
330
17
100
AcDbEntity
  8
0
100
AcDbLine
 10
137.91996799999995
 20
-203.64627800000005
 30
0.0
 11
137.86256399999996
 21
-204.10043000000005
 31
0.0
  0
LINE
  5
A1
330
17
100
AcDbEntity
  8
0
100
AcDbLine
 10
137.86256399999996
 20
-204.10043000000005
 30
0.0
 11
137.81201799999997
 21
-204.56271000000007
 31
0.0
  0
LINE
  5
A2
330
17
100
AcDbEntity
  8
0
100
AcDbLine
 10
137.81201799999997
 20
-204.56271000000007
 30
0.0
 11
137.77188599999997
 21
-205.04937400000009
 31
0.0
  0
LINE
  5
A3
330
17
100
AcDbEntity
  8
0
100
AcDbLine
 10
137.77188599999997
 20
-205.04937400000009
 30
0.0
 11
137.74648599999998
 21
-205.57667800000007
 31
0.0
  0
LINE
  5
A4
330
17
100
AcDbEntity
  8
0
100
AcDbLine
 10
137.74648599999998
 20
-205.57667800000007
 30
0.0
 11
137.73937399999997
 21
-206.1611320000001
 31
0.0
  0
LINE
  5
A5
330
17
100
AcDbEntity
  8
0
100
AcDbLine
 10
137.73937399999997
 20
-206.1611320000001
 30
0.0
 11
137.75486799999996
 21
-206.8189920000001
 31
0.0
  0
LINE
  5
A6
330
17
100
AcDbEntity
  8
0
100
AcDbLine
 10
137.75486799999996
 20
-206.8189920000001
 30
0.0
 11
137.79652399999998
 21
-207.5665140000001
 31
0.0
  0
LINE
  5
A7
330
17
100
AcDbEntity
  8
0
100
AcDbLine
 10
137.79652399999998
 20
-207.5665140000001
 30
0.0
 11
137.78814199999997
 21
-207.8248320000001
 31
0.0
  0
LINE
  5
A8
330
17
100
AcDbEntity
  8
0
100
AcDbLine
 10
137.78814199999997
 20
-207.8248320000001
 30
0.0
 11
137.72895999999997
 21
-208.0679100000001
 31
0.0
  0
LINE
  5
A9
330
17
100
AcDbEntity
  8
0
100
AcDbLine
 10
137.72895999999997
 20
-208.0679100000001
 30
0.0
 11
137.62405799999996
 21
-208.28990600000012
 31
0.0
  0
LINE
  5
AA
330
17
100
AcDbEntity
  8
0
100
AcDbLine
 10
137.62405799999996
 20
-208.28990600000012
 30
0.0
 11
137.47851599999998
 21
-208.4852320000001
 31
0.0
  0
LINE
  5
AB
330
17
100
AcDbEntity
  8
0
100
AcDbLine
 10
137.47851599999998
 20
-208.4852320000001
 30
0.0
 11
137.297668
 21
-208.6480460000001
 31
0.0
  0
LINE
  5
AC
330
17
100
AcDbEntity
  8
0
100
AcDbLine
 10
137.297668
 20
-208.6480460000001
 30
0.0
 11
137.08659399999996
 21
-208.7725060000001
 31
0.0
  0
LINE
  5
AD
330
17
100
AcDbEntity
  8
0
100
AcDbLine
 10
137.08659399999996
 20
-208.7725060000001
 30
0.0
 11
136.850374
 21
-208.85302400000012
 31
0.0
  0
LINE
  5
AE
330
17
100
AcDbEntity
  8
0
100
AcDbLine
 10
136.850374
 20
-208.85302400000012
 30
0.0
 11
136.594088
 21
-208.8837580000001
 31
0.0
  0
LINE
  5
AF
330
17
100
AcDbEntity
  8
0
100
AcDbLine
 10
136.594088
 20
-208.8837580000001
 30
0.0
 11
135.205216
 21
-208.90153800000013
 31
0.0
  0
LINE
  5
B0
330
17
100
AcDbEntity
  8
0
100
AcDbLine
 10
135.205216
 20
-208.90153800000013
 30
0.0
 11
133.18337599999998
 21
-208.92363600000013
 31
0.0
  0
LINE
  5
B1
330
17
100
AcDbEntity
  8
0
100
AcDbLine
 10
133.18337599999998
 20
-208.92363600000013
 30
0.0
 11
130.650996
 21
-208.9492900000001
 31
0.0
  0
LINE
  5
B2
330
17
100
AcDbEntity
  8
0
100
AcDbLine
 10
130.650996
 20
-208.9492900000001
 30
0.0
 11
127.73075799999998
 21
-208.97748400000012
 31
0.0
  0
LINE
  5
B3
330
17
100
AcDbEntity
  8
0
100
AcDbLine
 10
127.73075799999998
 20
-208.97748400000012
 30
0.0
 11
124.54559799999997
 21
-209.00745600000013
 31
0.0
  0
LINE
  5
B4
330
17
100
AcDbEntity
  8
0
100
AcDbLine
 10
124.54559799999997
 20
-209.00745600000013
 30
0.0
 11
121.21794399999997
 21
-209.03819000000013
 31
0.0
  0
LINE
  5
B5
330
17
100
AcDbEntity
  8
0
100
AcDbLine
 10
121.21794399999997
 20
-209.03819000000013
 30
0.0
 11
117.87073199999998
 21
-209.0691780000001
 31
0.0
  0
LINE
  5
B6
330
17
100
AcDbEntity
  8
0
100
AcDbLine
 10
117.87073199999998
 20
-209.0691780000001
 30
0.0
 11
114.62638999999996
 21
-209.0994040000001
 31
0.0
  0
LINE
  5
B7
330
17
100
AcDbEntity
  8
0
100
AcDbLine
 10
114.62638999999996
 20
-209.0994040000001
 30
0.0
 11
114.23040399999996
 21
-209.05241400000014
 31
0.0
  0
LINE
  5
B8
330
17
100
AcDbEntity
  8
0
100
AcDbLine
 10
114.23040399999996
 20
-209.05241400000014
 30
0.0
 11
113.87734399999997
 21
-208.91322200000013
 31
0.0
  0
LINE
  5
B9
330
17
100
AcDbEntity
  8
0
100
AcDbLine
 10
113.87734399999997
 20
-208.91322200000013
 30
0.0
 11
113.57686199999996
 21
-208.69656000000015
 31
0.0
  0
LINE
  5
BA
330
17
100
AcDbEntity
  8
0
100
AcDbLine
 10
113.57686199999996
 20
-208.69656000000015
 30
0.0
 11
113.33886399999996
 21
-208.41716000000014
 31
0.0
  0
LINE
  5
BB
330
17
100
AcDbEntity
  8
0
100
AcDbLine
 10
113.33886399999996
 20
-208.41716000000014
 30
0.0
 11
113.17325599999997
 21
-208.08975400000014
 31
0.0
  0
LINE
  5
BC
330
17
100
AcDbEntity
  8
0
100
AcDbLine
 10
113.17325599999997
 20
-208.08975400000014
 30
0.0
 11
113.08968999999996
 21
-207.72907400000014
 31
0.0
  0
LINE
  5
BD
330
17
100
AcDbEntity
  8
0
100
AcDbLine
 10
113.08968999999996
 20
-207.72907400000014
 30
0.0
 11
113.09807199999996
 21
-207.34985200000014
 31
0.0
  0
LINE
  5
BE
330
17
100
AcDbEntity
  8
0
100
AcDbLine
 10
113.09807199999996
 20
-207.34985200000014
 30
0.0
 11
113.20805399999996
 21
-206.96656600000014
 31
0.0
  0
LINE
  5
BF
330
17
100
AcDbEntity
  8
0
100
AcDbLine
 10
113.20805399999996
 20
-206.96656600000014
 30
0.0
 11
113.20932399999997
 21
-206.96377200000015
 31
0.0
  0
LINE
  5
C0
330
17
100
AcDbEntity
  8
0
100
AcDbLine
 10
113.20932399999997
 20
-206.96377200000015
 30
0.0
 11
113.21059399999996
 21
-206.96097800000015
 31
0.0
  0
LINE
  5
C1
330
17
100
AcDbEntity
  8
0
100
AcDbLine
 10
113.21059399999996
 20
-206.96097800000015
 30
0.0
 11
113.21186399999996
 21
-206.95818400000016
 31
0.0
  0
LINE
  5
C2
330
17
100
AcDbEntity
  8
0
100
AcDbLine
 10
113.21186399999996
 20
-206.95818400000016
 30
0.0
 11
113.21313399999995
 21
-206.95539000000016
 31
0.0
  0
LINE
  5
C3
330
17
100
AcDbEntity
  8
0
100
AcDbLine
 10
113.21313399999995
 20
-206.95539000000016
 30
0.0
 11
113.21440399999996
 21
-206.95259600000017
 31
0.0
  0
LINE
  5
C4
330
17
100
AcDbEntity
  8
0
100
AcDbLine
 10
113.21440399999996
 20
-206.95259600000017
 30
0.0
 11
113.21567399999995
 21
-206.94980200000018
 31
0.0
  0
LINE
  5
C5
330
17
100
AcDbEntity
  8
0
100
AcDbLine
 10
113.21567399999995
 20
-206.94980200000018
 30
0.0
 11
113.21694399999996
 21
-206.94700800000018
 31
0.0
  0
LINE
  5
C6
330
17
100
AcDbEntity
  8
0
100
AcDbLine
 10
113.21694399999996
 20
-206.94700800000018
 30
0.0
 11
113.21821399999996
 21
-206.94421400000022
 31
0.0
  0
LINE
  5
C7
330
17
100
AcDbEntity
  8
0
100
AcDbLine
 10
113.21821399999996
 20
-206.94421400000022
 30
0.0
 11
113.25834599999996
 21
-206.8497260000002
 31
0.0
  0
LINE
  5
C8
330
17
100
AcDbEntity
  8
0
100
AcDbLine
 10
113.25834599999996
 20
-206.8497260000002
 30
0.0
 11
113.29720799999997
 21
-206.7547300000002
 31
0.0
  0
LINE
  5
C9
330
17
100
AcDbEntity
  8
0
100
AcDbLine
 10
113.29720799999997
 20
-206.7547300000002
 30
0.0
 11
113.33505399999996
 21
-206.65922600000022
 31
0.0
  0
LINE
  5
CA
330
17
100
AcDbEntity
  8
0
100
AcDbLine
 10
113.33505399999996
 20
-206.65922600000022
 30
0.0
 11
113.37162999999997
 21
-206.56346800000023
 31
0.0
  0
LINE
  5
CB
330
17
100
AcDbEntity
  8
0
100
AcDbLine
 10
113.37162999999997
 20
-206.56346800000023
 30
0.0
 11
113.40718999999996
 21
-206.4672020000002
 31
0.0
  0
LINE
  5
CC
330
17
100
AcDbEntity
  8
0
100
AcDbLine
 10
113.40718999999996
 20
-206.4672020000002
 30
0.0
 11
113.44147999999996
 21
-206.37042800000023
 31
0.0
  0
LINE
  5
CD
330
17
100
AcDbEntity
  8
0
100
AcDbLine
 10
113.44147999999996
 20
-206.37042800000023
 30
0.0
 11
113.47449999999996
 21
-206.27340000000024
 31
0.0
  0
LINE
  5
CE
330
17
100
AcDbEntity
  8
0
100
AcDbLine
 10
113.47449999999996
 20
-206.27340000000024
 30
0.0
 11
113.50650399999995
 21
-206.17586400000025
 31
0.0
  0
LINE
  5
CF
330
17
100
AcDbEntity
  8
0
100
AcDbLine
 10
78.42757999999995
 20
-202.35392600000023
 30
0.0
 11
78.42757999999995
 21
-202.92898200000022
 31
0.0
  0
LINE
  5
D0
330
17
100
AcDbEntity
  8
0
100
AcDbLine
 10
78.42757999999995
 20
-202.92898200000022
 30
0.0
 11
78.42757999999995
 21
-203.50403800000024
 31
0.0
  0
LINE
  5
D1
330
17
100
AcDbEntity
  8
0
100
AcDbLine
 10
78.42757999999995
 20
-203.50403800000024
 30
0.0
 11
78.42757999999995
 21
-204.07909400000023
 31
0.0
  0
LINE
  5
D2
330
17
100
AcDbEntity
  8
0
100
AcDbLine
 10
78.42757999999995
 20
-204.07909400000023
 30
0.0
 11
78.42757999999995
 21
-204.65415000000024
 31
0.0
  0
LINE
  5
D3
330
17
100
AcDbEntity
  8
0
100
AcDbLine
 10
78.42757999999995
 20
-204.65415000000024
 30
0.0
 11
78.42757999999995
 21
-205.22920600000023
 31
0.0
  0
LINE
  5
D4
330
17
100
AcDbEntity
  8
0
100
AcDbLine
 10
78.42757999999995
 20
-205.22920600000023
 30
0.0
 11
78.42757999999995
 21
-205.80426200000025
 31
0.0
  0
LINE
  5
D5
330
17
100
AcDbEntity
  8
0
100
AcDbLine
 10
78.42757999999995
 20
-205.80426200000025
 30
0.0
 11
78.42757999999995
 21
-206.37931800000024
 31
0.0
  0
LINE
  5
D6
330
17
100
AcDbEntity
  8
0
100
AcDbLine
 10
78.42757999999995
 20
-206.37931800000024
 30
0.0
 11
78.42757999999995
 21
-206.95437400000026
 31
0.0
  0
LINE
  5
D7
330
17
100
AcDbEntity
  8
0
100
AcDbLine
 10
78.42757999999995
 20
-206.95437400000026
 30
0.0
 11
78.40065599999996
 21
-207.22031200000026
 31
0.0
  0
LINE
  5
D8
330
17
100
AcDbEntity
  8
0
100
AcDbLine
 10
78.40065599999996
 20
-207.22031200000026
 30
0.0
 11
78.32318599999995
 21
-207.46847000000025
 31
0.0
  0
LINE
  5
D9
330
17
100
AcDbEntity
  8
0
100
AcDbLine
 10
78.32318599999995
 20
-207.46847000000025
 30
0.0
 11
78.20075799999995
 21
-207.69326000000024
 31
0.0
  0
LINE
  5
DA
330
17
100
AcDbEntity
  8
0
100
AcDbLine
 10
78.20075799999995
 20
-207.69326000000024
 30
0.0
 11
78.03870599999995
 21
-207.88934800000027
 31
0.0
  0
LINE
  5
DB
330
17
100
AcDbEntity
  8
0
100
AcDbLine
 10
78.03870599999995
 20
-207.88934800000027
 30
0.0
 11
77.84261799999996
 21
-208.05140000000026
 31
0.0
  0
LINE
  5
DC
330
17
100
AcDbEntity
  8
0
100
AcDbLine
 10
77.84261799999996
 20
-208.05140000000026
 30
0.0
 11
77.61782799999996
 21
-208.17382800000027
 31
0.0
  0
LINE
  5
DD
330
17
100
AcDbEntity
  8
0
100
AcDbLine
 10
77.61782799999996
 20
-208.17382800000027
 30
0.0
 11
77.36992399999995
 21
-208.25129800000025
 31
0.0
  0
LINE
  5
DE
330
17
100
AcDbEntity
  8
0
100
AcDbLine
 10
77.36992399999995
 20
-208.25129800000025
 30
0.0
 11
77.10398599999995
 21
-208.27822200000026
 31
0.0
  0
LINE
  5
DF
330
17
100
AcDbEntity
  8
0
100
AcDbLine
 10
77.10398599999995
 20
-208.27822200000026
 30
0.0
 11
75.41691799999995
 21
-208.27822200000026
 31
0.0
  0
LINE
  5
E0
330
17
100
AcDbEntity
  8
0
100
AcDbLine
 10
75.41691799999995
 20
-208.27822200000026
 30
0.0
 11
73.72984999999996
 21
-208.27822200000026
 31
0.0
  0
LINE
  5
E1
330
17
100
AcDbEntity
  8
0
100
AcDbLine
 10
73.72984999999996
 20
-208.27822200000026
 30
0.0
 11
72.04278199999996
 21
-208.27822200000026
 31
0.0
  0
LINE
  5
E2
330
17
100
AcDbEntity
  8
0
100
AcDbLine
 10
72.04278199999996
 20
-208.27822200000026
 30
0.0
 11
70.35571399999995
 21
-208.27822200000026
 31
0.0
  0
LINE
  5
E3
330
17
100
AcDbEntity
  8
0
100
AcDbLine
 10
70.35571399999995
 20
-208.27822200000026
 30
0.0
 11
68.66864599999995
 21
-208.27822200000026
 31
0.0
  0
LINE
  5
E4
330
17
100
AcDbEntity
  8
0
100
AcDbLine
 10
68.66864599999995
 20
-208.27822200000026
 30
0.0
 11
66.98157799999996
 21
-208.27822200000026
 31
0.0
  0
LINE
  5
E5
330
17
100
AcDbEntity
  8
0
100
AcDbLine
 10
66.98157799999996
 20
-208.27822200000026
 30
0.0
 11
65.29450999999996
 21
-208.27822200000026
 31
0.0
  0
LINE
  5
E6
330
17
100
AcDbEntity
  8
0
100
AcDbLine
 10
65.29450999999996
 20
-208.27822200000026
 30
0.0
 11
63.607441999999956
 21
-208.27822200000026
 31
0.0
  0
LINE
  5
E7
330
17
100
AcDbEntity
  8
0
100
AcDbLine
 10
63.607441999999956
 20
-208.27822200000026
 30
0.0
 11
63.34150399999996
 21
-208.25129800000025
 31
0.0
  0
LINE
  5
E8
330
17
100
AcDbEntity
  8
0
100
AcDbLine
 10
63.34150399999996
 20
-208.25129800000025
 30
0.0
 11
63.09359999999996
 21
-208.17382800000027
 31
0.0
  0
LINE
  5
E9
330
17
100
AcDbEntity
  8
0
100
AcDbLine
 10
63.09359999999996
 20
-208.17382800000027
 30
0.0
 11
62.86880999999996
 21
-208.05140000000026
 31
0.0
  0
LINE
  5
EA
330
17
100
AcDbEntity
  8
0
100
AcDbLine
 10
62.86880999999996
 20
-208.05140000000026
 30
0.0
 11
62.672721999999965
 21
-207.88934800000027
 31
0.0
  0
LINE
  5
EB
330
17
100
AcDbEntity
  8
0
100
AcDbLine
 10
62.672721999999965
 20
-207.88934800000027
 30
0.0
 11
62.51066999999996
 21
-207.69326000000024
 31
0.0
  0
LINE
  5
EC
330
17
100
AcDbEntity
  8
0
100
AcDbLine
 10
62.51066999999996
 20
-207.69326000000024
 30
0.0
 11
62.38824199999996
 21
-207.46847000000025
 31
0.0
  0
LINE
  5
ED
330
17
100
AcDbEntity
  8
0
100
AcDbLine
 10
62.38824199999996
 20
-207.46847000000025
 30
0.0
 11
62.31077199999996
 21
-207.22056600000025
 31
0.0
  0
LINE
  5
EE
330
17
100
AcDbEntity
  8
0
100
AcDbLine
 10
62.31077199999996
 20
-207.22056600000025
 30
0.0
 11
62.28384799999996
 21
-206.95462800000024
 31
0.0
  0
LINE
  5
EF
330
17
100
AcDbEntity
  8
0
100
AcDbLine
 10
62.28384799999996
 20
-206.95462800000024
 30
0.0
 11
62.28384799999996
 21
-206.39074800000023
 31
0.0
  0
LINE
  5
F0
330
17
100
AcDbEntity
  8
0
100
AcDbLine
 10
62.28384799999996
 20
-206.39074800000023
 30
0.0
 11
62.28384799999996
 21
-205.82686800000022
 31
0.0
  0
LINE
  5
F1
330
17
100
AcDbEntity
  8
0
100
AcDbLine
 10
62.28384799999996
 20
-205.82686800000022
 30
0.0
 11
62.28384799999996
 21
-205.26298800000023
 31
0.0
  0
LINE
  5
F2
330
17
100
AcDbEntity
  8
0
100
AcDbLine
 10
62.28384799999996
 20
-205.26298800000023
 30
0.0
 11
62.28384799999996
 21
-204.69910800000022
 31
0.0
  0
LINE
  5
F3
330
17
100
AcDbEntity
  8
0
100
AcDbLine
 10
62.28384799999996
 20
-204.69910800000022
 30
0.0
 11
62.28384799999996
 21
-204.1352280000002
 31
0.0
  0
LINE
  5
F4
330
17
100
AcDbEntity
  8
0
100
AcDbLine
 10
62.28384799999996
 20
-204.1352280000002
 30
0.0
 11
62.28384799999996
 21
-203.5713480000002
 31
0.0
  0
LINE
  5
F5
330
17
100
AcDbEntity
  8
0
100
AcDbLine
 10
62.28384799999996
 20
-203.5713480000002
 30
0.0
 11
62.28384799999996
 21
-203.0074680000002
 31
0.0
  0
LINE
  5
F6
330
17
100
AcDbEntity
  8
0
100
AcDbLine
 10
62.28384799999996
 20
-203.0074680000002
 30
0.0
 11
62.28384799999996
 21
-202.44358800000018
 31
0.0
  0
LINE
  5
F7
330
17
100
AcDbEntity
  8
0
100
AcDbLine
 10
62.28384799999996
 20
-202.44358800000018
 30
0.0
 11
62.276735999999964
 21
-202.37450000000018
 31
0.0
  0
LINE
  5
F8
330
17
100
AcDbEntity
  8
0
100
AcDbLine
 10
62.276735999999964
 20
-202.37450000000018
 30
0.0
 11
62.256669999999964
 21
-202.30998400000018
 31
0.0
  0
LINE
  5
F9
330
17
100
AcDbEntity
  8
0
100
AcDbLine
 10
62.256669999999964
 20
-202.30998400000018
 30
0.0
 11
62.22491999999996
 21
-202.25181800000016
 31
0.0
  0
LINE
  5
FA
330
17
100
AcDbEntity
  8
0
100
AcDbLine
 10
62.22491999999996
 20
-202.25181800000016
 30
0.0
 11
62.18300999999997
 21
-202.20101800000015
 31
0.0
  0
LINE
  5
FB
330
17
100
AcDbEntity
  8
0
100
AcDbLine
 10
62.18300999999997
 20
-202.20101800000015
 30
0.0
 11
62.132209999999965
 21
-202.15910800000015
 31
0.0
  0
LINE
  5
FC
330
17
100
AcDbEntity
  8
0
100
AcDbLine
 10
62.132209999999965
 20
-202.15910800000015
 30
0.0
 11
62.07378999999997
 21
-202.12761200000014
 31
0.0
  0
LINE
  5
FD
330
17
100
AcDbEntity
  8
0
100
AcDbLine
 10
62.07378999999997
 20
-202.12761200000014
 30
0.0
 11
62.00927399999997
 21
-202.10780000000017
 31
0.0
  0
LINE
  5
FE
330
17
100
AcDbEntity
  8
0
100
AcDbLine
 10
62.00927399999997
 20
-202.10780000000017
 30
0.0
 11
61.93993199999997
 21
-202.10094200000015
 31
0.0
  0
LINE
  5
FF
330
17
100
AcDbEntity
  8
0
100
AcDbLine
 10
61.93993199999997
 20
-202.10094200000015
 30
0.0
 11
58.04128599999998
 21
-202.11491200000015
 31
0.0
  0
LINE
  5
100
330
17
100
AcDbEntity
  8
0
100
AcDbLine
 10
58.04128599999998
 20
-202.11491200000015
 30
0.0
 11
54.14263999999998
 21
-202.12888200000012
 31
0.0
  0
LINE
  5
101
330
17
100
AcDbEntity
  8
0
100
AcDbLine
 10
54.14263999999998
 20
-202.12888200000012
 30
0.0
 11
50.24399399999998
 21
-202.14285200000012
 31
0.0
  0
LINE
  5
102
330
17
100
AcDbEntity
  8
0
100
AcDbLine
 10
50.24399399999998
 20
-202.14285200000012
 30
0.0
 11
46.34534799999998
 21
-202.1568220000001
 31
0.0
  0
LINE
  5
103
330
17
100
AcDbEntity
  8
0
100
AcDbLine
 10
46.34534799999998
 20
-202.1568220000001
 30
0.0
 11
42.44670199999999
 21
-202.1707920000001
 31
0.0
  0
LINE
  5
104
330
17
100
AcDbEntity
  8
0
100
AcDbLine
 10
42.44670199999999
 20
-202.1707920000001
 30
0.0
 11
38.54805599999999
 21
-202.18476200000006
 31
0.0
  0
LINE
  5
105
330
17
100
AcDbEntity
  8
0
100
AcDbLine
 10
38.54805599999999
 20
-202.18476200000006
 30
0.0
 11
34.64940999999999
 21
-202.19873200000006
 31
0.0
  0
LINE
  5
106
330
17
100
AcDbEntity
  8
0
100
AcDbLine
 10
34.64940999999999
 20
-202.19873200000006
 30
0.0
 11
30.75076399999999
 21
-202.21270200000004
 31
0.0
  0
LINE
  5
107
330
17
100
AcDbEntity
  8
0
100
AcDbLine
 10
30.75076399999999
 20
-202.21270200000004
 30
0.0
 11
30.272735999999988
 21
-202.27137600000003
 31
0.0
  0
LINE
  5
108
330
17
100
AcDbEntity
  8
0
100
AcDbLine
 10
30.272735999999988
 20
-202.27137600000003
 30
0.0
 11
29.88284599999999
 21
-202.42961800000006
 31
0.0
  0
LINE
  5
109
330
17
100
AcDbEntity
  8
0
100
AcDbLine
 10
29.88284599999999
 20
-202.42961800000006
 30
0.0
 11
29.591507999999987
 21
-202.66609200000008
 31
0.0
  0
LINE
  5
10A
330
17
100
AcDbEntity
  8
0
100
AcDbLine
 10
29.591507999999987
 20
-202.66609200000008
 30
0.0
 11
29.40888199999999
 21
-202.95920800000007
 31
0.0
  0
LINE
  5
10B
330
17
100
AcDbEntity
  8
0
100
AcDbLine
 10
29.40888199999999
 20
-202.95920800000007
 30
0.0
 11
29.34512799999999
 21
-203.28788400000005
 31
0.0
  0
LINE
  5
10C
330
17
100
AcDbEntity
  8
0
100
AcDbLine
 10
29.34512799999999
 20
-203.28788400000005
 30
0.0
 11
29.410659999999986
 21
-203.63078400000006
 31
0.0
  0
LINE
  5
10D
330
17
100
AcDbEntity
  8
0
100
AcDbLine
 10
29.410659999999986
 20
-203.63078400000006
 30
0.0
 11
29.615637999999986
 21
-203.96657200000007
 31
0.0
  0
LINE
  5
10E
330
17
100
AcDbEntity
  8
0
100
AcDbLine
 10
29.615637999999986
 20
-203.96657200000007
 30
0.0
 11
29.97022199999999
 21
-204.27391200000008
 31
0.0
  0
LINE
  5
10F
330
17
100
AcDbEntity
  8
0
100
AcDbLine
 10
29.97022199999999
 20
-204.27391200000008
 30
0.0
 11
32.301433999999986
 21
-205.94853400000008
 31
0.0
  0
LINE
  5
110
330
17
100
AcDbEntity
  8
0
100
AcDbLine
 10
32.301433999999986
 20
-205.94853400000008
 30
0.0
 11
34.548825999999984
 21
-207.86394800000008
 31
0.0
  0
LINE
  5
111
330
17
100
AcDbEntity
  8
0
100
AcDbLine
 10
34.548825999999984
 20
-207.86394800000008
 30
0.0
 11
36.61917999999999
 21
-209.9995800000001
 31
0.0
  0
LINE
  5
112
330
17
100
AcDbEntity
  8
0
100
AcDbLine
 10
36.61917999999999
 20
-209.9995800000001
 30
0.0
 11
38.418769999999995
 21
-212.3348560000001
 31
0.0
  0
LINE
  5
113
330
17
100
AcDbEntity
  8
0
100
AcDbLine
 10
38.418769999999995
 20
-212.3348560000001
 30
0.0
 11
39.85437799999999
 21
-214.84945600000006
 31
0.0
  0
LINE
  5
114
330
17
100
AcDbEntity
  8
0
100
AcDbLine
 10
39.85437799999999
 20
-214.84945600000006
 30
0.0
 11
40.832531999999986
 21
-217.52280600000006
 31
0.0
  0
LINE
  5
115
330
17
100
AcDbEntity
  8
0
100
AcDbLine
 10
40.832531999999986
 20
-217.52280600000006
 30
0.0
 11
41.260013999999984
 21
-220.33433200000005
 31
0.0
  0
LINE
  5
116
330
17
100
AcDbEntity
  8
0
100
AcDbLine
 10
41.260013999999984
 20
-220.33433200000005
 30
0.0
 11
41.043097999999986
 21
-223.26346000000007
 31
0.0
  0
LINE
  5
117
330
17
100
AcDbEntity
  8
0
100
AcDbLine
 10
41.043097999999986
 20
-223.26346000000007
 30
0.0
 11
40.500807999999985
 21
-225.68839800000006
 31
0.0
  0
LINE
  5
118
330
17
100
AcDbEntity
  8
0
100
AcDbLine
 10
40.500807999999985
 20
-225.68839800000006
 30
0.0
 11
39.82542199999999
 21
-228.07701400000008
 31
0.0
  0
LINE
  5
119
330
17
100
AcDbEntity
  8
0
100
AcDbLine
 10
39.82542199999999
 20
-228.07701400000008
 30
0.0
 11
39.040815999999985
 21
-230.43515000000008
 31
0.0
  0
LINE
  5
11A
330
17
100
AcDbEntity
  8
0
100
AcDbLine
 10
39.040815999999985
 20
-230.43515000000008
 30
0.0
 11
38.17086599999998
 21
-232.76814000000005
 31
0.0
  0
LINE
  5
11B
330
17
100
AcDbEntity
  8
0
100
AcDbLine
 10
38.17086599999998
 20
-232.76814000000005
 30
0.0
 11
37.23970199999999
 21
-235.08182600000006
 31
0.0
  0
LINE
  5
11C
330
17
100
AcDbEntity
  8
0
100
AcDbLine
 10
37.23970199999999
 20
-235.08182600000006
 30
0.0
 11
36.271199999999986
 21
-237.38205000000008
 31
0.0
  0
LINE
  5
11D
330
17
100
AcDbEntity
  8
0
100
AcDbLine
 10
36.271199999999986
 20
-237.38205000000008
 30
0.0
 11
35.28948999999999
 21
-239.67414600000006
 31
0.0
  0
LINE
  5
11E
330
17
100
AcDbEntity
  8
0
100
AcDbLine
 10
35.28948999999999
 20
-239.67414600000006
 30
0.0
 11
34.31844799999998
 21
-241.96421000000007
 31
0.0
  0
LINE
  5
11F
330
17
100
AcDbEntity
  8
0
100
AcDbLine
 10
34.31844799999998
 20
-241.96421000000007
 30
0.0
 11
32.692847999999984
 21
-245.75160400000004
 31
0.0
  0
LINE
  5
120
330
17
100
AcDbEntity
  8
0
100
AcDbLine
 10
32.692847999999984
 20
-245.75160400000004
 30
0.0
 11
31.000191999999984
 21
-249.50928000000005
 31
0.0
  0
LINE
  5
121
330
17
100
AcDbEntity
  8
0
100
AcDbLine
 10
31.000191999999984
 20
-249.50928000000005
 30
0.0
 11
29.247337999999985
 21
-253.23977800000006
 31
0.0
  0
LINE
  5
122
330
17
100
AcDbEntity
  8
0
100
AcDbLine
 10
29.247337999999985
 20
-253.23977800000006
 30
0.0
 11
27.441143999999984
 21
-256.94538400000005
 31
0.0
  0
LINE
  5
123
330
17
100
AcDbEntity
  8
0
100
AcDbLine
 10
27.441143999999984
 20
-256.94538400000005
 30
0.0
 11
25.58872199999998
 21
-260.6286380000001
 31
0.0
  0
LINE
  5
124
330
17
100
AcDbEntity
  8
0
100
AcDbLine
 10
25.58872199999998
 20
-260.6286380000001
 30
0.0
 11
23.696929999999984
 21
-264.29182600000007
 31
0.0
  0
LINE
  5
125
330
17
100
AcDbEntity
  8
0
100
AcDbLine
 10
23.696929999999984
 20
-264.29182600000007
 30
0.0
 11
21.772625999999985
 21
-267.9372340000001
 31
0.0
  0
LINE
  5
126
330
17
100
AcDbEntity
  8
0
100
AcDbLine
 10
21.772625999999985
 20
-267.9372340000001
 30
0.0
 11
19.822921999999984
 21
-271.5674020000001
 31
0.0
  0
LINE
  5
127
330
17
100
AcDbEntity
  8
0
100
AcDbLine
 10
19.822921999999984
 20
-271.5674020000001
 30
0.0
 11
19.030441999999983
 21
-273.07921000000005
 31
0.0
  0
LINE
  5
128
330
17
100
AcDbEntity
  8
0
100
AcDbLine
 10
19.030441999999983
 20
-273.07921000000005
 30
0.0
 11
18.327115999999982
 21
-274.5338680000001
 31
0.0
  0
LINE
  5
129
330
17
100
AcDbEntity
  8
0
100
AcDbLine
 10
18.327115999999982
 20
-274.5338680000001
 30
0.0
 11
17.708879999999983
 21
-275.95855400000005
 31
0.0
  0
LINE
  5
12A
330
17
100
AcDbEntity
  8
0
100
AcDbLine
 10
17.708879999999983
 20
-275.95855400000005
 30
0.0
 11
17.171669999999985
 21
-277.38070000000005
 31
0.0
  0
LINE
  5
12B
330
17
100
AcDbEntity
  8
0
100
AcDbLine
 10
17.171669999999985
 20
-277.38070000000005
 30
0.0
 11
16.711675999999983
 21
-278.827738
 31
0.0
  0
LINE
  5
12C
330
17
100
AcDbEntity
  8
0
100
AcDbLine
 10
16.711675999999983
 20
-278.827738
 30
0.0
 11
16.32483399999998
 21
-280.32684600000005
 31
0.0
  0
LINE
  5
12D
330
17
100
AcDbEntity
  8
0
100
AcDbLine
 10
16.32483399999998
 20
-280.32684600000005
 30
0.0
 11
16.007333999999982
 21
-281.905456
 31
0.0
  0
LINE
  5
12E
330
17
100
AcDbEntity
  8
0
100
AcDbLine
 10
16.007333999999982
 20
-281.905456
 30
0.0
 11
15.755365999999983
 21
-283.591
 31
0.0
  0
LINE
  5
12F
330
17
100
AcDbEntity
  8
0
100
AcDbLine
 10
15.755365999999983
 20
-283.591
 30
0.0
 11
15.756381999999983
 21
-285.854394
 31
0.0
  0
LINE
  5
130
330
17
100
AcDbEntity
  8
0
100
AcDbLine
 10
15.756381999999983
 20
-285.854394
 30
0.0
 11
16.306291999999985
 21
-287.508696
 31
0.0
  0
LINE
  5
131
330
17
100
AcDbEntity
  8
0
100
AcDbLine
 10
16.306291999999985
 20
-287.508696
 30
0.0
 11
17.240757999999985
 21
-288.64814
 31
0.0
  0
LINE
  5
132
330
17
100
AcDbEntity
  8
0
100
AcDbLine
 10
17.240757999999985
 20
-288.64814
 30
0.0
 11
18.395187999999987
 21
-289.36696
 31
0.0
  0
LINE
  5
133
330
17
100
AcDbEntity
  8
0
100
AcDbLine
 10
18.395187999999987
 20
-289.36696
 30
0.0
 11
19.605243999999985
 21
-289.75939000000005
 31
0.0
  0
LINE
  5
134
330
17
100
AcDbEntity
  8
0
100
AcDbLine
 10
19.605243999999985
 20
-289.75939000000005
 30
0.0
 11
20.706587999999982
 21
-289.91991800000005
 31
0.0
  0
LINE
  5
135
330
17
100
AcDbEntity
  8
0
100
AcDbLine
 10
20.706587999999982
 20
-289.91991800000005
 30
0.0
 11
21.534881999999982
 21
-289.94252400000005
 31
0.0
  0
LINE
  5
136
330
17
100
AcDbEntity
  8
0
100
AcDbLine
 10
21.534881999999982
 20
-289.94252400000005
 30
0.0
 11
21.925787999999983
 21
-289.921442
 31
0.0
  0
LINE
  5
137
330
17
100
AcDbEntity
  8
0
100
AcDbLine
 10
21.925787999999983
 20
-289.921442
 30
0.0
 11
21.929089999999984
 21
-289.92118800000003
 31
0.0
  0
LINE
  5
138
330
17
100
AcDbEntity
  8
0
100
AcDbLine
 10
21.929089999999984
 20
-289.92118800000003
 30
0.0
 11
21.932391999999986
 21
-289.920934
 31
0.0
  0
LINE
  5
139
330
17
100
AcDbEntity
  8
0
100
AcDbLine
 10
21.932391999999986
 20
-289.920934
 30
0.0
 11
21.935693999999987
 21
-289.92068
 31
0.0
  0
LINE
  5
13A
330
17
100
AcDbEntity
  8
0
100
AcDbLine
 10
21.935693999999987
 20
-289.92068
 30
0.0
 11
21.938741999999987
 21
-289.920426
 31
0.0
  0
LINE
  5
13B
330
17
100
AcDbEntity
  8
0
100
AcDbLine
 10
21.938741999999987
 20
-289.920426
 30
0.0
 11
21.941789999999987
 21
-289.92017200000004
 31
0.0
  0
LINE
  5
13C
330
17
100
AcDbEntity
  8
0
100
AcDbLine
 10
21.941789999999987
 20
-289.92017200000004
 30
0.0
 11
21.94509199999999
 21
-289.91991800000005
 31
0.0
  0
LINE
  5
13D
330
17
100
AcDbEntity
  8
0
100
AcDbLine
 10
21.94509199999999
 20
-289.91991800000005
 30
0.0
 11
21.94839399999999
 21
-289.91966400000007
 31
0.0
  0
LINE
  5
13E
330
17
100
AcDbEntity
  8
0
100
AcDbLine
 10
21.94839399999999
 20
-289.91966400000007
 30
0.0
 11
21.95169599999999
 21
-289.91941
 31
0.0
  0
LINE
  5
13F
330
17
100
AcDbEntity
  8
0
100
AcDbLine
 10
21.95169599999999
 20
-289.91941
 30
0.0
 11
25.17292399999999
 21
-289.87496000000004
 31
0.0
  0
LINE
  5
140
330
17
100
AcDbEntity
  8
0
100
AcDbLine
 10
25.17292399999999
 20
-289.87496000000004
 30
0.0
 11
28.39415199999999
 21
-289.83051000000006
 31
0.0
  0
LINE
  5
141
330
17
100
AcDbEntity
  8
0
100
AcDbLine
 10
28.39415199999999
 20
-289.83051000000006
 30
0.0
 11
31.615379999999995
 21
-289.7860600000001
 31
0.0
  0
LINE
  5
142
330
17
100
AcDbEntity
  8
0
100
AcDbLine
 10
31.615379999999995
 20
-289.7860600000001
 30
0.0
 11
34.83660799999999
 21
-289.7416100000001
 31
0.0
  0
LINE
  5
143
330
17
100
AcDbEntity
  8
0
100
AcDbLine
 10
34.83660799999999
 20
-289.7416100000001
 30
0.0
 11
38.05783599999999
 21
-289.6971600000001
 31
0.0
  0
LINE
  5
144
330
17
100
AcDbEntity
  8
0
100
AcDbLine
 10
38.05783599999999
 20
-289.6971600000001
 30
0.0
 11
41.279063999999984
 21
-289.6527100000001
 31
0.0
  0
LINE
  5
145
330
17
100
AcDbEntity
  8
0
100
AcDbLine
 10
41.279063999999984
 20
-289.6527100000001
 30
0.0
 11
44.50029199999998
 21
-289.60826000000014
 31
0.0
  0
LINE
  5
146
330
17
100
AcDbEntity
  8
0
100
AcDbLine
 10
44.50029199999998
 20
-289.60826000000014
 30
0.0
 11
47.72151999999998
 21
-289.56381000000016
 31
0.0
  0
LINE
  5
147
330
17
100
AcDbEntity
  8
0
100
AcDbLine
 10
47.72151999999998
 20
-289.56381000000016
 30
0.0
 11
48.26660399999997
 21
-289.51428000000016
 31
0.0
  0
LINE
  5
148
330
17
100
AcDbEntity
  8
0
100
AcDbLine
 10
48.26660399999997
 20
-289.51428000000016
 30
0.0
 11
48.78806599999997
 21
-289.3837240000002
 31
0.0
  0
LINE
  5
149
330
17
100
AcDbEntity
  8
0
100
AcDbLine
 10
48.78806599999997
 20
-289.3837240000002
 30
0.0
 11
49.27853999999998
 21
-289.1777300000002
 31
0.0
  0
LINE
  5
14A
330
17
100
AcDbEntity
  8
0
100
AcDbLine
 10
49.27853999999998
 20
-289.1777300000002
 30
0.0
 11
49.730151999999975
 21
-288.9018860000002
 31
0.0
  0
LINE
  5
14B
330
17
100
AcDbEntity
  8
0
100
AcDbLine
 10
49.730151999999975
 20
-288.9018860000002
 30
0.0
 11
50.13553599999997
 21
-288.56152600000024
 31
0.0
  0
LINE
  5
14C
330
17
100
AcDbEntity
  8
0
100
AcDbLine
 10
50.13553599999997
 20
-288.56152600000024
 30
0.0
 11
50.48681799999998
 21
-288.16223800000023
 31
0.0
  0
LINE
  5
14D
330
17
100
AcDbEntity
  8
0
100
AcDbLine
 10
50.48681799999998
 20
-288.16223800000023
 30
0.0
 11
50.77663199999998
 21
-287.7093560000003
 31
0.0
  0
LINE
  5
14E
330
17
100
AcDbEntity
  8
0
100
AcDbLine
 10
50.77663199999998
 20
-287.7093560000003
 30
0.0
 11
50.99710399999997
 21
-287.20846800000027
 31
0.0
  0
LINE
  5
14F
330
17
100
AcDbEntity
  8
0
100
AcDbLine
 10
50.99710399999997
 20
-287.20846800000027
 30
0.0
 11
53.45302999999998
 21
-280.7182600000003
 31
0.0
  0
LINE
  5
150
330
17
100
AcDbEntity
  8
0
100
AcDbLine
 10
53.45302999999998
 20
-280.7182600000003
 30
0.0
 11
55.90895599999998
 21
-274.22805200000033
 31
0.0
  0
LINE
  5
151
330
17
100
AcDbEntity
  8
0
100
AcDbLine
 10
55.90895599999998
 20
-274.22805200000033
 30
0.0
 11
58.36488199999998
 21
-267.73784400000034
 31
0.0
  0
LINE
  5
152
330
17
100
AcDbEntity
  8
0
100
AcDbLine
 10
58.36488199999998
 20
-267.73784400000034
 30
0.0
 11
60.820807999999985
 21
-261.2476360000004
 31
0.0
  0
LINE
  5
153
330
17
100
AcDbEntity
  8
0
100
AcDbLine
 10
60.820807999999985
 20
-261.2476360000004
 30
0.0
 11
63.27673399999999
 21
-254.7571740000004
 31
0.0
  0
LINE
  5
154
330
17
100
AcDbEntity
  8
0
100
AcDbLine
 10
63.27673399999999
 20
-254.7571740000004
 30
0.0
 11
65.73266
 21
-248.26696600000037
 31
0.0
  0
LINE
  5
155
330
17
100
AcDbEntity
  8
0
100
AcDbLine
 10
65.73266
 20
-248.26696600000037
 30
0.0
 11
68.18858599999999
 21
-241.77675800000037
 31
0.0
  0
LINE
  5
156
330
17
100
AcDbEntity
  8
0
100
AcDbLine
 10
68.18858599999999
 20
-241.77675800000037
 30
0.0
 11
70.64451199999998
 21
-235.28655000000037
 31
0.0
  0
LINE
  5
157
330
17
100
AcDbEntity
  8
0
100
AcDbLine
 10
70.64451199999998
 20
-235.28655000000037
 30
0.0
 11
70.66279999999999
 21
-235.21568400000035
 31
0.0
  0
LINE
  5
158
330
17
100
AcDbEntity
  8
0
100
AcDbLine
 10
70.66279999999999
 20
-235.21568400000035
 30
0.0
 11
70.66559399999998
 21
-235.14481800000036
 31
0.0
  0
LINE
  5
159
330
17
100
AcDbEntity
  8
0
100
AcDbLine
 10
70.66559399999998
 20
-235.14481800000036
 30
0.0
 11
70.65416399999998
 21
-235.07623800000036
 31
0.0
  0
LINE
  5
15A
330
17
100
AcDbEntity
  8
0
100
AcDbLine
 10
70.65416399999998
 20
-235.07623800000036
 30
0.0
 11
70.62927199999999
 21
-235.01197600000035
 31
0.0
  0
LINE
  5
15B
330
17
100
AcDbEntity
  8
0
100
AcDbLine
 10
70.62927199999999
 20
-235.01197600000035
 30
0.0
 11
70.59218799999998
 21
-234.95381000000035
 31
0.0
  0
LINE
  5
15C
330
17
100
AcDbEntity
  8
0
100
AcDbLine
 10
70.59218799999998
 20
-234.95381000000035
 30
0.0
 11
70.54367399999998
 21
-234.90402600000033
 31
0.0
  0
LINE
  5
15D
330
17
100
AcDbEntity
  8
0
100
AcDbLine
 10
70.54367399999998
 20
-234.90402600000033
 30
0.0
 11
70.48499999999999
 21
-234.86440200000035
 31
0.0
  0
LINE
  5
15E
330
17
100
AcDbEntity
  8
0
100
AcDbLine
 10
70.48499999999999
 20
-234.86440200000035
 30
0.0
 11
70.416928
 21
-234.83722400000036
 31
0.0
  0
LINE
  5
15F
330
17
100
AcDbEntity
  8
0
100
AcDbLine
 10
70.416928
 20
-234.83722400000036
 30
0.0
 11
69.801994
 21
-234.64037400000038
 31
0.0
  0
LINE
  5
160
330
17
100
AcDbEntity
  8
0
100
AcDbLine
 10
69.801994
 20
-234.64037400000038
 30
0.0
 11
69.18706
 21
-234.44352400000037
 31
0.0
  0
LINE
  5
161
330
17
100
AcDbEntity
  8
0
100
AcDbLine
 10
69.18706
 20
-234.44352400000037
 30
0.0
 11
68.572126
 21
-234.24667400000038
 31
0.0
  0
LINE
  5
162
330
17
100
AcDbEntity
  8
0
100
AcDbLine
 10
68.572126
 20
-234.24667400000038
 30
0.0
 11
67.957192
 21
-234.04982400000037
 31
0.0
  0
LINE
  5
163
330
17
100
AcDbEntity
  8
0
100
AcDbLine
 10
67.957192
 20
-234.04982400000037
 30
0.0
 11
67.342258
 21
-233.8529740000004
 31
0.0
  0
LINE
  5
164
330
17
100
AcDbEntity
  8
0
100
AcDbLine
 10
67.342258
 20
-233.8529740000004
 30
0.0
 11
66.72732400000001
 21
-233.6561240000004
 31
0.0
  0
LINE
  5
165
330
17
100
AcDbEntity
  8
0
100
AcDbLine
 10
66.72732400000001
 20
-233.6561240000004
 30
0.0
 11
66.11239
 21
-233.4592740000004
 31
0.0
  0
LINE
  5
166
330
17
100
AcDbEntity
  8
0
100
AcDbLine
 10
66.11239
 20
-233.4592740000004
 30
0.0
 11
65.49745600000001
 21
-233.2624240000004
 31
0.0
  0
LINE
  5
167
330
17
100
AcDbEntity
  8
0
100
AcDbLine
 10
65.49745600000001
 20
-233.2624240000004
 30
0.0
 11
65.38087
 21
-233.2161960000004
 31
0.0
  0
LINE
  5
168
330
17
100
AcDbEntity
  8
0
100
AcDbLine
 10
65.38087
 20
-233.2161960000004
 30
0.0
 11
65.27927000000001
 21
-233.1493940000004
 31
0.0
  0
LINE
  5
169
330
17
100
AcDbEntity
  8
0
100
AcDbLine
 10
65.27927000000001
 20
-233.1493940000004
 30
0.0
 11
65.19418000000002
 21
-233.06532000000038
 31
0.0
  0
LINE
  5
16A
330
17
100
AcDbEntity
  8
0
100
AcDbLine
 10
65.19418000000002
 20
-233.06532000000038
 30
0.0
 11
65.12763200000002
 21
-232.9672760000004
 31
0.0
  0
LINE
  5
16B
330
17
100
AcDbEntity
  8
0
100
AcDbLine
 10
65.12763200000002
 20
-232.9672760000004
 30
0.0
 11
65.08115000000002
 21
-232.8580560000004
 31
0.0
  0
LINE
  5
16C
330
17
100
AcDbEntity
  8
0
100
AcDbLine
 10
65.08115000000002
 20
-232.8580560000004
 30
0.0
 11
65.05651200000003
 21
-232.7412160000004
 31
0.0
  0
LINE
  5
16D
330
17
100
AcDbEntity
  8
0
100
AcDbLine
 10
65.05651200000003
 20
-232.7412160000004
 30
0.0
 11
65.05549600000002
 21
-232.6195500000004
 31
0.0
  0
LINE
  5
16E
330
17
100
AcDbEntity
  8
0
100
AcDbLine
 10
65.05549600000002
 20
-232.6195500000004
 30
0.0
 11
65.07962600000003
 21
-232.4966140000004
 31
0.0
  0
LINE
  5
16F
330
17
100
AcDbEntity
  8
0
100
AcDbLine
 10
65.07962600000003
 20
-232.4966140000004
 30
0.0
 11
65.33210200000003
 21
-231.6998160000004
 31
0.0
  0
LINE
  5
170
330
17
100
AcDbEntity
  8
0
100
AcDbLine
 10
65.33210200000003
 20
-231.6998160000004
 30
0.0
 11
65.58457800000004
 21
-230.9030180000004
 31
0.0
  0
LINE
  5
171
330
17
100
AcDbEntity
  8
0
100
AcDbLine
 10
65.58457800000004
 20
-230.9030180000004
 30
0.0
 11
65.83705400000005
 21
-230.10622000000043
 31
0.0
  0
LINE
  5
172
330
17
100
AcDbEntity
  8
0
100
AcDbLine
 10
65.83705400000005
 20
-230.10622000000043
 30
0.0
 11
66.08953000000005
 21
-229.30942200000044
 31
0.0
  0
LINE
  5
173
330
17
100
AcDbEntity
  8
0
100
AcDbLine
 10
66.08953000000005
 20
-229.30942200000044
 30
0.0
 11
66.34200600000007
 21
-228.51262400000044
 31
0.0
  0
LINE
  5
174
330
17
100
AcDbEntity
  8
0
100
AcDbLine
 10
66.34200600000007
 20
-228.51262400000044
 30
0.0
 11
66.59448200000007
 21
-227.71582600000048
 31
0.0
  0
LINE
  5
175
330
17
100
AcDbEntity
  8
0
100
AcDbLine
 10
66.59448200000007
 20
-227.71582600000048
 30
0.0
 11
66.84695800000007
 21
-226.91902800000048
 31
0.0
  0
LINE
  5
176
330
17
100
AcDbEntity
  8
0
100
AcDbLine
 10
66.84695800000007
 20
-226.91902800000048
 30
0.0
 11
67.09943400000009
 21
-226.12223000000049
 31
0.0
  0
LINE
  5
177
330
17
100
AcDbEntity
  8
0
100
AcDbLine
 10
67.09943400000009
 20
-226.12223000000049
 30
0.0
 11
67.15302800000009
 21
-225.98202200000048
 31
0.0
  0
LINE
  5
178
330
17
100
AcDbEntity
  8
0
100
AcDbLine
 10
67.15302800000009
 20
-225.98202200000048
 30
0.0
 11
67.2287200000001
 21
-225.8400360000005
 31
0.0
  0
LINE
  5
179
330
17
100
AcDbEntity
  8
0
100
AcDbLine
 10
67.2287200000001
 20
-225.8400360000005
 30
0.0
 11
67.32295400000008
 21
-225.7041460000005
 31
0.0
  0
LINE
  5
17A
330
17
100
AcDbEntity
  8
0
100
AcDbLine
 10
67.32295400000008
 20
-225.7041460000005
 30
0.0
 11
67.43242800000009
 21
-225.58197200000052
 31
0.0
  0
LINE
  5
17B
330
17
100
AcDbEntity
  8
0
100
AcDbLine
 10
67.43242800000009
 20
-225.58197200000052
 30
0.0
 11
67.55409400000008
 21
-225.48138800000052
 31
0.0
  0
LINE
  5
17C
330
17
100
AcDbEntity
  8
0
100
AcDbLine
 10
67.55409400000008
 20
-225.48138800000052
 30
0.0
 11
67.68465000000008
 21
-225.4102680000005
 31
0.0
  0
LINE
  5
17D
330
17
100
AcDbEntity
  8
0
100
AcDbLine
 10
67.68465000000008
 20
-225.4102680000005
 30
0.0
 11
67.82079400000008
 21
-225.3764860000005
 31
0.0
  0
LINE
  5
17E
330
17
100
AcDbEntity
  8
0
100
AcDbLine
 10
67.82079400000008
 20
-225.3764860000005
 30
0.0
 11
67.95922400000008
 21
-225.3874080000005
 31
0.0
  0
LINE
  5
17F
330
17
100
AcDbEntity
  8
0
100
AcDbLine
 10
67.95922400000008
 20
-225.3874080000005
 30
0.0
 11
68.61937000000007
 21
-225.5829880000005
 31
0.0
  0
LINE
  5
180
330
17
100
AcDbEntity
  8
0
100
AcDbLine
 10
68.61937000000007
 20
-225.5829880000005
 30
0.0
 11
69.27951600000007
 21
-225.77856800000052
 31
0.0
  0
LINE
  5
181
330
17
100
AcDbEntity
  8
0
100
AcDbLine
 10
69.27951600000007
 20
-225.77856800000052
 30
0.0
 11
69.93966200000007
 21
-225.9741480000005
 31
0.0
  0
LINE
  5
182
330
17
100
AcDbEntity
  8
0
100
AcDbLine
 10
69.93966200000007
 20
-225.9741480000005
 30
0.0
 11
70.59980800000007
 21
-226.1697280000005
 31
0.0
  0
LINE
  5
183
330
17
100
AcDbEntity
  8
0
100
AcDbLine
 10
70.59980800000007
 20
-226.1697280000005
 30
0.0
 11
71.25995400000006
 21
-226.36530800000048
 31
0.0
  0
LINE
  5
184
330
17
100
AcDbEntity
  8
0
100
AcDbLine
 10
71.25995400000006
 20
-226.36530800000048
 30
0.0
 11
71.92010000000006
 21
-226.5608880000005
 31
0.0
  0
LINE
  5
185
330
17
100
AcDbEntity
  8
0
100
AcDbLine
 10
71.92010000000006
 20
-226.5608880000005
 30
0.0
 11
72.58024600000006
 21
-226.7564680000005
 31
0.0
  0
LINE
  5
186
330
17
100
AcDbEntity
  8
0
100
AcDbLine
 10
72.58024600000006
 20
-226.7564680000005
 30
0.0
 11
73.24039200000006
 21
-226.95204800000047
 31
0.0
  0
LINE
  5
187
330
17
100
AcDbEntity
  8
0
100
AcDbLine
 10
73.24039200000006
 20
-226.95204800000047
 30
0.0
 11
73.30516200000007
 21
-226.9624620000005
 31
0.0
  0
LINE
  5
188
330
17
100
AcDbEntity
  8
0
100
AcDbLine
 10
73.30516200000007
 20
-226.9624620000005
 30
0.0
 11
73.36891600000006
 21
-226.9606840000005
 31
0.0
  0
LINE
  5
189
330
17
100
AcDbEntity
  8
0
100
AcDbLine
 10
73.36891600000006
 20
-226.9606840000005
 30
0.0
 11
73.43038400000006
 21
-226.9472220000005
 31
0.0
  0
LINE
  5
18A
330
17
100
AcDbEntity
  8
0
100
AcDbLine
 10
73.43038400000006
 20
-226.9472220000005
 30
0.0
 11
73.48804200000005
 21
-226.9230920000005
 31
0.0
  0
LINE
  5
18B
330
17
100
AcDbEntity
  8
0
100
AcDbLine
 10
73.48804200000005
 20
-226.9230920000005
 30
0.0
 11
73.54036600000006
 21
-226.8888020000005
 31
0.0
  0
LINE
  5
18C
330
17
100
AcDbEntity
  8
0
100
AcDbLine
 10
73.54036600000006
 20
-226.8888020000005
 30
0.0
 11
73.58583200000005
 21
-226.8453680000005
 31
0.0
  0
LINE
  5
18D
330
17
100
AcDbEntity
  8
0
100
AcDbLine
 10
73.58583200000005
 20
-226.8453680000005
 30
0.0
 11
73.62291600000006
 21
-226.7935520000005
 31
0.0
  0
LINE
  5
18E
330
17
100
AcDbEntity
  8
0
100
AcDbLine
 10
73.62291600000006
 20
-226.7935520000005
 30
0.0
 11
73.65034800000005
 21
-226.73411600000048
 31
0.0
  0
LINE
  5
18F
330
17
100
AcDbEntity
  8
0
100
AcDbLine
 10
73.65034800000005
 20
-226.73411600000048
 30
0.0
 11
73.66711200000005
 21
-226.6863640000005
 31
0.0
  0
LINE
  5
190
330
17
100
AcDbEntity
  8
0
100
AcDbLine
 10
73.66711200000005
 20
-226.6863640000005
 30
0.0
 11
73.68387600000004
 21
-226.6386120000005
 31
0.0
  0
LINE
  5
191
330
17
100
AcDbEntity
  8
0
100
AcDbLine
 10
73.68387600000004
 20
-226.6386120000005
 30
0.0
 11
73.70064000000004
 21
-226.5908600000005
 31
0.0
  0
LINE
  5
192
330
17
100
AcDbEntity
  8
0
100
AcDbLine
 10
73.70064000000004
 20
-226.5908600000005
 30
0.0
 11
73.71740400000003
 21
-226.5431080000005
 31
0.0
  0
LINE
  5
193
330
17
100
AcDbEntity
  8
0
100
AcDbLine
 10
73.71740400000003
 20
-226.5431080000005
 30
0.0
 11
73.73416800000003
 21
-226.4953560000005
 31
0.0
  0
LINE
  5
194
330
17
100
AcDbEntity
  8
0
100
AcDbLine
 10
73.73416800000003
 20
-226.4953560000005
 30
0.0
 11
73.75093200000002
 21
-226.44760400000052
 31
0.0
  0
LINE
  5
195
330
17
100
AcDbEntity
  8
0
100
AcDbLine
 10
73.75093200000002
 20
-226.44760400000052
 30
0.0
 11
73.76769600000002
 21
-226.39985200000052
 31
0.0
  0
LINE
  5
196
330
17
100
AcDbEntity
  8
0
100
AcDbLine
 10
73.76769600000002
 20
-226.39985200000052
 30
0.0
 11
73.78446000000001
 21
-226.35210000000052
 31
0.0
  0
LINE
  5
197
330
17
100
AcDbEntity
  8
0
100
AcDbLine
 10
73.78446000000001
 20
-226.35210000000052
 30
0.0
 11
73.939908
 21
-225.79863400000053
 31
0.0
  0
LINE
  5
198
330
17
100
AcDbEntity
  8
0
100
AcDbLine
 10
73.939908
 20
-225.79863400000053
 30
0.0
 11
74.13701200000001
 21
-225.18192200000053
 31
0.0
  0
LINE
  5
199
330
17
100
AcDbEntity
  8
0
100
AcDbLine
 10
74.13701200000001
 20
-225.18192200000053
 30
0.0
 11
74.36993000000001
 21
-224.52685600000055
 31
0.0
  0
LINE
  5
19A
330
17
100
AcDbEntity
  8
0
100
AcDbLine
 10
74.36993000000001
 20
-224.52685600000055
 30
0.0
 11
74.63282000000001
 21
-223.85858200000055
 31
0.0
  0
LINE
  5
19B
330
17
100
AcDbEntity
  8
0
100
AcDbLine
 10
74.63282000000001
 20
-223.85858200000055
 30
0.0
 11
74.91984000000001
 21
-223.20224600000057
 31
0.0
  0
LINE
  5
19C
330
17
100
AcDbEntity
  8
0
100
AcDbLine
 10
74.91984000000001
 20
-223.20224600000057
 30
0.0
 11
75.225402
 21
-222.58274000000057
 31
0.0
  0
LINE
  5
19D
330
17
100
AcDbEntity
  8
0
100
AcDbLine
 10
75.225402
 20
-222.58274000000057
 30
0.0
 11
75.54341000000001
 21
-222.02546400000057
 31
0.0
  0
LINE
  5
19E
330
17
100
AcDbEntity
  8
0
100
AcDbLine
 10
75.54341000000001
 20
-222.02546400000057
 30
0.0
 11
75.86802200000001
 21
-221.5553100000006
 31
0.0
  0
LINE
  5
19F
330
17
100
AcDbEntity
  8
0
100
AcDbLine
 10
75.86802200000001
 20
-221.5553100000006
 30
0.0
 11
77.10779600000002
 21
-220.07245800000058
 31
0.0
  0
LINE
  5
1A0
330
17
100
AcDbEntity
  8
0
100
AcDbLine
 10
77.10779600000002
 20
-220.07245800000058
 30
0.0
 11
78.43723200000001
 21
-218.7023820000006
 31
0.0
  0
LINE
  5
1A1
330
17
100
AcDbEntity
  8
0
100
AcDbLine
 10
78.43723200000001
 20
-218.7023820000006
 30
0.0
 11
79.87284000000001
 21
-217.44609800000057
 31
0.0
  0
LINE
  5
1A2
330
17
100
AcDbEntity
  8
0
100
AcDbLine
 10
79.87284000000001
 20
-217.44609800000057
 30
0.0
 11
81.43087600000001
 21
-216.30487600000058
 31
0.0
  0
LINE
  5
1A3
330
17
100
AcDbEntity
  8
0
100
AcDbLine
 10
81.43087600000001
 20
-216.30487600000058
 30
0.0
 11
83.12785000000001
 21
-215.27998600000058
 31
0.0
  0
LINE
  5
1A4
330
17
100
AcDbEntity
  8
0
100
AcDbLine
 10
83.12785000000001
 20
-215.27998600000058
 30
0.0
 11
84.98027200000001
 21
-214.3721900000006
 31
0.0
  0
LINE
  5
1A5
330
17
100
AcDbEntity
  8
0
100
AcDbLine
 10
84.98027200000001
 20
-214.3721900000006
 30
0.0
 11
87.00439800000001
 21
-213.5827580000006
 31
0.0
  0
LINE
  5
1A6
330
17
100
AcDbEntity
  8
0
100
AcDbLine
 10
87.00439800000001
 20
-213.5827580000006
 30
0.0
 11
89.216738
 21
-212.91296000000062
 31
0.0
  0
LINE
  5
1A7
330
17
100
AcDbEntity
  8
0
100
AcDbLine
 10
89.216738
 20
-212.91296000000062
 30
0.0
 11
89.66987400000001
 21
-212.7521780000006
 31
0.0
  0
LINE
  5
1A8
330
17
100
AcDbEntity
  8
0
100
AcDbLine
 10
89.66987400000001
 20
-212.7521780000006
 30
0.0
 11
90.0811
 21
-212.5235780000006
 31
0.0
  0
LINE
  5
1A9
330
17
100
AcDbEntity
  8
0
100
AcDbLine
 10
90.0811
 20
-212.5235780000006
 30
0.0
 11
90.44533600000001
 21
-212.23478000000063
 31
0.0
  0
LINE
  5
1AA
330
17
100
AcDbEntity
  8
0
100
AcDbLine
 10
90.44533600000001
 20
-212.23478000000063
 30
0.0
 11
90.75724800000002
 21
-211.89289600000063
 31
0.0
  0
LINE
  5
1AB
330
17
100
AcDbEntity
  8
0
100
AcDbLine
 10
90.75724800000002
 20
-211.89289600000063
 30
0.0
 11
91.01150200000001
 21
-211.50580000000062
 31
0.0
  0
LINE
  5
1AC
330
17
100
AcDbEntity
  8
0
100
AcDbLine
 10
91.01150200000001
 20
-211.50580000000062
 30
0.0
 11
91.20276400000002
 21
-211.08060400000062
 31
0.0
  0
LINE
  5
1AD
330
17
100
AcDbEntity
  8
0
100
AcDbLine
 10
91.20276400000002
 20
-211.08060400000062
 30
0.0
 11
91.32544600000001
 21
-210.62467400000062
 31
0.0
  0
LINE
  5
1AE
330
17
100
AcDbEntity
  8
0
100
AcDbLine
 10
91.32544600000001
 20
-210.62467400000062
 30
0.0
 11
91.37446800000001
 21
-210.14563000000064
 31
0.0
  0
LINE
  5
1AF
330
17
100
AcDbEntity
  8
0
100
AcDbLine
 10
91.37446800000001
 20
-210.14563000000064
 30
0.0
 11
91.404694
 21
-209.69274800000065
 31
0.0
  0
LINE
  5
1B0
330
17
100
AcDbEntity
  8
0
100
AcDbLine
 10
91.404694
 20
-209.69274800000065
 30
0.0
 11
91.47403600000001
 21
-209.24189800000065
 31
0.0
  0
LINE
  5
1B1
330
17
100
AcDbEntity
  8
0
100
AcDbLine
 10
91.47403600000001
 20
-209.24189800000065
 30
0.0
 11
91.58020800000003
 21
-208.79562000000067
 31
0.0
  0
LINE
  5
1B2
330
17
100
AcDbEntity
  8
0
100
AcDbLine
 10
91.58020800000003
 20
-208.79562000000067
 30
0.0
 11
91.72092400000001
 21
-208.35645400000064
 31
0.0
  0
LINE
  5
1B3
330
17
100
AcDbEntity
  8
0
100
AcDbLine
 10
91.72092400000001
 20
-208.35645400000064
 30
0.0
 11
91.89364400000001
 21
-207.92668600000064
 31
0.0
  0
LINE
  5
1B4
330
17
100
AcDbEntity
  8
0
100
AcDbLine
 10
91.89364400000001
 20
-207.92668600000064
 30
0.0
 11
92.09582800000001
 21
-207.50911000000065
 31
0.0
  0
LINE
  5
1B5
330
17
100
AcDbEntity
  8
0
100
AcDbLine
 10
92.09582800000001
 20
-207.50911000000065
 30
0.0
 11
92.32519000000002
 21
-207.10626600000063
 31
0.0
  0
LINE
  5
1B6
330
17
100
AcDbEntity
  8
0
100
AcDbLine
 10
92.32519000000002
 20
-207.10626600000063
 30
0.0
 11
92.57919000000003
 21
-206.72069400000063
 31
0.0
  0
LINE
  5
1B7
330
17
100
AcDbEntity
  8
0
100
AcDbLine
 10
92.57919000000003
 20
-206.72069400000063
 30
0.0
 11
93.19996600000002
 21
-205.94218400000062
 31
0.0
  0
LINE
  5
1B8
330
17
100
AcDbEntity
  8
0
100
AcDbLine
 10
93.19996600000002
 20
-205.94218400000062
 30
0.0
 11
93.89160800000003
 21
-205.25232000000062
 31
0.0
  0
LINE
  5
1B9
330
17
100
AcDbEntity
  8
0
100
AcDbLine
 10
93.89160800000003
 20
-205.25232000000062
 30
0.0
 11
94.64624200000003
 21
-204.64119600000063
 31
0.0
  0
LINE
  5
1BA
330
17
100
AcDbEntity
  8
0
100
AcDbLine
 10
94.64624200000003
 20
-204.64119600000063
 30
0.0
 11
95.45574000000003
 21
-204.09916000000064
 31
0.0
  0
LINE
  5
1BB
330
17
100
AcDbEntity
  8
0
100
AcDbLine
 10
95.45574000000003
 20
-204.09916000000064
 30
0.0
 11
96.31197400000002
 21
-203.61656000000065
 31
0.0
  0
LINE
  5
1BC
330
17
100
AcDbEntity
  8
0
100
AcDbLine
 10
96.31197400000002
 20
-203.61656000000065
 30
0.0
 11
97.20707000000003
 21
-203.18349000000063
 31
0.0
  0
LINE
  5
1BD
330
17
100
AcDbEntity
  8
0
100
AcDbLine
 10
97.20707000000003
 20
-203.18349000000063
 30
0.0
 11
98.13315400000003
 21
-202.79055200000062
 31
0.0
  0
LINE
  5
1BE
330
17
100
AcDbEntity
  8
0
100
AcDbLine
 10
98.13315400000003
 20
-202.79055200000062
 30
0.0
 11
99.08184400000003
 21
-202.42784000000063
 31
0.0
  0
LINE
  5
1BF
330
17
100
AcDbEntity
  8
0
100
AcDbLine
 10
99.08184400000003
 20
-202.42784000000063
 30
0.0
 11
99.17734800000002
 21
-202.3722140000006
 31
0.0
  0
LINE
  5
1C0
330
17
100
AcDbEntity
  8
0
100
AcDbLine
 10
99.17734800000002
 20
-202.3722140000006
 30
0.0
 11
99.23881600000003
 21
-202.2944900000006
 31
0.0
  0
LINE
  5
1C1
330
17
100
AcDbEntity
  8
0
100
AcDbLine
 10
99.23881600000003
 20
-202.2944900000006
 30
0.0
 11
99.26777200000002
 21
-202.2035580000006
 31
0.0
  0
LINE
  5
1C2
330
17
100
AcDbEntity
  8
0
100
AcDbLine
 10
99.26777200000002
 20
-202.2035580000006
 30
0.0
 11
99.26599400000002
 21
-202.1088160000006
 31
0.0
  0
LINE
  5
1C3
330
17
100
AcDbEntity
  8
0
100
AcDbLine
 10
99.26599400000002
 20
-202.1088160000006
 30
0.0
 11
99.23500600000003
 21
-202.0194080000006
 31
0.0
  0
LINE
  5
1C4
330
17
100
AcDbEntity
  8
0
100
AcDbLine
 10
99.23500600000003
 20
-202.0194080000006
 30
0.0
 11
99.17658600000001
 21
-201.9444780000006
 31
0.0
  0
LINE
  5
1C5
330
17
100
AcDbEntity
  8
0
100
AcDbLine
 10
99.17658600000001
 20
-201.9444780000006
 30
0.0
 11
99.092004
 21
-201.89317000000062
 31
0.0
  0
LINE
  5
1C6
330
17
100
AcDbEntity
  8
0
100
AcDbLine
 10
99.092004
 20
-201.89317000000062
 30
0.0
 11
98.983292
 21
-201.87462800000063
 31
0.0
  0
LINE
  5
1C7
330
17
100
AcDbEntity
  8
0
100
AcDbLine
 10
98.983292
 20
-201.87462800000063
 30
0.0
 11
96.45624600000001
 21
-201.89139200000062
 31
0.0
  0
LINE
  5
1C8
330
17
100
AcDbEntity
  8
0
100
AcDbLine
 10
96.45624600000001
 20
-201.89139200000062
 30
0.0
 11
93.92920000000001
 21
-201.90815600000064
 31
0.0
  0
LINE
  5
1C9
330
17
100
AcDbEntity
  8
0
100
AcDbLine
 10
93.92920000000001
 20
-201.90815600000064
 30
0.0
 11
91.402154
 21
-201.92492000000064
 31
0.0
  0
LINE
  5
1CA
330
17
100
AcDbEntity
  8
0
100
AcDbLine
 10
91.402154
 20
-201.92492000000064
 30
0.0
 11
88.875108
 21
-201.94168400000066
 31
0.0
  0
LINE
  5
1CB
330
17
100
AcDbEntity
  8
0
100
AcDbLine
 10
88.875108
 20
-201.94168400000066
 30
0.0
 11
86.348062
 21
-201.95844800000066
 31
0.0
  0
LINE
  5
1CC
330
17
100
AcDbEntity
  8
0
100
AcDbLine
 10
86.348062
 20
-201.95844800000066
 30
0.0
 11
83.82101599999999
 21
-201.97521200000065
 31
0.0
  0
LINE
  5
1CD
330
17
100
AcDbEntity
  8
0
100
AcDbLine
 10
83.82101599999999
 20
-201.97521200000065
 30
0.0
 11
81.29396999999999
 21
-201.99197600000068
 31
0.0
  0
LINE
  5
1CE
330
17
100
AcDbEntity
  8
0
100
AcDbLine
 10
81.29396999999999
 20
-201.99197600000068
 30
0.0
 11
78.76692399999999
 21
-202.00874000000067
 31
0.0
  0
LINE
  5
1CF
330
17
100
AcDbEntity
  8
0
100
AcDbLine
 10
78.76692399999999
 20
-202.00874000000067
 30
0.0
 11
78.69859799999999
 21
-202.01636000000067
 31
0.0
  0
LINE
  5
1D0
330
17
100
AcDbEntity
  8
0
100
AcDbLine
 10
78.69859799999999
 20
-202.01636000000067
 30
0.0
 11
78.63484399999999
 21
-202.03668000000067
 31
0.0
  0
LINE
  5
1D1
330
17
100
AcDbEntity
  8
0
100
AcDbLine
 10
78.63484399999999
 20
-202.03668000000067
 30
0.0
 11
78.57744
 21
-202.0684300000007
 31
0.0
  0
LINE
  5
1D2
330
17
100
AcDbEntity
  8
0
100
AcDbLine
 10
78.57744
 20
-202.0684300000007
 30
0.0
 11
78.527402
 21
-202.1103400000007
 31
0.0
  0
LINE
  5
1D3
330
17
100
AcDbEntity
  8
0
100
AcDbLine
 10
78.527402
 20
-202.1103400000007
 30
0.0
 11
78.48625399999999
 21
-202.16088600000066
 31
0.0
  0
LINE
  5
1D4
330
17
100
AcDbEntity
  8
0
100
AcDbLine
 10
78.48625399999999
 20
-202.16088600000066
 30
0.0
 11
78.455012
 21
-202.21879800000065
 31
0.0
  0
LINE
  5
1D5
330
17
100
AcDbEntity
  8
0
100
AcDbLine
 10
78.455012
 20
-202.21879800000065
 30
0.0
 11
78.435454
 21
-202.28255200000063
 31
0.0
  0
LINE
  5
1D6
330
17
100
AcDbEntity
  8
0
100
AcDbLine
 10
78.435454
 20
-202.28255200000063
 30
0.0
 11
78.428596
 21
-202.35113200000063
 31
0.0
  0
LINE
  5
1D7
330
17
100
AcDbEntity
  8
0
100
AcDbLine
 10
115.94820600000001
 20
-182.74233200000063
 30
0.0
 11
115.94820600000001
 21
-182.8612040000006
 31
0.0
  0
LINE
  5
1D8
330
17
100
AcDbEntity
  8
0
100
AcDbLine
 10
115.94820600000001
 20
-182.8612040000006
 30
0.0
 11
115.94820600000001
 21
-182.98007600000062
 31
0.0
  0
LINE
  5
1D9
330
17
100
AcDbEntity
  8
0
100
AcDbLine
 10
115.94820600000001
 20
-182.98007600000062
 30
0.0
 11
115.94820600000001
 21
-183.0989480000006
 31
0.0
  0
LINE
  5
1DA
330
17
100
AcDbEntity
  8
0
100
AcDbLine
 10
115.94820600000001
 20
-183.0989480000006
 30
0.0
 11
115.94820600000001
 21
-183.2178200000006
 31
0.0
  0
LINE
  5
1DB
330
17
100
AcDbEntity
  8
0
100
AcDbLine
 10
115.94820600000001
 20
-183.2178200000006
 30
0.0
 11
115.94820600000001
 21
-183.33669200000057
 31
0.0
  0
LINE
  5
1DC
330
17
100
AcDbEntity
  8
0
100
AcDbLine
 10
115.94820600000001
 20
-183.33669200000057
 30
0.0
 11
115.94820600000001
 21
-183.45556400000058
 31
0.0
  0
LINE
  5
1DD
330
17
100
AcDbEntity
  8
0
100
AcDbLine
 10
115.94820600000001
 20
-183.45556400000058
 30
0.0
 11
115.94820600000001
 21
-183.57443600000056
 31
0.0
  0
LINE
  5
1DE
330
17
100
AcDbEntity
  8
0
100
AcDbLine
 10
115.94820600000001
 20
-183.57443600000056
 30
0.0
 11
115.94820600000001
 21
-183.69330800000054
 31
0.0
  0
LINE
  5
1DF
330
17
100
AcDbEntity
  8
0
100
AcDbLine
 10
115.94820600000001
 20
-183.69330800000054
 30
0.0
 11
115.80342600000002
 21
-185.76188400000055
 31
0.0
  0
LINE
  5
1E0
330
17
100
AcDbEntity
  8
0
100
AcDbLine
 10
115.80342600000002
 20
-185.76188400000055
 30
0.0
 11
115.37391200000002
 21
-187.36614800000055
 31
0.0
  0
LINE
  5
1E1
330
17
100
AcDbEntity
  8
0
100
AcDbLine
 10
115.37391200000002
 20
-187.36614800000055
 30
0.0
 11
114.75339000000002
 21
-188.56426600000054
 31
0.0
  0
LINE
  5
1E2
330
17
100
AcDbEntity
  8
0
100
AcDbLine
 10
114.75339000000002
 20
-188.56426600000054
 30
0.0
 11
114.03558600000002
 21
-189.41440400000056
 31
0.0
  0
LINE
  5
1E3
330
17
100
AcDbEntity
  8
0
100
AcDbLine
 10
114.03558600000002
 20
-189.41440400000056
 30
0.0
 11
113.31397200000002
 21
-189.97447400000055
 31
0.0
  0
LINE
  5
1E4
330
17
100
AcDbEntity
  8
0
100
AcDbLine
 10
113.31397200000002
 20
-189.97447400000055
 30
0.0
 11
112.68252800000002
 21
-190.30264200000056
 31
0.0
  0
LINE
  5
1E5
330
17
100
AcDbEntity
  8
0
100
AcDbLine
 10
112.68252800000002
 20
-190.30264200000056
 30
0.0
 11
112.23498000000002
 21
-190.45682000000056
 31
0.0
  0
LINE
  5
1E6
330
17
100
AcDbEntity
  8
0
100
AcDbLine
 10
112.23498000000002
 20
-190.45682000000056
 30
0.0
 11
112.06505400000002
 21
-190.49542800000057
 31
0.0
  0
LINE
  5
1E7
330
17
100
AcDbEntity
  8
0
100
AcDbLine
 10
112.06505400000002
 20
-190.49542800000057
 30
0.0
 11
109.89335400000002
 21
-190.49542800000057
 31
0.0
  0
LINE
  5
1E8
330
17
100
AcDbEntity
  8
0
100
AcDbLine
 10
109.89335400000002
 20
-190.49542800000057
 30
0.0
 11
107.72165400000002
 21
-190.49542800000057
 31
0.0
  0
LINE
  5
1E9
330
17
100
AcDbEntity
  8
0
100
AcDbLine
 10
107.72165400000002
 20
-190.49542800000057
 30
0.0
 11
105.54995400000001
 21
-190.49542800000057
 31
0.0
  0
LINE
  5
1EA
330
17
100
AcDbEntity
  8
0
100
AcDbLine
 10
105.54995400000001
 20
-190.49542800000057
 30
0.0
 11
103.37825400000001
 21
-190.49542800000057
 31
0.0
  0
LINE
  5
1EB
330
17
100
AcDbEntity
  8
0
100
AcDbLine
 10
103.37825400000001
 20
-190.49542800000057
 30
0.0
 11
101.20655400000001
 21
-190.49542800000057
 31
0.0
  0
LINE
  5
1EC
330
17
100
AcDbEntity
  8
0
100
AcDbLine
 10
101.20655400000001
 20
-190.49542800000057
 30
0.0
 11
99.03485400000001
 21
-190.49542800000057
 31
0.0
  0
LINE
  5
1ED
330
17
100
AcDbEntity
  8
0
100
AcDbLine
 10
99.03485400000001
 20
-190.49542800000057
 30
0.0
 11
96.863154
 21
-190.49542800000057
 31
0.0
  0
LINE
  5
1EE
330
17
100
AcDbEntity
  8
0
100
AcDbLine
 10
96.863154
 20
-190.49542800000057
 30
0.0
 11
94.691454
 21
-190.49542800000057
 31
0.0
  0
LINE
  5
1EF
330
17
100
AcDbEntity
  8
0
100
AcDbLine
 10
94.691454
 20
-190.49542800000057
 30
0.0
 11
94.618556
 21
-190.4951740000006
 31
0.0
  0
LINE
  5
1F0
330
17
100
AcDbEntity
  8
0
100
AcDbLine
 10
94.618556
 20
-190.4951740000006
 30
0.0
 11
94.415102
 21
-190.47968000000057
 31
0.0
  0
LINE
  5
1F1
330
17
100
AcDbEntity
  8
0
100
AcDbLine
 10
94.415102
 20
-190.47968000000057
 30
0.0
 11
94.10369800000001
 21
-190.42710200000056
 31
0.0
  0
LINE
  5
1F2
330
17
100
AcDbEntity
  8
0
100
AcDbLine
 10
94.10369800000001
 20
-190.42710200000056
 30
0.0
 11
93.70695
 21
-190.31585000000058
 31
0.0
  0
LINE
  5
1F3
330
17
100
AcDbEntity
  8
0
100
AcDbLine
 10
93.70695
 20
-190.31585000000058
 30
0.0
 11
93.247464
 21
-190.12382600000058
 31
0.0
  0
LINE
  5
1F4
330
17
100
AcDbEntity
  8
0
100
AcDbLine
 10
93.247464
 20
-190.12382600000058
 30
0.0
 11
92.747846
 21
-189.8291860000006
 31
0.0
  0
LINE
  5
1F5
330
17
100
AcDbEntity
  8
0
100
AcDbLine
 10
92.747846
 20
-189.8291860000006
 30
0.0
 11
92.23095599999999
 21
-189.4100860000006
 31
0.0
  0
LINE
  5
1F6
330
17
100
AcDbEntity
  8
0
100
AcDbLine
 10
92.23095599999999
 20
-189.4100860000006
 30
0.0
 11
91.719146
 21
-188.8449360000006
 31
0.0
  0
LINE
  5
1F7
330
17
100
AcDbEntity
  8
0
100
AcDbLine
 10
91.719146
 20
-188.8449360000006
 30
0.0
 11
89.55405
 21
-188.8449360000006
 31
0.0
  0
LINE
  5
1F8
330
17
100
AcDbEntity
  8
0
100
AcDbLine
 10
89.55405
 20
-188.8449360000006
 30
0.0
 11
87.388954
 21
-188.8449360000006
 31
0.0
  0
LINE
  5
1F9
330
17
100
AcDbEntity
  8
0
100
AcDbLine
 10
87.388954
 20
-188.8449360000006
 30
0.0
 11
85.22385799999999
 21
-188.8449360000006
 31
0.0
  0
LINE
  5
1FA
330
17
100
AcDbEntity
  8
0
100
AcDbLine
 10
85.22385799999999
 20
-188.8449360000006
 30
0.0
 11
83.058762
 21
-188.8449360000006
 31
0.0
  0
LINE
  5
1FB
330
17
100
AcDbEntity
  8
0
100
AcDbLine
 10
83.058762
 20
-188.8449360000006
 30
0.0
 11
80.893666
 21
-188.8449360000006
 31
0.0
  0
LINE
  5
1FC
330
17
100
AcDbEntity
  8
0
100
AcDbLine
 10
80.893666
 20
-188.8449360000006
 30
0.0
 11
78.72856999999999
 21
-188.8449360000006
 31
0.0
  0
LINE
  5
1FD
330
17
100
AcDbEntity
  8
0
100
AcDbLine
 10
78.72856999999999
 20
-188.8449360000006
 30
0.0
 11
76.563474
 21
-188.8449360000006
 31
0.0
  0
LINE
  5
1FE
330
17
100
AcDbEntity
  8
0
100
AcDbLine
 10
76.563474
 20
-188.8449360000006
 30
0.0
 11
74.398378
 21
-188.8449360000006
 31
0.0
  0
LINE
  5
1FF
330
17
100
AcDbEntity
  8
0
100
AcDbLine
 10
74.398378
 20
-188.8449360000006
 30
0.0
 11
74.27976
 21
-188.76975200000058
 31
0.0
  0
LINE
  5
200
330
17
100
AcDbEntity
  8
0
100
AcDbLine
 10
74.27976
 20
-188.76975200000058
 30
0.0
 11
73.99070800000001
 21
-188.54166000000058
 31
0.0
  0
LINE
  5
201
330
17
100
AcDbEntity
  8
0
100
AcDbLine
 10
73.99070800000001
 20
-188.54166000000058
 30
0.0
 11
73.631044
 21
-188.15659600000058
 31
0.0
  0
LINE
  5
202
330
17
100
AcDbEntity
  8
0
100
AcDbLine
 10
73.631044
 20
-188.15659600000058
 30
0.0
 11
73.30059000000001
 21
-187.6107500000006
 31
0.0
  0
LINE
  5
203
330
17
100
AcDbEntity
  8
0
100
AcDbLine
 10
73.30059000000001
 20
-187.6107500000006
 30
0.0
 11
73.099168
 21
-186.90005800000057
 31
0.0
  0
LINE
  5
204
330
17
100
AcDbEntity
  8
0
100
AcDbLine
 10
73.099168
 20
-186.90005800000057
 30
0.0
 11
73.12685400000001
 21
-186.02071000000058
 31
0.0
  0
LINE
  5
205
330
17
100
AcDbEntity
  8
0
100
AcDbLine
 10
73.12685400000001
 20
-186.02071000000058
 30
0.0
 11
73.48347
 21
-184.9688960000006
 31
0.0
  0
LINE
  5
206
330
17
100
AcDbEntity
  8
0
100
AcDbLine
 10
73.48347
 20
-184.9688960000006
 30
0.0
 11
74.268838
 21
-183.74055200000058
 31
0.0
  0
LINE
  5
207
330
17
100
AcDbEntity
  8
0
100
AcDbLine
 10
74.268838
 20
-183.74055200000058
 30
0.0
 11
74.267822
 21
-183.6506360000006
 31
0.0
  0
LINE
  5
208
330
17
100
AcDbEntity
  8
0
100
AcDbLine
 10
74.267822
 20
-183.6506360000006
 30
0.0
 11
74.26680599999999
 21
-183.56072000000057
 31
0.0
  0
LINE
  5
209
330
17
100
AcDbEntity
  8
0
100
AcDbLine
 10
74.26680599999999
 20
-183.56072000000057
 30
0.0
 11
74.26578999999998
 21
-183.47080400000056
 31
0.0
  0
LINE
  5
20A
330
17
100
AcDbEntity
  8
0
100
AcDbLine
 10
74.26578999999998
 20
-183.47080400000056
 30
0.0
 11
74.26477399999997
 21
-183.38088800000054
 31
0.0
  0
LINE
  5
20B
330
17
100
AcDbEntity
  8
0
100
AcDbLine
 10
74.26477399999997
 20
-183.38088800000054
 30
0.0
 11
74.26375799999998
 21
-183.29097200000052
 31
0.0
  0
LINE
  5
20C
330
17
100
AcDbEntity
  8
0
100
AcDbLine
 10
74.26375799999998
 20
-183.29097200000052
 30
0.0
 11
74.26274199999997
 21
-183.20105600000053
 31
0.0
  0
LINE
  5
20D
330
17
100
AcDbEntity
  8
0
100
AcDbLine
 10
74.26274199999997
 20
-183.20105600000053
 30
0.0
 11
74.26172599999997
 21
-183.11114000000052
 31
0.0
  0
LINE
  5
20E
330
17
100
AcDbEntity
  8
0
100
AcDbLine
 10
74.26172599999997
 20
-183.11114000000052
 30
0.0
 11
74.26070999999996
 21
-183.0212240000005
 31
0.0
  0
LINE
  5
20F
330
17
100
AcDbEntity
  8
0
100
AcDbLine
 10
74.26070999999996
 20
-183.0212240000005
 30
0.0
 11
72.51166599999995
 21
-183.02224000000052
 31
0.0
  0
LINE
  5
210
330
17
100
AcDbEntity
  8
0
100
AcDbLine
 10
72.51166599999995
 20
-183.02224000000052
 30
0.0
 11
70.76262199999995
 21
-183.02325600000052
 31
0.0
  0
LINE
  5
211
330
17
100
AcDbEntity
  8
0
100
AcDbLine
 10
70.76262199999995
 20
-183.02325600000052
 30
0.0
 11
69.01357799999994
 21
-183.0242720000005
 31
0.0
  0
LINE
  5
212
330
17
100
AcDbEntity
  8
0
100
AcDbLine
 10
69.01357799999994
 20
-183.0242720000005
 30
0.0
 11
67.26453399999994
 21
-183.02528800000053
 31
0.0
  0
LINE
  5
213
330
17
100
AcDbEntity
  8
0
100
AcDbLine
 10
67.26453399999994
 20
-183.02528800000053
 30
0.0
 11
65.51548999999993
 21
-183.02630400000052
 31
0.0
  0
LINE
  5
214
330
17
100
AcDbEntity
  8
0
100
AcDbLine
 10
65.51548999999993
 20
-183.02630400000052
 30
0.0
 11
63.76644599999993
 21
-183.02732000000054
 31
0.0
  0
LINE
  5
215
330
17
100
AcDbEntity
  8
0
100
AcDbLine
 10
63.76644599999993
 20
-183.02732000000054
 30
0.0
 11
62.01740199999993
 21
-183.02833600000054
 31
0.0
  0
LINE
  5
216
330
17
100
AcDbEntity
  8
0
100
AcDbLine
 10
62.01740199999993
 20
-183.02833600000054
 30
0.0
 11
60.268357999999935
 21
-183.02935200000053
 31
0.0
  0
LINE
  5
217
330
17
100
AcDbEntity
  8
0
100
AcDbLine
 10
60.268357999999935
 20
-183.02935200000053
 30
0.0
 11
60.26988199999993
 21
-184.99074000000053
 31
0.0
  0
LINE
  5
218
330
17
100
AcDbEntity
  8
0
100
AcDbLine
 10
60.26988199999993
 20
-184.99074000000053
 30
0.0
 11
60.271405999999935
 21
-186.95212800000053
 31
0.0
  0
LINE
  5
219
330
17
100
AcDbEntity
  8
0
100
AcDbLine
 10
60.271405999999935
 20
-186.95212800000053
 30
0.0
 11
60.27292999999993
 21
-188.91351600000053
 31
0.0
  0
LINE
  5
21A
330
17
100
AcDbEntity
  8
0
100
AcDbLine
 10
60.27292999999993
 20
-188.91351600000053
 30
0.0
 11
60.274453999999935
 21
-190.87490400000053
 31
0.0
  0
LINE
  5
21B
330
17
100
AcDbEntity
  8
0
100
AcDbLine
 10
60.274453999999935
 20
-190.87490400000053
 30
0.0
 11
60.27597799999993
 21
-192.83629200000053
 31
0.0
  0
LINE
  5
21C
330
17
100
AcDbEntity
  8
0
100
AcDbLine
 10
60.27597799999993
 20
-192.83629200000053
 30
0.0
 11
60.277501999999934
 21
-194.79768000000053
 31
0.0
  0
LINE
  5
21D
330
17
100
AcDbEntity
  8
0
100
AcDbLine
 10
60.277501999999934
 20
-194.79768000000053
 30
0.0
 11
60.27902599999993
 21
-196.7590680000005
 31
0.0
  0
LINE
  5
21E
330
17
100
AcDbEntity
  8
0
100
AcDbLine
 10
60.27902599999993
 20
-196.7590680000005
 30
0.0
 11
60.280549999999934
 21
-198.7204560000005
 31
0.0
  0
LINE
  5
21F
330
17
100
AcDbEntity
  8
0
100
AcDbLine
 10
60.280549999999934
 20
-198.7204560000005
 30
0.0
 11
65.88328199999994
 21
-198.7207100000005
 31
0.0
  0
LINE
  5
220
330
17
100
AcDbEntity
  8
0
100
AcDbLine
 10
65.88328199999994
 20
-198.7207100000005
 30
0.0
 11
71.48601399999994
 21
-198.7209640000005
 31
0.0
  0
LINE
  5
221
330
17
100
AcDbEntity
  8
0
100
AcDbLine
 10
71.48601399999994
 20
-198.7209640000005
 30
0.0
 11
77.08874599999993
 21
-198.72121800000048
 31
0.0
  0
LINE
  5
222
330
17
100
AcDbEntity
  8
0
100
AcDbLine
 10
77.08874599999993
 20
-198.72121800000048
 30
0.0
 11
82.69147799999993
 21
-198.7214720000005
 31
0.0
  0
LINE
  5
223
330
17
100
AcDbEntity
  8
0
100
AcDbLine
 10
82.69147799999993
 20
-198.7214720000005
 30
0.0
 11
88.29420999999994
 21
-198.72172600000047
 31
0.0
  0
LINE
  5
224
330
17
100
AcDbEntity
  8
0
100
AcDbLine
 10
88.29420999999994
 20
-198.72172600000047
 30
0.0
 11
93.89694199999992
 21
-198.72198000000046
 31
0.0
  0
LINE
  5
225
330
17
100
AcDbEntity
  8
0
100
AcDbLine
 10
93.89694199999992
 20
-198.72198000000046
 30
0.0
 11
99.49967399999993
 21
-198.72223400000047
 31
0.0
  0
LINE
  5
226
330
17
100
AcDbEntity
  8
0
100
AcDbLine
 10
99.49967399999993
 20
-198.72223400000047
 30
0.0
 11
105.10240599999993
 21
-198.72248800000045
 31
0.0
  0
LINE
  5
227
330
17
100
AcDbEntity
  8
0
100
AcDbLine
 10
105.10240599999993
 20
-198.72248800000045
 30
0.0
 11
105.20095799999991
 21
-198.55942000000044
 31
0.0
  0
LINE
  5
228
330
17
100
AcDbEntity
  8
0
100
AcDbLine
 10
105.20095799999991
 20
-198.55942000000044
 30
0.0
 11
105.29950999999991
 21
-198.39635200000043
 31
0.0
  0
LINE
  5
229
330
17
100
AcDbEntity
  8
0
100
AcDbLine
 10
105.29950999999991
 20
-198.39635200000043
 30
0.0
 11
105.39806199999991
 21
-198.23328400000042
 31
0.0
  0
LINE
  5
22A
330
17
100
AcDbEntity
  8
0
100
AcDbLine
 10
105.39806199999991
 20
-198.23328400000042
 30
0.0
 11
105.49661399999991
 21
-198.0702160000004
 31
0.0
  0
LINE
  5
22B
330
17
100
AcDbEntity
  8
0
100
AcDbLine
 10
105.49661399999991
 20
-198.0702160000004
 30
0.0
 11
105.59516599999989
 21
-197.90714800000038
 31
0.0
  0
LINE
  5
22C
330
17
100
AcDbEntity
  8
0
100
AcDbLine
 10
105.59516599999989
 20
-197.90714800000038
 30
0.0
 11
105.69371799999989
 21
-197.74408000000037
 31
0.0
  0
LINE
  5
22D
330
17
100
AcDbEntity
  8
0
100
AcDbLine
 10
105.69371799999989
 20
-197.74408000000037
 30
0.0
 11
105.79226999999989
 21
-197.58101200000036
 31
0.0
  0
LINE
  5
22E
330
17
100
AcDbEntity
  8
0
100
AcDbLine
 10
105.79226999999989
 20
-197.58101200000036
 30
0.0
 11
105.89082199999987
 21
-197.41794400000035
 31
0.0
  0
LINE
  5
22F
330
17
100
AcDbEntity
  8
0
100
AcDbLine
 10
105.89082199999987
 20
-197.41794400000035
 30
0.0
 11
106.98581599999987
 21
-197.41794400000035
 31
0.0
  0
LINE
  5
230
330
17
100
AcDbEntity
  8
0
100
AcDbLine
 10
106.98581599999987
 20
-197.41794400000035
 30
0.0
 11
108.08080999999987
 21
-197.41794400000035
 31
0.0
  0
LINE
  5
231
330
17
100
AcDbEntity
  8
0
100
AcDbLine
 10
108.08080999999987
 20
-197.41794400000035
 30
0.0
 11
109.17580399999986
 21
-197.41794400000035
 31
0.0
  0
LINE
  5
232
330
17
100
AcDbEntity
  8
0
100
AcDbLine
 10
109.17580399999986
 20
-197.41794400000035
 30
0.0
 11
110.27079799999986
 21
-197.41794400000035
 31
0.0
  0
LINE
  5
233
330
17
100
AcDbEntity
  8
0
100
AcDbLine
 10
110.27079799999986
 20
-197.41794400000035
 30
0.0
 11
111.36579199999986
 21
-197.41794400000035
 31
0.0
  0
LINE
  5
234
330
17
100
AcDbEntity
  8
0
100
AcDbLine
 10
111.36579199999986
 20
-197.41794400000035
 30
0.0
 11
112.46078599999984
 21
-197.41794400000035
 31
0.0
  0
LINE
  5
235
330
17
100
AcDbEntity
  8
0
100
AcDbLine
 10
112.46078599999984
 20
-197.41794400000035
 30
0.0
 11
113.55577999999984
 21
-197.41794400000035
 31
0.0
  0
LINE
  5
236
330
17
100
AcDbEntity
  8
0
100
AcDbLine
 10
113.55577999999984
 20
-197.41794400000035
 30
0.0
 11
114.65077399999984
 21
-197.41794400000035
 31
0.0
  0
LINE
  5
237
330
17
100
AcDbEntity
  8
0
100
AcDbLine
 10
114.65077399999984
 20
-197.41794400000035
 30
0.0
 11
115.25605599999983
 21
-197.55205600000036
 31
0.0
  0
LINE
  5
238
330
17
100
AcDbEntity
  8
0
100
AcDbLine
 10
115.25605599999983
 20
-197.55205600000036
 30
0.0
 11
115.86133799999983
 21
-197.68616800000035
 31
0.0
  0
LINE
  5
239
330
17
100
AcDbEntity
  8
0
100
AcDbLine
 10
115.86133799999983
 20
-197.68616800000035
 30
0.0
 11
116.46661999999982
 21
-197.82028000000037
 31
0.0
  0
LINE
  5
23A
330
17
100
AcDbEntity
  8
0
100
AcDbLine
 10
116.46661999999982
 20
-197.82028000000037
 30
0.0
 11
117.07190199999981
 21
-197.95439200000035
 31
0.0
  0
LINE
  5
23B
330
17
100
AcDbEntity
  8
0
100
AcDbLine
 10
117.07190199999981
 20
-197.95439200000035
 30
0.0
 11
117.67718399999981
 21
-198.08850400000037
 31
0.0
  0
LINE
  5
23C
330
17
100
AcDbEntity
  8
0
100
AcDbLine
 10
117.67718399999981
 20
-198.08850400000037
 30
0.0
 11
118.2824659999998
 21
-198.2226160000004
 31
0.0
  0
LINE
  5
23D
330
17
100
AcDbEntity
  8
0
100
AcDbLine
 10
118.2824659999998
 20
-198.2226160000004
 30
0.0
 11
118.8877479999998
 21
-198.35672800000037
 31
0.0
  0
LINE
  5
23E
330
17
100
AcDbEntity
  8
0
100
AcDbLine
 10
118.8877479999998
 20
-198.35672800000037
 30
0.0
 11
119.49302999999979
 21
-198.4908400000004
 31
0.0
  0
LINE
  5
23F
330
17
100
AcDbEntity
  8
0
100
AcDbLine
 10
119.49302999999979
 20
-198.4908400000004
 30
0.0
 11
119.8189119999998
 21
-198.55840400000037
 31
0.0
  0
LINE
  5
240
330
17
100
AcDbEntity
  8
0
100
AcDbLine
 10
119.8189119999998
 20
-198.55840400000037
 30
0.0
 11
120.1463179999998
 21
-198.61733200000037
 31
0.0
  0
LINE
  5
241
330
17
100
AcDbEntity
  8
0
100
AcDbLine
 10
120.1463179999998
 20
-198.61733200000037
 30
0.0
 11
120.47524799999981
 21
-198.66737000000037
 31
0.0
  0
LINE
  5
242
330
17
100
AcDbEntity
  8
0
100
AcDbLine
 10
120.47524799999981
 20
-198.66737000000037
 30
0.0
 11
120.8051939999998
 21
-198.70877200000038
 31
0.0
  0
LINE
  5
243
330
17
100
AcDbEntity
  8
0
100
AcDbLine
 10
120.8051939999998
 20
-198.70877200000038
 30
0.0
 11
121.1361559999998
 21
-198.74128400000038
 31
0.0
  0
LINE
  5
244
330
17
100
AcDbEntity
  8
0
100
AcDbLine
 10
121.1361559999998
 20
-198.74128400000038
 30
0.0
 11
121.4678799999998
 21
-198.76490600000037
 31
0.0
  0
LINE
  5
245
330
17
100
AcDbEntity
  8
0
100
AcDbLine
 10
121.4678799999998
 20
-198.76490600000037
 30
0.0
 11
121.8003659999998
 21
-198.77963800000038
 31
0.0
  0
LINE
  5
246
330
17
100
AcDbEntity
  8
0
100
AcDbLine
 10
121.8003659999998
 20
-198.77963800000038
 30
0.0
 11
122.1331059999998
 21
-198.78548000000038
 31
0.0
  0
LINE
  5
247
330
17
100
AcDbEntity
  8
0
100
AcDbLine
 10
122.1331059999998
 20
-198.78548000000038
 30
0.0
 11
122.55931799999979
 21
-198.78725800000038
 31
0.0
  0
LINE
  5
248
330
17
100
AcDbEntity
  8
0
100
AcDbLine
 10
122.55931799999979
 20
-198.78725800000038
 30
0.0
 11
122.9855299999998
 21
-198.78903600000035
 31
0.0
  0
LINE
  5
249
330
17
100
AcDbEntity
  8
0
100
AcDbLine
 10
122.9855299999998
 20
-198.78903600000035
 30
0.0
 11
123.41174199999979
 21
-198.79081400000035
 31
0.0
  0
LINE
  5
24A
330
17
100
AcDbEntity
  8
0
100
AcDbLine
 10
123.41174199999979
 20
-198.79081400000035
 30
0.0
 11
123.8379539999998
 21
-198.79259200000033
 31
0.0
  0
LINE
  5
24B
330
17
100
AcDbEntity
  8
0
100
AcDbLine
 10
123.8379539999998
 20
-198.79259200000033
 30
0.0
 11
124.26416599999979
 21
-198.79437000000033
 31
0.0
  0
LINE
  5
24C
330
17
100
AcDbEntity
  8
0
100
AcDbLine
 10
124.26416599999979
 20
-198.79437000000033
 30
0.0
 11
124.6903779999998
 21
-198.7961480000003
 31
0.0
  0
LINE
  5
24D
330
17
100
AcDbEntity
  8
0
100
AcDbLine
 10
124.6903779999998
 20
-198.7961480000003
 30
0.0
 11
125.11658999999979
 21
-198.79792600000027
 31
0.0
  0
LINE
  5
24E
330
17
100
AcDbEntity
  8
0
100
AcDbLine
 10
125.11658999999979
 20
-198.79792600000027
 30
0.0
 11
125.5428019999998
 21
-198.79970400000028
 31
0.0
  0
LINE
  5
24F
330
17
100
AcDbEntity
  8
0
100
AcDbLine
 10
125.5428019999998
 20
-198.79970400000028
 30
0.0
 11
128.2783819999998
 21
-198.7722720000003
 31
0.0
  0
LINE
  5
250
330
17
100
AcDbEntity
  8
0
100
AcDbLine
 10
128.2783819999998
 20
-198.7722720000003
 30
0.0
 11
131.0139619999998
 21
-198.7448400000003
 31
0.0
  0
LINE
  5
251
330
17
100
AcDbEntity
  8
0
100
AcDbLine
 10
131.0139619999998
 20
-198.7448400000003
 30
0.0
 11
133.7495419999998
 21
-198.71740800000032
 31
0.0
  0
LINE
  5
252
330
17
100
AcDbEntity
  8
0
100
AcDbLine
 10
133.7495419999998
 20
-198.71740800000032
 30
0.0
 11
136.4851219999998
 21
-198.6899760000003
 31
0.0
  0
LINE
  5
253
330
17
100
AcDbEntity
  8
0
100
AcDbLine
 10
136.4851219999998
 20
-198.6899760000003
 30
0.0
 11
139.2207019999998
 21
-198.66254400000034
 31
0.0
  0
LINE
  5
254
330
17
100
AcDbEntity
  8
0
100
AcDbLine
 10
139.2207019999998
 20
-198.66254400000034
 30
0.0
 11
141.9562819999998
 21
-198.63511200000036
 31
0.0
  0
LINE
  5
255
330
17
100
AcDbEntity
  8
0
100
AcDbLine
 10
141.9562819999998
 20
-198.63511200000036
 30
0.0
 11
144.6918619999998
 21
-198.60768000000036
 31
0.0
  0
LINE
  5
256
330
17
100
AcDbEntity
  8
0
100
AcDbLine
 10
144.6918619999998
 20
-198.60768000000036
 30
0.0
 11
147.42744199999976
 21
-198.58024800000038
 31
0.0
  0
LINE
  5
257
330
17
100
AcDbEntity
  8
0
100
AcDbLine
 10
147.42744199999976
 20
-198.58024800000038
 30
0.0
 11
147.42744199999976
 21
-196.60031800000039
 31
0.0
  0
LINE
  5
258
330
17
100
AcDbEntity
  8
0
100
AcDbLine
 10
147.42744199999976
 20
-196.60031800000039
 30
0.0
 11
147.42744199999976
 21
-194.6203880000004
 31
0.0
  0
LINE
  5
259
330
17
100
AcDbEntity
  8
0
100
AcDbLine
 10
147.42744199999976
 20
-194.6203880000004
 30
0.0
 11
147.42744199999976
 21
-192.64045800000042
 31
0.0
  0
LINE
  5
25A
330
17
100
AcDbEntity
  8
0
100
AcDbLine
 10
147.42744199999976
 20
-192.64045800000042
 30
0.0
 11
147.42744199999976
 21
-190.66052800000043
 31
0.0
  0
LINE
  5
25B
330
17
100
AcDbEntity
  8
0
100
AcDbLine
 10
147.42744199999976
 20
-190.66052800000043
 30
0.0
 11
147.42744199999976
 21
-188.68059800000043
 31
0.0
  0
LINE
  5
25C
330
17
100
AcDbEntity
  8
0
100
AcDbLine
 10
147.42744199999976
 20
-188.68059800000043
 30
0.0
 11
147.42744199999976
 21
-186.70066800000043
 31
0.0
  0
LINE
  5
25D
330
17
100
AcDbEntity
  8
0
100
AcDbLine
 10
147.42744199999976
 20
-186.70066800000043
 30
0.0
 11
147.42744199999976
 21
-184.72073800000047
 31
0.0
  0
LINE
  5
25E
330
17
100
AcDbEntity
  8
0
100
AcDbLine
 10
147.42744199999976
 20
-184.72073800000047
 30
0.0
 11
147.42744199999976
 21
-182.74080800000047
 31
0.0
  0
LINE
  5
25F
330
17
100
AcDbEntity
  8
0
100
AcDbLine
 10
147.42744199999976
 20
-182.74080800000047
 30
0.0
 11
143.4924739999998
 21
-182.74080800000047
 31
0.0
  0
LINE
  5
260
330
17
100
AcDbEntity
  8
0
100
AcDbLine
 10
143.4924739999998
 20
-182.74080800000047
 30
0.0
 11
139.5575059999998
 21
-182.74080800000047
 31
0.0
  0
LINE
  5
261
330
17
100
AcDbEntity
  8
0
100
AcDbLine
 10
139.5575059999998
 20
-182.74080800000047
 30
0.0
 11
135.6225379999998
 21
-182.74080800000047
 31
0.0
  0
LINE
  5
262
330
17
100
AcDbEntity
  8
0
100
AcDbLine
 10
135.6225379999998
 20
-182.74080800000047
 30
0.0
 11
131.68756999999982
 21
-182.74080800000047
 31
0.0
  0
LINE
  5
263
330
17
100
AcDbEntity
  8
0
100
AcDbLine
 10
131.68756999999982
 20
-182.74080800000047
 30
0.0
 11
127.75260199999981
 21
-182.74080800000047
 31
0.0
  0
LINE
  5
264
330
17
100
AcDbEntity
  8
0
100
AcDbLine
 10
127.75260199999981
 20
-182.74080800000047
 30
0.0
 11
123.8176339999998
 21
-182.74080800000047
 31
0.0
  0
LINE
  5
265
330
17
100
AcDbEntity
  8
0
100
AcDbLine
 10
123.8176339999998
 20
-182.74080800000047
 30
0.0
 11
119.8826659999998
 21
-182.74080800000047
 31
0.0
  0
LINE
  5
266
330
17
100
AcDbEntity
  8
0
100
AcDbLine
 10
119.8826659999998
 20
-182.74080800000047
 30
0.0
 11
115.94769799999979
 21
-182.74080800000047
 31
0.0
  0
LINE
  5
267
330
17
100
AcDbEntity
  8
0
100
AcDbLine
 10
142.2006299999998
 20
-206.25282600000045
 30
0.0
 11
147.02561399999976
 21
-206.21548800000045
 31
0.0
  0
LINE
  5
268
330
17
100
AcDbEntity
  8
0
100
AcDbLine
 10
147.02561399999976
 20
-206.21548800000045
 30
0.0
 11
151.85059799999976
 21
-206.17815000000044
 31
0.0
  0
LINE
  5
269
330
17
100
AcDbEntity
  8
0
100
AcDbLine
 10
151.85059799999976
 20
-206.17815000000044
 30
0.0
 11
156.67558199999976
 21
-206.14081200000044
 31
0.0
  0
LINE
  5
26A
330
17
100
AcDbEntity
  8
0
100
AcDbLine
 10
156.67558199999976
 20
-206.14081200000044
 30
0.0
 11
161.50056599999976
 21
-206.1034740000004
 31
0.0
  0
LINE
  5
26B
330
17
100
AcDbEntity
  8
0
100
AcDbLine
 10
161.50056599999976
 20
-206.1034740000004
 30
0.0
 11
166.32554999999977
 21
-206.0661360000004
 31
0.0
  0
LINE
  5
26C
330
17
100
AcDbEntity
  8
0
100
AcDbLine
 10
166.32554999999977
 20
-206.0661360000004
 30
0.0
 11
171.15053399999974
 21
-206.0287980000004
 31
0.0
  0
LINE
  5
26D
330
17
100
AcDbEntity
  8
0
100
AcDbLine
 10
171.15053399999974
 20
-206.0287980000004
 30
0.0
 11
175.97551799999974
 21
-205.9914600000004
 31
0.0
  0
LINE
  5
26E
330
17
100
AcDbEntity
  8
0
100
AcDbLine
 10
175.97551799999974
 20
-205.9914600000004
 30
0.0
 11
180.80050199999974
 21
-205.95412200000038
 31
0.0
  0
LINE
  5
26F
330
17
100
AcDbEntity
  8
0
100
AcDbLine
 10
180.80050199999974
 20
-205.95412200000038
 30
0.0
 11
180.83250599999974
 21
-205.95361400000039
 31
0.0
  0
LINE
  5
270
330
17
100
AcDbEntity
  8
0
100
AcDbLine
 10
180.83250599999974
 20
-205.95361400000039
 30
0.0
 11
180.86450999999974
 21
-205.95285200000038
 31
0.0
  0
LINE
  5
271
330
17
100
AcDbEntity
  8
0
100
AcDbLine
 10
180.86450999999974
 20
-205.95285200000038
 30
0.0
 11
180.8965139999997
 21
-205.95183600000036
 31
0.0
  0
LINE
  5
272
330
17
100
AcDbEntity
  8
0
100
AcDbLine
 10
180.8965139999997
 20
-205.95183600000036
 30
0.0
 11
180.9285179999997
 21
-205.95056600000038
 31
0.0
  0
LINE
  5
273
330
17
100
AcDbEntity
  8
0
100
AcDbLine
 10
180.9285179999997
 20
-205.95056600000038
 30
0.0
 11
180.9605219999997
 21
-205.94904200000036
 31
0.0
  0
LINE
  5
274
330
17
100
AcDbEntity
  8
0
100
AcDbLine
 10
180.9605219999997
 20
-205.94904200000036
 30
0.0
 11
180.9925259999997
 21
-205.9472640000004
 31
0.0
  0
LINE
  5
275
330
17
100
AcDbEntity
  8
0
100
AcDbLine
 10
180.9925259999997
 20
-205.9472640000004
 30
0.0
 11
181.0245299999997
 21
-205.94523200000037
 31
0.0
  0
LINE
  5
276
330
17
100
AcDbEntity
  8
0
100
AcDbLine
 10
181.0245299999997
 20
-205.94523200000037
 30
0.0
 11
181.0565339999997
 21
-205.94294600000038
 31
0.0
  0
LINE
  5
277
330
17
100
AcDbEntity
  8
0
100
AcDbLine
 10
181.0565339999997
 20
-205.94294600000038
 30
0.0
 11
181.8111679999997
 21
-205.80731000000037
 31
0.0
  0
LINE
  5
278
330
17
100
AcDbEntity
  8
0
100
AcDbLine
 10
181.8111679999997
 20
-205.80731000000037
 30
0.0
 11
182.50636599999967
 21
-205.53400600000037
 31
0.0
  0
LINE
  5
279
330
17
100
AcDbEntity
  8
0
100
AcDbLine
 10
182.50636599999967
 20
-205.53400600000037
 30
0.0
 11
183.1299359999997
 21
-205.13903600000037
 31
0.0
  0
LINE
  5
27A
330
17
100
AcDbEntity
  8
0
100
AcDbLine
 10
183.1299359999997
 20
-205.13903600000037
 30
0.0
 11
183.6696859999997
 21
-204.6381480000004
 31
0.0
  0
LINE
  5
27B
330
17
100
AcDbEntity
  8
0
100
AcDbLine
 10
183.6696859999997
 20
-204.6381480000004
 30
0.0
 11
184.1136779999997
 21
-204.0470900000004
 31
0.0
  0
LINE
  5
27C
330
17
100
AcDbEntity
  8
0
100
AcDbLine
 10
184.1136779999997
 20
-204.0470900000004
 30
0.0
 11
184.4497199999997
 21
-203.3816100000004
 31
0.0
  0
LINE
  5
27D
330
17
100
AcDbEntity
  8
0
100
AcDbLine
 10
184.4497199999997
 20
-203.3816100000004
 30
0.0
 11
184.6656199999997
 21
-202.65771000000038
 31
0.0
  0
LINE
  5
27E
330
17
100
AcDbEntity
  8
0
100
AcDbLine
 10
184.6656199999997
 20
-202.65771000000038
 30
0.0
 11
184.7494399999997
 21
-201.89113800000038
 31
0.0
  0
LINE
  5
27F
330
17
100
AcDbEntity
  8
0
100
AcDbLine
 10
184.7494399999997
 20
-201.89113800000038
 30
0.0
 11
184.7509639999997
 21
-201.84948200000036
 31
0.0
  0
LINE
  5
280
330
17
100
AcDbEntity
  8
0
100
AcDbLine
 10
184.7509639999997
 20
-201.84948200000036
 30
0.0
 11
184.75248799999972
 21
-201.80782600000038
 31
0.0
  0
LINE
  5
281
330
17
100
AcDbEntity
  8
0
100
AcDbLine
 10
184.75248799999972
 20
-201.80782600000038
 30
0.0
 11
184.7540119999997
 21
-201.7661700000004
 31
0.0
  0
LINE
  5
282
330
17
100
AcDbEntity
  8
0
100
AcDbLine
 10
184.7540119999997
 20
-201.7661700000004
 30
0.0
 11
184.7555359999997
 21
-201.72426000000038
 31
0.0
  0
LINE
  5
283
330
17
100
AcDbEntity
  8
0
100
AcDbLine
 10
184.7555359999997
 20
-201.72426000000038
 30
0.0
 11
184.75705999999968
 21
-201.6826040000004
 31
0.0
  0
LINE
  5
284
330
17
100
AcDbEntity
  8
0
100
AcDbLine
 10
184.75705999999968
 20
-201.6826040000004
 30
0.0
 11
184.75858399999967
 21
-201.6409480000004
 31
0.0
  0
LINE
  5
285
330
17
100
AcDbEntity
  8
0
100
AcDbLine
 10
184.75858399999967
 20
-201.6409480000004
 30
0.0
 11
184.76010799999966
 21
-201.5990380000004
 31
0.0
  0
LINE
  5
286
330
17
100
AcDbEntity
  8
0
100
AcDbLine
 10
184.76010799999966
 20
-201.5990380000004
 30
0.0
 11
184.76163199999965
 21
-201.55738200000042
 31
0.0
  0
LINE
  5
287
330
17
100
AcDbEntity
  8
0
100
AcDbLine
 10
184.76163199999965
 20
-201.55738200000042
 30
0.0
 11
179.55666399999967
 21
-201.5883700000004
 31
0.0
  0
LINE
  5
288
330
17
100
AcDbEntity
  8
0
100
AcDbLine
 10
179.55666399999967
 20
-201.5883700000004
 30
0.0
 11
174.3516959999997
 21
-201.6193580000004
 31
0.0
  0
LINE
  5
289
330
17
100
AcDbEntity
  8
0
100
AcDbLine
 10
174.3516959999997
 20
-201.6193580000004
 30
0.0
 11
169.14672799999968
 21
-201.65034600000038
 31
0.0
  0
LINE
  5
28A
330
17
100
AcDbEntity
  8
0
100
AcDbLine
 10
169.14672799999968
 20
-201.65034600000038
 30
0.0
 11
163.9417599999997
 21
-201.68133400000036
 31
0.0
  0
LINE
  5
28B
330
17
100
AcDbEntity
  8
0
100
AcDbLine
 10
163.9417599999997
 20
-201.68133400000036
 30
0.0
 11
158.7367919999997
 21
-201.71232200000037
 31
0.0
  0
LINE
  5
28C
330
17
100
AcDbEntity
  8
0
100
AcDbLine
 10
158.7367919999997
 20
-201.71232200000037
 30
0.0
 11
153.53182399999972
 21
-201.74331000000035
 31
0.0
  0
LINE
  5
28D
330
17
100
AcDbEntity
  8
0
100
AcDbLine
 10
153.53182399999972
 20
-201.74331000000035
 30
0.0
 11
148.32685599999974
 21
-201.77429800000033
 31
0.0
  0
LINE
  5
28E
330
17
100
AcDbEntity
  8
0
100
AcDbLine
 10
148.32685599999974
 20
-201.77429800000033
 30
0.0
 11
143.12188799999973
 21
-201.80528600000034
 31
0.0
  0
LINE
  5
28F
330
17
100
AcDbEntity
  8
0
100
AcDbLine
 10
143.12188799999973
 20
-201.80528600000034
 30
0.0
 11
142.93011799999974
 21
-201.82586000000032
 31
0.0
  0
LINE
  5
290
330
17
100
AcDbEntity
  8
0
100
AcDbLine
 10
142.93011799999974
 20
-201.82586000000032
 30
0.0
 11
142.75180999999975
 21
-201.88250200000033
 31
0.0
  0
LINE
  5
291
330
17
100
AcDbEntity
  8
0
100
AcDbLine
 10
142.75180999999975
 20
-201.88250200000033
 30
0.0
 11
142.59051999999974
 21
-201.97140200000032
 31
0.0
  0
LINE
  5
292
330
17
100
AcDbEntity
  8
0
100
AcDbLine
 10
142.59051999999974
 20
-201.97140200000032
 30
0.0
 11
142.45031199999974
 21
-202.08849600000033
 31
0.0
  0
LINE
  5
293
330
17
100
AcDbEntity
  8
0
100
AcDbLine
 10
142.45031199999974
 20
-202.08849600000033
 30
0.0
 11
142.33499599999976
 21
-202.23022800000032
 31
0.0
  0
LINE
  5
294
330
17
100
AcDbEntity
  8
0
100
AcDbLine
 10
142.33499599999976
 20
-202.23022800000032
 30
0.0
 11
142.24838199999974
 21
-202.39253400000032
 31
0.0
  0
LINE
  5
295
330
17
100
AcDbEntity
  8
0
100
AcDbLine
 10
142.24838199999974
 20
-202.39253400000032
 30
0.0
 11
142.19402599999972
 21
-202.57160400000035
 31
0.0
  0
LINE
  5
296
330
17
100
AcDbEntity
  8
0
100
AcDbLine
 10
142.19402599999972
 20
-202.57160400000035
 30
0.0
 11
142.17599199999972
 21
-202.76362800000032
 31
0.0
  0
LINE
  5
297
330
17
100
AcDbEntity
  8
0
100
AcDbLine
 10
142.17599199999972
 20
-202.76362800000032
 30
0.0
 11
142.17929399999974
 21
-203.20000000000033
 31
0.0
  0
LINE
  5
298
330
17
100
AcDbEntity
  8
0
100
AcDbLine
 10
142.17929399999974
 20
-203.20000000000033
 30
0.0
 11
142.18259599999973
 21
-203.6363720000003
 31
0.0
  0
LINE
  5
299
330
17
100
AcDbEntity
  8
0
100
AcDbLine
 10
142.18259599999973
 20
-203.6363720000003
 30
0.0
 11
142.18589799999975
 21
-204.0727440000003
 31
0.0
  0
LINE
  5
29A
330
17
100
AcDbEntity
  8
0
100
AcDbLine
 10
142.18589799999975
 20
-204.0727440000003
 30
0.0
 11
142.18919999999977
 21
-204.5091160000003
 31
0.0
  0
LINE
  5
29B
330
17
100
AcDbEntity
  8
0
100
AcDbLine
 10
142.18919999999977
 20
-204.5091160000003
 30
0.0
 11
142.19250199999976
 21
-204.94548800000027
 31
0.0
  0
LINE
  5
29C
330
17
100
AcDbEntity
  8
0
100
AcDbLine
 10
142.19250199999976
 20
-204.94548800000027
 30
0.0
 11
142.19580399999978
 21
-205.38186000000027
 31
0.0
  0
LINE
  5
29D
330
17
100
AcDbEntity
  8
0
100
AcDbLine
 10
142.19580399999978
 20
-205.38186000000027
 30
0.0
 11
142.19885199999976
 21
-205.81823200000025
 31
0.0
  0
LINE
  5
29E
330
17
100
AcDbEntity
  8
0
100
AcDbLine
 10
142.19885199999976
 20
-205.81823200000025
 30
0.0
 11
142.20215399999978
 21
-206.25460400000026
 31
0.0
  0
ENDSEC
  0
SECTION
  2
OBJECTS
  0
DICTIONARY
  5
A
330
0
100
AcDbDictionary
281
1
  3
ACAD_COLOR
350
B
  3
ACAD_GROUP
350
C
  3
ACAD_LAYOUT
350
D
  3
ACAD_MATERIAL
350
E
  3
ACAD_MLEADERSTYLE
350
F
  3
ACAD_MLINESTYLE
350
10
  3
ACAD_PLOTSETTINGS
350
11
  3
ACAD_PLOTSTYLENAME
350
12
  3
ACAD_SCALELIST
350
14
  3
ACAD_TABLESTYLE
350
15
  3
ACAD_VISUALSTYLE
350
16
  3
EZDXF_META
350
2D
  0
DICTIONARY
  5
B
330
A
100
AcDbDictionary
281
1
  0
DICTIONARY
  5
C
330
A
100
AcDbDictionary
281
1
  0
DICTIONARY
  5
D
330
A
100
AcDbDictionary
281
1
  3
Model
350
1A
  3
Layout1
350
1E
  0
DICTIONARY
  5
E
330
A
100
AcDbDictionary
281
1
  3
ByBlock
350
1F
  3
ByLayer
350
20
  3
Global
350
21
  0
DICTIONARY
  5
F
330
A
100
AcDbDictionary
281
1
  3
Standard
350
2C
  0
DICTIONARY
  5
10
330
A
100
AcDbDictionary
281
1
  3
Standard
350
22
  0
DICTIONARY
  5
11
330
A
100
AcDbDictionary
281
1
  0
ACDBDICTIONARYWDFLT
  5
12
330
A
100
AcDbDictionary
281
1
  3
Normal
350
13
100
AcDbDictionaryWithDefault
340
13
  0
ACDBPLACEHOLDER
  5
13
330
12
  0
DICTIONARY
  5
14
330
A
100
AcDbDictionary
281
1
  0
DICTIONARY
  5
15
330
A
100
AcDbDictionary
281
1
  0
DICTIONARY
  5
16
330
A
100
AcDbDictionary
281
1
  0
LAYOUT
  5
1A
330
D
100
AcDbPlotSettings
  1

  4
A3
  6

 40
7.5
 41
20.0
 42
7.5
 43
20.0
 44
420.0
 45
297.0
 46
0.0
 47
0.0
 48
0.0
 49
0.0
140
0.0
141
0.0
142
1.0
143
1.0
 70
1024
 72
1
 73
0
 74
5
  7

 75
16
 76
0
 77
2
 78
300
147
1.0
148
0.0
149
0.0
100
AcDbLayout
  1
Model
 70
1
 71
0
 10
0.0
 20
0.0
 11
420.0
 21
297.0
 12
0.0
 22
0.0
 32
0.0
 14
1e+20
 24
1e+20
 34
1e+20
 15
-1e+20
 25
-1e+20
 35
-1e+20
146
0.0
 13
0.0
 23
0.0
 33
0.0
 16
1.0
 26
0.0
 36
0.0
 17
0.0
 27
1.0
 37
0.0
 76
1
330
17
  0
LAYOUT
  5
1E
330
D
100
AcDbPlotSettings
  1

  4
A3
  6

 40
7.5
 41
20.0
 42
7.5
 43
20.0
 44
420.0
 45
297.0
 46
0.0
 47
0.0
 48
0.0
 49
0.0
140
0.0
141
0.0
142
1.0
143
1.0
 70
0
 72
1
 73
0
 74
5
  7

 75
16
 76
0
 77
2
 78
300
147
1.0
148
0.0
149
0.0
100
AcDbLayout
  1
Layout1
 70
1
 71
1
 10
0.0
 20
0.0
 11
420.0
 21
297.0
 12
0.0
 22
0.0
 32
0.0
 14
1e+20
 24
1e+20
 34
1e+20
 15
-1e+20
 25
-1e+20
 35
-1e+20
146
0.0
 13
0.0
 23
0.0
 33
0.0
 16
1.0
 26
0.0
 36
0.0
 17
0.0
 27
1.0
 37
0.0
 76
1
330
1B
  0
MATERIAL
  5
1F
102
{ACAD_REACTORS
330
E
102
}
330
E
100
AcDbMaterial
  1
ByBlock
  2

 70
0
 40
1.0
 71
1
 41
1.0
 91
-1023410177
 42
1.0
 72
1
  3

 73
1
 74
1
 75
1
 44
0.5
 73
0
 45
1.0
 46
1.0
 77
1
  4

 78
1
 79
1
170
1
 48
1.0
171
1
  6

172
1
173
1
174
1
140
1.0
141
1.0
175
1
  7

176
1
177
1
178
1
143
1.0
179
1
  8

270
1
271
1
272
1
145
1.0
146
1.0
273
1
  9

274
1
275
1
276
1
 42
1.0
 72
1
  3

 73
1
 74
1
 75
1
 94
63
  0
MATERIAL
  5
20
102
{ACAD_REACTORS
330
E
102
}
330
E
100
AcDbMaterial
  1
ByLayer
  2

 70
0
 40
1.0
 71
1
 41
1.0
 91
-1023410177
 42
1.0
 72
1
  3

 73
1
 74
1
 75
1
 44
0.5
 73
0
 45
1.0
 46
1.0
 77
1
  4

 78
1
 79
1
170
1
 48
1.0
171
1
  6

172
1
173
1
174
1
140
1.0
141
1.0
175
1
  7

176
1
177
1
178
1
143
1.0
179
1
  8

270
1
271
1
272
1
145
1.0
146
1.0
273
1
  9

274
1
275
1
276
1
 42
1.0
 72
1
  3

 73
1
 74
1
 75
1
 94
63
  0
MATERIAL
  5
21
102
{ACAD_REACTORS
330
E
102
}
330
E
100
AcDbMaterial
  1
Global
  2

 70
0
 40
1.0
 71
1
 41
1.0
 91
-1023410177
 42
1.0
 72
1
  3

 73
1
 74
1
 75
1
 44
0.5
 73
0
 45
1.0
 46
1.0
 77
1
  4

 78
1
 79
1
170
1
 48
1.0
171
1
  6

172
1
173
1
174
1
140
1.0
141
1.0
175
1
  7

176
1
177
1
178
1
143
1.0
179
1
  8

270
1
271
1
272
1
145
1.0
146
1.0
273
1
  9

274
1
275
1
276
1
 42
1.0
 72
1
  3

 73
1
 74
1
 75
1
 94
63
  0
MLINESTYLE
  5
22
102
{ACAD_REACTORS
330
10
102
}
330
10
100
AcDbMlineStyle
  2
Standard
 70
0
  3

 62
256
 51
90.0
 52
90.0
 71
2
 49
0.5
 62
256
  6
BYLAYER
 49
-0.5
 62
256
  6
BYLAYER
  0
MLEADERSTYLE
  5
2C
102
{ACAD_REACTORS
330
F
102
}
330
F
100
AcDbMLeaderStyle
179
2
170
2
171
1
172
0
 90
2
 40
0.0
 41
0.0
173
1
 91
-1056964608
 92
-2
290
1
 42
2.0
291
1
 43
8.0
  3
Standard
 44
4.0
300

342
29
174
1
175
1
176
0
178
1
 93
-1056964608
 45
4.0
292
0
297
0
 46
4.0
 94
-1056964608
 47
1.0
 49
1.0
140
1.0
294
1
141
0.0
177
0
142
1.0
295
0
296
0
143
3.75
271
0
272
9
273
9
  0
DICTIONARY
  5
2D
330
A
100
AcDbDictionary
280
1
281
1
  3
CREATED_BY_EZDXF
350
2E
  3
WRITTEN_BY_EZDXF
350
2A1
  0
DICTIONARYVAR
  5
2E
330
2D
100
DictionaryVariables
280
0
  1
1.4.3 @ 2026-04-08T00:18:18.140268+00:00
  0
DICTIONARYVAR
  5
2A1
330
2D
100
DictionaryVariables
280
0
  1
1.4.3 @ 2026-04-08T00:18:18.145247+00:00
  0
ENDSEC
  0
EOF
