  0
SECTION
  2
HEADER
  9
$ACADVER
  1
AC1024
  9
$ACADMAINTVER
 70
6
  9
$DWGCODEPAGE
  3
ANSI_1252
  9
$LASTSAVEDBY
  1
ezdxf
  9
$INSBASE
 10
0.0
 20
0.0
 30
0.0
  9
$EXTMIN
 10
1e+20
 20
1e+20
 30
1e+20
  9
$EXTMAX
 10
-1e+20
 20
-1e+20
 30
-1e+20
  9
$LIMMIN
 10
0.0
 20
0.0
  9
$LIMMAX
 10
420.0
 20
297.0
  9
$ORTHOMODE
 70
0
  9
$REGENMODE
 70
1
  9
$FILLMODE
 70
1
  9
$QTEXTMODE
 70
0
  9
$MIRRTEXT
 70
1
  9
$LTSCALE
 40
1.0
  9
$ATTMODE
 70
1
  9
$TEXTSIZE
 40
2.5
  9
$TRACEWID
 40
1.0
  9
$TEXTSTYLE
  7
Standard
  9
$CLAYER
  8
0
  9
$CELTYPE
  6
ByLayer
  9
$CECOLOR
 62
256
  9
$CELTSCALE
 40
1.0
  9
$DISPSILH
 70
0
  9
$DIMSCALE
 40
1.0
  9
$DIMASZ
 40
2.5
  9
$DIMEXO
 40
0.625
  9
$DIMDLI
 40
3.75
  9
$DIMRND
 40
0.0
  9
$DIMDLE
 40
0.0
  9
$DIMEXE
 40
1.25
  9
$DIMTP
 40
0.0
  9
$DIMTM
 40
0.0
  9
$DIMTXT
 40
2.5
  9
$DIMCEN
 40
2.5
  9
$DIMTSZ
 40
0.0
  9
$DIMTOL
 70
0
  9
$DIMLIM
 70
0
  9
$DIMTIH
 70
0
  9
$DIMTOH
 70
0
  9
$DIMSE1
 70
0
  9
$DIMSE2
 70
0
  9
$DIMTAD
 70
1
  9
$DIMZIN
 70
8
  9
$DIMBLK
  1

  9
$DIMASO
 70
1
  9
$DIMSHO
 70
1
  9
$DIMPOST
  1

  9
$DIMAPOST
  1

  9
$DIMALT
 70
0
  9
$DIMALTD
 70
3
  9
$DIMALTF
 40
0.03937007874
  9
$DIMLFAC
 40
1.0
  9
$DIMTOFL
 70
1
  9
$DIMTVP
 40
0.0
  9
$DIMTIX
 70
0
  9
$DIMSOXD
 70
0
  9
$DIMSAH
 70
0
  9
$DIMBLK1
  1

  9
$DIMBLK2
  1

  9
$DIMSTYLE
  2
ISO-25
  9
$DIMCLRD
 70
0
  9
$DIMCLRE
 70
0
  9
$DIMCLRT
 70
0
  9
$DIMTFAC
 40
1.0
  9
$DIMGAP
 40
0.625
  9
$DIMJUST
 70
0
  9
$DIMSD1
 70
0
  9
$DIMSD2
 70
0
  9
$DIMTOLJ
 70
0
  9
$DIMTZIN
 70
8
  9
$DIMALTZ
 70
0
  9
$DIMALTTZ
 70
0
  9
$DIMUPT
 70
0
  9
$DIMDEC
 70
2
  9
$DIMTDEC
 70
2
  9
$DIMALTU
 70
2
  9
$DIMALTTD
 70
3
  9
$DIMTXSTY
  7
Standard
  9
$DIMAUNIT
 70
0
  9
$DIMADEC
 70
0
  9
$DIMALTRND
 40
0.0
  9
$DIMAZIN
 70
0
  9
$DIMDSEP
 70
44
  9
$DIMATFIT
 70
3
  9
$DIMFRAC
 70
0
  9
$DIMLDRBLK
  1

  9
$DIMLUNIT
 70
2
  9
$DIMLWD
 70
-2
  9
$DIMLWE
 70
-2
  9
$DIMTMOVE
 70
0
  9
$DIMFXL
 40
1.0
  9
$DIMFXLON
 70
0
  9
$DIMJOGANG
 40
0.785398163397
  9
$DIMTFILL
 70
0
  9
$DIMTFILLCLR
 70
0
  9
$DIMARCSYM
 70
0
  9
$DIMLTYPE
  6

  9
$DIMLTEX1
  6

  9
$DIMLTEX2
  6

  9
$DIMTXTDIRECTION
 70
0
  9
$LUNITS
 70
2
  9
$LUPREC
 70
4
  9
$SKETCHINC
 40
1.0
  9
$FILLETRAD
 40
10.0
  9
$AUNITS
 70
0
  9
$AUPREC
 70
2
  9
$MENU
  1
.
  9
$ELEVATION
 40
0.0
  9
$PELEVATION
 40
0.0
  9
$THICKNESS
 40
0.0
  9
$LIMCHECK
 70
0
  9
$CHAMFERA
 40
0.0
  9
$CHAMFERB
 40
0.0
  9
$CHAMFERC
 40
0.0
  9
$CHAMFERD
 40
0.0
  9
$SKPOLY
 70
0
  9
$TDCREATE
 40
2461140.590127315
  9
$TDUCREATE
 40
2458532.153996898
  9
$TDUPDATE
 40
2461140.590127315
  9
$TDUUPDATE
 40
2458532.1544311
  9
$TDINDWG
 40
0.0
  9
$TDUSRTIMER
 40
0.0
  9
$USRTIMER
 70
1
  9
$ANGBASE
 50
0.0
  9
$ANGDIR
 70
0
  9
$PDMODE
 70
0
  9
$PDSIZE
 40
0.0
  9
$PLINEWID
 40
0.0
  9
$SPLFRAME
 70
0
  9
$SPLINETYPE
 70
6
  9
$SPLINESEGS
 70
8
  9
$HANDSEED
  5
38
  9
$SURFTAB1
 70
6
  9
$SURFTAB2
 70
6
  9
$SURFTYPE
 70
6
  9
$SURFU
 70
6
  9
$SURFV
 70
6
  9
$UCSBASE
  2

  9
$UCSNAME
  2

  9
$UCSORG
 10
0.0
 20
0.0
 30
0.0
  9
$UCSXDIR
 10
1.0
 20
0.0
 30
0.0
  9
$UCSYDIR
 10
0.0
 20
1.0
 30
0.0
  9
$UCSORTHOREF
  2

  9
$UCSORTHOVIEW
 70
0
  9
$UCSORGTOP
 10
0.0
 20
0.0
 30
0.0
  9
$UCSORGBOTTOM
 10
0.0
 20
0.0
 30
0.0
  9
$UCSORGLEFT
 10
0.0
 20
0.0
 30
0.0
  9
$UCSORGRIGHT
 10
0.0
 20
0.0
 30
0.0
  9
$UCSORGFRONT
 10
0.0
 20
0.0
 30
0.0
  9
$UCSORGBACK
 10
0.0
 20
0.0
 30
0.0
  9
$PUCSBASE
  2

  9
$PUCSNAME
  2

  9
$PUCSORG
 10
0.0
 20
0.0
 30
0.0
  9
$PUCSXDIR
 10
1.0
 20
0.0
 30
0.0
  9
$PUCSYDIR
 10
0.0
 20
1.0
 30
0.0
  9
$PUCSORTHOREF
  2

  9
$PUCSORTHOVIEW
 70
0
  9
$PUCSORGTOP
 10
0.0
 20
0.0
 30
0.0
  9
$PUCSORGBOTTOM
 10
0.0
 20
0.0
 30
0.0
  9
$PUCSORGLEFT
 10
0.0
 20
0.0
 30
0.0
  9
$PUCSORGRIGHT
 10
0.0
 20
0.0
 30
0.0
  9
$PUCSORGFRONT
 10
0.0
 20
0.0
 30
0.0
  9
$PUCSORGBACK
 10
0.0
 20
0.0
 30
0.0
  9
$USERI1
 70
0
  9
$USERI2
 70
0
  9
$USERI3
 70
0
  9
$USERI4
 70
0
  9
$USERI5
 70
0
  9
$USERR1
 40
0.0
  9
$USERR2
 40
0.0
  9
$USERR3
 40
0.0
  9
$USERR4
 40
0.0
  9
$USERR5
 40
0.0
  9
$WORLDVIEW
 70
1
  9
$SHADEDGE
 70
3
  9
$SHADEDIF
 70
70
  9
$TILEMODE
 70
1
  9
$MAXACTVP
 70
64
  9
$PINSBASE
 10
0.0
 20
0.0
 30
0.0
  9
$PLIMCHECK
 70
0
  9
$PEXTMIN
 10
1e+20
 20
1e+20
 30
1e+20
  9
$PEXTMAX
 10
-1e+20
 20
-1e+20
 30
-1e+20
  9
$PLIMMIN
 10
0.0
 20
0.0
  9
$PLIMMAX
 10
420.0
 20
297.0
  9
$UNITMODE
 70
0
  9
$VISRETAIN
 70
1
  9
$PLINEGEN
 70
0
  9
$PSLTSCALE
 70
1
  9
$TREEDEPTH
 70
3020
  9
$CMLSTYLE
  2
Standard
  9
$CMLJUST
 70
0
  9
$CMLSCALE
 40
20.0
  9
$PROXYGRAPHICS
 70
1
  9
$MEASUREMENT
 70
1
  9
$CELWEIGHT
370
-1
  9
$ENDCAPS
280
0
  9
$JOINSTYLE
280
0
  9
$LWDISPLAY
290
0
  9
$INSUNITS
 70
6
  9
$HYPERLINKBASE
  1

  9
$STYLESHEET
  1

  9
$XEDIT
290
1
  9
$CEPSNTYPE
380
0
  9
$PSTYLEMODE
290
1
  9
$FINGERPRINTGUID
  2
{2A1C60D5-5606-4475-8DD8-3984BBA812BF}
  9
$VERSIONGUID
  2
{8F22BA4C-9A70-4FFB-8483-3F5E2EADE704}
  9
$EXTNAMES
290
1
  9
$PSVPSCALE
 40
0.0
  9
$OLESTARTUP
290
0
  9
$SORTENTS
280
127
  9
$INDEXCTL
280
0
  9
$HIDETEXT
280
1
  9
$XCLIPFRAME
280
1
  9
$HALOGAP
280
0
  9
$OBSCOLOR
 70
257
  9
$OBSLTYPE
280
0
  9
$INTERSECTIONDISPLAY
280
0
  9
$INTERSECTIONCOLOR
 70
257
  9
$DIMASSOC
280
2
  9
$PROJECTNAME
  1

  9
$CAMERADISPLAY
290
0
  9
$LENSLENGTH
 40
50.0
  9
$CAMERAHEIGHT
 40
0.0
  9
$STEPSPERSEC
 40
24.0
  9
$STEPSIZE
 40
100.0
  9
$3DDWFPREC
 40
2.0
  9
$PSOLWIDTH
 40
0.005
  9
$PSOLHEIGHT
 40
0.08
  9
$LOFTANG1
 40
1.570796326795
  9
$LOFTANG2
 40
1.570796326795
  9
$LOFTMAG1
 40
0.0
  9
$LOFTMAG2
 40
0.0
  9
$LOFTPARAM
 70
7
  9
$LOFTNORMALS
280
1
  9
$LATITUDE
 40
37.795
  9
$LONGITUDE
 40
-122.394
  9
$NORTHDIRECTION
 40
0.0
  9
$TIMEZONE
 70
-8000
  9
$LIGHTGLYPHDISPLAY
280
1
  9
$TILEMODELIGHTSYNCH
280
1
  9
$CMATERIAL
347
20
  9
$SOLIDHIST
280
0
  9
$SHOWHIST
280
1
  9
$DWFFRAME
280
2
  9
$DGNFRAME
280
2
  9
$REALWORLDSCALE
290
1
  9
$INTERFERECOLOR
 62
256
  9
$CSHADOW
280
0
  9
$SHADOWPLANELOCATION
 40
0.0
  0
ENDSEC
  0
SECTION
  2
CLASSES
  0
CLASS
  1
ACDBDICTIONARYWDFLT
  2
AcDbDictionaryWithDefault
  3
ObjectDBX Classes
 90
0
 91
0
280
0
281
0
  0
CLASS
  1
SUN
  2
AcDbSun
  3
SCENEOE
 90
1153
 91
0
280
0
281
0
  0
CLASS
  1
VISUALSTYLE
  2
AcDbVisualStyle
  3
ObjectDBX Classes
 90
4095
 91
0
280
0
281
0
  0
CLASS
  1
MATERIAL
  2
AcDbMaterial
  3
ObjectDBX Classes
 90
1153
 91
0
280
0
281
0
  0
CLASS
  1
SCALE
  2
AcDbScale
  3
ObjectDBX Classes
 90
1153
 91
0
280
0
281
0
  0
CLASS
  1
TABLESTYLE
  2
AcDbTableStyle
  3
ObjectDBX Classes
 90
4095
 91
0
280
0
281
0
  0
CLASS
  1
MLEADERSTYLE
  2
AcDbMLeaderStyle
  3
ACDB_MLEADERSTYLE_CLASS
 90
4095
 91
0
280
0
281
0
  0
CLASS
  1
DICTIONARYVAR
  2
AcDbDictionaryVar
  3
ObjectDBX Classes
 90
0
 91
0
280
0
281
0
  0
CLASS
  1
CELLSTYLEMAP
  2
AcDbCellStyleMap
  3
ObjectDBX Classes
 90
1152
 91
0
280
0
281
0
  0
CLASS
  1
MENTALRAYRENDERSETTINGS
  2
AcDbMentalRayRenderSettings
  3
SCENEOE
 90
1024
 91
0
280
0
281
0
  0
CLASS
  1
ACDBDETAILVIEWSTYLE
  2
AcDbDetailViewStyle
  3
ObjectDBX Classes
 90
1025
 91
0
280
0
281
0
  0
CLASS
  1
ACDBSECTIONVIEWSTYLE
  2
AcDbSectionViewStyle
  3
ObjectDBX Classes
 90
1025
 91
0
280
0
281
0
  0
CLASS
  1
RASTERVARIABLES
  2
AcDbRasterVariables
  3
ISM
 90
0
 91
0
280
0
281
0
  0
CLASS
  1
LAYOUT
  2
AcDbLayout
  3
ObjectDBX Classes
 90
0
 91
0
280
0
281
0
  0
CLASS
  1
ACDBPLACEHOLDER
  2
AcDbPlaceHolder
  3
ObjectDBX Classes
 90
0
 91
0
280
0
281
0
  0
ENDSEC
  0
SECTION
  2
TABLES
  0
TABLE
  2
VPORT
  5
8
330
0
100
AcDbSymbolTable
 70
1
  0
VPORT
  5
23
330
8
100
AcDbSymbolTableRecord
100
AcDbViewportTableRecord
  2
*Active
 70
0
 10
0.0
 20
0.0
 11
1.0
 21
1.0
 12
0.0
 22
0.0
 13
0.0
 23
0.0
 14
0.5
 24
0.5
 15
0.5
 25
0.5
 16
0.0
 26
0.0
 36
1.0
 17
0.0
 27
0.0
 37
0.0
 40
1000.0
 41
1.34
 42
50.0
 43
0.0
 44
0.0
 50
0.0
 51
0.0
 71
0
 72
1000
 73
1
 74
3
 75
0
 76
0
 77
0
 78
0
281
0
 65
0
146
0.0
  0
ENDTAB
  0
TABLE
  2
LTYPE
  5
2
330
0
100
AcDbSymbolTable
 70
3
  0
LTYPE
  5
24
330
2
100
AcDbSymbolTableRecord
100
AcDbLinetypeTableRecord
  2
ByBlock
 70
0
  3

 72
65
 73
0
 40
0.0
  0
LTYPE
  5
25
330
2
100
AcDbSymbolTableRecord
100
AcDbLinetypeTableRecord
  2
ByLayer
 70
0
  3

 72
65
 73
0
 40
0.0
  0
LTYPE
  5
26
330
2
100
AcDbSymbolTableRecord
100
AcDbLinetypeTableRecord
  2
Continuous
 70
0
  3

 72
65
 73
0
 40
0.0
  0
ENDTAB
  0
TABLE
  2
LAYER
  5
1
330
0
100
AcDbSymbolTable
 70
2
  0
LAYER
  5
27
330
1
100
AcDbSymbolTableRecord
100
AcDbLayerTableRecord
  2
0
 70
0
 62
7
  6
Continuous
370
-3
390
13
347
21
  0
LAYER
  5
28
330
1
100
AcDbSymbolTableRecord
100
AcDbLayerTableRecord
  2
Defpoints
 70
0
 62
7
  6
Continuous
290
0
370
-3
390
13
347
21
  0
ENDTAB
  0
TABLE
  2
STYLE
  5
5
330
0
100
AcDbSymbolTable
 70
1
  0
STYLE
  5
29
330
5
100
AcDbSymbolTableRecord
100
AcDbTextStyleTableRecord
  2
Standard
 70
0
 40
0.0
 41
1.0
 50
0.0
 71
0
 42
2.5
  3
txt
  4

  0
ENDTAB
  0
TABLE
  2
VIEW
  5
7
330
0
100
AcDbSymbolTable
 70
0
  0
ENDTAB
  0
TABLE
  2
UCS
  5
6
330
0
100
AcDbSymbolTable
 70
0
  0
ENDTAB
  0
TABLE
  2
APPID
  5
3
330
0
100
AcDbSymbolTable
 70
3
  0
APPID
  5
2A
330
3
100
AcDbSymbolTableRecord
100
AcDbRegAppTableRecord
  2
ACAD
 70
0
  0
APPID
  5
35
330
3
100
AcDbSymbolTableRecord
100
AcDbRegAppTableRecord
  2
HATCHBACKGROUNDCOLOR
 70
0
  0
APPID
  5
36
330
3
100
AcDbSymbolTableRecord
100
AcDbRegAppTableRecord
  2
EZDXF
 70
0
  0
ENDTAB
  0
TABLE
  2
DIMSTYLE
  5
4
330
0
100
AcDbSymbolTable
 70
1
100
AcDbDimStyleTable
  0
DIMSTYLE
105
2B
330
4
100
AcDbSymbolTableRecord
100
AcDbDimStyleTableRecord
  2
Standard
 70
0
 40
1.0
 41
2.5
 42
0.625
 43
3.75
 44
1.25
 45
0.0
 46
0.0
 47
0.0
 48
0.0
 49
2.5
140
2.5
141
2.5
142
0.0
143
0.03937007874
144
1.0
145
0.0
146
1.0
147
0.625
148
0.0
 69
0
 70
0
 71
0
 72
0
 73
0
 74
0
 75
0
 76
0
 77
1
 78
8
 79
3
170
0
171
3
172
1
173
0
174
0
175
0
176
0
177
0
178
0
179
2
271
2
272
2
273
2
274
3
275
0
276
0
277
2
278
44
279
0
280
0
281
0
282
0
283
0
284
8
285
0
286
0
288
0
289
3
290
0
371
-2
372
-2
  0
ENDTAB
  0
TABLE
  2
BLOCK_RECORD
  5
9
330
0
100
AcDbSymbolTable
 70
2
  0
BLOCK_RECORD
  5
17
330
9
100
AcDbSymbolTableRecord
100
AcDbBlockTableRecord
  2
*Model_Space
340
1A
 70
0
280
1
281
0
  0
BLOCK_RECORD
  5
1B
330
9
100
AcDbSymbolTableRecord
100
AcDbBlockTableRecord
  2
*Paper_Space
340
1E
 70
0
280
1
281
0
  0
ENDTAB
  0
ENDSEC
  0
SECTION
  2
BLOCKS
  0
BLOCK
  5
18
330
17
100
AcDbEntity
  8
0
100
AcDbBlockBegin
  2
*Model_Space
 70
0
 10
0.0
 20
0.0
 30
0.0
  3
*Model_Space
  1

  0
ENDBLK
  5
19
330
17
100
AcDbEntity
  8
0
100
AcDbBlockEnd
  0
BLOCK
  5
1C
330
1B
100
AcDbEntity
  8
0
100
AcDbBlockBegin
  2
*Paper_Space
 70
0
 10
0.0
 20
0.0
 30
0.0
  3
*Paper_Space
  1

  0
ENDBLK
  5
1D
330
1B
100
AcDbEntity
  8
0
100
AcDbBlockEnd
  0
ENDSEC
  0
SECTION
  2
ENTITIES
  0
LWPOLYLINE
  5
31
330
17
100
AcDbEntity
  8
0
100
AcDbPolyline
 90
81
 70
0
 10
113.50574199999997
 20
-206.17459399999998
 10
113.66576199999997
 20
-205.802992
 10
113.82578199999996
 20
-205.43139
 10
113.98580199999996
 20
-205.059788
 10
114.14582199999997
 20
-204.688186
 10
114.30584199999997
 20
-204.31658400000003
 10
114.46586199999996
 20
-203.94498200000004
 10
114.62588199999996
 20
-203.57338000000004
 10
114.78590199999996
 20
-203.20177800000005
 10
114.88496199999996
 20
-202.95285800000005
 10
115.01805799999995
 20
-202.71308200000004
 10
115.18163399999996
 20
-202.49007000000003
 10
115.37187999999996
 20
-202.29068000000004
 10
115.58498599999996
 20
-202.12227800000005
 10
115.81739599999997
 20
-201.99223000000006
 10
116.06504599999998
 20
-201.90764800000008
 10
116.32437999999998
 20
-201.87589800000006
 10
118.88520799999998
 20
-201.87589800000006
 10
121.44603599999998
 20
-201.87589800000006
 10
124.00686399999998
 20
-201.87589800000006
 10
126.56769199999998
 20
-201.87589800000006
 10
129.12851999999998
 20
-201.87589800000006
 10
131.68934799999997
 20
-201.87589800000006
 10
134.25017599999998
 20
-201.87589800000006
 10
136.81100399999997
 20
-201.87589800000006
 10
137.06754399999997
 20
-201.90104400000007
 10
137.30401799999999
 20
-201.97826000000006
 10
137.51458399999996
 20
-202.10145000000009
 10
137.69365399999998
 20
-202.26426400000008
 10
137.83538599999997
 20
-202.46009800000004
 10
137.93419199999997
 20
-202.68285600000004
 10
137.98422999999997
 20
-202.92618800000002
 10
137.97991199999996
 20
-203.18374400000005
 10
137.91996799999995
 20
-203.64627800000005
 10
137.86256399999996
 20
-204.10043000000005
 10
137.81201799999997
 20
-204.56271000000007
 10
137.77188599999997
 20
-205.04937400000009
 10
137.74648599999998
 20
-205.57667800000007
 10
137.73937399999997
 20
-206.1611320000001
 10
137.75486799999996
 20
-206.8189920000001
 10
137.79652399999998
 20
-207.5665140000001
 10
137.78814199999997
 20
-207.8248320000001
 10
137.72895999999997
 20
-208.0679100000001
 10
137.62405799999996
 20
-208.28990600000012
 10
137.47851599999998
 20
-208.4852320000001
 10
137.297668
 20
-208.6480460000001
 10
137.08659399999996
 20
-208.7725060000001
 10
136.850374
 20
-208.85302400000012
 10
136.594088
 20
-208.8837580000001
 10
135.205216
 20
-208.90153800000013
 10
133.18337599999998
 20
-208.92363600000013
 10
130.650996
 20
-208.9492900000001
 10
127.73075799999998
 20
-208.97748400000012
 10
124.54559799999997
 20
-209.00745600000013
 10
121.21794399999997
 20
-209.03819000000013
 10
117.87073199999998
 20
-209.0691780000001
 10
114.62638999999996
 20
-209.0994040000001
 10
114.23040399999996
 20
-209.05241400000014
 10
113.87734399999997
 20
-208.91322200000013
 10
113.57686199999996
 20
-208.69656000000015
 10
113.33886399999996
 20
-208.41716000000014
 10
113.17325599999997
 20
-208.08975400000014
 10
113.08968999999996
 20
-207.72907400000014
 10
113.09807199999996
 20
-207.34985200000014
 10
113.20805399999996
 20
-206.96656600000014
 10
113.20932399999997
 20
-206.96377200000015
 10
113.21059399999996
 20
-206.96097800000015
 10
113.21186399999996
 20
-206.95818400000016
 10
113.21313399999995
 20
-206.95539000000016
 10
113.21440399999996
 20
-206.95259600000017
 10
113.21567399999995
 20
-206.94980200000018
 10
113.21694399999996
 20
-206.94700800000018
 10
113.21821399999996
 20
-206.94421400000022
 10
113.25834599999996
 20
-206.8497260000002
 10
113.29720799999997
 20
-206.7547300000002
 10
113.33505399999996
 20
-206.65922600000022
 10
113.37162999999997
 20
-206.56346800000023
 10
113.40718999999996
 20
-206.4672020000002
 10
113.44147999999996
 20
-206.37042800000023
 10
113.47449999999996
 20
-206.27340000000024
 10
113.50650399999995
 20
-206.17586400000025
  0
LWPOLYLINE
  5
32
330
17
100
AcDbEntity
  8
0
100
AcDbPolyline
 90
265
 70
0
 10
78.42757999999995
 20
-202.35392600000023
 10
78.42757999999995
 20
-202.92898200000022
 10
78.42757999999995
 20
-203.50403800000024
 10
78.42757999999995
 20
-204.07909400000023
 10
78.42757999999995
 20
-204.65415000000024
 10
78.42757999999995
 20
-205.22920600000023
 10
78.42757999999995
 20
-205.80426200000025
 10
78.42757999999995
 20
-206.37931800000024
 10
78.42757999999995
 20
-206.95437400000026
 10
78.40065599999996
 20
-207.22031200000026
 10
78.32318599999995
 20
-207.46847000000025
 10
78.20075799999995
 20
-207.69326000000024
 10
78.03870599999995
 20
-207.88934800000027
 10
77.84261799999996
 20
-208.05140000000026
 10
77.61782799999996
 20
-208.17382800000027
 10
77.36992399999995
 20
-208.25129800000025
 10
77.10398599999995
 20
-208.27822200000026
 10
75.41691799999995
 20
-208.27822200000026
 10
73.72984999999996
 20
-208.27822200000026
 10
72.04278199999996
 20
-208.27822200000026
 10
70.35571399999995
 20
-208.27822200000026
 10
68.66864599999995
 20
-208.27822200000026
 10
66.98157799999996
 20
-208.27822200000026
 10
65.29450999999996
 20
-208.27822200000026
 10
63.607441999999956
 20
-208.27822200000026
 10
63.34150399999996
 20
-208.25129800000025
 10
63.09359999999996
 20
-208.17382800000027
 10
62.86880999999996
 20
-208.05140000000026
 10
62.672721999999965
 20
-207.88934800000027
 10
62.51066999999996
 20
-207.69326000000024
 10
62.38824199999996
 20
-207.46847000000025
 10
62.31077199999996
 20
-207.22056600000025
 10
62.28384799999996
 20
-206.95462800000024
 10
62.28384799999996
 20
-206.39074800000023
 10
62.28384799999996
 20
-205.82686800000022
 10
62.28384799999996
 20
-205.26298800000023
 10
62.28384799999996
 20
-204.69910800000022
 10
62.28384799999996
 20
-204.1352280000002
 10
62.28384799999996
 20
-203.5713480000002
 10
62.28384799999996
 20
-203.0074680000002
 10
62.28384799999996
 20
-202.44358800000018
 10
62.276735999999964
 20
-202.37450000000018
 10
62.256669999999964
 20
-202.30998400000018
 10
62.22491999999996
 20
-202.25181800000016
 10
62.18300999999997
 20
-202.20101800000015
 10
62.132209999999965
 20
-202.15910800000015
 10
62.07378999999997
 20
-202.12761200000014
 10
62.00927399999997
 20
-202.10780000000017
 10
61.93993199999997
 20
-202.10094200000015
 10
58.04128599999998
 20
-202.11491200000015
 10
54.14263999999998
 20
-202.12888200000012
 10
50.24399399999998
 20
-202.14285200000012
 10
46.34534799999998
 20
-202.1568220000001
 10
42.44670199999999
 20
-202.1707920000001
 10
38.54805599999999
 20
-202.18476200000006
 10
34.64940999999999
 20
-202.19873200000006
 10
30.75076399999999
 20
-202.21270200000004
 10
30.272735999999988
 20
-202.27137600000003
 10
29.88284599999999
 20
-202.42961800000006
 10
29.591507999999987
 20
-202.66609200000008
 10
29.40888199999999
 20
-202.95920800000007
 10
29.34512799999999
 20
-203.28788400000005
 10
29.410659999999986
 20
-203.63078400000006
 10
29.615637999999986
 20
-203.96657200000007
 10
29.97022199999999
 20
-204.27391200000008
 10
32.301433999999986
 20
-205.94853400000008
 10
34.548825999999984
 20
-207.86394800000008
 10
36.61917999999999
 20
-209.9995800000001
 10
38.418769999999995
 20
-212.3348560000001
 10
39.85437799999999
 20
-214.84945600000006
 10
40.832531999999986
 20
-217.52280600000006
 10
41.260013999999984
 20
-220.33433200000005
 10
41.043097999999986
 20
-223.26346000000007
 10
40.500807999999985
 20
-225.68839800000006
 10
39.82542199999999
 20
-228.07701400000008
 10
39.040815999999985
 20
-230.43515000000008
 10
38.17086599999998
 20
-232.76814000000005
 10
37.23970199999999
 20
-235.08182600000006
 10
36.271199999999986
 20
-237.38205000000008
 10
35.28948999999999
 20
-239.67414600000006
 10
34.31844799999998
 20
-241.96421000000007
 10
32.692847999999984
 20
-245.75160400000004
 10
31.000191999999984
 20
-249.50928000000005
 10
29.247337999999985
 20
-253.23977800000006
 10
27.441143999999984
 20
-256.94538400000005
 10
25.58872199999998
 20
-260.6286380000001
 10
23.696929999999984
 20
-264.29182600000007
 10
21.772625999999985
 20
-267.9372340000001
 10
19.822921999999984
 20
-271.5674020000001
 10
19.030441999999983
 20
-273.07921000000005
 10
18.327115999999982
 20
-274.5338680000001
 10
17.708879999999983
 20
-275.95855400000005
 10
17.171669999999985
 20
-277.38070000000005
 10
16.711675999999983
 20
-278.827738
 10
16.32483399999998
 20
-280.32684600000005
 10
16.007333999999982
 20
-281.905456
 10
15.755365999999983
 20
-283.591
 10
15.756381999999983
 20
-285.854394
 10
16.306291999999985
 20
-287.508696
 10
17.240757999999985
 20
-288.64814
 10
18.395187999999987
 20
-289.36696
 10
19.605243999999985
 20
-289.75939000000005
 10
20.706587999999982
 20
-289.91991800000005
 10
21.534881999999982
 20
-289.94252400000005
 10
21.925787999999983
 20
-289.921442
 10
21.929089999999984
 20
-289.92118800000003
 10
21.932391999999986
 20
-289.920934
 10
21.935693999999987
 20
-289.92068
 10
21.938741999999987
 20
-289.920426
 10
21.941789999999987
 20
-289.92017200000004
 10
21.94509199999999
 20
-289.91991800000005
 10
21.94839399999999
 20
-289.91966400000007
 10
21.95169599999999
 20
-289.91941
 10
25.17292399999999
 20
-289.87496000000004
 10
28.39415199999999
 20
-289.83051000000006
 10
31.615379999999995
 20
-289.7860600000001
 10
34.83660799999999
 20
-289.7416100000001
 10
38.05783599999999
 20
-289.6971600000001
 10
41.279063999999984
 20
-289.6527100000001
 10
44.50029199999998
 20
-289.60826000000014
 10
47.72151999999998
 20
-289.56381000000016
 10
48.26660399999997
 20
-289.51428000000016
 10
48.78806599999997
 20
-289.3837240000002
 10
49.27853999999998
 20
-289.1777300000002
 10
49.730151999999975
 20
-288.9018860000002
 10
50.13553599999997
 20
-288.56152600000024
 10
50.48681799999998
 20
-288.16223800000023
 10
50.77663199999998
 20
-287.7093560000003
 10
50.99710399999997
 20
-287.20846800000027
 10
53.45302999999998
 20
-280.7182600000003
 10
55.90895599999998
 20
-274.22805200000033
 10
58.36488199999998
 20
-267.73784400000034
 10
60.820807999999985
 20
-261.2476360000004
 10
63.27673399999999
 20
-254.7571740000004
 10
65.73266
 20
-248.26696600000037
 10
68.18858599999999
 20
-241.77675800000037
 10
70.64451199999998
 20
-235.28655000000037
 10
70.66279999999999
 20
-235.21568400000035
 10
70.66559399999998
 20
-235.14481800000036
 10
70.65416399999998
 20
-235.07623800000036
 10
70.62927199999999
 20
-235.01197600000035
 10
70.59218799999998
 20
-234.95381000000035
 10
70.54367399999998
 20
-234.90402600000033
 10
70.48499999999999
 20
-234.86440200000035
 10
70.416928
 20
-234.83722400000036
 10
69.801994
 20
-234.64037400000038
 10
69.18706
 20
-234.44352400000037
 10
68.572126
 20
-234.24667400000038
 10
67.957192
 20
-234.04982400000037
 10
67.342258
 20
-233.8529740000004
 10
66.72732400000001
 20
-233.6561240000004
 10
66.11239
 20
-233.4592740000004
 10
65.49745600000001
 20
-233.2624240000004
 10
65.38087
 20
-233.2161960000004
 10
65.27927000000001
 20
-233.1493940000004
 10
65.19418000000002
 20
-233.06532000000038
 10
65.12763200000002
 20
-232.9672760000004
 10
65.08115000000002
 20
-232.8580560000004
 10
65.05651200000003
 20
-232.7412160000004
 10
65.05549600000002
 20
-232.6195500000004
 10
65.07962600000003
 20
-232.4966140000004
 10
65.33210200000003
 20
-231.6998160000004
 10
65.58457800000004
 20
-230.9030180000004
 10
65.83705400000005
 20
-230.10622000000043
 10
66.08953000000005
 20
-229.30942200000044
 10
66.34200600000007
 20
-228.51262400000044
 10
66.59448200000007
 20
-227.71582600000048
 10
66.84695800000007
 20
-226.91902800000048
 10
67.09943400000009
 20
-226.12223000000049
 10
67.15302800000009
 20
-225.98202200000048
 10
67.2287200000001
 20
-225.8400360000005
 10
67.32295400000008
 20
-225.7041460000005
 10
67.43242800000009
 20
-225.58197200000052
 10
67.55409400000008
 20
-225.48138800000052
 10
67.68465000000008
 20
-225.4102680000005
 10
67.82079400000008
 20
-225.3764860000005
 10
67.95922400000008
 20
-225.3874080000005
 10
68.61937000000007
 20
-225.5829880000005
 10
69.27951600000007
 20
-225.77856800000052
 10
69.93966200000007
 20
-225.9741480000005
 10
70.59980800000007
 20
-226.1697280000005
 10
71.25995400000006
 20
-226.36530800000048
 10
71.92010000000006
 20
-226.5608880000005
 10
72.58024600000006
 20
-226.7564680000005
 10
73.24039200000006
 20
-226.95204800000047
 10
73.30516200000007
 20
-226.9624620000005
 10
73.36891600000006
 20
-226.9606840000005
 10
73.43038400000006
 20
-226.9472220000005
 10
73.48804200000005
 20
-226.9230920000005
 10
73.54036600000006
 20
-226.8888020000005
 10
73.58583200000005
 20
-226.8453680000005
 10
73.62291600000006
 20
-226.7935520000005
 10
73.65034800000005
 20
-226.73411600000048
 10
73.66711200000005
 20
-226.6863640000005
 10
73.68387600000004
 20
-226.6386120000005
 10
73.70064000000004
 20
-226.5908600000005
 10
73.71740400000003
 20
-226.5431080000005
 10
73.73416800000003
 20
-226.4953560000005
 10
73.75093200000002
 20
-226.44760400000052
 10
73.76769600000002
 20
-226.39985200000052
 10
73.78446000000001
 20
-226.35210000000052
 10
73.939908
 20
-225.79863400000053
 10
74.13701200000001
 20
-225.18192200000053
 10
74.36993000000001
 20
-224.52685600000055
 10
74.63282000000001
 20
-223.85858200000055
 10
74.91984000000001
 20
-223.20224600000057
 10
75.225402
 20
-222.58274000000057
 10
75.54341000000001
 20
-222.02546400000057
 10
75.86802200000001
 20
-221.5553100000006
 10
77.10779600000002
 20
-220.07245800000058
 10
78.43723200000001
 20
-218.7023820000006
 10
79.87284000000001
 20
-217.44609800000057
 10
81.43087600000001
 20
-216.30487600000058
 10
83.12785000000001
 20
-215.27998600000058
 10
84.98027200000001
 20
-214.3721900000006
 10
87.00439800000001
 20
-213.5827580000006
 10
89.216738
 20
-212.91296000000062
 10
89.66987400000001
 20
-212.7521780000006
 10
90.0811
 20
-212.5235780000006
 10
90.44533600000001
 20
-212.23478000000063
 10
90.75724800000002
 20
-211.89289600000063
 10
91.01150200000001
 20
-211.50580000000062
 10
91.20276400000002
 20
-211.08060400000062
 10
91.32544600000001
 20
-210.62467400000062
 10
91.37446800000001
 20
-210.14563000000064
 10
91.404694
 20
-209.69274800000065
 10
91.47403600000001
 20
-209.24189800000065
 10
91.58020800000003
 20
-208.79562000000067
 10
91.72092400000001
 20
-208.35645400000064
 10
91.89364400000001
 20
-207.92668600000064
 10
92.09582800000001
 20
-207.50911000000065
 10
92.32519000000002
 20
-207.10626600000063
 10
92.57919000000003
 20
-206.72069400000063
 10
93.19996600000002
 20
-205.94218400000062
 10
93.89160800000003
 20
-205.25232000000062
 10
94.64624200000003
 20
-204.64119600000063
 10
95.45574000000003
 20
-204.09916000000064
 10
96.31197400000002
 20
-203.61656000000065
 10
97.20707000000003
 20
-203.18349000000063
 10
98.13315400000003
 20
-202.79055200000062
 10
99.08184400000003
 20
-202.42784000000063
 10
99.17734800000002
 20
-202.3722140000006
 10
99.23881600000003
 20
-202.2944900000006
 10
99.26777200000002
 20
-202.2035580000006
 10
99.26599400000002
 20
-202.1088160000006
 10
99.23500600000003
 20
-202.0194080000006
 10
99.17658600000001
 20
-201.9444780000006
 10
99.092004
 20
-201.89317000000062
 10
98.983292
 20
-201.87462800000063
 10
96.45624600000001
 20
-201.89139200000062
 10
93.92920000000001
 20
-201.90815600000064
 10
91.402154
 20
-201.92492000000064
 10
88.875108
 20
-201.94168400000066
 10
86.348062
 20
-201.95844800000066
 10
83.82101599999999
 20
-201.97521200000065
 10
81.29396999999999
 20
-201.99197600000068
 10
78.76692399999999
 20
-202.00874000000067
 10
78.69859799999999
 20
-202.01636000000067
 10
78.63484399999999
 20
-202.03668000000067
 10
78.57744
 20
-202.0684300000007
 10
78.527402
 20
-202.1103400000007
 10
78.48625399999999
 20
-202.16088600000066
 10
78.455012
 20
-202.21879800000065
 10
78.435454
 20
-202.28255200000063
 10
78.428596
 20
-202.35113200000063
  0
LWPOLYLINE
  5
34
330
17
100
AcDbEntity
  8
0
100
AcDbPolyline
 90
57
 70
0
 10
142.2006299999998
 20
-206.25282600000045
 10
147.02561399999976
 20
-206.21548800000045
 10
151.85059799999976
 20
-206.17815000000044
 10
156.67558199999976
 20
-206.14081200000044
 10
161.50056599999976
 20
-206.1034740000004
 10
166.32554999999977
 20
-206.0661360000004
 10
171.15053399999974
 20
-206.0287980000004
 10
175.97551799999974
 20
-205.9914600000004
 10
180.80050199999974
 20
-205.95412200000038
 10
180.83250599999974
 20
-205.95361400000039
 10
180.86450999999974
 20
-205.95285200000038
 10
180.8965139999997
 20
-205.95183600000036
 10
180.9285179999997
 20
-205.95056600000038
 10
180.9605219999997
 20
-205.94904200000036
 10
180.9925259999997
 20
-205.9472640000004
 10
181.0245299999997
 20
-205.94523200000037
 10
181.0565339999997
 20
-205.94294600000038
 10
181.8111679999997
 20
-205.80731000000037
 10
182.50636599999967
 20
-205.53400600000037
 10
183.1299359999997
 20
-205.13903600000037
 10
183.6696859999997
 20
-204.6381480000004
 10
184.1136779999997
 20
-204.0470900000004
 10
184.4497199999997
 20
-203.3816100000004
 10
184.6656199999997
 20
-202.65771000000038
 10
184.7494399999997
 20
-201.89113800000038
 10
184.7509639999997
 20
-201.84948200000036
 10
184.75248799999972
 20
-201.80782600000038
 10
184.7540119999997
 20
-201.7661700000004
 10
184.7555359999997
 20
-201.72426000000038
 10
184.75705999999968
 20
-201.6826040000004
 10
184.75858399999967
 20
-201.6409480000004
 10
184.76010799999966
 20
-201.5990380000004
 10
184.76163199999965
 20
-201.55738200000042
 10
179.55666399999967
 20
-201.5883700000004
 10
174.3516959999997
 20
-201.6193580000004
 10
169.14672799999968
 20
-201.65034600000038
 10
163.9417599999997
 20
-201.68133400000036
 10
158.7367919999997
 20
-201.71232200000037
 10
153.53182399999972
 20
-201.74331000000035
 10
148.32685599999974
 20
-201.77429800000033
 10
143.12188799999973
 20
-201.80528600000034
 10
142.93011799999974
 20
-201.82586000000032
 10
142.75180999999975
 20
-201.88250200000033
 10
142.59051999999974
 20
-201.97140200000032
 10
142.45031199999974
 20
-202.08849600000033
 10
142.33499599999976
 20
-202.23022800000032
 10
142.24838199999974
 20
-202.39253400000032
 10
142.19402599999972
 20
-202.57160400000035
 10
142.17599199999972
 20
-202.76362800000032
 10
142.17929399999974
 20
-203.20000000000033
 10
142.18259599999973
 20
-203.6363720000003
 10
142.18589799999975
 20
-204.0727440000003
 10
142.18919999999977
 20
-204.5091160000003
 10
142.19250199999976
 20
-204.94548800000027
 10
142.19580399999978
 20
-205.38186000000027
 10
142.19885199999976
 20
-205.81823200000025
 10
142.20215399999978
 20
-206.25460400000026
  0
ENDSEC
  0
SECTION
  2
OBJECTS
  0
DICTIONARY
  5
A
330
0
100
AcDbDictionary
281
1
  3
ACAD_COLOR
350
B
  3
ACAD_GROUP
350
C
  3
ACAD_LAYOUT
350
D
  3
ACAD_MATERIAL
350
E
  3
ACAD_MLEADERSTYLE
350
F
  3
ACAD_MLINESTYLE
350
10
  3
ACAD_PLOTSETTINGS
350
11
  3
ACAD_PLOTSTYLENAME
350
12
  3
ACAD_SCALELIST
350
14
  3
ACAD_TABLESTYLE
350
15
  3
ACAD_VISUALSTYLE
350
16
  3
EZDXF_META
350
2D
  0
DICTIONARY
  5
B
330
A
100
AcDbDictionary
281
1
  0
DICTIONARY
  5
C
330
A
100
AcDbDictionary
281
1
  0
DICTIONARY
  5
D
330
A
100
AcDbDictionary
281
1
  3
Model
350
1A
  3
Layout1
350
1E
  0
DICTIONARY
  5
E
330
A
100
AcDbDictionary
281
1
  3
ByBlock
350
1F
  3
ByLayer
350
20
  3
Global
350
21
  0
DICTIONARY
  5
F
330
A
100
AcDbDictionary
281
1
  3
Standard
350
2C
  0
DICTIONARY
  5
10
330
A
100
AcDbDictionary
281
1
  3
Standard
350
22
  0
DICTIONARY
  5
11
330
A
100
AcDbDictionary
281
1
  0
ACDBDICTIONARYWDFLT
  5
12
330
A
100
AcDbDictionary
281
1
  3
Normal
350
13
100
AcDbDictionaryWithDefault
340
13
  0
ACDBPLACEHOLDER
  5
13
330
12
  0
DICTIONARY
  5
14
330
A
100
AcDbDictionary
281
1
  0
DICTIONARY
  5
15
330
A
100
AcDbDictionary
281
1
  0
DICTIONARY
  5
16
330
A
100
AcDbDictionary
281
1
  0
LAYOUT
  5
1A
330
D
100
AcDbPlotSettings
  1

  4
A3
  6

 40
7.5
 41
20.0
 42
7.5
 43
20.0
 44
420.0
 45
297.0
 46
0.0
 47
0.0
 48
0.0
 49
0.0
140
0.0
141
0.0
142
1.0
143
1.0
 70
1024
 72
1
 73
0
 74
5
  7

 75
16
 76
0
 77
2
 78
300
147
1.0
148
0.0
149
0.0
100
AcDbLayout
  1
Model
 70
1
 71
0
 10
0.0
 20
0.0
 11
420.0
 21
297.0
 12
0.0
 22
0.0
 32
0.0
 14
1e+20
 24
1e+20
 34
1e+20
 15
-1e+20
 25
-1e+20
 35
-1e+20
146
0.0
 13
0.0
 23
0.0
 33
0.0
 16
1.0
 26
0.0
 36
0.0
 17
0.0
 27
1.0
 37
0.0
 76
1
330
17
  0
LAYOUT
  5
1E
330
D
100
AcDbPlotSettings
  1

  4
A3
  6

 40
7.5
 41
20.0
 42
7.5
 43
20.0
 44
420.0
 45
297.0
 46
0.0
 47
0.0
 48
0.0
 49
0.0
140
0.0
141
0.0
142
1.0
143
1.0
 70
0
 72
1
 73
0
 74
5
  7

 75
16
 76
0
 77
2
 78
300
147
1.0
148
0.0
149
0.0
100
AcDbLayout
  1
Layout1
 70
1
 71
1
 10
0.0
 20
0.0
 11
420.0
 21
297.0
 12
0.0
 22
0.0
 32
0.0
 14
1e+20
 24
1e+20
 34
1e+20
 15
-1e+20
 25
-1e+20
 35
-1e+20
146
0.0
 13
0.0
 23
0.0
 33
0.0
 16
1.0
 26
0.0
 36
0.0
 17
0.0
 27
1.0
 37
0.0
 76
1
330
1B
  0
MATERIAL
  5
1F
102
{ACAD_REACTORS
330
E
102
}
330
E
100
AcDbMaterial
  1
ByBlock
  2

 70
0
 40
1.0
 71
1
 41
1.0
 91
-1023410177
 42
1.0
 72
1
  3

 73
1
 74
1
 75
1
 44
0.5
 73
0
 45
1.0
 46
1.0
 77
1
  4

 78
1
 79
1
170
1
 48
1.0
171
1
  6

172
1
173
1
174
1
140
1.0
141
1.0
175
1
  7

176
1
177
1
178
1
143
1.0
179
1
  8

270
1
271
1
272
1
145
1.0
146
1.0
273
1
  9

274
1
275
1
276
1
 42
1.0
 72
1
  3

 73
1
 74
1
 75
1
 94
63
  0
MATERIAL
  5
20
102
{ACAD_REACTORS
330
E
102
}
330
E
100
AcDbMaterial
  1
ByLayer
  2

 70
0
 40
1.0
 71
1
 41
1.0
 91
-1023410177
 42
1.0
 72
1
  3

 73
1
 74
1
 75
1
 44
0.5
 73
0
 45
1.0
 46
1.0
 77
1
  4

 78
1
 79
1
170
1
 48
1.0
171
1
  6

172
1
173
1
174
1
140
1.0
141
1.0
175
1
  7

176
1
177
1
178
1
143
1.0
179
1
  8

270
1
271
1
272
1
145
1.0
146
1.0
273
1
  9

274
1
275
1
276
1
 42
1.0
 72
1
  3

 73
1
 74
1
 75
1
 94
63
  0
MATERIAL
  5
21
102
{ACAD_REACTORS
330
E
102
}
330
E
100
AcDbMaterial
  1
Global
  2

 70
0
 40
1.0
 71
1
 41
1.0
 91
-1023410177
 42
1.0
 72
1
  3

 73
1
 74
1
 75
1
 44
0.5
 73
0
 45
1.0
 46
1.0
 77
1
  4

 78
1
 79
1
170
1
 48
1.0
171
1
  6

172
1
173
1
174
1
140
1.0
141
1.0
175
1
  7

176
1
177
1
178
1
143
1.0
179
1
  8

270
1
271
1
272
1
145
1.0
146
1.0
273
1
  9

274
1
275
1
276
1
 42
1.0
 72
1
  3

 73
1
 74
1
 75
1
 94
63
  0
MLINESTYLE
  5
22
102
{ACAD_REACTORS
330
10
102
}
330
10
100
AcDbMlineStyle
  2
Standard
 70
0
  3

 62
256
 51
90.0
 52
90.0
 71
2
 49
0.5
 62
256
  6
BYLAYER
 49
-0.5
 62
256
  6
BYLAYER
  0
MLEADERSTYLE
  5
2C
102
{ACAD_REACTORS
330
F
102
}
330
F
100
AcDbMLeaderStyle
179
2
170
2
171
1
172
0
 90
2
 40
0.0
 41
0.0
173
1
 91
-1056964608
 92
-2
290
1
 42
2.0
291
1
 43
8.0
  3
Standard
 44
4.0
300

342
29
174
1
175
1
176
0
178
1
 93
-1056964608
 45
4.0
292
0
297
0
 46
4.0
 94
-1056964608
 47
1.0
 49
1.0
140
1.0
294
1
141
0.0
177
0
142
1.0
295
0
296
0
143
3.75
271
0
272
9
273
9
  0
DICTIONARY
  5
2D
330
A
100
AcDbDictionary
280
1
281
1
  3
CREATED_BY_EZDXF
350
2E
  3
WRITTEN_BY_EZDXF
350
37
  0
DICTIONARYVAR
  5
2E
330
2D
100
DictionaryVariables
280
0
  1
1.4.3 @ 2026-04-08T01:02:28.534906+00:00
  0
DICTIONARYVAR
  5
37
330
2D
100
DictionaryVariables
280
0
  1
1.4.3 @ 2026-04-09T21:09:47.887547+00:00
  0
ENDSEC
  0
EOF
