  0
SECTION
  2
HEADER
  9
$ACADVER
  1
AC1024
  9
$ACADMAINTVER
 70
6
  9
$DWGCODEPAGE
  3
ANSI_1252
  9
$LASTSAVEDBY
  1
ezdxf
  9
$INSBASE
 10
0.0
 20
0.0
 30
0.0
  9
$EXTMIN
 10
1e+20
 20
1e+20
 30
1e+20
  9
$EXTMAX
 10
-1e+20
 20
-1e+20
 30
-1e+20
  9
$LIMMIN
 10
0.0
 20
0.0
  9
$LIMMAX
 10
420.0
 20
297.0
  9
$ORTHOMODE
 70
0
  9
$REGENMODE
 70
1
  9
$FILLMODE
 70
1
  9
$QTEXTMODE
 70
0
  9
$MIRRTEXT
 70
1
  9
$LTSCALE
 40
1.0
  9
$ATTMODE
 70
1
  9
$TEXTSIZE
 40
2.5
  9
$TRACEWID
 40
1.0
  9
$TEXTSTYLE
  7
Standard
  9
$CLAYER
  8
0
  9
$CELTYPE
  6
ByLayer
  9
$CECOLOR
 62
256
  9
$CELTSCALE
 40
1.0
  9
$DISPSILH
 70
0
  9
$DIMSCALE
 40
1.0
  9
$DIMASZ
 40
2.5
  9
$DIMEXO
 40
0.625
  9
$DIMDLI
 40
3.75
  9
$DIMRND
 40
0.0
  9
$DIMDLE
 40
0.0
  9
$DIMEXE
 40
1.25
  9
$DIMTP
 40
0.0
  9
$DIMTM
 40
0.0
  9
$DIMTXT
 40
2.5
  9
$DIMCEN
 40
2.5
  9
$DIMTSZ
 40
0.0
  9
$DIMTOL
 70
0
  9
$DIMLIM
 70
0
  9
$DIMTIH
 70
0
  9
$DIMTOH
 70
0
  9
$DIMSE1
 70
0
  9
$DIMSE2
 70
0
  9
$DIMTAD
 70
1
  9
$DIMZIN
 70
8
  9
$DIMBLK
  1

  9
$DIMASO
 70
1
  9
$DIMSHO
 70
1
  9
$DIMPOST
  1

  9
$DIMAPOST
  1

  9
$DIMALT
 70
0
  9
$DIMALTD
 70
3
  9
$DIMALTF
 40
0.03937007874
  9
$DIMLFAC
 40
1.0
  9
$DIMTOFL
 70
1
  9
$DIMTVP
 40
0.0
  9
$DIMTIX
 70
0
  9
$DIMSOXD
 70
0
  9
$DIMSAH
 70
0
  9
$DIMBLK1
  1

  9
$DIMBLK2
  1

  9
$DIMSTYLE
  2
ISO-25
  9
$DIMCLRD
 70
0
  9
$DIMCLRE
 70
0
  9
$DIMCLRT
 70
0
  9
$DIMTFAC
 40
1.0
  9
$DIMGAP
 40
0.625
  9
$DIMJUST
 70
0
  9
$DIMSD1
 70
0
  9
$DIMSD2
 70
0
  9
$DIMTOLJ
 70
0
  9
$DIMTZIN
 70
8
  9
$DIMALTZ
 70
0
  9
$DIMALTTZ
 70
0
  9
$DIMUPT
 70
0
  9
$DIMDEC
 70
2
  9
$DIMTDEC
 70
2
  9
$DIMALTU
 70
2
  9
$DIMALTTD
 70
3
  9
$DIMTXSTY
  7
Standard
  9
$DIMAUNIT
 70
0
  9
$DIMADEC
 70
0
  9
$DIMALTRND
 40
0.0
  9
$DIMAZIN
 70
0
  9
$DIMDSEP
 70
44
  9
$DIMATFIT
 70
3
  9
$DIMFRAC
 70
0
  9
$DIMLDRBLK
  1

  9
$DIMLUNIT
 70
2
  9
$DIMLWD
 70
-2
  9
$DIMLWE
 70
-2
  9
$DIMTMOVE
 70
0
  9
$DIMFXL
 40
1.0
  9
$DIMFXLON
 70
0
  9
$DIMJOGANG
 40
0.785398163397
  9
$DIMTFILL
 70
0
  9
$DIMTFILLCLR
 70
0
  9
$DIMARCSYM
 70
0
  9
$DIMLTYPE
  6

  9
$DIMLTEX1
  6

  9
$DIMLTEX2
  6

  9
$DIMTXTDIRECTION
 70
0
  9
$LUNITS
 70
2
  9
$LUPREC
 70
4
  9
$SKETCHINC
 40
1.0
  9
$FILLETRAD
 40
10.0
  9
$AUNITS
 70
0
  9
$AUPREC
 70
2
  9
$MENU
  1
.
  9
$ELEVATION
 40
0.0
  9
$PELEVATION
 40
0.0
  9
$THICKNESS
 40
0.0
  9
$LIMCHECK
 70
0
  9
$CHAMFERA
 40
0.0
  9
$CHAMFERB
 40
0.0
  9
$CHAMFERC
 40
0.0
  9
$CHAMFERD
 40
0.0
  9
$SKPOLY
 70
0
  9
$TDCREATE
 40
2461169.737986111
  9
$TDUCREATE
 40
2458532.153996898
  9
$TDUPDATE
 40
2461169.737986111
  9
$TDUUPDATE
 40
2458532.1544311
  9
$TDINDWG
 40
0.0
  9
$TDUSRTIMER
 40
0.0
  9
$USRTIMER
 70
1
  9
$ANGBASE
 50
0.0
  9
$ANGDIR
 70
0
  9
$PDMODE
 70
0
  9
$PDSIZE
 40
0.0
  9
$PLINEWID
 40
0.0
  9
$SPLFRAME
 70
0
  9
$SPLINETYPE
 70
6
  9
$SPLINESEGS
 70
8
  9
$HANDSEED
  5
114
  9
$SURFTAB1
 70
6
  9
$SURFTAB2
 70
6
  9
$SURFTYPE
 70
6
  9
$SURFU
 70
6
  9
$SURFV
 70
6
  9
$UCSBASE
  2

  9
$UCSNAME
  2

  9
$UCSORG
 10
0.0
 20
0.0
 30
0.0
  9
$UCSXDIR
 10
1.0
 20
0.0
 30
0.0
  9
$UCSYDIR
 10
0.0
 20
1.0
 30
0.0
  9
$UCSORTHOREF
  2

  9
$UCSORTHOVIEW
 70
0
  9
$UCSORGTOP
 10
0.0
 20
0.0
 30
0.0
  9
$UCSORGBOTTOM
 10
0.0
 20
0.0
 30
0.0
  9
$UCSORGLEFT
 10
0.0
 20
0.0
 30
0.0
  9
$UCSORGRIGHT
 10
0.0
 20
0.0
 30
0.0
  9
$UCSORGFRONT
 10
0.0
 20
0.0
 30
0.0
  9
$UCSORGBACK
 10
0.0
 20
0.0
 30
0.0
  9
$PUCSBASE
  2

  9
$PUCSNAME
  2

  9
$PUCSORG
 10
0.0
 20
0.0
 30
0.0
  9
$PUCSXDIR
 10
1.0
 20
0.0
 30
0.0
  9
$PUCSYDIR
 10
0.0
 20
1.0
 30
0.0
  9
$PUCSORTHOREF
  2

  9
$PUCSORTHOVIEW
 70
0
  9
$PUCSORGTOP
 10
0.0
 20
0.0
 30
0.0
  9
$PUCSORGBOTTOM
 10
0.0
 20
0.0
 30
0.0
  9
$PUCSORGLEFT
 10
0.0
 20
0.0
 30
0.0
  9
$PUCSORGRIGHT
 10
0.0
 20
0.0
 30
0.0
  9
$PUCSORGFRONT
 10
0.0
 20
0.0
 30
0.0
  9
$PUCSORGBACK
 10
0.0
 20
0.0
 30
0.0
  9
$USERI1
 70
0
  9
$USERI2
 70
0
  9
$USERI3
 70
0
  9
$USERI4
 70
0
  9
$USERI5
 70
0
  9
$USERR1
 40
0.0
  9
$USERR2
 40
0.0
  9
$USERR3
 40
0.0
  9
$USERR4
 40
0.0
  9
$USERR5
 40
0.0
  9
$WORLDVIEW
 70
1
  9
$SHADEDGE
 70
3
  9
$SHADEDIF
 70
70
  9
$TILEMODE
 70
1
  9
$MAXACTVP
 70
64
  9
$PINSBASE
 10
0.0
 20
0.0
 30
0.0
  9
$PLIMCHECK
 70
0
  9
$PEXTMIN
 10
1e+20
 20
1e+20
 30
1e+20
  9
$PEXTMAX
 10
-1e+20
 20
-1e+20
 30
-1e+20
  9
$PLIMMIN
 10
0.0
 20
0.0
  9
$PLIMMAX
 10
420.0
 20
297.0
  9
$UNITMODE
 70
0
  9
$VISRETAIN
 70
1
  9
$PLINEGEN
 70
0
  9
$PSLTSCALE
 70
1
  9
$TREEDEPTH
 70
3020
  9
$CMLSTYLE
  2
Standard
  9
$CMLJUST
 70
0
  9
$CMLSCALE
 40
20.0
  9
$PROXYGRAPHICS
 70
1
  9
$MEASUREMENT
 70
1
  9
$CELWEIGHT
370
-1
  9
$ENDCAPS
280
0
  9
$JOINSTYLE
280
0
  9
$LWDISPLAY
290
0
  9
$INSUNITS
 70
4
  9
$HYPERLINKBASE
  1

  9
$STYLESHEET
  1

  9
$XEDIT
290
1
  9
$CEPSNTYPE
380
0
  9
$PSTYLEMODE
290
1
  9
$FINGERPRINTGUID
  2
{82CA6ABA-0A40-4882-A637-D2026521C3E1}
  9
$VERSIONGUID
  2
{8BF5F632-A5E0-4B93-AA53-3DEA7C78B9C8}
  9
$EXTNAMES
290
1
  9
$PSVPSCALE
 40
0.0
  9
$OLESTARTUP
290
0
  9
$SORTENTS
280
127
  9
$INDEXCTL
280
0
  9
$HIDETEXT
280
1
  9
$XCLIPFRAME
280
1
  9
$HALOGAP
280
0
  9
$OBSCOLOR
 70
257
  9
$OBSLTYPE
280
0
  9
$INTERSECTIONDISPLAY
280
0
  9
$INTERSECTIONCOLOR
 70
257
  9
$DIMASSOC
280
2
  9
$PROJECTNAME
  1

  9
$CAMERADISPLAY
290
0
  9
$LENSLENGTH
 40
50.0
  9
$CAMERAHEIGHT
 40
0.0
  9
$STEPSPERSEC
 40
24.0
  9
$STEPSIZE
 40
100.0
  9
$3DDWFPREC
 40
2.0
  9
$PSOLWIDTH
 40
0.005
  9
$PSOLHEIGHT
 40
0.08
  9
$LOFTANG1
 40
1.570796326795
  9
$LOFTANG2
 40
1.570796326795
  9
$LOFTMAG1
 40
0.0
  9
$LOFTMAG2
 40
0.0
  9
$LOFTPARAM
 70
7
  9
$LOFTNORMALS
280
1
  9
$LATITUDE
 40
37.795
  9
$LONGITUDE
 40
-122.394
  9
$NORTHDIRECTION
 40
0.0
  9
$TIMEZONE
 70
-8000
  9
$LIGHTGLYPHDISPLAY
280
1
  9
$TILEMODELIGHTSYNCH
280
1
  9
$CMATERIAL
347
20
  9
$SOLIDHIST
280
0
  9
$SHOWHIST
280
1
  9
$DWFFRAME
280
2
  9
$DGNFRAME
280
2
  9
$REALWORLDSCALE
290
1
  9
$INTERFERECOLOR
 62
256
  9
$CSHADOW
280
0
  9
$SHADOWPLANELOCATION
 40
0.0
  0
ENDSEC
  0
SECTION
  2
CLASSES
  0
CLASS
  1
ACDBDICTIONARYWDFLT
  2
AcDbDictionaryWithDefault
  3
ObjectDBX Classes
 90
0
 91
0
280
0
281
0
  0
CLASS
  1
SUN
  2
AcDbSun
  3
SCENEOE
 90
1153
 91
0
280
0
281
0
  0
CLASS
  1
VISUALSTYLE
  2
AcDbVisualStyle
  3
ObjectDBX Classes
 90
4095
 91
0
280
0
281
0
  0
CLASS
  1
MATERIAL
  2
AcDbMaterial
  3
ObjectDBX Classes
 90
1153
 91
0
280
0
281
0
  0
CLASS
  1
SCALE
  2
AcDbScale
  3
ObjectDBX Classes
 90
1153
 91
0
280
0
281
0
  0
CLASS
  1
TABLESTYLE
  2
AcDbTableStyle
  3
ObjectDBX Classes
 90
4095
 91
0
280
0
281
0
  0
CLASS
  1
MLEADERSTYLE
  2
AcDbMLeaderStyle
  3
ACDB_MLEADERSTYLE_CLASS
 90
4095
 91
0
280
0
281
0
  0
CLASS
  1
DICTIONARYVAR
  2
AcDbDictionaryVar
  3
ObjectDBX Classes
 90
0
 91
0
280
0
281
0
  0
CLASS
  1
CELLSTYLEMAP
  2
AcDbCellStyleMap
  3
ObjectDBX Classes
 90
1152
 91
0
280
0
281
0
  0
CLASS
  1
MENTALRAYRENDERSETTINGS
  2
AcDbMentalRayRenderSettings
  3
SCENEOE
 90
1024
 91
0
280
0
281
0
  0
CLASS
  1
ACDBDETAILVIEWSTYLE
  2
AcDbDetailViewStyle
  3
ObjectDBX Classes
 90
1025
 91
0
280
0
281
0
  0
CLASS
  1
ACDBSECTIONVIEWSTYLE
  2
AcDbSectionViewStyle
  3
ObjectDBX Classes
 90
1025
 91
0
280
0
281
0
  0
CLASS
  1
RASTERVARIABLES
  2
AcDbRasterVariables
  3
ISM
 90
0
 91
0
280
0
281
0
  0
CLASS
  1
LAYOUT
  2
AcDbLayout
  3
ObjectDBX Classes
 90
0
 91
0
280
0
281
0
  0
CLASS
  1
ACDBPLACEHOLDER
  2
AcDbPlaceHolder
  3
ObjectDBX Classes
 90
0
 91
0
280
0
281
0
  0
ENDSEC
  0
SECTION
  2
TABLES
  0
TABLE
  2
VPORT
  5
8
330
0
100
AcDbSymbolTable
 70
1
  0
VPORT
  5
23
330
8
100
AcDbSymbolTableRecord
100
AcDbViewportTableRecord
  2
*Active
 70
0
 10
0.0
 20
0.0
 11
1.0
 21
1.0
 12
0.0
 22
0.0
 13
0.0
 23
0.0
 14
0.5
 24
0.5
 15
0.5
 25
0.5
 16
0.0
 26
0.0
 36
1.0
 17
0.0
 27
0.0
 37
0.0
 40
1000.0
 41
1.34
 42
50.0
 43
0.0
 44
0.0
 50
0.0
 51
0.0
 71
0
 72
1000
 73
1
 74
3
 75
0
 76
0
 77
0
 78
0
281
0
 65
0
146
0.0
  0
ENDTAB
  0
TABLE
  2
LTYPE
  5
2
330
0
100
AcDbSymbolTable
 70
3
  0
LTYPE
  5
24
330
2
100
AcDbSymbolTableRecord
100
AcDbLinetypeTableRecord
  2
ByBlock
 70
0
  3

 72
65
 73
0
 40
0.0
  0
LTYPE
  5
25
330
2
100
AcDbSymbolTableRecord
100
AcDbLinetypeTableRecord
  2
ByLayer
 70
0
  3

 72
65
 73
0
 40
0.0
  0
LTYPE
  5
26
330
2
100
AcDbSymbolTableRecord
100
AcDbLinetypeTableRecord
  2
Continuous
 70
0
  3

 72
65
 73
0
 40
0.0
  0
ENDTAB
  0
TABLE
  2
LAYER
  5
1
330
0
100
AcDbSymbolTable
 70
5
  0
LAYER
  5
27
330
1
100
AcDbSymbolTableRecord
100
AcDbLayerTableRecord
  2
0
 70
0
 62
7
  6
Continuous
370
-3
390
13
347
21
  0
LAYER
  5
28
330
1
100
AcDbSymbolTableRecord
100
AcDbLayerTableRecord
  2
Defpoints
 70
0
 62
7
  6
Continuous
290
0
370
-3
390
13
347
21
  0
LAYER
  5
2F
330
1
100
AcDbSymbolTableRecord
100
AcDbLayerTableRecord
  2
pattern
 70
0
 62
5
  6
Continuous
370
-3
390
13
347
21
  0
LAYER
  5
10D
330
1
100
AcDbSymbolTableRecord
100
AcDbLayerTableRecord
  2
outline_1
 70
0
 62
3
  6
Continuous
370
-3
390
13
347
21
  0
LAYER
  5
10F
330
1
100
AcDbSymbolTableRecord
100
AcDbLayerTableRecord
  2
outline_2
 70
0
 62
3
  6
Continuous
370
-3
390
13
347
21
  0
ENDTAB
  0
TABLE
  2
STYLE
  5
5
330
0
100
AcDbSymbolTable
 70
1
  0
STYLE
  5
29
330
5
100
AcDbSymbolTableRecord
100
AcDbTextStyleTableRecord
  2
Standard
 70
0
 40
0.0
 41
1.0
 50
0.0
 71
0
 42
2.5
  3
txt
  4

  0
ENDTAB
  0
TABLE
  2
VIEW
  5
7
330
0
100
AcDbSymbolTable
 70
0
  0
ENDTAB
  0
TABLE
  2
UCS
  5
6
330
0
100
AcDbSymbolTable
 70
0
  0
ENDTAB
  0
TABLE
  2
APPID
  5
3
330
0
100
AcDbSymbolTable
 70
3
  0
APPID
  5
2A
330
3
100
AcDbSymbolTableRecord
100
AcDbRegAppTableRecord
  2
ACAD
 70
0
  0
APPID
  5
111
330
3
100
AcDbSymbolTableRecord
100
AcDbRegAppTableRecord
  2
HATCHBACKGROUNDCOLOR
 70
0
  0
APPID
  5
112
330
3
100
AcDbSymbolTableRecord
100
AcDbRegAppTableRecord
  2
EZDXF
 70
0
  0
ENDTAB
  0
TABLE
  2
DIMSTYLE
  5
4
330
0
100
AcDbSymbolTable
 70
1
100
AcDbDimStyleTable
  0
DIMSTYLE
105
2B
330
4
100
AcDbSymbolTableRecord
100
AcDbDimStyleTableRecord
  2
Standard
 70
0
 40
1.0
 41
2.5
 42
0.625
 43
3.75
 44
1.25
 45
0.0
 46
0.0
 47
0.0
 48
0.0
 49
2.5
140
2.5
141
2.5
142
0.0
143
0.03937007874
144
1.0
145
0.0
146
1.0
147
0.625
148
0.0
 69
0
 70
0
 71
0
 72
0
 73
0
 74
0
 75
0
 76
0
 77
1
 78
8
 79
3
170
0
171
3
172
1
173
0
174
0
175
0
176
0
177
0
178
0
179
2
271
2
272
2
273
2
274
3
275
0
276
0
277
2
278
44
279
0
280
0
281
0
282
0
283
0
284
8
285
0
286
0
288
0
289
3
290
0
371
-2
372
-2
  0
ENDTAB
  0
TABLE
  2
BLOCK_RECORD
  5
9
330
0
100
AcDbSymbolTable
 70
2
  0
BLOCK_RECORD
  5
17
330
9
100
AcDbSymbolTableRecord
100
AcDbBlockTableRecord
  2
*Model_Space
340
1A
 70
0
280
1
281
0
  0
BLOCK_RECORD
  5
1B
330
9
100
AcDbSymbolTableRecord
100
AcDbBlockTableRecord
  2
*Paper_Space
340
1E
 70
0
280
1
281
0
  0
ENDTAB
  0
ENDSEC
  0
SECTION
  2
BLOCKS
  0
BLOCK
  5
18
330
17
100
AcDbEntity
  8
0
100
AcDbBlockBegin
  2
*Model_Space
 70
0
 10
0.0
 20
0.0
 30
0.0
  3
*Model_Space
  1

  0
ENDBLK
  5
19
330
17
100
AcDbEntity
  8
0
100
AcDbBlockEnd
  0
BLOCK
  5
1C
330
1B
100
AcDbEntity
  8
0
100
AcDbBlockBegin
  2
*Paper_Space
 70
0
 10
0.0
 20
0.0
 30
0.0
  3
*Paper_Space
  1

  0
ENDBLK
  5
1D
330
1B
100
AcDbEntity
  8
0
100
AcDbBlockEnd
  0
ENDSEC
  0
SECTION
  2
ENTITIES
  0
LWPOLYLINE
  5
30
330
17
100
AcDbEntity
  8
pattern
100
AcDbPolyline
 90
14
 70
1
 10
153.46831157800372
 20
-161.47849927384905
 10
153.17793215323195
 20
-161.46562930882112
 10
152.8926471043334
 20
-161.43077315353702
 10
152.6132608064459
 20
-161.3744670565396
 10
152.34084575975328
 20
-161.29751539064313
 10
152.07647446443934
 20
-161.20045440439048
 10
151.821219420688
 20
-161.08435659486727
 10
151.57615312868302
 20
-160.9494900863449
 10
151.3420799635623
 20
-160.79692737590912
 10
151.27168144015087
 20
-160.74310837036438
 10
151.27168144015087
 20
-160.6124738700646
 10
153.22023859866584
 20
-159.4874738700646
 10
155.16879575718082
 20
-160.6124738700646
 10
155.16879575718082
 20
-161.28597436536856
  0
LWPOLYLINE
  5
31
330
17
100
AcDbEntity
  8
pattern
100
AcDbPolyline
 90
5
 70
1
 10
156.16879575718082
 20
-161.17275666488186
 10
156.16879575718082
 20
-160.6124738700646
 10
158.1173529156958
 20
-159.4874738700646
 10
160.06591007421076
 20
-160.6124738700646
 10
160.06591007421076
 20
-160.73153434337385
  0
LWPOLYLINE
  5
32
330
17
100
AcDbEntity
  8
pattern
100
AcDbPolyline
 90
4
 70
1
 10
161.06591007421082
 20
-160.61831664288712
 10
161.06591007421082
 20
-160.6124738700646
 10
163.0144672327258
 20
-159.4874738700646
 10
164.3325585025759
 20
-160.24847421952907
  0
LWPOLYLINE
  5
33
330
17
100
AcDbEntity
  8
pattern
100
AcDbPolyline
 90
3
 70
1
 10
167.14500834618138
 20
-159.9300551155018
 10
167.91158154975574
 20
-159.4874738700646
 10
168.42679743826636
 20
-159.784933901987
  0
LWPOLYLINE
  5
34
330
17
100
AcDbEntity
  8
pattern
100
AcDbPolyline
 90
7
 70
1
 10
150.09932037555015
 20
-159.2895327220073
 10
148.93498949585717
 20
-156.30686305473657
 10
150.77168144015087
 20
-155.24644846628019
 10
152.72023859866584
 20
-156.37144846628019
 10
152.72023859866587
 20
-158.62144846628019
 10
150.77168144015087
 20
-159.74644846628019
 10
150.14734785288013
 20
-159.3859893016053
  0
LWPOLYLINE
  5
35
330
17
100
AcDbEntity
  8
pattern
100
AcDbPolyline
 90
6
 70
1
 10
157.6173529156958
 20
-156.37144846628019
 10
155.66879575718082
 20
-155.24644846628019
 10
153.72023859866584
 20
-156.37144846628019
 10
153.72023859866582
 20
-158.62144846628019
 10
155.66879575718082
 20
-159.74644846628019
 10
157.61735291569582
 20
-158.62144846628019
  0
LWPOLYLINE
  5
36
330
17
100
AcDbEntity
  8
pattern
100
AcDbPolyline
 90
6
 70
1
 10
162.5144672327258
 20
-156.37144846628019
 10
160.56591007421082
 20
-155.24644846628019
 10
158.61735291569585
 20
-156.37144846628019
 10
158.61735291569582
 20
-158.62144846628019
 10
160.56591007421082
 20
-159.74644846628019
 10
162.51446723272582
 20
-158.62144846628019
  0
LWPOLYLINE
  5
37
330
17
100
AcDbEntity
  8
pattern
100
AcDbPolyline
 90
6
 70
1
 10
167.41158154975574
 20
-156.37144846628019
 10
165.46302439124076
 20
-155.24644846628019
 10
163.5144672327258
 20
-156.37144846628019
 10
163.51446723272576
 20
-158.62144846628019
 10
165.46302439124076
 20
-159.74644846628019
 10
167.41158154975577
 20
-158.62144846628019
  0
LWPOLYLINE
  5
38
330
17
100
AcDbEntity
  8
pattern
100
AcDbPolyline
 90
7
 70
1
 10
170.0989000973579
 20
-159.5956222839469
 10
168.41158154975577
 20
-158.62144846628019
 10
168.4115815497558
 20
-156.37144846628019
 10
170.36013870827077
 20
-155.24644846628019
 10
172.30869586678574
 20
-156.37144846628019
 10
172.30869586678577
 20
-158.62144846628019
 10
170.74882726258477
 20
-159.52203902481608
  0
LWPOLYLINE
  5
39
330
17
100
AcDbEntity
  8
pattern
100
AcDbPolyline
 90
7
 70
1
 10
174.19313903304834
 20
-159.13208196640483
 10
173.3086958667857
 20
-158.62144846628019
 10
173.30869586678574
 20
-156.37144846628019
 10
175.2572530253007
 20
-155.24644846628019
 10
177.2058101838157
 20
-156.37144846628019
 10
177.20581018381571
 20
-158.62144846628019
 10
176.84051412069755
 20
-158.83235224665538
  0
LWPOLYLINE
  5
3A
330
17
100
AcDbEntity
  8
pattern
100
AcDbPolyline
 90
7
 70
1
 10
181.4653926267739
 20
-158.30873413716694
 10
178.28737796873884
 20
-158.66854164886277
 10
178.20581018381571
 20
-158.62144846628019
 10
178.20581018381574
 20
-156.37144846628019
 10
180.15436734233072
 20
-155.24644846628019
 10
182.1029245008457
 20
-156.37144846628019
 10
182.10292450084572
 20
-158.16743349861156
  0
LWPOLYLINE
  5
3B
330
17
100
AcDbEntity
  8
pattern
100
AcDbPolyline
 90
9
 70
1
 10
185.6945289766585
 20
-156.09885389215466
 10
185.28992828230892
 20
-156.53938207009145
 10
184.8228544522513
 20
-156.94156847721575
 10
184.29062623602607
 20
-157.30353624362763
 10
183.69109863326554
 20
-157.62340849942711
 10
183.10292450084566
 20
-157.86541694856305
 10
183.1029245008457
 20
-156.37144846628019
 10
185.05148165936066
 20
-155.24644846628019
 10
185.93974911206385
 20
-155.75928991921077
  0
LWPOLYLINE
  5
3C
330
17
100
AcDbEntity
  8
pattern
100
AcDbPolyline
 90
5
 70
1
 10
147.13358619838624
 20
-151.69220319507122
 10
148.32312428163584
 20
-151.00542306249574
 10
150.27168144015081
 20
-152.13042306249574
 10
150.27168144015084
 20
-154.38042306249574
 10
148.56713953752427
 20
-155.36454078882218
  0
LWPOLYLINE
  5
3D
330
17
100
AcDbEntity
  8
pattern
100
AcDbPolyline
 90
6
 70
1
 10
155.16879575718082
 20
-152.13042306249574
 10
153.22023859866584
 20
-151.00542306249574
 10
151.27168144015087
 20
-152.13042306249574
 10
151.27168144015084
 20
-154.38042306249574
 10
153.22023859866584
 20
-155.50542306249574
 10
155.16879575718085
 20
-154.38042306249574
  0
LWPOLYLINE
  5
3E
330
17
100
AcDbEntity
  8
pattern
100
AcDbPolyline
 90
6
 70
1
 10
160.06591007421076
 20
-152.13042306249574
 10
158.1173529156958
 20
-151.00542306249574
 10
156.16879575718082
 20
-152.13042306249574
 10
156.1687957571808
 20
-154.38042306249574
 10
158.1173529156958
 20
-155.50542306249574
 10
160.0659100742108
 20
-154.38042306249574
  0
LWPOLYLINE
  5
3F
330
17
100
AcDbEntity
  8
pattern
100
AcDbPolyline
 90
6
 70
1
 10
164.96302439124076
 20
-152.13042306249574
 10
163.0144672327258
 20
-151.00542306249574
 10
161.06591007421082
 20
-152.13042306249574
 10
161.0659100742108
 20
-154.38042306249574
 10
163.0144672327258
 20
-155.50542306249574
 10
164.9630243912408
 20
-154.38042306249574
  0
LWPOLYLINE
  5
40
330
17
100
AcDbEntity
  8
pattern
100
AcDbPolyline
 90
6
 70
1
 10
169.8601387082707
 20
-152.13042306249574
 10
167.91158154975574
 20
-151.00542306249574
 10
165.96302439124076
 20
-152.13042306249574
 10
165.96302439124074
 20
-154.38042306249574
 10
167.91158154975574
 20
-155.50542306249574
 10
169.86013870827074
 20
-154.38042306249574
  0
LWPOLYLINE
  5
41
330
17
100
AcDbEntity
  8
pattern
100
AcDbPolyline
 90
6
 70
1
 10
174.7572530253007
 20
-152.13042306249574
 10
172.80869586678574
 20
-151.00542306249574
 10
170.86013870827077
 20
-152.13042306249574
 10
170.86013870827074
 20
-154.38042306249574
 10
172.80869586678574
 20
-155.50542306249574
 10
174.75725302530074
 20
-154.38042306249574
  0
LWPOLYLINE
  5
42
330
17
100
AcDbEntity
  8
pattern
100
AcDbPolyline
 90
6
 70
1
 10
179.65436734233066
 20
-152.13042306249574
 10
177.7058101838157
 20
-151.00542306249574
 10
175.7572530253007
 20
-152.13042306249574
 10
175.75725302530068
 20
-154.38042306249574
 10
177.7058101838157
 20
-155.50542306249574
 10
179.6543673423307
 20
-154.38042306249574
  0
LWPOLYLINE
  5
43
330
17
100
AcDbEntity
  8
pattern
100
AcDbPolyline
 90
6
 70
1
 10
184.55148165936066
 20
-152.13042306249574
 10
182.6029245008457
 20
-151.00542306249574
 10
180.65436734233072
 20
-152.13042306249574
 10
180.6543673423307
 20
-154.38042306249574
 10
182.6029245008457
 20
-155.50542306249574
 10
184.5514816593607
 20
-154.38042306249574
  0
LWPOLYLINE
  5
44
330
17
100
AcDbEntity
  8
pattern
100
AcDbPolyline
 90
9
 70
1
 10
186.8589960512511
 20
-153.3942843663796
 10
186.73270915460523
 20
-153.9954189828947
 10
186.55547849922743
 20
-154.56840055091106
 10
186.42189013813834
 20
-154.88295363202297
 10
185.55148165936063
 20
-154.38042306249574
 10
185.55148165936066
 20
-152.13042306249574
 10
186.94298303758558
 20
-151.32703936719986
 10
186.95471669265817
 20
-151.44153529765538
 10
186.93648418953273
 20
-152.76714169553716
  0
LWPOLYLINE
  5
45
330
17
100
AcDbEntity
  8
pattern
100
AcDbPolyline
 90
5
 70
1
 10
145.3321829009153
 20
-147.0775433354059
 10
145.87456712312087
 20
-146.7643976587113
 10
147.82312428163584
 20
-147.8893976587113
 10
147.82312428163587
 20
-150.1393976587113
 10
146.76573624005334
 20
-150.74988092915686
  0
LWPOLYLINE
  5
46
330
17
100
AcDbEntity
  8
pattern
100
AcDbPolyline
 90
6
 70
1
 10
152.72023859866584
 20
-147.8893976587113
 10
150.77168144015087
 20
-146.7643976587113
 10
148.8231242816359
 20
-147.8893976587113
 10
148.82312428163587
 20
-150.1393976587113
 10
150.77168144015087
 20
-151.2643976587113
 10
152.72023859866587
 20
-150.1393976587113
  0
LWPOLYLINE
  5
47
330
17
100
AcDbEntity
  8
pattern
100
AcDbPolyline
 90
6
 70
1
 10
157.6173529156958
 20
-147.8893976587113
 10
155.66879575718082
 20
-146.7643976587113
 10
153.72023859866584
 20
-147.8893976587113
 10
153.72023859866582
 20
-150.1393976587113
 10
155.66879575718082
 20
-151.2643976587113
 10
157.61735291569582
 20
-150.1393976587113
  0
LWPOLYLINE
  5
48
330
17
100
AcDbEntity
  8
pattern
100
AcDbPolyline
 90
6
 70
1
 10
162.5144672327258
 20
-147.8893976587113
 10
160.56591007421082
 20
-146.7643976587113
 10
158.61735291569585
 20
-147.8893976587113
 10
158.61735291569582
 20
-150.1393976587113
 10
160.56591007421082
 20
-151.2643976587113
 10
162.51446723272582
 20
-150.1393976587113
  0
LWPOLYLINE
  5
49
330
17
100
AcDbEntity
  8
pattern
100
AcDbPolyline
 90
6
 70
1
 10
167.41158154975574
 20
-147.8893976587113
 10
165.46302439124076
 20
-146.7643976587113
 10
163.5144672327258
 20
-147.8893976587113
 10
163.51446723272576
 20
-150.1393976587113
 10
165.46302439124076
 20
-151.2643976587113
 10
167.41158154975577
 20
-150.1393976587113
  0
LWPOLYLINE
  5
4A
330
17
100
AcDbEntity
  8
pattern
100
AcDbPolyline
 90
6
 70
1
 10
172.30869586678574
 20
-147.8893976587113
 10
170.36013870827077
 20
-146.7643976587113
 10
168.4115815497558
 20
-147.8893976587113
 10
168.41158154975577
 20
-150.1393976587113
 10
170.36013870827077
 20
-151.2643976587113
 10
172.30869586678577
 20
-150.1393976587113
  0
LWPOLYLINE
  5
4B
330
17
100
AcDbEntity
  8
pattern
100
AcDbPolyline
 90
6
 70
1
 10
177.2058101838157
 20
-147.8893976587113
 10
175.2572530253007
 20
-146.7643976587113
 10
173.30869586678574
 20
-147.8893976587113
 10
173.3086958667857
 20
-150.1393976587113
 10
175.2572530253007
 20
-151.2643976587113
 10
177.20581018381571
 20
-150.1393976587113
  0
LWPOLYLINE
  5
4C
330
17
100
AcDbEntity
  8
pattern
100
AcDbPolyline
 90
6
 70
1
 10
182.1029245008457
 20
-147.8893976587113
 10
180.15436734233072
 20
-146.7643976587113
 10
178.20581018381574
 20
-147.8893976587113
 10
178.20581018381571
 20
-150.1393976587113
 10
180.15436734233072
 20
-151.2643976587113
 10
182.10292450084572
 20
-150.1393976587113
  0
LWPOLYLINE
  5
4D
330
17
100
AcDbEntity
  8
pattern
100
AcDbPolyline
 90
8
 70
1
 10
186.5525291237222
 20
-148.7471544941941
 10
186.81958166949568
 20
-150.12290013083054
 10
186.83125864013314
 20
-150.2368429397648
 10
185.05148165936066
 20
-151.2643976587113
 10
183.10292450084566
 20
-150.1393976587113
 10
183.1029245008457
 20
-147.8893976587113
 10
185.05148165936066
 20
-146.7643976587113
 10
186.1433245986185
 20
-147.3947734736046
  0
LWPOLYLINE
  5
4E
330
17
100
AcDbEntity
  8
pattern
100
AcDbPolyline
 90
4
 70
1
 10
143.59174536274364
 20
-142.61905963165594
 10
145.37456712312087
 20
-143.64837225492687
 10
145.3745671231209
 20
-145.89837225492687
 10
144.96433294258242
 20
-146.13522106949154
  0
LWPOLYLINE
  5
4F
330
17
100
AcDbEntity
  8
pattern
100
AcDbPolyline
 90
6
 70
1
 10
150.27168144015081
 20
-143.64837225492687
 10
148.32312428163584
 20
-142.52337225492687
 10
146.37456712312087
 20
-143.64837225492687
 10
146.37456712312084
 20
-145.89837225492687
 10
148.32312428163584
 20
-147.02337225492687
 10
150.27168144015084
 20
-145.89837225492687
  0
LWPOLYLINE
  5
50
330
17
100
AcDbEntity
  8
pattern
100
AcDbPolyline
 90
6
 70
1
 10
155.16879575718082
 20
-143.64837225492687
 10
153.22023859866584
 20
-142.52337225492687
 10
151.27168144015087
 20
-143.64837225492687
 10
151.27168144015084
 20
-145.89837225492687
 10
153.22023859866584
 20
-147.02337225492687
 10
155.16879575718085
 20
-145.89837225492687
  0
LWPOLYLINE
  5
51
330
17
100
AcDbEntity
  8
pattern
100
AcDbPolyline
 90
6
 70
1
 10
160.06591007421076
 20
-143.64837225492687
 10
158.1173529156958
 20
-142.52337225492687
 10
156.16879575718082
 20
-143.64837225492687
 10
156.1687957571808
 20
-145.89837225492687
 10
158.1173529156958
 20
-147.02337225492687
 10
160.0659100742108
 20
-145.89837225492687
  0
LWPOLYLINE
  5
52
330
17
100
AcDbEntity
  8
pattern
100
AcDbPolyline
 90
6
 70
1
 10
164.96302439124076
 20
-143.64837225492687
 10
163.0144672327258
 20
-142.52337225492687
 10
161.06591007421082
 20
-143.64837225492687
 10
161.0659100742108
 20
-145.89837225492687
 10
163.0144672327258
 20
-147.02337225492687
 10
164.9630243912408
 20
-145.89837225492687
  0
LWPOLYLINE
  5
53
330
17
100
AcDbEntity
  8
pattern
100
AcDbPolyline
 90
6
 70
1
 10
169.8601387082707
 20
-143.64837225492687
 10
167.91158154975574
 20
-142.52337225492687
 10
165.96302439124076
 20
-143.64837225492687
 10
165.96302439124074
 20
-145.89837225492687
 10
167.91158154975574
 20
-147.02337225492687
 10
169.86013870827074
 20
-145.89837225492687
  0
LWPOLYLINE
  5
54
330
17
100
AcDbEntity
  8
pattern
100
AcDbPolyline
 90
6
 70
1
 10
174.7572530253007
 20
-143.64837225492687
 10
172.80869586678574
 20
-142.52337225492687
 10
170.86013870827077
 20
-143.64837225492687
 10
170.86013870827074
 20
-145.89837225492687
 10
172.80869586678574
 20
-147.02337225492687
 10
174.75725302530074
 20
-145.89837225492687
  0
LWPOLYLINE
  5
55
330
17
100
AcDbEntity
  8
pattern
100
AcDbPolyline
 90
6
 70
1
 10
179.65436734233066
 20
-143.64837225492687
 10
177.7058101838157
 20
-142.52337225492687
 10
175.7572530253007
 20
-143.64837225492687
 10
175.75725302530068
 20
-145.89837225492687
 10
177.7058101838157
 20
-147.02337225492687
 10
179.6543673423307
 20
-145.89837225492687
  0
LWPOLYLINE
  5
56
330
17
100
AcDbEntity
  8
pattern
100
AcDbPolyline
 90
6
 70
1
 10
184.55148165936066
 20
-143.64837225492687
 10
182.6029245008457
 20
-142.52337225492687
 10
180.65436734233072
 20
-143.64837225492687
 10
180.6543673423307
 20
-145.89837225492687
 10
182.6029245008457
 20
-147.02337225492687
 10
184.5514816593607
 20
-145.89837225492687
  0
LWPOLYLINE
  5
57
330
17
100
AcDbEntity
  8
pattern
100
AcDbPolyline
 90
4
 70
1
 10
185.68460834995835
 20
-145.87876103858372
 10
185.7199777735544
 20
-145.99565353181404
 10
185.55148165936063
 20
-145.89837225492687
 10
185.55148165936063
 20
-145.5845288793956
  0
LWPOLYLINE
  5
58
330
17
100
AcDbEntity
  8
pattern
100
AcDbPolyline
 90
3
 70
1
 10
142.16692278998838
 20
-138.9690876665386
 10
142.9260099646059
 20
-139.40734685114242
 10
142.92600996460592
 20
-140.91364340239866
  0
LWPOLYLINE
  5
59
330
17
100
AcDbEntity
  8
pattern
100
AcDbPolyline
 90
6
 70
1
 10
147.82312428163584
 20
-139.40734685114242
 10
145.87456712312087
 20
-138.28234685114242
 10
143.9260099646059
 20
-139.40734685114242
 10
143.92600996460587
 20
-141.65734685114242
 10
145.87456712312087
 20
-142.78234685114242
 10
147.82312428163587
 20
-141.65734685114242
  0
LWPOLYLINE
  5
5A
330
17
100
AcDbEntity
  8
pattern
100
AcDbPolyline
 90
6
 70
1
 10
152.72023859866584
 20
-139.40734685114242
 10
150.77168144015087
 20
-138.28234685114242
 10
148.8231242816359
 20
-139.40734685114242
 10
148.82312428163587
 20
-141.65734685114242
 10
150.77168144015087
 20
-142.78234685114242
 10
152.72023859866587
 20
-141.65734685114242
  0
LWPOLYLINE
  5
5B
330
17
100
AcDbEntity
  8
pattern
100
AcDbPolyline
 90
6
 70
1
 10
157.6173529156958
 20
-139.40734685114242
 10
155.66879575718082
 20
-138.28234685114242
 10
153.72023859866584
 20
-139.40734685114242
 10
153.72023859866582
 20
-141.65734685114242
 10
155.66879575718082
 20
-142.78234685114242
 10
157.61735291569582
 20
-141.65734685114242
  0
LWPOLYLINE
  5
5C
330
17
100
AcDbEntity
  8
pattern
100
AcDbPolyline
 90
6
 70
1
 10
162.5144672327258
 20
-139.40734685114242
 10
160.56591007421082
 20
-138.28234685114242
 10
158.61735291569585
 20
-139.40734685114242
 10
158.61735291569582
 20
-141.65734685114242
 10
160.56591007421082
 20
-142.78234685114242
 10
162.51446723272582
 20
-141.65734685114242
  0
LWPOLYLINE
  5
5D
330
17
100
AcDbEntity
  8
pattern
100
AcDbPolyline
 90
6
 70
1
 10
167.41158154975574
 20
-139.40734685114242
 10
165.46302439124076
 20
-138.28234685114242
 10
163.5144672327258
 20
-139.40734685114242
 10
163.51446723272576
 20
-141.65734685114242
 10
165.46302439124076
 20
-142.78234685114242
 10
167.41158154975577
 20
-141.65734685114242
  0
LWPOLYLINE
  5
5E
330
17
100
AcDbEntity
  8
pattern
100
AcDbPolyline
 90
6
 70
1
 10
172.30869586678574
 20
-139.40734685114242
 10
170.36013870827077
 20
-138.28234685114242
 10
168.4115815497558
 20
-139.40734685114242
 10
168.41158154975577
 20
-141.65734685114242
 10
170.36013870827077
 20
-142.78234685114242
 10
172.30869586678577
 20
-141.65734685114242
  0
LWPOLYLINE
  5
5F
330
17
100
AcDbEntity
  8
pattern
100
AcDbPolyline
 90
6
 70
1
 10
177.2058101838157
 20
-139.40734685114242
 10
175.2572530253007
 20
-138.28234685114242
 10
173.30869586678574
 20
-139.40734685114242
 10
173.3086958667857
 20
-141.65734685114242
 10
175.2572530253007
 20
-142.78234685114242
 10
177.20581018381571
 20
-141.65734685114242
  0
LWPOLYLINE
  5
60
330
17
100
AcDbEntity
  8
pattern
100
AcDbPolyline
 90
6
 70
1
 10
182.1029245008457
 20
-139.40734685114242
 10
180.15436734233072
 20
-138.28234685114242
 10
178.20581018381574
 20
-139.40734685114242
 10
178.20581018381571
 20
-141.65734685114242
 10
180.15436734233072
 20
-142.78234685114242
 10
182.10292450084572
 20
-141.65734685114242
  0
LWPOLYLINE
  5
61
330
17
100
AcDbEntity
  8
pattern
100
AcDbPolyline
 90
3
 70
1
 10
184.01211258587134
 20
-142.182266836776
 10
183.10292450084566
 20
-141.65734685114242
 10
183.1029245008457
 20
-140.17280973869805
  0
LWPOLYLINE
  5
62
330
17
100
AcDbEntity
  8
pattern
100
AcDbPolyline
 90
7
 70
1
 10
141.4774528060909
 20
-137.20287048263387
 10
141.47745280609092
 20
-135.16632144735797
 10
143.4260099646059
 20
-134.04132144735797
 10
145.37456712312087
 20
-135.16632144735797
 10
145.3745671231209
 20
-137.41632144735797
 10
143.4260099646059
 20
-138.54132144735797
 10
141.58501986491254
 20
-137.47842531772457
  0
LWPOLYLINE
  5
63
330
17
100
AcDbEntity
  8
pattern
100
AcDbPolyline
 90
6
 70
1
 10
150.27168144015081
 20
-135.16632144735797
 10
148.32312428163584
 20
-134.04132144735797
 10
146.37456712312087
 20
-135.16632144735797
 10
146.37456712312084
 20
-137.41632144735797
 10
148.32312428163584
 20
-138.54132144735797
 10
150.27168144015084
 20
-137.41632144735797
  0
LWPOLYLINE
  5
64
330
17
100
AcDbEntity
  8
pattern
100
AcDbPolyline
 90
6
 70
1
 10
155.16879575718082
 20
-135.16632144735797
 10
153.22023859866584
 20
-134.04132144735797
 10
151.27168144015087
 20
-135.16632144735797
 10
151.27168144015084
 20
-137.41632144735797
 10
153.22023859866584
 20
-138.54132144735797
 10
155.16879575718085
 20
-137.41632144735797
  0
LWPOLYLINE
  5
65
330
17
100
AcDbEntity
  8
pattern
100
AcDbPolyline
 90
6
 70
1
 10
160.06591007421076
 20
-135.16632144735797
 10
158.1173529156958
 20
-134.04132144735797
 10
156.16879575718082
 20
-135.16632144735797
 10
156.1687957571808
 20
-137.41632144735797
 10
158.1173529156958
 20
-138.54132144735797
 10
160.0659100742108
 20
-137.41632144735797
  0
LWPOLYLINE
  5
66
330
17
100
AcDbEntity
  8
pattern
100
AcDbPolyline
 90
6
 70
1
 10
164.96302439124076
 20
-135.16632144735797
 10
163.0144672327258
 20
-134.04132144735797
 10
161.06591007421082
 20
-135.16632144735797
 10
161.0659100742108
 20
-137.41632144735797
 10
163.0144672327258
 20
-138.54132144735797
 10
164.9630243912408
 20
-137.41632144735797
  0
LWPOLYLINE
  5
67
330
17
100
AcDbEntity
  8
pattern
100
AcDbPolyline
 90
6
 70
1
 10
169.8601387082707
 20
-135.16632144735797
 10
167.91158154975574
 20
-134.04132144735797
 10
165.96302439124076
 20
-135.16632144735797
 10
165.96302439124074
 20
-137.41632144735797
 10
167.91158154975574
 20
-138.54132144735797
 10
169.86013870827074
 20
-137.41632144735797
  0
LWPOLYLINE
  5
68
330
17
100
AcDbEntity
  8
pattern
100
AcDbPolyline
 90
6
 70
1
 10
174.7572530253007
 20
-135.16632144735797
 10
172.80869586678574
 20
-134.04132144735797
 10
170.86013870827077
 20
-135.16632144735797
 10
170.86013870827074
 20
-137.41632144735797
 10
172.80869586678574
 20
-138.54132144735797
 10
174.75725302530074
 20
-137.41632144735797
  0
LWPOLYLINE
  5
69
330
17
100
AcDbEntity
  8
pattern
100
AcDbPolyline
 90
6
 70
1
 10
179.65436734233066
 20
-135.16632144735797
 10
177.7058101838157
 20
-134.04132144735797
 10
175.7572530253007
 20
-135.16632144735797
 10
175.75725302530068
 20
-137.41632144735797
 10
177.7058101838157
 20
-138.54132144735797
 10
179.6543673423307
 20
-137.41632144735797
  0
LWPOLYLINE
  5
6A
330
17
100
AcDbEntity
  8
pattern
100
AcDbPolyline
 90
3
 70
1
 10
181.9001183059496
 20
-138.1355561015466
 10
180.6543673423307
 20
-137.41632144735797
 10
180.65436734233072
 20
-136.05579588281975
  0
LWPOLYLINE
  5
6B
330
17
100
AcDbEntity
  8
pattern
100
AcDbPolyline
 90
7
 70
1
 10
139.02889564757595
 20
-130.930394769195
 10
139.02889564757595
 20
-130.92529604357355
 10
140.97745280609092
 20
-129.80029604357355
 10
142.9260099646059
 20
-130.92529604357355
 10
142.92600996460592
 20
-133.17529604357355
 10
140.97745280609092
 20
-134.30029604357355
 10
140.16019729215728
 20
-133.82845335260726
  0
LWPOLYLINE
  5
6C
330
17
100
AcDbEntity
  8
pattern
100
AcDbPolyline
 90
6
 70
1
 10
147.82312428163584
 20
-130.92529604357355
 10
145.87456712312087
 20
-129.80029604357355
 10
143.9260099646059
 20
-130.92529604357355
 10
143.92600996460587
 20
-133.17529604357355
 10
145.87456712312087
 20
-134.30029604357355
 10
147.82312428163587
 20
-133.17529604357355
  0
LWPOLYLINE
  5
6D
330
17
100
AcDbEntity
  8
pattern
100
AcDbPolyline
 90
6
 70
1
 10
152.72023859866584
 20
-130.92529604357355
 10
150.77168144015087
 20
-129.80029604357355
 10
148.8231242816359
 20
-130.92529604357355
 10
148.82312428163587
 20
-133.17529604357355
 10
150.77168144015087
 20
-134.30029604357355
 10
152.72023859866587
 20
-133.17529604357355
  0
LWPOLYLINE
  5
6E
330
17
100
AcDbEntity
  8
pattern
100
AcDbPolyline
 90
6
 70
1
 10
157.6173529156958
 20
-130.92529604357355
 10
155.66879575718082
 20
-129.80029604357355
 10
153.72023859866584
 20
-130.92529604357355
 10
153.72023859866582
 20
-133.17529604357355
 10
155.66879575718082
 20
-134.30029604357355
 10
157.61735291569582
 20
-133.17529604357355
  0
LWPOLYLINE
  5
6F
330
17
100
AcDbEntity
  8
pattern
100
AcDbPolyline
 90
6
 70
1
 10
162.5144672327258
 20
-130.92529604357355
 10
160.56591007421082
 20
-129.80029604357355
 10
158.61735291569585
 20
-130.92529604357355
 10
158.61735291569582
 20
-133.17529604357355
 10
160.56591007421082
 20
-134.30029604357355
 10
162.51446723272582
 20
-133.17529604357355
  0
LWPOLYLINE
  5
70
330
17
100
AcDbEntity
  8
pattern
100
AcDbPolyline
 90
6
 70
1
 10
167.41158154975574
 20
-130.92529604357355
 10
165.46302439124076
 20
-129.80029604357355
 10
163.5144672327258
 20
-130.92529604357355
 10
163.51446723272576
 20
-133.17529604357355
 10
165.46302439124076
 20
-134.30029604357355
 10
167.41158154975577
 20
-133.17529604357355
  0
LWPOLYLINE
  5
71
330
17
100
AcDbEntity
  8
pattern
100
AcDbPolyline
 90
6
 70
1
 10
172.30869586678574
 20
-130.92529604357355
 10
170.36013870827077
 20
-129.80029604357355
 10
168.4115815497558
 20
-130.92529604357355
 10
168.41158154975577
 20
-133.17529604357355
 10
170.36013870827077
 20
-134.30029604357355
 10
172.30869586678577
 20
-133.17529604357355
  0
LWPOLYLINE
  5
72
330
17
100
AcDbEntity
  8
pattern
100
AcDbPolyline
 90
6
 70
1
 10
177.2058101838157
 20
-130.92529604357355
 10
175.2572530253007
 20
-129.80029604357355
 10
173.30869586678574
 20
-130.92529604357355
 10
173.3086958667857
 20
-133.17529604357355
 10
175.2572530253007
 20
-134.30029604357355
 10
177.20581018381571
 20
-133.17529604357355
  0
LWPOLYLINE
  5
73
330
17
100
AcDbEntity
  8
pattern
100
AcDbPolyline
 90
3
 70
1
 10
179.3112846859606
 20
-133.81354204496915
 10
178.20581018381571
 20
-133.17529604357355
 10
178.20581018381574
 20
-131.9679710122976
  0
LWPOLYLINE
  5
74
330
17
100
AcDbEntity
  8
pattern
100
AcDbPolyline
 90
5
 70
1
 10
137.22586806229614
 20
-126.3115739669119
 10
138.5288956475759
 20
-125.5592706397891
 10
140.47745280609087
 20
-126.6842706397891
 10
140.4774528060909
 20
-128.9342706397891
 10
138.65942140143414
 20
-129.98391156066285
  0
LWPOLYLINE
  5
75
330
17
100
AcDbEntity
  8
pattern
100
AcDbPolyline
 90
6
 70
1
 10
145.37456712312087
 20
-126.6842706397891
 10
143.4260099646059
 20
-125.5592706397891
 10
141.47745280609092
 20
-126.6842706397891
 10
141.4774528060909
 20
-128.9342706397891
 10
143.4260099646059
 20
-130.0592706397891
 10
145.3745671231209
 20
-128.9342706397891
  0
LWPOLYLINE
  5
76
330
17
100
AcDbEntity
  8
pattern
100
AcDbPolyline
 90
6
 70
1
 10
150.27168144015081
 20
-126.6842706397891
 10
148.32312428163584
 20
-125.5592706397891
 10
146.37456712312087
 20
-126.6842706397891
 10
146.37456712312084
 20
-128.9342706397891
 10
148.32312428163584
 20
-130.0592706397891
 10
150.27168144015084
 20
-128.9342706397891
  0
LWPOLYLINE
  5
77
330
17
100
AcDbEntity
  8
pattern
100
AcDbPolyline
 90
6
 70
1
 10
155.16879575718082
 20
-126.6842706397891
 10
153.22023859866584
 20
-125.5592706397891
 10
151.27168144015087
 20
-126.6842706397891
 10
151.27168144015084
 20
-128.9342706397891
 10
153.22023859866584
 20
-130.0592706397891
 10
155.16879575718085
 20
-128.9342706397891
  0
LWPOLYLINE
  5
78
330
17
100
AcDbEntity
  8
pattern
100
AcDbPolyline
 90
6
 70
1
 10
160.06591007421076
 20
-126.6842706397891
 10
158.1173529156958
 20
-125.5592706397891
 10
156.16879575718082
 20
-126.6842706397891
 10
156.1687957571808
 20
-128.9342706397891
 10
158.1173529156958
 20
-130.0592706397891
 10
160.0659100742108
 20
-128.9342706397891
  0
LWPOLYLINE
  5
79
330
17
100
AcDbEntity
  8
pattern
100
AcDbPolyline
 90
6
 70
1
 10
164.96302439124076
 20
-126.6842706397891
 10
163.0144672327258
 20
-125.5592706397891
 10
161.06591007421082
 20
-126.6842706397891
 10
161.0659100742108
 20
-128.9342706397891
 10
163.0144672327258
 20
-130.0592706397891
 10
164.9630243912408
 20
-128.9342706397891
  0
LWPOLYLINE
  5
7A
330
17
100
AcDbEntity
  8
pattern
100
AcDbPolyline
 90
6
 70
1
 10
169.8601387082707
 20
-126.6842706397891
 10
167.91158154975574
 20
-125.5592706397891
 10
165.96302439124076
 20
-126.6842706397891
 10
165.96302439124074
 20
-128.9342706397891
 10
167.91158154975574
 20
-130.0592706397891
 10
169.86013870827074
 20
-128.9342706397891
  0
LWPOLYLINE
  5
7B
330
17
100
AcDbEntity
  8
pattern
100
AcDbPolyline
 90
6
 70
1
 10
174.7572530253007
 20
-126.6842706397891
 10
172.80869586678574
 20
-125.5592706397891
 10
170.86013870827077
 20
-126.6842706397891
 10
170.86013870827074
 20
-128.9342706397891
 10
172.80869586678574
 20
-130.0592706397891
 10
174.75725302530074
 20
-128.9342706397891
  0
LWPOLYLINE
  5
7C
330
17
100
AcDbEntity
  8
pattern
100
AcDbPolyline
 90
3
 70
1
 10
176.72245106597157
 20
-129.49152798839174
 10
175.75725302530068
 20
-128.9342706397891
 10
175.75725302530068
 20
-127.88014614177534
  0
LWPOLYLINE
  5
7D
330
17
100
AcDbEntity
  8
pattern
100
AcDbPolyline
 90
5
 70
1
 10
135.42446476482522
 20
-121.69691410724657
 10
136.08033848906092
 20
-121.31824523600467
 10
138.0288956475759
 20
-122.44324523600467
 10
138.02889564757592
 20
-124.69324523600467
 10
136.85801810396325
 20
-125.36925170099754
  0
LWPOLYLINE
  5
7E
330
17
100
AcDbEntity
  8
pattern
100
AcDbPolyline
 90
6
 70
1
 10
142.9260099646059
 20
-122.44324523600467
 10
140.97745280609092
 20
-121.31824523600467
 10
139.02889564757595
 20
-122.44324523600467
 10
139.02889564757592
 20
-124.69324523600467
 10
140.97745280609092
 20
-125.81824523600467
 10
142.92600996460592
 20
-124.69324523600467
  0
LWPOLYLINE
  5
7F
330
17
100
AcDbEntity
  8
pattern
100
AcDbPolyline
 90
6
 70
1
 10
147.82312428163584
 20
-122.44324523600467
 10
145.87456712312087
 20
-121.31824523600467
 10
143.9260099646059
 20
-122.44324523600467
 10
143.92600996460587
 20
-124.69324523600467
 10
145.87456712312087
 20
-125.81824523600467
 10
147.82312428163587
 20
-124.69324523600467
  0
LWPOLYLINE
  5
80
330
17
100
AcDbEntity
  8
pattern
100
AcDbPolyline
 90
6
 70
1
 10
152.72023859866584
 20
-122.44324523600467
 10
150.77168144015087
 20
-121.31824523600467
 10
148.8231242816359
 20
-122.44324523600467
 10
148.82312428163587
 20
-124.69324523600467
 10
150.77168144015087
 20
-125.81824523600467
 10
152.72023859866587
 20
-124.69324523600467
  0
LWPOLYLINE
  5
81
330
17
100
AcDbEntity
  8
pattern
100
AcDbPolyline
 90
6
 70
1
 10
157.6173529156958
 20
-122.44324523600467
 10
155.66879575718082
 20
-121.31824523600467
 10
153.72023859866584
 20
-122.44324523600467
 10
153.72023859866582
 20
-124.69324523600467
 10
155.66879575718082
 20
-125.81824523600467
 10
157.61735291569582
 20
-124.69324523600467
  0
LWPOLYLINE
  5
82
330
17
100
AcDbEntity
  8
pattern
100
AcDbPolyline
 90
6
 70
1
 10
162.5144672327258
 20
-122.44324523600467
 10
160.56591007421082
 20
-121.31824523600467
 10
158.61735291569585
 20
-122.44324523600467
 10
158.61735291569582
 20
-124.69324523600467
 10
160.56591007421082
 20
-125.81824523600467
 10
162.51446723272582
 20
-124.69324523600467
  0
LWPOLYLINE
  5
83
330
17
100
AcDbEntity
  8
pattern
100
AcDbPolyline
 90
6
 70
1
 10
167.41158154975574
 20
-122.44324523600467
 10
165.46302439124076
 20
-121.31824523600467
 10
163.5144672327258
 20
-122.44324523600467
 10
163.51446723272576
 20
-124.69324523600467
 10
165.46302439124076
 20
-125.81824523600467
 10
167.41158154975577
 20
-124.69324523600467
  0
LWPOLYLINE
  5
84
330
17
100
AcDbEntity
  8
pattern
100
AcDbPolyline
 90
6
 70
1
 10
172.30869586678574
 20
-122.44324523600467
 10
170.36013870827077
 20
-121.31824523600467
 10
168.4115815497558
 20
-122.44324523600467
 10
168.41158154975577
 20
-124.69324523600467
 10
170.36013870827077
 20
-125.81824523600467
 10
172.30869586678577
 20
-124.69324523600467
  0
LWPOLYLINE
  5
85
330
17
100
AcDbEntity
  8
pattern
100
AcDbPolyline
 90
3
 70
1
 10
174.13361744598254
 20
-125.1695139318143
 10
173.3086958667857
 20
-124.69324523600467
 10
173.3086958667857
 20
-123.79232127125319
  0
LWPOLYLINE
  5
86
330
17
100
AcDbEntity
  8
pattern
100
AcDbPolyline
 90
5
 70
1
 10
133.6230614673543
 20
-117.08225424758125
 10
133.63178133054595
 20
-117.07721983222024
 10
135.58033848906092
 20
-118.20221983222024
 10
135.58033848906095
 20
-120.45221983222024
 10
135.05661480649232
 20
-120.75459184133223
  0
LWPOLYLINE
  5
87
330
17
100
AcDbEntity
  8
pattern
100
AcDbPolyline
 90
6
 70
1
 10
140.47745280609087
 20
-118.20221983222024
 10
138.5288956475759
 20
-117.07721983222024
 10
136.58033848906092
 20
-118.20221983222024
 10
136.5803384890609
 20
-120.45221983222024
 10
138.5288956475759
 20
-121.57721983222024
 10
140.4774528060909
 20
-120.45221983222024
  0
LWPOLYLINE
  5
88
330
17
100
AcDbEntity
  8
pattern
100
AcDbPolyline
 90
6
 70
1
 10
145.37456712312087
 20
-118.20221983222024
 10
143.4260099646059
 20
-117.07721983222024
 10
141.47745280609092
 20
-118.20221983222024
 10
141.4774528060909
 20
-120.45221983222024
 10
143.4260099646059
 20
-121.57721983222024
 10
145.3745671231209
 20
-120.45221983222024
  0
LWPOLYLINE
  5
89
330
17
100
AcDbEntity
  8
pattern
100
AcDbPolyline
 90
6
 70
1
 10
150.27168144015081
 20
-118.20221983222024
 10
148.32312428163584
 20
-117.07721983222024
 10
146.37456712312087
 20
-118.20221983222024
 10
146.37456712312084
 20
-120.45221983222024
 10
148.32312428163584
 20
-121.57721983222024
 10
150.27168144015084
 20
-120.45221983222024
  0
LWPOLYLINE
  5
8A
330
17
100
AcDbEntity
  8
pattern
100
AcDbPolyline
 90
6
 70
1
 10
155.16879575718082
 20
-118.20221983222024
 10
153.22023859866584
 20
-117.07721983222024
 10
151.27168144015087
 20
-118.20221983222024
 10
151.27168144015084
 20
-120.45221983222024
 10
153.22023859866584
 20
-121.57721983222024
 10
155.16879575718085
 20
-120.45221983222024
  0
LWPOLYLINE
  5
8B
330
17
100
AcDbEntity
  8
pattern
100
AcDbPolyline
 90
6
 70
1
 10
160.06591007421076
 20
-118.20221983222024
 10
158.1173529156958
 20
-117.07721983222024
 10
156.16879575718082
 20
-118.20221983222024
 10
156.1687957571808
 20
-120.45221983222024
 10
158.1173529156958
 20
-121.57721983222024
 10
160.0659100742108
 20
-120.45221983222024
  0
LWPOLYLINE
  5
8C
330
17
100
AcDbEntity
  8
pattern
100
AcDbPolyline
 90
6
 70
1
 10
164.96302439124076
 20
-118.20221983222024
 10
163.0144672327258
 20
-117.07721983222024
 10
161.06591007421082
 20
-118.20221983222024
 10
161.0659100742108
 20
-120.45221983222024
 10
163.0144672327258
 20
-121.57721983222024
 10
164.9630243912408
 20
-120.45221983222024
  0
LWPOLYLINE
  5
8D
330
17
100
AcDbEntity
  8
pattern
100
AcDbPolyline
 90
6
 70
1
 10
169.8601387082707
 20
-118.20221983222024
 10
167.91158154975574
 20
-117.07721983222024
 10
165.96302439124076
 20
-118.20221983222024
 10
165.96302439124074
 20
-120.45221983222024
 10
167.91158154975574
 20
-121.57721983222024
 10
169.86013870827074
 20
-120.45221983222024
  0
LWPOLYLINE
  5
8E
330
17
100
AcDbEntity
  8
pattern
100
AcDbPolyline
 90
3
 70
1
 10
171.5447838259935
 20
-120.84749987523684
 10
170.86013870827074
 20
-120.45221983222024
 10
170.86013870827074
 20
-119.70449640073103
  0
LWPOLYLINE
  5
8F
330
17
100
AcDbEntity
  8
pattern
100
AcDbPolyline
 90
3
 70
1
 10
132.19316478070152
 20
-113.41928391071727
 10
133.13178133054595
 20
-113.96119442843579
 10
133.13178133054598
 20
-115.82374054864272
  0
LWPOLYLINE
  5
90
330
17
100
AcDbEntity
  8
pattern
100
AcDbPolyline
 90
6
 70
1
 10
138.0288956475759
 20
-113.96119442843579
 10
136.08033848906092
 20
-112.83619442843579
 10
134.13178133054595
 20
-113.96119442843579
 10
134.13178133054592
 20
-116.21119442843579
 10
136.08033848906092
 20
-117.33619442843579
 10
138.02889564757592
 20
-116.21119442843579
  0
LWPOLYLINE
  5
91
330
17
100
AcDbEntity
  8
pattern
100
AcDbPolyline
 90
6
 70
1
 10
142.9260099646059
 20
-113.96119442843579
 10
140.97745280609092
 20
-112.83619442843579
 10
139.02889564757595
 20
-113.96119442843579
 10
139.02889564757592
 20
-116.21119442843579
 10
140.97745280609092
 20
-117.33619442843579
 10
142.92600996460592
 20
-116.21119442843579
  0
LWPOLYLINE
  5
92
330
17
100
AcDbEntity
  8
pattern
100
AcDbPolyline
 90
6
 70
1
 10
147.82312428163584
 20
-113.96119442843579
 10
145.87456712312087
 20
-112.83619442843579
 10
143.9260099646059
 20
-113.96119442843579
 10
143.92600996460587
 20
-116.21119442843579
 10
145.87456712312087
 20
-117.33619442843579
 10
147.82312428163587
 20
-116.21119442843579
  0
LWPOLYLINE
  5
93
330
17
100
AcDbEntity
  8
pattern
100
AcDbPolyline
 90
6
 70
1
 10
152.72023859866584
 20
-113.96119442843579
 10
150.77168144015087
 20
-112.83619442843579
 10
148.8231242816359
 20
-113.96119442843579
 10
148.82312428163587
 20
-116.21119442843579
 10
150.77168144015087
 20
-117.33619442843579
 10
152.72023859866587
 20
-116.21119442843579
  0
LWPOLYLINE
  5
94
330
17
100
AcDbEntity
  8
pattern
100
AcDbPolyline
 90
6
 70
1
 10
157.6173529156958
 20
-113.96119442843579
 10
155.66879575718082
 20
-112.83619442843579
 10
153.72023859866584
 20
-113.96119442843579
 10
153.72023859866582
 20
-116.21119442843579
 10
155.66879575718082
 20
-117.33619442843579
 10
157.61735291569582
 20
-116.21119442843579
  0
LWPOLYLINE
  5
95
330
17
100
AcDbEntity
  8
pattern
100
AcDbPolyline
 90
6
 70
1
 10
162.5144672327258
 20
-113.96119442843579
 10
160.56591007421082
 20
-112.83619442843579
 10
158.61735291569585
 20
-113.96119442843579
 10
158.61735291569582
 20
-116.21119442843579
 10
160.56591007421082
 20
-117.33619442843579
 10
162.51446723272582
 20
-116.21119442843579
  0
LWPOLYLINE
  5
96
330
17
100
AcDbEntity
  8
pattern
100
AcDbPolyline
 90
6
 70
1
 10
167.41158154975574
 20
-113.96119442843579
 10
165.46302439124076
 20
-112.83619442843579
 10
163.5144672327258
 20
-113.96119442843579
 10
163.51446723272576
 20
-116.21119442843579
 10
165.46302439124076
 20
-117.33619442843579
 10
167.41158154975577
 20
-116.21119442843579
  0
LWPOLYLINE
  5
97
330
17
100
AcDbEntity
  8
pattern
100
AcDbPolyline
 90
3
 70
1
 10
168.95595020600447
 20
-116.52548581865938
 10
168.41158154975577
 20
-116.21119442843579
 10
168.41158154975577
 20
-115.61667153020888
  0
LWPOLYLINE
  5
98
330
17
100
AcDbEntity
  8
pattern
100
AcDbPolyline
 90
6
 70
1
 10
135.58033848906092
 20
-109.72016902465136
 10
133.63178133054595
 20
-108.59516902465136
 10
131.68322417203098
 20
-109.72016902465136
 10
131.68322417203095
 20
-111.97016902465136
 10
133.63178133054595
 20
-113.09516902465136
 10
135.58033848906095
 20
-111.97016902465136
  0
LWPOLYLINE
  5
99
330
17
100
AcDbEntity
  8
pattern
100
AcDbPolyline
 90
6
 70
1
 10
140.47745280609087
 20
-109.72016902465136
 10
138.5288956475759
 20
-108.59516902465136
 10
136.58033848906092
 20
-109.72016902465136
 10
136.5803384890609
 20
-111.97016902465136
 10
138.5288956475759
 20
-113.09516902465136
 10
140.4774528060909
 20
-111.97016902465136
  0
LWPOLYLINE
  5
9A
330
17
100
AcDbEntity
  8
pattern
100
AcDbPolyline
 90
6
 70
1
 10
145.37456712312087
 20
-109.72016902465136
 10
143.4260099646059
 20
-108.59516902465136
 10
141.47745280609092
 20
-109.72016902465136
 10
141.4774528060909
 20
-111.97016902465136
 10
143.4260099646059
 20
-113.09516902465136
 10
145.3745671231209
 20
-111.97016902465136
  0
LWPOLYLINE
  5
9B
330
17
100
AcDbEntity
  8
pattern
100
AcDbPolyline
 90
6
 70
1
 10
150.27168144015081
 20
-109.72016902465136
 10
148.32312428163584
 20
-108.59516902465136
 10
146.37456712312087
 20
-109.72016902465136
 10
146.37456712312084
 20
-111.97016902465136
 10
148.32312428163584
 20
-113.09516902465136
 10
150.27168144015084
 20
-111.97016902465136
  0
LWPOLYLINE
  5
9C
330
17
100
AcDbEntity
  8
pattern
100
AcDbPolyline
 90
6
 70
1
 10
155.16879575718082
 20
-109.72016902465136
 10
153.22023859866584
 20
-108.59516902465136
 10
151.27168144015087
 20
-109.72016902465136
 10
151.27168144015084
 20
-111.97016902465136
 10
153.22023859866584
 20
-113.09516902465136
 10
155.16879575718085
 20
-111.97016902465136
  0
LWPOLYLINE
  5
9D
330
17
100
AcDbEntity
  8
pattern
100
AcDbPolyline
 90
6
 70
1
 10
160.06591007421076
 20
-109.72016902465136
 10
158.1173529156958
 20
-108.59516902465136
 10
156.16879575718082
 20
-109.72016902465136
 10
156.1687957571808
 20
-111.97016902465136
 10
158.1173529156958
 20
-113.09516902465136
 10
160.0659100742108
 20
-111.97016902465136
  0
LWPOLYLINE
  5
9E
330
17
100
AcDbEntity
  8
pattern
100
AcDbPolyline
 90
6
 70
1
 10
164.96302439124076
 20
-109.72016902465136
 10
163.0144672327258
 20
-108.59516902465136
 10
161.06591007421082
 20
-109.72016902465136
 10
161.0659100742108
 20
-111.97016902465136
 10
163.0144672327258
 20
-113.09516902465136
 10
164.9630243912408
 20
-111.97016902465136
  0
LWPOLYLINE
  5
9F
330
17
100
AcDbEntity
  8
pattern
100
AcDbPolyline
 90
3
 70
1
 10
166.62768002885514
 20
-112.35390813594643
 10
165.96302439124074
 20
-111.97016902465136
 10
165.96302439124074
 20
-110.87948797276346
  0
LWPOLYLINE
  5
A0
330
17
100
AcDbEntity
  8
pattern
100
AcDbPolyline
 90
7
 70
1
 10
129.234667013516
 20
-105.84049191543902
 10
129.234667013516
 20
-105.47914362086692
 10
131.18322417203098
 20
-104.35414362086692
 10
133.13178133054595
 20
-105.47914362086692
 10
133.13178133054598
 20
-107.72914362086692
 10
131.18322417203098
 20
-108.85414362086692
 10
130.18643928287042
 20
-108.27864959678593
  0
LWPOLYLINE
  5
A1
330
17
100
AcDbEntity
  8
pattern
100
AcDbPolyline
 90
6
 70
1
 10
138.0288956475759
 20
-105.47914362086692
 10
136.08033848906092
 20
-104.35414362086692
 10
134.13178133054595
 20
-105.47914362086692
 10
134.13178133054592
 20
-107.72914362086692
 10
136.08033848906092
 20
-108.85414362086692
 10
138.02889564757592
 20
-107.72914362086692
  0
LWPOLYLINE
  5
A2
330
17
100
AcDbEntity
  8
pattern
100
AcDbPolyline
 90
6
 70
1
 10
142.9260099646059
 20
-105.47914362086692
 10
140.97745280609092
 20
-104.35414362086692
 10
139.02889564757595
 20
-105.47914362086692
 10
139.02889564757592
 20
-107.72914362086692
 10
140.97745280609092
 20
-108.85414362086692
 10
142.92600996460592
 20
-107.72914362086692
  0
LWPOLYLINE
  5
A3
330
17
100
AcDbEntity
  8
pattern
100
AcDbPolyline
 90
6
 70
1
 10
147.82312428163584
 20
-105.47914362086692
 10
145.87456712312087
 20
-104.35414362086692
 10
143.9260099646059
 20
-105.47914362086692
 10
143.92600996460587
 20
-107.72914362086692
 10
145.87456712312087
 20
-108.85414362086692
 10
147.82312428163587
 20
-107.72914362086692
  0
LWPOLYLINE
  5
A4
330
17
100
AcDbEntity
  8
pattern
100
AcDbPolyline
 90
6
 70
1
 10
152.72023859866584
 20
-105.47914362086692
 10
150.77168144015087
 20
-104.35414362086692
 10
148.8231242816359
 20
-105.47914362086692
 10
148.82312428163587
 20
-107.72914362086692
 10
150.77168144015087
 20
-108.85414362086692
 10
152.72023859866587
 20
-107.72914362086692
  0
LWPOLYLINE
  5
A5
330
17
100
AcDbEntity
  8
pattern
100
AcDbPolyline
 90
6
 70
1
 10
157.6173529156958
 20
-105.47914362086692
 10
155.66879575718082
 20
-104.35414362086692
 10
153.72023859866584
 20
-105.47914362086692
 10
153.72023859866582
 20
-107.72914362086692
 10
155.66879575718082
 20
-108.85414362086692
 10
157.61735291569582
 20
-107.72914362086692
  0
LWPOLYLINE
  5
A6
330
17
100
AcDbEntity
  8
pattern
100
AcDbPolyline
 90
6
 70
1
 10
162.5144672327258
 20
-105.47914362086692
 10
160.56591007421082
 20
-104.35414362086692
 10
158.61735291569585
 20
-105.47914362086692
 10
158.61735291569582
 20
-107.72914362086692
 10
160.56591007421082
 20
-108.85414362086692
 10
162.51446723272582
 20
-107.72914362086692
  0
LWPOLYLINE
  5
A7
330
17
100
AcDbEntity
  8
pattern
100
AcDbPolyline
 90
5
 70
1
 10
164.3842184490179
 20
-107.3771881603048
 10
164.90470676121228
 20
-108.53179878687666
 10
163.51446723272576
 20
-107.72914362086692
 10
163.5144672327258
 20
-105.47914362086692
 10
163.7077688189543
 20
-105.36754089802311
  0
LWPOLYLINE
  5
A8
330
17
100
AcDbEntity
  8
pattern
100
AcDbPolyline
 90
5
 70
1
 10
127.31814992620603
 20
-100.93094473875257
 10
128.73466701351597
 20
-100.11311821708247
 10
130.68322417203098
 20
-101.23811821708247
 10
130.68322417203098
 20
-103.48811821708247
 10
128.75170326534405
 20
-104.60328233250355
  0
LWPOLYLINE
  5
A9
330
17
100
AcDbEntity
  8
pattern
100
AcDbPolyline
 90
6
 70
1
 10
135.58033848906092
 20
-101.23811821708247
 10
133.63178133054595
 20
-100.11311821708247
 10
131.68322417203098
 20
-101.23811821708247
 10
131.68322417203095
 20
-103.48811821708247
 10
133.63178133054595
 20
-104.61311821708247
 10
135.58033848906095
 20
-103.48811821708247
  0
LWPOLYLINE
  5
AA
330
17
100
AcDbEntity
  8
pattern
100
AcDbPolyline
 90
6
 70
1
 10
140.47745280609087
 20
-101.23811821708247
 10
138.5288956475759
 20
-100.11311821708247
 10
136.58033848906092
 20
-101.23811821708247
 10
136.5803384890609
 20
-103.48811821708247
 10
138.5288956475759
 20
-104.61311821708247
 10
140.4774528060909
 20
-103.48811821708247
  0
LWPOLYLINE
  5
AB
330
17
100
AcDbEntity
  8
pattern
100
AcDbPolyline
 90
6
 70
1
 10
145.37456712312087
 20
-101.23811821708247
 10
143.4260099646059
 20
-100.11311821708247
 10
141.47745280609092
 20
-101.23811821708247
 10
141.4774528060909
 20
-103.48811821708247
 10
143.4260099646059
 20
-104.61311821708247
 10
145.3745671231209
 20
-103.48811821708247
  0
LWPOLYLINE
  5
AC
330
17
100
AcDbEntity
  8
pattern
100
AcDbPolyline
 90
6
 70
1
 10
150.27168144015081
 20
-101.23811821708247
 10
148.32312428163584
 20
-100.11311821708247
 10
146.37456712312087
 20
-101.23811821708247
 10
146.37456712312084
 20
-103.48811821708247
 10
148.32312428163584
 20
-104.61311821708247
 10
150.27168144015084
 20
-103.48811821708247
  0
LWPOLYLINE
  5
AD
330
17
100
AcDbEntity
  8
pattern
100
AcDbPolyline
 90
6
 70
1
 10
155.16879575718082
 20
-101.23811821708247
 10
153.22023859866584
 20
-100.11311821708247
 10
151.27168144015087
 20
-101.23811821708247
 10
151.27168144015084
 20
-103.48811821708247
 10
153.22023859866584
 20
-104.61311821708247
 10
155.16879575718085
 20
-103.48811821708247
  0
LWPOLYLINE
  5
AE
330
17
100
AcDbEntity
  8
pattern
100
AcDbPolyline
 90
6
 70
1
 10
160.06591007421076
 20
-101.23811821708247
 10
158.1173529156958
 20
-100.11311821708247
 10
156.16879575718082
 20
-101.23811821708247
 10
156.1687957571808
 20
-103.48811821708247
 10
158.1173529156958
 20
-104.61311821708247
 10
160.0659100742108
 20
-103.48811821708247
  0
LWPOLYLINE
  5
AF
330
17
100
AcDbEntity
  8
pattern
100
AcDbPolyline
 90
7
 70
1
 10
162.5617725116461
 20
-100.99770737049943
 10
163.31600826592395
 20
-104.20366928382276
 10
163.3823383667197
 20
-104.400727718844
 10
163.0144672327258
 20
-104.61311821708247
 10
161.0659100742108
 20
-103.48811821708247
 10
161.06591007421082
 20
-101.23811821708247
 10
162.49597929233565
 20
-100.4124673690383
  0
LWPOLYLINE
  5
B0
330
17
100
AcDbEntity
  8
pattern
100
AcDbPolyline
 90
6
 70
1
 10
125.42859864692645
 20
-97.640255243826
 10
124.7614435420224
 20
-96.75235931952058
 10
126.28610985500099
 20
-95.87209281329804
 10
128.23466701351597
 20
-96.99709281329804
 10
128.23466701351597
 20
-99.24709281329804
 10
126.85876176067838
 20
-100.04147208140324
  0
LWPOLYLINE
  5
B1
330
17
100
AcDbEntity
  8
pattern
100
AcDbPolyline
 90
6
 70
1
 10
133.13178133054595
 20
-96.99709281329804
 10
131.18322417203098
 20
-95.87209281329804
 10
129.234667013516
 20
-96.99709281329804
 10
129.23466701351597
 20
-99.24709281329804
 10
131.18322417203098
 20
-100.37209281329804
 10
133.13178133054598
 20
-99.24709281329804
  0
LWPOLYLINE
  5
B2
330
17
100
AcDbEntity
  8
pattern
100
AcDbPolyline
 90
6
 70
1
 10
138.0288956475759
 20
-96.99709281329804
 10
136.08033848906092
 20
-95.87209281329804
 10
134.13178133054595
 20
-96.99709281329804
 10
134.13178133054592
 20
-99.24709281329804
 10
136.08033848906092
 20
-100.37209281329804
 10
138.02889564757592
 20
-99.24709281329804
  0
LWPOLYLINE
  5
B3
330
17
100
AcDbEntity
  8
pattern
100
AcDbPolyline
 90
6
 70
1
 10
142.9260099646059
 20
-96.99709281329804
 10
140.97745280609092
 20
-95.87209281329804
 10
139.02889564757595
 20
-96.99709281329804
 10
139.02889564757592
 20
-99.24709281329804
 10
140.97745280609092
 20
-100.37209281329804
 10
142.92600996460592
 20
-99.24709281329804
  0
LWPOLYLINE
  5
B4
330
17
100
AcDbEntity
  8
pattern
100
AcDbPolyline
 90
6
 70
1
 10
147.82312428163584
 20
-96.99709281329804
 10
145.87456712312087
 20
-95.87209281329804
 10
143.9260099646059
 20
-96.99709281329804
 10
143.92600996460587
 20
-99.24709281329804
 10
145.87456712312087
 20
-100.37209281329804
 10
147.82312428163587
 20
-99.24709281329804
  0
LWPOLYLINE
  5
B5
330
17
100
AcDbEntity
  8
pattern
100
AcDbPolyline
 90
6
 70
1
 10
152.72023859866584
 20
-96.99709281329804
 10
150.77168144015087
 20
-95.87209281329804
 10
148.8231242816359
 20
-96.99709281329804
 10
148.82312428163587
 20
-99.24709281329804
 10
150.77168144015087
 20
-100.37209281329804
 10
152.72023859866587
 20
-99.24709281329804
  0
LWPOLYLINE
  5
B6
330
17
100
AcDbEntity
  8
pattern
100
AcDbPolyline
 90
6
 70
1
 10
157.6173529156958
 20
-96.99709281329804
 10
155.66879575718082
 20
-95.87209281329804
 10
153.72023859866584
 20
-96.99709281329804
 10
153.72023859866582
 20
-99.24709281329804
 10
155.66879575718082
 20
-100.37209281329804
 10
157.61735291569582
 20
-99.24709281329804
  0
LWPOLYLINE
  5
B7
330
17
100
AcDbEntity
  8
pattern
100
AcDbPolyline
 90
7
 70
1
 10
162.20114432483348
 20
-97.78986858727615
 10
162.37407889321332
 20
-99.32814605890667
 10
160.56591007421082
 20
-100.37209281329804
 10
158.61735291569582
 20
-99.24709281329804
 10
158.61735291569585
 20
-96.99709281329804
 10
160.56591007421082
 20
-95.87209281329804
 10
162.19621987302477
 20
-96.81335261450576
  0
LWPOLYLINE
  5
B8
330
17
100
AcDbEntity
  8
pattern
100
AcDbPolyline
 90
6
 70
1
 10
120.6664297056787
 20
-92.86844758543208
 10
119.14857382051439
 20
-91.98765935382991
 10
118.68180999248509
 20
-91.78038657835135
 10
118.94043837945603
 20
-91.6310674095136
 10
120.88899553797101
 20
-92.7560674095136
 10
120.88899553797101
 20
-93.03335407368851
  0
LWPOLYLINE
  5
B9
330
17
100
AcDbEntity
  8
pattern
100
AcDbPolyline
 90
8
 70
1
 10
123.28654765477351
 20
-95.03140608294646
 10
122.0419111914397
 20
-93.88758794108502
 10
121.88899553797101
 20
-93.77428760583932
 10
121.88899553797101
 20
-92.7560674095136
 10
123.837552696486
 20
-91.6310674095136
 10
125.78610985500099
 20
-92.7560674095136
 10
125.78610985500099
 20
-95.0060674095136
 10
124.1239017667983
 20
-95.9657436966866
  0
LWPOLYLINE
  5
BA
330
17
100
AcDbEntity
  8
pattern
100
AcDbPolyline
 90
6
 70
1
 10
130.68322417203098
 20
-92.7560674095136
 10
128.73466701351597
 20
-91.6310674095136
 10
126.78610985500099
 20
-92.7560674095136
 10
126.78610985500099
 20
-95.0060674095136
 10
128.73466701351597
 20
-96.1310674095136
 10
130.68322417203098
 20
-95.0060674095136
  0
LWPOLYLINE
  5
BB
330
17
100
AcDbEntity
  8
pattern
100
AcDbPolyline
 90
6
 70
1
 10
135.58033848906092
 20
-92.7560674095136
 10
133.63178133054595
 20
-91.6310674095136
 10
131.68322417203098
 20
-92.7560674095136
 10
131.68322417203095
 20
-95.0060674095136
 10
133.63178133054595
 20
-96.1310674095136
 10
135.58033848906095
 20
-95.0060674095136
  0
LWPOLYLINE
  5
BC
330
17
100
AcDbEntity
  8
pattern
100
AcDbPolyline
 90
6
 70
1
 10
140.47745280609087
 20
-92.7560674095136
 10
138.5288956475759
 20
-91.6310674095136
 10
136.58033848906092
 20
-92.7560674095136
 10
136.5803384890609
 20
-95.0060674095136
 10
138.5288956475759
 20
-96.1310674095136
 10
140.4774528060909
 20
-95.0060674095136
  0
LWPOLYLINE
  5
BD
330
17
100
AcDbEntity
  8
pattern
100
AcDbPolyline
 90
6
 70
1
 10
145.37456712312087
 20
-92.7560674095136
 10
143.4260099646059
 20
-91.6310674095136
 10
141.47745280609092
 20
-92.7560674095136
 10
141.4774528060909
 20
-95.0060674095136
 10
143.4260099646059
 20
-96.1310674095136
 10
145.3745671231209
 20
-95.0060674095136
  0
LWPOLYLINE
  5
BE
330
17
100
AcDbEntity
  8
pattern
100
AcDbPolyline
 90
6
 70
1
 10
150.27168144015081
 20
-92.7560674095136
 10
148.32312428163584
 20
-91.6310674095136
 10
146.37456712312087
 20
-92.7560674095136
 10
146.37456712312084
 20
-95.0060674095136
 10
148.32312428163584
 20
-96.1310674095136
 10
150.27168144015084
 20
-95.0060674095136
  0
LWPOLYLINE
  5
BF
330
17
100
AcDbEntity
  8
pattern
100
AcDbPolyline
 90
6
 70
1
 10
155.16879575718082
 20
-92.7560674095136
 10
153.22023859866584
 20
-91.6310674095136
 10
151.27168144015087
 20
-92.7560674095136
 10
151.27168144015084
 20
-95.0060674095136
 10
153.22023859866584
 20
-96.1310674095136
 10
155.16879575718085
 20
-95.0060674095136
  0
LWPOLYLINE
  5
C0
330
17
100
AcDbEntity
  8
pattern
100
AcDbPolyline
 90
6
 70
1
 10
160.06591007421076
 20
-92.7560674095136
 10
158.1173529156958
 20
-91.6310674095136
 10
156.16879575718082
 20
-92.7560674095136
 10
156.1687957571808
 20
-95.0060674095136
 10
158.1173529156958
 20
-96.1310674095136
 10
160.0659100742108
 20
-95.0060674095136
  0
LWPOLYLINE
  5
C1
330
17
100
AcDbEntity
  8
pattern
100
AcDbPolyline
 90
7
 70
1
 10
162.87467444027823
 20
-91.73723128432711
 10
162.54300375842905
 20
-93.14220246654794
 10
162.3129524689977
 20
-94.61071910109439
 10
162.2320982457007
 20
-95.67936646424906
 10
161.0659100742108
 20
-95.0060674095136
 10
161.06591007421082
 20
-92.7560674095136
 10
162.88469894609838
 20
-91.70598916473021
  0
LWPOLYLINE
  5
C2
330
17
100
AcDbEntity
  8
pattern
100
AcDbPolyline
 90
6
 70
1
 10
102.94872666881979
 20
-88.27145695200153
 10
102.2609859259393
 20
-88.017275142699
 10
101.61560894032006
 20
-87.68158355488592
 10
101.46988877518488
 20
-87.58094258048212
 10
101.80053826985112
 20
-87.39004200572916
 10
103.5804410464824
 20
-88.4176693529486
  0
LWPOLYLINE
  5
C3
330
17
100
AcDbEntity
  8
pattern
100
AcDbPolyline
 90
5
 70
1
 10
104.7490954283661
 20
-88.602399011154
 10
104.7490954283661
 20
-88.51504200572916
 10
106.69765258688109
 20
-87.39004200572916
 10
108.64620974539608
 20
-88.51504200572916
 10
108.64620974539608
 20
-89.19422496061898
  0
LWPOLYLINE
  5
C4
330
17
100
AcDbEntity
  8
pattern
100
AcDbPolyline
 90
6
 70
1
 10
111.56546127074978
 20
-89.63755011486703
 10
109.64620974539608
 20
-89.34608757005766
 10
109.64620974539608
 20
-88.51504200572916
 10
111.59476690391107
 20
-87.39004200572916
 10
113.54332406242605
 20
-88.51504200572916
 10
113.54332406242605
 20
-90.09891416457731
  0
LWPOLYLINE
  5
C5
330
17
100
AcDbEntity
  8
pattern
100
AcDbPolyline
 90
8
 70
1
 10
117.34382413617574
 20
-91.18623590656692
 10
115.46668068942863
 20
-90.54756389205357
 10
114.54332406242605
 20
-90.33217809554962
 10
114.54332406242605
 20
-88.51504200572916
 10
116.49188122094104
 20
-87.39004200572916
 10
118.44043837945603
 20
-88.51504200572916
 10
118.44043837945603
 20
-90.76504200572916
 10
117.55131754946375
 20
-91.2783761562673
  0
LWPOLYLINE
  5
C6
330
17
100
AcDbEntity
  8
pattern
100
AcDbPolyline
 90
6
 70
1
 10
123.337552696486
 20
-88.51504200572916
 10
121.38899553797101
 20
-87.39004200572916
 10
119.44043837945603
 20
-88.51504200572916
 10
119.44043837945603
 20
-90.76504200572916
 10
121.38899553797101
 20
-91.89004200572916
 10
123.337552696486
 20
-90.76504200572916
  0
LWPOLYLINE
  5
C7
330
17
100
AcDbEntity
  8
pattern
100
AcDbPolyline
 90
6
 70
1
 10
128.23466701351597
 20
-88.51504200572916
 10
126.28610985500099
 20
-87.39004200572916
 10
124.337552696486
 20
-88.51504200572916
 10
124.337552696486
 20
-90.76504200572916
 10
126.28610985500099
 20
-91.89004200572916
 10
128.23466701351597
 20
-90.76504200572916
  0
LWPOLYLINE
  5
C8
330
17
100
AcDbEntity
  8
pattern
100
AcDbPolyline
 90
6
 70
1
 10
133.13178133054595
 20
-88.51504200572916
 10
131.18322417203098
 20
-87.39004200572916
 10
129.234667013516
 20
-88.51504200572916
 10
129.23466701351597
 20
-90.76504200572916
 10
131.18322417203098
 20
-91.89004200572916
 10
133.13178133054598
 20
-90.76504200572916
  0
LWPOLYLINE
  5
C9
330
17
100
AcDbEntity
  8
pattern
100
AcDbPolyline
 90
6
 70
1
 10
138.0288956475759
 20
-88.51504200572916
 10
136.08033848906092
 20
-87.39004200572916
 10
134.13178133054595
 20
-88.51504200572916
 10
134.13178133054592
 20
-90.76504200572916
 10
136.08033848906092
 20
-91.89004200572916
 10
138.02889564757592
 20
-90.76504200572916
  0
LWPOLYLINE
  5
CA
330
17
100
AcDbEntity
  8
pattern
100
AcDbPolyline
 90
6
 70
1
 10
142.9260099646059
 20
-88.51504200572916
 10
140.97745280609092
 20
-87.39004200572916
 10
139.02889564757595
 20
-88.51504200572916
 10
139.02889564757592
 20
-90.76504200572916
 10
140.97745280609092
 20
-91.89004200572916
 10
142.92600996460592
 20
-90.76504200572916
  0
LWPOLYLINE
  5
CB
330
17
100
AcDbEntity
  8
pattern
100
AcDbPolyline
 90
6
 70
1
 10
147.82312428163584
 20
-88.51504200572916
 10
145.87456712312087
 20
-87.39004200572916
 10
143.9260099646059
 20
-88.51504200572916
 10
143.92600996460587
 20
-90.76504200572916
 10
145.87456712312087
 20
-91.89004200572916
 10
147.82312428163587
 20
-90.76504200572916
  0
LWPOLYLINE
  5
CC
330
17
100
AcDbEntity
  8
pattern
100
AcDbPolyline
 90
6
 70
1
 10
152.72023859866584
 20
-88.51504200572916
 10
150.77168144015087
 20
-87.39004200572916
 10
148.8231242816359
 20
-88.51504200572916
 10
148.82312428163587
 20
-90.76504200572916
 10
150.77168144015087
 20
-91.89004200572916
 10
152.72023859866587
 20
-90.76504200572916
  0
LWPOLYLINE
  5
CD
330
17
100
AcDbEntity
  8
pattern
100
AcDbPolyline
 90
6
 70
1
 10
157.6173529156958
 20
-88.51504200572916
 10
155.66879575718082
 20
-87.39004200572916
 10
153.72023859866584
 20
-88.51504200572916
 10
153.72023859866582
 20
-90.76504200572916
 10
155.66879575718082
 20
-91.89004200572916
 10
157.61735291569582
 20
-90.76504200572916
  0
LWPOLYLINE
  5
CE
330
17
100
AcDbEntity
  8
pattern
100
AcDbPolyline
 90
6
 70
1
 10
162.5144672327258
 20
-88.51504200572916
 10
160.56591007421082
 20
-87.39004200572916
 10
158.61735291569585
 20
-88.51504200572916
 10
158.61735291569582
 20
-90.76504200572916
 10
160.56591007421082
 20
-91.89004200572916
 10
162.51446723272582
 20
-90.76504200572916
  0
LWPOLYLINE
  5
CF
330
17
100
AcDbEntity
  8
pattern
100
AcDbPolyline
 90
4
 70
1
 10
163.8300039790241
 20
-89.12194714093363
 10
163.51446723272576
 20
-89.88783427440089
 10
163.5144672327258
 20
-88.51504200572916
 10
164.40141912179024
 20
-88.00296009381954
  0
LWPOLYLINE
  5
D0
330
17
100
AcDbEntity
  8
pattern
100
AcDbPolyline
 90
13
 70
1
 10
59.461793590049865
 20
-84.91025108552827
 10
59.29475168641846
 20
-84.88558365255797
 10
59.132804158660235
 20
-84.84590126038837
 10
58.97648725686713
 20
-84.79227640610516
 10
58.82687348122295
 20
-84.7252453382511
 10
58.684499081819624
 20
-84.6453443053691
 10
58.55043655884098
 20
-84.55337768027334
 10
58.425222162378894
 20
-84.45014983577808
 10
58.309660267571296
 20
-84.33619702042621
 10
58.246800797156354
 20
-84.26230136790751
 10
60.17506657509634
 20
-83.14901660194472
 10
62.123623733611325
 20
-84.27401660194472
 10
62.123623733611325
 20
-84.93172454797333
  0
LWPOLYLINE
  5
D1
330
17
100
AcDbEntity
  8
pattern
100
AcDbPolyline
 90
5
 70
1
 10
63.123623733611325
 20
-84.93979172780335
 10
63.123623733611325
 20
-84.27401660194472
 10
65.07218089212631
 20
-83.14901660194472
 10
67.0207380506413
 20
-84.27401660194472
 10
67.0207380506413
 20
-84.97123044981694
  0
LWPOLYLINE
  5
D2
330
17
100
AcDbEntity
  8
pattern
100
AcDbPolyline
 90
5
 70
1
 10
68.0207380506413
 20
-84.97929762964696
 10
68.0207380506413
 20
-84.27401660194472
 10
69.96929520915629
 20
-83.14901660194472
 10
71.91785236767127
 20
-84.27401660194472
 10
71.91785236767127
 20
-85.01073635166055
  0
LWPOLYLINE
  5
D3
330
17
100
AcDbEntity
  8
pattern
100
AcDbPolyline
 90
5
 70
1
 10
72.91785236767127
 20
-85.01880353149058
 10
72.91785236767127
 20
-84.27401660194472
 10
74.86640952618626
 20
-83.14901660194472
 10
76.81496668470125
 20
-84.27401660194472
 10
76.81496668470125
 20
-85.05024225350417
  0
LWPOLYLINE
  5
D4
330
17
100
AcDbEntity
  8
pattern
100
AcDbPolyline
 90
5
 70
1
 10
77.81496668470125
 20
-85.05830943333419
 10
77.81496668470125
 20
-84.27401660194472
 10
79.76352384321623
 20
-83.14901660194472
 10
81.71208100173122
 20
-84.27401660194472
 10
81.71208100173122
 20
-85.08974815534778
  0
LWPOLYLINE
  5
D5
330
17
100
AcDbEntity
  8
pattern
100
AcDbPolyline
 90
6
 70
1
 10
85.67316183274437
 20
-84.65875051893988
 10
86.01770251679952
 20
-85.12448237838981
 10
82.71208100173122
 20
-85.0978153351778
 10
82.71208100173122
 20
-84.27401660194472
 10
84.66063816024621
 20
-83.14901660194472
 10
84.88304119589101
 20
-83.27742105444284
  0
LWPOLYLINE
  5
D6
330
17
100
AcDbEntity
  8
pattern
100
AcDbPolyline
 90
9
 70
1
 10
100.47929499555299
 20
-86.78685286117013
 10
100.00230053879494
 20
-86.23827060185259
 10
99.59528671903176
 20
-85.62909225719503
 10
99.26522478745832
 20
-84.9646803126257
 10
98.86316275039354
 20
-83.43123601421976
 10
99.35198111133613
 20
-83.14901660194472
 10
101.30053826985112
 20
-84.27401660194472
 10
101.30053826985112
 20
-86.52401660194472
 10
100.6228873364276
 20
-86.9152585507734
  0
LWPOLYLINE
  5
D7
330
17
100
AcDbEntity
  8
pattern
100
AcDbPolyline
 90
6
 70
1
 10
106.19765258688109
 20
-84.27401660194472
 10
104.2490954283661
 20
-83.14901660194472
 10
102.30053826985112
 20
-84.27401660194472
 10
102.30053826985112
 20
-86.52401660194472
 10
104.2490954283661
 20
-87.64901660194472
 10
106.19765258688109
 20
-86.52401660194472
  0
LWPOLYLINE
  5
D8
330
17
100
AcDbEntity
  8
pattern
100
AcDbPolyline
 90
6
 70
1
 10
111.09476690391107
 20
-84.27401660194472
 10
109.14620974539608
 20
-83.14901660194472
 10
107.19765258688109
 20
-84.27401660194472
 10
107.19765258688109
 20
-86.52401660194472
 10
109.14620974539608
 20
-87.64901660194472
 10
111.09476690391107
 20
-86.52401660194472
  0
LWPOLYLINE
  5
D9
330
17
100
AcDbEntity
  8
pattern
100
AcDbPolyline
 90
6
 70
1
 10
115.99188122094104
 20
-84.27401660194472
 10
114.04332406242605
 20
-83.14901660194472
 10
112.09476690391107
 20
-84.27401660194472
 10
112.09476690391107
 20
-86.52401660194472
 10
114.04332406242605
 20
-87.64901660194472
 10
115.99188122094104
 20
-86.52401660194472
  0
LWPOLYLINE
  5
DA
330
17
100
AcDbEntity
  8
pattern
100
AcDbPolyline
 90
6
 70
1
 10
120.88899553797101
 20
-84.27401660194472
 10
118.94043837945603
 20
-83.14901660194472
 10
116.99188122094104
 20
-84.27401660194472
 10
116.99188122094104
 20
-86.52401660194472
 10
118.94043837945603
 20
-87.64901660194472
 10
120.88899553797101
 20
-86.52401660194472
  0
LWPOLYLINE
  5
DB
330
17
100
AcDbEntity
  8
pattern
100
AcDbPolyline
 90
10
 70
1
 10
122.01107681115468
 20
-84.49412221629025
 10
122.17463308918863
 20
-84.57026950937244
 10
122.3462331186013
 20
-84.63032934616966
 10
122.52480439920888
 20
-84.67376547813907
 10
122.7092744308275
 20
-84.69923728392362
 10
125.78610985500099
 20
-84.71398349549132
 10
125.78610985500099
 20
-86.52401660194472
 10
123.837552696486
 20
-87.64901660194472
 10
121.88899553797101
 20
-86.52401660194472
 10
121.88899553797101
 20
-84.42218545203018
  0
LWPOLYLINE
  5
DC
330
17
100
AcDbEntity
  8
pattern
100
AcDbPolyline
 90
5
 70
1
 10
130.68322417203098
 20
-84.73745367632152
 10
130.68322417203098
 20
-86.52401660194472
 10
128.73466701351597
 20
-87.64901660194472
 10
126.78610985500099
 20
-86.52401660194472
 10
126.78610985500099
 20
-84.71877615077987
  0
LWPOLYLINE
  5
DD
330
17
100
AcDbEntity
  8
pattern
100
AcDbPolyline
 90
5
 70
1
 10
135.58033848906092
 20
-84.76092385715172
 10
135.58033848906095
 20
-86.52401660194472
 10
133.63178133054595
 20
-87.64901660194472
 10
131.68322417203095
 20
-86.52401660194472
 10
131.68322417203098
 20
-84.74224633161008
  0
LWPOLYLINE
  5
DE
330
17
100
AcDbEntity
  8
pattern
100
AcDbPolyline
 90
22
 70
1
 10
136.69548120309855
 20
-84.76626835177765
 10
136.88477748554442
 20
-84.75366651102108
 10
137.06844314202516
 20
-84.72256409553682
 10
137.24540567235698
 20
-84.67376547813907
 10
137.41512882644798
 20
-84.60834315591352
 10
137.57627197906828
 20
-84.52736962594581
 10
137.72803075508014
 20
-84.43164926105024
 10
137.8696007793456
 20
-84.32225455831242
 10
137.9999095516809
 20
-84.19998989054663
 10
138.11815269694804
 20
-84.06592775483855
 10
138.22325771496332
 20
-83.9211406482738
 10
138.31442023058878
 20
-83.76643294366666
 10
138.3905677436407
 20
-83.60287713810277
 10
138.45062775393512
 20
-83.43127760439644
 10
138.49379588633423
 20
-83.25270683963323
 10
138.506313322164
 20
-83.1620545136002
 10
138.5288956475759
 20
-83.14901660194472
 10
140.47745280609087
 20
-84.27401660194472
 10
140.4774528060909
 20
-86.52401660194472
 10
138.5288956475759
 20
-87.64901660194472
 10
136.5803384890609
 20
-86.52401660194472
 10
136.58033848906092
 20
-84.76571651244028
  0
LWPOLYLINE
  5
DF
330
17
100
AcDbEntity
  8
pattern
100
AcDbPolyline
 90
6
 70
1
 10
145.37456712312087
 20
-84.27401660194472
 10
143.4260099646059
 20
-83.14901660194472
 10
141.47745280609092
 20
-84.27401660194472
 10
141.4774528060909
 20
-86.52401660194472
 10
143.4260099646059
 20
-87.64901660194472
 10
145.3745671231209
 20
-86.52401660194472
  0
LWPOLYLINE
  5
E0
330
17
100
AcDbEntity
  8
pattern
100
AcDbPolyline
 90
6
 70
1
 10
150.27168144015081
 20
-84.27401660194472
 10
148.32312428163584
 20
-83.14901660194472
 10
146.37456712312087
 20
-84.27401660194472
 10
146.37456712312084
 20
-86.52401660194472
 10
148.32312428163584
 20
-87.64901660194472
 10
150.27168144015084
 20
-86.52401660194472
  0
LWPOLYLINE
  5
E1
330
17
100
AcDbEntity
  8
pattern
100
AcDbPolyline
 90
6
 70
1
 10
155.16879575718082
 20
-84.27401660194472
 10
153.22023859866584
 20
-83.14901660194472
 10
151.27168144015087
 20
-84.27401660194472
 10
151.27168144015084
 20
-86.52401660194472
 10
153.22023859866584
 20
-87.64901660194472
 10
155.16879575718085
 20
-86.52401660194472
  0
LWPOLYLINE
  5
E2
330
17
100
AcDbEntity
  8
pattern
100
AcDbPolyline
 90
6
 70
1
 10
160.06591007421076
 20
-84.27401660194472
 10
158.1173529156958
 20
-83.14901660194472
 10
156.16879575718082
 20
-84.27401660194472
 10
156.1687957571808
 20
-86.52401660194472
 10
158.1173529156958
 20
-87.64901660194472
 10
160.0659100742108
 20
-86.52401660194472
  0
LWPOLYLINE
  5
E3
330
17
100
AcDbEntity
  8
pattern
100
AcDbPolyline
 90
6
 70
1
 10
164.96302439124076
 20
-84.27401660194472
 10
163.0144672327258
 20
-83.14901660194472
 10
161.06591007421082
 20
-84.27401660194472
 10
161.0659100742108
 20
-86.52401660194472
 10
163.0144672327258
 20
-87.64901660194472
 10
164.9630243912408
 20
-86.52401660194472
  0
LWPOLYLINE
  5
E4
330
17
100
AcDbEntity
  8
pattern
100
AcDbPolyline
 90
6
 70
1
 10
167.7671521538612
 20
-83.76884606210942
 10
166.8158444908047
 20
-84.69977353246644
 10
165.96302439124074
 20
-85.67861429685401
 10
165.96302439124076
 20
-84.27401660194472
 10
167.91158154975574
 20
-83.14901660194472
 10
168.26435691575864
 20
-83.35269155446997
  0
LWPOLYLINE
  5
E5
330
17
100
AcDbEntity
  8
pattern
100
AcDbPolyline
 90
5
 70
1
 10
57.37645498818286
 20
-79.11009521662717
 10
57.72650941658135
 20
-78.90799119816029
 10
59.67506657509634
 20
-80.03299119816029
 10
59.67506657509634
 20
-82.28299119816029
 10
57.84658725849342
 20
-83.33866422380865
  0
LWPOLYLINE
  5
E6
330
17
100
AcDbEntity
  8
pattern
100
AcDbPolyline
 90
6
 70
1
 10
64.57218089212631
 20
-80.03299119816029
 10
62.623623733611325
 20
-78.90799119816029
 10
60.67506657509634
 20
-80.03299119816029
 10
60.67506657509634
 20
-82.28299119816029
 10
62.623623733611325
 20
-83.40799119816029
 10
64.57218089212631
 20
-82.28299119816029
  0
LWPOLYLINE
  5
E7
330
17
100
AcDbEntity
  8
pattern
100
AcDbPolyline
 90
6
 70
1
 10
69.46929520915629
 20
-80.03299119816029
 10
67.5207380506413
 20
-78.90799119816029
 10
65.57218089212631
 20
-80.03299119816029
 10
65.57218089212631
 20
-82.28299119816029
 10
67.5207380506413
 20
-83.40799119816029
 10
69.46929520915629
 20
-82.28299119816029
  0
LWPOLYLINE
  5
E8
330
17
100
AcDbEntity
  8
pattern
100
AcDbPolyline
 90
6
 70
1
 10
74.36640952618626
 20
-80.03299119816029
 10
72.41785236767127
 20
-78.90799119816029
 10
70.46929520915629
 20
-80.03299119816029
 10
70.46929520915629
 20
-82.28299119816029
 10
72.41785236767127
 20
-83.40799119816029
 10
74.36640952618626
 20
-82.28299119816029
  0
LWPOLYLINE
  5
E9
330
17
100
AcDbEntity
  8
pattern
100
AcDbPolyline
 90
6
 70
1
 10
79.26352384321623
 20
-80.03299119816029
 10
77.31496668470125
 20
-78.90799119816029
 10
75.36640952618626
 20
-80.03299119816029
 10
75.36640952618626
 20
-82.28299119816029
 10
77.31496668470125
 20
-83.40799119816029
 10
79.26352384321623
 20
-82.28299119816029
  0
LWPOLYLINE
  5
EA
330
17
100
AcDbEntity
  8
pattern
100
AcDbPolyline
 90
8
 70
1
 10
83.93544340989503
 20
-80.86854581820063
 10
84.16063816024621
 20
-81.511657047821
 10
84.16063816024621
 20
-82.28299119816029
 10
82.21208100173122
 20
-83.40799119816029
 10
80.26352384321623
 20
-82.28299119816029
 10
80.26352384321623
 20
-80.03299119816029
 10
82.21208100173122
 20
-78.90799119816029
 10
83.64019985865093
 20
-79.73251600463766
  0
LWPOLYLINE
  5
EB
330
17
100
AcDbEntity
  8
pattern
100
AcDbPolyline
 90
4
 70
1
 10
97.81521431141346
 20
-79.43441360713807
 10
98.85198111133613
 20
-80.03299119816029
 10
98.85198111133613
 20
-82.28299119816029
 10
98.6002108674578
 20
-82.42835081623737
  0
LWPOLYLINE
  5
EC
330
17
100
AcDbEntity
  8
pattern
100
AcDbPolyline
 90
6
 70
1
 10
103.7490954283661
 20
-80.03299119816029
 10
101.80053826985112
 20
-78.90799119816029
 10
99.85198111133613
 20
-80.03299119816029
 10
99.85198111133613
 20
-82.28299119816029
 10
101.80053826985112
 20
-83.40799119816029
 10
103.7490954283661
 20
-82.28299119816029
  0
LWPOLYLINE
  5
ED
330
17
100
AcDbEntity
  8
pattern
100
AcDbPolyline
 90
6
 70
1
 10
108.64620974539608
 20
-80.03299119816029
 10
106.69765258688109
 20
-78.90799119816029
 10
104.7490954283661
 20
-80.03299119816029
 10
104.7490954283661
 20
-82.28299119816029
 10
106.69765258688109
 20
-83.40799119816029
 10
108.64620974539608
 20
-82.28299119816029
  0
LWPOLYLINE
  5
EE
330
17
100
AcDbEntity
  8
pattern
100
AcDbPolyline
 90
6
 70
1
 10
113.54332406242605
 20
-80.03299119816029
 10
111.59476690391107
 20
-78.90799119816029
 10
109.64620974539608
 20
-80.03299119816029
 10
109.64620974539608
 20
-82.28299119816029
 10
111.59476690391107
 20
-83.40799119816029
 10
113.54332406242605
 20
-82.28299119816029
  0
LWPOLYLINE
  5
EF
330
17
100
AcDbEntity
  8
pattern
100
AcDbPolyline
 90
6
 70
1
 10
118.44043837945603
 20
-80.03299119816029
 10
116.49188122094104
 20
-78.90799119816029
 10
114.54332406242605
 20
-80.03299119816029
 10
114.54332406242605
 20
-82.28299119816029
 10
116.49188122094104
 20
-83.40799119816029
 10
118.44043837945603
 20
-82.28299119816029
  0
LWPOLYLINE
  5
F0
330
17
100
AcDbEntity
  8
pattern
100
AcDbPolyline
 90
5
 70
1
 10
121.02410851698579
 20
-83.06448360109914
 10
121.04904185728702
 20
-83.21171884910538
 10
119.44043837945603
 20
-82.28299119816029
 10
119.44043837945603
 20
-80.03299119816029
 10
120.96716281879378
 20
-79.15153643213026
  0
LWPOLYLINE
  5
F1
330
17
100
AcDbEntity
  8
pattern
100
AcDbPolyline
 90
6
 70
1
 10
142.9260099646059
 20
-80.03299119816029
 10
140.97745280609092
 20
-78.90799119816029
 10
139.02889564757595
 20
-80.03299119816029
 10
139.02889564757592
 20
-82.28299119816029
 10
140.97745280609092
 20
-83.40799119816029
 10
142.92600996460592
 20
-82.28299119816029
  0
LWPOLYLINE
  5
F2
330
17
100
AcDbEntity
  8
pattern
100
AcDbPolyline
 90
6
 70
1
 10
147.82312428163584
 20
-80.03299119816029
 10
145.87456712312087
 20
-78.90799119816029
 10
143.9260099646059
 20
-80.03299119816029
 10
143.92600996460587
 20
-82.28299119816029
 10
145.87456712312087
 20
-83.40799119816029
 10
147.82312428163587
 20
-82.28299119816029
  0
LWPOLYLINE
  5
F3
330
17
100
AcDbEntity
  8
pattern
100
AcDbPolyline
 90
6
 70
1
 10
152.72023859866584
 20
-80.03299119816029
 10
150.77168144015087
 20
-78.90799119816029
 10
148.8231242816359
 20
-80.03299119816029
 10
148.82312428163587
 20
-82.28299119816029
 10
150.77168144015087
 20
-83.40799119816029
 10
152.72023859866587
 20
-82.28299119816029
  0
LWPOLYLINE
  5
F4
330
17
100
AcDbEntity
  8
pattern
100
AcDbPolyline
 90
6
 70
1
 10
157.6173529156958
 20
-80.03299119816029
 10
155.66879575718082
 20
-78.90799119816029
 10
153.72023859866584
 20
-80.03299119816029
 10
153.72023859866582
 20
-82.28299119816029
 10
155.66879575718082
 20
-83.40799119816029
 10
157.61735291569582
 20
-82.28299119816029
  0
LWPOLYLINE
  5
F5
330
17
100
AcDbEntity
  8
pattern
100
AcDbPolyline
 90
6
 70
1
 10
162.5144672327258
 20
-80.03299119816029
 10
160.56591007421082
 20
-78.90799119816029
 10
158.61735291569585
 20
-80.03299119816029
 10
158.61735291569582
 20
-82.28299119816029
 10
160.56591007421082
 20
-83.40799119816029
 10
162.51446723272582
 20
-82.28299119816029
  0
LWPOLYLINE
  5
F6
330
17
100
AcDbEntity
  8
pattern
100
AcDbPolyline
 90
6
 70
1
 10
167.41158154975574
 20
-80.03299119816029
 10
165.46302439124076
 20
-78.90799119816029
 10
163.5144672327258
 20
-80.03299119816029
 10
163.51446723272576
 20
-82.28299119816029
 10
165.46302439124076
 20
-83.40799119816029
 10
167.41158154975577
 20
-82.28299119816029
  0
LWPOLYLINE
  5
F7
330
17
100
AcDbEntity
  8
pattern
100
AcDbPolyline
 90
8
 70
1
 10
171.05919146812505
 20
-81.41203371636114
 10
169.8920431430729
 20
-82.1239036569711
 10
169.1077981897347
 20
-82.68495206266643
 10
168.41158154975577
 20
-82.28299119816029
 10
168.4115815497558
 20
-80.03299119816029
 10
170.36013870827077
 20
-78.90799119816029
 10
172.30869586678574
 20
-80.03299119816029
 10
172.30869586678574
 20
-80.8200323343914
  0
LWPOLYLINE
  5
F8
330
17
100
AcDbEntity
  8
pattern
100
AcDbPolyline
 90
5
 70
1
 10
173.58600190122667
 20
-80.21485884448786
 10
173.30869586678574
 20
-80.34624338046352
 10
173.30869586678574
 20
-80.03299119816029
 10
175.2572530253007
 20
-78.90799119816029
 10
176.1155286183412
 20
-79.40351684284109
  0
LWPOLYLINE
  5
F9
330
17
100
AcDbEntity
  8
pattern
100
AcDbPolyline
 90
9
 70
1
 10
58.27480401159682
 20
-77.38078529561886
 10
58.41610591081632
 20
-77.34271164907776
 10
58.563306561046886
 20
-77.31965296173597
 10
58.71560158715064
 20
-77.31268173067915
 10
62.123623733611325
 20
-77.33889491530054
 10
62.123623733611325
 20
-78.04196579437584
 10
60.17506657509634
 20
-79.16696579437584
 10
58.22650941658135
 20
-78.04196579437584
 10
58.22650941658135
 20
-77.39950779825018
  0
LWPOLYLINE
  5
FA
330
17
100
AcDbEntity
  8
pattern
100
AcDbPolyline
 90
5
 70
1
 10
67.0207380506413
 20
-77.3765616193851
 10
67.0207380506413
 20
-78.04196579437584
 10
65.07218089212631
 20
-79.16696579437584
 10
63.123623733611325
 20
-78.04196579437584
 10
63.123623733611325
 20
-77.34658652747173
  0
LWPOLYLINE
  5
FB
330
17
100
AcDbEntity
  8
pattern
100
AcDbPolyline
 90
5
 70
1
 10
71.91785236767127
 20
-77.41422832346966
 10
71.91785236767127
 20
-78.04196579437584
 10
69.96929520915629
 20
-79.16696579437584
 10
68.0207380506413
 20
-78.04196579437584
 10
68.0207380506413
 20
-77.38425323155629
  0
LWPOLYLINE
  5
FC
330
17
100
AcDbEntity
  8
pattern
100
AcDbPolyline
 90
5
 70
1
 10
76.81496668470125
 20
-77.45189502755422
 10
76.81496668470125
 20
-78.04196579437584
 10
74.86640952618626
 20
-79.16696579437584
 10
72.91785236767127
 20
-78.04196579437584
 10
72.91785236767127
 20
-77.42191993564084
  0
LWPOLYLINE
  5
FD
330
17
100
AcDbEntity
  8
pattern
100
AcDbPolyline
 90
5
 70
1
 10
81.71208100173122
 20
-77.48956173163879
 10
81.71208100173122
 20
-78.04196579437584
 10
79.76352384321623
 20
-79.16696579437584
 10
77.81496668470125
 20
-78.04196579437584
 10
77.81496668470125
 20
-77.4595866397254
  0
LWPOLYLINE
  5
FE
330
17
100
AcDbEntity
  8
pattern
100
AcDbPolyline
 90
4
 70
1
 10
83.37975946810023
 20
-78.42745013666611
 10
82.71208100173122
 20
-78.04196579437584
 10
82.71208100173122
 20
-77.49725334380997
 10
83.22169453755666
 20
-77.50117309348472
  0
LWPOLYLINE
  5
FF
330
17
100
AcDbEntity
  8
pattern
100
AcDbPolyline
 90
20
 70
1
 10
97.44063384971882
 20
-78.04895097998795
 10
97.41274884493927
 20
-77.9156932170941
 10
97.40342395282114
 20
-77.79757825813458
 10
97.40342395282114
 20
-77.75932056777768
 10
97.40845884420398
 20
-77.65293143110623
 10
97.43044509797247
 20
-77.52584052645496
 10
97.46744635431455
 20
-77.40330773441777
 10
97.51839011304645
 20
-77.28640555208032
 10
97.58274012407621
 20
-77.17674272507108
 10
97.65942388722002
 20
-77.07512362620436
 10
97.74763702733996
 20
-76.9831570011086
 10
97.84657516929822
 20
-76.90191534686949
 10
97.95543393795688
 20
-76.83273928484412
 10
98.0734089581781
 20
-76.77696943638956
 10
98.199695854824
 20
-76.73567829859147
 10
98.3334902527567
 20
-76.71020649280692
 10
101.30053826985112
 20
-76.7169929990833
 10
101.30053826985112
 20
-78.04196579437584
 10
99.35198111133613
 20
-79.16696579437584
 10
97.4469358072937
 20
-78.06708737526851
  0
LWPOLYLINE
  5
100
330
17
100
AcDbEntity
  8
pattern
100
AcDbPolyline
 90
5
 70
1
 10
106.19765258688109
 20
-76.72819413127168
 10
106.19765258688109
 20
-78.04196579437584
 10
104.2490954283661
 20
-79.16696579437584
 10
102.30053826985112
 20
-78.04196579437584
 10
102.30053826985112
 20
-76.71928029144841
  0
LWPOLYLINE
  5
101
330
17
100
AcDbEntity
  8
pattern
100
AcDbPolyline
 90
5
 70
1
 10
111.09476690391107
 20
-76.73939526346005
 10
111.09476690391107
 20
-78.04196579437584
 10
109.14620974539608
 20
-79.16696579437584
 10
107.19765258688109
 20
-78.04196579437584
 10
107.19765258688109
 20
-76.73048142363677
  0
LWPOLYLINE
  5
102
330
17
100
AcDbEntity
  8
pattern
100
AcDbPolyline
 90
5
 70
1
 10
115.99188122094104
 20
-76.75059639564842
 10
115.99188122094104
 20
-78.04196579437584
 10
114.04332406242605
 20
-79.16696579437584
 10
112.09476690391107
 20
-78.04196579437584
 10
112.09476690391107
 20
-76.74168255582515
  0
LWPOLYLINE
  5
103
330
17
100
AcDbEntity
  8
pattern
100
AcDbPolyline
 90
5
 70
1
 10
120.88899553797101
 20
-76.76179752783679
 10
120.88899553797101
 20
-78.04196579437584
 10
118.94043837945603
 20
-79.16696579437584
 10
116.99188122094104
 20
-78.04196579437584
 10
116.99188122094104
 20
-76.75288368801353
  0
LWPOLYLINE
  5
104
330
17
100
AcDbEntity
  8
pattern
100
AcDbPolyline
 90
5
 70
1
 10
138.43909837695898
 20
-76.7077933743641
 10
140.47745280609087
 20
-76.71752330723383
 10
140.4774528060909
 20
-78.04196579437584
 10
138.5288956475759
 20
-79.16696579437584
 10
138.46966365661257
 20
-79.13276818844852
  0
LWPOLYLINE
  5
105
330
17
100
AcDbEntity
  8
pattern
100
AcDbPolyline
 90
5
 70
1
 10
145.37456712312087
 20
-76.74089931725402
 10
145.3745671231209
 20
-78.04196579437584
 10
143.4260099646059
 20
-79.16696579437584
 10
141.4774528060909
 20
-78.04196579437584
 10
141.47745280609092
 20
-76.72229673266499
  0
LWPOLYLINE
  5
106
330
17
100
AcDbEntity
  8
pattern
100
AcDbPolyline
 90
5
 70
1
 10
150.27168144015081
 20
-76.76427532727422
 10
150.27168144015084
 20
-78.04196579437584
 10
148.32312428163584
 20
-79.16696579437584
 10
146.37456712312084
 20
-78.04196579437584
 10
146.37456712312087
 20
-76.74567274268519
  0
LWPOLYLINE
  5
107
330
17
100
AcDbEntity
  8
pattern
100
AcDbPolyline
 90
5
 70
1
 10
155.16879575718082
 20
-76.78765133729442
 10
155.16879575718085
 20
-78.04196579437584
 10
153.22023859866584
 20
-79.16696579437584
 10
151.27168144015084
 20
-78.04196579437584
 10
151.27168144015087
 20
-76.76904875270537
  0
LWPOLYLINE
  5
108
330
17
100
AcDbEntity
  8
pattern
100
AcDbPolyline
 90
5
 70
1
 10
160.06591007421076
 20
-76.8110273473146
 10
160.0659100742108
 20
-78.04196579437584
 10
158.1173529156958
 20
-79.16696579437584
 10
156.1687957571808
 20
-78.04196579437584
 10
156.16879575718082
 20
-76.79242476272557
  0
LWPOLYLINE
  5
109
330
17
100
AcDbEntity
  8
pattern
100
AcDbPolyline
 90
5
 70
1
 10
164.96302439124076
 20
-76.8344033573348
 10
164.9630243912408
 20
-78.04196579437584
 10
163.0144672327258
 20
-79.16696579437584
 10
161.0659100742108
 20
-78.04196579437584
 10
161.06591007421082
 20
-76.81580077274576
  0
LWPOLYLINE
  5
10A
330
17
100
AcDbEntity
  8
pattern
100
AcDbPolyline
 90
5
 70
1
 10
169.8601387082707
 20
-76.857779367355
 10
169.86013870827074
 20
-78.04196579437584
 10
167.91158154975574
 20
-79.16696579437584
 10
165.96302439124074
 20
-78.04196579437584
 10
165.96302439124076
 20
-76.83917678276596
  0
LWPOLYLINE
  5
10B
330
17
100
AcDbEntity
  8
pattern
100
AcDbPolyline
 90
5
 70
1
 10
174.7572530253007
 20
-76.8811553773752
 10
174.75725302530074
 20
-78.04196579437584
 10
172.80869586678574
 20
-79.16696579437584
 10
170.86013870827074
 20
-78.04196579437584
 10
170.86013870827077
 20
-76.86255279278616
  0
LWPOLYLINE
  5
10C
330
17
100
AcDbEntity
  8
pattern
100
AcDbPolyline
 90
27
 70
1
 10
176.18547422178278
 20
-76.8879728847558
 10
176.3122973685206
 20
-76.904864713855
 10
176.4318811390176
 20
-76.93274963808229
 10
176.54422553327367
 20
-76.97082328462338
 10
176.649062426243
 20
-77.01828128066404
 10
176.74639181792554
 20
-77.07458737766144
 10
176.83594558327522
 20
-77.13893720280134
 10
176.9177237222922
 20
-77.21052638326944
 10
176.9917262349764
 20
-77.28881867052297
 10
177.05795312132784
 20
-77.37327781601907
 10
177.1161362563006
 20
-77.46283132267209
 10
177.1662756398946
 20
-77.55694294193916
 10
177.2083712721099
 20
-77.6550764252775
 10
177.24215502790054
 20
-77.7564273998728
 10
177.26762690726645
 20
-77.86019149291086
 10
177.28478691020774
 20
-77.96583245584884
 10
177.2933669116784
 20
-78.0725459158725
 10
177.2933669116784
 20
-78.17952750016755
 10
177.28478691020774
 20
-78.28624096019121
 10
177.2673587822205
 20
-78.39188192312919
 10
177.24108252771669
 20
-78.49591414043866
 10
177.20595814669628
 20
-78.59753323930539
 10
177.1619856391593
 20
-78.69593484691515
 10
177.10889688005977
 20
-78.79058271472506
 10
177.09322020204868
 20
-78.81328680349979
 10
175.75725302530068
 20
-78.04196579437584
 10
175.7572530253007
 20
-76.88592880280635
  0
LWPOLYLINE
  5
10E
330
17
100
AcDbEntity
  8
outline_1
100
AcDbPolyline
 90
155
 70
1
 10
186.95471669265817
 20
-151.44153529765538
 10
186.81958166949568
 20
-150.12290013083054
 10
186.5525291237222
 20
-148.7471544941941
 10
185.68460834995835
 20
-145.87876103858372
 10
183.04893914819806
 20
-140.05349311779563
 10
167.14617454742412
 20
-113.5040958864361
 10
164.3842184490179
 20
-107.3771881603048
 10
163.31600826592395
 20
-104.20366928382276
 10
162.5617725116461
 20
-100.99770737049943
 10
162.20114432483348
 20
-97.78986858727615
 10
162.19310057345479
 20
-96.19479729662125
 10
162.3129524689977
 20
-94.61071910109439
 10
162.54300375842905
 20
-93.14220246654794
 10
162.87467444027823
 20
-91.73723128432711
 10
163.30474701399373
 20
-90.39687805151758
 10
163.8300039790241
 20
-89.12194714093363
 10
164.44695970977187
 20
-87.91377917393227
 10
165.15239670568553
 20
-86.77317852332781
 10
165.94309746621366
 20
-85.70148581047732
 10
166.8158444908047
 20
-84.69977353246644
 10
167.7671521538612
 20
-83.76884606210942
 10
168.79353482978578
 20
-82.90977589649194
 10
169.8920431430729
 20
-82.1239036569711
 10
171.05919146812505
 20
-81.41203371636114
 10
173.58600190122667
 20
-80.21485884448786
 10
176.4766580216924
 20
-79.28768511393066
 10
176.59543741705147
 20
-79.23942274507577
 10
176.7045643107561
 20
-79.18231227526412
 10
176.8043068278522
 20
-79.11715807730998
 10
176.8943968432939
 20
-79.04476452402761
 10
176.97510248212703
 20
-78.96566786395984
 10
177.0466918693977
 20
-78.88067246992091
 10
177.10889688005977
 20
-78.79058271472506
 10
177.1619856391593
 20
-78.69593484691515
 10
177.20595814669628
 20
-78.59753323930539
 10
177.24108252771669
 20
-78.49591414043866
 10
177.2673587822205
 20
-78.39188192312919
 10
177.28478691020774
 20
-78.28624096019121
 10
177.2933669116784
 20
-78.17952750016755
 10
177.2933669116784
 20
-78.0725459158725
 10
177.28478691020774
 20
-77.96583245584884
 10
177.26762690726645
 20
-77.86019149291086
 10
177.24215502790054
 20
-77.7564273998728
 10
177.2083712721099
 20
-77.6550764252775
 10
177.1662756398946
 20
-77.55694294193916
 10
177.1161362563006
 20
-77.46283132267209
 10
177.05795312132784
 20
-77.37327781601907
 10
176.9917262349764
 20
-77.28881867052297
 10
176.9177237222922
 20
-77.21052638326944
 10
176.83594558327522
 20
-77.13893720280134
 10
176.74639181792554
 20
-77.07458737766144
 10
176.649062426243
 20
-77.01828128066404
 10
176.54422553327367
 20
-76.97082328462338
 10
176.4318811390176
 20
-76.93274963808229
 10
176.3122973685206
 20
-76.904864713855
 10
176.18547422178278
 20
-76.8879728847558
 10
138.43909837695898
 20
-76.7077933743641
 10
138.51926776570022
 20
-83.06823734089889
 10
138.49379588633423
 20
-83.25270683963323
 10
138.45062775393512
 20
-83.43127760439644
 10
138.3905677436407
 20
-83.60287713810277
 10
138.31442023058878
 20
-83.76643294366666
 10
138.22325771496332
 20
-83.9211406482738
 10
138.11815269694804
 20
-84.06592775483855
 10
137.9999095516809
 20
-84.19998989054663
 10
137.8696007793456
 20
-84.32225455831242
 10
137.72803075508014
 20
-84.43164926105024
 10
137.57627197906828
 20
-84.52736962594581
 10
137.41512882644798
 20
-84.60834315591352
 10
137.24540567235698
 20
-84.67376547813907
 10
137.06844314202516
 20
-84.72256409553682
 10
136.88477748554442
 20
-84.75366651102108
 10
136.69548120309855
 20
-84.76626835177765
 10
122.7092744308275
 20
-84.69923728392362
 10
122.52480439920888
 20
-84.67376547813907
 10
122.3462331186013
 20
-84.63032934616966
 10
122.17463308918863
 20
-84.57026950937244
 10
122.01107681115468
 20
-84.49412221629025
 10
121.8563686596373
 20
-84.40295996400874
 10
121.71158113482035
 20
-84.29785524961359
 10
121.5775186118417
 20
-84.17961244591906
 10
121.45525359088516
 20
-84.0493040500108
 10
121.34585857213459
 20
-83.90773443470304
 10
121.25013793072779
 20
-83.75597609708151
 10
121.1691641668487
 20
-83.59483340996036
 10
121.1037416556351
 20
-83.42511074615392
 10
121.05521102231685
 20
-83.24814872701921
 10
121.02410851698579
 20
-83.06448360109914
 10
120.93509100172797
 20
-76.94776459728163
 10
120.95761350558837
 20
-76.76195447719023
 10
98.3334902527567
 20
-76.71020649280692
 10
98.199695854824
 20
-76.73567829859147
 10
98.0734089581781
 20
-76.77696943638956
 10
97.95543393795688
 20
-76.83273928484412
 10
97.84657516929822
 20
-76.90191534686949
 10
97.74763702733996
 20
-76.9831570011086
 10
97.65942388722002
 20
-77.07512362620436
 10
97.58274012407621
 20
-77.17674272507108
 10
97.51839011304645
 20
-77.28640555208032
 10
97.46744635431455
 20
-77.40330773441777
 10
97.43044509797247
 20
-77.52584052645496
 10
97.40845884420398
 20
-77.65293143110623
 10
97.40229196814693
 20
-77.7832398270145
 10
97.41274884493927
 20
-77.9156932170941
 10
97.44063384971882
 20
-78.04895097998795
 10
97.48675135762349
 20
-78.18167249433897
 10
99.26522478745832
 20
-84.9646803126257
 10
99.59528671903176
 20
-85.62909225719503
 10
100.00230053879494
 20
-86.23827060185259
 10
100.47929499555299
 20
-86.78685286117013
 10
101.01929883811101
 20
-87.26974467399064
 10
101.61560894032006
 20
-87.68158355488592
 10
102.2609859259393
 20
-88.017275142699
 10
102.94872666881979
 20
-88.27145695200153
 10
103.6715917927207
 20
-88.43876649736524
 10
111.56546127074978
 20
-89.63755011486703
 10
115.46668068942863
 20
-90.54756389205357
 10
117.34382413617574
 20
-91.18623590656692
 10
119.14857382051439
 20
-91.98765935382991
 10
120.6664297056787
 20
-92.86844758543208
 10
122.0419111914397
 20
-93.88758794108502
 10
123.28654765477351
 20
-95.03140608294646
 10
124.41160034761039
 20
-96.28676392171708
 10
125.42859864692645
 20
-97.640255243826
 10
127.1842814478549
 20
-100.58801348377557
 10
150.09932037555015
 20
-159.2895327220073
 10
150.22748414751777
 20
-159.54693202256686
 10
150.37361229756445
 20
-159.79146135809845
 10
150.53690045055248
 20
-160.02258448005918
 10
150.71654423134385
 20
-160.23922889136344
 10
150.9112030147089
 20
-160.44112646773982
 10
151.12007242550962
 20
-160.62720471210267
 10
151.3420799635623
 20
-160.79692737590912
 10
151.57615312868302
 20
-160.9494900863449
 10
151.821219420688
 20
-161.08435659486727
 10
152.07647446443934
 20
-161.20045440439048
 10
152.34084575975328
 20
-161.29751539064313
 10
152.6132608064459
 20
-161.3744670565396
 10
152.8926471043334
 20
-161.43077315353702
 10
153.17793215323195
 20
-161.46562930882112
 10
153.46831157800372
 20
-161.47849927384905
 10
181.4653926267739
 20
-158.30873413716694
 10
182.28076089153006
 20
-158.1280183782324
 10
183.0218585185561
 20
-157.89877212617154
 10
183.69109863326554
 20
-157.62340849942711
 10
184.29062623602607
 20
-157.30353624362763
 10
184.8228544522513
 20
-156.94156847721575
 10
185.28992828230892
 20
-156.53938207009145
 10
185.6945289766585
 20
-156.09885389215466
 10
186.0388015356677
 20
-155.6221289375767
 10
186.32489095970413
 20
-155.11135220052884
 10
186.55547849922743
 20
-154.56840055091106
 10
186.73270915460523
 20
-153.9954189828947
 10
186.8589960512511
 20
-153.3942843663796
 10
186.93648418953273
 20
-152.76714169553716
  0
LWPOLYLINE
  5
110
330
17
100
AcDbEntity
  8
outline_2
100
AcDbPolyline
 90
38
 70
1
 10
58.71560158715064
 20
-77.31268173067915
 10
58.563306561046886
 20
-77.31965296173597
 10
58.41610591081632
 20
-77.34271164907776
 10
58.27480401159682
 20
-77.38078529561886
 10
58.13993711348029
 20
-77.43306952854503
 10
58.012577716650576
 20
-77.49875997504199
 10
57.89353019624554
 20
-77.5767841380241
 10
57.783598927403055
 20
-77.6663376446771
 10
57.683588285260974
 20
-77.76634799791535
 10
57.59430264495718
 20
-77.87601082492456
 10
57.51654638162957
 20
-77.99452175289052
 10
57.45112387041599
 20
-78.12080828472753
 10
57.398839486454314
 20
-78.25406604762138
 10
57.36049760488242
 20
-78.3934906687578
 10
57.337170725884135
 20
-78.53800965105113
 10
57.32939509955138
 20
-78.68681862168711
 10
57.86081894063876
 20
-83.4666700082235
 10
57.90264644780811
 20
-83.63022581378739
 10
57.958684582413184
 20
-83.78734663683726
 10
58.02812896931613
 20
-83.93722810455891
 10
58.11017523337907
 20
-84.0790658441381
 10
58.204287124510074
 20
-84.21232360703195
 10
58.309660267571296
 20
-84.33619702042621
 10
58.425222162378894
 20
-84.45014983577808
 10
58.55043655884098
 20
-84.55337768027334
 10
58.684499081819624
 20
-84.6453443053691
 10
58.82687348122295
 20
-84.7252453382511
 10
58.97648725686713
 20
-84.79227640610516
 10
59.132804158660235
 20
-84.84590126038837
 10
59.29475168641846
 20
-84.88558365255797
 10
59.461793590049865
 20
-84.91025108552827
 10
86.01770251679952
 20
-85.12448237838981
 10
85.67316183274437
 20
-84.65875051893988
 10
84.8658373193669
 20
-83.24734435420507
 10
84.39474161361989
 20
-82.18020975396863
 10
83.93544340989503
 20
-80.86854581820063
 10
83.53030646545353
 20
-79.30967130418689
 10
83.22169453755666
 20
-77.50117309348472
  0
ENDSEC
  0
SECTION
  2
OBJECTS
  0
DICTIONARY
  5
A
330
0
100
AcDbDictionary
281
1
  3
ACAD_COLOR
350
B
  3
ACAD_GROUP
350
C
  3
ACAD_LAYOUT
350
D
  3
ACAD_MATERIAL
350
E
  3
ACAD_MLEADERSTYLE
350
F
  3
ACAD_MLINESTYLE
350
10
  3
ACAD_PLOTSETTINGS
350
11
  3
ACAD_PLOTSTYLENAME
350
12
  3
ACAD_SCALELIST
350
14
  3
ACAD_TABLESTYLE
350
15
  3
ACAD_VISUALSTYLE
350
16
  3
EZDXF_META
350
2D
  0
DICTIONARY
  5
B
330
A
100
AcDbDictionary
281
1
  0
DICTIONARY
  5
C
330
A
100
AcDbDictionary
281
1
  0
DICTIONARY
  5
D
330
A
100
AcDbDictionary
281
1
  3
Model
350
1A
  3
Layout1
350
1E
  0
DICTIONARY
  5
E
330
A
100
AcDbDictionary
281
1
  3
ByBlock
350
1F
  3
ByLayer
350
20
  3
Global
350
21
  0
DICTIONARY
  5
F
330
A
100
AcDbDictionary
281
1
  3
Standard
350
2C
  0
DICTIONARY
  5
10
330
A
100
AcDbDictionary
281
1
  3
Standard
350
22
  0
DICTIONARY
  5
11
330
A
100
AcDbDictionary
281
1
  0
ACDBDICTIONARYWDFLT
  5
12
330
A
100
AcDbDictionary
281
1
  3
Normal
350
13
100
AcDbDictionaryWithDefault
340
13
  0
ACDBPLACEHOLDER
  5
13
330
12
  0
DICTIONARY
  5
14
330
A
100
AcDbDictionary
281
1
  0
DICTIONARY
  5
15
330
A
100
AcDbDictionary
281
1
  0
DICTIONARY
  5
16
330
A
100
AcDbDictionary
281
1
  0
LAYOUT
  5
1A
330
D
100
AcDbPlotSettings
  1

  4
A3
  6

 40
7.5
 41
20.0
 42
7.5
 43
20.0
 44
420.0
 45
297.0
 46
0.0
 47
0.0
 48
0.0
 49
0.0
140
0.0
141
0.0
142
1.0
143
1.0
 70
1024
 72
1
 73
0
 74
5
  7

 75
16
 76
0
 77
2
 78
300
147
1.0
148
0.0
149
0.0
100
AcDbLayout
  1
Model
 70
1
 71
0
 10
0.0
 20
0.0
 11
420.0
 21
297.0
 12
0.0
 22
0.0
 32
0.0
 14
1e+20
 24
1e+20
 34
1e+20
 15
-1e+20
 25
-1e+20
 35
-1e+20
146
0.0
 13
0.0
 23
0.0
 33
0.0
 16
1.0
 26
0.0
 36
0.0
 17
0.0
 27
1.0
 37
0.0
 76
1
330
17
  0
LAYOUT
  5
1E
330
D
100
AcDbPlotSettings
  1

  4
A3
  6

 40
7.5
 41
20.0
 42
7.5
 43
20.0
 44
420.0
 45
297.0
 46
0.0
 47
0.0
 48
0.0
 49
0.0
140
0.0
141
0.0
142
1.0
143
1.0
 70
0
 72
1
 73
0
 74
5
  7

 75
16
 76
0
 77
2
 78
300
147
1.0
148
0.0
149
0.0
100
AcDbLayout
  1
Layout1
 70
1
 71
1
 10
0.0
 20
0.0
 11
420.0
 21
297.0
 12
0.0
 22
0.0
 32
0.0
 14
1e+20
 24
1e+20
 34
1e+20
 15
-1e+20
 25
-1e+20
 35
-1e+20
146
0.0
 13
0.0
 23
0.0
 33
0.0
 16
1.0
 26
0.0
 36
0.0
 17
0.0
 27
1.0
 37
0.0
 76
1
330
1B
  0
MATERIAL
  5
1F
102
{ACAD_REACTORS
330
E
102
}
330
E
100
AcDbMaterial
  1
ByBlock
  2

 70
0
 40
1.0
 71
1
 41
1.0
 91
-1023410177
 42
1.0
 72
1
  3

 73
1
 74
1
 75
1
 44
0.5
 73
0
 45
1.0
 46
1.0
 77
1
  4

 78
1
 79
1
170
1
 48
1.0
171
1
  6

172
1
173
1
174
1
140
1.0
141
1.0
175
1
  7

176
1
177
1
178
1
143
1.0
179
1
  8

270
1
271
1
272
1
145
1.0
146
1.0
273
1
  9

274
1
275
1
276
1
 42
1.0
 72
1
  3

 73
1
 74
1
 75
1
 94
63
  0
MATERIAL
  5
20
102
{ACAD_REACTORS
330
E
102
}
330
E
100
AcDbMaterial
  1
ByLayer
  2

 70
0
 40
1.0
 71
1
 41
1.0
 91
-1023410177
 42
1.0
 72
1
  3

 73
1
 74
1
 75
1
 44
0.5
 73
0
 45
1.0
 46
1.0
 77
1
  4

 78
1
 79
1
170
1
 48
1.0
171
1
  6

172
1
173
1
174
1
140
1.0
141
1.0
175
1
  7

176
1
177
1
178
1
143
1.0
179
1
  8

270
1
271
1
272
1
145
1.0
146
1.0
273
1
  9

274
1
275
1
276
1
 42
1.0
 72
1
  3

 73
1
 74
1
 75
1
 94
63
  0
MATERIAL
  5
21
102
{ACAD_REACTORS
330
E
102
}
330
E
100
AcDbMaterial
  1
Global
  2

 70
0
 40
1.0
 71
1
 41
1.0
 91
-1023410177
 42
1.0
 72
1
  3

 73
1
 74
1
 75
1
 44
0.5
 73
0
 45
1.0
 46
1.0
 77
1
  4

 78
1
 79
1
170
1
 48
1.0
171
1
  6

172
1
173
1
174
1
140
1.0
141
1.0
175
1
  7

176
1
177
1
178
1
143
1.0
179
1
  8

270
1
271
1
272
1
145
1.0
146
1.0
273
1
  9

274
1
275
1
276
1
 42
1.0
 72
1
  3

 73
1
 74
1
 75
1
 94
63
  0
MLINESTYLE
  5
22
102
{ACAD_REACTORS
330
10
102
}
330
10
100
AcDbMlineStyle
  2
Standard
 70
0
  3

 62
256
 51
90.0
 52
90.0
 71
2
 49
0.5
 62
256
  6
BYLAYER
 49
-0.5
 62
256
  6
BYLAYER
  0
MLEADERSTYLE
  5
2C
102
{ACAD_REACTORS
330
F
102
}
330
F
100
AcDbMLeaderStyle
179
2
170
2
171
1
172
0
 90
2
 40
0.0
 41
0.0
173
1
 91
-1056964608
 92
-2
290
1
 42
2.0
291
1
 43
8.0
  3
Standard
 44
4.0
300

342
29
174
1
175
1
176
0
178
1
 93
-1056964608
 45
4.0
292
0
297
0
 46
4.0
 94
-1056964608
 47
1.0
 49
1.0
140
1.0
294
1
141
0.0
177
0
142
1.0
295
0
296
0
143
3.75
271
0
272
9
273
9
  0
DICTIONARY
  5
2D
330
A
100
AcDbDictionary
280
1
281
1
  3
CREATED_BY_EZDXF
350
2E
  3
WRITTEN_BY_EZDXF
350
113
  0
DICTIONARYVAR
  5
2E
330
2D
100
DictionaryVariables
280
0
  1
1.4.3 @ 2026-05-09T00:42:42.637051+00:00
  0
DICTIONARYVAR
  5
113
330
2D
100
DictionaryVariables
280
0
  1
1.4.3 @ 2026-05-09T00:42:42.653112+00:00
  0
ENDSEC
  0
EOF
