  0
SECTION
  2
HEADER
  9
$ACADVER
  1
AC1024
  9
$ACADMAINTVER
 70
6
  9
$DWGCODEPAGE
  3
ANSI_1252
  9
$LASTSAVEDBY
  1
ezdxf
  9
$INSBASE
 10
0.0
 20
0.0
 30
0.0
  9
$EXTMIN
 10
1e+20
 20
1e+20
 30
1e+20
  9
$EXTMAX
 10
-1e+20
 20
-1e+20
 30
-1e+20
  9
$LIMMIN
 10
0.0
 20
0.0
  9
$LIMMAX
 10
420.0
 20
297.0
  9
$ORTHOMODE
 70
0
  9
$REGENMODE
 70
1
  9
$FILLMODE
 70
1
  9
$QTEXTMODE
 70
0
  9
$MIRRTEXT
 70
1
  9
$LTSCALE
 40
1.0
  9
$ATTMODE
 70
1
  9
$TEXTSIZE
 40
2.5
  9
$TRACEWID
 40
1.0
  9
$TEXTSTYLE
  7
Standard
  9
$CLAYER
  8
0
  9
$CELTYPE
  6
ByLayer
  9
$CECOLOR
 62
256
  9
$CELTSCALE
 40
1.0
  9
$DISPSILH
 70
0
  9
$DIMSCALE
 40
1.0
  9
$DIMASZ
 40
2.5
  9
$DIMEXO
 40
0.625
  9
$DIMDLI
 40
3.75
  9
$DIMRND
 40
0.0
  9
$DIMDLE
 40
0.0
  9
$DIMEXE
 40
1.25
  9
$DIMTP
 40
0.0
  9
$DIMTM
 40
0.0
  9
$DIMTXT
 40
2.5
  9
$DIMCEN
 40
2.5
  9
$DIMTSZ
 40
0.0
  9
$DIMTOL
 70
0
  9
$DIMLIM
 70
0
  9
$DIMTIH
 70
0
  9
$DIMTOH
 70
0
  9
$DIMSE1
 70
0
  9
$DIMSE2
 70
0
  9
$DIMTAD
 70
1
  9
$DIMZIN
 70
8
  9
$DIMBLK
  1

  9
$DIMASO
 70
1
  9
$DIMSHO
 70
1
  9
$DIMPOST
  1

  9
$DIMAPOST
  1

  9
$DIMALT
 70
0
  9
$DIMALTD
 70
3
  9
$DIMALTF
 40
0.03937007874
  9
$DIMLFAC
 40
1.0
  9
$DIMTOFL
 70
1
  9
$DIMTVP
 40
0.0
  9
$DIMTIX
 70
0
  9
$DIMSOXD
 70
0
  9
$DIMSAH
 70
0
  9
$DIMBLK1
  1

  9
$DIMBLK2
  1

  9
$DIMSTYLE
  2
ISO-25
  9
$DIMCLRD
 70
0
  9
$DIMCLRE
 70
0
  9
$DIMCLRT
 70
0
  9
$DIMTFAC
 40
1.0
  9
$DIMGAP
 40
0.625
  9
$DIMJUST
 70
0
  9
$DIMSD1
 70
0
  9
$DIMSD2
 70
0
  9
$DIMTOLJ
 70
0
  9
$DIMTZIN
 70
8
  9
$DIMALTZ
 70
0
  9
$DIMALTTZ
 70
0
  9
$DIMUPT
 70
0
  9
$DIMDEC
 70
2
  9
$DIMTDEC
 70
2
  9
$DIMALTU
 70
2
  9
$DIMALTTD
 70
3
  9
$DIMTXSTY
  7
Standard
  9
$DIMAUNIT
 70
0
  9
$DIMADEC
 70
0
  9
$DIMALTRND
 40
0.0
  9
$DIMAZIN
 70
0
  9
$DIMDSEP
 70
44
  9
$DIMATFIT
 70
3
  9
$DIMFRAC
 70
0
  9
$DIMLDRBLK
  1

  9
$DIMLUNIT
 70
2
  9
$DIMLWD
 70
-2
  9
$DIMLWE
 70
-2
  9
$DIMTMOVE
 70
0
  9
$DIMFXL
 40
1.0
  9
$DIMFXLON
 70
0
  9
$DIMJOGANG
 40
0.785398163397
  9
$DIMTFILL
 70
0
  9
$DIMTFILLCLR
 70
0
  9
$DIMARCSYM
 70
0
  9
$DIMLTYPE
  6

  9
$DIMLTEX1
  6

  9
$DIMLTEX2
  6

  9
$DIMTXTDIRECTION
 70
0
  9
$LUNITS
 70
2
  9
$LUPREC
 70
4
  9
$SKETCHINC
 40
1.0
  9
$FILLETRAD
 40
10.0
  9
$AUNITS
 70
0
  9
$AUPREC
 70
2
  9
$MENU
  1
.
  9
$ELEVATION
 40
0.0
  9
$PELEVATION
 40
0.0
  9
$THICKNESS
 40
0.0
  9
$LIMCHECK
 70
0
  9
$CHAMFERA
 40
0.0
  9
$CHAMFERB
 40
0.0
  9
$CHAMFERC
 40
0.0
  9
$CHAMFERD
 40
0.0
  9
$SKPOLY
 70
0
  9
$TDCREATE
 40
2461140.609236111
  9
$TDUCREATE
 40
2458532.153996898
  9
$TDUPDATE
 40
2461140.609236111
  9
$TDUUPDATE
 40
2458532.1544311
  9
$TDINDWG
 40
0.0
  9
$TDUSRTIMER
 40
0.0
  9
$USRTIMER
 70
1
  9
$ANGBASE
 50
0.0
  9
$ANGDIR
 70
0
  9
$PDMODE
 70
0
  9
$PDSIZE
 40
0.0
  9
$PLINEWID
 40
0.0
  9
$SPLFRAME
 70
0
  9
$SPLINETYPE
 70
6
  9
$SPLINESEGS
 70
8
  9
$HANDSEED
  5
244
  9
$SURFTAB1
 70
6
  9
$SURFTAB2
 70
6
  9
$SURFTYPE
 70
6
  9
$SURFU
 70
6
  9
$SURFV
 70
6
  9
$UCSBASE
  2

  9
$UCSNAME
  2

  9
$UCSORG
 10
0.0
 20
0.0
 30
0.0
  9
$UCSXDIR
 10
1.0
 20
0.0
 30
0.0
  9
$UCSYDIR
 10
0.0
 20
1.0
 30
0.0
  9
$UCSORTHOREF
  2

  9
$UCSORTHOVIEW
 70
0
  9
$UCSORGTOP
 10
0.0
 20
0.0
 30
0.0
  9
$UCSORGBOTTOM
 10
0.0
 20
0.0
 30
0.0
  9
$UCSORGLEFT
 10
0.0
 20
0.0
 30
0.0
  9
$UCSORGRIGHT
 10
0.0
 20
0.0
 30
0.0
  9
$UCSORGFRONT
 10
0.0
 20
0.0
 30
0.0
  9
$UCSORGBACK
 10
0.0
 20
0.0
 30
0.0
  9
$PUCSBASE
  2

  9
$PUCSNAME
  2

  9
$PUCSORG
 10
0.0
 20
0.0
 30
0.0
  9
$PUCSXDIR
 10
1.0
 20
0.0
 30
0.0
  9
$PUCSYDIR
 10
0.0
 20
1.0
 30
0.0
  9
$PUCSORTHOREF
  2

  9
$PUCSORTHOVIEW
 70
0
  9
$PUCSORGTOP
 10
0.0
 20
0.0
 30
0.0
  9
$PUCSORGBOTTOM
 10
0.0
 20
0.0
 30
0.0
  9
$PUCSORGLEFT
 10
0.0
 20
0.0
 30
0.0
  9
$PUCSORGRIGHT
 10
0.0
 20
0.0
 30
0.0
  9
$PUCSORGFRONT
 10
0.0
 20
0.0
 30
0.0
  9
$PUCSORGBACK
 10
0.0
 20
0.0
 30
0.0
  9
$USERI1
 70
0
  9
$USERI2
 70
0
  9
$USERI3
 70
0
  9
$USERI4
 70
0
  9
$USERI5
 70
0
  9
$USERR1
 40
0.0
  9
$USERR2
 40
0.0
  9
$USERR3
 40
0.0
  9
$USERR4
 40
0.0
  9
$USERR5
 40
0.0
  9
$WORLDVIEW
 70
1
  9
$SHADEDGE
 70
3
  9
$SHADEDIF
 70
70
  9
$TILEMODE
 70
1
  9
$MAXACTVP
 70
64
  9
$PINSBASE
 10
0.0
 20
0.0
 30
0.0
  9
$PLIMCHECK
 70
0
  9
$PEXTMIN
 10
1e+20
 20
1e+20
 30
1e+20
  9
$PEXTMAX
 10
-1e+20
 20
-1e+20
 30
-1e+20
  9
$PLIMMIN
 10
0.0
 20
0.0
  9
$PLIMMAX
 10
420.0
 20
297.0
  9
$UNITMODE
 70
0
  9
$VISRETAIN
 70
1
  9
$PLINEGEN
 70
0
  9
$PSLTSCALE
 70
1
  9
$TREEDEPTH
 70
3020
  9
$CMLSTYLE
  2
Standard
  9
$CMLJUST
 70
0
  9
$CMLSCALE
 40
20.0
  9
$PROXYGRAPHICS
 70
1
  9
$MEASUREMENT
 70
1
  9
$CELWEIGHT
370
-1
  9
$ENDCAPS
280
0
  9
$JOINSTYLE
280
0
  9
$LWDISPLAY
290
0
  9
$INSUNITS
 70
4
  9
$HYPERLINKBASE
  1

  9
$STYLESHEET
  1

  9
$XEDIT
290
1
  9
$CEPSNTYPE
380
0
  9
$PSTYLEMODE
290
1
  9
$FINGERPRINTGUID
  2
{E4C411E5-93FC-4C72-8ECE-BBE83DF32CE7}
  9
$VERSIONGUID
  2
{8D01624F-2B2C-4420-813F-E35F04F4386C}
  9
$EXTNAMES
290
1
  9
$PSVPSCALE
 40
0.0
  9
$OLESTARTUP
290
0
  9
$SORTENTS
280
127
  9
$INDEXCTL
280
0
  9
$HIDETEXT
280
1
  9
$XCLIPFRAME
280
1
  9
$HALOGAP
280
0
  9
$OBSCOLOR
 70
257
  9
$OBSLTYPE
280
0
  9
$INTERSECTIONDISPLAY
280
0
  9
$INTERSECTIONCOLOR
 70
257
  9
$DIMASSOC
280
2
  9
$PROJECTNAME
  1

  9
$CAMERADISPLAY
290
0
  9
$LENSLENGTH
 40
50.0
  9
$CAMERAHEIGHT
 40
0.0
  9
$STEPSPERSEC
 40
24.0
  9
$STEPSIZE
 40
100.0
  9
$3DDWFPREC
 40
2.0
  9
$PSOLWIDTH
 40
0.005
  9
$PSOLHEIGHT
 40
0.08
  9
$LOFTANG1
 40
1.570796326795
  9
$LOFTANG2
 40
1.570796326795
  9
$LOFTMAG1
 40
0.0
  9
$LOFTMAG2
 40
0.0
  9
$LOFTPARAM
 70
7
  9
$LOFTNORMALS
280
1
  9
$LATITUDE
 40
37.795
  9
$LONGITUDE
 40
-122.394
  9
$NORTHDIRECTION
 40
0.0
  9
$TIMEZONE
 70
-8000
  9
$LIGHTGLYPHDISPLAY
280
1
  9
$TILEMODELIGHTSYNCH
280
1
  9
$CMATERIAL
347
20
  9
$SOLIDHIST
280
0
  9
$SHOWHIST
280
1
  9
$DWFFRAME
280
2
  9
$DGNFRAME
280
2
  9
$REALWORLDSCALE
290
1
  9
$INTERFERECOLOR
 62
256
  9
$CSHADOW
280
0
  9
$SHADOWPLANELOCATION
 40
0.0
  0
ENDSEC
  0
SECTION
  2
CLASSES
  0
CLASS
  1
ACDBDICTIONARYWDFLT
  2
AcDbDictionaryWithDefault
  3
ObjectDBX Classes
 90
0
 91
0
280
0
281
0
  0
CLASS
  1
SUN
  2
AcDbSun
  3
SCENEOE
 90
1153
 91
0
280
0
281
0
  0
CLASS
  1
VISUALSTYLE
  2
AcDbVisualStyle
  3
ObjectDBX Classes
 90
4095
 91
0
280
0
281
0
  0
CLASS
  1
MATERIAL
  2
AcDbMaterial
  3
ObjectDBX Classes
 90
1153
 91
0
280
0
281
0
  0
CLASS
  1
SCALE
  2
AcDbScale
  3
ObjectDBX Classes
 90
1153
 91
0
280
0
281
0
  0
CLASS
  1
TABLESTYLE
  2
AcDbTableStyle
  3
ObjectDBX Classes
 90
4095
 91
0
280
0
281
0
  0
CLASS
  1
MLEADERSTYLE
  2
AcDbMLeaderStyle
  3
ACDB_MLEADERSTYLE_CLASS
 90
4095
 91
0
280
0
281
0
  0
CLASS
  1
DICTIONARYVAR
  2
AcDbDictionaryVar
  3
ObjectDBX Classes
 90
0
 91
0
280
0
281
0
  0
CLASS
  1
CELLSTYLEMAP
  2
AcDbCellStyleMap
  3
ObjectDBX Classes
 90
1152
 91
0
280
0
281
0
  0
CLASS
  1
MENTALRAYRENDERSETTINGS
  2
AcDbMentalRayRenderSettings
  3
SCENEOE
 90
1024
 91
0
280
0
281
0
  0
CLASS
  1
ACDBDETAILVIEWSTYLE
  2
AcDbDetailViewStyle
  3
ObjectDBX Classes
 90
1025
 91
0
280
0
281
0
  0
CLASS
  1
ACDBSECTIONVIEWSTYLE
  2
AcDbSectionViewStyle
  3
ObjectDBX Classes
 90
1025
 91
0
280
0
281
0
  0
CLASS
  1
RASTERVARIABLES
  2
AcDbRasterVariables
  3
ISM
 90
0
 91
0
280
0
281
0
  0
CLASS
  1
LAYOUT
  2
AcDbLayout
  3
ObjectDBX Classes
 90
0
 91
0
280
0
281
0
  0
CLASS
  1
ACDBPLACEHOLDER
  2
AcDbPlaceHolder
  3
ObjectDBX Classes
 90
0
 91
0
280
0
281
0
  0
ENDSEC
  0
SECTION
  2
TABLES
  0
TABLE
  2
VPORT
  5
8
330
0
100
AcDbSymbolTable
 70
1
  0
VPORT
  5
23
330
8
100
AcDbSymbolTableRecord
100
AcDbViewportTableRecord
  2
*Active
 70
0
 10
0.0
 20
0.0
 11
1.0
 21
1.0
 12
0.0
 22
0.0
 13
0.0
 23
0.0
 14
0.5
 24
0.5
 15
0.5
 25
0.5
 16
0.0
 26
0.0
 36
1.0
 17
0.0
 27
0.0
 37
0.0
 40
1000.0
 41
1.34
 42
50.0
 43
0.0
 44
0.0
 50
0.0
 51
0.0
 71
0
 72
1000
 73
1
 74
3
 75
0
 76
0
 77
0
 78
0
281
0
 65
0
146
0.0
  0
ENDTAB
  0
TABLE
  2
LTYPE
  5
2
330
0
100
AcDbSymbolTable
 70
3
  0
LTYPE
  5
24
330
2
100
AcDbSymbolTableRecord
100
AcDbLinetypeTableRecord
  2
ByBlock
 70
0
  3

 72
65
 73
0
 40
0.0
  0
LTYPE
  5
25
330
2
100
AcDbSymbolTableRecord
100
AcDbLinetypeTableRecord
  2
ByLayer
 70
0
  3

 72
65
 73
0
 40
0.0
  0
LTYPE
  5
26
330
2
100
AcDbSymbolTableRecord
100
AcDbLinetypeTableRecord
  2
Continuous
 70
0
  3

 72
65
 73
0
 40
0.0
  0
ENDTAB
  0
TABLE
  2
LAYER
  5
1
330
0
100
AcDbSymbolTable
 70
2
  0
LAYER
  5
27
330
1
100
AcDbSymbolTableRecord
100
AcDbLayerTableRecord
  2
0
 70
0
 62
7
  6
Continuous
370
-3
390
13
347
21
  0
LAYER
  5
28
330
1
100
AcDbSymbolTableRecord
100
AcDbLayerTableRecord
  2
Defpoints
 70
0
 62
7
  6
Continuous
290
0
370
-3
390
13
347
21
  0
ENDTAB
  0
TABLE
  2
STYLE
  5
5
330
0
100
AcDbSymbolTable
 70
1
  0
STYLE
  5
29
330
5
100
AcDbSymbolTableRecord
100
AcDbTextStyleTableRecord
  2
Standard
 70
0
 40
0.0
 41
1.0
 50
0.0
 71
0
 42
2.5
  3
txt
  4

  0
ENDTAB
  0
TABLE
  2
VIEW
  5
7
330
0
100
AcDbSymbolTable
 70
0
  0
ENDTAB
  0
TABLE
  2
UCS
  5
6
330
0
100
AcDbSymbolTable
 70
0
  0
ENDTAB
  0
TABLE
  2
APPID
  5
3
330
0
100
AcDbSymbolTable
 70
3
  0
APPID
  5
2A
330
3
100
AcDbSymbolTableRecord
100
AcDbRegAppTableRecord
  2
ACAD
 70
0
  0
APPID
  5
241
330
3
100
AcDbSymbolTableRecord
100
AcDbRegAppTableRecord
  2
HATCHBACKGROUNDCOLOR
 70
0
  0
APPID
  5
242
330
3
100
AcDbSymbolTableRecord
100
AcDbRegAppTableRecord
  2
EZDXF
 70
0
  0
ENDTAB
  0
TABLE
  2
DIMSTYLE
  5
4
330
0
100
AcDbSymbolTable
 70
1
100
AcDbDimStyleTable
  0
DIMSTYLE
105
2B
330
4
100
AcDbSymbolTableRecord
100
AcDbDimStyleTableRecord
  2
Standard
 70
0
 40
1.0
 41
2.5
 42
0.625
 43
3.75
 44
1.25
 45
0.0
 46
0.0
 47
0.0
 48
0.0
 49
2.5
140
2.5
141
2.5
142
0.0
143
0.03937007874
144
1.0
145
0.0
146
1.0
147
0.625
148
0.0
 69
0
 70
0
 71
0
 72
0
 73
0
 74
0
 75
0
 76
0
 77
1
 78
8
 79
3
170
0
171
3
172
1
173
0
174
0
175
0
176
0
177
0
178
0
179
2
271
2
272
2
273
2
274
3
275
0
276
0
277
2
278
44
279
0
280
0
281
0
282
0
283
0
284
8
285
0
286
0
288
0
289
3
290
0
371
-2
372
-2
  0
ENDTAB
  0
TABLE
  2
BLOCK_RECORD
  5
9
330
0
100
AcDbSymbolTable
 70
3
  0
BLOCK_RECORD
  5
17
330
9
100
AcDbSymbolTableRecord
100
AcDbBlockTableRecord
  2
*Model_Space
340
1A
 70
0
280
1
281
0
  0
BLOCK_RECORD
  5
1B
330
9
100
AcDbSymbolTableRecord
100
AcDbBlockTableRecord
  2
*Paper_Space
340
1E
 70
0
280
1
281
0
  0
BLOCK_RECORD
  5
2F
330
9
100
AcDbSymbolTableRecord
100
AcDbBlockTableRecord
  2
HEX
340
0
 70
0
280
1
281
0
  0
ENDTAB
  0
ENDSEC
  0
SECTION
  2
BLOCKS
  0
BLOCK
  5
18
330
17
100
AcDbEntity
  8
0
100
AcDbBlockBegin
  2
*Model_Space
 70
0
 10
0.0
 20
0.0
 30
0.0
  3
*Model_Space
  1

  0
ENDBLK
  5
19
330
17
100
AcDbEntity
  8
0
100
AcDbBlockEnd
  0
BLOCK
  5
1C
330
1B
100
AcDbEntity
  8
0
100
AcDbBlockBegin
  2
*Paper_Space
 70
0
 10
0.0
 20
0.0
 30
0.0
  3
*Paper_Space
  1

  0
ENDBLK
  5
1D
330
1B
100
AcDbEntity
  8
0
100
AcDbBlockEnd
  0
BLOCK
  5
30
330
2F
100
AcDbEntity
  8
0
100
AcDbBlockBegin
  2
HEX
 70
0
 10
0.0
 20
0.0
 30
0.0
  3
HEX
  1

  0
LWPOLYLINE
  5
32
330
2F
100
AcDbEntity
  8
0
100
AcDbPolyline
 90
6
 70
1
 10
1.516
 20
0.875
 10
0.0
 20
1.75
 10
-1.516
 20
0.875
 10
-1.516
 20
-0.875
 10
-0.0
 20
-1.75
 10
1.516
 20
-0.875
  0
ENDBLK
  5
31
330
2F
100
AcDbEntity
  8
0
100
AcDbBlockEnd
  0
ENDSEC
  0
SECTION
  2
ENTITIES
  0
LWPOLYLINE
  5
33
330
17
100
AcDbEntity
  8
0
100
AcDbPolyline
 90
11
 70
1
 10
34.119
 20
19.779
 10
33.829
 20
19.868
 10
33.691
 20
19.93
 10
33.558
 20
20.002
 10
33.313
 20
20.177
 10
33.097
 20
20.39
 10
33.001
 20
20.509
 10
32.84
 20
20.774
 10
32.768
 20
20.951
 10
34.125
 20
20.168
 10
34.119
 20
19.779
  0
LWPOLYLINE
  5
34
330
17
100
AcDbEntity
  8
0
100
AcDbPolyline
 90
6
 70
1
 10
34.625
 20
19.741
 10
34.625
 20
20.168
 10
36.14
 20
21.043
 10
37.656
 20
20.168
 10
37.656
 20
20.102
 10
34.625
 20
19.741
  0
LWPOLYLINE
  5
35
330
17
100
AcDbEntity
  8
0
100
AcDbPolyline
 90
4
 70
1
 10
38.156
 20
20.161
 10
39.671
 20
21.043
 10
40.679
 20
20.462
 10
38.156
 20
20.161
  0
LWPOLYLINE
  5
36
330
17
100
AcDbEntity
  8
0
100
AcDbPolyline
 90
4
 70
1
 10
42.588
 20
20.689
 10
43.202
 20
21.043
 10
43.606
 20
20.81
 10
42.588
 20
20.689
  0
LWPOLYLINE
  5
37
330
17
100
AcDbEntity
  8
0
100
AcDbPolyline
 90
4
 70
1
 10
31.695
 20
23.609
 10
32.359
 20
23.226
 10
32.359
 20
21.965
 10
31.695
 20
23.609
  0
INSERT
  5
38
330
17
100
AcDbEntity
  8
0
100
AcDbBlockReference
  2
HEX
 10
34.375
 20
22.351
 30
0.0
  0
INSERT
  5
3A
330
17
100
AcDbEntity
  8
0
100
AcDbBlockReference
  2
HEX
 10
37.906
 20
22.351
 30
0.0
  0
INSERT
  5
3C
330
17
100
AcDbEntity
  8
0
100
AcDbBlockReference
  2
HEX
 10
41.437
 20
22.351
 30
0.0
  0
LWPOLYLINE
  5
3E
330
17
100
AcDbEntity
  8
0
100
AcDbPolyline
 90
8
 70
1
 10
44.435
 20
20.909
 10
43.452
 20
21.476
 10
43.452
 20
23.226
 10
44.968
 20
24.101
 10
46.483
 20
23.226
 10
46.483
 20
21.476
 10
45.777
 20
21.069
 10
44.435
 20
20.909
  0
LWPOLYLINE
  5
3F
330
17
100
AcDbEntity
  8
0
100
AcDbPolyline
 90
7
 70
1
 10
47.363
 20
21.257
 10
46.983
 20
21.476
 10
46.983
 20
23.226
 10
48.499
 20
24.101
 10
50.014
 20
23.226
 10
50.014
 20
21.573
 10
47.363
 20
21.257
  0
LWPOLYLINE
  5
40
330
17
100
AcDbEntity
  8
0
100
AcDbPolyline
 90
6
 70
1
 10
50.514
 20
21.633
 10
50.514
 20
23.226
 10
52.03
 20
24.101
 10
53.546
 20
23.226
 10
53.546
 20
21.994
 10
50.514
 20
21.633
  0
LWPOLYLINE
  5
41
330
17
100
AcDbEntity
  8
0
100
AcDbPolyline
 90
6
 70
1
 10
54.046
 20
22.053
 10
54.046
 20
23.226
 10
55.561
 20
24.101
 10
57.077
 20
23.226
 10
57.077
 20
22.414
 10
54.046
 20
22.053
  0
LWPOLYLINE
  5
42
330
17
100
AcDbEntity
  8
0
100
AcDbPolyline
 90
6
 70
1
 10
57.577
 20
22.474
 10
57.577
 20
23.226
 10
59.092
 20
24.101
 10
60.608
 20
23.226
 10
60.608
 20
22.834
 10
57.577
 20
22.474
  0
LWPOLYLINE
  5
43
330
17
100
AcDbEntity
  8
0
100
AcDbPolyline
 90
5
 70
1
 10
61.108
 20
22.894
 10
61.108
 20
23.226
 10
62.623
 20
24.101
 10
64.098
 20
23.25
 10
61.108
 20
22.894
  0
LWPOLYLINE
  5
44
330
17
100
AcDbEntity
  8
0
100
AcDbPolyline
 90
4
 70
1
 10
64.831
 20
23.337
 10
66.154
 20
24.101
 10
67.025
 20
23.599
 10
64.831
 20
23.337
  0
LWPOLYLINE
  5
45
330
17
100
AcDbEntity
  8
0
100
AcDbPolyline
 90
8
 70
1
 10
31.093
 20
25.101
 10
31.093
 20
26.284
 10
32.609
 20
27.159
 10
34.125
 20
26.284
 10
34.125
 20
24.534
 10
32.609
 20
23.659
 10
31.392
 20
24.362
 10
31.093
 20
25.101
  0
INSERT
  5
46
330
17
100
AcDbEntity
  8
0
100
AcDbBlockReference
  2
HEX
 10
36.14
 20
25.409
 30
0.0
  0
INSERT
  5
48
330
17
100
AcDbEntity
  8
0
100
AcDbBlockReference
  2
HEX
 10
39.671
 20
25.409
 30
0.0
  0
INSERT
  5
4A
330
17
100
AcDbEntity
  8
0
100
AcDbBlockReference
  2
HEX
 10
43.202
 20
25.409
 30
0.0
  0
INSERT
  5
4C
330
17
100
AcDbEntity
  8
0
100
AcDbBlockReference
  2
HEX
 10
46.733
 20
25.409
 30
0.0
  0
INSERT
  5
4E
330
17
100
AcDbEntity
  8
0
100
AcDbBlockReference
  2
HEX
 10
50.264
 20
25.409
 30
0.0
  0
INSERT
  5
50
330
17
100
AcDbEntity
  8
0
100
AcDbBlockReference
  2
HEX
 10
53.796
 20
25.409
 30
0.0
  0
INSERT
  5
52
330
17
100
AcDbEntity
  8
0
100
AcDbBlockReference
  2
HEX
 10
57.327
 20
25.409
 30
0.0
  0
INSERT
  5
54
330
17
100
AcDbEntity
  8
0
100
AcDbBlockReference
  2
HEX
 10
60.858
 20
25.409
 30
0.0
  0
INSERT
  5
56
330
17
100
AcDbEntity
  8
0
100
AcDbBlockReference
  2
HEX
 10
64.389
 20
25.409
 30
0.0
  0
LWPOLYLINE
  5
58
330
17
100
AcDbEntity
  8
0
100
AcDbPolyline
 90
13
 70
1
 10
69.371
 20
25.312
 10
69.346
 20
25.144
 10
69.251
 20
24.826
 10
69.102
 20
24.534
 10
68.905
 20
24.274
 10
68.798
 20
24.166
 10
68.066
 20
23.744
 10
67.854
 20
23.697
 10
66.404
 20
24.534
 10
66.404
 20
26.284
 10
67.92
 20
27.159
 10
69.374
 20
26.32
 10
69.371
 20
25.312
  0
LWPOLYLINE
  5
59
330
17
100
AcDbEntity
  8
0
100
AcDbPolyline
 90
7
 70
1
 10
29.371
 20
29.367
 10
30.843
 20
30.217
 10
32.359
 20
29.342
 10
32.359
 20
27.592
 10
30.843
 20
26.717
 10
30.319
 20
27.02
 10
29.371
 20
29.367
  0
INSERT
  5
5A
330
17
100
AcDbEntity
  8
0
100
AcDbBlockReference
  2
HEX
 10
34.375
 20
28.467
 30
0.0
  0
INSERT
  5
5C
330
17
100
AcDbEntity
  8
0
100
AcDbBlockReference
  2
HEX
 10
37.906
 20
28.467
 30
0.0
  0
INSERT
  5
5E
330
17
100
AcDbEntity
  8
0
100
AcDbBlockReference
  2
HEX
 10
41.437
 20
28.467
 30
0.0
  0
INSERT
  5
60
330
17
100
AcDbEntity
  8
0
100
AcDbBlockReference
  2
HEX
 10
44.968
 20
28.467
 30
0.0
  0
INSERT
  5
62
330
17
100
AcDbEntity
  8
0
100
AcDbBlockReference
  2
HEX
 10
48.499
 20
28.467
 30
0.0
  0
INSERT
  5
64
330
17
100
AcDbEntity
  8
0
100
AcDbBlockReference
  2
HEX
 10
52.03
 20
28.467
 30
0.0
  0
INSERT
  5
66
330
17
100
AcDbEntity
  8
0
100
AcDbBlockReference
  2
HEX
 10
55.561
 20
28.467
 30
0.0
  0
INSERT
  5
68
330
17
100
AcDbEntity
  8
0
100
AcDbBlockReference
  2
HEX
 10
59.092
 20
28.467
 30
0.0
  0
INSERT
  5
6A
330
17
100
AcDbEntity
  8
0
100
AcDbBlockReference
  2
HEX
 10
62.623
 20
28.467
 30
0.0
  0
INSERT
  5
6C
330
17
100
AcDbEntity
  8
0
100
AcDbBlockReference
  2
HEX
 10
66.154
 20
28.467
 30
0.0
  0
LWPOLYLINE
  5
6E
330
17
100
AcDbEntity
  8
0
100
AcDbPolyline
 90
6
 70
1
 10
69.244
 20
28.172
 10
69.335
 20
26.92
 10
68.17
 20
27.592
 10
68.17
 20
29.342
 10
68.98
 20
29.81
 10
69.244
 20
28.172
  0
LWPOLYLINE
  5
6F
330
17
100
AcDbEntity
  8
0
100
AcDbPolyline
 90
6
 70
1
 10
28.037
 20
32.674
 10
29.078
 20
33.275
 10
30.593
 20
32.4
 10
30.593
 20
30.65
 10
29.182
 20
29.836
 10
28.037
 20
32.674
  0
INSERT
  5
70
330
17
100
AcDbEntity
  8
0
100
AcDbBlockReference
  2
HEX
 10
32.609
 20
31.525
 30
0.0
  0
INSERT
  5
72
330
17
100
AcDbEntity
  8
0
100
AcDbBlockReference
  2
HEX
 10
36.14
 20
31.525
 30
0.0
  0
INSERT
  5
74
330
17
100
AcDbEntity
  8
0
100
AcDbBlockReference
  2
HEX
 10
39.671
 20
31.525
 30
0.0
  0
INSERT
  5
76
330
17
100
AcDbEntity
  8
0
100
AcDbBlockReference
  2
HEX
 10
43.202
 20
31.525
 30
0.0
  0
INSERT
  5
78
330
17
100
AcDbEntity
  8
0
100
AcDbBlockReference
  2
HEX
 10
46.733
 20
31.525
 30
0.0
  0
INSERT
  5
7A
330
17
100
AcDbEntity
  8
0
100
AcDbBlockReference
  2
HEX
 10
50.264
 20
31.525
 30
0.0
  0
INSERT
  5
7C
330
17
100
AcDbEntity
  8
0
100
AcDbBlockReference
  2
HEX
 10
53.796
 20
31.525
 30
0.0
  0
INSERT
  5
7E
330
17
100
AcDbEntity
  8
0
100
AcDbBlockReference
  2
HEX
 10
57.327
 20
31.525
 30
0.0
  0
INSERT
  5
80
330
17
100
AcDbEntity
  8
0
100
AcDbBlockReference
  2
HEX
 10
60.858
 20
31.525
 30
0.0
  0
INSERT
  5
82
330
17
100
AcDbEntity
  8
0
100
AcDbBlockReference
  2
HEX
 10
64.389
 20
31.525
 30
0.0
  0
LWPOLYLINE
  5
84
330
17
100
AcDbEntity
  8
0
100
AcDbPolyline
 90
8
 70
1
 10
68.534
 20
31.625
 10
68.862
 20
30.319
 10
67.92
 20
29.775
 10
66.404
 20
30.65
 10
66.404
 20
32.4
 10
67.92
 20
33.275
 10
67.976
 20
33.243
 10
68.534
 20
31.625
  0
LWPOLYLINE
  5
85
330
17
100
AcDbEntity
  8
0
100
AcDbPolyline
 90
6
 70
1
 10
26.702
 20
35.981
 10
27.312
 20
36.333
 10
28.828
 20
35.458
 10
28.828
 20
33.708
 10
27.848
 20
33.142
 10
26.702
 20
35.981
  0
INSERT
  5
86
330
17
100
AcDbEntity
  8
0
100
AcDbBlockReference
  2
HEX
 10
30.843
 20
34.583
 30
0.0
  0
INSERT
  5
88
330
17
100
AcDbEntity
  8
0
100
AcDbBlockReference
  2
HEX
 10
34.375
 20
34.583
 30
0.0
  0
INSERT
  5
8A
330
17
100
AcDbEntity
  8
0
100
AcDbBlockReference
  2
HEX
 10
37.906
 20
34.583
 30
0.0
  0
INSERT
  5
8C
330
17
100
AcDbEntity
  8
0
100
AcDbBlockReference
  2
HEX
 10
41.437
 20
34.583
 30
0.0
  0
INSERT
  5
8E
330
17
100
AcDbEntity
  8
0
100
AcDbBlockReference
  2
HEX
 10
44.968
 20
34.583
 30
0.0
  0
INSERT
  5
90
330
17
100
AcDbEntity
  8
0
100
AcDbBlockReference
  2
HEX
 10
48.499
 20
34.583
 30
0.0
  0
INSERT
  5
92
330
17
100
AcDbEntity
  8
0
100
AcDbBlockReference
  2
HEX
 10
52.03
 20
34.583
 30
0.0
  0
INSERT
  5
94
330
17
100
AcDbEntity
  8
0
100
AcDbBlockReference
  2
HEX
 10
55.561
 20
34.583
 30
0.0
  0
INSERT
  5
96
330
17
100
AcDbEntity
  8
0
100
AcDbBlockReference
  2
HEX
 10
59.092
 20
34.583
 30
0.0
  0
INSERT
  5
98
330
17
100
AcDbEntity
  8
0
100
AcDbBlockReference
  2
HEX
 10
62.623
 20
34.583
 30
0.0
  0
LWPOLYLINE
  5
9A
330
17
100
AcDbEntity
  8
0
100
AcDbPolyline
 90
9
 70
1
 10
67.25
 20
34.884
 10
67.67
 20
33.939
 10
67.67
 20
33.708
 10
66.154
 20
32.833
 10
64.639
 20
33.708
 10
64.639
 20
35.458
 10
66.154
 20
36.333
 10
66.59
 20
36.082
 10
67.25
 20
34.884
  0
LWPOLYLINE
  5
9B
330
17
100
AcDbEntity
  8
0
100
AcDbPolyline
 90
6
 70
1
 10
25.367
 20
39.288
 10
25.547
 20
39.391
 10
27.062
 20
38.516
 10
27.062
 20
36.766
 10
26.513
 20
36.449
 10
25.367
 20
39.288
  0
INSERT
  5
9C
330
17
100
AcDbEntity
  8
0
100
AcDbBlockReference
  2
HEX
 10
29.078
 20
37.641
 30
0.0
  0
INSERT
  5
9E
330
17
100
AcDbEntity
  8
0
100
AcDbBlockReference
  2
HEX
 10
32.609
 20
37.641
 30
0.0
  0
INSERT
  5
A0
330
17
100
AcDbEntity
  8
0
100
AcDbBlockReference
  2
HEX
 10
36.14
 20
37.641
 30
0.0
  0
INSERT
  5
A2
330
17
100
AcDbEntity
  8
0
100
AcDbBlockReference
  2
HEX
 10
39.671
 20
37.641
 30
0.0
  0
INSERT
  5
A4
330
17
100
AcDbEntity
  8
0
100
AcDbBlockReference
  2
HEX
 10
43.202
 20
37.641
 30
0.0
  0
INSERT
  5
A6
330
17
100
AcDbEntity
  8
0
100
AcDbBlockReference
  2
HEX
 10
46.733
 20
37.641
 30
0.0
  0
INSERT
  5
A8
330
17
100
AcDbEntity
  8
0
100
AcDbBlockReference
  2
HEX
 10
50.264
 20
37.641
 30
0.0
  0
INSERT
  5
AA
330
17
100
AcDbEntity
  8
0
100
AcDbBlockReference
  2
HEX
 10
53.796
 20
37.641
 30
0.0
  0
INSERT
  5
AC
330
17
100
AcDbEntity
  8
0
100
AcDbBlockReference
  2
HEX
 10
57.327
 20
37.641
 30
0.0
  0
INSERT
  5
AE
330
17
100
AcDbEntity
  8
0
100
AcDbBlockReference
  2
HEX
 10
60.858
 20
37.641
 30
0.0
  0
LWPOLYLINE
  5
B0
330
17
100
AcDbEntity
  8
0
100
AcDbPolyline
 90
8
 70
1
 10
65.904
 20
37.139
 10
65.904
 20
36.766
 10
64.389
 20
35.891
 10
62.873
 20
36.766
 10
62.873
 20
38.516
 10
64.284
 20
39.331
 10
64.881
 20
38.613
 10
65.904
 20
37.139
  0
LWPOLYLINE
  5
B1
330
17
100
AcDbEntity
  8
0
100
AcDbPolyline
 90
5
 70
1
 10
24.186
 20
42.216
 10
25.297
 20
41.574
 10
25.297
 20
39.824
 10
25.178
 20
39.756
 10
24.186
 20
42.216
  0
INSERT
  5
B2
330
17
100
AcDbEntity
  8
0
100
AcDbBlockReference
  2
HEX
 10
27.312
 20
40.699
 30
0.0
  0
INSERT
  5
B4
330
17
100
AcDbEntity
  8
0
100
AcDbBlockReference
  2
HEX
 10
30.843
 20
40.699
 30
0.0
  0
INSERT
  5
B6
330
17
100
AcDbEntity
  8
0
100
AcDbBlockReference
  2
HEX
 10
34.375
 20
40.699
 30
0.0
  0
INSERT
  5
B8
330
17
100
AcDbEntity
  8
0
100
AcDbBlockReference
  2
HEX
 10
37.906
 20
40.699
 30
0.0
  0
INSERT
  5
BA
330
17
100
AcDbEntity
  8
0
100
AcDbBlockReference
  2
HEX
 10
41.437
 20
40.699
 30
0.0
  0
INSERT
  5
BC
330
17
100
AcDbEntity
  8
0
100
AcDbBlockReference
  2
HEX
 10
44.968
 20
40.699
 30
0.0
  0
INSERT
  5
BE
330
17
100
AcDbEntity
  8
0
100
AcDbBlockReference
  2
HEX
 10
48.499
 20
40.699
 30
0.0
  0
INSERT
  5
C0
330
17
100
AcDbEntity
  8
0
100
AcDbBlockReference
  2
HEX
 10
52.03
 20
40.699
 30
0.0
  0
INSERT
  5
C2
330
17
100
AcDbEntity
  8
0
100
AcDbBlockReference
  2
HEX
 10
55.561
 20
40.699
 30
0.0
  0
INSERT
  5
C4
330
17
100
AcDbEntity
  8
0
100
AcDbBlockReference
  2
HEX
 10
59.092
 20
40.699
 30
0.0
  0
LWPOLYLINE
  5
C6
330
17
100
AcDbEntity
  8
0
100
AcDbPolyline
 90
6
 70
1
 10
63.96
 20
39.721
 10
62.623
 20
38.949
 10
61.108
 20
39.824
 10
61.108
 20
41.574
 10
61.996
 20
42.087
 10
63.96
 20
39.721
  0
LWPOLYLINE
  5
C7
330
17
100
AcDbEntity
  8
0
100
AcDbPolyline
 90
4
 70
1
 10
23.113
 20
44.874
 10
23.531
 20
44.632
 10
23.531
 20
43.837
 10
23.113
 20
44.874
  0
INSERT
  5
C8
330
17
100
AcDbEntity
  8
0
100
AcDbBlockReference
  2
HEX
 10
25.547
 20
43.757
 30
0.0
  0
INSERT
  5
CA
330
17
100
AcDbEntity
  8
0
100
AcDbBlockReference
  2
HEX
 10
29.078
 20
43.757
 30
0.0
  0
INSERT
  5
CC
330
17
100
AcDbEntity
  8
0
100
AcDbBlockReference
  2
HEX
 10
32.609
 20
43.757
 30
0.0
  0
INSERT
  5
CE
330
17
100
AcDbEntity
  8
0
100
AcDbBlockReference
  2
HEX
 10
36.14
 20
43.757
 30
0.0
  0
INSERT
  5
D0
330
17
100
AcDbEntity
  8
0
100
AcDbBlockReference
  2
HEX
 10
39.671
 20
43.757
 30
0.0
  0
INSERT
  5
D2
330
17
100
AcDbEntity
  8
0
100
AcDbBlockReference
  2
HEX
 10
43.202
 20
43.757
 30
0.0
  0
INSERT
  5
D4
330
17
100
AcDbEntity
  8
0
100
AcDbBlockReference
  2
HEX
 10
46.733
 20
43.757
 30
0.0
  0
INSERT
  5
D6
330
17
100
AcDbEntity
  8
0
100
AcDbBlockReference
  2
HEX
 10
50.264
 20
43.757
 30
0.0
  0
INSERT
  5
D8
330
17
100
AcDbEntity
  8
0
100
AcDbBlockReference
  2
HEX
 10
53.796
 20
43.757
 30
0.0
  0
INSERT
  5
DA
330
17
100
AcDbEntity
  8
0
100
AcDbBlockReference
  2
HEX
 10
57.327
 20
43.757
 30
0.0
  0
LWPOLYLINE
  5
DC
330
17
100
AcDbEntity
  8
0
100
AcDbPolyline
 90
7
 70
1
 10
61.573
 20
42.596
 10
61.672
 20
42.477
 10
60.858
 20
42.007
 10
59.342
 20
42.882
 10
59.342
 20
44.632
 10
59.901
 20
44.955
 10
61.573
 20
42.596
  0
LWPOLYLINE
  5
DD
330
17
100
AcDbEntity
  8
0
100
AcDbPolyline
 90
8
 70
1
 10
22.266
 20
46.972
 10
22.266
 20
47.69
 10
23.781
 20
48.565
 10
25.297
 20
47.69
 10
25.297
 20
45.94
 10
23.781
 20
45.065
 10
22.809
 20
45.627
 10
22.266
 20
46.972
  0
INSERT
  5
DE
330
17
100
AcDbEntity
  8
0
100
AcDbBlockReference
  2
HEX
 10
27.312
 20
46.815
 30
0.0
  0
INSERT
  5
E0
330
17
100
AcDbEntity
  8
0
100
AcDbBlockReference
  2
HEX
 10
30.843
 20
46.815
 30
0.0
  0
INSERT
  5
E2
330
17
100
AcDbEntity
  8
0
100
AcDbBlockReference
  2
HEX
 10
34.375
 20
46.815
 30
0.0
  0
INSERT
  5
E4
330
17
100
AcDbEntity
  8
0
100
AcDbBlockReference
  2
HEX
 10
37.906
 20
46.815
 30
0.0
  0
INSERT
  5
E6
330
17
100
AcDbEntity
  8
0
100
AcDbBlockReference
  2
HEX
 10
41.437
 20
46.815
 30
0.0
  0
INSERT
  5
E8
330
17
100
AcDbEntity
  8
0
100
AcDbBlockReference
  2
HEX
 10
44.968
 20
46.815
 30
0.0
  0
INSERT
  5
EA
330
17
100
AcDbEntity
  8
0
100
AcDbBlockReference
  2
HEX
 10
48.499
 20
46.815
 30
0.0
  0
INSERT
  5
EC
330
17
100
AcDbEntity
  8
0
100
AcDbBlockReference
  2
HEX
 10
52.03
 20
46.815
 30
0.0
  0
INSERT
  5
EE
330
17
100
AcDbEntity
  8
0
100
AcDbBlockReference
  2
HEX
 10
55.561
 20
46.815
 30
0.0
  0
LWPOLYLINE
  5
F0
330
17
100
AcDbEntity
  8
0
100
AcDbPolyline
 90
7
 70
1
 10
59.325
 20
45.766
 10
59.61
 20
45.364
 10
59.092
 20
45.065
 10
57.577
 20
45.94
 10
57.577
 20
47.69
 10
58.013
 20
47.942
 10
59.325
 20
45.766
  0
LWPOLYLINE
  5
F1
330
17
100
AcDbEntity
  8
0
100
AcDbPolyline
 90
7
 70
1
 10
20.696
 20
50.862
 10
22.016
 20
51.623
 10
23.531
 20
50.748
 10
23.531
 20
48.998
 10
22.016
 20
48.123
 10
21.736
 20
48.285
 10
20.696
 20
50.862
  0
INSERT
  5
F2
330
17
100
AcDbEntity
  8
0
100
AcDbBlockReference
  2
HEX
 10
25.547
 20
49.873
 30
0.0
  0
INSERT
  5
F4
330
17
100
AcDbEntity
  8
0
100
AcDbBlockReference
  2
HEX
 10
29.078
 20
49.873
 30
0.0
  0
INSERT
  5
F6
330
17
100
AcDbEntity
  8
0
100
AcDbBlockReference
  2
HEX
 10
32.609
 20
49.873
 30
0.0
  0
INSERT
  5
F8
330
17
100
AcDbEntity
  8
0
100
AcDbBlockReference
  2
HEX
 10
36.14
 20
49.873
 30
0.0
  0
INSERT
  5
FA
330
17
100
AcDbEntity
  8
0
100
AcDbBlockReference
  2
HEX
 10
39.671
 20
49.873
 30
0.0
  0
INSERT
  5
FC
330
17
100
AcDbEntity
  8
0
100
AcDbBlockReference
  2
HEX
 10
43.202
 20
49.873
 30
0.0
  0
INSERT
  5
FE
330
17
100
AcDbEntity
  8
0
100
AcDbBlockReference
  2
HEX
 10
46.733
 20
49.873
 30
0.0
  0
INSERT
  5
100
330
17
100
AcDbEntity
  8
0
100
AcDbBlockReference
  2
HEX
 10
50.264
 20
49.873
 30
0.0
  0
INSERT
  5
102
330
17
100
AcDbEntity
  8
0
100
AcDbBlockReference
  2
HEX
 10
53.796
 20
49.873
 30
0.0
  0
LWPOLYLINE
  5
104
330
17
100
AcDbEntity
  8
0
100
AcDbPolyline
 90
7
 70
1
 10
57.318
 20
49.095
 10
57.755
 20
48.371
 10
57.327
 20
48.123
 10
55.811
 20
48.998
 10
55.811
 20
50.748
 10
56.368
 20
51.07
 10
57.318
 20
49.095
  0
LWPOLYLINE
  5
105
330
17
100
AcDbEntity
  8
0
100
AcDbPolyline
 90
6
 70
1
 10
19.361
 20
54.168
 10
20.25
 20
54.681
 10
21.766
 20
53.806
 10
21.766
 20
52.056
 10
20.507
 20
51.33
 10
19.361
 20
54.168
  0
INSERT
  5
106
330
17
100
AcDbEntity
  8
0
100
AcDbBlockReference
  2
HEX
 10
23.781
 20
52.931
 30
0.0
  0
INSERT
  5
108
330
17
100
AcDbEntity
  8
0
100
AcDbBlockReference
  2
HEX
 10
27.312
 20
52.931
 30
0.0
  0
INSERT
  5
10A
330
17
100
AcDbEntity
  8
0
100
AcDbBlockReference
  2
HEX
 10
30.843
 20
52.931
 30
0.0
  0
INSERT
  5
10C
330
17
100
AcDbEntity
  8
0
100
AcDbBlockReference
  2
HEX
 10
34.375
 20
52.931
 30
0.0
  0
INSERT
  5
10E
330
17
100
AcDbEntity
  8
0
100
AcDbBlockReference
  2
HEX
 10
37.906
 20
52.931
 30
0.0
  0
INSERT
  5
110
330
17
100
AcDbEntity
  8
0
100
AcDbBlockReference
  2
HEX
 10
41.437
 20
52.931
 30
0.0
  0
INSERT
  5
112
330
17
100
AcDbEntity
  8
0
100
AcDbBlockReference
  2
HEX
 10
44.968
 20
52.931
 30
0.0
  0
INSERT
  5
114
330
17
100
AcDbEntity
  8
0
100
AcDbBlockReference
  2
HEX
 10
48.499
 20
52.931
 30
0.0
  0
INSERT
  5
116
330
17
100
AcDbEntity
  8
0
100
AcDbBlockReference
  2
HEX
 10
52.03
 20
52.931
 30
0.0
  0
LWPOLYLINE
  5
118
330
17
100
AcDbEntity
  8
0
100
AcDbPolyline
 90
6
 70
1
 10
56.15
 20
51.522
 10
55.561
 20
51.181
 10
54.046
 20
52.056
 10
54.046
 20
53.806
 10
54.832
 20
54.26
 10
56.15
 20
51.522
  0
LWPOLYLINE
  5
119
330
17
100
AcDbEntity
  8
0
100
AcDbPolyline
 90
6
 70
1
 10
18.027
 20
57.475
 10
18.485
 20
57.739
 10
20.0
 20
56.864
 10
20.0
 20
55.114
 10
19.172
 20
54.637
 10
18.027
 20
57.475
  0
INSERT
  5
11A
330
17
100
AcDbEntity
  8
0
100
AcDbBlockReference
  2
HEX
 10
22.016
 20
55.989
 30
0.0
  0
INSERT
  5
11C
330
17
100
AcDbEntity
  8
0
100
AcDbBlockReference
  2
HEX
 10
25.547
 20
55.989
 30
0.0
  0
INSERT
  5
11E
330
17
100
AcDbEntity
  8
0
100
AcDbBlockReference
  2
HEX
 10
29.078
 20
55.989
 30
0.0
  0
INSERT
  5
120
330
17
100
AcDbEntity
  8
0
100
AcDbBlockReference
  2
HEX
 10
32.609
 20
55.989
 30
0.0
  0
INSERT
  5
122
330
17
100
AcDbEntity
  8
0
100
AcDbBlockReference
  2
HEX
 10
36.14
 20
55.989
 30
0.0
  0
INSERT
  5
124
330
17
100
AcDbEntity
  8
0
100
AcDbBlockReference
  2
HEX
 10
39.671
 20
55.989
 30
0.0
  0
INSERT
  5
126
330
17
100
AcDbEntity
  8
0
100
AcDbBlockReference
  2
HEX
 10
43.202
 20
55.989
 30
0.0
  0
INSERT
  5
128
330
17
100
AcDbEntity
  8
0
100
AcDbBlockReference
  2
HEX
 10
46.733
 20
55.989
 30
0.0
  0
INSERT
  5
12A
330
17
100
AcDbEntity
  8
0
100
AcDbBlockReference
  2
HEX
 10
50.264
 20
55.989
 30
0.0
  0
LWPOLYLINE
  5
12C
330
17
100
AcDbEntity
  8
0
100
AcDbPolyline
 90
6
 70
1
 10
54.622
 20
54.717
 10
53.796
 20
54.239
 10
52.28
 20
55.114
 10
52.28
 20
56.864
 10
53.59
 20
57.621
 10
54.622
 20
54.717
  0
LWPOLYLINE
  5
12D
330
17
100
AcDbEntity
  8
0
100
AcDbPolyline
 90
6
 70
1
 10
16.692
 20
60.782
 10
16.719
 20
60.797
 10
18.235
 20
59.922
 10
18.235
 20
58.172
 10
17.838
 20
57.943
 10
16.692
 20
60.782
  0
INSERT
  5
12E
330
17
100
AcDbEntity
  8
0
100
AcDbBlockReference
  2
HEX
 10
20.25
 20
59.047
 30
0.0
  0
INSERT
  5
130
330
17
100
AcDbEntity
  8
0
100
AcDbBlockReference
  2
HEX
 10
23.781
 20
59.047
 30
0.0
  0
INSERT
  5
132
330
17
100
AcDbEntity
  8
0
100
AcDbBlockReference
  2
HEX
 10
27.312
 20
59.047
 30
0.0
  0
INSERT
  5
134
330
17
100
AcDbEntity
  8
0
100
AcDbBlockReference
  2
HEX
 10
30.843
 20
59.047
 30
0.0
  0
INSERT
  5
136
330
17
100
AcDbEntity
  8
0
100
AcDbBlockReference
  2
HEX
 10
34.375
 20
59.047
 30
0.0
  0
INSERT
  5
138
330
17
100
AcDbEntity
  8
0
100
AcDbBlockReference
  2
HEX
 10
37.906
 20
59.047
 30
0.0
  0
INSERT
  5
13A
330
17
100
AcDbEntity
  8
0
100
AcDbBlockReference
  2
HEX
 10
41.437
 20
59.047
 30
0.0
  0
INSERT
  5
13C
330
17
100
AcDbEntity
  8
0
100
AcDbBlockReference
  2
HEX
 10
44.968
 20
59.047
 30
0.0
  0
INSERT
  5
13E
330
17
100
AcDbEntity
  8
0
100
AcDbBlockReference
  2
HEX
 10
48.499
 20
59.047
 30
0.0
  0
LWPOLYLINE
  5
140
330
17
100
AcDbEntity
  8
0
100
AcDbPolyline
 90
8
 70
1
 10
53.112
 20
58.967
 10
53.42
 20
58.1
 10
52.03
 20
57.297
 10
50.514
 20
58.172
 10
50.514
 20
59.922
 10
52.03
 20
60.797
 10
52.788
 20
60.36
 10
53.112
 20
58.967
  0
LWPOLYLINE
  5
141
330
17
100
AcDbEntity
  8
0
100
AcDbPolyline
 90
4
 70
1
 10
15.603
 20
63.481
 10
16.469
 20
62.98
 10
16.469
 20
61.334
 10
15.603
 20
63.481
  0
INSERT
  5
142
330
17
100
AcDbEntity
  8
0
100
AcDbBlockReference
  2
HEX
 10
18.485
 20
62.105
 30
0.0
  0
INSERT
  5
144
330
17
100
AcDbEntity
  8
0
100
AcDbBlockReference
  2
HEX
 10
22.016
 20
62.105
 30
0.0
  0
INSERT
  5
146
330
17
100
AcDbEntity
  8
0
100
AcDbBlockReference
  2
HEX
 10
25.547
 20
62.105
 30
0.0
  0
INSERT
  5
148
330
17
100
AcDbEntity
  8
0
100
AcDbBlockReference
  2
HEX
 10
29.078
 20
62.105
 30
0.0
  0
INSERT
  5
14A
330
17
100
AcDbEntity
  8
0
100
AcDbBlockReference
  2
HEX
 10
32.609
 20
62.105
 30
0.0
  0
INSERT
  5
14C
330
17
100
AcDbEntity
  8
0
100
AcDbBlockReference
  2
HEX
 10
36.14
 20
62.105
 30
0.0
  0
INSERT
  5
14E
330
17
100
AcDbEntity
  8
0
100
AcDbBlockReference
  2
HEX
 10
39.671
 20
62.105
 30
0.0
  0
INSERT
  5
150
330
17
100
AcDbEntity
  8
0
100
AcDbBlockReference
  2
HEX
 10
43.202
 20
62.105
 30
0.0
  0
INSERT
  5
152
330
17
100
AcDbEntity
  8
0
100
AcDbBlockReference
  2
HEX
 10
46.733
 20
62.105
 30
0.0
  0
INSERT
  5
154
330
17
100
AcDbEntity
  8
0
100
AcDbBlockReference
  2
HEX
 10
50.264
 20
62.105
 30
0.0
  0
LWPOLYLINE
  5
156
330
17
100
AcDbEntity
  8
0
100
AcDbPolyline
 90
6
 70
1
 10
52.597
 20
61.182
 10
52.633
 20
61.027
 10
52.28
 20
61.23
 10
52.28
 20
62.98
 10
52.349
 20
63.02
 10
52.597
 20
61.182
  0
LWPOLYLINE
  5
157
330
17
100
AcDbEntity
  8
0
100
AcDbPolyline
 90
4
 70
1
 10
14.434
 20
66.194
 10
14.704
 20
66.038
 10
14.704
 20
65.687
 10
14.434
 20
66.194
  0
LWPOLYLINE
  5
158
330
17
100
AcDbEntity
  8
0
100
AcDbPolyline
 90
8
 70
1
 10
15.204
 20
64.47
 10
15.204
 20
66.038
 10
16.719
 20
66.913
 10
18.235
 20
66.038
 10
18.235
 20
64.288
 10
16.719
 20
63.413
 10
15.299
 20
64.233
 10
15.204
 20
64.47
  0
INSERT
  5
159
330
17
100
AcDbEntity
  8
0
100
AcDbBlockReference
  2
HEX
 10
20.25
 20
65.163
 30
0.0
  0
INSERT
  5
15B
330
17
100
AcDbEntity
  8
0
100
AcDbBlockReference
  2
HEX
 10
23.781
 20
65.163
 30
0.0
  0
INSERT
  5
15D
330
17
100
AcDbEntity
  8
0
100
AcDbBlockReference
  2
HEX
 10
27.312
 20
65.163
 30
0.0
  0
INSERT
  5
15F
330
17
100
AcDbEntity
  8
0
100
AcDbBlockReference
  2
HEX
 10
30.843
 20
65.163
 30
0.0
  0
INSERT
  5
161
330
17
100
AcDbEntity
  8
0
100
AcDbBlockReference
  2
HEX
 10
34.375
 20
65.163
 30
0.0
  0
INSERT
  5
163
330
17
100
AcDbEntity
  8
0
100
AcDbBlockReference
  2
HEX
 10
37.906
 20
65.163
 30
0.0
  0
INSERT
  5
165
330
17
100
AcDbEntity
  8
0
100
AcDbBlockReference
  2
HEX
 10
41.437
 20
65.163
 30
0.0
  0
INSERT
  5
167
330
17
100
AcDbEntity
  8
0
100
AcDbBlockReference
  2
HEX
 10
44.968
 20
65.163
 30
0.0
  0
INSERT
  5
169
330
17
100
AcDbEntity
  8
0
100
AcDbBlockReference
  2
HEX
 10
48.499
 20
65.163
 30
0.0
  0
LWPOLYLINE
  5
16B
330
17
100
AcDbEntity
  8
0
100
AcDbPolyline
 90
8
 70
1
 10
52.159
 20
66.839
 10
52.202
 20
64.113
 10
52.277
 20
63.556
 10
52.03
 20
63.413
 10
50.514
 20
64.288
 10
50.514
 20
66.038
 10
52.03
 20
66.913
 10
52.159
 20
66.839
  0
LWPOLYLINE
  5
16C
330
17
100
AcDbEntity
  8
0
100
AcDbPolyline
 90
7
 70
1
 10
12.626
 20
68.758
 10
11.722
 20
69.634
 10
11.348
 20
69.928
 10
11.422
 20
69.972
 10
12.938
 20
69.097
 10
12.938
 20
68.386
 10
12.626
 20
68.758
  0
LWPOLYLINE
  5
16D
330
17
100
AcDbEntity
  8
0
100
AcDbPolyline
 90
8
 70
1
 10
13.438
 20
67.788
 10
13.438
 20
69.097
 10
14.954
 20
69.972
 10
16.469
 20
69.097
 10
16.469
 20
67.347
 10
14.954
 20
66.472
 10
13.925
 20
67.065
 10
13.438
 20
67.788
  0
INSERT
  5
16E
330
17
100
AcDbEntity
  8
0
100
AcDbBlockReference
  2
HEX
 10
18.485
 20
68.222
 30
0.0
  0
INSERT
  5
170
330
17
100
AcDbEntity
  8
0
100
AcDbBlockReference
  2
HEX
 10
22.016
 20
68.222
 30
0.0
  0
INSERT
  5
172
330
17
100
AcDbEntity
  8
0
100
AcDbBlockReference
  2
HEX
 10
25.547
 20
68.222
 30
0.0
  0
INSERT
  5
174
330
17
100
AcDbEntity
  8
0
100
AcDbBlockReference
  2
HEX
 10
29.078
 20
68.222
 30
0.0
  0
INSERT
  5
176
330
17
100
AcDbEntity
  8
0
100
AcDbBlockReference
  2
HEX
 10
32.609
 20
68.222
 30
0.0
  0
INSERT
  5
178
330
17
100
AcDbEntity
  8
0
100
AcDbBlockReference
  2
HEX
 10
36.14
 20
68.222
 30
0.0
  0
INSERT
  5
17A
330
17
100
AcDbEntity
  8
0
100
AcDbBlockReference
  2
HEX
 10
39.671
 20
68.222
 30
0.0
  0
INSERT
  5
17C
330
17
100
AcDbEntity
  8
0
100
AcDbBlockReference
  2
HEX
 10
43.202
 20
68.222
 30
0.0
  0
INSERT
  5
17E
330
17
100
AcDbEntity
  8
0
100
AcDbBlockReference
  2
HEX
 10
46.733
 20
68.222
 30
0.0
  0
INSERT
  5
180
330
17
100
AcDbEntity
  8
0
100
AcDbBlockReference
  2
HEX
 10
50.264
 20
68.222
 30
0.0
  0
LWPOLYLINE
  5
182
330
17
100
AcDbEntity
  8
0
100
AcDbPolyline
 90
4
 70
1
 10
52.28
 20
67.95
 10
52.28
 20
69.097
 10
52.413
 20
69.173
 10
52.28
 20
67.95
  0
LWPOLYLINE
  5
183
330
17
100
AcDbEntity
  8
0
100
AcDbPolyline
 90
5
 70
1
 10
5.446
 20
72.637
 10
6.126
 20
73.03
 10
7.641
 20
72.155
 10
7.641
 20
71.931
 10
5.446
 20
72.637
  0
LWPOLYLINE
  5
184
330
17
100
AcDbEntity
  8
0
100
AcDbPolyline
 90
10
 70
1
 10
10.731
 20
70.413
 10
9.66
 20
71.087
 10
8.517
 20
71.65
 10
8.141
 20
71.77
 10
8.141
 20
72.155
 10
9.657
 20
73.03
 10
11.172
 20
72.155
 10
11.172
 20
70.405
 10
10.924
 20
70.261
 10
10.731
 20
70.413
  0
INSERT
  5
185
330
17
100
AcDbEntity
  8
0
100
AcDbBlockReference
  2
HEX
 10
13.188
 20
71.28
 30
0.0
  0
INSERT
  5
187
330
17
100
AcDbEntity
  8
0
100
AcDbBlockReference
  2
HEX
 10
16.719
 20
71.28
 30
0.0
  0
INSERT
  5
189
330
17
100
AcDbEntity
  8
0
100
AcDbBlockReference
  2
HEX
 10
20.25
 20
71.28
 30
0.0
  0
INSERT
  5
18B
330
17
100
AcDbEntity
  8
0
100
AcDbBlockReference
  2
HEX
 10
23.781
 20
71.28
 30
0.0
  0
INSERT
  5
18D
330
17
100
AcDbEntity
  8
0
100
AcDbBlockReference
  2
HEX
 10
27.312
 20
71.28
 30
0.0
  0
INSERT
  5
18F
330
17
100
AcDbEntity
  8
0
100
AcDbBlockReference
  2
HEX
 10
30.843
 20
71.28
 30
0.0
  0
INSERT
  5
191
330
17
100
AcDbEntity
  8
0
100
AcDbBlockReference
  2
HEX
 10
34.375
 20
71.28
 30
0.0
  0
INSERT
  5
193
330
17
100
AcDbEntity
  8
0
100
AcDbBlockReference
  2
HEX
 10
37.906
 20
71.28
 30
0.0
  0
INSERT
  5
195
330
17
100
AcDbEntity
  8
0
100
AcDbBlockReference
  2
HEX
 10
41.437
 20
71.28
 30
0.0
  0
INSERT
  5
197
330
17
100
AcDbEntity
  8
0
100
AcDbBlockReference
  2
HEX
 10
44.968
 20
71.28
 30
0.0
  0
INSERT
  5
199
330
17
100
AcDbEntity
  8
0
100
AcDbBlockReference
  2
HEX
 10
48.499
 20
71.28
 30
0.0
  0
LWPOLYLINE
  5
19B
330
17
100
AcDbEntity
  8
0
100
AcDbPolyline
 90
8
 70
1
 10
52.968
 20
71.512
 10
52.561
 20
69.836
 10
52.03
 20
69.53
 10
50.514
 20
70.405
 10
50.514
 20
72.155
 10
52.03
 20
73.03
 10
53.277
 20
72.31
 10
52.968
 20
71.512
  0
LWPOLYLINE
  5
19C
330
17
100
AcDbEntity
  8
0
100
AcDbPolyline
 90
12
 70
1
 10
-8.888
 20
74.925
 10
-9.034
 20
74.961
 10
-9.312
 20
75.064
 10
-9.569
 20
75.206
 10
-9.689
 20
75.291
 10
-9.908
 20
75.486
 10
-10.006
 20
75.595
 10
-10.183
 20
75.846
 10
-9.764
 20
76.088
 10
-8.249
 20
75.213
 10
-8.249
 20
74.854
 10
-8.888
 20
74.925
  0
LWPOLYLINE
  5
19D
330
17
100
AcDbEntity
  8
0
100
AcDbPolyline
 90
6
 70
1
 10
-7.749
 20
74.798
 10
-7.749
 20
75.213
 10
-6.233
 20
76.088
 10
-4.717
 20
75.213
 10
-4.717
 20
74.462
 10
-7.749
 20
74.798
  0
LWPOLYLINE
  5
19E
330
17
100
AcDbEntity
  8
0
100
AcDbPolyline
 90
6
 70
1
 10
-4.217
 20
74.407
 10
-4.217
 20
75.213
 10
-2.702
 20
76.088
 10
-1.186
 20
75.213
 10
-1.186
 20
74.07
 10
-4.217
 20
74.407
  0
LWPOLYLINE
  5
19F
330
17
100
AcDbEntity
  8
0
100
AcDbPolyline
 90
8
 70
1
 10
0.192
 20
73.918
 10
-0.686
 20
74.015
 10
-0.686
 20
75.213
 10
0.829
 20
76.088
 10
2.345
 20
75.213
 10
2.345
 20
73.463
 10
2.33
 20
73.454
 10
0.192
 20
73.918
  0
LWPOLYLINE
  5
1A0
330
17
100
AcDbEntity
  8
0
100
AcDbPolyline
 90
9
 70
1
 10
4.095
 20
73.071
 10
3.178
 20
73.27
 10
2.845
 20
73.463
 10
2.845
 20
75.213
 10
4.36
 20
76.088
 10
5.876
 20
75.213
 10
5.876
 20
73.463
 10
4.804
 20
72.844
 10
4.095
 20
73.071
  0
INSERT
  5
1A1
330
17
100
AcDbEntity
  8
0
100
AcDbBlockReference
  2
HEX
 10
7.891
 20
74.338
 30
0.0
  0
INSERT
  5
1A3
330
17
100
AcDbEntity
  8
0
100
AcDbBlockReference
  2
HEX
 10
11.422
 20
74.338
 30
0.0
  0
INSERT
  5
1A5
330
17
100
AcDbEntity
  8
0
100
AcDbBlockReference
  2
HEX
 10
14.954
 20
74.338
 30
0.0
  0
INSERT
  5
1A7
330
17
100
AcDbEntity
  8
0
100
AcDbBlockReference
  2
HEX
 10
18.485
 20
74.338
 30
0.0
  0
INSERT
  5
1A9
330
17
100
AcDbEntity
  8
0
100
AcDbBlockReference
  2
HEX
 10
22.016
 20
74.338
 30
0.0
  0
INSERT
  5
1AB
330
17
100
AcDbEntity
  8
0
100
AcDbBlockReference
  2
HEX
 10
25.547
 20
74.338
 30
0.0
  0
INSERT
  5
1AD
330
17
100
AcDbEntity
  8
0
100
AcDbBlockReference
  2
HEX
 10
29.078
 20
74.338
 30
0.0
  0
INSERT
  5
1AF
330
17
100
AcDbEntity
  8
0
100
AcDbBlockReference
  2
HEX
 10
32.609
 20
74.338
 30
0.0
  0
INSERT
  5
1B1
330
17
100
AcDbEntity
  8
0
100
AcDbBlockReference
  2
HEX
 10
36.14
 20
74.338
 30
0.0
  0
INSERT
  5
1B3
330
17
100
AcDbEntity
  8
0
100
AcDbBlockReference
  2
HEX
 10
39.671
 20
74.338
 30
0.0
  0
INSERT
  5
1B5
330
17
100
AcDbEntity
  8
0
100
AcDbBlockReference
  2
HEX
 10
43.202
 20
74.338
 30
0.0
  0
INSERT
  5
1B7
330
17
100
AcDbEntity
  8
0
100
AcDbBlockReference
  2
HEX
 10
46.733
 20
74.338
 30
0.0
  0
INSERT
  5
1B9
330
17
100
AcDbEntity
  8
0
100
AcDbBlockReference
  2
HEX
 10
50.264
 20
74.338
 30
0.0
  0
LWPOLYLINE
  5
1BB
330
17
100
AcDbEntity
  8
0
100
AcDbPolyline
 90
8
 70
1
 10
54.747
 20
75.378
 10
53.755
 20
73.545
 10
53.459
 20
72.782
 10
52.28
 20
73.463
 10
52.28
 20
75.213
 10
53.796
 20
76.088
 10
54.828
 20
75.491
 10
54.747
 20
75.378
  0
LWPOLYLINE
  5
1BC
330
17
100
AcDbEntity
  8
0
100
AcDbPolyline
 90
10
 70
1
 10
-35.051
 20
76.986
 10
-35.552
 20
77.196
 10
-36.031
 20
77.446
 10
-36.485
 20
77.735
 10
-36.911
 20
78.062
 10
-37.375
 20
78.495
 10
-36.247
 20
79.146
 10
-34.732
 20
78.271
 10
-34.732
 20
76.884
 10
-35.051
 20
76.986
  0
LWPOLYLINE
  5
1BD
330
17
100
AcDbEntity
  8
0
100
AcDbPolyline
 90
8
 70
1
 10
-33.442
 20
76.625
 10
-33.994
 20
76.699
 10
-34.232
 20
76.753
 10
-34.232
 20
78.271
 10
-32.716
 20
79.146
 10
-31.201
 20
78.271
 10
-31.201
 20
76.619
 10
-33.442
 20
76.625
  0
LWPOLYLINE
  5
1BE
330
17
100
AcDbEntity
  8
0
100
AcDbPolyline
 90
6
 70
1
 10
-30.701
 20
76.618
 10
-30.701
 20
78.271
 10
-29.185
 20
79.146
 10
-27.67
 20
78.271
 10
-27.67
 20
76.61
 10
-30.701
 20
76.618
  0
LWPOLYLINE
  5
1BF
330
17
100
AcDbEntity
  8
0
100
AcDbPolyline
 90
6
 70
1
 10
-27.17
 20
76.609
 10
-27.17
 20
78.271
 10
-25.654
 20
79.146
 10
-24.138
 20
78.271
 10
-24.138
 20
76.602
 10
-27.17
 20
76.609
  0
LWPOLYLINE
  5
1C0
330
17
100
AcDbEntity
  8
0
100
AcDbPolyline
 90
4
 70
1
 10
-23.638
 20
76.6
 10
-23.638
 20
77.218
 10
-23.425
 20
76.6
 10
-23.638
 20
76.6
  0
LWPOLYLINE
  5
1C1
330
17
100
AcDbEntity
  8
0
100
AcDbPolyline
 90
5
 70
1
 10
-11.236
 20
78.976
 10
-10.014
 20
78.271
 10
-10.014
 20
76.521
 10
-10.378
 20
76.31
 10
-11.236
 20
78.976
  0
INSERT
  5
1C2
330
17
100
AcDbEntity
  8
0
100
AcDbBlockReference
  2
HEX
 10
-7.999
 20
77.396
 30
0.0
  0
INSERT
  5
1C4
330
17
100
AcDbEntity
  8
0
100
AcDbBlockReference
  2
HEX
 10
-4.467
 20
77.396
 30
0.0
  0
INSERT
  5
1C6
330
17
100
AcDbEntity
  8
0
100
AcDbBlockReference
  2
HEX
 10
-0.936
 20
77.396
 30
0.0
  0
INSERT
  5
1C8
330
17
100
AcDbEntity
  8
0
100
AcDbBlockReference
  2
HEX
 10
2.595
 20
77.396
 30
0.0
  0
INSERT
  5
1CA
330
17
100
AcDbEntity
  8
0
100
AcDbBlockReference
  2
HEX
 10
6.126
 20
77.396
 30
0.0
  0
INSERT
  5
1CC
330
17
100
AcDbEntity
  8
0
100
AcDbBlockReference
  2
HEX
 10
9.657
 20
77.396
 30
0.0
  0
LWPOLYLINE
  5
1CE
330
17
100
AcDbEntity
  8
0
100
AcDbPolyline
 90
16
 70
1
 10
11.761
 20
78.322
 10
11.814
 20
77.913
 10
11.864
 20
77.75
 10
12.011
 20
77.446
 10
12.104
 20
77.308
 10
12.329
 20
77.061
 10
12.596
 20
76.861
 10
12.9
 20
76.714
 10
13.233
 20
76.629
 10
13.409
 20
76.611
 10
14.704
 20
76.611
 10
14.704
 20
76.521
 10
13.188
 20
75.646
 10
11.672
 20
76.521
 10
11.672
 20
78.271
 10
11.761
 20
78.322
  0
LWPOLYLINE
  5
1CF
330
17
100
AcDbEntity
  8
0
100
AcDbPolyline
 90
6
 70
1
 10
18.235
 20
76.611
 10
18.235
 20
76.521
 10
16.719
 20
75.646
 10
15.204
 20
76.521
 10
15.204
 20
76.611
 10
18.235
 20
76.611
  0
LWPOLYLINE
  5
1D0
330
17
100
AcDbEntity
  8
0
100
AcDbPolyline
 90
6
 70
1
 10
21.766
 20
76.61
 10
21.766
 20
76.521
 10
20.25
 20
75.646
 10
18.735
 20
76.521
 10
18.735
 20
76.61
 10
21.766
 20
76.61
  0
LWPOLYLINE
  5
1D1
330
17
100
AcDbEntity
  8
0
100
AcDbPolyline
 90
6
 70
1
 10
25.297
 20
76.61
 10
25.297
 20
76.521
 10
23.781
 20
75.646
 10
22.266
 20
76.521
 10
22.266
 20
76.61
 10
25.297
 20
76.61
  0
LWPOLYLINE
  5
1D2
330
17
100
AcDbEntity
  8
0
100
AcDbPolyline
 90
15
 70
1
 10
26.51
 20
76.61
 10
26.781
 20
76.634
 10
27.045
 20
76.69
 10
27.299
 20
76.776
 10
27.54
 20
76.891
 10
27.767
 20
77.033
 10
27.976
 20
77.202
 10
28.165
 20
77.395
 10
28.808
 20
78.282
 10
28.828
 20
78.271
 10
28.828
 20
76.521
 10
27.312
 20
75.646
 10
25.797
 20
76.521
 10
25.797
 20
76.61
 10
26.51
 20
76.61
  0
INSERT
  5
1D3
330
17
100
AcDbEntity
  8
0
100
AcDbBlockReference
  2
HEX
 10
30.843
 20
77.396
 30
0.0
  0
INSERT
  5
1D5
330
17
100
AcDbEntity
  8
0
100
AcDbBlockReference
  2
HEX
 10
34.375
 20
77.396
 30
0.0
  0
INSERT
  5
1D7
330
17
100
AcDbEntity
  8
0
100
AcDbBlockReference
  2
HEX
 10
37.906
 20
77.396
 30
0.0
  0
INSERT
  5
1D9
330
17
100
AcDbEntity
  8
0
100
AcDbBlockReference
  2
HEX
 10
41.437
 20
77.396
 30
0.0
  0
INSERT
  5
1DB
330
17
100
AcDbEntity
  8
0
100
AcDbBlockReference
  2
HEX
 10
44.968
 20
77.396
 30
0.0
  0
INSERT
  5
1DD
330
17
100
AcDbEntity
  8
0
100
AcDbBlockReference
  2
HEX
 10
48.499
 20
77.396
 30
0.0
  0
INSERT
  5
1DF
330
17
100
AcDbEntity
  8
0
100
AcDbBlockReference
  2
HEX
 10
52.03
 20
77.396
 30
0.0
  0
LWPOLYLINE
  5
1E1
330
17
100
AcDbEntity
  8
0
100
AcDbPolyline
 90
7
 70
1
 10
55.91
 20
77.019
 10
55.118
 20
75.901
 10
54.046
 20
76.521
 10
54.046
 20
78.271
 10
55.561
 20
79.146
 10
57.041
 20
78.291
 10
55.91
 20
77.019
  0
LWPOLYLINE
  5
1E2
330
17
100
AcDbEntity
  8
0
100
AcDbPolyline
 90
11
 70
1
 10
-38.004
 20
79.243
 10
-38.298
 20
79.698
 10
-38.552
 20
80.18
 10
-38.765
 20
80.688
 10
-38.933
 20
81.218
 10
-39.028
 20
81.617
 10
-38.013
 20
82.204
 10
-36.497
 20
81.329
 10
-36.497
 20
79.579
 10
-37.718
 20
78.874
 10
-38.004
 20
79.243
  0
INSERT
  5
1E3
330
17
100
AcDbEntity
  8
0
100
AcDbBlockReference
  2
HEX
 10
-34.482
 20
80.454
 30
0.0
  0
INSERT
  5
1E5
330
17
100
AcDbEntity
  8
0
100
AcDbBlockReference
  2
HEX
 10
-30.951
 20
80.454
 30
0.0
  0
INSERT
  5
1E7
330
17
100
AcDbEntity
  8
0
100
AcDbBlockReference
  2
HEX
 10
-27.42
 20
80.454
 30
0.0
  0
LWPOLYLINE
  5
1E9
330
17
100
AcDbEntity
  8
0
100
AcDbPolyline
 90
5
 70
1
 10
-24.216
 20
78.893
 10
-25.404
 20
79.579
 10
-25.404
 20
81.329
 10
-25.114
 20
81.496
 10
-24.216
 20
78.893
  0
LWPOLYLINE
  5
1EA
330
17
100
AcDbEntity
  8
0
100
AcDbPolyline
 90
4
 70
1
 10
-12.042
 20
81.48
 10
-11.78
 20
81.329
 10
-11.78
 20
80.664
 10
-12.042
 20
81.48
  0
INSERT
  5
1EB
330
17
100
AcDbEntity
  8
0
100
AcDbBlockReference
  2
HEX
 10
-9.764
 20
80.454
 30
0.0
  0
INSERT
  5
1ED
330
17
100
AcDbEntity
  8
0
100
AcDbBlockReference
  2
HEX
 10
-6.233
 20
80.454
 30
0.0
  0
INSERT
  5
1EF
330
17
100
AcDbEntity
  8
0
100
AcDbBlockReference
  2
HEX
 10
-2.702
 20
80.454
 30
0.0
  0
INSERT
  5
1F1
330
17
100
AcDbEntity
  8
0
100
AcDbBlockReference
  2
HEX
 10
0.829
 20
80.454
 30
0.0
  0
INSERT
  5
1F3
330
17
100
AcDbEntity
  8
0
100
AcDbBlockReference
  2
HEX
 10
4.36
 20
80.454
 30
0.0
  0
INSERT
  5
1F5
330
17
100
AcDbEntity
  8
0
100
AcDbBlockReference
  2
HEX
 10
7.891
 20
80.454
 30
0.0
  0
LWPOLYLINE
  5
1F7
330
17
100
AcDbEntity
  8
0
100
AcDbPolyline
 90
9
 70
1
 10
11.711
 20
81.826
 10
11.753
 20
81.412
 10
11.759
 20
78.898
 10
11.422
 20
78.704
 10
9.907
 20
79.579
 10
9.907
 20
81.329
 10
11.422
 20
82.204
 10
11.662
 20
82.065
 10
11.711
 20
81.826
  0
LWPOLYLINE
  5
1F8
330
17
100
AcDbEntity
  8
0
100
AcDbPolyline
 90
4
 70
1
 10
30.593
 20
80.747
 10
30.593
 20
79.579
 10
29.139
 20
78.739
 10
30.593
 20
80.747
  0
INSERT
  5
1F9
330
17
100
AcDbEntity
  8
0
100
AcDbBlockReference
  2
HEX
 10
32.609
 20
80.454
 30
0.0
  0
INSERT
  5
1FB
330
17
100
AcDbEntity
  8
0
100
AcDbBlockReference
  2
HEX
 10
36.14
 20
80.454
 30
0.0
  0
INSERT
  5
1FD
330
17
100
AcDbEntity
  8
0
100
AcDbBlockReference
  2
HEX
 10
39.671
 20
80.454
 30
0.0
  0
INSERT
  5
1FF
330
17
100
AcDbEntity
  8
0
100
AcDbBlockReference
  2
HEX
 10
43.202
 20
80.454
 30
0.0
  0
INSERT
  5
201
330
17
100
AcDbEntity
  8
0
100
AcDbBlockReference
  2
HEX
 10
46.733
 20
80.454
 30
0.0
  0
INSERT
  5
203
330
17
100
AcDbEntity
  8
0
100
AcDbBlockReference
  2
HEX
 10
50.264
 20
80.454
 30
0.0
  0
INSERT
  5
205
330
17
100
AcDbEntity
  8
0
100
AcDbBlockReference
  2
HEX
 10
53.796
 20
80.454
 30
0.0
  0
LWPOLYLINE
  5
207
330
17
100
AcDbEntity
  8
0
100
AcDbPolyline
 90
9
 70
1
 10
58.605
 20
79.766
 10
57.662
 20
78.897
 10
57.327
 20
78.704
 10
55.811
 20
79.579
 10
55.811
 20
81.329
 10
57.327
 20
82.204
 10
58.842
 20
81.329
 10
58.842
 20
79.949
 10
58.605
 20
79.766
  0
LWPOLYLINE
  5
208
330
17
100
AcDbEntity
  8
0
100
AcDbPolyline
 90
6
 70
1
 10
60.065
 20
80.892
 10
59.342
 20
80.335
 10
59.342
 20
81.329
 10
60.858
 20
82.204
 10
61.559
 20
81.799
 10
60.065
 20
80.892
  0
LWPOLYLINE
  5
209
330
17
100
AcDbEntity
  8
0
100
AcDbPolyline
 90
6
 70
1
 10
-39.809
 20
84.899
 10
-39.15
 20
84.899
 10
-38.263
 20
84.387
 10
-38.263
 20
82.637
 10
-39.149
 20
82.125
 10
-39.809
 20
84.899
  0
LWPOLYLINE
  5
20A
330
17
100
AcDbEntity
  8
0
100
AcDbPolyline
 90
8
 70
1
 10
-35.619
 20
84.899
 10
-34.732
 20
84.387
 10
-34.732
 20
82.637
 10
-36.247
 20
81.762
 10
-37.763
 20
82.637
 10
-37.763
 20
84.387
 10
-36.875
 20
84.899
 10
-35.619
 20
84.899
  0
LWPOLYLINE
  5
20B
330
17
100
AcDbEntity
  8
0
100
AcDbPolyline
 90
8
 70
1
 10
-32.088
 20
84.899
 10
-31.201
 20
84.387
 10
-31.201
 20
82.637
 10
-32.716
 20
81.762
 10
-34.232
 20
82.637
 10
-34.232
 20
84.387
 10
-33.344
 20
84.899
 10
-32.088
 20
84.899
  0
LWPOLYLINE
  5
20C
330
17
100
AcDbEntity
  8
0
100
AcDbPolyline
 90
8
 70
1
 10
-28.557
 20
84.899
 10
-27.67
 20
84.387
 10
-27.67
 20
82.637
 10
-29.185
 20
81.762
 10
-30.701
 20
82.637
 10
-30.701
 20
84.387
 10
-29.813
 20
84.899
 10
-28.557
 20
84.899
  0
LWPOLYLINE
  5
20D
330
17
100
AcDbEntity
  8
0
100
AcDbPolyline
 90
6
 70
1
 10
-25.28
 20
81.978
 10
-25.654
 20
81.762
 10
-27.17
 20
82.637
 10
-27.17
 20
84.387
 10
-26.286
 20
84.896
 10
-25.28
 20
81.978
  0
LWPOLYLINE
  5
20E
330
17
100
AcDbEntity
  8
0
100
AcDbPolyline
 90
7
 70
1
 10
-12.988
 20
84.419
 10
-11.53
 20
85.262
 10
-10.014
 20
84.387
 10
-10.014
 20
82.637
 10
-11.53
 20
81.762
 10
-12.271
 20
82.189
 10
-12.988
 20
84.419
  0
INSERT
  5
20F
330
17
100
AcDbEntity
  8
0
100
AcDbBlockReference
  2
HEX
 10
-7.999
 20
83.512
 30
0.0
  0
INSERT
  5
211
330
17
100
AcDbEntity
  8
0
100
AcDbBlockReference
  2
HEX
 10
-4.467
 20
83.512
 30
0.0
  0
INSERT
  5
213
330
17
100
AcDbEntity
  8
0
100
AcDbBlockReference
  2
HEX
 10
-0.936
 20
83.512
 30
0.0
  0
INSERT
  5
215
330
17
100
AcDbEntity
  8
0
100
AcDbBlockReference
  2
HEX
 10
2.595
 20
83.512
 30
0.0
  0
INSERT
  5
217
330
17
100
AcDbEntity
  8
0
100
AcDbBlockReference
  2
HEX
 10
6.126
 20
83.512
 30
0.0
  0
LWPOLYLINE
  5
219
330
17
100
AcDbEntity
  8
0
100
AcDbPolyline
 90
13
 70
1
 10
9.433
 20
84.901
 10
9.782
 20
84.712
 10
10.11
 20
84.49
 10
10.414
 20
84.239
 10
10.692
 20
83.961
 10
10.943
 20
83.657
 10
11.172
 20
83.315
 10
11.172
 20
82.637
 10
9.657
 20
81.762
 10
8.141
 20
82.637
 10
8.141
 20
84.387
 10
9.202
 20
84.999
 10
9.433
 20
84.901
  0
LWPOLYLINE
  5
21A
330
17
100
AcDbEntity
  8
0
100
AcDbPolyline
 90
4
 70
1
 10
31.677
 20
82.243
 10
32.359
 20
83.182
 10
32.359
 20
82.637
 10
31.677
 20
82.243
  0
LWPOLYLINE
  5
21B
330
17
100
AcDbEntity
  8
0
100
AcDbPolyline
 90
10
 70
1
 10
33.254
 20
84.095
 10
33.777
 20
84.468
 10
34.338
 20
84.777
 10
34.853
 20
84.985
 10
35.89
 20
84.387
 10
35.89
 20
82.637
 10
34.375
 20
81.762
 10
32.859
 20
82.637
 10
32.859
 20
83.737
 10
33.254
 20
84.095
  0
INSERT
  5
21C
330
17
100
AcDbEntity
  8
0
100
AcDbBlockReference
  2
HEX
 10
37.906
 20
83.512
 30
0.0
  0
INSERT
  5
21E
330
17
100
AcDbEntity
  8
0
100
AcDbBlockReference
  2
HEX
 10
41.437
 20
83.512
 30
0.0
  0
INSERT
  5
220
330
17
100
AcDbEntity
  8
0
100
AcDbBlockReference
  2
HEX
 10
44.968
 20
83.512
 30
0.0
  0
INSERT
  5
222
330
17
100
AcDbEntity
  8
0
100
AcDbBlockReference
  2
HEX
 10
48.499
 20
83.512
 30
0.0
  0
INSERT
  5
224
330
17
100
AcDbEntity
  8
0
100
AcDbBlockReference
  2
HEX
 10
52.03
 20
83.512
 30
0.0
  0
INSERT
  5
226
330
17
100
AcDbEntity
  8
0
100
AcDbBlockReference
  2
HEX
 10
55.561
 20
83.512
 30
0.0
  0
INSERT
  5
228
330
17
100
AcDbEntity
  8
0
100
AcDbBlockReference
  2
HEX
 10
59.092
 20
83.512
 30
0.0
  0
LWPOLYLINE
  5
22A
330
17
100
AcDbEntity
  8
0
100
AcDbPolyline
 90
8
 70
1
 10
63.032
 20
82.693
 10
62.046
 20
82.095
 10
61.108
 20
82.637
 10
61.108
 20
84.387
 10
62.623
 20
85.262
 10
64.139
 20
84.387
 10
64.139
 20
83.195
 10
63.032
 20
82.693
  0
LWPOLYLINE
  5
22B
330
17
100
AcDbEntity
  8
0
100
AcDbPolyline
 90
6
 70
1
 10
65.824
 20
83.958
 10
64.639
 20
83.421
 10
64.639
 20
84.387
 10
66.154
 20
85.262
 10
67.442
 20
84.518
 10
65.824
 20
83.958
  0
LWPOLYLINE
  5
22C
330
17
100
AcDbEntity
  8
0
100
AcDbPolyline
 90
4
 70
1
 10
-37.875
 20
84.899
 10
-38.013
 20
84.82
 10
-38.15
 20
84.899
 10
-37.875
 20
84.899
  0
LWPOLYLINE
  5
22D
330
17
100
AcDbEntity
  8
0
100
AcDbPolyline
 90
4
 70
1
 10
-34.344
 20
84.899
 10
-34.482
 20
84.82
 10
-34.619
 20
84.899
 10
-34.344
 20
84.899
  0
LWPOLYLINE
  5
22E
330
17
100
AcDbEntity
  8
0
100
AcDbPolyline
 90
4
 70
1
 10
-30.813
 20
84.899
 10
-30.951
 20
84.82
 10
-31.088
 20
84.899
 10
-30.813
 20
84.899
  0
LWPOLYLINE
  5
22F
330
17
100
AcDbEntity
  8
0
100
AcDbPolyline
 90
4
 70
1
 10
-27.282
 20
84.899
 10
-27.42
 20
84.82
 10
-27.557
 20
84.899
 10
-27.282
 20
84.899
  0
LWPOLYLINE
  5
230
330
17
100
AcDbEntity
  8
0
100
AcDbPolyline
 90
4
 70
1
 10
-13.274
 20
85.306
 10
-12.453
 20
85.306
 10
-13.145
 20
84.906
 10
-13.274
 20
85.306
  0
LWPOLYLINE
  5
231
330
17
100
AcDbEntity
  8
0
100
AcDbPolyline
 90
4
 70
1
 10
-8.924
 20
85.305
 10
-9.764
 20
84.82
 10
-10.605
 20
85.305
 10
-8.924
 20
85.305
  0
LWPOLYLINE
  5
232
330
17
100
AcDbEntity
  8
0
100
AcDbPolyline
 90
4
 70
1
 10
-5.394
 20
85.304
 10
-6.233
 20
84.82
 10
-7.073
 20
85.304
 10
-5.394
 20
85.304
  0
LWPOLYLINE
  5
233
330
17
100
AcDbEntity
  8
0
100
AcDbPolyline
 90
4
 70
1
 10
-1.865
 20
85.303
 10
-2.702
 20
84.82
 10
-3.54
 20
85.303
 10
-1.865
 20
85.303
  0
LWPOLYLINE
  5
234
330
17
100
AcDbEntity
  8
0
100
AcDbPolyline
 90
4
 70
1
 10
1.665
 20
85.302
 10
0.829
 20
84.82
 10
-0.007
 20
85.303
 10
1.665
 20
85.302
  0
LWPOLYLINE
  5
235
330
17
100
AcDbEntity
  8
0
100
AcDbPolyline
 90
4
 70
1
 10
5.195
 20
85.301
 10
4.36
 20
84.82
 10
3.525
 20
85.302
 10
5.195
 20
85.301
  0
LWPOLYLINE
  5
236
330
17
100
AcDbEntity
  8
0
100
AcDbPolyline
 90
6
 70
1
 10
7.865
 20
85.301
 10
8.279
 20
85.259
 10
8.554
 20
85.202
 10
7.891
 20
84.82
 10
7.058
 20
85.301
 10
7.865
 20
85.301
  0
LWPOLYLINE
  5
237
330
17
100
AcDbEntity
  8
0
100
AcDbPolyline
 90
5
 70
1
 10
35.519
 20
85.178
 10
36.195
 20
85.284
 10
36.945
 20
85.284
 10
36.14
 20
84.82
 10
35.519
 20
85.178
  0
LWPOLYLINE
  5
238
330
17
100
AcDbEntity
  8
0
100
AcDbPolyline
 90
4
 70
1
 10
40.48
 20
85.287
 10
39.671
 20
84.82
 10
38.864
 20
85.286
 10
40.48
 20
85.287
  0
LWPOLYLINE
  5
239
330
17
100
AcDbEntity
  8
0
100
AcDbPolyline
 90
4
 70
1
 10
44.015
 20
85.289
 10
43.202
 20
84.82
 10
42.391
 20
85.288
 10
44.015
 20
85.289
  0
LWPOLYLINE
  5
23A
330
17
100
AcDbEntity
  8
0
100
AcDbPolyline
 90
4
 70
1
 10
47.55
 20
85.291
 10
46.733
 20
84.82
 10
45.918
 20
85.29
 10
47.55
 20
85.291
  0
LWPOLYLINE
  5
23B
330
17
100
AcDbEntity
  8
0
100
AcDbPolyline
 90
4
 70
1
 10
51.085
 20
85.294
 10
50.264
 20
84.82
 10
49.445
 20
85.292
 10
51.085
 20
85.294
  0
LWPOLYLINE
  5
23C
330
17
100
AcDbEntity
  8
0
100
AcDbPolyline
 90
4
 70
1
 10
54.62
 20
85.296
 10
53.796
 20
84.82
 10
52.973
 20
85.295
 10
54.62
 20
85.296
  0
LWPOLYLINE
  5
23D
330
17
100
AcDbEntity
  8
0
100
AcDbPolyline
 90
4
 70
1
 10
58.155
 20
85.298
 10
57.327
 20
84.82
 10
56.5
 20
85.297
 10
58.155
 20
85.298
  0
LWPOLYLINE
  5
23E
330
17
100
AcDbEntity
  8
0
100
AcDbPolyline
 90
4
 70
1
 10
61.691
 20
85.3
 10
60.858
 20
84.82
 10
60.027
 20
85.299
 10
61.691
 20
85.3
  0
LWPOLYLINE
  5
23F
330
17
100
AcDbEntity
  8
0
100
AcDbPolyline
 90
4
 70
1
 10
65.226
 20
85.303
 10
64.389
 20
84.82
 10
63.554
 20
85.302
 10
65.226
 20
85.303
  0
LWPOLYLINE
  5
240
330
17
100
AcDbEntity
  8
0
100
AcDbPolyline
 90
8
 70
1
 10
68.102
 20
85.305
 10
68.181
 20
85.286
 10
68.263
 20
85.234
 10
68.319
 20
85.159
 10
68.348
 20
85.067
 10
67.92
 20
84.82
 10
67.081
 20
85.304
 10
68.102
 20
85.305
  0
ENDSEC
  0
SECTION
  2
OBJECTS
  0
DICTIONARY
  5
A
330
0
100
AcDbDictionary
281
1
  3
ACAD_COLOR
350
B
  3
ACAD_GROUP
350
C
  3
ACAD_LAYOUT
350
D
  3
ACAD_MATERIAL
350
E
  3
ACAD_MLEADERSTYLE
350
F
  3
ACAD_MLINESTYLE
350
10
  3
ACAD_PLOTSETTINGS
350
11
  3
ACAD_PLOTSTYLENAME
350
12
  3
ACAD_SCALELIST
350
14
  3
ACAD_TABLESTYLE
350
15
  3
ACAD_VISUALSTYLE
350
16
  3
EZDXF_META
350
2D
  0
DICTIONARY
  5
B
330
A
100
AcDbDictionary
281
1
  0
DICTIONARY
  5
C
330
A
100
AcDbDictionary
281
1
  0
DICTIONARY
  5
D
330
A
100
AcDbDictionary
281
1
  3
Model
350
1A
  3
Layout1
350
1E
  0
DICTIONARY
  5
E
330
A
100
AcDbDictionary
281
1
  3
ByBlock
350
1F
  3
ByLayer
350
20
  3
Global
350
21
  0
DICTIONARY
  5
F
330
A
100
AcDbDictionary
281
1
  3
Standard
350
2C
  0
DICTIONARY
  5
10
330
A
100
AcDbDictionary
281
1
  3
Standard
350
22
  0
DICTIONARY
  5
11
330
A
100
AcDbDictionary
281
1
  0
ACDBDICTIONARYWDFLT
  5
12
330
A
100
AcDbDictionary
281
1
  3
Normal
350
13
100
AcDbDictionaryWithDefault
340
13
  0
ACDBPLACEHOLDER
  5
13
330
12
  0
DICTIONARY
  5
14
330
A
100
AcDbDictionary
281
1
  0
DICTIONARY
  5
15
330
A
100
AcDbDictionary
281
1
  0
DICTIONARY
  5
16
330
A
100
AcDbDictionary
281
1
  0
LAYOUT
  5
1A
330
D
100
AcDbPlotSettings
  1

  4
A3
  6

 40
7.5
 41
20.0
 42
7.5
 43
20.0
 44
420.0
 45
297.0
 46
0.0
 47
0.0
 48
0.0
 49
0.0
140
0.0
141
0.0
142
1.0
143
1.0
 70
1024
 72
1
 73
0
 74
5
  7

 75
16
 76
0
 77
2
 78
300
147
1.0
148
0.0
149
0.0
100
AcDbLayout
  1
Model
 70
1
 71
0
 10
0.0
 20
0.0
 11
420.0
 21
297.0
 12
0.0
 22
0.0
 32
0.0
 14
1e+20
 24
1e+20
 34
1e+20
 15
-1e+20
 25
-1e+20
 35
-1e+20
146
0.0
 13
0.0
 23
0.0
 33
0.0
 16
1.0
 26
0.0
 36
0.0
 17
0.0
 27
1.0
 37
0.0
 76
1
330
17
  0
LAYOUT
  5
1E
330
D
100
AcDbPlotSettings
  1

  4
A3
  6

 40
7.5
 41
20.0
 42
7.5
 43
20.0
 44
420.0
 45
297.0
 46
0.0
 47
0.0
 48
0.0
 49
0.0
140
0.0
141
0.0
142
1.0
143
1.0
 70
0
 72
1
 73
0
 74
5
  7

 75
16
 76
0
 77
2
 78
300
147
1.0
148
0.0
149
0.0
100
AcDbLayout
  1
Layout1
 70
1
 71
1
 10
0.0
 20
0.0
 11
420.0
 21
297.0
 12
0.0
 22
0.0
 32
0.0
 14
1e+20
 24
1e+20
 34
1e+20
 15
-1e+20
 25
-1e+20
 35
-1e+20
146
0.0
 13
0.0
 23
0.0
 33
0.0
 16
1.0
 26
0.0
 36
0.0
 17
0.0
 27
1.0
 37
0.0
 76
1
330
1B
  0
MATERIAL
  5
1F
102
{ACAD_REACTORS
330
E
102
}
330
E
100
AcDbMaterial
  1
ByBlock
  2

 70
0
 40
1.0
 71
1
 41
1.0
 91
-1023410177
 42
1.0
 72
1
  3

 73
1
 74
1
 75
1
 44
0.5
 73
0
 45
1.0
 46
1.0
 77
1
  4

 78
1
 79
1
170
1
 48
1.0
171
1
  6

172
1
173
1
174
1
140
1.0
141
1.0
175
1
  7

176
1
177
1
178
1
143
1.0
179
1
  8

270
1
271
1
272
1
145
1.0
146
1.0
273
1
  9

274
1
275
1
276
1
 42
1.0
 72
1
  3

 73
1
 74
1
 75
1
 94
63
  0
MATERIAL
  5
20
102
{ACAD_REACTORS
330
E
102
}
330
E
100
AcDbMaterial
  1
ByLayer
  2

 70
0
 40
1.0
 71
1
 41
1.0
 91
-1023410177
 42
1.0
 72
1
  3

 73
1
 74
1
 75
1
 44
0.5
 73
0
 45
1.0
 46
1.0
 77
1
  4

 78
1
 79
1
170
1
 48
1.0
171
1
  6

172
1
173
1
174
1
140
1.0
141
1.0
175
1
  7

176
1
177
1
178
1
143
1.0
179
1
  8

270
1
271
1
272
1
145
1.0
146
1.0
273
1
  9

274
1
275
1
276
1
 42
1.0
 72
1
  3

 73
1
 74
1
 75
1
 94
63
  0
MATERIAL
  5
21
102
{ACAD_REACTORS
330
E
102
}
330
E
100
AcDbMaterial
  1
Global
  2

 70
0
 40
1.0
 71
1
 41
1.0
 91
-1023410177
 42
1.0
 72
1
  3

 73
1
 74
1
 75
1
 44
0.5
 73
0
 45
1.0
 46
1.0
 77
1
  4

 78
1
 79
1
170
1
 48
1.0
171
1
  6

172
1
173
1
174
1
140
1.0
141
1.0
175
1
  7

176
1
177
1
178
1
143
1.0
179
1
  8

270
1
271
1
272
1
145
1.0
146
1.0
273
1
  9

274
1
275
1
276
1
 42
1.0
 72
1
  3

 73
1
 74
1
 75
1
 94
63
  0
MLINESTYLE
  5
22
102
{ACAD_REACTORS
330
10
102
}
330
10
100
AcDbMlineStyle
  2
Standard
 70
0
  3

 62
256
 51
90.0
 52
90.0
 71
2
 49
0.5
 62
256
  6
BYLAYER
 49
-0.5
 62
256
  6
BYLAYER
  0
MLEADERSTYLE
  5
2C
102
{ACAD_REACTORS
330
F
102
}
330
F
100
AcDbMLeaderStyle
179
2
170
2
171
1
172
0
 90
2
 40
0.0
 41
0.0
173
1
 91
-1056964608
 92
-2
290
1
 42
2.0
291
1
 43
8.0
  3
Standard
 44
4.0
300

342
29
174
1
175
1
176
0
178
1
 93
-1056964608
 45
4.0
292
0
297
0
 46
4.0
 94
-1056964608
 47
1.0
 49
1.0
140
1.0
294
1
141
0.0
177
0
142
1.0
295
0
296
0
143
3.75
271
0
272
9
273
9
  0
DICTIONARY
  5
2D
330
A
100
AcDbDictionary
280
1
281
1
  3
CREATED_BY_EZDXF
350
2E
  3
WRITTEN_BY_EZDXF
350
243
  0
DICTIONARYVAR
  5
2E
330
2D
100
DictionaryVariables
280
0
  1
1.4.3 @ 2026-04-09T21:37:18.653105+00:00
  0
DICTIONARYVAR
  5
243
330
2D
100
DictionaryVariables
280
0
  1
1.4.3 @ 2026-04-09T21:37:18.669576+00:00
  0
ENDSEC
  0
EOF
