  0
SECTION
  2
HEADER
  9
$ACADVER
  1
AC1024
  9
$ACADMAINTVER
 70
6
  9
$DWGCODEPAGE
  3
ANSI_1252
  9
$LASTSAVEDBY
  1
ezdxf
  9
$INSBASE
 10
0.0
 20
0.0
 30
0.0
  9
$EXTMIN
 10
1e+20
 20
1e+20
 30
1e+20
  9
$EXTMAX
 10
-1e+20
 20
-1e+20
 30
-1e+20
  9
$LIMMIN
 10
0.0
 20
0.0
  9
$LIMMAX
 10
420.0
 20
297.0
  9
$ORTHOMODE
 70
0
  9
$REGENMODE
 70
1
  9
$FILLMODE
 70
1
  9
$QTEXTMODE
 70
0
  9
$MIRRTEXT
 70
1
  9
$LTSCALE
 40
1.0
  9
$ATTMODE
 70
1
  9
$TEXTSIZE
 40
2.5
  9
$TRACEWID
 40
1.0
  9
$TEXTSTYLE
  7
Standard
  9
$CLAYER
  8
0
  9
$CELTYPE
  6
ByLayer
  9
$CECOLOR
 62
256
  9
$CELTSCALE
 40
1.0
  9
$DISPSILH
 70
0
  9
$DIMSCALE
 40
1.0
  9
$DIMASZ
 40
2.5
  9
$DIMEXO
 40
0.625
  9
$DIMDLI
 40
3.75
  9
$DIMRND
 40
0.0
  9
$DIMDLE
 40
0.0
  9
$DIMEXE
 40
1.25
  9
$DIMTP
 40
0.0
  9
$DIMTM
 40
0.0
  9
$DIMTXT
 40
2.5
  9
$DIMCEN
 40
2.5
  9
$DIMTSZ
 40
0.0
  9
$DIMTOL
 70
0
  9
$DIMLIM
 70
0
  9
$DIMTIH
 70
0
  9
$DIMTOH
 70
0
  9
$DIMSE1
 70
0
  9
$DIMSE2
 70
0
  9
$DIMTAD
 70
1
  9
$DIMZIN
 70
8
  9
$DIMBLK
  1

  9
$DIMASO
 70
1
  9
$DIMSHO
 70
1
  9
$DIMPOST
  1

  9
$DIMAPOST
  1

  9
$DIMALT
 70
0
  9
$DIMALTD
 70
3
  9
$DIMALTF
 40
0.03937007874
  9
$DIMLFAC
 40
1.0
  9
$DIMTOFL
 70
1
  9
$DIMTVP
 40
0.0
  9
$DIMTIX
 70
0
  9
$DIMSOXD
 70
0
  9
$DIMSAH
 70
0
  9
$DIMBLK1
  1

  9
$DIMBLK2
  1

  9
$DIMSTYLE
  2
ISO-25
  9
$DIMCLRD
 70
0
  9
$DIMCLRE
 70
0
  9
$DIMCLRT
 70
0
  9
$DIMTFAC
 40
1.0
  9
$DIMGAP
 40
0.625
  9
$DIMJUST
 70
0
  9
$DIMSD1
 70
0
  9
$DIMSD2
 70
0
  9
$DIMTOLJ
 70
0
  9
$DIMTZIN
 70
8
  9
$DIMALTZ
 70
0
  9
$DIMALTTZ
 70
0
  9
$DIMUPT
 70
0
  9
$DIMDEC
 70
2
  9
$DIMTDEC
 70
2
  9
$DIMALTU
 70
2
  9
$DIMALTTD
 70
3
  9
$DIMTXSTY
  7
Standard
  9
$DIMAUNIT
 70
0
  9
$DIMADEC
 70
0
  9
$DIMALTRND
 40
0.0
  9
$DIMAZIN
 70
0
  9
$DIMDSEP
 70
44
  9
$DIMATFIT
 70
3
  9
$DIMFRAC
 70
0
  9
$DIMLDRBLK
  1

  9
$DIMLUNIT
 70
2
  9
$DIMLWD
 70
-2
  9
$DIMLWE
 70
-2
  9
$DIMTMOVE
 70
0
  9
$DIMFXL
 40
1.0
  9
$DIMFXLON
 70
0
  9
$DIMJOGANG
 40
0.785398163397
  9
$DIMTFILL
 70
0
  9
$DIMTFILLCLR
 70
0
  9
$DIMARCSYM
 70
0
  9
$DIMLTYPE
  6

  9
$DIMLTEX1
  6

  9
$DIMLTEX2
  6

  9
$DIMTXTDIRECTION
 70
0
  9
$LUNITS
 70
2
  9
$LUPREC
 70
4
  9
$SKETCHINC
 40
1.0
  9
$FILLETRAD
 40
10.0
  9
$AUNITS
 70
0
  9
$AUPREC
 70
2
  9
$MENU
  1
.
  9
$ELEVATION
 40
0.0
  9
$PELEVATION
 40
0.0
  9
$THICKNESS
 40
0.0
  9
$LIMCHECK
 70
0
  9
$CHAMFERA
 40
0.0
  9
$CHAMFERB
 40
0.0
  9
$CHAMFERC
 40
0.0
  9
$CHAMFERD
 40
0.0
  9
$SKPOLY
 70
0
  9
$TDCREATE
 40
2461140.590138889
  9
$TDUCREATE
 40
2458532.153996898
  9
$TDUPDATE
 40
2461140.590138889
  9
$TDUUPDATE
 40
2458532.1544311
  9
$TDINDWG
 40
0.0
  9
$TDUSRTIMER
 40
0.0
  9
$USRTIMER
 70
1
  9
$ANGBASE
 50
0.0
  9
$ANGDIR
 70
0
  9
$PDMODE
 70
0
  9
$PDSIZE
 40
0.0
  9
$PLINEWID
 40
0.0
  9
$SPLFRAME
 70
0
  9
$SPLINETYPE
 70
6
  9
$SPLINESEGS
 70
8
  9
$HANDSEED
  5
3A
  9
$SURFTAB1
 70
6
  9
$SURFTAB2
 70
6
  9
$SURFTYPE
 70
6
  9
$SURFU
 70
6
  9
$SURFV
 70
6
  9
$UCSBASE
  2

  9
$UCSNAME
  2

  9
$UCSORG
 10
0.0
 20
0.0
 30
0.0
  9
$UCSXDIR
 10
1.0
 20
0.0
 30
0.0
  9
$UCSYDIR
 10
0.0
 20
1.0
 30
0.0
  9
$UCSORTHOREF
  2

  9
$UCSORTHOVIEW
 70
0
  9
$UCSORGTOP
 10
0.0
 20
0.0
 30
0.0
  9
$UCSORGBOTTOM
 10
0.0
 20
0.0
 30
0.0
  9
$UCSORGLEFT
 10
0.0
 20
0.0
 30
0.0
  9
$UCSORGRIGHT
 10
0.0
 20
0.0
 30
0.0
  9
$UCSORGFRONT
 10
0.0
 20
0.0
 30
0.0
  9
$UCSORGBACK
 10
0.0
 20
0.0
 30
0.0
  9
$PUCSBASE
  2

  9
$PUCSNAME
  2

  9
$PUCSORG
 10
0.0
 20
0.0
 30
0.0
  9
$PUCSXDIR
 10
1.0
 20
0.0
 30
0.0
  9
$PUCSYDIR
 10
0.0
 20
1.0
 30
0.0
  9
$PUCSORTHOREF
  2

  9
$PUCSORTHOVIEW
 70
0
  9
$PUCSORGTOP
 10
0.0
 20
0.0
 30
0.0
  9
$PUCSORGBOTTOM
 10
0.0
 20
0.0
 30
0.0
  9
$PUCSORGLEFT
 10
0.0
 20
0.0
 30
0.0
  9
$PUCSORGRIGHT
 10
0.0
 20
0.0
 30
0.0
  9
$PUCSORGFRONT
 10
0.0
 20
0.0
 30
0.0
  9
$PUCSORGBACK
 10
0.0
 20
0.0
 30
0.0
  9
$USERI1
 70
0
  9
$USERI2
 70
0
  9
$USERI3
 70
0
  9
$USERI4
 70
0
  9
$USERI5
 70
0
  9
$USERR1
 40
0.0
  9
$USERR2
 40
0.0
  9
$USERR3
 40
0.0
  9
$USERR4
 40
0.0
  9
$USERR5
 40
0.0
  9
$WORLDVIEW
 70
1
  9
$SHADEDGE
 70
3
  9
$SHADEDIF
 70
70
  9
$TILEMODE
 70
1
  9
$MAXACTVP
 70
64
  9
$PINSBASE
 10
0.0
 20
0.0
 30
0.0
  9
$PLIMCHECK
 70
0
  9
$PEXTMIN
 10
1e+20
 20
1e+20
 30
1e+20
  9
$PEXTMAX
 10
-1e+20
 20
-1e+20
 30
-1e+20
  9
$PLIMMIN
 10
0.0
 20
0.0
  9
$PLIMMAX
 10
420.0
 20
297.0
  9
$UNITMODE
 70
0
  9
$VISRETAIN
 70
1
  9
$PLINEGEN
 70
0
  9
$PSLTSCALE
 70
1
  9
$TREEDEPTH
 70
3020
  9
$CMLSTYLE
  2
Standard
  9
$CMLJUST
 70
0
  9
$CMLSCALE
 40
20.0
  9
$PROXYGRAPHICS
 70
1
  9
$MEASUREMENT
 70
1
  9
$CELWEIGHT
370
-1
  9
$ENDCAPS
280
0
  9
$JOINSTYLE
280
0
  9
$LWDISPLAY
290
0
  9
$INSUNITS
 70
6
  9
$HYPERLINKBASE
  1

  9
$STYLESHEET
  1

  9
$XEDIT
290
1
  9
$CEPSNTYPE
380
0
  9
$PSTYLEMODE
290
1
  9
$FINGERPRINTGUID
  2
{93EE38D4-9700-4E22-B3C6-34A5044615E6}
  9
$VERSIONGUID
  2
{29AC9803-084B-47DE-AB9D-16F0D9766DEB}
  9
$EXTNAMES
290
1
  9
$PSVPSCALE
 40
0.0
  9
$OLESTARTUP
290
0
  9
$SORTENTS
280
127
  9
$INDEXCTL
280
0
  9
$HIDETEXT
280
1
  9
$XCLIPFRAME
280
1
  9
$HALOGAP
280
0
  9
$OBSCOLOR
 70
257
  9
$OBSLTYPE
280
0
  9
$INTERSECTIONDISPLAY
280
0
  9
$INTERSECTIONCOLOR
 70
257
  9
$DIMASSOC
280
2
  9
$PROJECTNAME
  1

  9
$CAMERADISPLAY
290
0
  9
$LENSLENGTH
 40
50.0
  9
$CAMERAHEIGHT
 40
0.0
  9
$STEPSPERSEC
 40
24.0
  9
$STEPSIZE
 40
100.0
  9
$3DDWFPREC
 40
2.0
  9
$PSOLWIDTH
 40
0.005
  9
$PSOLHEIGHT
 40
0.08
  9
$LOFTANG1
 40
1.570796326795
  9
$LOFTANG2
 40
1.570796326795
  9
$LOFTMAG1
 40
0.0
  9
$LOFTMAG2
 40
0.0
  9
$LOFTPARAM
 70
7
  9
$LOFTNORMALS
280
1
  9
$LATITUDE
 40
37.795
  9
$LONGITUDE
 40
-122.394
  9
$NORTHDIRECTION
 40
0.0
  9
$TIMEZONE
 70
-8000
  9
$LIGHTGLYPHDISPLAY
280
1
  9
$TILEMODELIGHTSYNCH
280
1
  9
$CMATERIAL
347
20
  9
$SOLIDHIST
280
0
  9
$SHOWHIST
280
1
  9
$DWFFRAME
280
2
  9
$DGNFRAME
280
2
  9
$REALWORLDSCALE
290
1
  9
$INTERFERECOLOR
 62
256
  9
$CSHADOW
280
0
  9
$SHADOWPLANELOCATION
 40
0.0
  0
ENDSEC
  0
SECTION
  2
CLASSES
  0
CLASS
  1
ACDBDICTIONARYWDFLT
  2
AcDbDictionaryWithDefault
  3
ObjectDBX Classes
 90
0
 91
0
280
0
281
0
  0
CLASS
  1
SUN
  2
AcDbSun
  3
SCENEOE
 90
1153
 91
0
280
0
281
0
  0
CLASS
  1
VISUALSTYLE
  2
AcDbVisualStyle
  3
ObjectDBX Classes
 90
4095
 91
0
280
0
281
0
  0
CLASS
  1
MATERIAL
  2
AcDbMaterial
  3
ObjectDBX Classes
 90
1153
 91
0
280
0
281
0
  0
CLASS
  1
SCALE
  2
AcDbScale
  3
ObjectDBX Classes
 90
1153
 91
0
280
0
281
0
  0
CLASS
  1
TABLESTYLE
  2
AcDbTableStyle
  3
ObjectDBX Classes
 90
4095
 91
0
280
0
281
0
  0
CLASS
  1
MLEADERSTYLE
  2
AcDbMLeaderStyle
  3
ACDB_MLEADERSTYLE_CLASS
 90
4095
 91
0
280
0
281
0
  0
CLASS
  1
DICTIONARYVAR
  2
AcDbDictionaryVar
  3
ObjectDBX Classes
 90
0
 91
0
280
0
281
0
  0
CLASS
  1
CELLSTYLEMAP
  2
AcDbCellStyleMap
  3
ObjectDBX Classes
 90
1152
 91
0
280
0
281
0
  0
CLASS
  1
MENTALRAYRENDERSETTINGS
  2
AcDbMentalRayRenderSettings
  3
SCENEOE
 90
1024
 91
0
280
0
281
0
  0
CLASS
  1
ACDBDETAILVIEWSTYLE
  2
AcDbDetailViewStyle
  3
ObjectDBX Classes
 90
1025
 91
0
280
0
281
0
  0
CLASS
  1
ACDBSECTIONVIEWSTYLE
  2
AcDbSectionViewStyle
  3
ObjectDBX Classes
 90
1025
 91
0
280
0
281
0
  0
CLASS
  1
RASTERVARIABLES
  2
AcDbRasterVariables
  3
ISM
 90
0
 91
0
280
0
281
0
  0
CLASS
  1
LAYOUT
  2
AcDbLayout
  3
ObjectDBX Classes
 90
0
 91
0
280
0
281
0
  0
CLASS
  1
ACDBPLACEHOLDER
  2
AcDbPlaceHolder
  3
ObjectDBX Classes
 90
0
 91
0
280
0
281
0
  0
ENDSEC
  0
SECTION
  2
TABLES
  0
TABLE
  2
VPORT
  5
8
330
0
100
AcDbSymbolTable
 70
1
  0
VPORT
  5
23
330
8
100
AcDbSymbolTableRecord
100
AcDbViewportTableRecord
  2
*Active
 70
0
 10
0.0
 20
0.0
 11
1.0
 21
1.0
 12
0.0
 22
0.0
 13
0.0
 23
0.0
 14
0.5
 24
0.5
 15
0.5
 25
0.5
 16
0.0
 26
0.0
 36
1.0
 17
0.0
 27
0.0
 37
0.0
 40
1000.0
 41
1.34
 42
50.0
 43
0.0
 44
0.0
 50
0.0
 51
0.0
 71
0
 72
1000
 73
1
 74
3
 75
0
 76
0
 77
0
 78
0
281
0
 65
0
146
0.0
  0
ENDTAB
  0
TABLE
  2
LTYPE
  5
2
330
0
100
AcDbSymbolTable
 70
3
  0
LTYPE
  5
24
330
2
100
AcDbSymbolTableRecord
100
AcDbLinetypeTableRecord
  2
ByBlock
 70
0
  3

 72
65
 73
0
 40
0.0
  0
LTYPE
  5
25
330
2
100
AcDbSymbolTableRecord
100
AcDbLinetypeTableRecord
  2
ByLayer
 70
0
  3

 72
65
 73
0
 40
0.0
  0
LTYPE
  5
26
330
2
100
AcDbSymbolTableRecord
100
AcDbLinetypeTableRecord
  2
Continuous
 70
0
  3

 72
65
 73
0
 40
0.0
  0
ENDTAB
  0
TABLE
  2
LAYER
  5
1
330
0
100
AcDbSymbolTable
 70
2
  0
LAYER
  5
27
330
1
100
AcDbSymbolTableRecord
100
AcDbLayerTableRecord
  2
0
 70
0
 62
7
  6
Continuous
370
-3
390
13
347
21
  0
LAYER
  5
28
330
1
100
AcDbSymbolTableRecord
100
AcDbLayerTableRecord
  2
Defpoints
 70
0
 62
7
  6
Continuous
290
0
370
-3
390
13
347
21
  0
ENDTAB
  0
TABLE
  2
STYLE
  5
5
330
0
100
AcDbSymbolTable
 70
1
  0
STYLE
  5
29
330
5
100
AcDbSymbolTableRecord
100
AcDbTextStyleTableRecord
  2
Standard
 70
0
 40
0.0
 41
1.0
 50
0.0
 71
0
 42
2.5
  3
txt
  4

  0
ENDTAB
  0
TABLE
  2
VIEW
  5
7
330
0
100
AcDbSymbolTable
 70
0
  0
ENDTAB
  0
TABLE
  2
UCS
  5
6
330
0
100
AcDbSymbolTable
 70
0
  0
ENDTAB
  0
TABLE
  2
APPID
  5
3
330
0
100
AcDbSymbolTable
 70
3
  0
APPID
  5
2A
330
3
100
AcDbSymbolTableRecord
100
AcDbRegAppTableRecord
  2
ACAD
 70
0
  0
APPID
  5
37
330
3
100
AcDbSymbolTableRecord
100
AcDbRegAppTableRecord
  2
HATCHBACKGROUNDCOLOR
 70
0
  0
APPID
  5
38
330
3
100
AcDbSymbolTableRecord
100
AcDbRegAppTableRecord
  2
EZDXF
 70
0
  0
ENDTAB
  0
TABLE
  2
DIMSTYLE
  5
4
330
0
100
AcDbSymbolTable
 70
1
100
AcDbDimStyleTable
  0
DIMSTYLE
105
2B
330
4
100
AcDbSymbolTableRecord
100
AcDbDimStyleTableRecord
  2
Standard
 70
0
 40
1.0
 41
2.5
 42
0.625
 43
3.75
 44
1.25
 45
0.0
 46
0.0
 47
0.0
 48
0.0
 49
2.5
140
2.5
141
2.5
142
0.0
143
0.03937007874
144
1.0
145
0.0
146
1.0
147
0.625
148
0.0
 69
0
 70
0
 71
0
 72
0
 73
0
 74
0
 75
0
 76
0
 77
1
 78
8
 79
3
170
0
171
3
172
1
173
0
174
0
175
0
176
0
177
0
178
0
179
2
271
2
272
2
273
2
274
3
275
0
276
0
277
2
278
44
279
0
280
0
281
0
282
0
283
0
284
8
285
0
286
0
288
0
289
3
290
0
371
-2
372
-2
  0
ENDTAB
  0
TABLE
  2
BLOCK_RECORD
  5
9
330
0
100
AcDbSymbolTable
 70
2
  0
BLOCK_RECORD
  5
17
330
9
100
AcDbSymbolTableRecord
100
AcDbBlockTableRecord
  2
*Model_Space
340
1A
 70
0
280
1
281
0
  0
BLOCK_RECORD
  5
1B
330
9
100
AcDbSymbolTableRecord
100
AcDbBlockTableRecord
  2
*Paper_Space
340
1E
 70
0
280
1
281
0
  0
ENDTAB
  0
ENDSEC
  0
SECTION
  2
BLOCKS
  0
BLOCK
  5
18
330
17
100
AcDbEntity
  8
0
100
AcDbBlockBegin
  2
*Model_Space
 70
0
 10
0.0
 20
0.0
 30
0.0
  3
*Model_Space
  1

  0
ENDBLK
  5
19
330
17
100
AcDbEntity
  8
0
100
AcDbBlockEnd
  0
BLOCK
  5
1C
330
1B
100
AcDbEntity
  8
0
100
AcDbBlockBegin
  2
*Paper_Space
 70
0
 10
0.0
 20
0.0
 30
0.0
  3
*Paper_Space
  1

  0
ENDBLK
  5
1D
330
1B
100
AcDbEntity
  8
0
100
AcDbBlockEnd
  0
ENDSEC
  0
SECTION
  2
ENTITIES
  0
LWPOLYLINE
  5
2F
330
17
100
AcDbEntity
  8
0
100
AcDbPolyline
 90
641
 70
0
 10
167.697912
 20
-139.145772
 10
167.902636
 20
-138.277092
 10
168.116758
 20
-137.41933400000002
 10
168.340024
 20
-136.57173600000002
 10
168.571926
 20
-135.734044
 10
168.81221
 20
-134.90575000000004
 10
169.060622
 20
-134.08609200000004
 10
169.316654
 20
-133.27481600000004
 10
169.580306
 20
-132.47116000000005
 10
169.85107000000002
 20
-131.67487000000006
 10
170.128692
 20
-130.88518400000004
 10
170.412664
 20
-130.10184800000005
 10
170.702986
 20
-129.32435400000006
 10
170.99915000000004
 20
-128.55194000000006
 10
171.30090200000004
 20
-127.78435200000007
 10
171.60773400000002
 20
-127.02082800000007
 10
171.919646
 20
-126.26111400000008
 10
172.23613
 20
-125.50444800000008
 10
172.556678
 20
-124.75032200000008
 10
172.88129
 20
-123.99848200000008
 10
173.209458
 20
-123.24816600000008
 10
173.540928
 20
-122.49912000000008
 10
173.875446
 20
-121.75058200000008
 10
174.21275799999998
 20
-121.00204400000008
 10
174.55235599999997
 20
-120.25325200000009
 10
174.89398599999998
 20
-119.50344400000009
 10
175.237394
 20
-118.75211200000008
 10
175.58207199999998
 20
-117.99900200000009
 10
175.92801999999998
 20
-117.24335200000007
 10
176.27472999999998
 20
-116.48465400000008
 10
176.62194799999997
 20
-115.72240000000008
 10
176.96916599999994
 20
-114.95633600000008
 10
177.31612999999996
 20
-114.18570000000008
 10
177.64988599999995
 20
-113.43538400000007
 10
177.98110199999994
 20
-112.67770200000007
 10
178.30876199999992
 20
-111.91290800000007
 10
178.63184999999993
 20
-111.14151000000007
 10
178.94909599999994
 20
-110.36376200000007
 10
179.25973799999994
 20
-109.58017200000008
 10
179.56275999999994
 20
-108.79124800000008
 10
179.85739999999993
 20
-107.99724400000008
 10
180.1423879999999
 20
-107.19866800000008
 10
180.41670799999991
 20
-106.39577400000007
 10
180.6795979999999
 20
-105.58932400000008
 10
180.92978799999992
 20
-104.77957200000009
 10
181.16651599999992
 20
-103.96677200000008
 10
181.38851199999993
 20
-103.15143200000009
 10
181.59501399999994
 20
-102.33406000000008
 10
181.78500599999992
 20
-101.51516400000008
 10
181.95747199999994
 20
-100.6949980000001
 10
182.11139599999993
 20
-99.87381600000009
 10
182.24576199999993
 20
-99.0523800000001
 10
182.35955399999992
 20
-98.2309440000001
 10
182.45175599999993
 20
-97.4100160000001
 10
182.52135199999992
 20
-96.5898500000001
 10
182.56757999999994
 20
-95.7709540000001
 10
182.58916999999994
 20
-94.95383600000011
 10
182.58535999999995
 20
-94.1387500000001
 10
182.55513399999995
 20
-93.3262040000001
 10
182.49722199999997
 20
-92.5167060000001
 10
182.41086199999995
 20
-91.7105100000001
 10
182.29503799999995
 20
-90.9081240000001
 10
182.14873399999993
 20
-90.10980200000012
 10
181.97093399999991
 20
-89.31605200000011
 10
181.76062199999993
 20
-88.5273820000001
 10
181.72836399999994
 20
-88.41638400000011
 10
181.69559799999993
 20
-88.3053860000001
 10
181.66232399999996
 20
-88.1943880000001
 10
181.62879599999997
 20
-88.0833900000001
 10
181.59501399999996
 20
-87.97239200000008
 10
181.56097799999995
 20
-87.86139400000009
 10
181.52694199999993
 20
-87.75039600000008
 10
181.49265199999994
 20
-87.63939800000009
 10
181.45861599999995
 20
-87.52840000000008
 10
181.42457999999993
 20
-87.41740200000008
 10
181.39079799999993
 20
-87.30640400000007
 10
181.35752399999993
 20
-87.19540600000008
 10
181.32450399999993
 20
-87.08415400000007
 10
181.29199199999994
 20
-86.97290200000008
 10
181.25998799999994
 20
-86.86139600000007
 10
181.22874599999992
 20
-86.74989000000006
 10
181.19826599999993
 20
-86.63813000000006
 10
181.16854799999993
 20
-86.52637000000007
 10
181.1395919999999
 20
-86.41435600000007
 10
181.1116519999999
 20
-86.30234200000008
 10
181.0849819999999
 20
-86.19007400000008
 10
181.0593279999999
 20
-86.07755200000008
 10
181.0349439999999
 20
-85.96477600000007
 10
181.01182999999992
 20
-85.85174600000008
 10
180.99023999999991
 20
-85.73846200000007
 10
180.9699199999999
 20
-85.62492400000008
 10
180.9513779999999
 20
-85.51113200000007
 10
180.93435999999988
 20
-85.39708600000007
 10
180.9191199999999
 20
-85.28278600000007
 10
180.9056579999999
 20
-85.16823200000007
 10
180.8939739999999
 20
-85.05342400000008
 10
180.88432199999988
 20
-84.93810800000007
 10
180.8767019999999
 20
-84.82203000000007
 10
180.8713679999999
 20
-84.70468200000008
 10
180.86831999999993
 20
-84.58631800000008
 10
180.86755799999992
 20
-84.46693800000007
 10
180.8690819999999
 20
-84.34679600000007
 10
180.8728919999999
 20
-84.22589200000006
 10
180.8792419999999
 20
-84.10473400000006
 10
180.8878779999999
 20
-83.98306800000007
 10
180.8990539999999
 20
-83.86140200000007
 10
180.9130239999999
 20
-83.73973600000008
 10
180.9295339999999
 20
-83.61832400000007
 10
180.9488379999999
 20
-83.49716600000008
 10
180.9709359999999
 20
-83.37651600000008
 10
180.99582799999988
 20
-83.25662800000008
 10
181.0235139999999
 20
-83.13775600000008
 10
181.0539939999999
 20
-83.01990000000008
 10
181.0875219999999
 20
-82.90331400000008
 10
181.1240979999999
 20
-82.78799800000007
 10
181.16372199999986
 20
-82.67420600000008
 10
181.20664799999986
 20
-82.56219200000008
 10
181.2526219999999
 20
-82.45195600000008
 10
181.30189799999988
 20
-82.34375200000008
 10
181.35447599999986
 20
-82.23783400000009
 10
181.41035599999987
 20
-82.13420200000009
 10
181.46953799999986
 20
-82.03311000000008
 10
181.53227599999985
 20
-81.93481200000008
 10
181.59856999999985
 20
-81.83930800000009
 10
181.66841999999983
 20
-81.74685200000009
 10
181.74182599999983
 20
-81.6574440000001
 10
181.81878799999984
 20
-81.5715920000001
 10
181.89955999999984
 20
-81.4892960000001
 10
181.98414199999982
 20
-81.41055600000008
 10
182.06846999999982
 20
-81.3391820000001
 10
182.15635399999982
 20
-81.27187200000009
 10
182.2472859999998
 20
-81.20862600000008
 10
182.3415199999998
 20
-81.14919000000009
 10
182.4388019999998
 20
-81.09331000000009
 10
182.5388779999998
 20
-81.04098600000007
 10
182.6417479999998
 20
-80.99221800000008
 10
182.74715799999979
 20
-80.94675200000009
 10
182.85510799999977
 20
-80.90433400000009
 10
182.9653439999998
 20
-80.8649640000001
 10
183.0776119999998
 20
-80.8286420000001
 10
183.19191199999977
 20
-80.7951140000001
 10
183.30824399999977
 20
-80.7643800000001
 10
183.42635399999978
 20
-80.73618600000012
 10
183.5459879999998
 20
-80.71053200000011
 10
183.66714599999978
 20
-80.68716400000011
 10
183.7895739999998
 20
-80.6660820000001
 10
183.91327199999978
 20
-80.64728600000011
 10
184.03798599999976
 20
-80.6302680000001
 10
184.16371599999977
 20
-80.6152820000001
 10
184.29020799999978
 20
-80.60207400000009
 10
184.4172079999998
 20
-80.5903900000001
 10
184.54471599999977
 20
-80.58023000000009
 10
184.67247799999978
 20
-80.57159400000009
 10
184.8004939999998
 20
-80.56422800000009
 10
184.92876399999977
 20
-80.5578780000001
 10
185.05677999999978
 20
-80.5525440000001
 10
185.18479599999978
 20
-80.5482260000001
 10
185.31230399999978
 20
-80.5446700000001
 10
185.43930399999977
 20
-80.54187600000009
 10
185.56579599999978
 20
-80.53959000000009
 10
185.69152599999978
 20
-80.53781200000009
 10
186.0572859999998
 20
-80.53374800000007
 10
186.4232999999998
 20
-80.53120800000008
 10
186.78982199999982
 20
-80.53019200000007
 10
187.15685199999982
 20
-80.53044600000007
 10
187.52413599999983
 20
-80.53171600000006
 10
187.89167399999982
 20
-80.53425600000007
 10
188.25946599999983
 20
-80.53781200000007
 10
188.62751199999983
 20
-80.54213000000007
 10
188.99581199999983
 20
-80.54746400000008
 10
189.36436599999982
 20
-80.55356000000008
 10
189.73317399999982
 20
-80.56016400000007
 10
190.10223599999983
 20
-80.56753000000008
 10
190.47129799999982
 20
-80.57540400000008
 10
190.8403599999998
 20
-80.58353200000006
 10
191.2096759999998
 20
-80.59191400000007
 10
191.57899199999977
 20
-80.60055000000007
 10
191.94830799999977
 20
-80.60944000000008
 10
192.31736999999976
 20
-80.61833000000009
 10
192.68643199999977
 20
-80.6272200000001
 10
193.05549399999975
 20
-80.63585600000009
 10
193.42455599999974
 20
-80.64449200000008
 10
193.79336399999974
 20
-80.65262000000008
 10
194.16191799999976
 20
-80.66049400000009
 10
194.53021799999976
 20
-80.66786000000008
 10
194.89826399999976
 20
-80.67471800000008
 10
195.26605599999974
 20
-80.68081400000008
 10
195.63359399999973
 20
-80.68614800000009
 10
196.00087799999974
 20
-80.69072000000007
 10
196.36790799999977
 20
-80.69453000000007
 10
196.73442999999975
 20
-80.69732400000008
 10
197.10044399999978
 20
-80.69884800000007
 10
197.46620399999978
 20
-80.69935600000008
 10
197.65111599999977
 20
-80.69884800000007
 10
197.84059999999977
 20
-80.69757800000008
 10
198.03440199999977
 20
-80.69580000000008
 10
198.2320139999998
 20
-80.69402200000007
 10
198.4331819999998
 20
-80.69249800000007
 10
198.63714399999978
 20
-80.69148200000006
 10
198.84364599999978
 20
-80.69148200000006
 10
199.05243399999978
 20
-80.69249800000007
 10
199.26274599999977
 20
-80.69529200000008
 10
199.47432799999976
 20
-80.69986400000008
 10
199.68667199999976
 20
-80.70672200000007
 10
199.89926999999977
 20
-80.71612000000006
 10
200.11186799999976
 20
-80.72831200000007
 10
200.32395799999978
 20
-80.74380600000006
 10
200.53503199999977
 20
-80.76285600000006
 10
200.7448359999998
 20
-80.78571600000005
 10
200.95286199999978
 20
-80.81264000000004
 10
201.15860199999977
 20
-80.84413600000006
 10
201.36154799999974
 20
-80.88045800000005
 10
201.56144599999976
 20
-80.92211400000005
 10
201.75753399999977
 20
-80.96910400000004
 10
201.94981199999975
 20
-81.02193600000005
 10
202.13751799999977
 20
-81.08086400000006
 10
202.32039799999978
 20
-81.14639600000005
 10
202.49794399999976
 20
-81.21878600000007
 10
202.66964799999977
 20
-81.29828800000006
 10
202.8352559999998
 20
-81.38541000000006
 10
202.9942599999998
 20
-81.48015200000006
 10
203.14615199999977
 20
-81.58302200000006
 10
203.29042399999977
 20
-81.69452800000006
 10
203.4268219999998
 20
-81.81467000000006
 10
203.5548379999998
 20
-81.94395600000007
 10
203.68183799999977
 20
-82.09203800000007
 10
203.79588399999977
 20
-82.24672400000007
 10
203.89722999999978
 20
-82.40776000000007
 10
203.98663799999977
 20
-82.57463800000006
 10
204.06461599999977
 20
-82.74685000000007
 10
204.13141799999977
 20
-82.92439600000007
 10
204.18755199999978
 20
-83.10651400000006
 10
204.23352599999978
 20
-83.29320400000007
 10
204.2695939999998
 20
-83.48395800000006
 10
204.2962639999998
 20
-83.67852200000007
 10
204.3142979999998
 20
-83.87638800000006
 10
204.3236959999998
 20
-84.07730200000007
 10
204.32521999999983
 20
-84.28101000000007
 10
204.3193779999998
 20
-84.48700400000007
 10
204.3064239999998
 20
-84.69503000000007
 10
204.2868659999998
 20
-84.90483400000008
 10
204.2612119999998
 20
-85.11590800000008
 10
204.2297159999998
 20
-85.32799800000008
 10
204.1931399999998
 20
-85.54059600000008
 10
204.1517379999998
 20
-85.75344800000008
 10
204.1060179999998
 20
-85.96630000000009
 10
204.0564879999998
 20
-86.17864400000009
 10
204.0034019999998
 20
-86.3902260000001
 10
203.9472679999998
 20
-86.60053800000009
 10
203.8885939999998
 20
-86.80932600000008
 10
203.8278879999998
 20
-87.0163360000001
 10
203.7656579999998
 20
-87.22131400000009
 10
203.7021579999998
 20
-87.42375200000009
 10
203.63789599999978
 20
-87.6231420000001
 10
203.5733799999998
 20
-87.8192300000001
 10
203.50911799999977
 20
-88.0117620000001
 10
203.44561799999977
 20
-88.2004840000001
 10
203.33411199999978
 20
-88.57081600000011
 10
203.2226059999998
 20
-88.94114800000011
 10
203.1110999999998
 20
-89.31148000000012
 10
202.9995939999998
 20
-89.68181200000012
 10
202.8880879999998
 20
-90.05214400000013
 10
202.77658199999982
 20
-90.42247600000015
 10
202.66507599999983
 20
-90.79280800000015
 10
202.55356999999984
 20
-91.16314000000015
 10
202.44206399999985
 20
-91.53347200000016
 10
202.33055799999985
 20
-91.90380400000016
 10
202.21905199999986
 20
-92.27413600000017
 10
202.10754599999987
 20
-92.64446800000017
 10
201.99603999999988
 20
-93.01480000000019
 10
201.8845339999999
 20
-93.3851320000002
 10
201.7730279999999
 20
-93.7554640000002
 10
201.6615219999999
 20
-94.12579600000021
 10
201.5500159999999
 20
-94.49612800000021
 10
201.43850999999992
 20
-94.86646000000022
 10
201.32700399999993
 20
-95.23679200000022
 10
201.21549799999994
 20
-95.60712400000024
 10
201.10399199999995
 20
-95.97745600000025
 10
200.99248599999996
 20
-96.34778800000025
 10
200.88097999999997
 20
-96.71812000000025
 10
200.76947399999997
 20
-97.08845200000026
 10
200.65796799999998
 20
-97.45878400000026
 10
200.546462
 20
-97.82911600000027
 10
200.434956
 20
-98.19944800000029
 10
200.32345
 20
-98.56978000000029
 10
200.21194400000002
 20
-98.9401120000003
 10
200.10043800000003
 20
-99.3104440000003
 10
199.98893200000003
 20
-99.68077600000031
 10
199.87742600000004
 20
-100.05110800000031
 10
199.86396400000007
 20
-100.09530400000031
 10
199.85126400000007
 20
-100.13975400000031
 10
199.83958000000007
 20
-100.1844580000003
 10
199.82865800000005
 20
-100.22941600000031
 10
199.81875200000005
 20
-100.27462800000032
 10
199.80986200000007
 20
-100.31984000000031
 10
199.80198800000008
 20
-100.36505200000032
 10
199.7953840000001
 20
-100.41051800000031
 10
199.7900500000001
 20
-100.4557300000003
 10
199.78573200000008
 20
-100.50094200000031
 10
199.7826840000001
 20
-100.54590000000032
 10
199.7811600000001
 20
-100.59060400000031
 10
199.7809060000001
 20
-100.63505400000031
 10
199.7821760000001
 20
-100.67925000000031
 10
199.78471600000012
 20
-100.72293800000031
 10
199.7887800000001
 20
-100.7663720000003
 10
199.79462200000012
 20
-100.80929800000031
 10
199.8019880000001
 20
-100.85146200000031
 10
199.8111320000001
 20
-100.8931180000003
 10
199.8220540000001
 20
-100.9340120000003
 10
199.8347540000001
 20
-100.97414400000031
 10
199.8492320000001
 20
-101.0135140000003
 10
199.86548800000008
 20
-101.0521220000003
 10
199.88377600000007
 20
-101.0897140000003
 10
199.9040960000001
 20
-101.1265440000003
 10
199.92644800000008
 20
-101.1623580000003
 10
199.95083200000008
 20
-101.1969020000003
 10
199.9772480000001
 20
-101.23043000000031
 10
200.0059500000001
 20
-101.26268800000031
 10
200.0369380000001
 20
-101.29367600000032
 10
200.07021200000008
 20
-101.32339400000032
 10
200.1057720000001
 20
-101.35184200000033
 10
200.15682600000008
 20
-101.39045000000033
 10
200.2078800000001
 20
-101.42905800000032
 10
200.2589340000001
 20
-101.46766600000032
 10
200.30998800000012
 20
-101.50627400000032
 10
200.3610420000001
 20
-101.54488200000031
 10
200.4120960000001
 20
-101.58349000000031
 10
200.46315000000013
 20
-101.6220980000003
 10
200.51420400000012
 20
-101.6607060000003
 10
200.56525800000014
 20
-101.6993140000003
 10
200.61631200000014
 20
-101.7379220000003
 10
200.66736600000016
 20
-101.77653000000029
 10
200.71842000000015
 20
-101.81513800000029
 10
200.76947400000014
 20
-101.85374600000029
 10
200.82052800000017
 20
-101.89235400000028
 10
200.87158200000016
 20
-101.93096200000028
 10
200.92263600000018
 20
-101.96957000000027
 10
200.97369000000018
 20
-102.00817800000027
 10
201.0247440000002
 20
-102.04678600000027
 10
201.0757980000002
 20
-102.08539400000026
 10
201.12685200000018
 20
-102.12400200000026
 10
201.1779060000002
 20
-102.16261000000026
 10
201.2289600000002
 20
-102.20121800000025
 10
201.28001400000022
 20
-102.23982600000025
 10
201.33106800000022
 20
-102.27843400000025
 10
201.38212200000024
 20
-102.31704200000024
 10
201.43317600000023
 20
-102.35565000000024
 10
201.48423000000022
 20
-102.39425800000024
 10
201.53528400000025
 20
-102.43286600000023
 10
201.58633800000024
 20
-102.47147400000023
 10
201.63739200000026
 20
-102.51008200000022
 10
201.68844600000025
 20
-102.54869000000022
 10
201.73950000000028
 20
-102.58729800000022
 10
201.76540800000026
 20
-102.60863400000022
 10
201.79080800000025
 20
-102.63022400000021
 10
201.81595400000026
 20
-102.65232200000021
 10
201.84084600000025
 20
-102.67467400000022
 10
201.86548400000027
 20
-102.6975340000002
 10
201.88961400000028
 20
-102.72064800000021
 10
201.91349000000028
 20
-102.74427000000021
 10
201.93711200000027
 20
-102.76814600000021
 10
201.96022600000026
 20
-102.79227600000023
 10
201.98308600000027
 20
-102.81691400000021
 10
202.00543800000028
 20
-102.84180600000022
 10
202.02753600000025
 20
-102.86695200000021
 10
202.04938000000027
 20
-102.89235200000023
 10
202.07071600000026
 20
-102.91826000000022
 10
202.09179800000024
 20
-102.94442200000022
 10
202.11237200000025
 20
-102.97083800000021
 10
202.13243800000023
 20
-102.99750800000022
 10
202.15225000000024
 20
-103.02443200000022
 10
202.17155400000024
 20
-103.05186400000022
 10
202.19060400000026
 20
-103.07955000000021
 10
202.20914600000023
 20
-103.10749000000021
 10
202.22718000000026
 20
-103.13568400000021
 10
202.24496000000028
 20
-103.16413200000022
 10
202.26223200000027
 20
-103.19283400000022
 10
202.27899600000026
 20
-103.22179000000021
 10
202.29525200000026
 20
-103.25100000000022
 10
202.31125400000025
 20
-103.28046400000021
 10
202.32674800000026
 20
-103.31018200000022
 10
202.34173400000026
 20
-103.34015400000021
 10
202.35621200000026
 20
-103.37038000000022
 10
202.37018200000026
 20
-103.40086000000022
 10
202.38389800000024
 20
-103.43159400000022
 10
202.41615600000023
 20
-103.51058800000021
 10
202.44485800000024
 20
-103.59034400000021
 10
202.47000400000024
 20
-103.67111600000021
 10
202.49184800000026
 20
-103.75265000000023
 10
202.51039000000026
 20
-103.83494600000023
 10
202.52563000000023
 20
-103.91800400000022
 10
202.53807600000025
 20
-104.00182400000023
 10
202.54747400000025
 20
-104.08615200000023
 10
202.55433200000024
 20
-104.17098800000022
 10
202.55839600000024
 20
-104.25633200000023
 10
202.56017400000025
 20
-104.34218400000023
 10
202.5594120000002
 20
-104.42829000000023
 10
202.55636400000023
 20
-104.51465000000023
 10
202.55128400000024
 20
-104.60126400000023
 10
202.54417200000023
 20
-104.68787800000023
 10
202.53528200000025
 20
-104.77474600000022
 10
202.52461400000024
 20
-104.86161400000022
 10
202.51242200000024
 20
-104.94848200000021
 10
202.49870600000025
 20
-105.03509600000022
 10
202.48372000000026
 20
-105.12145600000021
 10
202.46746400000026
 20
-105.20756200000021
 10
202.45019200000027
 20
-105.29341400000021
 10
202.43215800000024
 20
-105.37901200000022
 10
202.41310800000025
 20
-105.46410200000021
 10
202.39355000000023
 20
-105.54868400000022
 10
202.37323000000023
 20
-105.63275800000022
 10
202.35265600000022
 20
-105.71632400000023
 10
202.33182800000023
 20
-105.79912800000022
 10
202.31074600000025
 20
-105.88117000000022
 10
202.28966400000024
 20
-105.96245000000022
 10
202.26858200000026
 20
-106.04271400000022
 10
202.24775400000027
 20
-106.12221600000021
 10
202.22286200000028
 20
-106.2151800000002
 10
202.19720800000027
 20
-106.30789000000021
 10
202.17079200000026
 20
-106.4003460000002
 10
202.14386800000025
 20
-106.4925480000002
 10
202.11618200000024
 20
-106.58449600000021
 10
202.08798800000025
 20
-106.67644400000022
 10
202.05928600000024
 20
-106.7681380000002
 10
202.03007600000024
 20
-106.85957800000021
 10
202.00035800000023
 20
-106.95101800000022
 10
201.97038600000022
 20
-107.04220400000021
 10
201.93990600000024
 20
-107.1333900000002
 10
201.90917200000024
 20
-107.2245760000002
 10
201.87818400000026
 20
-107.31550800000021
 10
201.84694200000024
 20
-107.4064400000002
 10
201.81544600000024
 20
-107.49737200000021
 10
201.78395000000023
 20
-107.5883040000002
 10
201.75245400000023
 20
-107.67898200000022
 10
201.7207040000002
 20
-107.76966000000023
 10
201.68895400000022
 20
-107.86033800000023
 10
201.65745800000022
 20
-107.95101600000024
 10
201.62596200000021
 20
-108.04194800000023
 10
201.5944660000002
 20
-108.13288000000024
 10
201.5632240000002
 20
-108.22381200000024
 10
201.5322360000002
 20
-108.31474400000025
 10
201.50150200000022
 20
-108.40593000000024
 10
201.4710220000002
 20
-108.49711600000023
 10
201.4407960000002
 20
-108.58830200000023
 10
201.4110780000002
 20
-108.67974200000023
 10
201.3818680000002
 20
-108.77118200000024
 10
201.3531660000002
 20
-108.86287600000023
 10
201.3249720000002
 20
-108.95482400000024
 10
201.29728600000018
 20
-109.04677200000025
 10
201.03388800000016
 20
-109.95939400000024
 10
200.77049000000017
 20
-110.87201600000026
 10
200.50709200000014
 20
-111.78463800000026
 10
200.24369400000015
 20
-112.69726000000026
 10
199.98029600000012
 20
-113.60988200000027
 10
199.71689800000013
 20
-114.52250400000027
 10
199.4535000000001
 20
-115.43512600000028
 10
199.1901020000001
 20
-116.34774800000028
 10
198.92670400000011
 20
-117.26037000000028
 10
198.6633060000001
 20
-118.17299200000029
 10
198.3999080000001
 20
-119.08561400000029
 10
198.13651000000007
 20
-119.9982360000003
 10
197.87311200000008
 20
-120.9108580000003
 10
197.60971400000005
 20
-121.8234800000003
 10
197.34631600000006
 20
-122.73610200000032
 10
197.08291800000003
 20
-123.64872400000031
 10
196.81952000000004
 20
-124.56134600000031
 10
196.55612200000002
 20
-125.47396800000033
 10
196.29272400000002
 20
-126.38659000000033
 10
196.029326
 20
-127.29921200000034
 10
195.765928
 20
-128.21183400000035
 10
195.50252999999998
 20
-129.12445600000035
 10
195.23913199999998
 20
-130.03707800000035
 10
194.97573399999996
 20
-130.94970000000035
 10
194.71233599999996
 20
-131.86232200000032
 10
194.44893799999994
 20
-132.77494400000032
 10
194.18553999999995
 20
-133.68756600000032
 10
193.92214199999992
 20
-134.6001880000003
 10
193.65874399999993
 20
-135.5128100000003
 10
193.3953459999999
 20
-136.42543200000028
 10
193.1319479999999
 20
-137.33805400000026
 10
192.86854999999989
 20
-138.25067600000025
 10
192.8751539999999
 20
-138.42263400000027
 10
192.87820199999987
 20
-138.59637000000026
 10
192.87769399999988
 20
-138.77163000000027
 10
192.8736299999999
 20
-138.94816000000029
 10
192.8662639999999
 20
-139.12545200000028
 10
192.85559599999988
 20
-139.3032520000003
 10
192.8416259999999
 20
-139.4810520000003
 10
192.8246079999999
 20
-139.6588520000003
 10
192.8047959999999
 20
-139.83589000000032
 10
192.7819359999999
 20
-140.0121660000003
 10
192.7565359999999
 20
-140.1871720000003
 10
192.72834199999988
 20
-140.36040000000028
 10
192.6976079999999
 20
-140.5315960000003
 10
192.6643339999999
 20
-140.70050600000027
 10
192.6287739999999
 20
-140.86687600000027
 10
192.5909279999999
 20
-141.03019800000027
 10
192.5510499999999
 20
-141.19021800000027
 10
192.50913999999992
 20
-141.3464280000003
 10
192.4651979999999
 20
-141.4985740000003
 10
192.4194779999999
 20
-141.6461480000003
 10
192.37197999999992
 20
-141.7891500000003
 10
192.32295799999991
 20
-141.9268180000003
 10
192.27241199999995
 20
-142.0591520000003
 10
192.22034199999993
 20
-142.1856440000003
 10
192.1670019999999
 20
-142.3057860000003
 10
192.11239199999991
 20
-142.41957800000029
 10
192.0567659999999
 20
-142.5265120000003
 10
192.00012399999991
 20
-142.62608000000031
 10
191.9424659999999
 20
-142.71802800000032
 10
191.8840459999999
 20
-142.8021020000003
 10
191.82511799999992
 20
-142.8777940000003
 10
191.7654279999999
 20
-142.94485000000032
 10
191.6765279999999
 20
-143.0337500000003
 10
191.5845799999999
 20
-143.11757000000034
 10
191.4895839999999
 20
-143.19681800000032
 10
191.3915399999999
 20
-143.27124000000035
 10
191.2907019999999
 20
-143.34134400000033
 10
191.1873239999999
 20
-143.40713000000034
 10
191.08140599999987
 20
-143.46859800000033
 10
190.97320199999987
 20
-143.52600200000032
 10
190.86271199999987
 20
-143.57959600000032
 10
190.7499359999999
 20
-143.62938000000034
 10
190.63538199999988
 20
-143.67560800000032
 10
190.5187959999999
 20
-143.71853400000032
 10
190.4004319999999
 20
-143.75815800000032
 10
190.2805439999999
 20
-143.79448000000033
 10
190.15913199999991
 20
-143.8277540000003
 10
190.03644999999995
 20
-143.85823400000032
 10
189.9124979999999
 20
-143.8859200000003
 10
189.78752999999992
 20
-143.91106600000035
 10
189.66154599999993
 20
-143.93392600000035
 10
189.53479999999993
 20
-143.95450000000034
 10
189.40729199999993
 20
-143.97278800000035
 10
189.27927599999992
 20
-143.98929800000036
 10
189.15075199999995
 20
-144.00377600000036
 10
189.02197399999994
 20
-144.01673000000036
 10
188.89294199999995
 20
-144.02816000000036
 10
188.76390999999992
 20
-144.03806600000036
 10
188.63487799999993
 20
-144.04670200000035
 10
188.50609999999995
 20
-144.05432200000035
 10
188.37757599999995
 20
-144.06092600000034
 10
188.24955999999995
 20
-144.06676800000034
 10
188.12230599999995
 20
-144.07210200000034
 10
187.99555999999995
 20
-144.07667400000034
 10
187.55791799999994
 20
-144.09166000000033
 10
187.12002199999995
 20
-144.10537600000032
 10
186.68187199999994
 20
-144.11782200000033
 10
186.24346799999992
 20
-144.12925200000032
 10
185.80506399999993
 20
-144.13966600000032
 10
185.36640599999996
 20
-144.14906400000035
 10
184.92749399999997
 20
-144.15770000000035
 10
184.48858199999998
 20
-144.16557400000033
 10
184.04941599999995
 20
-144.17268600000034
 10
183.61024999999995
 20
-144.17929000000032
 10
183.17082999999994
 20
-144.1853860000003
 10
182.73140999999993
 20
-144.19097400000032
 10
182.29198999999994
 20
-144.19630800000033
 10
181.85231599999995
 20
-144.20138800000032
 10
181.41264199999992
 20
-144.2064680000003
 10
180.97296799999992
 20
-144.21129400000032
 10
180.53329399999993
 20
-144.2161200000003
 10
180.09361999999993
 20
-144.2212000000003
 10
179.65394599999993
 20
-144.22628000000032
 10
179.21452599999992
 20
-144.2316140000003
 10
178.77510599999994
 20
-144.2374560000003
 10
178.33568599999992
 20
-144.2435520000003
 10
177.89651999999992
 20
-144.2501560000003
 10
177.4573539999999
 20
-144.2572680000003
 10
177.0184419999999
 20
-144.26514200000028
 10
176.57952999999992
 20
-144.27377800000028
 10
176.14087199999994
 20
-144.28317600000028
 10
175.70246799999993
 20
-144.2935900000003
 10
175.26406399999993
 20
-144.3050200000003
 10
174.82591399999993
 20
-144.31746600000028
 10
174.38801799999993
 20
-144.33118200000027
 10
173.95037599999992
 20
-144.34616800000026
 10
173.71009199999992
 20
-144.35455000000027
 10
173.46523599999992
 20
-144.36191600000026
 10
173.21682399999992
 20
-144.36801200000028
 10
172.9653639999999
 20
-144.37182200000026
 10
172.7116179999999
 20
-144.37283800000029
 10
172.4563479999999
 20
-144.37029800000028
 10
172.2003159999999
 20
-144.3636940000003
 10
171.9440299999999
 20
-144.3522640000003
 10
171.68825199999992
 20
-144.3352460000003
 10
171.43374399999993
 20
-144.3121320000003
 10
171.18126799999993
 20
-144.2821600000003
 10
170.93158599999992
 20
-144.24482200000028
 10
170.68520599999994
 20
-144.1991020000003
 10
170.44288999999995
 20
-144.14474600000028
 10
170.20539999999994
 20
-144.08073800000028
 10
169.97349799999995
 20
-144.00657000000027
 10
169.74769199999994
 20
-143.92148000000026
 10
169.52874399999996
 20
-143.82496000000026
 10
169.31741599999995
 20
-143.71624800000026
 10
169.11446999999995
 20
-143.59458200000026
 10
168.92066799999995
 20
-143.45945400000025
 10
168.73651799999993
 20
-143.31010200000026
 10
168.56278199999994
 20
-143.14601800000025
 10
168.40022199999996
 20
-142.96644000000026
 10
168.24959999999996
 20
-142.77060600000027
 10
168.11142399999997
 20
-142.55775400000027
 10
167.98671
 20
-142.32737600000027
 10
167.87596599999998
 20
-142.0789640000003
 10
167.77969999999996
 20
-141.81150200000027
 10
167.69892799999997
 20
-141.5244820000003
 10
167.63415799999996
 20
-141.2173960000003
 10
167.58640599999998
 20
-140.8894820000003
 10
167.58030999999997
 20
-140.83487200000027
 10
167.574976
 20
-140.78026200000028
 10
167.57040399999997
 20
-140.72565200000025
 10
167.56634
 20
-140.67078800000027
 10
167.56303799999998
 20
-140.61592400000026
 10
167.56024399999998
 20
-140.56106000000025
 10
167.55795799999999
 20
-140.50619600000024
 10
167.556434
 20
-140.45133200000026
 10
167.55541799999997
 20
-140.39646800000025
 10
167.555164
 20
-140.34160400000025
 10
167.55541799999997
 20
-140.28674000000024
 10
167.55617999999998
 20
-140.23187600000026
 10
167.55770399999997
 20
-140.17701200000025
 10
167.559736
 20
-140.12214800000024
 10
167.56252999999998
 20
-140.06728400000023
 10
167.565832
 20
-140.01242000000025
 10
167.569642
 20
-139.95755600000024
 10
167.57396
 20
-139.90269200000023
 10
167.57904
 20
-139.84782800000022
 10
167.584628
 20
-139.79296400000024
 10
167.59072400000002
 20
-139.73835400000021
 10
167.597328
 20
-139.68374400000022
 10
167.60444
 20
-139.6291340000002
 10
167.612314
 20
-139.57477800000018
 10
167.620696
 20
-139.52042200000017
 10
167.629586
 20
-139.46606600000015
 10
167.638984
 20
-139.41196400000018
 10
167.64889
 20
-139.35786200000018
 10
167.65930400000002
 20
-139.30376000000018
 10
167.670226
 20
-139.2499120000002
 10
167.681656
 20
-139.1960640000002
 10
167.69359400000002
 20
-139.1424700000002
  0
LWPOLYLINE
  5
30
330
17
100
AcDbEntity
  8
0
100
AcDbPolyline
 90
129
 70
0
 10
186.37859600000002
 20
-88.7790960000002
 10
186.38672400000002
 20
-89.0960880000002
 10
186.41060000000002
 20
-89.40876200000018
 10
186.44971600000002
 20
-89.71686400000019
 10
186.50381800000002
 20
-90.0201400000002
 10
186.572652
 20
-90.31808200000019
 10
186.65571
 20
-90.6101820000002
 10
186.752484
 20
-90.89618600000018
 10
186.86272
 20
-91.17584000000018
 10
186.98616399999997
 20
-91.44863600000019
 10
187.122054
 20
-91.71406600000019
 10
187.27038999999996
 20
-91.9718760000002
 10
187.43066399999995
 20
-92.22181200000018
 10
187.60236799999996
 20
-92.46336600000019
 10
187.78524799999997
 20
-92.69603000000019
 10
187.97879599999996
 20
-92.91955000000019
 10
188.18275799999995
 20
-93.13341800000018
 10
188.39662599999997
 20
-93.33738000000018
 10
188.62014599999995
 20
-93.53092800000019
 10
188.85280999999998
 20
-93.71380800000018
 10
189.09436399999998
 20
-93.88551200000019
 10
189.34429999999998
 20
-94.04578600000018
 10
189.60210999999998
 20
-94.19412200000018
 10
189.86753999999996
 20
-94.33001200000018
 10
190.14033599999996
 20
-94.45345600000019
 10
190.41998999999996
 20
-94.56369200000019
 10
190.70599399999995
 20
-94.66046600000018
 10
190.99809399999995
 20
-94.74352400000018
 10
191.29603599999996
 20
-94.81235800000019
 10
191.59931199999994
 20
-94.86646000000019
 10
191.90741399999993
 20
-94.9055760000002
 10
192.22008799999992
 20
-94.92945200000018
 10
192.53707999999995
 20
-94.93758000000018
 10
192.85407199999995
 20
-94.92945200000018
 10
193.16674599999996
 20
-94.9055760000002
 10
193.47484799999995
 20
-94.86646000000019
 10
193.77812399999993
 20
-94.81235800000019
 10
194.07606599999994
 20
-94.74352400000018
 10
194.36816599999992
 20
-94.66046600000018
 10
194.6541699999999
 20
-94.56369200000019
 10
194.93382399999993
 20
-94.45345600000019
 10
195.2066199999999
 20
-94.33001200000018
 10
195.4720499999999
 20
-94.19412200000018
 10
195.7298599999999
 20
-94.04578600000018
 10
195.9797959999999
 20
-93.88551200000019
 10
196.22134999999992
 20
-93.71380800000018
 10
196.45401399999992
 20
-93.53092800000019
 10
196.67753399999992
 20
-93.33738000000018
 10
196.8914019999999
 20
-93.13341800000018
 10
197.0953639999999
 20
-92.91955000000019
 10
197.2889119999999
 20
-92.69603000000019
 10
197.4717919999999
 20
-92.46336600000019
 10
197.6434959999999
 20
-92.22181200000018
 10
197.80376999999993
 20
-91.9718760000002
 10
197.9521059999999
 20
-91.71406600000019
 10
198.0879959999999
 20
-91.44863600000019
 10
198.2114399999999
 20
-91.17584000000018
 10
198.32167599999988
 20
-90.89618600000018
 10
198.41844999999986
 20
-90.6101820000002
 10
198.5015079999999
 20
-90.31808200000019
 10
198.57034199999987
 20
-90.0201400000002
 10
198.62444399999987
 20
-89.71686400000019
 10
198.66355999999985
 20
-89.40876200000018
 10
198.68743599999988
 20
-89.0960880000002
 10
198.69556399999988
 20
-88.7790960000002
 10
198.68743599999988
 20
-88.4621040000002
 10
198.66355999999985
 20
-88.1494300000002
 10
198.62444399999987
 20
-87.84132800000019
 10
198.57034199999987
 20
-87.53805200000018
 10
198.5015079999999
 20
-87.24011000000019
 10
198.41844999999986
 20
-86.9480100000002
 10
198.32167599999988
 20
-86.66200600000019
 10
198.2114399999999
 20
-86.3823520000002
 10
198.0879959999999
 20
-86.1095560000002
 10
197.9521059999999
 20
-85.84412600000019
 10
197.80376999999993
 20
-85.5863160000002
 10
197.6434959999999
 20
-85.33638000000019
 10
197.4717919999999
 20
-85.0948260000002
 10
197.2889119999999
 20
-84.8621620000002
 10
197.0953639999999
 20
-84.63864200000019
 10
196.8914019999999
 20
-84.4247740000002
 10
196.67753399999992
 20
-84.2208120000002
 10
196.45401399999992
 20
-84.0272640000002
 10
196.22134999999992
 20
-83.84438400000019
 10
195.9797959999999
 20
-83.6726800000002
 10
195.7298599999999
 20
-83.5124060000002
 10
195.4720499999999
 20
-83.3640700000002
 10
195.2066199999999
 20
-83.2281800000002
 10
194.93382399999993
 20
-83.10499000000019
 10
194.6541699999999
 20
-82.99475400000019
 10
194.36816599999992
 20
-82.89798000000019
 10
194.07606599999994
 20
-82.8149220000002
 10
193.77812399999993
 20
-82.74608800000019
 10
193.47484799999995
 20
-82.69198600000018
 10
193.16674599999996
 20
-82.65287000000018
 10
192.85407199999995
 20
-82.62899400000018
 10
192.53707999999995
 20
-82.62086600000019
 10
192.22008799999992
 20
-82.62899400000018
 10
191.90741399999993
 20
-82.65287000000018
 10
191.59931199999994
 20
-82.69198600000018
 10
191.29603599999996
 20
-82.74608800000019
 10
190.99809399999995
 20
-82.8149220000002
 10
190.70599399999995
 20
-82.89798000000019
 10
190.41998999999996
 20
-82.99475400000019
 10
190.14033599999996
 20
-83.10499000000019
 10
189.86753999999996
 20
-83.2281800000002
 10
189.60210999999998
 20
-83.3640700000002
 10
189.34429999999998
 20
-83.5124060000002
 10
189.09436399999998
 20
-83.6726800000002
 10
188.85280999999998
 20
-83.84438400000019
 10
188.62014599999995
 20
-84.0272640000002
 10
188.39662599999997
 20
-84.2208120000002
 10
188.18275799999995
 20
-84.4247740000002
 10
187.97879599999996
 20
-84.63864200000019
 10
187.78524799999997
 20
-84.8621620000002
 10
187.60236799999996
 20
-85.0948260000002
 10
187.43066399999995
 20
-85.33638000000019
 10
187.27038999999996
 20
-85.5863160000002
 10
187.122054
 20
-85.84412600000019
 10
186.98616399999997
 20
-86.1095560000002
 10
186.86272
 20
-86.3823520000002
 10
186.752484
 20
-86.66200600000019
 10
186.65571
 20
-86.9480100000002
 10
186.572652
 20
-87.24011000000019
 10
186.50381800000002
 20
-87.53805200000018
 10
186.44971600000002
 20
-87.84132800000019
 10
186.41060000000002
 20
-88.1494300000002
 10
186.38672400000002
 20
-88.4621040000002
 10
186.37859600000002
 20
-88.7790960000002
  0
LWPOLYLINE
  5
32
330
17
100
AcDbEntity
  8
0
100
AcDbPolyline
 90
545
 70
0
 10
205.68970800000045
 20
-69.99274799999984
 10
205.76184400000045
 20
-70.06183599999983
 10
205.82940800000043
 20
-70.13676599999984
 10
205.89214600000042
 20
-70.21702999999982
 10
205.95031200000042
 20
-70.30262799999983
 10
206.00390600000043
 20
-70.39279799999983
 10
206.05292800000043
 20
-70.48728599999983
 10
206.09737800000042
 20
-70.58583799999982
 10
206.13725600000043
 20
-70.68794599999983
 10
206.17256200000043
 20
-70.79310199999982
 10
206.20329600000042
 20
-70.90105199999982
 10
206.22945800000042
 20
-71.01154199999982
 10
206.25104800000042
 20
-71.12380999999982
 10
206.26806600000043
 20
-71.23785599999982
 10
206.2805120000004
 20
-71.35291799999982
 10
206.28813200000042
 20
-71.46899599999982
 10
206.2911800000004
 20
-71.58532799999982
 10
206.2896560000004
 20
-71.70165999999983
 10
206.2835600000004
 20
-71.81773799999984
 10
206.27289200000038
 20
-71.93305399999983
 10
206.2576520000004
 20
-72.04735399999983
 10
206.2378400000004
 20
-72.16012999999984
 10
206.2134560000004
 20
-72.27087399999984
 10
206.1842460000004
 20
-72.37933199999983
 10
206.1504640000004
 20
-72.48499599999984
 10
206.11211000000043
 20
-72.58761199999984
 10
206.06918400000043
 20
-72.68667199999983
 10
206.02168600000041
 20
-72.78192199999982
 10
205.9696160000004
 20
-72.87285399999983
 10
205.91297400000042
 20
-72.95921399999982
 10
205.85150600000043
 20
-73.04049399999982
 10
205.78546600000044
 20
-73.11618599999983
 10
205.71485400000043
 20
-73.18603599999982
 10
206.40268600000041
 20
-73.19416399999982
 10
207.0905180000004
 20
-73.2022919999998
 10
207.77835000000042
 20
-73.2104199999998
 10
208.4661820000004
 20
-73.2185479999998
 10
209.1540140000004
 20
-73.2266759999998
 10
209.84184600000037
 20
-73.23480399999978
 10
210.52967800000036
 20
-73.24293199999978
 10
211.21751000000037
 20
-73.25105999999978
 10
211.90534200000036
 20
-73.25918799999978
 10
212.59317400000035
 20
-73.26731599999977
 10
213.28100600000033
 20
-73.27544399999977
 10
213.96883800000035
 20
-73.28357199999977
 10
214.65667000000033
 20
-73.29169999999976
 10
215.34450200000032
 20
-73.29982799999975
 10
216.0323340000003
 20
-73.30795599999975
 10
216.7201660000003
 20
-73.31608399999975
 10
217.4079980000003
 20
-73.32421199999975
 10
218.0958300000003
 20
-73.33233999999973
 10
218.78366200000028
 20
-73.34046799999973
 10
219.47149400000026
 20
-73.34859599999973
 10
220.15932600000028
 20
-73.35672399999972
 10
220.84715800000026
 20
-73.36485199999971
 10
221.53499000000025
 20
-73.37297999999971
 10
222.22282200000024
 20
-73.38110799999971
 10
222.91065400000022
 20
-73.3892359999997
 10
223.59848600000024
 20
-73.3973639999997
 10
224.28631800000022
 20
-73.4054919999997
 10
224.9741500000002
 20
-73.4136199999997
 10
225.6619820000002
 20
-73.42174799999968
 10
226.3498140000002
 20
-73.42987599999968
 10
227.0376460000002
 20
-73.43800399999968
 10
227.72547800000018
 20
-73.44613199999968
 10
227.76205400000018
 20
-73.44689399999967
 10
227.7981220000002
 20
-73.44917999999967
 10
227.83368200000018
 20
-73.45273599999967
 10
227.8687340000002
 20
-73.45781599999967
 10
227.9032780000002
 20
-73.46416599999966
 10
227.9370600000002
 20
-73.47203999999967
 10
227.9703340000002
 20
-73.48118399999967
 10
228.0028460000002
 20
-73.49159799999967
 10
228.0345960000002
 20
-73.50302799999967
 10
228.0653300000002
 20
-73.51572799999967
 10
228.0953020000002
 20
-73.52969799999967
 10
228.12425800000022
 20
-73.54468399999968
 10
228.15219800000023
 20
-73.56068599999968
 10
228.17912200000023
 20
-73.57770399999968
 10
228.20503000000022
 20
-73.59573799999968
 10
228.22992200000022
 20
-73.61478799999968
 10
228.2535440000002
 20
-73.63485399999969
 10
228.2761500000002
 20
-73.65568199999969
 10
228.2974860000002
 20
-73.67727199999968
 10
228.31755200000018
 20
-73.69987799999969
 10
228.33609400000017
 20
-73.72324599999968
 10
228.35336600000016
 20
-73.74737599999968
 10
228.36911400000017
 20
-73.77201399999967
 10
228.3835920000002
 20
-73.79741399999968
 10
228.3965460000002
 20
-73.82357599999969
 10
228.40772200000018
 20
-73.85024599999969
 10
228.4173740000002
 20
-73.87742399999969
 10
228.4255020000002
 20
-73.9051099999997
 10
228.4318520000002
 20
-73.9333039999997
 10
228.43642400000022
 20
-73.96200599999969
 10
228.43921800000018
 20
-73.99096199999968
 10
228.4402340000002
 20
-74.02042599999967
 10
228.4282960000002
 20
-74.07986199999968
 10
228.4163580000002
 20
-74.13929799999967
 10
228.4044200000002
 20
-74.19873399999966
 10
228.39248200000017
 20
-74.25816999999967
 10
228.38054400000016
 20
-74.31760599999966
 10
228.36860600000017
 20
-74.37704199999965
 10
228.35666800000016
 20
-74.43647799999964
 10
228.34473000000014
 20
-74.49591399999964
 10
228.33279200000015
 20
-74.55534999999963
 10
228.32085400000014
 20
-74.61478599999963
 10
228.30891600000012
 20
-74.67422199999963
 10
228.2969780000001
 20
-74.73365799999962
 10
228.28504000000012
 20
-74.79309399999961
 10
228.2731020000001
 20
-74.8525299999996
 10
228.2611640000001
 20
-74.91196599999961
 10
228.2492260000001
 20
-74.9714019999996
 10
228.2372880000001
 20
-75.03083799999959
 10
228.22535000000008
 20
-75.0902739999996
 10
228.2134120000001
 20
-75.14970999999959
 10
228.20147400000008
 20
-75.20914599999958
 10
228.18953600000006
 20
-75.26858199999957
 10
228.17759800000005
 20
-75.32801799999957
 10
228.16566000000006
 20
-75.38745399999956
 10
228.15372200000004
 20
-75.44688999999956
 10
228.14178400000003
 20
-75.50632599999956
 10
228.12984600000004
 20
-75.56576199999955
 10
228.11790800000003
 20
-75.62519799999954
 10
228.10597
 20
-75.68463399999953
 10
228.09403200000003
 20
-75.74406999999954
 10
228.082094
 20
-75.80350599999953
 10
228.070156
 20
-75.86294199999952
 10
228.05821799999998
 20
-75.92237799999953
 10
228.043486
 20
-75.95641399999953
 10
228.026214
 20
-75.98943399999952
 10
228.006656
 20
-76.02143799999952
 10
227.985066
 20
-76.05242599999951
 10
227.96119
 20
-76.08265199999953
 10
227.93553599999998
 20
-76.11186199999953
 10
227.90784999999997
 20
-76.14005599999953
 10
227.87838599999998
 20
-76.16723399999954
 10
227.84739799999997
 20
-76.19339599999954
 10
227.81488599999997
 20
-76.21854199999953
 10
227.78110399999997
 20
-76.24267199999954
 10
227.74579799999995
 20
-76.26578599999954
 10
227.70947599999997
 20
-76.28788399999954
 10
227.67213799999993
 20
-76.30896599999954
 10
227.63378399999996
 20
-76.32877799999955
 10
227.59466799999996
 20
-76.34757399999954
 10
227.55478999999994
 20
-76.36535399999954
 10
227.51414999999994
 20
-76.38211799999954
 10
227.47300199999995
 20
-76.39761199999953
 10
227.43159999999995
 20
-76.41208999999954
 10
227.38994399999993
 20
-76.42555199999953
 10
227.34803399999996
 20
-76.43774399999954
 10
227.30612399999995
 20
-76.44891999999953
 10
227.26421399999998
 20
-76.45882599999953
 10
227.22255799999996
 20
-76.46771599999953
 10
227.18115599999996
 20
-76.47533599999953
 10
227.14000799999997
 20
-76.48193999999953
 10
227.09936799999997
 20
-76.48727399999953
 10
227.05948999999995
 20
-76.49133799999953
 10
227.02037399999998
 20
-76.49438599999954
 10
226.98201999999998
 20
-76.49616399999954
 10
226.94468199999997
 20
-76.49667199999953
 10
226.57180999999997
 20
-76.49590999999954
 10
226.19893799999997
 20
-76.49514799999955
 10
225.826066
 20
-76.49438599999955
 10
225.453194
 20
-76.49362399999956
 10
225.08032200000002
 20
-76.49286199999956
 10
224.70745000000002
 20
-76.49209999999957
 10
224.33457800000002
 20
-76.49133799999957
 10
223.96170600000005
 20
-76.49057599999956
 10
223.58883400000005
 20
-76.48981399999957
 10
223.21596200000005
 20
-76.48905199999957
 10
222.84309000000007
 20
-76.48828999999958
 10
222.47021800000007
 20
-76.48752799999959
 10
222.0973460000001
 20
-76.48676599999959
 10
221.7244740000001
 20
-76.4860039999996
 10
221.3516020000001
 20
-76.48524199999959
 10
220.97873000000013
 20
-76.48447999999959
 10
220.60585800000013
 20
-76.4837179999996
 10
220.23298600000015
 20
-76.4829559999996
 10
219.86011400000015
 20
-76.48219399999961
 10
219.48724200000015
 20
-76.48143199999961
 10
219.11437000000018
 20
-76.48066999999962
 10
218.74149800000018
 20
-76.47990799999963
 10
218.36862600000018
 20
-76.47914599999962
 10
217.9957540000002
 20
-76.47838399999962
 10
217.6228820000002
 20
-76.47762199999963
 10
217.25001000000023
 20
-76.47685999999963
 10
216.87713800000023
 20
-76.47609799999964
 10
216.50426600000023
 20
-76.47533599999964
 10
216.13139400000026
 20
-76.47457399999965
 10
215.75852200000026
 20
-76.47381199999965
 10
215.38565000000028
 20
-76.47304999999965
 10
215.01277800000028
 20
-76.47228799999965
 10
215.07196000000027
 20
-76.47381199999965
 10
215.13012600000027
 20
-76.47863799999965
 10
215.18727600000028
 20
-76.48676599999965
 10
215.24315600000028
 20
-76.49819599999965
 10
215.2977660000003
 20
-76.51267399999965
 10
215.3508520000003
 20
-76.53019999999965
 10
215.40241400000028
 20
-76.55051999999965
 10
215.45245200000028
 20
-76.57363399999966
 10
215.5009660000003
 20
-76.59954199999964
 10
215.54770200000027
 20
-76.62798999999966
 10
215.59266000000028
 20
-76.65872399999965
 10
215.63558600000027
 20
-76.69199799999964
 10
215.6767340000003
 20
-76.72755799999965
 10
215.7155960000003
 20
-76.76514999999965
 10
215.7524260000003
 20
-76.80477399999965
 10
215.78697000000028
 20
-76.84642999999964
 10
215.81922800000027
 20
-76.88986399999965
 10
215.84920000000028
 20
-76.93482199999964
 10
215.87663200000026
 20
-76.98155799999965
 10
215.90152400000025
 20
-77.02981799999965
 10
215.92362200000025
 20
-77.07934799999965
 10
215.94318000000024
 20
-77.13014799999965
 10
215.95994400000026
 20
-77.18221799999965
 10
215.97366000000025
 20
-77.23530399999964
 10
215.98432800000026
 20
-77.28940599999964
 10
215.99194800000026
 20
-77.34452399999965
 10
215.99652000000026
 20
-77.40040399999965
 10
215.99779000000026
 20
-77.45679199999965
 10
215.99575800000025
 20
-77.51368799999965
 10
215.99042400000027
 20
-77.57109199999965
 10
215.98153400000027
 20
-77.62874999999964
 10
215.96908800000028
 20
-77.68666199999964
 10
215.92946400000028
 20
-77.89417999999965
 10
215.8898400000003
 20
-78.10169799999964
 10
215.8502160000003
 20
-78.30921599999965
 10
215.81059200000033
 20
-78.51673399999964
 10
215.77096800000035
 20
-78.72425199999965
 10
215.73134400000035
 20
-78.93176999999966
 10
215.69172000000037
 20
-79.13928799999965
 10
215.65209600000037
 20
-79.34680599999966
 10
215.6124720000004
 20
-79.55432399999965
 10
215.5728480000004
 20
-79.76184199999966
 10
215.53322400000042
 20
-79.96935999999967
 10
215.49360000000044
 20
-80.17687799999966
 10
215.45397600000044
 20
-80.38439599999967
 10
215.41435200000046
 20
-80.59191399999966
 10
215.37472800000046
 20
-80.79943199999967
 10
215.33510400000048
 20
-81.00694999999968
 10
215.29548000000048
 20
-81.21446799999967
 10
215.2558560000005
 20
-81.42198599999968
 10
215.21623200000053
 20
-81.62950399999968
 10
215.17660800000053
 20
-81.83702199999968
 10
215.13698400000055
 20
-82.04453999999969
 10
215.09736000000055
 20
-82.25205799999968
 10
215.05773600000057
 20
-82.45957599999969
 10
215.0181120000006
 20
-82.6670939999997
 10
214.9784880000006
 20
-82.87461199999969
 10
214.93886400000062
 20
-83.0821299999997
 10
214.89924000000062
 20
-83.28964799999969
 10
214.85961600000064
 20
-83.4971659999997
 10
214.81999200000064
 20
-83.7046839999997
 10
214.78036800000066
 20
-83.9122019999997
 10
214.7407440000007
 20
-84.1197199999997
 10
214.70112000000069
 20
-84.3272379999997
 10
214.80170400000068
 20
-84.2840579999997
 10
214.90406600000068
 20
-84.2424019999997
 10
215.00820600000068
 20
-84.2020159999997
 10
215.1141240000007
 20
-84.1631539999997
 10
215.22156600000068
 20
-84.12556199999969
 10
215.3305320000007
 20
-84.08949399999969
 10
215.44102200000066
 20
-84.0546959999997
 10
215.5527820000007
 20
-84.0214219999997
 10
215.66555800000066
 20
-83.9894179999997
 10
215.77935000000065
 20
-83.9589379999997
 10
215.89415800000066
 20
-83.92998199999971
 10
216.00972800000068
 20
-83.90229599999971
 10
216.12606000000068
 20
-83.87613399999971
 10
216.24290000000067
 20
-83.85124199999971
 10
216.36024800000067
 20
-83.82787399999971
 10
216.47810400000068
 20
-83.80602999999971
 10
216.59621400000069
 20
-83.78545599999971
 10
216.7145780000007
 20
-83.7664059999997
 10
216.83294200000068
 20
-83.7488799999997
 10
216.9513060000007
 20
-83.7326239999997
 10
217.0694160000007
 20
-83.71789199999971
 10
217.18727200000072
 20
-83.7046839999997
 10
217.30487400000072
 20
-83.69274599999969
 10
217.4219680000007
 20
-83.68233199999969
 10
217.53855400000072
 20
-83.67344199999968
 10
217.65437800000072
 20
-83.6658219999997
 10
217.7694400000007
 20
-83.6597259999997
 10
217.8834860000007
 20
-83.6551539999997
 10
217.9965160000007
 20
-83.65210599999969
 10
218.1085300000007
 20
-83.6503279999997
 10
218.21927400000072
 20
-83.6500739999997
 10
218.32874800000073
 20
-83.6513439999997
 10
219.12732400000073
 20
-83.6569319999997
 10
219.92590000000072
 20
-83.6625199999997
 10
220.72447600000072
 20
-83.66810799999969
 10
221.52305200000075
 20
-83.6736959999997
 10
222.32162800000074
 20
-83.6792839999997
 10
223.12020400000074
 20
-83.68487199999969
 10
223.91878000000074
 20
-83.69045999999969
 10
224.71735600000073
 20
-83.69604799999968
 10
225.51593200000073
 20
-83.70163599999968
 10
226.31450800000073
 20
-83.70722399999968
 10
227.11308400000075
 20
-83.71281199999967
 10
227.91166000000075
 20
-83.71839999999968
 10
228.71023600000075
 20
-83.72398799999968
 10
229.50881200000075
 20
-83.72957599999967
 10
230.30738800000074
 20
-83.73516399999967
 10
231.10596400000074
 20
-83.74075199999966
 10
231.90454000000076
 20
-83.74633999999966
 10
232.70311600000076
 20
-83.75192799999967
 10
233.50169200000076
 20
-83.75751599999965
 10
234.30026800000076
 20
-83.76310399999966
 10
235.09884400000075
 20
-83.76869199999966
 10
235.89742000000075
 20
-83.77427999999965
 10
236.69599600000075
 20
-83.77986799999965
 10
237.49457200000077
 20
-83.78545599999966
 10
238.29314800000077
 20
-83.79104399999964
 10
239.09172400000077
 20
-83.79663199999965
 10
239.89030000000076
 20
-83.80221999999964
 10
240.68887600000076
 20
-83.80780799999964
 10
241.48745200000076
 20
-83.81339599999964
 10
242.28602800000078
 20
-83.81898399999963
 10
243.08460400000078
 20
-83.82457199999963
 10
243.88318000000078
 20
-83.83015999999964
 10
243.91264400000077
 20
-83.82965199999963
 10
243.94185400000077
 20
-83.82838199999964
 10
243.97106400000078
 20
-83.82609599999962
 10
244.00002000000077
 20
-83.82304799999963
 10
244.0289760000008
 20
-83.81923799999963
 10
244.0576780000008
 20
-83.81441199999963
 10
244.0861260000008
 20
-83.80882399999963
 10
244.1143200000008
 20
-83.80247399999963
 10
244.1422600000008
 20
-83.79536199999963
 10
244.1699460000008
 20
-83.78723399999963
 10
244.19737800000078
 20
-83.77834399999963
 10
244.22455600000077
 20
-83.76869199999963
 10
244.2512260000008
 20
-83.75827799999962
 10
244.2776420000008
 20
-83.74710199999963
 10
244.30380400000078
 20
-83.73516399999963
 10
244.32945800000078
 20
-83.72246399999962
 10
244.3548580000008
 20
-83.70900199999963
 10
244.3797500000008
 20
-83.69477799999963
 10
244.40438800000078
 20
-83.67979199999962
 10
244.4285180000008
 20
-83.66404399999962
 10
244.45214000000078
 20
-83.64778799999961
 10
244.47525400000077
 20
-83.63076999999961
 10
244.4978600000008
 20
-83.61298999999961
 10
244.5199580000008
 20
-83.59444799999962
 10
244.5415480000008
 20
-83.57539799999962
 10
244.56263000000078
 20
-83.55558599999962
 10
244.5832040000008
 20
-83.53501199999963
 10
244.60327000000078
 20
-83.51392999999962
 10
244.6228280000008
 20
-83.49208599999962
 10
244.64162400000077
 20
-83.4697339999996
 10
244.65991200000076
 20
-83.4466199999996
 10
244.67743800000076
 20
-83.4229979999996
 10
244.83060000000074
 20
-83.20277999999959
 10
244.98376200000072
 20
-82.98256199999959
 10
245.13692400000073
 20
-82.76234399999959
 10
245.2900860000007
 20
-82.54212599999958
 10
245.4432480000007
 20
-82.32190799999958
 10
245.59641000000067
 20
-82.10168999999956
 10
245.74957200000068
 20
-81.88147199999956
 10
245.90273400000066
 20
-81.66125399999956
 10
246.05589600000064
 20
-81.44103599999956
 10
246.20905800000062
 20
-81.22081799999955
 10
246.36222000000063
 20
-81.00059999999955
 10
246.5153820000006
 20
-80.78038199999955
 10
246.6685440000006
 20
-80.56016399999953
 10
246.8217060000006
 20
-80.33994599999953
 10
246.97486800000058
 20
-80.11972799999953
 10
247.12803000000056
 20
-79.89950999999952
 10
247.28119200000054
 20
-79.67929199999952
 10
247.43435400000055
 20
-79.45907399999952
 10
247.58751600000053
 20
-79.23885599999952
 10
247.7406780000005
 20
-79.0186379999995
 10
247.8938400000005
 20
-78.7984199999995
 10
248.0470020000005
 20
-78.5782019999995
 10
248.20016400000048
 20
-78.35798399999949
 10
248.35332600000046
 20
-78.13776599999949
 10
248.50648800000045
 20
-77.91754799999948
 10
248.65965000000045
 20
-77.69732999999948
 10
248.81281200000043
 20
-77.47711199999947
 10
248.96597400000041
 20
-77.25689399999946
 10
249.1191360000004
 20
-77.03667599999946
 10
249.2722980000004
 20
-76.81645799999946
 10
249.42546000000038
 20
-76.59623999999945
 10
249.57862200000037
 20
-76.37602199999945
 10
249.58471800000038
 20
-76.36763999999944
 10
249.59106800000038
 20
-76.35951199999946
 10
249.59767200000036
 20
-76.35163799999945
 10
249.60453000000035
 20
-76.34401799999945
 10
249.61164200000036
 20
-76.33665199999946
 10
249.61900800000038
 20
-76.32953999999945
 10
249.62637400000037
 20
-76.32268199999946
 10
249.63399400000037
 20
-76.31582399999945
 10
249.64186800000036
 20
-76.30921999999946
 10
249.64999600000036
 20
-76.30286999999946
 10
249.65812400000036
 20
-76.29677399999946
 10
249.66650600000037
 20
-76.29093199999946
 10
249.67514200000036
 20
-76.28534399999945
 10
249.68377800000036
 20
-76.28000999999945
 10
249.69266800000037
 20
-76.27492999999946
 10
249.70155800000035
 20
-76.27010399999945
 10
249.71070200000034
 20
-76.26553199999947
 10
249.71984600000033
 20
-76.26121399999947
 10
249.72924400000034
 20
-76.25714999999946
 10
249.73864200000034
 20
-76.25359399999945
 10
249.74829400000033
 20
-76.25029199999946
 10
249.75794600000035
 20
-76.24724399999945
 10
249.76759800000033
 20
-76.24444999999946
 10
249.77750400000033
 20
-76.24190999999946
 10
249.78741000000034
 20
-76.23962399999945
 10
249.79731600000034
 20
-76.23759199999945
 10
249.80747600000032
 20
-76.23581399999945
 10
249.8176360000003
 20
-76.23454399999946
 10
249.82779600000032
 20
-76.23352799999945
 10
249.83821000000032
 20
-76.23276599999946
 10
249.84862400000034
 20
-76.23225799999946
 10
249.85903800000034
 20
-76.23200399999946
 10
251.10948000000036
 20
-76.23301999999947
 10
252.36017600000034
 20
-76.23403599999948
 10
253.61061800000036
 20
-76.23505199999947
 10
254.86106000000035
 20
-76.23606799999948
 10
256.11150200000037
 20
-76.23708399999948
 10
257.36194400000034
 20
-76.23809999999949
 10
258.61264000000034
 20
-76.2391159999995
 10
259.86308200000036
 20
-76.2401319999995
 10
261.1135240000003
 20
-76.2411479999995
 10
262.3639660000003
 20
-76.2421639999995
 10
263.6144080000003
 20
-76.24317999999951
 10
264.86485000000033
 20
-76.24419599999952
 10
266.1152920000003
 20
-76.24521199999953
 10
267.3659880000003
 20
-76.24622799999953
 10
268.6164300000003
 20
-76.24724399999954
 10
269.8668720000003
 20
-76.24825999999953
 10
271.1173140000003
 20
-76.24927599999954
 10
272.3677560000003
 20
-76.25029199999955
 10
273.6181980000003
 20
-76.25130799999955
 10
274.8686400000003
 20
-76.25232399999956
 10
276.11908200000033
 20
-76.25333999999957
 10
277.3695240000003
 20
-76.25435599999956
 10
278.6199660000003
 20
-76.25537199999957
 10
279.8706620000003
 20
-76.25638799999957
 10
281.1211040000003
 20
-76.25740399999958
 10
282.3715460000003
 20
-76.25841999999959
 10
283.62198800000033
 20
-76.2594359999996
 10
284.8724300000003
 20
-76.2604519999996
 10
286.1228720000003
 20
-76.2614679999996
 10
287.37331400000033
 20
-76.2624839999996
 10
288.6237560000003
 20
-76.26349999999961
 10
289.8741980000003
 20
-76.26451599999962
 10
289.9143300000003
 20
-76.26349999999961
 10
289.9539540000003
 20
-76.26045199999962
 10
289.9930700000003
 20
-76.25562599999961
 10
290.0314240000003
 20
-76.24876799999961
 10
290.06927000000024
 20
-76.24013199999962
 10
290.10635400000024
 20
-76.22971799999962
 10
290.1426760000003
 20
-76.21752599999961
 10
290.1779820000002
 20
-76.20355599999961
 10
290.21252600000025
 20
-76.18806199999962
 10
290.24605400000024
 20
-76.17078999999963
 10
290.2788200000002
 20
-76.15199399999962
 10
290.3105700000002
 20
-76.13167399999962
 10
290.34105000000017
 20
-76.10982999999962
 10
290.3705140000002
 20
-76.08671599999961
 10
290.3987080000002
 20
-76.06233199999961
 10
290.4258860000002
 20
-76.03642399999963
 10
290.45179400000023
 20
-76.00924599999962
 10
290.47617800000023
 20
-75.98105199999962
 10
290.4992920000002
 20
-75.95158799999962
 10
290.5211360000002
 20
-75.92110799999962
 10
290.5414560000002
 20
-75.88935799999962
 10
290.5602520000002
 20
-75.85659199999962
 10
290.5775240000002
 20
-75.82306399999962
 10
290.5932720000002
 20
-75.78851999999961
 10
290.6072420000002
 20
-75.7532139999996
 10
290.6194340000002
 20
-75.71689199999962
 10
290.62984800000015
 20
-75.67980799999961
 10
290.6384840000002
 20
-75.64196199999961
 10
290.6453420000002
 20
-75.60360799999961
 10
290.6504220000002
 20
-75.5644919999996
 10
290.6534700000002
 20
-75.52486799999961
 10
290.6544860000002
 20
-75.4847359999996
 10
290.6544860000002
 20
-75.3236999999996
 10
290.6544860000002
 20
-75.1629179999996
 10
290.6544860000002
 20
-75.0018819999996
 10
290.6544860000002
 20
-74.8408459999996
 10
290.6544860000002
 20
-74.6800639999996
 10
290.6544860000002
 20
-74.5190279999996
 10
290.6544860000002
 20
-74.3582459999996
 10
290.6544860000002
 20
-74.1972099999996
 10
290.6544860000002
 20
-74.0364279999996
 10
290.6544860000002
 20
-73.87539199999961
 10
290.6544860000002
 20
-73.7143559999996
 10
290.6544860000002
 20
-73.5535739999996
 10
290.6544860000002
 20
-73.3925379999996
 10
290.6544860000002
 20
-73.2317559999996
 10
290.6544860000002
 20
-73.0707199999996
 10
290.6544860000002
 20
-72.9096839999996
 10
290.6544860000002
 20
-72.7489019999996
 10
290.6544860000002
 20
-72.5878659999996
 10
290.6544860000002
 20
-72.4270839999996
 10
290.6544860000002
 20
-72.2660479999996
 10
290.6544860000002
 20
-72.1052659999996
 10
290.6544860000002
 20
-71.94422999999959
 10
290.6544860000002
 20
-71.7831939999996
 10
290.6544860000002
 20
-71.6224119999996
 10
290.6544860000002
 20
-71.46137599999959
 10
290.6544860000002
 20
-71.3005939999996
 10
290.6544860000002
 20
-71.1395579999996
 10
290.6544860000002
 20
-70.97852199999959
 10
290.6544860000002
 20
-70.8177399999996
 10
290.6544860000002
 20
-70.65670399999959
 10
290.6544860000002
 20
-70.4959219999996
 10
290.6544860000002
 20
-70.3348859999996
 10
287.99917000000016
 20
-70.3242179999996
 10
285.3438540000002
 20
-70.31354999999961
 10
282.6885380000002
 20
-70.30288199999961
 10
280.0332220000002
 20
-70.29221399999962
 10
277.3779060000002
 20
-70.28154599999962
 10
274.72259000000025
 20
-70.27087799999964
 10
272.0672740000003
 20
-70.26020999999965
 10
269.41195800000025
 20
-70.24954199999965
 10
266.7566420000003
 20
-70.23887399999965
 10
264.1013260000003
 20
-70.22820599999966
 10
261.4460100000003
 20
-70.21753799999966
 10
258.7906940000003
 20
-70.20686999999968
 10
256.13537800000034
 20
-70.19620199999969
 10
253.48006200000034
 20
-70.18553399999969
 10
250.82474600000035
 20
-70.1748659999997
 10
248.16943000000038
 20
-70.1641979999997
 10
245.51411400000038
 20
-70.1535299999997
 10
242.8587980000004
 20
-70.14286199999972
 10
240.2034820000004
 20
-70.13219399999973
 10
237.5481660000004
 20
-70.12152599999973
 10
234.89285000000044
 20
-70.11085799999974
 10
232.23753400000044
 20
-70.10018999999974
 10
229.58221800000047
 20
-70.08952199999975
 10
226.92690200000047
 20
-70.07885399999977
 10
224.27158600000047
 20
-70.06818599999977
 10
221.6162700000005
 20
-70.05751799999977
 10
218.9609540000005
 20
-70.04684999999978
 10
216.30563800000053
 20
-70.03618199999978
 10
213.65032200000053
 20
-70.02551399999979
 10
210.99500600000053
 20
-70.01484599999979
 10
208.33969000000056
 20
-70.00417799999981
 10
205.68437400000056
 20
-69.99350999999982
  0
ENDSEC
  0
SECTION
  2
OBJECTS
  0
DICTIONARY
  5
A
330
0
100
AcDbDictionary
281
1
  3
ACAD_COLOR
350
B
  3
ACAD_GROUP
350
C
  3
ACAD_LAYOUT
350
D
  3
ACAD_MATERIAL
350
E
  3
ACAD_MLEADERSTYLE
350
F
  3
ACAD_MLINESTYLE
350
10
  3
ACAD_PLOTSETTINGS
350
11
  3
ACAD_PLOTSTYLENAME
350
12
  3
ACAD_SCALELIST
350
14
  3
ACAD_TABLESTYLE
350
15
  3
ACAD_VISUALSTYLE
350
16
  3
EZDXF_META
350
2D
  0
DICTIONARY
  5
B
330
A
100
AcDbDictionary
281
1
  0
DICTIONARY
  5
C
330
A
100
AcDbDictionary
281
1
  0
DICTIONARY
  5
D
330
A
100
AcDbDictionary
281
1
  3
Model
350
1A
  3
Layout1
350
1E
  0
DICTIONARY
  5
E
330
A
100
AcDbDictionary
281
1
  3
ByBlock
350
1F
  3
ByLayer
350
20
  3
Global
350
21
  0
DICTIONARY
  5
F
330
A
100
AcDbDictionary
281
1
  3
Standard
350
2C
  0
DICTIONARY
  5
10
330
A
100
AcDbDictionary
281
1
  3
Standard
350
22
  0
DICTIONARY
  5
11
330
A
100
AcDbDictionary
281
1
  0
ACDBDICTIONARYWDFLT
  5
12
330
A
100
AcDbDictionary
281
1
  3
Normal
350
13
100
AcDbDictionaryWithDefault
340
13
  0
ACDBPLACEHOLDER
  5
13
330
12
  0
DICTIONARY
  5
14
330
A
100
AcDbDictionary
281
1
  0
DICTIONARY
  5
15
330
A
100
AcDbDictionary
281
1
  0
DICTIONARY
  5
16
330
A
100
AcDbDictionary
281
1
  0
LAYOUT
  5
1A
330
D
100
AcDbPlotSettings
  1

  4
A3
  6

 40
7.5
 41
20.0
 42
7.5
 43
20.0
 44
420.0
 45
297.0
 46
0.0
 47
0.0
 48
0.0
 49
0.0
140
0.0
141
0.0
142
1.0
143
1.0
 70
1024
 72
1
 73
0
 74
5
  7

 75
16
 76
0
 77
2
 78
300
147
1.0
148
0.0
149
0.0
100
AcDbLayout
  1
Model
 70
1
 71
0
 10
0.0
 20
0.0
 11
420.0
 21
297.0
 12
0.0
 22
0.0
 32
0.0
 14
1e+20
 24
1e+20
 34
1e+20
 15
-1e+20
 25
-1e+20
 35
-1e+20
146
0.0
 13
0.0
 23
0.0
 33
0.0
 16
1.0
 26
0.0
 36
0.0
 17
0.0
 27
1.0
 37
0.0
 76
1
330
17
  0
LAYOUT
  5
1E
330
D
100
AcDbPlotSettings
  1

  4
A3
  6

 40
7.5
 41
20.0
 42
7.5
 43
20.0
 44
420.0
 45
297.0
 46
0.0
 47
0.0
 48
0.0
 49
0.0
140
0.0
141
0.0
142
1.0
143
1.0
 70
0
 72
1
 73
0
 74
5
  7

 75
16
 76
0
 77
2
 78
300
147
1.0
148
0.0
149
0.0
100
AcDbLayout
  1
Layout1
 70
1
 71
1
 10
0.0
 20
0.0
 11
420.0
 21
297.0
 12
0.0
 22
0.0
 32
0.0
 14
1e+20
 24
1e+20
 34
1e+20
 15
-1e+20
 25
-1e+20
 35
-1e+20
146
0.0
 13
0.0
 23
0.0
 33
0.0
 16
1.0
 26
0.0
 36
0.0
 17
0.0
 27
1.0
 37
0.0
 76
1
330
1B
  0
MATERIAL
  5
1F
102
{ACAD_REACTORS
330
E
102
}
330
E
100
AcDbMaterial
  1
ByBlock
  2

 70
0
 40
1.0
 71
1
 41
1.0
 91
-1023410177
 42
1.0
 72
1
  3

 73
1
 74
1
 75
1
 44
0.5
 73
0
 45
1.0
 46
1.0
 77
1
  4

 78
1
 79
1
170
1
 48
1.0
171
1
  6

172
1
173
1
174
1
140
1.0
141
1.0
175
1
  7

176
1
177
1
178
1
143
1.0
179
1
  8

270
1
271
1
272
1
145
1.0
146
1.0
273
1
  9

274
1
275
1
276
1
 42
1.0
 72
1
  3

 73
1
 74
1
 75
1
 94
63
  0
MATERIAL
  5
20
102
{ACAD_REACTORS
330
E
102
}
330
E
100
AcDbMaterial
  1
ByLayer
  2

 70
0
 40
1.0
 71
1
 41
1.0
 91
-1023410177
 42
1.0
 72
1
  3

 73
1
 74
1
 75
1
 44
0.5
 73
0
 45
1.0
 46
1.0
 77
1
  4

 78
1
 79
1
170
1
 48
1.0
171
1
  6

172
1
173
1
174
1
140
1.0
141
1.0
175
1
  7

176
1
177
1
178
1
143
1.0
179
1
  8

270
1
271
1
272
1
145
1.0
146
1.0
273
1
  9

274
1
275
1
276
1
 42
1.0
 72
1
  3

 73
1
 74
1
 75
1
 94
63
  0
MATERIAL
  5
21
102
{ACAD_REACTORS
330
E
102
}
330
E
100
AcDbMaterial
  1
Global
  2

 70
0
 40
1.0
 71
1
 41
1.0
 91
-1023410177
 42
1.0
 72
1
  3

 73
1
 74
1
 75
1
 44
0.5
 73
0
 45
1.0
 46
1.0
 77
1
  4

 78
1
 79
1
170
1
 48
1.0
171
1
  6

172
1
173
1
174
1
140
1.0
141
1.0
175
1
  7

176
1
177
1
178
1
143
1.0
179
1
  8

270
1
271
1
272
1
145
1.0
146
1.0
273
1
  9

274
1
275
1
276
1
 42
1.0
 72
1
  3

 73
1
 74
1
 75
1
 94
63
  0
MLINESTYLE
  5
22
102
{ACAD_REACTORS
330
10
102
}
330
10
100
AcDbMlineStyle
  2
Standard
 70
0
  3

 62
256
 51
90.0
 52
90.0
 71
2
 49
0.5
 62
256
  6
BYLAYER
 49
-0.5
 62
256
  6
BYLAYER
  0
MLEADERSTYLE
  5
2C
102
{ACAD_REACTORS
330
F
102
}
330
F
100
AcDbMLeaderStyle
179
2
170
2
171
1
172
0
 90
2
 40
0.0
 41
0.0
173
1
 91
-1056964608
 92
-2
290
1
 42
2.0
291
1
 43
8.0
  3
Standard
 44
4.0
300

342
29
174
1
175
1
176
0
178
1
 93
-1056964608
 45
4.0
292
0
297
0
 46
4.0
 94
-1056964608
 47
1.0
 49
1.0
140
1.0
294
1
141
0.0
177
0
142
1.0
295
0
296
0
143
3.75
271
0
272
9
273
9
  0
DICTIONARY
  5
2D
330
A
100
AcDbDictionary
280
1
281
1
  3
CREATED_BY_EZDXF
350
2E
  3
WRITTEN_BY_EZDXF
350
39
  0
DICTIONARYVAR
  5
2E
330
2D
100
DictionaryVariables
280
0
  1
1.4.3 @ 2026-04-08T01:02:28.875138+00:00
  0
DICTIONARYVAR
  5
39
330
2D
100
DictionaryVariables
280
0
  1
1.4.3 @ 2026-04-09T21:09:48.881540+00:00
  0
ENDSEC
  0
EOF
