  0
SECTION
  2
HEADER
  9
$ACADVER
  1
AC1015
  9
$ACADMAINTVER
 70
6
  9
$DWGCODEPAGE
  3
ANSI_1252
  9
$INSBASE
 10
0.0
 20
0.0
 30
0.0
  9
$EXTMIN
 10
25.7
 20
19.5
 30
0.0
  9
$EXTMAX
 10
231.3
 20
175.5
 30
0.0
  9
$LIMMIN
 10
-20.0
 20
-7.5
  9
$LIMMAX
 10
277.0
 20
202.5
  9
$LTSCALE
 40
1.0
  9
$ATTMODE
 70
1
  9
$TEXTSIZE
 40
2.5
  9
$TEXTSTYLE
  7
Standard
  9
$CLAYER
  8
0
  9
$CELTYPE
  6
ByLayer
  9
$CECOLOR
 62
256
  9
$CELTSCALE
 40
1.0
  9
$DIMSTYLE
  2
Standard
  9
$LUNITS
 70
2
  9
$LUPREC
 70
4
  9
$AUNITS
 70
0
  9
$AUPREC
 70
0
  9
$TDCREATE
 40
2461249.8252199073
  9
$TDUCREATE
 40
2461141.95714066
  9
$TDUPDATE
 40
2461249.8252199073
  9
$TDUUPDATE
 40
2461141.95714066
  9
$TDINDWG
 40
0.0
  9
$ANGBASE
 50
0.0
  9
$ANGDIR
 70
0
  9
$PDMODE
 70
0
  9
$PDSIZE
 40
0.0
  9
$HANDSEED
  5
148
  9
$PEXTMIN
 10
25.7
 20
19.5
 30
0.0
  9
$PEXTMAX
 10
231.3
 20
175.5
 30
0.0
  9
$PLIMMIN
 10
-20.0
 20
-7.5
  9
$PLIMMAX
 10
277.0
 20
202.5
  9
$PLINEGEN
 70
0
  9
$CMLSTYLE
  2
Standard
  9
$CMLJUST
 70
0
  9
$CMLSCALE
 40
20.0
  9
$CELWEIGHT
370
-1
  9
$LWDISPLAY
290
0
  9
$INSUNITS
 70
0
  9
$FINGERPRINTGUID
  2
{5700E6DE-1939-4F8F-86A9-4775CA2BFA5B}
  9
$VERSIONGUID
  2
{73F2DE8A-845C-42F4-BB53-E5F135C8ACB7}
  9
$EXTNAMES
290
1
  0
ENDSEC
  0
SECTION
  2
CLASSES
  0
CLASS
  1
RASTERVARIABLES
  2
AcDbRasterVariables
  3
ISM
 90
0
280
0
281
0
  0
CLASS
  1
ACDBDICTIONARYWDFLT
  2
AcDbDictionaryWithDefault
  3
ObjectDBX Classes
 90
0
280
0
281
0
  0
CLASS
  1
SUN
  2
AcDbSun
  3
SCENEOE
 90
1153
280
0
281
0
  0
CLASS
  1
VISUALSTYLE
  2
AcDbVisualStyle
  3
ObjectDBX Classes
 90
4095
280
0
281
0
  0
CLASS
  1
MATERIAL
  2
AcDbMaterial
  3
ObjectDBX Classes
 90
1153
280
0
281
0
  0
CLASS
  1
SCALE
  2
AcDbScale
  3
ObjectDBX Classes
 90
1153
280
0
281
0
  0
CLASS
  1
TABLESTYLE
  2
AcDbTableStyle
  3
ObjectDBX Classes
 90
4095
280
0
281
0
  0
CLASS
  1
MLEADERSTYLE
  2
AcDbMLeaderStyle
  3
ACDB_MLEADERSTYLE_CLASS
 90
4095
280
0
281
0
  0
CLASS
  1
DICTIONARYVAR
  2
AcDbDictionaryVar
  3
ObjectDBX Classes
 90
0
280
0
281
0
  0
CLASS
  1
CELLSTYLEMAP
  2
AcDbCellStyleMap
  3
ObjectDBX Classes
 90
1152
280
0
281
0
  0
CLASS
  1
MENTALRAYRENDERSETTINGS
  2
AcDbMentalRayRenderSettings
  3
SCENEOE
 90
1024
280
0
281
0
  0
CLASS
  1
ACDBDETAILVIEWSTYLE
  2
AcDbDetailViewStyle
  3
ObjectDBX Classes
 90
1025
280
0
281
0
  0
CLASS
  1
ACDBSECTIONVIEWSTYLE
  2
AcDbSectionViewStyle
  3
ObjectDBX Classes
 90
1025
280
0
281
0
  0
CLASS
  1
ACDBPLACEHOLDER
  2
AcDbPlaceHolder
  3
ObjectDBX Classes
 90
0
280
0
281
0
  0
CLASS
  1
LAYOUT
  2
AcDbLayout
  3
ObjectDBX Classes
 90
0
280
0
281
0
  0
ENDSEC
  0
SECTION
  2
TABLES
  0
TABLE
  2
VPORT
  5
1
330
0
100
AcDbSymbolTable
 70
1
  0
VPORT
  5
E
330
1
100
AcDbSymbolTableRecord
100
AcDbViewportTableRecord
  2
*Active
 70
0
 10
0.0
 20
0.0
 11
1.0
 21
1.0
 12
-1.0
 22
1.0
 13
0.0
 23
0.0
 14
0.5
 24
0.5
 15
10.0
 25
10.0
 16
0.0
 26
0.0
 36
1.0
 17
0.0
 27
0.0
 37
0.0
 40
1000.0
 41
1.34
 42
50.0
 43
0.0
 44
0.0
 50
0.0
 51
0.0
 71
0
 72
1000
 73
1
 74
3
 75
0
 76
0
 77
0
 78
0
281
0
 65
0
146
0.0
  0
ENDTAB
  0
TABLE
  2
LTYPE
  5
5
330
0
100
AcDbSymbolTable
 70
3
  0
LTYPE
  5
10
330
5
100
AcDbSymbolTableRecord
100
AcDbLinetypeTableRecord
  2
Continuous
 70
0
  3
Solid line
 72
65
 73
0
 40
0.0
  0
LTYPE
  5
11
330
5
100
AcDbSymbolTableRecord
100
AcDbLinetypeTableRecord
  2
ByLayer
 70
0
  3

 72
65
 73
0
 40
0.0
  0
LTYPE
  5
12
330
5
100
AcDbSymbolTableRecord
100
AcDbLinetypeTableRecord
  2
ByBlock
 70
0
  3

 72
65
 73
0
 40
0.0
  0
ENDTAB
  0
TABLE
  2
LAYER
  5
4
330
0
100
AcDbSymbolTable
 70
4
  0
LAYER
  5
F
330
4
100
AcDbSymbolTableRecord
100
AcDbLayerTableRecord
  2
0
 70
0
 62
7
  6
Continuous
370
-3
390
0
  0
LAYER
  5
1D
330
4
100
AcDbSymbolTableRecord
100
AcDbLayerTableRecord
  2
Vector_Blue
 70
0
 62
5
  6
Continuous
370
-3
390
0
  0
LAYER
  5
1E
330
4
100
AcDbSymbolTableRecord
100
AcDbLayerTableRecord
  2
Add_Red
 70
0
 62
1
  6
Continuous
370
-3
390
0
  0
LAYER
  5
142
330
4
100
AcDbSymbolTableRecord
100
AcDbLayerTableRecord
  2
Defpoints
 70
0
 62
7
  6
Continuous
290
0
370
-3
390
13B
  0
ENDTAB
  0
TABLE
  2
STYLE
  5
6
330
0
100
AcDbSymbolTable
 70
1
  0
STYLE
  5
13
330
6
100
AcDbSymbolTableRecord
100
AcDbTextStyleTableRecord
  2
Standard
 70
0
 40
0.0
 41
1.0
 50
0.0
 71
0
 42
0.0
  3
simplex.shx
  4

  0
ENDTAB
  0
TABLE
  2
VIEW
  5
2
330
0
100
AcDbSymbolTable
 70
0
  0
ENDTAB
  0
TABLE
  2
UCS
  5
9
330
0
100
AcDbSymbolTable
 70
0
  0
ENDTAB
  0
TABLE
  2
APPID
  5
3
330
0
100
AcDbSymbolTable
 70
4
  0
APPID
  5
14
330
3
100
AcDbSymbolTableRecord
100
AcDbRegAppTableRecord
  2
ACAD
 70
0
  0
APPID
  5
130
330
3
100
AcDbSymbolTableRecord
100
AcDbRegAppTableRecord
  2
AcCmTransparency
 70
0
  0
APPID
  5
144
330
3
100
AcDbSymbolTableRecord
100
AcDbRegAppTableRecord
  2
HATCHBACKGROUNDCOLOR
 70
0
  0
APPID
  5
145
330
3
100
AcDbSymbolTableRecord
100
AcDbRegAppTableRecord
  2
EZDXF
 70
0
  0
ENDTAB
  0
TABLE
  2
DIMSTYLE
  5
7
330
0
100
AcDbSymbolTable
 70
1
100
AcDbDimStyleTable
  0
DIMSTYLE
105
15
330
7
100
AcDbSymbolTableRecord
100
AcDbDimStyleTableRecord
  2
Standard
 70
0
  3
<>
  4

 40
1.0
 41
0.18
 42
0.0625
 43
0.38
 44
0.18
 45
0.0
 46
0.0
 47
0.0
 48
0.0
140
0.18
141
0.09
142
0.0
143
0.03937007874
144
1.0
145
0.0
146
1.0
147
0.09
148
0.0
 71
0
 72
0
 73
0
 74
0
 75
0
 76
0
 77
1
 78
8
 79
3
170
0
171
3
172
1
173
0
174
0
175
0
176
0
177
0
178
0
179
0
271
2
272
2
273
2
274
3
275
0
276
0
277
2
278
46
279
0
280
0
281
0
282
0
283
0
284
8
285
0
286
0
288
0
289
3
340
13
371
-2
372
-2
  0
ENDTAB
  0
TABLE
  2
BLOCK_RECORD
  5
A
330
0
100
AcDbSymbolTable
 70
2
  0
BLOCK_RECORD
  5
17
330
A
100
AcDbSymbolTableRecord
100
AcDbBlockTableRecord
  2
*Model_Space
340
1B
  0
BLOCK_RECORD
  5
12A
330
A
100
AcDbSymbolTableRecord
100
AcDbBlockTableRecord
  2
*Paper_Space
340
12F
  0
ENDTAB
  0
ENDSEC
  0
SECTION
  2
BLOCKS
  0
BLOCK
  5
19
330
17
100
AcDbEntity
  8
0
100
AcDbBlockBegin
  2
*Model_Space
 70
0
 10
0.0
 20
0.0
 30
0.0
  3
*Model_Space
  1

  0
ENDBLK
  5
18
330
17
100
AcDbEntity
  8
0
100
AcDbBlockEnd
  0
BLOCK
  5
12C
330
12A
100
AcDbEntity
  8
0
100
AcDbBlockBegin
  2
*Paper_Space
 70
0
 10
0.0
 20
0.0
 30
0.0
  3
*Paper_Space
  1

  0
ENDBLK
  5
12B
330
12A
100
AcDbEntity
  8
0
100
AcDbBlockEnd
  0
ENDSEC
  0
SECTION
  2
ENTITIES
  0
LWPOLYLINE
  5
1F
330
17
100
AcDbEntity
  8
Vector_Blue
  6
ByLayer
100
AcDbPolyline
 90
40
 70
1
 10
22.4831693645114
 20
71.5546579590019
 10
26.0278948947407
 20
60.1583906815211
 10
35.5943083770558
 20
60.0120705478906
 10
38.4818507570857
 20
59.2545775281936
 10
40.9469970673615
 20
57.5303626419246
 10
43.6174406312099
 20
55.2374409496646
 10
45.2299294401798
 20
51.8983523779578
 10
49.271376573738
 20
43.1364902504018
 10
59.9075468428623
 20
46.1404725921039
 10
62.8580046081273
 20
37.6704376212025
 10
53.2412451134315
 20
34.691624866061
 10
74.1846568689635
 20
-16.445341876
 10
104.711256601791
 20
-13.9755194647263
 10
107.67086895547
 20
-12.0825817809678
 10
108.850651519
 20
-8.67381608354221
 10
104.909806769765
 20
5.4284382369105
 10
99.7669869953786
 20
16.1900587235081
 10
94.9208385869727
 20
24.1234322462132
 10
89.3931834943923
 20
36.6903178507437
 10
86.3042354760429
 20
51.3707991765381
 10
85.6200758338219
 20
56.2633028263525
 10
86.0649353691264
 20
57.8034424951582
 10
87.9198359756551
 20
60.9075524267989
 10
90.4847218223715
 20
64.5925654715321
 10
92.8420717511694
 20
66.9042621575598
 10
94.4993657609331
 20
68.2328914591811
 10
96.0861572140815
 20
69.1573705870975
 10
99.5774957621963
 20
71.1751379967554
 10
100.85844694664
 20
71.4482106634054
 10
66.259430482169
 20
71.2176926184747
 10
66.197189622165
 20
69.2970813664162
 10
65.8650246905669
 20
67.2053136169837
 10
64.9192741862519
 20
65.53704179643
 10
62.6766736394113
 20
65.3171793723999
 10
56.6463454754575
 20
65.2779505549257
 10
51.3270199237326
 20
65.3111072555482
 10
49.7615989153075
 20
66.5335627330804
 10
49.3428469816256
 20
67.9488218712402
 10
49.2095809386656
 20
71.1257121247499
 10
22.4831688438577
 20
71.554658124
  0
LWPOLYLINE
  5
20
330
17
100
AcDbEntity
  8
Vector_Blue
  6
ByLayer
100
AcDbPolyline
 90
10
 70
1
 10
12.8371612229471
 20
71.1780403095597
 10
16.0194805520534
 20
60.521312733849
 10
2.39957620359139
 20
61.0325577290033
 10
-1.27828884341007
 20
63.1547287752005
 10
-3.55901895966967
 20
63.9930252774119
 10
-6.58101659976196
 20
64.3421732705318
 10
-10.9536776432277
 20
64.0929573042763
 10
-18.2474779274938
 20
64.5538981205717
 10
-20.149348481
 20
71.4349535175591
 10
12.8371613402775
 20
71.1780399575637
  0
LWPOLYLINE
  5
21
330
17
100
AcDbEntity
  8
Add_Red
  6
ByLayer
100
AcDbPolyline
 90
6
 70
1
 10
-17.530902
 20
69.080939
 10
-17.530902
 20
71.08094
 10
-18.099091
 20
71.408984
 10
-20.136182
 20
71.42485
 10
-20.136181
 20
71.424848
 10
-19.218968
 20
68.106333
  0
LWPOLYLINE
  5
22
330
17
100
AcDbEntity
  8
Add_Red
  6
ByLayer
100
AcDbPolyline
 90
7
 70
1
 10
-13.0668
 20
69.080939
 10
-13.0668
 20
71.08094
 10
-13.573945
 20
71.37374
 10
-15.991149
 20
71.392567
 10
-16.530902
 20
71.08094
 10
-16.530902
 20
69.080939
 10
-14.798851
 20
68.080939
  0
LWPOLYLINE
  5
23
330
17
100
AcDbEntity
  8
Add_Red
  6
ByLayer
100
AcDbPolyline
 90
7
 70
1
 10
-8.6027
 20
69.080939
 10
-8.6027
 20
71.08094
 10
-9.048801
 20
71.338497
 10
-11.586466
 20
71.358261
 10
-12.0668
 20
71.08094
 10
-12.0668
 20
69.080939
 10
-10.334751
 20
68.080939
  0
LWPOLYLINE
  5
24
330
17
100
AcDbEntity
  8
Add_Red
  6
ByLayer
100
AcDbPolyline
 90
7
 70
1
 10
-4.138598
 20
69.080939
 10
-4.138598
 20
71.08094
 10
-4.523655
 20
71.303253
 10
-7.181785
 20
71.323955
 10
-7.6027
 20
71.08094
 10
-7.6027
 20
69.080939
 10
-5.870649
 20
68.080939
  0
LWPOLYLINE
  5
25
330
17
100
AcDbEntity
  8
Add_Red
  6
ByLayer
100
AcDbPolyline
 90
7
 70
1
 10
0.325501
 20
69.080939
 10
0.325501
 20
71.08094
 10
0.001489
 20
71.268009
 10
-2.777103
 20
71.28965
 10
-3.138599
 20
71.08094
 10
-3.138599
 20
69.080939
 10
-1.406548
 20
68.080939
  0
LWPOLYLINE
  5
26
330
17
100
AcDbEntity
  8
Add_Red
  6
ByLayer
100
AcDbPolyline
 90
7
 70
1
 10
4.789602
 20
69.080939
 10
4.789602
 20
71.08094
 10
4.526634
 20
71.232765
 10
1.627578
 20
71.255344
 10
1.325501
 20
71.08094
 10
1.325501
 20
69.080939
 10
3.057552
 20
68.080939
  0
LWPOLYLINE
  5
27
330
17
100
AcDbEntity
  8
Add_Red
  6
ByLayer
100
AcDbPolyline
 90
7
 70
1
 10
9.253704
 20
69.080939
 10
9.253704
 20
71.08094
 10
9.05178
 20
71.197521
 10
6.03226
 20
71.221038
 10
5.789602
 20
71.08094
 10
5.789602
 20
69.080939
 10
7.521653
 20
68.080939
  0
LWPOLYLINE
  5
28
330
17
100
AcDbEntity
  8
Add_Red
  6
ByLayer
100
AcDbPolyline
 90
6
 70
1
 10
13.491909
 20
68.950518
 10
12.829694
 20
71.168097
 10
10.436942
 20
71.186733
 10
10.253704
 20
71.08094
 10
10.253704
 20
69.080939
 10
11.985753
 20
68.080939
  0
LWPOLYLINE
  5
29
330
17
100
AcDbEntity
  8
Add_Red
  6
ByLayer
100
AcDbPolyline
 90
6
 70
1
 10
11.485759
 20
65.214914
 10
11.485759
 20
67.214914
 10
9.75371
 20
68.214914
 10
8.021659
 20
67.214914
 10
8.021659
 20
65.214914
 10
9.75371
 20
64.214914
  0
LWPOLYLINE
  5
2A
330
17
100
AcDbEntity
  8
Add_Red
  6
ByLayer
100
AcDbPolyline
 90
6
 70
1
 10
7.021659
 20
65.214914
 10
7.021659
 20
67.214914
 10
5.289608
 20
68.214914
 10
3.557557
 20
67.214914
 10
3.557557
 20
65.214914
 10
5.289608
 20
64.214914
  0
LWPOLYLINE
  5
2B
330
17
100
AcDbEntity
  8
Add_Red
  6
ByLayer
100
AcDbPolyline
 90
6
 70
1
 10
2.557557
 20
65.214914
 10
2.557557
 20
67.214914
 10
0.825507
 20
68.214914
 10
-0.906542
 20
67.214914
 10
-0.906542
 20
65.214914
 10
0.825507
 20
64.214914
  0
LWPOLYLINE
  5
2C
330
17
100
AcDbEntity
  8
Add_Red
  6
ByLayer
100
AcDbPolyline
 90
6
 70
1
 10
-1.906542
 20
65.214914
 10
-1.906542
 20
67.214914
 10
-3.638593
 20
68.214914
 10
-5.370644
 20
67.214914
 10
-5.370644
 20
65.214914
 10
-3.638593
 20
64.214914
  0
LWPOLYLINE
  5
2D
330
17
100
AcDbEntity
  8
Add_Red
  6
ByLayer
100
AcDbPolyline
 90
7
 70
1
 10
-8.005556
 20
64.270997
 10
-6.370643
 20
65.214914
 10
-6.370643
 20
67.214914
 10
-8.102694
 20
68.214914
 10
-9.834745
 20
67.214914
 10
-9.834745
 20
65.214914
 10
-8.182377
 20
64.260919
  0
LWPOLYLINE
  5
2E
330
17
100
AcDbEntity
  8
Add_Red
  6
ByLayer
100
AcDbPolyline
 90
6
 70
1
 10
-10.834745
 20
65.214914
 10
-10.834745
 20
67.214914
 10
-12.566794
 20
68.214914
 10
-14.298845
 20
67.214914
 10
-14.298845
 20
65.214914
 10
-12.566794
 20
64.214914
  0
LWPOLYLINE
  5
2F
330
17
100
AcDbEntity
  8
Add_Red
  6
ByLayer
100
AcDbPolyline
 90
8
 70
1
 10
-15.298845
 20
65.214914
 10
-15.298845
 20
67.214914
 10
-17.030896
 20
68.214914
 10
-18.762947
 20
67.214914
 10
-18.762947
 20
66.456428
 10
-18.354647
 20
64.979182
 10
-17.56016
 20
64.520485
 10
-16.606067
 20
64.460189
  0
LWPOLYLINE
  5
30
330
17
100
AcDbEntity
  8
Add_Red
  6
ByLayer
100
AcDbPolyline
 90
5
 70
1
 10
14.804847
 20
64.55384
 10
13.78602
 20
67.96562
 10
12.485759
 20
67.214914
 10
12.485759
 20
65.214914
 10
14.21781
 20
64.214914
  0
LWPOLYLINE
  5
31
330
17
100
AcDbEntity
  8
Add_Red
  6
ByLayer
100
AcDbPolyline
 90
7
 70
1
 10
13.717837
 20
61.348889
 10
13.717837
 20
63.348889
 10
11.985786
 20
64.348889
 10
10.253736
 20
63.348889
 10
10.253736
 20
61.348889
 10
11.367347
 20
60.705945
 10
12.528718
 20
60.662351
  0
LWPOLYLINE
  5
32
330
17
100
AcDbEntity
  8
Add_Red
  6
ByLayer
100
AcDbPolyline
 90
7
 70
1
 10
9.253736
 20
61.348889
 10
9.253736
 20
63.348889
 10
7.521685
 20
64.348889
 10
5.789635
 20
63.348889
 10
5.789635
 20
61.348889
 10
6.592829
 20
60.885164
 10
8.337134
 20
60.819689
  0
LWPOLYLINE
  5
33
330
17
100
AcDbEntity
  8
Add_Red
  6
ByLayer
100
AcDbPolyline
 90
7
 70
1
 10
4.789635
 20
61.348889
 10
4.789635
 20
63.348889
 10
3.057584
 20
64.348889
 10
1.325533
 20
63.348889
 10
1.325533
 20
61.663838
 10
2.402427
 20
61.042458
 10
4.145551
 20
60.977027
  0
LWPOLYLINE
  5
34
330
17
100
AcDbEntity
  8
Add_Red
  6
ByLayer
100
AcDbPolyline
 90
5
 70
1
 10
0.325533
 20
63.348889
 10
-1.406515
 20
64.348889
 10
-2.609148
 20
63.654549
 10
-1.274034
 20
63.163818
 10
0.325533
 20
62.24085
  0
LWPOLYLINE
  5
35
330
17
100
AcDbEntity
  8
Add_Red
  6
ByLayer
100
AcDbPolyline
 90
3
 70
1
 10
-5.870617
 20
64.348889
 10
-5.98424
 20
64.283289
 10
-5.700143
 20
64.250466
  0
LWPOLYLINE
  5
36
330
17
100
AcDbEntity
  8
Add_Red
  6
ByLayer
100
AcDbPolyline
 90
3
 70
1
 10
-10.002658
 20
64.157174
 10
-10.334718
 20
64.348889
 10
-10.739517
 20
64.115178
  0
LWPOLYLINE
  5
37
330
17
100
AcDbEntity
  8
Add_Red
  6
ByLayer
100
AcDbPolyline
 90
3
 70
1
 10
-14.798819
 20
64.348889
 10
-14.803365
 20
64.346264
 10
-14.793155
 20
64.345619
  0
LWPOLYLINE
  5
38
330
17
100
AcDbEntity
  8
Add_Red
  6
ByLayer
100
AcDbPolyline
 90
4
 70
1
 10
15.098961
 20
63.568932
 10
14.717836
 20
63.348889
 10
14.717836
 20
61.348889
 10
15.97942
 20
60.620513
  0
LWPOLYLINE
  5
39
330
17
100
AcDbEntity
  8
Add_Red
  6
ByLayer
100
AcDbPolyline
 90
7
 70
1
 10
27.110107
 20
69.080939
 10
27.110107
 20
71.08094
 10
26.416264
 20
71.481531
 10
24.39601
 20
71.513955
 10
23.646006
 20
71.08094
 10
23.646006
 20
69.080939
 10
25.378057
 20
68.080939
  0
LWPOLYLINE
  5
3A
330
17
100
AcDbEntity
  8
Add_Red
  6
ByLayer
100
AcDbPolyline
 90
7
 70
1
 10
31.574209
 20
69.080939
 10
31.574209
 20
71.08094
 10
31.00801
 20
71.407835
 10
28.739371
 20
71.444246
 10
28.110107
 20
71.08094
 10
28.110107
 20
69.080939
 10
29.842158
 20
68.080939
  0
LWPOLYLINE
  5
3B
330
17
100
AcDbEntity
  8
Add_Red
  6
ByLayer
100
AcDbPolyline
 90
3
 70
1
 10
100.760511
 20
71.437558
 10
100.146316
 20
71.433466
 10
99.798015
 20
71.232374
  0
LWPOLYLINE
  5
3C
330
17
100
AcDbEntity
  8
Add_Red
  6
ByLayer
100
AcDbPolyline
 90
8
 70
1
 10
96.081139
 20
69.16602
 10
98.535724
 20
70.584611
 10
98.535724
 20
71.08094
 10
97.950472
 20
71.418836
 10
95.630097
 20
71.403376
 10
95.071622
 20
71.08094
 10
95.071622
 20
69.080939
 10
95.50532
 20
68.830543
  0
LWPOLYLINE
  5
3D
330
17
100
AcDbEntity
  8
Add_Red
  6
ByLayer
100
AcDbPolyline
 90
7
 70
1
 10
94.071622
 20
69.080939
 10
94.071622
 20
71.08094
 10
93.537299
 20
71.389432
 10
91.11388
 20
71.373286
 10
90.607522
 20
71.08094
 10
90.607522
 20
69.080939
 10
92.339573
 20
68.080939
  0
LWPOLYLINE
  5
3E
330
17
100
AcDbEntity
  8
Add_Red
  6
ByLayer
100
AcDbPolyline
 90
7
 70
1
 10
36.038309
 20
69.080939
 10
36.038309
 20
71.08094
 10
35.599754
 20
71.33414
 10
33.082733
 20
71.374537
 10
32.574209
 20
71.08094
 10
32.574209
 20
69.080939
 10
34.306259
 20
68.080939
  0
LWPOLYLINE
  5
3F
330
17
100
AcDbEntity
  8
Add_Red
  6
ByLayer
100
AcDbPolyline
 90
7
 70
1
 10
89.607522
 20
69.080939
 10
89.607522
 20
71.08094
 10
89.124126
 20
71.360029
 10
86.59766
 20
71.343196
 10
86.14342
 20
71.08094
 10
86.14342
 20
69.080939
 10
87.875471
 20
68.080939
  0
LWPOLYLINE
  5
40
330
17
100
AcDbEntity
  8
Add_Red
  6
ByLayer
100
AcDbPolyline
 90
7
 70
1
 10
85.143421
 20
69.080939
 10
85.143421
 20
71.08094
 10
84.710954
 20
71.330625
 10
82.081441
 20
71.313105
 10
81.679319
 20
71.08094
 10
81.679319
 20
69.080939
 10
83.41137
 20
68.080939
  0
LWPOLYLINE
  5
41
330
17
100
AcDbEntity
  8
Add_Red
  6
ByLayer
100
AcDbPolyline
 90
7
 70
1
 10
40.502411
 20
69.080939
 10
40.502411
 20
71.08094
 10
40.191501
 20
71.260444
 10
37.426094
 20
71.304828
 10
37.038309
 20
71.08094
 10
37.038309
 20
69.080939
 10
38.77036
 20
68.080939
  0
LWPOLYLINE
  5
42
330
17
100
AcDbEntity
  8
Add_Red
  6
ByLayer
100
AcDbPolyline
 90
7
 70
1
 10
80.679319
 20
69.080939
 10
80.679319
 20
71.08094
 10
80.29778
 20
71.301221
 10
77.565224
 20
71.283015
 10
77.215219
 20
71.08094
 10
77.215219
 20
69.080939
 10
78.947269
 20
68.080939
  0
LWPOLYLINE
  5
43
330
17
100
AcDbEntity
  8
Add_Red
  6
ByLayer
100
AcDbPolyline
 90
7
 70
1
 10
76.215219
 20
69.080939
 10
76.215219
 20
71.08094
 10
75.884609
 20
71.271818
 10
73.049004
 20
71.252925
 10
72.751117
 20
71.08094
 10
72.751117
 20
69.080939
 10
74.483168
 20
68.080939
  0
LWPOLYLINE
  5
44
330
17
100
AcDbEntity
  8
Add_Red
  6
ByLayer
100
AcDbPolyline
 90
7
 70
1
 10
71.751117
 20
69.080939
 10
71.751117
 20
71.08094
 10
71.471435
 20
71.242414
 10
68.532786
 20
71.222835
 10
68.287017
 20
71.08094
 10
68.287017
 20
69.080939
 10
70.019067
 20
68.080939
  0
LWPOLYLINE
  5
45
330
17
100
AcDbEntity
  8
Add_Red
  6
ByLayer
100
AcDbPolyline
 90
7
 70
1
 10
44.966512
 20
69.080939
 10
44.966512
 20
71.08094
 10
44.783246
 20
71.186749
 10
41.769455
 20
71.235119
 10
41.50241
 20
71.08094
 10
41.50241
 20
69.080939
 10
43.234461
 20
68.080939
  0
LWPOLYLINE
  5
46
330
17
100
AcDbEntity
  8
Add_Red
  6
ByLayer
100
AcDbPolyline
 90
6
 70
1
 10
67.287017
 20
69.080939
 10
67.287017
 20
71.08094
 10
67.058264
 20
71.213011
 10
66.269113
 20
71.207753
 10
66.207163
 20
69.296131
 10
66.060549
 20
68.372838
  0
LWPOLYLINE
  5
47
330
17
100
AcDbEntity
  8
Add_Red
  6
ByLayer
100
AcDbPolyline
 90
6
 70
1
 10
49.288781
 20
68.999053
 10
49.199984
 20
71.115862
 10
46.112818
 20
71.16541
 10
45.966512
 20
71.08094
 10
45.966512
 20
69.080939
 10
47.698562
 20
68.080939
  0
LWPOLYLINE
  5
48
330
17
100
AcDbEntity
  8
Add_Red
  6
ByLayer
100
AcDbPolyline
 90
3
 70
1
 10
22.646006
 20
71.08094
 10
22.63989
 20
71.084471
 10
22.646006
 20
71.064807
  0
LWPOLYLINE
  5
49
330
17
100
AcDbEntity
  8
Add_Red
  6
ByLayer
100
AcDbPolyline
 90
8
 70
1
 10
90.278302
 20
64.313511
 10
90.477046
 20
64.59905
 10
91.839578
 20
65.93519
 10
91.839578
 20
67.214914
 10
90.107528
 20
68.214914
 10
88.375477
 20
67.214914
 10
88.375477
 20
65.214914
 10
90.107528
 20
64.214914
  0
LWPOLYLINE
  5
4A
330
17
100
AcDbEntity
  8
Add_Red
  6
ByLayer
100
AcDbPolyline
 90
6
 70
1
 10
87.375477
 20
65.214914
 10
87.375477
 20
67.214914
 10
85.643426
 20
68.214914
 10
83.911375
 20
67.214914
 10
83.911375
 20
65.214914
 10
85.643426
 20
64.214914
  0
LWPOLYLINE
  5
4B
330
17
100
AcDbEntity
  8
Add_Red
  6
ByLayer
100
AcDbPolyline
 90
6
 70
1
 10
82.911376
 20
65.214914
 10
82.911376
 20
67.214914
 10
81.179325
 20
68.214914
 10
79.447275
 20
67.214914
 10
79.447275
 20
65.214914
 10
81.179325
 20
64.214914
  0
LWPOLYLINE
  5
4C
330
17
100
AcDbEntity
  8
Add_Red
  6
ByLayer
100
AcDbPolyline
 90
6
 70
1
 10
78.447275
 20
65.214914
 10
78.447275
 20
67.214914
 10
76.715224
 20
68.214914
 10
74.983174
 20
67.214914
 10
74.983174
 20
65.214914
 10
76.715224
 20
64.214914
  0
LWPOLYLINE
  5
4D
330
17
100
AcDbEntity
  8
Add_Red
  6
ByLayer
100
AcDbPolyline
 90
6
 70
1
 10
73.983174
 20
65.214914
 10
73.983174
 20
67.214914
 10
72.251123
 20
68.214914
 10
70.519072
 20
67.214914
 10
70.519072
 20
65.214914
 10
72.251123
 20
64.214914
  0
LWPOLYLINE
  5
4E
330
17
100
AcDbEntity
  8
Add_Red
  6
ByLayer
100
AcDbPolyline
 90
6
 70
1
 10
69.519072
 20
65.214914
 10
69.519072
 20
67.214914
 10
67.787023
 20
68.214914
 10
66.054972
 20
67.214914
 10
66.054972
 20
65.214914
 10
67.787023
 20
64.214914
  0
LWPOLYLINE
  5
4F
330
17
100
AcDbEntity
  8
Add_Red
  6
ByLayer
100
AcDbPolyline
 90
6
 70
1
 10
47.198567
 20
65.214914
 10
47.198567
 20
67.214914
 10
45.466518
 20
68.214914
 10
43.734467
 20
67.214914
 10
43.734467
 20
65.214914
 10
45.466518
 20
64.214914
  0
LWPOLYLINE
  5
50
330
17
100
AcDbEntity
  8
Add_Red
  6
ByLayer
100
AcDbPolyline
 90
6
 70
1
 10
42.734467
 20
65.214914
 10
42.734467
 20
67.214914
 10
41.002416
 20
68.214914
 10
39.270365
 20
67.214914
 10
39.270365
 20
65.214914
 10
41.002416
 20
64.214914
  0
LWPOLYLINE
  5
51
330
17
100
AcDbEntity
  8
Add_Red
  6
ByLayer
100
AcDbPolyline
 90
6
 70
1
 10
38.270366
 20
65.214914
 10
38.270366
 20
67.214914
 10
36.538315
 20
68.214914
 10
34.806265
 20
67.214914
 10
34.806265
 20
65.214914
 10
36.538315
 20
64.214914
  0
LWPOLYLINE
  5
52
330
17
100
AcDbEntity
  8
Add_Red
  6
ByLayer
100
AcDbPolyline
 90
6
 70
1
 10
33.806265
 20
65.214914
 10
33.806265
 20
67.214914
 10
32.074214
 20
68.214914
 10
30.342164
 20
67.214914
 10
30.342164
 20
65.214914
 10
32.074214
 20
64.214914
  0
LWPOLYLINE
  5
53
330
17
100
AcDbEntity
  8
Add_Red
  6
ByLayer
100
AcDbPolyline
 90
6
 70
1
 10
29.342164
 20
65.214914
 10
29.342164
 20
67.214914
 10
27.610113
 20
68.214914
 10
25.878062
 20
67.214914
 10
25.878062
 20
65.214914
 10
27.610113
 20
64.214914
  0
LWPOLYLINE
  5
54
330
17
100
AcDbEntity
  8
Add_Red
  6
ByLayer
100
AcDbPolyline
 90
3
 70
1
 10
94.176118
 20
67.986566
 10
92.839578
 20
67.214914
 10
92.839578
 20
66.915077
  0
LWPOLYLINE
  5
55
330
17
100
AcDbEntity
  8
Add_Red
  6
ByLayer
100
AcDbPolyline
 90
4
 70
1
 10
24.878062
 20
65.214914
 10
24.878062
 20
67.214914
 10
23.61703
 20
67.942971
 10
24.528371
 20
65.013019
  0
LWPOLYLINE
  5
56
330
17
100
AcDbEntity
  8
Add_Red
  6
ByLayer
100
AcDbPolyline
 90
8
 70
1
 10
51.662669
 20
65.214914
 10
51.662669
 20
65.299012
 10
51.323549
 20
65.301125
 10
49.75292
 20
66.527652
 10
49.352452
 20
67.88111
 10
48.198567
 20
67.214914
 10
48.198567
 20
65.214914
 10
49.930618
 20
64.214914
  0
LWPOLYLINE
  5
57
330
17
100
AcDbEntity
  8
Add_Red
  6
ByLayer
100
AcDbPolyline
 90
7
 70
1
 10
65.054972
 20
65.214914
 10
65.054972
 20
65.756131
 10
64.925413
 20
65.527594
 10
62.677195
 20
65.307179
 10
61.59087
 20
65.300113
 10
61.59087
 20
65.214914
 10
63.322921
 20
64.214914
  0
LWPOLYLINE
  5
58
330
17
100
AcDbEntity
  8
Add_Red
  6
ByLayer
100
AcDbPolyline
 90
5
 70
1
 10
60.590871
 20
65.214914
 10
60.590871
 20
65.293609
 10
57.12677
 20
65.271078
 10
57.12677
 20
65.214914
 10
58.85882
 20
64.214914
  0
LWPOLYLINE
  5
59
330
17
100
AcDbEntity
  8
Add_Red
  6
ByLayer
100
AcDbPolyline
 90
5
 70
1
 10
56.12677
 20
65.214914
 10
56.12677
 20
65.271191
 10
52.662669
 20
65.29278
 10
52.662669
 20
65.214914
 10
54.394719
 20
64.214914
  0
LWPOLYLINE
  5
5A
330
17
100
AcDbEntity
  8
Add_Red
  6
ByLayer
100
AcDbPolyline
 90
6
 70
1
 10
87.911431
 20
60.912978
 10
89.607085
 20
63.34916
 10
87.875504
 20
64.348889
 10
86.143453
 20
63.348889
 10
86.143453
 20
61.348889
 10
87.651599
 20
60.47816
  0
LWPOLYLINE
  5
5B
330
17
100
AcDbEntity
  8
Add_Red
  6
ByLayer
100
AcDbPolyline
 90
6
 70
1
 10
85.143453
 20
61.348889
 10
85.143453
 20
63.348889
 10
83.411402
 20
64.348889
 10
81.679351
 20
63.348889
 10
81.679351
 20
61.348889
 10
83.411402
 20
60.348889
  0
LWPOLYLINE
  5
5C
330
17
100
AcDbEntity
  8
Add_Red
  6
ByLayer
100
AcDbPolyline
 90
6
 70
1
 10
80.679352
 20
61.348889
 10
80.679352
 20
63.348889
 10
78.947302
 20
64.348889
 10
77.215251
 20
63.348889
 10
77.215251
 20
61.348889
 10
78.947302
 20
60.348889
  0
LWPOLYLINE
  5
5D
330
17
100
AcDbEntity
  8
Add_Red
  6
ByLayer
100
AcDbPolyline
 90
6
 70
1
 10
76.215251
 20
61.348889
 10
76.215251
 20
63.348889
 10
74.4832
 20
64.348889
 10
72.75115
 20
63.348889
 10
72.75115
 20
61.348889
 10
74.4832
 20
60.348889
  0
LWPOLYLINE
  5
5E
330
17
100
AcDbEntity
  8
Add_Red
  6
ByLayer
100
AcDbPolyline
 90
6
 70
1
 10
71.75115
 20
61.348889
 10
71.75115
 20
63.348889
 10
70.019099
 20
64.348889
 10
68.287049
 20
63.348889
 10
68.287049
 20
61.348889
 10
70.019099
 20
60.348889
  0
LWPOLYLINE
  5
5F
330
17
100
AcDbEntity
  8
Add_Red
  6
ByLayer
100
AcDbPolyline
 90
6
 70
1
 10
67.287049
 20
61.348889
 10
67.287049
 20
63.348889
 10
65.554999
 20
64.348889
 10
63.822948
 20
63.348889
 10
63.822948
 20
61.348889
 10
65.554999
 20
60.348889
  0
LWPOLYLINE
  5
60
330
17
100
AcDbEntity
  8
Add_Red
  6
ByLayer
100
AcDbPolyline
 90
6
 70
1
 10
62.822948
 20
61.348889
 10
62.822948
 20
63.348889
 10
61.090897
 20
64.348889
 10
59.358846
 20
63.348889
 10
59.358846
 20
61.348889
 10
61.090897
 20
60.348889
  0
LWPOLYLINE
  5
61
330
17
100
AcDbEntity
  8
Add_Red
  6
ByLayer
100
AcDbPolyline
 90
6
 70
1
 10
58.358847
 20
61.348889
 10
58.358847
 20
63.348889
 10
56.626797
 20
64.348889
 10
54.894746
 20
63.348889
 10
54.894746
 20
61.348889
 10
56.626797
 20
60.348889
  0
LWPOLYLINE
  5
62
330
17
100
AcDbEntity
  8
Add_Red
  6
ByLayer
100
AcDbPolyline
 90
6
 70
1
 10
53.894746
 20
61.348889
 10
53.894746
 20
63.348889
 10
52.162695
 20
64.348889
 10
50.430645
 20
63.348889
 10
50.430645
 20
61.348889
 10
52.162695
 20
60.348889
  0
LWPOLYLINE
  5
63
330
17
100
AcDbEntity
  8
Add_Red
  6
ByLayer
100
AcDbPolyline
 90
6
 70
1
 10
49.430645
 20
61.348889
 10
49.430645
 20
63.348889
 10
47.698594
 20
64.348889
 10
45.966544
 20
63.348889
 10
45.966544
 20
61.348889
 10
47.698594
 20
60.348889
  0
LWPOLYLINE
  5
64
330
17
100
AcDbEntity
  8
Add_Red
  6
ByLayer
100
AcDbPolyline
 90
6
 70
1
 10
44.966544
 20
61.348889
 10
44.966544
 20
63.348889
 10
43.234494
 20
64.348889
 10
41.502443
 20
63.348889
 10
41.502443
 20
61.348889
 10
43.234494
 20
60.348889
  0
LWPOLYLINE
  5
65
330
17
100
AcDbEntity
  8
Add_Red
  6
ByLayer
100
AcDbPolyline
 90
6
 70
1
 10
40.502443
 20
61.348889
 10
40.502443
 20
63.348889
 10
38.770392
 20
64.348889
 10
37.038341
 20
63.348889
 10
37.038341
 20
61.348889
 10
38.770392
 20
60.348889
  0
LWPOLYLINE
  5
66
330
17
100
AcDbEntity
  8
Add_Red
  6
ByLayer
100
AcDbPolyline
 90
6
 70
1
 10
36.038342
 20
61.348889
 10
36.038342
 20
63.348889
 10
34.306292
 20
64.348889
 10
32.574241
 20
63.348889
 10
32.574241
 20
61.348889
 10
34.306292
 20
60.348889
  0
LWPOLYLINE
  5
67
330
17
100
AcDbEntity
  8
Add_Red
  6
ByLayer
100
AcDbPolyline
 90
6
 70
1
 10
31.574241
 20
61.348889
 10
31.574241
 20
63.348889
 10
29.84219
 20
64.348889
 10
28.11014
 20
63.348889
 10
28.11014
 20
61.348889
 10
29.84219
 20
60.348889
  0
LWPOLYLINE
  5
68
330
17
100
AcDbEntity
  8
Add_Red
  6
ByLayer
100
AcDbPolyline
 90
5
 70
1
 10
27.11014
 20
61.348889
 10
27.11014
 20
63.348889
 10
25.378089
 20
64.348889
 10
24.832857
 20
64.034099
 10
25.887614
 20
60.643063
  0
LWPOLYLINE
  5
69
330
17
100
AcDbEntity
  8
Add_Red
  6
ByLayer
100
AcDbPolyline
 90
7
 70
1
 10
85.679018
 20
56.503393
 10
86.055685
 20
57.807462
 10
87.138585
 20
59.619651
 10
85.643459
 20
60.482863
 10
83.911408
 20
59.482863
 10
83.911408
 20
57.482863
 10
85.643459
 20
56.482863
  0
LWPOLYLINE
  5
6A
330
17
100
AcDbEntity
  8
Add_Red
  6
ByLayer
100
AcDbPolyline
 90
6
 70
1
 10
82.911408
 20
57.482863
 10
82.911408
 20
59.482863
 10
81.179357
 20
60.482863
 10
79.447307
 20
59.482863
 10
79.447307
 20
57.482863
 10
81.179357
 20
56.482863
  0
LWPOLYLINE
  5
6B
330
17
100
AcDbEntity
  8
Add_Red
  6
ByLayer
100
AcDbPolyline
 90
6
 70
1
 10
78.447308
 20
57.482863
 10
78.447308
 20
59.482863
 10
76.715257
 20
60.482863
 10
74.983206
 20
59.482863
 10
74.983206
 20
57.482863
 10
76.715257
 20
56.482863
  0
LWPOLYLINE
  5
6C
330
17
100
AcDbEntity
  8
Add_Red
  6
ByLayer
100
AcDbPolyline
 90
6
 70
1
 10
73.983206
 20
57.482863
 10
73.983206
 20
59.482863
 10
72.251155
 20
60.482863
 10
70.519105
 20
59.482863
 10
70.519105
 20
57.482863
 10
72.251155
 20
56.482863
  0
LWPOLYLINE
  5
6D
330
17
100
AcDbEntity
  8
Add_Red
  6
ByLayer
100
AcDbPolyline
 90
6
 70
1
 10
69.519105
 20
57.482863
 10
69.519105
 20
59.482863
 10
67.787055
 20
60.482863
 10
66.055004
 20
59.482863
 10
66.055004
 20
57.482863
 10
67.787055
 20
56.482863
  0
LWPOLYLINE
  5
6E
330
17
100
AcDbEntity
  8
Add_Red
  6
ByLayer
100
AcDbPolyline
 90
6
 70
1
 10
65.055004
 20
57.482863
 10
65.055004
 20
59.482863
 10
63.322954
 20
60.482863
 10
61.590903
 20
59.482863
 10
61.590903
 20
57.482863
 10
63.322954
 20
56.482863
  0
LWPOLYLINE
  5
6F
330
17
100
AcDbEntity
  8
Add_Red
  6
ByLayer
100
AcDbPolyline
 90
6
 70
1
 10
60.590903
 20
57.482863
 10
60.590903
 20
59.482863
 10
58.858852
 20
60.482863
 10
57.126802
 20
59.482863
 10
57.126802
 20
57.482863
 10
58.858852
 20
56.482863
  0
LWPOLYLINE
  5
70
330
17
100
AcDbEntity
  8
Add_Red
  6
ByLayer
100
AcDbPolyline
 90
6
 70
1
 10
56.126803
 20
57.482863
 10
56.126803
 20
59.482863
 10
54.394752
 20
60.482863
 10
52.662701
 20
59.482863
 10
52.662701
 20
57.482863
 10
54.394752
 20
56.482863
  0
LWPOLYLINE
  5
71
330
17
100
AcDbEntity
  8
Add_Red
  6
ByLayer
100
AcDbPolyline
 90
6
 70
1
 10
51.662701
 20
57.482863
 10
51.662701
 20
59.482863
 10
49.93065
 20
60.482863
 10
48.1986
 20
59.482863
 10
48.1986
 20
57.482863
 10
49.93065
 20
56.482863
  0
LWPOLYLINE
  5
72
330
17
100
AcDbEntity
  8
Add_Red
  6
ByLayer
100
AcDbPolyline
 90
6
 70
1
 10
47.1986
 20
57.482863
 10
47.1986
 20
59.482863
 10
45.46655
 20
60.482863
 10
43.734499
 20
59.482863
 10
43.734499
 20
57.482863
 10
45.46655
 20
56.482863
  0
LWPOLYLINE
  5
73
330
17
100
AcDbEntity
  8
Add_Red
  6
ByLayer
100
AcDbPolyline
 90
7
 70
1
 10
42.734499
 20
57.482863
 10
42.734499
 20
59.482863
 10
41.002449
 20
60.482863
 10
39.270398
 20
59.482863
 10
39.270398
 20
58.71524
 10
40.953136
 20
57.538271
 10
41.707937
 20
56.890177
  0
LWPOLYLINE
  5
74
330
17
100
AcDbEntity
  8
Add_Red
  6
ByLayer
100
AcDbPolyline
 90
4
 70
1
 10
38.270398
 20
59.482863
 10
36.538347
 20
60.482863
 10
35.695044
 20
59.995981
 10
38.270398
 20
59.320386
  0
LWPOLYLINE
  5
75
330
17
100
AcDbEntity
  8
Add_Red
  6
ByLayer
100
AcDbPolyline
 90
3
 70
1
 10
32.074247
 20
60.482863
 10
31.387577
 20
60.086414
 10
32.79829
 20
60.064837
  0
LWPOLYLINE
  5
76
330
17
100
AcDbEntity
  8
Add_Red
  6
ByLayer
100
AcDbPolyline
 90
3
 70
1
 10
27.610145
 20
60.482863
 10
27.038686
 20
60.152931
 10
28.212707
 20
60.134974
  0
LWPOLYLINE
  5
77
330
17
100
AcDbEntity
  8
Add_Red
  6
ByLayer
100
AcDbPolyline
 90
6
 70
1
 10
85.143485
 20
53.616837
 10
85.143485
 20
55.616838
 10
83.411435
 20
56.616838
 10
81.679384
 20
55.616838
 10
81.679384
 20
53.616837
 10
83.411435
 20
52.616837
  0
LWPOLYLINE
  5
78
330
17
100
AcDbEntity
  8
Add_Red
  6
ByLayer
100
AcDbPolyline
 90
6
 70
1
 10
80.679384
 20
53.616837
 10
80.679384
 20
55.616838
 10
78.947334
 20
56.616838
 10
77.215283
 20
55.616838
 10
77.215283
 20
53.616837
 10
78.947334
 20
52.616837
  0
LWPOLYLINE
  5
79
330
17
100
AcDbEntity
  8
Add_Red
  6
ByLayer
100
AcDbPolyline
 90
6
 70
1
 10
76.215284
 20
53.616837
 10
76.215284
 20
55.616838
 10
74.483233
 20
56.616838
 10
72.751182
 20
55.616838
 10
72.751182
 20
53.616837
 10
74.483233
 20
52.616837
  0
LWPOLYLINE
  5
7A
330
17
100
AcDbEntity
  8
Add_Red
  6
ByLayer
100
AcDbPolyline
 90
6
 70
1
 10
71.751182
 20
53.616837
 10
71.751182
 20
55.616838
 10
70.019131
 20
56.616838
 10
68.287082
 20
55.616838
 10
68.287082
 20
53.616837
 10
70.019131
 20
52.616837
  0
LWPOLYLINE
  5
7B
330
17
100
AcDbEntity
  8
Add_Red
  6
ByLayer
100
AcDbPolyline
 90
6
 70
1
 10
67.287082
 20
53.616837
 10
67.287082
 20
55.616838
 10
65.555031
 20
56.616838
 10
63.82298
 20
55.616838
 10
63.82298
 20
53.616837
 10
65.555031
 20
52.616837
  0
LWPOLYLINE
  5
7C
330
17
100
AcDbEntity
  8
Add_Red
  6
ByLayer
100
AcDbPolyline
 90
6
 70
1
 10
62.82298
 20
53.616837
 10
62.82298
 20
55.616838
 10
61.09093
 20
56.616838
 10
59.358879
 20
55.616838
 10
59.358879
 20
53.616837
 10
61.09093
 20
52.616837
  0
LWPOLYLINE
  5
7D
330
17
100
AcDbEntity
  8
Add_Red
  6
ByLayer
100
AcDbPolyline
 90
6
 70
1
 10
58.358879
 20
53.616837
 10
58.358879
 20
55.616838
 10
56.626829
 20
56.616838
 10
54.894778
 20
55.616838
 10
54.894778
 20
53.616837
 10
56.626829
 20
52.616837
  0
LWPOLYLINE
  5
7E
330
17
100
AcDbEntity
  8
Add_Red
  6
ByLayer
100
AcDbPolyline
 90
6
 70
1
 10
53.894779
 20
53.616837
 10
53.894779
 20
55.616838
 10
52.162728
 20
56.616838
 10
50.430677
 20
55.616838
 10
50.430677
 20
53.616837
 10
52.162728
 20
52.616837
  0
LWPOLYLINE
  5
7F
330
17
100
AcDbEntity
  8
Add_Red
  6
ByLayer
100
AcDbPolyline
 90
6
 70
1
 10
49.430677
 20
53.616837
 10
49.430677
 20
55.616838
 10
47.698626
 20
56.616838
 10
45.966577
 20
55.616838
 10
45.966577
 20
53.616837
 10
47.698626
 20
52.616837
  0
LWPOLYLINE
  5
80
330
17
100
AcDbEntity
  8
Add_Red
  6
ByLayer
100
AcDbPolyline
 90
6
 70
1
 10
44.966577
 20
53.616837
 10
44.966577
 20
55.616838
 10
43.234526
 20
56.616838
 10
42.512067
 20
56.199726
 10
43.625536
 20
55.243669
 10
44.532251
 20
53.366079
  0
LWPOLYLINE
  5
81
330
17
100
AcDbEntity
  8
Add_Red
  6
ByLayer
100
AcDbPolyline
 90
7
 70
1
 10
86.715112
 20
49.369512
 10
86.294381
 20
51.369076
 10
86.141357
 20
52.463368
 10
85.643491
 20
52.750811
 10
83.91144
 20
51.750811
 10
83.91144
 20
49.750811
 10
85.643491
 20
48.750811
  0
LWPOLYLINE
  5
82
330
17
100
AcDbEntity
  8
Add_Red
  6
ByLayer
100
AcDbPolyline
 90
6
 70
1
 10
82.911441
 20
49.750811
 10
82.911441
 20
51.750811
 10
81.17939
 20
52.750811
 10
79.44734
 20
51.750811
 10
79.44734
 20
49.750811
 10
81.17939
 20
48.750811
  0
LWPOLYLINE
  5
83
330
17
100
AcDbEntity
  8
Add_Red
  6
ByLayer
100
AcDbPolyline
 90
6
 70
1
 10
78.44734
 20
49.750811
 10
78.44734
 20
51.750811
 10
76.715289
 20
52.750811
 10
74.983238
 20
51.750811
 10
74.983238
 20
49.750811
 10
76.715289
 20
48.750811
  0
LWPOLYLINE
  5
84
330
17
100
AcDbEntity
  8
Add_Red
  6
ByLayer
100
AcDbPolyline
 90
6
 70
1
 10
73.983239
 20
49.750811
 10
73.983239
 20
51.750811
 10
72.251188
 20
52.750811
 10
70.519137
 20
51.750811
 10
70.519137
 20
49.750811
 10
72.251188
 20
48.750811
  0
LWPOLYLINE
  5
85
330
17
100
AcDbEntity
  8
Add_Red
  6
ByLayer
100
AcDbPolyline
 90
6
 70
1
 10
69.519137
 20
49.750811
 10
69.519137
 20
51.750811
 10
67.787088
 20
52.750811
 10
66.055037
 20
51.750811
 10
66.055037
 20
49.750811
 10
67.787088
 20
48.750811
  0
LWPOLYLINE
  5
86
330
17
100
AcDbEntity
  8
Add_Red
  6
ByLayer
100
AcDbPolyline
 90
6
 70
1
 10
65.055037
 20
49.750811
 10
65.055037
 20
51.750811
 10
63.322986
 20
52.750811
 10
61.590935
 20
51.750811
 10
61.590935
 20
49.750811
 10
63.322986
 20
48.750811
  0
LWPOLYLINE
  5
87
330
17
100
AcDbEntity
  8
Add_Red
  6
ByLayer
100
AcDbPolyline
 90
6
 70
1
 10
60.590936
 20
49.750811
 10
60.590936
 20
51.750811
 10
58.858885
 20
52.750811
 10
57.126835
 20
51.750811
 10
57.126835
 20
49.750811
 10
58.858885
 20
48.750811
  0
LWPOLYLINE
  5
88
330
17
100
AcDbEntity
  8
Add_Red
  6
ByLayer
100
AcDbPolyline
 90
6
 70
1
 10
56.126835
 20
49.750811
 10
56.126835
 20
51.750811
 10
54.394784
 20
52.750811
 10
52.662733
 20
51.750811
 10
52.662733
 20
49.750811
 10
54.394784
 20
48.750811
  0
LWPOLYLINE
  5
89
330
17
100
AcDbEntity
  8
Add_Red
  6
ByLayer
100
AcDbPolyline
 90
6
 70
1
 10
51.662734
 20
49.750811
 10
51.662734
 20
51.750811
 10
49.930683
 20
52.750811
 10
48.198632
 20
51.750811
 10
48.198632
 20
49.750811
 10
49.930683
 20
48.750811
  0
LWPOLYLINE
  5
8A
330
17
100
AcDbEntity
  8
Add_Red
  6
ByLayer
100
AcDbPolyline
 90
6
 70
1
 10
47.198632
 20
49.750811
 10
47.198632
 20
51.750811
 10
45.466583
 20
52.750811
 10
44.968299
 20
52.463126
 10
45.238974
 20
51.902622
 10
46.434893
 20
49.309866
  0
LWPOLYLINE
  5
8B
330
17
100
AcDbEntity
  8
Add_Red
  6
ByLayer
100
AcDbPolyline
 90
6
 70
1
 10
85.143518
 20
45.884786
 10
85.143518
 20
47.884786
 10
83.411467
 20
48.884786
 10
81.679416
 20
47.884786
 10
81.679416
 20
45.884786
 10
83.411467
 20
44.884786
  0
LWPOLYLINE
  5
8C
330
17
100
AcDbEntity
  8
Add_Red
  6
ByLayer
100
AcDbPolyline
 90
6
 70
1
 10
80.679417
 20
45.884786
 10
80.679417
 20
47.884786
 10
78.947367
 20
48.884786
 10
77.215316
 20
47.884786
 10
77.215316
 20
45.884786
 10
78.947367
 20
44.884786
  0
LWPOLYLINE
  5
8D
330
17
100
AcDbEntity
  8
Add_Red
  6
ByLayer
100
AcDbPolyline
 90
6
 70
1
 10
76.215316
 20
45.884786
 10
76.215316
 20
47.884786
 10
74.483265
 20
48.884786
 10
72.751214
 20
47.884786
 10
72.751214
 20
45.884786
 10
74.483265
 20
44.884786
  0
LWPOLYLINE
  5
8E
330
17
100
AcDbEntity
  8
Add_Red
  6
ByLayer
100
AcDbPolyline
 90
6
 70
1
 10
71.751215
 20
45.884786
 10
71.751215
 20
47.884786
 10
70.019164
 20
48.884786
 10
68.287114
 20
47.884786
 10
68.287114
 20
45.884786
 10
70.019164
 20
44.884786
  0
LWPOLYLINE
  5
8F
330
17
100
AcDbEntity
  8
Add_Red
  6
ByLayer
100
AcDbPolyline
 90
6
 70
1
 10
67.287114
 20
45.884786
 10
67.287114
 20
47.884786
 10
65.555063
 20
48.884786
 10
63.823013
 20
47.884786
 10
63.823013
 20
45.884786
 10
65.555063
 20
44.884786
  0
LWPOLYLINE
  5
90
330
17
100
AcDbEntity
  8
Add_Red
  6
ByLayer
100
AcDbPolyline
 90
8
 70
1
 10
62.823013
 20
45.884786
 10
62.823013
 20
47.884786
 10
61.090962
 20
48.884786
 10
59.358911
 20
47.884786
 10
59.358911
 20
45.995911
 10
59.913892
 20
46.152655
 10
60.170405
 20
45.41627
 10
61.090962
 20
44.884786
  0
LWPOLYLINE
  5
91
330
17
100
AcDbEntity
  8
Add_Red
  6
ByLayer
100
AcDbPolyline
 90
7
 70
1
 10
57.778058
 20
45.54943
 10
58.358912
 20
45.884786
 10
58.358912
 20
47.884786
 10
56.626862
 20
48.884786
 10
54.894811
 20
47.884786
 10
54.894811
 20
45.884786
 10
56.231982
 20
45.11277
  0
LWPOLYLINE
  5
92
330
17
100
AcDbEntity
  8
Add_Red
  6
ByLayer
100
AcDbPolyline
 90
6
 70
1
 10
53.894811
 20
45.884786
 10
53.894811
 20
47.884786
 10
52.16276
 20
48.884786
 10
50.430709
 20
47.884786
 10
50.430709
 20
45.884786
 10
52.16276
 20
44.884786
  0
LWPOLYLINE
  5
93
330
17
100
AcDbEntity
  8
Add_Red
  6
ByLayer
100
AcDbPolyline
 90
5
 70
1
 10
49.43071
 20
45.884786
 10
49.43071
 20
47.884786
 10
47.698659
 20
48.884786
 10
46.855501
 20
48.397988
 10
48.312509
 20
45.239192
  0
LWPOLYLINE
  5
94
330
17
100
AcDbEntity
  8
Add_Red
  6
ByLayer
100
AcDbPolyline
 90
4
 70
1
 10
86.931759
 20
48.339878
 10
86.143518
 20
47.884786
 10
86.143518
 20
45.884786
 10
87.628769
 20
45.027275
  0
LWPOLYLINE
  5
95
330
17
100
AcDbEntity
  8
Add_Red
  6
ByLayer
100
AcDbPolyline
 90
6
 70
1
 10
87.375574
 20
42.018761
 10
87.375574
 20
44.018761
 10
85.643523
 20
45.018761
 10
83.911473
 20
44.018761
 10
83.911473
 20
42.018761
 10
85.643523
 20
41.018761
  0
LWPOLYLINE
  5
96
330
17
100
AcDbEntity
  8
Add_Red
  6
ByLayer
100
AcDbPolyline
 90
6
 70
1
 10
82.911473
 20
42.018761
 10
82.911473
 20
44.018761
 10
81.179422
 20
45.018761
 10
79.447372
 20
44.018761
 10
79.447372
 20
42.018761
 10
81.179422
 20
41.018761
  0
LWPOLYLINE
  5
97
330
17
100
AcDbEntity
  8
Add_Red
  6
ByLayer
100
AcDbPolyline
 90
6
 70
1
 10
78.447373
 20
42.018761
 10
78.447373
 20
44.018761
 10
76.715322
 20
45.018761
 10
74.983271
 20
44.018761
 10
74.983271
 20
42.018761
 10
76.715322
 20
41.018761
  0
LWPOLYLINE
  5
98
330
17
100
AcDbEntity
  8
Add_Red
  6
ByLayer
100
AcDbPolyline
 90
6
 70
1
 10
73.983271
 20
42.018761
 10
73.983271
 20
44.018761
 10
72.25122
 20
45.018761
 10
70.519169
 20
44.018761
 10
70.519169
 20
42.018761
 10
72.25122
 20
41.018761
  0
LWPOLYLINE
  5
99
330
17
100
AcDbEntity
  8
Add_Red
  6
ByLayer
100
AcDbPolyline
 90
6
 70
1
 10
69.51917
 20
42.018761
 10
69.51917
 20
44.018761
 10
67.78712
 20
45.018761
 10
66.055069
 20
44.018761
 10
66.055069
 20
42.018761
 10
67.78712
 20
41.018761
  0
LWPOLYLINE
  5
9A
330
17
100
AcDbEntity
  8
Add_Red
  6
ByLayer
100
AcDbPolyline
 90
6
 70
1
 10
65.055069
 20
42.018761
 10
65.055069
 20
44.018761
 10
63.323018
 20
45.018761
 10
61.590968
 20
44.018761
 10
61.590968
 20
42.018761
 10
63.323018
 20
41.018761
  0
LWPOLYLINE
  5
9B
330
17
100
AcDbEntity
  8
Add_Red
  6
ByLayer
100
AcDbPolyline
 90
3
 70
1
 10
54.888969
 20
44.733462
 10
54.394817
 20
45.018761
 10
52.954211
 20
44.187027
  0
LWPOLYLINE
  5
9C
330
17
100
AcDbEntity
  8
Add_Red
  6
ByLayer
100
AcDbPolyline
 90
5
 70
1
 10
51.662766
 20
43.822283
 10
51.662766
 20
44.018761
 10
49.930715
 20
45.018761
 10
48.733111
 20
44.327324
 10
49.276879
 20
43.148435
  0
LWPOLYLINE
  5
9D
330
17
100
AcDbEntity
  8
Add_Red
  6
ByLayer
100
AcDbPolyline
 90
6
 70
1
 10
89.132923
 20
37.878649
 10
88.522618
 20
40.77918
 10
87.875601
 20
41.152735
 10
86.14355
 20
40.152735
 10
86.14355
 20
38.152734
 10
87.875601
 20
37.152734
  0
LWPOLYLINE
  5
9E
330
17
100
AcDbEntity
  8
Add_Red
  6
ByLayer
100
AcDbPolyline
 90
6
 70
1
 10
85.14355
 20
38.152734
 10
85.14355
 20
40.152735
 10
83.411499
 20
41.152735
 10
81.679449
 20
40.152735
 10
81.679449
 20
38.152734
 10
83.411499
 20
37.152734
  0
LWPOLYLINE
  5
9F
330
17
100
AcDbEntity
  8
Add_Red
  6
ByLayer
100
AcDbPolyline
 90
6
 70
1
 10
80.679449
 20
38.152734
 10
80.679449
 20
40.152735
 10
78.947399
 20
41.152735
 10
77.215348
 20
40.152735
 10
77.215348
 20
38.152734
 10
78.947399
 20
37.152734
  0
LWPOLYLINE
  5
A0
330
17
100
AcDbEntity
  8
Add_Red
  6
ByLayer
100
AcDbPolyline
 90
6
 70
1
 10
76.215349
 20
38.152734
 10
76.215349
 20
40.152735
 10
74.483298
 20
41.152735
 10
72.751247
 20
40.152735
 10
72.751247
 20
38.152734
 10
74.483298
 20
37.152734
  0
LWPOLYLINE
  5
A1
330
17
100
AcDbEntity
  8
Add_Red
  6
ByLayer
100
AcDbPolyline
 90
6
 70
1
 10
71.751247
 20
38.152734
 10
71.751247
 20
40.152735
 10
70.019196
 20
41.152735
 10
68.287147
 20
40.152735
 10
68.287147
 20
38.152734
 10
70.019196
 20
37.152734
  0
LWPOLYLINE
  5
A2
330
17
100
AcDbEntity
  8
Add_Red
  6
ByLayer
100
AcDbPolyline
 90
6
 70
1
 10
67.287147
 20
38.152734
 10
67.287147
 20
40.152735
 10
65.555096
 20
41.152735
 10
63.823045
 20
40.152735
 10
63.823045
 20
38.152734
 10
65.555096
 20
37.152734
  0
LWPOLYLINE
  5
A3
330
17
100
AcDbEntity
  8
Add_Red
  6
ByLayer
100
AcDbPolyline
 90
4
 70
1
 10
62.823045
 20
38.152734
 10
62.823045
 20
40.152735
 10
61.797696
 20
40.74472
 10
62.721095
 20
38.093873
  0
LWPOLYLINE
  5
A4
330
17
100
AcDbEntity
  8
Add_Red
  6
ByLayer
100
AcDbPolyline
 90
6
 70
1
 10
87.375607
 20
34.286709
 10
87.375607
 20
36.286709
 10
85.643556
 20
37.286709
 10
83.911505
 20
36.286709
 10
83.911505
 20
34.286709
 10
85.643556
 20
33.286709
  0
LWPOLYLINE
  5
A5
330
17
100
AcDbEntity
  8
Add_Red
  6
ByLayer
100
AcDbPolyline
 90
6
 70
1
 10
82.911505
 20
34.286709
 10
82.911505
 20
36.286709
 10
81.179455
 20
37.286709
 10
79.447405
 20
36.286709
 10
79.447405
 20
34.286709
 10
81.179455
 20
33.286709
  0
LWPOLYLINE
  5
A6
330
17
100
AcDbEntity
  8
Add_Red
  6
ByLayer
100
AcDbPolyline
 90
6
 70
1
 10
78.447405
 20
34.286709
 10
78.447405
 20
36.286709
 10
76.715354
 20
37.286709
 10
74.983303
 20
36.286709
 10
74.983303
 20
34.286709
 10
76.715354
 20
33.286709
  0
LWPOLYLINE
  5
A7
330
17
100
AcDbEntity
  8
Add_Red
  6
ByLayer
100
AcDbPolyline
 90
6
 70
1
 10
73.983304
 20
34.286709
 10
73.983304
 20
36.286709
 10
72.251253
 20
37.286709
 10
70.519202
 20
36.286709
 10
70.519202
 20
34.286709
 10
72.251253
 20
33.286709
  0
LWPOLYLINE
  5
A8
330
17
100
AcDbEntity
  8
Add_Red
  6
ByLayer
100
AcDbPolyline
 90
6
 70
1
 10
69.519202
 20
34.286709
 10
69.519202
 20
36.286709
 10
67.787152
 20
37.286709
 10
66.055102
 20
36.286709
 10
66.055102
 20
34.286709
 10
67.787152
 20
33.286709
  0
LWPOLYLINE
  5
A9
330
17
100
AcDbEntity
  8
Add_Red
  6
ByLayer
100
AcDbPolyline
 90
6
 70
1
 10
65.055102
 20
34.286709
 10
65.055102
 20
36.286709
 10
63.323051
 20
37.286709
 10
61.591
 20
36.286709
 10
61.591
 20
34.286709
 10
63.323051
 20
33.286709
  0
LWPOLYLINE
  5
AA
330
17
100
AcDbEntity
  8
Add_Red
  6
ByLayer
100
AcDbPolyline
 90
6
 70
1
 10
90.723076
 20
33.642022
 10
89.383609
 20
36.687243
 10
89.349568
 20
36.849026
 10
88.375606
 20
36.286709
 10
88.375606
 20
34.286709
 10
90.107657
 20
33.286709
  0
LWPOLYLINE
  5
AB
330
17
100
AcDbEntity
  8
Add_Red
  6
ByLayer
100
AcDbPolyline
 90
6
 70
1
 10
60.591
 20
34.286709
 10
60.591
 20
36.286709
 10
59.834551
 20
36.723445
 10
57.1269
 20
35.884744
 10
57.1269
 20
34.286709
 10
58.85895
 20
33.286709
  0
LWPOLYLINE
  5
AC
330
17
100
AcDbEntity
  8
Add_Red
  6
ByLayer
100
AcDbPolyline
 90
5
 70
1
 10
56.1269
 20
34.286709
 10
56.1269
 20
35.574992
 10
53.254639
 20
34.685302
 10
53.651723
 20
33.715753
 10
54.394849
 20
33.286709
  0
LWPOLYLINE
  5
AD
330
17
100
AcDbEntity
  8
Add_Red
  6
ByLayer
100
AcDbPolyline
 90
6
 70
1
 10
89.607684
 20
30.420683
 10
89.607684
 20
32.420683
 10
87.875633
 20
33.420683
 10
86.143582
 20
32.420683
 10
86.143582
 20
30.420683
 10
87.875633
 20
29.420683
  0
LWPOLYLINE
  5
AE
330
17
100
AcDbEntity
  8
Add_Red
  6
ByLayer
100
AcDbPolyline
 90
6
 70
1
 10
85.143583
 20
30.420683
 10
85.143583
 20
32.420683
 10
83.411532
 20
33.420683
 10
81.679481
 20
32.420683
 10
81.679481
 20
30.420683
 10
83.411532
 20
29.420683
  0
LWPOLYLINE
  5
AF
330
17
100
AcDbEntity
  8
Add_Red
  6
ByLayer
100
AcDbPolyline
 90
6
 70
1
 10
80.679481
 20
30.420683
 10
80.679481
 20
32.420683
 10
78.947432
 20
33.420683
 10
77.215381
 20
32.420683
 10
77.215381
 20
30.420683
 10
78.947432
 20
29.420683
  0
LWPOLYLINE
  5
B0
330
17
100
AcDbEntity
  8
Add_Red
  6
ByLayer
100
AcDbPolyline
 90
6
 70
1
 10
76.215381
 20
30.420683
 10
76.215381
 20
32.420683
 10
74.48333
 20
33.420683
 10
72.751279
 20
32.420683
 10
72.751279
 20
30.420683
 10
74.48333
 20
29.420683
  0
LWPOLYLINE
  5
B1
330
17
100
AcDbEntity
  8
Add_Red
  6
ByLayer
100
AcDbPolyline
 90
6
 70
1
 10
71.75128
 20
30.420683
 10
71.75128
 20
32.420683
 10
70.019229
 20
33.420683
 10
68.287179
 20
32.420683
 10
68.287179
 20
30.420683
 10
70.019229
 20
29.420683
  0
LWPOLYLINE
  5
B2
330
17
100
AcDbEntity
  8
Add_Red
  6
ByLayer
100
AcDbPolyline
 90
6
 70
1
 10
67.287179
 20
30.420683
 10
67.287179
 20
32.420683
 10
65.555128
 20
33.420683
 10
63.823077
 20
32.420683
 10
63.823077
 20
30.420683
 10
65.555128
 20
29.420683
  0
LWPOLYLINE
  5
B3
330
17
100
AcDbEntity
  8
Add_Red
  6
ByLayer
100
AcDbPolyline
 90
6
 70
1
 10
62.823078
 20
30.420683
 10
62.823078
 20
32.420683
 10
61.091027
 20
33.420683
 10
59.358976
 20
32.420683
 10
59.358976
 20
30.420683
 10
61.091027
 20
29.420683
  0
LWPOLYLINE
  5
B4
330
17
100
AcDbEntity
  8
Add_Red
  6
ByLayer
100
AcDbPolyline
 90
7
 70
1
 10
58.358976
 20
30.420683
 10
58.358976
 20
32.420683
 10
56.626927
 20
33.420683
 10
54.894876
 20
32.420683
 10
54.894876
 20
30.680379
 10
55.034174
 20
30.340259
 10
56.626927
 20
29.420683
  0
LWPOLYLINE
  5
B5
330
17
100
AcDbEntity
  8
Add_Red
  6
ByLayer
100
AcDbPolyline
 90
5
 70
1
 10
92.531237
 20
29.531247
 10
91.128125
 20
32.72116
 10
90.607684
 20
32.420683
 10
90.607684
 20
30.420683
 10
92.339735
 20
29.420683
  0
LWPOLYLINE
  5
B6
330
17
100
AcDbEntity
  8
Add_Red
  6
ByLayer
100
AcDbPolyline
 90
6
 70
1
 10
91.839741
 20
26.554658
 10
91.839741
 20
28.554658
 10
90.10769
 20
29.554658
 10
88.375639
 20
28.554658
 10
88.375639
 20
26.554658
 10
90.10769
 20
25.554657
  0
LWPOLYLINE
  5
B7
330
17
100
AcDbEntity
  8
Add_Red
  6
ByLayer
100
AcDbPolyline
 90
6
 70
1
 10
87.375639
 20
26.554658
 10
87.375639
 20
28.554658
 10
85.643588
 20
29.554658
 10
83.911537
 20
28.554658
 10
83.911537
 20
26.554658
 10
85.643588
 20
25.554657
  0
LWPOLYLINE
  5
B8
330
17
100
AcDbEntity
  8
Add_Red
  6
ByLayer
100
AcDbPolyline
 90
6
 70
1
 10
82.911538
 20
26.554658
 10
82.911538
 20
28.554658
 10
81.179487
 20
29.554658
 10
79.447437
 20
28.554658
 10
79.447437
 20
26.554658
 10
81.179487
 20
25.554657
  0
LWPOLYLINE
  5
B9
330
17
100
AcDbEntity
  8
Add_Red
  6
ByLayer
100
AcDbPolyline
 90
6
 70
1
 10
78.447437
 20
26.554658
 10
78.447437
 20
28.554658
 10
76.715387
 20
29.554658
 10
74.983336
 20
28.554658
 10
74.983336
 20
26.554658
 10
76.715387
 20
25.554657
  0
LWPOLYLINE
  5
BA
330
17
100
AcDbEntity
  8
Add_Red
  6
ByLayer
100
AcDbPolyline
 90
6
 70
1
 10
73.983336
 20
26.554658
 10
73.983336
 20
28.554658
 10
72.251285
 20
29.554658
 10
70.519234
 20
28.554658
 10
70.519234
 20
26.554658
 10
72.251285
 20
25.554657
  0
LWPOLYLINE
  5
BB
330
17
100
AcDbEntity
  8
Add_Red
  6
ByLayer
100
AcDbPolyline
 90
6
 70
1
 10
69.519235
 20
26.554658
 10
69.519235
 20
28.554658
 10
67.787185
 20
29.554658
 10
66.055134
 20
28.554658
 10
66.055134
 20
26.554658
 10
67.787185
 20
25.554657
  0
LWPOLYLINE
  5
BC
330
17
100
AcDbEntity
  8
Add_Red
  6
ByLayer
100
AcDbPolyline
 90
6
 70
1
 10
65.055134
 20
26.554658
 10
65.055134
 20
28.554658
 10
63.323083
 20
29.554658
 10
61.591032
 20
28.554658
 10
61.591032
 20
26.554658
 10
63.323083
 20
25.554657
  0
LWPOLYLINE
  5
BD
330
17
100
AcDbEntity
  8
Add_Red
  6
ByLayer
100
AcDbPolyline
 90
6
 70
1
 10
60.591033
 20
26.554658
 10
60.591033
 20
28.554658
 10
58.858982
 20
29.554658
 10
57.126932
 20
28.554658
 10
57.126932
 20
26.554658
 10
58.858982
 20
25.554657
  0
LWPOLYLINE
  5
BE
330
17
100
AcDbEntity
  8
Add_Red
  6
ByLayer
100
AcDbPolyline
 90
3
 70
1
 10
56.126932
 20
28.554658
 10
55.653539
 20
28.827972
 10
56.126932
 20
27.672101
  0
LWPOLYLINE
  5
BF
330
17
100
AcDbEntity
  8
Add_Red
  6
ByLayer
100
AcDbPolyline
 90
4
 70
1
 10
92.936281
 20
28.610396
 10
92.83974
 20
28.554658
 10
92.83974
 20
26.554658
 10
94.181178
 20
25.780178
  0
LWPOLYLINE
  5
C0
330
17
100
AcDbEntity
  8
Add_Red
  6
ByLayer
100
AcDbPolyline
 90
6
 70
1
 10
94.071817
 20
22.688632
 10
94.071817
 20
24.688632
 10
92.339767
 20
25.688633
 10
90.607716
 20
24.688632
 10
90.607716
 20
22.688632
 10
92.339767
 20
21.688632
  0
LWPOLYLINE
  5
C1
330
17
100
AcDbEntity
  8
Add_Red
  6
ByLayer
100
AcDbPolyline
 90
6
 70
1
 10
89.607717
 20
22.688632
 10
89.607717
 20
24.688632
 10
87.875666
 20
25.688633
 10
86.143615
 20
24.688632
 10
86.143615
 20
22.688632
 10
87.875666
 20
21.688632
  0
LWPOLYLINE
  5
C2
330
17
100
AcDbEntity
  8
Add_Red
  6
ByLayer
100
AcDbPolyline
 90
6
 70
1
 10
85.143615
 20
22.688632
 10
85.143615
 20
24.688632
 10
83.411564
 20
25.688633
 10
81.679513
 20
24.688632
 10
81.679513
 20
22.688632
 10
83.411564
 20
21.688632
  0
LWPOLYLINE
  5
C3
330
17
100
AcDbEntity
  8
Add_Red
  6
ByLayer
100
AcDbPolyline
 90
6
 70
1
 10
80.679514
 20
22.688632
 10
80.679514
 20
24.688632
 10
78.947464
 20
25.688633
 10
77.215413
 20
24.688632
 10
77.215413
 20
22.688632
 10
78.947464
 20
21.688632
  0
LWPOLYLINE
  5
C4
330
17
100
AcDbEntity
  8
Add_Red
  6
ByLayer
100
AcDbPolyline
 90
6
 70
1
 10
76.215413
 20
22.688632
 10
76.215413
 20
24.688632
 10
74.483363
 20
25.688633
 10
72.751312
 20
24.688632
 10
72.751312
 20
22.688632
 10
74.483363
 20
21.688632
  0
LWPOLYLINE
  5
C5
330
17
100
AcDbEntity
  8
Add_Red
  6
ByLayer
100
AcDbPolyline
 90
6
 70
1
 10
71.751312
 20
22.688632
 10
71.751312
 20
24.688632
 10
70.019261
 20
25.688633
 10
68.287211
 20
24.688632
 10
68.287211
 20
22.688632
 10
70.019261
 20
21.688632
  0
LWPOLYLINE
  5
C6
330
17
100
AcDbEntity
  8
Add_Red
  6
ByLayer
100
AcDbPolyline
 90
6
 70
1
 10
67.287212
 20
22.688632
 10
67.287212
 20
24.688632
 10
65.555161
 20
25.688633
 10
63.82311
 20
24.688632
 10
63.82311
 20
22.688632
 10
65.555161
 20
21.688632
  0
LWPOLYLINE
  5
C7
330
17
100
AcDbEntity
  8
Add_Red
  6
ByLayer
100
AcDbPolyline
 90
6
 70
1
 10
62.82311
 20
22.688632
 10
62.82311
 20
24.688632
 10
61.091059
 20
25.688633
 10
59.359008
 20
24.688632
 10
59.359008
 20
22.688632
 10
61.091059
 20
21.688632
  0
LWPOLYLINE
  5
C8
330
17
100
AcDbEntity
  8
Add_Red
  6
ByLayer
100
AcDbPolyline
 90
4
 70
1
 10
58.359009
 20
22.688632
 10
58.359009
 20
24.688632
 10
57.03599
 20
25.452479
 10
58.204478
 20
22.599413
  0
LWPOLYLINE
  5
C9
330
17
100
AcDbEntity
  8
Add_Red
  6
ByLayer
100
AcDbPolyline
 90
3
 70
1
 10
95.071817
 20
23.857086
 10
95.071817
 20
22.688632
 10
96.17445
 20
22.052027
  0
LWPOLYLINE
  5
CA
330
17
100
AcDbEntity
  8
Add_Red
  6
ByLayer
100
AcDbPolyline
 90
6
 70
1
 10
96.303873
 20
18.822606
 10
96.303873
 20
20.822606
 10
94.571823
 20
21.822606
 10
92.839773
 20
20.822606
 10
92.839773
 20
18.822606
 10
94.571823
 20
17.822606
  0
LWPOLYLINE
  5
CB
330
17
100
AcDbEntity
  8
Add_Red
  6
ByLayer
100
AcDbPolyline
 90
6
 70
1
 10
91.839773
 20
18.822606
 10
91.839773
 20
20.822606
 10
90.107722
 20
21.822606
 10
88.375671
 20
20.822606
 10
88.375671
 20
18.822606
 10
90.107722
 20
17.822606
  0
LWPOLYLINE
  5
CC
330
17
100
AcDbEntity
  8
Add_Red
  6
ByLayer
100
AcDbPolyline
 90
6
 70
1
 10
87.375672
 20
18.822606
 10
87.375672
 20
20.822606
 10
85.643621
 20
21.822606
 10
83.91157
 20
20.822606
 10
83.91157
 20
18.822606
 10
85.643621
 20
17.822606
  0
LWPOLYLINE
  5
CD
330
17
100
AcDbEntity
  8
Add_Red
  6
ByLayer
100
AcDbPolyline
 90
6
 70
1
 10
82.91157
 20
18.822606
 10
82.91157
 20
20.822606
 10
81.179519
 20
21.822606
 10
79.44747
 20
20.822606
 10
79.44747
 20
18.822606
 10
81.179519
 20
17.822606
  0
LWPOLYLINE
  5
CE
330
17
100
AcDbEntity
  8
Add_Red
  6
ByLayer
100
AcDbPolyline
 90
6
 70
1
 10
78.44747
 20
18.822606
 10
78.44747
 20
20.822606
 10
76.715419
 20
21.822606
 10
74.983368
 20
20.822606
 10
74.983368
 20
18.822606
 10
76.715419
 20
17.822606
  0
LWPOLYLINE
  5
CF
330
17
100
AcDbEntity
  8
Add_Red
  6
ByLayer
100
AcDbPolyline
 90
6
 70
1
 10
73.983368
 20
18.822606
 10
73.983368
 20
20.822606
 10
72.251318
 20
21.822606
 10
70.519267
 20
20.822606
 10
70.519267
 20
18.822606
 10
72.251318
 20
17.822606
  0
LWPOLYLINE
  5
D0
330
17
100
AcDbEntity
  8
Add_Red
  6
ByLayer
100
AcDbPolyline
 90
6
 70
1
 10
69.519267
 20
18.822606
 10
69.519267
 20
20.822606
 10
67.787217
 20
21.822606
 10
66.055166
 20
20.822606
 10
66.055166
 20
18.822606
 10
67.787217
 20
17.822606
  0
LWPOLYLINE
  5
D1
330
17
100
AcDbEntity
  8
Add_Red
  6
ByLayer
100
AcDbPolyline
 90
6
 70
1
 10
65.055167
 20
18.822606
 10
65.055167
 20
20.822606
 10
63.323116
 20
21.822606
 10
61.591065
 20
20.822606
 10
61.591065
 20
18.822606
 10
63.323116
 20
17.822606
  0
LWPOLYLINE
  5
D2
330
17
100
AcDbEntity
  8
Add_Red
  6
ByLayer
100
AcDbPolyline
 90
5
 70
1
 10
60.591065
 20
18.822606
 10
60.591065
 20
20.822606
 10
58.859014
 20
21.822606
 10
58.586954
 20
21.665532
 10
59.911885
 20
18.430482
  0
LWPOLYLINE
  5
D3
330
17
100
AcDbEntity
  8
Add_Red
  6
ByLayer
100
AcDbPolyline
 90
3
 70
1
 10
97.303873
 20
20.20311
 10
97.303873
 20
18.822606
 10
98.60661
 20
18.07047
  0
LWPOLYLINE
  5
D4
330
17
100
AcDbEntity
  8
Add_Red
  6
ByLayer
100
AcDbPolyline
 90
6
 70
1
 10
98.535951
 20
14.956581
 10
98.535951
 20
16.956581
 10
96.8039
 20
17.956581
 10
95.071849
 20
16.956581
 10
95.071849
 20
14.956581
 10
96.8039
 20
13.956581
  0
LWPOLYLINE
  5
D5
330
17
100
AcDbEntity
  8
Add_Red
  6
ByLayer
100
AcDbPolyline
 90
6
 70
1
 10
94.071849
 20
14.956581
 10
94.071849
 20
16.956581
 10
92.3398
 20
17.956581
 10
90.607749
 20
16.956581
 10
90.607749
 20
14.956581
 10
92.3398
 20
13.956581
  0
LWPOLYLINE
  5
D6
330
17
100
AcDbEntity
  8
Add_Red
  6
ByLayer
100
AcDbPolyline
 90
6
 70
1
 10
89.607749
 20
14.956581
 10
89.607749
 20
16.956581
 10
87.875698
 20
17.956581
 10
86.143647
 20
16.956581
 10
86.143647
 20
14.956581
 10
87.875698
 20
13.956581
  0
LWPOLYLINE
  5
D7
330
17
100
AcDbEntity
  8
Add_Red
  6
ByLayer
100
AcDbPolyline
 90
6
 70
1
 10
85.143648
 20
14.956581
 10
85.143648
 20
16.956581
 10
83.411597
 20
17.956581
 10
81.679546
 20
16.956581
 10
81.679546
 20
14.956581
 10
83.411597
 20
13.956581
  0
LWPOLYLINE
  5
D8
330
17
100
AcDbEntity
  8
Add_Red
  6
ByLayer
100
AcDbPolyline
 90
6
 70
1
 10
80.679546
 20
14.956581
 10
80.679546
 20
16.956581
 10
78.947496
 20
17.956581
 10
77.215446
 20
16.956581
 10
77.215446
 20
14.956581
 10
78.947496
 20
13.956581
  0
LWPOLYLINE
  5
D9
330
17
100
AcDbEntity
  8
Add_Red
  6
ByLayer
100
AcDbPolyline
 90
6
 70
1
 10
76.215446
 20
14.956581
 10
76.215446
 20
16.956581
 10
74.483395
 20
17.956581
 10
72.751344
 20
16.956581
 10
72.751344
 20
14.956581
 10
74.483395
 20
13.956581
  0
LWPOLYLINE
  5
DA
330
17
100
AcDbEntity
  8
Add_Red
  6
ByLayer
100
AcDbPolyline
 90
6
 70
1
 10
71.751344
 20
14.956581
 10
71.751344
 20
16.956581
 10
70.019294
 20
17.956581
 10
68.287244
 20
16.956581
 10
68.287244
 20
14.956581
 10
70.019294
 20
13.956581
  0
LWPOLYLINE
  5
DB
330
17
100
AcDbEntity
  8
Add_Red
  6
ByLayer
100
AcDbPolyline
 90
6
 70
1
 10
67.287244
 20
14.956581
 10
67.287244
 20
16.956581
 10
65.555193
 20
17.956581
 10
63.823142
 20
16.956581
 10
63.823142
 20
14.956581
 10
65.555193
 20
13.956581
  0
LWPOLYLINE
  5
DC
330
17
100
AcDbEntity
  8
Add_Red
  6
ByLayer
100
AcDbPolyline
 90
5
 70
1
 10
62.823143
 20
14.956581
 10
62.823143
 20
16.956581
 10
61.091092
 20
17.956581
 10
60.294365
 20
17.496591
 10
61.619297
 20
14.26154
  0
LWPOLYLINE
  5
DD
330
17
100
AcDbEntity
  8
Add_Red
  6
ByLayer
100
AcDbPolyline
 90
4
 70
1
 10
99.758189
 20
16.185284
 10
99.53595
 20
16.549099
 10
99.53595
 20
14.956581
 10
100.653786
 20
14.311198
  0
LWPOLYLINE
  5
DE
330
17
100
AcDbEntity
  8
Add_Red
  6
ByLayer
100
AcDbPolyline
 90
6
 70
1
 10
100.768007
 20
11.090554
 10
100.768007
 20
13.090555
 10
99.035956
 20
14.090555
 10
97.303906
 20
13.090555
 10
97.303906
 20
11.090554
 10
99.035956
 20
10.090554
  0
LWPOLYLINE
  5
DF
330
17
100
AcDbEntity
  8
Add_Red
  6
ByLayer
100
AcDbPolyline
 90
6
 70
1
 10
96.303906
 20
11.090554
 10
96.303906
 20
13.090555
 10
94.571855
 20
14.090555
 10
92.839805
 20
13.090555
 10
92.839805
 20
11.090554
 10
94.571855
 20
10.090554
  0
LWPOLYLINE
  5
E0
330
17
100
AcDbEntity
  8
Add_Red
  6
ByLayer
100
AcDbPolyline
 90
6
 70
1
 10
91.839805
 20
11.090554
 10
91.839805
 20
13.090555
 10
90.107755
 20
14.090555
 10
88.375704
 20
13.090555
 10
88.375704
 20
11.090554
 10
90.107755
 20
10.090554
  0
LWPOLYLINE
  5
E1
330
17
100
AcDbEntity
  8
Add_Red
  6
ByLayer
100
AcDbPolyline
 90
6
 70
1
 10
87.375704
 20
11.090554
 10
87.375704
 20
13.090555
 10
85.643653
 20
14.090555
 10
83.911602
 20
13.090555
 10
83.911602
 20
11.090554
 10
85.643653
 20
10.090554
  0
LWPOLYLINE
  5
E2
330
17
100
AcDbEntity
  8
Add_Red
  6
ByLayer
100
AcDbPolyline
 90
6
 70
1
 10
82.911603
 20
11.090554
 10
82.911603
 20
13.090555
 10
81.179552
 20
14.090555
 10
79.447502
 20
13.090555
 10
79.447502
 20
11.090554
 10
81.179552
 20
10.090554
  0
LWPOLYLINE
  5
E3
330
17
100
AcDbEntity
  8
Add_Red
  6
ByLayer
100
AcDbPolyline
 90
6
 70
1
 10
78.447502
 20
11.090554
 10
78.447502
 20
13.090555
 10
76.715451
 20
14.090555
 10
74.983401
 20
13.090555
 10
74.983401
 20
11.090554
 10
76.715451
 20
10.090554
  0
LWPOLYLINE
  5
E4
330
17
100
AcDbEntity
  8
Add_Red
  6
ByLayer
100
AcDbPolyline
 90
6
 70
1
 10
73.983401
 20
11.090554
 10
73.983401
 20
13.090555
 10
72.25135
 20
14.090555
 10
70.519299
 20
13.090555
 10
70.519299
 20
11.090554
 10
72.25135
 20
10.090554
  0
LWPOLYLINE
  5
E5
330
17
100
AcDbEntity
  8
Add_Red
  6
ByLayer
100
AcDbPolyline
 90
6
 70
1
 10
69.519299
 20
11.090554
 10
69.519299
 20
13.090555
 10
67.78725
 20
14.090555
 10
66.055199
 20
13.090555
 10
66.055199
 20
11.090554
 10
67.78725
 20
10.090554
  0
LWPOLYLINE
  5
E6
330
17
100
AcDbEntity
  8
Add_Red
  6
ByLayer
100
AcDbPolyline
 90
5
 70
1
 10
65.055199
 20
11.090554
 10
65.055199
 20
13.090555
 10
63.323148
 20
14.090555
 10
62.001773
 20
13.327659
 10
63.326705
 20
10.092608
  0
LWPOLYLINE
  5
E7
330
17
100
AcDbEntity
  8
Add_Red
  6
ByLayer
100
AcDbPolyline
 90
3
 70
1
 10
101.768007
 20
11.97963
 10
101.768007
 20
11.090554
 10
102.354777
 20
10.751782
  0
LWPOLYLINE
  5
E8
330
17
100
AcDbEntity
  8
Add_Red
  6
ByLayer
100
AcDbPolyline
 90
6
 70
1
 10
103.000085
 20
7.224529
 10
103.000085
 20
9.224529
 10
101.268034
 20
10.224529
 10
99.535983
 20
9.224529
 10
99.535983
 20
7.224529
 10
101.268034
 20
6.224529
  0
LWPOLYLINE
  5
E9
330
17
100
AcDbEntity
  8
Add_Red
  6
ByLayer
100
AcDbPolyline
 90
6
 70
1
 10
98.535983
 20
7.224529
 10
98.535983
 20
9.224529
 10
96.803932
 20
10.224529
 10
95.071882
 20
9.224529
 10
95.071882
 20
7.224529
 10
96.803932
 20
6.224529
  0
LWPOLYLINE
  5
EA
330
17
100
AcDbEntity
  8
Add_Red
  6
ByLayer
100
AcDbPolyline
 90
6
 70
1
 10
94.071882
 20
7.224529
 10
94.071882
 20
9.224529
 10
92.339832
 20
10.224529
 10
90.607781
 20
9.224529
 10
90.607781
 20
7.224529
 10
92.339832
 20
6.224529
  0
LWPOLYLINE
  5
EB
330
17
100
AcDbEntity
  8
Add_Red
  6
ByLayer
100
AcDbPolyline
 90
6
 70
1
 10
89.607781
 20
7.224529
 10
89.607781
 20
9.224529
 10
87.875731
 20
10.224529
 10
86.14368
 20
9.224529
 10
86.14368
 20
7.224529
 10
87.875731
 20
6.224529
  0
LWPOLYLINE
  5
EC
330
17
100
AcDbEntity
  8
Add_Red
  6
ByLayer
100
AcDbPolyline
 90
6
 70
1
 10
85.14368
 20
7.224529
 10
85.14368
 20
9.224529
 10
83.411629
 20
10.224529
 10
81.679578
 20
9.224529
 10
81.679578
 20
7.224529
 10
83.411629
 20
6.224529
  0
LWPOLYLINE
  5
ED
330
17
100
AcDbEntity
  8
Add_Red
  6
ByLayer
100
AcDbPolyline
 90
6
 70
1
 10
80.679579
 20
7.224529
 10
80.679579
 20
9.224529
 10
78.947529
 20
10.224529
 10
77.215478
 20
9.224529
 10
77.215478
 20
7.224529
 10
78.947529
 20
6.224529
  0
LWPOLYLINE
  5
EE
330
17
100
AcDbEntity
  8
Add_Red
  6
ByLayer
100
AcDbPolyline
 90
6
 70
1
 10
76.215478
 20
7.224529
 10
76.215478
 20
9.224529
 10
74.483427
 20
10.224529
 10
72.751377
 20
9.224529
 10
72.751377
 20
7.224529
 10
74.483427
 20
6.224529
  0
LWPOLYLINE
  5
EF
330
17
100
AcDbEntity
  8
Add_Red
  6
ByLayer
100
AcDbPolyline
 90
6
 70
1
 10
71.751377
 20
7.224529
 10
71.751377
 20
9.224529
 10
70.019326
 20
10.224529
 10
68.287276
 20
9.224529
 10
68.287276
 20
7.224529
 10
70.019326
 20
6.224529
  0
LWPOLYLINE
  5
F0
330
17
100
AcDbEntity
  8
Add_Red
  6
ByLayer
100
AcDbPolyline
 90
7
 70
1
 10
67.287276
 20
7.224529
 10
67.287276
 20
9.224529
 10
65.555226
 20
10.224529
 10
63.823175
 20
9.224529
 10
63.823175
 20
8.88039
 10
64.711359
 20
6.711736
 10
65.555226
 20
6.224529
  0
LWPOLYLINE
  5
F1
330
17
100
AcDbEntity
  8
Add_Red
  6
ByLayer
100
AcDbPolyline
 90
3
 70
1
 10
104.000084
 20
7.308887
 10
104.000084
 20
7.224529
 10
104.055758
 20
7.192385
  0
LWPOLYLINE
  5
F2
330
17
100
AcDbEntity
  8
Add_Red
  6
ByLayer
100
AcDbPolyline
 90
8
 70
1
 10
105.23214
 20
3.358504
 10
105.23214
 20
4.237813
 10
104.900408
 20
5.42491
 10
104.817832
 20
5.597705
 10
103.50009
 20
6.358504
 10
101.768039
 20
5.358504
 10
101.768039
 20
3.358504
 10
103.50009
 20
2.358504
  0
LWPOLYLINE
  5
F3
330
17
100
AcDbEntity
  8
Add_Red
  6
ByLayer
100
AcDbPolyline
 90
6
 70
1
 10
100.76804
 20
3.358504
 10
100.76804
 20
5.358504
 10
99.035989
 20
6.358504
 10
97.303938
 20
5.358504
 10
97.303938
 20
3.358504
 10
99.035989
 20
2.358504
  0
LWPOLYLINE
  5
F4
330
17
100
AcDbEntity
  8
Add_Red
  6
ByLayer
100
AcDbPolyline
 90
6
 70
1
 10
96.303938
 20
3.358504
 10
96.303938
 20
5.358504
 10
94.571887
 20
6.358504
 10
92.839838
 20
5.358504
 10
92.839838
 20
3.358504
 10
94.571887
 20
2.358504
  0
LWPOLYLINE
  5
F5
330
17
100
AcDbEntity
  8
Add_Red
  6
ByLayer
100
AcDbPolyline
 90
6
 70
1
 10
91.839838
 20
3.358504
 10
91.839838
 20
5.358504
 10
90.107787
 20
6.358504
 10
88.375736
 20
5.358504
 10
88.375736
 20
3.358504
 10
90.107787
 20
2.358504
  0
LWPOLYLINE
  5
F6
330
17
100
AcDbEntity
  8
Add_Red
  6
ByLayer
100
AcDbPolyline
 90
6
 70
1
 10
87.375736
 20
3.358504
 10
87.375736
 20
5.358504
 10
85.643686
 20
6.358504
 10
83.911635
 20
5.358504
 10
83.911635
 20
3.358504
 10
85.643686
 20
2.358504
  0
LWPOLYLINE
  5
F7
330
17
100
AcDbEntity
  8
Add_Red
  6
ByLayer
100
AcDbPolyline
 90
6
 70
1
 10
82.911635
 20
3.358504
 10
82.911635
 20
5.358504
 10
81.179584
 20
6.358504
 10
79.447534
 20
5.358504
 10
79.447534
 20
3.358504
 10
81.179584
 20
2.358504
  0
LWPOLYLINE
  5
F8
330
17
100
AcDbEntity
  8
Add_Red
  6
ByLayer
100
AcDbPolyline
 90
6
 70
1
 10
78.447535
 20
3.358504
 10
78.447535
 20
5.358504
 10
76.715484
 20
6.358504
 10
74.983433
 20
5.358504
 10
74.983433
 20
3.358504
 10
76.715484
 20
2.358504
  0
LWPOLYLINE
  5
F9
330
17
100
AcDbEntity
  8
Add_Red
  6
ByLayer
100
AcDbPolyline
 90
6
 70
1
 10
73.983433
 20
3.358504
 10
73.983433
 20
5.358504
 10
72.251382
 20
6.358504
 10
70.519332
 20
5.358504
 10
70.519332
 20
3.358504
 10
72.251382
 20
2.358504
  0
LWPOLYLINE
  5
FA
330
17
100
AcDbEntity
  8
Add_Red
  6
ByLayer
100
AcDbPolyline
 90
7
 70
1
 10
69.519332
 20
3.358504
 10
69.519332
 20
5.358504
 10
67.787282
 20
6.358504
 10
66.055231
 20
5.358504
 10
66.055231
 20
3.430439
 10
66.093816
 20
3.336227
 10
67.787282
 20
2.358504
  0
LWPOLYLINE
  5
FB
330
17
100
AcDbEntity
  8
Add_Red
  6
ByLayer
100
AcDbPolyline
 90
6
 70
1
 10
103.000117
 20
-0.507521
 10
103.000117
 20
1.492478
 10
101.268066
 20
2.492478
 10
99.536015
 20
1.492478
 10
99.536015
 20
-0.507521
 10
101.268066
 20
-1.507521
  0
LWPOLYLINE
  5
FC
330
17
100
AcDbEntity
  8
Add_Red
  6
ByLayer
100
AcDbPolyline
 90
6
 70
1
 10
98.536016
 20
-0.507521
 10
98.536016
 20
1.492478
 10
96.803965
 20
2.492478
 10
95.071914
 20
1.492478
 10
95.071914
 20
-0.507521
 10
96.803965
 20
-1.507521
  0
LWPOLYLINE
  5
FD
330
17
100
AcDbEntity
  8
Add_Red
  6
ByLayer
100
AcDbPolyline
 90
6
 70
1
 10
94.071914
 20
-0.507521
 10
94.071914
 20
1.492478
 10
92.339864
 20
2.492478
 10
90.607814
 20
1.492478
 10
90.607814
 20
-0.507521
 10
92.339864
 20
-1.507521
  0
LWPOLYLINE
  5
FE
330
17
100
AcDbEntity
  8
Add_Red
  6
ByLayer
100
AcDbPolyline
 90
6
 70
1
 10
89.607814
 20
-0.507521
 10
89.607814
 20
1.492478
 10
87.875763
 20
2.492478
 10
86.143712
 20
1.492478
 10
86.143712
 20
-0.507521
 10
87.875763
 20
-1.507521
  0
LWPOLYLINE
  5
FF
330
17
100
AcDbEntity
  8
Add_Red
  6
ByLayer
100
AcDbPolyline
 90
6
 70
1
 10
85.143712
 20
-0.507521
 10
85.143712
 20
1.492478
 10
83.411662
 20
2.492478
 10
81.679611
 20
1.492478
 10
81.679611
 20
-0.507521
 10
83.411662
 20
-1.507521
  0
LWPOLYLINE
  5
100
330
17
100
AcDbEntity
  8
Add_Red
  6
ByLayer
100
AcDbPolyline
 90
6
 70
1
 10
80.679611
 20
-0.507521
 10
80.679611
 20
1.492478
 10
78.947561
 20
2.492478
 10
77.21551
 20
1.492478
 10
77.21551
 20
-0.507521
 10
78.947561
 20
-1.507521
  0
LWPOLYLINE
  5
101
330
17
100
AcDbEntity
  8
Add_Red
  6
ByLayer
100
AcDbPolyline
 90
6
 70
1
 10
76.215511
 20
-0.507521
 10
76.215511
 20
1.492478
 10
74.48346
 20
2.492478
 10
72.751409
 20
1.492478
 10
72.751409
 20
-0.507521
 10
74.48346
 20
-1.507521
  0
LWPOLYLINE
  5
102
330
17
100
AcDbEntity
  8
Add_Red
  6
ByLayer
100
AcDbPolyline
 90
6
 70
1
 10
71.751409
 20
-0.507521
 10
71.751409
 20
1.492478
 10
70.019358
 20
2.492478
 10
68.287309
 20
1.492478
 10
68.287309
 20
-0.507521
 10
70.019358
 20
-1.507521
  0
LWPOLYLINE
  5
103
330
17
100
AcDbEntity
  8
Add_Red
  6
ByLayer
100
AcDbPolyline
 90
5
 70
1
 10
106.684082
 20
-0.957933
 10
105.721579
 20
2.486365
 10
104.000117
 20
1.492478
 10
104.000117
 20
-0.507521
 10
105.732167
 20
-1.507521
  0
LWPOLYLINE
  5
104
330
17
100
AcDbEntity
  8
Add_Red
  6
ByLayer
100
AcDbPolyline
 90
3
 70
1
 10
67.287309
 20
1.492478
 10
66.713175
 20
1.823954
 10
67.287309
 20
0.422107
  0
LWPOLYLINE
  5
105
330
17
100
AcDbEntity
  8
Add_Red
  6
ByLayer
100
AcDbPolyline
 90
6
 70
1
 10
105.232172
 20
-4.373547
 10
105.232172
 20
-2.373546
 10
103.500123
 20
-1.373546
 10
101.768072
 20
-2.373546
 10
101.768072
 20
-4.373547
 10
103.500123
 20
-5.373547
  0
LWPOLYLINE
  5
106
330
17
100
AcDbEntity
  8
Add_Red
  6
ByLayer
100
AcDbPolyline
 90
6
 70
1
 10
100.768072
 20
-4.373547
 10
100.768072
 20
-2.373546
 10
99.036021
 20
-1.373546
 10
97.30397
 20
-2.373546
 10
97.30397
 20
-4.373547
 10
99.036021
 20
-5.373547
  0
LWPOLYLINE
  5
107
330
17
100
AcDbEntity
  8
Add_Red
  6
ByLayer
100
AcDbPolyline
 90
6
 70
1
 10
96.303971
 20
-4.373547
 10
96.303971
 20
-2.373546
 10
94.57192
 20
-1.373546
 10
92.83987
 20
-2.373546
 10
92.83987
 20
-4.373547
 10
94.57192
 20
-5.373547
  0
LWPOLYLINE
  5
108
330
17
100
AcDbEntity
  8
Add_Red
  6
ByLayer
100
AcDbPolyline
 90
6
 70
1
 10
91.83987
 20
-4.373547
 10
91.83987
 20
-2.373546
 10
90.107819
 20
-1.373546
 10
88.375769
 20
-2.373546
 10
88.375769
 20
-4.373547
 10
90.107819
 20
-5.373547
  0
LWPOLYLINE
  5
109
330
17
100
AcDbEntity
  8
Add_Red
  6
ByLayer
100
AcDbPolyline
 90
6
 70
1
 10
87.375769
 20
-4.373547
 10
87.375769
 20
-2.373546
 10
85.643718
 20
-1.373546
 10
83.911667
 20
-2.373546
 10
83.911667
 20
-4.373547
 10
85.643718
 20
-5.373547
  0
LWPOLYLINE
  5
10A
330
17
100
AcDbEntity
  8
Add_Red
  6
ByLayer
100
AcDbPolyline
 90
6
 70
1
 10
82.911667
 20
-4.373547
 10
82.911667
 20
-2.373546
 10
81.179617
 20
-1.373546
 10
79.447567
 20
-2.373546
 10
79.447567
 20
-4.373547
 10
81.179617
 20
-5.373547
  0
LWPOLYLINE
  5
10B
330
17
100
AcDbEntity
  8
Add_Red
  6
ByLayer
100
AcDbPolyline
 90
6
 70
1
 10
78.447567
 20
-4.373547
 10
78.447567
 20
-2.373546
 10
76.715516
 20
-1.373546
 10
74.983465
 20
-2.373546
 10
74.983465
 20
-4.373547
 10
76.715516
 20
-5.373547
  0
LWPOLYLINE
  5
10C
330
17
100
AcDbEntity
  8
Add_Red
  6
ByLayer
100
AcDbPolyline
 90
6
 70
1
 10
73.983466
 20
-4.373547
 10
73.983466
 20
-2.373546
 10
72.251415
 20
-1.373546
 10
70.519364
 20
-2.373546
 10
70.519364
 20
-4.373547
 10
72.251415
 20
-5.373547
  0
LWPOLYLINE
  5
10D
330
17
100
AcDbEntity
  8
Add_Red
  6
ByLayer
100
AcDbPolyline
 90
4
 70
1
 10
69.519364
 20
-4.373547
 10
69.519364
 20
-2.373546
 10
68.095632
 20
-1.551553
 10
69.30264
 20
-4.498673
  0
LWPOLYLINE
  5
10E
330
17
100
AcDbEntity
  8
Add_Red
  6
ByLayer
100
AcDbPolyline
 90
4
 70
1
 10
106.961933
 20
-1.952218
 10
106.232172
 20
-2.373546
 10
106.232172
 20
-4.373547
 10
107.909128
 20
-5.341738
  0
LWPOLYLINE
  5
10F
330
17
100
AcDbEntity
  8
Add_Red
  6
ByLayer
100
AcDbPolyline
 90
6
 70
1
 10
107.46425
 20
-8.239573
 10
107.46425
 20
-6.239573
 10
105.732199
 20
-5.239573
 10
104.000149
 20
-6.239573
 10
104.000149
 20
-8.239573
 10
105.732199
 20
-9.239573
  0
LWPOLYLINE
  5
110
330
17
100
AcDbEntity
  8
Add_Red
  6
ByLayer
100
AcDbPolyline
 90
6
 70
1
 10
103.000149
 20
-8.239573
 10
103.000149
 20
-6.239573
 10
101.268099
 20
-5.239573
 10
99.536048
 20
-6.239573
 10
99.536048
 20
-8.239573
 10
101.268099
 20
-9.239573
  0
LWPOLYLINE
  5
111
330
17
100
AcDbEntity
  8
Add_Red
  6
ByLayer
100
AcDbPolyline
 90
6
 70
1
 10
98.536048
 20
-8.239573
 10
98.536048
 20
-6.239573
 10
96.803997
 20
-5.239573
 10
95.071946
 20
-6.239573
 10
95.071946
 20
-8.239573
 10
96.803997
 20
-9.239573
  0
LWPOLYLINE
  5
112
330
17
100
AcDbEntity
  8
Add_Red
  6
ByLayer
100
AcDbPolyline
 90
6
 70
1
 10
94.071947
 20
-8.239573
 10
94.071947
 20
-6.239573
 10
92.339897
 20
-5.239573
 10
90.607846
 20
-6.239573
 10
90.607846
 20
-8.239573
 10
92.339897
 20
-9.239573
  0
LWPOLYLINE
  5
113
330
17
100
AcDbEntity
  8
Add_Red
  6
ByLayer
100
AcDbPolyline
 90
6
 70
1
 10
89.607846
 20
-8.239573
 10
89.607846
 20
-6.239573
 10
87.875795
 20
-5.239573
 10
86.143745
 20
-6.239573
 10
86.143745
 20
-8.239573
 10
87.875795
 20
-9.239573
  0
LWPOLYLINE
  5
114
330
17
100
AcDbEntity
  8
Add_Red
  6
ByLayer
100
AcDbPolyline
 90
6
 70
1
 10
85.143745
 20
-8.239573
 10
85.143745
 20
-6.239573
 10
83.411694
 20
-5.239573
 10
81.679643
 20
-6.239573
 10
81.679643
 20
-8.239573
 10
83.411694
 20
-9.239573
  0
LWPOLYLINE
  5
115
330
17
100
AcDbEntity
  8
Add_Red
  6
ByLayer
100
AcDbPolyline
 90
6
 70
1
 10
80.679644
 20
-8.239573
 10
80.679644
 20
-6.239573
 10
78.947594
 20
-5.239573
 10
77.215543
 20
-6.239573
 10
77.215543
 20
-8.239573
 10
78.947594
 20
-9.239573
  0
LWPOLYLINE
  5
116
330
17
100
AcDbEntity
  8
Add_Red
  6
ByLayer
100
AcDbPolyline
 90
6
 70
1
 10
76.215543
 20
-8.239573
 10
76.215543
 20
-6.239573
 10
74.483492
 20
-5.239573
 10
72.751441
 20
-6.239573
 10
72.751441
 20
-8.239573
 10
74.483492
 20
-9.239573
  0
LWPOLYLINE
  5
117
330
17
100
AcDbEntity
  8
Add_Red
  6
ByLayer
100
AcDbPolyline
 90
5
 70
1
 10
71.751442
 20
-8.239573
 10
71.751442
 20
-6.239573
 10
70.019391
 20
-5.239573
 10
69.68512
 20
-5.432564
 10
71.010052
 20
-8.667615
  0
LWPOLYLINE
  5
118
330
17
100
AcDbEntity
  8
Add_Red
  6
ByLayer
100
AcDbPolyline
 90
3
 70
1
 10
108.46425
 20
-7.328232
 10
108.46425
 20
-8.239573
 10
108.767916
 20
-8.414895
  0
LWPOLYLINE
  5
119
330
17
100
AcDbEntity
  8
Add_Red
  6
ByLayer
100
AcDbPolyline
 90
6
 70
1
 10
107.662553
 20
-12.076028
 10
108.569657
 20
-9.455127
 10
107.964255
 20
-9.105598
 10
106.232205
 20
-10.105598
 10
106.232205
 20
-12.105598
 10
106.959658
 20
-12.525593
  0
LWPOLYLINE
  5
11A
330
17
100
AcDbEntity
  8
Add_Red
  6
ByLayer
100
AcDbPolyline
 90
6
 70
1
 10
105.232205
 20
-12.105598
 10
105.232205
 20
-10.105598
 10
103.500155
 20
-9.105598
 10
101.768104
 20
-10.105598
 10
101.768104
 20
-12.105598
 10
103.500155
 20
-13.105598
  0
LWPOLYLINE
  5
11B
330
17
100
AcDbEntity
  8
Add_Red
  6
ByLayer
100
AcDbPolyline
 90
6
 70
1
 10
100.768104
 20
-12.105598
 10
100.768104
 20
-10.105598
 10
99.036054
 20
-9.105598
 10
97.304003
 20
-10.105598
 10
97.304003
 20
-12.105598
 10
99.036054
 20
-13.105598
  0
LWPOLYLINE
  5
11C
330
17
100
AcDbEntity
  8
Add_Red
  6
ByLayer
100
AcDbPolyline
 90
6
 70
1
 10
96.304003
 20
-12.105598
 10
96.304003
 20
-10.105598
 10
94.571952
 20
-9.105598
 10
92.839902
 20
-10.105598
 10
92.839902
 20
-12.105598
 10
94.571952
 20
-13.105598
  0
LWPOLYLINE
  5
11D
330
17
100
AcDbEntity
  8
Add_Red
  6
ByLayer
100
AcDbPolyline
 90
6
 70
1
 10
91.839903
 20
-12.105598
 10
91.839903
 20
-10.105598
 10
90.107852
 20
-9.105598
 10
88.375801
 20
-10.105598
 10
88.375801
 20
-12.105598
 10
90.107852
 20
-13.105598
  0
LWPOLYLINE
  5
11E
330
17
100
AcDbEntity
  8
Add_Red
  6
ByLayer
100
AcDbPolyline
 90
6
 70
1
 10
87.375801
 20
-12.105598
 10
87.375801
 20
-10.105598
 10
85.64375
 20
-9.105598
 10
83.9117
 20
-10.105598
 10
83.9117
 20
-12.105598
 10
85.64375
 20
-13.105598
  0
LWPOLYLINE
  5
11F
330
17
100
AcDbEntity
  8
Add_Red
  6
ByLayer
100
AcDbPolyline
 90
6
 70
1
 10
82.9117
 20
-12.105598
 10
82.9117
 20
-10.105598
 10
81.179649
 20
-9.105598
 10
79.447599
 20
-10.105598
 10
79.447599
 20
-12.105598
 10
81.179649
 20
-13.105598
  0
LWPOLYLINE
  5
120
330
17
100
AcDbEntity
  8
Add_Red
  6
ByLayer
100
AcDbPolyline
 90
6
 70
1
 10
78.447599
 20
-12.105598
 10
78.447599
 20
-10.105598
 10
76.715549
 20
-9.105598
 10
74.983498
 20
-10.105598
 10
74.983498
 20
-12.105598
 10
76.715549
 20
-13.105598
  0
LWPOLYLINE
  5
121
330
17
100
AcDbEntity
  8
Add_Red
  6
ByLayer
100
AcDbPolyline
 90
5
 70
1
 10
73.983498
 20
-12.105598
 10
73.983498
 20
-10.105598
 10
72.251447
 20
-9.105598
 10
71.392527
 20
-9.601495
 10
72.717459
 20
-12.836546
  0
LWPOLYLINE
  5
122
330
17
100
AcDbEntity
  8
Add_Red
  6
ByLayer
100
AcDbPolyline
 90
5
 70
1
 10
104.707968
 20
-13.965752
 10
106.010814
 20
-13.132464
 10
105.732231
 20
-12.971624
 10
104.000182
 20
-13.971624
 10
104.000182
 20
-14.023017
  0
LWPOLYLINE
  5
123
330
17
100
AcDbEntity
  8
Add_Red
  6
ByLayer
100
AcDbPolyline
 90
5
 70
1
 10
103.000182
 20
-14.103924
 10
103.000182
 20
-13.971624
 10
101.268131
 20
-12.971624
 10
99.53608
 20
-13.971624
 10
99.53608
 20
-14.384195
  0
LWPOLYLINE
  5
124
330
17
100
AcDbEntity
  8
Add_Red
  6
ByLayer
100
AcDbPolyline
 90
5
 70
1
 10
98.536081
 20
-14.465102
 10
98.536081
 20
-13.971624
 10
96.80403
 20
-12.971624
 10
95.071979
 20
-13.971624
 10
95.071979
 20
-14.745373
  0
LWPOLYLINE
  5
125
330
17
100
AcDbEntity
  8
Add_Red
  6
ByLayer
100
AcDbPolyline
 90
5
 70
1
 10
94.071979
 20
-14.82628
 10
94.071979
 20
-13.971624
 10
92.339929
 20
-12.971624
 10
90.607878
 20
-13.971624
 10
90.607878
 20
-15.106551
  0
LWPOLYLINE
  5
126
330
17
100
AcDbEntity
  8
Add_Red
  6
ByLayer
100
AcDbPolyline
 90
5
 70
1
 10
89.607879
 20
-15.187458
 10
89.607879
 20
-13.971624
 10
87.875828
 20
-12.971624
 10
86.143777
 20
-13.971624
 10
86.143777
 20
-15.467728
  0
LWPOLYLINE
  5
127
330
17
100
AcDbEntity
  8
Add_Red
  6
ByLayer
100
AcDbPolyline
 90
5
 70
1
 10
85.143777
 20
-15.548636
 10
85.143777
 20
-13.971624
 10
83.411726
 20
-12.971624
 10
81.679676
 20
-13.971624
 10
81.679676
 20
-15.828906
  0
LWPOLYLINE
  5
128
330
17
100
AcDbEntity
  8
Add_Red
  6
ByLayer
100
AcDbPolyline
 90
6
 70
1
 10
80.679676
 20
-15.909813
 10
80.679676
 20
-13.971624
 10
78.947626
 20
-12.971624
 10
77.215575
 20
-13.971624
 10
77.215575
 20
-15.971624
 10
77.547451
 20
-16.163233
  0
LWPOLYLINE
  5
129
330
17
100
AcDbEntity
  8
Add_Red
  6
ByLayer
100
AcDbPolyline
 90
6
 70
1
 10
75.612552
 20
-16.31978
 10
76.215576
 20
-15.971624
 10
76.215576
 20
-13.971624
 10
74.483525
 20
-12.971624
 10
73.099939
 20
-13.770437
 10
74.191136
 20
-16.434783
  0
VIEWPORT
  5
12E
330
12A
100
AcDbEntity
 67
1
  8
0
  6
ByLayer
100
AcDbViewport
 10
0.0
 20
0.0
 30
0.0
 40
297.0
 41
210.0
 68
1
 69
1
 12
50.0
 22
100.0
 13
0.0
 23
0.0
 14
10.0
 24
10.0
 15
10.0
 25
10.0
 16
0.0
 26
0.0
 36
1.0
 17
0.0
 27
0.0
 37
0.0
 42
50.0
 43
0.0
 44
0.0
 45
250.0
 50
0.0
 51
0.0
 72
1000
 90
819232
  1

281
0
 71
0
 74
0
110
0.0
120
0.0
130
0.0
111
1.0
121
0.0
131
0.0
112
0.0
122
1.0
132
0.0
 79
0
146
0.0
  0
ENDSEC
  0
SECTION
  2
OBJECTS
  0
DICTIONARY
  5
131
330
0
100
AcDbDictionary
281
1
  3
ACAD_GROUP
350
132
  3
ACAD_LAYOUT
350
133
  3
ACAD_MLINESTYLE
350
134
  3
ACAD_COLOR
350
136
  3
ACAD_MATERIAL
350
137
  3
ACAD_MLEADERSTYLE
350
138
  3
ACAD_PLOTSETTINGS
350
139
  3
ACAD_PLOTSTYLENAME
350
13A
  3
ACAD_SCALELIST
350
13C
  3
ACAD_TABLESTYLE
350
13D
  3
ACAD_VISUALSTYLE
350
13E
  3
EZDXF_META
350
146
  0
DICTIONARY
  5
132
330
131
100
AcDbDictionary
281
1
  0
DICTIONARY
  5
133
330
131
100
AcDbDictionary
281
1
  3
Model
350
1B
  3
Layout1
350
12F
  0
DICTIONARY
  5
134
330
131
100
AcDbDictionary
281
1
  3
Standard
350
16
  0
LAYOUT
  5
1B
330
133
100
AcDbPlotSettings
  1

  2
none_device
  4
ISO_A4_(210.00_x_297.00_MM)
  6

 40
7.5
 41
20.0
 42
7.5
 43
20.0
 44
210.0
 45
297.0
 46
0.0
 47
0.0
 48
0.0
 49
0.0
140
0.0
141
0.0
142
1.0
143
1.0
 70
11952
 72
1
 73
1
 74
5
  7

 75
16
 76
0
 77
2
 78
300
147
1.0
148
0.0
149
0.0
100
AcDbLayout
  1
Model
 70
1
 71
0
 10
-20.0
 20
-7.5
 11
277.0
 21
202.5
 12
0.0
 22
0.0
 32
0.0
 14
25.7
 24
19.5
 34
0.0
 15
231.3
 25
175.5
 35
0.0
146
0.0
 13
0.0
 23
0.0
 33
0.0
 16
1.0
 26
0.0
 36
0.0
 17
0.0
 27
1.0
 37
0.0
 76
0
330
17
  0
LAYOUT
  5
12F
330
133
100
AcDbPlotSettings
  1

  2
none_device
  4
ISO_A4_(210.00_x_297.00_MM)
  6

 40
7.5
 41
20.0
 42
7.5
 43
20.0
 44
210.0
 45
297.0
 46
0.0
 47
0.0
 48
0.0
 49
0.0
140
0.0
141
0.0
142
1.0
143
1.0
 70
688
 72
1
 73
1
 74
5
  7

 75
16
 76
0
 77
2
 78
300
147
1.0
148
0.0
149
0.0
100
AcDbLayout
  1
Layout1
 70
1
 71
1
 10
-20.0
 20
-7.5
 11
277.0
 21
202.5
 12
0.0
 22
0.0
 32
0.0
 14
25.7
 24
19.5
 34
0.0
 15
231.3
 25
175.5
 35
0.0
146
0.0
 13
0.0
 23
0.0
 33
0.0
 16
1.0
 26
0.0
 36
0.0
 17
0.0
 27
1.0
 37
0.0
 76
0
330
12A
  0
MLINESTYLE
  5
16
330
134
100
AcDbMlineStyle
  2
Standard
 70
0
  3

 62
256
 51
90.0
 52
90.0
 71
2
 49
0.5
 62
256
  6
ByLayer
 49
-0.5
 62
256
  6
ByLayer
  0
DICTIONARY
  5
136
330
131
100
AcDbDictionary
281
1
  0
DICTIONARY
  5
137
330
131
100
AcDbDictionary
281
1
  3
ByBlock
350
13F
  3
ByLayer
350
140
  3
Global
350
141
  0
DICTIONARY
  5
138
330
131
100
AcDbDictionary
281
1
  3
Standard
350
143
  0
DICTIONARY
  5
139
330
131
100
AcDbDictionary
281
1
  0
ACDBDICTIONARYWDFLT
  5
13A
330
131
100
AcDbDictionary
281
1
  3
Normal
350
13B
100
AcDbDictionaryWithDefault
340
13B
  0
ACDBPLACEHOLDER
  5
13B
330
13A
  0
DICTIONARY
  5
13C
330
131
100
AcDbDictionary
281
1
  0
DICTIONARY
  5
13D
330
131
100
AcDbDictionary
281
1
  0
DICTIONARY
  5
13E
330
131
100
AcDbDictionary
281
1
  0
MATERIAL
  5
13F
102
{ACAD_REACTORS
330
137
102
}
330
137
100
AcDbMaterial
  1
ByBlock
  2

 70
0
 40
1.0
 71
1
 41
1.0
 91
-1023410177
 42
1.0
 72
1
  3

 73
1
 74
1
 75
1
 44
0.5
 73
0
 45
1.0
 46
1.0
 77
1
  4

 78
1
 79
1
170
1
 48
1.0
171
1
  6

172
1
173
1
174
1
140
1.0
141
1.0
175
1
  7

176
1
177
1
178
1
143
1.0
179
1
  8

270
1
271
1
272
1
145
1.0
146
1.0
273
1
  9

274
1
275
1
276
1
 42
1.0
 72
1
  3

 73
1
 74
1
 75
1
 94
63
  0
MATERIAL
  5
140
102
{ACAD_REACTORS
330
137
102
}
330
137
100
AcDbMaterial
  1
ByLayer
  2

 70
0
 40
1.0
 71
1
 41
1.0
 91
-1023410177
 42
1.0
 72
1
  3

 73
1
 74
1
 75
1
 44
0.5
 73
0
 45
1.0
 46
1.0
 77
1
  4

 78
1
 79
1
170
1
 48
1.0
171
1
  6

172
1
173
1
174
1
140
1.0
141
1.0
175
1
  7

176
1
177
1
178
1
143
1.0
179
1
  8

270
1
271
1
272
1
145
1.0
146
1.0
273
1
  9

274
1
275
1
276
1
 42
1.0
 72
1
  3

 73
1
 74
1
 75
1
 94
63
  0
MATERIAL
  5
141
102
{ACAD_REACTORS
330
137
102
}
330
137
100
AcDbMaterial
  1
Global
  2

 70
0
 40
1.0
 71
1
 41
1.0
 91
-1023410177
 42
1.0
 72
1
  3

 73
1
 74
1
 75
1
 44
0.5
 73
0
 45
1.0
 46
1.0
 77
1
  4

 78
1
 79
1
170
1
 48
1.0
171
1
  6

172
1
173
1
174
1
140
1.0
141
1.0
175
1
  7

176
1
177
1
178
1
143
1.0
179
1
  8

270
1
271
1
272
1
145
1.0
146
1.0
273
1
  9

274
1
275
1
276
1
 42
1.0
 72
1
  3

 73
1
 74
1
 75
1
 94
63
  0
MLEADERSTYLE
  5
143
102
{ACAD_REACTORS
330
138
102
}
330
138
100
AcDbMLeaderStyle
179
2
170
2
171
1
172
0
 90
2
 40
0.0
 41
0.0
173
1
 91
-1056964608
 92
-2
290
1
 42
2.0
291
1
 43
8.0
  3
Standard
 44
4.0
300

342
13
174
1
175
1
176
0
178
1
 93
-1056964608
 45
4.0
292
0
297
0
 46
4.0
 94
-1056964608
 47
1.0
 49
1.0
140
1.0
294
1
141
0.0
177
0
142
1.0
295
0
296
0
143
3.75
271
0
272
9
273
9
  0
DICTIONARY
  5
146
330
131
100
AcDbDictionary
280
1
281
1
  3
WRITTEN_BY_EZDXF
350
147
  0
DICTIONARYVAR
  5
147
330
146
100
DictionaryVariables
280
0
  1
1.4.3 @ 2026-07-28T02:48:19.908513+00:00
  0
ENDSEC
  0
EOF
