  0
SECTION
  2
HEADER
  9
$ACADVER
  1
AC1015
  9
$ACADMAINTVER
 70
6
  9
$DWGCODEPAGE
  3
ANSI_1252
  9
$INSBASE
 10
0.0
 20
0.0
 30
0.0
  9
$EXTMIN
 10
25.7
 20
19.5
 30
0.0
  9
$EXTMAX
 10
231.3
 20
175.5
 30
0.0
  9
$LIMMIN
 10
-20.0
 20
-7.5
  9
$LIMMAX
 10
277.0
 20
202.5
  9
$LTSCALE
 40
1.0
  9
$ATTMODE
 70
1
  9
$TEXTSIZE
 40
2.5
  9
$TEXTSTYLE
  7
Standard
  9
$CLAYER
  8
0
  9
$CELTYPE
  6
ByLayer
  9
$CECOLOR
 62
256
  9
$CELTSCALE
 40
1.0
  9
$DIMSTYLE
  2
Standard
  9
$LUNITS
 70
2
  9
$LUPREC
 70
4
  9
$AUNITS
 70
0
  9
$AUPREC
 70
0
  9
$TDCREATE
 40
2461249.8252314813
  9
$TDUCREATE
 40
2461141.97721949
  9
$TDUPDATE
 40
2461249.8252314813
  9
$TDUUPDATE
 40
2461141.97721949
  9
$TDINDWG
 40
0.0
  9
$ANGBASE
 50
0.0
  9
$ANGDIR
 70
0
  9
$PDMODE
 70
0
  9
$PDSIZE
 40
0.0
  9
$HANDSEED
  5
129
  9
$PEXTMIN
 10
25.7
 20
19.5
 30
0.0
  9
$PEXTMAX
 10
231.3
 20
175.5
 30
0.0
  9
$PLIMMIN
 10
-20.0
 20
-7.5
  9
$PLIMMAX
 10
277.0
 20
202.5
  9
$PLINEGEN
 70
0
  9
$CMLSTYLE
  2
Standard
  9
$CMLJUST
 70
0
  9
$CMLSCALE
 40
20.0
  9
$CELWEIGHT
370
-1
  9
$LWDISPLAY
290
0
  9
$INSUNITS
 70
0
  9
$FINGERPRINTGUID
  2
{7757148C-BEA0-4C29-B9DF-0A8F814766CA}
  9
$VERSIONGUID
  2
{76CDF10C-92A5-451C-BC02-8431AC626693}
  9
$EXTNAMES
290
1
  0
ENDSEC
  0
SECTION
  2
CLASSES
  0
CLASS
  1
RASTERVARIABLES
  2
AcDbRasterVariables
  3
ISM
 90
0
280
0
281
0
  0
CLASS
  1
ACDBDICTIONARYWDFLT
  2
AcDbDictionaryWithDefault
  3
ObjectDBX Classes
 90
0
280
0
281
0
  0
CLASS
  1
SUN
  2
AcDbSun
  3
SCENEOE
 90
1153
280
0
281
0
  0
CLASS
  1
VISUALSTYLE
  2
AcDbVisualStyle
  3
ObjectDBX Classes
 90
4095
280
0
281
0
  0
CLASS
  1
MATERIAL
  2
AcDbMaterial
  3
ObjectDBX Classes
 90
1153
280
0
281
0
  0
CLASS
  1
SCALE
  2
AcDbScale
  3
ObjectDBX Classes
 90
1153
280
0
281
0
  0
CLASS
  1
TABLESTYLE
  2
AcDbTableStyle
  3
ObjectDBX Classes
 90
4095
280
0
281
0
  0
CLASS
  1
MLEADERSTYLE
  2
AcDbMLeaderStyle
  3
ACDB_MLEADERSTYLE_CLASS
 90
4095
280
0
281
0
  0
CLASS
  1
DICTIONARYVAR
  2
AcDbDictionaryVar
  3
ObjectDBX Classes
 90
0
280
0
281
0
  0
CLASS
  1
CELLSTYLEMAP
  2
AcDbCellStyleMap
  3
ObjectDBX Classes
 90
1152
280
0
281
0
  0
CLASS
  1
MENTALRAYRENDERSETTINGS
  2
AcDbMentalRayRenderSettings
  3
SCENEOE
 90
1024
280
0
281
0
  0
CLASS
  1
ACDBDETAILVIEWSTYLE
  2
AcDbDetailViewStyle
  3
ObjectDBX Classes
 90
1025
280
0
281
0
  0
CLASS
  1
ACDBSECTIONVIEWSTYLE
  2
AcDbSectionViewStyle
  3
ObjectDBX Classes
 90
1025
280
0
281
0
  0
CLASS
  1
ACDBPLACEHOLDER
  2
AcDbPlaceHolder
  3
ObjectDBX Classes
 90
0
280
0
281
0
  0
CLASS
  1
LAYOUT
  2
AcDbLayout
  3
ObjectDBX Classes
 90
0
280
0
281
0
  0
ENDSEC
  0
SECTION
  2
TABLES
  0
TABLE
  2
VPORT
  5
1
330
0
100
AcDbSymbolTable
 70
1
  0
VPORT
  5
E
330
1
100
AcDbSymbolTableRecord
100
AcDbViewportTableRecord
  2
*Active
 70
0
 10
0.0
 20
0.0
 11
1.0
 21
1.0
 12
-1.0
 22
1.0
 13
0.0
 23
0.0
 14
0.5
 24
0.5
 15
10.0
 25
10.0
 16
0.0
 26
0.0
 36
1.0
 17
0.0
 27
0.0
 37
0.0
 40
1000.0
 41
1.34
 42
50.0
 43
0.0
 44
0.0
 50
0.0
 51
0.0
 71
0
 72
1000
 73
1
 74
3
 75
0
 76
0
 77
0
 78
0
281
0
 65
0
146
0.0
  0
ENDTAB
  0
TABLE
  2
LTYPE
  5
5
330
0
100
AcDbSymbolTable
 70
3
  0
LTYPE
  5
10
330
5
100
AcDbSymbolTableRecord
100
AcDbLinetypeTableRecord
  2
Continuous
 70
0
  3
Solid line
 72
65
 73
0
 40
0.0
  0
LTYPE
  5
11
330
5
100
AcDbSymbolTableRecord
100
AcDbLinetypeTableRecord
  2
ByLayer
 70
0
  3

 72
65
 73
0
 40
0.0
  0
LTYPE
  5
12
330
5
100
AcDbSymbolTableRecord
100
AcDbLinetypeTableRecord
  2
ByBlock
 70
0
  3

 72
65
 73
0
 40
0.0
  0
ENDTAB
  0
TABLE
  2
LAYER
  5
4
330
0
100
AcDbSymbolTable
 70
4
  0
LAYER
  5
F
330
4
100
AcDbSymbolTableRecord
100
AcDbLayerTableRecord
  2
0
 70
0
 62
7
  6
Continuous
370
-3
390
0
  0
LAYER
  5
1D
330
4
100
AcDbSymbolTableRecord
100
AcDbLayerTableRecord
  2
Group_292_Red
 70
0
 62
1
  6
Continuous
370
-3
390
0
  0
LAYER
  5
1E
330
4
100
AcDbSymbolTableRecord
100
AcDbLayerTableRecord
  2
Add_Red
 70
0
 62
1
  6
Continuous
370
-3
390
0
  0
LAYER
  5
123
330
4
100
AcDbSymbolTableRecord
100
AcDbLayerTableRecord
  2
Defpoints
 70
0
 62
7
  6
Continuous
290
0
370
-3
390
11C
  0
ENDTAB
  0
TABLE
  2
STYLE
  5
6
330
0
100
AcDbSymbolTable
 70
1
  0
STYLE
  5
13
330
6
100
AcDbSymbolTableRecord
100
AcDbTextStyleTableRecord
  2
Standard
 70
0
 40
0.0
 41
1.0
 50
0.0
 71
0
 42
0.0
  3
simplex.shx
  4

  0
ENDTAB
  0
TABLE
  2
VIEW
  5
2
330
0
100
AcDbSymbolTable
 70
0
  0
ENDTAB
  0
TABLE
  2
UCS
  5
9
330
0
100
AcDbSymbolTable
 70
0
  0
ENDTAB
  0
TABLE
  2
APPID
  5
3
330
0
100
AcDbSymbolTable
 70
4
  0
APPID
  5
14
330
3
100
AcDbSymbolTableRecord
100
AcDbRegAppTableRecord
  2
ACAD
 70
0
  0
APPID
  5
111
330
3
100
AcDbSymbolTableRecord
100
AcDbRegAppTableRecord
  2
AcCmTransparency
 70
0
  0
APPID
  5
125
330
3
100
AcDbSymbolTableRecord
100
AcDbRegAppTableRecord
  2
HATCHBACKGROUNDCOLOR
 70
0
  0
APPID
  5
126
330
3
100
AcDbSymbolTableRecord
100
AcDbRegAppTableRecord
  2
EZDXF
 70
0
  0
ENDTAB
  0
TABLE
  2
DIMSTYLE
  5
7
330
0
100
AcDbSymbolTable
 70
1
100
AcDbDimStyleTable
  0
DIMSTYLE
105
15
330
7
100
AcDbSymbolTableRecord
100
AcDbDimStyleTableRecord
  2
Standard
 70
0
  3
<>
  4

 40
1.0
 41
0.18
 42
0.0625
 43
0.38
 44
0.18
 45
0.0
 46
0.0
 47
0.0
 48
0.0
140
0.18
141
0.09
142
0.0
143
0.03937007874
144
1.0
145
0.0
146
1.0
147
0.09
148
0.0
 71
0
 72
0
 73
0
 74
0
 75
0
 76
0
 77
1
 78
8
 79
3
170
0
171
3
172
1
173
0
174
0
175
0
176
0
177
0
178
0
179
0
271
2
272
2
273
2
274
3
275
0
276
0
277
2
278
46
279
0
280
0
281
0
282
0
283
0
284
8
285
0
286
0
288
0
289
3
340
13
371
-2
372
-2
  0
ENDTAB
  0
TABLE
  2
BLOCK_RECORD
  5
A
330
0
100
AcDbSymbolTable
 70
2
  0
BLOCK_RECORD
  5
17
330
A
100
AcDbSymbolTableRecord
100
AcDbBlockTableRecord
  2
*Model_Space
340
1B
  0
BLOCK_RECORD
  5
10B
330
A
100
AcDbSymbolTableRecord
100
AcDbBlockTableRecord
  2
*Paper_Space
340
110
  0
ENDTAB
  0
ENDSEC
  0
SECTION
  2
BLOCKS
  0
BLOCK
  5
19
330
17
100
AcDbEntity
  8
0
100
AcDbBlockBegin
  2
*Model_Space
 70
0
 10
0.0
 20
0.0
 30
0.0
  3
*Model_Space
  1

  0
ENDBLK
  5
18
330
17
100
AcDbEntity
  8
0
100
AcDbBlockEnd
  0
BLOCK
  5
10D
330
10B
100
AcDbEntity
  8
0
100
AcDbBlockBegin
  2
*Paper_Space
 70
0
 10
0.0
 20
0.0
 30
0.0
  3
*Paper_Space
  1

  0
ENDBLK
  5
10C
330
10B
100
AcDbEntity
  8
0
100
AcDbBlockEnd
  0
ENDSEC
  0
SECTION
  2
ENTITIES
  0
LWPOLYLINE
  5
1F
330
17
100
AcDbEntity
  8
Group_292_Red
  6
ByLayer
100
AcDbPolyline
 90
38
 70
1
 10
-49.6720830985685
 20
43.0846199483112
 10
-45.6994410245926
 20
40.939410293885
 10
-43.0774973590214
 20
38.7942006394587
 10
-40.8528178069815
 20
35.0599466401259
 10
-37.6740316425116
 20
21.6711439286409
 10
-41.0681185285005
 20
11.8071571662042
 10
-46.9017055617933
 20
0.458268514662723
 10
-53.2656185610222
 20
-10.1481696616543
 10
-58.674944821566
 20
-20.5424791307643
 10
-61.644770934806
 20
-28.9215649427521
 10
-64.2964014684843
 20
-36.240007218705
 10
-64.80905
 20
-38.0749017159961
 10
-62.8827750167829
 20
-39.4618087582931
 10
-58.0670875587401
 20
-40.5405142617089
 10
-50.4390387378398
 20
-41.5036441293784
 10
-27.8088138269627
 20
-44.0
 10
-27.7980535881526
 20
-41.7307603541434
 10
-27.5874603361916
 20
-38.0454075073265
 10
-26.1659558597885
 20
-33.8335757494396
 10
-8.89961511327488
 20
7.86603656421946
 10
-16.9533984082347
 20
10.4231957432181
 10
-13.9097877311547
 20
19.4975927348981
 10
-5.17349769000551
 20
16.8485452518932
 10
-0.725675647006167
 20
25.6147402353642
 10
2.06660653549295
 20
30.0025774696881
 10
5.45723491671801
 20
32.4624254953155
 10
8.91434623498659
 20
33.1272493098091
 10
12.5044231926764
 20
33.1937316912585
 10
19.4627047243316
 20
33.2461535739702
 10
23.8491419085848
 20
44.0208474641702
 10
-3.59020533226495
 20
43.9675495993082
 10
-8.4152334283605
 20
31.3286380877726
 10
-32.0044117393861
 20
31.3545990950848
 10
-33.9064121868257
 20
32.345216442602
 10
-34.8177873865572
 20
34.2868264859753
 10
-31.1595728631707
 20
43.8791409089452
 10
-53.2474625504244
 20
43.9585931159239
 10
-49.6720848246456
 20
43.0846187731581
  0
LWPOLYLINE
  5
20
330
17
100
AcDbEntity
  8
Group_292_Red
  6
ByLayer
100
AcDbPolyline
 90
10
 70
1
 10
29.6128204118809
 20
35.2022930901644
 10
33.0535351604072
 20
43.956446996712
 10
64.80905
 20
44.0
 10
62.4571691395892
 20
37.4234961625191
 10
51.0461910058946
 20
37.2928371489885
 10
47.3877096674778
 20
36.4217770392294
 10
44.0776549667521
 20
34.5489978061807
 10
42.2048609091658
 20
32.8068775866626
 10
28.0500217716587
 20
32.1535825190098
 10
29.6128184172214
 20
35.2022929911655
  0
LWPOLYLINE
  5
21
330
17
100
AcDbEntity
  8
Add_Red
  6
ByLayer
100
AcDbPolyline
 90
8
 70
1
 10
22.793443
 20
41.454189
 10
22.936366
 20
41.805259
 10
22.936366
 20
43.536705
 10
22.120942
 20
44.00749
 10
20.281499
 20
44.003917
 10
19.472264
 20
43.536705
 10
19.472264
 20
41.536705
 10
21.204315
 20
40.536705
  0
LWPOLYLINE
  5
22
330
17
100
AcDbEntity
  8
Add_Red
  6
ByLayer
100
AcDbPolyline
 90
7
 70
1
 10
18.472264
 20
41.536705
 10
18.472264
 20
43.536705
 10
17.671809
 20
43.998848
 10
15.802327
 20
43.995216
 10
15.008162
 20
43.536705
 10
15.008162
 20
41.536705
 10
16.740213
 20
40.536705
  0
LWPOLYLINE
  5
23
330
17
100
AcDbEntity
  8
Add_Red
  6
ByLayer
100
AcDbPolyline
 90
7
 70
1
 10
14.008163
 20
41.536705
 10
14.008163
 20
43.536705
 10
13.222677
 20
43.990206
 10
11.323157
 20
43.986516
 10
10.544062
 20
43.536705
 10
10.544062
 20
41.536705
 10
12.276113
 20
40.536705
  0
LWPOLYLINE
  5
24
330
17
100
AcDbEntity
  8
Add_Red
  6
ByLayer
100
AcDbPolyline
 90
7
 70
1
 10
9.544062
 20
41.536705
 10
9.544062
 20
43.536705
 10
8.773544
 20
43.981563
 10
6.843986
 20
43.977815
 10
6.079961
 20
43.536705
 10
6.079961
 20
41.536705
 10
7.812011
 20
40.536705
  0
LWPOLYLINE
  5
25
330
17
100
AcDbEntity
  8
Add_Red
  6
ByLayer
100
AcDbPolyline
 90
7
 70
1
 10
5.079961
 20
41.536705
 10
5.079961
 20
43.536705
 10
4.324412
 20
43.972921
 10
2.364816
 20
43.969115
 10
1.61586
 20
43.536705
 10
1.61586
 20
41.536705
 10
3.34791
 20
40.536705
  0
LWPOLYLINE
  5
26
330
17
100
AcDbEntity
  8
Add_Red
  6
ByLayer
100
AcDbPolyline
 90
7
 70
1
 10
0.615861
 20
41.536705
 10
0.615861
 20
43.536705
 10
-0.124719
 20
43.964279
 10
-2.114354
 20
43.960414
 10
-2.84824
 20
43.536705
 10
-2.84824
 20
41.536705
 10
-1.116189
 20
40.536705
  0
LWPOLYLINE
  5
27
330
17
100
AcDbEntity
  8
Add_Red
  6
ByLayer
100
AcDbPolyline
 90
6
 70
1
 10
-48.48925
 20
43.536705
 10
-49.1773
 20
43.933951
 10
-51.252374
 20
43.941415
 10
-51.812384
 20
43.618093
 10
-49.668463
 20
43.09403
 10
-48.48925
 20
42.457261
  0
LWPOLYLINE
  5
28
330
17
100
AcDbEntity
  8
Add_Red
  6
ByLayer
100
AcDbPolyline
 90
8
 70
1
 10
-44.025149
 20
41.536705
 10
-44.025149
 20
43.536705
 10
-44.685213
 20
43.917793
 10
-46.815912
 20
43.925457
 10
-47.48925
 20
43.536705
 10
-47.48925
 20
41.917265
 10
-45.693847
 20
40.947756
 10
-45.425508
 20
40.728207
  0
LWPOLYLINE
  5
29
330
17
100
AcDbEntity
  8
Add_Red
  6
ByLayer
100
AcDbPolyline
 90
7
 70
1
 10
-39.561048
 20
41.536705
 10
-39.561048
 20
43.536705
 10
-40.193126
 20
43.901635
 10
-42.379451
 20
43.909499
 10
-43.02515
 20
43.536705
 10
-43.02515
 20
41.536705
 10
-41.293099
 20
40.536705
  0
LWPOLYLINE
  5
2A
330
17
100
AcDbEntity
  8
Add_Red
  6
ByLayer
100
AcDbPolyline
 90
7
 70
1
 10
-35.096947
 20
41.536705
 10
-35.096947
 20
43.536705
 10
-35.701038
 20
43.885477
 10
-37.942989
 20
43.893542
 10
-38.561048
 20
43.536705
 10
-38.561048
 20
41.536705
 10
-36.828998
 20
40.536705
  0
LWPOLYLINE
  5
2B
330
17
100
AcDbEntity
  8
Add_Red
  6
ByLayer
100
AcDbPolyline
 90
6
 70
1
 10
-31.180324
 20
43.852792
 10
-31.208951
 20
43.869319
 10
-33.506528
 20
43.877584
 10
-34.096947
 20
43.536705
 10
-34.096947
 20
41.536705
 10
-32.430527
 20
40.574597
  0
LWPOLYLINE
  5
2C
330
17
100
AcDbEntity
  8
Add_Red
  6
ByLayer
100
AcDbPolyline
 90
3
 70
1
 10
-3.84824
 20
41.536705
 10
-3.84824
 20
43.263599
 10
-4.693887
 20
41.04847
  0
LWPOLYLINE
  5
2D
330
17
100
AcDbEntity
  8
Add_Red
  6
ByLayer
100
AcDbPolyline
 90
6
 70
1
 10
20.704321
 20
37.67068
 10
20.704321
 20
39.67068
 10
18.97227
 20
40.67068
 10
17.240219
 20
39.67068
 10
17.240219
 20
37.67068
 10
18.97227
 20
36.67068
  0
LWPOLYLINE
  5
2E
330
17
100
AcDbEntity
  8
Add_Red
  6
ByLayer
100
AcDbPolyline
 90
6
 70
1
 10
16.240219
 20
37.67068
 10
16.240219
 20
39.67068
 10
14.508168
 20
40.67068
 10
12.776119
 20
39.67068
 10
12.776119
 20
37.67068
 10
14.508168
 20
36.67068
  0
LWPOLYLINE
  5
2F
330
17
100
AcDbEntity
  8
Add_Red
  6
ByLayer
100
AcDbPolyline
 90
6
 70
1
 10
11.776119
 20
37.67068
 10
11.776119
 20
39.67068
 10
10.044068
 20
40.67068
 10
8.312017
 20
39.67068
 10
8.312017
 20
37.67068
 10
10.044068
 20
36.67068
  0
LWPOLYLINE
  5
30
330
17
100
AcDbEntity
  8
Add_Red
  6
ByLayer
100
AcDbPolyline
 90
6
 70
1
 10
7.312017
 20
37.67068
 10
7.312017
 20
39.67068
 10
5.579966
 20
40.67068
 10
3.847916
 20
39.67068
 10
3.847916
 20
37.67068
 10
5.579966
 20
36.67068
  0
LWPOLYLINE
  5
31
330
17
100
AcDbEntity
  8
Add_Red
  6
ByLayer
100
AcDbPolyline
 90
6
 70
1
 10
2.847916
 20
37.67068
 10
2.847916
 20
39.67068
 10
1.115866
 20
40.67068
 10
-0.616184
 20
39.67068
 10
-0.616184
 20
37.67068
 10
1.115866
 20
36.67068
  0
LWPOLYLINE
  5
32
330
17
100
AcDbEntity
  8
Add_Red
  6
ByLayer
100
AcDbPolyline
 90
6
 70
1
 10
-1.616183
 20
37.67068
 10
-1.616183
 20
39.67068
 10
-3.348234
 20
40.67068
 10
-5.080285
 20
39.67068
 10
-5.080285
 20
37.67068
 10
-3.348234
 20
36.67068
  0
LWPOLYLINE
  5
33
330
17
100
AcDbEntity
  8
Add_Red
  6
ByLayer
100
AcDbPolyline
 90
7
 70
1
 10
-33.728044
 20
37.172338
 10
-32.864891
 20
39.435638
 10
-32.864891
 20
39.67068
 10
-34.596941
 20
40.67068
 10
-36.328992
 20
39.67068
 10
-36.328992
 20
37.67068
 10
-34.596941
 20
36.67068
  0
LWPOLYLINE
  5
34
330
17
100
AcDbEntity
  8
Add_Red
  6
ByLayer
100
AcDbPolyline
 90
6
 70
1
 10
-37.328992
 20
37.67068
 10
-37.328992
 20
39.67068
 10
-39.061043
 20
40.67068
 10
-40.793093
 20
39.67068
 10
-40.793093
 20
37.67068
 10
-39.061043
 20
36.67068
  0
LWPOLYLINE
  5
35
330
17
100
AcDbEntity
  8
Add_Red
  6
ByLayer
100
AcDbPolyline
 90
6
 70
1
 10
-41.793093
 20
37.67068
 10
-41.793093
 20
39.67068
 10
-43.525144
 20
40.67068
 10
-44.598075
 20
40.051223
 10
-43.069803
 20
38.800828
 10
-42.242085
 20
37.411454
  0
LWPOLYLINE
  5
36
330
17
100
AcDbEntity
  8
Add_Red
  6
ByLayer
100
AcDbPolyline
 90
3
 70
1
 10
22.178918
 20
39.944689
 10
21.70432
 20
39.67068
 10
21.70432
 20
38.778902
  0
LWPOLYLINE
  5
37
330
17
100
AcDbEntity
  8
Add_Red
  6
ByLayer
100
AcDbPolyline
 90
7
 70
1
 10
17.496613
 20
33.241343
 10
18.472297
 20
33.804655
 10
18.472297
 20
35.804655
 10
16.740246
 20
36.804655
 10
15.008195
 20
35.804655
 10
15.008195
 20
33.804655
 10
16.003365
 20
33.230093
  0
LWPOLYLINE
  5
38
330
17
100
AcDbEntity
  8
Add_Red
  6
ByLayer
100
AcDbPolyline
 90
8
 70
1
 10
12.504293
 20
33.203732
 10
12.97349
 20
33.207267
 10
14.008195
 20
33.804655
 10
14.008195
 20
35.804655
 10
12.276145
 20
36.804655
 10
10.544095
 20
35.804655
 10
10.544095
 20
33.804655
 10
11.613495
 20
33.187236
  0
LWPOLYLINE
  5
39
330
17
100
AcDbEntity
  8
Add_Red
  6
ByLayer
100
AcDbPolyline
 90
7
 70
1
 10
8.125774
 20
32.985786
 10
9.544095
 20
33.804655
 10
9.544095
 20
35.804655
 10
7.812044
 20
36.804655
 10
6.079993
 20
35.804655
 10
6.079993
 20
33.804655
 10
7.655091
 20
32.895271
  0
LWPOLYLINE
  5
3A
330
17
100
AcDbEntity
  8
Add_Red
  6
ByLayer
100
AcDbPolyline
 90
6
 70
1
 10
5.079993
 20
33.804655
 10
5.079993
 20
35.804655
 10
3.347942
 20
36.804655
 10
1.615893
 20
35.804655
 10
1.615893
 20
33.804655
 10
3.347942
 20
32.804654
  0
LWPOLYLINE
  5
3B
330
17
100
AcDbEntity
  8
Add_Red
  6
ByLayer
100
AcDbPolyline
 90
6
 70
1
 10
0.615893
 20
33.804655
 10
0.615893
 20
35.804655
 10
-1.116157
 20
36.804655
 10
-2.848208
 20
35.804655
 10
-2.848208
 20
33.804655
 10
-1.116157
 20
32.804654
  0
LWPOLYLINE
  5
3C
330
17
100
AcDbEntity
  8
Add_Red
  6
ByLayer
100
AcDbPolyline
 90
7
 70
1
 10
-3.848207
 20
33.804655
 10
-3.848207
 20
35.804655
 10
-5.580258
 20
36.804655
 10
-6.521454
 20
36.261255
 10
-7.312309
 20
34.189652
 10
-7.312309
 20
33.804655
 10
-5.580258
 20
32.804654
  0
LWPOLYLINE
  5
3D
330
17
100
AcDbEntity
  8
Add_Red
  6
ByLayer
100
AcDbPolyline
 90
6
 70
1
 10
-35.096914
 20
33.804655
 10
-35.096914
 20
35.804655
 10
-36.828965
 20
36.804655
 10
-38.561016
 20
35.804655
 10
-38.561016
 20
33.804655
 10
-36.828965
 20
32.804654
  0
LWPOLYLINE
  5
3E
330
17
100
AcDbEntity
  8
Add_Red
  6
ByLayer
100
AcDbPolyline
 90
6
 70
1
 10
-39.561016
 20
33.804655
 10
-39.561016
 20
35.804655
 10
-41.293067
 20
36.804655
 10
-41.730223
 20
36.552263
 10
-40.843442
 20
35.063749
 10
-40.425946
 20
33.305287
  0
LWPOLYLINE
  5
3F
330
17
100
AcDbEntity
  8
Add_Red
  6
ByLayer
100
AcDbPolyline
 90
4
 70
1
 10
20.807261
 20
36.575397
 10
19.472296
 20
35.804655
 10
19.472296
 20
33.804655
 10
19.639886
 20
33.707897
  0
LWPOLYLINE
  5
40
330
17
100
AcDbEntity
  8
Add_Red
  6
ByLayer
100
AcDbPolyline
 90
5
 70
1
 10
5.453162
 20
32.471825
 10
6.154816
 20
32.606758
 10
5.579999
 20
32.938629
 10
3.847948
 20
31.938628
 10
3.847948
 20
31.307267
  0
LWPOLYLINE
  5
41
330
17
100
AcDbEntity
  8
Add_Red
  6
ByLayer
100
AcDbPolyline
 90
8
 70
1
 10
1.529737
 20
29.177558
 10
2.059192
 20
30.009552
 10
2.847948
 20
30.581782
 10
2.847948
 20
31.938628
 10
1.115899
 20
32.938629
 10
-0.616151
 20
31.938628
 10
-0.616151
 20
29.938628
 10
1.115899
 20
28.938628
  0
LWPOLYLINE
  5
42
330
17
100
AcDbEntity
  8
Add_Red
  6
ByLayer
100
AcDbPolyline
 90
6
 70
1
 10
-1.616151
 20
29.938628
 10
-1.616151
 20
31.938628
 10
-3.348202
 20
32.938629
 10
-5.080253
 20
31.938628
 10
-5.080253
 20
29.938628
 10
-3.348202
 20
28.938628
  0
LWPOLYLINE
  5
43
330
17
100
AcDbEntity
  8
Add_Red
  6
ByLayer
100
AcDbPolyline
 90
8
 70
1
 10
-32.864859
 20
29.938628
 10
-32.864859
 20
31.791468
 10
-33.91403
 20
32.337906
 10
-34.046968
 20
32.62112
 10
-34.596909
 20
32.938629
 10
-36.328959
 20
31.938628
 10
-36.328959
 20
29.938628
 10
-34.596909
 20
28.938628
  0
LWPOLYLINE
  5
44
330
17
100
AcDbEntity
  8
Add_Red
  6
ByLayer
100
AcDbPolyline
 90
6
 70
1
 10
-37.328959
 20
29.938628
 10
-37.328959
 20
31.938628
 10
-39.06101
 20
32.938629
 10
-40.184843
 20
32.289783
 10
-39.441342
 20
29.158212
 10
-39.06101
 20
28.938628
  0
LWPOLYLINE
  5
45
330
17
100
AcDbEntity
  8
Add_Red
  6
ByLayer
100
AcDbPolyline
 90
7
 70
1
 10
-6.080252
 20
29.938628
 10
-6.080252
 20
31.938628
 10
-7.793946
 20
32.92803
 10
-8.40835
 20
31.31863
 10
-9.544353
 20
31.31988
 10
-9.544353
 20
29.938628
 10
-7.812303
 20
28.938628
  0
LWPOLYLINE
  5
46
330
17
100
AcDbEntity
  8
Add_Red
  6
ByLayer
100
AcDbPolyline
 90
5
 70
1
 10
-28.400757
 20
29.938628
 10
-28.400757
 20
31.340632
 10
-31.864859
 20
31.344445
 10
-31.864859
 20
29.938628
 10
-30.132808
 20
28.938628
  0
LWPOLYLINE
  5
47
330
17
100
AcDbEntity
  8
Add_Red
  6
ByLayer
100
AcDbPolyline
 90
5
 70
1
 10
-23.936656
 20
29.938628
 10
-23.936656
 20
31.335719
 10
-27.400758
 20
31.339532
 10
-27.400758
 20
29.938628
 10
-25.668707
 20
28.938628
  0
LWPOLYLINE
  5
48
330
17
100
AcDbEntity
  8
Add_Red
  6
ByLayer
100
AcDbPolyline
 90
5
 70
1
 10
-19.472556
 20
29.938628
 10
-19.472556
 20
31.330807
 10
-22.936656
 20
31.334619
 10
-22.936656
 20
29.938628
 10
-21.204606
 20
28.938628
  0
LWPOLYLINE
  5
49
330
17
100
AcDbEntity
  8
Add_Red
  6
ByLayer
100
AcDbPolyline
 90
5
 70
1
 10
-15.008454
 20
29.938628
 10
-15.008454
 20
31.325894
 10
-18.472556
 20
31.329706
 10
-18.472556
 20
29.938628
 10
-16.740505
 20
28.938628
  0
LWPOLYLINE
  5
4A
330
17
100
AcDbEntity
  8
Add_Red
  6
ByLayer
100
AcDbPolyline
 90
5
 70
1
 10
-10.544353
 20
29.938628
 10
-10.544353
 20
31.320981
 10
-14.008455
 20
31.324793
 10
-14.008455
 20
29.938628
 10
-12.276404
 20
28.938628
  0
LWPOLYLINE
  5
4B
330
17
100
AcDbEntity
  8
Add_Red
  6
ByLayer
100
AcDbPolyline
 90
8
 70
1
 10
-0.968804
 20
25.157659
 10
-0.734373
 20
25.619698
 10
0.615925
 20
27.741578
 10
0.615925
 20
28.072603
 10
-1.116125
 20
29.072603
 10
-2.848175
 20
28.072603
 10
-2.848175
 20
26.072603
 10
-1.116125
 20
25.072603
  0
LWPOLYLINE
  5
4C
330
17
100
AcDbEntity
  8
Add_Red
  6
ByLayer
100
AcDbPolyline
 90
6
 70
1
 10
-3.848175
 20
26.072603
 10
-3.848175
 20
28.072603
 10
-5.580226
 20
29.072603
 10
-7.312277
 20
28.072603
 10
-7.312277
 20
26.072603
 10
-5.580226
 20
25.072603
  0
LWPOLYLINE
  5
4D
330
17
100
AcDbEntity
  8
Add_Red
  6
ByLayer
100
AcDbPolyline
 90
6
 70
1
 10
-8.312276
 20
26.072603
 10
-8.312276
 20
28.072603
 10
-10.044326
 20
29.072603
 10
-11.776377
 20
28.072603
 10
-11.776377
 20
26.072603
 10
-10.044326
 20
25.072603
  0
LWPOLYLINE
  5
4E
330
17
100
AcDbEntity
  8
Add_Red
  6
ByLayer
100
AcDbPolyline
 90
6
 70
1
 10
-12.776377
 20
26.072603
 10
-12.776377
 20
28.072603
 10
-14.508428
 20
29.072603
 10
-16.240479
 20
28.072603
 10
-16.240479
 20
26.072603
 10
-14.508428
 20
25.072603
  0
LWPOLYLINE
  5
4F
330
17
100
AcDbEntity
  8
Add_Red
  6
ByLayer
100
AcDbPolyline
 90
6
 70
1
 10
-17.240478
 20
26.072603
 10
-17.240478
 20
28.072603
 10
-18.972529
 20
29.072603
 10
-20.70458
 20
28.072603
 10
-20.70458
 20
26.072603
 10
-18.972529
 20
25.072603
  0
LWPOLYLINE
  5
50
330
17
100
AcDbEntity
  8
Add_Red
  6
ByLayer
100
AcDbPolyline
 90
6
 70
1
 10
-21.70458
 20
26.072603
 10
-21.70458
 20
28.072603
 10
-23.436629
 20
29.072603
 10
-25.16868
 20
28.072603
 10
-25.16868
 20
26.072603
 10
-23.436629
 20
25.072603
  0
LWPOLYLINE
  5
51
330
17
100
AcDbEntity
  8
Add_Red
  6
ByLayer
100
AcDbPolyline
 90
6
 70
1
 10
-26.16868
 20
26.072603
 10
-26.16868
 20
28.072603
 10
-27.900731
 20
29.072603
 10
-29.632782
 20
28.072603
 10
-29.632782
 20
26.072603
 10
-27.900731
 20
25.072603
  0
LWPOLYLINE
  5
52
330
17
100
AcDbEntity
  8
Add_Red
  6
ByLayer
100
AcDbPolyline
 90
6
 70
1
 10
-30.632781
 20
26.072603
 10
-30.632781
 20
28.072603
 10
-32.364832
 20
29.072603
 10
-34.096882
 20
28.072603
 10
-34.096882
 20
26.072603
 10
-32.364832
 20
25.072603
  0
LWPOLYLINE
  5
53
330
17
100
AcDbEntity
  8
Add_Red
  6
ByLayer
100
AcDbPolyline
 90
6
 70
1
 10
-35.096882
 20
26.072603
 10
-35.096882
 20
28.072603
 10
-36.828933
 20
29.072603
 10
-38.560984
 20
28.072603
 10
-38.560984
 20
26.072603
 10
-36.828933
 20
25.072603
  0
LWPOLYLINE
  5
54
330
17
100
AcDbEntity
  8
Add_Red
  6
ByLayer
100
AcDbPolyline
 90
7
 70
1
 10
-2.818298
 20
21.512498
 10
-1.616119
 20
23.881868
 10
-1.616119
 20
24.206577
 10
-3.348169
 20
25.206577
 10
-5.08022
 20
24.206577
 10
-5.08022
 20
22.206577
 10
-3.348169
 20
21.206577
  0
LWPOLYLINE
  5
55
330
17
100
AcDbEntity
  8
Add_Red
  6
ByLayer
100
AcDbPolyline
 90
6
 70
1
 10
-6.08022
 20
22.206577
 10
-6.08022
 20
24.206577
 10
-7.812271
 20
25.206577
 10
-9.544321
 20
24.206577
 10
-9.544321
 20
22.206577
 10
-7.812271
 20
21.206577
  0
LWPOLYLINE
  5
56
330
17
100
AcDbEntity
  8
Add_Red
  6
ByLayer
100
AcDbPolyline
 90
6
 70
1
 10
-10.54432
 20
22.206577
 10
-10.54432
 20
24.206577
 10
-12.276371
 20
25.206577
 10
-14.008422
 20
24.206577
 10
-14.008422
 20
22.206577
 10
-12.276371
 20
21.206577
  0
LWPOLYLINE
  5
57
330
17
100
AcDbEntity
  8
Add_Red
  6
ByLayer
100
AcDbPolyline
 90
6
 70
1
 10
-15.008422
 20
22.206577
 10
-15.008422
 20
24.206577
 10
-16.740473
 20
25.206577
 10
-18.472524
 20
24.206577
 10
-18.472524
 20
22.206577
 10
-16.740473
 20
21.206577
  0
LWPOLYLINE
  5
58
330
17
100
AcDbEntity
  8
Add_Red
  6
ByLayer
100
AcDbPolyline
 90
6
 70
1
 10
-19.472523
 20
22.206577
 10
-19.472523
 20
24.206577
 10
-21.204574
 20
25.206577
 10
-22.936624
 20
24.206577
 10
-22.936624
 20
22.206577
 10
-21.204574
 20
21.206577
  0
LWPOLYLINE
  5
59
330
17
100
AcDbEntity
  8
Add_Red
  6
ByLayer
100
AcDbPolyline
 90
6
 70
1
 10
-23.936624
 20
22.206577
 10
-23.936624
 20
24.206577
 10
-25.668674
 20
25.206577
 10
-27.400725
 20
24.206577
 10
-27.400725
 20
22.206577
 10
-25.668674
 20
21.206577
  0
LWPOLYLINE
  5
5A
330
17
100
AcDbEntity
  8
Add_Red
  6
ByLayer
100
AcDbPolyline
 90
6
 70
1
 10
-28.400725
 20
22.206577
 10
-28.400725
 20
24.206577
 10
-30.132776
 20
25.206577
 10
-31.864827
 20
24.206577
 10
-31.864827
 20
22.206577
 10
-30.132776
 20
21.206577
  0
LWPOLYLINE
  5
5B
330
17
100
AcDbEntity
  8
Add_Red
  6
ByLayer
100
AcDbPolyline
 90
6
 70
1
 10
-32.864826
 20
22.206577
 10
-32.864826
 20
24.206577
 10
-34.596876
 20
25.206577
 10
-36.328927
 20
24.206577
 10
-36.328927
 20
22.206577
 10
-34.596876
 20
21.206577
  0
LWPOLYLINE
  5
5C
330
17
100
AcDbEntity
  8
Add_Red
  6
ByLayer
100
AcDbPolyline
 90
4
 70
1
 10
-37.328927
 20
22.206577
 10
-37.328927
 20
24.206577
 10
-38.414526
 20
24.833348
 10
-37.735187
 20
21.972023
  0
LWPOLYLINE
  5
5D
330
17
100
AcDbEntity
  8
Add_Red
  6
ByLayer
100
AcDbPolyline
 90
7
 70
1
 10
-4.6678
 20
17.867322
 10
-3.848143
 20
19.48278
 10
-3.848143
 20
20.340552
 10
-5.580193
 20
21.340552
 10
-7.312244
 20
20.340552
 10
-7.312244
 20
18.340551
 10
-5.580193
 20
17.340551
  0
LWPOLYLINE
  5
5E
330
17
100
AcDbEntity
  8
Add_Red
  6
ByLayer
100
AcDbPolyline
 90
6
 70
1
 10
-8.312244
 20
18.340551
 10
-8.312244
 20
20.340552
 10
-10.044294
 20
21.340552
 10
-11.776345
 20
20.340552
 10
-11.776345
 20
18.861132
 10
-8.913914
 20
17.993176
  0
LWPOLYLINE
  5
5F
330
17
100
AcDbEntity
  8
Add_Red
  6
ByLayer
100
AcDbPolyline
 90
7
 70
1
 10
-13.91618
 20
19.50998
 10
-12.776344
 20
19.164355
 10
-12.776344
 20
20.340552
 10
-14.508395
 20
21.340552
 10
-16.240446
 20
20.340552
 10
-16.240446
 20
18.340551
 10
-14.62185
 20
17.406054
  0
LWPOLYLINE
  5
60
330
17
100
AcDbEntity
  8
Add_Red
  6
ByLayer
100
AcDbPolyline
 90
6
 70
1
 10
-17.240446
 20
18.340551
 10
-17.240446
 20
20.340552
 10
-18.972497
 20
21.340552
 10
-20.704548
 20
20.340552
 10
-20.704548
 20
18.340551
 10
-18.972497
 20
17.340551
  0
LWPOLYLINE
  5
61
330
17
100
AcDbEntity
  8
Add_Red
  6
ByLayer
100
AcDbPolyline
 90
6
 70
1
 10
-21.704547
 20
18.340551
 10
-21.704547
 20
20.340552
 10
-23.436597
 20
21.340552
 10
-25.168648
 20
20.340552
 10
-25.168648
 20
18.340551
 10
-23.436597
 20
17.340551
  0
LWPOLYLINE
  5
62
330
17
100
AcDbEntity
  8
Add_Red
  6
ByLayer
100
AcDbPolyline
 90
6
 70
1
 10
-26.168648
 20
18.340551
 10
-26.168648
 20
20.340552
 10
-27.900698
 20
21.340552
 10
-29.632749
 20
20.340552
 10
-29.632749
 20
18.340551
 10
-27.900698
 20
17.340551
  0
LWPOLYLINE
  5
63
330
17
100
AcDbEntity
  8
Add_Red
  6
ByLayer
100
AcDbPolyline
 90
6
 70
1
 10
-30.632749
 20
18.340551
 10
-30.632749
 20
20.340552
 10
-32.3648
 20
21.340552
 10
-34.09685
 20
20.340552
 10
-34.09685
 20
18.340551
 10
-32.3648
 20
17.340551
  0
LWPOLYLINE
  5
64
330
17
100
AcDbEntity
  8
Add_Red
  6
ByLayer
100
AcDbPolyline
 90
7
 70
1
 10
-35.096849
 20
18.340551
 10
-35.096849
 20
20.340552
 10
-36.8289
 20
21.340552
 10
-38.012301
 20
20.657315
 10
-38.560951
 20
19.062815
 10
-38.560951
 20
18.340551
 10
-36.8289
 20
17.340551
  0
LWPOLYLINE
  5
65
330
17
100
AcDbEntity
  8
Add_Red
  6
ByLayer
100
AcDbPolyline
 90
7
 70
1
 10
-15.748405
 20
14.047278
 10
-15.008389
 20
16.253604
 10
-15.008389
 20
16.474526
 10
-16.74044
 20
17.474526
 10
-18.472491
 20
16.474526
 10
-18.472491
 20
14.474526
 10
-16.74044
 20
13.474526
  0
LWPOLYLINE
  5
66
330
17
100
AcDbEntity
  8
Add_Red
  6
ByLayer
100
AcDbPolyline
 90
6
 70
1
 10
-19.472491
 20
14.474526
 10
-19.472491
 20
16.474526
 10
-21.204542
 20
17.474526
 10
-22.936591
 20
16.474526
 10
-22.936591
 20
14.474526
 10
-21.204542
 20
13.474526
  0
LWPOLYLINE
  5
67
330
17
100
AcDbEntity
  8
Add_Red
  6
ByLayer
100
AcDbPolyline
 90
6
 70
1
 10
-23.936591
 20
14.474526
 10
-23.936591
 20
16.474526
 10
-25.668642
 20
17.474526
 10
-27.400693
 20
16.474526
 10
-27.400693
 20
14.474526
 10
-25.668642
 20
13.474526
  0
LWPOLYLINE
  5
68
330
17
100
AcDbEntity
  8
Add_Red
  6
ByLayer
100
AcDbPolyline
 90
6
 70
1
 10
-28.400693
 20
14.474526
 10
-28.400693
 20
16.474526
 10
-30.132743
 20
17.474526
 10
-31.864794
 20
16.474526
 10
-31.864794
 20
14.474526
 10
-30.132743
 20
13.474526
  0
LWPOLYLINE
  5
69
330
17
100
AcDbEntity
  8
Add_Red
  6
ByLayer
100
AcDbPolyline
 90
6
 70
1
 10
-32.864794
 20
14.474526
 10
-32.864794
 20
16.474526
 10
-34.596844
 20
17.474526
 10
-36.328895
 20
16.474526
 10
-36.328895
 20
14.474526
 10
-34.596844
 20
13.474526
  0
LWPOLYLINE
  5
6A
330
17
100
AcDbEntity
  8
Add_Red
  6
ByLayer
100
AcDbPolyline
 90
6
 70
1
 10
-37.328894
 20
14.474526
 10
-37.328894
 20
16.474526
 10
-39.060945
 20
17.474526
 10
-39.118996
 20
17.44101
 10
-40.247999
 20
14.159872
 10
-39.060945
 20
13.474526
  0
LWPOLYLINE
  5
6B
330
17
100
AcDbEntity
  8
Add_Red
  6
ByLayer
100
AcDbPolyline
 90
6
 70
1
 10
-17.240413
 20
10.6085
 10
-17.240413
 20
12.6085
 10
-18.972464
 20
13.6085
 10
-20.704515
 20
12.6085
 10
-20.704515
 20
10.6085
 10
-18.972464
 20
9.6085
  0
LWPOLYLINE
  5
6C
330
17
100
AcDbEntity
  8
Add_Red
  6
ByLayer
100
AcDbPolyline
 90
6
 70
1
 10
-21.704515
 20
10.6085
 10
-21.704515
 20
12.6085
 10
-23.436565
 20
13.6085
 10
-25.168615
 20
12.6085
 10
-25.168615
 20
10.6085
 10
-23.436565
 20
9.6085
  0
LWPOLYLINE
  5
6D
330
17
100
AcDbEntity
  8
Add_Red
  6
ByLayer
100
AcDbPolyline
 90
6
 70
1
 10
-26.168615
 20
10.6085
 10
-26.168615
 20
12.6085
 10
-27.900666
 20
13.6085
 10
-29.632717
 20
12.6085
 10
-29.632717
 20
10.6085
 10
-27.900666
 20
9.6085
  0
LWPOLYLINE
  5
6E
330
17
100
AcDbEntity
  8
Add_Red
  6
ByLayer
100
AcDbPolyline
 90
6
 70
1
 10
-30.632717
 20
10.6085
 10
-30.632717
 20
12.6085
 10
-32.364767
 20
13.6085
 10
-34.096817
 20
12.6085
 10
-34.096817
 20
10.6085
 10
-32.364767
 20
9.6085
  0
LWPOLYLINE
  5
6F
330
17
100
AcDbEntity
  8
Add_Red
  6
ByLayer
100
AcDbPolyline
 90
6
 70
1
 10
-35.096817
 20
10.6085
 10
-35.096817
 20
12.6085
 10
-36.828868
 20
13.6085
 10
-38.560919
 20
12.6085
 10
-38.560919
 20
10.6085
 10
-36.828868
 20
9.6085
  0
LWPOLYLINE
  5
70
330
17
100
AcDbEntity
  8
Add_Red
  6
ByLayer
100
AcDbPolyline
 90
6
 70
1
 10
-39.560918
 20
10.6085
 10
-39.560918
 20
12.6085
 10
-40.579465
 20
13.196558
 10
-41.058896
 20
11.803224
 10
-41.982424
 20
10.006557
 10
-41.292969
 20
9.6085
  0
LWPOLYLINE
  5
71
330
17
100
AcDbEntity
  8
Add_Red
  6
ByLayer
100
AcDbPolyline
 90
3
 70
1
 10
-16.228714
 20
12.615255
 10
-16.240414
 20
12.6085
 10
-16.240414
 20
12.580373
  0
LWPOLYLINE
  5
72
330
17
100
AcDbEntity
  8
Add_Red
  6
ByLayer
100
AcDbPolyline
 90
6
 70
1
 10
-15.008357
 20
6.742475
 10
-15.008357
 20
8.742475
 10
-16.740408
 20
9.742475
 10
-18.472459
 20
8.742475
 10
-18.472459
 20
6.742475
 10
-16.740408
 20
5.742475
  0
LWPOLYLINE
  5
73
330
17
100
AcDbEntity
  8
Add_Red
  6
ByLayer
100
AcDbPolyline
 90
6
 70
1
 10
-19.472458
 20
6.742475
 10
-19.472458
 20
8.742475
 10
-21.204509
 20
9.742475
 10
-22.936559
 20
8.742475
 10
-22.936559
 20
6.742475
 10
-21.204509
 20
5.742475
  0
LWPOLYLINE
  5
74
330
17
100
AcDbEntity
  8
Add_Red
  6
ByLayer
100
AcDbPolyline
 90
6
 70
1
 10
-23.936559
 20
6.742475
 10
-23.936559
 20
8.742475
 10
-25.66861
 20
9.742475
 10
-27.40066
 20
8.742475
 10
-27.40066
 20
6.742475
 10
-25.66861
 20
5.742475
  0
LWPOLYLINE
  5
75
330
17
100
AcDbEntity
  8
Add_Red
  6
ByLayer
100
AcDbPolyline
 90
6
 70
1
 10
-28.40066
 20
6.742475
 10
-28.40066
 20
8.742475
 10
-30.132711
 20
9.742475
 10
-31.864762
 20
8.742475
 10
-31.864762
 20
6.742475
 10
-30.132711
 20
5.742475
  0
LWPOLYLINE
  5
76
330
17
100
AcDbEntity
  8
Add_Red
  6
ByLayer
100
AcDbPolyline
 90
6
 70
1
 10
-32.864762
 20
6.742475
 10
-32.864762
 20
8.742475
 10
-34.596811
 20
9.742475
 10
-36.328862
 20
8.742475
 10
-36.328862
 20
6.742475
 10
-34.596811
 20
5.742475
  0
LWPOLYLINE
  5
77
330
17
100
AcDbEntity
  8
Add_Red
  6
ByLayer
100
AcDbPolyline
 90
6
 70
1
 10
-37.328862
 20
6.742475
 10
-37.328862
 20
8.742475
 10
-39.060913
 20
9.742475
 10
-40.792964
 20
8.742475
 10
-40.792964
 20
6.742475
 10
-39.060913
 20
5.742475
  0
LWPOLYLINE
  5
78
330
17
100
AcDbEntity
  8
Add_Red
  6
ByLayer
100
AcDbPolyline
 90
3
 70
1
 10
-14.477208
 20
9.626488
 10
-14.615659
 20
9.670447
 10
-14.508363
 20
9.6085
  0
LWPOLYLINE
  5
79
330
17
100
AcDbEntity
  8
Add_Red
  6
ByLayer
100
AcDbPolyline
 90
6
 70
1
 10
-10.544256
 20
6.742475
 10
-10.544256
 20
8.377734
 10
-13.186835
 20
9.216781
 10
-14.008357
 20
8.742475
 10
-14.008357
 20
6.742475
 10
-12.276306
 20
5.742475
  0
LWPOLYLINE
  5
7A
330
17
100
AcDbEntity
  8
Add_Red
  6
ByLayer
100
AcDbPolyline
 90
5
 70
1
 10
-41.792963
 20
6.742475
 10
-41.792963
 20
8.742475
 10
-42.44013
 20
9.116117
 10
-44.025677
 20
6.031533
 10
-43.525014
 20
5.742475
  0
LWPOLYLINE
  5
7B
330
17
100
AcDbEntity
  8
Add_Red
  6
ByLayer
100
AcDbPolyline
 90
4
 70
1
 10
-8.91302
 20
7.8598
 10
-9.544256
 20
8.060224
 10
-9.544256
 20
6.742475
 10
-9.408192
 20
6.663919
  0
LWPOLYLINE
  5
7C
330
17
100
AcDbEntity
  8
Add_Red
  6
ByLayer
100
AcDbPolyline
 90
5
 70
1
 10
-9.794061
 20
5.732014
 10
-10.044229
 20
5.876449
 10
-11.77628
 20
4.876449
 10
-11.77628
 20
2.876448
 10
-11.130767
 20
2.503761
  0
LWPOLYLINE
  5
7D
330
17
100
AcDbEntity
  8
Add_Red
  6
ByLayer
100
AcDbPolyline
 90
6
 70
1
 10
-12.77628
 20
2.876448
 10
-12.77628
 20
4.876449
 10
-14.50833
 20
5.876449
 10
-16.240381
 20
4.876449
 10
-16.240381
 20
2.876448
 10
-14.50833
 20
1.876448
  0
LWPOLYLINE
  5
7E
330
17
100
AcDbEntity
  8
Add_Red
  6
ByLayer
100
AcDbPolyline
 90
6
 70
1
 10
-17.240381
 20
2.876448
 10
-17.240381
 20
4.876449
 10
-18.972432
 20
5.876449
 10
-20.704483
 20
4.876449
 10
-20.704483
 20
2.876448
 10
-18.972432
 20
1.876448
  0
LWPOLYLINE
  5
7F
330
17
100
AcDbEntity
  8
Add_Red
  6
ByLayer
100
AcDbPolyline
 90
6
 70
1
 10
-21.704482
 20
2.876448
 10
-21.704482
 20
4.876449
 10
-23.436532
 20
5.876449
 10
-25.168583
 20
4.876449
 10
-25.168583
 20
2.876448
 10
-23.436532
 20
1.876448
  0
LWPOLYLINE
  5
80
330
17
100
AcDbEntity
  8
Add_Red
  6
ByLayer
100
AcDbPolyline
 90
6
 70
1
 10
-26.168583
 20
2.876448
 10
-26.168583
 20
4.876449
 10
-27.900634
 20
5.876449
 10
-29.632684
 20
4.876449
 10
-29.632684
 20
2.876448
 10
-27.900634
 20
1.876448
  0
LWPOLYLINE
  5
81
330
17
100
AcDbEntity
  8
Add_Red
  6
ByLayer
100
AcDbPolyline
 90
6
 70
1
 10
-30.632684
 20
2.876448
 10
-30.632684
 20
4.876449
 10
-32.364735
 20
5.876449
 10
-34.096785
 20
4.876449
 10
-34.096785
 20
2.876448
 10
-32.364735
 20
1.876448
  0
LWPOLYLINE
  5
82
330
17
100
AcDbEntity
  8
Add_Red
  6
ByLayer
100
AcDbPolyline
 90
6
 70
1
 10
-35.096785
 20
2.876448
 10
-35.096785
 20
4.876449
 10
-36.828835
 20
5.876449
 10
-38.560886
 20
4.876449
 10
-38.560886
 20
2.876448
 10
-36.828835
 20
1.876448
  0
LWPOLYLINE
  5
83
330
17
100
AcDbEntity
  8
Add_Red
  6
ByLayer
100
AcDbPolyline
 90
6
 70
1
 10
-39.560886
 20
2.876448
 10
-39.560886
 20
4.876449
 10
-41.292937
 20
5.876449
 10
-43.024988
 20
4.876449
 10
-43.024988
 20
2.876448
 10
-41.292937
 20
1.876448
  0
LWPOLYLINE
  5
84
330
17
100
AcDbEntity
  8
Add_Red
  6
ByLayer
100
AcDbPolyline
 90
5
 70
1
 10
-44.024987
 20
2.876448
 10
-44.024987
 20
4.876449
 10
-44.483379
 20
5.141102
 10
-46.068925
 20
2.056517
 10
-45.757037
 20
1.876448
  0
LWPOLYLINE
  5
85
330
17
100
AcDbEntity
  8
Add_Red
  6
ByLayer
100
AcDbPolyline
 90
5
 70
1
 10
-11.51664
 20
1.571848
 10
-12.276274
 20
2.010423
 10
-14.008325
 20
1.010423
 10
-14.008325
 20
-0.989576
 10
-12.853345
 20
-1.656404
  0
LWPOLYLINE
  5
86
330
17
100
AcDbEntity
  8
Add_Red
  6
ByLayer
100
AcDbPolyline
 90
6
 70
1
 10
-15.008325
 20
-0.989576
 10
-15.008325
 20
1.010423
 10
-16.740375
 20
2.010423
 10
-18.472426
 20
1.010423
 10
-18.472426
 20
-0.989576
 10
-16.740375
 20
-1.989576
  0
LWPOLYLINE
  5
87
330
17
100
AcDbEntity
  8
Add_Red
  6
ByLayer
100
AcDbPolyline
 90
6
 70
1
 10
-19.472426
 20
-0.989576
 10
-19.472426
 20
1.010423
 10
-21.204477
 20
2.010423
 10
-22.936527
 20
1.010423
 10
-22.936527
 20
-0.989576
 10
-21.204477
 20
-1.989576
  0
LWPOLYLINE
  5
88
330
17
100
AcDbEntity
  8
Add_Red
  6
ByLayer
100
AcDbPolyline
 90
6
 70
1
 10
-23.936526
 20
-0.989576
 10
-23.936526
 20
1.010423
 10
-25.668577
 20
2.010423
 10
-27.400628
 20
1.010423
 10
-27.400628
 20
-0.989576
 10
-25.668577
 20
-1.989576
  0
LWPOLYLINE
  5
89
330
17
100
AcDbEntity
  8
Add_Red
  6
ByLayer
100
AcDbPolyline
 90
6
 70
1
 10
-28.400628
 20
-0.989576
 10
-28.400628
 20
1.010423
 10
-30.132679
 20
2.010423
 10
-31.864729
 20
1.010423
 10
-31.864729
 20
-0.989576
 10
-30.132679
 20
-1.989576
  0
LWPOLYLINE
  5
8A
330
17
100
AcDbEntity
  8
Add_Red
  6
ByLayer
100
AcDbPolyline
 90
6
 70
1
 10
-32.864729
 20
-0.989576
 10
-32.864729
 20
1.010423
 10
-34.596779
 20
2.010423
 10
-36.32883
 20
1.010423
 10
-36.32883
 20
-0.989576
 10
-34.596779
 20
-1.989576
  0
LWPOLYLINE
  5
8B
330
17
100
AcDbEntity
  8
Add_Red
  6
ByLayer
100
AcDbPolyline
 90
6
 70
1
 10
-37.32883
 20
-0.989576
 10
-37.32883
 20
1.010423
 10
-39.06088
 20
2.010423
 10
-40.792931
 20
1.010423
 10
-40.792931
 20
-0.989576
 10
-39.06088
 20
-1.989576
  0
LWPOLYLINE
  5
8C
330
17
100
AcDbEntity
  8
Add_Red
  6
ByLayer
100
AcDbPolyline
 90
6
 70
1
 10
-41.792931
 20
-0.989576
 10
-41.792931
 20
1.010423
 10
-43.524982
 20
2.010423
 10
-45.257032
 20
1.010423
 10
-45.257032
 20
-0.989576
 10
-43.524982
 20
-1.989576
  0
LWPOLYLINE
  5
8D
330
17
100
AcDbEntity
  8
Add_Red
  6
ByLayer
100
AcDbPolyline
 90
6
 70
1
 10
-46.257031
 20
-0.989576
 10
-46.257031
 20
1.010423
 10
-46.526632
 20
1.166077
 10
-46.892962
 20
0.453404
 10
-48.263648
 20
-1.831055
 10
-47.989082
 20
-1.989576
  0
LWPOLYLINE
  5
8E
330
17
100
AcDbEntity
  8
Add_Red
  6
ByLayer
100
AcDbPolyline
 90
5
 70
1
 10
-13.239214
 20
-2.588307
 10
-14.508298
 20
-1.855601
 10
-16.240349
 20
-2.855601
 10
-16.240349
 20
-4.855601
 10
-14.575919
 20
-5.81656
  0
LWPOLYLINE
  5
8F
330
17
100
AcDbEntity
  8
Add_Red
  6
ByLayer
100
AcDbPolyline
 90
6
 70
1
 10
-17.240349
 20
-4.855601
 10
-17.240349
 20
-2.855601
 10
-18.972399
 20
-1.855601
 10
-20.70445
 20
-2.855601
 10
-20.70445
 20
-4.855601
 10
-18.972399
 20
-5.855601
  0
LWPOLYLINE
  5
90
330
17
100
AcDbEntity
  8
Add_Red
  6
ByLayer
100
AcDbPolyline
 90
6
 70
1
 10
-21.70445
 20
-4.855601
 10
-21.70445
 20
-2.855601
 10
-23.4365
 20
-1.855601
 10
-25.168551
 20
-2.855601
 10
-25.168551
 20
-4.855601
 10
-23.4365
 20
-5.855601
  0
LWPOLYLINE
  5
91
330
17
100
AcDbEntity
  8
Add_Red
  6
ByLayer
100
AcDbPolyline
 90
6
 70
1
 10
-26.16855
 20
-4.855601
 10
-26.16855
 20
-2.855601
 10
-27.900601
 20
-1.855601
 10
-29.632652
 20
-2.855601
 10
-29.632652
 20
-4.855601
 10
-27.900601
 20
-5.855601
  0
LWPOLYLINE
  5
92
330
17
100
AcDbEntity
  8
Add_Red
  6
ByLayer
100
AcDbPolyline
 90
6
 70
1
 10
-30.632652
 20
-4.855601
 10
-30.632652
 20
-2.855601
 10
-32.364703
 20
-1.855601
 10
-34.096752
 20
-2.855601
 10
-34.096752
 20
-4.855601
 10
-32.364703
 20
-5.855601
  0
LWPOLYLINE
  5
93
330
17
100
AcDbEntity
  8
Add_Red
  6
ByLayer
100
AcDbPolyline
 90
6
 70
1
 10
-35.096752
 20
-4.855601
 10
-35.096752
 20
-2.855601
 10
-36.828803
 20
-1.855601
 10
-38.560854
 20
-2.855601
 10
-38.560854
 20
-4.855601
 10
-36.828803
 20
-5.855601
  0
LWPOLYLINE
  5
94
330
17
100
AcDbEntity
  8
Add_Red
  6
ByLayer
100
AcDbPolyline
 90
6
 70
1
 10
-39.560854
 20
-4.855601
 10
-39.560854
 20
-2.855601
 10
-41.292904
 20
-1.855601
 10
-43.024955
 20
-2.855601
 10
-43.024955
 20
-4.855601
 10
-41.292904
 20
-5.855601
  0
LWPOLYLINE
  5
95
330
17
100
AcDbEntity
  8
Add_Red
  6
ByLayer
100
AcDbPolyline
 90
6
 70
1
 10
-44.024955
 20
-4.855601
 10
-44.024955
 20
-2.855601
 10
-45.757005
 20
-1.855601
 10
-47.489056
 20
-2.855601
 10
-47.489056
 20
-4.855601
 10
-45.757005
 20
-5.855601
  0
LWPOLYLINE
  5
96
330
17
100
AcDbEntity
  8
Add_Red
  6
ByLayer
100
AcDbPolyline
 90
5
 70
1
 10
-48.489055
 20
-4.855601
 10
-48.489055
 20
-2.855601
 10
-48.778212
 20
-2.688656
 10
-50.560741
 20
-5.659513
 10
-50.221106
 20
-5.855601
  0
LWPOLYLINE
  5
97
330
17
100
AcDbEntity
  8
Add_Red
  6
ByLayer
100
AcDbPolyline
 90
7
 70
1
 10
-16.020874
 20
-9.306241
 10
-15.008292
 20
-6.860775
 10
-15.008292
 20
-6.721627
 10
-16.740343
 20
-5.721627
 10
-18.472394
 20
-6.721627
 10
-18.472394
 20
-8.721627
 10
-16.740343
 20
-9.721627
  0
LWPOLYLINE
  5
98
330
17
100
AcDbEntity
  8
Add_Red
  6
ByLayer
100
AcDbPolyline
 90
6
 70
1
 10
-19.472393
 20
-8.721627
 10
-19.472393
 20
-6.721627
 10
-21.204444
 20
-5.721627
 10
-22.936494
 20
-6.721627
 10
-22.936494
 20
-8.721627
 10
-21.204444
 20
-9.721627
  0
LWPOLYLINE
  5
99
330
17
100
AcDbEntity
  8
Add_Red
  6
ByLayer
100
AcDbPolyline
 90
6
 70
1
 10
-23.936494
 20
-8.721627
 10
-23.936494
 20
-6.721627
 10
-25.668545
 20
-5.721627
 10
-27.400596
 20
-6.721627
 10
-27.400596
 20
-8.721627
 10
-25.668545
 20
-9.721627
  0
LWPOLYLINE
  5
9A
330
17
100
AcDbEntity
  8
Add_Red
  6
ByLayer
100
AcDbPolyline
 90
6
 70
1
 10
-28.400595
 20
-8.721627
 10
-28.400595
 20
-6.721627
 10
-30.132646
 20
-5.721627
 10
-31.864697
 20
-6.721627
 10
-31.864697
 20
-8.721627
 10
-30.132646
 20
-9.721627
  0
LWPOLYLINE
  5
9B
330
17
100
AcDbEntity
  8
Add_Red
  6
ByLayer
100
AcDbPolyline
 90
6
 70
1
 10
-32.864697
 20
-8.721627
 10
-32.864697
 20
-6.721627
 10
-34.596746
 20
-5.721627
 10
-36.328797
 20
-6.721627
 10
-36.328797
 20
-8.721627
 10
-34.596746
 20
-9.721627
  0
LWPOLYLINE
  5
9C
330
17
100
AcDbEntity
  8
Add_Red
  6
ByLayer
100
AcDbPolyline
 90
6
 70
1
 10
-37.328797
 20
-8.721627
 10
-37.328797
 20
-6.721627
 10
-39.060848
 20
-5.721627
 10
-40.792899
 20
-6.721627
 10
-40.792899
 20
-8.721627
 10
-39.060848
 20
-9.721627
  0
LWPOLYLINE
  5
9D
330
17
100
AcDbEntity
  8
Add_Red
  6
ByLayer
100
AcDbPolyline
 90
6
 70
1
 10
-41.792898
 20
-8.721627
 10
-41.792898
 20
-6.721627
 10
-43.524949
 20
-5.721627
 10
-45.256999
 20
-6.721627
 10
-45.256999
 20
-8.721627
 10
-43.524949
 20
-9.721627
  0
LWPOLYLINE
  5
9E
330
17
100
AcDbEntity
  8
Add_Red
  6
ByLayer
100
AcDbPolyline
 90
6
 70
1
 10
-46.256999
 20
-8.721627
 10
-46.256999
 20
-6.721627
 10
-47.98905
 20
-5.721627
 10
-49.721101
 20
-6.721627
 10
-49.721101
 20
-8.721627
 10
-47.98905
 20
-9.721627
  0
LWPOLYLINE
  5
9F
330
17
100
AcDbEntity
  8
Add_Red
  6
ByLayer
100
AcDbPolyline
 90
5
 70
1
 10
-50.7211
 20
-8.721627
 10
-50.7211
 20
-6.721627
 10
-51.075311
 20
-6.517123
 10
-52.857839
 20
-9.48798
 10
-52.453151
 20
-9.721627
  0
LWPOLYLINE
  5
A0
330
17
100
AcDbEntity
  8
Add_Red
  6
ByLayer
100
AcDbPolyline
 90
7
 70
1
 10
-17.423346
 20
-12.693325
 10
-17.240316
 20
-12.251293
 10
-17.240316
 20
-10.587652
 10
-18.972367
 20
-9.587652
 10
-20.704418
 20
-10.587652
 10
-20.704418
 20
-12.587653
 10
-18.972367
 20
-13.587653
  0
LWPOLYLINE
  5
A1
330
17
100
AcDbEntity
  8
Add_Red
  6
ByLayer
100
AcDbPolyline
 90
6
 70
1
 10
-21.704417
 20
-12.587653
 10
-21.704417
 20
-10.587652
 10
-23.436467
 20
-9.587652
 10
-25.168518
 20
-10.587652
 10
-25.168518
 20
-12.587653
 10
-23.436467
 20
-13.587653
  0
LWPOLYLINE
  5
A2
330
17
100
AcDbEntity
  8
Add_Red
  6
ByLayer
100
AcDbPolyline
 90
6
 70
1
 10
-26.168518
 20
-12.587653
 10
-26.168518
 20
-10.587652
 10
-27.900569
 20
-9.587652
 10
-29.63262
 20
-10.587652
 10
-29.63262
 20
-12.587653
 10
-27.900569
 20
-13.587653
  0
LWPOLYLINE
  5
A3
330
17
100
AcDbEntity
  8
Add_Red
  6
ByLayer
100
AcDbPolyline
 90
6
 70
1
 10
-30.632619
 20
-12.587653
 10
-30.632619
 20
-10.587652
 10
-32.36467
 20
-9.587652
 10
-34.09672
 20
-10.587652
 10
-34.09672
 20
-12.587653
 10
-32.36467
 20
-13.587653
  0
LWPOLYLINE
  5
A4
330
17
100
AcDbEntity
  8
Add_Red
  6
ByLayer
100
AcDbPolyline
 90
6
 70
1
 10
-35.09672
 20
-12.587653
 10
-35.09672
 20
-10.587652
 10
-36.828771
 20
-9.587652
 10
-38.560821
 20
-10.587652
 10
-38.560821
 20
-12.587653
 10
-36.828771
 20
-13.587653
  0
LWPOLYLINE
  5
A5
330
17
100
AcDbEntity
  8
Add_Red
  6
ByLayer
100
AcDbPolyline
 90
6
 70
1
 10
-39.560821
 20
-12.587653
 10
-39.560821
 20
-10.587652
 10
-41.292872
 20
-9.587652
 10
-43.024923
 20
-10.587652
 10
-43.024923
 20
-12.587653
 10
-41.292872
 20
-13.587653
  0
LWPOLYLINE
  5
A6
330
17
100
AcDbEntity
  8
Add_Red
  6
ByLayer
100
AcDbPolyline
 90
6
 70
1
 10
-44.024922
 20
-12.587653
 10
-44.024922
 20
-10.587652
 10
-45.756972
 20
-9.587652
 10
-47.489023
 20
-10.587652
 10
-47.489023
 20
-12.587653
 10
-45.756972
 20
-13.587653
  0
LWPOLYLINE
  5
A7
330
17
100
AcDbEntity
  8
Add_Red
  6
ByLayer
100
AcDbPolyline
 90
6
 70
1
 10
-48.489023
 20
-12.587653
 10
-48.489023
 20
-10.587652
 10
-50.221074
 20
-9.587652
 10
-51.953125
 20
-10.587652
 10
-51.953125
 20
-12.587653
 10
-50.221074
 20
-13.587653
  0
LWPOLYLINE
  5
A8
330
17
100
AcDbEntity
  8
Add_Red
  6
ByLayer
100
AcDbPolyline
 90
5
 70
1
 10
-52.953124
 20
-12.587653
 10
-52.953124
 20
-10.587652
 10
-53.36062
 20
-10.352384
 10
-54.961323
 20
-13.428219
 10
-54.685175
 20
-13.587653
  0
LWPOLYLINE
  5
A9
330
17
100
AcDbEntity
  8
Add_Red
  6
ByLayer
100
AcDbPolyline
 90
6
 70
1
 10
-19.472361
 20
-16.453679
 10
-19.472361
 20
-14.453679
 10
-21.204412
 20
-13.453679
 10
-22.936462
 20
-14.453679
 10
-22.936462
 20
-16.453679
 10
-21.204412
 20
-17.453679
  0
LWPOLYLINE
  5
AA
330
17
100
AcDbEntity
  8
Add_Red
  6
ByLayer
100
AcDbPolyline
 90
6
 70
1
 10
-23.936461
 20
-16.453679
 10
-23.936461
 20
-14.453679
 10
-25.668512
 20
-13.453679
 10
-27.400563
 20
-14.453679
 10
-27.400563
 20
-16.453679
 10
-25.668512
 20
-17.453679
  0
LWPOLYLINE
  5
AB
330
17
100
AcDbEntity
  8
Add_Red
  6
ByLayer
100
AcDbPolyline
 90
6
 70
1
 10
-28.400563
 20
-16.453679
 10
-28.400563
 20
-14.453679
 10
-30.132614
 20
-13.453679
 10
-31.864665
 20
-14.453679
 10
-31.864665
 20
-16.453679
 10
-30.132614
 20
-17.453679
  0
LWPOLYLINE
  5
AC
330
17
100
AcDbEntity
  8
Add_Red
  6
ByLayer
100
AcDbPolyline
 90
6
 70
1
 10
-32.864664
 20
-16.453679
 10
-32.864664
 20
-14.453679
 10
-34.596714
 20
-13.453679
 10
-36.328765
 20
-14.453679
 10
-36.328765
 20
-16.453679
 10
-34.596714
 20
-17.453679
  0
LWPOLYLINE
  5
AD
330
17
100
AcDbEntity
  8
Add_Red
  6
ByLayer
100
AcDbPolyline
 90
6
 70
1
 10
-37.328765
 20
-16.453679
 10
-37.328765
 20
-14.453679
 10
-39.060816
 20
-13.453679
 10
-40.792866
 20
-14.453679
 10
-40.792866
 20
-16.453679
 10
-39.060816
 20
-17.453679
  0
LWPOLYLINE
  5
AE
330
17
100
AcDbEntity
  8
Add_Red
  6
ByLayer
100
AcDbPolyline
 90
6
 70
1
 10
-41.792866
 20
-16.453679
 10
-41.792866
 20
-14.453679
 10
-43.524917
 20
-13.453679
 10
-45.256967
 20
-14.453679
 10
-45.256967
 20
-16.453679
 10
-43.524917
 20
-17.453679
  0
LWPOLYLINE
  5
AF
330
17
100
AcDbEntity
  8
Add_Red
  6
ByLayer
100
AcDbPolyline
 90
6
 70
1
 10
-46.256966
 20
-16.453679
 10
-46.256966
 20
-14.453679
 10
-47.989017
 20
-13.453679
 10
-49.721068
 20
-14.453679
 10
-49.721068
 20
-16.453679
 10
-47.989017
 20
-17.453679
  0
LWPOLYLINE
  5
B0
330
17
100
AcDbEntity
  8
Add_Red
  6
ByLayer
100
AcDbPolyline
 90
6
 70
1
 10
-50.721068
 20
-16.453679
 10
-50.721068
 20
-14.453679
 10
-52.453119
 20
-13.453679
 10
-54.18517
 20
-14.453679
 10
-54.18517
 20
-16.453679
 10
-52.453119
 20
-17.453679
  0
LWPOLYLINE
  5
B1
330
17
100
AcDbEntity
  8
Add_Red
  6
ByLayer
100
AcDbPolyline
 90
3
 70
1
 10
-18.051678
 20
-14.210797
 10
-18.472361
 20
-14.453679
 10
-18.472361
 20
-15.226781
  0
LWPOLYLINE
  5
B2
330
17
100
AcDbEntity
  8
Add_Red
  6
ByLayer
100
AcDbPolyline
 90
5
 70
1
 10
-55.185169
 20
-16.453679
 10
-55.185169
 20
-14.453679
 10
-55.423405
 20
-14.316133
 10
-57.024107
 20
-17.391967
 10
-56.917219
 20
-17.453679
  0
LWPOLYLINE
  5
B3
330
17
100
AcDbEntity
  8
Add_Red
  6
ByLayer
100
AcDbPolyline
 90
6
 70
1
 10
-21.704385
 20
-20.319704
 10
-21.704385
 20
-18.319704
 10
-23.436435
 20
-17.319704
 10
-25.168486
 20
-18.319704
 10
-25.168486
 20
-20.319704
 10
-23.436435
 20
-21.319704
  0
LWPOLYLINE
  5
B4
330
17
100
AcDbEntity
  8
Add_Red
  6
ByLayer
100
AcDbPolyline
 90
6
 70
1
 10
-26.168485
 20
-20.319704
 10
-26.168485
 20
-18.319704
 10
-27.900536
 20
-17.319704
 10
-29.632587
 20
-18.319704
 10
-29.632587
 20
-20.319704
 10
-27.900536
 20
-21.319704
  0
LWPOLYLINE
  5
B5
330
17
100
AcDbEntity
  8
Add_Red
  6
ByLayer
100
AcDbPolyline
 90
6
 70
1
 10
-30.632587
 20
-20.319704
 10
-30.632587
 20
-18.319704
 10
-32.364638
 20
-17.319704
 10
-34.096688
 20
-18.319704
 10
-34.096688
 20
-20.319704
 10
-32.364638
 20
-21.319704
  0
LWPOLYLINE
  5
B6
330
17
100
AcDbEntity
  8
Add_Red
  6
ByLayer
100
AcDbPolyline
 90
6
 70
1
 10
-35.096687
 20
-20.319704
 10
-35.096687
 20
-18.319704
 10
-36.828738
 20
-17.319704
 10
-38.560789
 20
-18.319704
 10
-38.560789
 20
-20.319704
 10
-36.828738
 20
-21.319704
  0
LWPOLYLINE
  5
B7
330
17
100
AcDbEntity
  8
Add_Red
  6
ByLayer
100
AcDbPolyline
 90
6
 70
1
 10
-39.560789
 20
-20.319704
 10
-39.560789
 20
-18.319704
 10
-41.29284
 20
-17.319704
 10
-43.02489
 20
-18.319704
 10
-43.02489
 20
-20.319704
 10
-41.29284
 20
-21.319704
  0
LWPOLYLINE
  5
B8
330
17
100
AcDbEntity
  8
Add_Red
  6
ByLayer
100
AcDbPolyline
 90
6
 70
1
 10
-44.02489
 20
-20.319704
 10
-44.02489
 20
-18.319704
 10
-45.75694
 20
-17.319704
 10
-47.488991
 20
-18.319704
 10
-47.488991
 20
-20.319704
 10
-45.75694
 20
-21.319704
  0
LWPOLYLINE
  5
B9
330
17
100
AcDbEntity
  8
Add_Red
  6
ByLayer
100
AcDbPolyline
 90
6
 70
1
 10
-48.48899
 20
-20.319704
 10
-48.48899
 20
-18.319704
 10
-50.221041
 20
-17.319704
 10
-51.953092
 20
-18.319704
 10
-51.953092
 20
-20.319704
 10
-50.221041
 20
-21.319704
  0
LWPOLYLINE
  5
BA
330
17
100
AcDbEntity
  8
Add_Red
  6
ByLayer
100
AcDbPolyline
 90
6
 70
1
 10
-52.953092
 20
-20.319704
 10
-52.953092
 20
-18.319704
 10
-54.685143
 20
-17.319704
 10
-56.417193
 20
-18.319704
 10
-56.417193
 20
-20.319704
 10
-54.685143
 20
-21.319704
  0
LWPOLYLINE
  5
BB
330
17
100
AcDbEntity
  8
Add_Red
  6
ByLayer
100
AcDbPolyline
 90
4
 70
1
 10
-19.454149
 20
-17.59788
 10
-20.704385
 20
-18.319704
 10
-20.704385
 20
-20.319704
 10
-20.604935
 20
-20.377121
  0
LWPOLYLINE
  5
BC
330
17
100
AcDbEntity
  8
Add_Red
  6
ByLayer
100
AcDbPolyline
 90
5
 70
1
 10
-57.417192
 20
-20.319704
 10
-57.417192
 20
-18.319704
 10
-57.486184
 20
-18.279872
 10
-58.665753
 20
-20.546476
 10
-58.885928
 20
-21.167679
  0
LWPOLYLINE
  5
BD
330
17
100
AcDbEntity
  8
Add_Red
  6
ByLayer
100
AcDbPolyline
 90
5
 70
1
 10
-20.990808
 20
-21.309034
 10
-21.204379
 20
-21.185729
 10
-22.936429
 20
-22.185729
 10
-22.936429
 20
-24.185729
 10
-22.327514
 20
-24.537287
  0
LWPOLYLINE
  5
BE
330
17
100
AcDbEntity
  8
Add_Red
  6
ByLayer
100
AcDbPolyline
 90
6
 70
1
 10
-23.936429
 20
-24.185729
 10
-23.936429
 20
-22.185729
 10
-25.66848
 20
-21.185729
 10
-27.400531
 20
-22.185729
 10
-27.400531
 20
-24.185729
 10
-25.66848
 20
-25.18573
  0
LWPOLYLINE
  5
BF
330
17
100
AcDbEntity
  8
Add_Red
  6
ByLayer
100
AcDbPolyline
 90
6
 70
1
 10
-28.40053
 20
-24.185729
 10
-28.40053
 20
-22.185729
 10
-30.132581
 20
-21.185729
 10
-31.864632
 20
-22.185729
 10
-31.864632
 20
-24.185729
 10
-30.132581
 20
-25.18573
  0
LWPOLYLINE
  5
C0
330
17
100
AcDbEntity
  8
Add_Red
  6
ByLayer
100
AcDbPolyline
 90
6
 70
1
 10
-32.864632
 20
-24.185729
 10
-32.864632
 20
-22.185729
 10
-34.596682
 20
-21.185729
 10
-36.328732
 20
-22.185729
 10
-36.328732
 20
-24.185729
 10
-34.596682
 20
-25.18573
  0
LWPOLYLINE
  5
C1
330
17
100
AcDbEntity
  8
Add_Red
  6
ByLayer
100
AcDbPolyline
 90
6
 70
1
 10
-37.328732
 20
-24.185729
 10
-37.328732
 20
-22.185729
 10
-39.060783
 20
-21.185729
 10
-40.792834
 20
-22.185729
 10
-40.792834
 20
-24.185729
 10
-39.060783
 20
-25.18573
  0
LWPOLYLINE
  5
C2
330
17
100
AcDbEntity
  8
Add_Red
  6
ByLayer
100
AcDbPolyline
 90
6
 70
1
 10
-41.792834
 20
-24.185729
 10
-41.792834
 20
-22.185729
 10
-43.524884
 20
-21.185729
 10
-45.256934
 20
-22.185729
 10
-45.256934
 20
-24.185729
 10
-43.524884
 20
-25.18573
  0
LWPOLYLINE
  5
C3
330
17
100
AcDbEntity
  8
Add_Red
  6
ByLayer
100
AcDbPolyline
 90
6
 70
1
 10
-46.256934
 20
-24.185729
 10
-46.256934
 20
-22.185729
 10
-47.988985
 20
-21.185729
 10
-49.721036
 20
-22.185729
 10
-49.721036
 20
-24.185729
 10
-47.988985
 20
-25.18573
  0
LWPOLYLINE
  5
C4
330
17
100
AcDbEntity
  8
Add_Red
  6
ByLayer
100
AcDbPolyline
 90
6
 70
1
 10
-50.721035
 20
-24.185729
 10
-50.721035
 20
-22.185729
 10
-52.453086
 20
-21.185729
 10
-54.185137
 20
-22.185729
 10
-54.185137
 20
-24.185729
 10
-52.453086
 20
-25.18573
  0
LWPOLYLINE
  5
C5
330
17
100
AcDbEntity
  8
Add_Red
  6
ByLayer
100
AcDbPolyline
 90
6
 70
1
 10
-55.185137
 20
-24.185729
 10
-55.185137
 20
-22.185729
 10
-56.917187
 20
-21.185729
 10
-58.649237
 20
-22.185729
 10
-58.649237
 20
-24.185729
 10
-56.917187
 20
-25.18573
  0
LWPOLYLINE
  5
C6
330
17
100
AcDbEntity
  8
Add_Red
  6
ByLayer
100
AcDbPolyline
 90
3
 70
1
 10
-59.649237
 20
-24.185729
 10
-59.649237
 20
-23.321284
 10
-60.034452
 20
-24.408133
  0
LWPOLYLINE
  5
C7
330
17
100
AcDbEntity
  8
Add_Red
  6
ByLayer
100
AcDbPolyline
 90
5
 70
1
 10
-22.713383
 20
-25.469191
 10
-23.436402
 20
-25.051755
 10
-25.168453
 20
-26.051756
 10
-25.168453
 20
-28.051756
 10
-24.050088
 20
-28.697444
  0
LWPOLYLINE
  5
C8
330
17
100
AcDbEntity
  8
Add_Red
  6
ByLayer
100
AcDbPolyline
 90
6
 70
1
 10
-26.168453
 20
-28.051756
 10
-26.168453
 20
-26.051756
 10
-27.900504
 20
-25.051755
 10
-29.632555
 20
-26.051756
 10
-29.632555
 20
-28.051756
 10
-27.900504
 20
-29.051756
  0
LWPOLYLINE
  5
C9
330
17
100
AcDbEntity
  8
Add_Red
  6
ByLayer
100
AcDbPolyline
 90
6
 70
1
 10
-30.632554
 20
-28.051756
 10
-30.632554
 20
-26.051756
 10
-32.364605
 20
-25.051755
 10
-34.096655
 20
-26.051756
 10
-34.096655
 20
-28.051756
 10
-32.364605
 20
-29.051756
  0
LWPOLYLINE
  5
CA
330
17
100
AcDbEntity
  8
Add_Red
  6
ByLayer
100
AcDbPolyline
 90
6
 70
1
 10
-35.096655
 20
-28.051756
 10
-35.096655
 20
-26.051756
 10
-36.828706
 20
-25.051755
 10
-38.560757
 20
-26.051756
 10
-38.560757
 20
-28.051756
 10
-36.828706
 20
-29.051756
  0
LWPOLYLINE
  5
CB
330
17
100
AcDbEntity
  8
Add_Red
  6
ByLayer
100
AcDbPolyline
 90
6
 70
1
 10
-39.560756
 20
-28.051756
 10
-39.560756
 20
-26.051756
 10
-41.292807
 20
-25.051755
 10
-43.024858
 20
-26.051756
 10
-43.024858
 20
-28.051756
 10
-41.292807
 20
-29.051756
  0
LWPOLYLINE
  5
CC
330
17
100
AcDbEntity
  8
Add_Red
  6
ByLayer
100
AcDbPolyline
 90
6
 70
1
 10
-44.024858
 20
-28.051756
 10
-44.024858
 20
-26.051756
 10
-45.756907
 20
-25.051755
 10
-47.488958
 20
-26.051756
 10
-47.488958
 20
-28.051756
 10
-45.756907
 20
-29.051756
  0
LWPOLYLINE
  5
CD
330
17
100
AcDbEntity
  8
Add_Red
  6
ByLayer
100
AcDbPolyline
 90
6
 70
1
 10
-48.488958
 20
-28.051756
 10
-48.488958
 20
-26.051756
 10
-50.221009
 20
-25.051755
 10
-51.95306
 20
-26.051756
 10
-51.95306
 20
-28.051756
 10
-50.221009
 20
-29.051756
  0
LWPOLYLINE
  5
CE
330
17
100
AcDbEntity
  8
Add_Red
  6
ByLayer
100
AcDbPolyline
 90
6
 70
1
 10
-52.953059
 20
-28.051756
 10
-52.953059
 20
-26.051756
 10
-54.68511
 20
-25.051755
 10
-56.41716
 20
-26.051756
 10
-56.41716
 20
-28.051756
 10
-54.68511
 20
-29.051756
  0
LWPOLYLINE
  5
CF
330
17
100
AcDbEntity
  8
Add_Red
  6
ByLayer
100
AcDbPolyline
 90
7
 70
1
 10
-57.41716
 20
-28.051756
 10
-57.41716
 20
-26.051756
 10
-59.149211
 20
-25.051755
 10
-60.549019
 20
-25.859935
 10
-60.881262
 20
-26.797328
 10
-60.881262
 20
-28.051756
 10
-59.149211
 20
-29.051756
  0
LWPOLYLINE
  5
D0
330
17
100
AcDbEntity
  8
Add_Red
  6
ByLayer
100
AcDbPolyline
 90
5
 70
1
 10
-24.435961
 20
-29.629358
 10
-25.668447
 20
-28.917781
 10
-27.400498
 20
-29.917781
 10
-27.400498
 20
-31.917781
 10
-25.772667
 20
-32.85761
  0
LWPOLYLINE
  5
D1
330
17
100
AcDbEntity
  8
Add_Red
  6
ByLayer
100
AcDbPolyline
 90
6
 70
1
 10
-28.400498
 20
-31.917781
 10
-28.400498
 20
-29.917781
 10
-30.132549
 20
-28.917781
 10
-31.8646
 20
-29.917781
 10
-31.8646
 20
-31.917781
 10
-30.132549
 20
-32.917781
  0
LWPOLYLINE
  5
D2
330
17
100
AcDbEntity
  8
Add_Red
  6
ByLayer
100
AcDbPolyline
 90
6
 70
1
 10
-32.864599
 20
-31.917781
 10
-32.864599
 20
-29.917781
 10
-34.596649
 20
-28.917781
 10
-36.3287
 20
-29.917781
 10
-36.3287
 20
-31.917781
 10
-34.596649
 20
-32.917781
  0
LWPOLYLINE
  5
D3
330
17
100
AcDbEntity
  8
Add_Red
  6
ByLayer
100
AcDbPolyline
 90
6
 70
1
 10
-37.3287
 20
-31.917781
 10
-37.3287
 20
-29.917781
 10
-39.060751
 20
-28.917781
 10
-40.792802
 20
-29.917781
 10
-40.792802
 20
-31.917781
 10
-39.060751
 20
-32.917781
  0
LWPOLYLINE
  5
D4
330
17
100
AcDbEntity
  8
Add_Red
  6
ByLayer
100
AcDbPolyline
 90
6
 70
1
 10
-41.792801
 20
-31.917781
 10
-41.792801
 20
-29.917781
 10
-43.524852
 20
-28.917781
 10
-45.256902
 20
-29.917781
 10
-45.256902
 20
-31.917781
 10
-43.524852
 20
-32.917781
  0
LWPOLYLINE
  5
D5
330
17
100
AcDbEntity
  8
Add_Red
  6
ByLayer
100
AcDbPolyline
 90
6
 70
1
 10
-46.256902
 20
-31.917781
 10
-46.256902
 20
-29.917781
 10
-47.988952
 20
-28.917781
 10
-49.721003
 20
-29.917781
 10
-49.721003
 20
-31.917781
 10
-47.988952
 20
-32.917781
  0
LWPOLYLINE
  5
D6
330
17
100
AcDbEntity
  8
Add_Red
  6
ByLayer
100
AcDbPolyline
 90
6
 70
1
 10
-50.721003
 20
-31.917781
 10
-50.721003
 20
-29.917781
 10
-52.453054
 20
-28.917781
 10
-54.185105
 20
-29.917781
 10
-54.185105
 20
-31.917781
 10
-52.453054
 20
-32.917781
  0
LWPOLYLINE
  5
D7
330
17
100
AcDbEntity
  8
Add_Red
  6
ByLayer
100
AcDbPolyline
 90
6
 70
1
 10
-55.185104
 20
-31.917781
 10
-55.185104
 20
-29.917781
 10
-56.917154
 20
-28.917781
 10
-58.649205
 20
-29.917781
 10
-58.649205
 20
-31.917781
 10
-56.917154
 20
-32.917781
  0
LWPOLYLINE
  5
D8
330
17
100
AcDbEntity
  8
Add_Red
  6
ByLayer
100
AcDbPolyline
 90
6
 70
1
 10
-59.649205
 20
-31.917781
 10
-59.649205
 20
-29.917781
 10
-61.381256
 20
-28.917781
 10
-61.699293
 20
-29.1014
 10
-62.787817
 20
-32.105703
 10
-61.381256
 20
-32.917781
  0
LWPOLYLINE
  5
D9
330
17
100
AcDbEntity
  8
Add_Red
  6
ByLayer
100
AcDbPolyline
 90
8
 70
1
 10
-26.995973
 20
-36.261594
 10
-26.175324
 20
-33.83006
 10
-26.168421
 20
-33.813389
 10
-26.168421
 20
-33.783807
 10
-27.900471
 20
-32.783807
 10
-29.632522
 20
-33.783807
 10
-29.632522
 20
-35.783807
 10
-27.900471
 20
-36.783807
  0
LWPOLYLINE
  5
DA
330
17
100
AcDbEntity
  8
Add_Red
  6
ByLayer
100
AcDbPolyline
 90
6
 70
1
 10
-30.632522
 20
-35.783807
 10
-30.632522
 20
-33.783807
 10
-32.364573
 20
-32.783807
 10
-34.096623
 20
-33.783807
 10
-34.096623
 20
-35.783807
 10
-32.364573
 20
-36.783807
  0
LWPOLYLINE
  5
DB
330
17
100
AcDbEntity
  8
Add_Red
  6
ByLayer
100
AcDbPolyline
 90
6
 70
1
 10
-35.096622
 20
-35.783807
 10
-35.096622
 20
-33.783807
 10
-36.828673
 20
-32.783807
 10
-38.560724
 20
-33.783807
 10
-38.560724
 20
-35.783807
 10
-36.828673
 20
-36.783807
  0
LWPOLYLINE
  5
DC
330
17
100
AcDbEntity
  8
Add_Red
  6
ByLayer
100
AcDbPolyline
 90
6
 70
1
 10
-39.560724
 20
-35.783807
 10
-39.560724
 20
-33.783807
 10
-41.292775
 20
-32.783807
 10
-43.024826
 20
-33.783807
 10
-43.024826
 20
-35.783807
 10
-41.292775
 20
-36.783807
  0
LWPOLYLINE
  5
DD
330
17
100
AcDbEntity
  8
Add_Red
  6
ByLayer
100
AcDbPolyline
 90
6
 70
1
 10
-44.024825
 20
-35.783807
 10
-44.024825
 20
-33.783807
 10
-45.756875
 20
-32.783807
 10
-47.488926
 20
-33.783807
 10
-47.488926
 20
-35.783807
 10
-45.756875
 20
-36.783807
  0
LWPOLYLINE
  5
DE
330
17
100
AcDbEntity
  8
Add_Red
  6
ByLayer
100
AcDbPolyline
 90
6
 70
1
 10
-48.488926
 20
-35.783807
 10
-48.488926
 20
-33.783807
 10
-50.220976
 20
-32.783807
 10
-51.953027
 20
-33.783807
 10
-51.953027
 20
-35.783807
 10
-50.220976
 20
-36.783807
  0
LWPOLYLINE
  5
DF
330
17
100
AcDbEntity
  8
Add_Red
  6
ByLayer
100
AcDbPolyline
 90
6
 70
1
 10
-52.953027
 20
-35.783807
 10
-52.953027
 20
-33.783807
 10
-54.685078
 20
-32.783807
 10
-56.417128
 20
-33.783807
 10
-56.417128
 20
-35.783807
 10
-54.685078
 20
-36.783807
  0
LWPOLYLINE
  5
E0
330
17
100
AcDbEntity
  8
Add_Red
  6
ByLayer
100
AcDbPolyline
 90
6
 70
1
 10
-57.417127
 20
-35.783807
 10
-57.417127
 20
-33.783807
 10
-59.149178
 20
-32.783807
 10
-60.881229
 20
-33.783807
 10
-60.881229
 20
-35.783807
 10
-59.149178
 20
-36.783807
  0
LWPOLYLINE
  5
E1
330
17
100
AcDbEntity
  8
Add_Red
  6
ByLayer
100
AcDbPolyline
 90
6
 70
1
 10
-61.881229
 20
-35.783807
 10
-61.881229
 20
-33.783807
 10
-63.133808
 20
-33.06063
 10
-64.286871
 20
-36.243058
 10
-64.323403
 20
-36.373817
 10
-63.61328
 20
-36.783807
  0
LWPOLYLINE
  5
E2
330
17
100
AcDbEntity
  8
Add_Red
  6
ByLayer
100
AcDbPolyline
 90
6
 70
1
 10
-28.400466
 20
-39.649833
 10
-28.400466
 20
-37.649832
 10
-30.132516
 20
-36.649832
 10
-31.864567
 20
-37.649832
 10
-31.864567
 20
-39.649833
 10
-30.132516
 20
-40.649833
  0
LWPOLYLINE
  5
E3
330
17
100
AcDbEntity
  8
Add_Red
  6
ByLayer
100
AcDbPolyline
 90
6
 70
1
 10
-32.864567
 20
-39.649833
 10
-32.864567
 20
-37.649832
 10
-34.596617
 20
-36.649832
 10
-36.328668
 20
-37.649832
 10
-36.328668
 20
-39.649833
 10
-34.596617
 20
-40.649833
  0
LWPOLYLINE
  5
E4
330
17
100
AcDbEntity
  8
Add_Red
  6
ByLayer
100
AcDbPolyline
 90
6
 70
1
 10
-37.328667
 20
-39.649833
 10
-37.328667
 20
-37.649832
 10
-39.060718
 20
-36.649832
 10
-40.792769
 20
-37.649832
 10
-40.792769
 20
-39.649833
 10
-39.060718
 20
-40.649833
  0
LWPOLYLINE
  5
E5
330
17
100
AcDbEntity
  8
Add_Red
  6
ByLayer
100
AcDbPolyline
 90
6
 70
1
 10
-41.792769
 20
-39.649833
 10
-41.792769
 20
-37.649832
 10
-43.52482
 20
-36.649832
 10
-45.256869
 20
-37.649832
 10
-45.256869
 20
-39.649833
 10
-43.52482
 20
-40.649833
  0
LWPOLYLINE
  5
E6
330
17
100
AcDbEntity
  8
Add_Red
  6
ByLayer
100
AcDbPolyline
 90
6
 70
1
 10
-46.256869
 20
-39.649833
 10
-46.256869
 20
-37.649832
 10
-47.98892
 20
-36.649832
 10
-49.720971
 20
-37.649832
 10
-49.720971
 20
-39.649833
 10
-47.98892
 20
-40.649833
  0
LWPOLYLINE
  5
E7
330
17
100
AcDbEntity
  8
Add_Red
  6
ByLayer
100
AcDbPolyline
 90
6
 70
1
 10
-50.720971
 20
-39.649833
 10
-50.720971
 20
-37.649832
 10
-52.453021
 20
-36.649832
 10
-54.185072
 20
-37.649832
 10
-54.185072
 20
-39.649833
 10
-52.453021
 20
-40.649833
  0
LWPOLYLINE
  5
E8
330
17
100
AcDbEntity
  8
Add_Red
  6
ByLayer
100
AcDbPolyline
 90
6
 70
1
 10
-55.185072
 20
-39.649833
 10
-55.185072
 20
-37.649832
 10
-56.917122
 20
-36.649832
 10
-58.649173
 20
-37.649832
 10
-58.649173
 20
-39.649833
 10
-56.917122
 20
-40.649833
  0
LWPOLYLINE
  5
E9
330
17
100
AcDbEntity
  8
Add_Red
  6
ByLayer
100
AcDbPolyline
 90
7
 70
1
 10
-59.649172
 20
-39.649833
 10
-59.649172
 20
-37.649832
 10
-61.381223
 20
-36.649832
 10
-63.113274
 20
-37.649832
 10
-63.113274
 20
-39.283526
 10
-62.878591
 20
-39.452496
 10
-60.305627
 20
-40.028838
  0
LWPOLYLINE
  5
EA
330
17
100
AcDbEntity
  8
Add_Red
  6
ByLayer
100
AcDbPolyline
 90
5
 70
1
 10
-64.113274
 20
-37.649832
 10
-64.601202
 20
-37.368127
 10
-64.797538
 20
-38.070865
 10
-64.797541
 20
-38.070866
 10
-64.113274
 20
-38.563533
  0
LWPOLYLINE
  5
EB
330
17
100
AcDbEntity
  8
Add_Red
  6
ByLayer
100
AcDbPolyline
 90
7
 70
1
 10
-27.808052
 20
-41.730449
 10
-27.743813
 20
-40.606287
 10
-27.900439
 20
-40.515859
 10
-29.63249
 20
-41.515859
 10
-29.63249
 20
-43.515859
 10
-29.048152
 20
-43.853227
 10
-27.81876
 20
-43.988842
  0
LWPOLYLINE
  5
EC
330
17
100
AcDbEntity
  8
Add_Red
  6
ByLayer
100
AcDbPolyline
 90
6
 70
1
 10
-30.63249
 20
-43.515859
 10
-30.63249
 20
-41.515859
 10
-32.36454
 20
-40.515859
 10
-34.09659
 20
-41.515859
 10
-34.09659
 20
-43.29633
 10
-30.868941
 20
-43.652374
  0
LWPOLYLINE
  5
ED
330
17
100
AcDbEntity
  8
Add_Red
  6
ByLayer
100
AcDbPolyline
 90
5
 70
1
 10
-35.09659
 20
-41.515859
 10
-36.828641
 20
-40.515859
 10
-38.560692
 20
-41.515859
 10
-38.560692
 20
-42.803891
 10
-35.09659
 20
-43.186019
  0
LWPOLYLINE
  5
EE
330
17
100
AcDbEntity
  8
Add_Red
  6
ByLayer
100
AcDbPolyline
 90
5
 70
1
 10
-39.560691
 20
-41.515859
 10
-41.292742
 20
-40.515859
 10
-43.024793
 20
-41.515859
 10
-43.024793
 20
-42.311452
 10
-39.560691
 20
-42.69358
  0
LWPOLYLINE
  5
EF
330
17
100
AcDbEntity
  8
Add_Red
  6
ByLayer
100
AcDbPolyline
 90
5
 70
1
 10
-44.024793
 20
-41.515859
 10
-45.756843
 20
-40.515859
 10
-47.488893
 20
-41.515859
 10
-47.488893
 20
-41.819014
 10
-44.024793
 20
-42.201142
  0
LWPOLYLINE
  5
F0
330
17
100
AcDbEntity
  8
Add_Red
  6
ByLayer
100
AcDbPolyline
 90
5
 70
1
 10
-48.488893
 20
-41.515859
 10
-50.220944
 20
-40.515859
 10
-51.649631
 20
-41.340712
 10
-50.437862
 20
-41.493711
 10
-48.488893
 20
-41.708703
  0
LWPOLYLINE
  5
F1
330
17
100
AcDbEntity
  8
Add_Red
  6
ByLayer
100
AcDbPolyline
 90
3
 70
1
 10
-54.685045
 20
-40.515859
 10
-55.312661
 20
-40.878214
 10
-53.706086
 20
-41.081061
  0
LWPOLYLINE
  5
F2
330
17
100
AcDbEntity
  8
Add_Red
  6
ByLayer
100
AcDbPolyline
 90
7
 70
1
 10
63.113274
 20
41.536705
 10
63.113274
 20
43.536705
 10
62.334024
 20
43.986605
 10
60.423885
 20
43.983985
 10
59.649173
 20
43.536705
 10
59.649173
 20
41.536705
 10
61.381223
 20
40.536705
  0
LWPOLYLINE
  5
F3
330
17
100
AcDbEntity
  8
Add_Red
  6
ByLayer
100
AcDbPolyline
 90
7
 70
1
 10
58.649174
 20
41.536705
 10
58.649174
 20
43.536705
 10
57.880504
 20
43.980497
 10
55.949154
 20
43.977848
 10
55.185072
 20
43.536705
 10
55.185072
 20
41.536705
 10
56.917123
 20
40.536705
  0
LWPOLYLINE
  5
F4
330
17
100
AcDbEntity
  8
Add_Red
  6
ByLayer
100
AcDbPolyline
 90
7
 70
1
 10
54.185072
 20
41.536705
 10
54.185072
 20
43.536705
 10
53.426981
 20
43.974389
 10
51.474423
 20
43.971711
 10
50.720971
 20
43.536705
 10
50.720971
 20
41.536705
 10
52.453021
 20
40.536705
  0
LWPOLYLINE
  5
F5
330
17
100
AcDbEntity
  8
Add_Red
  6
ByLayer
100
AcDbPolyline
 90
7
 70
1
 10
49.720971
 20
41.536705
 10
49.720971
 20
43.536705
 10
48.97346
 20
43.968281
 10
46.999693
 20
43.965574
 10
46.25687
 20
43.536705
 10
46.25687
 20
41.536705
 10
47.988921
 20
40.536705
  0
LWPOLYLINE
  5
F6
330
17
100
AcDbEntity
  8
Add_Red
  6
ByLayer
100
AcDbPolyline
 90
7
 70
1
 10
45.256871
 20
41.536705
 10
45.256871
 20
43.536705
 10
44.519939
 20
43.962173
 10
42.524962
 20
43.959437
 10
41.792769
 20
43.536705
 10
41.792769
 20
41.536705
 10
43.52482
 20
40.536705
  0
LWPOLYLINE
  5
F7
330
17
100
AcDbEntity
  8
Add_Red
  6
ByLayer
100
AcDbPolyline
 90
7
 70
1
 10
40.792769
 20
41.536705
 10
40.792769
 20
43.536705
 10
40.066416
 20
43.956065
 10
38.05023
 20
43.9533
 10
37.328667
 20
43.536705
 10
37.328667
 20
41.536705
 10
39.060718
 20
40.536705
  0
LWPOLYLINE
  5
F8
330
17
100
AcDbEntity
  8
Add_Red
  6
ByLayer
100
AcDbPolyline
 90
8
 70
1
 10
36.328668
 20
41.536705
 10
36.328668
 20
43.536705
 10
35.612895
 20
43.949957
 10
33.5755
 20
43.947163
 10
32.909502
 20
43.562648
 10
32.864567
 20
43.448321
 10
32.864567
 20
41.536705
 10
34.596618
 20
40.536705
  0
LWPOLYLINE
  5
F9
330
17
100
AcDbEntity
  8
Add_Red
  6
ByLayer
100
AcDbPolyline
 90
3
 70
1
 10
64.767912
 20
43.914661
 10
64.113274
 20
43.536705
 10
64.113274
 20
42.084114
  0
LWPOLYLINE
  5
FA
330
17
100
AcDbEntity
  8
Add_Red
  6
ByLayer
100
AcDbPolyline
 90
7
 70
1
 10
60.430216
 20
37.410287
 10
60.881229
 20
37.67068
 10
60.881229
 20
39.67068
 10
59.149179
 20
40.67068
 10
57.417129
 20
39.67068
 10
57.417129
 20
37.67068
 10
57.917966
 20
37.381522
  0
LWPOLYLINE
  5
FB
330
17
100
AcDbEntity
  8
Add_Red
  6
ByLayer
100
AcDbPolyline
 90
7
 70
1
 10
55.875791
 20
37.358139
 10
56.417129
 20
37.67068
 10
56.417129
 20
39.67068
 10
54.685078
 20
40.67068
 10
52.953027
 20
39.67068
 10
52.953027
 20
37.67068
 10
53.540675
 20
37.331401
  0
LWPOLYLINE
  5
FC
330
17
100
AcDbEntity
  8
Add_Red
  6
ByLayer
100
AcDbPolyline
 90
8
 70
1
 10
51.044961
 20
37.302825
 10
51.321365
 20
37.30599
 10
51.953027
 20
37.67068
 10
51.953027
 20
39.67068
 10
50.220976
 20
40.67068
 10
48.488927
 20
39.67068
 10
48.488927
 20
37.67068
 10
49.686349
 20
36.979348
  0
LWPOLYLINE
  5
FD
330
17
100
AcDbEntity
  8
Add_Red
  6
ByLayer
100
AcDbPolyline
 90
6
 70
1
 10
47.488927
 20
37.67068
 10
47.488927
 20
39.67068
 10
45.756876
 20
40.67068
 10
44.024825
 20
39.67068
 10
44.024825
 20
37.67068
 10
45.756876
 20
36.67068
  0
LWPOLYLINE
  5
FE
330
17
100
AcDbEntity
  8
Add_Red
  6
ByLayer
100
AcDbPolyline
 90
6
 70
1
 10
43.024826
 20
37.67068
 10
43.024826
 20
39.67068
 10
41.292775
 20
40.67068
 10
39.560724
 20
39.67068
 10
39.560724
 20
37.67068
 10
41.292775
 20
36.67068
  0
LWPOLYLINE
  5
FF
330
17
100
AcDbEntity
  8
Add_Red
  6
ByLayer
100
AcDbPolyline
 90
6
 70
1
 10
38.560724
 20
37.67068
 10
38.560724
 20
39.67068
 10
36.828673
 20
40.67068
 10
35.096624
 20
39.67068
 10
35.096624
 20
37.67068
 10
36.828673
 20
36.67068
  0
LWPOLYLINE
  5
100
330
17
100
AcDbEntity
  8
Add_Red
  6
ByLayer
100
AcDbPolyline
 90
7
 70
1
 10
34.096624
 20
37.67068
 10
34.096624
 20
39.67068
 10
32.364573
 20
40.67068
 10
31.59916
 20
40.228769
 10
30.632522
 20
37.769369
 10
30.632522
 20
37.67068
 10
32.364573
 20
36.67068
  0
LWPOLYLINE
  5
101
330
17
100
AcDbEntity
  8
Add_Red
  6
ByLayer
100
AcDbPolyline
 90
5
 70
1
 10
62.450095
 20
37.433415
 10
63.606378
 20
40.666695
 10
61.881229
 20
39.67068
 10
61.881229
 20
37.67068
 10
62.295255
 20
37.431642
  0
LWPOLYLINE
  5
102
330
17
100
AcDbEntity
  8
Add_Red
  6
ByLayer
100
AcDbPolyline
 90
5
 70
1
 10
47.384017
 20
36.431176
 10
48.270331
 20
36.642202
 10
47.988954
 20
36.804655
 10
46.256903
 20
35.804655
 10
46.256903
 20
35.793471
  0
LWPOLYLINE
  5
103
330
17
100
AcDbEntity
  8
Add_Red
  6
ByLayer
100
AcDbPolyline
 90
7
 70
1
 10
44.071706
 20
34.557119
 10
45.256903
 20
35.227686
 10
45.256903
 20
35.804655
 10
43.524852
 20
36.804655
 10
41.792801
 20
35.804655
 10
41.792801
 20
33.804655
 10
42.699839
 20
33.280976
  0
LWPOLYLINE
  5
104
330
17
100
AcDbEntity
  8
Add_Red
  6
ByLayer
100
AcDbPolyline
 90
6
 70
1
 10
40.792802
 20
33.804655
 10
40.792802
 20
35.804655
 10
39.060751
 20
36.804655
 10
37.3287
 20
35.804655
 10
37.3287
 20
33.804655
 10
39.060751
 20
32.804654
  0
LWPOLYLINE
  5
105
330
17
100
AcDbEntity
  8
Add_Red
  6
ByLayer
100
AcDbPolyline
 90
6
 70
1
 10
36.3287
 20
33.804655
 10
36.3287
 20
35.804655
 10
34.59665
 20
36.804655
 10
32.8646
 20
35.804655
 10
32.8646
 20
33.804655
 10
34.59665
 20
32.804654
  0
LWPOLYLINE
  5
106
330
17
100
AcDbEntity
  8
Add_Red
  6
ByLayer
100
AcDbPolyline
 90
6
 70
1
 10
31.8646
 20
33.804655
 10
31.8646
 20
35.804655
 10
30.23101
 20
36.747809
 10
29.621944
 20
35.198173
 10
28.791803
 20
33.578735
 10
30.132549
 20
32.804654
  0
LWPOLYLINE
  5
107
330
17
100
AcDbEntity
  8
Add_Red
  6
ByLayer
100
AcDbPolyline
 90
3
 70
1
 10
41.555573
 20
32.786921
 10
41.292807
 20
32.938629
 10
40.984379
 20
32.760558
  0
LWPOLYLINE
  5
108
330
17
100
AcDbEntity
  8
Add_Red
  6
ByLayer
100
AcDbPolyline
 90
3
 70
1
 10
37.421917
 20
32.596138
 10
36.828706
 20
32.938629
 10
36.132412
 20
32.536623
  0
LWPOLYLINE
  5
109
330
17
100
AcDbEntity
  8
Add_Red
  6
ByLayer
100
AcDbPolyline
 90
3
 70
1
 10
33.28826
 20
32.405356
 10
32.364605
 20
32.938629
 10
31.280445
 20
32.312688
  0
LWPOLYLINE
  5
10A
330
17
100
AcDbEntity
  8
Add_Red
  6
ByLayer
100
AcDbPolyline
 90
4
 70
1
 10
29.154604
 20
32.214573
 10
28.335067
 20
32.687734
 10
28.066785
 20
32.16437
 10
28.066788
 20
32.164367
  0
VIEWPORT
  5
10F
330
10B
100
AcDbEntity
 67
1
  8
0
  6
ByLayer
100
AcDbViewport
 10
0.0
 20
0.0
 30
0.0
 40
297.0
 41
210.0
 68
1
 69
1
 12
50.0
 22
100.0
 13
0.0
 23
0.0
 14
10.0
 24
10.0
 15
10.0
 25
10.0
 16
0.0
 26
0.0
 36
1.0
 17
0.0
 27
0.0
 37
0.0
 42
50.0
 43
0.0
 44
0.0
 45
250.0
 50
0.0
 51
0.0
 72
1000
 90
819232
  1

281
0
 71
0
 74
0
110
0.0
120
0.0
130
0.0
111
1.0
121
0.0
131
0.0
112
0.0
122
1.0
132
0.0
 79
0
146
0.0
  0
ENDSEC
  0
SECTION
  2
OBJECTS
  0
DICTIONARY
  5
112
330
0
100
AcDbDictionary
281
1
  3
ACAD_GROUP
350
113
  3
ACAD_LAYOUT
350
114
  3
ACAD_MLINESTYLE
350
115
  3
ACAD_COLOR
350
117
  3
ACAD_MATERIAL
350
118
  3
ACAD_MLEADERSTYLE
350
119
  3
ACAD_PLOTSETTINGS
350
11A
  3
ACAD_PLOTSTYLENAME
350
11B
  3
ACAD_SCALELIST
350
11D
  3
ACAD_TABLESTYLE
350
11E
  3
ACAD_VISUALSTYLE
350
11F
  3
EZDXF_META
350
127
  0
DICTIONARY
  5
113
330
112
100
AcDbDictionary
281
1
  0
DICTIONARY
  5
114
330
112
100
AcDbDictionary
281
1
  3
Model
350
1B
  3
Layout1
350
110
  0
DICTIONARY
  5
115
330
112
100
AcDbDictionary
281
1
  3
Standard
350
16
  0
LAYOUT
  5
1B
330
114
100
AcDbPlotSettings
  1

  2
none_device
  4
ISO_A4_(210.00_x_297.00_MM)
  6

 40
7.5
 41
20.0
 42
7.5
 43
20.0
 44
210.0
 45
297.0
 46
0.0
 47
0.0
 48
0.0
 49
0.0
140
0.0
141
0.0
142
1.0
143
1.0
 70
11952
 72
1
 73
1
 74
5
  7

 75
16
 76
0
 77
2
 78
300
147
1.0
148
0.0
149
0.0
100
AcDbLayout
  1
Model
 70
1
 71
0
 10
-20.0
 20
-7.5
 11
277.0
 21
202.5
 12
0.0
 22
0.0
 32
0.0
 14
25.7
 24
19.5
 34
0.0
 15
231.3
 25
175.5
 35
0.0
146
0.0
 13
0.0
 23
0.0
 33
0.0
 16
1.0
 26
0.0
 36
0.0
 17
0.0
 27
1.0
 37
0.0
 76
0
330
17
  0
LAYOUT
  5
110
330
114
100
AcDbPlotSettings
  1

  2
none_device
  4
ISO_A4_(210.00_x_297.00_MM)
  6

 40
7.5
 41
20.0
 42
7.5
 43
20.0
 44
210.0
 45
297.0
 46
0.0
 47
0.0
 48
0.0
 49
0.0
140
0.0
141
0.0
142
1.0
143
1.0
 70
688
 72
1
 73
1
 74
5
  7

 75
16
 76
0
 77
2
 78
300
147
1.0
148
0.0
149
0.0
100
AcDbLayout
  1
Layout1
 70
1
 71
1
 10
-20.0
 20
-7.5
 11
277.0
 21
202.5
 12
0.0
 22
0.0
 32
0.0
 14
25.7
 24
19.5
 34
0.0
 15
231.3
 25
175.5
 35
0.0
146
0.0
 13
0.0
 23
0.0
 33
0.0
 16
1.0
 26
0.0
 36
0.0
 17
0.0
 27
1.0
 37
0.0
 76
0
330
10B
  0
MLINESTYLE
  5
16
330
115
100
AcDbMlineStyle
  2
Standard
 70
0
  3

 62
256
 51
90.0
 52
90.0
 71
2
 49
0.5
 62
256
  6
ByLayer
 49
-0.5
 62
256
  6
ByLayer
  0
DICTIONARY
  5
117
330
112
100
AcDbDictionary
281
1
  0
DICTIONARY
  5
118
330
112
100
AcDbDictionary
281
1
  3
ByBlock
350
120
  3
ByLayer
350
121
  3
Global
350
122
  0
DICTIONARY
  5
119
330
112
100
AcDbDictionary
281
1
  3
Standard
350
124
  0
DICTIONARY
  5
11A
330
112
100
AcDbDictionary
281
1
  0
ACDBDICTIONARYWDFLT
  5
11B
330
112
100
AcDbDictionary
281
1
  3
Normal
350
11C
100
AcDbDictionaryWithDefault
340
11C
  0
ACDBPLACEHOLDER
  5
11C
330
11B
  0
DICTIONARY
  5
11D
330
112
100
AcDbDictionary
281
1
  0
DICTIONARY
  5
11E
330
112
100
AcDbDictionary
281
1
  0
DICTIONARY
  5
11F
330
112
100
AcDbDictionary
281
1
  0
MATERIAL
  5
120
102
{ACAD_REACTORS
330
118
102
}
330
118
100
AcDbMaterial
  1
ByBlock
  2

 70
0
 40
1.0
 71
1
 41
1.0
 91
-1023410177
 42
1.0
 72
1
  3

 73
1
 74
1
 75
1
 44
0.5
 73
0
 45
1.0
 46
1.0
 77
1
  4

 78
1
 79
1
170
1
 48
1.0
171
1
  6

172
1
173
1
174
1
140
1.0
141
1.0
175
1
  7

176
1
177
1
178
1
143
1.0
179
1
  8

270
1
271
1
272
1
145
1.0
146
1.0
273
1
  9

274
1
275
1
276
1
 42
1.0
 72
1
  3

 73
1
 74
1
 75
1
 94
63
  0
MATERIAL
  5
121
102
{ACAD_REACTORS
330
118
102
}
330
118
100
AcDbMaterial
  1
ByLayer
  2

 70
0
 40
1.0
 71
1
 41
1.0
 91
-1023410177
 42
1.0
 72
1
  3

 73
1
 74
1
 75
1
 44
0.5
 73
0
 45
1.0
 46
1.0
 77
1
  4

 78
1
 79
1
170
1
 48
1.0
171
1
  6

172
1
173
1
174
1
140
1.0
141
1.0
175
1
  7

176
1
177
1
178
1
143
1.0
179
1
  8

270
1
271
1
272
1
145
1.0
146
1.0
273
1
  9

274
1
275
1
276
1
 42
1.0
 72
1
  3

 73
1
 74
1
 75
1
 94
63
  0
MATERIAL
  5
122
102
{ACAD_REACTORS
330
118
102
}
330
118
100
AcDbMaterial
  1
Global
  2

 70
0
 40
1.0
 71
1
 41
1.0
 91
-1023410177
 42
1.0
 72
1
  3

 73
1
 74
1
 75
1
 44
0.5
 73
0
 45
1.0
 46
1.0
 77
1
  4

 78
1
 79
1
170
1
 48
1.0
171
1
  6

172
1
173
1
174
1
140
1.0
141
1.0
175
1
  7

176
1
177
1
178
1
143
1.0
179
1
  8

270
1
271
1
272
1
145
1.0
146
1.0
273
1
  9

274
1
275
1
276
1
 42
1.0
 72
1
  3

 73
1
 74
1
 75
1
 94
63
  0
MLEADERSTYLE
  5
124
102
{ACAD_REACTORS
330
119
102
}
330
119
100
AcDbMLeaderStyle
179
2
170
2
171
1
172
0
 90
2
 40
0.0
 41
0.0
173
1
 91
-1056964608
 92
-2
290
1
 42
2.0
291
1
 43
8.0
  3
Standard
 44
4.0
300

342
13
174
1
175
1
176
0
178
1
 93
-1056964608
 45
4.0
292
0
297
0
 46
4.0
 94
-1056964608
 47
1.0
 49
1.0
140
1.0
294
1
141
0.0
177
0
142
1.0
295
0
296
0
143
3.75
271
0
272
9
273
9
  0
DICTIONARY
  5
127
330
112
100
AcDbDictionary
280
1
281
1
  3
WRITTEN_BY_EZDXF
350
128
  0
DICTIONARYVAR
  5
128
330
127
100
DictionaryVariables
280
0
  1
1.4.3 @ 2026-07-28T02:48:20.113815+00:00
  0
ENDSEC
  0
EOF
