  0
SECTION
  2
HEADER
  9
$ACADVER
  1
AC1015
  9
$ACADMAINTVER
 70
6
  9
$DWGCODEPAGE
  3
ANSI_1252
  9
$INSBASE
 10
0.0
 20
0.0
 30
0.0
  9
$EXTMIN
 10
25.7
 20
19.5
 30
0.0
  9
$EXTMAX
 10
231.3
 20
175.5
 30
0.0
  9
$LIMMIN
 10
-20.0
 20
-7.5
  9
$LIMMAX
 10
277.0
 20
202.5
  9
$LTSCALE
 40
1.0
  9
$ATTMODE
 70
1
  9
$TEXTSIZE
 40
2.5
  9
$TEXTSTYLE
  7
Standard
  9
$CLAYER
  8
0
  9
$CELTYPE
  6
ByLayer
  9
$CECOLOR
 62
256
  9
$CELTSCALE
 40
1.0
  9
$DIMSTYLE
  2
Standard
  9
$LUNITS
 70
2
  9
$LUPREC
 70
4
  9
$AUNITS
 70
0
  9
$AUPREC
 70
0
  9
$TDCREATE
 40
2461249.8252314813
  9
$TDUCREATE
 40
2461141.98769552
  9
$TDUPDATE
 40
2461249.8252314813
  9
$TDUUPDATE
 40
2461141.98769552
  9
$TDINDWG
 40
0.0
  9
$ANGBASE
 50
0.0
  9
$ANGDIR
 70
0
  9
$PDMODE
 70
0
  9
$PDSIZE
 40
0.0
  9
$HANDSEED
  5
127
  9
$PEXTMIN
 10
25.7
 20
19.5
 30
0.0
  9
$PEXTMAX
 10
231.3
 20
175.5
 30
0.0
  9
$PLIMMIN
 10
-20.0
 20
-7.5
  9
$PLIMMAX
 10
277.0
 20
202.5
  9
$PLINEGEN
 70
0
  9
$CMLSTYLE
  2
Standard
  9
$CMLJUST
 70
0
  9
$CMLSCALE
 40
20.0
  9
$CELWEIGHT
370
-1
  9
$LWDISPLAY
290
0
  9
$INSUNITS
 70
0
  9
$FINGERPRINTGUID
  2
{1F89D682-4396-45B8-9E7D-C7CC75FE0053}
  9
$VERSIONGUID
  2
{57DC361F-1A28-4A73-BD65-A77A6E76D596}
  9
$EXTNAMES
290
1
  0
ENDSEC
  0
SECTION
  2
CLASSES
  0
CLASS
  1
RASTERVARIABLES
  2
AcDbRasterVariables
  3
ISM
 90
0
280
0
281
0
  0
CLASS
  1
ACDBDICTIONARYWDFLT
  2
AcDbDictionaryWithDefault
  3
ObjectDBX Classes
 90
0
280
0
281
0
  0
CLASS
  1
SUN
  2
AcDbSun
  3
SCENEOE
 90
1153
280
0
281
0
  0
CLASS
  1
VISUALSTYLE
  2
AcDbVisualStyle
  3
ObjectDBX Classes
 90
4095
280
0
281
0
  0
CLASS
  1
MATERIAL
  2
AcDbMaterial
  3
ObjectDBX Classes
 90
1153
280
0
281
0
  0
CLASS
  1
SCALE
  2
AcDbScale
  3
ObjectDBX Classes
 90
1153
280
0
281
0
  0
CLASS
  1
TABLESTYLE
  2
AcDbTableStyle
  3
ObjectDBX Classes
 90
4095
280
0
281
0
  0
CLASS
  1
MLEADERSTYLE
  2
AcDbMLeaderStyle
  3
ACDB_MLEADERSTYLE_CLASS
 90
4095
280
0
281
0
  0
CLASS
  1
DICTIONARYVAR
  2
AcDbDictionaryVar
  3
ObjectDBX Classes
 90
0
280
0
281
0
  0
CLASS
  1
CELLSTYLEMAP
  2
AcDbCellStyleMap
  3
ObjectDBX Classes
 90
1152
280
0
281
0
  0
CLASS
  1
MENTALRAYRENDERSETTINGS
  2
AcDbMentalRayRenderSettings
  3
SCENEOE
 90
1024
280
0
281
0
  0
CLASS
  1
ACDBDETAILVIEWSTYLE
  2
AcDbDetailViewStyle
  3
ObjectDBX Classes
 90
1025
280
0
281
0
  0
CLASS
  1
ACDBSECTIONVIEWSTYLE
  2
AcDbSectionViewStyle
  3
ObjectDBX Classes
 90
1025
280
0
281
0
  0
CLASS
  1
ACDBPLACEHOLDER
  2
AcDbPlaceHolder
  3
ObjectDBX Classes
 90
0
280
0
281
0
  0
CLASS
  1
LAYOUT
  2
AcDbLayout
  3
ObjectDBX Classes
 90
0
280
0
281
0
  0
ENDSEC
  0
SECTION
  2
TABLES
  0
TABLE
  2
VPORT
  5
1
330
0
100
AcDbSymbolTable
 70
1
  0
VPORT
  5
E
330
1
100
AcDbSymbolTableRecord
100
AcDbViewportTableRecord
  2
*Active
 70
0
 10
0.0
 20
0.0
 11
1.0
 21
1.0
 12
-1.0
 22
1.0
 13
0.0
 23
0.0
 14
0.5
 24
0.5
 15
10.0
 25
10.0
 16
0.0
 26
0.0
 36
1.0
 17
0.0
 27
0.0
 37
0.0
 40
1000.0
 41
1.34
 42
50.0
 43
0.0
 44
0.0
 50
0.0
 51
0.0
 71
0
 72
1000
 73
1
 74
3
 75
0
 76
0
 77
0
 78
0
281
0
 65
0
146
0.0
  0
ENDTAB
  0
TABLE
  2
LTYPE
  5
5
330
0
100
AcDbSymbolTable
 70
3
  0
LTYPE
  5
10
330
5
100
AcDbSymbolTableRecord
100
AcDbLinetypeTableRecord
  2
Continuous
 70
0
  3
Solid line
 72
65
 73
0
 40
0.0
  0
LTYPE
  5
11
330
5
100
AcDbSymbolTableRecord
100
AcDbLinetypeTableRecord
  2
ByLayer
 70
0
  3

 72
65
 73
0
 40
0.0
  0
LTYPE
  5
12
330
5
100
AcDbSymbolTableRecord
100
AcDbLinetypeTableRecord
  2
ByBlock
 70
0
  3

 72
65
 73
0
 40
0.0
  0
ENDTAB
  0
TABLE
  2
LAYER
  5
4
330
0
100
AcDbSymbolTable
 70
5
  0
LAYER
  5
F
330
4
100
AcDbSymbolTableRecord
100
AcDbLayerTableRecord
  2
0
 70
0
 62
7
  6
Continuous
370
-3
390
0
  0
LAYER
  5
1D
330
4
100
AcDbSymbolTableRecord
100
AcDbLayerTableRecord
  2
Polyline_58_Red
 70
0
 62
1
  6
Continuous
370
-3
390
0
  0
LAYER
  5
1E
330
4
100
AcDbSymbolTableRecord
100
AcDbLayerTableRecord
  2
Polyline_60_Red
 70
0
 62
1
  6
Continuous
370
-3
390
0
  0
LAYER
  5
1F
330
4
100
AcDbSymbolTableRecord
100
AcDbLayerTableRecord
  2
Add_Red
 70
0
 62
1
  6
Continuous
370
-3
390
0
  0
LAYER
  5
121
330
4
100
AcDbSymbolTableRecord
100
AcDbLayerTableRecord
  2
Defpoints
 70
0
 62
7
  6
Continuous
290
0
370
-3
390
11A
  0
ENDTAB
  0
TABLE
  2
STYLE
  5
6
330
0
100
AcDbSymbolTable
 70
1
  0
STYLE
  5
13
330
6
100
AcDbSymbolTableRecord
100
AcDbTextStyleTableRecord
  2
Standard
 70
0
 40
0.0
 41
1.0
 50
0.0
 71
0
 42
0.0
  3
simplex.shx
  4

  0
ENDTAB
  0
TABLE
  2
VIEW
  5
2
330
0
100
AcDbSymbolTable
 70
0
  0
ENDTAB
  0
TABLE
  2
UCS
  5
9
330
0
100
AcDbSymbolTable
 70
0
  0
ENDTAB
  0
TABLE
  2
APPID
  5
3
330
0
100
AcDbSymbolTable
 70
4
  0
APPID
  5
14
330
3
100
AcDbSymbolTableRecord
100
AcDbRegAppTableRecord
  2
ACAD
 70
0
  0
APPID
  5
10F
330
3
100
AcDbSymbolTableRecord
100
AcDbRegAppTableRecord
  2
AcCmTransparency
 70
0
  0
APPID
  5
123
330
3
100
AcDbSymbolTableRecord
100
AcDbRegAppTableRecord
  2
HATCHBACKGROUNDCOLOR
 70
0
  0
APPID
  5
124
330
3
100
AcDbSymbolTableRecord
100
AcDbRegAppTableRecord
  2
EZDXF
 70
0
  0
ENDTAB
  0
TABLE
  2
DIMSTYLE
  5
7
330
0
100
AcDbSymbolTable
 70
1
100
AcDbDimStyleTable
  0
DIMSTYLE
105
15
330
7
100
AcDbSymbolTableRecord
100
AcDbDimStyleTableRecord
  2
Standard
 70
0
  3
<>
  4

 40
1.0
 41
0.18
 42
0.0625
 43
0.38
 44
0.18
 45
0.0
 46
0.0
 47
0.0
 48
0.0
140
0.18
141
0.09
142
0.0
143
0.03937007874
144
1.0
145
0.0
146
1.0
147
0.09
148
0.0
 71
0
 72
0
 73
0
 74
0
 75
0
 76
0
 77
1
 78
8
 79
3
170
0
171
3
172
1
173
0
174
0
175
0
176
0
177
0
178
0
179
0
271
2
272
2
273
2
274
3
275
0
276
0
277
2
278
46
279
0
280
0
281
0
282
0
283
0
284
8
285
0
286
0
288
0
289
3
340
13
371
-2
372
-2
  0
ENDTAB
  0
TABLE
  2
BLOCK_RECORD
  5
A
330
0
100
AcDbSymbolTable
 70
2
  0
BLOCK_RECORD
  5
17
330
A
100
AcDbSymbolTableRecord
100
AcDbBlockTableRecord
  2
*Model_Space
340
1B
  0
BLOCK_RECORD
  5
109
330
A
100
AcDbSymbolTableRecord
100
AcDbBlockTableRecord
  2
*Paper_Space
340
10E
  0
ENDTAB
  0
ENDSEC
  0
SECTION
  2
BLOCKS
  0
BLOCK
  5
19
330
17
100
AcDbEntity
  8
0
100
AcDbBlockBegin
  2
*Model_Space
 70
0
 10
0.0
 20
0.0
 30
0.0
  3
*Model_Space
  1

  0
ENDBLK
  5
18
330
17
100
AcDbEntity
  8
0
100
AcDbBlockEnd
  0
BLOCK
  5
10B
330
109
100
AcDbEntity
  8
0
100
AcDbBlockBegin
  2
*Paper_Space
 70
0
 10
0.0
 20
0.0
 30
0.0
  3
*Paper_Space
  1

  0
ENDBLK
  5
10A
330
109
100
AcDbEntity
  8
0
100
AcDbBlockEnd
  0
ENDSEC
  0
SECTION
  2
ENTITIES
  0
LWPOLYLINE
  5
20
330
17
100
AcDbEntity
  8
Polyline_58_Red
  6
ByLayer
100
AcDbPolyline
 90
38
 70
1
 10
-49.6716229197623
 20
53.4888505902432
 10
-45.6990175435957
 20
51.343641063451
 10
-43.077098205134
 20
49.1984315366589
 10
-40.8524392135541
 20
45.4641776951887
 10
-37.673682429313
 20
32.0753753170056
 10
-41.0677380609434
 20
22.2113884586677
 10
-46.9012711182036
 20
10.8625001887651
 10
-53.2651251890922
 20
0.256061670970459
 10
-58.6744015308171
 20
-10.1382472563083
 10
-61.6442002084938
 20
-18.5173327030815
 10
-64.2958062303097
 20
-25.8357749656473
 10
-64.80845
 20
-27.6706694829888
 10
-62.8821927804633
 20
-29.0575765681077
 10
-58.0665499700399
 20
-30.1362821052466
 10
-50.438571762144
 20
-31.0994119724862
 10
-27.8085562115465
 20
-33.5957677165
 10
-27.7977960721928
 20
-31.326528077879
 10
-27.5872047688905
 20
-27.6411753169455
 10
-26.165713434347
 20
-23.429343794523
 10
-8.89953308402784
 20
18.2702674015006
 10
-16.9532423876531
 20
20.8274265582234
 10
-14.1483706822851
 20
28.9052234036402
 10
-5.8121373270895
 20
26.0596628848726
 10
-0.725669662398822
 20
36.0189713974146
 10
2.06658684167097
 20
40.4068087581641
 10
5.4571839740946
 20
42.8666566576626
 10
8.91426339855756
 20
43.5314804803321
 10
12.5043071686806
 20
43.5979628596189
 10
20.0521262055217
 20
43.7182590012647
 10
23.6736846138741
 20
54.0935364040988
 10
-3.59017246490693
 20
54.3717809261716
 10
-8.41515603652734
 20
41.7328698207041
 10
-32.0041157132603
 20
41.7588308283357
 10
-33.906098588509
 20
42.7494481520654
 10
-34.8174653431626
 20
44.6910582281692
 10
-31.159284656397
 20
54.2833728407145
 10
-53.2469705288102
 20
54.3628250489978
 10
-49.6716257379439
 20
53.4888507355295
  0
LWPOLYLINE
  5
21
330
17
100
AcDbEntity
  8
Polyline_60_Red
  6
ByLayer
100
AcDbPolyline
 90
10
 70
1
 10
29.6125454943859
 20
45.6065251746936
 10
33.0532283996533
 20
54.3606792818099
 10
64.80845
 20
54.4042322835
 10
62.4565909075776
 20
47.8277286036145
 10
51.0457179020934
 20
47.6970695910936
 10
47.3872704249919
 20
46.826009467885
 10
44.0772463581924
 20
44.9532302387493
 10
42.4984698500882
 20
43.4412924822469
 10
28.5078064934802
 20
43.6406393864712
 10
29.6125429909914
 20
45.6065255099697
  0
LWPOLYLINE
  5
22
330
17
100
AcDbEntity
  8
Add_Red
  6
ByLayer
100
AcDbPolyline
 90
7
 70
1
 10
0.615861
 20
51.930514
 10
0.615861
 20
53.930514
 10
-0.068821
 20
54.325815
 10
-2.127173
 20
54.346822
 10
-2.84824
 20
53.930514
 10
-2.84824
 20
51.930514
 10
-1.116189
 20
50.930514
  0
LWPOLYLINE
  5
23
330
17
100
AcDbEntity
  8
Add_Red
  6
ByLayer
100
AcDbPolyline
 90
6
 70
1
 10
-48.48925
 20
53.930514
 10
-49.195428
 20
54.338226
 10
-51.23447
 20
54.345561
 10
-51.799584
 20
54.019292
 10
-49.66799
 20
53.498235
 10
-48.48925
 20
52.861714
  0
LWPOLYLINE
  5
24
330
17
100
AcDbEntity
  8
Add_Red
  6
ByLayer
100
AcDbPolyline
 90
8
 70
1
 10
-44.025149
 20
51.930514
 10
-44.025149
 20
53.930514
 10
-44.703339
 20
54.322068
 10
-46.798009
 20
54.329602
 10
-47.48925
 20
53.930514
 10
-47.48925
 20
52.321713
 10
-45.693416
 20
51.351961
 10
-45.417806
 20
51.126462
  0
LWPOLYLINE
  5
25
330
17
100
AcDbEntity
  8
Add_Red
  6
ByLayer
100
AcDbPolyline
 90
7
 70
1
 10
-39.561048
 20
51.930514
 10
-39.561048
 20
53.930514
 10
-40.211251
 20
54.305909
 10
-42.36155
 20
54.313644
 10
-43.02515
 20
53.930514
 10
-43.02515
 20
51.930514
 10
-41.293099
 20
50.930514
  0
LWPOLYLINE
  5
26
330
17
100
AcDbEntity
  8
Add_Red
  6
ByLayer
100
AcDbPolyline
 90
7
 70
1
 10
5.079961
 20
51.930514
 10
5.079961
 20
53.930514
 10
4.475609
 20
54.279437
 10
2.259387
 20
54.302055
 10
1.61586
 20
53.930514
 10
1.61586
 20
51.930514
 10
3.34791
 20
50.930514
  0
LWPOLYLINE
  5
27
330
17
100
AcDbEntity
  8
Add_Red
  6
ByLayer
100
AcDbPolyline
 90
7
 70
1
 10
-35.096947
 20
51.930514
 10
-35.096947
 20
53.930514
 10
-35.719163
 20
54.28975
 10
-37.925089
 20
54.297685
 10
-38.561048
 20
53.930514
 10
-38.561048
 20
51.930514
 10
-36.828998
 20
50.930514
  0
LWPOLYLINE
  5
28
330
17
100
AcDbEntity
  8
Add_Red
  6
ByLayer
100
AcDbPolyline
 90
6
 70
1
 10
-31.183332
 20
54.248337
 10
-31.227074
 20
54.273592
 10
-33.488629
 20
54.281727
 10
-34.096947
 20
53.930514
 10
-34.096947
 20
51.930514
 10
-32.433526
 20
50.970137
  0
LWPOLYLINE
  5
29
330
17
100
AcDbEntity
  8
Add_Red
  6
ByLayer
100
AcDbPolyline
 90
7
 70
1
 10
9.544062
 20
51.930514
 10
9.544062
 20
53.930514
 10
9.02004
 20
54.233058
 10
6.645948
 20
54.257287
 10
6.079961
 20
53.930514
 10
6.079961
 20
51.930514
 10
7.812011
 20
50.930514
  0
LWPOLYLINE
  5
2A
330
17
100
AcDbEntity
  8
Add_Red
  6
ByLayer
100
AcDbPolyline
 90
7
 70
1
 10
14.008163
 20
51.930514
 10
14.008163
 20
53.930514
 10
13.564472
 20
54.186679
 10
11.03251
 20
54.21252
 10
10.544062
 20
53.930514
 10
10.544062
 20
51.930514
 10
12.276113
 20
50.930514
  0
LWPOLYLINE
  5
2B
330
17
100
AcDbEntity
  8
Add_Red
  6
ByLayer
100
AcDbPolyline
 90
7
 70
1
 10
18.472264
 20
51.930514
 10
18.472264
 20
53.930514
 10
18.108903
 20
54.140301
 10
15.41907
 20
54.167752
 10
15.008162
 20
53.930514
 10
15.008162
 20
51.930514
 10
16.740213
 20
50.930514
  0
LWPOLYLINE
  5
2C
330
17
100
AcDbEntity
  8
Add_Red
  6
ByLayer
100
AcDbPolyline
 90
8
 70
1
 10
22.900926
 20
51.910053
 10
22.936366
 20
52.011584
 10
22.936366
 20
53.930514
 10
22.653335
 20
54.093922
 10
19.805633
 20
54.122984
 10
19.472264
 20
53.930514
 10
19.472264
 20
51.930514
 10
21.204315
 20
50.930514
  0
LWPOLYLINE
  5
2D
330
17
100
AcDbEntity
  8
Add_Red
  6
ByLayer
100
AcDbPolyline
 90
3
 70
1
 10
-3.84824
 20
51.930514
 10
-3.84824
 20
53.66773
 10
-4.698932
 20
51.439367
  0
LWPOLYLINE
  5
2E
330
17
100
AcDbEntity
  8
Add_Red
  6
ByLayer
100
AcDbPolyline
 90
6
 70
1
 10
20.704321
 20
48.064488
 10
20.704321
 20
50.064489
 10
18.97227
 20
51.064489
 10
17.240219
 20
50.064489
 10
17.240219
 20
48.064488
 10
18.97227
 20
47.064488
  0
LWPOLYLINE
  5
2F
330
17
100
AcDbEntity
  8
Add_Red
  6
ByLayer
100
AcDbPolyline
 90
6
 70
1
 10
16.240219
 20
48.064488
 10
16.240219
 20
50.064489
 10
14.508168
 20
51.064489
 10
12.776119
 20
50.064489
 10
12.776119
 20
48.064488
 10
14.508168
 20
47.064488
  0
LWPOLYLINE
  5
30
330
17
100
AcDbEntity
  8
Add_Red
  6
ByLayer
100
AcDbPolyline
 90
6
 70
1
 10
11.776119
 20
48.064488
 10
11.776119
 20
50.064489
 10
10.044068
 20
51.064489
 10
8.312017
 20
50.064489
 10
8.312017
 20
48.064488
 10
10.044068
 20
47.064488
  0
LWPOLYLINE
  5
31
330
17
100
AcDbEntity
  8
Add_Red
  6
ByLayer
100
AcDbPolyline
 90
6
 70
1
 10
7.312017
 20
48.064488
 10
7.312017
 20
50.064489
 10
5.579966
 20
51.064489
 10
3.847916
 20
50.064489
 10
3.847916
 20
48.064488
 10
5.579966
 20
47.064488
  0
LWPOLYLINE
  5
32
330
17
100
AcDbEntity
  8
Add_Red
  6
ByLayer
100
AcDbPolyline
 90
6
 70
1
 10
2.847916
 20
48.064488
 10
2.847916
 20
50.064489
 10
1.115866
 20
51.064489
 10
-0.616184
 20
50.064489
 10
-0.616184
 20
48.064488
 10
1.115866
 20
47.064488
  0
LWPOLYLINE
  5
33
330
17
100
AcDbEntity
  8
Add_Red
  6
ByLayer
100
AcDbPolyline
 90
6
 70
1
 10
-1.616183
 20
48.064488
 10
-1.616183
 20
50.064489
 10
-3.348234
 20
51.064489
 10
-5.080285
 20
50.064489
 10
-5.080285
 20
48.064488
 10
-3.348234
 20
47.064488
  0
LWPOLYLINE
  5
34
330
17
100
AcDbEntity
  8
Add_Red
  6
ByLayer
100
AcDbPolyline
 90
7
 70
1
 10
-33.732722
 20
47.563445
 10
-32.864891
 20
49.839032
 10
-32.864891
 20
50.064489
 10
-34.596941
 20
51.064489
 10
-36.328992
 20
50.064489
 10
-36.328992
 20
48.064488
 10
-34.596941
 20
47.064488
  0
LWPOLYLINE
  5
35
330
17
100
AcDbEntity
  8
Add_Red
  6
ByLayer
100
AcDbPolyline
 90
6
 70
1
 10
-37.328992
 20
48.064488
 10
-37.328992
 20
50.064489
 10
-39.061043
 20
51.064489
 10
-40.793093
 20
50.064489
 10
-40.793093
 20
48.064488
 10
-39.061043
 20
47.064488
  0
LWPOLYLINE
  5
36
330
17
100
AcDbEntity
  8
Add_Red
  6
ByLayer
100
AcDbPolyline
 90
6
 70
1
 10
-41.793093
 20
48.064488
 10
-41.793093
 20
50.064489
 10
-43.525144
 20
51.064489
 10
-44.590377
 20
50.449476
 10
-43.069395
 20
49.205037
 10
-42.237177
 20
47.808096
  0
LWPOLYLINE
  5
37
330
17
100
AcDbEntity
  8
Add_Red
  6
ByLayer
100
AcDbPolyline
 90
3
 70
1
 10
22.396141
 20
50.463912
 10
21.70432
 20
50.064489
 10
21.70432
 20
48.481939
  0
LWPOLYLINE
  5
38
330
17
100
AcDbEntity
  8
Add_Red
  6
ByLayer
100
AcDbPolyline
 90
5
 70
1
 10
21.247598
 20
47.173492
 10
21.204347
 20
47.198463
 10
19.472296
 20
46.198463
 10
19.472296
 20
44.198463
 10
20.085555
 20
43.844398
  0
LWPOLYLINE
  5
39
330
17
100
AcDbEntity
  8
Add_Red
  6
ByLayer
100
AcDbPolyline
 90
7
 70
1
 10
17.589875
 20
43.688997
 10
18.472297
 20
44.198463
 10
18.472297
 20
46.198463
 10
16.740246
 20
47.198463
 10
15.008195
 20
46.198463
 10
15.008195
 20
44.198463
 10
15.936265
 20
43.662641
  0
LWPOLYLINE
  5
3A
330
17
100
AcDbEntity
  8
Add_Red
  6
ByLayer
100
AcDbPolyline
 90
8
 70
1
 10
12.504122
 20
43.60794
 10
12.999042
 20
43.615828
 10
14.008195
 20
44.198463
 10
14.008195
 20
46.198463
 10
12.276145
 20
47.198463
 10
10.544095
 20
46.198463
 10
10.544095
 20
44.198463
 10
11.596037
 20
43.591124
  0
LWPOLYLINE
  5
3B
330
17
100
AcDbEntity
  8
Add_Red
  6
ByLayer
100
AcDbPolyline
 90
7
 70
1
 10
8.15283
 20
43.395216
 10
9.544095
 20
44.198463
 10
9.544095
 20
46.198463
 10
7.812044
 20
47.198463
 10
6.079993
 20
46.198463
 10
6.079993
 20
44.198463
 10
7.641556
 20
43.296894
  0
LWPOLYLINE
  5
3C
330
17
100
AcDbEntity
  8
Add_Red
  6
ByLayer
100
AcDbPolyline
 90
6
 70
1
 10
5.079993
 20
44.198463
 10
5.079993
 20
46.198463
 10
3.347942
 20
47.198463
 10
1.615893
 20
46.198463
 10
1.615893
 20
44.198463
 10
3.347942
 20
43.198463
  0
LWPOLYLINE
  5
3D
330
17
100
AcDbEntity
  8
Add_Red
  6
ByLayer
100
AcDbPolyline
 90
6
 70
1
 10
0.615893
 20
44.198463
 10
0.615893
 20
46.198463
 10
-1.116157
 20
47.198463
 10
-2.848208
 20
46.198463
 10
-2.848208
 20
44.198463
 10
-1.116157
 20
43.198463
  0
LWPOLYLINE
  5
3E
330
17
100
AcDbEntity
  8
Add_Red
  6
ByLayer
100
AcDbPolyline
 90
7
 70
1
 10
-3.848207
 20
44.198463
 10
-3.848207
 20
46.198463
 10
-5.580258
 20
47.198463
 10
-6.526477
 20
46.652163
 10
-7.312309
 20
44.593699
 10
-7.312309
 20
44.198463
 10
-5.580258
 20
43.198463
  0
LWPOLYLINE
  5
3F
330
17
100
AcDbEntity
  8
Add_Red
  6
ByLayer
100
AcDbPolyline
 90
6
 70
1
 10
-35.096914
 20
44.198463
 10
-35.096914
 20
46.198463
 10
-36.828965
 20
47.198463
 10
-38.561016
 20
46.198463
 10
-38.561016
 20
44.198463
 10
-36.828965
 20
43.198463
  0
LWPOLYLINE
  5
40
330
17
100
AcDbEntity
  8
Add_Red
  6
ByLayer
100
AcDbPolyline
 90
6
 70
1
 10
-39.561016
 20
44.198463
 10
-39.561016
 20
46.198463
 10
-41.293067
 20
47.198463
 10
-41.725318
 20
46.948902
 10
-40.843056
 20
45.467958
 10
-40.423438
 20
43.700544
  0
LWPOLYLINE
  5
41
330
17
100
AcDbEntity
  8
Add_Red
  6
ByLayer
100
AcDbPolyline
 90
5
 70
1
 10
5.453101
 20
42.876038
 10
6.141282
 20
43.00838
 10
5.579999
 20
43.332437
 10
3.847948
 20
42.332437
 10
3.847948
 20
41.711514
  0
LWPOLYLINE
  5
42
330
17
100
AcDbEntity
  8
Add_Red
  6
ByLayer
100
AcDbPolyline
 90
8
 70
1
 10
1.519233
 20
39.565302
 10
2.059164
 20
40.413767
 10
2.847948
 20
40.986023
 10
2.847948
 20
42.332437
 10
1.115899
 20
43.332437
 10
-0.616151
 20
42.332437
 10
-0.616151
 20
40.332437
 10
1.115899
 20
39.332437
  0
LWPOLYLINE
  5
43
330
17
100
AcDbEntity
  8
Add_Red
  6
ByLayer
100
AcDbPolyline
 90
6
 70
1
 10
-1.616151
 20
40.332437
 10
-1.616151
 20
42.332437
 10
-3.348202
 20
43.332437
 10
-5.080253
 20
42.332437
 10
-5.080253
 20
40.332437
 10
-3.348202
 20
39.332437
  0
LWPOLYLINE
  5
44
330
17
100
AcDbEntity
  8
Add_Red
  6
ByLayer
100
AcDbPolyline
 90
8
 70
1
 10
-32.864859
 20
40.332437
 10
-32.864859
 20
42.195844
 10
-33.913706
 20
42.742119
 10
-34.039823
 20
43.010803
 10
-34.596909
 20
43.332437
 10
-36.328959
 20
42.332437
 10
-36.328959
 20
40.332437
 10
-34.596909
 20
39.332437
  0
LWPOLYLINE
  5
45
330
17
100
AcDbEntity
  8
Add_Red
  6
ByLayer
100
AcDbPolyline
 90
6
 70
1
 10
-37.328959
 20
40.332437
 10
-37.328959
 20
42.332437
 10
-39.06101
 20
43.332437
 10
-40.182338
 20
42.685038
 10
-39.438048
 20
39.55012
 10
-39.06101
 20
39.332437
  0
LWPOLYLINE
  5
46
330
17
100
AcDbEntity
  8
Add_Red
  6
ByLayer
100
AcDbPolyline
 90
7
 70
1
 10
-6.080252
 20
40.332437
 10
-6.080252
 20
42.332437
 10
-7.797145
 20
43.323685
 10
-8.408276
 20
41.722845
 10
-9.544353
 20
41.724095
 10
-9.544353
 20
40.332437
 10
-7.812303
 20
39.332437
  0
LWPOLYLINE
  5
47
330
17
100
AcDbEntity
  8
Add_Red
  6
ByLayer
100
AcDbPolyline
 90
5
 70
1
 10
-28.400757
 20
40.332437
 10
-28.400757
 20
41.744846
 10
-31.864859
 20
41.748658
 10
-31.864859
 20
40.332437
 10
-30.132808
 20
39.332437
  0
LWPOLYLINE
  5
48
330
17
100
AcDbEntity
  8
Add_Red
  6
ByLayer
100
AcDbPolyline
 90
5
 70
1
 10
-23.936656
 20
40.332437
 10
-23.936656
 20
41.739933
 10
-27.400758
 20
41.743745
 10
-27.400758
 20
40.332437
 10
-25.668707
 20
39.332437
  0
LWPOLYLINE
  5
49
330
17
100
AcDbEntity
  8
Add_Red
  6
ByLayer
100
AcDbPolyline
 90
5
 70
1
 10
-19.472556
 20
40.332437
 10
-19.472556
 20
41.735021
 10
-22.936656
 20
41.738833
 10
-22.936656
 20
40.332437
 10
-21.204606
 20
39.332437
  0
LWPOLYLINE
  5
4A
330
17
100
AcDbEntity
  8
Add_Red
  6
ByLayer
100
AcDbPolyline
 90
5
 70
1
 10
-15.008454
 20
40.332437
 10
-15.008454
 20
41.730108
 10
-18.472556
 20
41.73392
 10
-18.472556
 20
40.332437
 10
-16.740505
 20
39.332437
  0
LWPOLYLINE
  5
4B
330
17
100
AcDbEntity
  8
Add_Red
  6
ByLayer
100
AcDbPolyline
 90
5
 70
1
 10
-10.544353
 20
40.332437
 10
-10.544353
 20
41.725196
 10
-14.008455
 20
41.729008
 10
-14.008455
 20
40.332437
 10
-12.276404
 20
39.332437
  0
LWPOLYLINE
  5
4C
330
17
100
AcDbEntity
  8
Add_Red
  6
ByLayer
100
AcDbPolyline
 90
8
 70
1
 10
-0.978531
 20
35.545851
 10
-0.734367
 20
36.023924
 10
0.615925
 20
38.145816
 10
0.615925
 20
38.466412
 10
-1.116125
 20
39.466412
 10
-2.848175
 20
38.466412
 10
-2.848175
 20
36.466412
 10
-1.116125
 20
35.466411
  0
LWPOLYLINE
  5
4D
330
17
100
AcDbEntity
  8
Add_Red
  6
ByLayer
100
AcDbPolyline
 90
6
 70
1
 10
-3.848175
 20
36.466412
 10
-3.848175
 20
38.466412
 10
-5.580226
 20
39.466412
 10
-7.312277
 20
38.466412
 10
-7.312277
 20
36.466412
 10
-5.580226
 20
35.466411
  0
LWPOLYLINE
  5
4E
330
17
100
AcDbEntity
  8
Add_Red
  6
ByLayer
100
AcDbPolyline
 90
6
 70
1
 10
-8.312276
 20
36.466412
 10
-8.312276
 20
38.466412
 10
-10.044326
 20
39.466412
 10
-11.776377
 20
38.466412
 10
-11.776377
 20
36.466412
 10
-10.044326
 20
35.466411
  0
LWPOLYLINE
  5
4F
330
17
100
AcDbEntity
  8
Add_Red
  6
ByLayer
100
AcDbPolyline
 90
6
 70
1
 10
-12.776377
 20
36.466412
 10
-12.776377
 20
38.466412
 10
-14.508428
 20
39.466412
 10
-16.240479
 20
38.466412
 10
-16.240479
 20
36.466412
 10
-14.508428
 20
35.466411
  0
LWPOLYLINE
  5
50
330
17
100
AcDbEntity
  8
Add_Red
  6
ByLayer
100
AcDbPolyline
 90
6
 70
1
 10
-17.240478
 20
36.466412
 10
-17.240478
 20
38.466412
 10
-18.972529
 20
39.466412
 10
-20.70458
 20
38.466412
 10
-20.70458
 20
36.466412
 10
-18.972529
 20
35.466411
  0
LWPOLYLINE
  5
51
330
17
100
AcDbEntity
  8
Add_Red
  6
ByLayer
100
AcDbPolyline
 90
6
 70
1
 10
-21.70458
 20
36.466412
 10
-21.70458
 20
38.466412
 10
-23.436629
 20
39.466412
 10
-25.16868
 20
38.466412
 10
-25.16868
 20
36.466412
 10
-23.436629
 20
35.466411
  0
LWPOLYLINE
  5
52
330
17
100
AcDbEntity
  8
Add_Red
  6
ByLayer
100
AcDbPolyline
 90
6
 70
1
 10
-26.16868
 20
36.466412
 10
-26.16868
 20
38.466412
 10
-27.900731
 20
39.466412
 10
-29.632782
 20
38.466412
 10
-29.632782
 20
36.466412
 10
-27.900731
 20
35.466411
  0
LWPOLYLINE
  5
53
330
17
100
AcDbEntity
  8
Add_Red
  6
ByLayer
100
AcDbPolyline
 90
6
 70
1
 10
-30.632781
 20
36.466412
 10
-30.632781
 20
38.466412
 10
-32.364832
 20
39.466412
 10
-34.096882
 20
38.466412
 10
-34.096882
 20
36.466412
 10
-32.364832
 20
35.466411
  0
LWPOLYLINE
  5
54
330
17
100
AcDbEntity
  8
Add_Red
  6
ByLayer
100
AcDbPolyline
 90
6
 70
1
 10
-35.096882
 20
36.466412
 10
-35.096882
 20
38.466412
 10
-36.828933
 20
39.466412
 10
-38.560984
 20
38.466412
 10
-38.560984
 20
36.466412
 10
-36.828933
 20
35.466411
  0
LWPOLYLINE
  5
55
330
17
100
AcDbEntity
  8
Add_Red
  6
ByLayer
100
AcDbPolyline
 90
7
 70
1
 10
-2.8453
 20
31.890717
 10
-1.616119
 20
34.297453
 10
-1.616119
 20
34.600385
 10
-3.348169
 20
35.600386
 10
-5.08022
 20
34.600385
 10
-5.08022
 20
32.600385
 10
-3.348169
 20
31.600385
  0
LWPOLYLINE
  5
56
330
17
100
AcDbEntity
  8
Add_Red
  6
ByLayer
100
AcDbPolyline
 90
6
 70
1
 10
-6.08022
 20
32.600385
 10
-6.08022
 20
34.600385
 10
-7.812271
 20
35.600386
 10
-9.544321
 20
34.600385
 10
-9.544321
 20
32.600385
 10
-7.812271
 20
31.600385
  0
LWPOLYLINE
  5
57
330
17
100
AcDbEntity
  8
Add_Red
  6
ByLayer
100
AcDbPolyline
 90
6
 70
1
 10
-10.54432
 20
32.600385
 10
-10.54432
 20
34.600385
 10
-12.276371
 20
35.600386
 10
-14.008422
 20
34.600385
 10
-14.008422
 20
32.600385
 10
-12.276371
 20
31.600385
  0
LWPOLYLINE
  5
58
330
17
100
AcDbEntity
  8
Add_Red
  6
ByLayer
100
AcDbPolyline
 90
6
 70
1
 10
-15.008422
 20
32.600385
 10
-15.008422
 20
34.600385
 10
-16.740473
 20
35.600386
 10
-18.472524
 20
34.600385
 10
-18.472524
 20
32.600385
 10
-16.740473
 20
31.600385
  0
LWPOLYLINE
  5
59
330
17
100
AcDbEntity
  8
Add_Red
  6
ByLayer
100
AcDbPolyline
 90
6
 70
1
 10
-19.472523
 20
32.600385
 10
-19.472523
 20
34.600385
 10
-21.204574
 20
35.600386
 10
-22.936624
 20
34.600385
 10
-22.936624
 20
32.600385
 10
-21.204574
 20
31.600385
  0
LWPOLYLINE
  5
5A
330
17
100
AcDbEntity
  8
Add_Red
  6
ByLayer
100
AcDbPolyline
 90
6
 70
1
 10
-23.936624
 20
32.600385
 10
-23.936624
 20
34.600385
 10
-25.668674
 20
35.600386
 10
-27.400725
 20
34.600385
 10
-27.400725
 20
32.600385
 10
-25.668674
 20
31.600385
  0
LWPOLYLINE
  5
5B
330
17
100
AcDbEntity
  8
Add_Red
  6
ByLayer
100
AcDbPolyline
 90
6
 70
1
 10
-28.400725
 20
32.600385
 10
-28.400725
 20
34.600385
 10
-30.132776
 20
35.600386
 10
-31.864827
 20
34.600385
 10
-31.864827
 20
32.600385
 10
-30.132776
 20
31.600385
  0
LWPOLYLINE
  5
5C
330
17
100
AcDbEntity
  8
Add_Red
  6
ByLayer
100
AcDbPolyline
 90
6
 70
1
 10
-32.864826
 20
32.600385
 10
-32.864826
 20
34.600385
 10
-34.596876
 20
35.600386
 10
-36.328927
 20
34.600385
 10
-36.328927
 20
32.600385
 10
-34.596876
 20
31.600385
  0
LWPOLYLINE
  5
5D
330
17
100
AcDbEntity
  8
Add_Red
  6
ByLayer
100
AcDbPolyline
 90
4
 70
1
 10
-37.328927
 20
32.600385
 10
-37.328927
 20
34.600385
 10
-38.411244
 20
35.225261
 10
-37.732701
 20
32.367266
  0
LWPOLYLINE
  5
5E
330
17
100
AcDbEntity
  8
Add_Red
  6
ByLayer
100
AcDbPolyline
 90
7
 70
1
 10
-4.712076
 20
28.235568
 10
-3.848143
 20
29.927149
 10
-3.848143
 20
30.73436
 10
-5.580193
 20
31.73436
 10
-7.312244
 20
30.73436
 10
-7.312244
 20
28.73436
 10
-5.580193
 20
27.73436
  0
LWPOLYLINE
  5
5F
330
17
100
AcDbEntity
  8
Add_Red
  6
ByLayer
100
AcDbPolyline
 90
6
 70
1
 10
-8.312244
 20
28.73436
 10
-8.312244
 20
30.73436
 10
-10.044294
 20
31.73436
 10
-11.776345
 20
30.73436
 10
-11.776345
 20
28.73436
 10
-10.044294
 20
27.73436
  0
LWPOLYLINE
  5
60
330
17
100
AcDbEntity
  8
Add_Red
  6
ByLayer
100
AcDbPolyline
 90
8
 70
1
 10
-14.154556
 20
28.917889
 10
-13.088657
 20
28.554046
 10
-12.776344
 20
28.73436
 10
-12.776344
 20
30.73436
 10
-14.508395
 20
31.73436
 10
-16.240446
 20
30.73436
 10
-16.240446
 20
28.73436
 10
-14.555977
 20
27.761831
  0
LWPOLYLINE
  5
61
330
17
100
AcDbEntity
  8
Add_Red
  6
ByLayer
100
AcDbPolyline
 90
6
 70
1
 10
-17.240446
 20
28.73436
 10
-17.240446
 20
30.73436
 10
-18.972497
 20
31.73436
 10
-20.704548
 20
30.73436
 10
-20.704548
 20
28.73436
 10
-18.972497
 20
27.73436
  0
LWPOLYLINE
  5
62
330
17
100
AcDbEntity
  8
Add_Red
  6
ByLayer
100
AcDbPolyline
 90
6
 70
1
 10
-21.704547
 20
28.73436
 10
-21.704547
 20
30.73436
 10
-23.436597
 20
31.73436
 10
-25.168648
 20
30.73436
 10
-25.168648
 20
28.73436
 10
-23.436597
 20
27.73436
  0
LWPOLYLINE
  5
63
330
17
100
AcDbEntity
  8
Add_Red
  6
ByLayer
100
AcDbPolyline
 90
6
 70
1
 10
-26.168648
 20
28.73436
 10
-26.168648
 20
30.73436
 10
-27.900698
 20
31.73436
 10
-29.632749
 20
30.73436
 10
-29.632749
 20
28.73436
 10
-27.900698
 20
27.73436
  0
LWPOLYLINE
  5
64
330
17
100
AcDbEntity
  8
Add_Red
  6
ByLayer
100
AcDbPolyline
 90
6
 70
1
 10
-30.632749
 20
28.73436
 10
-30.632749
 20
30.73436
 10
-32.3648
 20
31.73436
 10
-34.09685
 20
30.73436
 10
-34.09685
 20
28.73436
 10
-32.3648
 20
27.73436
  0
LWPOLYLINE
  5
65
330
17
100
AcDbEntity
  8
Add_Red
  6
ByLayer
100
AcDbPolyline
 90
7
 70
1
 10
-35.096849
 20
28.73436
 10
-35.096849
 20
30.73436
 10
-36.8289
 20
31.73436
 10
-38.016325
 20
31.0488
 10
-38.560951
 20
29.465979
 10
-38.560951
 20
28.73436
 10
-36.8289
 20
27.73436
  0
LWPOLYLINE
  5
66
330
17
100
AcDbEntity
  8
Add_Red
  6
ByLayer
100
AcDbPolyline
 90
4
 70
1
 10
-6.080188
 20
26.868335
 10
-7.812238
 20
27.868335
 10
-9.026332
 20
27.167377
 10
-6.080188
 20
26.161715
  0
LWPOLYLINE
  5
67
330
17
100
AcDbEntity
  8
Add_Red
  6
ByLayer
100
AcDbPolyline
 90
7
 70
1
 10
-15.699178
 20
24.469508
 10
-15.008389
 20
26.458922
 10
-15.008389
 20
26.868335
 10
-16.74044
 20
27.868335
 10
-18.472491
 20
26.868335
 10
-18.472491
 20
24.868335
 10
-16.74044
 20
23.868335
  0
LWPOLYLINE
  5
68
330
17
100
AcDbEntity
  8
Add_Red
  6
ByLayer
100
AcDbPolyline
 90
6
 70
1
 10
-19.472491
 20
24.868335
 10
-19.472491
 20
26.868335
 10
-21.204542
 20
27.868335
 10
-22.936591
 20
26.868335
 10
-22.936591
 20
24.868335
 10
-21.204542
 20
23.868335
  0
LWPOLYLINE
  5
69
330
17
100
AcDbEntity
  8
Add_Red
  6
ByLayer
100
AcDbPolyline
 90
6
 70
1
 10
-23.936591
 20
24.868335
 10
-23.936591
 20
26.868335
 10
-25.668642
 20
27.868335
 10
-27.400693
 20
26.868335
 10
-27.400693
 20
24.868335
 10
-25.668642
 20
23.868335
  0
LWPOLYLINE
  5
6A
330
17
100
AcDbEntity
  8
Add_Red
  6
ByLayer
100
AcDbPolyline
 90
6
 70
1
 10
-28.400693
 20
24.868335
 10
-28.400693
 20
26.868335
 10
-30.132743
 20
27.868335
 10
-31.864794
 20
26.868335
 10
-31.864794
 20
24.868335
 10
-30.132743
 20
23.868335
  0
LWPOLYLINE
  5
6B
330
17
100
AcDbEntity
  8
Add_Red
  6
ByLayer
100
AcDbPolyline
 90
6
 70
1
 10
-32.864794
 20
24.868335
 10
-32.864794
 20
26.868335
 10
-34.596844
 20
27.868335
 10
-36.328895
 20
26.868335
 10
-36.328895
 20
24.868335
 10
-34.596844
 20
23.868335
  0
LWPOLYLINE
  5
6C
330
17
100
AcDbEntity
  8
Add_Red
  6
ByLayer
100
AcDbPolyline
 90
6
 70
1
 10
-37.328894
 20
24.868335
 10
-37.328894
 20
26.868335
 10
-39.060945
 20
27.868335
 10
-39.123006
 20
27.832504
 10
-40.250671
 20
24.555224
 10
-39.060945
 20
23.868335
  0
LWPOLYLINE
  5
6D
330
17
100
AcDbEntity
  8
Add_Red
  6
ByLayer
100
AcDbPolyline
 90
6
 70
1
 10
-17.240413
 20
21.002309
 10
-17.240413
 20
23.002309
 10
-18.972464
 20
24.002309
 10
-20.704515
 20
23.002309
 10
-20.704515
 20
21.002309
 10
-18.972464
 20
20.002308
  0
LWPOLYLINE
  5
6E
330
17
100
AcDbEntity
  8
Add_Red
  6
ByLayer
100
AcDbPolyline
 90
6
 70
1
 10
-21.704515
 20
21.002309
 10
-21.704515
 20
23.002309
 10
-23.436565
 20
24.002309
 10
-25.168615
 20
23.002309
 10
-25.168615
 20
21.002309
 10
-23.436565
 20
20.002308
  0
LWPOLYLINE
  5
6F
330
17
100
AcDbEntity
  8
Add_Red
  6
ByLayer
100
AcDbPolyline
 90
6
 70
1
 10
-26.168615
 20
21.002309
 10
-26.168615
 20
23.002309
 10
-27.900666
 20
24.002309
 10
-29.632717
 20
23.002309
 10
-29.632717
 20
21.002309
 10
-27.900666
 20
20.002308
  0
LWPOLYLINE
  5
70
330
17
100
AcDbEntity
  8
Add_Red
  6
ByLayer
100
AcDbPolyline
 90
6
 70
1
 10
-30.632717
 20
21.002309
 10
-30.632717
 20
23.002309
 10
-32.364767
 20
24.002309
 10
-34.096817
 20
23.002309
 10
-34.096817
 20
21.002309
 10
-32.364767
 20
20.002308
  0
LWPOLYLINE
  5
71
330
17
100
AcDbEntity
  8
Add_Red
  6
ByLayer
100
AcDbPolyline
 90
6
 70
1
 10
-35.096817
 20
21.002309
 10
-35.096817
 20
23.002309
 10
-36.828868
 20
24.002309
 10
-38.560919
 20
23.002309
 10
-38.560919
 20
21.002309
 10
-36.828868
 20
20.002308
  0
LWPOLYLINE
  5
72
330
17
100
AcDbEntity
  8
Add_Red
  6
ByLayer
100
AcDbPolyline
 90
6
 70
1
 10
-39.560918
 20
21.002309
 10
-39.560918
 20
23.002309
 10
-40.582134
 20
23.591908
 10
-41.058507
 20
22.207447
 10
-41.986246
 20
20.402572
 10
-41.292969
 20
20.002308
  0
LWPOLYLINE
  5
73
330
17
100
AcDbEntity
  8
Add_Red
  6
ByLayer
100
AcDbPolyline
 90
3
 70
1
 10
-16.200669
 20
23.025256
 10
-16.240414
 20
23.002309
 10
-16.240414
 20
22.910793
  0
LWPOLYLINE
  5
74
330
17
100
AcDbEntity
  8
Add_Red
  6
ByLayer
100
AcDbPolyline
 90
6
 70
1
 10
-15.008357
 20
17.136283
 10
-15.008357
 20
19.136283
 10
-16.740408
 20
20.136283
 10
-18.472459
 20
19.136283
 10
-18.472459
 20
17.136283
 10
-16.740408
 20
16.136283
  0
LWPOLYLINE
  5
75
330
17
100
AcDbEntity
  8
Add_Red
  6
ByLayer
100
AcDbPolyline
 90
6
 70
1
 10
-19.472458
 20
17.136283
 10
-19.472458
 20
19.136283
 10
-21.204509
 20
20.136283
 10
-22.936559
 20
19.136283
 10
-22.936559
 20
17.136283
 10
-21.204509
 20
16.136283
  0
LWPOLYLINE
  5
76
330
17
100
AcDbEntity
  8
Add_Red
  6
ByLayer
100
AcDbPolyline
 90
6
 70
1
 10
-23.936559
 20
17.136283
 10
-23.936559
 20
19.136283
 10
-25.66861
 20
20.136283
 10
-27.40066
 20
19.136283
 10
-27.40066
 20
17.136283
 10
-25.66861
 20
16.136283
  0
LWPOLYLINE
  5
77
330
17
100
AcDbEntity
  8
Add_Red
  6
ByLayer
100
AcDbPolyline
 90
6
 70
1
 10
-28.40066
 20
17.136283
 10
-28.40066
 20
19.136283
 10
-30.132711
 20
20.136283
 10
-31.864762
 20
19.136283
 10
-31.864762
 20
17.136283
 10
-30.132711
 20
16.136283
  0
LWPOLYLINE
  5
78
330
17
100
AcDbEntity
  8
Add_Red
  6
ByLayer
100
AcDbPolyline
 90
6
 70
1
 10
-32.864762
 20
17.136283
 10
-32.864762
 20
19.136283
 10
-34.596811
 20
20.136283
 10
-36.328862
 20
19.136283
 10
-36.328862
 20
17.136283
 10
-34.596811
 20
16.136283
  0
LWPOLYLINE
  5
79
330
17
100
AcDbEntity
  8
Add_Red
  6
ByLayer
100
AcDbPolyline
 90
6
 70
1
 10
-37.328862
 20
17.136283
 10
-37.328862
 20
19.136283
 10
-39.060913
 20
20.136283
 10
-40.792964
 20
19.136283
 10
-40.792964
 20
17.136283
 10
-39.060913
 20
16.136283
  0
LWPOLYLINE
  5
7A
330
17
100
AcDbEntity
  8
Add_Red
  6
ByLayer
100
AcDbPolyline
 90
3
 70
1
 10
-14.465521
 20
20.027043
 10
-14.655907
 20
20.087492
 10
-14.508363
 20
20.002308
  0
LWPOLYLINE
  5
7B
330
17
100
AcDbEntity
  8
Add_Red
  6
ByLayer
100
AcDbPolyline
 90
6
 70
1
 10
-10.544256
 20
17.136283
 10
-10.544256
 20
18.78199
 10
-13.175153
 20
19.617334
 10
-14.008357
 20
19.136283
 10
-14.008357
 20
17.136283
 10
-12.276306
 20
16.136283
  0
LWPOLYLINE
  5
7C
330
17
100
AcDbEntity
  8
Add_Red
  6
ByLayer
100
AcDbPolyline
 90
5
 70
1
 10
-41.792963
 20
17.136283
 10
-41.792963
 20
19.136283
 10
-42.443949
 20
19.51213
 10
-44.029484
 20
16.427539
 10
-43.525014
 20
16.136283
  0
LWPOLYLINE
  5
7D
330
17
100
AcDbEntity
  8
Add_Red
  6
ByLayer
100
AcDbPolyline
 90
4
 70
1
 10
-8.912942
 20
18.264026
 10
-9.544256
 20
18.464476
 10
-9.544256
 20
17.136283
 10
-9.411607
 20
17.059698
  0
LWPOLYLINE
  5
7E
330
17
100
AcDbEntity
  8
Add_Red
  6
ByLayer
100
AcDbPolyline
 90
5
 70
1
 10
-9.797473
 20
16.127792
 10
-10.044229
 20
16.270257
 10
-11.77628
 20
15.270257
 10
-11.77628
 20
13.270257
 10
-11.134169
 20
12.899534
  0
LWPOLYLINE
  5
7F
330
17
100
AcDbEntity
  8
Add_Red
  6
ByLayer
100
AcDbPolyline
 90
6
 70
1
 10
-12.77628
 20
13.270257
 10
-12.77628
 20
15.270257
 10
-14.50833
 20
16.270257
 10
-16.240381
 20
15.270257
 10
-16.240381
 20
13.270257
 10
-14.50833
 20
12.270257
  0
LWPOLYLINE
  5
80
330
17
100
AcDbEntity
  8
Add_Red
  6
ByLayer
100
AcDbPolyline
 90
6
 70
1
 10
-17.240381
 20
13.270257
 10
-17.240381
 20
15.270257
 10
-18.972432
 20
16.270257
 10
-20.704483
 20
15.270257
 10
-20.704483
 20
13.270257
 10
-18.972432
 20
12.270257
  0
LWPOLYLINE
  5
81
330
17
100
AcDbEntity
  8
Add_Red
  6
ByLayer
100
AcDbPolyline
 90
6
 70
1
 10
-21.704482
 20
13.270257
 10
-21.704482
 20
15.270257
 10
-23.436532
 20
16.270257
 10
-25.168583
 20
15.270257
 10
-25.168583
 20
13.270257
 10
-23.436532
 20
12.270257
  0
LWPOLYLINE
  5
82
330
17
100
AcDbEntity
  8
Add_Red
  6
ByLayer
100
AcDbPolyline
 90
6
 70
1
 10
-26.168583
 20
13.270257
 10
-26.168583
 20
15.270257
 10
-27.900634
 20
16.270257
 10
-29.632684
 20
15.270257
 10
-29.632684
 20
13.270257
 10
-27.900634
 20
12.270257
  0
LWPOLYLINE
  5
83
330
17
100
AcDbEntity
  8
Add_Red
  6
ByLayer
100
AcDbPolyline
 90
6
 70
1
 10
-30.632684
 20
13.270257
 10
-30.632684
 20
15.270257
 10
-32.364735
 20
16.270257
 10
-34.096785
 20
15.270257
 10
-34.096785
 20
13.270257
 10
-32.364735
 20
12.270257
  0
LWPOLYLINE
  5
84
330
17
100
AcDbEntity
  8
Add_Red
  6
ByLayer
100
AcDbPolyline
 90
6
 70
1
 10
-35.096785
 20
13.270257
 10
-35.096785
 20
15.270257
 10
-36.828835
 20
16.270257
 10
-38.560886
 20
15.270257
 10
-38.560886
 20
13.270257
 10
-36.828835
 20
12.270257
  0
LWPOLYLINE
  5
85
330
17
100
AcDbEntity
  8
Add_Red
  6
ByLayer
100
AcDbPolyline
 90
6
 70
1
 10
-39.560886
 20
13.270257
 10
-39.560886
 20
15.270257
 10
-41.292937
 20
16.270257
 10
-43.024988
 20
15.270257
 10
-43.024988
 20
13.270257
 10
-41.292937
 20
12.270257
  0
LWPOLYLINE
  5
86
330
17
100
AcDbEntity
  8
Add_Red
  6
ByLayer
100
AcDbPolyline
 90
5
 70
1
 10
-44.024987
 20
13.270257
 10
-44.024987
 20
15.270257
 10
-44.487183
 20
15.537106
 10
-46.072718
 20
12.452516
 10
-45.757037
 20
12.270257
  0
LWPOLYLINE
  5
87
330
17
100
AcDbEntity
  8
Add_Red
  6
ByLayer
100
AcDbPolyline
 90
5
 70
1
 10
-11.520038
 20
11.967619
 10
-12.276274
 20
12.404232
 10
-14.008325
 20
11.404232
 10
-14.008325
 20
9.404232
 10
-12.856734
 20
8.739361
  0
LWPOLYLINE
  5
88
330
17
100
AcDbEntity
  8
Add_Red
  6
ByLayer
100
AcDbPolyline
 90
6
 70
1
 10
-15.008325
 20
9.404232
 10
-15.008325
 20
11.404232
 10
-16.740375
 20
12.404232
 10
-18.472426
 20
11.404232
 10
-18.472426
 20
9.404232
 10
-16.740375
 20
8.404232
  0
LWPOLYLINE
  5
89
330
17
100
AcDbEntity
  8
Add_Red
  6
ByLayer
100
AcDbPolyline
 90
6
 70
1
 10
-19.472426
 20
9.404232
 10
-19.472426
 20
11.404232
 10
-21.204477
 20
12.404232
 10
-22.936527
 20
11.404232
 10
-22.936527
 20
9.404232
 10
-21.204477
 20
8.404232
  0
LWPOLYLINE
  5
8A
330
17
100
AcDbEntity
  8
Add_Red
  6
ByLayer
100
AcDbPolyline
 90
6
 70
1
 10
-23.936526
 20
9.404232
 10
-23.936526
 20
11.404232
 10
-25.668577
 20
12.404232
 10
-27.400628
 20
11.404232
 10
-27.400628
 20
9.404232
 10
-25.668577
 20
8.404232
  0
LWPOLYLINE
  5
8B
330
17
100
AcDbEntity
  8
Add_Red
  6
ByLayer
100
AcDbPolyline
 90
6
 70
1
 10
-28.400628
 20
9.404232
 10
-28.400628
 20
11.404232
 10
-30.132679
 20
12.404232
 10
-31.864729
 20
11.404232
 10
-31.864729
 20
9.404232
 10
-30.132679
 20
8.404232
  0
LWPOLYLINE
  5
8C
330
17
100
AcDbEntity
  8
Add_Red
  6
ByLayer
100
AcDbPolyline
 90
6
 70
1
 10
-32.864729
 20
9.404232
 10
-32.864729
 20
11.404232
 10
-34.596779
 20
12.404232
 10
-36.32883
 20
11.404232
 10
-36.32883
 20
9.404232
 10
-34.596779
 20
8.404232
  0
LWPOLYLINE
  5
8D
330
17
100
AcDbEntity
  8
Add_Red
  6
ByLayer
100
AcDbPolyline
 90
6
 70
1
 10
-37.32883
 20
9.404232
 10
-37.32883
 20
11.404232
 10
-39.06088
 20
12.404232
 10
-40.792931
 20
11.404232
 10
-40.792931
 20
9.404232
 10
-39.06088
 20
8.404232
  0
LWPOLYLINE
  5
8E
330
17
100
AcDbEntity
  8
Add_Red
  6
ByLayer
100
AcDbPolyline
 90
6
 70
1
 10
-41.792931
 20
9.404232
 10
-41.792931
 20
11.404232
 10
-43.524982
 20
12.404232
 10
-45.257032
 20
11.404232
 10
-45.257032
 20
9.404232
 10
-43.524982
 20
8.404232
  0
LWPOLYLINE
  5
8F
330
17
100
AcDbEntity
  8
Add_Red
  6
ByLayer
100
AcDbPolyline
 90
6
 70
1
 10
-46.257031
 20
9.404232
 10
-46.257031
 20
11.404232
 10
-46.530421
 20
11.562074
 10
-46.892516
 20
10.857634
 10
-48.267952
 20
8.565238
 10
-47.989082
 20
8.404232
  0
LWPOLYLINE
  5
90
330
17
100
AcDbEntity
  8
Add_Red
  6
ByLayer
100
AcDbPolyline
 90
5
 70
1
 10
-13.2426
 20
7.807456
 10
-14.508298
 20
8.538207
 10
-16.240349
 20
7.538207
 10
-16.240349
 20
5.538206
 10
-14.579296
 20
4.579197
  0
LWPOLYLINE
  5
91
330
17
100
AcDbEntity
  8
Add_Red
  6
ByLayer
100
AcDbPolyline
 90
6
 70
1
 10
-17.240349
 20
5.538206
 10
-17.240349
 20
7.538207
 10
-18.972399
 20
8.538207
 10
-20.70445
 20
7.538207
 10
-20.70445
 20
5.538206
 10
-18.972399
 20
4.538206
  0
LWPOLYLINE
  5
92
330
17
100
AcDbEntity
  8
Add_Red
  6
ByLayer
100
AcDbPolyline
 90
6
 70
1
 10
-21.70445
 20
5.538206
 10
-21.70445
 20
7.538207
 10
-23.4365
 20
8.538207
 10
-25.168551
 20
7.538207
 10
-25.168551
 20
5.538206
 10
-23.4365
 20
4.538206
  0
LWPOLYLINE
  5
93
330
17
100
AcDbEntity
  8
Add_Red
  6
ByLayer
100
AcDbPolyline
 90
6
 70
1
 10
-26.16855
 20
5.538206
 10
-26.16855
 20
7.538207
 10
-27.900601
 20
8.538207
 10
-29.632652
 20
7.538207
 10
-29.632652
 20
5.538206
 10
-27.900601
 20
4.538206
  0
LWPOLYLINE
  5
94
330
17
100
AcDbEntity
  8
Add_Red
  6
ByLayer
100
AcDbPolyline
 90
6
 70
1
 10
-30.632652
 20
5.538206
 10
-30.632652
 20
7.538207
 10
-32.364703
 20
8.538207
 10
-34.096752
 20
7.538207
 10
-34.096752
 20
5.538206
 10
-32.364703
 20
4.538206
  0
LWPOLYLINE
  5
95
330
17
100
AcDbEntity
  8
Add_Red
  6
ByLayer
100
AcDbPolyline
 90
6
 70
1
 10
-35.096752
 20
5.538206
 10
-35.096752
 20
7.538207
 10
-36.828803
 20
8.538207
 10
-38.560854
 20
7.538207
 10
-38.560854
 20
5.538206
 10
-36.828803
 20
4.538206
  0
LWPOLYLINE
  5
96
330
17
100
AcDbEntity
  8
Add_Red
  6
ByLayer
100
AcDbPolyline
 90
6
 70
1
 10
-39.560854
 20
5.538206
 10
-39.560854
 20
7.538207
 10
-41.292904
 20
8.538207
 10
-43.024955
 20
7.538207
 10
-43.024955
 20
5.538206
 10
-41.292904
 20
4.538206
  0
LWPOLYLINE
  5
97
330
17
100
AcDbEntity
  8
Add_Red
  6
ByLayer
100
AcDbPolyline
 90
6
 70
1
 10
-44.024955
 20
5.538206
 10
-44.024955
 20
7.538207
 10
-45.757005
 20
8.538207
 10
-47.489056
 20
7.538207
 10
-47.489056
 20
5.538206
 10
-45.757005
 20
4.538206
  0
LWPOLYLINE
  5
98
330
17
100
AcDbEntity
  8
Add_Red
  6
ByLayer
100
AcDbPolyline
 90
5
 70
1
 10
-48.489055
 20
5.538206
 10
-48.489055
 20
7.538207
 10
-48.782514
 20
7.707635
 10
-50.565031
 20
4.736771
 10
-50.221106
 20
4.538206
  0
LWPOLYLINE
  5
99
330
17
100
AcDbEntity
  8
Add_Red
  6
ByLayer
100
AcDbPolyline
 90
7
 70
1
 10
-16.026355
 20
1.084401
 10
-15.008292
 20
3.543127
 10
-15.008292
 20
3.67218
 10
-16.740343
 20
4.67218
 10
-18.472394
 20
3.67218
 10
-18.472394
 20
1.67218
 10
-16.740343
 20
0.67218
  0
LWPOLYLINE
  5
9A
330
17
100
AcDbEntity
  8
Add_Red
  6
ByLayer
100
AcDbPolyline
 90
6
 70
1
 10
-19.472393
 20
1.67218
 10
-19.472393
 20
3.67218
 10
-21.204444
 20
4.67218
 10
-22.936494
 20
3.67218
 10
-22.936494
 20
1.67218
 10
-21.204444
 20
0.67218
  0
LWPOLYLINE
  5
9B
330
17
100
AcDbEntity
  8
Add_Red
  6
ByLayer
100
AcDbPolyline
 90
6
 70
1
 10
-23.936494
 20
1.67218
 10
-23.936494
 20
3.67218
 10
-25.668545
 20
4.67218
 10
-27.400596
 20
3.67218
 10
-27.400596
 20
1.67218
 10
-25.668545
 20
0.67218
  0
LWPOLYLINE
  5
9C
330
17
100
AcDbEntity
  8
Add_Red
  6
ByLayer
100
AcDbPolyline
 90
6
 70
1
 10
-28.400595
 20
1.67218
 10
-28.400595
 20
3.67218
 10
-30.132646
 20
4.67218
 10
-31.864697
 20
3.67218
 10
-31.864697
 20
1.67218
 10
-30.132646
 20
0.67218
  0
LWPOLYLINE
  5
9D
330
17
100
AcDbEntity
  8
Add_Red
  6
ByLayer
100
AcDbPolyline
 90
6
 70
1
 10
-32.864697
 20
1.67218
 10
-32.864697
 20
3.67218
 10
-34.596746
 20
4.67218
 10
-36.328797
 20
3.67218
 10
-36.328797
 20
1.67218
 10
-34.596746
 20
0.67218
  0
LWPOLYLINE
  5
9E
330
17
100
AcDbEntity
  8
Add_Red
  6
ByLayer
100
AcDbPolyline
 90
6
 70
1
 10
-37.328797
 20
1.67218
 10
-37.328797
 20
3.67218
 10
-39.060848
 20
4.67218
 10
-40.792899
 20
3.67218
 10
-40.792899
 20
1.67218
 10
-39.060848
 20
0.67218
  0
LWPOLYLINE
  5
9F
330
17
100
AcDbEntity
  8
Add_Red
  6
ByLayer
100
AcDbPolyline
 90
6
 70
1
 10
-41.792898
 20
1.67218
 10
-41.792898
 20
3.67218
 10
-43.524949
 20
4.67218
 10
-45.256999
 20
3.67218
 10
-45.256999
 20
1.67218
 10
-43.524949
 20
0.67218
  0
LWPOLYLINE
  5
A0
330
17
100
AcDbEntity
  8
Add_Red
  6
ByLayer
100
AcDbPolyline
 90
6
 70
1
 10
-46.256999
 20
1.67218
 10
-46.256999
 20
3.67218
 10
-47.98905
 20
4.67218
 10
-49.721101
 20
3.67218
 10
-49.721101
 20
1.67218
 10
-47.98905
 20
0.67218
  0
LWPOLYLINE
  5
A1
330
17
100
AcDbEntity
  8
Add_Red
  6
ByLayer
100
AcDbPolyline
 90
5
 70
1
 10
-50.7211
 20
1.67218
 10
-50.7211
 20
3.67218
 10
-51.079598
 20
3.879159
 10
-52.862114
 20
0.908295
 10
-52.453151
 20
0.67218
  0
LWPOLYLINE
  5
A2
330
17
100
AcDbEntity
  8
Add_Red
  6
ByLayer
100
AcDbPolyline
 90
7
 70
1
 10
-17.428809
 20
-2.30267
 10
-17.240316
 20
-1.847441
 10
-17.240316
 20
-0.193844
 10
-18.972367
 20
0.806155
 10
-20.704418
 20
-0.193844
 10
-20.704418
 20
-2.193844
 10
-18.972367
 20
-3.193844
  0
LWPOLYLINE
  5
A3
330
17
100
AcDbEntity
  8
Add_Red
  6
ByLayer
100
AcDbPolyline
 90
6
 70
1
 10
-21.704417
 20
-2.193844
 10
-21.704417
 20
-0.193844
 10
-23.436467
 20
0.806155
 10
-25.168518
 20
-0.193844
 10
-25.168518
 20
-2.193844
 10
-23.436467
 20
-3.193844
  0
LWPOLYLINE
  5
A4
330
17
100
AcDbEntity
  8
Add_Red
  6
ByLayer
100
AcDbPolyline
 90
6
 70
1
 10
-26.168518
 20
-2.193844
 10
-26.168518
 20
-0.193844
 10
-27.900569
 20
0.806155
 10
-29.63262
 20
-0.193844
 10
-29.63262
 20
-2.193844
 10
-27.900569
 20
-3.193844
  0
LWPOLYLINE
  5
A5
330
17
100
AcDbEntity
  8
Add_Red
  6
ByLayer
100
AcDbPolyline
 90
6
 70
1
 10
-30.632619
 20
-2.193844
 10
-30.632619
 20
-0.193844
 10
-32.36467
 20
0.806155
 10
-34.09672
 20
-0.193844
 10
-34.09672
 20
-2.193844
 10
-32.36467
 20
-3.193844
  0
LWPOLYLINE
  5
A6
330
17
100
AcDbEntity
  8
Add_Red
  6
ByLayer
100
AcDbPolyline
 90
6
 70
1
 10
-35.09672
 20
-2.193844
 10
-35.09672
 20
-0.193844
 10
-36.828771
 20
0.806155
 10
-38.560821
 20
-0.193844
 10
-38.560821
 20
-2.193844
 10
-36.828771
 20
-3.193844
  0
LWPOLYLINE
  5
A7
330
17
100
AcDbEntity
  8
Add_Red
  6
ByLayer
100
AcDbPolyline
 90
6
 70
1
 10
-39.560821
 20
-2.193844
 10
-39.560821
 20
-0.193844
 10
-41.292872
 20
0.806155
 10
-43.024923
 20
-0.193844
 10
-43.024923
 20
-2.193844
 10
-41.292872
 20
-3.193844
  0
LWPOLYLINE
  5
A8
330
17
100
AcDbEntity
  8
Add_Red
  6
ByLayer
100
AcDbPolyline
 90
6
 70
1
 10
-44.024922
 20
-2.193844
 10
-44.024922
 20
-0.193844
 10
-45.756972
 20
0.806155
 10
-47.489023
 20
-0.193844
 10
-47.489023
 20
-2.193844
 10
-45.756972
 20
-3.193844
  0
LWPOLYLINE
  5
A9
330
17
100
AcDbEntity
  8
Add_Red
  6
ByLayer
100
AcDbPolyline
 90
6
 70
1
 10
-48.489023
 20
-2.193844
 10
-48.489023
 20
-0.193844
 10
-50.221074
 20
0.806155
 10
-51.953125
 20
-0.193844
 10
-51.953125
 20
-2.193844
 10
-50.221074
 20
-3.193844
  0
LWPOLYLINE
  5
AA
330
17
100
AcDbEntity
  8
Add_Red
  6
ByLayer
100
AcDbPolyline
 90
5
 70
1
 10
-52.953124
 20
-2.193844
 10
-52.953124
 20
-0.193844
 10
-53.364405
 20
0.043609
 10
-54.965095
 20
-3.032232
 10
-54.685175
 20
-3.193844
  0
LWPOLYLINE
  5
AB
330
17
100
AcDbEntity
  8
Add_Red
  6
ByLayer
100
AcDbPolyline
 90
6
 70
1
 10
-19.472361
 20
-6.05987
 10
-19.472361
 20
-4.05987
 10
-21.204412
 20
-3.05987
 10
-22.936462
 20
-4.05987
 10
-22.936462
 20
-6.05987
 10
-21.204412
 20
-7.05987
  0
LWPOLYLINE
  5
AC
330
17
100
AcDbEntity
  8
Add_Red
  6
ByLayer
100
AcDbPolyline
 90
6
 70
1
 10
-23.936461
 20
-6.05987
 10
-23.936461
 20
-4.05987
 10
-25.668512
 20
-3.05987
 10
-27.400563
 20
-4.05987
 10
-27.400563
 20
-6.05987
 10
-25.668512
 20
-7.05987
  0
LWPOLYLINE
  5
AD
330
17
100
AcDbEntity
  8
Add_Red
  6
ByLayer
100
AcDbPolyline
 90
6
 70
1
 10
-28.400563
 20
-6.05987
 10
-28.400563
 20
-4.05987
 10
-30.132614
 20
-3.05987
 10
-31.864665
 20
-4.05987
 10
-31.864665
 20
-6.05987
 10
-30.132614
 20
-7.05987
  0
LWPOLYLINE
  5
AE
330
17
100
AcDbEntity
  8
Add_Red
  6
ByLayer
100
AcDbPolyline
 90
6
 70
1
 10
-32.864664
 20
-6.05987
 10
-32.864664
 20
-4.05987
 10
-34.596714
 20
-3.05987
 10
-36.328765
 20
-4.05987
 10
-36.328765
 20
-6.05987
 10
-34.596714
 20
-7.05987
  0
LWPOLYLINE
  5
AF
330
17
100
AcDbEntity
  8
Add_Red
  6
ByLayer
100
AcDbPolyline
 90
6
 70
1
 10
-37.328765
 20
-6.05987
 10
-37.328765
 20
-4.05987
 10
-39.060816
 20
-3.05987
 10
-40.792866
 20
-4.05987
 10
-40.792866
 20
-6.05987
 10
-39.060816
 20
-7.05987
  0
LWPOLYLINE
  5
B0
330
17
100
AcDbEntity
  8
Add_Red
  6
ByLayer
100
AcDbPolyline
 90
6
 70
1
 10
-41.792866
 20
-6.05987
 10
-41.792866
 20
-4.05987
 10
-43.524917
 20
-3.05987
 10
-45.256967
 20
-4.05987
 10
-45.256967
 20
-6.05987
 10
-43.524917
 20
-7.05987
  0
LWPOLYLINE
  5
B1
330
17
100
AcDbEntity
  8
Add_Red
  6
ByLayer
100
AcDbPolyline
 90
6
 70
1
 10
-46.256966
 20
-6.05987
 10
-46.256966
 20
-4.05987
 10
-47.989017
 20
-3.05987
 10
-49.721068
 20
-4.05987
 10
-49.721068
 20
-6.05987
 10
-47.989017
 20
-7.05987
  0
LWPOLYLINE
  5
B2
330
17
100
AcDbEntity
  8
Add_Red
  6
ByLayer
100
AcDbPolyline
 90
6
 70
1
 10
-50.721068
 20
-6.05987
 10
-50.721068
 20
-4.05987
 10
-52.453119
 20
-3.05987
 10
-54.18517
 20
-4.05987
 10
-54.18517
 20
-6.05987
 10
-52.453119
 20
-7.05987
  0
LWPOLYLINE
  5
B3
330
17
100
AcDbEntity
  8
Add_Red
  6
ByLayer
100
AcDbPolyline
 90
3
 70
1
 10
-18.057133
 20
-3.820138
 10
-18.472361
 20
-4.05987
 10
-18.472361
 20
-4.822956
  0
LWPOLYLINE
  5
B4
330
17
100
AcDbEntity
  8
Add_Red
  6
ByLayer
100
AcDbPolyline
 90
5
 70
1
 10
-55.185169
 20
-6.05987
 10
-55.185169
 20
-4.05987
 10
-55.427173
 20
-3.920149
 10
-57.027863
 20
-6.99599
 10
-56.917219
 20
-7.05987
  0
LWPOLYLINE
  5
B5
330
17
100
AcDbEntity
  8
Add_Red
  6
ByLayer
100
AcDbPolyline
 90
6
 70
1
 10
-21.704385
 20
-9.925896
 10
-21.704385
 20
-7.925895
 10
-23.436435
 20
-6.925895
 10
-25.168486
 20
-7.925895
 10
-25.168486
 20
-9.925896
 10
-23.436435
 20
-10.925896
  0
LWPOLYLINE
  5
B6
330
17
100
AcDbEntity
  8
Add_Red
  6
ByLayer
100
AcDbPolyline
 90
6
 70
1
 10
-26.168485
 20
-9.925896
 10
-26.168485
 20
-7.925895
 10
-27.900536
 20
-6.925895
 10
-29.632587
 20
-7.925895
 10
-29.632587
 20
-9.925896
 10
-27.900536
 20
-10.925896
  0
LWPOLYLINE
  5
B7
330
17
100
AcDbEntity
  8
Add_Red
  6
ByLayer
100
AcDbPolyline
 90
6
 70
1
 10
-30.632587
 20
-9.925896
 10
-30.632587
 20
-7.925895
 10
-32.364638
 20
-6.925895
 10
-34.096688
 20
-7.925895
 10
-34.096688
 20
-9.925896
 10
-32.364638
 20
-10.925896
  0
LWPOLYLINE
  5
B8
330
17
100
AcDbEntity
  8
Add_Red
  6
ByLayer
100
AcDbPolyline
 90
6
 70
1
 10
-35.096687
 20
-9.925896
 10
-35.096687
 20
-7.925895
 10
-36.828738
 20
-6.925895
 10
-38.560789
 20
-7.925895
 10
-38.560789
 20
-9.925896
 10
-36.828738
 20
-10.925896
  0
LWPOLYLINE
  5
B9
330
17
100
AcDbEntity
  8
Add_Red
  6
ByLayer
100
AcDbPolyline
 90
6
 70
1
 10
-39.560789
 20
-9.925896
 10
-39.560789
 20
-7.925895
 10
-41.29284
 20
-6.925895
 10
-43.02489
 20
-7.925895
 10
-43.02489
 20
-9.925896
 10
-41.29284
 20
-10.925896
  0
LWPOLYLINE
  5
BA
330
17
100
AcDbEntity
  8
Add_Red
  6
ByLayer
100
AcDbPolyline
 90
6
 70
1
 10
-44.02489
 20
-9.925896
 10
-44.02489
 20
-7.925895
 10
-45.75694
 20
-6.925895
 10
-47.488991
 20
-7.925895
 10
-47.488991
 20
-9.925896
 10
-45.75694
 20
-10.925896
  0
LWPOLYLINE
  5
BB
330
17
100
AcDbEntity
  8
Add_Red
  6
ByLayer
100
AcDbPolyline
 90
6
 70
1
 10
-48.48899
 20
-9.925896
 10
-48.48899
 20
-7.925895
 10
-50.221041
 20
-6.925895
 10
-51.953092
 20
-7.925895
 10
-51.953092
 20
-9.925896
 10
-50.221041
 20
-10.925896
  0
LWPOLYLINE
  5
BC
330
17
100
AcDbEntity
  8
Add_Red
  6
ByLayer
100
AcDbPolyline
 90
6
 70
1
 10
-52.953092
 20
-9.925896
 10
-52.953092
 20
-7.925895
 10
-54.685143
 20
-6.925895
 10
-56.417193
 20
-7.925895
 10
-56.417193
 20
-9.925896
 10
-54.685143
 20
-10.925896
  0
LWPOLYLINE
  5
BD
330
17
100
AcDbEntity
  8
Add_Red
  6
ByLayer
100
AcDbPolyline
 90
4
 70
1
 10
-19.459588
 20
-7.207211
 10
-20.704385
 20
-7.925895
 10
-20.704385
 20
-9.925896
 10
-20.608267
 20
-9.98139
  0
LWPOLYLINE
  5
BE
330
17
100
AcDbEntity
  8
Add_Red
  6
ByLayer
100
AcDbPolyline
 90
5
 70
1
 10
-57.417192
 20
-9.925896
 10
-57.417192
 20
-7.925895
 10
-57.489936
 20
-7.883896
 10
-58.665192
 20
-10.142234
 10
-58.88987
 20
-10.776147
  0
LWPOLYLINE
  5
BF
330
17
100
AcDbEntity
  8
Add_Red
  6
ByLayer
100
AcDbPolyline
 90
5
 70
1
 10
-20.994137
 20
-10.913305
 10
-21.204379
 20
-10.791921
 10
-22.936429
 20
-11.791921
 10
-22.936429
 20
-13.791921
 10
-22.330832
 20
-14.141563
  0
LWPOLYLINE
  5
C0
330
17
100
AcDbEntity
  8
Add_Red
  6
ByLayer
100
AcDbPolyline
 90
6
 70
1
 10
-23.936429
 20
-13.791921
 10
-23.936429
 20
-11.791921
 10
-25.66848
 20
-10.791921
 10
-27.400531
 20
-11.791921
 10
-27.400531
 20
-13.791921
 10
-25.66848
 20
-14.791921
  0
LWPOLYLINE
  5
C1
330
17
100
AcDbEntity
  8
Add_Red
  6
ByLayer
100
AcDbPolyline
 90
6
 70
1
 10
-28.40053
 20
-13.791921
 10
-28.40053
 20
-11.791921
 10
-30.132581
 20
-10.791921
 10
-31.864632
 20
-11.791921
 10
-31.864632
 20
-13.791921
 10
-30.132581
 20
-14.791921
  0
LWPOLYLINE
  5
C2
330
17
100
AcDbEntity
  8
Add_Red
  6
ByLayer
100
AcDbPolyline
 90
6
 70
1
 10
-32.864632
 20
-13.791921
 10
-32.864632
 20
-11.791921
 10
-34.596682
 20
-10.791921
 10
-36.328732
 20
-11.791921
 10
-36.328732
 20
-13.791921
 10
-34.596682
 20
-14.791921
  0
LWPOLYLINE
  5
C3
330
17
100
AcDbEntity
  8
Add_Red
  6
ByLayer
100
AcDbPolyline
 90
6
 70
1
 10
-37.328732
 20
-13.791921
 10
-37.328732
 20
-11.791921
 10
-39.060783
 20
-10.791921
 10
-40.792834
 20
-11.791921
 10
-40.792834
 20
-13.791921
 10
-39.060783
 20
-14.791921
  0
LWPOLYLINE
  5
C4
330
17
100
AcDbEntity
  8
Add_Red
  6
ByLayer
100
AcDbPolyline
 90
6
 70
1
 10
-41.792834
 20
-13.791921
 10
-41.792834
 20
-11.791921
 10
-43.524884
 20
-10.791921
 10
-45.256934
 20
-11.791921
 10
-45.256934
 20
-13.791921
 10
-43.524884
 20
-14.791921
  0
LWPOLYLINE
  5
C5
330
17
100
AcDbEntity
  8
Add_Red
  6
ByLayer
100
AcDbPolyline
 90
6
 70
1
 10
-46.256934
 20
-13.791921
 10
-46.256934
 20
-11.791921
 10
-47.988985
 20
-10.791921
 10
-49.721036
 20
-11.791921
 10
-49.721036
 20
-13.791921
 10
-47.988985
 20
-14.791921
  0
LWPOLYLINE
  5
C6
330
17
100
AcDbEntity
  8
Add_Red
  6
ByLayer
100
AcDbPolyline
 90
6
 70
1
 10
-50.721035
 20
-13.791921
 10
-50.721035
 20
-11.791921
 10
-52.453086
 20
-10.791921
 10
-54.185137
 20
-11.791921
 10
-54.185137
 20
-13.791921
 10
-52.453086
 20
-14.791921
  0
LWPOLYLINE
  5
C7
330
17
100
AcDbEntity
  8
Add_Red
  6
ByLayer
100
AcDbPolyline
 90
6
 70
1
 10
-55.185137
 20
-13.791921
 10
-55.185137
 20
-11.791921
 10
-56.917187
 20
-10.791921
 10
-58.649237
 20
-11.791921
 10
-58.649237
 20
-13.791921
 10
-56.917187
 20
-14.791921
  0
LWPOLYLINE
  5
C8
330
17
100
AcDbEntity
  8
Add_Red
  6
ByLayer
100
AcDbPolyline
 90
3
 70
1
 10
-59.649237
 20
-13.791921
 10
-59.649237
 20
-12.918649
 10
-60.038382
 20
-14.016594
  0
LWPOLYLINE
  5
C9
330
17
100
AcDbEntity
  8
Add_Red
  6
ByLayer
100
AcDbPolyline
 90
5
 70
1
 10
-22.716698
 20
-15.073469
 10
-23.436402
 20
-14.657947
 10
-25.168453
 20
-15.657947
 10
-25.168453
 20
-17.657947
 10
-24.053394
 20
-18.301727
  0
LWPOLYLINE
  5
CA
330
17
100
AcDbEntity
  8
Add_Red
  6
ByLayer
100
AcDbPolyline
 90
6
 70
1
 10
-26.168453
 20
-17.657947
 10
-26.168453
 20
-15.657947
 10
-27.900504
 20
-14.657947
 10
-29.632555
 20
-15.657947
 10
-29.632555
 20
-17.657947
 10
-27.900504
 20
-18.657947
  0
LWPOLYLINE
  5
CB
330
17
100
AcDbEntity
  8
Add_Red
  6
ByLayer
100
AcDbPolyline
 90
6
 70
1
 10
-30.632554
 20
-17.657947
 10
-30.632554
 20
-15.657947
 10
-32.364605
 20
-14.657947
 10
-34.096655
 20
-15.657947
 10
-34.096655
 20
-17.657947
 10
-32.364605
 20
-18.657947
  0
LWPOLYLINE
  5
CC
330
17
100
AcDbEntity
  8
Add_Red
  6
ByLayer
100
AcDbPolyline
 90
6
 70
1
 10
-35.096655
 20
-17.657947
 10
-35.096655
 20
-15.657947
 10
-36.828706
 20
-14.657947
 10
-38.560757
 20
-15.657947
 10
-38.560757
 20
-17.657947
 10
-36.828706
 20
-18.657947
  0
LWPOLYLINE
  5
CD
330
17
100
AcDbEntity
  8
Add_Red
  6
ByLayer
100
AcDbPolyline
 90
6
 70
1
 10
-39.560756
 20
-17.657947
 10
-39.560756
 20
-15.657947
 10
-41.292807
 20
-14.657947
 10
-43.024858
 20
-15.657947
 10
-43.024858
 20
-17.657947
 10
-41.292807
 20
-18.657947
  0
LWPOLYLINE
  5
CE
330
17
100
AcDbEntity
  8
Add_Red
  6
ByLayer
100
AcDbPolyline
 90
6
 70
1
 10
-44.024858
 20
-17.657947
 10
-44.024858
 20
-15.657947
 10
-45.756907
 20
-14.657947
 10
-47.488958
 20
-15.657947
 10
-47.488958
 20
-17.657947
 10
-45.756907
 20
-18.657947
  0
LWPOLYLINE
  5
CF
330
17
100
AcDbEntity
  8
Add_Red
  6
ByLayer
100
AcDbPolyline
 90
6
 70
1
 10
-48.488958
 20
-17.657947
 10
-48.488958
 20
-15.657947
 10
-50.221009
 20
-14.657947
 10
-51.95306
 20
-15.657947
 10
-51.95306
 20
-17.657947
 10
-50.221009
 20
-18.657947
  0
LWPOLYLINE
  5
D0
330
17
100
AcDbEntity
  8
Add_Red
  6
ByLayer
100
AcDbPolyline
 90
6
 70
1
 10
-52.953059
 20
-17.657947
 10
-52.953059
 20
-15.657947
 10
-54.68511
 20
-14.657947
 10
-56.41716
 20
-15.657947
 10
-56.41716
 20
-17.657947
 10
-54.68511
 20
-18.657947
  0
LWPOLYLINE
  5
D1
330
17
100
AcDbEntity
  8
Add_Red
  6
ByLayer
100
AcDbPolyline
 90
7
 70
1
 10
-57.41716
 20
-17.657947
 10
-57.41716
 20
-15.657947
 10
-59.149211
 20
-14.657947
 10
-60.552943
 20
-15.468392
 10
-60.881262
 20
-16.394722
 10
-60.881262
 20
-17.657947
 10
-59.149211
 20
-18.657947
  0
LWPOLYLINE
  5
D2
330
17
100
AcDbEntity
  8
Add_Red
  6
ByLayer
100
AcDbPolyline
 90
5
 70
1
 10
-24.439264
 20
-19.233642
 10
-25.668447
 20
-18.523972
 10
-27.400498
 20
-19.523972
 10
-27.400498
 20
-21.523972
 10
-25.77596
 20
-22.4619
  0
LWPOLYLINE
  5
D3
330
17
100
AcDbEntity
  8
Add_Red
  6
ByLayer
100
AcDbPolyline
 90
6
 70
1
 10
-28.400498
 20
-21.523972
 10
-28.400498
 20
-19.523972
 10
-30.132549
 20
-18.523972
 10
-31.8646
 20
-19.523972
 10
-31.8646
 20
-21.523972
 10
-30.132549
 20
-22.523973
  0
LWPOLYLINE
  5
D4
330
17
100
AcDbEntity
  8
Add_Red
  6
ByLayer
100
AcDbPolyline
 90
6
 70
1
 10
-32.864599
 20
-21.523972
 10
-32.864599
 20
-19.523972
 10
-34.596649
 20
-18.523972
 10
-36.3287
 20
-19.523972
 10
-36.3287
 20
-21.523972
 10
-34.596649
 20
-22.523973
  0
LWPOLYLINE
  5
D5
330
17
100
AcDbEntity
  8
Add_Red
  6
ByLayer
100
AcDbPolyline
 90
6
 70
1
 10
-37.3287
 20
-21.523972
 10
-37.3287
 20
-19.523972
 10
-39.060751
 20
-18.523972
 10
-40.792802
 20
-19.523972
 10
-40.792802
 20
-21.523972
 10
-39.060751
 20
-22.523973
  0
LWPOLYLINE
  5
D6
330
17
100
AcDbEntity
  8
Add_Red
  6
ByLayer
100
AcDbPolyline
 90
6
 70
1
 10
-41.792801
 20
-21.523972
 10
-41.792801
 20
-19.523972
 10
-43.524852
 20
-18.523972
 10
-45.256902
 20
-19.523972
 10
-45.256902
 20
-21.523972
 10
-43.524852
 20
-22.523973
  0
LWPOLYLINE
  5
D7
330
17
100
AcDbEntity
  8
Add_Red
  6
ByLayer
100
AcDbPolyline
 90
6
 70
1
 10
-46.256902
 20
-21.523972
 10
-46.256902
 20
-19.523972
 10
-47.988952
 20
-18.523972
 10
-49.721003
 20
-19.523972
 10
-49.721003
 20
-21.523972
 10
-47.988952
 20
-22.523973
  0
LWPOLYLINE
  5
D8
330
17
100
AcDbEntity
  8
Add_Red
  6
ByLayer
100
AcDbPolyline
 90
6
 70
1
 10
-50.721003
 20
-21.523972
 10
-50.721003
 20
-19.523972
 10
-52.453054
 20
-18.523972
 10
-54.185105
 20
-19.523972
 10
-54.185105
 20
-21.523972
 10
-52.453054
 20
-22.523973
  0
LWPOLYLINE
  5
D9
330
17
100
AcDbEntity
  8
Add_Red
  6
ByLayer
100
AcDbPolyline
 90
6
 70
1
 10
-55.185104
 20
-21.523972
 10
-55.185104
 20
-19.523972
 10
-56.917154
 20
-18.523972
 10
-58.649205
 20
-19.523972
 10
-58.649205
 20
-21.523972
 10
-56.917154
 20
-22.523973
  0
LWPOLYLINE
  5
DA
330
17
100
AcDbEntity
  8
Add_Red
  6
ByLayer
100
AcDbPolyline
 90
6
 70
1
 10
-59.649205
 20
-21.523972
 10
-59.649205
 20
-19.523972
 10
-61.381256
 20
-18.523972
 10
-61.703332
 20
-18.709923
 10
-62.790451
 20
-21.710373
 10
-61.381256
 20
-22.523973
  0
LWPOLYLINE
  5
DB
330
17
100
AcDbEntity
  8
Add_Red
  6
ByLayer
100
AcDbPolyline
 90
8
 70
1
 10
-27.000036
 20
-25.870132
 10
-26.175078
 20
-23.425812
 10
-26.168421
 20
-23.409735
 10
-26.168421
 20
-23.389999
 10
-27.900471
 20
-22.389998
 10
-29.632522
 20
-23.389999
 10
-29.632522
 20
-25.389999
 10
-27.900471
 20
-26.389999
  0
LWPOLYLINE
  5
DC
330
17
100
AcDbEntity
  8
Add_Red
  6
ByLayer
100
AcDbPolyline
 90
6
 70
1
 10
-30.632522
 20
-25.389999
 10
-30.632522
 20
-23.389999
 10
-32.364573
 20
-22.389998
 10
-34.096623
 20
-23.389999
 10
-34.096623
 20
-25.389999
 10
-32.364573
 20
-26.389999
  0
LWPOLYLINE
  5
DD
330
17
100
AcDbEntity
  8
Add_Red
  6
ByLayer
100
AcDbPolyline
 90
6
 70
1
 10
-35.096622
 20
-25.389999
 10
-35.096622
 20
-23.389999
 10
-36.828673
 20
-22.389998
 10
-38.560724
 20
-23.389999
 10
-38.560724
 20
-25.389999
 10
-36.828673
 20
-26.389999
  0
LWPOLYLINE
  5
DE
330
17
100
AcDbEntity
  8
Add_Red
  6
ByLayer
100
AcDbPolyline
 90
6
 70
1
 10
-39.560724
 20
-25.389999
 10
-39.560724
 20
-23.389999
 10
-41.292775
 20
-22.389998
 10
-43.024826
 20
-23.389999
 10
-43.024826
 20
-25.389999
 10
-41.292775
 20
-26.389999
  0
LWPOLYLINE
  5
DF
330
17
100
AcDbEntity
  8
Add_Red
  6
ByLayer
100
AcDbPolyline
 90
6
 70
1
 10
-44.024825
 20
-25.389999
 10
-44.024825
 20
-23.389999
 10
-45.756875
 20
-22.389998
 10
-47.488926
 20
-23.389999
 10
-47.488926
 20
-25.389999
 10
-45.756875
 20
-26.389999
  0
LWPOLYLINE
  5
E0
330
17
100
AcDbEntity
  8
Add_Red
  6
ByLayer
100
AcDbPolyline
 90
6
 70
1
 10
-48.488926
 20
-25.389999
 10
-48.488926
 20
-23.389999
 10
-50.220976
 20
-22.389998
 10
-51.953027
 20
-23.389999
 10
-51.953027
 20
-25.389999
 10
-50.220976
 20
-26.389999
  0
LWPOLYLINE
  5
E1
330
17
100
AcDbEntity
  8
Add_Red
  6
ByLayer
100
AcDbPolyline
 90
6
 70
1
 10
-52.953027
 20
-25.389999
 10
-52.953027
 20
-23.389999
 10
-54.685078
 20
-22.389998
 10
-56.417128
 20
-23.389999
 10
-56.417128
 20
-25.389999
 10
-54.685078
 20
-26.389999
  0
LWPOLYLINE
  5
E2
330
17
100
AcDbEntity
  8
Add_Red
  6
ByLayer
100
AcDbPolyline
 90
6
 70
1
 10
-57.417127
 20
-25.389999
 10
-57.417127
 20
-23.389999
 10
-59.149178
 20
-22.389998
 10
-60.881229
 20
-23.389999
 10
-60.881229
 20
-25.389999
 10
-59.149178
 20
-26.389999
  0
LWPOLYLINE
  5
E3
330
17
100
AcDbEntity
  8
Add_Red
  6
ByLayer
100
AcDbPolyline
 90
6
 70
1
 10
-61.881229
 20
-25.389999
 10
-61.881229
 20
-23.389999
 10
-63.13644
 20
-22.665302
 10
-64.286261
 20
-25.838809
 10
-64.32539
 20
-25.978862
 10
-63.61328
 20
-26.389999
  0
LWPOLYLINE
  5
E4
330
17
100
AcDbEntity
  8
Add_Red
  6
ByLayer
100
AcDbPolyline
 90
6
 70
1
 10
-28.400466
 20
-29.256024
 10
-28.400466
 20
-27.256024
 10
-30.132516
 20
-26.256024
 10
-31.864567
 20
-27.256024
 10
-31.864567
 20
-29.256024
 10
-30.132516
 20
-30.256024
  0
LWPOLYLINE
  5
E5
330
17
100
AcDbEntity
  8
Add_Red
  6
ByLayer
100
AcDbPolyline
 90
6
 70
1
 10
-32.864567
 20
-29.256024
 10
-32.864567
 20
-27.256024
 10
-34.596617
 20
-26.256024
 10
-36.328668
 20
-27.256024
 10
-36.328668
 20
-29.256024
 10
-34.596617
 20
-30.256024
  0
LWPOLYLINE
  5
E6
330
17
100
AcDbEntity
  8
Add_Red
  6
ByLayer
100
AcDbPolyline
 90
6
 70
1
 10
-37.328667
 20
-29.256024
 10
-37.328667
 20
-27.256024
 10
-39.060718
 20
-26.256024
 10
-40.792769
 20
-27.256024
 10
-40.792769
 20
-29.256024
 10
-39.060718
 20
-30.256024
  0
LWPOLYLINE
  5
E7
330
17
100
AcDbEntity
  8
Add_Red
  6
ByLayer
100
AcDbPolyline
 90
6
 70
1
 10
-41.792769
 20
-29.256024
 10
-41.792769
 20
-27.256024
 10
-43.52482
 20
-26.256024
 10
-45.256869
 20
-27.256024
 10
-45.256869
 20
-29.256024
 10
-43.52482
 20
-30.256024
  0
LWPOLYLINE
  5
E8
330
17
100
AcDbEntity
  8
Add_Red
  6
ByLayer
100
AcDbPolyline
 90
6
 70
1
 10
-46.256869
 20
-29.256024
 10
-46.256869
 20
-27.256024
 10
-47.98892
 20
-26.256024
 10
-49.720971
 20
-27.256024
 10
-49.720971
 20
-29.256024
 10
-47.98892
 20
-30.256024
  0
LWPOLYLINE
  5
E9
330
17
100
AcDbEntity
  8
Add_Red
  6
ByLayer
100
AcDbPolyline
 90
6
 70
1
 10
-50.720971
 20
-29.256024
 10
-50.720971
 20
-27.256024
 10
-52.453021
 20
-26.256024
 10
-54.185072
 20
-27.256024
 10
-54.185072
 20
-29.256024
 10
-52.453021
 20
-30.256024
  0
LWPOLYLINE
  5
EA
330
17
100
AcDbEntity
  8
Add_Red
  6
ByLayer
100
AcDbPolyline
 90
6
 70
1
 10
-55.185072
 20
-29.256024
 10
-55.185072
 20
-27.256024
 10
-56.917122
 20
-26.256024
 10
-58.649173
 20
-27.256024
 10
-58.649173
 20
-29.256024
 10
-56.917122
 20
-30.256024
  0
LWPOLYLINE
  5
EB
330
17
100
AcDbEntity
  8
Add_Red
  6
ByLayer
100
AcDbPolyline
 90
7
 70
1
 10
-59.649172
 20
-29.256024
 10
-59.649172
 20
-27.256024
 10
-61.381223
 20
-26.256024
 10
-63.113274
 20
-27.256024
 10
-63.113274
 20
-28.878843
 10
-62.877993
 20
-29.048245
 10
-60.292434
 20
-29.627411
  0
LWPOLYLINE
  5
EC
330
17
100
AcDbEntity
  8
Add_Red
  6
ByLayer
100
AcDbPolyline
 90
6
 70
1
 10
-64.113274
 20
-27.256024
 10
-64.603184
 20
-26.973174
 10
-64.79692
 20
-27.666616
 10
-64.796925
 20
-27.666614
 10
-64.796923
 20
-27.666615
 10
-64.113274
 20
-28.158842
  0
LWPOLYLINE
  5
ED
330
17
100
AcDbEntity
  8
Add_Red
  6
ByLayer
100
AcDbPolyline
 90
7
 70
1
 10
-27.807791
 20
-31.326196
 10
-27.744139
 20
-30.21229
 10
-27.900439
 20
-30.12205
 10
-29.63249
 20
-31.12205
 10
-29.63249
 20
-33.12205
 10
-29.070583
 20
-33.446467
 10
-27.818498
 20
-33.584587
  0
LWPOLYLINE
  5
EE
330
17
100
AcDbEntity
  8
Add_Red
  6
ByLayer
100
AcDbPolyline
 90
6
 70
1
 10
-30.63249
 20
-33.12205
 10
-30.63249
 20
-31.12205
 10
-32.36454
 20
-30.12205
 10
-34.09659
 20
-31.12205
 10
-34.09659
 20
-32.89204
 10
-30.853704
 20
-33.249768
  0
LWPOLYLINE
  5
EF
330
17
100
AcDbEntity
  8
Add_Red
  6
ByLayer
100
AcDbPolyline
 90
5
 70
1
 10
-35.09659
 20
-31.12205
 10
-36.828641
 20
-30.12205
 10
-38.560692
 20
-31.12205
 10
-38.560692
 20
-32.399597
 10
-35.09659
 20
-32.781728
  0
LWPOLYLINE
  5
F0
330
17
100
AcDbEntity
  8
Add_Red
  6
ByLayer
100
AcDbPolyline
 90
5
 70
1
 10
-39.560691
 20
-31.12205
 10
-41.292742
 20
-30.12205
 10
-43.024793
 20
-31.12205
 10
-43.024793
 20
-31.907154
 10
-39.560691
 20
-32.289285
  0
LWPOLYLINE
  5
F1
330
17
100
AcDbEntity
  8
Add_Red
  6
ByLayer
100
AcDbPolyline
 90
5
 70
1
 10
-44.024793
 20
-31.12205
 10
-45.756843
 20
-30.12205
 10
-47.488893
 20
-31.12205
 10
-47.488893
 20
-31.414711
 10
-44.024793
 20
-31.796842
  0
LWPOLYLINE
  5
F2
330
17
100
AcDbEntity
  8
Add_Red
  6
ByLayer
100
AcDbPolyline
 90
5
 70
1
 10
-48.488893
 20
-31.12205
 10
-50.220944
 20
-30.12205
 10
-51.634699
 20
-30.938282
 10
-50.437385
 20
-31.089458
 10
-48.488893
 20
-31.3044
  0
LWPOLYLINE
  5
F3
330
17
100
AcDbEntity
  8
Add_Red
  6
ByLayer
100
AcDbPolyline
 90
3
 70
1
 10
-54.685045
 20
-30.12205
 10
-55.297722
 20
-30.475779
 10
-53.729384
 20
-30.673802
  0
LWPOLYLINE
  5
F4
330
17
100
AcDbEntity
  8
Add_Red
  6
ByLayer
100
AcDbPolyline
 90
7
 70
1
 10
63.113274
 20
51.930514
 10
63.113274
 20
53.930514
 10
62.316045
 20
54.390794
 10
60.441949
 20
54.388224
 10
59.649173
 20
53.930514
 10
59.649173
 20
51.930514
 10
61.381223
 20
50.930514
  0
LWPOLYLINE
  5
F5
330
17
100
AcDbEntity
  8
Add_Red
  6
ByLayer
100
AcDbPolyline
 90
7
 70
1
 10
58.649174
 20
51.930514
 10
58.649174
 20
53.930514
 10
57.862524
 20
54.384686
 10
55.967219
 20
54.382087
 10
55.185072
 20
53.930514
 10
55.185072
 20
51.930514
 10
56.917123
 20
50.930514
  0
LWPOLYLINE
  5
F6
330
17
100
AcDbEntity
  8
Add_Red
  6
ByLayer
100
AcDbPolyline
 90
7
 70
1
 10
54.185072
 20
51.930514
 10
54.185072
 20
53.930514
 10
53.409002
 20
54.378578
 10
51.492488
 20
54.37595
 10
50.720971
 20
53.930514
 10
50.720971
 20
51.930514
 10
52.453021
 20
50.930514
  0
LWPOLYLINE
  5
F7
330
17
100
AcDbEntity
  8
Add_Red
  6
ByLayer
100
AcDbPolyline
 90
7
 70
1
 10
49.720971
 20
51.930514
 10
49.720971
 20
53.930514
 10
48.95548
 20
54.37247
 10
47.017758
 20
54.369813
 10
46.25687
 20
53.930514
 10
46.25687
 20
51.930514
 10
47.988921
 20
50.930514
  0
LWPOLYLINE
  5
F8
330
17
100
AcDbEntity
  8
Add_Red
  6
ByLayer
100
AcDbPolyline
 90
7
 70
1
 10
45.256871
 20
51.930514
 10
45.256871
 20
53.930514
 10
44.501959
 20
54.366362
 10
42.543027
 20
54.363676
 10
41.792769
 20
53.930514
 10
41.792769
 20
51.930514
 10
43.52482
 20
50.930514
  0
LWPOLYLINE
  5
F9
330
17
100
AcDbEntity
  8
Add_Red
  6
ByLayer
100
AcDbPolyline
 90
7
 70
1
 10
40.792769
 20
51.930514
 10
40.792769
 20
53.930514
 10
40.048437
 20
54.360254
 10
38.068296
 20
54.357539
 10
37.328667
 20
53.930514
 10
37.328667
 20
51.930514
 10
39.060718
 20
50.930514
  0
LWPOLYLINE
  5
FA
330
17
100
AcDbEntity
  8
Add_Red
  6
ByLayer
100
AcDbPolyline
 90
8
 70
1
 10
36.328668
 20
51.930514
 10
36.328668
 20
53.930514
 10
35.594915
 20
54.354147
 10
33.593566
 20
54.351402
 10
32.903838
 20
53.953187
 10
32.864567
 20
53.853269
 10
32.864567
 20
51.930514
 10
34.596618
 20
50.930514
  0
LWPOLYLINE
  5
FB
330
17
100
AcDbEntity
  8
Add_Red
  6
ByLayer
100
AcDbPolyline
 90
3
 70
1
 10
64.762436
 20
54.305308
 10
64.113274
 20
53.930514
 10
64.113274
 20
52.490057
  0
LWPOLYLINE
  5
FC
330
17
100
AcDbEntity
  8
Add_Red
  6
ByLayer
100
AcDbPolyline
 90
7
 70
1
 10
60.448654
 20
47.814741
 10
60.881229
 20
48.064488
 10
60.881229
 20
50.064489
 10
59.149179
 20
51.064489
 10
57.417129
 20
50.064489
 10
57.417129
 20
48.064488
 10
57.900244
 20
47.785561
  0
LWPOLYLINE
  5
FD
330
17
100
AcDbEntity
  8
Add_Red
  6
ByLayer
100
AcDbPolyline
 90
7
 70
1
 10
55.894229
 20
47.762592
 10
56.417129
 20
48.064488
 10
56.417129
 20
50.064489
 10
54.685078
 20
51.064489
 10
52.953027
 20
50.064489
 10
52.953027
 20
48.064488
 10
53.522955
 20
47.73544
  0
LWPOLYLINE
  5
FE
330
17
100
AcDbEntity
  8
Add_Red
  6
ByLayer
100
AcDbPolyline
 90
8
 70
1
 10
51.044481
 20
47.707061
 10
51.339802
 20
47.710442
 10
51.953027
 20
48.064488
 10
51.953027
 20
50.064489
 10
50.220976
 20
51.064489
 10
48.488927
 20
50.064489
 10
48.488927
 20
48.064488
 10
49.673423
 20
47.380618
  0
LWPOLYLINE
  5
FF
330
17
100
AcDbEntity
  8
Add_Red
  6
ByLayer
100
AcDbPolyline
 90
6
 70
1
 10
47.488927
 20
48.064488
 10
47.488927
 20
50.064489
 10
45.756876
 20
51.064489
 10
44.024825
 20
50.064489
 10
44.024825
 20
48.064488
 10
45.756876
 20
47.064488
  0
LWPOLYLINE
  5
100
330
17
100
AcDbEntity
  8
Add_Red
  6
ByLayer
100
AcDbPolyline
 90
6
 70
1
 10
43.024826
 20
48.064488
 10
43.024826
 20
50.064489
 10
41.292775
 20
51.064489
 10
39.560724
 20
50.064489
 10
39.560724
 20
48.064488
 10
41.292775
 20
47.064488
  0
LWPOLYLINE
  5
101
330
17
100
AcDbEntity
  8
Add_Red
  6
ByLayer
100
AcDbPolyline
 90
6
 70
1
 10
38.560724
 20
48.064488
 10
38.560724
 20
50.064489
 10
36.828673
 20
51.064489
 10
35.096624
 20
50.064489
 10
35.096624
 20
48.064488
 10
36.828673
 20
47.064488
  0
LWPOLYLINE
  5
102
330
17
100
AcDbEntity
  8
Add_Red
  6
ByLayer
100
AcDbPolyline
 90
7
 70
1
 10
34.096624
 20
48.064488
 10
34.096624
 20
50.064489
 10
32.364573
 20
51.064489
 10
31.593509
 20
50.619315
 10
30.632522
 20
48.174275
 10
30.632522
 20
48.064488
 10
32.364573
 20
47.064488
  0
LWPOLYLINE
  5
103
330
17
100
AcDbEntity
  8
Add_Red
  6
ByLayer
100
AcDbPolyline
 90
5
 70
1
 10
62.4495
 20
47.837651
 10
63.600915
 20
51.05735
 10
61.881229
 20
50.064489
 10
61.881229
 20
48.064488
 10
62.277533
 20
47.835682
  0
LWPOLYLINE
  5
104
330
17
100
AcDbEntity
  8
Add_Red
  6
ByLayer
100
AcDbPolyline
 90
5
 70
1
 10
47.383575
 20
46.835415
 10
48.257408
 20
47.043471
 10
47.988954
 20
47.198463
 10
46.256903
 20
46.198463
 10
46.256903
 20
46.197957
  0
LWPOLYLINE
  5
105
330
17
100
AcDbEntity
  8
Add_Red
  6
ByLayer
100
AcDbPolyline
 90
7
 70
1
 10
44.071234
 20
44.96133
 10
45.256903
 20
45.632168
 10
45.256903
 20
46.198463
 10
43.524852
 20
47.198463
 10
41.792801
 20
46.198463
 10
41.792801
 20
44.198463
 10
42.71729
 20
43.664709
  0
LWPOLYLINE
  5
106
330
17
100
AcDbEntity
  8
Add_Red
  6
ByLayer
100
AcDbPolyline
 90
7
 70
1
 10
40.792802
 20
44.198463
 10
40.792802
 20
46.198463
 10
39.060751
 20
47.198463
 10
37.3287
 20
46.198463
 10
37.3287
 20
44.198463
 10
38.524735
 20
43.507932
 10
39.570947
 20
43.493025
  0
LWPOLYLINE
  5
107
330
17
100
AcDbEntity
  8
Add_Red
  6
ByLayer
100
AcDbPolyline
 90
7
 70
1
 10
36.3287
 20
44.198463
 10
36.3287
 20
46.198463
 10
34.59665
 20
47.198463
 10
32.8646
 20
46.198463
 10
32.8646
 20
44.198463
 10
33.947675
 20
43.573149
 10
35.214364
 20
43.5551
  0
LWPOLYLINE
  5
108
330
17
100
AcDbEntity
  8
Add_Red
  6
ByLayer
100
AcDbPolyline
 90
7
 70
1
 10
31.8646
 20
44.198463
 10
31.8646
 20
46.198463
 10
30.227457
 20
47.143668
 10
29.621621
 20
45.602238
 10
28.726872
 20
44.010031
 10
29.370615
 20
43.638366
 10
30.857781
 20
43.617176
  0
VIEWPORT
  5
10D
330
109
100
AcDbEntity
 67
1
  8
0
  6
ByLayer
100
AcDbViewport
 10
0.0
 20
0.0
 30
0.0
 40
297.0
 41
210.0
 68
1
 69
1
 12
50.0
 22
100.0
 13
0.0
 23
0.0
 14
10.0
 24
10.0
 15
10.0
 25
10.0
 16
0.0
 26
0.0
 36
1.0
 17
0.0
 27
0.0
 37
0.0
 42
50.0
 43
0.0
 44
0.0
 45
250.0
 50
0.0
 51
0.0
 72
1000
 90
819232
  1

281
0
 71
0
 74
0
110
0.0
120
0.0
130
0.0
111
1.0
121
0.0
131
0.0
112
0.0
122
1.0
132
0.0
 79
0
146
0.0
  0
ENDSEC
  0
SECTION
  2
OBJECTS
  0
DICTIONARY
  5
110
330
0
100
AcDbDictionary
281
1
  3
ACAD_GROUP
350
111
  3
ACAD_LAYOUT
350
112
  3
ACAD_MLINESTYLE
350
113
  3
ACAD_COLOR
350
115
  3
ACAD_MATERIAL
350
116
  3
ACAD_MLEADERSTYLE
350
117
  3
ACAD_PLOTSETTINGS
350
118
  3
ACAD_PLOTSTYLENAME
350
119
  3
ACAD_SCALELIST
350
11B
  3
ACAD_TABLESTYLE
350
11C
  3
ACAD_VISUALSTYLE
350
11D
  3
EZDXF_META
350
125
  0
DICTIONARY
  5
111
330
110
100
AcDbDictionary
281
1
  0
DICTIONARY
  5
112
330
110
100
AcDbDictionary
281
1
  3
Model
350
1B
  3
Layout1
350
10E
  0
DICTIONARY
  5
113
330
110
100
AcDbDictionary
281
1
  3
Standard
350
16
  0
LAYOUT
  5
1B
330
112
100
AcDbPlotSettings
  1

  2
none_device
  4
ISO_A4_(210.00_x_297.00_MM)
  6

 40
7.5
 41
20.0
 42
7.5
 43
20.0
 44
210.0
 45
297.0
 46
0.0
 47
0.0
 48
0.0
 49
0.0
140
0.0
141
0.0
142
1.0
143
1.0
 70
11952
 72
1
 73
1
 74
5
  7

 75
16
 76
0
 77
2
 78
300
147
1.0
148
0.0
149
0.0
100
AcDbLayout
  1
Model
 70
1
 71
0
 10
-20.0
 20
-7.5
 11
277.0
 21
202.5
 12
0.0
 22
0.0
 32
0.0
 14
25.7
 24
19.5
 34
0.0
 15
231.3
 25
175.5
 35
0.0
146
0.0
 13
0.0
 23
0.0
 33
0.0
 16
1.0
 26
0.0
 36
0.0
 17
0.0
 27
1.0
 37
0.0
 76
0
330
17
  0
LAYOUT
  5
10E
330
112
100
AcDbPlotSettings
  1

  2
none_device
  4
ISO_A4_(210.00_x_297.00_MM)
  6

 40
7.5
 41
20.0
 42
7.5
 43
20.0
 44
210.0
 45
297.0
 46
0.0
 47
0.0
 48
0.0
 49
0.0
140
0.0
141
0.0
142
1.0
143
1.0
 70
688
 72
1
 73
1
 74
5
  7

 75
16
 76
0
 77
2
 78
300
147
1.0
148
0.0
149
0.0
100
AcDbLayout
  1
Layout1
 70
1
 71
1
 10
-20.0
 20
-7.5
 11
277.0
 21
202.5
 12
0.0
 22
0.0
 32
0.0
 14
25.7
 24
19.5
 34
0.0
 15
231.3
 25
175.5
 35
0.0
146
0.0
 13
0.0
 23
0.0
 33
0.0
 16
1.0
 26
0.0
 36
0.0
 17
0.0
 27
1.0
 37
0.0
 76
0
330
109
  0
MLINESTYLE
  5
16
330
113
100
AcDbMlineStyle
  2
Standard
 70
0
  3

 62
256
 51
90.0
 52
90.0
 71
2
 49
0.5
 62
256
  6
ByLayer
 49
-0.5
 62
256
  6
ByLayer
  0
DICTIONARY
  5
115
330
110
100
AcDbDictionary
281
1
  0
DICTIONARY
  5
116
330
110
100
AcDbDictionary
281
1
  3
ByBlock
350
11E
  3
ByLayer
350
11F
  3
Global
350
120
  0
DICTIONARY
  5
117
330
110
100
AcDbDictionary
281
1
  3
Standard
350
122
  0
DICTIONARY
  5
118
330
110
100
AcDbDictionary
281
1
  0
ACDBDICTIONARYWDFLT
  5
119
330
110
100
AcDbDictionary
281
1
  3
Normal
350
11A
100
AcDbDictionaryWithDefault
340
11A
  0
ACDBPLACEHOLDER
  5
11A
330
119
  0
DICTIONARY
  5
11B
330
110
100
AcDbDictionary
281
1
  0
DICTIONARY
  5
11C
330
110
100
AcDbDictionary
281
1
  0
DICTIONARY
  5
11D
330
110
100
AcDbDictionary
281
1
  0
MATERIAL
  5
11E
102
{ACAD_REACTORS
330
116
102
}
330
116
100
AcDbMaterial
  1
ByBlock
  2

 70
0
 40
1.0
 71
1
 41
1.0
 91
-1023410177
 42
1.0
 72
1
  3

 73
1
 74
1
 75
1
 44
0.5
 73
0
 45
1.0
 46
1.0
 77
1
  4

 78
1
 79
1
170
1
 48
1.0
171
1
  6

172
1
173
1
174
1
140
1.0
141
1.0
175
1
  7

176
1
177
1
178
1
143
1.0
179
1
  8

270
1
271
1
272
1
145
1.0
146
1.0
273
1
  9

274
1
275
1
276
1
 42
1.0
 72
1
  3

 73
1
 74
1
 75
1
 94
63
  0
MATERIAL
  5
11F
102
{ACAD_REACTORS
330
116
102
}
330
116
100
AcDbMaterial
  1
ByLayer
  2

 70
0
 40
1.0
 71
1
 41
1.0
 91
-1023410177
 42
1.0
 72
1
  3

 73
1
 74
1
 75
1
 44
0.5
 73
0
 45
1.0
 46
1.0
 77
1
  4

 78
1
 79
1
170
1
 48
1.0
171
1
  6

172
1
173
1
174
1
140
1.0
141
1.0
175
1
  7

176
1
177
1
178
1
143
1.0
179
1
  8

270
1
271
1
272
1
145
1.0
146
1.0
273
1
  9

274
1
275
1
276
1
 42
1.0
 72
1
  3

 73
1
 74
1
 75
1
 94
63
  0
MATERIAL
  5
120
102
{ACAD_REACTORS
330
116
102
}
330
116
100
AcDbMaterial
  1
Global
  2

 70
0
 40
1.0
 71
1
 41
1.0
 91
-1023410177
 42
1.0
 72
1
  3

 73
1
 74
1
 75
1
 44
0.5
 73
0
 45
1.0
 46
1.0
 77
1
  4

 78
1
 79
1
170
1
 48
1.0
171
1
  6

172
1
173
1
174
1
140
1.0
141
1.0
175
1
  7

176
1
177
1
178
1
143
1.0
179
1
  8

270
1
271
1
272
1
145
1.0
146
1.0
273
1
  9

274
1
275
1
276
1
 42
1.0
 72
1
  3

 73
1
 74
1
 75
1
 94
63
  0
MLEADERSTYLE
  5
122
102
{ACAD_REACTORS
330
117
102
}
330
117
100
AcDbMLeaderStyle
179
2
170
2
171
1
172
0
 90
2
 40
0.0
 41
0.0
173
1
 91
-1056964608
 92
-2
290
1
 42
2.0
291
1
 43
8.0
  3
Standard
 44
4.0
300

342
13
174
1
175
1
176
0
178
1
 93
-1056964608
 45
4.0
292
0
297
0
 46
4.0
 94
-1056964608
 47
1.0
 49
1.0
140
1.0
294
1
141
0.0
177
0
142
1.0
295
0
296
0
143
3.75
271
0
272
9
273
9
  0
DICTIONARY
  5
125
330
110
100
AcDbDictionary
280
1
281
1
  3
WRITTEN_BY_EZDXF
350
126
  0
DICTIONARYVAR
  5
126
330
125
100
DictionaryVariables
280
0
  1
1.4.3 @ 2026-07-28T02:48:20.055214+00:00
  0
ENDSEC
  0
EOF
