  0
SECTION
  2
HEADER
  9
$ACADVER
  1
AC1024
  9
$ACADMAINTVER
 70
6
  9
$DWGCODEPAGE
  3
ANSI_1252
  9
$LASTSAVEDBY
  1
ezdxf
  9
$INSBASE
 10
0.0
 20
0.0
 30
0.0
  9
$EXTMIN
 10
1e+20
 20
1e+20
 30
1e+20
  9
$EXTMAX
 10
-1e+20
 20
-1e+20
 30
-1e+20
  9
$LIMMIN
 10
0.0
 20
0.0
  9
$LIMMAX
 10
420.0
 20
297.0
  9
$ORTHOMODE
 70
0
  9
$REGENMODE
 70
1
  9
$FILLMODE
 70
1
  9
$QTEXTMODE
 70
0
  9
$MIRRTEXT
 70
1
  9
$LTSCALE
 40
1.0
  9
$ATTMODE
 70
1
  9
$TEXTSIZE
 40
2.5
  9
$TRACEWID
 40
1.0
  9
$TEXTSTYLE
  7
Standard
  9
$CLAYER
  8
0
  9
$CELTYPE
  6
ByLayer
  9
$CECOLOR
 62
256
  9
$CELTSCALE
 40
1.0
  9
$DISPSILH
 70
0
  9
$DIMSCALE
 40
1.0
  9
$DIMASZ
 40
2.5
  9
$DIMEXO
 40
0.625
  9
$DIMDLI
 40
3.75
  9
$DIMRND
 40
0.0
  9
$DIMDLE
 40
0.0
  9
$DIMEXE
 40
1.25
  9
$DIMTP
 40
0.0
  9
$DIMTM
 40
0.0
  9
$DIMTXT
 40
2.5
  9
$DIMCEN
 40
2.5
  9
$DIMTSZ
 40
0.0
  9
$DIMTOL
 70
0
  9
$DIMLIM
 70
0
  9
$DIMTIH
 70
0
  9
$DIMTOH
 70
0
  9
$DIMSE1
 70
0
  9
$DIMSE2
 70
0
  9
$DIMTAD
 70
1
  9
$DIMZIN
 70
8
  9
$DIMBLK
  1

  9
$DIMASO
 70
1
  9
$DIMSHO
 70
1
  9
$DIMPOST
  1

  9
$DIMAPOST
  1

  9
$DIMALT
 70
0
  9
$DIMALTD
 70
3
  9
$DIMALTF
 40
0.03937007874
  9
$DIMLFAC
 40
1.0
  9
$DIMTOFL
 70
1
  9
$DIMTVP
 40
0.0
  9
$DIMTIX
 70
0
  9
$DIMSOXD
 70
0
  9
$DIMSAH
 70
0
  9
$DIMBLK1
  1

  9
$DIMBLK2
  1

  9
$DIMSTYLE
  2
ISO-25
  9
$DIMCLRD
 70
0
  9
$DIMCLRE
 70
0
  9
$DIMCLRT
 70
0
  9
$DIMTFAC
 40
1.0
  9
$DIMGAP
 40
0.625
  9
$DIMJUST
 70
0
  9
$DIMSD1
 70
0
  9
$DIMSD2
 70
0
  9
$DIMTOLJ
 70
0
  9
$DIMTZIN
 70
8
  9
$DIMALTZ
 70
0
  9
$DIMALTTZ
 70
0
  9
$DIMUPT
 70
0
  9
$DIMDEC
 70
2
  9
$DIMTDEC
 70
2
  9
$DIMALTU
 70
2
  9
$DIMALTTD
 70
3
  9
$DIMTXSTY
  7
Standard
  9
$DIMAUNIT
 70
0
  9
$DIMADEC
 70
0
  9
$DIMALTRND
 40
0.0
  9
$DIMAZIN
 70
0
  9
$DIMDSEP
 70
44
  9
$DIMATFIT
 70
3
  9
$DIMFRAC
 70
0
  9
$DIMLDRBLK
  1

  9
$DIMLUNIT
 70
2
  9
$DIMLWD
 70
-2
  9
$DIMLWE
 70
-2
  9
$DIMTMOVE
 70
0
  9
$DIMFXL
 40
1.0
  9
$DIMFXLON
 70
0
  9
$DIMJOGANG
 40
0.785398163397
  9
$DIMTFILL
 70
0
  9
$DIMTFILLCLR
 70
0
  9
$DIMARCSYM
 70
0
  9
$DIMLTYPE
  6

  9
$DIMLTEX1
  6

  9
$DIMLTEX2
  6

  9
$DIMTXTDIRECTION
 70
0
  9
$LUNITS
 70
2
  9
$LUPREC
 70
4
  9
$SKETCHINC
 40
1.0
  9
$FILLETRAD
 40
10.0
  9
$AUNITS
 70
0
  9
$AUPREC
 70
2
  9
$MENU
  1
.
  9
$ELEVATION
 40
0.0
  9
$PELEVATION
 40
0.0
  9
$THICKNESS
 40
0.0
  9
$LIMCHECK
 70
0
  9
$CHAMFERA
 40
0.0
  9
$CHAMFERB
 40
0.0
  9
$CHAMFERC
 40
0.0
  9
$CHAMFERD
 40
0.0
  9
$SKPOLY
 70
0
  9
$TDCREATE
 40
2461138.751724537
  9
$TDUCREATE
 40
2458532.153996898
  9
$TDUPDATE
 40
2461138.751724537
  9
$TDUUPDATE
 40
2458532.1544311
  9
$TDINDWG
 40
0.0
  9
$TDUSRTIMER
 40
0.0
  9
$USRTIMER
 70
1
  9
$ANGBASE
 50
0.0
  9
$ANGDIR
 70
0
  9
$PDMODE
 70
0
  9
$PDSIZE
 40
0.0
  9
$PLINEWID
 40
0.0
  9
$SPLFRAME
 70
0
  9
$SPLINETYPE
 70
6
  9
$SPLINESEGS
 70
8
  9
$HANDSEED
  5
39
  9
$SURFTAB1
 70
6
  9
$SURFTAB2
 70
6
  9
$SURFTYPE
 70
6
  9
$SURFU
 70
6
  9
$SURFV
 70
6
  9
$UCSBASE
  2

  9
$UCSNAME
  2

  9
$UCSORG
 10
0.0
 20
0.0
 30
0.0
  9
$UCSXDIR
 10
1.0
 20
0.0
 30
0.0
  9
$UCSYDIR
 10
0.0
 20
1.0
 30
0.0
  9
$UCSORTHOREF
  2

  9
$UCSORTHOVIEW
 70
0
  9
$UCSORGTOP
 10
0.0
 20
0.0
 30
0.0
  9
$UCSORGBOTTOM
 10
0.0
 20
0.0
 30
0.0
  9
$UCSORGLEFT
 10
0.0
 20
0.0
 30
0.0
  9
$UCSORGRIGHT
 10
0.0
 20
0.0
 30
0.0
  9
$UCSORGFRONT
 10
0.0
 20
0.0
 30
0.0
  9
$UCSORGBACK
 10
0.0
 20
0.0
 30
0.0
  9
$PUCSBASE
  2

  9
$PUCSNAME
  2

  9
$PUCSORG
 10
0.0
 20
0.0
 30
0.0
  9
$PUCSXDIR
 10
1.0
 20
0.0
 30
0.0
  9
$PUCSYDIR
 10
0.0
 20
1.0
 30
0.0
  9
$PUCSORTHOREF
  2

  9
$PUCSORTHOVIEW
 70
0
  9
$PUCSORGTOP
 10
0.0
 20
0.0
 30
0.0
  9
$PUCSORGBOTTOM
 10
0.0
 20
0.0
 30
0.0
  9
$PUCSORGLEFT
 10
0.0
 20
0.0
 30
0.0
  9
$PUCSORGRIGHT
 10
0.0
 20
0.0
 30
0.0
  9
$PUCSORGFRONT
 10
0.0
 20
0.0
 30
0.0
  9
$PUCSORGBACK
 10
0.0
 20
0.0
 30
0.0
  9
$USERI1
 70
0
  9
$USERI2
 70
0
  9
$USERI3
 70
0
  9
$USERI4
 70
0
  9
$USERI5
 70
0
  9
$USERR1
 40
0.0
  9
$USERR2
 40
0.0
  9
$USERR3
 40
0.0
  9
$USERR4
 40
0.0
  9
$USERR5
 40
0.0
  9
$WORLDVIEW
 70
1
  9
$SHADEDGE
 70
3
  9
$SHADEDIF
 70
70
  9
$TILEMODE
 70
1
  9
$MAXACTVP
 70
64
  9
$PINSBASE
 10
0.0
 20
0.0
 30
0.0
  9
$PLIMCHECK
 70
0
  9
$PEXTMIN
 10
1e+20
 20
1e+20
 30
1e+20
  9
$PEXTMAX
 10
-1e+20
 20
-1e+20
 30
-1e+20
  9
$PLIMMIN
 10
0.0
 20
0.0
  9
$PLIMMAX
 10
420.0
 20
297.0
  9
$UNITMODE
 70
0
  9
$VISRETAIN
 70
1
  9
$PLINEGEN
 70
0
  9
$PSLTSCALE
 70
1
  9
$TREEDEPTH
 70
3020
  9
$CMLSTYLE
  2
Standard
  9
$CMLJUST
 70
0
  9
$CMLSCALE
 40
20.0
  9
$PROXYGRAPHICS
 70
1
  9
$MEASUREMENT
 70
1
  9
$CELWEIGHT
370
-1
  9
$ENDCAPS
280
0
  9
$JOINSTYLE
280
0
  9
$LWDISPLAY
290
0
  9
$INSUNITS
 70
6
  9
$HYPERLINKBASE
  1

  9
$STYLESHEET
  1

  9
$XEDIT
290
1
  9
$CEPSNTYPE
380
0
  9
$PSTYLEMODE
290
1
  9
$FINGERPRINTGUID
  2
{E6A12C07-E4B9-4B75-8388-3C60A9632659}
  9
$VERSIONGUID
  2
{92419D3C-59BB-4237-828E-EC86A72550C1}
  9
$EXTNAMES
290
1
  9
$PSVPSCALE
 40
0.0
  9
$OLESTARTUP
290
0
  9
$SORTENTS
280
127
  9
$INDEXCTL
280
0
  9
$HIDETEXT
280
1
  9
$XCLIPFRAME
280
1
  9
$HALOGAP
280
0
  9
$OBSCOLOR
 70
257
  9
$OBSLTYPE
280
0
  9
$INTERSECTIONDISPLAY
280
0
  9
$INTERSECTIONCOLOR
 70
257
  9
$DIMASSOC
280
2
  9
$PROJECTNAME
  1

  9
$CAMERADISPLAY
290
0
  9
$LENSLENGTH
 40
50.0
  9
$CAMERAHEIGHT
 40
0.0
  9
$STEPSPERSEC
 40
24.0
  9
$STEPSIZE
 40
100.0
  9
$3DDWFPREC
 40
2.0
  9
$PSOLWIDTH
 40
0.005
  9
$PSOLHEIGHT
 40
0.08
  9
$LOFTANG1
 40
1.570796326795
  9
$LOFTANG2
 40
1.570796326795
  9
$LOFTMAG1
 40
0.0
  9
$LOFTMAG2
 40
0.0
  9
$LOFTPARAM
 70
7
  9
$LOFTNORMALS
280
1
  9
$LATITUDE
 40
37.795
  9
$LONGITUDE
 40
-122.394
  9
$NORTHDIRECTION
 40
0.0
  9
$TIMEZONE
 70
-8000
  9
$LIGHTGLYPHDISPLAY
280
1
  9
$TILEMODELIGHTSYNCH
280
1
  9
$CMATERIAL
347
20
  9
$SOLIDHIST
280
0
  9
$SHOWHIST
280
1
  9
$DWFFRAME
280
2
  9
$DGNFRAME
280
2
  9
$REALWORLDSCALE
290
1
  9
$INTERFERECOLOR
 62
256
  9
$CSHADOW
280
0
  9
$SHADOWPLANELOCATION
 40
0.0
  0
ENDSEC
  0
SECTION
  2
CLASSES
  0
CLASS
  1
ACDBDICTIONARYWDFLT
  2
AcDbDictionaryWithDefault
  3
ObjectDBX Classes
 90
0
 91
0
280
0
281
0
  0
CLASS
  1
SUN
  2
AcDbSun
  3
SCENEOE
 90
1153
 91
0
280
0
281
0
  0
CLASS
  1
VISUALSTYLE
  2
AcDbVisualStyle
  3
ObjectDBX Classes
 90
4095
 91
0
280
0
281
0
  0
CLASS
  1
MATERIAL
  2
AcDbMaterial
  3
ObjectDBX Classes
 90
1153
 91
0
280
0
281
0
  0
CLASS
  1
SCALE
  2
AcDbScale
  3
ObjectDBX Classes
 90
1153
 91
0
280
0
281
0
  0
CLASS
  1
TABLESTYLE
  2
AcDbTableStyle
  3
ObjectDBX Classes
 90
4095
 91
0
280
0
281
0
  0
CLASS
  1
MLEADERSTYLE
  2
AcDbMLeaderStyle
  3
ACDB_MLEADERSTYLE_CLASS
 90
4095
 91
0
280
0
281
0
  0
CLASS
  1
DICTIONARYVAR
  2
AcDbDictionaryVar
  3
ObjectDBX Classes
 90
0
 91
0
280
0
281
0
  0
CLASS
  1
CELLSTYLEMAP
  2
AcDbCellStyleMap
  3
ObjectDBX Classes
 90
1152
 91
0
280
0
281
0
  0
CLASS
  1
MENTALRAYRENDERSETTINGS
  2
AcDbMentalRayRenderSettings
  3
SCENEOE
 90
1024
 91
0
280
0
281
0
  0
CLASS
  1
ACDBDETAILVIEWSTYLE
  2
AcDbDetailViewStyle
  3
ObjectDBX Classes
 90
1025
 91
0
280
0
281
0
  0
CLASS
  1
ACDBSECTIONVIEWSTYLE
  2
AcDbSectionViewStyle
  3
ObjectDBX Classes
 90
1025
 91
0
280
0
281
0
  0
CLASS
  1
RASTERVARIABLES
  2
AcDbRasterVariables
  3
ISM
 90
0
 91
0
280
0
281
0
  0
CLASS
  1
LAYOUT
  2
AcDbLayout
  3
ObjectDBX Classes
 90
0
 91
0
280
0
281
0
  0
CLASS
  1
ACDBPLACEHOLDER
  2
AcDbPlaceHolder
  3
ObjectDBX Classes
 90
0
 91
0
280
0
281
0
  0
ENDSEC
  0
SECTION
  2
TABLES
  0
TABLE
  2
VPORT
  5
8
330
0
100
AcDbSymbolTable
 70
1
  0
VPORT
  5
23
330
8
100
AcDbSymbolTableRecord
100
AcDbViewportTableRecord
  2
*Active
 70
0
 10
0.0
 20
0.0
 11
1.0
 21
1.0
 12
0.0
 22
0.0
 13
0.0
 23
0.0
 14
0.5
 24
0.5
 15
0.5
 25
0.5
 16
0.0
 26
0.0
 36
1.0
 17
0.0
 27
0.0
 37
0.0
 40
1000.0
 41
1.34
 42
50.0
 43
0.0
 44
0.0
 50
0.0
 51
0.0
 71
0
 72
1000
 73
1
 74
3
 75
0
 76
0
 77
0
 78
0
281
0
 65
0
146
0.0
  0
ENDTAB
  0
TABLE
  2
LTYPE
  5
2
330
0
100
AcDbSymbolTable
 70
3
  0
LTYPE
  5
24
330
2
100
AcDbSymbolTableRecord
100
AcDbLinetypeTableRecord
  2
ByBlock
 70
0
  3

 72
65
 73
0
 40
0.0
  0
LTYPE
  5
25
330
2
100
AcDbSymbolTableRecord
100
AcDbLinetypeTableRecord
  2
ByLayer
 70
0
  3

 72
65
 73
0
 40
0.0
  0
LTYPE
  5
26
330
2
100
AcDbSymbolTableRecord
100
AcDbLinetypeTableRecord
  2
Continuous
 70
0
  3

 72
65
 73
0
 40
0.0
  0
ENDTAB
  0
TABLE
  2
LAYER
  5
1
330
0
100
AcDbSymbolTable
 70
2
  0
LAYER
  5
27
330
1
100
AcDbSymbolTableRecord
100
AcDbLayerTableRecord
  2
0
 70
0
 62
7
  6
Continuous
370
-3
390
13
347
21
  0
LAYER
  5
28
330
1
100
AcDbSymbolTableRecord
100
AcDbLayerTableRecord
  2
Defpoints
 70
0
 62
7
  6
Continuous
290
0
370
-3
390
13
347
21
  0
ENDTAB
  0
TABLE
  2
STYLE
  5
5
330
0
100
AcDbSymbolTable
 70
1
  0
STYLE
  5
29
330
5
100
AcDbSymbolTableRecord
100
AcDbTextStyleTableRecord
  2
Standard
 70
0
 40
0.0
 41
1.0
 50
0.0
 71
0
 42
2.5
  3
txt
  4

  0
ENDTAB
  0
TABLE
  2
VIEW
  5
7
330
0
100
AcDbSymbolTable
 70
0
  0
ENDTAB
  0
TABLE
  2
UCS
  5
6
330
0
100
AcDbSymbolTable
 70
0
  0
ENDTAB
  0
TABLE
  2
APPID
  5
3
330
0
100
AcDbSymbolTable
 70
3
  0
APPID
  5
2A
330
3
100
AcDbSymbolTableRecord
100
AcDbRegAppTableRecord
  2
ACAD
 70
0
  0
APPID
  5
36
330
3
100
AcDbSymbolTableRecord
100
AcDbRegAppTableRecord
  2
HATCHBACKGROUNDCOLOR
 70
0
  0
APPID
  5
37
330
3
100
AcDbSymbolTableRecord
100
AcDbRegAppTableRecord
  2
EZDXF
 70
0
  0
ENDTAB
  0
TABLE
  2
DIMSTYLE
  5
4
330
0
100
AcDbSymbolTable
 70
1
100
AcDbDimStyleTable
  0
DIMSTYLE
105
2B
330
4
100
AcDbSymbolTableRecord
100
AcDbDimStyleTableRecord
  2
Standard
 70
0
 40
1.0
 41
2.5
 42
0.625
 43
3.75
 44
1.25
 45
0.0
 46
0.0
 47
0.0
 48
0.0
 49
2.5
140
2.5
141
2.5
142
0.0
143
0.03937007874
144
1.0
145
0.0
146
1.0
147
0.625
148
0.0
 69
0
 70
0
 71
0
 72
0
 73
0
 74
0
 75
0
 76
0
 77
1
 78
8
 79
3
170
0
171
3
172
1
173
0
174
0
175
0
176
0
177
0
178
0
179
2
271
2
272
2
273
2
274
3
275
0
276
0
277
2
278
44
279
0
280
0
281
0
282
0
283
0
284
8
285
0
286
0
288
0
289
3
290
0
371
-2
372
-2
  0
ENDTAB
  0
TABLE
  2
BLOCK_RECORD
  5
9
330
0
100
AcDbSymbolTable
 70
2
  0
BLOCK_RECORD
  5
17
330
9
100
AcDbSymbolTableRecord
100
AcDbBlockTableRecord
  2
*Model_Space
340
1A
 70
0
280
1
281
0
  0
BLOCK_RECORD
  5
1B
330
9
100
AcDbSymbolTableRecord
100
AcDbBlockTableRecord
  2
*Paper_Space
340
1E
 70
0
280
1
281
0
  0
ENDTAB
  0
ENDSEC
  0
SECTION
  2
BLOCKS
  0
BLOCK
  5
18
330
17
100
AcDbEntity
  8
0
100
AcDbBlockBegin
  2
*Model_Space
 70
0
 10
0.0
 20
0.0
 30
0.0
  3
*Model_Space
  1

  0
ENDBLK
  5
19
330
17
100
AcDbEntity
  8
0
100
AcDbBlockEnd
  0
BLOCK
  5
1C
330
1B
100
AcDbEntity
  8
0
100
AcDbBlockBegin
  2
*Paper_Space
 70
0
 10
0.0
 20
0.0
 30
0.0
  3
*Paper_Space
  1

  0
ENDBLK
  5
1D
330
1B
100
AcDbEntity
  8
0
100
AcDbBlockEnd
  0
ENDSEC
  0
SECTION
  2
ENTITIES
  0
LWPOLYLINE
  5
2F
330
17
100
AcDbEntity
  8
0
100
AcDbPolyline
 90
545
 70
0
 10
185.028332
 20
-110.15599
 10
185.08091
 20
-110.015274
 10
185.13475799999998
 20
-109.873796
 10
185.19012999999998
 20
-109.73181
 10
185.247026
 20
-109.58957
 10
185.305446
 20
-109.44733
 10
185.36539
 20
-109.30534399999999
 10
185.427112
 20
-109.16386599999998
 10
185.490866
 20
-109.02289599999999
 10
185.556652
 20
-108.88294199999999
 10
185.62447000000003
 20
-108.74425799999999
 10
185.69457400000002
 20
-108.60735199999999
 10
185.766964
 20
-108.47196999999998
 10
185.84163999999998
 20
-108.33887399999999
 10
185.91885599999998
 20
-108.208064
 10
185.99861199999998
 20
-108.07979399999999
 10
186.08116199999998
 20
-107.95431799999999
 10
186.166506
 20
-107.83188999999997
 10
186.25464399999998
 20
-107.71276399999998
 10
186.34583
 20
-107.59719399999999
 10
186.440318
 20
-107.48543399999998
 10
186.53785399999998
 20
-107.377738
 10
186.638692
 20
-107.27436
 10
186.74308599999998
 20
-107.17555399999999
 10
186.85078199999998
 20
-107.08157399999999
 10
186.96228799999997
 20
-106.99267399999998
 10
187.07734999999997
 20
-106.90910799999999
 10
187.19622199999995
 20
-106.83138399999999
 10
187.31915799999996
 20
-106.75950199999998
 10
187.44615799999997
 20
-106.69371599999998
 10
187.57722199999995
 20
-106.63427999999999
 10
187.71234999999996
 20
-106.58144799999998
 10
187.85179599999995
 20
-106.53547399999998
 10
187.93205999999998
 20
-106.51286799999998
 10
188.01257799999996
 20
-106.49280199999998
 10
188.09334999999996
 20
-106.47527599999998
 10
188.17462999999998
 20
-106.46028999999997
 10
188.25616399999998
 20
-106.44758999999996
 10
188.337952
 20
-106.43717599999997
 10
188.41999399999997
 20
-106.42904799999997
 10
188.50203599999998
 20
-106.42295199999997
 10
188.58433199999996
 20
-106.41888799999997
 10
188.666882
 20
-106.41685599999997
 10
188.749686
 20
-106.41660199999998
 10
188.83248999999998
 20
-106.41812599999997
 10
188.915548
 20
-106.42142799999996
 10
188.998606
 20
-106.42625399999997
 10
189.081664
 20
-106.43260399999996
 10
189.16472199999998
 20
-106.44047799999996
 10
189.248034
 20
-106.44962199999996
 10
189.33134599999997
 20
-106.46003599999996
 10
189.41465799999997
 20
-106.47171999999996
 10
189.49796999999995
 20
-106.48441999999996
 10
189.58102799999995
 20
-106.49813599999996
 10
189.66408599999997
 20
-106.51261399999996
 10
189.74714399999996
 20
-106.52810799999996
 10
189.82994799999997
 20
-106.54436399999996
 10
189.91275199999998
 20
-106.56112799999995
 10
189.99530199999998
 20
-106.57865399999996
 10
190.077852
 20
-106.59668799999996
 10
190.160148
 20
-106.61522999999995
 10
190.24218999999997
 20
-106.63402599999996
 10
190.32423199999997
 20
-106.65307599999996
 10
190.40601999999998
 20
-106.67237999999996
 10
190.487554
 20
-106.69168399999997
 10
190.80911799999998
 20
-106.76788399999997
 10
191.13068199999995
 20
-106.84408399999998
 10
191.45224599999995
 20
-106.92028399999998
 10
191.77380999999994
 20
-106.99648399999998
 10
192.09537399999994
 20
-107.07268399999998
 10
192.41693799999993
 20
-107.14888399999998
 10
192.73850199999993
 20
-107.225084
 10
193.0600659999999
 20
-107.301284
 10
193.3816299999999
 20
-107.377484
 10
193.70319399999988
 20
-107.453684
 10
194.02475799999988
 20
-107.529884
 10
194.34632199999987
 20
-107.60608400000001
 10
194.66788599999987
 20
-107.68228400000001
 10
194.98944999999983
 20
-107.75848400000001
 10
195.31101399999983
 20
-107.83468400000001
 10
195.63257799999982
 20
-107.91088400000001
 10
195.95414199999982
 20
-107.98708400000002
 10
196.27570599999981
 20
-108.06328400000002
 10
196.5972699999998
 20
-108.13948400000002
 10
196.91883399999978
 20
-108.21568400000002
 10
197.24039799999977
 20
-108.29188400000002
 10
197.56196199999977
 20
-108.36808400000004
 10
197.88352599999976
 20
-108.44428400000004
 10
198.20508999999976
 20
-108.52048400000004
 10
198.52665399999975
 20
-108.59668400000004
 10
198.84821799999975
 20
-108.67288400000004
 10
199.1697819999997
 20
-108.74908400000005
 10
199.4913459999997
 20
-108.82528400000005
 10
199.8129099999997
 20
-108.90148400000005
 10
200.1344739999997
 20
-108.97768400000005
 10
200.4560379999997
 20
-109.05388400000005
 10
200.7776019999997
 20
-109.13008400000007
 10
201.01509199999967
 20
-109.18672600000006
 10
201.25359799999964
 20
-109.24413000000007
 10
201.49261199999967
 20
-109.30280400000007
 10
201.73213399999966
 20
-109.36274800000007
 10
201.97165599999965
 20
-109.42421600000007
 10
202.21117799999965
 20
-109.48746200000008
 10
202.45044599999966
 20
-109.55274000000007
 10
202.68920599999967
 20
-109.62005000000008
 10
202.92720399999968
 20
-109.68990000000007
 10
203.16443999999967
 20
-109.76229000000008
 10
203.40040599999966
 20
-109.83747400000007
 10
203.63484799999966
 20
-109.91570600000007
 10
203.86776599999965
 20
-109.99724000000008
 10
204.09890599999966
 20
-110.08233000000007
 10
204.32775999999964
 20
-110.17123000000008
 10
204.55432799999966
 20
-110.26394000000008
 10
204.77835599999963
 20
-110.36096800000008
 10
204.99958999999964
 20
-110.46231400000008
 10
205.21802999999963
 20
-110.56823200000007
 10
205.43316799999963
 20
-110.67897600000006
 10
205.64474999999962
 20
-110.79480000000007
 10
205.8527759999996
 20
-110.91595800000006
 10
206.0569919999996
 20
-111.04245000000006
 10
206.2571439999996
 20
-111.17478400000006
 10
206.45272399999962
 20
-111.31296000000006
 10
206.64398599999961
 20
-111.45723200000006
 10
206.83042199999963
 20
-111.60785400000006
 10
207.01177799999965
 20
-111.76508000000007
 10
207.18779999999964
 20
-111.92916400000007
 10
207.35848799999965
 20
-112.10036000000007
 10
207.52333399999964
 20
-112.27866800000007
 10
207.68233799999965
 20
-112.46459600000007
 10
207.86877399999966
 20
-112.70284800000007
 10
208.04225599999964
 20
-112.94745000000007
 10
208.20303799999965
 20
-113.19814800000009
 10
208.35162799999966
 20
-113.45468800000008
 10
208.48827999999966
 20
-113.71681600000008
 10
208.61350199999967
 20
-113.98427800000007
 10
208.72754799999967
 20
-114.25682000000008
 10
208.8309259999997
 20
-114.53393400000007
 10
208.9238899999997
 20
-114.81562000000007
 10
209.00694799999968
 20
-115.10137000000007
 10
209.0803539999997
 20
-115.39093000000007
 10
209.14461599999967
 20
-115.68404600000007
 10
209.19998799999968
 20
-115.98046400000005
 10
209.24697799999967
 20
-116.27993000000005
 10
209.28583999999967
 20
-116.58193600000006
 10
209.3170819999997
 20
-116.88648200000006
 10
209.3409579999997
 20
-117.19306000000006
 10
209.3579759999997
 20
-117.50141600000005
 10
209.3683899999997
 20
-117.81129600000006
 10
209.37270799999973
 20
-118.12270000000007
 10
209.37118399999972
 20
-118.43486600000006
 10
209.3640719999997
 20
-118.74779400000007
 10
209.35213399999972
 20
-119.06123000000007
 10
209.3353699999997
 20
-119.37466600000006
 10
209.3145419999997
 20
-119.68810200000006
 10
209.2896499999997
 20
-120.00103000000006
 10
209.26120199999974
 20
-120.31319600000005
 10
209.2297059999997
 20
-120.62434600000006
 10
209.19541599999974
 20
-120.93422600000007
 10
209.1588399999997
 20
-121.24258200000007
 10
209.1202319999997
 20
-121.54890600000007
 10
209.0800999999997
 20
-121.85319800000006
 10
208.9442099999997
 20
-122.83719400000007
 10
208.8022239999997
 20
-123.82042800000006
 10
208.65414199999972
 20
-124.80264600000007
 10
208.49996399999975
 20
-125.78384800000008
 10
208.33968999999973
 20
-126.76403400000007
 10
208.17306599999975
 20
-127.74320400000008
 10
208.00034599999978
 20
-128.72135800000007
 10
207.8215299999998
 20
-129.69824200000008
 10
207.6366179999998
 20
-130.67411000000007
 10
207.4458639999998
 20
-131.64870800000006
 10
207.24901399999982
 20
-132.62203600000007
 10
207.04606799999982
 20
-133.59409400000007
 10
206.8370259999998
 20
-134.56488200000007
 10
206.6218879999998
 20
-135.53440000000006
 10
206.40065399999983
 20
-136.50239400000007
 10
206.17357799999982
 20
-137.46886400000005
 10
205.94040599999983
 20
-138.43406400000006
 10
205.70139199999983
 20
-139.39774000000006
 10
205.45628199999982
 20
-140.35989200000006
 10
205.2050759999998
 20
-141.32026600000003
 10
204.94802799999982
 20
-142.27911600000002
 10
204.68488399999984
 20
-143.23618800000003
 10
204.41589799999983
 20
-144.19173600000002
 10
204.14106999999984
 20
-145.145506
 10
203.86014599999984
 20
-146.09749800000003
 10
203.57337999999984
 20
-147.04771200000002
 10
203.2807719999998
 20
-147.99589400000002
 10
202.98206799999983
 20
-148.94229800000002
 10
202.6775219999998
 20
-149.88667
 10
202.36713399999982
 20
-150.82901
 10
202.05090399999983
 20
-151.76931800000003
 10
201.7288319999998
 20
-152.707594
 10
201.68412799999982
 20
-152.828498
 10
201.63485199999982
 20
-152.94660800000003
 10
201.58125799999982
 20
-153.06167000000002
 10
201.52334599999983
 20
-153.17393800000002
 10
201.46111599999983
 20
-153.283158
 10
201.39482199999983
 20
-153.38907600000002
 10
201.32471799999985
 20
-153.491692
 10
201.25080399999985
 20
-153.591006
 10
201.17307999999983
 20
-153.687018
 10
201.0917999999998
 20
-153.77947400000002
 10
201.00721799999982
 20
-153.86837400000002
 10
200.91933399999982
 20
-153.95346400000003
 10
200.82840199999984
 20
-154.03474400000005
 10
200.73442199999982
 20
-154.11221400000002
 10
200.63739399999986
 20
-154.185874
 10
200.53757199999984
 20
-154.25547000000003
 10
200.43520999999984
 20
-154.32100200000002
 10
200.33030799999983
 20
-154.38221600000003
 10
200.22286599999984
 20
-154.43911200000002
 10
200.11313799999982
 20
-154.49169000000003
 10
200.00137799999982
 20
-154.53969600000002
 10
199.88758599999983
 20
-154.58313000000004
 10
199.7720159999998
 20
-154.62199200000003
 10
199.65466799999982
 20
-154.65602800000005
 10
199.5355419999998
 20
-154.68523800000006
 10
199.41489199999978
 20
-154.70962200000005
 10
199.2929719999998
 20
-154.72918000000004
 10
199.16978199999977
 20
-154.74365800000007
 10
199.04532199999977
 20
-154.75280200000003
 10
198.91984599999978
 20
-154.75686600000003
 10
198.79360799999978
 20
-154.75534200000004
 10
198.66660799999977
 20
-154.74848400000002
 10
198.63714399999978
 20
-154.74619800000002
 10
198.6076799999998
 20
-154.74391200000002
 10
198.5782159999998
 20
-154.74162600000002
 10
198.5487519999998
 20
-154.73934
 10
198.5195419999998
 20
-154.737054
 10
198.4903319999998
 20
-154.734768
 10
198.4611219999998
 20
-154.732482
 10
198.43191199999978
 20
-154.730196
 10
198.40270199999978
 20
-154.72790999999998
 10
198.37349199999977
 20
-154.72562399999998
 10
198.3442819999998
 20
-154.72333799999998
 10
198.3150719999998
 20
-154.721052
 10
198.28586199999978
 20
-154.718766
 10
198.25665199999978
 20
-154.71647999999996
 10
198.22744199999977
 20
-154.71419399999996
 10
198.19823199999976
 20
-154.71190799999997
 10
198.16902199999976
 20
-154.70962199999997
 10
198.13981199999978
 20
-154.70733599999997
 10
198.11085599999976
 20
-154.70504999999994
 10
198.08189999999973
 20
-154.70276399999995
 10
198.05294399999974
 20
-154.70047799999995
 10
198.02398799999972
 20
-154.69819199999995
 10
197.99503199999972
 20
-154.69590599999995
 10
197.9660759999997
 20
-154.69361999999992
 10
197.9371199999997
 20
-154.69133399999993
 10
197.9084179999997
 20
-154.68904799999993
 10
197.8797159999997
 20
-154.68676199999993
 10
197.85101399999965
 20
-154.68447599999993
 10
197.82231199999964
 20
-154.6821899999999
 10
197.79360999999963
 20
-154.6799039999999
 10
197.76490799999962
 20
-154.6776179999999
 10
197.73645999999962
 20
-154.6753319999999
 10
197.67753199999964
 20
-154.6692359999999
 10
197.61885799999965
 20
-154.6611079999999
 10
197.56094599999966
 20
-154.65094799999991
 10
197.50354199999964
 20
-154.63875599999992
 10
197.44689999999966
 20
-154.6245319999999
 10
197.39076599999967
 20
-154.6082759999999
 10
197.33539399999967
 20
-154.5899879999999
 10
197.28078399999967
 20
-154.5699219999999
 10
197.22718999999967
 20
-154.5478239999999
 10
197.17435799999967
 20
-154.5239479999999
 10
197.12254199999967
 20
-154.4982939999999
 10
197.07174199999966
 20
-154.47060799999988
 10
197.02195799999967
 20
-154.4413979999999
 10
196.97344399999966
 20
-154.4104099999999
 10
196.92594599999964
 20
-154.3776439999999
 10
196.87971799999966
 20
-154.3430999999999
 10
196.83475999999965
 20
-154.3070319999999
 10
196.79107199999964
 20
-154.2694399999999
 10
196.74890799999963
 20
-154.2300699999999
 10
196.70826799999963
 20
-154.18917599999992
 10
196.66889799999964
 20
-154.1467579999999
 10
196.63105199999964
 20
-154.1030699999999
 10
196.5949839999996
 20
-154.0578579999999
 10
196.56043999999963
 20
-154.01112199999992
 10
196.52767399999962
 20
-153.96311599999993
 10
196.49668599999964
 20
-153.91383999999994
 10
196.46747599999964
 20
-153.86303999999993
 10
196.44004399999966
 20
-153.8109699999999
 10
196.41438999999966
 20
-153.7576299999999
 10
196.39076799999967
 20
-153.70327399999988
 10
196.36917799999964
 20
-153.64764799999986
 10
196.34961999999965
 20
-153.59075199999987
 10
196.31583799999964
 20
-153.49042199999985
 10
196.27900799999964
 20
-153.39110799999986
 10
196.23938399999966
 20
-153.29255599999985
 10
196.19696599999966
 20
-153.19501999999986
 10
196.15200799999965
 20
-153.09849999999986
 10
196.10425599999965
 20
-153.00299599999985
 10
196.05396399999967
 20
-152.90876199999988
 10
196.00113199999967
 20
-152.81579799999986
 10
195.94601399999965
 20
-152.72410399999987
 10
195.88835599999967
 20
-152.63393399999987
 10
195.82841199999967
 20
-152.54528799999986
 10
195.76618199999967
 20
-152.45816599999986
 10
195.70191999999966
 20
-152.37282199999987
 10
195.63537199999968
 20
-152.28900199999987
 10
195.56679199999968
 20
-152.20695999999987
 10
195.49617999999967
 20
-152.12694999999985
 10
195.4235359999997
 20
-152.04897199999985
 10
195.3488599999997
 20
-151.97302599999983
 10
195.27240599999968
 20
-151.89911199999983
 10
195.1941739999997
 20
-151.82722999999984
 10
195.11416399999968
 20
-151.75763399999983
 10
195.03262999999967
 20
-151.69032399999983
 10
194.94931799999966
 20
-151.62555399999982
 10
194.8644819999997
 20
-151.56306999999984
 10
194.77812199999968
 20
-151.50337999999982
 10
194.69023799999968
 20
-151.44622999999984
 10
194.60108399999967
 20
-151.39161999999982
 10
194.5106599999997
 20
-151.33980399999984
 10
194.41896599999967
 20
-151.29103599999982
 10
194.32600199999968
 20
-151.24506199999982
 10
194.2320219999997
 20
-151.20213599999983
 10
194.1367719999997
 20
-151.1622579999998
 10
194.01358199999967
 20
-151.11475999999982
 10
193.89166199999968
 20
-151.07107199999982
 10
193.77075799999966
 20
-151.03093999999982
 10
193.65086999999968
 20
-150.9943639999998
 10
193.53174399999966
 20
-150.9610899999998
 10
193.41337999999968
 20
-150.93086399999981
 10
193.29577799999967
 20
-150.90368599999982
 10
193.17868399999966
 20
-150.8795559999998
 10
193.06209799999968
 20
-150.85821999999982
 10
192.94576599999968
 20
-150.83942399999984
 10
192.82994199999968
 20
-150.82316799999984
 10
192.71411799999967
 20
-150.80919799999984
 10
192.59854799999968
 20
-150.79725999999985
 10
192.48297799999966
 20
-150.78735399999985
 10
192.36715399999966
 20
-150.77947999999986
 10
192.25132999999965
 20
-150.77338399999985
 10
192.13499799999965
 20
-150.76881199999985
 10
192.01841199999967
 20
-150.76576399999988
 10
191.90131799999966
 20
-150.76398599999987
 10
191.78371599999969
 20
-150.76347799999988
 10
191.66535199999967
 20
-150.76398599999987
 10
191.54622599999968
 20
-150.76525599999988
 10
191.42633799999967
 20
-150.7672879999999
 10
191.30543399999968
 20
-150.76982799999988
 10
191.18351399999966
 20
-150.77287599999988
 10
191.06032399999967
 20
-150.77617799999987
 10
190.93586399999967
 20
-150.77973399999988
 10
190.81013399999966
 20
-150.78328999999988
 10
190.68287999999967
 20
-150.78684599999988
 10
190.5541019999997
 20
-150.7901479999999
 10
190.42379999999966
 20
-150.7929419999999
 10
190.29171999999969
 20
-150.7952279999999
 10
189.91249799999966
 20
-150.8008159999999
 10
189.53327599999966
 20
-150.8064039999999
 10
189.15405399999963
 20
-150.81199199999992
 10
188.7748319999996
 20
-150.81757999999994
 10
188.3956099999996
 20
-150.82316799999995
 10
188.01638799999958
 20
-150.82875599999997
 10
187.63716599999958
 20
-150.834344
 10
187.25794399999955
 20
-150.83993199999998
 10
186.87872199999956
 20
-150.84552
 10
186.49949999999953
 20
-150.851108
 10
186.12027799999953
 20
-150.85669600000003
 10
185.7410559999995
 20
-150.86228400000005
 10
185.3618339999995
 20
-150.86787200000006
 10
184.98261199999948
 20
-150.87346000000005
 10
184.60338999999948
 20
-150.87904800000007
 10
184.22416799999945
 20
-150.88463600000009
 10
183.84494599999945
 20
-150.8902240000001
 10
183.46572399999943
 20
-150.89581200000012
 10
183.08650199999943
 20
-150.90140000000014
 10
182.7072799999994
 20
-150.90698800000013
 10
182.3280579999994
 20
-150.91257600000014
 10
181.94883599999937
 20
-150.91816400000016
 10
181.56961399999938
 20
-150.92375200000018
 10
181.19039199999935
 20
-150.9293400000002
 10
180.81116999999935
 20
-150.93492800000018
 10
180.43194799999932
 20
-150.9405160000002
 10
180.05272599999932
 20
-150.94610400000022
 10
179.6735039999993
 20
-150.95169200000024
 10
179.2942819999993
 20
-150.95753400000024
 10
178.91505999999927
 20
-150.96337600000024
 10
178.53583799999927
 20
-150.96921800000024
 10
178.15661599999925
 20
-150.97506000000027
 10
178.06517599999924
 20
-150.97683800000024
 10
177.97195799999926
 20
-150.97937800000025
 10
177.87696199999925
 20
-150.98217200000025
 10
177.78069599999924
 20
-150.98547400000024
 10
177.68315999999925
 20
-150.98877600000026
 10
177.58435399999925
 20
-150.99182400000024
 10
177.48478599999922
 20
-150.99436400000025
 10
177.38445599999923
 20
-150.99639600000023
 10
177.28336399999924
 20
-150.99766600000024
 10
177.18201799999923
 20
-150.99792000000025
 10
177.08041799999924
 20
-150.99690400000023
 10
176.97856399999924
 20
-150.99461800000023
 10
176.87696399999925
 20
-150.99055400000023
 10
176.77561799999924
 20
-150.98471200000023
 10
176.67477999999923
 20
-150.97683800000024
 10
176.57444999999925
 20
-150.96667800000026
 10
176.47488199999924
 20
-150.95397800000026
 10
176.37632999999923
 20
-150.93848400000024
 10
176.2787939999992
 20
-150.92019600000026
 10
176.18252799999922
 20
-150.89860600000026
 10
176.0877859999992
 20
-150.87371400000026
 10
175.99456799999922
 20
-150.84526600000027
 10
175.9031279999992
 20
-150.81300800000028
 10
175.81371999999922
 20
-150.77694000000025
 10
175.7263439999992
 20
-150.73655400000027
 10
175.64125399999918
 20
-150.69185000000024
 10
175.55870399999918
 20
-150.64257400000028
 10
175.47869399999917
 20
-150.58847200000028
 10
175.40147799999917
 20
-150.5292900000003
 10
175.32730999999916
 20
-150.46502800000027
 10
175.25644399999916
 20
-150.39517800000027
 10
175.18887999999916
 20
-150.31974000000028
 10
175.09642399999916
 20
-150.20112200000028
 10
175.01387399999916
 20
-150.0779320000003
 10
174.94097599999915
 20
-149.95017000000027
 10
174.87747599999915
 20
-149.81834400000025
 10
174.82261199999914
 20
-149.68270800000028
 10
174.77612999999914
 20
-149.54351600000027
 10
174.73777599999914
 20
-149.40102200000027
 10
174.70704199999915
 20
-149.25548000000026
 10
174.68341999999916
 20
-149.1071440000003
 10
174.66640199999918
 20
-148.9565220000003
 10
174.65573399999917
 20
-148.8036140000003
 10
174.65116199999915
 20
-148.6489280000003
 10
174.65192399999916
 20
-148.49271800000028
 10
174.65776599999916
 20
-148.3352380000003
 10
174.66843399999917
 20
-148.17674200000027
 10
174.68316599999918
 20
-148.01748400000028
 10
174.70170799999917
 20
-147.8577180000003
 10
174.72380599999917
 20
-147.6976980000003
 10
174.74895199999918
 20
-147.53793200000027
 10
174.7766379999992
 20
-147.3786740000003
 10
174.80635599999917
 20
-147.21992400000028
 10
174.83785199999917
 20
-147.0621900000003
 10
174.87061799999918
 20
-146.9057260000003
 10
174.9043999999992
 20
-146.7510400000003
 10
174.93868999999918
 20
-146.5981320000003
 10
174.97297999999918
 20
-146.4472560000003
 10
175.0070159999992
 20
-146.2989200000003
 10
175.0402899999992
 20
-146.1533780000003
 10
175.07229399999918
 20
-146.0106300000003
 10
175.1027739999992
 20
-145.8711840000003
 10
175.13122199999918
 20
-145.73529400000032
 10
175.15738399999915
 20
-145.60321400000032
 10
175.29733799999917
 20
-144.87550400000032
 10
175.43957799999916
 20
-144.14830200000029
 10
175.58435799999918
 20
-143.4216080000003
 10
175.73142399999915
 20
-142.6954220000003
 10
175.88102999999919
 20
-141.9697440000003
 10
176.0331759999992
 20
-141.24457400000028
 10
176.1876079999992
 20
-140.51991200000032
 10
176.34457999999918
 20
-139.79575800000032
 10
176.50383799999918
 20
-139.0721120000003
 10
176.66563599999915
 20
-138.3489740000003
 10
176.82971999999916
 20
-137.6263440000003
 10
176.99634399999914
 20
-136.9044760000003
 10
177.16525399999912
 20
-136.1831160000003
 10
177.33670399999912
 20
-135.4622640000003
 10
177.5104399999991
 20
-134.7421740000003
 10
177.6867159999991
 20
-134.0225920000003
 10
177.8652779999991
 20
-133.30351800000028
 10
178.0463799999991
 20
-132.5852060000003
 10
178.22976799999907
 20
-131.86740200000028
 10
178.41544199999908
 20
-131.1503600000003
 10
178.60365599999906
 20
-130.4338260000003
 10
178.79415599999908
 20
-129.7180540000003
 10
178.98719599999907
 20
-129.0030440000003
 10
179.18252199999907
 20
-128.2885420000003
 10
179.38038799999907
 20
-127.5748020000003
 10
179.58053999999908
 20
-126.8615700000003
 10
179.78297799999908
 20
-126.1491000000003
 10
179.9879559999991
 20
-125.43739200000029
 10
180.1952199999991
 20
-124.7264460000003
 10
180.4047699999991
 20
-124.0162620000003
 10
180.61685999999912
 20
-123.30658600000031
 10
180.83123599999914
 20
-122.5976720000003
 10
180.89194199999915
 20
-122.3987900000003
 10
180.95264799999916
 20
-122.19990800000029
 10
181.01360799999915
 20
-122.0012800000003
 10
181.07482199999913
 20
-121.80265200000031
 10
181.13628999999912
 20
-121.60402400000031
 10
181.1977579999991
 20
-121.40539600000032
 10
181.25947999999914
 20
-121.20702200000032
 10
181.32145599999913
 20
-121.00864800000032
 10
181.38343199999915
 20
-120.8102740000003
 10
181.44566199999915
 20
-120.6119000000003
 10
181.50814599999916
 20
-120.4135260000003
 10
181.57088399999913
 20
-120.21540600000031
 10
181.63362199999912
 20
-120.01728600000033
 10
181.69661399999913
 20
-119.81916600000034
 10
181.75985999999915
 20
-119.62104600000033
 10
181.82335999999916
 20
-119.42318000000034
 10
181.88685999999913
 20
-119.22531400000034
 10
181.95061399999915
 20
-119.02744800000033
 10
182.01462199999912
 20
-118.82958200000034
 10
182.07888399999914
 20
-118.63197000000034
 10
182.14314599999915
 20
-118.43435800000033
 10
182.20766199999915
 20
-118.23674600000032
 10
182.27243199999916
 20
-118.03913400000032
 10
182.33720199999914
 20
-117.84177600000032
 10
182.40222599999913
 20
-117.64441800000033
 10
182.46750399999914
 20
-117.44706000000033
 10
182.53303599999913
 20
-117.24970200000034
 10
182.59856799999915
 20
-117.05259800000033
 10
182.66435399999915
 20
-116.85549400000033
 10
182.73039399999914
 20
-116.65839000000032
 10
182.79643399999915
 20
-116.46128600000033
 10
182.86272799999915
 20
-116.26443600000033
 10
182.92571999999916
 20
-116.07622200000033
 10
182.98794999999916
 20
-115.88699200000033
 10
183.04967199999916
 20
-115.69649200000033
 10
183.11113999999915
 20
-115.50497600000033
 10
183.17209999999915
 20
-115.31269800000032
 10
183.23280599999916
 20
-115.11965800000033
 10
183.29351199999917
 20
-114.92585600000034
 10
183.35421799999918
 20
-114.73154600000034
 10
183.4149239999992
 20
-114.53672800000034
 10
183.4756299999992
 20
-114.34165600000034
 10
183.5365899999992
 20
-114.14607600000035
 10
183.5978039999992
 20
-113.95049600000036
 10
183.6595259999992
 20
-113.75466200000035
 10
183.7217559999992
 20
-113.55882800000035
 10
183.7844939999992
 20
-113.36324800000035
 10
183.84773999999922
 20
-113.16792200000035
 10
183.9117479999992
 20
-112.97285000000036
 10
183.9767719999992
 20
-112.77828600000035
 10
184.0425579999992
 20
-112.58423000000035
 10
184.1093599999992
 20
-112.39068200000035
 10
184.17743199999921
 20
-112.19789600000034
 10
184.24677399999922
 20
-112.00587200000035
 10
184.31738599999923
 20
-111.81486400000036
 10
184.38926799999922
 20
-111.62487200000035
 10
184.46267399999923
 20
-111.43589600000034
 10
184.53760399999922
 20
-111.24819000000035
 10
184.61431199999922
 20
-111.06175400000036
 10
184.69279799999921
 20
-110.87684200000035
 10
184.77306199999921
 20
-110.69345400000036
 10
184.8553579999992
 20
-110.51159000000035
 10
184.9396859999992
 20
-110.33150400000035
 10
185.0260459999992
 20
-110.15319600000036
  0
LWPOLYLINE
  5
30
330
17
100
AcDbEntity
  8
0
100
AcDbPolyline
 90
897
 70
0
 10
250.05588799999921
 20
-74.21143400000037
 10
248.8534519999992
 20
-74.21041800000036
 10
247.6510159999992
 20
-74.20940200000035
 10
246.4485799999992
 20
-74.20838600000035
 10
245.2461439999992
 20
-74.20737000000034
 10
244.04370799999919
 20
-74.20635400000033
 10
242.84127199999915
 20
-74.20533800000032
 10
241.63883599999915
 20
-74.20432200000033
 10
240.43639999999914
 20
-74.20330600000032
 10
239.23396399999913
 20
-74.20229000000032
 10
238.03152799999913
 20
-74.20127400000031
 10
236.82909199999912
 20
-74.2002580000003
 10
235.62665599999912
 20
-74.1992420000003
 10
234.42421999999908
 20
-74.1982260000003
 10
233.22178399999908
 20
-74.1972100000003
 10
232.01934799999907
 20
-74.19619400000029
 10
230.81691199999906
 20
-74.19517800000028
 10
229.61447599999906
 20
-74.19416200000028
 10
228.41203999999905
 20
-74.19314600000027
 10
227.20960399999905
 20
-74.19213000000026
 10
226.00716799999904
 20
-74.19111400000027
 10
224.804731999999
 20
-74.19009800000026
 10
223.602295999999
 20
-74.18908200000025
 10
222.399859999999
 20
-74.18806600000025
 10
221.197423999999
 20
-74.18705000000024
 10
219.99498799999898
 20
-74.18603400000023
 10
218.79255199999898
 20
-74.18501800000023
 10
217.59011599999897
 20
-74.18400200000023
 10
216.38767999999897
 20
-74.18298600000023
 10
215.18524399999893
 20
-74.18197000000022
 10
213.98280799999893
 20
-74.18095400000021
 10
212.78037199999892
 20
-74.1799380000002
 10
211.5779359999989
 20
-74.1789220000002
 10
211.6561679999989
 20
-74.2767120000002
 10
211.72931999999892
 20
-74.3767880000002
 10
211.79713799999894
 20
-74.4786420000002
 10
211.8598759999989
 20
-74.58252800000021
 10
211.91727999999893
 20
-74.68793800000022
 10
211.96960399999892
 20
-74.79487200000021
 10
212.01659399999892
 20
-74.90333000000021
 10
212.0585039999989
 20
-75.0128040000002
 10
212.0950799999989
 20
-75.1235480000002
 10
212.12657599999892
 20
-75.2350540000002
 10
212.1527379999989
 20
-75.3473220000002
 10
212.1738199999989
 20
-75.46035200000021
 10
212.1895679999989
 20
-75.5738900000002
 10
212.2002359999989
 20
-75.68768200000021
 10
212.2055699999989
 20
-75.8014740000002
 10
212.20582399999887
 20
-75.9155200000002
 10
212.20074399999888
 20
-76.0293120000002
 10
212.19032999999888
 20
-76.1428500000002
 10
212.17483599999886
 20
-76.25588000000019
 10
212.15400799999887
 20
-76.36840200000019
 10
212.12809999999888
 20
-76.48016200000019
 10
212.09685799999886
 20
-76.59116000000019
 10
212.06028199999886
 20
-76.7008880000002
 10
212.01862599999887
 20
-76.8096000000002
 10
211.97163599999888
 20
-76.9170420000002
 10
211.91931199999888
 20
-77.0229600000002
 10
211.86190799999886
 20
-77.1271000000002
 10
211.7991699999989
 20
-77.2294620000002
 10
211.73135199999888
 20
-77.33004600000021
 10
211.65819999999886
 20
-77.42834400000021
 10
211.5797139999989
 20
-77.52461000000021
 10
211.4961479999989
 20
-77.61833600000021
 10
212.4519499999989
 20
-77.62341600000022
 10
213.4077519999989
 20
-77.62849600000021
 10
214.3635539999989
 20
-77.6335760000002
 10
215.31935599999892
 20
-77.6386560000002
 10
216.27515799999892
 20
-77.64373600000019
 10
217.23095999999893
 20
-77.6488160000002
 10
218.18676199999894
 20
-77.65389600000019
 10
219.14256399999894
 20
-77.65897600000018
 10
220.09836599999898
 20
-77.66405600000017
 10
221.05416799999898
 20
-77.66913600000018
 10
222.009969999999
 20
-77.67421600000017
 10
222.965771999999
 20
-77.67929600000016
 10
223.921573999999
 20
-77.68437600000016
 10
224.877375999999
 20
-77.68945600000015
 10
225.833177999999
 20
-77.69453600000016
 10
226.78897999999901
 20
-77.69961600000015
 10
227.74478199999902
 20
-77.70469600000014
 10
228.70058399999903
 20
-77.70977600000013
 10
229.65638599999906
 20
-77.71485600000013
 10
230.61218799999907
 20
-77.71993600000013
 10
231.56798999999907
 20
-77.72501600000012
 10
232.52379199999908
 20
-77.73009600000012
 10
233.47959399999908
 20
-77.73517600000011
 10
234.4353959999991
 20
-77.7402560000001
 10
235.3911979999991
 20
-77.74533600000011
 10
236.3469999999991
 20
-77.7504160000001
 10
237.3028019999991
 20
-77.7554960000001
 10
238.25860399999914
 20
-77.76057600000009
 10
239.21440599999914
 20
-77.76565600000008
 10
240.17020799999915
 20
-77.77073600000008
 10
241.12600999999916
 20
-77.77581600000008
 10
242.08181199999916
 20
-77.78089600000007
 10
242.12194399999916
 20
-77.78242000000006
 10
242.16131399999915
 20
-77.78623000000006
 10
242.19992199999916
 20
-77.79232600000006
 10
242.23751399999918
 20
-77.80070800000007
 10
242.27408999999918
 20
-77.81112200000007
 10
242.30964999999918
 20
-77.82356800000005
 10
242.34419399999916
 20
-77.83804600000006
 10
242.37772199999915
 20
-77.85430200000006
 10
242.40997999999914
 20
-77.87259000000007
 10
242.44096799999912
 20
-77.89240200000006
 10
242.47068599999912
 20
-77.91399200000005
 10
242.49913399999912
 20
-77.93710600000006
 10
242.5260579999991
 20
-77.96174400000005
 10
242.55145799999912
 20
-77.98790600000005
 10
242.57533399999912
 20
-78.01533800000006
 10
242.59768599999913
 20
-78.04404000000005
 10
242.61851399999912
 20
-78.07401200000005
 10
242.63756399999912
 20
-78.10500000000006
 10
242.65483599999914
 20
-78.13700400000005
 10
242.67032999999913
 20
-78.17002400000005
 10
242.6840459999991
 20
-78.20406000000006
 10
242.69572999999914
 20
-78.23885800000005
 10
242.70538199999913
 20
-78.27441800000005
 10
242.71300199999914
 20
-78.31074000000004
 10
242.71858999999915
 20
-78.34757000000005
 10
242.72189199999914
 20
-78.38490800000004
 10
242.72316199999915
 20
-78.42275400000004
 10
242.72214599999916
 20
-78.46085400000003
 10
242.71884399999914
 20
-78.49920800000004
 10
242.71300199999914
 20
-78.53781600000003
 10
242.70487399999914
 20
-78.57642400000003
 10
242.69420599999913
 20
-78.61503200000003
 10
242.67439399999913
 20
-78.67954800000003
 10
242.65458199999912
 20
-78.74406400000004
 10
242.63476999999912
 20
-78.80858000000003
 10
242.61495799999915
 20
-78.87309600000005
 10
242.59514599999915
 20
-78.93761200000004
 10
242.57533399999915
 20
-79.00212800000006
 10
242.55552199999917
 20
-79.06664400000005
 10
242.53570999999917
 20
-79.13116000000007
 10
242.51589799999917
 20
-79.19567600000006
 10
242.4960859999992
 20
-79.26019200000007
 10
242.4762739999992
 20
-79.32470800000007
 10
242.4564619999992
 20
-79.38922400000008
 10
242.4366499999992
 20
-79.45374000000008
 10
242.41683799999922
 20
-79.5182560000001
 10
242.39702599999922
 20
-79.5827720000001
 10
242.3772139999992
 20
-79.6472880000001
 10
242.35740199999924
 20
-79.71180400000011
 10
242.33758999999924
 20
-79.77632000000011
 10
242.31777799999924
 20
-79.84083600000012
 10
242.29796599999924
 20
-79.90535200000012
 10
242.27815399999926
 20
-79.96986800000013
 10
242.25834199999926
 20
-80.03438400000013
 10
242.23852999999926
 20
-80.09890000000014
 10
242.21871799999928
 20
-80.16341600000014
 10
242.19890599999928
 20
-80.22793200000015
 10
242.17909399999928
 20
-80.29244800000015
 10
242.15928199999928
 20
-80.35696400000016
 10
242.1394699999993
 20
-80.42148000000016
 10
242.1196579999993
 20
-80.48599600000017
 10
242.0998459999993
 20
-80.55051200000017
 10
242.08003399999933
 20
-80.61502800000018
 10
242.06022199999933
 20
-80.67954400000018
 10
242.05183999999932
 20
-80.70469000000018
 10
242.04269599999932
 20
-80.72932800000017
 10
242.03253599999934
 20
-80.75345800000018
 10
242.02135999999933
 20
-80.77682600000017
 10
242.00942199999935
 20
-80.79968600000016
 10
241.99672199999935
 20
-80.82203800000018
 10
241.98300599999936
 20
-80.84362800000017
 10
241.96852799999937
 20
-80.86471000000017
 10
241.95328799999936
 20
-80.88503000000017
 10
241.93728599999938
 20
-80.90484200000017
 10
241.92052199999935
 20
-80.92389200000017
 10
241.90299599999938
 20
-80.94218000000016
 10
241.88496199999938
 20
-80.95996000000017
 10
241.86616599999937
 20
-80.97697800000016
 10
241.84686199999936
 20
-80.99323400000017
 10
241.82679599999938
 20
-81.00872800000016
 10
241.8062219999994
 20
-81.02320600000017
 10
241.7851399999994
 20
-81.03692200000016
 10
241.76354999999938
 20
-81.04987600000015
 10
241.74145199999938
 20
-81.06206800000015
 10
241.71884599999936
 20
-81.07324400000016
 10
241.69573199999937
 20
-81.08365800000016
 10
241.67210999999938
 20
-81.09305600000015
 10
241.64797999999936
 20
-81.10169200000014
 10
241.62359599999937
 20
-81.10931200000014
 10
241.59895799999939
 20
-81.11591600000014
 10
241.57381199999935
 20
-81.12150400000014
 10
241.54841199999936
 20
-81.12607600000013
 10
241.52275799999936
 20
-81.12963200000013
 10
241.49684999999937
 20
-81.13217200000014
 10
241.47068799999937
 20
-81.13369600000013
 10
241.44427199999936
 20
-81.13420400000012
 10
240.36019999999937
 20
-81.13395000000014
 10
239.27612799999935
 20
-81.13369600000014
 10
238.19205599999935
 20
-81.13344200000014
 10
237.10798399999933
 20
-81.13318800000015
 10
236.0239119999993
 20
-81.13293400000016
 10
234.93983999999932
 20
-81.13268000000016
 10
233.8557679999993
 20
-81.13242600000017
 10
232.7716959999993
 20
-81.13217200000018
 10
231.6876239999993
 20
-81.13191800000018
 10
230.6035519999993
 20
-81.13166400000019
 10
229.51947999999928
 20
-81.13141000000019
 10
228.43540799999928
 20
-81.1311560000002
 10
227.35133599999926
 20
-81.1309020000002
 10
226.26726399999927
 20
-81.1306480000002
 10
225.18319199999925
 20
-81.13039400000022
 10
224.09911999999923
 20
-81.13014000000022
 10
223.01504799999924
 20
-81.12988600000023
 10
221.93097599999922
 20
-81.12963200000024
 10
220.84690399999923
 20
-81.12937800000024
 10
219.7628319999992
 20
-81.12912400000025
 10
218.67875999999922
 20
-81.12887000000025
 10
217.5946879999992
 20
-81.12861600000026
 10
216.5106159999992
 20
-81.12836200000027
 10
215.42654399999918
 20
-81.12810800000027
 10
214.3424719999992
 20
-81.12785400000028
 10
213.25839999999917
 20
-81.12760000000029
 10
212.17432799999915
 20
-81.12734600000029
 10
211.09025599999916
 20
-81.1270920000003
 10
210.00618399999914
 20
-81.1268380000003
 10
208.92211199999915
 20
-81.1265840000003
 10
207.83803999999913
 20
-81.12633000000031
 10
206.75396799999913
 20
-81.12607600000032
 10
206.73440999999912
 20
-81.12582200000033
 10
206.7151059999991
 20
-81.12531400000033
 10
206.6958019999991
 20
-81.12429800000032
 10
206.6764979999991
 20
-81.12277400000032
 10
206.6571939999991
 20
-81.12099600000032
 10
206.6378899999991
 20
-81.11871000000032
 10
206.6188399999991
 20
-81.11617000000032
 10
206.59978999999908
 20
-81.11312200000032
 10
206.58073999999905
 20
-81.10982000000033
 10
206.56194399999907
 20
-81.10601000000034
 10
206.5431479999991
 20
-81.10169200000033
 10
206.5246059999991
 20
-81.09712000000034
 10
206.5060639999991
 20
-81.09204000000034
 10
206.4875219999991
 20
-81.08670600000035
 10
206.4692339999991
 20
-81.08086400000033
 10
206.4509459999991
 20
-81.07476800000033
 10
206.4329119999991
 20
-81.06816400000034
 10
206.41487799999908
 20
-81.06130600000033
 10
206.3970979999991
 20
-81.05394000000034
 10
206.3795719999991
 20
-81.04632000000035
 10
206.36204599999908
 20
-81.03844600000035
 10
206.3447739999991
 20
-81.03006400000034
 10
206.3275019999991
 20
-81.02142800000034
 10
206.3104839999991
 20
-81.01228400000034
 10
206.2937199999991
 20
-81.00288600000034
 10
206.2772099999991
 20
-80.99298000000034
 10
206.26069999999908
 20
-80.98282000000034
 10
206.24444399999908
 20
-80.97240600000035
 10
206.2284419999991
 20
-80.96148400000034
 10
206.2126939999991
 20
-80.95030800000035
 10
206.19719999999907
 20
-80.93887800000034
 10
206.18170599999905
 20
-80.92694000000034
 10
206.17256199999906
 20
-80.91982800000034
 10
206.1634179999991
 20
-80.91271600000033
 10
206.1542739999991
 20
-80.90560400000032
 10
206.1451299999991
 20
-80.89849200000032
 10
206.13598599999912
 20
-80.89138000000031
 10
206.12684199999913
 20
-80.8842680000003
 10
206.11769799999917
 20
-80.8771560000003
 10
206.10855399999917
 20
-80.87004400000029
 10
206.09940999999918
 20
-80.86293200000028
 10
206.0902659999992
 20
-80.85582000000029
 10
206.08112199999923
 20
-80.84870800000029
 10
206.07197799999923
 20
-80.84159600000028
 10
206.06283399999924
 20
-80.83448400000027
 10
206.05368999999925
 20
-80.82737200000027
 10
206.04454599999926
 20
-80.82026000000026
 10
206.0354019999993
 20
-80.81314800000025
 10
206.0262579999993
 20
-80.80603600000025
 10
206.0171139999993
 20
-80.79892400000024
 10
206.00796999999932
 20
-80.79181200000023
 10
205.99882599999933
 20
-80.78470000000023
 10
205.98968199999936
 20
-80.77758800000024
 10
205.98053799999937
 20
-80.77047600000023
 10
205.97139399999938
 20
-80.76336400000022
 10
205.9622499999994
 20
-80.75625200000022
 10
205.95310599999942
 20
-80.74914000000021
 10
205.94396199999943
 20
-80.7420280000002
 10
205.93481799999944
 20
-80.7349160000002
 10
205.92567399999945
 20
-80.72780400000019
 10
205.91652999999945
 20
-80.72069200000018
 10
205.9073859999995
 20
-80.71358000000018
 10
205.8982419999995
 20
-80.70646800000019
 10
205.8890979999995
 20
-80.69935600000018
 10
205.75295399999953
 20
-80.69859400000018
 10
205.61680999999953
 20
-80.69783200000018
 10
205.48066599999956
 20
-80.69707000000018
 10
205.34452199999956
 20
-80.69630800000019
 10
205.20837799999958
 20
-80.69554600000019
 10
205.07223399999958
 20
-80.6947840000002
 10
204.9360899999996
 20
-80.6940220000002
 10
204.79994599999964
 20
-80.69326000000021
 10
204.66380199999963
 20
-80.6924980000002
 10
204.52765799999966
 20
-80.6917360000002
 10
204.39151399999966
 20
-80.69097400000021
 10
204.2553699999997
 20
-80.69021200000022
 10
204.11922599999968
 20
-80.68945000000022
 10
203.9830819999997
 20
-80.68868800000023
 10
203.8469379999997
 20
-80.68792600000023
 10
203.71079399999974
 20
-80.68716400000024
 10
203.57464999999974
 20
-80.68640200000023
 10
203.43850599999976
 20
-80.68564000000023
 10
203.3023619999998
 20
-80.68487800000024
 10
203.1662179999998
 20
-80.68411600000024
 10
203.03007399999981
 20
-80.68335400000025
 10
202.8939299999998
 20
-80.68259200000026
 10
202.75778599999984
 20
-80.68183000000026
 10
202.62164199999984
 20
-80.68106800000027
 10
202.48549799999986
 20
-80.68030600000026
 10
202.34935399999986
 20
-80.67954400000026
 10
202.2132099999999
 20
-80.67878200000027
 10
202.07706599999992
 20
-80.67802000000027
 10
201.94092199999992
 20
-80.67725800000028
 10
201.80477799999994
 20
-80.67649600000028
 10
201.66863399999994
 20
-80.67573400000029
 10
201.53248999999997
 20
-80.6749720000003
 10
201.48016599999997
 20
-80.67370200000029
 10
201.42834999999997
 20
-80.67065400000028
 10
201.37678799999998
 20
-80.66582800000029
 10
201.32573399999998
 20
-80.65922400000028
 10
201.27493399999994
 20
-80.65084200000028
 10
201.22464199999996
 20
-80.64068200000028
 10
201.17485799999994
 20
-80.62874400000027
 10
201.12583599999996
 20
-80.61528200000028
 10
201.07732199999995
 20
-80.60004200000027
 10
201.02956999999995
 20
-80.58327800000028
 10
200.98232599999994
 20
-80.56473600000028
 10
200.93584399999995
 20
-80.54467000000028
 10
200.89012399999996
 20
-80.52308000000029
 10
200.84516599999995
 20
-80.49996600000028
 10
200.80122399999996
 20
-80.47532800000029
 10
200.75804399999996
 20
-80.44916600000029
 10
200.71587999999994
 20
-80.42148000000029
 10
200.67473199999995
 20
-80.3925240000003
 10
200.63434599999994
 20
-80.3620440000003
 10
200.59522999999996
 20
-80.3302940000003
 10
200.55712999999994
 20
-80.2970200000003
 10
200.52004599999995
 20
-80.26247600000029
 10
200.48423199999996
 20
-80.22666200000029
 10
200.449434
 20
-80.18957800000028
 10
200.415906
 20
-80.15122400000028
 10
200.38364800000002
 20
-80.11160000000028
 10
200.35266000000001
 20
-80.07070600000029
 10
200.32319600000002
 20
-80.02854200000029
 10
200.29500200000004
 20
-79.98536200000028
 10
200.26833200000002
 20
-79.94091200000028
 10
200.243186
 20
-79.89544600000029
 10
200.21931
 20
-79.84896400000028
 10
200.135998
 20
-79.69631000000028
 10
200.05268600000002
 20
-79.54365600000028
 10
199.96937400000002
 20
-79.39100200000028
 10
199.88606200000004
 20
-79.23834800000029
 10
199.80275000000003
 20
-79.08569400000029
 10
199.71943800000003
 20
-78.93304000000029
 10
199.63612600000005
 20
-78.78038600000029
 10
199.55281400000004
 20
-78.6277320000003
 10
199.46950200000006
 20
-78.4750780000003
 10
199.38619000000006
 20
-78.32242400000028
 10
199.30287800000008
 20
-78.16977000000028
 10
199.21956600000007
 20
-78.01711600000029
 10
199.1362540000001
 20
-77.86446200000029
 10
199.0529420000001
 20
-77.71180800000029
 10
198.9696300000001
 20
-77.55915400000029
 10
198.8863180000001
 20
-77.40650000000029
 10
198.8030060000001
 20
-77.2538460000003
 10
198.71969400000012
 20
-77.1011920000003
 10
198.6363820000001
 20
-76.94853800000028
 10
198.55307000000013
 20
-76.79588400000029
 10
198.46975800000013
 20
-76.64323000000029
 10
198.38644600000015
 20
-76.49057600000029
 10
198.30313400000014
 20
-76.33792200000029
 10
198.21982200000016
 20
-76.18526800000029
 10
198.13651000000016
 20
-76.0326140000003
 10
198.05319800000018
 20
-75.8799600000003
 10
197.96988600000017
 20
-75.7273060000003
 10
197.88657400000017
 20
-75.5746520000003
 10
197.8032620000002
 20
-75.42199800000029
 10
197.71995000000018
 20
-75.26934400000029
 10
197.6366380000002
 20
-75.11669000000029
 10
197.5533260000002
 20
-74.96403600000029
 10
197.5307200000002
 20
-74.9223800000003
 10
197.50684400000017
 20
-74.88174000000029
 10
197.48169800000016
 20
-74.84211600000029
 10
197.45528200000015
 20
-74.80350800000029
 10
197.42785000000018
 20
-74.76591600000029
 10
197.39914800000017
 20
-74.72959400000029
 10
197.36943000000016
 20
-74.69428800000028
 10
197.33844200000019
 20
-74.65999800000029
 10
197.30643800000018
 20
-74.62697800000029
 10
197.2734180000002
 20
-74.5949740000003
 10
197.23938200000018
 20
-74.56424000000031
 10
197.20433000000017
 20
-74.5345220000003
 10
197.16851600000018
 20
-74.5060740000003
 10
197.13168600000017
 20
-74.47889600000029
 10
197.09409400000018
 20
-74.45298800000029
 10
197.05574000000018
 20
-74.4283500000003
 10
197.0163700000002
 20
-74.4049820000003
 10
196.9762380000002
 20
-74.3828840000003
 10
196.9353440000002
 20
-74.36205600000031
 10
196.8939420000002
 20
-74.3427520000003
 10
196.8517780000002
 20
-74.32471800000029
 10
196.80910600000018
 20
-74.30820800000029
 10
196.76567200000017
 20
-74.2929680000003
 10
196.72173000000018
 20
-74.2792520000003
 10
196.6772800000002
 20
-74.2670600000003
 10
196.6323220000002
 20
-74.2561380000003
 10
196.58685600000018
 20
-74.2467400000003
 10
196.54088200000018
 20
-74.2388660000003
 10
196.49465400000017
 20
-74.2325160000003
 10
196.4479180000002
 20
-74.22794400000032
 10
196.4009280000002
 20
-74.22489600000031
 10
196.3536840000002
 20
-74.22337200000032
 10
195.74967200000017
 20
-74.22286400000031
 10
195.14566000000016
 20
-74.22235600000032
 10
194.54164800000015
 20
-74.22184800000032
 10
193.93763600000014
 20
-74.22134000000031
 10
193.33362400000013
 20
-74.22083200000031
 10
192.72961200000012
 20
-74.2203240000003
 10
192.1256000000001
 20
-74.2198160000003
 10
191.5215880000001
 20
-74.21930800000031
 10
190.91757600000008
 20
-74.2188000000003
 10
190.31356400000007
 20
-74.2182920000003
 10
189.70955200000006
 20
-74.2177840000003
 10
189.10554000000005
 20
-74.2172760000003
 10
188.50152800000004
 20
-74.21676800000029
 10
187.89751600000002
 20
-74.21626000000029
 10
187.293504
 20
-74.2157520000003
 10
186.689492
 20
-74.21524400000028
 10
186.08548
 20
-74.21473600000029
 10
185.481468
 20
-74.21422800000028
 10
184.877456
 20
-74.21372000000028
 10
184.27344399999998
 20
-74.21321200000027
 10
183.66943199999997
 20
-74.21270400000027
 10
183.06541999999996
 20
-74.21219600000028
 10
182.46140799999995
 20
-74.21168800000027
 10
181.85739599999994
 20
-74.21118000000027
 10
181.25338399999993
 20
-74.21067200000026
 10
180.64937199999991
 20
-74.21016400000026
 10
180.0453599999999
 20
-74.20965600000025
 10
179.4413479999999
 20
-74.20914800000025
 10
178.83733599999988
 20
-74.20864000000026
 10
178.23332399999987
 20
-74.20813200000025
 10
177.62931199999986
 20
-74.20762400000025
 10
177.02529999999985
 20
-74.20711600000024
 10
177.00320199999985
 20
-74.20737000000024
 10
176.98110399999985
 20
-74.20838600000025
 10
176.95925999999983
 20
-74.21041800000025
 10
176.93766999999983
 20
-74.21346600000024
 10
176.91633399999984
 20
-74.21727600000024
 10
176.89525199999986
 20
-74.22184800000024
 10
176.87467799999985
 20
-74.22743600000022
 10
176.85435799999985
 20
-74.23378600000022
 10
176.83429199999986
 20
-74.24089800000023
 10
176.81473399999985
 20
-74.24877200000023
 10
176.79542999999984
 20
-74.25766200000024
 10
176.77663399999986
 20
-74.26731400000024
 10
176.75834599999985
 20
-74.27747400000024
 10
176.74031199999985
 20
-74.28839600000025
 10
176.72278599999987
 20
-74.30008000000024
 10
176.70576799999986
 20
-74.31252600000023
 10
176.68925799999985
 20
-74.32573400000024
 10
176.67325599999984
 20
-74.33945000000024
 10
176.65801599999986
 20
-74.35392800000024
 10
176.64328399999985
 20
-74.36891400000025
 10
176.62905999999987
 20
-74.38466200000025
 10
176.61559799999986
 20
-74.40091800000026
 10
176.60264399999986
 20
-74.41768200000024
 10
176.59045199999986
 20
-74.43520800000026
 10
176.57902199999987
 20
-74.45324200000026
 10
176.56835399999986
 20
-74.47178400000026
 10
176.55844799999986
 20
-74.49083400000025
 10
176.54930399999986
 20
-74.51039200000025
 10
176.54092199999985
 20
-74.53045800000025
 10
176.53330199999988
 20
-74.55103200000026
 10
176.52644399999986
 20
-74.57186000000026
 10
176.52034799999984
 20
-74.59319600000026
 10
176.48351799999986
 20
-74.73848400000026
 10
176.44338599999986
 20
-74.89875800000024
 10
176.39944399999985
 20
-75.07325600000026
 10
176.35118399999985
 20
-75.26147000000024
 10
176.29784399999983
 20
-75.46238400000024
 10
176.23866199999983
 20
-75.67574400000024
 10
176.17287599999983
 20
-75.90053400000023
 10
176.10023199999986
 20
-76.13599200000024
 10
176.01971399999985
 20
-76.38161000000024
 10
175.93081399999986
 20
-76.63662600000025
 10
175.83302399999985
 20
-76.90027800000024
 10
175.72558199999986
 20
-77.17180400000025
 10
175.60772599999984
 20
-77.45069600000025
 10
175.47894799999986
 20
-77.73619200000026
 10
175.33873999999983
 20
-78.02753000000025
 10
175.18608599999985
 20
-78.32394800000026
 10
175.02073199999987
 20
-78.62493800000026
 10
174.84166199999984
 20
-78.92948400000026
 10
174.64836799999986
 20
-79.23707800000025
 10
174.44034199999987
 20
-79.54695800000026
 10
174.21682199999987
 20
-79.85861600000025
 10
173.97729999999987
 20
-80.17103600000027
 10
173.72101399999985
 20
-80.48371000000026
 10
173.44720199999986
 20
-80.79587600000026
 10
173.15535599999987
 20
-81.10677200000026
 10
172.8447139999999
 20
-81.41589000000025
 10
172.5147679999999
 20
-81.72246800000025
 10
172.16475599999987
 20
-82.02574400000026
 10
171.7941699999999
 20
-82.32495600000026
 10
171.4022479999999
 20
-82.61934200000026
 10
170.9884819999999
 20
-82.90839400000024
 10
170.55210999999989
 20
-83.19109600000024
 10
171.0197239999999
 20
-83.26983600000025
 10
171.4832739999999
 20
-83.36635600000025
 10
171.9427599999999
 20
-83.48040200000025
 10
172.39792799999992
 20
-83.61172000000025
 10
172.84826999999993
 20
-83.75954800000025
 10
173.29378599999993
 20
-83.92363200000025
 10
173.73422199999993
 20
-84.10346400000026
 10
174.16957799999994
 20
-84.29853600000025
 10
174.59934599999994
 20
-84.50859400000024
 10
175.02327199999993
 20
-84.73313000000026
 10
175.44135599999993
 20
-84.97163600000026
 10
175.8533439999999
 20
-85.22360400000026
 10
176.25872799999993
 20
-85.48852600000026
 10
176.65750799999992
 20
-85.76614800000027
 10
177.04942999999994
 20
-86.05596200000028
 10
177.43423999999993
 20
-86.35746000000027
 10
177.81168399999993
 20
-86.67013400000027
 10
178.18176199999994
 20
-86.99373000000028
 10
178.54396599999993
 20
-87.32774000000028
 10
178.89804199999995
 20
-87.67165600000027
 10
179.24398999999994
 20
-88.02522400000026
 10
179.58155599999992
 20
-88.38768200000028
 10
179.91023199999992
 20
-88.75877600000028
 10
180.23001799999992
 20
-89.13799800000028
 10
180.54091399999993
 20
-89.52509400000028
 10
180.84241199999994
 20
-89.91930200000029
 10
181.13425799999993
 20
-90.32036800000029
 10
181.41619799999992
 20
-90.72778400000028
 10
181.68823199999994
 20
-91.14129600000028
 10
181.94985199999994
 20
-91.56014200000028
 10
182.20105799999993
 20
-91.98406800000028
 10
182.44159599999995
 20
-92.41256600000028
 10
182.54649799999996
 20
-92.59570000000028
 10
182.66003599999996
 20
-92.77604000000028
 10
182.78170199999997
 20
-92.95358600000027
 10
182.91124199999996
 20
-93.12833800000027
 10
183.04840199999995
 20
-93.30004200000027
 10
183.19267399999995
 20
-93.46869800000027
 10
183.34380399999995
 20
-93.63405200000027
 10
183.50153799999995
 20
-93.79610400000027
 10
183.66536799999994
 20
-93.95460000000027
 10
183.83503999999994
 20
-94.10954000000028
 10
184.01029999999994
 20
-94.26092400000027
 10
184.19063999999997
 20
-94.40849800000028
 10
184.37580599999998
 20
-94.55226200000027
 10
184.56554399999996
 20
-94.69196200000027
 10
184.75934599999997
 20
-94.82759800000028
 10
184.956958
 20
-94.95891600000027
 10
185.15812599999998
 20
-95.08591600000027
 10
185.36234199999998
 20
-95.20834400000028
 10
185.56935199999998
 20
-95.32620000000028
 10
185.77890200000002
 20
-95.43948400000029
 10
185.990484
 20
-95.54794200000029
 10
186.203844
 20
-95.6515740000003
 10
186.418474
 20
-95.7501260000003
 10
186.634374
 20
-95.84359800000028
 10
186.851036
 20
-95.93173600000029
 10
187.06795200000002
 20
-96.01454000000028
 10
187.28512200000003
 20
-96.09201000000029
 10
187.50203800000003
 20
-96.16389200000029
 10
187.71819200000004
 20
-96.22993200000029
 10
187.93333000000004
 20
-96.29038400000029
 10
188.14719800000003
 20
-96.34474000000029
 10
188.35954200000003
 20
-96.39325400000028
 10
188.364876
 20
-96.37471200000029
 10
188.38138600000002
 20
-96.32061000000029
 10
188.40932600000002
 20
-96.23298000000028
 10
188.44920400000004
 20
-96.11410800000027
 10
188.50127400000005
 20
-95.96628000000027
 10
188.56579000000005
 20
-95.79178200000027
 10
188.64326000000005
 20
-95.59264600000027
 10
188.73393800000005
 20
-95.37090400000028
 10
188.83833200000004
 20
-95.12909600000027
 10
188.95669600000002
 20
-94.86925400000027
 10
189.08928400000005
 20
-94.59366400000027
 10
189.23660400000006
 20
-94.30435800000028
 10
189.39916400000004
 20
-94.00362200000026
 10
189.57721800000004
 20
-93.69374200000026
 10
189.77102000000005
 20
-93.37675000000026
 10
189.98082400000007
 20
-93.05493200000026
 10
190.20713800000004
 20
-92.73057400000026
 10
190.45047000000005
 20
-92.40570800000026
 10
190.71107400000002
 20
-92.08262000000028
 10
190.98920400000003
 20
-91.76359600000028
 10
191.28536800000006
 20
-91.45066800000026
 10
191.59982000000008
 20
-91.14612200000026
 10
191.93306800000008
 20
-90.85224400000027
 10
192.28536600000007
 20
-90.57106600000026
 10
192.65722200000008
 20
-90.30487400000027
 10
193.04889000000009
 20
-90.05595400000026
 10
193.46062400000008
 20
-89.82633800000026
 10
193.8929320000001
 20
-89.61831200000026
 10
194.3460680000001
 20
-89.43416200000024
 10
194.82054000000008
 20
-89.27592000000026
 10
195.31660200000007
 20
-89.14587200000025
 10
195.83450800000008
 20
-89.04630400000025
 10
196.1812180000001
 20
-88.99753600000025
 10
196.59168200000008
 20
-88.95054600000024
 10
197.06082000000006
 20
-88.90508000000025
 10
197.58406000000005
 20
-88.86139200000025
 10
198.15632200000007
 20
-88.81922800000025
 10
198.77252600000008
 20
-88.77858800000024
 10
199.4278460000001
 20
-88.73972600000025
 10
200.1174560000001
 20
-88.70238800000024
 10
200.8365300000001
 20
-88.66657400000024
 10
201.5799880000001
 20
-88.63253800000024
 10
202.3432580000001
 20
-88.60002600000024
 10
203.1210060000001
 20
-88.56903800000023
 10
203.9086600000001
 20
-88.53957400000024
 10
204.70114000000012
 20
-88.51188800000024
 10
205.4936200000001
 20
-88.48572600000024
 10
206.2812740000001
 20
-88.46108800000025
 10
207.0592760000001
 20
-88.43797400000024
 10
207.8225460000001
 20
-88.41638400000025
 10
208.5660040000001
 20
-88.39631800000025
 10
209.2850780000001
 20
-88.37777600000025
 10
209.97468800000013
 20
-88.36075800000025
 10
210.63000800000015
 20
-88.34526400000026
 10
211.24621200000016
 20
-88.33129400000026
 10
211.81847400000015
 20
-88.31884800000026
 10
212.34171400000014
 20
-88.30792600000025
 10
212.81110600000014
 20
-88.29852800000026
 10
213.22157000000013
 20
-88.29040000000026
 10
213.5685340000001
 20
-88.28379600000027
 10
213.84691800000013
 20
-88.27871600000027
 10
214.05189600000014
 20
-88.27516000000027
 10
214.17838800000015
 20
-88.27287400000026
 10
214.22156800000013
 20
-88.27211200000026
 10
215.3663460000001
 20
-88.28278000000026
 10
216.5111240000001
 20
-88.29344800000025
 10
217.65590200000008
 20
-88.30411600000025
 10
218.80068000000009
 20
-88.31478400000024
 10
219.94545800000006
 20
-88.32545200000023
 10
221.09023600000006
 20
-88.33612000000022
 10
222.23501400000004
 20
-88.34678800000022
 10
223.37979200000004
 20
-88.35745600000021
 10
224.52457
 20
-88.36812400000021
 10
225.669348
 20
-88.3787920000002
 10
226.814126
 20
-88.38946000000018
 10
227.95890399999996
 20
-88.40012800000018
 10
229.10368199999996
 20
-88.41079600000018
 10
230.24845999999994
 20
-88.42146400000017
 10
231.39323799999994
 20
-88.43213200000017
 10
232.5380159999999
 20
-88.44280000000016
 10
233.68279399999992
 20
-88.45346800000016
 10
234.8275719999999
 20
-88.46413600000014
 10
235.9723499999999
 20
-88.47480400000013
 10
237.11712799999987
 20
-88.48547200000013
 10
238.26190599999987
 20
-88.49614000000012
 10
239.40668399999984
 20
-88.50680800000012
 10
240.55146199999982
 20
-88.51747600000012
 10
241.69623999999982
 20
-88.5281440000001
 10
242.8410179999998
 20
-88.53881200000009
 10
243.9857959999998
 20
-88.54948000000009
 10
245.13057399999977
 20
-88.56014800000008
 10
246.27535199999977
 20
-88.57081600000008
 10
247.42012999999974
 20
-88.58148400000007
 10
248.56490799999975
 20
-88.59215200000006
 10
249.70968599999972
 20
-88.60282000000005
 10
250.85446399999972
 20
-88.61348800000005
 10
250.9029779999997
 20
-88.61298000000005
 10
250.95123799999973
 20
-88.61094800000005
 10
250.99924399999972
 20
-88.60764600000006
 10
251.04699599999972
 20
-88.60282000000005
 10
251.0944939999997
 20
-88.59672400000005
 10
251.14173799999972
 20
-88.58910400000006
 10
251.18847399999973
 20
-88.58021400000005
 10
251.23495599999973
 20
-88.56980000000006
 10
251.28092999999973
 20
-88.55811600000006
 10
251.32664999999972
 20
-88.54516200000006
 10
251.3718619999997
 20
-88.53068400000005
 10
251.41656599999973
 20
-88.51493600000005
 10
251.46076199999973
 20
-88.49791800000006
 10
251.50444999999974
 20
-88.47963000000006
 10
251.5476299999997
 20
-88.46007200000005
 10
251.59004799999974
 20
-88.43924400000006
 10
251.6319579999997
 20
-88.41714600000006
 10
251.67310599999973
 20
-88.39377800000005
 10
251.71374599999973
 20
-88.36939400000006
 10
251.75362399999972
 20
-88.34374000000005
 10
251.79273999999972
 20
-88.31681600000006
 10
251.83109399999972
 20
-88.28887600000006
 10
251.8686859999997
 20
-88.25966600000005
 10
251.90551599999972
 20
-88.22944000000005
 10
251.9413299999997
 20
-88.19794400000004
 10
251.97638199999972
 20
-88.16543200000005
 10
252.01041799999973
 20
-88.13190400000005
 10
252.0436919999997
 20
-88.09710600000004
 10
252.0759499999997
 20
-88.06129200000004
 10
252.1071919999997
 20
-88.02446200000004
 10
252.1374179999997
 20
-87.98661600000004
 10
252.16662799999972
 20
-87.94775400000003
 10
252.3124239999997
 20
-87.72880600000003
 10
252.4582199999997
 20
-87.50985800000002
 10
252.6040159999997
 20
-87.29091000000003
 10
252.74981199999968
 20
-87.07196200000001
 10
252.89560799999967
 20
-86.85301400000002
 10
253.04140399999966
 20
-86.634066
 10
253.18719999999965
 20
-86.41511799999999
 10
253.33299599999964
 20
-86.19617
 10
253.47879199999963
 20
-85.97722199999998
 10
253.62458799999962
 20
-85.75827399999999
 10
253.7703839999996
 20
-85.53932599999997
 10
253.9161799999996
 20
-85.32037799999996
 10
254.0619759999996
 20
-85.10142999999997
 10
254.20777199999958
 20
-84.88248199999995
 10
254.35356799999954
 20
-84.66353399999996
 10
254.49936399999953
 20
-84.44458599999994
 10
254.64515999999952
 20
-84.22563799999993
 10
254.7909559999995
 20
-84.00668999999994
 10
254.9367519999995
 20
-83.78774199999992
 10
255.0825479999995
 20
-83.56879399999993
 10
255.22834399999948
 20
-83.34984599999991
 10
255.37413999999947
 20
-83.1308979999999
 10
255.51993599999946
 20
-82.9119499999999
 10
255.66573199999945
 20
-82.6930019999999
 10
255.81152799999944
 20
-82.4740539999999
 10
255.95732399999943
 20
-82.25510599999988
 10
256.1031199999994
 20
-82.03615799999987
 10
256.2489159999994
 20
-81.81720999999987
 10
256.3947119999994
 20
-81.59826199999986
 10
256.54050799999936
 20
-81.37931399999987
 10
256.6863039999994
 20
-81.16036599999985
 10
256.83209999999934
 20
-80.94141799999986
 10
256.86003999999934
 20
-80.90407999999985
 10
256.8889959999994
 20
-80.86775799999985
 10
256.9189679999994
 20
-80.83245199999986
 10
256.94995599999936
 20
-80.79816199999986
 10
256.98170599999935
 20
-80.76488799999987
 10
257.0144719999994
 20
-80.73262999999986
 10
257.0479999999994
 20
-80.70138799999987
 10
257.08254399999936
 20
-80.67116199999985
 10
257.11784999999935
 20
-80.64195199999986
 10
257.15391799999935
 20
-80.61401199999985
 10
257.19074799999936
 20
-80.58708799999985
 10
257.2283399999994
 20
-80.56117999999987
 10
257.26643999999936
 20
-80.53654199999987
 10
257.30530199999936
 20
-80.51291999999987
 10
257.34492599999936
 20
-80.49056799999985
 10
257.3850579999994
 20
-80.46948599999985
 10
257.4256979999994
 20
-80.44941999999985
 10
257.46709999999933
 20
-80.43062399999984
 10
257.50900999999936
 20
-80.41309799999983
 10
257.55142799999936
 20
-80.39684199999984
 10
257.5943539999994
 20
-80.38160199999983
 10
257.6377879999994
 20
-80.36763199999983
 10
257.68147599999935
 20
-80.35493199999983
 10
257.72567199999935
 20
-80.34350199999983
 10
257.77012199999933
 20
-80.33359599999983
 10
257.81507999999934
 20
-80.32495999999983
 10
257.8602919999994
 20
-80.31759399999983
 10
257.90575799999937
 20
-80.31149799999983
 10
257.9514779999993
 20
-80.30667199999984
 10
257.9974519999993
 20
-80.30336999999983
 10
258.04367999999937
 20
-80.30133799999984
 10
258.09016199999934
 20
-80.30082999999983
 10
259.33018999999933
 20
-80.30768799999983
 10
260.5702179999994
 20
-80.31454599999984
 10
261.8102459999994
 20
-80.32140399999983
 10
263.0502739999994
 20
-80.32826199999982
 10
264.29030199999943
 20
-80.33511999999982
 10
265.5303299999994
 20
-80.34197799999981
 10
266.7703579999994
 20
-80.34883599999982
 10
268.01038599999947
 20
-80.35569399999981
 10
269.25041399999947
 20
-80.36255199999981
 10
270.49044199999946
 20
-80.3694099999998
 10
271.7304699999995
 20
-80.3762679999998
 10
272.9704979999995
 20
-80.38312599999979
 10
274.2105259999995
 20
-80.3899839999998
 10
275.45055399999956
 20
-80.3968419999998
 10
276.69058199999955
 20
-80.40369999999979
 10
277.9306099999996
 20
-80.41055799999978
 10
279.1706379999996
 20
-80.41741599999978
 10
280.4106659999996
 20
-80.42427399999978
 10
281.65069399999965
 20
-80.43113199999978
 10
282.89072199999964
 20
-80.43798999999977
 10
284.13074999999964
 20
-80.44484799999977
 10
285.3707779999997
 20
-80.45170599999976
 10
286.6108059999997
 20
-80.45856399999975
 10
287.8508339999997
 20
-80.46542199999976
 10
289.09086199999973
 20
-80.47227999999976
 10
290.3308899999997
 20
-80.47913799999975
 10
291.5709179999998
 20
-80.48599599999974
 10
292.8109459999998
 20
-80.49285399999974
 10
294.05097399999977
 20
-80.49971199999975
 10
295.2910019999998
 20
-80.50656999999974
 10
296.5310299999998
 20
-80.51342799999973
 10
297.7710579999998
 20
-80.52028599999973
 10
297.8312559999998
 20
-80.51901599999974
 10
297.89069199999983
 20
-80.51469799999973
 10
297.9493659999998
 20
-80.50758599999973
 10
298.00702399999983
 20
-80.49767999999973
 10
298.06366599999984
 20
-80.48497999999972
 10
298.11929199999986
 20
-80.46948599999973
 10
298.17364799999984
 20
-80.45119799999974
 10
298.22698799999984
 20
-80.43036999999974
 10
298.2788039999998
 20
-80.40725599999973
 10
298.32934999999986
 20
-80.38160199999973
 10
298.37837199999984
 20
-80.35366199999973
 10
298.4258699999998
 20
-80.32343599999972
 10
298.47184399999986
 20
-80.29092399999972
 10
298.51629399999985
 20
-80.25637999999972
 10
298.55896599999977
 20
-80.21980399999971
 10
298.5998599999998
 20
-80.18119599999972
 10
298.6387219999998
 20
-80.14055599999972
 10
298.6755519999998
 20
-80.09813799999972
 10
298.7103499999998
 20
-80.05394199999972
 10
298.74311599999976
 20
-80.00822199999972
 10
298.77359599999977
 20
-79.96072399999973
 10
298.80178999999976
 20
-79.91170199999972
 10
298.82769799999977
 20
-79.86115599999972
 10
298.8513199999998
 20
-79.80933999999972
 10
298.87240199999985
 20
-79.75625399999971
 10
298.8909439999999
 20
-79.70189799999972
 10
298.90669199999985
 20
-79.64627199999973
 10
298.9198999999998
 20
-79.58962999999972
 10
298.9303139999998
 20
-79.53197199999973
 10
298.9376799999998
 20
-79.47329799999973
 10
298.9422519999998
 20
-79.41386199999974
 10
298.94377599999984
 20
-79.35366399999972
 10
298.94377599999984
 20
-79.20227999999973
 10
298.94377599999984
 20
-79.05089599999972
 10
298.94377599999984
 20
-78.89951199999972
 10
298.94377599999984
 20
-78.74812799999972
 10
298.94377599999984
 20
-78.59674399999972
 10
298.94377599999984
 20
-78.44535999999972
 10
298.94377599999984
 20
-78.29397599999972
 10
298.94377599999984
 20
-78.14259199999972
 10
298.94377599999984
 20
-77.99120799999972
 10
298.94377599999984
 20
-77.83982399999972
 10
298.94377599999984
 20
-77.68843999999972
 10
298.94377599999984
 20
-77.53705599999971
 10
298.94377599999984
 20
-77.38567199999972
 10
298.94377599999984
 20
-77.23428799999971
 10
298.94377599999984
 20
-77.08290399999971
 10
298.94377599999984
 20
-76.93151999999971
 10
298.94377599999984
 20
-76.78013599999971
 10
298.94377599999984
 20
-76.62875199999971
 10
298.94377599999984
 20
-76.47736799999971
 10
298.94377599999984
 20
-76.3259839999997
 10
298.94377599999984
 20
-76.1745999999997
 10
298.94377599999984
 20
-76.0232159999997
 10
298.94377599999984
 20
-75.8718319999997
 10
298.94377599999984
 20
-75.7204479999997
 10
298.94377599999984
 20
-75.5690639999997
 10
298.94377599999984
 20
-75.4176799999997
 10
298.94377599999984
 20
-75.2662959999997
 10
298.94377599999984
 20
-75.1149119999997
 10
298.94377599999984
 20
-74.9635279999997
 10
298.94377599999984
 20
-74.8121439999997
 10
298.94377599999984
 20
-74.6607599999997
 10
298.94377599999984
 20
-74.50937599999969
 10
297.41621999999984
 20
-74.5002319999997
 10
295.8886639999999
 20
-74.49108799999969
 10
294.3611079999999
 20
-74.4819439999997
 10
292.83355199999994
 20
-74.4727999999997
 10
291.30599599999994
 20
-74.46365599999969
 10
289.77844
 20
-74.4545119999997
 10
288.250884
 20
-74.44536799999969
 10
286.72332800000004
 20
-74.4362239999997
 10
285.19577200000003
 20
-74.42707999999969
 10
283.6682160000001
 20
-74.4179359999997
 10
282.1406600000001
 20
-74.40879199999969
 10
280.61310400000013
 20
-74.39964799999969
 10
279.0855480000002
 20
-74.3905039999997
 10
277.5579920000002
 20
-74.38135999999969
 10
276.03043600000024
 20
-74.3722159999997
 10
274.50288000000023
 20
-74.36307199999969
 10
272.9753240000003
 20
-74.35392799999968
 10
271.4477680000003
 20
-74.34478399999969
 10
269.92021200000033
 20
-74.33563999999969
 10
268.39265600000033
 20
-74.3264959999997
 10
266.8651000000004
 20
-74.31735199999969
 10
265.3375440000004
 20
-74.3082079999997
 10
263.80998800000043
 20
-74.29906399999969
 10
262.2824320000004
 20
-74.28991999999968
 10
260.7548760000005
 20
-74.28077599999969
 10
259.2273200000005
 20
-74.27163199999968
 10
257.69976400000047
 20
-74.26248799999969
 10
256.17220800000047
 20
-74.25334399999969
 10
254.64465200000046
 20
-74.24419999999968
 10
253.11709600000046
 20
-74.23505599999969
 10
251.58954000000045
 20
-74.22591199999968
 10
250.06198400000045
 20
-74.21676799999969
  0
LWPOLYLINE
  5
31
330
17
100
AcDbEntity
  8
0
100
AcDbPolyline
 90
385
 70
0
 10
213.00236800000047
 20
-90.64066199999968
 10
212.60765200000046
 20
-90.65082199999969
 10
212.21496800000045
 20
-90.66123599999969
 10
211.82406200000045
 20
-90.67164999999969
 10
211.43493400000045
 20
-90.68231799999968
 10
211.04733000000047
 20
-90.69323999999969
 10
210.66125000000048
 20
-90.70441599999968
 10
210.27644000000046
 20
-90.71584599999969
 10
209.89264600000047
 20
-90.72752999999969
 10
209.50961400000045
 20
-90.73946799999969
 10
209.12734400000048
 20
-90.75165999999969
 10
208.74558200000047
 20
-90.7643599999997
 10
208.36407400000047
 20
-90.77731399999969
 10
207.9828200000005
 20
-90.79077599999968
 10
207.60156600000047
 20
-90.80449199999968
 10
207.2200580000005
 20
-90.81871599999968
 10
206.83829600000047
 20
-90.83344799999968
 10
206.45577200000048
 20
-90.84843399999968
 10
206.0727400000005
 20
-90.86392799999967
 10
205.6886920000005
 20
-90.87992999999967
 10
205.30362800000051
 20
-90.89643999999967
 10
204.9172940000005
 20
-90.91371199999966
 10
204.52943600000052
 20
-90.93149199999966
 10
204.1400540000005
 20
-90.94977999999966
 10
203.74889400000052
 20
-90.96882999999967
 10
203.35570200000052
 20
-90.98838799999966
 10
202.9604780000005
 20
-91.00870799999966
 10
202.5629680000005
 20
-91.02978999999966
 10
202.16291800000047
 20
-91.05137999999967
 10
201.76032800000047
 20
-91.07373199999967
 10
201.35494400000047
 20
-91.09684599999967
 10
200.94651200000047
 20
-91.12072199999967
 10
200.53477800000047
 20
-91.14535999999967
 10
200.36104200000048
 20
-91.15678999999966
 10
200.1840040000005
 20
-91.17025199999966
 10
200.0041720000005
 20
-91.18574599999967
 10
199.8215460000005
 20
-91.20327199999967
 10
199.63638000000049
 20
-91.22282999999966
 10
199.4491820000005
 20
-91.24467399999966
 10
199.26020600000047
 20
-91.26880399999968
 10
199.06945200000047
 20
-91.29521999999967
 10
198.8774280000005
 20
-91.32417599999967
 10
198.6843880000005
 20
-91.35541799999966
 10
198.4905860000005
 20
-91.38919999999966
 10
198.2962760000005
 20
-91.42552199999965
 10
198.1017120000005
 20
-91.46463799999965
 10
197.9071480000005
 20
-91.50654799999965
 10
197.71283800000052
 20
-91.55099799999965
 10
197.51929000000052
 20
-91.59849599999966
 10
197.3265040000005
 20
-91.64878799999966
 10
197.13473400000052
 20
-91.70212799999965
 10
196.94448800000052
 20
-91.75851599999964
 10
196.75602000000052
 20
-91.81795199999964
 10
196.56933000000052
 20
-91.88043599999963
 10
196.38492600000052
 20
-91.94622199999964
 10
196.20306200000053
 20
-92.01530999999963
 10
196.0239920000005
 20
-92.08769999999964
 10
195.84797000000052
 20
-92.16339199999965
 10
195.67525000000052
 20
-92.24263999999965
 10
195.50608600000052
 20
-92.32544399999965
 10
195.34073200000051
 20
-92.41180399999965
 10
195.17944200000053
 20
-92.50197399999965
 10
195.0224700000005
 20
-92.59569999999965
 10
194.8703240000005
 20
-92.69323599999966
 10
194.7230040000005
 20
-92.79458199999966
 10
194.6178480000005
 20
-92.87103599999966
 10
194.51218400000047
 20
-92.95104599999966
 10
194.40626600000047
 20
-93.03410399999966
 10
194.30009400000046
 20
-93.12046399999966
 10
194.19366800000049
 20
-93.20961799999965
 10
194.0872420000005
 20
-93.30156599999965
 10
193.98107000000047
 20
-93.39630799999965
 10
193.87515200000047
 20
-93.49384399999965
 10
193.76948800000045
 20
-93.59366599999966
 10
193.66433200000046
 20
-93.69602799999966
 10
193.55968400000046
 20
-93.80042199999966
 10
193.45554400000046
 20
-93.90710199999965
 10
193.35242000000048
 20
-94.01581399999966
 10
193.25005800000045
 20
-94.12630399999966
 10
193.14871200000047
 20
-94.23857199999966
 10
193.04863600000047
 20
-94.35236399999965
 10
192.94957600000046
 20
-94.46767999999966
 10
192.85204000000047
 20
-94.58451999999966
 10
192.75602800000044
 20
-94.70262999999964
 10
192.66154000000046
 20
-94.82175599999965
 10
192.56883000000045
 20
-94.94189799999965
 10
192.47789800000047
 20
-95.06305599999965
 10
192.38899800000047
 20
-95.18497599999965
 10
192.30213000000046
 20
-95.30740399999965
 10
192.2172940000005
 20
-95.43033999999965
 10
192.13474400000047
 20
-95.55378399999965
 10
192.05473400000045
 20
-95.67748199999966
 10
191.97726400000047
 20
-95.80143399999966
 10
191.90233400000048
 20
-95.92538599999965
 10
191.83019800000048
 20
-96.04908399999965
 10
191.76085600000047
 20
-96.17252799999966
 10
191.69456200000047
 20
-96.29571799999965
 10
191.6684000000005
 20
-96.34524799999966
 10
191.6437620000005
 20
-96.39172999999965
 10
191.62039400000052
 20
-96.43567199999966
 10
191.5985500000005
 20
-96.47707399999966
 10
191.5779760000005
 20
-96.51618999999965
 10
191.5584180000005
 20
-96.55301999999965
 10
191.5401300000005
 20
-96.58807199999964
 10
191.5228580000005
 20
-96.62134599999965
 10
191.5063480000005
 20
-96.65334999999963
 10
191.49085400000047
 20
-96.68408399999963
 10
191.4761220000005
 20
-96.71354799999962
 10
191.4621520000005
 20
-96.74224999999963
 10
191.4486900000005
 20
-96.77044399999963
 10
191.43599000000052
 20
-96.79812999999962
 10
191.4235440000005
 20
-96.82556199999962
 10
191.41160600000052
 20
-96.85299399999963
 10
191.3999220000005
 20
-96.88067999999961
 10
191.3884920000005
 20
-96.90887399999961
 10
191.37731600000052
 20
-96.93757599999961
 10
191.3661400000005
 20
-96.96703999999961
 10
191.3549640000005
 20
-96.99777399999961
 10
191.34378800000053
 20
-97.0297779999996
 10
191.33261200000052
 20
-97.06305199999959
 10
191.32118200000053
 20
-97.09810399999958
 10
191.30949800000053
 20
-97.13493399999957
 10
191.29730600000053
 20
-97.17404999999958
 10
191.28460600000054
 20
-97.21545199999959
 10
191.27139800000054
 20
-97.25939399999959
 10
191.25768200000053
 20
-97.30612999999958
 10
191.24320400000053
 20
-97.35565999999959
 10
191.22796400000055
 20
-97.40823799999959
 10
191.21196200000054
 20
-97.46437199999959
 10
191.22161400000056
 20
-97.46183199999959
 10
191.23152000000056
 20
-97.45929199999959
 10
191.24142600000056
 20
-97.4570059999996
 10
191.25133200000053
 20
-97.45471999999958
 10
191.26123800000053
 20
-97.45243399999958
 10
191.27114400000053
 20
-97.45014799999957
 10
191.28105000000053
 20
-97.44786199999957
 10
191.29095600000053
 20
-97.44582999999957
 10
191.30111600000052
 20
-97.44379799999959
 10
191.3112760000005
 20
-97.44176599999959
 10
191.32143600000052
 20
-97.43973399999959
 10
191.3315960000005
 20
-97.43795599999959
 10
191.3417560000005
 20
-97.43617799999959
 10
191.35217000000048
 20
-97.43439999999958
 10
191.3625840000005
 20
-97.4328759999996
 10
191.37299800000054
 20
-97.4313519999996
 10
191.38341200000053
 20
-97.42982799999962
 10
191.39408000000054
 20
-97.42830399999961
 10
191.40474800000055
 20
-97.42703399999962
 10
191.41541600000056
 20
-97.42576399999962
 10
191.42608400000057
 20
-97.42449399999963
 10
191.43675200000058
 20
-97.42347799999962
 10
191.44767400000057
 20
-97.42246199999961
 10
191.45859600000057
 20
-97.42169999999962
 10
191.4695180000006
 20
-97.42093799999962
 10
191.48044000000058
 20
-97.42017599999963
 10
191.4916160000006
 20
-97.41966799999962
 10
191.50279200000057
 20
-97.41915999999962
 10
191.51396800000057
 20
-97.41865199999961
 10
191.52514400000058
 20
-97.41839799999963
 10
191.53657400000054
 20
-97.41814399999963
 10
191.54800400000053
 20
-97.41814399999963
 10
191.94322800000054
 20
-97.41712799999962
 10
192.33769000000055
 20
-97.41636599999963
 10
192.73139000000054
 20
-97.41585799999962
 10
193.12432800000056
 20
-97.41585799999962
 10
193.51675800000055
 20
-97.41661999999963
 10
193.90842600000056
 20
-97.41814399999961
 10
194.29958600000055
 20
-97.42068399999961
 10
194.69023800000053
 20
-97.42449399999961
 10
195.08038200000053
 20
-97.42982799999962
 10
195.47001800000052
 20
-97.43668599999961
 10
195.85914600000052
 20
-97.44557599999962
 10
196.24776600000052
 20
-97.4562439999996
 10
196.63587800000053
 20
-97.46919799999961
 10
197.02373600000055
 20
-97.4844379999996
 10
197.41134000000054
 20
-97.50247199999961
 10
197.79843600000052
 20
-97.52304599999961
 10
198.18527800000055
 20
-97.54666799999961
 10
198.57186600000054
 20
-97.57333799999962
 10
198.95845400000056
 20
-97.60330999999962
 10
199.34478800000056
 20
-97.63683799999963
 10
199.73086800000056
 20
-97.67417599999962
 10
200.11694800000055
 20
-97.71532399999961
 10
200.50302800000054
 20
-97.76053599999962
 10
200.88885400000055
 20
-97.81006599999961
 10
201.27468000000053
 20
-97.86391399999961
 10
201.66050600000054
 20
-97.9225879999996
 10
202.04658600000053
 20
-97.98608799999961
 10
202.43266600000052
 20
-98.05441399999961
 10
202.81900000000053
 20
-98.12807399999961
 10
203.2053340000005
 20
-98.20706799999961
 10
203.59192200000052
 20
-98.29164999999962
 10
203.97876400000052
 20
-98.38207399999962
 10
204.14361000000054
 20
-98.42271399999962
 10
204.30794800000055
 20
-98.46462399999963
 10
204.47177800000054
 20
-98.50780399999964
 10
204.63510000000053
 20
-98.55225399999964
 10
204.79791400000053
 20
-98.59797399999964
 10
204.96047400000054
 20
-98.64470999999965
 10
205.12252600000053
 20
-98.69246199999964
 10
205.28432400000054
 20
-98.74122999999965
 10
205.44561400000052
 20
-98.79075999999964
 10
205.60665000000054
 20
-98.84130599999965
 10
205.76743200000053
 20
-98.89261399999964
 10
205.92796000000052
 20
-98.94442999999964
 10
206.08848800000052
 20
-98.99675399999965
 10
206.2487620000005
 20
-99.04958599999965
 10
206.4087820000005
 20
-99.10292599999966
 10
206.5688020000005
 20
-99.15677399999964
 10
206.7285680000005
 20
-99.21087599999966
 10
206.88833400000053
 20
-99.26523199999966
 10
207.04810000000052
 20
-99.31958799999965
 10
207.20786600000054
 20
-99.37419799999965
 10
207.36763200000053
 20
-99.42880799999963
 10
207.52739800000055
 20
-99.48316399999963
 10
207.68741800000052
 20
-99.53751999999965
 10
207.84743800000052
 20
-99.59162199999965
 10
208.00745800000053
 20
-99.64546999999965
 10
208.1677320000005
 20
-99.69880999999964
 10
208.3282600000005
 20
-99.75189599999963
 10
208.48904200000052
 20
-99.80447399999963
 10
208.65007800000052
 20
-99.85628999999963
 10
208.81136800000053
 20
-99.90759799999964
 10
208.97291200000052
 20
-99.95814399999963
 10
209.1347100000005
 20
-100.00792799999965
 10
209.13496400000048
 20
-100.00792799999965
 10
209.1352180000005
 20
-100.00792799999965
 10
209.13547200000048
 20
-100.00792799999965
 10
209.13572600000046
 20
-100.00792799999965
 10
209.13598000000047
 20
-100.00792799999965
 10
209.13623400000046
 20
-100.00792799999965
 10
209.13648800000044
 20
-100.00792799999965
 10
209.13674200000045
 20
-100.00792799999965
 10
209.13699600000044
 20
-100.00792799999965
 10
209.13725000000045
 20
-100.00792799999965
 10
209.13750400000043
 20
-100.00792799999965
 10
209.13775800000042
 20
-100.00792799999965
 10
209.13801200000043
 20
-100.00792799999965
 10
209.1382660000004
 20
-100.00792799999965
 10
209.1385200000004
 20
-100.00792799999965
 10
209.1387740000004
 20
-100.00792799999965
 10
209.1390280000004
 20
-100.00792799999965
 10
209.13928200000038
 20
-100.00792799999965
 10
209.1395360000004
 20
-100.00792799999965
 10
209.13979000000037
 20
-100.00792799999965
 10
209.14004400000036
 20
-100.00792799999965
 10
209.14029800000037
 20
-100.00792799999965
 10
209.14055200000035
 20
-100.00792799999965
 10
209.14080600000034
 20
-100.00792799999965
 10
209.14106000000035
 20
-100.00792799999965
 10
209.14131400000034
 20
-100.00792799999965
 10
209.14156800000035
 20
-100.00792799999965
 10
209.14182200000033
 20
-100.00792799999965
 10
209.14207600000032
 20
-100.00792799999965
 10
209.14233000000033
 20
-100.00792799999965
 10
209.1425840000003
 20
-100.00792799999965
 10
209.1428380000003
 20
-100.00792799999965
 10
209.20379800000032
 20
-100.02545399999966
 10
209.2650120000003
 20
-100.04120199999966
 10
209.3264800000003
 20
-100.05542599999966
 10
209.38820200000032
 20
-100.06787199999964
 10
209.4501780000003
 20
-100.07853999999963
 10
209.51215400000032
 20
-100.08742999999964
 10
209.57438400000032
 20
-100.09454199999965
 10
209.63661400000032
 20
-100.09987599999965
 10
209.69884400000032
 20
-100.10343199999966
 10
209.76107400000032
 20
-100.10546399999966
 10
209.82330400000032
 20
-100.10571799999964
 10
209.88553400000032
 20
-100.10419399999965
 10
209.94751000000034
 20
-100.10089199999966
 10
210.00923200000034
 20
-100.09581199999967
 10
210.07095400000037
 20
-100.08920799999966
 10
210.13242200000036
 20
-100.08082599999966
 10
210.19338200000035
 20
-100.07066599999965
 10
210.25408800000037
 20
-100.05872799999965
 10
210.31454000000036
 20
-100.04501199999964
 10
210.37448400000036
 20
-100.02977199999965
 10
210.43417400000038
 20
-100.01275399999965
 10
210.49335600000038
 20
-99.99395799999965
 10
210.55203000000037
 20
-99.97338399999964
 10
210.61019600000037
 20
-99.95128599999964
 10
210.66760000000036
 20
-99.92740999999964
 10
210.72449600000039
 20
-99.90175599999965
 10
210.78063000000037
 20
-99.87432399999965
 10
210.83600200000038
 20
-99.84536799999965
 10
210.8908660000004
 20
-99.81463399999966
 10
210.94471400000037
 20
-99.78212199999966
 10
210.99780000000035
 20
-99.74808599999966
 10
211.05012400000035
 20
-99.71227199999966
 10
211.14004000000037
 20
-99.64699399999965
 10
211.2289400000004
 20
-99.57968399999966
 10
211.3168240000004
 20
-99.51034199999965
 10
211.4034380000004
 20
-99.43896799999965
 10
211.48903600000037
 20
-99.36556199999964
 10
211.57336400000037
 20
-99.29012399999964
 10
211.6564220000004
 20
-99.21265399999965
 10
211.73846400000036
 20
-99.13315199999964
 10
211.81923600000036
 20
-99.05161799999964
 10
211.89873800000038
 20
-98.96830599999964
 10
211.97697000000036
 20
-98.88296199999964
 10
212.05393200000037
 20
-98.79583999999963
 10
212.12962400000038
 20
-98.70668599999964
 10
212.20404600000037
 20
-98.61575399999964
 10
212.27719800000037
 20
-98.52304399999963
 10
212.34882600000037
 20
-98.42855599999963
 10
212.4191840000004
 20
-98.33203599999963
 10
212.4882720000004
 20
-98.23373799999963
 10
212.5558360000004
 20
-98.13391599999963
 10
212.6221300000004
 20
-98.03231599999964
 10
212.68690000000038
 20
-97.92893799999965
 10
212.75040000000038
 20
-97.82378199999965
 10
212.8123760000004
 20
-97.71710199999964
 10
212.8728280000004
 20
-97.60864399999964
 10
212.9317560000004
 20
-97.49866199999964
 10
212.98941400000038
 20
-97.38715599999964
 10
213.0455480000004
 20
-97.27412599999964
 10
213.1001580000004
 20
-97.15931799999964
 10
213.1529900000004
 20
-97.04298599999963
 10
213.2042980000004
 20
-96.92512999999963
 10
213.2540820000004
 20
-96.80600399999963
 10
213.3023420000004
 20
-96.68535399999963
 10
213.34476000000043
 20
-96.57689599999962
 10
213.38641600000042
 20
-96.46996199999963
 10
213.4273100000004
 20
-96.36429799999962
 10
213.46769600000042
 20
-96.25990399999962
 10
213.5075740000004
 20
-96.15652599999963
 10
213.5469440000004
 20
-96.05416399999963
 10
213.58580600000042
 20
-95.95281799999962
 10
213.6241600000004
 20
-95.85223399999963
 10
213.6622600000004
 20
-95.75215799999962
 10
213.7001060000004
 20
-95.65284399999962
 10
213.7374440000004
 20
-95.55378399999962
 10
213.7745280000004
 20
-95.45497799999961
 10
213.81135800000038
 20
-95.35642599999962
 10
213.8481880000004
 20
-95.25787399999963
 10
213.8847640000004
 20
-95.15932199999963
 10
213.92134000000038
 20
-95.06051599999964
 10
213.9576620000004
 20
-94.96145599999963
 10
213.9939840000004
 20
-94.86214199999964
 10
214.03030600000042
 20
-94.76231999999963
 10
214.0666280000004
 20
-94.66173599999964
 10
214.10320400000043
 20
-94.56038999999963
 10
214.13978000000043
 20
-94.45828199999964
 10
214.1766100000004
 20
-94.35515799999963
 10
214.2136940000004
 20
-94.25076399999963
 10
214.2510320000004
 20
-94.14535399999963
 10
214.28862400000042
 20
-94.03841999999963
 10
214.32647000000043
 20
-93.93021599999963
 10
214.36482400000043
 20
-93.82023399999963
 10
214.40343200000044
 20
-93.70872799999962
 10
214.44254800000041
 20
-93.59518999999963
 10
214.48217200000042
 20
-93.47987399999963
 10
214.52230400000042
 20
-93.36252599999963
 10
214.56142000000042
 20
-93.23781199999964
 10
214.5941860000004
 20
-93.11284399999963
 10
214.6203480000004
 20
-92.98762199999963
 10
214.6401600000004
 20
-92.86290799999963
 10
214.6538760000004
 20
-92.73870199999963
 10
214.6614960000004
 20
-92.61525799999964
 10
214.6630200000004
 20
-92.49282999999964
 10
214.65870200000037
 20
-92.37192599999963
 10
214.64828800000035
 20
-92.25279999999964
 10
214.63228600000036
 20
-92.13545199999965
 10
214.61044200000035
 20
-92.02038999999965
 10
214.58301000000037
 20
-91.90786799999965
 10
214.55024400000036
 20
-91.79839399999966
 10
214.51189000000036
 20
-91.69196799999966
 10
214.46820200000036
 20
-91.58884399999965
 10
214.41943400000036
 20
-91.48952999999965
 10
214.36558600000038
 20
-91.39427999999965
 10
214.30665800000037
 20
-91.30309399999966
 10
214.2426500000004
 20
-91.21647999999965
 10
214.1738160000004
 20
-91.13469199999966
 10
214.1001560000004
 20
-91.05823799999966
 10
214.0219240000004
 20
-90.98711799999967
 10
213.9391200000004
 20
-90.92183999999966
 10
213.8517440000004
 20
-90.86240399999967
 10
213.76005000000038
 20
-90.80931799999966
 10
213.66403800000037
 20
-90.76283599999967
 10
213.5637080000004
 20
-90.72321199999966
 10
213.4593140000004
 20
-90.69069999999967
 10
213.3508560000004
 20
-90.66555399999967
 10
213.2383340000004
 20
-90.64802799999967
 10
213.1220020000004
 20
-90.63862999999968
 10
213.00186000000042
 20
-90.63761399999967
  0
LWPOLYLINE
  5
32
330
17
100
AcDbEntity
  8
0
100
AcDbPolyline
 90
129
 70
0
 10
250.73152800000042
 20
-80.69706999999967
 10
250.72695600000043
 20
-80.87283799999966
 10
250.7137480000004
 20
-81.04631999999967
 10
250.69190400000042
 20
-81.21726199999966
 10
250.6619320000004
 20
-81.38566399999966
 10
250.6238320000004
 20
-81.55101799999967
 10
250.5778580000004
 20
-81.71306999999966
 10
250.5242640000004
 20
-81.87181999999966
 10
250.46305000000038
 20
-82.02701399999967
 10
250.3947240000004
 20
-82.17839799999966
 10
250.31928600000037
 20
-82.32571799999965
 10
250.2369900000004
 20
-82.46871999999965
 10
250.1480900000004
 20
-82.60740399999966
 10
250.0528400000004
 20
-82.74126199999965
 10
249.9514940000004
 20
-82.87029399999965
 10
249.84405200000037
 20
-82.99424599999965
 10
249.73102200000037
 20
-83.11286399999965
 10
249.61240400000037
 20
-83.22589399999964
 10
249.48845200000036
 20
-83.33333599999965
 10
249.35942000000034
 20
-83.43468199999964
 10
249.22556200000034
 20
-83.52993199999965
 10
249.08687800000033
 20
-83.61883199999964
 10
248.94387600000033
 20
-83.70112799999966
 10
248.79655600000032
 20
-83.77656599999966
 10
248.64517200000031
 20
-83.84489199999966
 10
248.48997800000032
 20
-83.90610599999965
 10
248.33122800000032
 20
-83.95995399999966
 10
248.1691760000003
 20
-84.00592799999964
 10
248.00382200000033
 20
-84.04402799999964
 10
247.8354200000003
 20
-84.07399999999964
 10
247.66447800000032
 20
-84.09584399999964
 10
247.49099600000034
 20
-84.10905199999965
 10
247.31522800000033
 20
-84.11362399999965
 10
247.13946000000033
 20
-84.10905199999965
 10
246.96597800000032
 20
-84.09584399999964
 10
246.79503600000032
 20
-84.07399999999964
 10
246.6266340000003
 20
-84.04402799999964
 10
246.46128000000033
 20
-84.00592799999964
 10
246.2992280000003
 20
-83.95995399999966
 10
246.14047800000031
 20
-83.90610599999965
 10
245.98528400000032
 20
-83.84489199999966
 10
245.83390000000034
 20
-83.77656599999966
 10
245.6865800000003
 20
-83.70112799999966
 10
245.5435780000003
 20
-83.61883199999964
 10
245.4048940000003
 20
-83.52993199999965
 10
245.2710360000003
 20
-83.43468199999964
 10
245.1420040000003
 20
-83.33333599999965
 10
245.01805200000027
 20
-83.22589399999964
 10
244.89943400000027
 20
-83.11286399999965
 10
244.78640400000026
 20
-82.99424599999965
 10
244.67896200000027
 20
-82.87029399999965
 10
244.57761600000026
 20
-82.74126199999965
 10
244.48236600000027
 20
-82.60740399999966
 10
244.39346600000025
 20
-82.46871999999965
 10
244.31117000000026
 20
-82.32571799999965
 10
244.23573200000027
 20
-82.17839799999966
 10
244.16740600000026
 20
-82.02701399999967
 10
244.10619200000028
 20
-81.87181999999966
 10
244.05259800000027
 20
-81.71306999999966
 10
244.00662400000024
 20
-81.55101799999967
 10
243.96852400000026
 20
-81.38566399999966
 10
243.93855200000024
 20
-81.21726199999966
 10
243.91670800000023
 20
-81.04631999999967
 10
243.90350000000024
 20
-80.87283799999966
 10
243.89892800000024
 20
-80.69706999999967
 10
243.90350000000024
 20
-80.52130199999966
 10
243.91670800000023
 20
-80.34781999999967
 10
243.93855200000024
 20
-80.17687799999966
 10
243.96852400000026
 20
-80.00847599999966
 10
244.00662400000024
 20
-79.84312199999965
 10
244.05259800000027
 20
-79.68106999999966
 10
244.10619200000028
 20
-79.52231999999967
 10
244.16740600000026
 20
-79.36712599999967
 10
244.23573200000027
 20
-79.21574199999966
 10
244.31117000000026
 20
-79.06842199999967
 10
244.39346600000025
 20
-78.92541999999968
 10
244.48236600000027
 20
-78.78673599999968
 10
244.57761600000026
 20
-78.65287799999967
 10
244.67896200000027
 20
-78.52384599999968
 10
244.78640400000026
 20
-78.39989399999969
 10
244.89943400000027
 20
-78.28127599999969
 10
245.01805200000027
 20
-78.16824599999968
 10
245.1420040000003
 20
-78.06080399999969
 10
245.2710360000003
 20
-77.95945799999969
 10
245.4048940000003
 20
-77.86420799999969
 10
245.5435780000003
 20
-77.77530799999968
 10
245.6865800000003
 20
-77.69301199999968
 10
245.83390000000034
 20
-77.61757399999968
 10
245.98528400000032
 20
-77.54924799999968
 10
246.14047800000031
 20
-77.48803399999967
 10
246.2992280000003
 20
-77.43418599999968
 10
246.46128000000033
 20
-77.38821199999968
 10
246.6266340000003
 20
-77.35011199999968
 10
246.79503600000032
 20
-77.3201399999997
 10
246.96597800000032
 20
-77.29829599999968
 10
247.13946000000033
 20
-77.28508799999967
 10
247.31522800000033
 20
-77.2805159999997
 10
247.49099600000034
 20
-77.28508799999967
 10
247.66447800000032
 20
-77.29829599999968
 10
247.8354200000003
 20
-77.3201399999997
 10
248.00382200000033
 20
-77.35011199999968
 10
248.1691760000003
 20
-77.38821199999968
 10
248.33122800000032
 20
-77.43418599999968
 10
248.48997800000032
 20
-77.48803399999967
 10
248.64517200000031
 20
-77.54924799999968
 10
248.79655600000032
 20
-77.61757399999968
 10
248.94387600000033
 20
-77.69301199999968
 10
249.08687800000033
 20
-77.77530799999968
 10
249.22556200000034
 20
-77.86420799999969
 10
249.35942000000034
 20
-77.95945799999969
 10
249.48845200000036
 20
-78.06080399999969
 10
249.61240400000037
 20
-78.16824599999968
 10
249.73102200000037
 20
-78.28127599999969
 10
249.84405200000037
 20
-78.39989399999969
 10
249.9514940000004
 20
-78.52384599999968
 10
250.0528400000004
 20
-78.65287799999967
 10
250.1480900000004
 20
-78.78673599999968
 10
250.2369900000004
 20
-78.92541999999968
 10
250.31928600000037
 20
-79.06842199999967
 10
250.3947240000004
 20
-79.21574199999966
 10
250.46305000000038
 20
-79.36712599999967
 10
250.5242640000004
 20
-79.52231999999967
 10
250.5778580000004
 20
-79.68106999999966
 10
250.6238320000004
 20
-79.84312199999965
 10
250.6619320000004
 20
-80.00847599999966
 10
250.69190400000042
 20
-80.17687799999966
 10
250.7137480000004
 20
-80.34781999999967
 10
250.72695600000043
 20
-80.52130199999966
 10
250.73152800000042
 20
-80.69706999999967
  0
LWPOLYLINE
  5
33
330
17
100
AcDbEntity
  8
0
100
AcDbPolyline
 90
129
 70
0
 10
189.72606200000044
 20
-61.09893799999966
 10
189.43320000000043
 20
-61.08471399999966
 10
189.1403380000004
 20
-61.07048999999966
 10
188.84747600000043
 20
-61.05626599999965
 10
188.5546140000004
 20
-61.04204199999965
 10
188.2620060000004
 20
-61.02781799999965
 10
187.9691440000004
 20
-61.01359399999964
 10
187.67628200000038
 20
-60.999369999999644
 10
187.38342000000037
 20
-60.98514599999964
 10
187.09055800000039
 20
-60.97092199999963
 10
186.79769600000037
 20
-60.95669799999963
 10
186.50483400000036
 20
-60.94247399999963
 10
186.21197200000037
 20
-60.92824999999963
 10
185.91911000000036
 20
-60.91402599999962
 10
185.62624800000034
 20
-60.89980199999962
 10
185.33338600000036
 20
-60.88557799999962
 10
185.04052400000035
 20
-60.87135399999961
 10
184.74766200000033
 20
-60.857129999999614
 10
184.45480000000032
 20
-60.84290599999961
 10
184.16193800000033
 20
-60.8286819999996
 10
183.86907600000032
 20
-60.814457999999604
 10
183.57646800000032
 20
-60.8002339999996
 10
183.2836060000003
 20
-60.7860099999996
 10
182.9907440000003
 20
-60.771785999999594
 10
182.6978820000003
 20
-60.75756199999959
 10
182.4050200000003
 20
-60.74333799999959
 10
182.11215800000028
 20
-60.72911399999958
 10
181.8192960000003
 20
-60.714889999999585
 10
181.52643400000028
 20
-60.70066599999958
 10
181.23357200000027
 20
-60.68644199999957
 10
180.94071000000025
 20
-60.672217999999575
 10
180.64784800000027
 20
-60.65799399999957
 10
180.35498600000025
 20
-60.64376999999957
 10
180.25059200000027
 20
-61.02578599999956
 10
180.14619800000028
 20
-61.40780199999956
 10
180.0418040000003
 20
-61.789817999999556
 10
179.9374100000003
 20
-62.171833999999556
 10
179.83301600000033
 20
-62.55384999999956
 10
179.72862200000034
 20
-62.93586599999955
 10
179.62422800000036
 20
-63.31788199999955
 10
179.51983400000037
 20
-63.69989799999955
 10
179.4154400000004
 20
-64.08191399999954
 10
179.3110460000004
 20
-64.46392999999954
 10
179.20665200000042
 20
-64.84594599999954
 10
179.10225800000043
 20
-65.22796199999954
 10
178.99786400000045
 20
-65.60997799999954
 10
178.89347000000046
 20
-65.99199399999955
 10
178.78907600000048
 20
-66.37400999999956
 10
178.6846820000005
 20
-66.75602599999955
 10
178.5802880000005
 20
-67.13804199999956
 10
178.4758940000005
 20
-67.52005799999957
 10
178.3715000000005
 20
-67.90207399999957
 10
178.26710600000052
 20
-68.28408999999958
 10
178.16271200000054
 20
-68.66610599999959
 10
178.05831800000055
 20
-69.04812199999958
 10
177.95392400000057
 20
-69.43013799999959
 10
177.84953000000058
 20
-69.8121539999996
 10
177.7451360000006
 20
-70.1941699999996
 10
177.6407420000006
 20
-70.57618599999961
 10
177.53634800000063
 20
-70.95820199999962
 10
177.43195400000064
 20
-71.34021799999961
 10
177.32756000000066
 20
-71.72223399999962
 10
177.22316600000067
 20
-72.10424999999962
 10
177.1187720000007
 20
-72.48626599999963
 10
177.0143780000007
 20
-72.86828199999964
 10
177.15128400000071
 20
-72.86904399999963
 10
177.2881900000007
 20
-72.86980599999963
 10
177.4250960000007
 20
-72.87056799999962
 10
177.5620020000007
 20
-72.87132999999962
 10
177.6989080000007
 20
-72.87209199999961
 10
177.83581400000068
 20
-72.87285399999962
 10
177.9727200000007
 20
-72.87361599999961
 10
178.10962600000067
 20
-72.87437799999961
 10
178.24653200000068
 20
-72.8751399999996
 10
178.38343800000067
 20
-72.8759019999996
 10
178.52034400000068
 20
-72.8766639999996
 10
178.65725000000066
 20
-72.87742599999959
 10
178.79415600000067
 20
-72.87818799999958
 10
178.93106200000065
 20
-72.87894999999959
 10
179.06796800000066
 20
-72.87971199999959
 10
179.20487400000064
 20
-72.88047399999958
 10
179.34178000000065
 20
-72.88123599999957
 10
179.47868600000064
 20
-72.88199799999957
 10
179.61559200000065
 20
-72.88275999999956
 10
179.75249800000063
 20
-72.88352199999956
 10
179.88940400000064
 20
-72.88428399999955
 10
180.02631000000062
 20
-72.88504599999956
 10
180.16321600000063
 20
-72.88580799999956
 10
180.30012200000064
 20
-72.88656999999955
 10
180.43702800000062
 20
-72.88733199999955
 10
180.57393400000063
 20
-72.88809399999954
 10
180.71084000000062
 20
-72.88885599999954
 10
180.84774600000063
 20
-72.88961799999953
 10
180.9846520000006
 20
-72.89037999999954
 10
181.12155800000062
 20
-72.89114199999953
 10
181.2584640000006
 20
-72.89190399999953
 10
181.3953700000006
 20
-72.89266599999952
 10
181.6557200000006
 20
-72.52411199999952
 10
181.9160700000006
 20
-72.15555799999952
 10
182.17642000000058
 20
-71.7870039999995
 10
182.4367700000006
 20
-71.4184499999995
 10
182.69712000000058
 20
-71.04989599999949
 10
182.95747000000057
 20
-70.68134199999949
 10
183.21782000000056
 20
-70.31278799999949
 10
183.47817000000055
 20
-69.94423399999948
 10
183.73852000000056
 20
-69.57567999999947
 10
183.99887000000055
 20
-69.20712599999946
 10
184.25922000000054
 20
-68.83857199999946
 10
184.51957000000053
 20
-68.47001799999946
 10
184.77992000000052
 20
-68.10146399999945
 10
185.04027000000053
 20
-67.73290999999945
 10
185.30062000000052
 20
-67.36435599999943
 10
185.5609700000005
 20
-66.99580199999943
 10
185.8213200000005
 20
-66.62724799999943
 10
186.08167000000049
 20
-66.25869399999942
 10
186.3420200000005
 20
-65.89013999999942
 10
186.6023700000005
 20
-65.52158599999942
 10
186.86272000000048
 20
-65.1530319999994
 10
187.12307000000047
 20
-64.78447799999941
 10
187.38342000000046
 20
-64.4159239999994
 10
187.64377000000047
 20
-64.0473699999994
 10
187.90412000000046
 20
-63.67881599999941
 10
188.16447000000045
 20
-63.31026199999941
 10
188.42482000000044
 20
-62.941707999999416
 10
188.68517000000045
 20
-62.57315399999941
 10
188.94552000000044
 20
-62.20459999999942
 10
189.20587000000043
 20
-61.83604599999942
 10
189.46622000000042
 20
-61.46749199999942
 10
189.7265700000004
 20
-61.09893799999942
  0
LWPOLYLINE
  5
34
330
17
100
AcDbEntity
  8
0
100
AcDbPolyline
 90
577
 70
0
 10
270.91055800000044
 20
-65.25615599999942
 10
270.4663120000004
 20
-65.23354999999943
 10
270.0223200000004
 20
-65.21094399999942
 10
269.57807400000036
 20
-65.18833799999942
 10
269.1340820000004
 20
-65.16573199999942
 10
268.68983600000035
 20
-65.14312599999943
 10
268.2458440000004
 20
-65.12051999999942
 10
267.80159800000035
 20
-65.09791399999942
 10
267.3576060000003
 20
-65.07530799999942
 10
266.91336000000035
 20
-65.05270199999943
 10
266.4693680000003
 20
-65.03009599999942
 10
266.0251220000003
 20
-65.00748999999942
 10
265.5811300000003
 20
-64.98488399999943
 10
265.1368840000003
 20
-64.96227799999943
 10
264.69289200000026
 20
-64.93967199999942
 10
264.2486460000003
 20
-64.91706599999942
 10
263.80465400000026
 20
-64.89445999999943
 10
263.36040800000023
 20
-64.87185399999943
 10
262.91641600000025
 20
-64.84924799999942
 10
262.47217000000023
 20
-64.82664199999942
 10
262.02817800000025
 20
-64.80403599999943
 10
261.58393200000023
 20
-64.78142999999943
 10
261.1399400000002
 20
-64.75882399999942
 10
260.69569400000023
 20
-64.73621799999943
 10
260.2517020000002
 20
-64.71361199999943
 10
259.8074560000002
 20
-64.69100599999943
 10
259.3634640000002
 20
-64.66839999999942
 10
258.91947200000016
 20
-64.64579399999943
 10
258.4754800000002
 20
-64.62318799999943
 10
258.03148800000014
 20
-64.60058199999943
 10
257.5874960000001
 20
-64.57797599999942
 10
257.1435040000001
 20
-64.55536999999943
 10
256.6995120000001
 20
-64.53276399999943
 10
256.69697200000013
 20
-64.62852199999944
 10
256.6898600000001
 20
-64.72300999999943
 10
256.6779220000001
 20
-64.81622799999944
 10
256.6616660000001
 20
-64.90792199999943
 10
256.6408380000001
 20
-64.99809199999943
 10
256.6156920000001
 20
-65.08648399999943
 10
256.5864820000001
 20
-65.17309799999944
 10
256.5532080000001
 20
-65.25767999999944
 10
256.51587000000006
 20
-65.34022999999944
 10
256.4747220000001
 20
-65.42049399999944
 10
256.4297640000001
 20
-65.49847199999944
 10
256.3812500000001
 20
-65.57390999999944
 10
256.32943400000005
 20
-65.64680799999944
 10
256.2740620000001
 20
-65.71716599999944
 10
256.21564200000006
 20
-65.78472999999944
 10
256.1539200000001
 20
-65.84949999999944
 10
256.0891500000001
 20
-65.91122199999944
 10
256.02158600000007
 20
-65.96964199999944
 10
255.95122800000007
 20
-66.02501399999944
 10
255.87833000000006
 20
-66.07682999999945
 10
255.80289200000004
 20
-66.12534399999944
 10
255.72491400000004
 20
-66.17030199999945
 10
255.64465000000004
 20
-66.21144999999945
 10
255.56210000000002
 20
-66.24878799999944
 10
255.47751800000003
 20
-66.28206199999943
 10
255.39090400000003
 20
-66.31127199999943
 10
255.30251200000004
 20
-66.33641799999943
 10
255.21234200000004
 20
-66.35724599999944
 10
255.12064800000005
 20
-66.37350199999943
 10
255.02743000000004
 20
-66.38543999999943
 10
254.93294200000005
 20
-66.39255199999944
 10
254.83718400000006
 20
-66.39509199999945
 10
254.1798320000001
 20
-66.39509199999945
 10
253.5224800000001
 20
-66.39509199999945
 10
252.8651280000001
 20
-66.39509199999945
 10
252.2077760000001
 20
-66.39509199999945
 10
251.5504240000001
 20
-66.39509199999945
 10
250.89307200000013
 20
-66.39509199999945
 10
250.23572000000013
 20
-66.39509199999945
 10
249.57836800000015
 20
-66.39509199999945
 10
248.92101600000015
 20
-66.39509199999945
 10
248.26366400000015
 20
-66.39509199999945
 10
247.60631200000017
 20
-66.39509199999945
 10
246.94896000000017
 20
-66.39509199999945
 10
246.2916080000002
 20
-66.39509199999945
 10
245.6342560000002
 20
-66.39509199999945
 10
244.97690400000022
 20
-66.39509199999945
 10
244.31955200000021
 20
-66.39509199999945
 10
243.6622000000002
 20
-66.39509199999945
 10
243.00484800000024
 20
-66.39509199999945
 10
242.34749600000023
 20
-66.39509199999945
 10
241.69014400000026
 20
-66.39509199999945
 10
241.03279200000026
 20
-66.39509199999945
 10
240.37544000000025
 20
-66.39509199999945
 10
239.71808800000028
 20
-66.39509199999945
 10
239.06073600000028
 20
-66.39509199999945
 10
238.4033840000003
 20
-66.39509199999945
 10
237.7460320000003
 20
-66.39509199999945
 10
237.08868000000032
 20
-66.39509199999945
 10
236.43132800000032
 20
-66.39509199999945
 10
235.77397600000032
 20
-66.39509199999945
 10
235.11662400000034
 20
-66.39509199999945
 10
234.45927200000034
 20
-66.39509199999945
 10
233.80192000000037
 20
-66.39509199999945
 10
233.64444000000034
 20
-66.39356799999945
 10
233.48721400000034
 20
-66.38899599999945
 10
233.33024200000034
 20
-66.38137599999946
 10
233.17377800000034
 20
-66.37070799999947
 10
233.01756800000032
 20
-66.35699199999948
 10
232.86186600000033
 20
-66.34048199999948
 10
232.7066720000003
 20
-66.32092399999948
 10
232.5519860000003
 20
-66.29831799999948
 10
232.3978080000003
 20
-66.27291799999948
 10
232.24439200000032
 20
-66.24446999999947
 10
232.09148400000032
 20
-66.21297399999946
 10
231.9393380000003
 20
-66.17868399999946
 10
231.7879540000003
 20
-66.14134599999947
 10
231.6373320000003
 20
-66.10121399999946
 10
231.4874720000003
 20
-66.05828799999946
 10
231.3386280000003
 20
-66.01256799999946
 10
231.1905460000003
 20
-65.96379999999947
 10
231.04348000000033
 20
-65.91223799999948
 10
230.8974300000003
 20
-65.85788199999946
 10
230.75239600000032
 20
-65.80073199999947
 10
230.6083780000003
 20
-65.74078799999947
 10
230.4656300000003
 20
-65.67804999999946
 10
230.3238980000003
 20
-65.61251799999947
 10
230.1834360000003
 20
-65.54419199999947
 10
230.0442440000003
 20
-65.47307199999948
 10
229.9063220000003
 20
-65.39941199999947
 10
229.7696700000003
 20
-65.32295799999947
 10
229.63428800000028
 20
-65.24370999999947
 10
229.50043000000028
 20
-65.16192199999946
 10
229.3680960000003
 20
-65.07733999999947
 10
229.2372860000003
 20
-64.99021799999946
 10
229.1080000000003
 20
-64.90030199999946
 10
229.0904740000003
 20
-64.88785599999946
 10
229.0729480000003
 20
-64.87540999999946
 10
229.05542200000033
 20
-64.86296399999945
 10
229.03789600000033
 20
-64.85051799999945
 10
229.02037000000036
 20
-64.83807199999946
 10
229.00284400000035
 20
-64.82562599999945
 10
228.98531800000038
 20
-64.81317999999945
 10
228.96779200000037
 20
-64.80073399999945
 10
228.9502660000004
 20
-64.78828799999944
 10
228.9327400000004
 20
-64.77584199999944
 10
228.9152140000004
 20
-64.76339599999945
 10
228.89768800000041
 20
-64.75094999999943
 10
228.8801620000004
 20
-64.73850399999944
 10
228.86263600000044
 20
-64.72605799999944
 10
228.84511000000043
 20
-64.71361199999943
 10
228.82758400000046
 20
-64.70116599999943
 10
228.81005800000045
 20
-64.68871999999944
 10
228.79253200000048
 20
-64.67627399999942
 10
228.77500600000047
 20
-64.66382799999943
 10
228.7574800000005
 20
-64.65138199999943
 10
228.7399540000005
 20
-64.63893599999943
 10
228.72242800000052
 20
-64.62648999999942
 10
228.70490200000052
 20
-64.61404399999942
 10
228.68737600000054
 20
-64.60159799999943
 10
228.66985000000054
 20
-64.58915199999942
 10
228.65232400000056
 20
-64.57670599999942
 10
228.63479800000056
 20
-64.56425999999942
 10
228.61727200000058
 20
-64.55181399999941
 10
228.59974600000058
 20
-64.53936799999941
 10
228.5822200000006
 20
-64.52692199999942
 10
228.5646940000006
 20
-64.5144759999994
 10
228.54716800000062
 20
-64.50202999999941
 10
228.3106940000006
 20
-64.49948999999941
 10
228.0742200000006
 20
-64.49694999999942
 10
227.83774600000058
 20
-64.49440999999942
 10
227.60127200000056
 20
-64.49186999999942
 10
227.36479800000058
 20
-64.48932999999941
 10
227.12832400000056
 20
-64.48678999999942
 10
226.89185000000055
 20
-64.48424999999942
 10
226.65537600000053
 20
-64.48170999999942
 10
226.41890200000051
 20
-64.47916999999943
 10
226.18242800000053
 20
-64.47662999999943
 10
225.9459540000005
 20
-64.47408999999944
 10
225.7094800000005
 20
-64.47154999999944
 10
225.47300600000048
 20
-64.46900999999944
 10
225.23653200000047
 20
-64.46646999999943
 10
225.00005800000048
 20
-64.46392999999944
 10
224.76358400000046
 20
-64.46138999999944
 10
224.52711000000045
 20
-64.45884999999944
 10
224.29063600000043
 20
-64.45630999999945
 10
224.05416200000042
 20
-64.45376999999945
 10
223.8176880000004
 20
-64.45122999999946
 10
223.58121400000041
 20
-64.44868999999946
 10
223.3447400000004
 20
-64.44614999999946
 10
223.10826600000038
 20
-64.44360999999947
 10
222.87179200000037
 20
-64.44106999999946
 10
222.63531800000035
 20
-64.43852999999946
 10
222.39884400000037
 20
-64.43598999999946
 10
222.16237000000035
 20
-64.43344999999947
 10
221.92589600000034
 20
-64.43090999999947
 10
221.68942200000032
 20
-64.42836999999948
 10
221.4529480000003
 20
-64.42582999999948
 10
221.2164740000003
 20
-64.42328999999948
 10
220.9800000000003
 20
-64.42074999999949
 10
220.8781460000003
 20
-64.41820999999949
 10
220.7775620000003
 20
-64.41084399999949
 10
220.67824800000034
 20
-64.39890599999949
 10
220.58045800000033
 20
-64.38239599999949
 10
220.48419200000032
 20
-64.36131399999948
 10
220.38970400000034
 20
-64.33591399999949
 10
220.29699400000032
 20
-64.30644999999949
 10
220.20606200000034
 20
-64.27266799999948
 10
220.11716200000035
 20
-64.23482199999948
 10
220.03029400000034
 20
-64.19316599999948
 10
219.94571200000036
 20
-64.14769999999949
 10
219.86341600000037
 20
-64.09867799999948
 10
219.78366000000037
 20
-64.04609999999948
 10
219.70644400000037
 20
-63.989965999999484
 10
219.6317680000004
 20
-63.93052999999948
 10
219.55988600000038
 20
-63.867791999999476
 10
219.49079800000035
 20
-63.80200599999948
 10
219.42475800000037
 20
-63.733171999999485
 10
219.36202000000037
 20
-63.66154399999948
 10
219.30233000000038
 20
-63.587121999999475
 10
219.24594200000038
 20
-63.509905999999475
 10
219.1931100000004
 20
-63.43014999999948
 10
219.1438340000004
 20
-63.34785399999948
 10
219.0981140000004
 20
-63.263271999999475
 10
219.0562040000004
 20
-63.17665799999948
 10
219.0183580000004
 20
-63.087757999999475
 10
218.98432200000042
 20
-62.99682599999947
 10
218.95460400000042
 20
-62.904115999999476
 10
218.9289500000004
 20
-62.80962799999947
 10
218.90761400000045
 20
-62.71336199999947
 10
218.89085000000043
 20
-62.615571999999474
 10
218.87865800000043
 20
-62.51651199999948
 10
218.82938200000044
 20
-62.51422599999948
 10
218.78010600000044
 20
-62.511939999999484
 10
218.73083000000045
 20
-62.509653999999486
 10
218.68155400000046
 20
-62.507367999999495
 10
218.63227800000047
 20
-62.5050819999995
 10
218.5830020000005
 20
-62.5027959999995
 10
218.5337260000005
 20
-62.5005099999995
 10
218.48445000000052
 20
-62.4982239999995
 10
218.43517400000053
 20
-62.49593799999951
 10
218.38589800000054
 20
-62.493651999999514
 10
218.33662200000055
 20
-62.491365999999516
 10
218.28734600000055
 20
-62.48907999999952
 10
218.23807000000056
 20
-62.48679399999952
 10
218.18879400000057
 20
-62.48450799999953
 10
218.13951800000058
 20
-62.48222199999953
 10
218.0902420000006
 20
-62.47993599999953
 10
218.0409660000006
 20
-62.477649999999535
 10
217.9916900000006
 20
-62.475363999999544
 10
217.9424140000006
 20
-62.473077999999546
 10
217.89313800000065
 20
-62.47079199999955
 10
217.84386200000066
 20
-62.46850599999955
 10
217.79458600000066
 20
-62.46621999999955
 10
217.74531000000067
 20
-62.46393399999956
 10
217.69603400000068
 20
-62.46164799999956
 10
217.6467580000007
 20
-62.459361999999565
 10
217.5974820000007
 20
-62.45707599999957
 10
217.5482060000007
 20
-62.45478999999957
 10
217.4989300000007
 20
-62.45250399999958
 10
217.44965400000072
 20
-62.45021799999958
 10
217.40037800000073
 20
-62.44793199999958
 10
217.35110200000074
 20
-62.445645999999584
 10
217.30182600000074
 20
-62.44335999999959
 10
217.06332000000077
 20
-62.78067199999959
 10
216.82481400000077
 20
-63.117983999999595
 10
216.58630800000077
 20
-63.45529599999959
 10
216.3478020000008
 20
-63.792607999999596
 10
216.1092960000008
 20
-64.1299199999996
 10
215.8707900000008
 20
-64.4672319999996
 10
215.63228400000082
 20
-64.8045439999996
 10
215.39377800000082
 20
-65.14185599999959
 10
215.15527200000085
 20
-65.47916799999959
 10
214.91676600000085
 20
-65.81647999999959
 10
214.67826000000085
 20
-66.15379199999958
 10
214.43975400000087
 20
-66.49110399999957
 10
214.20124800000087
 20
-66.82841599999956
 10
213.96274200000087
 20
-67.16572799999956
 10
213.7242360000009
 20
-67.50303999999956
 10
213.4857300000009
 20
-67.84035199999954
 10
213.2472240000009
 20
-68.17766399999954
 10
213.00871800000093
 20
-68.51497599999954
 10
212.77021200000092
 20
-68.85228799999952
 10
212.53170600000092
 20
-69.18959999999952
 10
212.29320000000095
 20
-69.52691199999951
 10
212.05469400000095
 20
-69.86422399999951
 10
211.81618800000095
 20
-70.20153599999949
 10
211.57768200000098
 20
-70.53884799999949
 10
211.33917600000098
 20
-70.87615999999949
 10
211.100670000001
 20
-71.21347199999948
 10
210.862164000001
 20
-71.55078399999947
 10
210.623658000001
 20
-71.88809599999946
 10
210.38515200000103
 20
-72.22540799999946
 10
210.14664600000103
 20
-72.56271999999946
 10
209.90814000000103
 20
-72.90003199999944
 10
209.66963400000105
 20
-73.23734399999944
 10
210.49030800000105
 20
-73.24318599999945
 10
211.31098200000105
 20
-73.24902799999946
 10
212.13165600000104
 20
-73.25486999999946
 10
212.95233000000104
 20
-73.26071199999947
 10
213.77300400000104
 20
-73.26655399999947
 10
214.59367800000103
 20
-73.27239599999947
 10
215.41435200000103
 20
-73.27823799999949
 10
216.23502600000103
 20
-73.28407999999949
 10
217.05570000000102
 20
-73.28992199999949
 10
217.87637400000102
 20
-73.29576399999951
 10
218.69704800000102
 20
-73.30160599999951
 10
219.51772200000102
 20
-73.30744799999951
 10
220.338396000001
 20
-73.31328999999953
 10
221.15907000000104
 20
-73.31913199999953
 10
221.97974400000103
 20
-73.32497399999953
 10
222.80041800000103
 20
-73.33081599999954
 10
223.62109200000103
 20
-73.33665799999955
 10
224.44176600000102
 20
-73.34249999999955
 10
225.26244000000102
 20
-73.34834199999956
 10
226.08311400000102
 20
-73.35418399999956
 10
226.90378800000101
 20
-73.36002599999958
 10
227.724462000001
 20
-73.36586799999958
 10
228.545136000001
 20
-73.37170999999958
 10
229.365810000001
 20
-73.3775519999996
 10
230.186484000001
 20
-73.3833939999996
 10
231.007158000001
 20
-73.3892359999996
 10
231.827832000001
 20
-73.39507799999961
 10
232.648506000001
 20
-73.40091999999962
 10
233.46918000000102
 20
-73.40676199999962
 10
234.28985400000101
 20
-73.41260399999963
 10
235.110528000001
 20
-73.41844599999963
 10
235.931202000001
 20
-73.42428799999963
 10
235.955840000001
 20
-73.39787199999965
 10
235.980478000001
 20
-73.37145599999965
 10
236.00511600000098
 20
-73.34503999999966
 10
236.029754000001
 20
-73.31862399999966
 10
236.05439200000097
 20
-73.29220799999966
 10
236.07903000000096
 20
-73.26579199999966
 10
236.10366800000097
 20
-73.23937599999967
 10
236.12830600000095
 20
-73.21295999999967
 10
236.15294400000096
 20
-73.18654399999967
 10
236.17758200000094
 20
-73.16012799999967
 10
236.20222000000095
 20
-73.13371199999968
 10
236.22685800000093
 20
-73.10729599999969
 10
236.25149600000094
 20
-73.0808799999997
 10
236.27613400000092
 20
-73.0544639999997
 10
236.30077200000093
 20
-73.0280479999997
 10
236.32541000000091
 20
-73.0016319999997
 10
236.35004800000092
 20
-72.9752159999997
 10
236.3746860000009
 20
-72.94879999999971
 10
236.39932400000092
 20
-72.92238399999971
 10
236.4239620000009
 20
-72.89596799999971
 10
236.44860000000088
 20
-72.86955199999971
 10
236.4732380000009
 20
-72.84313599999973
 10
236.49787600000087
 20
-72.81671999999973
 10
236.52251400000088
 20
-72.79030399999974
 10
236.54715200000086
 20
-72.76388799999974
 10
236.57179000000087
 20
-72.73747199999974
 10
236.59642800000086
 20
-72.71105599999974
 10
236.62106600000087
 20
-72.68463999999975
 10
236.64570400000085
 20
-72.65822399999975
 10
236.67034200000086
 20
-72.63180799999975
 10
236.69498000000084
 20
-72.60539199999975
 10
236.71961800000085
 20
-72.57897599999976
 10
236.76000400000083
 20
-72.53630399999976
 10
236.80115200000085
 20
-72.49490199999975
 10
236.84331600000087
 20
-72.45476999999975
 10
236.88649600000085
 20
-72.41565399999976
 10
236.93069200000085
 20
-72.37780799999976
 10
236.97565000000085
 20
-72.34123199999975
 10
237.02137000000084
 20
-72.30592599999976
 10
237.06810600000082
 20
-72.27188999999974
 10
237.11560400000084
 20
-72.23912399999975
 10
237.16386400000084
 20
-72.20762799999973
 10
237.21288600000085
 20
-72.17740199999973
 10
237.26267000000084
 20
-72.14844599999974
 10
237.31296200000085
 20
-72.12075999999973
 10
237.36401600000084
 20
-72.09434399999975
 10
237.41583200000085
 20
-72.06919799999974
 10
237.46815600000085
 20
-72.04557599999974
 10
237.52098800000084
 20
-72.02322399999974
 10
237.57458200000085
 20
-72.00214199999974
 10
237.62868400000082
 20
-71.98258399999973
 10
237.68329400000084
 20
-71.96429599999973
 10
237.73841200000084
 20
-71.94753199999974
 10
237.7937840000008
 20
-71.93203799999974
 10
237.84966400000081
 20
-71.91806799999974
 10
237.9060520000008
 20
-71.90536799999974
 10
237.96269400000082
 20
-71.89419199999975
 10
238.0198440000008
 20
-71.88453999999975
 10
238.07724800000082
 20
-71.87615799999973
 10
238.1349060000008
 20
-71.86929999999974
 10
238.19281800000078
 20
-71.86396599999973
 10
238.2509840000008
 20
-71.86015599999973
 10
238.30940400000082
 20
-71.85786999999974
 10
238.36807800000082
 20
-71.85710799999974
 10
238.6317300000008
 20
-71.85710799999974
 10
238.8953820000008
 20
-71.85710799999974
 10
239.15903400000082
 20
-71.85710799999974
 10
239.42268600000082
 20
-71.85710799999974
 10
239.68633800000083
 20
-71.85710799999974
 10
239.94999000000084
 20
-71.85710799999974
 10
240.21364200000082
 20
-71.85710799999974
 10
240.47729400000082
 20
-71.85710799999974
 10
240.74094600000083
 20
-71.85710799999974
 10
241.00459800000084
 20
-71.85710799999974
 10
241.26825000000085
 20
-71.85710799999974
 10
241.53190200000085
 20
-71.85710799999974
 10
241.79555400000083
 20
-71.85710799999974
 10
242.05920600000084
 20
-71.85710799999974
 10
242.32285800000085
 20
-71.85710799999974
 10
242.58651000000086
 20
-71.85710799999974
 10
242.85016200000086
 20
-71.85710799999974
 10
243.11381400000087
 20
-71.85710799999974
 10
243.37746600000085
 20
-71.85710799999974
 10
243.64111800000086
 20
-71.85710799999974
 10
243.90477000000087
 20
-71.85710799999974
 10
244.16842200000087
 20
-71.85710799999974
 10
244.43207400000088
 20
-71.85710799999974
 10
244.6957260000009
 20
-71.85710799999974
 10
244.95937800000087
 20
-71.85710799999974
 10
245.22303000000088
 20
-71.85710799999974
 10
245.48668200000088
 20
-71.85710799999974
 10
245.7503340000009
 20
-71.85710799999974
 10
246.0139860000009
 20
-71.85710799999974
 10
246.2776380000009
 20
-71.85710799999974
 10
246.54129000000088
 20
-71.85710799999974
 10
246.8049420000009
 20
-71.85710799999974
 10
246.86310800000092
 20
-71.85786999999974
 10
246.9210200000009
 20
-71.86015599999973
 10
246.9789320000009
 20
-71.86396599999973
 10
247.03659000000087
 20
-71.86929999999974
 10
247.09374000000088
 20
-71.87590399999974
 10
247.1506360000009
 20
-71.88403199999973
 10
247.20727800000088
 20
-71.89368399999974
 10
247.26366600000088
 20
-71.90460599999975
 10
247.31954600000088
 20
-71.91705199999973
 10
247.3751720000009
 20
-71.93102199999974
 10
247.4302900000009
 20
-71.94626199999973
 10
247.4849000000009
 20
-71.96302599999973
 10
247.5390020000009
 20
-71.98105999999974
 10
247.5925960000009
 20
-72.00036399999975
 10
247.64568200000087
 20
-72.02119199999974
 10
247.6982600000009
 20
-72.04328999999974
 10
247.7503300000009
 20
-72.06665799999973
 10
247.8016380000009
 20
-72.09129599999973
 10
247.85243800000092
 20
-72.11745799999973
 10
247.90247600000092
 20
-72.14488999999973
 10
247.95200600000092
 20
-72.17359199999973
 10
248.00077400000092
 20
-72.20356399999973
 10
248.0487800000009
 20
-72.23480599999974
 10
248.0960240000009
 20
-72.26731799999972
 10
248.1425060000009
 20
-72.30109999999972
 10
248.1882260000009
 20
-72.33589799999972
 10
248.23293000000092
 20
-72.37196599999972
 10
248.2768720000009
 20
-72.40930399999972
 10
248.3200520000009
 20
-72.44791199999972
 10
248.36221600000093
 20
-72.48753599999972
 10
248.40336400000092
 20
-72.52842999999972
 10
248.44349600000092
 20
-72.57059399999972
 10
248.46229200000093
 20
-72.5939619999997
 10
248.48083400000093
 20
-72.61732999999971
 10
248.4996300000009
 20
-72.6406979999997
 10
248.5184260000009
 20
-72.66406599999969
 10
248.53696800000088
 20
-72.6874339999997
 10
248.5557640000009
 20
-72.71080199999969
 10
248.57430600000086
 20
-72.7341699999997
 10
248.59310200000087
 20
-72.75753799999968
 10
248.61189800000085
 20
-72.78090599999967
 10
248.63044000000085
 20
-72.80427399999968
 10
248.64923600000083
 20
-72.82764199999967
 10
248.66777800000082
 20
-72.85100999999968
 10
248.6865740000008
 20
-72.87437799999967
 10
248.7053700000008
 20
-72.89774599999966
 10
248.7239120000008
 20
-72.92111399999966
 10
248.7427080000008
 20
-72.94448199999965
 10
248.76125000000079
 20
-72.96784999999964
 10
248.78004600000077
 20
-72.99121799999965
 10
248.79884200000075
 20
-73.01458599999964
 10
248.81738400000074
 20
-73.03795399999964
 10
248.83618000000075
 20
-73.06132199999963
 10
248.85472200000075
 20
-73.08468999999963
 10
248.87351800000073
 20
-73.10805799999963
 10
248.89206000000073
 20
-73.13142599999962
 10
248.9108560000007
 20
-73.15479399999961
 10
248.9296520000007
 20
-73.17816199999962
 10
248.94819400000068
 20
-73.20152999999961
 10
248.9669900000007
 20
-73.22489799999961
 10
248.9855320000007
 20
-73.2482659999996
 10
249.00432800000067
 20
-73.2716339999996
 10
249.02312400000065
 20
-73.2950019999996
 10
249.04166600000065
 20
-73.31836999999959
 10
249.05131800000066
 20
-73.33005399999959
 10
249.06147800000065
 20
-73.3414839999996
 10
249.07189200000064
 20
-73.35265999999959
 10
249.08256000000065
 20
-73.3635819999996
 10
249.09348200000068
 20
-73.3739959999996
 10
249.10465800000065
 20
-73.38415599999959
 10
249.11608800000064
 20
-73.3940619999996
 10
249.12777200000068
 20
-73.40345999999958
 10
249.13971000000066
 20
-73.41260399999959
 10
249.15190200000066
 20
-73.4214939999996
 10
249.16434800000067
 20
-73.4298759999996
 10
249.17704800000067
 20
-73.4380039999996
 10
249.18974800000063
 20
-73.4458779999996
 10
249.20270200000064
 20
-73.45324399999959
 10
249.21591000000066
 20
-73.46035599999959
 10
249.22937200000067
 20
-73.4669599999996
 10
249.24283400000067
 20
-73.4733099999996
 10
249.25655000000066
 20
-73.4791519999996
 10
249.27052000000063
 20
-73.4847399999996
 10
249.28449000000063
 20
-73.4898199999996
 10
249.29871400000064
 20
-73.49464599999959
 10
249.31319200000064
 20
-73.49896399999959
 10
249.32767000000064
 20
-73.5030279999996
 10
249.34214800000063
 20
-73.5065839999996
 10
249.35688000000064
 20
-73.5098859999996
 10
249.37161200000065
 20
-73.5126799999996
 10
249.38659800000065
 20
-73.5149659999996
 10
249.40158400000064
 20
-73.5169979999996
 10
249.41657000000063
 20
-73.51852199999959
 10
249.4318100000006
 20
-73.5195379999996
 10
249.4470500000006
 20
-73.5202999999996
 10
249.4622900000006
 20
-73.52055399999959
 10
249.94489000000058
 20
-73.5215699999996
 10
250.42749000000057
 20
-73.52258599999959
 10
250.91009000000057
 20
-73.5236019999996
 10
251.39269000000056
 20
-73.5246179999996
 10
251.87529000000055
 20
-73.52563399999961
 10
252.35789000000054
 20
-73.52664999999962
 10
252.84049000000053
 20
-73.52766599999963
 10
253.32309000000052
 20
-73.52868199999962
 10
253.80569000000054
 20
-73.52969799999963
 10
254.28829000000053
 20
-73.53071399999963
 10
254.77089000000052
 20
-73.53172999999964
 10
255.2534900000005
 20
-73.53274599999965
 10
255.7360900000005
 20
-73.53376199999965
 10
256.2186900000005
 20
-73.53477799999966
 10
256.7012900000005
 20
-73.53579399999965
 10
257.1838900000005
 20
-73.53680999999966
 10
257.66649000000046
 20
-73.53782599999967
 10
258.14909000000046
 20
-73.53884199999968
 10
258.63169000000045
 20
-73.53985799999968
 10
259.11429000000044
 20
-73.54087399999969
 10
259.5968900000005
 20
-73.5418899999997
 10
260.0794900000005
 20
-73.54290599999969
 10
260.56209000000047
 20
-73.5439219999997
 10
261.0446900000005
 20
-73.5449379999997
 10
261.5272900000005
 20
-73.54595399999971
 10
262.00989000000055
 20
-73.54696999999972
 10
262.49249000000054
 20
-73.54798599999972
 10
262.9750900000006
 20
-73.54900199999972
 10
263.45769000000064
 20
-73.55001799999972
 10
263.94029000000063
 20
-73.55103399999973
 10
264.4228900000007
 20
-73.55204999999974
 10
264.90549000000067
 20
-73.55306599999975
 10
265.0931960000007
 20
-73.29373199999974
 10
265.2809020000007
 20
-73.03439799999974
 10
265.4686080000007
 20
-72.77506399999973
 10
265.6563140000007
 20
-72.51572999999973
 10
265.84402000000074
 20
-72.25639599999973
 10
266.03172600000073
 20
-71.99706199999972
 10
266.2194320000007
 20
-71.73772799999972
 10
266.40713800000077
 20
-71.47839399999971
 10
266.59484400000076
 20
-71.21905999999971
 10
266.78255000000075
 20
-70.9597259999997
 10
266.9702560000008
 20
-70.7003919999997
 10
267.1579620000008
 20
-70.4410579999997
 10
267.3456680000008
 20
-70.18172399999969
 10
267.5333740000008
 20
-69.9223899999997
 10
267.7210800000008
 20
-69.66305599999968
 10
267.9087860000008
 20
-69.40372199999968
 10
268.0964920000008
 20
-69.14438799999968
 10
268.28419800000086
 20
-68.88505399999967
 10
268.47190400000085
 20
-68.62571999999967
 10
268.65961000000084
 20
-68.36638599999966
 10
268.84731600000083
 20
-68.10705199999967
 10
269.0350220000009
 20
-67.84771799999966
 10
269.22272800000087
 20
-67.58838399999965
 10
269.41043400000086
 20
-67.32904999999965
 10
269.5981400000009
 20
-67.06971599999964
 10
269.7858460000009
 20
-66.81038199999965
 10
269.9735520000009
 20
-66.55104799999964
 10
270.16125800000094
 20
-66.29171399999963
 10
270.34896400000093
 20
-66.03237999999963
 10
270.5366700000009
 20
-65.77304599999962
 10
270.7243760000009
 20
-65.51371199999963
 10
270.91208200000096
 20
-65.25437799999962
  0
LWPOLYLINE
  5
35
330
17
100
AcDbEntity
  8
0
100
AcDbPolyline
 90
129
 70
0
 10
297.3829460000009
 20
-66.60311799999963
 10
297.2231800000009
 20
-66.82181199999962
 10
297.063414000001
 20
-67.04050599999961
 10
296.903648000001
 20
-67.25919999999961
 10
296.743882000001
 20
-67.47789399999961
 10
296.584116000001
 20
-67.69658799999961
 10
296.4243500000011
 20
-67.9152819999996
 10
296.2645840000011
 20
-68.1339759999996
 10
296.1048180000011
 20
-68.3526699999996
 10
295.9450520000011
 20
-68.5713639999996
 10
295.7852860000012
 20
-68.79005799999959
 10
295.6255200000012
 20
-69.00875199999959
 10
295.4657540000012
 20
-69.22744599999959
 10
295.3059880000012
 20
-69.44613999999959
 10
295.1462220000013
 20
-69.66483399999959
 10
294.9864560000013
 20
-69.88352799999959
 10
294.8266900000013
 20
-70.10222199999959
 10
294.66692400000136
 20
-70.32091599999958
 10
294.50715800000137
 20
-70.53960999999957
 10
294.3473920000014
 20
-70.75830399999957
 10
294.1876260000014
 20
-70.97699799999957
 10
294.02786000000145
 20
-71.19569199999957
 10
293.86809400000146
 20
-71.41438599999957
 10
293.7083280000015
 20
-71.63307999999957
 10
293.5485620000015
 20
-71.85177399999957
 10
293.38879600000155
 20
-72.07046799999956
 10
293.22903000000156
 20
-72.28916199999955
 10
293.06926400000157
 20
-72.50785599999955
 10
292.9094980000016
 20
-72.72654999999955
 10
292.74973200000164
 20
-72.94524399999955
 10
292.58996600000165
 20
-73.16393799999955
 10
292.43020000000166
 20
-73.38263199999955
 10
292.27043400000167
 20
-73.60132599999955
 10
292.47363400000165
 20
-73.60183399999954
 10
292.6768340000017
 20
-73.60234199999954
 10
292.8800340000017
 20
-73.60284999999955
 10
293.08323400000165
 20
-73.60335799999955
 10
293.28643400000163
 20
-73.60386599999956
 10
293.4896340000016
 20
-73.60437399999955
 10
293.6928340000016
 20
-73.60488199999956
 10
293.8960340000016
 20
-73.60538999999956
 10
294.0992340000016
 20
-73.60589799999956
 10
294.3024340000016
 20
-73.60640599999957
 10
294.5056340000016
 20
-73.60691399999956
 10
294.70883400000156
 20
-73.60742199999957
 10
294.91203400000154
 20
-73.60792999999957
 10
295.1152340000015
 20
-73.60843799999958
 10
295.3184340000015
 20
-73.60894599999958
 10
295.5216340000015
 20
-73.60945399999957
 10
295.7248340000015
 20
-73.60996199999958
 10
295.9280340000015
 20
-73.61046999999958
 10
296.1312340000015
 20
-73.61097799999959
 10
296.33443400000147
 20
-73.61148599999959
 10
296.53763400000145
 20
-73.6119939999996
 10
296.7408340000014
 20
-73.6125019999996
 10
296.9440340000014
 20
-73.61300999999959
 10
297.1472340000014
 20
-73.6135179999996
 10
297.3504340000014
 20
-73.6140259999996
 10
297.5536340000014
 20
-73.61453399999961
 10
297.7568340000014
 20
-73.6150419999996
 10
297.9600340000014
 20
-73.61554999999962
 10
298.16323400000135
 20
-73.61605799999961
 10
298.36643400000133
 20
-73.61656599999961
 10
298.5696340000013
 20
-73.61707399999962
 10
298.7728340000013
 20
-73.61758199999962
 10
298.7728340000013
 20
-73.40066599999962
 10
298.7728340000013
 20
-73.18374999999962
 10
298.7728340000013
 20
-72.96683399999964
 10
298.7728340000013
 20
-72.74991799999964
 10
298.7728340000013
 20
-72.53300199999964
 10
298.7728340000013
 20
-72.31608599999964
 10
298.7728340000013
 20
-72.09916999999965
 10
298.7728340000013
 20
-71.88225399999965
 10
298.7728340000013
 20
-71.66533799999965
 10
298.7728340000013
 20
-71.44842199999965
 10
298.7728340000013
 20
-71.23150599999965
 10
298.7728340000013
 20
-71.01458999999966
 10
298.7728340000013
 20
-70.79767399999967
 10
298.7728340000013
 20
-70.58075799999968
 10
298.7728340000013
 20
-70.36384199999968
 10
298.7728340000013
 20
-70.14692599999968
 10
298.7728340000013
 20
-69.93000999999968
 10
298.7728340000013
 20
-69.71309399999969
 10
298.7728340000013
 20
-69.49617799999969
 10
298.7728340000013
 20
-69.27926199999969
 10
298.7728340000013
 20
-69.06234599999969
 10
298.7728340000013
 20
-68.8454299999997
 10
298.7728340000013
 20
-68.62851399999971
 10
298.7728340000013
 20
-68.41159799999971
 10
298.7728340000013
 20
-68.19468199999972
 10
298.7728340000013
 20
-67.97776599999972
 10
298.7728340000013
 20
-67.76084999999972
 10
298.7728340000013
 20
-67.54393399999972
 10
298.7728340000013
 20
-67.32701799999973
 10
298.7728340000013
 20
-67.11010199999973
 10
298.7728340000013
 20
-66.89318599999973
 10
298.7728340000013
 20
-66.67626999999975
 10
298.7294000000013
 20
-66.67398399999973
 10
298.6859660000013
 20
-66.67169799999974
 10
298.64253200000127
 20
-66.66941199999972
 10
298.5990980000013
 20
-66.66712599999973
 10
298.5556640000013
 20
-66.66483999999973
 10
298.51223000000124
 20
-66.66255399999972
 10
298.46879600000125
 20
-66.66026799999972
 10
298.4253620000012
 20
-66.6579819999997
 10
298.3819280000012
 20
-66.65569599999971
 10
298.3384940000012
 20
-66.65340999999971
 10
298.2950600000012
 20
-66.6511239999997
 10
298.2516260000012
 20
-66.6488379999997
 10
298.20819200000113
 20
-66.64655199999969
 10
298.16475800000114
 20
-66.64426599999969
 10
298.12132400000115
 20
-66.64197999999969
 10
298.0778900000011
 20
-66.63969399999968
 10
298.0344560000011
 20
-66.63740799999968
 10
297.9910220000011
 20
-66.63512199999967
 10
297.9475880000011
 20
-66.63283599999967
 10
297.9041540000011
 20
-66.63054999999967
 10
297.86072000000104
 20
-66.62826399999966
 10
297.81728600000105
 20
-66.62597799999966
 10
297.77385200000106
 20
-66.62369199999965
 10
297.730418000001
 20
-66.62140599999965
 10
297.686984000001
 20
-66.61911999999965
 10
297.64355000000097
 20
-66.61683399999964
 10
297.600116000001
 20
-66.61454799999964
 10
297.556682000001
 20
-66.61226199999963
 10
297.51324800000094
 20
-66.60997599999963
 10
297.46981400000095
 20
-66.60768999999964
 10
297.42638000000096
 20
-66.60540399999962
 10
297.3829460000009
 20
-66.60311799999963
  0
ENDSEC
  0
SECTION
  2
OBJECTS
  0
DICTIONARY
  5
A
330
0
100
AcDbDictionary
281
1
  3
ACAD_COLOR
350
B
  3
ACAD_GROUP
350
C
  3
ACAD_LAYOUT
350
D
  3
ACAD_MATERIAL
350
E
  3
ACAD_MLEADERSTYLE
350
F
  3
ACAD_MLINESTYLE
350
10
  3
ACAD_PLOTSETTINGS
350
11
  3
ACAD_PLOTSTYLENAME
350
12
  3
ACAD_SCALELIST
350
14
  3
ACAD_TABLESTYLE
350
15
  3
ACAD_VISUALSTYLE
350
16
  3
EZDXF_META
350
2D
  0
DICTIONARY
  5
B
330
A
100
AcDbDictionary
281
1
  0
DICTIONARY
  5
C
330
A
100
AcDbDictionary
281
1
  0
DICTIONARY
  5
D
330
A
100
AcDbDictionary
281
1
  3
Model
350
1A
  3
Layout1
350
1E
  0
DICTIONARY
  5
E
330
A
100
AcDbDictionary
281
1
  3
ByBlock
350
1F
  3
ByLayer
350
20
  3
Global
350
21
  0
DICTIONARY
  5
F
330
A
100
AcDbDictionary
281
1
  3
Standard
350
2C
  0
DICTIONARY
  5
10
330
A
100
AcDbDictionary
281
1
  3
Standard
350
22
  0
DICTIONARY
  5
11
330
A
100
AcDbDictionary
281
1
  0
ACDBDICTIONARYWDFLT
  5
12
330
A
100
AcDbDictionary
281
1
  3
Normal
350
13
100
AcDbDictionaryWithDefault
340
13
  0
ACDBPLACEHOLDER
  5
13
330
12
  0
DICTIONARY
  5
14
330
A
100
AcDbDictionary
281
1
  0
DICTIONARY
  5
15
330
A
100
AcDbDictionary
281
1
  0
DICTIONARY
  5
16
330
A
100
AcDbDictionary
281
1
  0
LAYOUT
  5
1A
330
D
100
AcDbPlotSettings
  1

  4
A3
  6

 40
7.5
 41
20.0
 42
7.5
 43
20.0
 44
420.0
 45
297.0
 46
0.0
 47
0.0
 48
0.0
 49
0.0
140
0.0
141
0.0
142
1.0
143
1.0
 70
1024
 72
1
 73
0
 74
5
  7

 75
16
 76
0
 77
2
 78
300
147
1.0
148
0.0
149
0.0
100
AcDbLayout
  1
Model
 70
1
 71
0
 10
0.0
 20
0.0
 11
420.0
 21
297.0
 12
0.0
 22
0.0
 32
0.0
 14
1e+20
 24
1e+20
 34
1e+20
 15
-1e+20
 25
-1e+20
 35
-1e+20
146
0.0
 13
0.0
 23
0.0
 33
0.0
 16
1.0
 26
0.0
 36
0.0
 17
0.0
 27
1.0
 37
0.0
 76
1
330
17
  0
LAYOUT
  5
1E
330
D
100
AcDbPlotSettings
  1

  4
A3
  6

 40
7.5
 41
20.0
 42
7.5
 43
20.0
 44
420.0
 45
297.0
 46
0.0
 47
0.0
 48
0.0
 49
0.0
140
0.0
141
0.0
142
1.0
143
1.0
 70
0
 72
1
 73
0
 74
5
  7

 75
16
 76
0
 77
2
 78
300
147
1.0
148
0.0
149
0.0
100
AcDbLayout
  1
Layout1
 70
1
 71
1
 10
0.0
 20
0.0
 11
420.0
 21
297.0
 12
0.0
 22
0.0
 32
0.0
 14
1e+20
 24
1e+20
 34
1e+20
 15
-1e+20
 25
-1e+20
 35
-1e+20
146
0.0
 13
0.0
 23
0.0
 33
0.0
 16
1.0
 26
0.0
 36
0.0
 17
0.0
 27
1.0
 37
0.0
 76
1
330
1B
  0
MATERIAL
  5
1F
102
{ACAD_REACTORS
330
E
102
}
330
E
100
AcDbMaterial
  1
ByBlock
  2

 70
0
 40
1.0
 71
1
 41
1.0
 91
-1023410177
 42
1.0
 72
1
  3

 73
1
 74
1
 75
1
 44
0.5
 73
0
 45
1.0
 46
1.0
 77
1
  4

 78
1
 79
1
170
1
 48
1.0
171
1
  6

172
1
173
1
174
1
140
1.0
141
1.0
175
1
  7

176
1
177
1
178
1
143
1.0
179
1
  8

270
1
271
1
272
1
145
1.0
146
1.0
273
1
  9

274
1
275
1
276
1
 42
1.0
 72
1
  3

 73
1
 74
1
 75
1
 94
63
  0
MATERIAL
  5
20
102
{ACAD_REACTORS
330
E
102
}
330
E
100
AcDbMaterial
  1
ByLayer
  2

 70
0
 40
1.0
 71
1
 41
1.0
 91
-1023410177
 42
1.0
 72
1
  3

 73
1
 74
1
 75
1
 44
0.5
 73
0
 45
1.0
 46
1.0
 77
1
  4

 78
1
 79
1
170
1
 48
1.0
171
1
  6

172
1
173
1
174
1
140
1.0
141
1.0
175
1
  7

176
1
177
1
178
1
143
1.0
179
1
  8

270
1
271
1
272
1
145
1.0
146
1.0
273
1
  9

274
1
275
1
276
1
 42
1.0
 72
1
  3

 73
1
 74
1
 75
1
 94
63
  0
MATERIAL
  5
21
102
{ACAD_REACTORS
330
E
102
}
330
E
100
AcDbMaterial
  1
Global
  2

 70
0
 40
1.0
 71
1
 41
1.0
 91
-1023410177
 42
1.0
 72
1
  3

 73
1
 74
1
 75
1
 44
0.5
 73
0
 45
1.0
 46
1.0
 77
1
  4

 78
1
 79
1
170
1
 48
1.0
171
1
  6

172
1
173
1
174
1
140
1.0
141
1.0
175
1
  7

176
1
177
1
178
1
143
1.0
179
1
  8

270
1
271
1
272
1
145
1.0
146
1.0
273
1
  9

274
1
275
1
276
1
 42
1.0
 72
1
  3

 73
1
 74
1
 75
1
 94
63
  0
MLINESTYLE
  5
22
102
{ACAD_REACTORS
330
10
102
}
330
10
100
AcDbMlineStyle
  2
Standard
 70
0
  3

 62
256
 51
90.0
 52
90.0
 71
2
 49
0.5
 62
256
  6
BYLAYER
 49
-0.5
 62
256
  6
BYLAYER
  0
MLEADERSTYLE
  5
2C
102
{ACAD_REACTORS
330
F
102
}
330
F
100
AcDbMLeaderStyle
179
2
170
2
171
1
172
0
 90
2
 40
0.0
 41
0.0
173
1
 91
-1056964608
 92
-2
290
1
 42
2.0
291
1
 43
8.0
  3
Standard
 44
4.0
300

342
29
174
1
175
1
176
0
178
1
 93
-1056964608
 45
4.0
292
0
297
0
 46
4.0
 94
-1056964608
 47
1.0
 49
1.0
140
1.0
294
1
141
0.0
177
0
142
1.0
295
0
296
0
143
3.75
271
0
272
9
273
9
  0
DICTIONARY
  5
2D
330
A
100
AcDbDictionary
280
1
281
1
  3
CREATED_BY_EZDXF
350
2E
  3
WRITTEN_BY_EZDXF
350
38
  0
DICTIONARYVAR
  5
2E
330
2D
100
DictionaryVariables
280
0
  1
1.4.3 @ 2026-04-08T01:02:29.417580+00:00
  0
DICTIONARYVAR
  5
38
330
2D
100
DictionaryVariables
280
0
  1
1.4.3 @ 2026-04-08T01:02:29.424101+00:00
  0
ENDSEC
  0
EOF
