  0
SECTION
  2
HEADER
  9
$ACADVER
  1
AC1024
  9
$ACADMAINTVER
 70
6
  9
$DWGCODEPAGE
  3
ANSI_1252
  9
$LASTSAVEDBY
  1
ezdxf
  9
$INSBASE
 10
0.0
 20
0.0
 30
0.0
  9
$EXTMIN
 10
1e+20
 20
1e+20
 30
1e+20
  9
$EXTMAX
 10
-1e+20
 20
-1e+20
 30
-1e+20
  9
$LIMMIN
 10
0.0
 20
0.0
  9
$LIMMAX
 10
420.0
 20
297.0
  9
$ORTHOMODE
 70
0
  9
$REGENMODE
 70
1
  9
$FILLMODE
 70
1
  9
$QTEXTMODE
 70
0
  9
$MIRRTEXT
 70
1
  9
$LTSCALE
 40
1.0
  9
$ATTMODE
 70
1
  9
$TEXTSIZE
 40
2.5
  9
$TRACEWID
 40
1.0
  9
$TEXTSTYLE
  7
Standard
  9
$CLAYER
  8
0
  9
$CELTYPE
  6
ByLayer
  9
$CECOLOR
 62
256
  9
$CELTSCALE
 40
1.0
  9
$DISPSILH
 70
0
  9
$DIMSCALE
 40
1.0
  9
$DIMASZ
 40
2.5
  9
$DIMEXO
 40
0.625
  9
$DIMDLI
 40
3.75
  9
$DIMRND
 40
0.0
  9
$DIMDLE
 40
0.0
  9
$DIMEXE
 40
1.25
  9
$DIMTP
 40
0.0
  9
$DIMTM
 40
0.0
  9
$DIMTXT
 40
2.5
  9
$DIMCEN
 40
2.5
  9
$DIMTSZ
 40
0.0
  9
$DIMTOL
 70
0
  9
$DIMLIM
 70
0
  9
$DIMTIH
 70
0
  9
$DIMTOH
 70
0
  9
$DIMSE1
 70
0
  9
$DIMSE2
 70
0
  9
$DIMTAD
 70
1
  9
$DIMZIN
 70
8
  9
$DIMBLK
  1

  9
$DIMASO
 70
1
  9
$DIMSHO
 70
1
  9
$DIMPOST
  1

  9
$DIMAPOST
  1

  9
$DIMALT
 70
0
  9
$DIMALTD
 70
3
  9
$DIMALTF
 40
0.03937007874
  9
$DIMLFAC
 40
1.0
  9
$DIMTOFL
 70
1
  9
$DIMTVP
 40
0.0
  9
$DIMTIX
 70
0
  9
$DIMSOXD
 70
0
  9
$DIMSAH
 70
0
  9
$DIMBLK1
  1

  9
$DIMBLK2
  1

  9
$DIMSTYLE
  2
ISO-25
  9
$DIMCLRD
 70
0
  9
$DIMCLRE
 70
0
  9
$DIMCLRT
 70
0
  9
$DIMTFAC
 40
1.0
  9
$DIMGAP
 40
0.625
  9
$DIMJUST
 70
0
  9
$DIMSD1
 70
0
  9
$DIMSD2
 70
0
  9
$DIMTOLJ
 70
0
  9
$DIMTZIN
 70
8
  9
$DIMALTZ
 70
0
  9
$DIMALTTZ
 70
0
  9
$DIMUPT
 70
0
  9
$DIMDEC
 70
2
  9
$DIMTDEC
 70
2
  9
$DIMALTU
 70
2
  9
$DIMALTTD
 70
3
  9
$DIMTXSTY
  7
Standard
  9
$DIMAUNIT
 70
0
  9
$DIMADEC
 70
0
  9
$DIMALTRND
 40
0.0
  9
$DIMAZIN
 70
0
  9
$DIMDSEP
 70
44
  9
$DIMATFIT
 70
3
  9
$DIMFRAC
 70
0
  9
$DIMLDRBLK
  1

  9
$DIMLUNIT
 70
2
  9
$DIMLWD
 70
-2
  9
$DIMLWE
 70
-2
  9
$DIMTMOVE
 70
0
  9
$DIMFXL
 40
1.0
  9
$DIMFXLON
 70
0
  9
$DIMJOGANG
 40
0.785398163397
  9
$DIMTFILL
 70
0
  9
$DIMTFILLCLR
 70
0
  9
$DIMARCSYM
 70
0
  9
$DIMLTYPE
  6

  9
$DIMLTEX1
  6

  9
$DIMLTEX2
  6

  9
$DIMTXTDIRECTION
 70
0
  9
$LUNITS
 70
2
  9
$LUPREC
 70
4
  9
$SKETCHINC
 40
1.0
  9
$FILLETRAD
 40
10.0
  9
$AUNITS
 70
0
  9
$AUPREC
 70
2
  9
$MENU
  1
.
  9
$ELEVATION
 40
0.0
  9
$PELEVATION
 40
0.0
  9
$THICKNESS
 40
0.0
  9
$LIMCHECK
 70
0
  9
$CHAMFERA
 40
0.0
  9
$CHAMFERB
 40
0.0
  9
$CHAMFERC
 40
0.0
  9
$CHAMFERD
 40
0.0
  9
$SKPOLY
 70
0
  9
$TDCREATE
 40
2461138.751712963
  9
$TDUCREATE
 40
2458532.153996898
  9
$TDUPDATE
 40
2461138.751712963
  9
$TDUUPDATE
 40
2458532.1544311
  9
$TDINDWG
 40
0.0
  9
$TDUSRTIMER
 40
0.0
  9
$USRTIMER
 70
1
  9
$ANGBASE
 50
0.0
  9
$ANGDIR
 70
0
  9
$PDMODE
 70
0
  9
$PDSIZE
 40
0.0
  9
$PLINEWID
 40
0.0
  9
$SPLFRAME
 70
0
  9
$SPLINETYPE
 70
6
  9
$SPLINESEGS
 70
8
  9
$HANDSEED
  5
3B
  9
$SURFTAB1
 70
6
  9
$SURFTAB2
 70
6
  9
$SURFTYPE
 70
6
  9
$SURFU
 70
6
  9
$SURFV
 70
6
  9
$UCSBASE
  2

  9
$UCSNAME
  2

  9
$UCSORG
 10
0.0
 20
0.0
 30
0.0
  9
$UCSXDIR
 10
1.0
 20
0.0
 30
0.0
  9
$UCSYDIR
 10
0.0
 20
1.0
 30
0.0
  9
$UCSORTHOREF
  2

  9
$UCSORTHOVIEW
 70
0
  9
$UCSORGTOP
 10
0.0
 20
0.0
 30
0.0
  9
$UCSORGBOTTOM
 10
0.0
 20
0.0
 30
0.0
  9
$UCSORGLEFT
 10
0.0
 20
0.0
 30
0.0
  9
$UCSORGRIGHT
 10
0.0
 20
0.0
 30
0.0
  9
$UCSORGFRONT
 10
0.0
 20
0.0
 30
0.0
  9
$UCSORGBACK
 10
0.0
 20
0.0
 30
0.0
  9
$PUCSBASE
  2

  9
$PUCSNAME
  2

  9
$PUCSORG
 10
0.0
 20
0.0
 30
0.0
  9
$PUCSXDIR
 10
1.0
 20
0.0
 30
0.0
  9
$PUCSYDIR
 10
0.0
 20
1.0
 30
0.0
  9
$PUCSORTHOREF
  2

  9
$PUCSORTHOVIEW
 70
0
  9
$PUCSORGTOP
 10
0.0
 20
0.0
 30
0.0
  9
$PUCSORGBOTTOM
 10
0.0
 20
0.0
 30
0.0
  9
$PUCSORGLEFT
 10
0.0
 20
0.0
 30
0.0
  9
$PUCSORGRIGHT
 10
0.0
 20
0.0
 30
0.0
  9
$PUCSORGFRONT
 10
0.0
 20
0.0
 30
0.0
  9
$PUCSORGBACK
 10
0.0
 20
0.0
 30
0.0
  9
$USERI1
 70
0
  9
$USERI2
 70
0
  9
$USERI3
 70
0
  9
$USERI4
 70
0
  9
$USERI5
 70
0
  9
$USERR1
 40
0.0
  9
$USERR2
 40
0.0
  9
$USERR3
 40
0.0
  9
$USERR4
 40
0.0
  9
$USERR5
 40
0.0
  9
$WORLDVIEW
 70
1
  9
$SHADEDGE
 70
3
  9
$SHADEDIF
 70
70
  9
$TILEMODE
 70
1
  9
$MAXACTVP
 70
64
  9
$PINSBASE
 10
0.0
 20
0.0
 30
0.0
  9
$PLIMCHECK
 70
0
  9
$PEXTMIN
 10
1e+20
 20
1e+20
 30
1e+20
  9
$PEXTMAX
 10
-1e+20
 20
-1e+20
 30
-1e+20
  9
$PLIMMIN
 10
0.0
 20
0.0
  9
$PLIMMAX
 10
420.0
 20
297.0
  9
$UNITMODE
 70
0
  9
$VISRETAIN
 70
1
  9
$PLINEGEN
 70
0
  9
$PSLTSCALE
 70
1
  9
$TREEDEPTH
 70
3020
  9
$CMLSTYLE
  2
Standard
  9
$CMLJUST
 70
0
  9
$CMLSCALE
 40
20.0
  9
$PROXYGRAPHICS
 70
1
  9
$MEASUREMENT
 70
1
  9
$CELWEIGHT
370
-1
  9
$ENDCAPS
280
0
  9
$JOINSTYLE
280
0
  9
$LWDISPLAY
290
0
  9
$INSUNITS
 70
6
  9
$HYPERLINKBASE
  1

  9
$STYLESHEET
  1

  9
$XEDIT
290
1
  9
$CEPSNTYPE
380
0
  9
$PSTYLEMODE
290
1
  9
$FINGERPRINTGUID
  2
{66DC851F-7AD4-4053-9427-126C6EC8574C}
  9
$VERSIONGUID
  2
{C0D1D494-AD64-41C2-9C62-804F124221B2}
  9
$EXTNAMES
290
1
  9
$PSVPSCALE
 40
0.0
  9
$OLESTARTUP
290
0
  9
$SORTENTS
280
127
  9
$INDEXCTL
280
0
  9
$HIDETEXT
280
1
  9
$XCLIPFRAME
280
1
  9
$HALOGAP
280
0
  9
$OBSCOLOR
 70
257
  9
$OBSLTYPE
280
0
  9
$INTERSECTIONDISPLAY
280
0
  9
$INTERSECTIONCOLOR
 70
257
  9
$DIMASSOC
280
2
  9
$PROJECTNAME
  1

  9
$CAMERADISPLAY
290
0
  9
$LENSLENGTH
 40
50.0
  9
$CAMERAHEIGHT
 40
0.0
  9
$STEPSPERSEC
 40
24.0
  9
$STEPSIZE
 40
100.0
  9
$3DDWFPREC
 40
2.0
  9
$PSOLWIDTH
 40
0.005
  9
$PSOLHEIGHT
 40
0.08
  9
$LOFTANG1
 40
1.570796326795
  9
$LOFTANG2
 40
1.570796326795
  9
$LOFTMAG1
 40
0.0
  9
$LOFTMAG2
 40
0.0
  9
$LOFTPARAM
 70
7
  9
$LOFTNORMALS
280
1
  9
$LATITUDE
 40
37.795
  9
$LONGITUDE
 40
-122.394
  9
$NORTHDIRECTION
 40
0.0
  9
$TIMEZONE
 70
-8000
  9
$LIGHTGLYPHDISPLAY
280
1
  9
$TILEMODELIGHTSYNCH
280
1
  9
$CMATERIAL
347
20
  9
$SOLIDHIST
280
0
  9
$SHOWHIST
280
1
  9
$DWFFRAME
280
2
  9
$DGNFRAME
280
2
  9
$REALWORLDSCALE
290
1
  9
$INTERFERECOLOR
 62
256
  9
$CSHADOW
280
0
  9
$SHADOWPLANELOCATION
 40
0.0
  0
ENDSEC
  0
SECTION
  2
CLASSES
  0
CLASS
  1
ACDBDICTIONARYWDFLT
  2
AcDbDictionaryWithDefault
  3
ObjectDBX Classes
 90
0
 91
0
280
0
281
0
  0
CLASS
  1
SUN
  2
AcDbSun
  3
SCENEOE
 90
1153
 91
0
280
0
281
0
  0
CLASS
  1
VISUALSTYLE
  2
AcDbVisualStyle
  3
ObjectDBX Classes
 90
4095
 91
0
280
0
281
0
  0
CLASS
  1
MATERIAL
  2
AcDbMaterial
  3
ObjectDBX Classes
 90
1153
 91
0
280
0
281
0
  0
CLASS
  1
SCALE
  2
AcDbScale
  3
ObjectDBX Classes
 90
1153
 91
0
280
0
281
0
  0
CLASS
  1
TABLESTYLE
  2
AcDbTableStyle
  3
ObjectDBX Classes
 90
4095
 91
0
280
0
281
0
  0
CLASS
  1
MLEADERSTYLE
  2
AcDbMLeaderStyle
  3
ACDB_MLEADERSTYLE_CLASS
 90
4095
 91
0
280
0
281
0
  0
CLASS
  1
DICTIONARYVAR
  2
AcDbDictionaryVar
  3
ObjectDBX Classes
 90
0
 91
0
280
0
281
0
  0
CLASS
  1
CELLSTYLEMAP
  2
AcDbCellStyleMap
  3
ObjectDBX Classes
 90
1152
 91
0
280
0
281
0
  0
CLASS
  1
MENTALRAYRENDERSETTINGS
  2
AcDbMentalRayRenderSettings
  3
SCENEOE
 90
1024
 91
0
280
0
281
0
  0
CLASS
  1
ACDBDETAILVIEWSTYLE
  2
AcDbDetailViewStyle
  3
ObjectDBX Classes
 90
1025
 91
0
280
0
281
0
  0
CLASS
  1
ACDBSECTIONVIEWSTYLE
  2
AcDbSectionViewStyle
  3
ObjectDBX Classes
 90
1025
 91
0
280
0
281
0
  0
CLASS
  1
RASTERVARIABLES
  2
AcDbRasterVariables
  3
ISM
 90
0
 91
0
280
0
281
0
  0
CLASS
  1
LAYOUT
  2
AcDbLayout
  3
ObjectDBX Classes
 90
0
 91
0
280
0
281
0
  0
CLASS
  1
ACDBPLACEHOLDER
  2
AcDbPlaceHolder
  3
ObjectDBX Classes
 90
0
 91
0
280
0
281
0
  0
ENDSEC
  0
SECTION
  2
TABLES
  0
TABLE
  2
VPORT
  5
8
330
0
100
AcDbSymbolTable
 70
1
  0
VPORT
  5
23
330
8
100
AcDbSymbolTableRecord
100
AcDbViewportTableRecord
  2
*Active
 70
0
 10
0.0
 20
0.0
 11
1.0
 21
1.0
 12
0.0
 22
0.0
 13
0.0
 23
0.0
 14
0.5
 24
0.5
 15
0.5
 25
0.5
 16
0.0
 26
0.0
 36
1.0
 17
0.0
 27
0.0
 37
0.0
 40
1000.0
 41
1.34
 42
50.0
 43
0.0
 44
0.0
 50
0.0
 51
0.0
 71
0
 72
1000
 73
1
 74
3
 75
0
 76
0
 77
0
 78
0
281
0
 65
0
146
0.0
  0
ENDTAB
  0
TABLE
  2
LTYPE
  5
2
330
0
100
AcDbSymbolTable
 70
3
  0
LTYPE
  5
24
330
2
100
AcDbSymbolTableRecord
100
AcDbLinetypeTableRecord
  2
ByBlock
 70
0
  3

 72
65
 73
0
 40
0.0
  0
LTYPE
  5
25
330
2
100
AcDbSymbolTableRecord
100
AcDbLinetypeTableRecord
  2
ByLayer
 70
0
  3

 72
65
 73
0
 40
0.0
  0
LTYPE
  5
26
330
2
100
AcDbSymbolTableRecord
100
AcDbLinetypeTableRecord
  2
Continuous
 70
0
  3

 72
65
 73
0
 40
0.0
  0
ENDTAB
  0
TABLE
  2
LAYER
  5
1
330
0
100
AcDbSymbolTable
 70
2
  0
LAYER
  5
27
330
1
100
AcDbSymbolTableRecord
100
AcDbLayerTableRecord
  2
0
 70
0
 62
7
  6
Continuous
370
-3
390
13
347
21
  0
LAYER
  5
28
330
1
100
AcDbSymbolTableRecord
100
AcDbLayerTableRecord
  2
Defpoints
 70
0
 62
7
  6
Continuous
290
0
370
-3
390
13
347
21
  0
ENDTAB
  0
TABLE
  2
STYLE
  5
5
330
0
100
AcDbSymbolTable
 70
1
  0
STYLE
  5
29
330
5
100
AcDbSymbolTableRecord
100
AcDbTextStyleTableRecord
  2
Standard
 70
0
 40
0.0
 41
1.0
 50
0.0
 71
0
 42
2.5
  3
txt
  4

  0
ENDTAB
  0
TABLE
  2
VIEW
  5
7
330
0
100
AcDbSymbolTable
 70
0
  0
ENDTAB
  0
TABLE
  2
UCS
  5
6
330
0
100
AcDbSymbolTable
 70
0
  0
ENDTAB
  0
TABLE
  2
APPID
  5
3
330
0
100
AcDbSymbolTable
 70
3
  0
APPID
  5
2A
330
3
100
AcDbSymbolTableRecord
100
AcDbRegAppTableRecord
  2
ACAD
 70
0
  0
APPID
  5
38
330
3
100
AcDbSymbolTableRecord
100
AcDbRegAppTableRecord
  2
HATCHBACKGROUNDCOLOR
 70
0
  0
APPID
  5
39
330
3
100
AcDbSymbolTableRecord
100
AcDbRegAppTableRecord
  2
EZDXF
 70
0
  0
ENDTAB
  0
TABLE
  2
DIMSTYLE
  5
4
330
0
100
AcDbSymbolTable
 70
1
100
AcDbDimStyleTable
  0
DIMSTYLE
105
2B
330
4
100
AcDbSymbolTableRecord
100
AcDbDimStyleTableRecord
  2
Standard
 70
0
 40
1.0
 41
2.5
 42
0.625
 43
3.75
 44
1.25
 45
0.0
 46
0.0
 47
0.0
 48
0.0
 49
2.5
140
2.5
141
2.5
142
0.0
143
0.03937007874
144
1.0
145
0.0
146
1.0
147
0.625
148
0.0
 69
0
 70
0
 71
0
 72
0
 73
0
 74
0
 75
0
 76
0
 77
1
 78
8
 79
3
170
0
171
3
172
1
173
0
174
0
175
0
176
0
177
0
178
0
179
2
271
2
272
2
273
2
274
3
275
0
276
0
277
2
278
44
279
0
280
0
281
0
282
0
283
0
284
8
285
0
286
0
288
0
289
3
290
0
371
-2
372
-2
  0
ENDTAB
  0
TABLE
  2
BLOCK_RECORD
  5
9
330
0
100
AcDbSymbolTable
 70
2
  0
BLOCK_RECORD
  5
17
330
9
100
AcDbSymbolTableRecord
100
AcDbBlockTableRecord
  2
*Model_Space
340
1A
 70
0
280
1
281
0
  0
BLOCK_RECORD
  5
1B
330
9
100
AcDbSymbolTableRecord
100
AcDbBlockTableRecord
  2
*Paper_Space
340
1E
 70
0
280
1
281
0
  0
ENDTAB
  0
ENDSEC
  0
SECTION
  2
BLOCKS
  0
BLOCK
  5
18
330
17
100
AcDbEntity
  8
0
100
AcDbBlockBegin
  2
*Model_Space
 70
0
 10
0.0
 20
0.0
 30
0.0
  3
*Model_Space
  1

  0
ENDBLK
  5
19
330
17
100
AcDbEntity
  8
0
100
AcDbBlockEnd
  0
BLOCK
  5
1C
330
1B
100
AcDbEntity
  8
0
100
AcDbBlockBegin
  2
*Paper_Space
 70
0
 10
0.0
 20
0.0
 30
0.0
  3
*Paper_Space
  1

  0
ENDBLK
  5
1D
330
1B
100
AcDbEntity
  8
0
100
AcDbBlockEnd
  0
ENDSEC
  0
SECTION
  2
ENTITIES
  0
LWPOLYLINE
  5
2F
330
17
100
AcDbEntity
  8
0
100
AcDbPolyline
 90
545
 70
0
 10
175.07585
 20
-91.474798
 10
175.123856
 20
-91.34246399999999
 10
175.17313199999998
 20
-91.209368
 10
175.22367799999998
 20
-91.07576399999999
 10
175.27549399999995
 20
-90.941906
 10
175.32883399999997
 20
-90.808048
 10
175.38369799999995
 20
-90.674444
 10
175.44008599999995
 20
-90.541348
 10
175.49825199999998
 20
-90.409014
 10
175.55819599999998
 20
-90.27769599999999
 10
175.62017199999997
 20
-90.147394
 10
175.68417999999997
 20
-90.018616
 10
175.75021999999996
 20
-89.891616
 10
175.81829199999996
 20
-89.766394
 10
175.88864999999998
 20
-89.64345800000001
 10
175.961548
 20
-89.522808
 10
176.03698599999998
 20
-89.40469800000001
 10
176.114964
 20
-89.28963600000002
 10
176.195482
 20
-89.17762200000001
 10
176.278794
 20
-89.06891000000002
 10
176.3649
 20
-88.96375400000002
 10
176.454054
 20
-88.86240800000003
 10
176.546002
 20
-88.76512600000002
 10
176.641252
 20
-88.67241600000003
 10
176.73954999999998
 20
-88.58402400000003
 10
176.84114999999997
 20
-88.50045800000002
 10
176.94630599999996
 20
-88.42197200000001
 10
177.05476399999998
 20
-88.34882000000002
 10
177.166778
 20
-88.28125600000001
 10
177.282602
 20
-88.21928
 10
177.402236
 20
-88.1634
 10
177.52568
 20
-88.11386999999999
 10
177.652934
 20
-88.07068999999998
 10
177.72608599999998
 20
-88.049354
 10
177.799492
 20
-88.03055799999998
 10
177.873406
 20
-88.01404799999999
 10
177.947574
 20
-87.99982399999999
 10
178.021996
 20
-87.98788599999999
 10
178.096672
 20
-87.97823399999999
 10
178.171348
 20
-87.97061399999998
 10
178.246278
 20
-87.965026
 10
178.321462
 20
-87.961216
 10
178.39690000000002
 20
-87.959184
 10
178.472338
 20
-87.95893000000001
 10
178.54803
 20
-87.960454
 10
178.62372200000001
 20
-87.96350199999999
 10
178.69941400000002
 20
-87.96807399999999
 10
178.77536
 20
-87.973916
 10
178.851306
 20
-87.981282
 10
178.927252
 20
-87.98991799999999
 10
179.003198
 20
-87.99956999999999
 10
179.07914399999999
 20
-88.010492
 10
179.15508999999997
 20
-88.02243
 10
179.231036
 20
-88.03538400000001
 10
179.30698199999998
 20
-88.0491
 10
179.38267399999998
 20
-88.06357799999999
 10
179.45836599999998
 20
-88.078818
 10
179.53380399999998
 20
-88.094566
 10
179.609242
 20
-88.111076
 10
179.684426
 20
-88.128094
 10
179.75961
 20
-88.145366
 10
179.83454
 20
-88.162892
 10
179.909216
 20
-88.180672
 10
179.98363799999998
 20
-88.19870600000002
 10
180.057806
 20
-88.21674000000002
 10
180.351176
 20
-88.288368
 10
180.644546
 20
-88.35999600000001
 10
180.93791599999997
 20
-88.431624
 10
181.23128599999998
 20
-88.503252
 10
181.52465599999996
 20
-88.57488
 10
181.81802599999997
 20
-88.64650799999998
 10
182.11139599999996
 20
-88.71813599999999
 10
182.40476599999994
 20
-88.78976399999998
 10
182.69813599999995
 20
-88.86139199999998
 10
182.99150599999993
 20
-88.93301999999997
 10
183.28487599999994
 20
-89.00464799999996
 10
183.57824599999992
 20
-89.07627599999996
 10
183.8716159999999
 20
-89.14790399999995
 10
184.1649859999999
 20
-89.21953199999996
 10
184.4583559999999
 20
-89.29115999999995
 10
184.7517259999999
 20
-89.36278799999994
 10
185.0450959999999
 20
-89.43441599999994
 10
185.33846599999987
 20
-89.50604399999993
 10
185.63183599999988
 20
-89.57767199999994
 10
185.92520599999986
 20
-89.64929999999993
 10
186.21857599999987
 20
-89.72092799999992
 10
186.51194599999985
 20
-89.79255599999992
 10
186.80531599999983
 20
-89.86418399999991
 10
187.09868599999984
 20
-89.93581199999991
 10
187.39205599999983
 20
-90.0074399999999
 10
187.68542599999984
 20
-90.07906799999989
 10
187.97879599999982
 20
-90.1506959999999
 10
188.2721659999998
 20
-90.22232399999989
 10
188.5655359999998
 20
-90.29395199999989
 10
188.8589059999998
 20
-90.36557999999988
 10
189.1522759999998
 20
-90.43720799999987
 10
189.44564599999978
 20
-90.50883599999987
 10
189.66230799999977
 20
-90.56217599999987
 10
189.87998599999978
 20
-90.61627799999987
 10
190.09817199999978
 20
-90.67139599999987
 10
190.31661199999976
 20
-90.72778399999986
 10
190.53530599999976
 20
-90.78544199999986
 10
190.75399999999976
 20
-90.84487799999985
 10
190.97243999999978
 20
-90.90609199999984
 10
191.19037199999977
 20
-90.96933799999985
 10
191.40754199999978
 20
-91.03486999999986
 10
191.62394999999975
 20
-91.10294199999984
 10
191.83934199999976
 20
-91.17355399999985
 10
192.05346399999974
 20
-91.24721399999986
 10
192.26606199999975
 20
-91.32392199999985
 10
192.47688199999973
 20
-91.40393199999986
 10
192.68592399999974
 20
-91.48749799999986
 10
192.89267999999973
 20
-91.57461999999987
 10
193.09714999999971
 20
-91.66580599999986
 10
193.29907999999972
 20
-91.76105599999985
 10
193.4982159999997
 20
-91.86062399999986
 10
193.69455799999972
 20
-91.96476399999986
 10
193.8878519999997
 20
-92.07372999999986
 10
194.0775899999997
 20
-92.18752199999986
 10
194.26377199999968
 20
-92.30639399999986
 10
194.4463979999997
 20
-92.43085399999985
 10
194.62495999999967
 20
-92.56064799999987
 10
194.7994579999997
 20
-92.69628399999986
 10
194.96938399999968
 20
-92.83801599999987
 10
195.1347379999997
 20
-92.98584399999986
 10
195.2955199999997
 20
-93.14002199999987
 10
195.4512219999997
 20
-93.30080399999986
 10
195.6015899999997
 20
-93.46844399999986
 10
195.7466239999997
 20
-93.64319599999986
 10
195.9168039999997
 20
-93.86722399999987
 10
196.0750459999997
 20
-94.09709399999986
 10
196.22185799999968
 20
-94.33280599999986
 10
196.3574939999997
 20
-94.57410599999986
 10
196.4822079999997
 20
-94.82048599999986
 10
196.59650799999972
 20
-95.07194599999987
 10
196.7006479999997
 20
-95.32797799999986
 10
196.7948819999997
 20
-95.58858199999986
 10
196.87971799999968
 20
-95.85324999999986
 10
196.9554099999997
 20
-96.12172799999986
 10
197.02246599999967
 20
-96.39376199999987
 10
197.08113999999966
 20
-96.66935199999986
 10
197.13168599999966
 20
-96.94798999999986
 10
197.17461199999966
 20
-97.22942199999986
 10
197.21017199999966
 20
-97.51339399999986
 10
197.23861999999966
 20
-97.79965199999987
 10
197.26046399999964
 20
-98.08794199999986
 10
197.27595799999966
 20
-98.37775599999986
 10
197.28535599999967
 20
-98.66909399999986
 10
197.28916599999965
 20
-98.96170199999986
 10
197.28764199999966
 20
-99.25507199999986
 10
197.28129199999967
 20
-99.54920399999985
 10
197.27036999999967
 20
-99.84384399999986
 10
197.2551299999997
 20
-100.13848399999986
 10
197.23607999999967
 20
-100.43312399999988
 10
197.21347399999968
 20
-100.72725599999988
 10
197.18756599999966
 20
-101.02062599999987
 10
197.15886399999965
 20
-101.31297999999987
 10
197.12762199999963
 20
-101.60431799999986
 10
197.09434799999966
 20
-101.89413199999987
 10
197.05904199999966
 20
-102.18216799999988
 10
197.02246599999964
 20
-102.46817199999987
 10
196.90105399999968
 20
-103.37723799999988
 10
196.77913399999966
 20
-104.25556999999988
 10
196.65619799999965
 20
-105.10469199999989
 10
196.53199199999963
 20
-105.92688999999989
 10
196.40600799999964
 20
-106.72419599999989
 10
196.27799199999964
 20
-107.49838799999989
 10
196.14768999999964
 20
-108.25149799999988
 10
196.01484799999963
 20
-108.98530399999989
 10
195.87921199999963
 20
-109.7020919999999
 10
195.74027399999963
 20
-110.4036399999999
 10
195.5977799999996
 20
-111.0919799999999
 10
195.45147599999962
 20
-111.76914399999988
 10
195.30085399999962
 20
-112.4369099999999
 10
195.1459139999996
 20
-113.0973099999999
 10
194.9858939999996
 20
-113.7523759999999
 10
194.8207939999996
 20
-114.4041399999999
 10
194.6503599999996
 20
-115.0546339999999
 10
194.4740839999996
 20
-115.70563599999988
 10
194.29171199999962
 20
-116.35917799999987
 10
194.10273599999962
 20
-117.01729199999988
 10
193.90690199999963
 20
-117.68200999999989
 10
193.70420999999962
 20
-118.35510999999988
 10
193.49389799999963
 20
-119.03862399999987
 10
193.27596599999964
 20
-119.73458399999987
 10
193.04990599999965
 20
-120.44502199999988
 10
192.81546399999965
 20
-121.17171599999988
 10
192.57238599999965
 20
-121.91669799999988
 10
192.32041799999968
 20
-122.68199999999987
 10
192.05905199999967
 20
-123.46965399999988
 10
191.78803399999967
 20
-124.28143799999988
 10
191.50685599999966
 20
-125.11938399999987
 10
191.21551799999966
 20
-125.98552399999988
 10
191.17462399999968
 20
-126.09906199999988
 10
191.12966599999967
 20
-126.21005999999988
 10
191.08064399999967
 20
-126.31826399999989
 10
191.02781199999967
 20
-126.42367399999989
 10
190.9711699999997
 20
-126.52628999999989
 10
190.91071799999966
 20
-126.62585799999988
 10
190.8467099999997
 20
-126.72237799999988
 10
190.77914599999968
 20
-126.81584999999988
 10
190.7082799999997
 20
-126.90601999999988
 10
190.6341119999997
 20
-126.99288799999988
 10
190.5568959999997
 20
-127.07645399999988
 10
190.47663199999968
 20
-127.15646399999989
 10
190.3935739999997
 20
-127.23291799999988
 10
190.3077219999997
 20
-127.30581599999988
 10
190.2193299999997
 20
-127.37490399999987
 10
190.12839799999972
 20
-127.44018199999988
 10
190.0349259999997
 20
-127.50164999999988
 10
189.9391679999997
 20
-127.55930799999987
 10
189.84112399999972
 20
-127.61290199999988
 10
189.74104799999972
 20
-127.66217799999988
 10
189.6389399999997
 20
-127.70738999999988
 10
189.53505399999972
 20
-127.74828399999988
 10
189.4293899999997
 20
-127.78485999999988
 10
189.3222019999997
 20
-127.81686399999987
 10
189.2134899999997
 20
-127.84454999999987
 10
189.1035079999997
 20
-127.86740999999986
 10
188.9922559999997
 20
-127.88569799999986
 10
188.8797339999997
 20
-127.89915999999987
 10
188.7661959999997
 20
-127.90779599999986
 10
188.6516419999997
 20
-127.91160599999986
 10
188.53632599999972
 20
-127.91033599999986
 10
188.42050199999971
 20
-127.90398599999986
 10
188.39383199999972
 20
-127.90195399999988
 10
188.3671619999997
 20
-127.89992199999988
 10
188.3404919999997
 20
-127.89788999999988
 10
188.3138219999997
 20
-127.89585799999988
 10
188.28715199999968
 20
-127.89382599999989
 10
188.26048199999968
 20
-127.89179399999989
 10
188.2338119999997
 20
-127.88976199999989
 10
188.20714199999966
 20
-127.8877299999999
 10
188.18047199999967
 20
-127.8856979999999
 10
188.15380199999967
 20
-127.8836659999999
 10
188.12713199999965
 20
-127.88163399999992
 10
188.10046199999965
 20
-127.87960199999992
 10
188.07379199999966
 20
-127.87756999999992
 10
188.04712199999963
 20
-127.87553799999993
 10
188.02045199999964
 20
-127.87350599999994
 10
187.99378199999964
 20
-127.87147399999994
 10
187.96711199999964
 20
-127.86944199999995
 10
187.94044199999962
 20
-127.86740999999995
 10
187.9140259999996
 20
-127.86537799999995
 10
187.8876099999996
 20
-127.86334599999996
 10
187.86119399999959
 20
-127.86131399999996
 10
187.83477799999957
 20
-127.85928199999996
 10
187.80836199999956
 20
-127.85724999999998
 10
187.78194599999955
 20
-127.85521799999998
 10
187.75552999999957
 20
-127.85293199999997
 10
187.72911399999956
 20
-127.85064599999997
 10
187.70295199999956
 20
-127.84835999999997
 10
187.67678999999956
 20
-127.84607399999996
 10
187.65062799999959
 20
-127.84378799999996
 10
187.6244659999996
 20
-127.84150199999995
 10
187.59830399999962
 20
-127.83921599999995
 10
187.57214199999962
 20
-127.83692999999995
 10
187.51829399999963
 20
-127.83134199999995
 10
187.4649539999996
 20
-127.82372199999996
 10
187.4121219999996
 20
-127.81406999999996
 10
187.3597979999996
 20
-127.80263999999995
 10
187.3079819999996
 20
-127.78917799999995
 10
187.25692799999962
 20
-127.77393799999994
 10
187.20638199999962
 20
-127.75691999999995
 10
187.15659799999963
 20
-127.73786999999996
 10
187.10757599999963
 20
-127.71704199999995
 10
187.05956999999964
 20
-127.69443599999995
 10
187.01232599999963
 20
-127.67030599999994
 10
186.96609799999962
 20
-127.64439799999995
 10
186.92063199999964
 20
-127.61696599999995
 10
186.87643599999964
 20
-127.58775599999996
 10
186.83325599999964
 20
-127.55702199999996
 10
186.79109199999962
 20
-127.52476399999995
 10
186.75019799999964
 20
-127.49098199999996
 10
186.71031999999963
 20
-127.45567599999995
 10
186.67171199999962
 20
-127.41884599999996
 10
186.63462799999965
 20
-127.38049199999996
 10
186.59881399999963
 20
-127.34061399999996
 10
186.56426999999965
 20
-127.29946599999997
 10
186.53124999999966
 20
-127.25704799999997
 10
186.49975399999965
 20
-127.21310599999997
 10
186.46978199999964
 20
-127.16789399999998
 10
186.44133399999964
 20
-127.12141199999998
 10
186.41466399999965
 20
-127.07365999999998
 10
186.38951799999964
 20
-127.02489199999998
 10
186.36614999999964
 20
-126.97485399999998
 10
186.34455999999963
 20
-126.92379999999997
 10
186.32474799999963
 20
-126.87147599999996
 10
186.3069679999996
 20
-126.81813599999997
 10
186.27597999999963
 20
-126.72390199999998
 10
186.24245199999964
 20
-126.63042999999998
 10
186.20638399999962
 20
-126.53771999999998
 10
186.1677759999996
 20
-126.44602599999997
 10
186.1266279999996
 20
-126.35534799999996
 10
186.0831939999996
 20
-126.26568599999997
 10
186.0374739999996
 20
-126.17703999999998
 10
185.98946799999962
 20
-126.08966399999997
 10
185.93917599999963
 20
-126.00355799999997
 10
185.88659799999962
 20
-125.91872199999997
 10
185.83198799999963
 20
-125.83540999999998
 10
185.77534599999962
 20
-125.75362199999998
 10
185.71667199999962
 20
-125.67335799999998
 10
185.6559659999996
 20
-125.59461799999998
 10
185.59322799999964
 20
-125.51765599999999
 10
185.52871199999962
 20
-125.44247199999998
 10
185.46241799999964
 20
-125.36906599999999
 10
185.39434599999962
 20
-125.297438
 10
185.32449599999964
 20
-125.227842
 10
185.25312199999965
 20
-125.16027799999999
 10
185.18022399999964
 20
-125.09499999999998
 10
185.10580199999964
 20
-125.03175399999998
 10
185.02985599999965
 20
-124.97079399999998
 10
184.95238599999965
 20
-124.91211999999999
 10
184.87364599999967
 20
-124.85598599999997
 10
184.79363599999965
 20
-124.80213799999999
 10
184.71235599999963
 20
-124.75082999999998
 10
184.62980599999963
 20
-124.702316
 10
184.54598599999963
 20
-124.656342
 10
184.46114999999963
 20
-124.61316199999999
 10
184.37529799999965
 20
-124.57277599999999
 10
184.28842999999964
 20
-124.53518399999999
 10
184.17616199999964
 20
-124.49047999999999
 10
184.06490999999966
 20
-124.449332
 10
183.95467399999964
 20
-124.411486
 10
183.84519999999964
 20
-124.37694199999999
 10
183.73648799999964
 20
-124.3457
 10
183.62853799999965
 20
-124.31725199999998
 10
183.52109599999966
 20
-124.29185199999998
 10
183.41416199999964
 20
-124.26899199999998
 10
183.30773599999964
 20
-124.24892599999998
 10
183.20181799999963
 20
-124.23114599999998
 10
183.09615399999961
 20
-124.21565199999999
 10
182.99048999999962
 20
-124.20244399999999
 10
182.88507999999962
 20
-124.191268
 10
182.77966999999964
 20
-124.18212399999999
 10
182.67400599999962
 20
-124.17475799999998
 10
182.56808799999962
 20
-124.16891599999998
 10
182.46216999999962
 20
-124.16459799999998
 10
182.35574399999962
 20
-124.16180399999998
 10
182.2488099999996
 20
-124.16002599999997
 10
182.1413679999996
 20
-124.15951799999998
 10
182.0334179999996
 20
-124.16002599999997
 10
181.92470599999962
 20
-124.16129599999998
 10
181.81523199999958
 20
-124.16332799999996
 10
181.7049959999996
 20
-124.16586799999997
 10
181.59374399999962
 20
-124.16891599999997
 10
181.48147599999962
 20
-124.17221799999996
 10
181.3679379999996
 20
-124.17551999999996
 10
181.2531299999996
 20
-124.17882199999995
 10
181.1370519999996
 20
-124.18212399999994
 10
181.01970399999962
 20
-124.18517199999995
 10
180.9008319999996
 20
-124.18771199999995
 10
180.7804359999996
 20
-124.18974399999993
 10
180.43448799999962
 20
-124.19507799999994
 10
180.08853999999963
 20
-124.20041199999994
 10
179.74259199999963
 20
-124.20549199999994
 10
179.39664399999964
 20
-124.21057199999994
 10
179.05069599999965
 20
-124.21565199999993
 10
178.70474799999965
 20
-124.22073199999993
 10
178.35879999999966
 20
-124.22581199999992
 10
178.01285199999967
 20
-124.23089199999991
 10
177.66690399999968
 20
-124.23597199999992
 10
177.32095599999968
 20
-124.24105199999991
 10
176.9750079999997
 20
-124.2461319999999
 10
176.6290599999997
 20
-124.2512119999999
 10
176.28311199999973
 20
-124.25629199999989
 10
175.93716399999974
 20
-124.2613719999999
 10
175.59121599999975
 20
-124.26645199999989
 10
175.24526799999975
 20
-124.27153199999988
 10
174.89931999999976
 20
-124.27661199999987
 10
174.55337199999977
 20
-124.28194599999988
 10
174.20742399999978
 20
-124.28727999999988
 10
173.86147599999978
 20
-124.29261399999989
 10
173.5155279999998
 20
-124.29794799999989
 10
173.1695799999998
 20
-124.3032819999999
 10
172.8236319999998
 20
-124.3086159999999
 10
172.4776839999998
 20
-124.3139499999999
 10
172.13173599999982
 20
-124.31928399999991
 10
171.78578799999983
 20
-124.32461799999992
 10
171.43983999999983
 20
-124.32995199999992
 10
171.09389199999984
 20
-124.33528599999993
 10
170.74794399999985
 20
-124.34061999999992
 10
170.40199599999985
 20
-124.34595399999992
 10
170.05604799999986
 20
-124.35128799999993
 10
169.71009999999987
 20
-124.35662199999993
 10
169.6265339999999
 20
-124.35839999999993
 10
169.54144399999987
 20
-124.36068599999994
 10
169.45482999999987
 20
-124.36347999999994
 10
169.36694599999987
 20
-124.36652799999995
 10
169.2777919999999
 20
-124.36957599999995
 10
169.1876219999999
 20
-124.37236999999995
 10
169.09668999999988
 20
-124.37490999999994
 10
169.0049959999999
 20
-124.37694199999994
 10
168.91279399999988
 20
-124.37821199999995
 10
168.82033799999988
 20
-124.37846599999993
 10
168.72762799999987
 20
-124.37744999999994
 10
168.63466399999987
 20
-124.37516399999993
 10
168.54195399999986
 20
-124.37135399999993
 10
168.44949799999986
 20
-124.36576599999994
 10
168.35729599999985
 20
-124.35814599999995
 10
168.26560199999986
 20
-124.34849399999995
 10
168.17466999999985
 20
-124.33655599999993
 10
168.08475399999986
 20
-124.32207799999993
 10
167.99585399999984
 20
-124.30480599999993
 10
167.90796999999984
 20
-124.28473999999993
 10
167.82135599999984
 20
-124.26137199999994
 10
167.73626599999983
 20
-124.23470199999993
 10
167.65295399999985
 20
-124.20447599999993
 10
167.57141999999985
 20
-124.17043999999991
 10
167.49166399999984
 20
-124.13259399999991
 10
167.41419399999987
 20
-124.09068399999991
 10
167.33875599999985
 20
-124.04445599999991
 10
167.26585799999984
 20
-123.99365599999992
 10
167.19549999999984
 20
-123.93802999999991
 10
167.12793599999983
 20
-123.87757799999991
 10
167.06316599999985
 20
-123.81204599999992
 10
167.00144399999982
 20
-123.74117999999991
 10
166.91711599999982
 20
-123.62967399999991
 10
166.84193199999982
 20
-123.5138499999999
 10
166.77538399999983
 20
-123.39396199999992
 10
166.71747199999984
 20
-123.27000999999991
 10
166.66743399999984
 20
-123.14250199999991
 10
166.62501599999985
 20
-123.01169199999991
 10
166.58996399999984
 20
-122.87783399999992
 10
166.56176999999983
 20
-122.74092799999993
 10
166.54017999999982
 20
-122.60148199999993
 10
166.5246859999998
 20
-122.45974999999993
 10
166.51503399999982
 20
-122.31598599999994
 10
166.5107159999998
 20
-122.17069799999993
 10
166.5114779999998
 20
-122.02388599999995
 10
166.5168119999998
 20
-121.87580399999993
 10
166.5264639999998
 20
-121.72670599999994
 10
166.5399259999998
 20
-121.57684599999995
 10
166.5569439999998
 20
-121.42673199999994
 10
166.57700999999977
 20
-121.27636399999994
 10
166.59986999999978
 20
-121.12624999999994
 10
166.62501599999982
 20
-120.97638999999995
 10
166.6521939999998
 20
-120.82729199999996
 10
166.68089599999982
 20
-120.67920999999994
 10
166.71086799999983
 20
-120.53214399999995
 10
166.74160199999983
 20
-120.38660199999995
 10
166.77284399999982
 20
-120.24283799999995
 10
166.80408599999984
 20
-120.10110599999996
 10
166.83507399999982
 20
-119.96165999999997
 10
166.86529999999985
 20
-119.82475399999997
 10
166.89450999999985
 20
-119.69064199999997
 10
166.92244999999986
 20
-119.55957799999996
 10
166.94835799999984
 20
-119.43181599999996
 10
166.97223399999984
 20
-119.30786399999997
 10
167.09720199999984
 20
-118.63958999999997
 10
167.21962999999982
 20
-118.00179599999996
 10
167.33951799999983
 20
-117.39270399999995
 10
167.45737399999985
 20
-116.81002799999996
 10
167.57345199999983
 20
-116.25198999999996
 10
167.68825999999984
 20
-115.71655799999996
 10
167.80179799999985
 20
-115.20169999999996
 10
167.91457399999985
 20
-114.70538399999995
 10
168.02709599999983
 20
-114.22557799999996
 10
168.13936399999983
 20
-113.76050399999995
 10
168.2518859999998
 20
-113.30787599999995
 10
168.36491599999985
 20
-112.86591599999996
 10
168.47896199999983
 20
-112.43259199999996
 10
168.5942779999998
 20
-112.00587199999995
 10
168.71111799999983
 20
-111.58372399999996
 10
168.82973599999983
 20
-111.16411599999996
 10
168.95063999999982
 20
-110.74501599999996
 10
169.07382999999982
 20
-110.32439199999996
 10
169.20006799999982
 20
-109.90046599999997
 10
169.32935399999982
 20
-109.47095199999997
 10
169.46219599999984
 20
-109.03407199999997
 10
169.59884799999983
 20
-108.58779399999996
 10
169.73956399999983
 20
-108.13008599999996
 10
169.88485199999982
 20
-107.65891599999995
 10
170.03496599999983
 20
-107.17250599999996
 10
170.19015999999982
 20
-106.66856999999996
 10
170.35094199999983
 20
-106.14507599999996
 10
170.51756599999982
 20
-105.60024599999997
 10
170.69028599999982
 20
-105.03204799999996
 10
170.8693559999998
 20
-104.43844999999996
 10
171.0552839999998
 20
-103.81741999999996
 10
171.2483239999998
 20
-103.16692599999998
 10
171.3036959999998
 20
-102.97998199999996
 10
171.35906799999978
 20
-102.79303799999997
 10
171.4146939999998
 20
-102.60634799999997
 10
171.4705739999998
 20
-102.41965799999997
 10
171.5264539999998
 20
-102.23296799999996
 10
171.58258799999982
 20
-102.04627799999996
 10
171.63897599999981
 20
-101.85984199999996
 10
171.6953639999998
 20
-101.67340599999997
 10
171.7520059999998
 20
-101.48696999999997
 10
171.8089019999998
 20
-101.30053399999998
 10
171.8657979999998
 20
-101.11409799999998
 10
171.92294799999982
 20
-100.92791599999998
 10
171.9803519999998
 20
-100.74173399999998
 10
172.03775599999983
 20
-100.55555199999998
 10
172.0954139999998
 20
-100.36936999999998
 10
172.1533259999998
 20
-100.18344199999997
 10
172.21123799999978
 20
-99.99751399999997
 10
172.2694039999998
 20
-99.81158599999996
 10
172.3278239999998
 20
-99.62565799999996
 10
172.3862439999998
 20
-99.43972999999994
 10
172.4449179999998
 20
-99.25405599999995
 10
172.5038459999998
 20
-99.06838199999994
 10
172.5627739999998
 20
-98.88270799999995
 10
172.62195599999978
 20
-98.69703399999995
 10
172.6813919999998
 20
-98.51161399999995
 10
172.7408279999998
 20
-98.32619399999994
 10
172.8005179999998
 20
-98.14077399999994
 10
172.8604619999998
 20
-97.95535399999993
 10
172.9204059999998
 20
-97.77018799999993
 10
172.9806039999998
 20
-97.58502199999994
 10
173.0410559999998
 20
-97.39985599999994
 10
173.10150799999982
 20
-97.21468999999995
 10
173.15891199999982
 20
-97.03790599999994
 10
173.21580799999984
 20
-96.85985199999993
 10
173.27219599999984
 20
-96.68078199999994
 10
173.32832999999982
 20
-96.50094999999993
 10
173.38395599999984
 20
-96.32010199999993
 10
173.43932799999982
 20
-96.13874599999994
 10
173.49469999999982
 20
-95.95662799999994
 10
173.5500719999998
 20
-95.77400199999994
 10
173.6054439999998
 20
-95.59086799999994
 10
173.66081599999978
 20
-95.40747999999995
 10
173.7164419999998
 20
-95.22383799999994
 10
173.7723219999998
 20
-95.03994199999994
 10
173.82845599999982
 20
-94.85604599999995
 10
173.8850979999998
 20
-94.67214999999995
 10
173.9422479999998
 20
-94.48825399999996
 10
174.0001599999998
 20
-94.30461199999995
 10
174.0585799999998
 20
-94.12122399999996
 10
174.11776199999977
 20
-93.93834399999994
 10
174.17795999999979
 20
-93.75597199999994
 10
174.23891999999978
 20
-93.57410799999994
 10
174.3008959999998
 20
-93.39300599999993
 10
174.3641419999998
 20
-93.21266599999994
 10
174.4284039999998
 20
-93.03308799999994
 10
174.49393599999982
 20
-92.85452599999995
 10
174.5609919999998
 20
-92.67697999999994
 10
174.6293179999998
 20
-92.50044999999994
 10
174.69916799999982
 20
-92.32518999999995
 10
174.77079599999982
 20
-92.15119999999995
 10
174.8439479999998
 20
-91.97873399999995
 10
174.9188779999998
 20
-91.80779199999995
 10
174.99583999999982
 20
-91.63837399999996
 10
175.0745799999998
 20
-91.47073399999995
  0
LWPOLYLINE
  5
30
330
17
100
AcDbEntity
  8
0
100
AcDbPolyline
 90
897
 70
0
 10
199.63231599999978
 20
-58.739531999999954
 10
199.6384119999998
 20
-58.748421999999955
 10
199.64450799999977
 20
-58.75731199999995
 10
199.6506039999998
 20
-58.76620199999995
 10
199.6566999999998
 20
-58.77509199999995
 10
199.6627959999998
 20
-58.783981999999945
 10
199.6688919999998
 20
-58.792871999999946
 10
199.6747339999998
 20
-58.802015999999945
 10
199.6805759999998
 20
-58.81115999999995
 10
199.6864179999998
 20
-58.82030399999995
 10
199.6922599999998
 20
-58.82944799999995
 10
199.6981019999998
 20
-58.83859199999995
 10
199.70394399999984
 20
-58.84773599999995
 10
199.70978599999984
 20
-58.85687999999995
 10
199.71537399999985
 20
-58.86602399999995
 10
199.72096199999984
 20
-58.87542199999995
 10
199.72654999999986
 20
-58.884819999999955
 10
199.73213799999988
 20
-58.89421799999995
 10
199.7377259999999
 20
-58.90361599999996
 10
199.7433139999999
 20
-58.91301399999996
 10
199.7486479999999
 20
-58.92241199999996
 10
199.7539819999999
 20
-58.93180999999996
 10
199.75931599999987
 20
-58.941461999999966
 10
199.76464999999988
 20
-58.95111399999997
 10
199.76998399999985
 20
-58.96076599999997
 10
199.77506399999984
 20
-58.970417999999974
 10
199.78014399999984
 20
-58.98006999999998
 10
199.78522399999983
 20
-58.98972199999998
 10
199.79030399999982
 20
-58.99962799999997
 10
199.79538399999984
 20
-59.009533999999974
 10
199.80020999999982
 20
-59.01943999999997
 10
199.80503599999983
 20
-59.02934599999997
 10
199.80986199999984
 20
-59.03925199999996
 10
199.84872399999983
 20
-59.12459599999997
 10
199.88453799999982
 20
-59.21095599999997
 10
199.91704999999985
 20
-59.29807799999996
 10
199.94625999999985
 20
-59.385961999999964
 10
199.97216799999984
 20
-59.47460799999996
 10
199.99477399999986
 20
-59.56376199999996
 10
200.01407799999987
 20
-59.653423999999966
 10
200.03007999999986
 20
-59.74333999999997
 10
200.04277999999985
 20
-59.83350999999996
 10
200.05217799999986
 20
-59.92393399999996
 10
200.05827399999984
 20
-60.01435799999996
 10
200.06106799999984
 20
-60.10478199999996
 10
200.06055999999987
 20
-60.19495199999996
 10
200.05674999999985
 20
-60.28486799999996
 10
200.04938399999986
 20
-60.374529999999965
 10
200.03871599999985
 20
-60.463683999999965
 10
200.02474599999985
 20
-60.55232999999996
 10
200.00721999999988
 20
-60.64046799999996
 10
199.98639199999988
 20
-60.72784399999996
 10
199.96200799999988
 20
-60.814457999999966
 10
199.93432199999987
 20
-60.90005599999996
 10
199.90307999999985
 20
-60.98463799999996
 10
199.86853599999986
 20
-61.06820399999996
 10
199.83043599999988
 20
-61.150499999999965
 10
199.78877999999986
 20
-61.23152599999996
 10
199.74382199999985
 20
-61.31102799999996
 10
199.69530799999987
 20
-61.38900599999995
 10
199.64323799999985
 20
-61.46545999999995
 10
199.58761199999984
 20
-61.540135999999954
 10
199.52842999999984
 20
-61.613033999999956
 10
199.46569199999985
 20
-61.68389999999996
 10
199.39939799999988
 20
-61.752733999999954
 10
199.39482599999985
 20
-61.75730599999995
 10
199.39025399999986
 20
-61.76187799999995
 10
199.38568199999983
 20
-61.766449999999956
 10
199.38110999999984
 20
-61.77102199999995
 10
199.37653799999984
 20
-61.775593999999955
 10
199.37196599999982
 20
-61.77991199999995
 10
199.36739399999982
 20
-61.78422999999995
 10
199.3625679999998
 20
-61.78854799999995
 10
199.3577419999998
 20
-61.79286599999995
 10
199.35291599999982
 20
-61.79718399999995
 10
199.34808999999981
 20
-61.80150199999995
 10
199.3432639999998
 20
-61.80581999999995
 10
199.3384379999998
 20
-61.810137999999945
 10
199.33361199999982
 20
-61.81445599999994
 10
199.3287859999998
 20
-61.81877399999994
 10
199.3239599999998
 20
-61.82309199999994
 10
199.3191339999998
 20
-61.827409999999944
 10
199.3143079999998
 20
-61.83172799999994
 10
199.3094819999998
 20
-61.83579199999994
 10
199.3046559999998
 20
-61.83985599999993
 10
199.2998299999998
 20
-61.84391999999993
 10
199.2950039999998
 20
-61.84798399999993
 10
199.2901779999998
 20
-61.852047999999925
 10
199.2853519999998
 20
-61.856111999999925
 10
199.28052599999978
 20
-61.860175999999925
 10
199.2756999999998
 20
-61.864239999999924
 10
199.2708739999998
 20
-61.86830399999992
 10
199.26604799999978
 20
-61.872367999999916
 10
199.26122199999978
 20
-61.876431999999916
 10
199.2563959999998
 20
-61.880495999999916
 10
199.2515699999998
 20
-61.88455999999991
 10
199.24674399999978
 20
-61.88862399999991
 10
199.87894999999978
 20
-61.89167199999991
 10
200.5111559999998
 20
-61.89471999999991
 10
201.1433619999998
 20
-61.89776799999991
 10
201.77556799999982
 20
-61.90081599999991
 10
202.40777399999982
 20
-61.903863999999906
 10
203.03997999999984
 20
-61.906911999999906
 10
203.67218599999984
 20
-61.90995999999991
 10
204.30439199999984
 20
-61.91300799999991
 10
204.93659799999986
 20
-61.91605599999991
 10
205.56880399999986
 20
-61.91910399999991
 10
206.20100999999988
 20
-61.92215199999991
 10
206.83321599999988
 20
-61.92519999999991
 10
207.46542199999988
 20
-61.92824799999991
 10
208.0976279999999
 20
-61.93129599999991
 10
208.7298339999999
 20
-61.93434399999991
 10
209.36203999999992
 20
-61.93739199999991
 10
209.99424599999992
 20
-61.94043999999991
 10
210.62645199999994
 20
-61.94348799999991
 10
211.25865799999994
 20
-61.94653599999991
 10
211.89086399999994
 20
-61.94958399999991
 10
212.52306999999996
 20
-61.95263199999991
 10
213.15527599999996
 20
-61.95567999999991
 10
213.78748199999998
 20
-61.95872799999991
 10
214.41968799999998
 20
-61.96177599999991
 10
215.05189399999998
 20
-61.964823999999915
 10
215.6841
 20
-61.967871999999915
 10
216.316306
 20
-61.970919999999914
 10
216.94851200000002
 20
-61.973967999999914
 10
217.58071800000002
 20
-61.977015999999914
 10
218.21292400000004
 20
-61.98006399999991
 10
218.84513000000004
 20
-61.98311199999991
 10
219.47733600000004
 20
-61.98615999999991
 10
219.52153200000004
 20
-61.98742999999991
 10
219.56522000000004
 20
-61.990985999999914
 10
219.60814600000003
 20
-61.996827999999915
 10
219.65031000000005
 20
-62.00470199999992
 10
219.69145800000007
 20
-62.014861999999916
 10
219.73184400000005
 20
-62.027053999999914
 10
219.77121400000004
 20
-62.04127799999991
 10
219.80956800000004
 20
-62.05753399999991
 10
219.84690600000005
 20
-62.07556799999991
 10
219.88322800000006
 20
-62.09537999999991
 10
219.91828000000007
 20
-62.11696999999992
 10
219.9520620000001
 20
-62.14033799999992
 10
219.9845740000001
 20
-62.16522999999992
 10
220.01581600000011
 20
-62.19189999999992
 10
220.0455340000001
 20
-62.22009399999992
 10
220.0737280000001
 20
-62.24955799999992
 10
220.1003980000001
 20
-62.28054599999992
 10
220.1255440000001
 20
-62.31280399999993
 10
220.1491660000001
 20
-62.346331999999926
 10
220.1710100000001
 20
-62.38112999999993
 10
220.1910760000001
 20
-62.41694399999992
 10
220.20936400000008
 20
-62.45377399999993
 10
220.22587400000012
 20
-62.49161999999993
 10
220.24035200000012
 20
-62.53048199999993
 10
220.2527980000001
 20
-62.57035999999993
 10
220.26321200000012
 20
-62.610999999999926
 10
220.27159400000014
 20
-62.65240199999993
 10
220.2779440000001
 20
-62.69431199999993
 10
220.2820080000001
 20
-62.73698399999993
 10
220.2837860000001
 20
-62.78016399999993
 10
220.2832780000001
 20
-62.823851999999924
 10
220.28023000000013
 20
-62.86804799999993
 10
220.2743880000001
 20
-62.93053199999993
 10
220.2685460000001
 20
-62.99301599999993
 10
220.2627040000001
 20
-63.05549999999994
 10
220.2568620000001
 20
-63.117983999999936
 10
220.2510200000001
 20
-63.18046799999994
 10
220.2451780000001
 20
-63.242951999999946
 10
220.23933600000007
 20
-63.30543599999994
 10
220.23349400000006
 20
-63.36791999999995
 10
220.22765200000006
 20
-63.43040399999995
 10
220.22181000000006
 20
-63.49288799999995
 10
220.21596800000006
 20
-63.555371999999956
 10
220.21012600000003
 20
-63.61785599999996
 10
220.20428400000003
 20
-63.68033999999996
 10
220.19844200000003
 20
-63.74282399999996
 10
220.19260000000003
 20
-63.80530799999996
 10
220.18675800000003
 20
-63.867791999999966
 10
220.18091600000002
 20
-63.93027599999997
 10
220.175074
 20
-63.99275999999997
 10
220.169232
 20
-64.05524399999997
 10
220.16339
 20
-64.11772799999997
 10
220.157548
 20
-64.18021199999998
 10
220.151706
 20
-64.24269599999998
 10
220.145864
 20
-64.30517999999998
 10
220.14002199999996
 20
-64.36766399999999
 10
220.13417999999996
 20
-64.43014799999999
 10
220.12833799999996
 20
-64.49263199999999
 10
220.12249599999996
 20
-64.555116
 10
220.11665399999995
 20
-64.6176
 10
220.11081199999995
 20
-64.680084
 10
220.10496999999992
 20
-64.742568
 10
220.09912799999992
 20
-64.805052
 10
220.09328599999992
 20
-64.867536
 10
220.0899839999999
 20
-64.89674600000001
 10
220.08515799999992
 20
-64.925448
 10
220.0790619999999
 20
-64.953642
 10
220.07169599999992
 20
-64.981328
 10
220.06305999999992
 20
-65.00850600000001
 10
220.0534079999999
 20
-65.03492200000001
 10
220.0424859999999
 20
-65.06083
 10
220.0302939999999
 20
-65.08623
 10
220.0170859999999
 20
-65.110868
 10
220.00286199999988
 20
-65.134744
 10
219.9876219999999
 20
-65.157858
 10
219.9713659999999
 20
-65.18021
 10
219.9540939999999
 20
-65.20179999999999
 10
219.93580599999993
 20
-65.222628
 10
219.9167559999999
 20
-65.24243999999999
 10
219.89668999999992
 20
-65.26148999999998
 10
219.87586199999993
 20
-65.279524
 10
219.85427199999992
 20
-65.29679599999999
 10
219.8319199999999
 20
-65.313052
 10
219.80880599999992
 20
-65.32829199999999
 10
219.78492999999992
 20
-65.34251599999999
 10
219.7605459999999
 20
-65.35546999999998
 10
219.73539999999988
 20
-65.367408
 10
219.70974599999988
 20
-65.37832999999999
 10
219.6835839999999
 20
-65.387982
 10
219.6566599999999
 20
-65.396364
 10
219.62922799999993
 20
-65.40373
 10
219.6015419999999
 20
-65.409826
 10
219.57334799999992
 20
-65.414652
 10
219.5446459999999
 20
-65.417954
 10
219.5156899999999
 20
-65.419986
 10
219.4864799999999
 20
-65.42074799999999
 10
218.71279599999988
 20
-65.41795399999998
 10
217.93911199999985
 20
-65.41515999999997
 10
217.16542799999985
 20
-65.41236599999998
 10
216.39174399999985
 20
-65.40957199999997
 10
215.61805999999982
 20
-65.40677799999996
 10
214.8443759999998
 20
-65.40398399999995
 10
214.0706919999998
 20
-65.40118999999994
 10
213.29700799999978
 20
-65.39839599999993
 10
212.52332399999977
 20
-65.39560199999994
 10
211.74963999999977
 20
-65.39280799999993
 10
210.97595599999974
 20
-65.39001399999992
 10
210.20227199999974
 20
-65.38721999999991
 10
209.42858799999973
 20
-65.3844259999999
 10
208.6549039999997
 20
-65.3816319999999
 10
207.8812199999997
 20
-65.3788379999999
 10
207.1075359999997
 20
-65.3760439999999
 10
206.33385199999967
 20
-65.37324999999989
 10
205.56016799999966
 20
-65.37045599999988
 10
204.78648399999966
 20
-65.36766199999987
 10
204.01279999999963
 20
-65.36486799999987
 10
203.23911599999963
 20
-65.36207399999986
 10
202.46543199999962
 20
-65.35927999999986
 10
201.6917479999996
 20
-65.35648599999985
 10
200.9180639999996
 20
-65.35369199999984
 10
200.1443799999996
 20
-65.35089799999983
 10
199.37069599999955
 20
-65.34810399999984
 10
198.59701199999955
 20
-65.34530999999983
 10
197.82332799999955
 20
-65.34251599999982
 10
197.04964399999952
 20
-65.33972199999981
 10
196.27595999999951
 20
-65.3369279999998
 10
195.5022759999995
 20
-65.33413399999979
 10
194.72859199999948
 20
-65.3313399999998
 10
194.7003979999995
 20
-65.3305779999998
 10
194.67271199999948
 20
-65.3285459999998
 10
194.6452799999995
 20
-65.32524399999981
 10
194.6183559999995
 20
-65.3204179999998
 10
194.59193999999948
 20
-65.3143219999998
 10
194.5660319999995
 20
-65.3069559999998
 10
194.54063199999948
 20
-65.2985739999998
 10
194.5157399999995
 20
-65.2889219999998
 10
194.49135599999948
 20
-65.27799999999979
 10
194.4677339999995
 20
-65.26606199999979
 10
194.4448739999995
 20
-65.2531079999998
 10
194.4225219999995
 20
-65.2391379999998
 10
194.4009319999995
 20
-65.22415199999979
 10
194.3801039999995
 20
-65.20814999999979
 10
194.36003799999952
 20
-65.19113199999978
 10
194.3409879999995
 20
-65.17309799999978
 10
194.32269999999951
 20
-65.15430199999977
 10
194.3054279999995
 20
-65.13474399999978
 10
194.28891799999948
 20
-65.11416999999977
 10
194.2734239999995
 20
-65.09283399999977
 10
194.25894599999947
 20
-65.07073599999978
 10
194.24548399999946
 20
-65.04812999999977
 10
194.23303799999948
 20
-65.02476199999978
 10
194.22186199999948
 20
-65.00063199999978
 10
194.2117019999995
 20
-64.97599399999977
 10
194.2028119999995
 20
-64.95084799999978
 10
194.1951919999995
 20
-64.92493999999978
 10
194.18858799999953
 20
-64.89852399999978
 10
194.18325399999952
 20
-64.87159999999977
 10
194.17944399999953
 20
-64.84442199999978
 10
194.17690399999955
 20
-64.81673599999978
 10
194.17563399999955
 20
-64.78879599999978
 10
194.17563399999955
 20
-64.78574799999977
 10
194.17563399999955
 20
-64.78269999999978
 10
194.17563399999955
 20
-64.77965199999977
 10
194.17563399999955
 20
-64.77660399999978
 10
194.17563399999955
 20
-64.77355599999977
 10
194.17563399999955
 20
-64.77050799999978
 10
194.17563399999955
 20
-64.76745999999977
 10
194.17563399999955
 20
-64.76441199999977
 10
194.17563399999955
 20
-64.76136399999977
 10
194.17563399999955
 20
-64.75831599999977
 10
194.17563399999955
 20
-64.75526799999977
 10
194.17563399999955
 20
-64.75221999999977
 10
194.17563399999955
 20
-64.74917199999977
 10
194.17563399999955
 20
-64.74612399999977
 10
194.17563399999955
 20
-64.74307599999977
 10
194.17563399999955
 20
-64.74002799999977
 10
194.17563399999955
 20
-64.73697999999978
 10
194.17563399999955
 20
-64.73393199999977
 10
194.17563399999955
 20
-64.73088399999978
 10
194.17563399999955
 20
-64.72783599999977
 10
194.17563399999955
 20
-64.72478799999978
 10
194.17563399999955
 20
-64.72173999999977
 10
194.17563399999955
 20
-64.71869199999978
 10
194.17563399999955
 20
-64.71564399999977
 10
194.17563399999955
 20
-64.71259599999976
 10
194.17563399999955
 20
-64.70954799999977
 10
194.17563399999955
 20
-64.70649999999976
 10
194.17563399999955
 20
-64.70345199999977
 10
194.17563399999955
 20
-64.70040399999976
 10
194.17563399999955
 20
-64.69735599999977
 10
194.17563399999955
 20
-64.69430799999977
 10
194.17563399999955
 20
-64.69125999999977
 10
194.05142799999953
 20
-64.69125999999977
 10
193.92722199999952
 20
-64.69125999999977
 10
193.80301599999953
 20
-64.69125999999977
 10
193.67880999999952
 20
-64.69125999999977
 10
193.5546039999995
 20
-64.69125999999977
 10
193.43039799999949
 20
-64.69125999999977
 10
193.30619199999947
 20
-64.69125999999977
 10
193.18198599999948
 20
-64.69125999999977
 10
193.05777999999947
 20
-64.69125999999977
 10
192.93357399999945
 20
-64.69125999999977
 10
192.80936799999944
 20
-64.69125999999977
 10
192.68516199999945
 20
-64.69125999999977
 10
192.56095599999944
 20
-64.69125999999977
 10
192.43674999999942
 20
-64.69125999999977
 10
192.3125439999994
 20
-64.69125999999977
 10
192.18833799999942
 20
-64.69125999999977
 10
192.0641319999994
 20
-64.69125999999977
 10
191.9399259999994
 20
-64.69125999999977
 10
191.81571999999937
 20
-64.69125999999977
 10
191.6915139999994
 20
-64.69125999999977
 10
191.56730799999937
 20
-64.69125999999977
 10
191.44310199999936
 20
-64.69125999999977
 10
191.31889599999934
 20
-64.69125999999977
 10
191.19468999999935
 20
-64.69125999999977
 10
191.07048399999934
 20
-64.69125999999977
 10
190.94627799999932
 20
-64.69125999999977
 10
190.8220719999993
 20
-64.69125999999977
 10
190.69786599999932
 20
-64.69125999999977
 10
190.5736599999993
 20
-64.69125999999977
 10
190.4494539999993
 20
-64.69125999999977
 10
190.32524799999928
 20
-64.69125999999977
 10
190.20104199999926
 20
-64.69125999999977
 10
190.15989399999927
 20
-64.69049799999978
 10
190.1189999999993
 20
-64.68821199999978
 10
190.0783599999993
 20
-64.68465599999978
 10
190.0382279999993
 20
-64.67957599999977
 10
189.99834999999928
 20
-64.67322599999977
 10
189.9589799999993
 20
-64.66535199999977
 10
189.91986399999928
 20
-64.65620799999976
 10
189.88125599999927
 20
-64.64553999999977
 10
189.84315599999928
 20
-64.63360199999977
 10
189.80556399999926
 20
-64.62039399999978
 10
189.76847999999927
 20
-64.60591599999978
 10
189.73190399999928
 20
-64.59016799999976
 10
189.6960899999993
 20
-64.57314999999977
 10
189.6607839999993
 20
-64.55486199999977
 10
189.62623999999929
 20
-64.53555799999977
 10
189.59245799999928
 20
-64.51498399999977
 10
189.5594379999993
 20
-64.49313999999977
 10
189.5271799999993
 20
-64.47027999999978
 10
189.4956839999993
 20
-64.44614999999976
 10
189.4649499999993
 20
-64.42100399999977
 10
189.4349779999993
 20
-64.39484199999977
 10
189.40602199999927
 20
-64.36766399999976
 10
189.37808199999927
 20
-64.33921599999977
 10
189.35090399999928
 20
-64.30975199999976
 10
189.3247419999993
 20
-64.27927199999976
 10
189.29959599999927
 20
-64.24802999999977
 10
189.27546599999928
 20
-64.21577199999976
 10
189.25260599999928
 20
-64.18249799999977
 10
189.23076199999926
 20
-64.14820799999977
 10
189.21018799999925
 20
-64.11315599999976
 10
189.19062999999926
 20
-64.07708799999976
 10
189.17234199999925
 20
-64.04025799999977
 10
189.10630199999926
 20
-63.89065199999977
 10
189.04026199999927
 20
-63.74104599999976
 10
188.97422199999926
 20
-63.591439999999764
 10
188.90818199999927
 20
-63.441833999999766
 10
188.84214199999926
 20
-63.29222799999977
 10
188.77610199999927
 20
-63.14262199999977
 10
188.71006199999928
 20
-62.99301599999977
 10
188.64402199999927
 20
-62.84340999999977
 10
188.57798199999928
 20
-62.693803999999766
 10
188.5119419999993
 20
-62.54419799999977
 10
188.44590199999928
 20
-62.39459199999977
 10
188.3798619999993
 20
-62.24498599999977
 10
188.31382199999928
 20
-62.09537999999977
 10
188.2477819999993
 20
-61.94577399999977
 10
188.1817419999993
 20
-61.79616799999977
 10
188.1157019999993
 20
-61.64656199999977
 10
188.0496619999993
 20
-61.49695599999977
 10
187.9836219999993
 20
-61.34734999999977
 10
187.9175819999993
 20
-61.19774399999977
 10
187.8515419999993
 20
-61.048137999999774
 10
187.7855019999993
 20
-60.898531999999776
 10
187.7194619999993
 20
-60.74892599999977
 10
187.65342199999932
 20
-60.59931999999977
 10
187.5873819999993
 20
-60.44971399999977
 10
187.52134199999932
 20
-60.300107999999774
 10
187.4553019999993
 20
-60.150501999999776
 10
187.38926199999932
 20
-60.00089599999978
 10
187.32322199999933
 20
-59.85128999999977
 10
187.25718199999932
 20
-59.70168399999977
 10
187.19114199999933
 20
-59.552077999999774
 10
187.12510199999932
 20
-59.402471999999776
 10
187.05906199999933
 20
-59.25286599999978
 10
187.04407599999934
 20
-59.22060799999977
 10
187.02807399999935
 20
-59.189111999999774
 10
187.01105599999934
 20
-59.15837799999977
 10
186.99302199999934
 20
-59.12840599999977
 10
186.97371799999934
 20
-59.09919599999977
 10
186.95365199999935
 20
-59.070747999999774
 10
186.93256999999934
 20
-59.04306199999977
 10
186.91047199999934
 20
-59.016391999999776
 10
186.88761199999934
 20
-58.990483999999775
 10
186.86373599999934
 20
-58.965591999999766
 10
186.83909799999932
 20
-58.94146199999977
 10
186.81369799999933
 20
-58.91834799999977
 10
186.78753599999933
 20
-58.89599599999977
 10
186.76061199999936
 20
-58.87465999999977
 10
186.73292599999934
 20
-58.854339999999766
 10
186.70447799999934
 20
-58.83503599999977
 10
186.67552199999935
 20
-58.81674799999976
 10
186.64580399999934
 20
-58.799475999999764
 10
186.61557799999935
 20
-58.783219999999766
 10
186.58484399999935
 20
-58.76797999999977
 10
186.55334799999935
 20
-58.75400999999976
 10
186.52134399999935
 20
-58.741055999999766
 10
186.48883199999932
 20
-58.72937199999977
 10
186.45606599999934
 20
-58.71870399999977
 10
186.42279199999933
 20
-58.70930599999976
 10
186.38900999999933
 20
-58.700923999999766
 10
186.35497399999932
 20
-58.693811999999774
 10
186.32042999999933
 20
-58.68796999999977
 10
186.28563199999934
 20
-58.68339799999977
 10
186.25057999999933
 20
-58.68009599999977
 10
186.21527399999934
 20
-58.678063999999765
 10
186.17971399999934
 20
-58.67730199999977
 10
185.60897599999936
 20
-58.67425399999977
 10
185.03823799999935
 20
-58.67120599999977
 10
184.46749999999938
 20
-58.66815799999977
 10
183.89676199999937
 20
-58.66510999999977
 10
183.3260239999994
 20
-58.66206199999977
 10
182.7552859999994
 20
-58.65901399999977
 10
182.1845479999994
 20
-58.65596599999977
 10
181.61380999999943
 20
-58.65291799999977
 10
181.04307199999943
 20
-58.64986999999977
 10
180.47233399999945
 20
-58.64682199999977
 10
179.90159599999944
 20
-58.64377399999977
 10
179.33085799999947
 20
-58.640725999999766
 10
178.7601199999995
 20
-58.63767799999977
 10
178.18938199999948
 20
-58.63462999999977
 10
177.6186439999995
 20
-58.63158199999977
 10
177.0479059999995
 20
-58.62853399999977
 10
176.47716799999952
 20
-58.62548599999977
 10
175.90642999999952
 20
-58.62243799999977
 10
175.33569199999954
 20
-58.61938999999977
 10
174.76495399999956
 20
-58.61634199999977
 10
174.19421599999956
 20
-58.61329399999977
 10
173.62347799999958
 20
-58.61024599999977
 10
173.05273999999957
 20
-58.60719799999977
 10
172.4820019999996
 20
-58.60414999999977
 10
171.91126399999962
 20
-58.60110199999977
 10
171.3405259999996
 20
-58.59805399999977
 10
170.76978799999964
 20
-58.59500599999977
 10
170.19904999999963
 20
-58.59195799999977
 10
169.62831199999965
 20
-58.58890999999977
 10
169.05757399999965
 20
-58.585861999999764
 10
168.48683599999967
 20
-58.582813999999765
 10
167.9160979999997
 20
-58.579765999999765
 10
167.91304999999969
 20
-58.60033999999976
 10
167.90365199999968
 20
-58.66028399999976
 10
167.8868879999997
 20
-58.75756599999976
 10
167.86174199999968
 20
-58.89015399999976
 10
167.82719799999967
 20
-59.05576199999976
 10
167.78249399999967
 20
-59.25235799999976
 10
167.72661399999967
 20
-59.47765599999976
 10
167.65854199999964
 20
-59.72987799999976
 10
167.57726199999965
 20
-60.00648399999976
 10
167.48201199999963
 20
-60.305695999999756
 10
167.37177599999964
 20
-60.62497399999976
 10
167.24579199999965
 20
-60.96253999999976
 10
167.10304399999964
 20
-61.31610799999976
 10
166.94251599999967
 20
-61.68364599999976
 10
166.76319199999966
 20
-62.06286799999976
 10
166.56430999999967
 20
-62.45174199999976
 10
166.34485399999966
 20
-62.848235999999766
 10
166.10380799999965
 20
-63.25006399999976
 10
165.84015599999967
 20
-63.65519399999976
 10
165.55313599999965
 20
-64.06133999999976
 10
165.24173199999964
 20
-64.46646999999976
 10
164.90518199999966
 20
-64.86855199999975
 10
164.54221599999966
 20
-65.26529999999975
 10
164.15207199999966
 20
-65.65468199999975
 10
163.73398799999967
 20
-66.03441199999976
 10
163.28669399999967
 20
-66.40245799999975
 10
162.80942799999968
 20
-66.75678799999976
 10
162.3011739999997
 20
-67.09511599999975
 10
161.76116999999968
 20
-67.41540999999977
 10
161.1883999999997
 20
-67.71538399999976
 10
160.5818479999997
 20
-67.99325999999975
 10
159.94049799999968
 20
-68.24649799999976
 10
159.97605799999968
 20
-68.25640399999976
 10
160.0794359999997
 20
-68.28612199999976
 10
160.2460599999997
 20
-68.33590599999977
 10
160.47161199999968
 20
-68.40575599999976
 10
160.7515199999997
 20
-68.49617999999975
 10
161.08146599999966
 20
-68.60692399999975
 10
161.45687799999968
 20
-68.73849599999974
 10
161.87343799999965
 20
-68.89114999999974
 10
162.32682799999967
 20
-69.06488599999976
 10
162.81247599999966
 20
-69.25995799999974
 10
163.32580999999965
 20
-69.47661999999976
 10
163.86251199999967
 20
-69.71487199999974
 10
164.41826399999965
 20
-69.97496799999975
 10
164.98849399999966
 20
-70.25716199999974
 10
165.56888399999966
 20
-70.56170799999974
 10
166.15486199999967
 20
-70.88860599999974
 10
166.74185599999967
 20
-71.23810999999974
 10
167.32580199999967
 20
-71.61047399999974
 10
167.90212799999966
 20
-72.00595199999974
 10
168.46626199999966
 20
-72.42454399999974
 10
169.01388599999964
 20
-72.86675799999975
 10
169.54042799999965
 20
-73.33233999999975
 10
170.04156999999964
 20
-73.82179799999976
 10
170.51299399999962
 20
-74.33513199999976
 10
170.95012799999964
 20
-74.87284999999976
 10
171.34839999999963
 20
-75.43469799999976
 10
171.70349199999964
 20
-76.02118399999976
 10
172.01108599999964
 20
-76.63230799999977
 10
172.26660999999964
 20
-77.26857799999976
 10
172.46574599999963
 20
-77.92973999999977
 10
172.60392199999964
 20
-78.61630199999976
 10
172.67681999999965
 20
-79.32826399999976
 10
172.85080999999963
 20
-79.40090799999976
 10
173.02657799999963
 20
-79.46593199999975
 10
173.2036159999996
 20
-79.52333599999976
 10
173.38192399999963
 20
-79.57311999999976
 10
173.56124799999964
 20
-79.61553799999976
 10
173.74133399999963
 20
-79.65033599999975
 10
173.9219279999996
 20
-79.67776799999976
 10
174.10302999999962
 20
-79.69783399999976
 10
174.2841319999996
 20
-79.71053399999977
 10
174.46523399999958
 20
-79.71586799999977
 10
174.64608199999958
 20
-79.71408999999977
 10
174.8264219999996
 20
-79.70494599999977
 10
175.0059999999996
 20
-79.68868999999975
 10
175.1845619999996
 20
-79.66532199999976
 10
175.3618539999996
 20
-79.63509599999976
 10
175.5376219999996
 20
-79.59775799999976
 10
175.7118659999996
 20
-79.55356199999976
 10
175.8843319999996
 20
-79.50225399999977
 10
176.0545119999996
 20
-79.44408799999977
 10
176.22240599999958
 20
-79.37931799999977
 10
176.38775999999956
 20
-79.30768999999978
 10
176.55031999999954
 20
-79.22920399999977
 10
176.71008599999956
 20
-79.14411399999977
 10
176.86654999999956
 20
-79.05241999999977
 10
177.01971199999954
 20
-78.95412199999977
 10
177.16906399999954
 20
-78.84921999999978
 10
177.31460599999951
 20
-78.73796799999978
 10
177.45608399999952
 20
-78.62036599999976
 10
177.59324399999952
 20
-78.49615999999978
 10
177.72583199999954
 20
-78.36585799999978
 10
177.85359399999953
 20
-78.22920599999978
 10
177.97652999999954
 20
-78.08620399999978
 10
178.09743399999957
 20
-77.93989999999978
 10
178.22443399999955
 20
-77.78800799999978
 10
178.35702199999957
 20
-77.63103599999977
 10
178.49519799999956
 20
-77.46923799999978
 10
178.63845399999954
 20
-77.30312199999977
 10
178.78678999999954
 20
-77.13319599999978
 10
178.93969799999954
 20
-76.95971399999978
 10
179.09717799999953
 20
-76.78343799999978
 10
179.25872199999952
 20
-76.60462199999978
 10
179.42432999999954
 20
-76.42351999999977
 10
179.59349399999954
 20
-76.24089399999977
 10
179.76621399999954
 20
-76.05699799999978
 10
179.94198199999954
 20
-75.87233999999978
 10
180.12079799999952
 20
-75.68742799999978
 10
180.30240799999953
 20
-75.50276999999978
 10
180.48630399999954
 20
-75.31861999999978
 10
180.67248599999954
 20
-75.13548599999977
 10
180.86069999999953
 20
-74.95387599999978
 10
181.05043799999953
 20
-74.77404399999978
 10
181.24169999999953
 20
-74.59649799999977
 10
181.43423199999953
 20
-74.42174599999977
 10
181.62777999999952
 20
-74.25029599999978
 10
181.82183599999954
 20
-74.08265599999977
 10
182.01639999999952
 20
-73.91907999999977
 10
182.21121799999952
 20
-73.76007599999977
 10
182.40603599999955
 20
-73.60615199999977
 10
182.60059999999953
 20
-73.45756199999978
 10
182.79465599999955
 20
-73.31506799999978
 10
182.98794999999953
 20
-73.17892399999978
 10
183.18022799999952
 20
-73.04938399999979
 10
183.37098199999951
 20
-72.92720999999979
 10
183.56021199999952
 20
-72.81265599999978
 10
183.6348879999995
 20
-72.76972999999978
 10
183.71032599999953
 20
-72.72781999999978
 10
183.7862719999995
 20
-72.68717999999977
 10
183.86272599999953
 20
-72.64780999999978
 10
183.9396879999995
 20
-72.60945599999978
 10
184.0171579999995
 20
-72.57237199999977
 10
184.0951359999995
 20
-72.53655799999977
 10
184.1736219999995
 20
-72.50201399999976
 10
184.2526159999995
 20
-72.46848599999976
 10
184.3321179999995
 20
-72.43622799999976
 10
184.4121279999995
 20
-72.40523999999975
 10
184.49239199999954
 20
-72.37552199999975
 10
184.57316399999954
 20
-72.34707399999975
 10
184.65444399999953
 20
-72.31989599999974
 10
184.73597799999953
 20
-72.29398799999974
 10
184.81801999999954
 20
-72.26934999999975
 10
184.90031599999952
 20
-72.24598199999976
 10
184.98311999999953
 20
-72.22362999999974
 10
185.06617799999952
 20
-72.20254799999974
 10
185.14948999999953
 20
-72.18273599999975
 10
185.23305599999952
 20
-72.16419399999975
 10
185.3171299999995
 20
-72.14692199999976
 10
185.4014579999995
 20
-72.13091999999976
 10
185.48603999999952
 20
-72.11618799999977
 10
185.5708759999995
 20
-72.10297999999976
 10
185.6559659999995
 20
-72.09104199999975
 10
185.74130999999952
 20
-72.08037399999975
 10
185.8266539999995
 20
-72.07097599999976
 10
185.9122519999995
 20
-72.06284799999976
 10
185.9981039999995
 20
-72.05598999999977
 10
186.0842099999995
 20
-72.05040199999978
 10
186.17031599999953
 20
-72.04608399999978
 10
187.70142799999954
 20
-72.03109799999977
 10
189.23253999999955
 20
-72.01611199999977
 10
190.76365199999955
 20
-72.00112599999976
 10
192.29476399999956
 20
-71.98613999999975
 10
193.82587599999957
 20
-71.97115399999974
 10
195.35698799999955
 20
-71.95616799999974
 10
196.88809999999955
 20
-71.94118199999973
 10
198.41921199999956
 20
-71.92619599999972
 10
199.95032399999957
 20
-71.91120999999971
 10
201.48143599999958
 20
-71.8962239999997
 10
203.01254799999958
 20
-71.8812379999997
 10
204.5436599999996
 20
-71.86625199999969
 10
206.0747719999996
 20
-71.85126599999968
 10
207.6058839999996
 20
-71.83627999999968
 10
209.1369959999996
 20
-71.82129399999968
 10
210.66810799999962
 20
-71.80630799999967
 10
212.19921999999963
 20
-71.79132199999967
 10
213.7303319999996
 20
-71.77633599999966
 10
215.2614439999996
 20
-71.76134999999965
 10
216.79255599999962
 20
-71.74636399999964
 10
218.32366799999963
 20
-71.73137799999964
 10
219.85477999999964
 20
-71.71639199999963
 10
221.38589199999964
 20
-71.70140599999962
 10
222.91700399999965
 20
-71.68641999999961
 10
224.44811599999966
 20
-71.6714339999996
 10
225.97922799999967
 20
-71.6564479999996
 10
227.51033999999967
 20
-71.64146199999959
 10
229.04145199999968
 20
-71.62647599999958
 10
230.5725639999997
 20
-71.61148999999958
 10
232.1036759999997
 20
-71.59650399999957
 10
233.63478799999967
 20
-71.58151799999958
 10
235.16589999999968
 20
-71.56653199999957
 10
235.2039999999997
 20
-71.56627799999957
 10
235.2418459999997
 20
-71.56475399999958
 10
235.2794379999997
 20
-71.56221399999959
 10
235.3170299999997
 20
-71.55840399999958
 10
235.3543679999997
 20
-71.55357799999958
 10
235.3914519999997
 20
-71.54773599999957
 10
235.42828199999968
 20
-71.54062399999957
 10
235.4646039999997
 20
-71.53249599999957
 10
235.50067199999972
 20
-71.52335199999958
 10
235.5364859999997
 20
-71.51319199999956
 10
235.5717919999997
 20
-71.50201599999957
 10
235.6068439999997
 20
-71.48982399999957
 10
235.64138799999972
 20
-71.47661599999957
 10
235.67567799999972
 20
-71.46239199999957
 10
235.70945999999972
 20
-71.44715199999958
 10
235.7427339999997
 20
-71.43089599999956
 10
235.7754999999997
 20
-71.41362399999957
 10
235.8077579999997
 20
-71.39533599999957
 10
235.8395079999997
 20
-71.37628599999957
 10
235.8707499999997
 20
-71.35621999999957
 10
235.9012299999997
 20
-71.33513799999956
 10
235.93120199999973
 20
-71.31329399999956
 10
235.96066599999972
 20
-71.29043399999956
 10
235.98936799999973
 20
-71.26681199999956
 10
236.01730799999973
 20
-71.24217399999957
 10
236.04473999999973
 20
-71.21677399999956
 10
236.07140999999973
 20
-71.19035799999956
 10
236.09731799999972
 20
-71.16317999999956
 10
236.12246399999975
 20
-71.13523999999956
 10
236.14684799999975
 20
-71.10653799999956
 10
236.17046999999974
 20
-71.07681999999954
 10
236.19332999999975
 20
-71.04633999999955
 10
236.32667999999973
 20
-70.85736399999954
 10
236.46002999999973
 20
-70.66838799999954
 10
236.5933799999997
 20
-70.47941199999953
 10
236.72672999999972
 20
-70.29043599999952
 10
236.8600799999997
 20
-70.1014599999995
 10
236.9934299999997
 20
-69.91248399999951
 10
237.1267799999997
 20
-69.7235079999995
 10
237.2601299999997
 20
-69.53453199999949
 10
237.3934799999997
 20
-69.34555599999949
 10
237.52682999999968
 20
-69.15657999999948
 10
237.66017999999968
 20
-68.96760399999947
 10
237.79352999999966
 20
-68.77862799999946
 10
237.92687999999967
 20
-68.58965199999946
 10
238.06022999999965
 20
-68.40067599999945
 10
238.19357999999966
 20
-68.21169999999944
 10
238.32692999999963
 20
-68.02272399999943
 10
238.46027999999964
 20
-67.83374799999943
 10
238.59362999999962
 20
-67.64477199999942
 10
238.72697999999963
 20
-67.45579599999941
 10
238.86032999999964
 20
-67.2668199999994
 10
238.9936799999996
 20
-67.0778439999994
 10
239.12702999999962
 20
-66.88886799999939
 10
239.2603799999996
 20
-66.69989199999938
 10
239.3937299999996
 20
-66.51091599999937
 10
239.5270799999996
 20
-66.32193999999937
 10
239.6604299999996
 20
-66.13296399999936
 10
239.79377999999957
 20
-65.94398799999935
 10
239.92712999999958
 20
-65.75501199999935
 10
240.06047999999956
 20
-65.56603599999934
 10
240.19382999999956
 20
-65.37705999999933
 10
240.32717999999957
 20
-65.18808399999932
 10
240.46052999999955
 20
-64.99910799999932
 10
240.48288199999953
 20
-64.96913599999932
 10
240.50599599999956
 20
-64.93992599999933
 10
240.53012599999954
 20
-64.91147799999932
 10
240.55501799999954
 20
-64.88379199999932
 10
240.58041799999955
 20
-64.85686799999932
 10
240.60657999999952
 20
-64.83070599999932
 10
240.63350399999953
 20
-64.80555999999933
 10
240.66118999999955
 20
-64.78117599999932
 10
240.68938399999954
 20
-64.75780799999932
 10
240.71833999999956
 20
-64.73520199999932
 10
240.74780399999955
 20
-64.71335799999932
 10
240.77777599999956
 20
-64.69252999999932
 10
240.80850999999956
 20
-64.67246399999932
 10
240.83975199999958
 20
-64.65341399999932
 10
240.87150199999957
 20
-64.63537999999932
 10
240.90375999999955
 20
-64.61810799999932
 10
240.93652599999956
 20
-64.60185199999933
 10
240.96979999999957
 20
-64.58661199999932
 10
241.00358199999957
 20
-64.57238799999932
 10
241.03761799999955
 20
-64.55892599999932
 10
241.07216199999957
 20
-64.54647999999932
 10
241.10695999999953
 20
-64.53504999999932
 10
241.14226599999955
 20
-64.52463599999932
 10
241.17782599999956
 20
-64.51523799999931
 10
241.21363999999954
 20
-64.50685599999932
 10
241.24970799999954
 20
-64.49948999999933
 10
241.28602999999956
 20
-64.49339399999933
 10
241.32260599999955
 20
-64.48831399999932
 10
241.35943599999956
 20
-64.48424999999932
 10
241.39651999999953
 20
-64.48120199999933
 10
241.43385799999956
 20
-64.47942399999933
 10
241.47144999999955
 20
-64.47866199999932
 10
241.60657799999956
 20
-64.47866199999932
 10
241.74170599999957
 20
-64.47866199999932
 10
241.87683399999958
 20
-64.47866199999932
 10
242.01196199999958
 20
-64.47866199999932
 10
242.14708999999962
 20
-64.47866199999932
 10
242.28221799999963
 20
-64.47866199999932
 10
242.41734599999964
 20
-64.47866199999932
 10
242.55247399999965
 20
-64.47866199999932
 10
242.68760199999966
 20
-64.47866199999932
 10
242.82272999999967
 20
-64.47866199999932
 10
242.95785799999967
 20
-64.47866199999932
 10
243.09298599999968
 20
-64.47866199999932
 10
243.2281139999997
 20
-64.47866199999932
 10
243.3632419999997
 20
-64.47866199999932
 10
243.4983699999997
 20
-64.47866199999932
 10
243.63349799999972
 20
-64.47866199999932
 10
243.76862599999973
 20
-64.47866199999932
 10
243.90375399999974
 20
-64.47866199999932
 10
244.03888199999975
 20
-64.47866199999932
 10
244.17400999999975
 20
-64.47866199999932
 10
244.30913799999976
 20
-64.47866199999932
 10
244.44426599999977
 20
-64.47866199999932
 10
244.57939399999978
 20
-64.47866199999932
 10
244.7145219999998
 20
-64.47866199999932
 10
244.8496499999998
 20
-64.47866199999932
 10
244.9847779999998
 20
-64.47866199999932
 10
245.11990599999982
 20
-64.47866199999932
 10
245.25503399999982
 20
-64.47866199999932
 10
245.39016199999983
 20
-64.47866199999932
 10
245.52528999999987
 20
-64.47866199999932
 10
245.66041799999988
 20
-64.47866199999932
 10
245.7955459999999
 20
-64.47866199999932
 10
245.87479399999987
 20
-64.47713799999933
 10
245.95353399999988
 20
-64.47281999999933
 10
246.03176599999986
 20
-64.46596199999932
 10
246.10923599999984
 20
-64.45630999999932
 10
246.18619799999985
 20
-64.44386399999932
 10
246.26239799999985
 20
-64.42887799999933
 10
246.33783599999984
 20
-64.41135199999933
 10
246.41225799999984
 20
-64.39128599999933
 10
246.48591799999983
 20
-64.36867999999933
 10
246.55856199999982
 20
-64.34353399999932
 10
246.63018999999983
 20
-64.31584799999932
 10
246.70054799999986
 20
-64.28587599999933
 10
246.76988999999986
 20
-64.25336399999934
 10
246.83796199999986
 20
-64.21856599999933
 10
246.90476399999986
 20
-64.18148199999933
 10
246.97029599999988
 20
-64.14211199999933
 10
247.03430399999988
 20
-64.10045599999934
 10
247.09704199999985
 20
-64.05676799999934
 10
247.15825599999985
 20
-64.01079399999934
 10
247.21769199999986
 20
-63.962787999999335
 10
247.27560399999984
 20
-63.912749999999335
 10
247.33173799999986
 20
-63.860679999999334
 10
247.38634799999986
 20
-63.806577999999334
 10
247.43892599999987
 20
-63.750443999999334
 10
247.48972599999988
 20
-63.692277999999334
 10
247.53874799999986
 20
-63.63233399999933
 10
247.58573799999985
 20
-63.570611999999336
 10
247.63069599999986
 20
-63.50711199999933
 10
247.67336799999987
 20
-63.44183399999933
 10
247.71400799999984
 20
-63.37477799999933
 10
247.75236199999983
 20
-63.305943999999336
 10
247.78842999999983
 20
-63.23533199999934
 10
247.85599399999984
 20
-63.097409999999336
 10
247.92355799999984
 20
-62.95948799999933
 10
247.99112199999982
 20
-62.82156599999933
 10
248.05868599999982
 20
-62.68364399999933
 10
248.1262499999998
 20
-62.54572199999933
 10
248.1938139999998
 20
-62.40779999999933
 10
248.26137799999978
 20
-62.26987799999932
 10
248.32894199999978
 20
-62.13195599999932
 10
248.39650599999976
 20
-61.994033999999324
 10
248.46406999999977
 20
-61.85611199999932
 10
248.53163399999974
 20
-61.71818999999932
 10
248.59919799999975
 20
-61.580267999999315
 10
248.66676199999972
 20
-61.44234599999932
 10
248.73432599999973
 20
-61.304423999999315
 10
248.8018899999997
 20
-61.16650199999931
 10
248.8694539999997
 20
-61.02857999999931
 10
248.93701799999968
 20
-60.890657999999306
 10
249.0045819999997
 20
-60.75273599999931
 10
249.07214599999966
 20
-60.614813999999306
 10
249.13970999999967
 20
-60.4768919999993
 10
249.20727399999964
 20
-60.3389699999993
 10
249.27483799999965
 20
-60.201047999999304
 10
249.34240199999962
 20
-60.0631259999993
 10
249.40996599999963
 20
-59.9252039999993
 10
249.4775299999996
 20
-59.787281999999294
 10
249.5450939999996
 20
-59.64935999999929
 10
249.61265799999958
 20
-59.511437999999295
 10
249.6802219999996
 20
-59.37351599999929
 10
249.74778599999956
 20
-59.23559399999929
 10
249.81534999999957
 20
-59.097671999999285
 10
249.88291399999954
 20
-58.95974999999929
 10
249.95047799999955
 20
-58.821827999999286
 10
248.37847199999956
 20
-58.81954199999929
 10
246.80646599999957
 20
-58.81725599999929
 10
245.2344599999996
 20
-58.81496999999929
 10
243.66245399999957
 20
-58.8126839999993
 10
242.09044799999958
 20
-58.8103979999993
 10
240.5184419999996
 20
-58.808111999999305
 10
238.9464359999996
 20
-58.80582599999931
 10
237.37442999999962
 20
-58.803539999999316
 10
235.80242399999963
 20
-58.80125399999932
 10
234.23041799999964
 20
-58.79896799999932
 10
232.65841199999966
 20
-58.79668199999932
 10
231.08640599999964
 20
-58.794395999999324
 10
229.51439999999965
 20
-58.79210999999933
 10
227.94239399999967
 20
-58.789823999999335
 10
226.37038799999968
 20
-58.78753799999934
 10
224.7983819999997
 20
-58.78525199999934
 10
223.2263759999997
 20
-58.78296599999934
 10
221.65436999999972
 20
-58.78067999999935
 10
220.08236399999973
 20
-58.77839399999935
 10
218.5103579999997
 20
-58.776107999999354
 10
216.93835199999972
 20
-58.773821999999356
 10
215.36634599999974
 20
-58.771535999999365
 10
213.79433999999975
 20
-58.76924999999937
 10
212.22233399999976
 20
-58.76696399999937
 10
210.65032799999977
 20
-58.76467799999937
 10
209.0783219999998
 20
-58.76239199999937
 10
207.5063159999998
 20
-58.76010599999938
 10
205.93430999999978
 20
-58.757819999999384
 10
204.3623039999998
 20
-58.755533999999386
 10
202.7902979999998
 20
-58.75324799999939
 10
201.21829199999982
 20
-58.75096199999939
 10
199.64628599999983
 20
-58.7486759999994
  0
LWPOLYLINE
  5
31
330
17
100
AcDbEntity
  8
0
100
AcDbPolyline
 90
257
 70
0
 10
272.86661199999986
 20
-58.9970879999994
 10
272.7789819999998
 20
-58.9988659999994
 10
272.6918599999998
 20
-59.0039459999994
 10
272.60549999999984
 20
-59.0123279999994
 10
272.51990199999983
 20
-59.024011999999395
 10
272.4353199999998
 20
-59.0387439999994
 10
272.3517539999998
 20
-59.0567779999994
 10
272.26920399999983
 20
-59.0778599999994
 10
272.18766999999986
 20
-59.1019899999994
 10
272.10740599999986
 20
-59.129167999999396
 10
272.02841199999983
 20
-59.1591399999994
 10
271.95068799999984
 20
-59.19215999999939
 10
271.8744879999999
 20
-59.22797399999939
 10
271.7995579999998
 20
-59.26658199999939
 10
271.7264059999998
 20
-59.30798399999939
 10
271.65477799999985
 20
-59.35192599999939
 10
271.5849279999998
 20
-59.39866199999939
 10
271.5168559999998
 20
-59.44793799999939
 10
271.4505619999998
 20
-59.49975399999939
 10
271.38629999999984
 20
-59.553855999999385
 10
271.3240699999999
 20
-59.61049799999939
 10
271.2638719999998
 20
-59.66942599999939
 10
271.20570599999985
 20
-59.7306399999994
 10
271.14982599999985
 20
-59.794139999999395
 10
271.0962319999998
 20
-59.85992599999939
 10
271.04517799999985
 20
-59.927743999999386
 10
270.9964099999998
 20
-59.997847999999394
 10
270.9501819999998
 20
-60.06998399999939
 10
270.9067479999998
 20
-60.14415199999939
 10
270.8658539999998
 20
-60.22009799999939
 10
270.82775399999974
 20
-60.29807599999939
 10
270.7924479999998
 20
-60.37783199999939
 10
270.7601899999998
 20
-60.459365999999385
 10
270.7144699999998
 20
-60.58128599999938
 10
270.66900399999975
 20
-60.70320599999938
 10
270.6232839999997
 20
-60.82512599999938
 10
270.57781799999975
 20
-60.947045999999375
 10
270.53209799999973
 20
-61.06896599999937
 10
270.4866319999997
 20
-61.190885999999374
 10
270.4409119999997
 20
-61.31280599999937
 10
270.39519199999967
 20
-61.434725999999365
 10
270.34972599999963
 20
-61.55664599999936
 10
270.3040059999996
 20
-61.67856599999936
 10
270.2585399999996
 20
-61.80048599999936
 10
270.21281999999957
 20
-61.922405999999356
 10
270.16709999999955
 20
-62.04432599999935
 10
270.1216339999995
 20
-62.16624599999935
 10
270.0759139999995
 20
-62.28816599999935
 10
270.0304479999995
 20
-62.410085999999346
 10
269.9847279999995
 20
-62.53200599999934
 10
269.9390079999995
 20
-62.65392599999934
 10
269.89354199999946
 20
-62.77584599999933
 10
269.84782199999944
 20
-62.897765999999336
 10
269.8023559999994
 20
-63.01968599999933
 10
269.7566359999994
 20
-63.14160599999933
 10
269.7109159999994
 20
-63.263525999999324
 10
269.66544999999934
 20
-63.38544599999933
 10
269.6197299999993
 20
-63.50736599999932
 10
269.57426399999935
 20
-63.62928599999932
 10
269.52854399999933
 20
-63.751205999999314
 10
269.4828239999993
 20
-63.87312599999932
 10
269.4373579999993
 20
-63.99504599999931
 10
269.39163799999926
 20
-64.11696599999931
 10
269.3461719999992
 20
-64.23888599999931
 10
269.3004519999992
 20
-64.3608059999993
 10
269.2996899999992
 20
-64.3641079999993
 10
269.29892799999925
 20
-64.36740999999931
 10
269.29816599999924
 20
-64.3707119999993
 10
269.2974039999993
 20
-64.3740139999993
 10
269.2966419999993
 20
-64.37731599999931
 10
269.29587999999933
 20
-64.38061799999932
 10
269.2951179999993
 20
-64.3839199999993
 10
269.29435599999937
 20
-64.38722199999931
 10
269.29359399999936
 20
-64.39052399999932
 10
269.2928319999994
 20
-64.39382599999932
 10
269.2920699999994
 20
-64.39712799999931
 10
269.29130799999945
 20
-64.40042999999932
 10
269.29054599999944
 20
-64.40373199999932
 10
269.2897839999995
 20
-64.40703399999933
 10
269.2890219999995
 20
-64.41033599999932
 10
269.2882599999995
 20
-64.41363799999932
 10
269.2874979999995
 20
-64.41693999999933
 10
269.2867359999995
 20
-64.42024199999933
 10
269.28597399999956
 20
-64.42354399999932
 10
269.28521199999955
 20
-64.42684599999933
 10
269.2844499999996
 20
-64.43014799999933
 10
269.2836879999996
 20
-64.43344999999933
 10
269.28292599999963
 20
-64.43675199999933
 10
269.2821639999996
 20
-64.44005399999934
 10
269.2814019999997
 20
-64.44335599999934
 10
269.28063999999966
 20
-64.44665799999933
 10
269.2798779999997
 20
-64.44995999999934
 10
269.2791159999997
 20
-64.45326199999934
 10
269.27835399999975
 20
-64.45656399999935
 10
269.27759199999974
 20
-64.45986599999934
 10
269.2768299999998
 20
-64.46316799999934
 10
269.2760679999998
 20
-64.46646999999935
 10
269.5331159999998
 20
-64.46646999999935
 10
269.7901639999998
 20
-64.46646999999935
 10
270.0472119999997
 20
-64.46646999999935
 10
270.3042599999997
 20
-64.46646999999935
 10
270.5613079999997
 20
-64.46646999999935
 10
270.8183559999997
 20
-64.46646999999935
 10
271.0754039999997
 20
-64.46646999999935
 10
271.33245199999965
 20
-64.46646999999935
 10
271.58949999999965
 20
-64.46646999999935
 10
271.84654799999964
 20
-64.46646999999935
 10
272.10359599999964
 20
-64.46646999999935
 10
272.36064399999964
 20
-64.46646999999935
 10
272.6176919999996
 20
-64.46646999999935
 10
272.8747399999996
 20
-64.46646999999935
 10
273.1317879999996
 20
-64.46646999999935
 10
273.38883599999957
 20
-64.46646999999935
 10
273.64588399999957
 20
-64.46646999999935
 10
273.9029319999995
 20
-64.46646999999935
 10
274.1599799999995
 20
-64.46646999999935
 10
274.4170279999995
 20
-64.46646999999935
 10
274.6740759999995
 20
-64.46646999999935
 10
274.93112399999944
 20
-64.46646999999935
 10
275.18817199999944
 20
-64.46646999999935
 10
275.44521999999944
 20
-64.46646999999935
 10
275.70226799999944
 20
-64.46646999999935
 10
275.95931599999943
 20
-64.46646999999935
 10
276.2163639999994
 20
-64.46646999999935
 10
276.47341199999937
 20
-64.46646999999935
 10
276.73045999999937
 20
-64.46646999999935
 10
276.98750799999937
 20
-64.46646999999935
 10
277.24455599999936
 20
-64.46646999999935
 10
277.5016039999993
 20
-64.46646999999935
 10
277.53487799999937
 20
-64.46570799999935
 10
277.5678979999994
 20
-64.46367599999935
 10
277.60066399999937
 20
-64.46037399999935
 10
277.6331759999993
 20
-64.45580199999935
 10
277.66517999999934
 20
-64.44995999999935
 10
277.6969299999993
 20
-64.44284799999934
 10
277.72817199999935
 20
-64.43471999999934
 10
277.7591599999994
 20
-64.42532199999934
 10
277.78963999999934
 20
-64.41490799999934
 10
277.8196119999993
 20
-64.40322399999934
 10
277.8490759999993
 20
-64.39052399999935
 10
277.87803199999934
 20
-64.37680799999934
 10
277.9062259999993
 20
-64.36182199999935
 10
277.93391199999934
 20
-64.34581999999935
 10
277.96083599999935
 20
-64.32880199999934
 10
277.98725199999933
 20
-64.31076799999934
 10
278.01290599999936
 20
-64.29171799999935
 10
278.0377979999993
 20
-64.27190599999935
 10
278.06192799999934
 20
-64.25107799999935
 10
278.0852959999994
 20
-64.22923399999935
 10
278.1079019999994
 20
-64.20662799999934
 10
278.1297459999994
 20
-64.18300599999935
 10
278.1505739999994
 20
-64.15862199999935
 10
278.17063999999937
 20
-64.13347599999935
 10
278.1896899999994
 20
-64.10756799999935
 10
278.20772399999936
 20
-64.08064399999935
 10
278.22499599999935
 20
-64.05295799999935
 10
278.2412519999994
 20
-64.02450999999935
 10
278.25623799999937
 20
-63.99555399999935
 10
278.2702079999994
 20
-63.96583599999935
 10
278.2831619999994
 20
-63.93535599999935
 10
278.29509999999937
 20
-63.90411399999935
 10
278.3535199999994
 20
-63.756539999999355
 10
278.4119399999994
 20
-63.608965999999356
 10
278.4703599999994
 20
-63.461391999999364
 10
278.5287799999994
 20
-63.313817999999365
 10
278.5871999999994
 20
-63.16624399999937
 10
278.64561999999944
 20
-63.01866999999937
 10
278.70403999999945
 20
-62.871095999999376
 10
278.7624599999994
 20
-62.72352199999938
 10
278.8208799999994
 20
-62.57594799999938
 10
278.87929999999943
 20
-62.42837399999938
 10
278.93771999999944
 20
-62.28079999999938
 10
278.99613999999946
 20
-62.13322599999939
 10
279.05455999999947
 20
-61.98565199999939
 10
279.1129799999995
 20
-61.83807799999939
 10
279.17139999999944
 20
-61.69050399999939
 10
279.22981999999945
 20
-61.5429299999994
 10
279.28823999999946
 20
-61.3953559999994
 10
279.3466599999995
 20
-61.247781999999404
 10
279.4050799999995
 20
-61.100207999999405
 10
279.4634999999995
 20
-60.95263399999941
 10
279.5219199999995
 20
-60.805059999999415
 10
279.58033999999947
 20
-60.657485999999416
 10
279.6387599999995
 20
-60.50991199999942
 10
279.6971799999995
 20
-60.36233799999942
 10
279.7555999999995
 20
-60.21476399999943
 10
279.8140199999995
 20
-60.06718999999943
 10
279.87243999999953
 20
-59.91961599999943
 10
279.93085999999954
 20
-59.77204199999943
 10
279.98927999999955
 20
-59.62446799999943
 10
280.0476999999995
 20
-59.47689399999944
 10
280.1061199999995
 20
-59.32931999999944
 10
280.16453999999953
 20
-59.18174599999944
 10
280.1683499999996
 20
-59.17590399999944
 10
280.17215999999956
 20
-59.17006199999945
 10
280.17571599999957
 20
-59.164219999999446
 10
280.1795259999996
 20
-59.158377999999445
 10
280.1833359999996
 20
-59.15253599999945
 10
280.18714599999964
 20
-59.14669399999945
 10
280.1907019999996
 20
-59.14085199999945
 10
280.19451199999963
 20
-59.135009999999454
 10
280.1983219999997
 20
-59.12916799999945
 10
280.20213199999966
 20
-59.12332599999945
 10
280.2059419999997
 20
-59.11748399999946
 10
280.2094979999997
 20
-59.111641999999456
 10
280.2133079999997
 20
-59.105799999999455
 10
280.21711799999974
 20
-59.09995799999946
 10
280.2209279999998
 20
-59.09411599999946
 10
280.22448399999973
 20
-59.08827399999946
 10
280.2282939999998
 20
-59.08243199999946
 10
280.23210399999977
 20
-59.07658999999946
 10
280.2359139999998
 20
-59.07074799999946
 10
280.23972399999985
 20
-59.06490599999946
 10
280.2432799999998
 20
-59.059063999999466
 10
280.24708999999984
 20
-59.053221999999465
 10
280.2508999999999
 20
-59.047379999999464
 10
280.2547099999999
 20
-59.04153799999947
 10
280.2585199999999
 20
-59.03569599999947
 10
280.26207599999987
 20
-59.02985399999947
 10
280.2658859999999
 20
-59.02401199999947
 10
280.26969599999995
 20
-59.01816999999947
 10
280.27350599999994
 20
-59.01232799999947
 10
280.27706199999994
 20
-59.00648599999948
 10
280.280872
 20
-59.000643999999475
 10
280.284682
 20
-58.994801999999474
 10
280.05303399999997
 20
-58.994801999999474
 10
279.82138599999996
 20
-58.994801999999474
 10
279.58973799999995
 20
-58.994801999999474
 10
279.35808999999995
 20
-58.994801999999474
 10
279.12644199999994
 20
-58.994801999999474
 10
278.89479399999993
 20
-58.994801999999474
 10
278.6631459999999
 20
-58.994801999999474
 10
278.4314979999999
 20
-58.994801999999474
 10
278.1998499999999
 20
-58.994801999999474
 10
277.9682019999999
 20
-58.994801999999474
 10
277.7365539999999
 20
-58.994801999999474
 10
277.5049059999999
 20
-58.994801999999474
 10
277.2732579999999
 20
-58.994801999999474
 10
277.0416099999999
 20
-58.994801999999474
 10
276.80996199999987
 20
-58.994801999999474
 10
276.57831399999986
 20
-58.994801999999474
 10
276.34666599999986
 20
-58.994801999999474
 10
276.11501799999985
 20
-58.994801999999474
 10
275.88336999999984
 20
-58.994801999999474
 10
275.65172199999984
 20
-58.994801999999474
 10
275.42007399999983
 20
-58.994801999999474
 10
275.1884259999998
 20
-58.994801999999474
 10
274.9567779999998
 20
-58.994801999999474
 10
274.72512999999975
 20
-58.994801999999474
 10
274.49348199999974
 20
-58.994801999999474
 10
274.26183399999974
 20
-58.994801999999474
 10
274.03018599999973
 20
-58.994801999999474
 10
273.7985379999997
 20
-58.994801999999474
 10
273.5668899999997
 20
-58.994801999999474
 10
273.3352419999997
 20
-58.994801999999474
 10
273.1035939999997
 20
-58.994801999999474
 10
272.8719459999997
 20
-58.994801999999474
  0
LWPOLYLINE
  5
32
330
17
100
AcDbEntity
  8
0
100
AcDbPolyline
 90
129
 70
0
 10
235.5735699999997
 20
-64.70751599999947
 10
235.5692519999997
 20
-64.87540999999948
 10
235.5565519999997
 20
-65.04101799999947
 10
235.5357239999997
 20
-65.20433999999946
 10
235.5070219999997
 20
-65.36486799999946
 10
235.47069999999968
 20
-65.52260199999945
 10
235.42675799999967
 20
-65.67728799999945
 10
235.3754499999997
 20
-65.82867199999946
 10
235.31702999999968
 20
-65.97675399999946
 10
235.25175199999967
 20
-66.12127999999946
 10
235.1796159999997
 20
-66.26199599999946
 10
235.1011299999997
 20
-66.39864799999945
 10
235.0162939999997
 20
-66.53098199999947
 10
234.92536199999972
 20
-66.65874399999946
 10
234.82858799999974
 20
-66.78193399999947
 10
234.72597199999973
 20
-66.90029799999947
 10
234.61802199999974
 20
-67.01358199999947
 10
234.50473799999972
 20
-67.12153199999948
 10
234.38637399999973
 20
-67.22414799999947
 10
234.26318399999974
 20
-67.32092199999947
 10
234.13542199999972
 20
-67.41185399999947
 10
234.00308799999974
 20
-67.49668999999948
 10
233.86643599999974
 20
-67.57517599999947
 10
233.72571999999974
 20
-67.64731199999947
 10
233.58119399999975
 20
-67.71258999999948
 10
233.43311199999974
 20
-67.77100999999948
 10
233.28172799999976
 20
-67.82231799999948
 10
233.12704199999973
 20
-67.86625999999949
 10
232.96930799999976
 20
-67.90258199999947
 10
232.80877999999976
 20
-67.93128399999948
 10
232.64545799999973
 20
-67.95211199999947
 10
232.47984999999974
 20
-67.96481199999947
 10
232.31195599999975
 20
-67.96912999999947
 10
232.14406199999976
 20
-67.96481199999947
 10
231.97845399999974
 20
-67.95211199999947
 10
231.81513199999975
 20
-67.93128399999948
 10
231.65460399999975
 20
-67.90258199999947
 10
231.49686999999977
 20
-67.86625999999949
 10
231.34218399999975
 20
-67.82231799999948
 10
231.19054599999976
 20
-67.77100999999948
 10
231.04246399999977
 20
-67.71258999999948
 10
230.89793799999978
 20
-67.64731199999947
 10
230.75722199999979
 20
-67.57517599999947
 10
230.6205699999998
 20
-67.49668999999948
 10
230.4882359999998
 20
-67.41185399999947
 10
230.36047399999978
 20
-67.32092199999947
 10
230.2372839999998
 20
-67.22414799999947
 10
230.11891999999978
 20
-67.12153199999948
 10
230.00563599999978
 20
-67.01358199999947
 10
229.8976859999998
 20
-66.90029799999947
 10
229.79506999999978
 20
-66.78193399999947
 10
229.6982959999998
 20
-66.65874399999946
 10
229.6073639999998
 20
-66.53098199999947
 10
229.52252799999982
 20
-66.39864799999945
 10
229.44404199999983
 20
-66.26199599999946
 10
229.37190599999983
 20
-66.12127999999946
 10
229.30662799999985
 20
-65.97675399999946
 10
229.24820799999983
 20
-65.82867199999946
 10
229.19689999999983
 20
-65.67728799999945
 10
229.15295799999984
 20
-65.52260199999945
 10
229.11663599999983
 20
-65.36486799999946
 10
229.08793399999982
 20
-65.20433999999946
 10
229.06710599999982
 20
-65.04101799999947
 10
229.05440599999983
 20
-64.87540999999948
 10
229.05008799999982
 20
-64.70751599999947
 10
229.05440599999983
 20
-64.53962199999947
 10
229.06710599999982
 20
-64.37401399999948
 10
229.08793399999982
 20
-64.21069199999947
 10
229.11663599999983
 20
-64.05016399999947
 10
229.15295799999984
 20
-63.89242999999947
 10
229.19689999999983
 20
-63.737743999999466
 10
229.24820799999983
 20
-63.58610599999947
 10
229.30662799999985
 20
-63.438023999999466
 10
229.37190599999983
 20
-63.29349799999947
 10
229.44404199999983
 20
-63.15278199999947
 10
229.52252799999982
 20
-63.016129999999464
 10
229.6073639999998
 20
-62.88379599999947
 10
229.6982959999998
 20
-62.756033999999474
 10
229.79506999999978
 20
-62.63284399999947
 10
229.8976859999998
 20
-62.514479999999466
 10
230.00563599999978
 20
-62.401195999999466
 10
230.11891999999978
 20
-62.29324599999946
 10
230.2372839999998
 20
-62.190629999999466
 10
230.36047399999978
 20
-62.09385599999947
 10
230.4882359999998
 20
-62.00292399999947
 10
230.6205699999998
 20
-61.918087999999464
 10
230.75722199999979
 20
-61.839601999999466
 10
230.89793799999978
 20
-61.767465999999466
 10
231.04246399999977
 20
-61.70218799999947
 10
231.19054599999976
 20
-61.64376799999947
 10
231.34218399999975
 20
-61.59245999999947
 10
231.49686999999977
 20
-61.54851799999947
 10
231.65460399999975
 20
-61.51219599999947
 10
231.81513199999975
 20
-61.48349399999947
 10
231.97845399999974
 20
-61.46266599999947
 10
232.14406199999976
 20
-61.44996599999947
 10
232.31195599999975
 20
-61.445647999999466
 10
232.47984999999974
 20
-61.44996599999947
 10
232.64545799999973
 20
-61.46266599999947
 10
232.80877999999976
 20
-61.48349399999947
 10
232.96930799999976
 20
-61.51219599999947
 10
233.12704199999973
 20
-61.54851799999947
 10
233.28172799999976
 20
-61.59245999999947
 10
233.43311199999974
 20
-61.64376799999947
 10
233.58119399999975
 20
-61.70218799999947
 10
233.72571999999974
 20
-61.767465999999466
 10
233.86643599999974
 20
-61.839601999999466
 10
234.00308799999974
 20
-61.918087999999464
 10
234.13542199999972
 20
-62.00292399999947
 10
234.26318399999974
 20
-62.09385599999947
 10
234.38637399999973
 20
-62.190629999999466
 10
234.50473799999972
 20
-62.29324599999946
 10
234.61802199999974
 20
-62.401195999999466
 10
234.72597199999973
 20
-62.514479999999466
 10
234.82858799999974
 20
-62.63284399999947
 10
234.92536199999972
 20
-62.756033999999474
 10
235.0162939999997
 20
-62.88379599999947
 10
235.1011299999997
 20
-63.016129999999464
 10
235.1796159999997
 20
-63.15278199999947
 10
235.25175199999967
 20
-63.29349799999947
 10
235.31702999999968
 20
-63.438023999999466
 10
235.3754499999997
 20
-63.58610599999947
 10
235.42675799999967
 20
-63.737743999999466
 10
235.47069999999968
 20
-63.89242999999947
 10
235.5070219999997
 20
-64.05016399999947
 10
235.5357239999997
 20
-64.21069199999947
 10
235.5565519999997
 20
-64.37401399999948
 10
235.5692519999997
 20
-64.53962199999947
 10
235.5735699999997
 20
-64.70751599999947
  0
LWPOLYLINE
  5
33
330
17
100
AcDbEntity
  8
0
100
AcDbPolyline
 90
353
 70
0
 10
239.25047399999968
 20
-73.31303599999947
 10
239.3424219999997
 20
-73.16342999999947
 10
239.4343699999997
 20
-73.01382399999947
 10
239.52631799999966
 20
-72.86421799999947
 10
239.61826599999966
 20
-72.71461199999948
 10
239.71021399999967
 20
-72.56500599999947
 10
239.80216199999964
 20
-72.41539999999948
 10
239.89410999999964
 20
-72.26579399999947
 10
239.98605799999962
 20
-72.11618799999947
 10
240.07800599999962
 20
-71.96658199999948
 10
240.16995399999962
 20
-71.81697599999947
 10
240.2619019999996
 20
-71.66736999999948
 10
240.3538499999996
 20
-71.51776399999947
 10
240.4457979999996
 20
-71.36815799999947
 10
240.53774599999957
 20
-71.21855199999948
 10
240.62969399999957
 20
-71.06894599999947
 10
240.72164199999955
 20
-70.91933999999948
 10
240.81358999999955
 20
-70.76973399999947
 10
240.90553799999955
 20
-70.62012799999948
 10
240.99748599999953
 20
-70.47052199999948
 10
241.08943399999953
 20
-70.32091599999947
 10
241.18138199999953
 20
-70.17130999999948
 10
241.2733299999995
 20
-70.02170399999947
 10
241.3652779999995
 20
-69.87209799999948
 10
241.45722599999948
 20
-69.72249199999948
 10
241.54917399999948
 20
-69.57288599999949
 10
241.64112199999948
 20
-69.42327999999948
 10
241.73306999999946
 20
-69.27367399999947
 10
241.82501799999946
 20
-69.12406799999948
 10
241.91696599999946
 20
-68.97446199999948
 10
242.00891399999944
 20
-68.82485599999949
 10
242.10086199999944
 20
-68.67524999999948
 10
242.1928099999994
 20
-68.52564399999949
 10
242.23040199999943
 20
-68.46646199999948
 10
242.26977199999942
 20
-68.40880399999949
 10
242.31091999999944
 20
-68.35266999999949
 10
242.35359199999942
 20
-68.2980599999995
 10
242.39778799999942
 20
-68.24497399999949
 10
242.4435079999994
 20
-68.1936659999995
 10
242.49075199999942
 20
-68.14388199999948
 10
242.5395199999994
 20
-68.09587599999948
 10
242.58981199999943
 20
-68.04939399999948
 10
242.64137399999942
 20
-68.00468999999948
 10
242.6942059999994
 20
-67.96150999999948
 10
242.74830799999938
 20
-67.92010799999947
 10
242.8036799999994
 20
-67.88048399999947
 10
242.86032199999937
 20
-67.84263799999948
 10
242.91797999999937
 20
-67.80656999999948
 10
242.97690799999936
 20
-67.77253399999947
 10
243.03685199999936
 20
-67.74027599999947
 10
243.09781199999935
 20
-67.71004999999947
 10
243.15953399999938
 20
-67.68160199999946
 10
243.22227199999935
 20
-67.65518599999946
 10
243.28577199999935
 20
-67.63080199999946
 10
243.35003399999937
 20
-67.60819599999947
 10
243.41505799999936
 20
-67.58762199999946
 10
243.48084399999937
 20
-67.56907999999946
 10
243.54739199999935
 20
-67.55282399999946
 10
243.61470199999934
 20
-67.53859999999946
 10
243.68251999999936
 20
-67.52640799999946
 10
243.75084599999937
 20
-67.51650199999946
 10
243.81967999999935
 20
-67.50862799999946
 10
243.88902199999936
 20
-67.50303999999946
 10
243.95861799999938
 20
-67.49973799999947
 10
244.02872199999936
 20
-67.49872199999946
 10
245.26062199999936
 20
-67.51319999999947
 10
246.49252199999935
 20
-67.52767799999947
 10
247.72442199999938
 20
-67.54215599999948
 10
248.95632199999937
 20
-67.55663399999948
 10
250.18822199999937
 20
-67.57111199999949
 10
251.4201219999994
 20
-67.58558999999948
 10
252.6520219999994
 20
-67.6000679999995
 10
253.8839219999994
 20
-67.61454599999949
 10
255.1158219999994
 20
-67.6290239999995
 10
256.3477219999994
 20
-67.6435019999995
 10
257.5796219999994
 20
-67.65797999999951
 10
258.8115219999994
 20
-67.67245799999951
 10
260.04342199999945
 20
-67.68693599999952
 10
261.27532199999945
 20
-67.70141399999952
 10
262.5069679999994
 20
-67.71589199999953
 10
263.7388679999994
 20
-67.73036999999954
 10
264.9707679999994
 20
-67.74484799999954
 10
266.20266799999933
 20
-67.75932599999955
 10
267.43456799999933
 20
-67.77380399999954
 10
268.6664679999993
 20
-67.78828199999955
 10
269.8981139999993
 20
-67.80275999999955
 10
271.1300139999993
 20
-67.81723799999956
 10
272.3619139999992
 20
-67.83171599999956
 10
273.5938139999992
 20
-67.84619399999957
 10
274.8257139999992
 20
-67.86067199999957
 10
276.05761399999915
 20
-67.87514999999958
 10
277.28925999999916
 20
-67.88962799999958
 10
278.52115999999916
 20
-67.90410599999959
 10
279.7530599999991
 20
-67.91858399999958
 10
280.9849599999991
 20
-67.9330619999996
 10
282.2168599999991
 20
-67.94753999999959
 10
283.448759999999
 20
-67.9620179999996
 10
283.28340599999905
 20
-68.23455999999959
 10
283.118051999999
 20
-68.50710199999959
 10
282.952697999999
 20
-68.77964399999958
 10
282.787343999999
 20
-69.05218599999958
 10
282.62198999999896
 20
-69.32472799999957
 10
282.4566359999989
 20
-69.59726999999957
 10
282.29128199999894
 20
-69.86981199999956
 10
282.1259279999989
 20
-70.14235399999956
 10
281.96057399999887
 20
-70.41489599999954
 10
281.7952199999989
 20
-70.68743799999955
 10
281.62986599999886
 20
-70.95997999999955
 10
281.4645119999988
 20
-71.23252199999953
 10
281.29915799999884
 20
-71.50506399999954
 10
281.1338039999988
 20
-71.77760599999952
 10
280.96844999999877
 20
-72.05014799999952
 10
280.8030959999988
 20
-72.32268999999951
 10
280.63774199999875
 20
-72.59523199999951
 10
280.4723879999987
 20
-72.8677739999995
 10
280.30703399999874
 20
-73.1403159999995
 10
280.1416799999987
 20
-73.41285799999949
 10
279.97632599999866
 20
-73.68539999999949
 10
279.8109719999987
 20
-73.95794199999948
 10
279.64561799999865
 20
-74.23048399999948
 10
279.4802639999986
 20
-74.50302599999947
 10
279.31490999999863
 20
-74.77556799999947
 10
279.1495559999986
 20
-75.04810999999945
 10
278.98420199999856
 20
-75.32065199999946
 10
278.8188479999986
 20
-75.59319399999946
 10
278.65349399999855
 20
-75.86573599999944
 10
278.4881399999985
 20
-76.13827799999945
 10
278.32278599999853
 20
-76.41081999999943
 10
278.1574319999985
 20
-76.68336199999943
 10
278.1256819999985
 20
-76.68336199999943
 10
278.0936779999985
 20
-76.68336199999943
 10
278.0616739999985
 20
-76.68336199999943
 10
278.0299239999985
 20
-76.68336199999943
 10
277.9979199999985
 20
-76.68336199999943
 10
277.9659159999985
 20
-76.68336199999943
 10
277.9341659999985
 20
-76.68336199999943
 10
277.9021619999985
 20
-76.68336199999943
 10
277.8701579999985
 20
-76.68336199999943
 10
277.83840799999854
 20
-76.68336199999943
 10
277.8064039999985
 20
-76.68336199999943
 10
277.77439999999854
 20
-76.68336199999943
 10
277.74239599999856
 20
-76.68336199999943
 10
277.7106459999985
 20
-76.68336199999943
 10
277.67864199999855
 20
-76.68336199999943
 10
277.6466379999986
 20
-76.68336199999943
 10
277.61488799999853
 20
-76.68336199999943
 10
277.58288399999856
 20
-76.68336199999943
 10
277.5508799999986
 20
-76.68336199999943
 10
277.51912999999854
 20
-76.68336199999943
 10
277.48712599999857
 20
-76.68336199999943
 10
277.4551219999986
 20
-76.68336199999943
 10
277.42311799999857
 20
-76.68336199999943
 10
277.3913679999986
 20
-76.68336199999943
 10
277.3593639999986
 20
-76.68336199999943
 10
277.3273599999986
 20
-76.68336199999943
 10
277.2956099999986
 20
-76.68336199999943
 10
277.2636059999986
 20
-76.68336199999943
 10
277.2316019999986
 20
-76.68336199999943
 10
277.1998519999986
 20
-76.68336199999943
 10
277.1678479999986
 20
-76.68336199999943
 10
277.1358439999986
 20
-76.68336199999943
 10
277.13508199999865
 20
-76.66608999999943
 10
277.13431999999864
 20
-76.64881799999944
 10
277.1335579999987
 20
-76.63154599999945
 10
277.1327959999987
 20
-76.61427399999944
 10
277.1320339999987
 20
-76.59700199999945
 10
277.1312719999987
 20
-76.57972999999946
 10
277.13050999999876
 20
-76.56245799999945
 10
277.12974799999876
 20
-76.54518599999946
 10
277.1289859999988
 20
-76.52791399999947
 10
277.1282239999988
 20
-76.51064199999946
 10
277.12746199999884
 20
-76.49336999999947
 10
277.12669999999883
 20
-76.47609799999948
 10
277.1259379999989
 20
-76.45882599999948
 10
277.1251759999989
 20
-76.44155399999948
 10
277.12441399999886
 20
-76.4242819999995
 10
277.1236519999989
 20
-76.40700999999949
 10
277.1228899999989
 20
-76.3897379999995
 10
277.12212799999895
 20
-76.3724659999995
 10
277.12136599999894
 20
-76.35519399999951
 10
277.120603999999
 20
-76.33792199999951
 10
277.119841999999
 20
-76.32064999999952
 10
277.11907999999903
 20
-76.30337799999953
 10
277.118317999999
 20
-76.28610599999952
 10
277.11755599999907
 20
-76.26883399999953
 10
277.11679399999906
 20
-76.25156199999954
 10
277.1160319999991
 20
-76.23428999999953
 10
277.1152699999991
 20
-76.21701799999954
 10
277.11450799999915
 20
-76.19974599999955
 10
277.11374599999914
 20
-76.18247399999954
 10
277.1129839999992
 20
-76.16520199999955
 10
277.1122219999992
 20
-76.14792999999956
 10
277.11145999999917
 20
-76.13065799999956
 10
277.1073959999992
 20
-76.07528599999955
 10
277.10079199999916
 20
-76.02067599999957
 10
277.09164799999917
 20
-75.96682799999957
 10
277.0799639999991
 20
-75.91399599999956
 10
277.0657399999991
 20
-75.86217999999955
 10
277.0492299999991
 20
-75.81137999999956
 10
277.0304339999991
 20
-75.76159599999956
 10
277.00935199999907
 20
-75.71308199999956
 10
276.9862379999991
 20
-75.66583799999957
 10
276.9608379999991
 20
-75.61986399999957
 10
276.93340599999914
 20
-75.57515999999957
 10
276.9039419999991
 20
-75.53197999999956
 10
276.8726999999991
 20
-75.49006999999956
 10
276.8396799999991
 20
-75.44968399999956
 10
276.8048819999991
 20
-75.41107599999957
 10
276.7683059999991
 20
-75.37399199999956
 10
276.7299519999991
 20
-75.33868599999957
 10
276.69007399999913
 20
-75.30515799999957
 10
276.6486719999991
 20
-75.27340799999956
 10
276.6057459999991
 20
-75.24368999999956
 10
276.5615499999991
 20
-75.21600399999956
 10
276.5158299999991
 20
-75.19034999999957
 10
276.4688399999991
 20
-75.16672799999955
 10
276.42057999999906
 20
-75.14513799999956
 10
276.3713039999991
 20
-75.12583399999956
 10
276.3210119999991
 20
-75.10881599999955
 10
276.2697039999991
 20
-75.09408399999955
 10
276.2173799999991
 20
-75.08189199999956
 10
276.1640399999991
 20
-75.07198599999955
 10
276.1099379999991
 20
-75.06461999999956
 10
276.05507399999914
 20
-75.06004799999957
 10
275.9994479999991
 20
-75.05801599999957
 10
275.0621879999991
 20
-75.04607799999957
 10
274.12492799999904
 20
-75.03413999999955
 10
273.18766799999906
 20
-75.02220199999955
 10
272.250407999999
 20
-75.01026399999955
 10
271.31314799999905
 20
-74.99832599999954
 10
270.375887999999
 20
-74.98638799999954
 10
269.438627999999
 20
-74.97444999999952
 10
268.501367999999
 20
-74.96251199999952
 10
267.56410799999895
 20
-74.95057399999952
 10
266.626847999999
 20
-74.9386359999995
 10
265.68958799999893
 20
-74.9266979999995
 10
264.75232799999895
 20
-74.91475999999949
 10
263.8150679999989
 20
-74.90282199999949
 10
262.8778079999989
 20
-74.89088399999949
 10
261.9405479999989
 20
-74.87894599999947
 10
261.00328799999886
 20
-74.86700799999947
 10
260.0660279999989
 20
-74.85506999999946
 10
259.12876799999884
 20
-74.84313199999946
 10
258.19150799999886
 20
-74.83119399999946
 10
257.2542479999988
 20
-74.81925599999944
 10
256.3169879999988
 20
-74.80731799999944
 10
255.3797279999988
 20
-74.79537999999943
 10
254.44246799999877
 20
-74.78344199999943
 10
253.50520799999876
 20
-74.77150399999941
 10
252.56794799999875
 20
-74.75956599999941
 10
251.63068799999874
 20
-74.74762799999941
 10
250.69342799999873
 20
-74.7356899999994
 10
249.75616799999872
 20
-74.7237519999994
 10
248.8189079999987
 20
-74.71181399999938
 10
247.88164799999868
 20
-74.69987599999938
 10
246.94438799999867
 20
-74.68793799999938
 10
246.00712799999866
 20
-74.67599999999936
 10
245.87987399999867
 20
-74.67396799999938
 10
245.75261999999867
 20
-74.67193599999938
 10
245.62536599999868
 20
-74.66990399999938
 10
245.49811199999868
 20
-74.66787199999939
 10
245.3708579999987
 20
-74.66583999999939
 10
245.2436039999987
 20
-74.66380799999939
 10
245.1163499999987
 20
-74.66177599999939
 10
244.9890959999987
 20
-74.6597439999994
 10
244.86184199999872
 20
-74.6577119999994
 10
244.73458799999872
 20
-74.6556799999994
 10
244.60733399999873
 20
-74.65364799999942
 10
244.48007999999874
 20
-74.65161599999942
 10
244.35282599999874
 20
-74.64958399999942
 10
244.22557199999875
 20
-74.64755199999944
 10
244.09831799999876
 20
-74.64551999999944
 10
243.97106399999876
 20
-74.64348799999944
 10
243.84380999999877
 20
-74.64145599999945
 10
243.71655599999877
 20
-74.63942399999945
 10
243.58930199999878
 20
-74.63739199999945
 10
243.4620479999988
 20
-74.63535999999947
 10
243.3347939999988
 20
-74.63332799999947
 10
243.2075399999988
 20
-74.63129599999947
 10
243.0802859999988
 20
-74.62926399999948
 10
242.9530319999988
 20
-74.62723199999948
 10
242.82577799999882
 20
-74.62519999999948
 10
242.6985239999988
 20
-74.6231679999995
 10
242.5712699999988
 20
-74.6211359999995
 10
242.4440159999988
 20
-74.6191039999995
 10
242.31676199999882
 20
-74.61707199999951
 10
242.18950799999882
 20
-74.61503999999951
 10
242.06225399999883
 20
-74.61300799999951
 10
241.93499999999884
 20
-74.61097599999951
 10
241.87937399999885
 20
-74.60945199999952
 10
241.82374799999883
 20
-74.60691199999953
 10
241.76837599999882
 20
-74.60335599999952
 10
241.71325799999883
 20
-74.59878399999953
 10
241.65813999999884
 20
-74.59319599999954
 10
241.60327599999883
 20
-74.58633799999954
 10
241.54866599999883
 20
-74.57846399999954
 10
241.49405599999884
 20
-74.56957399999953
 10
241.4396999999988
 20
-74.55966799999953
 10
241.38559799999882
 20
-74.54874599999953
 10
241.3317499999988
 20
-74.53680799999952
 10
241.27815599999883
 20
-74.52385399999953
 10
241.2248159999988
 20
-74.50988399999953
 10
241.17172999999883
 20
-74.49489799999952
 10
241.11915199999882
 20
-74.47889599999952
 10
241.06682799999882
 20
-74.46187799999952
 10
241.0147579999988
 20
-74.44384399999952
 10
240.96319599999882
 20
-74.42479399999952
 10
240.9118879999988
 20
-74.40472799999951
 10
240.8610879999988
 20
-74.3836459999995
 10
240.8105419999988
 20
-74.36154799999952
 10
240.7605039999988
 20
-74.33868799999952
 10
240.71071999999882
 20
-74.31481199999952
 10
240.66144399999882
 20
-74.28991999999951
 10
240.61267599999883
 20
-74.26401199999952
 10
240.5644159999988
 20
-74.23708799999952
 10
240.5166639999988
 20
-74.20940199999953
 10
240.4694199999988
 20
-74.18069999999953
 10
240.4226839999988
 20
-74.15098199999952
 10
240.3764559999988
 20
-74.12024799999952
 10
240.3307359999988
 20
-74.08875199999952
 10
240.28552399999882
 20
-74.05623999999952
 10
240.25326599999883
 20
-74.03261799999952
 10
240.22100799999885
 20
-74.00899599999951
 10
240.18874999999886
 20
-73.98537399999951
 10
240.15649199999885
 20
-73.9617519999995
 10
240.12423399999886
 20
-73.9381299999995
 10
240.09197599999888
 20
-73.9145079999995
 10
240.0597179999989
 20
-73.8908859999995
 10
240.0274599999989
 20
-73.8672639999995
 10
239.99520199999893
 20
-73.84364199999949
 10
239.96294399999894
 20
-73.82001999999947
 10
239.93068599999896
 20
-73.79639799999947
 10
239.89842799999894
 20
-73.77277599999947
 10
239.86616999999896
 20
-73.74915399999946
 10
239.83391199999897
 20
-73.72553199999946
 10
239.801653999999
 20
-73.70190999999946
 10
239.769395999999
 20
-73.67828799999945
 10
239.73713799999902
 20
-73.65466599999945
 10
239.70487999999904
 20
-73.63104399999945
 10
239.67262199999905
 20
-73.60742199999945
 10
239.64036399999904
 20
-73.58379999999943
 10
239.60810599999905
 20
-73.56017799999942
 10
239.57584799999907
 20
-73.53655599999942
 10
239.54358999999909
 20
-73.51293399999942
 10
239.5113319999991
 20
-73.48931199999942
 10
239.47907399999912
 20
-73.46568999999941
 10
239.44681599999913
 20
-73.44206799999941
 10
239.41455799999915
 20
-73.4184459999994
 10
239.38229999999916
 20
-73.3948239999994
 10
239.35004199999915
 20
-73.3712019999994
 10
239.31778399999916
 20
-73.3475799999994
 10
239.28552599999918
 20
-73.32395799999938
 10
239.2532679999992
 20
-73.30033599999938
  0
LWPOLYLINE
  5
34
330
17
100
AcDbEntity
  8
0
100
AcDbPolyline
 90
129
 70
0
 10
179.0550139999992
 20
-47.44923199999938
 10
178.8264139999992
 20
-47.438309999999376
 10
178.5978139999992
 20
-47.427387999999375
 10
178.36921399999923
 20
-47.416465999999375
 10
178.14061399999923
 20
-47.405543999999374
 10
177.91201399999923
 20
-47.39462199999937
 10
177.68341399999923
 20
-47.383699999999365
 10
177.45481399999923
 20
-47.372777999999364
 10
177.22621399999926
 20
-47.361855999999364
 10
176.99761399999926
 20
-47.35093399999936
 10
176.76901399999926
 20
-47.34001199999936
 10
176.54041399999926
 20
-47.32908999999936
 10
176.31181399999926
 20
-47.31816799999936
 10
176.0832139999993
 20
-47.30724599999936
 10
175.8546139999993
 20
-47.29632399999935
 10
175.6260139999993
 20
-47.28540199999935
 10
175.3974139999993
 20
-47.27447999999935
 10
175.1688139999993
 20
-47.26355799999935
 10
174.94021399999932
 20
-47.25263599999935
 10
174.71161399999932
 20
-47.24171399999935
 10
174.48301399999932
 20
-47.23079199999935
 10
174.25441399999931
 20
-47.21986999999935
 10
174.02581399999931
 20
-47.208947999999346
 10
173.79721399999934
 20
-47.19802599999934
 10
173.56861399999934
 20
-47.18710399999934
 10
173.34001399999934
 20
-47.176181999999336
 10
173.11141399999934
 20
-47.165259999999336
 10
172.88281399999937
 20
-47.154337999999335
 10
172.65421399999937
 20
-47.143415999999334
 10
172.42561399999937
 20
-47.13249399999933
 10
172.19701399999937
 20
-47.12157199999933
 10
171.96841399999937
 20
-47.110649999999325
 10
171.7398139999994
 20
-47.099727999999324
 10
171.64354799999938
 20
-47.43195999999932
 10
171.54728199999937
 20
-47.76419199999932
 10
171.45101599999938
 20
-48.096423999999324
 10
171.35474999999937
 20
-48.42865599999932
 10
171.25848399999936
 20
-48.76088799999932
 10
171.16221799999937
 20
-49.09311999999932
 10
171.06595199999936
 20
-49.425351999999315
 10
170.96968599999934
 20
-49.75758399999931
 10
170.87341999999936
 20
-50.08981599999931
 10
170.77715399999934
 20
-50.42204799999931
 10
170.68088799999933
 20
-50.754279999999305
 10
170.58462199999934
 20
-51.0865119999993
 10
170.48835599999933
 20
-51.4187439999993
 10
170.3920899999993
 20
-51.7509759999993
 10
170.2958239999993
 20
-52.083207999999296
 10
170.1995579999993
 20
-52.41543999999929
 10
170.1032919999993
 20
-52.7476719999993
 10
170.00702599999929
 20
-53.079903999999296
 10
169.9107599999993
 20
-53.41213599999929
 10
169.81449399999929
 20
-53.74436799999929
 10
169.71822799999927
 20
-54.07659999999929
 10
169.6219619999993
 20
-54.408831999999286
 10
169.52569599999927
 20
-54.741063999999284
 10
169.42942999999926
 20
-55.07329599999928
 10
169.33316399999927
 20
-55.40552799999928
 10
169.23689799999926
 20
-55.73775999999928
 10
169.14063199999924
 20
-56.069991999999274
 10
169.04436599999926
 20
-56.40222399999927
 10
168.94809999999924
 20
-56.73445599999927
 10
168.85183399999923
 20
-57.066687999999274
 10
168.75556799999924
 20
-57.39891999999927
 10
168.65930199999923
 20
-57.73115199999927
 10
168.76775999999924
 20
-57.731659999999266
 10
168.87621799999926
 20
-57.73216799999927
 10
168.98467599999924
 20
-57.73267599999927
 10
169.09313399999925
 20
-57.73318399999928
 10
169.20159199999927
 20
-57.73369199999928
 10
169.31004999999925
 20
-57.734199999999284
 10
169.41850799999926
 20
-57.73470799999929
 10
169.52696599999928
 20
-57.735215999999284
 10
169.6354239999993
 20
-57.73572399999929
 10
169.74388199999927
 20
-57.73623199999929
 10
169.8523399999993
 20
-57.736739999999294
 10
169.9607979999993
 20
-57.7372479999993
 10
170.0692559999993
 20
-57.7377559999993
 10
170.1777139999993
 20
-57.738263999999305
 10
170.2861719999993
 20
-57.7387719999993
 10
170.39462999999932
 20
-57.739279999999304
 10
170.5030879999993
 20
-57.73978799999931
 10
170.61154599999932
 20
-57.74029599999931
 10
170.72000399999934
 20
-57.740803999999315
 10
170.82846199999935
 20
-57.74131199999932
 10
170.93691999999933
 20
-57.741819999999315
 10
171.04537799999935
 20
-57.74232799999932
 10
171.15383599999936
 20
-57.74283599999932
 10
171.26229399999937
 20
-57.743343999999325
 10
171.37075199999936
 20
-57.74385199999933
 10
171.47920999999937
 20
-57.74435999999933
 10
171.58766799999938
 20
-57.744867999999336
 10
171.69612599999937
 20
-57.74537599999933
 10
171.80458399999938
 20
-57.745883999999336
 10
171.9130419999994
 20
-57.74639199999934
 10
172.0214999999994
 20
-57.74689999999934
 10
172.1299579999994
 20
-57.747407999999346
 10
172.3461119999994
 20
-57.42533599999935
 10
172.5622659999994
 20
-57.10351799999935
 10
172.77841999999941
 20
-56.78169999999935
 10
172.9945739999994
 20
-56.45988199999935
 10
173.2107279999994
 20
-56.138063999999346
 10
173.4268819999994
 20
-55.81599199999935
 10
173.6430359999994
 20
-55.49417399999935
 10
173.8591899999994
 20
-55.172355999999354
 10
174.0753439999994
 20
-54.850537999999354
 10
174.2914979999994
 20
-54.528465999999355
 10
174.5076519999994
 20
-54.206647999999355
 10
174.7238059999994
 20
-53.884829999999354
 10
174.9399599999994
 20
-53.563011999999354
 10
175.1561139999994
 20
-53.24119399999935
 10
175.3722679999994
 20
-52.919121999999355
 10
175.5884219999994
 20
-52.597303999999355
 10
175.8045759999994
 20
-52.275485999999354
 10
176.0207299999994
 20
-51.95366799999936
 10
176.2368839999994
 20
-51.631595999999355
 10
176.4530379999994
 20
-51.30977799999936
 10
176.66919199999938
 20
-50.98795999999936
 10
176.8853459999994
 20
-50.66614199999936
 10
177.1014999999994
 20
-50.34432399999936
 10
177.3176539999994
 20
-50.02225199999936
 10
177.5338079999994
 20
-49.70043399999936
 10
177.74996199999939
 20
-49.37861599999936
 10
177.9661159999994
 20
-49.05679799999937
 10
178.1822699999994
 20
-48.73472599999936
 10
178.3984239999994
 20
-48.41290799999937
 10
178.6145779999994
 20
-48.09108999999937
 10
178.8307319999994
 20
-47.76927199999937
 10
179.0468859999994
 20
-47.44745399999937
  0
LWPOLYLINE
  5
35
330
17
100
AcDbEntity
  8
0
100
AcDbPolyline
 90
641
 70
0
 10
254.0264159999994
 20
-50.98770599999936
 10
253.62153999999936
 20
-50.969417999999365
 10
253.21666399999935
 20
-50.95112999999937
 10
252.81178799999935
 20
-50.93284199999936
 10
252.40691199999932
 20
-50.91455399999936
 10
252.00203599999932
 20
-50.896265999999365
 10
251.5971599999993
 20
-50.87797799999936
 10
251.1922839999993
 20
-50.85968999999936
 10
250.7874079999993
 20
-50.84140199999936
 10
250.38253199999926
 20
-50.82311399999936
 10
249.97765599999926
 20
-50.80482599999936
 10
249.57277999999923
 20
-50.78653799999936
 10
249.16790399999923
 20
-50.768249999999355
 10
248.76302799999922
 20
-50.74996199999936
 10
248.3581519999992
 20
-50.73167399999936
 10
247.9532759999992
 20
-50.71338599999935
 10
247.54839999999916
 20
-50.695097999999355
 10
247.14352399999916
 20
-50.67680999999936
 10
246.73864799999916
 20
-50.65852199999935
 10
246.33377199999913
 20
-50.64023399999935
 10
245.92889599999913
 20
-50.621945999999355
 10
245.5240199999991
 20
-50.60365799999935
 10
245.1191439999991
 20
-50.58536999999935
 10
244.7142679999991
 20
-50.56708199999935
 10
244.30939199999906
 20
-50.54879399999935
 10
243.90451599999906
 20
-50.53050599999935
 10
243.49963999999903
 20
-50.51221799999935
 10
243.09476399999903
 20
-50.493929999999345
 10
242.68988799999903
 20
-50.47564199999935
 10
242.285011999999
 20
-50.45735399999935
 10
241.880135999999
 20
-50.43906599999934
 10
241.47525999999897
 20
-50.420777999999345
 10
241.07038399999897
 20
-50.40248999999935
 10
241.07038399999897
 20
-50.41036399999935
 10
241.07038399999897
 20
-50.41823799999935
 10
241.07038399999897
 20
-50.42611199999935
 10
241.07038399999897
 20
-50.43398599999935
 10
241.07038399999897
 20
-50.44185999999935
 10
241.07038399999897
 20
-50.44973399999935
 10
241.07038399999897
 20
-50.457607999999354
 10
241.07038399999897
 20
-50.465481999999355
 10
241.07038399999897
 20
-50.473355999999356
 10
241.07038399999897
 20
-50.48122999999936
 10
241.07038399999897
 20
-50.48910399999936
 10
241.07038399999897
 20
-50.49697799999936
 10
241.07038399999897
 20
-50.50485199999937
 10
241.07038399999897
 20
-50.51272599999937
 10
241.07038399999897
 20
-50.52059999999937
 10
241.07038399999897
 20
-50.52847399999937
 10
241.07038399999897
 20
-50.53634799999937
 10
241.07038399999897
 20
-50.54422199999937
 10
241.07038399999897
 20
-50.55209599999937
 10
241.07038399999897
 20
-50.559969999999375
 10
241.07038399999897
 20
-50.567843999999376
 10
241.07038399999897
 20
-50.57571799999938
 10
241.07038399999897
 20
-50.58359199999938
 10
241.07038399999897
 20
-50.59146599999938
 10
241.07038399999897
 20
-50.59933999999938
 10
241.07038399999897
 20
-50.60721399999938
 10
241.07038399999897
 20
-50.61508799999938
 10
241.07038399999897
 20
-50.62296199999938
 10
241.07038399999897
 20
-50.63083599999939
 10
241.07038399999897
 20
-50.63870999999939
 10
241.07038399999897
 20
-50.64658399999939
 10
241.07038399999897
 20
-50.654457999999394
 10
241.06885999999898
 20
-50.71440199999939
 10
241.06428799999895
 20
-50.77358399999939
 10
241.05692199999896
 20
-50.831749999999396
 10
241.04676199999898
 20
-50.888899999999396
 10
241.03380799999897
 20
-50.945287999999394
 10
241.01805999999897
 20
-51.0004059999994
 10
240.99977199999896
 20
-51.054507999999394
 10
240.97894399999896
 20
-51.1073399999994
 10
240.95557599999896
 20
-51.158901999999394
 10
240.92992199999895
 20
-51.208939999999394
 10
240.90172799999897
 20
-51.2577079999994
 10
240.87150199999897
 20
-51.3049519999994
 10
240.83898999999894
 20
-51.3504179999994
 10
240.80444599999896
 20
-51.3943599999994
 10
240.76786999999896
 20
-51.4365239999994
 10
240.72926199999895
 20
-51.4769099999994
 10
240.68887599999894
 20
-51.515263999999405
 10
240.64671199999893
 20
-51.5515859999994
 10
240.60276999999894
 20
-51.5858759999994
 10
240.55704999999895
 20
-51.6181339999994
 10
240.50980599999895
 20
-51.6483599999994
 10
240.46103799999892
 20
-51.67629999999941
 10
240.41074599999894
 20
-51.701699999999406
 10
240.35918399999895
 20
-51.724813999999405
 10
240.30635199999895
 20
-51.7453879999994
 10
240.25224999999895
 20
-51.7634219999994
 10
240.19687799999897
 20
-51.778915999999406
 10
240.14048999999898
 20
-51.79161599999941
 10
240.08308599999899
 20
-51.8015219999994
 10
240.02491999999896
 20
-51.8086339999994
 10
239.965737999999
 20
-51.8129519999994
 10
239.905793999999
 20
-51.8142219999994
 10
239.249457999999
 20
-51.8081259999994
 10
238.593121999999
 20
-51.8020299999994
 10
237.93678599999902
 20
-51.7959339999994
 10
237.28044999999904
 20
-51.7898379999994
 10
236.62411399999905
 20
-51.7837419999994
 10
235.96777799999907
 20
-51.7776459999994
 10
235.3114419999991
 20
-51.7715499999994
 10
234.65510599999908
 20
-51.7654539999994
 10
233.9987699999991
 20
-51.759357999999395
 10
233.34243399999912
 20
-51.753261999999395
 10
232.68609799999913
 20
-51.747165999999396
 10
232.02976199999915
 20
-51.7410699999994
 10
231.37342599999917
 20
-51.7349739999994
 10
230.7170899999992
 20
-51.7288779999994
 10
230.06075399999918
 20
-51.7227819999994
 10
229.4044179999992
 20
-51.7166859999994
 10
228.74808199999921
 20
-51.7105899999994
 10
228.09174599999923
 20
-51.70449399999939
 10
227.43540999999925
 20
-51.69839799999939
 10
226.77907399999927
 20
-51.692301999999394
 10
226.12273799999926
 20
-51.686205999999395
 10
225.46640199999928
 20
-51.680109999999395
 10
224.8100659999993
 20
-51.674013999999396
 10
224.1537299999993
 20
-51.667917999999396
 10
223.49739399999933
 20
-51.6618219999994
 10
222.84105799999935
 20
-51.6557259999994
 10
222.18472199999934
 20
-51.64962999999939
 10
221.52838599999936
 20
-51.64353399999939
 10
220.87204999999938
 20
-51.63743799999939
 10
220.2157139999994
 20
-51.63134199999939
 10
219.5593779999994
 20
-51.62524599999939
 10
218.90304199999943
 20
-51.619149999999394
 10
218.87154599999943
 20
-51.61864199999939
 10
218.8400499999994
 20
-51.61762599999939
 10
218.8085539999994
 20
-51.61584799999939
 10
218.7773119999994
 20
-51.6135619999994
 10
218.74606999999938
 20
-51.610767999999396
 10
218.71482799999936
 20
-51.6074659999994
 10
218.68383999999938
 20
-51.6036559999994
 10
218.6528519999994
 20
-51.5990839999994
 10
218.6218639999994
 20
-51.594003999999394
 10
218.5911299999994
 20
-51.5884159999994
 10
218.5603959999994
 20
-51.5823199999994
 10
218.52991599999942
 20
-51.575715999999396
 10
218.4994359999994
 20
-51.5686039999994
 10
218.4692099999994
 20
-51.560729999999396
 10
218.4392379999994
 20
-51.5523479999994
 10
218.40926599999938
 20
-51.5434579999994
 10
218.37954799999937
 20
-51.5340599999994
 10
218.3498299999994
 20
-51.5241539999994
 10
218.32036599999938
 20
-51.5137399999994
 10
218.2911559999994
 20
-51.5028179999994
 10
218.26219999999938
 20
-51.491387999999404
 10
218.2332439999994
 20
-51.4794499999994
 10
218.20454199999935
 20
-51.467003999999406
 10
218.17609399999938
 20
-51.454049999999405
 10
218.14789999999937
 20
-51.44058799999941
 10
218.11995999999937
 20
-51.42661799999941
 10
218.09227399999935
 20
-51.41213999999941
 10
218.06484199999937
 20
-51.39715399999941
 10
218.03766399999938
 20
-51.38165999999941
 10
218.01073999999937
 20
-51.36565799999941
 10
217.98406999999938
 20
-51.34914799999941
 10
217.95765399999937
 20
-51.33212999999941
 10
217.88069199999936
 20
-51.281583999999405
 10
217.80372999999938
 20
-51.2310379999994
 10
217.72676799999937
 20
-51.1804919999994
 10
217.64980599999936
 20
-51.12994599999939
 10
217.57284399999938
 20
-51.079399999999396
 10
217.49588199999937
 20
-51.02885399999939
 10
217.41891999999936
 20
-50.97830799999939
 10
217.34195799999938
 20
-50.92776199999938
 10
217.26499599999937
 20
-50.87721599999938
 10
217.18803399999936
 20
-50.826669999999375
 10
217.11107199999938
 20
-50.77612399999938
 10
217.03410999999937
 20
-50.72557799999937
 10
216.95714799999936
 20
-50.67503199999937
 10
216.88018599999938
 20
-50.624485999999365
 10
216.80322399999937
 20
-50.57393999999936
 10
216.72626199999937
 20
-50.52339399999936
 10
216.64929999999939
 20
-50.47284799999935
 10
216.57233799999938
 20
-50.422301999999355
 10
216.49537599999937
 20
-50.37175599999935
 10
216.4184139999994
 20
-50.32120999999935
 10
216.34145199999938
 20
-50.27066399999934
 10
216.26448999999937
 20
-50.22011799999934
 10
216.1875279999994
 20
-50.169571999999334
 10
216.11056599999938
 20
-50.11902599999933
 10
216.03360399999937
 20
-50.06847999999933
 10
215.9566419999994
 20
-50.01793399999933
 10
215.87967999999938
 20
-49.967387999999325
 10
215.80271799999937
 20
-49.91684199999932
 10
215.7257559999994
 20
-49.866295999999316
 10
215.64879399999938
 20
-49.81574999999931
 10
215.57183199999938
 20
-49.765203999999315
 10
215.4948699999994
 20
-49.71465799999931
 10
215.2390919999994
 20
-49.71465799999931
 10
214.9833139999994
 20
-49.71465799999931
 10
214.72753599999942
 20
-49.71465799999931
 10
214.47175799999945
 20
-49.71465799999931
 10
214.21597999999946
 20
-49.71465799999931
 10
213.96020199999947
 20
-49.71465799999931
 10
213.70442399999948
 20
-49.71465799999931
 10
213.44864599999948
 20
-49.71465799999931
 10
213.19286799999952
 20
-49.71465799999931
 10
212.93708999999953
 20
-49.71465799999931
 10
212.68131199999954
 20
-49.71465799999931
 10
212.42553399999954
 20
-49.71465799999931
 10
212.16975599999955
 20
-49.71465799999931
 10
211.9139779999996
 20
-49.71465799999931
 10
211.6581999999996
 20
-49.71465799999931
 10
211.4024219999996
 20
-49.71465799999931
 10
211.1466439999996
 20
-49.71465799999931
 10
210.89086599999962
 20
-49.71465799999931
 10
210.63508799999963
 20
-49.71465799999931
 10
210.37930999999966
 20
-49.71465799999931
 10
210.12353199999967
 20
-49.71465799999931
 10
209.86775399999968
 20
-49.71465799999931
 10
209.6119759999997
 20
-49.71465799999931
 10
209.3561979999997
 20
-49.71465799999931
 10
209.10041999999973
 20
-49.71465799999931
 10
208.84464199999974
 20
-49.71465799999931
 10
208.58886399999975
 20
-49.71465799999931
 10
208.33308599999975
 20
-49.71465799999931
 10
208.07730799999976
 20
-49.71465799999931
 10
207.8215299999998
 20
-49.71465799999931
 10
207.5657519999998
 20
-49.71465799999931
 10
207.3099739999998
 20
-49.71465799999931
 10
207.2452039999998
 20
-49.71338799999931
 10
207.18119599999983
 20
-49.70983199999931
 10
207.11769599999982
 20
-49.70398999999931
 10
207.05495799999983
 20
-49.69586199999931
 10
206.99298199999984
 20
-49.685447999999305
 10
206.93176799999983
 20
-49.6727479999993
 10
206.8713159999998
 20
-49.65801599999931
 10
206.81162599999982
 20
-49.64099799999931
 10
206.75295199999982
 20
-49.62194799999931
 10
206.69503999999984
 20
-49.60086599999931
 10
206.6381439999998
 20
-49.57775199999931
 10
206.5822639999998
 20
-49.5528599999993
 10
206.5273999999998
 20
-49.525935999999305
 10
206.4738059999998
 20
-49.4972339999993
 10
206.42122799999981
 20
-49.4667539999993
 10
206.3699199999998
 20
-49.4344959999993
 10
206.31962799999982
 20
-49.400459999999306
 10
206.27060599999982
 20
-49.364645999999304
 10
206.2228539999998
 20
-49.327307999999306
 10
206.1766259999998
 20
-49.28844599999931
 10
206.13166799999982
 20
-49.24780599999931
 10
206.0882339999998
 20
-49.20589599999931
 10
206.0460699999998
 20
-49.162461999999316
 10
206.0054299999998
 20
-49.117503999999315
 10
205.96631399999978
 20
-49.07127599999932
 10
205.9287219999998
 20
-49.02352399999932
 10
205.8929079999998
 20
-48.97450199999932
 10
205.8586179999998
 20
-48.92420999999932
 10
205.82610599999978
 20
-48.872901999999314
 10
205.7953719999998
 20
-48.82032399999932
 10
205.7664159999998
 20
-48.76672999999931
 10
205.7392379999998
 20
-48.71186599999931
 10
205.6947879999998
 20
-48.70983399999931
 10
205.6503379999998
 20
-48.70780199999931
 10
205.60588799999982
 20
-48.705769999999305
 10
205.56143799999984
 20
-48.703737999999305
 10
205.51698799999986
 20
-48.7017059999993
 10
205.47253799999987
 20
-48.6996739999993
 10
205.42808799999986
 20
-48.6976419999993
 10
205.38363799999988
 20
-48.69560999999929
 10
205.3391879999999
 20
-48.69357799999929
 10
205.2947379999999
 20
-48.69154599999929
 10
205.25028799999993
 20
-48.689513999999285
 10
205.20583799999991
 20
-48.687481999999285
 10
205.16138799999993
 20
-48.68544999999928
 10
205.11693799999995
 20
-48.68341799999928
 10
205.07248799999996
 20
-48.68138599999928
 10
205.02803799999998
 20
-48.67935399999927
 10
204.983588
 20
-48.67732199999927
 10
204.93913799999999
 20
-48.67528999999927
 10
204.894688
 20
-48.673257999999265
 10
204.85023800000002
 20
-48.671225999999265
 10
204.80578800000004
 20
-48.66919399999926
 10
204.76133800000005
 20
-48.66716199999926
 10
204.71688800000007
 20
-48.66512999999926
 10
204.67243800000006
 20
-48.66309799999925
 10
204.62798800000007
 20
-48.66106599999925
 10
204.5835380000001
 20
-48.65903399999925
 10
204.5390880000001
 20
-48.657001999999245
 10
204.49463800000012
 20
-48.654969999999246
 10
204.4501880000001
 20
-48.65293799999924
 10
204.40573800000013
 20
-48.65090599999924
 10
204.36128800000014
 20
-48.64887399999924
 10
204.31683800000016
 20
-48.64684199999923
 10
204.09357200000017
 20
-48.93462399999924
 10
203.87030600000014
 20
-49.22240599999924
 10
203.64704000000015
 20
-49.51018799999924
 10
203.42377400000015
 20
-49.797969999999246
 10
203.20050800000013
 20
-50.085751999999246
 10
202.97724200000013
 20
-50.373533999999246
 10
202.75397600000014
 20
-50.66131599999925
 10
202.5307100000001
 20
-50.94909799999925
 10
202.30744400000012
 20
-51.23687999999926
 10
202.08417800000012
 20
-51.52466199999926
 10
201.8609120000001
 20
-51.81244399999926
 10
201.6376460000001
 20
-52.10022599999927
 10
201.4143800000001
 20
-52.38800799999927
 10
201.19111400000008
 20
-52.67578999999927
 10
200.9678480000001
 20
-52.963571999999274
 10
200.7445820000001
 20
-53.251353999999274
 10
200.52131600000007
 20
-53.539135999999274
 10
200.29805000000007
 20
-53.82691799999928
 10
200.07478400000008
 20
-54.11469999999928
 10
199.85151800000006
 20
-54.40248199999928
 10
199.62825200000006
 20
-54.69026399999929
 10
199.40498600000006
 20
-54.97804599999929
 10
199.18172000000004
 20
-55.26582799999929
 10
198.95845400000005
 20
-55.553609999999296
 10
198.73518800000005
 20
-55.841391999999296
 10
198.51192200000003
 20
-56.1291739999993
 10
198.28865600000003
 20
-56.4169559999993
 10
198.06539000000004
 20
-56.7047379999993
 10
197.842124
 20
-56.99251999999931
 10
197.61885800000002
 20
-57.28030199999931
 10
197.39559200000002
 20
-57.56808399999931
 10
197.172326
 20
-57.85586599999932
 10
197.924166
 20
-57.85891399999932
 10
198.67600600000003
 20
-57.861961999999316
 10
199.42784600000005
 20
-57.865009999999316
 10
200.17968600000003
 20
-57.868057999999316
 10
200.93152600000005
 20
-57.871105999999315
 10
201.68336600000006
 20
-57.874153999999315
 10
202.43520600000008
 20
-57.877201999999315
 10
203.18704600000007
 20
-57.880249999999315
 10
203.93888600000008
 20
-57.883297999999314
 10
204.6907260000001
 20
-57.886345999999314
 10
205.4425660000001
 20
-57.889393999999314
 10
206.19440600000013
 20
-57.89244199999931
 10
206.94624600000012
 20
-57.89548999999931
 10
207.69808600000013
 20
-57.89853799999931
 10
208.44992600000015
 20
-57.90158599999931
 10
209.20176600000016
 20
-57.90463399999932
 10
209.95360600000015
 20
-57.90768199999932
 10
210.70544600000017
 20
-57.91072999999932
 10
211.45728600000018
 20
-57.91377799999932
 10
212.2091260000002
 20
-57.91682599999932
 10
212.9609660000002
 20
-57.91987399999932
 10
213.7128060000002
 20
-57.92292199999932
 10
214.46464600000022
 20
-57.92596999999932
 10
215.21648600000023
 20
-57.92901799999932
 10
215.96832600000025
 20
-57.93206599999932
 10
216.72016600000023
 20
-57.93511399999932
 10
217.47200600000025
 20
-57.938161999999316
 10
218.22384600000026
 20
-57.941209999999316
 10
218.97568600000028
 20
-57.944257999999316
 10
219.7275260000003
 20
-57.947305999999315
 10
220.47936600000028
 20
-57.950353999999315
 10
221.2312060000003
 20
-57.953401999999315
 10
221.2543200000003
 20
-57.95314799999932
 10
221.2774340000003
 20
-57.95238599999932
 10
221.3005480000003
 20
-57.951115999999324
 10
221.3234080000003
 20
-57.94908399999932
 10
221.34626800000032
 20
-57.94654399999932
 10
221.36887400000035
 20
-57.94349599999932
 10
221.39148000000034
 20
-57.93993999999932
 10
221.41408600000037
 20
-57.93562199999932
 10
221.43643800000035
 20
-57.93079599999932
 10
221.45853600000035
 20
-57.92546199999932
 10
221.48063400000035
 20
-57.91961999999932
 10
221.50247800000037
 20
-57.91326999999932
 10
221.52406800000037
 20
-57.90641199999932
 10
221.54565800000037
 20
-57.898791999999325
 10
221.56699400000036
 20
-57.89066399999932
 10
221.58807600000034
 20
-57.88202799999932
 10
221.60890400000034
 20
-57.872883999999324
 10
221.62947800000035
 20
-57.86323199999932
 10
221.64979800000037
 20
-57.85307199999932
 10
221.66986400000036
 20
-57.84240399999932
 10
221.68967600000033
 20
-57.83122799999932
 10
221.70923400000035
 20
-57.81954399999932
 10
221.72853800000036
 20
-57.80735199999932
 10
221.74758800000035
 20
-57.79465199999932
 10
221.76638400000036
 20
-57.78144399999932
 10
221.78467200000034
 20
-57.767727999999316
 10
221.80270600000037
 20
-57.75350399999932
 10
221.82048600000036
 20
-57.73902599999932
 10
221.83801200000036
 20
-57.72403999999932
 10
221.85503000000037
 20
-57.708545999999316
 10
221.87179400000036
 20
-57.69254399999932
 10
221.88805000000036
 20
-57.67603399999932
 10
221.91929200000038
 20
-57.64377599999932
 10
221.95053400000037
 20
-57.611517999999315
 10
221.9817760000004
 20
-57.579259999999316
 10
222.01301800000041
 20
-57.54700199999931
 10
222.04426000000043
 20
-57.51474399999931
 10
222.07550200000043
 20
-57.482485999999305
 10
222.10674400000045
 20
-57.450227999999306
 10
222.13798600000047
 20
-57.4179699999993
 10
222.16922800000046
 20
-57.3857119999993
 10
222.20047000000048
 20
-57.353453999999296
 10
222.2317120000005
 20
-57.3211959999993
 10
222.26295400000052
 20
-57.28893799999929
 10
222.2941960000005
 20
-57.25667999999929
 10
222.32543800000053
 20
-57.22442199999929
 10
222.35668000000055
 20
-57.19216399999929
 10
222.38792200000054
 20
-57.15990599999928
 10
222.41916400000056
 20
-57.12764799999928
 10
222.45040600000058
 20
-57.09538999999928
 10
222.48164800000058
 20
-57.06313199999928
 10
222.5128900000006
 20
-57.03087399999927
 10
222.54413200000062
 20
-56.998615999999274
 10
222.57537400000064
 20
-56.96635799999927
 10
222.60661600000063
 20
-56.93409999999927
 10
222.63785800000065
 20
-56.90184199999926
 10
222.66910000000067
 20
-56.869583999999264
 10
222.70034200000066
 20
-56.83732599999926
 10
222.73158400000068
 20
-56.80506799999926
 10
222.7628260000007
 20
-56.772809999999254
 10
222.79406800000072
 20
-56.74055199999925
 10
222.8253100000007
 20
-56.70829399999925
 10
222.85655200000073
 20
-56.67603599999924
 10
222.88779400000075
 20
-56.643777999999244
 10
222.90430400000076
 20
-56.62701399999924
 10
222.92106800000076
 20
-56.610757999999244
 10
222.93834000000075
 20
-56.59500999999924
 10
222.95586600000075
 20
-56.57976999999924
 10
222.97390000000075
 20
-56.56503799999924
 10
222.99218800000077
 20
-56.55081399999924
 10
223.01073000000076
 20
-56.53709799999924
 10
223.02978000000076
 20
-56.52388999999924
 10
223.04908400000076
 20
-56.51118999999924
 10
223.06864200000078
 20
-56.49899799999924
 10
223.08845400000075
 20
-56.48731399999924
 10
223.10852000000077
 20
-56.47613799999924
 10
223.12884000000076
 20
-56.465469999999236
 10
223.14941400000077
 20
-56.45530999999924
 10
223.17024200000077
 20
-56.445657999999234
 10
223.19132400000075
 20
-56.436513999999235
 10
223.21266000000074
 20
-56.42787799999924
 10
223.23425000000074
 20
-56.41974999999923
 10
223.25609400000076
 20
-56.412383999999236
 10
223.27793800000077
 20
-56.40552599999924
 10
223.30003600000074
 20
-56.39917599999924
 10
223.32238800000076
 20
-56.39333399999924
 10
223.34474000000074
 20
-56.387999999999245
 10
223.36734600000077
 20
-56.38342799999924
 10
223.39020600000077
 20
-56.37936399999924
 10
223.41306600000078
 20
-56.37580799999924
 10
223.43618000000077
 20
-56.37275999999924
 10
223.45929400000077
 20
-56.37047399999925
 10
223.4824080000008
 20
-56.36869599999925
 10
223.50577600000076
 20
-56.36742599999925
 10
223.52914400000077
 20
-56.366917999999245
 10
223.55251200000077
 20
-56.366917999999245
 10
223.82149800000076
 20
-56.37021999999924
 10
224.09048400000074
 20
-56.37352199999925
 10
224.35947000000075
 20
-56.376823999999246
 10
224.62845600000074
 20
-56.38012599999925
 10
224.89744200000072
 20
-56.38342799999925
 10
225.1664280000007
 20
-56.386729999999254
 10
225.43541400000072
 20
-56.39003199999925
 10
225.7044000000007
 20
-56.39333399999926
 10
225.9733860000007
 20
-56.396635999999255
 10
226.2423720000007
 20
-56.39993799999926
 10
226.51135800000068
 20
-56.40323999999926
 10
226.78034400000067
 20
-56.406541999999256
 10
227.04933000000065
 20
-56.40984399999926
 10
227.31831600000066
 20
-56.41314599999926
 10
227.58730200000065
 20
-56.416447999999264
 10
227.85628800000063
 20
-56.41974999999926
 10
228.12527400000064
 20
-56.42305199999927
 10
228.39426000000063
 20
-56.426353999999264
 10
228.6632460000006
 20
-56.42965599999927
 10
228.9322320000006
 20
-56.43295799999927
 10
229.2012180000006
 20
-56.43625999999927
 10
229.4702040000006
 20
-56.43956199999927
 10
229.73919000000058
 20
-56.442863999999275
 10
230.0081760000006
 20
-56.44616599999927
 10
230.27716200000057
 20
-56.44946799999928
 10
230.54614800000056
 20
-56.452769999999276
 10
230.81513400000054
 20
-56.45607199999928
 10
231.08412000000055
 20
-56.45937399999928
 10
231.35310600000054
 20
-56.462675999999284
 10
231.62209200000052
 20
-56.46597799999928
 10
231.89107800000053
 20
-56.46927999999929
 10
232.16006400000052
 20
-56.472581999999285
 10
232.1824160000005
 20
-56.47308999999929
 10
232.20476800000048
 20
-56.47410599999929
 10
232.22686600000048
 20
-56.475629999999285
 10
232.24896400000048
 20
-56.47791599999928
 10
232.2708080000005
 20
-56.480709999999284
 10
232.2926520000005
 20
-56.48401199999928
 10
232.3144960000005
 20
-56.48782199999928
 10
232.3360860000005
 20
-56.49213999999928
 10
232.3574220000005
 20
-56.49696599999928
 10
232.3787580000005
 20
-56.50255399999928
 10
232.39984000000047
 20
-56.50864999999928
 10
232.42092200000047
 20
-56.51525399999928
 10
232.44175000000047
 20
-56.52236599999928
 10
232.46232400000048
 20
-56.529985999999276
 10
232.48264400000048
 20
-56.53811399999928
 10
232.50271000000046
 20
-56.54674999999928
 10
232.52252200000046
 20
-56.55589399999928
 10
232.54233400000047
 20
-56.56554599999928
 10
232.56189200000046
 20
-56.57570599999928
 10
232.58119600000046
 20
-56.58637399999928
 10
232.60024600000048
 20
-56.59754999999928
 10
232.61904200000046
 20
-56.60897999999928
 10
232.63733000000047
 20
-56.62091799999928
 10
232.65536400000047
 20
-56.63336399999928
 10
232.6731440000005
 20
-56.646317999999276
 10
232.69067000000047
 20
-56.65977999999928
 10
232.70794200000046
 20
-56.67374999999928
 10
232.72470600000048
 20
-56.68822799999928
 10
232.7412160000005
 20
-56.70295999999927
 10
232.7574720000005
 20
-56.71819999999927
 10
232.7732200000005
 20
-56.73394799999928
 10
232.78871400000048
 20
-56.75020399999928
 10
232.8110660000005
 20
-56.77407999999927
 10
232.83341800000048
 20
-56.797955999999274
 10
232.85577000000046
 20
-56.82183199999927
 10
232.87812200000045
 20
-56.84570799999927
 10
232.90047400000046
 20
-56.86958399999927
 10
232.92282600000044
 20
-56.893459999999266
 10
232.94517800000042
 20
-56.91733599999927
 10
232.9675300000004
 20
-56.94121199999926
 10
232.98988200000042
 20
-56.96508799999926
 10
233.0122340000004
 20
-56.988963999999264
 10
233.0345860000004
 20
-57.01283999999926
 10
233.05693800000037
 20
-57.03671599999926
 10
233.07929000000038
 20
-57.060591999999254
 10
233.10164200000037
 20
-57.084467999999255
 10
233.12399400000035
 20
-57.108343999999256
 10
233.14634600000036
 20
-57.13221999999925
 10
233.16869800000035
 20
-57.15609599999925
 10
233.19105000000033
 20
-57.179971999999246
 10
233.21340200000031
 20
-57.20384799999925
 10
233.23575400000033
 20
-57.22772399999925
 10
233.2581060000003
 20
-57.25159999999924
 10
233.2804580000003
 20
-57.275475999999244
 10
233.30281000000028
 20
-57.29935199999924
 10
233.3251620000003
 20
-57.32322799999924
 10
233.34751400000027
 20
-57.34710399999924
 10
233.36986600000026
 20
-57.370979999999236
 10
233.39221800000024
 20
-57.39485599999924
 10
233.41457000000025
 20
-57.41873199999923
 10
233.43692200000024
 20
-57.44260799999923
 10
233.45927400000022
 20
-57.466483999999234
 10
233.4816260000002
 20
-57.49035999999923
 10
233.50397800000022
 20
-57.51423599999923
 10
233.5265840000002
 20
-57.538111999999224
 10
233.54995200000022
 20
-57.56122599999923
 10
233.57382800000022
 20
-57.58357799999923
 10
233.59821200000025
 20
-57.60542199999923
 10
233.6231040000002
 20
-57.62650399999923
 10
233.64850400000023
 20
-57.647077999999226
 10
233.67441200000022
 20
-57.66688999999923
 10
233.70057400000022
 20
-57.68593999999923
 10
233.7272440000002
 20
-57.704227999999226
 10
233.7544220000002
 20
-57.72200799999922
 10
233.78185400000018
 20
-57.73902599999923
 10
233.8097940000002
 20
-57.75528199999923
 10
233.8379880000002
 20
-57.77077599999922
 10
233.8666900000002
 20
-57.785507999999226
 10
233.89564600000023
 20
-57.799477999999226
 10
233.92511000000022
 20
-57.81293999999922
 10
233.9548280000002
 20
-57.825639999999225
 10
233.9848000000002
 20
-57.837577999999226
 10
234.01502600000023
 20
-57.84875399999923
 10
234.04550600000022
 20
-57.85916799999923
 10
234.07649400000022
 20
-57.86881999999923
 10
234.10773600000022
 20
-57.87745599999923
 10
234.13897800000024
 20
-57.88532999999923
 10
234.17047400000024
 20
-57.89244199999923
 10
234.20222400000026
 20
-57.89879199999923
 10
234.23422800000023
 20
-57.90437999999923
 10
234.2664860000002
 20
-57.90920599999923
 10
234.29874400000023
 20
-57.91326999999923
 10
234.33125600000022
 20
-57.91631799999923
 10
234.36402200000023
 20
-57.91860399999922
 10
234.39678800000024
 20
-57.920127999999224
 10
234.42955400000025
 20
-57.92063599999923
 10
234.88853200000025
 20
-57.92342999999922
 10
235.34751000000026
 20
-57.92622399999922
 10
235.80648800000026
 20
-57.929017999999225
 10
236.26546600000026
 20
-57.93181199999922
 10
236.72444400000026
 20
-57.93460599999922
 10
237.18342200000026
 20
-57.93739999999922
 10
237.64240000000026
 20
-57.94019399999922
 10
238.10137800000027
 20
-57.94298799999922
 10
238.56035600000027
 20
-57.94578199999922
 10
239.01933400000027
 20
-57.948575999999214
 10
239.47831200000027
 20
-57.951369999999216
 10
239.9372900000003
 20
-57.95416399999921
 10
240.3962680000003
 20
-57.95695799999921
 10
240.8552460000003
 20
-57.95975199999921
 10
241.3142240000003
 20
-57.96254599999921
 10
241.7732020000003
 20
-57.96533999999921
 10
242.2321800000003
 20
-57.96813399999921
 10
242.6911580000003
 20
-57.970927999999205
 10
243.15013600000032
 20
-57.973721999999206
 10
243.60911400000032
 20
-57.9765159999992
 10
244.06809200000032
 20
-57.9793099999992
 10
244.52707000000032
 20
-57.982103999999204
 10
244.98604800000032
 20
-57.9848979999992
 10
245.44502600000035
 20
-57.9876919999992
 10
245.90400400000036
 20
-57.9904859999992
 10
246.36298200000036
 20
-57.993279999999196
 10
246.82196000000036
 20
-57.9960739999992
 10
247.28093800000036
 20
-57.9988679999992
 10
247.73991600000036
 20
-58.00166199999919
 10
248.19889400000037
 20
-58.004455999999195
 10
248.65787200000037
 20
-58.00724999999919
 10
249.11685000000037
 20
-58.01004399999919
 10
249.2702660000004
 20
-57.79084199999919
 10
249.42368200000038
 20
-57.57163999999919
 10
249.5770980000004
 20
-57.35243799999919
 10
249.73051400000043
 20
-57.133235999999194
 10
249.88393000000042
 20
-56.91403399999919
 10
250.03734600000044
 20
-56.694831999999195
 10
250.19076200000046
 20
-56.47562999999919
 10
250.34417800000045
 20
-56.25642799999919
 10
250.49759400000048
 20
-56.037225999999194
 10
250.65101000000047
 20
-55.81802399999919
 10
250.8044260000005
 20
-55.598821999999195
 10
250.9578420000005
 20
-55.37961999999919
 10
251.1112580000005
 20
-55.16041799999919
 10
251.26467400000053
 20
-54.941215999999194
 10
251.41809000000055
 20
-54.72201399999919
 10
251.57150600000054
 20
-54.502811999999196
 10
251.72492200000056
 20
-54.28360999999919
 10
251.87833800000055
 20
-54.06440799999919
 10
252.03175400000057
 20
-53.845205999999195
 10
252.1851700000006
 20
-53.62600399999919
 10
252.3385860000006
 20
-53.406801999999196
 10
252.4920020000006
 20
-53.18759999999919
 10
252.64541800000063
 20
-52.96839799999919
 10
252.79883400000062
 20
-52.749195999999195
 10
252.95225000000065
 20
-52.52999399999919
 10
253.10566600000064
 20
-52.310791999999196
 10
253.25908200000066
 20
-52.091589999999194
 10
253.41249800000068
 20
-51.87238799999919
 10
253.56591400000067
 20
-51.653185999999195
 10
253.7193300000007
 20
-51.43398399999919
 10
253.8727460000007
 20
-51.2147819999992
 10
254.0261620000007
 20
-50.995579999999194
  0
LWPOLYLINE
  5
36
330
17
100
AcDbEntity
  8
0
100
AcDbPolyline
 90
129
 70
0
 10
279.3537720000007
 20
-52.1401039999992
 10
279.20340400000066
 20
-52.328063999999195
 10
279.05303600000065
 20
-52.5160239999992
 10
278.90266800000063
 20
-52.7039839999992
 10
278.7523000000006
 20
-52.89194399999921
 10
278.60193200000055
 20
-53.0799039999992
 10
278.45156400000053
 20
-53.26786399999921
 10
278.3011960000005
 20
-53.45582399999921
 10
278.1508280000005
 20
-53.643783999999215
 10
278.0007140000005
 20
-53.83174399999922
 10
277.8503460000005
 20
-54.019703999999216
 10
277.69997800000044
 20
-54.20766399999922
 10
277.5496100000004
 20
-54.39562399999922
 10
277.3992420000004
 20
-54.58358399999923
 10
277.2488740000004
 20
-54.771543999999224
 10
277.0985060000004
 20
-54.95950399999923
 10
276.94813800000037
 20
-55.14746399999923
 10
276.7977700000003
 20
-55.335423999999236
 10
276.6474020000003
 20
-55.52338399999924
 10
276.49703400000027
 20
-55.71134399999924
 10
276.34666600000025
 20
-55.89930399999924
 10
276.19629800000024
 20
-56.087263999999244
 10
276.04593000000017
 20
-56.27522399999925
 10
275.89556200000015
 20
-56.463183999999245
 10
275.74519400000014
 20
-56.65114399999925
 10
275.59508000000017
 20
-56.83910399999925
 10
275.44471200000015
 20
-57.02706399999926
 10
275.29434400000014
 20
-57.21502399999926
 10
275.1439760000001
 20
-57.40298399999926
 10
274.99360800000005
 20
-57.59094399999926
 10
274.84324000000004
 20
-57.778903999999265
 10
274.692872
 20
-57.96686399999927
 10
274.542504
 20
-58.154823999999266
 10
274.750276
 20
-58.15609399999927
 10
274.95804799999996
 20
-58.15736399999927
 10
275.16582
 20
-58.15863399999927
 10
275.373592
 20
-58.159903999999266
 10
275.58136399999995
 20
-58.161173999999264
 10
275.789136
 20
-58.16244399999926
 10
275.99690799999996
 20
-58.16371399999926
 10
276.20467999999994
 20
-58.16498399999926
 10
276.412452
 20
-58.166253999999256
 10
276.62022399999995
 20
-58.167523999999254
 10
276.8279959999999
 20
-58.16879399999926
 10
277.03576799999996
 20
-58.17006399999926
 10
277.24353999999994
 20
-58.171333999999256
 10
277.4513119999999
 20
-58.172603999999254
 10
277.65908399999995
 20
-58.17387399999925
 10
277.8668559999999
 20
-58.17514399999925
 10
278.0746279999999
 20
-58.17641399999925
 10
278.28239999999994
 20
-58.177683999999246
 10
278.4901719999999
 20
-58.178953999999244
 10
278.6979439999999
 20
-58.18022399999924
 10
278.9057159999999
 20
-58.18149399999925
 10
279.1134879999999
 20
-58.182763999999246
 10
279.3212599999999
 20
-58.184033999999244
 10
279.5290319999999
 20
-58.18530399999924
 10
279.7368039999999
 20
-58.18657399999924
 10
279.94457599999987
 20
-58.18784399999924
 10
280.1523479999999
 20
-58.189113999999236
 10
280.3601199999999
 20
-58.190383999999234
 10
280.56789199999986
 20
-58.19165399999923
 10
280.7756639999999
 20
-58.19292399999924
 10
280.98343599999987
 20
-58.194193999999236
 10
281.19120799999985
 20
-58.195463999999234
 10
281.19120799999985
 20
-58.00877399999923
 10
281.19120799999985
 20
-57.82208399999922
 10
281.19120799999985
 20
-57.63539399999922
 10
281.19120799999985
 20
-57.44870399999922
 10
281.19120799999985
 20
-57.26201399999921
 10
281.19120799999985
 20
-57.07532399999921
 10
281.19120799999985
 20
-56.88863399999921
 10
281.19120799999985
 20
-56.7019439999992
 10
281.19120799999985
 20
-56.5152539999992
 10
281.19120799999985
 20
-56.3285639999992
 10
281.19120799999985
 20
-56.14187399999919
 10
281.19120799999985
 20
-55.95518399999919
 10
281.19120799999985
 20
-55.76849399999919
 10
281.19120799999985
 20
-55.58180399999918
 10
281.19120799999985
 20
-55.39511399999918
 10
281.19120799999985
 20
-55.20842399999918
 10
281.19120799999985
 20
-55.02173399999917
 10
281.19120799999985
 20
-54.83504399999917
 10
281.19120799999985
 20
-54.648353999999166
 10
281.19120799999985
 20
-54.46166399999916
 10
281.19120799999985
 20
-54.27497399999916
 10
281.19120799999985
 20
-54.088283999999156
 10
281.19120799999985
 20
-53.90159399999915
 10
281.19120799999985
 20
-53.71490399999915
 10
281.19120799999985
 20
-53.528213999999146
 10
281.19120799999985
 20
-53.34152399999914
 10
281.19120799999985
 20
-53.15483399999914
 10
281.19120799999985
 20
-52.968143999999135
 10
281.19120799999985
 20
-52.78145399999913
 10
281.19120799999985
 20
-52.59476399999913
 10
281.19120799999985
 20
-52.408073999999125
 10
281.19120799999985
 20
-52.22138399999912
 10
281.1338039999998
 20
-52.21884399999912
 10
281.0763999999998
 20
-52.21630399999913
 10
281.0189959999998
 20
-52.21376399999913
 10
280.96159199999977
 20
-52.21122399999913
 10
280.90418799999975
 20
-52.20868399999913
 10
280.8467839999997
 20
-52.206143999999135
 10
280.78937999999965
 20
-52.20360399999914
 10
280.73197599999963
 20
-52.20106399999914
 10
280.6745719999996
 20
-52.19852399999914
 10
280.6171679999996
 20
-52.19598399999914
 10
280.5597639999996
 20
-52.19344399999915
 10
280.5023599999995
 20
-52.19090399999915
 10
280.4449559999995
 20
-52.188363999999154
 10
280.38755199999946
 20
-52.18582399999915
 10
280.33014799999944
 20
-52.183283999999155
 10
280.2727439999994
 20
-52.18074399999916
 10
280.2153399999994
 20
-52.17820399999916
 10
280.1579359999993
 20
-52.17566399999916
 10
280.1005319999993
 20
-52.17312399999916
 10
280.0431279999993
 20
-52.17058399999917
 10
279.98572399999927
 20
-52.16804399999917
 10
279.92831999999925
 20
-52.165503999999174
 10
279.8709159999992
 20
-52.16296399999917
 10
279.81351199999915
 20
-52.160423999999175
 10
279.75610799999913
 20
-52.15788399999918
 10
279.6987039999991
 20
-52.15534399999918
 10
279.6412999999991
 20
-52.152803999999186
 10
279.5838959999991
 20
-52.15026399999918
 10
279.52649199999905
 20
-52.14772399999919
 10
279.46908799999903
 20
-52.14518399999919
 10
279.41168399999896
 20
-52.142643999999194
 10
279.35427999999894
 20
-52.1401039999992
  0
LWPOLYLINE
  5
37
330
17
100
AcDbEntity
  8
0
100
AcDbPolyline
 90
289
 70
0
 10
201.58074999999897
 20
-79.15224199999919
 10
201.62545399999897
 20
-79.0574999999992
 10
201.66939599999898
 20
-78.96402799999919
 10
201.71282999999897
 20
-78.87182599999919
 10
201.75550199999898
 20
-78.7806399999992
 10
201.797665999999
 20
-78.6904699999992
 10
201.839321999999
 20
-78.6010619999992
 10
201.880469999999
 20
-78.5126699999992
 10
201.921109999999
 20
-78.4247859999992
 10
201.961495999999
 20
-78.3374099999992
 10
202.001373999999
 20
-78.2505419999992
 10
202.040997999999
 20
-78.16418199999922
 10
202.080367999999
 20
-78.07807599999921
 10
202.11948399999898
 20
-77.99196999999921
 10
202.15859999999898
 20
-77.90586399999921
 10
202.19746199999898
 20
-77.81975799999921
 10
202.236323999999
 20
-77.73365199999921
 10
202.274931999999
 20
-77.64729199999921
 10
202.31353999999902
 20
-77.56042399999922
 10
202.35214799999903
 20
-77.47304799999922
 10
202.39100999999903
 20
-77.38516399999922
 10
202.42987199999905
 20
-77.29651799999922
 10
202.46898799999903
 20
-77.20710999999923
 10
202.50810399999904
 20
-77.11693999999922
 10
202.54747399999903
 20
-77.02575399999922
 10
202.58735199999904
 20
-76.93355199999922
 10
202.62748399999904
 20
-76.84007999999923
 10
202.66786999999906
 20
-76.74533799999924
 10
202.70876399999904
 20
-76.64932599999923
 10
202.75016599999904
 20
-76.55178999999923
 10
202.792075999999
 20
-76.45272999999924
 10
202.83449399999904
 20
-76.35189199999924
 10
202.87741999999903
 20
-76.24927599999924
 10
202.91983799999903
 20
-76.14005599999923
 10
202.95590599999903
 20
-76.03032799999923
 10
202.98562399999904
 20
-75.92034599999924
 10
203.00924599999902
 20
-75.81036399999924
 10
203.02677199999903
 20
-75.70063599999924
 10
203.03845599999903
 20
-75.59141599999923
 10
203.04429799999903
 20
-75.48295799999923
 10
203.04429799999903
 20
-75.37576999999922
 10
203.03845599999903
 20
-75.26985199999923
 10
203.02702599999904
 20
-75.16545799999923
 10
203.01000799999903
 20
-75.06284199999922
 10
202.98765599999905
 20
-74.96225799999922
 10
202.95971599999905
 20
-74.86395999999922
 10
202.92644199999904
 20
-74.76845599999923
 10
202.88783399999903
 20
-74.67574599999922
 10
202.84414599999903
 20
-74.58608399999923
 10
202.79537799999903
 20
-74.49972399999923
 10
202.74152999999905
 20
-74.41691999999922
 10
202.68285599999905
 20
-74.33817999999923
 10
202.61910199999903
 20
-74.26350399999923
 10
202.55077599999905
 20
-74.19314599999923
 10
202.47762399999903
 20
-74.12761399999924
 10
202.39989999999904
 20
-74.06690799999924
 10
202.31760399999905
 20
-74.01128199999924
 10
202.23073599999904
 20
-73.96098999999926
 10
202.13954999999902
 20
-73.91653999999924
 10
202.04404599999904
 20
-73.87793199999925
 10
201.94422399999902
 20
-73.84567399999925
 10
201.84033799999904
 20
-73.81976599999925
 10
201.73213399999904
 20
-73.80046199999924
 10
201.62011999999902
 20
-73.78826999999924
 10
201.504041999999
 20
-73.78318999999925
 10
201.122025999999
 20
-73.77887199999925
 10
200.742041999999
 20
-73.77480799999925
 10
200.363835999999
 20
-73.77099799999925
 10
199.98740799999902
 20
-73.76744199999925
 10
199.61224999999902
 20
-73.76413999999926
 10
199.238615999999
 20
-73.76109199999925
 10
198.86599799999902
 20
-73.75829799999926
 10
198.49439599999903
 20
-73.75575799999925
 10
198.123555999999
 20
-73.75347199999925
 10
197.75347799999903
 20
-73.75143999999925
 10
197.38390799999902
 20
-73.74966199999925
 10
197.01459199999903
 20
-73.74839199999926
 10
196.64552999999904
 20
-73.74737599999925
 10
196.27646799999903
 20
-73.74661399999925
 10
195.90715199999906
 20
-73.74635999999926
 10
195.53732799999904
 20
-73.74635999999926
 10
195.16699599999905
 20
-73.74686799999927
 10
194.79590199999905
 20
-73.74762999999926
 10
194.42404599999904
 20
-73.74889999999925
 10
194.05117399999904
 20
-73.75067799999925
 10
193.67703199999906
 20
-73.75296399999927
 10
193.30136599999904
 20
-73.75550399999926
 10
192.92417599999905
 20
-73.75855199999926
 10
192.54520799999906
 20
-73.76210799999926
 10
192.16446199999905
 20
-73.76617199999927
 10
191.78168399999907
 20
-73.77074399999925
 10
191.39661999999907
 20
-73.77582399999926
 10
191.0090159999991
 20
-73.78141199999925
 10
190.6188719999991
 20
-73.78776199999925
 10
190.22593399999909
 20
-73.79461999999924
 10
189.8302019999991
 20
-73.80198599999925
 10
189.43116799999908
 20
-73.81011399999923
 10
189.2627659999991
 20
-73.81443199999924
 10
189.09106199999908
 20
-73.82027399999924
 10
188.91656399999906
 20
-73.82789399999923
 10
188.73927199999906
 20
-73.83729199999922
 10
188.55969399999907
 20
-73.84846799999923
 10
188.37782999999908
 20
-73.86142199999922
 10
188.1941879999991
 20
-73.87640799999923
 10
188.00902199999908
 20
-73.89342599999924
 10
187.82233199999908
 20
-73.91247599999923
 10
187.63462599999906
 20
-73.93381199999924
 10
187.44615799999906
 20
-73.95717999999923
 10
187.25692799999908
 20
-73.98283399999923
 10
187.06744399999909
 20
-74.01077399999923
 10
186.8779599999991
 20
-74.04125399999923
 10
186.68872999999908
 20
-74.07427399999924
 10
186.4997539999991
 20
-74.10983399999922
 10
186.31153999999907
 20
-74.14793399999922
 10
186.12434199999907
 20
-74.18857399999922
 10
185.93841399999909
 20
-74.23200799999923
 10
185.75400999999908
 20
-74.27823599999923
 10
185.57138399999909
 20
-74.32725799999922
 10
185.39078999999907
 20
-74.37932799999922
 10
185.21248199999908
 20
-74.43444599999921
 10
185.03671399999908
 20
-74.49261199999921
 10
184.86373999999907
 20
-74.5538259999992
 10
184.69381399999907
 20
-74.61834199999922
 10
184.52718999999908
 20
-74.68590599999922
 10
184.36412199999907
 20
-74.75677199999922
 10
184.20511799999906
 20
-74.83119399999921
 10
184.05017799999908
 20
-74.90891799999922
 10
183.89955599999908
 20
-74.99019799999921
 10
183.75350599999908
 20
-75.07503399999922
 10
183.6491119999991
 20
-75.1392959999992
 10
183.54420999999908
 20
-75.20660599999921
 10
183.43879999999908
 20
-75.27670999999921
 10
183.3331359999991
 20
-75.34960799999921
 10
183.22721799999906
 20
-75.42504599999921
 10
183.12104599999907
 20
-75.50302399999921
 10
183.01487399999905
 20
-75.58354199999921
 10
182.90895599999905
 20
-75.66634599999922
 10
182.80329199999903
 20
-75.75118199999922
 10
182.69788199999905
 20
-75.83830399999923
 10
182.59297999999905
 20
-75.92745799999922
 10
182.48858599999906
 20
-76.01838999999923
 10
182.38495399999906
 20
-76.11109999999923
 10
182.28208399999906
 20
-76.20558799999924
 10
182.18022999999909
 20
-76.30159999999923
 10
182.07939199999907
 20
-76.39913599999923
 10
181.97956999999906
 20
-76.49794199999924
 10
181.88101799999905
 20
-76.59801799999924
 10
181.78398999999905
 20
-76.69936399999924
 10
181.68848599999907
 20
-76.80172599999925
 10
181.59450599999906
 20
-76.90510399999924
 10
181.50230399999904
 20
-77.00924399999924
 10
181.41187999999906
 20
-77.11414599999925
 10
181.32348799999906
 20
-77.21980999999924
 10
181.23712799999905
 20
-77.32598199999924
 10
181.15305399999906
 20
-77.43240799999924
 10
181.07126599999904
 20
-77.53934199999924
 10
180.99176399999905
 20
-77.64652999999925
 10
180.91480199999907
 20
-77.75371799999925
 10
180.84063399999906
 20
-77.86090599999926
 10
180.76925999999906
 20
-77.96809399999927
 10
180.70067999999907
 20
-78.07502799999926
 10
180.67172399999907
 20
-78.12150999999926
 10
180.64327599999908
 20
-78.16748399999926
 10
180.61533599999908
 20
-78.21345799999925
 10
180.58764999999906
 20
-78.25917799999925
 10
180.56047199999907
 20
-78.30464399999926
 10
180.53380199999907
 20
-78.35010999999925
 10
180.50738599999906
 20
-78.39557599999924
 10
180.48147799999904
 20
-78.44104199999923
 10
180.45582399999904
 20
-78.48650799999922
 10
180.43067799999903
 20
-78.53197399999922
 10
180.40578599999904
 20
-78.57769399999921
 10
180.38140199999904
 20
-78.62341399999922
 10
180.35727199999906
 20
-78.66938799999922
 10
180.33339599999903
 20
-78.71561599999922
 10
180.30977399999904
 20
-78.76209799999921
 10
180.28640599999903
 20
-78.80883399999922
 10
180.26329199999904
 20
-78.85607799999921
 10
180.24043199999903
 20
-78.90382999999922
 10
180.21782599999904
 20
-78.95183599999922
 10
180.19547399999902
 20
-79.00034999999922
 10
180.17337599999902
 20
-79.04962599999922
 10
180.15153199999904
 20
-79.09940999999922
 10
180.12994199999903
 20
-79.14970199999922
 10
180.108351999999
 20
-79.20075599999923
 10
180.08701599999904
 20
-79.25257199999923
 10
180.06593399999903
 20
-79.30514999999923
 10
180.04485199999905
 20
-79.35848999999922
 10
180.02376999999905
 20
-79.41284599999922
 10
180.00294199999905
 20
-79.46796399999921
 10
179.98211399999906
 20
-79.52409799999921
 10
179.96153999999905
 20
-79.58124799999922
 10
179.94096599999904
 20
-79.63941399999922
 10
179.93766399999905
 20
-79.64931999999922
 10
179.93436199999903
 20
-79.65922599999921
 10
179.931059999999
 20
-79.66913199999921
 10
179.92801199999903
 20
-79.67903799999921
 10
179.92496399999905
 20
-79.68894399999921
 10
179.92191599999907
 20
-79.6988499999992
 10
179.91886799999907
 20
-79.7087559999992
 10
179.91607399999907
 20
-79.7186619999992
 10
179.9132799999991
 20
-79.72856799999919
 10
179.9104859999991
 20
-79.73847399999919
 10
179.9079459999991
 20
-79.74837999999919
 10
179.90540599999912
 20
-79.75828599999919
 10
179.9028659999991
 20
-79.76819199999917
 10
179.9005799999991
 20
-79.77809799999918
 10
179.8982939999991
 20
-79.78800399999918
 10
179.89600799999909
 20
-79.79790999999916
 10
179.8937219999991
 20
-79.80781599999916
 10
179.89168999999907
 20
-79.81772199999916
 10
179.88965799999906
 20
-79.82762799999917
 10
179.88762599999907
 20
-79.83753399999915
 10
179.88584799999907
 20
-79.84743999999915
 10
179.8840699999991
 20
-79.85734599999915
 10
179.8822919999991
 20
-79.86725199999914
 10
179.88051399999912
 20
-79.87715799999914
 10
179.87898999999913
 20
-79.88706399999914
 10
179.87746599999912
 20
-79.89696999999914
 10
179.87594199999913
 20
-79.90687599999913
 10
179.87441799999914
 20
-79.91678199999913
 10
179.87314799999913
 20
-79.92668799999913
 10
179.87187799999916
 20
-79.93659399999912
 10
179.87060799999915
 20
-79.94649999999912
 10
179.86933799999915
 20
-79.95640599999912
 10
179.89473799999917
 20
-79.95716799999911
 10
179.96992199999917
 20
-79.95970799999911
 10
180.09285799999918
 20
-79.9642799999991
 10
180.26151399999918
 20
-79.9711379999991
 10
180.47385799999918
 20
-79.9807899999991
 10
180.72811199999916
 20
-79.9932359999991
 10
181.02224399999918
 20
-80.0089839999991
 10
181.35422199999917
 20
-80.02828799999911
 10
181.72226799999916
 20
-80.05140199999911
 10
182.12434999999917
 20
-80.07857999999912
 10
182.55843599999915
 20
-80.11032999999911
 10
183.02274799999913
 20
-80.14665199999911
 10
183.51525399999912
 20
-80.18805399999911
 10
184.03392199999914
 20
-80.23478999999912
 10
184.57697399999915
 20
-80.28711399999912
 10
185.14212399999914
 20
-80.34527999999912
 10
185.72784799999917
 20
-80.40954199999912
 10
186.33185999999918
 20
-80.48040799999912
 10
186.95238199999918
 20
-80.5581319999991
 10
187.58738199999917
 20
-80.64296799999912
 10
188.23482799999917
 20
-80.73516999999912
 10
188.89294199999915
 20
-80.8349919999991
 10
189.55969199999916
 20
-80.9426879999991
 10
190.23304599999915
 20
-81.0587659999991
 10
190.91097199999916
 20
-81.1834799999991
 10
191.59169199999914
 20
-81.31682999999909
 10
192.27317399999913
 20
-81.45932399999909
 10
192.95363999999913
 20
-81.61146999999907
 10
193.63105799999914
 20
-81.77326799999908
 10
194.30339599999914
 20
-81.94522599999908
 10
194.96862199999916
 20
-82.12734399999908
 10
195.62495799999914
 20
-82.32012999999908
 10
195.86041599999913
 20
-82.38540799999909
 10
196.09460399999915
 20
-82.43722399999909
 10
196.32726799999918
 20
-82.47608599999909
 10
196.55815399999918
 20
-82.5022479999991
 10
196.78700799999916
 20
-82.51570999999909
 10
197.01382999999916
 20
-82.5169799999991
 10
197.23811199999918
 20
-82.5063119999991
 10
197.46010799999917
 20
-82.4839599999991
 10
197.6793099999992
 20
-82.4501779999991
 10
197.8957179999992
 20
-82.40521999999909
 10
198.1090779999992
 20
-82.3495939999991
 10
198.31938999999917
 20
-82.28329999999909
 10
198.5261459999992
 20
-82.20659199999908
 10
198.72934599999917
 20
-82.11997799999908
 10
198.92898999999915
 20
-82.02345799999908
 10
199.12456999999915
 20
-81.9175399999991
 10
199.31608599999916
 20
-81.8024779999991
 10
199.50353799999917
 20
-81.6785259999991
 10
199.68641799999918
 20
-81.54568399999908
 10
199.86472599999917
 20
-81.40445999999909
 10
200.03820799999917
 20
-81.25510799999908
 10
200.20686399999917
 20
-81.09788199999907
 10
200.37018599999917
 20
-80.93328999999908
 10
200.52817399999915
 20
-80.76133199999907
 10
200.68082799999917
 20
-80.58226199999908
 10
200.82763999999915
 20
-80.39633399999907
 10
200.96860999999913
 20
-80.20405599999907
 10
201.10348399999913
 20
-80.00542799999907
 10
201.2322619999991
 20
-79.80095799999907
 10
201.35468999999912
 20
-79.59089999999907
 10
201.47051399999913
 20
-79.37525399999907
 10
201.5794799999991
 20
-79.15452799999906
  0
ENDSEC
  0
SECTION
  2
OBJECTS
  0
DICTIONARY
  5
A
330
0
100
AcDbDictionary
281
1
  3
ACAD_COLOR
350
B
  3
ACAD_GROUP
350
C
  3
ACAD_LAYOUT
350
D
  3
ACAD_MATERIAL
350
E
  3
ACAD_MLEADERSTYLE
350
F
  3
ACAD_MLINESTYLE
350
10
  3
ACAD_PLOTSETTINGS
350
11
  3
ACAD_PLOTSTYLENAME
350
12
  3
ACAD_SCALELIST
350
14
  3
ACAD_TABLESTYLE
350
15
  3
ACAD_VISUALSTYLE
350
16
  3
EZDXF_META
350
2D
  0
DICTIONARY
  5
B
330
A
100
AcDbDictionary
281
1
  0
DICTIONARY
  5
C
330
A
100
AcDbDictionary
281
1
  0
DICTIONARY
  5
D
330
A
100
AcDbDictionary
281
1
  3
Model
350
1A
  3
Layout1
350
1E
  0
DICTIONARY
  5
E
330
A
100
AcDbDictionary
281
1
  3
ByBlock
350
1F
  3
ByLayer
350
20
  3
Global
350
21
  0
DICTIONARY
  5
F
330
A
100
AcDbDictionary
281
1
  3
Standard
350
2C
  0
DICTIONARY
  5
10
330
A
100
AcDbDictionary
281
1
  3
Standard
350
22
  0
DICTIONARY
  5
11
330
A
100
AcDbDictionary
281
1
  0
ACDBDICTIONARYWDFLT
  5
12
330
A
100
AcDbDictionary
281
1
  3
Normal
350
13
100
AcDbDictionaryWithDefault
340
13
  0
ACDBPLACEHOLDER
  5
13
330
12
  0
DICTIONARY
  5
14
330
A
100
AcDbDictionary
281
1
  0
DICTIONARY
  5
15
330
A
100
AcDbDictionary
281
1
  0
DICTIONARY
  5
16
330
A
100
AcDbDictionary
281
1
  0
LAYOUT
  5
1A
330
D
100
AcDbPlotSettings
  1

  4
A3
  6

 40
7.5
 41
20.0
 42
7.5
 43
20.0
 44
420.0
 45
297.0
 46
0.0
 47
0.0
 48
0.0
 49
0.0
140
0.0
141
0.0
142
1.0
143
1.0
 70
1024
 72
1
 73
0
 74
5
  7

 75
16
 76
0
 77
2
 78
300
147
1.0
148
0.0
149
0.0
100
AcDbLayout
  1
Model
 70
1
 71
0
 10
0.0
 20
0.0
 11
420.0
 21
297.0
 12
0.0
 22
0.0
 32
0.0
 14
1e+20
 24
1e+20
 34
1e+20
 15
-1e+20
 25
-1e+20
 35
-1e+20
146
0.0
 13
0.0
 23
0.0
 33
0.0
 16
1.0
 26
0.0
 36
0.0
 17
0.0
 27
1.0
 37
0.0
 76
1
330
17
  0
LAYOUT
  5
1E
330
D
100
AcDbPlotSettings
  1

  4
A3
  6

 40
7.5
 41
20.0
 42
7.5
 43
20.0
 44
420.0
 45
297.0
 46
0.0
 47
0.0
 48
0.0
 49
0.0
140
0.0
141
0.0
142
1.0
143
1.0
 70
0
 72
1
 73
0
 74
5
  7

 75
16
 76
0
 77
2
 78
300
147
1.0
148
0.0
149
0.0
100
AcDbLayout
  1
Layout1
 70
1
 71
1
 10
0.0
 20
0.0
 11
420.0
 21
297.0
 12
0.0
 22
0.0
 32
0.0
 14
1e+20
 24
1e+20
 34
1e+20
 15
-1e+20
 25
-1e+20
 35
-1e+20
146
0.0
 13
0.0
 23
0.0
 33
0.0
 16
1.0
 26
0.0
 36
0.0
 17
0.0
 27
1.0
 37
0.0
 76
1
330
1B
  0
MATERIAL
  5
1F
102
{ACAD_REACTORS
330
E
102
}
330
E
100
AcDbMaterial
  1
ByBlock
  2

 70
0
 40
1.0
 71
1
 41
1.0
 91
-1023410177
 42
1.0
 72
1
  3

 73
1
 74
1
 75
1
 44
0.5
 73
0
 45
1.0
 46
1.0
 77
1
  4

 78
1
 79
1
170
1
 48
1.0
171
1
  6

172
1
173
1
174
1
140
1.0
141
1.0
175
1
  7

176
1
177
1
178
1
143
1.0
179
1
  8

270
1
271
1
272
1
145
1.0
146
1.0
273
1
  9

274
1
275
1
276
1
 42
1.0
 72
1
  3

 73
1
 74
1
 75
1
 94
63
  0
MATERIAL
  5
20
102
{ACAD_REACTORS
330
E
102
}
330
E
100
AcDbMaterial
  1
ByLayer
  2

 70
0
 40
1.0
 71
1
 41
1.0
 91
-1023410177
 42
1.0
 72
1
  3

 73
1
 74
1
 75
1
 44
0.5
 73
0
 45
1.0
 46
1.0
 77
1
  4

 78
1
 79
1
170
1
 48
1.0
171
1
  6

172
1
173
1
174
1
140
1.0
141
1.0
175
1
  7

176
1
177
1
178
1
143
1.0
179
1
  8

270
1
271
1
272
1
145
1.0
146
1.0
273
1
  9

274
1
275
1
276
1
 42
1.0
 72
1
  3

 73
1
 74
1
 75
1
 94
63
  0
MATERIAL
  5
21
102
{ACAD_REACTORS
330
E
102
}
330
E
100
AcDbMaterial
  1
Global
  2

 70
0
 40
1.0
 71
1
 41
1.0
 91
-1023410177
 42
1.0
 72
1
  3

 73
1
 74
1
 75
1
 44
0.5
 73
0
 45
1.0
 46
1.0
 77
1
  4

 78
1
 79
1
170
1
 48
1.0
171
1
  6

172
1
173
1
174
1
140
1.0
141
1.0
175
1
  7

176
1
177
1
178
1
143
1.0
179
1
  8

270
1
271
1
272
1
145
1.0
146
1.0
273
1
  9

274
1
275
1
276
1
 42
1.0
 72
1
  3

 73
1
 74
1
 75
1
 94
63
  0
MLINESTYLE
  5
22
102
{ACAD_REACTORS
330
10
102
}
330
10
100
AcDbMlineStyle
  2
Standard
 70
0
  3

 62
256
 51
90.0
 52
90.0
 71
2
 49
0.5
 62
256
  6
BYLAYER
 49
-0.5
 62
256
  6
BYLAYER
  0
MLEADERSTYLE
  5
2C
102
{ACAD_REACTORS
330
F
102
}
330
F
100
AcDbMLeaderStyle
179
2
170
2
171
1
172
0
 90
2
 40
0.0
 41
0.0
173
1
 91
-1056964608
 92
-2
290
1
 42
2.0
291
1
 43
8.0
  3
Standard
 44
4.0
300

342
29
174
1
175
1
176
0
178
1
 93
-1056964608
 45
4.0
292
0
297
0
 46
4.0
 94
-1056964608
 47
1.0
 49
1.0
140
1.0
294
1
141
0.0
177
0
142
1.0
295
0
296
0
143
3.75
271
0
272
9
273
9
  0
DICTIONARY
  5
2D
330
A
100
AcDbDictionary
280
1
281
1
  3
CREATED_BY_EZDXF
350
2E
  3
WRITTEN_BY_EZDXF
350
3A
  0
DICTIONARYVAR
  5
2E
330
2D
100
DictionaryVariables
280
0
  1
1.4.3 @ 2026-04-08T01:02:28.771695+00:00
  0
DICTIONARYVAR
  5
3A
330
2D
100
DictionaryVariables
280
0
  1
1.4.3 @ 2026-04-08T01:02:28.779054+00:00
  0
ENDSEC
  0
EOF
