  0
SECTION
  2
HEADER
  9
$ACADVER
  1
AC1024
  9
$ACADMAINTVER
 70
6
  9
$DWGCODEPAGE
  3
ANSI_1252
  9
$LASTSAVEDBY
  1
ezdxf
  9
$INSBASE
 10
0.0
 20
0.0
 30
0.0
  9
$EXTMIN
 10
1e+20
 20
1e+20
 30
1e+20
  9
$EXTMAX
 10
-1e+20
 20
-1e+20
 30
-1e+20
  9
$LIMMIN
 10
0.0
 20
0.0
  9
$LIMMAX
 10
420.0
 20
297.0
  9
$ORTHOMODE
 70
0
  9
$REGENMODE
 70
1
  9
$FILLMODE
 70
1
  9
$QTEXTMODE
 70
0
  9
$MIRRTEXT
 70
1
  9
$LTSCALE
 40
1.0
  9
$ATTMODE
 70
1
  9
$TEXTSIZE
 40
2.5
  9
$TRACEWID
 40
1.0
  9
$TEXTSTYLE
  7
Standard
  9
$CLAYER
  8
0
  9
$CELTYPE
  6
ByLayer
  9
$CECOLOR
 62
256
  9
$CELTSCALE
 40
1.0
  9
$DISPSILH
 70
0
  9
$DIMSCALE
 40
1.0
  9
$DIMASZ
 40
2.5
  9
$DIMEXO
 40
0.625
  9
$DIMDLI
 40
3.75
  9
$DIMRND
 40
0.0
  9
$DIMDLE
 40
0.0
  9
$DIMEXE
 40
1.25
  9
$DIMTP
 40
0.0
  9
$DIMTM
 40
0.0
  9
$DIMTXT
 40
2.5
  9
$DIMCEN
 40
2.5
  9
$DIMTSZ
 40
0.0
  9
$DIMTOL
 70
0
  9
$DIMLIM
 70
0
  9
$DIMTIH
 70
0
  9
$DIMTOH
 70
0
  9
$DIMSE1
 70
0
  9
$DIMSE2
 70
0
  9
$DIMTAD
 70
1
  9
$DIMZIN
 70
8
  9
$DIMBLK
  1

  9
$DIMASO
 70
1
  9
$DIMSHO
 70
1
  9
$DIMPOST
  1

  9
$DIMAPOST
  1

  9
$DIMALT
 70
0
  9
$DIMALTD
 70
3
  9
$DIMALTF
 40
0.03937007874
  9
$DIMLFAC
 40
1.0
  9
$DIMTOFL
 70
1
  9
$DIMTVP
 40
0.0
  9
$DIMTIX
 70
0
  9
$DIMSOXD
 70
0
  9
$DIMSAH
 70
0
  9
$DIMBLK1
  1

  9
$DIMBLK2
  1

  9
$DIMSTYLE
  2
ISO-25
  9
$DIMCLRD
 70
0
  9
$DIMCLRE
 70
0
  9
$DIMCLRT
 70
0
  9
$DIMTFAC
 40
1.0
  9
$DIMGAP
 40
0.625
  9
$DIMJUST
 70
0
  9
$DIMSD1
 70
0
  9
$DIMSD2
 70
0
  9
$DIMTOLJ
 70
0
  9
$DIMTZIN
 70
8
  9
$DIMALTZ
 70
0
  9
$DIMALTTZ
 70
0
  9
$DIMUPT
 70
0
  9
$DIMDEC
 70
2
  9
$DIMTDEC
 70
2
  9
$DIMALTU
 70
2
  9
$DIMALTTD
 70
3
  9
$DIMTXSTY
  7
Standard
  9
$DIMAUNIT
 70
0
  9
$DIMADEC
 70
0
  9
$DIMALTRND
 40
0.0
  9
$DIMAZIN
 70
0
  9
$DIMDSEP
 70
44
  9
$DIMATFIT
 70
3
  9
$DIMFRAC
 70
0
  9
$DIMLDRBLK
  1

  9
$DIMLUNIT
 70
2
  9
$DIMLWD
 70
-2
  9
$DIMLWE
 70
-2
  9
$DIMTMOVE
 70
0
  9
$DIMFXL
 40
1.0
  9
$DIMFXLON
 70
0
  9
$DIMJOGANG
 40
0.785398163397
  9
$DIMTFILL
 70
0
  9
$DIMTFILLCLR
 70
0
  9
$DIMARCSYM
 70
0
  9
$DIMLTYPE
  6

  9
$DIMLTEX1
  6

  9
$DIMLTEX2
  6

  9
$DIMTXTDIRECTION
 70
0
  9
$LUNITS
 70
2
  9
$LUPREC
 70
4
  9
$SKETCHINC
 40
1.0
  9
$FILLETRAD
 40
10.0
  9
$AUNITS
 70
0
  9
$AUPREC
 70
2
  9
$MENU
  1
.
  9
$ELEVATION
 40
0.0
  9
$PELEVATION
 40
0.0
  9
$THICKNESS
 40
0.0
  9
$LIMCHECK
 70
0
  9
$CHAMFERA
 40
0.0
  9
$CHAMFERB
 40
0.0
  9
$CHAMFERC
 40
0.0
  9
$CHAMFERD
 40
0.0
  9
$SKPOLY
 70
0
  9
$TDCREATE
 40
2461140.6092592594
  9
$TDUCREATE
 40
2458532.153996898
  9
$TDUPDATE
 40
2461140.6092592594
  9
$TDUUPDATE
 40
2458532.1544311
  9
$TDINDWG
 40
0.0
  9
$TDUSRTIMER
 40
0.0
  9
$USRTIMER
 70
1
  9
$ANGBASE
 50
0.0
  9
$ANGDIR
 70
0
  9
$PDMODE
 70
0
  9
$PDSIZE
 40
0.0
  9
$PLINEWID
 40
0.0
  9
$SPLFRAME
 70
0
  9
$SPLINETYPE
 70
6
  9
$SPLINESEGS
 70
8
  9
$HANDSEED
  5
19E
  9
$SURFTAB1
 70
6
  9
$SURFTAB2
 70
6
  9
$SURFTYPE
 70
6
  9
$SURFU
 70
6
  9
$SURFV
 70
6
  9
$UCSBASE
  2

  9
$UCSNAME
  2

  9
$UCSORG
 10
0.0
 20
0.0
 30
0.0
  9
$UCSXDIR
 10
1.0
 20
0.0
 30
0.0
  9
$UCSYDIR
 10
0.0
 20
1.0
 30
0.0
  9
$UCSORTHOREF
  2

  9
$UCSORTHOVIEW
 70
0
  9
$UCSORGTOP
 10
0.0
 20
0.0
 30
0.0
  9
$UCSORGBOTTOM
 10
0.0
 20
0.0
 30
0.0
  9
$UCSORGLEFT
 10
0.0
 20
0.0
 30
0.0
  9
$UCSORGRIGHT
 10
0.0
 20
0.0
 30
0.0
  9
$UCSORGFRONT
 10
0.0
 20
0.0
 30
0.0
  9
$UCSORGBACK
 10
0.0
 20
0.0
 30
0.0
  9
$PUCSBASE
  2

  9
$PUCSNAME
  2

  9
$PUCSORG
 10
0.0
 20
0.0
 30
0.0
  9
$PUCSXDIR
 10
1.0
 20
0.0
 30
0.0
  9
$PUCSYDIR
 10
0.0
 20
1.0
 30
0.0
  9
$PUCSORTHOREF
  2

  9
$PUCSORTHOVIEW
 70
0
  9
$PUCSORGTOP
 10
0.0
 20
0.0
 30
0.0
  9
$PUCSORGBOTTOM
 10
0.0
 20
0.0
 30
0.0
  9
$PUCSORGLEFT
 10
0.0
 20
0.0
 30
0.0
  9
$PUCSORGRIGHT
 10
0.0
 20
0.0
 30
0.0
  9
$PUCSORGFRONT
 10
0.0
 20
0.0
 30
0.0
  9
$PUCSORGBACK
 10
0.0
 20
0.0
 30
0.0
  9
$USERI1
 70
0
  9
$USERI2
 70
0
  9
$USERI3
 70
0
  9
$USERI4
 70
0
  9
$USERI5
 70
0
  9
$USERR1
 40
0.0
  9
$USERR2
 40
0.0
  9
$USERR3
 40
0.0
  9
$USERR4
 40
0.0
  9
$USERR5
 40
0.0
  9
$WORLDVIEW
 70
1
  9
$SHADEDGE
 70
3
  9
$SHADEDIF
 70
70
  9
$TILEMODE
 70
1
  9
$MAXACTVP
 70
64
  9
$PINSBASE
 10
0.0
 20
0.0
 30
0.0
  9
$PLIMCHECK
 70
0
  9
$PEXTMIN
 10
1e+20
 20
1e+20
 30
1e+20
  9
$PEXTMAX
 10
-1e+20
 20
-1e+20
 30
-1e+20
  9
$PLIMMIN
 10
0.0
 20
0.0
  9
$PLIMMAX
 10
420.0
 20
297.0
  9
$UNITMODE
 70
0
  9
$VISRETAIN
 70
1
  9
$PLINEGEN
 70
0
  9
$PSLTSCALE
 70
1
  9
$TREEDEPTH
 70
3020
  9
$CMLSTYLE
  2
Standard
  9
$CMLJUST
 70
0
  9
$CMLSCALE
 40
20.0
  9
$PROXYGRAPHICS
 70
1
  9
$MEASUREMENT
 70
1
  9
$CELWEIGHT
370
-1
  9
$ENDCAPS
280
0
  9
$JOINSTYLE
280
0
  9
$LWDISPLAY
290
0
  9
$INSUNITS
 70
4
  9
$HYPERLINKBASE
  1

  9
$STYLESHEET
  1

  9
$XEDIT
290
1
  9
$CEPSNTYPE
380
0
  9
$PSTYLEMODE
290
1
  9
$FINGERPRINTGUID
  2
{A52D6B27-72EC-4A38-A386-1491B1F55EA5}
  9
$VERSIONGUID
  2
{74A6B175-A851-44E6-8B9C-3602C717DDF4}
  9
$EXTNAMES
290
1
  9
$PSVPSCALE
 40
0.0
  9
$OLESTARTUP
290
0
  9
$SORTENTS
280
127
  9
$INDEXCTL
280
0
  9
$HIDETEXT
280
1
  9
$XCLIPFRAME
280
1
  9
$HALOGAP
280
0
  9
$OBSCOLOR
 70
257
  9
$OBSLTYPE
280
0
  9
$INTERSECTIONDISPLAY
280
0
  9
$INTERSECTIONCOLOR
 70
257
  9
$DIMASSOC
280
2
  9
$PROJECTNAME
  1

  9
$CAMERADISPLAY
290
0
  9
$LENSLENGTH
 40
50.0
  9
$CAMERAHEIGHT
 40
0.0
  9
$STEPSPERSEC
 40
24.0
  9
$STEPSIZE
 40
100.0
  9
$3DDWFPREC
 40
2.0
  9
$PSOLWIDTH
 40
0.005
  9
$PSOLHEIGHT
 40
0.08
  9
$LOFTANG1
 40
1.570796326795
  9
$LOFTANG2
 40
1.570796326795
  9
$LOFTMAG1
 40
0.0
  9
$LOFTMAG2
 40
0.0
  9
$LOFTPARAM
 70
7
  9
$LOFTNORMALS
280
1
  9
$LATITUDE
 40
37.795
  9
$LONGITUDE
 40
-122.394
  9
$NORTHDIRECTION
 40
0.0
  9
$TIMEZONE
 70
-8000
  9
$LIGHTGLYPHDISPLAY
280
1
  9
$TILEMODELIGHTSYNCH
280
1
  9
$CMATERIAL
347
20
  9
$SOLIDHIST
280
0
  9
$SHOWHIST
280
1
  9
$DWFFRAME
280
2
  9
$DGNFRAME
280
2
  9
$REALWORLDSCALE
290
1
  9
$INTERFERECOLOR
 62
256
  9
$CSHADOW
280
0
  9
$SHADOWPLANELOCATION
 40
0.0
  0
ENDSEC
  0
SECTION
  2
CLASSES
  0
CLASS
  1
ACDBDICTIONARYWDFLT
  2
AcDbDictionaryWithDefault
  3
ObjectDBX Classes
 90
0
 91
0
280
0
281
0
  0
CLASS
  1
SUN
  2
AcDbSun
  3
SCENEOE
 90
1153
 91
0
280
0
281
0
  0
CLASS
  1
VISUALSTYLE
  2
AcDbVisualStyle
  3
ObjectDBX Classes
 90
4095
 91
0
280
0
281
0
  0
CLASS
  1
MATERIAL
  2
AcDbMaterial
  3
ObjectDBX Classes
 90
1153
 91
0
280
0
281
0
  0
CLASS
  1
SCALE
  2
AcDbScale
  3
ObjectDBX Classes
 90
1153
 91
0
280
0
281
0
  0
CLASS
  1
TABLESTYLE
  2
AcDbTableStyle
  3
ObjectDBX Classes
 90
4095
 91
0
280
0
281
0
  0
CLASS
  1
MLEADERSTYLE
  2
AcDbMLeaderStyle
  3
ACDB_MLEADERSTYLE_CLASS
 90
4095
 91
0
280
0
281
0
  0
CLASS
  1
DICTIONARYVAR
  2
AcDbDictionaryVar
  3
ObjectDBX Classes
 90
0
 91
0
280
0
281
0
  0
CLASS
  1
CELLSTYLEMAP
  2
AcDbCellStyleMap
  3
ObjectDBX Classes
 90
1152
 91
0
280
0
281
0
  0
CLASS
  1
MENTALRAYRENDERSETTINGS
  2
AcDbMentalRayRenderSettings
  3
SCENEOE
 90
1024
 91
0
280
0
281
0
  0
CLASS
  1
ACDBDETAILVIEWSTYLE
  2
AcDbDetailViewStyle
  3
ObjectDBX Classes
 90
1025
 91
0
280
0
281
0
  0
CLASS
  1
ACDBSECTIONVIEWSTYLE
  2
AcDbSectionViewStyle
  3
ObjectDBX Classes
 90
1025
 91
0
280
0
281
0
  0
CLASS
  1
RASTERVARIABLES
  2
AcDbRasterVariables
  3
ISM
 90
0
 91
0
280
0
281
0
  0
CLASS
  1
LAYOUT
  2
AcDbLayout
  3
ObjectDBX Classes
 90
0
 91
0
280
0
281
0
  0
CLASS
  1
ACDBPLACEHOLDER
  2
AcDbPlaceHolder
  3
ObjectDBX Classes
 90
0
 91
0
280
0
281
0
  0
ENDSEC
  0
SECTION
  2
TABLES
  0
TABLE
  2
VPORT
  5
8
330
0
100
AcDbSymbolTable
 70
1
  0
VPORT
  5
23
330
8
100
AcDbSymbolTableRecord
100
AcDbViewportTableRecord
  2
*Active
 70
0
 10
0.0
 20
0.0
 11
1.0
 21
1.0
 12
0.0
 22
0.0
 13
0.0
 23
0.0
 14
0.5
 24
0.5
 15
0.5
 25
0.5
 16
0.0
 26
0.0
 36
1.0
 17
0.0
 27
0.0
 37
0.0
 40
1000.0
 41
1.34
 42
50.0
 43
0.0
 44
0.0
 50
0.0
 51
0.0
 71
0
 72
1000
 73
1
 74
3
 75
0
 76
0
 77
0
 78
0
281
0
 65
0
146
0.0
  0
ENDTAB
  0
TABLE
  2
LTYPE
  5
2
330
0
100
AcDbSymbolTable
 70
3
  0
LTYPE
  5
24
330
2
100
AcDbSymbolTableRecord
100
AcDbLinetypeTableRecord
  2
ByBlock
 70
0
  3

 72
65
 73
0
 40
0.0
  0
LTYPE
  5
25
330
2
100
AcDbSymbolTableRecord
100
AcDbLinetypeTableRecord
  2
ByLayer
 70
0
  3

 72
65
 73
0
 40
0.0
  0
LTYPE
  5
26
330
2
100
AcDbSymbolTableRecord
100
AcDbLinetypeTableRecord
  2
Continuous
 70
0
  3

 72
65
 73
0
 40
0.0
  0
ENDTAB
  0
TABLE
  2
LAYER
  5
1
330
0
100
AcDbSymbolTable
 70
2
  0
LAYER
  5
27
330
1
100
AcDbSymbolTableRecord
100
AcDbLayerTableRecord
  2
0
 70
0
 62
7
  6
Continuous
370
-3
390
13
347
21
  0
LAYER
  5
28
330
1
100
AcDbSymbolTableRecord
100
AcDbLayerTableRecord
  2
Defpoints
 70
0
 62
7
  6
Continuous
290
0
370
-3
390
13
347
21
  0
ENDTAB
  0
TABLE
  2
STYLE
  5
5
330
0
100
AcDbSymbolTable
 70
1
  0
STYLE
  5
29
330
5
100
AcDbSymbolTableRecord
100
AcDbTextStyleTableRecord
  2
Standard
 70
0
 40
0.0
 41
1.0
 50
0.0
 71
0
 42
2.5
  3
txt
  4

  0
ENDTAB
  0
TABLE
  2
VIEW
  5
7
330
0
100
AcDbSymbolTable
 70
0
  0
ENDTAB
  0
TABLE
  2
UCS
  5
6
330
0
100
AcDbSymbolTable
 70
0
  0
ENDTAB
  0
TABLE
  2
APPID
  5
3
330
0
100
AcDbSymbolTable
 70
3
  0
APPID
  5
2A
330
3
100
AcDbSymbolTableRecord
100
AcDbRegAppTableRecord
  2
ACAD
 70
0
  0
APPID
  5
19B
330
3
100
AcDbSymbolTableRecord
100
AcDbRegAppTableRecord
  2
HATCHBACKGROUNDCOLOR
 70
0
  0
APPID
  5
19C
330
3
100
AcDbSymbolTableRecord
100
AcDbRegAppTableRecord
  2
EZDXF
 70
0
  0
ENDTAB
  0
TABLE
  2
DIMSTYLE
  5
4
330
0
100
AcDbSymbolTable
 70
1
100
AcDbDimStyleTable
  0
DIMSTYLE
105
2B
330
4
100
AcDbSymbolTableRecord
100
AcDbDimStyleTableRecord
  2
Standard
 70
0
 40
1.0
 41
2.5
 42
0.625
 43
3.75
 44
1.25
 45
0.0
 46
0.0
 47
0.0
 48
0.0
 49
2.5
140
2.5
141
2.5
142
0.0
143
0.03937007874
144
1.0
145
0.0
146
1.0
147
0.625
148
0.0
 69
0
 70
0
 71
0
 72
0
 73
0
 74
0
 75
0
 76
0
 77
1
 78
8
 79
3
170
0
171
3
172
1
173
0
174
0
175
0
176
0
177
0
178
0
179
2
271
2
272
2
273
2
274
3
275
0
276
0
277
2
278
44
279
0
280
0
281
0
282
0
283
0
284
8
285
0
286
0
288
0
289
3
290
0
371
-2
372
-2
  0
ENDTAB
  0
TABLE
  2
BLOCK_RECORD
  5
9
330
0
100
AcDbSymbolTable
 70
3
  0
BLOCK_RECORD
  5
17
330
9
100
AcDbSymbolTableRecord
100
AcDbBlockTableRecord
  2
*Model_Space
340
1A
 70
0
280
1
281
0
  0
BLOCK_RECORD
  5
1B
330
9
100
AcDbSymbolTableRecord
100
AcDbBlockTableRecord
  2
*Paper_Space
340
1E
 70
0
280
1
281
0
  0
BLOCK_RECORD
  5
2F
330
9
100
AcDbSymbolTableRecord
100
AcDbBlockTableRecord
  2
HEX
340
0
 70
0
280
1
281
0
  0
ENDTAB
  0
ENDSEC
  0
SECTION
  2
BLOCKS
  0
BLOCK
  5
18
330
17
100
AcDbEntity
  8
0
100
AcDbBlockBegin
  2
*Model_Space
 70
0
 10
0.0
 20
0.0
 30
0.0
  3
*Model_Space
  1

  0
ENDBLK
  5
19
330
17
100
AcDbEntity
  8
0
100
AcDbBlockEnd
  0
BLOCK
  5
1C
330
1B
100
AcDbEntity
  8
0
100
AcDbBlockBegin
  2
*Paper_Space
 70
0
 10
0.0
 20
0.0
 30
0.0
  3
*Paper_Space
  1

  0
ENDBLK
  5
1D
330
1B
100
AcDbEntity
  8
0
100
AcDbBlockEnd
  0
BLOCK
  5
30
330
2F
100
AcDbEntity
  8
0
100
AcDbBlockBegin
  2
HEX
 70
0
 10
0.0
 20
0.0
 30
0.0
  3
HEX
  1

  0
LWPOLYLINE
  5
32
330
2F
100
AcDbEntity
  8
0
100
AcDbPolyline
 90
6
 70
1
 10
1.516
 20
0.875
 10
0.0
 20
1.75
 10
-1.516
 20
0.875
 10
-1.516
 20
-0.875
 10
-0.0
 20
-1.75
 10
1.516
 20
-0.875
  0
ENDBLK
  5
31
330
2F
100
AcDbEntity
  8
0
100
AcDbBlockEnd
  0
ENDSEC
  0
SECTION
  2
ENTITIES
  0
LWPOLYLINE
  5
33
330
17
100
AcDbEntity
  8
0
100
AcDbPolyline
 90
12
 70
1
 10
122.711
 20
-137.927
 10
122.336
 20
-137.885
 10
121.99
 20
-137.823
 10
121.654
 20
-137.735
 10
121.437
 20
-137.66
 10
121.126
 20
-137.521
 10
120.929
 20
-137.408
 10
120.74
 20
-137.278
 10
120.486
 20
-137.057
 10
121.195
 20
-136.648
 10
122.711
 20
-137.523
 10
122.711
 20
-137.927
  0
LWPOLYLINE
  5
34
330
17
100
AcDbEntity
  8
0
100
AcDbPolyline
 90
7
 70
1
 10
126.242
 20
-137.879
 10
123.887
 20
-137.951
 10
123.211
 20
-137.953
 10
123.211
 20
-137.523
 10
124.727
 20
-136.648
 10
126.242
 20
-137.523
 10
126.242
 20
-137.879
  0
LWPOLYLINE
  5
35
330
17
100
AcDbEntity
  8
0
100
AcDbPolyline
 90
6
 70
1
 10
129.773
 20
-137.771
 10
126.742
 20
-137.864
 10
126.742
 20
-137.523
 10
128.258
 20
-136.648
 10
129.773
 20
-137.523
 10
129.773
 20
-137.771
  0
LWPOLYLINE
  5
36
330
17
100
AcDbEntity
  8
0
100
AcDbPolyline
 90
6
 70
1
 10
133.304
 20
-137.663
 10
130.273
 20
-137.756
 10
130.273
 20
-137.523
 10
131.789
 20
-136.648
 10
133.304
 20
-137.523
 10
133.304
 20
-137.663
  0
LWPOLYLINE
  5
37
330
17
100
AcDbEntity
  8
0
100
AcDbPolyline
 90
7
 70
1
 10
136.835
 20
-137.554
 10
134.65
 20
-137.621
 10
133.804
 20
-137.647
 10
133.804
 20
-137.523
 10
135.32
 20
-136.648
 10
136.835
 20
-137.523
 10
136.835
 20
-137.554
  0
LWPOLYLINE
  5
38
330
17
100
AcDbEntity
  8
0
100
AcDbPolyline
 90
8
 70
1
 10
139.976
 20
-137.301
 10
139.534
 20
-137.402
 10
138.987
 20
-137.471
 10
138.434
 20
-137.504
 10
137.335
 20
-137.539
 10
137.335
 20
-137.523
 10
138.851
 20
-136.648
 10
139.976
 20
-137.301
  0
LWPOLYLINE
  5
39
330
17
100
AcDbEntity
  8
0
100
AcDbPolyline
 90
10
 70
1
 10
120.163
 20
-136.667
 10
119.956
 20
-136.32
 10
119.765
 20
-135.894
 10
119.613
 20
-135.446
 10
119.466
 20
-134.893
 10
119.198
 20
-133.724
 10
119.43
 20
-133.59
 10
120.945
 20
-134.465
 10
120.945
 20
-136.215
 10
120.163
 20
-136.667
  0
INSERT
  5
3A
330
17
100
AcDbEntity
  8
0
100
AcDbBlockReference
  2
HEX
 10
122.961
 20
-135.34
 30
0.0
  0
INSERT
  5
3C
330
17
100
AcDbEntity
  8
0
100
AcDbBlockReference
  2
HEX
 10
126.492
 20
-135.34
 30
0.0
  0
INSERT
  5
3E
330
17
100
AcDbEntity
  8
0
100
AcDbBlockReference
  2
HEX
 10
130.023
 20
-135.34
 30
0.0
  0
INSERT
  5
40
330
17
100
AcDbEntity
  8
0
100
AcDbBlockReference
  2
HEX
 10
133.554
 20
-135.34
 30
0.0
  0
INSERT
  5
42
330
17
100
AcDbEntity
  8
0
100
AcDbBlockReference
  2
HEX
 10
137.085
 20
-135.34
 30
0.0
  0
LWPOLYLINE
  5
44
330
17
100
AcDbEntity
  8
0
100
AcDbPolyline
 90
14
 70
1
 10
142.012
 20
-134.396
 10
141.948
 20
-134.918
 10
141.864
 20
-135.31
 10
141.745
 20
-135.685
 10
141.585
 20
-136.037
 10
141.382
 20
-136.362
 10
141.219
 20
-136.561
 10
140.932
 20
-136.829
 10
140.634
 20
-137.029
 10
140.571
 20
-137.064
 10
139.101
 20
-136.215
 10
139.101
 20
-134.465
 10
140.616
 20
-133.59
 10
142.012
 20
-134.396
  0
LWPOLYLINE
  5
45
330
17
100
AcDbEntity
  8
0
100
AcDbPolyline
 90
6
 70
1
 10
119.123
 20
-133.18
 10
119.06
 20
-132.808
 10
118.932
 20
-131.264
 10
119.18
 20
-131.407
 10
119.18
 20
-133.157
 10
119.123
 20
-133.18
  0
INSERT
  5
46
330
17
100
AcDbEntity
  8
0
100
AcDbBlockReference
  2
HEX
 10
121.195
 20
-132.282
 30
0.0
  0
INSERT
  5
48
330
17
100
AcDbEntity
  8
0
100
AcDbBlockReference
  2
HEX
 10
124.727
 20
-132.282
 30
0.0
  0
INSERT
  5
4A
330
17
100
AcDbEntity
  8
0
100
AcDbBlockReference
  2
HEX
 10
128.258
 20
-132.282
 30
0.0
  0
INSERT
  5
4C
330
17
100
AcDbEntity
  8
0
100
AcDbBlockReference
  2
HEX
 10
131.789
 20
-132.282
 30
0.0
  0
INSERT
  5
4E
330
17
100
AcDbEntity
  8
0
100
AcDbBlockReference
  2
HEX
 10
135.32
 20
-132.282
 30
0.0
  0
INSERT
  5
50
330
17
100
AcDbEntity
  8
0
100
AcDbBlockReference
  2
HEX
 10
138.851
 20
-132.282
 30
0.0
  0
LWPOLYLINE
  5
52
330
17
100
AcDbEntity
  8
0
100
AcDbPolyline
 90
7
 70
1
 10
142.019
 20
-133.137
 10
142.036
 20
-133.832
 10
140.866
 20
-133.157
 10
140.866
 20
-131.407
 10
141.83
 20
-130.85
 10
141.937
 20
-131.992
 10
142.019
 20
-133.137
  0
LWPOLYLINE
  5
53
330
17
100
AcDbEntity
  8
0
100
AcDbPolyline
 90
8
 70
1
 10
118.889
 20
-130.661
 10
118.798
 20
-129.105
 10
118.753
 20
-127.865
 10
119.43
 20
-127.474
 10
120.945
 20
-128.349
 10
120.945
 20
-130.099
 10
119.43
 20
-130.974
 10
118.889
 20
-130.661
  0
INSERT
  5
54
330
17
100
AcDbEntity
  8
0
100
AcDbBlockReference
  2
HEX
 10
122.961
 20
-129.224
 30
0.0
  0
INSERT
  5
56
330
17
100
AcDbEntity
  8
0
100
AcDbBlockReference
  2
HEX
 10
126.492
 20
-129.224
 30
0.0
  0
INSERT
  5
58
330
17
100
AcDbEntity
  8
0
100
AcDbBlockReference
  2
HEX
 10
130.023
 20
-129.224
 30
0.0
  0
INSERT
  5
5A
330
17
100
AcDbEntity
  8
0
100
AcDbBlockReference
  2
HEX
 10
133.554
 20
-129.224
 30
0.0
  0
INSERT
  5
5C
330
17
100
AcDbEntity
  8
0
100
AcDbBlockReference
  2
HEX
 10
137.085
 20
-129.224
 30
0.0
  0
LWPOLYLINE
  5
5E
330
17
100
AcDbEntity
  8
0
100
AcDbPolyline
 90
8
 70
1
 10
141.466
 20
-127.964
 10
141.637
 20
-129.188
 10
141.772
 20
-130.307
 10
140.616
 20
-130.974
 10
139.101
 20
-130.099
 10
139.101
 20
-128.349
 10
140.616
 20
-127.474
 10
141.466
 20
-127.964
  0
LWPOLYLINE
  5
5F
330
17
100
AcDbEntity
  8
0
100
AcDbPolyline
 90
6
 70
1
 10
118.742
 20
-127.294
 10
118.741
 20
-126.07
 10
118.768
 20
-125.053
 10
119.18
 20
-125.291
 10
119.18
 20
-127.041
 10
118.742
 20
-127.294
  0
INSERT
  5
60
330
17
100
AcDbEntity
  8
0
100
AcDbBlockReference
  2
HEX
 10
121.195
 20
-126.166
 30
0.0
  0
INSERT
  5
62
330
17
100
AcDbEntity
  8
0
100
AcDbBlockReference
  2
HEX
 10
124.727
 20
-126.166
 30
0.0
  0
INSERT
  5
64
330
17
100
AcDbEntity
  8
0
100
AcDbBlockReference
  2
HEX
 10
128.258
 20
-126.166
 30
0.0
  0
INSERT
  5
66
330
17
100
AcDbEntity
  8
0
100
AcDbBlockReference
  2
HEX
 10
131.789
 20
-126.166
 30
0.0
  0
INSERT
  5
68
330
17
100
AcDbEntity
  8
0
100
AcDbBlockReference
  2
HEX
 10
135.32
 20
-126.166
 30
0.0
  0
INSERT
  5
6A
330
17
100
AcDbEntity
  8
0
100
AcDbBlockReference
  2
HEX
 10
138.851
 20
-126.166
 30
0.0
  0
LWPOLYLINE
  5
6C
330
17
100
AcDbEntity
  8
0
100
AcDbPolyline
 90
6
 70
1
 10
140.995
 20
-125.217
 10
141.237
 20
-126.543
 10
141.368
 20
-127.33
 10
140.866
 20
-127.041
 10
140.866
 20
-125.291
 10
140.995
 20
-125.217
  0
LWPOLYLINE
  5
6D
330
17
100
AcDbEntity
  8
0
100
AcDbPolyline
 90
9
 70
1
 10
118.796
 20
-124.491
 10
118.907
 20
-123.046
 10
118.981
 20
-122.378
 10
119.097
 20
-121.55
 10
119.43
 20
-121.358
 10
120.945
 20
-122.233
 10
120.945
 20
-123.983
 10
119.43
 20
-124.858
 10
118.796
 20
-124.491
  0
INSERT
  5
6E
330
17
100
AcDbEntity
  8
0
100
AcDbBlockReference
  2
HEX
 10
122.961
 20
-123.108
 30
0.0
  0
INSERT
  5
70
330
17
100
AcDbEntity
  8
0
100
AcDbBlockReference
  2
HEX
 10
126.492
 20
-123.108
 30
0.0
  0
INSERT
  5
72
330
17
100
AcDbEntity
  8
0
100
AcDbBlockReference
  2
HEX
 10
130.023
 20
-123.108
 30
0.0
  0
INSERT
  5
74
330
17
100
AcDbEntity
  8
0
100
AcDbBlockReference
  2
HEX
 10
133.554
 20
-123.108
 30
0.0
  0
INSERT
  5
76
330
17
100
AcDbEntity
  8
0
100
AcDbBlockReference
  2
HEX
 10
137.085
 20
-123.108
 30
0.0
  0
LWPOLYLINE
  5
78
330
17
100
AcDbEntity
  8
0
100
AcDbPolyline
 90
7
 70
1
 10
140.193
 20
-121.602
 10
140.566
 20
-123.169
 10
140.893
 20
-124.698
 10
140.616
 20
-124.858
 10
139.101
 20
-123.983
 10
139.101
 20
-122.233
 10
140.193
 20
-121.602
  0
INSERT
  5
79
330
17
100
AcDbEntity
  8
0
100
AcDbBlockReference
  2
HEX
 10
121.195
 20
-120.05
 30
0.0
  0
INSERT
  5
7B
330
17
100
AcDbEntity
  8
0
100
AcDbBlockReference
  2
HEX
 10
124.727
 20
-120.05
 30
0.0
  0
INSERT
  5
7D
330
17
100
AcDbEntity
  8
0
100
AcDbBlockReference
  2
HEX
 10
128.258
 20
-120.05
 30
0.0
  0
INSERT
  5
7F
330
17
100
AcDbEntity
  8
0
100
AcDbBlockReference
  2
HEX
 10
131.789
 20
-120.05
 30
0.0
  0
INSERT
  5
81
330
17
100
AcDbEntity
  8
0
100
AcDbBlockReference
  2
HEX
 10
135.32
 20
-120.05
 30
0.0
  0
LWPOLYLINE
  5
83
330
17
100
AcDbEntity
  8
0
100
AcDbPolyline
 90
8
 70
1
 10
139.366
 20
-118.597
 10
139.725
 20
-119.833
 10
140.064
 20
-121.099
 10
138.851
 20
-121.8
 10
137.335
 20
-120.925
 10
137.335
 20
-119.175
 10
138.851
 20
-118.3
 10
139.366
 20
-118.597
  0
LWPOLYLINE
  5
84
330
17
100
AcDbEntity
  8
0
100
AcDbPolyline
 90
9
 70
1
 10
116.503
 20
-115.59
 10
116.256
 20
-116.219
 10
115.984
 20
-116.999
 10
115.741
 20
-117.79
 10
115.542
 20
-118.536
 10
115.351
 20
-118.425
 10
114.713
 20
-115.926
 10
115.899
 20
-115.242
 10
116.503
 20
-115.59
  0
LWPOLYLINE
  5
85
330
17
100
AcDbEntity
  8
0
100
AcDbPolyline
 90
8
 70
1
 10
119.833
 20
-118.509
 10
120.182
 20
-117.566
 10
120.338
 20
-117.196
 10
120.677
 20
-116.473
 10
120.882
 20
-116.08
 10
120.945
 20
-116.117
 10
120.945
 20
-117.867
 10
119.833
 20
-118.509
  0
INSERT
  5
86
330
17
100
AcDbEntity
  8
0
100
AcDbBlockReference
  2
HEX
 10
122.961
 20
-116.992
 30
0.0
  0
INSERT
  5
88
330
17
100
AcDbEntity
  8
0
100
AcDbBlockReference
  2
HEX
 10
126.492
 20
-116.992
 30
0.0
  0
INSERT
  5
8A
330
17
100
AcDbEntity
  8
0
100
AcDbBlockReference
  2
HEX
 10
130.023
 20
-116.992
 30
0.0
  0
INSERT
  5
8C
330
17
100
AcDbEntity
  8
0
100
AcDbBlockReference
  2
HEX
 10
133.554
 20
-116.992
 30
0.0
  0
LWPOLYLINE
  5
8E
330
17
100
AcDbEntity
  8
0
100
AcDbPolyline
 90
8
 70
1
 10
138.599
 20
-116.239
 10
138.601
 20
-117.867
 10
137.085
 20
-118.742
 10
135.57
 20
-117.867
 10
135.57
 20
-116.117
 10
137.085
 20
-115.242
 10
138.545
 20
-116.084
 10
138.599
 20
-116.239
  0
LWPOLYLINE
  5
8F
330
17
100
AcDbEntity
  8
0
100
AcDbPolyline
 90
4
 70
1
 10
139.148
 20
-117.894
 10
139.101
 20
-117.867
 10
139.101
 20
-117.744
 10
139.148
 20
-117.894
  0
LWPOLYLINE
  5
90
330
17
100
AcDbEntity
  8
0
100
AcDbPolyline
 90
6
 70
1
 10
114.585
 20
-115.423
 10
113.812
 20
-112.369
 10
114.133
 20
-112.184
 10
115.649
 20
-113.059
 10
115.649
 20
-114.809
 10
114.585
 20
-115.423
  0
LWPOLYLINE
  5
91
330
17
100
AcDbEntity
  8
0
100
AcDbPolyline
 90
9
 70
1
 10
118.157
 20
-112.468
 10
117.821
 20
-112.992
 10
117.401
 20
-113.712
 10
117.018
 20
-114.448
 10
116.7
 20
-115.127
 10
116.149
 20
-114.809
 10
116.149
 20
-113.059
 10
117.664
 20
-112.184
 10
118.157
 20
-112.468
  0
LWPOLYLINE
  5
92
330
17
100
AcDbEntity
  8
0
100
AcDbPolyline
 90
8
 70
1
 10
121.127
 20
-115.644
 10
121.682
 20
-114.759
 10
121.911
 20
-114.431
 10
122.396
 20
-113.789
 10
122.711
 20
-113.406
 10
122.711
 20
-114.809
 10
121.195
 20
-115.684
 10
121.127
 20
-115.644
  0
INSERT
  5
93
330
17
100
AcDbEntity
  8
0
100
AcDbBlockReference
  2
HEX
 10
124.727
 20
-113.934
 30
0.0
  0
INSERT
  5
95
330
17
100
AcDbEntity
  8
0
100
AcDbBlockReference
  2
HEX
 10
128.258
 20
-113.934
 30
0.0
  0
INSERT
  5
97
330
17
100
AcDbEntity
  8
0
100
AcDbBlockReference
  2
HEX
 10
131.789
 20
-113.934
 30
0.0
  0
INSERT
  5
99
330
17
100
AcDbEntity
  8
0
100
AcDbBlockReference
  2
HEX
 10
135.32
 20
-113.934
 30
0.0
  0
LWPOLYLINE
  5
9B
330
17
100
AcDbEntity
  8
0
100
AcDbPolyline
 90
6
 70
1
 10
137.401
 20
-113.021
 10
137.828
 20
-114.122
 10
138.286
 20
-115.358
 10
137.335
 20
-114.809
 10
137.335
 20
-113.059
 10
137.401
 20
-113.021
  0
LWPOLYLINE
  5
9C
330
17
100
AcDbEntity
  8
0
100
AcDbPolyline
 90
6
 70
1
 10
113.685
 20
-111.865
 10
113.447
 20
-110.921
 10
113.103
 20
-109.55
 10
113.883
 20
-110.001
 10
113.883
 20
-111.751
 10
113.685
 20
-111.865
  0
INSERT
  5
9D
330
17
100
AcDbEntity
  8
0
100
AcDbBlockReference
  2
HEX
 10
115.899
 20
-110.876
 30
0.0
  0
LWPOLYLINE
  5
9F
330
17
100
AcDbEntity
  8
0
100
AcDbPolyline
 90
8
 70
1
 10
119.129
 20
-111.156
 10
118.442
 20
-112.055
 10
117.914
 20
-111.751
 10
117.914
 20
-110.001
 10
119.43
 20
-109.126
 10
120.444
 20
-109.711
 10
119.598
 20
-110.611
 10
119.129
 20
-111.156
  0
LWPOLYLINE
  5
A0
330
17
100
AcDbEntity
  8
0
100
AcDbPolyline
 90
5
 70
1
 10
124.038
 20
-112.004
 10
124.393
 20
-111.674
 10
124.477
 20
-111.6
 10
124.477
 20
-111.751
 10
124.038
 20
-112.004
  0
LWPOLYLINE
  5
A1
330
17
100
AcDbEntity
  8
0
100
AcDbPolyline
 90
8
 70
1
 10
124.977
 20
-111.167
 10
126.099
 20
-110.268
 10
127.118
 20
-109.487
 10
128.008
 20
-110.001
 10
128.008
 20
-111.751
 10
126.492
 20
-112.626
 10
124.977
 20
-111.751
 10
124.977
 20
-111.167
  0
INSERT
  5
A2
330
17
100
AcDbEntity
  8
0
100
AcDbBlockReference
  2
HEX
 10
130.023
 20
-110.876
 30
0.0
  0
INSERT
  5
A4
330
17
100
AcDbEntity
  8
0
100
AcDbBlockReference
  2
HEX
 10
133.554
 20
-110.876
 30
0.0
  0
LWPOLYLINE
  5
A6
330
17
100
AcDbEntity
  8
0
100
AcDbPolyline
 90
6
 70
1
 10
136.049
 20
-109.724
 10
137.215
 20
-112.551
 10
137.085
 20
-112.626
 10
135.57
 20
-111.751
 10
135.57
 20
-110.001
 10
136.049
 20
-109.724
  0
LWPOLYLINE
  5
A7
330
17
100
AcDbEntity
  8
0
100
AcDbPolyline
 90
8
 70
1
 10
112.934
 20
-108.875
 10
112.618
 20
-107.605
 10
112.618
 20
-106.943
 10
114.133
 20
-106.068
 10
115.649
 20
-106.943
 10
115.649
 20
-108.693
 10
114.133
 20
-109.568
 10
112.934
 20
-108.875
  0
INSERT
  5
A8
330
17
100
AcDbEntity
  8
0
100
AcDbBlockReference
  2
HEX
 10
117.664
 20
-107.818
 30
0.0
  0
LWPOLYLINE
  5
AA
330
17
100
AcDbEntity
  8
0
100
AcDbPolyline
 90
8
 70
1
 10
122.711
 20
-107.678
 10
121.441
 20
-108.762
 10
120.813
 20
-109.347
 10
119.68
 20
-108.693
 10
119.68
 20
-106.943
 10
121.195
 20
-106.068
 10
122.711
 20
-106.943
 10
122.711
 20
-107.678
  0
LWPOLYLINE
  5
AB
330
17
100
AcDbEntity
  8
0
100
AcDbPolyline
 90
6
 70
1
 10
124.785
 20
-106.101
 10
123.821
 20
-106.81
 10
123.211
 20
-107.28
 10
123.211
 20
-106.943
 10
124.727
 20
-106.068
 10
124.785
 20
-106.101
  0
LWPOLYLINE
  5
AC
330
17
100
AcDbEntity
  8
0
100
AcDbPolyline
 90
6
 70
1
 10
127.553
 20
-109.161
 10
128.791
 20
-108.258
 10
129.773
 20
-107.567
 10
129.773
 20
-108.693
 10
128.258
 20
-109.568
 10
127.553
 20
-109.161
  0
LWPOLYLINE
  5
AD
330
17
100
AcDbEntity
  8
0
100
AcDbPolyline
 90
7
 70
1
 10
130.273
 20
-107.223
 10
131.902
 20
-106.133
 10
133.304
 20
-106.943
 10
133.304
 20
-108.693
 10
131.789
 20
-109.568
 10
130.273
 20
-108.693
 10
130.273
 20
-107.223
  0
LWPOLYLINE
  5
AE
330
17
100
AcDbEntity
  8
0
100
AcDbPolyline
 90
6
 70
1
 10
134.65
 20
-106.454
 10
135.852
 20
-109.26
 10
135.32
 20
-109.568
 10
133.804
 20
-108.693
 10
133.804
 20
-106.943
 10
134.65
 20
-106.454
  0
LWPOLYLINE
  5
AF
330
17
100
AcDbEntity
  8
0
100
AcDbPolyline
 90
7
 70
1
 10
112.343
 20
-106.495
 10
111.59
 20
-103.458
 10
112.368
 20
-103.01
 10
113.883
 20
-103.885
 10
113.883
 20
-105.635
 10
112.368
 20
-106.51
 10
112.343
 20
-106.495
  0
INSERT
  5
B0
330
17
100
AcDbEntity
  8
0
100
AcDbBlockReference
  2
HEX
 10
115.899
 20
-104.76
 30
0.0
  0
INSERT
  5
B2
330
17
100
AcDbEntity
  8
0
100
AcDbBlockReference
  2
HEX
 10
119.43
 20
-104.76
 30
0.0
  0
INSERT
  5
B4
330
17
100
AcDbEntity
  8
0
100
AcDbBlockReference
  2
HEX
 10
122.961
 20
-104.76
 30
0.0
  0
LWPOLYLINE
  5
B6
330
17
100
AcDbEntity
  8
0
100
AcDbPolyline
 90
6
 70
1
 10
128.005
 20
-103.883
 10
125.232
 20
-105.782
 10
124.977
 20
-105.635
 10
124.977
 20
-103.885
 10
126.492
 20
-103.01
 10
128.005
 20
-103.883
  0
LWPOLYLINE
  5
B7
330
17
100
AcDbEntity
  8
0
100
AcDbPolyline
 90
6
 70
1
 10
132.36
 20
-105.82
 10
133.24
 20
-105.191
 10
133.897
 20
-104.682
 10
134.452
 20
-105.991
 10
133.554
 20
-106.51
 10
132.36
 20
-105.82
  0
LWPOLYLINE
  5
B8
330
17
100
AcDbEntity
  8
0
100
AcDbPolyline
 90
6
 70
1
 10
111.462
 20
-102.945
 10
111.078
 20
-101.411
 10
110.725
 20
-100.023
 10
112.118
 20
-100.827
 10
112.118
 20
-102.577
 10
111.462
 20
-102.945
  0
INSERT
  5
B9
330
17
100
AcDbEntity
  8
0
100
AcDbBlockReference
  2
HEX
 10
114.133
 20
-101.702
 30
0.0
  0
INSERT
  5
BB
330
17
100
AcDbEntity
  8
0
100
AcDbBlockReference
  2
HEX
 10
117.664
 20
-101.702
 30
0.0
  0
INSERT
  5
BD
330
17
100
AcDbEntity
  8
0
100
AcDbBlockReference
  2
HEX
 10
121.195
 20
-101.702
 30
0.0
  0
INSERT
  5
BF
330
17
100
AcDbEntity
  8
0
100
AcDbBlockReference
  2
HEX
 10
124.727
 20
-101.702
 30
0.0
  0
INSERT
  5
C1
330
17
100
AcDbEntity
  8
0
100
AcDbBlockReference
  2
HEX
 10
128.258
 20
-101.702
 30
0.0
  0
LWPOLYLINE
  5
C3
330
17
100
AcDbEntity
  8
0
100
AcDbPolyline
 90
9
 70
1
 10
132.069
 20
-100.114
 10
132.267
 20
-100.639
 10
131.841
 20
-101.078
 10
131.433
 20
-101.446
 10
130.863
 20
-101.905
 10
130.273
 20
-102.334
 10
130.273
 20
-100.827
 10
131.789
 20
-99.952
 10
132.069
 20
-100.114
  0
LWPOLYLINE
  5
C4
330
17
100
AcDbEntity
  8
0
100
AcDbPolyline
 90
5
 70
1
 10
110.352
 20
-98.575
 10
110.193
 20
-97.963
 10
110.104
 20
-97.625
 10
110.352
 20
-97.769
 10
110.352
 20
-98.575
  0
INSERT
  5
C5
330
17
100
AcDbEntity
  8
0
100
AcDbBlockReference
  2
HEX
 10
112.368
 20
-98.644
 30
0.0
  0
INSERT
  5
C7
330
17
100
AcDbEntity
  8
0
100
AcDbBlockReference
  2
HEX
 10
115.899
 20
-98.644
 30
0.0
  0
INSERT
  5
C9
330
17
100
AcDbEntity
  8
0
100
AcDbBlockReference
  2
HEX
 10
119.43
 20
-98.644
 30
0.0
  0
INSERT
  5
CB
330
17
100
AcDbEntity
  8
0
100
AcDbBlockReference
  2
HEX
 10
122.961
 20
-98.644
 30
0.0
  0
INSERT
  5
CD
330
17
100
AcDbEntity
  8
0
100
AcDbBlockReference
  2
HEX
 10
126.492
 20
-98.644
 30
0.0
  0
LWPOLYLINE
  5
CF
330
17
100
AcDbEntity
  8
0
100
AcDbPolyline
 90
8
 70
1
 10
131.167
 20
-97.554
 10
131.539
 20
-98.648
 10
131.539
 20
-99.519
 10
130.023
 20
-100.394
 10
128.508
 20
-99.519
 10
128.508
 20
-97.769
 10
130.023
 20
-96.894
 10
131.167
 20
-97.554
  0
LWPOLYLINE
  5
D0
330
17
100
AcDbEntity
  8
0
100
AcDbPolyline
 90
8
 70
1
 10
109.923
 20
-96.943
 10
109.557
 20
-95.534
 10
109.338
 20
-94.566
 10
110.602
 20
-93.836
 10
112.118
 20
-94.711
 10
112.118
 20
-96.461
 10
110.602
 20
-97.336
 10
109.923
 20
-96.943
  0
INSERT
  5
D1
330
17
100
AcDbEntity
  8
0
100
AcDbBlockReference
  2
HEX
 10
114.133
 20
-95.586
 30
0.0
  0
INSERT
  5
D3
330
17
100
AcDbEntity
  8
0
100
AcDbBlockReference
  2
HEX
 10
117.664
 20
-95.586
 30
0.0
  0
INSERT
  5
D5
330
17
100
AcDbEntity
  8
0
100
AcDbBlockReference
  2
HEX
 10
121.195
 20
-95.586
 30
0.0
  0
INSERT
  5
D7
330
17
100
AcDbEntity
  8
0
100
AcDbBlockReference
  2
HEX
 10
124.727
 20
-95.586
 30
0.0
  0
INSERT
  5
D9
330
17
100
AcDbEntity
  8
0
100
AcDbBlockReference
  2
HEX
 10
128.258
 20
-95.586
 30
0.0
  0
LWPOLYLINE
  5
DB
330
17
100
AcDbEntity
  8
0
100
AcDbPolyline
 90
6
 70
1
 10
130.323
 20
-94.682
 10
130.597
 20
-95.705
 10
130.939
 20
-96.845
 10
130.273
 20
-96.461
 10
130.273
 20
-94.711
 10
130.323
 20
-94.682
  0
LWPOLYLINE
  5
DC
330
17
100
AcDbEntity
  8
0
100
AcDbPolyline
 90
8
 70
1
 10
109.239
 20
-94.045
 10
109.108
 20
-93.12
 10
109.054
 20
-92.373
 10
109.056
 20
-91.625
 10
109.116
 20
-90.939
 10
110.352
 20
-91.653
 10
110.352
 20
-93.403
 10
109.239
 20
-94.045
  0
INSERT
  5
DD
330
17
100
AcDbEntity
  8
0
100
AcDbBlockReference
  2
HEX
 10
112.368
 20
-92.528
 30
0.0
  0
INSERT
  5
DF
330
17
100
AcDbEntity
  8
0
100
AcDbBlockReference
  2
HEX
 10
115.899
 20
-92.528
 30
0.0
  0
INSERT
  5
E1
330
17
100
AcDbEntity
  8
0
100
AcDbBlockReference
  2
HEX
 10
119.43
 20
-92.528
 30
0.0
  0
INSERT
  5
E3
330
17
100
AcDbEntity
  8
0
100
AcDbBlockReference
  2
HEX
 10
122.961
 20
-92.528
 30
0.0
  0
INSERT
  5
E5
330
17
100
AcDbEntity
  8
0
100
AcDbBlockReference
  2
HEX
 10
126.492
 20
-92.528
 30
0.0
  0
LWPOLYLINE
  5
E7
330
17
100
AcDbEntity
  8
0
100
AcDbPolyline
 90
9
 70
1
 10
129.698
 20
-90.965
 10
129.795
 20
-91.942
 10
129.906
 20
-92.702
 10
130.045
 20
-93.458
 10
130.201
 20
-94.175
 10
130.023
 20
-94.278
 10
128.508
 20
-93.403
 10
128.508
 20
-91.653
 10
129.698
 20
-90.965
  0
LWPOLYLINE
  5
E8
330
17
100
AcDbEntity
  8
0
100
AcDbPolyline
 90
6
 70
1
 10
97.993
 20
-89.396
 10
97.807
 20
-89.857
 10
97.708
 20
-90.255
 10
97.143
 20
-88.104
 10
97.993
 20
-88.595
 10
97.993
 20
-89.396
  0
LWPOLYLINE
  5
E9
330
17
100
AcDbEntity
  8
0
100
AcDbPolyline
 90
9
 70
1
 10
109.203
 20
-90.412
 10
109.341
 20
-89.823
 10
109.516
 20
-89.233
 10
109.923
 20
-88.112
 10
110.602
 20
-87.72
 10
112.118
 20
-88.595
 10
112.118
 20
-90.345
 10
110.602
 20
-91.22
 10
109.203
 20
-90.412
  0
INSERT
  5
EA
330
17
100
AcDbEntity
  8
0
100
AcDbBlockReference
  2
HEX
 10
114.133
 20
-89.47
 30
0.0
  0
INSERT
  5
EC
330
17
100
AcDbEntity
  8
0
100
AcDbBlockReference
  2
HEX
 10
117.664
 20
-89.47
 30
0.0
  0
INSERT
  5
EE
330
17
100
AcDbEntity
  8
0
100
AcDbBlockReference
  2
HEX
 10
121.195
 20
-89.47
 30
0.0
  0
INSERT
  5
F0
330
17
100
AcDbEntity
  8
0
100
AcDbBlockReference
  2
HEX
 10
124.727
 20
-89.47
 30
0.0
  0
LWPOLYLINE
  5
F2
330
17
100
AcDbEntity
  8
0
100
AcDbPolyline
 90
8
 70
1
 10
129.716
 20
-88.561
 10
129.659
 20
-89.65
 10
129.667
 20
-90.406
 10
128.258
 20
-91.22
 10
126.742
 20
-90.345
 10
126.742
 20
-88.595
 10
128.258
 20
-87.72
 10
129.716
 20
-88.561
  0
LWPOLYLINE
  5
F3
330
17
100
AcDbEntity
  8
0
100
AcDbPolyline
 90
8
 70
1
 10
96.95
 20
-87.415
 10
96.728
 20
-86.657
 10
96.728
 20
-85.537
 10
98.243
 20
-84.662
 10
99.759
 20
-85.537
 10
99.759
 20
-87.287
 10
98.243
 20
-88.162
 10
96.95
 20
-87.415
  0
LWPOLYLINE
  5
F4
330
17
100
AcDbEntity
  8
0
100
AcDbPolyline
 90
17
 70
1
 10
101.389
 20
-84.884
 10
101.656
 20
-85.369
 10
101.901
 20
-85.752
 10
101.745
 20
-85.935
 10
101.654
 20
-86.088
 10
101.592
 20
-86.253
 10
101.556
 20
-86.46
 10
101.558
 20
-86.637
 10
101.59
 20
-86.812
 10
101.787
 20
-87.329
 10
101.377
 20
-87.282
 10
101.01
 20
-87.281
 10
100.676
 20
-87.316
 10
100.407
 20
-87.372
 10
100.259
 20
-87.287
 10
100.259
 20
-85.537
 10
101.389
 20
-84.884
  0
LWPOLYLINE
  5
F5
330
17
100
AcDbEntity
  8
0
100
AcDbPolyline
 90
5
 70
1
 10
110.23
 20
-87.351
 10
110.349
 20
-87.064
 10
110.352
 20
-87.056
 10
110.352
 20
-87.287
 10
110.23
 20
-87.351
  0
LWPOLYLINE
  5
F6
330
17
100
AcDbEntity
  8
0
100
AcDbPolyline
 90
8
 70
1
 10
110.86
 20
-85.766
 10
110.967
 20
-85.47
 10
112.368
 20
-84.662
 10
113.883
 20
-85.537
 10
113.883
 20
-87.287
 10
112.368
 20
-88.162
 10
110.852
 20
-87.287
 10
110.86
 20
-85.766
  0
INSERT
  5
F7
330
17
100
AcDbEntity
  8
0
100
AcDbBlockReference
  2
HEX
 10
115.899
 20
-86.412
 30
0.0
  0
INSERT
  5
F9
330
17
100
AcDbEntity
  8
0
100
AcDbBlockReference
  2
HEX
 10
119.43
 20
-86.412
 30
0.0
  0
INSERT
  5
FB
330
17
100
AcDbEntity
  8
0
100
AcDbBlockReference
  2
HEX
 10
122.961
 20
-86.412
 30
0.0
  0
INSERT
  5
FD
330
17
100
AcDbEntity
  8
0
100
AcDbBlockReference
  2
HEX
 10
126.492
 20
-86.412
 30
0.0
  0
LWPOLYLINE
  5
FF
330
17
100
AcDbEntity
  8
0
100
AcDbPolyline
 90
9
 70
1
 10
130.613
 20
-85.007
 10
130.347
 20
-85.648
 10
130.083
 20
-86.472
 10
129.922
 20
-87.148
 10
129.776
 20
-88.019
 10
128.508
 20
-87.287
 10
128.508
 20
-85.537
 10
130.023
 20
-84.662
 10
130.613
 20
-85.007
  0
LWPOLYLINE
  5
100
330
17
100
AcDbEntity
  8
0
100
AcDbPolyline
 90
10
 70
1
 10
96.154
 20
-84.917
 10
95.891
 20
-84.23
 10
95.628
 20
-83.618
 10
95.349
 20
-83.066
 10
94.98
 20
-82.468
 10
96.478
 20
-81.604
 10
97.993
 20
-82.479
 10
97.993
 20
-84.229
 10
96.478
 20
-85.104
 10
96.154
 20
-84.917
  0
LWPOLYLINE
  5
101
330
17
100
AcDbEntity
  8
0
100
AcDbPolyline
 90
10
 70
1
 10
100.359
 20
-81.806
 10
100.605
 20
-82.86
 10
100.735
 20
-83.295
 10
100.882
 20
-83.726
 10
101.171
 20
-84.433
 10
100.009
 20
-85.104
 10
98.493
 20
-84.229
 10
98.493
 20
-82.479
 10
100.009
 20
-81.604
 10
100.359
 20
-81.806
  0
LWPOLYLINE
  5
102
330
17
100
AcDbEntity
  8
0
100
AcDbPolyline
 90
6
 70
1
 10
111.208
 20
-84.754
 10
111.563
 20
-83.55
 10
111.86
 20
-82.33
 10
112.118
 20
-82.479
 10
112.118
 20
-84.229
 10
111.208
 20
-84.754
  0
INSERT
  5
103
330
17
100
AcDbEntity
  8
0
100
AcDbBlockReference
  2
HEX
 10
114.133
 20
-83.354
 30
0.0
  0
INSERT
  5
105
330
17
100
AcDbEntity
  8
0
100
AcDbBlockReference
  2
HEX
 10
117.664
 20
-83.354
 30
0.0
  0
INSERT
  5
107
330
17
100
AcDbEntity
  8
0
100
AcDbBlockReference
  2
HEX
 10
121.195
 20
-83.354
 30
0.0
  0
INSERT
  5
109
330
17
100
AcDbEntity
  8
0
100
AcDbBlockReference
  2
HEX
 10
124.727
 20
-83.354
 30
0.0
  0
INSERT
  5
10B
330
17
100
AcDbEntity
  8
0
100
AcDbBlockReference
  2
HEX
 10
128.258
 20
-83.354
 30
0.0
  0
LWPOLYLINE
  5
10D
330
17
100
AcDbEntity
  8
0
100
AcDbPolyline
 90
8
 70
1
 10
132.563
 20
-82.051
 10
131.3
 20
-83.792
 10
131.017
 20
-84.237
 10
130.838
 20
-84.555
 10
130.273
 20
-84.229
 10
130.273
 20
-82.479
 10
131.789
 20
-81.604
 10
132.563
 20
-82.051
  0
LWPOLYLINE
  5
10E
330
17
100
AcDbEntity
  8
0
100
AcDbPolyline
 90
5
 70
1
 10
64.078
 20
-79.207
 10
62.931
 20
-79.207
 10
61.787
 20
-79.207
 10
62.932
 20
-78.546
 10
64.078
 20
-79.207
  0
LWPOLYLINE
  5
10F
330
17
100
AcDbEntity
  8
0
100
AcDbPolyline
 90
5
 70
1
 10
67.606
 20
-79.207
 10
66.938
 20
-79.207
 10
65.318
 20
-79.207
 10
66.464
 20
-78.546
 10
67.606
 20
-79.207
  0
LWPOLYLINE
  5
110
330
17
100
AcDbEntity
  8
0
100
AcDbPolyline
 90
5
 70
1
 10
71.14
 20
-79.207
 10
70.277
 20
-79.207
 10
68.849
 20
-79.207
 10
69.995
 20
-78.546
 10
71.14
 20
-79.207
  0
LWPOLYLINE
  5
111
330
17
100
AcDbEntity
  8
0
100
AcDbPolyline
 90
5
 70
1
 10
74.671
 20
-79.207
 10
73.616
 20
-79.207
 10
72.38
 20
-79.207
 10
73.526
 20
-78.546
 10
74.671
 20
-79.207
  0
LWPOLYLINE
  5
112
330
17
100
AcDbEntity
  8
0
100
AcDbPolyline
 90
5
 70
1
 10
78.202
 20
-79.207
 10
76.954
 20
-79.207
 10
75.911
 20
-79.207
 10
77.057
 20
-78.546
 10
78.202
 20
-79.207
  0
LWPOLYLINE
  5
113
330
17
100
AcDbEntity
  8
0
100
AcDbPolyline
 90
5
 70
1
 10
81.733
 20
-79.207
 10
80.961
 20
-79.207
 10
79.442
 20
-79.207
 10
80.588
 20
-78.546
 10
81.733
 20
-79.207
  0
LWPOLYLINE
  5
114
330
17
100
AcDbEntity
  8
0
100
AcDbPolyline
 90
10
 70
1
 10
92.697
 20
-80.304
 10
92.044
 20
-79.948
 10
91.565
 20
-79.736
 10
91.015
 20
-79.539
 10
90.6
 20
-79.425
 10
90.397
 20
-79.214
 10
90.327
 20
-79.039
 10
91.181
 20
-78.546
 10
92.697
 20
-79.421
 10
92.697
 20
-80.304
  0
LWPOLYLINE
  5
115
330
17
100
AcDbEntity
  8
0
100
AcDbPolyline
 90
11
 70
1
 10
94.633
 20
-82.0
 10
94.197
 20
-81.503
 10
93.837
 20
-81.154
 10
93.471
 20
-80.843
 10
93.197
 20
-80.637
 10
93.197
 20
-79.421
 10
94.712
 20
-78.546
 10
96.228
 20
-79.421
 10
96.228
 20
-81.171
 10
94.712
 20
-82.046
 10
94.633
 20
-82.0
  0
INSERT
  5
116
330
17
100
AcDbEntity
  8
0
100
AcDbBlockReference
  2
HEX
 10
98.243
 20
-80.296
 30
0.0
  0
LWPOLYLINE
  5
118
330
17
100
AcDbEntity
  8
0
100
AcDbPolyline
 90
10
 70
1
 10
111.966
 20
-81.814
 10
112.073
 20
-81.212
 10
112.119
 20
-80.704
 10
112.131
 20
-79.171
 10
112.148
 20
-78.672
 10
112.368
 20
-78.546
 10
113.883
 20
-79.421
 10
113.883
 20
-81.171
 10
112.368
 20
-82.046
 10
111.966
 20
-81.814
  0
INSERT
  5
119
330
17
100
AcDbEntity
  8
0
100
AcDbBlockReference
  2
HEX
 10
115.899
 20
-80.296
 30
0.0
  0
INSERT
  5
11B
330
17
100
AcDbEntity
  8
0
100
AcDbBlockReference
  2
HEX
 10
119.43
 20
-80.296
 30
0.0
  0
INSERT
  5
11D
330
17
100
AcDbEntity
  8
0
100
AcDbBlockReference
  2
HEX
 10
122.961
 20
-80.296
 30
0.0
  0
INSERT
  5
11F
330
17
100
AcDbEntity
  8
0
100
AcDbBlockReference
  2
HEX
 10
126.492
 20
-80.296
 30
0.0
  0
INSERT
  5
121
330
17
100
AcDbEntity
  8
0
100
AcDbBlockReference
  2
HEX
 10
130.023
 20
-80.296
 30
0.0
  0
LWPOLYLINE
  5
123
330
17
100
AcDbEntity
  8
0
100
AcDbPolyline
 90
10
 70
1
 10
134.008
 20
-78.808
 10
133.844
 20
-79.537
 10
133.741
 20
-79.858
 10
133.56
 20
-80.322
 10
133.274
 20
-80.911
 10
132.843
 20
-81.635
 10
132.039
 20
-81.171
 10
132.039
 20
-79.421
 10
133.554
 20
-78.546
 10
134.008
 20
-78.808
  0
LWPOLYLINE
  5
124
330
17
100
AcDbEntity
  8
0
100
AcDbPolyline
 90
5
 70
1
 10
137.177
 20
-78.599
 10
136.716
 20
-78.796
 10
136.398
 20
-78.942
 10
137.085
 20
-78.546
 10
137.177
 20
-78.599
  0
LWPOLYLINE
  5
125
330
17
100
AcDbEntity
  8
0
100
AcDbPolyline
 90
12
 70
1
 10
61.507
 20
-78.78
 10
61.319
 20
-77.891
 10
61.214
 20
-77.545
 10
61.082
 20
-77.213
 10
60.923
 20
-76.898
 10
60.739
 20
-76.599
 10
60.532
 20
-76.319
 10
60.258
 20
-76.012
 10
61.167
 20
-75.488
 10
62.682
 20
-76.363
 10
62.682
 20
-78.113
 10
61.507
 20
-78.78
  0
INSERT
  5
126
330
17
100
AcDbEntity
  8
0
100
AcDbBlockReference
  2
HEX
 10
64.698
 20
-77.238
 30
0.0
  0
INSERT
  5
128
330
17
100
AcDbEntity
  8
0
100
AcDbBlockReference
  2
HEX
 10
68.229
 20
-77.238
 30
0.0
  0
INSERT
  5
12A
330
17
100
AcDbEntity
  8
0
100
AcDbBlockReference
  2
HEX
 10
71.76
 20
-77.238
 30
0.0
  0
INSERT
  5
12C
330
17
100
AcDbEntity
  8
0
100
AcDbBlockReference
  2
HEX
 10
75.291
 20
-77.238
 30
0.0
  0
INSERT
  5
12E
330
17
100
AcDbEntity
  8
0
100
AcDbBlockReference
  2
HEX
 10
78.822
 20
-77.238
 30
0.0
  0
LWPOLYLINE
  5
130
330
17
100
AcDbEntity
  8
0
100
AcDbPolyline
 90
13
 70
1
 10
81.616
 20
-75.913
 10
81.621
 20
-76.306
 10
81.671
 20
-76.725
 10
81.729
 20
-77.0
 10
81.85
 20
-77.402
 10
82.009
 20
-77.793
 10
82.204
 20
-78.17
 10
82.43
 20
-78.532
 10
82.64
 20
-78.822
 10
82.353
 20
-78.988
 10
80.838
 20
-78.113
 10
80.838
 20
-76.363
 10
81.616
 20
-75.913
  0
LWPOLYLINE
  5
131
330
17
100
AcDbEntity
  8
0
100
AcDbPolyline
 90
8
 70
1
 10
89.926
 20
-78.693
 10
89.689
 20
-78.589
 10
89.457
 20
-78.517
 10
88.804
 20
-75.841
 10
89.416
 20
-75.488
 10
90.931
 20
-76.363
 10
90.931
 20
-78.113
 10
89.926
 20
-78.693
  0
INSERT
  5
132
330
17
100
AcDbEntity
  8
0
100
AcDbBlockReference
  2
HEX
 10
92.947
 20
-77.238
 30
0.0
  0
INSERT
  5
134
330
17
100
AcDbEntity
  8
0
100
AcDbBlockReference
  2
HEX
 10
96.478
 20
-77.238
 30
0.0
  0
LWPOLYLINE
  5
136
330
17
100
AcDbEntity
  8
0
100
AcDbPolyline
 90
10
 70
1
 10
100.203
 20
-75.6
 10
100.124
 20
-76.344
 10
100.066
 20
-77.201
 10
100.04
 20
-78.238
 10
100.051
 20
-78.963
 10
100.009
 20
-78.988
 10
98.493
 20
-78.113
 10
98.493
 20
-76.363
 10
100.009
 20
-75.488
 10
100.203
 20
-75.6
  0
INSERT
  5
137
330
17
100
AcDbEntity
  8
0
100
AcDbBlockReference
  2
HEX
 10
114.133
 20
-77.238
 30
0.0
  0
INSERT
  5
139
330
17
100
AcDbEntity
  8
0
100
AcDbBlockReference
  2
HEX
 10
117.664
 20
-77.238
 30
0.0
  0
INSERT
  5
13B
330
17
100
AcDbEntity
  8
0
100
AcDbBlockReference
  2
HEX
 10
121.195
 20
-77.238
 30
0.0
  0
INSERT
  5
13D
330
17
100
AcDbEntity
  8
0
100
AcDbBlockReference
  2
HEX
 10
124.727
 20
-77.238
 30
0.0
  0
INSERT
  5
13F
330
17
100
AcDbEntity
  8
0
100
AcDbBlockReference
  2
HEX
 10
128.258
 20
-77.238
 30
0.0
  0
INSERT
  5
141
330
17
100
AcDbEntity
  8
0
100
AcDbBlockReference
  2
HEX
 10
131.789
 20
-77.238
 30
0.0
  0
LWPOLYLINE
  5
143
330
17
100
AcDbEntity
  8
0
100
AcDbPolyline
 90
8
 70
1
 10
133.912
 20
-76.3
 10
134.023
 20
-76.799
 10
134.078
 20
-77.242
 10
134.099
 20
-77.691
 10
134.076
 20
-78.27
 10
133.804
 20
-78.113
 10
133.804
 20
-76.363
 10
133.912
 20
-76.3
  0
LWPOLYLINE
  5
144
330
17
100
AcDbEntity
  8
0
100
AcDbPolyline
 90
13
 70
1
 10
135.584
 20
-78.835
 10
135.642
 20
-78.371
 10
135.665
 20
-77.989
 10
135.665
 20
-77.605
 10
135.642
 20
-77.22
 10
135.578
 20
-76.737
 10
135.49
 20
-76.321
 10
135.384
 20
-75.949
 10
135.232
 20
-75.538
 10
135.32
 20
-75.488
 10
136.835
 20
-76.363
 10
136.835
 20
-78.113
 10
135.584
 20
-78.835
  0
LWPOLYLINE
  5
145
330
17
100
AcDbEntity
  8
0
100
AcDbPolyline
 90
13
 70
1
 10
140.351
 20
-76.353
 10
140.186
 20
-76.633
 10
140.038
 20
-76.834
 10
139.694
 20
-77.203
 10
139.503
 20
-77.371
 10
139.231
 20
-77.577
 10
138.725
 20
-77.895
 10
138.272
 20
-78.126
 10
137.757
 20
-78.356
 10
137.335
 20
-78.113
 10
137.335
 20
-76.363
 10
138.851
 20
-75.488
 10
140.351
 20
-76.353
  0
LWPOLYLINE
  5
146
330
17
100
AcDbEntity
  8
0
100
AcDbPolyline
 90
13
 70
1
 10
28.843
 20
-74.658
 10
28.524
 20
-74.616
 10
28.347
 20
-74.554
 10
28.183
 20
-74.468
 10
28.034
 20
-74.359
 10
27.903
 20
-74.23
 10
27.73
 20
-73.977
 10
27.638
 20
-73.747
 10
27.594
 20
-73.496
 10
27.622
 20
-72.43
 10
29.137
 20
-73.305
 10
29.137
 20
-74.659
 10
28.843
 20
-74.658
  0
LWPOLYLINE
  5
147
330
17
100
AcDbEntity
  8
0
100
AcDbPolyline
 90
6
 70
1
 10
32.668
 20
-74.673
 10
29.637
 20
-74.661
 10
29.637
 20
-73.305
 10
31.153
 20
-72.43
 10
32.668
 20
-73.305
 10
32.668
 20
-74.673
  0
LWPOLYLINE
  5
148
330
17
100
AcDbEntity
  8
0
100
AcDbPolyline
 90
6
 70
1
 10
36.199
 20
-74.687
 10
33.168
 20
-74.675
 10
33.168
 20
-73.305
 10
34.684
 20
-72.43
 10
36.199
 20
-73.305
 10
36.199
 20
-74.687
  0
LWPOLYLINE
  5
149
330
17
100
AcDbEntity
  8
0
100
AcDbPolyline
 90
6
 70
1
 10
39.73
 20
-74.7
 10
36.699
 20
-74.689
 10
36.699
 20
-73.305
 10
38.215
 20
-72.43
 10
39.73
 20
-73.305
 10
39.73
 20
-74.7
  0
LWPOLYLINE
  5
14A
330
17
100
AcDbEntity
  8
0
100
AcDbPolyline
 90
6
 70
1
 10
43.261
 20
-74.714
 10
40.23
 20
-74.702
 10
40.23
 20
-73.305
 10
41.746
 20
-72.43
 10
43.261
 20
-73.305
 10
43.261
 20
-74.714
  0
LWPOLYLINE
  5
14B
330
17
100
AcDbEntity
  8
0
100
AcDbPolyline
 90
6
 70
1
 10
46.793
 20
-74.728
 10
43.761
 20
-74.716
 10
43.761
 20
-73.305
 10
45.277
 20
-72.43
 10
46.793
 20
-73.305
 10
46.793
 20
-74.728
  0
LWPOLYLINE
  5
14C
330
17
100
AcDbEntity
  8
0
100
AcDbPolyline
 90
6
 70
1
 10
50.324
 20
-74.742
 10
47.293
 20
-74.73
 10
47.293
 20
-73.305
 10
48.808
 20
-72.43
 10
50.324
 20
-73.305
 10
50.324
 20
-74.742
  0
LWPOLYLINE
  5
14D
330
17
100
AcDbEntity
  8
0
100
AcDbPolyline
 90
6
 70
1
 10
53.855
 20
-74.755
 10
50.824
 20
-74.744
 10
50.824
 20
-73.305
 10
52.339
 20
-72.43
 10
53.855
 20
-73.305
 10
53.855
 20
-74.755
  0
LWPOLYLINE
  5
14E
330
17
100
AcDbEntity
  8
0
100
AcDbPolyline
 90
6
 70
1
 10
57.386
 20
-74.774
 10
54.355
 20
-74.757
 10
54.355
 20
-73.305
 10
55.87
 20
-72.43
 10
57.386
 20
-73.305
 10
57.386
 20
-74.774
  0
LWPOLYLINE
  5
14F
330
17
100
AcDbEntity
  8
0
100
AcDbPolyline
 90
10
 70
1
 10
59.866
 20
-75.661
 10
59.35
 20
-75.313
 10
58.88
 20
-75.084
 10
58.381
 20
-74.915
 10
57.886
 20
-74.814
 10
57.886
 20
-73.305
 10
59.401
 20
-72.43
 10
60.917
 20
-73.305
 10
60.917
 20
-75.055
 10
59.866
 20
-75.661
  0
INSERT
  5
150
330
17
100
AcDbEntity
  8
0
100
AcDbBlockReference
  2
HEX
 10
62.932
 20
-74.18
 30
0.0
  0
LWPOLYLINE
  5
152
330
17
100
AcDbEntity
  8
0
100
AcDbPolyline
 90
9
 70
1
 10
67.456
 20
-73.006
 10
67.683
 20
-73.27
 10
67.979
 20
-73.498
 10
67.979
 20
-75.055
 10
66.464
 20
-75.93
 10
64.948
 20
-75.055
 10
64.948
 20
-73.305
 10
66.464
 20
-72.43
 10
67.456
 20
-73.006
  0
LWPOLYLINE
  5
153
330
17
100
AcDbEntity
  8
0
100
AcDbPolyline
 90
7
 70
1
 10
68.479
 20
-73.707
 10
68.889
 20
-73.759
 10
71.51
 20
-73.783
 10
71.51
 20
-75.055
 10
69.995
 20
-75.93
 10
68.479
 20
-75.055
 10
68.479
 20
-73.707
  0
LWPOLYLINE
  5
154
330
17
100
AcDbEntity
  8
0
100
AcDbPolyline
 90
6
 70
1
 10
72.01
 20
-73.788
 10
75.041
 20
-73.815
 10
75.041
 20
-75.055
 10
73.526
 20
-75.93
 10
72.01
 20
-75.055
 10
72.01
 20
-73.788
  0
LWPOLYLINE
  5
155
330
17
100
AcDbEntity
  8
0
100
AcDbPolyline
 90
6
 70
1
 10
75.541
 20
-73.82
 10
78.572
 20
-73.847
 10
78.572
 20
-75.055
 10
77.057
 20
-75.93
 10
75.541
 20
-75.055
 10
75.541
 20
-73.82
  0
LWPOLYLINE
  5
156
330
17
100
AcDbEntity
  8
0
100
AcDbPolyline
 90
11
 70
1
 10
79.072
 20
-73.852
 10
82.103
 20
-73.88
 10
82.103
 20
-74.201
 10
81.957
 20
-74.488
 10
81.851
 20
-74.745
 10
81.762
 20
-75.018
 10
81.762
 20
-75.006
 10
81.692
 20
-75.292
 10
80.588
 20
-75.93
 10
79.072
 20
-75.055
 10
79.072
 20
-73.852
  0
LWPOLYLINE
  5
157
330
17
100
AcDbEntity
  8
0
100
AcDbPolyline
 90
6
 70
1
 10
88.68
 20
-75.335
 10
88.46
 20
-74.43
 10
88.024
 20
-72.645
 10
89.166
 20
-73.305
 10
89.166
 20
-75.055
 10
88.68
 20
-75.335
  0
INSERT
  5
158
330
17
100
AcDbEntity
  8
0
100
AcDbBlockReference
  2
HEX
 10
91.181
 20
-74.18
 30
0.0
  0
INSERT
  5
15A
330
17
100
AcDbEntity
  8
0
100
AcDbBlockReference
  2
HEX
 10
94.712
 20
-74.18
 30
0.0
  0
LWPOLYLINE
  5
15C
330
17
100
AcDbEntity
  8
0
100
AcDbPolyline
 90
13
 70
1
 10
98.872
 20
-72.792
 10
98.828
 20
-73.859
 10
98.848
 20
-74.056
 10
98.894
 20
-74.255
 10
99.025
 20
-74.576
 10
99.171
 20
-74.81
 10
99.35
 20
-75.009
 10
99.567
 20
-75.166
 10
98.243
 20
-75.93
 10
96.728
 20
-75.055
 10
96.728
 20
-73.305
 10
98.243
 20
-72.43
 10
98.872
 20
-72.792
  0
LWPOLYLINE
  5
15D
330
17
100
AcDbEntity
  8
0
100
AcDbPolyline
 90
7
 70
1
 10
112.762
 20
-75.702
 10
113.06
 20
-75.09
 10
113.294
 20
-74.704
 10
113.555
 20
-74.341
 10
113.883
 20
-73.963
 10
113.883
 20
-75.055
 10
112.762
 20
-75.702
  0
LWPOLYLINE
  5
15E
330
17
100
AcDbEntity
  8
0
100
AcDbPolyline
 90
11
 70
1
 10
114.388
 20
-73.505
 10
114.627
 20
-73.333
 10
114.877
 20
-73.178
 10
115.275
 20
-72.979
 10
115.782
 20
-72.799
 10
116.324
 20
-72.675
 10
117.414
 20
-73.305
 10
117.414
 20
-75.055
 10
115.899
 20
-75.93
 10
114.383
 20
-75.055
 10
114.388
 20
-73.505
  0
LWPOLYLINE
  5
15F
330
17
100
AcDbEntity
  8
0
100
AcDbPolyline
 90
8
 70
1
 10
119.131
 20
-72.602
 10
119.764
 20
-72.622
 10
120.945
 20
-73.305
 10
120.945
 20
-75.055
 10
119.43
 20
-75.93
 10
117.914
 20
-75.055
 10
117.914
 20
-73.305
 10
119.131
 20
-72.602
  0
LWPOLYLINE
  5
160
330
17
100
AcDbEntity
  8
0
100
AcDbPolyline
 90
8
 70
1
 10
122.477
 20
-72.709
 10
123.502
 20
-72.742
 10
124.477
 20
-73.305
 10
124.477
 20
-75.055
 10
122.961
 20
-75.93
 10
121.445
 20
-75.055
 10
121.445
 20
-73.305
 10
122.477
 20
-72.709
  0
LWPOLYLINE
  5
161
330
17
100
AcDbEntity
  8
0
100
AcDbPolyline
 90
8
 70
1
 10
125.823
 20
-72.816
 10
127.24
 20
-72.861
 10
128.008
 20
-73.305
 10
128.008
 20
-75.055
 10
126.492
 20
-75.93
 10
124.977
 20
-75.055
 10
124.977
 20
-73.305
 10
125.823
 20
-72.816
  0
LWPOLYLINE
  5
162
330
17
100
AcDbEntity
  8
0
100
AcDbPolyline
 90
10
 70
1
 10
129.085
 20
-72.971
 10
130.0
 20
-73.103
 10
130.553
 20
-73.227
 10
131.088
 20
-73.389
 10
131.539
 20
-73.569
 10
131.539
 20
-75.055
 10
130.023
 20
-75.93
 10
128.508
 20
-75.055
 10
128.508
 20
-73.305
 10
129.085
 20
-72.971
  0
LWPOLYLINE
  5
163
330
17
100
AcDbEntity
  8
0
100
AcDbPolyline
 90
11
 70
1
 10
132.039
 20
-73.828
 10
132.532
 20
-74.168
 10
132.809
 20
-74.412
 10
133.044
 20
-74.658
 10
133.235
 20
-74.894
 10
133.406
 20
-75.142
 10
133.623
 20
-75.531
 10
133.75
 20
-75.817
 10
133.554
 20
-75.93
 10
132.039
 20
-75.055
 10
132.039
 20
-73.828
  0
LWPOLYLINE
  5
164
330
17
100
AcDbEntity
  8
0
100
AcDbPolyline
 90
13
 70
1
 10
135.019
 20
-75.084
 10
134.793
 20
-74.691
 10
134.581
 20
-74.379
 10
134.349
 20
-74.08
 10
134.098
 20
-73.796
 10
133.828
 20
-73.526
 10
133.541
 20
-73.272
 10
133.218
 20
-73.018
 10
132.908
 20
-72.803
 10
133.554
 20
-72.43
 10
135.07
 20
-73.305
 10
135.07
 20
-75.055
 10
135.019
 20
-75.084
  0
INSERT
  5
165
330
17
100
AcDbEntity
  8
0
100
AcDbBlockReference
  2
HEX
 10
137.085
 20
-74.18
 30
0.0
  0
LWPOLYLINE
  5
167
330
17
100
AcDbEntity
  8
0
100
AcDbPolyline
 90
12
 70
1
 10
140.569
 20
-74.317
 10
140.631
 20
-74.709
 10
140.648
 20
-75.105
 10
140.618
 20
-75.498
 10
140.537
 20
-75.883
 10
139.101
 20
-75.055
 10
139.101
 20
-73.305
 10
139.953
 20
-72.813
 10
140.167
 20
-73.205
 10
140.331
 20
-73.564
 10
140.466
 20
-73.935
 10
140.569
 20
-74.317
  0
INSERT
  5
168
330
17
100
AcDbEntity
  8
0
100
AcDbBlockReference
  2
HEX
 10
29.387
 20
-71.121
 30
0.0
  0
INSERT
  5
16A
330
17
100
AcDbEntity
  8
0
100
AcDbBlockReference
  2
HEX
 10
32.918
 20
-71.121
 30
0.0
  0
INSERT
  5
16C
330
17
100
AcDbEntity
  8
0
100
AcDbBlockReference
  2
HEX
 10
36.449
 20
-71.121
 30
0.0
  0
INSERT
  5
16E
330
17
100
AcDbEntity
  8
0
100
AcDbBlockReference
  2
HEX
 10
39.98
 20
-71.121
 30
0.0
  0
INSERT
  5
170
330
17
100
AcDbEntity
  8
0
100
AcDbBlockReference
  2
HEX
 10
43.511
 20
-71.121
 30
0.0
  0
INSERT
  5
172
330
17
100
AcDbEntity
  8
0
100
AcDbBlockReference
  2
HEX
 10
47.043
 20
-71.121
 30
0.0
  0
INSERT
  5
174
330
17
100
AcDbEntity
  8
0
100
AcDbBlockReference
  2
HEX
 10
50.574
 20
-71.121
 30
0.0
  0
INSERT
  5
176
330
17
100
AcDbEntity
  8
0
100
AcDbBlockReference
  2
HEX
 10
54.105
 20
-71.121
 30
0.0
  0
INSERT
  5
178
330
17
100
AcDbEntity
  8
0
100
AcDbBlockReference
  2
HEX
 10
57.636
 20
-71.121
 30
0.0
  0
INSERT
  5
17A
330
17
100
AcDbEntity
  8
0
100
AcDbBlockReference
  2
HEX
 10
61.167
 20
-71.121
 30
0.0
  0
INSERT
  5
17C
330
17
100
AcDbEntity
  8
0
100
AcDbBlockReference
  2
HEX
 10
64.698
 20
-71.121
 30
0.0
  0
LWPOLYLINE
  5
17E
330
17
100
AcDbEntity
  8
0
100
AcDbPolyline
 90
5
 70
1
 10
66.714
 20
-70.835
 10
66.949
 20
-71.625
 10
67.131
 20
-72.238
 10
66.714
 20
-71.996
 10
66.714
 20
-70.835
  0
INSERT
  5
17F
330
17
100
AcDbEntity
  8
0
100
AcDbBlockReference
  2
HEX
 10
89.416
 20
-71.121
 30
0.0
  0
LWPOLYLINE
  5
181
330
17
100
AcDbEntity
  8
0
100
AcDbPolyline
 90
8
 70
1
 10
91.439
 20
-70.318
 10
91.594
 20
-70.364
 10
91.758
 20
-70.384
 10
94.462
 20
-70.442
 10
94.462
 20
-71.996
 10
92.947
 20
-72.871
 10
91.431
 20
-71.996
 10
91.439
 20
-70.318
  0
LWPOLYLINE
  5
182
330
17
100
AcDbEntity
  8
0
100
AcDbPolyline
 90
12
 70
1
 10
94.962
 20
-70.452
 10
96.519
 20
-70.492
 10
96.753
 20
-70.462
 10
96.967
 20
-70.383
 10
97.148
 20
-70.262
 10
97.285
 20
-70.104
 10
97.384
 20
-69.895
 10
97.993
 20
-70.246
 10
97.993
 20
-71.996
 10
96.478
 20
-72.871
 10
94.962
 20
-71.996
 10
94.962
 20
-70.452
  0
LWPOLYLINE
  5
183
330
17
100
AcDbEntity
  8
0
100
AcDbPolyline
 90
6
 70
1
 10
98.995
 20
-69.957
 10
98.901
 20
-72.119
 10
98.896
 20
-72.229
 10
98.493
 20
-71.996
 10
98.493
 20
-70.246
 10
98.995
 20
-69.957
  0
LWPOLYLINE
  5
184
330
17
100
AcDbEntity
  8
0
100
AcDbPolyline
 90
5
 70
1
 10
117.166
 20
-72.584
 10
117.709
 20
-72.569
 10
118.18
 20
-72.574
 10
117.664
 20
-72.871
 10
117.166
 20
-72.584
  0
LWPOLYLINE
  5
185
330
17
100
AcDbEntity
  8
0
100
AcDbPolyline
 90
5
 70
1
 10
120.822
 20
-72.656
 10
121.39
 20
-72.674
 10
121.529
 20
-72.679
 10
121.195
 20
-72.871
 10
120.822
 20
-72.656
  0
LWPOLYLINE
  5
186
330
17
100
AcDbEntity
  8
0
100
AcDbPolyline
 90
4
 70
1
 10
124.56
 20
-72.776
 10
124.875
 20
-72.786
 10
124.727
 20
-72.871
 10
124.56
 20
-72.776
  0
LWPOLYLINE
  5
187
330
17
100
AcDbEntity
  8
0
100
AcDbPolyline
 90
7
 70
1
 10
129.773
 20
-71.831
 10
129.079
 20
-71.705
 10
128.404
 20
-71.618
 10
127.726
 20
-71.559
 10
126.95
 20
-71.52
 10
129.773
 20
-71.503
 10
129.773
 20
-71.831
  0
LWPOLYLINE
  5
188
330
17
100
AcDbEntity
  8
0
100
AcDbPolyline
 90
9
 70
1
 10
132.411
 20
-72.512
 10
131.88
 20
-72.269
 10
131.368
 20
-72.1
 10
130.872
 20
-71.993
 10
130.273
 20
-71.911
 10
130.273
 20
-71.501
 10
133.304
 20
-71.483
 10
133.304
 20
-71.996
 10
132.411
 20
-72.512
  0
LWPOLYLINE
  5
189
330
17
100
AcDbEntity
  8
0
100
AcDbPolyline
 90
6
 70
1
 10
133.804
 20
-71.48
 10
136.835
 20
-71.462
 10
136.835
 20
-71.996
 10
135.32
 20
-72.871
 10
133.804
 20
-71.996
 10
133.804
 20
-71.48
  0
LWPOLYLINE
  5
18A
330
17
100
AcDbEntity
  8
0
100
AcDbPolyline
 90
11
 70
1
 10
137.335
 20
-71.459
 10
138.437
 20
-71.467
 10
138.686
 20
-71.507
 10
138.896
 20
-71.58
 10
139.102
 20
-71.705
 10
139.281
 20
-71.865
 10
139.459
 20
-72.074
 10
139.685
 20
-72.39
 10
138.851
 20
-72.871
 10
137.335
 20
-71.996
 10
137.335
 20
-71.459
  0
LWPOLYLINE
  5
18B
330
17
100
AcDbEntity
  8
0
100
AcDbPolyline
 90
6
 70
1
 10
27.69
 20
-69.774
 10
27.77
 20
-66.879
 10
28.599
 20
-66.878
 10
29.137
 20
-67.188
 10
29.137
 20
-68.938
 10
27.69
 20
-69.774
  0
LWPOLYLINE
  5
18C
330
17
100
AcDbEntity
  8
0
100
AcDbPolyline
 90
8
 70
1
 10
30.183
 20
-66.876
 10
32.123
 20
-66.873
 10
32.668
 20
-67.188
 10
32.668
 20
-68.938
 10
31.153
 20
-69.813
 10
29.637
 20
-68.938
 10
29.637
 20
-67.188
 10
30.183
 20
-66.876
  0
LWPOLYLINE
  5
18D
330
17
100
AcDbEntity
  8
0
100
AcDbPolyline
 90
8
 70
1
 10
33.717
 20
-66.871
 10
35.646
 20
-66.869
 10
36.199
 20
-67.188
 10
36.199
 20
-68.938
 10
34.684
 20
-69.813
 10
33.168
 20
-68.938
 10
33.168
 20
-67.188
 10
33.717
 20
-66.871
  0
LWPOLYLINE
  5
18E
330
17
100
AcDbEntity
  8
0
100
AcDbPolyline
 90
8
 70
1
 10
37.256
 20
-66.867
 10
39.169
 20
-66.865
 10
39.73
 20
-67.188
 10
39.73
 20
-68.938
 10
38.215
 20
-69.813
 10
36.699
 20
-68.938
 10
36.699
 20
-67.188
 10
37.256
 20
-66.867
  0
LWPOLYLINE
  5
18F
330
17
100
AcDbEntity
  8
0
100
AcDbPolyline
 90
8
 70
1
 10
40.795
 20
-66.863
 10
42.693
 20
-66.86
 10
43.261
 20
-67.188
 10
43.261
 20
-68.938
 10
41.746
 20
-69.813
 10
40.23
 20
-68.938
 10
40.23
 20
-67.188
 10
40.795
 20
-66.863
  0
LWPOLYLINE
  5
190
330
17
100
AcDbEntity
  8
0
100
AcDbPolyline
 90
8
 70
1
 10
44.334
 20
-66.858
 10
46.216
 20
-66.856
 10
46.793
 20
-67.188
 10
46.793
 20
-68.938
 10
45.277
 20
-69.813
 10
43.761
 20
-68.938
 10
43.761
 20
-67.188
 10
44.334
 20
-66.858
  0
LWPOLYLINE
  5
191
330
17
100
AcDbEntity
  8
0
100
AcDbPolyline
 90
8
 70
1
 10
47.873
 20
-66.854
 10
49.74
 20
-66.851
 10
50.324
 20
-67.188
 10
50.324
 20
-68.938
 10
48.808
 20
-69.813
 10
47.293
 20
-68.938
 10
47.293
 20
-67.188
 10
47.873
 20
-66.854
  0
LWPOLYLINE
  5
192
330
17
100
AcDbEntity
  8
0
100
AcDbPolyline
 90
8
 70
1
 10
51.411
 20
-66.849
 10
53.263
 20
-66.847
 10
53.855
 20
-67.188
 10
53.855
 20
-68.938
 10
52.339
 20
-69.813
 10
50.824
 20
-68.938
 10
50.824
 20
-67.188
 10
51.411
 20
-66.849
  0
LWPOLYLINE
  5
193
330
17
100
AcDbEntity
  8
0
100
AcDbPolyline
 90
8
 70
1
 10
54.95
 20
-66.845
 10
56.786
 20
-66.842
 10
57.386
 20
-67.188
 10
57.386
 20
-68.938
 10
55.87
 20
-69.813
 10
54.355
 20
-68.938
 10
54.355
 20
-67.188
 10
54.95
 20
-66.845
  0
LWPOLYLINE
  5
194
330
17
100
AcDbEntity
  8
0
100
AcDbPolyline
 90
8
 70
1
 10
58.489
 20
-66.84
 10
60.31
 20
-66.838
 10
60.917
 20
-67.188
 10
60.917
 20
-68.938
 10
59.401
 20
-69.813
 10
57.886
 20
-68.938
 10
57.886
 20
-67.188
 10
58.489
 20
-66.84
  0
LWPOLYLINE
  5
195
330
17
100
AcDbEntity
  8
0
100
AcDbPolyline
 90
8
 70
1
 10
62.028
 20
-66.836
 10
63.833
 20
-66.833
 10
64.448
 20
-67.188
 10
64.448
 20
-68.938
 10
62.932
 20
-69.813
 10
61.417
 20
-68.938
 10
61.417
 20
-67.188
 10
62.028
 20
-66.836
  0
LWPOLYLINE
  5
196
330
17
100
AcDbEntity
  8
0
100
AcDbPolyline
 90
8
 70
1
 10
66.386
 20
-66.83
 10
66.388
 20
-69.085
 10
66.408
 20
-69.432
 10
66.456
 20
-69.809
 10
64.948
 20
-68.938
 10
64.948
 20
-67.188
 10
65.567
 20
-66.831
 10
66.386
 20
-66.83
  0
LWPOLYLINE
  5
197
330
17
100
AcDbEntity
  8
0
100
AcDbPolyline
 90
8
 70
1
 10
87.281
 20
-69.599
 10
86.624
 20
-66.906
 10
87.108
 20
-66.626
 10
88.192
 20
-66.626
 10
89.166
 20
-67.188
 10
89.166
 20
-68.938
 10
87.65
 20
-69.813
 10
87.281
 20
-69.599
  0
LWPOLYLINE
  5
198
330
17
100
AcDbEntity
  8
0
100
AcDbPolyline
 90
6
 70
1
 10
90.021
 20
-66.984
 10
90.566
 20
-68.782
 10
90.816
 20
-69.602
 10
89.666
 20
-68.938
 10
89.666
 20
-67.188
 10
90.021
 20
-66.984
  0
LWPOLYLINE
  5
199
330
17
100
AcDbEntity
  8
0
100
AcDbPolyline
 90
8
 70
1
 10
97.738
 20
-69.511
 10
98.036
 20
-69.33
 10
98.358
 20
-69.189
 10
98.73
 20
-69.079
 10
99.034
 20
-69.041
 10
99.02
 20
-69.365
 10
98.243
 20
-69.813
 10
97.738
 20
-69.511
  0
LWPOLYLINE
  5
19A
330
17
100
AcDbEntity
  8
0
100
AcDbPolyline
 90
5
 70
1
 10
89.192
 20
-66.626
 10
89.388
 20
-66.626
 10
89.639
 20
-66.626
 10
89.416
 20
-66.755
 10
89.192
 20
-66.626
  0
ENDSEC
  0
SECTION
  2
OBJECTS
  0
DICTIONARY
  5
A
330
0
100
AcDbDictionary
281
1
  3
ACAD_COLOR
350
B
  3
ACAD_GROUP
350
C
  3
ACAD_LAYOUT
350
D
  3
ACAD_MATERIAL
350
E
  3
ACAD_MLEADERSTYLE
350
F
  3
ACAD_MLINESTYLE
350
10
  3
ACAD_PLOTSETTINGS
350
11
  3
ACAD_PLOTSTYLENAME
350
12
  3
ACAD_SCALELIST
350
14
  3
ACAD_TABLESTYLE
350
15
  3
ACAD_VISUALSTYLE
350
16
  3
EZDXF_META
350
2D
  0
DICTIONARY
  5
B
330
A
100
AcDbDictionary
281
1
  0
DICTIONARY
  5
C
330
A
100
AcDbDictionary
281
1
  0
DICTIONARY
  5
D
330
A
100
AcDbDictionary
281
1
  3
Model
350
1A
  3
Layout1
350
1E
  0
DICTIONARY
  5
E
330
A
100
AcDbDictionary
281
1
  3
ByBlock
350
1F
  3
ByLayer
350
20
  3
Global
350
21
  0
DICTIONARY
  5
F
330
A
100
AcDbDictionary
281
1
  3
Standard
350
2C
  0
DICTIONARY
  5
10
330
A
100
AcDbDictionary
281
1
  3
Standard
350
22
  0
DICTIONARY
  5
11
330
A
100
AcDbDictionary
281
1
  0
ACDBDICTIONARYWDFLT
  5
12
330
A
100
AcDbDictionary
281
1
  3
Normal
350
13
100
AcDbDictionaryWithDefault
340
13
  0
ACDBPLACEHOLDER
  5
13
330
12
  0
DICTIONARY
  5
14
330
A
100
AcDbDictionary
281
1
  0
DICTIONARY
  5
15
330
A
100
AcDbDictionary
281
1
  0
DICTIONARY
  5
16
330
A
100
AcDbDictionary
281
1
  0
LAYOUT
  5
1A
330
D
100
AcDbPlotSettings
  1

  4
A3
  6

 40
7.5
 41
20.0
 42
7.5
 43
20.0
 44
420.0
 45
297.0
 46
0.0
 47
0.0
 48
0.0
 49
0.0
140
0.0
141
0.0
142
1.0
143
1.0
 70
1024
 72
1
 73
0
 74
5
  7

 75
16
 76
0
 77
2
 78
300
147
1.0
148
0.0
149
0.0
100
AcDbLayout
  1
Model
 70
1
 71
0
 10
0.0
 20
0.0
 11
420.0
 21
297.0
 12
0.0
 22
0.0
 32
0.0
 14
1e+20
 24
1e+20
 34
1e+20
 15
-1e+20
 25
-1e+20
 35
-1e+20
146
0.0
 13
0.0
 23
0.0
 33
0.0
 16
1.0
 26
0.0
 36
0.0
 17
0.0
 27
1.0
 37
0.0
 76
1
330
17
  0
LAYOUT
  5
1E
330
D
100
AcDbPlotSettings
  1

  4
A3
  6

 40
7.5
 41
20.0
 42
7.5
 43
20.0
 44
420.0
 45
297.0
 46
0.0
 47
0.0
 48
0.0
 49
0.0
140
0.0
141
0.0
142
1.0
143
1.0
 70
0
 72
1
 73
0
 74
5
  7

 75
16
 76
0
 77
2
 78
300
147
1.0
148
0.0
149
0.0
100
AcDbLayout
  1
Layout1
 70
1
 71
1
 10
0.0
 20
0.0
 11
420.0
 21
297.0
 12
0.0
 22
0.0
 32
0.0
 14
1e+20
 24
1e+20
 34
1e+20
 15
-1e+20
 25
-1e+20
 35
-1e+20
146
0.0
 13
0.0
 23
0.0
 33
0.0
 16
1.0
 26
0.0
 36
0.0
 17
0.0
 27
1.0
 37
0.0
 76
1
330
1B
  0
MATERIAL
  5
1F
102
{ACAD_REACTORS
330
E
102
}
330
E
100
AcDbMaterial
  1
ByBlock
  2

 70
0
 40
1.0
 71
1
 41
1.0
 91
-1023410177
 42
1.0
 72
1
  3

 73
1
 74
1
 75
1
 44
0.5
 73
0
 45
1.0
 46
1.0
 77
1
  4

 78
1
 79
1
170
1
 48
1.0
171
1
  6

172
1
173
1
174
1
140
1.0
141
1.0
175
1
  7

176
1
177
1
178
1
143
1.0
179
1
  8

270
1
271
1
272
1
145
1.0
146
1.0
273
1
  9

274
1
275
1
276
1
 42
1.0
 72
1
  3

 73
1
 74
1
 75
1
 94
63
  0
MATERIAL
  5
20
102
{ACAD_REACTORS
330
E
102
}
330
E
100
AcDbMaterial
  1
ByLayer
  2

 70
0
 40
1.0
 71
1
 41
1.0
 91
-1023410177
 42
1.0
 72
1
  3

 73
1
 74
1
 75
1
 44
0.5
 73
0
 45
1.0
 46
1.0
 77
1
  4

 78
1
 79
1
170
1
 48
1.0
171
1
  6

172
1
173
1
174
1
140
1.0
141
1.0
175
1
  7

176
1
177
1
178
1
143
1.0
179
1
  8

270
1
271
1
272
1
145
1.0
146
1.0
273
1
  9

274
1
275
1
276
1
 42
1.0
 72
1
  3

 73
1
 74
1
 75
1
 94
63
  0
MATERIAL
  5
21
102
{ACAD_REACTORS
330
E
102
}
330
E
100
AcDbMaterial
  1
Global
  2

 70
0
 40
1.0
 71
1
 41
1.0
 91
-1023410177
 42
1.0
 72
1
  3

 73
1
 74
1
 75
1
 44
0.5
 73
0
 45
1.0
 46
1.0
 77
1
  4

 78
1
 79
1
170
1
 48
1.0
171
1
  6

172
1
173
1
174
1
140
1.0
141
1.0
175
1
  7

176
1
177
1
178
1
143
1.0
179
1
  8

270
1
271
1
272
1
145
1.0
146
1.0
273
1
  9

274
1
275
1
276
1
 42
1.0
 72
1
  3

 73
1
 74
1
 75
1
 94
63
  0
MLINESTYLE
  5
22
102
{ACAD_REACTORS
330
10
102
}
330
10
100
AcDbMlineStyle
  2
Standard
 70
0
  3

 62
256
 51
90.0
 52
90.0
 71
2
 49
0.5
 62
256
  6
BYLAYER
 49
-0.5
 62
256
  6
BYLAYER
  0
MLEADERSTYLE
  5
2C
102
{ACAD_REACTORS
330
F
102
}
330
F
100
AcDbMLeaderStyle
179
2
170
2
171
1
172
0
 90
2
 40
0.0
 41
0.0
173
1
 91
-1056964608
 92
-2
290
1
 42
2.0
291
1
 43
8.0
  3
Standard
 44
4.0
300

342
29
174
1
175
1
176
0
178
1
 93
-1056964608
 45
4.0
292
0
297
0
 46
4.0
 94
-1056964608
 47
1.0
 49
1.0
140
1.0
294
1
141
0.0
177
0
142
1.0
295
0
296
0
143
3.75
271
0
272
9
273
9
  0
DICTIONARY
  5
2D
330
A
100
AcDbDictionary
280
1
281
1
  3
CREATED_BY_EZDXF
350
2E
  3
WRITTEN_BY_EZDXF
350
19D
  0
DICTIONARYVAR
  5
2E
330
2D
100
DictionaryVariables
280
0
  1
1.4.3 @ 2026-04-09T21:37:20.467975+00:00
  0
DICTIONARYVAR
  5
19D
330
2D
100
DictionaryVariables
280
0
  1
1.4.3 @ 2026-04-09T21:37:20.490558+00:00
  0
ENDSEC
  0
EOF
