  0
SECTION
  2
HEADER
  9
$ACADVER
  1
AC1024
  9
$ACADMAINTVER
 70
6
  9
$DWGCODEPAGE
  3
ANSI_1252
  9
$LASTSAVEDBY
  1
ezdxf
  9
$INSBASE
 10
0.0
 20
0.0
 30
0.0
  9
$EXTMIN
 10
1e+20
 20
1e+20
 30
1e+20
  9
$EXTMAX
 10
-1e+20
 20
-1e+20
 30
-1e+20
  9
$LIMMIN
 10
0.0
 20
0.0
  9
$LIMMAX
 10
420.0
 20
297.0
  9
$ORTHOMODE
 70
0
  9
$REGENMODE
 70
1
  9
$FILLMODE
 70
1
  9
$QTEXTMODE
 70
0
  9
$MIRRTEXT
 70
1
  9
$LTSCALE
 40
1.0
  9
$ATTMODE
 70
1
  9
$TEXTSIZE
 40
2.5
  9
$TRACEWID
 40
1.0
  9
$TEXTSTYLE
  7
Standard
  9
$CLAYER
  8
0
  9
$CELTYPE
  6
ByLayer
  9
$CECOLOR
 62
256
  9
$CELTSCALE
 40
1.0
  9
$DISPSILH
 70
0
  9
$DIMSCALE
 40
1.0
  9
$DIMASZ
 40
2.5
  9
$DIMEXO
 40
0.625
  9
$DIMDLI
 40
3.75
  9
$DIMRND
 40
0.0
  9
$DIMDLE
 40
0.0
  9
$DIMEXE
 40
1.25
  9
$DIMTP
 40
0.0
  9
$DIMTM
 40
0.0
  9
$DIMTXT
 40
2.5
  9
$DIMCEN
 40
2.5
  9
$DIMTSZ
 40
0.0
  9
$DIMTOL
 70
0
  9
$DIMLIM
 70
0
  9
$DIMTIH
 70
0
  9
$DIMTOH
 70
0
  9
$DIMSE1
 70
0
  9
$DIMSE2
 70
0
  9
$DIMTAD
 70
1
  9
$DIMZIN
 70
8
  9
$DIMBLK
  1

  9
$DIMASO
 70
1
  9
$DIMSHO
 70
1
  9
$DIMPOST
  1

  9
$DIMAPOST
  1

  9
$DIMALT
 70
0
  9
$DIMALTD
 70
3
  9
$DIMALTF
 40
0.03937007874
  9
$DIMLFAC
 40
1.0
  9
$DIMTOFL
 70
1
  9
$DIMTVP
 40
0.0
  9
$DIMTIX
 70
0
  9
$DIMSOXD
 70
0
  9
$DIMSAH
 70
0
  9
$DIMBLK1
  1

  9
$DIMBLK2
  1

  9
$DIMSTYLE
  2
ISO-25
  9
$DIMCLRD
 70
0
  9
$DIMCLRE
 70
0
  9
$DIMCLRT
 70
0
  9
$DIMTFAC
 40
1.0
  9
$DIMGAP
 40
0.625
  9
$DIMJUST
 70
0
  9
$DIMSD1
 70
0
  9
$DIMSD2
 70
0
  9
$DIMTOLJ
 70
0
  9
$DIMTZIN
 70
8
  9
$DIMALTZ
 70
0
  9
$DIMALTTZ
 70
0
  9
$DIMUPT
 70
0
  9
$DIMDEC
 70
2
  9
$DIMTDEC
 70
2
  9
$DIMALTU
 70
2
  9
$DIMALTTD
 70
3
  9
$DIMTXSTY
  7
Standard
  9
$DIMAUNIT
 70
0
  9
$DIMADEC
 70
0
  9
$DIMALTRND
 40
0.0
  9
$DIMAZIN
 70
0
  9
$DIMDSEP
 70
44
  9
$DIMATFIT
 70
3
  9
$DIMFRAC
 70
0
  9
$DIMLDRBLK
  1

  9
$DIMLUNIT
 70
2
  9
$DIMLWD
 70
-2
  9
$DIMLWE
 70
-2
  9
$DIMTMOVE
 70
0
  9
$DIMFXL
 40
1.0
  9
$DIMFXLON
 70
0
  9
$DIMJOGANG
 40
0.785398163397
  9
$DIMTFILL
 70
0
  9
$DIMTFILLCLR
 70
0
  9
$DIMARCSYM
 70
0
  9
$DIMLTYPE
  6

  9
$DIMLTEX1
  6

  9
$DIMLTEX2
  6

  9
$DIMTXTDIRECTION
 70
0
  9
$LUNITS
 70
2
  9
$LUPREC
 70
4
  9
$SKETCHINC
 40
1.0
  9
$FILLETRAD
 40
10.0
  9
$AUNITS
 70
0
  9
$AUPREC
 70
2
  9
$MENU
  1
.
  9
$ELEVATION
 40
0.0
  9
$PELEVATION
 40
0.0
  9
$THICKNESS
 40
0.0
  9
$LIMCHECK
 70
0
  9
$CHAMFERA
 40
0.0
  9
$CHAMFERB
 40
0.0
  9
$CHAMFERC
 40
0.0
  9
$CHAMFERD
 40
0.0
  9
$SKPOLY
 70
0
  9
$TDCREATE
 40
2461140.590138889
  9
$TDUCREATE
 40
2458532.153996898
  9
$TDUPDATE
 40
2461140.590138889
  9
$TDUUPDATE
 40
2458532.1544311
  9
$TDINDWG
 40
0.0
  9
$TDUSRTIMER
 40
0.0
  9
$USRTIMER
 70
1
  9
$ANGBASE
 50
0.0
  9
$ANGDIR
 70
0
  9
$PDMODE
 70
0
  9
$PDSIZE
 40
0.0
  9
$PLINEWID
 40
0.0
  9
$SPLFRAME
 70
0
  9
$SPLINETYPE
 70
6
  9
$SPLINESEGS
 70
8
  9
$HANDSEED
  5
3E
  9
$SURFTAB1
 70
6
  9
$SURFTAB2
 70
6
  9
$SURFTYPE
 70
6
  9
$SURFU
 70
6
  9
$SURFV
 70
6
  9
$UCSBASE
  2

  9
$UCSNAME
  2

  9
$UCSORG
 10
0.0
 20
0.0
 30
0.0
  9
$UCSXDIR
 10
1.0
 20
0.0
 30
0.0
  9
$UCSYDIR
 10
0.0
 20
1.0
 30
0.0
  9
$UCSORTHOREF
  2

  9
$UCSORTHOVIEW
 70
0
  9
$UCSORGTOP
 10
0.0
 20
0.0
 30
0.0
  9
$UCSORGBOTTOM
 10
0.0
 20
0.0
 30
0.0
  9
$UCSORGLEFT
 10
0.0
 20
0.0
 30
0.0
  9
$UCSORGRIGHT
 10
0.0
 20
0.0
 30
0.0
  9
$UCSORGFRONT
 10
0.0
 20
0.0
 30
0.0
  9
$UCSORGBACK
 10
0.0
 20
0.0
 30
0.0
  9
$PUCSBASE
  2

  9
$PUCSNAME
  2

  9
$PUCSORG
 10
0.0
 20
0.0
 30
0.0
  9
$PUCSXDIR
 10
1.0
 20
0.0
 30
0.0
  9
$PUCSYDIR
 10
0.0
 20
1.0
 30
0.0
  9
$PUCSORTHOREF
  2

  9
$PUCSORTHOVIEW
 70
0
  9
$PUCSORGTOP
 10
0.0
 20
0.0
 30
0.0
  9
$PUCSORGBOTTOM
 10
0.0
 20
0.0
 30
0.0
  9
$PUCSORGLEFT
 10
0.0
 20
0.0
 30
0.0
  9
$PUCSORGRIGHT
 10
0.0
 20
0.0
 30
0.0
  9
$PUCSORGFRONT
 10
0.0
 20
0.0
 30
0.0
  9
$PUCSORGBACK
 10
0.0
 20
0.0
 30
0.0
  9
$USERI1
 70
0
  9
$USERI2
 70
0
  9
$USERI3
 70
0
  9
$USERI4
 70
0
  9
$USERI5
 70
0
  9
$USERR1
 40
0.0
  9
$USERR2
 40
0.0
  9
$USERR3
 40
0.0
  9
$USERR4
 40
0.0
  9
$USERR5
 40
0.0
  9
$WORLDVIEW
 70
1
  9
$SHADEDGE
 70
3
  9
$SHADEDIF
 70
70
  9
$TILEMODE
 70
1
  9
$MAXACTVP
 70
64
  9
$PINSBASE
 10
0.0
 20
0.0
 30
0.0
  9
$PLIMCHECK
 70
0
  9
$PEXTMIN
 10
1e+20
 20
1e+20
 30
1e+20
  9
$PEXTMAX
 10
-1e+20
 20
-1e+20
 30
-1e+20
  9
$PLIMMIN
 10
0.0
 20
0.0
  9
$PLIMMAX
 10
420.0
 20
297.0
  9
$UNITMODE
 70
0
  9
$VISRETAIN
 70
1
  9
$PLINEGEN
 70
0
  9
$PSLTSCALE
 70
1
  9
$TREEDEPTH
 70
3020
  9
$CMLSTYLE
  2
Standard
  9
$CMLJUST
 70
0
  9
$CMLSCALE
 40
20.0
  9
$PROXYGRAPHICS
 70
1
  9
$MEASUREMENT
 70
1
  9
$CELWEIGHT
370
-1
  9
$ENDCAPS
280
0
  9
$JOINSTYLE
280
0
  9
$LWDISPLAY
290
0
  9
$INSUNITS
 70
6
  9
$HYPERLINKBASE
  1

  9
$STYLESHEET
  1

  9
$XEDIT
290
1
  9
$CEPSNTYPE
380
0
  9
$PSTYLEMODE
290
1
  9
$FINGERPRINTGUID
  2
{49F67BDA-1641-40FA-A402-E18C8DAB82DD}
  9
$VERSIONGUID
  2
{501762F0-E80C-48EF-9540-2CDF85309327}
  9
$EXTNAMES
290
1
  9
$PSVPSCALE
 40
0.0
  9
$OLESTARTUP
290
0
  9
$SORTENTS
280
127
  9
$INDEXCTL
280
0
  9
$HIDETEXT
280
1
  9
$XCLIPFRAME
280
1
  9
$HALOGAP
280
0
  9
$OBSCOLOR
 70
257
  9
$OBSLTYPE
280
0
  9
$INTERSECTIONDISPLAY
280
0
  9
$INTERSECTIONCOLOR
 70
257
  9
$DIMASSOC
280
2
  9
$PROJECTNAME
  1

  9
$CAMERADISPLAY
290
0
  9
$LENSLENGTH
 40
50.0
  9
$CAMERAHEIGHT
 40
0.0
  9
$STEPSPERSEC
 40
24.0
  9
$STEPSIZE
 40
100.0
  9
$3DDWFPREC
 40
2.0
  9
$PSOLWIDTH
 40
0.005
  9
$PSOLHEIGHT
 40
0.08
  9
$LOFTANG1
 40
1.570796326795
  9
$LOFTANG2
 40
1.570796326795
  9
$LOFTMAG1
 40
0.0
  9
$LOFTMAG2
 40
0.0
  9
$LOFTPARAM
 70
7
  9
$LOFTNORMALS
280
1
  9
$LATITUDE
 40
37.795
  9
$LONGITUDE
 40
-122.394
  9
$NORTHDIRECTION
 40
0.0
  9
$TIMEZONE
 70
-8000
  9
$LIGHTGLYPHDISPLAY
280
1
  9
$TILEMODELIGHTSYNCH
280
1
  9
$CMATERIAL
347
20
  9
$SOLIDHIST
280
0
  9
$SHOWHIST
280
1
  9
$DWFFRAME
280
2
  9
$DGNFRAME
280
2
  9
$REALWORLDSCALE
290
1
  9
$INTERFERECOLOR
 62
256
  9
$CSHADOW
280
0
  9
$SHADOWPLANELOCATION
 40
0.0
  0
ENDSEC
  0
SECTION
  2
CLASSES
  0
CLASS
  1
ACDBDICTIONARYWDFLT
  2
AcDbDictionaryWithDefault
  3
ObjectDBX Classes
 90
0
 91
0
280
0
281
0
  0
CLASS
  1
SUN
  2
AcDbSun
  3
SCENEOE
 90
1153
 91
0
280
0
281
0
  0
CLASS
  1
VISUALSTYLE
  2
AcDbVisualStyle
  3
ObjectDBX Classes
 90
4095
 91
0
280
0
281
0
  0
CLASS
  1
MATERIAL
  2
AcDbMaterial
  3
ObjectDBX Classes
 90
1153
 91
0
280
0
281
0
  0
CLASS
  1
SCALE
  2
AcDbScale
  3
ObjectDBX Classes
 90
1153
 91
0
280
0
281
0
  0
CLASS
  1
TABLESTYLE
  2
AcDbTableStyle
  3
ObjectDBX Classes
 90
4095
 91
0
280
0
281
0
  0
CLASS
  1
MLEADERSTYLE
  2
AcDbMLeaderStyle
  3
ACDB_MLEADERSTYLE_CLASS
 90
4095
 91
0
280
0
281
0
  0
CLASS
  1
DICTIONARYVAR
  2
AcDbDictionaryVar
  3
ObjectDBX Classes
 90
0
 91
0
280
0
281
0
  0
CLASS
  1
CELLSTYLEMAP
  2
AcDbCellStyleMap
  3
ObjectDBX Classes
 90
1152
 91
0
280
0
281
0
  0
CLASS
  1
MENTALRAYRENDERSETTINGS
  2
AcDbMentalRayRenderSettings
  3
SCENEOE
 90
1024
 91
0
280
0
281
0
  0
CLASS
  1
ACDBDETAILVIEWSTYLE
  2
AcDbDetailViewStyle
  3
ObjectDBX Classes
 90
1025
 91
0
280
0
281
0
  0
CLASS
  1
ACDBSECTIONVIEWSTYLE
  2
AcDbSectionViewStyle
  3
ObjectDBX Classes
 90
1025
 91
0
280
0
281
0
  0
CLASS
  1
RASTERVARIABLES
  2
AcDbRasterVariables
  3
ISM
 90
0
 91
0
280
0
281
0
  0
CLASS
  1
LAYOUT
  2
AcDbLayout
  3
ObjectDBX Classes
 90
0
 91
0
280
0
281
0
  0
CLASS
  1
ACDBPLACEHOLDER
  2
AcDbPlaceHolder
  3
ObjectDBX Classes
 90
0
 91
0
280
0
281
0
  0
ENDSEC
  0
SECTION
  2
TABLES
  0
TABLE
  2
VPORT
  5
8
330
0
100
AcDbSymbolTable
 70
1
  0
VPORT
  5
23
330
8
100
AcDbSymbolTableRecord
100
AcDbViewportTableRecord
  2
*Active
 70
0
 10
0.0
 20
0.0
 11
1.0
 21
1.0
 12
0.0
 22
0.0
 13
0.0
 23
0.0
 14
0.5
 24
0.5
 15
0.5
 25
0.5
 16
0.0
 26
0.0
 36
1.0
 17
0.0
 27
0.0
 37
0.0
 40
1000.0
 41
1.34
 42
50.0
 43
0.0
 44
0.0
 50
0.0
 51
0.0
 71
0
 72
1000
 73
1
 74
3
 75
0
 76
0
 77
0
 78
0
281
0
 65
0
146
0.0
  0
ENDTAB
  0
TABLE
  2
LTYPE
  5
2
330
0
100
AcDbSymbolTable
 70
3
  0
LTYPE
  5
24
330
2
100
AcDbSymbolTableRecord
100
AcDbLinetypeTableRecord
  2
ByBlock
 70
0
  3

 72
65
 73
0
 40
0.0
  0
LTYPE
  5
25
330
2
100
AcDbSymbolTableRecord
100
AcDbLinetypeTableRecord
  2
ByLayer
 70
0
  3

 72
65
 73
0
 40
0.0
  0
LTYPE
  5
26
330
2
100
AcDbSymbolTableRecord
100
AcDbLinetypeTableRecord
  2
Continuous
 70
0
  3

 72
65
 73
0
 40
0.0
  0
ENDTAB
  0
TABLE
  2
LAYER
  5
1
330
0
100
AcDbSymbolTable
 70
2
  0
LAYER
  5
27
330
1
100
AcDbSymbolTableRecord
100
AcDbLayerTableRecord
  2
0
 70
0
 62
7
  6
Continuous
370
-3
390
13
347
21
  0
LAYER
  5
28
330
1
100
AcDbSymbolTableRecord
100
AcDbLayerTableRecord
  2
Defpoints
 70
0
 62
7
  6
Continuous
290
0
370
-3
390
13
347
21
  0
ENDTAB
  0
TABLE
  2
STYLE
  5
5
330
0
100
AcDbSymbolTable
 70
1
  0
STYLE
  5
29
330
5
100
AcDbSymbolTableRecord
100
AcDbTextStyleTableRecord
  2
Standard
 70
0
 40
0.0
 41
1.0
 50
0.0
 71
0
 42
2.5
  3
txt
  4

  0
ENDTAB
  0
TABLE
  2
VIEW
  5
7
330
0
100
AcDbSymbolTable
 70
0
  0
ENDTAB
  0
TABLE
  2
UCS
  5
6
330
0
100
AcDbSymbolTable
 70
0
  0
ENDTAB
  0
TABLE
  2
APPID
  5
3
330
0
100
AcDbSymbolTable
 70
3
  0
APPID
  5
2A
330
3
100
AcDbSymbolTableRecord
100
AcDbRegAppTableRecord
  2
ACAD
 70
0
  0
APPID
  5
3B
330
3
100
AcDbSymbolTableRecord
100
AcDbRegAppTableRecord
  2
HATCHBACKGROUNDCOLOR
 70
0
  0
APPID
  5
3C
330
3
100
AcDbSymbolTableRecord
100
AcDbRegAppTableRecord
  2
EZDXF
 70
0
  0
ENDTAB
  0
TABLE
  2
DIMSTYLE
  5
4
330
0
100
AcDbSymbolTable
 70
1
100
AcDbDimStyleTable
  0
DIMSTYLE
105
2B
330
4
100
AcDbSymbolTableRecord
100
AcDbDimStyleTableRecord
  2
Standard
 70
0
 40
1.0
 41
2.5
 42
0.625
 43
3.75
 44
1.25
 45
0.0
 46
0.0
 47
0.0
 48
0.0
 49
2.5
140
2.5
141
2.5
142
0.0
143
0.03937007874
144
1.0
145
0.0
146
1.0
147
0.625
148
0.0
 69
0
 70
0
 71
0
 72
0
 73
0
 74
0
 75
0
 76
0
 77
1
 78
8
 79
3
170
0
171
3
172
1
173
0
174
0
175
0
176
0
177
0
178
0
179
2
271
2
272
2
273
2
274
3
275
0
276
0
277
2
278
44
279
0
280
0
281
0
282
0
283
0
284
8
285
0
286
0
288
0
289
3
290
0
371
-2
372
-2
  0
ENDTAB
  0
TABLE
  2
BLOCK_RECORD
  5
9
330
0
100
AcDbSymbolTable
 70
2
  0
BLOCK_RECORD
  5
17
330
9
100
AcDbSymbolTableRecord
100
AcDbBlockTableRecord
  2
*Model_Space
340
1A
 70
0
280
1
281
0
  0
BLOCK_RECORD
  5
1B
330
9
100
AcDbSymbolTableRecord
100
AcDbBlockTableRecord
  2
*Paper_Space
340
1E
 70
0
280
1
281
0
  0
ENDTAB
  0
ENDSEC
  0
SECTION
  2
BLOCKS
  0
BLOCK
  5
18
330
17
100
AcDbEntity
  8
0
100
AcDbBlockBegin
  2
*Model_Space
 70
0
 10
0.0
 20
0.0
 30
0.0
  3
*Model_Space
  1

  0
ENDBLK
  5
19
330
17
100
AcDbEntity
  8
0
100
AcDbBlockEnd
  0
BLOCK
  5
1C
330
1B
100
AcDbEntity
  8
0
100
AcDbBlockBegin
  2
*Paper_Space
 70
0
 10
0.0
 20
0.0
 30
0.0
  3
*Paper_Space
  1

  0
ENDBLK
  5
1D
330
1B
100
AcDbEntity
  8
0
100
AcDbBlockEnd
  0
ENDSEC
  0
SECTION
  2
ENTITIES
  0
LWPOLYLINE
  5
31
330
17
100
AcDbEntity
  8
0
100
AcDbPolyline
 90
56
 70
0
 10
226.60813199999996
 20
-86.16797599999992
 10
221.10801599999996
 20
-105.38155199999993
 10
221.46336199999996
 20
-105.54563599999993
 10
221.78619599999993
 20
-105.74527999999992
 10
222.07677199999995
 20
-105.97718199999993
 10
222.33483599999994
 20
-106.23803999999993
 10
222.56038799999993
 20
-106.52429799999993
 10
222.75368199999994
 20
-106.83290799999992
 10
222.91446399999995
 20
-107.16031399999991
 10
223.04273399999994
 20
-107.50321399999993
 10
223.34702599999994
 20
-107.81944399999993
 10
224.92106399999994
 20
-102.06278799999993
 10
225.15804599999993
 20
-101.45699799999993
 10
225.43007999999995
 20
-100.90886599999993
 10
225.73284799999993
 20
-100.41534399999993
 10
226.06203199999996
 20
-99.97338399999992
 10
226.41356799999997
 20
-99.58019199999993
 10
226.78313799999998
 20
-99.23297399999993
 10
227.16667799999996
 20
-98.92868199999992
 10
227.55986999999996
 20
-98.66452199999992
 10
228.357938
 20
-98.24516799999992
 10
229.143814
 20
-97.95154399999993
 10
229.88320799999997
 20
-97.76053599999992
 10
230.66248
 20
-97.64090199999991
 10
231.29290799999995
 20
-97.62185199999992
 10
231.61142399999997
 20
-97.64267999999991
 10
231.92231999999998
 20
-97.68763799999992
 10
232.21822999999998
 20
-97.75977399999992
 10
232.49153399999997
 20
-97.86213599999992
 10
232.617518
 20
-97.92563599999993
 10
258.720336
 20
-97.92563599999993
 10
260.24103399999996
 20
-96.23932999999992
 10
261.072884
 20
-95.52863799999993
 10
261.968742
 20
-94.91014799999992
 10
262.92048000000005
 20
-94.38766999999991
 10
263.92073200000004
 20
-93.96501399999993
 10
264.96137000000004
 20
-93.64573599999993
 10
266.0347740000001
 20
-93.43389999999992
 10
267.1330700000001
 20
-93.33306199999993
 10
287.7929220000001
 20
-92.91345399999993
 10
287.8432140000001
 20
-92.90430999999992
 10
287.8917280000001
 20
-92.89059399999994
 10
287.93821000000014
 20
-92.87230599999994
 10
287.98240600000014
 20
-92.84995399999993
 10
288.02406200000013
 20
-92.82379199999993
 10
288.0629240000001
 20
-92.79381999999993
 10
288.09873800000014
 20
-92.76054599999993
 10
288.13125000000014
 20
-92.72396999999994
 10
288.1604600000001
 20
-92.68459999999993
 10
288.1858600000001
 20
-92.64243599999993
 10
288.2071960000001
 20
-92.59798599999993
 10
288.2244680000001
 20
-92.55124999999992
 10
288.2374220000001
 20
-92.50248199999993
 10
288.2455500000001
 20
-92.45193599999992
 10
288.54095200000006
 20
-86.16746799999991
 10
226.6086400000001
 20
-86.16746799999991
  0
LWPOLYLINE
  5
34
330
17
100
AcDbEntity
  8
0
100
AcDbPolyline
 90
62
 70
0
 10
211.80780600000008
 20
-104.44937199999993
 10
207.9353220000001
 20
-103.25303199999992
 10
205.6963120000001
 20
-102.84434599999993
 10
204.5848080000001
 20
-102.75468399999993
 10
203.5103880000001
 20
-102.76738399999994
 10
202.95285800000008
 20
-102.82351799999994
 10
202.4517160000001
 20
-102.91902199999993
 10
202.0041680000001
 20
-103.06202399999992
 10
201.79969800000012
 20
-103.15397199999992
 10
201.60742000000013
 20
-103.26090599999992
 10
201.4270800000001
 20
-103.38384199999992
 10
201.25817000000012
 20
-103.52379599999992
 10
201.10043600000012
 20
-103.68178399999992
 10
200.95362400000013
 20
-103.85882199999992
 10
200.81722600000012
 20
-104.05592599999993
 10
200.6907340000001
 20
-104.27411199999992
 10
184.8467220000001
 20
-145.8460379999999
 10
184.7672200000001
 20
-146.23364199999992
 10
184.73013600000013
 20
-146.6207379999999
 10
184.7342000000001
 20
-147.00478599999988
 10
184.7778880000001
 20
-147.3827379999999
 10
184.85967600000012
 20
-147.7517999999999
 10
184.97829400000012
 20
-148.1091779999999
 10
185.1322180000001
 20
-148.45207799999991
 10
185.3201780000001
 20
-148.7774519999999
 10
185.5403960000001
 20
-149.0827599999999
 10
185.7916020000001
 20
-149.3649539999999
 10
186.0725260000001
 20
-149.6214939999999
 10
186.38139000000012
 20
-149.84933199999992
 10
186.71692400000012
 20
-150.0456739999999
 10
187.07785800000013
 20
-150.20772599999992
 10
198.64451000000014
 20
-153.68828799999991
 10
198.91324200000014
 20
-153.7235939999999
 10
199.17994200000012
 20
-153.7312139999999
 10
199.4430860000001
 20
-153.71241799999993
 10
199.7008960000001
 20
-153.66796799999995
 10
199.95159400000009
 20
-153.59887999999992
 10
200.1936560000001
 20
-153.5061699999999
 10
200.4253040000001
 20
-153.39059999999992
 10
200.6447600000001
 20
-153.25343999999993
 10
200.85024600000008
 20
-153.09545199999994
 10
201.0402380000001
 20
-152.91765199999992
 10
201.2129580000001
 20
-152.72080199999994
 10
201.3666280000001
 20
-152.5061719999999
 10
201.49947000000012
 20
-152.2745239999999
 10
201.6099600000001
 20
-152.0271279999999
 10
213.7140760000001
 20
-107.7823599999999
 10
213.74989000000008
 20
-107.50041999999989
 10
213.75903400000007
 20
-107.22000399999989
 10
213.74227000000005
 20
-106.9426359999999
 10
213.70036000000007
 20
-106.6700939999999
 10
213.63406600000008
 20
-106.4039019999999
 10
213.54415000000006
 20
-106.1458379999999
 10
213.43162800000007
 20
-105.8971719999999
 10
213.2970080000001
 20
-105.6599359999999
 10
213.14130600000007
 20
-105.4356539999999
 10
212.96528400000005
 20
-105.2258499999999
 10
212.76970400000008
 20
-105.0320479999999
 10
212.55532800000006
 20
-104.8560259999999
 10
212.32317200000006
 20
-104.6993079999999
 10
212.07374400000006
 20
-104.5636719999999
 10
211.80806000000007
 20
-104.4506419999999
  0
LWPOLYLINE
  5
35
330
17
100
AcDbEntity
  8
0
100
AcDbPolyline
 90
65
 70
0
 10
202.80604600000004
 20
-107.5768739999999
 10
202.81341200000006
 20
-107.90199399999989
 10
202.85278200000005
 20
-108.21847799999989
 10
202.92263200000002
 20
-108.5248019999999
 10
203.02143800000005
 20
-108.8194419999999
 10
203.14742200000003
 20
-109.1006199999999
 10
203.299314
 20
-109.36681199999991
 10
203.47533600000003
 20
-109.61623999999992
 10
203.67396400000004
 20
-109.84737999999992
 10
203.89367400000003
 20
-110.05845399999993
 10
204.13294200000004
 20
-110.24793799999992
 10
204.39024400000005
 20
-110.41405399999992
 10
204.66405600000004
 20
-110.55527799999992
 10
204.95285400000003
 20
-110.67008599999991
 10
205.25486
 20
-110.75669999999992
 10
205.568804
 20
-110.81359599999992
 10
205.892908
 20
-110.83899599999992
 10
206.218028
 20
-110.83162999999992
 10
206.53451199999998
 20
-110.79225999999993
 10
206.840836
 20
-110.72240999999994
 10
207.13547599999998
 20
-110.62360399999993
 10
207.41665399999997
 20
-110.49761999999994
 10
207.68284599999998
 20
-110.34572799999994
 10
207.93227399999998
 20
-110.16970599999993
 10
208.16341399999996
 20
-109.97107799999995
 10
208.37448799999996
 20
-109.75136799999994
 10
208.56397199999995
 20
-109.51209999999993
 10
208.73008799999997
 20
-109.25479799999994
 10
208.87131199999996
 20
-108.98098599999994
 10
208.98611999999997
 20
-108.69218799999994
 10
209.07273399999997
 20
-108.39018199999994
 10
209.12963
 20
-108.07623799999995
 10
209.15502999999998
 20
-107.75213399999994
 10
209.147664
 20
-107.42701399999996
 10
209.108294
 20
-107.11052999999995
 10
209.038444
 20
-106.80420599999995
 10
208.939638
 20
-106.50956599999995
 10
208.813654
 20
-106.22838799999994
 10
208.661762
 20
-105.96219599999993
 10
208.48574000000002
 20
-105.71276799999993
 10
208.287112
 20
-105.48162799999993
 10
208.06740200000002
 20
-105.27055399999992
 10
207.828134
 20
-105.08106999999993
 10
207.570832
 20
-104.91495399999992
 10
207.29702
 20
-104.77372999999993
 10
207.00822200000002
 20
-104.65892199999993
 10
206.706216
 20
-104.57230799999994
 10
206.39227200000002
 20
-104.51541199999993
 10
206.06816800000004
 20
-104.49001199999992
 10
205.74304800000004
 20
-104.49737799999993
 10
205.42656400000004
 20
-104.53674799999992
 10
205.12024000000005
 20
-104.6065979999999
 10
204.82560000000007
 20
-104.70540399999992
 10
204.54442200000005
 20
-104.8313879999999
 10
204.27823000000006
 20
-104.98327999999991
 10
204.02880200000007
 20
-105.15930199999991
 10
203.7976620000001
 20
-105.35792999999991
 10
203.58658800000006
 20
-105.5776399999999
 10
203.39710400000007
 20
-105.81690799999991
 10
203.23098800000008
 20
-106.07420999999991
 10
203.08976400000006
 20
-106.3480219999999
 10
202.97495600000008
 20
-106.6368199999999
 10
202.88834200000008
 20
-106.9388259999999
 10
202.83144600000006
 20
-107.2527699999999
 10
202.80604600000004
 20
-107.5768739999999
  0
LWPOLYLINE
  5
36
330
17
100
AcDbEntity
  8
0
100
AcDbPolyline
 90
65
 70
0
 10
191.75628400000005
 20
-147.80005999999992
 10
191.76288800000003
 20
-148.0913979999999
 10
191.79819400000002
 20
-148.3751159999999
 10
191.86067800000004
 20
-148.6496899999999
 10
191.94907
 20
-148.91359599999993
 10
192.06210000000002
 20
-149.1655639999999
 10
192.19824400000002
 20
-149.4040699999999
 10
192.355978
 20
-149.62758999999988
 10
192.53403200000002
 20
-149.8345999999999
 10
192.730882
 20
-150.02382999999992
 10
192.94525800000002
 20
-150.1937559999999
 10
193.17589
 20
-150.34259999999992
 10
193.42125400000003
 20
-150.46934599999992
 10
193.68008000000003
 20
-150.5722159999999
 10
193.95084400000005
 20
-150.6496859999999
 10
194.23202200000003
 20
-150.7004859999999
 10
194.52234400000003
 20
-150.72309199999992
 10
194.81368200000006
 20
-150.71648799999994
 10
195.09740000000005
 20
-150.68118199999992
 10
195.37197400000005
 20
-150.61869799999994
 10
195.63588000000004
 20
-150.53030599999994
 10
195.88784800000002
 20
-150.41727599999993
 10
196.12635400000002
 20
-150.28113199999996
 10
196.34987400000003
 20
-150.12339799999995
 10
196.55688400000003
 20
-149.94534399999995
 10
196.74611400000003
 20
-149.74849399999997
 10
196.91604000000004
 20
-149.53411799999995
 10
197.06488400000003
 20
-149.30348599999994
 10
197.19163000000003
 20
-149.05812199999994
 10
197.29450000000003
 20
-148.79929599999994
 10
197.37222400000005
 20
-148.52853199999993
 10
197.42302400000005
 20
-148.24735399999994
 10
197.44563000000008
 20
-147.9570319999999
 10
197.43902600000007
 20
-147.66569399999992
 10
197.40372000000008
 20
-147.38197599999992
 10
197.3412360000001
 20
-147.10740199999992
 10
197.2528440000001
 20
-146.84349599999993
 10
197.1398140000001
 20
-146.59152799999993
 10
197.00367000000008
 20
-146.35302199999995
 10
196.8459360000001
 20
-146.12950199999995
 10
196.6678820000001
 20
-145.92249199999992
 10
196.4710320000001
 20
-145.73326199999994
 10
196.25665600000008
 20
-145.56358999999992
 10
196.0260240000001
 20
-145.41474599999992
 10
195.78066000000007
 20
-145.28799999999993
 10
195.52183400000007
 20
-145.18512999999993
 10
195.25107000000008
 20
-145.1074059999999
 10
194.96989200000007
 20
-145.0566059999999
 10
194.67957000000007
 20
-145.03399999999988
 10
194.38823200000004
 20
-145.0406039999999
 10
194.10451400000008
 20
-145.07590999999988
 10
193.82994000000005
 20
-145.13839399999986
 10
193.56603400000006
 20
-145.22678599999986
 10
193.31406600000008
 20
-145.33981599999987
 10
193.07556000000008
 20
-145.47595999999987
 10
192.85204000000007
 20
-145.63369399999985
 10
192.64503000000008
 20
-145.81174799999985
 10
192.45580000000007
 20
-146.00859799999986
 10
192.28612800000008
 20
-146.22297399999988
 10
192.13728400000008
 20
-146.45360599999987
 10
192.01053800000005
 20
-146.69896999999986
 10
191.90766800000006
 20
-146.9577959999999
 10
191.82994400000007
 20
-147.22855999999987
 10
191.77914400000006
 20
-147.50973799999989
 10
191.75653800000003
 20
-147.80031399999987
  0
LWPOLYLINE
  5
37
330
17
100
AcDbEntity
  8
0
100
AcDbPolyline
 90
72
 70
0
 10
193.42481000000004
 20
-89.32646599999988
 10
193.16928600000003
 20
-89.35694599999988
 10
193.04508
 20
-89.38285399999988
 10
192.92544600000002
 20
-89.41815999999987
 10
192.81190800000002
 20
-89.46438799999989
 10
192.706244
 20
-89.5233159999999
 10
192.65696800000003
 20
-89.55785999999989
 10
192.61023200000002
 20
-89.59621399999989
 10
192.56629000000004
 20
-89.63863199999989
 10
192.52539600000006
 20
-89.68511399999988
 10
192.48348600000006
 20
-89.74251799999989
 10
192.44792600000005
 20
-89.80322399999989
 10
192.41846200000006
 20
-89.86672399999988
 10
192.39509400000006
 20
-89.93250999999988
 10
192.37731400000004
 20
-90.00032799999988
 10
192.36512200000004
 20
-90.06966999999989
 10
192.35826400000005
 20
-90.1402819999999
 10
192.36004200000002
 20
-90.28353799999991
 10
192.38112400000003
 20
-90.4270479999999
 10
192.41973200000004
 20
-90.5675099999999
 10
192.47459600000002
 20
-90.7021299999999
 10
192.54368400000004
 20
-90.82785999999989
 10
192.62344000000004
 20
-90.94596999999989
 10
192.80784400000005
 20
-91.1636479999999
 10
195.03821800000003
 20
-93.3234099999999
 10
196.11746400000004
 20
-94.62388999999989
 10
197.10247600000005
 20
-96.02215999999989
 10
197.97318800000005
 20
-97.49789999999989
 10
198.70928000000004
 20
-99.0307899999999
 10
199.29068600000005
 20
-100.6005099999999
 10
199.69734000000005
 20
-102.1867399999999
 10
199.82865800000005
 20
-102.97972799999991
 10
200.00620400000005
 20
-102.7772899999999
 10
200.20381600000005
 20
-102.59364799999989
 10
200.42047800000003
 20
-102.4282939999999
 10
200.65542800000003
 20
-102.28046599999989
 10
200.90765000000005
 20
-102.1496559999999
 10
201.46010000000004
 20
-101.9362959999999
 10
202.07046200000002
 20
-101.7833879999999
 10
202.73137000000003
 20
-101.68585199999991
 10
204.17510600000003
 20
-101.6370839999999
 10
205.73161800000003
 20
-101.74985999999991
 10
211.24824400000003
 20
-102.8539979999999
 10
212.30310600000004
 20
-103.2073119999999
 10
212.80501000000004
 20
-103.4298159999999
 10
213.27364000000006
 20
-103.6871179999999
 10
213.69680400000007
 20
-103.9825199999999
 10
213.88730400000006
 20
-104.1455879999999
 10
214.06180200000006
 20
-104.31932399999991
 10
214.21877400000008
 20
-104.5042359999999
 10
214.35669600000008
 20
-104.7008319999999
 10
214.5101120000001
 20
-104.9779459999999
 10
214.6625120000001
 20
-105.33125999999992
 10
214.7752880000001
 20
-105.69066999999993
 10
214.8512340000001
 20
-106.05566799999993
 10
214.8936520000001
 20
-106.42549199999992
 10
214.9055900000001
 20
-106.79937999999993
 10
214.84996400000009
 20
-107.55731599999991
 10
214.7092480000001
 20
-108.32464999999992
 10
213.9612180000001
 20
-110.82299399999992
 10
213.9647740000001
 20
-110.81359599999993
 10
213.96960000000007
 20
-110.80394399999993
 10
213.98204600000008
 20
-110.78387799999993
 10
213.99804800000007
 20
-110.76304999999992
 10
214.03894200000005
 20
-110.72012399999993
 10
216.46540400000006
 20
-108.49711599999993
 10
216.70213200000006
 20
-108.21238199999993
 10
217.11793000000006
 20
-107.59058999999993
 10
217.46362400000004
 20
-106.92663399999995
 10
218.01988400000008
 20
-105.53344399999995
 10
222.34601200000006
 20
-89.32646599999994
 10
193.42430200000007
 20
-89.32748199999995
  0
LWPOLYLINE
  5
3A
330
17
100
AcDbEntity
  8
0
100
AcDbPolyline
 90
65
 70
0
 10
204.63687800000002
 20
-128.24155199999996
 10
204.61198600000003
 20
-128.73583599999995
 10
204.538834
 20
-129.21589599999996
 10
204.419708
 20
-129.67919199999997
 10
204.257148
 20
-130.12343799999996
 10
204.053694
 20
-130.54609399999995
 10
203.811632
 20
-130.94461999999993
 10
203.53324800000001
 20
-131.31672999999995
 10
203.221336
 20
-131.66013799999993
 10
202.87792800000003
 20
-131.97204999999994
 10
202.505818
 20
-132.25043399999993
 10
202.10729200000003
 20
-132.49249599999993
 10
201.68463600000004
 20
-132.69620399999994
 10
201.24039000000002
 20
-132.85876399999992
 10
200.77709400000003
 20
-132.97788999999995
 10
200.29703400000002
 20
-133.05104199999994
 10
199.80275000000003
 20
-133.07593399999993
 10
199.30846600000004
 20
-133.05104199999994
 10
198.82840600000003
 20
-132.97788999999995
 10
198.36511000000004
 20
-132.85876399999992
 10
197.92086400000002
 20
-132.69620399999994
 10
197.49820800000003
 20
-132.49249599999993
 10
197.09968200000006
 20
-132.25043399999993
 10
196.72757200000004
 20
-131.97204999999994
 10
196.38416400000006
 20
-131.66013799999993
 10
196.07225200000005
 20
-131.31672999999995
 10
195.79386800000006
 20
-130.94461999999993
 10
195.55180600000006
 20
-130.54609399999995
 10
195.34835200000006
 20
-130.12343799999996
 10
195.18579200000005
 20
-129.67919199999994
 10
195.06666600000005
 20
-129.21589599999993
 10
194.99351400000003
 20
-128.73583599999995
 10
194.96862200000004
 20
-128.24155199999993
 10
194.99351400000003
 20
-127.74726799999993
 10
195.06666600000005
 20
-127.26720799999994
 10
195.18579200000005
 20
-126.80391199999993
 10
195.34835200000006
 20
-126.35966599999992
 10
195.55180600000006
 20
-125.93700999999993
 10
195.79386800000006
 20
-125.53848399999993
 10
196.07225200000005
 20
-125.16637399999993
 10
196.38416400000006
 20
-124.82296599999994
 10
196.72757200000004
 20
-124.51105399999993
 10
197.09968200000006
 20
-124.23266999999993
 10
197.49820800000003
 20
-123.99060799999994
 10
197.92086400000002
 20
-123.78715399999994
 10
198.36511000000004
 20
-123.62459399999995
 10
198.82840600000003
 20
-123.50546799999995
 10
199.30846600000004
 20
-123.43231599999994
 10
199.80275000000003
 20
-123.40742399999995
 10
200.29703400000002
 20
-123.43231599999994
 10
200.77709400000003
 20
-123.50546799999995
 10
201.24039000000002
 20
-123.62459399999995
 10
201.68463600000004
 20
-123.78715399999994
 10
202.10729200000003
 20
-123.99060799999994
 10
202.505818
 20
-124.23266999999993
 10
202.87792800000003
 20
-124.51105399999993
 10
203.221336
 20
-124.82296599999994
 10
203.53324800000001
 20
-125.16637399999993
 10
203.811632
 20
-125.53848399999993
 10
204.053694
 20
-125.93700999999993
 10
204.257148
 20
-126.35966599999992
 10
204.419708
 20
-126.80391199999993
 10
204.538834
 20
-127.26720799999994
 10
204.61198600000003
 20
-127.74726799999993
 10
204.63687800000002
 20
-128.24155199999993
  0
ENDSEC
  0
SECTION
  2
OBJECTS
  0
DICTIONARY
  5
A
330
0
100
AcDbDictionary
281
1
  3
ACAD_COLOR
350
B
  3
ACAD_GROUP
350
C
  3
ACAD_LAYOUT
350
D
  3
ACAD_MATERIAL
350
E
  3
ACAD_MLEADERSTYLE
350
F
  3
ACAD_MLINESTYLE
350
10
  3
ACAD_PLOTSETTINGS
350
11
  3
ACAD_PLOTSTYLENAME
350
12
  3
ACAD_SCALELIST
350
14
  3
ACAD_TABLESTYLE
350
15
  3
ACAD_VISUALSTYLE
350
16
  3
EZDXF_META
350
2D
  0
DICTIONARY
  5
B
330
A
100
AcDbDictionary
281
1
  0
DICTIONARY
  5
C
330
A
100
AcDbDictionary
281
1
  0
DICTIONARY
  5
D
330
A
100
AcDbDictionary
281
1
  3
Model
350
1A
  3
Layout1
350
1E
  0
DICTIONARY
  5
E
330
A
100
AcDbDictionary
281
1
  3
ByBlock
350
1F
  3
ByLayer
350
20
  3
Global
350
21
  0
DICTIONARY
  5
F
330
A
100
AcDbDictionary
281
1
  3
Standard
350
2C
  0
DICTIONARY
  5
10
330
A
100
AcDbDictionary
281
1
  3
Standard
350
22
  0
DICTIONARY
  5
11
330
A
100
AcDbDictionary
281
1
  0
ACDBDICTIONARYWDFLT
  5
12
330
A
100
AcDbDictionary
281
1
  3
Normal
350
13
100
AcDbDictionaryWithDefault
340
13
  0
ACDBPLACEHOLDER
  5
13
330
12
  0
DICTIONARY
  5
14
330
A
100
AcDbDictionary
281
1
  0
DICTIONARY
  5
15
330
A
100
AcDbDictionary
281
1
  0
DICTIONARY
  5
16
330
A
100
AcDbDictionary
281
1
  0
LAYOUT
  5
1A
330
D
100
AcDbPlotSettings
  1

  4
A3
  6

 40
7.5
 41
20.0
 42
7.5
 43
20.0
 44
420.0
 45
297.0
 46
0.0
 47
0.0
 48
0.0
 49
0.0
140
0.0
141
0.0
142
1.0
143
1.0
 70
1024
 72
1
 73
0
 74
5
  7

 75
16
 76
0
 77
2
 78
300
147
1.0
148
0.0
149
0.0
100
AcDbLayout
  1
Model
 70
1
 71
0
 10
0.0
 20
0.0
 11
420.0
 21
297.0
 12
0.0
 22
0.0
 32
0.0
 14
1e+20
 24
1e+20
 34
1e+20
 15
-1e+20
 25
-1e+20
 35
-1e+20
146
0.0
 13
0.0
 23
0.0
 33
0.0
 16
1.0
 26
0.0
 36
0.0
 17
0.0
 27
1.0
 37
0.0
 76
1
330
17
  0
LAYOUT
  5
1E
330
D
100
AcDbPlotSettings
  1

  4
A3
  6

 40
7.5
 41
20.0
 42
7.5
 43
20.0
 44
420.0
 45
297.0
 46
0.0
 47
0.0
 48
0.0
 49
0.0
140
0.0
141
0.0
142
1.0
143
1.0
 70
0
 72
1
 73
0
 74
5
  7

 75
16
 76
0
 77
2
 78
300
147
1.0
148
0.0
149
0.0
100
AcDbLayout
  1
Layout1
 70
1
 71
1
 10
0.0
 20
0.0
 11
420.0
 21
297.0
 12
0.0
 22
0.0
 32
0.0
 14
1e+20
 24
1e+20
 34
1e+20
 15
-1e+20
 25
-1e+20
 35
-1e+20
146
0.0
 13
0.0
 23
0.0
 33
0.0
 16
1.0
 26
0.0
 36
0.0
 17
0.0
 27
1.0
 37
0.0
 76
1
330
1B
  0
MATERIAL
  5
1F
102
{ACAD_REACTORS
330
E
102
}
330
E
100
AcDbMaterial
  1
ByBlock
  2

 70
0
 40
1.0
 71
1
 41
1.0
 91
-1023410177
 42
1.0
 72
1
  3

 73
1
 74
1
 75
1
 44
0.5
 73
0
 45
1.0
 46
1.0
 77
1
  4

 78
1
 79
1
170
1
 48
1.0
171
1
  6

172
1
173
1
174
1
140
1.0
141
1.0
175
1
  7

176
1
177
1
178
1
143
1.0
179
1
  8

270
1
271
1
272
1
145
1.0
146
1.0
273
1
  9

274
1
275
1
276
1
 42
1.0
 72
1
  3

 73
1
 74
1
 75
1
 94
63
  0
MATERIAL
  5
20
102
{ACAD_REACTORS
330
E
102
}
330
E
100
AcDbMaterial
  1
ByLayer
  2

 70
0
 40
1.0
 71
1
 41
1.0
 91
-1023410177
 42
1.0
 72
1
  3

 73
1
 74
1
 75
1
 44
0.5
 73
0
 45
1.0
 46
1.0
 77
1
  4

 78
1
 79
1
170
1
 48
1.0
171
1
  6

172
1
173
1
174
1
140
1.0
141
1.0
175
1
  7

176
1
177
1
178
1
143
1.0
179
1
  8

270
1
271
1
272
1
145
1.0
146
1.0
273
1
  9

274
1
275
1
276
1
 42
1.0
 72
1
  3

 73
1
 74
1
 75
1
 94
63
  0
MATERIAL
  5
21
102
{ACAD_REACTORS
330
E
102
}
330
E
100
AcDbMaterial
  1
Global
  2

 70
0
 40
1.0
 71
1
 41
1.0
 91
-1023410177
 42
1.0
 72
1
  3

 73
1
 74
1
 75
1
 44
0.5
 73
0
 45
1.0
 46
1.0
 77
1
  4

 78
1
 79
1
170
1
 48
1.0
171
1
  6

172
1
173
1
174
1
140
1.0
141
1.0
175
1
  7

176
1
177
1
178
1
143
1.0
179
1
  8

270
1
271
1
272
1
145
1.0
146
1.0
273
1
  9

274
1
275
1
276
1
 42
1.0
 72
1
  3

 73
1
 74
1
 75
1
 94
63
  0
MLINESTYLE
  5
22
102
{ACAD_REACTORS
330
10
102
}
330
10
100
AcDbMlineStyle
  2
Standard
 70
0
  3

 62
256
 51
90.0
 52
90.0
 71
2
 49
0.5
 62
256
  6
BYLAYER
 49
-0.5
 62
256
  6
BYLAYER
  0
MLEADERSTYLE
  5
2C
102
{ACAD_REACTORS
330
F
102
}
330
F
100
AcDbMLeaderStyle
179
2
170
2
171
1
172
0
 90
2
 40
0.0
 41
0.0
173
1
 91
-1056964608
 92
-2
290
1
 42
2.0
291
1
 43
8.0
  3
Standard
 44
4.0
300

342
29
174
1
175
1
176
0
178
1
 93
-1056964608
 45
4.0
292
0
297
0
 46
4.0
 94
-1056964608
 47
1.0
 49
1.0
140
1.0
294
1
141
0.0
177
0
142
1.0
295
0
296
0
143
3.75
271
0
272
9
273
9
  0
DICTIONARY
  5
2D
330
A
100
AcDbDictionary
280
1
281
1
  3
CREATED_BY_EZDXF
350
2E
  3
WRITTEN_BY_EZDXF
350
3D
  0
DICTIONARYVAR
  5
2E
330
2D
100
DictionaryVariables
280
0
  1
1.4.3 @ 2026-04-08T01:02:28.786555+00:00
  0
DICTIONARYVAR
  5
3D
330
2D
100
DictionaryVariables
280
0
  1
1.4.3 @ 2026-04-09T21:09:48.335545+00:00
  0
ENDSEC
  0
EOF
