  0
SECTION
  2
HEADER
  9
$ACADVER
  1
AC1024
  9
$ACADMAINTVER
 70
6
  9
$DWGCODEPAGE
  3
ANSI_1252
  9
$LASTSAVEDBY
  1
ezdxf
  9
$INSBASE
 10
0.0
 20
0.0
 30
0.0
  9
$EXTMIN
 10
1e+20
 20
1e+20
 30
1e+20
  9
$EXTMAX
 10
-1e+20
 20
-1e+20
 30
-1e+20
  9
$LIMMIN
 10
0.0
 20
0.0
  9
$LIMMAX
 10
420.0
 20
297.0
  9
$ORTHOMODE
 70
0
  9
$REGENMODE
 70
1
  9
$FILLMODE
 70
1
  9
$QTEXTMODE
 70
0
  9
$MIRRTEXT
 70
1
  9
$LTSCALE
 40
1.0
  9
$ATTMODE
 70
1
  9
$TEXTSIZE
 40
2.5
  9
$TRACEWID
 40
1.0
  9
$TEXTSTYLE
  7
Standard
  9
$CLAYER
  8
0
  9
$CELTYPE
  6
ByLayer
  9
$CECOLOR
 62
256
  9
$CELTSCALE
 40
1.0
  9
$DISPSILH
 70
0
  9
$DIMSCALE
 40
1.0
  9
$DIMASZ
 40
2.5
  9
$DIMEXO
 40
0.625
  9
$DIMDLI
 40
3.75
  9
$DIMRND
 40
0.0
  9
$DIMDLE
 40
0.0
  9
$DIMEXE
 40
1.25
  9
$DIMTP
 40
0.0
  9
$DIMTM
 40
0.0
  9
$DIMTXT
 40
2.5
  9
$DIMCEN
 40
2.5
  9
$DIMTSZ
 40
0.0
  9
$DIMTOL
 70
0
  9
$DIMLIM
 70
0
  9
$DIMTIH
 70
0
  9
$DIMTOH
 70
0
  9
$DIMSE1
 70
0
  9
$DIMSE2
 70
0
  9
$DIMTAD
 70
1
  9
$DIMZIN
 70
8
  9
$DIMBLK
  1

  9
$DIMASO
 70
1
  9
$DIMSHO
 70
1
  9
$DIMPOST
  1

  9
$DIMAPOST
  1

  9
$DIMALT
 70
0
  9
$DIMALTD
 70
3
  9
$DIMALTF
 40
0.03937007874
  9
$DIMLFAC
 40
1.0
  9
$DIMTOFL
 70
1
  9
$DIMTVP
 40
0.0
  9
$DIMTIX
 70
0
  9
$DIMSOXD
 70
0
  9
$DIMSAH
 70
0
  9
$DIMBLK1
  1

  9
$DIMBLK2
  1

  9
$DIMSTYLE
  2
ISO-25
  9
$DIMCLRD
 70
0
  9
$DIMCLRE
 70
0
  9
$DIMCLRT
 70
0
  9
$DIMTFAC
 40
1.0
  9
$DIMGAP
 40
0.625
  9
$DIMJUST
 70
0
  9
$DIMSD1
 70
0
  9
$DIMSD2
 70
0
  9
$DIMTOLJ
 70
0
  9
$DIMTZIN
 70
8
  9
$DIMALTZ
 70
0
  9
$DIMALTTZ
 70
0
  9
$DIMUPT
 70
0
  9
$DIMDEC
 70
2
  9
$DIMTDEC
 70
2
  9
$DIMALTU
 70
2
  9
$DIMALTTD
 70
3
  9
$DIMTXSTY
  7
Standard
  9
$DIMAUNIT
 70
0
  9
$DIMADEC
 70
0
  9
$DIMALTRND
 40
0.0
  9
$DIMAZIN
 70
0
  9
$DIMDSEP
 70
44
  9
$DIMATFIT
 70
3
  9
$DIMFRAC
 70
0
  9
$DIMLDRBLK
  1

  9
$DIMLUNIT
 70
2
  9
$DIMLWD
 70
-2
  9
$DIMLWE
 70
-2
  9
$DIMTMOVE
 70
0
  9
$DIMFXL
 40
1.0
  9
$DIMFXLON
 70
0
  9
$DIMJOGANG
 40
0.785398163397
  9
$DIMTFILL
 70
0
  9
$DIMTFILLCLR
 70
0
  9
$DIMARCSYM
 70
0
  9
$DIMLTYPE
  6

  9
$DIMLTEX1
  6

  9
$DIMLTEX2
  6

  9
$DIMTXTDIRECTION
 70
0
  9
$LUNITS
 70
2
  9
$LUPREC
 70
4
  9
$SKETCHINC
 40
1.0
  9
$FILLETRAD
 40
10.0
  9
$AUNITS
 70
0
  9
$AUPREC
 70
2
  9
$MENU
  1
.
  9
$ELEVATION
 40
0.0
  9
$PELEVATION
 40
0.0
  9
$THICKNESS
 40
0.0
  9
$LIMCHECK
 70
0
  9
$CHAMFERA
 40
0.0
  9
$CHAMFERB
 40
0.0
  9
$CHAMFERC
 40
0.0
  9
$CHAMFERD
 40
0.0
  9
$SKPOLY
 70
0
  9
$TDCREATE
 40
2461142.7371527776
  9
$TDUCREATE
 40
2458532.153996898
  9
$TDUPDATE
 40
2461142.7371527776
  9
$TDUUPDATE
 40
2458532.1544311
  9
$TDINDWG
 40
0.0
  9
$TDUSRTIMER
 40
0.0
  9
$USRTIMER
 70
1
  9
$ANGBASE
 50
0.0
  9
$ANGDIR
 70
0
  9
$PDMODE
 70
0
  9
$PDSIZE
 40
0.0
  9
$PLINEWID
 40
0.0
  9
$SPLFRAME
 70
0
  9
$SPLINETYPE
 70
6
  9
$SPLINESEGS
 70
8
  9
$HANDSEED
  5
3E
  9
$SURFTAB1
 70
6
  9
$SURFTAB2
 70
6
  9
$SURFTYPE
 70
6
  9
$SURFU
 70
6
  9
$SURFV
 70
6
  9
$UCSBASE
  2

  9
$UCSNAME
  2

  9
$UCSORG
 10
0.0
 20
0.0
 30
0.0
  9
$UCSXDIR
 10
1.0
 20
0.0
 30
0.0
  9
$UCSYDIR
 10
0.0
 20
1.0
 30
0.0
  9
$UCSORTHOREF
  2

  9
$UCSORTHOVIEW
 70
0
  9
$UCSORGTOP
 10
0.0
 20
0.0
 30
0.0
  9
$UCSORGBOTTOM
 10
0.0
 20
0.0
 30
0.0
  9
$UCSORGLEFT
 10
0.0
 20
0.0
 30
0.0
  9
$UCSORGRIGHT
 10
0.0
 20
0.0
 30
0.0
  9
$UCSORGFRONT
 10
0.0
 20
0.0
 30
0.0
  9
$UCSORGBACK
 10
0.0
 20
0.0
 30
0.0
  9
$PUCSBASE
  2

  9
$PUCSNAME
  2

  9
$PUCSORG
 10
0.0
 20
0.0
 30
0.0
  9
$PUCSXDIR
 10
1.0
 20
0.0
 30
0.0
  9
$PUCSYDIR
 10
0.0
 20
1.0
 30
0.0
  9
$PUCSORTHOREF
  2

  9
$PUCSORTHOVIEW
 70
0
  9
$PUCSORGTOP
 10
0.0
 20
0.0
 30
0.0
  9
$PUCSORGBOTTOM
 10
0.0
 20
0.0
 30
0.0
  9
$PUCSORGLEFT
 10
0.0
 20
0.0
 30
0.0
  9
$PUCSORGRIGHT
 10
0.0
 20
0.0
 30
0.0
  9
$PUCSORGFRONT
 10
0.0
 20
0.0
 30
0.0
  9
$PUCSORGBACK
 10
0.0
 20
0.0
 30
0.0
  9
$USERI1
 70
0
  9
$USERI2
 70
0
  9
$USERI3
 70
0
  9
$USERI4
 70
0
  9
$USERI5
 70
0
  9
$USERR1
 40
0.0
  9
$USERR2
 40
0.0
  9
$USERR3
 40
0.0
  9
$USERR4
 40
0.0
  9
$USERR5
 40
0.0
  9
$WORLDVIEW
 70
1
  9
$SHADEDGE
 70
3
  9
$SHADEDIF
 70
70
  9
$TILEMODE
 70
1
  9
$MAXACTVP
 70
64
  9
$PINSBASE
 10
0.0
 20
0.0
 30
0.0
  9
$PLIMCHECK
 70
0
  9
$PEXTMIN
 10
1e+20
 20
1e+20
 30
1e+20
  9
$PEXTMAX
 10
-1e+20
 20
-1e+20
 30
-1e+20
  9
$PLIMMIN
 10
0.0
 20
0.0
  9
$PLIMMAX
 10
420.0
 20
297.0
  9
$UNITMODE
 70
0
  9
$VISRETAIN
 70
1
  9
$PLINEGEN
 70
0
  9
$PSLTSCALE
 70
1
  9
$TREEDEPTH
 70
3020
  9
$CMLSTYLE
  2
Standard
  9
$CMLJUST
 70
0
  9
$CMLSCALE
 40
20.0
  9
$PROXYGRAPHICS
 70
1
  9
$MEASUREMENT
 70
1
  9
$CELWEIGHT
370
-1
  9
$ENDCAPS
280
0
  9
$JOINSTYLE
280
0
  9
$LWDISPLAY
290
0
  9
$INSUNITS
 70
4
  9
$HYPERLINKBASE
  1

  9
$STYLESHEET
  1

  9
$XEDIT
290
1
  9
$CEPSNTYPE
380
0
  9
$PSTYLEMODE
290
1
  9
$FINGERPRINTGUID
  2
{B685762B-F0EE-4E76-9645-A165B1C7B211}
  9
$VERSIONGUID
  2
{03986E37-980A-47D7-A331-36B7B7B73C1A}
  9
$EXTNAMES
290
1
  9
$PSVPSCALE
 40
0.0
  9
$OLESTARTUP
290
0
  9
$SORTENTS
280
127
  9
$INDEXCTL
280
0
  9
$HIDETEXT
280
1
  9
$XCLIPFRAME
280
1
  9
$HALOGAP
280
0
  9
$OBSCOLOR
 70
257
  9
$OBSLTYPE
280
0
  9
$INTERSECTIONDISPLAY
280
0
  9
$INTERSECTIONCOLOR
 70
257
  9
$DIMASSOC
280
2
  9
$PROJECTNAME
  1

  9
$CAMERADISPLAY
290
0
  9
$LENSLENGTH
 40
50.0
  9
$CAMERAHEIGHT
 40
0.0
  9
$STEPSPERSEC
 40
24.0
  9
$STEPSIZE
 40
100.0
  9
$3DDWFPREC
 40
2.0
  9
$PSOLWIDTH
 40
0.005
  9
$PSOLHEIGHT
 40
0.08
  9
$LOFTANG1
 40
1.570796326795
  9
$LOFTANG2
 40
1.570796326795
  9
$LOFTMAG1
 40
0.0
  9
$LOFTMAG2
 40
0.0
  9
$LOFTPARAM
 70
7
  9
$LOFTNORMALS
280
1
  9
$LATITUDE
 40
37.795
  9
$LONGITUDE
 40
-122.394
  9
$NORTHDIRECTION
 40
0.0
  9
$TIMEZONE
 70
-8000
  9
$LIGHTGLYPHDISPLAY
280
1
  9
$TILEMODELIGHTSYNCH
280
1
  9
$CMATERIAL
347
20
  9
$SOLIDHIST
280
0
  9
$SHOWHIST
280
1
  9
$DWFFRAME
280
2
  9
$DGNFRAME
280
2
  9
$REALWORLDSCALE
290
1
  9
$INTERFERECOLOR
 62
256
  9
$CSHADOW
280
0
  9
$SHADOWPLANELOCATION
 40
0.0
  0
ENDSEC
  0
SECTION
  2
CLASSES
  0
CLASS
  1
ACDBDICTIONARYWDFLT
  2
AcDbDictionaryWithDefault
  3
ObjectDBX Classes
 90
0
 91
0
280
0
281
0
  0
CLASS
  1
SUN
  2
AcDbSun
  3
SCENEOE
 90
1153
 91
0
280
0
281
0
  0
CLASS
  1
VISUALSTYLE
  2
AcDbVisualStyle
  3
ObjectDBX Classes
 90
4095
 91
0
280
0
281
0
  0
CLASS
  1
MATERIAL
  2
AcDbMaterial
  3
ObjectDBX Classes
 90
1153
 91
0
280
0
281
0
  0
CLASS
  1
SCALE
  2
AcDbScale
  3
ObjectDBX Classes
 90
1153
 91
0
280
0
281
0
  0
CLASS
  1
TABLESTYLE
  2
AcDbTableStyle
  3
ObjectDBX Classes
 90
4095
 91
0
280
0
281
0
  0
CLASS
  1
MLEADERSTYLE
  2
AcDbMLeaderStyle
  3
ACDB_MLEADERSTYLE_CLASS
 90
4095
 91
0
280
0
281
0
  0
CLASS
  1
DICTIONARYVAR
  2
AcDbDictionaryVar
  3
ObjectDBX Classes
 90
0
 91
0
280
0
281
0
  0
CLASS
  1
CELLSTYLEMAP
  2
AcDbCellStyleMap
  3
ObjectDBX Classes
 90
1152
 91
0
280
0
281
0
  0
CLASS
  1
MENTALRAYRENDERSETTINGS
  2
AcDbMentalRayRenderSettings
  3
SCENEOE
 90
1024
 91
0
280
0
281
0
  0
CLASS
  1
ACDBDETAILVIEWSTYLE
  2
AcDbDetailViewStyle
  3
ObjectDBX Classes
 90
1025
 91
0
280
0
281
0
  0
CLASS
  1
ACDBSECTIONVIEWSTYLE
  2
AcDbSectionViewStyle
  3
ObjectDBX Classes
 90
1025
 91
0
280
0
281
0
  0
CLASS
  1
RASTERVARIABLES
  2
AcDbRasterVariables
  3
ISM
 90
0
 91
0
280
0
281
0
  0
CLASS
  1
ACDBPLACEHOLDER
  2
AcDbPlaceHolder
  3
ObjectDBX Classes
 90
0
 91
0
280
0
281
0
  0
CLASS
  1
LAYOUT
  2
AcDbLayout
  3
ObjectDBX Classes
 90
0
 91
0
280
0
281
0
  0
ENDSEC
  0
SECTION
  2
TABLES
  0
TABLE
  2
VPORT
  5
8
330
0
100
AcDbSymbolTable
 70
1
  0
VPORT
  5
23
330
8
100
AcDbSymbolTableRecord
100
AcDbViewportTableRecord
  2
*Active
 70
0
 10
0.0
 20
0.0
 11
1.0
 21
1.0
 12
0.0
 22
0.0
 13
0.0
 23
0.0
 14
0.5
 24
0.5
 15
0.5
 25
0.5
 16
0.0
 26
0.0
 36
1.0
 17
0.0
 27
0.0
 37
0.0
 40
1000.0
 41
1.34
 42
50.0
 43
0.0
 44
0.0
 50
0.0
 51
0.0
 71
0
 72
1000
 73
1
 74
3
 75
0
 76
0
 77
0
 78
0
281
0
 65
0
146
0.0
  0
ENDTAB
  0
TABLE
  2
LTYPE
  5
2
330
0
100
AcDbSymbolTable
 70
3
  0
LTYPE
  5
24
330
2
100
AcDbSymbolTableRecord
100
AcDbLinetypeTableRecord
  2
ByBlock
 70
0
  3

 72
65
 73
0
 40
0.0
  0
LTYPE
  5
25
330
2
100
AcDbSymbolTableRecord
100
AcDbLinetypeTableRecord
  2
ByLayer
 70
0
  3

 72
65
 73
0
 40
0.0
  0
LTYPE
  5
26
330
2
100
AcDbSymbolTableRecord
100
AcDbLinetypeTableRecord
  2
Continuous
 70
0
  3

 72
65
 73
0
 40
0.0
  0
ENDTAB
  0
TABLE
  2
LAYER
  5
1
330
0
100
AcDbSymbolTable
 70
2
  0
LAYER
  5
27
330
1
100
AcDbSymbolTableRecord
100
AcDbLayerTableRecord
  2
0
 70
0
 62
7
  6
Continuous
370
-3
390
13
347
21
  0
LAYER
  5
28
330
1
100
AcDbSymbolTableRecord
100
AcDbLayerTableRecord
  2
Defpoints
 70
0
 62
7
  6
Continuous
290
0
370
-3
390
13
347
21
  0
ENDTAB
  0
TABLE
  2
STYLE
  5
5
330
0
100
AcDbSymbolTable
 70
1
  0
STYLE
  5
29
330
5
100
AcDbSymbolTableRecord
100
AcDbTextStyleTableRecord
  2
Standard
 70
0
 40
0.0
 41
1.0
 50
0.0
 71
0
 42
2.5
  3
txt
  4

  0
ENDTAB
  0
TABLE
  2
VIEW
  5
7
330
0
100
AcDbSymbolTable
 70
0
  0
ENDTAB
  0
TABLE
  2
UCS
  5
6
330
0
100
AcDbSymbolTable
 70
0
  0
ENDTAB
  0
TABLE
  2
APPID
  5
3
330
0
100
AcDbSymbolTable
 70
3
  0
APPID
  5
2A
330
3
100
AcDbSymbolTableRecord
100
AcDbRegAppTableRecord
  2
ACAD
 70
0
  0
APPID
  5
3B
330
3
100
AcDbSymbolTableRecord
100
AcDbRegAppTableRecord
  2
HATCHBACKGROUNDCOLOR
 70
0
  0
APPID
  5
3C
330
3
100
AcDbSymbolTableRecord
100
AcDbRegAppTableRecord
  2
EZDXF
 70
0
  0
ENDTAB
  0
TABLE
  2
DIMSTYLE
  5
4
330
0
100
AcDbSymbolTable
 70
1
100
AcDbDimStyleTable
  0
DIMSTYLE
105
2B
330
4
100
AcDbSymbolTableRecord
100
AcDbDimStyleTableRecord
  2
Standard
 70
0
 40
1.0
 41
2.5
 42
0.625
 43
3.75
 44
1.25
 45
0.0
 46
0.0
 47
0.0
 48
0.0
 49
2.5
140
2.5
141
2.5
142
0.0
143
0.03937007874
144
1.0
145
0.0
146
1.0
147
0.625
148
0.0
 69
0
 70
0
 71
0
 72
0
 73
0
 74
0
 75
0
 76
0
 77
1
 78
8
 79
3
170
0
171
3
172
1
173
0
174
0
175
0
176
0
177
0
178
0
179
2
271
2
272
2
273
2
274
3
275
0
276
0
277
2
278
44
279
0
280
0
281
0
282
0
283
0
284
8
285
0
286
0
288
0
289
3
290
0
371
-2
372
-2
  0
ENDTAB
  0
TABLE
  2
BLOCK_RECORD
  5
9
330
0
100
AcDbSymbolTable
 70
2
  0
BLOCK_RECORD
  5
17
330
9
100
AcDbSymbolTableRecord
100
AcDbBlockTableRecord
  2
*Model_Space
340
1A
 70
0
280
1
281
0
  0
BLOCK_RECORD
  5
1B
330
9
100
AcDbSymbolTableRecord
100
AcDbBlockTableRecord
  2
*Paper_Space
340
1E
 70
0
280
1
281
0
  0
ENDTAB
  0
ENDSEC
  0
SECTION
  2
BLOCKS
  0
BLOCK
  5
18
330
17
100
AcDbEntity
  8
0
100
AcDbBlockBegin
  2
*Model_Space
 70
0
 10
0.0
 20
0.0
 30
0.0
  3
*Model_Space
  1

  0
ENDBLK
  5
19
330
17
100
AcDbEntity
  8
0
100
AcDbBlockEnd
  0
BLOCK
  5
1C
330
1B
100
AcDbEntity
  8
0
100
AcDbBlockBegin
  2
*Paper_Space
 70
0
 10
0.0
 20
0.0
 30
0.0
  3
*Paper_Space
  1

  0
ENDBLK
  5
1D
330
1B
100
AcDbEntity
  8
0
100
AcDbBlockEnd
  0
ENDSEC
  0
SECTION
  2
ENTITIES
  0
LWPOLYLINE
  5
2F
330
17
100
AcDbEntity
  8
0
100
AcDbPolyline
 90
49
 70
1
 10
284.759146
 20
-89.742518
 10
284.754574
 20
-89.82278199999999
 10
284.74238199999996
 20
-89.900506
 10
284.72256999999996
 20
-89.97568999999999
 10
284.6959
 20
-90.04757199999999
 10
284.66262599999993
 20
-90.115898
 10
284.623002
 20
-90.180414
 10
284.57753599999995
 20
-90.24061200000001
 10
284.5267359999999
 20
-90.296238
 10
284.4708559999999
 20
-90.34678400000001
 10
284.4104039999999
 20
-90.39174200000001
 10
284.3456339999999
 20
-90.43085800000001
 10
284.2770539999999
 20
-90.46387800000001
 10
284.20491799999985
 20
-90.49004000000001
 10
284.12973399999987
 20
-90.50934400000001
 10
284.05175599999984
 20
-90.52128200000003
 10
283.97149199999984
 20
-90.52534600000003
 10
283.97149199999984
 20
-94.95536000000003
 10
294.9117799999998
 20
-94.94951800000001
 10
295.02353999999985
 20
-94.93250000000002
 10
295.1314899999998
 20
-94.90481400000002
 10
295.2348679999998
 20
-94.86696800000001
 10
295.33341999999976
 20
-94.81947000000002
 10
295.42638399999976
 20
-94.76308200000003
 10
295.51299799999975
 20
-94.69831200000003
 10
295.59300799999977
 20
-94.62566800000002
 10
295.6656519999998
 20
-94.54565800000002
 10
295.7304219999998
 20
-94.45904400000002
 10
295.7868099999998
 20
-94.36608000000003
 10
295.8343079999998
 20
-94.26752800000003
 10
295.87215399999974
 20
-94.16415000000003
 10
295.8998399999997
 20
-94.05620000000003
 10
295.9168579999997
 20
-93.94444000000003
 10
295.9226999999997
 20
-87.18524600000003
 10
287.0687679999997
 20
-87.19845400000004
 10
286.8142599999997
 20
-87.23706200000004
 10
286.5686419999997
 20
-87.30005400000003
 10
286.33318399999973
 20
-87.38590600000005
 10
286.1089019999997
 20
-87.49334800000004
 10
285.8973199999997
 20
-87.62136400000004
 10
285.6997079999997
 20
-87.76843000000005
 10
285.51733599999966
 20
-87.93327600000005
 10
285.35121999999967
 20
-88.11488600000004
 10
285.2031379999996
 20
-88.31173600000004
 10
285.07385199999965
 20
-88.52255600000004
 10
284.9651399999996
 20
-88.74607600000003
 10
284.8780179999996
 20
-88.98128000000003
 10
284.8137559999996
 20
-89.22664400000004
 10
284.77362399999964
 20
-89.48089800000002
  0
LWPOLYLINE
  5
30
330
17
100
AcDbEntity
  8
0
100
AcDbPolyline
 90
69
 70
1
 10
224.38156799999965
 20
-91.24924600000003
 10
224.03333399999966
 20
-91.26372400000002
 10
223.69094199999967
 20
-91.30639600000002
 10
223.35616999999965
 20
-91.37624600000002
 10
223.03054199999966
 20
-91.47225800000002
 10
222.71558199999964
 20
-91.59367000000002
 10
222.41255999999964
 20
-91.73921200000001
 10
222.12325399999966
 20
-91.90812200000002
 10
221.84918799999966
 20
-92.09913000000002
 10
221.59188599999965
 20
-92.31147400000003
 10
221.35287199999965
 20
-92.54413800000002
 10
221.13341599999964
 20
-92.79610600000002
 10
220.93529599999965
 20
-93.06636200000004
 10
220.76003599999964
 20
-93.35414400000003
 10
220.6091599999996
 20
-93.65818200000002
 10
220.4839379999996
 20
-93.97771400000002
 10
220.3071539999996
 20
-94.68561200000002
 10
221.6576719999996
 20
-94.68789800000002
 10
221.6833259999996
 20
-94.69247000000001
 10
221.70237599999962
 20
-94.69780400000002
 10
221.7092339999996
 20
-94.70059800000003
 10
221.71431399999963
 20
-94.70364600000003
 10
221.7173619999996
 20
-94.70694800000003
 10
221.7183779999996
 20
-94.71025000000002
 10
221.7178699999996
 20
-94.71482200000001
 10
221.71609199999963
 20
-94.72117200000001
 10
220.05975799999965
 20
-97.55758999999999
 10
220.05543999999963
 20
-97.568004
 10
217.16415799999962
 20
-108.43539399999999
 10
217.08744999999962
 20
-108.63148199999999
 10
216.99727999999962
 20
-108.82121999999998
 10
216.8939019999996
 20
-109.00384599999998
 10
216.7775699999996
 20
-109.17859799999998
 10
216.64904599999963
 20
-109.34471399999998
 10
216.50858399999962
 20
-109.50168599999998
 10
215.52915999999962
 20
-110.40719599999998
 10
215.64904799999962
 20
-110.38433599999999
 10
215.96857999999963
 20
-110.34877599999999
 10
216.42730399999962
 20
-110.351062
 10
216.69019399999962
 20
-110.38204999999999
 10
216.96527599999962
 20
-110.441232
 10
217.2449299999996
 20
-110.534958
 10
217.52153599999963
 20
-110.669578
 10
217.65640999999962
 20
-110.75416000000001
 10
217.78772799999962
 20
-110.85118800000001
 10
217.91447399999964
 20
-110.961678
 10
218.03588599999964
 20
-111.086138
 10
218.15094799999963
 20
-111.22558400000001
 10
218.2586439999996
 20
-111.380778
 10
218.3579579999996
 20
-111.552482
 10
218.4481279999996
 20
-111.74145800000001
 10
218.52813799999961
 20
-111.948468
 10
218.65412199999963
 20
-112.419638
 10
218.69806399999962
 20
-112.68532200000001
 10
220.38487799999962
 20
-107.372404
 10
220.6767239999996
 20
-106.652822
 10
221.0234339999996
 20
-105.97388
 10
221.42957999999962
 20
-105.34268999999999
 10
221.89947999999964
 20
-104.76611
 10
222.43719799999963
 20
-104.250998
 10
223.0470519999996
 20
-103.80446599999999
 10
223.7336139999996
 20
-103.433626
 10
224.54031799999962
 20
-103.10876
 10
225.45014599999962
 20
-102.849934
 10
225.9286819999996
 20
-102.76484400000001
 10
226.41534599999963
 20
-102.719886
 10
226.90378799999962
 20
-102.722934
 10
227.38816599999964
 20
-102.781862
 10
230.53268599999964
 20
-91.24924600000001
  0
LWPOLYLINE
  5
31
330
17
100
AcDbEntity
  8
0
100
AcDbPolyline
 90
62
 70
1
 10
231.90530199999964
 20
-92.640912
 10
229.01960799999964
 20
-102.93375400000001
 10
252.32664799999964
 20
-102.927912
 10
252.41961199999963
 20
-102.91064
 10
252.50901999999962
 20
-102.88244600000002
 10
252.59410999999963
 20
-102.84383800000002
 10
252.67386599999963
 20
-102.79532400000002
 10
252.74752599999962
 20
-102.73741200000002
 10
252.81432799999962
 20
-102.67035600000001
 10
253.36093599999964
 20
-101.97719000000002
 10
253.71297999999962
 20
-101.61625600000002
 10
254.13817599999962
 20
-101.25125800000002
 10
254.63728599999962
 20
-100.90531000000001
 10
255.21081799999965
 20
-100.601526
 10
255.52577799999963
 20
-100.47274800000001
 10
255.85978799999967
 20
-100.36302
 10
256.21284799999967
 20
-100.27538999999999
 10
256.5849579999997
 20
-100.21265199999999
 10
255.16027199999965
 20
-99.28351999999998
 10
255.12420399999965
 20
-99.25380199999998
 10
255.09118399999963
 20
-99.22205199999998
 10
255.06095799999963
 20
-99.18852399999999
 10
255.0332719999996
 20
-99.15296399999998
 10
254.9860279999996
 20
-99.077018
 10
254.9489439999996
 20
-98.99522999999999
 10
254.92151199999964
 20
-98.908362
 10
254.90322399999962
 20
-98.81742999999999
 10
254.89357199999964
 20
-98.723196
 10
254.89179399999963
 20
-98.091752
 10
257.43941399999966
 20
-97.54235
 10
282.72943199999963
 20
-97.36099399999999
 10
282.80639399999967
 20
-97.34931
 10
282.88081599999964
 20
-97.33026
 10
282.95218999999963
 20
-97.30435200000001
 10
283.02026199999966
 20
-97.27209400000001
 10
283.08452399999965
 20
-97.23374
 10
283.14472199999966
 20
-97.18954400000001
 10
283.2003479999997
 20
-97.14001400000001
 10
283.25114799999966
 20
-97.08540400000001
 10
283.2966139999997
 20
-97.02622200000002
 10
283.3364919999997
 20
-96.96272200000001
 10
283.37027399999965
 20
-96.89541200000002
 10
283.3977059999997
 20
-96.82454600000001
 10
283.41827999999964
 20
-96.75063200000002
 10
283.43174199999964
 20
-96.67392400000001
 10
283.4375839999997
 20
-96.59493000000002
 10
283.4375839999997
 20
-91.24848400000002
 10
233.62284999999966
 20
-91.25508800000003
 10
233.46511599999965
 20
-91.27439200000003
 10
233.31093799999965
 20
-91.30614200000004
 10
233.16107799999966
 20
-91.34983000000004
 10
233.01578999999964
 20
-91.40494800000003
 10
232.87608999999966
 20
-91.47098800000003
 10
232.74223199999966
 20
-91.54769600000004
 10
232.61497799999967
 20
-91.63456400000004
 10
232.49483599999968
 20
-91.73108400000004
 10
232.38256799999968
 20
-91.83674800000003
 10
232.27868199999966
 20
-91.95130200000004
 10
232.18368599999965
 20
-92.07423800000004
 10
232.09834199999966
 20
-92.20504800000003
 10
232.02315799999965
 20
-92.34322400000002
 10
231.95889599999964
 20
-92.48851200000003
  0
LWPOLYLINE
  5
32
330
17
100
AcDbEntity
  8
0
100
AcDbPolyline
 90
64
 70
1
 10
231.70083199999965
 20
-101.18902800000004
 10
231.55325799999966
 20
-101.18166200000003
 10
231.41000199999965
 20
-101.15981800000003
 10
231.27182599999966
 20
-101.12425800000003
 10
231.13923799999964
 20
-101.07574400000004
 10
231.01325399999965
 20
-101.01503800000005
 10
230.89438199999967
 20
-100.94290200000005
 10
230.78338399999967
 20
-100.85984400000005
 10
230.68102199999964
 20
-100.76662600000004
 10
230.58780399999966
 20
-100.66426400000003
 10
230.50474599999967
 20
-100.55326600000004
 10
230.43235599999966
 20
-100.43439400000003
 10
230.37164999999968
 20
-100.30841000000004
 10
230.32313599999966
 20
-100.17582200000004
 10
230.28757599999966
 20
-100.03764600000004
 10
230.26573199999964
 20
-99.89439000000003
 10
230.25836599999965
 20
-99.74681600000004
 10
230.26573199999964
 20
-99.59924200000003
 10
230.28757599999966
 20
-99.45598600000002
 10
230.32313599999966
 20
-99.31781000000002
 10
230.37164999999968
 20
-99.18522200000002
 10
230.43235599999966
 20
-99.05923800000004
 10
230.50474599999967
 20
-98.94036600000003
 10
230.58780399999966
 20
-98.82936800000003
 10
230.68102199999964
 20
-98.72700600000002
 10
230.78338399999967
 20
-98.63378800000001
 10
230.89438199999967
 20
-98.55073000000002
 10
231.01325399999965
 20
-98.47859400000002
 10
231.13923799999964
 20
-98.41788800000002
 10
231.27182599999966
 20
-98.36937400000004
 10
231.41000199999965
 20
-98.33381400000003
 10
231.55325799999966
 20
-98.31197000000003
 10
231.70083199999965
 20
-98.30460400000003
 10
231.84840599999964
 20
-98.31197000000003
 10
231.99166199999965
 20
-98.33381400000003
 10
232.12983799999964
 20
-98.36937400000004
 10
232.26242599999966
 20
-98.41788800000002
 10
232.38840999999965
 20
-98.47859400000002
 10
232.50728199999963
 20
-98.55073000000002
 10
232.61827999999963
 20
-98.63378800000001
 10
232.72064199999966
 20
-98.72700600000002
 10
232.81385999999964
 20
-98.82936800000003
 10
232.89691799999963
 20
-98.94036600000003
 10
232.96905399999963
 20
-99.05923800000004
 10
233.02975999999964
 20
-99.18522200000002
 10
233.07827399999965
 20
-99.31781000000002
 10
233.11383399999966
 20
-99.45598600000002
 10
233.13567799999964
 20
-99.59924200000003
 10
233.14304399999966
 20
-99.74681600000004
 10
233.13567799999964
 20
-99.89439000000003
 10
233.11383399999966
 20
-100.03764600000004
 10
233.07827399999965
 20
-100.17582200000004
 10
233.02975999999964
 20
-100.30841000000004
 10
232.96905399999963
 20
-100.43439400000003
 10
232.89691799999963
 20
-100.55326600000004
 10
232.81385999999964
 20
-100.66426400000003
 10
232.72064199999966
 20
-100.76662600000004
 10
232.61827999999963
 20
-100.85984400000005
 10
232.50728199999963
 20
-100.94290200000005
 10
232.38840999999965
 20
-101.01503800000005
 10
232.26242599999966
 20
-101.07574400000004
 10
232.12983799999964
 20
-101.12425800000003
 10
231.99166199999965
 20
-101.15981800000003
 10
231.84840599999964
 20
-101.18166200000003
  0
LWPOLYLINE
  5
33
330
17
100
AcDbEntity
  8
0
100
AcDbPolyline
 90
66
 70
1
 10
189.58940999999965
 20
-94.86341200000004
 10
189.41237199999964
 20
-94.86290400000003
 10
189.23812799999965
 20
-94.87662000000002
 10
189.06718599999962
 20
-94.90430600000002
 10
188.90056199999964
 20
-94.94545400000001
 10
188.73876399999966
 20
-94.99955600000001
 10
188.58255399999967
 20
-95.06610400000002
 10
188.43243999999967
 20
-95.14459000000002
 10
188.28918399999966
 20
-95.23476000000002
 10
188.15354799999966
 20
-95.33585200000003
 10
188.02603999999968
 20
-95.44761200000003
 10
187.90767599999967
 20
-95.56953200000004
 10
187.7987099999997
 20
-95.70110400000003
 10
187.70015799999967
 20
-95.84182000000003
 10
187.61252799999968
 20
-95.99117200000003
 10
187.53658199999967
 20
-96.14865200000003
 10
187.47308199999966
 20
-96.31400600000003
 10
187.42101199999968
 20
-96.49180600000004
 10
187.38392799999968
 20
-96.67113000000003
 10
187.36182999999969
 20
-96.85121600000004
 10
187.35420999999968
 20
-97.03130200000004
 10
187.3610679999997
 20
-97.21037200000004
 10
187.3818959999997
 20
-97.38766400000003
 10
187.4166939999997
 20
-97.56216200000003
 10
187.46520799999968
 20
-97.73310400000004
 10
187.5269299999997
 20
-97.89947400000003
 10
187.6018599999997
 20
-98.06025600000002
 10
187.6897439999997
 20
-98.21494200000002
 10
187.79032799999968
 20
-98.36226200000002
 10
187.90335799999968
 20
-98.50170800000001
 10
188.02857999999972
 20
-98.63201
 10
189.8022619999997
 20
-100.024184
 10
190.4491999999997
 20
-100.651056
 10
191.5624819999997
 20
-101.97998400000002
 10
192.4537679999997
 20
-103.38689000000001
 10
193.14464799999973
 20
-104.84535800000002
 10
193.65747399999972
 20
-106.32846400000001
 10
194.01383599999974
 20
-107.80979200000002
 10
194.23608599999972
 20
-109.26292600000001
 10
194.36511799999974
 20
-111.97717
 10
194.2203379999997
 20
-114.25809000000001
 10
193.8113979999997
 20
-116.668296
 10
193.80250799999973
 20
-116.70284000000001
 10
196.18096399999973
 20
-116.39346800000001
 10
204.75397199999972
 20
-116.32742800000001
 10
205.10068199999972
 20
-116.29923400000001
 10
205.44053399999973
 20
-116.24411600000002
 10
205.77225799999974
 20
-116.16309000000001
 10
206.09458399999974
 20
-116.05691800000001
 10
206.40649599999972
 20
-115.92661600000001
 10
206.7069779999997
 20
-115.772946
 10
206.99450599999972
 20
-115.59692400000002
 10
207.2683179999997
 20
-115.39931200000001
 10
207.5268899999997
 20
-115.18112600000002
 10
207.76920599999968
 20
-114.94338200000001
 10
207.9939959999997
 20
-114.68684200000003
 10
208.20024399999969
 20
-114.41252200000002
 10
208.3866799999997
 20
-114.12118400000003
 10
208.55203399999968
 20
-113.81384400000003
 10
209.0846719999997
 20
-112.58905600000003
 10
209.9454779999997
 20
-110.96040800000004
 10
210.8649579999997
 20
-109.56645600000004
 10
211.78215199999968
 20
-108.40618400000004
 10
213.3678739999997
 20
-106.78490200000005
 10
214.2583979999997
 20
-106.06303400000004
 10
217.0120119999997
 20
-94.78594200000005
  0
LWPOLYLINE
  5
34
330
17
100
AcDbEntity
  8
0
100
AcDbPolyline
 90
83
 70
1
 10
208.97316599999974
 20
-117.63044800000003
 10
198.17156199999974
 20
-117.22887400000003
 10
197.29830999999973
 20
-117.29059600000004
 10
196.43547199999972
 20
-117.41658000000002
 10
195.58584199999973
 20
-117.60504800000002
 10
194.7522139999997
 20
-117.85473000000003
 10
193.93712799999972
 20
-118.16384800000003
 10
193.1436319999997
 20
-118.53087800000003
 10
191.63207799999972
 20
-119.43232400000002
 10
190.23964999999973
 20
-120.54636800000003
 10
188.98895399999972
 20
-121.86056400000002
 10
187.90183399999972
 20
-123.36246600000003
 10
187.00064199999974
 20
-125.03937400000002
 10
182.23915799999975
 20
-136.84656400000003
 10
179.67299599999976
 20
-145.61159600000002
 10
178.64912199999975
 20
-151.41854400000003
 10
178.51145399999976
 20
-153.23870800000003
 10
178.51450199999974
 20
-154.35072000000005
 10
178.54040999999972
 20
-154.57017600000006
 10
178.59349599999973
 20
-154.78328200000007
 10
178.63108799999972
 20
-154.88615200000007
 10
178.67655399999973
 20
-154.98572000000007
 10
178.73014799999973
 20
-155.08122400000008
 10
178.79212399999972
 20
-155.17215600000006
 10
178.8535919999997
 20
-155.24861000000007
 10
178.9170919999997
 20
-155.31693600000008
 10
178.98236999999972
 20
-155.37738800000008
 10
179.0489179999997
 20
-155.43047400000006
 10
179.11673599999972
 20
-155.4764480000001
 10
179.1855699999997
 20
-155.51556400000007
 10
179.2551659999997
 20
-155.54833000000008
 10
179.3250159999997
 20
-155.5752540000001
 10
179.4652239999997
 20
-155.61284600000008
 10
179.6039079999997
 20
-155.63138800000007
 10
179.7392899999997
 20
-155.6336740000001
 10
179.8690839999997
 20
-155.62275200000008
 10
179.9912579999997
 20
-155.60192400000008
 10
180.2048719999997
 20
-155.54198000000008
 10
180.3633679999997
 20
-155.4779720000001
 10
180.7875479999997
 20
-155.2529280000001
 10
181.5490399999997
 20
-154.9445720000001
 10
182.44007199999973
 20
-154.6877780000001
 10
184.52668199999974
 20
-154.3123660000001
 10
189.32499599999971
 20
-153.9986760000001
 10
196.4961779999997
 20
-154.18282600000012
 10
196.7892939999997
 20
-154.22067200000012
 10
197.0760599999997
 20
-154.2879820000001
 10
197.3546979999997
 20
-154.38399400000011
 10
198.2937359999997
 20
-154.84805200000014
 10
198.6414619999997
 20
-154.99054600000014
 10
198.98486999999972
 20
-155.08325600000015
 10
199.1517479999997
 20
-155.10865600000014
 10
199.31405399999971
 20
-155.11907000000016
 10
199.47026399999973
 20
-155.11348200000015
 10
199.6193619999997
 20
-155.09113000000016
 10
199.7603319999997
 20
-155.05125200000015
 10
199.82713399999972
 20
-155.02432800000014
 10
199.89164999999971
 20
-154.99283200000013
 10
199.95337199999975
 20
-154.95651000000012
 10
200.01229999999973
 20
-154.91510800000012
 10
200.06817999999973
 20
-154.86862600000012
 10
200.12101199999972
 20
-154.81706400000013
 10
200.17054199999973
 20
-154.76016800000014
 10
200.21651599999976
 20
-154.69793800000014
 10
200.25893399999975
 20
-154.63012000000012
 10
200.29754199999977
 20
-154.5567140000001
 10
200.36307399999978
 20
-154.39288400000012
 10
209.6886839999998
 20
-118.58371000000012
 10
209.7016379999998
 20
-118.49430200000013
 10
209.7044319999998
 20
-118.40591000000012
 10
209.6973199999998
 20
-118.31929600000012
 10
209.6810639999998
 20
-118.23496800000012
 10
209.6559179999998
 20
-118.15343400000012
 10
209.6223899999998
 20
-118.07545600000012
 10
209.5809879999998
 20
-118.00154200000011
 10
209.53196599999978
 20
-117.93245400000012
 10
209.47608599999978
 20
-117.86895400000012
 10
209.4136019999998
 20
-117.81129600000013
 10
209.3450219999998
 20
-117.76049600000012
 10
209.2708539999998
 20
-117.71680800000011
 10
209.1913519999998
 20
-117.68124800000012
 10
209.1070239999998
 20
-117.65407000000012
 10
209.01837799999979
 20
-117.6360360000001
  0
LWPOLYLINE
  5
35
330
17
100
AcDbEntity
  8
0
100
AcDbPolyline
 90
18
 70
1
 10
193.33997399999978
 20
-78.13903600000009
 10
190.59397999999976
 20
-78.1443700000001
 10
190.45605799999976
 20
-78.1603720000001
 10
190.32092999999975
 20
-78.18678800000009
 10
190.18910399999976
 20
-78.22311000000008
 10
190.06108799999976
 20
-78.26908400000008
 10
189.93738999999977
 20
-78.32445600000008
 10
189.81851799999978
 20
-78.38871800000008
 10
189.70497999999978
 20
-78.46161600000008
 10
189.5970299999998
 20
-78.54264200000007
 10
189.4954299999998
 20
-78.63179600000008
 10
189.4004339999998
 20
-78.72857000000008
 10
189.31280399999977
 20
-78.83245600000006
 10
189.23279399999976
 20
-78.94320000000006
 10
189.16091199999977
 20
-79.06054800000005
 10
189.09766599999975
 20
-79.18424600000006
 10
184.87364599999975
 20
-90.52458400000006
 10
188.77279999999976
 20
-90.52458400000006
  0
LWPOLYLINE
  5
36
330
17
100
AcDbEntity
  8
0
100
AcDbPolyline
 90
4
 70
1
 10
229.31500999999975
 20
-78.28000600000007
 10
222.37903199999974
 20
-78.28000600000007
 10
221.66986399999973
 20
-80.34096200000006
 10
229.31500999999975
 20
-80.34096200000006
  0
LWPOLYLINE
  5
37
330
17
100
AcDbEntity
  8
0
100
AcDbPolyline
 90
63
 70
1
 10
294.9447999999997
 20
-78.04708800000007
 10
294.9458159999997
 20
-77.86954200000007
 10
246.8834279999997
 20
-77.60639800000007
 10
246.8641239999997
 20
-81.10626400000007
 10
246.8074819999997
 20
-81.47507200000007
 10
246.71553399999974
 20
-81.83092600000006
 10
246.59005799999971
 20
-82.17179400000006
 10
246.4330859999997
 20
-82.49589800000007
 10
246.2463959999997
 20
-82.80146000000006
 10
246.0317659999997
 20
-83.08670200000006
 10
245.79122799999968
 20
-83.34959200000006
 10
245.5268139999997
 20
-83.58835200000007
 10
245.24004799999966
 20
-83.80095000000006
 10
244.93321599999967
 20
-83.98560800000006
 10
244.6078419999997
 20
-84.14029400000005
 10
244.2659579999997
 20
-84.26323000000005
 10
243.90959599999968
 20
-84.35263800000004
 10
243.5405339999997
 20
-84.40674000000004
 10
220.24085999999969
 20
-84.26577000000005
 10
217.96882999999968
 20
-90.52509200000004
 10
260.5631059999997
 20
-90.52509200000004
 10
262.7911939999997
 20
-84.51824600000003
 10
252.51638599999967
 20
-84.40572400000003
 10
247.1625739999997
 20
-83.78494800000004
 10
293.0253219999997
 20
-83.69477800000003
 10
291.69436199999967
 20
-84.00338800000003
 10
286.4617079999997
 20
-84.45017400000003
 10
279.1805439999997
 20
-84.44890400000003
 10
276.8876859999997
 20
-90.52509200000004
 10
283.20872999999966
 20
-90.52331400000004
 10
283.2473379999997
 20
-90.51772600000004
 10
283.2846759999997
 20
-90.50883600000003
 10
283.3207439999997
 20
-90.49664400000003
 10
283.3552879999997
 20
-90.48140400000003
 10
283.3883079999997
 20
-90.46311600000003
 10
283.41929599999975
 20
-90.44203400000002
 10
283.44825199999974
 20
-90.41815800000002
 10
283.47492199999976
 20
-90.39199600000002
 10
283.4990519999998
 20
-90.36354800000002
 10
283.52038799999974
 20
-90.33281400000003
 10
283.53892999999977
 20
-90.30004800000002
 10
283.55442399999976
 20
-90.265504
 10
283.5666159999998
 20
-90.22918200000002
 10
283.5752519999998
 20
-90.19133600000002
 10
283.6532299999998
 20
-89.50731400000002
 10
283.7627039999998
 20
-88.94292600000003
 10
283.9029119999998
 20
-88.45346800000002
 10
284.0682659999998
 20
-88.03360600000002
 10
284.2531779999998
 20
-87.67826000000001
 10
284.4518059999998
 20
-87.38184200000002
 10
284.6583079999998
 20
-87.13901800000002
 10
284.8673499999999
 20
-86.94445400000001
 10
285.07308999999987
 20
-86.79281600000002
 10
285.2696859999998
 20
-86.67877000000001
 10
285.4518039999998
 20
-86.59698200000001
 10
285.61360199999984
 20
-86.54211800000002
 10
285.7492379999998
 20
-86.50859000000001
 10
285.9196719999999
 20
-86.48496800000001
 10
296.5035979999999
 20
-86.39987800000002
 10
296.74616799999984
 20
-77.87741600000001
 10
296.52493399999986
 20
-77.95107600000001
 10
296.2874439999999
 20
-78.00416200000002
 10
295.79366799999985
 20
-78.05978800000001
  0
LWPOLYLINE
  5
38
330
17
100
AcDbEntity
  8
0
100
AcDbPolyline
 90
64
 70
1
 10
245.89866999999984
 20
-94.790768
 10
245.88317599999982
 20
-95.099632
 10
245.83745599999983
 20
-95.399606
 10
245.76303399999983
 20
-95.689166
 10
245.66143399999984
 20
-95.96678800000001
 10
245.53417999999985
 20
-96.23094800000001
 10
245.38279599999984
 20
-96.48012200000001
 10
245.20880599999987
 20
-96.71278600000001
 10
245.01373399999986
 20
-96.92741600000001
 10
244.79910399999986
 20
-97.122488
 10
244.56643999999983
 20
-97.29647800000001
 10
244.31726599999985
 20
-97.447862
 10
244.05310599999984
 20
-97.575116
 10
243.77548399999986
 20
-97.676716
 10
243.48592399999987
 20
-97.751138
 10
243.18594999999985
 20
-97.796858
 10
242.87708599999985
 20
-97.81235199999999
 10
242.56822199999985
 20
-97.796858
 10
242.26824799999983
 20
-97.751138
 10
241.97868799999983
 20
-97.676716
 10
241.70106599999986
 20
-97.575116
 10
241.43690599999985
 20
-97.447862
 10
241.18773199999987
 20
-97.29647800000001
 10
240.95506799999984
 20
-97.122488
 10
240.74043799999984
 20
-96.92741600000001
 10
240.54536599999983
 20
-96.71278600000001
 10
240.37137599999986
 20
-96.48012200000001
 10
240.21999199999985
 20
-96.23094800000001
 10
240.09273799999985
 20
-95.96678800000001
 10
239.99113799999986
 20
-95.689166
 10
239.91671599999987
 20
-95.399606
 10
239.87099599999988
 20
-95.099632
 10
239.85550199999986
 20
-94.790768
 10
239.87099599999988
 20
-94.481904
 10
239.91671599999987
 20
-94.18193000000001
 10
239.99113799999986
 20
-93.89237000000001
 10
240.09273799999985
 20
-93.614748
 10
240.21999199999985
 20
-93.350588
 10
240.37137599999986
 20
-93.101414
 10
240.54536599999983
 20
-92.86875
 10
240.74043799999984
 20
-92.65411999999999
 10
240.95506799999984
 20
-92.459048
 10
241.18773199999987
 20
-92.285058
 10
241.43690599999985
 20
-92.133674
 10
241.70106599999986
 20
-92.00642
 10
241.97868799999983
 20
-91.90482000000002
 10
242.26824799999983
 20
-91.83039800000002
 10
242.56822199999985
 20
-91.78467800000001
 10
242.87708599999985
 20
-91.76918400000001
 10
243.18594999999985
 20
-91.78467800000001
 10
243.48592399999987
 20
-91.83039800000002
 10
243.77548399999986
 20
-91.90482000000002
 10
244.05310599999984
 20
-92.00642
 10
244.31726599999985
 20
-92.133674
 10
244.56643999999983
 20
-92.285058
 10
244.79910399999986
 20
-92.459048
 10
245.01373399999986
 20
-92.65411999999999
 10
245.20880599999987
 20
-92.86875
 10
245.38279599999984
 20
-93.101414
 10
245.53417999999985
 20
-93.350588
 10
245.66143399999984
 20
-93.614748
 10
245.76303399999983
 20
-93.89237000000001
 10
245.83745599999983
 20
-94.18193000000001
 10
245.88317599999982
 20
-94.481904
  0
LWPOLYLINE
  5
39
330
17
100
AcDbEntity
  8
0
100
AcDbPolyline
 90
64
 70
1
 10
204.06207599999982
 20
-112.61191600000001
 10
204.04759799999982
 20
-112.90046000000002
 10
204.0049259999998
 20
-113.18062200000001
 10
203.93532999999982
 20
-113.45087800000003
 10
203.84058799999983
 20
-113.70995800000001
 10
203.72171599999982
 20
-113.95659200000003
 10
203.58049199999982
 20
-114.18925600000001
 10
203.41818599999982
 20
-114.40642600000002
 10
203.23606799999982
 20
-114.60683200000003
 10
203.0356619999998
 20
-114.78895000000001
 10
202.81849199999982
 20
-114.95125600000001
 10
202.5858279999998
 20
-115.09248000000002
 10
202.3391939999998
 20
-115.21135200000002
 10
202.0798599999998
 20
-115.30634800000003
 10
201.8096039999998
 20
-115.37594400000003
 10
201.52944199999982
 20
-115.41861600000003
 10
201.24089799999985
 20
-115.43309400000004
 10
200.95235399999984
 20
-115.41861600000003
 10
200.67219199999985
 20
-115.37594400000003
 10
200.40193599999986
 20
-115.30634800000003
 10
200.14260199999987
 20
-115.21135200000002
 10
199.89596799999987
 20
-115.09248000000002
 10
199.66330399999987
 20
-114.95125600000001
 10
199.44613399999986
 20
-114.78895000000001
 10
199.24572799999987
 20
-114.60683200000003
 10
199.06360999999987
 20
-114.40642600000002
 10
198.90130399999987
 20
-114.18925600000001
 10
198.76007999999985
 20
-113.95659200000003
 10
198.64120799999986
 20
-113.70995800000001
 10
198.54646599999984
 20
-113.45087800000003
 10
198.47686999999985
 20
-113.18062200000001
 10
198.43419799999984
 20
-112.90046000000002
 10
198.41971999999984
 20
-112.61191600000001
 10
198.43419799999984
 20
-112.323372
 10
198.47686999999985
 20
-112.04321
 10
198.54646599999984
 20
-111.772954
 10
198.64120799999986
 20
-111.51361999999999
 10
198.76007999999985
 20
-111.26698599999999
 10
198.90130399999987
 20
-111.03432199999999
 10
199.06360999999987
 20
-110.817152
 10
199.24572799999987
 20
-110.61674599999999
 10
199.44613399999986
 20
-110.434628
 10
199.66330399999987
 20
-110.27232199999999
 10
199.89596799999987
 20
-110.131098
 10
200.14260199999987
 20
-110.012226
 10
200.40193599999986
 20
-109.91722999999999
 10
200.67219199999985
 20
-109.84763399999999
 10
200.95235399999984
 20
-109.80496199999999
 10
201.24089799999985
 20
-109.79048399999998
 10
201.52944199999982
 20
-109.80496199999999
 10
201.8096039999998
 20
-109.84763399999999
 10
202.0798599999998
 20
-109.91722999999999
 10
202.3391939999998
 20
-110.012226
 10
202.5858279999998
 20
-110.131098
 10
202.81849199999982
 20
-110.27232199999999
 10
203.0356619999998
 20
-110.434628
 10
203.23606799999982
 20
-110.61674599999999
 10
203.41818599999982
 20
-110.817152
 10
203.58049199999982
 20
-111.03432199999999
 10
203.72171599999982
 20
-111.26698599999999
 10
203.84058799999983
 20
-111.51361999999999
 10
203.93532999999982
 20
-111.772954
 10
204.0049259999998
 20
-112.04321
 10
204.04759799999982
 20
-112.323372
  0
LWPOLYLINE
  5
3A
330
17
100
AcDbEntity
  8
0
100
AcDbPolyline
 90
64
 70
1
 10
195.09384399999982
 20
-146.44700200000003
 10
195.07936599999982
 20
-146.73554600000003
 10
195.03669399999984
 20
-147.01570800000002
 10
194.96709799999982
 20
-147.285964
 10
194.8721019999998
 20
-147.545044
 10
194.75322999999983
 20
-147.791678
 10
194.6120059999998
 20
-148.02434200000002
 10
194.4496999999998
 20
-148.241512
 10
194.26758199999983
 20
-148.44191800000002
 10
194.06717599999982
 20
-148.62403600000002
 10
193.8500059999998
 20
-148.78634200000002
 10
193.6173419999998
 20
-148.927566
 10
193.3707079999998
 20
-149.046438
 10
193.1113739999998
 20
-149.141434
 10
192.84111799999982
 20
-149.21103000000002
 10
192.56095599999983
 20
-149.253702
 10
192.27241199999983
 20
-149.26818000000003
 10
191.98386799999986
 20
-149.253702
 10
191.70370599999987
 20
-149.21103000000002
 10
191.43344999999988
 20
-149.141434
 10
191.17411599999988
 20
-149.046438
 10
190.92748199999988
 20
-148.927566
 10
190.69481799999988
 20
-148.78634200000002
 10
190.47764799999987
 20
-148.62403600000002
 10
190.27724199999986
 20
-148.44191800000002
 10
190.09512399999988
 20
-148.241512
 10
189.93281799999988
 20
-148.02434200000002
 10
189.79159399999986
 20
-147.791678
 10
189.67272199999988
 20
-147.545044
 10
189.57797999999985
 20
-147.285964
 10
189.50838399999986
 20
-147.01570800000002
 10
189.46571199999985
 20
-146.73554600000003
 10
189.45123399999986
 20
-146.44700200000003
 10
189.46571199999985
 20
-146.15845800000002
 10
189.50838399999986
 20
-145.87829600000003
 10
189.57797999999985
 20
-145.60804000000005
 10
189.67272199999988
 20
-145.34870600000008
 10
189.79159399999986
 20
-145.10207200000008
 10
189.93281799999988
 20
-144.86940800000005
 10
190.09512399999988
 20
-144.65223800000004
 10
190.27724199999986
 20
-144.45183200000005
 10
190.47764799999987
 20
-144.26971400000005
 10
190.69481799999988
 20
-144.10740800000005
 10
190.92748199999988
 20
-143.96618400000006
 10
191.17411599999988
 20
-143.84731200000004
 10
191.43344999999988
 20
-143.75257000000005
 10
191.70370599999987
 20
-143.68297400000003
 10
191.98386799999986
 20
-143.64030200000005
 10
192.27241199999983
 20
-143.62582400000002
 10
192.56095599999983
 20
-143.64030200000005
 10
192.84111799999982
 20
-143.68297400000003
 10
193.1113739999998
 20
-143.75257000000005
 10
193.3707079999998
 20
-143.84731200000004
 10
193.6173419999998
 20
-143.96618400000006
 10
193.8500059999998
 20
-144.10740800000005
 10
194.06717599999982
 20
-144.26971400000005
 10
194.26758199999983
 20
-144.45183200000005
 10
194.4496999999998
 20
-144.65223800000004
 10
194.6120059999998
 20
-144.86940800000005
 10
194.75322999999983
 20
-145.10207200000008
 10
194.8721019999998
 20
-145.34870600000008
 10
194.96709799999982
 20
-145.60804000000005
 10
195.03669399999984
 20
-145.87829600000003
 10
195.07936599999982
 20
-146.15845800000002
  0
ENDSEC
  0
SECTION
  2
OBJECTS
  0
DICTIONARY
  5
A
330
0
100
AcDbDictionary
281
1
  3
ACAD_COLOR
350
B
  3
ACAD_GROUP
350
C
  3
ACAD_LAYOUT
350
D
  3
ACAD_MATERIAL
350
E
  3
ACAD_MLEADERSTYLE
350
F
  3
ACAD_MLINESTYLE
350
10
  3
ACAD_PLOTSETTINGS
350
11
  3
ACAD_PLOTSTYLENAME
350
12
  3
ACAD_SCALELIST
350
14
  3
ACAD_TABLESTYLE
350
15
  3
ACAD_VISUALSTYLE
350
16
  3
EZDXF_META
350
2D
  0
DICTIONARY
  5
B
330
A
100
AcDbDictionary
281
1
  0
DICTIONARY
  5
C
330
A
100
AcDbDictionary
281
1
  0
DICTIONARY
  5
D
330
A
100
AcDbDictionary
281
1
  3
Model
350
1A
  3
Layout1
350
1E
  0
DICTIONARY
  5
E
330
A
100
AcDbDictionary
281
1
  3
ByBlock
350
1F
  3
ByLayer
350
20
  3
Global
350
21
  0
DICTIONARY
  5
F
330
A
100
AcDbDictionary
281
1
  3
Standard
350
2C
  0
DICTIONARY
  5
10
330
A
100
AcDbDictionary
281
1
  3
Standard
350
22
  0
DICTIONARY
  5
11
330
A
100
AcDbDictionary
281
1
  0
ACDBDICTIONARYWDFLT
  5
12
330
A
100
AcDbDictionary
281
1
  3
Normal
350
13
100
AcDbDictionaryWithDefault
340
13
  0
ACDBPLACEHOLDER
  5
13
330
12
  0
DICTIONARY
  5
14
330
A
100
AcDbDictionary
281
1
  0
DICTIONARY
  5
15
330
A
100
AcDbDictionary
281
1
  0
DICTIONARY
  5
16
330
A
100
AcDbDictionary
281
1
  0
LAYOUT
  5
1A
330
D
100
AcDbPlotSettings
  1

  4
A3
  6

 40
7.5
 41
20.0
 42
7.5
 43
20.0
 44
420.0
 45
297.0
 46
0.0
 47
0.0
 48
0.0
 49
0.0
140
0.0
141
0.0
142
1.0
143
1.0
 70
1024
 72
1
 73
0
 74
5
  7

 75
16
 76
0
 77
2
 78
300
147
1.0
148
0.0
149
0.0
100
AcDbLayout
  1
Model
 70
1
 71
0
 10
0.0
 20
0.0
 11
420.0
 21
297.0
 12
0.0
 22
0.0
 32
0.0
 14
1e+20
 24
1e+20
 34
1e+20
 15
-1e+20
 25
-1e+20
 35
-1e+20
146
0.0
 13
0.0
 23
0.0
 33
0.0
 16
1.0
 26
0.0
 36
0.0
 17
0.0
 27
1.0
 37
0.0
 76
1
330
17
  0
LAYOUT
  5
1E
330
D
100
AcDbPlotSettings
  1

  4
A3
  6

 40
7.5
 41
20.0
 42
7.5
 43
20.0
 44
420.0
 45
297.0
 46
0.0
 47
0.0
 48
0.0
 49
0.0
140
0.0
141
0.0
142
1.0
143
1.0
 70
0
 72
1
 73
0
 74
5
  7

 75
16
 76
0
 77
2
 78
300
147
1.0
148
0.0
149
0.0
100
AcDbLayout
  1
Layout1
 70
1
 71
1
 10
0.0
 20
0.0
 11
420.0
 21
297.0
 12
0.0
 22
0.0
 32
0.0
 14
1e+20
 24
1e+20
 34
1e+20
 15
-1e+20
 25
-1e+20
 35
-1e+20
146
0.0
 13
0.0
 23
0.0
 33
0.0
 16
1.0
 26
0.0
 36
0.0
 17
0.0
 27
1.0
 37
0.0
 76
1
330
1B
  0
MATERIAL
  5
1F
102
{ACAD_REACTORS
330
E
102
}
330
E
100
AcDbMaterial
  1
ByBlock
  2

 70
0
 40
1.0
 71
1
 41
1.0
 91
-1023410177
 42
1.0
 72
1
  3

 73
1
 74
1
 75
1
 44
0.5
 73
0
 45
1.0
 46
1.0
 77
1
  4

 78
1
 79
1
170
1
 48
1.0
171
1
  6

172
1
173
1
174
1
140
1.0
141
1.0
175
1
  7

176
1
177
1
178
1
143
1.0
179
1
  8

270
1
271
1
272
1
145
1.0
146
1.0
273
1
  9

274
1
275
1
276
1
 42
1.0
 72
1
  3

 73
1
 74
1
 75
1
 94
63
  0
MATERIAL
  5
20
102
{ACAD_REACTORS
330
E
102
}
330
E
100
AcDbMaterial
  1
ByLayer
  2

 70
0
 40
1.0
 71
1
 41
1.0
 91
-1023410177
 42
1.0
 72
1
  3

 73
1
 74
1
 75
1
 44
0.5
 73
0
 45
1.0
 46
1.0
 77
1
  4

 78
1
 79
1
170
1
 48
1.0
171
1
  6

172
1
173
1
174
1
140
1.0
141
1.0
175
1
  7

176
1
177
1
178
1
143
1.0
179
1
  8

270
1
271
1
272
1
145
1.0
146
1.0
273
1
  9

274
1
275
1
276
1
 42
1.0
 72
1
  3

 73
1
 74
1
 75
1
 94
63
  0
MATERIAL
  5
21
102
{ACAD_REACTORS
330
E
102
}
330
E
100
AcDbMaterial
  1
Global
  2

 70
0
 40
1.0
 71
1
 41
1.0
 91
-1023410177
 42
1.0
 72
1
  3

 73
1
 74
1
 75
1
 44
0.5
 73
0
 45
1.0
 46
1.0
 77
1
  4

 78
1
 79
1
170
1
 48
1.0
171
1
  6

172
1
173
1
174
1
140
1.0
141
1.0
175
1
  7

176
1
177
1
178
1
143
1.0
179
1
  8

270
1
271
1
272
1
145
1.0
146
1.0
273
1
  9

274
1
275
1
276
1
 42
1.0
 72
1
  3

 73
1
 74
1
 75
1
 94
63
  0
MLINESTYLE
  5
22
102
{ACAD_REACTORS
330
10
102
}
330
10
100
AcDbMlineStyle
  2
Standard
 70
0
  3

 62
256
 51
90.0
 52
90.0
 71
2
 49
0.5
 62
256
  6
BYLAYER
 49
-0.5
 62
256
  6
BYLAYER
  0
MLEADERSTYLE
  5
2C
102
{ACAD_REACTORS
330
F
102
}
330
F
100
AcDbMLeaderStyle
179
2
170
2
171
1
172
0
 90
2
 40
0.0
 41
0.0
173
1
 91
-1056964608
 92
-2
290
1
 42
2.0
291
1
 43
8.0
  3
Standard
 44
4.0
300

342
29
174
1
175
1
176
0
178
1
 93
-1056964608
 45
4.0
292
0
297
0
 46
4.0
 94
-1056964608
 47
1.0
 49
1.0
140
1.0
294
1
141
0.0
177
0
142
1.0
295
0
296
0
143
3.75
271
0
272
9
273
9
  0
DICTIONARY
  5
2D
330
A
100
AcDbDictionary
280
1
281
1
  3
CREATED_BY_EZDXF
350
2E
  3
WRITTEN_BY_EZDXF
350
3D
  0
DICTIONARYVAR
  5
2E
330
2D
100
DictionaryVariables
280
0
  1
1.4.3 @ 2026-04-12T00:41:30.317685+00:00
  0
DICTIONARYVAR
  5
3D
330
2D
100
DictionaryVariables
280
0
  1
1.4.3 @ 2026-04-12T00:41:30.319432+00:00
  0
ENDSEC
  0
EOF
