  0
SECTION
  2
HEADER
  9
$ACADVER
  1
AC1024
  9
$ACADMAINTVER
 70
6
  9
$DWGCODEPAGE
  3
ANSI_1252
  9
$LASTSAVEDBY
  1
ezdxf
  9
$INSBASE
 10
0.0
 20
0.0
 30
0.0
  9
$EXTMIN
 10
1e+20
 20
1e+20
 30
1e+20
  9
$EXTMAX
 10
-1e+20
 20
-1e+20
 30
-1e+20
  9
$LIMMIN
 10
0.0
 20
0.0
  9
$LIMMAX
 10
420.0
 20
297.0
  9
$ORTHOMODE
 70
0
  9
$REGENMODE
 70
1
  9
$FILLMODE
 70
1
  9
$QTEXTMODE
 70
0
  9
$MIRRTEXT
 70
1
  9
$LTSCALE
 40
1.0
  9
$ATTMODE
 70
1
  9
$TEXTSIZE
 40
2.5
  9
$TRACEWID
 40
1.0
  9
$TEXTSTYLE
  7
Standard
  9
$CLAYER
  8
0
  9
$CELTYPE
  6
ByLayer
  9
$CECOLOR
 62
256
  9
$CELTSCALE
 40
1.0
  9
$DISPSILH
 70
0
  9
$DIMSCALE
 40
1.0
  9
$DIMASZ
 40
2.5
  9
$DIMEXO
 40
0.625
  9
$DIMDLI
 40
3.75
  9
$DIMRND
 40
0.0
  9
$DIMDLE
 40
0.0
  9
$DIMEXE
 40
1.25
  9
$DIMTP
 40
0.0
  9
$DIMTM
 40
0.0
  9
$DIMTXT
 40
2.5
  9
$DIMCEN
 40
2.5
  9
$DIMTSZ
 40
0.0
  9
$DIMTOL
 70
0
  9
$DIMLIM
 70
0
  9
$DIMTIH
 70
0
  9
$DIMTOH
 70
0
  9
$DIMSE1
 70
0
  9
$DIMSE2
 70
0
  9
$DIMTAD
 70
1
  9
$DIMZIN
 70
8
  9
$DIMBLK
  1

  9
$DIMASO
 70
1
  9
$DIMSHO
 70
1
  9
$DIMPOST
  1

  9
$DIMAPOST
  1

  9
$DIMALT
 70
0
  9
$DIMALTD
 70
3
  9
$DIMALTF
 40
0.03937007874
  9
$DIMLFAC
 40
1.0
  9
$DIMTOFL
 70
1
  9
$DIMTVP
 40
0.0
  9
$DIMTIX
 70
0
  9
$DIMSOXD
 70
0
  9
$DIMSAH
 70
0
  9
$DIMBLK1
  1

  9
$DIMBLK2
  1

  9
$DIMSTYLE
  2
ISO-25
  9
$DIMCLRD
 70
0
  9
$DIMCLRE
 70
0
  9
$DIMCLRT
 70
0
  9
$DIMTFAC
 40
1.0
  9
$DIMGAP
 40
0.625
  9
$DIMJUST
 70
0
  9
$DIMSD1
 70
0
  9
$DIMSD2
 70
0
  9
$DIMTOLJ
 70
0
  9
$DIMTZIN
 70
8
  9
$DIMALTZ
 70
0
  9
$DIMALTTZ
 70
0
  9
$DIMUPT
 70
0
  9
$DIMDEC
 70
2
  9
$DIMTDEC
 70
2
  9
$DIMALTU
 70
2
  9
$DIMALTTD
 70
3
  9
$DIMTXSTY
  7
Standard
  9
$DIMAUNIT
 70
0
  9
$DIMADEC
 70
0
  9
$DIMALTRND
 40
0.0
  9
$DIMAZIN
 70
0
  9
$DIMDSEP
 70
44
  9
$DIMATFIT
 70
3
  9
$DIMFRAC
 70
0
  9
$DIMLDRBLK
  1

  9
$DIMLUNIT
 70
2
  9
$DIMLWD
 70
-2
  9
$DIMLWE
 70
-2
  9
$DIMTMOVE
 70
0
  9
$DIMFXL
 40
1.0
  9
$DIMFXLON
 70
0
  9
$DIMJOGANG
 40
0.785398163397
  9
$DIMTFILL
 70
0
  9
$DIMTFILLCLR
 70
0
  9
$DIMARCSYM
 70
0
  9
$DIMLTYPE
  6

  9
$DIMLTEX1
  6

  9
$DIMLTEX2
  6

  9
$DIMTXTDIRECTION
 70
0
  9
$LUNITS
 70
2
  9
$LUPREC
 70
4
  9
$SKETCHINC
 40
1.0
  9
$FILLETRAD
 40
10.0
  9
$AUNITS
 70
0
  9
$AUPREC
 70
2
  9
$MENU
  1
.
  9
$ELEVATION
 40
0.0
  9
$PELEVATION
 40
0.0
  9
$THICKNESS
 40
0.0
  9
$LIMCHECK
 70
0
  9
$CHAMFERA
 40
0.0
  9
$CHAMFERB
 40
0.0
  9
$CHAMFERC
 40
0.0
  9
$CHAMFERD
 40
0.0
  9
$SKPOLY
 70
0
  9
$TDCREATE
 40
2461138.7154050926
  9
$TDUCREATE
 40
2458532.153996898
  9
$TDUPDATE
 40
2461138.7154050926
  9
$TDUUPDATE
 40
2458532.1544311
  9
$TDINDWG
 40
0.0
  9
$TDUSRTIMER
 40
0.0
  9
$USRTIMER
 70
1
  9
$ANGBASE
 50
0.0
  9
$ANGDIR
 70
0
  9
$PDMODE
 70
0
  9
$PDSIZE
 40
0.0
  9
$PLINEWID
 40
0.0
  9
$SPLFRAME
 70
0
  9
$SPLINETYPE
 70
6
  9
$SPLINESEGS
 70
8
  9
$HANDSEED
  5
151
  9
$SURFTAB1
 70
6
  9
$SURFTAB2
 70
6
  9
$SURFTYPE
 70
6
  9
$SURFU
 70
6
  9
$SURFV
 70
6
  9
$UCSBASE
  2

  9
$UCSNAME
  2

  9
$UCSORG
 10
0.0
 20
0.0
 30
0.0
  9
$UCSXDIR
 10
1.0
 20
0.0
 30
0.0
  9
$UCSYDIR
 10
0.0
 20
1.0
 30
0.0
  9
$UCSORTHOREF
  2

  9
$UCSORTHOVIEW
 70
0
  9
$UCSORGTOP
 10
0.0
 20
0.0
 30
0.0
  9
$UCSORGBOTTOM
 10
0.0
 20
0.0
 30
0.0
  9
$UCSORGLEFT
 10
0.0
 20
0.0
 30
0.0
  9
$UCSORGRIGHT
 10
0.0
 20
0.0
 30
0.0
  9
$UCSORGFRONT
 10
0.0
 20
0.0
 30
0.0
  9
$UCSORGBACK
 10
0.0
 20
0.0
 30
0.0
  9
$PUCSBASE
  2

  9
$PUCSNAME
  2

  9
$PUCSORG
 10
0.0
 20
0.0
 30
0.0
  9
$PUCSXDIR
 10
1.0
 20
0.0
 30
0.0
  9
$PUCSYDIR
 10
0.0
 20
1.0
 30
0.0
  9
$PUCSORTHOREF
  2

  9
$PUCSORTHOVIEW
 70
0
  9
$PUCSORGTOP
 10
0.0
 20
0.0
 30
0.0
  9
$PUCSORGBOTTOM
 10
0.0
 20
0.0
 30
0.0
  9
$PUCSORGLEFT
 10
0.0
 20
0.0
 30
0.0
  9
$PUCSORGRIGHT
 10
0.0
 20
0.0
 30
0.0
  9
$PUCSORGFRONT
 10
0.0
 20
0.0
 30
0.0
  9
$PUCSORGBACK
 10
0.0
 20
0.0
 30
0.0
  9
$USERI1
 70
0
  9
$USERI2
 70
0
  9
$USERI3
 70
0
  9
$USERI4
 70
0
  9
$USERI5
 70
0
  9
$USERR1
 40
0.0
  9
$USERR2
 40
0.0
  9
$USERR3
 40
0.0
  9
$USERR4
 40
0.0
  9
$USERR5
 40
0.0
  9
$WORLDVIEW
 70
1
  9
$SHADEDGE
 70
3
  9
$SHADEDIF
 70
70
  9
$TILEMODE
 70
1
  9
$MAXACTVP
 70
64
  9
$PINSBASE
 10
0.0
 20
0.0
 30
0.0
  9
$PLIMCHECK
 70
0
  9
$PEXTMIN
 10
1e+20
 20
1e+20
 30
1e+20
  9
$PEXTMAX
 10
-1e+20
 20
-1e+20
 30
-1e+20
  9
$PLIMMIN
 10
0.0
 20
0.0
  9
$PLIMMAX
 10
420.0
 20
297.0
  9
$UNITMODE
 70
0
  9
$VISRETAIN
 70
1
  9
$PLINEGEN
 70
0
  9
$PSLTSCALE
 70
1
  9
$TREEDEPTH
 70
3020
  9
$CMLSTYLE
  2
Standard
  9
$CMLJUST
 70
0
  9
$CMLSCALE
 40
20.0
  9
$PROXYGRAPHICS
 70
1
  9
$MEASUREMENT
 70
1
  9
$CELWEIGHT
370
-1
  9
$ENDCAPS
280
0
  9
$JOINSTYLE
280
0
  9
$LWDISPLAY
290
0
  9
$INSUNITS
 70
6
  9
$HYPERLINKBASE
  1

  9
$STYLESHEET
  1

  9
$XEDIT
290
1
  9
$CEPSNTYPE
380
0
  9
$PSTYLEMODE
290
1
  9
$FINGERPRINTGUID
  2
{8F070D52-2686-4E6C-BE4C-37CA7F36B951}
  9
$VERSIONGUID
  2
{C062546B-2534-4C4A-82B3-99B18E1D917C}
  9
$EXTNAMES
290
1
  9
$PSVPSCALE
 40
0.0
  9
$OLESTARTUP
290
0
  9
$SORTENTS
280
127
  9
$INDEXCTL
280
0
  9
$HIDETEXT
280
1
  9
$XCLIPFRAME
280
1
  9
$HALOGAP
280
0
  9
$OBSCOLOR
 70
257
  9
$OBSLTYPE
280
0
  9
$INTERSECTIONDISPLAY
280
0
  9
$INTERSECTIONCOLOR
 70
257
  9
$DIMASSOC
280
2
  9
$PROJECTNAME
  1

  9
$CAMERADISPLAY
290
0
  9
$LENSLENGTH
 40
50.0
  9
$CAMERAHEIGHT
 40
0.0
  9
$STEPSPERSEC
 40
24.0
  9
$STEPSIZE
 40
100.0
  9
$3DDWFPREC
 40
2.0
  9
$PSOLWIDTH
 40
0.005
  9
$PSOLHEIGHT
 40
0.08
  9
$LOFTANG1
 40
1.570796326795
  9
$LOFTANG2
 40
1.570796326795
  9
$LOFTMAG1
 40
0.0
  9
$LOFTMAG2
 40
0.0
  9
$LOFTPARAM
 70
7
  9
$LOFTNORMALS
280
1
  9
$LATITUDE
 40
37.795
  9
$LONGITUDE
 40
-122.394
  9
$NORTHDIRECTION
 40
0.0
  9
$TIMEZONE
 70
-8000
  9
$LIGHTGLYPHDISPLAY
280
1
  9
$TILEMODELIGHTSYNCH
280
1
  9
$CMATERIAL
347
20
  9
$SOLIDHIST
280
0
  9
$SHOWHIST
280
1
  9
$DWFFRAME
280
2
  9
$DGNFRAME
280
2
  9
$REALWORLDSCALE
290
1
  9
$INTERFERECOLOR
 62
256
  9
$CSHADOW
280
0
  9
$SHADOWPLANELOCATION
 40
0.0
  0
ENDSEC
  0
SECTION
  2
CLASSES
  0
CLASS
  1
ACDBDICTIONARYWDFLT
  2
AcDbDictionaryWithDefault
  3
ObjectDBX Classes
 90
0
 91
0
280
0
281
0
  0
CLASS
  1
SUN
  2
AcDbSun
  3
SCENEOE
 90
1153
 91
0
280
0
281
0
  0
CLASS
  1
VISUALSTYLE
  2
AcDbVisualStyle
  3
ObjectDBX Classes
 90
4095
 91
0
280
0
281
0
  0
CLASS
  1
MATERIAL
  2
AcDbMaterial
  3
ObjectDBX Classes
 90
1153
 91
0
280
0
281
0
  0
CLASS
  1
SCALE
  2
AcDbScale
  3
ObjectDBX Classes
 90
1153
 91
0
280
0
281
0
  0
CLASS
  1
TABLESTYLE
  2
AcDbTableStyle
  3
ObjectDBX Classes
 90
4095
 91
0
280
0
281
0
  0
CLASS
  1
MLEADERSTYLE
  2
AcDbMLeaderStyle
  3
ACDB_MLEADERSTYLE_CLASS
 90
4095
 91
0
280
0
281
0
  0
CLASS
  1
DICTIONARYVAR
  2
AcDbDictionaryVar
  3
ObjectDBX Classes
 90
0
 91
0
280
0
281
0
  0
CLASS
  1
CELLSTYLEMAP
  2
AcDbCellStyleMap
  3
ObjectDBX Classes
 90
1152
 91
0
280
0
281
0
  0
CLASS
  1
MENTALRAYRENDERSETTINGS
  2
AcDbMentalRayRenderSettings
  3
SCENEOE
 90
1024
 91
0
280
0
281
0
  0
CLASS
  1
ACDBDETAILVIEWSTYLE
  2
AcDbDetailViewStyle
  3
ObjectDBX Classes
 90
1025
 91
0
280
0
281
0
  0
CLASS
  1
ACDBSECTIONVIEWSTYLE
  2
AcDbSectionViewStyle
  3
ObjectDBX Classes
 90
1025
 91
0
280
0
281
0
  0
CLASS
  1
RASTERVARIABLES
  2
AcDbRasterVariables
  3
ISM
 90
0
 91
0
280
0
281
0
  0
CLASS
  1
ACDBPLACEHOLDER
  2
AcDbPlaceHolder
  3
ObjectDBX Classes
 90
0
 91
0
280
0
281
0
  0
CLASS
  1
LAYOUT
  2
AcDbLayout
  3
ObjectDBX Classes
 90
0
 91
0
280
0
281
0
  0
ENDSEC
  0
SECTION
  2
TABLES
  0
TABLE
  2
VPORT
  5
8
330
0
100
AcDbSymbolTable
 70
1
  0
VPORT
  5
23
330
8
100
AcDbSymbolTableRecord
100
AcDbViewportTableRecord
  2
*Active
 70
0
 10
0.0
 20
0.0
 11
1.0
 21
1.0
 12
0.0
 22
0.0
 13
0.0
 23
0.0
 14
0.5
 24
0.5
 15
0.5
 25
0.5
 16
0.0
 26
0.0
 36
1.0
 17
0.0
 27
0.0
 37
0.0
 40
1000.0
 41
1.34
 42
50.0
 43
0.0
 44
0.0
 50
0.0
 51
0.0
 71
0
 72
1000
 73
1
 74
3
 75
0
 76
0
 77
0
 78
0
281
0
 65
0
146
0.0
  0
ENDTAB
  0
TABLE
  2
LTYPE
  5
2
330
0
100
AcDbSymbolTable
 70
3
  0
LTYPE
  5
24
330
2
100
AcDbSymbolTableRecord
100
AcDbLinetypeTableRecord
  2
ByBlock
 70
0
  3

 72
65
 73
0
 40
0.0
  0
LTYPE
  5
25
330
2
100
AcDbSymbolTableRecord
100
AcDbLinetypeTableRecord
  2
ByLayer
 70
0
  3

 72
65
 73
0
 40
0.0
  0
LTYPE
  5
26
330
2
100
AcDbSymbolTableRecord
100
AcDbLinetypeTableRecord
  2
Continuous
 70
0
  3

 72
65
 73
0
 40
0.0
  0
ENDTAB
  0
TABLE
  2
LAYER
  5
1
330
0
100
AcDbSymbolTable
 70
2
  0
LAYER
  5
27
330
1
100
AcDbSymbolTableRecord
100
AcDbLayerTableRecord
  2
0
 70
0
 62
7
  6
Continuous
370
-3
390
13
347
21
  0
LAYER
  5
28
330
1
100
AcDbSymbolTableRecord
100
AcDbLayerTableRecord
  2
Defpoints
 70
0
 62
7
  6
Continuous
290
0
370
-3
390
13
347
21
  0
ENDTAB
  0
TABLE
  2
STYLE
  5
5
330
0
100
AcDbSymbolTable
 70
1
  0
STYLE
  5
29
330
5
100
AcDbSymbolTableRecord
100
AcDbTextStyleTableRecord
  2
Standard
 70
0
 40
0.0
 41
1.0
 50
0.0
 71
0
 42
2.5
  3
txt
  4

  0
ENDTAB
  0
TABLE
  2
VIEW
  5
7
330
0
100
AcDbSymbolTable
 70
0
  0
ENDTAB
  0
TABLE
  2
UCS
  5
6
330
0
100
AcDbSymbolTable
 70
0
  0
ENDTAB
  0
TABLE
  2
APPID
  5
3
330
0
100
AcDbSymbolTable
 70
3
  0
APPID
  5
2A
330
3
100
AcDbSymbolTableRecord
100
AcDbRegAppTableRecord
  2
ACAD
 70
0
  0
APPID
  5
14E
330
3
100
AcDbSymbolTableRecord
100
AcDbRegAppTableRecord
  2
HATCHBACKGROUNDCOLOR
 70
0
  0
APPID
  5
14F
330
3
100
AcDbSymbolTableRecord
100
AcDbRegAppTableRecord
  2
EZDXF
 70
0
  0
ENDTAB
  0
TABLE
  2
DIMSTYLE
  5
4
330
0
100
AcDbSymbolTable
 70
1
100
AcDbDimStyleTable
  0
DIMSTYLE
105
2B
330
4
100
AcDbSymbolTableRecord
100
AcDbDimStyleTableRecord
  2
Standard
 70
0
 40
1.0
 41
2.5
 42
0.625
 43
3.75
 44
1.25
 45
0.0
 46
0.0
 47
0.0
 48
0.0
 49
2.5
140
2.5
141
2.5
142
0.0
143
0.03937007874
144
1.0
145
0.0
146
1.0
147
0.625
148
0.0
 69
0
 70
0
 71
0
 72
0
 73
0
 74
0
 75
0
 76
0
 77
1
 78
8
 79
3
170
0
171
3
172
1
173
0
174
0
175
0
176
0
177
0
178
0
179
2
271
2
272
2
273
2
274
3
275
0
276
0
277
2
278
44
279
0
280
0
281
0
282
0
283
0
284
8
285
0
286
0
288
0
289
3
290
0
371
-2
372
-2
  0
ENDTAB
  0
TABLE
  2
BLOCK_RECORD
  5
9
330
0
100
AcDbSymbolTable
 70
2
  0
BLOCK_RECORD
  5
17
330
9
100
AcDbSymbolTableRecord
100
AcDbBlockTableRecord
  2
*Model_Space
340
1A
 70
0
280
1
281
0
  0
BLOCK_RECORD
  5
1B
330
9
100
AcDbSymbolTableRecord
100
AcDbBlockTableRecord
  2
*Paper_Space
340
1E
 70
0
280
1
281
0
  0
ENDTAB
  0
ENDSEC
  0
SECTION
  2
BLOCKS
  0
BLOCK
  5
18
330
17
100
AcDbEntity
  8
0
100
AcDbBlockBegin
  2
*Model_Space
 70
0
 10
0.0
 20
0.0
 30
0.0
  3
*Model_Space
  1

  0
ENDBLK
  5
19
330
17
100
AcDbEntity
  8
0
100
AcDbBlockEnd
  0
BLOCK
  5
1C
330
1B
100
AcDbEntity
  8
0
100
AcDbBlockBegin
  2
*Paper_Space
 70
0
 10
0.0
 20
0.0
 30
0.0
  3
*Paper_Space
  1

  0
ENDBLK
  5
1D
330
1B
100
AcDbEntity
  8
0
100
AcDbBlockEnd
  0
ENDSEC
  0
SECTION
  2
ENTITIES
  0
LINE
  5
2F
330
17
100
AcDbEntity
  8
0
100
AcDbLine
 10
135.538
 20
-671.214
 30
0.0
 11
135.538
 21
-736.2230000000001
 31
0.0
  0
LINE
  5
30
330
17
100
AcDbEntity
  8
0
100
AcDbLine
 10
135.538
 20
-736.2230000000001
 30
0.0
 11
107.47600000000001
 21
-736.118
 31
0.0
  0
LINE
  5
31
330
17
100
AcDbEntity
  8
0
100
AcDbLine
 10
107.47600000000001
 20
-736.118
 30
0.0
 11
107.51500000000001
 21
-677.908
 31
0.0
  0
LINE
  5
32
330
17
100
AcDbEntity
  8
0
100
AcDbLine
 10
107.51500000000001
 20
-677.908
 30
0.0
 11
107.62800000000001
 21
-677.165
 31
0.0
  0
LINE
  5
33
330
17
100
AcDbEntity
  8
0
100
AcDbLine
 10
107.62800000000001
 20
-677.165
 30
0.0
 11
107.81200000000001
 21
-676.448
 31
0.0
  0
LINE
  5
34
330
17
100
AcDbEntity
  8
0
100
AcDbLine
 10
107.81200000000001
 20
-676.448
 30
0.0
 11
108.06400000000001
 21
-675.761
 31
0.0
  0
LINE
  5
35
330
17
100
AcDbEntity
  8
0
100
AcDbLine
 10
108.06400000000001
 20
-675.761
 30
0.0
 11
108.379
 21
-675.107
 31
0.0
  0
LINE
  5
36
330
17
100
AcDbEntity
  8
0
100
AcDbLine
 10
108.379
 20
-675.107
 30
0.0
 11
108.754
 21
-674.49
 31
0.0
  0
LINE
  5
37
330
17
100
AcDbEntity
  8
0
100
AcDbLine
 10
108.754
 20
-674.49
 30
0.0
 11
109.185
 21
-673.914
 31
0.0
  0
LINE
  5
38
330
17
100
AcDbEntity
  8
0
100
AcDbLine
 10
109.185
 20
-673.914
 30
0.0
 11
109.668
 21
-673.383
 31
0.0
  0
LINE
  5
39
330
17
100
AcDbEntity
  8
0
100
AcDbLine
 10
109.668
 20
-673.383
 30
0.0
 11
110.2
 21
-672.9000000000001
 31
0.0
  0
LINE
  5
3A
330
17
100
AcDbEntity
  8
0
100
AcDbLine
 10
110.2
 20
-672.9000000000001
 30
0.0
 11
110.776
 21
-672.4700000000001
 31
0.0
  0
LINE
  5
3B
330
17
100
AcDbEntity
  8
0
100
AcDbLine
 10
110.776
 20
-672.4700000000001
 30
0.0
 11
111.393
 21
-672.0960000000001
 31
0.0
  0
LINE
  5
3C
330
17
100
AcDbEntity
  8
0
100
AcDbLine
 10
111.393
 20
-672.0960000000001
 30
0.0
 11
112.047
 21
-671.7810000000001
 31
0.0
  0
LINE
  5
3D
330
17
100
AcDbEntity
  8
0
100
AcDbLine
 10
112.047
 20
-671.7810000000001
 30
0.0
 11
112.735
 21
-671.5300000000001
 31
0.0
  0
LINE
  5
3E
330
17
100
AcDbEntity
  8
0
100
AcDbLine
 10
112.735
 20
-671.5300000000001
 30
0.0
 11
113.452
 21
-671.3460000000001
 31
0.0
  0
LINE
  5
3F
330
17
100
AcDbEntity
  8
0
100
AcDbLine
 10
113.452
 20
-671.3460000000001
 30
0.0
 11
114.195
 21
-671.2330000000001
 31
0.0
  0
LINE
  5
40
330
17
100
AcDbEntity
  8
0
100
AcDbLine
 10
114.195
 20
-671.2330000000001
 30
0.0
 11
135.53699999999998
 21
-671.214
 31
0.0
  0
LINE
  5
41
330
17
100
AcDbEntity
  8
0
100
AcDbLine
 10
111.70699999999998
 20
-970.1200000000001
 30
0.0
 11
113.21099999999998
 21
-960.8700000000001
 31
0.0
  0
LINE
  5
42
330
17
100
AcDbEntity
  8
0
100
AcDbLine
 10
113.21099999999998
 20
-960.8700000000001
 30
0.0
 11
115.42799999999998
 21
-952.2940000000001
 31
0.0
  0
LINE
  5
43
330
17
100
AcDbEntity
  8
0
100
AcDbLine
 10
115.42799999999998
 20
-952.2940000000001
 30
0.0
 11
118.40399999999998
 21
-944.1800000000001
 31
0.0
  0
LINE
  5
44
330
17
100
AcDbEntity
  8
0
100
AcDbLine
 10
118.40399999999998
 20
-944.1800000000001
 30
0.0
 11
122.18499999999999
 21
-936.315
 31
0.0
  0
LINE
  5
45
330
17
100
AcDbEntity
  8
0
100
AcDbLine
 10
122.18499999999999
 20
-936.315
 30
0.0
 11
126.817
 21
-928.4870000000001
 31
0.0
  0
LINE
  5
46
330
17
100
AcDbEntity
  8
0
100
AcDbLine
 10
126.817
 20
-928.4870000000001
 30
0.0
 11
151.362
 21
-896.643
 31
0.0
  0
LINE
  5
47
330
17
100
AcDbEntity
  8
0
100
AcDbLine
 10
151.362
 20
-896.643
 30
0.0
 11
159.97199999999998
 21
-883.057
 31
0.0
  0
LINE
  5
48
330
17
100
AcDbEntity
  8
0
100
AcDbLine
 10
159.97199999999998
 20
-883.057
 30
0.0
 11
166.659
 21
-869.442
 31
0.0
  0
LINE
  5
49
330
17
100
AcDbEntity
  8
0
100
AcDbLine
 10
166.659
 20
-869.442
 30
0.0
 11
171.599
 21
-856.832
 31
0.0
  0
LINE
  5
4A
330
17
100
AcDbEntity
  8
0
100
AcDbLine
 10
171.599
 20
-856.832
 30
0.0
 11
175.17499999999998
 21
-845.115
 31
0.0
  0
LINE
  5
4B
330
17
100
AcDbEntity
  8
0
100
AcDbLine
 10
175.17499999999998
 20
-845.115
 30
0.0
 11
176.45299999999997
 21
-838.919
 31
0.0
  0
LINE
  5
4C
330
17
100
AcDbEntity
  8
0
100
AcDbLine
 10
176.45299999999997
 20
-838.919
 30
0.0
 11
177.29299999999998
 21
-832.665
 31
0.0
  0
LINE
  5
4D
330
17
100
AcDbEntity
  8
0
100
AcDbLine
 10
177.29299999999998
 20
-832.665
 30
0.0
 11
177.68599999999998
 21
-826.3779999999999
 31
0.0
  0
LINE
  5
4E
330
17
100
AcDbEntity
  8
0
100
AcDbLine
 10
177.68599999999998
 20
-826.3779999999999
 30
0.0
 11
177.62199999999999
 21
-820.084
 31
0.0
  0
LINE
  5
4F
330
17
100
AcDbEntity
  8
0
100
AcDbLine
 10
177.62199999999999
 20
-820.084
 30
0.0
 11
177.09199999999998
 21
-813.809
 31
0.0
  0
LINE
  5
50
330
17
100
AcDbEntity
  8
0
100
AcDbLine
 10
177.09199999999998
 20
-813.809
 30
0.0
 11
176.087
 21
-807.579
 31
0.0
  0
LINE
  5
51
330
17
100
AcDbEntity
  8
0
100
AcDbLine
 10
176.087
 20
-807.579
 30
0.0
 11
174.59799999999998
 21
-801.42
 31
0.0
  0
LINE
  5
52
330
17
100
AcDbEntity
  8
0
100
AcDbLine
 10
174.59799999999998
 20
-801.42
 30
0.0
 11
171.385
 21
-792.179
 31
0.0
  0
LINE
  5
53
330
17
100
AcDbEntity
  8
0
100
AcDbLine
 10
171.385
 20
-792.179
 30
0.0
 11
167.421
 21
-783.958
 31
0.0
  0
LINE
  5
54
330
17
100
AcDbEntity
  8
0
100
AcDbLine
 10
167.421
 20
-783.958
 30
0.0
 11
162.911
 21
-776.7199999999999
 31
0.0
  0
LINE
  5
55
330
17
100
AcDbEntity
  8
0
100
AcDbLine
 10
162.911
 20
-776.7199999999999
 30
0.0
 11
158.06
 21
-770.4259999999999
 31
0.0
  0
LINE
  5
56
330
17
100
AcDbEntity
  8
0
100
AcDbLine
 10
158.06
 20
-770.4259999999999
 30
0.0
 11
153.074
 21
-765.04
 31
0.0
  0
LINE
  5
57
330
17
100
AcDbEntity
  8
0
100
AcDbLine
 10
153.074
 20
-765.04
 30
0.0
 11
148.15800000000002
 21
-760.524
 31
0.0
  0
LINE
  5
58
330
17
100
AcDbEntity
  8
0
100
AcDbLine
 10
148.15800000000002
 20
-760.524
 30
0.0
 11
139.01700000000002
 21
-753.687
 31
0.0
  0
LINE
  5
59
330
17
100
AcDbEntity
  8
0
100
AcDbLine
 10
139.01700000000002
 20
-753.687
 30
0.0
 11
138.872
 21
-753.542
 31
0.0
  0
LINE
  5
5A
330
17
100
AcDbEntity
  8
0
100
AcDbLine
 10
138.872
 20
-753.542
 30
0.0
 11
138.74300000000002
 21
-753.389
 31
0.0
  0
LINE
  5
5B
330
17
100
AcDbEntity
  8
0
100
AcDbLine
 10
138.74300000000002
 20
-753.389
 30
0.0
 11
138.63000000000002
 21
-753.229
 31
0.0
  0
LINE
  5
5C
330
17
100
AcDbEntity
  8
0
100
AcDbLine
 10
138.63000000000002
 20
-753.229
 30
0.0
 11
138.53300000000002
 21
-753.063
 31
0.0
  0
LINE
  5
5D
330
17
100
AcDbEntity
  8
0
100
AcDbLine
 10
138.53300000000002
 20
-753.063
 30
0.0
 11
138.45100000000002
 21
-752.8919999999999
 31
0.0
  0
LINE
  5
5E
330
17
100
AcDbEntity
  8
0
100
AcDbLine
 10
138.45100000000002
 20
-752.8919999999999
 30
0.0
 11
138.38400000000001
 21
-752.717
 31
0.0
  0
LINE
  5
5F
330
17
100
AcDbEntity
  8
0
100
AcDbLine
 10
138.38400000000001
 20
-752.717
 30
0.0
 11
138.33200000000002
 21
-752.538
 31
0.0
  0
LINE
  5
60
330
17
100
AcDbEntity
  8
0
100
AcDbLine
 10
138.33200000000002
 20
-752.538
 30
0.0
 11
138.29500000000002
 21
-752.357
 31
0.0
  0
LINE
  5
61
330
17
100
AcDbEntity
  8
0
100
AcDbLine
 10
138.29500000000002
 20
-752.357
 30
0.0
 11
138.27200000000002
 21
-752.174
 31
0.0
  0
LINE
  5
62
330
17
100
AcDbEntity
  8
0
100
AcDbLine
 10
138.27200000000002
 20
-752.174
 30
0.0
 11
138.26300000000003
 21
-751.991
 31
0.0
  0
LINE
  5
63
330
17
100
AcDbEntity
  8
0
100
AcDbLine
 10
138.26300000000003
 20
-751.991
 30
0.0
 11
138.26800000000003
 21
-751.808
 31
0.0
  0
LINE
  5
64
330
17
100
AcDbEntity
  8
0
100
AcDbLine
 10
138.26800000000003
 20
-751.808
 30
0.0
 11
138.28700000000003
 21
-751.626
 31
0.0
  0
LINE
  5
65
330
17
100
AcDbEntity
  8
0
100
AcDbLine
 10
138.28700000000003
 20
-751.626
 30
0.0
 11
138.31900000000005
 21
-751.446
 31
0.0
  0
LINE
  5
66
330
17
100
AcDbEntity
  8
0
100
AcDbLine
 10
138.31900000000005
 20
-751.446
 30
0.0
 11
138.36400000000003
 21
-751.269
 31
0.0
  0
LINE
  5
67
330
17
100
AcDbEntity
  8
0
100
AcDbLine
 10
138.36400000000003
 20
-751.269
 30
0.0
 11
138.42200000000003
 21
-751.096
 31
0.0
  0
LINE
  5
68
330
17
100
AcDbEntity
  8
0
100
AcDbLine
 10
138.42200000000003
 20
-751.096
 30
0.0
 11
138.49300000000002
 21
-750.928
 31
0.0
  0
LINE
  5
69
330
17
100
AcDbEntity
  8
0
100
AcDbLine
 10
138.49300000000002
 20
-750.928
 30
0.0
 11
138.57600000000002
 21
-750.765
 31
0.0
  0
LINE
  5
6A
330
17
100
AcDbEntity
  8
0
100
AcDbLine
 10
138.57600000000002
 20
-750.765
 30
0.0
 11
138.67100000000002
 21
-750.609
 31
0.0
  0
LINE
  5
6B
330
17
100
AcDbEntity
  8
0
100
AcDbLine
 10
138.67100000000002
 20
-750.609
 30
0.0
 11
138.77800000000002
 21
-750.46
 31
0.0
  0
LINE
  5
6C
330
17
100
AcDbEntity
  8
0
100
AcDbLine
 10
138.77800000000002
 20
-750.46
 30
0.0
 11
138.89600000000002
 21
-750.3190000000001
 31
0.0
  0
LINE
  5
6D
330
17
100
AcDbEntity
  8
0
100
AcDbLine
 10
138.89600000000002
 20
-750.3190000000001
 30
0.0
 11
139.025
 21
-750.1880000000001
 31
0.0
  0
LINE
  5
6E
330
17
100
AcDbEntity
  8
0
100
AcDbLine
 10
139.025
 20
-750.1880000000001
 30
0.0
 11
139.165
 21
-750.0670000000001
 31
0.0
  0
LINE
  5
6F
330
17
100
AcDbEntity
  8
0
100
AcDbLine
 10
139.165
 20
-750.0670000000001
 30
0.0
 11
139.316
 21
-749.9570000000001
 31
0.0
  0
LINE
  5
70
330
17
100
AcDbEntity
  8
0
100
AcDbLine
 10
139.316
 20
-749.9570000000001
 30
0.0
 11
139.478
 21
-749.8580000000001
 31
0.0
  0
LINE
  5
71
330
17
100
AcDbEntity
  8
0
100
AcDbLine
 10
139.478
 20
-749.8580000000001
 30
0.0
 11
139.65
 21
-749.772
 31
0.0
  0
LINE
  5
72
330
17
100
AcDbEntity
  8
0
100
AcDbLine
 10
139.65
 20
-749.772
 30
0.0
 11
139.832
 21
-749.7
 31
0.0
  0
LINE
  5
73
330
17
100
AcDbEntity
  8
0
100
AcDbLine
 10
139.832
 20
-749.7
 30
0.0
 11
140.023
 21
-749.643
 31
0.0
  0
LINE
  5
74
330
17
100
AcDbEntity
  8
0
100
AcDbLine
 10
140.023
 20
-749.643
 30
0.0
 11
140.224
 21
-749.601
 31
0.0
  0
LINE
  5
75
330
17
100
AcDbEntity
  8
0
100
AcDbLine
 10
140.224
 20
-749.601
 30
0.0
 11
140.434
 21
-749.575
 31
0.0
  0
LINE
  5
76
330
17
100
AcDbEntity
  8
0
100
AcDbLine
 10
140.434
 20
-749.575
 30
0.0
 11
183.575
 21
-749.816
 31
0.0
  0
LINE
  5
77
330
17
100
AcDbEntity
  8
0
100
AcDbLine
 10
183.575
 20
-749.816
 30
0.0
 11
184.326
 21
-749.894
 31
0.0
  0
LINE
  5
78
330
17
100
AcDbEntity
  8
0
100
AcDbLine
 10
184.326
 20
-749.894
 30
0.0
 11
185.053
 21
-750.044
 31
0.0
  0
LINE
  5
79
330
17
100
AcDbEntity
  8
0
100
AcDbLine
 10
185.053
 20
-750.044
 30
0.0
 11
185.753
 21
-750.263
 31
0.0
  0
LINE
  5
7A
330
17
100
AcDbEntity
  8
0
100
AcDbLine
 10
185.753
 20
-750.263
 30
0.0
 11
186.421
 21
-750.547
 31
0.0
  0
LINE
  5
7B
330
17
100
AcDbEntity
  8
0
100
AcDbLine
 10
186.421
 20
-750.547
 30
0.0
 11
187.054
 21
-750.892
 31
0.0
  0
LINE
  5
7C
330
17
100
AcDbEntity
  8
0
100
AcDbLine
 10
187.054
 20
-750.892
 30
0.0
 11
187.648
 21
-751.2940000000001
 31
0.0
  0
LINE
  5
7D
330
17
100
AcDbEntity
  8
0
100
AcDbLine
 10
187.648
 20
-751.2940000000001
 30
0.0
 11
188.2
 21
-751.7500000000001
 31
0.0
  0
LINE
  5
7E
330
17
100
AcDbEntity
  8
0
100
AcDbLine
 10
188.2
 20
-751.7500000000001
 30
0.0
 11
188.70499999999998
 21
-752.2560000000001
 31
0.0
  0
LINE
  5
7F
330
17
100
AcDbEntity
  8
0
100
AcDbLine
 10
188.70499999999998
 20
-752.2560000000001
 30
0.0
 11
189.16
 21
-752.8080000000001
 31
0.0
  0
LINE
  5
80
330
17
100
AcDbEntity
  8
0
100
AcDbLine
 10
189.16
 20
-752.8080000000001
 30
0.0
 11
189.561
 21
-753.4030000000001
 31
0.0
  0
LINE
  5
81
330
17
100
AcDbEntity
  8
0
100
AcDbLine
 10
189.561
 20
-753.4030000000001
 30
0.0
 11
189.905
 21
-754.0370000000001
 31
0.0
  0
LINE
  5
82
330
17
100
AcDbEntity
  8
0
100
AcDbLine
 10
189.905
 20
-754.0370000000001
 30
0.0
 11
190.187
 21
-754.7060000000001
 31
0.0
  0
LINE
  5
83
330
17
100
AcDbEntity
  8
0
100
AcDbLine
 10
190.187
 20
-754.7060000000001
 30
0.0
 11
190.40400000000002
 21
-755.4060000000002
 31
0.0
  0
LINE
  5
84
330
17
100
AcDbEntity
  8
0
100
AcDbLine
 10
190.40400000000002
 20
-755.4060000000002
 30
0.0
 11
190.55300000000003
 21
-756.1340000000001
 31
0.0
  0
LINE
  5
85
330
17
100
AcDbEntity
  8
0
100
AcDbLine
 10
190.55300000000003
 20
-756.1340000000001
 30
0.0
 11
190.62900000000002
 21
-756.8860000000001
 31
0.0
  0
LINE
  5
86
330
17
100
AcDbEntity
  8
0
100
AcDbLine
 10
190.62900000000002
 20
-756.8860000000001
 30
0.0
 11
190.64800000000002
 21
-771.825
 31
0.0
  0
LINE
  5
87
330
17
100
AcDbEntity
  8
0
100
AcDbLine
 10
190.64800000000002
 20
-771.825
 30
0.0
 11
190.72100000000003
 21
-772.541
 31
0.0
  0
LINE
  5
88
330
17
100
AcDbEntity
  8
0
100
AcDbLine
 10
190.72100000000003
 20
-772.541
 30
0.0
 11
190.86300000000003
 21
-773.234
 31
0.0
  0
LINE
  5
89
330
17
100
AcDbEntity
  8
0
100
AcDbLine
 10
190.86300000000003
 20
-773.234
 30
0.0
 11
191.07000000000002
 21
-773.9010000000001
 31
0.0
  0
LINE
  5
8A
330
17
100
AcDbEntity
  8
0
100
AcDbLine
 10
191.07000000000002
 20
-773.9010000000001
 30
0.0
 11
191.33900000000003
 21
-774.538
 31
0.0
  0
LINE
  5
8B
330
17
100
AcDbEntity
  8
0
100
AcDbLine
 10
191.33900000000003
 20
-774.538
 30
0.0
 11
191.66700000000003
 21
-775.141
 31
0.0
  0
LINE
  5
8C
330
17
100
AcDbEntity
  8
0
100
AcDbLine
 10
191.66700000000003
 20
-775.141
 30
0.0
 11
192.05000000000004
 21
-775.707
 31
0.0
  0
LINE
  5
8D
330
17
100
AcDbEntity
  8
0
100
AcDbLine
 10
192.05000000000004
 20
-775.707
 30
0.0
 11
192.48400000000004
 21
-776.233
 31
0.0
  0
LINE
  5
8E
330
17
100
AcDbEntity
  8
0
100
AcDbLine
 10
192.48400000000004
 20
-776.233
 30
0.0
 11
192.96600000000004
 21
-776.7149999999999
 31
0.0
  0
LINE
  5
8F
330
17
100
AcDbEntity
  8
0
100
AcDbLine
 10
192.96600000000004
 20
-776.7149999999999
 30
0.0
 11
193.49200000000005
 21
-777.1489999999999
 31
0.0
  0
LINE
  5
90
330
17
100
AcDbEntity
  8
0
100
AcDbLine
 10
193.49200000000005
 20
-777.1489999999999
 30
0.0
 11
194.05800000000005
 21
-777.5319999999999
 31
0.0
  0
LINE
  5
91
330
17
100
AcDbEntity
  8
0
100
AcDbLine
 10
194.05800000000005
 20
-777.5319999999999
 30
0.0
 11
194.66100000000006
 21
-777.8599999999999
 31
0.0
  0
LINE
  5
92
330
17
100
AcDbEntity
  8
0
100
AcDbLine
 10
194.66100000000006
 20
-777.8599999999999
 30
0.0
 11
195.29800000000006
 21
-778.1289999999999
 31
0.0
  0
LINE
  5
93
330
17
100
AcDbEntity
  8
0
100
AcDbLine
 10
195.29800000000006
 20
-778.1289999999999
 30
0.0
 11
195.96500000000006
 21
-778.3359999999999
 31
0.0
  0
LINE
  5
94
330
17
100
AcDbEntity
  8
0
100
AcDbLine
 10
195.96500000000006
 20
-778.3359999999999
 30
0.0
 11
196.65800000000007
 21
-778.478
 31
0.0
  0
LINE
  5
95
330
17
100
AcDbEntity
  8
0
100
AcDbLine
 10
196.65800000000007
 20
-778.478
 30
0.0
 11
197.37400000000008
 21
-778.5509999999999
 31
0.0
  0
LINE
  5
96
330
17
100
AcDbEntity
  8
0
100
AcDbLine
 10
197.37400000000008
 20
-778.5509999999999
 30
0.0
 11
315.31000000000006
 21
-778.5509999999999
 31
0.0
  0
LINE
  5
97
330
17
100
AcDbEntity
  8
0
100
AcDbLine
 10
315.31000000000006
 20
-778.5509999999999
 30
0.0
 11
316.05100000000004
 21
-778.4759999999999
 31
0.0
  0
LINE
  5
98
330
17
100
AcDbEntity
  8
0
100
AcDbLine
 10
316.05100000000004
 20
-778.4759999999999
 30
0.0
 11
316.76900000000006
 21
-778.3289999999998
 31
0.0
  0
LINE
  5
99
330
17
100
AcDbEntity
  8
0
100
AcDbLine
 10
316.76900000000006
 20
-778.3289999999998
 30
0.0
 11
317.45900000000006
 21
-778.1139999999998
 31
0.0
  0
LINE
  5
9A
330
17
100
AcDbEntity
  8
0
100
AcDbLine
 10
317.45900000000006
 20
-778.1139999999998
 30
0.0
 11
318.11800000000005
 21
-777.8349999999998
 31
0.0
  0
LINE
  5
9B
330
17
100
AcDbEntity
  8
0
100
AcDbLine
 10
318.11800000000005
 20
-777.8349999999998
 30
0.0
 11
318.74300000000005
 21
-777.4959999999998
 31
0.0
  0
LINE
  5
9C
330
17
100
AcDbEntity
  8
0
100
AcDbLine
 10
318.74300000000005
 20
-777.4959999999998
 30
0.0
 11
319.32900000000006
 21
-777.0999999999998
 31
0.0
  0
LINE
  5
9D
330
17
100
AcDbEntity
  8
0
100
AcDbLine
 10
319.32900000000006
 20
-777.0999999999998
 30
0.0
 11
319.87300000000005
 21
-776.6509999999998
 31
0.0
  0
LINE
  5
9E
330
17
100
AcDbEntity
  8
0
100
AcDbLine
 10
319.87300000000005
 20
-776.6509999999998
 30
0.0
 11
320.37200000000007
 21
-776.1519999999998
 31
0.0
  0
LINE
  5
9F
330
17
100
AcDbEntity
  8
0
100
AcDbLine
 10
320.37200000000007
 20
-776.1519999999998
 30
0.0
 11
320.8210000000001
 21
-775.6079999999998
 31
0.0
  0
LINE
  5
A0
330
17
100
AcDbEntity
  8
0
100
AcDbLine
 10
320.8210000000001
 20
-775.6079999999998
 30
0.0
 11
321.2170000000001
 21
-775.0219999999998
 31
0.0
  0
LINE
  5
A1
330
17
100
AcDbEntity
  8
0
100
AcDbLine
 10
321.2170000000001
 20
-775.0219999999998
 30
0.0
 11
321.5560000000001
 21
-774.3969999999998
 31
0.0
  0
LINE
  5
A2
330
17
100
AcDbEntity
  8
0
100
AcDbLine
 10
321.5560000000001
 20
-774.3969999999998
 30
0.0
 11
321.8350000000001
 21
-773.7379999999998
 31
0.0
  0
LINE
  5
A3
330
17
100
AcDbEntity
  8
0
100
AcDbLine
 10
321.8350000000001
 20
-773.7379999999998
 30
0.0
 11
322.05000000000007
 21
-773.0479999999998
 31
0.0
  0
LINE
  5
A4
330
17
100
AcDbEntity
  8
0
100
AcDbLine
 10
322.05000000000007
 20
-773.0479999999998
 30
0.0
 11
322.19700000000006
 21
-772.3299999999998
 31
0.0
  0
LINE
  5
A5
330
17
100
AcDbEntity
  8
0
100
AcDbLine
 10
322.19700000000006
 20
-772.3299999999998
 30
0.0
 11
322.27200000000005
 21
-771.5889999999998
 31
0.0
  0
LINE
  5
A6
330
17
100
AcDbEntity
  8
0
100
AcDbLine
 10
322.27200000000005
 20
-771.5889999999998
 30
0.0
 11
322.29100000000005
 21
-756.8509999999999
 31
0.0
  0
LINE
  5
A7
330
17
100
AcDbEntity
  8
0
100
AcDbLine
 10
322.29100000000005
 20
-756.8509999999999
 30
0.0
 11
322.36500000000007
 21
-756.1189999999999
 31
0.0
  0
LINE
  5
A8
330
17
100
AcDbEntity
  8
0
100
AcDbLine
 10
322.36500000000007
 20
-756.1189999999999
 30
0.0
 11
322.51000000000005
 21
-755.41
 31
0.0
  0
LINE
  5
A9
330
17
100
AcDbEntity
  8
0
100
AcDbLine
 10
322.51000000000005
 20
-755.41
 30
0.0
 11
322.72200000000004
 21
-754.728
 31
0.0
  0
LINE
  5
AA
330
17
100
AcDbEntity
  8
0
100
AcDbLine
 10
322.72200000000004
 20
-754.728
 30
0.0
 11
322.99800000000005
 21
-754.077
 31
0.0
  0
LINE
  5
AB
330
17
100
AcDbEntity
  8
0
100
AcDbLine
 10
322.99800000000005
 20
-754.077
 30
0.0
 11
323.33400000000006
 21
-753.46
 31
0.0
  0
LINE
  5
AC
330
17
100
AcDbEntity
  8
0
100
AcDbLine
 10
323.33400000000006
 20
-753.46
 30
0.0
 11
323.72600000000006
 21
-752.8810000000001
 31
0.0
  0
LINE
  5
AD
330
17
100
AcDbEntity
  8
0
100
AcDbLine
 10
323.72600000000006
 20
-752.8810000000001
 30
0.0
 11
324.1700000000001
 21
-752.344
 31
0.0
  0
LINE
  5
AE
330
17
100
AcDbEntity
  8
0
100
AcDbLine
 10
324.1700000000001
 20
-752.344
 30
0.0
 11
324.66300000000007
 21
-751.8520000000001
 31
0.0
  0
LINE
  5
AF
330
17
100
AcDbEntity
  8
0
100
AcDbLine
 10
324.66300000000007
 20
-751.8520000000001
 30
0.0
 11
325.2010000000001
 21
-751.4090000000001
 31
0.0
  0
LINE
  5
B0
330
17
100
AcDbEntity
  8
0
100
AcDbLine
 10
325.2010000000001
 20
-751.4090000000001
 30
0.0
 11
325.78100000000006
 21
-751.0180000000001
 31
0.0
  0
LINE
  5
B1
330
17
100
AcDbEntity
  8
0
100
AcDbLine
 10
325.78100000000006
 20
-751.0180000000001
 30
0.0
 11
326.3980000000001
 21
-750.6840000000002
 31
0.0
  0
LINE
  5
B2
330
17
100
AcDbEntity
  8
0
100
AcDbLine
 10
326.3980000000001
 20
-750.6840000000002
 30
0.0
 11
327.05000000000007
 21
-750.4100000000002
 31
0.0
  0
LINE
  5
B3
330
17
100
AcDbEntity
  8
0
100
AcDbLine
 10
327.05000000000007
 20
-750.4100000000002
 30
0.0
 11
327.7320000000001
 21
-750.1990000000002
 31
0.0
  0
LINE
  5
B4
330
17
100
AcDbEntity
  8
0
100
AcDbLine
 10
327.7320000000001
 20
-750.1990000000002
 30
0.0
 11
328.4410000000001
 21
-750.0550000000002
 31
0.0
  0
LINE
  5
B5
330
17
100
AcDbEntity
  8
0
100
AcDbLine
 10
328.4410000000001
 20
-750.0550000000002
 30
0.0
 11
329.1730000000001
 21
-749.9820000000002
 31
0.0
  0
LINE
  5
B6
330
17
100
AcDbEntity
  8
0
100
AcDbLine
 10
329.1730000000001
 20
-749.9820000000002
 30
0.0
 11
417.1680000000001
 21
-750.1420000000002
 31
0.0
  0
LINE
  5
B7
330
17
100
AcDbEntity
  8
0
100
AcDbLine
 10
417.1680000000001
 20
-750.1420000000002
 30
0.0
 11
408.8480000000001
 21
-779.5220000000002
 31
0.0
  0
LINE
  5
B8
330
17
100
AcDbEntity
  8
0
100
AcDbLine
 10
408.8480000000001
 20
-779.5220000000002
 30
0.0
 11
408.6320000000001
 21
-780.0340000000001
 31
0.0
  0
LINE
  5
B9
330
17
100
AcDbEntity
  8
0
100
AcDbLine
 10
408.6320000000001
 20
-780.0340000000001
 30
0.0
 11
408.3770000000001
 21
-780.5210000000001
 31
0.0
  0
LINE
  5
BA
330
17
100
AcDbEntity
  8
0
100
AcDbLine
 10
408.3770000000001
 20
-780.5210000000001
 30
0.0
 11
408.0860000000001
 21
-780.9820000000001
 31
0.0
  0
LINE
  5
BB
330
17
100
AcDbEntity
  8
0
100
AcDbLine
 10
408.0860000000001
 20
-780.9820000000001
 30
0.0
 11
407.7600000000001
 21
-781.416
 31
0.0
  0
LINE
  5
BC
330
17
100
AcDbEntity
  8
0
100
AcDbLine
 10
407.7600000000001
 20
-781.416
 30
0.0
 11
407.4020000000001
 21
-781.82
 31
0.0
  0
LINE
  5
BD
330
17
100
AcDbEntity
  8
0
100
AcDbLine
 10
407.4020000000001
 20
-781.82
 30
0.0
 11
407.0140000000001
 21
-782.1940000000001
 31
0.0
  0
LINE
  5
BE
330
17
100
AcDbEntity
  8
0
100
AcDbLine
 10
407.0140000000001
 20
-782.1940000000001
 30
0.0
 11
406.5980000000001
 21
-782.5350000000001
 31
0.0
  0
LINE
  5
BF
330
17
100
AcDbEntity
  8
0
100
AcDbLine
 10
406.5980000000001
 20
-782.5350000000001
 30
0.0
 11
406.1560000000001
 21
-782.8420000000001
 31
0.0
  0
LINE
  5
C0
330
17
100
AcDbEntity
  8
0
100
AcDbLine
 10
406.1560000000001
 20
-782.8420000000001
 30
0.0
 11
405.6900000000001
 21
-783.1140000000001
 31
0.0
  0
LINE
  5
C1
330
17
100
AcDbEntity
  8
0
100
AcDbLine
 10
405.6900000000001
 20
-783.1140000000001
 30
0.0
 11
405.2030000000001
 21
-783.3490000000002
 31
0.0
  0
LINE
  5
C2
330
17
100
AcDbEntity
  8
0
100
AcDbLine
 10
405.2030000000001
 20
-783.3490000000002
 30
0.0
 11
404.6970000000001
 21
-783.5450000000002
 31
0.0
  0
LINE
  5
C3
330
17
100
AcDbEntity
  8
0
100
AcDbLine
 10
404.6970000000001
 20
-783.5450000000002
 30
0.0
 11
404.1730000000001
 21
-783.7010000000001
 31
0.0
  0
LINE
  5
C4
330
17
100
AcDbEntity
  8
0
100
AcDbLine
 10
404.1730000000001
 20
-783.7010000000001
 30
0.0
 11
403.6340000000001
 21
-783.8150000000002
 31
0.0
  0
LINE
  5
C5
330
17
100
AcDbEntity
  8
0
100
AcDbLine
 10
403.6340000000001
 20
-783.8150000000002
 30
0.0
 11
384.31800000000015
 21
-784.9880000000002
 31
0.0
  0
LINE
  5
C6
330
17
100
AcDbEntity
  8
0
100
AcDbLine
 10
384.31800000000015
 20
-784.9880000000002
 30
0.0
 11
373.44800000000015
 21
-786.6570000000002
 31
0.0
  0
LINE
  5
C7
330
17
100
AcDbEntity
  8
0
100
AcDbLine
 10
373.44800000000015
 20
-786.6570000000002
 30
0.0
 11
363.55200000000013
 21
-788.9550000000002
 31
0.0
  0
LINE
  5
C8
330
17
100
AcDbEntity
  8
0
100
AcDbLine
 10
363.55200000000013
 20
-788.9550000000002
 30
0.0
 11
354.5980000000001
 21
-791.7700000000002
 31
0.0
  0
LINE
  5
C9
330
17
100
AcDbEntity
  8
0
100
AcDbLine
 10
354.5980000000001
 20
-791.7700000000002
 30
0.0
 11
346.55400000000014
 21
-794.9900000000002
 31
0.0
  0
LINE
  5
CA
330
17
100
AcDbEntity
  8
0
100
AcDbLine
 10
346.55400000000014
 20
-794.9900000000002
 30
0.0
 11
339.38800000000015
 21
-798.5020000000002
 31
0.0
  0
LINE
  5
CB
330
17
100
AcDbEntity
  8
0
100
AcDbLine
 10
339.38800000000015
 20
-798.5020000000002
 30
0.0
 11
333.06900000000013
 21
-802.1930000000002
 31
0.0
  0
LINE
  5
CC
330
17
100
AcDbEntity
  8
0
100
AcDbLine
 10
333.06900000000013
 20
-802.1930000000002
 30
0.0
 11
328.03000000000014
 21
-805.6290000000002
 31
0.0
  0
LINE
  5
CD
330
17
100
AcDbEntity
  8
0
100
AcDbLine
 10
328.03000000000014
 20
-805.6290000000002
 30
0.0
 11
323.86400000000015
 21
-808.9860000000002
 31
0.0
  0
LINE
  5
CE
330
17
100
AcDbEntity
  8
0
100
AcDbLine
 10
323.86400000000015
 20
-808.9860000000002
 30
0.0
 11
319.9850000000001
 21
-812.6430000000003
 31
0.0
  0
LINE
  5
CF
330
17
100
AcDbEntity
  8
0
100
AcDbLine
 10
319.9850000000001
 20
-812.6430000000003
 30
0.0
 11
316.4060000000001
 21
-816.5810000000002
 31
0.0
  0
LINE
  5
D0
330
17
100
AcDbEntity
  8
0
100
AcDbLine
 10
316.4060000000001
 20
-816.5810000000002
 30
0.0
 11
313.13800000000015
 21
-820.7790000000002
 31
0.0
  0
LINE
  5
D1
330
17
100
AcDbEntity
  8
0
100
AcDbLine
 10
313.13800000000015
 20
-820.7790000000002
 30
0.0
 11
310.19400000000013
 21
-825.2160000000002
 31
0.0
  0
LINE
  5
D2
330
17
100
AcDbEntity
  8
0
100
AcDbLine
 10
310.19400000000013
 20
-825.2160000000002
 30
0.0
 11
307.5860000000001
 21
-829.8720000000002
 31
0.0
  0
LINE
  5
D3
330
17
100
AcDbEntity
  8
0
100
AcDbLine
 10
307.5860000000001
 20
-829.8720000000002
 30
0.0
 11
305.3270000000001
 21
-834.7270000000002
 31
0.0
  0
LINE
  5
D4
330
17
100
AcDbEntity
  8
0
100
AcDbLine
 10
305.3270000000001
 20
-834.7270000000002
 30
0.0
 11
247.66200000000012
 21
-987.3000000000002
 31
0.0
  0
LINE
  5
D5
330
17
100
AcDbEntity
  8
0
100
AcDbLine
 10
247.66200000000012
 20
-987.3000000000002
 30
0.0
 11
247.28100000000012
 21
-988.0210000000002
 31
0.0
  0
LINE
  5
D6
330
17
100
AcDbEntity
  8
0
100
AcDbLine
 10
247.28100000000012
 20
-988.0210000000002
 30
0.0
 11
246.84600000000012
 21
-988.7010000000001
 31
0.0
  0
LINE
  5
D7
330
17
100
AcDbEntity
  8
0
100
AcDbLine
 10
246.84600000000012
 20
-988.7010000000001
 30
0.0
 11
246.36000000000013
 21
-989.3370000000001
 31
0.0
  0
LINE
  5
D8
330
17
100
AcDbEntity
  8
0
100
AcDbLine
 10
246.36000000000013
 20
-989.3370000000001
 30
0.0
 11
245.82700000000014
 21
-989.9280000000001
 31
0.0
  0
LINE
  5
D9
330
17
100
AcDbEntity
  8
0
100
AcDbLine
 10
245.82700000000014
 20
-989.9280000000001
 30
0.0
 11
245.25100000000015
 21
-990.4720000000001
 31
0.0
  0
LINE
  5
DA
330
17
100
AcDbEntity
  8
0
100
AcDbLine
 10
245.25100000000015
 20
-990.4720000000001
 30
0.0
 11
244.63400000000016
 21
-990.9660000000001
 31
0.0
  0
LINE
  5
DB
330
17
100
AcDbEntity
  8
0
100
AcDbLine
 10
244.63400000000016
 20
-990.9660000000001
 30
0.0
 11
243.98100000000017
 21
-991.4080000000001
 31
0.0
  0
LINE
  5
DC
330
17
100
AcDbEntity
  8
0
100
AcDbLine
 10
243.98100000000017
 20
-991.4080000000001
 30
0.0
 11
243.29400000000015
 21
-991.7960000000002
 31
0.0
  0
LINE
  5
DD
330
17
100
AcDbEntity
  8
0
100
AcDbLine
 10
243.29400000000015
 20
-991.7960000000002
 30
0.0
 11
242.57700000000014
 21
-992.1280000000002
 31
0.0
  0
LINE
  5
DE
330
17
100
AcDbEntity
  8
0
100
AcDbLine
 10
242.57700000000014
 20
-992.1280000000002
 30
0.0
 11
241.83400000000015
 21
-992.4020000000002
 31
0.0
  0
LINE
  5
DF
330
17
100
AcDbEntity
  8
0
100
AcDbLine
 10
241.83400000000015
 20
-992.4020000000002
 30
0.0
 11
241.06800000000015
 21
-992.6160000000002
 31
0.0
  0
LINE
  5
E0
330
17
100
AcDbEntity
  8
0
100
AcDbLine
 10
241.06800000000015
 20
-992.6160000000002
 30
0.0
 11
240.28200000000015
 21
-992.7680000000003
 31
0.0
  0
LINE
  5
E1
330
17
100
AcDbEntity
  8
0
100
AcDbLine
 10
240.28200000000015
 20
-992.7680000000003
 30
0.0
 11
239.48000000000016
 21
-992.8550000000002
 31
0.0
  0
LINE
  5
E2
330
17
100
AcDbEntity
  8
0
100
AcDbLine
 10
239.48000000000016
 20
-992.8550000000002
 30
0.0
 11
238.66500000000016
 21
-992.8760000000002
 31
0.0
  0
LINE
  5
E3
330
17
100
AcDbEntity
  8
0
100
AcDbLine
 10
238.66500000000016
 20
-992.8760000000002
 30
0.0
 11
119.41200000000016
 21
-980.8630000000002
 31
0.0
  0
LINE
  5
E4
330
17
100
AcDbEntity
  8
0
100
AcDbLine
 10
119.41200000000016
 20
-980.8630000000002
 30
0.0
 11
118.45000000000016
 21
-980.6130000000002
 31
0.0
  0
LINE
  5
E5
330
17
100
AcDbEntity
  8
0
100
AcDbLine
 10
118.45000000000016
 20
-980.6130000000002
 30
0.0
 11
117.53300000000016
 21
-980.2720000000002
 31
0.0
  0
LINE
  5
E6
330
17
100
AcDbEntity
  8
0
100
AcDbLine
 10
117.53300000000016
 20
-980.2720000000002
 30
0.0
 11
116.66500000000016
 21
-979.8460000000001
 31
0.0
  0
LINE
  5
E7
330
17
100
AcDbEntity
  8
0
100
AcDbLine
 10
116.66500000000016
 20
-979.8460000000001
 30
0.0
 11
115.85100000000017
 21
-979.3400000000001
 31
0.0
  0
LINE
  5
E8
330
17
100
AcDbEntity
  8
0
100
AcDbLine
 10
115.85100000000017
 20
-979.3400000000001
 30
0.0
 11
115.09500000000017
 21
-978.7600000000001
 31
0.0
  0
LINE
  5
E9
330
17
100
AcDbEntity
  8
0
100
AcDbLine
 10
115.09500000000017
 20
-978.7600000000001
 30
0.0
 11
114.40100000000017
 21
-978.1110000000001
 31
0.0
  0
LINE
  5
EA
330
17
100
AcDbEntity
  8
0
100
AcDbLine
 10
114.40100000000017
 20
-978.1110000000001
 30
0.0
 11
113.77400000000017
 21
-977.3990000000001
 31
0.0
  0
LINE
  5
EB
330
17
100
AcDbEntity
  8
0
100
AcDbLine
 10
113.77400000000017
 20
-977.3990000000001
 30
0.0
 11
113.21900000000016
 21
-976.6300000000001
 31
0.0
  0
LINE
  5
EC
330
17
100
AcDbEntity
  8
0
100
AcDbLine
 10
113.21900000000016
 20
-976.6300000000001
 30
0.0
 11
112.74000000000017
 21
-975.8100000000001
 31
0.0
  0
LINE
  5
ED
330
17
100
AcDbEntity
  8
0
100
AcDbLine
 10
112.74000000000017
 20
-975.8100000000001
 30
0.0
 11
112.34100000000016
 21
-974.9440000000001
 31
0.0
  0
LINE
  5
EE
330
17
100
AcDbEntity
  8
0
100
AcDbLine
 10
112.34100000000016
 20
-974.9440000000001
 30
0.0
 11
112.02700000000017
 21
-974.037
 31
0.0
  0
LINE
  5
EF
330
17
100
AcDbEntity
  8
0
100
AcDbLine
 10
112.02700000000017
 20
-974.037
 30
0.0
 11
111.80200000000018
 21
-973.096
 31
0.0
  0
LINE
  5
F0
330
17
100
AcDbEntity
  8
0
100
AcDbLine
 10
111.80200000000018
 20
-973.096
 30
0.0
 11
111.67100000000018
 21
-972.126
 31
0.0
  0
LINE
  5
F1
330
17
100
AcDbEntity
  8
0
100
AcDbLine
 10
111.67100000000018
 20
-972.126
 30
0.0
 11
111.63800000000018
 21
-971.132
 31
0.0
  0
LINE
  5
F2
330
17
100
AcDbEntity
  8
0
100
AcDbLine
 10
111.63800000000018
 20
-971.132
 30
0.0
 11
111.70800000000017
 21
-970.121
 31
0.0
  0
LINE
  5
F3
330
17
100
AcDbEntity
  8
0
100
AcDbLine
 10
625.9670000000002
 20
-671.682
 30
0.0
 11
469.6270000000002
 21
-671.534
 31
0.0
  0
LINE
  5
F4
330
17
100
AcDbEntity
  8
0
100
AcDbLine
 10
469.6270000000002
 20
-671.534
 30
0.0
 11
469.0180000000002
 21
-687.923
 31
0.0
  0
LINE
  5
F5
330
17
100
AcDbEntity
  8
0
100
AcDbLine
 10
469.0180000000002
 20
-687.923
 30
0.0
 11
468.7870000000002
 21
-689.77
 31
0.0
  0
LINE
  5
F6
330
17
100
AcDbEntity
  8
0
100
AcDbLine
 10
468.7870000000002
 20
-689.77
 30
0.0
 11
468.3750000000002
 21
-691.5559999999999
 31
0.0
  0
LINE
  5
F7
330
17
100
AcDbEntity
  8
0
100
AcDbLine
 10
468.3750000000002
 20
-691.5559999999999
 30
0.0
 11
467.7910000000002
 21
-693.271
 31
0.0
  0
LINE
  5
F8
330
17
100
AcDbEntity
  8
0
100
AcDbLine
 10
467.7910000000002
 20
-693.271
 30
0.0
 11
467.0460000000002
 21
-694.905
 31
0.0
  0
LINE
  5
F9
330
17
100
AcDbEntity
  8
0
100
AcDbLine
 10
467.0460000000002
 20
-694.905
 30
0.0
 11
466.1480000000002
 21
-696.448
 31
0.0
  0
LINE
  5
FA
330
17
100
AcDbEntity
  8
0
100
AcDbLine
 10
466.1480000000002
 20
-696.448
 30
0.0
 11
465.1080000000002
 21
-697.891
 31
0.0
  0
LINE
  5
FB
330
17
100
AcDbEntity
  8
0
100
AcDbLine
 10
465.1080000000002
 20
-697.891
 30
0.0
 11
463.9340000000002
 21
-699.2239999999999
 31
0.0
  0
LINE
  5
FC
330
17
100
AcDbEntity
  8
0
100
AcDbLine
 10
463.9340000000002
 20
-699.2239999999999
 30
0.0
 11
462.63700000000017
 21
-700.4369999999999
 31
0.0
  0
LINE
  5
FD
330
17
100
AcDbEntity
  8
0
100
AcDbLine
 10
462.63700000000017
 20
-700.4369999999999
 30
0.0
 11
461.22600000000017
 21
-701.5199999999999
 31
0.0
  0
LINE
  5
FE
330
17
100
AcDbEntity
  8
0
100
AcDbLine
 10
461.22600000000017
 20
-701.5199999999999
 30
0.0
 11
459.71000000000015
 21
-702.4629999999999
 31
0.0
  0
LINE
  5
FF
330
17
100
AcDbEntity
  8
0
100
AcDbLine
 10
459.71000000000015
 20
-702.4629999999999
 30
0.0
 11
458.09900000000016
 21
-703.2569999999998
 31
0.0
  0
LINE
  5
100
330
17
100
AcDbEntity
  8
0
100
AcDbLine
 10
458.09900000000016
 20
-703.2569999999998
 30
0.0
 11
456.40200000000016
 21
-703.8909999999998
 31
0.0
  0
LINE
  5
101
330
17
100
AcDbEntity
  8
0
100
AcDbLine
 10
456.40200000000016
 20
-703.8909999999998
 30
0.0
 11
454.62900000000013
 21
-704.3559999999999
 31
0.0
  0
LINE
  5
102
330
17
100
AcDbEntity
  8
0
100
AcDbLine
 10
454.62900000000013
 20
-704.3559999999999
 30
0.0
 11
452.79000000000013
 21
-704.6419999999998
 31
0.0
  0
LINE
  5
103
330
17
100
AcDbEntity
  8
0
100
AcDbLine
 10
452.79000000000013
 20
-704.6419999999998
 30
0.0
 11
388.5500000000001
 21
-704.7349999999998
 31
0.0
  0
LINE
  5
104
330
17
100
AcDbEntity
  8
0
100
AcDbLine
 10
388.5500000000001
 20
-704.7349999999998
 30
0.0
 11
387.9980000000001
 21
-704.6939999999997
 31
0.0
  0
LINE
  5
105
330
17
100
AcDbEntity
  8
0
100
AcDbLine
 10
387.9980000000001
 20
-704.6939999999997
 30
0.0
 11
387.4520000000001
 21
-704.6129999999997
 31
0.0
  0
LINE
  5
106
330
17
100
AcDbEntity
  8
0
100
AcDbLine
 10
387.4520000000001
 20
-704.6129999999997
 30
0.0
 11
386.91500000000013
 21
-704.4929999999997
 31
0.0
  0
LINE
  5
107
330
17
100
AcDbEntity
  8
0
100
AcDbLine
 10
386.91500000000013
 20
-704.4929999999997
 30
0.0
 11
386.38800000000015
 21
-704.3349999999997
 31
0.0
  0
LINE
  5
108
330
17
100
AcDbEntity
  8
0
100
AcDbLine
 10
386.38800000000015
 20
-704.3349999999997
 30
0.0
 11
385.87400000000014
 21
-704.1389999999997
 31
0.0
  0
LINE
  5
109
330
17
100
AcDbEntity
  8
0
100
AcDbLine
 10
385.87400000000014
 20
-704.1389999999997
 30
0.0
 11
385.37400000000014
 21
-703.9049999999996
 31
0.0
  0
LINE
  5
10A
330
17
100
AcDbEntity
  8
0
100
AcDbLine
 10
385.37400000000014
 20
-703.9049999999996
 30
0.0
 11
376.51700000000017
 21
-698.1069999999996
 31
0.0
  0
LINE
  5
10B
330
17
100
AcDbEntity
  8
0
100
AcDbLine
 10
376.51700000000017
 20
-698.1069999999996
 30
0.0
 11
313.52400000000017
 21
-698.0579999999997
 31
0.0
  0
LINE
  5
10C
330
17
100
AcDbEntity
  8
0
100
AcDbLine
 10
313.52400000000017
 20
-698.0579999999997
 30
0.0
 11
312.5830000000002
 21
-697.9129999999997
 31
0.0
  0
LINE
  5
10D
330
17
100
AcDbEntity
  8
0
100
AcDbLine
 10
312.5830000000002
 20
-697.9129999999997
 30
0.0
 11
311.6740000000002
 21
-697.6779999999997
 31
0.0
  0
LINE
  5
10E
330
17
100
AcDbEntity
  8
0
100
AcDbLine
 10
311.6740000000002
 20
-697.6779999999997
 30
0.0
 11
310.8020000000002
 21
-697.3569999999996
 31
0.0
  0
LINE
  5
10F
330
17
100
AcDbEntity
  8
0
100
AcDbLine
 10
310.8020000000002
 20
-697.3569999999996
 30
0.0
 11
309.9720000000002
 21
-696.9559999999997
 31
0.0
  0
LINE
  5
110
330
17
100
AcDbEntity
  8
0
100
AcDbLine
 10
309.9720000000002
 20
-696.9559999999997
 30
0.0
 11
309.1880000000002
 21
-696.4789999999997
 31
0.0
  0
LINE
  5
111
330
17
100
AcDbEntity
  8
0
100
AcDbLine
 10
309.1880000000002
 20
-696.4789999999997
 30
0.0
 11
308.4560000000002
 21
-695.9309999999997
 31
0.0
  0
LINE
  5
112
330
17
100
AcDbEntity
  8
0
100
AcDbLine
 10
308.4560000000002
 20
-695.9309999999997
 30
0.0
 11
307.7800000000002
 21
-695.3159999999997
 31
0.0
  0
LINE
  5
113
330
17
100
AcDbEntity
  8
0
100
AcDbLine
 10
307.7800000000002
 20
-695.3159999999997
 30
0.0
 11
307.1650000000002
 21
-694.6399999999996
 31
0.0
  0
LINE
  5
114
330
17
100
AcDbEntity
  8
0
100
AcDbLine
 10
307.1650000000002
 20
-694.6399999999996
 30
0.0
 11
306.6170000000002
 21
-693.9079999999997
 31
0.0
  0
LINE
  5
115
330
17
100
AcDbEntity
  8
0
100
AcDbLine
 10
306.6170000000002
 20
-693.9079999999997
 30
0.0
 11
306.1400000000002
 21
-693.1239999999997
 31
0.0
  0
LINE
  5
116
330
17
100
AcDbEntity
  8
0
100
AcDbLine
 10
306.1400000000002
 20
-693.1239999999997
 30
0.0
 11
305.7380000000002
 21
-692.2939999999996
 31
0.0
  0
LINE
  5
117
330
17
100
AcDbEntity
  8
0
100
AcDbLine
 10
305.7380000000002
 20
-692.2939999999996
 30
0.0
 11
305.4170000000002
 21
-691.4219999999997
 31
0.0
  0
LINE
  5
118
330
17
100
AcDbEntity
  8
0
100
AcDbLine
 10
305.4170000000002
 20
-691.4219999999997
 30
0.0
 11
305.1820000000002
 21
-690.5129999999997
 31
0.0
  0
LINE
  5
119
330
17
100
AcDbEntity
  8
0
100
AcDbLine
 10
305.1820000000002
 20
-690.5129999999997
 30
0.0
 11
305.0370000000002
 21
-689.5719999999997
 31
0.0
  0
LINE
  5
11A
330
17
100
AcDbEntity
  8
0
100
AcDbLine
 10
305.0370000000002
 20
-689.5719999999997
 30
0.0
 11
305.0100000000002
 21
-687.3249999999997
 31
0.0
  0
LINE
  5
11B
330
17
100
AcDbEntity
  8
0
100
AcDbLine
 10
305.0100000000002
 20
-687.3249999999997
 30
0.0
 11
305.1860000000002
 21
-686.0509999999997
 31
0.0
  0
LINE
  5
11C
330
17
100
AcDbEntity
  8
0
100
AcDbLine
 10
305.1860000000002
 20
-686.0509999999997
 30
0.0
 11
305.5270000000002
 21
-684.8359999999997
 31
0.0
  0
LINE
  5
11D
330
17
100
AcDbEntity
  8
0
100
AcDbLine
 10
305.5270000000002
 20
-684.8359999999997
 30
0.0
 11
306.0200000000002
 21
-683.6919999999997
 31
0.0
  0
LINE
  5
11E
330
17
100
AcDbEntity
  8
0
100
AcDbLine
 10
306.0200000000002
 20
-683.6919999999997
 30
0.0
 11
306.6530000000002
 21
-682.6299999999997
 31
0.0
  0
LINE
  5
11F
330
17
100
AcDbEntity
  8
0
100
AcDbLine
 10
306.6530000000002
 20
-682.6299999999997
 30
0.0
 11
307.4150000000002
 21
-681.6619999999997
 31
0.0
  0
LINE
  5
120
330
17
100
AcDbEntity
  8
0
100
AcDbLine
 10
307.4150000000002
 20
-681.6619999999997
 30
0.0
 11
308.2930000000002
 21
-680.7999999999997
 31
0.0
  0
LINE
  5
121
330
17
100
AcDbEntity
  8
0
100
AcDbLine
 10
308.2930000000002
 20
-680.7999999999997
 30
0.0
 11
309.2760000000002
 21
-680.0559999999997
 31
0.0
  0
LINE
  5
122
330
17
100
AcDbEntity
  8
0
100
AcDbLine
 10
309.2760000000002
 20
-680.0559999999997
 30
0.0
 11
309.80300000000017
 21
-679.7319999999997
 31
0.0
  0
LINE
  5
123
330
17
100
AcDbEntity
  8
0
100
AcDbLine
 10
309.80300000000017
 20
-679.7319999999997
 30
0.0
 11
309.80300000000017
 21
-671.3829999999997
 31
0.0
  0
LINE
  5
124
330
17
100
AcDbEntity
  8
0
100
AcDbLine
 10
309.80300000000017
 20
-671.3829999999997
 30
0.0
 11
252.82900000000018
 21
-671.3289999999997
 31
0.0
  0
LINE
  5
125
330
17
100
AcDbEntity
  8
0
100
AcDbLine
 10
252.82900000000018
 20
-671.3289999999997
 30
0.0
 11
252.82900000000018
 21
-736.6789999999997
 31
0.0
  0
LINE
  5
126
330
17
100
AcDbEntity
  8
0
100
AcDbLine
 10
252.82900000000018
 20
-736.6789999999997
 30
0.0
 11
643.1050000000002
 21
-738.1509999999997
 31
0.0
  0
LINE
  5
127
330
17
100
AcDbEntity
  8
0
100
AcDbLine
 10
643.1050000000002
 20
-738.1509999999997
 30
0.0
 11
643.0160000000002
 21
-687.3209999999997
 31
0.0
  0
LINE
  5
128
330
17
100
AcDbEntity
  8
0
100
AcDbLine
 10
643.0160000000002
 20
-687.3209999999997
 30
0.0
 11
642.7560000000002
 21
-685.5849999999997
 31
0.0
  0
LINE
  5
129
330
17
100
AcDbEntity
  8
0
100
AcDbLine
 10
642.7560000000002
 20
-685.5849999999997
 30
0.0
 11
642.3330000000002
 21
-683.9099999999997
 31
0.0
  0
LINE
  5
12A
330
17
100
AcDbEntity
  8
0
100
AcDbLine
 10
642.3330000000002
 20
-683.9099999999997
 30
0.0
 11
641.7560000000002
 21
-682.3049999999997
 31
0.0
  0
LINE
  5
12B
330
17
100
AcDbEntity
  8
0
100
AcDbLine
 10
641.7560000000002
 20
-682.3049999999997
 30
0.0
 11
641.0340000000002
 21
-680.7779999999997
 31
0.0
  0
LINE
  5
12C
330
17
100
AcDbEntity
  8
0
100
AcDbLine
 10
641.0340000000002
 20
-680.7779999999997
 30
0.0
 11
640.1750000000002
 21
-679.3379999999996
 31
0.0
  0
LINE
  5
12D
330
17
100
AcDbEntity
  8
0
100
AcDbLine
 10
640.1750000000002
 20
-679.3379999999996
 30
0.0
 11
639.1880000000002
 21
-677.9939999999996
 31
0.0
  0
LINE
  5
12E
330
17
100
AcDbEntity
  8
0
100
AcDbLine
 10
639.1880000000002
 20
-677.9939999999996
 30
0.0
 11
638.0810000000002
 21
-676.7549999999995
 31
0.0
  0
LINE
  5
12F
330
17
100
AcDbEntity
  8
0
100
AcDbLine
 10
638.0810000000002
 20
-676.7549999999995
 30
0.0
 11
636.8640000000003
 21
-675.6299999999995
 31
0.0
  0
LINE
  5
130
330
17
100
AcDbEntity
  8
0
100
AcDbLine
 10
636.8640000000003
 20
-675.6299999999995
 30
0.0
 11
635.5440000000002
 21
-674.6279999999996
 31
0.0
  0
LINE
  5
131
330
17
100
AcDbEntity
  8
0
100
AcDbLine
 10
635.5440000000002
 20
-674.6279999999996
 30
0.0
 11
634.1310000000002
 21
-673.7569999999996
 31
0.0
  0
LINE
  5
132
330
17
100
AcDbEntity
  8
0
100
AcDbLine
 10
634.1310000000002
 20
-673.7569999999996
 30
0.0
 11
632.6330000000002
 21
-673.0259999999996
 31
0.0
  0
LINE
  5
133
330
17
100
AcDbEntity
  8
0
100
AcDbLine
 10
632.6330000000002
 20
-673.0259999999996
 30
0.0
 11
631.0590000000002
 21
-672.4439999999996
 31
0.0
  0
LINE
  5
134
330
17
100
AcDbEntity
  8
0
100
AcDbLine
 10
631.0590000000002
 20
-672.4439999999996
 30
0.0
 11
629.4180000000002
 21
-672.0199999999996
 31
0.0
  0
LINE
  5
135
330
17
100
AcDbEntity
  8
0
100
AcDbLine
 10
629.4180000000002
 20
-672.0199999999996
 30
0.0
 11
627.7180000000002
 21
-671.7629999999997
 31
0.0
  0
LINE
  5
136
330
17
100
AcDbEntity
  8
0
100
AcDbLine
 10
627.7180000000002
 20
-671.7629999999997
 30
0.0
 11
625.9680000000002
 21
-671.6809999999997
 31
0.0
  0
LINE
  5
137
330
17
100
AcDbEntity
  8
0
100
AcDbLine
 10
467.8280000000002
 20
-749.3699999999997
 30
0.0
 11
515.7020000000002
 21
-749.3699999999997
 31
0.0
  0
LINE
  5
138
330
17
100
AcDbEntity
  8
0
100
AcDbLine
 10
515.7020000000002
 20
-749.3699999999997
 30
0.0
 11
515.7020000000002
 21
-781.6549999999996
 31
0.0
  0
LINE
  5
139
330
17
100
AcDbEntity
  8
0
100
AcDbLine
 10
515.7020000000002
 20
-781.6549999999996
 30
0.0
 11
455.78300000000024
 21
-781.6549999999996
 31
0.0
  0
LINE
  5
13A
330
17
100
AcDbEntity
  8
0
100
AcDbLine
 10
455.78300000000024
 20
-781.6549999999996
 30
0.0
 11
464.77600000000024
 21
-760.0769999999997
 31
0.0
  0
LINE
  5
13B
330
17
100
AcDbEntity
  8
0
100
AcDbLine
 10
464.77600000000024
 20
-760.0769999999997
 30
0.0
 11
467.82900000000024
 21
-749.3699999999997
 31
0.0
  0
LINE
  5
13C
330
17
100
AcDbEntity
  8
0
100
AcDbLine
 10
559.0040000000002
 20
-749.3699999999997
 30
0.0
 11
559.0040000000002
 21
-778.3959999999996
 31
0.0
  0
LINE
  5
13D
330
17
100
AcDbEntity
  8
0
100
AcDbLine
 10
559.0040000000002
 20
-778.3959999999996
 30
0.0
 11
628.1050000000002
 21
-778.3039999999996
 31
0.0
  0
LINE
  5
13E
330
17
100
AcDbEntity
  8
0
100
AcDbLine
 10
628.1050000000002
 20
-778.3039999999996
 30
0.0
 11
629.8750000000002
 21
-778.0339999999997
 31
0.0
  0
LINE
  5
13F
330
17
100
AcDbEntity
  8
0
100
AcDbLine
 10
629.8750000000002
 20
-778.0339999999997
 30
0.0
 11
631.5830000000002
 21
-777.5949999999997
 31
0.0
  0
LINE
  5
140
330
17
100
AcDbEntity
  8
0
100
AcDbLine
 10
631.5830000000002
 20
-777.5949999999997
 30
0.0
 11
633.2200000000001
 21
-776.9959999999996
 31
0.0
  0
LINE
  5
141
330
17
100
AcDbEntity
  8
0
100
AcDbLine
 10
633.2200000000001
 20
-776.9959999999996
 30
0.0
 11
634.7780000000001
 21
-776.2459999999996
 31
0.0
  0
LINE
  5
142
330
17
100
AcDbEntity
  8
0
100
AcDbLine
 10
634.7780000000001
 20
-776.2459999999996
 30
0.0
 11
636.2470000000002
 21
-775.3529999999996
 31
0.0
  0
LINE
  5
143
330
17
100
AcDbEntity
  8
0
100
AcDbLine
 10
636.2470000000002
 20
-775.3529999999996
 30
0.0
 11
637.6190000000001
 21
-774.3269999999997
 31
0.0
  0
LINE
  5
144
330
17
100
AcDbEntity
  8
0
100
AcDbLine
 10
637.6190000000001
 20
-774.3269999999997
 30
0.0
 11
638.8850000000001
 21
-773.1769999999997
 31
0.0
  0
LINE
  5
145
330
17
100
AcDbEntity
  8
0
100
AcDbLine
 10
638.8850000000001
 20
-773.1769999999997
 30
0.0
 11
640.0350000000001
 21
-771.9109999999997
 31
0.0
  0
LINE
  5
146
330
17
100
AcDbEntity
  8
0
100
AcDbLine
 10
640.0350000000001
 20
-771.9109999999997
 30
0.0
 11
641.061
 21
-770.5389999999998
 31
0.0
  0
LINE
  5
147
330
17
100
AcDbEntity
  8
0
100
AcDbLine
 10
641.061
 20
-770.5389999999998
 30
0.0
 11
641.9540000000001
 21
-769.0699999999997
 31
0.0
  0
LINE
  5
148
330
17
100
AcDbEntity
  8
0
100
AcDbLine
 10
641.9540000000001
 20
-769.0699999999997
 30
0.0
 11
642.7040000000001
 21
-767.5119999999997
 31
0.0
  0
LINE
  5
149
330
17
100
AcDbEntity
  8
0
100
AcDbLine
 10
642.7040000000001
 20
-767.5119999999997
 30
0.0
 11
643.3030000000001
 21
-765.8749999999998
 31
0.0
  0
LINE
  5
14A
330
17
100
AcDbEntity
  8
0
100
AcDbLine
 10
643.3030000000001
 20
-765.8749999999998
 30
0.0
 11
643.7420000000001
 21
-764.1669999999998
 31
0.0
  0
LINE
  5
14B
330
17
100
AcDbEntity
  8
0
100
AcDbLine
 10
643.7420000000001
 20
-764.1669999999998
 30
0.0
 11
644.0120000000001
 21
-762.3969999999998
 31
0.0
  0
LINE
  5
14C
330
17
100
AcDbEntity
  8
0
100
AcDbLine
 10
644.0120000000001
 20
-762.3969999999998
 30
0.0
 11
644.104
 21
-748.7989999999999
 31
0.0
  0
LINE
  5
14D
330
17
100
AcDbEntity
  8
0
100
AcDbLine
 10
644.104
 20
-748.7989999999999
 30
0.0
 11
559.0020000000001
 21
-749.3709999999999
 31
0.0
  0
ENDSEC
  0
SECTION
  2
OBJECTS
  0
DICTIONARY
  5
A
330
0
100
AcDbDictionary
281
1
  3
ACAD_COLOR
350
B
  3
ACAD_GROUP
350
C
  3
ACAD_LAYOUT
350
D
  3
ACAD_MATERIAL
350
E
  3
ACAD_MLEADERSTYLE
350
F
  3
ACAD_MLINESTYLE
350
10
  3
ACAD_PLOTSETTINGS
350
11
  3
ACAD_PLOTSTYLENAME
350
12
  3
ACAD_SCALELIST
350
14
  3
ACAD_TABLESTYLE
350
15
  3
ACAD_VISUALSTYLE
350
16
  3
EZDXF_META
350
2D
  0
DICTIONARY
  5
B
330
A
100
AcDbDictionary
281
1
  0
DICTIONARY
  5
C
330
A
100
AcDbDictionary
281
1
  0
DICTIONARY
  5
D
330
A
100
AcDbDictionary
281
1
  3
Model
350
1A
  3
Layout1
350
1E
  0
DICTIONARY
  5
E
330
A
100
AcDbDictionary
281
1
  3
ByBlock
350
1F
  3
ByLayer
350
20
  3
Global
350
21
  0
DICTIONARY
  5
F
330
A
100
AcDbDictionary
281
1
  3
Standard
350
2C
  0
DICTIONARY
  5
10
330
A
100
AcDbDictionary
281
1
  3
Standard
350
22
  0
DICTIONARY
  5
11
330
A
100
AcDbDictionary
281
1
  0
ACDBDICTIONARYWDFLT
  5
12
330
A
100
AcDbDictionary
281
1
  3
Normal
350
13
100
AcDbDictionaryWithDefault
340
13
  0
ACDBPLACEHOLDER
  5
13
330
12
  0
DICTIONARY
  5
14
330
A
100
AcDbDictionary
281
1
  0
DICTIONARY
  5
15
330
A
100
AcDbDictionary
281
1
  0
DICTIONARY
  5
16
330
A
100
AcDbDictionary
281
1
  0
LAYOUT
  5
1A
330
D
100
AcDbPlotSettings
  1

  4
A3
  6

 40
7.5
 41
20.0
 42
7.5
 43
20.0
 44
420.0
 45
297.0
 46
0.0
 47
0.0
 48
0.0
 49
0.0
140
0.0
141
0.0
142
1.0
143
1.0
 70
1024
 72
1
 73
0
 74
5
  7

 75
16
 76
0
 77
2
 78
300
147
1.0
148
0.0
149
0.0
100
AcDbLayout
  1
Model
 70
1
 71
0
 10
0.0
 20
0.0
 11
420.0
 21
297.0
 12
0.0
 22
0.0
 32
0.0
 14
1e+20
 24
1e+20
 34
1e+20
 15
-1e+20
 25
-1e+20
 35
-1e+20
146
0.0
 13
0.0
 23
0.0
 33
0.0
 16
1.0
 26
0.0
 36
0.0
 17
0.0
 27
1.0
 37
0.0
 76
1
330
17
  0
LAYOUT
  5
1E
330
D
100
AcDbPlotSettings
  1

  4
A3
  6

 40
7.5
 41
20.0
 42
7.5
 43
20.0
 44
420.0
 45
297.0
 46
0.0
 47
0.0
 48
0.0
 49
0.0
140
0.0
141
0.0
142
1.0
143
1.0
 70
0
 72
1
 73
0
 74
5
  7

 75
16
 76
0
 77
2
 78
300
147
1.0
148
0.0
149
0.0
100
AcDbLayout
  1
Layout1
 70
1
 71
1
 10
0.0
 20
0.0
 11
420.0
 21
297.0
 12
0.0
 22
0.0
 32
0.0
 14
1e+20
 24
1e+20
 34
1e+20
 15
-1e+20
 25
-1e+20
 35
-1e+20
146
0.0
 13
0.0
 23
0.0
 33
0.0
 16
1.0
 26
0.0
 36
0.0
 17
0.0
 27
1.0
 37
0.0
 76
1
330
1B
  0
MATERIAL
  5
1F
102
{ACAD_REACTORS
330
E
102
}
330
E
100
AcDbMaterial
  1
ByBlock
  2

 70
0
 40
1.0
 71
1
 41
1.0
 91
-1023410177
 42
1.0
 72
1
  3

 73
1
 74
1
 75
1
 44
0.5
 73
0
 45
1.0
 46
1.0
 77
1
  4

 78
1
 79
1
170
1
 48
1.0
171
1
  6

172
1
173
1
174
1
140
1.0
141
1.0
175
1
  7

176
1
177
1
178
1
143
1.0
179
1
  8

270
1
271
1
272
1
145
1.0
146
1.0
273
1
  9

274
1
275
1
276
1
 42
1.0
 72
1
  3

 73
1
 74
1
 75
1
 94
63
  0
MATERIAL
  5
20
102
{ACAD_REACTORS
330
E
102
}
330
E
100
AcDbMaterial
  1
ByLayer
  2

 70
0
 40
1.0
 71
1
 41
1.0
 91
-1023410177
 42
1.0
 72
1
  3

 73
1
 74
1
 75
1
 44
0.5
 73
0
 45
1.0
 46
1.0
 77
1
  4

 78
1
 79
1
170
1
 48
1.0
171
1
  6

172
1
173
1
174
1
140
1.0
141
1.0
175
1
  7

176
1
177
1
178
1
143
1.0
179
1
  8

270
1
271
1
272
1
145
1.0
146
1.0
273
1
  9

274
1
275
1
276
1
 42
1.0
 72
1
  3

 73
1
 74
1
 75
1
 94
63
  0
MATERIAL
  5
21
102
{ACAD_REACTORS
330
E
102
}
330
E
100
AcDbMaterial
  1
Global
  2

 70
0
 40
1.0
 71
1
 41
1.0
 91
-1023410177
 42
1.0
 72
1
  3

 73
1
 74
1
 75
1
 44
0.5
 73
0
 45
1.0
 46
1.0
 77
1
  4

 78
1
 79
1
170
1
 48
1.0
171
1
  6

172
1
173
1
174
1
140
1.0
141
1.0
175
1
  7

176
1
177
1
178
1
143
1.0
179
1
  8

270
1
271
1
272
1
145
1.0
146
1.0
273
1
  9

274
1
275
1
276
1
 42
1.0
 72
1
  3

 73
1
 74
1
 75
1
 94
63
  0
MLINESTYLE
  5
22
102
{ACAD_REACTORS
330
10
102
}
330
10
100
AcDbMlineStyle
  2
Standard
 70
0
  3

 62
256
 51
90.0
 52
90.0
 71
2
 49
0.5
 62
256
  6
BYLAYER
 49
-0.5
 62
256
  6
BYLAYER
  0
MLEADERSTYLE
  5
2C
102
{ACAD_REACTORS
330
F
102
}
330
F
100
AcDbMLeaderStyle
179
2
170
2
171
1
172
0
 90
2
 40
0.0
 41
0.0
173
1
 91
-1056964608
 92
-2
290
1
 42
2.0
291
1
 43
8.0
  3
Standard
 44
4.0
300

342
29
174
1
175
1
176
0
178
1
 93
-1056964608
 45
4.0
292
0
297
0
 46
4.0
 94
-1056964608
 47
1.0
 49
1.0
140
1.0
294
1
141
0.0
177
0
142
1.0
295
0
296
0
143
3.75
271
0
272
9
273
9
  0
DICTIONARY
  5
2D
330
A
100
AcDbDictionary
280
1
281
1
  3
CREATED_BY_EZDXF
350
2E
  3
WRITTEN_BY_EZDXF
350
150
  0
DICTIONARYVAR
  5
2E
330
2D
100
DictionaryVariables
280
0
  1
1.4.3 @ 2026-04-08T00:10:11.089626+00:00
  0
DICTIONARYVAR
  5
150
330
2D
100
DictionaryVariables
280
0
  1
1.4.3 @ 2026-04-08T00:10:11.092197+00:00
  0
ENDSEC
  0
EOF
