  0
SECTION
  2
HEADER
  9
$ACADVER
  1
AC1024
  9
$ACADMAINTVER
 70
6
  9
$DWGCODEPAGE
  3
ANSI_1252
  9
$LASTSAVEDBY
  1
ezdxf
  9
$INSBASE
 10
0.0
 20
0.0
 30
0.0
  9
$EXTMIN
 10
1e+20
 20
1e+20
 30
1e+20
  9
$EXTMAX
 10
-1e+20
 20
-1e+20
 30
-1e+20
  9
$LIMMIN
 10
0.0
 20
0.0
  9
$LIMMAX
 10
420.0
 20
297.0
  9
$ORTHOMODE
 70
0
  9
$REGENMODE
 70
1
  9
$FILLMODE
 70
1
  9
$QTEXTMODE
 70
0
  9
$MIRRTEXT
 70
1
  9
$LTSCALE
 40
1.0
  9
$ATTMODE
 70
1
  9
$TEXTSIZE
 40
2.5
  9
$TRACEWID
 40
1.0
  9
$TEXTSTYLE
  7
Standard
  9
$CLAYER
  8
0
  9
$CELTYPE
  6
ByLayer
  9
$CECOLOR
 62
256
  9
$CELTSCALE
 40
1.0
  9
$DISPSILH
 70
0
  9
$DIMSCALE
 40
1.0
  9
$DIMASZ
 40
2.5
  9
$DIMEXO
 40
0.625
  9
$DIMDLI
 40
3.75
  9
$DIMRND
 40
0.0
  9
$DIMDLE
 40
0.0
  9
$DIMEXE
 40
1.25
  9
$DIMTP
 40
0.0
  9
$DIMTM
 40
0.0
  9
$DIMTXT
 40
2.5
  9
$DIMCEN
 40
2.5
  9
$DIMTSZ
 40
0.0
  9
$DIMTOL
 70
0
  9
$DIMLIM
 70
0
  9
$DIMTIH
 70
0
  9
$DIMTOH
 70
0
  9
$DIMSE1
 70
0
  9
$DIMSE2
 70
0
  9
$DIMTAD
 70
1
  9
$DIMZIN
 70
8
  9
$DIMBLK
  1

  9
$DIMASO
 70
1
  9
$DIMSHO
 70
1
  9
$DIMPOST
  1

  9
$DIMAPOST
  1

  9
$DIMALT
 70
0
  9
$DIMALTD
 70
3
  9
$DIMALTF
 40
0.03937007874
  9
$DIMLFAC
 40
1.0
  9
$DIMTOFL
 70
1
  9
$DIMTVP
 40
0.0
  9
$DIMTIX
 70
0
  9
$DIMSOXD
 70
0
  9
$DIMSAH
 70
0
  9
$DIMBLK1
  1

  9
$DIMBLK2
  1

  9
$DIMSTYLE
  2
ISO-25
  9
$DIMCLRD
 70
0
  9
$DIMCLRE
 70
0
  9
$DIMCLRT
 70
0
  9
$DIMTFAC
 40
1.0
  9
$DIMGAP
 40
0.625
  9
$DIMJUST
 70
0
  9
$DIMSD1
 70
0
  9
$DIMSD2
 70
0
  9
$DIMTOLJ
 70
0
  9
$DIMTZIN
 70
8
  9
$DIMALTZ
 70
0
  9
$DIMALTTZ
 70
0
  9
$DIMUPT
 70
0
  9
$DIMDEC
 70
2
  9
$DIMTDEC
 70
2
  9
$DIMALTU
 70
2
  9
$DIMALTTD
 70
3
  9
$DIMTXSTY
  7
Standard
  9
$DIMAUNIT
 70
0
  9
$DIMADEC
 70
0
  9
$DIMALTRND
 40
0.0
  9
$DIMAZIN
 70
0
  9
$DIMDSEP
 70
44
  9
$DIMATFIT
 70
3
  9
$DIMFRAC
 70
0
  9
$DIMLDRBLK
  1

  9
$DIMLUNIT
 70
2
  9
$DIMLWD
 70
-2
  9
$DIMLWE
 70
-2
  9
$DIMTMOVE
 70
0
  9
$DIMFXL
 40
1.0
  9
$DIMFXLON
 70
0
  9
$DIMJOGANG
 40
0.785398163397
  9
$DIMTFILL
 70
0
  9
$DIMTFILLCLR
 70
0
  9
$DIMARCSYM
 70
0
  9
$DIMLTYPE
  6

  9
$DIMLTEX1
  6

  9
$DIMLTEX2
  6

  9
$DIMTXTDIRECTION
 70
0
  9
$LUNITS
 70
2
  9
$LUPREC
 70
4
  9
$SKETCHINC
 40
1.0
  9
$FILLETRAD
 40
10.0
  9
$AUNITS
 70
0
  9
$AUPREC
 70
2
  9
$MENU
  1
.
  9
$ELEVATION
 40
0.0
  9
$PELEVATION
 40
0.0
  9
$THICKNESS
 40
0.0
  9
$LIMCHECK
 70
0
  9
$CHAMFERA
 40
0.0
  9
$CHAMFERB
 40
0.0
  9
$CHAMFERC
 40
0.0
  9
$CHAMFERD
 40
0.0
  9
$SKPOLY
 70
0
  9
$TDCREATE
 40
2461140.609212963
  9
$TDUCREATE
 40
2458532.153996898
  9
$TDUPDATE
 40
2461140.609212963
  9
$TDUUPDATE
 40
2458532.1544311
  9
$TDINDWG
 40
0.0
  9
$TDUSRTIMER
 40
0.0
  9
$USRTIMER
 70
1
  9
$ANGBASE
 50
0.0
  9
$ANGDIR
 70
0
  9
$PDMODE
 70
0
  9
$PDSIZE
 40
0.0
  9
$PLINEWID
 40
0.0
  9
$SPLFRAME
 70
0
  9
$SPLINETYPE
 70
6
  9
$SPLINESEGS
 70
8
  9
$HANDSEED
  5
2B5
  9
$SURFTAB1
 70
6
  9
$SURFTAB2
 70
6
  9
$SURFTYPE
 70
6
  9
$SURFU
 70
6
  9
$SURFV
 70
6
  9
$UCSBASE
  2

  9
$UCSNAME
  2

  9
$UCSORG
 10
0.0
 20
0.0
 30
0.0
  9
$UCSXDIR
 10
1.0
 20
0.0
 30
0.0
  9
$UCSYDIR
 10
0.0
 20
1.0
 30
0.0
  9
$UCSORTHOREF
  2

  9
$UCSORTHOVIEW
 70
0
  9
$UCSORGTOP
 10
0.0
 20
0.0
 30
0.0
  9
$UCSORGBOTTOM
 10
0.0
 20
0.0
 30
0.0
  9
$UCSORGLEFT
 10
0.0
 20
0.0
 30
0.0
  9
$UCSORGRIGHT
 10
0.0
 20
0.0
 30
0.0
  9
$UCSORGFRONT
 10
0.0
 20
0.0
 30
0.0
  9
$UCSORGBACK
 10
0.0
 20
0.0
 30
0.0
  9
$PUCSBASE
  2

  9
$PUCSNAME
  2

  9
$PUCSORG
 10
0.0
 20
0.0
 30
0.0
  9
$PUCSXDIR
 10
1.0
 20
0.0
 30
0.0
  9
$PUCSYDIR
 10
0.0
 20
1.0
 30
0.0
  9
$PUCSORTHOREF
  2

  9
$PUCSORTHOVIEW
 70
0
  9
$PUCSORGTOP
 10
0.0
 20
0.0
 30
0.0
  9
$PUCSORGBOTTOM
 10
0.0
 20
0.0
 30
0.0
  9
$PUCSORGLEFT
 10
0.0
 20
0.0
 30
0.0
  9
$PUCSORGRIGHT
 10
0.0
 20
0.0
 30
0.0
  9
$PUCSORGFRONT
 10
0.0
 20
0.0
 30
0.0
  9
$PUCSORGBACK
 10
0.0
 20
0.0
 30
0.0
  9
$USERI1
 70
0
  9
$USERI2
 70
0
  9
$USERI3
 70
0
  9
$USERI4
 70
0
  9
$USERI5
 70
0
  9
$USERR1
 40
0.0
  9
$USERR2
 40
0.0
  9
$USERR3
 40
0.0
  9
$USERR4
 40
0.0
  9
$USERR5
 40
0.0
  9
$WORLDVIEW
 70
1
  9
$SHADEDGE
 70
3
  9
$SHADEDIF
 70
70
  9
$TILEMODE
 70
1
  9
$MAXACTVP
 70
64
  9
$PINSBASE
 10
0.0
 20
0.0
 30
0.0
  9
$PLIMCHECK
 70
0
  9
$PEXTMIN
 10
1e+20
 20
1e+20
 30
1e+20
  9
$PEXTMAX
 10
-1e+20
 20
-1e+20
 30
-1e+20
  9
$PLIMMIN
 10
0.0
 20
0.0
  9
$PLIMMAX
 10
420.0
 20
297.0
  9
$UNITMODE
 70
0
  9
$VISRETAIN
 70
1
  9
$PLINEGEN
 70
0
  9
$PSLTSCALE
 70
1
  9
$TREEDEPTH
 70
3020
  9
$CMLSTYLE
  2
Standard
  9
$CMLJUST
 70
0
  9
$CMLSCALE
 40
20.0
  9
$PROXYGRAPHICS
 70
1
  9
$MEASUREMENT
 70
1
  9
$CELWEIGHT
370
-1
  9
$ENDCAPS
280
0
  9
$JOINSTYLE
280
0
  9
$LWDISPLAY
290
0
  9
$INSUNITS
 70
4
  9
$HYPERLINKBASE
  1

  9
$STYLESHEET
  1

  9
$XEDIT
290
1
  9
$CEPSNTYPE
380
0
  9
$PSTYLEMODE
290
1
  9
$FINGERPRINTGUID
  2
{DD4F7333-5DE5-413E-86BE-5EB6FCB662AC}
  9
$VERSIONGUID
  2
{36FE2F6C-A968-4FC5-8873-3B9AAB047E3A}
  9
$EXTNAMES
290
1
  9
$PSVPSCALE
 40
0.0
  9
$OLESTARTUP
290
0
  9
$SORTENTS
280
127
  9
$INDEXCTL
280
0
  9
$HIDETEXT
280
1
  9
$XCLIPFRAME
280
1
  9
$HALOGAP
280
0
  9
$OBSCOLOR
 70
257
  9
$OBSLTYPE
280
0
  9
$INTERSECTIONDISPLAY
280
0
  9
$INTERSECTIONCOLOR
 70
257
  9
$DIMASSOC
280
2
  9
$PROJECTNAME
  1

  9
$CAMERADISPLAY
290
0
  9
$LENSLENGTH
 40
50.0
  9
$CAMERAHEIGHT
 40
0.0
  9
$STEPSPERSEC
 40
24.0
  9
$STEPSIZE
 40
100.0
  9
$3DDWFPREC
 40
2.0
  9
$PSOLWIDTH
 40
0.005
  9
$PSOLHEIGHT
 40
0.08
  9
$LOFTANG1
 40
1.570796326795
  9
$LOFTANG2
 40
1.570796326795
  9
$LOFTMAG1
 40
0.0
  9
$LOFTMAG2
 40
0.0
  9
$LOFTPARAM
 70
7
  9
$LOFTNORMALS
280
1
  9
$LATITUDE
 40
37.795
  9
$LONGITUDE
 40
-122.394
  9
$NORTHDIRECTION
 40
0.0
  9
$TIMEZONE
 70
-8000
  9
$LIGHTGLYPHDISPLAY
280
1
  9
$TILEMODELIGHTSYNCH
280
1
  9
$CMATERIAL
347
20
  9
$SOLIDHIST
280
0
  9
$SHOWHIST
280
1
  9
$DWFFRAME
280
2
  9
$DGNFRAME
280
2
  9
$REALWORLDSCALE
290
1
  9
$INTERFERECOLOR
 62
256
  9
$CSHADOW
280
0
  9
$SHADOWPLANELOCATION
 40
0.0
  0
ENDSEC
  0
SECTION
  2
CLASSES
  0
CLASS
  1
ACDBDICTIONARYWDFLT
  2
AcDbDictionaryWithDefault
  3
ObjectDBX Classes
 90
0
 91
0
280
0
281
0
  0
CLASS
  1
SUN
  2
AcDbSun
  3
SCENEOE
 90
1153
 91
0
280
0
281
0
  0
CLASS
  1
VISUALSTYLE
  2
AcDbVisualStyle
  3
ObjectDBX Classes
 90
4095
 91
0
280
0
281
0
  0
CLASS
  1
MATERIAL
  2
AcDbMaterial
  3
ObjectDBX Classes
 90
1153
 91
0
280
0
281
0
  0
CLASS
  1
SCALE
  2
AcDbScale
  3
ObjectDBX Classes
 90
1153
 91
0
280
0
281
0
  0
CLASS
  1
TABLESTYLE
  2
AcDbTableStyle
  3
ObjectDBX Classes
 90
4095
 91
0
280
0
281
0
  0
CLASS
  1
MLEADERSTYLE
  2
AcDbMLeaderStyle
  3
ACDB_MLEADERSTYLE_CLASS
 90
4095
 91
0
280
0
281
0
  0
CLASS
  1
DICTIONARYVAR
  2
AcDbDictionaryVar
  3
ObjectDBX Classes
 90
0
 91
0
280
0
281
0
  0
CLASS
  1
CELLSTYLEMAP
  2
AcDbCellStyleMap
  3
ObjectDBX Classes
 90
1152
 91
0
280
0
281
0
  0
CLASS
  1
MENTALRAYRENDERSETTINGS
  2
AcDbMentalRayRenderSettings
  3
SCENEOE
 90
1024
 91
0
280
0
281
0
  0
CLASS
  1
ACDBDETAILVIEWSTYLE
  2
AcDbDetailViewStyle
  3
ObjectDBX Classes
 90
1025
 91
0
280
0
281
0
  0
CLASS
  1
ACDBSECTIONVIEWSTYLE
  2
AcDbSectionViewStyle
  3
ObjectDBX Classes
 90
1025
 91
0
280
0
281
0
  0
CLASS
  1
RASTERVARIABLES
  2
AcDbRasterVariables
  3
ISM
 90
0
 91
0
280
0
281
0
  0
CLASS
  1
LAYOUT
  2
AcDbLayout
  3
ObjectDBX Classes
 90
0
 91
0
280
0
281
0
  0
CLASS
  1
ACDBPLACEHOLDER
  2
AcDbPlaceHolder
  3
ObjectDBX Classes
 90
0
 91
0
280
0
281
0
  0
ENDSEC
  0
SECTION
  2
TABLES
  0
TABLE
  2
VPORT
  5
8
330
0
100
AcDbSymbolTable
 70
1
  0
VPORT
  5
23
330
8
100
AcDbSymbolTableRecord
100
AcDbViewportTableRecord
  2
*Active
 70
0
 10
0.0
 20
0.0
 11
1.0
 21
1.0
 12
0.0
 22
0.0
 13
0.0
 23
0.0
 14
0.5
 24
0.5
 15
0.5
 25
0.5
 16
0.0
 26
0.0
 36
1.0
 17
0.0
 27
0.0
 37
0.0
 40
1000.0
 41
1.34
 42
50.0
 43
0.0
 44
0.0
 50
0.0
 51
0.0
 71
0
 72
1000
 73
1
 74
3
 75
0
 76
0
 77
0
 78
0
281
0
 65
0
146
0.0
  0
ENDTAB
  0
TABLE
  2
LTYPE
  5
2
330
0
100
AcDbSymbolTable
 70
3
  0
LTYPE
  5
24
330
2
100
AcDbSymbolTableRecord
100
AcDbLinetypeTableRecord
  2
ByBlock
 70
0
  3

 72
65
 73
0
 40
0.0
  0
LTYPE
  5
25
330
2
100
AcDbSymbolTableRecord
100
AcDbLinetypeTableRecord
  2
ByLayer
 70
0
  3

 72
65
 73
0
 40
0.0
  0
LTYPE
  5
26
330
2
100
AcDbSymbolTableRecord
100
AcDbLinetypeTableRecord
  2
Continuous
 70
0
  3

 72
65
 73
0
 40
0.0
  0
ENDTAB
  0
TABLE
  2
LAYER
  5
1
330
0
100
AcDbSymbolTable
 70
2
  0
LAYER
  5
27
330
1
100
AcDbSymbolTableRecord
100
AcDbLayerTableRecord
  2
0
 70
0
 62
7
  6
Continuous
370
-3
390
13
347
21
  0
LAYER
  5
28
330
1
100
AcDbSymbolTableRecord
100
AcDbLayerTableRecord
  2
Defpoints
 70
0
 62
7
  6
Continuous
290
0
370
-3
390
13
347
21
  0
ENDTAB
  0
TABLE
  2
STYLE
  5
5
330
0
100
AcDbSymbolTable
 70
1
  0
STYLE
  5
29
330
5
100
AcDbSymbolTableRecord
100
AcDbTextStyleTableRecord
  2
Standard
 70
0
 40
0.0
 41
1.0
 50
0.0
 71
0
 42
2.5
  3
txt
  4

  0
ENDTAB
  0
TABLE
  2
VIEW
  5
7
330
0
100
AcDbSymbolTable
 70
0
  0
ENDTAB
  0
TABLE
  2
UCS
  5
6
330
0
100
AcDbSymbolTable
 70
0
  0
ENDTAB
  0
TABLE
  2
APPID
  5
3
330
0
100
AcDbSymbolTable
 70
3
  0
APPID
  5
2A
330
3
100
AcDbSymbolTableRecord
100
AcDbRegAppTableRecord
  2
ACAD
 70
0
  0
APPID
  5
2B2
330
3
100
AcDbSymbolTableRecord
100
AcDbRegAppTableRecord
  2
HATCHBACKGROUNDCOLOR
 70
0
  0
APPID
  5
2B3
330
3
100
AcDbSymbolTableRecord
100
AcDbRegAppTableRecord
  2
EZDXF
 70
0
  0
ENDTAB
  0
TABLE
  2
DIMSTYLE
  5
4
330
0
100
AcDbSymbolTable
 70
1
100
AcDbDimStyleTable
  0
DIMSTYLE
105
2B
330
4
100
AcDbSymbolTableRecord
100
AcDbDimStyleTableRecord
  2
Standard
 70
0
 40
1.0
 41
2.5
 42
0.625
 43
3.75
 44
1.25
 45
0.0
 46
0.0
 47
0.0
 48
0.0
 49
2.5
140
2.5
141
2.5
142
0.0
143
0.03937007874
144
1.0
145
0.0
146
1.0
147
0.625
148
0.0
 69
0
 70
0
 71
0
 72
0
 73
0
 74
0
 75
0
 76
0
 77
1
 78
8
 79
3
170
0
171
3
172
1
173
0
174
0
175
0
176
0
177
0
178
0
179
2
271
2
272
2
273
2
274
3
275
0
276
0
277
2
278
44
279
0
280
0
281
0
282
0
283
0
284
8
285
0
286
0
288
0
289
3
290
0
371
-2
372
-2
  0
ENDTAB
  0
TABLE
  2
BLOCK_RECORD
  5
9
330
0
100
AcDbSymbolTable
 70
3
  0
BLOCK_RECORD
  5
17
330
9
100
AcDbSymbolTableRecord
100
AcDbBlockTableRecord
  2
*Model_Space
340
1A
 70
0
280
1
281
0
  0
BLOCK_RECORD
  5
1B
330
9
100
AcDbSymbolTableRecord
100
AcDbBlockTableRecord
  2
*Paper_Space
340
1E
 70
0
280
1
281
0
  0
BLOCK_RECORD
  5
2F
330
9
100
AcDbSymbolTableRecord
100
AcDbBlockTableRecord
  2
HEX
340
0
 70
0
280
1
281
0
  0
ENDTAB
  0
ENDSEC
  0
SECTION
  2
BLOCKS
  0
BLOCK
  5
18
330
17
100
AcDbEntity
  8
0
100
AcDbBlockBegin
  2
*Model_Space
 70
0
 10
0.0
 20
0.0
 30
0.0
  3
*Model_Space
  1

  0
ENDBLK
  5
19
330
17
100
AcDbEntity
  8
0
100
AcDbBlockEnd
  0
BLOCK
  5
1C
330
1B
100
AcDbEntity
  8
0
100
AcDbBlockBegin
  2
*Paper_Space
 70
0
 10
0.0
 20
0.0
 30
0.0
  3
*Paper_Space
  1

  0
ENDBLK
  5
1D
330
1B
100
AcDbEntity
  8
0
100
AcDbBlockEnd
  0
BLOCK
  5
30
330
2F
100
AcDbEntity
  8
0
100
AcDbBlockBegin
  2
HEX
 70
0
 10
0.0
 20
0.0
 30
0.0
  3
HEX
  1

  0
LWPOLYLINE
  5
32
330
2F
100
AcDbEntity
  8
0
100
AcDbPolyline
 90
6
 70
1
 10
1.516
 20
0.875
 10
0.0
 20
1.75
 10
-1.516
 20
0.875
 10
-1.516
 20
-0.875
 10
-0.0
 20
-1.75
 10
1.516
 20
-0.875
  0
ENDBLK
  5
31
330
2F
100
AcDbEntity
  8
0
100
AcDbBlockEnd
  0
ENDSEC
  0
SECTION
  2
ENTITIES
  0
LWPOLYLINE
  5
33
330
17
100
AcDbEntity
  8
0
100
AcDbPolyline
 90
6
 70
1
 10
18.395
 20
-289.367
 10
17.379
 20
-288.734
 10
17.552
 20
-288.635
 10
19.068
 20
-289.51
 10
19.068
 20
-289.585
 10
18.395
 20
-289.367
  0
LWPOLYLINE
  5
34
330
17
100
AcDbEntity
  8
0
100
AcDbPolyline
 90
10
 70
1
 10
21.952
 20
-289.919
 10
21.535
 20
-289.943
 10
20.707
 20
-289.92
 10
19.605
 20
-289.759
 10
19.568
 20
-289.747
 10
19.568
 20
-289.51
 10
21.083
 20
-288.635
 10
22.599
 20
-289.51
 10
22.599
 20
-289.91
 10
21.952
 20
-289.919
  0
LWPOLYLINE
  5
35
330
17
100
AcDbEntity
  8
0
100
AcDbPolyline
 90
6
 70
1
 10
26.13
 20
-289.862
 10
23.099
 20
-289.904
 10
23.099
 20
-289.51
 10
24.614
 20
-288.635
 10
26.13
 20
-289.51
 10
26.13
 20
-289.862
  0
LWPOLYLINE
  5
36
330
17
100
AcDbEntity
  8
0
100
AcDbPolyline
 90
6
 70
1
 10
29.661
 20
-289.813
 10
26.63
 20
-289.855
 10
26.63
 20
-289.51
 10
28.145
 20
-288.635
 10
29.661
 20
-289.51
 10
29.661
 20
-289.813
  0
LWPOLYLINE
  5
37
330
17
100
AcDbEntity
  8
0
100
AcDbPolyline
 90
6
 70
1
 10
33.192
 20
-289.764
 10
30.161
 20
-289.806
 10
30.161
 20
-289.51
 10
31.676
 20
-288.635
 10
33.192
 20
-289.51
 10
33.192
 20
-289.764
  0
LWPOLYLINE
  5
38
330
17
100
AcDbEntity
  8
0
100
AcDbPolyline
 90
6
 70
1
 10
36.723
 20
-289.716
 10
33.692
 20
-289.757
 10
33.692
 20
-289.51
 10
35.207
 20
-288.635
 10
36.723
 20
-289.51
 10
36.723
 20
-289.716
  0
LWPOLYLINE
  5
39
330
17
100
AcDbEntity
  8
0
100
AcDbPolyline
 90
6
 70
1
 10
40.254
 20
-289.667
 10
37.223
 20
-289.709
 10
37.223
 20
-289.51
 10
38.739
 20
-288.635
 10
40.254
 20
-289.51
 10
40.254
 20
-289.667
  0
LWPOLYLINE
  5
3A
330
17
100
AcDbEntity
  8
0
100
AcDbPolyline
 90
6
 70
1
 10
43.785
 20
-289.618
 10
40.754
 20
-289.66
 10
40.754
 20
-289.51
 10
42.27
 20
-288.635
 10
43.785
 20
-289.51
 10
43.785
 20
-289.618
  0
LWPOLYLINE
  5
3B
330
17
100
AcDbEntity
  8
0
100
AcDbPolyline
 90
6
 70
1
 10
47.316
 20
-289.569
 10
44.285
 20
-289.611
 10
44.285
 20
-289.51
 10
45.801
 20
-288.635
 10
47.316
 20
-289.51
 10
47.316
 20
-289.569
  0
LWPOLYLINE
  5
3C
330
17
100
AcDbEntity
  8
0
100
AcDbPolyline
 90
8
 70
1
 10
49.757
 20
-288.88
 10
49.279
 20
-289.178
 10
48.788
 20
-289.384
 10
48.267
 20
-289.514
 10
47.816
 20
-289.555
 10
47.816
 20
-289.51
 10
49.332
 20
-288.635
 10
49.757
 20
-288.88
  0
LWPOLYLINE
  5
3D
330
17
100
AcDbEntity
  8
0
100
AcDbPolyline
 90
8
 70
1
 10
16.306
 20
-287.509
 10
15.756
 20
-285.854
 10
15.756
 20
-285.594
 10
15.786
 20
-285.576
 10
17.302
 20
-286.451
 10
17.302
 20
-288.201
 10
17.012
 20
-288.369
 10
16.306
 20
-287.509
  0
INSERT
  5
3E
330
17
100
AcDbEntity
  8
0
100
AcDbBlockReference
  2
HEX
 10
19.318
 20
-287.326
 30
0.0
  0
INSERT
  5
40
330
17
100
AcDbEntity
  8
0
100
AcDbBlockReference
  2
HEX
 10
22.849
 20
-287.326
 30
0.0
  0
INSERT
  5
42
330
17
100
AcDbEntity
  8
0
100
AcDbBlockReference
  2
HEX
 10
26.38
 20
-287.326
 30
0.0
  0
INSERT
  5
44
330
17
100
AcDbEntity
  8
0
100
AcDbBlockReference
  2
HEX
 10
29.911
 20
-287.326
 30
0.0
  0
INSERT
  5
46
330
17
100
AcDbEntity
  8
0
100
AcDbBlockReference
  2
HEX
 10
33.442
 20
-287.326
 30
0.0
  0
INSERT
  5
48
330
17
100
AcDbEntity
  8
0
100
AcDbBlockReference
  2
HEX
 10
36.973
 20
-287.326
 30
0.0
  0
INSERT
  5
4A
330
17
100
AcDbEntity
  8
0
100
AcDbBlockReference
  2
HEX
 10
40.504
 20
-287.326
 30
0.0
  0
INSERT
  5
4C
330
17
100
AcDbEntity
  8
0
100
AcDbBlockReference
  2
HEX
 10
44.035
 20
-287.326
 30
0.0
  0
INSERT
  5
4E
330
17
100
AcDbEntity
  8
0
100
AcDbBlockReference
  2
HEX
 10
47.566
 20
-287.326
 30
0.0
  0
LWPOLYLINE
  5
50
330
17
100
AcDbEntity
  8
0
100
AcDbPolyline
 90
9
 70
1
 10
50.997
 20
-287.208
 10
50.777
 20
-287.709
 10
50.487
 20
-288.162
 10
50.159
 20
-288.535
 10
49.582
 20
-288.201
 10
49.582
 20
-286.451
 10
51.097
 20
-285.576
 10
51.522
 20
-285.822
 10
50.997
 20
-287.208
  0
INSERT
  5
51
330
17
100
AcDbEntity
  8
0
100
AcDbBlockReference
  2
HEX
 10
17.552
 20
-284.268
 30
0.0
  0
INSERT
  5
53
330
17
100
AcDbEntity
  8
0
100
AcDbBlockReference
  2
HEX
 10
21.083
 20
-284.268
 30
0.0
  0
INSERT
  5
55
330
17
100
AcDbEntity
  8
0
100
AcDbBlockReference
  2
HEX
 10
24.614
 20
-284.268
 30
0.0
  0
INSERT
  5
57
330
17
100
AcDbEntity
  8
0
100
AcDbBlockReference
  2
HEX
 10
28.145
 20
-284.268
 30
0.0
  0
INSERT
  5
59
330
17
100
AcDbEntity
  8
0
100
AcDbBlockReference
  2
HEX
 10
31.676
 20
-284.268
 30
0.0
  0
INSERT
  5
5B
330
17
100
AcDbEntity
  8
0
100
AcDbBlockReference
  2
HEX
 10
35.207
 20
-284.268
 30
0.0
  0
INSERT
  5
5D
330
17
100
AcDbEntity
  8
0
100
AcDbBlockReference
  2
HEX
 10
38.739
 20
-284.268
 30
0.0
  0
INSERT
  5
5F
330
17
100
AcDbEntity
  8
0
100
AcDbBlockReference
  2
HEX
 10
42.27
 20
-284.268
 30
0.0
  0
INSERT
  5
61
330
17
100
AcDbEntity
  8
0
100
AcDbBlockReference
  2
HEX
 10
45.801
 20
-284.268
 30
0.0
  0
INSERT
  5
63
330
17
100
AcDbEntity
  8
0
100
AcDbBlockReference
  2
HEX
 10
49.332
 20
-284.268
 30
0.0
  0
LWPOLYLINE
  5
65
330
17
100
AcDbEntity
  8
0
100
AcDbPolyline
 90
5
 70
1
 10
51.701
 20
-285.348
 10
51.347
 20
-285.143
 10
51.347
 20
-283.393
 10
52.746
 20
-282.586
 10
51.701
 20
-285.348
  0
LWPOLYLINE
  5
66
330
17
100
AcDbEntity
  8
0
100
AcDbPolyline
 90
7
 70
1
 10
16.007
 20
-281.905
 10
16.325
 20
-280.327
 10
16.45
 20
-279.843
 10
17.302
 20
-280.335
 10
17.302
 20
-282.085
 10
15.856
 20
-282.921
 10
16.007
 20
-281.905
  0
INSERT
  5
67
330
17
100
AcDbEntity
  8
0
100
AcDbBlockReference
  2
HEX
 10
19.318
 20
-281.21
 30
0.0
  0
INSERT
  5
69
330
17
100
AcDbEntity
  8
0
100
AcDbBlockReference
  2
HEX
 10
22.849
 20
-281.21
 30
0.0
  0
INSERT
  5
6B
330
17
100
AcDbEntity
  8
0
100
AcDbBlockReference
  2
HEX
 10
26.38
 20
-281.21
 30
0.0
  0
INSERT
  5
6D
330
17
100
AcDbEntity
  8
0
100
AcDbBlockReference
  2
HEX
 10
29.911
 20
-281.21
 30
0.0
  0
INSERT
  5
6F
330
17
100
AcDbEntity
  8
0
100
AcDbBlockReference
  2
HEX
 10
33.442
 20
-281.21
 30
0.0
  0
INSERT
  5
71
330
17
100
AcDbEntity
  8
0
100
AcDbBlockReference
  2
HEX
 10
36.973
 20
-281.21
 30
0.0
  0
INSERT
  5
73
330
17
100
AcDbEntity
  8
0
100
AcDbBlockReference
  2
HEX
 10
40.504
 20
-281.21
 30
0.0
  0
INSERT
  5
75
330
17
100
AcDbEntity
  8
0
100
AcDbBlockReference
  2
HEX
 10
44.035
 20
-281.21
 30
0.0
  0
INSERT
  5
77
330
17
100
AcDbEntity
  8
0
100
AcDbBlockReference
  2
HEX
 10
47.566
 20
-281.21
 30
0.0
  0
INSERT
  5
79
330
17
100
AcDbEntity
  8
0
100
AcDbBlockReference
  2
HEX
 10
51.097
 20
-281.21
 30
0.0
  0
LWPOLYLINE
  5
7B
330
17
100
AcDbEntity
  8
0
100
AcDbPolyline
 90
4
 70
1
 10
53.733
 20
-279.977
 10
53.113
 20
-281.617
 10
53.113
 20
-280.335
 10
53.733
 20
-279.977
  0
LWPOLYLINE
  5
7C
330
17
100
AcDbEntity
  8
0
100
AcDbPolyline
 90
9
 70
1
 10
16.712
 20
-278.828
 10
17.172
 20
-277.381
 10
17.538
 20
-276.41
 10
17.552
 20
-276.402
 10
19.068
 20
-277.277
 10
19.068
 20
-279.027
 10
17.552
 20
-279.902
 10
16.579
 20
-279.341
 10
16.712
 20
-278.828
  0
INSERT
  5
7D
330
17
100
AcDbEntity
  8
0
100
AcDbBlockReference
  2
HEX
 10
21.083
 20
-278.152
 30
0.0
  0
INSERT
  5
7F
330
17
100
AcDbEntity
  8
0
100
AcDbBlockReference
  2
HEX
 10
24.614
 20
-278.152
 30
0.0
  0
INSERT
  5
81
330
17
100
AcDbEntity
  8
0
100
AcDbBlockReference
  2
HEX
 10
28.145
 20
-278.152
 30
0.0
  0
INSERT
  5
83
330
17
100
AcDbEntity
  8
0
100
AcDbBlockReference
  2
HEX
 10
31.676
 20
-278.152
 30
0.0
  0
INSERT
  5
85
330
17
100
AcDbEntity
  8
0
100
AcDbBlockReference
  2
HEX
 10
35.207
 20
-278.152
 30
0.0
  0
INSERT
  5
87
330
17
100
AcDbEntity
  8
0
100
AcDbBlockReference
  2
HEX
 10
38.739
 20
-278.152
 30
0.0
  0
INSERT
  5
89
330
17
100
AcDbEntity
  8
0
100
AcDbBlockReference
  2
HEX
 10
42.27
 20
-278.152
 30
0.0
  0
INSERT
  5
8B
330
17
100
AcDbEntity
  8
0
100
AcDbBlockReference
  2
HEX
 10
45.801
 20
-278.152
 30
0.0
  0
INSERT
  5
8D
330
17
100
AcDbEntity
  8
0
100
AcDbBlockReference
  2
HEX
 10
49.332
 20
-278.152
 30
0.0
  0
LWPOLYLINE
  5
8F
330
17
100
AcDbEntity
  8
0
100
AcDbPolyline
 90
8
 70
1
 10
54.013
 20
-279.238
 10
52.863
 20
-279.902
 10
51.347
 20
-279.027
 10
51.347
 20
-277.277
 10
52.863
 20
-276.402
 10
54.378
 20
-277.277
 10
54.378
 20
-278.273
 10
54.013
 20
-279.238
  0
LWPOLYLINE
  5
90
330
17
100
AcDbEntity
  8
0
100
AcDbPolyline
 90
9
 70
1
 10
18.327
 20
-274.534
 10
18.741
 20
-273.677
 10
19.318
 20
-273.344
 10
20.833
 20
-274.219
 10
20.833
 20
-275.969
 10
19.318
 20
-276.844
 10
17.802
 20
-275.969
 10
17.802
 20
-275.744
 10
18.327
 20
-274.534
  0
INSERT
  5
91
330
17
100
AcDbEntity
  8
0
100
AcDbBlockReference
  2
HEX
 10
22.849
 20
-275.094
 30
0.0
  0
INSERT
  5
93
330
17
100
AcDbEntity
  8
0
100
AcDbBlockReference
  2
HEX
 10
26.38
 20
-275.094
 30
0.0
  0
INSERT
  5
95
330
17
100
AcDbEntity
  8
0
100
AcDbBlockReference
  2
HEX
 10
29.911
 20
-275.094
 30
0.0
  0
INSERT
  5
97
330
17
100
AcDbEntity
  8
0
100
AcDbBlockReference
  2
HEX
 10
33.442
 20
-275.094
 30
0.0
  0
INSERT
  5
99
330
17
100
AcDbEntity
  8
0
100
AcDbBlockReference
  2
HEX
 10
36.973
 20
-275.094
 30
0.0
  0
INSERT
  5
9B
330
17
100
AcDbEntity
  8
0
100
AcDbBlockReference
  2
HEX
 10
40.504
 20
-275.094
 30
0.0
  0
INSERT
  5
9D
330
17
100
AcDbEntity
  8
0
100
AcDbBlockReference
  2
HEX
 10
44.035
 20
-275.094
 30
0.0
  0
INSERT
  5
9F
330
17
100
AcDbEntity
  8
0
100
AcDbBlockReference
  2
HEX
 10
47.566
 20
-275.094
 30
0.0
  0
INSERT
  5
A1
330
17
100
AcDbEntity
  8
0
100
AcDbBlockReference
  2
HEX
 10
51.097
 20
-275.094
 30
0.0
  0
LWPOLYLINE
  5
A3
330
17
100
AcDbEntity
  8
0
100
AcDbPolyline
 90
7
 70
1
 10
55.954
 20
-274.11
 10
55.0
 20
-276.63
 10
54.628
 20
-276.844
 10
53.113
 20
-275.969
 10
53.113
 20
-274.219
 10
54.628
 20
-273.344
 10
55.954
 20
-274.11
  0
LWPOLYLINE
  5
A4
330
17
100
AcDbEntity
  8
0
100
AcDbPolyline
 90
8
 70
1
 10
19.568
 20
-272.055
 10
20.254
 20
-270.765
 10
21.083
 20
-270.286
 10
22.599
 20
-271.161
 10
22.599
 20
-272.911
 10
21.083
 20
-273.786
 10
19.568
 20
-272.911
 10
19.568
 20
-272.055
  0
INSERT
  5
A5
330
17
100
AcDbEntity
  8
0
100
AcDbBlockReference
  2
HEX
 10
24.614
 20
-272.036
 30
0.0
  0
INSERT
  5
A7
330
17
100
AcDbEntity
  8
0
100
AcDbBlockReference
  2
HEX
 10
28.145
 20
-272.036
 30
0.0
  0
INSERT
  5
A9
330
17
100
AcDbEntity
  8
0
100
AcDbBlockReference
  2
HEX
 10
31.676
 20
-272.036
 30
0.0
  0
INSERT
  5
AB
330
17
100
AcDbEntity
  8
0
100
AcDbBlockReference
  2
HEX
 10
35.207
 20
-272.036
 30
0.0
  0
INSERT
  5
AD
330
17
100
AcDbEntity
  8
0
100
AcDbBlockReference
  2
HEX
 10
38.739
 20
-272.036
 30
0.0
  0
INSERT
  5
AF
330
17
100
AcDbEntity
  8
0
100
AcDbBlockReference
  2
HEX
 10
42.27
 20
-272.036
 30
0.0
  0
INSERT
  5
B1
330
17
100
AcDbEntity
  8
0
100
AcDbBlockReference
  2
HEX
 10
45.801
 20
-272.036
 30
0.0
  0
INSERT
  5
B3
330
17
100
AcDbEntity
  8
0
100
AcDbBlockReference
  2
HEX
 10
49.332
 20
-272.036
 30
0.0
  0
INSERT
  5
B5
330
17
100
AcDbEntity
  8
0
100
AcDbBlockReference
  2
HEX
 10
52.863
 20
-272.036
 30
0.0
  0
LWPOLYLINE
  5
B7
330
17
100
AcDbEntity
  8
0
100
AcDbPolyline
 90
6
 70
1
 10
56.133
 20
-273.636
 10
54.878
 20
-272.911
 10
54.878
 20
-271.161
 10
56.394
 20
-270.286
 10
57.22
 20
-270.763
 10
56.133
 20
-273.636
  0
LWPOLYLINE
  5
B8
330
17
100
AcDbEntity
  8
0
100
AcDbPolyline
 90
4
 70
1
 10
20.833
 20
-269.687
 10
20.833
 20
-269.853
 10
20.703
 20
-269.928
 10
20.833
 20
-269.687
  0
LWPOLYLINE
  5
B9
330
17
100
AcDbEntity
  8
0
100
AcDbPolyline
 90
8
 70
1
 10
21.333
 20
-268.756
 10
21.839
 20
-267.811
 10
22.849
 20
-267.228
 10
24.364
 20
-268.103
 10
24.364
 20
-269.853
 10
22.849
 20
-270.728
 10
21.333
 20
-269.853
 10
21.333
 20
-268.756
  0
INSERT
  5
BA
330
17
100
AcDbEntity
  8
0
100
AcDbBlockReference
  2
HEX
 10
26.38
 20
-268.978
 30
0.0
  0
INSERT
  5
BC
330
17
100
AcDbEntity
  8
0
100
AcDbBlockReference
  2
HEX
 10
29.911
 20
-268.978
 30
0.0
  0
INSERT
  5
BE
330
17
100
AcDbEntity
  8
0
100
AcDbBlockReference
  2
HEX
 10
33.442
 20
-268.978
 30
0.0
  0
INSERT
  5
C0
330
17
100
AcDbEntity
  8
0
100
AcDbBlockReference
  2
HEX
 10
36.973
 20
-268.978
 30
0.0
  0
INSERT
  5
C2
330
17
100
AcDbEntity
  8
0
100
AcDbBlockReference
  2
HEX
 10
40.504
 20
-268.978
 30
0.0
  0
INSERT
  5
C4
330
17
100
AcDbEntity
  8
0
100
AcDbBlockReference
  2
HEX
 10
44.035
 20
-268.978
 30
0.0
  0
INSERT
  5
C6
330
17
100
AcDbEntity
  8
0
100
AcDbBlockReference
  2
HEX
 10
47.566
 20
-268.978
 30
0.0
  0
INSERT
  5
C8
330
17
100
AcDbEntity
  8
0
100
AcDbBlockReference
  2
HEX
 10
51.097
 20
-268.978
 30
0.0
  0
INSERT
  5
CA
330
17
100
AcDbEntity
  8
0
100
AcDbBlockReference
  2
HEX
 10
54.628
 20
-268.978
 30
0.0
  0
LWPOLYLINE
  5
CC
330
17
100
AcDbEntity
  8
0
100
AcDbPolyline
 90
6
 70
1
 10
58.486
 20
-267.417
 10
57.399
 20
-270.29
 10
56.644
 20
-269.853
 10
56.644
 20
-268.103
 10
58.16
 20
-267.228
 10
58.486
 20
-267.417
  0
LWPOLYLINE
  5
CD
330
17
100
AcDbEntity
  8
0
100
AcDbPolyline
 90
4
 70
1
 10
22.599
 20
-266.372
 10
22.599
 20
-266.795
 10
22.277
 20
-266.981
 10
22.599
 20
-266.372
  0
LWPOLYLINE
  5
CE
330
17
100
AcDbEntity
  8
0
100
AcDbPolyline
 90
8
 70
1
 10
23.387
 20
-264.879
 10
24.614
 20
-264.17
 10
26.13
 20
-265.045
 10
26.13
 20
-266.795
 10
24.614
 20
-267.67
 10
23.099
 20
-266.795
 10
23.099
 20
-265.425
 10
23.387
 20
-264.879
  0
INSERT
  5
CF
330
17
100
AcDbEntity
  8
0
100
AcDbBlockReference
  2
HEX
 10
28.145
 20
-265.92
 30
0.0
  0
INSERT
  5
D1
330
17
100
AcDbEntity
  8
0
100
AcDbBlockReference
  2
HEX
 10
31.676
 20
-265.92
 30
0.0
  0
INSERT
  5
D3
330
17
100
AcDbEntity
  8
0
100
AcDbBlockReference
  2
HEX
 10
35.207
 20
-265.92
 30
0.0
  0
INSERT
  5
D5
330
17
100
AcDbEntity
  8
0
100
AcDbBlockReference
  2
HEX
 10
38.739
 20
-265.92
 30
0.0
  0
INSERT
  5
D7
330
17
100
AcDbEntity
  8
0
100
AcDbBlockReference
  2
HEX
 10
42.27
 20
-265.92
 30
0.0
  0
INSERT
  5
D9
330
17
100
AcDbEntity
  8
0
100
AcDbBlockReference
  2
HEX
 10
45.801
 20
-265.92
 30
0.0
  0
INSERT
  5
DB
330
17
100
AcDbEntity
  8
0
100
AcDbBlockReference
  2
HEX
 10
49.332
 20
-265.92
 30
0.0
  0
INSERT
  5
DD
330
17
100
AcDbEntity
  8
0
100
AcDbBlockReference
  2
HEX
 10
52.863
 20
-265.92
 30
0.0
  0
INSERT
  5
DF
330
17
100
AcDbEntity
  8
0
100
AcDbBlockReference
  2
HEX
 10
56.394
 20
-265.92
 30
0.0
  0
LWPOLYLINE
  5
E1
330
17
100
AcDbEntity
  8
0
100
AcDbPolyline
 90
5
 70
1
 10
58.666
 20
-266.943
 10
58.41
 20
-266.795
 10
58.41
 20
-265.045
 10
59.656
 20
-264.326
 10
58.666
 20
-266.943
  0
LWPOLYLINE
  5
E2
330
17
100
AcDbEntity
  8
0
100
AcDbPolyline
 90
4
 70
1
 10
24.364
 20
-263.0
 10
24.364
 20
-263.737
 10
23.821
 20
-264.051
 10
24.364
 20
-263.0
  0
LWPOLYLINE
  5
E3
330
17
100
AcDbEntity
  8
0
100
AcDbPolyline
 90
8
 70
1
 10
24.897
 20
-261.969
 10
26.38
 20
-261.112
 10
27.895
 20
-261.987
 10
27.895
 20
-263.737
 10
26.38
 20
-264.612
 10
24.864
 20
-263.737
 10
24.864
 20
-262.032
 10
24.897
 20
-261.969
  0
INSERT
  5
E4
330
17
100
AcDbEntity
  8
0
100
AcDbBlockReference
  2
HEX
 10
29.911
 20
-262.862
 30
0.0
  0
INSERT
  5
E6
330
17
100
AcDbEntity
  8
0
100
AcDbBlockReference
  2
HEX
 10
33.442
 20
-262.862
 30
0.0
  0
INSERT
  5
E8
330
17
100
AcDbEntity
  8
0
100
AcDbBlockReference
  2
HEX
 10
36.973
 20
-262.862
 30
0.0
  0
INSERT
  5
EA
330
17
100
AcDbEntity
  8
0
100
AcDbBlockReference
  2
HEX
 10
40.504
 20
-262.862
 30
0.0
  0
INSERT
  5
EC
330
17
100
AcDbEntity
  8
0
100
AcDbBlockReference
  2
HEX
 10
44.035
 20
-262.862
 30
0.0
  0
INSERT
  5
EE
330
17
100
AcDbEntity
  8
0
100
AcDbBlockReference
  2
HEX
 10
47.566
 20
-262.862
 30
0.0
  0
INSERT
  5
F0
330
17
100
AcDbEntity
  8
0
100
AcDbBlockReference
  2
HEX
 10
51.097
 20
-262.862
 30
0.0
  0
INSERT
  5
F2
330
17
100
AcDbEntity
  8
0
100
AcDbBlockReference
  2
HEX
 10
54.628
 20
-262.862
 30
0.0
  0
INSERT
  5
F4
330
17
100
AcDbEntity
  8
0
100
AcDbBlockReference
  2
HEX
 10
58.16
 20
-262.862
 30
0.0
  0
LWPOLYLINE
  5
F6
330
17
100
AcDbEntity
  8
0
100
AcDbPolyline
 90
4
 70
1
 10
60.175
 20
-262.954
 10
60.175
 20
-261.987
 10
60.643
 20
-261.717
 10
60.175
 20
-262.954
  0
LWPOLYLINE
  5
F7
330
17
100
AcDbEntity
  8
0
100
AcDbPolyline
 90
4
 70
1
 10
25.322
 20
-261.146
 10
26.13
 20
-259.553
 10
26.13
 20
-260.679
 10
25.322
 20
-261.146
  0
INSERT
  5
F8
330
17
100
AcDbEntity
  8
0
100
AcDbBlockReference
  2
HEX
 10
28.145
 20
-259.804
 30
0.0
  0
INSERT
  5
FA
330
17
100
AcDbEntity
  8
0
100
AcDbBlockReference
  2
HEX
 10
31.676
 20
-259.804
 30
0.0
  0
INSERT
  5
FC
330
17
100
AcDbEntity
  8
0
100
AcDbBlockReference
  2
HEX
 10
35.207
 20
-259.804
 30
0.0
  0
INSERT
  5
FE
330
17
100
AcDbEntity
  8
0
100
AcDbBlockReference
  2
HEX
 10
38.739
 20
-259.804
 30
0.0
  0
INSERT
  5
100
330
17
100
AcDbEntity
  8
0
100
AcDbBlockReference
  2
HEX
 10
42.27
 20
-259.804
 30
0.0
  0
INSERT
  5
102
330
17
100
AcDbEntity
  8
0
100
AcDbBlockReference
  2
HEX
 10
45.801
 20
-259.804
 30
0.0
  0
INSERT
  5
104
330
17
100
AcDbEntity
  8
0
100
AcDbBlockReference
  2
HEX
 10
49.332
 20
-259.804
 30
0.0
  0
INSERT
  5
106
330
17
100
AcDbEntity
  8
0
100
AcDbBlockReference
  2
HEX
 10
52.863
 20
-259.804
 30
0.0
  0
INSERT
  5
108
330
17
100
AcDbEntity
  8
0
100
AcDbBlockReference
  2
HEX
 10
56.394
 20
-259.804
 30
0.0
  0
LWPOLYLINE
  5
10A
330
17
100
AcDbEntity
  8
0
100
AcDbPolyline
 90
8
 70
1
 10
60.923
 20
-260.978
 10
59.925
 20
-261.554
 10
58.41
 20
-260.679
 10
58.41
 20
-258.929
 10
59.925
 20
-258.054
 10
61.441
 20
-258.929
 10
61.441
 20
-259.61
 10
60.923
 20
-260.978
  0
LWPOLYLINE
  5
10B
330
17
100
AcDbEntity
  8
0
100
AcDbPolyline
 90
4
 70
1
 10
26.776
 20
-258.267
 10
27.895
 20
-256.014
 10
27.895
 20
-257.621
 10
26.776
 20
-258.267
  0
INSERT
  5
10C
330
17
100
AcDbEntity
  8
0
100
AcDbBlockReference
  2
HEX
 10
29.911
 20
-256.746
 30
0.0
  0
INSERT
  5
10E
330
17
100
AcDbEntity
  8
0
100
AcDbBlockReference
  2
HEX
 10
33.442
 20
-256.746
 30
0.0
  0
INSERT
  5
110
330
17
100
AcDbEntity
  8
0
100
AcDbBlockReference
  2
HEX
 10
36.973
 20
-256.746
 30
0.0
  0
INSERT
  5
112
330
17
100
AcDbEntity
  8
0
100
AcDbBlockReference
  2
HEX
 10
40.504
 20
-256.746
 30
0.0
  0
INSERT
  5
114
330
17
100
AcDbEntity
  8
0
100
AcDbBlockReference
  2
HEX
 10
44.035
 20
-256.746
 30
0.0
  0
INSERT
  5
116
330
17
100
AcDbEntity
  8
0
100
AcDbBlockReference
  2
HEX
 10
47.566
 20
-256.746
 30
0.0
  0
INSERT
  5
118
330
17
100
AcDbEntity
  8
0
100
AcDbBlockReference
  2
HEX
 10
51.097
 20
-256.746
 30
0.0
  0
INSERT
  5
11A
330
17
100
AcDbEntity
  8
0
100
AcDbBlockReference
  2
HEX
 10
54.628
 20
-256.746
 30
0.0
  0
INSERT
  5
11C
330
17
100
AcDbEntity
  8
0
100
AcDbBlockReference
  2
HEX
 10
58.16
 20
-256.746
 30
0.0
  0
LWPOLYLINE
  5
11E
330
17
100
AcDbEntity
  8
0
100
AcDbPolyline
 90
7
 70
1
 10
61.91
 20
-258.37
 10
61.691
 20
-258.496
 10
60.175
 20
-257.621
 10
60.175
 20
-255.871
 10
61.691
 20
-254.996
 10
62.918
 20
-255.705
 10
61.91
 20
-258.37
  0
LWPOLYLINE
  5
11F
330
17
100
AcDbEntity
  8
0
100
AcDbPolyline
 90
5
 70
1
 10
28.188
 20
-255.414
 10
29.493
 20
-252.717
 10
29.661
 20
-252.813
 10
29.661
 20
-254.563
 10
28.188
 20
-255.414
  0
INSERT
  5
120
330
17
100
AcDbEntity
  8
0
100
AcDbBlockReference
  2
HEX
 10
31.676
 20
-253.688
 30
0.0
  0
INSERT
  5
122
330
17
100
AcDbEntity
  8
0
100
AcDbBlockReference
  2
HEX
 10
35.207
 20
-253.688
 30
0.0
  0
INSERT
  5
124
330
17
100
AcDbEntity
  8
0
100
AcDbBlockReference
  2
HEX
 10
38.739
 20
-253.688
 30
0.0
  0
INSERT
  5
126
330
17
100
AcDbEntity
  8
0
100
AcDbBlockReference
  2
HEX
 10
42.27
 20
-253.688
 30
0.0
  0
INSERT
  5
128
330
17
100
AcDbEntity
  8
0
100
AcDbBlockReference
  2
HEX
 10
45.801
 20
-253.688
 30
0.0
  0
INSERT
  5
12A
330
17
100
AcDbEntity
  8
0
100
AcDbBlockReference
  2
HEX
 10
49.332
 20
-253.688
 30
0.0
  0
INSERT
  5
12C
330
17
100
AcDbEntity
  8
0
100
AcDbBlockReference
  2
HEX
 10
52.863
 20
-253.688
 30
0.0
  0
INSERT
  5
12E
330
17
100
AcDbEntity
  8
0
100
AcDbBlockReference
  2
HEX
 10
56.394
 20
-253.688
 30
0.0
  0
INSERT
  5
130
330
17
100
AcDbEntity
  8
0
100
AcDbBlockReference
  2
HEX
 10
59.925
 20
-253.688
 30
0.0
  0
LWPOLYLINE
  5
132
330
17
100
AcDbEntity
  8
0
100
AcDbPolyline
 90
6
 70
1
 10
64.184
 20
-252.359
 10
63.097
 20
-255.231
 10
61.941
 20
-254.563
 10
61.941
 20
-252.813
 10
63.456
 20
-251.938
 10
64.184
 20
-252.359
  0
LWPOLYLINE
  5
133
330
17
100
AcDbEntity
  8
0
100
AcDbPolyline
 90
6
 70
1
 10
31.0
 20
-249.509
 10
31.426
 20
-249.755
 10
31.426
 20
-251.505
 10
29.911
 20
-252.38
 10
29.707
 20
-252.262
 10
31.0
 20
-249.509
  0
INSERT
  5
134
330
17
100
AcDbEntity
  8
0
100
AcDbBlockReference
  2
HEX
 10
33.442
 20
-250.63
 30
0.0
  0
INSERT
  5
136
330
17
100
AcDbEntity
  8
0
100
AcDbBlockReference
  2
HEX
 10
36.973
 20
-250.63
 30
0.0
  0
INSERT
  5
138
330
17
100
AcDbEntity
  8
0
100
AcDbBlockReference
  2
HEX
 10
40.504
 20
-250.63
 30
0.0
  0
INSERT
  5
13A
330
17
100
AcDbEntity
  8
0
100
AcDbBlockReference
  2
HEX
 10
44.035
 20
-250.63
 30
0.0
  0
INSERT
  5
13C
330
17
100
AcDbEntity
  8
0
100
AcDbBlockReference
  2
HEX
 10
47.566
 20
-250.63
 30
0.0
  0
INSERT
  5
13E
330
17
100
AcDbEntity
  8
0
100
AcDbBlockReference
  2
HEX
 10
51.097
 20
-250.63
 30
0.0
  0
INSERT
  5
140
330
17
100
AcDbEntity
  8
0
100
AcDbBlockReference
  2
HEX
 10
54.628
 20
-250.63
 30
0.0
  0
INSERT
  5
142
330
17
100
AcDbEntity
  8
0
100
AcDbBlockReference
  2
HEX
 10
58.16
 20
-250.63
 30
0.0
  0
INSERT
  5
144
330
17
100
AcDbEntity
  8
0
100
AcDbBlockReference
  2
HEX
 10
61.691
 20
-250.63
 30
0.0
  0
LWPOLYLINE
  5
146
330
17
100
AcDbEntity
  8
0
100
AcDbPolyline
 90
6
 70
1
 10
64.364
 20
-251.885
 10
63.706
 20
-251.505
 10
63.706
 20
-249.755
 10
65.222
 20
-248.88
 10
65.451
 20
-249.012
 10
64.364
 20
-251.885
  0
LWPOLYLINE
  5
147
330
17
100
AcDbEntity
  8
0
100
AcDbPolyline
 90
6
 70
1
 10
32.458
 20
-246.273
 10
33.192
 20
-246.697
 10
33.192
 20
-248.447
 10
31.676
 20
-249.322
 10
31.207
 20
-249.051
 10
32.458
 20
-246.273
  0
INSERT
  5
148
330
17
100
AcDbEntity
  8
0
100
AcDbBlockReference
  2
HEX
 10
35.207
 20
-247.572
 30
0.0
  0
INSERT
  5
14A
330
17
100
AcDbEntity
  8
0
100
AcDbBlockReference
  2
HEX
 10
38.739
 20
-247.572
 30
0.0
  0
INSERT
  5
14C
330
17
100
AcDbEntity
  8
0
100
AcDbBlockReference
  2
HEX
 10
42.27
 20
-247.572
 30
0.0
  0
INSERT
  5
14E
330
17
100
AcDbEntity
  8
0
100
AcDbBlockReference
  2
HEX
 10
45.801
 20
-247.572
 30
0.0
  0
INSERT
  5
150
330
17
100
AcDbEntity
  8
0
100
AcDbBlockReference
  2
HEX
 10
49.332
 20
-247.572
 30
0.0
  0
INSERT
  5
152
330
17
100
AcDbEntity
  8
0
100
AcDbBlockReference
  2
HEX
 10
52.863
 20
-247.572
 30
0.0
  0
INSERT
  5
154
330
17
100
AcDbEntity
  8
0
100
AcDbBlockReference
  2
HEX
 10
56.394
 20
-247.572
 30
0.0
  0
INSERT
  5
156
330
17
100
AcDbEntity
  8
0
100
AcDbBlockReference
  2
HEX
 10
59.925
 20
-247.572
 30
0.0
  0
INSERT
  5
158
330
17
100
AcDbEntity
  8
0
100
AcDbBlockReference
  2
HEX
 10
63.456
 20
-247.572
 30
0.0
  0
LWPOLYLINE
  5
15A
330
17
100
AcDbEntity
  8
0
100
AcDbPolyline
 90
5
 70
1
 10
66.566
 20
-246.066
 10
65.63
 20
-248.539
 10
65.472
 20
-248.447
 10
65.472
 20
-246.697
 10
66.566
 20
-246.066
  0
LWPOLYLINE
  5
15B
330
17
100
AcDbEntity
  8
0
100
AcDbPolyline
 90
6
 70
1
 10
32.664
 20
-245.815
 10
33.869
 20
-243.011
 10
34.957
 20
-243.639
 10
34.957
 20
-245.389
 10
33.442
 20
-246.264
 10
32.664
 20
-245.815
  0
INSERT
  5
15C
330
17
100
AcDbEntity
  8
0
100
AcDbBlockReference
  2
HEX
 10
36.973
 20
-244.514
 30
0.0
  0
INSERT
  5
15E
330
17
100
AcDbEntity
  8
0
100
AcDbBlockReference
  2
HEX
 10
40.504
 20
-244.514
 30
0.0
  0
INSERT
  5
160
330
17
100
AcDbEntity
  8
0
100
AcDbBlockReference
  2
HEX
 10
44.035
 20
-244.514
 30
0.0
  0
INSERT
  5
162
330
17
100
AcDbEntity
  8
0
100
AcDbBlockReference
  2
HEX
 10
47.566
 20
-244.514
 30
0.0
  0
INSERT
  5
164
330
17
100
AcDbEntity
  8
0
100
AcDbBlockReference
  2
HEX
 10
51.097
 20
-244.514
 30
0.0
  0
INSERT
  5
166
330
17
100
AcDbEntity
  8
0
100
AcDbBlockReference
  2
HEX
 10
54.628
 20
-244.514
 30
0.0
  0
INSERT
  5
168
330
17
100
AcDbEntity
  8
0
100
AcDbBlockReference
  2
HEX
 10
58.16
 20
-244.514
 30
0.0
  0
INSERT
  5
16A
330
17
100
AcDbEntity
  8
0
100
AcDbBlockReference
  2
HEX
 10
61.691
 20
-244.514
 30
0.0
  0
INSERT
  5
16C
330
17
100
AcDbEntity
  8
0
100
AcDbBlockReference
  2
HEX
 10
65.222
 20
-244.514
 30
0.0
  0
LWPOLYLINE
  5
16E
330
17
100
AcDbEntity
  8
0
100
AcDbPolyline
 90
4
 70
1
 10
67.237
 20
-244.291
 10
67.237
 20
-243.639
 10
67.553
 20
-243.457
 10
67.237
 20
-244.291
  0
LWPOLYLINE
  5
16F
330
17
100
AcDbEntity
  8
0
100
AcDbPolyline
 90
6
 70
1
 10
34.068
 20
-242.548
 10
35.262
 20
-239.738
 10
36.723
 20
-240.581
 10
36.723
 20
-242.331
 10
35.207
 20
-243.206
 10
34.068
 20
-242.548
  0
INSERT
  5
170
330
17
100
AcDbEntity
  8
0
100
AcDbBlockReference
  2
HEX
 10
38.739
 20
-241.456
 30
0.0
  0
INSERT
  5
172
330
17
100
AcDbEntity
  8
0
100
AcDbBlockReference
  2
HEX
 10
42.27
 20
-241.456
 30
0.0
  0
INSERT
  5
174
330
17
100
AcDbEntity
  8
0
100
AcDbBlockReference
  2
HEX
 10
45.801
 20
-241.456
 30
0.0
  0
INSERT
  5
176
330
17
100
AcDbEntity
  8
0
100
AcDbBlockReference
  2
HEX
 10
49.332
 20
-241.456
 30
0.0
  0
INSERT
  5
178
330
17
100
AcDbEntity
  8
0
100
AcDbBlockReference
  2
HEX
 10
52.863
 20
-241.456
 30
0.0
  0
INSERT
  5
17A
330
17
100
AcDbEntity
  8
0
100
AcDbBlockReference
  2
HEX
 10
56.394
 20
-241.456
 30
0.0
  0
INSERT
  5
17C
330
17
100
AcDbEntity
  8
0
100
AcDbBlockReference
  2
HEX
 10
59.925
 20
-241.456
 30
0.0
  0
INSERT
  5
17E
330
17
100
AcDbEntity
  8
0
100
AcDbBlockReference
  2
HEX
 10
63.456
 20
-241.456
 30
0.0
  0
LWPOLYLINE
  5
180
330
17
100
AcDbEntity
  8
0
100
AcDbPolyline
 90
8
 70
1
 10
68.503
 20
-240.946
 10
67.832
 20
-242.718
 10
66.987
 20
-243.206
 10
65.472
 20
-242.331
 10
65.472
 20
-240.581
 10
66.987
 20
-239.706
 10
68.503
 20
-240.581
 10
68.503
 20
-240.946
  0
LWPOLYLINE
  5
181
330
17
100
AcDbEntity
  8
0
100
AcDbPolyline
 90
7
 70
1
 10
35.46
 20
-239.275
 10
36.454
 20
-236.948
 10
36.973
 20
-236.648
 10
38.489
 20
-237.523
 10
38.489
 20
-239.273
 10
36.973
 20
-240.148
 10
35.46
 20
-239.275
  0
INSERT
  5
182
330
17
100
AcDbEntity
  8
0
100
AcDbBlockReference
  2
HEX
 10
40.504
 20
-238.398
 30
0.0
  0
INSERT
  5
184
330
17
100
AcDbEntity
  8
0
100
AcDbBlockReference
  2
HEX
 10
44.035
 20
-238.398
 30
0.0
  0
INSERT
  5
186
330
17
100
AcDbEntity
  8
0
100
AcDbBlockReference
  2
HEX
 10
47.566
 20
-238.398
 30
0.0
  0
INSERT
  5
188
330
17
100
AcDbEntity
  8
0
100
AcDbBlockReference
  2
HEX
 10
51.097
 20
-238.398
 30
0.0
  0
INSERT
  5
18A
330
17
100
AcDbEntity
  8
0
100
AcDbBlockReference
  2
HEX
 10
54.628
 20
-238.398
 30
0.0
  0
INSERT
  5
18C
330
17
100
AcDbEntity
  8
0
100
AcDbBlockReference
  2
HEX
 10
58.16
 20
-238.398
 30
0.0
  0
INSERT
  5
18E
330
17
100
AcDbEntity
  8
0
100
AcDbBlockReference
  2
HEX
 10
61.691
 20
-238.398
 30
0.0
  0
INSERT
  5
190
330
17
100
AcDbEntity
  8
0
100
AcDbBlockReference
  2
HEX
 10
65.222
 20
-238.398
 30
0.0
  0
LWPOLYLINE
  5
192
330
17
100
AcDbEntity
  8
0
100
AcDbPolyline
 90
7
 70
1
 10
68.819
 20
-240.11
 10
68.753
 20
-240.148
 10
67.237
 20
-239.273
 10
67.237
 20
-237.523
 10
68.753
 20
-236.648
 10
69.882
 20
-237.3
 10
68.819
 20
-240.11
  0
LWPOLYLINE
  5
193
330
17
100
AcDbEntity
  8
0
100
AcDbPolyline
 90
8
 70
1
 10
37.223
 20
-235.122
 10
37.568
 20
-234.266
 10
38.739
 20
-233.59
 10
40.254
 20
-234.465
 10
40.254
 20
-236.215
 10
38.739
 20
-237.09
 10
37.223
 20
-236.215
 10
37.223
 20
-235.122
  0
INSERT
  5
194
330
17
100
AcDbEntity
  8
0
100
AcDbBlockReference
  2
HEX
 10
42.27
 20
-235.34
 30
0.0
  0
INSERT
  5
196
330
17
100
AcDbEntity
  8
0
100
AcDbBlockReference
  2
HEX
 10
45.801
 20
-235.34
 30
0.0
  0
INSERT
  5
198
330
17
100
AcDbEntity
  8
0
100
AcDbBlockReference
  2
HEX
 10
49.332
 20
-235.34
 30
0.0
  0
INSERT
  5
19A
330
17
100
AcDbEntity
  8
0
100
AcDbBlockReference
  2
HEX
 10
52.863
 20
-235.34
 30
0.0
  0
INSERT
  5
19C
330
17
100
AcDbEntity
  8
0
100
AcDbBlockReference
  2
HEX
 10
56.394
 20
-235.34
 30
0.0
  0
INSERT
  5
19E
330
17
100
AcDbEntity
  8
0
100
AcDbBlockReference
  2
HEX
 10
59.925
 20
-235.34
 30
0.0
  0
INSERT
  5
1A0
330
17
100
AcDbEntity
  8
0
100
AcDbBlockReference
  2
HEX
 10
63.456
 20
-235.34
 30
0.0
  0
LWPOLYLINE
  5
1A2
330
17
100
AcDbEntity
  8
0
100
AcDbPolyline
 90
8
 70
1
 10
66.821
 20
-233.686
 10
67.567
 20
-233.925
 10
68.503
 20
-234.465
 10
68.503
 20
-236.215
 10
66.987
 20
-237.09
 10
65.472
 20
-236.215
 10
65.472
 20
-234.465
 10
66.821
 20
-233.686
  0
LWPOLYLINE
  5
1A3
330
17
100
AcDbEntity
  8
0
100
AcDbPolyline
 90
10
 70
1
 10
69.093
 20
-234.413
 10
70.485
 20
-234.864
 10
70.592
 20
-234.954
 10
70.654
 20
-235.076
 10
70.663
 20
-235.216
 10
70.645
 20
-235.287
 10
70.062
 20
-236.827
 10
69.003
 20
-236.215
 10
69.003
 20
-234.465
 10
69.093
 20
-234.413
  0
LWPOLYLINE
  5
1A4
330
17
100
AcDbEntity
  8
0
100
AcDbPolyline
 90
5
 70
1
 10
38.171
 20
-232.768
 10
38.489
 20
-231.916
 10
38.489
 20
-233.157
 10
37.871
 20
-233.514
 10
38.171
 20
-232.768
  0
INSERT
  5
1A5
330
17
100
AcDbEntity
  8
0
100
AcDbBlockReference
  2
HEX
 10
40.504
 20
-232.282
 30
0.0
  0
INSERT
  5
1A7
330
17
100
AcDbEntity
  8
0
100
AcDbBlockReference
  2
HEX
 10
44.035
 20
-232.282
 30
0.0
  0
INSERT
  5
1A9
330
17
100
AcDbEntity
  8
0
100
AcDbBlockReference
  2
HEX
 10
47.566
 20
-232.282
 30
0.0
  0
INSERT
  5
1AB
330
17
100
AcDbEntity
  8
0
100
AcDbBlockReference
  2
HEX
 10
51.097
 20
-232.282
 30
0.0
  0
INSERT
  5
1AD
330
17
100
AcDbEntity
  8
0
100
AcDbBlockReference
  2
HEX
 10
54.628
 20
-232.282
 30
0.0
  0
INSERT
  5
1AF
330
17
100
AcDbEntity
  8
0
100
AcDbBlockReference
  2
HEX
 10
58.16
 20
-232.282
 30
0.0
  0
INSERT
  5
1B1
330
17
100
AcDbEntity
  8
0
100
AcDbBlockReference
  2
HEX
 10
61.691
 20
-232.282
 30
0.0
  0
LWPOLYLINE
  5
1B3
330
17
100
AcDbEntity
  8
0
100
AcDbPolyline
 90
15
 70
1
 10
65.628
 20
-230.767
 10
65.08
 20
-232.497
 10
65.055
 20
-232.62
 10
65.057
 20
-232.741
 10
65.081
 20
-232.858
 10
65.128
 20
-232.967
 10
65.194
 20
-233.065
 10
65.279
 20
-233.149
 10
65.381
 20
-233.216
 10
66.178
 20
-233.48
 10
65.222
 20
-234.032
 10
63.706
 20
-233.157
 10
63.706
 20
-231.407
 10
65.222
 20
-230.532
 10
65.628
 20
-230.767
  0
LWPOLYLINE
  5
1B4
330
17
100
AcDbEntity
  8
0
100
AcDbPolyline
 90
6
 70
1
 10
39.041
 20
-230.435
 10
39.819
 20
-228.098
 10
40.254
 20
-228.349
 10
40.254
 20
-230.099
 10
38.868
 20
-230.9
 10
39.041
 20
-230.435
  0
INSERT
  5
1B5
330
17
100
AcDbEntity
  8
0
100
AcDbBlockReference
  2
HEX
 10
42.27
 20
-229.224
 30
0.0
  0
INSERT
  5
1B7
330
17
100
AcDbEntity
  8
0
100
AcDbBlockReference
  2
HEX
 10
45.801
 20
-229.224
 30
0.0
  0
INSERT
  5
1B9
330
17
100
AcDbEntity
  8
0
100
AcDbBlockReference
  2
HEX
 10
49.332
 20
-229.224
 30
0.0
  0
INSERT
  5
1BB
330
17
100
AcDbEntity
  8
0
100
AcDbBlockReference
  2
HEX
 10
52.863
 20
-229.224
 30
0.0
  0
INSERT
  5
1BD
330
17
100
AcDbEntity
  8
0
100
AcDbBlockReference
  2
HEX
 10
56.394
 20
-229.224
 30
0.0
  0
INSERT
  5
1BF
330
17
100
AcDbEntity
  8
0
100
AcDbBlockReference
  2
HEX
 10
59.925
 20
-229.224
 30
0.0
  0
INSERT
  5
1C1
330
17
100
AcDbEntity
  8
0
100
AcDbBlockReference
  2
HEX
 10
63.456
 20
-229.224
 30
0.0
  0
LWPOLYLINE
  5
1C3
330
17
100
AcDbEntity
  8
0
100
AcDbPolyline
 90
6
 70
1
 10
66.6
 20
-227.698
 10
66.09
 20
-229.309
 10
65.782
 20
-230.279
 10
65.472
 20
-230.099
 10
65.472
 20
-228.349
 10
66.6
 20
-227.698
  0
LWPOLYLINE
  5
1C4
330
17
100
AcDbEntity
  8
0
100
AcDbPolyline
 90
7
 70
1
 10
40.501
 20
-225.688
 10
40.753
 20
-224.56
 10
42.02
 20
-225.291
 10
42.02
 20
-227.041
 10
40.504
 20
-227.916
 10
39.96
 20
-227.602
 10
40.501
 20
-225.688
  0
INSERT
  5
1C5
330
17
100
AcDbEntity
  8
0
100
AcDbBlockReference
  2
HEX
 10
44.035
 20
-226.166
 30
0.0
  0
INSERT
  5
1C7
330
17
100
AcDbEntity
  8
0
100
AcDbBlockReference
  2
HEX
 10
47.566
 20
-226.166
 30
0.0
  0
INSERT
  5
1C9
330
17
100
AcDbEntity
  8
0
100
AcDbBlockReference
  2
HEX
 10
51.097
 20
-226.166
 30
0.0
  0
INSERT
  5
1CB
330
17
100
AcDbEntity
  8
0
100
AcDbBlockReference
  2
HEX
 10
54.628
 20
-226.166
 30
0.0
  0
INSERT
  5
1CD
330
17
100
AcDbEntity
  8
0
100
AcDbBlockReference
  2
HEX
 10
58.16
 20
-226.166
 30
0.0
  0
INSERT
  5
1CF
330
17
100
AcDbEntity
  8
0
100
AcDbBlockReference
  2
HEX
 10
61.691
 20
-226.166
 30
0.0
  0
INSERT
  5
1D1
330
17
100
AcDbEntity
  8
0
100
AcDbBlockReference
  2
HEX
 10
65.222
 20
-226.166
 30
0.0
  0
LWPOLYLINE
  5
1D3
330
17
100
AcDbEntity
  8
0
100
AcDbPolyline
 90
11
 70
1
 10
70.268
 20
-226.072
 10
67.959
 20
-225.387
 10
67.821
 20
-225.376
 10
67.685
 20
-225.41
 10
67.554
 20
-225.481
 10
67.432
 20
-225.582
 10
67.237
 20
-225.828
 10
67.237
 20
-225.291
 10
68.753
 20
-224.416
 10
70.268
 20
-225.291
 10
70.268
 20
-226.072
  0
LWPOLYLINE
  5
1D4
330
17
100
AcDbEntity
  8
0
100
AcDbPolyline
 90
11
 70
1
 10
73.799
 20
-226.299
 10
73.65
 20
-226.734
 10
73.586
 20
-226.845
 10
73.488
 20
-226.923
 10
73.43
 20
-226.947
 10
73.305
 20
-226.962
 10
70.768
 20
-226.22
 10
70.768
 20
-225.291
 10
72.284
 20
-224.416
 10
73.799
 20
-225.291
 10
73.799
 20
-226.299
  0
LWPOLYLINE
  5
1D5
330
17
100
AcDbEntity
  8
0
100
AcDbPolyline
 90
8
 70
1
 10
41.043
 20
-223.263
 10
41.136
 20
-222.013
 10
42.27
 20
-221.358
 10
43.785
 20
-222.233
 10
43.785
 20
-223.983
 10
42.27
 20
-224.858
 10
40.867
 20
-224.049
 10
41.043
 20
-223.263
  0
INSERT
  5
1D6
330
17
100
AcDbEntity
  8
0
100
AcDbBlockReference
  2
HEX
 10
45.801
 20
-223.108
 30
0.0
  0
INSERT
  5
1D8
330
17
100
AcDbEntity
  8
0
100
AcDbBlockReference
  2
HEX
 10
49.332
 20
-223.108
 30
0.0
  0
INSERT
  5
1DA
330
17
100
AcDbEntity
  8
0
100
AcDbBlockReference
  2
HEX
 10
52.863
 20
-223.108
 30
0.0
  0
INSERT
  5
1DC
330
17
100
AcDbEntity
  8
0
100
AcDbBlockReference
  2
HEX
 10
56.394
 20
-223.108
 30
0.0
  0
INSERT
  5
1DE
330
17
100
AcDbEntity
  8
0
100
AcDbBlockReference
  2
HEX
 10
59.925
 20
-223.108
 30
0.0
  0
INSERT
  5
1E0
330
17
100
AcDbEntity
  8
0
100
AcDbBlockReference
  2
HEX
 10
63.456
 20
-223.108
 30
0.0
  0
INSERT
  5
1E2
330
17
100
AcDbEntity
  8
0
100
AcDbBlockReference
  2
HEX
 10
66.987
 20
-223.108
 30
0.0
  0
INSERT
  5
1E4
330
17
100
AcDbEntity
  8
0
100
AcDbBlockReference
  2
HEX
 10
70.518
 20
-223.108
 30
0.0
  0
LWPOLYLINE
  5
1E6
330
17
100
AcDbEntity
  8
0
100
AcDbPolyline
 90
10
 70
1
 10
75.225
 20
-222.583
 10
74.92
 20
-223.202
 10
74.633
 20
-223.859
 10
74.304
 20
-224.711
 10
74.049
 20
-224.858
 10
72.534
 20
-223.983
 10
72.534
 20
-222.233
 10
74.049
 20
-221.358
 10
75.46
 20
-222.172
 10
75.225
 20
-222.583
  0
LWPOLYLINE
  5
1E7
330
17
100
AcDbEntity
  8
0
100
AcDbPolyline
 90
6
 70
1
 10
41.26
 20
-220.334
 10
40.994
 20
-218.583
 10
42.02
 20
-219.175
 10
42.02
 20
-220.925
 10
41.18
 20
-221.41
 10
41.26
 20
-220.334
  0
INSERT
  5
1E8
330
17
100
AcDbEntity
  8
0
100
AcDbBlockReference
  2
HEX
 10
44.035
 20
-220.05
 30
0.0
  0
INSERT
  5
1EA
330
17
100
AcDbEntity
  8
0
100
AcDbBlockReference
  2
HEX
 10
47.566
 20
-220.05
 30
0.0
  0
INSERT
  5
1EC
330
17
100
AcDbEntity
  8
0
100
AcDbBlockReference
  2
HEX
 10
51.097
 20
-220.05
 30
0.0
  0
INSERT
  5
1EE
330
17
100
AcDbEntity
  8
0
100
AcDbBlockReference
  2
HEX
 10
54.628
 20
-220.05
 30
0.0
  0
INSERT
  5
1F0
330
17
100
AcDbEntity
  8
0
100
AcDbBlockReference
  2
HEX
 10
58.16
 20
-220.05
 30
0.0
  0
INSERT
  5
1F2
330
17
100
AcDbEntity
  8
0
100
AcDbBlockReference
  2
HEX
 10
61.691
 20
-220.05
 30
0.0
  0
INSERT
  5
1F4
330
17
100
AcDbEntity
  8
0
100
AcDbBlockReference
  2
HEX
 10
65.222
 20
-220.05
 30
0.0
  0
INSERT
  5
1F6
330
17
100
AcDbEntity
  8
0
100
AcDbBlockReference
  2
HEX
 10
68.753
 20
-220.05
 30
0.0
  0
INSERT
  5
1F8
330
17
100
AcDbEntity
  8
0
100
AcDbBlockReference
  2
HEX
 10
72.284
 20
-220.05
 30
0.0
  0
LWPOLYLINE
  5
1FA
330
17
100
AcDbEntity
  8
0
100
AcDbPolyline
 90
9
 70
1
 10
77.108
 20
-220.072
 10
75.868
 20
-221.555
 10
75.732
 20
-221.752
 10
74.299
 20
-220.925
 10
74.299
 20
-219.175
 10
75.815
 20
-218.3
 10
77.331
 20
-219.175
 10
77.331
 20
-219.843
 10
77.108
 20
-220.072
  0
LWPOLYLINE
  5
1FB
330
17
100
AcDbEntity
  8
0
100
AcDbPolyline
 90
4
 70
1
 10
77.831
 20
-219.328
 10
77.831
 20
-219.175
 10
78.167
 20
-218.981
 10
77.831
 20
-219.328
  0
LWPOLYLINE
  5
1FC
330
17
100
AcDbEntity
  8
0
100
AcDbPolyline
 90
9
 70
1
 10
40.833
 20
-217.523
 10
40.754
 20
-217.308
 10
40.754
 20
-216.117
 10
42.27
 20
-215.242
 10
43.785
 20
-216.117
 10
43.785
 20
-217.867
 10
42.27
 20
-218.742
 10
40.897
 20
-217.95
 10
40.833
 20
-217.523
  0
INSERT
  5
1FD
330
17
100
AcDbEntity
  8
0
100
AcDbBlockReference
  2
HEX
 10
45.801
 20
-216.992
 30
0.0
  0
INSERT
  5
1FF
330
17
100
AcDbEntity
  8
0
100
AcDbBlockReference
  2
HEX
 10
49.332
 20
-216.992
 30
0.0
  0
INSERT
  5
201
330
17
100
AcDbEntity
  8
0
100
AcDbBlockReference
  2
HEX
 10
52.863
 20
-216.992
 30
0.0
  0
INSERT
  5
203
330
17
100
AcDbEntity
  8
0
100
AcDbBlockReference
  2
HEX
 10
56.394
 20
-216.992
 30
0.0
  0
INSERT
  5
205
330
17
100
AcDbEntity
  8
0
100
AcDbBlockReference
  2
HEX
 10
59.925
 20
-216.992
 30
0.0
  0
INSERT
  5
207
330
17
100
AcDbEntity
  8
0
100
AcDbBlockReference
  2
HEX
 10
63.456
 20
-216.992
 30
0.0
  0
INSERT
  5
209
330
17
100
AcDbEntity
  8
0
100
AcDbBlockReference
  2
HEX
 10
66.987
 20
-216.992
 30
0.0
  0
INSERT
  5
20B
330
17
100
AcDbEntity
  8
0
100
AcDbBlockReference
  2
HEX
 10
70.518
 20
-216.992
 30
0.0
  0
INSERT
  5
20D
330
17
100
AcDbEntity
  8
0
100
AcDbBlockReference
  2
HEX
 10
74.049
 20
-216.992
 30
0.0
  0
INSERT
  5
20F
330
17
100
AcDbEntity
  8
0
100
AcDbBlockReference
  2
HEX
 10
77.581
 20
-216.992
 30
0.0
  0
LWPOLYLINE
  5
211
330
17
100
AcDbEntity
  8
0
100
AcDbPolyline
 90
7
 70
1
 10
81.431
 20
-216.305
 10
79.873
 20
-217.446
 10
79.596
 20
-217.688
 10
79.596
 20
-216.117
 10
81.112
 20
-215.242
 10
82.174
 20
-215.856
 10
81.431
 20
-216.305
  0
LWPOLYLINE
  5
212
330
17
100
AcDbEntity
  8
0
100
AcDbPolyline
 90
9
 70
1
 10
39.854
 20
-214.849
 10
38.989
 20
-213.333
 10
38.989
 20
-213.059
 10
40.504
 20
-212.184
 10
42.02
 20
-213.059
 10
42.02
 20
-214.809
 10
40.504
 20
-215.684
 10
40.068
 20
-215.432
 10
39.854
 20
-214.849
  0
INSERT
  5
213
330
17
100
AcDbEntity
  8
0
100
AcDbBlockReference
  2
HEX
 10
44.035
 20
-213.934
 30
0.0
  0
INSERT
  5
215
330
17
100
AcDbEntity
  8
0
100
AcDbBlockReference
  2
HEX
 10
47.566
 20
-213.934
 30
0.0
  0
INSERT
  5
217
330
17
100
AcDbEntity
  8
0
100
AcDbBlockReference
  2
HEX
 10
51.097
 20
-213.934
 30
0.0
  0
INSERT
  5
219
330
17
100
AcDbEntity
  8
0
100
AcDbBlockReference
  2
HEX
 10
54.628
 20
-213.934
 30
0.0
  0
INSERT
  5
21B
330
17
100
AcDbEntity
  8
0
100
AcDbBlockReference
  2
HEX
 10
58.16
 20
-213.934
 30
0.0
  0
INSERT
  5
21D
330
17
100
AcDbEntity
  8
0
100
AcDbBlockReference
  2
HEX
 10
61.691
 20
-213.934
 30
0.0
  0
INSERT
  5
21F
330
17
100
AcDbEntity
  8
0
100
AcDbBlockReference
  2
HEX
 10
65.222
 20
-213.934
 30
0.0
  0
INSERT
  5
221
330
17
100
AcDbEntity
  8
0
100
AcDbBlockReference
  2
HEX
 10
68.753
 20
-213.934
 30
0.0
  0
INSERT
  5
223
330
17
100
AcDbEntity
  8
0
100
AcDbBlockReference
  2
HEX
 10
72.284
 20
-213.934
 30
0.0
  0
INSERT
  5
225
330
17
100
AcDbEntity
  8
0
100
AcDbBlockReference
  2
HEX
 10
75.815
 20
-213.934
 30
0.0
  0
INSERT
  5
227
330
17
100
AcDbEntity
  8
0
100
AcDbBlockReference
  2
HEX
 10
79.346
 20
-213.934
 30
0.0
  0
LWPOLYLINE
  5
229
330
17
100
AcDbEntity
  8
0
100
AcDbPolyline
 90
8
 70
1
 10
83.128
 20
-215.28
 10
82.663
 20
-215.561
 10
81.362
 20
-214.809
 10
81.362
 20
-213.059
 10
82.877
 20
-212.184
 10
84.393
 20
-213.059
 10
84.393
 20
-214.66
 10
83.128
 20
-215.28
  0
LWPOLYLINE
  5
22A
330
17
100
AcDbEntity
  8
0
100
AcDbPolyline
 90
8
 70
1
 10
87.004
 20
-213.583
 10
84.98
 20
-214.372
 10
84.893
 20
-214.415
 10
84.893
 20
-213.059
 10
86.408
 20
-212.184
 10
87.924
 20
-213.059
 10
87.924
 20
-213.304
 10
87.004
 20
-213.583
  0
LWPOLYLINE
  5
22B
330
17
100
AcDbEntity
  8
0
100
AcDbPolyline
 90
8
 70
1
 10
90.081
 20
-212.524
 10
89.67
 20
-212.752
 10
89.217
 20
-212.913
 10
88.424
 20
-213.153
 10
88.424
 20
-213.059
 10
89.939
 20
-212.184
 10
90.269
 20
-212.375
 10
90.081
 20
-212.524
  0
LWPOLYLINE
  5
22C
330
17
100
AcDbEntity
  8
0
100
AcDbPolyline
 90
5
 70
1
 10
36.619
 20
-210.0
 10
36.491
 20
-209.867
 10
36.723
 20
-210.001
 10
36.723
 20
-210.134
 10
36.619
 20
-210.0
  0
LWPOLYLINE
  5
22D
330
17
100
AcDbEntity
  8
0
100
AcDbPolyline
 90
9
 70
1
 10
38.419
 20
-212.335
 10
37.223
 20
-210.783
 10
37.223
 20
-210.001
 10
38.739
 20
-209.126
 10
40.254
 20
-210.001
 10
40.254
 20
-211.751
 10
38.739
 20
-212.626
 10
38.51
 20
-212.494
 10
38.419
 20
-212.335
  0
INSERT
  5
22E
330
17
100
AcDbEntity
  8
0
100
AcDbBlockReference
  2
HEX
 10
42.27
 20
-210.876
 30
0.0
  0
INSERT
  5
230
330
17
100
AcDbEntity
  8
0
100
AcDbBlockReference
  2
HEX
 10
45.801
 20
-210.876
 30
0.0
  0
INSERT
  5
232
330
17
100
AcDbEntity
  8
0
100
AcDbBlockReference
  2
HEX
 10
49.332
 20
-210.876
 30
0.0
  0
INSERT
  5
234
330
17
100
AcDbEntity
  8
0
100
AcDbBlockReference
  2
HEX
 10
52.863
 20
-210.876
 30
0.0
  0
INSERT
  5
236
330
17
100
AcDbEntity
  8
0
100
AcDbBlockReference
  2
HEX
 10
56.394
 20
-210.876
 30
0.0
  0
INSERT
  5
238
330
17
100
AcDbEntity
  8
0
100
AcDbBlockReference
  2
HEX
 10
59.925
 20
-210.876
 30
0.0
  0
INSERT
  5
23A
330
17
100
AcDbEntity
  8
0
100
AcDbBlockReference
  2
HEX
 10
63.456
 20
-210.876
 30
0.0
  0
INSERT
  5
23C
330
17
100
AcDbEntity
  8
0
100
AcDbBlockReference
  2
HEX
 10
66.987
 20
-210.876
 30
0.0
  0
INSERT
  5
23E
330
17
100
AcDbEntity
  8
0
100
AcDbBlockReference
  2
HEX
 10
70.518
 20
-210.876
 30
0.0
  0
INSERT
  5
240
330
17
100
AcDbEntity
  8
0
100
AcDbBlockReference
  2
HEX
 10
74.049
 20
-210.876
 30
0.0
  0
INSERT
  5
242
330
17
100
AcDbEntity
  8
0
100
AcDbBlockReference
  2
HEX
 10
77.581
 20
-210.876
 30
0.0
  0
INSERT
  5
244
330
17
100
AcDbEntity
  8
0
100
AcDbBlockReference
  2
HEX
 10
81.112
 20
-210.876
 30
0.0
  0
INSERT
  5
246
330
17
100
AcDbEntity
  8
0
100
AcDbBlockReference
  2
HEX
 10
84.643
 20
-210.876
 30
0.0
  0
INSERT
  5
248
330
17
100
AcDbEntity
  8
0
100
AcDbBlockReference
  2
HEX
 10
88.174
 20
-210.876
 30
0.0
  0
LWPOLYLINE
  5
24A
330
17
100
AcDbEntity
  8
0
100
AcDbPolyline
 90
10
 70
1
 10
91.405
 20
-209.693
 10
91.325
 20
-210.625
 10
91.203
 20
-211.081
 10
91.012
 20
-211.506
 10
90.757
 20
-211.893
 10
90.646
 20
-212.015
 10
90.189
 20
-211.751
 10
90.189
 20
-210.001
 10
91.471
 20
-209.261
 10
91.405
 20
-209.693
  0
LWPOLYLINE
  5
24B
330
17
100
AcDbEntity
  8
0
100
AcDbPolyline
 90
6
 70
1
 10
34.549
 20
-207.864
 10
32.846
 20
-206.412
 10
33.442
 20
-206.068
 10
34.957
 20
-206.943
 10
34.957
 20
-208.285
 10
34.549
 20
-207.864
  0
INSERT
  5
24C
330
17
100
AcDbEntity
  8
0
100
AcDbBlockReference
  2
HEX
 10
36.973
 20
-207.818
 30
0.0
  0
INSERT
  5
24E
330
17
100
AcDbEntity
  8
0
100
AcDbBlockReference
  2
HEX
 10
40.504
 20
-207.818
 30
0.0
  0
INSERT
  5
250
330
17
100
AcDbEntity
  8
0
100
AcDbBlockReference
  2
HEX
 10
44.035
 20
-207.818
 30
0.0
  0
INSERT
  5
252
330
17
100
AcDbEntity
  8
0
100
AcDbBlockReference
  2
HEX
 10
47.566
 20
-207.818
 30
0.0
  0
INSERT
  5
254
330
17
100
AcDbEntity
  8
0
100
AcDbBlockReference
  2
HEX
 10
51.097
 20
-207.818
 30
0.0
  0
INSERT
  5
256
330
17
100
AcDbEntity
  8
0
100
AcDbBlockReference
  2
HEX
 10
54.628
 20
-207.818
 30
0.0
  0
INSERT
  5
258
330
17
100
AcDbEntity
  8
0
100
AcDbBlockReference
  2
HEX
 10
58.16
 20
-207.818
 30
0.0
  0
LWPOLYLINE
  5
25A
330
17
100
AcDbEntity
  8
0
100
AcDbPolyline
 90
15
 70
1
 10
62.284
 20
-206.955
 10
62.311
 20
-207.221
 10
62.388
 20
-207.468
 10
62.511
 20
-207.693
 10
62.673
 20
-207.889
 10
62.869
 20
-208.051
 10
63.094
 20
-208.174
 10
63.206
 20
-208.209
 10
63.206
 20
-208.693
 10
61.691
 20
-209.568
 10
60.175
 20
-208.693
 10
60.175
 20
-206.943
 10
61.691
 20
-206.068
 10
62.284
 20
-206.411
 10
62.284
 20
-206.955
  0
LWPOLYLINE
  5
25B
330
17
100
AcDbEntity
  8
0
100
AcDbPolyline
 90
6
 70
1
 10
63.706
 20
-208.278
 10
66.737
 20
-208.278
 10
66.737
 20
-208.693
 10
65.222
 20
-209.568
 10
63.706
 20
-208.693
 10
63.706
 20
-208.278
  0
LWPOLYLINE
  5
25C
330
17
100
AcDbEntity
  8
0
100
AcDbPolyline
 90
6
 70
1
 10
67.237
 20
-208.278
 10
70.268
 20
-208.278
 10
70.268
 20
-208.693
 10
68.753
 20
-209.568
 10
67.237
 20
-208.693
 10
67.237
 20
-208.278
  0
LWPOLYLINE
  5
25D
330
17
100
AcDbEntity
  8
0
100
AcDbPolyline
 90
6
 70
1
 10
70.768
 20
-208.278
 10
73.799
 20
-208.278
 10
73.799
 20
-208.693
 10
72.284
 20
-209.568
 10
70.768
 20
-208.693
 10
70.768
 20
-208.278
  0
LWPOLYLINE
  5
25E
330
17
100
AcDbEntity
  8
0
100
AcDbPolyline
 90
7
 70
1
 10
74.299
 20
-208.278
 10
77.104
 20
-208.278
 10
77.331
 20
-208.255
 10
77.331
 20
-208.693
 10
75.815
 20
-209.568
 10
74.299
 20
-208.693
 10
74.299
 20
-208.278
  0
LWPOLYLINE
  5
25F
330
17
100
AcDbEntity
  8
0
100
AcDbPolyline
 90
13
 70
1
 10
77.831
 20
-208.058
 10
78.039
 20
-207.889
 10
78.201
 20
-207.693
 10
78.323
 20
-207.468
 10
78.401
 20
-207.22
 10
78.428
 20
-206.954
 10
78.428
 20
-206.598
 10
79.346
 20
-206.068
 10
80.862
 20
-206.943
 10
80.862
 20
-208.693
 10
79.346
 20
-209.568
 10
77.831
 20
-208.693
 10
77.831
 20
-208.058
  0
INSERT
  5
260
330
17
100
AcDbEntity
  8
0
100
AcDbBlockReference
  2
HEX
 10
82.877
 20
-207.818
 30
0.0
  0
INSERT
  5
262
330
17
100
AcDbEntity
  8
0
100
AcDbBlockReference
  2
HEX
 10
86.408
 20
-207.818
 30
0.0
  0
INSERT
  5
264
330
17
100
AcDbEntity
  8
0
100
AcDbBlockReference
  2
HEX
 10
89.939
 20
-207.818
 30
0.0
  0
LWPOLYLINE
  5
266
330
17
100
AcDbEntity
  8
0
100
AcDbPolyline
 90
7
 70
1
 10
92.579
 20
-206.721
 10
92.325
 20
-207.106
 10
92.096
 20
-207.509
 10
91.955
 20
-207.8
 10
91.955
 20
-206.943
 10
92.783
 20
-206.465
 10
92.579
 20
-206.721
  0
LWPOLYLINE
  5
267
330
17
100
AcDbEntity
  8
0
100
AcDbPolyline
 90
14
 70
1
 10
114.626
 20
-209.099
 10
114.23
 20
-209.052
 10
113.877
 20
-208.913
 10
113.577
 20
-208.697
 10
113.339
 20
-208.417
 10
113.173
 20
-208.09
 10
113.141
 20
-207.952
 10
113.141
 20
-207.199
 10
113.244
 20
-206.884
 10
114.657
 20
-206.068
 10
116.172
 20
-206.943
 10
116.172
 20
-208.693
 10
115.483
 20
-209.091
 10
114.626
 20
-209.099
  0
LWPOLYLINE
  5
268
330
17
100
AcDbEntity
  8
0
100
AcDbPolyline
 90
8
 70
1
 10
119.072
 20
-209.058
 10
117.332
 20
-209.074
 10
116.672
 20
-208.693
 10
116.672
 20
-206.943
 10
118.188
 20
-206.068
 10
119.704
 20
-206.943
 10
119.704
 20
-208.693
 10
119.072
 20
-209.058
  0
LWPOLYLINE
  5
269
330
17
100
AcDbEntity
  8
0
100
AcDbPolyline
 90
8
 70
1
 10
122.66
 20
-209.025
 10
120.808
 20
-209.042
 10
120.204
 20
-208.693
 10
120.204
 20
-206.943
 10
121.719
 20
-206.068
 10
123.235
 20
-206.943
 10
123.235
 20
-208.693
 10
122.66
 20
-209.025
  0
LWPOLYLINE
  5
26A
330
17
100
AcDbEntity
  8
0
100
AcDbPolyline
 90
8
 70
1
 10
126.249
 20
-208.991
 10
124.283
 20
-209.01
 10
123.735
 20
-208.693
 10
123.735
 20
-206.943
 10
125.25
 20
-206.068
 10
126.766
 20
-206.943
 10
126.766
 20
-208.693
 10
126.249
 20
-208.991
  0
LWPOLYLINE
  5
26B
330
17
100
AcDbEntity
  8
0
100
AcDbPolyline
 90
8
 70
1
 10
127.758
 20
-208.977
 10
127.266
 20
-208.693
 10
127.266
 20
-206.943
 10
128.781
 20
-206.068
 10
130.297
 20
-206.943
 10
130.297
 20
-208.693
 10
129.84
 20
-208.957
 10
127.758
 20
-208.977
  0
LWPOLYLINE
  5
26C
330
17
100
AcDbEntity
  8
0
100
AcDbPolyline
 90
8
 70
1
 10
133.433
 20
-208.921
 10
131.23
 20
-208.943
 10
130.797
 20
-208.693
 10
130.797
 20
-206.943
 10
132.312
 20
-206.068
 10
133.828
 20
-206.943
 10
133.828
 20
-208.693
 10
133.433
 20
-208.921
  0
LWPOLYLINE
  5
26D
330
17
100
AcDbEntity
  8
0
100
AcDbPolyline
 90
11
 70
1
 10
137.298
 20
-208.648
 10
137.087
 20
-208.773
 10
136.85
 20
-208.853
 10
136.594
 20
-208.884
 10
134.698
 20
-208.907
 10
134.328
 20
-208.693
 10
134.328
 20
-206.943
 10
135.843
 20
-206.068
 10
137.359
 20
-206.943
 10
137.359
 20
-208.593
 10
137.298
 20
-208.648
  0
LWPOLYLINE
  5
26E
330
17
100
AcDbEntity
  8
0
100
AcDbPolyline
 90
5
 70
1
 10
29.616
 20
-203.967
 10
29.514
 20
-203.801
 10
29.661
 20
-203.885
 10
29.661
 20
-204.006
 10
29.616
 20
-203.967
  0
LWPOLYLINE
  5
26F
330
17
100
AcDbEntity
  8
0
100
AcDbPolyline
 90
8
 70
1
 10
32.301
 20
-205.949
 10
30.161
 20
-204.411
 10
30.161
 20
-203.885
 10
31.676
 20
-203.01
 10
33.192
 20
-203.885
 10
33.192
 20
-205.635
 10
32.442
 20
-206.068
 10
32.301
 20
-205.949
  0
INSERT
  5
270
330
17
100
AcDbEntity
  8
0
100
AcDbBlockReference
  2
HEX
 10
35.207
 20
-204.76
 30
0.0
  0
INSERT
  5
272
330
17
100
AcDbEntity
  8
0
100
AcDbBlockReference
  2
HEX
 10
38.739
 20
-204.76
 30
0.0
  0
INSERT
  5
274
330
17
100
AcDbEntity
  8
0
100
AcDbBlockReference
  2
HEX
 10
42.27
 20
-204.76
 30
0.0
  0
INSERT
  5
276
330
17
100
AcDbEntity
  8
0
100
AcDbBlockReference
  2
HEX
 10
45.801
 20
-204.76
 30
0.0
  0
INSERT
  5
278
330
17
100
AcDbEntity
  8
0
100
AcDbBlockReference
  2
HEX
 10
49.332
 20
-204.76
 30
0.0
  0
INSERT
  5
27A
330
17
100
AcDbEntity
  8
0
100
AcDbBlockReference
  2
HEX
 10
52.863
 20
-204.76
 30
0.0
  0
INSERT
  5
27C
330
17
100
AcDbEntity
  8
0
100
AcDbBlockReference
  2
HEX
 10
56.394
 20
-204.76
 30
0.0
  0
INSERT
  5
27E
330
17
100
AcDbEntity
  8
0
100
AcDbBlockReference
  2
HEX
 10
59.925
 20
-204.76
 30
0.0
  0
LWPOLYLINE
  5
280
330
17
100
AcDbEntity
  8
0
100
AcDbPolyline
 90
6
 70
1
 10
62.284
 20
-203.687
 10
62.284
 20
-204.699
 10
62.284
 20
-205.833
 10
61.941
 20
-205.635
 10
61.941
 20
-203.885
 10
62.284
 20
-203.687
  0
LWPOLYLINE
  5
281
330
17
100
AcDbEntity
  8
0
100
AcDbPolyline
 90
6
 70
1
 10
78.428
 20
-206.021
 10
78.428
 20
-205.229
 10
78.428
 20
-203.499
 10
79.096
 20
-203.885
 10
79.096
 20
-205.635
 10
78.428
 20
-206.021
  0
INSERT
  5
282
330
17
100
AcDbEntity
  8
0
100
AcDbBlockReference
  2
HEX
 10
81.112
 20
-204.76
 30
0.0
  0
INSERT
  5
284
330
17
100
AcDbEntity
  8
0
100
AcDbBlockReference
  2
HEX
 10
84.643
 20
-204.76
 30
0.0
  0
INSERT
  5
286
330
17
100
AcDbEntity
  8
0
100
AcDbBlockReference
  2
HEX
 10
88.174
 20
-204.76
 30
0.0
  0
INSERT
  5
288
330
17
100
AcDbEntity
  8
0
100
AcDbBlockReference
  2
HEX
 10
91.705
 20
-204.76
 30
0.0
  0
LWPOLYLINE
  5
28A
330
17
100
AcDbEntity
  8
0
100
AcDbPolyline
 90
8
 70
1
 10
95.456
 20
-204.099
 10
94.646
 20
-204.641
 10
93.892
 20
-205.252
 10
93.72
 20
-205.423
 10
93.72
 20
-203.885
 10
95.236
 20
-203.01
 10
96.299
 20
-203.624
 10
95.456
 20
-204.099
  0
LWPOLYLINE
  5
28B
330
17
100
AcDbEntity
  8
0
100
AcDbPolyline
 90
5
 70
1
 10
113.517
 20
-206.149
 10
114.306
 20
-204.317
 10
114.407
 20
-204.082
 10
114.407
 20
-205.635
 10
113.517
 20
-206.149
  0
INSERT
  5
28C
330
17
100
AcDbEntity
  8
0
100
AcDbBlockReference
  2
HEX
 10
116.422
 20
-204.76
 30
0.0
  0
INSERT
  5
28E
330
17
100
AcDbEntity
  8
0
100
AcDbBlockReference
  2
HEX
 10
119.954
 20
-204.76
 30
0.0
  0
INSERT
  5
290
330
17
100
AcDbEntity
  8
0
100
AcDbBlockReference
  2
HEX
 10
123.485
 20
-204.76
 30
0.0
  0
INSERT
  5
292
330
17
100
AcDbEntity
  8
0
100
AcDbBlockReference
  2
HEX
 10
127.016
 20
-204.76
 30
0.0
  0
INSERT
  5
294
330
17
100
AcDbEntity
  8
0
100
AcDbBlockReference
  2
HEX
 10
130.547
 20
-204.76
 30
0.0
  0
INSERT
  5
296
330
17
100
AcDbEntity
  8
0
100
AcDbBlockReference
  2
HEX
 10
134.078
 20
-204.76
 30
0.0
  0
LWPOLYLINE
  5
298
330
17
100
AcDbEntity
  8
0
100
AcDbPolyline
 90
10
 70
1
 10
137.975
 20
-203.221
 10
137.812
 20
-204.563
 10
137.772
 20
-205.049
 10
137.746
 20
-205.577
 10
137.746
 20
-206.431
 10
137.609
 20
-206.51
 10
136.093
 20
-205.635
 10
136.093
 20
-203.885
 10
137.609
 20
-203.01
 10
137.975
 20
-203.221
  0
LWPOLYLINE
  5
299
330
17
100
AcDbEntity
  8
0
100
AcDbPolyline
 90
10
 70
1
 10
29.409
 20
-202.959
 10
29.592
 20
-202.666
 10
29.883
 20
-202.43
 10
30.273
 20
-202.271
 10
30.751
 20
-202.213
 10
31.426
 20
-202.21
 10
31.426
 20
-202.577
 10
29.911
 20
-203.452
 10
29.373
 20
-203.142
 10
29.409
 20
-202.959
  0
LWPOLYLINE
  5
29A
330
17
100
AcDbEntity
  8
0
100
AcDbPolyline
 90
6
 70
1
 10
31.926
 20
-202.208
 10
34.957
 20
-202.198
 10
34.957
 20
-202.577
 10
33.442
 20
-203.452
 10
31.926
 20
-202.577
 10
31.926
 20
-202.208
  0
LWPOLYLINE
  5
29B
330
17
100
AcDbEntity
  8
0
100
AcDbPolyline
 90
6
 70
1
 10
38.489
 20
-202.185
 10
38.489
 20
-202.577
 10
36.973
 20
-203.452
 10
35.457
 20
-202.577
 10
35.457
 20
-202.196
 10
38.489
 20
-202.185
  0
LWPOLYLINE
  5
29C
330
17
100
AcDbEntity
  8
0
100
AcDbPolyline
 90
6
 70
1
 10
42.02
 20
-202.172
 10
42.02
 20
-202.577
 10
40.504
 20
-203.452
 10
38.989
 20
-202.577
 10
38.989
 20
-202.183
 10
42.02
 20
-202.172
  0
LWPOLYLINE
  5
29D
330
17
100
AcDbEntity
  8
0
100
AcDbPolyline
 90
6
 70
1
 10
45.551
 20
-202.16
 10
45.551
 20
-202.577
 10
44.035
 20
-203.452
 10
42.52
 20
-202.577
 10
42.52
 20
-202.171
 10
45.551
 20
-202.16
  0
LWPOLYLINE
  5
29E
330
17
100
AcDbEntity
  8
0
100
AcDbPolyline
 90
6
 70
1
 10
46.051
 20
-202.158
 10
49.082
 20
-202.147
 10
49.082
 20
-202.577
 10
47.566
 20
-203.452
 10
46.051
 20
-202.577
 10
46.051
 20
-202.158
  0
LWPOLYLINE
  5
29F
330
17
100
AcDbEntity
  8
0
100
AcDbPolyline
 90
6
 70
1
 10
49.582
 20
-202.145
 10
52.613
 20
-202.134
 10
52.613
 20
-202.577
 10
51.097
 20
-203.452
 10
49.582
 20
-202.577
 10
49.582
 20
-202.145
  0
LWPOLYLINE
  5
2A0
330
17
100
AcDbEntity
  8
0
100
AcDbPolyline
 90
6
 70
1
 10
53.113
 20
-202.133
 10
56.144
 20
-202.122
 10
56.144
 20
-202.577
 10
54.628
 20
-203.452
 10
53.113
 20
-202.577
 10
53.113
 20
-202.133
  0
LWPOLYLINE
  5
2A1
330
17
100
AcDbEntity
  8
0
100
AcDbPolyline
 90
6
 70
1
 10
56.644
 20
-202.12
 10
59.675
 20
-202.109
 10
59.675
 20
-202.577
 10
58.16
 20
-203.452
 10
56.644
 20
-202.577
 10
56.644
 20
-202.12
  0
LWPOLYLINE
  5
2A2
330
17
100
AcDbEntity
  8
0
100
AcDbPolyline
 90
10
 70
1
 10
60.175
 20
-202.107
 10
62.009
 20
-202.108
 10
62.132
 20
-202.159
 10
62.225
 20
-202.252
 10
62.257
 20
-202.31
 10
62.284
 20
-202.444
 10
62.284
 20
-203.11
 10
61.691
 20
-203.452
 10
60.175
 20
-202.577
 10
60.175
 20
-202.107
  0
LWPOLYLINE
  5
2A3
330
17
100
AcDbEntity
  8
0
100
AcDbPolyline
 90
10
 70
1
 10
78.435
 20
-202.283
 10
78.455
 20
-202.219
 10
78.527
 20
-202.11
 10
78.635
 20
-202.037
 10
78.699
 20
-202.016
 10
80.862
 20
-201.995
 10
80.862
 20
-202.577
 10
79.346
 20
-203.452
 10
78.428
 20
-202.922
 10
78.435
 20
-202.283
  0
LWPOLYLINE
  5
2A4
330
17
100
AcDbEntity
  8
0
100
AcDbPolyline
 90
6
 70
1
 10
81.362
 20
-201.992
 10
84.393
 20
-201.971
 10
84.393
 20
-202.577
 10
82.877
 20
-203.452
 10
81.362
 20
-202.577
 10
81.362
 20
-201.992
  0
LWPOLYLINE
  5
2A5
330
17
100
AcDbEntity
  8
0
100
AcDbPolyline
 90
6
 70
1
 10
84.893
 20
-201.968
 10
87.924
 20
-201.948
 10
87.924
 20
-202.577
 10
86.408
 20
-203.452
 10
84.893
 20
-202.577
 10
84.893
 20
-201.968
  0
LWPOLYLINE
  5
2A6
330
17
100
AcDbEntity
  8
0
100
AcDbPolyline
 90
6
 70
1
 10
88.424
 20
-201.945
 10
91.455
 20
-201.925
 10
91.455
 20
-202.577
 10
89.939
 20
-203.452
 10
88.424
 20
-202.577
 10
88.424
 20
-201.945
  0
LWPOLYLINE
  5
2A7
330
17
100
AcDbEntity
  8
0
100
AcDbPolyline
 90
6
 70
1
 10
91.955
 20
-201.921
 10
94.986
 20
-201.901
 10
94.986
 20
-202.577
 10
93.47
 20
-203.452
 10
91.955
 20
-202.577
 10
91.955
 20
-201.921
  0
LWPOLYLINE
  5
2A8
330
17
100
AcDbEntity
  8
0
100
AcDbPolyline
 90
8
 70
1
 10
95.486
 20
-201.898
 10
98.517
 20
-201.878
 10
98.517
 20
-202.577
 10
98.175
 20
-202.774
 10
97.207
 20
-203.183
 10
96.842
 20
-203.36
 10
95.486
 20
-202.577
 10
95.486
 20
-201.898
  0
LWPOLYLINE
  5
2A9
330
17
100
AcDbEntity
  8
0
100
AcDbPolyline
 90
10
 70
1
 10
99.092
 20
-201.893
 10
99.177
 20
-201.944
 10
99.235
 20
-202.019
 10
99.266
 20
-202.109
 10
99.268
 20
-202.204
 10
99.239
 20
-202.294
 10
99.177
 20
-202.372
 10
99.017
 20
-202.453
 10
99.017
 20
-201.88
 10
99.092
 20
-201.893
  0
LWPOLYLINE
  5
2AA
330
17
100
AcDbEntity
  8
0
100
AcDbPolyline
 90
11
 70
1
 10
114.685
 20
-203.436
 10
114.885
 20
-202.953
 10
115.018
 20
-202.713
 10
115.182
 20
-202.49
 10
115.372
 20
-202.291
 10
115.585
 20
-202.122
 10
115.817
 20
-201.992
 10
116.065
 20
-201.908
 10
116.172
 20
-201.894
 10
116.172
 20
-202.577
 10
114.685
 20
-203.436
  0
LWPOLYLINE
  5
2AB
330
17
100
AcDbEntity
  8
0
100
AcDbPolyline
 90
6
 70
1
 10
116.672
 20
-201.876
 10
119.704
 20
-201.876
 10
119.704
 20
-202.577
 10
118.188
 20
-203.452
 10
116.672
 20
-202.577
 10
116.672
 20
-201.876
  0
LWPOLYLINE
  5
2AC
330
17
100
AcDbEntity
  8
0
100
AcDbPolyline
 90
6
 70
1
 10
120.204
 20
-201.876
 10
123.235
 20
-201.876
 10
123.235
 20
-202.577
 10
121.719
 20
-203.452
 10
120.204
 20
-202.577
 10
120.204
 20
-201.876
  0
LWPOLYLINE
  5
2AD
330
17
100
AcDbEntity
  8
0
100
AcDbPolyline
 90
6
 70
1
 10
123.735
 20
-201.876
 10
126.766
 20
-201.876
 10
126.766
 20
-202.577
 10
125.25
 20
-203.452
 10
123.735
 20
-202.577
 10
123.735
 20
-201.876
  0
LWPOLYLINE
  5
2AE
330
17
100
AcDbEntity
  8
0
100
AcDbPolyline
 90
6
 70
1
 10
127.266
 20
-201.876
 10
130.297
 20
-201.876
 10
130.297
 20
-202.577
 10
128.781
 20
-203.452
 10
127.266
 20
-202.577
 10
127.266
 20
-201.876
  0
LWPOLYLINE
  5
2AF
330
17
100
AcDbEntity
  8
0
100
AcDbPolyline
 90
6
 70
1
 10
130.797
 20
-201.876
 10
133.828
 20
-201.876
 10
133.828
 20
-202.577
 10
132.312
 20
-203.452
 10
130.797
 20
-202.577
 10
130.797
 20
-201.876
  0
LWPOLYLINE
  5
2B0
330
17
100
AcDbEntity
  8
0
100
AcDbPolyline
 90
9
 70
1
 10
136.811
 20
-201.876
 10
137.068
 20
-201.901
 10
137.304
 20
-201.978
 10
137.359
 20
-202.01
 10
137.359
 20
-202.577
 10
135.843
 20
-203.452
 10
134.328
 20
-202.577
 10
134.328
 20
-201.876
 10
136.811
 20
-201.876
  0
LWPOLYLINE
  5
2B1
330
17
100
AcDbEntity
  8
0
100
AcDbPolyline
 90
4
 70
1
 10
137.897
 20
-202.599
 10
137.859
 20
-202.577
 10
137.859
 20
-202.513
 10
137.897
 20
-202.599
  0
ENDSEC
  0
SECTION
  2
OBJECTS
  0
DICTIONARY
  5
A
330
0
100
AcDbDictionary
281
1
  3
ACAD_COLOR
350
B
  3
ACAD_GROUP
350
C
  3
ACAD_LAYOUT
350
D
  3
ACAD_MATERIAL
350
E
  3
ACAD_MLEADERSTYLE
350
F
  3
ACAD_MLINESTYLE
350
10
  3
ACAD_PLOTSETTINGS
350
11
  3
ACAD_PLOTSTYLENAME
350
12
  3
ACAD_SCALELIST
350
14
  3
ACAD_TABLESTYLE
350
15
  3
ACAD_VISUALSTYLE
350
16
  3
EZDXF_META
350
2D
  0
DICTIONARY
  5
B
330
A
100
AcDbDictionary
281
1
  0
DICTIONARY
  5
C
330
A
100
AcDbDictionary
281
1
  0
DICTIONARY
  5
D
330
A
100
AcDbDictionary
281
1
  3
Model
350
1A
  3
Layout1
350
1E
  0
DICTIONARY
  5
E
330
A
100
AcDbDictionary
281
1
  3
ByBlock
350
1F
  3
ByLayer
350
20
  3
Global
350
21
  0
DICTIONARY
  5
F
330
A
100
AcDbDictionary
281
1
  3
Standard
350
2C
  0
DICTIONARY
  5
10
330
A
100
AcDbDictionary
281
1
  3
Standard
350
22
  0
DICTIONARY
  5
11
330
A
100
AcDbDictionary
281
1
  0
ACDBDICTIONARYWDFLT
  5
12
330
A
100
AcDbDictionary
281
1
  3
Normal
350
13
100
AcDbDictionaryWithDefault
340
13
  0
ACDBPLACEHOLDER
  5
13
330
12
  0
DICTIONARY
  5
14
330
A
100
AcDbDictionary
281
1
  0
DICTIONARY
  5
15
330
A
100
AcDbDictionary
281
1
  0
DICTIONARY
  5
16
330
A
100
AcDbDictionary
281
1
  0
LAYOUT
  5
1A
330
D
100
AcDbPlotSettings
  1

  4
A3
  6

 40
7.5
 41
20.0
 42
7.5
 43
20.0
 44
420.0
 45
297.0
 46
0.0
 47
0.0
 48
0.0
 49
0.0
140
0.0
141
0.0
142
1.0
143
1.0
 70
1024
 72
1
 73
0
 74
5
  7

 75
16
 76
0
 77
2
 78
300
147
1.0
148
0.0
149
0.0
100
AcDbLayout
  1
Model
 70
1
 71
0
 10
0.0
 20
0.0
 11
420.0
 21
297.0
 12
0.0
 22
0.0
 32
0.0
 14
1e+20
 24
1e+20
 34
1e+20
 15
-1e+20
 25
-1e+20
 35
-1e+20
146
0.0
 13
0.0
 23
0.0
 33
0.0
 16
1.0
 26
0.0
 36
0.0
 17
0.0
 27
1.0
 37
0.0
 76
1
330
17
  0
LAYOUT
  5
1E
330
D
100
AcDbPlotSettings
  1

  4
A3
  6

 40
7.5
 41
20.0
 42
7.5
 43
20.0
 44
420.0
 45
297.0
 46
0.0
 47
0.0
 48
0.0
 49
0.0
140
0.0
141
0.0
142
1.0
143
1.0
 70
0
 72
1
 73
0
 74
5
  7

 75
16
 76
0
 77
2
 78
300
147
1.0
148
0.0
149
0.0
100
AcDbLayout
  1
Layout1
 70
1
 71
1
 10
0.0
 20
0.0
 11
420.0
 21
297.0
 12
0.0
 22
0.0
 32
0.0
 14
1e+20
 24
1e+20
 34
1e+20
 15
-1e+20
 25
-1e+20
 35
-1e+20
146
0.0
 13
0.0
 23
0.0
 33
0.0
 16
1.0
 26
0.0
 36
0.0
 17
0.0
 27
1.0
 37
0.0
 76
1
330
1B
  0
MATERIAL
  5
1F
102
{ACAD_REACTORS
330
E
102
}
330
E
100
AcDbMaterial
  1
ByBlock
  2

 70
0
 40
1.0
 71
1
 41
1.0
 91
-1023410177
 42
1.0
 72
1
  3

 73
1
 74
1
 75
1
 44
0.5
 73
0
 45
1.0
 46
1.0
 77
1
  4

 78
1
 79
1
170
1
 48
1.0
171
1
  6

172
1
173
1
174
1
140
1.0
141
1.0
175
1
  7

176
1
177
1
178
1
143
1.0
179
1
  8

270
1
271
1
272
1
145
1.0
146
1.0
273
1
  9

274
1
275
1
276
1
 42
1.0
 72
1
  3

 73
1
 74
1
 75
1
 94
63
  0
MATERIAL
  5
20
102
{ACAD_REACTORS
330
E
102
}
330
E
100
AcDbMaterial
  1
ByLayer
  2

 70
0
 40
1.0
 71
1
 41
1.0
 91
-1023410177
 42
1.0
 72
1
  3

 73
1
 74
1
 75
1
 44
0.5
 73
0
 45
1.0
 46
1.0
 77
1
  4

 78
1
 79
1
170
1
 48
1.0
171
1
  6

172
1
173
1
174
1
140
1.0
141
1.0
175
1
  7

176
1
177
1
178
1
143
1.0
179
1
  8

270
1
271
1
272
1
145
1.0
146
1.0
273
1
  9

274
1
275
1
276
1
 42
1.0
 72
1
  3

 73
1
 74
1
 75
1
 94
63
  0
MATERIAL
  5
21
102
{ACAD_REACTORS
330
E
102
}
330
E
100
AcDbMaterial
  1
Global
  2

 70
0
 40
1.0
 71
1
 41
1.0
 91
-1023410177
 42
1.0
 72
1
  3

 73
1
 74
1
 75
1
 44
0.5
 73
0
 45
1.0
 46
1.0
 77
1
  4

 78
1
 79
1
170
1
 48
1.0
171
1
  6

172
1
173
1
174
1
140
1.0
141
1.0
175
1
  7

176
1
177
1
178
1
143
1.0
179
1
  8

270
1
271
1
272
1
145
1.0
146
1.0
273
1
  9

274
1
275
1
276
1
 42
1.0
 72
1
  3

 73
1
 74
1
 75
1
 94
63
  0
MLINESTYLE
  5
22
102
{ACAD_REACTORS
330
10
102
}
330
10
100
AcDbMlineStyle
  2
Standard
 70
0
  3

 62
256
 51
90.0
 52
90.0
 71
2
 49
0.5
 62
256
  6
BYLAYER
 49
-0.5
 62
256
  6
BYLAYER
  0
MLEADERSTYLE
  5
2C
102
{ACAD_REACTORS
330
F
102
}
330
F
100
AcDbMLeaderStyle
179
2
170
2
171
1
172
0
 90
2
 40
0.0
 41
0.0
173
1
 91
-1056964608
 92
-2
290
1
 42
2.0
291
1
 43
8.0
  3
Standard
 44
4.0
300

342
29
174
1
175
1
176
0
178
1
 93
-1056964608
 45
4.0
292
0
297
0
 46
4.0
 94
-1056964608
 47
1.0
 49
1.0
140
1.0
294
1
141
0.0
177
0
142
1.0
295
0
296
0
143
3.75
271
0
272
9
273
9
  0
DICTIONARY
  5
2D
330
A
100
AcDbDictionary
280
1
281
1
  3
CREATED_BY_EZDXF
350
2E
  3
WRITTEN_BY_EZDXF
350
2B4
  0
DICTIONARYVAR
  5
2E
330
2D
100
DictionaryVariables
280
0
  1
1.4.3 @ 2026-04-09T21:37:16.519611+00:00
  0
DICTIONARYVAR
  5
2B4
330
2D
100
DictionaryVariables
280
0
  1
1.4.3 @ 2026-04-09T21:37:16.543762+00:00
  0
ENDSEC
  0
EOF
