  0
SECTION
  2
HEADER
  9
$ACADVER
  1
AC1024
  9
$ACADMAINTVER
 70
6
  9
$DWGCODEPAGE
  3
ANSI_1252
  9
$LASTSAVEDBY
  1
ezdxf
  9
$INSBASE
 10
0.0
 20
0.0
 30
0.0
  9
$EXTMIN
 10
1e+20
 20
1e+20
 30
1e+20
  9
$EXTMAX
 10
-1e+20
 20
-1e+20
 30
-1e+20
  9
$LIMMIN
 10
0.0
 20
0.0
  9
$LIMMAX
 10
420.0
 20
297.0
  9
$ORTHOMODE
 70
0
  9
$REGENMODE
 70
1
  9
$FILLMODE
 70
1
  9
$QTEXTMODE
 70
0
  9
$MIRRTEXT
 70
1
  9
$LTSCALE
 40
1.0
  9
$ATTMODE
 70
1
  9
$TEXTSIZE
 40
2.5
  9
$TRACEWID
 40
1.0
  9
$TEXTSTYLE
  7
Standard
  9
$CLAYER
  8
0
  9
$CELTYPE
  6
ByLayer
  9
$CECOLOR
 62
256
  9
$CELTSCALE
 40
1.0
  9
$DISPSILH
 70
0
  9
$DIMSCALE
 40
1.0
  9
$DIMASZ
 40
2.5
  9
$DIMEXO
 40
0.625
  9
$DIMDLI
 40
3.75
  9
$DIMRND
 40
0.0
  9
$DIMDLE
 40
0.0
  9
$DIMEXE
 40
1.25
  9
$DIMTP
 40
0.0
  9
$DIMTM
 40
0.0
  9
$DIMTXT
 40
2.5
  9
$DIMCEN
 40
2.5
  9
$DIMTSZ
 40
0.0
  9
$DIMTOL
 70
0
  9
$DIMLIM
 70
0
  9
$DIMTIH
 70
0
  9
$DIMTOH
 70
0
  9
$DIMSE1
 70
0
  9
$DIMSE2
 70
0
  9
$DIMTAD
 70
1
  9
$DIMZIN
 70
8
  9
$DIMBLK
  1

  9
$DIMASO
 70
1
  9
$DIMSHO
 70
1
  9
$DIMPOST
  1

  9
$DIMAPOST
  1

  9
$DIMALT
 70
0
  9
$DIMALTD
 70
3
  9
$DIMALTF
 40
0.03937007874
  9
$DIMLFAC
 40
1.0
  9
$DIMTOFL
 70
1
  9
$DIMTVP
 40
0.0
  9
$DIMTIX
 70
0
  9
$DIMSOXD
 70
0
  9
$DIMSAH
 70
0
  9
$DIMBLK1
  1

  9
$DIMBLK2
  1

  9
$DIMSTYLE
  2
ISO-25
  9
$DIMCLRD
 70
0
  9
$DIMCLRE
 70
0
  9
$DIMCLRT
 70
0
  9
$DIMTFAC
 40
1.0
  9
$DIMGAP
 40
0.625
  9
$DIMJUST
 70
0
  9
$DIMSD1
 70
0
  9
$DIMSD2
 70
0
  9
$DIMTOLJ
 70
0
  9
$DIMTZIN
 70
8
  9
$DIMALTZ
 70
0
  9
$DIMALTTZ
 70
0
  9
$DIMUPT
 70
0
  9
$DIMDEC
 70
2
  9
$DIMTDEC
 70
2
  9
$DIMALTU
 70
2
  9
$DIMALTTD
 70
3
  9
$DIMTXSTY
  7
Standard
  9
$DIMAUNIT
 70
0
  9
$DIMADEC
 70
0
  9
$DIMALTRND
 40
0.0
  9
$DIMAZIN
 70
0
  9
$DIMDSEP
 70
44
  9
$DIMATFIT
 70
3
  9
$DIMFRAC
 70
0
  9
$DIMLDRBLK
  1

  9
$DIMLUNIT
 70
2
  9
$DIMLWD
 70
-2
  9
$DIMLWE
 70
-2
  9
$DIMTMOVE
 70
0
  9
$DIMFXL
 40
1.0
  9
$DIMFXLON
 70
0
  9
$DIMJOGANG
 40
0.785398163397
  9
$DIMTFILL
 70
0
  9
$DIMTFILLCLR
 70
0
  9
$DIMARCSYM
 70
0
  9
$DIMLTYPE
  6

  9
$DIMLTEX1
  6

  9
$DIMLTEX2
  6

  9
$DIMTXTDIRECTION
 70
0
  9
$LUNITS
 70
2
  9
$LUPREC
 70
4
  9
$SKETCHINC
 40
1.0
  9
$FILLETRAD
 40
10.0
  9
$AUNITS
 70
0
  9
$AUPREC
 70
2
  9
$MENU
  1
.
  9
$ELEVATION
 40
0.0
  9
$PELEVATION
 40
0.0
  9
$THICKNESS
 40
0.0
  9
$LIMCHECK
 70
0
  9
$CHAMFERA
 40
0.0
  9
$CHAMFERB
 40
0.0
  9
$CHAMFERC
 40
0.0
  9
$CHAMFERD
 40
0.0
  9
$SKPOLY
 70
0
  9
$TDCREATE
 40
2461140.590138889
  9
$TDUCREATE
 40
2458532.153996898
  9
$TDUPDATE
 40
2461140.590138889
  9
$TDUUPDATE
 40
2458532.1544311
  9
$TDINDWG
 40
0.0
  9
$TDUSRTIMER
 40
0.0
  9
$USRTIMER
 70
1
  9
$ANGBASE
 50
0.0
  9
$ANGDIR
 70
0
  9
$PDMODE
 70
0
  9
$PDSIZE
 40
0.0
  9
$PLINEWID
 40
0.0
  9
$SPLFRAME
 70
0
  9
$SPLINETYPE
 70
6
  9
$SPLINESEGS
 70
8
  9
$HANDSEED
  5
3B
  9
$SURFTAB1
 70
6
  9
$SURFTAB2
 70
6
  9
$SURFTYPE
 70
6
  9
$SURFU
 70
6
  9
$SURFV
 70
6
  9
$UCSBASE
  2

  9
$UCSNAME
  2

  9
$UCSORG
 10
0.0
 20
0.0
 30
0.0
  9
$UCSXDIR
 10
1.0
 20
0.0
 30
0.0
  9
$UCSYDIR
 10
0.0
 20
1.0
 30
0.0
  9
$UCSORTHOREF
  2

  9
$UCSORTHOVIEW
 70
0
  9
$UCSORGTOP
 10
0.0
 20
0.0
 30
0.0
  9
$UCSORGBOTTOM
 10
0.0
 20
0.0
 30
0.0
  9
$UCSORGLEFT
 10
0.0
 20
0.0
 30
0.0
  9
$UCSORGRIGHT
 10
0.0
 20
0.0
 30
0.0
  9
$UCSORGFRONT
 10
0.0
 20
0.0
 30
0.0
  9
$UCSORGBACK
 10
0.0
 20
0.0
 30
0.0
  9
$PUCSBASE
  2

  9
$PUCSNAME
  2

  9
$PUCSORG
 10
0.0
 20
0.0
 30
0.0
  9
$PUCSXDIR
 10
1.0
 20
0.0
 30
0.0
  9
$PUCSYDIR
 10
0.0
 20
1.0
 30
0.0
  9
$PUCSORTHOREF
  2

  9
$PUCSORTHOVIEW
 70
0
  9
$PUCSORGTOP
 10
0.0
 20
0.0
 30
0.0
  9
$PUCSORGBOTTOM
 10
0.0
 20
0.0
 30
0.0
  9
$PUCSORGLEFT
 10
0.0
 20
0.0
 30
0.0
  9
$PUCSORGRIGHT
 10
0.0
 20
0.0
 30
0.0
  9
$PUCSORGFRONT
 10
0.0
 20
0.0
 30
0.0
  9
$PUCSORGBACK
 10
0.0
 20
0.0
 30
0.0
  9
$USERI1
 70
0
  9
$USERI2
 70
0
  9
$USERI3
 70
0
  9
$USERI4
 70
0
  9
$USERI5
 70
0
  9
$USERR1
 40
0.0
  9
$USERR2
 40
0.0
  9
$USERR3
 40
0.0
  9
$USERR4
 40
0.0
  9
$USERR5
 40
0.0
  9
$WORLDVIEW
 70
1
  9
$SHADEDGE
 70
3
  9
$SHADEDIF
 70
70
  9
$TILEMODE
 70
1
  9
$MAXACTVP
 70
64
  9
$PINSBASE
 10
0.0
 20
0.0
 30
0.0
  9
$PLIMCHECK
 70
0
  9
$PEXTMIN
 10
1e+20
 20
1e+20
 30
1e+20
  9
$PEXTMAX
 10
-1e+20
 20
-1e+20
 30
-1e+20
  9
$PLIMMIN
 10
0.0
 20
0.0
  9
$PLIMMAX
 10
420.0
 20
297.0
  9
$UNITMODE
 70
0
  9
$VISRETAIN
 70
1
  9
$PLINEGEN
 70
0
  9
$PSLTSCALE
 70
1
  9
$TREEDEPTH
 70
3020
  9
$CMLSTYLE
  2
Standard
  9
$CMLJUST
 70
0
  9
$CMLSCALE
 40
20.0
  9
$PROXYGRAPHICS
 70
1
  9
$MEASUREMENT
 70
1
  9
$CELWEIGHT
370
-1
  9
$ENDCAPS
280
0
  9
$JOINSTYLE
280
0
  9
$LWDISPLAY
290
0
  9
$INSUNITS
 70
6
  9
$HYPERLINKBASE
  1

  9
$STYLESHEET
  1

  9
$XEDIT
290
1
  9
$CEPSNTYPE
380
0
  9
$PSTYLEMODE
290
1
  9
$FINGERPRINTGUID
  2
{A8A85D47-056F-41AE-A7CA-665D602300EB}
  9
$VERSIONGUID
  2
{356F4A6F-C8B0-4D07-8479-3FD1DF53AB4F}
  9
$EXTNAMES
290
1
  9
$PSVPSCALE
 40
0.0
  9
$OLESTARTUP
290
0
  9
$SORTENTS
280
127
  9
$INDEXCTL
280
0
  9
$HIDETEXT
280
1
  9
$XCLIPFRAME
280
1
  9
$HALOGAP
280
0
  9
$OBSCOLOR
 70
257
  9
$OBSLTYPE
280
0
  9
$INTERSECTIONDISPLAY
280
0
  9
$INTERSECTIONCOLOR
 70
257
  9
$DIMASSOC
280
2
  9
$PROJECTNAME
  1

  9
$CAMERADISPLAY
290
0
  9
$LENSLENGTH
 40
50.0
  9
$CAMERAHEIGHT
 40
0.0
  9
$STEPSPERSEC
 40
24.0
  9
$STEPSIZE
 40
100.0
  9
$3DDWFPREC
 40
2.0
  9
$PSOLWIDTH
 40
0.005
  9
$PSOLHEIGHT
 40
0.08
  9
$LOFTANG1
 40
1.570796326795
  9
$LOFTANG2
 40
1.570796326795
  9
$LOFTMAG1
 40
0.0
  9
$LOFTMAG2
 40
0.0
  9
$LOFTPARAM
 70
7
  9
$LOFTNORMALS
280
1
  9
$LATITUDE
 40
37.795
  9
$LONGITUDE
 40
-122.394
  9
$NORTHDIRECTION
 40
0.0
  9
$TIMEZONE
 70
-8000
  9
$LIGHTGLYPHDISPLAY
280
1
  9
$TILEMODELIGHTSYNCH
280
1
  9
$CMATERIAL
347
20
  9
$SOLIDHIST
280
0
  9
$SHOWHIST
280
1
  9
$DWFFRAME
280
2
  9
$DGNFRAME
280
2
  9
$REALWORLDSCALE
290
1
  9
$INTERFERECOLOR
 62
256
  9
$CSHADOW
280
0
  9
$SHADOWPLANELOCATION
 40
0.0
  0
ENDSEC
  0
SECTION
  2
CLASSES
  0
CLASS
  1
ACDBDICTIONARYWDFLT
  2
AcDbDictionaryWithDefault
  3
ObjectDBX Classes
 90
0
 91
0
280
0
281
0
  0
CLASS
  1
SUN
  2
AcDbSun
  3
SCENEOE
 90
1153
 91
0
280
0
281
0
  0
CLASS
  1
VISUALSTYLE
  2
AcDbVisualStyle
  3
ObjectDBX Classes
 90
4095
 91
0
280
0
281
0
  0
CLASS
  1
MATERIAL
  2
AcDbMaterial
  3
ObjectDBX Classes
 90
1153
 91
0
280
0
281
0
  0
CLASS
  1
SCALE
  2
AcDbScale
  3
ObjectDBX Classes
 90
1153
 91
0
280
0
281
0
  0
CLASS
  1
TABLESTYLE
  2
AcDbTableStyle
  3
ObjectDBX Classes
 90
4095
 91
0
280
0
281
0
  0
CLASS
  1
MLEADERSTYLE
  2
AcDbMLeaderStyle
  3
ACDB_MLEADERSTYLE_CLASS
 90
4095
 91
0
280
0
281
0
  0
CLASS
  1
DICTIONARYVAR
  2
AcDbDictionaryVar
  3
ObjectDBX Classes
 90
0
 91
0
280
0
281
0
  0
CLASS
  1
CELLSTYLEMAP
  2
AcDbCellStyleMap
  3
ObjectDBX Classes
 90
1152
 91
0
280
0
281
0
  0
CLASS
  1
MENTALRAYRENDERSETTINGS
  2
AcDbMentalRayRenderSettings
  3
SCENEOE
 90
1024
 91
0
280
0
281
0
  0
CLASS
  1
ACDBDETAILVIEWSTYLE
  2
AcDbDetailViewStyle
  3
ObjectDBX Classes
 90
1025
 91
0
280
0
281
0
  0
CLASS
  1
ACDBSECTIONVIEWSTYLE
  2
AcDbSectionViewStyle
  3
ObjectDBX Classes
 90
1025
 91
0
280
0
281
0
  0
CLASS
  1
RASTERVARIABLES
  2
AcDbRasterVariables
  3
ISM
 90
0
 91
0
280
0
281
0
  0
CLASS
  1
LAYOUT
  2
AcDbLayout
  3
ObjectDBX Classes
 90
0
 91
0
280
0
281
0
  0
CLASS
  1
ACDBPLACEHOLDER
  2
AcDbPlaceHolder
  3
ObjectDBX Classes
 90
0
 91
0
280
0
281
0
  0
ENDSEC
  0
SECTION
  2
TABLES
  0
TABLE
  2
VPORT
  5
8
330
0
100
AcDbSymbolTable
 70
1
  0
VPORT
  5
23
330
8
100
AcDbSymbolTableRecord
100
AcDbViewportTableRecord
  2
*Active
 70
0
 10
0.0
 20
0.0
 11
1.0
 21
1.0
 12
0.0
 22
0.0
 13
0.0
 23
0.0
 14
0.5
 24
0.5
 15
0.5
 25
0.5
 16
0.0
 26
0.0
 36
1.0
 17
0.0
 27
0.0
 37
0.0
 40
1000.0
 41
1.34
 42
50.0
 43
0.0
 44
0.0
 50
0.0
 51
0.0
 71
0
 72
1000
 73
1
 74
3
 75
0
 76
0
 77
0
 78
0
281
0
 65
0
146
0.0
  0
ENDTAB
  0
TABLE
  2
LTYPE
  5
2
330
0
100
AcDbSymbolTable
 70
3
  0
LTYPE
  5
24
330
2
100
AcDbSymbolTableRecord
100
AcDbLinetypeTableRecord
  2
ByBlock
 70
0
  3

 72
65
 73
0
 40
0.0
  0
LTYPE
  5
25
330
2
100
AcDbSymbolTableRecord
100
AcDbLinetypeTableRecord
  2
ByLayer
 70
0
  3

 72
65
 73
0
 40
0.0
  0
LTYPE
  5
26
330
2
100
AcDbSymbolTableRecord
100
AcDbLinetypeTableRecord
  2
Continuous
 70
0
  3

 72
65
 73
0
 40
0.0
  0
ENDTAB
  0
TABLE
  2
LAYER
  5
1
330
0
100
AcDbSymbolTable
 70
2
  0
LAYER
  5
27
330
1
100
AcDbSymbolTableRecord
100
AcDbLayerTableRecord
  2
0
 70
0
 62
7
  6
Continuous
370
-3
390
13
347
21
  0
LAYER
  5
28
330
1
100
AcDbSymbolTableRecord
100
AcDbLayerTableRecord
  2
Defpoints
 70
0
 62
7
  6
Continuous
290
0
370
-3
390
13
347
21
  0
ENDTAB
  0
TABLE
  2
STYLE
  5
5
330
0
100
AcDbSymbolTable
 70
1
  0
STYLE
  5
29
330
5
100
AcDbSymbolTableRecord
100
AcDbTextStyleTableRecord
  2
Standard
 70
0
 40
0.0
 41
1.0
 50
0.0
 71
0
 42
2.5
  3
txt
  4

  0
ENDTAB
  0
TABLE
  2
VIEW
  5
7
330
0
100
AcDbSymbolTable
 70
0
  0
ENDTAB
  0
TABLE
  2
UCS
  5
6
330
0
100
AcDbSymbolTable
 70
0
  0
ENDTAB
  0
TABLE
  2
APPID
  5
3
330
0
100
AcDbSymbolTable
 70
3
  0
APPID
  5
2A
330
3
100
AcDbSymbolTableRecord
100
AcDbRegAppTableRecord
  2
ACAD
 70
0
  0
APPID
  5
38
330
3
100
AcDbSymbolTableRecord
100
AcDbRegAppTableRecord
  2
HATCHBACKGROUNDCOLOR
 70
0
  0
APPID
  5
39
330
3
100
AcDbSymbolTableRecord
100
AcDbRegAppTableRecord
  2
EZDXF
 70
0
  0
ENDTAB
  0
TABLE
  2
DIMSTYLE
  5
4
330
0
100
AcDbSymbolTable
 70
1
100
AcDbDimStyleTable
  0
DIMSTYLE
105
2B
330
4
100
AcDbSymbolTableRecord
100
AcDbDimStyleTableRecord
  2
Standard
 70
0
 40
1.0
 41
2.5
 42
0.625
 43
3.75
 44
1.25
 45
0.0
 46
0.0
 47
0.0
 48
0.0
 49
2.5
140
2.5
141
2.5
142
0.0
143
0.03937007874
144
1.0
145
0.0
146
1.0
147
0.625
148
0.0
 69
0
 70
0
 71
0
 72
0
 73
0
 74
0
 75
0
 76
0
 77
1
 78
8
 79
3
170
0
171
3
172
1
173
0
174
0
175
0
176
0
177
0
178
0
179
2
271
2
272
2
273
2
274
3
275
0
276
0
277
2
278
44
279
0
280
0
281
0
282
0
283
0
284
8
285
0
286
0
288
0
289
3
290
0
371
-2
372
-2
  0
ENDTAB
  0
TABLE
  2
BLOCK_RECORD
  5
9
330
0
100
AcDbSymbolTable
 70
2
  0
BLOCK_RECORD
  5
17
330
9
100
AcDbSymbolTableRecord
100
AcDbBlockTableRecord
  2
*Model_Space
340
1A
 70
0
280
1
281
0
  0
BLOCK_RECORD
  5
1B
330
9
100
AcDbSymbolTableRecord
100
AcDbBlockTableRecord
  2
*Paper_Space
340
1E
 70
0
280
1
281
0
  0
ENDTAB
  0
ENDSEC
  0
SECTION
  2
BLOCKS
  0
BLOCK
  5
18
330
17
100
AcDbEntity
  8
0
100
AcDbBlockBegin
  2
*Model_Space
 70
0
 10
0.0
 20
0.0
 30
0.0
  3
*Model_Space
  1

  0
ENDBLK
  5
19
330
17
100
AcDbEntity
  8
0
100
AcDbBlockEnd
  0
BLOCK
  5
1C
330
1B
100
AcDbEntity
  8
0
100
AcDbBlockBegin
  2
*Paper_Space
 70
0
 10
0.0
 20
0.0
 30
0.0
  3
*Paper_Space
  1

  0
ENDBLK
  5
1D
330
1B
100
AcDbEntity
  8
0
100
AcDbBlockEnd
  0
ENDSEC
  0
SECTION
  2
ENTITIES
  0
LWPOLYLINE
  5
33
330
17
100
AcDbEntity
  8
0
100
AcDbPolyline
 90
78
 70
0
 10
137.06246400000003
 20
-147.30679199999986
 10
134.21918800000003
 20
-137.07592599999984
 10
124.18161600000003
 20
-110.46688599999986
 10
123.89231000000002
 20
-110.00968599999985
 10
123.54788600000003
 20
-109.60201599999985
 10
123.15494800000002
 20
-109.24717799999985
 10
122.71959200000002
 20
-108.94872799999985
 10
122.24842200000002
 20
-108.71022199999985
 10
121.74778800000001
 20
-108.53546999999985
 10
121.22429400000003
 20
-108.42777399999984
 10
115.83873200000002
 20
-108.38586399999984
 10
115.60937000000003
 20
-108.66348599999985
 10
115.34825800000002
 20
-108.91519999999984
 10
115.05514200000002
 20
-109.13770399999984
 10
114.73002200000002
 20
-109.32744199999985
 10
114.37315200000003
 20
-109.48111199999985
 10
113.98402400000003
 20
-109.59515799999986
 10
113.56289200000003
 20
-109.66602399999985
 10
113.10950200000002
 20
-109.69040799999985
 10
112.65433400000003
 20
-109.66602399999985
 10
112.23167800000003
 20
-109.59490399999986
 10
111.84153400000004
 20
-109.48034999999985
 10
111.48364800000004
 20
-109.32617199999984
 10
111.15802000000005
 20
-109.13567199999984
 10
110.86465000000005
 20
-108.91215199999985
 10
110.60328400000004
 20
-108.65942199999985
 10
110.37392200000005
 20
-108.38052999999984
 10
109.51794200000005
 20
-108.41812199999984
 10
108.85398600000005
 20
-108.53165999999985
 10
108.20730200000006
 20
-108.71936599999984
 10
107.58398600000005
 20
-108.97996999999984
 10
107.30661800000006
 20
-109.13059199999985
 10
107.04753800000006
 20
-109.30254999999985
 10
106.80725400000006
 20
-109.49431999999986
 10
106.58652800000004
 20
-109.70437799999985
 10
106.38612200000004
 20
-109.93119999999985
 10
106.20679800000005
 20
-110.17300799999984
 10
106.04906400000004
 20
-110.42853199999983
 10
105.91368200000005
 20
-110.69624799999983
 10
105.80141400000005
 20
-110.97437799999985
 10
105.71276800000004
 20
-111.26139799999984
 10
105.64850600000005
 20
-111.55578399999983
 10
105.60939000000005
 20
-111.85601199999984
 10
105.59618200000004
 20
-112.16055799999984
 10
105.60939000000005
 20
-112.46789799999983
 10
105.64977600000005
 20
-112.77650799999984
 10
116.62384600000004
 20
-155.58566799999983
 10
116.67337600000005
 20
-155.70606399999986
 10
116.73179600000005
 20
-155.82112599999985
 10
116.79885200000005
 20
-155.93009199999983
 10
116.87378200000005
 20
-156.03296199999983
 10
116.95633200000005
 20
-156.12922799999984
 10
117.04599400000005
 20
-156.21838199999982
 10
117.14226000000006
 20
-156.30016999999984
 10
117.24462200000006
 20
-156.37408399999984
 10
117.35257200000007
 20
-156.43986999999984
 10
117.46560200000006
 20
-156.49701999999985
 10
117.58320400000007
 20
-156.54527999999988
 10
117.70512400000007
 20
-156.58414199999987
 10
117.83060000000009
 20
-156.61335199999988
 10
117.95937800000009
 20
-156.63265599999988
 10
136.9093020000001
 20
-156.82798199999988
 10
136.9827080000001
 20
-156.8183299999999
 10
137.05357400000008
 20
-156.80131199999988
 10
137.1213920000001
 20
-156.77743599999988
 10
137.1856540000001
 20
-156.74695599999987
 10
137.24610600000014
 20
-156.71037999999987
 10
137.30224000000013
 20
-156.66796199999985
 10
137.35380200000012
 20
-156.62020999999987
 10
137.4002840000001
 20
-156.56737799999988
 10
137.44143200000013
 20
-156.50997399999986
 10
137.47673800000013
 20
-156.44850599999987
 10
137.50594800000013
 20
-156.38348199999987
 10
137.52855400000016
 20
-156.3151559999999
 10
137.54430200000016
 20
-156.2437819999999
 10
137.55268400000017
 20
-156.1698679999999
 10
137.49883600000015
 20
-150.80995999999988
 10
137.06195600000015
 20
-147.30729999999988
  0
LWPOLYLINE
  5
34
330
17
100
AcDbEntity
  8
0
100
AcDbPolyline
 90
65
 70
0
 10
120.20448400000015
 20
-146.3862959999999
 10
120.22175600000016
 20
-146.72640199999992
 10
120.27230200000015
 20
-147.05685599999993
 10
120.35434400000015
 20
-147.3758799999999
 10
120.46635800000014
 20
-147.6816959999999
 10
120.60656600000014
 20
-147.9725259999999
 10
120.77319000000016
 20
-148.24684599999992
 10
120.96470600000015
 20
-148.5031319999999
 10
121.17959000000016
 20
-148.7393519999999
 10
121.41581000000016
 20
-148.9542359999999
 10
121.67209600000017
 20
-149.1457519999999
 10
121.94641600000016
 20
-149.3123759999999
 10
122.23724600000016
 20
-149.45258399999992
 10
122.54306200000015
 20
-149.56434399999992
 10
122.86208600000015
 20
-149.64638599999992
 10
123.19254000000015
 20
-149.6966779999999
 10
123.53290000000014
 20
-149.7139499999999
 10
123.87326000000013
 20
-149.6966779999999
 10
124.20371400000013
 20
-149.64638599999992
 10
124.52273800000012
 20
-149.56434399999992
 10
124.82855400000012
 20
-149.45258399999992
 10
125.11938400000012
 20
-149.3123759999999
 10
125.39370400000011
 20
-149.1457519999999
 10
125.64999000000012
 20
-148.9542359999999
 10
125.88621000000012
 20
-148.7393519999999
 10
126.10109400000012
 20
-148.5031319999999
 10
126.29261000000012
 20
-148.24684599999992
 10
126.45923400000012
 20
-147.9725259999999
 10
126.59944200000014
 20
-147.6816959999999
 10
126.71145600000013
 20
-147.3758799999999
 10
126.79349800000011
 20
-147.05685599999993
 10
126.84404400000012
 20
-146.72640199999992
 10
126.86131600000012
 20
-146.3862959999999
 10
126.84404400000012
 20
-146.0459359999999
 10
126.79349800000011
 20
-145.7154819999999
 10
126.71145600000013
 20
-145.3967119999999
 10
126.59944200000014
 20
-145.0908959999999
 10
126.45923400000012
 20
-144.8000659999999
 10
126.29261000000012
 20
-144.52574599999988
 10
126.10109400000012
 20
-144.2694599999999
 10
125.88621000000012
 20
-144.0332399999999
 10
125.64999000000012
 20
-143.8183559999999
 10
125.39370400000011
 20
-143.6268399999999
 10
125.11938400000012
 20
-143.46021599999992
 10
124.82855400000012
 20
-143.32000799999992
 10
124.52273800000012
 20
-143.2079939999999
 10
124.20371400000013
 20
-143.1259519999999
 10
123.87326000000013
 20
-143.0754059999999
 10
123.53290000000014
 20
-143.0581339999999
 10
123.19254000000015
 20
-143.0754059999999
 10
122.86208600000015
 20
-143.1259519999999
 10
122.54306200000015
 20
-143.2079939999999
 10
122.23724600000016
 20
-143.32000799999992
 10
121.94641600000016
 20
-143.46021599999992
 10
121.67209600000017
 20
-143.6268399999999
 10
121.41581000000016
 20
-143.8183559999999
 10
121.17959000000016
 20
-144.0332399999999
 10
120.96470600000015
 20
-144.2694599999999
 10
120.77319000000016
 20
-144.52574599999988
 10
120.60656600000014
 20
-144.8000659999999
 10
120.46635800000014
 20
-145.0908959999999
 10
120.35434400000015
 20
-145.3967119999999
 10
120.27230200000015
 20
-145.7154819999999
 10
120.22175600000016
 20
-146.0459359999999
 10
120.20448400000015
 20
-146.3862959999999
  0
LWPOLYLINE
  5
35
330
17
100
AcDbEntity
  8
0
100
AcDbPolyline
 90
65
 70
0
 10
113.66474600000015
 20
-126.3213119999999
 10
113.68989200000014
 20
-126.8196599999999
 10
113.76380600000014
 20
-127.3035299999999
 10
113.88394800000015
 20
-127.7706359999999
 10
114.04777800000015
 20
-128.2184379999999
 10
114.25301000000015
 20
-128.6443959999999
 10
114.49710400000015
 20
-129.0462239999999
 10
114.77777400000015
 20
-129.42138199999988
 10
115.09222600000015
 20
-129.76758399999989
 10
115.43842800000016
 20
-130.0820359999999
 10
115.81358600000014
 20
-130.3627059999999
 10
116.21541400000015
 20
-130.6067999999999
 10
116.64137200000015
 20
-130.8120319999999
 10
117.08917400000014
 20
-130.9758619999999
 10
117.55628000000014
 20
-131.09600399999988
 10
118.04015000000014
 20
-131.16991799999988
 10
118.53849800000013
 20
-131.19506399999992
 10
119.03684600000012
 20
-131.16991799999988
 10
119.52071600000012
 20
-131.09600399999988
 10
119.98782200000012
 20
-130.9758619999999
 10
120.43562400000012
 20
-130.8120319999999
 10
120.86158200000013
 20
-130.6067999999999
 10
121.26341000000012
 20
-130.3627059999999
 10
121.63856800000012
 20
-130.0820359999999
 10
121.98477000000011
 20
-129.76758399999989
 10
122.29922200000011
 20
-129.42138199999988
 10
122.57989200000011
 20
-129.0462239999999
 10
122.82398600000012
 20
-128.6443959999999
 10
123.02921800000013
 20
-128.2184379999999
 10
123.19304800000012
 20
-127.7706359999999
 10
123.31319000000012
 20
-127.3035299999999
 10
123.38710400000012
 20
-126.8196599999999
 10
123.41225000000011
 20
-126.3213119999999
 10
123.38710400000012
 20
-125.82296399999991
 10
123.31319000000012
 20
-125.33909399999992
 10
123.19304800000012
 20
-124.87198799999992
 10
123.02921800000013
 20
-124.42418599999992
 10
122.82398600000012
 20
-123.99822799999991
 10
122.57989200000011
 20
-123.59639999999992
 10
122.29922200000011
 20
-123.22124199999993
 10
121.98477000000011
 20
-122.87503999999993
 10
121.63856800000012
 20
-122.56058799999992
 10
121.26341000000012
 20
-122.27991799999992
 10
120.86158200000013
 20
-122.03582399999992
 10
120.43562400000012
 20
-121.83059199999992
 10
119.98782200000012
 20
-121.66676199999992
 10
119.52071600000012
 20
-121.54661999999992
 10
119.03684600000012
 20
-121.47270599999992
 10
118.53849800000013
 20
-121.44755999999992
 10
118.04015000000014
 20
-121.47270599999992
 10
117.55628000000014
 20
-121.54661999999992
 10
117.08917400000014
 20
-121.66676199999992
 10
116.64137200000015
 20
-121.83059199999992
 10
116.21541400000015
 20
-122.03582399999992
 10
115.81358600000014
 20
-122.27991799999992
 10
115.43842800000016
 20
-122.56058799999992
 10
115.09222600000015
 20
-122.87503999999993
 10
114.77777400000015
 20
-123.22124199999993
 10
114.49710400000015
 20
-123.59639999999992
 10
114.25301000000015
 20
-123.99822799999991
 10
114.04777800000015
 20
-124.42418599999992
 10
113.88394800000015
 20
-124.87198799999992
 10
113.76380600000014
 20
-125.33909399999992
 10
113.68989200000014
 20
-125.82296399999991
 10
113.66474600000015
 20
-126.3213119999999
  0
LWPOLYLINE
  5
37
330
17
100
AcDbEntity
  8
0
100
AcDbPolyline
 90
65
 70
0
 10
109.9972400000001
 20
-106.49889799999987
 10
110.0134960000001
 20
-106.81969999999986
 10
110.06099400000011
 20
-107.13135799999985
 10
110.13846400000011
 20
-107.43209399999986
 10
110.24412800000012
 20
-107.72038399999985
 10
110.3762080000001
 20
-107.99470399999986
 10
110.53343400000011
 20
-108.25352999999986
 10
110.71402800000011
 20
-108.49508399999986
 10
110.91672000000013
 20
-108.71809599999986
 10
111.13973200000011
 20
-108.92078799999986
 10
111.38128600000012
 20
-109.10138199999986
 10
111.64011200000012
 20
-109.25860799999987
 10
111.91443200000012
 20
-109.39068799999987
 10
112.20272200000012
 20
-109.49635199999986
 10
112.50345800000012
 20
-109.57382199999986
 10
112.81511600000012
 20
-109.62131999999987
 10
113.1359180000001
 20
-109.63757599999987
 10
113.4567200000001
 20
-109.62131999999987
 10
113.7683780000001
 20
-109.57382199999986
 10
114.0691140000001
 20
-109.49635199999986
 10
114.3574040000001
 20
-109.39068799999987
 10
114.6317240000001
 20
-109.25860799999987
 10
114.8905500000001
 20
-109.10138199999986
 10
115.13210400000011
 20
-108.92078799999986
 10
115.3551160000001
 20
-108.71809599999986
 10
115.55780800000011
 20
-108.49508399999986
 10
115.73840200000011
 20
-108.25352999999986
 10
115.89562800000012
 20
-107.99470399999986
 10
116.0277080000001
 20
-107.72038399999985
 10
116.13337200000011
 20
-107.43209399999986
 10
116.21084200000011
 20
-107.13135799999985
 10
116.25834000000012
 20
-106.81969999999986
 10
116.27459600000012
 20
-106.49889799999987
 10
116.25834000000012
 20
-106.17809599999987
 10
116.21084200000011
 20
-105.86643799999987
 10
116.13337200000011
 20
-105.56570199999987
 10
116.0277080000001
 20
-105.27741199999987
 10
115.89562800000012
 20
-105.00309199999988
 10
115.73840200000011
 20
-104.74426599999988
 10
115.55780800000011
 20
-104.50271199999987
 10
115.3551160000001
 20
-104.27969999999988
 10
115.13210400000011
 20
-104.07700799999988
 10
114.8905500000001
 20
-103.89641399999987
 10
114.6317240000001
 20
-103.73918799999986
 10
114.3574040000001
 20
-103.60710799999987
 10
114.0691140000001
 20
-103.50144399999986
 10
113.7683780000001
 20
-103.42397399999987
 10
113.4567200000001
 20
-103.37647599999987
 10
113.1359180000001
 20
-103.36021999999986
 10
112.81511600000012
 20
-103.37647599999987
 10
112.50345800000012
 20
-103.42397399999987
 10
112.20272200000012
 20
-103.50144399999986
 10
111.91443200000012
 20
-103.60710799999987
 10
111.64011200000012
 20
-103.73918799999986
 10
111.38128600000012
 20
-103.89641399999987
 10
111.13973200000011
 20
-104.07700799999988
 10
110.91672000000013
 20
-104.27969999999988
 10
110.71402800000011
 20
-104.50271199999987
 10
110.53343400000011
 20
-104.74426599999988
 10
110.3762080000001
 20
-105.00309199999988
 10
110.24412800000012
 20
-105.27741199999987
 10
110.13846400000011
 20
-105.56570199999987
 10
110.06099400000011
 20
-105.86643799999987
 10
110.0134960000001
 20
-106.17809599999987
 10
109.9972400000001
 20
-106.49889799999987
  0
ENDSEC
  0
SECTION
  2
OBJECTS
  0
DICTIONARY
  5
A
330
0
100
AcDbDictionary
281
1
  3
ACAD_COLOR
350
B
  3
ACAD_GROUP
350
C
  3
ACAD_LAYOUT
350
D
  3
ACAD_MATERIAL
350
E
  3
ACAD_MLEADERSTYLE
350
F
  3
ACAD_MLINESTYLE
350
10
  3
ACAD_PLOTSETTINGS
350
11
  3
ACAD_PLOTSTYLENAME
350
12
  3
ACAD_SCALELIST
350
14
  3
ACAD_TABLESTYLE
350
15
  3
ACAD_VISUALSTYLE
350
16
  3
EZDXF_META
350
2D
  0
DICTIONARY
  5
B
330
A
100
AcDbDictionary
281
1
  0
DICTIONARY
  5
C
330
A
100
AcDbDictionary
281
1
  0
DICTIONARY
  5
D
330
A
100
AcDbDictionary
281
1
  3
Model
350
1A
  3
Layout1
350
1E
  0
DICTIONARY
  5
E
330
A
100
AcDbDictionary
281
1
  3
ByBlock
350
1F
  3
ByLayer
350
20
  3
Global
350
21
  0
DICTIONARY
  5
F
330
A
100
AcDbDictionary
281
1
  3
Standard
350
2C
  0
DICTIONARY
  5
10
330
A
100
AcDbDictionary
281
1
  3
Standard
350
22
  0
DICTIONARY
  5
11
330
A
100
AcDbDictionary
281
1
  0
ACDBDICTIONARYWDFLT
  5
12
330
A
100
AcDbDictionary
281
1
  3
Normal
350
13
100
AcDbDictionaryWithDefault
340
13
  0
ACDBPLACEHOLDER
  5
13
330
12
  0
DICTIONARY
  5
14
330
A
100
AcDbDictionary
281
1
  0
DICTIONARY
  5
15
330
A
100
AcDbDictionary
281
1
  0
DICTIONARY
  5
16
330
A
100
AcDbDictionary
281
1
  0
LAYOUT
  5
1A
330
D
100
AcDbPlotSettings
  1

  4
A3
  6

 40
7.5
 41
20.0
 42
7.5
 43
20.0
 44
420.0
 45
297.0
 46
0.0
 47
0.0
 48
0.0
 49
0.0
140
0.0
141
0.0
142
1.0
143
1.0
 70
1024
 72
1
 73
0
 74
5
  7

 75
16
 76
0
 77
2
 78
300
147
1.0
148
0.0
149
0.0
100
AcDbLayout
  1
Model
 70
1
 71
0
 10
0.0
 20
0.0
 11
420.0
 21
297.0
 12
0.0
 22
0.0
 32
0.0
 14
1e+20
 24
1e+20
 34
1e+20
 15
-1e+20
 25
-1e+20
 35
-1e+20
146
0.0
 13
0.0
 23
0.0
 33
0.0
 16
1.0
 26
0.0
 36
0.0
 17
0.0
 27
1.0
 37
0.0
 76
1
330
17
  0
LAYOUT
  5
1E
330
D
100
AcDbPlotSettings
  1

  4
A3
  6

 40
7.5
 41
20.0
 42
7.5
 43
20.0
 44
420.0
 45
297.0
 46
0.0
 47
0.0
 48
0.0
 49
0.0
140
0.0
141
0.0
142
1.0
143
1.0
 70
0
 72
1
 73
0
 74
5
  7

 75
16
 76
0
 77
2
 78
300
147
1.0
148
0.0
149
0.0
100
AcDbLayout
  1
Layout1
 70
1
 71
1
 10
0.0
 20
0.0
 11
420.0
 21
297.0
 12
0.0
 22
0.0
 32
0.0
 14
1e+20
 24
1e+20
 34
1e+20
 15
-1e+20
 25
-1e+20
 35
-1e+20
146
0.0
 13
0.0
 23
0.0
 33
0.0
 16
1.0
 26
0.0
 36
0.0
 17
0.0
 27
1.0
 37
0.0
 76
1
330
1B
  0
MATERIAL
  5
1F
102
{ACAD_REACTORS
330
E
102
}
330
E
100
AcDbMaterial
  1
ByBlock
  2

 70
0
 40
1.0
 71
1
 41
1.0
 91
-1023410177
 42
1.0
 72
1
  3

 73
1
 74
1
 75
1
 44
0.5
 73
0
 45
1.0
 46
1.0
 77
1
  4

 78
1
 79
1
170
1
 48
1.0
171
1
  6

172
1
173
1
174
1
140
1.0
141
1.0
175
1
  7

176
1
177
1
178
1
143
1.0
179
1
  8

270
1
271
1
272
1
145
1.0
146
1.0
273
1
  9

274
1
275
1
276
1
 42
1.0
 72
1
  3

 73
1
 74
1
 75
1
 94
63
  0
MATERIAL
  5
20
102
{ACAD_REACTORS
330
E
102
}
330
E
100
AcDbMaterial
  1
ByLayer
  2

 70
0
 40
1.0
 71
1
 41
1.0
 91
-1023410177
 42
1.0
 72
1
  3

 73
1
 74
1
 75
1
 44
0.5
 73
0
 45
1.0
 46
1.0
 77
1
  4

 78
1
 79
1
170
1
 48
1.0
171
1
  6

172
1
173
1
174
1
140
1.0
141
1.0
175
1
  7

176
1
177
1
178
1
143
1.0
179
1
  8

270
1
271
1
272
1
145
1.0
146
1.0
273
1
  9

274
1
275
1
276
1
 42
1.0
 72
1
  3

 73
1
 74
1
 75
1
 94
63
  0
MATERIAL
  5
21
102
{ACAD_REACTORS
330
E
102
}
330
E
100
AcDbMaterial
  1
Global
  2

 70
0
 40
1.0
 71
1
 41
1.0
 91
-1023410177
 42
1.0
 72
1
  3

 73
1
 74
1
 75
1
 44
0.5
 73
0
 45
1.0
 46
1.0
 77
1
  4

 78
1
 79
1
170
1
 48
1.0
171
1
  6

172
1
173
1
174
1
140
1.0
141
1.0
175
1
  7

176
1
177
1
178
1
143
1.0
179
1
  8

270
1
271
1
272
1
145
1.0
146
1.0
273
1
  9

274
1
275
1
276
1
 42
1.0
 72
1
  3

 73
1
 74
1
 75
1
 94
63
  0
MLINESTYLE
  5
22
102
{ACAD_REACTORS
330
10
102
}
330
10
100
AcDbMlineStyle
  2
Standard
 70
0
  3

 62
256
 51
90.0
 52
90.0
 71
2
 49
0.5
 62
256
  6
BYLAYER
 49
-0.5
 62
256
  6
BYLAYER
  0
MLEADERSTYLE
  5
2C
102
{ACAD_REACTORS
330
F
102
}
330
F
100
AcDbMLeaderStyle
179
2
170
2
171
1
172
0
 90
2
 40
0.0
 41
0.0
173
1
 91
-1056964608
 92
-2
290
1
 42
2.0
291
1
 43
8.0
  3
Standard
 44
4.0
300

342
29
174
1
175
1
176
0
178
1
 93
-1056964608
 45
4.0
292
0
297
0
 46
4.0
 94
-1056964608
 47
1.0
 49
1.0
140
1.0
294
1
141
0.0
177
0
142
1.0
295
0
296
0
143
3.75
271
0
272
9
273
9
  0
DICTIONARY
  5
2D
330
A
100
AcDbDictionary
280
1
281
1
  3
CREATED_BY_EZDXF
350
2E
  3
WRITTEN_BY_EZDXF
350
3A
  0
DICTIONARYVAR
  5
2E
330
2D
100
DictionaryVariables
280
0
  1
1.4.3 @ 2026-04-08T01:02:29.168719+00:00
  0
DICTIONARYVAR
  5
3A
330
2D
100
DictionaryVariables
280
0
  1
1.4.3 @ 2026-04-09T21:09:48.340918+00:00
  0
ENDSEC
  0
EOF
