  0
SECTION
  2
HEADER
  9
$ACADVER
  1
AC1024
  9
$ACADMAINTVER
 70
6
  9
$DWGCODEPAGE
  3
ANSI_1252
  9
$LASTSAVEDBY
  1
ezdxf
  9
$INSBASE
 10
0.0
 20
0.0
 30
0.0
  9
$EXTMIN
 10
1e+20
 20
1e+20
 30
1e+20
  9
$EXTMAX
 10
-1e+20
 20
-1e+20
 30
-1e+20
  9
$LIMMIN
 10
0.0
 20
0.0
  9
$LIMMAX
 10
420.0
 20
297.0
  9
$ORTHOMODE
 70
0
  9
$REGENMODE
 70
1
  9
$FILLMODE
 70
1
  9
$QTEXTMODE
 70
0
  9
$MIRRTEXT
 70
1
  9
$LTSCALE
 40
1.0
  9
$ATTMODE
 70
1
  9
$TEXTSIZE
 40
2.5
  9
$TRACEWID
 40
1.0
  9
$TEXTSTYLE
  7
Standard
  9
$CLAYER
  8
0
  9
$CELTYPE
  6
ByLayer
  9
$CECOLOR
 62
256
  9
$CELTSCALE
 40
1.0
  9
$DISPSILH
 70
0
  9
$DIMSCALE
 40
1.0
  9
$DIMASZ
 40
2.5
  9
$DIMEXO
 40
0.625
  9
$DIMDLI
 40
3.75
  9
$DIMRND
 40
0.0
  9
$DIMDLE
 40
0.0
  9
$DIMEXE
 40
1.25
  9
$DIMTP
 40
0.0
  9
$DIMTM
 40
0.0
  9
$DIMTXT
 40
2.5
  9
$DIMCEN
 40
2.5
  9
$DIMTSZ
 40
0.0
  9
$DIMTOL
 70
0
  9
$DIMLIM
 70
0
  9
$DIMTIH
 70
0
  9
$DIMTOH
 70
0
  9
$DIMSE1
 70
0
  9
$DIMSE2
 70
0
  9
$DIMTAD
 70
1
  9
$DIMZIN
 70
8
  9
$DIMBLK
  1

  9
$DIMASO
 70
1
  9
$DIMSHO
 70
1
  9
$DIMPOST
  1

  9
$DIMAPOST
  1

  9
$DIMALT
 70
0
  9
$DIMALTD
 70
3
  9
$DIMALTF
 40
0.03937007874
  9
$DIMLFAC
 40
1.0
  9
$DIMTOFL
 70
1
  9
$DIMTVP
 40
0.0
  9
$DIMTIX
 70
0
  9
$DIMSOXD
 70
0
  9
$DIMSAH
 70
0
  9
$DIMBLK1
  1

  9
$DIMBLK2
  1

  9
$DIMSTYLE
  2
ISO-25
  9
$DIMCLRD
 70
0
  9
$DIMCLRE
 70
0
  9
$DIMCLRT
 70
0
  9
$DIMTFAC
 40
1.0
  9
$DIMGAP
 40
0.625
  9
$DIMJUST
 70
0
  9
$DIMSD1
 70
0
  9
$DIMSD2
 70
0
  9
$DIMTOLJ
 70
0
  9
$DIMTZIN
 70
8
  9
$DIMALTZ
 70
0
  9
$DIMALTTZ
 70
0
  9
$DIMUPT
 70
0
  9
$DIMDEC
 70
2
  9
$DIMTDEC
 70
2
  9
$DIMALTU
 70
2
  9
$DIMALTTD
 70
3
  9
$DIMTXSTY
  7
Standard
  9
$DIMAUNIT
 70
0
  9
$DIMADEC
 70
0
  9
$DIMALTRND
 40
0.0
  9
$DIMAZIN
 70
0
  9
$DIMDSEP
 70
44
  9
$DIMATFIT
 70
3
  9
$DIMFRAC
 70
0
  9
$DIMLDRBLK
  1

  9
$DIMLUNIT
 70
2
  9
$DIMLWD
 70
-2
  9
$DIMLWE
 70
-2
  9
$DIMTMOVE
 70
0
  9
$DIMFXL
 40
1.0
  9
$DIMFXLON
 70
0
  9
$DIMJOGANG
 40
0.785398163397
  9
$DIMTFILL
 70
0
  9
$DIMTFILLCLR
 70
0
  9
$DIMARCSYM
 70
0
  9
$DIMLTYPE
  6

  9
$DIMLTEX1
  6

  9
$DIMLTEX2
  6

  9
$DIMTXTDIRECTION
 70
0
  9
$LUNITS
 70
2
  9
$LUPREC
 70
4
  9
$SKETCHINC
 40
1.0
  9
$FILLETRAD
 40
10.0
  9
$AUNITS
 70
0
  9
$AUPREC
 70
2
  9
$MENU
  1
.
  9
$ELEVATION
 40
0.0
  9
$PELEVATION
 40
0.0
  9
$THICKNESS
 40
0.0
  9
$LIMCHECK
 70
0
  9
$CHAMFERA
 40
0.0
  9
$CHAMFERB
 40
0.0
  9
$CHAMFERC
 40
0.0
  9
$CHAMFERD
 40
0.0
  9
$SKPOLY
 70
0
  9
$TDCREATE
 40
2461140.590138889
  9
$TDUCREATE
 40
2458532.153996898
  9
$TDUPDATE
 40
2461140.590138889
  9
$TDUUPDATE
 40
2458532.1544311
  9
$TDINDWG
 40
0.0
  9
$TDUSRTIMER
 40
0.0
  9
$USRTIMER
 70
1
  9
$ANGBASE
 50
0.0
  9
$ANGDIR
 70
0
  9
$PDMODE
 70
0
  9
$PDSIZE
 40
0.0
  9
$PLINEWID
 40
0.0
  9
$SPLFRAME
 70
0
  9
$SPLINETYPE
 70
6
  9
$SPLINESEGS
 70
8
  9
$HANDSEED
  5
3E
  9
$SURFTAB1
 70
6
  9
$SURFTAB2
 70
6
  9
$SURFTYPE
 70
6
  9
$SURFU
 70
6
  9
$SURFV
 70
6
  9
$UCSBASE
  2

  9
$UCSNAME
  2

  9
$UCSORG
 10
0.0
 20
0.0
 30
0.0
  9
$UCSXDIR
 10
1.0
 20
0.0
 30
0.0
  9
$UCSYDIR
 10
0.0
 20
1.0
 30
0.0
  9
$UCSORTHOREF
  2

  9
$UCSORTHOVIEW
 70
0
  9
$UCSORGTOP
 10
0.0
 20
0.0
 30
0.0
  9
$UCSORGBOTTOM
 10
0.0
 20
0.0
 30
0.0
  9
$UCSORGLEFT
 10
0.0
 20
0.0
 30
0.0
  9
$UCSORGRIGHT
 10
0.0
 20
0.0
 30
0.0
  9
$UCSORGFRONT
 10
0.0
 20
0.0
 30
0.0
  9
$UCSORGBACK
 10
0.0
 20
0.0
 30
0.0
  9
$PUCSBASE
  2

  9
$PUCSNAME
  2

  9
$PUCSORG
 10
0.0
 20
0.0
 30
0.0
  9
$PUCSXDIR
 10
1.0
 20
0.0
 30
0.0
  9
$PUCSYDIR
 10
0.0
 20
1.0
 30
0.0
  9
$PUCSORTHOREF
  2

  9
$PUCSORTHOVIEW
 70
0
  9
$PUCSORGTOP
 10
0.0
 20
0.0
 30
0.0
  9
$PUCSORGBOTTOM
 10
0.0
 20
0.0
 30
0.0
  9
$PUCSORGLEFT
 10
0.0
 20
0.0
 30
0.0
  9
$PUCSORGRIGHT
 10
0.0
 20
0.0
 30
0.0
  9
$PUCSORGFRONT
 10
0.0
 20
0.0
 30
0.0
  9
$PUCSORGBACK
 10
0.0
 20
0.0
 30
0.0
  9
$USERI1
 70
0
  9
$USERI2
 70
0
  9
$USERI3
 70
0
  9
$USERI4
 70
0
  9
$USERI5
 70
0
  9
$USERR1
 40
0.0
  9
$USERR2
 40
0.0
  9
$USERR3
 40
0.0
  9
$USERR4
 40
0.0
  9
$USERR5
 40
0.0
  9
$WORLDVIEW
 70
1
  9
$SHADEDGE
 70
3
  9
$SHADEDIF
 70
70
  9
$TILEMODE
 70
1
  9
$MAXACTVP
 70
64
  9
$PINSBASE
 10
0.0
 20
0.0
 30
0.0
  9
$PLIMCHECK
 70
0
  9
$PEXTMIN
 10
1e+20
 20
1e+20
 30
1e+20
  9
$PEXTMAX
 10
-1e+20
 20
-1e+20
 30
-1e+20
  9
$PLIMMIN
 10
0.0
 20
0.0
  9
$PLIMMAX
 10
420.0
 20
297.0
  9
$UNITMODE
 70
0
  9
$VISRETAIN
 70
1
  9
$PLINEGEN
 70
0
  9
$PSLTSCALE
 70
1
  9
$TREEDEPTH
 70
3020
  9
$CMLSTYLE
  2
Standard
  9
$CMLJUST
 70
0
  9
$CMLSCALE
 40
20.0
  9
$PROXYGRAPHICS
 70
1
  9
$MEASUREMENT
 70
1
  9
$CELWEIGHT
370
-1
  9
$ENDCAPS
280
0
  9
$JOINSTYLE
280
0
  9
$LWDISPLAY
290
0
  9
$INSUNITS
 70
6
  9
$HYPERLINKBASE
  1

  9
$STYLESHEET
  1

  9
$XEDIT
290
1
  9
$CEPSNTYPE
380
0
  9
$PSTYLEMODE
290
1
  9
$FINGERPRINTGUID
  2
{E35347D5-B7C0-44A9-B3FB-380699129DEF}
  9
$VERSIONGUID
  2
{35436906-2913-4385-AF4E-4A4614FA0DC1}
  9
$EXTNAMES
290
1
  9
$PSVPSCALE
 40
0.0
  9
$OLESTARTUP
290
0
  9
$SORTENTS
280
127
  9
$INDEXCTL
280
0
  9
$HIDETEXT
280
1
  9
$XCLIPFRAME
280
1
  9
$HALOGAP
280
0
  9
$OBSCOLOR
 70
257
  9
$OBSLTYPE
280
0
  9
$INTERSECTIONDISPLAY
280
0
  9
$INTERSECTIONCOLOR
 70
257
  9
$DIMASSOC
280
2
  9
$PROJECTNAME
  1

  9
$CAMERADISPLAY
290
0
  9
$LENSLENGTH
 40
50.0
  9
$CAMERAHEIGHT
 40
0.0
  9
$STEPSPERSEC
 40
24.0
  9
$STEPSIZE
 40
100.0
  9
$3DDWFPREC
 40
2.0
  9
$PSOLWIDTH
 40
0.005
  9
$PSOLHEIGHT
 40
0.08
  9
$LOFTANG1
 40
1.570796326795
  9
$LOFTANG2
 40
1.570796326795
  9
$LOFTMAG1
 40
0.0
  9
$LOFTMAG2
 40
0.0
  9
$LOFTPARAM
 70
7
  9
$LOFTNORMALS
280
1
  9
$LATITUDE
 40
37.795
  9
$LONGITUDE
 40
-122.394
  9
$NORTHDIRECTION
 40
0.0
  9
$TIMEZONE
 70
-8000
  9
$LIGHTGLYPHDISPLAY
280
1
  9
$TILEMODELIGHTSYNCH
280
1
  9
$CMATERIAL
347
20
  9
$SOLIDHIST
280
0
  9
$SHOWHIST
280
1
  9
$DWFFRAME
280
2
  9
$DGNFRAME
280
2
  9
$REALWORLDSCALE
290
1
  9
$INTERFERECOLOR
 62
256
  9
$CSHADOW
280
0
  9
$SHADOWPLANELOCATION
 40
0.0
  0
ENDSEC
  0
SECTION
  2
CLASSES
  0
CLASS
  1
ACDBDICTIONARYWDFLT
  2
AcDbDictionaryWithDefault
  3
ObjectDBX Classes
 90
0
 91
0
280
0
281
0
  0
CLASS
  1
SUN
  2
AcDbSun
  3
SCENEOE
 90
1153
 91
0
280
0
281
0
  0
CLASS
  1
VISUALSTYLE
  2
AcDbVisualStyle
  3
ObjectDBX Classes
 90
4095
 91
0
280
0
281
0
  0
CLASS
  1
MATERIAL
  2
AcDbMaterial
  3
ObjectDBX Classes
 90
1153
 91
0
280
0
281
0
  0
CLASS
  1
SCALE
  2
AcDbScale
  3
ObjectDBX Classes
 90
1153
 91
0
280
0
281
0
  0
CLASS
  1
TABLESTYLE
  2
AcDbTableStyle
  3
ObjectDBX Classes
 90
4095
 91
0
280
0
281
0
  0
CLASS
  1
MLEADERSTYLE
  2
AcDbMLeaderStyle
  3
ACDB_MLEADERSTYLE_CLASS
 90
4095
 91
0
280
0
281
0
  0
CLASS
  1
DICTIONARYVAR
  2
AcDbDictionaryVar
  3
ObjectDBX Classes
 90
0
 91
0
280
0
281
0
  0
CLASS
  1
CELLSTYLEMAP
  2
AcDbCellStyleMap
  3
ObjectDBX Classes
 90
1152
 91
0
280
0
281
0
  0
CLASS
  1
MENTALRAYRENDERSETTINGS
  2
AcDbMentalRayRenderSettings
  3
SCENEOE
 90
1024
 91
0
280
0
281
0
  0
CLASS
  1
ACDBDETAILVIEWSTYLE
  2
AcDbDetailViewStyle
  3
ObjectDBX Classes
 90
1025
 91
0
280
0
281
0
  0
CLASS
  1
ACDBSECTIONVIEWSTYLE
  2
AcDbSectionViewStyle
  3
ObjectDBX Classes
 90
1025
 91
0
280
0
281
0
  0
CLASS
  1
RASTERVARIABLES
  2
AcDbRasterVariables
  3
ISM
 90
0
 91
0
280
0
281
0
  0
CLASS
  1
LAYOUT
  2
AcDbLayout
  3
ObjectDBX Classes
 90
0
 91
0
280
0
281
0
  0
CLASS
  1
ACDBPLACEHOLDER
  2
AcDbPlaceHolder
  3
ObjectDBX Classes
 90
0
 91
0
280
0
281
0
  0
ENDSEC
  0
SECTION
  2
TABLES
  0
TABLE
  2
VPORT
  5
8
330
0
100
AcDbSymbolTable
 70
1
  0
VPORT
  5
23
330
8
100
AcDbSymbolTableRecord
100
AcDbViewportTableRecord
  2
*Active
 70
0
 10
0.0
 20
0.0
 11
1.0
 21
1.0
 12
0.0
 22
0.0
 13
0.0
 23
0.0
 14
0.5
 24
0.5
 15
0.5
 25
0.5
 16
0.0
 26
0.0
 36
1.0
 17
0.0
 27
0.0
 37
0.0
 40
1000.0
 41
1.34
 42
50.0
 43
0.0
 44
0.0
 50
0.0
 51
0.0
 71
0
 72
1000
 73
1
 74
3
 75
0
 76
0
 77
0
 78
0
281
0
 65
0
146
0.0
  0
ENDTAB
  0
TABLE
  2
LTYPE
  5
2
330
0
100
AcDbSymbolTable
 70
3
  0
LTYPE
  5
24
330
2
100
AcDbSymbolTableRecord
100
AcDbLinetypeTableRecord
  2
ByBlock
 70
0
  3

 72
65
 73
0
 40
0.0
  0
LTYPE
  5
25
330
2
100
AcDbSymbolTableRecord
100
AcDbLinetypeTableRecord
  2
ByLayer
 70
0
  3

 72
65
 73
0
 40
0.0
  0
LTYPE
  5
26
330
2
100
AcDbSymbolTableRecord
100
AcDbLinetypeTableRecord
  2
Continuous
 70
0
  3

 72
65
 73
0
 40
0.0
  0
ENDTAB
  0
TABLE
  2
LAYER
  5
1
330
0
100
AcDbSymbolTable
 70
2
  0
LAYER
  5
27
330
1
100
AcDbSymbolTableRecord
100
AcDbLayerTableRecord
  2
0
 70
0
 62
7
  6
Continuous
370
-3
390
13
347
21
  0
LAYER
  5
28
330
1
100
AcDbSymbolTableRecord
100
AcDbLayerTableRecord
  2
Defpoints
 70
0
 62
7
  6
Continuous
290
0
370
-3
390
13
347
21
  0
ENDTAB
  0
TABLE
  2
STYLE
  5
5
330
0
100
AcDbSymbolTable
 70
1
  0
STYLE
  5
29
330
5
100
AcDbSymbolTableRecord
100
AcDbTextStyleTableRecord
  2
Standard
 70
0
 40
0.0
 41
1.0
 50
0.0
 71
0
 42
2.5
  3
txt
  4

  0
ENDTAB
  0
TABLE
  2
VIEW
  5
7
330
0
100
AcDbSymbolTable
 70
0
  0
ENDTAB
  0
TABLE
  2
UCS
  5
6
330
0
100
AcDbSymbolTable
 70
0
  0
ENDTAB
  0
TABLE
  2
APPID
  5
3
330
0
100
AcDbSymbolTable
 70
3
  0
APPID
  5
2A
330
3
100
AcDbSymbolTableRecord
100
AcDbRegAppTableRecord
  2
ACAD
 70
0
  0
APPID
  5
3B
330
3
100
AcDbSymbolTableRecord
100
AcDbRegAppTableRecord
  2
HATCHBACKGROUNDCOLOR
 70
0
  0
APPID
  5
3C
330
3
100
AcDbSymbolTableRecord
100
AcDbRegAppTableRecord
  2
EZDXF
 70
0
  0
ENDTAB
  0
TABLE
  2
DIMSTYLE
  5
4
330
0
100
AcDbSymbolTable
 70
1
100
AcDbDimStyleTable
  0
DIMSTYLE
105
2B
330
4
100
AcDbSymbolTableRecord
100
AcDbDimStyleTableRecord
  2
Standard
 70
0
 40
1.0
 41
2.5
 42
0.625
 43
3.75
 44
1.25
 45
0.0
 46
0.0
 47
0.0
 48
0.0
 49
2.5
140
2.5
141
2.5
142
0.0
143
0.03937007874
144
1.0
145
0.0
146
1.0
147
0.625
148
0.0
 69
0
 70
0
 71
0
 72
0
 73
0
 74
0
 75
0
 76
0
 77
1
 78
8
 79
3
170
0
171
3
172
1
173
0
174
0
175
0
176
0
177
0
178
0
179
2
271
2
272
2
273
2
274
3
275
0
276
0
277
2
278
44
279
0
280
0
281
0
282
0
283
0
284
8
285
0
286
0
288
0
289
3
290
0
371
-2
372
-2
  0
ENDTAB
  0
TABLE
  2
BLOCK_RECORD
  5
9
330
0
100
AcDbSymbolTable
 70
2
  0
BLOCK_RECORD
  5
17
330
9
100
AcDbSymbolTableRecord
100
AcDbBlockTableRecord
  2
*Model_Space
340
1A
 70
0
280
1
281
0
  0
BLOCK_RECORD
  5
1B
330
9
100
AcDbSymbolTableRecord
100
AcDbBlockTableRecord
  2
*Paper_Space
340
1E
 70
0
280
1
281
0
  0
ENDTAB
  0
ENDSEC
  0
SECTION
  2
BLOCKS
  0
BLOCK
  5
18
330
17
100
AcDbEntity
  8
0
100
AcDbBlockBegin
  2
*Model_Space
 70
0
 10
0.0
 20
0.0
 30
0.0
  3
*Model_Space
  1

  0
ENDBLK
  5
19
330
17
100
AcDbEntity
  8
0
100
AcDbBlockEnd
  0
BLOCK
  5
1C
330
1B
100
AcDbEntity
  8
0
100
AcDbBlockBegin
  2
*Paper_Space
 70
0
 10
0.0
 20
0.0
 30
0.0
  3
*Paper_Space
  1

  0
ENDBLK
  5
1D
330
1B
100
AcDbEntity
  8
0
100
AcDbBlockEnd
  0
ENDSEC
  0
SECTION
  2
ENTITIES
  0
LWPOLYLINE
  5
36
330
17
100
AcDbEntity
  8
0
100
AcDbPolyline
 90
94
 70
0
 10
196.71614200000005
 20
-108.39450000000004
 10
191.88963400000006
 20
-108.43387000000003
 10
191.84289800000008
 20
-108.73359000000002
 10
191.77406400000007
 20
-109.02823000000004
 10
191.68313200000009
 20
-109.31575800000003
 10
191.5698480000001
 20
-109.59414200000003
 10
191.43446600000007
 20
-109.86160400000003
 10
191.2767320000001
 20
-110.11611200000003
 10
191.0969000000001
 20
-110.35563400000004
 10
190.89497000000011
 20
-110.57839200000004
 10
190.6706880000001
 20
-110.78235400000003
 10
190.4240540000001
 20
-110.96548800000004
 10
190.1553220000001
 20
-111.12576200000002
 10
189.8642380000001
 20
-111.26139800000003
 10
189.55105600000013
 20
-111.37036400000002
 10
189.2155220000001
 20
-111.45062800000001
 10
188.85763600000013
 20
-111.50015800000001
 10
188.47765200000012
 20
-111.517176
 10
188.13297400000013
 20
-111.503206
 10
187.80633000000014
 20
-111.46256600000001
 10
187.49797400000014
 20
-111.39652600000001
 10
187.20790600000012
 20
-111.306864
 10
186.93612600000012
 20
-111.194596
 10
186.6823800000001
 20
-111.0615
 10
186.4469220000001
 20
-110.908846
 10
186.2294980000001
 20
-110.738158
 10
186.03036200000008
 20
-110.55070599999999
 10
185.84951400000008
 20
-110.34826799999999
 10
185.68670000000012
 20
-110.13211399999999
 10
185.54217400000013
 20
-109.903514
 10
185.41568200000012
 20
-109.66424599999999
 10
185.3072240000001
 20
-109.41557999999999
 10
185.2170540000001
 20
-109.15904
 10
185.1449180000001
 20
-108.895896
 10
183.7463940000001
 20
-109.1946
 10
182.3933360000001
 20
-109.63630599999999
 10
181.0857440000001
 20
-110.20932999999998
 10
179.8236180000001
 20
-110.90173399999998
 10
179.31790400000008
 20
-111.23599799999998
 10
178.8325100000001
 20
-111.61750599999998
 10
178.3763260000001
 20
-112.04270199999998
 10
177.9582420000001
 20
-112.50752199999997
 10
177.5871480000001
 20
-113.00840999999997
 10
177.27218800000009
 20
-113.54155599999996
 10
177.0222520000001
 20
-114.10314999999997
 10
166.1769600000001
 20
-146.06092199999998
 10
165.6857240000001
 20
-148.83028399999998
 10
165.4540760000001
 20
-151.40177999999997
 10
165.4332480000001
 20
-156.17088399999997
 10
165.4418840000001
 20
-156.24479799999997
 10
165.4576320000001
 20
-156.31617199999997
 10
165.4804920000001
 20
-156.38449799999998
 10
165.5099560000001
 20
-156.44977599999996
 10
165.5455160000001
 20
-156.51124399999995
 10
165.58691800000008
 20
-156.56864799999994
 10
165.6336540000001
 20
-156.62147999999993
 10
165.68547000000007
 20
-156.66923199999994
 10
165.74185800000006
 20
-156.71164999999996
 10
165.8023100000001
 20
-156.74822599999996
 10
165.8665720000001
 20
-156.77870599999994
 10
165.93439000000012
 20
-156.80258199999997
 10
166.00525600000012
 20
-156.81959999999998
 10
166.0789160000001
 20
-156.82925199999997
 10
185.01614000000012
 20
-156.63417999999996
 10
185.1459340000001
 20
-156.61487599999995
 10
185.2726800000001
 20
-156.58541199999996
 10
185.3956160000001
 20
-156.54629599999996
 10
185.5144880000001
 20
-156.49778199999994
 10
185.6285340000001
 20
-156.44012399999997
 10
185.7375000000001
 20
-156.37382999999997
 10
185.8408780000001
 20
-156.29940799999997
 10
185.93790600000008
 20
-156.217112
 10
186.0283300000001
 20
-156.12744999999998
 10
186.11164200000007
 20
-156.030676
 10
186.18733400000008
 20
-155.927044
 10
186.25489800000008
 20
-155.81731599999998
 10
186.31382600000006
 20
-155.70149199999997
 10
186.36386400000006
 20
-155.58008
 10
198.06970800000008
 20
-110.092744
 10
198.08596400000005
 20
-109.92358
 10
198.08342400000006
 20
-109.755686
 10
198.06285000000005
 20
-109.59084
 10
198.02500400000005
 20
-109.430312
 10
197.97090200000005
 20
-109.27588
 10
197.90130600000006
 20
-109.12881399999999
 10
197.81697800000006
 20
-108.99089199999999
 10
197.71893400000008
 20
-108.86338399999998
 10
197.60793600000008
 20
-108.74806799999999
 10
197.48474600000006
 20
-108.64621399999999
 10
197.35038000000006
 20
-108.55959999999997
 10
197.20534600000005
 20
-108.48974999999999
 10
197.05091400000006
 20
-108.43793399999998
 10
196.88759200000007
 20
-108.40593
 10
196.71639600000006
 20
-108.39500799999999
  0
LWPOLYLINE
  5
37
330
17
100
AcDbEntity
  8
0
100
AcDbPolyline
 90
65
 70
0
 10
182.91632200000006
 20
-145.887694
 10
182.89905000000007
 20
-146.2278
 10
182.84850400000008
 20
-146.55825400000003
 10
182.76646200000008
 20
-146.87727800000002
 10
182.6544480000001
 20
-147.183094
 10
182.5142400000001
 20
-147.473924
 10
182.3476160000001
 20
-147.748244
 10
182.1561000000001
 20
-148.00453000000002
 10
181.94121600000008
 20
-148.24075
 10
181.7049960000001
 20
-148.455634
 10
181.4487100000001
 20
-148.64715
 10
181.17439000000007
 20
-148.813774
 10
180.88356000000007
 20
-148.953982
 10
180.5777440000001
 20
-149.065996
 10
180.2589740000001
 20
-149.148038
 10
179.92852000000008
 20
-149.19833
 10
179.58816000000007
 20
-149.215602
 10
179.24805400000005
 20
-149.19833
 10
178.91760000000005
 20
-149.148038
 10
178.59857600000007
 20
-149.065996
 10
178.29276000000007
 20
-148.953982
 10
178.00193000000007
 20
-148.813774
 10
177.72761000000006
 20
-148.64715
 10
177.47132400000007
 20
-148.455634
 10
177.23510400000006
 20
-148.24075
 10
177.02022000000008
 20
-148.00453000000002
 10
176.82870400000007
 20
-147.748244
 10
176.6620800000001
 20
-147.473924
 10
176.5218720000001
 20
-147.183094
 10
176.41011200000005
 20
-146.87727800000002
 10
176.32807000000008
 20
-146.55825400000003
 10
176.27777800000007
 20
-146.2278
 10
176.26050600000008
 20
-145.887694
 10
176.27777800000007
 20
-145.547588
 10
176.32807000000008
 20
-145.217134
 10
176.41011200000005
 20
-144.898364
 10
176.5218720000001
 20
-144.592548
 10
176.6620800000001
 20
-144.301718
 10
176.82870400000007
 20
-144.02739799999998
 10
177.02022000000008
 20
-143.771112
 10
177.23510400000006
 20
-143.53489199999999
 10
177.47132400000007
 20
-143.320008
 10
177.72761000000006
 20
-143.128492
 10
178.00193000000007
 20
-142.961868
 10
178.29276000000007
 20
-142.82165999999998
 10
178.59857600000007
 20
-142.709646
 10
178.91760000000005
 20
-142.627604
 10
179.24805400000005
 20
-142.577058
 10
179.58816000000007
 20
-142.559786
 10
179.92852000000008
 20
-142.577058
 10
180.2589740000001
 20
-142.627604
 10
180.5777440000001
 20
-142.709646
 10
180.88356000000007
 20
-142.82165999999998
 10
181.17439000000007
 20
-142.961868
 10
181.4487100000001
 20
-143.128492
 10
181.7049960000001
 20
-143.320008
 10
181.94121600000008
 20
-143.53489199999999
 10
182.1561000000001
 20
-143.771112
 10
182.3476160000001
 20
-144.02739799999998
 10
182.5142400000001
 20
-144.301718
 10
182.6544480000001
 20
-144.592548
 10
182.76646200000008
 20
-144.898364
 10
182.84850400000008
 20
-145.217134
 10
182.89905000000007
 20
-145.547588
 10
182.91632200000006
 20
-145.887694
  0
LWPOLYLINE
  5
38
330
17
100
AcDbEntity
  8
0
100
AcDbPolyline
 90
65
 70
0
 10
189.42634200000006
 20
-125.962156
 10
189.40119600000006
 20
-126.460504
 10
189.32728200000005
 20
-126.94437399999998
 10
189.20714000000007
 20
-127.41147999999998
 10
189.04331000000005
 20
-127.85928199999998
 10
188.83807800000005
 20
-128.28524
 10
188.59398400000006
 20
-128.68706799999998
 10
188.31331400000005
 20
-129.06222599999998
 10
187.99886200000003
 20
-129.408428
 10
187.65266000000003
 20
-129.72287999999998
 10
187.27750200000003
 20
-130.00355
 10
186.87567400000003
 20
-130.24764399999998
 10
186.44971600000002
 20
-130.45287599999997
 10
186.00191400000003
 20
-130.616706
 10
185.534808
 20
-130.73684799999998
 10
185.050938
 20
-130.81076199999998
 10
184.55259
 20
-130.835908
 10
184.05424200000002
 20
-130.81076199999998
 10
183.57037200000002
 20
-130.73684799999998
 10
183.10326600000002
 20
-130.616706
 10
182.655464
 20
-130.45287599999997
 10
182.229506
 20
-130.24764399999998
 10
181.827678
 20
-130.00355
 10
181.45252
 20
-129.72287999999998
 10
181.106318
 20
-129.408428
 10
180.79186599999997
 20
-129.06222599999998
 10
180.51119599999996
 20
-128.68706799999998
 10
180.26710199999997
 20
-128.28524
 10
180.06186999999997
 20
-127.85928199999998
 10
179.89803999999998
 20
-127.41147999999998
 10
179.777898
 20
-126.94437399999998
 10
179.70398399999996
 20
-126.460504
 10
179.67883799999996
 20
-125.962156
 10
179.70398399999996
 20
-125.463808
 10
179.777898
 20
-124.979938
 10
179.89803999999998
 20
-124.512832
 10
180.06186999999997
 20
-124.06503000000002
 10
180.26710199999997
 20
-123.63907200000001
 10
180.51119599999996
 20
-123.237244
 10
180.79186599999997
 20
-122.86208600000002
 10
181.106318
 20
-122.51588400000001
 10
181.45252
 20
-122.20143200000001
 10
181.827678
 20
-121.92076200000001
 10
182.229506
 20
-121.676668
 10
182.655464
 20
-121.47143600000001
 10
183.10326600000002
 20
-121.30760600000002
 10
183.57037200000002
 20
-121.187464
 10
184.05424200000002
 20
-121.11355000000002
 10
184.55259
 20
-121.08840400000001
 10
185.050938
 20
-121.11355000000002
 10
185.534808
 20
-121.187464
 10
186.00191400000003
 20
-121.30760600000002
 10
186.44971600000002
 20
-121.47143600000001
 10
186.87567400000003
 20
-121.676668
 10
187.27750200000003
 20
-121.92076200000001
 10
187.65266000000003
 20
-122.20143200000001
 10
187.99886200000003
 20
-122.51588400000001
 10
188.31331400000005
 20
-122.86208600000002
 10
188.59398400000006
 20
-123.237244
 10
188.83807800000005
 20
-123.63907200000001
 10
189.04331000000005
 20
-124.06503000000002
 10
189.20714000000007
 20
-124.512832
 10
189.32728200000005
 20
-124.979938
 10
189.40119600000006
 20
-125.463808
 10
189.42634200000006
 20
-125.962156
  0
LWPOLYLINE
  5
3A
330
17
100
AcDbEntity
  8
0
100
AcDbPolyline
 90
65
 70
0
 10
185.13729800000016
 20
-108.18622000000002
 10
185.15482400000016
 20
-108.53166000000002
 10
185.20613200000014
 20
-108.86719400000003
 10
185.28944400000015
 20
-109.19104400000002
 10
185.40298200000015
 20
-109.50143200000002
 10
185.54522200000014
 20
-109.79683400000002
 10
185.71438600000013
 20
-110.07547200000002
 10
185.90895000000015
 20
-110.33556800000001
 10
186.1268820000001
 20
-110.57559800000001
 10
186.36691200000013
 20
-110.79353000000002
 10
186.62700800000013
 20
-110.98809400000002
 10
186.90564600000013
 20
-111.15725800000001
 10
187.20104800000013
 20
-111.29949800000001
 10
187.51143600000012
 20
-111.41303600000002
 10
187.8352860000001
 20
-111.49634800000001
 10
188.17082000000013
 20
-111.54765600000002
 10
188.51626000000013
 20
-111.56518200000002
 10
188.86170000000013
 20
-111.54765600000002
 10
189.19723400000015
 20
-111.49634800000001
 10
189.52108400000014
 20
-111.41303600000002
 10
189.83147200000013
 20
-111.29949800000001
 10
190.12687400000013
 20
-111.15725800000001
 10
190.40551200000013
 20
-110.98809400000002
 10
190.66560800000013
 20
-110.79353000000002
 10
190.90563800000015
 20
-110.57559800000001
 10
191.12357000000011
 20
-110.33556800000001
 10
191.31813400000013
 20
-110.07547200000002
 10
191.48729800000012
 20
-109.79683400000002
 10
191.6295380000001
 20
-109.50143200000002
 10
191.74307600000012
 20
-109.19104400000002
 10
191.82638800000012
 20
-108.86719400000003
 10
191.8776960000001
 20
-108.53166000000002
 10
191.8952220000001
 20
-108.18622000000002
 10
191.8776960000001
 20
-107.84078000000001
 10
191.82638800000012
 20
-107.50524600000001
 10
191.74307600000012
 20
-107.181396
 10
191.6295380000001
 20
-106.87100800000002
 10
191.48729800000012
 20
-106.57560600000002
 10
191.31813400000013
 20
-106.29696800000002
 10
191.12357000000011
 20
-106.03687200000002
 10
190.90563800000015
 20
-105.79684200000003
 10
190.66560800000013
 20
-105.57891000000002
 10
190.40551200000013
 20
-105.38434600000002
 10
190.12687400000013
 20
-105.21518200000001
 10
189.83147200000013
 20
-105.07294200000001
 10
189.52108400000014
 20
-104.95940400000002
 10
189.19723400000015
 20
-104.87609200000003
 10
188.86170000000013
 20
-104.82478400000002
 10
188.51626000000013
 20
-104.80725800000002
 10
188.17082000000013
 20
-104.82478400000002
 10
187.8352860000001
 20
-104.87609200000003
 10
187.51143600000012
 20
-104.95940400000002
 10
187.20104800000013
 20
-105.07294200000001
 10
186.90564600000013
 20
-105.21518200000001
 10
186.62700800000013
 20
-105.38434600000002
 10
186.36691200000013
 20
-105.57891000000002
 10
186.1268820000001
 20
-105.79684200000003
 10
185.90895000000015
 20
-106.03687200000002
 10
185.71438600000013
 20
-106.29696800000002
 10
185.54522200000014
 20
-106.57560600000002
 10
185.40298200000015
 20
-106.87100800000002
 10
185.28944400000015
 20
-107.181396
 10
185.20613200000014
 20
-107.50524600000001
 10
185.15482400000016
 20
-107.84078000000001
 10
185.13729800000016
 20
-108.18622000000002
  0
ENDSEC
  0
SECTION
  2
OBJECTS
  0
DICTIONARY
  5
A
330
0
100
AcDbDictionary
281
1
  3
ACAD_COLOR
350
B
  3
ACAD_GROUP
350
C
  3
ACAD_LAYOUT
350
D
  3
ACAD_MATERIAL
350
E
  3
ACAD_MLEADERSTYLE
350
F
  3
ACAD_MLINESTYLE
350
10
  3
ACAD_PLOTSETTINGS
350
11
  3
ACAD_PLOTSTYLENAME
350
12
  3
ACAD_SCALELIST
350
14
  3
ACAD_TABLESTYLE
350
15
  3
ACAD_VISUALSTYLE
350
16
  3
EZDXF_META
350
2D
  0
DICTIONARY
  5
B
330
A
100
AcDbDictionary
281
1
  0
DICTIONARY
  5
C
330
A
100
AcDbDictionary
281
1
  0
DICTIONARY
  5
D
330
A
100
AcDbDictionary
281
1
  3
Model
350
1A
  3
Layout1
350
1E
  0
DICTIONARY
  5
E
330
A
100
AcDbDictionary
281
1
  3
ByBlock
350
1F
  3
ByLayer
350
20
  3
Global
350
21
  0
DICTIONARY
  5
F
330
A
100
AcDbDictionary
281
1
  3
Standard
350
2C
  0
DICTIONARY
  5
10
330
A
100
AcDbDictionary
281
1
  3
Standard
350
22
  0
DICTIONARY
  5
11
330
A
100
AcDbDictionary
281
1
  0
ACDBDICTIONARYWDFLT
  5
12
330
A
100
AcDbDictionary
281
1
  3
Normal
350
13
100
AcDbDictionaryWithDefault
340
13
  0
ACDBPLACEHOLDER
  5
13
330
12
  0
DICTIONARY
  5
14
330
A
100
AcDbDictionary
281
1
  0
DICTIONARY
  5
15
330
A
100
AcDbDictionary
281
1
  0
DICTIONARY
  5
16
330
A
100
AcDbDictionary
281
1
  0
LAYOUT
  5
1A
330
D
100
AcDbPlotSettings
  1

  4
A3
  6

 40
7.5
 41
20.0
 42
7.5
 43
20.0
 44
420.0
 45
297.0
 46
0.0
 47
0.0
 48
0.0
 49
0.0
140
0.0
141
0.0
142
1.0
143
1.0
 70
1024
 72
1
 73
0
 74
5
  7

 75
16
 76
0
 77
2
 78
300
147
1.0
148
0.0
149
0.0
100
AcDbLayout
  1
Model
 70
1
 71
0
 10
0.0
 20
0.0
 11
420.0
 21
297.0
 12
0.0
 22
0.0
 32
0.0
 14
1e+20
 24
1e+20
 34
1e+20
 15
-1e+20
 25
-1e+20
 35
-1e+20
146
0.0
 13
0.0
 23
0.0
 33
0.0
 16
1.0
 26
0.0
 36
0.0
 17
0.0
 27
1.0
 37
0.0
 76
1
330
17
  0
LAYOUT
  5
1E
330
D
100
AcDbPlotSettings
  1

  4
A3
  6

 40
7.5
 41
20.0
 42
7.5
 43
20.0
 44
420.0
 45
297.0
 46
0.0
 47
0.0
 48
0.0
 49
0.0
140
0.0
141
0.0
142
1.0
143
1.0
 70
0
 72
1
 73
0
 74
5
  7

 75
16
 76
0
 77
2
 78
300
147
1.0
148
0.0
149
0.0
100
AcDbLayout
  1
Layout1
 70
1
 71
1
 10
0.0
 20
0.0
 11
420.0
 21
297.0
 12
0.0
 22
0.0
 32
0.0
 14
1e+20
 24
1e+20
 34
1e+20
 15
-1e+20
 25
-1e+20
 35
-1e+20
146
0.0
 13
0.0
 23
0.0
 33
0.0
 16
1.0
 26
0.0
 36
0.0
 17
0.0
 27
1.0
 37
0.0
 76
1
330
1B
  0
MATERIAL
  5
1F
102
{ACAD_REACTORS
330
E
102
}
330
E
100
AcDbMaterial
  1
ByBlock
  2

 70
0
 40
1.0
 71
1
 41
1.0
 91
-1023410177
 42
1.0
 72
1
  3

 73
1
 74
1
 75
1
 44
0.5
 73
0
 45
1.0
 46
1.0
 77
1
  4

 78
1
 79
1
170
1
 48
1.0
171
1
  6

172
1
173
1
174
1
140
1.0
141
1.0
175
1
  7

176
1
177
1
178
1
143
1.0
179
1
  8

270
1
271
1
272
1
145
1.0
146
1.0
273
1
  9

274
1
275
1
276
1
 42
1.0
 72
1
  3

 73
1
 74
1
 75
1
 94
63
  0
MATERIAL
  5
20
102
{ACAD_REACTORS
330
E
102
}
330
E
100
AcDbMaterial
  1
ByLayer
  2

 70
0
 40
1.0
 71
1
 41
1.0
 91
-1023410177
 42
1.0
 72
1
  3

 73
1
 74
1
 75
1
 44
0.5
 73
0
 45
1.0
 46
1.0
 77
1
  4

 78
1
 79
1
170
1
 48
1.0
171
1
  6

172
1
173
1
174
1
140
1.0
141
1.0
175
1
  7

176
1
177
1
178
1
143
1.0
179
1
  8

270
1
271
1
272
1
145
1.0
146
1.0
273
1
  9

274
1
275
1
276
1
 42
1.0
 72
1
  3

 73
1
 74
1
 75
1
 94
63
  0
MATERIAL
  5
21
102
{ACAD_REACTORS
330
E
102
}
330
E
100
AcDbMaterial
  1
Global
  2

 70
0
 40
1.0
 71
1
 41
1.0
 91
-1023410177
 42
1.0
 72
1
  3

 73
1
 74
1
 75
1
 44
0.5
 73
0
 45
1.0
 46
1.0
 77
1
  4

 78
1
 79
1
170
1
 48
1.0
171
1
  6

172
1
173
1
174
1
140
1.0
141
1.0
175
1
  7

176
1
177
1
178
1
143
1.0
179
1
  8

270
1
271
1
272
1
145
1.0
146
1.0
273
1
  9

274
1
275
1
276
1
 42
1.0
 72
1
  3

 73
1
 74
1
 75
1
 94
63
  0
MLINESTYLE
  5
22
102
{ACAD_REACTORS
330
10
102
}
330
10
100
AcDbMlineStyle
  2
Standard
 70
0
  3

 62
256
 51
90.0
 52
90.0
 71
2
 49
0.5
 62
256
  6
BYLAYER
 49
-0.5
 62
256
  6
BYLAYER
  0
MLEADERSTYLE
  5
2C
102
{ACAD_REACTORS
330
F
102
}
330
F
100
AcDbMLeaderStyle
179
2
170
2
171
1
172
0
 90
2
 40
0.0
 41
0.0
173
1
 91
-1056964608
 92
-2
290
1
 42
2.0
291
1
 43
8.0
  3
Standard
 44
4.0
300

342
29
174
1
175
1
176
0
178
1
 93
-1056964608
 45
4.0
292
0
297
0
 46
4.0
 94
-1056964608
 47
1.0
 49
1.0
140
1.0
294
1
141
0.0
177
0
142
1.0
295
0
296
0
143
3.75
271
0
272
9
273
9
  0
DICTIONARY
  5
2D
330
A
100
AcDbDictionary
280
1
281
1
  3
CREATED_BY_EZDXF
350
2E
  3
WRITTEN_BY_EZDXF
350
3D
  0
DICTIONARYVAR
  5
2E
330
2D
100
DictionaryVariables
280
0
  1
1.4.3 @ 2026-04-08T01:02:29.172698+00:00
  0
DICTIONARYVAR
  5
3D
330
2D
100
DictionaryVariables
280
0
  1
1.4.3 @ 2026-04-09T21:09:48.346427+00:00
  0
ENDSEC
  0
EOF
