  0
SECTION
  2
HEADER
  9
$ACADVER
  1
AC1024
  9
$ACADMAINTVER
 70
6
  9
$DWGCODEPAGE
  3
ANSI_1252
  9
$LASTSAVEDBY
  1
ezdxf
  9
$INSBASE
 10
0.0
 20
0.0
 30
0.0
  9
$EXTMIN
 10
1e+20
 20
1e+20
 30
1e+20
  9
$EXTMAX
 10
-1e+20
 20
-1e+20
 30
-1e+20
  9
$LIMMIN
 10
0.0
 20
0.0
  9
$LIMMAX
 10
420.0
 20
297.0
  9
$ORTHOMODE
 70
0
  9
$REGENMODE
 70
1
  9
$FILLMODE
 70
1
  9
$QTEXTMODE
 70
0
  9
$MIRRTEXT
 70
1
  9
$LTSCALE
 40
1.0
  9
$ATTMODE
 70
1
  9
$TEXTSIZE
 40
2.5
  9
$TRACEWID
 40
1.0
  9
$TEXTSTYLE
  7
Standard
  9
$CLAYER
  8
0
  9
$CELTYPE
  6
ByLayer
  9
$CECOLOR
 62
256
  9
$CELTSCALE
 40
1.0
  9
$DISPSILH
 70
0
  9
$DIMSCALE
 40
1.0
  9
$DIMASZ
 40
2.5
  9
$DIMEXO
 40
0.625
  9
$DIMDLI
 40
3.75
  9
$DIMRND
 40
0.0
  9
$DIMDLE
 40
0.0
  9
$DIMEXE
 40
1.25
  9
$DIMTP
 40
0.0
  9
$DIMTM
 40
0.0
  9
$DIMTXT
 40
2.5
  9
$DIMCEN
 40
2.5
  9
$DIMTSZ
 40
0.0
  9
$DIMTOL
 70
0
  9
$DIMLIM
 70
0
  9
$DIMTIH
 70
0
  9
$DIMTOH
 70
0
  9
$DIMSE1
 70
0
  9
$DIMSE2
 70
0
  9
$DIMTAD
 70
1
  9
$DIMZIN
 70
8
  9
$DIMBLK
  1

  9
$DIMASO
 70
1
  9
$DIMSHO
 70
1
  9
$DIMPOST
  1

  9
$DIMAPOST
  1

  9
$DIMALT
 70
0
  9
$DIMALTD
 70
3
  9
$DIMALTF
 40
0.03937007874
  9
$DIMLFAC
 40
1.0
  9
$DIMTOFL
 70
1
  9
$DIMTVP
 40
0.0
  9
$DIMTIX
 70
0
  9
$DIMSOXD
 70
0
  9
$DIMSAH
 70
0
  9
$DIMBLK1
  1

  9
$DIMBLK2
  1

  9
$DIMSTYLE
  2
ISO-25
  9
$DIMCLRD
 70
0
  9
$DIMCLRE
 70
0
  9
$DIMCLRT
 70
0
  9
$DIMTFAC
 40
1.0
  9
$DIMGAP
 40
0.625
  9
$DIMJUST
 70
0
  9
$DIMSD1
 70
0
  9
$DIMSD2
 70
0
  9
$DIMTOLJ
 70
0
  9
$DIMTZIN
 70
8
  9
$DIMALTZ
 70
0
  9
$DIMALTTZ
 70
0
  9
$DIMUPT
 70
0
  9
$DIMDEC
 70
2
  9
$DIMTDEC
 70
2
  9
$DIMALTU
 70
2
  9
$DIMALTTD
 70
3
  9
$DIMTXSTY
  7
Standard
  9
$DIMAUNIT
 70
0
  9
$DIMADEC
 70
0
  9
$DIMALTRND
 40
0.0
  9
$DIMAZIN
 70
0
  9
$DIMDSEP
 70
44
  9
$DIMATFIT
 70
3
  9
$DIMFRAC
 70
0
  9
$DIMLDRBLK
  1

  9
$DIMLUNIT
 70
2
  9
$DIMLWD
 70
-2
  9
$DIMLWE
 70
-2
  9
$DIMTMOVE
 70
0
  9
$DIMFXL
 40
1.0
  9
$DIMFXLON
 70
0
  9
$DIMJOGANG
 40
0.785398163397
  9
$DIMTFILL
 70
0
  9
$DIMTFILLCLR
 70
0
  9
$DIMARCSYM
 70
0
  9
$DIMLTYPE
  6

  9
$DIMLTEX1
  6

  9
$DIMLTEX2
  6

  9
$DIMTXTDIRECTION
 70
0
  9
$LUNITS
 70
2
  9
$LUPREC
 70
4
  9
$SKETCHINC
 40
1.0
  9
$FILLETRAD
 40
10.0
  9
$AUNITS
 70
0
  9
$AUPREC
 70
2
  9
$MENU
  1
.
  9
$ELEVATION
 40
0.0
  9
$PELEVATION
 40
0.0
  9
$THICKNESS
 40
0.0
  9
$LIMCHECK
 70
0
  9
$CHAMFERA
 40
0.0
  9
$CHAMFERB
 40
0.0
  9
$CHAMFERC
 40
0.0
  9
$CHAMFERD
 40
0.0
  9
$SKPOLY
 70
0
  9
$TDCREATE
 40
2461138.7154050926
  9
$TDUCREATE
 40
2458532.153996898
  9
$TDUPDATE
 40
2461138.7154050926
  9
$TDUUPDATE
 40
2458532.1544311
  9
$TDINDWG
 40
0.0
  9
$TDUSRTIMER
 40
0.0
  9
$USRTIMER
 70
1
  9
$ANGBASE
 50
0.0
  9
$ANGDIR
 70
0
  9
$PDMODE
 70
0
  9
$PDSIZE
 40
0.0
  9
$PLINEWID
 40
0.0
  9
$SPLFRAME
 70
0
  9
$SPLINETYPE
 70
6
  9
$SPLINESEGS
 70
8
  9
$HANDSEED
  5
1A5
  9
$SURFTAB1
 70
6
  9
$SURFTAB2
 70
6
  9
$SURFTYPE
 70
6
  9
$SURFU
 70
6
  9
$SURFV
 70
6
  9
$UCSBASE
  2

  9
$UCSNAME
  2

  9
$UCSORG
 10
0.0
 20
0.0
 30
0.0
  9
$UCSXDIR
 10
1.0
 20
0.0
 30
0.0
  9
$UCSYDIR
 10
0.0
 20
1.0
 30
0.0
  9
$UCSORTHOREF
  2

  9
$UCSORTHOVIEW
 70
0
  9
$UCSORGTOP
 10
0.0
 20
0.0
 30
0.0
  9
$UCSORGBOTTOM
 10
0.0
 20
0.0
 30
0.0
  9
$UCSORGLEFT
 10
0.0
 20
0.0
 30
0.0
  9
$UCSORGRIGHT
 10
0.0
 20
0.0
 30
0.0
  9
$UCSORGFRONT
 10
0.0
 20
0.0
 30
0.0
  9
$UCSORGBACK
 10
0.0
 20
0.0
 30
0.0
  9
$PUCSBASE
  2

  9
$PUCSNAME
  2

  9
$PUCSORG
 10
0.0
 20
0.0
 30
0.0
  9
$PUCSXDIR
 10
1.0
 20
0.0
 30
0.0
  9
$PUCSYDIR
 10
0.0
 20
1.0
 30
0.0
  9
$PUCSORTHOREF
  2

  9
$PUCSORTHOVIEW
 70
0
  9
$PUCSORGTOP
 10
0.0
 20
0.0
 30
0.0
  9
$PUCSORGBOTTOM
 10
0.0
 20
0.0
 30
0.0
  9
$PUCSORGLEFT
 10
0.0
 20
0.0
 30
0.0
  9
$PUCSORGRIGHT
 10
0.0
 20
0.0
 30
0.0
  9
$PUCSORGFRONT
 10
0.0
 20
0.0
 30
0.0
  9
$PUCSORGBACK
 10
0.0
 20
0.0
 30
0.0
  9
$USERI1
 70
0
  9
$USERI2
 70
0
  9
$USERI3
 70
0
  9
$USERI4
 70
0
  9
$USERI5
 70
0
  9
$USERR1
 40
0.0
  9
$USERR2
 40
0.0
  9
$USERR3
 40
0.0
  9
$USERR4
 40
0.0
  9
$USERR5
 40
0.0
  9
$WORLDVIEW
 70
1
  9
$SHADEDGE
 70
3
  9
$SHADEDIF
 70
70
  9
$TILEMODE
 70
1
  9
$MAXACTVP
 70
64
  9
$PINSBASE
 10
0.0
 20
0.0
 30
0.0
  9
$PLIMCHECK
 70
0
  9
$PEXTMIN
 10
1e+20
 20
1e+20
 30
1e+20
  9
$PEXTMAX
 10
-1e+20
 20
-1e+20
 30
-1e+20
  9
$PLIMMIN
 10
0.0
 20
0.0
  9
$PLIMMAX
 10
420.0
 20
297.0
  9
$UNITMODE
 70
0
  9
$VISRETAIN
 70
1
  9
$PLINEGEN
 70
0
  9
$PSLTSCALE
 70
1
  9
$TREEDEPTH
 70
3020
  9
$CMLSTYLE
  2
Standard
  9
$CMLJUST
 70
0
  9
$CMLSCALE
 40
20.0
  9
$PROXYGRAPHICS
 70
1
  9
$MEASUREMENT
 70
1
  9
$CELWEIGHT
370
-1
  9
$ENDCAPS
280
0
  9
$JOINSTYLE
280
0
  9
$LWDISPLAY
290
0
  9
$INSUNITS
 70
6
  9
$HYPERLINKBASE
  1

  9
$STYLESHEET
  1

  9
$XEDIT
290
1
  9
$CEPSNTYPE
380
0
  9
$PSTYLEMODE
290
1
  9
$FINGERPRINTGUID
  2
{4660D950-FF91-46EB-BF82-6C443570FEA3}
  9
$VERSIONGUID
  2
{DDD1FEBF-56E0-484C-8591-42D8C9A758BA}
  9
$EXTNAMES
290
1
  9
$PSVPSCALE
 40
0.0
  9
$OLESTARTUP
290
0
  9
$SORTENTS
280
127
  9
$INDEXCTL
280
0
  9
$HIDETEXT
280
1
  9
$XCLIPFRAME
280
1
  9
$HALOGAP
280
0
  9
$OBSCOLOR
 70
257
  9
$OBSLTYPE
280
0
  9
$INTERSECTIONDISPLAY
280
0
  9
$INTERSECTIONCOLOR
 70
257
  9
$DIMASSOC
280
2
  9
$PROJECTNAME
  1

  9
$CAMERADISPLAY
290
0
  9
$LENSLENGTH
 40
50.0
  9
$CAMERAHEIGHT
 40
0.0
  9
$STEPSPERSEC
 40
24.0
  9
$STEPSIZE
 40
100.0
  9
$3DDWFPREC
 40
2.0
  9
$PSOLWIDTH
 40
0.005
  9
$PSOLHEIGHT
 40
0.08
  9
$LOFTANG1
 40
1.570796326795
  9
$LOFTANG2
 40
1.570796326795
  9
$LOFTMAG1
 40
0.0
  9
$LOFTMAG2
 40
0.0
  9
$LOFTPARAM
 70
7
  9
$LOFTNORMALS
280
1
  9
$LATITUDE
 40
37.795
  9
$LONGITUDE
 40
-122.394
  9
$NORTHDIRECTION
 40
0.0
  9
$TIMEZONE
 70
-8000
  9
$LIGHTGLYPHDISPLAY
280
1
  9
$TILEMODELIGHTSYNCH
280
1
  9
$CMATERIAL
347
20
  9
$SOLIDHIST
280
0
  9
$SHOWHIST
280
1
  9
$DWFFRAME
280
2
  9
$DGNFRAME
280
2
  9
$REALWORLDSCALE
290
1
  9
$INTERFERECOLOR
 62
256
  9
$CSHADOW
280
0
  9
$SHADOWPLANELOCATION
 40
0.0
  0
ENDSEC
  0
SECTION
  2
CLASSES
  0
CLASS
  1
ACDBDICTIONARYWDFLT
  2
AcDbDictionaryWithDefault
  3
ObjectDBX Classes
 90
0
 91
0
280
0
281
0
  0
CLASS
  1
SUN
  2
AcDbSun
  3
SCENEOE
 90
1153
 91
0
280
0
281
0
  0
CLASS
  1
VISUALSTYLE
  2
AcDbVisualStyle
  3
ObjectDBX Classes
 90
4095
 91
0
280
0
281
0
  0
CLASS
  1
MATERIAL
  2
AcDbMaterial
  3
ObjectDBX Classes
 90
1153
 91
0
280
0
281
0
  0
CLASS
  1
SCALE
  2
AcDbScale
  3
ObjectDBX Classes
 90
1153
 91
0
280
0
281
0
  0
CLASS
  1
TABLESTYLE
  2
AcDbTableStyle
  3
ObjectDBX Classes
 90
4095
 91
0
280
0
281
0
  0
CLASS
  1
MLEADERSTYLE
  2
AcDbMLeaderStyle
  3
ACDB_MLEADERSTYLE_CLASS
 90
4095
 91
0
280
0
281
0
  0
CLASS
  1
DICTIONARYVAR
  2
AcDbDictionaryVar
  3
ObjectDBX Classes
 90
0
 91
0
280
0
281
0
  0
CLASS
  1
CELLSTYLEMAP
  2
AcDbCellStyleMap
  3
ObjectDBX Classes
 90
1152
 91
0
280
0
281
0
  0
CLASS
  1
MENTALRAYRENDERSETTINGS
  2
AcDbMentalRayRenderSettings
  3
SCENEOE
 90
1024
 91
0
280
0
281
0
  0
CLASS
  1
ACDBDETAILVIEWSTYLE
  2
AcDbDetailViewStyle
  3
ObjectDBX Classes
 90
1025
 91
0
280
0
281
0
  0
CLASS
  1
ACDBSECTIONVIEWSTYLE
  2
AcDbSectionViewStyle
  3
ObjectDBX Classes
 90
1025
 91
0
280
0
281
0
  0
CLASS
  1
RASTERVARIABLES
  2
AcDbRasterVariables
  3
ISM
 90
0
 91
0
280
0
281
0
  0
CLASS
  1
ACDBPLACEHOLDER
  2
AcDbPlaceHolder
  3
ObjectDBX Classes
 90
0
 91
0
280
0
281
0
  0
CLASS
  1
LAYOUT
  2
AcDbLayout
  3
ObjectDBX Classes
 90
0
 91
0
280
0
281
0
  0
ENDSEC
  0
SECTION
  2
TABLES
  0
TABLE
  2
VPORT
  5
8
330
0
100
AcDbSymbolTable
 70
1
  0
VPORT
  5
23
330
8
100
AcDbSymbolTableRecord
100
AcDbViewportTableRecord
  2
*Active
 70
0
 10
0.0
 20
0.0
 11
1.0
 21
1.0
 12
0.0
 22
0.0
 13
0.0
 23
0.0
 14
0.5
 24
0.5
 15
0.5
 25
0.5
 16
0.0
 26
0.0
 36
1.0
 17
0.0
 27
0.0
 37
0.0
 40
1000.0
 41
1.34
 42
50.0
 43
0.0
 44
0.0
 50
0.0
 51
0.0
 71
0
 72
1000
 73
1
 74
3
 75
0
 76
0
 77
0
 78
0
281
0
 65
0
146
0.0
  0
ENDTAB
  0
TABLE
  2
LTYPE
  5
2
330
0
100
AcDbSymbolTable
 70
3
  0
LTYPE
  5
24
330
2
100
AcDbSymbolTableRecord
100
AcDbLinetypeTableRecord
  2
ByBlock
 70
0
  3

 72
65
 73
0
 40
0.0
  0
LTYPE
  5
25
330
2
100
AcDbSymbolTableRecord
100
AcDbLinetypeTableRecord
  2
ByLayer
 70
0
  3

 72
65
 73
0
 40
0.0
  0
LTYPE
  5
26
330
2
100
AcDbSymbolTableRecord
100
AcDbLinetypeTableRecord
  2
Continuous
 70
0
  3

 72
65
 73
0
 40
0.0
  0
ENDTAB
  0
TABLE
  2
LAYER
  5
1
330
0
100
AcDbSymbolTable
 70
2
  0
LAYER
  5
27
330
1
100
AcDbSymbolTableRecord
100
AcDbLayerTableRecord
  2
0
 70
0
 62
7
  6
Continuous
370
-3
390
13
347
21
  0
LAYER
  5
28
330
1
100
AcDbSymbolTableRecord
100
AcDbLayerTableRecord
  2
Defpoints
 70
0
 62
7
  6
Continuous
290
0
370
-3
390
13
347
21
  0
ENDTAB
  0
TABLE
  2
STYLE
  5
5
330
0
100
AcDbSymbolTable
 70
1
  0
STYLE
  5
29
330
5
100
AcDbSymbolTableRecord
100
AcDbTextStyleTableRecord
  2
Standard
 70
0
 40
0.0
 41
1.0
 50
0.0
 71
0
 42
2.5
  3
txt
  4

  0
ENDTAB
  0
TABLE
  2
VIEW
  5
7
330
0
100
AcDbSymbolTable
 70
0
  0
ENDTAB
  0
TABLE
  2
UCS
  5
6
330
0
100
AcDbSymbolTable
 70
0
  0
ENDTAB
  0
TABLE
  2
APPID
  5
3
330
0
100
AcDbSymbolTable
 70
3
  0
APPID
  5
2A
330
3
100
AcDbSymbolTableRecord
100
AcDbRegAppTableRecord
  2
ACAD
 70
0
  0
APPID
  5
1A2
330
3
100
AcDbSymbolTableRecord
100
AcDbRegAppTableRecord
  2
HATCHBACKGROUNDCOLOR
 70
0
  0
APPID
  5
1A3
330
3
100
AcDbSymbolTableRecord
100
AcDbRegAppTableRecord
  2
EZDXF
 70
0
  0
ENDTAB
  0
TABLE
  2
DIMSTYLE
  5
4
330
0
100
AcDbSymbolTable
 70
1
100
AcDbDimStyleTable
  0
DIMSTYLE
105
2B
330
4
100
AcDbSymbolTableRecord
100
AcDbDimStyleTableRecord
  2
Standard
 70
0
 40
1.0
 41
2.5
 42
0.625
 43
3.75
 44
1.25
 45
0.0
 46
0.0
 47
0.0
 48
0.0
 49
2.5
140
2.5
141
2.5
142
0.0
143
0.03937007874
144
1.0
145
0.0
146
1.0
147
0.625
148
0.0
 69
0
 70
0
 71
0
 72
0
 73
0
 74
0
 75
0
 76
0
 77
1
 78
8
 79
3
170
0
171
3
172
1
173
0
174
0
175
0
176
0
177
0
178
0
179
2
271
2
272
2
273
2
274
3
275
0
276
0
277
2
278
44
279
0
280
0
281
0
282
0
283
0
284
8
285
0
286
0
288
0
289
3
290
0
371
-2
372
-2
  0
ENDTAB
  0
TABLE
  2
BLOCK_RECORD
  5
9
330
0
100
AcDbSymbolTable
 70
2
  0
BLOCK_RECORD
  5
17
330
9
100
AcDbSymbolTableRecord
100
AcDbBlockTableRecord
  2
*Model_Space
340
1A
 70
0
280
1
281
0
  0
BLOCK_RECORD
  5
1B
330
9
100
AcDbSymbolTableRecord
100
AcDbBlockTableRecord
  2
*Paper_Space
340
1E
 70
0
280
1
281
0
  0
ENDTAB
  0
ENDSEC
  0
SECTION
  2
BLOCKS
  0
BLOCK
  5
18
330
17
100
AcDbEntity
  8
0
100
AcDbBlockBegin
  2
*Model_Space
 70
0
 10
0.0
 20
0.0
 30
0.0
  3
*Model_Space
  1

  0
ENDBLK
  5
19
330
17
100
AcDbEntity
  8
0
100
AcDbBlockEnd
  0
BLOCK
  5
1C
330
1B
100
AcDbEntity
  8
0
100
AcDbBlockBegin
  2
*Paper_Space
 70
0
 10
0.0
 20
0.0
 30
0.0
  3
*Paper_Space
  1

  0
ENDBLK
  5
1D
330
1B
100
AcDbEntity
  8
0
100
AcDbBlockEnd
  0
ENDSEC
  0
SECTION
  2
ENTITIES
  0
LINE
  5
2F
330
17
100
AcDbEntity
  8
0
100
AcDbLine
 10
457.693
 20
-828.671
 30
0.0
 11
458.981
 21
-826.936
 31
0.0
  0
LINE
  5
30
330
17
100
AcDbEntity
  8
0
100
AcDbLine
 10
458.981
 20
-826.936
 30
0.0
 11
462.001
 21
-821.677
 31
0.0
  0
LINE
  5
31
330
17
100
AcDbEntity
  8
0
100
AcDbLine
 10
462.001
 20
-821.677
 30
0.0
 11
463.765
 21
-817.7
 31
0.0
  0
LINE
  5
32
330
17
100
AcDbEntity
  8
0
100
AcDbLine
 10
463.765
 20
-817.7
 30
0.0
 11
465.48699999999997
 21
-812.811
 31
0.0
  0
LINE
  5
33
330
17
100
AcDbEntity
  8
0
100
AcDbLine
 10
465.48699999999997
 20
-812.811
 30
0.0
 11
467.00899999999996
 21
-807.0
 31
0.0
  0
LINE
  5
34
330
17
100
AcDbEntity
  8
0
100
AcDbLine
 10
467.00899999999996
 20
-807.0
 30
0.0
 11
468.17199999999997
 21
-800.257
 31
0.0
  0
LINE
  5
35
330
17
100
AcDbEntity
  8
0
100
AcDbLine
 10
468.17199999999997
 20
-800.257
 30
0.0
 11
560.139
 21
-799.737
 31
0.0
  0
LINE
  5
36
330
17
100
AcDbEntity
  8
0
100
AcDbLine
 10
560.139
 20
-799.737
 30
0.0
 11
560.688
 21
-799.824
 31
0.0
  0
LINE
  5
37
330
17
100
AcDbEntity
  8
0
100
AcDbLine
 10
560.688
 20
-799.824
 30
0.0
 11
561.215
 21
-799.967
 31
0.0
  0
LINE
  5
38
330
17
100
AcDbEntity
  8
0
100
AcDbLine
 10
561.215
 20
-799.967
 30
0.0
 11
561.717
 21
-800.163
 31
0.0
  0
LINE
  5
39
330
17
100
AcDbEntity
  8
0
100
AcDbLine
 10
561.717
 20
-800.163
 30
0.0
 11
562.191
 21
-800.409
 31
0.0
  0
LINE
  5
3A
330
17
100
AcDbEntity
  8
0
100
AcDbLine
 10
562.191
 20
-800.409
 30
0.0
 11
562.634
 21
-800.701
 31
0.0
  0
LINE
  5
3B
330
17
100
AcDbEntity
  8
0
100
AcDbLine
 10
562.634
 20
-800.701
 30
0.0
 11
563.043
 21
-801.0360000000001
 31
0.0
  0
LINE
  5
3C
330
17
100
AcDbEntity
  8
0
100
AcDbLine
 10
563.043
 20
-801.0360000000001
 30
0.0
 11
563.415
 21
-801.4100000000001
 31
0.0
  0
LINE
  5
3D
330
17
100
AcDbEntity
  8
0
100
AcDbLine
 10
563.415
 20
-801.4100000000001
 30
0.0
 11
563.747
 21
-801.82
 31
0.0
  0
LINE
  5
3E
330
17
100
AcDbEntity
  8
0
100
AcDbLine
 10
563.747
 20
-801.82
 30
0.0
 11
564.036
 21
-802.263
 31
0.0
  0
LINE
  5
3F
330
17
100
AcDbEntity
  8
0
100
AcDbLine
 10
564.036
 20
-802.263
 30
0.0
 11
564.279
 21
-802.735
 31
0.0
  0
LINE
  5
40
330
17
100
AcDbEntity
  8
0
100
AcDbLine
 10
564.279
 20
-802.735
 30
0.0
 11
564.473
 21
-803.2330000000001
 31
0.0
  0
LINE
  5
41
330
17
100
AcDbEntity
  8
0
100
AcDbLine
 10
564.473
 20
-803.2330000000001
 30
0.0
 11
564.615
 21
-803.753
 31
0.0
  0
LINE
  5
42
330
17
100
AcDbEntity
  8
0
100
AcDbLine
 10
564.615
 20
-803.753
 30
0.0
 11
564.702
 21
-804.292
 31
0.0
  0
LINE
  5
43
330
17
100
AcDbEntity
  8
0
100
AcDbLine
 10
564.702
 20
-804.292
 30
0.0
 11
564.73
 21
-804.847
 31
0.0
  0
LINE
  5
44
330
17
100
AcDbEntity
  8
0
100
AcDbLine
 10
564.73
 20
-804.847
 30
0.0
 11
562.717
 21
-822.67
 31
0.0
  0
LINE
  5
45
330
17
100
AcDbEntity
  8
0
100
AcDbLine
 10
562.717
 20
-822.67
 30
0.0
 11
562.56
 21
-823.28
 31
0.0
  0
LINE
  5
46
330
17
100
AcDbEntity
  8
0
100
AcDbLine
 10
562.56
 20
-823.28
 30
0.0
 11
562.3499999999999
 21
-823.866
 31
0.0
  0
LINE
  5
47
330
17
100
AcDbEntity
  8
0
100
AcDbLine
 10
562.3499999999999
 20
-823.866
 30
0.0
 11
562.0899999999999
 21
-824.424
 31
0.0
  0
LINE
  5
48
330
17
100
AcDbEntity
  8
0
100
AcDbLine
 10
562.0899999999999
 20
-824.424
 30
0.0
 11
561.7829999999999
 21
-824.953
 31
0.0
  0
LINE
  5
49
330
17
100
AcDbEntity
  8
0
100
AcDbLine
 10
561.7829999999999
 20
-824.953
 30
0.0
 11
561.4309999999999
 21
-825.4499999999999
 31
0.0
  0
LINE
  5
4A
330
17
100
AcDbEntity
  8
0
100
AcDbLine
 10
561.4309999999999
 20
-825.4499999999999
 30
0.0
 11
561.0379999999999
 21
-825.9119999999999
 31
0.0
  0
LINE
  5
4B
330
17
100
AcDbEntity
  8
0
100
AcDbLine
 10
561.0379999999999
 20
-825.9119999999999
 30
0.0
 11
560.6059999999999
 21
-826.3359999999999
 31
0.0
  0
LINE
  5
4C
330
17
100
AcDbEntity
  8
0
100
AcDbLine
 10
560.6059999999999
 20
-826.3359999999999
 30
0.0
 11
560.1379999999999
 21
-826.7199999999999
 31
0.0
  0
LINE
  5
4D
330
17
100
AcDbEntity
  8
0
100
AcDbLine
 10
560.1379999999999
 20
-826.7199999999999
 30
0.0
 11
559.637
 21
-827.0619999999999
 31
0.0
  0
LINE
  5
4E
330
17
100
AcDbEntity
  8
0
100
AcDbLine
 10
559.637
 20
-827.0619999999999
 30
0.0
 11
559.106
 21
-827.3589999999999
 31
0.0
  0
LINE
  5
4F
330
17
100
AcDbEntity
  8
0
100
AcDbLine
 10
559.106
 20
-827.3589999999999
 30
0.0
 11
558.548
 21
-827.608
 31
0.0
  0
LINE
  5
50
330
17
100
AcDbEntity
  8
0
100
AcDbLine
 10
558.548
 20
-827.608
 30
0.0
 11
557.965
 21
-827.8069999999999
 31
0.0
  0
LINE
  5
51
330
17
100
AcDbEntity
  8
0
100
AcDbLine
 10
557.965
 20
-827.8069999999999
 30
0.0
 11
557.36
 21
-827.954
 31
0.0
  0
LINE
  5
52
330
17
100
AcDbEntity
  8
0
100
AcDbLine
 10
557.36
 20
-827.954
 30
0.0
 11
556.737
 21
-828.045
 31
0.0
  0
LINE
  5
53
330
17
100
AcDbEntity
  8
0
100
AcDbLine
 10
556.737
 20
-828.045
 30
0.0
 11
457.693
 21
-828.668
 31
0.0
  0
LINE
  5
54
330
17
100
AcDbEntity
  8
0
100
AcDbLine
 10
131.793
 20
-787.895
 30
0.0
 11
104.653
 21
-788.058
 31
0.0
  0
LINE
  5
55
330
17
100
AcDbEntity
  8
0
100
AcDbLine
 10
104.653
 20
-788.058
 30
0.0
 11
105.51400000000001
 21
-728.225
 31
0.0
  0
LINE
  5
56
330
17
100
AcDbEntity
  8
0
100
AcDbLine
 10
105.51400000000001
 20
-728.225
 30
0.0
 11
105.626
 21
-727.548
 31
0.0
  0
LINE
  5
57
330
17
100
AcDbEntity
  8
0
100
AcDbLine
 10
105.626
 20
-727.548
 30
0.0
 11
105.801
 21
-726.895
 31
0.0
  0
LINE
  5
58
330
17
100
AcDbEntity
  8
0
100
AcDbLine
 10
105.801
 20
-726.895
 30
0.0
 11
106.037
 21
-726.269
 31
0.0
  0
LINE
  5
59
330
17
100
AcDbEntity
  8
0
100
AcDbLine
 10
106.037
 20
-726.269
 30
0.0
 11
106.33000000000001
 21
-725.673
 31
0.0
  0
LINE
  5
5A
330
17
100
AcDbEntity
  8
0
100
AcDbLine
 10
106.33000000000001
 20
-725.673
 30
0.0
 11
106.67600000000002
 21
-725.111
 31
0.0
  0
LINE
  5
5B
330
17
100
AcDbEntity
  8
0
100
AcDbLine
 10
106.67600000000002
 20
-725.111
 30
0.0
 11
107.07300000000002
 21
-724.587
 31
0.0
  0
LINE
  5
5C
330
17
100
AcDbEntity
  8
0
100
AcDbLine
 10
107.07300000000002
 20
-724.587
 30
0.0
 11
107.51700000000002
 21
-724.103
 31
0.0
  0
LINE
  5
5D
330
17
100
AcDbEntity
  8
0
100
AcDbLine
 10
107.51700000000002
 20
-724.103
 30
0.0
 11
108.00400000000002
 21
-723.6629999999999
 31
0.0
  0
LINE
  5
5E
330
17
100
AcDbEntity
  8
0
100
AcDbLine
 10
108.00400000000002
 20
-723.6629999999999
 30
0.0
 11
108.53100000000002
 21
-723.2699999999999
 31
0.0
  0
LINE
  5
5F
330
17
100
AcDbEntity
  8
0
100
AcDbLine
 10
108.53100000000002
 20
-723.2699999999999
 30
0.0
 11
109.09500000000001
 21
-722.9279999999999
 31
0.0
  0
LINE
  5
60
330
17
100
AcDbEntity
  8
0
100
AcDbLine
 10
109.09500000000001
 20
-722.9279999999999
 30
0.0
 11
109.69300000000001
 21
-722.6399999999999
 31
0.0
  0
LINE
  5
61
330
17
100
AcDbEntity
  8
0
100
AcDbLine
 10
109.69300000000001
 20
-722.6399999999999
 30
0.0
 11
110.32100000000001
 21
-722.4089999999999
 31
0.0
  0
LINE
  5
62
330
17
100
AcDbEntity
  8
0
100
AcDbLine
 10
110.32100000000001
 20
-722.4089999999999
 30
0.0
 11
110.97600000000001
 21
-722.2389999999999
 31
0.0
  0
LINE
  5
63
330
17
100
AcDbEntity
  8
0
100
AcDbLine
 10
110.97600000000001
 20
-722.2389999999999
 30
0.0
 11
111.65400000000001
 21
-722.1329999999999
 31
0.0
  0
LINE
  5
64
330
17
100
AcDbEntity
  8
0
100
AcDbLine
 10
111.65400000000001
 20
-722.1329999999999
 30
0.0
 11
132.632
 21
-721.973
 31
0.0
  0
LINE
  5
65
330
17
100
AcDbEntity
  8
0
100
AcDbLine
 10
132.632
 20
-721.973
 30
0.0
 11
131.794
 21
-787.896
 31
0.0
  0
LINE
  5
66
330
17
100
AcDbEntity
  8
0
100
AcDbLine
 10
473.30600000000004
 20
-724.846
 30
0.0
 11
473.069
 21
-733.219
 31
0.0
  0
LINE
  5
67
330
17
100
AcDbEntity
  8
0
100
AcDbLine
 10
473.069
 20
-733.219
 30
0.0
 11
472.716
 21
-735.566
 31
0.0
  0
LINE
  5
68
330
17
100
AcDbEntity
  8
0
100
AcDbLine
 10
472.716
 20
-735.566
 30
0.0
 11
472.159
 21
-737.83
 31
0.0
  0
LINE
  5
69
330
17
100
AcDbEntity
  8
0
100
AcDbLine
 10
472.159
 20
-737.83
 30
0.0
 11
471.408
 21
-739.999
 31
0.0
  0
LINE
  5
6A
330
17
100
AcDbEntity
  8
0
100
AcDbLine
 10
471.408
 20
-739.999
 30
0.0
 11
470.47
 21
-742.063
 31
0.0
  0
LINE
  5
6B
330
17
100
AcDbEntity
  8
0
100
AcDbLine
 10
470.47
 20
-742.063
 30
0.0
 11
469.355
 21
-744.009
 31
0.0
  0
LINE
  5
6C
330
17
100
AcDbEntity
  8
0
100
AcDbLine
 10
469.355
 20
-744.009
 30
0.0
 11
468.072
 21
-745.826
 31
0.0
  0
LINE
  5
6D
330
17
100
AcDbEntity
  8
0
100
AcDbLine
 10
468.072
 20
-745.826
 30
0.0
 11
466.629
 21
-747.5020000000001
 31
0.0
  0
LINE
  5
6E
330
17
100
AcDbEntity
  8
0
100
AcDbLine
 10
466.629
 20
-747.5020000000001
 30
0.0
 11
465.035
 21
-749.0260000000001
 31
0.0
  0
LINE
  5
6F
330
17
100
AcDbEntity
  8
0
100
AcDbLine
 10
465.035
 20
-749.0260000000001
 30
0.0
 11
463.298
 21
-750.3860000000001
 31
0.0
  0
LINE
  5
70
330
17
100
AcDbEntity
  8
0
100
AcDbLine
 10
463.298
 20
-750.3860000000001
 30
0.0
 11
461.428
 21
-751.571
 31
0.0
  0
LINE
  5
71
330
17
100
AcDbEntity
  8
0
100
AcDbLine
 10
461.428
 20
-751.571
 30
0.0
 11
459.433
 21
-752.5690000000001
 31
0.0
  0
LINE
  5
72
330
17
100
AcDbEntity
  8
0
100
AcDbLine
 10
459.433
 20
-752.5690000000001
 30
0.0
 11
457.32099999999997
 21
-753.369
 31
0.0
  0
LINE
  5
73
330
17
100
AcDbEntity
  8
0
100
AcDbLine
 10
457.32099999999997
 20
-753.369
 30
0.0
 11
455.102
 21
-753.9590000000001
 31
0.0
  0
LINE
  5
74
330
17
100
AcDbEntity
  8
0
100
AcDbLine
 10
455.102
 20
-753.9590000000001
 30
0.0
 11
452.784
 21
-754.3270000000001
 31
0.0
  0
LINE
  5
75
330
17
100
AcDbEntity
  8
0
100
AcDbLine
 10
452.784
 20
-754.3270000000001
 30
0.0
 11
387.191
 21
-754.8410000000001
 31
0.0
  0
LINE
  5
76
330
17
100
AcDbEntity
  8
0
100
AcDbLine
 10
387.191
 20
-754.8410000000001
 30
0.0
 11
385.488
 21
-754.7040000000002
 31
0.0
  0
LINE
  5
77
330
17
100
AcDbEntity
  8
0
100
AcDbLine
 10
385.488
 20
-754.7040000000002
 30
0.0
 11
383.977
 21
-754.4320000000001
 31
0.0
  0
LINE
  5
78
330
17
100
AcDbEntity
  8
0
100
AcDbLine
 10
383.977
 20
-754.4320000000001
 30
0.0
 11
382.64599999999996
 21
-754.0460000000002
 31
0.0
  0
LINE
  5
79
330
17
100
AcDbEntity
  8
0
100
AcDbLine
 10
382.64599999999996
 20
-754.0460000000002
 30
0.0
 11
381.48499999999996
 21
-753.5650000000002
 31
0.0
  0
LINE
  5
7A
330
17
100
AcDbEntity
  8
0
100
AcDbLine
 10
381.48499999999996
 20
-753.5650000000002
 30
0.0
 11
380.48199999999997
 21
-753.0090000000001
 31
0.0
  0
LINE
  5
7B
330
17
100
AcDbEntity
  8
0
100
AcDbLine
 10
380.48199999999997
 20
-753.0090000000001
 30
0.0
 11
379.62499999999994
 21
-752.3980000000001
 31
0.0
  0
LINE
  5
7C
330
17
100
AcDbEntity
  8
0
100
AcDbLine
 10
379.62499999999994
 20
-752.3980000000001
 30
0.0
 11
378.90399999999994
 21
-751.7510000000001
 31
0.0
  0
LINE
  5
7D
330
17
100
AcDbEntity
  8
0
100
AcDbLine
 10
378.90399999999994
 20
-751.7510000000001
 30
0.0
 11
378.30699999999996
 21
-751.0880000000001
 31
0.0
  0
LINE
  5
7E
330
17
100
AcDbEntity
  8
0
100
AcDbLine
 10
378.30699999999996
 20
-751.0880000000001
 30
0.0
 11
377.82199999999995
 21
-750.4290000000001
 31
0.0
  0
LINE
  5
7F
330
17
100
AcDbEntity
  8
0
100
AcDbLine
 10
377.82199999999995
 20
-750.4290000000001
 30
0.0
 11
377.43899999999996
 21
-749.7940000000001
 31
0.0
  0
LINE
  5
80
330
17
100
AcDbEntity
  8
0
100
AcDbLine
 10
377.43899999999996
 20
-749.7940000000001
 30
0.0
 11
377.14599999999996
 21
-749.2020000000001
 31
0.0
  0
LINE
  5
81
330
17
100
AcDbEntity
  8
0
100
AcDbLine
 10
377.14599999999996
 20
-749.2020000000001
 30
0.0
 11
376.78399999999993
 21
-748.2280000000001
 31
0.0
  0
LINE
  5
82
330
17
100
AcDbEntity
  8
0
100
AcDbLine
 10
376.78399999999993
 20
-748.2280000000001
 30
0.0
 11
376.64699999999993
 21
-747.6650000000001
 31
0.0
  0
LINE
  5
83
330
17
100
AcDbEntity
  8
0
100
AcDbLine
 10
376.64699999999993
 20
-747.6650000000001
 30
0.0
 11
376.63399999999996
 21
-747.5870000000001
 31
0.0
  0
LINE
  5
84
330
17
100
AcDbEntity
  8
0
100
AcDbLine
 10
376.63399999999996
 20
-747.5870000000001
 30
0.0
 11
309.43899999999996
 21
-747.9900000000001
 31
0.0
  0
LINE
  5
85
330
17
100
AcDbEntity
  8
0
100
AcDbLine
 10
309.43899999999996
 20
-747.9900000000001
 30
0.0
 11
307.616
 21
-745.4740000000002
 31
0.0
  0
LINE
  5
86
330
17
100
AcDbEntity
  8
0
100
AcDbLine
 10
307.616
 20
-745.4740000000002
 30
0.0
 11
306.30899999999997
 21
-743.0860000000001
 31
0.0
  0
LINE
  5
87
330
17
100
AcDbEntity
  8
0
100
AcDbLine
 10
306.30899999999997
 20
-743.0860000000001
 30
0.0
 11
305.832
 21
-741.9410000000001
 31
0.0
  0
LINE
  5
88
330
17
100
AcDbEntity
  8
0
100
AcDbLine
 10
305.832
 20
-741.9410000000001
 30
0.0
 11
305.46299999999997
 21
-740.8300000000002
 31
0.0
  0
LINE
  5
89
330
17
100
AcDbEntity
  8
0
100
AcDbLine
 10
305.46299999999997
 20
-740.8300000000002
 30
0.0
 11
305.19599999999997
 21
-739.7540000000001
 31
0.0
  0
LINE
  5
8A
330
17
100
AcDbEntity
  8
0
100
AcDbLine
 10
305.19599999999997
 20
-739.7540000000001
 30
0.0
 11
305.02299999999997
 21
-738.7130000000001
 31
0.0
  0
LINE
  5
8B
330
17
100
AcDbEntity
  8
0
100
AcDbLine
 10
305.02299999999997
 20
-738.7130000000001
 30
0.0
 11
304.938
 21
-737.7070000000001
 31
0.0
  0
LINE
  5
8C
330
17
100
AcDbEntity
  8
0
100
AcDbLine
 10
304.938
 20
-737.7070000000001
 30
0.0
 11
304.93399999999997
 21
-736.7370000000001
 31
0.0
  0
LINE
  5
8D
330
17
100
AcDbEntity
  8
0
100
AcDbLine
 10
304.93399999999997
 20
-736.7370000000001
 30
0.0
 11
305.00399999999996
 21
-735.8040000000001
 31
0.0
  0
LINE
  5
8E
330
17
100
AcDbEntity
  8
0
100
AcDbLine
 10
305.00399999999996
 20
-735.8040000000001
 30
0.0
 11
305.14099999999996
 21
-734.9080000000001
 31
0.0
  0
LINE
  5
8F
330
17
100
AcDbEntity
  8
0
100
AcDbLine
 10
305.14099999999996
 20
-734.9080000000001
 30
0.0
 11
305.33899999999994
 21
-734.0500000000002
 31
0.0
  0
LINE
  5
90
330
17
100
AcDbEntity
  8
0
100
AcDbLine
 10
305.33899999999994
 20
-734.0500000000002
 30
0.0
 11
305.8879999999999
 21
-732.4510000000001
 31
0.0
  0
LINE
  5
91
330
17
100
AcDbEntity
  8
0
100
AcDbLine
 10
305.8879999999999
 20
-732.4510000000001
 30
0.0
 11
306.5949999999999
 21
-731.0110000000001
 31
0.0
  0
LINE
  5
92
330
17
100
AcDbEntity
  8
0
100
AcDbLine
 10
306.5949999999999
 20
-731.0110000000001
 30
0.0
 11
307.4059999999999
 21
-729.734
 31
0.0
  0
LINE
  5
93
330
17
100
AcDbEntity
  8
0
100
AcDbLine
 10
307.4059999999999
 20
-729.734
 30
0.0
 11
308.2659999999999
 21
-728.625
 31
0.0
  0
LINE
  5
94
330
17
100
AcDbEntity
  8
0
100
AcDbLine
 10
308.2659999999999
 20
-728.625
 30
0.0
 11
309.9119999999999
 21
-726.931
 31
0.0
  0
LINE
  5
95
330
17
100
AcDbEntity
  8
0
100
AcDbLine
 10
309.9119999999999
 20
-726.931
 30
0.0
 11
311.0929999999999
 21
-725.967
 31
0.0
  0
LINE
  5
96
330
17
100
AcDbEntity
  8
0
100
AcDbLine
 10
311.0929999999999
 20
-725.967
 30
0.0
 11
311.4089999999999
 21
-725.746
 31
0.0
  0
LINE
  5
97
330
17
100
AcDbEntity
  8
0
100
AcDbLine
 10
311.4089999999999
 20
-725.746
 30
0.0
 11
310.95099999999985
 21
-724.116
 31
0.0
  0
LINE
  5
98
330
17
100
AcDbEntity
  8
0
100
AcDbLine
 10
310.95099999999985
 20
-724.116
 30
0.0
 11
252.44699999999986
 21
-724.229
 31
0.0
  0
LINE
  5
99
330
17
100
AcDbEntity
  8
0
100
AcDbLine
 10
252.44699999999986
 20
-724.229
 30
0.0
 11
252.60799999999986
 21
-788.722
 31
0.0
  0
LINE
  5
9A
330
17
100
AcDbEntity
  8
0
100
AcDbLine
 10
252.60799999999986
 20
-788.722
 30
0.0
 11
711.5169999999998
 21
-785.314
 31
0.0
  0
LINE
  5
9B
330
17
100
AcDbEntity
  8
0
100
AcDbLine
 10
711.5169999999998
 20
-785.314
 30
0.0
 11
711.1479999999998
 21
-730.168
 31
0.0
  0
LINE
  5
9C
330
17
100
AcDbEntity
  8
0
100
AcDbLine
 10
711.1479999999998
 20
-730.168
 30
0.0
 11
711.0299999999997
 21
-729.425
 31
0.0
  0
LINE
  5
9D
330
17
100
AcDbEntity
  8
0
100
AcDbLine
 10
711.0299999999997
 20
-729.425
 30
0.0
 11
710.8419999999998
 21
-728.709
 31
0.0
  0
LINE
  5
9E
330
17
100
AcDbEntity
  8
0
100
AcDbLine
 10
710.8419999999998
 20
-728.709
 30
0.0
 11
710.5869999999998
 21
-728.0219999999999
 31
0.0
  0
LINE
  5
9F
330
17
100
AcDbEntity
  8
0
100
AcDbLine
 10
710.5869999999998
 20
-728.0219999999999
 30
0.0
 11
710.2689999999998
 21
-727.3689999999999
 31
0.0
  0
LINE
  5
A0
330
17
100
AcDbEntity
  8
0
100
AcDbLine
 10
710.2689999999998
 20
-727.3689999999999
 30
0.0
 11
709.8909999999997
 21
-726.7529999999999
 31
0.0
  0
LINE
  5
A1
330
17
100
AcDbEntity
  8
0
100
AcDbLine
 10
709.8909999999997
 20
-726.7529999999999
 30
0.0
 11
709.4579999999997
 21
-726.1779999999999
 31
0.0
  0
LINE
  5
A2
330
17
100
AcDbEntity
  8
0
100
AcDbLine
 10
709.4579999999997
 20
-726.1779999999999
 30
0.0
 11
708.9729999999997
 21
-725.6479999999999
 31
0.0
  0
LINE
  5
A3
330
17
100
AcDbEntity
  8
0
100
AcDbLine
 10
708.9729999999997
 20
-725.6479999999999
 30
0.0
 11
708.4389999999997
 21
-725.1669999999999
 31
0.0
  0
LINE
  5
A4
330
17
100
AcDbEntity
  8
0
100
AcDbLine
 10
708.4389999999997
 20
-725.1669999999999
 30
0.0
 11
707.8609999999998
 21
-724.7379999999999
 31
0.0
  0
LINE
  5
A5
330
17
100
AcDbEntity
  8
0
100
AcDbLine
 10
707.8609999999998
 20
-724.7379999999999
 30
0.0
 11
707.2419999999997
 21
-724.3649999999999
 31
0.0
  0
LINE
  5
A6
330
17
100
AcDbEntity
  8
0
100
AcDbLine
 10
707.2419999999997
 20
-724.3649999999999
 30
0.0
 11
706.5869999999998
 21
-724.0519999999999
 31
0.0
  0
LINE
  5
A7
330
17
100
AcDbEntity
  8
0
100
AcDbLine
 10
706.5869999999998
 20
-724.0519999999999
 30
0.0
 11
705.8979999999998
 21
-723.8019999999999
 31
0.0
  0
LINE
  5
A8
330
17
100
AcDbEntity
  8
0
100
AcDbLine
 10
705.8979999999998
 20
-723.8019999999999
 30
0.0
 11
705.1799999999998
 21
-723.6189999999999
 31
0.0
  0
LINE
  5
A9
330
17
100
AcDbEntity
  8
0
100
AcDbLine
 10
705.1799999999998
 20
-723.6189999999999
 30
0.0
 11
704.4359999999998
 21
-723.507
 31
0.0
  0
LINE
  5
AA
330
17
100
AcDbEntity
  8
0
100
AcDbLine
 10
704.4359999999998
 20
-723.507
 30
0.0
 11
473.3079999999998
 21
-724.8439999999999
 31
0.0
  0
LINE
  5
AB
330
17
100
AcDbEntity
  8
0
100
AcDbLine
 10
582.1569999999998
 20
-801.8599999999999
 30
0.0
 11
582.2439999999998
 21
-816.4499999999999
 31
0.0
  0
LINE
  5
AC
330
17
100
AcDbEntity
  8
0
100
AcDbLine
 10
582.2439999999998
 20
-816.4499999999999
 30
0.0
 11
700.9209999999998
 21
-815.6909999999999
 31
0.0
  0
LINE
  5
AD
330
17
100
AcDbEntity
  8
0
100
AcDbLine
 10
700.9209999999998
 20
-815.6909999999999
 30
0.0
 11
701.8419999999999
 21
-815.545
 31
0.0
  0
LINE
  5
AE
330
17
100
AcDbEntity
  8
0
100
AcDbLine
 10
701.8419999999999
 20
-815.545
 30
0.0
 11
702.7299999999999
 21
-815.3109999999999
 31
0.0
  0
LINE
  5
AF
330
17
100
AcDbEntity
  8
0
100
AcDbLine
 10
702.7299999999999
 20
-815.3109999999999
 30
0.0
 11
703.5809999999999
 21
-814.9939999999999
 31
0.0
  0
LINE
  5
B0
330
17
100
AcDbEntity
  8
0
100
AcDbLine
 10
703.5809999999999
 20
-814.9939999999999
 30
0.0
 11
704.3899999999999
 21
-814.598
 31
0.0
  0
LINE
  5
B1
330
17
100
AcDbEntity
  8
0
100
AcDbLine
 10
704.3899999999999
 20
-814.598
 30
0.0
 11
705.1529999999999
 21
-814.1279999999999
 31
0.0
  0
LINE
  5
B2
330
17
100
AcDbEntity
  8
0
100
AcDbLine
 10
705.1529999999999
 20
-814.1279999999999
 30
0.0
 11
705.8649999999999
 21
-813.5889999999999
 31
0.0
  0
LINE
  5
B3
330
17
100
AcDbEntity
  8
0
100
AcDbLine
 10
705.8649999999999
 20
-813.5889999999999
 30
0.0
 11
706.5209999999998
 21
-812.986
 31
0.0
  0
LINE
  5
B4
330
17
100
AcDbEntity
  8
0
100
AcDbLine
 10
706.5209999999998
 20
-812.986
 30
0.0
 11
707.1159999999999
 21
-812.323
 31
0.0
  0
LINE
  5
B5
330
17
100
AcDbEntity
  8
0
100
AcDbLine
 10
707.1159999999999
 20
-812.323
 30
0.0
 11
707.6459999999998
 21
-811.605
 31
0.0
  0
LINE
  5
B6
330
17
100
AcDbEntity
  8
0
100
AcDbLine
 10
707.6459999999998
 20
-811.605
 30
0.0
 11
708.1069999999999
 21
-810.837
 31
0.0
  0
LINE
  5
B7
330
17
100
AcDbEntity
  8
0
100
AcDbLine
 10
708.1069999999999
 20
-810.837
 30
0.0
 11
708.4929999999998
 21
-810.023
 31
0.0
  0
LINE
  5
B8
330
17
100
AcDbEntity
  8
0
100
AcDbLine
 10
708.4929999999998
 20
-810.023
 30
0.0
 11
708.7999999999998
 21
-809.168
 31
0.0
  0
LINE
  5
B9
330
17
100
AcDbEntity
  8
0
100
AcDbLine
 10
708.7999999999998
 20
-809.168
 30
0.0
 11
709.0229999999998
 21
-808.277
 31
0.0
  0
LINE
  5
BA
330
17
100
AcDbEntity
  8
0
100
AcDbLine
 10
709.0229999999998
 20
-808.277
 30
0.0
 11
709.1579999999998
 21
-807.354
 31
0.0
  0
LINE
  5
BB
330
17
100
AcDbEntity
  8
0
100
AcDbLine
 10
709.1579999999998
 20
-807.354
 30
0.0
 11
709.1689999999998
 21
-801.2460000000001
 31
0.0
  0
LINE
  5
BC
330
17
100
AcDbEntity
  8
0
100
AcDbLine
 10
709.1689999999998
 20
-801.2460000000001
 30
0.0
 11
582.1549999999997
 21
-801.8610000000001
 31
0.0
  0
LINE
  5
BD
330
17
100
AcDbEntity
  8
0
100
AcDbLine
 10
412.29699999999974
 20
-798.1630000000001
 30
0.0
 11
341.27499999999975
 21
-798.7710000000001
 31
0.0
  0
LINE
  5
BE
330
17
100
AcDbEntity
  8
0
100
AcDbLine
 10
341.27499999999975
 20
-798.7710000000001
 30
0.0
 11
340.32299999999975
 21
-798.9130000000001
 31
0.0
  0
LINE
  5
BF
330
17
100
AcDbEntity
  8
0
100
AcDbLine
 10
340.32299999999975
 20
-798.9130000000001
 30
0.0
 11
339.40999999999974
 21
-799.1810000000002
 31
0.0
  0
LINE
  5
C0
330
17
100
AcDbEntity
  8
0
100
AcDbLine
 10
339.40999999999974
 20
-799.1810000000002
 30
0.0
 11
338.5479999999997
 21
-799.5690000000002
 31
0.0
  0
LINE
  5
C1
330
17
100
AcDbEntity
  8
0
100
AcDbLine
 10
338.5479999999997
 20
-799.5690000000002
 30
0.0
 11
337.7479999999997
 21
-800.0690000000002
 31
0.0
  0
LINE
  5
C2
330
17
100
AcDbEntity
  8
0
100
AcDbLine
 10
337.7479999999997
 20
-800.0690000000002
 30
0.0
 11
337.0219999999997
 21
-800.6740000000002
 31
0.0
  0
LINE
  5
C3
330
17
100
AcDbEntity
  8
0
100
AcDbLine
 10
337.0219999999997
 20
-800.6740000000002
 30
0.0
 11
336.3809999999997
 21
-801.3770000000002
 31
0.0
  0
LINE
  5
C4
330
17
100
AcDbEntity
  8
0
100
AcDbLine
 10
336.3809999999997
 20
-801.3770000000002
 30
0.0
 11
335.8369999999997
 21
-802.1710000000002
 31
0.0
  0
LINE
  5
C5
330
17
100
AcDbEntity
  8
0
100
AcDbLine
 10
335.8369999999997
 20
-802.1710000000002
 30
0.0
 11
322.0809999999997
 21
-827.1850000000002
 31
0.0
  0
LINE
  5
C6
330
17
100
AcDbEntity
  8
0
100
AcDbLine
 10
322.0809999999997
 20
-827.1850000000002
 30
0.0
 11
321.37699999999967
 21
-828.2090000000002
 31
0.0
  0
LINE
  5
C7
330
17
100
AcDbEntity
  8
0
100
AcDbLine
 10
321.37699999999967
 20
-828.2090000000002
 30
0.0
 11
320.55599999999964
 21
-829.1110000000002
 31
0.0
  0
LINE
  5
C8
330
17
100
AcDbEntity
  8
0
100
AcDbLine
 10
320.55599999999964
 20
-829.1110000000002
 30
0.0
 11
319.6359999999996
 21
-829.8840000000002
 31
0.0
  0
LINE
  5
C9
330
17
100
AcDbEntity
  8
0
100
AcDbLine
 10
319.6359999999996
 20
-829.8840000000002
 30
0.0
 11
318.6359999999996
 21
-830.5190000000002
 31
0.0
  0
LINE
  5
CA
330
17
100
AcDbEntity
  8
0
100
AcDbLine
 10
318.6359999999996
 20
-830.5190000000002
 30
0.0
 11
317.57299999999964
 21
-831.0100000000002
 31
0.0
  0
LINE
  5
CB
330
17
100
AcDbEntity
  8
0
100
AcDbLine
 10
317.57299999999964
 20
-831.0100000000002
 30
0.0
 11
316.46499999999963
 21
-831.3480000000002
 31
0.0
  0
LINE
  5
CC
330
17
100
AcDbEntity
  8
0
100
AcDbLine
 10
316.46499999999963
 20
-831.3480000000002
 30
0.0
 11
315.89999999999964
 21
-831.4580000000002
 31
0.0
  0
LINE
  5
CD
330
17
100
AcDbEntity
  8
0
100
AcDbLine
 10
315.89999999999964
 20
-831.4580000000002
 30
0.0
 11
315.3309999999996
 21
-831.5270000000002
 31
0.0
  0
LINE
  5
CE
330
17
100
AcDbEntity
  8
0
100
AcDbLine
 10
315.3309999999996
 20
-831.5270000000002
 30
0.0
 11
194.82999999999961
 21
-832.2520000000002
 31
0.0
  0
LINE
  5
CF
330
17
100
AcDbEntity
  8
0
100
AcDbLine
 10
194.82999999999961
 20
-832.2520000000002
 30
0.0
 11
194.25499999999963
 21
-832.1900000000002
 31
0.0
  0
LINE
  5
D0
330
17
100
AcDbEntity
  8
0
100
AcDbLine
 10
194.25499999999963
 20
-832.1900000000002
 30
0.0
 11
193.69099999999963
 21
-832.0850000000002
 31
0.0
  0
LINE
  5
D1
330
17
100
AcDbEntity
  8
0
100
AcDbLine
 10
193.69099999999963
 20
-832.0850000000002
 30
0.0
 11
193.14099999999962
 21
-831.9390000000002
 31
0.0
  0
LINE
  5
D2
330
17
100
AcDbEntity
  8
0
100
AcDbLine
 10
193.14099999999962
 20
-831.9390000000002
 30
0.0
 11
192.60599999999963
 21
-831.7520000000002
 31
0.0
  0
LINE
  5
D3
330
17
100
AcDbEntity
  8
0
100
AcDbLine
 10
192.60599999999963
 20
-831.7520000000002
 30
0.0
 11
192.08899999999963
 21
-831.5260000000002
 31
0.0
  0
LINE
  5
D4
330
17
100
AcDbEntity
  8
0
100
AcDbLine
 10
192.08899999999963
 20
-831.5260000000002
 30
0.0
 11
191.59199999999962
 21
-831.2630000000001
 31
0.0
  0
LINE
  5
D5
330
17
100
AcDbEntity
  8
0
100
AcDbLine
 10
191.59199999999962
 20
-831.2630000000001
 30
0.0
 11
191.11599999999962
 21
-830.9640000000002
 31
0.0
  0
LINE
  5
D6
330
17
100
AcDbEntity
  8
0
100
AcDbLine
 10
191.11599999999962
 20
-830.9640000000002
 30
0.0
 11
190.66399999999962
 21
-830.6300000000002
 31
0.0
  0
LINE
  5
D7
330
17
100
AcDbEntity
  8
0
100
AcDbLine
 10
190.66399999999962
 20
-830.6300000000002
 30
0.0
 11
190.23799999999963
 21
-830.2620000000002
 31
0.0
  0
LINE
  5
D8
330
17
100
AcDbEntity
  8
0
100
AcDbLine
 10
190.23799999999963
 20
-830.2620000000002
 30
0.0
 11
189.83999999999963
 21
-829.8620000000002
 31
0.0
  0
LINE
  5
D9
330
17
100
AcDbEntity
  8
0
100
AcDbLine
 10
189.83999999999963
 20
-829.8620000000002
 30
0.0
 11
189.47199999999964
 21
-829.4320000000002
 31
0.0
  0
LINE
  5
DA
330
17
100
AcDbEntity
  8
0
100
AcDbLine
 10
189.47199999999964
 20
-829.4320000000002
 30
0.0
 11
189.13599999999963
 21
-828.9730000000003
 31
0.0
  0
LINE
  5
DB
330
17
100
AcDbEntity
  8
0
100
AcDbLine
 10
189.13599999999963
 20
-828.9730000000003
 30
0.0
 11
188.83399999999963
 21
-828.4860000000003
 31
0.0
  0
LINE
  5
DC
330
17
100
AcDbEntity
  8
0
100
AcDbLine
 10
188.83399999999963
 20
-828.4860000000003
 30
0.0
 11
188.56799999999964
 21
-827.9730000000003
 31
0.0
  0
LINE
  5
DD
330
17
100
AcDbEntity
  8
0
100
AcDbLine
 10
188.56799999999964
 20
-827.9730000000003
 30
0.0
 11
179.50499999999965
 21
-803.2320000000003
 31
0.0
  0
LINE
  5
DE
330
17
100
AcDbEntity
  8
0
100
AcDbLine
 10
179.50499999999965
 20
-803.2320000000003
 30
0.0
 11
179.26799999999966
 21
-802.7350000000004
 31
0.0
  0
LINE
  5
DF
330
17
100
AcDbEntity
  8
0
100
AcDbLine
 10
179.26799999999966
 20
-802.7350000000004
 30
0.0
 11
178.99499999999966
 21
-802.2620000000004
 31
0.0
  0
LINE
  5
E0
330
17
100
AcDbEntity
  8
0
100
AcDbLine
 10
178.99499999999966
 20
-802.2620000000004
 30
0.0
 11
178.68799999999968
 21
-801.8150000000004
 31
0.0
  0
LINE
  5
E1
330
17
100
AcDbEntity
  8
0
100
AcDbLine
 10
178.68799999999968
 20
-801.8150000000004
 30
0.0
 11
178.34899999999968
 21
-801.3960000000004
 31
0.0
  0
LINE
  5
E2
330
17
100
AcDbEntity
  8
0
100
AcDbLine
 10
178.34899999999968
 20
-801.3960000000004
 30
0.0
 11
177.97999999999968
 21
-801.0060000000004
 31
0.0
  0
LINE
  5
E3
330
17
100
AcDbEntity
  8
0
100
AcDbLine
 10
177.97999999999968
 20
-801.0060000000004
 30
0.0
 11
177.58299999999969
 21
-800.6470000000004
 31
0.0
  0
LINE
  5
E4
330
17
100
AcDbEntity
  8
0
100
AcDbLine
 10
177.58299999999969
 20
-800.6470000000004
 30
0.0
 11
177.15999999999968
 21
-800.3200000000004
 31
0.0
  0
LINE
  5
E5
330
17
100
AcDbEntity
  8
0
100
AcDbLine
 10
177.15999999999968
 20
-800.3200000000004
 30
0.0
 11
176.71299999999968
 21
-800.0260000000004
 31
0.0
  0
LINE
  5
E6
330
17
100
AcDbEntity
  8
0
100
AcDbLine
 10
176.71299999999968
 20
-800.0260000000004
 30
0.0
 11
176.2439999999997
 21
-799.7670000000004
 31
0.0
  0
LINE
  5
E7
330
17
100
AcDbEntity
  8
0
100
AcDbLine
 10
176.2439999999997
 20
-799.7670000000004
 30
0.0
 11
175.7559999999997
 21
-799.5450000000004
 31
0.0
  0
LINE
  5
E8
330
17
100
AcDbEntity
  8
0
100
AcDbLine
 10
175.7559999999997
 20
-799.5450000000004
 30
0.0
 11
175.2499999999997
 21
-799.3600000000005
 31
0.0
  0
LINE
  5
E9
330
17
100
AcDbEntity
  8
0
100
AcDbLine
 10
175.2499999999997
 20
-799.3600000000005
 30
0.0
 11
174.7279999999997
 21
-799.2150000000005
 31
0.0
  0
LINE
  5
EA
330
17
100
AcDbEntity
  8
0
100
AcDbLine
 10
174.7279999999997
 20
-799.2150000000005
 30
0.0
 11
174.1919999999997
 21
-799.1100000000005
 31
0.0
  0
LINE
  5
EB
330
17
100
AcDbEntity
  8
0
100
AcDbLine
 10
174.1919999999997
 20
-799.1100000000005
 30
0.0
 11
173.6439999999997
 21
-799.0470000000005
 31
0.0
  0
LINE
  5
EC
330
17
100
AcDbEntity
  8
0
100
AcDbLine
 10
173.6439999999997
 20
-799.0470000000005
 30
0.0
 11
121.46999999999969
 21
-799.3540000000005
 31
0.0
  0
LINE
  5
ED
330
17
100
AcDbEntity
  8
0
100
AcDbLine
 10
121.46999999999969
 20
-799.3540000000005
 30
0.0
 11
120.99599999999968
 21
-799.4170000000005
 31
0.0
  0
LINE
  5
EE
330
17
100
AcDbEntity
  8
0
100
AcDbLine
 10
120.99599999999968
 20
-799.4170000000005
 30
0.0
 11
120.54999999999968
 21
-799.5200000000004
 31
0.0
  0
LINE
  5
EF
330
17
100
AcDbEntity
  8
0
100
AcDbLine
 10
120.54999999999968
 20
-799.5200000000004
 30
0.0
 11
120.13099999999969
 21
-799.6610000000004
 31
0.0
  0
LINE
  5
F0
330
17
100
AcDbEntity
  8
0
100
AcDbLine
 10
120.13099999999969
 20
-799.6610000000004
 30
0.0
 11
119.73999999999968
 21
-799.8370000000004
 31
0.0
  0
LINE
  5
F1
330
17
100
AcDbEntity
  8
0
100
AcDbLine
 10
119.73999999999968
 20
-799.8370000000004
 30
0.0
 11
119.37699999999968
 21
-800.0460000000004
 31
0.0
  0
LINE
  5
F2
330
17
100
AcDbEntity
  8
0
100
AcDbLine
 10
119.37699999999968
 20
-800.0460000000004
 30
0.0
 11
119.04199999999969
 21
-800.2850000000004
 31
0.0
  0
LINE
  5
F3
330
17
100
AcDbEntity
  8
0
100
AcDbLine
 10
119.04199999999969
 20
-800.2850000000004
 30
0.0
 11
118.73599999999969
 21
-800.5520000000005
 31
0.0
  0
LINE
  5
F4
330
17
100
AcDbEntity
  8
0
100
AcDbLine
 10
118.73599999999969
 20
-800.5520000000005
 30
0.0
 11
118.45899999999969
 21
-800.8440000000005
 31
0.0
  0
LINE
  5
F5
330
17
100
AcDbEntity
  8
0
100
AcDbLine
 10
118.45899999999969
 20
-800.8440000000005
 30
0.0
 11
118.21199999999969
 21
-801.1580000000005
 31
0.0
  0
LINE
  5
F6
330
17
100
AcDbEntity
  8
0
100
AcDbLine
 10
118.21199999999969
 20
-801.1580000000005
 30
0.0
 11
117.99399999999969
 21
-801.4920000000004
 31
0.0
  0
LINE
  5
F7
330
17
100
AcDbEntity
  8
0
100
AcDbLine
 10
117.99399999999969
 20
-801.4920000000004
 30
0.0
 11
117.80599999999968
 21
-801.8430000000004
 31
0.0
  0
LINE
  5
F8
330
17
100
AcDbEntity
  8
0
100
AcDbLine
 10
117.80599999999968
 20
-801.8430000000004
 30
0.0
 11
117.64899999999969
 21
-802.2090000000004
 31
0.0
  0
LINE
  5
F9
330
17
100
AcDbEntity
  8
0
100
AcDbLine
 10
117.64899999999969
 20
-802.2090000000004
 30
0.0
 11
117.5219999999997
 21
-802.5860000000004
 31
0.0
  0
LINE
  5
FA
330
17
100
AcDbEntity
  8
0
100
AcDbLine
 10
117.5219999999997
 20
-802.5860000000004
 30
0.0
 11
117.42599999999969
 21
-802.9730000000003
 31
0.0
  0
LINE
  5
FB
330
17
100
AcDbEntity
  8
0
100
AcDbLine
 10
117.42599999999969
 20
-802.9730000000003
 30
0.0
 11
117.3619999999997
 21
-803.3660000000003
 31
0.0
  0
LINE
  5
FC
330
17
100
AcDbEntity
  8
0
100
AcDbLine
 10
117.3619999999997
 20
-803.3660000000003
 30
0.0
 11
117.3289999999997
 21
-803.7640000000004
 31
0.0
  0
LINE
  5
FD
330
17
100
AcDbEntity
  8
0
100
AcDbLine
 10
117.3289999999997
 20
-803.7640000000004
 30
0.0
 11
117.32799999999969
 21
-804.1630000000004
 31
0.0
  0
LINE
  5
FE
330
17
100
AcDbEntity
  8
0
100
AcDbLine
 10
117.32799999999969
 20
-804.1630000000004
 30
0.0
 11
117.3589999999997
 21
-804.5610000000004
 31
0.0
  0
LINE
  5
FF
330
17
100
AcDbEntity
  8
0
100
AcDbLine
 10
117.3589999999997
 20
-804.5610000000004
 30
0.0
 11
117.42299999999969
 21
-804.9550000000004
 31
0.0
  0
LINE
  5
100
330
17
100
AcDbEntity
  8
0
100
AcDbLine
 10
117.42299999999969
 20
-804.9550000000004
 30
0.0
 11
117.51999999999968
 21
-805.3430000000004
 31
0.0
  0
LINE
  5
101
330
17
100
AcDbEntity
  8
0
100
AcDbLine
 10
117.51999999999968
 20
-805.3430000000004
 30
0.0
 11
117.64999999999968
 21
-805.7220000000004
 31
0.0
  0
LINE
  5
102
330
17
100
AcDbEntity
  8
0
100
AcDbLine
 10
117.64999999999968
 20
-805.7220000000004
 30
0.0
 11
117.81399999999968
 21
-806.0890000000004
 31
0.0
  0
LINE
  5
103
330
17
100
AcDbEntity
  8
0
100
AcDbLine
 10
117.81399999999968
 20
-806.0890000000004
 30
0.0
 11
118.01099999999968
 21
-806.4420000000003
 31
0.0
  0
LINE
  5
104
330
17
100
AcDbEntity
  8
0
100
AcDbLine
 10
118.01099999999968
 20
-806.4420000000003
 30
0.0
 11
118.24299999999968
 21
-806.7780000000004
 31
0.0
  0
LINE
  5
105
330
17
100
AcDbEntity
  8
0
100
AcDbLine
 10
118.24299999999968
 20
-806.7780000000004
 30
0.0
 11
118.50899999999969
 21
-807.0950000000004
 31
0.0
  0
LINE
  5
106
330
17
100
AcDbEntity
  8
0
100
AcDbLine
 10
118.50899999999969
 20
-807.0950000000004
 30
0.0
 11
118.80999999999969
 21
-807.3900000000003
 31
0.0
  0
LINE
  5
107
330
17
100
AcDbEntity
  8
0
100
AcDbLine
 10
118.80999999999969
 20
-807.3900000000003
 30
0.0
 11
119.14599999999969
 21
-807.6610000000003
 31
0.0
  0
LINE
  5
108
330
17
100
AcDbEntity
  8
0
100
AcDbLine
 10
119.14599999999969
 20
-807.6610000000003
 30
0.0
 11
119.51699999999968
 21
-807.9040000000003
 31
0.0
  0
LINE
  5
109
330
17
100
AcDbEntity
  8
0
100
AcDbLine
 10
119.51699999999968
 20
-807.9040000000003
 30
0.0
 11
119.92399999999968
 21
-808.1170000000003
 31
0.0
  0
LINE
  5
10A
330
17
100
AcDbEntity
  8
0
100
AcDbLine
 10
119.92399999999968
 20
-808.1170000000003
 30
0.0
 11
120.36699999999968
 21
-808.2980000000003
 31
0.0
  0
LINE
  5
10B
330
17
100
AcDbEntity
  8
0
100
AcDbLine
 10
120.36699999999968
 20
-808.2980000000003
 30
0.0
 11
128.67099999999968
 21
-810.7830000000004
 31
0.0
  0
LINE
  5
10C
330
17
100
AcDbEntity
  8
0
100
AcDbLine
 10
128.67099999999968
 20
-810.7830000000004
 30
0.0
 11
138.41299999999967
 21
-814.7840000000003
 31
0.0
  0
LINE
  5
10D
330
17
100
AcDbEntity
  8
0
100
AcDbLine
 10
138.41299999999967
 20
-814.7840000000003
 30
0.0
 11
147.25499999999968
 21
-819.8060000000004
 31
0.0
  0
LINE
  5
10E
330
17
100
AcDbEntity
  8
0
100
AcDbLine
 10
147.25499999999968
 20
-819.8060000000004
 30
0.0
 11
151.29999999999967
 21
-822.7050000000004
 31
0.0
  0
LINE
  5
10F
330
17
100
AcDbEntity
  8
0
100
AcDbLine
 10
151.29999999999967
 20
-822.7050000000004
 30
0.0
 11
155.07499999999968
 21
-825.8650000000004
 31
0.0
  0
LINE
  5
110
330
17
100
AcDbEntity
  8
0
100
AcDbLine
 10
155.07499999999968
 20
-825.8650000000004
 30
0.0
 11
158.56399999999968
 21
-829.2880000000004
 31
0.0
  0
LINE
  5
111
330
17
100
AcDbEntity
  8
0
100
AcDbLine
 10
158.56399999999968
 20
-829.2880000000004
 30
0.0
 11
161.75199999999967
 21
-832.9760000000003
 31
0.0
  0
LINE
  5
112
330
17
100
AcDbEntity
  8
0
100
AcDbLine
 10
161.75199999999967
 20
-832.9760000000003
 30
0.0
 11
164.62299999999968
 21
-836.9310000000004
 31
0.0
  0
LINE
  5
113
330
17
100
AcDbEntity
  8
0
100
AcDbLine
 10
164.62299999999968
 20
-836.9310000000004
 30
0.0
 11
167.16299999999967
 21
-841.1540000000003
 31
0.0
  0
LINE
  5
114
330
17
100
AcDbEntity
  8
0
100
AcDbLine
 10
167.16299999999967
 20
-841.1540000000003
 30
0.0
 11
169.35599999999968
 21
-845.6480000000004
 31
0.0
  0
LINE
  5
115
330
17
100
AcDbEntity
  8
0
100
AcDbLine
 10
169.35599999999968
 20
-845.6480000000004
 30
0.0
 11
171.18699999999967
 21
-850.4140000000003
 31
0.0
  0
LINE
  5
116
330
17
100
AcDbEntity
  8
0
100
AcDbLine
 10
171.18699999999967
 20
-850.4140000000003
 30
0.0
 11
172.64099999999968
 21
-855.4550000000004
 31
0.0
  0
LINE
  5
117
330
17
100
AcDbEntity
  8
0
100
AcDbLine
 10
172.64099999999968
 20
-855.4550000000004
 30
0.0
 11
173.70199999999969
 21
-860.7720000000004
 31
0.0
  0
LINE
  5
118
330
17
100
AcDbEntity
  8
0
100
AcDbLine
 10
173.70199999999969
 20
-860.7720000000004
 30
0.0
 11
174.36099999999968
 21
-866.4830000000004
 31
0.0
  0
LINE
  5
119
330
17
100
AcDbEntity
  8
0
100
AcDbLine
 10
174.36099999999968
 20
-866.4830000000004
 30
0.0
 11
174.5539999999997
 21
-872.4130000000004
 31
0.0
  0
LINE
  5
11A
330
17
100
AcDbEntity
  8
0
100
AcDbLine
 10
174.5539999999997
 20
-872.4130000000004
 30
0.0
 11
174.2879999999997
 21
-878.3770000000004
 31
0.0
  0
LINE
  5
11B
330
17
100
AcDbEntity
  8
0
100
AcDbLine
 10
174.2879999999997
 20
-878.3770000000004
 30
0.0
 11
172.5269999999997
 21
-890.3470000000004
 31
0.0
  0
LINE
  5
11C
330
17
100
AcDbEntity
  8
0
100
AcDbLine
 10
172.5269999999997
 20
-890.3470000000004
 30
0.0
 11
169.3729999999997
 21
-902.2790000000005
 31
0.0
  0
LINE
  5
11D
330
17
100
AcDbEntity
  8
0
100
AcDbLine
 10
169.3729999999997
 20
-902.2790000000005
 30
0.0
 11
160.0679999999997
 21
-925.5740000000004
 31
0.0
  0
LINE
  5
11E
330
17
100
AcDbEntity
  8
0
100
AcDbLine
 10
160.0679999999997
 20
-925.5740000000004
 30
0.0
 11
89.8779999999997
 21
-1046.3900000000003
 31
0.0
  0
LINE
  5
11F
330
17
100
AcDbEntity
  8
0
100
AcDbLine
 10
89.8779999999997
 20
-1046.3900000000003
 30
0.0
 11
85.6239999999997
 21
-1057.3020000000004
 31
0.0
  0
LINE
  5
120
330
17
100
AcDbEntity
  8
0
100
AcDbLine
 10
85.6239999999997
 20
-1057.3020000000004
 30
0.0
 11
82.7589999999997
 21
-1067.8700000000003
 31
0.0
  0
LINE
  5
121
330
17
100
AcDbEntity
  8
0
100
AcDbLine
 10
82.7589999999997
 20
-1067.8700000000003
 30
0.0
 11
81.9929999999997
 21
-1072.9000000000003
 31
0.0
  0
LINE
  5
122
330
17
100
AcDbEntity
  8
0
100
AcDbLine
 10
81.9929999999997
 20
-1072.9000000000003
 30
0.0
 11
81.7559999999997
 21
-1076.5940000000003
 31
0.0
  0
LINE
  5
123
330
17
100
AcDbEntity
  8
0
100
AcDbLine
 10
81.7559999999997
 20
-1076.5940000000003
 30
0.0
 11
81.7849999999997
 21
-1079.0650000000003
 31
0.0
  0
LINE
  5
124
330
17
100
AcDbEntity
  8
0
100
AcDbLine
 10
81.7849999999997
 20
-1079.0650000000003
 30
0.0
 11
81.9819999999997
 21
-1081.4500000000003
 31
0.0
  0
LINE
  5
125
330
17
100
AcDbEntity
  8
0
100
AcDbLine
 10
81.9819999999997
 20
-1081.4500000000003
 30
0.0
 11
82.3569999999997
 21
-1083.7420000000002
 31
0.0
  0
LINE
  5
126
330
17
100
AcDbEntity
  8
0
100
AcDbLine
 10
82.3569999999997
 20
-1083.7420000000002
 30
0.0
 11
82.91799999999971
 21
-1085.9340000000002
 31
0.0
  0
LINE
  5
127
330
17
100
AcDbEntity
  8
0
100
AcDbLine
 10
82.91799999999971
 20
-1085.9340000000002
 30
0.0
 11
83.67399999999971
 21
-1088.0180000000003
 31
0.0
  0
LINE
  5
128
330
17
100
AcDbEntity
  8
0
100
AcDbLine
 10
83.67399999999971
 20
-1088.0180000000003
 30
0.0
 11
84.63299999999971
 21
-1089.9860000000003
 31
0.0
  0
LINE
  5
129
330
17
100
AcDbEntity
  8
0
100
AcDbLine
 10
84.63299999999971
 20
-1089.9860000000003
 30
0.0
 11
85.80399999999972
 21
-1091.8310000000004
 31
0.0
  0
LINE
  5
12A
330
17
100
AcDbEntity
  8
0
100
AcDbLine
 10
85.80399999999972
 20
-1091.8310000000004
 30
0.0
 11
87.19599999999971
 21
-1093.5450000000003
 31
0.0
  0
LINE
  5
12B
330
17
100
AcDbEntity
  8
0
100
AcDbLine
 10
87.19599999999971
 20
-1093.5450000000003
 30
0.0
 11
88.81799999999971
 21
-1095.1210000000003
 31
0.0
  0
LINE
  5
12C
330
17
100
AcDbEntity
  8
0
100
AcDbLine
 10
88.81799999999971
 20
-1095.1210000000003
 30
0.0
 11
90.67799999999971
 21
-1096.5510000000004
 31
0.0
  0
LINE
  5
12D
330
17
100
AcDbEntity
  8
0
100
AcDbLine
 10
90.67799999999971
 20
-1096.5510000000004
 30
0.0
 11
92.78499999999971
 21
-1097.8270000000005
 31
0.0
  0
LINE
  5
12E
330
17
100
AcDbEntity
  8
0
100
AcDbLine
 10
92.78499999999971
 20
-1097.8270000000005
 30
0.0
 11
95.14799999999971
 21
-1098.9420000000005
 31
0.0
  0
LINE
  5
12F
330
17
100
AcDbEntity
  8
0
100
AcDbLine
 10
95.14799999999971
 20
-1098.9420000000005
 30
0.0
 11
97.77499999999971
 21
-1099.8890000000004
 31
0.0
  0
LINE
  5
130
330
17
100
AcDbEntity
  8
0
100
AcDbLine
 10
97.77499999999971
 20
-1099.8890000000004
 30
0.0
 11
100.67499999999971
 21
-1100.6590000000003
 31
0.0
  0
LINE
  5
131
330
17
100
AcDbEntity
  8
0
100
AcDbLine
 10
100.67499999999971
 20
-1100.6590000000003
 30
0.0
 11
206.62699999999973
 21
-1112.9830000000004
 31
0.0
  0
LINE
  5
132
330
17
100
AcDbEntity
  8
0
100
AcDbLine
 10
206.62699999999973
 20
-1112.9830000000004
 30
0.0
 11
207.70999999999972
 21
-1112.9370000000004
 31
0.0
  0
LINE
  5
133
330
17
100
AcDbEntity
  8
0
100
AcDbLine
 10
207.70999999999972
 20
-1112.9370000000004
 30
0.0
 11
208.77499999999972
 21
-1112.8090000000004
 31
0.0
  0
LINE
  5
134
330
17
100
AcDbEntity
  8
0
100
AcDbLine
 10
208.77499999999972
 20
-1112.8090000000004
 30
0.0
 11
209.81699999999972
 21
-1112.6010000000003
 31
0.0
  0
LINE
  5
135
330
17
100
AcDbEntity
  8
0
100
AcDbLine
 10
209.81699999999972
 20
-1112.6010000000003
 30
0.0
 11
210.8329999999997
 21
-1112.3160000000003
 31
0.0
  0
LINE
  5
136
330
17
100
AcDbEntity
  8
0
100
AcDbLine
 10
210.8329999999997
 20
-1112.3160000000003
 30
0.0
 11
211.8189999999997
 21
-1111.9560000000004
 31
0.0
  0
LINE
  5
137
330
17
100
AcDbEntity
  8
0
100
AcDbLine
 10
211.8189999999997
 20
-1111.9560000000004
 30
0.0
 11
212.7709999999997
 21
-1111.5240000000003
 31
0.0
  0
LINE
  5
138
330
17
100
AcDbEntity
  8
0
100
AcDbLine
 10
212.7709999999997
 20
-1111.5240000000003
 30
0.0
 11
213.6859999999997
 21
-1111.0230000000004
 31
0.0
  0
LINE
  5
139
330
17
100
AcDbEntity
  8
0
100
AcDbLine
 10
213.6859999999997
 20
-1111.0230000000004
 30
0.0
 11
214.5599999999997
 21
-1110.4550000000004
 31
0.0
  0
LINE
  5
13A
330
17
100
AcDbEntity
  8
0
100
AcDbLine
 10
214.5599999999997
 20
-1110.4550000000004
 30
0.0
 11
215.3889999999997
 21
-1109.8240000000003
 31
0.0
  0
LINE
  5
13B
330
17
100
AcDbEntity
  8
0
100
AcDbLine
 10
215.3889999999997
 20
-1109.8240000000003
 30
0.0
 11
216.1689999999997
 21
-1109.1310000000003
 31
0.0
  0
LINE
  5
13C
330
17
100
AcDbEntity
  8
0
100
AcDbLine
 10
216.1689999999997
 20
-1109.1310000000003
 30
0.0
 11
216.8959999999997
 21
-1108.3800000000003
 31
0.0
  0
LINE
  5
13D
330
17
100
AcDbEntity
  8
0
100
AcDbLine
 10
216.8959999999997
 20
-1108.3800000000003
 30
0.0
 11
217.5669999999997
 21
-1107.5730000000003
 31
0.0
  0
LINE
  5
13E
330
17
100
AcDbEntity
  8
0
100
AcDbLine
 10
217.5669999999997
 20
-1107.5730000000003
 30
0.0
 11
218.17799999999968
 21
-1106.7130000000004
 31
0.0
  0
LINE
  5
13F
330
17
100
AcDbEntity
  8
0
100
AcDbLine
 10
218.17799999999968
 20
-1106.7130000000004
 30
0.0
 11
218.72499999999968
 21
-1105.8020000000004
 31
0.0
  0
LINE
  5
140
330
17
100
AcDbEntity
  8
0
100
AcDbLine
 10
218.72499999999968
 20
-1105.8020000000004
 30
0.0
 11
219.2039999999997
 21
-1104.8430000000003
 31
0.0
  0
LINE
  5
141
330
17
100
AcDbEntity
  8
0
100
AcDbLine
 10
219.2039999999997
 20
-1104.8430000000003
 30
0.0
 11
233.70099999999968
 21
-1068.7070000000003
 31
0.0
  0
LINE
  5
142
330
17
100
AcDbEntity
  8
0
100
AcDbLine
 10
233.70099999999968
 20
-1068.7070000000003
 30
0.0
 11
233.9819999999997
 21
-1068.2070000000003
 31
0.0
  0
LINE
  5
143
330
17
100
AcDbEntity
  8
0
100
AcDbLine
 10
233.9819999999997
 20
-1068.2070000000003
 30
0.0
 11
234.30299999999968
 21
-1067.7300000000002
 31
0.0
  0
LINE
  5
144
330
17
100
AcDbEntity
  8
0
100
AcDbLine
 10
234.30299999999968
 20
-1067.7300000000002
 30
0.0
 11
234.6629999999997
 21
-1067.2780000000002
 31
0.0
  0
LINE
  5
145
330
17
100
AcDbEntity
  8
0
100
AcDbLine
 10
234.6629999999997
 20
-1067.2780000000002
 30
0.0
 11
235.0599999999997
 21
-1066.8540000000003
 31
0.0
  0
LINE
  5
146
330
17
100
AcDbEntity
  8
0
100
AcDbLine
 10
235.0599999999997
 20
-1066.8540000000003
 30
0.0
 11
235.49299999999968
 21
-1066.4600000000003
 31
0.0
  0
LINE
  5
147
330
17
100
AcDbEntity
  8
0
100
AcDbLine
 10
235.49299999999968
 20
-1066.4600000000003
 30
0.0
 11
235.96099999999967
 21
-1066.0990000000002
 31
0.0
  0
LINE
  5
148
330
17
100
AcDbEntity
  8
0
100
AcDbLine
 10
235.96099999999967
 20
-1066.0990000000002
 30
0.0
 11
236.46299999999968
 21
-1065.7730000000001
 31
0.0
  0
LINE
  5
149
330
17
100
AcDbEntity
  8
0
100
AcDbLine
 10
236.46299999999968
 20
-1065.7730000000001
 30
0.0
 11
240.69499999999968
 21
-1063.565
 31
0.0
  0
LINE
  5
14A
330
17
100
AcDbEntity
  8
0
100
AcDbLine
 10
240.69499999999968
 20
-1063.565
 30
0.0
 11
242.91399999999967
 21
-1062.134
 31
0.0
  0
LINE
  5
14B
330
17
100
AcDbEntity
  8
0
100
AcDbLine
 10
242.91399999999967
 20
-1062.134
 30
0.0
 11
243.90199999999967
 21
-1061.345
 31
0.0
  0
LINE
  5
14C
330
17
100
AcDbEntity
  8
0
100
AcDbLine
 10
243.90199999999967
 20
-1061.345
 30
0.0
 11
244.78899999999967
 21
-1060.4950000000001
 31
0.0
  0
LINE
  5
14D
330
17
100
AcDbEntity
  8
0
100
AcDbLine
 10
244.78899999999967
 20
-1060.4950000000001
 30
0.0
 11
245.55799999999968
 21
-1059.575
 31
0.0
  0
LINE
  5
14E
330
17
100
AcDbEntity
  8
0
100
AcDbLine
 10
245.55799999999968
 20
-1059.575
 30
0.0
 11
246.0369999999997
 21
-1058.854
 31
0.0
  0
LINE
  5
14F
330
17
100
AcDbEntity
  8
0
100
AcDbLine
 10
246.0369999999997
 20
-1058.854
 30
0.0
 11
246.4249999999997
 21
-1058.122
 31
0.0
  0
LINE
  5
150
330
17
100
AcDbEntity
  8
0
100
AcDbLine
 10
246.4249999999997
 20
-1058.122
 30
0.0
 11
246.7259999999997
 21
-1057.381
 31
0.0
  0
LINE
  5
151
330
17
100
AcDbEntity
  8
0
100
AcDbLine
 10
246.7259999999997
 20
-1057.381
 30
0.0
 11
246.94499999999968
 21
-1056.632
 31
0.0
  0
LINE
  5
152
330
17
100
AcDbEntity
  8
0
100
AcDbLine
 10
246.94499999999968
 20
-1056.632
 30
0.0
 11
247.08599999999967
 21
-1055.876
 31
0.0
  0
LINE
  5
153
330
17
100
AcDbEntity
  8
0
100
AcDbLine
 10
247.08599999999967
 20
-1055.876
 30
0.0
 11
247.15499999999966
 21
-1055.115
 31
0.0
  0
LINE
  5
154
330
17
100
AcDbEntity
  8
0
100
AcDbLine
 10
247.15499999999966
 20
-1055.115
 30
0.0
 11
247.15599999999966
 21
-1054.35
 31
0.0
  0
LINE
  5
155
330
17
100
AcDbEntity
  8
0
100
AcDbLine
 10
247.15599999999966
 20
-1054.35
 30
0.0
 11
247.09399999999965
 21
-1053.5819999999999
 31
0.0
  0
LINE
  5
156
330
17
100
AcDbEntity
  8
0
100
AcDbLine
 10
247.09399999999965
 20
-1053.5819999999999
 30
0.0
 11
246.79999999999964
 21
-1052.041
 31
0.0
  0
LINE
  5
157
330
17
100
AcDbEntity
  8
0
100
AcDbLine
 10
246.79999999999964
 20
-1052.041
 30
0.0
 11
246.30999999999963
 21
-1050.503
 31
0.0
  0
LINE
  5
158
330
17
100
AcDbEntity
  8
0
100
AcDbLine
 10
246.30999999999963
 20
-1050.503
 30
0.0
 11
244.61799999999963
 21
-1046.912
 31
0.0
  0
LINE
  5
159
330
17
100
AcDbEntity
  8
0
100
AcDbLine
 10
244.61799999999963
 20
-1046.912
 30
0.0
 11
244.39599999999962
 21
-1046.334
 31
0.0
  0
LINE
  5
15A
330
17
100
AcDbEntity
  8
0
100
AcDbLine
 10
244.39599999999962
 20
-1046.334
 30
0.0
 11
244.22899999999962
 21
-1045.7440000000001
 31
0.0
  0
LINE
  5
15B
330
17
100
AcDbEntity
  8
0
100
AcDbLine
 10
244.22899999999962
 20
-1045.7440000000001
 30
0.0
 11
244.11799999999963
 21
-1045.1460000000002
 31
0.0
  0
LINE
  5
15C
330
17
100
AcDbEntity
  8
0
100
AcDbLine
 10
244.11799999999963
 20
-1045.1460000000002
 30
0.0
 11
244.06399999999962
 21
-1044.5430000000001
 31
0.0
  0
LINE
  5
15D
330
17
100
AcDbEntity
  8
0
100
AcDbLine
 10
244.06399999999962
 20
-1044.5430000000001
 30
0.0
 11
244.0669999999996
 21
-1043.938
 31
0.0
  0
LINE
  5
15E
330
17
100
AcDbEntity
  8
0
100
AcDbLine
 10
244.0669999999996
 20
-1043.938
 30
0.0
 11
244.12799999999962
 21
-1043.334
 31
0.0
  0
LINE
  5
15F
330
17
100
AcDbEntity
  8
0
100
AcDbLine
 10
244.12799999999962
 20
-1043.334
 30
0.0
 11
244.24699999999962
 21
-1042.7340000000002
 31
0.0
  0
LINE
  5
160
330
17
100
AcDbEntity
  8
0
100
AcDbLine
 10
244.24699999999962
 20
-1042.7340000000002
 30
0.0
 11
258.1049999999996
 21
-1008.6080000000002
 31
0.0
  0
LINE
  5
161
330
17
100
AcDbEntity
  8
0
100
AcDbLine
 10
258.1049999999996
 20
-1008.6080000000002
 30
0.0
 11
258.3909999999996
 21
-1008.1530000000001
 31
0.0
  0
LINE
  5
162
330
17
100
AcDbEntity
  8
0
100
AcDbLine
 10
258.3909999999996
 20
-1008.1530000000001
 30
0.0
 11
258.7109999999996
 21
-1007.7190000000002
 31
0.0
  0
LINE
  5
163
330
17
100
AcDbEntity
  8
0
100
AcDbLine
 10
258.7109999999996
 20
-1007.7190000000002
 30
0.0
 11
259.0639999999996
 21
-1007.3080000000002
 31
0.0
  0
LINE
  5
164
330
17
100
AcDbEntity
  8
0
100
AcDbLine
 10
259.0639999999996
 20
-1007.3080000000002
 30
0.0
 11
259.4489999999996
 21
-1006.9220000000003
 31
0.0
  0
LINE
  5
165
330
17
100
AcDbEntity
  8
0
100
AcDbLine
 10
259.4489999999996
 20
-1006.9220000000003
 30
0.0
 11
259.8649999999996
 21
-1006.5620000000002
 31
0.0
  0
LINE
  5
166
330
17
100
AcDbEntity
  8
0
100
AcDbLine
 10
259.8649999999996
 20
-1006.5620000000002
 30
0.0
 11
260.3099999999996
 21
-1006.2310000000002
 31
0.0
  0
LINE
  5
167
330
17
100
AcDbEntity
  8
0
100
AcDbLine
 10
260.3099999999996
 20
-1006.2310000000002
 30
0.0
 11
260.7839999999996
 21
-1005.9310000000003
 31
0.0
  0
LINE
  5
168
330
17
100
AcDbEntity
  8
0
100
AcDbLine
 10
260.7839999999996
 20
-1005.9310000000003
 30
0.0
 11
265.1219999999996
 21
-1003.6930000000002
 31
0.0
  0
LINE
  5
169
330
17
100
AcDbEntity
  8
0
100
AcDbLine
 10
265.1219999999996
 20
-1003.6930000000002
 30
0.0
 11
267.4319999999996
 21
-1002.2260000000002
 31
0.0
  0
LINE
  5
16A
330
17
100
AcDbEntity
  8
0
100
AcDbLine
 10
267.4319999999996
 20
-1002.2260000000002
 30
0.0
 11
268.45999999999964
 21
-1001.4160000000003
 31
0.0
  0
LINE
  5
16B
330
17
100
AcDbEntity
  8
0
100
AcDbLine
 10
268.45999999999964
 20
-1001.4160000000003
 30
0.0
 11
269.38099999999963
 21
-1000.5420000000003
 31
0.0
  0
LINE
  5
16C
330
17
100
AcDbEntity
  8
0
100
AcDbLine
 10
269.38099999999963
 20
-1000.5420000000003
 30
0.0
 11
270.1769999999996
 21
-999.5930000000003
 31
0.0
  0
LINE
  5
16D
330
17
100
AcDbEntity
  8
0
100
AcDbLine
 10
270.1769999999996
 20
-999.5930000000003
 30
0.0
 11
270.6659999999996
 21
-998.8560000000003
 31
0.0
  0
LINE
  5
16E
330
17
100
AcDbEntity
  8
0
100
AcDbLine
 10
270.6659999999996
 20
-998.8560000000003
 30
0.0
 11
271.05899999999957
 21
-998.1080000000003
 31
0.0
  0
LINE
  5
16F
330
17
100
AcDbEntity
  8
0
100
AcDbLine
 10
271.05899999999957
 20
-998.1080000000003
 30
0.0
 11
271.36199999999957
 21
-997.3500000000003
 31
0.0
  0
LINE
  5
170
330
17
100
AcDbEntity
  8
0
100
AcDbLine
 10
271.36199999999957
 20
-997.3500000000003
 30
0.0
 11
271.57899999999955
 21
-996.5840000000003
 31
0.0
  0
LINE
  5
171
330
17
100
AcDbEntity
  8
0
100
AcDbLine
 10
271.57899999999955
 20
-996.5840000000003
 30
0.0
 11
271.71599999999955
 21
-995.8110000000003
 31
0.0
  0
LINE
  5
172
330
17
100
AcDbEntity
  8
0
100
AcDbLine
 10
271.71599999999955
 20
-995.8110000000003
 30
0.0
 11
271.77799999999957
 21
-995.0320000000003
 31
0.0
  0
LINE
  5
173
330
17
100
AcDbEntity
  8
0
100
AcDbLine
 10
271.77799999999957
 20
-995.0320000000003
 30
0.0
 11
271.7699999999996
 21
-994.2490000000003
 31
0.0
  0
LINE
  5
174
330
17
100
AcDbEntity
  8
0
100
AcDbLine
 10
271.7699999999996
 20
-994.2490000000003
 30
0.0
 11
271.6959999999996
 21
-993.4630000000003
 31
0.0
  0
LINE
  5
175
330
17
100
AcDbEntity
  8
0
100
AcDbLine
 10
271.6959999999996
 20
-993.4630000000003
 30
0.0
 11
271.37399999999957
 21
-991.8880000000003
 31
0.0
  0
LINE
  5
176
330
17
100
AcDbEntity
  8
0
100
AcDbLine
 10
271.37399999999957
 20
-991.8880000000003
 30
0.0
 11
270.8519999999996
 21
-990.3170000000002
 31
0.0
  0
LINE
  5
177
330
17
100
AcDbEntity
  8
0
100
AcDbLine
 10
270.8519999999996
 20
-990.3170000000002
 30
0.0
 11
269.0949999999996
 21
-986.6850000000003
 31
0.0
  0
LINE
  5
178
330
17
100
AcDbEntity
  8
0
100
AcDbLine
 10
269.0949999999996
 20
-986.6850000000003
 30
0.0
 11
268.8729999999996
 21
-986.1260000000003
 31
0.0
  0
LINE
  5
179
330
17
100
AcDbEntity
  8
0
100
AcDbLine
 10
268.8729999999996
 20
-986.1260000000003
 30
0.0
 11
268.7029999999996
 21
-985.5560000000003
 31
0.0
  0
LINE
  5
17A
330
17
100
AcDbEntity
  8
0
100
AcDbLine
 10
268.7029999999996
 20
-985.5560000000003
 30
0.0
 11
268.58599999999956
 21
-984.9770000000003
 31
0.0
  0
LINE
  5
17B
330
17
100
AcDbEntity
  8
0
100
AcDbLine
 10
268.58599999999956
 20
-984.9770000000003
 30
0.0
 11
268.52199999999954
 21
-984.3930000000004
 31
0.0
  0
LINE
  5
17C
330
17
100
AcDbEntity
  8
0
100
AcDbLine
 10
268.52199999999954
 20
-984.3930000000004
 30
0.0
 11
268.51199999999955
 21
-983.8060000000004
 31
0.0
  0
LINE
  5
17D
330
17
100
AcDbEntity
  8
0
100
AcDbLine
 10
268.51199999999955
 20
-983.8060000000004
 30
0.0
 11
268.55599999999953
 21
-983.2190000000004
 31
0.0
  0
LINE
  5
17E
330
17
100
AcDbEntity
  8
0
100
AcDbLine
 10
268.55599999999953
 20
-983.2190000000004
 30
0.0
 11
268.65399999999954
 21
-982.6350000000004
 31
0.0
  0
LINE
  5
17F
330
17
100
AcDbEntity
  8
0
100
AcDbLine
 10
268.65399999999954
 20
-982.6350000000004
 30
0.0
 11
302.20699999999954
 21
-891.9010000000004
 31
0.0
  0
LINE
  5
180
330
17
100
AcDbEntity
  8
0
100
AcDbLine
 10
302.20699999999954
 20
-891.9010000000004
 30
0.0
 11
308.18299999999954
 21
-880.4360000000004
 31
0.0
  0
LINE
  5
181
330
17
100
AcDbEntity
  8
0
100
AcDbLine
 10
308.18299999999954
 20
-880.4360000000004
 30
0.0
 11
311.62499999999955
 21
-875.0780000000004
 31
0.0
  0
LINE
  5
182
330
17
100
AcDbEntity
  8
0
100
AcDbLine
 10
311.62499999999955
 20
-875.0780000000004
 30
0.0
 11
315.42699999999957
 21
-870.0370000000004
 31
0.0
  0
LINE
  5
183
330
17
100
AcDbEntity
  8
0
100
AcDbLine
 10
315.42699999999957
 20
-870.0370000000004
 30
0.0
 11
319.6309999999996
 21
-865.3620000000004
 31
0.0
  0
LINE
  5
184
330
17
100
AcDbEntity
  8
0
100
AcDbLine
 10
319.6309999999996
 20
-865.3620000000004
 30
0.0
 11
324.2799999999996
 21
-861.1040000000004
 31
0.0
  0
LINE
  5
185
330
17
100
AcDbEntity
  8
0
100
AcDbLine
 10
324.2799999999996
 20
-861.1040000000004
 30
0.0
 11
329.4169999999996
 21
-857.3120000000004
 31
0.0
  0
LINE
  5
186
330
17
100
AcDbEntity
  8
0
100
AcDbLine
 10
329.4169999999996
 20
-857.3120000000004
 30
0.0
 11
335.08399999999955
 21
-854.0370000000004
 31
0.0
  0
LINE
  5
187
330
17
100
AcDbEntity
  8
0
100
AcDbLine
 10
335.08399999999955
 20
-854.0370000000004
 30
0.0
 11
341.81999999999954
 21
-851.0600000000004
 31
0.0
  0
LINE
  5
188
330
17
100
AcDbEntity
  8
0
100
AcDbLine
 10
341.81999999999954
 20
-851.0600000000004
 30
0.0
 11
348.82499999999953
 21
-848.6900000000004
 31
0.0
  0
LINE
  5
189
330
17
100
AcDbEntity
  8
0
100
AcDbLine
 10
348.82499999999953
 20
-848.6900000000004
 30
0.0
 11
363.3809999999995
 21
-845.3220000000003
 31
0.0
  0
LINE
  5
18A
330
17
100
AcDbEntity
  8
0
100
AcDbLine
 10
363.3809999999995
 20
-845.3220000000003
 30
0.0
 11
392.82999999999953
 21
-840.9030000000004
 31
0.0
  0
LINE
  5
18B
330
17
100
AcDbEntity
  8
0
100
AcDbLine
 10
392.82999999999953
 20
-840.9030000000004
 30
0.0
 11
395.52699999999953
 21
-840.2840000000003
 31
0.0
  0
LINE
  5
18C
330
17
100
AcDbEntity
  8
0
100
AcDbLine
 10
395.52699999999953
 20
-840.2840000000003
 30
0.0
 11
398.0929999999995
 21
-839.3410000000003
 31
0.0
  0
LINE
  5
18D
330
17
100
AcDbEntity
  8
0
100
AcDbLine
 10
398.0929999999995
 20
-839.3410000000003
 30
0.0
 11
400.5019999999995
 21
-838.0940000000004
 31
0.0
  0
LINE
  5
18E
330
17
100
AcDbEntity
  8
0
100
AcDbLine
 10
400.5019999999995
 20
-838.0940000000004
 30
0.0
 11
402.7279999999995
 21
-836.5620000000004
 31
0.0
  0
LINE
  5
18F
330
17
100
AcDbEntity
  8
0
100
AcDbLine
 10
402.7279999999995
 20
-836.5620000000004
 30
0.0
 11
404.7449999999995
 21
-834.7650000000003
 31
0.0
  0
LINE
  5
190
330
17
100
AcDbEntity
  8
0
100
AcDbLine
 10
404.7449999999995
 20
-834.7650000000003
 30
0.0
 11
406.5279999999995
 21
-832.7220000000003
 31
0.0
  0
LINE
  5
191
330
17
100
AcDbEntity
  8
0
100
AcDbLine
 10
406.5279999999995
 20
-832.7220000000003
 30
0.0
 11
408.0499999999995
 21
-830.4530000000003
 31
0.0
  0
LINE
  5
192
330
17
100
AcDbEntity
  8
0
100
AcDbLine
 10
408.0499999999995
 20
-830.4530000000003
 30
0.0
 11
409.2849999999995
 21
-827.9780000000003
 31
0.0
  0
LINE
  5
193
330
17
100
AcDbEntity
  8
0
100
AcDbLine
 10
409.2849999999995
 20
-827.9780000000003
 30
0.0
 11
416.2469999999995
 21
-802.7010000000002
 31
0.0
  0
LINE
  5
194
330
17
100
AcDbEntity
  8
0
100
AcDbLine
 10
416.2469999999995
 20
-802.7010000000002
 30
0.0
 11
416.2869999999995
 21
-802.2070000000002
 31
0.0
  0
LINE
  5
195
330
17
100
AcDbEntity
  8
0
100
AcDbLine
 10
416.2869999999995
 20
-802.2070000000002
 30
0.0
 11
416.26499999999953
 21
-801.7210000000002
 31
0.0
  0
LINE
  5
196
330
17
100
AcDbEntity
  8
0
100
AcDbLine
 10
416.26499999999953
 20
-801.7210000000002
 30
0.0
 11
416.1839999999995
 21
-801.2470000000002
 31
0.0
  0
LINE
  5
197
330
17
100
AcDbEntity
  8
0
100
AcDbLine
 10
416.1839999999995
 20
-801.2470000000002
 30
0.0
 11
416.0469999999995
 21
-800.7900000000002
 31
0.0
  0
LINE
  5
198
330
17
100
AcDbEntity
  8
0
100
AcDbLine
 10
416.0469999999995
 20
-800.7900000000002
 30
0.0
 11
415.8579999999995
 21
-800.3540000000002
 31
0.0
  0
LINE
  5
199
330
17
100
AcDbEntity
  8
0
100
AcDbLine
 10
415.8579999999995
 20
-800.3540000000002
 30
0.0
 11
415.6189999999995
 21
-799.9440000000002
 31
0.0
  0
LINE
  5
19A
330
17
100
AcDbEntity
  8
0
100
AcDbLine
 10
415.6189999999995
 20
-799.9440000000002
 30
0.0
 11
415.3339999999995
 21
-799.5650000000002
 31
0.0
  0
LINE
  5
19B
330
17
100
AcDbEntity
  8
0
100
AcDbLine
 10
415.3339999999995
 20
-799.5650000000002
 30
0.0
 11
415.0049999999995
 21
-799.2210000000001
 31
0.0
  0
LINE
  5
19C
330
17
100
AcDbEntity
  8
0
100
AcDbLine
 10
415.0049999999995
 20
-799.2210000000001
 30
0.0
 11
414.63599999999946
 21
-798.9180000000001
 31
0.0
  0
LINE
  5
19D
330
17
100
AcDbEntity
  8
0
100
AcDbLine
 10
414.63599999999946
 20
-798.9180000000001
 30
0.0
 11
414.22999999999945
 21
-798.6600000000001
 31
0.0
  0
LINE
  5
19E
330
17
100
AcDbEntity
  8
0
100
AcDbLine
 10
414.22999999999945
 20
-798.6600000000001
 30
0.0
 11
413.78999999999945
 21
-798.4510000000001
 31
0.0
  0
LINE
  5
19F
330
17
100
AcDbEntity
  8
0
100
AcDbLine
 10
413.78999999999945
 20
-798.4510000000001
 30
0.0
 11
413.31899999999945
 21
-798.2960000000002
 31
0.0
  0
LINE
  5
1A0
330
17
100
AcDbEntity
  8
0
100
AcDbLine
 10
413.31899999999945
 20
-798.2960000000002
 30
0.0
 11
412.82099999999946
 21
-798.2000000000002
 31
0.0
  0
LINE
  5
1A1
330
17
100
AcDbEntity
  8
0
100
AcDbLine
 10
412.82099999999946
 20
-798.2000000000002
 30
0.0
 11
412.29799999999943
 21
-798.1680000000001
 31
0.0
  0
ENDSEC
  0
SECTION
  2
OBJECTS
  0
DICTIONARY
  5
A
330
0
100
AcDbDictionary
281
1
  3
ACAD_COLOR
350
B
  3
ACAD_GROUP
350
C
  3
ACAD_LAYOUT
350
D
  3
ACAD_MATERIAL
350
E
  3
ACAD_MLEADERSTYLE
350
F
  3
ACAD_MLINESTYLE
350
10
  3
ACAD_PLOTSETTINGS
350
11
  3
ACAD_PLOTSTYLENAME
350
12
  3
ACAD_SCALELIST
350
14
  3
ACAD_TABLESTYLE
350
15
  3
ACAD_VISUALSTYLE
350
16
  3
EZDXF_META
350
2D
  0
DICTIONARY
  5
B
330
A
100
AcDbDictionary
281
1
  0
DICTIONARY
  5
C
330
A
100
AcDbDictionary
281
1
  0
DICTIONARY
  5
D
330
A
100
AcDbDictionary
281
1
  3
Model
350
1A
  3
Layout1
350
1E
  0
DICTIONARY
  5
E
330
A
100
AcDbDictionary
281
1
  3
ByBlock
350
1F
  3
ByLayer
350
20
  3
Global
350
21
  0
DICTIONARY
  5
F
330
A
100
AcDbDictionary
281
1
  3
Standard
350
2C
  0
DICTIONARY
  5
10
330
A
100
AcDbDictionary
281
1
  3
Standard
350
22
  0
DICTIONARY
  5
11
330
A
100
AcDbDictionary
281
1
  0
ACDBDICTIONARYWDFLT
  5
12
330
A
100
AcDbDictionary
281
1
  3
Normal
350
13
100
AcDbDictionaryWithDefault
340
13
  0
ACDBPLACEHOLDER
  5
13
330
12
  0
DICTIONARY
  5
14
330
A
100
AcDbDictionary
281
1
  0
DICTIONARY
  5
15
330
A
100
AcDbDictionary
281
1
  0
DICTIONARY
  5
16
330
A
100
AcDbDictionary
281
1
  0
LAYOUT
  5
1A
330
D
100
AcDbPlotSettings
  1

  4
A3
  6

 40
7.5
 41
20.0
 42
7.5
 43
20.0
 44
420.0
 45
297.0
 46
0.0
 47
0.0
 48
0.0
 49
0.0
140
0.0
141
0.0
142
1.0
143
1.0
 70
1024
 72
1
 73
0
 74
5
  7

 75
16
 76
0
 77
2
 78
300
147
1.0
148
0.0
149
0.0
100
AcDbLayout
  1
Model
 70
1
 71
0
 10
0.0
 20
0.0
 11
420.0
 21
297.0
 12
0.0
 22
0.0
 32
0.0
 14
1e+20
 24
1e+20
 34
1e+20
 15
-1e+20
 25
-1e+20
 35
-1e+20
146
0.0
 13
0.0
 23
0.0
 33
0.0
 16
1.0
 26
0.0
 36
0.0
 17
0.0
 27
1.0
 37
0.0
 76
1
330
17
  0
LAYOUT
  5
1E
330
D
100
AcDbPlotSettings
  1

  4
A3
  6

 40
7.5
 41
20.0
 42
7.5
 43
20.0
 44
420.0
 45
297.0
 46
0.0
 47
0.0
 48
0.0
 49
0.0
140
0.0
141
0.0
142
1.0
143
1.0
 70
0
 72
1
 73
0
 74
5
  7

 75
16
 76
0
 77
2
 78
300
147
1.0
148
0.0
149
0.0
100
AcDbLayout
  1
Layout1
 70
1
 71
1
 10
0.0
 20
0.0
 11
420.0
 21
297.0
 12
0.0
 22
0.0
 32
0.0
 14
1e+20
 24
1e+20
 34
1e+20
 15
-1e+20
 25
-1e+20
 35
-1e+20
146
0.0
 13
0.0
 23
0.0
 33
0.0
 16
1.0
 26
0.0
 36
0.0
 17
0.0
 27
1.0
 37
0.0
 76
1
330
1B
  0
MATERIAL
  5
1F
102
{ACAD_REACTORS
330
E
102
}
330
E
100
AcDbMaterial
  1
ByBlock
  2

 70
0
 40
1.0
 71
1
 41
1.0
 91
-1023410177
 42
1.0
 72
1
  3

 73
1
 74
1
 75
1
 44
0.5
 73
0
 45
1.0
 46
1.0
 77
1
  4

 78
1
 79
1
170
1
 48
1.0
171
1
  6

172
1
173
1
174
1
140
1.0
141
1.0
175
1
  7

176
1
177
1
178
1
143
1.0
179
1
  8

270
1
271
1
272
1
145
1.0
146
1.0
273
1
  9

274
1
275
1
276
1
 42
1.0
 72
1
  3

 73
1
 74
1
 75
1
 94
63
  0
MATERIAL
  5
20
102
{ACAD_REACTORS
330
E
102
}
330
E
100
AcDbMaterial
  1
ByLayer
  2

 70
0
 40
1.0
 71
1
 41
1.0
 91
-1023410177
 42
1.0
 72
1
  3

 73
1
 74
1
 75
1
 44
0.5
 73
0
 45
1.0
 46
1.0
 77
1
  4

 78
1
 79
1
170
1
 48
1.0
171
1
  6

172
1
173
1
174
1
140
1.0
141
1.0
175
1
  7

176
1
177
1
178
1
143
1.0
179
1
  8

270
1
271
1
272
1
145
1.0
146
1.0
273
1
  9

274
1
275
1
276
1
 42
1.0
 72
1
  3

 73
1
 74
1
 75
1
 94
63
  0
MATERIAL
  5
21
102
{ACAD_REACTORS
330
E
102
}
330
E
100
AcDbMaterial
  1
Global
  2

 70
0
 40
1.0
 71
1
 41
1.0
 91
-1023410177
 42
1.0
 72
1
  3

 73
1
 74
1
 75
1
 44
0.5
 73
0
 45
1.0
 46
1.0
 77
1
  4

 78
1
 79
1
170
1
 48
1.0
171
1
  6

172
1
173
1
174
1
140
1.0
141
1.0
175
1
  7

176
1
177
1
178
1
143
1.0
179
1
  8

270
1
271
1
272
1
145
1.0
146
1.0
273
1
  9

274
1
275
1
276
1
 42
1.0
 72
1
  3

 73
1
 74
1
 75
1
 94
63
  0
MLINESTYLE
  5
22
102
{ACAD_REACTORS
330
10
102
}
330
10
100
AcDbMlineStyle
  2
Standard
 70
0
  3

 62
256
 51
90.0
 52
90.0
 71
2
 49
0.5
 62
256
  6
BYLAYER
 49
-0.5
 62
256
  6
BYLAYER
  0
MLEADERSTYLE
  5
2C
102
{ACAD_REACTORS
330
F
102
}
330
F
100
AcDbMLeaderStyle
179
2
170
2
171
1
172
0
 90
2
 40
0.0
 41
0.0
173
1
 91
-1056964608
 92
-2
290
1
 42
2.0
291
1
 43
8.0
  3
Standard
 44
4.0
300

342
29
174
1
175
1
176
0
178
1
 93
-1056964608
 45
4.0
292
0
297
0
 46
4.0
 94
-1056964608
 47
1.0
 49
1.0
140
1.0
294
1
141
0.0
177
0
142
1.0
295
0
296
0
143
3.75
271
0
272
9
273
9
  0
DICTIONARY
  5
2D
330
A
100
AcDbDictionary
280
1
281
1
  3
CREATED_BY_EZDXF
350
2E
  3
WRITTEN_BY_EZDXF
350
1A4
  0
DICTIONARYVAR
  5
2E
330
2D
100
DictionaryVariables
280
0
  1
1.4.3 @ 2026-04-08T00:10:11.157812+00:00
  0
DICTIONARYVAR
  5
1A4
330
2D
100
DictionaryVariables
280
0
  1
1.4.3 @ 2026-04-08T00:10:11.160948+00:00
  0
ENDSEC
  0
EOF
