  0
SECTION
  2
HEADER
  9
$ACADVER
  1
AC1024
  9
$ACADMAINTVER
 70
6
  9
$DWGCODEPAGE
  3
ANSI_1252
  9
$LASTSAVEDBY
  1
ezdxf
  9
$INSBASE
 10
0.0
 20
0.0
 30
0.0
  9
$EXTMIN
 10
1e+20
 20
1e+20
 30
1e+20
  9
$EXTMAX
 10
-1e+20
 20
-1e+20
 30
-1e+20
  9
$LIMMIN
 10
0.0
 20
0.0
  9
$LIMMAX
 10
420.0
 20
297.0
  9
$ORTHOMODE
 70
0
  9
$REGENMODE
 70
1
  9
$FILLMODE
 70
1
  9
$QTEXTMODE
 70
0
  9
$MIRRTEXT
 70
1
  9
$LTSCALE
 40
1.0
  9
$ATTMODE
 70
1
  9
$TEXTSIZE
 40
2.5
  9
$TRACEWID
 40
1.0
  9
$TEXTSTYLE
  7
Standard
  9
$CLAYER
  8
0
  9
$CELTYPE
  6
ByLayer
  9
$CECOLOR
 62
256
  9
$CELTSCALE
 40
1.0
  9
$DISPSILH
 70
0
  9
$DIMSCALE
 40
1.0
  9
$DIMASZ
 40
2.5
  9
$DIMEXO
 40
0.625
  9
$DIMDLI
 40
3.75
  9
$DIMRND
 40
0.0
  9
$DIMDLE
 40
0.0
  9
$DIMEXE
 40
1.25
  9
$DIMTP
 40
0.0
  9
$DIMTM
 40
0.0
  9
$DIMTXT
 40
2.5
  9
$DIMCEN
 40
2.5
  9
$DIMTSZ
 40
0.0
  9
$DIMTOL
 70
0
  9
$DIMLIM
 70
0
  9
$DIMTIH
 70
0
  9
$DIMTOH
 70
0
  9
$DIMSE1
 70
0
  9
$DIMSE2
 70
0
  9
$DIMTAD
 70
1
  9
$DIMZIN
 70
8
  9
$DIMBLK
  1

  9
$DIMASO
 70
1
  9
$DIMSHO
 70
1
  9
$DIMPOST
  1

  9
$DIMAPOST
  1

  9
$DIMALT
 70
0
  9
$DIMALTD
 70
3
  9
$DIMALTF
 40
0.03937007874
  9
$DIMLFAC
 40
1.0
  9
$DIMTOFL
 70
1
  9
$DIMTVP
 40
0.0
  9
$DIMTIX
 70
0
  9
$DIMSOXD
 70
0
  9
$DIMSAH
 70
0
  9
$DIMBLK1
  1

  9
$DIMBLK2
  1

  9
$DIMSTYLE
  2
ISO-25
  9
$DIMCLRD
 70
0
  9
$DIMCLRE
 70
0
  9
$DIMCLRT
 70
0
  9
$DIMTFAC
 40
1.0
  9
$DIMGAP
 40
0.625
  9
$DIMJUST
 70
0
  9
$DIMSD1
 70
0
  9
$DIMSD2
 70
0
  9
$DIMTOLJ
 70
0
  9
$DIMTZIN
 70
8
  9
$DIMALTZ
 70
0
  9
$DIMALTTZ
 70
0
  9
$DIMUPT
 70
0
  9
$DIMDEC
 70
2
  9
$DIMTDEC
 70
2
  9
$DIMALTU
 70
2
  9
$DIMALTTD
 70
3
  9
$DIMTXSTY
  7
Standard
  9
$DIMAUNIT
 70
0
  9
$DIMADEC
 70
0
  9
$DIMALTRND
 40
0.0
  9
$DIMAZIN
 70
0
  9
$DIMDSEP
 70
44
  9
$DIMATFIT
 70
3
  9
$DIMFRAC
 70
0
  9
$DIMLDRBLK
  1

  9
$DIMLUNIT
 70
2
  9
$DIMLWD
 70
-2
  9
$DIMLWE
 70
-2
  9
$DIMTMOVE
 70
0
  9
$DIMFXL
 40
1.0
  9
$DIMFXLON
 70
0
  9
$DIMJOGANG
 40
0.785398163397
  9
$DIMTFILL
 70
0
  9
$DIMTFILLCLR
 70
0
  9
$DIMARCSYM
 70
0
  9
$DIMLTYPE
  6

  9
$DIMLTEX1
  6

  9
$DIMLTEX2
  6

  9
$DIMTXTDIRECTION
 70
0
  9
$LUNITS
 70
2
  9
$LUPREC
 70
4
  9
$SKETCHINC
 40
1.0
  9
$FILLETRAD
 40
10.0
  9
$AUNITS
 70
0
  9
$AUPREC
 70
2
  9
$MENU
  1
.
  9
$ELEVATION
 40
0.0
  9
$PELEVATION
 40
0.0
  9
$THICKNESS
 40
0.0
  9
$LIMCHECK
 70
0
  9
$CHAMFERA
 40
0.0
  9
$CHAMFERB
 40
0.0
  9
$CHAMFERC
 40
0.0
  9
$CHAMFERD
 40
0.0
  9
$SKPOLY
 70
0
  9
$TDCREATE
 40
2461138.7363194446
  9
$TDUCREATE
 40
2458532.153996898
  9
$TDUPDATE
 40
2461138.7363194446
  9
$TDUUPDATE
 40
2458532.1544311
  9
$TDINDWG
 40
0.0
  9
$TDUSRTIMER
 40
0.0
  9
$USRTIMER
 70
1
  9
$ANGBASE
 50
0.0
  9
$ANGDIR
 70
0
  9
$PDMODE
 70
0
  9
$PDSIZE
 40
0.0
  9
$PLINEWID
 40
0.0
  9
$SPLFRAME
 70
0
  9
$SPLINETYPE
 70
6
  9
$SPLINESEGS
 70
8
  9
$HANDSEED
  5
37
  9
$SURFTAB1
 70
6
  9
$SURFTAB2
 70
6
  9
$SURFTYPE
 70
6
  9
$SURFU
 70
6
  9
$SURFV
 70
6
  9
$UCSBASE
  2

  9
$UCSNAME
  2

  9
$UCSORG
 10
0.0
 20
0.0
 30
0.0
  9
$UCSXDIR
 10
1.0
 20
0.0
 30
0.0
  9
$UCSYDIR
 10
0.0
 20
1.0
 30
0.0
  9
$UCSORTHOREF
  2

  9
$UCSORTHOVIEW
 70
0
  9
$UCSORGTOP
 10
0.0
 20
0.0
 30
0.0
  9
$UCSORGBOTTOM
 10
0.0
 20
0.0
 30
0.0
  9
$UCSORGLEFT
 10
0.0
 20
0.0
 30
0.0
  9
$UCSORGRIGHT
 10
0.0
 20
0.0
 30
0.0
  9
$UCSORGFRONT
 10
0.0
 20
0.0
 30
0.0
  9
$UCSORGBACK
 10
0.0
 20
0.0
 30
0.0
  9
$PUCSBASE
  2

  9
$PUCSNAME
  2

  9
$PUCSORG
 10
0.0
 20
0.0
 30
0.0
  9
$PUCSXDIR
 10
1.0
 20
0.0
 30
0.0
  9
$PUCSYDIR
 10
0.0
 20
1.0
 30
0.0
  9
$PUCSORTHOREF
  2

  9
$PUCSORTHOVIEW
 70
0
  9
$PUCSORGTOP
 10
0.0
 20
0.0
 30
0.0
  9
$PUCSORGBOTTOM
 10
0.0
 20
0.0
 30
0.0
  9
$PUCSORGLEFT
 10
0.0
 20
0.0
 30
0.0
  9
$PUCSORGRIGHT
 10
0.0
 20
0.0
 30
0.0
  9
$PUCSORGFRONT
 10
0.0
 20
0.0
 30
0.0
  9
$PUCSORGBACK
 10
0.0
 20
0.0
 30
0.0
  9
$USERI1
 70
0
  9
$USERI2
 70
0
  9
$USERI3
 70
0
  9
$USERI4
 70
0
  9
$USERI5
 70
0
  9
$USERR1
 40
0.0
  9
$USERR2
 40
0.0
  9
$USERR3
 40
0.0
  9
$USERR4
 40
0.0
  9
$USERR5
 40
0.0
  9
$WORLDVIEW
 70
1
  9
$SHADEDGE
 70
3
  9
$SHADEDIF
 70
70
  9
$TILEMODE
 70
1
  9
$MAXACTVP
 70
64
  9
$PINSBASE
 10
0.0
 20
0.0
 30
0.0
  9
$PLIMCHECK
 70
0
  9
$PEXTMIN
 10
1e+20
 20
1e+20
 30
1e+20
  9
$PEXTMAX
 10
-1e+20
 20
-1e+20
 30
-1e+20
  9
$PLIMMIN
 10
0.0
 20
0.0
  9
$PLIMMAX
 10
420.0
 20
297.0
  9
$UNITMODE
 70
0
  9
$VISRETAIN
 70
1
  9
$PLINEGEN
 70
0
  9
$PSLTSCALE
 70
1
  9
$TREEDEPTH
 70
3020
  9
$CMLSTYLE
  2
Standard
  9
$CMLJUST
 70
0
  9
$CMLSCALE
 40
20.0
  9
$PROXYGRAPHICS
 70
1
  9
$MEASUREMENT
 70
1
  9
$CELWEIGHT
370
-1
  9
$ENDCAPS
280
0
  9
$JOINSTYLE
280
0
  9
$LWDISPLAY
290
0
  9
$INSUNITS
 70
6
  9
$HYPERLINKBASE
  1

  9
$STYLESHEET
  1

  9
$XEDIT
290
1
  9
$CEPSNTYPE
380
0
  9
$PSTYLEMODE
290
1
  9
$FINGERPRINTGUID
  2
{899DB373-010B-479C-85E6-41531327F8E9}
  9
$VERSIONGUID
  2
{FC3788D6-580A-4E94-87D9-724A2B28FACD}
  9
$EXTNAMES
290
1
  9
$PSVPSCALE
 40
0.0
  9
$OLESTARTUP
290
0
  9
$SORTENTS
280
127
  9
$INDEXCTL
280
0
  9
$HIDETEXT
280
1
  9
$XCLIPFRAME
280
1
  9
$HALOGAP
280
0
  9
$OBSCOLOR
 70
257
  9
$OBSLTYPE
280
0
  9
$INTERSECTIONDISPLAY
280
0
  9
$INTERSECTIONCOLOR
 70
257
  9
$DIMASSOC
280
2
  9
$PROJECTNAME
  1

  9
$CAMERADISPLAY
290
0
  9
$LENSLENGTH
 40
50.0
  9
$CAMERAHEIGHT
 40
0.0
  9
$STEPSPERSEC
 40
24.0
  9
$STEPSIZE
 40
100.0
  9
$3DDWFPREC
 40
2.0
  9
$PSOLWIDTH
 40
0.005
  9
$PSOLHEIGHT
 40
0.08
  9
$LOFTANG1
 40
1.570796326795
  9
$LOFTANG2
 40
1.570796326795
  9
$LOFTMAG1
 40
0.0
  9
$LOFTMAG2
 40
0.0
  9
$LOFTPARAM
 70
7
  9
$LOFTNORMALS
280
1
  9
$LATITUDE
 40
37.795
  9
$LONGITUDE
 40
-122.394
  9
$NORTHDIRECTION
 40
0.0
  9
$TIMEZONE
 70
-8000
  9
$LIGHTGLYPHDISPLAY
280
1
  9
$TILEMODELIGHTSYNCH
280
1
  9
$CMATERIAL
347
20
  9
$SOLIDHIST
280
0
  9
$SHOWHIST
280
1
  9
$DWFFRAME
280
2
  9
$DGNFRAME
280
2
  9
$REALWORLDSCALE
290
1
  9
$INTERFERECOLOR
 62
256
  9
$CSHADOW
280
0
  9
$SHADOWPLANELOCATION
 40
0.0
  0
ENDSEC
  0
SECTION
  2
CLASSES
  0
CLASS
  1
ACDBDICTIONARYWDFLT
  2
AcDbDictionaryWithDefault
  3
ObjectDBX Classes
 90
0
 91
0
280
0
281
0
  0
CLASS
  1
SUN
  2
AcDbSun
  3
SCENEOE
 90
1153
 91
0
280
0
281
0
  0
CLASS
  1
VISUALSTYLE
  2
AcDbVisualStyle
  3
ObjectDBX Classes
 90
4095
 91
0
280
0
281
0
  0
CLASS
  1
MATERIAL
  2
AcDbMaterial
  3
ObjectDBX Classes
 90
1153
 91
0
280
0
281
0
  0
CLASS
  1
SCALE
  2
AcDbScale
  3
ObjectDBX Classes
 90
1153
 91
0
280
0
281
0
  0
CLASS
  1
TABLESTYLE
  2
AcDbTableStyle
  3
ObjectDBX Classes
 90
4095
 91
0
280
0
281
0
  0
CLASS
  1
MLEADERSTYLE
  2
AcDbMLeaderStyle
  3
ACDB_MLEADERSTYLE_CLASS
 90
4095
 91
0
280
0
281
0
  0
CLASS
  1
DICTIONARYVAR
  2
AcDbDictionaryVar
  3
ObjectDBX Classes
 90
0
 91
0
280
0
281
0
  0
CLASS
  1
CELLSTYLEMAP
  2
AcDbCellStyleMap
  3
ObjectDBX Classes
 90
1152
 91
0
280
0
281
0
  0
CLASS
  1
MENTALRAYRENDERSETTINGS
  2
AcDbMentalRayRenderSettings
  3
SCENEOE
 90
1024
 91
0
280
0
281
0
  0
CLASS
  1
ACDBDETAILVIEWSTYLE
  2
AcDbDetailViewStyle
  3
ObjectDBX Classes
 90
1025
 91
0
280
0
281
0
  0
CLASS
  1
ACDBSECTIONVIEWSTYLE
  2
AcDbSectionViewStyle
  3
ObjectDBX Classes
 90
1025
 91
0
280
0
281
0
  0
CLASS
  1
RASTERVARIABLES
  2
AcDbRasterVariables
  3
ISM
 90
0
 91
0
280
0
281
0
  0
CLASS
  1
LAYOUT
  2
AcDbLayout
  3
ObjectDBX Classes
 90
0
 91
0
280
0
281
0
  0
CLASS
  1
ACDBPLACEHOLDER
  2
AcDbPlaceHolder
  3
ObjectDBX Classes
 90
0
 91
0
280
0
281
0
  0
ENDSEC
  0
SECTION
  2
TABLES
  0
TABLE
  2
VPORT
  5
8
330
0
100
AcDbSymbolTable
 70
1
  0
VPORT
  5
23
330
8
100
AcDbSymbolTableRecord
100
AcDbViewportTableRecord
  2
*Active
 70
0
 10
0.0
 20
0.0
 11
1.0
 21
1.0
 12
0.0
 22
0.0
 13
0.0
 23
0.0
 14
0.5
 24
0.5
 15
0.5
 25
0.5
 16
0.0
 26
0.0
 36
1.0
 17
0.0
 27
0.0
 37
0.0
 40
1000.0
 41
1.34
 42
50.0
 43
0.0
 44
0.0
 50
0.0
 51
0.0
 71
0
 72
1000
 73
1
 74
3
 75
0
 76
0
 77
0
 78
0
281
0
 65
0
146
0.0
  0
ENDTAB
  0
TABLE
  2
LTYPE
  5
2
330
0
100
AcDbSymbolTable
 70
3
  0
LTYPE
  5
24
330
2
100
AcDbSymbolTableRecord
100
AcDbLinetypeTableRecord
  2
ByBlock
 70
0
  3

 72
65
 73
0
 40
0.0
  0
LTYPE
  5
25
330
2
100
AcDbSymbolTableRecord
100
AcDbLinetypeTableRecord
  2
ByLayer
 70
0
  3

 72
65
 73
0
 40
0.0
  0
LTYPE
  5
26
330
2
100
AcDbSymbolTableRecord
100
AcDbLinetypeTableRecord
  2
Continuous
 70
0
  3

 72
65
 73
0
 40
0.0
  0
ENDTAB
  0
TABLE
  2
LAYER
  5
1
330
0
100
AcDbSymbolTable
 70
2
  0
LAYER
  5
27
330
1
100
AcDbSymbolTableRecord
100
AcDbLayerTableRecord
  2
0
 70
0
 62
7
  6
Continuous
370
-3
390
13
347
21
  0
LAYER
  5
28
330
1
100
AcDbSymbolTableRecord
100
AcDbLayerTableRecord
  2
Defpoints
 70
0
 62
7
  6
Continuous
290
0
370
-3
390
13
347
21
  0
ENDTAB
  0
TABLE
  2
STYLE
  5
5
330
0
100
AcDbSymbolTable
 70
1
  0
STYLE
  5
29
330
5
100
AcDbSymbolTableRecord
100
AcDbTextStyleTableRecord
  2
Standard
 70
0
 40
0.0
 41
1.0
 50
0.0
 71
0
 42
2.5
  3
txt
  4

  0
ENDTAB
  0
TABLE
  2
VIEW
  5
7
330
0
100
AcDbSymbolTable
 70
0
  0
ENDTAB
  0
TABLE
  2
UCS
  5
6
330
0
100
AcDbSymbolTable
 70
0
  0
ENDTAB
  0
TABLE
  2
APPID
  5
3
330
0
100
AcDbSymbolTable
 70
3
  0
APPID
  5
2A
330
3
100
AcDbSymbolTableRecord
100
AcDbRegAppTableRecord
  2
ACAD
 70
0
  0
APPID
  5
34
330
3
100
AcDbSymbolTableRecord
100
AcDbRegAppTableRecord
  2
HATCHBACKGROUNDCOLOR
 70
0
  0
APPID
  5
35
330
3
100
AcDbSymbolTableRecord
100
AcDbRegAppTableRecord
  2
EZDXF
 70
0
  0
ENDTAB
  0
TABLE
  2
DIMSTYLE
  5
4
330
0
100
AcDbSymbolTable
 70
1
100
AcDbDimStyleTable
  0
DIMSTYLE
105
2B
330
4
100
AcDbSymbolTableRecord
100
AcDbDimStyleTableRecord
  2
Standard
 70
0
 40
1.0
 41
2.5
 42
0.625
 43
3.75
 44
1.25
 45
0.0
 46
0.0
 47
0.0
 48
0.0
 49
2.5
140
2.5
141
2.5
142
0.0
143
0.03937007874
144
1.0
145
0.0
146
1.0
147
0.625
148
0.0
 69
0
 70
0
 71
0
 72
0
 73
0
 74
0
 75
0
 76
0
 77
1
 78
8
 79
3
170
0
171
3
172
1
173
0
174
0
175
0
176
0
177
0
178
0
179
2
271
2
272
2
273
2
274
3
275
0
276
0
277
2
278
44
279
0
280
0
281
0
282
0
283
0
284
8
285
0
286
0
288
0
289
3
290
0
371
-2
372
-2
  0
ENDTAB
  0
TABLE
  2
BLOCK_RECORD
  5
9
330
0
100
AcDbSymbolTable
 70
2
  0
BLOCK_RECORD
  5
17
330
9
100
AcDbSymbolTableRecord
100
AcDbBlockTableRecord
  2
*Model_Space
340
1A
 70
0
280
1
281
0
  0
BLOCK_RECORD
  5
1B
330
9
100
AcDbSymbolTableRecord
100
AcDbBlockTableRecord
  2
*Paper_Space
340
1E
 70
0
280
1
281
0
  0
ENDTAB
  0
ENDSEC
  0
SECTION
  2
BLOCKS
  0
BLOCK
  5
18
330
17
100
AcDbEntity
  8
0
100
AcDbBlockBegin
  2
*Model_Space
 70
0
 10
0.0
 20
0.0
 30
0.0
  3
*Model_Space
  1

  0
ENDBLK
  5
19
330
17
100
AcDbEntity
  8
0
100
AcDbBlockEnd
  0
BLOCK
  5
1C
330
1B
100
AcDbEntity
  8
0
100
AcDbBlockBegin
  2
*Paper_Space
 70
0
 10
0.0
 20
0.0
 30
0.0
  3
*Paper_Space
  1

  0
ENDBLK
  5
1D
330
1B
100
AcDbEntity
  8
0
100
AcDbBlockEnd
  0
ENDSEC
  0
SECTION
  2
ENTITIES
  0
LWPOLYLINE
  5
2F
330
17
100
AcDbEntity
  8
0
100
AcDbPolyline
 90
215
 70
0
 10
183.5404
 20
-149.73731800000002
 10
183.412384
 20
-148.488146
 10
183.1594
 20
-147.184872
 10
182.33720200000002
 20
-144.46758000000003
 10
179.840382
 20
-138.94917600000002
 10
164.775388
 20
-113.79835000000003
 10
162.158934
 20
-107.99419600000003
 10
161.14699799999997
 20
-104.98785200000002
 10
160.432496
 20
-101.95077400000002
 10
160.09086599999998
 20
-98.91191800000003
 10
160.08324599999997
 20
-97.40087200000002
 10
160.19678399999998
 20
-95.90024000000001
 10
160.41471599999997
 20
-94.50908200000002
 10
160.72891399999995
 20
-93.17812200000002
 10
161.13632999999996
 20
-91.90837600000002
 10
161.63391599999994
 20
-90.70060600000002
 10
162.21836999999996
 20
-89.55608200000002
 10
162.88664399999996
 20
-88.47556600000001
 10
163.63568999999995
 20
-87.46032800000002
 10
164.46245999999994
 20
-86.51138400000002
 10
165.36365199999995
 20
-85.62949600000002
 10
166.33596399999993
 20
-84.81568000000001
 10
167.37660199999993
 20
-84.07120600000002
 10
168.48226399999993
 20
-83.39683600000004
 10
170.8759599999999
 20
-82.26272600000004
 10
173.6143339999999
 20
-81.38439400000003
 10
173.7268559999999
 20
-81.33867400000003
 10
173.8302339999999
 20
-81.28457200000003
 10
173.9247219999999
 20
-81.22285000000002
 10
174.0100659999999
 20
-81.15427000000003
 10
174.08651999999992
 20
-81.07934000000003
 10
174.15433799999994
 20
-80.99882200000002
 10
174.21326599999992
 20
-80.91347800000003
 10
174.2635579999999
 20
-80.82381600000002
 10
174.30521399999992
 20
-80.73059800000001
 10
174.3384879999999
 20
-80.63433200000001
 10
174.3633799999999
 20
-80.53578000000002
 10
174.3798899999999
 20
-80.43570400000002
 10
174.38801799999993
 20
-80.334612
 10
174.38801799999993
 20
-80.233266
 10
174.3798899999999
 20
-80.132174
 10
174.3636339999999
 20
-80.032098
 10
174.33950399999992
 20
-79.9338
 10
174.30749999999992
 20
-79.837788
 10
174.2676219999999
 20
-79.74482400000001
 10
174.2201239999999
 20
-79.65567
 10
174.16500599999992
 20
-79.570834
 10
174.10226799999992
 20
-79.490824
 10
174.03216399999994
 20
-79.41665600000002
 10
173.95469399999993
 20
-79.34883800000001
 10
173.86985799999997
 20
-79.287878
 10
173.77765599999995
 20
-79.23453800000001
 10
173.67834199999996
 20
-79.18958
 10
173.57191599999996
 20
-79.153512
 10
173.45863199999994
 20
-79.12709600000001
 10
173.33848999999995
 20
-79.11109400000002
 10
137.58062399999997
 20
-78.94040600000001
 10
137.65656999999996
 20
-84.965794
 10
137.63243999999995
 20
-85.140546
 10
137.59154599999997
 20
-85.30971000000001
 10
137.53464999999994
 20
-85.47227
 10
137.46251399999994
 20
-85.62721
 10
137.37615399999996
 20
-85.773768
 10
137.27658599999992
 20
-85.91092800000001
 10
137.16457199999994
 20
-86.03792800000001
 10
137.04112799999993
 20
-86.15375200000001
 10
136.9070159999999
 20
-86.25738400000002
 10
136.7632519999999
 20
-86.34806200000003
 10
136.61059799999992
 20
-86.42477000000002
 10
136.4498159999999
 20
-86.48674600000004
 10
136.2821759999999
 20
-86.53297400000004
 10
136.10818599999993
 20
-86.56243800000004
 10
135.92886199999992
 20
-86.57437600000004
 10
122.67945999999992
 20
-86.51087600000004
 10
122.50470799999992
 20
-86.48674600000004
 10
122.33554399999993
 20
-86.44559800000005
 10
122.17298399999993
 20
-86.38870200000004
 10
122.01804399999992
 20
-86.31656600000005
 10
121.87148599999992
 20
-86.23020600000005
 10
121.73432599999991
 20
-86.13063800000005
 10
121.60732599999992
 20
-86.01862400000006
 10
121.49150199999991
 20
-85.89518000000007
 10
121.38786999999991
 20
-85.76106800000005
 10
121.2971919999999
 20
-85.61730400000006
 10
121.2204839999999
 20
-85.46465000000006
 10
121.15850799999988
 20
-85.30386800000007
 10
121.1125339999999
 20
-85.13622800000006
 10
121.08306999999989
 20
-84.96223800000006
 10
120.9987419999999
 20
-79.16773600000006
 10
121.0200779999999
 20
-78.99171400000007
 10
99.5878119999999
 20
-78.94269200000008
 10
99.46106599999989
 20
-78.96682200000008
 10
99.34143199999988
 20
-79.00593800000009
 10
99.2296719999999
 20
-79.05877000000008
 10
99.12654799999989
 20
-79.12430200000009
 10
99.03282199999988
 20
-79.20126400000008
 10
98.94925599999988
 20
-79.28838600000009
 10
98.87661199999988
 20
-79.38465200000009
 10
98.81565199999987
 20
-79.48853800000009
 10
98.76739199999987
 20
-79.59928200000009
 10
98.73233999999988
 20
-79.71536000000008
 10
98.71151199999989
 20
-79.83575600000007
 10
98.70566999999987
 20
-79.95920000000008
 10
98.71557599999987
 20
-80.08467600000009
 10
98.74199199999987
 20
-80.21091400000009
 10
98.78567999999987
 20
-80.33664400000009
 10
100.47046199999987
 20
-86.76233600000009
 10
100.78313599999987
 20
-87.39174800000009
 10
101.16870799999987
 20
-87.9688360000001
 10
101.62057399999986
 20
-88.4885200000001
 10
102.13212999999986
 20
-88.94597400000008
 10
102.69702599999987
 20
-89.33611800000008
 10
103.30840399999985
 20
-89.65412600000009
 10
103.95991399999986
 20
-89.89491800000008
 10
104.64469799999986
 20
-90.05341400000009
 10
112.12271199999985
 20
-91.18904800000008
 10
115.81841199999985
 20
-92.05112400000009
 10
117.59666599999986
 20
-92.65615200000009
 10
119.30633999999985
 20
-93.41535800000008
 10
120.74423399999985
 20
-94.2497480000001
 10
122.04725399999985
 20
-95.21520200000009
 10
123.22632199999985
 20
-96.29876600000009
 10
124.29210599999986
 20
-97.4879940000001
 10
125.25552799999986
 20
-98.7701860000001
 10
126.91871999999987
 20
-101.5626620000001
 10
136.12367999999984
 20
-125.85496800000011
 10
136.14831799999985
 20
-126.00330400000011
 10
136.15923999999984
 20
-126.15240200000011
 10
136.15644599999985
 20
-126.3015000000001
 10
136.13993599999984
 20
-126.4498360000001
 10
136.10996399999982
 20
-126.5969020000001
 10
136.0665299999998
 20
-126.74168200000011
 10
136.00988799999982
 20
-126.8834140000001
 10
135.56208599999982
 20
-127.8051800000001
 10
135.42873599999982
 20
-128.2039600000001
 10
135.34618599999982
 20
-128.6040100000001
 10
135.3271359999998
 20
-128.8036540000001
 10
135.3245959999998
 20
-129.0025360000001
 10
135.3398359999998
 20
-129.2004020000001
 10
135.37437999999977
 20
-129.3967440000001
 10
135.42924399999978
 20
-129.5913080000001
 10
135.5056979999998
 20
-129.7838400000001
 10
135.6052659999998
 20
-129.9740860000001
 10
135.7289639999998
 20
-130.16153800000012
 10
135.93063999999978
 20
-130.40283800000012
 10
136.1640659999998
 20
-130.62534200000013
 10
136.4249239999998
 20
-130.83159000000012
 10
137.0109019999998
 20
-131.20522400000013
 10
138.11173799999978
 20
-131.77570800000012
 10
138.2321339999998
 20
-131.85216200000013
 10
138.3451639999998
 20
-131.93649000000013
 10
138.45057399999982
 20
-132.02793000000014
 10
138.5481099999998
 20
-132.1262280000001
 10
138.6375179999998
 20
-132.23087600000014
 10
138.71854399999978
 20
-132.3413660000001
 10
138.7909339999998
 20
-132.4571900000001
 10
142.29562599999977
 20
-141.1315440000001
 10
142.3255979999998
 20
-141.2839440000001
 10
142.3408379999998
 20
-141.43736000000013
 10
142.34134599999976
 20
-141.59103000000013
 10
142.3273759999998
 20
-141.7441920000001
 10
142.2989279999998
 20
-141.89608400000012
 10
142.25625599999978
 20
-142.04569000000012
 10
142.1996139999998
 20
-142.1925020000001
 10
141.7683219999998
 20
-143.1038540000001
 10
141.6430999999998
 20
-143.4942520000001
 10
141.56766199999979
 20
-143.88541200000012
 10
141.5516599999998
 20
-144.08048400000013
 10
141.5516599999998
 20
-144.2747940000001
 10
141.5689319999998
 20
-144.4680880000001
 10
141.6044919999998
 20
-144.66011200000008
 10
141.6596099999998
 20
-144.8503580000001
 10
141.73555599999978
 20
-145.0385720000001
 10
141.83359999999976
 20
-145.2245000000001
 10
141.95501199999975
 20
-145.40788800000007
 10
142.14982999999975
 20
-145.6420760000001
 10
142.37461999999977
 20
-145.85823000000008
 10
142.62531799999977
 20
-146.05914400000012
 10
143.18818199999976
 20
-146.42363400000008
 10
144.23313799999977
 20
-146.9694800000001
 10
144.43074999999976
 20
-147.1002900000001
 10
144.60677199999978
 20
-147.2526900000001
 10
144.76069599999977
 20
-147.42363200000008
 10
144.82902199999975
 20
-147.5153260000001
 10
148.62657599999977
 20
-157.17189800000008
 10
148.74798799999976
 20
-157.41573800000012
 10
148.88641799999974
 20
-157.64738600000013
 10
149.04110399999976
 20
-157.8663340000001
 10
149.21128399999975
 20
-158.0715660000001
 10
149.39568799999975
 20
-158.26282800000013
 10
149.59355399999976
 20
-158.4391040000001
 10
149.80386599999974
 20
-158.5998860000001
 10
150.02560799999975
 20
-158.7444120000001
 10
150.25776399999975
 20
-158.87217400000011
 10
150.49957199999974
 20
-158.98215600000012
 10
150.75001599999976
 20
-159.07410400000012
 10
151.00807999999975
 20
-159.14700200000013
 10
151.27274799999975
 20
-159.20034200000012
 10
151.54300399999974
 20
-159.2333620000001
 10
151.81808599999974
 20
-159.2455540000001
 10
178.34025799999972
 20
-156.24276600000013
 10
179.11267199999975
 20
-156.07157000000012
 10
179.81472799999975
 20
-155.8544000000001
 10
180.44871199999974
 20
-155.5935420000001
 10
181.01665599999973
 20
-155.29052000000013
 10
181.52084599999975
 20
-154.94762000000011
 10
181.96331399999974
 20
-154.5666200000001
 10
182.34659999999974
 20
-154.1492980000001
 10
182.67273599999973
 20
-153.6976860000001
 10
182.94375399999973
 20
-153.2138160000001
 10
183.16219399999974
 20
-152.69946600000011
 10
183.33008799999973
 20
-152.15666800000014
 10
183.44972199999972
 20
-151.58720000000014
 10
183.52312799999973
 20
-150.99309400000013
 10
183.5406539999997
 20
-149.73858800000014
  0
LWPOLYLINE
  5
30
330
17
100
AcDbEntity
  8
0
100
AcDbPolyline
 90
39
 70
0
 10
62.057025999999716
 20
-79.51343000000014
 10
61.912753999999715
 20
-79.52003400000014
 10
61.77330799999971
 20
-79.54187800000014
 10
61.63944999999971
 20
-79.57794600000014
 10
61.511687999999715
 20
-79.62747600000014
 10
61.39103799999972
 20
-79.68970600000014
 10
61.27826199999972
 20
-79.76362000000015
 10
61.17412199999973
 20
-79.84845600000014
 10
61.07937999999972
 20
-79.94319800000014
 10
60.994797999999726
 20
-80.04708400000014
 10
60.92113799999973
 20
-80.15935200000014
 10
60.85916199999973
 20
-80.27898600000013
 10
60.80963199999973
 20
-80.40522400000015
 10
60.77330999999973
 20
-80.53730400000013
 10
60.75121199999973
 20
-80.67421000000013
 10
60.743845999999735
 20
-80.81518000000014
 10
61.247273999999734
 20
-85.34323800000014
 10
61.28689799999974
 20
-85.49817800000014
 10
61.33998399999974
 20
-85.64702200000013
 10
61.405769999999734
 20
-85.78900800000015
 10
61.48349399999974
 20
-85.92337400000015
 10
61.57264799999974
 20
-86.04961200000015
 10
61.672469999999734
 20
-86.16696000000015
 10
61.78194399999974
 20
-86.27491000000015
 10
61.900561999999745
 20
-86.37270000000015
 10
62.02756199999974
 20
-86.45982200000016
 10
62.162435999999744
 20
-86.53551400000015
 10
62.30416799999974
 20
-86.59901400000015
 10
62.452249999999744
 20
-86.64981400000015
 10
62.605665999999744
 20
-86.68740600000015
 10
62.763907999999745
 20
-86.71077400000016
 10
87.92082999999974
 20
-86.91372000000015
 10
87.59443999999974
 20
-86.47252200000014
 10
86.82964599999973
 20
-85.13546600000014
 10
86.38336799999972
 20
-84.12454600000014
 10
85.94826599999972
 20
-82.88197800000013
 10
85.56447199999971
 20
-81.40522200000012
 10
85.27211799999971
 20
-79.69199200000013
 10
62.05702599999971
 20
-79.51165200000014
  0
LWPOLYLINE
  5
31
330
17
100
AcDbEntity
  8
0
100
AcDbPolyline
 90
23
 70
0
 10
139.52524799999972
 20
-76.60182800000013
 10
139.34312999999972
 20
-59.96457400000013
 10
24.95524599999972
 20
-60.33211200000013
 10
24.775413999999717
 20
-60.35979800000013
 10
24.601931999999717
 20
-60.40475600000013
 10
24.435561999999717
 20
-60.46571600000013
 10
24.277319999999715
 20
-60.541916000000136
 10
24.127967999999715
 20
-60.63259400000013
 10
23.988267999999717
 20
-60.73673400000013
 10
23.859489999999717
 20
-60.85332000000013
 10
23.742141999999713
 20
-60.98159000000013
 10
23.637493999999712
 20
-61.12078200000013
 10
23.546053999999714
 20
-61.26988000000013
 10
23.469091999999716
 20
-61.42786800000013
 10
23.407369999999716
 20
-61.593984000000134
 10
23.361649999999713
 20
-61.76721200000013
 10
23.332947999999714
 20
-61.94679000000013
 10
23.208233999999713
 20
-76.80096400000012
 10
73.4722939999997
 20
-76.76210200000013
 10
84.0392019999997
 20
-75.66202800000012
 10
93.58833199999971
 20
-75.4156480000001
 10
93.57842599999971
 20
-76.68437800000011
 10
139.52524799999972
 20
-76.60157400000011
  0
LWPOLYLINE
  5
32
330
17
100
AcDbEntity
  8
0
100
AcDbPolyline
 90
19
 70
0
 10
177.61635799999974
 20
-76.06842800000011
 10
177.42179399999972
 20
-61.430408000000114
 10
177.39283799999973
 20
-61.25489400000011
 10
177.34737199999972
 20
-61.08547600000011
 10
177.28615799999974
 20
-60.923170000000106
 10
177.20995799999974
 20
-60.768992000000104
 10
177.11978799999974
 20
-60.6237040000001
 10
177.01666399999976
 20
-60.488068000000105
 10
176.90109399999974
 20
-60.36310000000011
 10
176.77434799999975
 20
-60.24956200000011
 10
176.63718799999975
 20
-60.14847000000011
 10
176.49037599999974
 20
-60.06058600000011
 10
176.33492799999976
 20
-59.98692600000011
 10
176.17185999999975
 20
-59.928252000000114
 10
176.00167999999977
 20
-59.88532600000011
 10
175.82565799999978
 20
-59.859164000000106
 10
170.02709199999978
 20
-59.868308000000106
 10
170.21428999999978
 20
-76.11872000000011
 10
177.61661199999978
 20
-76.0681740000001
  0
LWPOLYLINE
  5
33
330
17
100
AcDbEntity
  8
0
100
AcDbPolyline
 90
20
 70
0
 10
24.327611999999775
 20
-81.6820820000001
 10
24.338025999999772
 20
-81.92338200000009
 10
24.372061999999772
 20
-82.15782400000009
 10
24.42844999999977
 20
-82.38439200000009
 10
24.50617399999977
 20
-82.6015620000001
 10
24.603963999999774
 20
-82.8085720000001
 10
24.720549999999772
 20
-83.00389800000009
 10
24.854915999999772
 20
-83.18652400000009
 10
25.005791999999772
 20
-83.35518000000009
 10
25.172161999999773
 20
-83.50859600000008
 10
25.352755999999772
 20
-83.64575600000009
 10
25.546303999999772
 20
-83.7653900000001
 10
25.751789999999772
 20
-83.86622800000009
 10
25.967943999999772
 20
-83.9472540000001
 10
26.193495999999772
 20
-84.00719800000009
 10
26.427429999999774
 20
-84.0447900000001
 10
56.570879999999775
 20
-84.29117000000011
 10
56.59958199999978
 20
-80.5853100000001
 10
24.338533999999775
 20
-80.37195000000013
 10
24.328373999999773
 20
-81.68208200000012
  0
ENDSEC
  0
SECTION
  2
OBJECTS
  0
DICTIONARY
  5
A
330
0
100
AcDbDictionary
281
1
  3
ACAD_COLOR
350
B
  3
ACAD_GROUP
350
C
  3
ACAD_LAYOUT
350
D
  3
ACAD_MATERIAL
350
E
  3
ACAD_MLEADERSTYLE
350
F
  3
ACAD_MLINESTYLE
350
10
  3
ACAD_PLOTSETTINGS
350
11
  3
ACAD_PLOTSTYLENAME
350
12
  3
ACAD_SCALELIST
350
14
  3
ACAD_TABLESTYLE
350
15
  3
ACAD_VISUALSTYLE
350
16
  3
EZDXF_META
350
2D
  0
DICTIONARY
  5
B
330
A
100
AcDbDictionary
281
1
  0
DICTIONARY
  5
C
330
A
100
AcDbDictionary
281
1
  0
DICTIONARY
  5
D
330
A
100
AcDbDictionary
281
1
  3
Model
350
1A
  3
Layout1
350
1E
  0
DICTIONARY
  5
E
330
A
100
AcDbDictionary
281
1
  3
ByBlock
350
1F
  3
ByLayer
350
20
  3
Global
350
21
  0
DICTIONARY
  5
F
330
A
100
AcDbDictionary
281
1
  3
Standard
350
2C
  0
DICTIONARY
  5
10
330
A
100
AcDbDictionary
281
1
  3
Standard
350
22
  0
DICTIONARY
  5
11
330
A
100
AcDbDictionary
281
1
  0
ACDBDICTIONARYWDFLT
  5
12
330
A
100
AcDbDictionary
281
1
  3
Normal
350
13
100
AcDbDictionaryWithDefault
340
13
  0
ACDBPLACEHOLDER
  5
13
330
12
  0
DICTIONARY
  5
14
330
A
100
AcDbDictionary
281
1
  0
DICTIONARY
  5
15
330
A
100
AcDbDictionary
281
1
  0
DICTIONARY
  5
16
330
A
100
AcDbDictionary
281
1
  0
LAYOUT
  5
1A
330
D
100
AcDbPlotSettings
  1

  4
A3
  6

 40
7.5
 41
20.0
 42
7.5
 43
20.0
 44
420.0
 45
297.0
 46
0.0
 47
0.0
 48
0.0
 49
0.0
140
0.0
141
0.0
142
1.0
143
1.0
 70
1024
 72
1
 73
0
 74
5
  7

 75
16
 76
0
 77
2
 78
300
147
1.0
148
0.0
149
0.0
100
AcDbLayout
  1
Model
 70
1
 71
0
 10
0.0
 20
0.0
 11
420.0
 21
297.0
 12
0.0
 22
0.0
 32
0.0
 14
1e+20
 24
1e+20
 34
1e+20
 15
-1e+20
 25
-1e+20
 35
-1e+20
146
0.0
 13
0.0
 23
0.0
 33
0.0
 16
1.0
 26
0.0
 36
0.0
 17
0.0
 27
1.0
 37
0.0
 76
1
330
17
  0
LAYOUT
  5
1E
330
D
100
AcDbPlotSettings
  1

  4
A3
  6

 40
7.5
 41
20.0
 42
7.5
 43
20.0
 44
420.0
 45
297.0
 46
0.0
 47
0.0
 48
0.0
 49
0.0
140
0.0
141
0.0
142
1.0
143
1.0
 70
0
 72
1
 73
0
 74
5
  7

 75
16
 76
0
 77
2
 78
300
147
1.0
148
0.0
149
0.0
100
AcDbLayout
  1
Layout1
 70
1
 71
1
 10
0.0
 20
0.0
 11
420.0
 21
297.0
 12
0.0
 22
0.0
 32
0.0
 14
1e+20
 24
1e+20
 34
1e+20
 15
-1e+20
 25
-1e+20
 35
-1e+20
146
0.0
 13
0.0
 23
0.0
 33
0.0
 16
1.0
 26
0.0
 36
0.0
 17
0.0
 27
1.0
 37
0.0
 76
1
330
1B
  0
MATERIAL
  5
1F
102
{ACAD_REACTORS
330
E
102
}
330
E
100
AcDbMaterial
  1
ByBlock
  2

 70
0
 40
1.0
 71
1
 41
1.0
 91
-1023410177
 42
1.0
 72
1
  3

 73
1
 74
1
 75
1
 44
0.5
 73
0
 45
1.0
 46
1.0
 77
1
  4

 78
1
 79
1
170
1
 48
1.0
171
1
  6

172
1
173
1
174
1
140
1.0
141
1.0
175
1
  7

176
1
177
1
178
1
143
1.0
179
1
  8

270
1
271
1
272
1
145
1.0
146
1.0
273
1
  9

274
1
275
1
276
1
 42
1.0
 72
1
  3

 73
1
 74
1
 75
1
 94
63
  0
MATERIAL
  5
20
102
{ACAD_REACTORS
330
E
102
}
330
E
100
AcDbMaterial
  1
ByLayer
  2

 70
0
 40
1.0
 71
1
 41
1.0
 91
-1023410177
 42
1.0
 72
1
  3

 73
1
 74
1
 75
1
 44
0.5
 73
0
 45
1.0
 46
1.0
 77
1
  4

 78
1
 79
1
170
1
 48
1.0
171
1
  6

172
1
173
1
174
1
140
1.0
141
1.0
175
1
  7

176
1
177
1
178
1
143
1.0
179
1
  8

270
1
271
1
272
1
145
1.0
146
1.0
273
1
  9

274
1
275
1
276
1
 42
1.0
 72
1
  3

 73
1
 74
1
 75
1
 94
63
  0
MATERIAL
  5
21
102
{ACAD_REACTORS
330
E
102
}
330
E
100
AcDbMaterial
  1
Global
  2

 70
0
 40
1.0
 71
1
 41
1.0
 91
-1023410177
 42
1.0
 72
1
  3

 73
1
 74
1
 75
1
 44
0.5
 73
0
 45
1.0
 46
1.0
 77
1
  4

 78
1
 79
1
170
1
 48
1.0
171
1
  6

172
1
173
1
174
1
140
1.0
141
1.0
175
1
  7

176
1
177
1
178
1
143
1.0
179
1
  8

270
1
271
1
272
1
145
1.0
146
1.0
273
1
  9

274
1
275
1
276
1
 42
1.0
 72
1
  3

 73
1
 74
1
 75
1
 94
63
  0
MLINESTYLE
  5
22
102
{ACAD_REACTORS
330
10
102
}
330
10
100
AcDbMlineStyle
  2
Standard
 70
0
  3

 62
256
 51
90.0
 52
90.0
 71
2
 49
0.5
 62
256
  6
BYLAYER
 49
-0.5
 62
256
  6
BYLAYER
  0
MLEADERSTYLE
  5
2C
102
{ACAD_REACTORS
330
F
102
}
330
F
100
AcDbMLeaderStyle
179
2
170
2
171
1
172
0
 90
2
 40
0.0
 41
0.0
173
1
 91
-1056964608
 92
-2
290
1
 42
2.0
291
1
 43
8.0
  3
Standard
 44
4.0
300

342
29
174
1
175
1
176
0
178
1
 93
-1056964608
 45
4.0
292
0
297
0
 46
4.0
 94
-1056964608
 47
1.0
 49
1.0
140
1.0
294
1
141
0.0
177
0
142
1.0
295
0
296
0
143
3.75
271
0
272
9
273
9
  0
DICTIONARY
  5
2D
330
A
100
AcDbDictionary
280
1
281
1
  3
CREATED_BY_EZDXF
350
2E
  3
WRITTEN_BY_EZDXF
350
36
  0
DICTIONARYVAR
  5
2E
330
2D
100
DictionaryVariables
280
0
  1
1.4.3 @ 2026-04-08T00:40:18.051423+00:00
  0
DICTIONARYVAR
  5
36
330
2D
100
DictionaryVariables
280
0
  1
1.4.3 @ 2026-04-08T00:40:18.052485+00:00
  0
ENDSEC
  0
EOF
