  0
SECTION
  2
HEADER
  9
$ACADVER
  1
AC1024
  9
$ACADMAINTVER
 70
6
  9
$DWGCODEPAGE
  3
ANSI_1252
  9
$LASTSAVEDBY
  1
ezdxf
  9
$INSBASE
 10
0.0
 20
0.0
 30
0.0
  9
$EXTMIN
 10
1e+20
 20
1e+20
 30
1e+20
  9
$EXTMAX
 10
-1e+20
 20
-1e+20
 30
-1e+20
  9
$LIMMIN
 10
0.0
 20
0.0
  9
$LIMMAX
 10
420.0
 20
297.0
  9
$ORTHOMODE
 70
0
  9
$REGENMODE
 70
1
  9
$FILLMODE
 70
1
  9
$QTEXTMODE
 70
0
  9
$MIRRTEXT
 70
1
  9
$LTSCALE
 40
1.0
  9
$ATTMODE
 70
1
  9
$TEXTSIZE
 40
2.5
  9
$TRACEWID
 40
1.0
  9
$TEXTSTYLE
  7
Standard
  9
$CLAYER
  8
0
  9
$CELTYPE
  6
ByLayer
  9
$CECOLOR
 62
256
  9
$CELTSCALE
 40
1.0
  9
$DISPSILH
 70
0
  9
$DIMSCALE
 40
1.0
  9
$DIMASZ
 40
2.5
  9
$DIMEXO
 40
0.625
  9
$DIMDLI
 40
3.75
  9
$DIMRND
 40
0.0
  9
$DIMDLE
 40
0.0
  9
$DIMEXE
 40
1.25
  9
$DIMTP
 40
0.0
  9
$DIMTM
 40
0.0
  9
$DIMTXT
 40
2.5
  9
$DIMCEN
 40
2.5
  9
$DIMTSZ
 40
0.0
  9
$DIMTOL
 70
0
  9
$DIMLIM
 70
0
  9
$DIMTIH
 70
0
  9
$DIMTOH
 70
0
  9
$DIMSE1
 70
0
  9
$DIMSE2
 70
0
  9
$DIMTAD
 70
1
  9
$DIMZIN
 70
8
  9
$DIMBLK
  1

  9
$DIMASO
 70
1
  9
$DIMSHO
 70
1
  9
$DIMPOST
  1

  9
$DIMAPOST
  1

  9
$DIMALT
 70
0
  9
$DIMALTD
 70
3
  9
$DIMALTF
 40
0.03937007874
  9
$DIMLFAC
 40
1.0
  9
$DIMTOFL
 70
1
  9
$DIMTVP
 40
0.0
  9
$DIMTIX
 70
0
  9
$DIMSOXD
 70
0
  9
$DIMSAH
 70
0
  9
$DIMBLK1
  1

  9
$DIMBLK2
  1

  9
$DIMSTYLE
  2
ISO-25
  9
$DIMCLRD
 70
0
  9
$DIMCLRE
 70
0
  9
$DIMCLRT
 70
0
  9
$DIMTFAC
 40
1.0
  9
$DIMGAP
 40
0.625
  9
$DIMJUST
 70
0
  9
$DIMSD1
 70
0
  9
$DIMSD2
 70
0
  9
$DIMTOLJ
 70
0
  9
$DIMTZIN
 70
8
  9
$DIMALTZ
 70
0
  9
$DIMALTTZ
 70
0
  9
$DIMUPT
 70
0
  9
$DIMDEC
 70
2
  9
$DIMTDEC
 70
2
  9
$DIMALTU
 70
2
  9
$DIMALTTD
 70
3
  9
$DIMTXSTY
  7
Standard
  9
$DIMAUNIT
 70
0
  9
$DIMADEC
 70
0
  9
$DIMALTRND
 40
0.0
  9
$DIMAZIN
 70
0
  9
$DIMDSEP
 70
44
  9
$DIMATFIT
 70
3
  9
$DIMFRAC
 70
0
  9
$DIMLDRBLK
  1

  9
$DIMLUNIT
 70
2
  9
$DIMLWD
 70
-2
  9
$DIMLWE
 70
-2
  9
$DIMTMOVE
 70
0
  9
$DIMFXL
 40
1.0
  9
$DIMFXLON
 70
0
  9
$DIMJOGANG
 40
0.785398163397
  9
$DIMTFILL
 70
0
  9
$DIMTFILLCLR
 70
0
  9
$DIMARCSYM
 70
0
  9
$DIMLTYPE
  6

  9
$DIMLTEX1
  6

  9
$DIMLTEX2
  6

  9
$DIMTXTDIRECTION
 70
0
  9
$LUNITS
 70
2
  9
$LUPREC
 70
4
  9
$SKETCHINC
 40
1.0
  9
$FILLETRAD
 40
10.0
  9
$AUNITS
 70
0
  9
$AUPREC
 70
2
  9
$MENU
  1
.
  9
$ELEVATION
 40
0.0
  9
$PELEVATION
 40
0.0
  9
$THICKNESS
 40
0.0
  9
$LIMCHECK
 70
0
  9
$CHAMFERA
 40
0.0
  9
$CHAMFERB
 40
0.0
  9
$CHAMFERC
 40
0.0
  9
$CHAMFERD
 40
0.0
  9
$SKPOLY
 70
0
  9
$TDCREATE
 40
2461142.7371412036
  9
$TDUCREATE
 40
2458532.153996898
  9
$TDUPDATE
 40
2461142.7371412036
  9
$TDUUPDATE
 40
2458532.1544311
  9
$TDINDWG
 40
0.0
  9
$TDUSRTIMER
 40
0.0
  9
$USRTIMER
 70
1
  9
$ANGBASE
 50
0.0
  9
$ANGDIR
 70
0
  9
$PDMODE
 70
0
  9
$PDSIZE
 40
0.0
  9
$PLINEWID
 40
0.0
  9
$SPLFRAME
 70
0
  9
$SPLINETYPE
 70
6
  9
$SPLINESEGS
 70
8
  9
$HANDSEED
  5
39
  9
$SURFTAB1
 70
6
  9
$SURFTAB2
 70
6
  9
$SURFTYPE
 70
6
  9
$SURFU
 70
6
  9
$SURFV
 70
6
  9
$UCSBASE
  2

  9
$UCSNAME
  2

  9
$UCSORG
 10
0.0
 20
0.0
 30
0.0
  9
$UCSXDIR
 10
1.0
 20
0.0
 30
0.0
  9
$UCSYDIR
 10
0.0
 20
1.0
 30
0.0
  9
$UCSORTHOREF
  2

  9
$UCSORTHOVIEW
 70
0
  9
$UCSORGTOP
 10
0.0
 20
0.0
 30
0.0
  9
$UCSORGBOTTOM
 10
0.0
 20
0.0
 30
0.0
  9
$UCSORGLEFT
 10
0.0
 20
0.0
 30
0.0
  9
$UCSORGRIGHT
 10
0.0
 20
0.0
 30
0.0
  9
$UCSORGFRONT
 10
0.0
 20
0.0
 30
0.0
  9
$UCSORGBACK
 10
0.0
 20
0.0
 30
0.0
  9
$PUCSBASE
  2

  9
$PUCSNAME
  2

  9
$PUCSORG
 10
0.0
 20
0.0
 30
0.0
  9
$PUCSXDIR
 10
1.0
 20
0.0
 30
0.0
  9
$PUCSYDIR
 10
0.0
 20
1.0
 30
0.0
  9
$PUCSORTHOREF
  2

  9
$PUCSORTHOVIEW
 70
0
  9
$PUCSORGTOP
 10
0.0
 20
0.0
 30
0.0
  9
$PUCSORGBOTTOM
 10
0.0
 20
0.0
 30
0.0
  9
$PUCSORGLEFT
 10
0.0
 20
0.0
 30
0.0
  9
$PUCSORGRIGHT
 10
0.0
 20
0.0
 30
0.0
  9
$PUCSORGFRONT
 10
0.0
 20
0.0
 30
0.0
  9
$PUCSORGBACK
 10
0.0
 20
0.0
 30
0.0
  9
$USERI1
 70
0
  9
$USERI2
 70
0
  9
$USERI3
 70
0
  9
$USERI4
 70
0
  9
$USERI5
 70
0
  9
$USERR1
 40
0.0
  9
$USERR2
 40
0.0
  9
$USERR3
 40
0.0
  9
$USERR4
 40
0.0
  9
$USERR5
 40
0.0
  9
$WORLDVIEW
 70
1
  9
$SHADEDGE
 70
3
  9
$SHADEDIF
 70
70
  9
$TILEMODE
 70
1
  9
$MAXACTVP
 70
64
  9
$PINSBASE
 10
0.0
 20
0.0
 30
0.0
  9
$PLIMCHECK
 70
0
  9
$PEXTMIN
 10
1e+20
 20
1e+20
 30
1e+20
  9
$PEXTMAX
 10
-1e+20
 20
-1e+20
 30
-1e+20
  9
$PLIMMIN
 10
0.0
 20
0.0
  9
$PLIMMAX
 10
420.0
 20
297.0
  9
$UNITMODE
 70
0
  9
$VISRETAIN
 70
1
  9
$PLINEGEN
 70
0
  9
$PSLTSCALE
 70
1
  9
$TREEDEPTH
 70
3020
  9
$CMLSTYLE
  2
Standard
  9
$CMLJUST
 70
0
  9
$CMLSCALE
 40
20.0
  9
$PROXYGRAPHICS
 70
1
  9
$MEASUREMENT
 70
1
  9
$CELWEIGHT
370
-1
  9
$ENDCAPS
280
0
  9
$JOINSTYLE
280
0
  9
$LWDISPLAY
290
0
  9
$INSUNITS
 70
4
  9
$HYPERLINKBASE
  1

  9
$STYLESHEET
  1

  9
$XEDIT
290
1
  9
$CEPSNTYPE
380
0
  9
$PSTYLEMODE
290
1
  9
$FINGERPRINTGUID
  2
{AAA476E9-9BE1-4C30-AA7B-3E1A7FE4451F}
  9
$VERSIONGUID
  2
{E02E97ED-8F7F-403A-920C-A4DD170D3404}
  9
$EXTNAMES
290
1
  9
$PSVPSCALE
 40
0.0
  9
$OLESTARTUP
290
0
  9
$SORTENTS
280
127
  9
$INDEXCTL
280
0
  9
$HIDETEXT
280
1
  9
$XCLIPFRAME
280
1
  9
$HALOGAP
280
0
  9
$OBSCOLOR
 70
257
  9
$OBSLTYPE
280
0
  9
$INTERSECTIONDISPLAY
280
0
  9
$INTERSECTIONCOLOR
 70
257
  9
$DIMASSOC
280
2
  9
$PROJECTNAME
  1

  9
$CAMERADISPLAY
290
0
  9
$LENSLENGTH
 40
50.0
  9
$CAMERAHEIGHT
 40
0.0
  9
$STEPSPERSEC
 40
24.0
  9
$STEPSIZE
 40
100.0
  9
$3DDWFPREC
 40
2.0
  9
$PSOLWIDTH
 40
0.005
  9
$PSOLHEIGHT
 40
0.08
  9
$LOFTANG1
 40
1.570796326795
  9
$LOFTANG2
 40
1.570796326795
  9
$LOFTMAG1
 40
0.0
  9
$LOFTMAG2
 40
0.0
  9
$LOFTPARAM
 70
7
  9
$LOFTNORMALS
280
1
  9
$LATITUDE
 40
37.795
  9
$LONGITUDE
 40
-122.394
  9
$NORTHDIRECTION
 40
0.0
  9
$TIMEZONE
 70
-8000
  9
$LIGHTGLYPHDISPLAY
280
1
  9
$TILEMODELIGHTSYNCH
280
1
  9
$CMATERIAL
347
20
  9
$SOLIDHIST
280
0
  9
$SHOWHIST
280
1
  9
$DWFFRAME
280
2
  9
$DGNFRAME
280
2
  9
$REALWORLDSCALE
290
1
  9
$INTERFERECOLOR
 62
256
  9
$CSHADOW
280
0
  9
$SHADOWPLANELOCATION
 40
0.0
  0
ENDSEC
  0
SECTION
  2
CLASSES
  0
CLASS
  1
ACDBDICTIONARYWDFLT
  2
AcDbDictionaryWithDefault
  3
ObjectDBX Classes
 90
0
 91
0
280
0
281
0
  0
CLASS
  1
SUN
  2
AcDbSun
  3
SCENEOE
 90
1153
 91
0
280
0
281
0
  0
CLASS
  1
VISUALSTYLE
  2
AcDbVisualStyle
  3
ObjectDBX Classes
 90
4095
 91
0
280
0
281
0
  0
CLASS
  1
MATERIAL
  2
AcDbMaterial
  3
ObjectDBX Classes
 90
1153
 91
0
280
0
281
0
  0
CLASS
  1
SCALE
  2
AcDbScale
  3
ObjectDBX Classes
 90
1153
 91
0
280
0
281
0
  0
CLASS
  1
TABLESTYLE
  2
AcDbTableStyle
  3
ObjectDBX Classes
 90
4095
 91
0
280
0
281
0
  0
CLASS
  1
MLEADERSTYLE
  2
AcDbMLeaderStyle
  3
ACDB_MLEADERSTYLE_CLASS
 90
4095
 91
0
280
0
281
0
  0
CLASS
  1
DICTIONARYVAR
  2
AcDbDictionaryVar
  3
ObjectDBX Classes
 90
0
 91
0
280
0
281
0
  0
CLASS
  1
CELLSTYLEMAP
  2
AcDbCellStyleMap
  3
ObjectDBX Classes
 90
1152
 91
0
280
0
281
0
  0
CLASS
  1
MENTALRAYRENDERSETTINGS
  2
AcDbMentalRayRenderSettings
  3
SCENEOE
 90
1024
 91
0
280
0
281
0
  0
CLASS
  1
ACDBDETAILVIEWSTYLE
  2
AcDbDetailViewStyle
  3
ObjectDBX Classes
 90
1025
 91
0
280
0
281
0
  0
CLASS
  1
ACDBSECTIONVIEWSTYLE
  2
AcDbSectionViewStyle
  3
ObjectDBX Classes
 90
1025
 91
0
280
0
281
0
  0
CLASS
  1
RASTERVARIABLES
  2
AcDbRasterVariables
  3
ISM
 90
0
 91
0
280
0
281
0
  0
CLASS
  1
ACDBPLACEHOLDER
  2
AcDbPlaceHolder
  3
ObjectDBX Classes
 90
0
 91
0
280
0
281
0
  0
CLASS
  1
LAYOUT
  2
AcDbLayout
  3
ObjectDBX Classes
 90
0
 91
0
280
0
281
0
  0
ENDSEC
  0
SECTION
  2
TABLES
  0
TABLE
  2
VPORT
  5
8
330
0
100
AcDbSymbolTable
 70
1
  0
VPORT
  5
23
330
8
100
AcDbSymbolTableRecord
100
AcDbViewportTableRecord
  2
*Active
 70
0
 10
0.0
 20
0.0
 11
1.0
 21
1.0
 12
0.0
 22
0.0
 13
0.0
 23
0.0
 14
0.5
 24
0.5
 15
0.5
 25
0.5
 16
0.0
 26
0.0
 36
1.0
 17
0.0
 27
0.0
 37
0.0
 40
1000.0
 41
1.34
 42
50.0
 43
0.0
 44
0.0
 50
0.0
 51
0.0
 71
0
 72
1000
 73
1
 74
3
 75
0
 76
0
 77
0
 78
0
281
0
 65
0
146
0.0
  0
ENDTAB
  0
TABLE
  2
LTYPE
  5
2
330
0
100
AcDbSymbolTable
 70
3
  0
LTYPE
  5
24
330
2
100
AcDbSymbolTableRecord
100
AcDbLinetypeTableRecord
  2
ByBlock
 70
0
  3

 72
65
 73
0
 40
0.0
  0
LTYPE
  5
25
330
2
100
AcDbSymbolTableRecord
100
AcDbLinetypeTableRecord
  2
ByLayer
 70
0
  3

 72
65
 73
0
 40
0.0
  0
LTYPE
  5
26
330
2
100
AcDbSymbolTableRecord
100
AcDbLinetypeTableRecord
  2
Continuous
 70
0
  3

 72
65
 73
0
 40
0.0
  0
ENDTAB
  0
TABLE
  2
LAYER
  5
1
330
0
100
AcDbSymbolTable
 70
2
  0
LAYER
  5
27
330
1
100
AcDbSymbolTableRecord
100
AcDbLayerTableRecord
  2
0
 70
0
 62
7
  6
Continuous
370
-3
390
13
347
21
  0
LAYER
  5
28
330
1
100
AcDbSymbolTableRecord
100
AcDbLayerTableRecord
  2
Defpoints
 70
0
 62
7
  6
Continuous
290
0
370
-3
390
13
347
21
  0
ENDTAB
  0
TABLE
  2
STYLE
  5
5
330
0
100
AcDbSymbolTable
 70
1
  0
STYLE
  5
29
330
5
100
AcDbSymbolTableRecord
100
AcDbTextStyleTableRecord
  2
Standard
 70
0
 40
0.0
 41
1.0
 50
0.0
 71
0
 42
2.5
  3
txt
  4

  0
ENDTAB
  0
TABLE
  2
VIEW
  5
7
330
0
100
AcDbSymbolTable
 70
0
  0
ENDTAB
  0
TABLE
  2
UCS
  5
6
330
0
100
AcDbSymbolTable
 70
0
  0
ENDTAB
  0
TABLE
  2
APPID
  5
3
330
0
100
AcDbSymbolTable
 70
3
  0
APPID
  5
2A
330
3
100
AcDbSymbolTableRecord
100
AcDbRegAppTableRecord
  2
ACAD
 70
0
  0
APPID
  5
36
330
3
100
AcDbSymbolTableRecord
100
AcDbRegAppTableRecord
  2
HATCHBACKGROUNDCOLOR
 70
0
  0
APPID
  5
37
330
3
100
AcDbSymbolTableRecord
100
AcDbRegAppTableRecord
  2
EZDXF
 70
0
  0
ENDTAB
  0
TABLE
  2
DIMSTYLE
  5
4
330
0
100
AcDbSymbolTable
 70
1
100
AcDbDimStyleTable
  0
DIMSTYLE
105
2B
330
4
100
AcDbSymbolTableRecord
100
AcDbDimStyleTableRecord
  2
Standard
 70
0
 40
1.0
 41
2.5
 42
0.625
 43
3.75
 44
1.25
 45
0.0
 46
0.0
 47
0.0
 48
0.0
 49
2.5
140
2.5
141
2.5
142
0.0
143
0.03937007874
144
1.0
145
0.0
146
1.0
147
0.625
148
0.0
 69
0
 70
0
 71
0
 72
0
 73
0
 74
0
 75
0
 76
0
 77
1
 78
8
 79
3
170
0
171
3
172
1
173
0
174
0
175
0
176
0
177
0
178
0
179
2
271
2
272
2
273
2
274
3
275
0
276
0
277
2
278
44
279
0
280
0
281
0
282
0
283
0
284
8
285
0
286
0
288
0
289
3
290
0
371
-2
372
-2
  0
ENDTAB
  0
TABLE
  2
BLOCK_RECORD
  5
9
330
0
100
AcDbSymbolTable
 70
2
  0
BLOCK_RECORD
  5
17
330
9
100
AcDbSymbolTableRecord
100
AcDbBlockTableRecord
  2
*Model_Space
340
1A
 70
0
280
1
281
0
  0
BLOCK_RECORD
  5
1B
330
9
100
AcDbSymbolTableRecord
100
AcDbBlockTableRecord
  2
*Paper_Space
340
1E
 70
0
280
1
281
0
  0
ENDTAB
  0
ENDSEC
  0
SECTION
  2
BLOCKS
  0
BLOCK
  5
18
330
17
100
AcDbEntity
  8
0
100
AcDbBlockBegin
  2
*Model_Space
 70
0
 10
0.0
 20
0.0
 30
0.0
  3
*Model_Space
  1

  0
ENDBLK
  5
19
330
17
100
AcDbEntity
  8
0
100
AcDbBlockEnd
  0
BLOCK
  5
1C
330
1B
100
AcDbEntity
  8
0
100
AcDbBlockBegin
  2
*Paper_Space
 70
0
 10
0.0
 20
0.0
 30
0.0
  3
*Paper_Space
  1

  0
ENDBLK
  5
1D
330
1B
100
AcDbEntity
  8
0
100
AcDbBlockEnd
  0
ENDSEC
  0
SECTION
  2
ENTITIES
  0
LWPOLYLINE
  5
2F
330
17
100
AcDbEntity
  8
0
100
AcDbPolyline
 90
672
 70
1
 10
204.747622
 20
-89.66403199999999
 10
204.80400999999998
 20
-89.4969
 10
204.860906
 20
-89.326466
 10
204.918056
 20
-89.15272999999999
 10
204.97495200000003
 20
-88.97619999999999
 10
205.03108600000002
 20
-88.79713
 10
205.086204
 20
-88.61577399999999
 10
205.139798
 20
-88.432386
 10
205.19161400000002
 20
-88.247474
 10
205.24114400000002
 20
-88.061038
 10
205.288134
 20
-87.873586
 10
205.332076
 20
-87.685626
 10
205.372716
 20
-87.497158
 10
205.409292
 20
-87.30868999999998
 10
205.44180400000002
 20
-87.120476
 10
205.46974400000002
 20
-86.93277
 10
205.49260400000003
 20
-86.74582600000001
 10
205.50987600000002
 20
-86.560152
 10
205.521306
 20
-86.375748
 10
205.52664
 20
-86.193122
 10
205.52537
 20
-86.01278200000002
 10
205.516988
 20
-85.834728
 10
205.50098599999998
 20
-85.659468
 10
205.477364
 20
-85.487256
 10
205.44536000000002
 20
-85.318346
 10
205.40472000000003
 20
-85.152992
 10
205.35519
 20
-84.991702
 10
205.29600800000003
 20
-84.834476
 10
205.22717400000002
 20
-84.681822
 10
205.14792600000004
 20
-84.53424799999999
 10
205.05801000000002
 20
-84.39175399999999
 10
204.957172
 20
-84.254848
 10
204.844904
 20
-84.12353
 10
204.73212800000002
 20
-84.00846800000001
 10
204.61351000000002
 20
-83.900264
 10
204.48905000000002
 20
-83.79891800000001
 10
204.35900200000003
 20
-83.703922
 10
204.22387400000002
 20
-83.61527600000001
 10
204.08366600000002
 20
-83.53272600000001
 10
203.938886
 20
-83.456018
 10
203.78978800000002
 20
-83.385152
 10
203.636626
 20
-83.31962000000001
 10
203.47990800000002
 20
-83.259422
 10
203.31963400000004
 20
-83.20405
 10
203.156312
 20
-83.153504
 10
202.99019600000003
 20
-83.10753
 10
202.82154000000003
 20
-83.06587400000001
 10
202.65059800000003
 20
-83.028536
 10
202.47787800000003
 20
-82.995008
 10
202.30338000000003
 20
-82.96529
 10
202.12761200000003
 20
-82.939128
 10
201.95082800000003
 20
-82.91601399999999
 10
201.77328200000005
 20
-82.89594799999999
 10
201.59548200000003
 20
-82.87893
 10
201.41742800000003
 20
-82.86445199999999
 10
201.239628
 20
-82.85251399999999
 10
201.06208200000003
 20
-82.84260799999998
 10
200.885298
 20
-82.83473399999998
 10
200.709784
 20
-82.82863799999998
 10
200.53554
 20
-82.82406599999999
 10
200.36282
 20
-82.820764
 10
200.19213200000002
 20
-82.818732
 10
200.02373
 20
-82.817462
 10
199.857868
 20
-82.816954
 10
199.6948
 20
-82.816954
 10
199.32243599999998
 20
-82.816954
 10
198.95007199999998
 20
-82.816954
 10
198.57770799999997
 20
-82.816954
 10
198.20534399999997
 20
-82.816954
 10
197.83297999999996
 20
-82.816954
 10
197.46061599999996
 20
-82.816954
 10
197.08825199999998
 20
-82.816954
 10
196.71588799999998
 20
-82.816954
 10
196.34352399999997
 20
-82.816954
 10
195.97115999999997
 20
-82.816954
 10
195.59879599999996
 20
-82.816954
 10
195.22643199999996
 20
-82.816954
 10
194.85406799999996
 20
-82.816954
 10
194.48170399999995
 20
-82.816954
 10
194.10933999999995
 20
-82.816954
 10
193.73697599999994
 20
-82.816954
 10
193.36461199999994
 20
-82.816954
 10
192.99224799999996
 20
-82.816954
 10
192.61988399999996
 20
-82.816954
 10
192.24751999999995
 20
-82.816954
 10
191.87515599999995
 20
-82.816954
 10
191.50279199999994
 20
-82.816954
 10
191.13042799999994
 20
-82.816954
 10
190.75806399999993
 20
-82.816954
 10
190.38569999999993
 20
-82.816954
 10
190.01333599999992
 20
-82.816954
 10
189.64097199999992
 20
-82.816954
 10
189.26860799999992
 20
-82.816954
 10
188.89624399999994
 20
-82.816954
 10
188.52387999999993
 20
-82.816954
 10
188.15151599999993
 20
-82.816954
 10
187.77915199999993
 20
-82.816954
 10
187.67907599999992
 20
-82.818224
 10
187.5792539999999
 20
-82.82203399999999
 10
187.4796859999999
 20
-82.82812999999999
 10
187.3803719999999
 20
-82.836766
 10
187.2815659999999
 20
-82.84794199999999
 10
187.1832679999999
 20
-82.861404
 10
187.0854779999999
 20
-82.87740599999998
 10
186.9881959999999
 20
-82.89594799999998
 10
186.89142199999992
 20
-82.91677599999997
 10
186.79540999999992
 20
-82.93988999999998
 10
186.7001599999999
 20
-82.96554399999998
 10
186.6056719999999
 20
-82.99348399999998
 10
186.5119459999999
 20
-83.02371
 10
186.41898199999991
 20
-83.05647599999999
 10
186.3270339999999
 20
-83.09152799999998
 10
186.23610199999993
 20
-83.12886599999999
 10
186.14618599999991
 20
-83.16848999999999
 10
186.05728599999992
 20
-83.21039999999999
 10
185.96940199999992
 20
-83.25459599999999
 10
185.88278799999992
 20
-83.30107799999999
 10
185.7974439999999
 20
-83.34984599999999
 10
185.7133699999999
 20
-83.4009
 10
185.6305659999999
 20
-83.45423999999998
 10
185.5490319999999
 20
-83.50961199999999
 10
185.46902199999988
 20
-83.56726999999998
 10
185.39053599999988
 20
-83.62721399999998
 10
185.3135739999999
 20
-83.68919
 10
185.23813599999988
 20
-83.75345199999998
 10
185.1644759999999
 20
-83.82
 10
185.0923399999999
 20
-83.88857999999998
 10
185.0219819999999
 20
-83.95919199999999
 10
184.9534019999999
 20
-84.03208999999998
 10
184.90742799999987
 20
-84.08263599999998
 10
184.8619619999999
 20
-84.13368999999999
 10
184.81700399999988
 20
-84.184998
 10
184.77229999999986
 20
-84.236814
 10
184.7281039999999
 20
-84.28888399999998
 10
184.68441599999986
 20
-84.341208
 10
184.64123599999988
 20
-84.39378599999999
 10
184.59881799999988
 20
-84.446618
 10
184.55690799999988
 20
-84.49945000000001
 10
184.51550599999987
 20
-84.552536
 10
184.47486599999988
 20
-84.60562200000001
 10
184.43473399999988
 20
-84.658708
 10
184.3953639999999
 20
-84.712048
 10
184.3565019999999
 20
-84.765388
 10
184.31840199999988
 20
-84.818728
 10
184.28106399999987
 20
-84.87181399999999
 10
184.24448799999988
 20
-84.9249
 10
184.2086739999999
 20
-84.977732
 10
184.17362199999988
 20
-85.03056400000001
 10
184.13933199999988
 20
-85.08314200000001
 10
184.1058039999999
 20
-85.13546600000001
 10
184.07303799999988
 20
-85.18753600000001
 10
184.0412879999999
 20
-85.23935200000001
 10
184.0102999999999
 20
-85.29066
 10
183.98032799999987
 20
-85.34171400000001
 10
183.9511179999999
 20
-85.39226000000002
 10
183.92292399999988
 20
-85.442552
 10
183.8957459999999
 20
-85.49233600000002
 10
183.86958399999992
 20
-85.54161200000001
 10
183.84443799999988
 20
-85.59038000000002
 10
183.8203079999999
 20
-85.63864000000002
 10
183.79719399999988
 20
-85.68613800000003
 10
183.7469019999999
 20
-85.79586600000003
 10
183.7009279999999
 20
-85.90635600000003
 10
183.65876399999988
 20
-86.01760800000002
 10
183.62066399999986
 20
-86.12962200000003
 10
183.58637399999986
 20
-86.24239800000002
 10
183.55563999999987
 20
-86.35568200000003
 10
183.52846199999988
 20
-86.46972800000003
 10
183.5048399999999
 20
-86.58428200000004
 10
183.4845199999999
 20
-86.69934400000004
 10
183.46750199999988
 20
-86.81491400000003
 10
183.4535319999999
 20
-86.93099200000003
 10
183.4426099999999
 20
-87.04757800000003
 10
183.4347359999999
 20
-87.16467200000004
 10
183.4296559999999
 20
-87.28202000000003
 10
183.4273699999999
 20
-87.39962200000004
 10
183.4276239999999
 20
-87.51773200000002
 10
183.4304179999999
 20
-87.63609600000002
 10
183.4357519999999
 20
-87.75471400000002
 10
183.44337199999987
 20
-87.87333200000002
 10
183.45327799999987
 20
-87.99220400000003
 10
183.46521599999988
 20
-88.11107600000003
 10
183.47918599999986
 20
-88.23020200000003
 10
183.49493399999986
 20
-88.34932800000003
 10
183.51245999999986
 20
-88.46845400000002
 10
183.53176399999987
 20
-88.58758000000003
 10
183.55259199999986
 20
-88.70670600000003
 10
183.57468999999986
 20
-88.82557800000002
 10
183.59831199999985
 20
-88.94445000000003
 10
183.62320399999984
 20
-89.06306800000003
 10
183.64911199999983
 20
-89.18143200000003
 10
183.67603599999984
 20
-89.29979600000003
 10
183.70397599999984
 20
-89.41790600000003
 10
183.79846399999983
 20
-89.81643200000003
 10
183.88863399999983
 20
-90.20784600000003
 10
183.9744859999998
 20
-90.59265600000003
 10
184.05601999999982
 20
-90.97111600000002
 10
184.13348999999982
 20
-91.34348000000003
 10
184.2068959999998
 20
-91.71025600000003
 10
184.27598399999982
 20
-92.07169800000004
 10
184.34100799999982
 20
-92.42806000000004
 10
184.4019679999998
 20
-92.77985000000004
 10
184.45911799999982
 20
-93.12757600000005
 10
184.5122039999998
 20
-93.47123800000004
 10
184.5614799999998
 20
-93.81159800000005
 10
184.6069459999998
 20
-94.14865600000005
 10
184.64860199999978
 20
-94.48292000000004
 10
184.68644799999979
 20
-94.81489800000004
 10
184.7204839999998
 20
-95.14484400000003
 10
184.75096399999978
 20
-95.47301200000003
 10
184.7778879999998
 20
-95.79991000000003
 10
184.80100199999978
 20
-96.12579200000002
 10
184.82081399999979
 20
-96.45116600000003
 10
184.83706999999978
 20
-96.77628600000001
 10
184.84976999999978
 20
-97.10140600000001
 10
184.85916799999978
 20
-97.427034
 10
184.86500999999978
 20
-97.75342400000001
 10
184.8675499999998
 20
-98.08108400000002
 10
184.86678799999976
 20
-98.41026800000002
 10
184.86297799999977
 20
-98.74123000000002
 10
184.85586599999976
 20
-99.07447800000001
 10
184.84570599999978
 20
-99.41026600000002
 10
184.83224399999978
 20
-99.74910200000002
 10
184.81573399999976
 20
-100.09124000000001
 10
184.79617599999978
 20
-100.43718800000002
 10
184.78347599999978
 20
-100.63734000000002
 10
184.76925199999977
 20
-100.83723800000001
 10
184.75350399999977
 20
-101.03713600000002
 10
184.73648599999976
 20
-101.23678000000001
 10
184.71794399999976
 20
-101.43642400000002
 10
184.6981319999998
 20
-101.63581400000002
 10
184.6767959999998
 20
-101.83520400000003
 10
184.65418999999977
 20
-102.03434000000003
 10
184.63005999999976
 20
-102.23322200000003
 10
184.60465999999977
 20
-102.43185000000003
 10
184.57773599999976
 20
-102.63047800000002
 10
184.54954199999978
 20
-102.82885200000003
 10
184.51982399999977
 20
-103.02697200000001
 10
184.4888359999998
 20
-103.22483800000002
 10
184.4565779999998
 20
-103.42245000000001
 10
184.42279599999978
 20
-103.61980800000002
 10
184.38774399999977
 20
-103.81716600000001
 10
184.3514219999998
 20
-104.01427000000001
 10
184.31357599999978
 20
-104.21112000000001
 10
184.27445999999978
 20
-104.40771600000001
 10
184.23407399999977
 20
-104.60405800000001
 10
184.19241799999978
 20
-104.80014600000001
 10
184.14949199999978
 20
-104.99598000000002
 10
184.1050419999998
 20
-105.19130600000001
 10
184.0593219999998
 20
-105.38637800000001
 10
184.01233199999982
 20
-105.581196
 10
183.96407199999982
 20
-105.77576000000002
 10
183.91454199999978
 20
-105.97007
 10
183.86374199999977
 20
-106.16412600000001
 10
183.81167199999976
 20
-106.35767400000002
 10
183.75833199999977
 20
-106.55096800000003
 10
183.70372199999974
 20
-106.74400800000002
 10
183.64911199999975
 20
-106.93425400000002
 10
183.59450199999975
 20
-107.12373800000002
 10
183.53963799999974
 20
-107.31271400000003
 10
183.48477399999973
 20
-107.50092800000002
 10
183.42990999999972
 20
-107.68863400000002
 10
183.37504599999974
 20
-107.87583200000002
 10
183.31992799999975
 20
-108.06252200000003
 10
183.26455599999974
 20
-108.24870400000003
 10
183.20918399999977
 20
-108.43463200000004
 10
183.15355799999975
 20
-108.62005200000004
 10
183.09767799999975
 20
-108.80521800000004
 10
183.04154399999973
 20
-108.99013000000004
 10
182.98515599999973
 20
-109.17478800000004
 10
182.92851399999975
 20
-109.35919200000004
 10
182.87161799999973
 20
-109.54359600000004
 10
182.81446799999972
 20
-109.72774600000004
 10
182.75706399999973
 20
-109.91189600000004
 10
182.69940599999973
 20
-110.09604600000004
 10
182.64123999999973
 20
-110.28019600000006
 10
182.5828199999997
 20
-110.46434600000006
 10
182.52389199999973
 20
-110.64875000000006
 10
182.46445599999973
 20
-110.83315400000006
 10
182.4047659999997
 20
-111.01781200000005
 10
182.34456799999973
 20
-111.20272400000006
 10
182.28386199999971
 20
-111.38789000000006
 10
182.22264799999974
 20
-111.57331000000005
 10
182.1609259999997
 20
-111.75923800000007
 10
182.0986959999997
 20
-111.94542000000007
 10
182.0359579999997
 20
-112.13211000000007
 10
181.97245799999973
 20
-112.31930800000008
 10
181.90844999999973
 20
-112.50701400000007
 10
181.84393399999973
 20
-112.69522800000006
 10
181.52973599999973
 20
-113.60607200000007
 10
181.22468199999972
 20
-114.48643600000007
 10
180.92800999999972
 20
-115.33809800000007
 10
180.63921199999973
 20
-116.16258200000007
 10
180.35803399999975
 20
-116.96166600000006
 10
180.08371399999973
 20
-117.73662000000007
 10
179.81574399999974
 20
-118.48896800000007
 10
179.55361599999975
 20
-119.22048800000006
 10
179.29682199999974
 20
-119.93270400000006
 10
179.04510799999974
 20
-120.62714000000005
 10
178.79745799999975
 20
-121.30532000000005
 10
178.55361799999974
 20
-121.96876800000007
 10
178.31307999999973
 20
-122.61900800000006
 10
178.07533599999974
 20
-123.25781800000006
 10
177.83987799999971
 20
-123.88646800000006
 10
177.6059439999997
 20
-124.50673600000006
 10
177.3732799999997
 20
-125.12014600000008
 10
177.1411239999997
 20
-125.72822200000007
 10
176.9092219999997
 20
-126.33248800000008
 10
176.6768119999997
 20
-126.93472200000008
 10
176.44338599999972
 20
-127.53619400000007
 10
176.2086899999997
 20
-128.13868200000007
 10
175.9719619999997
 20
-128.74371000000008
 10
175.73269399999973
 20
-129.35280200000008
 10
175.49037799999974
 20
-129.96748200000008
 10
175.24450599999975
 20
-130.58927400000007
 10
174.99456999999973
 20
-131.21970200000007
 10
174.74006199999974
 20
-131.8605440000001
 10
174.48047399999973
 20
-132.5133240000001
 10
174.21504399999972
 20
-133.1793120000001
 10
173.94351799999976
 20
-133.8602860000001
 10
173.66538799999975
 20
-134.5577700000001
 10
173.62957399999974
 20
-134.6497180000001
 10
173.59553799999975
 20
-134.74242800000007
 10
173.56327999999976
 20
-134.83564600000008
 10
173.53254599999977
 20
-134.9293720000001
 10
173.50358999999975
 20
-135.0236060000001
 10
173.47641199999975
 20
-135.11834800000008
 10
173.45101199999976
 20
-135.21359800000008
 10
173.42738999999978
 20
-135.30910200000008
 10
173.40579999999974
 20
-135.40511400000008
 10
173.38598799999977
 20
-135.5013800000001
 10
173.36795399999974
 20
-135.5979000000001
 10
173.35195199999976
 20
-135.69467400000008
 10
173.33772799999974
 20
-135.79170200000007
 10
173.32553599999974
 20
-135.88898400000008
 10
173.31512199999975
 20
-135.9865200000001
 10
173.30673999999973
 20
-136.0840560000001
 10
173.30038999999974
 20
-136.1818460000001
 10
173.29607199999973
 20
-136.2796360000001
 10
173.29378599999973
 20
-136.37742600000007
 10
173.29353199999971
 20
-136.47521600000007
 10
173.29530999999972
 20
-136.57300600000008
 10
173.2991199999997
 20
-136.67079600000008
 10
173.3049619999997
 20
-136.76833200000007
 10
173.31308999999973
 20
-136.8658680000001
 10
173.32324999999972
 20
-136.9631500000001
 10
173.3356959999997
 20
-137.0601780000001
 10
173.35017399999973
 20
-137.15695200000008
 10
173.36693799999972
 20
-137.25347200000007
 10
173.38598799999974
 20
-137.3497380000001
 10
173.4073239999997
 20
-137.4457500000001
 10
173.43094599999972
 20
-137.54150800000008
 10
173.4568539999997
 20
-137.63675800000007
 10
173.52441799999968
 20
-137.8524040000001
 10
173.6003639999997
 20
-138.05509600000008
 10
173.6844379999997
 20
-138.2450880000001
 10
173.7763859999997
 20
-138.4226340000001
 10
173.87569999999968
 20
-138.5882420000001
 10
173.98237999999967
 20
-138.7424200000001
 10
174.09591799999967
 20
-138.8854220000001
 10
174.21631399999967
 20
-139.01775600000008
 10
174.34305999999967
 20
-139.13993000000008
 10
174.4756479999997
 20
-139.2519440000001
 10
174.6140779999997
 20
-139.35456000000008
 10
174.75809599999968
 20
-139.4480320000001
 10
174.9071939999997
 20
-139.5328680000001
 10
175.06111799999968
 20
-139.6093220000001
 10
175.2196139999997
 20
-139.6776480000001
 10
175.38242799999966
 20
-139.7386080000001
 10
175.5493059999997
 20
-139.7924560000001
 10
175.7197399999997
 20
-139.8394460000001
 10
175.89347599999968
 20
-139.88008600000006
 10
176.0705139999997
 20
-139.91463000000007
 10
176.2503459999997
 20
-139.94358600000007
 10
176.43246399999967
 20
-139.9674620000001
 10
176.61686799999967
 20
-139.9865120000001
 10
176.80304999999967
 20
-140.0012440000001
 10
176.99100999999968
 20
-140.0119120000001
 10
177.18023999999969
 20
-140.01902400000012
 10
177.3704859999997
 20
-140.0228340000001
 10
177.56149399999967
 20
-140.02385000000012
 10
177.75275599999966
 20
-140.02258000000012
 10
177.9440179999997
 20
-140.0192780000001
 10
178.1352799999997
 20
-140.0141980000001
 10
178.32603399999968
 20
-140.0078480000001
 10
178.6729979999997
 20
-139.9959100000001
 10
179.0202159999997
 20
-139.9849880000001
 10
179.3676879999997
 20
-139.97482800000012
 10
179.7154139999997
 20
-139.9654300000001
 10
180.0631399999997
 20
-139.95679400000012
 10
180.4111199999997
 20
-139.94892000000013
 10
180.7590999999997
 20
-139.9415540000001
 10
181.1073339999997
 20
-139.93495000000013
 10
181.4555679999997
 20
-139.92885400000014
 10
181.8038019999997
 20
-139.92301200000014
 10
182.15228999999968
 20
-139.91767800000014
 10
182.50077799999968
 20
-139.91285200000013
 10
182.84926599999966
 20
-139.90828000000013
 10
183.19800799999967
 20
-139.90396200000012
 10
183.5467499999997
 20
-139.89989800000012
 10
183.8954919999997
 20
-139.89583400000015
 10
184.24423399999972
 20
-139.89202400000013
 10
184.5929759999997
 20
-139.88821400000015
 10
184.94171799999972
 20
-139.88440400000016
 10
185.29045999999974
 20
-139.88034000000016
 10
185.63920199999976
 20
-139.87627600000016
 10
185.98794399999977
 20
-139.87195800000015
 10
186.3366859999998
 20
-139.86738600000015
 10
186.68517399999976
 20
-139.86281400000013
 10
187.03366199999977
 20
-139.85773400000014
 10
187.38214999999974
 20
-139.85240000000016
 10
187.73038399999973
 20
-139.84655800000016
 10
188.07861799999975
 20
-139.84020800000016
 10
188.42685199999974
 20
-139.83335000000014
 10
188.77483199999975
 20
-139.82598400000015
 10
189.12281199999973
 20
-139.81785600000012
 10
189.47053799999975
 20
-139.80896600000014
 10
189.58382199999974
 20
-139.80515600000015
 10
189.69685199999975
 20
-139.79956800000014
 10
189.80962799999975
 20
-139.79220200000015
 10
189.92240399999974
 20
-139.78305800000015
 10
190.03492599999973
 20
-139.77213600000013
 10
190.14719399999973
 20
-139.75969000000015
 10
190.25895399999976
 20
-139.74546600000014
 10
190.37045999999975
 20
-139.72946400000015
 10
190.48171199999973
 20
-139.71168400000013
 10
190.59270999999976
 20
-139.69212600000014
 10
190.70319999999973
 20
-139.67079000000015
 10
190.8134359999997
 20
-139.64767600000013
 10
190.92316399999973
 20
-139.62278400000017
 10
191.03238399999972
 20
-139.59636800000015
 10
191.14109599999972
 20
-139.56817400000014
 10
191.24929999999972
 20
-139.53820200000013
 10
191.35699599999973
 20
-139.50645200000014
 10
191.46418399999973
 20
-139.47292400000015
 10
191.57086399999972
 20
-139.43761800000013
 10
191.67703599999973
 20
-139.40053400000016
 10
191.7824459999997
 20
-139.36167200000014
 10
191.88734799999972
 20
-139.32103200000014
 10
191.9914879999997
 20
-139.27886800000013
 10
192.0951199999997
 20
-139.23492600000014
 10
192.1979899999997
 20
-139.18920600000015
 10
192.3000979999997
 20
-139.14170800000016
 10
192.4014439999997
 20
-139.09243200000017
 10
192.5020279999997
 20
-139.04137800000015
 10
192.6018499999997
 20
-138.98854600000016
 10
192.7009099999997
 20
-138.93393600000016
 10
192.7989539999997
 20
-138.87754800000016
 10
192.8962359999997
 20
-138.81938200000016
 10
192.9815799999997
 20
-138.76629600000015
 10
193.06539999999973
 20
-138.71168600000016
 10
193.14794999999972
 20
-138.65529800000016
 10
193.22922999999975
 20
-138.59662400000016
 10
193.30898599999975
 20
-138.53541000000016
 10
193.38747199999972
 20
-138.47140200000018
 10
193.4646879999997
 20
-138.4040920000002
 10
193.5408879999997
 20
-138.33297200000018
 10
193.6158179999997
 20
-138.2580420000002
 10
193.6894779999997
 20
-138.1785400000002
 10
193.76212199999966
 20
-138.0944660000002
 10
193.83349599999966
 20
-138.0053120000002
 10
193.90385399999968
 20
-137.91082400000022
 10
193.9731959999997
 20
-137.8104940000002
 10
194.04152199999967
 20
-137.7040680000002
 10
194.10883199999967
 20
-137.5910380000002
 10
194.17537999999968
 20
-137.47115000000022
 10
194.24091199999967
 20
-137.3441500000002
 10
194.30568199999968
 20
-137.20953000000023
 10
194.36943599999967
 20
-137.0670360000002
 10
194.43242799999967
 20
-136.9161600000002
 10
194.49465799999967
 20
-136.75664800000018
 10
194.55612599999967
 20
-136.58824600000017
 10
194.61683199999968
 20
-136.41044600000018
 10
194.67677599999968
 20
-136.22299400000014
 10
194.73595799999967
 20
-136.02538200000015
 10
194.79463199999967
 20
-135.81735600000016
 10
194.85279799999967
 20
-135.59866200000016
 10
194.91020199999966
 20
-135.36879200000018
 10
194.96709799999968
 20
-135.12749200000016
 10
195.02348599999968
 20
-134.87425400000018
 10
195.07936599999968
 20
-134.60882400000017
 10
195.3267619999997
 20
-133.74598600000016
 10
195.5741579999997
 20
-132.88314800000015
 10
195.8215539999997
 20
-132.02031000000014
 10
196.06894999999975
 20
-131.15747200000013
 10
196.31634599999975
 20
-130.29463400000012
 10
196.56374199999976
 20
-129.43179600000013
 10
196.81113799999977
 20
-128.56895800000012
 10
197.05853399999978
 20
-127.70612000000013
 10
197.3059299999998
 20
-126.84328200000013
 10
197.5533259999998
 20
-125.98044400000013
 10
197.8007219999998
 20
-125.11760600000014
 10
198.04811799999982
 20
-124.25476800000013
 10
198.29551399999983
 20
-123.39193000000013
 10
198.54290999999984
 20
-122.52909200000013
 10
198.79030599999987
 20
-121.66625400000014
 10
199.03770199999988
 20
-120.80341600000014
 10
199.2850979999999
 20
-119.94057800000014
 10
199.5324939999999
 20
-119.07774000000015
 10
199.7798899999999
 20
-118.21490200000015
 10
200.02728599999992
 20
-117.35206400000015
 10
200.27468199999993
 20
-116.48922600000016
 10
200.52207799999994
 20
-115.62638800000016
 10
200.76947399999995
 20
-114.76355000000015
 10
201.01686999999995
 20
-113.90071200000015
 10
201.264266
 20
-113.03787400000016
 10
201.511662
 20
-112.17503600000016
 10
201.759058
 20
-111.31219800000017
 10
202.00645400000002
 20
-110.44936000000017
 10
202.25385000000003
 20
-109.58652200000017
 10
202.50124600000004
 20
-108.72368400000018
 10
202.74864200000005
 20
-107.86084600000018
 10
202.99603800000006
 20
-106.99800800000018
 10
203.01483400000004
 20
-106.92638000000018
 10
203.03464600000004
 20
-106.85145000000018
 10
203.05522000000005
 20
-106.77321800000018
 10
203.07630200000003
 20
-106.69219200000018
 10
203.09789200000006
 20
-106.60862600000017
 10
203.11973600000005
 20
-106.52252000000017
 10
203.14158000000006
 20
-106.43412800000017
 10
203.16342400000005
 20
-106.34370400000017
 10
203.18501400000008
 20
-106.25150200000017
 10
203.20635000000004
 20
-106.15777600000017
 10
203.22717800000007
 20
-106.06278000000016
 10
203.24724400000005
 20
-105.96676800000016
 10
203.26629400000004
 20
-105.86974000000016
 10
203.28432800000007
 20
-105.77220400000016
 10
203.30134600000005
 20
-105.67416000000016
 10
203.31684000000007
 20
-105.57586200000016
 10
203.33081000000007
 20
-105.47756400000016
 10
203.34325600000005
 20
-105.37952000000014
 10
203.35392400000006
 20
-105.28198400000014
 10
203.36256000000006
 20
-105.18521000000015
 10
203.36891000000006
 20
-105.08919800000015
 10
203.37297400000006
 20
-104.99445600000016
 10
203.37449800000005
 20
-104.90098400000015
 10
203.37348200000002
 20
-104.80903600000015
 10
203.36967200000004
 20
-104.71886600000015
 10
203.36281400000001
 20
-104.63072800000015
 10
203.35265400000003
 20
-104.54487600000014
 10
203.33919200000003
 20
-104.46156400000015
 10
203.32242800000003
 20
-104.38104600000015
 10
203.30185400000002
 20
-104.30332200000015
 10
203.277724
 20
-104.22890000000015
 10
203.24953000000002
 20
-104.15778000000016
 10
203.237592
 20
-104.13060200000015
 10
203.22514600000002
 20
-104.10367800000016
 10
203.21219200000002
 20
-104.07700800000015
 10
203.198984
 20
-104.05059200000015
 10
203.185268
 20
-104.02417600000015
 10
203.171044
 20
-103.99801400000015
 10
203.156566
 20
-103.97210600000015
 10
203.14158
 20
-103.94645200000016
 10
203.12634
 20
-103.92105200000016
 10
203.110592
 20
-103.89590600000015
 10
203.09459
 20
-103.87101400000016
 10
203.07808
 20
-103.84637600000016
 10
203.06131599999998
 20
-103.82199200000015
 10
203.04404399999999
 20
-103.79786200000015
 10
203.026518
 20
-103.77398600000015
 10
203.008738
 20
-103.75036400000015
 10
202.99044999999998
 20
-103.72699600000016
 10
202.97190799999998
 20
-103.70388200000015
 10
202.953112
 20
-103.68102200000016
 10
202.933808
 20
-103.65841600000016
 10
202.91425
 20
-103.63606400000015
 10
202.894438
 20
-103.61396600000015
 10
202.874118
 20
-103.59212200000015
 10
202.853544
 20
-103.57078600000015
 10
202.832716
 20
-103.54970400000015
 10
202.811634
 20
-103.52887600000014
 10
202.790298
 20
-103.50830200000014
 10
202.76845400000002
 20
-103.48823600000014
 10
202.74635600000002
 20
-103.46842400000014
 10
202.72400400000004
 20
-103.44886600000015
 10
202.701398
 20
-103.42956200000015
 10
202.678538
 20
-103.41076600000014
 10
202.633326
 20
-103.37673000000014
 10
202.58811400000002
 20
-103.34269400000012
 10
202.542902
 20
-103.30865800000012
 10
202.49769
 20
-103.27462200000012
 10
202.452478
 20
-103.24058600000012
 10
202.40726600000002
 20
-103.20655000000012
 10
202.362054
 20
-103.1725140000001
 10
202.316842
 20
-103.1384780000001
 10
202.27163000000002
 20
-103.1044420000001
 10
202.22641800000002
 20
-103.0704060000001
 10
202.181206
 20
-103.03637000000009
 10
202.135994
 20
-103.00233400000009
 10
202.09078200000002
 20
-102.96829800000009
 10
202.04557000000003
 20
-102.93426200000009
 10
202.000358
 20
-102.90022600000007
 10
201.955146
 20
-102.86619000000007
 10
201.90993400000002
 20
-102.83215400000007
 10
201.86472200000003
 20
-102.79811800000007
 10
201.81951
 20
-102.76408200000007
 10
201.77429800000002
 20
-102.73004600000006
 10
201.72908600000002
 20
-102.69601000000006
 10
201.68387400000003
 20
-102.66197400000006
 10
201.638662
 20
-102.62793800000006
 10
201.59345000000002
 20
-102.59390200000004
 10
201.54823800000003
 20
-102.55986600000004
 10
201.50302600000003
 20
-102.52583000000004
 10
201.457814
 20
-102.49179400000004
 10
201.41260200000002
 20
-102.45775800000003
 10
201.36739000000003
 20
-102.42372200000003
 10
201.32217800000004
 20
-102.38968600000003
 10
201.27696600000002
 20
-102.35565000000003
 10
201.23175400000002
 20
-102.32161400000001
 10
201.20025800000002
 20
-102.29646800000002
 10
201.17079400000003
 20
-102.27005200000002
 10
201.14336200000002
 20
-102.24262000000002
 10
201.11796200000003
 20
-102.21391800000002
 10
201.09459400000003
 20
-102.18420000000002
 10
201.07300400000003
 20
-102.15346600000002
 10
201.05319200000002
 20
-102.12171600000002
 10
201.03515800000002
 20
-102.08920400000002
 10
201.01890200000003
 20
-102.05593000000003
 10
201.00442400000003
 20
-102.02164000000003
 10
200.99172400000003
 20
-101.98658800000004
 10
200.98054800000006
 20
-101.95102800000005
 10
200.97089600000004
 20
-101.91470600000005
 10
200.96276800000004
 20
-101.87787600000006
 10
200.95616400000006
 20
-101.84053800000007
 10
200.95108400000004
 20
-101.80269200000006
 10
200.94727400000005
 20
-101.76433800000005
 10
200.94498800000005
 20
-101.72547600000006
 10
200.94397200000003
 20
-101.68636000000005
 10
200.94422600000004
 20
-101.64699000000006
 10
200.94575000000003
 20
-101.60736600000006
 10
200.94829000000004
 20
-101.56748800000007
 10
200.95210000000003
 20
-101.52735600000005
 10
200.95692600000004
 20
-101.48722400000005
 10
200.96276800000004
 20
-101.44709200000005
 10
200.96962600000003
 20
-101.40696000000004
 10
200.97750000000002
 20
-101.36682800000004
 10
200.98613600000002
 20
-101.32695000000005
 10
200.99578800000003
 20
-101.28707200000005
 10
201.00620200000006
 20
-101.24744800000005
 10
201.01737800000004
 20
-101.20807800000006
 10
201.02931600000005
 20
-101.16896200000006
 10
201.14539400000004
 20
-100.80955200000005
 10
201.26147200000005
 20
-100.45014200000004
 10
201.37755000000004
 20
-100.09073200000005
 10
201.49362800000003
 20
-99.73132200000003
 10
201.60970600000005
 20
-99.37191200000004
 10
201.72578400000003
 20
-99.01250200000003
 10
201.84186200000005
 20
-98.65309200000002
 10
201.95794000000004
 20
-98.29368200000002
 10
202.07401800000002
 20
-97.934272
 10
202.19009600000004
 20
-97.57486200000001
 10
202.30617400000003
 20
-97.215452
 10
202.42225200000001
 20
-96.856042
 10
202.53833000000003
 20
-96.49663199999999
 10
202.65440800000002
 20
-96.13722199999998
 10
202.77048600000003
 20
-95.77781199999998
 10
202.88656400000002
 20
-95.41840199999997
 10
203.002642
 20
-95.05899199999998
 10
203.11872000000002
 20
-94.69958199999996
 10
203.234798
 20
-94.34017199999995
 10
203.35087600000003
 20
-93.98076199999996
 10
203.46695400000002
 20
-93.62135199999994
 10
203.583032
 20
-93.26194199999995
 10
203.69911000000002
 20
-92.90253199999994
 10
203.815188
 20
-92.54312199999994
 10
203.931266
 20
-92.18371199999993
 10
204.047344
 20
-91.82430199999992
 10
204.163422
 20
-91.46489199999992
 10
204.2795
 20
-91.10548199999991
 10
204.395578
 20
-90.74607199999991
 10
204.511656
 20
-90.3866619999999
 10
204.627734
 20
-90.02725199999989
  0
LWPOLYLINE
  5
30
330
17
100
AcDbEntity
  8
0
100
AcDbPolyline
 90
128
 70
1
 10
187.311792
 20
-91.0645879999999
 10
187.320174
 20
-91.39758199999989
 10
187.345066
 20
-91.72625799999989
 10
187.386214
 20
-92.05010799999988
 10
187.44311000000002
 20
-92.36887799999988
 10
187.51524600000002
 20
-92.68205999999988
 10
187.602368
 20
-92.98914599999988
 10
187.704222
 20
-93.28988199999989
 10
187.820046
 20
-93.58375999999988
 10
187.94958599999998
 20
-93.87052599999988
 10
188.09258799999998
 20
-94.14967199999988
 10
188.24854399999998
 20
-94.4206899999999
 10
188.416946
 20
-94.68332599999988
 10
188.597286
 20
-94.93707199999989
 10
188.78931
 20
-95.1816739999999
 10
188.99276400000002
 20
-95.4166239999999
 10
189.20714
 20
-95.6414139999999
 10
189.43193000000002
 20
-95.8557899999999
 10
189.66688000000002
 20
-96.0592439999999
 10
189.911482
 20
-96.25126799999988
 10
190.165228
 20
-96.43160799999988
 10
190.427864
 20
-96.60000999999988
 10
190.698882
 20
-96.75596599999987
 10
190.97802800000002
 20
-96.89896799999988
 10
191.26479400000002
 20
-97.02850799999987
 10
191.55867200000003
 20
-97.14433199999988
 10
191.85940800000003
 20
-97.24618599999988
 10
192.166494
 20
-97.33330799999989
 10
192.479676
 20
-97.40569799999989
 10
192.79844599999998
 20
-97.46259399999988
 10
193.12229599999998
 20
-97.50374199999989
 10
193.45097199999998
 20
-97.52863399999988
 10
193.783966
 20
-97.5370159999999
 10
194.11696
 20
-97.52863399999988
 10
194.445636
 20
-97.50374199999989
 10
194.769486
 20
-97.46259399999988
 10
195.088256
 20
-97.40569799999989
 10
195.40143799999998
 20
-97.33330799999989
 10
195.70852399999995
 20
-97.24618599999988
 10
196.00925999999995
 20
-97.14433199999988
 10
196.30313799999996
 20
-97.02850799999987
 10
196.58990399999996
 20
-96.89896799999988
 10
196.86905
 20
-96.75596599999987
 10
197.14006799999999
 20
-96.60000999999988
 10
197.40270399999997
 20
-96.43160799999988
 10
197.65644999999998
 20
-96.25126799999988
 10
197.901052
 20
-96.0592439999999
 10
198.13600199999996
 20
-95.8557899999999
 10
198.36079199999998
 20
-95.6414139999999
 10
198.575168
 20
-95.4166239999999
 10
198.77862199999998
 20
-95.1816739999999
 10
198.970646
 20
-94.93707199999989
 10
199.150986
 20
-94.68332599999988
 10
199.319388
 20
-94.4206899999999
 10
199.475344
 20
-94.14967199999988
 10
199.618346
 20
-93.87052599999988
 10
199.747886
 20
-93.58375999999988
 10
199.86371
 20
-93.28988199999989
 10
199.965564
 20
-92.98914599999988
 10
200.052686
 20
-92.68205999999988
 10
200.124822
 20
-92.36887799999988
 10
200.181718
 20
-92.05010799999988
 10
200.222866
 20
-91.72625799999989
 10
200.247758
 20
-91.39758199999989
 10
200.25614
 20
-91.0645879999999
 10
200.247758
 20
-90.7315939999999
 10
200.222866
 20
-90.40291799999991
 10
200.181718
 20
-90.0790679999999
 10
200.124822
 20
-89.76029799999992
 10
200.052686
 20
-89.44711599999991
 10
199.965564
 20
-89.14002999999991
 10
199.86371
 20
-88.83929399999991
 10
199.747886
 20
-88.54541599999992
 10
199.618346
 20
-88.2586499999999
 10
199.475344
 20
-87.9795039999999
 10
199.319388
 20
-87.70848599999991
 10
199.150986
 20
-87.44584999999991
 10
198.970646
 20
-87.1921039999999
 10
198.77862199999998
 20
-86.9475019999999
 10
198.575168
 20
-86.71255199999989
 10
198.36079199999998
 20
-86.48776199999989
 10
198.13600199999996
 20
-86.2733859999999
 10
197.901052
 20
-86.0699319999999
 10
197.65644999999998
 20
-85.8779079999999
 10
197.40270399999997
 20
-85.69756799999992
 10
197.14006799999999
 20
-85.5291659999999
 10
196.86905
 20
-85.37320999999991
 10
196.58990399999996
 20
-85.23020799999992
 10
196.30313799999996
 20
-85.10066799999993
 10
196.00925999999995
 20
-84.98484399999992
 10
195.70852399999995
 20
-84.88298999999992
 10
195.40143799999998
 20
-84.79586799999991
 10
195.088256
 20
-84.7234779999999
 10
194.769486
 20
-84.6665819999999
 10
194.445636
 20
-84.62543399999991
 10
194.11696
 20
-84.6005419999999
 10
193.783966
 20
-84.59215999999991
 10
193.45097199999998
 20
-84.6005419999999
 10
193.12229599999998
 20
-84.62543399999991
 10
192.79844599999998
 20
-84.6665819999999
 10
192.479676
 20
-84.7234779999999
 10
192.166494
 20
-84.79586799999991
 10
191.85940800000003
 20
-84.88298999999992
 10
191.55867200000003
 20
-84.98484399999992
 10
191.26479400000002
 20
-85.10066799999993
 10
190.97802800000002
 20
-85.23020799999992
 10
190.698882
 20
-85.37320999999991
 10
190.427864
 20
-85.5291659999999
 10
190.165228
 20
-85.69756799999992
 10
189.911482
 20
-85.8779079999999
 10
189.66688000000002
 20
-86.0699319999999
 10
189.43193000000002
 20
-86.2733859999999
 10
189.20714
 20
-86.48776199999989
 10
188.99276400000002
 20
-86.71255199999989
 10
188.78931
 20
-86.9475019999999
 10
188.597286
 20
-87.1921039999999
 10
188.416946
 20
-87.44584999999991
 10
188.24854399999998
 20
-87.70848599999991
 10
188.09258799999998
 20
-87.9795039999999
 10
187.94958599999998
 20
-88.2586499999999
 10
187.820046
 20
-88.54541599999992
 10
187.704222
 20
-88.83929399999991
 10
187.602368
 20
-89.14002999999991
 10
187.51524600000002
 20
-89.44711599999991
 10
187.44311000000002
 20
-89.76029799999992
 10
187.386214
 20
-90.0790679999999
 10
187.345066
 20
-90.40291799999991
 10
187.320174
 20
-90.7315939999999
  0
LWPOLYLINE
  5
31
330
17
100
AcDbEntity
  8
0
100
AcDbPolyline
 90
1216
 70
1
 10
216.028778
 20
-74.6937799999999
 10
216.674192
 20
-74.6937799999999
 10
217.31960600000002
 20
-74.6937799999999
 10
217.96502000000004
 20
-74.6937799999999
 10
218.61043400000005
 20
-74.6937799999999
 10
219.25584800000007
 20
-74.6937799999999
 10
219.90126200000006
 20
-74.6937799999999
 10
220.54667600000008
 20
-74.6937799999999
 10
221.1920900000001
 20
-74.6937799999999
 10
221.8375040000001
 20
-74.6937799999999
 10
222.48291800000013
 20
-74.6937799999999
 10
223.12833200000014
 20
-74.6937799999999
 10
223.77374600000016
 20
-74.6937799999999
 10
224.41916000000018
 20
-74.6937799999999
 10
225.0645740000002
 20
-74.6937799999999
 10
225.70998800000018
 20
-74.6937799999999
 10
226.3554020000002
 20
-74.6937799999999
 10
227.0008160000002
 20
-74.6937799999999
 10
227.64623000000023
 20
-74.6937799999999
 10
228.29164400000025
 20
-74.6937799999999
 10
228.93705800000026
 20
-74.6937799999999
 10
229.58247200000028
 20
-74.6937799999999
 10
230.2278860000003
 20
-74.6937799999999
 10
230.8733000000003
 20
-74.6937799999999
 10
231.51871400000033
 20
-74.6937799999999
 10
232.16412800000032
 20
-74.6937799999999
 10
232.80954200000033
 20
-74.6937799999999
 10
233.45495600000035
 20
-74.6937799999999
 10
234.10037000000037
 20
-74.6937799999999
 10
234.74578400000038
 20
-74.6937799999999
 10
235.3911980000004
 20
-74.6937799999999
 10
236.03661200000042
 20
-74.6937799999999
 10
236.68202600000043
 20
-74.6937799999999
 10
236.71022000000042
 20
-74.6945419999999
 10
236.73790600000044
 20
-74.6970819999999
 10
236.76508400000043
 20
-74.7011459999999
 10
236.79150000000044
 20
-74.7067339999999
 10
236.81740800000043
 20
-74.7138459999999
 10
236.84255400000043
 20
-74.7222279999999
 10
236.86693800000043
 20
-74.7321339999999
 10
236.89056000000042
 20
-74.7433099999999
 10
236.91342000000043
 20
-74.75575599999989
 10
236.93551800000043
 20
-74.76947199999988
 10
236.95660000000044
 20
-74.78420399999989
 10
236.97692000000043
 20
-74.80020599999987
 10
236.99622400000044
 20
-74.81722399999988
 10
237.01451200000045
 20
-74.83525799999988
 10
237.03178400000044
 20
-74.85405399999989
 10
237.04804000000044
 20
-74.87386599999988
 10
237.06328000000042
 20
-74.89443999999989
 10
237.07725000000042
 20
-74.91602999999988
 10
237.08995000000039
 20
-74.93838199999989
 10
237.10163400000042
 20
-74.96124199999988
 10
237.1120480000004
 20
-74.98486399999989
 10
237.12093800000042
 20
-75.00899399999989
 10
237.1285580000004
 20
-75.0338859999999
 10
237.1349080000004
 20
-75.0592859999999
 10
237.1397340000004
 20
-75.0849399999999
 10
237.14303600000042
 20
-75.1111019999999
 10
237.1448140000004
 20
-75.1375179999999
 10
237.14506800000038
 20
-75.16418799999991
 10
237.1437980000004
 20
-75.1911119999999
 10
237.1410040000004
 20
-75.21828999999991
 10
237.13643200000038
 20
-75.24572199999992
 10
237.1300820000004
 20
-75.27315399999992
 10
237.1110320000004
 20
-75.35163999999992
 10
237.09198200000037
 20
-75.43012599999993
 10
237.07293200000038
 20
-75.50861199999993
 10
237.05388200000036
 20
-75.58709799999994
 10
237.03483200000034
 20
-75.66558399999995
 10
237.01578200000034
 20
-75.74406999999995
 10
236.99673200000032
 20
-75.82255599999996
 10
236.9776820000003
 20
-75.90104199999996
 10
236.9586320000003
 20
-75.97952799999997
 10
236.93958200000029
 20
-76.05801399999999
 10
236.92053200000026
 20
-76.13649999999998
 10
236.90148200000027
 20
-76.214986
 10
236.88243200000025
 20
-76.293472
 10
236.86338200000023
 20
-76.371958
 10
236.84433200000024
 20
-76.45044400000002
 10
236.82528200000021
 20
-76.52893000000002
 10
236.8062320000002
 20
-76.60741600000003
 10
236.7871820000002
 20
-76.68590200000003
 10
236.76813200000018
 20
-76.76438800000004
 10
236.74908200000016
 20
-76.84287400000005
 10
236.73003200000016
 20
-76.92136000000005
 10
236.71098200000014
 20
-76.99984600000006
 10
236.69193200000012
 20
-77.07833200000006
 10
236.67288200000013
 20
-77.15681800000007
 10
236.6538320000001
 20
-77.23530400000008
 10
236.6347820000001
 20
-77.31379000000008
 10
236.6157320000001
 20
-77.3922760000001
 10
236.59668200000007
 20
-77.4707620000001
 10
236.57763200000005
 20
-77.5492480000001
 10
236.55858200000006
 20
-77.62773400000012
 10
236.53953200000004
 20
-77.70622000000012
 10
236.52048200000004
 20
-77.78470600000013
 10
235.87862400000003
 20
-77.78470600000013
 10
235.23676600000002
 20
-77.78470600000013
 10
234.594908
 20
-77.78470600000013
 10
233.95305
 20
-77.78470600000013
 10
233.31119199999998
 20
-77.78470600000013
 10
232.66933399999996
 20
-77.78470600000013
 10
232.02747599999995
 20
-77.78470600000013
 10
231.38561799999994
 20
-77.78470600000013
 10
230.74375999999992
 20
-77.78470600000013
 10
230.1019019999999
 20
-77.78470600000013
 10
229.4600439999999
 20
-77.78470600000013
 10
228.81818599999988
 20
-77.78470600000013
 10
228.1763279999999
 20
-77.78470600000013
 10
227.53446999999989
 20
-77.78470600000013
 10
226.89261199999987
 20
-77.78470600000013
 10
226.25075399999986
 20
-77.78470600000013
 10
225.60889599999985
 20
-77.78470600000013
 10
224.96703799999983
 20
-77.78470600000013
 10
224.32517999999982
 20
-77.78470600000013
 10
223.6833219999998
 20
-77.78470600000013
 10
223.0414639999998
 20
-77.78470600000013
 10
222.39960599999978
 20
-77.78470600000013
 10
221.75774799999976
 20
-77.78470600000013
 10
221.11588999999975
 20
-77.78470600000013
 10
220.47403199999977
 20
-77.78470600000013
 10
219.83217399999975
 20
-77.78470600000013
 10
219.19031599999974
 20
-77.78470600000013
 10
218.54845799999973
 20
-77.78470600000013
 10
217.9065999999997
 20
-77.78470600000013
 10
217.2647419999997
 20
-77.78470600000013
 10
216.6228839999997
 20
-77.78470600000013
 10
215.98102599999967
 20
-77.78470600000013
 10
215.95587999999967
 20
-77.78470600000013
 10
215.93073399999966
 20
-77.78470600000013
 10
215.90558799999965
 20
-77.78470600000013
 10
215.88044199999962
 20
-77.78470600000013
 10
215.8552959999996
 20
-77.78470600000013
 10
215.8301499999996
 20
-77.78470600000013
 10
215.8050039999996
 20
-77.78470600000013
 10
215.7798579999996
 20
-77.78470600000013
 10
215.75471199999956
 20
-77.78470600000013
 10
215.72956599999955
 20
-77.78470600000013
 10
215.70441999999954
 20
-77.78470600000013
 10
215.67927399999954
 20
-77.78470600000013
 10
215.65412799999953
 20
-77.78470600000013
 10
215.6289819999995
 20
-77.78470600000013
 10
215.6038359999995
 20
-77.78470600000013
 10
215.57868999999948
 20
-77.78470600000013
 10
215.55354399999948
 20
-77.78470600000013
 10
215.52839799999947
 20
-77.78470600000013
 10
215.50325199999946
 20
-77.78470600000013
 10
215.47810599999943
 20
-77.78470600000013
 10
215.45295999999942
 20
-77.78470600000013
 10
215.42781399999942
 20
-77.78470600000013
 10
215.4026679999994
 20
-77.78470600000013
 10
215.3775219999994
 20
-77.78470600000013
 10
215.35237599999937
 20
-77.78470600000013
 10
215.32722999999936
 20
-77.78470600000013
 10
215.30208399999935
 20
-77.78470600000013
 10
215.27693799999935
 20
-77.78470600000013
 10
215.25179199999934
 20
-77.78470600000013
 10
215.22664599999933
 20
-77.78470600000013
 10
215.2014999999993
 20
-77.78470600000013
 10
215.1763539999993
 20
-77.78470600000013
 10
215.17559199999928
 20
-77.81594800000012
 10
215.1733059999993
 20
-77.84693600000013
 10
215.1694959999993
 20
-77.87741600000012
 10
215.1641619999993
 20
-77.90738800000013
 10
215.1573039999993
 20
-77.93685200000012
 10
215.14917599999927
 20
-77.96580800000011
 10
215.13952399999928
 20
-77.99400200000011
 10
215.12860199999926
 20
-78.02168800000011
 10
215.11640999999926
 20
-78.0486120000001
 10
215.10294799999926
 20
-78.0747740000001
 10
215.08821599999928
 20
-78.10017400000011
 10
215.07246799999928
 20
-78.1248120000001
 10
215.05544999999927
 20
-78.1486880000001
 10
215.03741599999927
 20
-78.1715480000001
 10
215.01836599999925
 20
-78.1936460000001
 10
214.99829999999926
 20
-78.21472800000011
 10
214.97721799999928
 20
-78.23479400000011
 10
214.95511999999928
 20
-78.2538440000001
 10
214.93200599999926
 20
-78.27187800000011
 10
214.90812999999926
 20
-78.28889600000011
 10
214.88349199999925
 20
-78.30464400000012
 10
214.85809199999926
 20
-78.31937600000012
 10
214.83192999999926
 20
-78.33283800000011
 10
214.80500599999928
 20
-78.34503000000011
 10
214.77731999999926
 20
-78.35595200000012
 10
214.74912599999928
 20
-78.36560400000012
 10
214.72016999999926
 20
-78.37373200000012
 10
214.69070599999927
 20
-78.38059000000011
 10
214.66073399999925
 20
-78.38592400000012
 10
214.63025399999924
 20
-78.38973400000012
 10
214.59926599999926
 20
-78.39202000000012
 10
214.56802399999924
 20
-78.39278200000011
 10
214.46845599999924
 20
-78.39278200000011
 10
214.36888799999923
 20
-78.39278200000011
 10
214.2693199999992
 20
-78.39278200000011
 10
214.1697519999992
 20
-78.39278200000011
 10
214.0701839999992
 20
-78.39278200000011
 10
213.97061599999915
 20
-78.39278200000011
 10
213.87104799999915
 20
-78.39278200000011
 10
213.77147999999914
 20
-78.39278200000011
 10
213.6719119999991
 20
-78.39278200000011
 10
213.5723439999991
 20
-78.39278200000011
 10
213.4727759999991
 20
-78.39278200000011
 10
213.3732079999991
 20
-78.39278200000011
 10
213.27363999999906
 20
-78.39278200000011
 10
213.17407199999906
 20
-78.39278200000011
 10
213.07450399999905
 20
-78.39278200000011
 10
212.97493599999902
 20
-78.39278200000011
 10
212.875367999999
 20
-78.39278200000011
 10
212.775799999999
 20
-78.39278200000011
 10
212.676231999999
 20
-78.39278200000011
 10
212.57666399999897
 20
-78.39278200000011
 10
212.47709599999897
 20
-78.39278200000011
 10
212.37752799999896
 20
-78.39278200000011
 10
212.27795999999893
 20
-78.39278200000011
 10
212.17839199999892
 20
-78.39278200000011
 10
212.07882399999892
 20
-78.39278200000011
 10
211.97925599999888
 20
-78.39278200000011
 10
211.87968799999888
 20
-78.39278200000011
 10
211.78011999999887
 20
-78.39278200000011
 10
211.68055199999887
 20
-78.39278200000011
 10
211.58098399999884
 20
-78.39278200000011
 10
211.48141599999883
 20
-78.39278200000011
 10
211.38184799999883
 20
-78.39278200000011
 10
211.3506059999988
 20
-78.39202000000012
 10
211.31961799999883
 20
-78.38973400000012
 10
211.28913799999881
 20
-78.38592400000012
 10
211.2591659999988
 20
-78.38059000000011
 10
211.2297019999988
 20
-78.37373200000012
 10
211.2007459999988
 20
-78.36560400000012
 10
211.1725519999988
 20
-78.35595200000012
 10
211.14486599999879
 20
-78.34503000000011
 10
211.11794199999878
 20
-78.33283800000011
 10
211.0917799999988
 20
-78.31937600000012
 10
211.0663799999988
 20
-78.30464400000012
 10
211.0417419999988
 20
-78.28889600000011
 10
211.01786599999878
 20
-78.27187800000011
 10
210.99500599999877
 20
-78.2538440000001
 10
210.9729079999988
 20
-78.23479400000011
 10
210.9518259999988
 20
-78.21472800000011
 10
210.9317599999988
 20
-78.1936460000001
 10
210.91270999999878
 20
-78.1715480000001
 10
210.89467599999878
 20
-78.1486880000001
 10
210.87765799999877
 20
-78.1248120000001
 10
210.86190999999877
 20
-78.10017400000011
 10
210.8471779999988
 20
-78.0747740000001
 10
210.8337159999988
 20
-78.0486120000001
 10
210.8215239999988
 20
-78.02168800000011
 10
210.8106019999988
 20
-77.99400200000011
 10
210.80094999999878
 20
-77.96580800000011
 10
210.79282199999878
 20
-77.93685200000012
 10
210.78596399999876
 20
-77.90738800000013
 10
210.78062999999878
 20
-77.87741600000012
 10
210.77681999999876
 20
-77.84693600000013
 10
210.77453399999877
 20
-77.81594800000012
 10
210.77377199999876
 20
-77.78470600000013
 10
210.51570799999877
 20
-77.78470600000013
 10
210.25764399999878
 20
-77.78470600000013
 10
209.9995799999988
 20
-77.78470600000013
 10
209.7415159999988
 20
-77.78470600000013
 10
209.4834519999988
 20
-77.78470600000013
 10
209.22538799999882
 20
-77.78470600000013
 10
208.96732399999883
 20
-77.78470600000013
 10
208.70925999999884
 20
-77.78470600000013
 10
208.45119599999884
 20
-77.78470600000013
 10
208.19313199999885
 20
-77.78470600000013
 10
207.93506799999886
 20
-77.78470600000013
 10
207.67700399999887
 20
-77.78470600000013
 10
207.41893999999888
 20
-77.78470600000013
 10
207.1608759999989
 20
-77.78470600000013
 10
206.9028119999989
 20
-77.78470600000013
 10
206.6447479999989
 20
-77.78470600000013
 10
206.38668399999892
 20
-77.78470600000013
 10
206.12861999999893
 20
-77.78470600000013
 10
205.87055599999894
 20
-77.78470600000013
 10
205.61249199999895
 20
-77.78470600000013
 10
205.35442799999896
 20
-77.78470600000013
 10
205.09636399999897
 20
-77.78470600000013
 10
204.83829999999898
 20
-77.78470600000013
 10
204.580235999999
 20
-77.78470600000013
 10
204.322171999999
 20
-77.78470600000013
 10
204.064107999999
 20
-77.78470600000013
 10
203.80604399999902
 20
-77.78470600000013
 10
203.54797999999903
 20
-77.78470600000013
 10
203.28991599999904
 20
-77.78470600000013
 10
203.03185199999905
 20
-77.78470600000013
 10
202.77378799999906
 20
-77.78470600000013
 10
202.51572399999907
 20
-77.78470600000013
 10
202.48473599999906
 20
-77.78394400000013
 10
202.45425599999908
 20
-77.78165800000012
 10
202.42402999999905
 20
-77.77784800000013
 10
202.39431199999908
 20
-77.77251400000013
 10
202.36510199999907
 20
-77.76591000000012
 10
202.33639999999906
 20
-77.75778200000012
 10
202.30845999999906
 20
-77.74838400000013
 10
202.28102799999905
 20
-77.73771600000013
 10
202.25435799999906
 20
-77.72552400000014
 10
202.22844999999907
 20
-77.71231600000013
 10
202.20330399999906
 20
-77.69783800000013
 10
202.17891999999907
 20
-77.68209000000013
 10
202.15529799999908
 20
-77.66532600000014
 10
202.13243799999907
 20
-77.64754600000013
 10
202.11059399999905
 20
-77.62849600000014
 10
202.08976599999906
 20
-77.60843000000014
 10
202.06969999999907
 20
-77.58760200000013
 10
202.05064999999905
 20
-77.56575800000013
 10
202.03286999999904
 20
-77.54289800000014
 10
202.01610599999904
 20
-77.51927600000013
 10
202.00035799999904
 20
-77.49489200000014
 10
201.985879999999
 20
-77.46974600000014
 10
201.97267199999902
 20
-77.44383800000014
 10
201.96047999999902
 20
-77.41716800000013
 10
201.949811999999
 20
-77.38973600000014
 10
201.940413999999
 20
-77.36179600000014
 10
201.93228599999898
 20
-77.33309400000013
 10
201.925681999999
 20
-77.30388400000014
 10
201.92034799999902
 20
-77.27416600000012
 10
201.916537999999
 20
-77.24394000000012
 10
201.914251999999
 20
-77.21320600000013
 10
201.913489999999
 20
-77.18221800000012
 10
201.913489999999
 20
-77.13345000000012
 10
201.913489999999
 20
-77.08468200000011
 10
201.913489999999
 20
-77.03591400000012
 10
201.913489999999
 20
-76.98714600000011
 10
201.913489999999
 20
-76.93837800000011
 10
201.913489999999
 20
-76.8896100000001
 10
201.913489999999
 20
-76.84084200000011
 10
201.913489999999
 20
-76.79207400000011
 10
201.913489999999
 20
-76.7433060000001
 10
201.913489999999
 20
-76.69453800000011
 10
201.913489999999
 20
-76.6457700000001
 10
201.913489999999
 20
-76.5970020000001
 10
201.913489999999
 20
-76.5482340000001
 10
201.913489999999
 20
-76.4994660000001
 10
201.913489999999
 20
-76.45069800000009
 10
201.913489999999
 20
-76.40193000000009
 10
201.913489999999
 20
-76.35316200000008
 10
201.913489999999
 20
-76.30439400000009
 10
201.913489999999
 20
-76.25562600000009
 10
201.913489999999
 20
-76.20685800000008
 10
201.913489999999
 20
-76.15809000000009
 10
201.913489999999
 20
-76.10932200000008
 10
201.913489999999
 20
-76.06055400000008
 10
201.913489999999
 20
-76.01178600000007
 10
201.913489999999
 20
-75.96301800000008
 10
201.913489999999
 20
-75.91425000000007
 10
201.913489999999
 20
-75.86548200000007
 10
201.913489999999
 20
-75.81671400000008
 10
201.913489999999
 20
-75.76794600000007
 10
201.913489999999
 20
-75.71917800000007
 10
201.913489999999
 20
-75.67041000000006
 10
201.913489999999
 20
-75.62164200000007
 10
201.83297199999902
 20
-75.62164200000007
 10
201.752453999999
 20
-75.62164200000007
 10
201.671935999999
 20
-75.62164200000007
 10
201.591417999999
 20
-75.62164200000007
 10
201.510899999999
 20
-75.62164200000007
 10
201.43038199999899
 20
-75.62164200000007
 10
201.349863999999
 20
-75.62164200000007
 10
201.269345999999
 20
-75.62164200000007
 10
201.18882799999898
 20
-75.62164200000007
 10
201.108309999999
 20
-75.62164200000007
 10
201.02779199999898
 20
-75.62164200000007
 10
200.947273999999
 20
-75.62164200000007
 10
200.866755999999
 20
-75.62164200000007
 10
200.78623799999897
 20
-75.62164200000007
 10
200.705719999999
 20
-75.62164200000007
 10
200.62520199999898
 20
-75.62164200000007
 10
200.54468399999897
 20
-75.62164200000007
 10
200.46416599999898
 20
-75.62164200000007
 10
200.38364799999897
 20
-75.62164200000007
 10
200.30312999999896
 20
-75.62164200000007
 10
200.22261199999897
 20
-75.62164200000007
 10
200.14209399999896
 20
-75.62164200000007
 10
200.06157599999895
 20
-75.62164200000007
 10
199.98105799999897
 20
-75.62164200000007
 10
199.90053999999895
 20
-75.62164200000007
 10
199.82002199999897
 20
-75.62164200000007
 10
199.73950399999896
 20
-75.62164200000007
 10
199.65898599999895
 20
-75.62164200000007
 10
199.57846799999896
 20
-75.62164200000007
 10
199.49794999999895
 20
-75.62164200000007
 10
199.41743199999894
 20
-75.62164200000007
 10
199.33691399999896
 20
-75.62164200000007
 10
199.26807999999895
 20
-75.61986400000006
 10
199.20000799999895
 20
-75.61478400000007
 10
199.13295199999894
 20
-75.60614800000006
 10
199.06716599999893
 20
-75.59446400000007
 10
199.00239599999895
 20
-75.57947800000007
 10
198.93889599999895
 20
-75.56144400000005
 10
198.87666599999895
 20
-75.54036200000004
 10
198.81595999999894
 20
-75.51648600000006
 10
198.75677799999895
 20
-75.48956200000005
 10
198.69911999999897
 20
-75.46009800000006
 10
198.64298599999896
 20
-75.42784000000006
 10
198.58862999999894
 20
-75.39304200000005
 10
198.53605199999893
 20
-75.35570400000006
 10
198.48550599999896
 20
-75.31608000000006
 10
198.43699199999895
 20
-75.27391600000006
 10
198.39050999999895
 20
-75.22972000000006
 10
198.34631399999896
 20
-75.18323800000006
 10
198.30414999999894
 20
-75.13472400000006
 10
198.26452599999897
 20
-75.08417800000007
 10
198.22718799999893
 20
-75.03160000000007
 10
198.19238999999897
 20
-74.97724400000007
 10
198.16013199999898
 20
-74.92111000000007
 10
198.13066799999896
 20
-74.86345200000007
 10
198.10374399999898
 20
-74.80427000000007
 10
198.07986799999895
 20
-74.74356400000008
 10
198.05878599999897
 20
-74.68133400000008
 10
198.04075199999895
 20
-74.61783400000007
 10
198.02576599999898
 20
-74.55306400000008
 10
198.01408199999895
 20
-74.48727800000007
 10
198.00544599999895
 20
-74.42022200000007
 10
198.00036599999896
 20
-74.35215000000008
 10
197.998587999999
 20
-74.28331600000007
 10
197.998587999999
 20
-74.21600600000008
 10
197.998587999999
 20
-74.14869600000009
 10
197.998587999999
 20
-74.08138600000008
 10
197.998587999999
 20
-74.01407600000009
 10
197.998587999999
 20
-73.9467660000001
 10
197.998587999999
 20
-73.87945600000009
 10
197.998587999999
 20
-73.8121460000001
 10
197.998587999999
 20
-73.7448360000001
 10
197.998587999999
 20
-73.6775260000001
 10
197.998587999999
 20
-73.61021600000011
 10
197.998587999999
 20
-73.54290600000012
 10
197.998587999999
 20
-73.47559600000012
 10
197.998587999999
 20
-73.40828600000012
 10
197.998587999999
 20
-73.34097600000013
 10
197.998587999999
 20
-73.27366600000013
 10
197.998587999999
 20
-73.20635600000013
 10
197.998587999999
 20
-73.13904600000014
 10
197.998587999999
 20
-73.07173600000014
 10
197.998587999999
 20
-73.00442600000014
 10
197.998587999999
 20
-72.93711600000015
 10
197.998587999999
 20
-72.86980600000015
 10
197.998587999999
 20
-72.80249600000015
 10
197.998587999999
 20
-72.73518600000016
 10
197.998587999999
 20
-72.66787600000016
 10
197.998587999999
 20
-72.60056600000016
 10
197.998587999999
 20
-72.53325600000016
 10
197.998587999999
 20
-72.46594600000017
 10
197.998587999999
 20
-72.39863600000017
 10
197.998587999999
 20
-72.33132600000017
 10
197.998587999999
 20
-72.26401600000018
 10
197.998587999999
 20
-72.19670600000018
 10
197.998587999999
 20
-72.12939600000018
 10
197.99757199999897
 20
-72.0912960000002
 10
197.99477799999897
 20
-72.05370400000018
 10
197.98995199999896
 20
-72.01662000000019
 10
197.98334799999898
 20
-71.98029800000019
 10
197.97496599999897
 20
-71.94448400000019
 10
197.965059999999
 20
-71.9094320000002
 10
197.95337599999897
 20
-71.8751420000002
 10
197.94016799999898
 20
-71.84161400000019
 10
197.92543599999897
 20
-71.80884800000018
 10
197.90917999999897
 20
-71.7768440000002
 10
197.89139999999898
 20
-71.74585600000019
 10
197.87209599999898
 20
-71.71588400000019
 10
197.85152199999897
 20
-71.6869280000002
 10
197.82967799999895
 20
-71.65898800000019
 10
197.80630999999897
 20
-71.6320640000002
 10
197.78192599999895
 20
-71.6064100000002
 10
197.75627199999897
 20
-71.5820260000002
 10
197.72934799999896
 20
-71.55891200000019
 10
197.70140799999896
 20
-71.53706800000019
 10
197.67245199999894
 20
-71.51649400000018
 10
197.64247999999893
 20
-71.49719000000017
 10
197.61149199999895
 20
-71.47941000000019
 10
197.57948799999895
 20
-71.46315400000017
 10
197.54672199999894
 20
-71.44842200000018
 10
197.51319399999895
 20
-71.43521400000017
 10
197.47890399999898
 20
-71.42353000000017
 10
197.44385199999894
 20
-71.41362400000017
 10
197.40803799999895
 20
-71.40549600000018
 10
197.37171599999897
 20
-71.39889200000017
 10
197.33463199999898
 20
-71.39432000000018
 10
197.29703999999896
 20
-71.39152600000018
 10
197.25893999999897
 20
-71.39051000000018
 10
196.50455999999895
 20
-71.39101800000017
 10
195.75017999999895
 20
-71.39152600000018
 10
194.99579999999895
 20
-71.39203400000018
 10
194.24141999999893
 20
-71.39254200000018
 10
193.48703999999893
 20
-71.39305000000019
 10
192.73265999999893
 20
-71.39355800000018
 10
191.97827999999893
 20
-71.3940660000002
 10
191.2238999999989
 20
-71.39457400000019
 10
190.4695199999989
 20
-71.3950820000002
 10
189.7151399999989
 20
-71.3955900000002
 10
188.96075999999888
 20
-71.3960980000002
 10
188.2063799999989
 20
-71.3966060000002
 10
187.4519999999989
 20
-71.3971140000002
 10
186.69761999999886
 20
-71.39762200000021
 10
185.94323999999887
 20
-71.39813000000021
 10
185.18885999999887
 20
-71.39863800000022
 10
184.43447999999884
 20
-71.39914600000021
 10
183.68009999999884
 20
-71.39965400000021
 10
182.92571999999885
 20
-71.40016200000022
 10
182.17133999999882
 20
-71.40067000000022
 10
181.41695999999882
 20
-71.40117800000023
 10
180.66257999999883
 20
-71.40168600000023
 10
179.9081999999988
 20
-71.40219400000024
 10
179.1538199999988
 20
-71.40270200000023
 10
178.3994399999988
 20
-71.40321000000023
 10
177.64505999999878
 20
-71.40371800000024
 10
176.89067999999878
 20
-71.40422600000024
 10
176.13629999999878
 20
-71.40473400000025
 10
175.38191999999876
 20
-71.40524200000024
 10
174.62753999999876
 20
-71.40575000000025
 10
173.87315999999876
 20
-71.40625800000025
 10
173.11877999999874
 20
-71.40676600000025
 10
173.04461199999875
 20
-71.94473800000026
 10
172.94758399999876
 20
-72.46442200000025
 10
172.82896599999876
 20
-72.96632600000025
 10
172.68977399999875
 20
-73.45070400000024
 10
172.53153199999875
 20
-73.91781000000024
 10
172.35550999999876
 20
-74.36764400000024
 10
172.16272399999875
 20
-74.80071400000024
 10
171.95469799999876
 20
-75.21702000000025
 10
171.73244799999875
 20
-75.61681600000024
 10
171.49749799999876
 20
-76.00061000000025
 10
171.25111799999877
 20
-76.36840200000024
 10
170.99432399999876
 20
-76.72044600000025
 10
170.72863999999876
 20
-77.05699600000025
 10
170.45508199999875
 20
-77.37856000000026
 10
170.17517399999875
 20
-77.68513800000025
 10
169.88993199999874
 20
-77.97698400000026
 10
169.60087999999874
 20
-78.25409800000025
 10
169.30903399999875
 20
-78.51698800000027
 10
169.01591799999875
 20
-78.76590800000027
 10
168.72254799999874
 20
-79.00111200000026
 10
168.43044799999876
 20
-79.22285400000027
 10
168.14063399999876
 20
-79.43113400000026
 10
167.85437599999878
 20
-79.62646000000026
 10
167.57319799999877
 20
-79.80883200000027
 10
167.2981159999988
 20
-79.97875800000027
 10
167.03065399999878
 20
-80.13623800000026
 10
166.77182799999878
 20
-80.28178000000025
 10
166.52290799999878
 20
-80.41538400000026
 10
166.2851639999988
 20
-80.53730400000026
 10
166.0601199999988
 20
-80.64804800000026
 10
165.84879199999878
 20
-80.74761600000026
 10
165.65244999999877
 20
-80.83626200000026
 10
165.80307199999876
 20
-80.82229200000026
 10
165.95394799999877
 20
-80.80959200000025
 10
166.1050779999988
 20
-80.79816200000025
 10
166.25646199999878
 20
-80.78825600000025
 10
166.4080999999988
 20
-80.77962000000025
 10
166.55999199999877
 20
-80.77225400000026
 10
166.7121379999988
 20
-80.76615800000026
 10
166.8645379999988
 20
-80.76133200000025
 10
167.01744599999878
 20
-80.75777600000025
 10
167.17060799999877
 20
-80.75549000000025
 10
167.3240239999988
 20
-80.75447400000024
 10
167.4776939999988
 20
-80.75447400000024
 10
167.6318719999988
 20
-80.75574400000023
 10
167.78630399999878
 20
-80.75828400000024
 10
167.94124399999876
 20
-80.76209400000023
 10
168.09643799999876
 20
-80.76692000000024
 10
168.25213999999878
 20
-80.77301600000024
 10
168.40809599999878
 20
-80.78038200000023
 10
168.56455999999878
 20
-80.78876400000024
 10
168.7212779999988
 20
-80.79841600000024
 10
168.87850399999877
 20
-80.80908400000024
 10
169.03623799999878
 20
-80.82102200000024
 10
169.19422599999876
 20
-80.83397600000023
 10
169.35272199999878
 20
-80.84794600000023
 10
169.51172599999876
 20
-80.86318600000024
 10
169.67123799999877
 20
-80.87944200000025
 10
169.83125799999877
 20
-80.89671400000024
 10
169.99178599999877
 20
-80.91500200000024
 10
170.15256799999878
 20
-80.93456000000025
 10
170.31385799999876
 20
-80.95513400000024
 10
170.47565599999876
 20
-80.97672400000025
 10
170.63796199999877
 20
-80.99933000000024
 10
170.87138799999875
 20
-81.03412800000024
 10
171.10532199999878
 20
-81.07222800000024
 10
171.33976399999878
 20
-81.11388400000023
 10
171.57445999999877
 20
-81.15909600000023
 10
171.80890199999877
 20
-81.20811800000023
 10
172.04334399999877
 20
-81.26069600000022
 10
172.27727799999877
 20
-81.31733800000023
 10
172.51070399999878
 20
-81.37779000000023
 10
172.74336799999878
 20
-81.44230600000023
 10
172.9750159999988
 20
-81.51088600000023
 10
173.2053939999988
 20
-81.58353000000022
 10
173.43450199999882
 20
-81.66049200000023
 10
173.6620859999988
 20
-81.74177200000022
 10
173.8878919999988
 20
-81.82762400000023
 10
174.1119199999988
 20
-81.91779400000024
 10
174.3336619999988
 20
-82.01253600000024
 10
174.55311799999882
 20
-82.11210400000023
 10
174.77003399999882
 20
-82.21649800000023
 10
174.98440999999883
 20
-82.32571800000024
 10
175.19599199999882
 20
-82.43976400000024
 10
175.40452599999884
 20
-82.55889000000023
 10
175.60975799999883
 20
-82.68309600000023
 10
175.81143399999883
 20
-82.81238200000024
 10
176.00955399999881
 20
-82.94700200000023
 10
176.20386399999882
 20
-83.08695600000023
 10
176.39410999999882
 20
-83.23249800000022
 10
176.58029199999882
 20
-83.38337400000022
 10
176.7621559999988
 20
-83.53983800000022
 10
176.9394479999988
 20
-83.70214400000022
 10
177.1119139999988
 20
-83.87003800000022
 10
177.2795539999988
 20
-84.04377400000023
 10
177.4418599999988
 20
-84.22360600000023
 10
177.4576079999988
 20
-84.21547800000023
 10
177.4733559999988
 20
-84.20709600000023
 10
177.4891039999988
 20
-84.19871400000022
 10
177.5048519999988
 20
-84.19007800000023
 10
177.5205999999988
 20
-84.18144200000023
 10
177.53609399999883
 20
-84.17255200000022
 10
177.55158799999884
 20
-84.16366200000022
 10
177.56708199999883
 20
-84.15451800000022
 10
177.58257599999885
 20
-84.14512000000022
 10
177.59781599999883
 20
-84.13572200000023
 10
177.61305599999883
 20
-84.12607000000023
 10
177.6282959999988
 20
-84.11641800000022
 10
177.6432819999988
 20
-84.10651200000022
 10
177.6582679999988
 20
-84.09635200000022
 10
177.6732539999988
 20
-84.08619200000022
 10
177.68798599999877
 20
-84.07577800000021
 10
177.70271799999878
 20
-84.06511000000023
 10
177.7174499999988
 20
-84.05444200000024
 10
177.7319279999988
 20
-84.04352000000023
 10
177.74640599999879
 20
-84.03234400000024
 10
177.76088399999878
 20
-84.02116800000024
 10
177.7751079999988
 20
-84.00973800000024
 10
177.7893319999988
 20
-83.99805400000024
 10
177.8033019999988
 20
-83.98637000000024
 10
177.81727199999878
 20
-83.97443200000023
 10
177.83124199999878
 20
-83.96224000000024
 10
177.84495799999877
 20
-83.94979400000024
 10
177.85867399999876
 20
-83.93734800000024
 10
177.87213599999876
 20
-83.92464800000025
 10
177.88559799999877
 20
-83.91169400000024
 10
177.89880599999876
 20
-83.89848600000023
 10
177.91201399999878
 20
-83.88502400000024
 10
178.15813999999878
 20
-83.63635800000024
 10
178.40350399999878
 20
-83.39759800000024
 10
178.6483599999988
 20
-83.16874400000025
 10
178.8929619999988
 20
-82.94954200000024
 10
179.13756399999878
 20
-82.73973800000023
 10
179.3824199999988
 20
-82.53933200000024
 10
179.6275299999988
 20
-82.34807000000025
 10
179.8734019999988
 20
-82.16595200000025
 10
180.1200359999988
 20
-81.99272400000024
 10
180.36793999999878
 20
-81.82813200000024
 10
180.6171139999988
 20
-81.67217600000025
 10
180.8680659999988
 20
-81.52460200000024
 10
181.12079599999882
 20
-81.38515600000024
 10
181.37555799999882
 20
-81.25383800000024
 10
181.63260599999882
 20
-81.13039400000025
 10
181.89219399999882
 20
-81.01482400000025
 10
182.15457599999883
 20
-80.90687400000024
 10
182.4200059999988
 20
-80.80654400000026
 10
182.68848399999882
 20
-80.71332600000025
 10
182.9605179999988
 20
-80.62747400000025
 10
183.23636199999882
 20
-80.54848000000025
 10
183.5160159999988
 20
-80.47634400000025
 10
183.7997339999988
 20
-80.41106600000025
 10
184.08802399999882
 20
-80.35213800000024
 10
184.3808859999988
 20
-80.29981400000024
 10
184.67857399999883
 20
-80.25358600000023
 10
184.98134199999882
 20
-80.21345400000023
 10
185.2894439999988
 20
-80.17916400000023
 10
185.60313399999882
 20
-80.15071600000023
 10
185.92266599999883
 20
-80.12785600000024
 10
186.2480399999988
 20
-80.11058400000023
 10
186.57976399999882
 20
-80.09864600000023
 10
186.6633299999988
 20
-80.09636000000023
 10
186.7468959999988
 20
-80.09432800000023
 10
186.8304619999988
 20
-80.09255000000023
 10
186.91402799999878
 20
-80.09102600000024
 10
186.99759399999877
 20
-80.08975600000024
 10
187.08115999999876
 20
-80.08874000000023
 10
187.16472599999875
 20
-80.08772400000022
 10
187.2482919999987
 20
-80.08696200000023
 10
187.3318579999987
 20
-80.08645400000023
 10
187.4151699999987
 20
-80.08594600000022
 10
187.4984819999987
 20
-80.08569200000024
 10
187.5817939999987
 20
-80.08543800000024
 10
187.6651059999987
 20
-80.08543800000024
 10
187.74841799999868
 20
-80.08543800000024
 10
187.8317299999987
 20
-80.08569200000024
 10
187.91504199999866
 20
-80.08594600000022
 10
187.99835399999867
 20
-80.08620000000022
 10
188.08166599999865
 20
-80.08645400000022
 10
188.16497799999865
 20
-80.08696200000021
 10
188.24828999999863
 20
-80.08747000000022
 10
188.33160199999864
 20
-80.08797800000022
 10
188.41491399999862
 20
-80.08848600000023
 10
188.49822599999862
 20
-80.08899400000023
 10
188.58153799999863
 20
-80.08950200000022
 10
188.6648499999986
 20
-80.09001000000023
 10
188.74816199999862
 20
-80.09026400000023
 10
188.8314739999986
 20
-80.09051800000022
 10
188.9147859999986
 20
-80.09077200000021
 10
188.99809799999858
 20
-80.09102600000021
 10
189.08140999999858
 20
-80.09102600000021
 10
189.16472199999856
 20
-80.09102600000021
 10
189.24803399999857
 20
-80.09077200000021
 10
189.44081999999858
 20
-80.09026400000022
 10
189.63360599999857
 20
-80.08975600000021
 10
189.82639199999858
 20
-80.08924800000021
 10
190.0191779999986
 20
-80.0887400000002
 10
190.2122179999986
 20
-80.0882320000002
 10
190.40500399999857
 20
-80.0877240000002
 10
190.59778999999858
 20
-80.0872160000002
 10
190.7905759999986
 20
-80.0867080000002
 10
190.9836159999986
 20
-80.08620000000019
 10
191.1764019999986
 20
-80.0856920000002
 10
191.3691879999986
 20
-80.08518400000018
 10
191.56222799999858
 20
-80.08467600000019
 10
191.7550139999986
 20
-80.08416800000018
 10
191.9477999999986
 20
-80.08366000000018
 10
192.1405859999986
 20
-80.08315200000018
 10
192.3336259999986
 20
-80.08264400000017
 10
192.5264119999986
 20
-80.08213600000018
 10
192.7191979999986
 20
-80.08162800000017
 10
192.9122379999986
 20
-80.08112000000017
 10
193.10502399999862
 20
-80.08061200000016
 10
193.2978099999986
 20
-80.08010400000016
 10
193.4908499999986
 20
-80.07959600000017
 10
193.68363599999861
 20
-80.07908800000016
 10
193.87642199999863
 20
-80.07858000000016
 10
194.06946199999862
 20
-80.07807200000015
 10
194.2622479999986
 20
-80.07756400000015
 10
194.45503399999862
 20
-80.07705600000014
 10
194.64807399999862
 20
-80.07654800000014
 10
194.84085999999863
 20
-80.07604000000015
 10
195.03364599999864
 20
-80.07553200000014
 10
195.22668599999864
 20
-80.07502400000014
 10
195.41947199999862
 20
-80.07451600000013
 10
195.94880799999862
 20
-80.07604000000013
 10
196.4781439999986
 20
-80.07756400000012
 10
197.0074799999986
 20
-80.07908800000011
 10
197.53681599999857
 20
-80.0806120000001
 10
198.06615199999857
 20
-80.0821360000001
 10
198.59548799999854
 20
-80.0836600000001
 10
199.12482399999854
 20
-80.08518400000008
 10
199.6541599999985
 20
-80.08670800000007
 10
200.1834959999985
 20
-80.08823200000008
 10
200.71283199999849
 20
-80.08975600000007
 10
201.2421679999985
 20
-80.09128000000005
 10
201.77150399999846
 20
-80.09280400000004
 10
202.30083999999846
 20
-80.09432800000005
 10
202.83017599999843
 20
-80.09585200000004
 10
203.35951199999843
 20
-80.09737600000003
 10
203.8888479999984
 20
-80.09890000000001
 10
204.4181839999984
 20
-80.10042400000002
 10
204.94751999999838
 20
-80.10194800000001
 10
205.47685599999838
 20
-80.103472
 10
206.00619199999835
 20
-80.10499599999999
 10
206.53552799999835
 20
-80.10651999999999
 10
207.06486399999832
 20
-80.10804399999998
 10
207.59419999999832
 20
-80.10956799999997
 10
208.1235359999983
 20
-80.11109199999997
 10
208.6528719999983
 20
-80.11261599999996
 10
209.18220799999827
 20
-80.11413999999995
 10
209.71154399999827
 20
-80.11566399999994
 10
210.24087999999824
 20
-80.11718799999994
 10
210.77021599999824
 20
-80.11871199999993
 10
211.29955199999822
 20
-80.12023599999992
 10
211.82888799999822
 20
-80.12175999999991
 10
212.3582239999982
 20
-80.12328399999991
 10
212.4816679999982
 20
-80.13471399999992
 10
212.60053999999818
 20
-80.14588999999991
 10
212.71509399999817
 20
-80.1570659999999
 10
212.8253299999982
 20
-80.16798799999991
 10
212.9317559999982
 20
-80.1789099999999
 10
213.03437199999817
 20
-80.18983199999991
 10
213.13343199999818
 20
-80.2007539999999
 10
213.22918999999817
 20
-80.21192999999991
 10
213.32189999999815
 20
-80.2231059999999
 10
213.41181599999817
 20
-80.2345359999999
 10
213.49919199999817
 20
-80.24621999999991
 10
213.58402799999817
 20
-80.25815799999991
 10
213.66657799999817
 20
-80.27034999999991
 10
213.74734999999816
 20
-80.2827959999999
 10
213.8263439999982
 20
-80.2954959999999
 10
213.90355999999818
 20
-80.3087039999999
 10
213.97950599999817
 20
-80.32241999999991
 10
214.05443599999816
 20
-80.33664399999991
 10
214.12834999999816
 20
-80.3513759999999
 10
214.20175599999817
 20
-80.3666159999999
 10
214.27465399999818
 20
-80.3823639999999
 10
214.34729799999818
 20
-80.3988739999999
 10
214.41994199999814
 20
-80.4158919999999
 10
214.49258599999814
 20
-80.4336719999999
 10
214.56573799999813
 20
-80.4522139999999
 10
214.63939799999812
 20
-80.4715179999999
 10
214.71407399999813
 20
-80.4915839999999
 10
214.78976599999814
 20
-80.51266599999991
 10
214.86672799999812
 20
-80.53450999999991
 10
214.94521399999812
 20
-80.5573699999999
 10
215.02522399999813
 20
-80.58124599999991
 10
215.10726599999813
 20
-80.60613799999992
 10
215.17076599999814
 20
-80.62544199999992
 10
215.23502799999815
 20
-80.64499999999991
 10
215.30030599999813
 20
-80.66481199999991
 10
215.36609199999813
 20
-80.68513199999991
 10
215.43213199999812
 20
-80.7059599999999
 10
215.49817199999814
 20
-80.7275499999999
 10
215.56395799999814
 20
-80.7499019999999
 10
215.62948999999813
 20
-80.7732699999999
 10
215.69425999999814
 20
-80.7976539999999
 10
215.75826799999814
 20
-80.8233079999999
 10
215.8210059999981
 20
-80.85023199999989
 10
215.8824739999981
 20
-80.8786799999999
 10
215.9424179999981
 20
-80.9086519999999
 10
216.0003299999981
 20
-80.94014799999991
 10
216.0562099999981
 20
-80.9734219999999
 10
216.1098039999981
 20
-81.0087279999999
 10
216.16085799999811
 20
-81.0460659999999
 10
216.2091179999981
 20
-81.0854359999999
 10
216.25432999999813
 20
-81.12709199999989
 10
216.29649399999815
 20
-81.17128799999989
 10
216.33510199999816
 20
-81.21802399999989
 10
216.36989999999813
 20
-81.26729999999989
 10
216.40063399999812
 20
-81.31936999999989
 10
216.42730399999814
 20
-81.3742339999999
 10
216.44940199999812
 20
-81.4321459999999
 10
216.46692799999812
 20
-81.4931059999999
 10
216.47962799999812
 20
-81.5573679999999
 10
216.4869939999981
 20
-81.6249319999999
 10
216.48902599999812
 20
-81.6960519999999
 10
216.48546999999812
 20
-81.77072799999989
 10
216.4760719999981
 20
-81.84921399999989
 10
216.4605779999981
 20
-81.9315099999999
 10
216.45854599999808
 20
-81.9406539999999
 10
216.45270399999808
 20
-81.9670699999999
 10
216.44330599999807
 20
-82.00948799999989
 10
216.43060599999808
 20
-82.06689199999988
 10
216.41485799999808
 20
-82.13801199999988
 10
216.39631599999808
 20
-82.22183199999988
 10
216.3752339999981
 20
-82.31708199999987
 10
216.3518659999981
 20
-82.42274599999988
 10
216.32646599999808
 20
-82.53755399999987
 10
216.29928799999809
 20
-82.66048999999987
 10
216.27058599999808
 20
-82.79028399999987
 10
216.24061399999806
 20
-82.92566599999988
 10
216.20962599999808
 20
-83.06561999999988
 10
216.1778759999981
 20
-83.20912999999987
 10
216.14561799999808
 20
-83.35492599999988
 10
216.11310599999808
 20
-83.50173799999988
 10
216.08059399999806
 20
-83.64854999999987
 10
216.04833599999807
 20
-83.79434599999988
 10
216.01658599999809
 20
-83.93785599999987
 10
215.9855979999981
 20
-84.07780999999987
 10
215.9556259999981
 20
-84.21319199999988
 10
215.92692399999805
 20
-84.34273199999987
 10
215.89974599999806
 20
-84.46541399999987
 10
215.87434599999807
 20
-84.58022199999986
 10
215.85097799999807
 20
-84.68563199999987
 10
215.8298959999981
 20
-84.78088199999988
 10
215.8113539999981
 20
-84.86444799999988
 10
215.7956059999981
 20
-84.93556799999988
 10
215.7829059999981
 20
-84.99271799999988
 10
215.7735079999981
 20
-85.03513599999987
 10
215.7676659999981
 20
-85.06129799999987
 10
215.76563399999807
 20
-85.07018799999987
 10
215.83446799999805
 20
-85.04072399999988
 10
215.90685799999804
 20
-85.01176799999989
 10
215.98254999999804
 20
-84.9830659999999
 10
216.06154399999807
 20
-84.9548719999999
 10
216.14383999999805
 20
-84.92693199999988
 10
216.22918399999804
 20
-84.89949999999989
 10
216.31732199999806
 20
-84.87232199999988
 10
216.40825399999804
 20
-84.84565199999987
 10
216.50197999999804
 20
-84.81923599999988
 10
216.59824599999806
 20
-84.79332799999989
 10
216.69679799999804
 20
-84.76767399999989
 10
216.79763599999808
 20
-84.7425279999999
 10
216.90075999999806
 20
-84.71763599999989
 10
217.00591599999805
 20
-84.69325199999989
 10
217.11310399999806
 20
-84.66937599999989
 10
217.22206999999804
 20
-84.64575399999988
 10
217.33255999999804
 20
-84.62263999999988
 10
217.44482799999804
 20
-84.60003399999988
 10
217.55836599999805
 20
-84.57768199999987
 10
217.67342799999804
 20
-84.55583799999987
 10
217.78950599999803
 20
-84.53450199999986
 10
217.90685399999802
 20
-84.51341999999985
 10
218.02521799999803
 20
-84.49284599999986
 10
218.14434399999803
 20
-84.47277999999986
 10
218.26423199999803
 20
-84.45322199999985
 10
218.38462799999806
 20
-84.43391799999985
 10
218.50553199999806
 20
-84.41512199999984
 10
218.62694399999805
 20
-84.39683399999984
 10
218.74860999999805
 20
-84.37905399999985
 10
218.87027599999806
 20
-84.36178199999985
 10
218.99194199999806
 20
-84.34501799999985
 10
219.11360799999807
 20
-84.32876199999986
 10
219.1938719999981
 20
-84.31834799999986
 10
219.2741359999981
 20
-84.30818799999984
 10
219.3543999999981
 20
-84.29828199999986
 10
219.4349179999981
 20
-84.28888399999985
 10
219.51543599999812
 20
-84.27973999999986
 10
219.5959539999981
 20
-84.27084999999985
 10
219.6764719999981
 20
-84.26221399999986
 10
219.75698999999813
 20
-84.25408599999986
 10
219.8375079999981
 20
-84.24621199999986
 10
219.91802599999812
 20
-84.23859199999987
 10
219.9985439999981
 20
-84.23147999999986
 10
220.0793159999981
 20
-84.22462199999985
 10
220.1600879999981
 20
-84.21801799999986
 10
220.2408599999981
 20
-84.21166799999986
 10
220.3216319999981
 20
-84.20582599999986
 10
220.40240399999809
 20
-84.20023799999986
 10
220.48317599999808
 20
-84.19490399999985
 10
220.56394799999808
 20
-84.19007799999986
 10
220.64471999999807
 20
-84.18550599999986
 10
220.72549199999807
 20
-84.18118799999986
 10
220.80626399999807
 20
-84.17712399999986
 10
220.88703599999806
 20
-84.17356799999986
 10
220.96780799999806
 20
-84.17026599999986
 10
221.04857999999805
 20
-84.16721799999986
 10
221.12960599999806
 20
-84.16442399999985
 10
221.21063199999804
 20
-84.16213799999986
 10
221.29165799999802
 20
-84.16010599999986
 10
221.37268399999803
 20
-84.15832799999986
 10
221.453709999998
 20
-84.15680399999987
 10
221.534735999998
 20
-84.15578799999986
 10
221.615761999998
 20
-84.15502599999986
 10
221.69678799999798
 20
-84.15451799999985
 10
222.46742399999798
 20
-84.16010599999986
 10
223.23831399999798
 20
-84.16569399999986
 10
224.00894999999798
 20
-84.17128199999985
 10
224.77983999999796
 20
-84.17686999999985
 10
225.55047599999796
 20
-84.18245799999984
 10
226.32136599999797
 20
-84.18804599999984
 10
227.09200199999796
 20
-84.19363399999985
 10
227.86289199999794
 20
-84.19922199999984
 10
228.63352799999794
 20
-84.20480999999984
 10
229.40416399999793
 20
-84.21039799999984
 10
230.17505399999794
 20
-84.21598599999983
 10
230.94568999999794
 20
-84.22157399999983
 10
231.71657999999792
 20
-84.22716199999984
 10
232.48721599999791
 20
-84.23274999999983
 10
233.25810599999792
 20
-84.23833799999983
 10
234.02874199999792
 20
-84.24392599999982
 10
234.7996319999979
 20
-84.24951399999982
 10
235.5702679999979
 20
-84.25510199999982
 10
236.3409039999979
 20
-84.26068999999981
 10
237.1117939999979
 20
-84.26627799999982
 10
237.8824299999979
 20
-84.27186599999982
 10
238.65331999999788
 20
-84.2774539999998
 10
239.42395599999787
 20
-84.28304199999981
 10
240.19484599999788
 20
-84.28862999999981
 10
240.96548199999788
 20
-84.2942179999998
 10
241.73637199999786
 20
-84.2998059999998
 10
242.50700799999785
 20
-84.3053939999998
 10
243.27764399999785
 20
-84.3109819999998
 10
244.04853399999786
 20
-84.3165699999998
 10
244.81916999999785
 20
-84.32215799999979
 10
245.59005999999783
 20
-84.32774599999979
 10
246.36069599999783
 20
-84.3333339999998
 10
246.48515599999783
 20
-84.3315559999998
 10
246.60834599999785
 20
-84.32469799999978
 10
246.73051999999782
 20
-84.31275999999978
 10
246.85142399999785
 20
-84.29574199999978
 10
246.97080399999786
 20
-84.27389799999978
 10
247.08865999999784
 20
-84.24722799999978
 10
247.20499199999784
 20
-84.21598599999977
 10
247.31954599999784
 20
-84.18017199999977
 10
247.43206799999786
 20
-84.13978599999977
 10
247.54255799999783
 20
-84.09482799999977
 10
247.65101599999784
 20
-84.04555199999976
 10
247.75718799999785
 20
-83.99221199999977
 10
247.86081999999786
 20
-83.93455399999978
 10
247.96191199999785
 20
-83.87283199999978
 10
248.06046399999786
 20
-83.80729999999978
 10
248.15622199999785
 20
-83.73770399999978
 10
248.24918599999785
 20
-83.66429799999979
 10
248.33910199999787
 20
-83.58733599999978
 10
248.42596999999785
 20
-83.50681799999978
 10
248.50953599999784
 20
-83.42274399999978
 10
248.58979999999784
 20
-83.33511399999978
 10
248.66650799999786
 20
-83.24418199999977
 10
248.73965999999785
 20
-83.14994799999978
 10
248.80925599999784
 20
-83.05266599999977
 10
248.87504199999785
 20
-82.95233599999979
 10
248.93676399999788
 20
-82.84895799999978
 10
248.99442199999785
 20
-82.74278599999978
 10
249.04801599999786
 20
-82.6338199999998
 10
249.09703799999787
 20
-82.5220599999998
 10
249.1417419999979
 20
-82.4077599999998
 10
249.1818739999979
 20
-82.2909199999998
 10
249.21743399999787
 20
-82.1717939999998
 10
249.25883599999787
 20
-82.0206639999998
 10
249.3004919999979
 20
-81.86953399999979
 10
249.34214799999788
 20
-81.71840399999978
 10
249.38354999999788
 20
-81.56727399999978
 10
249.42520599999787
 20
-81.41614399999978
 10
249.46686199999786
 20
-81.26501399999977
 10
249.50851799999788
 20
-81.11388399999976
 10
249.54991999999788
 20
-80.96275399999975
 10
249.59157599999787
 20
-80.81162399999974
 10
249.63323199999786
 20
-80.66049399999973
 10
249.67463399999787
 20
-80.50936399999974
 10
249.71628999999785
 20
-80.35823399999973
 10
249.75794599999787
 20
-80.20710399999972
 10
249.79960199999786
 20
-80.05597399999971
 10
249.84100399999787
 20
-79.9048439999997
 10
249.88265999999786
 20
-79.75371399999969
 10
249.92431599999784
 20
-79.60258399999968
 10
249.96571799999785
 20
-79.45145399999969
 10
250.00737399999787
 20
-79.30032399999968
 10
250.04902999999786
 20
-79.14919399999967
 10
250.09068599999785
 20
-78.99806399999966
 10
250.13208799999785
 20
-78.84693399999965
 10
250.17374399999784
 20
-78.69580399999964
 10
250.21539999999786
 20
-78.54467399999965
 10
250.25705599999785
 20
-78.39354399999964
 10
250.29845799999785
 20
-78.24241399999963
 10
250.34011399999784
 20
-78.09128399999962
 10
250.38176999999783
 20
-77.94015399999961
 10
250.42317199999783
 20
-77.7890239999996
 10
250.46482799999782
 20
-77.63789399999959
 10
250.50648399999784
 20
-77.4867639999996
 10
250.54813999999783
 20
-77.33563399999959
 10
250.55398199999783
 20
-77.32775999999959
 10
250.56007799999784
 20
-77.31988599999958
 10
250.56642799999784
 20
-77.31226599999958
 10
250.57303199999782
 20
-77.30489999999959
 10
250.57988999999782
 20
-77.29778799999958
 10
250.58674799999784
 20
-77.29092999999959
 10
250.59385999999785
 20
-77.28432599999958
 10
250.60122599999784
 20
-77.27797599999958
 10
250.60859199999786
 20
-77.27187999999958
 10
250.61621199999783
 20
-77.26578399999958
 10
250.62408599999782
 20
-77.25994199999958
 10
250.6319599999978
 20
-77.25435399999958
 10
250.64008799999783
 20
-77.24901999999958
 10
250.64846999999781
 20
-77.24393999999958
 10
250.65685199999783
 20
-77.23911399999959
 10
250.66548799999782
 20
-77.23454199999959
 10
250.67412399999782
 20
-77.2302239999996
 10
250.68301399999783
 20
-77.22615999999958
 10
250.6919039999978
 20
-77.2223499999996
 10
250.7010479999978
 20
-77.21879399999959
 10
250.7101919999978
 20
-77.2154919999996
 10
250.71933599999775
 20
-77.21244399999959
 10
250.7287339999978
 20
-77.20964999999958
 10
250.7381319999978
 20
-77.20710999999959
 10
250.7475299999978
 20
-77.20507799999959
 10
250.75718199999778
 20
-77.2032999999996
 10
250.7668339999978
 20
-77.2017759999996
 10
250.7764859999978
 20
-77.2005059999996
 10
250.7861379999978
 20
-77.1994899999996
 10
250.7960439999978
 20
-77.1987279999996
 10
250.8059499999978
 20
-77.1982199999996
 10
250.8158559999978
 20
-77.19796599999961
 10
252.0086399999978
 20
-77.21472999999959
 10
253.20142399999781
 20
-77.23149399999959
 10
254.3942079999978
 20
-77.24825799999958
 10
255.58699199999782
 20
-77.26502199999958
 10
256.7797759999978
 20
-77.28178599999957
 10
257.9725599999978
 20
-77.29854999999957
 10
259.16534399999784
 20
-77.31531399999956
 10
260.35812799999786
 20
-77.33207799999956
 10
261.5509119999978
 20
-77.34884199999955
 10
262.7436959999978
 20
-77.36560599999954
 10
263.9364799999978
 20
-77.38236999999953
 10
265.12926399999776
 20
-77.39913399999952
 10
266.3220479999977
 20
-77.41589799999952
 10
267.51483199999774
 20
-77.43266199999951
 10
268.7076159999977
 20
-77.4494259999995
 10
269.90039999999766
 20
-77.4661899999995
 10
271.0931839999976
 20
-77.4829539999995
 10
272.28596799999764
 20
-77.49971799999949
 10
273.4787519999976
 20
-77.51648199999948
 10
274.67153599999756
 20
-77.53324599999948
 10
275.8643199999976
 20
-77.55000999999946
 10
277.05710399999754
 20
-77.56677399999946
 10
278.2498879999975
 20
-77.58353799999945
 10
279.4426719999975
 20
-77.60030199999945
 10
280.6354559999975
 20
-77.61706599999944
 10
281.82823999999744
 20
-77.63382999999943
 10
283.02102399999745
 20
-77.65059399999943
 10
284.2138079999974
 20
-77.66735799999942
 10
285.4065919999974
 20
-77.68412199999942
 10
286.59937599999733
 20
-77.7008859999994
 10
287.79215999999735
 20
-77.7176499999994
 10
288.9849439999973
 20
-77.73441399999939
 10
289.0367599999973
 20
-77.7339059999994
 10
289.0878139999973
 20
-77.7306039999994
 10
289.1381059999973
 20
-77.72476199999939
 10
289.1876359999973
 20
-77.7166339999994
 10
289.2364039999973
 20
-77.7059659999994
 10
289.2841559999973
 20
-77.6930119999994
 10
289.33089199999733
 20
-77.67777199999941
 10
289.37661199999735
 20
-77.6602459999994
 10
289.4213159999973
 20
-77.6406879999994
 10
289.46474999999737
 20
-77.6188439999994
 10
289.5069139999973
 20
-77.5949679999994
 10
289.54780799999736
 20
-77.5693139999994
 10
289.5874319999973
 20
-77.5416279999994
 10
289.62553199999735
 20
-77.5121639999994
 10
289.6621079999974
 20
-77.48092199999941
 10
289.6971599999973
 20
-77.44790199999942
 10
289.7306879999974
 20
-77.4133579999994
 10
289.76243799999736
 20
-77.3770359999994
 10
289.79240999999735
 20
-77.33918999999942
 10
289.8206039999974
 20
-77.30007399999941
 10
289.84701999999737
 20
-77.2594339999994
 10
289.87140399999737
 20
-77.2175239999994
 10
289.8937559999974
 20
-77.1743439999994
 10
289.91407599999735
 20
-77.1298939999994
 10
289.93210999999735
 20
-77.0844279999994
 10
289.94811199999737
 20
-77.03794599999941
 10
289.96182799999735
 20
-76.9904479999994
 10
289.9730039999974
 20
-76.9419339999994
 10
289.9818939999974
 20
-76.8924039999994
 10
289.98824399999745
 20
-76.84211199999942
 10
289.9920539999975
 20
-76.79105799999941
 10
289.9933239999975
 20
-76.73949599999942
 10
289.9933239999975
 20
-76.57033199999941
 10
289.9933239999975
 20
-76.40116799999942
 10
289.9933239999975
 20
-76.23200399999942
 10
289.9933239999975
 20
-76.06283999999941
 10
289.9933239999975
 20
-75.89367599999942
 10
289.9933239999975
 20
-75.72451199999942
 10
289.9933239999975
 20
-75.55534799999943
 10
289.9933239999975
 20
-75.38618399999942
 10
289.9933239999975
 20
-75.21701999999942
 10
289.9933239999975
 20
-75.04785599999943
 10
289.9933239999975
 20
-74.87869199999942
 10
289.9933239999975
 20
-74.70952799999942
 10
289.9933239999975
 20
-74.54036399999943
 10
289.9933239999975
 20
-74.37119999999943
 10
289.9933239999975
 20
-74.20203599999942
 10
289.9933239999975
 20
-74.03287199999943
 10
289.9933239999975
 20
-73.86370799999943
 10
289.9933239999975
 20
-73.69454399999942
 10
289.9933239999975
 20
-73.52537999999943
 10
289.9933239999975
 20
-73.35621599999943
 10
289.9933239999975
 20
-73.18705199999943
 10
289.9933239999975
 20
-73.01788799999943
 10
289.9933239999975
 20
-72.84872399999944
 10
289.9933239999975
 20
-72.67955999999944
 10
289.9933239999975
 20
-72.51039599999943
 10
289.9933239999975
 20
-72.34123199999944
 10
289.9933239999975
 20
-72.17206799999944
 10
289.9933239999975
 20
-72.00290399999943
 10
289.9933239999975
 20
-71.83373999999944
 10
289.9933239999975
 20
-71.66457599999944
 10
289.9933239999975
 20
-71.49541199999943
 10
289.9933239999975
 20
-71.32624799999944
 10
287.78580999999747
 20
-71.32777199999943
 10
285.57829599999747
 20
-71.32929599999943
 10
283.37078199999746
 20
-71.33081999999942
 10
281.16326799999746
 20
-71.33234399999941
 10
278.95575399999746
 20
-71.3338679999994
 10
276.74823999999745
 20
-71.3353919999994
 10
274.54072599999745
 20
-71.33691599999939
 10
272.33321199999745
 20
-71.33843999999938
 10
270.12569799999744
 20
-71.33996399999937
 10
267.91818399999744
 20
-71.34148799999937
 10
265.71066999999744
 20
-71.34301199999936
 10
263.5031559999974
 20
-71.34453599999935
 10
261.2956419999974
 20
-71.34605999999935
 10
259.08812799999737
 20
-71.34758399999934
 10
256.88061399999737
 20
-71.34910799999933
 10
254.67309999999736
 20
-71.35063199999932
 10
252.46558599999736
 20
-71.35215599999933
 10
250.25807199999736
 20
-71.35367999999931
 10
248.05055799999735
 20
-71.3552039999993
 10
245.84304399999735
 20
-71.3567279999993
 10
243.63552999999732
 20
-71.3582519999993
 10
241.4280159999973
 20
-71.35977599999929
 10
239.2205019999973
 20
-71.36129999999928
 10
237.0129879999973
 20
-71.36282399999926
 10
234.8054739999973
 20
-71.36434799999927
 10
232.5979599999973
 20
-71.36587199999926
 10
230.3904459999973
 20
-71.36739599999925
 10
228.18293199999727
 20
-71.36891999999924
 10
225.97541799999726
 20
-71.37044399999924
 10
223.76790399999726
 20
-71.37196799999923
 10
221.56038999999726
 20
-71.37349199999922
 10
219.35287599999725
 20
-71.3750159999992
 10
219.18193399999726
 20
-71.3793339999992
 10
219.01327799999726
 20
-71.39228799999921
 10
218.84690799999726
 20
-71.4136239999992
 10
218.68333199999725
 20
-71.44283399999921
 10
218.52254999999724
 20
-71.47991799999922
 10
218.36481599999723
 20
-71.52487599999922
 10
218.21038399999725
 20
-71.57719999999922
 10
218.05950799999724
 20
-71.63688999999923
 10
217.91218799999723
 20
-71.70343799999922
 10
217.76893199999725
 20
-71.77684399999923
 10
217.62973999999724
 20
-71.85685399999923
 10
217.49486599999724
 20
-71.94346799999923
 10
217.36456399999724
 20
-72.03617799999923
 10
217.23908799999725
 20
-72.13498399999924
 10
217.11843799999724
 20
-72.23937799999923
 10
217.00312199999726
 20
-72.34935999999922
 10
216.89313999999726
 20
-72.46492999999923
 10
216.78874599999727
 20
-72.58557999999923
 10
216.69019399999726
 20
-72.71105599999923
 10
216.59748399999725
 20
-72.84135799999923
 10
216.51112399999724
 20
-72.97623199999923
 10
216.43111399999722
 20
-73.11542399999924
 10
216.35770799999725
 20
-73.25867999999925
 10
216.29115999999726
 20
-73.40599999999924
 10
216.23172399999723
 20
-73.55687599999924
 10
216.17939999999723
 20
-73.71130799999924
 10
216.13469599999723
 20
-73.86904199999923
 10
216.09761199999724
 20
-74.02982399999922
 10
216.06840199999723
 20
-74.19339999999923
 10
216.04731999999723
 20
-74.35976999999922
 10
216.03461999999726
 20
-74.52842599999921
  0
LWPOLYLINE
  5
32
330
17
100
AcDbEntity
  8
0
100
AcDbPolyline
 90
128
 70
1
 10
245.01703599999723
 20
-77.43418599999922
 10
245.01297199999723
 20
-77.5997939999992
 10
245.00052599999725
 20
-77.7631159999992
 10
244.97995199999724
 20
-77.92415199999921
 10
244.95175799999726
 20
-78.08264799999921
 10
244.91594399999727
 20
-78.23834999999922
 10
244.87250999999725
 20
-78.39100399999921
 10
244.82196399999725
 20
-78.54060999999922
 10
244.76430599999728
 20
-78.68665999999921
 10
244.69978999999725
 20
-78.8291539999992
 10
244.62866999999727
 20
-78.9678379999992
 10
244.55119999999727
 20
-79.1024579999992
 10
244.4676339999973
 20
-79.2330139999992
 10
244.3779719999973
 20
-79.3592519999992
 10
244.2824679999973
 20
-79.48066399999921
 10
244.1813759999973
 20
-79.5975039999992
 10
244.0749499999973
 20
-79.7092639999992
 10
243.9631899999973
 20
-79.8156899999992
 10
243.84634999999727
 20
-79.9167819999992
 10
243.72468399999727
 20
-80.0122859999992
 10
243.5984459999973
 20
-80.1019479999992
 10
243.46788999999728
 20
-80.1855139999992
 10
243.3332699999973
 20
-80.26298399999921
 10
243.1945859999973
 20
-80.3341039999992
 10
243.05209199999726
 20
-80.3986199999992
 10
242.90604199999726
 20
-80.45627799999919
 10
242.75643599999725
 20
-80.5068239999992
 10
242.60378199999724
 20
-80.55025799999919
 10
242.44807999999722
 20
-80.5860719999992
 10
242.28958399999723
 20
-80.61426599999919
 10
242.1285479999972
 20
-80.6348399999992
 10
241.96522599999722
 20
-80.6472859999992
 10
241.7996179999972
 20
-80.6513499999992
 10
241.63400999999718
 20
-80.6472859999992
 10
241.47068799999718
 20
-80.6348399999992
 10
241.3096519999972
 20
-80.61426599999919
 10
241.15115599999717
 20
-80.5860719999992
 10
240.99545399999715
 20
-80.55025799999919
 10
240.84279999999717
 20
-80.5068239999992
 10
240.69319399999713
 20
-80.45627799999919
 10
240.54714399999713
 20
-80.3986199999992
 10
240.40464999999713
 20
-80.3341039999992
 10
240.26596599999712
 20
-80.26298399999921
 10
240.1313459999971
 20
-80.1855139999992
 10
240.00078999999712
 20
-80.1019479999992
 10
239.87455199999712
 20
-80.0122859999992
 10
239.75313999999713
 20
-79.9167819999992
 10
239.63629999999714
 20
-79.8156899999992
 10
239.5245399999971
 20
-79.7092639999992
 10
239.4181139999971
 20
-79.5975039999992
 10
239.3170219999971
 20
-79.48066399999921
 10
239.2215179999971
 20
-79.3592519999992
 10
239.13185599999713
 20
-79.2330139999992
 10
239.04828999999714
 20
-79.1024579999992
 10
238.97081999999716
 20
-78.9678379999992
 10
238.89969999999715
 20
-78.8291539999992
 10
238.83518399999716
 20
-78.68665999999921
 10
238.77752599999715
 20
-78.54060999999922
 10
238.72697999999718
 20
-78.39100399999921
 10
238.68354599999716
 20
-78.23834999999922
 10
238.64773199999718
 20
-78.08264799999921
 10
238.61953799999716
 20
-77.92415199999921
 10
238.59896399999718
 20
-77.7631159999992
 10
238.58651799999717
 20
-77.5997939999992
 10
238.5824539999972
 20
-77.43418599999922
 10
238.58651799999717
 20
-77.26857799999922
 10
238.59896399999718
 20
-77.10525599999923
 10
238.61953799999716
 20
-76.94421999999922
 10
238.64773199999718
 20
-76.78572399999922
 10
238.68354599999716
 20
-76.63002199999922
 10
238.72697999999718
 20
-76.47736799999922
 10
238.77752599999715
 20
-76.32776199999921
 10
238.83518399999716
 20
-76.18171199999922
 10
238.89969999999715
 20
-76.03921799999922
 10
238.97081999999716
 20
-75.90053399999923
 10
239.04828999999714
 20
-75.76591399999924
 10
239.13185599999713
 20
-75.63535799999923
 10
239.2215179999971
 20
-75.50911999999923
 10
239.3170219999971
 20
-75.38770799999922
 10
239.4181139999971
 20
-75.27086799999923
 10
239.5245399999971
 20
-75.15910799999924
 10
239.63629999999714
 20
-75.05268199999924
 10
239.75313999999713
 20
-74.95158999999923
 10
239.87455199999712
 20
-74.85608599999924
 10
240.00078999999712
 20
-74.76642399999923
 10
240.1313459999971
 20
-74.68285799999923
 10
240.26596599999712
 20
-74.60538799999924
 10
240.40464999999713
 20
-74.53426799999924
 10
240.54714399999713
 20
-74.46975199999923
 10
240.69319399999713
 20
-74.41209399999924
 10
240.84279999999717
 20
-74.36154799999923
 10
240.99545399999715
 20
-74.31811399999924
 10
241.15115599999717
 20
-74.28229999999924
 10
241.3096519999972
 20
-74.25410599999924
 10
241.47068799999718
 20
-74.23353199999923
 10
241.63400999999718
 20
-74.22108599999923
 10
241.7996179999972
 20
-74.21702199999923
 10
241.96522599999722
 20
-74.22108599999923
 10
242.1285479999972
 20
-74.23353199999923
 10
242.28958399999723
 20
-74.25410599999924
 10
242.44807999999722
 20
-74.28229999999924
 10
242.60378199999724
 20
-74.31811399999924
 10
242.75643599999725
 20
-74.36154799999923
 10
242.90604199999726
 20
-74.41209399999924
 10
243.05209199999726
 20
-74.46975199999923
 10
243.1945859999973
 20
-74.53426799999924
 10
243.3332699999973
 20
-74.60538799999924
 10
243.46788999999728
 20
-74.68285799999923
 10
243.5984459999973
 20
-74.76642399999923
 10
243.72468399999727
 20
-74.85608599999924
 10
243.84634999999727
 20
-74.95158999999923
 10
243.9631899999973
 20
-75.05268199999924
 10
244.0749499999973
 20
-75.15910799999924
 10
244.1813759999973
 20
-75.27086799999923
 10
244.2824679999973
 20
-75.38770799999922
 10
244.3779719999973
 20
-75.50911999999923
 10
244.4676339999973
 20
-75.63535799999923
 10
244.55119999999727
 20
-75.76591399999924
 10
244.62866999999727
 20
-75.90053399999923
 10
244.69978999999725
 20
-76.03921799999922
 10
244.76430599999728
 20
-76.18171199999922
 10
244.82196399999725
 20
-76.32776199999921
 10
244.87250999999725
 20
-76.47736799999922
 10
244.91594399999727
 20
-76.63002199999922
 10
244.95175799999726
 20
-76.78572399999922
 10
244.97995199999724
 20
-76.94421999999922
 10
245.00052599999725
 20
-77.10525599999923
 10
245.01297199999723
 20
-77.26857799999922
  0
LWPOLYLINE
  5
33
330
17
100
AcDbEntity
  8
0
100
AcDbPolyline
 90
128
 70
1
 10
183.3592979999972
 20
-59.521597999999216
 10
183.1685439999972
 20
-59.51702599999922
 10
182.97778999999724
 20
-59.51245399999922
 10
182.78703599999724
 20
-59.50788199999922
 10
182.59628199999725
 20
-59.50330999999922
 10
182.40552799999725
 20
-59.498737999999214
 10
182.21477399999725
 20
-59.49416599999922
 10
182.02401999999725
 20
-59.489593999999215
 10
181.83326599999725
 20
-59.48502199999922
 10
181.64251199999728
 20
-59.480449999999216
 10
181.45175799999728
 20
-59.47587799999922
 10
181.26100399999729
 20
-59.47130599999922
 10
181.0702499999973
 20
-59.466733999999214
 10
180.8794959999973
 20
-59.46216199999922
 10
180.6887419999973
 20
-59.457589999999215
 10
180.4979879999973
 20
-59.45301799999922
 10
180.30723399999732
 20
-59.448445999999215
 10
180.11647999999732
 20
-59.44387399999921
 10
179.92572599999733
 20
-59.439301999999216
 10
179.73497199999733
 20
-59.43472999999921
 10
179.54421799999733
 20
-59.43015799999922
 10
179.35346399999733
 20
-59.425585999999214
 10
179.16270999999736
 20
-59.42101399999922
 10
178.97195599999736
 20
-59.416441999999215
 10
178.78120199999736
 20
-59.41186999999921
 10
178.59044799999737
 20
-59.407297999999216
 10
178.39969399999737
 20
-59.40272599999921
 10
178.20893999999737
 20
-59.39815399999922
 10
178.01818599999737
 20
-59.39358199999921
 10
177.8274319999974
 20
-59.38900999999921
 10
177.6366779999974
 20
-59.384437999999214
 10
177.4459239999974
 20
-59.37986599999921
 10
177.2551699999974
 20
-59.375293999999215
 10
177.16347599999742
 20
-59.71565399999921
 10
177.0720359999974
 20
-60.056013999999216
 10
176.98034199999742
 20
-60.39637399999921
 10
176.88890199999742
 20
-60.73673399999922
 10
176.7972079999974
 20
-61.077093999999214
 10
176.7057679999974
 20
-61.41745399999922
 10
176.6140739999974
 20
-61.75781399999922
 10
176.5226339999974
 20
-62.09817399999922
 10
176.4309399999974
 20
-62.43853399999922
 10
176.3394999999974
 20
-62.77889399999922
 10
176.2478059999974
 20
-63.11925399999922
 10
176.1563659999974
 20
-63.45961399999922
 10
176.06467199999742
 20
-63.799973999999224
 10
175.9732319999974
 20
-64.14033399999923
 10
175.8815379999974
 20
-64.48069399999923
 10
175.7900979999974
 20
-64.82105399999922
 10
175.6984039999974
 20
-65.16141399999923
 10
175.6069639999974
 20
-65.50177399999922
 10
175.5152699999974
 20
-65.8421339999992
 10
175.4238299999974
 20
-66.1824939999992
 10
175.3321359999974
 20
-66.5228539999992
 10
175.2406959999974
 20
-66.86321399999919
 10
175.1490019999974
 20
-67.20357399999918
 10
175.0575619999974
 20
-67.54393399999918
 10
174.96586799999739
 20
-67.88429399999917
 10
174.8744279999974
 20
-68.22465399999916
 10
174.7827339999974
 20
-68.56501399999915
 10
174.69129399999738
 20
-68.90537399999916
 10
174.59985399999738
 20
-69.24573399999915
 10
174.5081599999974
 20
-69.58609399999914
 10
174.41671999999738
 20
-69.92645399999913
 10
174.3250259999974
 20
-70.26681399999913
 10
174.5157799999974
 20
-70.26706799999911
 10
174.7065339999974
 20
-70.26732199999911
 10
174.8972879999974
 20
-70.26757599999911
 10
175.08804199999736
 20
-70.26782999999911
 10
175.27879599999736
 20
-70.26808399999909
 10
175.46954999999735
 20
-70.26833799999909
 10
175.66030399999735
 20
-70.26859199999909
 10
175.85105799999735
 20
-70.26884599999907
 10
176.04181199999735
 20
-70.26909999999907
 10
176.23256599999732
 20
-70.26935399999907
 10
176.42331999999732
 20
-70.26960799999905
 10
176.61407399999732
 20
-70.26986199999905
 10
176.80482799999731
 20
-70.27011599999905
 10
176.9955819999973
 20
-70.27036999999905
 10
177.1863359999973
 20
-70.27062399999903
 10
177.3770899999973
 20
-70.27087799999903
 10
177.56784399999728
 20
-70.27113199999903
 10
177.75859799999728
 20
-70.27138599999901
 10
177.94935199999728
 20
-70.27163999999901
 10
178.14010599999727
 20
-70.27189399999901
 10
178.33085999999727
 20
-70.27214799999899
 10
178.52161399999727
 20
-70.27240199999899
 10
178.71236799999727
 20
-70.27265599999899
 10
178.90312199999724
 20
-70.27290999999899
 10
179.09387599999724
 20
-70.27316399999897
 10
179.28462999999724
 20
-70.27341799999897
 10
179.47538399999723
 20
-70.27367199999897
 10
179.66613799999723
 20
-70.27392599999895
 10
179.85689199999723
 20
-70.27417999999895
 10
180.0476459999972
 20
-70.27443399999895
 10
180.2383999999972
 20
-70.27468799999895
 10
180.4291539999972
 20
-70.27494199999893
 10
180.5205939999972
 20
-69.93915399999894
 10
180.6120339999972
 20
-69.60336599999893
 10
180.70347399999721
 20
-69.26757799999893
 10
180.79491399999722
 20
-68.93178999999893
 10
180.88635399999723
 20
-68.59600199999893
 10
180.97779399999723
 20
-68.26021399999892
 10
181.06923399999724
 20
-67.92442599999893
 10
181.16067399999721
 20
-67.58863799999892
 10
181.25211399999722
 20
-67.25284999999893
 10
181.34355399999723
 20
-66.91706199999892
 10
181.43499399999723
 20
-66.58127399999893
 10
181.52643399999724
 20
-66.24548599999892
 10
181.61787399999724
 20
-65.90969799999893
 10
181.70931399999725
 20
-65.57390999999892
 10
181.80075399999726
 20
-65.23812199999892
 10
181.89219399999726
 20
-64.90233399999892
 10
181.98363399999727
 20
-64.56654599999892
 10
182.07507399999727
 20
-64.23075799999891
 10
182.16651399999728
 20
-63.89496999999892
 10
182.25795399999728
 20
-63.55918199999892
 10
182.34939399999726
 20
-63.22339399999892
 10
182.44083399999727
 20
-62.88760599999892
 10
182.53227399999727
 20
-62.55181799999892
 10
182.62371399999728
 20
-62.216029999998916
 10
182.71515399999728
 20
-61.880241999998916
 10
182.8065939999973
 20
-61.544453999998915
 10
182.8980339999973
 20
-61.208665999998914
 10
182.9894739999973
 20
-60.87287799999891
 10
183.0809139999973
 20
-60.53708999999891
 10
183.1723539999973
 20
-60.20130199999891
 10
183.26379399999732
 20
-59.86551399999891
  0
LWPOLYLINE
  5
34
330
17
100
AcDbEntity
  8
0
100
AcDbPolyline
 90
544
 70
1
 10
254.8145779999973
 20
-62.96482199999891
 10
254.69138799999732
 20
-62.959233999998915
 10
254.56819799999732
 20
-62.95364599999891
 10
254.4450079999973
 20
-62.948057999998916
 10
254.3218179999973
 20
-62.94246999999892
 10
254.19862799999729
 20
-62.936881999998924
 10
254.0754379999973
 20
-62.93129399999892
 10
253.9522479999973
 20
-62.925705999998925
 10
253.82905799999727
 20
-62.92011799999893
 10
253.70586799999728
 20
-62.91452999999893
 10
253.5826779999973
 20
-62.90894199999893
 10
253.45948799999726
 20
-62.903353999998934
 10
253.33629799999727
 20
-62.89776599999894
 10
253.21310799999728
 20
-62.89217799999894
 10
253.08991799999725
 20
-62.88658999999894
 10
252.96672799999726
 20
-62.881001999998944
 10
252.84353799999727
 20
-62.87541399999895
 10
252.72034799999724
 20
-62.86982599999895
 10
252.59715799999725
 20
-62.86423799999895
 10
252.47396799999726
 20
-62.85864999999895
 10
252.35077799999723
 20
-62.85306199999896
 10
252.22758799999724
 20
-62.847473999998954
 10
252.10439799999725
 20
-62.84188599999896
 10
251.98120799999722
 20
-62.83629799999896
 10
251.85801799999723
 20
-62.830709999998966
 10
251.73482799999724
 20
-62.82512199999896
 10
251.6116379999972
 20
-62.81953399999897
 10
251.48844799999722
 20
-62.81394599999897
 10
251.36525799999723
 20
-62.808357999998975
 10
251.2420679999972
 20
-62.80276999999897
 10
251.1188779999972
 20
-62.797181999998976
 10
250.99568799999722
 20
-62.79159399999898
 10
250.8724979999972
 20
-62.786005999998984
 10
250.8714819999972
 20
-62.821057999998985
 10
250.8689419999972
 20
-62.85560199999898
 10
250.86462399999718
 20
-62.889637999998975
 10
250.8585279999972
 20
-62.92316599999898
 10
250.8509079999972
 20
-62.95618599999898
 10
250.8417639999972
 20
-62.98844399999898
 10
250.8310959999972
 20
-63.01993999999898
 10
250.8189039999972
 20
-63.05092799999898
 10
250.8051879999972
 20
-63.08115399999898
 10
250.7902019999972
 20
-63.11036399999899
 10
250.7736919999972
 20
-63.138811999998985
 10
250.75591199999718
 20
-63.16649799999899
 10
250.7368619999972
 20
-63.193167999998984
 10
250.7167959999972
 20
-63.21882199999898
 10
250.6954599999972
 20
-63.24345999999898
 10
250.6728539999972
 20
-63.267081999998986
 10
250.6492319999972
 20
-63.28968799999898
 10
250.62459399999722
 20
-63.31102399999898
 10
250.5989399999972
 20
-63.33108999999899
 10
250.5722699999972
 20
-63.35013999999898
 10
250.5445839999972
 20
-63.36791999999898
 10
250.5161359999972
 20
-63.38417599999898
 10
250.4869259999972
 20
-63.39916199999898
 10
250.4566999999972
 20
-63.412877999998976
 10
250.4257119999972
 20
-63.42506999999898
 10
250.3942159999972
 20
-63.43573799999898
 10
250.3619579999972
 20
-63.44488199999898
 10
250.3289379999972
 20
-63.45250199999898
 10
250.29540999999722
 20
-63.45859799999898
 10
250.26137399999723
 20
-63.46291599999898
 10
250.22682999999722
 20
-63.46545599999898
 10
250.1917779999972
 20
-63.466217999998975
 10
249.54153799999725
 20
-63.47078999999897
 10
248.89129799999725
 20
-63.475361999998974
 10
248.24105799999725
 20
-63.47993399999898
 10
247.59081799999728
 20
-63.48450599999897
 10
246.9405779999973
 20
-63.489077999998976
 10
246.2903379999973
 20
-63.49364999999897
 10
245.64009799999732
 20
-63.498221999998975
 10
244.98985799999733
 20
-63.50279399999897
 10
244.33961799999733
 20
-63.507365999998974
 10
243.68937799999736
 20
-63.51193799999898
 10
243.03913799999737
 20
-63.51650999999897
 10
242.3888979999974
 20
-63.52108199999898
 10
241.7386579999974
 20
-63.52565399999897
 10
241.0884179999974
 20
-63.530225999998976
 10
240.43817799999744
 20
-63.53479799999898
 10
239.78793799999744
 20
-63.539369999998975
 10
239.13769799999744
 20
-63.54394199999898
 10
238.48745799999747
 20
-63.548513999998974
 10
237.83721799999748
 20
-63.55308599999898
 10
237.1869779999975
 20
-63.55765799999897
 10
236.5367379999975
 20
-63.562229999998976
 10
235.88649799999752
 20
-63.56680199999898
 10
235.23625799999755
 20
-63.571373999998976
 10
234.58601799999755
 20
-63.57594599999898
 10
233.93577799999755
 20
-63.580517999998975
 10
233.2855379999976
 20
-63.58508999999898
 10
232.6352979999976
 20
-63.58966199999898
 10
231.9850579999976
 20
-63.59423399999898
 10
231.33481799999763
 20
-63.59880599999898
 10
230.68457799999763
 20
-63.603377999998976
 10
230.03433799999766
 20
-63.60794999999898
 10
229.38409799999766
 20
-63.61252199999898
 10
229.24566799999766
 20
-63.61302999999898
 10
229.10876199999768
 20
-63.61125199999898
 10
228.97312599999768
 20
-63.607187999998985
 10
228.83901399999766
 20
-63.601091999998985
 10
228.70617199999768
 20
-63.59270999999899
 10
228.57459999999764
 20
-63.582041999998985
 10
228.44429799999764
 20
-63.569087999998985
 10
228.31526599999765
 20
-63.553847999998986
 10
228.18724999999765
 20
-63.53632199999899
 10
228.06024999999764
 20
-63.51650999999899
 10
227.93426599999765
 20
-63.494411999998995
 10
227.80929799999765
 20
-63.47002799999899
 10
227.68534599999762
 20
-63.443103999998996
 10
227.56215599999763
 20
-63.41389399999899
 10
227.43972799999764
 20
-63.38239799999899
 10
227.31806199999764
 20
-63.34836199999899
 10
227.19715799999764
 20
-63.312039999998994
 10
227.07701599999763
 20
-63.273177999999
 10
226.95738199999764
 20
-63.231775999998995
 10
226.8382559999976
 20
-63.188087999999
 10
226.71963799999764
 20
-63.141859999999
 10
226.60152799999761
 20
-63.093091999999
 10
226.4836719999976
 20
-63.041783999999
 10
226.3663239999976
 20
-62.987935999999
 10
226.2492299999976
 20
-62.931547999999
 10
226.13213599999762
 20
-62.872619999998996
 10
226.0152959999976
 20
-62.811151999999
 10
225.8987099999976
 20
-62.747143999999
 10
225.78212399999762
 20
-62.680595999999
 10
225.66553799999764
 20
-62.611253999999
 10
225.54895199999766
 20
-62.539371999999005
 10
225.43211199999763
 20
-62.464949999999
 10
225.39934599999765
 20
-62.443613999999
 10
225.36657999999764
 20
-62.422277999999
 10
225.33381399999763
 20
-62.400941999999
 10
225.30104799999762
 20
-62.379605999998994
 10
225.2682819999976
 20
-62.358269999998996
 10
225.2355159999976
 20
-62.336933999999
 10
225.2027499999976
 20
-62.31559799999899
 10
225.1699839999976
 20
-62.294261999998994
 10
225.1372179999976
 20
-62.272925999998996
 10
225.1044519999976
 20
-62.25158999999899
 10
225.07168599999758
 20
-62.23025399999899
 10
225.03891999999757
 20
-62.20891799999899
 10
225.00615399999757
 20
-62.18758199999899
 10
224.97338799999758
 20
-62.16624599999899
 10
224.94062199999757
 20
-62.14490999999899
 10
224.90785599999757
 20
-62.12357399999899
 10
224.87508999999756
 20
-62.102237999998984
 10
224.84232399999755
 20
-62.080901999998986
 10
224.80955799999754
 20
-62.05956599999899
 10
224.77679199999756
 20
-62.03822999999898
 10
224.74402599999755
 20
-62.016893999998985
 10
224.71125999999754
 20
-61.99555799999898
 10
224.67849399999753
 20
-61.97422199999898
 10
224.64572799999752
 20
-61.95288599999898
 10
224.6129619999975
 20
-61.93154999999898
 10
224.58019599999753
 20
-61.91021399999898
 10
224.54742999999752
 20
-61.888877999998975
 10
224.5146639999975
 20
-61.86754199999898
 10
224.4818979999975
 20
-61.84620599999898
 10
224.4491319999975
 20
-61.824869999998974
 10
224.41636599999748
 20
-61.803533999998976
 10
224.38359999999747
 20
-61.78219799999898
 10
224.1108039999975
 20
-61.78499199999897
 10
223.8380079999975
 20
-61.787785999998974
 10
223.56521199999753
 20
-61.79057999999897
 10
223.29241599999753
 20
-61.79337399999897
 10
223.01961999999753
 20
-61.79616799999897
 10
222.74682399999756
 20
-61.798961999998966
 10
222.47402799999756
 20
-61.80175599999897
 10
222.2012319999976
 20
-61.80454999999897
 10
221.9284359999976
 20
-61.80734399999896
 10
221.6556399999976
 20
-61.810137999998965
 10
221.38284399999762
 20
-61.81293199999896
 10
221.11004799999762
 20
-61.81572599999896
 10
220.83725199999762
 20
-61.81851999999896
 10
220.56445599999765
 20
-61.82131399999896
 10
220.29165999999765
 20
-61.82410799999896
 10
220.01886399999768
 20
-61.82690199999896
 10
219.74606799999768
 20
-61.829695999998954
 10
219.47327199999768
 20
-61.832489999998955
 10
219.2004759999977
 20
-61.83528399999896
 10
218.9276799999977
 20
-61.83807799999895
 10
218.65488399999774
 20
-61.84087199999895
 10
218.38208799999774
 20
-61.84366599999895
 10
218.10929199999774
 20
-61.84645999999895
 10
217.83649599999777
 20
-61.84925399999895
 10
217.56369999999777
 20
-61.852047999998945
 10
217.29090399999777
 20
-61.854841999998946
 10
217.0181079999978
 20
-61.85763599999895
 10
216.7453119999978
 20
-61.86042999999894
 10
216.47251599999782
 20
-61.863223999998944
 10
216.19971999999782
 20
-61.86601799999894
 10
215.92692399999783
 20
-61.86881199999894
 10
215.65412799999785
 20
-61.87160599999894
 10
215.59367599999783
 20
-61.87058999999894
 10
215.53373199999783
 20
-61.86779599999894
 10
215.47429599999782
 20
-61.863223999998944
 10
215.41536799999784
 20
-61.85687399999894
 10
215.35694799999783
 20
-61.84899999999894
 10
215.29903599999784
 20
-61.839347999998935
 10
215.24188599999783
 20
-61.828171999998936
 10
215.18524399999785
 20
-61.815217999998936
 10
215.12910999999784
 20
-61.80073999999894
 10
215.07373799999786
 20
-61.784737999998946
 10
215.01912799999783
 20
-61.766957999998944
 10
214.96502599999786
 20
-61.747653999998946
 10
214.91168599999784
 20
-61.72682599999895
 10
214.85910799999786
 20
-61.70472799999895
 10
214.80729199999786
 20
-61.681105999998955
 10
214.75623799999786
 20
-61.655959999998956
 10
214.70594599999785
 20
-61.62954399999895
 10
214.65641599999785
 20
-61.60185799999895
 10
214.60790199999784
 20
-61.57264799999895
 10
214.56014999999783
 20
-61.542167999998945
 10
214.51341399999785
 20
-61.51041799999895
 10
214.46743999999785
 20
-61.47739799999895
 10
214.42248199999784
 20
-61.44310799999895
 10
214.37853999999783
 20
-61.407801999998945
 10
214.33561399999783
 20
-61.37122599999895
 10
214.29370399999786
 20
-61.33337999999895
 10
214.25280999999785
 20
-61.29451799999895
 10
214.21293199999786
 20
-61.25463999999894
 10
214.17406999999784
 20
-61.21374599999895
 10
214.13647799999785
 20
-61.17183599999895
 10
214.09990199999783
 20
-61.128909999998946
 10
214.06434199999785
 20
-61.084967999998945
 10
213.95766199999787
 20
-61.08014199999894
 10
213.85098199999786
 20
-61.07531599999894
 10
213.74430199999787
 20
-61.07048999999894
 10
213.6376219999979
 20
-61.06566399999894
 10
213.5309419999979
 20
-61.06083799999894
 10
213.4242619999979
 20
-61.05601199999894
 10
213.3175819999979
 20
-61.051185999998935
 10
213.21090199999793
 20
-61.046359999998934
 10
213.10422199999795
 20
-61.04153399999893
 10
212.99754199999794
 20
-61.03670799999893
 10
212.89086199999795
 20
-61.03188199999893
 10
212.78418199999797
 20
-61.02705599999893
 10
212.677501999998
 20
-61.02222999999893
 10
212.570821999998
 20
-61.017403999998926
 10
212.464141999998
 20
-61.012577999998925
 10
212.357461999998
 20
-61.00775199999892
 10
212.25078199999803
 20
-61.00292599999892
 10
212.14410199999804
 20
-60.99809999999892
 10
212.03742199999803
 20
-60.99327399999892
 10
211.93074199999805
 20
-60.98844799999892
 10
211.82406199999807
 20
-60.98362199999892
 10
211.71738199999808
 20
-60.978795999998916
 10
211.61070199999807
 20
-60.973969999998914
 10
211.5040219999981
 20
-60.96914399999891
 10
211.3973419999981
 20
-60.96431799999891
 10
211.29066199999812
 20
-60.95949199999891
 10
211.1839819999981
 20
-60.95466599999891
 10
211.07730199999813
 20
-60.94983999999891
 10
210.97062199999814
 20
-60.945013999998906
 10
210.86394199999816
 20
-60.940187999998905
 10
210.75726199999818
 20
-60.935361999998904
 10
210.65058199999817
 20
-60.9305359999989
 10
210.57031799999817
 20
-61.2236519999989
 10
210.49005399999817
 20
-61.5167679999989
 10
210.40978999999814
 20
-61.809883999998895
 10
210.32952599999814
 20
-62.10299999999889
 10
210.24926199999814
 20
-62.3961159999989
 10
210.16899799999814
 20
-62.689231999998896
 10
210.0887339999981
 20
-62.98234799999889
 10
210.0084699999981
 20
-63.27546399999889
 10
209.9282059999981
 20
-63.56857999999889
 10
209.84794199999808
 20
-63.861695999998894
 10
209.76767799999809
 20
-64.15481199999888
 10
209.68741399999809
 20
-64.44792799999888
 10
209.6071499999981
 20
-64.7410439999989
 10
209.52688599999806
 20
-65.03415999999889
 10
209.44662199999806
 20
-65.32727599999889
 10
209.36635799999806
 20
-65.62039199999889
 10
209.28609399999803
 20
-65.91350799999888
 10
209.20582999999803
 20
-66.2066239999989
 10
209.12556599999803
 20
-66.4997399999989
 10
209.04530199999803
 20
-66.79285599999889
 10
208.965037999998
 20
-67.08597199999889
 10
208.884773999998
 20
-67.37908799999889
 10
208.804509999998
 20
-67.67220399999889
 10
208.72424599999798
 20
-67.96531999999888
 10
208.64398199999798
 20
-68.25843599999888
 10
208.56371799999798
 20
-68.55155199999888
 10
208.48345399999798
 20
-68.84466799999888
 10
208.40318999999795
 20
-69.13778399999889
 10
208.32292599999795
 20
-69.43089999999889
 10
208.24266199999795
 20
-69.72401599999888
 10
208.16239799999792
 20
-70.01713199999888
 10
208.08213399999792
 20
-70.31024799999888
 10
208.79384199999794
 20
-70.31100999999887
 10
209.50554999999792
 20
-70.31177199999887
 10
210.21725799999794
 20
-70.31253399999886
 10
210.92896599999796
 20
-70.31329599999886
 10
211.64067399999794
 20
-70.31405799999887
 10
212.35238199999796
 20
-70.31481999999886
 10
213.06408999999798
 20
-70.31558199999886
 10
213.77579799999796
 20
-70.31634399999885
 10
214.48750599999798
 20
-70.31710599999884
 10
215.19921399999797
 20
-70.31786799999884
 10
215.91092199999798
 20
-70.31862999999883
 10
216.622629999998
 20
-70.31939199999883
 10
217.33433799999798
 20
-70.32015399999884
 10
218.046045999998
 20
-70.32091599999883
 10
218.75775399999802
 20
-70.32167799999883
 10
219.469461999998
 20
-70.32243999999882
 10
220.18116999999802
 20
-70.32320199999882
 10
220.892877999998
 20
-70.32396399999881
 10
221.60458599999802
 20
-70.3247259999988
 10
222.31629399999804
 20
-70.3254879999988
 10
223.02800199999803
 20
-70.32624999999881
 10
223.73970999999804
 20
-70.3270119999988
 10
224.45141799999806
 20
-70.3277739999988
 10
225.16312599999804
 20
-70.32853599999879
 10
225.87483399999806
 20
-70.32929799999879
 10
226.58654199999808
 20
-70.33005999999878
 10
227.29824999999806
 20
-70.33082199999878
 10
228.00995799999808
 20
-70.33158399999878
 10
228.72166599999807
 20
-70.33234599999878
 10
229.43337399999808
 20
-70.33310799999877
 10
230.1450819999981
 20
-70.33386999999877
 10
230.85678999999809
 20
-70.33463199999876
 10
230.9002239999981
 20
-70.29297599999876
 10
230.94365799999812
 20
-70.25131999999877
 10
230.98709199999814
 20
-70.20966399999877
 10
231.03052599999813
 20
-70.16800799999878
 10
231.07395999999815
 20
-70.12635199999877
 10
231.11739399999817
 20
-70.08469599999879
 10
231.1608279999982
 20
-70.04303999999878
 10
231.20426199999818
 20
-70.0013839999988
 10
231.2476959999982
 20
-69.95972799999879
 10
231.29112999999822
 20
-69.9180719999988
 10
231.33456399999824
 20
-69.8764159999988
 10
231.37799799999826
 20
-69.83475999999881
 10
231.42143199999825
 20
-69.7931039999988
 10
231.46486599999827
 20
-69.7514479999988
 10
231.5082999999983
 20
-69.70979199999881
 10
231.5517339999983
 20
-69.66813599999881
 10
231.5951679999983
 20
-69.62647999999882
 10
231.63860199999831
 20
-69.58482399999882
 10
231.68203599999833
 20
-69.54316799999883
 10
231.72546999999835
 20
-69.50151199999883
 10
231.76890399999834
 20
-69.45985599999884
 10
231.81233799999836
 20
-69.41819999999883
 10
231.85577199999838
 20
-69.37654399999884
 10
231.8992059999984
 20
-69.33488799999884
 10
231.94263999999842
 20
-69.29323199999884
 10
231.9860739999984
 20
-69.25157599999885
 10
232.02950799999843
 20
-69.20991999999885
 10
232.07294199999845
 20
-69.16826399999886
 10
232.11637599999847
 20
-69.12660799999885
 10
232.15980999999846
 20
-69.08495199999886
 10
232.20324399999848
 20
-69.04329599999886
 10
232.2466779999985
 20
-69.00163999999887
 10
232.2629339999985
 20
-68.98614599999887
 10
232.2794439999985
 20
-68.97090599999888
 10
232.2962079999985
 20
-68.95617399999887
 10
232.3132259999985
 20
-68.94194999999888
 10
232.3307519999985
 20
-68.92823399999888
 10
232.3485319999985
 20
-68.91502599999887
 10
232.36656599999853
 20
-68.90207199999888
 10
232.3848539999985
 20
-68.88962599999888
 10
232.4033959999985
 20
-68.87768799999888
 10
232.4221919999985
 20
-68.86625799999888
 10
232.4412419999985
 20
-68.85533599999887
 10
232.46054599999852
 20
-68.84466799999888
 10
232.4801039999985
 20
-68.83450799999888
 10
232.4999159999985
 20
-68.82485599999887
 10
232.5199819999985
 20
-68.81571199999887
 10
232.54030199999852
 20
-68.80707599999887
 10
232.5608759999985
 20
-68.79894799999889
 10
232.5814499999985
 20
-68.79132799999888
 10
232.6022779999985
 20
-68.78421599999888
 10
232.6233599999985
 20
-68.77761199999888
 10
232.6444419999985
 20
-68.77151599999888
 10
232.66577799999848
 20
-68.76592799999888
 10
232.6873679999985
 20
-68.76084799999889
 10
232.70895799999852
 20
-68.75627599999889
 10
232.7308019999985
 20
-68.75221199999889
 10
232.75264599999852
 20
-68.74865599999889
 10
232.77474399999852
 20
-68.74560799999888
 10
232.79684199999852
 20
-68.74306799999889
 10
232.8189399999985
 20
-68.7410359999989
 10
232.8412919999985
 20
-68.7397659999989
 10
232.8636439999985
 20
-68.7390039999989
 10
232.88599599999847
 20
-68.7387499999989
 10
233.09503799999848
 20
-68.73798799999891
 10
233.30407999999846
 20
-68.73722599999891
 10
233.51312199999848
 20
-68.73646399999892
 10
233.72216399999846
 20
-68.73570199999892
 10
233.93120599999844
 20
-68.73493999999891
 10
234.14024799999845
 20
-68.73417799999892
 10
234.34928999999843
 20
-68.73341599999893
 10
234.55833199999844
 20
-68.73265399999893
 10
234.76737399999843
 20
-68.73189199999894
 10
234.97641599999844
 20
-68.73112999999894
 10
235.18545799999842
 20
-68.73036799999895
 10
235.3944999999984
 20
-68.72960599999895
 10
235.6035419999984
 20
-68.72884399999894
 10
235.8125839999984
 20
-68.72808199999895
 10
236.0216259999984
 20
-68.72731999999895
 10
236.2306679999984
 20
-68.72655799999896
 10
236.4397099999984
 20
-68.72579599999897
 10
236.64875199999838
 20
-68.72503399999897
 10
236.85779399999836
 20
-68.72427199999898
 10
237.06683599999837
 20
-68.72350999999898
 10
237.27587799999836
 20
-68.72274799999897
 10
237.48491999999837
 20
-68.72198599999898
 10
237.69396199999835
 20
-68.72122399999898
 10
237.90300399999836
 20
-68.72046199999899
 10
238.11204599999834
 20
-68.719699999999
 10
238.32108799999835
 20
-68.718937999999
 10
238.53012999999834
 20
-68.718175999999
 10
238.73917199999832
 20
-68.71741399999901
 10
238.94821399999833
 20
-68.716651999999
 10
239.1572559999983
 20
-68.715889999999
 10
239.36629799999832
 20
-68.71512799999901
 10
239.5753399999983
 20
-68.71436599999902
 10
239.5989619999983
 20
-68.71461999999902
 10
239.62258399999828
 20
-68.71563599999902
 10
239.6459519999983
 20
-68.71715999999901
 10
239.6693199999983
 20
-68.71919199999901
 10
239.69268799999827
 20
-68.721985999999
 10
239.7158019999983
 20
-68.72528799999901
 10
239.73891599999828
 20
-68.729097999999
 10
239.7617759999983
 20
-68.733669999999
 10
239.78438199999832
 20
-68.73874999999899
 10
239.8069879999983
 20
-68.74433799999899
 10
239.8293399999983
 20
-68.75043399999899
 10
239.8514379999983
 20
-68.75729199999898
 10
239.8735359999983
 20
-68.76465799999899
 10
239.8953799999983
 20
-68.77253199999899
 10
239.91696999999832
 20
-68.78091399999899
 10
239.9383059999983
 20
-68.789803999999
 10
239.95938799999828
 20
-68.799455999999
 10
239.98021599999828
 20
-68.80961599999901
 10
240.0007899999983
 20
-68.82028399999899
 10
240.02110999999832
 20
-68.831459999999
 10
240.0411759999983
 20
-68.84314399999899
 10
240.06098799999828
 20
-68.85533599999899
 10
240.0805459999983
 20
-68.868035999999
 10
240.0998499999983
 20
-68.881243999999
 10
240.11864599999828
 20
-68.89495999999899
 10
240.13718799999828
 20
-68.90918399999899
 10
240.1554759999983
 20
-68.92391599999898
 10
240.1732559999983
 20
-68.93915599999899
 10
240.19078199999828
 20
-68.95490399999899
 10
240.2077999999983
 20
-68.97115999999899
 10
240.22456399999828
 20
-68.987669999999
 10
240.24081999999828
 20
-69.00468799999899
 10
240.27891999999827
 20
-69.046343999999
 10
240.31701999999828
 20
-69.08799999999898
 10
240.35511999999827
 20
-69.12965599999899
 10
240.39321999999825
 20
-69.17131199999898
 10
240.43131999999827
 20
-69.21296799999898
 10
240.46941999999825
 20
-69.25462399999898
 10
240.50751999999824
 20
-69.29627999999897
 10
240.54561999999822
 20
-69.33793599999898
 10
240.58371999999824
 20
-69.37959199999896
 10
240.62181999999822
 20
-69.42124799999897
 10
240.6599199999982
 20
-69.46290399999896
 10
240.69801999999822
 20
-69.50455999999896
 10
240.7361199999982
 20
-69.54621599999895
 10
240.7742199999982
 20
-69.58787199999895
 10
240.81231999999818
 20
-69.62952799999894
 10
240.8504199999982
 20
-69.67118399999895
 10
240.88851999999818
 20
-69.71283999999895
 10
240.92661999999817
 20
-69.75449599999894
 10
240.96471999999818
 20
-69.79615199999894
 10
241.00281999999817
 20
-69.83780799999893
 10
241.04091999999815
 20
-69.87946399999893
 10
241.07901999999817
 20
-69.92111999999892
 10
241.11711999999815
 20
-69.96277599999893
 10
241.15521999999814
 20
-70.00443199999891
 10
241.19331999999812
 20
-70.04608799999892
 10
241.23141999999814
 20
-70.0877439999989
 10
241.26951999999812
 20
-70.12939999999891
 10
241.3076199999981
 20
-70.17105599999891
 10
241.34571999999812
 20
-70.2127119999989
 10
241.3838199999981
 20
-70.2543679999989
 10
241.4219199999981
 20
-70.2960239999989
 10
241.4600199999981
 20
-70.3376799999989
 10
241.8090159999981
 20
-70.33488599999889
 10
242.1580119999981
 20
-70.33209199999888
 10
242.5070079999981
 20
-70.32929799999887
 10
242.8560039999981
 20
-70.32650399999886
 10
243.20499999999814
 20
-70.32370999999887
 10
243.55399599999814
 20
-70.32091599999886
 10
243.90299199999814
 20
-70.31812199999885
 10
244.25198799999814
 20
-70.31532799999884
 10
244.60098399999816
 20
-70.31253399999883
 10
244.94997999999816
 20
-70.30973999999883
 10
245.29897599999816
 20
-70.30694599999883
 10
245.64797199999816
 20
-70.30415199999882
 10
245.99696799999816
 20
-70.30135799999881
 10
246.3459639999982
 20
-70.2985639999988
 10
246.6949599999982
 20
-70.2957699999988
 10
247.0439559999982
 20
-70.2929759999988
 10
247.3929519999982
 20
-70.2901819999988
 10
247.74194799999822
 20
-70.28738799999878
 10
248.09094399999822
 20
-70.28459399999878
 10
248.43993999999822
 20
-70.28179999999877
 10
248.78893599999822
 20
-70.27900599999876
 10
249.13793199999822
 20
-70.27621199999876
 10
249.48692799999824
 20
-70.27341799999876
 10
249.83592399999824
 20
-70.27062399999875
 10
250.18491999999824
 20
-70.26782999999874
 10
250.53391599999824
 20
-70.26503599999873
 10
250.88291199999827
 20
-70.26224199999872
 10
251.23190799999827
 20
-70.25944799999873
 10
251.58090399999827
 20
-70.25665399999872
 10
251.92989999999827
 20
-70.25385999999871
 10
252.27889599999827
 20
-70.2510659999987
 10
252.6278919999983
 20
-70.24827199999869
 10
252.6959639999983
 20
-70.0209419999987
 10
252.7640359999983
 20
-69.7936119999987
 10
252.8321079999983
 20
-69.56628199999871
 10
252.90017999999833
 20
-69.33895199999871
 10
252.96825199999833
 20
-69.11162199999872
 10
253.03632399999833
 20
-68.88429199999872
 10
253.10439599999833
 20
-68.65696199999873
 10
253.17246799999836
 20
-68.42963199999873
 10
253.24053999999836
 20
-68.20230199999874
 10
253.30861199999836
 20
-67.97497199999874
 10
253.37668399999836
 20
-67.74764199999875
 10
253.44475599999836
 20
-67.52031199999875
 10
253.5128279999984
 20
-67.29298199999876
 10
253.5808999999984
 20
-67.06565199999876
 10
253.6489719999984
 20
-66.83832199999877
 10
253.7170439999984
 20
-66.61099199999877
 10
253.78511599999842
 20
-66.38366199999878
 10
253.85318799999843
 20
-66.15633199999878
 10
253.92125999999843
 20
-65.92900199999879
 10
253.98933199999843
 20
-65.7016719999988
 10
254.05740399999846
 20
-65.4743419999988
 10
254.12547599999846
 20
-65.2470119999988
 10
254.19354799999846
 20
-65.0196819999988
 10
254.26161999999846
 20
-64.7923519999988
 10
254.32969199999846
 20
-64.56502199999879
 10
254.3977639999985
 20
-64.33769199999878
 10
254.4658359999985
 20
-64.11036199999879
 10
254.5339079999985
 20
-63.883031999998785
 10
254.6019799999985
 20
-63.65570199999878
 10
254.67005199999852
 20
-63.42837199999878
 10
254.73812399999852
 20
-63.20104199999878
  0
LWPOLYLINE
  5
35
330
17
100
AcDbEntity
  8
0
100
AcDbPolyline
 90
128
 70
1
 10
281.79979199999855
 20
-64.22059799999877
 10
281.7421339999985
 20
-64.40220799999877
 10
281.6844759999985
 20
-64.58381799999877
 10
281.6268179999985
 20
-64.76542799999878
 10
281.5691599999984
 20
-64.94703799999877
 10
281.5115019999984
 20
-65.12864799999876
 10
281.4538439999984
 20
-65.31025799999877
 10
281.39618599999835
 20
-65.49186799999876
 10
281.33852799999835
 20
-65.67347799999875
 10
281.28086999999834
 20
-65.85508799999874
 10
281.2232119999983
 20
-66.03669799999874
 10
281.1655539999983
 20
-66.21830799999873
 10
281.1078959999983
 20
-66.39991799999872
 10
281.0502379999982
 20
-66.58152799999871
 10
280.9925799999982
 20
-66.7631379999987
 10
280.9349219999982
 20
-66.94474799999871
 10
280.87726399999815
 20
-67.1263579999987
 10
280.81960599999815
 20
-67.3079679999987
 10
280.76194799999814
 20
-67.48957799999869
 10
280.7042899999981
 20
-67.67118799999868
 10
280.6466319999981
 20
-67.85279799999867
 10
280.5889739999981
 20
-68.03440799999866
 10
280.531315999998
 20
-68.21601799999866
 10
280.473657999998
 20
-68.39762799999865
 10
280.415999999998
 20
-68.57923799999865
 10
280.35834199999795
 20
-68.76084799999865
 10
280.30068399999794
 20
-68.94245799999864
 10
280.24302599999794
 20
-69.12406799999863
 10
280.1853679999979
 20
-69.30567799999862
 10
280.1277099999979
 20
-69.48728799999861
 10
280.0700519999979
 20
-69.6688979999986
 10
280.0123939999978
 20
-69.8505079999986
 10
279.9547359999978
 20
-70.03211799999859
 10
280.11475599999784
 20
-70.0308479999986
 10
280.27477599999787
 20
-70.0295779999986
 10
280.4347959999979
 20
-70.0283079999986
 10
280.59481599999793
 20
-70.0270379999986
 10
280.75483599999797
 20
-70.0257679999986
 10
280.91485599999794
 20
-70.0244979999986
 10
281.07487599999797
 20
-70.02322799999861
 10
281.234895999998
 20
-70.0219579999986
 10
281.39491599999803
 20
-70.0206879999986
 10
281.55493599999807
 20
-70.01941799999861
 10
281.7149559999981
 20
-70.0181479999986
 10
281.8749759999981
 20
-70.01687799999861
 10
282.03499599999816
 20
-70.01560799999861
 10
282.1950159999982
 20
-70.01433799999862
 10
282.3550359999982
 20
-70.01306799999861
 10
282.51505599999825
 20
-70.01179799999862
 10
282.6750759999983
 20
-70.01052799999862
 10
282.8350959999983
 20
-70.00925799999862
 10
282.99511599999835
 20
-70.00798799999862
 10
283.1551359999984
 20
-70.00671799999861
 10
283.3151559999984
 20
-70.00544799999862
 10
283.4751759999984
 20
-70.00417799999862
 10
283.6351959999984
 20
-70.00290799999863
 10
283.79521599999845
 20
-70.00163799999862
 10
283.9552359999985
 20
-70.00036799999863
 10
284.1152559999985
 20
-69.99909799999863
 10
284.27527599999854
 20
-69.99782799999863
 10
284.4352959999986
 20
-69.99655799999863
 10
284.5953159999986
 20
-69.99528799999862
 10
284.75533599999864
 20
-69.99401799999863
 10
284.91535599999867
 20
-69.99274799999863
 10
285.0753759999987
 20
-69.99147799999864
 10
285.0753759999987
 20
-69.81596399999864
 10
285.0753759999987
 20
-69.64044999999865
 10
285.0753759999987
 20
-69.46493599999866
 10
285.0753759999987
 20
-69.28942199999867
 10
285.0753759999987
 20
-69.11390799999867
 10
285.0753759999987
 20
-68.93839399999867
 10
285.0753759999987
 20
-68.76287999999867
 10
285.0753759999987
 20
-68.58736599999868
 10
285.0753759999987
 20
-68.41185199999869
 10
285.0753759999987
 20
-68.2363379999987
 10
285.0753759999987
 20
-68.0608239999987
 10
285.0753759999987
 20
-67.88530999999871
 10
285.0753759999987
 20
-67.70979599999872
 10
285.0753759999987
 20
-67.53428199999873
 10
285.0753759999987
 20
-67.35876799999873
 10
285.0753759999987
 20
-67.18325399999874
 10
285.0753759999987
 20
-67.00773999999875
 10
285.0753759999987
 20
-66.83222599999876
 10
285.0753759999987
 20
-66.65671199999876
 10
285.0753759999987
 20
-66.48119799999877
 10
285.0753759999987
 20
-66.30568399999878
 10
285.0753759999987
 20
-66.13016999999878
 10
285.0753759999987
 20
-65.95465599999878
 10
285.0753759999987
 20
-65.77914199999879
 10
285.0753759999987
 20
-65.60362799999879
 10
285.0753759999987
 20
-65.4281139999988
 10
285.0753759999987
 20
-65.25259999999881
 10
285.0753759999987
 20
-65.07708599999881
 10
285.0753759999987
 20
-64.90157199999882
 10
285.0753759999987
 20
-64.72605799999882
 10
285.0753759999987
 20
-64.55054399999882
 10
285.0753759999987
 20
-64.37502999999882
 10
284.97301399999867
 20
-64.37020399999881
 10
284.8706519999987
 20
-64.36537799999881
 10
284.7682899999987
 20
-64.3605519999988
 10
284.66592799999864
 20
-64.35572599999881
 10
284.5635659999987
 20
-64.3508999999988
 10
284.46120399999865
 20
-64.34607399999881
 10
284.3588419999987
 20
-64.3412479999988
 10
284.25647999999865
 20
-64.3364219999988
 10
284.1541179999986
 20
-64.3315959999988
 10
284.05175599999865
 20
-64.3267699999988
 10
283.9493939999986
 20
-64.3219439999988
 10
283.84703199999865
 20
-64.3171179999988
 10
283.7446699999986
 20
-64.31229199999879
 10
283.6423079999986
 20
-64.3074659999988
 10
283.5399459999986
 20
-64.30263999999879
 10
283.4375839999986
 20
-64.2978139999988
 10
283.3352219999986
 20
-64.29298799999879
 10
283.2328599999986
 20
-64.28816199999879
 10
283.13049799999857
 20
-64.28333599999878
 10
283.0281359999986
 20
-64.27850999999879
 10
282.92577399999857
 20
-64.27368399999878
 10
282.8234119999986
 20
-64.26885799999879
 10
282.72104999999857
 20
-64.26403199999878
 10
282.61868799999854
 20
-64.25920599999878
 10
282.51632599999857
 20
-64.25437999999878
 10
282.41396399999854
 20
-64.24955399999878
 10
282.3116019999986
 20
-64.24472799999877
 10
282.20923999999854
 20
-64.23990199999878
 10
282.1068779999985
 20
-64.23507599999877
 10
282.00451599999855
 20
-64.23024999999878
 10
281.9021539999985
 20
-64.22542399999877
  0
ENDSEC
  0
SECTION
  2
OBJECTS
  0
DICTIONARY
  5
A
330
0
100
AcDbDictionary
281
1
  3
ACAD_COLOR
350
B
  3
ACAD_GROUP
350
C
  3
ACAD_LAYOUT
350
D
  3
ACAD_MATERIAL
350
E
  3
ACAD_MLEADERSTYLE
350
F
  3
ACAD_MLINESTYLE
350
10
  3
ACAD_PLOTSETTINGS
350
11
  3
ACAD_PLOTSTYLENAME
350
12
  3
ACAD_SCALELIST
350
14
  3
ACAD_TABLESTYLE
350
15
  3
ACAD_VISUALSTYLE
350
16
  3
EZDXF_META
350
2D
  0
DICTIONARY
  5
B
330
A
100
AcDbDictionary
281
1
  0
DICTIONARY
  5
C
330
A
100
AcDbDictionary
281
1
  0
DICTIONARY
  5
D
330
A
100
AcDbDictionary
281
1
  3
Model
350
1A
  3
Layout1
350
1E
  0
DICTIONARY
  5
E
330
A
100
AcDbDictionary
281
1
  3
ByBlock
350
1F
  3
ByLayer
350
20
  3
Global
350
21
  0
DICTIONARY
  5
F
330
A
100
AcDbDictionary
281
1
  3
Standard
350
2C
  0
DICTIONARY
  5
10
330
A
100
AcDbDictionary
281
1
  3
Standard
350
22
  0
DICTIONARY
  5
11
330
A
100
AcDbDictionary
281
1
  0
ACDBDICTIONARYWDFLT
  5
12
330
A
100
AcDbDictionary
281
1
  3
Normal
350
13
100
AcDbDictionaryWithDefault
340
13
  0
ACDBPLACEHOLDER
  5
13
330
12
  0
DICTIONARY
  5
14
330
A
100
AcDbDictionary
281
1
  0
DICTIONARY
  5
15
330
A
100
AcDbDictionary
281
1
  0
DICTIONARY
  5
16
330
A
100
AcDbDictionary
281
1
  0
LAYOUT
  5
1A
330
D
100
AcDbPlotSettings
  1

  4
A3
  6

 40
7.5
 41
20.0
 42
7.5
 43
20.0
 44
420.0
 45
297.0
 46
0.0
 47
0.0
 48
0.0
 49
0.0
140
0.0
141
0.0
142
1.0
143
1.0
 70
1024
 72
1
 73
0
 74
5
  7

 75
16
 76
0
 77
2
 78
300
147
1.0
148
0.0
149
0.0
100
AcDbLayout
  1
Model
 70
1
 71
0
 10
0.0
 20
0.0
 11
420.0
 21
297.0
 12
0.0
 22
0.0
 32
0.0
 14
1e+20
 24
1e+20
 34
1e+20
 15
-1e+20
 25
-1e+20
 35
-1e+20
146
0.0
 13
0.0
 23
0.0
 33
0.0
 16
1.0
 26
0.0
 36
0.0
 17
0.0
 27
1.0
 37
0.0
 76
1
330
17
  0
LAYOUT
  5
1E
330
D
100
AcDbPlotSettings
  1

  4
A3
  6

 40
7.5
 41
20.0
 42
7.5
 43
20.0
 44
420.0
 45
297.0
 46
0.0
 47
0.0
 48
0.0
 49
0.0
140
0.0
141
0.0
142
1.0
143
1.0
 70
0
 72
1
 73
0
 74
5
  7

 75
16
 76
0
 77
2
 78
300
147
1.0
148
0.0
149
0.0
100
AcDbLayout
  1
Layout1
 70
1
 71
1
 10
0.0
 20
0.0
 11
420.0
 21
297.0
 12
0.0
 22
0.0
 32
0.0
 14
1e+20
 24
1e+20
 34
1e+20
 15
-1e+20
 25
-1e+20
 35
-1e+20
146
0.0
 13
0.0
 23
0.0
 33
0.0
 16
1.0
 26
0.0
 36
0.0
 17
0.0
 27
1.0
 37
0.0
 76
1
330
1B
  0
MATERIAL
  5
1F
102
{ACAD_REACTORS
330
E
102
}
330
E
100
AcDbMaterial
  1
ByBlock
  2

 70
0
 40
1.0
 71
1
 41
1.0
 91
-1023410177
 42
1.0
 72
1
  3

 73
1
 74
1
 75
1
 44
0.5
 73
0
 45
1.0
 46
1.0
 77
1
  4

 78
1
 79
1
170
1
 48
1.0
171
1
  6

172
1
173
1
174
1
140
1.0
141
1.0
175
1
  7

176
1
177
1
178
1
143
1.0
179
1
  8

270
1
271
1
272
1
145
1.0
146
1.0
273
1
  9

274
1
275
1
276
1
 42
1.0
 72
1
  3

 73
1
 74
1
 75
1
 94
63
  0
MATERIAL
  5
20
102
{ACAD_REACTORS
330
E
102
}
330
E
100
AcDbMaterial
  1
ByLayer
  2

 70
0
 40
1.0
 71
1
 41
1.0
 91
-1023410177
 42
1.0
 72
1
  3

 73
1
 74
1
 75
1
 44
0.5
 73
0
 45
1.0
 46
1.0
 77
1
  4

 78
1
 79
1
170
1
 48
1.0
171
1
  6

172
1
173
1
174
1
140
1.0
141
1.0
175
1
  7

176
1
177
1
178
1
143
1.0
179
1
  8

270
1
271
1
272
1
145
1.0
146
1.0
273
1
  9

274
1
275
1
276
1
 42
1.0
 72
1
  3

 73
1
 74
1
 75
1
 94
63
  0
MATERIAL
  5
21
102
{ACAD_REACTORS
330
E
102
}
330
E
100
AcDbMaterial
  1
Global
  2

 70
0
 40
1.0
 71
1
 41
1.0
 91
-1023410177
 42
1.0
 72
1
  3

 73
1
 74
1
 75
1
 44
0.5
 73
0
 45
1.0
 46
1.0
 77
1
  4

 78
1
 79
1
170
1
 48
1.0
171
1
  6

172
1
173
1
174
1
140
1.0
141
1.0
175
1
  7

176
1
177
1
178
1
143
1.0
179
1
  8

270
1
271
1
272
1
145
1.0
146
1.0
273
1
  9

274
1
275
1
276
1
 42
1.0
 72
1
  3

 73
1
 74
1
 75
1
 94
63
  0
MLINESTYLE
  5
22
102
{ACAD_REACTORS
330
10
102
}
330
10
100
AcDbMlineStyle
  2
Standard
 70
0
  3

 62
256
 51
90.0
 52
90.0
 71
2
 49
0.5
 62
256
  6
BYLAYER
 49
-0.5
 62
256
  6
BYLAYER
  0
MLEADERSTYLE
  5
2C
102
{ACAD_REACTORS
330
F
102
}
330
F
100
AcDbMLeaderStyle
179
2
170
2
171
1
172
0
 90
2
 40
0.0
 41
0.0
173
1
 91
-1056964608
 92
-2
290
1
 42
2.0
291
1
 43
8.0
  3
Standard
 44
4.0
300

342
29
174
1
175
1
176
0
178
1
 93
-1056964608
 45
4.0
292
0
297
0
 46
4.0
 94
-1056964608
 47
1.0
 49
1.0
140
1.0
294
1
141
0.0
177
0
142
1.0
295
0
296
0
143
3.75
271
0
272
9
273
9
  0
DICTIONARY
  5
2D
330
A
100
AcDbDictionary
280
1
281
1
  3
CREATED_BY_EZDXF
350
2E
  3
WRITTEN_BY_EZDXF
350
38
  0
DICTIONARYVAR
  5
2E
330
2D
100
DictionaryVariables
280
0
  1
1.4.3 @ 2026-04-12T00:41:29.910680+00:00
  0
DICTIONARYVAR
  5
38
330
2D
100
DictionaryVariables
280
0
  1
1.4.3 @ 2026-04-12T00:41:29.919541+00:00
  0
ENDSEC
  0
EOF
