  0
SECTION
  2
HEADER
  9
$ACADVER
  1
AC1024
  9
$ACADMAINTVER
 70
6
  9
$DWGCODEPAGE
  3
ANSI_1252
  9
$LASTSAVEDBY
  1
ezdxf
  9
$INSBASE
 10
0.0
 20
0.0
 30
0.0
  9
$EXTMIN
 10
1e+20
 20
1e+20
 30
1e+20
  9
$EXTMAX
 10
-1e+20
 20
-1e+20
 30
-1e+20
  9
$LIMMIN
 10
0.0
 20
0.0
  9
$LIMMAX
 10
420.0
 20
297.0
  9
$ORTHOMODE
 70
0
  9
$REGENMODE
 70
1
  9
$FILLMODE
 70
1
  9
$QTEXTMODE
 70
0
  9
$MIRRTEXT
 70
1
  9
$LTSCALE
 40
1.0
  9
$ATTMODE
 70
1
  9
$TEXTSIZE
 40
2.5
  9
$TRACEWID
 40
1.0
  9
$TEXTSTYLE
  7
Standard
  9
$CLAYER
  8
0
  9
$CELTYPE
  6
ByLayer
  9
$CECOLOR
 62
256
  9
$CELTSCALE
 40
1.0
  9
$DISPSILH
 70
0
  9
$DIMSCALE
 40
1.0
  9
$DIMASZ
 40
2.5
  9
$DIMEXO
 40
0.625
  9
$DIMDLI
 40
3.75
  9
$DIMRND
 40
0.0
  9
$DIMDLE
 40
0.0
  9
$DIMEXE
 40
1.25
  9
$DIMTP
 40
0.0
  9
$DIMTM
 40
0.0
  9
$DIMTXT
 40
2.5
  9
$DIMCEN
 40
2.5
  9
$DIMTSZ
 40
0.0
  9
$DIMTOL
 70
0
  9
$DIMLIM
 70
0
  9
$DIMTIH
 70
0
  9
$DIMTOH
 70
0
  9
$DIMSE1
 70
0
  9
$DIMSE2
 70
0
  9
$DIMTAD
 70
1
  9
$DIMZIN
 70
8
  9
$DIMBLK
  1

  9
$DIMASO
 70
1
  9
$DIMSHO
 70
1
  9
$DIMPOST
  1

  9
$DIMAPOST
  1

  9
$DIMALT
 70
0
  9
$DIMALTD
 70
3
  9
$DIMALTF
 40
0.03937007874
  9
$DIMLFAC
 40
1.0
  9
$DIMTOFL
 70
1
  9
$DIMTVP
 40
0.0
  9
$DIMTIX
 70
0
  9
$DIMSOXD
 70
0
  9
$DIMSAH
 70
0
  9
$DIMBLK1
  1

  9
$DIMBLK2
  1

  9
$DIMSTYLE
  2
ISO-25
  9
$DIMCLRD
 70
0
  9
$DIMCLRE
 70
0
  9
$DIMCLRT
 70
0
  9
$DIMTFAC
 40
1.0
  9
$DIMGAP
 40
0.625
  9
$DIMJUST
 70
0
  9
$DIMSD1
 70
0
  9
$DIMSD2
 70
0
  9
$DIMTOLJ
 70
0
  9
$DIMTZIN
 70
8
  9
$DIMALTZ
 70
0
  9
$DIMALTTZ
 70
0
  9
$DIMUPT
 70
0
  9
$DIMDEC
 70
2
  9
$DIMTDEC
 70
2
  9
$DIMALTU
 70
2
  9
$DIMALTTD
 70
3
  9
$DIMTXSTY
  7
Standard
  9
$DIMAUNIT
 70
0
  9
$DIMADEC
 70
0
  9
$DIMALTRND
 40
0.0
  9
$DIMAZIN
 70
0
  9
$DIMDSEP
 70
44
  9
$DIMATFIT
 70
3
  9
$DIMFRAC
 70
0
  9
$DIMLDRBLK
  1

  9
$DIMLUNIT
 70
2
  9
$DIMLWD
 70
-2
  9
$DIMLWE
 70
-2
  9
$DIMTMOVE
 70
0
  9
$DIMFXL
 40
1.0
  9
$DIMFXLON
 70
0
  9
$DIMJOGANG
 40
0.785398163397
  9
$DIMTFILL
 70
0
  9
$DIMTFILLCLR
 70
0
  9
$DIMARCSYM
 70
0
  9
$DIMLTYPE
  6

  9
$DIMLTEX1
  6

  9
$DIMLTEX2
  6

  9
$DIMTXTDIRECTION
 70
0
  9
$LUNITS
 70
2
  9
$LUPREC
 70
4
  9
$SKETCHINC
 40
1.0
  9
$FILLETRAD
 40
10.0
  9
$AUNITS
 70
0
  9
$AUPREC
 70
2
  9
$MENU
  1
.
  9
$ELEVATION
 40
0.0
  9
$PELEVATION
 40
0.0
  9
$THICKNESS
 40
0.0
  9
$LIMCHECK
 70
0
  9
$CHAMFERA
 40
0.0
  9
$CHAMFERB
 40
0.0
  9
$CHAMFERC
 40
0.0
  9
$CHAMFERD
 40
0.0
  9
$SKPOLY
 70
0
  9
$TDCREATE
 40
2461140.590138889
  9
$TDUCREATE
 40
2458532.153996898
  9
$TDUPDATE
 40
2461140.590138889
  9
$TDUUPDATE
 40
2458532.1544311
  9
$TDINDWG
 40
0.0
  9
$TDUSRTIMER
 40
0.0
  9
$USRTIMER
 70
1
  9
$ANGBASE
 50
0.0
  9
$ANGDIR
 70
0
  9
$PDMODE
 70
0
  9
$PDSIZE
 40
0.0
  9
$PLINEWID
 40
0.0
  9
$SPLFRAME
 70
0
  9
$SPLINETYPE
 70
6
  9
$SPLINESEGS
 70
8
  9
$HANDSEED
  5
40
  9
$SURFTAB1
 70
6
  9
$SURFTAB2
 70
6
  9
$SURFTYPE
 70
6
  9
$SURFU
 70
6
  9
$SURFV
 70
6
  9
$UCSBASE
  2

  9
$UCSNAME
  2

  9
$UCSORG
 10
0.0
 20
0.0
 30
0.0
  9
$UCSXDIR
 10
1.0
 20
0.0
 30
0.0
  9
$UCSYDIR
 10
0.0
 20
1.0
 30
0.0
  9
$UCSORTHOREF
  2

  9
$UCSORTHOVIEW
 70
0
  9
$UCSORGTOP
 10
0.0
 20
0.0
 30
0.0
  9
$UCSORGBOTTOM
 10
0.0
 20
0.0
 30
0.0
  9
$UCSORGLEFT
 10
0.0
 20
0.0
 30
0.0
  9
$UCSORGRIGHT
 10
0.0
 20
0.0
 30
0.0
  9
$UCSORGFRONT
 10
0.0
 20
0.0
 30
0.0
  9
$UCSORGBACK
 10
0.0
 20
0.0
 30
0.0
  9
$PUCSBASE
  2

  9
$PUCSNAME
  2

  9
$PUCSORG
 10
0.0
 20
0.0
 30
0.0
  9
$PUCSXDIR
 10
1.0
 20
0.0
 30
0.0
  9
$PUCSYDIR
 10
0.0
 20
1.0
 30
0.0
  9
$PUCSORTHOREF
  2

  9
$PUCSORTHOVIEW
 70
0
  9
$PUCSORGTOP
 10
0.0
 20
0.0
 30
0.0
  9
$PUCSORGBOTTOM
 10
0.0
 20
0.0
 30
0.0
  9
$PUCSORGLEFT
 10
0.0
 20
0.0
 30
0.0
  9
$PUCSORGRIGHT
 10
0.0
 20
0.0
 30
0.0
  9
$PUCSORGFRONT
 10
0.0
 20
0.0
 30
0.0
  9
$PUCSORGBACK
 10
0.0
 20
0.0
 30
0.0
  9
$USERI1
 70
0
  9
$USERI2
 70
0
  9
$USERI3
 70
0
  9
$USERI4
 70
0
  9
$USERI5
 70
0
  9
$USERR1
 40
0.0
  9
$USERR2
 40
0.0
  9
$USERR3
 40
0.0
  9
$USERR4
 40
0.0
  9
$USERR5
 40
0.0
  9
$WORLDVIEW
 70
1
  9
$SHADEDGE
 70
3
  9
$SHADEDIF
 70
70
  9
$TILEMODE
 70
1
  9
$MAXACTVP
 70
64
  9
$PINSBASE
 10
0.0
 20
0.0
 30
0.0
  9
$PLIMCHECK
 70
0
  9
$PEXTMIN
 10
1e+20
 20
1e+20
 30
1e+20
  9
$PEXTMAX
 10
-1e+20
 20
-1e+20
 30
-1e+20
  9
$PLIMMIN
 10
0.0
 20
0.0
  9
$PLIMMAX
 10
420.0
 20
297.0
  9
$UNITMODE
 70
0
  9
$VISRETAIN
 70
1
  9
$PLINEGEN
 70
0
  9
$PSLTSCALE
 70
1
  9
$TREEDEPTH
 70
3020
  9
$CMLSTYLE
  2
Standard
  9
$CMLJUST
 70
0
  9
$CMLSCALE
 40
20.0
  9
$PROXYGRAPHICS
 70
1
  9
$MEASUREMENT
 70
1
  9
$CELWEIGHT
370
-1
  9
$ENDCAPS
280
0
  9
$JOINSTYLE
280
0
  9
$LWDISPLAY
290
0
  9
$INSUNITS
 70
6
  9
$HYPERLINKBASE
  1

  9
$STYLESHEET
  1

  9
$XEDIT
290
1
  9
$CEPSNTYPE
380
0
  9
$PSTYLEMODE
290
1
  9
$FINGERPRINTGUID
  2
{B9469369-DCF6-481F-984E-6EF85B07185F}
  9
$VERSIONGUID
  2
{1331280C-D957-46E0-9744-060FF292FF36}
  9
$EXTNAMES
290
1
  9
$PSVPSCALE
 40
0.0
  9
$OLESTARTUP
290
0
  9
$SORTENTS
280
127
  9
$INDEXCTL
280
0
  9
$HIDETEXT
280
1
  9
$XCLIPFRAME
280
1
  9
$HALOGAP
280
0
  9
$OBSCOLOR
 70
257
  9
$OBSLTYPE
280
0
  9
$INTERSECTIONDISPLAY
280
0
  9
$INTERSECTIONCOLOR
 70
257
  9
$DIMASSOC
280
2
  9
$PROJECTNAME
  1

  9
$CAMERADISPLAY
290
0
  9
$LENSLENGTH
 40
50.0
  9
$CAMERAHEIGHT
 40
0.0
  9
$STEPSPERSEC
 40
24.0
  9
$STEPSIZE
 40
100.0
  9
$3DDWFPREC
 40
2.0
  9
$PSOLWIDTH
 40
0.005
  9
$PSOLHEIGHT
 40
0.08
  9
$LOFTANG1
 40
1.570796326795
  9
$LOFTANG2
 40
1.570796326795
  9
$LOFTMAG1
 40
0.0
  9
$LOFTMAG2
 40
0.0
  9
$LOFTPARAM
 70
7
  9
$LOFTNORMALS
280
1
  9
$LATITUDE
 40
37.795
  9
$LONGITUDE
 40
-122.394
  9
$NORTHDIRECTION
 40
0.0
  9
$TIMEZONE
 70
-8000
  9
$LIGHTGLYPHDISPLAY
280
1
  9
$TILEMODELIGHTSYNCH
280
1
  9
$CMATERIAL
347
20
  9
$SOLIDHIST
280
0
  9
$SHOWHIST
280
1
  9
$DWFFRAME
280
2
  9
$DGNFRAME
280
2
  9
$REALWORLDSCALE
290
1
  9
$INTERFERECOLOR
 62
256
  9
$CSHADOW
280
0
  9
$SHADOWPLANELOCATION
 40
0.0
  0
ENDSEC
  0
SECTION
  2
CLASSES
  0
CLASS
  1
ACDBDICTIONARYWDFLT
  2
AcDbDictionaryWithDefault
  3
ObjectDBX Classes
 90
0
 91
0
280
0
281
0
  0
CLASS
  1
SUN
  2
AcDbSun
  3
SCENEOE
 90
1153
 91
0
280
0
281
0
  0
CLASS
  1
VISUALSTYLE
  2
AcDbVisualStyle
  3
ObjectDBX Classes
 90
4095
 91
0
280
0
281
0
  0
CLASS
  1
MATERIAL
  2
AcDbMaterial
  3
ObjectDBX Classes
 90
1153
 91
0
280
0
281
0
  0
CLASS
  1
SCALE
  2
AcDbScale
  3
ObjectDBX Classes
 90
1153
 91
0
280
0
281
0
  0
CLASS
  1
TABLESTYLE
  2
AcDbTableStyle
  3
ObjectDBX Classes
 90
4095
 91
0
280
0
281
0
  0
CLASS
  1
MLEADERSTYLE
  2
AcDbMLeaderStyle
  3
ACDB_MLEADERSTYLE_CLASS
 90
4095
 91
0
280
0
281
0
  0
CLASS
  1
DICTIONARYVAR
  2
AcDbDictionaryVar
  3
ObjectDBX Classes
 90
0
 91
0
280
0
281
0
  0
CLASS
  1
CELLSTYLEMAP
  2
AcDbCellStyleMap
  3
ObjectDBX Classes
 90
1152
 91
0
280
0
281
0
  0
CLASS
  1
MENTALRAYRENDERSETTINGS
  2
AcDbMentalRayRenderSettings
  3
SCENEOE
 90
1024
 91
0
280
0
281
0
  0
CLASS
  1
ACDBDETAILVIEWSTYLE
  2
AcDbDetailViewStyle
  3
ObjectDBX Classes
 90
1025
 91
0
280
0
281
0
  0
CLASS
  1
ACDBSECTIONVIEWSTYLE
  2
AcDbSectionViewStyle
  3
ObjectDBX Classes
 90
1025
 91
0
280
0
281
0
  0
CLASS
  1
RASTERVARIABLES
  2
AcDbRasterVariables
  3
ISM
 90
0
 91
0
280
0
281
0
  0
CLASS
  1
LAYOUT
  2
AcDbLayout
  3
ObjectDBX Classes
 90
0
 91
0
280
0
281
0
  0
CLASS
  1
ACDBPLACEHOLDER
  2
AcDbPlaceHolder
  3
ObjectDBX Classes
 90
0
 91
0
280
0
281
0
  0
ENDSEC
  0
SECTION
  2
TABLES
  0
TABLE
  2
VPORT
  5
8
330
0
100
AcDbSymbolTable
 70
1
  0
VPORT
  5
23
330
8
100
AcDbSymbolTableRecord
100
AcDbViewportTableRecord
  2
*Active
 70
0
 10
0.0
 20
0.0
 11
1.0
 21
1.0
 12
0.0
 22
0.0
 13
0.0
 23
0.0
 14
0.5
 24
0.5
 15
0.5
 25
0.5
 16
0.0
 26
0.0
 36
1.0
 17
0.0
 27
0.0
 37
0.0
 40
1000.0
 41
1.34
 42
50.0
 43
0.0
 44
0.0
 50
0.0
 51
0.0
 71
0
 72
1000
 73
1
 74
3
 75
0
 76
0
 77
0
 78
0
281
0
 65
0
146
0.0
  0
ENDTAB
  0
TABLE
  2
LTYPE
  5
2
330
0
100
AcDbSymbolTable
 70
3
  0
LTYPE
  5
24
330
2
100
AcDbSymbolTableRecord
100
AcDbLinetypeTableRecord
  2
ByBlock
 70
0
  3

 72
65
 73
0
 40
0.0
  0
LTYPE
  5
25
330
2
100
AcDbSymbolTableRecord
100
AcDbLinetypeTableRecord
  2
ByLayer
 70
0
  3

 72
65
 73
0
 40
0.0
  0
LTYPE
  5
26
330
2
100
AcDbSymbolTableRecord
100
AcDbLinetypeTableRecord
  2
Continuous
 70
0
  3

 72
65
 73
0
 40
0.0
  0
ENDTAB
  0
TABLE
  2
LAYER
  5
1
330
0
100
AcDbSymbolTable
 70
2
  0
LAYER
  5
27
330
1
100
AcDbSymbolTableRecord
100
AcDbLayerTableRecord
  2
0
 70
0
 62
7
  6
Continuous
370
-3
390
13
347
21
  0
LAYER
  5
28
330
1
100
AcDbSymbolTableRecord
100
AcDbLayerTableRecord
  2
Defpoints
 70
0
 62
7
  6
Continuous
290
0
370
-3
390
13
347
21
  0
ENDTAB
  0
TABLE
  2
STYLE
  5
5
330
0
100
AcDbSymbolTable
 70
1
  0
STYLE
  5
29
330
5
100
AcDbSymbolTableRecord
100
AcDbTextStyleTableRecord
  2
Standard
 70
0
 40
0.0
 41
1.0
 50
0.0
 71
0
 42
2.5
  3
txt
  4

  0
ENDTAB
  0
TABLE
  2
VIEW
  5
7
330
0
100
AcDbSymbolTable
 70
0
  0
ENDTAB
  0
TABLE
  2
UCS
  5
6
330
0
100
AcDbSymbolTable
 70
0
  0
ENDTAB
  0
TABLE
  2
APPID
  5
3
330
0
100
AcDbSymbolTable
 70
3
  0
APPID
  5
2A
330
3
100
AcDbSymbolTableRecord
100
AcDbRegAppTableRecord
  2
ACAD
 70
0
  0
APPID
  5
3D
330
3
100
AcDbSymbolTableRecord
100
AcDbRegAppTableRecord
  2
HATCHBACKGROUNDCOLOR
 70
0
  0
APPID
  5
3E
330
3
100
AcDbSymbolTableRecord
100
AcDbRegAppTableRecord
  2
EZDXF
 70
0
  0
ENDTAB
  0
TABLE
  2
DIMSTYLE
  5
4
330
0
100
AcDbSymbolTable
 70
1
100
AcDbDimStyleTable
  0
DIMSTYLE
105
2B
330
4
100
AcDbSymbolTableRecord
100
AcDbDimStyleTableRecord
  2
Standard
 70
0
 40
1.0
 41
2.5
 42
0.625
 43
3.75
 44
1.25
 45
0.0
 46
0.0
 47
0.0
 48
0.0
 49
2.5
140
2.5
141
2.5
142
0.0
143
0.03937007874
144
1.0
145
0.0
146
1.0
147
0.625
148
0.0
 69
0
 70
0
 71
0
 72
0
 73
0
 74
0
 75
0
 76
0
 77
1
 78
8
 79
3
170
0
171
3
172
1
173
0
174
0
175
0
176
0
177
0
178
0
179
2
271
2
272
2
273
2
274
3
275
0
276
0
277
2
278
44
279
0
280
0
281
0
282
0
283
0
284
8
285
0
286
0
288
0
289
3
290
0
371
-2
372
-2
  0
ENDTAB
  0
TABLE
  2
BLOCK_RECORD
  5
9
330
0
100
AcDbSymbolTable
 70
2
  0
BLOCK_RECORD
  5
17
330
9
100
AcDbSymbolTableRecord
100
AcDbBlockTableRecord
  2
*Model_Space
340
1A
 70
0
280
1
281
0
  0
BLOCK_RECORD
  5
1B
330
9
100
AcDbSymbolTableRecord
100
AcDbBlockTableRecord
  2
*Paper_Space
340
1E
 70
0
280
1
281
0
  0
ENDTAB
  0
ENDSEC
  0
SECTION
  2
BLOCKS
  0
BLOCK
  5
18
330
17
100
AcDbEntity
  8
0
100
AcDbBlockBegin
  2
*Model_Space
 70
0
 10
0.0
 20
0.0
 30
0.0
  3
*Model_Space
  1

  0
ENDBLK
  5
19
330
17
100
AcDbEntity
  8
0
100
AcDbBlockEnd
  0
BLOCK
  5
1C
330
1B
100
AcDbEntity
  8
0
100
AcDbBlockBegin
  2
*Paper_Space
 70
0
 10
0.0
 20
0.0
 30
0.0
  3
*Paper_Space
  1

  0
ENDBLK
  5
1D
330
1B
100
AcDbEntity
  8
0
100
AcDbBlockEnd
  0
ENDSEC
  0
SECTION
  2
ENTITIES
  0
LWPOLYLINE
  5
38
330
17
100
AcDbEntity
  8
0
100
AcDbPolyline
 90
321
 70
0
 10
204.26095799999928
 20
-114.61394400000091
 10
204.19186999999928
 20
-114.42446000000092
 10
204.10906599999927
 20
-114.24183400000092
 10
204.01305399999924
 20
-114.06657400000091
 10
203.90484999999924
 20
-113.89868000000091
 10
203.78521599999925
 20
-113.73815200000091
 10
203.65516799999926
 20
-113.58524400000093
 10
203.51521399999925
 20
-113.44021000000092
 10
203.36636999999925
 20
-113.30305000000091
 10
203.20914399999924
 20
-113.17401800000091
 10
203.04455199999924
 20
-113.05311400000092
 10
202.87360999999922
 20
-112.94059200000092
 10
202.69682599999922
 20
-112.83645200000092
 10
202.5152159999992
 20
-112.74094800000091
 10
202.3295419999992
 20
-112.65408000000092
 10
202.1405659999992
 20
-112.57610200000092
 10
201.9490499999992
 20
-112.50701400000092
 10
201.8151919999992
 20
-112.46408800000093
 10
201.6805719999992
 20
-112.42471800000094
 10
201.5451899999992
 20
-112.38890400000092
 10
201.40904599999922
 20
-112.35613800000093
 10
201.2723939999992
 20
-112.32667400000092
 10
201.1349799999992
 20
-112.30000400000092
 10
200.99705799999919
 20
-112.27612800000092
 10
200.85862799999921
 20
-112.25479200000092
 10
200.7196899999992
 20
-112.23599600000092
 10
200.5802439999992
 20
-112.21948600000091
 10
200.44028999999918
 20
-112.20500800000092
 10
200.30008199999918
 20
-112.19256200000092
 10
200.1596199999992
 20
-112.18189400000092
 10
200.0189039999992
 20
-112.17275000000093
 10
199.87793399999921
 20
-112.16513000000093
 10
199.73696399999923
 20
-112.15878000000095
 10
199.6358719999992
 20
-112.29111400000095
 10
199.5274139999992
 20
-112.41786000000094
 10
199.4113359999992
 20
-112.53851000000095
 10
199.2878919999992
 20
-112.65281000000095
 10
199.15682799999922
 20
-112.76025200000095
 10
199.01839799999922
 20
-112.86058200000095
 10
198.87234799999922
 20
-112.95329200000094
 10
198.7189319999992
 20
-113.03787400000095
 10
198.5578959999992
 20
-113.11407400000095
 10
198.3894939999992
 20
-113.18138400000096
 10
198.2134719999992
 20
-113.23955000000095
 10
198.03008399999922
 20
-113.28806400000094
 10
197.83907599999924
 20
-113.32641800000094
 10
197.64070199999924
 20
-113.35435800000096
 10
197.43470799999923
 20
-113.37137600000095
 10
197.22109399999923
 20
-113.37721800000097
 10
197.00443199999924
 20
-113.37137600000095
 10
196.79564399999924
 20
-113.35385000000095
 10
196.59447599999922
 20
-113.32514800000095
 10
196.40118199999924
 20
-113.28577800000096
 10
196.21550799999923
 20
-113.23624800000096
 10
196.03745399999923
 20
-113.17681200000096
 10
195.86727399999924
 20
-113.10797800000095
 10
195.70471399999926
 20
-113.03000000000095
 10
195.55002799999923
 20
-112.94338600000096
 10
195.40296199999926
 20
-112.84864400000096
 10
195.26351599999927
 20
-112.74602800000096
 10
195.13194399999924
 20
-112.63604600000096
 10
195.00799199999923
 20
-112.51920600000096
 10
194.89165999999923
 20
-112.39576200000097
 10
194.78320199999925
 20
-112.26622200000097
 10
194.6823639999992
 20
-112.13109400000097
 10
194.34505199999924
 20
-112.13769800000098
 10
194.00773999999925
 20
-112.14582600000097
 10
193.67068199999923
 20
-112.15573200000097
 10
193.33362399999925
 20
-112.16767000000097
 10
192.99681999999925
 20
-112.18164000000098
 10
192.66026999999923
 20
-112.19789600000098
 10
192.3237199999992
 20
-112.21643800000098
 10
191.9874239999992
 20
-112.23752000000098
 10
191.65138199999922
 20
-112.26139600000099
 10
191.31559399999924
 20
-112.28781200000098
 10
190.9800599999992
 20
-112.31727600000097
 10
190.6447799999992
 20
-112.34978800000097
 10
190.30975399999923
 20
-112.38534800000096
 10
189.97498199999922
 20
-112.42446400000097
 10
189.64071799999923
 20
-112.46688200000096
 10
189.3067079999992
 20
-112.51285600000095
 10
189.2409219999992
 20
-112.52250800000095
 10
189.1748819999992
 20
-112.53241400000095
 10
189.1088419999992
 20
-112.54282800000095
 10
189.0428019999992
 20
-112.55400400000094
 10
188.9770159999992
 20
-112.56619600000094
 10
188.91148399999918
 20
-112.57940400000095
 10
188.84645999999918
 20
-112.59362800000095
 10
188.7816899999992
 20
-112.60937600000095
 10
188.7174279999992
 20
-112.62664800000096
 10
188.65392799999918
 20
-112.64544400000095
 10
188.5911899999992
 20
-112.66627200000094
 10
188.5292139999992
 20
-112.68913200000094
 10
188.46825399999918
 20
-112.71402400000095
 10
188.4083099999992
 20
-112.74120200000095
 10
188.3493819999992
 20
-112.77092000000096
 10
188.2917239999992
 20
-112.80343200000095
 10
188.23990799999922
 20
-112.83569000000095
 10
188.18961599999923
 20
-112.86972600000097
 10
188.1408479999992
 20
-112.90579400000097
 10
188.0936039999992
 20
-112.94364000000095
 10
188.04788399999921
 20
-112.98301000000096
 10
188.00343399999923
 20
-113.02415800000095
 10
187.96050799999924
 20
-113.06683000000095
 10
187.91859799999924
 20
-113.11077200000095
 10
187.87795799999927
 20
-113.15598400000096
 10
187.83858799999928
 20
-113.20246600000095
 10
187.80023399999928
 20
-113.24996400000096
 10
187.76289599999927
 20
-113.29873200000095
 10
187.72657399999926
 20
-113.34826200000096
 10
187.69126799999924
 20
-113.39855400000094
 10
187.65697799999924
 20
-113.44960800000095
 10
187.62344999999928
 20
-113.50142400000095
 10
187.55105999999927
 20
-113.61724800000096
 10
187.48070199999927
 20
-113.73434200000096
 10
187.41212199999927
 20
-113.85245200000095
 10
187.34531999999928
 20
-113.97157800000095
 10
187.28029599999928
 20
-114.09146600000095
 10
187.21679599999928
 20
-114.21237000000094
 10
187.15481999999926
 20
-114.33403600000095
 10
187.09436799999924
 20
-114.45646400000095
 10
187.03543999999926
 20
-114.57965400000096
 10
186.97803599999926
 20
-114.70360600000096
 10
186.92190199999925
 20
-114.82832000000096
 10
186.86703799999924
 20
-114.95354200000095
 10
186.81344399999924
 20
-115.07927200000096
 10
186.76111999999924
 20
-115.20551000000096
 10
186.71006599999924
 20
-115.33225600000095
 10
186.66002799999924
 20
-115.45951000000096
 10
186.27953599999924
 20
-116.43766400000095
 10
185.8990439999992
 20
-117.41581800000095
 10
185.5185519999992
 20
-118.39397200000096
 10
185.1380599999992
 20
-119.37212600000095
 10
184.75756799999917
 20
-120.35028000000095
 10
184.37707599999916
 20
-121.32843400000095
 10
183.99658399999916
 20
-122.30658800000096
 10
183.61609199999916
 20
-123.28474200000095
 10
183.23559999999912
 20
-124.26289600000095
 10
182.85510799999912
 20
-125.24105000000095
 10
182.47461599999912
 20
-126.21920400000096
 10
182.09412399999908
 20
-127.19735800000095
 10
181.71363199999908
 20
-128.17551200000096
 10
181.33313999999908
 20
-129.15366600000095
 10
180.95264799999904
 20
-130.13182000000097
 10
180.57215599999904
 20
-131.10997400000096
 10
180.37733799999904
 20
-131.61060800000098
 10
180.18277399999903
 20
-132.11124200000097
 10
179.98897199999902
 20
-132.61213000000097
 10
179.79593199999903
 20
-133.11352600000097
 10
179.60390799999905
 20
-133.615176000001
 10
179.41340799999904
 20
-134.11733400000097
 10
179.22443199999904
 20
-134.62025400000098
 10
179.03748799999903
 20
-135.12393600000095
 10
178.85282999999905
 20
-135.62838000000096
 10
178.67071199999904
 20
-136.13358600000097
 10
178.49138799999903
 20
-136.63980800000098
 10
178.31536599999905
 20
-137.14704600000098
 10
178.14264599999908
 20
-137.65555400000096
 10
177.97373599999906
 20
-138.16507800000096
 10
177.80863599999907
 20
-138.67612600000095
 10
177.64785399999906
 20
-139.18844400000094
 10
177.50053399999905
 20
-139.67231400000094
 10
177.35727799999907
 20
-140.15745400000094
 10
177.21808599999906
 20
-140.64361000000093
 10
177.08321199999907
 20
-141.13103600000093
 10
176.95240199999907
 20
-141.61947800000092
 10
176.82565599999907
 20
-142.10893600000094
 10
176.7029739999991
 20
-142.59966400000093
 10
176.5846099999991
 20
-143.09140800000094
 10
176.47030999999907
 20
-143.58391400000093
 10
176.3600739999991
 20
-144.07743600000094
 10
176.25390199999907
 20
-144.57197400000095
 10
176.1520479999991
 20
-145.06727400000094
 10
176.0542579999991
 20
-145.56333600000093
 10
175.9605319999991
 20
-146.06016000000093
 10
175.8711239999991
 20
-146.55800000000096
 10
175.78577999999908
 20
-147.05634800000095
 10
175.7121199999991
 20
-147.49729200000095
 10
175.6389679999991
 20
-147.93569600000095
 10
175.5665779999991
 20
-148.37206800000095
 10
175.49571199999912
 20
-148.80666200000096
 10
175.4266239999991
 20
-149.23998600000095
 10
175.3595679999991
 20
-149.67229400000096
 10
175.29530599999907
 20
-150.10409400000097
 10
175.2340919999991
 20
-150.53589400000098
 10
175.1764339999991
 20
-150.96794800000097
 10
175.1225859999991
 20
-151.401018000001
 10
175.07305599999907
 20
-151.83510400000097
 10
175.02835199999907
 20
-152.27096800000098
 10
174.98898199999908
 20
-152.70886400000097
 10
174.95519999999905
 20
-153.149300000001
 10
174.92751399999906
 20
-153.592530000001
 10
174.90643199999906
 20
-154.039062000001
 10
174.90287599999905
 20
-154.132280000001
 10
174.89957399999906
 20
-154.235150000001
 10
174.89627199999904
 20
-154.34640200000098
 10
174.89322399999907
 20
-154.465274000001
 10
174.89068399999906
 20
-154.59024200000096
 10
174.88865199999904
 20
-154.72054400000098
 10
174.88712799999905
 20
-154.85491000000098
 10
174.88636599999904
 20
-154.992324000001
 10
174.88636599999904
 20
-155.13177000000098
 10
174.88712799999905
 20
-155.27197800000098
 10
174.88890599999905
 20
-155.411932000001
 10
174.89169999999905
 20
-155.550616000001
 10
174.89576399999902
 20
-155.686760000001
 10
174.90109799999902
 20
-155.819348000001
 10
174.907701999999
 20
-155.94736400000102
 10
174.915829999999
 20
-156.069792000001
 10
174.92675199999903
 20
-156.154882000001
 10
174.94605599999903
 20
-156.236924000001
 10
174.97323399999902
 20
-156.315156000001
 10
175.007777999999
 20
-156.389324000001
 10
175.049179999999
 20
-156.459174000001
 10
175.097185999999
 20
-156.524198000001
 10
175.151033999999
 20
-156.583888000001
 10
175.21046999999902
 20
-156.637990000001
 10
175.274731999999
 20
-156.68599600000098
 10
175.34356599999902
 20
-156.727652000001
 10
175.41646399999902
 20
-156.76245000000097
 10
175.49291799999904
 20
-156.78988200000097
 10
175.57241999999903
 20
-156.80969400000095
 10
175.65446199999903
 20
-156.82137800000098
 10
175.73853599999902
 20
-156.82442600000095
 10
175.82413399999902
 20
-156.81858400000095
 10
176.74742399999903
 20
-156.71215800000095
 10
177.71922799999902
 20
-156.61055800000096
 10
178.73243399999905
 20
-156.51505400000096
 10
179.77967599999906
 20
-156.42742400000094
 10
180.85358799999904
 20
-156.34919200000095
 10
181.94680399999902
 20
-156.28188200000096
 10
183.05221199999903
 20
-156.22701800000095
 10
184.162191999999
 20
-156.18637800000096
 10
185.26963199999904
 20
-156.16123200000095
 10
186.36716599999903
 20
-156.15335800000096
 10
187.44768199999905
 20
-156.16428000000096
 10
188.50355999999906
 20
-156.19552200000098
 10
189.52768799999905
 20
-156.24860800000096
 10
190.51269999999906
 20
-156.32506200000097
 10
191.45148399999908
 20
-156.42666200000096
 10
192.3364199999991
 20
-156.554678000001
 10
192.4537679999991
 20
-156.57322000000096
 10
192.57365599999906
 20
-156.589730000001
 10
192.69557599999908
 20
-156.603446000001
 10
192.8185119999991
 20
-156.61360600000097
 10
192.94170199999908
 20
-156.61944800000097
 10
193.0641299999991
 20
-156.620464000001
 10
193.1850339999991
 20
-156.61563800000098
 10
193.30339799999908
 20
-156.604208000001
 10
193.41845999999907
 20
-156.585412000001
 10
193.5294579999991
 20
-156.558488000001
 10
193.6353759999991
 20
-156.52267400000102
 10
193.7354519999991
 20
-156.477208000001
 10
193.82866999999908
 20
-156.42107400000103
 10
193.91452199999907
 20
-156.353764000001
 10
193.99173799999906
 20
-156.27451600000103
 10
194.0598099999991
 20
-156.18256800000103
 10
194.0763199999991
 20
-156.15564400000102
 10
194.0918139999991
 20
-156.12821200000104
 10
194.10629199999912
 20
-156.10027200000104
 10
194.1197539999991
 20
-156.07182400000104
 10
194.1324539999991
 20
-156.04312200000103
 10
194.1443919999991
 20
-156.01391200000103
 10
194.15556799999908
 20
-155.98444800000104
 10
194.1659819999991
 20
-155.95473000000104
 10
194.1758879999991
 20
-155.92475800000102
 10
194.1852859999991
 20
-155.89453200000102
 10
194.1941759999991
 20
-155.864052000001
 10
194.2028119999991
 20
-155.83357200000103
 10
194.2111939999991
 20
-155.80309200000102
 10
194.21932199999912
 20
-155.77235800000102
 10
194.2271959999991
 20
-155.74162400000102
 10
194.2350699999991
 20
-155.71089000000103
 10
194.7374819999991
 20
-153.73705600000105
 10
195.2388779999991
 20
-151.77973200000105
 10
195.7392579999991
 20
-149.83663200000103
 10
196.23912999999908
 20
-147.90547000000106
 10
196.7384939999991
 20
-145.98370600000106
 10
197.2373499999991
 20
-144.06905400000105
 10
197.7359519999991
 20
-142.15897400000105
 10
198.23429999999908
 20
-140.25143400000104
 10
198.73264799999907
 20
-138.34389400000106
 10
199.23124999999908
 20
-136.43381400000106
 10
199.7301059999991
 20
-134.51916200000105
 10
200.22946999999908
 20
-132.59739800000105
 10
200.7293419999991
 20
-130.66598200000104
 10
201.2297219999991
 20
-128.72288200000105
 10
201.7311179999991
 20
-126.76555800000104
 10
202.2335299999991
 20
-124.79172400000104
 10
202.3320819999991
 20
-124.39446800000103
 10
202.4278399999991
 20
-123.99314800000104
 10
202.5213119999991
 20
-123.58801800000103
 10
202.6130059999991
 20
-123.17933200000104
 10
202.7034299999991
 20
-122.76734400000103
 10
202.7933459999991
 20
-122.35256200000103
 10
202.88326199999912
 20
-121.93498600000103
 10
202.9736859999991
 20
-121.51512400000102
 10
203.0651259999991
 20
-121.09297600000103
 10
203.1580899999991
 20
-120.66905000000104
 10
203.25333999999913
 20
-120.24334600000104
 10
203.35138399999911
 20
-119.81637200000105
 10
203.45272999999912
 20
-119.38838200000104
 10
203.55788599999912
 20
-118.95963000000104
 10
203.66735999999912
 20
-118.53037000000104
 10
203.78191399999912
 20
-118.10085600000106
 10
203.84312799999913
 20
-117.88419400000106
 10
203.9078979999991
 20
-117.66677000000105
 10
203.9744459999991
 20
-117.44858400000106
 10
204.04099399999907
 20
-117.22989000000106
 10
204.10627199999908
 20
-117.01068800000107
 10
204.1682479999991
 20
-116.79123200000107
 10
204.2256519999991
 20
-116.57177600000108
 10
204.27670599999908
 20
-116.35232000000109
 10
204.3198859999991
 20
-116.13311800000108
 10
204.35341399999908
 20
-115.91417000000108
 10
204.37576599999906
 20
-115.69573000000108
 10
204.38516399999907
 20
-115.47779800000107
 10
204.38008399999907
 20
-115.26062800000106
 10
204.35900199999907
 20
-115.04422000000108
 10
204.32013999999907
 20
-114.82882800000107
 10
204.26197399999907
 20
-114.61470600000106
  0
LWPOLYLINE
  5
3A
330
17
100
AcDbEntity
  8
0
100
AcDbPolyline
 90
65
 70
0
 10
197.24141399999903
 20
-128.72186600000109
 10
197.21753799999902
 20
-129.1971000000011
 10
197.147179999999
 20
-129.65861800000107
 10
197.032625999999
 20
-130.10413400000107
 10
196.876415999999
 20
-130.53136200000108
 10
196.68058199999902
 20
-130.93776200000107
 10
196.447663999999
 20
-131.3210480000011
 10
196.179947999999
 20
-131.67893400000108
 10
195.879973999999
 20
-132.00913400000107
 10
195.54977399999902
 20
-132.3091080000011
 10
195.191887999999
 20
-132.57682400000107
 10
194.808601999999
 20
-132.80974200000108
 10
194.402201999999
 20
-133.00557600000107
 10
193.974973999999
 20
-133.1617860000011
 10
193.529457999999
 20
-133.27634000000108
 10
193.067939999999
 20
-133.34669800000108
 10
192.592705999999
 20
-133.3705740000011
 10
192.117471999999
 20
-133.34669800000108
 10
191.655953999999
 20
-133.27634000000108
 10
191.210437999999
 20
-133.1617860000011
 10
190.783463999999
 20
-133.00557600000107
 10
190.377063999999
 20
-132.80974200000108
 10
189.99377799999897
 20
-132.57682400000107
 10
189.635891999999
 20
-132.3091080000011
 10
189.305691999999
 20
-132.00913400000107
 10
189.00571799999898
 20
-131.67893400000108
 10
188.738001999999
 20
-131.3210480000011
 10
188.505083999999
 20
-130.93776200000107
 10
188.309249999999
 20
-130.53136200000108
 10
188.15303999999898
 20
-130.10413400000107
 10
188.03848599999898
 20
-129.65861800000107
 10
187.96812799999898
 20
-129.19710000000106
 10
187.94425199999895
 20
-128.72186600000106
 10
187.96812799999898
 20
-128.24663200000109
 10
188.03848599999898
 20
-127.78511400000107
 10
188.15303999999898
 20
-127.33959800000106
 10
188.309249999999
 20
-126.91262400000107
 10
188.505083999999
 20
-126.50622400000107
 10
188.738001999999
 20
-126.12293800000106
 10
189.00571799999898
 20
-125.76505200000106
 10
189.305691999999
 20
-125.43485200000106
 10
189.635891999999
 20
-125.13487800000107
 10
189.99377799999897
 20
-124.86716200000107
 10
190.377063999999
 20
-124.63424400000108
 10
190.783463999999
 20
-124.43841000000107
 10
191.210437999999
 20
-124.28220000000107
 10
191.655953999999
 20
-124.16764600000107
 10
192.117471999999
 20
-124.09728800000107
 10
192.592705999999
 20
-124.07315800000106
 10
193.067939999999
 20
-124.09728800000107
 10
193.529457999999
 20
-124.16764600000107
 10
193.974973999999
 20
-124.28220000000107
 10
194.402201999999
 20
-124.43841000000107
 10
194.808601999999
 20
-124.63424400000108
 10
195.191887999999
 20
-124.86716200000107
 10
195.54977399999902
 20
-125.13487800000107
 10
195.879973999999
 20
-125.43485200000106
 10
196.179947999999
 20
-125.76505200000106
 10
196.447663999999
 20
-126.12293800000106
 10
196.68058199999902
 20
-126.50622400000107
 10
196.876415999999
 20
-126.91262400000107
 10
197.032625999999
 20
-127.33959800000106
 10
197.147179999999
 20
-127.78511400000107
 10
197.21753799999902
 20
-128.24663200000109
 10
197.24141399999903
 20
-128.72186600000106
  0
LWPOLYLINE
  5
3B
330
17
100
AcDbEntity
  8
0
100
AcDbPolyline
 90
65
 70
0
 10
200.38847399999904
 20
-110.12728800000107
 10
200.37221799999904
 20
-110.44910600000107
 10
200.32446599999903
 20
-110.76152600000107
 10
200.24699599999906
 20
-111.06302400000108
 10
200.14107799999906
 20
-111.35207600000108
 10
200.00848999999903
 20
-111.62715800000107
 10
199.85075599999905
 20
-111.88674600000108
 10
199.66965399999904
 20
-112.12906200000108
 10
199.46645399999906
 20
-112.35258200000108
 10
199.24293399999905
 20
-112.55578200000107
 10
199.00061799999906
 20
-112.73688400000108
 10
198.74102999999906
 20
-112.89461800000107
 10
198.46594799999906
 20
-113.02720600000107
 10
198.17689599999906
 20
-113.13312400000108
 10
197.87539799999905
 20
-113.21059400000107
 10
197.56297799999905
 20
-113.25834600000107
 10
197.24115999999904
 20
-113.27460200000108
 10
196.91934199999903
 20
-113.25834600000107
 10
196.60692199999903
 20
-113.21059400000107
 10
196.30542399999902
 20
-113.13312400000108
 10
196.01637199999902
 20
-113.02720600000107
 10
195.74128999999903
 20
-112.89461800000107
 10
195.48170199999902
 20
-112.73688400000108
 10
195.23938599999903
 20
-112.55578200000107
 10
195.01586599999902
 20
-112.35258200000108
 10
194.81266599999904
 20
-112.12906200000108
 10
194.63156399999903
 20
-111.88674600000108
 10
194.47382999999905
 20
-111.62715800000107
 10
194.34124199999903
 20
-111.35207600000108
 10
194.23532399999903
 20
-111.06302400000108
 10
194.15785399999905
 20
-110.76152600000107
 10
194.11010199999905
 20
-110.44910600000107
 10
194.09384599999905
 20
-110.12728800000107
 10
194.11010199999905
 20
-109.80547000000107
 10
194.15785399999905
 20
-109.49305000000106
 10
194.23532399999903
 20
-109.19155200000107
 10
194.34124199999903
 20
-108.90250000000107
 10
194.47382999999905
 20
-108.62741800000106
 10
194.63156399999903
 20
-108.36783000000106
 10
194.81266599999904
 20
-108.12551400000106
 10
195.01586599999902
 20
-107.90199400000107
 10
195.23938599999903
 20
-107.69879400000106
 10
195.48170199999902
 20
-107.51769200000106
 10
195.74128999999903
 20
-107.35995800000106
 10
196.01637199999902
 20
-107.22737000000106
 10
196.30542399999902
 20
-107.12145200000107
 10
196.60692199999903
 20
-107.04398200000107
 10
196.91934199999903
 20
-106.99623000000108
 10
197.24115999999904
 20
-106.97997400000106
 10
197.56297799999905
 20
-106.99623000000108
 10
197.87539799999905
 20
-107.04398200000107
 10
198.17689599999906
 20
-107.12145200000107
 10
198.46594799999906
 20
-107.22737000000106
 10
198.74102999999906
 20
-107.35995800000106
 10
199.00061799999906
 20
-107.51769200000106
 10
199.24293399999905
 20
-107.69879400000106
 10
199.46645399999906
 20
-107.90199400000107
 10
199.66965399999904
 20
-108.12551400000106
 10
199.85075599999905
 20
-108.36783000000106
 10
200.00848999999903
 20
-108.62741800000106
 10
200.14107799999906
 20
-108.90250000000107
 10
200.24699599999906
 20
-109.19155200000107
 10
200.32446599999903
 20
-109.49305000000106
 10
200.37221799999904
 20
-109.80547000000107
 10
200.38847399999904
 20
-110.12728800000107
  0
LWPOLYLINE
  5
3C
330
17
100
AcDbEntity
  8
0
100
AcDbPolyline
 90
65
 70
0
 10
190.90385999999904
 20
-146.66950600000106
 10
190.88861999999904
 20
-146.97227400000105
 10
190.84366199999903
 20
-147.26640600000107
 10
190.77076399999902
 20
-147.55012400000106
 10
190.67119599999901
 20
-147.82215800000105
 10
190.54648199999903
 20
-148.08098400000105
 10
190.39814599999903
 20
-148.32507800000107
 10
190.22771199999903
 20
-148.5529160000011
 10
190.036449999999
 20
-148.76322800000108
 10
189.82613799999902
 20
-148.95449000000107
 10
189.598299999999
 20
-149.1249240000011
 10
189.354205999999
 20
-149.27326000000107
 10
189.095379999999
 20
-149.39797400000108
 10
188.823345999999
 20
-149.4975420000011
 10
188.539627999999
 20
-149.5704400000011
 10
188.245495999999
 20
-149.6153980000011
 10
187.942727999999
 20
-149.63063800000108
 10
187.639959999999
 20
-149.6153980000011
 10
187.345827999999
 20
-149.5704400000011
 10
187.062109999999
 20
-149.4975420000011
 10
186.790075999999
 20
-149.39797400000108
 10
186.531249999999
 20
-149.27326000000107
 10
186.287155999999
 20
-149.1249240000011
 10
186.05906399999898
 20
-148.95449000000107
 10
185.848751999999
 20
-148.76322800000108
 10
185.657743999999
 20
-148.5529160000011
 10
185.48730999999898
 20
-148.32507800000107
 10
185.338973999999
 20
-148.08098400000105
 10
185.214259999999
 20
-147.82215800000105
 10
185.114691999999
 20
-147.55012400000106
 10
185.041793999999
 20
-147.26640600000107
 10
184.99683599999898
 20
-146.97227400000105
 10
184.981595999999
 20
-146.66950600000106
 10
184.99683599999898
 20
-146.36673800000105
 10
185.041793999999
 20
-146.07260600000106
 10
185.114691999999
 20
-145.78888800000107
 10
185.214259999999
 20
-145.51685400000105
 10
185.338973999999
 20
-145.25802800000105
 10
185.48730999999898
 20
-145.01393400000106
 10
185.657743999999
 20
-144.78584200000105
 10
185.848751999999
 20
-144.57553000000107
 10
186.05906399999898
 20
-144.38452200000106
 10
186.287155999999
 20
-144.21408800000106
 10
186.531249999999
 20
-144.06575200000105
 10
186.790075999999
 20
-143.94103800000107
 10
187.062109999999
 20
-143.84147000000107
 10
187.345827999999
 20
-143.76857200000106
 10
187.639959999999
 20
-143.72361400000105
 10
187.942727999999
 20
-143.70837400000104
 10
188.245495999999
 20
-143.72361400000105
 10
188.539627999999
 20
-143.76857200000106
 10
188.823345999999
 20
-143.84147000000107
 10
189.095379999999
 20
-143.94103800000107
 10
189.354205999999
 20
-144.06575200000105
 10
189.598299999999
 20
-144.21408800000106
 10
189.82613799999902
 20
-144.38452200000106
 10
190.036449999999
 20
-144.57553000000107
 10
190.22771199999903
 20
-144.78584200000105
 10
190.39814599999903
 20
-145.01393400000106
 10
190.54648199999903
 20
-145.25802800000105
 10
190.67119599999901
 20
-145.51685400000105
 10
190.77076399999902
 20
-145.78888800000107
 10
190.84366199999903
 20
-146.07260600000106
 10
190.88861999999904
 20
-146.36673800000105
 10
190.90385999999904
 20
-146.66950600000106
  0
ENDSEC
  0
SECTION
  2
OBJECTS
  0
DICTIONARY
  5
A
330
0
100
AcDbDictionary
281
1
  3
ACAD_COLOR
350
B
  3
ACAD_GROUP
350
C
  3
ACAD_LAYOUT
350
D
  3
ACAD_MATERIAL
350
E
  3
ACAD_MLEADERSTYLE
350
F
  3
ACAD_MLINESTYLE
350
10
  3
ACAD_PLOTSETTINGS
350
11
  3
ACAD_PLOTSTYLENAME
350
12
  3
ACAD_SCALELIST
350
14
  3
ACAD_TABLESTYLE
350
15
  3
ACAD_VISUALSTYLE
350
16
  3
EZDXF_META
350
2D
  0
DICTIONARY
  5
B
330
A
100
AcDbDictionary
281
1
  0
DICTIONARY
  5
C
330
A
100
AcDbDictionary
281
1
  0
DICTIONARY
  5
D
330
A
100
AcDbDictionary
281
1
  3
Model
350
1A
  3
Layout1
350
1E
  0
DICTIONARY
  5
E
330
A
100
AcDbDictionary
281
1
  3
ByBlock
350
1F
  3
ByLayer
350
20
  3
Global
350
21
  0
DICTIONARY
  5
F
330
A
100
AcDbDictionary
281
1
  3
Standard
350
2C
  0
DICTIONARY
  5
10
330
A
100
AcDbDictionary
281
1
  3
Standard
350
22
  0
DICTIONARY
  5
11
330
A
100
AcDbDictionary
281
1
  0
ACDBDICTIONARYWDFLT
  5
12
330
A
100
AcDbDictionary
281
1
  3
Normal
350
13
100
AcDbDictionaryWithDefault
340
13
  0
ACDBPLACEHOLDER
  5
13
330
12
  0
DICTIONARY
  5
14
330
A
100
AcDbDictionary
281
1
  0
DICTIONARY
  5
15
330
A
100
AcDbDictionary
281
1
  0
DICTIONARY
  5
16
330
A
100
AcDbDictionary
281
1
  0
LAYOUT
  5
1A
330
D
100
AcDbPlotSettings
  1

  4
A3
  6

 40
7.5
 41
20.0
 42
7.5
 43
20.0
 44
420.0
 45
297.0
 46
0.0
 47
0.0
 48
0.0
 49
0.0
140
0.0
141
0.0
142
1.0
143
1.0
 70
1024
 72
1
 73
0
 74
5
  7

 75
16
 76
0
 77
2
 78
300
147
1.0
148
0.0
149
0.0
100
AcDbLayout
  1
Model
 70
1
 71
0
 10
0.0
 20
0.0
 11
420.0
 21
297.0
 12
0.0
 22
0.0
 32
0.0
 14
1e+20
 24
1e+20
 34
1e+20
 15
-1e+20
 25
-1e+20
 35
-1e+20
146
0.0
 13
0.0
 23
0.0
 33
0.0
 16
1.0
 26
0.0
 36
0.0
 17
0.0
 27
1.0
 37
0.0
 76
1
330
17
  0
LAYOUT
  5
1E
330
D
100
AcDbPlotSettings
  1

  4
A3
  6

 40
7.5
 41
20.0
 42
7.5
 43
20.0
 44
420.0
 45
297.0
 46
0.0
 47
0.0
 48
0.0
 49
0.0
140
0.0
141
0.0
142
1.0
143
1.0
 70
0
 72
1
 73
0
 74
5
  7

 75
16
 76
0
 77
2
 78
300
147
1.0
148
0.0
149
0.0
100
AcDbLayout
  1
Layout1
 70
1
 71
1
 10
0.0
 20
0.0
 11
420.0
 21
297.0
 12
0.0
 22
0.0
 32
0.0
 14
1e+20
 24
1e+20
 34
1e+20
 15
-1e+20
 25
-1e+20
 35
-1e+20
146
0.0
 13
0.0
 23
0.0
 33
0.0
 16
1.0
 26
0.0
 36
0.0
 17
0.0
 27
1.0
 37
0.0
 76
1
330
1B
  0
MATERIAL
  5
1F
102
{ACAD_REACTORS
330
E
102
}
330
E
100
AcDbMaterial
  1
ByBlock
  2

 70
0
 40
1.0
 71
1
 41
1.0
 91
-1023410177
 42
1.0
 72
1
  3

 73
1
 74
1
 75
1
 44
0.5
 73
0
 45
1.0
 46
1.0
 77
1
  4

 78
1
 79
1
170
1
 48
1.0
171
1
  6

172
1
173
1
174
1
140
1.0
141
1.0
175
1
  7

176
1
177
1
178
1
143
1.0
179
1
  8

270
1
271
1
272
1
145
1.0
146
1.0
273
1
  9

274
1
275
1
276
1
 42
1.0
 72
1
  3

 73
1
 74
1
 75
1
 94
63
  0
MATERIAL
  5
20
102
{ACAD_REACTORS
330
E
102
}
330
E
100
AcDbMaterial
  1
ByLayer
  2

 70
0
 40
1.0
 71
1
 41
1.0
 91
-1023410177
 42
1.0
 72
1
  3

 73
1
 74
1
 75
1
 44
0.5
 73
0
 45
1.0
 46
1.0
 77
1
  4

 78
1
 79
1
170
1
 48
1.0
171
1
  6

172
1
173
1
174
1
140
1.0
141
1.0
175
1
  7

176
1
177
1
178
1
143
1.0
179
1
  8

270
1
271
1
272
1
145
1.0
146
1.0
273
1
  9

274
1
275
1
276
1
 42
1.0
 72
1
  3

 73
1
 74
1
 75
1
 94
63
  0
MATERIAL
  5
21
102
{ACAD_REACTORS
330
E
102
}
330
E
100
AcDbMaterial
  1
Global
  2

 70
0
 40
1.0
 71
1
 41
1.0
 91
-1023410177
 42
1.0
 72
1
  3

 73
1
 74
1
 75
1
 44
0.5
 73
0
 45
1.0
 46
1.0
 77
1
  4

 78
1
 79
1
170
1
 48
1.0
171
1
  6

172
1
173
1
174
1
140
1.0
141
1.0
175
1
  7

176
1
177
1
178
1
143
1.0
179
1
  8

270
1
271
1
272
1
145
1.0
146
1.0
273
1
  9

274
1
275
1
276
1
 42
1.0
 72
1
  3

 73
1
 74
1
 75
1
 94
63
  0
MLINESTYLE
  5
22
102
{ACAD_REACTORS
330
10
102
}
330
10
100
AcDbMlineStyle
  2
Standard
 70
0
  3

 62
256
 51
90.0
 52
90.0
 71
2
 49
0.5
 62
256
  6
BYLAYER
 49
-0.5
 62
256
  6
BYLAYER
  0
MLEADERSTYLE
  5
2C
102
{ACAD_REACTORS
330
F
102
}
330
F
100
AcDbMLeaderStyle
179
2
170
2
171
1
172
0
 90
2
 40
0.0
 41
0.0
173
1
 91
-1056964608
 92
-2
290
1
 42
2.0
291
1
 43
8.0
  3
Standard
 44
4.0
300

342
29
174
1
175
1
176
0
178
1
 93
-1056964608
 45
4.0
292
0
297
0
 46
4.0
 94
-1056964608
 47
1.0
 49
1.0
140
1.0
294
1
141
0.0
177
0
142
1.0
295
0
296
0
143
3.75
271
0
272
9
273
9
  0
DICTIONARY
  5
2D
330
A
100
AcDbDictionary
280
1
281
1
  3
CREATED_BY_EZDXF
350
2E
  3
WRITTEN_BY_EZDXF
350
3F
  0
DICTIONARYVAR
  5
2E
330
2D
100
DictionaryVariables
280
0
  1
1.4.3 @ 2026-04-08T01:02:29.026531+00:00
  0
DICTIONARYVAR
  5
3F
330
2D
100
DictionaryVariables
280
0
  1
1.4.3 @ 2026-04-09T21:09:48.539306+00:00
  0
ENDSEC
  0
EOF
