  0
SECTION
  2
HEADER
  9
$ACADVER
  1
AC1024
  9
$ACADMAINTVER
 70
6
  9
$DWGCODEPAGE
  3
ANSI_1252
  9
$LASTSAVEDBY
  1
ezdxf
  9
$INSBASE
 10
0.0
 20
0.0
 30
0.0
  9
$EXTMIN
 10
1e+20
 20
1e+20
 30
1e+20
  9
$EXTMAX
 10
-1e+20
 20
-1e+20
 30
-1e+20
  9
$LIMMIN
 10
0.0
 20
0.0
  9
$LIMMAX
 10
420.0
 20
297.0
  9
$ORTHOMODE
 70
0
  9
$REGENMODE
 70
1
  9
$FILLMODE
 70
1
  9
$QTEXTMODE
 70
0
  9
$MIRRTEXT
 70
1
  9
$LTSCALE
 40
1.0
  9
$ATTMODE
 70
1
  9
$TEXTSIZE
 40
2.5
  9
$TRACEWID
 40
1.0
  9
$TEXTSTYLE
  7
Standard
  9
$CLAYER
  8
0
  9
$CELTYPE
  6
ByLayer
  9
$CECOLOR
 62
256
  9
$CELTSCALE
 40
1.0
  9
$DISPSILH
 70
0
  9
$DIMSCALE
 40
1.0
  9
$DIMASZ
 40
2.5
  9
$DIMEXO
 40
0.625
  9
$DIMDLI
 40
3.75
  9
$DIMRND
 40
0.0
  9
$DIMDLE
 40
0.0
  9
$DIMEXE
 40
1.25
  9
$DIMTP
 40
0.0
  9
$DIMTM
 40
0.0
  9
$DIMTXT
 40
2.5
  9
$DIMCEN
 40
2.5
  9
$DIMTSZ
 40
0.0
  9
$DIMTOL
 70
0
  9
$DIMLIM
 70
0
  9
$DIMTIH
 70
0
  9
$DIMTOH
 70
0
  9
$DIMSE1
 70
0
  9
$DIMSE2
 70
0
  9
$DIMTAD
 70
1
  9
$DIMZIN
 70
8
  9
$DIMBLK
  1

  9
$DIMASO
 70
1
  9
$DIMSHO
 70
1
  9
$DIMPOST
  1

  9
$DIMAPOST
  1

  9
$DIMALT
 70
0
  9
$DIMALTD
 70
3
  9
$DIMALTF
 40
0.03937007874
  9
$DIMLFAC
 40
1.0
  9
$DIMTOFL
 70
1
  9
$DIMTVP
 40
0.0
  9
$DIMTIX
 70
0
  9
$DIMSOXD
 70
0
  9
$DIMSAH
 70
0
  9
$DIMBLK1
  1

  9
$DIMBLK2
  1

  9
$DIMSTYLE
  2
ISO-25
  9
$DIMCLRD
 70
0
  9
$DIMCLRE
 70
0
  9
$DIMCLRT
 70
0
  9
$DIMTFAC
 40
1.0
  9
$DIMGAP
 40
0.625
  9
$DIMJUST
 70
0
  9
$DIMSD1
 70
0
  9
$DIMSD2
 70
0
  9
$DIMTOLJ
 70
0
  9
$DIMTZIN
 70
8
  9
$DIMALTZ
 70
0
  9
$DIMALTTZ
 70
0
  9
$DIMUPT
 70
0
  9
$DIMDEC
 70
2
  9
$DIMTDEC
 70
2
  9
$DIMALTU
 70
2
  9
$DIMALTTD
 70
3
  9
$DIMTXSTY
  7
Standard
  9
$DIMAUNIT
 70
0
  9
$DIMADEC
 70
0
  9
$DIMALTRND
 40
0.0
  9
$DIMAZIN
 70
0
  9
$DIMDSEP
 70
44
  9
$DIMATFIT
 70
3
  9
$DIMFRAC
 70
0
  9
$DIMLDRBLK
  1

  9
$DIMLUNIT
 70
2
  9
$DIMLWD
 70
-2
  9
$DIMLWE
 70
-2
  9
$DIMTMOVE
 70
0
  9
$DIMFXL
 40
1.0
  9
$DIMFXLON
 70
0
  9
$DIMJOGANG
 40
0.785398163397
  9
$DIMTFILL
 70
0
  9
$DIMTFILLCLR
 70
0
  9
$DIMARCSYM
 70
0
  9
$DIMLTYPE
  6

  9
$DIMLTEX1
  6

  9
$DIMLTEX2
  6

  9
$DIMTXTDIRECTION
 70
0
  9
$LUNITS
 70
2
  9
$LUPREC
 70
4
  9
$SKETCHINC
 40
1.0
  9
$FILLETRAD
 40
10.0
  9
$AUNITS
 70
0
  9
$AUPREC
 70
2
  9
$MENU
  1
.
  9
$ELEVATION
 40
0.0
  9
$PELEVATION
 40
0.0
  9
$THICKNESS
 40
0.0
  9
$LIMCHECK
 70
0
  9
$CHAMFERA
 40
0.0
  9
$CHAMFERB
 40
0.0
  9
$CHAMFERC
 40
0.0
  9
$CHAMFERD
 40
0.0
  9
$SKPOLY
 70
0
  9
$TDCREATE
 40
2461140.6092476854
  9
$TDUCREATE
 40
2458532.153996898
  9
$TDUPDATE
 40
2461140.6092476854
  9
$TDUUPDATE
 40
2458532.1544311
  9
$TDINDWG
 40
0.0
  9
$TDUSRTIMER
 40
0.0
  9
$USRTIMER
 70
1
  9
$ANGBASE
 50
0.0
  9
$ANGDIR
 70
0
  9
$PDMODE
 70
0
  9
$PDSIZE
 40
0.0
  9
$PLINEWID
 40
0.0
  9
$SPLFRAME
 70
0
  9
$SPLINETYPE
 70
6
  9
$SPLINESEGS
 70
8
  9
$HANDSEED
  5
1DB
  9
$SURFTAB1
 70
6
  9
$SURFTAB2
 70
6
  9
$SURFTYPE
 70
6
  9
$SURFU
 70
6
  9
$SURFV
 70
6
  9
$UCSBASE
  2

  9
$UCSNAME
  2

  9
$UCSORG
 10
0.0
 20
0.0
 30
0.0
  9
$UCSXDIR
 10
1.0
 20
0.0
 30
0.0
  9
$UCSYDIR
 10
0.0
 20
1.0
 30
0.0
  9
$UCSORTHOREF
  2

  9
$UCSORTHOVIEW
 70
0
  9
$UCSORGTOP
 10
0.0
 20
0.0
 30
0.0
  9
$UCSORGBOTTOM
 10
0.0
 20
0.0
 30
0.0
  9
$UCSORGLEFT
 10
0.0
 20
0.0
 30
0.0
  9
$UCSORGRIGHT
 10
0.0
 20
0.0
 30
0.0
  9
$UCSORGFRONT
 10
0.0
 20
0.0
 30
0.0
  9
$UCSORGBACK
 10
0.0
 20
0.0
 30
0.0
  9
$PUCSBASE
  2

  9
$PUCSNAME
  2

  9
$PUCSORG
 10
0.0
 20
0.0
 30
0.0
  9
$PUCSXDIR
 10
1.0
 20
0.0
 30
0.0
  9
$PUCSYDIR
 10
0.0
 20
1.0
 30
0.0
  9
$PUCSORTHOREF
  2

  9
$PUCSORTHOVIEW
 70
0
  9
$PUCSORGTOP
 10
0.0
 20
0.0
 30
0.0
  9
$PUCSORGBOTTOM
 10
0.0
 20
0.0
 30
0.0
  9
$PUCSORGLEFT
 10
0.0
 20
0.0
 30
0.0
  9
$PUCSORGRIGHT
 10
0.0
 20
0.0
 30
0.0
  9
$PUCSORGFRONT
 10
0.0
 20
0.0
 30
0.0
  9
$PUCSORGBACK
 10
0.0
 20
0.0
 30
0.0
  9
$USERI1
 70
0
  9
$USERI2
 70
0
  9
$USERI3
 70
0
  9
$USERI4
 70
0
  9
$USERI5
 70
0
  9
$USERR1
 40
0.0
  9
$USERR2
 40
0.0
  9
$USERR3
 40
0.0
  9
$USERR4
 40
0.0
  9
$USERR5
 40
0.0
  9
$WORLDVIEW
 70
1
  9
$SHADEDGE
 70
3
  9
$SHADEDIF
 70
70
  9
$TILEMODE
 70
1
  9
$MAXACTVP
 70
64
  9
$PINSBASE
 10
0.0
 20
0.0
 30
0.0
  9
$PLIMCHECK
 70
0
  9
$PEXTMIN
 10
1e+20
 20
1e+20
 30
1e+20
  9
$PEXTMAX
 10
-1e+20
 20
-1e+20
 30
-1e+20
  9
$PLIMMIN
 10
0.0
 20
0.0
  9
$PLIMMAX
 10
420.0
 20
297.0
  9
$UNITMODE
 70
0
  9
$VISRETAIN
 70
1
  9
$PLINEGEN
 70
0
  9
$PSLTSCALE
 70
1
  9
$TREEDEPTH
 70
3020
  9
$CMLSTYLE
  2
Standard
  9
$CMLJUST
 70
0
  9
$CMLSCALE
 40
20.0
  9
$PROXYGRAPHICS
 70
1
  9
$MEASUREMENT
 70
1
  9
$CELWEIGHT
370
-1
  9
$ENDCAPS
280
0
  9
$JOINSTYLE
280
0
  9
$LWDISPLAY
290
0
  9
$INSUNITS
 70
4
  9
$HYPERLINKBASE
  1

  9
$STYLESHEET
  1

  9
$XEDIT
290
1
  9
$CEPSNTYPE
380
0
  9
$PSTYLEMODE
290
1
  9
$FINGERPRINTGUID
  2
{DDB3E5E2-5872-416B-8C66-7A16B9C4E98B}
  9
$VERSIONGUID
  2
{9C55F347-067D-42B5-A1D7-4BF970665858}
  9
$EXTNAMES
290
1
  9
$PSVPSCALE
 40
0.0
  9
$OLESTARTUP
290
0
  9
$SORTENTS
280
127
  9
$INDEXCTL
280
0
  9
$HIDETEXT
280
1
  9
$XCLIPFRAME
280
1
  9
$HALOGAP
280
0
  9
$OBSCOLOR
 70
257
  9
$OBSLTYPE
280
0
  9
$INTERSECTIONDISPLAY
280
0
  9
$INTERSECTIONCOLOR
 70
257
  9
$DIMASSOC
280
2
  9
$PROJECTNAME
  1

  9
$CAMERADISPLAY
290
0
  9
$LENSLENGTH
 40
50.0
  9
$CAMERAHEIGHT
 40
0.0
  9
$STEPSPERSEC
 40
24.0
  9
$STEPSIZE
 40
100.0
  9
$3DDWFPREC
 40
2.0
  9
$PSOLWIDTH
 40
0.005
  9
$PSOLHEIGHT
 40
0.08
  9
$LOFTANG1
 40
1.570796326795
  9
$LOFTANG2
 40
1.570796326795
  9
$LOFTMAG1
 40
0.0
  9
$LOFTMAG2
 40
0.0
  9
$LOFTPARAM
 70
7
  9
$LOFTNORMALS
280
1
  9
$LATITUDE
 40
37.795
  9
$LONGITUDE
 40
-122.394
  9
$NORTHDIRECTION
 40
0.0
  9
$TIMEZONE
 70
-8000
  9
$LIGHTGLYPHDISPLAY
280
1
  9
$TILEMODELIGHTSYNCH
280
1
  9
$CMATERIAL
347
20
  9
$SOLIDHIST
280
0
  9
$SHOWHIST
280
1
  9
$DWFFRAME
280
2
  9
$DGNFRAME
280
2
  9
$REALWORLDSCALE
290
1
  9
$INTERFERECOLOR
 62
256
  9
$CSHADOW
280
0
  9
$SHADOWPLANELOCATION
 40
0.0
  0
ENDSEC
  0
SECTION
  2
CLASSES
  0
CLASS
  1
ACDBDICTIONARYWDFLT
  2
AcDbDictionaryWithDefault
  3
ObjectDBX Classes
 90
0
 91
0
280
0
281
0
  0
CLASS
  1
SUN
  2
AcDbSun
  3
SCENEOE
 90
1153
 91
0
280
0
281
0
  0
CLASS
  1
VISUALSTYLE
  2
AcDbVisualStyle
  3
ObjectDBX Classes
 90
4095
 91
0
280
0
281
0
  0
CLASS
  1
MATERIAL
  2
AcDbMaterial
  3
ObjectDBX Classes
 90
1153
 91
0
280
0
281
0
  0
CLASS
  1
SCALE
  2
AcDbScale
  3
ObjectDBX Classes
 90
1153
 91
0
280
0
281
0
  0
CLASS
  1
TABLESTYLE
  2
AcDbTableStyle
  3
ObjectDBX Classes
 90
4095
 91
0
280
0
281
0
  0
CLASS
  1
MLEADERSTYLE
  2
AcDbMLeaderStyle
  3
ACDB_MLEADERSTYLE_CLASS
 90
4095
 91
0
280
0
281
0
  0
CLASS
  1
DICTIONARYVAR
  2
AcDbDictionaryVar
  3
ObjectDBX Classes
 90
0
 91
0
280
0
281
0
  0
CLASS
  1
CELLSTYLEMAP
  2
AcDbCellStyleMap
  3
ObjectDBX Classes
 90
1152
 91
0
280
0
281
0
  0
CLASS
  1
MENTALRAYRENDERSETTINGS
  2
AcDbMentalRayRenderSettings
  3
SCENEOE
 90
1024
 91
0
280
0
281
0
  0
CLASS
  1
ACDBDETAILVIEWSTYLE
  2
AcDbDetailViewStyle
  3
ObjectDBX Classes
 90
1025
 91
0
280
0
281
0
  0
CLASS
  1
ACDBSECTIONVIEWSTYLE
  2
AcDbSectionViewStyle
  3
ObjectDBX Classes
 90
1025
 91
0
280
0
281
0
  0
CLASS
  1
RASTERVARIABLES
  2
AcDbRasterVariables
  3
ISM
 90
0
 91
0
280
0
281
0
  0
CLASS
  1
LAYOUT
  2
AcDbLayout
  3
ObjectDBX Classes
 90
0
 91
0
280
0
281
0
  0
CLASS
  1
ACDBPLACEHOLDER
  2
AcDbPlaceHolder
  3
ObjectDBX Classes
 90
0
 91
0
280
0
281
0
  0
ENDSEC
  0
SECTION
  2
TABLES
  0
TABLE
  2
VPORT
  5
8
330
0
100
AcDbSymbolTable
 70
1
  0
VPORT
  5
23
330
8
100
AcDbSymbolTableRecord
100
AcDbViewportTableRecord
  2
*Active
 70
0
 10
0.0
 20
0.0
 11
1.0
 21
1.0
 12
0.0
 22
0.0
 13
0.0
 23
0.0
 14
0.5
 24
0.5
 15
0.5
 25
0.5
 16
0.0
 26
0.0
 36
1.0
 17
0.0
 27
0.0
 37
0.0
 40
1000.0
 41
1.34
 42
50.0
 43
0.0
 44
0.0
 50
0.0
 51
0.0
 71
0
 72
1000
 73
1
 74
3
 75
0
 76
0
 77
0
 78
0
281
0
 65
0
146
0.0
  0
ENDTAB
  0
TABLE
  2
LTYPE
  5
2
330
0
100
AcDbSymbolTable
 70
3
  0
LTYPE
  5
24
330
2
100
AcDbSymbolTableRecord
100
AcDbLinetypeTableRecord
  2
ByBlock
 70
0
  3

 72
65
 73
0
 40
0.0
  0
LTYPE
  5
25
330
2
100
AcDbSymbolTableRecord
100
AcDbLinetypeTableRecord
  2
ByLayer
 70
0
  3

 72
65
 73
0
 40
0.0
  0
LTYPE
  5
26
330
2
100
AcDbSymbolTableRecord
100
AcDbLinetypeTableRecord
  2
Continuous
 70
0
  3

 72
65
 73
0
 40
0.0
  0
ENDTAB
  0
TABLE
  2
LAYER
  5
1
330
0
100
AcDbSymbolTable
 70
2
  0
LAYER
  5
27
330
1
100
AcDbSymbolTableRecord
100
AcDbLayerTableRecord
  2
0
 70
0
 62
7
  6
Continuous
370
-3
390
13
347
21
  0
LAYER
  5
28
330
1
100
AcDbSymbolTableRecord
100
AcDbLayerTableRecord
  2
Defpoints
 70
0
 62
7
  6
Continuous
290
0
370
-3
390
13
347
21
  0
ENDTAB
  0
TABLE
  2
STYLE
  5
5
330
0
100
AcDbSymbolTable
 70
1
  0
STYLE
  5
29
330
5
100
AcDbSymbolTableRecord
100
AcDbTextStyleTableRecord
  2
Standard
 70
0
 40
0.0
 41
1.0
 50
0.0
 71
0
 42
2.5
  3
txt
  4

  0
ENDTAB
  0
TABLE
  2
VIEW
  5
7
330
0
100
AcDbSymbolTable
 70
0
  0
ENDTAB
  0
TABLE
  2
UCS
  5
6
330
0
100
AcDbSymbolTable
 70
0
  0
ENDTAB
  0
TABLE
  2
APPID
  5
3
330
0
100
AcDbSymbolTable
 70
3
  0
APPID
  5
2A
330
3
100
AcDbSymbolTableRecord
100
AcDbRegAppTableRecord
  2
ACAD
 70
0
  0
APPID
  5
1D8
330
3
100
AcDbSymbolTableRecord
100
AcDbRegAppTableRecord
  2
HATCHBACKGROUNDCOLOR
 70
0
  0
APPID
  5
1D9
330
3
100
AcDbSymbolTableRecord
100
AcDbRegAppTableRecord
  2
EZDXF
 70
0
  0
ENDTAB
  0
TABLE
  2
DIMSTYLE
  5
4
330
0
100
AcDbSymbolTable
 70
1
100
AcDbDimStyleTable
  0
DIMSTYLE
105
2B
330
4
100
AcDbSymbolTableRecord
100
AcDbDimStyleTableRecord
  2
Standard
 70
0
 40
1.0
 41
2.5
 42
0.625
 43
3.75
 44
1.25
 45
0.0
 46
0.0
 47
0.0
 48
0.0
 49
2.5
140
2.5
141
2.5
142
0.0
143
0.03937007874
144
1.0
145
0.0
146
1.0
147
0.625
148
0.0
 69
0
 70
0
 71
0
 72
0
 73
0
 74
0
 75
0
 76
0
 77
1
 78
8
 79
3
170
0
171
3
172
1
173
0
174
0
175
0
176
0
177
0
178
0
179
2
271
2
272
2
273
2
274
3
275
0
276
0
277
2
278
44
279
0
280
0
281
0
282
0
283
0
284
8
285
0
286
0
288
0
289
3
290
0
371
-2
372
-2
  0
ENDTAB
  0
TABLE
  2
BLOCK_RECORD
  5
9
330
0
100
AcDbSymbolTable
 70
3
  0
BLOCK_RECORD
  5
17
330
9
100
AcDbSymbolTableRecord
100
AcDbBlockTableRecord
  2
*Model_Space
340
1A
 70
0
280
1
281
0
  0
BLOCK_RECORD
  5
1B
330
9
100
AcDbSymbolTableRecord
100
AcDbBlockTableRecord
  2
*Paper_Space
340
1E
 70
0
280
1
281
0
  0
BLOCK_RECORD
  5
2F
330
9
100
AcDbSymbolTableRecord
100
AcDbBlockTableRecord
  2
HEX
340
0
 70
0
280
1
281
0
  0
ENDTAB
  0
ENDSEC
  0
SECTION
  2
BLOCKS
  0
BLOCK
  5
18
330
17
100
AcDbEntity
  8
0
100
AcDbBlockBegin
  2
*Model_Space
 70
0
 10
0.0
 20
0.0
 30
0.0
  3
*Model_Space
  1

  0
ENDBLK
  5
19
330
17
100
AcDbEntity
  8
0
100
AcDbBlockEnd
  0
BLOCK
  5
1C
330
1B
100
AcDbEntity
  8
0
100
AcDbBlockBegin
  2
*Paper_Space
 70
0
 10
0.0
 20
0.0
 30
0.0
  3
*Paper_Space
  1

  0
ENDBLK
  5
1D
330
1B
100
AcDbEntity
  8
0
100
AcDbBlockEnd
  0
BLOCK
  5
30
330
2F
100
AcDbEntity
  8
0
100
AcDbBlockBegin
  2
HEX
 70
0
 10
0.0
 20
0.0
 30
0.0
  3
HEX
  1

  0
LWPOLYLINE
  5
32
330
2F
100
AcDbEntity
  8
0
100
AcDbPolyline
 90
6
 70
1
 10
1.516
 20
0.875
 10
0.0
 20
1.75
 10
-1.516
 20
0.875
 10
-1.516
 20
-0.875
 10
-0.0
 20
-1.75
 10
1.516
 20
-0.875
  0
ENDBLK
  5
31
330
2F
100
AcDbEntity
  8
0
100
AcDbBlockEnd
  0
ENDSEC
  0
SECTION
  2
ENTITIES
  0
LWPOLYLINE
  5
33
330
17
100
AcDbEntity
  8
0
100
AcDbPolyline
 90
10
 70
1
 10
119.913
 20
-147.383
 10
117.879
 20
-147.52
 10
117.699
 20
-147.497
 10
117.559
 20
-147.424
 10
117.439
 20
-147.293
 10
117.394
 20
-147.201
 10
117.285
 20
-146.855
 10
118.397
 20
-146.213
 10
119.913
 20
-147.088
 10
119.913
 20
-147.383
  0
LWPOLYLINE
  5
34
330
17
100
AcDbEntity
  8
0
100
AcDbPolyline
 90
6
 70
1
 10
123.443
 20
-147.087
 10
121.455
 20
-147.264
 10
120.413
 20
-147.347
 10
120.413
 20
-147.088
 10
121.928
 20
-146.213
 10
123.443
 20
-147.087
  0
LWPOLYLINE
  5
35
330
17
100
AcDbEntity
  8
0
100
AcDbPolyline
 90
5
 70
1
 10
126.443
 20
-146.78
 10
124.948
 20
-146.94
 10
124.044
 20
-147.03
 10
125.459
 20
-146.213
 10
126.443
 20
-146.78
  0
LWPOLYLINE
  5
36
330
17
100
AcDbEntity
  8
0
100
AcDbPolyline
 90
4
 70
1
 10
128.397
 20
-146.555
 10
128.99
 20
-146.213
 10
129.375
 20
-146.435
 10
128.397
 20
-146.555
  0
LWPOLYLINE
  5
37
330
17
100
AcDbEntity
  8
0
100
AcDbPolyline
 90
6
 70
1
 10
117.132
 20
-146.366
 10
116.202
 20
-143.403
 10
116.632
 20
-143.155
 10
118.147
 20
-144.03
 10
118.147
 20
-145.78
 10
117.132
 20
-146.366
  0
INSERT
  5
38
330
17
100
AcDbEntity
  8
0
100
AcDbBlockReference
  2
HEX
 10
120.163
 20
-144.905
 30
0.0
  0
INSERT
  5
3A
330
17
100
AcDbEntity
  8
0
100
AcDbBlockReference
  2
HEX
 10
123.694
 20
-144.905
 30
0.0
  0
INSERT
  5
3C
330
17
100
AcDbEntity
  8
0
100
AcDbBlockReference
  2
HEX
 10
127.225
 20
-144.905
 30
0.0
  0
LWPOLYLINE
  5
3E
330
17
100
AcDbEntity
  8
0
100
AcDbPolyline
 90
8
 70
1
 10
131.653
 20
-146.137
 10
130.194
 20
-146.33
 10
129.24
 20
-145.78
 10
129.24
 20
-144.03
 10
130.756
 20
-143.155
 10
132.271
 20
-144.03
 10
132.271
 20
-145.78
 10
131.653
 20
-146.137
  0
LWPOLYLINE
  5
3F
330
17
100
AcDbEntity
  8
0
100
AcDbPolyline
 90
7
 70
1
 10
135.803
 20
-145.531
 10
133.052
 20
-145.941
 10
132.771
 20
-145.78
 10
132.771
 20
-144.03
 10
134.287
 20
-143.155
 10
135.803
 20
-144.03
 10
135.803
 20
-145.531
  0
LWPOLYLINE
  5
40
330
17
100
AcDbEntity
  8
0
100
AcDbPolyline
 90
6
 70
1
 10
139.334
 20
-144.954
 10
136.303
 20
-145.453
 10
136.303
 20
-144.03
 10
137.818
 20
-143.155
 10
139.334
 20
-144.03
 10
139.334
 20
-144.954
  0
LWPOLYLINE
  5
41
330
17
100
AcDbEntity
  8
0
100
AcDbPolyline
 90
7
 70
1
 10
142.865
 20
-144.317
 10
141.142
 20
-144.636
 10
139.834
 20
-144.867
 10
139.834
 20
-144.03
 10
141.349
 20
-143.155
 10
142.865
 20
-144.03
 10
142.865
 20
-144.317
  0
LWPOLYLINE
  5
42
330
17
100
AcDbEntity
  8
0
100
AcDbPolyline
 90
7
 70
1
 10
145.726
 20
-143.644
 10
145.608
 20
-143.746
 10
145.484
 20
-143.799
 10
143.365
 20
-144.222
 10
143.365
 20
-144.03
 10
144.88
 20
-143.155
 10
145.726
 20
-143.644
  0
LWPOLYLINE
  5
43
330
17
100
AcDbEntity
  8
0
100
AcDbPolyline
 90
5
 70
1
 10
116.048
 20
-142.914
 10
115.23
 20
-140.307
 10
116.382
 20
-140.972
 10
116.382
 20
-142.722
 10
116.048
 20
-142.914
  0
INSERT
  5
44
330
17
100
AcDbEntity
  8
0
100
AcDbBlockReference
  2
HEX
 10
118.397
 20
-141.847
 30
0.0
  0
INSERT
  5
46
330
17
100
AcDbEntity
  8
0
100
AcDbBlockReference
  2
HEX
 10
121.928
 20
-141.847
 30
0.0
  0
INSERT
  5
48
330
17
100
AcDbEntity
  8
0
100
AcDbBlockReference
  2
HEX
 10
125.459
 20
-141.847
 30
0.0
  0
INSERT
  5
4A
330
17
100
AcDbEntity
  8
0
100
AcDbBlockReference
  2
HEX
 10
128.99
 20
-141.847
 30
0.0
  0
INSERT
  5
4C
330
17
100
AcDbEntity
  8
0
100
AcDbBlockReference
  2
HEX
 10
132.521
 20
-141.847
 30
0.0
  0
INSERT
  5
4E
330
17
100
AcDbEntity
  8
0
100
AcDbBlockReference
  2
HEX
 10
136.053
 20
-141.847
 30
0.0
  0
INSERT
  5
50
330
17
100
AcDbEntity
  8
0
100
AcDbBlockReference
  2
HEX
 10
139.584
 20
-141.847
 30
0.0
  0
INSERT
  5
52
330
17
100
AcDbEntity
  8
0
100
AcDbBlockReference
  2
HEX
 10
143.115
 20
-141.847
 30
0.0
  0
LWPOLYLINE
  5
54
330
17
100
AcDbEntity
  8
0
100
AcDbPolyline
 90
4
 70
1
 10
145.781
 20
-143.097
 10
145.13
 20
-142.722
 10
145.13
 20
-141.524
 10
145.781
 20
-143.097
  0
LWPOLYLINE
  5
55
330
17
100
AcDbEntity
  8
0
100
AcDbPolyline
 90
4
 70
1
 10
114.448
 20
-137.817
 10
114.616
 20
-137.914
 10
114.616
 20
-138.351
 10
114.448
 20
-137.817
  0
INSERT
  5
56
330
17
100
AcDbEntity
  8
0
100
AcDbBlockReference
  2
HEX
 10
116.632
 20
-138.789
 30
0.0
  0
INSERT
  5
58
330
17
100
AcDbEntity
  8
0
100
AcDbBlockReference
  2
HEX
 10
120.163
 20
-138.789
 30
0.0
  0
INSERT
  5
5A
330
17
100
AcDbEntity
  8
0
100
AcDbBlockReference
  2
HEX
 10
123.694
 20
-138.789
 30
0.0
  0
INSERT
  5
5C
330
17
100
AcDbEntity
  8
0
100
AcDbBlockReference
  2
HEX
 10
127.225
 20
-138.789
 30
0.0
  0
INSERT
  5
5E
330
17
100
AcDbEntity
  8
0
100
AcDbBlockReference
  2
HEX
 10
130.756
 20
-138.789
 30
0.0
  0
INSERT
  5
60
330
17
100
AcDbEntity
  8
0
100
AcDbBlockReference
  2
HEX
 10
134.287
 20
-138.789
 30
0.0
  0
INSERT
  5
62
330
17
100
AcDbEntity
  8
0
100
AcDbBlockReference
  2
HEX
 10
137.818
 20
-138.789
 30
0.0
  0
INSERT
  5
64
330
17
100
AcDbEntity
  8
0
100
AcDbBlockReference
  2
HEX
 10
141.349
 20
-138.789
 30
0.0
  0
LWPOLYLINE
  5
66
330
17
100
AcDbEntity
  8
0
100
AcDbPolyline
 90
5
 70
1
 10
143.585
 20
-137.786
 10
144.674
 20
-140.419
 10
143.365
 20
-139.664
 10
143.365
 20
-137.914
 10
143.585
 20
-137.786
  0
LWPOLYLINE
  5
67
330
17
100
AcDbEntity
  8
0
100
AcDbPolyline
 90
7
 70
1
 10
114.227
 20
-137.112
 10
113.493
 20
-134.773
 10
114.866
 20
-133.981
 10
116.382
 20
-134.856
 10
116.382
 20
-136.606
 10
114.866
 20
-137.481
 10
114.227
 20
-137.112
  0
INSERT
  5
68
330
17
100
AcDbEntity
  8
0
100
AcDbBlockReference
  2
HEX
 10
118.397
 20
-135.731
 30
0.0
  0
INSERT
  5
6A
330
17
100
AcDbEntity
  8
0
100
AcDbBlockReference
  2
HEX
 10
121.928
 20
-135.731
 30
0.0
  0
INSERT
  5
6C
330
17
100
AcDbEntity
  8
0
100
AcDbBlockReference
  2
HEX
 10
125.459
 20
-135.731
 30
0.0
  0
INSERT
  5
6E
330
17
100
AcDbEntity
  8
0
100
AcDbBlockReference
  2
HEX
 10
128.99
 20
-135.731
 30
0.0
  0
INSERT
  5
70
330
17
100
AcDbEntity
  8
0
100
AcDbBlockReference
  2
HEX
 10
132.521
 20
-135.731
 30
0.0
  0
INSERT
  5
72
330
17
100
AcDbEntity
  8
0
100
AcDbBlockReference
  2
HEX
 10
136.053
 20
-135.731
 30
0.0
  0
INSERT
  5
74
330
17
100
AcDbEntity
  8
0
100
AcDbBlockReference
  2
HEX
 10
139.584
 20
-135.731
 30
0.0
  0
LWPOLYLINE
  5
76
330
17
100
AcDbEntity
  8
0
100
AcDbPolyline
 90
6
 70
1
 10
142.225
 20
-134.495
 10
143.393
 20
-137.32
 10
143.115
 20
-137.481
 10
141.599
 20
-136.606
 10
141.599
 20
-134.856
 10
142.225
 20
-134.495
  0
LWPOLYLINE
  5
77
330
17
100
AcDbEntity
  8
0
100
AcDbPolyline
 90
6
 70
1
 10
113.34
 20
-134.285
 10
112.41
 20
-131.321
 10
113.101
 20
-130.923
 10
114.616
 20
-131.798
 10
114.616
 20
-133.548
 10
113.34
 20
-134.285
  0
INSERT
  5
78
330
17
100
AcDbEntity
  8
0
100
AcDbBlockReference
  2
HEX
 10
116.632
 20
-132.673
 30
0.0
  0
INSERT
  5
7A
330
17
100
AcDbEntity
  8
0
100
AcDbBlockReference
  2
HEX
 10
120.163
 20
-132.673
 30
0.0
  0
INSERT
  5
7C
330
17
100
AcDbEntity
  8
0
100
AcDbBlockReference
  2
HEX
 10
123.694
 20
-132.673
 30
0.0
  0
INSERT
  5
7E
330
17
100
AcDbEntity
  8
0
100
AcDbBlockReference
  2
HEX
 10
127.225
 20
-132.673
 30
0.0
  0
INSERT
  5
80
330
17
100
AcDbEntity
  8
0
100
AcDbBlockReference
  2
HEX
 10
130.756
 20
-132.673
 30
0.0
  0
INSERT
  5
82
330
17
100
AcDbEntity
  8
0
100
AcDbBlockReference
  2
HEX
 10
134.287
 20
-132.673
 30
0.0
  0
INSERT
  5
84
330
17
100
AcDbEntity
  8
0
100
AcDbBlockReference
  2
HEX
 10
137.818
 20
-132.673
 30
0.0
  0
LWPOLYLINE
  5
86
330
17
100
AcDbEntity
  8
0
100
AcDbPolyline
 90
6
 70
1
 10
140.864
 20
-131.203
 10
142.032
 20
-134.028
 10
141.349
 20
-134.423
 10
139.834
 20
-133.548
 10
139.834
 20
-131.798
 10
140.864
 20
-131.203
  0
LWPOLYLINE
  5
87
330
17
100
AcDbEntity
  8
0
100
AcDbPolyline
 90
6
 70
1
 10
112.256
 20
-130.833
 10
111.326
 20
-127.87
 10
111.335
 20
-127.865
 10
112.851
 20
-128.74
 10
112.851
 20
-130.49
 10
112.256
 20
-130.833
  0
INSERT
  5
88
330
17
100
AcDbEntity
  8
0
100
AcDbBlockReference
  2
HEX
 10
114.866
 20
-129.615
 30
0.0
  0
INSERT
  5
8A
330
17
100
AcDbEntity
  8
0
100
AcDbBlockReference
  2
HEX
 10
118.397
 20
-129.615
 30
0.0
  0
INSERT
  5
8C
330
17
100
AcDbEntity
  8
0
100
AcDbBlockReference
  2
HEX
 10
121.928
 20
-129.615
 30
0.0
  0
INSERT
  5
8E
330
17
100
AcDbEntity
  8
0
100
AcDbBlockReference
  2
HEX
 10
125.459
 20
-129.615
 30
0.0
  0
INSERT
  5
90
330
17
100
AcDbEntity
  8
0
100
AcDbBlockReference
  2
HEX
 10
128.99
 20
-129.615
 30
0.0
  0
INSERT
  5
92
330
17
100
AcDbEntity
  8
0
100
AcDbBlockReference
  2
HEX
 10
132.521
 20
-129.615
 30
0.0
  0
INSERT
  5
94
330
17
100
AcDbEntity
  8
0
100
AcDbBlockReference
  2
HEX
 10
136.053
 20
-129.615
 30
0.0
  0
LWPOLYLINE
  5
96
330
17
100
AcDbEntity
  8
0
100
AcDbPolyline
 90
6
 70
1
 10
139.503
 20
-127.911
 10
140.671
 20
-130.737
 10
139.584
 20
-131.365
 10
138.068
 20
-130.49
 10
138.068
 20
-128.74
 10
139.503
 20
-127.911
  0
LWPOLYLINE
  5
97
330
17
100
AcDbEntity
  8
0
100
AcDbPolyline
 90
4
 70
1
 10
111.085
 20
-127.101
 10
110.541
 20
-125.367
 10
111.085
 20
-125.682
 10
111.085
 20
-127.101
  0
INSERT
  5
98
330
17
100
AcDbEntity
  8
0
100
AcDbBlockReference
  2
HEX
 10
113.101
 20
-126.557
 30
0.0
  0
INSERT
  5
9A
330
17
100
AcDbEntity
  8
0
100
AcDbBlockReference
  2
HEX
 10
116.632
 20
-126.557
 30
0.0
  0
INSERT
  5
9C
330
17
100
AcDbEntity
  8
0
100
AcDbBlockReference
  2
HEX
 10
120.163
 20
-126.557
 30
0.0
  0
INSERT
  5
9E
330
17
100
AcDbEntity
  8
0
100
AcDbBlockReference
  2
HEX
 10
123.694
 20
-126.557
 30
0.0
  0
INSERT
  5
A0
330
17
100
AcDbEntity
  8
0
100
AcDbBlockReference
  2
HEX
 10
127.225
 20
-126.557
 30
0.0
  0
INSERT
  5
A2
330
17
100
AcDbEntity
  8
0
100
AcDbBlockReference
  2
HEX
 10
130.756
 20
-126.557
 30
0.0
  0
INSERT
  5
A4
330
17
100
AcDbEntity
  8
0
100
AcDbBlockReference
  2
HEX
 10
134.287
 20
-126.557
 30
0.0
  0
LWPOLYLINE
  5
A6
330
17
100
AcDbEntity
  8
0
100
AcDbPolyline
 90
7
 70
1
 10
138.346
 20
-125.111
 10
139.311
 20
-127.445
 10
137.818
 20
-128.307
 10
136.303
 20
-127.432
 10
136.303
 20
-125.682
 10
137.818
 20
-124.807
 10
138.346
 20
-125.111
  0
LWPOLYLINE
  5
A7
330
17
100
AcDbEntity
  8
0
100
AcDbPolyline
 90
8
 70
1
 10
110.319
 20
-124.662
 10
109.819
 20
-123.069
 10
109.819
 20
-122.624
 10
111.335
 20
-121.749
 10
112.851
 20
-122.624
 10
112.851
 20
-124.374
 10
111.335
 20
-125.249
 10
110.319
 20
-124.662
  0
INSERT
  5
A8
330
17
100
AcDbEntity
  8
0
100
AcDbBlockReference
  2
HEX
 10
114.866
 20
-123.499
 30
0.0
  0
INSERT
  5
AA
330
17
100
AcDbEntity
  8
0
100
AcDbBlockReference
  2
HEX
 10
118.397
 20
-123.499
 30
0.0
  0
INSERT
  5
AC
330
17
100
AcDbEntity
  8
0
100
AcDbBlockReference
  2
HEX
 10
121.928
 20
-123.499
 30
0.0
  0
INSERT
  5
AE
330
17
100
AcDbEntity
  8
0
100
AcDbBlockReference
  2
HEX
 10
125.459
 20
-123.499
 30
0.0
  0
INSERT
  5
B0
330
17
100
AcDbEntity
  8
0
100
AcDbBlockReference
  2
HEX
 10
128.99
 20
-123.499
 30
0.0
  0
INSERT
  5
B2
330
17
100
AcDbEntity
  8
0
100
AcDbBlockReference
  2
HEX
 10
132.521
 20
-123.499
 30
0.0
  0
LWPOLYLINE
  5
B4
330
17
100
AcDbEntity
  8
0
100
AcDbPolyline
 90
8
 70
1
 10
137.239
 20
-122.434
 10
137.568
 20
-123.229
 10
137.568
 20
-124.374
 10
136.053
 20
-125.249
 10
134.537
 20
-124.374
 10
134.537
 20
-122.624
 10
136.053
 20
-121.749
 10
137.239
 20
-122.434
  0
LWPOLYLINE
  5
B5
330
17
100
AcDbEntity
  8
0
100
AcDbPolyline
 90
7
 70
1
 10
109.538
 20
-122.172
 10
108.617
 20
-119.24
 10
109.569
 20
-118.691
 10
111.085
 20
-119.566
 10
111.085
 20
-121.316
 10
109.569
 20
-122.191
 10
109.538
 20
-122.172
  0
INSERT
  5
B6
330
17
100
AcDbEntity
  8
0
100
AcDbBlockReference
  2
HEX
 10
113.101
 20
-120.441
 30
0.0
  0
INSERT
  5
B8
330
17
100
AcDbEntity
  8
0
100
AcDbBlockReference
  2
HEX
 10
116.632
 20
-120.441
 30
0.0
  0
INSERT
  5
BA
330
17
100
AcDbEntity
  8
0
100
AcDbBlockReference
  2
HEX
 10
120.163
 20
-120.441
 30
0.0
  0
INSERT
  5
BC
330
17
100
AcDbEntity
  8
0
100
AcDbBlockReference
  2
HEX
 10
123.694
 20
-120.441
 30
0.0
  0
INSERT
  5
BE
330
17
100
AcDbEntity
  8
0
100
AcDbBlockReference
  2
HEX
 10
127.225
 20
-120.441
 30
0.0
  0
INSERT
  5
C0
330
17
100
AcDbEntity
  8
0
100
AcDbBlockReference
  2
HEX
 10
130.756
 20
-120.441
 30
0.0
  0
INSERT
  5
C2
330
17
100
AcDbEntity
  8
0
100
AcDbBlockReference
  2
HEX
 10
134.287
 20
-120.441
 30
0.0
  0
LWPOLYLINE
  5
C4
330
17
100
AcDbEntity
  8
0
100
AcDbPolyline
 90
4
 70
1
 10
136.303
 20
-120.168
 10
136.926
 20
-121.675
 10
136.303
 20
-121.316
 10
136.303
 20
-120.168
  0
LWPOLYLINE
  5
C5
330
17
100
AcDbEntity
  8
0
100
AcDbPolyline
 90
6
 70
1
 10
108.464
 20
-118.751
 10
107.534
 20
-115.788
 10
107.804
 20
-115.633
 10
109.319
 20
-116.508
 10
109.319
 20
-118.258
 10
108.464
 20
-118.751
  0
INSERT
  5
C6
330
17
100
AcDbEntity
  8
0
100
AcDbBlockReference
  2
HEX
 10
111.335
 20
-117.383
 30
0.0
  0
INSERT
  5
C8
330
17
100
AcDbEntity
  8
0
100
AcDbBlockReference
  2
HEX
 10
114.866
 20
-117.383
 30
0.0
  0
INSERT
  5
CA
330
17
100
AcDbEntity
  8
0
100
AcDbBlockReference
  2
HEX
 10
118.397
 20
-117.383
 30
0.0
  0
INSERT
  5
CC
330
17
100
AcDbEntity
  8
0
100
AcDbBlockReference
  2
HEX
 10
121.928
 20
-117.383
 30
0.0
  0
INSERT
  5
CE
330
17
100
AcDbEntity
  8
0
100
AcDbBlockReference
  2
HEX
 10
125.459
 20
-117.383
 30
0.0
  0
INSERT
  5
D0
330
17
100
AcDbEntity
  8
0
100
AcDbBlockReference
  2
HEX
 10
128.99
 20
-117.383
 30
0.0
  0
INSERT
  5
D2
330
17
100
AcDbEntity
  8
0
100
AcDbBlockReference
  2
HEX
 10
132.521
 20
-117.383
 30
0.0
  0
LWPOLYLINE
  5
D4
330
17
100
AcDbEntity
  8
0
100
AcDbPolyline
 90
6
 70
1
 10
134.741
 20
-116.39
 10
135.807
 20
-118.968
 10
135.819
 20
-118.998
 10
134.537
 20
-118.258
 10
134.537
 20
-116.508
 10
134.741
 20
-116.39
  0
LWPOLYLINE
  5
D5
330
17
100
AcDbEntity
  8
0
100
AcDbPolyline
 90
5
 70
1
 10
107.381
 20
-115.3
 10
106.633
 20
-112.918
 10
107.554
 20
-113.45
 10
107.554
 20
-115.2
 10
107.381
 20
-115.3
  0
INSERT
  5
D6
330
17
100
AcDbEntity
  8
0
100
AcDbBlockReference
  2
HEX
 10
109.569
 20
-114.325
 30
0.0
  0
INSERT
  5
D8
330
17
100
AcDbEntity
  8
0
100
AcDbBlockReference
  2
HEX
 10
113.101
 20
-114.325
 30
0.0
  0
INSERT
  5
DA
330
17
100
AcDbEntity
  8
0
100
AcDbBlockReference
  2
HEX
 10
116.632
 20
-114.325
 30
0.0
  0
INSERT
  5
DC
330
17
100
AcDbEntity
  8
0
100
AcDbBlockReference
  2
HEX
 10
120.163
 20
-114.325
 30
0.0
  0
INSERT
  5
DE
330
17
100
AcDbEntity
  8
0
100
AcDbBlockReference
  2
HEX
 10
123.694
 20
-114.325
 30
0.0
  0
INSERT
  5
E0
330
17
100
AcDbEntity
  8
0
100
AcDbBlockReference
  2
HEX
 10
127.225
 20
-114.325
 30
0.0
  0
INSERT
  5
E2
330
17
100
AcDbEntity
  8
0
100
AcDbBlockReference
  2
HEX
 10
130.756
 20
-114.325
 30
0.0
  0
LWPOLYLINE
  5
E4
330
17
100
AcDbEntity
  8
0
100
AcDbPolyline
 90
6
 70
1
 10
133.38
 20
-113.098
 10
134.548
 20
-115.924
 10
134.287
 20
-116.075
 10
132.771
 20
-115.2
 10
132.771
 20
-113.45
 10
133.38
 20
-113.098
  0
LWPOLYLINE
  5
E5
330
17
100
AcDbEntity
  8
0
100
AcDbPolyline
 90
5
 70
1
 10
104.462
 20
-109.626
 10
104.245
 20
-109.641
 10
104.084
 20
-109.625
 10
104.273
 20
-109.516
 10
104.462
 20
-109.626
  0
LWPOLYLINE
  5
E6
330
17
100
AcDbEntity
  8
0
100
AcDbPolyline
 90
8
 70
1
 10
106.288
 20
-111.82
 10
106.288
 20
-110.391
 10
107.804
 20
-109.516
 10
109.319
 20
-110.391
 10
109.319
 20
-112.141
 10
107.804
 20
-113.016
 10
106.412
 20
-112.213
 10
106.288
 20
-111.82
  0
INSERT
  5
E7
330
17
100
AcDbEntity
  8
0
100
AcDbBlockReference
  2
HEX
 10
111.335
 20
-111.266
 30
0.0
  0
INSERT
  5
E9
330
17
100
AcDbEntity
  8
0
100
AcDbBlockReference
  2
HEX
 10
114.866
 20
-111.266
 30
0.0
  0
INSERT
  5
EB
330
17
100
AcDbEntity
  8
0
100
AcDbBlockReference
  2
HEX
 10
118.397
 20
-111.266
 30
0.0
  0
INSERT
  5
ED
330
17
100
AcDbEntity
  8
0
100
AcDbBlockReference
  2
HEX
 10
121.928
 20
-111.266
 30
0.0
  0
INSERT
  5
EF
330
17
100
AcDbEntity
  8
0
100
AcDbBlockReference
  2
HEX
 10
125.459
 20
-111.266
 30
0.0
  0
INSERT
  5
F1
330
17
100
AcDbEntity
  8
0
100
AcDbBlockReference
  2
HEX
 10
128.99
 20
-111.266
 30
0.0
  0
LWPOLYLINE
  5
F3
330
17
100
AcDbEntity
  8
0
100
AcDbPolyline
 90
6
 70
1
 10
132.02
 20
-109.806
 10
133.188
 20
-112.632
 10
132.521
 20
-113.016
 10
131.006
 20
-112.141
 10
131.006
 20
-110.391
 10
132.02
 20
-109.806
  0
LWPOLYLINE
  5
F4
330
17
100
AcDbEntity
  8
0
100
AcDbPolyline
 90
10
 70
1
 10
103.534
 20
-109.366
 10
103.393
 20
-109.223
 10
102.917
 20
-108.629
 10
102.464
 20
-108.134
 10
101.921
 20
-107.61
 10
101.347
 20
-107.128
 10
102.507
 20
-106.458
 10
104.023
 20
-107.333
 10
104.023
 20
-109.083
 10
103.534
 20
-109.366
  0
LWPOLYLINE
  5
F5
330
17
100
AcDbEntity
  8
0
100
AcDbPolyline
 90
7
 70
1
 10
105.63
 20
-109.723
 10
104.825
 20
-107.159
 10
106.038
 20
-106.458
 10
107.554
 20
-107.333
 10
107.554
 20
-109.083
 10
106.038
 20
-109.958
 10
105.63
 20
-109.723
  0
LWPOLYLINE
  5
F6
330
17
100
AcDbEntity
  8
0
100
AcDbPolyline
 90
4
 70
1
 10
104.523
 20
-108.459
 10
104.766
 20
-109.224
 10
104.523
 20
-109.083
 10
104.523
 20
-108.459
  0
INSERT
  5
F7
330
17
100
AcDbEntity
  8
0
100
AcDbBlockReference
  2
HEX
 10
109.569
 20
-108.208
 30
0.0
  0
INSERT
  5
F9
330
17
100
AcDbEntity
  8
0
100
AcDbBlockReference
  2
HEX
 10
113.101
 20
-108.208
 30
0.0
  0
INSERT
  5
FB
330
17
100
AcDbEntity
  8
0
100
AcDbBlockReference
  2
HEX
 10
116.632
 20
-108.208
 30
0.0
  0
INSERT
  5
FD
330
17
100
AcDbEntity
  8
0
100
AcDbBlockReference
  2
HEX
 10
120.163
 20
-108.208
 30
0.0
  0
INSERT
  5
FF
330
17
100
AcDbEntity
  8
0
100
AcDbBlockReference
  2
HEX
 10
123.694
 20
-108.208
 30
0.0
  0
INSERT
  5
101
330
17
100
AcDbEntity
  8
0
100
AcDbBlockReference
  2
HEX
 10
127.225
 20
-108.208
 30
0.0
  0
LWPOLYLINE
  5
103
330
17
100
AcDbEntity
  8
0
100
AcDbPolyline
 90
6
 70
1
 10
130.659
 20
-106.514
 10
131.827
 20
-109.34
 10
130.756
 20
-109.958
 10
129.24
 20
-109.083
 10
129.24
 20
-107.333
 10
130.659
 20
-106.514
  0
LWPOLYLINE
  5
104
330
17
100
AcDbEntity
  8
0
100
AcDbPolyline
 90
6
 70
1
 10
98.726
 20
-105.595
 10
98.29
 20
-105.424
 10
98.029
 20
-105.333
 10
98.371
 20
-105.243
 10
98.726
 20
-105.105
 10
98.726
 20
-105.595
  0
LWPOLYLINE
  5
105
330
17
100
AcDbEntity
  8
0
100
AcDbPolyline
 90
14
 70
1
 10
100.912
 20
-106.802
 10
100.355
 20
-106.431
 10
99.941
 20
-106.185
 10
99.226
 20
-105.816
 10
99.226
 20
-104.821
 10
99.503
 20
-104.606
 10
99.726
 20
-104.388
 10
99.927
 20
-104.15
 10
100.103
 20
-103.895
 10
100.209
 20
-103.708
 10
100.742
 20
-103.4
 10
102.257
 20
-104.275
 10
102.257
 20
-106.025
 10
100.912
 20
-106.802
  0
LWPOLYLINE
  5
106
330
17
100
AcDbEntity
  8
0
100
AcDbPolyline
 90
6
 70
1
 10
104.672
 20
-106.67
 10
103.742
 20
-103.707
 10
104.273
 20
-103.4
 10
105.788
 20
-104.275
 10
105.788
 20
-106.025
 10
104.672
 20
-106.67
  0
LWPOLYLINE
  5
107
330
17
100
AcDbEntity
  8
0
100
AcDbPolyline
 90
6
 70
1
 10
103.127
 20
-104.062
 10
103.619
 20
-105.612
 10
103.973
 20
-106.727
 10
102.757
 20
-106.025
 10
102.757
 20
-104.275
 10
103.127
 20
-104.062
  0
INSERT
  5
108
330
17
100
AcDbEntity
  8
0
100
AcDbBlockReference
  2
HEX
 10
107.804
 20
-105.15
 30
0.0
  0
INSERT
  5
10A
330
17
100
AcDbEntity
  8
0
100
AcDbBlockReference
  2
HEX
 10
111.335
 20
-105.15
 30
0.0
  0
INSERT
  5
10C
330
17
100
AcDbEntity
  8
0
100
AcDbBlockReference
  2
HEX
 10
114.866
 20
-105.15
 30
0.0
  0
INSERT
  5
10E
330
17
100
AcDbEntity
  8
0
100
AcDbBlockReference
  2
HEX
 10
118.397
 20
-105.15
 30
0.0
  0
INSERT
  5
110
330
17
100
AcDbEntity
  8
0
100
AcDbBlockReference
  2
HEX
 10
121.928
 20
-105.15
 30
0.0
  0
INSERT
  5
112
330
17
100
AcDbEntity
  8
0
100
AcDbBlockReference
  2
HEX
 10
125.459
 20
-105.15
 30
0.0
  0
LWPOLYLINE
  5
114
330
17
100
AcDbEntity
  8
0
100
AcDbPolyline
 90
7
 70
1
 10
129.491
 20
-103.69
 10
130.466
 20
-106.048
 10
128.99
 20
-106.9
 10
127.475
 20
-106.025
 10
127.475
 20
-104.275
 10
128.99
 20
-103.4
 10
129.491
 20
-103.69
  0
LWPOLYLINE
  5
115
330
17
100
AcDbEntity
  8
0
100
AcDbPolyline
 90
6
 70
1
 10
103.588
 20
-103.218
 10
102.764
 20
-100.59
 10
102.725
 20
-100.468
 10
104.023
 20
-101.217
 10
104.023
 20
-102.967
 10
103.588
 20
-103.218
  0
LWPOLYLINE
  5
116
330
17
100
AcDbEntity
  8
0
100
AcDbPolyline
 90
6
 70
1
 10
102.033
 20
-100.616
 10
102.972
 20
-103.574
 10
102.507
 20
-103.842
 10
100.992
 20
-102.967
 10
100.992
 20
-101.217
 10
102.033
 20
-100.616
  0
INSERT
  5
117
330
17
100
AcDbEntity
  8
0
100
AcDbBlockReference
  2
HEX
 10
106.038
 20
-102.092
 30
0.0
  0
INSERT
  5
119
330
17
100
AcDbEntity
  8
0
100
AcDbBlockReference
  2
HEX
 10
109.569
 20
-102.092
 30
0.0
  0
INSERT
  5
11B
330
17
100
AcDbEntity
  8
0
100
AcDbBlockReference
  2
HEX
 10
113.101
 20
-102.092
 30
0.0
  0
INSERT
  5
11D
330
17
100
AcDbEntity
  8
0
100
AcDbBlockReference
  2
HEX
 10
116.632
 20
-102.092
 30
0.0
  0
INSERT
  5
11F
330
17
100
AcDbEntity
  8
0
100
AcDbBlockReference
  2
HEX
 10
120.163
 20
-102.092
 30
0.0
  0
INSERT
  5
121
330
17
100
AcDbEntity
  8
0
100
AcDbBlockReference
  2
HEX
 10
123.694
 20
-102.092
 30
0.0
  0
LWPOLYLINE
  5
123
330
17
100
AcDbEntity
  8
0
100
AcDbPolyline
 90
8
 70
1
 10
128.74
 20
-101.873
 10
128.74
 20
-102.967
 10
127.225
 20
-103.842
 10
125.709
 20
-102.967
 10
125.709
 20
-101.217
 10
127.225
 20
-100.342
 10
128.384
 20
-101.012
 10
128.74
 20
-101.873
  0
LWPOLYLINE
  5
124
330
17
100
AcDbEntity
  8
0
100
AcDbPolyline
 90
13
 70
1
 10
98.726
 20
-98.567
 10
98.327
 20
-98.414
 10
97.981
 20
-98.329
 10
97.612
 20
-98.276
 10
97.218
 20
-98.258
 10
96.832
 20
-98.276
 10
96.514
 20
-98.32
 10
96.172
 20
-98.4
 10
95.813
 20
-98.525
 10
96.211
 20
-97.862
 10
97.211
 20
-97.284
 10
98.726
 20
-98.159
 10
98.726
 20
-98.567
  0
LWPOLYLINE
  5
125
330
17
100
AcDbEntity
  8
0
100
AcDbPolyline
 90
4
 70
1
 10
102.257
 20
-98.977
 10
101.944
 20
-97.979
 10
102.257
 20
-98.159
 10
102.257
 20
-98.977
  0
LWPOLYLINE
  5
126
330
17
100
AcDbEntity
  8
0
100
AcDbPolyline
 90
14
 70
1
 10
101.027
 20
-97.449
 10
101.878
 20
-100.128
 10
100.742
 20
-100.784
 10
100.496
 20
-100.643
 10
100.37
 20
-100.289
 10
100.238
 20
-100.008
 10
100.083
 20
-99.741
 10
99.903
 20
-99.488
 10
99.7
 20
-99.253
 10
99.473
 20
-99.037
 10
99.226
 20
-98.847
 10
99.226
 20
-98.159
 10
100.742
 20
-97.284
 10
101.027
 20
-97.449
  0
INSERT
  5
127
330
17
100
AcDbEntity
  8
0
100
AcDbBlockReference
  2
HEX
 10
104.273
 20
-99.034
 30
0.0
  0
INSERT
  5
129
330
17
100
AcDbEntity
  8
0
100
AcDbBlockReference
  2
HEX
 10
107.804
 20
-99.034
 30
0.0
  0
INSERT
  5
12B
330
17
100
AcDbEntity
  8
0
100
AcDbBlockReference
  2
HEX
 10
111.335
 20
-99.034
 30
0.0
  0
INSERT
  5
12D
330
17
100
AcDbEntity
  8
0
100
AcDbBlockReference
  2
HEX
 10
114.866
 20
-99.034
 30
0.0
  0
INSERT
  5
12F
330
17
100
AcDbEntity
  8
0
100
AcDbBlockReference
  2
HEX
 10
118.397
 20
-99.034
 30
0.0
  0
INSERT
  5
131
330
17
100
AcDbEntity
  8
0
100
AcDbBlockReference
  2
HEX
 10
121.928
 20
-99.034
 30
0.0
  0
INSERT
  5
133
330
17
100
AcDbEntity
  8
0
100
AcDbBlockReference
  2
HEX
 10
125.459
 20
-99.034
 30
0.0
  0
LWPOLYLINE
  5
135
330
17
100
AcDbEntity
  8
0
100
AcDbPolyline
 90
4
 70
1
 10
128.071
 20
-100.254
 10
127.475
 20
-99.909
 10
127.475
 20
-98.811
 10
128.071
 20
-100.254
  0
LWPOLYLINE
  5
136
330
17
100
AcDbEntity
  8
0
100
AcDbPolyline
 90
5
 70
1
 10
96.595
 20
-97.063
 10
96.82
 20
-96.475
 10
96.961
 20
-96.024
 10
96.961
 20
-96.851
 10
96.595
 20
-97.063
  0
LWPOLYLINE
  5
137
330
17
100
AcDbEntity
  8
0
100
AcDbPolyline
 90
8
 70
1
 10
100.235
 20
-94.953
 10
100.492
 20
-95.762
 10
100.492
 20
-96.851
 10
98.976
 20
-97.726
 10
97.461
 20
-96.851
 10
97.461
 20
-95.101
 10
98.976
 20
-94.226
 10
100.235
 20
-94.953
  0
LWPOLYLINE
  5
138
330
17
100
AcDbEntity
  8
0
100
AcDbPolyline
 90
7
 70
1
 10
101.723
 20
-97.273
 10
101.033
 20
-95.077
 10
102.507
 20
-94.226
 10
104.023
 20
-95.101
 10
104.023
 20
-96.851
 10
102.507
 20
-97.726
 10
101.723
 20
-97.273
  0
INSERT
  5
139
330
17
100
AcDbEntity
  8
0
100
AcDbBlockReference
  2
HEX
 10
106.038
 20
-95.976
 30
0.0
  0
INSERT
  5
13B
330
17
100
AcDbEntity
  8
0
100
AcDbBlockReference
  2
HEX
 10
109.569
 20
-95.976
 30
0.0
  0
INSERT
  5
13D
330
17
100
AcDbEntity
  8
0
100
AcDbBlockReference
  2
HEX
 10
113.101
 20
-95.976
 30
0.0
  0
INSERT
  5
13F
330
17
100
AcDbEntity
  8
0
100
AcDbBlockReference
  2
HEX
 10
116.632
 20
-95.976
 30
0.0
  0
INSERT
  5
141
330
17
100
AcDbEntity
  8
0
100
AcDbBlockReference
  2
HEX
 10
120.163
 20
-95.976
 30
0.0
  0
INSERT
  5
143
330
17
100
AcDbEntity
  8
0
100
AcDbBlockReference
  2
HEX
 10
123.694
 20
-95.976
 30
0.0
  0
LWPOLYLINE
  5
145
330
17
100
AcDbEntity
  8
0
100
AcDbPolyline
 90
5
 70
1
 10
125.897
 20
-94.993
 10
126.964
 20
-97.576
 10
125.709
 20
-96.851
 10
125.709
 20
-95.101
 10
125.897
 20
-94.993
  0
LWPOLYLINE
  5
146
330
17
100
AcDbEntity
  8
0
100
AcDbPolyline
 90
13
 70
1
 10
66.946
 20
-92.341
 10
66.254
 20
-93.452
 10
65.96
 20
-93.989
 10
65.697
 20
-94.515
 10
65.431
 20
-94.668
 10
65.227
 20
-94.551
 10
65.094
 20
-93.761
 10
64.897
 20
-93.009
 10
64.65
 20
-92.312
 10
64.405
 20
-91.761
 10
65.431
 20
-91.168
 10
66.946
 20
-92.043
 10
66.946
 20
-92.341
  0
LWPOLYLINE
  5
147
330
17
100
AcDbEntity
  8
0
100
AcDbPolyline
 90
10
 70
1
 10
97.243
 20
-94.649
 10
97.299
 20
-94.109
 10
97.323
 20
-93.616
 10
97.315
 20
-92.841
 10
97.245
 20
-92.023
 10
97.11
 20
-91.226
 10
97.211
 20
-91.168
 10
98.726
 20
-92.043
 10
98.726
 20
-93.793
 10
97.243
 20
-94.649
  0
LWPOLYLINE
  5
148
330
17
100
AcDbEntity
  8
0
100
AcDbPolyline
 90
6
 70
1
 10
100.88
 20
-94.589
 10
99.95
 20
-91.626
 10
100.742
 20
-91.168
 10
102.257
 20
-92.043
 10
102.257
 20
-93.793
 10
100.88
 20
-94.589
  0
LWPOLYLINE
  5
149
330
17
100
AcDbEntity
  8
0
100
AcDbPolyline
 90
6
 70
1
 10
99.298
 20
-92.002
 10
99.681
 20
-93.208
 10
100.01
 20
-94.246
 10
99.226
 20
-93.793
 10
99.226
 20
-92.043
 10
99.298
 20
-92.002
  0
INSERT
  5
14A
330
17
100
AcDbEntity
  8
0
100
AcDbBlockReference
  2
HEX
 10
104.273
 20
-92.918
 30
0.0
  0
INSERT
  5
14C
330
17
100
AcDbEntity
  8
0
100
AcDbBlockReference
  2
HEX
 10
107.804
 20
-92.918
 30
0.0
  0
INSERT
  5
14E
330
17
100
AcDbEntity
  8
0
100
AcDbBlockReference
  2
HEX
 10
111.335
 20
-92.918
 30
0.0
  0
INSERT
  5
150
330
17
100
AcDbEntity
  8
0
100
AcDbBlockReference
  2
HEX
 10
114.866
 20
-92.918
 30
0.0
  0
INSERT
  5
152
330
17
100
AcDbEntity
  8
0
100
AcDbBlockReference
  2
HEX
 10
118.397
 20
-92.918
 30
0.0
  0
INSERT
  5
154
330
17
100
AcDbEntity
  8
0
100
AcDbBlockReference
  2
HEX
 10
121.928
 20
-92.918
 30
0.0
  0
LWPOLYLINE
  5
156
330
17
100
AcDbEntity
  8
0
100
AcDbPolyline
 90
6
 70
1
 10
124.536
 20
-91.702
 10
125.704
 20
-94.527
 10
125.459
 20
-94.668
 10
123.944
 20
-93.793
 10
123.944
 20
-92.043
 10
124.536
 20
-91.702
  0
LWPOLYLINE
  5
157
330
17
100
AcDbEntity
  8
0
100
AcDbPolyline
 90
9
 70
1
 10
64.175
 20
-91.316
 10
63.708
 20
-90.556
 10
63.189
 20
-89.866
 10
62.686
 20
-89.302
 10
62.283
 20
-88.909
 10
63.665
 20
-88.11
 10
65.181
 20
-88.985
 10
65.181
 20
-90.735
 10
64.175
 20
-91.316
  0
LWPOLYLINE
  5
158
330
17
100
AcDbEntity
  8
0
100
AcDbPolyline
 90
9
 70
1
 10
68.712
 20
-90.24
 10
68.239
 20
-90.712
 10
67.714
 20
-91.312
 10
67.196
 20
-91.61
 10
65.681
 20
-90.735
 10
65.681
 20
-88.985
 10
67.196
 20
-88.11
 10
68.712
 20
-88.985
 10
68.712
 20
-90.24
  0
LWPOLYLINE
  5
159
330
17
100
AcDbEntity
  8
0
100
AcDbPolyline
 90
9
 70
1
 10
70.916
 20
-88.716
 10
70.534
 20
-88.905
 10
70.166
 20
-89.115
 10
69.811
 20
-89.345
 10
69.212
 20
-89.798
 10
69.212
 20
-88.985
 10
70.727
 20
-88.11
 10
71.423
 20
-88.512
 10
70.916
 20
-88.716
  0
LWPOLYLINE
  5
15A
330
17
100
AcDbEntity
  8
0
100
AcDbPolyline
 90
7
 70
1
 10
96.961
 20
-90.634
 10
96.744
 20
-89.988
 10
96.474
 20
-89.355
 10
96.156
 20
-88.749
 10
95.939
 20
-88.395
 10
96.961
 20
-88.985
 10
96.961
 20
-90.634
  0
LWPOLYLINE
  5
15B
330
17
100
AcDbEntity
  8
0
100
AcDbPolyline
 90
6
 70
1
 10
99.796
 20
-91.137
 10
98.866
 20
-88.174
 10
98.976
 20
-88.11
 10
100.492
 20
-88.985
 10
100.492
 20
-90.735
 10
99.796
 20
-91.137
  0
LWPOLYLINE
  5
15C
330
17
100
AcDbEntity
  8
0
100
AcDbPolyline
 90
6
 70
1
 10
98.204
 20
-88.557
 10
99.143
 20
-91.514
 10
98.976
 20
-91.61
 10
97.461
 20
-90.735
 10
97.461
 20
-88.985
 10
98.204
 20
-88.557
  0
INSERT
  5
15D
330
17
100
AcDbEntity
  8
0
100
AcDbBlockReference
  2
HEX
 10
102.507
 20
-89.86
 30
0.0
  0
INSERT
  5
15F
330
17
100
AcDbEntity
  8
0
100
AcDbBlockReference
  2
HEX
 10
106.038
 20
-89.86
 30
0.0
  0
INSERT
  5
161
330
17
100
AcDbEntity
  8
0
100
AcDbBlockReference
  2
HEX
 10
109.569
 20
-89.86
 30
0.0
  0
INSERT
  5
163
330
17
100
AcDbEntity
  8
0
100
AcDbBlockReference
  2
HEX
 10
113.101
 20
-89.86
 30
0.0
  0
INSERT
  5
165
330
17
100
AcDbEntity
  8
0
100
AcDbBlockReference
  2
HEX
 10
116.632
 20
-89.86
 30
0.0
  0
INSERT
  5
167
330
17
100
AcDbEntity
  8
0
100
AcDbBlockReference
  2
HEX
 10
120.163
 20
-89.86
 30
0.0
  0
LWPOLYLINE
  5
169
330
17
100
AcDbEntity
  8
0
100
AcDbPolyline
 90
6
 70
1
 10
123.175
 20
-88.41
 10
124.343
 20
-91.235
 10
123.694
 20
-91.61
 10
122.178
 20
-90.735
 10
122.178
 20
-88.985
 10
123.175
 20
-88.41
  0
LWPOLYLINE
  5
16A
330
17
100
AcDbEntity
  8
0
100
AcDbPolyline
 90
12
 70
1
 10
128.736
 20
-90.587
 10
128.427
 20
-90.384
 10
128.178
 20
-90.188
 10
127.946
 20
-89.972
 10
127.721
 20
-89.715
 10
127.498
 20
-89.403
 10
127.301
 20
-89.073
 10
127.127
 20
-88.729
 10
126.93
 20
-88.281
 10
127.225
 20
-88.11
 10
128.74
 20
-88.985
 10
128.736
 20
-90.587
  0
LWPOLYLINE
  5
16B
330
17
100
AcDbEntity
  8
0
100
AcDbPolyline
 90
14
 70
1
 10
132.27
 20
-90.168
 10
131.961
 20
-90.603
 10
131.722
 20
-90.881
 10
131.484
 20
-91.079
 10
131.253
 20
-91.202
 10
130.987
 20
-91.276
 10
130.65
 20
-91.295
 10
130.314
 20
-91.25
 10
129.963
 20
-91.153
 10
129.24
 20
-90.735
 10
129.24
 20
-88.985
 10
130.756
 20
-88.11
 10
132.271
 20
-88.985
 10
132.27
 20
-90.168
  0
LWPOLYLINE
  5
16C
330
17
100
AcDbEntity
  8
0
100
AcDbPolyline
 90
5
 70
1
 10
133.7
 20
-88.449
 10
133.262
 20
-88.918
 10
132.771
 20
-89.499
 10
132.771
 20
-88.985
 10
133.7
 20
-88.449
  0
LWPOLYLINE
  5
16D
330
17
100
AcDbEntity
  8
0
100
AcDbPolyline
 90
5
 70
1
 10
61.9
 20
-88.552
 10
61.529
 20
-88.298
 10
61.964
 20
-88.193
 10
62.806
 20
-88.029
 10
61.9
 20
-88.552
  0
LWPOLYLINE
  5
16E
330
17
100
AcDbEntity
  8
0
100
AcDbPolyline
 90
5
 70
1
 10
64.217
 20
-87.852
 10
65.58
 20
-87.774
 10
66.789
 20
-87.768
 10
65.431
 20
-88.552
 10
64.217
 20
-87.852
  0
LWPOLYLINE
  5
16F
330
17
100
AcDbEntity
  8
0
100
AcDbPolyline
 90
5
 70
1
 10
65.742
 20
-85.232
 10
65.267
 20
-85.232
 10
65.12
 20
-85.232
 10
65.431
 20
-85.052
 10
65.742
 20
-85.232
  0
LWPOLYLINE
  5
170
330
17
100
AcDbEntity
  8
0
100
AcDbPolyline
 90
5
 70
1
 10
67.649
 20
-87.795
 10
68.943
 20
-87.877
 10
69.959
 20
-87.977
 10
68.962
 20
-88.552
 10
67.649
 20
-87.795
  0
LWPOLYLINE
  5
171
330
17
100
AcDbEntity
  8
0
100
AcDbPolyline
 90
5
 70
1
 10
69.273
 20
-85.232
 10
68.827
 20
-85.232
 10
68.651
 20
-85.232
 10
68.962
 20
-85.052
 10
69.273
 20
-85.232
  0
LWPOLYLINE
  5
172
330
17
100
AcDbEntity
  8
0
100
AcDbPolyline
 90
5
 70
1
 10
72.009
 20
-88.273
 10
72.141
 20
-88.298
 10
72.142
 20
-88.298
 10
72.081
 20
-88.314
 10
72.009
 20
-88.273
  0
LWPOLYLINE
  5
173
330
17
100
AcDbEntity
  8
0
100
AcDbPolyline
 90
5
 70
1
 10
72.804
 20
-85.232
 10
72.387
 20
-85.232
 10
72.182
 20
-85.232
 10
72.493
 20
-85.052
 10
72.804
 20
-85.232
  0
LWPOLYLINE
  5
174
330
17
100
AcDbEntity
  8
0
100
AcDbPolyline
 90
9
 70
1
 10
95.195
 20
-87.407
 10
94.698
 20
-86.886
 10
94.193
 20
-86.439
 10
93.652
 20
-86.035
 10
93.368
 20
-85.85
 10
92.828
 20
-85.544
 10
93.68
 20
-85.052
 10
95.195
 20
-85.927
 10
95.195
 20
-87.407
  0
LWPOLYLINE
  5
175
330
17
100
AcDbEntity
  8
0
100
AcDbPolyline
 90
5
 70
1
 10
98.713
 20
-87.685
 10
98.036
 20
-85.529
 10
98.726
 20
-85.927
 10
98.726
 20
-87.677
 10
98.713
 20
-87.685
  0
LWPOLYLINE
  5
176
330
17
100
AcDbEntity
  8
0
100
AcDbPolyline
 90
6
 70
1
 10
97.11
 20
-85.111
 10
98.049
 20
-88.068
 10
97.211
 20
-88.552
 10
95.695
 20
-87.677
 10
95.695
 20
-85.927
 10
97.11
 20
-85.111
  0
INSERT
  5
177
330
17
100
AcDbEntity
  8
0
100
AcDbBlockReference
  2
HEX
 10
100.742
 20
-86.802
 30
0.0
  0
INSERT
  5
179
330
17
100
AcDbEntity
  8
0
100
AcDbBlockReference
  2
HEX
 10
104.273
 20
-86.802
 30
0.0
  0
INSERT
  5
17B
330
17
100
AcDbEntity
  8
0
100
AcDbBlockReference
  2
HEX
 10
107.804
 20
-86.802
 30
0.0
  0
INSERT
  5
17D
330
17
100
AcDbEntity
  8
0
100
AcDbBlockReference
  2
HEX
 10
111.335
 20
-86.802
 30
0.0
  0
INSERT
  5
17F
330
17
100
AcDbEntity
  8
0
100
AcDbBlockReference
  2
HEX
 10
114.866
 20
-86.802
 30
0.0
  0
INSERT
  5
181
330
17
100
AcDbEntity
  8
0
100
AcDbBlockReference
  2
HEX
 10
118.397
 20
-86.802
 30
0.0
  0
LWPOLYLINE
  5
183
330
17
100
AcDbEntity
  8
0
100
AcDbPolyline
 90
6
 70
1
 10
121.815
 20
-85.118
 10
122.983
 20
-87.944
 10
121.928
 20
-88.552
 10
120.413
 20
-87.677
 10
120.413
 20
-85.927
 10
121.815
 20
-85.118
  0
LWPOLYLINE
  5
184
330
17
100
AcDbEntity
  8
0
100
AcDbPolyline
 90
9
 70
1
 10
126.741
 20
-87.813
 10
126.421
 20
-87.03
 10
126.107
 20
-86.365
 10
125.754
 20
-85.72
 10
125.368
 20
-85.105
 10
125.459
 20
-85.052
 10
126.975
 20
-85.927
 10
126.975
 20
-87.677
 10
126.741
 20
-87.813
  0
INSERT
  5
185
330
17
100
AcDbEntity
  8
0
100
AcDbBlockReference
  2
HEX
 10
128.99
 20
-86.802
 30
0.0
  0
INSERT
  5
187
330
17
100
AcDbEntity
  8
0
100
AcDbBlockReference
  2
HEX
 10
132.521
 20
-86.802
 30
0.0
  0
LWPOLYLINE
  5
189
330
17
100
AcDbEntity
  8
0
100
AcDbPolyline
 90
8
 70
1
 10
137.317
 20
-85.782
 10
136.48
 20
-86.256
 10
135.807
 20
-86.686
 10
135.16
 20
-87.154
 10
134.537
 20
-87.662
 10
134.537
 20
-85.927
 10
136.053
 20
-85.052
 10
137.317
 20
-85.782
  0
LWPOLYLINE
  5
18A
330
17
100
AcDbEntity
  8
0
100
AcDbPolyline
 90
4
 70
1
 10
31.553
 20
-82.186
 10
31.885
 20
-81.994
 10
32.225
 20
-82.191
 10
31.553
 20
-82.186
  0
LWPOLYLINE
  5
18B
330
17
100
AcDbEntity
  8
0
100
AcDbPolyline
 90
4
 70
1
 10
35.797
 20
-82.214
 10
35.044
 20
-82.209
 10
35.417
 20
-81.994
 10
35.797
 20
-82.214
  0
LWPOLYLINE
  5
18C
330
17
100
AcDbEntity
  8
0
100
AcDbPolyline
 90
4
 70
1
 10
39.37
 20
-82.238
 10
38.535
 20
-82.232
 10
38.948
 20
-81.994
 10
39.37
 20
-82.238
  0
LWPOLYLINE
  5
18D
330
17
100
AcDbEntity
  8
0
100
AcDbPolyline
 90
4
 70
1
 10
42.942
 20
-82.262
 10
42.026
 20
-82.256
 10
42.479
 20
-81.994
 10
42.942
 20
-82.262
  0
LWPOLYLINE
  5
18E
330
17
100
AcDbEntity
  8
0
100
AcDbPolyline
 90
4
 70
1
 10
46.514
 20
-82.285
 10
45.517
 20
-82.279
 10
46.01
 20
-81.994
 10
46.514
 20
-82.285
  0
LWPOLYLINE
  5
18F
330
17
100
AcDbEntity
  8
0
100
AcDbPolyline
 90
5
 70
1
 10
50.086
 20
-82.309
 10
49.107
 20
-82.303
 10
49.008
 20
-82.302
 10
49.541
 20
-81.994
 10
50.086
 20
-82.309
  0
LWPOLYLINE
  5
190
330
17
100
AcDbEntity
  8
0
100
AcDbPolyline
 90
4
 70
1
 10
53.658
 20
-82.333
 10
52.499
 20
-82.325
 10
53.072
 20
-81.994
 10
53.658
 20
-82.333
  0
LWPOLYLINE
  5
191
330
17
100
AcDbEntity
  8
0
100
AcDbPolyline
 90
5
 70
1
 10
57.451
 20
-82.484
 10
56.797
 20
-82.406
 10
55.981
 20
-82.354
 10
56.603
 20
-81.994
 10
57.451
 20
-82.484
  0
LWPOLYLINE
  5
192
330
17
100
AcDbEntity
  8
0
100
AcDbPolyline
 90
8
 70
1
 10
61.644
 20
-83.85
 10
60.87
 20
-83.458
 10
60.276
 20
-83.207
 10
59.617
 20
-82.973
 10
58.827
 20
-82.749
 10
60.134
 20
-81.994
 10
61.65
 20
-82.869
 10
61.644
 20
-83.85
  0
LWPOLYLINE
  5
193
330
17
100
AcDbEntity
  8
0
100
AcDbPolyline
 90
11
 70
1
 10
64.12
 20
-85.232
 10
63.487
 20
-85.232
 10
63.234
 20
-84.98
 10
62.914
 20
-84.703
 10
62.626
 20
-84.481
 10
62.15
 20
-84.154
 10
62.15
 20
-82.869
 10
63.665
 20
-81.994
 10
65.181
 20
-82.869
 10
65.181
 20
-84.619
 10
64.12
 20
-85.232
  0
LWPOLYLINE
  5
194
330
17
100
AcDbEntity
  8
0
100
AcDbPolyline
 90
8
 70
1
 10
67.64
 20
-85.232
 10
66.742
 20
-85.232
 10
65.681
 20
-84.619
 10
65.681
 20
-82.869
 10
67.196
 20
-81.994
 10
68.712
 20
-82.869
 10
68.712
 20
-84.619
 10
67.64
 20
-85.232
  0
LWPOLYLINE
  5
195
330
17
100
AcDbEntity
  8
0
100
AcDbPolyline
 90
14
 70
1
 10
71.024
 20
-82.166
 10
71.198
 20
-82.797
 10
71.303
 20
-83.073
 10
71.488
 20
-83.473
 10
71.707
 20
-83.855
 10
71.87
 20
-84.098
 10
72.243
 20
-84.563
 10
72.243
 20
-84.619
 10
71.182
 20
-85.232
 10
70.273
 20
-85.232
 10
69.212
 20
-84.619
 10
69.212
 20
-82.869
 10
70.727
 20
-81.994
 10
71.024
 20
-82.166
  0
LWPOLYLINE
  5
196
330
17
100
AcDbEntity
  8
0
100
AcDbPolyline
 90
10
 70
1
 10
75.774
 20
-83.927
 10
74.418
 20
-84.013
 10
74.267
 20
-83.962
 10
73.881
 20
-83.779
 10
73.502
 20
-83.525
 10
73.163
 20
-83.22
 10
72.83
 20
-82.819
 10
74.259
 20
-81.994
 10
75.774
 20
-82.869
 10
75.774
 20
-83.927
  0
LWPOLYLINE
  5
197
330
17
100
AcDbEntity
  8
0
100
AcDbPolyline
 90
6
 70
1
 10
79.305
 20
-83.705
 10
76.274
 20
-83.896
 10
76.274
 20
-82.869
 10
77.79
 20
-81.994
 10
79.305
 20
-82.869
 10
79.305
 20
-83.705
  0
LWPOLYLINE
  5
198
330
17
100
AcDbEntity
  8
0
100
AcDbPolyline
 90
6
 70
1
 10
82.836
 20
-83.483
 10
79.805
 20
-83.674
 10
79.805
 20
-82.869
 10
81.321
 20
-81.994
 10
82.836
 20
-82.869
 10
82.836
 20
-83.483
  0
LWPOLYLINE
  5
199
330
17
100
AcDbEntity
  8
0
100
AcDbPolyline
 90
8
 70
1
 10
83.336
 20
-83.451
 10
83.336
 20
-82.869
 10
83.958
 20
-82.51
 10
84.129
 20
-82.811
 10
84.343
 20
-83.072
 10
84.466
 20
-83.183
 10
84.748
 20
-83.363
 10
83.336
 20
-83.451
  0
LWPOLYLINE
  5
19A
330
17
100
AcDbEntity
  8
0
100
AcDbPolyline
 90
7
 70
1
 10
92.276
 20
-85.285
 10
91.511
 20
-85.005
 10
91.178
 20
-84.912
 10
90.733
 20
-84.813
 10
90.5
 20
-84.678
 10
93.328
 20
-84.678
 10
92.276
 20
-85.285
  0
LWPOLYLINE
  5
19B
330
17
100
AcDbEntity
  8
0
100
AcDbPolyline
 90
5
 70
1
 10
94.031
 20
-84.678
 10
94.481
 20
-84.678
 10
96.859
 20
-84.678
 10
95.445
 20
-85.494
 10
94.031
 20
-84.678
  0
LWPOLYLINE
  5
19C
330
17
100
AcDbEntity
  8
0
100
AcDbPolyline
 90
11
 70
1
 10
99.044
 20
-83.963
 10
99.75
 20
-83.612
 10
100.492
 20
-83.282
 10
100.492
 20
-84.619
 10
98.976
 20
-85.494
 10
97.87
 20
-84.856
 10
97.929
 20
-84.676
 10
97.987
 20
-84.596
 10
98.061
 20
-84.528
 10
98.49
 20
-84.267
 10
99.044
 20
-83.963
  0
LWPOLYLINE
  5
19D
330
17
100
AcDbEntity
  8
0
100
AcDbPolyline
 90
8
 70
1
 10
100.992
 20
-83.077
 10
102.152
 20
-82.655
 10
103.131
 20
-82.354
 10
104.023
 20
-82.869
 10
104.023
 20
-84.619
 10
102.507
 20
-85.494
 10
100.992
 20
-84.619
 10
100.992
 20
-83.077
  0
INSERT
  5
19E
330
17
100
AcDbEntity
  8
0
100
AcDbBlockReference
  2
HEX
 10
106.038
 20
-83.744
 30
0.0
  0
INSERT
  5
1A0
330
17
100
AcDbEntity
  8
0
100
AcDbBlockReference
  2
HEX
 10
109.569
 20
-83.744
 30
0.0
  0
INSERT
  5
1A2
330
17
100
AcDbEntity
  8
0
100
AcDbBlockReference
  2
HEX
 10
113.101
 20
-83.744
 30
0.0
  0
LWPOLYLINE
  5
1A4
330
17
100
AcDbEntity
  8
0
100
AcDbPolyline
 90
8
 70
1
 10
116.955
 20
-82.181
 10
118.147
 20
-82.869
 10
118.147
 20
-84.619
 10
116.632
 20
-85.494
 10
115.116
 20
-84.619
 10
115.116
 20
-82.869
 10
116.494
 20
-82.074
 10
116.955
 20
-82.181
  0
LWPOLYLINE
  5
1A5
330
17
100
AcDbEntity
  8
0
100
AcDbPolyline
 90
11
 70
1
 10
119.743
 20
-82.953
 10
120.913
 20
-83.355
 10
121.075
 20
-83.452
 10
121.143
 20
-83.528
 10
121.193
 20
-83.616
 10
121.622
 20
-84.652
 10
120.163
 20
-85.494
 10
118.647
 20
-84.619
 10
118.647
 20
-82.869
 10
118.932
 20
-82.705
 10
119.743
 20
-82.953
  0
LWPOLYLINE
  5
1A6
330
17
100
AcDbEntity
  8
0
100
AcDbPolyline
 90
17
 70
1
 10
125.078
 20
-84.695
 10
124.674
 20
-84.18
 10
124.278
 20
-83.734
 10
124.06
 20
-83.51
 10
123.741
 20
-83.247
 10
123.609
 20
-83.113
 10
123.559
 20
-83.03
 10
123.54
 20
-82.948
 10
123.554
 20
-82.882
 10
123.593
 20
-82.832
 10
123.652
 20
-82.796
 10
123.744
 20
-82.769
 10
123.939
 20
-82.762
 10
124.604
 20
-82.879
 10
125.209
 20
-83.024
 10
125.209
 20
-84.619
 10
125.078
 20
-84.695
  0
LWPOLYLINE
  5
1A7
330
17
100
AcDbEntity
  8
0
100
AcDbPolyline
 90
8
 70
1
 10
125.717
 20
-83.174
 10
126.49
 20
-83.456
 10
127.24
 20
-83.795
 10
127.961
 20
-84.191
 10
128.674
 20
-84.657
 10
127.225
 20
-85.494
 10
125.709
 20
-84.619
 10
125.717
 20
-83.174
  0
LWPOLYLINE
  5
1A8
330
17
100
AcDbEntity
  8
0
100
AcDbPolyline
 90
12
 70
1
 10
130.412
 20
-85.289
 10
130.648
 20
-85.167
 10
130.914
 20
-84.962
 10
131.263
 20
-84.634
 10
131.585
 20
-84.277
 10
131.85
 20
-83.932
 10
132.058
 20
-83.601
 10
132.201
 20
-83.29
 10
132.271
 20
-83.039
 10
132.271
 20
-84.619
 10
130.756
 20
-85.494
 10
130.412
 20
-85.289
  0
LWPOLYLINE
  5
1A9
330
17
100
AcDbEntity
  8
0
100
AcDbPolyline
 90
8
 70
1
 10
133.813
 20
-82.268
 10
135.033
 20
-82.64
 10
135.803
 20
-82.919
 10
135.803
 20
-84.619
 10
134.287
 20
-85.494
 10
132.771
 20
-84.619
 10
132.771
 20
-82.869
 10
133.813
 20
-82.268
  0
LWPOLYLINE
  5
1AA
330
17
100
AcDbEntity
  8
0
100
AcDbPolyline
 90
15
 70
1
 10
136.307
 20
-83.136
 10
136.898
 20
-83.434
 10
137.358
 20
-83.715
 10
137.647
 20
-83.951
 10
137.867
 20
-84.215
 10
137.95
 20
-84.368
 10
138.011
 20
-84.53
 10
138.044
 20
-84.699
 10
138.047
 20
-84.869
 10
138.019
 20
-85.027
 10
137.953
 20
-85.191
 10
137.857
 20
-85.339
 10
137.753
 20
-85.457
 10
136.303
 20
-84.619
 10
136.307
 20
-83.136
  0
LWPOLYLINE
  5
1AB
330
17
100
AcDbEntity
  8
0
100
AcDbPolyline
 90
8
 70
1
 10
30.565
 20
-82.18
 10
29.665
 20
-82.174
 10
28.604
 20
-81.561
 10
28.604
 20
-79.811
 10
30.12
 20
-78.936
 10
31.635
 20
-79.811
 10
31.635
 20
-81.561
 10
30.565
 20
-82.18
  0
LWPOLYLINE
  5
1AC
330
17
100
AcDbEntity
  8
0
100
AcDbPolyline
 90
8
 70
1
 10
34.056
 20
-82.203
 10
33.237
 20
-82.197
 10
32.135
 20
-81.561
 10
32.135
 20
-79.811
 10
33.651
 20
-78.936
 10
35.167
 20
-79.811
 10
35.167
 20
-81.561
 10
34.056
 20
-82.203
  0
LWPOLYLINE
  5
1AD
330
17
100
AcDbEntity
  8
0
100
AcDbPolyline
 90
8
 70
1
 10
37.547
 20
-82.226
 10
36.809
 20
-82.221
 10
35.667
 20
-81.561
 10
35.667
 20
-79.811
 10
37.182
 20
-78.936
 10
38.698
 20
-79.811
 10
38.698
 20
-81.561
 10
37.547
 20
-82.226
  0
LWPOLYLINE
  5
1AE
330
17
100
AcDbEntity
  8
0
100
AcDbPolyline
 90
8
 70
1
 10
41.038
 20
-82.249
 10
40.381
 20
-82.245
 10
39.198
 20
-81.561
 10
39.198
 20
-79.811
 10
40.713
 20
-78.936
 10
42.229
 20
-79.811
 10
42.229
 20
-81.561
 10
41.038
 20
-82.249
  0
LWPOLYLINE
  5
1AF
330
17
100
AcDbEntity
  8
0
100
AcDbPolyline
 90
8
 70
1
 10
44.529
 20
-82.272
 10
43.953
 20
-82.268
 10
42.729
 20
-81.561
 10
42.729
 20
-79.811
 10
44.244
 20
-78.936
 10
45.76
 20
-79.811
 10
45.76
 20
-81.561
 10
44.529
 20
-82.272
  0
LWPOLYLINE
  5
1B0
330
17
100
AcDbEntity
  8
0
100
AcDbPolyline
 90
8
 70
1
 10
47.525
 20
-82.292
 10
46.26
 20
-81.561
 10
46.26
 20
-79.811
 10
47.775
 20
-78.936
 10
49.291
 20
-79.811
 10
49.291
 20
-81.561
 10
48.02
 20
-82.295
 10
47.525
 20
-82.292
  0
LWPOLYLINE
  5
1B1
330
17
100
AcDbEntity
  8
0
100
AcDbPolyline
 90
8
 70
1
 10
51.098
 20
-82.316
 10
49.791
 20
-81.561
 10
49.791
 20
-79.811
 10
51.306
 20
-78.936
 10
52.822
 20
-79.811
 10
52.822
 20
-81.561
 10
51.511
 20
-82.319
 10
51.098
 20
-82.316
  0
LWPOLYLINE
  5
1B2
330
17
100
AcDbEntity
  8
0
100
AcDbPolyline
 90
8
 70
1
 10
54.999
 20
-82.342
 10
54.67
 20
-82.34
 10
53.322
 20
-81.561
 10
53.322
 20
-79.811
 10
54.838
 20
-78.936
 10
56.353
 20
-79.811
 10
56.353
 20
-81.561
 10
54.999
 20
-82.342
  0
INSERT
  5
1B3
330
17
100
AcDbEntity
  8
0
100
AcDbBlockReference
  2
HEX
 10
58.369
 20
-80.686
 30
0.0
  0
INSERT
  5
1B5
330
17
100
AcDbEntity
  8
0
100
AcDbBlockReference
  2
HEX
 10
61.9
 20
-80.686
 30
0.0
  0
INSERT
  5
1B7
330
17
100
AcDbEntity
  8
0
100
AcDbBlockReference
  2
HEX
 10
65.431
 20
-80.686
 30
0.0
  0
INSERT
  5
1B9
330
17
100
AcDbEntity
  8
0
100
AcDbBlockReference
  2
HEX
 10
68.962
 20
-80.686
 30
0.0
  0
LWPOLYLINE
  5
1BB
330
17
100
AcDbEntity
  8
0
100
AcDbPolyline
 90
15
 70
1
 10
72.57
 20
-82.383
 10
72.387
 20
-81.92
 10
72.301
 20
-81.561
 10
72.259
 20
-81.198
 10
72.256
 20
-80.956
 10
72.274
 20
-80.716
 10
72.313
 20
-80.478
 10
72.372
 20
-80.245
 10
72.501
 20
-79.908
 10
72.679
 20
-79.589
 10
72.825
 20
-79.389
 10
72.979
 20
-79.217
 10
74.009
 20
-79.811
 10
74.009
 20
-81.561
 10
72.57
 20
-82.383
  0
LWPOLYLINE
  5
1BC
330
17
100
AcDbEntity
  8
0
100
AcDbPolyline
 90
5
 70
1
 10
71.167
 20
-79.702
 10
71.063
 20
-80.039
 10
70.977
 20
-80.437
 10
70.977
 20
-79.811
 10
71.167
 20
-79.702
  0
INSERT
  5
1BD
330
17
100
AcDbEntity
  8
0
100
AcDbBlockReference
  2
HEX
 10
76.024
 20
-80.686
 30
0.0
  0
INSERT
  5
1BF
330
17
100
AcDbEntity
  8
0
100
AcDbBlockReference
  2
HEX
 10
79.555
 20
-80.686
 30
0.0
  0
LWPOLYLINE
  5
1C1
330
17
100
AcDbEntity
  8
0
100
AcDbPolyline
 90
11
 70
1
 10
83.521
 20
-79.19
 10
83.503
 20
-80.07
 10
83.544
 20
-80.817
 10
83.622
 20
-81.404
 10
83.704
 20
-81.79
 10
83.775
 20
-82.039
 10
83.086
 20
-82.436
 10
81.571
 20
-81.561
 10
81.571
 20
-79.811
 10
83.086
 20
-78.936
 10
83.521
 20
-79.19
  0
LWPOLYLINE
  5
1C2
330
17
100
AcDbEntity
  8
0
100
AcDbPolyline
 90
5
 70
1
 10
103.812
 20
-82.171
 10
104.697
 20
-81.961
 10
105.309
 20
-81.838
 10
104.273
 20
-82.436
 10
103.812
 20
-82.171
  0
LWPOLYLINE
  5
1C3
330
17
100
AcDbEntity
  8
0
100
AcDbPolyline
 90
7
 70
1
 10
106.443
 20
-81.651
 10
107.76
 20
-81.494
 10
108.603
 20
-81.43
 10
109.319
 20
-81.399
 10
109.319
 20
-81.561
 10
107.804
 20
-82.436
 10
106.443
 20
-81.651
  0
LWPOLYLINE
  5
1C4
330
17
100
AcDbEntity
  8
0
100
AcDbPolyline
 90
9
 70
1
 10
110.378
 20
-81.382
 10
111.31
 20
-81.403
 10
112.27
 20
-81.457
 10
112.851
 20
-81.509
 10
112.851
 20
-81.561
 10
111.335
 20
-82.436
 10
109.819
 20
-81.561
 10
109.819
 20
-81.388
 10
110.378
 20
-81.382
  0
LWPOLYLINE
  5
1C5
330
17
100
AcDbEntity
  8
0
100
AcDbPolyline
 90
6
 70
1
 10
114.273
 20
-81.673
 10
115.315
 20
-81.84
 10
115.752
 20
-81.925
 10
114.866
 20
-82.436
 10
113.351
 20
-81.558
 10
114.273
 20
-81.673
  0
LWPOLYLINE
  5
1C6
330
17
100
AcDbEntity
  8
0
100
AcDbPolyline
 90
9
 70
1
 10
132.114
 20
-82.191
 10
131.985
 20
-82.02
 10
131.833
 20
-81.865
 10
131.63
 20
-81.694
 10
131.344
 20
-81.486
 10
132.071
 20
-81.746
 10
133.146
 20
-82.076
 10
132.521
 20
-82.436
 10
132.114
 20
-82.191
  0
LWPOLYLINE
  5
1C7
330
17
100
AcDbEntity
  8
0
100
AcDbPolyline
 90
6
 70
1
 10
28.323
 20
-79.36
 10
28.323
 20
-77.016
 10
29.87
 20
-77.026
 10
29.87
 20
-78.503
 10
28.354
 20
-79.378
 10
28.323
 20
-79.36
  0
LWPOLYLINE
  5
1C8
330
17
100
AcDbEntity
  8
0
100
AcDbPolyline
 90
6
 70
1
 10
30.37
 20
-77.029
 10
33.401
 20
-77.05
 10
33.401
 20
-78.503
 10
31.885
 20
-79.378
 10
30.37
 20
-78.503
 10
30.37
 20
-77.029
  0
LWPOLYLINE
  5
1C9
330
17
100
AcDbEntity
  8
0
100
AcDbPolyline
 90
6
 70
1
 10
33.904
 20
-77.053
 10
36.932
 20
-77.073
 10
36.932
 20
-78.503
 10
35.417
 20
-79.378
 10
33.901
 20
-78.503
 10
33.904
 20
-77.053
  0
LWPOLYLINE
  5
1CA
330
17
100
AcDbEntity
  8
0
100
AcDbPolyline
 90
6
 70
1
 10
37.432
 20
-77.076
 10
40.463
 20
-77.096
 10
40.463
 20
-78.503
 10
38.948
 20
-79.378
 10
37.432
 20
-78.503
 10
37.432
 20
-77.076
  0
LWPOLYLINE
  5
1CB
330
17
100
AcDbEntity
  8
0
100
AcDbPolyline
 90
6
 70
1
 10
40.963
 20
-77.1
 10
43.994
 20
-77.12
 10
43.994
 20
-78.503
 10
42.479
 20
-79.378
 10
40.963
 20
-78.503
 10
40.963
 20
-77.1
  0
LWPOLYLINE
  5
1CC
330
17
100
AcDbEntity
  8
0
100
AcDbPolyline
 90
6
 70
1
 10
44.494
 20
-77.123
 10
47.525
 20
-77.143
 10
47.525
 20
-78.503
 10
46.01
 20
-79.378
 10
44.494
 20
-78.503
 10
44.494
 20
-77.123
  0
LWPOLYLINE
  5
1CD
330
17
100
AcDbEntity
  8
0
100
AcDbPolyline
 90
6
 70
1
 10
48.025
 20
-77.146
 10
51.056
 20
-77.167
 10
51.056
 20
-78.503
 10
49.541
 20
-79.378
 10
48.025
 20
-78.503
 10
48.025
 20
-77.146
  0
LWPOLYLINE
  5
1CE
330
17
100
AcDbEntity
  8
0
100
AcDbPolyline
 90
6
 70
1
 10
51.556
 20
-77.17
 10
54.588
 20
-77.19
 10
54.588
 20
-78.503
 10
53.072
 20
-79.378
 10
51.556
 20
-78.503
 10
51.556
 20
-77.17
  0
LWPOLYLINE
  5
1CF
330
17
100
AcDbEntity
  8
0
100
AcDbPolyline
 90
6
 70
1
 10
55.088
 20
-77.193
 10
58.119
 20
-77.213
 10
58.119
 20
-78.503
 10
56.603
 20
-79.378
 10
55.088
 20
-78.503
 10
55.088
 20
-77.193
  0
LWPOLYLINE
  5
1D0
330
17
100
AcDbEntity
  8
0
100
AcDbPolyline
 90
6
 70
1
 10
58.619
 20
-77.217
 10
61.65
 20
-77.237
 10
61.65
 20
-78.503
 10
60.134
 20
-79.378
 10
58.619
 20
-78.503
 10
58.619
 20
-77.217
  0
LWPOLYLINE
  5
1D1
330
17
100
AcDbEntity
  8
0
100
AcDbPolyline
 90
6
 70
1
 10
62.15
 20
-77.24
 10
65.181
 20
-77.26
 10
65.181
 20
-78.503
 10
63.665
 20
-79.378
 10
62.15
 20
-78.503
 10
62.15
 20
-77.24
  0
LWPOLYLINE
  5
1D2
330
17
100
AcDbEntity
  8
0
100
AcDbPolyline
 90
6
 70
1
 10
65.681
 20
-77.264
 10
68.712
 20
-77.284
 10
68.712
 20
-78.503
 10
67.196
 20
-79.378
 10
65.681
 20
-78.503
 10
65.681
 20
-77.264
  0
LWPOLYLINE
  5
1D3
330
17
100
AcDbEntity
  8
0
100
AcDbPolyline
 90
8
 70
1
 10
69.212
 20
-77.287
 10
72.243
 20
-77.307
 10
72.243
 20
-77.96
 10
71.865
 20
-78.406
 10
71.529
 20
-78.916
 10
70.727
 20
-79.378
 10
69.212
 20
-78.503
 10
69.212
 20
-77.287
  0
LWPOLYLINE
  5
1D4
330
17
100
AcDbEntity
  8
0
100
AcDbPolyline
 90
8
 70
1
 10
73.386
 20
-78.875
 10
73.644
 20
-78.721
 10
73.883
 20
-78.611
 10
74.147
 20
-78.519
 10
74.437
 20
-78.447
 10
75.772
 20
-78.504
 10
74.259
 20
-79.378
 10
73.386
 20
-78.875
  0
LWPOLYLINE
  5
1D5
330
17
100
AcDbEntity
  8
0
100
AcDbPolyline
 90
5
 70
1
 10
72.97
 20
-77.312
 10
72.857
 20
-77.399
 10
72.743
 20
-77.491
 10
72.743
 20
-77.311
 10
72.97
 20
-77.312
  0
LWPOLYLINE
  5
1D6
330
17
100
AcDbEntity
  8
0
100
AcDbPolyline
 90
5
 70
1
 10
76.316
 20
-78.528
 10
78.139
 20
-78.606
 10
79.06
 20
-78.645
 10
77.79
 20
-79.378
 10
76.316
 20
-78.528
  0
LWPOLYLINE
  5
1D7
330
17
100
AcDbEntity
  8
0
100
AcDbPolyline
 90
5
 70
1
 10
80.132
 20
-78.691
 10
80.701
 20
-78.715
 10
82.347
 20
-78.786
 10
81.321
 20
-79.378
 10
80.132
 20
-78.691
  0
ENDSEC
  0
SECTION
  2
OBJECTS
  0
DICTIONARY
  5
A
330
0
100
AcDbDictionary
281
1
  3
ACAD_COLOR
350
B
  3
ACAD_GROUP
350
C
  3
ACAD_LAYOUT
350
D
  3
ACAD_MATERIAL
350
E
  3
ACAD_MLEADERSTYLE
350
F
  3
ACAD_MLINESTYLE
350
10
  3
ACAD_PLOTSETTINGS
350
11
  3
ACAD_PLOTSTYLENAME
350
12
  3
ACAD_SCALELIST
350
14
  3
ACAD_TABLESTYLE
350
15
  3
ACAD_VISUALSTYLE
350
16
  3
EZDXF_META
350
2D
  0
DICTIONARY
  5
B
330
A
100
AcDbDictionary
281
1
  0
DICTIONARY
  5
C
330
A
100
AcDbDictionary
281
1
  0
DICTIONARY
  5
D
330
A
100
AcDbDictionary
281
1
  3
Model
350
1A
  3
Layout1
350
1E
  0
DICTIONARY
  5
E
330
A
100
AcDbDictionary
281
1
  3
ByBlock
350
1F
  3
ByLayer
350
20
  3
Global
350
21
  0
DICTIONARY
  5
F
330
A
100
AcDbDictionary
281
1
  3
Standard
350
2C
  0
DICTIONARY
  5
10
330
A
100
AcDbDictionary
281
1
  3
Standard
350
22
  0
DICTIONARY
  5
11
330
A
100
AcDbDictionary
281
1
  0
ACDBDICTIONARYWDFLT
  5
12
330
A
100
AcDbDictionary
281
1
  3
Normal
350
13
100
AcDbDictionaryWithDefault
340
13
  0
ACDBPLACEHOLDER
  5
13
330
12
  0
DICTIONARY
  5
14
330
A
100
AcDbDictionary
281
1
  0
DICTIONARY
  5
15
330
A
100
AcDbDictionary
281
1
  0
DICTIONARY
  5
16
330
A
100
AcDbDictionary
281
1
  0
LAYOUT
  5
1A
330
D
100
AcDbPlotSettings
  1

  4
A3
  6

 40
7.5
 41
20.0
 42
7.5
 43
20.0
 44
420.0
 45
297.0
 46
0.0
 47
0.0
 48
0.0
 49
0.0
140
0.0
141
0.0
142
1.0
143
1.0
 70
1024
 72
1
 73
0
 74
5
  7

 75
16
 76
0
 77
2
 78
300
147
1.0
148
0.0
149
0.0
100
AcDbLayout
  1
Model
 70
1
 71
0
 10
0.0
 20
0.0
 11
420.0
 21
297.0
 12
0.0
 22
0.0
 32
0.0
 14
1e+20
 24
1e+20
 34
1e+20
 15
-1e+20
 25
-1e+20
 35
-1e+20
146
0.0
 13
0.0
 23
0.0
 33
0.0
 16
1.0
 26
0.0
 36
0.0
 17
0.0
 27
1.0
 37
0.0
 76
1
330
17
  0
LAYOUT
  5
1E
330
D
100
AcDbPlotSettings
  1

  4
A3
  6

 40
7.5
 41
20.0
 42
7.5
 43
20.0
 44
420.0
 45
297.0
 46
0.0
 47
0.0
 48
0.0
 49
0.0
140
0.0
141
0.0
142
1.0
143
1.0
 70
0
 72
1
 73
0
 74
5
  7

 75
16
 76
0
 77
2
 78
300
147
1.0
148
0.0
149
0.0
100
AcDbLayout
  1
Layout1
 70
1
 71
1
 10
0.0
 20
0.0
 11
420.0
 21
297.0
 12
0.0
 22
0.0
 32
0.0
 14
1e+20
 24
1e+20
 34
1e+20
 15
-1e+20
 25
-1e+20
 35
-1e+20
146
0.0
 13
0.0
 23
0.0
 33
0.0
 16
1.0
 26
0.0
 36
0.0
 17
0.0
 27
1.0
 37
0.0
 76
1
330
1B
  0
MATERIAL
  5
1F
102
{ACAD_REACTORS
330
E
102
}
330
E
100
AcDbMaterial
  1
ByBlock
  2

 70
0
 40
1.0
 71
1
 41
1.0
 91
-1023410177
 42
1.0
 72
1
  3

 73
1
 74
1
 75
1
 44
0.5
 73
0
 45
1.0
 46
1.0
 77
1
  4

 78
1
 79
1
170
1
 48
1.0
171
1
  6

172
1
173
1
174
1
140
1.0
141
1.0
175
1
  7

176
1
177
1
178
1
143
1.0
179
1
  8

270
1
271
1
272
1
145
1.0
146
1.0
273
1
  9

274
1
275
1
276
1
 42
1.0
 72
1
  3

 73
1
 74
1
 75
1
 94
63
  0
MATERIAL
  5
20
102
{ACAD_REACTORS
330
E
102
}
330
E
100
AcDbMaterial
  1
ByLayer
  2

 70
0
 40
1.0
 71
1
 41
1.0
 91
-1023410177
 42
1.0
 72
1
  3

 73
1
 74
1
 75
1
 44
0.5
 73
0
 45
1.0
 46
1.0
 77
1
  4

 78
1
 79
1
170
1
 48
1.0
171
1
  6

172
1
173
1
174
1
140
1.0
141
1.0
175
1
  7

176
1
177
1
178
1
143
1.0
179
1
  8

270
1
271
1
272
1
145
1.0
146
1.0
273
1
  9

274
1
275
1
276
1
 42
1.0
 72
1
  3

 73
1
 74
1
 75
1
 94
63
  0
MATERIAL
  5
21
102
{ACAD_REACTORS
330
E
102
}
330
E
100
AcDbMaterial
  1
Global
  2

 70
0
 40
1.0
 71
1
 41
1.0
 91
-1023410177
 42
1.0
 72
1
  3

 73
1
 74
1
 75
1
 44
0.5
 73
0
 45
1.0
 46
1.0
 77
1
  4

 78
1
 79
1
170
1
 48
1.0
171
1
  6

172
1
173
1
174
1
140
1.0
141
1.0
175
1
  7

176
1
177
1
178
1
143
1.0
179
1
  8

270
1
271
1
272
1
145
1.0
146
1.0
273
1
  9

274
1
275
1
276
1
 42
1.0
 72
1
  3

 73
1
 74
1
 75
1
 94
63
  0
MLINESTYLE
  5
22
102
{ACAD_REACTORS
330
10
102
}
330
10
100
AcDbMlineStyle
  2
Standard
 70
0
  3

 62
256
 51
90.0
 52
90.0
 71
2
 49
0.5
 62
256
  6
BYLAYER
 49
-0.5
 62
256
  6
BYLAYER
  0
MLEADERSTYLE
  5
2C
102
{ACAD_REACTORS
330
F
102
}
330
F
100
AcDbMLeaderStyle
179
2
170
2
171
1
172
0
 90
2
 40
0.0
 41
0.0
173
1
 91
-1056964608
 92
-2
290
1
 42
2.0
291
1
 43
8.0
  3
Standard
 44
4.0
300

342
29
174
1
175
1
176
0
178
1
 93
-1056964608
 45
4.0
292
0
297
0
 46
4.0
 94
-1056964608
 47
1.0
 49
1.0
140
1.0
294
1
141
0.0
177
0
142
1.0
295
0
296
0
143
3.75
271
0
272
9
273
9
  0
DICTIONARY
  5
2D
330
A
100
AcDbDictionary
280
1
281
1
  3
CREATED_BY_EZDXF
350
2E
  3
WRITTEN_BY_EZDXF
350
1DA
  0
DICTIONARYVAR
  5
2E
330
2D
100
DictionaryVariables
280
0
  1
1.4.3 @ 2026-04-09T21:37:19.070272+00:00
  0
DICTIONARYVAR
  5
1DA
330
2D
100
DictionaryVariables
280
0
  1
1.4.3 @ 2026-04-09T21:37:19.090214+00:00
  0
ENDSEC
  0
EOF
