  0
SECTION
  2
HEADER
  9
$ACADVER
  1
AC1024
  9
$ACADMAINTVER
 70
6
  9
$DWGCODEPAGE
  3
ANSI_1252
  9
$LASTSAVEDBY
  1
ezdxf
  9
$INSBASE
 10
0.0
 20
0.0
 30
0.0
  9
$EXTMIN
 10
1e+20
 20
1e+20
 30
1e+20
  9
$EXTMAX
 10
-1e+20
 20
-1e+20
 30
-1e+20
  9
$LIMMIN
 10
0.0
 20
0.0
  9
$LIMMAX
 10
420.0
 20
297.0
  9
$ORTHOMODE
 70
0
  9
$REGENMODE
 70
1
  9
$FILLMODE
 70
1
  9
$QTEXTMODE
 70
0
  9
$MIRRTEXT
 70
1
  9
$LTSCALE
 40
1.0
  9
$ATTMODE
 70
1
  9
$TEXTSIZE
 40
2.5
  9
$TRACEWID
 40
1.0
  9
$TEXTSTYLE
  7
Standard
  9
$CLAYER
  8
0
  9
$CELTYPE
  6
ByLayer
  9
$CECOLOR
 62
256
  9
$CELTSCALE
 40
1.0
  9
$DISPSILH
 70
0
  9
$DIMSCALE
 40
1.0
  9
$DIMASZ
 40
2.5
  9
$DIMEXO
 40
0.625
  9
$DIMDLI
 40
3.75
  9
$DIMRND
 40
0.0
  9
$DIMDLE
 40
0.0
  9
$DIMEXE
 40
1.25
  9
$DIMTP
 40
0.0
  9
$DIMTM
 40
0.0
  9
$DIMTXT
 40
2.5
  9
$DIMCEN
 40
2.5
  9
$DIMTSZ
 40
0.0
  9
$DIMTOL
 70
0
  9
$DIMLIM
 70
0
  9
$DIMTIH
 70
0
  9
$DIMTOH
 70
0
  9
$DIMSE1
 70
0
  9
$DIMSE2
 70
0
  9
$DIMTAD
 70
1
  9
$DIMZIN
 70
8
  9
$DIMBLK
  1

  9
$DIMASO
 70
1
  9
$DIMSHO
 70
1
  9
$DIMPOST
  1

  9
$DIMAPOST
  1

  9
$DIMALT
 70
0
  9
$DIMALTD
 70
3
  9
$DIMALTF
 40
0.03937007874
  9
$DIMLFAC
 40
1.0
  9
$DIMTOFL
 70
1
  9
$DIMTVP
 40
0.0
  9
$DIMTIX
 70
0
  9
$DIMSOXD
 70
0
  9
$DIMSAH
 70
0
  9
$DIMBLK1
  1

  9
$DIMBLK2
  1

  9
$DIMSTYLE
  2
ISO-25
  9
$DIMCLRD
 70
0
  9
$DIMCLRE
 70
0
  9
$DIMCLRT
 70
0
  9
$DIMTFAC
 40
1.0
  9
$DIMGAP
 40
0.625
  9
$DIMJUST
 70
0
  9
$DIMSD1
 70
0
  9
$DIMSD2
 70
0
  9
$DIMTOLJ
 70
0
  9
$DIMTZIN
 70
8
  9
$DIMALTZ
 70
0
  9
$DIMALTTZ
 70
0
  9
$DIMUPT
 70
0
  9
$DIMDEC
 70
2
  9
$DIMTDEC
 70
2
  9
$DIMALTU
 70
2
  9
$DIMALTTD
 70
3
  9
$DIMTXSTY
  7
Standard
  9
$DIMAUNIT
 70
0
  9
$DIMADEC
 70
0
  9
$DIMALTRND
 40
0.0
  9
$DIMAZIN
 70
0
  9
$DIMDSEP
 70
44
  9
$DIMATFIT
 70
3
  9
$DIMFRAC
 70
0
  9
$DIMLDRBLK
  1

  9
$DIMLUNIT
 70
2
  9
$DIMLWD
 70
-2
  9
$DIMLWE
 70
-2
  9
$DIMTMOVE
 70
0
  9
$DIMFXL
 40
1.0
  9
$DIMFXLON
 70
0
  9
$DIMJOGANG
 40
0.785398163397
  9
$DIMTFILL
 70
0
  9
$DIMTFILLCLR
 70
0
  9
$DIMARCSYM
 70
0
  9
$DIMLTYPE
  6

  9
$DIMLTEX1
  6

  9
$DIMLTEX2
  6

  9
$DIMTXTDIRECTION
 70
0
  9
$LUNITS
 70
2
  9
$LUPREC
 70
4
  9
$SKETCHINC
 40
1.0
  9
$FILLETRAD
 40
10.0
  9
$AUNITS
 70
0
  9
$AUPREC
 70
2
  9
$MENU
  1
.
  9
$ELEVATION
 40
0.0
  9
$PELEVATION
 40
0.0
  9
$THICKNESS
 40
0.0
  9
$LIMCHECK
 70
0
  9
$CHAMFERA
 40
0.0
  9
$CHAMFERB
 40
0.0
  9
$CHAMFERC
 40
0.0
  9
$CHAMFERD
 40
0.0
  9
$SKPOLY
 70
0
  9
$TDCREATE
 40
2461140.590150463
  9
$TDUCREATE
 40
2458532.153996898
  9
$TDUPDATE
 40
2461140.590150463
  9
$TDUUPDATE
 40
2458532.1544311
  9
$TDINDWG
 40
0.0
  9
$TDUSRTIMER
 40
0.0
  9
$USRTIMER
 70
1
  9
$ANGBASE
 50
0.0
  9
$ANGDIR
 70
0
  9
$PDMODE
 70
0
  9
$PDSIZE
 40
0.0
  9
$PLINEWID
 40
0.0
  9
$SPLFRAME
 70
0
  9
$SPLINETYPE
 70
6
  9
$SPLINESEGS
 70
8
  9
$HANDSEED
  5
3C
  9
$SURFTAB1
 70
6
  9
$SURFTAB2
 70
6
  9
$SURFTYPE
 70
6
  9
$SURFU
 70
6
  9
$SURFV
 70
6
  9
$UCSBASE
  2

  9
$UCSNAME
  2

  9
$UCSORG
 10
0.0
 20
0.0
 30
0.0
  9
$UCSXDIR
 10
1.0
 20
0.0
 30
0.0
  9
$UCSYDIR
 10
0.0
 20
1.0
 30
0.0
  9
$UCSORTHOREF
  2

  9
$UCSORTHOVIEW
 70
0
  9
$UCSORGTOP
 10
0.0
 20
0.0
 30
0.0
  9
$UCSORGBOTTOM
 10
0.0
 20
0.0
 30
0.0
  9
$UCSORGLEFT
 10
0.0
 20
0.0
 30
0.0
  9
$UCSORGRIGHT
 10
0.0
 20
0.0
 30
0.0
  9
$UCSORGFRONT
 10
0.0
 20
0.0
 30
0.0
  9
$UCSORGBACK
 10
0.0
 20
0.0
 30
0.0
  9
$PUCSBASE
  2

  9
$PUCSNAME
  2

  9
$PUCSORG
 10
0.0
 20
0.0
 30
0.0
  9
$PUCSXDIR
 10
1.0
 20
0.0
 30
0.0
  9
$PUCSYDIR
 10
0.0
 20
1.0
 30
0.0
  9
$PUCSORTHOREF
  2

  9
$PUCSORTHOVIEW
 70
0
  9
$PUCSORGTOP
 10
0.0
 20
0.0
 30
0.0
  9
$PUCSORGBOTTOM
 10
0.0
 20
0.0
 30
0.0
  9
$PUCSORGLEFT
 10
0.0
 20
0.0
 30
0.0
  9
$PUCSORGRIGHT
 10
0.0
 20
0.0
 30
0.0
  9
$PUCSORGFRONT
 10
0.0
 20
0.0
 30
0.0
  9
$PUCSORGBACK
 10
0.0
 20
0.0
 30
0.0
  9
$USERI1
 70
0
  9
$USERI2
 70
0
  9
$USERI3
 70
0
  9
$USERI4
 70
0
  9
$USERI5
 70
0
  9
$USERR1
 40
0.0
  9
$USERR2
 40
0.0
  9
$USERR3
 40
0.0
  9
$USERR4
 40
0.0
  9
$USERR5
 40
0.0
  9
$WORLDVIEW
 70
1
  9
$SHADEDGE
 70
3
  9
$SHADEDIF
 70
70
  9
$TILEMODE
 70
1
  9
$MAXACTVP
 70
64
  9
$PINSBASE
 10
0.0
 20
0.0
 30
0.0
  9
$PLIMCHECK
 70
0
  9
$PEXTMIN
 10
1e+20
 20
1e+20
 30
1e+20
  9
$PEXTMAX
 10
-1e+20
 20
-1e+20
 30
-1e+20
  9
$PLIMMIN
 10
0.0
 20
0.0
  9
$PLIMMAX
 10
420.0
 20
297.0
  9
$UNITMODE
 70
0
  9
$VISRETAIN
 70
1
  9
$PLINEGEN
 70
0
  9
$PSLTSCALE
 70
1
  9
$TREEDEPTH
 70
3020
  9
$CMLSTYLE
  2
Standard
  9
$CMLJUST
 70
0
  9
$CMLSCALE
 40
20.0
  9
$PROXYGRAPHICS
 70
1
  9
$MEASUREMENT
 70
1
  9
$CELWEIGHT
370
-1
  9
$ENDCAPS
280
0
  9
$JOINSTYLE
280
0
  9
$LWDISPLAY
290
0
  9
$INSUNITS
 70
6
  9
$HYPERLINKBASE
  1

  9
$STYLESHEET
  1

  9
$XEDIT
290
1
  9
$CEPSNTYPE
380
0
  9
$PSTYLEMODE
290
1
  9
$FINGERPRINTGUID
  2
{86AB9F45-20AA-45E4-95C4-A9732AB2F847}
  9
$VERSIONGUID
  2
{E3AB709C-37B2-45BB-A1C7-E460BA0EB6EE}
  9
$EXTNAMES
290
1
  9
$PSVPSCALE
 40
0.0
  9
$OLESTARTUP
290
0
  9
$SORTENTS
280
127
  9
$INDEXCTL
280
0
  9
$HIDETEXT
280
1
  9
$XCLIPFRAME
280
1
  9
$HALOGAP
280
0
  9
$OBSCOLOR
 70
257
  9
$OBSLTYPE
280
0
  9
$INTERSECTIONDISPLAY
280
0
  9
$INTERSECTIONCOLOR
 70
257
  9
$DIMASSOC
280
2
  9
$PROJECTNAME
  1

  9
$CAMERADISPLAY
290
0
  9
$LENSLENGTH
 40
50.0
  9
$CAMERAHEIGHT
 40
0.0
  9
$STEPSPERSEC
 40
24.0
  9
$STEPSIZE
 40
100.0
  9
$3DDWFPREC
 40
2.0
  9
$PSOLWIDTH
 40
0.005
  9
$PSOLHEIGHT
 40
0.08
  9
$LOFTANG1
 40
1.570796326795
  9
$LOFTANG2
 40
1.570796326795
  9
$LOFTMAG1
 40
0.0
  9
$LOFTMAG2
 40
0.0
  9
$LOFTPARAM
 70
7
  9
$LOFTNORMALS
280
1
  9
$LATITUDE
 40
37.795
  9
$LONGITUDE
 40
-122.394
  9
$NORTHDIRECTION
 40
0.0
  9
$TIMEZONE
 70
-8000
  9
$LIGHTGLYPHDISPLAY
280
1
  9
$TILEMODELIGHTSYNCH
280
1
  9
$CMATERIAL
347
20
  9
$SOLIDHIST
280
0
  9
$SHOWHIST
280
1
  9
$DWFFRAME
280
2
  9
$DGNFRAME
280
2
  9
$REALWORLDSCALE
290
1
  9
$INTERFERECOLOR
 62
256
  9
$CSHADOW
280
0
  9
$SHADOWPLANELOCATION
 40
0.0
  0
ENDSEC
  0
SECTION
  2
CLASSES
  0
CLASS
  1
ACDBDICTIONARYWDFLT
  2
AcDbDictionaryWithDefault
  3
ObjectDBX Classes
 90
0
 91
0
280
0
281
0
  0
CLASS
  1
SUN
  2
AcDbSun
  3
SCENEOE
 90
1153
 91
0
280
0
281
0
  0
CLASS
  1
VISUALSTYLE
  2
AcDbVisualStyle
  3
ObjectDBX Classes
 90
4095
 91
0
280
0
281
0
  0
CLASS
  1
MATERIAL
  2
AcDbMaterial
  3
ObjectDBX Classes
 90
1153
 91
0
280
0
281
0
  0
CLASS
  1
SCALE
  2
AcDbScale
  3
ObjectDBX Classes
 90
1153
 91
0
280
0
281
0
  0
CLASS
  1
TABLESTYLE
  2
AcDbTableStyle
  3
ObjectDBX Classes
 90
4095
 91
0
280
0
281
0
  0
CLASS
  1
MLEADERSTYLE
  2
AcDbMLeaderStyle
  3
ACDB_MLEADERSTYLE_CLASS
 90
4095
 91
0
280
0
281
0
  0
CLASS
  1
DICTIONARYVAR
  2
AcDbDictionaryVar
  3
ObjectDBX Classes
 90
0
 91
0
280
0
281
0
  0
CLASS
  1
CELLSTYLEMAP
  2
AcDbCellStyleMap
  3
ObjectDBX Classes
 90
1152
 91
0
280
0
281
0
  0
CLASS
  1
MENTALRAYRENDERSETTINGS
  2
AcDbMentalRayRenderSettings
  3
SCENEOE
 90
1024
 91
0
280
0
281
0
  0
CLASS
  1
ACDBDETAILVIEWSTYLE
  2
AcDbDetailViewStyle
  3
ObjectDBX Classes
 90
1025
 91
0
280
0
281
0
  0
CLASS
  1
ACDBSECTIONVIEWSTYLE
  2
AcDbSectionViewStyle
  3
ObjectDBX Classes
 90
1025
 91
0
280
0
281
0
  0
CLASS
  1
RASTERVARIABLES
  2
AcDbRasterVariables
  3
ISM
 90
0
 91
0
280
0
281
0
  0
CLASS
  1
LAYOUT
  2
AcDbLayout
  3
ObjectDBX Classes
 90
0
 91
0
280
0
281
0
  0
CLASS
  1
ACDBPLACEHOLDER
  2
AcDbPlaceHolder
  3
ObjectDBX Classes
 90
0
 91
0
280
0
281
0
  0
ENDSEC
  0
SECTION
  2
TABLES
  0
TABLE
  2
VPORT
  5
8
330
0
100
AcDbSymbolTable
 70
1
  0
VPORT
  5
23
330
8
100
AcDbSymbolTableRecord
100
AcDbViewportTableRecord
  2
*Active
 70
0
 10
0.0
 20
0.0
 11
1.0
 21
1.0
 12
0.0
 22
0.0
 13
0.0
 23
0.0
 14
0.5
 24
0.5
 15
0.5
 25
0.5
 16
0.0
 26
0.0
 36
1.0
 17
0.0
 27
0.0
 37
0.0
 40
1000.0
 41
1.34
 42
50.0
 43
0.0
 44
0.0
 50
0.0
 51
0.0
 71
0
 72
1000
 73
1
 74
3
 75
0
 76
0
 77
0
 78
0
281
0
 65
0
146
0.0
  0
ENDTAB
  0
TABLE
  2
LTYPE
  5
2
330
0
100
AcDbSymbolTable
 70
3
  0
LTYPE
  5
24
330
2
100
AcDbSymbolTableRecord
100
AcDbLinetypeTableRecord
  2
ByBlock
 70
0
  3

 72
65
 73
0
 40
0.0
  0
LTYPE
  5
25
330
2
100
AcDbSymbolTableRecord
100
AcDbLinetypeTableRecord
  2
ByLayer
 70
0
  3

 72
65
 73
0
 40
0.0
  0
LTYPE
  5
26
330
2
100
AcDbSymbolTableRecord
100
AcDbLinetypeTableRecord
  2
Continuous
 70
0
  3

 72
65
 73
0
 40
0.0
  0
ENDTAB
  0
TABLE
  2
LAYER
  5
1
330
0
100
AcDbSymbolTable
 70
2
  0
LAYER
  5
27
330
1
100
AcDbSymbolTableRecord
100
AcDbLayerTableRecord
  2
0
 70
0
 62
7
  6
Continuous
370
-3
390
13
347
21
  0
LAYER
  5
28
330
1
100
AcDbSymbolTableRecord
100
AcDbLayerTableRecord
  2
Defpoints
 70
0
 62
7
  6
Continuous
290
0
370
-3
390
13
347
21
  0
ENDTAB
  0
TABLE
  2
STYLE
  5
5
330
0
100
AcDbSymbolTable
 70
1
  0
STYLE
  5
29
330
5
100
AcDbSymbolTableRecord
100
AcDbTextStyleTableRecord
  2
Standard
 70
0
 40
0.0
 41
1.0
 50
0.0
 71
0
 42
2.5
  3
txt
  4

  0
ENDTAB
  0
TABLE
  2
VIEW
  5
7
330
0
100
AcDbSymbolTable
 70
0
  0
ENDTAB
  0
TABLE
  2
UCS
  5
6
330
0
100
AcDbSymbolTable
 70
0
  0
ENDTAB
  0
TABLE
  2
APPID
  5
3
330
0
100
AcDbSymbolTable
 70
3
  0
APPID
  5
2A
330
3
100
AcDbSymbolTableRecord
100
AcDbRegAppTableRecord
  2
ACAD
 70
0
  0
APPID
  5
39
330
3
100
AcDbSymbolTableRecord
100
AcDbRegAppTableRecord
  2
HATCHBACKGROUNDCOLOR
 70
0
  0
APPID
  5
3A
330
3
100
AcDbSymbolTableRecord
100
AcDbRegAppTableRecord
  2
EZDXF
 70
0
  0
ENDTAB
  0
TABLE
  2
DIMSTYLE
  5
4
330
0
100
AcDbSymbolTable
 70
1
100
AcDbDimStyleTable
  0
DIMSTYLE
105
2B
330
4
100
AcDbSymbolTableRecord
100
AcDbDimStyleTableRecord
  2
Standard
 70
0
 40
1.0
 41
2.5
 42
0.625
 43
3.75
 44
1.25
 45
0.0
 46
0.0
 47
0.0
 48
0.0
 49
2.5
140
2.5
141
2.5
142
0.0
143
0.03937007874
144
1.0
145
0.0
146
1.0
147
0.625
148
0.0
 69
0
 70
0
 71
0
 72
0
 73
0
 74
0
 75
0
 76
0
 77
1
 78
8
 79
3
170
0
171
3
172
1
173
0
174
0
175
0
176
0
177
0
178
0
179
2
271
2
272
2
273
2
274
3
275
0
276
0
277
2
278
44
279
0
280
0
281
0
282
0
283
0
284
8
285
0
286
0
288
0
289
3
290
0
371
-2
372
-2
  0
ENDTAB
  0
TABLE
  2
BLOCK_RECORD
  5
9
330
0
100
AcDbSymbolTable
 70
2
  0
BLOCK_RECORD
  5
17
330
9
100
AcDbSymbolTableRecord
100
AcDbBlockTableRecord
  2
*Model_Space
340
1A
 70
0
280
1
281
0
  0
BLOCK_RECORD
  5
1B
330
9
100
AcDbSymbolTableRecord
100
AcDbBlockTableRecord
  2
*Paper_Space
340
1E
 70
0
280
1
281
0
  0
ENDTAB
  0
ENDSEC
  0
SECTION
  2
BLOCKS
  0
BLOCK
  5
18
330
17
100
AcDbEntity
  8
0
100
AcDbBlockBegin
  2
*Model_Space
 70
0
 10
0.0
 20
0.0
 30
0.0
  3
*Model_Space
  1

  0
ENDBLK
  5
19
330
17
100
AcDbEntity
  8
0
100
AcDbBlockEnd
  0
BLOCK
  5
1C
330
1B
100
AcDbEntity
  8
0
100
AcDbBlockBegin
  2
*Paper_Space
 70
0
 10
0.0
 20
0.0
 30
0.0
  3
*Paper_Space
  1

  0
ENDBLK
  5
1D
330
1B
100
AcDbEntity
  8
0
100
AcDbBlockEnd
  0
ENDSEC
  0
SECTION
  2
ENTITIES
  0
LWPOLYLINE
  5
2F
330
17
100
AcDbEntity
  8
0
100
AcDbPolyline
 90
1089
 70
0
 10
145.573496
 20
-121.52884
 10
145.52599800000002
 20
-121.279158
 10
145.47723
 20
-121.02972999999999
 10
145.427192
 20
-120.78055599999999
 10
145.37563
 20
-120.53163599999999
 10
145.322798
 20
-120.28271599999998
 10
145.26869600000003
 20
-120.03404999999998
 10
145.21332400000003
 20
-119.78563799999998
 10
145.15668200000005
 20
-119.53747999999999
 10
145.09877000000006
 20
-119.28957599999998
 10
145.03958800000007
 20
-119.04167199999999
 10
144.97913600000007
 20
-118.79402199999998
 10
144.91741400000004
 20
-118.54662599999999
 10
144.85442200000003
 20
-118.29948399999998
 10
144.79016000000001
 20
-118.05234199999998
 10
144.72462800000002
 20
-117.80545399999998
 10
144.657826
 20
-117.55881999999998
 10
144.589754
 20
-117.31243999999998
 10
144.520412
 20
-117.06605999999996
 10
144.45005399999997
 20
-116.81993399999998
 10
144.37842599999996
 20
-116.57406199999997
 10
144.30552799999995
 20
-116.32844399999998
 10
144.23161399999995
 20
-116.08282599999997
 10
144.15642999999994
 20
-115.83746199999997
 10
144.08022999999994
 20
-115.59235199999998
 10
144.00275999999997
 20
-115.34749599999998
 10
143.92427399999997
 20
-115.10263999999998
 10
143.84451799999997
 20
-114.85803799999998
 10
143.76374599999997
 20
-114.61368999999998
 10
143.681704
 20
-114.36959599999997
 10
143.59864599999997
 20
-114.12550199999997
 10
143.514572
 20
-113.88166199999998
 10
143.42922799999997
 20
-113.63807599999997
 10
143.34286799999998
 20
-113.39474399999996
 10
143.25549199999995
 20
-113.15141199999997
 10
143.16709999999998
 20
-112.90833399999997
 10
143.07769199999998
 20
-112.66550999999995
 10
142.987014
 20
-112.42293999999997
 10
142.89531999999997
 20
-112.18036999999997
 10
142.80261
 20
-111.93805399999997
 10
142.70888399999998
 20
-111.69599199999998
 10
142.61414199999996
 20
-111.45392999999997
 10
142.51838399999997
 20
-111.21212199999998
 10
142.42186399999997
 20
-110.97056799999997
 10
142.32432799999998
 20
-110.72926799999998
 10
142.22577599999997
 20
-110.48796799999998
 10
142.12620799999996
 20
-110.24692199999997
 10
142.02562399999997
 20
-110.00612999999998
 10
141.92427799999996
 20
-109.76533799999999
 10
141.82191599999996
 20
-109.52479999999998
 10
141.71853799999994
 20
-109.28451599999998
 10
141.61439799999997
 20
-109.04448599999998
 10
141.50924199999994
 20
-108.80445599999999
 10
141.40332399999994
 20
-108.56467999999998
 10
141.29638999999995
 20
-108.32515799999999
 10
141.18869399999994
 20
-108.08563599999998
 10
141.07998199999994
 20
-107.84636799999998
 10
140.97050799999994
 20
-107.60735399999999
 10
140.86001799999994
 20
-107.36833999999999
 10
140.74876599999996
 20
-107.12957999999999
 10
140.63675199999994
 20
-106.89107399999999
 10
140.52397599999995
 20
-106.652822
 10
140.41018399999996
 20
-106.41457
 10
140.29562999999996
 20
-106.176572
 10
140.18031399999995
 20
-105.938828
 10
140.06652199999996
 20
-105.705148
 10
139.95399999999998
 20
-105.474262
 10
139.84274799999997
 20
-105.24616999999999
 10
139.73276599999997
 20
-105.020618
 10
139.62405399999997
 20
-104.797606
 10
139.51686599999996
 20
-104.57687999999999
 10
139.41094799999996
 20
-104.35843999999999
 10
139.30629999999996
 20
-104.14228599999998
 10
139.20292199999994
 20
-103.92816399999998
 10
139.10081399999993
 20
-103.71581999999998
 10
138.99997599999992
 20
-103.50525399999998
 10
138.9004079999999
 20
-103.29646599999998
 10
138.8021099999999
 20
-103.08920199999999
 10
138.70508199999995
 20
-102.88346199999998
 10
138.60932399999996
 20
-102.67899199999998
 10
138.51483599999995
 20
-102.47579199999998
 10
138.42161799999997
 20
-102.27360799999998
 10
138.32966999999996
 20
-102.07243999999999
 10
138.23873799999998
 20
-101.87228799999998
 10
138.149076
 20
-101.67289799999998
 10
138.060684
 20
-101.47401599999998
 10
137.97356200000002
 20
-101.27589599999999
 10
137.88771000000003
 20
-101.07802999999998
 10
137.80312800000004
 20
-100.88041799999998
 10
137.71981600000004
 20
-100.68305999999998
 10
137.63777400000006
 20
-100.48570199999999
 10
137.55674800000006
 20
-100.288344
 10
137.47699200000008
 20
-100.09098599999999
 10
137.39850600000008
 20
-99.893374
 10
137.3212900000001
 20
-99.69525399999999
 10
137.2453440000001
 20
-99.496626
 10
137.1704140000001
 20
-99.29749
 10
137.09675400000012
 20
-99.097592
 10
137.02436400000013
 20
-98.896932
 10
136.95324400000013
 20
-98.695256
 10
136.88314000000014
 20
-98.492564
 10
136.81430600000016
 20
-98.28860200000001
 10
136.74674200000015
 20
-98.08337
 10
136.68019400000017
 20
-97.876614
 10
136.6149160000002
 20
-97.668334
 10
136.5509080000002
 20
-97.45853
 10
136.48791600000018
 20
-97.24694799999999
 10
136.42619400000018
 20
-97.033334
 10
136.36574200000015
 20
-96.81794199999999
 10
136.30630600000015
 20
-96.60026399999998
 10
136.24814000000015
 20
-96.38029999999998
 10
136.19124400000013
 20
-96.15804999999999
 10
136.13536400000012
 20
-95.93351399999997
 10
136.0807540000001
 20
-95.70618399999998
 10
136.0271600000001
 20
-95.47631399999999
 10
135.9748360000001
 20
-95.24364999999999
 10
135.92352800000012
 20
-95.007938
 10
135.87349000000012
 20
-94.769432
 10
135.8244680000001
 20
-94.52762399999999
 10
135.7767160000001
 20
-94.28251399999999
 10
135.72998000000013
 20
-94.03410199999999
 10
135.68451400000012
 20
-93.78213399999999
 10
135.64006400000014
 20
-93.52660999999999
 10
135.59688400000016
 20
-93.267276
 10
135.55472000000015
 20
-93.00413199999998
 10
135.51382600000014
 20
-92.737178
 10
135.47394800000015
 20
-92.46615999999999
 10
135.43508600000013
 20
-92.19082399999999
 10
135.39749400000014
 20
-91.91142399999998
 10
135.39419200000012
 20
-91.88805599999999
 10
135.39038200000013
 20
-91.86494199999999
 10
135.38606400000012
 20
-91.84208199999999
 10
135.3812380000001
 20
-91.81972999999999
 10
135.3759040000001
 20
-91.797632
 10
135.3700620000001
 20
-91.77578799999999
 10
135.3637120000001
 20
-91.75419799999999
 10
135.3568540000001
 20
-91.73311599999998
 10
135.3497420000001
 20
-91.71228799999999
 10
135.3421220000001
 20
-91.69171399999998
 10
135.3339940000001
 20
-91.67164799999998
 10
135.3253580000001
 20
-91.65183599999999
 10
135.3164680000001
 20
-91.63227799999999
 10
135.3070700000001
 20
-91.61322799999999
 10
135.2971640000001
 20
-91.59443199999998
 10
135.2870040000001
 20
-91.57614399999999
 10
135.2763360000001
 20
-91.55810999999999
 10
135.2654140000001
 20
-91.54058399999998
 10
135.25398400000012
 20
-91.52331199999998
 10
135.2423000000001
 20
-91.50654799999998
 10
135.2301080000001
 20
-91.49003799999998
 10
135.2176620000001
 20
-91.47403599999998
 10
135.2047080000001
 20
-91.458542
 10
135.19150000000008
 20
-91.44330199999999
 10
135.1780380000001
 20
-91.42857
 10
135.1640680000001
 20
-91.414346
 10
135.1498440000001
 20
-91.400376
 10
135.1353660000001
 20
-91.386914
 10
135.12063400000008
 20
-91.37396
 10
135.1053940000001
 20
-91.36151400000001
 10
135.08990000000009
 20
-91.34932200000002
 10
135.07415200000008
 20
-91.33763800000001
 10
135.0581500000001
 20
-91.32646200000002
 10
135.0418940000001
 20
-91.31579400000003
 10
135.0253840000001
 20
-91.30563400000001
 10
135.0086200000001
 20
-91.29598200000001
 10
134.99160200000009
 20
-91.28683800000002
 10
134.9743300000001
 20
-91.27820200000002
 10
134.9568040000001
 20
-91.26982000000001
 10
134.93902400000007
 20
-91.26194600000001
 10
134.92099000000007
 20
-91.25458
 10
134.90270200000006
 20
-91.24797600000001
 10
134.88416000000007
 20
-91.24188000000001
 10
134.8656180000001
 20
-91.236292
 10
134.8468220000001
 20
-91.23121200000001
 10
134.8277720000001
 20
-91.22664000000002
 10
134.8084680000001
 20
-91.22257600000002
 10
134.78916400000008
 20
-91.21902000000001
 10
134.76960600000007
 20
-91.21597200000001
 10
134.75004800000008
 20
-91.21343200000001
 10
134.73023600000008
 20
-91.21165400000001
 10
134.7101700000001
 20
-91.21038400000002
 10
134.6901040000001
 20
-91.20962200000002
 10
134.6697840000001
 20
-91.20962200000002
 10
134.64946400000008
 20
-91.21013000000002
 10
134.62889000000007
 20
-91.21114600000003
 10
134.6083160000001
 20
-91.21292400000003
 10
134.58774200000008
 20
-91.21521000000003
 10
134.56691400000008
 20
-91.21800400000004
 10
134.5460860000001
 20
-91.22156000000004
 10
134.52525800000006
 20
-91.22562400000005
 10
134.50443000000007
 20
-91.23045000000005
 10
134.4833480000001
 20
-91.23578400000005
 10
134.46226600000008
 20
-91.24188000000005
 10
134.1381620000001
 20
-91.33865400000005
 10
133.8132960000001
 20
-91.43492000000005
 10
133.4879220000001
 20
-91.53093200000005
 10
133.1620400000001
 20
-91.62669000000005
 10
132.83565000000013
 20
-91.72194000000005
 10
132.50849800000012
 20
-91.81693600000006
 10
132.18083800000014
 20
-91.91167800000005
 10
131.85267000000013
 20
-92.00616600000005
 10
131.52399400000013
 20
-92.10040000000005
 10
131.1948100000001
 20
-92.19438000000005
 10
130.86537200000012
 20
-92.28810600000006
 10
130.53542600000011
 20
-92.38157800000006
 10
130.2049720000001
 20
-92.47479600000007
 10
129.8742640000001
 20
-92.56776000000006
 10
129.5430480000001
 20
-92.66047000000006
 10
129.2113240000001
 20
-92.75292600000006
 10
128.8793460000001
 20
-92.84538200000004
 10
128.5471140000001
 20
-92.93758400000004
 10
128.2143740000001
 20
-93.02953200000006
 10
127.8813800000001
 20
-93.12148000000006
 10
127.54813200000011
 20
-93.21317400000005
 10
127.21463000000011
 20
-93.30461400000006
 10
126.8808740000001
 20
-93.39605400000006
 10
126.5468640000001
 20
-93.48724000000006
 10
126.21260000000011
 20
-93.57842600000005
 10
125.8780820000001
 20
-93.66961200000004
 10
125.54331000000012
 20
-93.76054400000005
 10
125.2082840000001
 20
-93.85147600000005
 10
124.8732580000001
 20
-93.94240800000006
 10
124.53797800000011
 20
-94.03334000000005
 10
124.20269800000011
 20
-94.12401800000006
 10
123.8671640000001
 20
-94.21469600000007
 10
123.53163000000009
 20
-94.30537400000007
 10
123.19609600000008
 20
-94.39605200000008
 10
122.86030800000009
 20
-94.4867300000001
 10
122.52452000000008
 20
-94.57740800000009
 10
122.18873200000009
 20
-94.6680860000001
 10
121.85294400000008
 20
-94.75901800000011
 10
121.51715600000009
 20
-94.8499500000001
 10
121.18136800000009
 20
-94.9408820000001
 10
120.84558000000008
 20
-95.03181400000011
 10
120.50979200000009
 20
-95.1230000000001
 10
120.17400400000008
 20
-95.2141860000001
 10
119.83847000000007
 20
-95.30537200000009
 10
119.50293600000006
 20
-95.3968120000001
 10
119.16765600000006
 20
-95.4882520000001
 10
118.83237600000007
 20
-95.57994600000009
 10
118.49735000000007
 20
-95.6716400000001
 10
118.16232400000007
 20
-95.7635880000001
 10
117.82755200000007
 20
-95.8557900000001
 10
117.49303400000007
 20
-95.9479920000001
 10
117.15877000000008
 20
-96.0404480000001
 10
116.82476000000007
 20
-96.1331580000001
 10
116.49075000000008
 20
-96.22612200000009
 10
116.15724800000008
 20
-96.31908600000008
 10
115.82400000000007
 20
-96.41230400000009
 10
115.49100600000008
 20
-96.5057760000001
 10
115.15826600000008
 20
-96.5995020000001
 10
114.82578000000007
 20
-96.6934820000001
 10
114.49380200000007
 20
-96.7877160000001
 10
114.16207800000008
 20
-96.8822040000001
 10
113.83086200000008
 20
-96.97720000000011
 10
113.49990000000008
 20
-97.0724500000001
 10
113.16944600000008
 20
-97.1679540000001
 10
113.15649200000009
 20
-97.1717640000001
 10
113.14379200000008
 20
-97.1758280000001
 10
113.1313460000001
 20
-97.18040000000009
 10
113.1189000000001
 20
-97.1852260000001
 10
113.1067080000001
 20
-97.19030600000009
 10
113.09477000000008
 20
-97.1956400000001
 10
113.0830860000001
 20
-97.20122800000009
 10
113.07140200000009
 20
-97.2070700000001
 10
113.05997200000009
 20
-97.2131660000001
 10
113.0487960000001
 20
-97.2195160000001
 10
113.03787400000009
 20
-97.2261200000001
 10
113.0269520000001
 20
-97.23297800000009
 10
113.0162840000001
 20
-97.2400900000001
 10
113.0058700000001
 20
-97.2474560000001
 10
112.99571000000009
 20
-97.25507600000009
 10
112.98580400000009
 20
-97.26295000000009
 10
112.9758980000001
 20
-97.27082400000009
 10
112.9662460000001
 20
-97.27895200000009
 10
112.9568480000001
 20
-97.28733400000009
 10
112.9477040000001
 20
-97.2959700000001
 10
112.9388140000001
 20
-97.30486000000009
 10
112.9301780000001
 20
-97.3137500000001
 10
112.92179600000009
 20
-97.3228940000001
 10
112.91341400000009
 20
-97.3322920000001
 10
112.90528600000009
 20
-97.3419440000001
 10
112.89741200000009
 20
-97.3515960000001
 10
112.8897920000001
 20
-97.3615020000001
 10
112.8824260000001
 20
-97.3716620000001
 10
112.87531400000009
 20
-97.38182200000011
 10
112.8684560000001
 20
-97.39223600000011
 10
112.8618520000001
 20
-97.4029040000001
 10
112.8555020000001
 20
-97.4135720000001
 10
112.8494060000001
 20
-97.4244940000001
 10
112.8435640000001
 20
-97.4354160000001
 10
112.8379760000001
 20
-97.4465920000001
 10
112.83264200000009
 20
-97.45776800000009
 10
112.8275620000001
 20
-97.46919800000009
 10
112.82273600000009
 20
-97.4806280000001
 10
112.8181640000001
 20
-97.4923120000001
 10
112.8138460000001
 20
-97.5039960000001
 10
112.8097820000001
 20
-97.5159340000001
 10
112.8059720000001
 20
-97.5278720000001
 10
112.8024160000001
 20
-97.5400640000001
 10
112.7993680000001
 20
-97.55225600000011
 10
112.79657400000009
 20
-97.56444800000011
 10
112.7940340000001
 20
-97.57689400000011
 10
112.7917480000001
 20
-97.58934000000009
 10
112.7897160000001
 20
-97.60178600000009
 10
112.7879380000001
 20
-97.61423200000009
 10
112.78641400000011
 20
-97.6269320000001
 10
112.7853980000001
 20
-97.63963200000009
 10
112.7846360000001
 20
-97.6523320000001
 10
112.7841280000001
 20
-97.6650320000001
 10
112.78387400000011
 20
-97.67798600000009
 10
112.78387400000011
 20
-97.6909400000001
 10
112.78438200000011
 20
-97.70389400000009
 10
112.7851440000001
 20
-97.71684800000008
 10
112.78616000000011
 20
-97.72980200000008
 10
112.7874300000001
 20
-97.74275600000009
 10
112.7892080000001
 20
-97.75571000000008
 10
112.7912400000001
 20
-97.76866400000007
 10
112.79352600000011
 20
-97.78161800000007
 10
112.79632000000011
 20
-97.79457200000007
 10
112.79936800000011
 20
-97.80752600000007
 10
112.81003600000011
 20
-97.85146800000007
 10
112.82045000000011
 20
-97.89541000000007
 10
112.8306100000001
 20
-97.93960600000005
 10
112.84051600000011
 20
-97.98405600000007
 10
112.85016800000011
 20
-98.02876000000006
 10
112.8595660000001
 20
-98.07371800000007
 10
112.8687100000001
 20
-98.11867600000006
 10
112.8778540000001
 20
-98.16388800000007
 10
112.8867440000001
 20
-98.20935400000006
 10
112.89538000000012
 20
-98.25482000000005
 10
112.90376200000011
 20
-98.30054000000005
 10
112.91189000000011
 20
-98.34626000000006
 10
112.91976400000011
 20
-98.39198000000006
 10
112.9273840000001
 20
-98.43795400000006
 10
112.93475000000011
 20
-98.48392800000005
 10
112.94186200000011
 20
-98.52990200000005
 10
112.94872000000011
 20
-98.57587600000004
 10
112.9555780000001
 20
-98.62210400000005
 10
112.9621820000001
 20
-98.66833200000005
 10
112.9685320000001
 20
-98.71456000000006
 10
112.9746280000001
 20
-98.76078800000006
 10
112.98047000000011
 20
-98.80701600000006
 10
112.9860580000001
 20
-98.85324400000007
 10
112.9913920000001
 20
-98.89921800000006
 10
112.9964720000001
 20
-98.94519200000006
 10
113.0012980000001
 20
-98.99116600000005
 10
113.0058700000001
 20
-99.03714000000005
 10
113.0101880000001
 20
-99.08286000000005
 10
113.0142520000001
 20
-99.12858000000006
 10
113.0180620000001
 20
-99.17404600000005
 10
113.0216180000001
 20
-99.21951200000004
 10
113.0249200000001
 20
-99.26472400000004
 10
113.02796800000009
 20
-99.30993600000004
 10
113.0310160000001
 20
-99.35489400000004
 10
113.0338100000001
 20
-99.39959800000004
 10
113.0363500000001
 20
-99.44430200000004
 10
113.0386360000001
 20
-99.48875200000005
 10
113.0406680000001
 20
-99.53294800000003
 10
113.0424460000001
 20
-99.57689000000003
 10
113.04397000000009
 20
-99.62057800000004
 10
113.04524000000009
 20
-99.66401200000004
 10
113.0462560000001
 20
-99.70719200000005
 10
113.0470180000001
 20
-99.75011800000004
 10
113.04752600000009
 20
-99.79279000000004
 10
113.04778000000009
 20
-99.83520800000004
 10
113.04778000000009
 20
-99.87711800000004
 10
113.04752600000009
 20
-99.91877400000004
 10
113.0470180000001
 20
-99.96017600000005
 10
113.0462560000001
 20
-100.00107000000004
 10
113.04524000000009
 20
-100.04171000000005
 10
113.04397000000009
 20
-100.08184200000005
 10
113.0424460000001
 20
-100.12172000000005
 10
113.0406680000001
 20
-100.16109000000004
 10
113.0386360000001
 20
-100.20020600000004
 10
113.0363500000001
 20
-100.23881400000003
 10
113.0338100000001
 20
-100.27691400000003
 10
113.0310160000001
 20
-100.31450600000004
 10
113.0277140000001
 20
-100.35159000000004
 10
113.0241580000001
 20
-100.38842000000004
 10
113.0203480000001
 20
-100.42474200000002
 10
113.0162840000001
 20
-100.46055600000004
 10
113.0119660000001
 20
-100.49586200000003
 10
113.0073940000001
 20
-100.53040600000004
 10
113.0025680000001
 20
-100.56444200000004
 10
112.9931700000001
 20
-100.62565600000003
 10
112.9830100000001
 20
-100.68585400000005
 10
112.9720880000001
 20
-100.74529000000004
 10
112.9601500000001
 20
-100.80371000000005
 10
112.94745000000009
 20
-100.86136800000004
 10
112.9339880000001
 20
-100.91826400000004
 10
112.9197640000001
 20
-100.97414400000004
 10
112.90477800000009
 20
-101.02926200000005
 10
112.88903000000009
 20
-101.08361800000004
 10
112.8725200000001
 20
-101.13721200000005
 10
112.85524800000009
 20
-101.19004400000006
 10
112.83721400000009
 20
-101.24211400000004
 10
112.81867200000009
 20
-101.29342200000005
 10
112.79936800000009
 20
-101.34396800000005
 10
112.77930200000009
 20
-101.39375200000006
 10
112.75847400000008
 20
-101.44302800000006
 10
112.73713800000009
 20
-101.49154200000005
 10
112.71504000000009
 20
-101.53954800000005
 10
112.69243400000009
 20
-101.58679200000006
 10
112.66906600000009
 20
-101.63352800000006
 10
112.64519000000008
 20
-101.67950200000006
 10
112.6205520000001
 20
-101.72496800000005
 10
112.5954060000001
 20
-101.76992600000005
 10
112.5697520000001
 20
-101.81412200000005
 10
112.54333600000011
 20
-101.85781000000006
 10
112.5164120000001
 20
-101.90099000000006
 10
112.4889800000001
 20
-101.94366200000006
 10
112.4610400000001
 20
-101.98582600000006
 10
112.4325920000001
 20
-102.02748200000006
 10
112.4036360000001
 20
-102.06863000000006
 10
112.3741720000001
 20
-102.10952400000005
 10
112.3442000000001
 20
-102.14991000000005
 10
112.3137200000001
 20
-102.18978800000005
 10
112.2827320000001
 20
-102.22941200000005
 10
112.25123600000009
 20
-102.26852800000005
 10
112.2192320000001
 20
-102.30739000000005
 10
112.18672000000011
 20
-102.34574400000005
 10
112.1539540000001
 20
-102.38384400000005
 10
112.1206800000001
 20
-102.42169000000005
 10
112.0868980000001
 20
-102.45928200000006
 10
112.0528620000001
 20
-102.49636600000005
 10
112.01831800000011
 20
-102.53319600000006
 10
111.9835200000001
 20
-102.56977200000006
 10
111.94821400000009
 20
-102.60609400000004
 10
111.9126540000001
 20
-102.64241600000004
 10
111.8768400000001
 20
-102.67848400000004
 10
111.8405180000001
 20
-102.71429800000004
 10
111.8039420000001
 20
-102.74985800000005
 10
111.76711200000011
 20
-102.78541800000004
 10
111.7300280000001
 20
-102.82072400000004
 10
111.6924360000001
 20
-102.85603000000005
 10
111.6545900000001
 20
-102.89108200000004
 10
111.6164900000001
 20
-102.92613400000003
 10
111.5781360000001
 20
-102.96093200000003
 10
111.5395280000001
 20
-102.99573000000004
 10
111.5006660000001
 20
-103.03052800000003
 10
111.4615500000001
 20
-103.06532600000003
 10
111.4224340000001
 20
-103.10012400000004
 10
111.3830640000001
 20
-103.13492200000003
 10
111.3434400000001
 20
-103.16972000000003
 10
111.30356200000011
 20
-103.20451800000004
 10
111.26368400000011
 20
-103.23931600000003
 10
111.22355200000011
 20
-103.27411400000003
 10
111.18316600000011
 20
-103.30916600000003
 10
111.17021200000012
 20
-103.32085000000002
 10
111.15751200000011
 20
-103.33278800000004
 10
111.14532000000011
 20
-103.34498000000004
 10
111.13363600000011
 20
-103.35742600000003
 10
111.1222060000001
 20
-103.37012600000003
 10
111.11128400000011
 20
-103.38308000000002
 10
111.10061600000012
 20
-103.39628800000003
 10
111.09045600000012
 20
-103.40949600000003
 10
111.08055000000012
 20
-103.42295800000004
 10
111.07115200000013
 20
-103.43667400000002
 10
111.06226200000012
 20
-103.45064400000003
 10
111.05362600000012
 20
-103.46486800000002
 10
111.04549800000012
 20
-103.47909200000002
 10
111.03762400000012
 20
-103.49357000000002
 10
111.03025800000012
 20
-103.50830200000003
 10
111.02340000000012
 20
-103.52303400000002
 10
111.01679600000013
 20
-103.53802000000003
 10
111.01070000000011
 20
-103.55300600000004
 10
111.00485800000011
 20
-103.56824600000003
 10
110.99952400000011
 20
-103.58348600000004
 10
110.99469800000011
 20
-103.59898000000003
 10
110.99012600000012
 20
-103.61447400000003
 10
110.98606200000012
 20
-103.62996800000002
 10
110.98225200000012
 20
-103.64571600000002
 10
110.97895000000013
 20
-103.66146400000002
 10
110.97590200000012
 20
-103.67721200000003
 10
110.97336200000012
 20
-103.69321400000003
 10
110.97133000000012
 20
-103.70921600000003
 10
110.96955200000012
 20
-103.72521800000003
 10
110.96828200000013
 20
-103.74122000000001
 10
110.96726600000012
 20
-103.75722200000001
 10
110.96675800000013
 20
-103.77322400000001
 10
110.96675800000013
 20
-103.78922600000001
 10
110.96701200000011
 20
-103.805228
 10
110.9677740000001
 20
-103.82123
 10
110.96879000000011
 20
-103.837232
 10
110.9703140000001
 20
-103.853234
 10
110.9723460000001
 20
-103.86923599999999
 10
110.97463200000011
 20
-103.88523799999999
 10
110.97742600000011
 20
-103.90123999999999
 10
110.98047400000011
 20
-103.91724199999999
 10
110.98403000000012
 20
-103.93298999999999
 10
110.9878400000001
 20
-103.94873799999999
 10
110.99215800000012
 20
-103.964486
 10
110.99698400000011
 20
-103.97997999999998
 10
111.0020640000001
 20
-103.99547399999999
 10
111.0076520000001
 20
-104.01096799999998
 10
111.01349400000011
 20
-104.02620799999998
 10
111.0198440000001
 20
-104.04144799999997
 10
111.0267020000001
 20
-104.05643399999998
 10
111.0338140000001
 20
-104.07141999999999
 10
111.0414340000001
 20
-104.08615199999998
 10
111.0493080000001
 20
-104.10063
 10
111.05769000000011
 20
-104.11510799999999
 10
111.0663260000001
 20
-104.12933199999999
 10
111.07547000000011
 20
-104.14330199999999
 10
111.08512200000011
 20
-104.15727199999999
 10
111.0950280000001
 20
-104.170988
 10
111.10544200000011
 20
-104.18444999999998
 10
111.11611000000009
 20
-104.19765799999999
 10
111.1272860000001
 20
-104.210612
 10
111.1387160000001
 20
-104.22331199999999
 10
111.1506540000001
 20
-104.23575799999999
 10
111.1631000000001
 20
-104.24794999999999
 10
111.21821800000009
 20
-104.30179799999999
 10
111.27257400000009
 20
-104.355392
 10
111.3261680000001
 20
-104.408986
 10
111.3792540000001
 20
-104.46258
 10
111.4315780000001
 20
-104.516174
 10
111.4833940000001
 20
-104.569768
 10
111.53444800000011
 20
-104.623362
 10
111.58474000000011
 20
-104.676956
 10
111.63452400000011
 20
-104.73055000000001
 10
111.6835460000001
 20
-104.78414400000001
 10
111.7320600000001
 20
-104.83773800000002
 10
111.77981200000009
 20
-104.89133200000002
 10
111.8268020000001
 20
-104.94518000000002
 10
111.8732840000001
 20
-104.99902800000002
 10
111.9190040000001
 20
-105.05287600000001
 10
111.96421600000009
 20
-105.10697800000003
 10
112.0086660000001
 20
-105.16108000000003
 10
112.0526080000001
 20
-105.21543600000003
 10
112.0957880000001
 20
-105.26979200000002
 10
112.13846000000011
 20
-105.32440200000002
 10
112.18037000000011
 20
-105.37926600000002
 10
112.22177200000012
 20
-105.43413000000002
 10
112.26241200000013
 20
-105.48924800000002
 10
112.30254400000013
 20
-105.54462000000002
 10
112.34191400000012
 20
-105.60024600000003
 10
112.38077600000013
 20
-105.65612600000003
 10
112.41887600000011
 20
-105.71226000000003
 10
112.45646800000013
 20
-105.76864800000003
 10
112.49329800000012
 20
-105.82529000000002
 10
112.52962000000011
 20
-105.88218600000002
 10
112.56518000000011
 20
-105.93933600000003
 10
112.6002320000001
 20
-105.99674000000003
 10
112.6345220000001
 20
-106.05465200000003
 10
112.66830400000009
 20
-106.11281800000003
 10
112.70157800000008
 20
-106.17123800000003
 10
112.73409000000008
 20
-106.23016600000004
 10
112.76609400000008
 20
-106.28934800000005
 10
112.79733600000007
 20
-106.34903800000005
 10
112.82807000000007
 20
-106.40898200000004
 10
112.85804200000007
 20
-106.46943400000005
 10
112.88750600000006
 20
-106.53039400000004
 10
112.91646200000005
 20
-106.59160800000004
 10
112.94465600000005
 20
-106.65333000000004
 10
112.97234200000005
 20
-106.71556000000004
 10
112.99952000000006
 20
-106.77829800000005
 10
113.02593600000006
 20
-106.84154400000006
 10
113.05184400000005
 20
-106.90529800000004
 10
113.07724400000005
 20
-106.96956000000004
 10
113.10188200000005
 20
-107.03433000000004
 10
113.12601200000006
 20
-107.09960800000005
 10
113.14938000000005
 20
-107.16539400000005
 10
113.17224000000004
 20
-107.23168800000005
 10
113.19459200000006
 20
-107.29874400000006
 10
113.21643600000006
 20
-107.36630800000006
 10
113.23751800000007
 20
-107.43438000000005
 10
113.25809200000006
 20
-107.50321400000006
 10
113.27815800000006
 20
-107.57255600000006
 10
113.29746200000007
 20
-107.64266000000006
 10
113.31625800000008
 20
-107.71352600000006
 10
113.33454600000007
 20
-107.78490000000006
 10
113.35207200000008
 20
-107.85703600000006
 10
113.36909000000009
 20
-107.92993400000006
 10
113.38560000000008
 20
-108.00334000000005
 10
113.40160200000008
 20
-108.07750800000005
 10
113.41836600000008
 20
-108.15929600000005
 10
113.43462200000008
 20
-108.24083000000006
 10
113.45011600000008
 20
-108.32236400000006
 10
113.46484800000007
 20
-108.40364400000006
 10
113.47907200000007
 20
-108.48492400000006
 10
113.49253400000006
 20
-108.56595000000006
 10
113.50523400000007
 20
-108.64697600000007
 10
113.51742600000007
 20
-108.72774800000006
 10
113.52885600000008
 20
-108.80852000000006
 10
113.53977800000007
 20
-108.88929200000005
 10
113.54993800000008
 20
-108.96981000000005
 10
113.55933600000007
 20
-109.05032800000006
 10
113.56822600000008
 20
-109.13084600000006
 10
113.57635400000008
 20
-109.21111000000005
 10
113.58397400000007
 20
-109.29137400000005
 10
113.59083200000006
 20
-109.37163800000003
 10
113.59718200000006
 20
-109.45190200000003
 10
113.60277000000006
 20
-109.53216600000003
 10
113.60785000000006
 20
-109.61243000000002
 10
113.61216800000005
 20
-109.69269400000002
 10
113.61597800000006
 20
-109.772958
 10
113.61902600000005
 20
-109.853222
 10
113.62156600000004
 20
-109.93348599999999
 10
113.62334400000005
 20
-110.01374999999999
 10
113.62461400000005
 20
-110.09401399999999
 10
113.62512200000005
 20
-110.17427799999997
 10
113.62512200000005
 20
-110.25454199999997
 10
113.62436000000005
 20
-110.33480599999996
 10
113.62309000000005
 20
-110.41506999999996
 10
113.62131200000005
 20
-110.49558799999996
 10
113.61877200000005
 20
-110.57610599999995
 10
113.61572400000006
 20
-110.65662399999997
 10
113.61216800000005
 20
-110.73714199999996
 10
113.60785000000006
 20
-110.81791399999996
 10
113.60302400000005
 20
-110.89868599999996
 10
113.59743600000006
 20
-110.97971199999996
 10
113.59134000000006
 20
-111.06073799999996
 10
113.58473600000005
 20
-111.14176399999997
 10
113.57737000000006
 20
-111.22304399999996
 10
113.56949600000006
 20
-111.30432399999997
 10
113.56111400000005
 20
-111.38585799999997
 10
113.55197000000004
 20
-111.46764599999997
 10
113.54231800000004
 20
-111.54943399999998
 10
113.53215800000004
 20
-111.63147599999996
 10
113.52149000000004
 20
-111.71351799999997
 10
113.51006000000004
 20
-111.79581399999996
 10
113.49812200000004
 20
-111.87836399999996
 10
113.48567600000004
 20
-111.96116799999997
 10
113.47272200000005
 20
-112.04397199999997
 10
113.45900600000004
 20
-112.12702999999998
 10
113.44478200000006
 20
-112.21034199999997
 10
113.43005000000005
 20
-112.29390799999997
 10
113.41481000000006
 20
-112.37772799999996
 10
113.39880800000006
 20
-112.46180199999996
 10
113.38229800000006
 20
-112.54612999999996
 10
113.36528000000006
 20
-112.63071199999997
 10
113.34775400000005
 20
-112.71554799999997
 10
113.32972000000005
 20
-112.80063799999996
 10
113.31117800000006
 20
-112.88598199999997
 10
113.29212800000005
 20
-112.97157999999997
 10
113.27231600000006
 20
-113.05743199999998
 10
113.25199600000006
 20
-113.14353799999998
 10
113.23116800000007
 20
-113.22989799999996
 10
113.20983200000006
 20
-113.31651199999997
 10
113.20754600000006
 20
-113.32616399999998
 10
113.20526000000005
 20
-113.33581599999998
 10
113.20297400000005
 20
-113.34546799999998
 10
113.20094200000005
 20
-113.35511999999999
 10
113.19891000000007
 20
-113.36477199999999
 10
113.19687800000007
 20
-113.37442399999999
 10
113.19510000000007
 20
-113.384076
 10
113.19332200000007
 20
-113.393728
 10
113.19154400000006
 20
-113.40338
 10
113.19002000000008
 20
-113.413032
 10
113.18849600000009
 20
-113.422684
 10
113.18697200000008
 20
-113.432336
 10
113.18570200000009
 20
-113.44198800000001
 10
113.18443200000009
 20
-113.451894
 10
113.1831620000001
 20
-113.4618
 10
113.18189200000009
 20
-113.471706
 10
113.18087600000008
 20
-113.481612
 10
113.17986000000008
 20
-113.49151799999999
 10
113.17884400000008
 20
-113.50142399999999
 10
113.17808200000007
 20
-113.51132999999999
 10
113.17732000000008
 20
-113.52123599999997
 10
113.17655800000009
 20
-113.53114199999997
 10
113.17605000000009
 20
-113.54104799999998
 10
113.17554200000008
 20
-113.55095399999998
 10
113.17503400000008
 20
-113.56085999999996
 10
113.17478000000008
 20
-113.57076599999996
 10
113.17452600000009
 20
-113.58067199999996
 10
113.1742720000001
 20
-113.59057799999995
 10
113.1742720000001
 20
-113.60048399999995
 10
113.1742720000001
 20
-113.61038999999995
 10
113.1742720000001
 20
-113.62029599999995
 10
113.17452600000009
 20
-113.63020199999994
 10
113.17478000000008
 20
-113.64010799999994
 10
113.17503400000008
 20
-113.65001399999994
 10
113.17554200000008
 20
-113.65991999999993
 10
113.17605000000009
 20
-113.66982599999993
 10
113.17655800000009
 20
-113.67973199999993
 10
113.17732000000008
 20
-113.68963799999993
 10
113.17808200000007
 20
-113.69954399999992
 10
113.17884400000008
 20
-113.70944999999992
 10
113.17986000000008
 20
-113.71935599999992
 10
113.18087600000008
 20
-113.7292619999999
 10
113.18189200000009
 20
-113.7391679999999
 10
113.1829080000001
 20
-113.74907399999991
 10
113.1841780000001
 20
-113.75872599999991
 10
113.1854480000001
 20
-113.76837799999991
 10
113.1867180000001
 20
-113.77802999999992
 10
113.18824200000009
 20
-113.78768199999992
 10
113.18976600000008
 20
-113.79733399999992
 10
113.19129000000007
 20
-113.80698599999992
 10
113.19306800000007
 20
-113.81663799999993
 10
113.19484600000007
 20
-113.82628999999993
 10
113.19662400000007
 20
-113.83594199999993
 10
113.19865600000007
 20
-113.84559399999993
 10
113.20068800000007
 20
-113.85524599999994
 10
113.20272000000006
 20
-113.86489799999994
 10
113.20500600000007
 20
-113.87454999999994
 10
113.20729200000007
 20
-113.88420199999995
 10
113.20957800000008
 20
-113.89385399999995
 10
113.21211800000007
 20
-113.90350599999995
 10
113.21465800000007
 20
-113.91315799999995
 10
113.21719800000007
 20
-113.92280999999996
 10
113.21999200000008
 20
-113.93246199999996
 10
113.22278600000008
 20
-113.94185999999995
 10
113.30000200000008
 20
-114.19662199999995
 10
113.37950400000007
 20
-114.45392399999994
 10
113.46129200000007
 20
-114.71401999999995
 10
113.54536600000007
 20
-114.97690999999995
 10
113.63172600000007
 20
-115.24284799999995
 10
113.72011800000007
 20
-115.51208799999996
 10
113.81054200000007
 20
-115.78462999999995
 10
113.90274400000007
 20
-116.06072799999995
 10
113.99697800000007
 20
-116.34063599999995
 10
114.09299000000006
 20
-116.62460799999994
 10
114.19078000000006
 20
-116.91264399999994
 10
114.29009400000007
 20
-117.20499799999995
 10
114.39118600000008
 20
-117.50166999999995
 10
114.49380200000007
 20
-117.80316799999996
 10
114.59768800000006
 20
-118.10923799999995
 10
114.70309800000007
 20
-118.42038799999996
 10
114.80977800000008
 20
-118.73661799999995
 10
114.91772800000008
 20
-119.05818199999996
 10
115.02694800000008
 20
-119.38533399999996
 10
115.13718400000009
 20
-119.71832799999996
 10
115.24843600000008
 20
-120.05716399999996
 10
115.36070400000008
 20
-120.40184199999996
 10
115.47398800000009
 20
-120.75286999999996
 10
115.58803400000009
 20
-121.11024799999996
 10
115.70284200000009
 20
-121.47422999999996
 10
115.8184120000001
 20
-121.84481599999997
 10
115.93449000000008
 20
-122.22251399999996
 10
116.05133000000008
 20
-122.60732399999996
 10
116.16867800000009
 20
-122.99924599999997
 10
116.28628000000009
 20
-123.39878799999995
 10
116.40439000000008
 20
-123.80594999999997
 10
116.52275400000008
 20
-124.22073199999996
 10
116.64137200000008
 20
-124.64364199999996
 10
116.75999000000007
 20
-125.07467999999996
 10
116.87886200000008
 20
-125.51409999999997
 10
116.99773400000008
 20
-125.96190199999997
 10
117.11635200000008
 20
-126.41833999999997
 10
117.23497000000008
 20
-126.88366799999997
 10
117.35333400000007
 20
-127.35813999999996
 10
117.47144400000008
 20
-127.84175599999996
 10
117.58930000000007
 20
-128.33476999999996
 10
117.70664800000007
 20
-128.83718199999996
 10
117.82348800000007
 20
-129.34949999999995
 10
117.93982000000007
 20
-129.87172399999994
 10
118.05564400000007
 20
-130.40385399999997
 10
118.17070600000007
 20
-130.94639799999996
 10
118.28500600000007
 20
-131.49935599999995
 10
118.39854400000007
 20
-132.06298199999998
 10
118.51132000000007
 20
-132.63727599999996
 10
118.62308000000007
 20
-133.22249199999996
 10
118.73382400000007
 20
-133.81888399999994
 10
118.84329800000006
 20
-134.42670599999994
 10
118.95175600000006
 20
-135.04595799999996
 10
119.05894400000007
 20
-135.67689399999995
 10
119.16486200000007
 20
-136.31976799999995
 10
119.26951000000005
 20
-136.97457999999995
 10
119.37263400000006
 20
-137.64158399999994
 10
119.47423400000005
 20
-138.3210339999999
 10
119.57431000000005
 20
-139.01292999999993
 10
119.67260800000005
 20
-139.71752599999994
 10
119.76938200000005
 20
-140.43507599999995
 10
119.86437800000006
 20
-141.16557999999995
 10
119.95734200000005
 20
-141.90954599999992
 10
120.04852800000005
 20
-142.66697399999993
 10
120.05259200000005
 20
-142.6979619999999
 10
120.05767200000005
 20
-142.7286959999999
 10
120.06351400000005
 20
-142.75892199999993
 10
120.07011800000005
 20
-142.78889399999994
 10
120.07748400000006
 20
-142.81835799999993
 10
120.08561200000005
 20
-142.84756799999994
 10
120.09450200000006
 20
-142.87626999999995
 10
120.10415400000007
 20
-142.90471799999995
 10
120.11456800000006
 20
-142.93265799999995
 10
120.12574400000005
 20
-142.96008999999992
 10
120.13768200000005
 20
-142.98726799999991
 10
120.15038200000006
 20
-143.0139379999999
 10
120.16384400000007
 20
-143.0400999999999
 10
120.17781400000007
 20
-143.0657539999999
 10
120.19254600000006
 20
-143.0911539999999
 10
120.20804000000005
 20
-143.1160459999999
 10
120.22404200000005
 20
-143.1404299999999
 10
120.24080600000005
 20
-143.16430599999993
 10
120.25807800000004
 20
-143.1876739999999
 10
120.27585800000004
 20
-143.2105339999999
 10
120.29440000000004
 20
-143.23288599999992
 10
120.31345000000003
 20
-143.2547299999999
 10
120.33300800000004
 20
-143.2760659999999
 10
120.35307400000003
 20
-143.2968939999999
 10
120.37364800000005
 20
-143.31721399999992
 10
120.39473000000005
 20
-143.3370259999999
 10
120.41632000000004
 20
-143.35607599999992
 10
120.43841800000004
 20
-143.3746179999999
 10
120.46102400000004
 20
-143.3926519999999
 10
120.48413800000004
 20
-143.41017799999992
 10
120.50776000000005
 20
-143.4269419999999
 10
120.53163600000005
 20
-143.4431979999999
 10
120.55602000000005
 20
-143.4589459999999
 10
120.58091200000004
 20
-143.4739319999999
 10
120.60605800000005
 20
-143.4884099999999
 10
120.63171200000005
 20
-143.5021259999999
 10
120.65762000000004
 20
-143.5153339999999
 10
120.68378200000004
 20
-143.5277799999999
 10
120.71045200000005
 20
-143.53946399999992
 10
120.73737600000004
 20
-143.5506399999999
 10
120.76455400000005
 20
-143.56105399999993
 10
120.79198600000005
 20
-143.57095999999993
 10
120.81967200000004
 20
-143.5801039999999
 10
120.84786600000004
 20
-143.5884859999999
 10
120.87631400000005
 20
-143.5961059999999
 10
120.90476200000006
 20
-143.6029639999999
 10
120.93346400000006
 20
-143.6093139999999
 10
120.96242000000005
 20
-143.61490199999992
 10
120.99163000000006
 20
-143.61972799999992
 10
121.02109400000005
 20
-143.62379199999992
 10
121.05055800000004
 20
-143.62709399999991
 10
121.08027600000005
 20
-143.62963399999992
 10
121.10999400000006
 20
-143.6314119999999
 10
121.13996600000006
 20
-143.63242799999992
 10
121.16993800000004
 20
-143.6326819999999
 10
121.20016400000006
 20
-143.6321739999999
 10
121.23039000000007
 20
-143.63064999999992
 10
121.26061600000007
 20
-143.62836399999992
 10
121.29109600000007
 20
-143.62531599999994
 10
121.32157600000008
 20
-143.62150599999993
 10
121.35205600000008
 20
-143.61667999999995
 10
121.38253600000007
 20
-143.61109199999993
 10
121.41301600000008
 20
-143.60474199999993
 10
121.44349600000008
 20
-143.59737599999994
 10
121.77115600000009
 20
-143.51609599999992
 10
122.09907000000008
 20
-143.4348159999999
 10
122.42673000000009
 20
-143.35353599999988
 10
122.7543900000001
 20
-143.27225599999989
 10
123.0823040000001
 20
-143.19097599999986
 10
123.4099640000001
 20
-143.10969599999984
 10
123.73762400000011
 20
-143.02841599999985
 10
124.0655380000001
 20
-142.94713599999983
 10
124.39319800000011
 20
-142.8658559999998
 10
124.72085800000012
 20
-142.7845759999998
 10
125.04877200000011
 20
-142.7032959999998
 10
125.37643200000012
 20
-142.62201599999977
 10
125.70409200000012
 20
-142.54073599999975
 10
126.03200600000012
 20
-142.45945599999976
 10
126.35966600000013
 20
-142.37817599999974
 10
126.68732600000013
 20
-142.29689599999972
 10
127.01524000000013
 20
-142.2156159999997
 10
127.34290000000014
 20
-142.1343359999997
 10
127.67056000000014
 20
-142.05305599999969
 10
127.99847400000014
 20
-141.97177599999966
 10
128.32613400000014
 20
-141.89049599999967
 10
128.65379400000015
 20
-141.80921599999965
 10
128.98170800000014
 20
-141.72793599999963
 10
129.30936800000015
 20
-141.6466559999996
 10
129.63702800000016
 20
-141.56537599999962
 10
129.96494200000015
 20
-141.4840959999996
 10
130.29260200000016
 20
-141.40281599999958
 10
130.62051600000018
 20
-141.32153599999958
 10
130.9484300000002
 20
-141.24025599999956
 10
131.27609000000018
 20
-141.15897599999954
 10
131.6040040000002
 20
-141.07769599999955
 10
131.93191800000022
 20
-140.99641599999953
 10
132.2595780000002
 20
-140.9151359999995
 10
132.58749200000022
 20
-140.83385599999949
 10
132.91540600000022
 20
-140.7525759999995
 10
133.24306600000023
 20
-140.67129599999947
 10
133.57098000000025
 20
-140.59001599999945
 10
133.89889400000024
 20
-140.50873599999946
 10
134.22655400000025
 20
-140.42745599999944
 10
134.55446800000024
 20
-140.34617599999942
 10
134.88238200000026
 20
-140.2648959999994
 10
135.21004200000024
 20
-140.1836159999994
 10
135.53795600000026
 20
-140.10233599999938
 10
135.86587000000029
 20
-140.02105599999936
 10
136.19353000000027
 20
-139.93977599999937
 10
136.5214440000003
 20
-139.85849599999935
 10
136.8493580000003
 20
-139.77721599999933
 10
137.1770180000003
 20
-139.6959359999993
 10
137.5049320000003
 20
-139.61465599999931
 10
137.83284600000033
 20
-139.5333759999993
 10
138.1605060000003
 20
-139.45209599999927
 10
138.48842000000033
 20
-139.37081599999928
 10
138.81633400000032
 20
-139.28953599999926
 10
139.14399400000033
 20
-139.20825599999924
 10
139.47190800000035
 20
-139.12697599999922
 10
139.79982200000035
 20
-139.04569599999923
 10
140.12748200000036
 20
-138.9644159999992
 10
140.45539600000035
 20
-138.88313599999918
 10
140.78331000000037
 20
-138.8018559999992
 10
141.11097000000038
 20
-138.72057599999917
 10
141.43888400000037
 20
-138.63929599999915
 10
141.7667980000004
 20
-138.55801599999913
 10
142.09445800000037
 20
-138.47673599999914
 10
142.4223720000004
 20
-138.39545599999911
 10
142.4619960000004
 20
-138.3842799999991
 10
142.50162000000037
 20
-138.37335799999912
 10
142.54099000000036
 20
-138.3626899999991
 10
142.58036000000035
 20
-138.3520219999991
 10
142.61973000000035
 20
-138.3416079999991
 10
142.65884600000035
 20
-138.33144799999909
 10
142.69796200000036
 20
-138.3212879999991
 10
142.73707800000034
 20
-138.3113819999991
 10
142.77619400000034
 20
-138.30147599999913
 10
142.81505600000034
 20
-138.2918239999991
 10
142.85391800000036
 20
-138.28217199999912
 10
142.89278000000036
 20
-138.2727739999991
 10
142.93164200000038
 20
-138.26337599999908
 10
142.97050400000037
 20
-138.25397799999908
 10
143.00936600000037
 20
-138.24457999999908
 10
143.0482280000004
 20
-138.23543599999908
 10
143.0870900000004
 20
-138.2262919999991
 10
143.12595200000038
 20
-138.21714799999913
 10
143.1648140000004
 20
-138.20800399999914
 10
143.20393000000038
 20
-138.19885999999914
 10
143.2430460000004
 20
-138.18971599999915
 10
143.2821620000004
 20
-138.18057199999916
 10
143.3212780000004
 20
-138.1714279999992
 10
143.3606480000004
 20
-138.1622839999992
 10
143.4000180000004
 20
-138.1531399999992
 10
143.43938800000038
 20
-138.14399599999922
 10
143.47901200000035
 20
-138.13485199999926
 10
143.51863600000036
 20
-138.12570799999926
 10
143.55851400000034
 20
-138.11630999999926
 10
143.59839200000036
 20
-138.10691199999923
 10
143.63852400000036
 20
-138.09751399999922
 10
143.67891000000037
 20
-138.08811599999922
 10
143.71929600000036
 20
-138.07846399999923
 10
143.75993600000035
 20
-138.0688119999992
 10
143.80083000000033
 20
-138.0589059999992
 10
143.84197800000035
 20
-138.0489999999992
 10
143.88312600000037
 20
-138.03883999999923
 10
143.92452800000035
 20
-138.02867999999924
 10
143.96618400000037
 20
-138.01826599999922
 10
144.00809400000034
 20
-138.00785199999922
 10
144.05025800000035
 20
-137.9971839999992
 10
144.09267600000038
 20
-137.98626199999921
 10
144.13534800000036
 20
-137.9750859999992
 10
144.17827400000036
 20
-137.9639099999992
 10
144.22145400000036
 20
-137.9524799999992
 10
144.26488800000038
 20
-137.9407959999992
 10
144.30883000000037
 20
-137.9288579999992
 10
144.35302600000037
 20
-137.9166659999992
 10
144.39747600000035
 20
-137.9042199999992
 10
144.44218000000038
 20
-137.89151999999922
 10
144.48739200000037
 20
-137.8785659999992
 10
144.53285800000035
 20
-137.8653579999992
 10
144.57883200000038
 20
-137.85189599999921
 10
144.62506000000036
 20
-137.8381799999992
 10
144.6715420000004
 20
-137.82420999999923
 10
144.71853200000035
 20
-137.8099859999992
 10
144.76603000000037
 20
-137.7952539999992
 10
144.81378200000034
 20
-137.7802679999992
 10
144.86204200000037
 20
-137.76502799999923
 10
144.91055600000038
 20
-137.74927999999923
 10
144.95957800000036
 20
-137.73327799999925
 10
145.0091080000004
 20
-137.71702199999925
 10
145.0591460000004
 20
-137.70025799999925
 10
145.10943800000038
 20
-137.68323999999924
 10
145.14728400000038
 20
-137.67053999999925
 10
145.18513000000038
 20
-137.65783999999925
 10
145.2229760000004
 20
-137.64539399999927
 10
145.2608220000004
 20
-137.63294799999926
 10
145.2986680000004
 20
-137.62075599999926
 10
145.3365140000004
 20
-137.60856399999926
 10
145.3743600000004
 20
-137.59637199999926
 10
145.41195200000038
 20
-137.58417999999926
 10
145.4495440000004
 20
-137.57198799999927
 10
145.4868820000004
 20
-137.55979599999927
 10
145.5242200000004
 20
-137.54760399999927
 10
145.5613040000004
 20
-137.53515799999929
 10
145.5981340000004
 20
-137.52271199999927
 10
145.6347100000004
 20
-137.51001199999928
 10
145.67103200000042
 20
-137.49705799999927
 10
145.70735400000044
 20
-137.48384999999928
 10
145.74316800000042
 20
-137.47038799999928
 10
145.7787280000004
 20
-137.4566719999993
 10
145.81403400000042
 20
-137.4427019999993
 10
145.84908600000043
 20
-137.4282239999993
 10
145.8836300000004
 20
-137.41349199999928
 10
145.9179200000004
 20
-137.3982519999993
 10
145.9517020000004
 20
-137.3825039999993
 10
145.98497600000042
 20
-137.36650199999931
 10
146.0179960000004
 20
-137.3499919999993
 10
146.05050800000043
 20
-137.33271999999928
 10
146.0825120000004
 20
-137.3149399999993
 10
146.1140080000004
 20
-137.29665199999928
 10
146.14499600000042
 20
-137.27760199999926
 10
146.1754760000004
 20
-137.25804399999927
 10
146.2051940000004
 20
-137.23772399999928
 10
146.2344040000004
 20
-137.21664199999927
 10
146.26310600000042
 20
-137.19479799999925
 10
146.29104600000042
 20
-137.17219199999926
 10
146.3184780000004
 20
-137.14882399999925
 10
146.34514800000042
 20
-137.12443999999925
 10
146.3710560000004
 20
-137.09929399999925
 10
146.39620200000041
 20
-137.07313199999925
 10
146.42084000000042
 20
-137.04620799999927
 10
146.44471600000043
 20
-137.01826799999924
 10
146.46783000000042
 20
-136.98931199999925
 10
146.48992800000042
 20
-136.95933999999923
 10
146.5112640000004
 20
-136.92835199999925
 10
146.53183800000042
 20
-136.89609399999927
 10
146.55165000000042
 20
-136.86281999999926
 10
146.5704460000004
 20
-136.82827599999928
 10
146.58822600000042
 20
-136.79271599999927
 10
146.60524400000043
 20
-136.75588599999926
 10
146.6212460000004
 20
-136.71778599999928
 10
146.6362320000004
 20
-136.6784159999993
 10
146.6502020000004
 20
-136.6377759999993
 10
146.6634100000004
 20
-136.59586599999932
 10
146.6753480000004
 20
-136.5524319999993
 10
146.6862700000004
 20
-136.50772799999928
 10
146.6961760000004
 20
-136.4614999999993
 10
146.7050660000004
 20
-136.4137479999993
 10
146.7126860000004
 20
-136.3644719999993
 10
146.71929000000037
 20
-136.3136719999993
 10
146.72462400000038
 20
-136.2613479999993
 10
146.7289420000004
 20
-136.20749999999927
 10
146.73199000000037
 20
-136.1521279999993
 10
146.73376800000034
 20
-136.0949779999993
 10
146.73453000000035
 20
-136.0363039999993
 10
146.73402200000038
 20
-135.97585199999926
 10
146.72843400000036
 20
-135.69391199999927
 10
146.72284600000035
 20
-135.41679799999926
 10
146.71751200000037
 20
-135.14450999999926
 10
146.71243200000038
 20
-134.87653999999927
 10
146.70735200000036
 20
-134.61314199999927
 10
146.70252600000038
 20
-134.35406199999926
 10
146.69770000000037
 20
-134.09904599999928
 10
146.69287400000036
 20
-133.84783999999925
 10
146.68804800000035
 20
-133.60044399999924
 10
146.68322200000037
 20
-133.35685799999925
 10
146.67814200000038
 20
-133.11682799999926
 10
146.67306200000036
 20
-132.88009999999923
 10
146.66798200000036
 20
-132.64641999999927
 10
146.6626480000004
 20
-132.41604199999924
 10
146.65706000000037
 20
-132.18845799999926
 10
146.65147200000035
 20
-131.96366799999925
 10
146.64563000000035
 20
-131.74141799999927
 10
146.63953400000037
 20
-131.52170799999925
 10
146.63318400000037
 20
-131.30428399999926
 10
146.62632600000035
 20
-131.08914599999926
 10
146.61921400000034
 20
-130.87603999999925
 10
146.61159400000034
 20
-130.66471199999924
 10
146.60372000000035
 20
-130.45516199999923
 10
146.59533800000037
 20
-130.24713599999924
 10
146.58644800000036
 20
-130.04063399999924
 10
146.57705000000036
 20
-129.83540199999925
 10
146.56714400000035
 20
-129.63118599999925
 10
146.55673000000036
 20
-129.42798599999927
 10
146.54580800000033
 20
-129.22580199999925
 10
146.53437800000034
 20
-129.02412599999926
 10
146.52218600000035
 20
-128.82295799999926
 10
146.50923200000034
 20
-128.62229799999926
 10
146.49577000000033
 20
-128.42189199999927
 10
146.48154600000035
 20
-128.22148599999926
 10
146.46656000000036
 20
-128.02107999999927
 10
146.45081200000035
 20
-127.82041999999927
 10
146.43430200000032
 20
-127.61950599999928
 10
146.41677600000034
 20
-127.41808399999927
 10
146.39848800000033
 20
-127.21589999999927
 10
146.37918400000032
 20
-127.01295399999928
 10
146.35911800000034
 20
-126.80924599999928
 10
146.33803600000036
 20
-126.60426799999927
 10
146.31593800000036
 20
-126.39827399999928
 10
146.29282400000037
 20
-126.19075599999927
 10
146.26869400000035
 20
-125.98171399999927
 10
146.24354800000035
 20
-125.77089399999927
 10
146.21713200000033
 20
-125.55829599999929
 10
146.18970000000033
 20
-125.34366599999927
 10
146.16099800000032
 20
-125.12700399999927
 10
146.13128000000034
 20
-124.90805599999926
 10
146.10029200000034
 20
-124.68682199999927
 10
146.06803400000035
 20
-124.46279399999928
 10
146.03450600000036
 20
-124.23622599999928
 10
145.9997080000004
 20
-124.00660999999927
 10
145.96364000000037
 20
-123.77419999999927
 10
145.92604800000035
 20
-123.53848799999926
 10
145.88718600000036
 20
-123.29947399999928
 10
145.84680000000037
 20
-123.05690399999928
 10
145.80514400000035
 20
-122.81077799999927
 10
145.76196400000038
 20
-122.56084199999928
 10
145.71726000000035
 20
-122.30709599999928
 10
145.67103200000037
 20
-122.04928599999928
 10
145.62328000000036
 20
-121.7871579999993
 10
145.57375000000036
 20
-121.52071199999929
  0
LWPOLYLINE
  5
30
330
17
100
AcDbEntity
  8
0
100
AcDbPolyline
 90
449
 70
0
 10
112.44224400000036
 20
-96.3023219999993
 10
112.69319600000036
 20
-96.23348799999928
 10
112.94414800000035
 20
-96.16465399999927
 10
113.19510000000035
 20
-96.09581999999928
 10
113.44605200000035
 20
-96.02698599999927
 10
113.69700400000036
 20
-95.95815199999927
 10
113.94795600000036
 20
-95.88931799999926
 10
114.19890800000036
 20
-95.82048399999925
 10
114.44986000000036
 20
-95.75164999999926
 10
114.70081200000035
 20
-95.68281599999925
 10
114.95176400000035
 20
-95.61398199999925
 10
115.20271600000035
 20
-95.54514799999924
 10
115.45366800000036
 20
-95.47631399999923
 10
115.70462000000036
 20
-95.40747999999924
 10
115.95557200000036
 20
-95.33864599999923
 10
116.20652400000036
 20
-95.26981199999923
 10
116.45747600000036
 20
-95.20097799999922
 10
116.70842800000035
 20
-95.13214399999922
 10
116.95938000000035
 20
-95.06330999999922
 10
117.21033200000035
 20
-94.99447599999921
 10
117.46128400000036
 20
-94.92564199999921
 10
117.71223600000036
 20
-94.8568079999992
 10
117.96318800000036
 20
-94.78797399999921
 10
118.21414000000036
 20
-94.7191399999992
 10
118.46509200000035
 20
-94.65030599999919
 10
118.71604400000035
 20
-94.5814719999992
 10
118.96699600000035
 20
-94.51263799999919
 10
119.21794800000035
 20
-94.44380399999919
 10
119.46890000000036
 20
-94.37496999999918
 10
119.71985200000036
 20
-94.30613599999917
 10
119.97080400000036
 20
-94.23730199999918
 10
120.22175600000035
 20
-94.16846799999917
 10
120.47270800000035
 20
-94.09963399999917
 10
120.72366000000035
 20
-94.03079999999916
 10
120.97461200000035
 20
-93.96196599999915
 10
121.22556400000035
 20
-93.89313199999916
 10
121.47651600000036
 20
-93.82429799999915
 10
121.72746800000036
 20
-93.75546399999915
 10
121.97842000000036
 20
-93.68662999999914
 10
122.22937200000035
 20
-93.61779599999913
 10
122.48032400000035
 20
-93.54896199999914
 10
122.73127600000035
 20
-93.48012799999913
 10
122.98222800000035
 20
-93.41129399999913
 10
123.23318000000035
 20
-93.34245999999912
 10
123.48413200000036
 20
-93.27362599999911
 10
123.73508400000036
 20
-93.20479199999912
 10
123.98603600000035
 20
-93.1359579999991
 10
124.23698800000035
 20
-93.06712399999911
 10
124.48794000000035
 20
-92.9982899999991
 10
124.73889200000035
 20
-92.9294559999991
 10
124.98984400000035
 20
-92.8606219999991
 10
125.24079600000036
 20
-92.79178799999909
 10
125.49174800000036
 20
-92.72295399999909
 10
125.74270000000035
 20
-92.65411999999908
 10
125.99365200000035
 20
-92.58528599999909
 10
126.24460400000035
 20
-92.51645199999908
 10
126.49555600000035
 20
-92.44761799999907
 10
126.74650800000035
 20
-92.37878399999907
 10
126.99746000000034
 20
-92.30994999999906
 10
127.24841200000036
 20
-92.24111599999907
 10
127.49936400000036
 20
-92.17228199999906
 10
127.75031600000035
 20
-92.10344799999905
 10
128.00126800000035
 20
-92.03461399999905
 10
128.25222000000036
 20
-91.96577999999904
 10
128.50317200000035
 20
-91.89694599999905
 10
128.53670000000034
 20
-91.88754799999904
 10
128.56997400000034
 20
-91.87764199999906
 10
128.60324800000035
 20
-91.86697399999906
 10
128.63626800000034
 20
-91.85579799999907
 10
128.66903400000035
 20
-91.84411399999907
 10
128.70154600000035
 20
-91.83192199999907
 10
128.73380400000033
 20
-91.81896799999907
 10
128.76580800000033
 20
-91.80550599999907
 10
128.79755800000032
 20
-91.79153599999907
 10
128.82905400000033
 20
-91.77705799999906
 10
128.86029600000035
 20
-91.76207199999905
 10
128.89128400000035
 20
-91.74657799999906
 10
128.92201800000035
 20
-91.73032199999905
 10
128.95224400000035
 20
-91.71355799999907
 10
128.98221600000034
 20
-91.69628599999906
 10
129.01193400000034
 20
-91.67850599999908
 10
129.04114400000034
 20
-91.66021799999906
 10
129.07010000000034
 20
-91.64142199999907
 10
129.09880200000035
 20
-91.62237199999906
 10
129.12699600000033
 20
-91.60281399999907
 10
129.15493600000033
 20
-91.58274799999907
 10
129.18236800000034
 20
-91.56217399999906
 10
129.20929200000035
 20
-91.54109199999905
 10
129.23596200000034
 20
-91.51950199999906
 10
129.26212400000034
 20
-91.49740399999907
 10
129.28777800000034
 20
-91.47505199999905
 10
129.31317800000036
 20
-91.45219199999906
 10
129.33807000000036
 20
-91.42882399999907
 10
129.36245400000035
 20
-91.40520199999906
 10
129.38633000000036
 20
-91.38107199999905
 10
129.40969800000036
 20
-91.35643399999906
 10
129.43255800000034
 20
-91.33154199999906
 10
129.45491000000035
 20
-91.30614199999906
 10
129.47675400000037
 20
-91.28023399999906
 10
129.49809000000036
 20
-91.25407199999906
 10
129.51891800000035
 20
-91.22740199999905
 10
129.53898400000037
 20
-91.20047799999905
 10
129.55854200000036
 20
-91.17304599999905
 10
129.57759200000035
 20
-91.14535999999906
 10
129.59613400000035
 20
-91.11741999999906
 10
129.61391400000034
 20
-91.08897199999905
 10
129.63118600000035
 20
-91.06026999999905
 10
129.64795000000035
 20
-91.03105999999904
 10
129.66395200000034
 20
-91.00159599999905
 10
129.67944600000033
 20
-90.97187799999904
 10
129.69417800000033
 20
-90.94190599999905
 10
129.70814800000034
 20
-90.91142599999904
 10
129.72161000000034
 20
-90.88069199999904
 10
129.73431000000033
 20
-90.84970399999905
 10
129.74624800000035
 20
-90.81846199999904
 10
129.75767800000034
 20
-90.78696599999904
 10
129.76834600000032
 20
-90.75496199999905
 10
129.77825200000032
 20
-90.72270399999904
 10
129.78739600000034
 20
-90.69019199999904
 10
129.79577800000033
 20
-90.65742599999905
 10
129.80339800000033
 20
-90.62440599999904
 10
129.81025600000032
 20
-90.59113199999905
 10
129.81635200000034
 20
-90.55760399999905
 10
129.82168600000034
 20
-90.52382199999906
 10
129.8262580000003
 20
-90.48978599999906
 10
129.83006800000032
 20
-90.45549599999906
 10
129.83286200000032
 20
-90.42120599999906
 10
129.83489400000033
 20
-90.38666199999905
 10
129.8361640000003
 20
-90.35186399999905
 10
129.83870400000032
 20
-90.23095999999904
 10
129.84099000000032
 20
-90.10827799999905
 10
129.84276800000032
 20
-89.98381799999905
 10
129.84403800000032
 20
-89.85757999999905
 10
129.8448000000003
 20
-89.72956399999904
 10
129.84505400000032
 20
-89.60002399999904
 10
129.84454600000032
 20
-89.46870599999905
 10
129.8435300000003
 20
-89.33586399999903
 10
129.8417520000003
 20
-89.20149799999903
 10
129.83921200000032
 20
-89.06560799999903
 10
129.8356560000003
 20
-88.92819399999902
 10
129.8313380000003
 20
-88.78925599999903
 10
129.8260040000003
 20
-88.64879399999903
 10
129.8196540000003
 20
-88.50680799999903
 10
129.8122880000003
 20
-88.36355199999902
 10
129.8039060000003
 20
-88.21877199999902
 10
129.7942540000003
 20
-88.07272199999902
 10
129.78333200000029
 20
-87.92540199999902
 10
129.7711400000003
 20
-87.77681199999903
 10
129.7576780000003
 20
-87.62695199999904
 10
129.7429460000003
 20
-87.47582199999903
 10
129.7266900000003
 20
-87.32367599999903
 10
129.7091640000003
 20
-87.17025999999903
 10
129.6901140000003
 20
-87.01582799999903
 10
129.66928600000028
 20
-86.86037999999903
 10
129.6469340000003
 20
-86.70366199999903
 10
129.6230580000003
 20
-86.54592799999902
 10
129.5974040000003
 20
-86.38717799999903
 10
129.5699720000003
 20
-86.22766599999903
 10
129.54076200000029
 20
-86.06713799999903
 10
129.5095200000003
 20
-85.90584799999903
 10
129.4765000000003
 20
-85.74354199999902
 10
129.4414480000003
 20
-85.58047399999903
 10
129.4043640000003
 20
-85.41664399999904
 10
129.3652480000003
 20
-85.25205199999903
 10
129.3238460000003
 20
-85.08669799999903
 10
129.2804120000003
 20
-84.92058199999903
 10
129.23469200000028
 20
-84.75370399999903
 10
129.1866860000003
 20
-84.58631799999904
 10
129.13639400000028
 20
-84.41816999999904
 10
129.08356200000028
 20
-84.24951399999904
 10
129.0284440000003
 20
-84.08034999999904
 10
128.9707860000003
 20
-83.91067799999904
 10
128.91058800000027
 20
-83.74049799999904
 10
128.8475960000003
 20
-83.56980999999902
 10
128.7820640000003
 20
-83.39886799999903
 10
128.7137380000003
 20
-83.22741799999903
 10
128.6426180000003
 20
-83.05571399999903
 10
128.5687040000003
 20
-82.88350199999903
 10
128.49199600000028
 20
-82.71103599999904
 10
128.4124940000003
 20
-82.53831599999904
 10
128.3299440000003
 20
-82.36534199999905
 10
128.2443460000003
 20
-82.19211399999904
 10
128.1557000000003
 20
-82.01888599999903
 10
128.06400600000032
 20
-81.84540399999904
 10
127.96901000000031
 20
-81.67192199999903
 10
127.8709660000003
 20
-81.49818599999902
 10
127.7696200000003
 20
-81.32444999999902
 10
127.6649720000003
 20
-81.15071399999901
 10
127.5567680000003
 20
-80.97697799999901
 10
127.4452620000003
 20
-80.803241999999
 10
127.3302000000003
 20
-80.62975999999901
 10
127.2115820000003
 20
-80.456277999999
 10
127.08940800000032
 20
-80.28304999999901
 10
127.08051800000031
 20
-80.27060399999901
 10
127.0713740000003
 20
-80.25841199999901
 10
127.06197600000031
 20
-80.246473999999
 10
127.05257800000032
 20
-80.234535999999
 10
127.04292600000032
 20
-80.222851999999
 10
127.03302000000032
 20
-80.21142199999899
 10
127.02311400000032
 20
-80.19999199999899
 10
127.01295400000032
 20
-80.188815999999
 10
127.00254000000032
 20
-80.17789399999899
 10
126.99212600000031
 20
-80.16697199999899
 10
126.98145800000033
 20
-80.156303999999
 10
126.97053600000032
 20
-80.145889999999
 10
126.95961400000031
 20
-80.13572999999899
 10
126.94843800000032
 20
-80.12556999999899
 10
126.93726200000033
 20
-80.11566399999899
 10
126.92583200000033
 20
-80.10601199999898
 10
126.91440200000032
 20
-80.09635999999898
 10
126.90271800000032
 20
-80.08696199999899
 10
126.89103400000033
 20
-80.07781799999898
 10
126.87909600000032
 20
-80.06892799999898
 10
126.86715800000032
 20
-80.06003799999898
 10
126.85496600000032
 20
-80.05140199999897
 10
126.84277400000032
 20
-80.04301999999898
 10
126.83032800000032
 20
-80.03463799999898
 10
126.81788200000032
 20
-80.02650999999898
 10
126.80518200000031
 20
-80.01863599999898
 10
126.79248200000032
 20
-80.01101599999897
 10
126.77952800000033
 20
-80.00339599999899
 10
126.76657400000032
 20
-79.996029999999
 10
126.75336600000031
 20
-79.98891799999899
 10
126.7401580000003
 20
-79.98205999999898
 10
126.72695000000031
 20
-79.97545599999899
 10
126.71348800000031
 20
-79.96885199999898
 10
126.7000260000003
 20
-79.96250199999899
 10
126.68631000000032
 20
-79.95640599999899
 10
126.67259400000032
 20
-79.95056399999898
 10
126.65887800000033
 20
-79.94472199999898
 10
126.64490800000033
 20
-79.93913399999897
 10
126.63093800000033
 20
-79.93379999999897
 10
126.61696800000033
 20
-79.92871999999898
 10
126.60274400000033
 20
-79.92389399999898
 10
126.58852000000033
 20
-79.91906799999897
 10
126.57429600000033
 20
-79.91449599999898
 10
126.56007200000035
 20
-79.91017799999898
 10
126.54559400000034
 20
-79.90611399999898
 10
126.53111600000034
 20
-79.90230399999898
 10
126.51663800000033
 20
-79.89849399999899
 10
126.50216000000033
 20
-79.89493799999899
 10
126.48742800000032
 20
-79.89163599999898
 10
126.47269600000033
 20
-79.88858799999899
 10
126.45796400000033
 20
-79.88579399999898
 10
126.44323200000034
 20
-79.88325399999898
 10
126.42824600000033
 20
-79.88071399999899
 10
126.41326000000032
 20
-79.87842799999898
 10
126.39827400000031
 20
-79.87639599999899
 10
126.3832880000003
 20
-79.87461799999899
 10
126.3683020000003
 20
-79.873093999999
 10
126.35331600000029
 20
-79.871823999999
 10
126.33807600000029
 20
-79.87080799999899
 10
126.3228360000003
 20
-79.86979199999898
 10
126.30759600000029
 20
-79.86902999999899
 10
126.2923560000003
 20
-79.86852199999899
 10
126.27711600000029
 20
-79.86826799999899
 10
126.26187600000029
 20
-79.86826799999899
 10
125.8244880000003
 20
-79.87055399999899
 10
125.3871000000003
 20
-79.872839999999
 10
124.9497120000003
 20
-79.875125999999
 10
124.5123240000003
 20
-79.87741199999901
 10
124.07493600000032
 20
-79.87969799999901
 10
123.63754800000032
 20
-79.88198399999901
 10
123.20016000000032
 20
-79.88426999999902
 10
122.76277200000033
 20
-79.88655599999902
 10
122.32538400000034
 20
-79.88884199999903
 10
121.88799600000034
 20
-79.89112799999903
 10
121.45060800000034
 20
-79.89341399999903
 10
121.01322000000035
 20
-79.89569999999904
 10
120.57583200000036
 20
-79.89798599999904
 10
120.13844400000036
 20
-79.90027199999905
 10
119.70105600000036
 20
-79.90255799999905
 10
119.26366800000037
 20
-79.90484399999904
 10
118.82628000000038
 20
-79.90712999999906
 10
118.38889200000038
 20
-79.90941599999906
 10
117.95150400000038
 20
-79.91170199999907
 10
117.51411600000039
 20
-79.91398799999907
 10
117.0767280000004
 20
-79.91627399999906
 10
116.6393400000004
 20
-79.91855999999908
 10
116.2019520000004
 20
-79.92084599999907
 10
115.7645640000004
 20
-79.92313199999909
 10
115.32717600000042
 20
-79.92541799999908
 10
114.88978800000042
 20
-79.92770399999908
 10
114.45240000000042
 20
-79.9299899999991
 10
114.01501200000043
 20
-79.93227599999909
 10
113.57762400000044
 20
-79.9345619999991
 10
113.14023600000044
 20
-79.9368479999991
 10
112.70284800000044
 20
-79.9391339999991
 10
112.26546000000045
 20
-79.94141999999911
 10
111.82807200000046
 20
-79.94370599999911
 10
111.39068400000046
 20
-79.94599199999912
 10
110.95329600000046
 20
-79.94827799999912
 10
110.51590800000046
 20
-79.95056399999912
 10
110.07852000000048
 20
-79.95284999999913
 10
109.64113200000048
 20
-79.95513599999913
 10
109.20374400000048
 20
-79.95742199999914
 10
108.76635600000048
 20
-79.95970799999914
 10
108.3289680000005
 20
-79.96199399999914
 10
107.8915800000005
 20
-79.96427999999915
 10
107.4541920000005
 20
-79.96656599999915
 10
107.01680400000052
 20
-79.96885199999916
 10
106.57941600000052
 20
-79.97113799999916
 10
106.14202800000052
 20
-79.97342399999916
 10
105.70464000000052
 20
-79.97570999999917
 10
105.26725200000054
 20
-79.97799599999917
 10
104.82986400000054
 20
-79.98028199999918
 10
104.39247600000054
 20
-79.98256799999918
 10
103.95508800000054
 20
-79.98485399999917
 10
103.51770000000056
 20
-79.98713999999919
 10
103.08031200000056
 20
-79.98942599999918
 10
102.64292400000056
 20
-79.9917119999992
 10
102.20553600000056
 20
-79.9939979999992
 10
101.76814800000058
 20
-79.99628399999919
 10
101.33076000000058
 20
-79.9985699999992
 10
100.89337200000058
 20
-80.0008559999992
 10
100.45598400000058
 20
-80.00314199999922
 10
100.0185960000006
 20
-80.00542799999921
 10
99.5812080000006
 20
-80.00771399999921
 10
99.1438200000006
 20
-80.00999999999922
 10
98.7064320000006
 20
-80.01228599999922
 10
98.26904400000062
 20
-80.01457199999923
 10
98.27615600000063
 20
-80.01482599999922
 10
98.29698400000062
 20
-80.01584199999922
 10
98.33127400000062
 20
-80.01761999999923
 10
98.37826400000061
 20
-80.02066799999923
 10
98.43770000000062
 20
-80.02523999999922
 10
98.50907400000061
 20
-80.03158999999921
 10
98.59187800000062
 20
-80.03997199999922
 10
98.68535000000061
 20
-80.05063999999922
 10
98.78923600000061
 20
-80.06384799999923
 10
98.9030280000006
 20
-80.08010399999922
 10
99.02647200000061
 20
-80.09940799999923
 10
99.15880600000061
 20
-80.12226799999922
 10
99.29952200000061
 20
-80.14893799999923
 10
99.44811200000059
 20
-80.17941799999923
 10
99.60432200000061
 20
-80.21421599999923
 10
99.7673900000006
 20
-80.25358599999922
 10
99.9370620000006
 20
-80.29778199999922
 10
100.1125760000006
 20
-80.34731199999922
 10
100.2936780000006
 20
-80.40217599999922
 10
100.4798600000006
 20
-80.46262799999921
 10
100.6706140000006
 20
-80.52917599999921
 10
100.8654320000006
 20
-80.60181999999922
 10
101.06355200000058
 20
-80.68106799999921
 10
101.26497400000059
 20
-80.76717399999922
 10
101.46893600000058
 20
-80.86039199999922
 10
101.67493000000059
 20
-80.96097599999923
 10
101.88244800000058
 20
-81.06917999999922
 10
102.09123600000059
 20
-81.18525799999922
 10
102.30053200000059
 20
-81.30971799999922
 10
102.5098280000006
 20
-81.44255999999923
 10
102.71887000000059
 20
-81.58403799999924
 10
102.92715000000058
 20
-81.73465999999924
 10
103.1339060000006
 20
-81.89467999999924
 10
103.33888400000059
 20
-82.06435199999925
 10
103.54157600000059
 20
-82.24392999999924
 10
103.7414740000006
 20
-82.43366799999924
 10
103.9380700000006
 20
-82.63381999999925
 10
104.13085600000059
 20
-82.84463999999925
 10
104.31932400000059
 20
-83.06638199999924
 10
104.5032200000006
 20
-83.29955399999925
 10
104.6817820000006
 20
-83.54415599999925
 10
104.8545020000006
 20
-83.80069599999925
 10
105.02112600000059
 20
-84.06942799999925
 10
105.1808920000006
 20
-84.35035199999925
 10
105.3335460000006
 20
-84.64397599999924
 10
105.4785800000006
 20
-84.95055399999924
 10
105.6152320000006
 20
-85.27059399999924
 10
105.7432480000006
 20
-85.60409599999923
 10
105.86212000000062
 20
-85.95131399999924
 10
105.97134000000062
 20
-86.31275599999924
 10
106.07040000000062
 20
-86.68842199999924
 10
106.15879200000062
 20
-87.07881999999923
 10
106.23626200000062
 20
-87.48420399999924
 10
106.30204800000062
 20
-87.90457399999923
 10
106.35564200000063
 20
-88.34043799999922
 10
106.39679000000062
 20
-88.79204999999924
 10
106.42473000000062
 20
-89.25991799999923
 10
106.43920800000063
 20
-89.74404199999923
 10
106.43946200000062
 20
-90.24467599999923
 10
106.42523800000063
 20
-90.76232799999923
 10
106.39602800000063
 20
-91.29699799999923
 10
106.35132400000063
 20
-91.84919399999923
 10
106.29061800000063
 20
-92.41916999999924
 10
106.21340200000064
 20
-93.00717999999924
 10
106.21695800000064
 20
-93.00616399999923
 10
106.22737200000064
 20
-93.00362399999923
 10
106.24464400000063
 20
-92.99955999999924
 10
106.26826600000064
 20
-92.99397199999923
 10
106.29823800000064
 20
-92.98711399999924
 10
106.33456000000064
 20
-92.97923999999924
 10
106.37672400000064
 20
-92.97060399999924
 10
106.42473000000064
 20
-92.96120599999925
 10
106.47832400000064
 20
-92.95129999999925
 10
106.53725200000065
 20
-92.94088599999925
 10
106.60151400000065
 20
-92.93021799999926
 10
106.67085600000065
 20
-92.91954999999926
 10
106.74502400000064
 20
-92.90888199999927
 10
106.82376400000065
 20
-92.89846799999927
 10
106.90682200000064
 20
-92.88856199999927
 10
106.99419800000064
 20
-92.87916399999928
 10
107.08563800000064
 20
-92.87052799999928
 10
107.18088800000065
 20
-92.8629079999993
 10
107.27994800000064
 20
-92.85630399999928
 10
107.38231000000064
 20
-92.85096999999928
 10
107.48797400000065
 20
-92.84690599999928
 10
107.59694000000064
 20
-92.84436599999928
 10
107.70870000000063
 20
-92.84360399999929
 10
107.82325400000065
 20
-92.84487399999928
 10
107.94034800000065
 20
-92.84817599999927
 10
108.05972800000066
 20
-92.85350999999928
 10
108.18114000000065
 20
-92.86138399999928
 10
108.30458400000066
 20
-92.87154399999929
 10
108.42980600000065
 20
-92.88449799999928
 10
108.55655200000066
 20
-92.90024599999929
 10
108.68482200000066
 20
-92.9190419999993
 10
108.81410800000066
 20
-92.94113999999928
 10
108.94441000000066
 20
-92.9665399999993
 10
109.07547400000067
 20
-92.99549599999929
 10
109.20730000000066
 20
-93.02800799999928
 10
109.33938000000066
 20
-93.06432999999927
 10
109.47171400000066
 20
-93.10471599999927
 10
109.60430200000066
 20
-93.14916599999927
 10
109.73663600000066
 20
-93.19793399999928
 10
109.86871600000066
 20
-93.25127399999927
 10
110.00003400000065
 20
-93.30918599999927
 10
110.13084400000065
 20
-93.37192399999928
 10
110.26063800000065
 20
-93.43974199999927
 10
110.38941600000067
 20
-93.51263999999927
 10
110.51692400000067
 20
-93.59087199999927
 10
110.64290800000066
 20
-93.67443799999927
 10
110.76711400000066
 20
-93.76359199999928
 10
110.88954200000066
 20
-93.85858799999927
 10
111.00993800000066
 20
-93.95967999999928
 10
111.12804800000065
 20
-94.06686799999929
 10
111.24361800000065
 20
-94.1801519999993
 10
111.35664800000065
 20
-94.30003999999929
 10
111.46663000000065
 20
-94.42653199999928
 10
111.57381800000066
 20
-94.5596279999993
 10
111.67770400000065
 20
-94.6998359999993
 10
111.77828800000066
 20
-94.8469019999993
 10
111.87506200000064
 20
-95.0013339999993
 10
111.96802600000063
 20
-95.1631319999993
 10
112.05718000000064
 20
-95.33254999999929
 10
112.14201600000064
 20
-95.50984199999928
 10
112.22253400000065
 20
-95.69500799999928
 10
112.29848000000064
 20
-95.88804799999927
 10
112.36985400000064
 20
-96.08946999999928
 10
112.43614800000064
 20
-96.29927399999929
  0
LWPOLYLINE
  5
32
330
17
100
AcDbEntity
  8
0
100
AcDbPolyline
 90
385
 70
0
 10
107.09503600000103
 20
-95.35058399999822
 10
107.05922200000103
 20
-95.37953999999822
 10
107.02340800000103
 20
-95.40849599999821
 10
106.98759400000101
 20
-95.4374519999982
 10
106.95178000000101
 20
-95.4664079999982
 10
106.915966000001
 20
-95.49536399999819
 10
106.880152000001
 20
-95.52431999999818
 10
106.844338000001
 20
-95.55327599999818
 10
106.80852400000099
 20
-95.58223199999817
 10
106.77271000000098
 20
-95.61118799999817
 10
106.73689600000098
 20
-95.64014399999816
 10
106.70108200000098
 20
-95.66909999999815
 10
106.66526800000096
 20
-95.69805599999815
 10
106.62945400000096
 20
-95.72701199999814
 10
106.59364000000096
 20
-95.75596799999813
 10
106.55782600000096
 20
-95.78492399999813
 10
106.52201200000096
 20
-95.81387999999812
 10
106.48619800000094
 20
-95.84283599999812
 10
106.45038400000094
 20
-95.87179199999811
 10
106.41457000000094
 20
-95.9007479999981
 10
106.37875600000093
 20
-95.9297039999981
 10
106.34294200000093
 20
-95.95865999999809
 10
106.30712800000092
 20
-95.98761599999808
 10
106.27131400000091
 20
-96.01657199999808
 10
106.23550000000091
 20
-96.04552799999807
 10
106.19968600000091
 20
-96.07448399999807
 10
106.16387200000091
 20
-96.10343999999806
 10
106.12805800000089
 20
-96.13239599999805
 10
106.09224400000089
 20
-96.16135199999805
 10
106.05643000000089
 20
-96.19030799999804
 10
106.02061600000089
 20
-96.21926399999803
 10
105.98480200000088
 20
-96.24821999999803
 10
105.94898800000087
 20
-96.27717599999802
 10
105.91317400000086
 20
-96.30613199999802
 10
105.87736000000086
 20
-96.33508799999801
 10
105.84154600000086
 20
-96.364043999998
 10
105.80573200000084
 20
-96.392999999998
 10
105.76991800000084
 20
-96.42195599999799
 10
105.73410400000084
 20
-96.45091199999798
 10
105.69829000000084
 20
-96.47986799999798
 10
105.66247600000084
 20
-96.50882399999797
 10
105.62666200000082
 20
-96.53777999999797
 10
105.59084800000082
 20
-96.56673599999796
 10
105.55503400000082
 20
-96.59569199999795
 10
105.51922000000081
 20
-96.62464799999795
 10
105.48340600000081
 20
-96.65360399999794
 10
105.4475920000008
 20
-96.68255999999793
 10
105.4117780000008
 20
-96.71151599999793
 10
105.37596400000079
 20
-96.74047199999792
 10
105.34015000000079
 20
-96.76942799999792
 10
105.30433600000079
 20
-96.79838399999791
 10
105.26852200000077
 20
-96.8273399999979
 10
105.23270800000077
 20
-96.8562959999979
 10
105.19689400000077
 20
-96.88525199999789
 10
105.16108000000077
 20
-96.91420799999788
 10
105.12526600000076
 20
-96.94316399999788
 10
105.08945200000075
 20
-96.97211999999787
 10
105.05363800000075
 20
-97.00107599999787
 10
105.01782400000074
 20
-97.03003199999786
 10
104.98201000000074
 20
-97.05898799999785
 10
104.94619600000073
 20
-97.08794399999785
 10
104.91038200000072
 20
-97.11689999999784
 10
104.87456800000072
 20
-97.14585599999783
 10
104.83875400000072
 20
-97.17481199999783
 10
104.80294000000072
 20
-97.20376799999782
 10
104.75696600000072
 20
-97.24237599999782
 10
104.71302400000071
 20
-97.28225399999782
 10
104.67086000000072
 20
-97.32314799999781
 10
104.63072800000072
 20
-97.36505799999782
 10
104.59237400000072
 20
-97.40798399999781
 10
104.55605200000072
 20
-97.45167199999783
 10
104.52150800000071
 20
-97.49637599999782
 10
104.48899600000071
 20
-97.54184199999781
 10
104.45826200000072
 20
-97.58806999999781
 10
104.42930600000072
 20
-97.63505999999782
 10
104.40238200000073
 20
-97.68281199999781
 10
104.37723600000074
 20
-97.73107199999781
 10
104.35386800000073
 20
-97.78009399999782
 10
104.33227800000074
 20
-97.8296239999978
 10
104.31246600000074
 20
-97.87966199999781
 10
104.29468600000075
 20
-97.93020799999782
 10
104.27868400000075
 20
-97.98100799999781
 10
104.26446000000075
 20
-98.0323159999978
 10
104.25201400000076
 20
-98.0838779999978
 10
104.24134600000076
 20
-98.1356939999978
 10
104.23245600000077
 20
-98.1877639999978
 10
104.22509000000076
 20
-98.2398339999978
 10
104.21950200000076
 20
-98.2921579999978
 10
104.21569200000077
 20
-98.34448199999781
 10
104.21366000000077
 20
-98.39680599999781
 10
104.21340600000077
 20
-98.44912999999781
 10
104.21467600000078
 20
-98.50145399999782
 10
104.21772400000077
 20
-98.55377799999782
 10
104.22255000000078
 20
-98.60584799999782
 10
104.22890000000078
 20
-98.65766399999782
 10
104.23702800000076
 20
-98.70922599999781
 10
104.24668000000077
 20
-98.76053399999782
 10
104.25811000000077
 20
-98.81158799999781
 10
104.27106400000078
 20
-98.86213399999782
 10
104.28554200000077
 20
-98.91242599999782
 10
104.30179800000079
 20
-98.96220999999782
 10
104.31957800000077
 20
-99.01148599999783
 10
104.33888200000078
 20
-99.06025399999783
 10
104.35996400000079
 20
-99.10825999999784
 10
104.3825700000008
 20
-99.15575799999783
 10
104.4067000000008
 20
-99.20249399999784
 10
104.4323540000008
 20
-99.24846799999784
 10
104.4595320000008
 20
-99.29367999999783
 10
104.4882340000008
 20
-99.33787599999783
 10
104.51846000000081
 20
-99.38130999999784
 10
104.55021000000082
 20
-99.42372799999782
 10
104.58348400000081
 20
-99.46512999999783
 10
104.6182820000008
 20
-99.50551599999783
 10
104.6546040000008
 20
-99.54488599999782
 10
104.6924500000008
 20
-99.58298599999782
 10
104.7318200000008
 20
-99.62006999999782
 10
104.77246000000079
 20
-99.65588399999783
 10
104.81462400000079
 20
-99.69042799999782
 10
104.85831200000081
 20
-99.72370199999781
 10
104.9032700000008
 20
-99.75545199999782
 10
104.94975200000081
 20
-99.78593199999783
 10
104.9975040000008
 20
-99.81488799999782
 10
105.04678000000081
 20
-99.84231999999781
 10
105.0973260000008
 20
-99.86822799999781
 10
105.1493960000008
 20
-99.89261199999781
 10
105.2027360000008
 20
-99.91521799999781
 10
105.2576000000008
 20
-99.93629999999781
 10
105.3137340000008
 20
-99.95560399999782
 10
105.37113800000081
 20
-99.97312999999782
 10
105.4239700000008
 20
-99.98811599999783
 10
105.47680200000082
 20
-100.00310199999784
 10
105.52963400000083
 20
-100.01808799999785
 10
105.58246600000084
 20
-100.03307399999785
 10
105.63529800000084
 20
-100.04805999999786
 10
105.68813000000084
 20
-100.06304599999787
 10
105.74096200000085
 20
-100.07803199999788
 10
105.79379400000086
 20
-100.09301799999788
 10
105.84662600000087
 20
-100.10800399999789
 10
105.89945800000088
 20
-100.1229899999979
 10
105.95229000000089
 20
-100.1379759999979
 10
106.00512200000088
 20
-100.15296199999791
 10
106.05795400000089
 20
-100.16794799999792
 10
106.1107860000009
 20
-100.18293399999791
 10
106.16361800000091
 20
-100.19791999999792
 10
106.21645000000092
 20
-100.21290599999793
 10
106.26928200000093
 20
-100.22789199999794
 10
106.32211400000092
 20
-100.24287799999794
 10
106.37494600000093
 20
-100.25786399999795
 10
106.42777800000094
 20
-100.27284999999796
 10
106.48061000000095
 20
-100.28783599999797
 10
106.53344200000096
 20
-100.30282199999797
 10
106.58627400000096
 20
-100.31780799999798
 10
106.63910600000096
 20
-100.33279399999799
 10
106.69193800000097
 20
-100.347779999998
 10
106.74477000000098
 20
-100.362765999998
 10
106.79760200000099
 20
-100.37775199999801
 10
106.850434000001
 20
-100.39273799999802
 10
106.903266000001
 20
-100.40772399999801
 10
106.956098000001
 20
-100.42270999999802
 10
107.00893000000102
 20
-100.43769599999803
 10
107.06176200000102
 20
-100.45268199999803
 10
107.11459400000103
 20
-100.46766799999804
 10
107.16742600000104
 20
-100.48265399999805
 10
107.22025800000104
 20
-100.49763999999806
 10
107.27309000000105
 20
-100.51262599999806
 10
107.32592200000106
 20
-100.52761199999807
 10
107.37875400000107
 20
-100.54259799999808
 10
107.43158600000108
 20
-100.55758399999809
 10
107.48441800000107
 20
-100.5725699999981
 10
107.53725000000108
 20
-100.5875559999981
 10
107.59008200000109
 20
-100.60254199999811
 10
107.6429140000011
 20
-100.61752799999812
 10
107.69574600000111
 20
-100.63251399999812
 10
107.74857800000112
 20
-100.64749999999812
 10
107.80141000000111
 20
-100.66248599999813
 10
107.85424200000112
 20
-100.67747199999813
 10
107.90707400000113
 20
-100.69245799999814
 10
107.95990600000114
 20
-100.70744399999815
 10
108.01273800000115
 20
-100.72242999999816
 10
108.06557000000116
 20
-100.73741599999816
 10
108.11840200000115
 20
-100.75240199999817
 10
108.17123400000116
 20
-100.76738799999818
 10
108.22406600000117
 20
-100.78237399999819
 10
108.27689800000118
 20
-100.79735999999819
 10
108.32973000000119
 20
-100.8123459999982
 10
108.38256200000119
 20
-100.82733199999821
 10
108.4353940000012
 20
-100.84231799999822
 10
108.4882260000012
 20
-100.85730399999822
 10
108.54105800000121
 20
-100.87228999999822
 10
108.59389000000122
 20
-100.88727599999822
 10
108.64672200000123
 20
-100.90226199999823
 10
108.69955400000123
 20
-100.91724799999824
 10
108.75238600000124
 20
-100.93223399999825
 10
108.80293200000125
 20
-100.94569599999825
 10
108.85347800000125
 20
-100.95737999999825
 10
108.90377000000124
 20
-100.96728599999824
 10
108.95380800000125
 20
-100.97541399999824
 10
109.00384600000125
 20
-100.98176399999824
 10
109.05363000000125
 20
-100.98633599999823
 10
109.10316000000125
 20
-100.98912999999823
 10
109.15218200000125
 20
-100.99014599999823
 10
109.20095000000124
 20
-100.98963799999824
 10
109.24946400000124
 20
-100.98735199999822
 10
109.29747000000124
 20
-100.98354199999824
 10
109.34522200000124
 20
-100.97820799999823
 10
109.39246600000124
 20
-100.97134999999824
 10
109.43920200000125
 20
-100.96296799999823
 10
109.48543000000124
 20
-100.95306199999823
 10
109.53115000000125
 20
-100.94163199999824
 10
109.57636200000125
 20
-100.92867799999823
 10
109.62106600000125
 20
-100.91445399999823
 10
109.66500800000125
 20
-100.89870599999823
 10
109.70844200000124
 20
-100.88168799999823
 10
109.75111400000125
 20
-100.86339999999824
 10
109.79327800000125
 20
-100.84358799999823
 10
109.83468000000124
 20
-100.82250599999823
 10
109.87532000000125
 20
-100.80015399999823
 10
109.91519800000125
 20
-100.77653199999823
 10
109.95431400000125
 20
-100.75189399999823
 10
109.99266800000125
 20
-100.72598599999823
 10
110.03000600000125
 20
-100.69880799999822
 10
110.06658200000125
 20
-100.67061399999822
 10
110.10214200000125
 20
-100.64140399999823
 10
110.13694000000125
 20
-100.61092399999822
 10
110.17072200000125
 20
-100.57942799999822
 10
110.20348800000124
 20
-100.54691599999822
 10
110.23523800000125
 20
-100.51338799999822
 10
110.26597200000124
 20
-100.47909799999822
 10
110.29569000000124
 20
-100.44379199999823
 10
110.32439200000125
 20
-100.40746999999823
 10
110.35182400000124
 20
-100.37038599999822
 10
110.37824000000124
 20
-100.33228599999823
 10
110.40338600000125
 20
-100.29342399999823
 10
110.42726200000124
 20
-100.25379999999822
 10
110.44986800000125
 20
-100.21341399999822
 10
110.47120400000124
 20
-100.17226599999823
 10
110.49127000000124
 20
-100.13035599999823
 10
110.51006600000125
 20
-100.08768399999822
 10
110.52759200000125
 20
-100.04424999999823
 10
110.54384800000126
 20
-100.00030799999823
 10
110.55858000000126
 20
-99.95560399999823
 10
110.57178800000126
 20
-99.91039199999823
 10
110.58372600000126
 20
-99.86467199999822
 10
110.59414000000126
 20
-99.81818999999822
 10
110.60303000000127
 20
-99.77119999999823
 10
110.61039600000127
 20
-99.72370199999823
 10
110.61623800000127
 20
-99.67594999999822
 10
110.62055600000127
 20
-99.62768999999822
 10
110.62309600000127
 20
-99.57892199999823
 10
110.62411200000128
 20
-99.52989999999824
 10
110.62335000000128
 20
-99.48036999999823
 10
110.62081000000128
 20
-99.43058599999823
 10
110.61674600000129
 20
-99.38054799999823
 10
110.61090400000127
 20
-99.33025599999823
 10
110.60328400000128
 20
-99.27970999999823
 10
110.59388600000129
 20
-99.22890999999824
 10
110.58245600000129
 20
-99.17785599999823
 10
110.57178800000129
 20
-99.13289799999822
 10
110.5611200000013
 20
-99.08793999999821
 10
110.5504520000013
 20
-99.0429819999982
 10
110.5397840000013
 20
-98.99802399999821
 10
110.52911600000131
 20
-98.9530659999982
 10
110.51844800000133
 20
-98.9081079999982
 10
110.50778000000133
 20
-98.86314999999819
 10
110.49711200000134
 20
-98.81819199999818
 10
110.48644400000134
 20
-98.77323399999818
 10
110.47577600000135
 20
-98.72827599999817
 10
110.46510800000135
 20
-98.68331799999817
 10
110.45444000000136
 20
-98.63835999999816
 10
110.44377200000137
 20
-98.59340199999815
 10
110.43310400000138
 20
-98.54844399999816
 10
110.42243600000138
 20
-98.50348599999815
 10
110.41176800000139
 20
-98.45852799999814
 10
110.40110000000139
 20
-98.41356999999813
 10
110.3904320000014
 20
-98.36861199999812
 10
110.37976400000142
 20
-98.32365399999813
 10
110.36909600000142
 20
-98.27869599999812
 10
110.35842800000142
 20
-98.23373799999811
 10
110.34776000000143
 20
-98.1887799999981
 10
110.33709200000143
 20
-98.1438219999981
 10
110.32642400000144
 20
-98.0988639999981
 10
110.31575600000146
 20
-98.0539059999981
 10
110.30508800000146
 20
-98.00894799999809
 10
110.29416600000145
 20
-97.96398999999808
 10
110.28349800000146
 20
-97.91903199999808
 10
110.27283000000146
 20
-97.87407399999807
 10
110.26216200000148
 20
-97.82911599999807
 10
110.25149400000149
 20
-97.78415799999806
 10
110.24082600000149
 20
-97.73919999999805
 10
110.2301580000015
 20
-97.69424199999806
 10
110.2194900000015
 20
-97.64928399999805
 10
110.2088220000015
 20
-97.60432599999804
 10
110.19815400000152
 20
-97.55936799999803
 10
110.18748600000153
 20
-97.51440999999802
 10
110.17681800000153
 20
-97.46945199999803
 10
110.16615000000154
 20
-97.42449399999802
 10
110.15548200000154
 20
-97.37953599999801
 10
110.14481400000155
 20
-97.334577999998
 10
110.13414600000156
 20
-97.289619999998
 10
110.12347800000157
 20
-97.244661999998
 10
110.11281000000157
 20
-97.199703999998
 10
110.10214200000158
 20
-97.15474599999798
 10
110.09147400000158
 20
-97.10978799999798
 10
110.08080600000159
 20
-97.06482999999797
 10
110.0701380000016
 20
-97.01987199999797
 10
110.05947000000161
 20
-96.97491399999797
 10
110.04880200000161
 20
-96.92995599999796
 10
110.03813400000162
 20
-96.88499799999795
 10
110.02746600000162
 20
-96.84003999999796
 10
110.01679800000163
 20
-96.79508199999795
 10
110.00613000000163
 20
-96.75012399999794
 10
109.99546200000165
 20
-96.70516599999793
 10
109.98454000000164
 20
-96.66020799999792
 10
109.97387200000165
 20
-96.61524999999793
 10
109.96320400000165
 20
-96.57029199999792
 10
109.95253600000167
 20
-96.52533399999791
 10
109.94186800000168
 20
-96.4803759999979
 10
109.93120000000168
 20
-96.4354179999979
 10
109.92053200000169
 20
-96.3904599999979
 10
109.90986400000169
 20
-96.3455019999979
 10
109.8991960000017
 20
-96.30054399999788
 10
109.88421000000169
 20
-96.24263199999788
 10
109.86770000000169
 20
-96.18573599999789
 10
109.84941200000169
 20
-96.13010999999788
 10
109.8296000000017
 20
-96.07549999999789
 10
109.8080100000017
 20
-96.02190599999788
 10
109.78489600000171
 20
-95.96958199999789
 10
109.76025800000171
 20
-95.91852799999788
 10
109.7340960000017
 20
-95.86848999999788
 10
109.70666400000171
 20
-95.81972199999788
 10
109.67770800000172
 20
-95.77222399999788
 10
109.6474820000017
 20
-95.72574199999788
 10
109.6157320000017
 20
-95.68052999999787
 10
109.5827120000017
 20
-95.63658799999787
 10
109.54842200000171
 20
-95.59391599999788
 10
109.5131160000017
 20
-95.55251399999787
 10
109.4765400000017
 20
-95.51238199999787
 10
109.4389480000017
 20
-95.47351999999786
 10
109.40008600000169
 20
-95.43592799999786
 10
109.36020800000169
 20
-95.39985999999786
 10
109.3193140000017
 20
-95.36506199999786
 10
109.2774040000017
 20
-95.33153399999786
 10
109.23473200000169
 20
-95.29927599999786
 10
109.19104400000168
 20
-95.26854199999786
 10
109.14659400000168
 20
-95.23907799999786
 10
109.10112800000168
 20
-95.21113799999786
 10
109.05490000000168
 20
-95.18446799999785
 10
109.00791000000169
 20
-95.15932199999786
 10
108.96041200000168
 20
-95.13569999999785
 10
108.91215200000168
 20
-95.11334799999784
 10
108.86338400000167
 20
-95.09251999999785
 10
108.81385400000168
 20
-95.07321599999784
 10
108.76381600000168
 20
-95.05543599999784
 10
108.71327000000167
 20
-95.03917999999784
 10
108.66221600000166
 20
-95.02444799999785
 10
108.61065400000167
 20
-95.01123999999784
 10
108.55883800000167
 20
-94.99955599999784
 10
108.50651400000167
 20
-94.98939599999784
 10
108.45393600000168
 20
-94.98075999999783
 10
108.40110400000167
 20
-94.97364799999782
 10
108.34801800000166
 20
-94.96831399999783
 10
108.29467800000167
 20
-94.96450399999783
 10
108.24133800000168
 20
-94.96221799999783
 10
108.18774400000167
 20
-94.96170999999782
 10
108.13415000000167
 20
-94.96272599999783
 10
108.08055600000166
 20
-94.96551999999784
 10
108.02696200000166
 20
-94.97009199999783
 10
107.97336800000166
 20
-94.97618799999783
 10
107.91977400000165
 20
-94.98406199999783
 10
107.86643400000166
 20
-94.99371399999784
 10
107.81309400000167
 20
-95.00514399999784
 10
107.76000800000166
 20
-95.01809799999783
 10
107.70717600000165
 20
-95.03282999999783
 10
107.65459800000166
 20
-95.04933999999783
 10
107.60227400000166
 20
-95.06762799999782
 10
107.55045800000165
 20
-95.08769399999784
 10
107.49889600000166
 20
-95.10953799999784
 10
107.44784200000166
 20
-95.13341399999784
 10
107.39729600000165
 20
-95.15906799999783
 10
107.34725800000164
 20
-95.18649999999784
 10
107.29772800000165
 20
-95.21596399999783
 10
107.24870600000166
 20
-95.24720599999783
 10
107.20019200000166
 20
-95.28022599999782
 10
107.15244000000166
 20
-95.31527799999782
 10
107.10545000000167
 20
-95.35210799999781
  0
LWPOLYLINE
  5
36
330
17
100
AcDbEntity
  8
0
100
AcDbPolyline
 90
641
 70
0
 10
123.55118799999921
 20
-134.79932399999836
 10
123.53137599999923
 20
-134.53033799999838
 10
123.51613599999922
 20
-134.26211399999835
 10
123.50521399999921
 20
-133.99490599999837
 10
123.49886399999923
 20
-133.72845999999836
 10
123.49683199999923
 20
-133.46277599999834
 10
123.49886399999923
 20
-133.19785399999836
 10
123.50521399999921
 20
-132.93369399999835
 10
123.51562799999921
 20
-132.67029599999833
 10
123.53010599999922
 20
-132.40765999999834
 10
123.54864799999922
 20
-132.14578599999837
 10
123.57099999999922
 20
-131.88467399999834
 10
123.59716199999923
 20
-131.62432399999835
 10
123.62713399999922
 20
-131.36473599999835
 10
123.66066199999922
 20
-131.10590999999835
 10
123.69799999999923
 20
-130.84784599999836
 10
123.73889399999922
 20
-130.59054399999835
 10
123.78308999999922
 20
-130.33374999999836
 10
123.83084199999921
 20
-130.07771799999836
 10
123.88189599999922
 20
-129.82244799999836
 10
123.93599799999923
 20
-129.56793999999834
 10
123.99340199999922
 20
-129.31419399999834
 10
124.05385399999922
 20
-129.06095599999833
 10
124.11735399999922
 20
-128.80847999999833
 10
124.18390199999922
 20
-128.55676599999833
 10
124.25324399999923
 20
-128.30555999999834
 10
124.32537999999923
 20
-128.05511599999835
 10
124.40030999999924
 20
-127.80543399999834
 10
124.47777999999923
 20
-127.55625999999835
 10
124.55778999999923
 20
-127.30784799999834
 10
124.64033999999923
 20
-127.05994399999834
 10
124.72542999999922
 20
-126.81280199999834
 10
124.81280599999923
 20
-126.56616799999833
 10
124.90246799999923
 20
-126.32029599999834
 10
124.99441599999923
 20
-126.07493199999833
 10
125.08864999999923
 20
-125.83032999999833
 10
125.18491599999923
 20
-125.58623599999832
 10
125.28321399999923
 20
-125.34264999999832
 10
125.38328999999923
 20
-125.09982599999832
 10
125.48539799999924
 20
-124.85750999999831
 10
125.58928399999922
 20
-124.61570199999831
 10
125.69494799999923
 20
-124.37465599999831
 10
125.80213599999924
 20
-124.13411799999831
 10
125.91084799999923
 20
-123.8940879999983
 10
126.02108399999923
 20
-123.65456599999831
 10
126.13284399999924
 20
-123.41555199999831
 10
126.24587399999923
 20
-123.17729999999833
 10
126.36017399999923
 20
-122.93955599999833
 10
126.47574399999922
 20
-122.70231999999832
 10
126.59232999999924
 20
-122.46559199999832
 10
126.71018599999923
 20
-122.22937199999832
 10
126.82880399999922
 20
-121.99365999999831
 10
126.94843799999923
 20
-121.75845599999832
 10
127.06883399999923
 20
-121.52375999999833
 10
127.18999199999922
 20
-121.28957199999832
 10
127.31191199999923
 20
-121.05589199999831
 10
127.43459399999922
 20
-120.82271999999831
 10
127.55778399999923
 20
-120.59005599999831
 10
127.68148199999924
 20
-120.35764599999831
 10
127.80543399999924
 20
-120.1257439999983
 10
127.92989399999924
 20
-119.89434999999831
 10
128.05460799999923
 20
-119.66346399999831
 10
128.17957599999923
 20
-119.43308599999831
 10
128.30454399999925
 20
-119.20296199999831
 10
128.42951199999925
 20
-118.97334599999832
 10
128.55498799999924
 20
-118.74372999999831
 10
128.68122599999927
 20
-118.51411399999832
 10
128.80822599999925
 20
-118.28449799999832
 10
128.93573399999926
 20
-118.05488199999832
 10
129.06374999999926
 20
-117.82526599999832
 10
129.19201999999927
 20
-117.59539599999833
 10
129.32079799999926
 20
-117.36552599999833
 10
129.44982999999925
 20
-117.13565599999833
 10
129.57886199999925
 20
-116.90553199999833
 10
129.70814799999926
 20
-116.67540799999834
 10
129.83743399999926
 20
-116.44502999999834
 10
129.96671999999927
 20
-116.21465199999834
 10
130.09575199999927
 20
-115.98401999999834
 10
130.2247839999993
 20
-115.75313399999834
 10
130.3533079999993
 20
-115.52199399999833
 10
130.48157799999927
 20
-115.29085399999833
 10
130.6093399999993
 20
-115.05945999999832
 10
130.73684799999927
 20
-114.82755799999832
 10
130.8635939999993
 20
-114.59540199999833
 10
130.98983199999927
 20
-114.36299199999833
 10
131.1153079999993
 20
-114.13032799999833
 10
131.24002199999927
 20
-113.89715599999832
 10
131.36371999999926
 20
-113.66372999999832
 10
131.48665599999927
 20
-113.43004999999832
 10
131.6085759999993
 20
-113.19586199999831
 10
131.7292259999993
 20
-112.96116599999833
 10
131.8488599999993
 20
-112.72621599999832
 10
131.96722399999928
 20
-112.49075799999831
 10
132.08431799999929
 20
-112.25479199999832
 10
132.1998879999993
 20
-112.01831799999833
 10
132.31393399999928
 20
-111.78133599999833
 10
132.4264559999993
 20
-111.54384599999833
 10
132.5374539999993
 20
-111.30584799999832
 10
132.64667399999928
 20
-111.06734199999832
 10
132.75411599999927
 20
-110.82807399999831
 10
132.8597799999993
 20
-110.58829799999832
 10
132.9634119999993
 20
-110.34775999999832
 10
133.0652659999993
 20
-110.1067139999983
 10
133.1648339999993
 20
-109.86490599999831
 10
133.2623699999993
 20
-109.62258999999831
 10
133.35761999999932
 20
-109.37951199999831
 10
133.4505839999993
 20
-109.13567199999831
 10
133.54126199999928
 20
-108.89106999999831
 10
133.6293999999993
 20
-108.64570599999831
 10
133.71499799999927
 20
-108.39957999999831
 10
133.7980559999993
 20
-108.15269199999831
 10
133.87857399999928
 20
-107.9050419999983
 10
133.9562979999993
 20
-107.6566299999983
 10
134.0312279999993
 20
-107.4074559999983
 10
134.10310999999928
 20
-107.1572659999983
 10
134.1721979999993
 20
-106.9063139999983
 10
134.23823799999928
 20
-106.6543459999983
 10
134.30097599999928
 20
-106.4016159999983
 10
134.3606659999993
 20
-106.14786999999829
 10
134.4170539999993
 20
-105.89310799999829
 10
134.47013999999928
 20
-105.63732999999829
 10
134.51966999999928
 20
-105.3807899999983
 10
134.56564399999928
 20
-105.12323399999829
 10
134.6080619999993
 20
-104.8646619999983
 10
134.6469239999993
 20
-104.6050739999983
 10
134.6819759999993
 20
-104.34421599999831
 10
134.71321799999933
 20
-104.0823419999983
 10
134.7406499999993
 20
-103.8194519999983
 10
134.7642719999993
 20
-103.55529199999829
 10
134.7825599999993
 20
-103.5954239999983
 10
134.80084799999932
 20
-103.6355559999983
 10
134.8191359999993
 20
-103.6756879999983
 10
134.83742399999932
 20
-103.7158199999983
 10
134.8557119999993
 20
-103.75595199999832
 10
134.8739999999993
 20
-103.79608399999832
 10
134.8922879999993
 20
-103.83621599999832
 10
134.9108299999993
 20
-103.87634799999833
 10
134.9293719999993
 20
-103.91647999999833
 10
134.9479139999993
 20
-103.95661199999833
 10
134.96645599999928
 20
-103.99674399999833
 10
134.98499799999928
 20
-104.03687599999834
 10
135.00353999999928
 20
-104.07700799999834
 10
135.02208199999927
 20
-104.11713999999834
 10
135.04062399999927
 20
-104.15727199999836
 10
135.05916599999927
 20
-104.19740399999836
 10
135.07770799999926
 20
-104.23753599999836
 10
135.09650399999924
 20
-104.27766799999836
 10
135.11529999999922
 20
-104.31779999999837
 10
135.13409599999923
 20
-104.35793199999837
 10
135.1528919999992
 20
-104.39806399999837
 10
135.1716879999992
 20
-104.43819599999838
 10
135.1904839999992
 20
-104.47832799999838
 10
135.20927999999918
 20
-104.51845999999838
 10
135.22807599999916
 20
-104.55859199999838
 10
135.24687199999914
 20
-104.5987239999984
 10
135.26566799999915
 20
-104.6391099999984
 10
135.28471799999915
 20
-104.6794959999984
 10
135.30376799999917
 20
-104.71988199999839
 10
135.3228179999992
 20
-104.76026799999839
 10
135.34186799999918
 20
-104.80065399999839
 10
135.3609179999992
 20
-104.84103999999839
 10
135.37996799999922
 20
-104.88142599999838
 10
135.39901799999922
 20
-104.92181199999838
 10
135.41806799999924
 20
-104.96219799999838
 10
135.43711799999926
 20
-105.00258399999838
 10
135.45616799999925
 20
-105.04296999999838
 10
135.47521799999927
 20
-105.08335599999837
 10
135.49452199999928
 20
-105.12374199999837
 10
135.51382599999928
 20
-105.16438199999837
 10
135.5331299999993
 20
-105.20502199999838
 10
135.5524339999993
 20
-105.24566199999839
 10
135.5717379999993
 20
-105.28630199999839
 10
135.5910419999993
 20
-105.3269419999984
 10
135.6103459999993
 20
-105.36758199999841
 10
135.62964999999932
 20
-105.40822199999842
 10
135.64895399999932
 20
-105.44886199999841
 10
135.66825799999933
 20
-105.48950199999842
 10
135.68756199999933
 20
-105.53014199999843
 10
135.70686599999934
 20
-105.57078199999843
 10
135.72616999999934
 20
-105.61167599999844
 10
135.74572799999933
 20
-105.65256999999843
 10
135.76528599999935
 20
-105.69346399999844
 10
135.78484399999934
 20
-105.73435799999844
 10
135.80440199999933
 20
-105.77525199999845
 10
135.82395999999935
 20
-105.81614599999844
 10
135.84351799999934
 20
-105.85703999999843
 10
135.86307599999935
 20
-105.89793399999844
 10
135.88263399999934
 20
-105.93908199999844
 10
135.90219199999933
 20
-105.98022999999843
 10
135.92174999999935
 20
-106.02137799999842
 10
135.94130799999934
 20
-106.06252599999841
 10
135.96086599999933
 20
-106.1036739999984
 10
135.98067799999933
 20
-106.14482199999841
 10
135.99490199999934
 20
-106.17453999999842
 10
136.00912599999936
 20
-106.20425799999842
 10
136.02334999999937
 20
-106.23397599999842
 10
136.03757399999938
 20
-106.26369399999842
 10
136.0517979999994
 20
-106.29341199999843
 10
136.06602199999938
 20
-106.32312999999843
 10
136.0802459999994
 20
-106.35310199999843
 10
136.0944699999994
 20
-106.38307399999843
 10
136.10869399999942
 20
-106.41304599999843
 10
136.12291799999943
 20
-106.44301799999843
 10
136.13714199999944
 20
-106.47298999999843
 10
136.15136599999946
 20
-106.50296199999843
 10
136.16558999999947
 20
-106.53293399999842
 10
136.18006799999947
 20
-106.56290599999842
 10
136.19454599999946
 20
-106.59313199999843
 10
136.2090239999995
 20
-106.62335799999843
 10
136.22350199999948
 20
-106.65358399999845
 10
136.23797999999948
 20
-106.68380999999846
 10
136.25245799999948
 20
-106.71403599999846
 10
136.2669359999995
 20
-106.74426199999847
 10
136.2814139999995
 20
-106.77448799999847
 10
136.2958919999995
 20
-106.80496799999848
 10
136.3103699999995
 20
-106.83544799999848
 10
136.32484799999952
 20
-106.86592799999848
 10
136.33932599999952
 20
-106.89640799999847
 10
136.3538039999995
 20
-106.92688799999848
 10
136.3682819999995
 20
-106.95736799999848
 10
136.38275999999954
 20
-106.98784799999848
 10
136.39723799999953
 20
-107.01832799999849
 10
136.41171599999953
 20
-107.04906199999849
 10
136.42619399999953
 20
-107.07979599999848
 10
136.44067199999955
 20
-107.11052999999846
 10
136.45514999999955
 20
-107.14126399999846
 10
136.46962799999955
 20
-107.17199799999845
 10
136.48435999999955
 20
-107.20273199999845
 10
136.49909199999954
 20
-107.23371999999846
 10
136.51382399999954
 20
-107.26470799999846
 10
136.52855599999955
 20
-107.29569599999847
 10
136.54328799999954
 20
-107.32668399999847
 10
136.55801999999954
 20
-107.35767199999847
 10
136.57275199999953
 20
-107.38865999999848
 10
136.58748399999953
 20
-107.41964799999847
 10
136.60221599999954
 20
-107.45088999999848
 10
136.61694799999952
 20
-107.48213199999847
 10
136.63167999999953
 20
-107.51337399999848
 10
136.64641199999951
 20
-107.54461599999847
 10
136.66114399999952
 20
-107.57585799999846
 10
136.67587599999953
 20
-107.60709999999847
 10
136.69060799999951
 20
-107.63859599999847
 10
136.70533999999952
 20
-107.67009199999848
 10
136.7200719999995
 20
-107.70158799999848
 10
136.7348039999995
 20
-107.73308399999848
 10
136.74953599999952
 20
-107.76457999999849
 10
136.7642679999995
 20
-107.79607599999851
 10
136.7789999999995
 20
-107.8278259999985
 10
136.79373199999952
 20
-107.8595759999985
 10
136.8087179999995
 20
-107.8913259999985
 10
136.82370399999948
 20
-107.9230759999985
 10
136.83868999999947
 20
-107.9548259999985
 10
136.85367599999947
 20
-107.98657599999851
 10
136.86866199999946
 20
-108.0185799999985
 10
136.88364799999945
 20
-108.0505839999985
 10
136.89863399999945
 20
-108.08258799999848
 10
136.91361999999944
 20
-108.11459199999848
 10
137.00759999999946
 20
-108.31702999999848
 10
137.10056399999945
 20
-108.51972199999848
 10
137.19251199999943
 20
-108.72266799999848
 10
137.28344399999943
 20
-108.92612199999847
 10
137.37335999999942
 20
-109.12982999999848
 10
137.46251399999943
 20
-109.33379199999848
 10
137.55065199999942
 20
-109.53826199999848
 10
137.6377739999994
 20
-109.74298599999848
 10
137.72387999999944
 20
-109.94821799999848
 10
137.80922399999943
 20
-110.15395799999848
 10
137.89355199999943
 20
-110.36020599999848
 10
137.97711799999942
 20
-110.56696199999848
 10
138.05966799999942
 20
-110.77422599999848
 10
138.14120199999945
 20
-110.98199799999847
 10
138.22197399999945
 20
-111.19027799999847
 10
138.30172999999942
 20
-111.39931999999847
 10
138.38072399999945
 20
-111.60886999999846
 10
138.45870199999945
 20
-111.81918199999846
 10
138.53591799999944
 20
-112.03025599999846
 10
138.61237199999945
 20
-112.24183799999847
 10
138.68780999999944
 20
-112.45418199999847
 10
138.76248599999946
 20
-112.66728799999848
 10
138.83639999999946
 20
-112.88115599999847
 10
138.90929799999947
 20
-113.09603999999847
 10
138.98143399999947
 20
-113.31168599999846
 10
139.05280799999946
 20
-113.52809399999846
 10
139.12341999999947
 20
-113.74551799999846
 10
139.19326999999944
 20
-113.96370399999846
 10
139.26235799999947
 20
-114.18290599999845
 10
139.33042999999947
 20
-114.40312399999846
 10
139.39773999999946
 20
-114.62435799999845
 10
139.46428799999944
 20
-114.84635399999846
 10
139.53007399999944
 20
-115.06961999999847
 10
139.59509799999944
 20
-115.29390199999845
 10
139.65935999999945
 20
-115.51919999999846
 10
139.72311399999947
 20
-115.74551399999847
 10
139.78610599999948
 20
-115.97309799999847
 10
139.84833599999948
 20
-116.20169799999846
 10
139.90980399999947
 20
-116.43156799999845
 10
139.97050999999948
 20
-116.66270799999846
 10
140.03045399999945
 20
-116.89486399999846
 10
140.08988999999949
 20
-117.12828999999846
 10
140.14856399999948
 20
-117.36298599999844
 10
140.20647599999947
 20
-117.59920599999845
 10
140.26387999999946
 20
-117.83669599999845
 10
140.32052199999944
 20
-118.07545599999845
 10
140.37640199999944
 20
-118.31573999999846
 10
140.43177399999945
 20
-118.55729399999846
 10
140.48638399999945
 20
-118.80037199999846
 10
140.54048599999945
 20
-119.04471999999846
 10
140.59382599999947
 20
-119.29059199999847
 10
140.64665799999943
 20
-119.53798799999846
 10
140.69898199999946
 20
-119.78690799999846
 10
140.75054399999945
 20
-120.03735199999846
 10
140.80159799999944
 20
-120.28957399999847
 10
140.85188999999946
 20
-120.54331999999847
 10
140.90167399999945
 20
-120.79858999999847
 10
140.95094999999944
 20
-121.05563799999847
 10
140.99971799999943
 20
-121.31420999999845
 10
141.04772399999945
 20
-121.57455999999846
 10
141.09522199999944
 20
-121.83668799999845
 10
141.14221199999943
 20
-122.10059399999845
 10
141.18869399999943
 20
-122.36627799999845
 10
141.23466799999943
 20
-122.63373999999844
 10
141.27454599999945
 20
-122.86843599999844
 10
141.31340799999944
 20
-123.09906799999844
 10
141.35125399999944
 20
-123.32563599999844
 10
141.38808399999945
 20
-123.54839399999844
 10
141.42389799999944
 20
-123.76734199999845
 10
141.45894999999945
 20
-123.98273399999846
 10
141.49298599999943
 20
-124.19482399999845
 10
141.52600599999946
 20
-124.40335799999845
 10
141.55826399999944
 20
-124.60884399999846
 10
141.58950599999943
 20
-124.81128199999847
 10
141.61998599999944
 20
-125.01067199999848
 10
141.64944999999943
 20
-125.20726799999848
 10
141.67815199999944
 20
-125.40106999999847
 10
141.70609199999947
 20
-125.59233199999846
 10
141.73326999999946
 20
-125.78105399999846
 10
141.75943199999944
 20
-125.96723599999846
 10
141.78483199999945
 20
-126.15138599999847
 10
141.80946999999944
 20
-126.33324999999847
 10
141.83334599999947
 20
-126.51308199999848
 10
141.85645999999946
 20
-126.69113599999848
 10
141.87881199999944
 20
-126.86741199999848
 10
141.90040199999945
 20
-127.0419099999985
 10
141.92122999999947
 20
-127.21488399999849
 10
141.94129599999945
 20
-127.38658799999848
 10
141.96085399999944
 20
-127.55702199999848
 10
141.97964999999942
 20
-127.72618599999848
 10
141.99768399999942
 20
-127.89433399999848
 10
142.01520999999943
 20
-128.06171999999847
 10
142.03197399999942
 20
-128.2283439999985
 10
142.04822999999942
 20
-128.3942059999985
 10
142.06372399999944
 20
-128.55955999999847
 10
142.07870999999943
 20
-128.72440599999848
 10
142.09293399999945
 20
-128.88899799999848
 10
142.10664999999943
 20
-129.0533359999985
 10
142.11985799999943
 20
-129.21767399999848
 10
142.13255799999942
 20
-129.38201199999847
 10
142.14474999999942
 20
-129.5466039999985
 10
142.1561799999994
 20
-129.71144999999848
 10
142.1671019999994
 20
-129.8768039999985
 10
142.17751599999943
 20
-130.0426659999985
 10
142.18742199999943
 20
-130.2090359999985
 10
142.19707399999942
 20
-130.3764219999985
 10
142.2062179999994
 20
-130.54456999999852
 10
142.2148539999994
 20
-130.7137339999985
 10
142.22298199999943
 20
-130.88416799999854
 10
142.2306019999994
 20
-131.05587199999854
 10
142.23796799999943
 20
-131.22884599999855
 10
142.24482599999942
 20
-131.40334399999855
 10
142.2514299999994
 20
-131.57936599999854
 10
142.25752599999942
 20
-131.75716599999856
 10
142.26336799999942
 20
-131.93699799999857
 10
142.26870199999942
 20
-132.11886199999856
 10
142.27378199999941
 20
-132.30275799999856
 10
142.2786079999994
 20
-132.48893999999856
 10
142.2829259999994
 20
-132.67740799999856
 10
142.2869899999994
 20
-132.86841599999855
 10
142.2907999999994
 20
-133.06196399999854
 10
142.2943559999994
 20
-133.25830599999853
 10
142.29765799999942
 20
-133.45744199999854
 10
142.3007059999994
 20
-133.65962599999855
 10
142.3034999999994
 20
-133.86485799999855
 10
142.3060399999994
 20
-134.07339199999853
 10
142.3083259999994
 20
-134.28522799999854
 10
142.3103579999994
 20
-134.50036599999854
 10
142.3007059999994
 20
-134.50392199999854
 10
142.2910539999994
 20
-134.50747799999854
 10
142.2814019999994
 20
-134.51103399999855
 10
142.2717499999994
 20
-134.51458999999855
 10
142.26209799999938
 20
-134.51814599999855
 10
142.2524459999994
 20
-134.52170199999856
 10
142.24279399999938
 20
-134.52525799999856
 10
142.2331419999994
 20
-134.52881399999856
 10
142.22348999999937
 20
-134.53236999999856
 10
142.21383799999938
 20
-134.53592599999854
 10
142.20418599999937
 20
-134.53948199999854
 10
142.19453399999938
 20
-134.54303799999855
 10
142.18488199999936
 20
-134.54659399999855
 10
142.17522999999937
 20
-134.55014999999855
 10
142.16557799999936
 20
-134.55370599999856
 10
142.15592599999937
 20
-134.55726199999856
 10
142.14627399999935
 20
-134.56081799999856
 10
142.13662199999936
 20
-134.56437399999857
 10
142.12722399999936
 20
-134.56792999999857
 10
142.11782599999933
 20
-134.57148599999857
 10
142.10842799999932
 20
-134.57504199999858
 10
142.09902999999932
 20
-134.57859799999858
 10
142.0896319999993
 20
-134.58215399999858
 10
142.0802339999993
 20
-134.58570999999858
 10
142.0708359999993
 20
-134.5892659999986
 10
142.0614379999993
 20
-134.5928219999986
 10
142.05203999999927
 20
-134.5963779999986
 10
142.04264199999926
 20
-134.5999339999986
 10
142.03324399999926
 20
-134.6034899999986
 10
142.02384599999925
 20
-134.6070459999986
 10
142.01444799999925
 20
-134.6106019999986
 10
142.00504999999924
 20
-134.6141579999986
 10
141.9956519999992
 20
-134.6177139999986
 10
141.9862539999992
 20
-134.62126999999862
 10
141.9768559999992
 20
-134.62482599999862
 10
141.9677119999992
 20
-134.62838199999862
 10
141.95856799999925
 20
-134.63193799999863
 10
141.94942399999925
 20
-134.63549399999863
 10
141.94027999999926
 20
-134.63904999999863
 10
141.93113599999927
 20
-134.64260599999864
 10
141.92199199999928
 20
-134.64616199999864
 10
141.91284799999931
 20
-134.64971799999864
 10
141.90370399999932
 20
-134.65327399999865
 10
141.89455999999933
 20
-134.65682999999865
 10
141.88541599999934
 20
-134.66038599999865
 10
141.87627199999937
 20
-134.66394199999866
 10
141.86712799999938
 20
-134.66749799999866
 10
141.8579839999994
 20
-134.67105399999866
 10
141.8488399999994
 20
-134.67460999999867
 10
141.8396959999994
 20
-134.67816599999867
 10
141.83055199999944
 20
-134.68172199999867
 10
141.82140799999945
 20
-134.68527799999865
 10
141.81226399999946
 20
-134.68883399999865
 10
141.80337399999948
 20
-134.69238999999865
 10
141.79448399999947
 20
-134.69594599999866
 10
141.7855939999995
 20
-134.69950199999866
 10
141.77670399999948
 20
-134.70305799999866
 10
141.7678139999995
 20
-134.70661399999867
 10
141.7589239999995
 20
-134.71016999999867
 10
141.75003399999952
 20
-134.71372599999867
 10
141.74114399999954
 20
-134.7170279999987
 10
141.73225399999953
 20
-134.7205839999987
 10
141.72336399999955
 20
-134.7238859999987
 10
141.71447399999954
 20
-134.7271879999987
 10
141.69567799999956
 20
-134.7345539999987
 10
141.67688199999958
 20
-134.74191999999871
 10
141.65808599999957
 20
-134.7492859999987
 10
141.6392899999996
 20
-134.7566519999987
 10
141.6204939999996
 20
-134.7640179999987
 10
141.60169799999963
 20
-134.77112999999872
 10
141.58290199999962
 20
-134.77824199999873
 10
141.56435999999962
 20
-134.78535399999873
 10
141.54581799999963
 20
-134.7924659999987
 10
141.52727599999966
 20
-134.79957799999872
 10
141.50873399999966
 20
-134.80668999999872
 10
141.49019199999967
 20
-134.81380199999873
 10
141.47190399999965
 20
-134.82091399999874
 10
141.45361599999964
 20
-134.82802599999874
 10
141.43532799999966
 20
-134.83488399999877
 10
141.41703999999964
 20
-134.84174199999876
 10
141.39900599999964
 20
-134.84859999999878
 10
141.38097199999964
 20
-134.8554579999988
 10
141.36293799999964
 20
-134.8623159999988
 10
141.34515799999963
 20
-134.86917399999882
 10
141.3273779999996
 20
-134.87603199999882
 10
141.3095979999996
 20
-134.88288999999884
 10
141.29181799999958
 20
-134.88949399999882
 10
141.2742919999996
 20
-134.8960979999988
 10
141.2567659999996
 20
-134.9027019999988
 10
141.23923999999963
 20
-134.9093059999988
 10
141.2219679999996
 20
-134.91590999999877
 10
141.20469599999961
 20
-134.92225999999877
 10
141.18742399999962
 20
-134.92860999999877
 10
141.17040599999962
 20
-134.93495999999877
 10
141.1533879999996
 20
-134.94130999999877
 10
141.1366239999996
 20
-134.94765999999876
 10
141.11985999999962
 20
-134.95375599999875
 10
141.1030959999996
 20
-134.95985199999876
 10
141.08658599999958
 20
-134.96594799999875
 10
141.07007599999957
 20
-134.97204399999876
 10
141.05381999999958
 20
-134.97788599999876
 10
141.03756399999958
 20
-134.98372799999876
 10
141.0213079999996
 20
-134.98956999999876
 10
141.0053059999996
 20
-134.99541199999877
 10
140.9893039999996
 20
-135.00099999999878
 10
140.9735559999996
 20
-135.0065879999988
 10
140.9578079999996
 20
-135.01217599999882
 10
140.94231399999958
 20
-135.01776399999883
 10
140.92681999999957
 20
-135.0230979999988
 10
140.9115799999996
 20
-135.02843199999882
 10
140.8963399999996
 20
-135.0337659999988
 10
140.88135399999962
 20
-135.03884599999878
 10
140.86636799999962
 20
-135.04392599999878
 10
140.85163599999962
 20
-135.04900599999877
 10
140.83715799999962
 20
-135.05383199999878
 10
140.82267999999962
 20
-135.0586579999988
 10
140.8084559999996
 20
-135.0634839999988
 10
140.7942319999996
 20
-135.0680559999988
 10
140.7802619999996
 20
-135.0726279999988
 10
140.76629199999962
 20
-135.0771999999988
 10
140.75257599999964
 20
-135.08151799999882
 10
140.73911399999963
 20
-135.08583599999884
 10
140.72565199999963
 20
-135.09015399999885
 10
140.71244399999964
 20
-135.09421799999885
 10
140.69923599999962
 20
-135.09828199999882
 10
140.6862819999996
 20
-135.10209199999883
 10
140.6735819999996
 20
-135.10590199999882
 10
140.66088199999962
 20
-135.1097119999988
 10
140.40434199999964
 20
-135.16406799999882
 10
140.14805599999963
 20
-135.21842399999883
 10
139.89176999999964
 20
-135.27277999999885
 10
139.63548399999962
 20
-135.3271359999989
 10
139.37894399999962
 20
-135.3814919999989
 10
139.12265799999963
 20
-135.4358479999989
 10
138.86637199999961
 20
-135.49020399999893
 10
138.61008599999963
 20
-135.54455999999894
 10
138.35354599999962
 20
-135.59891599999895
 10
138.0972599999996
 20
-135.65327199999896
 10
137.84097399999962
 20
-135.70762799999898
 10
137.5846879999996
 20
-135.761983999999
 10
137.3281479999996
 20
-135.816339999999
 10
137.0718619999996
 20
-135.87069599999901
 10
136.8155759999996
 20
-135.92505199999903
 10
136.5592899999996
 20
-135.97940799999904
 10
136.3027499999996
 20
-136.03376399999905
 10
136.0464639999996
 20
-136.08811999999907
 10
135.7901779999996
 20
-136.14247599999908
 10
135.53389199999958
 20
-136.1968319999991
 10
135.27735199999958
 20
-136.2511879999991
 10
135.0210659999996
 20
-136.30554399999912
 10
134.76477999999958
 20
-136.35989999999913
 10
134.5084939999996
 20
-136.41425599999914
 10
134.25195399999959
 20
-136.46861199999918
 10
133.99566799999957
 20
-136.5229679999992
 10
133.73938199999958
 20
-136.5773239999992
 10
133.48309599999956
 20
-136.63167999999922
 10
133.22680999999957
 20
-136.68603599999923
 10
132.97026999999957
 20
-136.74039199999925
 10
132.71398399999956
 20
-136.79474799999926
 10
132.45769799999957
 20
-136.84910399999927
 10
132.20141199999955
 20
-136.90345999999928
 10
131.94487199999955
 20
-136.9578159999993
 10
131.68858599999956
 20
-137.0121719999993
 10
131.43229999999954
 20
-137.06652799999932
 10
131.17601399999955
 20
-137.12088399999934
 10
130.91947399999955
 20
-137.17523999999935
 10
130.66318799999954
 20
-137.22959599999936
 10
130.40690199999955
 20
-137.28395199999937
 10
130.15061599999953
 20
-137.3383079999994
 10
129.89432999999954
 20
-137.3926639999994
 10
129.63804399999952
 20
-137.4470199999994
 10
129.38175799999954
 20
-137.50137599999942
 10
129.12547199999952
 20
-137.55573199999944
 10
128.86918599999953
 20
-137.61008799999948
 10
128.6128999999995
 20
-137.6644439999995
 10
128.35661399999952
 20
-137.7187999999995
 10
128.1003279999995
 20
-137.77315599999952
 10
127.8440419999995
 20
-137.82751199999953
 10
127.5877559999995
 20
-137.88186799999954
 10
127.3314699999995
 20
-137.93622399999956
 10
127.0751839999995
 20
-137.99057999999957
 10
126.81889799999949
 20
-138.04493599999958
 10
126.56261199999949
 20
-138.0992919999996
 10
126.30632599999949
 20
-138.1536479999996
 10
126.05003999999948
 20
-138.20800399999962
 10
125.79375399999948
 20
-138.26235999999963
 10
125.53746799999948
 20
-138.31671599999964
 10
125.28118199999948
 20
-138.37107199999966
 10
125.02489599999946
 20
-138.42542799999967
 10
124.76860999999946
 20
-138.47978399999968
 10
124.51232399999945
 20
-138.5341399999997
 10
124.25603799999945
 20
-138.5884959999997
 10
124.23774999999945
 20
-138.5277899999997
 10
124.21971599999945
 20
-138.46708399999972
 10
124.20193599999945
 20
-138.4063779999997
 10
124.18440999999945
 20
-138.34541799999968
 10
124.16713799999945
 20
-138.2844579999997
 10
124.15011999999945
 20
-138.2234979999997
 10
124.13335599999945
 20
-138.16253799999967
 10
124.11684599999946
 20
-138.10157799999968
 10
124.10058999999944
 20
-138.0403639999997
 10
124.08458799999946
 20
-137.9791499999997
 10
124.06883999999945
 20
-137.91793599999968
 10
124.05334599999945
 20
-137.8567219999997
 10
124.03810599999946
 20
-137.7955079999997
 10
124.02311999999945
 20
-137.7342939999997
 10
124.00838799999944
 20
-137.67307999999971
 10
123.99390999999945
 20
-137.6118659999997
 10
123.97968599999945
 20
-137.55065199999973
 10
123.96571599999945
 20
-137.48943799999972
 10
123.95199999999946
 20
-137.42822399999972
 10
123.93853799999945
 20
-137.36726399999972
 10
123.92532999999945
 20
-137.30630399999973
 10
123.91212199999944
 20
-137.2453439999997
 10
123.89916799999945
 20
-137.1843839999997
 10
123.88646799999944
 20
-137.12342399999972
 10
123.87402199999944
 20
-137.06246399999972
 10
123.86182999999944
 20
-137.0017579999997
 10
123.84989199999944
 20
-136.9410519999997
 10
123.83820799999944
 20
-136.8803459999997
 10
123.82677799999944
 20
-136.81989399999966
 10
123.81560199999944
 20
-136.75944199999967
 10
123.80467999999944
 20
-136.69898999999964
 10
123.79375799999944
 20
-136.63879199999965
 10
123.78308999999945
 20
-136.57859399999967
 10
123.77267599999945
 20
-136.51864999999967
 10
123.76251599999944
 20
-136.45870599999967
 10
123.75260999999945
 20
-136.39901599999965
 10
123.74295799999945
 20
-136.33932599999966
 10
123.73355999999944
 20
-136.27988999999965
 10
123.72416199999945
 20
-136.22045399999965
 10
123.71501799999946
 20
-136.16127199999966
 10
123.70612799999945
 20
-136.10208999999966
 10
123.69749199999946
 20
-136.04316199999968
 10
123.68910999999945
 20
-135.9844879999997
 10
123.68072799999945
 20
-135.92581399999966
 10
123.67259999999945
 20
-135.86739399999968
 10
123.66472599999945
 20
-135.80922799999965
 10
123.65710599999946
 20
-135.75131599999966
 10
123.64973999999945
 20
-135.69340399999967
 10
123.64237399999945
 20
-135.6357459999997
 10
123.63526199999944
 20
-135.57834199999968
 10
123.62840399999945
 20
-135.52119199999967
 10
123.62179999999945
 20
-135.46429599999968
 10
123.61519599999944
 20
-135.40739999999965
 10
123.60884599999946
 20
-135.35075799999967
 10
123.60274999999945
 20
-135.29436999999967
 10
123.59690799999944
 20
-135.2382359999997
 10
123.59106599999944
 20
-135.18235599999966
 10
123.58547799999944
 20
-135.12672999999967
 10
123.58014399999944
 20
-135.07135799999966
 10
123.57480999999943
 20
-135.01623999999967
 10
123.56972999999944
 20
-134.96137599999966
 10
123.56490399999944
 20
-134.90701999999965
 10
123.56033199999945
 20
-134.85291799999968
 10
123.55575999999945
 20
-134.79906999999966
  0
LWPOLYLINE
  5
37
330
17
100
AcDbEntity
  8
0
100
AcDbPolyline
 90
705
 70
0
 10
116.78843799999946
 20
-107.29747399999967
 10
116.77599199999946
 20
-107.23371999999966
 10
116.76303799999947
 20
-107.17021999999967
 10
116.74982999999946
 20
-107.10697399999967
 10
116.73611399999947
 20
-107.04398199999967
 10
116.72214399999947
 20
-106.98149799999968
 10
116.70766599999946
 20
-106.91926799999968
 10
116.69293399999947
 20
-106.85729199999966
 10
116.67769399999946
 20
-106.79556999999967
 10
116.66219999999947
 20
-106.73410199999967
 10
116.64619799999947
 20
-106.67314199999966
 10
116.62994199999947
 20
-106.61243599999966
 10
116.61343199999946
 20
-106.55198399999966
 10
116.59641399999947
 20
-106.49178599999966
 10
116.57914199999946
 20
-106.43184199999966
 10
116.56161599999946
 20
-106.37240599999967
 10
116.54358199999946
 20
-106.31322399999966
 10
116.52529399999946
 20
-106.25429599999966
 10
116.50675199999947
 20
-106.19562199999966
 10
116.48770199999947
 20
-106.13720199999966
 10
116.46839799999947
 20
-106.07903599999966
 10
116.44883999999946
 20
-106.02137799999967
 10
116.42902799999946
 20
-105.96397399999967
 10
116.40870799999948
 20
-105.90682399999966
 10
116.38813399999947
 20
-105.84992799999966
 10
116.36730599999947
 20
-105.79328599999965
 10
116.34622399999947
 20
-105.73689799999967
 10
116.32488799999946
 20
-105.68076399999967
 10
116.30304399999946
 20
-105.62513799999967
 10
116.28094599999946
 20
-105.56976599999966
 10
116.25859399999946
 20
-105.51464799999967
 10
116.23598799999945
 20
-105.45978399999966
 10
116.21312799999946
 20
-105.40517399999966
 10
116.19001399999946
 20
-105.35081799999966
 10
116.16664599999946
 20
-105.29671599999966
 10
116.14302399999946
 20
-105.24286799999966
 10
116.11914799999946
 20
-105.18927399999966
 10
116.09501799999946
 20
-105.13618799999966
 10
116.07063399999946
 20
-105.08335599999965
 10
116.04599599999946
 20
-105.03077799999966
 10
116.02110399999945
 20
-104.97845399999966
 10
115.99595799999946
 20
-104.92638399999966
 10
115.97055799999946
 20
-104.87456799999966
 10
115.94490399999945
 20
-104.82300599999967
 10
115.91899599999945
 20
-104.77169799999966
 10
115.89283399999945
 20
-104.72064399999965
 10
115.86667199999945
 20
-104.66984399999966
 10
115.84025599999946
 20
-104.61929799999966
 10
115.81358599999946
 20
-104.56900599999966
 10
115.78666199999945
 20
-104.51896799999966
 10
115.75948399999945
 20
-104.46943799999966
 10
115.73205199999944
 20
-104.42016199999966
 10
115.70461999999945
 20
-104.37113999999966
 10
115.67693399999945
 20
-104.32237199999966
 10
115.64899399999945
 20
-104.27385799999966
 10
115.62079999999945
 20
-104.22559799999966
 10
115.59260599999945
 20
-104.17759199999966
 10
115.56415799999945
 20
-104.12983999999966
 10
115.53545599999944
 20
-104.08234199999966
 10
115.50675399999945
 20
-104.03509799999966
 10
115.47779799999945
 20
-103.98810799999967
 10
115.44858799999945
 20
-103.94137199999966
 10
115.41937799999945
 20
-103.89488999999966
 10
115.38991399999945
 20
-103.84866199999966
 10
115.36044999999946
 20
-103.80268799999966
 10
115.39448599999946
 20
-103.74756999999967
 10
115.42775999999945
 20
-103.69219799999966
 10
115.46052599999946
 20
-103.63657199999966
 10
115.49278399999946
 20
-103.58069199999966
 10
115.52453399999946
 20
-103.52481199999964
 10
115.55577599999945
 20
-103.46867799999964
 10
115.58650999999945
 20
-103.41228999999966
 10
115.61673599999946
 20
-103.35564799999965
 10
115.64645399999947
 20
-103.29900599999965
 10
115.67566399999947
 20
-103.24210999999966
 10
115.70436599999947
 20
-103.18495999999965
 10
115.73255999999947
 20
-103.12755599999964
 10
115.76024599999946
 20
-103.07015199999964
 10
115.78742399999946
 20
-103.01249399999965
 10
115.81409399999947
 20
-102.95458199999965
 10
115.84025599999947
 20
-102.89666999999965
 10
115.86590999999947
 20
-102.83850399999965
 10
115.89105599999947
 20
-102.78033799999966
 10
115.91569399999946
 20
-102.72191799999965
 10
115.93982399999948
 20
-102.66324399999965
 10
115.96344599999948
 20
-102.60456999999965
 10
115.98655999999947
 20
-102.54564199999965
 10
116.00916599999948
 20
-102.48671399999964
 10
116.03126399999948
 20
-102.42753199999963
 10
116.05310799999948
 20
-102.36834999999964
 10
116.07444399999947
 20
-102.30891399999965
 10
116.09527199999948
 20
-102.24947799999964
 10
116.11559199999947
 20
-102.18978799999964
 10
116.13540399999947
 20
-102.13009799999963
 10
116.15470799999947
 20
-102.07015399999965
 10
116.17350399999948
 20
-102.01020999999965
 10
116.19179199999948
 20
-101.95001199999963
 10
116.20957199999947
 20
-101.88981399999963
 10
116.22684399999947
 20
-101.82961599999963
 10
116.24386199999947
 20
-101.76916399999962
 10
116.26037199999948
 20
-101.70871199999962
 10
116.27637399999946
 20
-101.64825999999962
 10
116.29186799999947
 20
-101.58755399999963
 10
116.30685399999948
 20
-101.52684799999963
 10
116.32133199999947
 20
-101.46614199999965
 10
116.33555599999947
 20
-101.40518199999964
 10
116.34927199999946
 20
-101.34422199999963
 10
116.36247999999947
 20
-101.28326199999964
 10
116.37517999999947
 20
-101.22204799999965
 10
116.38737199999947
 20
-101.16083399999964
 10
116.39930999999947
 20
-101.09961999999965
 10
116.41073999999948
 20
-101.03840599999965
 10
116.42166199999949
 20
-100.97719199999966
 10
116.43207599999948
 20
-100.91572399999966
 10
116.44223599999948
 20
-100.85425599999965
 10
116.45188799999949
 20
-100.79278799999965
 10
116.46103199999949
 20
-100.73131999999964
 10
116.46966799999949
 20
-100.66985199999964
 10
116.4780499999995
 20
-100.60838399999963
 10
116.4859239999995
 20
-100.54691599999963
 10
116.49328999999949
 20
-100.48544799999962
 10
116.50014799999948
 20
-100.42397999999962
 10
116.5067519999995
 20
-100.36251199999961
 10
116.5128479999995
 20
-100.3010439999996
 10
116.5184359999995
 20
-100.2395759999996
 10
116.5237699999995
 20
-100.1781079999996
 10
116.5285959999995
 20
-100.11663999999959
 10
116.5329139999995
 20
-100.05517199999959
 10
116.53697799999951
 20
-99.99370399999958
 10
116.6413719999995
 20
-99.96601799999958
 10
116.7457659999995
 20
-99.93833199999959
 10
116.85041399999949
 20
-99.91064599999959
 10
116.95506199999949
 20
-99.8829599999996
 10
117.05970999999948
 20
-99.85527399999961
 10
117.16435799999948
 20
-99.82758799999961
 10
117.26925999999948
 20
-99.79990199999962
 10
117.37416199999949
 20
-99.77221599999962
 10
117.47906399999948
 20
-99.74452999999963
 10
117.58396599999949
 20
-99.71684399999963
 10
117.68886799999949
 20
-99.68915799999964
 10
117.7937699999995
 20
-99.66147199999963
 10
117.8986719999995
 20
-99.63378599999965
 10
118.0038279999995
 20
-99.60609999999964
 10
118.1089839999995
 20
-99.57841399999965
 10
118.21413999999949
 20
-99.55098199999965
 10
118.31929599999948
 20
-99.52354999999964
 10
118.42445199999948
 20
-99.49611799999965
 10
118.52960799999948
 20
-99.46868599999965
 10
118.63476399999948
 20
-99.44125399999965
 10
118.73991999999947
 20
-99.41382199999964
 10
118.84507599999947
 20
-99.38638999999965
 10
118.95023199999946
 20
-99.35895799999965
 10
119.05538799999947
 20
-99.33152599999964
 10
119.16054399999946
 20
-99.30409399999964
 10
119.26569999999946
 20
-99.27666199999965
 10
119.37085599999945
 20
-99.24922999999964
 10
119.47601199999944
 20
-99.22179799999964
 10
119.58116799999945
 20
-99.19436599999963
 10
119.68632399999944
 20
-99.16693399999964
 10
119.79147999999944
 20
-99.13950199999964
 10
119.89663599999943
 20
-99.11206999999963
 10
120.00179199999943
 20
-99.08463799999963
 10
120.10694799999943
 20
-99.05720599999964
 10
120.21210399999943
 20
-99.02977399999963
 10
120.31725999999942
 20
-99.00234199999963
 10
120.42241599999942
 20
-98.97490999999962
 10
120.52757199999942
 20
-98.94773199999962
 10
120.63272799999942
 20
-98.92055399999961
 10
120.73788399999941
 20
-98.8933759999996
 10
120.8430399999994
 20
-98.8661979999996
 10
120.9481959999994
 20
-98.83901999999959
 10
121.05309799999941
 20
-98.81184199999959
 10
121.1579999999994
 20
-98.78466399999958
 10
121.26290199999941
 20
-98.75748599999957
 10
121.36780399999941
 20
-98.73030799999957
 10
121.47270599999942
 20
-98.70312999999956
 10
121.57760799999942
 20
-98.67595199999955
 10
121.68250999999943
 20
-98.64877399999955
 10
121.78715799999942
 20
-98.62159599999954
 10
121.8918059999994
 20
-98.59441799999954
 10
121.9964539999994
 20
-98.56723999999953
 10
122.1011019999994
 20
-98.54006199999952
 10
122.2057499999994
 20
-98.51313799999951
 10
122.3101439999994
 20
-98.48621399999952
 10
122.4145379999994
 20
-98.45928999999953
 10
122.5189319999994
 20
-98.43236599999952
 10
122.6233259999994
 20
-98.40544199999952
 10
122.72746599999941
 20
-98.37851799999953
 10
122.83160599999941
 20
-98.35159399999952
 10
122.93574599999941
 20
-98.32466999999953
 10
123.03988599999943
 20
-98.29774599999953
 10
123.14377199999942
 20
-98.27082199999953
 10
123.24765799999942
 20
-98.24389799999953
 10
123.36627599999942
 20
-98.21316399999954
 10
123.48489399999941
 20
-98.18242999999954
 10
123.60351199999941
 20
-98.15169599999955
 10
123.7221299999994
 20
-98.12096199999955
 10
123.8410019999994
 20
-98.09022799999956
 10
123.95987399999942
 20
-98.05949399999956
 10
124.07874599999941
 20
-98.02875999999956
 10
124.19761799999942
 20
-97.99802599999957
 10
124.31674399999942
 20
-97.96729199999957
 10
124.43586999999941
 20
-97.93655799999958
 10
124.55499599999942
 20
-97.90582399999958
 10
124.67412199999941
 20
-97.87508999999959
 10
124.79350199999942
 20
-97.8441019999996
 10
124.91288199999943
 20
-97.81311399999959
 10
125.03226199999943
 20
-97.78212599999958
 10
125.15164199999944
 20
-97.75113799999957
 10
125.27102199999945
 20
-97.72014999999958
 10
125.39040199999945
 20
-97.68916199999957
 10
125.51003599999946
 20
-97.65817399999956
 10
125.62966999999946
 20
-97.62718599999957
 10
125.74930399999946
 20
-97.59619799999956
 10
125.86893799999946
 20
-97.56520999999955
 10
125.98857199999946
 20
-97.53422199999956
 10
126.10820599999946
 20
-97.50323399999955
 10
126.22783999999946
 20
-97.47224599999954
 10
126.34747399999947
 20
-97.44100399999955
 10
126.46710799999947
 20
-97.40976199999955
 10
126.58699599999946
 20
-97.37851999999955
 10
126.70688399999945
 20
-97.34727799999955
 10
126.82677199999945
 20
-97.31603599999956
 10
126.94665999999944
 20
-97.28479399999956
 10
127.06654799999944
 20
-97.25355199999956
 10
127.18643599999943
 20
-97.22230999999957
 10
127.30632399999944
 20
-97.19106799999956
 10
127.42621199999942
 20
-97.15982599999957
 10
127.54609999999941
 20
-97.12858399999958
 10
127.66598799999942
 20
-97.09734199999957
 10
127.7858759999994
 20
-97.06609999999958
 10
127.90576399999941
 20
-97.03460399999958
 10
128.0256519999994
 20
-97.00310799999957
 10
128.1455399999994
 20
-96.97161199999955
 10
128.2654279999994
 20
-96.94011599999955
 10
128.3853159999994
 20
-96.90861999999954
 10
128.50520399999937
 20
-96.87712399999954
 10
128.62509199999937
 20
-96.84562799999954
 10
128.74497999999937
 20
-96.81413199999953
 10
128.86486799999938
 20
-96.78263599999953
 10
128.98450199999937
 20
-96.75113999999952
 10
129.10413599999936
 20
-96.7196439999995
 10
129.22376999999938
 20
-96.6881479999995
 10
129.34340399999937
 20
-96.6566519999995
 10
129.46303799999936
 20
-96.62515599999949
 10
129.58267199999938
 20
-96.59340599999949
 10
129.70230599999937
 20
-96.56165599999949
 10
129.82193999999936
 20
-96.5299059999995
 10
129.94157399999938
 20
-96.4981559999995
 10
130.06095399999938
 20
-96.4664059999995
 10
130.1803339999994
 20
-96.43465599999949
 10
130.2997139999994
 20
-96.40290599999949
 10
130.4190939999994
 20
-96.37115599999949
 10
130.5384739999994
 20
-96.3394059999995
 10
130.65785399999942
 20
-96.3076559999995
 10
130.7769799999994
 20
-96.2759059999995
 10
130.89610599999943
 20
-96.24415599999949
 10
130.93522199999944
 20
-96.40747799999949
 10
130.97332199999943
 20
-96.57079999999948
 10
131.01040599999942
 20
-96.73437599999949
 10
131.04672799999943
 20
-96.89795199999948
 10
131.08203399999942
 20
-97.06178199999948
 10
131.11632399999942
 20
-97.22561199999947
 10
131.14959799999943
 20
-97.38944199999946
 10
131.1818559999994
 20
-97.55352599999947
 10
131.21309799999943
 20
-97.71760999999948
 10
131.24332399999943
 20
-97.88169399999948
 10
131.27253399999944
 20
-98.04603199999947
 10
131.30047399999944
 20
-98.21036999999947
 10
131.32739799999942
 20
-98.37470799999947
 10
131.35330599999944
 20
-98.53904599999947
 10
131.37794399999942
 20
-98.70338399999947
 10
131.4015659999994
 20
-98.86797599999947
 10
131.4239179999994
 20
-99.03256799999949
 10
131.44525399999938
 20
-99.19715999999949
 10
131.46531999999937
 20
-99.3617519999995
 10
131.4843699999994
 20
-99.5263439999995
 10
131.5021499999994
 20
-99.69093599999951
 10
131.51865999999941
 20
-99.8552739999995
 10
131.5338999999994
 20
-100.0196119999995
 10
131.5478699999994
 20
-100.1839499999995
 10
131.5605699999994
 20
-100.3482879999995
 10
131.57199999999938
 20
-100.5126259999995
 10
131.58215999999936
 20
-100.6767099999995
 10
131.59104999999934
 20
-100.8407939999995
 10
131.59866999999934
 20
-101.00487799999951
 10
131.60501999999934
 20
-101.1687079999995
 10
131.61009999999933
 20
-101.3325379999995
 10
131.61365599999934
 20
-101.49636799999949
 10
131.61594199999934
 20
-101.6599439999995
 10
131.61695799999933
 20
-101.82351999999949
 10
131.61644999999936
 20
-101.98684199999948
 10
131.61467199999936
 20
-102.1499099999995
 10
131.61136999999937
 20
-102.31297799999949
 10
131.60654399999936
 20
-102.47579199999949
 10
131.60044799999935
 20
-102.6386059999995
 10
131.59282799999937
 20
-102.8011659999995
 10
131.58368399999938
 20
-102.9634719999995
 10
131.57301599999937
 20
-103.12552399999949
 10
131.56082399999937
 20
-103.28757599999949
 10
131.54710799999938
 20
-103.44937399999948
 10
131.53186799999938
 20
-103.61091799999949
 10
131.51510399999938
 20
-103.77220799999948
 10
131.49681599999937
 20
-103.93324399999949
 10
131.4770039999994
 20
-104.09402599999949
 10
131.4556679999994
 20
-104.25455399999949
 10
131.4325539999994
 20
-104.41482799999947
 10
131.4079159999994
 20
-104.57484799999948
 10
131.3814999999994
 20
-104.73461399999948
 10
131.3535599999994
 20
-104.89412599999947
 10
131.3238419999994
 20
-105.05338399999948
 10
131.2925999999994
 20
-105.21213399999948
 10
131.2595799999994
 20
-105.3706299999995
 10
131.2250359999994
 20
-105.52887199999948
 10
131.18871399999938
 20
-105.68685999999948
 10
131.1506139999994
 20
-105.84433999999949
 10
131.11073599999938
 20
-106.0015659999995
 10
131.0690799999994
 20
-106.1582839999995
 10
131.02564599999937
 20
-106.3147479999995
 10
130.98043399999938
 20
-106.4709579999995
 10
130.93344399999938
 20
-106.6266599999995
 10
130.88746999999938
 20
-106.7739799999995
 10
130.84022599999938
 20
-106.9207919999995
 10
130.79171199999936
 20
-107.0673499999995
 10
130.74192799999935
 20
-107.2136539999995
 10
130.69087399999935
 20
-107.3597039999995
 10
130.63854999999936
 20
-107.5054999999995
 10
130.58520999999934
 20
-107.6507879999995
 10
130.53059999999934
 20
-107.7958219999995
 10
130.47497399999932
 20
-107.9406019999995
 10
130.41833199999934
 20
-108.0851279999995
 10
130.36067399999934
 20
-108.2293999999995
 10
130.30199999999934
 20
-108.3734179999995
 10
130.24230999999932
 20
-108.5171819999995
 10
130.18160399999934
 20
-108.6606919999995
 10
130.1198819999993
 20
-108.80394799999951
 10
130.05739799999932
 20
-108.9469499999995
 10
129.99389799999932
 20
-109.0896979999995
 10
129.92963599999933
 20
-109.2321919999995
 10
129.86461199999934
 20
-109.3744319999995
 10
129.79882599999934
 20
-109.5164179999995
 10
129.73202399999934
 20
-109.65814999999951
 10
129.66471399999932
 20
-109.7996279999995
 10
129.59664199999935
 20
-109.9408519999995
 10
129.52780799999934
 20
-110.0818219999995
 10
129.45846599999933
 20
-110.2225379999995
 10
129.38836199999932
 20
-110.3629999999995
 10
129.31774999999934
 20
-110.5034619999995
 10
129.24637599999932
 20
-110.6436699999995
 10
129.17449399999933
 20
-110.78362399999949
 10
129.10210399999931
 20
-110.9233239999995
 10
129.0292059999993
 20
-111.06276999999949
 10
128.95579999999933
 20
-111.2022159999995
 10
128.8821399999993
 20
-111.34140799999949
 10
128.80797199999932
 20
-111.4803459999995
 10
128.73354999999933
 20
-111.6190299999995
 10
128.6586199999993
 20
-111.7577139999995
 10
128.58343599999932
 20
-111.8961439999995
 10
128.5079979999993
 20
-112.0343199999995
 10
128.4323059999993
 20
-112.17249599999948
 10
128.3563599999993
 20
-112.31041799999949
 10
128.2801599999993
 20
-112.44808599999948
 10
128.20370599999933
 20
-112.58575399999948
 10
128.12725199999932
 20
-112.72316799999948
 10
128.05054399999932
 20
-112.86032799999948
 10
127.97383599999931
 20
-112.99748799999948
 10
127.8971279999993
 20
-113.13439399999949
 10
127.8201659999993
 20
-113.27129999999948
 10
127.74320399999931
 20
-113.40795199999948
 10
127.6662419999993
 20
-113.54460399999948
 10
127.5895339999993
 20
-113.68100199999948
 10
127.5128259999993
 20
-113.81739999999947
 10
127.4361179999993
 20
-113.95354399999947
 10
127.3596639999993
 20
-114.08968799999947
 10
127.2832099999993
 20
-114.22557799999949
 10
127.2070099999993
 20
-114.36146799999949
 10
127.1310639999993
 20
-114.4973579999995
 10
127.0553719999993
 20
-114.63299399999948
 10
126.97993399999929
 20
-114.76862999999949
 10
126.9047499999993
 20
-114.9040119999995
 10
126.82981999999929
 20
-115.03939399999949
 10
126.75539799999929
 20
-115.1747759999995
 10
126.68122999999929
 20
-115.3101579999995
 10
126.60756999999928
 20
-115.4452859999995
 10
126.53441799999929
 20
-115.5804139999995
 10
126.46456799999929
 20
-115.70944599999949
 10
126.3947179999993
 20
-115.83847799999948
 10
126.3248679999993
 20
-115.96750999999948
 10
126.2547639999993
 20
-116.09654199999947
 10
126.1846599999993
 20
-116.22557399999947
 10
126.1145559999993
 20
-116.35460599999946
 10
126.0444519999993
 20
-116.48338399999948
 10
125.9743479999993
 20
-116.61216199999947
 10
125.9042439999993
 20
-116.74093999999947
 10
125.83413999999928
 20
-116.86971799999947
 10
125.76403599999928
 20
-116.99849599999948
 10
125.69393199999928
 20
-117.12727399999947
 10
125.62382799999928
 20
-117.25630599999947
 10
125.55372399999928
 20
-117.38533799999946
 10
125.48387399999928
 20
-117.51436999999946
 10
125.41402399999929
 20
-117.64340199999945
 10
125.3441739999993
 20
-117.77243399999945
 10
125.2743239999993
 20
-117.90146599999944
 10
125.20472799999929
 20
-118.03049799999944
 10
125.1351319999993
 20
-118.15952999999944
 10
125.0655359999993
 20
-118.28881599999944
 10
124.99619399999929
 20
-118.41810199999945
 10
124.92685199999929
 20
-118.54738799999944
 10
124.85776399999929
 20
-118.67667399999945
 10
124.78867599999928
 20
-118.80595999999946
 10
124.71984199999929
 20
-118.93549999999945
 10
124.65100799999928
 20
-119.06503999999946
 10
124.58242799999928
 20
-119.19457999999945
 10
124.51410199999928
 20
-119.32437399999945
 10
124.44577599999928
 20
-119.45416799999946
 10
124.3777039999993
 20
-119.58396199999947
 10
124.3098859999993
 20
-119.71400999999946
 10
124.24232199999929
 20
-119.84405799999946
 10
124.17475799999929
 20
-119.97435999999946
 10
124.10744799999928
 20
-120.10466199999945
 10
124.04039199999929
 20
-120.23496399999945
 10
123.97358999999929
 20
-120.36551999999945
 10
123.9070419999993
 20
-120.49607599999945
 10
123.84074799999928
 20
-120.62688599999944
 10
123.77470799999928
 20
-120.75769599999944
 10
123.70892199999928
 20
-120.88875999999945
 10
123.64338999999929
 20
-121.01982399999946
 10
123.57811199999928
 20
-121.15114199999945
 10
123.51334199999928
 20
-121.28271399999944
 10
123.44882599999929
 20
-121.41428599999944
 10
123.38456399999929
 20
-121.54611199999944
 10
123.32055599999929
 20
-121.67819199999944
 10
123.25705599999928
 20
-121.81027199999943
 10
123.19380999999927
 20
-121.94260599999944
 10
123.13081799999928
 20
-122.07519399999944
 10
123.06833399999928
 20
-122.20778199999944
 10
123.00610399999928
 20
-122.34062399999944
 10
122.94438199999928
 20
-122.47371999999945
 10
122.88291399999927
 20
-122.60681599999944
 10
122.82195399999928
 20
-122.74016599999943
 10
122.76124799999928
 20
-122.87376999999944
 10
122.70104999999927
 20
-123.00762799999943
 10
122.64135999999927
 20
-123.14173999999944
 10
122.58192399999928
 20
-123.27610599999944
 10
122.52299599999927
 20
-123.41047199999944
 10
122.46457599999927
 20
-123.54509199999943
 10
122.40666399999927
 20
-123.67996599999944
 10
122.34900599999926
 20
-123.81509399999943
 10
122.29185599999927
 20
-123.95047599999943
 10
122.27026599999927
 20
-124.00229199999943
 10
122.24867599999928
 20
-124.05410799999943
 10
122.22733999999927
 20
-124.10592399999943
 10
122.20600399999927
 20
-124.15773999999944
 10
122.18466799999928
 20
-124.20955599999944
 10
122.16358599999927
 20
-124.26137199999944
 10
122.14250399999926
 20
-124.31318799999944
 10
122.12167599999925
 20
-124.36500399999944
 10
122.10084799999926
 20
-124.41707399999945
 10
122.08027399999926
 20
-124.46914399999945
 10
122.05969999999925
 20
-124.52121399999943
 10
122.03912599999924
 20
-124.57328399999943
 10
122.01880599999926
 20
-124.62535399999943
 10
121.99848599999926
 20
-124.67742399999942
 10
121.97841999999926
 20
-124.72949399999942
 10
121.95835399999925
 20
-124.78156399999942
 10
121.93854199999926
 20
-124.8336339999994
 10
121.91872999999927
 20
-124.88595799999942
 10
121.89891799999927
 20
-124.93828199999942
 10
121.87935999999927
 20
-124.99060599999942
 10
121.85980199999928
 20
-125.04292999999943
 10
121.84049799999927
 20
-125.09525399999943
 10
121.82119399999927
 20
-125.14757799999944
 10
121.80188999999926
 20
-125.19990199999944
 10
121.78283999999925
 20
-125.25222599999944
 10
121.76378999999926
 20
-125.30480399999945
 10
121.74499399999927
 20
-125.35738199999945
 10
121.72619799999926
 20
-125.40995999999944
 10
121.70765599999926
 20
-125.46253799999944
 10
121.68911399999926
 20
-125.51511599999944
 10
121.67057199999927
 20
-125.56769399999943
 10
121.65228399999927
 20
-125.62027199999943
 10
121.63399599999927
 20
-125.67284999999943
 10
121.61596199999927
 20
-125.72542799999943
 10
121.59792799999926
 20
-125.77800599999944
 10
121.58014799999926
 20
-125.83083799999943
 10
121.56236799999927
 20
-125.88366999999944
 10
121.54458799999927
 20
-125.93650199999945
 10
121.52706199999926
 20
-125.98933399999946
 10
121.50953599999926
 20
-126.04216599999947
 10
121.49226399999925
 20
-126.09499799999946
 10
121.47499199999926
 20
-126.14782999999947
 10
121.45771999999927
 20
-126.20066199999948
 10
121.44070199999926
 20
-126.25349399999949
 10
121.42368399999927
 20
-126.3063259999995
 10
121.40691999999927
 20
-126.3594119999995
 10
121.39015599999928
 20
-126.4124979999995
 10
121.37364599999928
 20
-126.4655839999995
 10
121.35713599999927
 20
-126.5186699999995
 10
121.34062599999928
 20
-126.5717559999995
 10
121.32436999999928
 20
-126.6248419999995
 10
121.30811399999926
 20
-126.6779279999995
 10
121.29211199999926
 20
-126.7310139999995
 10
121.27610999999928
 20
-126.78409999999951
 10
121.26036199999928
 20
-126.8371859999995
 10
121.24461399999927
 20
-126.89027199999951
 10
121.22911999999927
 20
-126.9436119999995
 10
121.21362599999928
 20
-126.9969519999995
 10
121.19813199999929
 20
-127.05029199999949
 10
121.18289199999928
 20
-127.1036319999995
 10
121.16765199999928
 20
-127.15697199999948
 10
121.15266599999927
 20
-127.21031199999948
 10
121.13767999999926
 20
-127.26365199999947
 10
121.12269399999926
 20
-127.31699199999946
 10
121.07316399999927
 20
-127.12852399999946
 10
121.02363399999926
 20
-126.94157999999946
 10
120.97410399999927
 20
-126.75615999999945
 10
120.92457399999927
 20
-126.57200999999945
 10
120.87504399999928
 20
-126.38938399999945
 10
120.82551399999927
 20
-126.20802799999946
 10
120.77598399999927
 20
-126.02819599999945
 10
120.72619999999927
 20
-125.84963399999945
 10
120.67641599999926
 20
-125.67234199999946
 10
120.62663199999926
 20
-125.49631999999946
 10
120.57684799999925
 20
-125.32182199999946
 10
120.52706399999924
 20
-125.14859399999946
 10
120.47727999999924
 20
-124.97663599999944
 10
120.42749599999922
 20
-124.80594799999945
 10
120.37771199999922
 20
-124.63652999999945
 10
120.32792799999922
 20
-124.46838199999945
 10
120.2781439999992
 20
-124.30124999999946
 10
120.2283599999992
 20
-124.13538799999945
 10
120.1785759999992
 20
-123.97079599999944
 10
120.1287919999992
 20
-123.80747399999944
 10
120.07926199999919
 20
-123.64516799999944
 10
120.02973199999919
 20
-123.48413199999945
 10
119.9802019999992
 20
-123.32411199999945
 10
119.93067199999919
 20
-123.16510799999945
 10
119.8811419999992
 20
-123.00737399999946
 10
119.8316119999992
 20
-122.85065599999945
 10
119.7820819999992
 20
-122.69495399999946
 10
119.7328059999992
 20
-122.54052199999946
 10
119.6835299999992
 20
-122.38710599999945
 10
119.63425399999919
 20
-122.23470599999945
 10
119.58497799999918
 20
-122.08332199999944
 10
119.53570199999918
 20
-121.93295399999946
 10
119.48667999999918
 20
-121.78334799999945
 10
119.43765799999919
 20
-121.63475799999945
 10
119.3886359999992
 20
-121.48718399999944
 10
119.3396139999992
 20
-121.34062599999945
 10
119.29084599999919
 20
-121.19482999999944
 10
119.2420779999992
 20
-121.05004999999944
 10
119.19330999999919
 20
-120.90603199999944
 10
119.14479599999919
 20
-120.76302999999945
 10
119.0962819999992
 20
-120.62078999999945
 10
119.04802199999921
 20
-120.47956599999945
 10
118.99976199999921
 20
-120.33910399999945
 10
118.95150199999921
 20
-120.19940399999945
 10
118.9034959999992
 20
-120.06046599999945
 10
118.8554899999992
 20
-119.92228999999945
 10
118.80773799999919
 20
-119.78487599999946
 10
118.7599859999992
 20
-119.64822399999944
 10
118.7124879999992
 20
-119.51233399999944
 10
118.6649899999992
 20
-119.37720599999945
 10
118.6177459999992
 20
-119.24283999999945
 10
118.57050199999921
 20
-119.10923599999944
 10
118.5235119999992
 20
-118.97613999999945
 10
118.4765219999992
 20
-118.84380599999945
 10
118.4297859999992
 20
-118.71223399999946
 10
118.38304999999919
 20
-118.58116999999945
 10
118.33656799999919
 20
-118.45061399999945
 10
118.29033999999919
 20
-118.32081999999943
 10
118.24411199999918
 20
-118.19153399999944
 10
118.19813799999919
 20
-118.06275599999942
 10
118.15216399999919
 20
-117.93473999999942
 10
118.10644399999919
 20
-117.80723199999942
 10
118.0609779999992
 20
-117.68023199999942
 10
118.0157659999992
 20
-117.55373999999942
 10
117.99112799999921
 20
-117.48490599999943
 10
117.96648999999921
 20
-117.41632599999943
 10
117.94185199999922
 20
-117.34774599999943
 10
117.91746799999922
 20
-117.27941999999943
 10
117.8930839999992
 20
-117.21134799999943
 10
117.8689539999992
 20
-117.14352999999943
 10
117.84482399999919
 20
-117.07596599999943
 10
117.8206939999992
 20
-117.00865599999943
 10
117.79681799999919
 20
-116.94159999999944
 10
117.77294199999919
 20
-116.87479799999944
 10
117.74906599999919
 20
-116.80824999999943
 10
117.72544399999919
 20
-116.74195599999943
 10
117.70182199999918
 20
-116.67566199999942
 10
117.67819999999918
 20
-116.60962199999943
 10
117.65483199999919
 20
-116.54383599999943
 10
117.63146399999918
 20
-116.47830399999943
 10
117.60834999999919
 20
-116.41302599999943
 10
117.58523599999918
 20
-116.34774799999943
 10
117.56212199999918
 20
-116.28272399999943
 10
117.53926199999918
 20
-116.21795399999944
 10
117.51640199999919
 20
-116.15343799999943
 10
117.49354199999921
 20
-116.08892199999943
 10
117.4709359999992
 20
-116.02465999999943
 10
117.4483299999992
 20
-115.96065199999943
 10
117.42597799999919
 20
-115.89664399999943
 10
117.40362599999919
 20
-115.83288999999942
 10
117.38127399999918
 20
-115.76938999999943
 10
117.3591759999992
 20
-115.70588999999943
 10
117.3370779999992
 20
-115.64264399999942
 10
117.3152339999992
 20
-115.57939799999941
 10
117.29338999999918
 20
-115.51640599999942
 10
117.27154599999918
 20
-115.45366799999941
 10
117.24995599999919
 20
-115.39092999999941
 10
117.2283659999992
 20
-115.32844599999942
 10
117.2070299999992
 20
-115.26596199999942
 10
117.18569399999919
 20
-115.20373199999942
 10
117.16435799999918
 20
-115.14150199999942
 10
117.14327599999918
 20
-115.07952599999942
 10
117.12219399999917
 20
-115.0175499999994
 10
117.10136599999917
 20
-114.95582799999941
 10
117.08053799999918
 20
-114.89410599999941
 10
117.05970999999919
 20
-114.8326379999994
 10
117.03913599999917
 20
-114.7711699999994
 10
117.01856199999918
 20
-114.7097019999994
 10
116.99824199999918
 20
-114.6484879999994
 10
116.97792199999918
 20
-114.5872739999994
 10
116.95785599999918
 20
-114.5263139999994
 10
116.93778999999918
 20
-114.4653539999994
 10
116.91772399999917
 20
-114.4043939999994
 10
116.89791199999918
 20
-114.3436879999994
 10
116.8780999999992
 20
-114.28298199999941
 10
116.85854199999919
 20
-114.22227599999941
 10
116.83898399999919
 20
-114.16182399999941
 10
116.81942599999918
 20
-114.10137199999942
 10
116.80012199999918
 20
-114.04091999999942
 10
116.78081799999917
 20
-113.98046799999942
 10
116.76176799999918
 20
-113.9202699999994
 10
116.74271799999919
 20
-113.8600719999994
 10
116.72392199999918
 20
-113.79987399999939
 10
116.70512599999918
 20
-113.73967599999939
 10
116.68658399999919
 20
-113.67973199999939
 10
116.66804199999919
 20
-113.6197879999994
 10
116.6494999999992
 20
-113.5598439999994
 10
116.6312119999992
 20
-113.4998999999994
 10
116.65407199999919
 20
-113.3972839999994
 10
116.67642399999919
 20
-113.2949219999994
 10
116.69801399999919
 20
-113.1928139999994
 10
116.7190959999992
 20
-113.0909599999994
 10
116.7394159999992
 20
-112.98935999999941
 10
116.75897399999918
 20
-112.8880139999994
 10
116.77802399999919
 20
-112.7871759999994
 10
116.79631199999919
 20
-112.68659199999941
 10
116.81409199999918
 20
-112.58626199999941
 10
116.83110999999919
 20
-112.4861859999994
 10
116.84761999999918
 20
-112.38636399999942
 10
116.86336799999918
 20
-112.28654199999941
 10
116.87835399999919
 20
-112.18697399999942
 10
116.8928319999992
 20
-112.08765999999942
 10
116.90654799999919
 20
-111.98859999999942
 10
116.9197559999992
 20
-111.88979399999941
 10
116.9322019999992
 20
-111.79124199999943
 10
116.9441399999992
 20
-111.69294399999941
 10
116.9553159999992
 20
-111.59489999999941
 10
116.9657299999992
 20
-111.49685599999941
 10
116.97563599999918
 20
-111.39906599999941
 10
116.98477999999919
 20
-111.3015299999994
 10
116.99341599999919
 20
-111.20424799999941
 10
117.00128999999919
 20
-111.10696599999942
 10
117.00865599999919
 20
-111.00993799999942
 10
117.01525999999919
 20
-110.91290999999941
 10
117.0211019999992
 20
-110.81613599999942
 10
117.02643599999921
 20
-110.71961599999942
 10
117.03100799999919
 20
-110.62309599999942
 10
117.0350719999992
 20
-110.52682999999942
 10
117.0383739999992
 20
-110.43056399999942
 10
117.0411679999992
 20
-110.33455199999942
 10
117.0431999999992
 20
-110.23853999999942
 10
117.04472399999919
 20
-110.14278199999941
 10
117.04548599999919
 20
-110.04702399999941
 10
117.04548599999919
 20
-109.95151999999942
 10
117.04497799999918
 20
-109.85601599999943
 10
117.04370799999919
 20
-109.76076599999944
 10
117.04192999999918
 20
-109.66551599999943
 10
117.03938999999919
 20
-109.57026599999944
 10
117.03634199999918
 20
-109.47526999999943
 10
117.0325319999992
 20
-109.38027399999942
 10
117.0282139999992
 20
-109.28527799999941
 10
117.02313399999919
 20
-109.19053599999941
 10
117.0175459999992
 20
-109.09579399999942
 10
117.0111959999992
 20
-109.00105199999942
 10
117.0040839999992
 20
-108.90630999999942
 10
116.99646399999921
 20
-108.81156799999943
 10
116.9880819999992
 20
-108.71707999999941
 10
116.97919199999919
 20
-108.62259199999941
 10
116.96953999999918
 20
-108.52810399999942
 10
116.95937999999919
 20
-108.4336159999994
 10
116.94845799999918
 20
-108.3391279999994
 10
116.93702799999917
 20
-108.24463999999941
 10
116.92483599999917
 20
-108.1501519999994
 10
116.91213599999918
 20
-108.0556639999994
 10
116.89867399999918
 20
-107.96117599999938
 10
116.88470399999918
 20
-107.86668799999939
 10
116.86997199999918
 20
-107.77219999999939
 10
116.85473199999917
 20
-107.67771199999937
 10
116.83872999999917
 20
-107.58322399999938
 10
116.8219659999992
 20
-107.48873599999938
 10
116.80469399999919
 20
-107.39424799999937
 10
116.78665999999919
 20
-107.29950599999937
  0
ENDSEC
  0
SECTION
  2
OBJECTS
  0
DICTIONARY
  5
A
330
0
100
AcDbDictionary
281
1
  3
ACAD_COLOR
350
B
  3
ACAD_GROUP
350
C
  3
ACAD_LAYOUT
350
D
  3
ACAD_MATERIAL
350
E
  3
ACAD_MLEADERSTYLE
350
F
  3
ACAD_MLINESTYLE
350
10
  3
ACAD_PLOTSETTINGS
350
11
  3
ACAD_PLOTSTYLENAME
350
12
  3
ACAD_SCALELIST
350
14
  3
ACAD_TABLESTYLE
350
15
  3
ACAD_VISUALSTYLE
350
16
  3
EZDXF_META
350
2D
  0
DICTIONARY
  5
B
330
A
100
AcDbDictionary
281
1
  0
DICTIONARY
  5
C
330
A
100
AcDbDictionary
281
1
  0
DICTIONARY
  5
D
330
A
100
AcDbDictionary
281
1
  3
Model
350
1A
  3
Layout1
350
1E
  0
DICTIONARY
  5
E
330
A
100
AcDbDictionary
281
1
  3
ByBlock
350
1F
  3
ByLayer
350
20
  3
Global
350
21
  0
DICTIONARY
  5
F
330
A
100
AcDbDictionary
281
1
  3
Standard
350
2C
  0
DICTIONARY
  5
10
330
A
100
AcDbDictionary
281
1
  3
Standard
350
22
  0
DICTIONARY
  5
11
330
A
100
AcDbDictionary
281
1
  0
ACDBDICTIONARYWDFLT
  5
12
330
A
100
AcDbDictionary
281
1
  3
Normal
350
13
100
AcDbDictionaryWithDefault
340
13
  0
ACDBPLACEHOLDER
  5
13
330
12
  0
DICTIONARY
  5
14
330
A
100
AcDbDictionary
281
1
  0
DICTIONARY
  5
15
330
A
100
AcDbDictionary
281
1
  0
DICTIONARY
  5
16
330
A
100
AcDbDictionary
281
1
  0
LAYOUT
  5
1A
330
D
100
AcDbPlotSettings
  1

  4
A3
  6

 40
7.5
 41
20.0
 42
7.5
 43
20.0
 44
420.0
 45
297.0
 46
0.0
 47
0.0
 48
0.0
 49
0.0
140
0.0
141
0.0
142
1.0
143
1.0
 70
1024
 72
1
 73
0
 74
5
  7

 75
16
 76
0
 77
2
 78
300
147
1.0
148
0.0
149
0.0
100
AcDbLayout
  1
Model
 70
1
 71
0
 10
0.0
 20
0.0
 11
420.0
 21
297.0
 12
0.0
 22
0.0
 32
0.0
 14
1e+20
 24
1e+20
 34
1e+20
 15
-1e+20
 25
-1e+20
 35
-1e+20
146
0.0
 13
0.0
 23
0.0
 33
0.0
 16
1.0
 26
0.0
 36
0.0
 17
0.0
 27
1.0
 37
0.0
 76
1
330
17
  0
LAYOUT
  5
1E
330
D
100
AcDbPlotSettings
  1

  4
A3
  6

 40
7.5
 41
20.0
 42
7.5
 43
20.0
 44
420.0
 45
297.0
 46
0.0
 47
0.0
 48
0.0
 49
0.0
140
0.0
141
0.0
142
1.0
143
1.0
 70
0
 72
1
 73
0
 74
5
  7

 75
16
 76
0
 77
2
 78
300
147
1.0
148
0.0
149
0.0
100
AcDbLayout
  1
Layout1
 70
1
 71
1
 10
0.0
 20
0.0
 11
420.0
 21
297.0
 12
0.0
 22
0.0
 32
0.0
 14
1e+20
 24
1e+20
 34
1e+20
 15
-1e+20
 25
-1e+20
 35
-1e+20
146
0.0
 13
0.0
 23
0.0
 33
0.0
 16
1.0
 26
0.0
 36
0.0
 17
0.0
 27
1.0
 37
0.0
 76
1
330
1B
  0
MATERIAL
  5
1F
102
{ACAD_REACTORS
330
E
102
}
330
E
100
AcDbMaterial
  1
ByBlock
  2

 70
0
 40
1.0
 71
1
 41
1.0
 91
-1023410177
 42
1.0
 72
1
  3

 73
1
 74
1
 75
1
 44
0.5
 73
0
 45
1.0
 46
1.0
 77
1
  4

 78
1
 79
1
170
1
 48
1.0
171
1
  6

172
1
173
1
174
1
140
1.0
141
1.0
175
1
  7

176
1
177
1
178
1
143
1.0
179
1
  8

270
1
271
1
272
1
145
1.0
146
1.0
273
1
  9

274
1
275
1
276
1
 42
1.0
 72
1
  3

 73
1
 74
1
 75
1
 94
63
  0
MATERIAL
  5
20
102
{ACAD_REACTORS
330
E
102
}
330
E
100
AcDbMaterial
  1
ByLayer
  2

 70
0
 40
1.0
 71
1
 41
1.0
 91
-1023410177
 42
1.0
 72
1
  3

 73
1
 74
1
 75
1
 44
0.5
 73
0
 45
1.0
 46
1.0
 77
1
  4

 78
1
 79
1
170
1
 48
1.0
171
1
  6

172
1
173
1
174
1
140
1.0
141
1.0
175
1
  7

176
1
177
1
178
1
143
1.0
179
1
  8

270
1
271
1
272
1
145
1.0
146
1.0
273
1
  9

274
1
275
1
276
1
 42
1.0
 72
1
  3

 73
1
 74
1
 75
1
 94
63
  0
MATERIAL
  5
21
102
{ACAD_REACTORS
330
E
102
}
330
E
100
AcDbMaterial
  1
Global
  2

 70
0
 40
1.0
 71
1
 41
1.0
 91
-1023410177
 42
1.0
 72
1
  3

 73
1
 74
1
 75
1
 44
0.5
 73
0
 45
1.0
 46
1.0
 77
1
  4

 78
1
 79
1
170
1
 48
1.0
171
1
  6

172
1
173
1
174
1
140
1.0
141
1.0
175
1
  7

176
1
177
1
178
1
143
1.0
179
1
  8

270
1
271
1
272
1
145
1.0
146
1.0
273
1
  9

274
1
275
1
276
1
 42
1.0
 72
1
  3

 73
1
 74
1
 75
1
 94
63
  0
MLINESTYLE
  5
22
102
{ACAD_REACTORS
330
10
102
}
330
10
100
AcDbMlineStyle
  2
Standard
 70
0
  3

 62
256
 51
90.0
 52
90.0
 71
2
 49
0.5
 62
256
  6
BYLAYER
 49
-0.5
 62
256
  6
BYLAYER
  0
MLEADERSTYLE
  5
2C
102
{ACAD_REACTORS
330
F
102
}
330
F
100
AcDbMLeaderStyle
179
2
170
2
171
1
172
0
 90
2
 40
0.0
 41
0.0
173
1
 91
-1056964608
 92
-2
290
1
 42
2.0
291
1
 43
8.0
  3
Standard
 44
4.0
300

342
29
174
1
175
1
176
0
178
1
 93
-1056964608
 45
4.0
292
0
297
0
 46
4.0
 94
-1056964608
 47
1.0
 49
1.0
140
1.0
294
1
141
0.0
177
0
142
1.0
295
0
296
0
143
3.75
271
0
272
9
273
9
  0
DICTIONARY
  5
2D
330
A
100
AcDbDictionary
280
1
281
1
  3
CREATED_BY_EZDXF
350
2E
  3
WRITTEN_BY_EZDXF
350
3B
  0
DICTIONARYVAR
  5
2E
330
2D
100
DictionaryVariables
280
0
  1
1.4.3 @ 2026-04-08T01:02:28.678770+00:00
  0
DICTIONARYVAR
  5
3B
330
2D
100
DictionaryVariables
280
0
  1
1.4.3 @ 2026-04-09T21:09:49.038646+00:00
  0
ENDSEC
  0
EOF
