<svg xmlns="http://www.w3.org/2000/svg" viewBox="35.698 71.967 117.297 73.431" width="117.297mm" height="73.431mm">
  <g transform="scale(1,-1)" fill="none" stroke="black" stroke-width="0.05">
    <path d="M127.097,-144.397L125.551,-144.297L125.433,-144.277L125.256,-144.210L125.256,-143.964L126.772,-143.089L128.288,-143.964L128.288,-144.375L127.097,-144.397Z M130.544,-144.332L128.788,-144.365L128.788,-143.964L130.303,-143.089L131.819,-143.964L131.819,-144.154L130.544,-144.332Z M132.319,-144.085L132.319,-143.964L133.834,-143.089L134.928,-143.721L132.319,-144.085Z M136.699,-143.474L137.365,-143.089L137.772,-143.324L136.699,-143.474Z M123.912,-140.663L125.006,-140.031L126.522,-140.906L126.522,-142.656L125.006,-143.531L124.756,-143.387L123.912,-140.663Z M130.053,-140.906L128.538,-140.031L127.022,-140.906L127.022,-142.656L128.538,-143.531L130.053,-142.656Z M133.584,-140.906L132.069,-140.031L130.553,-140.906L130.553,-142.656L132.069,-143.531L133.584,-142.656Z M137.115,-140.906L135.600,-140.031L134.084,-140.906L134.084,-142.656L135.600,-143.531L137.115,-142.656Z M138.578,-143.212L137.615,-142.656L137.615,-140.906L139.131,-140.031L140.646,-140.906L140.646,-142.656L140.036,-143.009L138.578,-143.212Z M141.906,-142.748L141.422,-142.816L141.146,-142.656L141.146,-140.906L142.662,-140.031L144.177,-140.906L144.177,-142.228L141.906,-142.748Z M144.677,-142.114L144.677,-140.906L146.193,-140.031L147.709,-140.906L147.709,-141.420L144.677,-142.114Z M148.209,-141.305L148.209,-140.906L149.724,-140.031L150.873,-140.695L148.209,-141.305Z M122.841,-137.205L123.241,-136.973L124.756,-137.848L124.756,-139.598L123.760,-140.174L122.841,-137.205Z M128.288,-137.848L126.772,-136.973L125.256,-137.848L125.256,-139.598L126.772,-140.473L128.288,-139.598Z M131.819,-137.848L130.303,-136.973L128.788,-137.848L128.788,-139.598L130.303,-140.473L131.819,-139.598Z M135.350,-137.848L133.834,-136.973L132.319,-137.848L132.319,-139.598L133.834,-140.473L135.350,-139.598Z M138.881,-137.848L137.365,-136.973L135.850,-137.848L135.850,-139.598L137.365,-140.473L138.881,-139.598Z M142.412,-137.848L140.896,-136.973L139.381,-137.848L139.381,-139.598L140.896,-140.473L142.412,-139.598Z M145.943,-137.848L144.427,-136.973L142.912,-137.848L142.912,-139.598L144.427,-140.473L145.943,-139.598Z M149.474,-137.848L147.959,-136.973L146.443,-137.848L146.443,-139.598L147.959,-140.473L149.474,-139.598Z M151.967,-139.598L151.995,-139.852L151.969,-140.015L151.911,-140.169L151.856,-140.262L151.490,-140.473L149.974,-139.598L149.974,-137.848L151.021,-137.244L151.967,-139.598Z M121.897,-134.159L122.991,-134.790L122.991,-136.540L122.689,-136.715L121.897,-134.159Z M126.522,-134.790L125.006,-133.915L123.491,-134.790L123.491,-136.540L125.006,-137.415L126.522,-136.540Z M130.053,-134.790L128.538,-133.915L127.022,-134.790L127.022,-136.540L128.538,-137.415L130.053,-136.540Z M133.584,-134.790L132.069,-133.915L130.553,-134.790L130.553,-136.540L132.069,-137.415L133.584,-136.540Z M137.115,-134.790L135.600,-133.915L134.084,-134.790L134.084,-136.540L135.600,-137.415L137.115,-136.540Z M140.646,-134.790L139.131,-133.915L137.615,-134.790L137.615,-136.540L139.131,-137.415L140.646,-136.540Z M144.177,-134.790L142.662,-133.915L141.146,-134.790L141.146,-136.540L142.662,-137.415L144.177,-136.540Z M147.709,-134.790L146.193,-133.915L144.677,-134.790L144.677,-136.540L146.193,-137.415L147.709,-136.540Z M150.832,-136.776L149.724,-137.415L148.209,-136.540L148.209,-134.790L149.691,-133.935L150.832,-136.776Z M121.128,-131.676L121.225,-131.732L121.225,-131.990L121.128,-131.676Z M124.756,-131.732L123.241,-130.857L121.725,-131.732L121.725,-133.482L123.241,-134.357L124.756,-133.482Z M128.288,-131.732L126.772,-130.857L125.256,-131.732L125.256,-133.482L126.772,-134.357L128.288,-133.482Z M131.819,-131.732L130.303,-130.857L128.788,-131.732L128.788,-133.482L130.303,-134.357L131.819,-133.482Z M135.350,-131.732L133.834,-130.857L132.319,-131.732L132.319,-133.482L133.834,-134.357L135.350,-133.482Z M138.881,-131.732L137.365,-130.857L135.850,-131.732L135.850,-133.482L137.365,-134.357L138.881,-133.482Z M142.412,-131.732L140.896,-130.857L139.381,-131.732L139.381,-133.482L140.896,-134.357L142.412,-133.482Z M145.943,-131.732L144.427,-130.857L142.912,-131.732L142.912,-133.482L144.427,-134.357L145.943,-133.482Z M149.474,-133.396L149.474,-133.482L147.959,-134.357L146.443,-133.482L146.443,-131.732L147.959,-130.857L148.604,-131.230L149.474,-133.396Z M120.162,-128.558L121.475,-127.799L122.991,-128.674L122.991,-130.424L121.475,-131.299L120.910,-130.973L120.162,-128.558Z M126.522,-128.674L125.006,-127.799L123.491,-128.674L123.491,-130.424L125.006,-131.299L126.522,-130.424Z M130.053,-128.674L128.538,-127.799L127.022,-128.674L127.022,-130.424L128.538,-131.299L130.053,-130.424Z M133.584,-128.674L132.069,-127.799L130.553,-128.674L130.553,-130.424L132.069,-131.299L133.584,-130.424Z M137.115,-128.674L135.600,-127.799L134.084,-128.674L134.084,-130.424L135.600,-131.299L137.115,-130.424Z M140.646,-128.674L139.131,-127.799L137.615,-128.674L137.615,-130.424L139.131,-131.299L140.646,-130.424Z M144.177,-128.674L142.662,-127.799L141.146,-128.674L141.146,-130.424L142.662,-131.299L144.177,-130.424Z M147.709,-129.002L147.709,-130.424L146.193,-131.299L144.677,-130.424L144.677,-128.674L146.193,-127.799L147.537,-128.575L147.709,-129.002Z M148.302,-130.478L148.209,-130.424L148.209,-130.246L148.302,-130.478Z M119.091,-125.099L119.710,-124.741L121.225,-125.616L121.225,-127.366L120.010,-128.068L119.091,-125.099Z M124.756,-125.616L123.241,-124.741L121.725,-125.616L121.725,-127.366L123.241,-128.241L124.756,-127.366Z M128.288,-125.616L126.772,-124.741L125.256,-125.616L125.256,-127.366L126.772,-128.241L128.288,-127.366Z M131.819,-125.616L130.303,-124.741L128.788,-125.616L128.788,-127.366L130.303,-128.241L131.819,-127.366Z M135.350,-125.616L133.834,-124.741L132.319,-125.616L132.319,-127.366L133.834,-128.241L135.350,-127.366Z M138.881,-125.616L137.365,-124.741L135.850,-125.616L135.850,-127.366L137.365,-128.241L138.881,-127.366Z M142.412,-125.616L140.896,-124.741L139.381,-125.616L139.381,-127.366L140.896,-128.241L142.412,-127.366Z M145.943,-125.616L144.427,-124.741L142.912,-125.616L142.912,-127.366L144.427,-128.241L145.943,-127.366Z M147.235,-127.824L146.443,-127.366L146.443,-125.853L147.235,-127.824Z M118.052,-121.745L119.460,-122.558L119.460,-124.308L118.939,-124.609L118.052,-121.745Z M122.991,-122.558L121.475,-121.683L119.960,-122.558L119.960,-124.308L121.475,-125.183L122.991,-124.308Z M126.522,-122.558L125.006,-121.683L123.491,-122.558L123.491,-124.308L125.006,-125.183L126.522,-124.308Z M130.053,-122.558L128.538,-121.683L127.022,-122.558L127.022,-124.308L128.538,-125.183L130.053,-124.308Z M133.584,-122.558L132.069,-121.683L130.553,-122.558L130.553,-124.308L132.069,-125.183L133.584,-124.308Z M137.115,-122.558L135.600,-121.683L134.084,-122.558L134.084,-124.308L135.600,-125.183L137.115,-124.308Z M140.646,-122.558L139.131,-121.683L137.615,-122.558L137.615,-124.308L139.131,-125.183L140.646,-124.308Z M144.177,-122.558L142.662,-121.683L141.146,-122.558L141.146,-124.308L142.662,-125.183L144.177,-124.308Z M146.168,-125.169L144.677,-124.308L144.677,-122.558L145.036,-122.352L146.168,-125.169Z M117.283,-119.263L117.694,-119.500L117.694,-120.591L117.283,-119.263Z M121.225,-119.500L119.710,-118.625L118.194,-119.500L118.194,-121.250L119.710,-122.125L121.225,-121.250Z M124.756,-119.500L123.241,-118.625L121.725,-119.500L121.725,-121.250L123.241,-122.125L124.756,-121.250Z M128.288,-119.500L126.772,-118.625L125.256,-119.500L125.256,-121.250L126.772,-122.125L128.288,-121.250Z M131.819,-119.500L130.303,-118.625L128.788,-119.500L128.788,-121.250L130.303,-122.125L131.819,-121.250Z M135.350,-119.500L133.834,-118.625L132.319,-119.500L132.319,-121.250L133.834,-122.125L135.350,-121.250Z M138.881,-119.500L137.365,-118.625L135.850,-119.500L135.850,-121.250L137.365,-122.125L138.881,-121.250Z M142.412,-119.500L140.896,-118.625L139.381,-119.500L139.381,-121.250L140.896,-122.125L142.412,-121.250Z M144.847,-121.883L144.427,-122.125L142.912,-121.250L142.912,-119.500L143.706,-119.042L144.847,-121.883Z M116.429,-116.506L116.429,-116.442L117.944,-115.567L119.460,-116.442L119.460,-118.192L117.944,-119.067L117.065,-118.560L116.429,-116.506Z M122.991,-116.442L121.475,-115.567L119.960,-116.442L119.960,-118.192L121.475,-119.067L122.991,-118.192Z M126.522,-116.442L125.006,-115.567L123.491,-116.442L123.491,-118.192L125.006,-119.067L126.522,-118.192Z M130.053,-116.442L128.538,-115.567L127.022,-116.442L127.022,-118.192L128.538,-119.067L130.053,-118.192Z M133.584,-116.442L132.069,-115.567L130.553,-116.442L130.553,-118.192L132.069,-119.067L133.584,-118.192Z M137.115,-116.442L135.600,-115.567L134.084,-116.442L134.084,-118.192L135.600,-119.067L137.115,-118.192Z M140.646,-116.442L139.131,-115.567L137.615,-116.442L137.615,-118.192L139.131,-119.067L140.646,-118.192Z M143.517,-118.573L142.662,-119.067L141.146,-118.192L141.146,-116.442L142.376,-115.733L143.517,-118.573Z M115.341,-112.993L116.179,-112.509L117.694,-113.384L117.694,-115.134L116.260,-115.962L115.341,-112.993Z M121.225,-113.384L119.710,-112.509L118.194,-113.384L118.194,-115.134L119.710,-116.009L121.225,-115.134Z M124.756,-113.384L123.241,-112.509L121.725,-113.384L121.725,-115.134L123.241,-116.009L124.756,-115.134Z M128.288,-113.384L126.772,-112.509L125.256,-113.384L125.256,-115.134L126.772,-116.009L128.288,-115.134Z M131.819,-113.384L130.303,-112.509L128.788,-113.384L128.788,-115.134L130.303,-116.009L131.819,-115.134Z M135.350,-113.384L133.834,-112.509L132.319,-113.384L132.319,-115.134L133.834,-116.009L135.350,-115.134Z M138.881,-113.384L137.365,-112.509L135.850,-113.384L135.850,-115.134L137.365,-116.009L138.881,-115.134Z M142.187,-115.264L140.896,-116.009L139.381,-115.134L139.381,-113.384L140.896,-112.509L141.136,-112.648L142.187,-115.264Z M114.269,-109.534L114.413,-109.451L115.929,-110.326L115.929,-112.076L115.189,-112.503L114.269,-109.534Z M119.460,-110.326L117.944,-109.451L116.429,-110.326L116.429,-112.076L117.944,-112.951L119.460,-112.076Z M122.991,-110.326L121.475,-109.451L119.960,-110.326L119.960,-112.076L121.475,-112.951L122.991,-112.076Z M126.522,-110.326L125.006,-109.451L123.491,-110.326L123.491,-112.076L125.006,-112.951L126.522,-112.076Z M130.053,-110.326L128.538,-109.451L127.022,-110.326L127.022,-112.076L128.538,-112.951L130.053,-112.076Z M133.584,-110.326L132.069,-109.451L130.553,-110.326L130.553,-112.076L132.069,-112.951L133.584,-112.076Z M137.115,-110.326L135.600,-109.451L134.084,-110.326L134.084,-112.076L135.600,-112.951L137.115,-112.076Z M140.646,-111.429L140.646,-112.076L139.131,-112.951L137.615,-112.076L137.615,-110.326L139.131,-109.451L140.069,-109.993L140.646,-111.429Z M113.438,-106.849L114.163,-107.268L114.163,-109.018L114.118,-109.045L113.438,-106.849Z M117.694,-107.268L116.179,-106.393L114.663,-107.268L114.663,-109.018L116.179,-109.893L117.694,-109.018Z M121.225,-107.268L119.710,-106.393L118.194,-107.268L118.194,-109.018L119.710,-109.893L121.225,-109.018Z M124.756,-107.268L123.241,-106.393L121.725,-107.268L121.725,-109.018L123.241,-109.893L124.756,-109.018Z M128.288,-107.268L126.772,-106.393L125.256,-107.268L125.256,-109.018L126.772,-109.893L128.288,-109.018Z M131.819,-107.268L130.303,-106.393L128.788,-107.268L128.788,-109.018L130.303,-109.893L131.819,-109.018Z M135.350,-107.268L133.834,-106.393L132.319,-107.268L132.319,-109.018L133.834,-109.893L135.350,-109.018Z M138.881,-107.268L137.365,-106.393L135.850,-107.268L135.850,-109.018L137.365,-109.893L138.881,-109.018Z M139.767,-109.241L139.381,-109.018L139.381,-108.280L139.767,-109.241Z M111.900,-104.054L111.720,-103.819L111.851,-103.895L111.900,-104.054Z M112.898,-105.106L112.898,-104.210L114.413,-103.335L115.929,-104.210L115.929,-105.960L114.413,-106.835L113.220,-106.146L112.898,-105.106Z M119.460,-104.210L117.944,-103.335L116.429,-104.210L116.429,-105.960L117.944,-106.835L119.460,-105.960Z M122.991,-104.210L121.475,-103.335L119.960,-104.210L119.960,-105.960L121.475,-106.835L122.991,-105.960Z M126.522,-104.210L125.006,-103.335L123.491,-104.210L123.491,-105.960L125.006,-106.835L126.522,-105.960Z M130.053,-104.210L128.538,-103.335L127.022,-104.210L127.022,-105.960L128.538,-106.835L130.053,-105.960Z M133.584,-104.210L132.069,-103.335L130.553,-104.210L130.553,-105.960L132.069,-106.835L133.584,-105.960Z M137.115,-104.210L135.600,-103.335L134.084,-104.210L134.084,-105.960L135.600,-106.835L137.115,-105.960Z M138.700,-106.587L137.615,-105.960L137.615,-104.210L137.721,-104.149L138.700,-106.587Z M109.549,-101.657L108.502,-100.904L108.268,-100.767L109.117,-100.277L110.632,-101.152L110.632,-102.628L110.402,-102.386L109.549,-101.657Z M111.591,-100.887L112.648,-100.277L114.163,-101.152L114.163,-102.902L112.648,-103.777L112.451,-103.664L111.591,-100.887Z M111.633,-103.192L111.132,-102.902L111.132,-101.572L111.633,-103.192Z M117.694,-101.152L116.179,-100.277L114.663,-101.152L114.663,-102.902L116.179,-103.777L117.694,-102.902Z M121.225,-101.152L119.710,-100.277L118.194,-101.152L118.194,-102.902L119.710,-103.777L121.225,-102.902Z M124.756,-101.152L123.241,-100.277L121.725,-101.152L121.725,-102.902L123.241,-103.777L124.756,-102.902Z M128.288,-101.152L126.772,-100.277L125.256,-101.152L125.256,-102.902L126.772,-103.777L128.288,-102.902Z M131.819,-101.152L130.303,-100.277L128.788,-101.152L128.788,-102.902L130.303,-103.777L131.819,-102.902Z M135.350,-101.152L133.834,-100.277L132.319,-101.152L132.319,-102.902L133.834,-103.777L135.350,-102.902Z M137.532,-103.681L137.365,-103.777L135.850,-102.902L135.850,-101.152L136.391,-100.840L137.532,-103.681Z M93.701,-100.036L94.341,-99.851L94.742,-99.694L94.742,-99.844L94.358,-100.066L93.701,-100.036Z M97.550,-98.247L97.949,-97.907L98.273,-98.094L98.273,-99.844L97.626,-100.218L95.738,-100.130L95.242,-99.844L95.242,-99.500L95.835,-99.269L96.705,-98.815L97.550,-98.247Z M98.905,-98.328L98.989,-98.621L99.103,-98.920L99.253,-99.220L99.441,-99.517L99.673,-99.807L99.953,-100.083L100.285,-100.342L99.578,-100.309L98.773,-99.844L98.773,-98.094L98.849,-98.050L98.905,-98.328Z M107.257,-100.178L105.835,-99.539L105.835,-99.527L106.267,-99.484L106.688,-99.392L107.076,-99.259L107.433,-99.087L107.756,-98.879L108.047,-98.639L108.306,-98.371L108.532,-98.077L108.612,-97.947L108.867,-98.094L108.867,-99.844L107.770,-100.477L107.257,-100.178Z M110.519,-97.429L110.882,-97.219L112.398,-98.094L112.398,-99.844L111.439,-100.398L110.519,-97.429Z M110.865,-100.710L109.367,-99.844L109.367,-98.094L109.951,-97.757L110.865,-100.710Z M115.929,-98.094L114.413,-97.219L112.898,-98.094L112.898,-99.844L114.413,-100.719L115.929,-99.844Z M119.460,-98.094L117.944,-97.219L116.429,-98.094L116.429,-99.844L117.944,-100.719L119.460,-99.844Z M122.991,-98.094L121.475,-97.219L119.960,-98.094L119.960,-99.844L121.475,-100.719L122.991,-99.844Z M126.522,-98.094L125.006,-97.219L123.491,-98.094L123.491,-99.844L125.006,-100.719L126.522,-99.844Z M130.053,-98.094L128.538,-97.219L127.022,-98.094L127.022,-99.844L128.538,-100.719L130.053,-99.844Z M133.584,-98.094L132.069,-97.219L130.553,-98.094L130.553,-99.844L132.069,-100.719L133.584,-99.844Z M136.202,-100.371L135.600,-100.719L134.084,-99.844L134.084,-98.094L135.061,-97.530L136.202,-100.371Z M98.597,-97.166L98.848,-96.743L98.803,-97.119L98.798,-97.503L98.523,-97.661L98.307,-97.536L98.597,-97.166Z M109.592,-94.436L110.632,-95.036L110.632,-96.786L110.368,-96.939L109.592,-94.436Z M108.848,-97.506L109.015,-97.078L109.110,-96.717L109.174,-96.348L109.204,-95.974L109.202,-95.598L109.168,-95.224L109.800,-97.267L109.117,-97.661L108.848,-97.506Z M114.163,-95.036L112.648,-94.161L111.132,-95.036L111.132,-96.786L112.648,-97.661L114.163,-96.786Z M117.694,-95.036L116.179,-94.161L114.663,-95.036L114.663,-96.786L116.179,-97.661L117.694,-96.786Z M121.225,-95.036L119.710,-94.161L118.194,-95.036L118.194,-96.786L119.710,-97.661L121.225,-96.786Z M124.756,-95.036L123.241,-94.161L121.725,-95.036L121.725,-96.786L123.241,-97.661L124.756,-96.786Z M128.288,-95.036L126.772,-94.161L125.256,-95.036L125.256,-96.786L126.772,-97.661L128.288,-96.786Z M131.819,-95.036L130.303,-94.161L128.788,-95.036L128.788,-96.786L130.303,-97.661L131.819,-96.786Z M134.872,-97.062L133.834,-97.661L132.319,-96.786L132.319,-95.036L133.731,-94.221L134.872,-97.062Z M105.030,-92.120L104.760,-92.167L104.258,-92.312L104.026,-92.409L103.599,-92.644L103.962,-91.868L104.171,-91.306L105.335,-91.978L105.335,-92.099L105.030,-92.120Z M108.823,-91.953L108.867,-91.978L108.867,-92.093L108.823,-91.953Z M108.729,-93.808L108.701,-93.824L108.544,-93.558L108.268,-93.203L107.945,-92.885L107.574,-92.612L107.154,-92.389L106.687,-92.222L106.172,-92.117L105.835,-92.096L105.835,-91.978L107.351,-91.103L108.010,-91.484L108.729,-93.808Z M109.375,-93.733L109.367,-91.978L110.882,-91.103L112.398,-91.978L112.398,-93.728L110.882,-94.603L109.375,-93.733Z M115.929,-91.978L114.413,-91.103L112.898,-91.978L112.898,-93.728L114.413,-94.603L115.929,-93.728Z M119.460,-91.978L117.944,-91.103L116.429,-91.978L116.429,-93.728L117.944,-94.603L119.460,-93.728Z M122.991,-91.978L121.475,-91.103L119.960,-91.978L119.960,-93.728L121.475,-94.603L122.991,-93.728Z M126.522,-91.978L125.006,-91.103L123.491,-91.978L123.491,-93.728L125.006,-94.603L126.522,-93.728Z M130.053,-91.978L128.538,-91.103L127.022,-91.978L127.022,-93.728L128.538,-94.603L130.053,-93.728Z M133.542,-93.752L132.069,-94.603L130.553,-93.728L130.553,-91.978L132.069,-91.103L132.602,-91.411L133.542,-93.752Z M104.547,-90.036L104.707,-89.013L104.719,-88.546L105.585,-88.045L107.101,-88.920L107.101,-90.670L105.585,-91.545L104.334,-90.823L104.547,-90.036Z M107.841,-88.782L109.117,-88.045L110.632,-88.920L110.632,-90.670L109.117,-91.545L108.606,-91.250L107.841,-88.782Z M107.793,-90.781L107.601,-90.670L107.601,-90.162L107.793,-90.781Z M114.163,-88.920L112.648,-88.045L111.132,-88.920L111.132,-90.670L112.648,-91.545L114.163,-90.670Z M117.694,-88.920L116.179,-88.045L114.663,-88.920L114.663,-90.670L116.179,-91.545L117.694,-90.670Z M121.225,-88.920L119.710,-88.045L118.194,-88.920L118.194,-90.670L119.710,-91.545L121.225,-90.670Z M124.756,-88.920L123.241,-88.045L121.725,-88.920L121.725,-90.670L123.241,-91.545L124.756,-90.670Z M128.288,-88.920L126.772,-88.045L125.256,-88.920L125.256,-90.670L126.772,-91.545L128.288,-90.670Z M131.819,-89.463L131.819,-90.670L130.303,-91.545L128.788,-90.670L128.788,-88.920L130.303,-88.045L131.535,-88.756L131.819,-89.463Z M104.734,-87.959L104.689,-87.388L104.598,-86.831L104.459,-86.269L104.266,-85.705L103.985,-85.082L105.335,-85.862L105.335,-87.612L104.734,-87.959Z M106.769,-85.323L107.351,-84.987L108.867,-85.862L108.867,-87.612L107.689,-88.292L106.769,-85.323Z M107.024,-88.299L105.835,-87.612L105.835,-85.862L106.205,-85.649L107.024,-88.299Z M112.398,-85.862L110.882,-84.987L109.367,-85.862L109.367,-87.612L110.882,-88.487L112.398,-87.612Z M115.929,-85.862L114.413,-84.987L112.898,-85.862L112.898,-87.612L114.413,-88.487L115.929,-87.612Z M119.460,-85.862L117.944,-84.987L116.429,-85.862L116.429,-87.612L117.944,-88.487L119.460,-87.612Z M122.991,-85.862L121.475,-84.987L119.960,-85.862L119.960,-87.612L121.475,-88.487L122.991,-87.612Z M126.522,-85.862L125.006,-84.987L123.491,-85.862L123.491,-87.612L125.006,-88.487L126.522,-87.612Z M130.053,-85.862L128.538,-84.987L127.022,-85.862L127.022,-87.612L128.538,-88.487L130.053,-87.612Z M131.233,-88.005L130.553,-87.612L130.553,-86.314L131.233,-88.005Z M136.526,-86.014L136.289,-86.220L136.058,-86.344L135.863,-86.400L135.558,-86.424L135.352,-86.403L134.941,-86.296L134.743,-86.218L134.390,-86.041L134.089,-85.859L135.600,-84.987L136.790,-85.674L136.526,-86.014Z M76.908,-82.177L77.337,-81.929L77.765,-82.177L76.908,-82.177Z M102.111,-82.591L101.603,-82.190L102.054,-81.929L103.570,-82.804L103.570,-84.370L103.202,-83.816L102.491,-82.958L102.111,-82.591Z M105.747,-82.023L107.101,-82.804L107.101,-84.554L106.618,-84.833L105.747,-82.023Z M106.053,-85.159L105.585,-85.429L104.070,-84.554L104.070,-82.804L105.134,-82.190L106.053,-85.159Z M110.632,-82.804L109.117,-81.929L107.601,-82.804L107.601,-84.554L109.117,-85.429L110.632,-84.554Z M114.163,-82.804L112.648,-81.929L111.132,-82.804L111.132,-84.554L112.648,-85.429L114.163,-84.554Z M117.694,-82.804L116.179,-81.929L114.663,-82.804L114.663,-84.554L116.179,-85.429L117.694,-84.554Z M121.225,-82.804L119.710,-81.929L118.194,-82.804L118.194,-84.554L119.710,-85.429L121.225,-84.554Z M124.756,-82.804L123.241,-81.929L121.725,-82.804L121.725,-84.554L123.241,-85.429L124.756,-84.554Z M128.288,-82.804L126.772,-81.929L125.256,-82.804L125.256,-84.554L126.772,-85.429L128.288,-84.554Z M130.166,-85.350L128.788,-84.554L128.788,-82.804L129.076,-82.638L130.166,-85.350Z M132.863,-84.769L132.589,-84.396L132.362,-83.987L132.319,-83.883L132.319,-82.804L133.834,-81.929L135.350,-82.804L135.350,-84.554L133.834,-85.429L133.054,-84.979L132.863,-84.769Z M138.377,-83.856L137.441,-84.834L137.099,-85.275L135.850,-84.554L135.850,-82.804L137.365,-81.929L138.881,-82.804L138.881,-83.465L138.377,-83.856Z M139.381,-83.077L139.381,-82.804L140.759,-82.008L139.381,-83.077Z M73.226,-79.556L73.556,-79.746L73.556,-80.449L73.226,-79.556Z M75.234,-82.177L74.056,-81.496L74.056,-79.746L75.571,-78.871L77.087,-79.746L77.087,-81.496L75.908,-82.177L75.234,-82.177Z M79.868,-81.075L79.260,-81.368L78.802,-81.664L78.427,-81.981L77.587,-81.496L77.587,-79.746L79.102,-78.871L80.618,-79.746L80.618,-80.828L79.868,-81.075Z M81.626,-79.453L81.863,-79.820L82.039,-80.038L82.233,-80.241L82.445,-80.429L82.675,-80.598L81.567,-80.651L81.118,-80.734L81.118,-79.746L81.626,-79.453Z M85.658,-79.790L85.352,-79.776L85.053,-79.723L84.817,-79.649L86.165,-78.871L87.474,-79.627L85.658,-79.790Z M88.553,-79.531L89.696,-78.871L90.532,-79.354L88.553,-79.531Z M93.345,-79.103L92.731,-79.158L93.227,-78.871L93.342,-78.938L93.345,-79.103Z M98.029,-80.876L95.364,-80.629L95.303,-80.592L95.288,-80.525L95.311,-80.469L95.368,-80.437L98.273,-80.218L98.273,-80.926L98.029,-80.876Z M100.831,-81.715L100.347,-81.491L99.271,-81.131L98.773,-81.029L98.773,-80.180L101.428,-79.980L101.804,-79.980L101.804,-81.496L101.131,-81.885L100.831,-81.715Z M105.062,-79.811L105.048,-79.580L105.335,-79.746L105.335,-80.694L105.062,-79.811Z M102.304,-80.242L102.492,-80.325L102.722,-80.365L104.554,-80.316L104.982,-81.700L103.820,-82.371L102.304,-81.496L102.304,-80.242Z M108.867,-79.746L107.351,-78.871L105.835,-79.746L105.835,-81.496L107.351,-82.371L108.867,-81.496Z M112.398,-79.746L110.882,-78.871L109.367,-79.746L109.367,-81.496L110.882,-82.371L112.398,-81.496Z M115.929,-79.746L114.413,-78.871L112.898,-79.746L112.898,-81.496L114.413,-82.371L115.929,-81.496Z M119.460,-79.746L117.944,-78.871L116.429,-79.746L116.429,-81.496L117.944,-82.371L119.460,-81.496Z M122.991,-79.746L121.475,-78.871L119.960,-79.746L119.960,-81.496L121.475,-82.371L122.991,-81.496Z M126.522,-79.746L125.006,-78.871L123.491,-79.746L123.491,-81.496L125.006,-82.371L126.522,-81.496Z M128.888,-82.169L128.538,-82.371L127.022,-81.496L127.022,-79.746L127.746,-79.328L128.888,-82.169Z M129.593,-79.516L129.675,-79.528L130.053,-79.746L130.053,-79.947L129.593,-79.516Z M131.489,-81.888L131.078,-81.220L130.553,-80.515L130.553,-79.746L130.682,-79.672L132.140,-79.880L133.363,-80.157L133.584,-80.235L133.584,-81.496L132.069,-82.371L131.571,-82.084L131.489,-81.888Z M134.663,-80.742L134.928,-80.839L135.124,-80.854L135.252,-80.824L135.475,-80.707L135.763,-80.514L136.069,-80.268L136.371,-79.986L136.648,-79.682L136.754,-79.537L137.115,-79.746L137.115,-81.496L135.600,-82.371L134.084,-81.496L134.084,-80.441L134.663,-80.742Z M140.646,-79.746L139.131,-78.871L137.615,-79.746L137.615,-81.496L139.131,-82.371L140.646,-81.496Z M142.365,-80.235L142.337,-80.478L142.268,-80.668L142.144,-80.869L142.042,-80.990L141.927,-81.103L141.303,-81.587L141.146,-81.496L141.146,-79.746L141.852,-79.339L142.060,-79.496L142.221,-79.708L142.325,-79.952L142.365,-80.235Z M38.875,-76.192L38.744,-76.175L38.490,-76.113L38.199,-75.984L38.495,-75.813L39.154,-76.194L38.875,-76.192Z M41.339,-76.210L42.026,-75.813L42.730,-76.220L41.339,-76.210Z M44.826,-76.235L45.557,-75.813L46.307,-76.246L44.826,-76.235Z M48.313,-76.261L49.088,-75.813L49.883,-76.272L48.313,-76.261Z M51.800,-76.286L52.619,-75.813L53.459,-76.298L51.800,-76.286Z M55.287,-76.312L56.150,-75.813L57.036,-76.324L55.287,-76.312Z M58.774,-76.337L59.681,-75.813L60.612,-76.351L58.774,-76.337Z M62.261,-76.363L63.212,-75.813L64.189,-76.377L62.261,-76.363Z M65.748,-76.388L66.744,-75.813L67.765,-76.403L65.748,-76.388Z M71.790,-76.693L71.392,-76.506L71.133,-76.443L71.000,-76.427L69.235,-76.414L70.275,-75.813L71.790,-76.688L71.790,-76.693Z M72.448,-77.445L72.290,-77.171L72.290,-76.688L73.806,-75.813L75.321,-76.688L75.321,-78.438L73.806,-79.313L72.956,-78.823L72.448,-77.445Z M78.852,-76.688L77.337,-75.813L75.821,-76.688L75.821,-78.438L77.337,-79.313L78.852,-78.438Z M81.201,-76.299L81.106,-76.861L81.082,-77.433L81.130,-78.003L81.250,-78.560L81.409,-79.001L80.868,-79.313L79.352,-78.438L79.352,-76.688L80.868,-75.813L81.278,-76.050L81.201,-76.299Z M83.780,-78.920L83.560,-78.608L83.453,-78.413L83.364,-78.212L83.235,-77.797L83.197,-77.585L83.174,-77.160L83.224,-76.740L83.311,-76.441L84.399,-75.813L85.915,-76.688L85.915,-78.438L84.399,-79.313L83.852,-78.998L83.780,-78.920Z M89.446,-76.688L87.930,-75.813L86.415,-76.688L86.415,-78.438L87.930,-79.313L89.446,-78.438Z M91.398,-79.277L89.946,-78.438L89.946,-76.688L91.461,-75.813L92.977,-76.688L92.977,-78.438L91.548,-79.263L91.398,-79.277Z M105.245,-79.117L105.368,-79.004L105.492,-78.929L107.101,-78.276L107.101,-78.438L105.585,-79.313L105.245,-79.117Z M108.633,-77.654L110.632,-77.064L110.632,-78.438L109.117,-79.313L107.601,-78.438L107.601,-78.073L108.633,-77.654Z M113.692,-76.416L114.163,-76.688L114.163,-78.438L112.648,-79.313L111.132,-78.438L111.132,-76.928L113.692,-76.416Z M116.739,-76.136L117.694,-76.688L117.694,-78.438L116.179,-79.313L114.663,-78.438L114.663,-76.688L115.417,-76.253L116.739,-76.136Z M120.214,-76.272L120.618,-76.337L121.225,-76.688L121.225,-78.438L119.710,-79.313L118.194,-78.438L118.194,-76.688L119.074,-76.180L120.214,-76.272Z M123.671,-76.983L124.756,-77.361L124.756,-78.438L123.241,-79.313L121.725,-78.438L121.725,-76.688L121.956,-76.555L123.671,-76.983Z M125.420,-77.593L127.229,-78.431L127.341,-78.518L127.436,-78.623L127.511,-78.744L127.558,-78.860L126.772,-79.313L125.256,-78.438L125.256,-77.536L125.420,-77.593Z M137.015,-79.111L137.085,-78.917L137.108,-78.778L137.092,-78.494L137.065,-78.321L136.981,-78.070L136.727,-77.645L138.881,-78.350L138.881,-78.438L137.365,-79.313L137.015,-79.111Z M141.231,-79.120L140.896,-79.313L139.685,-78.614L141.231,-79.120Z M37.775,-75.651L37.590,-75.412L37.466,-75.179L36.698,-72.967L37.103,-72.971L38.245,-73.630L38.245,-75.380L37.775,-75.651Z M40.167,-76.201L38.745,-75.380L38.745,-73.630L39.835,-73.001L40.701,-73.010L41.776,-73.630L41.776,-75.380L40.352,-76.202L40.167,-76.201Z M43.743,-76.227L42.276,-75.380L42.276,-73.630L43.302,-73.038L44.300,-73.049L45.307,-73.630L45.307,-75.380L43.839,-76.228L43.743,-76.227Z M47.319,-76.253L45.807,-75.380L45.807,-73.630L46.768,-73.075L47.898,-73.087L48.838,-73.630L48.838,-75.380L47.319,-76.253Z M51.496,-73.126L52.369,-73.630L52.369,-75.380L50.854,-76.255L49.338,-75.380L49.338,-73.630L50.235,-73.112L51.496,-73.126Z M55.094,-73.165L55.900,-73.630L55.900,-75.380L54.385,-76.255L52.869,-75.380L52.869,-73.630L53.702,-73.150L55.094,-73.165Z M58.692,-73.203L59.431,-73.630L59.431,-75.380L57.916,-76.255L56.400,-75.380L56.400,-73.630L57.168,-73.187L58.692,-73.203Z M62.290,-73.242L62.962,-73.630L62.962,-75.380L61.447,-76.255L59.931,-75.380L59.931,-73.630L60.635,-73.224L62.290,-73.242Z M65.888,-73.281L66.494,-73.630L66.494,-75.380L64.978,-76.255L63.462,-75.380L63.462,-73.630L64.101,-73.261L65.888,-73.281Z M69.486,-73.319L70.025,-73.630L70.025,-75.380L68.509,-76.255L66.994,-75.380L66.994,-73.630L67.568,-73.299L69.486,-73.319Z M73.084,-73.358L73.556,-73.630L73.556,-75.380L72.040,-76.255L70.525,-75.380L70.525,-73.630L71.034,-73.336L73.084,-73.358Z M76.682,-73.397L77.087,-73.630L77.087,-75.380L75.571,-76.255L74.056,-75.380L74.056,-73.630L74.501,-73.373L76.682,-73.397Z M80.280,-73.435L80.618,-73.630L80.618,-75.380L79.102,-76.255L77.587,-75.380L77.587,-73.630L77.968,-73.410L80.280,-73.435Z M83.018,-73.887L82.763,-74.030L82.525,-74.193L82.306,-74.373L82.104,-74.571L81.921,-74.783L81.756,-75.010L81.609,-75.249L81.449,-75.571L81.118,-75.380L81.118,-73.630L81.434,-73.448L83.878,-73.474L84.037,-73.566L83.584,-73.664L83.292,-73.764L83.018,-73.887Z M84.149,-75.355L84.149,-75.380L83.991,-75.471L84.149,-75.355Z M84.649,-75.097L84.883,-75.029L85.206,-74.977L87.680,-75.029L87.680,-75.380L86.165,-76.255L84.649,-75.380L84.649,-75.097Z M91.211,-75.103L91.211,-75.380L89.696,-76.255L88.180,-75.380L88.180,-75.039L91.211,-75.103Z M93.257,-75.122L93.268,-75.131L93.289,-76.219L93.227,-76.255L91.711,-75.380L91.711,-75.114L93.128,-75.143L93.257,-75.122Z M118.155,-76.133L117.944,-76.255L117.727,-76.130L118.155,-76.133Z M38.854,-72.990L38.495,-73.197L38.122,-72.982L38.854,-72.990Z M42.320,-73.027L42.026,-73.197L41.720,-73.021L42.320,-73.027Z M45.787,-73.065L45.557,-73.197L45.319,-73.059L45.787,-73.065Z M49.253,-73.102L49.088,-73.197L48.917,-73.098L49.253,-73.102Z M52.720,-73.139L52.619,-73.197L52.515,-73.137L52.720,-73.139Z"/>
  </g>
</svg>
