  0
SECTION
  2
HEADER
  9
$ACADVER
  1
AC1024
  9
$ACADMAINTVER
 70
6
  9
$DWGCODEPAGE
  3
ANSI_1252
  9
$LASTSAVEDBY
  1
ezdxf
  9
$INSBASE
 10
0.0
 20
0.0
 30
0.0
  9
$EXTMIN
 10
1e+20
 20
1e+20
 30
1e+20
  9
$EXTMAX
 10
-1e+20
 20
-1e+20
 30
-1e+20
  9
$LIMMIN
 10
0.0
 20
0.0
  9
$LIMMAX
 10
420.0
 20
297.0
  9
$ORTHOMODE
 70
0
  9
$REGENMODE
 70
1
  9
$FILLMODE
 70
1
  9
$QTEXTMODE
 70
0
  9
$MIRRTEXT
 70
1
  9
$LTSCALE
 40
1.0
  9
$ATTMODE
 70
1
  9
$TEXTSIZE
 40
2.5
  9
$TRACEWID
 40
1.0
  9
$TEXTSTYLE
  7
Standard
  9
$CLAYER
  8
0
  9
$CELTYPE
  6
ByLayer
  9
$CECOLOR
 62
256
  9
$CELTSCALE
 40
1.0
  9
$DISPSILH
 70
0
  9
$DIMSCALE
 40
1.0
  9
$DIMASZ
 40
2.5
  9
$DIMEXO
 40
0.625
  9
$DIMDLI
 40
3.75
  9
$DIMRND
 40
0.0
  9
$DIMDLE
 40
0.0
  9
$DIMEXE
 40
1.25
  9
$DIMTP
 40
0.0
  9
$DIMTM
 40
0.0
  9
$DIMTXT
 40
2.5
  9
$DIMCEN
 40
2.5
  9
$DIMTSZ
 40
0.0
  9
$DIMTOL
 70
0
  9
$DIMLIM
 70
0
  9
$DIMTIH
 70
0
  9
$DIMTOH
 70
0
  9
$DIMSE1
 70
0
  9
$DIMSE2
 70
0
  9
$DIMTAD
 70
1
  9
$DIMZIN
 70
8
  9
$DIMBLK
  1

  9
$DIMASO
 70
1
  9
$DIMSHO
 70
1
  9
$DIMPOST
  1

  9
$DIMAPOST
  1

  9
$DIMALT
 70
0
  9
$DIMALTD
 70
3
  9
$DIMALTF
 40
0.03937007874
  9
$DIMLFAC
 40
1.0
  9
$DIMTOFL
 70
1
  9
$DIMTVP
 40
0.0
  9
$DIMTIX
 70
0
  9
$DIMSOXD
 70
0
  9
$DIMSAH
 70
0
  9
$DIMBLK1
  1

  9
$DIMBLK2
  1

  9
$DIMSTYLE
  2
ISO-25
  9
$DIMCLRD
 70
0
  9
$DIMCLRE
 70
0
  9
$DIMCLRT
 70
0
  9
$DIMTFAC
 40
1.0
  9
$DIMGAP
 40
0.625
  9
$DIMJUST
 70
0
  9
$DIMSD1
 70
0
  9
$DIMSD2
 70
0
  9
$DIMTOLJ
 70
0
  9
$DIMTZIN
 70
8
  9
$DIMALTZ
 70
0
  9
$DIMALTTZ
 70
0
  9
$DIMUPT
 70
0
  9
$DIMDEC
 70
2
  9
$DIMTDEC
 70
2
  9
$DIMALTU
 70
2
  9
$DIMALTTD
 70
3
  9
$DIMTXSTY
  7
Standard
  9
$DIMAUNIT
 70
0
  9
$DIMADEC
 70
0
  9
$DIMALTRND
 40
0.0
  9
$DIMAZIN
 70
0
  9
$DIMDSEP
 70
44
  9
$DIMATFIT
 70
3
  9
$DIMFRAC
 70
0
  9
$DIMLDRBLK
  1

  9
$DIMLUNIT
 70
2
  9
$DIMLWD
 70
-2
  9
$DIMLWE
 70
-2
  9
$DIMTMOVE
 70
0
  9
$DIMFXL
 40
1.0
  9
$DIMFXLON
 70
0
  9
$DIMJOGANG
 40
0.785398163397
  9
$DIMTFILL
 70
0
  9
$DIMTFILLCLR
 70
0
  9
$DIMARCSYM
 70
0
  9
$DIMLTYPE
  6

  9
$DIMLTEX1
  6

  9
$DIMLTEX2
  6

  9
$DIMTXTDIRECTION
 70
0
  9
$LUNITS
 70
2
  9
$LUPREC
 70
4
  9
$SKETCHINC
 40
1.0
  9
$FILLETRAD
 40
10.0
  9
$AUNITS
 70
0
  9
$AUPREC
 70
2
  9
$MENU
  1
.
  9
$ELEVATION
 40
0.0
  9
$PELEVATION
 40
0.0
  9
$THICKNESS
 40
0.0
  9
$LIMCHECK
 70
0
  9
$CHAMFERA
 40
0.0
  9
$CHAMFERB
 40
0.0
  9
$CHAMFERC
 40
0.0
  9
$CHAMFERD
 40
0.0
  9
$SKPOLY
 70
0
  9
$TDCREATE
 40
2461142.7371412036
  9
$TDUCREATE
 40
2458532.153996898
  9
$TDUPDATE
 40
2461142.7371412036
  9
$TDUUPDATE
 40
2458532.1544311
  9
$TDINDWG
 40
0.0
  9
$TDUSRTIMER
 40
0.0
  9
$USRTIMER
 70
1
  9
$ANGBASE
 50
0.0
  9
$ANGDIR
 70
0
  9
$PDMODE
 70
0
  9
$PDSIZE
 40
0.0
  9
$PLINEWID
 40
0.0
  9
$SPLFRAME
 70
0
  9
$SPLINETYPE
 70
6
  9
$SPLINESEGS
 70
8
  9
$HANDSEED
  5
3B
  9
$SURFTAB1
 70
6
  9
$SURFTAB2
 70
6
  9
$SURFTYPE
 70
6
  9
$SURFU
 70
6
  9
$SURFV
 70
6
  9
$UCSBASE
  2

  9
$UCSNAME
  2

  9
$UCSORG
 10
0.0
 20
0.0
 30
0.0
  9
$UCSXDIR
 10
1.0
 20
0.0
 30
0.0
  9
$UCSYDIR
 10
0.0
 20
1.0
 30
0.0
  9
$UCSORTHOREF
  2

  9
$UCSORTHOVIEW
 70
0
  9
$UCSORGTOP
 10
0.0
 20
0.0
 30
0.0
  9
$UCSORGBOTTOM
 10
0.0
 20
0.0
 30
0.0
  9
$UCSORGLEFT
 10
0.0
 20
0.0
 30
0.0
  9
$UCSORGRIGHT
 10
0.0
 20
0.0
 30
0.0
  9
$UCSORGFRONT
 10
0.0
 20
0.0
 30
0.0
  9
$UCSORGBACK
 10
0.0
 20
0.0
 30
0.0
  9
$PUCSBASE
  2

  9
$PUCSNAME
  2

  9
$PUCSORG
 10
0.0
 20
0.0
 30
0.0
  9
$PUCSXDIR
 10
1.0
 20
0.0
 30
0.0
  9
$PUCSYDIR
 10
0.0
 20
1.0
 30
0.0
  9
$PUCSORTHOREF
  2

  9
$PUCSORTHOVIEW
 70
0
  9
$PUCSORGTOP
 10
0.0
 20
0.0
 30
0.0
  9
$PUCSORGBOTTOM
 10
0.0
 20
0.0
 30
0.0
  9
$PUCSORGLEFT
 10
0.0
 20
0.0
 30
0.0
  9
$PUCSORGRIGHT
 10
0.0
 20
0.0
 30
0.0
  9
$PUCSORGFRONT
 10
0.0
 20
0.0
 30
0.0
  9
$PUCSORGBACK
 10
0.0
 20
0.0
 30
0.0
  9
$USERI1
 70
0
  9
$USERI2
 70
0
  9
$USERI3
 70
0
  9
$USERI4
 70
0
  9
$USERI5
 70
0
  9
$USERR1
 40
0.0
  9
$USERR2
 40
0.0
  9
$USERR3
 40
0.0
  9
$USERR4
 40
0.0
  9
$USERR5
 40
0.0
  9
$WORLDVIEW
 70
1
  9
$SHADEDGE
 70
3
  9
$SHADEDIF
 70
70
  9
$TILEMODE
 70
1
  9
$MAXACTVP
 70
64
  9
$PINSBASE
 10
0.0
 20
0.0
 30
0.0
  9
$PLIMCHECK
 70
0
  9
$PEXTMIN
 10
1e+20
 20
1e+20
 30
1e+20
  9
$PEXTMAX
 10
-1e+20
 20
-1e+20
 30
-1e+20
  9
$PLIMMIN
 10
0.0
 20
0.0
  9
$PLIMMAX
 10
420.0
 20
297.0
  9
$UNITMODE
 70
0
  9
$VISRETAIN
 70
1
  9
$PLINEGEN
 70
0
  9
$PSLTSCALE
 70
1
  9
$TREEDEPTH
 70
3020
  9
$CMLSTYLE
  2
Standard
  9
$CMLJUST
 70
0
  9
$CMLSCALE
 40
20.0
  9
$PROXYGRAPHICS
 70
1
  9
$MEASUREMENT
 70
1
  9
$CELWEIGHT
370
-1
  9
$ENDCAPS
280
0
  9
$JOINSTYLE
280
0
  9
$LWDISPLAY
290
0
  9
$INSUNITS
 70
4
  9
$HYPERLINKBASE
  1

  9
$STYLESHEET
  1

  9
$XEDIT
290
1
  9
$CEPSNTYPE
380
0
  9
$PSTYLEMODE
290
1
  9
$FINGERPRINTGUID
  2
{83D0C0FC-2C17-400F-BC04-010DEB3D4A9E}
  9
$VERSIONGUID
  2
{4BB8B77F-5395-49E1-AF34-7D03669B5CDB}
  9
$EXTNAMES
290
1
  9
$PSVPSCALE
 40
0.0
  9
$OLESTARTUP
290
0
  9
$SORTENTS
280
127
  9
$INDEXCTL
280
0
  9
$HIDETEXT
280
1
  9
$XCLIPFRAME
280
1
  9
$HALOGAP
280
0
  9
$OBSCOLOR
 70
257
  9
$OBSLTYPE
280
0
  9
$INTERSECTIONDISPLAY
280
0
  9
$INTERSECTIONCOLOR
 70
257
  9
$DIMASSOC
280
2
  9
$PROJECTNAME
  1

  9
$CAMERADISPLAY
290
0
  9
$LENSLENGTH
 40
50.0
  9
$CAMERAHEIGHT
 40
0.0
  9
$STEPSPERSEC
 40
24.0
  9
$STEPSIZE
 40
100.0
  9
$3DDWFPREC
 40
2.0
  9
$PSOLWIDTH
 40
0.005
  9
$PSOLHEIGHT
 40
0.08
  9
$LOFTANG1
 40
1.570796326795
  9
$LOFTANG2
 40
1.570796326795
  9
$LOFTMAG1
 40
0.0
  9
$LOFTMAG2
 40
0.0
  9
$LOFTPARAM
 70
7
  9
$LOFTNORMALS
280
1
  9
$LATITUDE
 40
37.795
  9
$LONGITUDE
 40
-122.394
  9
$NORTHDIRECTION
 40
0.0
  9
$TIMEZONE
 70
-8000
  9
$LIGHTGLYPHDISPLAY
280
1
  9
$TILEMODELIGHTSYNCH
280
1
  9
$CMATERIAL
347
20
  9
$SOLIDHIST
280
0
  9
$SHOWHIST
280
1
  9
$DWFFRAME
280
2
  9
$DGNFRAME
280
2
  9
$REALWORLDSCALE
290
1
  9
$INTERFERECOLOR
 62
256
  9
$CSHADOW
280
0
  9
$SHADOWPLANELOCATION
 40
0.0
  0
ENDSEC
  0
SECTION
  2
CLASSES
  0
CLASS
  1
ACDBDICTIONARYWDFLT
  2
AcDbDictionaryWithDefault
  3
ObjectDBX Classes
 90
0
 91
0
280
0
281
0
  0
CLASS
  1
SUN
  2
AcDbSun
  3
SCENEOE
 90
1153
 91
0
280
0
281
0
  0
CLASS
  1
VISUALSTYLE
  2
AcDbVisualStyle
  3
ObjectDBX Classes
 90
4095
 91
0
280
0
281
0
  0
CLASS
  1
MATERIAL
  2
AcDbMaterial
  3
ObjectDBX Classes
 90
1153
 91
0
280
0
281
0
  0
CLASS
  1
SCALE
  2
AcDbScale
  3
ObjectDBX Classes
 90
1153
 91
0
280
0
281
0
  0
CLASS
  1
TABLESTYLE
  2
AcDbTableStyle
  3
ObjectDBX Classes
 90
4095
 91
0
280
0
281
0
  0
CLASS
  1
MLEADERSTYLE
  2
AcDbMLeaderStyle
  3
ACDB_MLEADERSTYLE_CLASS
 90
4095
 91
0
280
0
281
0
  0
CLASS
  1
DICTIONARYVAR
  2
AcDbDictionaryVar
  3
ObjectDBX Classes
 90
0
 91
0
280
0
281
0
  0
CLASS
  1
CELLSTYLEMAP
  2
AcDbCellStyleMap
  3
ObjectDBX Classes
 90
1152
 91
0
280
0
281
0
  0
CLASS
  1
MENTALRAYRENDERSETTINGS
  2
AcDbMentalRayRenderSettings
  3
SCENEOE
 90
1024
 91
0
280
0
281
0
  0
CLASS
  1
ACDBDETAILVIEWSTYLE
  2
AcDbDetailViewStyle
  3
ObjectDBX Classes
 90
1025
 91
0
280
0
281
0
  0
CLASS
  1
ACDBSECTIONVIEWSTYLE
  2
AcDbSectionViewStyle
  3
ObjectDBX Classes
 90
1025
 91
0
280
0
281
0
  0
CLASS
  1
RASTERVARIABLES
  2
AcDbRasterVariables
  3
ISM
 90
0
 91
0
280
0
281
0
  0
CLASS
  1
ACDBPLACEHOLDER
  2
AcDbPlaceHolder
  3
ObjectDBX Classes
 90
0
 91
0
280
0
281
0
  0
CLASS
  1
LAYOUT
  2
AcDbLayout
  3
ObjectDBX Classes
 90
0
 91
0
280
0
281
0
  0
ENDSEC
  0
SECTION
  2
TABLES
  0
TABLE
  2
VPORT
  5
8
330
0
100
AcDbSymbolTable
 70
1
  0
VPORT
  5
23
330
8
100
AcDbSymbolTableRecord
100
AcDbViewportTableRecord
  2
*Active
 70
0
 10
0.0
 20
0.0
 11
1.0
 21
1.0
 12
0.0
 22
0.0
 13
0.0
 23
0.0
 14
0.5
 24
0.5
 15
0.5
 25
0.5
 16
0.0
 26
0.0
 36
1.0
 17
0.0
 27
0.0
 37
0.0
 40
1000.0
 41
1.34
 42
50.0
 43
0.0
 44
0.0
 50
0.0
 51
0.0
 71
0
 72
1000
 73
1
 74
3
 75
0
 76
0
 77
0
 78
0
281
0
 65
0
146
0.0
  0
ENDTAB
  0
TABLE
  2
LTYPE
  5
2
330
0
100
AcDbSymbolTable
 70
3
  0
LTYPE
  5
24
330
2
100
AcDbSymbolTableRecord
100
AcDbLinetypeTableRecord
  2
ByBlock
 70
0
  3

 72
65
 73
0
 40
0.0
  0
LTYPE
  5
25
330
2
100
AcDbSymbolTableRecord
100
AcDbLinetypeTableRecord
  2
ByLayer
 70
0
  3

 72
65
 73
0
 40
0.0
  0
LTYPE
  5
26
330
2
100
AcDbSymbolTableRecord
100
AcDbLinetypeTableRecord
  2
Continuous
 70
0
  3

 72
65
 73
0
 40
0.0
  0
ENDTAB
  0
TABLE
  2
LAYER
  5
1
330
0
100
AcDbSymbolTable
 70
2
  0
LAYER
  5
27
330
1
100
AcDbSymbolTableRecord
100
AcDbLayerTableRecord
  2
0
 70
0
 62
7
  6
Continuous
370
-3
390
13
347
21
  0
LAYER
  5
28
330
1
100
AcDbSymbolTableRecord
100
AcDbLayerTableRecord
  2
Defpoints
 70
0
 62
7
  6
Continuous
290
0
370
-3
390
13
347
21
  0
ENDTAB
  0
TABLE
  2
STYLE
  5
5
330
0
100
AcDbSymbolTable
 70
1
  0
STYLE
  5
29
330
5
100
AcDbSymbolTableRecord
100
AcDbTextStyleTableRecord
  2
Standard
 70
0
 40
0.0
 41
1.0
 50
0.0
 71
0
 42
2.5
  3
txt
  4

  0
ENDTAB
  0
TABLE
  2
VIEW
  5
7
330
0
100
AcDbSymbolTable
 70
0
  0
ENDTAB
  0
TABLE
  2
UCS
  5
6
330
0
100
AcDbSymbolTable
 70
0
  0
ENDTAB
  0
TABLE
  2
APPID
  5
3
330
0
100
AcDbSymbolTable
 70
3
  0
APPID
  5
2A
330
3
100
AcDbSymbolTableRecord
100
AcDbRegAppTableRecord
  2
ACAD
 70
0
  0
APPID
  5
38
330
3
100
AcDbSymbolTableRecord
100
AcDbRegAppTableRecord
  2
HATCHBACKGROUNDCOLOR
 70
0
  0
APPID
  5
39
330
3
100
AcDbSymbolTableRecord
100
AcDbRegAppTableRecord
  2
EZDXF
 70
0
  0
ENDTAB
  0
TABLE
  2
DIMSTYLE
  5
4
330
0
100
AcDbSymbolTable
 70
1
100
AcDbDimStyleTable
  0
DIMSTYLE
105
2B
330
4
100
AcDbSymbolTableRecord
100
AcDbDimStyleTableRecord
  2
Standard
 70
0
 40
1.0
 41
2.5
 42
0.625
 43
3.75
 44
1.25
 45
0.0
 46
0.0
 47
0.0
 48
0.0
 49
2.5
140
2.5
141
2.5
142
0.0
143
0.03937007874
144
1.0
145
0.0
146
1.0
147
0.625
148
0.0
 69
0
 70
0
 71
0
 72
0
 73
0
 74
0
 75
0
 76
0
 77
1
 78
8
 79
3
170
0
171
3
172
1
173
0
174
0
175
0
176
0
177
0
178
0
179
2
271
2
272
2
273
2
274
3
275
0
276
0
277
2
278
44
279
0
280
0
281
0
282
0
283
0
284
8
285
0
286
0
288
0
289
3
290
0
371
-2
372
-2
  0
ENDTAB
  0
TABLE
  2
BLOCK_RECORD
  5
9
330
0
100
AcDbSymbolTable
 70
2
  0
BLOCK_RECORD
  5
17
330
9
100
AcDbSymbolTableRecord
100
AcDbBlockTableRecord
  2
*Model_Space
340
1A
 70
0
280
1
281
0
  0
BLOCK_RECORD
  5
1B
330
9
100
AcDbSymbolTableRecord
100
AcDbBlockTableRecord
  2
*Paper_Space
340
1E
 70
0
280
1
281
0
  0
ENDTAB
  0
ENDSEC
  0
SECTION
  2
BLOCKS
  0
BLOCK
  5
18
330
17
100
AcDbEntity
  8
0
100
AcDbBlockBegin
  2
*Model_Space
 70
0
 10
0.0
 20
0.0
 30
0.0
  3
*Model_Space
  1

  0
ENDBLK
  5
19
330
17
100
AcDbEntity
  8
0
100
AcDbBlockEnd
  0
BLOCK
  5
1C
330
1B
100
AcDbEntity
  8
0
100
AcDbBlockBegin
  2
*Paper_Space
 70
0
 10
0.0
 20
0.0
 30
0.0
  3
*Paper_Space
  1

  0
ENDBLK
  5
1D
330
1B
100
AcDbEntity
  8
0
100
AcDbBlockEnd
  0
ENDSEC
  0
SECTION
  2
ENTITIES
  0
LWPOLYLINE
  5
2F
330
17
100
AcDbEntity
  8
0
100
AcDbPolyline
 90
66
 70
1
 10
93.494352
 20
-54.213252
 10
100.877624
 20
-54.213252
 10
104.818434
 20
-68.99148
 10
93.461586
 20
-69.054218
 10
93.41485
 20
-69.048122
 10
93.369638
 20
-69.03770800000001
 10
93.32594999999999
 20
-69.02323
 10
93.28403999999999
 20
-69.004942
 10
93.24416199999999
 20
-68.983098
 10
93.20656999999999
 20
-68.957698
 10
93.17151799999999
 20
-68.928996
 10
93.13926
 20
-68.897246
 10
93.11004999999999
 20
-68.86270199999998
 10
93.08388799999999
 20
-68.82561799999998
 10
93.061028
 20
-68.78599399999999
 10
93.04197799999999
 20
-68.74408399999997
 10
93.026738
 20
-68.70014199999997
 10
93.01556199999999
 20
-68.65442199999997
 10
92.939108
 20
-67.90131199999998
 10
81.11261400000001
 20
-67.88505599999998
 10
81.11007400000001
 20
-68.69506199999998
 10
81.10245400000001
 20
-68.74459199999998
 10
81.09026200000001
 20
-68.79234399999997
 10
81.07349800000001
 20
-68.83806399999997
 10
81.05241600000001
 20
-68.88149799999998
 10
81.02752400000001
 20
-68.92264599999997
 10
80.998822
 20
-68.96099999999997
 10
80.966564
 20
-68.99630599999998
 10
80.93100400000002
 20
-69.02830999999996
 10
80.89265
 20
-69.05701199999997
 10
80.85150200000001
 20
-69.08190399999997
 10
80.80781400000001
 20
-69.10273199999997
 10
80.762094
 20
-69.11924199999997
 10
80.714342
 20
-69.13143399999997
 10
80.66481200000001
 20
-69.13879999999997
 10
47.61001400000001
 20
-69.02856399999996
 10
47.426626000000006
 20
-68.90257999999997
 10
46.90186200000001
 20
-68.59600199999997
 10
46.07433
 20
-68.21627199999996
 10
44.982384
 20
-67.87083199999996
 10
44.349162
 20
-67.74459399999996
 10
43.664378000000006
 20
-67.66712399999996
 10
42.932858
 20
-67.65188399999995
 10
42.15917400000001
 20
-67.71233599999996
 10
41.348406000000004
 20
-67.86194199999996
 10
40.505126000000004
 20
-68.11416399999996
 10
39.63416000000001
 20
-68.48220999999997
 10
38.740334000000004
 20
-68.97954199999997
 10
32.397192000000004
 20
-68.90105599999995
 10
32.341058000000004
 20
-68.89191199999996
 10
32.286702000000005
 20
-68.87768799999996
 10
32.234632000000005
 20
-68.85838399999996
 10
32.18510200000001
 20
-68.83450799999996
 10
32.138366000000005
 20
-68.80631399999996
 10
32.094424000000004
 20
-68.77380199999996
 10
32.05378400000001
 20
-68.73747999999998
 10
32.01670000000001
 20
-68.69760199999997
 10
31.98342600000001
 20
-68.65416799999998
 10
31.954470000000004
 20
-68.60768599999999
 10
31.929832000000008
 20
-68.55840999999998
 10
31.90976600000001
 20
-68.50659399999998
 10
31.89452600000001
 20
-68.45249199999996
 10
31.88462000000001
 20
-68.39661199999996
 10
31.71621800000001
 20
-62.54318199999996
 10
92.145104
 20
-62.04254799999996
 10
93.608906
 20
-61.77533999999996
  0
LWPOLYLINE
  5
30
330
17
100
AcDbEntity
  8
0
100
AcDbPolyline
 90
22
 70
1
 10
93.722952
 20
-61.751463999999956
 10
25.835609999999996
 20
-61.52235599999996
 10
25.608787999999993
 20
-53.42559799999996
 10
25.621233999999994
 20
-53.32729999999995
 10
25.643331999999997
 20
-53.23230399999996
 10
25.674573999999996
 20
-53.141117999999956
 10
25.714451999999998
 20
-53.05424999999995
 10
25.762457999999995
 20
-52.972207999999945
 10
25.818083999999992
 20
-52.89549999999995
 10
25.880567999999993
 20
-52.82488799999995
 10
25.949655999999994
 20
-52.76062599999996
 10
26.024839999999994
 20
-52.703221999999954
 10
26.105611999999994
 20
-52.65318399999995
 10
26.191463999999993
 20
-52.61127399999996
 10
26.28188799999999
 20
-52.577745999999955
 10
26.376375999999993
 20
-52.55336199999996
 10
26.474165999999993
 20
-52.53837599999996
 10
86.81059599999999
 20
-52.98414599999995
 10
91.526614
 20
-53.59272999999995
 10
92.69983999999998
 20
-53.89168799999995
 10
93.18574199999999
 20
-54.06186799999995
 10
93.59696799999999
 20
-54.246525999999946
  0
LWPOLYLINE
  5
31
330
17
100
AcDbEntity
  8
0
100
AcDbPolyline
 90
43
 70
1
 10
61.62039999999999
 20
-81.53349199999994
 10
61.20790399999999
 20
-81.15934999999993
 10
60.68110799999999
 20
-80.76691999999993
 10
59.930537999999984
 20
-80.30438599999992
 10
58.94908199999998
 20
-79.82178599999993
 10
57.72911999999999
 20
-79.36941199999993
 10
56.26328599999999
 20
-78.99755599999993
 10
54.54395999999999
 20
-78.75625599999994
 10
32.75609399999999
 20
-77.44917199999993
 10
32.655763999999984
 20
-77.42834399999994
 10
32.559243999999985
 20
-77.39837199999994
 10
32.467041999999985
 20
-77.35976399999994
 10
32.37941199999999
 20
-77.31302799999993
 10
32.29711599999999
 20
-77.25841799999993
 10
32.220407999999985
 20
-77.19669599999993
 10
32.14979599999999
 20
-77.12836999999993
 10
32.08578799999999
 20
-77.05369399999994
 10
32.028891999999985
 20
-76.97342999999995
 10
31.979361999999988
 20
-76.88783199999995
 10
31.93795999999999
 20
-76.79766199999995
 10
31.90493999999999
 20
-76.70317399999995
 10
31.88080999999999
 20
-76.60487599999995
 10
31.86582399999999
 20
-76.50352999999994
 10
31.86074399999999
 20
-69.40600799999994
 10
106.024934
 20
-69.40600799999994
 10
105.97134
 20
-69.40270599999995
 10
105.81893999999998
 20
-69.40702399999995
 10
105.580688
 20
-69.44080599999995
 10
105.26953799999998
 20
-69.52564199999995
 10
104.89818999999999
 20
-69.68362999999995
 10
104.693974
 20
-69.79665999999995
 10
104.479598
 20
-69.93610599999994
 10
104.026462
 20
-70.30542199999995
 10
103.55173599999999
 20
-70.81291399999995
 10
103.06837399999999
 20
-71.48042599999994
 10
102.58907599999999
 20
-72.32980199999994
 10
102.12679599999998
 20
-73.38263199999993
 10
101.694234
 20
-74.66101399999994
 10
100.97008
 20
-77.98079399999993
 10
100.51948399999999
 20
-82.46313199999993
 10
98.64826599999999
 20
-81.76031399999994
 10
97.859342
 20
-81.57032199999993
 10
97.05593999999999
 20
-81.45576799999994
  0
LWPOLYLINE
  5
32
330
17
100
AcDbEntity
  8
0
100
AcDbPolyline
 90
64
 70
1
 10
92.89999199999998
 20
-78.71688599999993
 10
92.88983199999998
 20
-78.92008599999993
 10
92.85960599999997
 20
-79.11744399999992
 10
92.81058399999998
 20
-79.30794399999992
 10
92.74378199999998
 20
-79.49056999999992
 10
92.659962
 20
-79.66430599999993
 10
92.56039399999999
 20
-79.82813599999993
 10
92.44583999999998
 20
-79.98129799999992
 10
92.31756999999999
 20
-80.12252199999992
 10
92.17634599999998
 20
-80.25079199999992
 10
92.02318399999999
 20
-80.36534599999993
 10
91.859354
 20
-80.46491399999992
 10
91.68561799999998
 20
-80.54873399999993
 10
91.50299199999998
 20
-80.61553599999992
 10
91.31249199999998
 20
-80.66455799999991
 10
91.11513399999998
 20
-80.69478399999993
 10
90.91193399999999
 20
-80.70494399999993
 10
90.70873399999998
 20
-80.69478399999993
 10
90.51137599999998
 20
-80.66455799999991
 10
90.32087599999998
 20
-80.61553599999992
 10
90.13824999999999
 20
-80.54873399999993
 10
89.96451399999998
 20
-80.46491399999992
 10
89.80068399999999
 20
-80.36534599999993
 10
89.64752199999998
 20
-80.25079199999992
 10
89.50629799999999
 20
-80.12252199999992
 10
89.37802799999999
 20
-79.98129799999992
 10
89.26347399999999
 20
-79.82813599999993
 10
89.16390599999998
 20
-79.66430599999993
 10
89.080086
 20
-79.49056999999992
 10
89.013284
 20
-79.30794399999992
 10
88.96426199999999
 20
-79.11744399999992
 10
88.93403599999999
 20
-78.92008599999993
 10
88.92387599999998
 20
-78.71688599999993
 10
88.93403599999999
 20
-78.51368599999992
 10
88.96426199999999
 20
-78.31632799999993
 10
89.013284
 20
-78.12582799999993
 10
89.080086
 20
-77.94320199999993
 10
89.16390599999998
 20
-77.76946599999992
 10
89.26347399999999
 20
-77.60563599999993
 10
89.37802799999999
 20
-77.45247399999992
 10
89.50629799999999
 20
-77.31124999999993
 10
89.64752199999998
 20
-77.18297999999993
 10
89.80068399999999
 20
-77.06842599999993
 10
89.96451399999998
 20
-76.96885799999993
 10
90.13824999999999
 20
-76.88503799999992
 10
90.32087599999998
 20
-76.81823599999994
 10
90.51137599999998
 20
-76.76921399999993
 10
90.70873399999998
 20
-76.73898799999994
 10
90.91193399999999
 20
-76.72882799999992
 10
91.11513399999998
 20
-76.73898799999994
 10
91.31249199999998
 20
-76.76921399999993
 10
91.50299199999998
 20
-76.81823599999994
 10
91.68561799999998
 20
-76.88503799999992
 10
91.859354
 20
-76.96885799999993
 10
92.02318399999999
 20
-77.06842599999993
 10
92.17634599999998
 20
-77.18297999999993
 10
92.31756999999999
 20
-77.31124999999993
 10
92.44583999999998
 20
-77.45247399999992
 10
92.56039399999999
 20
-77.60563599999993
 10
92.659962
 20
-77.76946599999992
 10
92.74378199999998
 20
-77.94320199999993
 10
92.81058399999998
 20
-78.12582799999993
 10
92.85960599999997
 20
-78.31632799999993
 10
92.88983199999998
 20
-78.51368599999992
  0
LWPOLYLINE
  5
33
330
17
100
AcDbEntity
  8
0
100
AcDbPolyline
 90
55
 70
1
 10
122.53798199999999
 20
-90.14231399999993
 10
126.902718
 20
-87.08135999999993
 10
127.11379199999999
 20
-86.99499999999995
 10
127.68834
 20
-86.81110399999994
 10
128.537716
 20
-86.64193999999995
 10
129.038096
 20
-86.59774399999995
 10
129.574036
 20
-86.59952199999995
 10
130.134614
 20
-86.66098999999996
 10
130.708654
 20
-86.79637199999996
 10
130.997198
 20
-86.89619399999995
 10
131.28498
 20
-87.01963799999996
 10
131.57073
 20
-87.16848199999995
 10
131.852924
 20
-87.34450399999996
 10
132.130292
 20
-87.54948199999995
 10
132.40131
 20
-87.78519399999996
 10
132.66470800000002
 20
-88.05341799999995
 10
132.918962
 20
-88.35593199999994
 10
133.162802
 20
-88.69451399999996
 10
133.613906
 20
-89.48673999999995
 10
136.00557
 20
-95.55175199999995
 10
136.00582400000002
 20
-95.55327599999995
 10
148.15235800000002
 20
-125.97002999999995
 10
151.02027200000003
 20
-136.49070999999995
 10
151.73553600000002
 20
-141.64792599999993
 10
151.80640200000002
 20
-144.04416199999994
 10
151.64562000000004
 20
-146.25929599999992
 10
135.169148
 20
-147.12010199999995
 10
128.065022
 20
-146.65604399999992
 10
128.00838000000002
 20
-145.77745799999994
 10
117.10619200000001
 20
-105.63631399999994
 10
117.04370800000001
 20
-105.18901999999994
 10
117.01907000000001
 20
-104.73969399999994
 10
117.03227800000002
 20
-104.29062199999994
 10
117.08307800000001
 20
-103.84408999999995
 10
117.17121600000002
 20
-103.40263799999995
 10
117.29643800000001
 20
-102.96880599999994
 10
117.66270600000001
 20
-102.07320199999994
 10
117.86463600000002
 20
-100.98735199999994
 10
117.93855
 20
-99.88905599999994
 10
117.88419400000001
 20
-98.78974399999996
 10
117.50192400000002
 20
-96.77298399999995
 10
117.46534800000002
 20
-96.45497599999995
 10
117.45239400000001
 20
-96.13747599999995
 10
117.46230000000001
 20
-95.82200799999994
 10
117.49481200000001
 20
-95.50958799999994
 10
117.549422
 20
-95.20123199999995
 10
117.625622
 20
-94.89846399999993
 10
117.72315800000001
 20
-94.60204599999994
 10
117.84152200000001
 20
-94.31350199999994
 10
117.98046000000002
 20
-94.03384799999994
 10
118.13921000000002
 20
-93.76409999999994
 10
118.31751800000002
 20
-93.50552799999994
 10
118.51513000000003
 20
-93.25940199999995
 10
118.73128400000002
 20
-93.02673799999995
 10
118.96572600000002
 20
-92.80880599999995
  0
LWPOLYLINE
  5
34
330
17
100
AcDbEntity
  8
0
100
AcDbPolyline
 90
19
 70
1
 10
109.23524000000003
 20
-77.25841799999995
 10
118.04446800000004
 20
-77.37195599999995
 10
117.72519000000004
 20
-78.14182999999996
 10
117.44579000000003
 20
-79.05064199999995
 10
117.19306000000003
 20
-80.26120599999996
 10
117.04675600000002
 20
-81.73770799999996
 10
117.08663400000002
 20
-83.44458799999995
 10
117.20144200000001
 20
-84.37321199999995
 10
117.39270400000001
 20
-85.34628599999996
 10
117.67032600000002
 20
-86.35898399999996
 10
118.04446800000002
 20
-87.40698799999996
 10
110.52937000000003
 20
-92.56090199999996
 10
109.99520800000002
 20
-91.20758999999997
 10
108.99698800000002
 20
-87.67673599999996
 10
108.60709800000001
 20
-85.34298399999997
 10
108.441236
 20
-82.76259799999997
 10
108.47781200000001
 20
-81.41080999999997
 10
108.61294000000001
 20
-80.03463799999997
 10
108.86059000000002
 20
-78.64652799999998
  0
LWPOLYLINE
  5
35
330
17
100
AcDbEntity
  8
0
100
AcDbPolyline
 90
100
 70
1
 10
120.83059400000002
 20
-76.80604399999997
 10
120.41962200000002
 20
-77.50200399999999
 10
120.04040000000002
 20
-78.32267799999998
 10
119.66448000000001
 20
-79.41487799999999
 10
119.38177800000001
 20
-80.74583799999998
 10
119.30329200000001
 20
-81.49056599999999
 10
119.28170200000001
 20
-82.282792
 10
119.32818400000001
 20
-83.11819799999999
 10
119.45391400000001
 20
-83.992974
 10
119.67006800000001
 20
-84.902802
 10
120.07900800000002
 20
-86.11234999999999
 10
120.14504800000002
 20
-86.384384
 10
120.18645000000002
 20
-86.65819599999999
 10
120.20397600000003
 20
-86.932262
 10
120.19788000000003
 20
-87.205566
 10
120.16892400000003
 20
-87.47632999999999
 10
120.11761600000003
 20
-87.743538
 10
120.04446400000003
 20
-88.005412
 10
119.94997600000002
 20
-88.260936
 10
119.83491400000003
 20
-88.508332
 10
119.69978600000003
 20
-88.74658399999998
 10
119.54510000000003
 20
-88.97416799999999
 10
119.37136400000003
 20
-89.18956
 10
119.17934000000004
 20
-89.39149
 10
118.96928200000004
 20
-89.57868800000001
 10
114.45798800000003
 20
-92.69755400000001
 10
114.59057600000003
 20
-93.12173400000002
 10
115.00840600000002
 20
-94.18447000000002
 10
115.74119600000003
 20
-95.57080200000003
 10
116.23522600000003
 20
-96.28682800000003
 10
116.81917200000002
 20
-96.96577000000003
 10
116.79986800000002
 20
-96.81641800000003
 10
116.77624600000001
 20
-96.40519200000001
 10
116.79885200000001
 20
-95.78797200000001
 10
116.918486
 20
-95.02038400000002
 10
117.0305
 20
-94.59772800000002
 10
117.18594800000001
 20
-94.15830800000002
 10
117.39118
 20
-93.70923600000002
 10
117.65229200000002
 20
-93.25737000000002
 10
117.97588800000001
 20
-92.80956800000003
 10
118.36831800000002
 20
-92.37294200000004
 10
118.83567800000002
 20
-91.95435000000002
 10
126.75108000000002
 20
-86.57539200000002
 10
127.137668
 20
-86.38565400000002
 10
127.53594000000001
 20
-86.22487200000002
 10
127.944626
 20
-86.09406200000002
 10
128.36194799999998
 20
-85.99449400000003
 10
128.786128
 20
-85.92718400000003
 10
129.215642
 20
-85.89314800000002
 10
130.074162
 20
-85.91626200000003
 10
130.51764599999998
 20
-85.97417400000003
 10
130.966972
 20
-86.07425000000003
 10
131.41680599999998
 20
-86.22588800000003
 10
131.86181399999995
 20
-86.43823200000003
 10
132.29615399999997
 20
-86.72017200000003
 10
132.714746
 20
-87.08110600000003
 10
132.98474799999997
 20
-87.37346000000004
 10
133.26490999999996
 20
-87.74226800000004
 10
133.77468799999994
 20
-88.58554800000003
 10
136.75359999999995
 20
-95.17227600000004
 10
136.61339199999992
 20
-94.81058000000004
 10
136.30757599999995
 20
-93.79432600000004
 10
136.00836399999994
 20
-92.22714600000005
 10
135.91514599999996
 20
-91.26931200000004
 10
135.88796799999997
 20
-90.21267200000003
 10
135.94867399999998
 20
-89.06992600000002
 10
136.11859999999996
 20
-87.85402800000003
 10
136.41933599999996
 20
-86.57818600000003
 10
136.87247199999996
 20
-85.25510000000003
 10
137.49959799999996
 20
-83.89772400000003
 10
138.32205
 20
-82.51901200000003
 10
139.361418
 20
-81.13191800000003
 10
140.72565199999997
 20
-79.65033600000001
 10
140.77238799999998
 20
-79.57820000000002
 10
140.80896399999997
 20
-79.50225400000002
 10
140.823188
 20
-79.46313800000003
 10
140.83436399999997
 20
-79.42326000000003
 10
140.84274599999998
 20
-79.38287400000003
 10
140.84782599999997
 20
-79.34198000000004
 10
140.84960399999997
 20
-79.30057800000003
 10
140.84782599999997
 20
-79.25892200000003
 10
140.842492
 20
-79.21726600000004
 10
140.833348
 20
-79.17535600000004
 10
138.2522
 20
-71.96861400000003
 10
137.480294
 20
-72.12761800000003
 10
137.35304
 20
-72.80706800000003
 10
137.141458
 20
-73.50582200000002
 10
136.98347
 20
-73.90104600000002
 10
136.784842
 20
-74.31024000000002
 10
136.54125600000003
 20
-74.72070400000001
 10
136.24839400000002
 20
-75.11999200000001
 10
135.901938
 20
-75.49540400000002
 10
135.497316
 20
-75.834494
 10
135.27201800000003
 20
-75.98664000000001
 10
135.03046400000002
 20
-76.12481600000001
 10
134.77214600000002
 20
-76.24775199999999
 10
134.49681000000004
 20
-76.353924
 10
134.20369400000004
 20
-76.44155400000001
 10
133.89203600000005
 20
-76.50911800000002
 10
133.56158200000002
 20
-76.555092
  0
LWPOLYLINE
  5
36
330
17
100
AcDbEntity
  8
0
100
AcDbPolyline
 90
77
 70
1
 10
105.19486200000001
 20
-97.987866
 10
105.32465600000003
 20
-94.314264
 10
105.29824000000004
 20
-93.92970799999999
 10
105.24464600000003
 20
-93.547946
 10
103.53751200000002
 20
-86.72677599999999
 10
103.46639200000003
 20
-86.553294
 10
103.21290000000003
 20
-86.07094799999999
 10
102.71683800000004
 20
-85.336888
 10
101.67061200000003
 20
-84.12276800000001
 10
101.45725200000004
 20
-83.815936
 10
101.27894400000004
 20
-83.49005399999999
 10
101.13721200000005
 20
-83.14817
 10
101.03307200000003
 20
-82.79333199999999
 10
100.96804800000004
 20
-82.42833399999999
 10
100.94366400000004
 20
-82.056224
 10
101.45496600000004
 20
-78.005178
 10
102.03256200000004
 20
-75.23149799999999
 10
102.40848200000005
 20
-73.92085799999998
 10
102.84815600000005
 20
-72.73823399999998
 10
103.09326600000003
 20
-72.21296199999999
 10
103.35590200000003
 20
-71.74153799999999
 10
103.38231800000003
 20
-71.77074799999998
 10
103.45648600000003
 20
-71.86828399999999
 10
103.57053200000003
 20
-72.04836999999999
 10
103.71632800000003
 20
-72.32573799999999
 10
104.07269000000004
 20
-73.22896199999998
 10
104.48747200000003
 20
-74.787506
 10
104.51998400000002
 20
-74.877676
 10
104.55986200000002
 20
-74.963528
 10
104.60659800000003
 20
-75.044808
 10
104.65993800000003
 20
-75.121262
 10
104.71937400000002
 20
-75.192382
 10
104.78439800000001
 20
-75.258168
 10
104.85475600000001
 20
-75.31811199999999
 10
104.92994
 20
-75.37195999999999
 10
105.009696
 20
-75.41945799999999
 10
105.09326200000001
 20
-75.46035199999999
 10
105.18063800000002
 20
-75.49413399999999
 10
105.27106200000001
 20
-75.520804
 10
105.36428000000001
 20
-75.53985399999999
 10
105.99775600000002
 20
-75.58023999999999
 10
106.29163400000002
 20
-75.64145399999998
 10
106.43362000000002
 20
-75.68844399999999
 10
106.57001800000002
 20
-75.74787999999998
 10
106.69905000000001
 20
-75.82103199999999
 10
106.818938
 20
-75.90891599999998
 10
106.92815800000001
 20
-76.01280199999998
 10
107.024932
 20
-76.13345199999999
 10
107.107482
 20
-76.27238999999999
 10
107.17403
 20
-76.43037799999999
 10
107.223052
 20
-76.60893999999999
 10
107.25251599999999
 20
-76.80883799999998
 10
107.261152
 20
-77.03134199999998
 10
106.96701999999999
 20
-77.93202599999998
 10
106.71886199999999
 20
-79.00796999999997
 10
106.50905799999998
 20
-80.45678599999998
 10
106.41736399999999
 20
-82.24494599999998
 10
106.523536
 20
-84.33942999999998
 10
106.90682199999999
 20
-86.70696399999999
 10
107.64697799999999
 20
-89.31427399999998
 10
107.44250799999999
 20
-90.36151599999998
 10
107.43971399999998
 20
-90.44914599999998
 10
107.44657199999997
 20
-90.53652199999998
 10
108.44199799999997
 20
-94.55911999999998
 10
110.07623399999999
 20
-95.55810199999998
 10
109.93450199999998
 20
-95.53117799999998
 10
109.54664399999999
 20
-95.48748999999998
 10
108.96879399999999
 20
-95.48266399999997
 10
108.626148
 20
-95.51212799999996
 10
108.257086
 20
-95.57232599999998
 10
107.86872
 20
-95.66986199999998
 10
107.46790800000001
 20
-95.81184799999998
 10
107.061508
 20
-96.00539599999999
 10
106.656886
 20
-96.257364
 10
106.26089999999999
 20
-96.57460999999999
 10
105.88066199999999
 20
-96.963992
 10
105.52302999999999
 20
-97.43262200000001
  0
LWPOLYLINE
  5
37
330
17
100
AcDbEntity
  8
0
100
AcDbPolyline
 90
19
 70
1
 10
24.56764199999999
 20
-72.52309600000001
 10
30.81604199999999
 20
-72.52309600000001
 10
30.79597599999999
 20
-68.21754200000001
 10
30.73679399999999
 20
-67.81292
 10
30.64027399999999
 20
-67.426586
 10
30.50793999999999
 20
-67.06006400000001
 10
30.341823999999992
 20
-66.714624
 10
30.14370399999999
 20
-66.39179
 10
29.91510399999999
 20
-66.09283199999999
 10
29.658055999999988
 20
-65.819274
 10
29.37408399999999
 20
-65.57263999999999
 10
29.06496599999999
 20
-65.35419999999999
 10
28.732479999999992
 20
-65.165478
 10
28.37840399999999
 20
-65.00799799999999
 10
28.00451599999999
 20
-64.88302999999999
 10
27.61259399999999
 20
-64.79184399999998
 10
27.204415999999988
 20
-64.736218
 10
24.55443399999999
 20
-64.71742199999998
 10
24.69794399999999
 20
-69.216016
  0
ENDSEC
  0
SECTION
  2
OBJECTS
  0
DICTIONARY
  5
A
330
0
100
AcDbDictionary
281
1
  3
ACAD_COLOR
350
B
  3
ACAD_GROUP
350
C
  3
ACAD_LAYOUT
350
D
  3
ACAD_MATERIAL
350
E
  3
ACAD_MLEADERSTYLE
350
F
  3
ACAD_MLINESTYLE
350
10
  3
ACAD_PLOTSETTINGS
350
11
  3
ACAD_PLOTSTYLENAME
350
12
  3
ACAD_SCALELIST
350
14
  3
ACAD_TABLESTYLE
350
15
  3
ACAD_VISUALSTYLE
350
16
  3
EZDXF_META
350
2D
  0
DICTIONARY
  5
B
330
A
100
AcDbDictionary
281
1
  0
DICTIONARY
  5
C
330
A
100
AcDbDictionary
281
1
  0
DICTIONARY
  5
D
330
A
100
AcDbDictionary
281
1
  3
Model
350
1A
  3
Layout1
350
1E
  0
DICTIONARY
  5
E
330
A
100
AcDbDictionary
281
1
  3
ByBlock
350
1F
  3
ByLayer
350
20
  3
Global
350
21
  0
DICTIONARY
  5
F
330
A
100
AcDbDictionary
281
1
  3
Standard
350
2C
  0
DICTIONARY
  5
10
330
A
100
AcDbDictionary
281
1
  3
Standard
350
22
  0
DICTIONARY
  5
11
330
A
100
AcDbDictionary
281
1
  0
ACDBDICTIONARYWDFLT
  5
12
330
A
100
AcDbDictionary
281
1
  3
Normal
350
13
100
AcDbDictionaryWithDefault
340
13
  0
ACDBPLACEHOLDER
  5
13
330
12
  0
DICTIONARY
  5
14
330
A
100
AcDbDictionary
281
1
  0
DICTIONARY
  5
15
330
A
100
AcDbDictionary
281
1
  0
DICTIONARY
  5
16
330
A
100
AcDbDictionary
281
1
  0
LAYOUT
  5
1A
330
D
100
AcDbPlotSettings
  1

  4
A3
  6

 40
7.5
 41
20.0
 42
7.5
 43
20.0
 44
420.0
 45
297.0
 46
0.0
 47
0.0
 48
0.0
 49
0.0
140
0.0
141
0.0
142
1.0
143
1.0
 70
1024
 72
1
 73
0
 74
5
  7

 75
16
 76
0
 77
2
 78
300
147
1.0
148
0.0
149
0.0
100
AcDbLayout
  1
Model
 70
1
 71
0
 10
0.0
 20
0.0
 11
420.0
 21
297.0
 12
0.0
 22
0.0
 32
0.0
 14
1e+20
 24
1e+20
 34
1e+20
 15
-1e+20
 25
-1e+20
 35
-1e+20
146
0.0
 13
0.0
 23
0.0
 33
0.0
 16
1.0
 26
0.0
 36
0.0
 17
0.0
 27
1.0
 37
0.0
 76
1
330
17
  0
LAYOUT
  5
1E
330
D
100
AcDbPlotSettings
  1

  4
A3
  6

 40
7.5
 41
20.0
 42
7.5
 43
20.0
 44
420.0
 45
297.0
 46
0.0
 47
0.0
 48
0.0
 49
0.0
140
0.0
141
0.0
142
1.0
143
1.0
 70
0
 72
1
 73
0
 74
5
  7

 75
16
 76
0
 77
2
 78
300
147
1.0
148
0.0
149
0.0
100
AcDbLayout
  1
Layout1
 70
1
 71
1
 10
0.0
 20
0.0
 11
420.0
 21
297.0
 12
0.0
 22
0.0
 32
0.0
 14
1e+20
 24
1e+20
 34
1e+20
 15
-1e+20
 25
-1e+20
 35
-1e+20
146
0.0
 13
0.0
 23
0.0
 33
0.0
 16
1.0
 26
0.0
 36
0.0
 17
0.0
 27
1.0
 37
0.0
 76
1
330
1B
  0
MATERIAL
  5
1F
102
{ACAD_REACTORS
330
E
102
}
330
E
100
AcDbMaterial
  1
ByBlock
  2

 70
0
 40
1.0
 71
1
 41
1.0
 91
-1023410177
 42
1.0
 72
1
  3

 73
1
 74
1
 75
1
 44
0.5
 73
0
 45
1.0
 46
1.0
 77
1
  4

 78
1
 79
1
170
1
 48
1.0
171
1
  6

172
1
173
1
174
1
140
1.0
141
1.0
175
1
  7

176
1
177
1
178
1
143
1.0
179
1
  8

270
1
271
1
272
1
145
1.0
146
1.0
273
1
  9

274
1
275
1
276
1
 42
1.0
 72
1
  3

 73
1
 74
1
 75
1
 94
63
  0
MATERIAL
  5
20
102
{ACAD_REACTORS
330
E
102
}
330
E
100
AcDbMaterial
  1
ByLayer
  2

 70
0
 40
1.0
 71
1
 41
1.0
 91
-1023410177
 42
1.0
 72
1
  3

 73
1
 74
1
 75
1
 44
0.5
 73
0
 45
1.0
 46
1.0
 77
1
  4

 78
1
 79
1
170
1
 48
1.0
171
1
  6

172
1
173
1
174
1
140
1.0
141
1.0
175
1
  7

176
1
177
1
178
1
143
1.0
179
1
  8

270
1
271
1
272
1
145
1.0
146
1.0
273
1
  9

274
1
275
1
276
1
 42
1.0
 72
1
  3

 73
1
 74
1
 75
1
 94
63
  0
MATERIAL
  5
21
102
{ACAD_REACTORS
330
E
102
}
330
E
100
AcDbMaterial
  1
Global
  2

 70
0
 40
1.0
 71
1
 41
1.0
 91
-1023410177
 42
1.0
 72
1
  3

 73
1
 74
1
 75
1
 44
0.5
 73
0
 45
1.0
 46
1.0
 77
1
  4

 78
1
 79
1
170
1
 48
1.0
171
1
  6

172
1
173
1
174
1
140
1.0
141
1.0
175
1
  7

176
1
177
1
178
1
143
1.0
179
1
  8

270
1
271
1
272
1
145
1.0
146
1.0
273
1
  9

274
1
275
1
276
1
 42
1.0
 72
1
  3

 73
1
 74
1
 75
1
 94
63
  0
MLINESTYLE
  5
22
102
{ACAD_REACTORS
330
10
102
}
330
10
100
AcDbMlineStyle
  2
Standard
 70
0
  3

 62
256
 51
90.0
 52
90.0
 71
2
 49
0.5
 62
256
  6
BYLAYER
 49
-0.5
 62
256
  6
BYLAYER
  0
MLEADERSTYLE
  5
2C
102
{ACAD_REACTORS
330
F
102
}
330
F
100
AcDbMLeaderStyle
179
2
170
2
171
1
172
0
 90
2
 40
0.0
 41
0.0
173
1
 91
-1056964608
 92
-2
290
1
 42
2.0
291
1
 43
8.0
  3
Standard
 44
4.0
300

342
29
174
1
175
1
176
0
178
1
 93
-1056964608
 45
4.0
292
0
297
0
 46
4.0
 94
-1056964608
 47
1.0
 49
1.0
140
1.0
294
1
141
0.0
177
0
142
1.0
295
0
296
0
143
3.75
271
0
272
9
273
9
  0
DICTIONARY
  5
2D
330
A
100
AcDbDictionary
280
1
281
1
  3
CREATED_BY_EZDXF
350
2E
  3
WRITTEN_BY_EZDXF
350
3A
  0
DICTIONARYVAR
  5
2E
330
2D
100
DictionaryVariables
280
0
  1
1.4.3 @ 2026-04-12T00:41:29.865944+00:00
  0
DICTIONARYVAR
  5
3A
330
2D
100
DictionaryVariables
280
0
  1
1.4.3 @ 2026-04-12T00:41:29.867374+00:00
  0
ENDSEC
  0
EOF
