  0
SECTION
  2
HEADER
  9
$ACADVER
  1
AC1024
  9
$ACADMAINTVER
 70
6
  9
$DWGCODEPAGE
  3
ANSI_1252
  9
$LASTSAVEDBY
  1
ezdxf
  9
$INSBASE
 10
0.0
 20
0.0
 30
0.0
  9
$EXTMIN
 10
1e+20
 20
1e+20
 30
1e+20
  9
$EXTMAX
 10
-1e+20
 20
-1e+20
 30
-1e+20
  9
$LIMMIN
 10
0.0
 20
0.0
  9
$LIMMAX
 10
420.0
 20
297.0
  9
$ORTHOMODE
 70
0
  9
$REGENMODE
 70
1
  9
$FILLMODE
 70
1
  9
$QTEXTMODE
 70
0
  9
$MIRRTEXT
 70
1
  9
$LTSCALE
 40
1.0
  9
$ATTMODE
 70
1
  9
$TEXTSIZE
 40
2.5
  9
$TRACEWID
 40
1.0
  9
$TEXTSTYLE
  7
Standard
  9
$CLAYER
  8
0
  9
$CELTYPE
  6
ByLayer
  9
$CECOLOR
 62
256
  9
$CELTSCALE
 40
1.0
  9
$DISPSILH
 70
0
  9
$DIMSCALE
 40
1.0
  9
$DIMASZ
 40
2.5
  9
$DIMEXO
 40
0.625
  9
$DIMDLI
 40
3.75
  9
$DIMRND
 40
0.0
  9
$DIMDLE
 40
0.0
  9
$DIMEXE
 40
1.25
  9
$DIMTP
 40
0.0
  9
$DIMTM
 40
0.0
  9
$DIMTXT
 40
2.5
  9
$DIMCEN
 40
2.5
  9
$DIMTSZ
 40
0.0
  9
$DIMTOL
 70
0
  9
$DIMLIM
 70
0
  9
$DIMTIH
 70
0
  9
$DIMTOH
 70
0
  9
$DIMSE1
 70
0
  9
$DIMSE2
 70
0
  9
$DIMTAD
 70
1
  9
$DIMZIN
 70
8
  9
$DIMBLK
  1

  9
$DIMASO
 70
1
  9
$DIMSHO
 70
1
  9
$DIMPOST
  1

  9
$DIMAPOST
  1

  9
$DIMALT
 70
0
  9
$DIMALTD
 70
3
  9
$DIMALTF
 40
0.03937007874
  9
$DIMLFAC
 40
1.0
  9
$DIMTOFL
 70
1
  9
$DIMTVP
 40
0.0
  9
$DIMTIX
 70
0
  9
$DIMSOXD
 70
0
  9
$DIMSAH
 70
0
  9
$DIMBLK1
  1

  9
$DIMBLK2
  1

  9
$DIMSTYLE
  2
ISO-25
  9
$DIMCLRD
 70
0
  9
$DIMCLRE
 70
0
  9
$DIMCLRT
 70
0
  9
$DIMTFAC
 40
1.0
  9
$DIMGAP
 40
0.625
  9
$DIMJUST
 70
0
  9
$DIMSD1
 70
0
  9
$DIMSD2
 70
0
  9
$DIMTOLJ
 70
0
  9
$DIMTZIN
 70
8
  9
$DIMALTZ
 70
0
  9
$DIMALTTZ
 70
0
  9
$DIMUPT
 70
0
  9
$DIMDEC
 70
2
  9
$DIMTDEC
 70
2
  9
$DIMALTU
 70
2
  9
$DIMALTTD
 70
3
  9
$DIMTXSTY
  7
Standard
  9
$DIMAUNIT
 70
0
  9
$DIMADEC
 70
0
  9
$DIMALTRND
 40
0.0
  9
$DIMAZIN
 70
0
  9
$DIMDSEP
 70
44
  9
$DIMATFIT
 70
3
  9
$DIMFRAC
 70
0
  9
$DIMLDRBLK
  1

  9
$DIMLUNIT
 70
2
  9
$DIMLWD
 70
-2
  9
$DIMLWE
 70
-2
  9
$DIMTMOVE
 70
0
  9
$DIMFXL
 40
1.0
  9
$DIMFXLON
 70
0
  9
$DIMJOGANG
 40
0.785398163397
  9
$DIMTFILL
 70
0
  9
$DIMTFILLCLR
 70
0
  9
$DIMARCSYM
 70
0
  9
$DIMLTYPE
  6

  9
$DIMLTEX1
  6

  9
$DIMLTEX2
  6

  9
$DIMTXTDIRECTION
 70
0
  9
$LUNITS
 70
2
  9
$LUPREC
 70
4
  9
$SKETCHINC
 40
1.0
  9
$FILLETRAD
 40
10.0
  9
$AUNITS
 70
0
  9
$AUPREC
 70
2
  9
$MENU
  1
.
  9
$ELEVATION
 40
0.0
  9
$PELEVATION
 40
0.0
  9
$THICKNESS
 40
0.0
  9
$LIMCHECK
 70
0
  9
$CHAMFERA
 40
0.0
  9
$CHAMFERB
 40
0.0
  9
$CHAMFERC
 40
0.0
  9
$CHAMFERD
 40
0.0
  9
$SKPOLY
 70
0
  9
$TDCREATE
 40
2461138.7153935186
  9
$TDUCREATE
 40
2458532.153996898
  9
$TDUPDATE
 40
2461138.7153935186
  9
$TDUUPDATE
 40
2458532.1544311
  9
$TDINDWG
 40
0.0
  9
$TDUSRTIMER
 40
0.0
  9
$USRTIMER
 70
1
  9
$ANGBASE
 50
0.0
  9
$ANGDIR
 70
0
  9
$PDMODE
 70
0
  9
$PDSIZE
 40
0.0
  9
$PLINEWID
 40
0.0
  9
$SPLFRAME
 70
0
  9
$SPLINETYPE
 70
6
  9
$SPLINESEGS
 70
8
  9
$HANDSEED
  5
105
  9
$SURFTAB1
 70
6
  9
$SURFTAB2
 70
6
  9
$SURFTYPE
 70
6
  9
$SURFU
 70
6
  9
$SURFV
 70
6
  9
$UCSBASE
  2

  9
$UCSNAME
  2

  9
$UCSORG
 10
0.0
 20
0.0
 30
0.0
  9
$UCSXDIR
 10
1.0
 20
0.0
 30
0.0
  9
$UCSYDIR
 10
0.0
 20
1.0
 30
0.0
  9
$UCSORTHOREF
  2

  9
$UCSORTHOVIEW
 70
0
  9
$UCSORGTOP
 10
0.0
 20
0.0
 30
0.0
  9
$UCSORGBOTTOM
 10
0.0
 20
0.0
 30
0.0
  9
$UCSORGLEFT
 10
0.0
 20
0.0
 30
0.0
  9
$UCSORGRIGHT
 10
0.0
 20
0.0
 30
0.0
  9
$UCSORGFRONT
 10
0.0
 20
0.0
 30
0.0
  9
$UCSORGBACK
 10
0.0
 20
0.0
 30
0.0
  9
$PUCSBASE
  2

  9
$PUCSNAME
  2

  9
$PUCSORG
 10
0.0
 20
0.0
 30
0.0
  9
$PUCSXDIR
 10
1.0
 20
0.0
 30
0.0
  9
$PUCSYDIR
 10
0.0
 20
1.0
 30
0.0
  9
$PUCSORTHOREF
  2

  9
$PUCSORTHOVIEW
 70
0
  9
$PUCSORGTOP
 10
0.0
 20
0.0
 30
0.0
  9
$PUCSORGBOTTOM
 10
0.0
 20
0.0
 30
0.0
  9
$PUCSORGLEFT
 10
0.0
 20
0.0
 30
0.0
  9
$PUCSORGRIGHT
 10
0.0
 20
0.0
 30
0.0
  9
$PUCSORGFRONT
 10
0.0
 20
0.0
 30
0.0
  9
$PUCSORGBACK
 10
0.0
 20
0.0
 30
0.0
  9
$USERI1
 70
0
  9
$USERI2
 70
0
  9
$USERI3
 70
0
  9
$USERI4
 70
0
  9
$USERI5
 70
0
  9
$USERR1
 40
0.0
  9
$USERR2
 40
0.0
  9
$USERR3
 40
0.0
  9
$USERR4
 40
0.0
  9
$USERR5
 40
0.0
  9
$WORLDVIEW
 70
1
  9
$SHADEDGE
 70
3
  9
$SHADEDIF
 70
70
  9
$TILEMODE
 70
1
  9
$MAXACTVP
 70
64
  9
$PINSBASE
 10
0.0
 20
0.0
 30
0.0
  9
$PLIMCHECK
 70
0
  9
$PEXTMIN
 10
1e+20
 20
1e+20
 30
1e+20
  9
$PEXTMAX
 10
-1e+20
 20
-1e+20
 30
-1e+20
  9
$PLIMMIN
 10
0.0
 20
0.0
  9
$PLIMMAX
 10
420.0
 20
297.0
  9
$UNITMODE
 70
0
  9
$VISRETAIN
 70
1
  9
$PLINEGEN
 70
0
  9
$PSLTSCALE
 70
1
  9
$TREEDEPTH
 70
3020
  9
$CMLSTYLE
  2
Standard
  9
$CMLJUST
 70
0
  9
$CMLSCALE
 40
20.0
  9
$PROXYGRAPHICS
 70
1
  9
$MEASUREMENT
 70
1
  9
$CELWEIGHT
370
-1
  9
$ENDCAPS
280
0
  9
$JOINSTYLE
280
0
  9
$LWDISPLAY
290
0
  9
$INSUNITS
 70
6
  9
$HYPERLINKBASE
  1

  9
$STYLESHEET
  1

  9
$XEDIT
290
1
  9
$CEPSNTYPE
380
0
  9
$PSTYLEMODE
290
1
  9
$FINGERPRINTGUID
  2
{03436417-473C-4C2A-A81F-0BD0D137687C}
  9
$VERSIONGUID
  2
{2D162CB7-BCC5-417A-BC4D-43DD50EDF1E1}
  9
$EXTNAMES
290
1
  9
$PSVPSCALE
 40
0.0
  9
$OLESTARTUP
290
0
  9
$SORTENTS
280
127
  9
$INDEXCTL
280
0
  9
$HIDETEXT
280
1
  9
$XCLIPFRAME
280
1
  9
$HALOGAP
280
0
  9
$OBSCOLOR
 70
257
  9
$OBSLTYPE
280
0
  9
$INTERSECTIONDISPLAY
280
0
  9
$INTERSECTIONCOLOR
 70
257
  9
$DIMASSOC
280
2
  9
$PROJECTNAME
  1

  9
$CAMERADISPLAY
290
0
  9
$LENSLENGTH
 40
50.0
  9
$CAMERAHEIGHT
 40
0.0
  9
$STEPSPERSEC
 40
24.0
  9
$STEPSIZE
 40
100.0
  9
$3DDWFPREC
 40
2.0
  9
$PSOLWIDTH
 40
0.005
  9
$PSOLHEIGHT
 40
0.08
  9
$LOFTANG1
 40
1.570796326795
  9
$LOFTANG2
 40
1.570796326795
  9
$LOFTMAG1
 40
0.0
  9
$LOFTMAG2
 40
0.0
  9
$LOFTPARAM
 70
7
  9
$LOFTNORMALS
280
1
  9
$LATITUDE
 40
37.795
  9
$LONGITUDE
 40
-122.394
  9
$NORTHDIRECTION
 40
0.0
  9
$TIMEZONE
 70
-8000
  9
$LIGHTGLYPHDISPLAY
280
1
  9
$TILEMODELIGHTSYNCH
280
1
  9
$CMATERIAL
347
20
  9
$SOLIDHIST
280
0
  9
$SHOWHIST
280
1
  9
$DWFFRAME
280
2
  9
$DGNFRAME
280
2
  9
$REALWORLDSCALE
290
1
  9
$INTERFERECOLOR
 62
256
  9
$CSHADOW
280
0
  9
$SHADOWPLANELOCATION
 40
0.0
  0
ENDSEC
  0
SECTION
  2
CLASSES
  0
CLASS
  1
ACDBDICTIONARYWDFLT
  2
AcDbDictionaryWithDefault
  3
ObjectDBX Classes
 90
0
 91
0
280
0
281
0
  0
CLASS
  1
SUN
  2
AcDbSun
  3
SCENEOE
 90
1153
 91
0
280
0
281
0
  0
CLASS
  1
VISUALSTYLE
  2
AcDbVisualStyle
  3
ObjectDBX Classes
 90
4095
 91
0
280
0
281
0
  0
CLASS
  1
MATERIAL
  2
AcDbMaterial
  3
ObjectDBX Classes
 90
1153
 91
0
280
0
281
0
  0
CLASS
  1
SCALE
  2
AcDbScale
  3
ObjectDBX Classes
 90
1153
 91
0
280
0
281
0
  0
CLASS
  1
TABLESTYLE
  2
AcDbTableStyle
  3
ObjectDBX Classes
 90
4095
 91
0
280
0
281
0
  0
CLASS
  1
MLEADERSTYLE
  2
AcDbMLeaderStyle
  3
ACDB_MLEADERSTYLE_CLASS
 90
4095
 91
0
280
0
281
0
  0
CLASS
  1
DICTIONARYVAR
  2
AcDbDictionaryVar
  3
ObjectDBX Classes
 90
0
 91
0
280
0
281
0
  0
CLASS
  1
CELLSTYLEMAP
  2
AcDbCellStyleMap
  3
ObjectDBX Classes
 90
1152
 91
0
280
0
281
0
  0
CLASS
  1
MENTALRAYRENDERSETTINGS
  2
AcDbMentalRayRenderSettings
  3
SCENEOE
 90
1024
 91
0
280
0
281
0
  0
CLASS
  1
ACDBDETAILVIEWSTYLE
  2
AcDbDetailViewStyle
  3
ObjectDBX Classes
 90
1025
 91
0
280
0
281
0
  0
CLASS
  1
ACDBSECTIONVIEWSTYLE
  2
AcDbSectionViewStyle
  3
ObjectDBX Classes
 90
1025
 91
0
280
0
281
0
  0
CLASS
  1
RASTERVARIABLES
  2
AcDbRasterVariables
  3
ISM
 90
0
 91
0
280
0
281
0
  0
CLASS
  1
ACDBPLACEHOLDER
  2
AcDbPlaceHolder
  3
ObjectDBX Classes
 90
0
 91
0
280
0
281
0
  0
CLASS
  1
LAYOUT
  2
AcDbLayout
  3
ObjectDBX Classes
 90
0
 91
0
280
0
281
0
  0
ENDSEC
  0
SECTION
  2
TABLES
  0
TABLE
  2
VPORT
  5
8
330
0
100
AcDbSymbolTable
 70
1
  0
VPORT
  5
23
330
8
100
AcDbSymbolTableRecord
100
AcDbViewportTableRecord
  2
*Active
 70
0
 10
0.0
 20
0.0
 11
1.0
 21
1.0
 12
0.0
 22
0.0
 13
0.0
 23
0.0
 14
0.5
 24
0.5
 15
0.5
 25
0.5
 16
0.0
 26
0.0
 36
1.0
 17
0.0
 27
0.0
 37
0.0
 40
1000.0
 41
1.34
 42
50.0
 43
0.0
 44
0.0
 50
0.0
 51
0.0
 71
0
 72
1000
 73
1
 74
3
 75
0
 76
0
 77
0
 78
0
281
0
 65
0
146
0.0
  0
ENDTAB
  0
TABLE
  2
LTYPE
  5
2
330
0
100
AcDbSymbolTable
 70
3
  0
LTYPE
  5
24
330
2
100
AcDbSymbolTableRecord
100
AcDbLinetypeTableRecord
  2
ByBlock
 70
0
  3

 72
65
 73
0
 40
0.0
  0
LTYPE
  5
25
330
2
100
AcDbSymbolTableRecord
100
AcDbLinetypeTableRecord
  2
ByLayer
 70
0
  3

 72
65
 73
0
 40
0.0
  0
LTYPE
  5
26
330
2
100
AcDbSymbolTableRecord
100
AcDbLinetypeTableRecord
  2
Continuous
 70
0
  3

 72
65
 73
0
 40
0.0
  0
ENDTAB
  0
TABLE
  2
LAYER
  5
1
330
0
100
AcDbSymbolTable
 70
2
  0
LAYER
  5
27
330
1
100
AcDbSymbolTableRecord
100
AcDbLayerTableRecord
  2
0
 70
0
 62
7
  6
Continuous
370
-3
390
13
347
21
  0
LAYER
  5
28
330
1
100
AcDbSymbolTableRecord
100
AcDbLayerTableRecord
  2
Defpoints
 70
0
 62
7
  6
Continuous
290
0
370
-3
390
13
347
21
  0
ENDTAB
  0
TABLE
  2
STYLE
  5
5
330
0
100
AcDbSymbolTable
 70
1
  0
STYLE
  5
29
330
5
100
AcDbSymbolTableRecord
100
AcDbTextStyleTableRecord
  2
Standard
 70
0
 40
0.0
 41
1.0
 50
0.0
 71
0
 42
2.5
  3
txt
  4

  0
ENDTAB
  0
TABLE
  2
VIEW
  5
7
330
0
100
AcDbSymbolTable
 70
0
  0
ENDTAB
  0
TABLE
  2
UCS
  5
6
330
0
100
AcDbSymbolTable
 70
0
  0
ENDTAB
  0
TABLE
  2
APPID
  5
3
330
0
100
AcDbSymbolTable
 70
3
  0
APPID
  5
2A
330
3
100
AcDbSymbolTableRecord
100
AcDbRegAppTableRecord
  2
ACAD
 70
0
  0
APPID
  5
102
330
3
100
AcDbSymbolTableRecord
100
AcDbRegAppTableRecord
  2
HATCHBACKGROUNDCOLOR
 70
0
  0
APPID
  5
103
330
3
100
AcDbSymbolTableRecord
100
AcDbRegAppTableRecord
  2
EZDXF
 70
0
  0
ENDTAB
  0
TABLE
  2
DIMSTYLE
  5
4
330
0
100
AcDbSymbolTable
 70
1
100
AcDbDimStyleTable
  0
DIMSTYLE
105
2B
330
4
100
AcDbSymbolTableRecord
100
AcDbDimStyleTableRecord
  2
Standard
 70
0
 40
1.0
 41
2.5
 42
0.625
 43
3.75
 44
1.25
 45
0.0
 46
0.0
 47
0.0
 48
0.0
 49
2.5
140
2.5
141
2.5
142
0.0
143
0.03937007874
144
1.0
145
0.0
146
1.0
147
0.625
148
0.0
 69
0
 70
0
 71
0
 72
0
 73
0
 74
0
 75
0
 76
0
 77
1
 78
8
 79
3
170
0
171
3
172
1
173
0
174
0
175
0
176
0
177
0
178
0
179
2
271
2
272
2
273
2
274
3
275
0
276
0
277
2
278
44
279
0
280
0
281
0
282
0
283
0
284
8
285
0
286
0
288
0
289
3
290
0
371
-2
372
-2
  0
ENDTAB
  0
TABLE
  2
BLOCK_RECORD
  5
9
330
0
100
AcDbSymbolTable
 70
2
  0
BLOCK_RECORD
  5
17
330
9
100
AcDbSymbolTableRecord
100
AcDbBlockTableRecord
  2
*Model_Space
340
1A
 70
0
280
1
281
0
  0
BLOCK_RECORD
  5
1B
330
9
100
AcDbSymbolTableRecord
100
AcDbBlockTableRecord
  2
*Paper_Space
340
1E
 70
0
280
1
281
0
  0
ENDTAB
  0
ENDSEC
  0
SECTION
  2
BLOCKS
  0
BLOCK
  5
18
330
17
100
AcDbEntity
  8
0
100
AcDbBlockBegin
  2
*Model_Space
 70
0
 10
0.0
 20
0.0
 30
0.0
  3
*Model_Space
  1

  0
ENDBLK
  5
19
330
17
100
AcDbEntity
  8
0
100
AcDbBlockEnd
  0
BLOCK
  5
1C
330
1B
100
AcDbEntity
  8
0
100
AcDbBlockBegin
  2
*Paper_Space
 70
0
 10
0.0
 20
0.0
 30
0.0
  3
*Paper_Space
  1

  0
ENDBLK
  5
1D
330
1B
100
AcDbEntity
  8
0
100
AcDbBlockEnd
  0
ENDSEC
  0
SECTION
  2
ENTITIES
  0
LINE
  5
2F
330
17
100
AcDbEntity
  8
0
100
AcDbLine
 10
668.974
 20
-217.236
 30
0.0
 11
668.974
 21
-286.681
 31
0.0
  0
LINE
  5
30
330
17
100
AcDbEntity
  8
0
100
AcDbLine
 10
668.974
 20
-286.681
 30
0.0
 11
690.389
 21
-286.62399999999997
 31
0.0
  0
LINE
  5
31
330
17
100
AcDbEntity
  8
0
100
AcDbLine
 10
690.389
 20
-286.62399999999997
 30
0.0
 11
690.389
 21
-217.20199999999997
 31
0.0
  0
LINE
  5
32
330
17
100
AcDbEntity
  8
0
100
AcDbLine
 10
690.389
 20
-217.20199999999997
 30
0.0
 11
668.974
 21
-217.23699999999997
 31
0.0
  0
LINE
  5
33
330
17
100
AcDbEntity
  8
0
100
AcDbLine
 10
544.831
 20
-217.45199999999997
 30
0.0
 11
107.06100000000004
 21
-218.25399999999996
 31
0.0
  0
LINE
  5
34
330
17
100
AcDbEntity
  8
0
100
AcDbLine
 10
107.06100000000004
 20
-218.25399999999996
 30
0.0
 11
106.17200000000004
 21
-218.42299999999997
 31
0.0
  0
LINE
  5
35
330
17
100
AcDbEntity
  8
0
100
AcDbLine
 10
106.17200000000004
 20
-218.42299999999997
 30
0.0
 11
105.31600000000005
 21
-218.69699999999997
 31
0.0
  0
LINE
  5
36
330
17
100
AcDbEntity
  8
0
100
AcDbLine
 10
105.31600000000005
 20
-218.69699999999997
 30
0.0
 11
104.50200000000005
 21
-219.07199999999997
 31
0.0
  0
LINE
  5
37
330
17
100
AcDbEntity
  8
0
100
AcDbLine
 10
104.50200000000005
 20
-219.07199999999997
 30
0.0
 11
103.74000000000005
 21
-219.54199999999997
 31
0.0
  0
LINE
  5
38
330
17
100
AcDbEntity
  8
0
100
AcDbLine
 10
103.74000000000005
 20
-219.54199999999997
 30
0.0
 11
103.03800000000005
 21
-220.10299999999998
 31
0.0
  0
LINE
  5
39
330
17
100
AcDbEntity
  8
0
100
AcDbLine
 10
103.03800000000005
 20
-220.10299999999998
 30
0.0
 11
102.40500000000006
 21
-220.74999999999997
 31
0.0
  0
LINE
  5
3A
330
17
100
AcDbEntity
  8
0
100
AcDbLine
 10
102.40500000000006
 20
-220.74999999999997
 30
0.0
 11
98.98300000000006
 21
-225.81199999999998
 31
0.0
  0
LINE
  5
3B
330
17
100
AcDbEntity
  8
0
100
AcDbLine
 10
98.98300000000006
 20
-225.81199999999998
 30
0.0
 11
98.74000000000007
 21
-226.28099999999998
 31
0.0
  0
LINE
  5
3C
330
17
100
AcDbEntity
  8
0
100
AcDbLine
 10
98.74000000000007
 20
-226.28099999999998
 30
0.0
 11
98.53300000000007
 21
-226.766
 31
0.0
  0
LINE
  5
3D
330
17
100
AcDbEntity
  8
0
100
AcDbLine
 10
98.53300000000007
 20
-226.766
 30
0.0
 11
98.36200000000007
 21
-227.26399999999998
 31
0.0
  0
LINE
  5
3E
330
17
100
AcDbEntity
  8
0
100
AcDbLine
 10
98.36200000000007
 20
-227.26399999999998
 30
0.0
 11
98.22800000000007
 21
-227.77299999999997
 31
0.0
  0
LINE
  5
3F
330
17
100
AcDbEntity
  8
0
100
AcDbLine
 10
98.22800000000007
 20
-227.77299999999997
 30
0.0
 11
98.13100000000007
 21
-228.29099999999997
 31
0.0
  0
LINE
  5
40
330
17
100
AcDbEntity
  8
0
100
AcDbLine
 10
98.13100000000007
 20
-228.29099999999997
 30
0.0
 11
98.07300000000006
 21
-228.81599999999997
 31
0.0
  0
LINE
  5
41
330
17
100
AcDbEntity
  8
0
100
AcDbLine
 10
98.07300000000006
 20
-228.81599999999997
 30
0.0
 11
98.05300000000007
 21
-286.62399999999997
 31
0.0
  0
LINE
  5
42
330
17
100
AcDbEntity
  8
0
100
AcDbLine
 10
98.05300000000007
 20
-286.62399999999997
 30
0.0
 11
288.16400000000004
 21
-287.62399999999997
 31
0.0
  0
LINE
  5
43
330
17
100
AcDbEntity
  8
0
100
AcDbLine
 10
288.16400000000004
 20
-287.62399999999997
 30
0.0
 11
309.52500000000003
 21
-280.14799999999997
 31
0.0
  0
LINE
  5
44
330
17
100
AcDbEntity
  8
0
100
AcDbLine
 10
309.52500000000003
 20
-280.14799999999997
 30
0.0
 11
328.23900000000003
 21
-280.15599999999995
 31
0.0
  0
LINE
  5
45
330
17
100
AcDbEntity
  8
0
100
AcDbLine
 10
328.23900000000003
 20
-280.15599999999995
 30
0.0
 11
328.425
 21
-280.1809999999999
 31
0.0
  0
LINE
  5
46
330
17
100
AcDbEntity
  8
0
100
AcDbLine
 10
328.425
 20
-280.1809999999999
 30
0.0
 11
328.606
 21
-280.2219999999999
 31
0.0
  0
LINE
  5
47
330
17
100
AcDbEntity
  8
0
100
AcDbLine
 10
328.606
 20
-280.2219999999999
 30
0.0
 11
328.782
 21
-280.2779999999999
 31
0.0
  0
LINE
  5
48
330
17
100
AcDbEntity
  8
0
100
AcDbLine
 10
328.782
 20
-280.2779999999999
 30
0.0
 11
328.95099999999996
 21
-280.3479999999999
 31
0.0
  0
LINE
  5
49
330
17
100
AcDbEntity
  8
0
100
AcDbLine
 10
328.95099999999996
 20
-280.3479999999999
 30
0.0
 11
329.11299999999994
 21
-280.4319999999999
 31
0.0
  0
LINE
  5
4A
330
17
100
AcDbEntity
  8
0
100
AcDbLine
 10
329.11299999999994
 20
-280.4319999999999
 30
0.0
 11
329.26699999999994
 21
-280.5289999999999
 31
0.0
  0
LINE
  5
4B
330
17
100
AcDbEntity
  8
0
100
AcDbLine
 10
329.26699999999994
 20
-280.5289999999999
 30
0.0
 11
329.4119999999999
 21
-280.6389999999999
 31
0.0
  0
LINE
  5
4C
330
17
100
AcDbEntity
  8
0
100
AcDbLine
 10
329.4119999999999
 20
-280.6389999999999
 30
0.0
 11
329.5469999999999
 21
-280.7599999999999
 31
0.0
  0
LINE
  5
4D
330
17
100
AcDbEntity
  8
0
100
AcDbLine
 10
329.5469999999999
 20
-280.7599999999999
 30
0.0
 11
329.67099999999994
 21
-280.89299999999986
 31
0.0
  0
LINE
  5
4E
330
17
100
AcDbEntity
  8
0
100
AcDbLine
 10
329.67099999999994
 20
-280.89299999999986
 30
0.0
 11
329.78399999999993
 21
-281.03599999999983
 31
0.0
  0
LINE
  5
4F
330
17
100
AcDbEntity
  8
0
100
AcDbLine
 10
329.78399999999993
 20
-281.03599999999983
 30
0.0
 11
329.88499999999993
 21
-281.18899999999985
 31
0.0
  0
LINE
  5
50
330
17
100
AcDbEntity
  8
0
100
AcDbLine
 10
329.88499999999993
 20
-281.18899999999985
 30
0.0
 11
329.97299999999996
 21
-281.35099999999983
 31
0.0
  0
LINE
  5
51
330
17
100
AcDbEntity
  8
0
100
AcDbLine
 10
329.97299999999996
 20
-281.35099999999983
 30
0.0
 11
330.04699999999997
 21
-281.5219999999998
 31
0.0
  0
LINE
  5
52
330
17
100
AcDbEntity
  8
0
100
AcDbLine
 10
330.04699999999997
 20
-281.5219999999998
 30
0.0
 11
330.106
 21
-281.7009999999998
 31
0.0
  0
LINE
  5
53
330
17
100
AcDbEntity
  8
0
100
AcDbLine
 10
330.106
 20
-281.7009999999998
 30
0.0
 11
330.906
 21
-285.8019999999998
 31
0.0
  0
LINE
  5
54
330
17
100
AcDbEntity
  8
0
100
AcDbLine
 10
330.906
 20
-285.8019999999998
 30
0.0
 11
330.976
 21
-286.0119999999998
 31
0.0
  0
LINE
  5
55
330
17
100
AcDbEntity
  8
0
100
AcDbLine
 10
330.976
 20
-286.0119999999998
 30
0.0
 11
331.063
 21
-286.21199999999976
 31
0.0
  0
LINE
  5
56
330
17
100
AcDbEntity
  8
0
100
AcDbLine
 10
331.063
 20
-286.21199999999976
 30
0.0
 11
331.166
 21
-286.40199999999976
 31
0.0
  0
LINE
  5
57
330
17
100
AcDbEntity
  8
0
100
AcDbLine
 10
331.166
 20
-286.40199999999976
 30
0.0
 11
331.284
 21
-286.58199999999977
 31
0.0
  0
LINE
  5
58
330
17
100
AcDbEntity
  8
0
100
AcDbLine
 10
331.284
 20
-286.58199999999977
 30
0.0
 11
331.416
 21
-286.7499999999998
 31
0.0
  0
LINE
  5
59
330
17
100
AcDbEntity
  8
0
100
AcDbLine
 10
331.416
 20
-286.7499999999998
 30
0.0
 11
331.562
 21
-286.9059999999998
 31
0.0
  0
LINE
  5
5A
330
17
100
AcDbEntity
  8
0
100
AcDbLine
 10
331.562
 20
-286.9059999999998
 30
0.0
 11
331.72
 21
-287.04899999999975
 31
0.0
  0
LINE
  5
5B
330
17
100
AcDbEntity
  8
0
100
AcDbLine
 10
331.72
 20
-287.04899999999975
 30
0.0
 11
331.89000000000004
 21
-287.17799999999977
 31
0.0
  0
LINE
  5
5C
330
17
100
AcDbEntity
  8
0
100
AcDbLine
 10
331.89000000000004
 20
-287.17799999999977
 30
0.0
 11
332.07000000000005
 21
-287.29199999999975
 31
0.0
  0
LINE
  5
5D
330
17
100
AcDbEntity
  8
0
100
AcDbLine
 10
332.07000000000005
 20
-287.29199999999975
 30
0.0
 11
332.26000000000005
 21
-287.39099999999974
 31
0.0
  0
LINE
  5
5E
330
17
100
AcDbEntity
  8
0
100
AcDbLine
 10
332.26000000000005
 20
-287.39099999999974
 30
0.0
 11
332.45900000000006
 21
-287.47299999999973
 31
0.0
  0
LINE
  5
5F
330
17
100
AcDbEntity
  8
0
100
AcDbLine
 10
332.45900000000006
 20
-287.47299999999973
 30
0.0
 11
332.6650000000001
 21
-287.5379999999997
 31
0.0
  0
LINE
  5
60
330
17
100
AcDbEntity
  8
0
100
AcDbLine
 10
332.6650000000001
 20
-287.5379999999997
 30
0.0
 11
332.8780000000001
 21
-287.58599999999973
 31
0.0
  0
LINE
  5
61
330
17
100
AcDbEntity
  8
0
100
AcDbLine
 10
332.8780000000001
 20
-287.58599999999973
 30
0.0
 11
333.0970000000001
 21
-287.6149999999997
 31
0.0
  0
LINE
  5
62
330
17
100
AcDbEntity
  8
0
100
AcDbLine
 10
333.0970000000001
 20
-287.6149999999997
 30
0.0
 11
544.8340000000001
 21
-287.0339999999997
 31
0.0
  0
LINE
  5
63
330
17
100
AcDbEntity
  8
0
100
AcDbLine
 10
544.8340000000001
 20
-287.0339999999997
 30
0.0
 11
544.8340000000001
 21
-217.4519999999997
 31
0.0
  0
LINE
  5
64
330
17
100
AcDbEntity
  8
0
100
AcDbLine
 10
686.144
 20
-538.6709999999997
 30
0.0
 11
685.639
 21
-534.5249999999997
 31
0.0
  0
LINE
  5
65
330
17
100
AcDbEntity
  8
0
100
AcDbLine
 10
685.639
 20
-534.5249999999997
 30
0.0
 11
684.607
 21
-530.4969999999997
 31
0.0
  0
LINE
  5
66
330
17
100
AcDbEntity
  8
0
100
AcDbLine
 10
684.607
 20
-530.4969999999997
 30
0.0
 11
683.1379999999999
 21
-526.5819999999998
 31
0.0
  0
LINE
  5
67
330
17
100
AcDbEntity
  8
0
100
AcDbLine
 10
683.1379999999999
 20
-526.5819999999998
 30
0.0
 11
679.2479999999999
 21
-519.0729999999998
 31
0.0
  0
LINE
  5
68
330
17
100
AcDbEntity
  8
0
100
AcDbLine
 10
679.2479999999999
 20
-519.0729999999998
 30
0.0
 11
664.982
 21
-497.10699999999974
 31
0.0
  0
LINE
  5
69
330
17
100
AcDbEntity
  8
0
100
AcDbLine
 10
664.982
 20
-497.10699999999974
 30
0.0
 11
639.377
 21
-448.8169999999997
 31
0.0
  0
LINE
  5
6A
330
17
100
AcDbEntity
  8
0
100
AcDbLine
 10
639.377
 20
-448.8169999999997
 30
0.0
 11
629.173
 21
-423.4039999999997
 31
0.0
  0
LINE
  5
6B
330
17
100
AcDbEntity
  8
0
100
AcDbLine
 10
629.173
 20
-423.4039999999997
 30
0.0
 11
621.431
 21
-398.3229999999997
 31
0.0
  0
LINE
  5
6C
330
17
100
AcDbEntity
  8
0
100
AcDbLine
 10
621.431
 20
-398.3229999999997
 30
0.0
 11
619.1070000000001
 21
-385.8339999999997
 31
0.0
  0
LINE
  5
6D
330
17
100
AcDbEntity
  8
0
100
AcDbLine
 10
619.1070000000001
 20
-385.8339999999997
 30
0.0
 11
617.9470000000001
 21
-373.16499999999974
 31
0.0
  0
LINE
  5
6E
330
17
100
AcDbEntity
  8
0
100
AcDbLine
 10
617.9470000000001
 20
-373.16499999999974
 30
0.0
 11
618.1020000000001
 21
-360.50099999999975
 31
0.0
  0
LINE
  5
6F
330
17
100
AcDbEntity
  8
0
100
AcDbLine
 10
618.1020000000001
 20
-360.50099999999975
 30
0.0
 11
619.7210000000001
 21
-348.02699999999976
 31
0.0
  0
LINE
  5
70
330
17
100
AcDbEntity
  8
0
100
AcDbLine
 10
619.7210000000001
 20
-348.02699999999976
 30
0.0
 11
621.1270000000001
 21
-341.91899999999976
 31
0.0
  0
LINE
  5
71
330
17
100
AcDbEntity
  8
0
100
AcDbLine
 10
621.1270000000001
 20
-341.91899999999976
 30
0.0
 11
622.955
 21
-335.92799999999977
 31
0.0
  0
LINE
  5
72
330
17
100
AcDbEntity
  8
0
100
AcDbLine
 10
622.955
 20
-335.92799999999977
 30
0.0
 11
625.225
 21
-330.07699999999977
 31
0.0
  0
LINE
  5
73
330
17
100
AcDbEntity
  8
0
100
AcDbLine
 10
625.225
 20
-330.07699999999977
 30
0.0
 11
627.955
 21
-324.3889999999998
 31
0.0
  0
LINE
  5
74
330
17
100
AcDbEntity
  8
0
100
AcDbLine
 10
627.955
 20
-324.3889999999998
 30
0.0
 11
631.164
 21
-318.8869999999998
 31
0.0
  0
LINE
  5
75
330
17
100
AcDbEntity
  8
0
100
AcDbLine
 10
631.164
 20
-318.8869999999998
 30
0.0
 11
637.715
 21
-310.0709999999998
 31
0.0
  0
LINE
  5
76
330
17
100
AcDbEntity
  8
0
100
AcDbLine
 10
637.715
 20
-310.0709999999998
 30
0.0
 11
641.875
 21
-305.5859999999998
 31
0.0
  0
LINE
  5
77
330
17
100
AcDbEntity
  8
0
100
AcDbLine
 10
641.875
 20
-305.5859999999998
 30
0.0
 11
646.443
 21
-301.50299999999976
 31
0.0
  0
LINE
  5
78
330
17
100
AcDbEntity
  8
0
100
AcDbLine
 10
646.443
 20
-301.50299999999976
 30
0.0
 11
651.406
 21
-297.9949999999998
 31
0.0
  0
LINE
  5
79
330
17
100
AcDbEntity
  8
0
100
AcDbLine
 10
651.406
 20
-297.9949999999998
 30
0.0
 11
652.707
 21
-297.2279999999998
 31
0.0
  0
LINE
  5
7A
330
17
100
AcDbEntity
  8
0
100
AcDbLine
 10
652.707
 20
-297.2279999999998
 30
0.0
 11
528.578
 21
-297.26499999999976
 31
0.0
  0
LINE
  5
7B
330
17
100
AcDbEntity
  8
0
100
AcDbLine
 10
528.578
 20
-297.26499999999976
 30
0.0
 11
527.8639999999999
 21
-297.37399999999974
 31
0.0
  0
LINE
  5
7C
330
17
100
AcDbEntity
  8
0
100
AcDbLine
 10
527.8639999999999
 20
-297.37399999999974
 30
0.0
 11
527.175
 21
-297.55099999999976
 31
0.0
  0
LINE
  5
7D
330
17
100
AcDbEntity
  8
0
100
AcDbLine
 10
527.175
 20
-297.55099999999976
 30
0.0
 11
526.514
 21
-297.7929999999998
 31
0.0
  0
LINE
  5
7E
330
17
100
AcDbEntity
  8
0
100
AcDbLine
 10
526.514
 20
-297.7929999999998
 30
0.0
 11
525.885
 21
-298.0959999999998
 31
0.0
  0
LINE
  5
7F
330
17
100
AcDbEntity
  8
0
100
AcDbLine
 10
525.885
 20
-298.0959999999998
 30
0.0
 11
525.292
 21
-298.4559999999998
 31
0.0
  0
LINE
  5
80
330
17
100
AcDbEntity
  8
0
100
AcDbLine
 10
525.292
 20
-298.4559999999998
 30
0.0
 11
524.738
 21
-298.8699999999998
 31
0.0
  0
LINE
  5
81
330
17
100
AcDbEntity
  8
0
100
AcDbLine
 10
524.738
 20
-298.8699999999998
 30
0.0
 11
524.2270000000001
 21
-299.3339999999998
 31
0.0
  0
LINE
  5
82
330
17
100
AcDbEntity
  8
0
100
AcDbLine
 10
524.2270000000001
 20
-299.3339999999998
 30
0.0
 11
523.763
 21
-299.8449999999998
 31
0.0
  0
LINE
  5
83
330
17
100
AcDbEntity
  8
0
100
AcDbLine
 10
523.763
 20
-299.8449999999998
 30
0.0
 11
523.349
 21
-300.3989999999998
 31
0.0
  0
LINE
  5
84
330
17
100
AcDbEntity
  8
0
100
AcDbLine
 10
523.349
 20
-300.3989999999998
 30
0.0
 11
522.989
 21
-300.9919999999998
 31
0.0
  0
LINE
  5
85
330
17
100
AcDbEntity
  8
0
100
AcDbLine
 10
522.989
 20
-300.9919999999998
 30
0.0
 11
522.686
 21
-301.6209999999998
 31
0.0
  0
LINE
  5
86
330
17
100
AcDbEntity
  8
0
100
AcDbLine
 10
522.686
 20
-301.6209999999998
 30
0.0
 11
522.4440000000001
 21
-302.2819999999998
 31
0.0
  0
LINE
  5
87
330
17
100
AcDbEntity
  8
0
100
AcDbLine
 10
522.4440000000001
 20
-302.2819999999998
 30
0.0
 11
522.267
 21
-302.97099999999983
 31
0.0
  0
LINE
  5
88
330
17
100
AcDbEntity
  8
0
100
AcDbLine
 10
522.267
 20
-302.97099999999983
 30
0.0
 11
522.158
 21
-303.68499999999983
 31
0.0
  0
LINE
  5
89
330
17
100
AcDbEntity
  8
0
100
AcDbLine
 10
522.158
 20
-303.68499999999983
 30
0.0
 11
522.063
 21
-320.7219999999998
 31
0.0
  0
LINE
  5
8A
330
17
100
AcDbEntity
  8
0
100
AcDbLine
 10
522.063
 20
-320.7219999999998
 30
0.0
 11
521.8919999999999
 21
-321.8399999999998
 31
0.0
  0
LINE
  5
8B
330
17
100
AcDbEntity
  8
0
100
AcDbLine
 10
521.8919999999999
 20
-321.8399999999998
 30
0.0
 11
521.6139999999999
 21
-322.9189999999998
 31
0.0
  0
LINE
  5
8C
330
17
100
AcDbEntity
  8
0
100
AcDbLine
 10
521.6139999999999
 20
-322.9189999999998
 30
0.0
 11
521.2349999999999
 21
-323.95399999999984
 31
0.0
  0
LINE
  5
8D
330
17
100
AcDbEntity
  8
0
100
AcDbLine
 10
521.2349999999999
 20
-323.95399999999984
 30
0.0
 11
520.7609999999999
 21
-324.93899999999985
 31
0.0
  0
LINE
  5
8E
330
17
100
AcDbEntity
  8
0
100
AcDbLine
 10
520.7609999999999
 20
-324.93899999999985
 30
0.0
 11
520.1969999999999
 21
-325.8679999999998
 31
0.0
  0
LINE
  5
8F
330
17
100
AcDbEntity
  8
0
100
AcDbLine
 10
520.1969999999999
 20
-325.8679999999998
 30
0.0
 11
519.5489999999999
 21
-326.73499999999984
 31
0.0
  0
LINE
  5
90
330
17
100
AcDbEntity
  8
0
100
AcDbLine
 10
519.5489999999999
 20
-326.73499999999984
 30
0.0
 11
518.8219999999999
 21
-327.53499999999985
 31
0.0
  0
LINE
  5
91
330
17
100
AcDbEntity
  8
0
100
AcDbLine
 10
518.8219999999999
 20
-327.53499999999985
 30
0.0
 11
518.0219999999999
 21
-328.26199999999983
 31
0.0
  0
LINE
  5
92
330
17
100
AcDbEntity
  8
0
100
AcDbLine
 10
518.0219999999999
 20
-328.26199999999983
 30
0.0
 11
517.155
 21
-328.90999999999985
 31
0.0
  0
LINE
  5
93
330
17
100
AcDbEntity
  8
0
100
AcDbLine
 10
517.155
 20
-328.90999999999985
 30
0.0
 11
516.226
 21
-329.4739999999999
 31
0.0
  0
LINE
  5
94
330
17
100
AcDbEntity
  8
0
100
AcDbLine
 10
516.226
 20
-329.4739999999999
 30
0.0
 11
515.241
 21
-329.94799999999987
 31
0.0
  0
LINE
  5
95
330
17
100
AcDbEntity
  8
0
100
AcDbLine
 10
515.241
 20
-329.94799999999987
 30
0.0
 11
514.206
 21
-330.3269999999999
 31
0.0
  0
LINE
  5
96
330
17
100
AcDbEntity
  8
0
100
AcDbLine
 10
514.206
 20
-330.3269999999999
 30
0.0
 11
513.1270000000001
 21
-330.6049999999999
 31
0.0
  0
LINE
  5
97
330
17
100
AcDbEntity
  8
0
100
AcDbLine
 10
513.1270000000001
 20
-330.6049999999999
 30
0.0
 11
512.009
 21
-330.7759999999999
 31
0.0
  0
LINE
  5
98
330
17
100
AcDbEntity
  8
0
100
AcDbLine
 10
512.009
 20
-330.7759999999999
 30
0.0
 11
471.571
 21
-330.7759999999999
 31
0.0
  0
LINE
  5
99
330
17
100
AcDbEntity
  8
0
100
AcDbLine
 10
471.571
 20
-330.7759999999999
 30
0.0
 11
470.45300000000003
 21
-330.6049999999999
 31
0.0
  0
LINE
  5
9A
330
17
100
AcDbEntity
  8
0
100
AcDbLine
 10
470.45300000000003
 20
-330.6049999999999
 30
0.0
 11
469.374
 21
-330.3269999999999
 31
0.0
  0
LINE
  5
9B
330
17
100
AcDbEntity
  8
0
100
AcDbLine
 10
469.374
 20
-330.3269999999999
 30
0.0
 11
468.339
 21
-329.94799999999987
 31
0.0
  0
LINE
  5
9C
330
17
100
AcDbEntity
  8
0
100
AcDbLine
 10
468.339
 20
-329.94799999999987
 30
0.0
 11
467.354
 21
-329.4739999999999
 31
0.0
  0
LINE
  5
9D
330
17
100
AcDbEntity
  8
0
100
AcDbLine
 10
467.354
 20
-329.4739999999999
 30
0.0
 11
466.425
 21
-328.90999999999985
 31
0.0
  0
LINE
  5
9E
330
17
100
AcDbEntity
  8
0
100
AcDbLine
 10
466.425
 20
-328.90999999999985
 30
0.0
 11
465.558
 21
-328.26199999999983
 31
0.0
  0
LINE
  5
9F
330
17
100
AcDbEntity
  8
0
100
AcDbLine
 10
465.558
 20
-328.26199999999983
 30
0.0
 11
464.758
 21
-327.53499999999985
 31
0.0
  0
LINE
  5
A0
330
17
100
AcDbEntity
  8
0
100
AcDbLine
 10
464.758
 20
-327.53499999999985
 30
0.0
 11
464.031
 21
-326.73499999999984
 31
0.0
  0
LINE
  5
A1
330
17
100
AcDbEntity
  8
0
100
AcDbLine
 10
464.031
 20
-326.73499999999984
 30
0.0
 11
463.383
 21
-325.8679999999998
 31
0.0
  0
LINE
  5
A2
330
17
100
AcDbEntity
  8
0
100
AcDbLine
 10
463.383
 20
-325.8679999999998
 30
0.0
 11
462.81899999999996
 21
-324.93899999999985
 31
0.0
  0
LINE
  5
A3
330
17
100
AcDbEntity
  8
0
100
AcDbLine
 10
462.81899999999996
 20
-324.93899999999985
 30
0.0
 11
462.34499999999997
 21
-323.95399999999984
 31
0.0
  0
LINE
  5
A4
330
17
100
AcDbEntity
  8
0
100
AcDbLine
 10
462.34499999999997
 20
-323.95399999999984
 30
0.0
 11
461.96599999999995
 21
-322.9189999999998
 31
0.0
  0
LINE
  5
A5
330
17
100
AcDbEntity
  8
0
100
AcDbLine
 10
461.96599999999995
 20
-322.9189999999998
 30
0.0
 11
461.68799999999993
 21
-321.8399999999998
 31
0.0
  0
LINE
  5
A6
330
17
100
AcDbEntity
  8
0
100
AcDbLine
 10
461.68799999999993
 20
-321.8399999999998
 30
0.0
 11
461.51699999999994
 21
-320.7219999999998
 31
0.0
  0
LINE
  5
A7
330
17
100
AcDbEntity
  8
0
100
AcDbLine
 10
461.51699999999994
 20
-320.7219999999998
 30
0.0
 11
461.42299999999994
 21
-303.54799999999983
 31
0.0
  0
LINE
  5
A8
330
17
100
AcDbEntity
  8
0
100
AcDbLine
 10
461.42299999999994
 20
-303.54799999999983
 30
0.0
 11
461.3159999999999
 21
-302.8489999999998
 31
0.0
  0
LINE
  5
A9
330
17
100
AcDbEntity
  8
0
100
AcDbLine
 10
461.3159999999999
 20
-302.8489999999998
 30
0.0
 11
461.1429999999999
 21
-302.1739999999998
 31
0.0
  0
LINE
  5
AA
330
17
100
AcDbEntity
  8
0
100
AcDbLine
 10
461.1429999999999
 20
-302.1739999999998
 30
0.0
 11
460.9059999999999
 21
-301.5269999999998
 31
0.0
  0
LINE
  5
AB
330
17
100
AcDbEntity
  8
0
100
AcDbLine
 10
460.9059999999999
 20
-301.5269999999998
 30
0.0
 11
460.6099999999999
 21
-300.9119999999998
 31
0.0
  0
LINE
  5
AC
330
17
100
AcDbEntity
  8
0
100
AcDbLine
 10
460.6099999999999
 20
-300.9119999999998
 30
0.0
 11
460.2569999999999
 21
-300.3319999999998
 31
0.0
  0
LINE
  5
AD
330
17
100
AcDbEntity
  8
0
100
AcDbLine
 10
460.2569999999999
 20
-300.3319999999998
 30
0.0
 11
459.8519999999999
 21
-299.78999999999985
 31
0.0
  0
LINE
  5
AE
330
17
100
AcDbEntity
  8
0
100
AcDbLine
 10
459.8519999999999
 20
-299.78999999999985
 30
0.0
 11
459.3979999999999
 21
-299.28999999999985
 31
0.0
  0
LINE
  5
AF
330
17
100
AcDbEntity
  8
0
100
AcDbLine
 10
459.3979999999999
 20
-299.28999999999985
 30
0.0
 11
458.8979999999999
 21
-298.83599999999984
 31
0.0
  0
LINE
  5
B0
330
17
100
AcDbEntity
  8
0
100
AcDbLine
 10
458.8979999999999
 20
-298.83599999999984
 30
0.0
 11
458.35599999999994
 21
-298.43099999999987
 31
0.0
  0
LINE
  5
B1
330
17
100
AcDbEntity
  8
0
100
AcDbLine
 10
458.35599999999994
 20
-298.43099999999987
 30
0.0
 11
457.77599999999995
 21
-298.07799999999986
 31
0.0
  0
LINE
  5
B2
330
17
100
AcDbEntity
  8
0
100
AcDbLine
 10
457.77599999999995
 20
-298.07799999999986
 30
0.0
 11
457.16099999999994
 21
-297.78199999999987
 31
0.0
  0
LINE
  5
B3
330
17
100
AcDbEntity
  8
0
100
AcDbLine
 10
457.16099999999994
 20
-297.78199999999987
 30
0.0
 11
456.51399999999995
 21
-297.54499999999985
 31
0.0
  0
LINE
  5
B4
330
17
100
AcDbEntity
  8
0
100
AcDbLine
 10
456.51399999999995
 20
-297.54499999999985
 30
0.0
 11
455.83899999999994
 21
-297.37199999999984
 31
0.0
  0
LINE
  5
B5
330
17
100
AcDbEntity
  8
0
100
AcDbLine
 10
455.83899999999994
 20
-297.37199999999984
 30
0.0
 11
455.13999999999993
 21
-297.2649999999998
 31
0.0
  0
LINE
  5
B6
330
17
100
AcDbEntity
  8
0
100
AcDbLine
 10
455.13999999999993
 20
-297.2649999999998
 30
0.0
 11
362.8259999999999
 21
-297.2289999999998
 31
0.0
  0
LINE
  5
B7
330
17
100
AcDbEntity
  8
0
100
AcDbLine
 10
362.8259999999999
 20
-297.2289999999998
 30
0.0
 11
369.8999999999999
 21
-316.5319999999998
 31
0.0
  0
LINE
  5
B8
330
17
100
AcDbEntity
  8
0
100
AcDbLine
 10
369.8999999999999
 20
-316.5319999999998
 30
0.0
 11
372.1339999999999
 21
-324.97799999999984
 31
0.0
  0
LINE
  5
B9
330
17
100
AcDbEntity
  8
0
100
AcDbLine
 10
372.1339999999999
 20
-324.97799999999984
 30
0.0
 11
373.6209999999999
 21
-332.85799999999983
 31
0.0
  0
LINE
  5
BA
330
17
100
AcDbEntity
  8
0
100
AcDbLine
 10
373.6209999999999
 20
-332.85799999999983
 30
0.0
 11
373.8089999999999
 21
-333.51599999999985
 31
0.0
  0
LINE
  5
BB
330
17
100
AcDbEntity
  8
0
100
AcDbLine
 10
373.8089999999999
 20
-333.51599999999985
 30
0.0
 11
374.05299999999994
 21
-334.1469999999998
 31
0.0
  0
LINE
  5
BC
330
17
100
AcDbEntity
  8
0
100
AcDbLine
 10
374.05299999999994
 20
-334.1469999999998
 30
0.0
 11
374.34999999999997
 21
-334.7489999999998
 31
0.0
  0
LINE
  5
BD
330
17
100
AcDbEntity
  8
0
100
AcDbLine
 10
374.34999999999997
 20
-334.7489999999998
 30
0.0
 11
374.69599999999997
 21
-335.3179999999998
 31
0.0
  0
LINE
  5
BE
330
17
100
AcDbEntity
  8
0
100
AcDbLine
 10
374.69599999999997
 20
-335.3179999999998
 30
0.0
 11
375.08899999999994
 21
-335.8519999999998
 31
0.0
  0
LINE
  5
BF
330
17
100
AcDbEntity
  8
0
100
AcDbLine
 10
375.08899999999994
 20
-335.8519999999998
 30
0.0
 11
375.52599999999995
 21
-336.3469999999998
 31
0.0
  0
LINE
  5
C0
330
17
100
AcDbEntity
  8
0
100
AcDbLine
 10
375.52599999999995
 20
-336.3469999999998
 30
0.0
 11
376.00299999999993
 21
-336.7999999999998
 31
0.0
  0
LINE
  5
C1
330
17
100
AcDbEntity
  8
0
100
AcDbLine
 10
376.00299999999993
 20
-336.7999999999998
 30
0.0
 11
376.5179999999999
 21
-337.2089999999998
 31
0.0
  0
LINE
  5
C2
330
17
100
AcDbEntity
  8
0
100
AcDbLine
 10
376.5179999999999
 20
-337.2089999999998
 30
0.0
 11
377.0669999999999
 21
-337.56999999999977
 31
0.0
  0
LINE
  5
C3
330
17
100
AcDbEntity
  8
0
100
AcDbLine
 10
377.0669999999999
 20
-337.56999999999977
 30
0.0
 11
377.6479999999999
 21
-337.88099999999974
 31
0.0
  0
LINE
  5
C4
330
17
100
AcDbEntity
  8
0
100
AcDbLine
 10
377.6479999999999
 20
-337.88099999999974
 30
0.0
 11
378.2569999999999
 21
-338.13799999999975
 31
0.0
  0
LINE
  5
C5
330
17
100
AcDbEntity
  8
0
100
AcDbLine
 10
378.2569999999999
 20
-338.13799999999975
 30
0.0
 11
378.8909999999999
 21
-338.33899999999977
 31
0.0
  0
LINE
  5
C6
330
17
100
AcDbEntity
  8
0
100
AcDbLine
 10
378.8909999999999
 20
-338.33899999999977
 30
0.0
 11
379.5469999999999
 21
-338.4799999999998
 31
0.0
  0
LINE
  5
C7
330
17
100
AcDbEntity
  8
0
100
AcDbLine
 10
379.5469999999999
 20
-338.4799999999998
 30
0.0
 11
380.2219999999999
 21
-338.55799999999977
 31
0.0
  0
LINE
  5
C8
330
17
100
AcDbEntity
  8
0
100
AcDbLine
 10
380.2219999999999
 20
-338.55799999999977
 30
0.0
 11
405.6529999999999
 21
-339.4849999999998
 31
0.0
  0
LINE
  5
C9
330
17
100
AcDbEntity
  8
0
100
AcDbLine
 10
405.6529999999999
 20
-339.4849999999998
 30
0.0
 11
419.6579999999999
 21
-341.7349999999998
 31
0.0
  0
LINE
  5
CA
330
17
100
AcDbEntity
  8
0
100
AcDbLine
 10
419.6579999999999
 20
-341.7349999999998
 30
0.0
 11
433.2859999999999
 21
-345.4849999999998
 31
0.0
  0
LINE
  5
CB
330
17
100
AcDbEntity
  8
0
100
AcDbLine
 10
433.2859999999999
 20
-345.4849999999998
 30
0.0
 11
441.52999999999986
 21
-348.6989999999998
 31
0.0
  0
LINE
  5
CC
330
17
100
AcDbEntity
  8
0
100
AcDbLine
 10
441.52999999999986
 20
-348.6989999999998
 30
0.0
 11
447.89499999999987
 21
-351.8499999999998
 31
0.0
  0
LINE
  5
CD
330
17
100
AcDbEntity
  8
0
100
AcDbLine
 10
447.89499999999987
 20
-351.8499999999998
 30
0.0
 11
453.9379999999999
 21
-355.5679999999998
 31
0.0
  0
LINE
  5
CE
330
17
100
AcDbEntity
  8
0
100
AcDbLine
 10
453.9379999999999
 20
-355.5679999999998
 30
0.0
 11
459.5549999999999
 21
-359.8999999999998
 31
0.0
  0
LINE
  5
CF
330
17
100
AcDbEntity
  8
0
100
AcDbLine
 10
459.5549999999999
 20
-359.8999999999998
 30
0.0
 11
462.38299999999987
 21
-362.5419999999998
 31
0.0
  0
LINE
  5
D0
330
17
100
AcDbEntity
  8
0
100
AcDbLine
 10
462.38299999999987
 20
-362.5419999999998
 30
0.0
 11
465.1029999999999
 21
-365.6189999999998
 31
0.0
  0
LINE
  5
D1
330
17
100
AcDbEntity
  8
0
100
AcDbLine
 10
465.1029999999999
 20
-365.6189999999998
 30
0.0
 11
467.4879999999999
 21
-368.8889999999998
 31
0.0
  0
LINE
  5
D2
330
17
100
AcDbEntity
  8
0
100
AcDbLine
 10
467.4879999999999
 20
-368.8889999999998
 30
0.0
 11
471.45499999999987
 21
-375.90899999999976
 31
0.0
  0
LINE
  5
D3
330
17
100
AcDbEntity
  8
0
100
AcDbLine
 10
471.45499999999987
 20
-375.90899999999976
 30
0.0
 11
543.8739999999999
 21
-561.9479999999998
 31
0.0
  0
LINE
  5
D4
330
17
100
AcDbEntity
  8
0
100
AcDbLine
 10
543.8739999999999
 20
-561.9479999999998
 30
0.0
 11
544.161
 21
-562.4769999999997
 31
0.0
  0
LINE
  5
D5
330
17
100
AcDbEntity
  8
0
100
AcDbLine
 10
544.161
 20
-562.4769999999997
 30
0.0
 11
544.4879999999999
 21
-562.9749999999998
 31
0.0
  0
LINE
  5
D6
330
17
100
AcDbEntity
  8
0
100
AcDbLine
 10
544.4879999999999
 20
-562.9749999999998
 30
0.0
 11
544.851
 21
-563.4409999999998
 31
0.0
  0
LINE
  5
D7
330
17
100
AcDbEntity
  8
0
100
AcDbLine
 10
544.851
 20
-563.4409999999998
 30
0.0
 11
545.249
 21
-563.8729999999998
 31
0.0
  0
LINE
  5
D8
330
17
100
AcDbEntity
  8
0
100
AcDbLine
 10
545.249
 20
-563.8729999999998
 30
0.0
 11
545.679
 21
-564.2699999999999
 31
0.0
  0
LINE
  5
D9
330
17
100
AcDbEntity
  8
0
100
AcDbLine
 10
545.679
 20
-564.2699999999999
 30
0.0
 11
546.1379999999999
 21
-564.6299999999999
 31
0.0
  0
LINE
  5
DA
330
17
100
AcDbEntity
  8
0
100
AcDbLine
 10
546.1379999999999
 20
-564.6299999999999
 30
0.0
 11
546.6239999999999
 21
-564.9519999999999
 31
0.0
  0
LINE
  5
DB
330
17
100
AcDbEntity
  8
0
100
AcDbLine
 10
546.6239999999999
 20
-564.9519999999999
 30
0.0
 11
547.1339999999999
 21
-565.2339999999999
 31
0.0
  0
LINE
  5
DC
330
17
100
AcDbEntity
  8
0
100
AcDbLine
 10
547.1339999999999
 20
-565.2339999999999
 30
0.0
 11
547.6659999999999
 21
-565.4739999999999
 31
0.0
  0
LINE
  5
DD
330
17
100
AcDbEntity
  8
0
100
AcDbLine
 10
547.6659999999999
 20
-565.4739999999999
 30
0.0
 11
548.217
 21
-565.6709999999999
 31
0.0
  0
LINE
  5
DE
330
17
100
AcDbEntity
  8
0
100
AcDbLine
 10
548.217
 20
-565.6709999999999
 30
0.0
 11
548.784
 21
-565.824
 31
0.0
  0
LINE
  5
DF
330
17
100
AcDbEntity
  8
0
100
AcDbLine
 10
548.784
 20
-565.824
 30
0.0
 11
549.365
 21
-565.9309999999999
 31
0.0
  0
LINE
  5
E0
330
17
100
AcDbEntity
  8
0
100
AcDbLine
 10
549.365
 20
-565.9309999999999
 30
0.0
 11
549.958
 21
-565.9899999999999
 31
0.0
  0
LINE
  5
E1
330
17
100
AcDbEntity
  8
0
100
AcDbLine
 10
549.958
 20
-565.9899999999999
 30
0.0
 11
550.56
 21
-565.9999999999999
 31
0.0
  0
LINE
  5
E2
330
17
100
AcDbEntity
  8
0
100
AcDbLine
 10
550.56
 20
-565.9999999999999
 30
0.0
 11
673.5559999999999
 21
-552.8459999999999
 31
0.0
  0
LINE
  5
E3
330
17
100
AcDbEntity
  8
0
100
AcDbLine
 10
673.5559999999999
 20
-552.8459999999999
 30
0.0
 11
675.79
 21
-552.4199999999998
 31
0.0
  0
LINE
  5
E4
330
17
100
AcDbEntity
  8
0
100
AcDbLine
 10
675.79
 20
-552.4199999999998
 30
0.0
 11
677.9409999999999
 21
-551.7989999999999
 31
0.0
  0
LINE
  5
E5
330
17
100
AcDbEntity
  8
0
100
AcDbLine
 10
677.9409999999999
 20
-551.7989999999999
 30
0.0
 11
678.9689999999999
 21
-551.3969999999998
 31
0.0
  0
LINE
  5
E6
330
17
100
AcDbEntity
  8
0
100
AcDbLine
 10
678.9689999999999
 20
-551.3969999999998
 30
0.0
 11
679.958
 21
-550.9249999999998
 31
0.0
  0
LINE
  5
E7
330
17
100
AcDbEntity
  8
0
100
AcDbLine
 10
679.958
 20
-550.9249999999998
 30
0.0
 11
680.901
 21
-550.3749999999999
 31
0.0
  0
LINE
  5
E8
330
17
100
AcDbEntity
  8
0
100
AcDbLine
 10
680.901
 20
-550.3749999999999
 30
0.0
 11
681.7919999999999
 21
-549.7399999999999
 31
0.0
  0
LINE
  5
E9
330
17
100
AcDbEntity
  8
0
100
AcDbLine
 10
681.7919999999999
 20
-549.7399999999999
 30
0.0
 11
682.7909999999999
 21
-548.8489999999999
 31
0.0
  0
LINE
  5
EA
330
17
100
AcDbEntity
  8
0
100
AcDbLine
 10
682.7909999999999
 20
-548.8489999999999
 30
0.0
 11
683.4119999999999
 21
-548.1579999999999
 31
0.0
  0
LINE
  5
EB
330
17
100
AcDbEntity
  8
0
100
AcDbLine
 10
683.4119999999999
 20
-548.1579999999999
 30
0.0
 11
683.9649999999999
 21
-547.4169999999999
 31
0.0
  0
LINE
  5
EC
330
17
100
AcDbEntity
  8
0
100
AcDbLine
 10
683.9649999999999
 20
-547.4169999999999
 30
0.0
 11
684.4519999999999
 21
-546.632
 31
0.0
  0
LINE
  5
ED
330
17
100
AcDbEntity
  8
0
100
AcDbLine
 10
684.4519999999999
 20
-546.632
 30
0.0
 11
684.9709999999999
 21
-545.5939999999999
 31
0.0
  0
LINE
  5
EE
330
17
100
AcDbEntity
  8
0
100
AcDbLine
 10
684.9709999999999
 20
-545.5939999999999
 30
0.0
 11
685.3159999999999
 21
-544.7249999999999
 31
0.0
  0
LINE
  5
EF
330
17
100
AcDbEntity
  8
0
100
AcDbLine
 10
685.3159999999999
 20
-544.7249999999999
 30
0.0
 11
685.8249999999999
 21
-542.9119999999999
 31
0.0
  0
LINE
  5
F0
330
17
100
AcDbEntity
  8
0
100
AcDbLine
 10
685.8249999999999
 20
-542.9119999999999
 30
0.0
 11
686.103
 21
-541.0369999999999
 31
0.0
  0
LINE
  5
F1
330
17
100
AcDbEntity
  8
0
100
AcDbLine
 10
686.103
 20
-541.0369999999999
 30
0.0
 11
686.146
 21
-538.6739999999999
 31
0.0
  0
LINE
  5
F2
330
17
100
AcDbEntity
  8
0
100
AcDbLine
 10
323.97999999999996
 20
-333.79399999999987
 30
0.0
 11
258.361
 21
-333.79399999999987
 31
0.0
  0
LINE
  5
F3
330
17
100
AcDbEntity
  8
0
100
AcDbLine
 10
258.361
 20
-333.79399999999987
 30
0.0
 11
259.014
 21
-317.59299999999985
 31
0.0
  0
LINE
  5
F4
330
17
100
AcDbEntity
  8
0
100
AcDbLine
 10
259.014
 20
-317.59299999999985
 30
0.0
 11
258.361
 21
-305.2839999999998
 31
0.0
  0
LINE
  5
F5
330
17
100
AcDbEntity
  8
0
100
AcDbLine
 10
258.361
 20
-305.2839999999998
 30
0.0
 11
257.93
 21
-302.6649999999998
 31
0.0
  0
LINE
  5
F6
330
17
100
AcDbEntity
  8
0
100
AcDbLine
 10
257.93
 20
-302.6649999999998
 30
0.0
 11
257.361
 21
-300.3939999999998
 31
0.0
  0
LINE
  5
F7
330
17
100
AcDbEntity
  8
0
100
AcDbLine
 10
257.361
 20
-300.3939999999998
 30
0.0
 11
257.02
 21
-299.4149999999998
 31
0.0
  0
LINE
  5
F8
330
17
100
AcDbEntity
  8
0
100
AcDbLine
 10
257.02
 20
-299.4149999999998
 30
0.0
 11
256.639
 21
-298.5539999999998
 31
0.0
  0
LINE
  5
F9
330
17
100
AcDbEntity
  8
0
100
AcDbLine
 10
256.639
 20
-298.5539999999998
 30
0.0
 11
256.216
 21
-297.8219999999998
 31
0.0
  0
LINE
  5
FA
330
17
100
AcDbEntity
  8
0
100
AcDbLine
 10
256.216
 20
-297.8219999999998
 30
0.0
 11
255.988
 21
-297.5069999999998
 31
0.0
  0
LINE
  5
FB
330
17
100
AcDbEntity
  8
0
100
AcDbLine
 10
255.988
 20
-297.5069999999998
 30
0.0
 11
255.749
 21
-297.2279999999998
 31
0.0
  0
LINE
  5
FC
330
17
100
AcDbEntity
  8
0
100
AcDbLine
 10
255.749
 20
-297.2279999999998
 30
0.0
 11
315.819
 21
-297.2279999999998
 31
0.0
  0
LINE
  5
FD
330
17
100
AcDbEntity
  8
0
100
AcDbLine
 10
315.819
 20
-297.2279999999998
 30
0.0
 11
315.809
 21
-299.95699999999977
 31
0.0
  0
LINE
  5
FE
330
17
100
AcDbEntity
  8
0
100
AcDbLine
 10
315.809
 20
-299.95699999999977
 30
0.0
 11
316.47200000000004
 21
-307.5519999999998
 31
0.0
  0
LINE
  5
FF
330
17
100
AcDbEntity
  8
0
100
AcDbLine
 10
316.47200000000004
 20
-307.5519999999998
 30
0.0
 11
318.84900000000005
 21
-319.1259999999998
 31
0.0
  0
LINE
  5
100
330
17
100
AcDbEntity
  8
0
100
AcDbLine
 10
318.84900000000005
 20
-319.1259999999998
 30
0.0
 11
321.00500000000005
 21
-326.1279999999998
 31
0.0
  0
LINE
  5
101
330
17
100
AcDbEntity
  8
0
100
AcDbLine
 10
321.00500000000005
 20
-326.1279999999998
 30
0.0
 11
323.9800000000001
 21
-333.7919999999998
 31
0.0
  0
ENDSEC
  0
SECTION
  2
OBJECTS
  0
DICTIONARY
  5
A
330
0
100
AcDbDictionary
281
1
  3
ACAD_COLOR
350
B
  3
ACAD_GROUP
350
C
  3
ACAD_LAYOUT
350
D
  3
ACAD_MATERIAL
350
E
  3
ACAD_MLEADERSTYLE
350
F
  3
ACAD_MLINESTYLE
350
10
  3
ACAD_PLOTSETTINGS
350
11
  3
ACAD_PLOTSTYLENAME
350
12
  3
ACAD_SCALELIST
350
14
  3
ACAD_TABLESTYLE
350
15
  3
ACAD_VISUALSTYLE
350
16
  3
EZDXF_META
350
2D
  0
DICTIONARY
  5
B
330
A
100
AcDbDictionary
281
1
  0
DICTIONARY
  5
C
330
A
100
AcDbDictionary
281
1
  0
DICTIONARY
  5
D
330
A
100
AcDbDictionary
281
1
  3
Model
350
1A
  3
Layout1
350
1E
  0
DICTIONARY
  5
E
330
A
100
AcDbDictionary
281
1
  3
ByBlock
350
1F
  3
ByLayer
350
20
  3
Global
350
21
  0
DICTIONARY
  5
F
330
A
100
AcDbDictionary
281
1
  3
Standard
350
2C
  0
DICTIONARY
  5
10
330
A
100
AcDbDictionary
281
1
  3
Standard
350
22
  0
DICTIONARY
  5
11
330
A
100
AcDbDictionary
281
1
  0
ACDBDICTIONARYWDFLT
  5
12
330
A
100
AcDbDictionary
281
1
  3
Normal
350
13
100
AcDbDictionaryWithDefault
340
13
  0
ACDBPLACEHOLDER
  5
13
330
12
  0
DICTIONARY
  5
14
330
A
100
AcDbDictionary
281
1
  0
DICTIONARY
  5
15
330
A
100
AcDbDictionary
281
1
  0
DICTIONARY
  5
16
330
A
100
AcDbDictionary
281
1
  0
LAYOUT
  5
1A
330
D
100
AcDbPlotSettings
  1

  4
A3
  6

 40
7.5
 41
20.0
 42
7.5
 43
20.0
 44
420.0
 45
297.0
 46
0.0
 47
0.0
 48
0.0
 49
0.0
140
0.0
141
0.0
142
1.0
143
1.0
 70
1024
 72
1
 73
0
 74
5
  7

 75
16
 76
0
 77
2
 78
300
147
1.0
148
0.0
149
0.0
100
AcDbLayout
  1
Model
 70
1
 71
0
 10
0.0
 20
0.0
 11
420.0
 21
297.0
 12
0.0
 22
0.0
 32
0.0
 14
1e+20
 24
1e+20
 34
1e+20
 15
-1e+20
 25
-1e+20
 35
-1e+20
146
0.0
 13
0.0
 23
0.0
 33
0.0
 16
1.0
 26
0.0
 36
0.0
 17
0.0
 27
1.0
 37
0.0
 76
1
330
17
  0
LAYOUT
  5
1E
330
D
100
AcDbPlotSettings
  1

  4
A3
  6

 40
7.5
 41
20.0
 42
7.5
 43
20.0
 44
420.0
 45
297.0
 46
0.0
 47
0.0
 48
0.0
 49
0.0
140
0.0
141
0.0
142
1.0
143
1.0
 70
0
 72
1
 73
0
 74
5
  7

 75
16
 76
0
 77
2
 78
300
147
1.0
148
0.0
149
0.0
100
AcDbLayout
  1
Layout1
 70
1
 71
1
 10
0.0
 20
0.0
 11
420.0
 21
297.0
 12
0.0
 22
0.0
 32
0.0
 14
1e+20
 24
1e+20
 34
1e+20
 15
-1e+20
 25
-1e+20
 35
-1e+20
146
0.0
 13
0.0
 23
0.0
 33
0.0
 16
1.0
 26
0.0
 36
0.0
 17
0.0
 27
1.0
 37
0.0
 76
1
330
1B
  0
MATERIAL
  5
1F
102
{ACAD_REACTORS
330
E
102
}
330
E
100
AcDbMaterial
  1
ByBlock
  2

 70
0
 40
1.0
 71
1
 41
1.0
 91
-1023410177
 42
1.0
 72
1
  3

 73
1
 74
1
 75
1
 44
0.5
 73
0
 45
1.0
 46
1.0
 77
1
  4

 78
1
 79
1
170
1
 48
1.0
171
1
  6

172
1
173
1
174
1
140
1.0
141
1.0
175
1
  7

176
1
177
1
178
1
143
1.0
179
1
  8

270
1
271
1
272
1
145
1.0
146
1.0
273
1
  9

274
1
275
1
276
1
 42
1.0
 72
1
  3

 73
1
 74
1
 75
1
 94
63
  0
MATERIAL
  5
20
102
{ACAD_REACTORS
330
E
102
}
330
E
100
AcDbMaterial
  1
ByLayer
  2

 70
0
 40
1.0
 71
1
 41
1.0
 91
-1023410177
 42
1.0
 72
1
  3

 73
1
 74
1
 75
1
 44
0.5
 73
0
 45
1.0
 46
1.0
 77
1
  4

 78
1
 79
1
170
1
 48
1.0
171
1
  6

172
1
173
1
174
1
140
1.0
141
1.0
175
1
  7

176
1
177
1
178
1
143
1.0
179
1
  8

270
1
271
1
272
1
145
1.0
146
1.0
273
1
  9

274
1
275
1
276
1
 42
1.0
 72
1
  3

 73
1
 74
1
 75
1
 94
63
  0
MATERIAL
  5
21
102
{ACAD_REACTORS
330
E
102
}
330
E
100
AcDbMaterial
  1
Global
  2

 70
0
 40
1.0
 71
1
 41
1.0
 91
-1023410177
 42
1.0
 72
1
  3

 73
1
 74
1
 75
1
 44
0.5
 73
0
 45
1.0
 46
1.0
 77
1
  4

 78
1
 79
1
170
1
 48
1.0
171
1
  6

172
1
173
1
174
1
140
1.0
141
1.0
175
1
  7

176
1
177
1
178
1
143
1.0
179
1
  8

270
1
271
1
272
1
145
1.0
146
1.0
273
1
  9

274
1
275
1
276
1
 42
1.0
 72
1
  3

 73
1
 74
1
 75
1
 94
63
  0
MLINESTYLE
  5
22
102
{ACAD_REACTORS
330
10
102
}
330
10
100
AcDbMlineStyle
  2
Standard
 70
0
  3

 62
256
 51
90.0
 52
90.0
 71
2
 49
0.5
 62
256
  6
BYLAYER
 49
-0.5
 62
256
  6
BYLAYER
  0
MLEADERSTYLE
  5
2C
102
{ACAD_REACTORS
330
F
102
}
330
F
100
AcDbMLeaderStyle
179
2
170
2
171
1
172
0
 90
2
 40
0.0
 41
0.0
173
1
 91
-1056964608
 92
-2
290
1
 42
2.0
291
1
 43
8.0
  3
Standard
 44
4.0
300

342
29
174
1
175
1
176
0
178
1
 93
-1056964608
 45
4.0
292
0
297
0
 46
4.0
 94
-1056964608
 47
1.0
 49
1.0
140
1.0
294
1
141
0.0
177
0
142
1.0
295
0
296
0
143
3.75
271
0
272
9
273
9
  0
DICTIONARY
  5
2D
330
A
100
AcDbDictionary
280
1
281
1
  3
CREATED_BY_EZDXF
350
2E
  3
WRITTEN_BY_EZDXF
350
104
  0
DICTIONARYVAR
  5
2E
330
2D
100
DictionaryVariables
280
0
  1
1.4.3 @ 2026-04-08T00:10:10.707535+00:00
  0
DICTIONARYVAR
  5
104
330
2D
100
DictionaryVariables
280
0
  1
1.4.3 @ 2026-04-08T00:10:10.710424+00:00
  0
ENDSEC
  0
EOF
