  0
SECTION
  2
HEADER
  9
$ACADVER
  1
AC1024
  9
$ACADMAINTVER
 70
6
  9
$DWGCODEPAGE
  3
ANSI_1252
  9
$LASTSAVEDBY
  1
ezdxf
  9
$INSBASE
 10
0.0
 20
0.0
 30
0.0
  9
$EXTMIN
 10
1e+20
 20
1e+20
 30
1e+20
  9
$EXTMAX
 10
-1e+20
 20
-1e+20
 30
-1e+20
  9
$LIMMIN
 10
0.0
 20
0.0
  9
$LIMMAX
 10
420.0
 20
297.0
  9
$ORTHOMODE
 70
0
  9
$REGENMODE
 70
1
  9
$FILLMODE
 70
1
  9
$QTEXTMODE
 70
0
  9
$MIRRTEXT
 70
1
  9
$LTSCALE
 40
1.0
  9
$ATTMODE
 70
1
  9
$TEXTSIZE
 40
2.5
  9
$TRACEWID
 40
1.0
  9
$TEXTSTYLE
  7
Standard
  9
$CLAYER
  8
0
  9
$CELTYPE
  6
ByLayer
  9
$CECOLOR
 62
256
  9
$CELTSCALE
 40
1.0
  9
$DISPSILH
 70
0
  9
$DIMSCALE
 40
1.0
  9
$DIMASZ
 40
2.5
  9
$DIMEXO
 40
0.625
  9
$DIMDLI
 40
3.75
  9
$DIMRND
 40
0.0
  9
$DIMDLE
 40
0.0
  9
$DIMEXE
 40
1.25
  9
$DIMTP
 40
0.0
  9
$DIMTM
 40
0.0
  9
$DIMTXT
 40
2.5
  9
$DIMCEN
 40
2.5
  9
$DIMTSZ
 40
0.0
  9
$DIMTOL
 70
0
  9
$DIMLIM
 70
0
  9
$DIMTIH
 70
0
  9
$DIMTOH
 70
0
  9
$DIMSE1
 70
0
  9
$DIMSE2
 70
0
  9
$DIMTAD
 70
1
  9
$DIMZIN
 70
8
  9
$DIMBLK
  1

  9
$DIMASO
 70
1
  9
$DIMSHO
 70
1
  9
$DIMPOST
  1

  9
$DIMAPOST
  1

  9
$DIMALT
 70
0
  9
$DIMALTD
 70
3
  9
$DIMALTF
 40
0.03937007874
  9
$DIMLFAC
 40
1.0
  9
$DIMTOFL
 70
1
  9
$DIMTVP
 40
0.0
  9
$DIMTIX
 70
0
  9
$DIMSOXD
 70
0
  9
$DIMSAH
 70
0
  9
$DIMBLK1
  1

  9
$DIMBLK2
  1

  9
$DIMSTYLE
  2
ISO-25
  9
$DIMCLRD
 70
0
  9
$DIMCLRE
 70
0
  9
$DIMCLRT
 70
0
  9
$DIMTFAC
 40
1.0
  9
$DIMGAP
 40
0.625
  9
$DIMJUST
 70
0
  9
$DIMSD1
 70
0
  9
$DIMSD2
 70
0
  9
$DIMTOLJ
 70
0
  9
$DIMTZIN
 70
8
  9
$DIMALTZ
 70
0
  9
$DIMALTTZ
 70
0
  9
$DIMUPT
 70
0
  9
$DIMDEC
 70
2
  9
$DIMTDEC
 70
2
  9
$DIMALTU
 70
2
  9
$DIMALTTD
 70
3
  9
$DIMTXSTY
  7
Standard
  9
$DIMAUNIT
 70
0
  9
$DIMADEC
 70
0
  9
$DIMALTRND
 40
0.0
  9
$DIMAZIN
 70
0
  9
$DIMDSEP
 70
44
  9
$DIMATFIT
 70
3
  9
$DIMFRAC
 70
0
  9
$DIMLDRBLK
  1

  9
$DIMLUNIT
 70
2
  9
$DIMLWD
 70
-2
  9
$DIMLWE
 70
-2
  9
$DIMTMOVE
 70
0
  9
$DIMFXL
 40
1.0
  9
$DIMFXLON
 70
0
  9
$DIMJOGANG
 40
0.785398163397
  9
$DIMTFILL
 70
0
  9
$DIMTFILLCLR
 70
0
  9
$DIMARCSYM
 70
0
  9
$DIMLTYPE
  6

  9
$DIMLTEX1
  6

  9
$DIMLTEX2
  6

  9
$DIMTXTDIRECTION
 70
0
  9
$LUNITS
 70
2
  9
$LUPREC
 70
4
  9
$SKETCHINC
 40
1.0
  9
$FILLETRAD
 40
10.0
  9
$AUNITS
 70
0
  9
$AUPREC
 70
2
  9
$MENU
  1
.
  9
$ELEVATION
 40
0.0
  9
$PELEVATION
 40
0.0
  9
$THICKNESS
 40
0.0
  9
$LIMCHECK
 70
0
  9
$CHAMFERA
 40
0.0
  9
$CHAMFERB
 40
0.0
  9
$CHAMFERC
 40
0.0
  9
$CHAMFERD
 40
0.0
  9
$SKPOLY
 70
0
  9
$TDCREATE
 40
2461140.6092476854
  9
$TDUCREATE
 40
2458532.153996898
  9
$TDUPDATE
 40
2461140.6092476854
  9
$TDUUPDATE
 40
2458532.1544311
  9
$TDINDWG
 40
0.0
  9
$TDUSRTIMER
 40
0.0
  9
$USRTIMER
 70
1
  9
$ANGBASE
 50
0.0
  9
$ANGDIR
 70
0
  9
$PDMODE
 70
0
  9
$PDSIZE
 40
0.0
  9
$PLINEWID
 40
0.0
  9
$SPLFRAME
 70
0
  9
$SPLINETYPE
 70
6
  9
$SPLINESEGS
 70
8
  9
$HANDSEED
  5
CE
  9
$SURFTAB1
 70
6
  9
$SURFTAB2
 70
6
  9
$SURFTYPE
 70
6
  9
$SURFU
 70
6
  9
$SURFV
 70
6
  9
$UCSBASE
  2

  9
$UCSNAME
  2

  9
$UCSORG
 10
0.0
 20
0.0
 30
0.0
  9
$UCSXDIR
 10
1.0
 20
0.0
 30
0.0
  9
$UCSYDIR
 10
0.0
 20
1.0
 30
0.0
  9
$UCSORTHOREF
  2

  9
$UCSORTHOVIEW
 70
0
  9
$UCSORGTOP
 10
0.0
 20
0.0
 30
0.0
  9
$UCSORGBOTTOM
 10
0.0
 20
0.0
 30
0.0
  9
$UCSORGLEFT
 10
0.0
 20
0.0
 30
0.0
  9
$UCSORGRIGHT
 10
0.0
 20
0.0
 30
0.0
  9
$UCSORGFRONT
 10
0.0
 20
0.0
 30
0.0
  9
$UCSORGBACK
 10
0.0
 20
0.0
 30
0.0
  9
$PUCSBASE
  2

  9
$PUCSNAME
  2

  9
$PUCSORG
 10
0.0
 20
0.0
 30
0.0
  9
$PUCSXDIR
 10
1.0
 20
0.0
 30
0.0
  9
$PUCSYDIR
 10
0.0
 20
1.0
 30
0.0
  9
$PUCSORTHOREF
  2

  9
$PUCSORTHOVIEW
 70
0
  9
$PUCSORGTOP
 10
0.0
 20
0.0
 30
0.0
  9
$PUCSORGBOTTOM
 10
0.0
 20
0.0
 30
0.0
  9
$PUCSORGLEFT
 10
0.0
 20
0.0
 30
0.0
  9
$PUCSORGRIGHT
 10
0.0
 20
0.0
 30
0.0
  9
$PUCSORGFRONT
 10
0.0
 20
0.0
 30
0.0
  9
$PUCSORGBACK
 10
0.0
 20
0.0
 30
0.0
  9
$USERI1
 70
0
  9
$USERI2
 70
0
  9
$USERI3
 70
0
  9
$USERI4
 70
0
  9
$USERI5
 70
0
  9
$USERR1
 40
0.0
  9
$USERR2
 40
0.0
  9
$USERR3
 40
0.0
  9
$USERR4
 40
0.0
  9
$USERR5
 40
0.0
  9
$WORLDVIEW
 70
1
  9
$SHADEDGE
 70
3
  9
$SHADEDIF
 70
70
  9
$TILEMODE
 70
1
  9
$MAXACTVP
 70
64
  9
$PINSBASE
 10
0.0
 20
0.0
 30
0.0
  9
$PLIMCHECK
 70
0
  9
$PEXTMIN
 10
1e+20
 20
1e+20
 30
1e+20
  9
$PEXTMAX
 10
-1e+20
 20
-1e+20
 30
-1e+20
  9
$PLIMMIN
 10
0.0
 20
0.0
  9
$PLIMMAX
 10
420.0
 20
297.0
  9
$UNITMODE
 70
0
  9
$VISRETAIN
 70
1
  9
$PLINEGEN
 70
0
  9
$PSLTSCALE
 70
1
  9
$TREEDEPTH
 70
3020
  9
$CMLSTYLE
  2
Standard
  9
$CMLJUST
 70
0
  9
$CMLSCALE
 40
20.0
  9
$PROXYGRAPHICS
 70
1
  9
$MEASUREMENT
 70
1
  9
$CELWEIGHT
370
-1
  9
$ENDCAPS
280
0
  9
$JOINSTYLE
280
0
  9
$LWDISPLAY
290
0
  9
$INSUNITS
 70
4
  9
$HYPERLINKBASE
  1

  9
$STYLESHEET
  1

  9
$XEDIT
290
1
  9
$CEPSNTYPE
380
0
  9
$PSTYLEMODE
290
1
  9
$FINGERPRINTGUID
  2
{A718A00F-E397-4BE2-8D7E-0291484B9CE1}
  9
$VERSIONGUID
  2
{D3E5C2D7-C207-46CA-9BCE-5A5E9D2E5FAC}
  9
$EXTNAMES
290
1
  9
$PSVPSCALE
 40
0.0
  9
$OLESTARTUP
290
0
  9
$SORTENTS
280
127
  9
$INDEXCTL
280
0
  9
$HIDETEXT
280
1
  9
$XCLIPFRAME
280
1
  9
$HALOGAP
280
0
  9
$OBSCOLOR
 70
257
  9
$OBSLTYPE
280
0
  9
$INTERSECTIONDISPLAY
280
0
  9
$INTERSECTIONCOLOR
 70
257
  9
$DIMASSOC
280
2
  9
$PROJECTNAME
  1

  9
$CAMERADISPLAY
290
0
  9
$LENSLENGTH
 40
50.0
  9
$CAMERAHEIGHT
 40
0.0
  9
$STEPSPERSEC
 40
24.0
  9
$STEPSIZE
 40
100.0
  9
$3DDWFPREC
 40
2.0
  9
$PSOLWIDTH
 40
0.005
  9
$PSOLHEIGHT
 40
0.08
  9
$LOFTANG1
 40
1.570796326795
  9
$LOFTANG2
 40
1.570796326795
  9
$LOFTMAG1
 40
0.0
  9
$LOFTMAG2
 40
0.0
  9
$LOFTPARAM
 70
7
  9
$LOFTNORMALS
280
1
  9
$LATITUDE
 40
37.795
  9
$LONGITUDE
 40
-122.394
  9
$NORTHDIRECTION
 40
0.0
  9
$TIMEZONE
 70
-8000
  9
$LIGHTGLYPHDISPLAY
280
1
  9
$TILEMODELIGHTSYNCH
280
1
  9
$CMATERIAL
347
20
  9
$SOLIDHIST
280
0
  9
$SHOWHIST
280
1
  9
$DWFFRAME
280
2
  9
$DGNFRAME
280
2
  9
$REALWORLDSCALE
290
1
  9
$INTERFERECOLOR
 62
256
  9
$CSHADOW
280
0
  9
$SHADOWPLANELOCATION
 40
0.0
  0
ENDSEC
  0
SECTION
  2
CLASSES
  0
CLASS
  1
ACDBDICTIONARYWDFLT
  2
AcDbDictionaryWithDefault
  3
ObjectDBX Classes
 90
0
 91
0
280
0
281
0
  0
CLASS
  1
SUN
  2
AcDbSun
  3
SCENEOE
 90
1153
 91
0
280
0
281
0
  0
CLASS
  1
VISUALSTYLE
  2
AcDbVisualStyle
  3
ObjectDBX Classes
 90
4095
 91
0
280
0
281
0
  0
CLASS
  1
MATERIAL
  2
AcDbMaterial
  3
ObjectDBX Classes
 90
1153
 91
0
280
0
281
0
  0
CLASS
  1
SCALE
  2
AcDbScale
  3
ObjectDBX Classes
 90
1153
 91
0
280
0
281
0
  0
CLASS
  1
TABLESTYLE
  2
AcDbTableStyle
  3
ObjectDBX Classes
 90
4095
 91
0
280
0
281
0
  0
CLASS
  1
MLEADERSTYLE
  2
AcDbMLeaderStyle
  3
ACDB_MLEADERSTYLE_CLASS
 90
4095
 91
0
280
0
281
0
  0
CLASS
  1
DICTIONARYVAR
  2
AcDbDictionaryVar
  3
ObjectDBX Classes
 90
0
 91
0
280
0
281
0
  0
CLASS
  1
CELLSTYLEMAP
  2
AcDbCellStyleMap
  3
ObjectDBX Classes
 90
1152
 91
0
280
0
281
0
  0
CLASS
  1
MENTALRAYRENDERSETTINGS
  2
AcDbMentalRayRenderSettings
  3
SCENEOE
 90
1024
 91
0
280
0
281
0
  0
CLASS
  1
ACDBDETAILVIEWSTYLE
  2
AcDbDetailViewStyle
  3
ObjectDBX Classes
 90
1025
 91
0
280
0
281
0
  0
CLASS
  1
ACDBSECTIONVIEWSTYLE
  2
AcDbSectionViewStyle
  3
ObjectDBX Classes
 90
1025
 91
0
280
0
281
0
  0
CLASS
  1
RASTERVARIABLES
  2
AcDbRasterVariables
  3
ISM
 90
0
 91
0
280
0
281
0
  0
CLASS
  1
LAYOUT
  2
AcDbLayout
  3
ObjectDBX Classes
 90
0
 91
0
280
0
281
0
  0
CLASS
  1
ACDBPLACEHOLDER
  2
AcDbPlaceHolder
  3
ObjectDBX Classes
 90
0
 91
0
280
0
281
0
  0
ENDSEC
  0
SECTION
  2
TABLES
  0
TABLE
  2
VPORT
  5
8
330
0
100
AcDbSymbolTable
 70
1
  0
VPORT
  5
23
330
8
100
AcDbSymbolTableRecord
100
AcDbViewportTableRecord
  2
*Active
 70
0
 10
0.0
 20
0.0
 11
1.0
 21
1.0
 12
0.0
 22
0.0
 13
0.0
 23
0.0
 14
0.5
 24
0.5
 15
0.5
 25
0.5
 16
0.0
 26
0.0
 36
1.0
 17
0.0
 27
0.0
 37
0.0
 40
1000.0
 41
1.34
 42
50.0
 43
0.0
 44
0.0
 50
0.0
 51
0.0
 71
0
 72
1000
 73
1
 74
3
 75
0
 76
0
 77
0
 78
0
281
0
 65
0
146
0.0
  0
ENDTAB
  0
TABLE
  2
LTYPE
  5
2
330
0
100
AcDbSymbolTable
 70
3
  0
LTYPE
  5
24
330
2
100
AcDbSymbolTableRecord
100
AcDbLinetypeTableRecord
  2
ByBlock
 70
0
  3

 72
65
 73
0
 40
0.0
  0
LTYPE
  5
25
330
2
100
AcDbSymbolTableRecord
100
AcDbLinetypeTableRecord
  2
ByLayer
 70
0
  3

 72
65
 73
0
 40
0.0
  0
LTYPE
  5
26
330
2
100
AcDbSymbolTableRecord
100
AcDbLinetypeTableRecord
  2
Continuous
 70
0
  3

 72
65
 73
0
 40
0.0
  0
ENDTAB
  0
TABLE
  2
LAYER
  5
1
330
0
100
AcDbSymbolTable
 70
2
  0
LAYER
  5
27
330
1
100
AcDbSymbolTableRecord
100
AcDbLayerTableRecord
  2
0
 70
0
 62
7
  6
Continuous
370
-3
390
13
347
21
  0
LAYER
  5
28
330
1
100
AcDbSymbolTableRecord
100
AcDbLayerTableRecord
  2
Defpoints
 70
0
 62
7
  6
Continuous
290
0
370
-3
390
13
347
21
  0
ENDTAB
  0
TABLE
  2
STYLE
  5
5
330
0
100
AcDbSymbolTable
 70
1
  0
STYLE
  5
29
330
5
100
AcDbSymbolTableRecord
100
AcDbTextStyleTableRecord
  2
Standard
 70
0
 40
0.0
 41
1.0
 50
0.0
 71
0
 42
2.5
  3
txt
  4

  0
ENDTAB
  0
TABLE
  2
VIEW
  5
7
330
0
100
AcDbSymbolTable
 70
0
  0
ENDTAB
  0
TABLE
  2
UCS
  5
6
330
0
100
AcDbSymbolTable
 70
0
  0
ENDTAB
  0
TABLE
  2
APPID
  5
3
330
0
100
AcDbSymbolTable
 70
3
  0
APPID
  5
2A
330
3
100
AcDbSymbolTableRecord
100
AcDbRegAppTableRecord
  2
ACAD
 70
0
  0
APPID
  5
CB
330
3
100
AcDbSymbolTableRecord
100
AcDbRegAppTableRecord
  2
HATCHBACKGROUNDCOLOR
 70
0
  0
APPID
  5
CC
330
3
100
AcDbSymbolTableRecord
100
AcDbRegAppTableRecord
  2
EZDXF
 70
0
  0
ENDTAB
  0
TABLE
  2
DIMSTYLE
  5
4
330
0
100
AcDbSymbolTable
 70
1
100
AcDbDimStyleTable
  0
DIMSTYLE
105
2B
330
4
100
AcDbSymbolTableRecord
100
AcDbDimStyleTableRecord
  2
Standard
 70
0
 40
1.0
 41
2.5
 42
0.625
 43
3.75
 44
1.25
 45
0.0
 46
0.0
 47
0.0
 48
0.0
 49
2.5
140
2.5
141
2.5
142
0.0
143
0.03937007874
144
1.0
145
0.0
146
1.0
147
0.625
148
0.0
 69
0
 70
0
 71
0
 72
0
 73
0
 74
0
 75
0
 76
0
 77
1
 78
8
 79
3
170
0
171
3
172
1
173
0
174
0
175
0
176
0
177
0
178
0
179
2
271
2
272
2
273
2
274
3
275
0
276
0
277
2
278
44
279
0
280
0
281
0
282
0
283
0
284
8
285
0
286
0
288
0
289
3
290
0
371
-2
372
-2
  0
ENDTAB
  0
TABLE
  2
BLOCK_RECORD
  5
9
330
0
100
AcDbSymbolTable
 70
3
  0
BLOCK_RECORD
  5
17
330
9
100
AcDbSymbolTableRecord
100
AcDbBlockTableRecord
  2
*Model_Space
340
1A
 70
0
280
1
281
0
  0
BLOCK_RECORD
  5
1B
330
9
100
AcDbSymbolTableRecord
100
AcDbBlockTableRecord
  2
*Paper_Space
340
1E
 70
0
280
1
281
0
  0
BLOCK_RECORD
  5
2F
330
9
100
AcDbSymbolTableRecord
100
AcDbBlockTableRecord
  2
HEX
340
0
 70
0
280
1
281
0
  0
ENDTAB
  0
ENDSEC
  0
SECTION
  2
BLOCKS
  0
BLOCK
  5
18
330
17
100
AcDbEntity
  8
0
100
AcDbBlockBegin
  2
*Model_Space
 70
0
 10
0.0
 20
0.0
 30
0.0
  3
*Model_Space
  1

  0
ENDBLK
  5
19
330
17
100
AcDbEntity
  8
0
100
AcDbBlockEnd
  0
BLOCK
  5
1C
330
1B
100
AcDbEntity
  8
0
100
AcDbBlockBegin
  2
*Paper_Space
 70
0
 10
0.0
 20
0.0
 30
0.0
  3
*Paper_Space
  1

  0
ENDBLK
  5
1D
330
1B
100
AcDbEntity
  8
0
100
AcDbBlockEnd
  0
BLOCK
  5
30
330
2F
100
AcDbEntity
  8
0
100
AcDbBlockBegin
  2
HEX
 70
0
 10
0.0
 20
0.0
 30
0.0
  3
HEX
  1

  0
LWPOLYLINE
  5
32
330
2F
100
AcDbEntity
  8
0
100
AcDbPolyline
 90
6
 70
1
 10
1.516
 20
0.875
 10
0.0
 20
1.75
 10
-1.516
 20
0.875
 10
-1.516
 20
-0.875
 10
-0.0
 20
-1.75
 10
1.516
 20
-0.875
  0
ENDBLK
  5
31
330
2F
100
AcDbEntity
  8
0
100
AcDbBlockEnd
  0
ENDSEC
  0
SECTION
  2
ENTITIES
  0
LWPOLYLINE
  5
33
330
17
100
AcDbEntity
  8
0
100
AcDbPolyline
 90
14
 70
1
 10
127.016
 20
-147.503
 10
126.744
 20
-147.633
 10
126.459
 20
-147.738
 10
126.161
 20
-147.815
 10
125.852
 20
-147.862
 10
125.534
 20
-147.878
 10
125.217
 20
-147.862
 10
124.908
 20
-147.815
 10
124.61
 20
-147.738
 10
124.22
 20
-147.583
 10
124.22
 20
-147.445
 10
125.735
 20
-146.57
 10
127.179
 20
-147.404
 10
127.016
 20
-147.503
  0
LWPOLYLINE
  5
34
330
17
100
AcDbEntity
  8
0
100
AcDbPolyline
 90
11
 70
1
 10
122.881
 20
-146.384
 10
122.67
 20
-145.979
 10
122.565
 20
-145.693
 10
122.489
 20
-145.395
 10
122.454
 20
-145.168
 10
122.454
 20
-144.387
 10
123.97
 20
-143.512
 10
125.485
 20
-144.387
 10
125.485
 20
-146.137
 10
123.97
 20
-147.012
 10
122.881
 20
-146.384
  0
LWPOLYLINE
  5
35
330
17
100
AcDbEntity
  8
0
100
AcDbPolyline
 90
16
 70
1
 10
128.399
 20
-145.979
 10
128.268
 20
-146.251
 10
128.112
 20
-146.507
 10
127.933
 20
-146.746
 10
127.903
 20
-146.779
 10
127.501
 20
-147.012
 10
125.985
 20
-146.137
 10
125.985
 20
-144.387
 10
127.501
 20
-143.512
 10
128.578
 20
-144.134
 10
128.627
 20
-144.451
 10
128.643
 20
-144.769
 10
128.627
 20
-145.087
 10
128.58
 20
-145.395
 10
128.503
 20
-145.693
 10
128.399
 20
-145.979
  0
LWPOLYLINE
  5
36
330
17
100
AcDbEntity
  8
0
100
AcDbPolyline
 90
10
 70
1
 10
122.67
 20
-143.559
 10
122.801
 20
-143.287
 10
122.957
 20
-143.031
 10
123.136
 20
-142.792
 10
123.336
 20
-142.571
 10
123.557
 20
-142.37
 10
123.72
 20
-142.249
 10
123.72
 20
-143.079
 10
122.612
 20
-143.718
 10
122.67
 20
-143.559
  0
LWPOLYLINE
  5
37
330
17
100
AcDbEntity
  8
0
100
AcDbPolyline
 90
15
 70
1
 10
124.22
 20
-141.955
 10
124.61
 20
-141.8
 10
124.908
 20
-141.723
 10
125.217
 20
-141.676
 10
125.534
 20
-141.66
 10
125.852
 20
-141.676
 10
126.161
 20
-141.723
 10
126.459
 20
-141.8
 10
126.744
 20
-141.905
 10
127.016
 20
-142.036
 10
127.251
 20
-142.178
 10
127.251
 20
-143.079
 10
125.735
 20
-143.954
 10
124.22
 20
-143.079
 10
124.22
 20
-141.955
  0
LWPOLYLINE
  5
38
330
17
100
AcDbEntity
  8
0
100
AcDbPolyline
 90
6
 70
1
 10
127.933
 20
-142.792
 10
128.112
 20
-143.031
 10
128.328
 20
-143.412
 10
127.751
 20
-143.079
 10
127.751
 20
-142.591
 10
127.933
 20
-142.792
  0
LWPOLYLINE
  5
39
330
17
100
AcDbEntity
  8
0
100
AcDbPolyline
 90
5
 70
1
 10
98.345
 20
-116.486
 10
99.002
 20
-116.865
 10
99.002
 20
-117.386
 10
98.791
 20
-117.051
 10
98.345
 20
-116.486
  0
LWPOLYLINE
  5
3A
330
17
100
AcDbEntity
  8
0
100
AcDbPolyline
 90
7
 70
1
 10
97.034
 20
-114.824
 10
95.724
 20
-113.502
 10
95.316
 20
-113.166
 10
95.721
 20
-112.932
 10
97.236
 20
-113.807
 10
97.236
 20
-115.08
 10
97.034
 20
-114.824
  0
LWPOLYLINE
  5
3B
330
17
100
AcDbEntity
  8
0
100
AcDbPolyline
 90
5
 70
1
 10
98.836
 20
-116.191
 10
97.736
 20
-115.557
 10
97.736
 20
-113.807
 10
98.057
 20
-113.622
 10
98.836
 20
-116.191
  0
LWPOLYLINE
  5
3C
330
17
100
AcDbEntity
  8
0
100
AcDbPolyline
 90
5
 70
1
 10
77.392
 20
-110.809
 10
77.694
 20
-110.678
 10
77.815
 20
-110.749
 10
77.815
 20
-110.814
 10
77.392
 20
-110.809
  0
LWPOLYLINE
  5
3D
330
17
100
AcDbEntity
  8
0
100
AcDbPolyline
 90
6
 70
1
 10
78.315
 20
-110.82
 10
78.315
 20
-110.749
 10
79.831
 20
-109.874
 10
81.346
 20
-110.749
 10
81.346
 20
-110.854
 10
78.315
 20
-110.82
  0
LWPOLYLINE
  5
3E
330
17
100
AcDbEntity
  8
0
100
AcDbPolyline
 90
6
 70
1
 10
81.846
 20
-110.86
 10
81.846
 20
-110.749
 10
83.362
 20
-109.874
 10
84.878
 20
-110.749
 10
84.878
 20
-110.894
 10
81.846
 20
-110.86
  0
LWPOLYLINE
  5
3F
330
17
100
AcDbEntity
  8
0
100
AcDbPolyline
 90
8
 70
1
 10
91.208
 20
-110.475
 10
90.132
 20
-110.042
 10
90.152
 20
-110.031
 10
90.377
 20
-110.044
 10
90.697
 20
-110.031
 10
91.94
 20
-110.749
 10
91.94
 20
-110.839
 10
91.208
 20
-110.475
  0
LWPOLYLINE
  5
40
330
17
100
AcDbEntity
  8
0
100
AcDbPolyline
 90
8
 70
1
 10
94.129
 20
-112.189
 10
92.44
 20
-111.113
 10
92.44
 20
-110.749
 10
93.955
 20
-109.874
 10
95.471
 20
-110.749
 10
95.471
 20
-112.499
 10
94.903
 20
-112.826
 10
94.129
 20
-112.189
  0
LWPOLYLINE
  5
41
330
17
100
AcDbEntity
  8
0
100
AcDbPolyline
 90
6
 70
1
 10
97.908
 20
-113.13
 10
97.486
 20
-113.374
 10
95.971
 20
-112.499
 10
95.971
 20
-110.749
 10
97.005
 20
-110.152
 10
97.908
 20
-113.13
  0
LWPOLYLINE
  5
42
330
17
100
AcDbEntity
  8
0
100
AcDbPolyline
 90
10
 70
1
 10
81.636
 20
-108.11
 10
82.079
 20
-107.644
 10
82.382
 20
-107.269
 10
83.112
 20
-107.691
 10
83.112
 20
-109.441
 10
81.596
 20
-110.316
 10
80.081
 20
-109.441
 10
80.081
 20
-109.356
 10
80.687
 20
-108.932
 10
81.636
 20
-108.11
  0
LWPOLYLINE
  5
43
330
17
100
AcDbEntity
  8
0
100
AcDbPolyline
 90
6
 70
1
 10
83.681
 20
-109.07
 10
83.905
 20
-109.473
 10
84.066
 20
-109.703
 10
83.612
 20
-109.441
 10
83.612
 20
-108.911
 10
83.681
 20
-109.07
  0
LWPOLYLINE
  5
44
330
17
100
AcDbEntity
  8
0
100
AcDbPolyline
 90
12
 70
1
 10
91.774
 20
-109.849
 10
92.152
 20
-109.705
 10
92.5
 20
-109.525
 10
92.818
 20
-109.314
 10
93.106
 20
-109.074
 10
93.363
 20
-108.808
 10
93.591
 20
-108.518
 10
93.705
 20
-108.338
 10
93.705
 20
-109.441
 10
92.19
 20
-110.316
 10
91.504
 20
-109.92
 10
91.774
 20
-109.849
  0
LWPOLYLINE
  5
45
330
17
100
AcDbEntity
  8
0
100
AcDbPolyline
 90
7
 70
1
 10
96.856
 20
-109.66
 10
95.721
 20
-110.316
 10
94.205
 20
-109.441
 10
94.205
 20
-107.691
 10
95.721
 20
-106.816
 10
96.051
 20
-107.006
 10
96.856
 20
-109.66
  0
LWPOLYLINE
  5
46
330
17
100
AcDbEntity
  8
0
100
AcDbPolyline
 90
6
 70
1
 10
82.849
 20
-106.601
 10
83.156
 20
-106.024
 10
83.129
 20
-106.564
 10
83.157
 20
-107.139
 10
82.675
 20
-106.861
 10
82.849
 20
-106.601
  0
LWPOLYLINE
  5
47
330
17
100
AcDbEntity
  8
0
100
AcDbPolyline
 90
15
 70
1
 10
94.275
 20
-106.824
 10
94.321
 20
-106.456
 10
94.337
 20
-106.086
 10
94.323
 20
-105.715
 10
94.278
 20
-105.348
 10
94.203
 20
-104.986
 10
94.098
 20
-104.632
 10
93.962
 20
-104.291
 10
93.743
 20
-103.88
 10
93.955
 20
-103.758
 10
95.301
 20
-104.535
 10
95.471
 20
-105.094
 10
95.471
 20
-106.383
 10
94.215
 20
-107.107
 10
94.275
 20
-106.824
  0
LWPOLYLINE
  5
48
330
17
100
AcDbEntity
  8
0
100
AcDbPolyline
 90
14
 70
1
 10
90.174
 20
-102.14
 10
89.667
 20
-102.197
 10
89.301
 20
-102.281
 10
88.958
 20
-102.395
 10
88.639
 20
-102.538
 10
88.342
 20
-102.706
 10
88.069
 20
-102.899
 10
87.819
 20
-103.114
 10
87.776
 20
-102.483
 10
87.932
 20
-102.272
 10
88.316
 20
-101.663
 10
88.769
 20
-100.763
 10
90.174
 20
-101.575
 10
90.174
 20
-102.14
  0
LWPOLYLINE
  5
49
330
17
100
AcDbEntity
  8
0
100
AcDbPolyline
 90
15
 70
1
 10
93.374
 20
-103.364
 10
93.117
 20
-103.098
 10
92.83
 20
-102.858
 10
92.512
 20
-102.646
 10
92.164
 20
-102.467
 10
91.786
 20
-102.323
 10
91.377
 20
-102.216
 10
90.938
 20
-102.15
 10
90.674
 20
-102.137
 10
90.674
 20
-101.575
 10
92.19
 20
-100.7
 10
93.705
 20
-101.575
 10
93.705
 20
-103.325
 10
93.456
 20
-103.469
 10
93.374
 20
-103.364
  0
LWPOLYLINE
  5
4A
330
17
100
AcDbEntity
  8
0
100
AcDbPolyline
 90
5
 70
1
 10
95.089
 20
-103.835
 10
94.205
 20
-103.325
 10
94.205
 20
-101.575
 10
94.374
 20
-101.477
 10
95.089
 20
-103.835
  0
LWPOLYLINE
  5
4B
330
17
100
AcDbEntity
  8
0
100
AcDbPolyline
 90
9
 70
1
 10
89.261
 20
-99.422
 10
89.442
 20
-98.678
 10
89.523
 20
-98.162
 10
90.424
 20
-97.642
 10
91.94
 20
-98.517
 10
91.94
 20
-100.267
 10
90.424
 20
-101.142
 10
88.949
 20
-100.29
 10
89.261
 20
-99.422
  0
LWPOLYLINE
  5
4C
330
17
100
AcDbEntity
  8
0
100
AcDbPolyline
 90
6
 70
1
 10
94.225
 20
-100.986
 10
93.955
 20
-101.142
 10
92.44
 20
-100.267
 10
92.44
 20
-98.517
 10
93.322
 20
-98.007
 10
94.225
 20
-100.986
  0
LWPOLYLINE
  5
4D
330
17
100
AcDbEntity
  8
0
100
AcDbPolyline
 90
6
 70
1
 10
54.732
 20
-96.647
 10
54.661
 20
-95.953
 10
54.517
 20
-95.259
 10
54.863
 20
-95.459
 10
54.863
 20
-96.397
 10
54.732
 20
-96.647
  0
LWPOLYLINE
  5
4E
330
17
100
AcDbEntity
  8
0
100
AcDbPolyline
 90
7
 70
1
 10
89.626
 20
-97.006
 10
89.598
 20
-96.088
 10
89.449
 20
-95.04
 10
90.174
 20
-95.459
 10
90.174
 20
-97.209
 10
89.591
 20
-97.545
 10
89.626
 20
-97.006
  0
LWPOLYLINE
  5
4F
330
17
100
AcDbEntity
  8
0
100
AcDbPolyline
 90
7
 70
1
 10
93.173
 20
-97.516
 10
92.19
 20
-98.084
 10
90.674
 20
-97.209
 10
90.674
 20
-95.459
 10
92.19
 20
-94.584
 10
92.304
 20
-94.649
 10
93.173
 20
-97.516
  0
LWPOLYLINE
  5
50
330
17
100
AcDbEntity
  8
0
100
AcDbPolyline
 90
15
 70
1
 10
107.83
 20
-95.495
 10
107.465
 20
-95.682
 10
107.18
 20
-95.787
 10
106.882
 20
-95.864
 10
106.573
 20
-95.911
 10
106.256
 20
-95.927
 10
105.938
 20
-95.911
 10
105.629
 20
-95.864
 10
105.331
 20
-95.787
 10
105.046
 20
-95.682
 10
104.799
 20
-95.563
 10
104.799
 20
-95.459
 10
106.314
 20
-94.584
 10
107.83
 20
-95.459
 10
107.83
 20
-95.495
  0
LWPOLYLINE
  5
51
330
17
100
AcDbEntity
  8
0
100
AcDbPolyline
 90
5
 70
1
 10
127.654
 20
-94.672
 10
127.386
 20
-94.72
 10
127.252
 20
-94.727
 10
127.501
 20
-94.584
 10
127.654
 20
-94.672
  0
LWPOLYLINE
  5
52
330
17
100
AcDbEntity
  8
0
100
AcDbPolyline
 90
10
 70
1
 10
56.013
 20
-94.506
 10
55.113
 20
-95.026
 10
54.297
 20
-94.554
 10
54.096
 20
-94.042
 10
53.598
 20
-93.083
 10
53.598
 20
-92.401
 10
55.113
 20
-91.526
 10
56.629
 20
-92.401
 10
56.629
 20
-93.571
 10
56.013
 20
-94.506
  0
LWPOLYLINE
  5
53
330
17
100
AcDbEntity
  8
0
100
AcDbPolyline
 90
5
 70
1
 10
58.337
 20
-91.703
 10
57.679
 20
-92.327
 10
57.129
 20
-92.97
 10
57.129
 20
-92.401
 10
58.337
 20
-91.703
  0
LWPOLYLINE
  5
54
330
17
100
AcDbEntity
  8
0
100
AcDbPolyline
 90
10
 70
1
 10
89.222
 20
-94.114
 10
88.909
 20
-93.251
 10
88.909
 20
-92.401
 10
90.424
 20
-91.526
 10
91.555
 20
-92.178
 10
91.94
 20
-93.449
 10
91.94
 20
-94.151
 10
90.424
 20
-95.026
 10
89.284
 20
-94.367
 10
89.222
 20
-94.114
  0
LWPOLYLINE
  5
55
330
17
100
AcDbEntity
  8
0
100
AcDbPolyline
 90
14
 70
1
 10
103.522
 20
-94.3
 10
103.391
 20
-94.028
 10
103.287
 20
-93.742
 10
103.21
 20
-93.444
 10
103.163
 20
-93.136
 10
103.147
 20
-92.818
 10
103.163
 20
-92.5
 10
103.192
 20
-92.309
 10
104.549
 20
-91.526
 10
106.064
 20
-92.401
 10
106.064
 20
-94.151
 10
104.549
 20
-95.026
 10
103.647
 20
-94.505
 10
103.522
 20
-94.3
  0
LWPOLYLINE
  5
56
330
17
100
AcDbEntity
  8
0
100
AcDbPolyline
 90
14
 70
1
 10
109.12
 20
-94.028
 10
108.989
 20
-94.3
 10
108.788
 20
-94.617
 10
108.08
 20
-95.026
 10
106.564
 20
-94.151
 10
106.564
 20
-92.401
 10
108.08
 20
-91.526
 10
109.308
 20
-92.234
 10
109.348
 20
-92.5
 10
109.364
 20
-92.818
 10
109.348
 20
-93.136
 10
109.301
 20
-93.444
 10
109.224
 20
-93.742
 10
109.12
 20
-94.028
  0
LWPOLYLINE
  5
57
330
17
100
AcDbEntity
  8
0
100
AcDbPolyline
 90
5
 70
1
 10
123.72
 20
-92.947
 10
123.323
 20
-92.424
 10
123.112
 20
-92.05
 10
123.72
 20
-92.401
 10
123.72
 20
-92.947
  0
LWPOLYLINE
  5
58
330
17
100
AcDbEntity
  8
0
100
AcDbPolyline
 90
9
 70
1
 10
125.442
 20
-94.126
 10
124.758
 20
-93.76
 10
124.22
 20
-93.394
 10
124.22
 20
-92.401
 10
125.735
 20
-91.526
 10
127.251
 20
-92.401
 10
127.251
 20
-94.151
 10
126.535
 20
-94.564
 10
125.442
 20
-94.126
  0
LWPOLYLINE
  5
59
330
17
100
AcDbEntity
  8
0
100
AcDbPolyline
 90
10
 70
1
 10
129.318
 20
-92.974
 10
128.488
 20
-94.121
 10
128.402
 20
-94.221
 10
128.21
 20
-94.397
 10
128.195
 20
-94.407
 10
127.751
 20
-94.151
 10
127.751
 20
-92.401
 10
129.266
 20
-91.526
 10
130.143
 20
-92.032
 10
129.318
 20
-92.974
  0
LWPOLYLINE
  5
5A
330
17
100
AcDbEntity
  8
0
100
AcDbPolyline
 90
4
 70
1
 10
51.164
 20
-90.154
 10
51.332
 20
-90.154
 10
51.332
 20
-90.307
 10
51.164
 20
-90.154
  0
LWPOLYLINE
  5
5B
330
17
100
AcDbEntity
  8
0
100
AcDbPolyline
 90
8
 70
1
 10
52.244
 20
-91.214
 10
51.832
 20
-90.782
 10
51.832
 20
-90.154
 10
54.863
 20
-90.154
 10
54.863
 20
-91.093
 10
53.348
 20
-91.968
 10
52.425
 20
-91.435
 10
52.244
 20
-91.214
  0
LWPOLYLINE
  5
5C
330
17
100
AcDbEntity
  8
0
100
AcDbPolyline
 90
6
 70
1
 10
58.394
 20
-90.154
 10
58.394
 20
-91.093
 10
56.879
 20
-91.968
 10
55.363
 20
-91.093
 10
55.363
 20
-90.154
 10
58.394
 20
-90.154
  0
LWPOLYLINE
  5
5D
330
17
100
AcDbEntity
  8
0
100
AcDbPolyline
 90
10
 70
1
 10
60.51
 20
-90.377
 10
60.161
 20
-90.511
 10
59.488
 20
-90.854
 10
59.022
 20
-91.166
 10
58.894
 20
-91.093
 10
58.894
 20
-90.154
 10
61.597
 20
-90.154
 10
61.228
 20
-90.196
 10
60.865
 20
-90.272
 10
60.51
 20
-90.377
  0
LWPOLYLINE
  5
5E
330
17
100
AcDbEntity
  8
0
100
AcDbPolyline
 90
8
 70
1
 10
86.444
 20
-89.939
 10
85.841
 20
-89.543
 10
85.194
 20
-89.189
 10
84.434
 20
-88.868
 10
85.128
 20
-88.468
 10
86.643
 20
-89.343
 10
86.643
 20
-90.097
 10
86.444
 20
-89.939
  0
LWPOLYLINE
  5
5F
330
17
100
AcDbEntity
  8
0
100
AcDbPolyline
 90
10
 70
1
 10
87.937
 20
-91.401
 10
87.497
 20
-90.865
 10
87.143
 20
-90.52
 10
87.143
 20
-89.343
 10
88.659
 20
-88.468
 10
90.174
 20
-89.343
 10
90.174
 20
-91.093
 10
88.659
 20
-91.968
 10
88.089
 20
-91.639
 10
87.937
 20
-91.401
  0
LWPOLYLINE
  5
60
330
17
100
AcDbEntity
  8
0
100
AcDbPolyline
 90
5
 70
1
 10
91.342
 20
-91.478
 10
90.674
 20
-91.093
 10
90.674
 20
-89.343
 10
90.692
 20
-89.332
 10
91.342
 20
-91.478
  0
LWPOLYLINE
  5
61
330
17
100
AcDbEntity
  8
0
100
AcDbPolyline
 90
8
 70
1
 10
103.387
 20
-91.619
 10
103.522
 20
-91.336
 10
103.678
 20
-91.08
 10
103.857
 20
-90.841
 10
104.057
 20
-90.62
 10
104.299
 20
-90.404
 10
104.299
 20
-91.093
 10
103.387
 20
-91.619
  0
LWPOLYLINE
  5
62
330
17
100
AcDbEntity
  8
0
100
AcDbPolyline
 90
15
 70
1
 10
105.046
 20
-89.954
 10
105.331
 20
-89.849
 10
105.629
 20
-89.772
 10
105.938
 20
-89.725
 10
106.256
 20
-89.709
 10
106.573
 20
-89.725
 10
106.882
 20
-89.772
 10
107.18
 20
-89.849
 10
107.465
 20
-89.954
 10
107.83
 20
-90.141
 10
107.83
 20
-91.093
 10
106.314
 20
-91.968
 10
104.799
 20
-91.093
 10
104.799
 20
-90.072
 10
105.046
 20
-89.954
  0
LWPOLYLINE
  5
63
330
17
100
AcDbEntity
  8
0
100
AcDbPolyline
 90
8
 70
1
 10
108.453
 20
-90.62
 10
108.654
 20
-90.841
 10
108.833
 20
-91.08
 10
108.989
 20
-91.336
 10
109.08
 20
-91.526
 10
108.33
 20
-91.093
 10
108.33
 20
-90.507
 10
108.453
 20
-90.62
  0
LWPOLYLINE
  5
64
330
17
100
AcDbEntity
  8
0
100
AcDbPolyline
 90
8
 70
1
 10
122.808
 20
-91.297
 10
122.454
 20
-90.117
 10
122.454
 20
-89.343
 10
123.97
 20
-88.468
 10
125.485
 20
-89.343
 10
125.485
 20
-91.093
 10
123.97
 20
-91.968
 10
122.808
 20
-91.297
  0
INSERT
  5
65
330
17
100
AcDbEntity
  8
0
100
AcDbBlockReference
  2
HEX
 10
127.501
 20
-90.218
 30
0.0
  0
LWPOLYLINE
  5
67
330
17
100
AcDbEntity
  8
0
100
AcDbPolyline
 90
8
 70
1
 10
130.761
 20
-91.326
 10
130.479
 20
-91.648
 10
129.516
 20
-91.093
 10
129.516
 20
-89.343
 10
131.032
 20
-88.468
 10
132.547
 20
-89.343
 10
132.547
 20
-89.71
 10
130.761
 20
-91.326
  0
LWPOLYLINE
  5
68
330
17
100
AcDbEntity
  8
0
100
AcDbPolyline
 90
8
 70
1
 10
52.799
 20
-87.336
 10
52.359
 20
-86.878
 10
51.795
 20
-86.392
 10
50.938
 20
-85.782
 10
51.582
 20
-85.41
 10
53.098
 20
-86.285
 10
53.098
 20
-87.336
 10
52.799
 20
-87.336
  0
LWPOLYLINE
  5
69
330
17
100
AcDbEntity
  8
0
100
AcDbPolyline
 90
6
 70
1
 10
53.598
 20
-87.336
 10
53.598
 20
-86.285
 10
55.113
 20
-85.41
 10
56.629
 20
-86.285
 10
56.629
 20
-87.336
 10
53.598
 20
-87.336
  0
LWPOLYLINE
  5
6A
330
17
100
AcDbEntity
  8
0
100
AcDbPolyline
 90
6
 70
1
 10
57.129
 20
-87.336
 10
57.129
 20
-86.285
 10
58.644
 20
-85.41
 10
60.16
 20
-86.285
 10
60.16
 20
-87.336
 10
57.129
 20
-87.336
  0
LWPOLYLINE
  5
6B
330
17
100
AcDbEntity
  8
0
100
AcDbPolyline
 90
6
 70
1
 10
63.691
 20
-86.29
 10
63.691
 20
-87.336
 10
60.66
 20
-87.336
 10
60.66
 20
-86.285
 10
62.176
 20
-85.41
 10
63.691
 20
-86.29
  0
LWPOLYLINE
  5
6C
330
17
100
AcDbEntity
  8
0
100
AcDbPolyline
 90
7
 70
1
 10
65.747
 20
-86.226
 10
65.233
 20
-86.183
 10
64.773
 20
-86.079
 10
64.631
 20
-86.03
 10
65.707
 20
-85.41
 10
66.991
 20
-86.151
 10
65.747
 20
-86.226
  0
LWPOLYLINE
  5
6D
330
17
100
AcDbEntity
  8
0
100
AcDbPolyline
 90
4
 70
1
 10
65.068
 20
-87.336
 10
64.191
 20
-87.336
 10
64.191
 20
-86.67
 10
65.068
 20
-87.336
  0
LWPOLYLINE
  5
6E
330
17
100
AcDbEntity
  8
0
100
AcDbPolyline
 90
4
 70
1
 10
68.065
 20
-86.087
 10
69.238
 20
-85.41
 10
70.188
 20
-85.958
 10
68.065
 20
-86.087
  0
LWPOLYLINE
  5
6F
330
17
100
AcDbEntity
  8
0
100
AcDbPolyline
 90
4
 70
1
 10
72.008
 20
-85.849
 10
72.769
 20
-85.41
 10
73.385
 20
-85.766
 10
72.008
 20
-85.849
  0
LWPOLYLINE
  5
70
330
17
100
AcDbEntity
  8
0
100
AcDbPolyline
 90
6
 70
1
 10
77.396
 20
-87.336
 10
77.361
 20
-86.983
 10
77.299
 20
-86.638
 10
77.815
 20
-86.624
 10
77.815
 20
-87.393
 10
77.396
 20
-87.336
  0
LWPOLYLINE
  5
71
330
17
100
AcDbEntity
  8
0
100
AcDbPolyline
 90
6
 70
1
 10
80.666
 20
-87.786
 10
78.315
 20
-87.462
 10
78.315
 20
-86.611
 10
81.346
 20
-86.532
 10
81.346
 20
-87.934
 10
80.666
 20
-87.786
  0
LWPOLYLINE
  5
72
330
17
100
AcDbEntity
  8
0
100
AcDbPolyline
 90
7
 70
1
 10
83.856
 20
-88.624
 10
82.266
 20
-88.135
 10
81.846
 20
-88.035
 10
81.846
 20
-86.519
 10
84.878
 20
-86.44
 10
84.878
 20
-88.035
 10
83.856
 20
-88.624
  0
LWPOLYLINE
  5
73
330
17
100
AcDbEntity
  8
0
100
AcDbPolyline
 90
7
 70
1
 10
87.533
 20
-86.371
 10
88.409
 20
-86.448
 10
88.409
 20
-88.035
 10
86.893
 20
-88.91
 10
85.378
 20
-88.035
 10
85.378
 20
-86.427
 10
87.533
 20
-86.371
  0
LWPOLYLINE
  5
74
330
17
100
AcDbEntity
  8
0
100
AcDbPolyline
 90
6
 70
1
 10
89.855
 20
-86.574
 10
90.543
 20
-88.841
 10
90.424
 20
-88.91
 10
88.909
 20
-88.035
 10
88.909
 20
-86.491
 10
89.855
 20
-86.574
  0
LWPOLYLINE
  5
75
330
17
100
AcDbEntity
  8
0
100
AcDbPolyline
 90
11
 70
1
 10
121.88
 20
-88.722
 10
121.399
 20
-87.833
 10
120.823
 20
-86.973
 10
120.688
 20
-86.808
 10
120.688
 20
-86.285
 10
121.535
 20
-85.796
 10
122.438
 20
-86.029
 10
123.72
 20
-86.485
 10
123.72
 20
-88.035
 10
122.204
 20
-88.91
 10
121.88
 20
-88.722
  0
LWPOLYLINE
  5
76
330
17
100
AcDbEntity
  8
0
100
AcDbPolyline
 90
13
 70
1
 10
124.747
 20
-86.851
 10
125.791
 20
-87.345
 10
126.329
 20
-87.657
 10
126.498
 20
-87.73
 10
126.673
 20
-87.777
 10
126.852
 20
-87.797
 10
127.033
 20
-87.792
 10
127.251
 20
-87.75
 10
127.251
 20
-88.035
 10
125.735
 20
-88.91
 10
124.22
 20
-88.035
 10
124.22
 20
-86.663
 10
124.747
 20
-86.851
  0
LWPOLYLINE
  5
77
330
17
100
AcDbEntity
  8
0
100
AcDbPolyline
 90
11
 70
1
 10
127.944
 20
-87.349
 10
128.159
 20
-87.155
 10
128.598
 20
-86.664
 10
129.043
 20
-86.015
 10
129.343
 20
-85.454
 10
130.782
 20
-86.285
 10
130.782
 20
-88.035
 10
129.266
 20
-88.91
 10
127.751
 20
-88.035
 10
127.751
 20
-87.498
 10
127.944
 20
-87.349
  0
INSERT
  5
78
330
17
100
AcDbEntity
  8
0
100
AcDbBlockReference
  2
HEX
 10
132.797
 20
-87.16
 30
0.0
  0
LWPOLYLINE
  5
7A
330
17
100
AcDbEntity
  8
0
100
AcDbPolyline
 90
15
 70
1
 10
135.517
 20
-85.878
 10
135.879
 20
-86.318
 10
135.993
 20
-86.535
 10
136.03
 20
-86.649
 10
136.064
 20
-86.879
 10
136.062
 20
-86.994
 10
136.022
 20
-87.22
 10
135.935
 20
-87.432
 10
135.875
 20
-87.531
 10
135.723
 20
-87.708
 10
135.53
 20
-87.853
 10
134.972
 20
-88.127
 10
134.813
 20
-88.035
 10
134.813
 20
-86.285
 10
135.517
 20
-85.878
  0
LWPOLYLINE
  5
7B
330
17
100
AcDbEntity
  8
0
100
AcDbPolyline
 90
6
 70
1
 10
18.006
 20
-83.547
 10
18.006
 20
-82.369
 10
18.037
 20
-82.352
 10
19.552
 20
-83.227
 10
19.552
 20
-83.554
 10
18.006
 20
-83.547
  0
LWPOLYLINE
  5
7C
330
17
100
AcDbEntity
  8
0
100
AcDbPolyline
 90
6
 70
1
 10
20.052
 20
-83.556
 10
20.052
 20
-83.227
 10
21.568
 20
-82.352
 10
23.084
 20
-83.227
 10
23.084
 20
-83.567
 10
20.052
 20
-83.556
  0
LWPOLYLINE
  5
7D
330
17
100
AcDbEntity
  8
0
100
AcDbPolyline
 90
6
 70
1
 10
23.584
 20
-83.569
 10
23.584
 20
-83.227
 10
25.099
 20
-82.352
 10
26.615
 20
-83.227
 10
26.615
 20
-83.581
 10
23.584
 20
-83.569
  0
LWPOLYLINE
  5
7E
330
17
100
AcDbEntity
  8
0
100
AcDbPolyline
 90
6
 70
1
 10
27.115
 20
-83.583
 10
27.115
 20
-83.227
 10
28.63
 20
-82.352
 10
30.146
 20
-83.227
 10
30.146
 20
-83.595
 10
27.115
 20
-83.583
  0
LWPOLYLINE
  5
7F
330
17
100
AcDbEntity
  8
0
100
AcDbPolyline
 90
6
 70
1
 10
30.646
 20
-83.597
 10
30.646
 20
-83.227
 10
32.161
 20
-82.352
 10
33.677
 20
-83.227
 10
33.677
 20
-83.609
 10
30.646
 20
-83.597
  0
LWPOLYLINE
  5
80
330
17
100
AcDbEntity
  8
0
100
AcDbPolyline
 90
6
 70
1
 10
34.177
 20
-83.611
 10
34.177
 20
-83.227
 10
35.692
 20
-82.352
 10
37.208
 20
-83.227
 10
37.208
 20
-83.623
 10
34.177
 20
-83.611
  0
LWPOLYLINE
  5
81
330
17
100
AcDbEntity
  8
0
100
AcDbPolyline
 90
6
 70
1
 10
37.708
 20
-83.625
 10
37.708
 20
-83.227
 10
39.223
 20
-82.352
 10
40.739
 20
-83.227
 10
40.739
 20
-83.637
 10
37.708
 20
-83.625
  0
LWPOLYLINE
  5
82
330
17
100
AcDbEntity
  8
0
100
AcDbPolyline
 90
6
 70
1
 10
41.239
 20
-83.639
 10
41.239
 20
-83.227
 10
42.755
 20
-82.352
 10
44.27
 20
-83.227
 10
44.27
 20
-83.651
 10
41.239
 20
-83.639
  0
LWPOLYLINE
  5
83
330
17
100
AcDbEntity
  8
0
100
AcDbPolyline
 90
8
 70
1
 10
47.025
 20
-84.082
 10
45.157
 20
-83.701
 10
44.77
 20
-83.661
 10
44.77
 20
-83.227
 10
46.286
 20
-82.352
 10
47.801
 20
-83.227
 10
47.801
 20
-84.335
 10
47.025
 20
-84.082
  0
LWPOLYLINE
  5
84
330
17
100
AcDbEntity
  8
0
100
AcDbPolyline
 90
9
 70
1
 10
49.932
 20
-85.195
 10
48.614
 20
-84.599
 10
48.301
 20
-84.497
 10
48.301
 20
-83.227
 10
49.817
 20
-82.352
 10
51.332
 20
-83.227
 10
51.332
 20
-84.977
 10
50.44
 20
-85.492
 10
49.932
 20
-85.195
  0
INSERT
  5
85
330
17
100
AcDbEntity
  8
0
100
AcDbBlockReference
  2
HEX
 10
53.348
 20
-84.102
 30
0.0
  0
INSERT
  5
87
330
17
100
AcDbEntity
  8
0
100
AcDbBlockReference
  2
HEX
 10
56.879
 20
-84.102
 30
0.0
  0
INSERT
  5
89
330
17
100
AcDbEntity
  8
0
100
AcDbBlockReference
  2
HEX
 10
60.41
 20
-84.102
 30
0.0
  0
LWPOLYLINE
  5
8B
330
17
100
AcDbEntity
  8
0
100
AcDbPolyline
 90
15
 70
1
 10
64.077
 20
-85.773
 10
63.751
 20
-85.544
 10
63.518
 20
-85.319
 10
63.31
 20
-85.05
 10
63.217
 20
-84.897
 10
63.06
 20
-84.552
 10
62.997
 20
-84.36
 10
62.945
 20
-84.153
 10
62.882
 20
-83.695
 10
62.878
 20
-83.229
 10
62.915
 20
-82.944
 10
63.941
 20
-82.352
 10
65.457
 20
-83.227
 10
65.457
 20
-84.977
 10
64.077
 20
-85.773
  0
LWPOLYLINE
  5
8C
330
17
100
AcDbEntity
  8
0
100
AcDbPolyline
 90
4
 70
1
 10
62.558
 20
-85.053
 10
62.426
 20
-84.977
 10
62.426
 20
-84.771
 10
62.558
 20
-85.053
  0
INSERT
  5
8D
330
17
100
AcDbEntity
  8
0
100
AcDbBlockReference
  2
HEX
 10
67.472
 20
-84.102
 30
0.0
  0
INSERT
  5
8F
330
17
100
AcDbEntity
  8
0
100
AcDbBlockReference
  2
HEX
 10
71.003
 20
-84.102
 30
0.0
  0
LWPOLYLINE
  5
91
330
17
100
AcDbEntity
  8
0
100
AcDbPolyline
 90
8
 70
1
 10
75.138
 20
-85.503
 10
74.835
 20
-85.678
 10
74.291
 20
-85.711
 10
73.019
 20
-84.977
 10
73.019
 20
-83.227
 10
74.534
 20
-82.352
 10
75.027
 20
-82.636
 10
75.138
 20
-85.503
  0
LWPOLYLINE
  5
92
330
17
100
AcDbEntity
  8
0
100
AcDbPolyline
 90
4
 70
1
 10
120.845
 20
-85.617
 10
120.438
 20
-85.852
 10
119.373
 20
-85.236
 10
120.845
 20
-85.617
  0
LWPOLYLINE
  5
93
330
17
100
AcDbEntity
  8
0
100
AcDbPolyline
 90
4
 70
1
 10
128.297
 20
-83.233
 10
129.016
 20
-83.431
 10
129.016
 20
-83.829
 10
128.297
 20
-83.233
  0
LWPOLYLINE
  5
94
330
17
100
AcDbEntity
  8
0
100
AcDbPolyline
 90
6
 70
1
 10
132.547
 20
-84.405
 10
132.547
 20
-84.977
 10
131.032
 20
-85.852
 10
129.516
 20
-84.977
 10
129.516
 20
-83.569
 10
132.547
 20
-84.405
  0
LWPOLYLINE
  5
95
330
17
100
AcDbEntity
  8
0
100
AcDbPolyline
 90
4
 70
1
 10
130.816
 20
-82.476
 10
131.032
 20
-82.352
 10
131.707
 20
-82.742
 10
130.816
 20
-82.476
  0
LWPOLYLINE
  5
96
330
17
100
AcDbEntity
  8
0
100
AcDbPolyline
 90
9
 70
1
 10
134.426
 20
-85.039
 10
134.736
 20
-85.227
 10
135.132
 20
-85.523
 10
134.563
 20
-85.852
 10
133.047
 20
-84.977
 10
133.047
 20
-84.543
 10
133.79
 20
-84.754
 10
134.108
 20
-84.88
 10
134.426
 20
-85.039
  0
LWPOLYLINE
  5
97
330
17
100
AcDbEntity
  8
0
100
AcDbPolyline
 90
8
 70
1
 10
134.648
 20
-82.819
 10
135.388
 20
-83.345
 10
136.078
 20
-83.754
 10
136.078
 20
-83.924
 10
135.107
 20
-83.754
 10
133.145
 20
-83.17
 10
134.292
 20
-82.508
 10
134.648
 20
-82.819
  0
INSERT
  5
98
330
17
100
AcDbEntity
  8
0
100
AcDbBlockReference
  2
HEX
 10
19.802
 20
-81.043
 30
0.0
  0
INSERT
  5
9A
330
17
100
AcDbEntity
  8
0
100
AcDbBlockReference
  2
HEX
 10
23.334
 20
-81.043
 30
0.0
  0
INSERT
  5
9C
330
17
100
AcDbEntity
  8
0
100
AcDbBlockReference
  2
HEX
 10
26.865
 20
-81.043
 30
0.0
  0
INSERT
  5
9E
330
17
100
AcDbEntity
  8
0
100
AcDbBlockReference
  2
HEX
 10
30.396
 20
-81.043
 30
0.0
  0
INSERT
  5
A0
330
17
100
AcDbEntity
  8
0
100
AcDbBlockReference
  2
HEX
 10
33.927
 20
-81.043
 30
0.0
  0
INSERT
  5
A2
330
17
100
AcDbEntity
  8
0
100
AcDbBlockReference
  2
HEX
 10
37.458
 20
-81.043
 30
0.0
  0
INSERT
  5
A4
330
17
100
AcDbEntity
  8
0
100
AcDbBlockReference
  2
HEX
 10
40.989
 20
-81.043
 30
0.0
  0
INSERT
  5
A6
330
17
100
AcDbEntity
  8
0
100
AcDbBlockReference
  2
HEX
 10
44.52
 20
-81.043
 30
0.0
  0
INSERT
  5
A8
330
17
100
AcDbEntity
  8
0
100
AcDbBlockReference
  2
HEX
 10
48.051
 20
-81.043
 30
0.0
  0
INSERT
  5
AA
330
17
100
AcDbEntity
  8
0
100
AcDbBlockReference
  2
HEX
 10
51.582
 20
-81.043
 30
0.0
  0
INSERT
  5
AC
330
17
100
AcDbEntity
  8
0
100
AcDbBlockReference
  2
HEX
 10
55.113
 20
-81.043
 30
0.0
  0
INSERT
  5
AE
330
17
100
AcDbEntity
  8
0
100
AcDbBlockReference
  2
HEX
 10
58.644
 20
-81.043
 30
0.0
  0
LWPOLYLINE
  5
B0
330
17
100
AcDbEntity
  8
0
100
AcDbPolyline
 90
7
 70
1
 10
63.182
 20
-82.096
 10
63.362
 20
-81.799
 10
63.568
 20
-81.539
 10
63.691
 20
-81.415
 10
63.691
 20
-81.918
 10
63.114
 20
-82.251
 10
63.182
 20
-82.096
  0
LWPOLYLINE
  5
B1
330
17
100
AcDbEntity
  8
0
100
AcDbPolyline
 90
15
 70
1
 10
62.363
 20
-82.232
 10
62.256
 20
-82.587
 10
62.222
 20
-82.767
 10
62.176
 20
-82.793
 10
60.66
 20
-81.918
 10
60.66
 20
-80.168
 10
62.176
 20
-79.293
 10
63.691
 20
-80.168
 10
63.691
 20
-80.469
 10
63.391
 20
-80.707
 10
63.166
 20
-80.926
 10
62.908
 20
-81.23
 10
62.688
 20
-81.55
 10
62.507
 20
-81.885
 10
62.363
 20
-82.232
  0
LWPOLYLINE
  5
B2
330
17
100
AcDbEntity
  8
0
100
AcDbPolyline
 90
9
 70
1
 10
64.191
 20
-81.008
 10
64.493
 20
-80.825
 10
64.905
 20
-80.634
 10
65.311
 20
-80.502
 10
67.222
 20
-80.563
 10
67.222
 20
-81.918
 10
65.707
 20
-82.793
 10
64.191
 20
-81.918
 10
64.191
 20
-81.008
  0
LWPOLYLINE
  5
B3
330
17
100
AcDbEntity
  8
0
100
AcDbPolyline
 90
7
 70
1
 10
65.311
 20
-79.818
 10
65.011
 20
-79.873
 10
64.717
 20
-79.952
 10
64.43
 20
-80.056
 10
64.208
 20
-80.159
 10
65.311
 20
-79.522
 10
65.311
 20
-79.818
  0
LWPOLYLINE
  5
B4
330
17
100
AcDbEntity
  8
0
100
AcDbPolyline
 90
6
 70
1
 10
70.753
 20
-80.675
 10
70.753
 20
-81.918
 10
69.238
 20
-82.793
 10
67.722
 20
-81.918
 10
67.722
 20
-80.579
 10
70.753
 20
-80.675
  0
LWPOLYLINE
  5
B5
330
17
100
AcDbEntity
  8
0
100
AcDbPolyline
 90
6
 70
1
 10
74.284
 20
-80.787
 10
74.284
 20
-81.918
 10
72.769
 20
-82.793
 10
71.253
 20
-81.918
 10
71.253
 20
-80.691
 10
74.284
 20
-80.787
  0
LWPOLYLINE
  5
B6
330
17
100
AcDbEntity
  8
0
100
AcDbPolyline
 90
5
 70
1
 10
74.784
 20
-80.803
 10
74.957
 20
-80.808
 10
75.005
 20
-82.046
 10
74.784
 20
-81.918
 10
74.784
 20
-80.803
  0
LWPOLYLINE
  5
B7
330
17
100
AcDbEntity
  8
0
100
AcDbPolyline
 90
6
 70
1
 10
127.251
 20
-81.136
 10
127.11
 20
-81.227
 10
124.299
 20
-80.122
 10
125.735
 20
-79.293
 10
127.251
 20
-80.168
 10
127.251
 20
-81.136
  0
LWPOLYLINE
  5
B8
330
17
100
AcDbEntity
  8
0
100
AcDbPolyline
 90
16
 70
1
 10
129.471
 20
-82.076
 10
129.364
 20
-81.746
 10
129.251
 20
-81.543
 10
129.104
 20
-81.362
 10
129.019
 20
-81.28
 10
128.822
 20
-81.139
 10
128.591
 20
-81.032
 10
128.327
 20
-80.964
 10
128.029
 20
-80.94
 10
127.751
 20
-80.962
 10
127.751
 20
-80.168
 10
129.266
 20
-79.293
 10
130.782
 20
-80.168
 10
130.782
 20
-81.918
 10
130.156
 20
-82.28
 10
129.471
 20
-82.076
  0
LWPOLYLINE
  5
B9
330
17
100
AcDbEntity
  8
0
100
AcDbPolyline
 90
10
 70
1
 10
132.194
 20
-79.642
 10
132.481
 20
-80.299
 10
132.782
 20
-80.818
 10
133.12
 20
-81.298
 10
133.485
 20
-81.737
 10
133.894
 20
-82.16
 10
132.797
 20
-82.793
 10
131.282
 20
-81.918
 10
131.282
 20
-80.168
 10
132.194
 20
-79.642
  0
LWPOLYLINE
  5
BA
330
17
100
AcDbEntity
  8
0
100
AcDbPolyline
 90
6
 70
1
 10
18.006
 20
-78.34
 10
19.552
 20
-78.347
 10
19.552
 20
-78.86
 10
18.037
 20
-79.735
 10
18.006
 20
-79.718
 10
18.006
 20
-78.34
  0
LWPOLYLINE
  5
BB
330
17
100
AcDbEntity
  8
0
100
AcDbPolyline
 90
6
 70
1
 10
23.084
 20
-78.361
 10
23.084
 20
-78.86
 10
21.568
 20
-79.735
 10
20.052
 20
-78.86
 10
20.052
 20
-78.349
 10
23.084
 20
-78.361
  0
LWPOLYLINE
  5
BC
330
17
100
AcDbEntity
  8
0
100
AcDbPolyline
 90
6
 70
1
 10
26.615
 20
-78.375
 10
26.615
 20
-78.86
 10
25.099
 20
-79.735
 10
23.584
 20
-78.86
 10
23.584
 20
-78.363
 10
26.615
 20
-78.375
  0
LWPOLYLINE
  5
BD
330
17
100
AcDbEntity
  8
0
100
AcDbPolyline
 90
6
 70
1
 10
30.146
 20
-78.389
 10
30.146
 20
-78.86
 10
28.63
 20
-79.735
 10
27.115
 20
-78.86
 10
27.115
 20
-78.377
 10
30.146
 20
-78.389
  0
LWPOLYLINE
  5
BE
330
17
100
AcDbEntity
  8
0
100
AcDbPolyline
 90
6
 70
1
 10
33.677
 20
-78.403
 10
33.677
 20
-78.86
 10
32.161
 20
-79.735
 10
30.646
 20
-78.86
 10
30.646
 20
-78.391
 10
33.677
 20
-78.403
  0
LWPOLYLINE
  5
BF
330
17
100
AcDbEntity
  8
0
100
AcDbPolyline
 90
6
 70
1
 10
37.208
 20
-78.417
 10
37.208
 20
-78.86
 10
35.692
 20
-79.735
 10
34.177
 20
-78.86
 10
34.177
 20
-78.405
 10
37.208
 20
-78.417
  0
LWPOLYLINE
  5
C0
330
17
100
AcDbEntity
  8
0
100
AcDbPolyline
 90
6
 70
1
 10
40.739
 20
-78.431
 10
40.739
 20
-78.86
 10
39.223
 20
-79.735
 10
37.708
 20
-78.86
 10
37.708
 20
-78.419
 10
40.739
 20
-78.431
  0
LWPOLYLINE
  5
C1
330
17
100
AcDbEntity
  8
0
100
AcDbPolyline
 90
6
 70
1
 10
44.27
 20
-78.446
 10
44.27
 20
-78.86
 10
42.755
 20
-79.735
 10
41.239
 20
-78.86
 10
41.239
 20
-78.433
 10
44.27
 20
-78.446
  0
LWPOLYLINE
  5
C2
330
17
100
AcDbEntity
  8
0
100
AcDbPolyline
 90
6
 70
1
 10
47.801
 20
-78.46
 10
47.801
 20
-78.86
 10
46.286
 20
-79.735
 10
44.77
 20
-78.86
 10
44.77
 20
-78.448
 10
47.801
 20
-78.46
  0
LWPOLYLINE
  5
C3
330
17
100
AcDbEntity
  8
0
100
AcDbPolyline
 90
6
 70
1
 10
51.332
 20
-78.474
 10
51.332
 20
-78.86
 10
49.817
 20
-79.735
 10
48.301
 20
-78.86
 10
48.301
 20
-78.462
 10
51.332
 20
-78.474
  0
LWPOLYLINE
  5
C4
330
17
100
AcDbEntity
  8
0
100
AcDbPolyline
 90
6
 70
1
 10
54.863
 20
-78.488
 10
54.863
 20
-78.86
 10
53.348
 20
-79.735
 10
51.832
 20
-78.86
 10
51.832
 20
-78.476
 10
54.863
 20
-78.488
  0
LWPOLYLINE
  5
C5
330
17
100
AcDbEntity
  8
0
100
AcDbPolyline
 90
6
 70
1
 10
58.394
 20
-78.502
 10
58.394
 20
-78.86
 10
56.879
 20
-79.735
 10
55.363
 20
-78.86
 10
55.363
 20
-78.49
 10
58.394
 20
-78.502
  0
LWPOLYLINE
  5
C6
330
17
100
AcDbEntity
  8
0
100
AcDbPolyline
 90
6
 70
1
 10
61.926
 20
-78.516
 10
61.926
 20
-78.86
 10
60.41
 20
-79.735
 10
58.894
 20
-78.86
 10
58.894
 20
-78.504
 10
61.926
 20
-78.516
  0
LWPOLYLINE
  5
C7
330
17
100
AcDbEntity
  8
0
100
AcDbPolyline
 90
6
 70
1
 10
65.311
 20
-78.53
 10
65.311
 20
-78.944
 10
63.941
 20
-79.735
 10
62.426
 20
-78.86
 10
62.426
 20
-78.518
 10
65.311
 20
-78.53
  0
LWPOLYLINE
  5
C8
330
17
100
AcDbEntity
  8
0
100
AcDbPolyline
 90
4
 70
1
 10
125.003
 20
-79.139
 10
123.97
 20
-79.735
 10
122.936
 20
-79.139
 10
125.003
 20
-79.139
  0
LWPOLYLINE
  5
C9
330
17
100
AcDbEntity
  8
0
100
AcDbPolyline
 90
4
 70
1
 10
128.534
 20
-79.139
 10
127.501
 20
-79.735
 10
126.467
 20
-79.139
 10
128.534
 20
-79.139
  0
LWPOLYLINE
  5
CA
330
17
100
AcDbEntity
  8
0
100
AcDbPolyline
 90
5
 70
1
 10
132.026
 20
-79.139
 10
132.033
 20
-79.158
 10
131.032
 20
-79.735
 10
129.998
 20
-79.139
 10
132.026
 20
-79.139
  0
ENDSEC
  0
SECTION
  2
OBJECTS
  0
DICTIONARY
  5
A
330
0
100
AcDbDictionary
281
1
  3
ACAD_COLOR
350
B
  3
ACAD_GROUP
350
C
  3
ACAD_LAYOUT
350
D
  3
ACAD_MATERIAL
350
E
  3
ACAD_MLEADERSTYLE
350
F
  3
ACAD_MLINESTYLE
350
10
  3
ACAD_PLOTSETTINGS
350
11
  3
ACAD_PLOTSTYLENAME
350
12
  3
ACAD_SCALELIST
350
14
  3
ACAD_TABLESTYLE
350
15
  3
ACAD_VISUALSTYLE
350
16
  3
EZDXF_META
350
2D
  0
DICTIONARY
  5
B
330
A
100
AcDbDictionary
281
1
  0
DICTIONARY
  5
C
330
A
100
AcDbDictionary
281
1
  0
DICTIONARY
  5
D
330
A
100
AcDbDictionary
281
1
  3
Model
350
1A
  3
Layout1
350
1E
  0
DICTIONARY
  5
E
330
A
100
AcDbDictionary
281
1
  3
ByBlock
350
1F
  3
ByLayer
350
20
  3
Global
350
21
  0
DICTIONARY
  5
F
330
A
100
AcDbDictionary
281
1
  3
Standard
350
2C
  0
DICTIONARY
  5
10
330
A
100
AcDbDictionary
281
1
  3
Standard
350
22
  0
DICTIONARY
  5
11
330
A
100
AcDbDictionary
281
1
  0
ACDBDICTIONARYWDFLT
  5
12
330
A
100
AcDbDictionary
281
1
  3
Normal
350
13
100
AcDbDictionaryWithDefault
340
13
  0
ACDBPLACEHOLDER
  5
13
330
12
  0
DICTIONARY
  5
14
330
A
100
AcDbDictionary
281
1
  0
DICTIONARY
  5
15
330
A
100
AcDbDictionary
281
1
  0
DICTIONARY
  5
16
330
A
100
AcDbDictionary
281
1
  0
LAYOUT
  5
1A
330
D
100
AcDbPlotSettings
  1

  4
A3
  6

 40
7.5
 41
20.0
 42
7.5
 43
20.0
 44
420.0
 45
297.0
 46
0.0
 47
0.0
 48
0.0
 49
0.0
140
0.0
141
0.0
142
1.0
143
1.0
 70
1024
 72
1
 73
0
 74
5
  7

 75
16
 76
0
 77
2
 78
300
147
1.0
148
0.0
149
0.0
100
AcDbLayout
  1
Model
 70
1
 71
0
 10
0.0
 20
0.0
 11
420.0
 21
297.0
 12
0.0
 22
0.0
 32
0.0
 14
1e+20
 24
1e+20
 34
1e+20
 15
-1e+20
 25
-1e+20
 35
-1e+20
146
0.0
 13
0.0
 23
0.0
 33
0.0
 16
1.0
 26
0.0
 36
0.0
 17
0.0
 27
1.0
 37
0.0
 76
1
330
17
  0
LAYOUT
  5
1E
330
D
100
AcDbPlotSettings
  1

  4
A3
  6

 40
7.5
 41
20.0
 42
7.5
 43
20.0
 44
420.0
 45
297.0
 46
0.0
 47
0.0
 48
0.0
 49
0.0
140
0.0
141
0.0
142
1.0
143
1.0
 70
0
 72
1
 73
0
 74
5
  7

 75
16
 76
0
 77
2
 78
300
147
1.0
148
0.0
149
0.0
100
AcDbLayout
  1
Layout1
 70
1
 71
1
 10
0.0
 20
0.0
 11
420.0
 21
297.0
 12
0.0
 22
0.0
 32
0.0
 14
1e+20
 24
1e+20
 34
1e+20
 15
-1e+20
 25
-1e+20
 35
-1e+20
146
0.0
 13
0.0
 23
0.0
 33
0.0
 16
1.0
 26
0.0
 36
0.0
 17
0.0
 27
1.0
 37
0.0
 76
1
330
1B
  0
MATERIAL
  5
1F
102
{ACAD_REACTORS
330
E
102
}
330
E
100
AcDbMaterial
  1
ByBlock
  2

 70
0
 40
1.0
 71
1
 41
1.0
 91
-1023410177
 42
1.0
 72
1
  3

 73
1
 74
1
 75
1
 44
0.5
 73
0
 45
1.0
 46
1.0
 77
1
  4

 78
1
 79
1
170
1
 48
1.0
171
1
  6

172
1
173
1
174
1
140
1.0
141
1.0
175
1
  7

176
1
177
1
178
1
143
1.0
179
1
  8

270
1
271
1
272
1
145
1.0
146
1.0
273
1
  9

274
1
275
1
276
1
 42
1.0
 72
1
  3

 73
1
 74
1
 75
1
 94
63
  0
MATERIAL
  5
20
102
{ACAD_REACTORS
330
E
102
}
330
E
100
AcDbMaterial
  1
ByLayer
  2

 70
0
 40
1.0
 71
1
 41
1.0
 91
-1023410177
 42
1.0
 72
1
  3

 73
1
 74
1
 75
1
 44
0.5
 73
0
 45
1.0
 46
1.0
 77
1
  4

 78
1
 79
1
170
1
 48
1.0
171
1
  6

172
1
173
1
174
1
140
1.0
141
1.0
175
1
  7

176
1
177
1
178
1
143
1.0
179
1
  8

270
1
271
1
272
1
145
1.0
146
1.0
273
1
  9

274
1
275
1
276
1
 42
1.0
 72
1
  3

 73
1
 74
1
 75
1
 94
63
  0
MATERIAL
  5
21
102
{ACAD_REACTORS
330
E
102
}
330
E
100
AcDbMaterial
  1
Global
  2

 70
0
 40
1.0
 71
1
 41
1.0
 91
-1023410177
 42
1.0
 72
1
  3

 73
1
 74
1
 75
1
 44
0.5
 73
0
 45
1.0
 46
1.0
 77
1
  4

 78
1
 79
1
170
1
 48
1.0
171
1
  6

172
1
173
1
174
1
140
1.0
141
1.0
175
1
  7

176
1
177
1
178
1
143
1.0
179
1
  8

270
1
271
1
272
1
145
1.0
146
1.0
273
1
  9

274
1
275
1
276
1
 42
1.0
 72
1
  3

 73
1
 74
1
 75
1
 94
63
  0
MLINESTYLE
  5
22
102
{ACAD_REACTORS
330
10
102
}
330
10
100
AcDbMlineStyle
  2
Standard
 70
0
  3

 62
256
 51
90.0
 52
90.0
 71
2
 49
0.5
 62
256
  6
BYLAYER
 49
-0.5
 62
256
  6
BYLAYER
  0
MLEADERSTYLE
  5
2C
102
{ACAD_REACTORS
330
F
102
}
330
F
100
AcDbMLeaderStyle
179
2
170
2
171
1
172
0
 90
2
 40
0.0
 41
0.0
173
1
 91
-1056964608
 92
-2
290
1
 42
2.0
291
1
 43
8.0
  3
Standard
 44
4.0
300

342
29
174
1
175
1
176
0
178
1
 93
-1056964608
 45
4.0
292
0
297
0
 46
4.0
 94
-1056964608
 47
1.0
 49
1.0
140
1.0
294
1
141
0.0
177
0
142
1.0
295
0
296
0
143
3.75
271
0
272
9
273
9
  0
DICTIONARY
  5
2D
330
A
100
AcDbDictionary
280
1
281
1
  3
CREATED_BY_EZDXF
350
2E
  3
WRITTEN_BY_EZDXF
350
CD
  0
DICTIONARYVAR
  5
2E
330
2D
100
DictionaryVariables
280
0
  1
1.4.3 @ 2026-04-09T21:37:19.568375+00:00
  0
DICTIONARYVAR
  5
CD
330
2D
100
DictionaryVariables
280
0
  1
1.4.3 @ 2026-04-09T21:37:19.583916+00:00
  0
ENDSEC
  0
EOF
