  0
SECTION
  2
HEADER
  9
$ACADVER
  1
AC1024
  9
$ACADMAINTVER
 70
6
  9
$DWGCODEPAGE
  3
ANSI_1252
  9
$LASTSAVEDBY
  1
ezdxf
  9
$INSBASE
 10
0.0
 20
0.0
 30
0.0
  9
$EXTMIN
 10
1e+20
 20
1e+20
 30
1e+20
  9
$EXTMAX
 10
-1e+20
 20
-1e+20
 30
-1e+20
  9
$LIMMIN
 10
0.0
 20
0.0
  9
$LIMMAX
 10
420.0
 20
297.0
  9
$ORTHOMODE
 70
0
  9
$REGENMODE
 70
1
  9
$FILLMODE
 70
1
  9
$QTEXTMODE
 70
0
  9
$MIRRTEXT
 70
1
  9
$LTSCALE
 40
1.0
  9
$ATTMODE
 70
1
  9
$TEXTSIZE
 40
2.5
  9
$TRACEWID
 40
1.0
  9
$TEXTSTYLE
  7
Standard
  9
$CLAYER
  8
0
  9
$CELTYPE
  6
ByLayer
  9
$CECOLOR
 62
256
  9
$CELTSCALE
 40
1.0
  9
$DISPSILH
 70
0
  9
$DIMSCALE
 40
1.0
  9
$DIMASZ
 40
2.5
  9
$DIMEXO
 40
0.625
  9
$DIMDLI
 40
3.75
  9
$DIMRND
 40
0.0
  9
$DIMDLE
 40
0.0
  9
$DIMEXE
 40
1.25
  9
$DIMTP
 40
0.0
  9
$DIMTM
 40
0.0
  9
$DIMTXT
 40
2.5
  9
$DIMCEN
 40
2.5
  9
$DIMTSZ
 40
0.0
  9
$DIMTOL
 70
0
  9
$DIMLIM
 70
0
  9
$DIMTIH
 70
0
  9
$DIMTOH
 70
0
  9
$DIMSE1
 70
0
  9
$DIMSE2
 70
0
  9
$DIMTAD
 70
1
  9
$DIMZIN
 70
8
  9
$DIMBLK
  1

  9
$DIMASO
 70
1
  9
$DIMSHO
 70
1
  9
$DIMPOST
  1

  9
$DIMAPOST
  1

  9
$DIMALT
 70
0
  9
$DIMALTD
 70
3
  9
$DIMALTF
 40
0.03937007874
  9
$DIMLFAC
 40
1.0
  9
$DIMTOFL
 70
1
  9
$DIMTVP
 40
0.0
  9
$DIMTIX
 70
0
  9
$DIMSOXD
 70
0
  9
$DIMSAH
 70
0
  9
$DIMBLK1
  1

  9
$DIMBLK2
  1

  9
$DIMSTYLE
  2
ISO-25
  9
$DIMCLRD
 70
0
  9
$DIMCLRE
 70
0
  9
$DIMCLRT
 70
0
  9
$DIMTFAC
 40
1.0
  9
$DIMGAP
 40
0.625
  9
$DIMJUST
 70
0
  9
$DIMSD1
 70
0
  9
$DIMSD2
 70
0
  9
$DIMTOLJ
 70
0
  9
$DIMTZIN
 70
8
  9
$DIMALTZ
 70
0
  9
$DIMALTTZ
 70
0
  9
$DIMUPT
 70
0
  9
$DIMDEC
 70
2
  9
$DIMTDEC
 70
2
  9
$DIMALTU
 70
2
  9
$DIMALTTD
 70
3
  9
$DIMTXSTY
  7
Standard
  9
$DIMAUNIT
 70
0
  9
$DIMADEC
 70
0
  9
$DIMALTRND
 40
0.0
  9
$DIMAZIN
 70
0
  9
$DIMDSEP
 70
44
  9
$DIMATFIT
 70
3
  9
$DIMFRAC
 70
0
  9
$DIMLDRBLK
  1

  9
$DIMLUNIT
 70
2
  9
$DIMLWD
 70
-2
  9
$DIMLWE
 70
-2
  9
$DIMTMOVE
 70
0
  9
$DIMFXL
 40
1.0
  9
$DIMFXLON
 70
0
  9
$DIMJOGANG
 40
0.785398163397
  9
$DIMTFILL
 70
0
  9
$DIMTFILLCLR
 70
0
  9
$DIMARCSYM
 70
0
  9
$DIMLTYPE
  6

  9
$DIMLTEX1
  6

  9
$DIMLTEX2
  6

  9
$DIMTXTDIRECTION
 70
0
  9
$LUNITS
 70
2
  9
$LUPREC
 70
4
  9
$SKETCHINC
 40
1.0
  9
$FILLETRAD
 40
10.0
  9
$AUNITS
 70
0
  9
$AUPREC
 70
2
  9
$MENU
  1
.
  9
$ELEVATION
 40
0.0
  9
$PELEVATION
 40
0.0
  9
$THICKNESS
 40
0.0
  9
$LIMCHECK
 70
0
  9
$CHAMFERA
 40
0.0
  9
$CHAMFERB
 40
0.0
  9
$CHAMFERC
 40
0.0
  9
$CHAMFERD
 40
0.0
  9
$SKPOLY
 70
0
  9
$TDCREATE
 40
2461140.6092476854
  9
$TDUCREATE
 40
2458532.153996898
  9
$TDUPDATE
 40
2461140.6092476854
  9
$TDUUPDATE
 40
2458532.1544311
  9
$TDINDWG
 40
0.0
  9
$TDUSRTIMER
 40
0.0
  9
$USRTIMER
 70
1
  9
$ANGBASE
 50
0.0
  9
$ANGDIR
 70
0
  9
$PDMODE
 70
0
  9
$PDSIZE
 40
0.0
  9
$PLINEWID
 40
0.0
  9
$SPLFRAME
 70
0
  9
$SPLINETYPE
 70
6
  9
$SPLINESEGS
 70
8
  9
$HANDSEED
  5
207
  9
$SURFTAB1
 70
6
  9
$SURFTAB2
 70
6
  9
$SURFTYPE
 70
6
  9
$SURFU
 70
6
  9
$SURFV
 70
6
  9
$UCSBASE
  2

  9
$UCSNAME
  2

  9
$UCSORG
 10
0.0
 20
0.0
 30
0.0
  9
$UCSXDIR
 10
1.0
 20
0.0
 30
0.0
  9
$UCSYDIR
 10
0.0
 20
1.0
 30
0.0
  9
$UCSORTHOREF
  2

  9
$UCSORTHOVIEW
 70
0
  9
$UCSORGTOP
 10
0.0
 20
0.0
 30
0.0
  9
$UCSORGBOTTOM
 10
0.0
 20
0.0
 30
0.0
  9
$UCSORGLEFT
 10
0.0
 20
0.0
 30
0.0
  9
$UCSORGRIGHT
 10
0.0
 20
0.0
 30
0.0
  9
$UCSORGFRONT
 10
0.0
 20
0.0
 30
0.0
  9
$UCSORGBACK
 10
0.0
 20
0.0
 30
0.0
  9
$PUCSBASE
  2

  9
$PUCSNAME
  2

  9
$PUCSORG
 10
0.0
 20
0.0
 30
0.0
  9
$PUCSXDIR
 10
1.0
 20
0.0
 30
0.0
  9
$PUCSYDIR
 10
0.0
 20
1.0
 30
0.0
  9
$PUCSORTHOREF
  2

  9
$PUCSORTHOVIEW
 70
0
  9
$PUCSORGTOP
 10
0.0
 20
0.0
 30
0.0
  9
$PUCSORGBOTTOM
 10
0.0
 20
0.0
 30
0.0
  9
$PUCSORGLEFT
 10
0.0
 20
0.0
 30
0.0
  9
$PUCSORGRIGHT
 10
0.0
 20
0.0
 30
0.0
  9
$PUCSORGFRONT
 10
0.0
 20
0.0
 30
0.0
  9
$PUCSORGBACK
 10
0.0
 20
0.0
 30
0.0
  9
$USERI1
 70
0
  9
$USERI2
 70
0
  9
$USERI3
 70
0
  9
$USERI4
 70
0
  9
$USERI5
 70
0
  9
$USERR1
 40
0.0
  9
$USERR2
 40
0.0
  9
$USERR3
 40
0.0
  9
$USERR4
 40
0.0
  9
$USERR5
 40
0.0
  9
$WORLDVIEW
 70
1
  9
$SHADEDGE
 70
3
  9
$SHADEDIF
 70
70
  9
$TILEMODE
 70
1
  9
$MAXACTVP
 70
64
  9
$PINSBASE
 10
0.0
 20
0.0
 30
0.0
  9
$PLIMCHECK
 70
0
  9
$PEXTMIN
 10
1e+20
 20
1e+20
 30
1e+20
  9
$PEXTMAX
 10
-1e+20
 20
-1e+20
 30
-1e+20
  9
$PLIMMIN
 10
0.0
 20
0.0
  9
$PLIMMAX
 10
420.0
 20
297.0
  9
$UNITMODE
 70
0
  9
$VISRETAIN
 70
1
  9
$PLINEGEN
 70
0
  9
$PSLTSCALE
 70
1
  9
$TREEDEPTH
 70
3020
  9
$CMLSTYLE
  2
Standard
  9
$CMLJUST
 70
0
  9
$CMLSCALE
 40
20.0
  9
$PROXYGRAPHICS
 70
1
  9
$MEASUREMENT
 70
1
  9
$CELWEIGHT
370
-1
  9
$ENDCAPS
280
0
  9
$JOINSTYLE
280
0
  9
$LWDISPLAY
290
0
  9
$INSUNITS
 70
4
  9
$HYPERLINKBASE
  1

  9
$STYLESHEET
  1

  9
$XEDIT
290
1
  9
$CEPSNTYPE
380
0
  9
$PSTYLEMODE
290
1
  9
$FINGERPRINTGUID
  2
{C61D9C03-BE7D-450D-AD3B-DCCF1BC38629}
  9
$VERSIONGUID
  2
{3AFA17E5-C2D3-45D8-B1A0-87F42CBADEDD}
  9
$EXTNAMES
290
1
  9
$PSVPSCALE
 40
0.0
  9
$OLESTARTUP
290
0
  9
$SORTENTS
280
127
  9
$INDEXCTL
280
0
  9
$HIDETEXT
280
1
  9
$XCLIPFRAME
280
1
  9
$HALOGAP
280
0
  9
$OBSCOLOR
 70
257
  9
$OBSLTYPE
280
0
  9
$INTERSECTIONDISPLAY
280
0
  9
$INTERSECTIONCOLOR
 70
257
  9
$DIMASSOC
280
2
  9
$PROJECTNAME
  1

  9
$CAMERADISPLAY
290
0
  9
$LENSLENGTH
 40
50.0
  9
$CAMERAHEIGHT
 40
0.0
  9
$STEPSPERSEC
 40
24.0
  9
$STEPSIZE
 40
100.0
  9
$3DDWFPREC
 40
2.0
  9
$PSOLWIDTH
 40
0.005
  9
$PSOLHEIGHT
 40
0.08
  9
$LOFTANG1
 40
1.570796326795
  9
$LOFTANG2
 40
1.570796326795
  9
$LOFTMAG1
 40
0.0
  9
$LOFTMAG2
 40
0.0
  9
$LOFTPARAM
 70
7
  9
$LOFTNORMALS
280
1
  9
$LATITUDE
 40
37.795
  9
$LONGITUDE
 40
-122.394
  9
$NORTHDIRECTION
 40
0.0
  9
$TIMEZONE
 70
-8000
  9
$LIGHTGLYPHDISPLAY
280
1
  9
$TILEMODELIGHTSYNCH
280
1
  9
$CMATERIAL
347
20
  9
$SOLIDHIST
280
0
  9
$SHOWHIST
280
1
  9
$DWFFRAME
280
2
  9
$DGNFRAME
280
2
  9
$REALWORLDSCALE
290
1
  9
$INTERFERECOLOR
 62
256
  9
$CSHADOW
280
0
  9
$SHADOWPLANELOCATION
 40
0.0
  0
ENDSEC
  0
SECTION
  2
CLASSES
  0
CLASS
  1
ACDBDICTIONARYWDFLT
  2
AcDbDictionaryWithDefault
  3
ObjectDBX Classes
 90
0
 91
0
280
0
281
0
  0
CLASS
  1
SUN
  2
AcDbSun
  3
SCENEOE
 90
1153
 91
0
280
0
281
0
  0
CLASS
  1
VISUALSTYLE
  2
AcDbVisualStyle
  3
ObjectDBX Classes
 90
4095
 91
0
280
0
281
0
  0
CLASS
  1
MATERIAL
  2
AcDbMaterial
  3
ObjectDBX Classes
 90
1153
 91
0
280
0
281
0
  0
CLASS
  1
SCALE
  2
AcDbScale
  3
ObjectDBX Classes
 90
1153
 91
0
280
0
281
0
  0
CLASS
  1
TABLESTYLE
  2
AcDbTableStyle
  3
ObjectDBX Classes
 90
4095
 91
0
280
0
281
0
  0
CLASS
  1
MLEADERSTYLE
  2
AcDbMLeaderStyle
  3
ACDB_MLEADERSTYLE_CLASS
 90
4095
 91
0
280
0
281
0
  0
CLASS
  1
DICTIONARYVAR
  2
AcDbDictionaryVar
  3
ObjectDBX Classes
 90
0
 91
0
280
0
281
0
  0
CLASS
  1
CELLSTYLEMAP
  2
AcDbCellStyleMap
  3
ObjectDBX Classes
 90
1152
 91
0
280
0
281
0
  0
CLASS
  1
MENTALRAYRENDERSETTINGS
  2
AcDbMentalRayRenderSettings
  3
SCENEOE
 90
1024
 91
0
280
0
281
0
  0
CLASS
  1
ACDBDETAILVIEWSTYLE
  2
AcDbDetailViewStyle
  3
ObjectDBX Classes
 90
1025
 91
0
280
0
281
0
  0
CLASS
  1
ACDBSECTIONVIEWSTYLE
  2
AcDbSectionViewStyle
  3
ObjectDBX Classes
 90
1025
 91
0
280
0
281
0
  0
CLASS
  1
RASTERVARIABLES
  2
AcDbRasterVariables
  3
ISM
 90
0
 91
0
280
0
281
0
  0
CLASS
  1
LAYOUT
  2
AcDbLayout
  3
ObjectDBX Classes
 90
0
 91
0
280
0
281
0
  0
CLASS
  1
ACDBPLACEHOLDER
  2
AcDbPlaceHolder
  3
ObjectDBX Classes
 90
0
 91
0
280
0
281
0
  0
ENDSEC
  0
SECTION
  2
TABLES
  0
TABLE
  2
VPORT
  5
8
330
0
100
AcDbSymbolTable
 70
1
  0
VPORT
  5
23
330
8
100
AcDbSymbolTableRecord
100
AcDbViewportTableRecord
  2
*Active
 70
0
 10
0.0
 20
0.0
 11
1.0
 21
1.0
 12
0.0
 22
0.0
 13
0.0
 23
0.0
 14
0.5
 24
0.5
 15
0.5
 25
0.5
 16
0.0
 26
0.0
 36
1.0
 17
0.0
 27
0.0
 37
0.0
 40
1000.0
 41
1.34
 42
50.0
 43
0.0
 44
0.0
 50
0.0
 51
0.0
 71
0
 72
1000
 73
1
 74
3
 75
0
 76
0
 77
0
 78
0
281
0
 65
0
146
0.0
  0
ENDTAB
  0
TABLE
  2
LTYPE
  5
2
330
0
100
AcDbSymbolTable
 70
3
  0
LTYPE
  5
24
330
2
100
AcDbSymbolTableRecord
100
AcDbLinetypeTableRecord
  2
ByBlock
 70
0
  3

 72
65
 73
0
 40
0.0
  0
LTYPE
  5
25
330
2
100
AcDbSymbolTableRecord
100
AcDbLinetypeTableRecord
  2
ByLayer
 70
0
  3

 72
65
 73
0
 40
0.0
  0
LTYPE
  5
26
330
2
100
AcDbSymbolTableRecord
100
AcDbLinetypeTableRecord
  2
Continuous
 70
0
  3

 72
65
 73
0
 40
0.0
  0
ENDTAB
  0
TABLE
  2
LAYER
  5
1
330
0
100
AcDbSymbolTable
 70
2
  0
LAYER
  5
27
330
1
100
AcDbSymbolTableRecord
100
AcDbLayerTableRecord
  2
0
 70
0
 62
7
  6
Continuous
370
-3
390
13
347
21
  0
LAYER
  5
28
330
1
100
AcDbSymbolTableRecord
100
AcDbLayerTableRecord
  2
Defpoints
 70
0
 62
7
  6
Continuous
290
0
370
-3
390
13
347
21
  0
ENDTAB
  0
TABLE
  2
STYLE
  5
5
330
0
100
AcDbSymbolTable
 70
1
  0
STYLE
  5
29
330
5
100
AcDbSymbolTableRecord
100
AcDbTextStyleTableRecord
  2
Standard
 70
0
 40
0.0
 41
1.0
 50
0.0
 71
0
 42
2.5
  3
txt
  4

  0
ENDTAB
  0
TABLE
  2
VIEW
  5
7
330
0
100
AcDbSymbolTable
 70
0
  0
ENDTAB
  0
TABLE
  2
UCS
  5
6
330
0
100
AcDbSymbolTable
 70
0
  0
ENDTAB
  0
TABLE
  2
APPID
  5
3
330
0
100
AcDbSymbolTable
 70
3
  0
APPID
  5
2A
330
3
100
AcDbSymbolTableRecord
100
AcDbRegAppTableRecord
  2
ACAD
 70
0
  0
APPID
  5
204
330
3
100
AcDbSymbolTableRecord
100
AcDbRegAppTableRecord
  2
HATCHBACKGROUNDCOLOR
 70
0
  0
APPID
  5
205
330
3
100
AcDbSymbolTableRecord
100
AcDbRegAppTableRecord
  2
EZDXF
 70
0
  0
ENDTAB
  0
TABLE
  2
DIMSTYLE
  5
4
330
0
100
AcDbSymbolTable
 70
1
100
AcDbDimStyleTable
  0
DIMSTYLE
105
2B
330
4
100
AcDbSymbolTableRecord
100
AcDbDimStyleTableRecord
  2
Standard
 70
0
 40
1.0
 41
2.5
 42
0.625
 43
3.75
 44
1.25
 45
0.0
 46
0.0
 47
0.0
 48
0.0
 49
2.5
140
2.5
141
2.5
142
0.0
143
0.03937007874
144
1.0
145
0.0
146
1.0
147
0.625
148
0.0
 69
0
 70
0
 71
0
 72
0
 73
0
 74
0
 75
0
 76
0
 77
1
 78
8
 79
3
170
0
171
3
172
1
173
0
174
0
175
0
176
0
177
0
178
0
179
2
271
2
272
2
273
2
274
3
275
0
276
0
277
2
278
44
279
0
280
0
281
0
282
0
283
0
284
8
285
0
286
0
288
0
289
3
290
0
371
-2
372
-2
  0
ENDTAB
  0
TABLE
  2
BLOCK_RECORD
  5
9
330
0
100
AcDbSymbolTable
 70
3
  0
BLOCK_RECORD
  5
17
330
9
100
AcDbSymbolTableRecord
100
AcDbBlockTableRecord
  2
*Model_Space
340
1A
 70
0
280
1
281
0
  0
BLOCK_RECORD
  5
1B
330
9
100
AcDbSymbolTableRecord
100
AcDbBlockTableRecord
  2
*Paper_Space
340
1E
 70
0
280
1
281
0
  0
BLOCK_RECORD
  5
2F
330
9
100
AcDbSymbolTableRecord
100
AcDbBlockTableRecord
  2
HEX
340
0
 70
0
280
1
281
0
  0
ENDTAB
  0
ENDSEC
  0
SECTION
  2
BLOCKS
  0
BLOCK
  5
18
330
17
100
AcDbEntity
  8
0
100
AcDbBlockBegin
  2
*Model_Space
 70
0
 10
0.0
 20
0.0
 30
0.0
  3
*Model_Space
  1

  0
ENDBLK
  5
19
330
17
100
AcDbEntity
  8
0
100
AcDbBlockEnd
  0
BLOCK
  5
1C
330
1B
100
AcDbEntity
  8
0
100
AcDbBlockBegin
  2
*Paper_Space
 70
0
 10
0.0
 20
0.0
 30
0.0
  3
*Paper_Space
  1

  0
ENDBLK
  5
1D
330
1B
100
AcDbEntity
  8
0
100
AcDbBlockEnd
  0
BLOCK
  5
30
330
2F
100
AcDbEntity
  8
0
100
AcDbBlockBegin
  2
HEX
 70
0
 10
0.0
 20
0.0
 30
0.0
  3
HEX
  1

  0
LWPOLYLINE
  5
32
330
2F
100
AcDbEntity
  8
0
100
AcDbPolyline
 90
6
 70
1
 10
1.516
 20
0.875
 10
0.0
 20
1.75
 10
-1.516
 20
0.875
 10
-1.516
 20
-0.875
 10
-0.0
 20
-1.75
 10
1.516
 20
-0.875
  0
ENDBLK
  5
31
330
2F
100
AcDbEntity
  8
0
100
AcDbBlockEnd
  0
ENDSEC
  0
SECTION
  2
ENTITIES
  0
LWPOLYLINE
  5
33
330
17
100
AcDbEntity
  8
0
100
AcDbPolyline
 90
11
 70
1
 10
123.548
 20
-137.308
 10
123.195
 20
-137.25
 10
122.851
 20
-137.165
 10
122.518
 20
-137.054
 10
122.196
 20
-136.917
 10
121.887
 20
-136.756
 10
121.653
 20
-136.61
 10
122.711
 20
-136.0
 10
124.226
 20
-136.875
 10
124.226
 20
-137.295
 10
123.548
 20
-137.308
  0
LWPOLYLINE
  5
34
330
17
100
AcDbEntity
  8
0
100
AcDbPolyline
 90
6
 70
1
 10
124.726
 20
-137.286
 10
124.726
 20
-136.875
 10
126.242
 20
-136.0
 10
127.757
 20
-136.875
 10
127.757
 20
-137.232
 10
124.726
 20
-137.286
  0
LWPOLYLINE
  5
35
330
17
100
AcDbEntity
  8
0
100
AcDbPolyline
 90
6
 70
1
 10
128.257
 20
-137.223
 10
128.257
 20
-136.875
 10
129.773
 20
-136.0
 10
131.288
 20
-136.875
 10
131.288
 20
-137.169
 10
128.257
 20
-137.223
  0
LWPOLYLINE
  5
36
330
17
100
AcDbEntity
  8
0
100
AcDbPolyline
 90
6
 70
1
 10
131.788
 20
-137.16
 10
131.788
 20
-136.875
 10
133.304
 20
-136.0
 10
134.819
 20
-136.875
 10
134.819
 20
-137.106
 10
131.788
 20
-137.16
  0
LWPOLYLINE
  5
37
330
17
100
AcDbEntity
  8
0
100
AcDbPolyline
 90
6
 70
1
 10
135.319
 20
-137.097
 10
135.319
 20
-136.875
 10
136.835
 20
-136.0
 10
138.35
 20
-136.875
 10
138.35
 20
-137.042
 10
135.319
 20
-137.097
  0
LWPOLYLINE
  5
38
330
17
100
AcDbEntity
  8
0
100
AcDbPolyline
 90
6
 70
1
 10
138.85
 20
-137.033
 10
138.85
 20
-136.875
 10
140.366
 20
-136.0
 10
141.882
 20
-136.875
 10
141.882
 20
-136.979
 10
138.85
 20
-137.033
  0
LWPOLYLINE
  5
39
330
17
100
AcDbEntity
  8
0
100
AcDbPolyline
 90
8
 70
1
 10
145.034
 20
-136.656
 10
144.74
 20
-136.794
 10
144.48
 20
-136.879
 10
144.207
 20
-136.937
 10
142.382
 20
-136.97
 10
142.382
 20
-136.875
 10
143.897
 20
-136.0
 10
145.034
 20
-136.656
  0
LWPOLYLINE
  5
3A
330
17
100
AcDbEntity
  8
0
100
AcDbPolyline
 90
13
 70
1
 10
121.052
 20
-136.138
 10
120.808
 20
-135.89
 10
120.584
 20
-135.623
 10
120.381
 20
-135.338
 10
120.199
 20
-135.035
 10
120.042
 20
-134.717
 10
119.91
 20
-134.383
 10
119.688
 20
-133.668
 10
120.945
 20
-132.942
 10
122.461
 20
-133.817
 10
122.461
 20
-135.567
 10
121.219
 20
-136.283
 10
121.052
 20
-136.138
  0
INSERT
  5
3B
330
17
100
AcDbEntity
  8
0
100
AcDbBlockReference
  2
HEX
 10
124.476
 20
-134.692
 30
0.0
  0
INSERT
  5
3D
330
17
100
AcDbEntity
  8
0
100
AcDbBlockReference
  2
HEX
 10
128.007
 20
-134.692
 30
0.0
  0
INSERT
  5
3F
330
17
100
AcDbEntity
  8
0
100
AcDbBlockReference
  2
HEX
 10
131.538
 20
-134.692
 30
0.0
  0
INSERT
  5
41
330
17
100
AcDbEntity
  8
0
100
AcDbBlockReference
  2
HEX
 10
135.069
 20
-134.692
 30
0.0
  0
INSERT
  5
43
330
17
100
AcDbEntity
  8
0
100
AcDbBlockReference
  2
HEX
 10
138.6
 20
-134.692
 30
0.0
  0
INSERT
  5
45
330
17
100
AcDbEntity
  8
0
100
AcDbBlockReference
  2
HEX
 10
142.132
 20
-134.692
 30
0.0
  0
LWPOLYLINE
  5
47
330
17
100
AcDbEntity
  8
0
100
AcDbPolyline
 90
16
 70
1
 10
146.475
 20
-133.985
 10
146.474
 20
-134.271
 10
146.448
 20
-134.551
 10
146.397
 20
-134.824
 10
146.323
 20
-135.088
 10
146.226
 20
-135.341
 10
146.106
 20
-135.583
 10
145.966
 20
-135.81
 10
145.806
 20
-136.022
 10
145.627
 20
-136.217
 10
145.489
 20
-136.341
 10
144.147
 20
-135.567
 10
144.147
 20
-133.817
 10
145.663
 20
-132.942
 10
146.416
 20
-133.377
 10
146.475
 20
-133.985
  0
LWPOLYLINE
  5
48
330
17
100
AcDbEntity
  8
0
100
AcDbPolyline
 90
6
 70
1
 10
118.619
 20
-130.207
 10
119.179
 20
-129.884
 10
120.695
 20
-130.759
 10
120.695
 20
-132.509
 10
119.536
 20
-133.178
 10
118.619
 20
-130.207
  0
INSERT
  5
49
330
17
100
AcDbEntity
  8
0
100
AcDbBlockReference
  2
HEX
 10
122.711
 20
-131.634
 30
0.0
  0
INSERT
  5
4B
330
17
100
AcDbEntity
  8
0
100
AcDbBlockReference
  2
HEX
 10
126.242
 20
-131.634
 30
0.0
  0
INSERT
  5
4D
330
17
100
AcDbEntity
  8
0
100
AcDbBlockReference
  2
HEX
 10
129.773
 20
-131.634
 30
0.0
  0
INSERT
  5
4F
330
17
100
AcDbEntity
  8
0
100
AcDbBlockReference
  2
HEX
 10
133.304
 20
-131.634
 30
0.0
  0
INSERT
  5
51
330
17
100
AcDbEntity
  8
0
100
AcDbBlockReference
  2
HEX
 10
136.835
 20
-131.634
 30
0.0
  0
INSERT
  5
53
330
17
100
AcDbEntity
  8
0
100
AcDbBlockReference
  2
HEX
 10
140.366
 20
-131.634
 30
0.0
  0
INSERT
  5
55
330
17
100
AcDbEntity
  8
0
100
AcDbBlockReference
  2
HEX
 10
143.897
 20
-131.634
 30
0.0
  0
LWPOLYLINE
  5
57
330
17
100
AcDbEntity
  8
0
100
AcDbPolyline
 90
5
 70
1
 10
146.357
 20
-132.765
 10
145.913
 20
-132.509
 10
145.913
 20
-130.759
 10
146.149
 20
-130.622
 10
146.357
 20
-132.765
  0
LWPOLYLINE
  5
58
330
17
100
AcDbEntity
  8
0
100
AcDbPolyline
 90
5
 70
1
 10
117.609
 20
-126.938
 10
118.929
 20
-127.701
 10
118.929
 20
-129.451
 10
118.468
 20
-129.717
 10
117.609
 20
-126.938
  0
INSERT
  5
59
330
17
100
AcDbEntity
  8
0
100
AcDbBlockReference
  2
HEX
 10
120.945
 20
-128.576
 30
0.0
  0
INSERT
  5
5B
330
17
100
AcDbEntity
  8
0
100
AcDbBlockReference
  2
HEX
 10
124.476
 20
-128.576
 30
0.0
  0
INSERT
  5
5D
330
17
100
AcDbEntity
  8
0
100
AcDbBlockReference
  2
HEX
 10
128.007
 20
-128.576
 30
0.0
  0
INSERT
  5
5F
330
17
100
AcDbEntity
  8
0
100
AcDbBlockReference
  2
HEX
 10
131.538
 20
-128.576
 30
0.0
  0
INSERT
  5
61
330
17
100
AcDbEntity
  8
0
100
AcDbBlockReference
  2
HEX
 10
135.069
 20
-128.576
 30
0.0
  0
INSERT
  5
63
330
17
100
AcDbEntity
  8
0
100
AcDbBlockReference
  2
HEX
 10
138.6
 20
-128.576
 30
0.0
  0
INSERT
  5
65
330
17
100
AcDbEntity
  8
0
100
AcDbBlockReference
  2
HEX
 10
142.132
 20
-128.576
 30
0.0
  0
LWPOLYLINE
  5
67
330
17
100
AcDbEntity
  8
0
100
AcDbPolyline
 90
7
 70
1
 10
146.095
 20
-130.076
 10
145.663
 20
-130.326
 10
144.147
 20
-129.451
 10
144.147
 20
-127.701
 10
145.663
 20
-126.826
 10
145.787
 20
-126.897
 10
146.095
 20
-130.076
  0
LWPOLYLINE
  5
68
330
17
100
AcDbEntity
  8
0
100
AcDbPolyline
 90
4
 70
1
 10
116.843
 20
-124.457
 10
117.164
 20
-124.643
 10
117.164
 20
-125.496
 10
116.843
 20
-124.457
  0
INSERT
  5
69
330
17
100
AcDbEntity
  8
0
100
AcDbBlockReference
  2
HEX
 10
119.179
 20
-125.518
 30
0.0
  0
INSERT
  5
6B
330
17
100
AcDbEntity
  8
0
100
AcDbBlockReference
  2
HEX
 10
122.711
 20
-125.518
 30
0.0
  0
INSERT
  5
6D
330
17
100
AcDbEntity
  8
0
100
AcDbBlockReference
  2
HEX
 10
126.242
 20
-125.518
 30
0.0
  0
INSERT
  5
6F
330
17
100
AcDbEntity
  8
0
100
AcDbBlockReference
  2
HEX
 10
129.773
 20
-125.518
 30
0.0
  0
INSERT
  5
71
330
17
100
AcDbEntity
  8
0
100
AcDbBlockReference
  2
HEX
 10
133.304
 20
-125.518
 30
0.0
  0
INSERT
  5
73
330
17
100
AcDbEntity
  8
0
100
AcDbBlockReference
  2
HEX
 10
136.835
 20
-125.518
 30
0.0
  0
INSERT
  5
75
330
17
100
AcDbEntity
  8
0
100
AcDbBlockReference
  2
HEX
 10
140.366
 20
-125.518
 30
0.0
  0
INSERT
  5
77
330
17
100
AcDbEntity
  8
0
100
AcDbBlockReference
  2
HEX
 10
143.897
 20
-125.518
 30
0.0
  0
LWPOLYLINE
  5
79
330
17
100
AcDbEntity
  8
0
100
AcDbPolyline
 90
7
 70
1
 10
115.947
 20
-121.556
 10
117.414
 20
-120.709
 10
118.929
 20
-121.584
 10
118.929
 20
-123.334
 10
117.414
 20
-124.209
 10
116.626
 20
-123.755
 10
115.947
 20
-121.556
  0
INSERT
  5
7A
330
17
100
AcDbEntity
  8
0
100
AcDbBlockReference
  2
HEX
 10
120.945
 20
-122.459
 30
0.0
  0
INSERT
  5
7C
330
17
100
AcDbEntity
  8
0
100
AcDbBlockReference
  2
HEX
 10
124.476
 20
-122.459
 30
0.0
  0
INSERT
  5
7E
330
17
100
AcDbEntity
  8
0
100
AcDbBlockReference
  2
HEX
 10
128.007
 20
-122.459
 30
0.0
  0
INSERT
  5
80
330
17
100
AcDbEntity
  8
0
100
AcDbBlockReference
  2
HEX
 10
131.538
 20
-122.459
 30
0.0
  0
INSERT
  5
82
330
17
100
AcDbEntity
  8
0
100
AcDbBlockReference
  2
HEX
 10
135.069
 20
-122.459
 30
0.0
  0
INSERT
  5
84
330
17
100
AcDbEntity
  8
0
100
AcDbBlockReference
  2
HEX
 10
138.6
 20
-122.459
 30
0.0
  0
INSERT
  5
86
330
17
100
AcDbEntity
  8
0
100
AcDbBlockReference
  2
HEX
 10
142.132
 20
-122.459
 30
0.0
  0
LWPOLYLINE
  5
88
330
17
100
AcDbEntity
  8
0
100
AcDbPolyline
 90
5
 70
1
 10
145.337
 20
-124.021
 10
144.147
 20
-123.334
 10
144.147
 20
-121.584
 10
144.822
 20
-121.195
 10
145.337
 20
-124.021
  0
LWPOLYLINE
  5
89
330
17
100
AcDbEntity
  8
0
100
AcDbPolyline
 90
6
 70
1
 10
114.879
 20
-118.096
 10
115.648
 20
-117.651
 10
117.164
 20
-118.526
 10
117.164
 20
-120.276
 10
115.796
 20
-121.066
 10
114.879
 20
-118.096
  0
INSERT
  5
8A
330
17
100
AcDbEntity
  8
0
100
AcDbBlockReference
  2
HEX
 10
119.179
 20
-119.401
 30
0.0
  0
INSERT
  5
8C
330
17
100
AcDbEntity
  8
0
100
AcDbBlockReference
  2
HEX
 10
122.711
 20
-119.401
 30
0.0
  0
INSERT
  5
8E
330
17
100
AcDbEntity
  8
0
100
AcDbBlockReference
  2
HEX
 10
126.242
 20
-119.401
 30
0.0
  0
INSERT
  5
90
330
17
100
AcDbEntity
  8
0
100
AcDbBlockReference
  2
HEX
 10
129.773
 20
-119.401
 30
0.0
  0
INSERT
  5
92
330
17
100
AcDbEntity
  8
0
100
AcDbBlockReference
  2
HEX
 10
133.304
 20
-119.401
 30
0.0
  0
INSERT
  5
94
330
17
100
AcDbEntity
  8
0
100
AcDbBlockReference
  2
HEX
 10
136.835
 20
-119.401
 30
0.0
  0
INSERT
  5
96
330
17
100
AcDbEntity
  8
0
100
AcDbBlockReference
  2
HEX
 10
140.366
 20
-119.401
 30
0.0
  0
LWPOLYLINE
  5
98
330
17
100
AcDbEntity
  8
0
100
AcDbPolyline
 90
8
 70
1
 10
144.561
 20
-119.756
 10
144.727
 20
-120.672
 10
143.897
 20
-121.151
 10
142.382
 20
-120.276
 10
142.382
 20
-118.526
 10
143.897
 20
-117.651
 10
143.967
 20
-117.692
 10
144.561
 20
-119.756
  0
LWPOLYLINE
  5
99
330
17
100
AcDbEntity
  8
0
100
AcDbPolyline
 90
6
 70
1
 10
113.81
 20
-114.636
 10
113.883
 20
-114.593
 10
115.398
 20
-115.468
 10
115.398
 20
-117.218
 10
114.727
 20
-117.606
 10
113.81
 20
-114.636
  0
INSERT
  5
9A
330
17
100
AcDbEntity
  8
0
100
AcDbBlockReference
  2
HEX
 10
117.414
 20
-116.343
 30
0.0
  0
INSERT
  5
9C
330
17
100
AcDbEntity
  8
0
100
AcDbBlockReference
  2
HEX
 10
120.945
 20
-116.343
 30
0.0
  0
INSERT
  5
9E
330
17
100
AcDbEntity
  8
0
100
AcDbBlockReference
  2
HEX
 10
124.476
 20
-116.343
 30
0.0
  0
INSERT
  5
A0
330
17
100
AcDbEntity
  8
0
100
AcDbBlockReference
  2
HEX
 10
128.007
 20
-116.343
 30
0.0
  0
INSERT
  5
A2
330
17
100
AcDbEntity
  8
0
100
AcDbBlockReference
  2
HEX
 10
131.538
 20
-116.343
 30
0.0
  0
INSERT
  5
A4
330
17
100
AcDbEntity
  8
0
100
AcDbBlockReference
  2
HEX
 10
135.069
 20
-116.343
 30
0.0
  0
INSERT
  5
A6
330
17
100
AcDbEntity
  8
0
100
AcDbBlockReference
  2
HEX
 10
138.6
 20
-116.343
 30
0.0
  0
LWPOLYLINE
  5
A8
330
17
100
AcDbEntity
  8
0
100
AcDbPolyline
 90
8
 70
1
 10
143.647
 20
-116.58
 10
143.647
 20
-117.218
 10
142.132
 20
-118.093
 10
140.616
 20
-117.218
 10
140.616
 20
-115.468
 10
142.132
 20
-114.593
 10
143.264
 20
-115.247
 10
143.647
 20
-116.58
  0
LWPOLYLINE
  5
A9
330
17
100
AcDbEntity
  8
0
100
AcDbPolyline
 90
4
 70
1
 10
113.012
 20
-112.052
 10
113.633
 20
-112.41
 10
113.633
 20
-114.062
 10
113.012
 20
-112.052
  0
INSERT
  5
AA
330
17
100
AcDbEntity
  8
0
100
AcDbBlockReference
  2
HEX
 10
115.648
 20
-113.285
 30
0.0
  0
INSERT
  5
AC
330
17
100
AcDbEntity
  8
0
100
AcDbBlockReference
  2
HEX
 10
119.179
 20
-113.285
 30
0.0
  0
INSERT
  5
AE
330
17
100
AcDbEntity
  8
0
100
AcDbBlockReference
  2
HEX
 10
122.711
 20
-113.285
 30
0.0
  0
INSERT
  5
B0
330
17
100
AcDbEntity
  8
0
100
AcDbBlockReference
  2
HEX
 10
126.242
 20
-113.285
 30
0.0
  0
INSERT
  5
B2
330
17
100
AcDbEntity
  8
0
100
AcDbBlockReference
  2
HEX
 10
129.773
 20
-113.285
 30
0.0
  0
INSERT
  5
B4
330
17
100
AcDbEntity
  8
0
100
AcDbBlockReference
  2
HEX
 10
133.304
 20
-113.285
 30
0.0
  0
INSERT
  5
B6
330
17
100
AcDbEntity
  8
0
100
AcDbBlockReference
  2
HEX
 10
136.835
 20
-113.285
 30
0.0
  0
INSERT
  5
B8
330
17
100
AcDbEntity
  8
0
100
AcDbBlockReference
  2
HEX
 10
140.366
 20
-113.285
 30
0.0
  0
LWPOLYLINE
  5
BA
330
17
100
AcDbEntity
  8
0
100
AcDbPolyline
 90
4
 70
1
 10
142.999
 20
-114.517
 10
142.382
 20
-114.16
 10
142.382
 20
-113.093
 10
142.999
 20
-114.517
  0
LWPOLYLINE
  5
BB
330
17
100
AcDbEntity
  8
0
100
AcDbPolyline
 90
8
 70
1
 10
112.367
 20
-109.964
 10
112.367
 20
-109.352
 10
113.883
 20
-108.477
 10
115.398
 20
-109.352
 10
115.398
 20
-111.102
 10
113.883
 20
-111.977
 10
112.795
 20
-111.349
 10
112.367
 20
-109.964
  0
INSERT
  5
BC
330
17
100
AcDbEntity
  8
0
100
AcDbBlockReference
  2
HEX
 10
117.414
 20
-110.227
 30
0.0
  0
INSERT
  5
BE
330
17
100
AcDbEntity
  8
0
100
AcDbBlockReference
  2
HEX
 10
120.945
 20
-110.227
 30
0.0
  0
INSERT
  5
C0
330
17
100
AcDbEntity
  8
0
100
AcDbBlockReference
  2
HEX
 10
124.476
 20
-110.227
 30
0.0
  0
INSERT
  5
C2
330
17
100
AcDbEntity
  8
0
100
AcDbBlockReference
  2
HEX
 10
128.007
 20
-110.227
 30
0.0
  0
INSERT
  5
C4
330
17
100
AcDbEntity
  8
0
100
AcDbBlockReference
  2
HEX
 10
131.538
 20
-110.227
 30
0.0
  0
INSERT
  5
C6
330
17
100
AcDbEntity
  8
0
100
AcDbBlockReference
  2
HEX
 10
135.069
 20
-110.227
 30
0.0
  0
INSERT
  5
C8
330
17
100
AcDbEntity
  8
0
100
AcDbBlockReference
  2
HEX
 10
138.6
 20
-110.227
 30
0.0
  0
LWPOLYLINE
  5
CA
330
17
100
AcDbEntity
  8
0
100
AcDbPolyline
 90
5
 70
1
 10
141.819
 20
-111.797
 10
140.616
 20
-111.102
 10
140.616
 20
-109.352
 10
140.731
 20
-109.286
 10
141.819
 20
-111.797
  0
LWPOLYLINE
  5
CB
330
17
100
AcDbEntity
  8
0
100
AcDbPolyline
 90
7
 70
1
 10
111.138
 20
-105.985
 10
112.117
 20
-105.419
 10
113.633
 20
-106.294
 10
113.633
 20
-108.044
 10
112.117
 20
-108.919
 10
112.029
 20
-108.868
 10
111.138
 20
-105.985
  0
INSERT
  5
CC
330
17
100
AcDbEntity
  8
0
100
AcDbBlockReference
  2
HEX
 10
115.648
 20
-107.169
 30
0.0
  0
INSERT
  5
CE
330
17
100
AcDbEntity
  8
0
100
AcDbBlockReference
  2
HEX
 10
119.179
 20
-107.169
 30
0.0
  0
INSERT
  5
D0
330
17
100
AcDbEntity
  8
0
100
AcDbBlockReference
  2
HEX
 10
122.711
 20
-107.169
 30
0.0
  0
INSERT
  5
D2
330
17
100
AcDbEntity
  8
0
100
AcDbBlockReference
  2
HEX
 10
126.242
 20
-107.169
 30
0.0
  0
INSERT
  5
D4
330
17
100
AcDbEntity
  8
0
100
AcDbBlockReference
  2
HEX
 10
129.773
 20
-107.169
 30
0.0
  0
INSERT
  5
D6
330
17
100
AcDbEntity
  8
0
100
AcDbBlockReference
  2
HEX
 10
133.304
 20
-107.169
 30
0.0
  0
INSERT
  5
D8
330
17
100
AcDbEntity
  8
0
100
AcDbBlockReference
  2
HEX
 10
136.835
 20
-107.169
 30
0.0
  0
LWPOLYLINE
  5
DA
330
17
100
AcDbEntity
  8
0
100
AcDbPolyline
 90
6
 70
1
 10
140.53
 20
-108.824
 10
140.366
 20
-108.919
 10
138.85
 20
-108.044
 10
138.85
 20
-106.294
 10
139.317
 20
-106.025
 10
140.53
 20
-108.824
  0
LWPOLYLINE
  5
DB
330
17
100
AcDbEntity
  8
0
100
AcDbPolyline
 90
6
 70
1
 10
110.07
 20
-102.524
 10
110.352
 20
-102.361
 10
111.867
 20
-103.236
 10
111.867
 20
-104.986
 10
110.987
 20
-105.495
 10
110.07
 20
-102.524
  0
INSERT
  5
DC
330
17
100
AcDbEntity
  8
0
100
AcDbBlockReference
  2
HEX
 10
113.883
 20
-104.111
 30
0.0
  0
INSERT
  5
DE
330
17
100
AcDbEntity
  8
0
100
AcDbBlockReference
  2
HEX
 10
117.414
 20
-104.111
 30
0.0
  0
INSERT
  5
E0
330
17
100
AcDbEntity
  8
0
100
AcDbBlockReference
  2
HEX
 10
120.945
 20
-104.111
 30
0.0
  0
INSERT
  5
E2
330
17
100
AcDbEntity
  8
0
100
AcDbBlockReference
  2
HEX
 10
124.476
 20
-104.111
 30
0.0
  0
INSERT
  5
E4
330
17
100
AcDbEntity
  8
0
100
AcDbBlockReference
  2
HEX
 10
128.007
 20
-104.111
 30
0.0
  0
INSERT
  5
E6
330
17
100
AcDbEntity
  8
0
100
AcDbBlockReference
  2
HEX
 10
131.538
 20
-104.111
 30
0.0
  0
INSERT
  5
E8
330
17
100
AcDbEntity
  8
0
100
AcDbBlockReference
  2
HEX
 10
135.069
 20
-104.111
 30
0.0
  0
LWPOLYLINE
  5
EA
330
17
100
AcDbEntity
  8
0
100
AcDbPolyline
 90
6
 70
1
 10
139.117
 20
-105.563
 10
138.6
 20
-105.861
 10
137.085
 20
-104.986
 10
137.085
 20
-103.236
 10
137.903
 20
-102.764
 10
139.117
 20
-105.563
  0
LWPOLYLINE
  5
EB
330
17
100
AcDbEntity
  8
0
100
AcDbPolyline
 90
5
 70
1
 10
109.181
 20
-99.647
 10
110.102
 20
-100.178
 10
110.102
 20
-101.928
 10
109.918
 20
-102.034
 10
109.181
 20
-99.647
  0
INSERT
  5
EC
330
17
100
AcDbEntity
  8
0
100
AcDbBlockReference
  2
HEX
 10
112.117
 20
-101.053
 30
0.0
  0
INSERT
  5
EE
330
17
100
AcDbEntity
  8
0
100
AcDbBlockReference
  2
HEX
 10
115.648
 20
-101.053
 30
0.0
  0
INSERT
  5
F0
330
17
100
AcDbEntity
  8
0
100
AcDbBlockReference
  2
HEX
 10
119.179
 20
-101.053
 30
0.0
  0
INSERT
  5
F2
330
17
100
AcDbEntity
  8
0
100
AcDbBlockReference
  2
HEX
 10
122.711
 20
-101.053
 30
0.0
  0
INSERT
  5
F4
330
17
100
AcDbEntity
  8
0
100
AcDbBlockReference
  2
HEX
 10
126.242
 20
-101.053
 30
0.0
  0
INSERT
  5
F6
330
17
100
AcDbEntity
  8
0
100
AcDbBlockReference
  2
HEX
 10
129.773
 20
-101.053
 30
0.0
  0
INSERT
  5
F8
330
17
100
AcDbEntity
  8
0
100
AcDbBlockReference
  2
HEX
 10
133.304
 20
-101.053
 30
0.0
  0
LWPOLYLINE
  5
FA
330
17
100
AcDbEntity
  8
0
100
AcDbPolyline
 90
6
 70
1
 10
137.703
 20
-102.302
 10
136.835
 20
-102.803
 10
135.319
 20
-101.928
 10
135.319
 20
-100.178
 10
136.489
 20
-99.503
 10
137.703
 20
-102.302
  0
LWPOLYLINE
  5
FB
330
17
100
AcDbEntity
  8
0
100
AcDbPolyline
 90
8
 70
1
 10
108.836
 20
-98.53
 10
108.836
 20
-97.12
 10
110.352
 20
-96.245
 10
111.867
 20
-97.12
 10
111.867
 20
-98.87
 10
110.352
 20
-99.745
 10
108.964
 20
-98.944
 10
108.836
 20
-98.53
  0
INSERT
  5
FC
330
17
100
AcDbEntity
  8
0
100
AcDbBlockReference
  2
HEX
 10
113.883
 20
-97.995
 30
0.0
  0
INSERT
  5
FE
330
17
100
AcDbEntity
  8
0
100
AcDbBlockReference
  2
HEX
 10
117.414
 20
-97.995
 30
0.0
  0
INSERT
  5
100
330
17
100
AcDbEntity
  8
0
100
AcDbBlockReference
  2
HEX
 10
120.945
 20
-97.995
 30
0.0
  0
INSERT
  5
102
330
17
100
AcDbEntity
  8
0
100
AcDbBlockReference
  2
HEX
 10
124.476
 20
-97.995
 30
0.0
  0
INSERT
  5
104
330
17
100
AcDbEntity
  8
0
100
AcDbBlockReference
  2
HEX
 10
128.007
 20
-97.995
 30
0.0
  0
INSERT
  5
106
330
17
100
AcDbEntity
  8
0
100
AcDbBlockReference
  2
HEX
 10
131.538
 20
-97.995
 30
0.0
  0
LWPOLYLINE
  5
108
330
17
100
AcDbEntity
  8
0
100
AcDbPolyline
 90
6
 70
1
 10
136.289
 20
-99.041
 10
135.069
 20
-99.745
 10
133.554
 20
-98.87
 10
133.554
 20
-97.12
 10
135.079
 20
-96.251
 10
136.289
 20
-99.041
  0
LWPOLYLINE
  5
109
330
17
100
AcDbEntity
  8
0
100
AcDbPolyline
 90
9
 70
1
 10
107.713
 20
-93.913
 10
107.714
 20
-93.691
 10
108.586
 20
-93.187
 10
110.102
 20
-94.062
 10
110.102
 20
-95.812
 10
108.586
 20
-96.687
 10
108.198
 20
-96.463
 10
107.89
 20
-95.468
 10
107.713
 20
-93.913
  0
INSERT
  5
10A
330
17
100
AcDbEntity
  8
0
100
AcDbBlockReference
  2
HEX
 10
112.117
 20
-94.937
 30
0.0
  0
INSERT
  5
10C
330
17
100
AcDbEntity
  8
0
100
AcDbBlockReference
  2
HEX
 10
115.648
 20
-94.937
 30
0.0
  0
INSERT
  5
10E
330
17
100
AcDbEntity
  8
0
100
AcDbBlockReference
  2
HEX
 10
119.179
 20
-94.937
 30
0.0
  0
INSERT
  5
110
330
17
100
AcDbEntity
  8
0
100
AcDbBlockReference
  2
HEX
 10
122.711
 20
-94.937
 30
0.0
  0
INSERT
  5
112
330
17
100
AcDbEntity
  8
0
100
AcDbBlockReference
  2
HEX
 10
126.242
 20
-94.937
 30
0.0
  0
INSERT
  5
114
330
17
100
AcDbEntity
  8
0
100
AcDbBlockReference
  2
HEX
 10
129.773
 20
-94.937
 30
0.0
  0
LWPOLYLINE
  5
116
330
17
100
AcDbEntity
  8
0
100
AcDbPolyline
 90
8
 70
1
 10
134.819
 20
-95.653
 10
134.819
 20
-95.812
 10
133.304
 20
-96.687
 10
131.788
 20
-95.812
 10
131.788
 20
-94.062
 10
133.304
 20
-93.187
 10
133.9
 20
-93.531
 10
134.819
 20
-95.653
  0
LWPOLYLINE
  5
117
330
17
100
AcDbEntity
  8
0
100
AcDbPolyline
 90
7
 70
1
 10
107.719
 20
-92.35
 10
107.9
 20
-90.796
 10
107.909
 20
-90.758
 10
108.336
 20
-91.004
 10
108.336
 20
-92.754
 10
107.716
 20
-93.112
 10
107.719
 20
-92.35
  0
INSERT
  5
118
330
17
100
AcDbEntity
  8
0
100
AcDbBlockReference
  2
HEX
 10
110.352
 20
-91.879
 30
0.0
  0
INSERT
  5
11A
330
17
100
AcDbEntity
  8
0
100
AcDbBlockReference
  2
HEX
 10
113.883
 20
-91.879
 30
0.0
  0
INSERT
  5
11C
330
17
100
AcDbEntity
  8
0
100
AcDbBlockReference
  2
HEX
 10
117.414
 20
-91.879
 30
0.0
  0
INSERT
  5
11E
330
17
100
AcDbEntity
  8
0
100
AcDbBlockReference
  2
HEX
 10
120.945
 20
-91.879
 30
0.0
  0
INSERT
  5
120
330
17
100
AcDbEntity
  8
0
100
AcDbBlockReference
  2
HEX
 10
124.476
 20
-91.879
 30
0.0
  0
INSERT
  5
122
330
17
100
AcDbEntity
  8
0
100
AcDbBlockReference
  2
HEX
 10
128.007
 20
-91.879
 30
0.0
  0
LWPOLYLINE
  5
124
330
17
100
AcDbEntity
  8
0
100
AcDbPolyline
 90
8
 70
1
 10
133.054
 20
-91.492
 10
133.054
 20
-92.754
 10
131.538
 20
-93.629
 10
130.023
 20
-92.754
 10
130.023
 20
-91.004
 10
131.538
 20
-90.129
 10
132.821
 20
-90.87
 10
133.054
 20
-91.492
  0
LWPOLYLINE
  5
125
330
17
100
AcDbEntity
  8
0
100
AcDbPolyline
 90
8
 70
1
 10
108.247
 20
-89.264
 10
108.752
 20
-87.771
 10
108.969
 20
-87.293
 10
110.102
 20
-87.946
 10
110.102
 20
-89.696
 10
108.586
 20
-90.571
 10
108.024
 20
-90.247
 10
108.247
 20
-89.264
  0
INSERT
  5
126
330
17
100
AcDbEntity
  8
0
100
AcDbBlockReference
  2
HEX
 10
112.117
 20
-88.821
 30
0.0
  0
INSERT
  5
128
330
17
100
AcDbEntity
  8
0
100
AcDbBlockReference
  2
HEX
 10
115.648
 20
-88.821
 30
0.0
  0
INSERT
  5
12A
330
17
100
AcDbEntity
  8
0
100
AcDbBlockReference
  2
HEX
 10
119.179
 20
-88.821
 30
0.0
  0
INSERT
  5
12C
330
17
100
AcDbEntity
  8
0
100
AcDbBlockReference
  2
HEX
 10
122.711
 20
-88.821
 30
0.0
  0
INSERT
  5
12E
330
17
100
AcDbEntity
  8
0
100
AcDbBlockReference
  2
HEX
 10
126.242
 20
-88.821
 30
0.0
  0
INSERT
  5
130
330
17
100
AcDbEntity
  8
0
100
AcDbBlockReference
  2
HEX
 10
129.773
 20
-88.821
 30
0.0
  0
LWPOLYLINE
  5
132
330
17
100
AcDbEntity
  8
0
100
AcDbPolyline
 90
6
 70
1
 10
132.19
 20
-88.52
 10
132.602
 20
-90.166
 10
131.788
 20
-89.696
 10
131.788
 20
-87.946
 10
132.088
 20
-87.773
 10
132.19
 20
-88.52
  0
LWPOLYLINE
  5
133
330
17
100
AcDbEntity
  8
0
100
AcDbPolyline
 90
7
 70
1
 10
109.406
 20
-86.331
 10
110.659
 20
-84.19
 10
111.867
 20
-84.888
 10
111.867
 20
-86.638
 10
110.352
 20
-87.513
 10
109.177
 20
-86.835
 10
109.406
 20
-86.331
  0
INSERT
  5
134
330
17
100
AcDbEntity
  8
0
100
AcDbBlockReference
  2
HEX
 10
113.883
 20
-85.763
 30
0.0
  0
INSERT
  5
136
330
17
100
AcDbEntity
  8
0
100
AcDbBlockReference
  2
HEX
 10
117.414
 20
-85.763
 30
0.0
  0
INSERT
  5
138
330
17
100
AcDbEntity
  8
0
100
AcDbBlockReference
  2
HEX
 10
120.945
 20
-85.763
 30
0.0
  0
INSERT
  5
13A
330
17
100
AcDbEntity
  8
0
100
AcDbBlockReference
  2
HEX
 10
124.476
 20
-85.763
 30
0.0
  0
INSERT
  5
13C
330
17
100
AcDbEntity
  8
0
100
AcDbBlockReference
  2
HEX
 10
128.007
 20
-85.763
 30
0.0
  0
LWPOLYLINE
  5
13E
330
17
100
AcDbEntity
  8
0
100
AcDbPolyline
 90
9
 70
1
 10
131.789
 20
-84.403
 10
131.829
 20
-85.877
 10
132.015
 20
-87.238
 10
131.538
 20
-87.513
 10
130.023
 20
-86.638
 10
130.023
 20
-84.888
 10
131.538
 20
-84.013
 10
131.803
 20
-84.166
 10
131.789
 20
-84.403
  0
LWPOLYLINE
  5
13F
330
17
100
AcDbEntity
  8
0
100
AcDbPolyline
 90
9
 70
1
 10
111.339
 20
-82.843
 10
111.804
 20
-81.639
 10
111.98
 20
-81.035
 10
112.117
 20
-80.955
 10
113.633
 20
-81.83
 10
113.633
 20
-83.58
 10
112.117
 20
-84.455
 10
110.897
 20
-83.751
 10
111.339
 20
-82.843
  0
INSERT
  5
140
330
17
100
AcDbEntity
  8
0
100
AcDbBlockReference
  2
HEX
 10
115.648
 20
-82.705
 30
0.0
  0
INSERT
  5
142
330
17
100
AcDbEntity
  8
0
100
AcDbBlockReference
  2
HEX
 10
119.179
 20
-82.705
 30
0.0
  0
INSERT
  5
144
330
17
100
AcDbEntity
  8
0
100
AcDbBlockReference
  2
HEX
 10
122.711
 20
-82.705
 30
0.0
  0
INSERT
  5
146
330
17
100
AcDbEntity
  8
0
100
AcDbBlockReference
  2
HEX
 10
126.242
 20
-82.705
 30
0.0
  0
INSERT
  5
148
330
17
100
AcDbEntity
  8
0
100
AcDbBlockReference
  2
HEX
 10
129.773
 20
-82.705
 30
0.0
  0
LWPOLYLINE
  5
14A
330
17
100
AcDbEntity
  8
0
100
AcDbPolyline
 90
6
 70
1
 10
132.089
 20
-81.657
 10
131.874
 20
-83.014
 10
131.838
 20
-83.609
 10
131.788
 20
-83.58
 10
131.788
 20
-81.83
 10
132.089
 20
-81.657
  0
LWPOLYLINE
  5
14B
330
17
100
AcDbEntity
  8
0
100
AcDbPolyline
 90
9
 70
1
 10
112.472
 20
-78.888
 10
112.494
 20
-78.699
 10
113.883
 20
-77.897
 10
115.398
 20
-78.772
 10
115.398
 20
-80.522
 10
113.883
 20
-81.397
 10
112.367
 20
-80.522
 10
112.367
 20
-79.415
 10
112.472
 20
-78.888
  0
INSERT
  5
14C
330
17
100
AcDbEntity
  8
0
100
AcDbBlockReference
  2
HEX
 10
117.414
 20
-79.647
 30
0.0
  0
INSERT
  5
14E
330
17
100
AcDbEntity
  8
0
100
AcDbBlockReference
  2
HEX
 10
120.945
 20
-79.647
 30
0.0
  0
INSERT
  5
150
330
17
100
AcDbEntity
  8
0
100
AcDbBlockReference
  2
HEX
 10
124.476
 20
-79.647
 30
0.0
  0
INSERT
  5
152
330
17
100
AcDbEntity
  8
0
100
AcDbBlockReference
  2
HEX
 10
128.007
 20
-79.647
 30
0.0
  0
LWPOLYLINE
  5
154
330
17
100
AcDbEntity
  8
0
100
AcDbPolyline
 90
9
 70
1
 10
132.81
 20
-79.288
 10
132.392
 20
-80.463
 10
132.26
 20
-80.98
 10
131.538
 20
-81.397
 10
130.023
 20
-80.522
 10
130.023
 20
-78.772
 10
131.538
 20
-77.897
 10
133.054
 20
-78.772
 10
132.81
 20
-79.288
  0
LWPOLYLINE
  5
155
330
17
100
AcDbEntity
  8
0
100
AcDbPolyline
 90
7
 70
1
 10
57.669
 20
-75.878
 10
57.635
 20
-75.846
 10
57.635
 20
-75.714
 10
59.151
 20
-74.839
 10
60.666
 20
-75.714
 10
60.666
 20
-75.87
 10
57.669
 20
-75.878
  0
LWPOLYLINE
  5
156
330
17
100
AcDbEntity
  8
0
100
AcDbPolyline
 90
6
 70
1
 10
61.166
 20
-75.869
 10
61.166
 20
-75.714
 10
62.682
 20
-74.839
 10
64.198
 20
-75.714
 10
64.198
 20
-75.861
 10
61.166
 20
-75.869
  0
LWPOLYLINE
  5
157
330
17
100
AcDbEntity
  8
0
100
AcDbPolyline
 90
6
 70
1
 10
64.698
 20
-75.86
 10
64.698
 20
-75.714
 10
66.213
 20
-74.839
 10
67.729
 20
-75.714
 10
67.729
 20
-75.852
 10
64.698
 20
-75.86
  0
LWPOLYLINE
  5
158
330
17
100
AcDbEntity
  8
0
100
AcDbPolyline
 90
6
 70
1
 10
68.229
 20
-75.851
 10
68.229
 20
-75.714
 10
69.744
 20
-74.839
 10
71.26
 20
-75.714
 10
71.26
 20
-75.843
 10
68.229
 20
-75.851
  0
LWPOLYLINE
  5
159
330
17
100
AcDbEntity
  8
0
100
AcDbPolyline
 90
6
 70
1
 10
71.76
 20
-75.842
 10
71.76
 20
-75.714
 10
73.275
 20
-74.839
 10
74.791
 20
-75.714
 10
74.791
 20
-75.835
 10
71.76
 20
-75.842
  0
LWPOLYLINE
  5
15A
330
17
100
AcDbEntity
  8
0
100
AcDbPolyline
 90
6
 70
1
 10
75.291
 20
-75.833
 10
75.291
 20
-75.714
 10
76.806
 20
-74.839
 10
78.322
 20
-75.714
 10
78.322
 20
-75.826
 10
75.291
 20
-75.833
  0
LWPOLYLINE
  5
15B
330
17
100
AcDbEntity
  8
0
100
AcDbPolyline
 90
6
 70
1
 10
78.822
 20
-75.824
 10
78.822
 20
-75.714
 10
80.337
 20
-74.839
 10
81.853
 20
-75.714
 10
81.853
 20
-75.817
 10
78.822
 20
-75.824
  0
LWPOLYLINE
  5
15C
330
17
100
AcDbEntity
  8
0
100
AcDbPolyline
 90
6
 70
1
 10
82.353
 20
-75.815
 10
82.353
 20
-75.714
 10
83.869
 20
-74.839
 10
85.384
 20
-75.714
 10
85.384
 20
-75.808
 10
82.353
 20
-75.815
  0
LWPOLYLINE
  5
15D
330
17
100
AcDbEntity
  8
0
100
AcDbPolyline
 90
6
 70
1
 10
85.884
 20
-75.807
 10
85.884
 20
-75.714
 10
87.4
 20
-74.839
 10
88.915
 20
-75.714
 10
88.915
 20
-75.799
 10
85.884
 20
-75.807
  0
LWPOLYLINE
  5
15E
330
17
100
AcDbEntity
  8
0
100
AcDbPolyline
 90
10
 70
1
 10
92.29
 20
-76.285
 10
91.356
 20
-76.003
 10
90.514
 20
-75.854
 10
89.83
 20
-75.797
 10
89.415
 20
-75.798
 10
89.415
 20
-75.714
 10
90.931
 20
-74.839
 10
92.446
 20
-75.714
 10
92.446
 20
-76.35
 10
92.29
 20
-76.285
  0
LWPOLYLINE
  5
15F
330
17
100
AcDbEntity
  8
0
100
AcDbPolyline
 90
11
 70
1
 10
94.976
 20
-78.043
 10
94.824
 20
-78.13
 10
94.587
 20
-77.827
 10
94.165
 20
-77.403
 10
93.716
 20
-77.042
 10
93.249
 20
-76.738
 10
92.946
 20
-76.579
 10
92.946
 20
-75.714
 10
94.462
 20
-74.839
 10
95.007
 20
-75.154
 10
94.976
 20
-78.043
  0
LWPOLYLINE
  5
160
330
17
100
AcDbEntity
  8
0
100
AcDbPolyline
 90
6
 70
1
 10
112.654
 20
-77.32
 10
112.653
 20
-75.149
 10
113.633
 20
-75.714
 10
113.633
 20
-77.464
 10
112.566
 20
-78.08
 10
112.654
 20
-77.32
  0
INSERT
  5
161
330
17
100
AcDbEntity
  8
0
100
AcDbBlockReference
  2
HEX
 10
115.648
 20
-76.589
 30
0.0
  0
INSERT
  5
163
330
17
100
AcDbEntity
  8
0
100
AcDbBlockReference
  2
HEX
 10
119.179
 20
-76.589
 30
0.0
  0
INSERT
  5
165
330
17
100
AcDbEntity
  8
0
100
AcDbBlockReference
  2
HEX
 10
122.711
 20
-76.589
 30
0.0
  0
INSERT
  5
167
330
17
100
AcDbEntity
  8
0
100
AcDbBlockReference
  2
HEX
 10
126.242
 20
-76.589
 30
0.0
  0
INSERT
  5
169
330
17
100
AcDbEntity
  8
0
100
AcDbBlockReference
  2
HEX
 10
129.773
 20
-76.589
 30
0.0
  0
LWPOLYLINE
  5
16B
330
17
100
AcDbEntity
  8
0
100
AcDbPolyline
 90
9
 70
1
 10
134.232
 20
-75.782
 10
134.116
 20
-76.401
 10
133.913
 20
-77.019
 10
133.278
 20
-78.325
 10
131.788
 20
-77.464
 10
131.788
 20
-75.714
 10
133.304
 20
-74.839
 10
134.252
 20
-75.387
 10
134.232
 20
-75.782
  0
LWPOLYLINE
  5
16C
330
17
100
AcDbEntity
  8
0
100
AcDbPolyline
 90
11
 70
1
 10
55.37
 20
-74.175
 10
54.322
 20
-73.685
 10
53.604
 20
-73.425
 10
53.541
 20
-73.376
 10
53.498
 20
-73.296
 10
53.493
 20
-73.207
 10
53.517
 20
-73.136
 10
53.597
 20
-73.057
 10
54.963
 20
-72.421
 10
55.37
 20
-72.656
 10
55.37
 20
-74.175
  0
INSERT
  5
16D
330
17
100
AcDbEntity
  8
0
100
AcDbBlockReference
  2
HEX
 10
57.385
 20
-73.531
 30
0.0
  0
INSERT
  5
16F
330
17
100
AcDbEntity
  8
0
100
AcDbBlockReference
  2
HEX
 10
60.916
 20
-73.531
 30
0.0
  0
INSERT
  5
171
330
17
100
AcDbEntity
  8
0
100
AcDbBlockReference
  2
HEX
 10
64.448
 20
-73.531
 30
0.0
  0
INSERT
  5
173
330
17
100
AcDbEntity
  8
0
100
AcDbBlockReference
  2
HEX
 10
67.979
 20
-73.531
 30
0.0
  0
INSERT
  5
175
330
17
100
AcDbEntity
  8
0
100
AcDbBlockReference
  2
HEX
 10
71.51
 20
-73.531
 30
0.0
  0
INSERT
  5
177
330
17
100
AcDbEntity
  8
0
100
AcDbBlockReference
  2
HEX
 10
75.041
 20
-73.531
 30
0.0
  0
INSERT
  5
179
330
17
100
AcDbEntity
  8
0
100
AcDbBlockReference
  2
HEX
 10
78.572
 20
-73.531
 30
0.0
  0
INSERT
  5
17B
330
17
100
AcDbEntity
  8
0
100
AcDbBlockReference
  2
HEX
 10
82.103
 20
-73.531
 30
0.0
  0
INSERT
  5
17D
330
17
100
AcDbEntity
  8
0
100
AcDbBlockReference
  2
HEX
 10
85.634
 20
-73.531
 30
0.0
  0
INSERT
  5
17F
330
17
100
AcDbEntity
  8
0
100
AcDbBlockReference
  2
HEX
 10
89.165
 20
-73.531
 30
0.0
  0
INSERT
  5
181
330
17
100
AcDbEntity
  8
0
100
AcDbBlockReference
  2
HEX
 10
92.696
 20
-73.531
 30
0.0
  0
LWPOLYLINE
  5
183
330
17
100
AcDbEntity
  8
0
100
AcDbPolyline
 90
5
 70
1
 10
95.013
 20
-74.58
 10
94.712
 20
-74.406
 10
94.712
 20
-72.656
 10
95.036
 20
-72.469
 10
95.013
 20
-74.58
  0
LWPOLYLINE
  5
184
330
17
100
AcDbEntity
  8
0
100
AcDbPolyline
 90
10
 70
1
 10
112.653
 20
-73.396
 10
112.686
 20
-73.051
 10
112.756
 20
-72.716
 10
112.873
 20
-72.364
 10
113.883
 20
-71.781
 10
115.398
 20
-72.656
 10
115.398
 20
-74.406
 10
113.883
 20
-75.281
 10
112.653
 20
-74.571
 10
112.653
 20
-73.396
  0
INSERT
  5
185
330
17
100
AcDbEntity
  8
0
100
AcDbBlockReference
  2
HEX
 10
117.414
 20
-73.531
 30
0.0
  0
INSERT
  5
187
330
17
100
AcDbEntity
  8
0
100
AcDbBlockReference
  2
HEX
 10
120.945
 20
-73.531
 30
0.0
  0
INSERT
  5
189
330
17
100
AcDbEntity
  8
0
100
AcDbBlockReference
  2
HEX
 10
124.476
 20
-73.531
 30
0.0
  0
INSERT
  5
18B
330
17
100
AcDbEntity
  8
0
100
AcDbBlockReference
  2
HEX
 10
128.007
 20
-73.531
 30
0.0
  0
INSERT
  5
18D
330
17
100
AcDbEntity
  8
0
100
AcDbBlockReference
  2
HEX
 10
131.538
 20
-73.531
 30
0.0
  0
LWPOLYLINE
  5
18F
330
17
100
AcDbEntity
  8
0
100
AcDbPolyline
 90
8
 70
1
 10
133.649
 20
-72.885
 10
133.906
 20
-73.417
 10
134.097
 20
-73.979
 10
134.217
 20
-74.564
 10
134.236
 20
-74.8
 10
133.554
 20
-74.406
 10
133.554
 20
-72.735
 10
133.649
 20
-72.885
  0
LWPOLYLINE
  5
190
330
17
100
AcDbEntity
  8
0
100
AcDbPolyline
 90
6
 70
1
 10
22.324
 20
-69.991
 10
22.324
 20
-69.598
 10
23.84
 20
-68.723
 10
25.356
 20
-69.598
 10
25.356
 20
-69.999
 10
22.324
 20
-69.991
  0
LWPOLYLINE
  5
191
330
17
100
AcDbEntity
  8
0
100
AcDbPolyline
 90
6
 70
1
 10
25.856
 20
-70.0
 10
25.856
 20
-69.598
 10
27.371
 20
-68.723
 10
28.887
 20
-69.598
 10
28.887
 20
-70.008
 10
25.856
 20
-70.0
  0
LWPOLYLINE
  5
192
330
17
100
AcDbEntity
  8
0
100
AcDbPolyline
 90
6
 70
1
 10
29.387
 20
-70.009
 10
29.387
 20
-69.598
 10
30.902
 20
-68.723
 10
32.418
 20
-69.598
 10
32.418
 20
-70.018
 10
29.387
 20
-70.009
  0
LWPOLYLINE
  5
193
330
17
100
AcDbEntity
  8
0
100
AcDbPolyline
 90
6
 70
1
 10
32.918
 20
-70.019
 10
32.918
 20
-69.598
 10
34.433
 20
-68.723
 10
35.949
 20
-69.598
 10
35.949
 20
-70.027
 10
32.918
 20
-70.019
  0
LWPOLYLINE
  5
194
330
17
100
AcDbEntity
  8
0
100
AcDbPolyline
 90
6
 70
1
 10
36.449
 20
-70.028
 10
36.449
 20
-69.598
 10
37.964
 20
-68.723
 10
39.48
 20
-69.598
 10
39.48
 20
-70.036
 10
36.449
 20
-70.028
  0
LWPOLYLINE
  5
195
330
17
100
AcDbEntity
  8
0
100
AcDbPolyline
 90
6
 70
1
 10
39.98
 20
-70.038
 10
39.98
 20
-69.598
 10
41.495
 20
-68.723
 10
43.011
 20
-69.598
 10
43.011
 20
-70.046
 10
39.98
 20
-70.038
  0
LWPOLYLINE
  5
196
330
17
100
AcDbEntity
  8
0
100
AcDbPolyline
 90
6
 70
1
 10
43.511
 20
-70.047
 10
43.511
 20
-69.598
 10
45.027
 20
-68.723
 10
46.542
 20
-69.598
 10
46.542
 20
-70.055
 10
43.511
 20
-70.047
  0
LWPOLYLINE
  5
197
330
17
100
AcDbEntity
  8
0
100
AcDbPolyline
 90
6
 70
1
 10
47.042
 20
-70.056
 10
47.042
 20
-69.598
 10
48.558
 20
-68.723
 10
50.073
 20
-69.598
 10
50.073
 20
-70.064
 10
47.042
 20
-70.056
  0
LWPOLYLINE
  5
198
330
17
100
AcDbEntity
  8
0
100
AcDbPolyline
 90
7
 70
1
 10
51.397
 20
-70.068
 10
50.573
 20
-70.066
 10
50.573
 20
-69.598
 10
52.089
 20
-68.723
 10
53.604
 20
-69.598
 10
53.604
 20
-70.569
 10
51.397
 20
-70.068
  0
LWPOLYLINE
  5
199
330
17
100
AcDbEntity
  8
0
100
AcDbPolyline
 90
9
 70
1
 10
55.295
 20
-70.953
 10
54.104
 20
-70.683
 10
54.104
 20
-69.598
 10
55.62
 20
-68.723
 10
57.135
 20
-69.598
 10
57.135
 20
-71.348
 10
55.62
 20
-72.223
 10
55.338
 20
-72.06
 10
55.295
 20
-70.953
  0
INSERT
  5
19A
330
17
100
AcDbEntity
  8
0
100
AcDbBlockReference
  2
HEX
 10
59.151
 20
-70.473
 30
0.0
  0
INSERT
  5
19C
330
17
100
AcDbEntity
  8
0
100
AcDbBlockReference
  2
HEX
 10
62.682
 20
-70.473
 30
0.0
  0
LWPOLYLINE
  5
19E
330
17
100
AcDbEntity
  8
0
100
AcDbPolyline
 90
9
 70
1
 10
64.837
 20
-69.896
 10
65.164
 20
-70.005
 10
65.522
 20
-70.064
 10
67.729
 20
-70.096
 10
67.729
 20
-71.348
 10
66.213
 20
-72.223
 10
64.698
 20
-71.348
 10
64.698
 20
-69.83
 10
64.837
 20
-69.896
  0
LWPOLYLINE
  5
19F
330
17
100
AcDbEntity
  8
0
100
AcDbPolyline
 90
6
 70
1
 10
71.26
 20
-70.147
 10
71.26
 20
-71.348
 10
69.744
 20
-72.223
 10
68.229
 20
-71.348
 10
68.229
 20
-70.103
 10
71.26
 20
-70.147
  0
LWPOLYLINE
  5
1A0
330
17
100
AcDbEntity
  8
0
100
AcDbPolyline
 90
6
 70
1
 10
74.791
 20
-70.199
 10
74.791
 20
-71.348
 10
73.275
 20
-72.223
 10
71.76
 20
-71.348
 10
71.76
 20
-70.155
 10
74.791
 20
-70.199
  0
LWPOLYLINE
  5
1A1
330
17
100
AcDbEntity
  8
0
100
AcDbPolyline
 90
6
 70
1
 10
78.322
 20
-70.25
 10
78.322
 20
-71.348
 10
76.806
 20
-72.223
 10
75.291
 20
-71.348
 10
75.291
 20
-70.206
 10
78.322
 20
-70.25
  0
LWPOLYLINE
  5
1A2
330
17
100
AcDbEntity
  8
0
100
AcDbPolyline
 90
18
 70
1
 10
79.613
 20
-70.269
 10
79.805
 20
-70.241
 10
79.985
 20
-70.194
 10
80.154
 20
-70.128
 10
80.309
 20
-70.046
 10
80.451
 20
-69.947
 10
80.578
 20
-69.834
 10
80.69
 20
-69.706
 10
80.785
 20
-69.567
 10
80.863
 20
-69.415
 10
80.924
 20
-69.253
 10
80.964
 20
-69.085
 10
81.853
 20
-69.598
 10
81.853
 20
-71.348
 10
80.337
 20
-72.223
 10
78.822
 20
-71.348
 10
78.822
 20
-70.258
 10
79.613
 20
-70.269
  0
INSERT
  5
1A3
330
17
100
AcDbEntity
  8
0
100
AcDbBlockReference
  2
HEX
 10
83.869
 20
-70.473
 30
0.0
  0
INSERT
  5
1A5
330
17
100
AcDbEntity
  8
0
100
AcDbBlockReference
  2
HEX
 10
87.4
 20
-70.473
 30
0.0
  0
INSERT
  5
1A7
330
17
100
AcDbEntity
  8
0
100
AcDbBlockReference
  2
HEX
 10
90.931
 20
-70.473
 30
0.0
  0
LWPOLYLINE
  5
1A9
330
17
100
AcDbEntity
  8
0
100
AcDbPolyline
 90
7
 70
1
 10
95.042
 20
-71.888
 10
94.462
 20
-72.223
 10
92.946
 20
-71.348
 10
92.946
 20
-69.598
 10
94.462
 20
-68.723
 10
95.073
 20
-69.076
 10
95.042
 20
-71.888
  0
LWPOLYLINE
  5
1AA
330
17
100
AcDbEntity
  8
0
100
AcDbPolyline
 90
4
 70
1
 10
113.398
 20
-71.484
 10
113.633
 20
-71.232
 10
113.633
 20
-71.348
 10
113.398
 20
-71.484
  0
LWPOLYLINE
  5
1AB
330
17
100
AcDbEntity
  8
0
100
AcDbPolyline
 90
11
 70
1
 10
114.369
 20
-70.691
 10
114.672
 20
-70.549
 10
114.992
 20
-70.438
 10
115.325
 20
-70.36
 10
115.671
 20
-70.318
 10
117.164
 20
-70.333
 10
117.164
 20
-71.348
 10
115.648
 20
-72.223
 10
114.133
 20
-71.348
 10
114.133
 20
-70.833
 10
114.369
 20
-70.691
  0
LWPOLYLINE
  5
1AC
330
17
100
AcDbEntity
  8
0
100
AcDbPolyline
 90
6
 70
1
 10
120.695
 20
-70.368
 10
120.695
 20
-71.348
 10
119.179
 20
-72.223
 10
117.664
 20
-71.348
 10
117.664
 20
-70.338
 10
120.695
 20
-70.368
  0
LWPOLYLINE
  5
1AD
330
17
100
AcDbEntity
  8
0
100
AcDbPolyline
 90
6
 70
1
 10
124.226
 20
-70.403
 10
124.226
 20
-71.348
 10
122.711
 20
-72.223
 10
121.195
 20
-71.348
 10
121.195
 20
-70.373
 10
124.226
 20
-70.403
  0
LWPOLYLINE
  5
1AE
330
17
100
AcDbEntity
  8
0
100
AcDbPolyline
 90
6
 70
1
 10
127.757
 20
-70.438
 10
127.757
 20
-71.348
 10
126.242
 20
-72.223
 10
124.726
 20
-71.348
 10
124.726
 20
-70.408
 10
127.757
 20
-70.438
  0
LWPOLYLINE
  5
1AF
330
17
100
AcDbEntity
  8
0
100
AcDbPolyline
 90
9
 70
1
 10
129.776
 20
-70.458
 10
130.396
 20
-70.525
 10
130.986
 20
-70.672
 10
131.288
 20
-70.792
 10
131.288
 20
-71.348
 10
129.773
 20
-72.223
 10
128.257
 20
-71.348
 10
128.257
 20
-70.443
 10
129.776
 20
-70.458
  0
LWPOLYLINE
  5
1B0
330
17
100
AcDbEntity
  8
0
100
AcDbPolyline
 90
7
 70
1
 10
132.059
 20
-71.181
 10
132.532
 20
-71.531
 10
132.958
 20
-71.936
 10
133.097
 20
-72.104
 10
131.788
 20
-71.348
 10
131.788
 20
-71.031
 10
132.059
 20
-71.181
  0
LWPOLYLINE
  5
1B1
330
17
100
AcDbEntity
  8
0
100
AcDbPolyline
 90
7
 70
1
 10
22.043
 20
-65.683
 10
22.074
 20
-65.665
 10
23.59
 20
-66.54
 10
23.59
 20
-68.29
 10
22.074
 20
-69.165
 10
22.043
 20
-69.147
 10
22.043
 20
-65.683
  0
INSERT
  5
1B2
330
17
100
AcDbEntity
  8
0
100
AcDbBlockReference
  2
HEX
 10
25.606
 20
-67.415
 30
0.0
  0
INSERT
  5
1B4
330
17
100
AcDbEntity
  8
0
100
AcDbBlockReference
  2
HEX
 10
29.137
 20
-67.415
 30
0.0
  0
INSERT
  5
1B6
330
17
100
AcDbEntity
  8
0
100
AcDbBlockReference
  2
HEX
 10
32.668
 20
-67.415
 30
0.0
  0
INSERT
  5
1B8
330
17
100
AcDbEntity
  8
0
100
AcDbBlockReference
  2
HEX
 10
36.199
 20
-67.415
 30
0.0
  0
INSERT
  5
1BA
330
17
100
AcDbEntity
  8
0
100
AcDbBlockReference
  2
HEX
 10
39.73
 20
-67.415
 30
0.0
  0
INSERT
  5
1BC
330
17
100
AcDbEntity
  8
0
100
AcDbBlockReference
  2
HEX
 10
43.261
 20
-67.415
 30
0.0
  0
INSERT
  5
1BE
330
17
100
AcDbEntity
  8
0
100
AcDbBlockReference
  2
HEX
 10
46.792
 20
-67.415
 30
0.0
  0
INSERT
  5
1C0
330
17
100
AcDbEntity
  8
0
100
AcDbBlockReference
  2
HEX
 10
50.323
 20
-67.415
 30
0.0
  0
INSERT
  5
1C2
330
17
100
AcDbEntity
  8
0
100
AcDbBlockReference
  2
HEX
 10
53.854
 20
-67.415
 30
0.0
  0
INSERT
  5
1C4
330
17
100
AcDbEntity
  8
0
100
AcDbBlockReference
  2
HEX
 10
57.385
 20
-67.415
 30
0.0
  0
INSERT
  5
1C6
330
17
100
AcDbEntity
  8
0
100
AcDbBlockReference
  2
HEX
 10
60.916
 20
-67.415
 30
0.0
  0
LWPOLYLINE
  5
1C8
330
17
100
AcDbEntity
  8
0
100
AcDbPolyline
 90
6
 70
1
 10
63.738
 20
-68.657
 10
63.785
 20
-68.783
 10
62.932
 20
-68.29
 10
62.932
 20
-66.54
 10
63.159
 20
-66.409
 10
63.738
 20
-68.657
  0
LWPOLYLINE
  5
1C9
330
17
100
AcDbEntity
  8
0
100
AcDbPolyline
 90
8
 70
1
 10
80.587
 20
-66.935
 10
80.587
 20
-66.54
 10
82.103
 20
-65.665
 10
83.619
 20
-66.54
 10
83.619
 20
-68.29
 10
82.103
 20
-69.165
 10
80.963
 20
-68.507
 10
80.587
 20
-66.935
  0
INSERT
  5
1CA
330
17
100
AcDbEntity
  8
0
100
AcDbBlockReference
  2
HEX
 10
85.634
 20
-67.415
 30
0.0
  0
INSERT
  5
1CC
330
17
100
AcDbEntity
  8
0
100
AcDbBlockReference
  2
HEX
 10
89.165
 20
-67.415
 30
0.0
  0
INSERT
  5
1CE
330
17
100
AcDbEntity
  8
0
100
AcDbBlockReference
  2
HEX
 10
92.696
 20
-67.415
 30
0.0
  0
LWPOLYLINE
  5
1D0
330
17
100
AcDbEntity
  8
0
100
AcDbPolyline
 90
11
 70
1
 10
96.105
 20
-65.921
 10
95.84
 20
-66.351
 10
95.45
 20
-67.162
 10
95.219
 20
-67.843
 10
95.108
 20
-68.311
 10
95.079
 20
-68.502
 10
94.712
 20
-68.29
 10
94.712
 20
-66.54
 10
96.227
 20
-65.665
 10
96.274
 20
-65.692
 10
96.105
 20
-65.921
  0
INSERT
  5
1D1
330
17
100
AcDbEntity
  8
0
100
AcDbBlockReference
  2
HEX
 10
23.84
 20
-64.357
 30
0.0
  0
INSERT
  5
1D3
330
17
100
AcDbEntity
  8
0
100
AcDbBlockReference
  2
HEX
 10
27.371
 20
-64.357
 30
0.0
  0
INSERT
  5
1D5
330
17
100
AcDbEntity
  8
0
100
AcDbBlockReference
  2
HEX
 10
30.902
 20
-64.357
 30
0.0
  0
INSERT
  5
1D7
330
17
100
AcDbEntity
  8
0
100
AcDbBlockReference
  2
HEX
 10
34.433
 20
-64.357
 30
0.0
  0
INSERT
  5
1D9
330
17
100
AcDbEntity
  8
0
100
AcDbBlockReference
  2
HEX
 10
37.964
 20
-64.357
 30
0.0
  0
INSERT
  5
1DB
330
17
100
AcDbEntity
  8
0
100
AcDbBlockReference
  2
HEX
 10
41.495
 20
-64.357
 30
0.0
  0
INSERT
  5
1DD
330
17
100
AcDbEntity
  8
0
100
AcDbBlockReference
  2
HEX
 10
45.027
 20
-64.357
 30
0.0
  0
INSERT
  5
1DF
330
17
100
AcDbEntity
  8
0
100
AcDbBlockReference
  2
HEX
 10
48.558
 20
-64.357
 30
0.0
  0
INSERT
  5
1E1
330
17
100
AcDbEntity
  8
0
100
AcDbBlockReference
  2
HEX
 10
52.089
 20
-64.357
 30
0.0
  0
INSERT
  5
1E3
330
17
100
AcDbEntity
  8
0
100
AcDbBlockReference
  2
HEX
 10
55.62
 20
-64.357
 30
0.0
  0
INSERT
  5
1E5
330
17
100
AcDbEntity
  8
0
100
AcDbBlockReference
  2
HEX
 10
59.151
 20
-64.357
 30
0.0
  0
LWPOLYLINE
  5
1E7
330
17
100
AcDbEntity
  8
0
100
AcDbPolyline
 90
11
 70
1
 10
62.575
 20
-62.68
 10
62.713
 20
-62.792
 10
62.873
 20
-63.005
 10
62.944
 20
-63.171
 10
62.982
 20
-63.351
 10
63.007
 20
-65.759
 10
63.03
 20
-65.907
 10
62.682
 20
-66.107
 10
61.166
 20
-65.232
 10
61.166
 20
-63.482
 10
62.575
 20
-62.68
  0
LWPOLYLINE
  5
1E8
330
17
100
AcDbEntity
  8
0
100
AcDbPolyline
 90
11
 70
1
 10
79.78
 20
-63.558
 10
79.769
 20
-63.453
 10
79.785
 20
-63.246
 10
79.81
 20
-63.148
 10
79.892
 20
-62.964
 10
80.032
 20
-62.783
 10
80.337
 20
-62.607
 10
81.853
 20
-63.482
 10
81.853
 20
-65.232
 10
80.383
 20
-66.081
 10
79.78
 20
-63.558
  0
INSERT
  5
1E9
330
17
100
AcDbEntity
  8
0
100
AcDbBlockReference
  2
HEX
 10
83.869
 20
-64.357
 30
0.0
  0
INSERT
  5
1EB
330
17
100
AcDbEntity
  8
0
100
AcDbBlockReference
  2
HEX
 10
87.4
 20
-64.357
 30
0.0
  0
INSERT
  5
1ED
330
17
100
AcDbEntity
  8
0
100
AcDbBlockReference
  2
HEX
 10
90.931
 20
-64.357
 30
0.0
  0
INSERT
  5
1EF
330
17
100
AcDbEntity
  8
0
100
AcDbBlockReference
  2
HEX
 10
94.462
 20
-64.357
 30
0.0
  0
LWPOLYLINE
  5
1F1
330
17
100
AcDbEntity
  8
0
100
AcDbPolyline
 90
11
 70
1
 10
98.987
 20
-63.655
 10
98.329
 20
-63.945
 10
97.749
 20
-64.284
 10
97.241
 20
-64.661
 10
96.801
 20
-65.066
 10
96.594
 20
-65.299
 10
96.477
 20
-65.232
 10
96.477
 20
-63.482
 10
97.993
 20
-62.607
 10
99.508
 20
-63.482
 10
98.987
 20
-63.655
  0
LWPOLYLINE
  5
1F2
330
17
100
AcDbEntity
  8
0
100
AcDbPolyline
 90
5
 70
1
 10
22.043
 20
-62.522
 10
22.987
 20
-62.522
 10
22.074
 20
-63.049
 10
22.043
 20
-63.031
 10
22.043
 20
-62.522
  0
LWPOLYLINE
  5
1F3
330
17
100
AcDbEntity
  8
0
100
AcDbPolyline
 90
4
 70
1
 10
26.518
 20
-62.523
 10
25.606
 20
-63.049
 10
24.693
 20
-62.522
 10
26.518
 20
-62.523
  0
LWPOLYLINE
  5
1F4
330
17
100
AcDbEntity
  8
0
100
AcDbPolyline
 90
4
 70
1
 10
30.048
 20
-62.523
 10
29.137
 20
-63.049
 10
28.225
 20
-62.523
 10
30.048
 20
-62.523
  0
LWPOLYLINE
  5
1F5
330
17
100
AcDbEntity
  8
0
100
AcDbPolyline
 90
4
 70
1
 10
33.578
 20
-62.523
 10
32.668
 20
-63.049
 10
31.757
 20
-62.523
 10
33.578
 20
-62.523
  0
LWPOLYLINE
  5
1F6
330
17
100
AcDbEntity
  8
0
100
AcDbPolyline
 90
4
 70
1
 10
37.109
 20
-62.524
 10
36.199
 20
-63.049
 10
35.289
 20
-62.524
 10
37.109
 20
-62.524
  0
LWPOLYLINE
  5
1F7
330
17
100
AcDbEntity
  8
0
100
AcDbPolyline
 90
4
 70
1
 10
40.639
 20
-62.524
 10
39.73
 20
-63.049
 10
38.82
 20
-62.524
 10
40.639
 20
-62.524
  0
LWPOLYLINE
  5
1F8
330
17
100
AcDbEntity
  8
0
100
AcDbPolyline
 90
4
 70
1
 10
44.169
 20
-62.525
 10
43.261
 20
-63.049
 10
42.352
 20
-62.525
 10
44.169
 20
-62.525
  0
LWPOLYLINE
  5
1F9
330
17
100
AcDbEntity
  8
0
100
AcDbPolyline
 90
4
 70
1
 10
47.7
 20
-62.525
 10
46.792
 20
-63.049
 10
45.884
 20
-62.525
 10
47.7
 20
-62.525
  0
LWPOLYLINE
  5
1FA
330
17
100
AcDbEntity
  8
0
100
AcDbPolyline
 90
4
 70
1
 10
51.23
 20
-62.526
 10
50.323
 20
-63.049
 10
49.416
 20
-62.525
 10
51.23
 20
-62.526
  0
LWPOLYLINE
  5
1FB
330
17
100
AcDbEntity
  8
0
100
AcDbPolyline
 90
4
 70
1
 10
54.761
 20
-62.526
 10
53.854
 20
-63.049
 10
52.948
 20
-62.526
 10
54.761
 20
-62.526
  0
LWPOLYLINE
  5
1FC
330
17
100
AcDbEntity
  8
0
100
AcDbPolyline
 90
4
 70
1
 10
58.291
 20
-62.526
 10
57.385
 20
-63.049
 10
56.48
 20
-62.526
 10
58.291
 20
-62.526
  0
LWPOLYLINE
  5
1FD
330
17
100
AcDbEntity
  8
0
100
AcDbPolyline
 90
4
 70
1
 10
61.821
 20
-62.527
 10
60.916
 20
-63.049
 10
60.011
 20
-62.527
 10
61.821
 20
-62.527
  0
LWPOLYLINE
  5
1FE
330
17
100
AcDbEntity
  8
0
100
AcDbPolyline
 90
4
 70
1
 10
83.016
 20
-62.522
 10
82.103
 20
-63.049
 10
81.19
 20
-62.522
 10
83.016
 20
-62.522
  0
LWPOLYLINE
  5
1FF
330
17
100
AcDbEntity
  8
0
100
AcDbPolyline
 90
4
 70
1
 10
86.547
 20
-62.522
 10
85.634
 20
-63.049
 10
84.721
 20
-62.522
 10
86.547
 20
-62.522
  0
LWPOLYLINE
  5
200
330
17
100
AcDbEntity
  8
0
100
AcDbPolyline
 90
4
 70
1
 10
90.078
 20
-62.522
 10
89.165
 20
-63.049
 10
88.253
 20
-62.522
 10
90.078
 20
-62.522
  0
LWPOLYLINE
  5
201
330
17
100
AcDbEntity
  8
0
100
AcDbPolyline
 90
4
 70
1
 10
93.609
 20
-62.522
 10
92.696
 20
-63.049
 10
91.784
 20
-62.522
 10
93.609
 20
-62.522
  0
LWPOLYLINE
  5
202
330
17
100
AcDbEntity
  8
0
100
AcDbPolyline
 90
4
 70
1
 10
97.14
 20
-62.522
 10
96.227
 20
-63.049
 10
95.315
 20
-62.522
 10
97.14
 20
-62.522
  0
LWPOLYLINE
  5
203
330
17
100
AcDbEntity
  8
0
100
AcDbPolyline
 90
4
 70
1
 10
99.726
 20
-63.03
 10
98.846
 20
-62.522
 10
99.726
 20
-62.522
 10
99.726
 20
-63.03
  0
ENDSEC
  0
SECTION
  2
OBJECTS
  0
DICTIONARY
  5
A
330
0
100
AcDbDictionary
281
1
  3
ACAD_COLOR
350
B
  3
ACAD_GROUP
350
C
  3
ACAD_LAYOUT
350
D
  3
ACAD_MATERIAL
350
E
  3
ACAD_MLEADERSTYLE
350
F
  3
ACAD_MLINESTYLE
350
10
  3
ACAD_PLOTSETTINGS
350
11
  3
ACAD_PLOTSTYLENAME
350
12
  3
ACAD_SCALELIST
350
14
  3
ACAD_TABLESTYLE
350
15
  3
ACAD_VISUALSTYLE
350
16
  3
EZDXF_META
350
2D
  0
DICTIONARY
  5
B
330
A
100
AcDbDictionary
281
1
  0
DICTIONARY
  5
C
330
A
100
AcDbDictionary
281
1
  0
DICTIONARY
  5
D
330
A
100
AcDbDictionary
281
1
  3
Model
350
1A
  3
Layout1
350
1E
  0
DICTIONARY
  5
E
330
A
100
AcDbDictionary
281
1
  3
ByBlock
350
1F
  3
ByLayer
350
20
  3
Global
350
21
  0
DICTIONARY
  5
F
330
A
100
AcDbDictionary
281
1
  3
Standard
350
2C
  0
DICTIONARY
  5
10
330
A
100
AcDbDictionary
281
1
  3
Standard
350
22
  0
DICTIONARY
  5
11
330
A
100
AcDbDictionary
281
1
  0
ACDBDICTIONARYWDFLT
  5
12
330
A
100
AcDbDictionary
281
1
  3
Normal
350
13
100
AcDbDictionaryWithDefault
340
13
  0
ACDBPLACEHOLDER
  5
13
330
12
  0
DICTIONARY
  5
14
330
A
100
AcDbDictionary
281
1
  0
DICTIONARY
  5
15
330
A
100
AcDbDictionary
281
1
  0
DICTIONARY
  5
16
330
A
100
AcDbDictionary
281
1
  0
LAYOUT
  5
1A
330
D
100
AcDbPlotSettings
  1

  4
A3
  6

 40
7.5
 41
20.0
 42
7.5
 43
20.0
 44
420.0
 45
297.0
 46
0.0
 47
0.0
 48
0.0
 49
0.0
140
0.0
141
0.0
142
1.0
143
1.0
 70
1024
 72
1
 73
0
 74
5
  7

 75
16
 76
0
 77
2
 78
300
147
1.0
148
0.0
149
0.0
100
AcDbLayout
  1
Model
 70
1
 71
0
 10
0.0
 20
0.0
 11
420.0
 21
297.0
 12
0.0
 22
0.0
 32
0.0
 14
1e+20
 24
1e+20
 34
1e+20
 15
-1e+20
 25
-1e+20
 35
-1e+20
146
0.0
 13
0.0
 23
0.0
 33
0.0
 16
1.0
 26
0.0
 36
0.0
 17
0.0
 27
1.0
 37
0.0
 76
1
330
17
  0
LAYOUT
  5
1E
330
D
100
AcDbPlotSettings
  1

  4
A3
  6

 40
7.5
 41
20.0
 42
7.5
 43
20.0
 44
420.0
 45
297.0
 46
0.0
 47
0.0
 48
0.0
 49
0.0
140
0.0
141
0.0
142
1.0
143
1.0
 70
0
 72
1
 73
0
 74
5
  7

 75
16
 76
0
 77
2
 78
300
147
1.0
148
0.0
149
0.0
100
AcDbLayout
  1
Layout1
 70
1
 71
1
 10
0.0
 20
0.0
 11
420.0
 21
297.0
 12
0.0
 22
0.0
 32
0.0
 14
1e+20
 24
1e+20
 34
1e+20
 15
-1e+20
 25
-1e+20
 35
-1e+20
146
0.0
 13
0.0
 23
0.0
 33
0.0
 16
1.0
 26
0.0
 36
0.0
 17
0.0
 27
1.0
 37
0.0
 76
1
330
1B
  0
MATERIAL
  5
1F
102
{ACAD_REACTORS
330
E
102
}
330
E
100
AcDbMaterial
  1
ByBlock
  2

 70
0
 40
1.0
 71
1
 41
1.0
 91
-1023410177
 42
1.0
 72
1
  3

 73
1
 74
1
 75
1
 44
0.5
 73
0
 45
1.0
 46
1.0
 77
1
  4

 78
1
 79
1
170
1
 48
1.0
171
1
  6

172
1
173
1
174
1
140
1.0
141
1.0
175
1
  7

176
1
177
1
178
1
143
1.0
179
1
  8

270
1
271
1
272
1
145
1.0
146
1.0
273
1
  9

274
1
275
1
276
1
 42
1.0
 72
1
  3

 73
1
 74
1
 75
1
 94
63
  0
MATERIAL
  5
20
102
{ACAD_REACTORS
330
E
102
}
330
E
100
AcDbMaterial
  1
ByLayer
  2

 70
0
 40
1.0
 71
1
 41
1.0
 91
-1023410177
 42
1.0
 72
1
  3

 73
1
 74
1
 75
1
 44
0.5
 73
0
 45
1.0
 46
1.0
 77
1
  4

 78
1
 79
1
170
1
 48
1.0
171
1
  6

172
1
173
1
174
1
140
1.0
141
1.0
175
1
  7

176
1
177
1
178
1
143
1.0
179
1
  8

270
1
271
1
272
1
145
1.0
146
1.0
273
1
  9

274
1
275
1
276
1
 42
1.0
 72
1
  3

 73
1
 74
1
 75
1
 94
63
  0
MATERIAL
  5
21
102
{ACAD_REACTORS
330
E
102
}
330
E
100
AcDbMaterial
  1
Global
  2

 70
0
 40
1.0
 71
1
 41
1.0
 91
-1023410177
 42
1.0
 72
1
  3

 73
1
 74
1
 75
1
 44
0.5
 73
0
 45
1.0
 46
1.0
 77
1
  4

 78
1
 79
1
170
1
 48
1.0
171
1
  6

172
1
173
1
174
1
140
1.0
141
1.0
175
1
  7

176
1
177
1
178
1
143
1.0
179
1
  8

270
1
271
1
272
1
145
1.0
146
1.0
273
1
  9

274
1
275
1
276
1
 42
1.0
 72
1
  3

 73
1
 74
1
 75
1
 94
63
  0
MLINESTYLE
  5
22
102
{ACAD_REACTORS
330
10
102
}
330
10
100
AcDbMlineStyle
  2
Standard
 70
0
  3

 62
256
 51
90.0
 52
90.0
 71
2
 49
0.5
 62
256
  6
BYLAYER
 49
-0.5
 62
256
  6
BYLAYER
  0
MLEADERSTYLE
  5
2C
102
{ACAD_REACTORS
330
F
102
}
330
F
100
AcDbMLeaderStyle
179
2
170
2
171
1
172
0
 90
2
 40
0.0
 41
0.0
173
1
 91
-1056964608
 92
-2
290
1
 42
2.0
291
1
 43
8.0
  3
Standard
 44
4.0
300

342
29
174
1
175
1
176
0
178
1
 93
-1056964608
 45
4.0
292
0
297
0
 46
4.0
 94
-1056964608
 47
1.0
 49
1.0
140
1.0
294
1
141
0.0
177
0
142
1.0
295
0
296
0
143
3.75
271
0
272
9
273
9
  0
DICTIONARY
  5
2D
330
A
100
AcDbDictionary
280
1
281
1
  3
CREATED_BY_EZDXF
350
2E
  3
WRITTEN_BY_EZDXF
350
206
  0
DICTIONARYVAR
  5
2E
330
2D
100
DictionaryVariables
280
0
  1
1.4.3 @ 2026-04-09T21:37:19.770036+00:00
  0
DICTIONARYVAR
  5
206
330
2D
100
DictionaryVariables
280
0
  1
1.4.3 @ 2026-04-09T21:37:19.788987+00:00
  0
ENDSEC
  0
EOF
