  0
SECTION
  2
HEADER
  9
$ACADVER
  1
AC1024
  9
$ACADMAINTVER
 70
6
  9
$DWGCODEPAGE
  3
ANSI_1252
  9
$LASTSAVEDBY
  1
ezdxf
  9
$INSBASE
 10
0.0
 20
0.0
 30
0.0
  9
$EXTMIN
 10
1e+20
 20
1e+20
 30
1e+20
  9
$EXTMAX
 10
-1e+20
 20
-1e+20
 30
-1e+20
  9
$LIMMIN
 10
0.0
 20
0.0
  9
$LIMMAX
 10
420.0
 20
297.0
  9
$ORTHOMODE
 70
0
  9
$REGENMODE
 70
1
  9
$FILLMODE
 70
1
  9
$QTEXTMODE
 70
0
  9
$MIRRTEXT
 70
1
  9
$LTSCALE
 40
1.0
  9
$ATTMODE
 70
1
  9
$TEXTSIZE
 40
2.5
  9
$TRACEWID
 40
1.0
  9
$TEXTSTYLE
  7
Standard
  9
$CLAYER
  8
0
  9
$CELTYPE
  6
ByLayer
  9
$CECOLOR
 62
256
  9
$CELTSCALE
 40
1.0
  9
$DISPSILH
 70
0
  9
$DIMSCALE
 40
1.0
  9
$DIMASZ
 40
2.5
  9
$DIMEXO
 40
0.625
  9
$DIMDLI
 40
3.75
  9
$DIMRND
 40
0.0
  9
$DIMDLE
 40
0.0
  9
$DIMEXE
 40
1.25
  9
$DIMTP
 40
0.0
  9
$DIMTM
 40
0.0
  9
$DIMTXT
 40
2.5
  9
$DIMCEN
 40
2.5
  9
$DIMTSZ
 40
0.0
  9
$DIMTOL
 70
0
  9
$DIMLIM
 70
0
  9
$DIMTIH
 70
0
  9
$DIMTOH
 70
0
  9
$DIMSE1
 70
0
  9
$DIMSE2
 70
0
  9
$DIMTAD
 70
1
  9
$DIMZIN
 70
8
  9
$DIMBLK
  1

  9
$DIMASO
 70
1
  9
$DIMSHO
 70
1
  9
$DIMPOST
  1

  9
$DIMAPOST
  1

  9
$DIMALT
 70
0
  9
$DIMALTD
 70
3
  9
$DIMALTF
 40
0.03937007874
  9
$DIMLFAC
 40
1.0
  9
$DIMTOFL
 70
1
  9
$DIMTVP
 40
0.0
  9
$DIMTIX
 70
0
  9
$DIMSOXD
 70
0
  9
$DIMSAH
 70
0
  9
$DIMBLK1
  1

  9
$DIMBLK2
  1

  9
$DIMSTYLE
  2
ISO-25
  9
$DIMCLRD
 70
0
  9
$DIMCLRE
 70
0
  9
$DIMCLRT
 70
0
  9
$DIMTFAC
 40
1.0
  9
$DIMGAP
 40
0.625
  9
$DIMJUST
 70
0
  9
$DIMSD1
 70
0
  9
$DIMSD2
 70
0
  9
$DIMTOLJ
 70
0
  9
$DIMTZIN
 70
8
  9
$DIMALTZ
 70
0
  9
$DIMALTTZ
 70
0
  9
$DIMUPT
 70
0
  9
$DIMDEC
 70
2
  9
$DIMTDEC
 70
2
  9
$DIMALTU
 70
2
  9
$DIMALTTD
 70
3
  9
$DIMTXSTY
  7
Standard
  9
$DIMAUNIT
 70
0
  9
$DIMADEC
 70
0
  9
$DIMALTRND
 40
0.0
  9
$DIMAZIN
 70
0
  9
$DIMDSEP
 70
44
  9
$DIMATFIT
 70
3
  9
$DIMFRAC
 70
0
  9
$DIMLDRBLK
  1

  9
$DIMLUNIT
 70
2
  9
$DIMLWD
 70
-2
  9
$DIMLWE
 70
-2
  9
$DIMTMOVE
 70
0
  9
$DIMFXL
 40
1.0
  9
$DIMFXLON
 70
0
  9
$DIMJOGANG
 40
0.785398163397
  9
$DIMTFILL
 70
0
  9
$DIMTFILLCLR
 70
0
  9
$DIMARCSYM
 70
0
  9
$DIMLTYPE
  6

  9
$DIMLTEX1
  6

  9
$DIMLTEX2
  6

  9
$DIMTXTDIRECTION
 70
0
  9
$LUNITS
 70
2
  9
$LUPREC
 70
4
  9
$SKETCHINC
 40
1.0
  9
$FILLETRAD
 40
10.0
  9
$AUNITS
 70
0
  9
$AUPREC
 70
2
  9
$MENU
  1
.
  9
$ELEVATION
 40
0.0
  9
$PELEVATION
 40
0.0
  9
$THICKNESS
 40
0.0
  9
$LIMCHECK
 70
0
  9
$CHAMFERA
 40
0.0
  9
$CHAMFERB
 40
0.0
  9
$CHAMFERC
 40
0.0
  9
$CHAMFERD
 40
0.0
  9
$SKPOLY
 70
0
  9
$TDCREATE
 40
2461140.6092708334
  9
$TDUCREATE
 40
2458532.153996898
  9
$TDUPDATE
 40
2461140.6092708334
  9
$TDUUPDATE
 40
2458532.1544311
  9
$TDINDWG
 40
0.0
  9
$TDUSRTIMER
 40
0.0
  9
$USRTIMER
 70
1
  9
$ANGBASE
 50
0.0
  9
$ANGDIR
 70
0
  9
$PDMODE
 70
0
  9
$PDSIZE
 40
0.0
  9
$PLINEWID
 40
0.0
  9
$SPLFRAME
 70
0
  9
$SPLINETYPE
 70
6
  9
$SPLINESEGS
 70
8
  9
$HANDSEED
  5
1C6
  9
$SURFTAB1
 70
6
  9
$SURFTAB2
 70
6
  9
$SURFTYPE
 70
6
  9
$SURFU
 70
6
  9
$SURFV
 70
6
  9
$UCSBASE
  2

  9
$UCSNAME
  2

  9
$UCSORG
 10
0.0
 20
0.0
 30
0.0
  9
$UCSXDIR
 10
1.0
 20
0.0
 30
0.0
  9
$UCSYDIR
 10
0.0
 20
1.0
 30
0.0
  9
$UCSORTHOREF
  2

  9
$UCSORTHOVIEW
 70
0
  9
$UCSORGTOP
 10
0.0
 20
0.0
 30
0.0
  9
$UCSORGBOTTOM
 10
0.0
 20
0.0
 30
0.0
  9
$UCSORGLEFT
 10
0.0
 20
0.0
 30
0.0
  9
$UCSORGRIGHT
 10
0.0
 20
0.0
 30
0.0
  9
$UCSORGFRONT
 10
0.0
 20
0.0
 30
0.0
  9
$UCSORGBACK
 10
0.0
 20
0.0
 30
0.0
  9
$PUCSBASE
  2

  9
$PUCSNAME
  2

  9
$PUCSORG
 10
0.0
 20
0.0
 30
0.0
  9
$PUCSXDIR
 10
1.0
 20
0.0
 30
0.0
  9
$PUCSYDIR
 10
0.0
 20
1.0
 30
0.0
  9
$PUCSORTHOREF
  2

  9
$PUCSORTHOVIEW
 70
0
  9
$PUCSORGTOP
 10
0.0
 20
0.0
 30
0.0
  9
$PUCSORGBOTTOM
 10
0.0
 20
0.0
 30
0.0
  9
$PUCSORGLEFT
 10
0.0
 20
0.0
 30
0.0
  9
$PUCSORGRIGHT
 10
0.0
 20
0.0
 30
0.0
  9
$PUCSORGFRONT
 10
0.0
 20
0.0
 30
0.0
  9
$PUCSORGBACK
 10
0.0
 20
0.0
 30
0.0
  9
$USERI1
 70
0
  9
$USERI2
 70
0
  9
$USERI3
 70
0
  9
$USERI4
 70
0
  9
$USERI5
 70
0
  9
$USERR1
 40
0.0
  9
$USERR2
 40
0.0
  9
$USERR3
 40
0.0
  9
$USERR4
 40
0.0
  9
$USERR5
 40
0.0
  9
$WORLDVIEW
 70
1
  9
$SHADEDGE
 70
3
  9
$SHADEDIF
 70
70
  9
$TILEMODE
 70
1
  9
$MAXACTVP
 70
64
  9
$PINSBASE
 10
0.0
 20
0.0
 30
0.0
  9
$PLIMCHECK
 70
0
  9
$PEXTMIN
 10
1e+20
 20
1e+20
 30
1e+20
  9
$PEXTMAX
 10
-1e+20
 20
-1e+20
 30
-1e+20
  9
$PLIMMIN
 10
0.0
 20
0.0
  9
$PLIMMAX
 10
420.0
 20
297.0
  9
$UNITMODE
 70
0
  9
$VISRETAIN
 70
1
  9
$PLINEGEN
 70
0
  9
$PSLTSCALE
 70
1
  9
$TREEDEPTH
 70
3020
  9
$CMLSTYLE
  2
Standard
  9
$CMLJUST
 70
0
  9
$CMLSCALE
 40
20.0
  9
$PROXYGRAPHICS
 70
1
  9
$MEASUREMENT
 70
1
  9
$CELWEIGHT
370
-1
  9
$ENDCAPS
280
0
  9
$JOINSTYLE
280
0
  9
$LWDISPLAY
290
0
  9
$INSUNITS
 70
4
  9
$HYPERLINKBASE
  1

  9
$STYLESHEET
  1

  9
$XEDIT
290
1
  9
$CEPSNTYPE
380
0
  9
$PSTYLEMODE
290
1
  9
$FINGERPRINTGUID
  2
{98EB9D1F-0521-4254-9259-08B0A13DE4B6}
  9
$VERSIONGUID
  2
{09D9D5A3-3B35-4366-B974-949564509E54}
  9
$EXTNAMES
290
1
  9
$PSVPSCALE
 40
0.0
  9
$OLESTARTUP
290
0
  9
$SORTENTS
280
127
  9
$INDEXCTL
280
0
  9
$HIDETEXT
280
1
  9
$XCLIPFRAME
280
1
  9
$HALOGAP
280
0
  9
$OBSCOLOR
 70
257
  9
$OBSLTYPE
280
0
  9
$INTERSECTIONDISPLAY
280
0
  9
$INTERSECTIONCOLOR
 70
257
  9
$DIMASSOC
280
2
  9
$PROJECTNAME
  1

  9
$CAMERADISPLAY
290
0
  9
$LENSLENGTH
 40
50.0
  9
$CAMERAHEIGHT
 40
0.0
  9
$STEPSPERSEC
 40
24.0
  9
$STEPSIZE
 40
100.0
  9
$3DDWFPREC
 40
2.0
  9
$PSOLWIDTH
 40
0.005
  9
$PSOLHEIGHT
 40
0.08
  9
$LOFTANG1
 40
1.570796326795
  9
$LOFTANG2
 40
1.570796326795
  9
$LOFTMAG1
 40
0.0
  9
$LOFTMAG2
 40
0.0
  9
$LOFTPARAM
 70
7
  9
$LOFTNORMALS
280
1
  9
$LATITUDE
 40
37.795
  9
$LONGITUDE
 40
-122.394
  9
$NORTHDIRECTION
 40
0.0
  9
$TIMEZONE
 70
-8000
  9
$LIGHTGLYPHDISPLAY
280
1
  9
$TILEMODELIGHTSYNCH
280
1
  9
$CMATERIAL
347
20
  9
$SOLIDHIST
280
0
  9
$SHOWHIST
280
1
  9
$DWFFRAME
280
2
  9
$DGNFRAME
280
2
  9
$REALWORLDSCALE
290
1
  9
$INTERFERECOLOR
 62
256
  9
$CSHADOW
280
0
  9
$SHADOWPLANELOCATION
 40
0.0
  0
ENDSEC
  0
SECTION
  2
CLASSES
  0
CLASS
  1
ACDBDICTIONARYWDFLT
  2
AcDbDictionaryWithDefault
  3
ObjectDBX Classes
 90
0
 91
0
280
0
281
0
  0
CLASS
  1
SUN
  2
AcDbSun
  3
SCENEOE
 90
1153
 91
0
280
0
281
0
  0
CLASS
  1
VISUALSTYLE
  2
AcDbVisualStyle
  3
ObjectDBX Classes
 90
4095
 91
0
280
0
281
0
  0
CLASS
  1
MATERIAL
  2
AcDbMaterial
  3
ObjectDBX Classes
 90
1153
 91
0
280
0
281
0
  0
CLASS
  1
SCALE
  2
AcDbScale
  3
ObjectDBX Classes
 90
1153
 91
0
280
0
281
0
  0
CLASS
  1
TABLESTYLE
  2
AcDbTableStyle
  3
ObjectDBX Classes
 90
4095
 91
0
280
0
281
0
  0
CLASS
  1
MLEADERSTYLE
  2
AcDbMLeaderStyle
  3
ACDB_MLEADERSTYLE_CLASS
 90
4095
 91
0
280
0
281
0
  0
CLASS
  1
DICTIONARYVAR
  2
AcDbDictionaryVar
  3
ObjectDBX Classes
 90
0
 91
0
280
0
281
0
  0
CLASS
  1
CELLSTYLEMAP
  2
AcDbCellStyleMap
  3
ObjectDBX Classes
 90
1152
 91
0
280
0
281
0
  0
CLASS
  1
MENTALRAYRENDERSETTINGS
  2
AcDbMentalRayRenderSettings
  3
SCENEOE
 90
1024
 91
0
280
0
281
0
  0
CLASS
  1
ACDBDETAILVIEWSTYLE
  2
AcDbDetailViewStyle
  3
ObjectDBX Classes
 90
1025
 91
0
280
0
281
0
  0
CLASS
  1
ACDBSECTIONVIEWSTYLE
  2
AcDbSectionViewStyle
  3
ObjectDBX Classes
 90
1025
 91
0
280
0
281
0
  0
CLASS
  1
RASTERVARIABLES
  2
AcDbRasterVariables
  3
ISM
 90
0
 91
0
280
0
281
0
  0
CLASS
  1
LAYOUT
  2
AcDbLayout
  3
ObjectDBX Classes
 90
0
 91
0
280
0
281
0
  0
CLASS
  1
ACDBPLACEHOLDER
  2
AcDbPlaceHolder
  3
ObjectDBX Classes
 90
0
 91
0
280
0
281
0
  0
ENDSEC
  0
SECTION
  2
TABLES
  0
TABLE
  2
VPORT
  5
8
330
0
100
AcDbSymbolTable
 70
1
  0
VPORT
  5
23
330
8
100
AcDbSymbolTableRecord
100
AcDbViewportTableRecord
  2
*Active
 70
0
 10
0.0
 20
0.0
 11
1.0
 21
1.0
 12
0.0
 22
0.0
 13
0.0
 23
0.0
 14
0.5
 24
0.5
 15
0.5
 25
0.5
 16
0.0
 26
0.0
 36
1.0
 17
0.0
 27
0.0
 37
0.0
 40
1000.0
 41
1.34
 42
50.0
 43
0.0
 44
0.0
 50
0.0
 51
0.0
 71
0
 72
1000
 73
1
 74
3
 75
0
 76
0
 77
0
 78
0
281
0
 65
0
146
0.0
  0
ENDTAB
  0
TABLE
  2
LTYPE
  5
2
330
0
100
AcDbSymbolTable
 70
3
  0
LTYPE
  5
24
330
2
100
AcDbSymbolTableRecord
100
AcDbLinetypeTableRecord
  2
ByBlock
 70
0
  3

 72
65
 73
0
 40
0.0
  0
LTYPE
  5
25
330
2
100
AcDbSymbolTableRecord
100
AcDbLinetypeTableRecord
  2
ByLayer
 70
0
  3

 72
65
 73
0
 40
0.0
  0
LTYPE
  5
26
330
2
100
AcDbSymbolTableRecord
100
AcDbLinetypeTableRecord
  2
Continuous
 70
0
  3

 72
65
 73
0
 40
0.0
  0
ENDTAB
  0
TABLE
  2
LAYER
  5
1
330
0
100
AcDbSymbolTable
 70
2
  0
LAYER
  5
27
330
1
100
AcDbSymbolTableRecord
100
AcDbLayerTableRecord
  2
0
 70
0
 62
7
  6
Continuous
370
-3
390
13
347
21
  0
LAYER
  5
28
330
1
100
AcDbSymbolTableRecord
100
AcDbLayerTableRecord
  2
Defpoints
 70
0
 62
7
  6
Continuous
290
0
370
-3
390
13
347
21
  0
ENDTAB
  0
TABLE
  2
STYLE
  5
5
330
0
100
AcDbSymbolTable
 70
1
  0
STYLE
  5
29
330
5
100
AcDbSymbolTableRecord
100
AcDbTextStyleTableRecord
  2
Standard
 70
0
 40
0.0
 41
1.0
 50
0.0
 71
0
 42
2.5
  3
txt
  4

  0
ENDTAB
  0
TABLE
  2
VIEW
  5
7
330
0
100
AcDbSymbolTable
 70
0
  0
ENDTAB
  0
TABLE
  2
UCS
  5
6
330
0
100
AcDbSymbolTable
 70
0
  0
ENDTAB
  0
TABLE
  2
APPID
  5
3
330
0
100
AcDbSymbolTable
 70
3
  0
APPID
  5
2A
330
3
100
AcDbSymbolTableRecord
100
AcDbRegAppTableRecord
  2
ACAD
 70
0
  0
APPID
  5
1C3
330
3
100
AcDbSymbolTableRecord
100
AcDbRegAppTableRecord
  2
HATCHBACKGROUNDCOLOR
 70
0
  0
APPID
  5
1C4
330
3
100
AcDbSymbolTableRecord
100
AcDbRegAppTableRecord
  2
EZDXF
 70
0
  0
ENDTAB
  0
TABLE
  2
DIMSTYLE
  5
4
330
0
100
AcDbSymbolTable
 70
1
100
AcDbDimStyleTable
  0
DIMSTYLE
105
2B
330
4
100
AcDbSymbolTableRecord
100
AcDbDimStyleTableRecord
  2
Standard
 70
0
 40
1.0
 41
2.5
 42
0.625
 43
3.75
 44
1.25
 45
0.0
 46
0.0
 47
0.0
 48
0.0
 49
2.5
140
2.5
141
2.5
142
0.0
143
0.03937007874
144
1.0
145
0.0
146
1.0
147
0.625
148
0.0
 69
0
 70
0
 71
0
 72
0
 73
0
 74
0
 75
0
 76
0
 77
1
 78
8
 79
3
170
0
171
3
172
1
173
0
174
0
175
0
176
0
177
0
178
0
179
2
271
2
272
2
273
2
274
3
275
0
276
0
277
2
278
44
279
0
280
0
281
0
282
0
283
0
284
8
285
0
286
0
288
0
289
3
290
0
371
-2
372
-2
  0
ENDTAB
  0
TABLE
  2
BLOCK_RECORD
  5
9
330
0
100
AcDbSymbolTable
 70
3
  0
BLOCK_RECORD
  5
17
330
9
100
AcDbSymbolTableRecord
100
AcDbBlockTableRecord
  2
*Model_Space
340
1A
 70
0
280
1
281
0
  0
BLOCK_RECORD
  5
1B
330
9
100
AcDbSymbolTableRecord
100
AcDbBlockTableRecord
  2
*Paper_Space
340
1E
 70
0
280
1
281
0
  0
BLOCK_RECORD
  5
2F
330
9
100
AcDbSymbolTableRecord
100
AcDbBlockTableRecord
  2
HEX
340
0
 70
0
280
1
281
0
  0
ENDTAB
  0
ENDSEC
  0
SECTION
  2
BLOCKS
  0
BLOCK
  5
18
330
17
100
AcDbEntity
  8
0
100
AcDbBlockBegin
  2
*Model_Space
 70
0
 10
0.0
 20
0.0
 30
0.0
  3
*Model_Space
  1

  0
ENDBLK
  5
19
330
17
100
AcDbEntity
  8
0
100
AcDbBlockEnd
  0
BLOCK
  5
1C
330
1B
100
AcDbEntity
  8
0
100
AcDbBlockBegin
  2
*Paper_Space
 70
0
 10
0.0
 20
0.0
 30
0.0
  3
*Paper_Space
  1

  0
ENDBLK
  5
1D
330
1B
100
AcDbEntity
  8
0
100
AcDbBlockEnd
  0
BLOCK
  5
30
330
2F
100
AcDbEntity
  8
0
100
AcDbBlockBegin
  2
HEX
 70
0
 10
0.0
 20
0.0
 30
0.0
  3
HEX
  1

  0
LWPOLYLINE
  5
32
330
2F
100
AcDbEntity
  8
0
100
AcDbPolyline
 90
6
 70
1
 10
1.516
 20
0.875
 10
0.0
 20
1.75
 10
-1.516
 20
0.875
 10
-1.516
 20
-0.875
 10
-0.0
 20
-1.75
 10
1.516
 20
-0.875
  0
ENDBLK
  5
31
330
2F
100
AcDbEntity
  8
0
100
AcDbBlockEnd
  0
ENDSEC
  0
SECTION
  2
ENTITIES
  0
LWPOLYLINE
  5
33
330
17
100
AcDbEntity
  8
0
100
AcDbPolyline
 90
7
 70
1
 10
118.132
 20
-143.014
 10
117.541
 20
-142.833
 10
117.203
 20
-142.683
 10
116.886
 20
-142.499
 10
116.624
 20
-142.302
 10
116.761
 20
-142.222
 10
118.132
 20
-143.014
  0
LWPOLYLINE
  5
34
330
17
100
AcDbEntity
  8
0
100
AcDbPolyline
 90
7
 70
1
 10
121.808
 20
-143.283
 10
119.542
 20
-143.204
 10
118.777
 20
-143.131
 10
118.777
 20
-143.097
 10
120.292
 20
-142.222
 10
121.808
 20
-143.097
 10
121.808
 20
-143.283
  0
LWPOLYLINE
  5
35
330
17
100
AcDbEntity
  8
0
100
AcDbPolyline
 90
6
 70
1
 10
125.339
 20
-143.347
 10
122.308
 20
-143.296
 10
122.308
 20
-143.097
 10
123.824
 20
-142.222
 10
125.339
 20
-143.097
 10
125.339
 20
-143.347
  0
LWPOLYLINE
  5
36
330
17
100
AcDbEntity
  8
0
100
AcDbPolyline
 90
6
 70
1
 10
128.87
 20
-143.388
 10
125.839
 20
-143.353
 10
125.839
 20
-143.097
 10
127.355
 20
-142.222
 10
128.87
 20
-143.097
 10
128.87
 20
-143.388
  0
LWPOLYLINE
  5
37
330
17
100
AcDbEntity
  8
0
100
AcDbPolyline
 90
6
 70
1
 10
132.401
 20
-143.449
 10
129.37
 20
-143.395
 10
129.37
 20
-143.097
 10
130.886
 20
-142.222
 10
132.401
 20
-143.097
 10
132.401
 20
-143.449
  0
LWPOLYLINE
  5
38
330
17
100
AcDbEntity
  8
0
100
AcDbPolyline
 90
7
 70
1
 10
135.932
 20
-143.522
 10
134.96
 20
-143.525
 10
132.901
 20
-143.462
 10
132.901
 20
-143.097
 10
134.417
 20
-142.222
 10
135.932
 20
-143.097
 10
135.932
 20
-143.522
  0
LWPOLYLINE
  5
39
330
17
100
AcDbEntity
  8
0
100
AcDbPolyline
 90
9
 70
1
 10
138.966
 20
-142.81
 10
138.429
 20
-143.079
 10
138.203
 20
-143.164
 10
137.734
 20
-143.302
 10
136.995
 20
-143.44
 10
136.432
 20
-143.496
 10
136.432
 20
-143.097
 10
137.948
 20
-142.222
 10
138.966
 20
-142.81
  0
LWPOLYLINE
  5
3A
330
17
100
AcDbEntity
  8
0
100
AcDbPolyline
 90
9
 70
1
 10
116.271
 20
-141.928
 10
116.01
 20
-141.463
 10
115.904
 20
-141.217
 10
115.757
 20
-140.804
 10
115.586
 20
-140.188
 10
115.432
 20
-139.416
 10
116.511
 20
-140.039
 10
116.511
 20
-141.789
 10
116.271
 20
-141.928
  0
INSERT
  5
3B
330
17
100
AcDbEntity
  8
0
100
AcDbBlockReference
  2
HEX
 10
118.527
 20
-140.914
 30
0.0
  0
INSERT
  5
3D
330
17
100
AcDbEntity
  8
0
100
AcDbBlockReference
  2
HEX
 10
122.058
 20
-140.914
 30
0.0
  0
INSERT
  5
3F
330
17
100
AcDbEntity
  8
0
100
AcDbBlockReference
  2
HEX
 10
125.589
 20
-140.914
 30
0.0
  0
INSERT
  5
41
330
17
100
AcDbEntity
  8
0
100
AcDbBlockReference
  2
HEX
 10
129.12
 20
-140.914
 30
0.0
  0
INSERT
  5
43
330
17
100
AcDbEntity
  8
0
100
AcDbBlockReference
  2
HEX
 10
132.651
 20
-140.914
 30
0.0
  0
INSERT
  5
45
330
17
100
AcDbEntity
  8
0
100
AcDbBlockReference
  2
HEX
 10
136.182
 20
-140.914
 30
0.0
  0
LWPOLYLINE
  5
47
330
17
100
AcDbEntity
  8
0
100
AcDbPolyline
 90
16
 70
1
 10
140.618
 20
-139.686
 10
140.59
 20
-140.047
 10
140.543
 20
-140.375
 10
140.478
 20
-140.682
 10
140.397
 20
-140.969
 10
140.301
 20
-141.236
 10
140.19
 20
-141.485
 10
140.065
 20
-141.715
 10
139.927
 20
-141.928
 10
139.776
 20
-142.124
 10
139.44
 20
-142.468
 10
139.412
 20
-142.49
 10
138.198
 20
-141.789
 10
138.198
 20
-140.039
 10
139.713
 20
-139.164
 10
140.618
 20
-139.686
  0
LWPOLYLINE
  5
48
330
17
100
AcDbEntity
  8
0
100
AcDbPolyline
 90
10
 70
1
 10
115.35
 20
-138.791
 10
115.299
 20
-137.929
 10
115.308
 20
-137.408
 10
115.246
 20
-137.192
 10
115.246
 20
-136.981
 10
116.761
 20
-136.106
 10
118.277
 20
-136.981
 10
118.277
 20
-138.731
 10
116.761
 20
-139.606
 10
115.35
 20
-138.791
  0
INSERT
  5
49
330
17
100
AcDbEntity
  8
0
100
AcDbBlockReference
  2
HEX
 10
120.292
 20
-137.856
 30
0.0
  0
INSERT
  5
4B
330
17
100
AcDbEntity
  8
0
100
AcDbBlockReference
  2
HEX
 10
123.824
 20
-137.856
 30
0.0
  0
INSERT
  5
4D
330
17
100
AcDbEntity
  8
0
100
AcDbBlockReference
  2
HEX
 10
127.355
 20
-137.856
 30
0.0
  0
INSERT
  5
4F
330
17
100
AcDbEntity
  8
0
100
AcDbBlockReference
  2
HEX
 10
130.886
 20
-137.856
 30
0.0
  0
INSERT
  5
51
330
17
100
AcDbEntity
  8
0
100
AcDbBlockReference
  2
HEX
 10
134.417
 20
-137.856
 30
0.0
  0
INSERT
  5
53
330
17
100
AcDbEntity
  8
0
100
AcDbBlockReference
  2
HEX
 10
137.948
 20
-137.856
 30
0.0
  0
LWPOLYLINE
  5
55
330
17
100
AcDbEntity
  8
0
100
AcDbPolyline
 90
7
 70
1
 10
140.495
 20
-138.354
 10
140.564
 20
-138.732
 10
140.606
 20
-139.102
 10
139.963
 20
-138.731
 10
139.963
 20
-136.981
 10
140.136
 20
-136.882
 10
140.495
 20
-138.354
  0
LWPOLYLINE
  5
56
330
17
100
AcDbEntity
  8
0
100
AcDbPolyline
 90
6
 70
1
 10
115.051
 20
-136.516
 10
114.185
 20
-133.516
 10
114.996
 20
-133.048
 10
116.511
 20
-133.923
 10
116.511
 20
-135.673
 10
115.051
 20
-136.516
  0
INSERT
  5
57
330
17
100
AcDbEntity
  8
0
100
AcDbBlockReference
  2
HEX
 10
118.527
 20
-134.798
 30
0.0
  0
INSERT
  5
59
330
17
100
AcDbEntity
  8
0
100
AcDbBlockReference
  2
HEX
 10
122.058
 20
-134.798
 30
0.0
  0
INSERT
  5
5B
330
17
100
AcDbEntity
  8
0
100
AcDbBlockReference
  2
HEX
 10
125.589
 20
-134.798
 30
0.0
  0
INSERT
  5
5D
330
17
100
AcDbEntity
  8
0
100
AcDbBlockReference
  2
HEX
 10
129.12
 20
-134.798
 30
0.0
  0
INSERT
  5
5F
330
17
100
AcDbEntity
  8
0
100
AcDbBlockReference
  2
HEX
 10
132.651
 20
-134.798
 30
0.0
  0
INSERT
  5
61
330
17
100
AcDbEntity
  8
0
100
AcDbBlockReference
  2
HEX
 10
136.182
 20
-134.798
 30
0.0
  0
LWPOLYLINE
  5
63
330
17
100
AcDbEntity
  8
0
100
AcDbPolyline
 90
7
 70
1
 10
139.364
 20
-134.063
 10
140.008
 20
-136.378
 10
139.713
 20
-136.548
 10
138.198
 20
-135.673
 10
138.198
 20
-133.923
 10
139.155
 20
-133.371
 10
139.364
 20
-134.063
  0
LWPOLYLINE
  5
64
330
17
100
AcDbEntity
  8
0
100
AcDbPolyline
 90
6
 70
1
 10
114.042
 20
-133.022
 10
113.176
 20
-130.021
 10
113.23
 20
-129.99
 10
114.746
 20
-130.865
 10
114.746
 20
-132.615
 10
114.042
 20
-133.022
  0
INSERT
  5
65
330
17
100
AcDbEntity
  8
0
100
AcDbBlockReference
  2
HEX
 10
116.761
 20
-131.74
 30
0.0
  0
INSERT
  5
67
330
17
100
AcDbEntity
  8
0
100
AcDbBlockReference
  2
HEX
 10
120.292
 20
-131.74
 30
0.0
  0
INSERT
  5
69
330
17
100
AcDbEntity
  8
0
100
AcDbBlockReference
  2
HEX
 10
123.824
 20
-131.74
 30
0.0
  0
INSERT
  5
6B
330
17
100
AcDbEntity
  8
0
100
AcDbBlockReference
  2
HEX
 10
127.355
 20
-131.74
 30
0.0
  0
INSERT
  5
6D
330
17
100
AcDbEntity
  8
0
100
AcDbBlockReference
  2
HEX
 10
130.886
 20
-131.74
 30
0.0
  0
INSERT
  5
6F
330
17
100
AcDbEntity
  8
0
100
AcDbBlockReference
  2
HEX
 10
134.417
 20
-131.74
 30
0.0
  0
LWPOLYLINE
  5
71
330
17
100
AcDbEntity
  8
0
100
AcDbPolyline
 90
8
 70
1
 10
138.326
 20
-130.832
 10
139.002
 20
-132.882
 10
137.948
 20
-133.49
 10
136.432
 20
-132.615
 10
136.432
 20
-130.865
 10
137.948
 20
-129.99
 10
138.05
 20
-130.049
 10
138.326
 20
-130.832
  0
LWPOLYLINE
  5
72
330
17
100
AcDbEntity
  8
0
100
AcDbPolyline
 90
5
 70
1
 10
112.98
 20
-129.342
 10
112.674
 20
-128.282
 10
112.449
 20
-127.5
 10
112.98
 20
-127.807
 10
112.98
 20
-129.342
  0
INSERT
  5
73
330
17
100
AcDbEntity
  8
0
100
AcDbBlockReference
  2
HEX
 10
114.996
 20
-128.682
 30
0.0
  0
INSERT
  5
75
330
17
100
AcDbEntity
  8
0
100
AcDbBlockReference
  2
HEX
 10
118.527
 20
-128.682
 30
0.0
  0
INSERT
  5
77
330
17
100
AcDbEntity
  8
0
100
AcDbBlockReference
  2
HEX
 10
122.058
 20
-128.682
 30
0.0
  0
INSERT
  5
79
330
17
100
AcDbEntity
  8
0
100
AcDbBlockReference
  2
HEX
 10
125.589
 20
-128.682
 30
0.0
  0
INSERT
  5
7B
330
17
100
AcDbEntity
  8
0
100
AcDbBlockReference
  2
HEX
 10
129.12
 20
-128.682
 30
0.0
  0
INSERT
  5
7D
330
17
100
AcDbEntity
  8
0
100
AcDbBlockReference
  2
HEX
 10
132.651
 20
-128.682
 30
0.0
  0
LWPOLYLINE
  5
7F
330
17
100
AcDbEntity
  8
0
100
AcDbPolyline
 90
8
 70
1
 10
137.075
 20
-127.447
 10
137.698
 20
-129.082
 10
137.698
 20
-129.557
 10
136.182
 20
-130.432
 10
134.667
 20
-129.557
 10
134.667
 20
-127.807
 10
136.182
 20
-126.932
 10
137.075
 20
-127.447
  0
LWPOLYLINE
  5
80
330
17
100
AcDbEntity
  8
0
100
AcDbPolyline
 90
8
 70
1
 10
112.249
 20
-126.808
 10
111.715
 20
-124.957
 10
111.715
 20
-124.749
 10
113.23
 20
-123.874
 10
114.746
 20
-124.749
 10
114.746
 20
-126.499
 10
113.23
 20
-127.374
 10
112.249
 20
-126.808
  0
INSERT
  5
81
330
17
100
AcDbEntity
  8
0
100
AcDbBlockReference
  2
HEX
 10
116.761
 20
-125.624
 30
0.0
  0
INSERT
  5
83
330
17
100
AcDbEntity
  8
0
100
AcDbBlockReference
  2
HEX
 10
120.292
 20
-125.624
 30
0.0
  0
INSERT
  5
85
330
17
100
AcDbEntity
  8
0
100
AcDbBlockReference
  2
HEX
 10
123.824
 20
-125.624
 30
0.0
  0
INSERT
  5
87
330
17
100
AcDbEntity
  8
0
100
AcDbBlockReference
  2
HEX
 10
127.355
 20
-125.624
 30
0.0
  0
INSERT
  5
89
330
17
100
AcDbEntity
  8
0
100
AcDbBlockReference
  2
HEX
 10
130.886
 20
-125.624
 30
0.0
  0
INSERT
  5
8B
330
17
100
AcDbEntity
  8
0
100
AcDbBlockReference
  2
HEX
 10
134.417
 20
-125.624
 30
0.0
  0
LWPOLYLINE
  5
8D
330
17
100
AcDbEntity
  8
0
100
AcDbPolyline
 90
4
 70
1
 10
136.432
 20
-125.846
 10
136.778
 20
-126.699
 10
136.432
 20
-126.499
 10
136.432
 20
-125.846
  0
LWPOLYLINE
  5
8E
330
17
100
AcDbEntity
  8
0
100
AcDbPolyline
 90
6
 70
1
 10
111.52
 20
-124.284
 10
110.654
 20
-121.284
 10
111.465
 20
-120.816
 10
112.98
 20
-121.691
 10
112.98
 20
-123.441
 10
111.52
 20
-124.284
  0
INSERT
  5
8F
330
17
100
AcDbEntity
  8
0
100
AcDbBlockReference
  2
HEX
 10
114.996
 20
-122.566
 30
0.0
  0
INSERT
  5
91
330
17
100
AcDbEntity
  8
0
100
AcDbBlockReference
  2
HEX
 10
118.527
 20
-122.566
 30
0.0
  0
INSERT
  5
93
330
17
100
AcDbEntity
  8
0
100
AcDbBlockReference
  2
HEX
 10
122.058
 20
-122.566
 30
0.0
  0
INSERT
  5
95
330
17
100
AcDbEntity
  8
0
100
AcDbBlockReference
  2
HEX
 10
125.589
 20
-122.566
 30
0.0
  0
INSERT
  5
97
330
17
100
AcDbEntity
  8
0
100
AcDbBlockReference
  2
HEX
 10
129.12
 20
-122.566
 30
0.0
  0
INSERT
  5
99
330
17
100
AcDbEntity
  8
0
100
AcDbBlockReference
  2
HEX
 10
132.651
 20
-122.566
 30
0.0
  0
LWPOLYLINE
  5
9B
330
17
100
AcDbEntity
  8
0
100
AcDbPolyline
 90
5
 70
1
 10
134.667
 20
-121.727
 10
135.295
 20
-123.156
 10
135.667
 20
-124.019
 10
134.667
 20
-123.441
 10
134.667
 20
-121.727
  0
LWPOLYLINE
  5
9C
330
17
100
AcDbEntity
  8
0
100
AcDbPolyline
 90
6
 70
1
 10
110.512
 20
-120.789
 10
109.646
 20
-117.789
 10
109.699
 20
-117.758
 10
111.215
 20
-118.633
 10
111.215
 20
-120.383
 10
110.512
 20
-120.789
  0
INSERT
  5
9D
330
17
100
AcDbEntity
  8
0
100
AcDbBlockReference
  2
HEX
 10
113.23
 20
-119.508
 30
0.0
  0
INSERT
  5
9F
330
17
100
AcDbEntity
  8
0
100
AcDbBlockReference
  2
HEX
 10
116.761
 20
-119.508
 30
0.0
  0
INSERT
  5
A1
330
17
100
AcDbEntity
  8
0
100
AcDbBlockReference
  2
HEX
 10
120.292
 20
-119.508
 30
0.0
  0
INSERT
  5
A3
330
17
100
AcDbEntity
  8
0
100
AcDbBlockReference
  2
HEX
 10
123.824
 20
-119.508
 30
0.0
  0
INSERT
  5
A5
330
17
100
AcDbEntity
  8
0
100
AcDbBlockReference
  2
HEX
 10
127.355
 20
-119.508
 30
0.0
  0
INSERT
  5
A7
330
17
100
AcDbEntity
  8
0
100
AcDbBlockReference
  2
HEX
 10
130.886
 20
-119.508
 30
0.0
  0
LWPOLYLINE
  5
A9
330
17
100
AcDbEntity
  8
0
100
AcDbPolyline
 90
6
 70
1
 10
133.193
 20
-118.465
 10
134.449
 20
-121.239
 10
134.417
 20
-121.258
 10
132.901
 20
-120.383
 10
132.901
 20
-118.633
 10
133.193
 20
-118.465
  0
LWPOLYLINE
  5
AA
330
17
100
AcDbEntity
  8
0
100
AcDbPolyline
 90
5
 70
1
 10
109.449
 20
-117.108
 10
108.987
 20
-115.505
 10
108.918
 20
-115.269
 10
109.449
 20
-115.575
 10
109.449
 20
-117.108
  0
INSERT
  5
AB
330
17
100
AcDbEntity
  8
0
100
AcDbBlockReference
  2
HEX
 10
111.465
 20
-116.45
 30
0.0
  0
INSERT
  5
AD
330
17
100
AcDbEntity
  8
0
100
AcDbBlockReference
  2
HEX
 10
114.996
 20
-116.45
 30
0.0
  0
INSERT
  5
AF
330
17
100
AcDbEntity
  8
0
100
AcDbBlockReference
  2
HEX
 10
118.527
 20
-116.45
 30
0.0
  0
INSERT
  5
B1
330
17
100
AcDbEntity
  8
0
100
AcDbBlockReference
  2
HEX
 10
122.058
 20
-116.45
 30
0.0
  0
INSERT
  5
B3
330
17
100
AcDbEntity
  8
0
100
AcDbBlockReference
  2
HEX
 10
125.589
 20
-116.45
 30
0.0
  0
INSERT
  5
B5
330
17
100
AcDbEntity
  8
0
100
AcDbBlockReference
  2
HEX
 10
129.12
 20
-116.45
 30
0.0
  0
LWPOLYLINE
  5
B7
330
17
100
AcDbEntity
  8
0
100
AcDbPolyline
 90
6
 70
1
 10
131.718
 20
-115.239
 10
132.984
 20
-118.008
 10
132.651
 20
-118.2
 10
131.136
 20
-117.325
 10
131.136
 20
-115.575
 10
131.718
 20
-115.239
  0
LWPOLYLINE
  5
B8
330
17
100
AcDbEntity
  8
0
100
AcDbPolyline
 90
8
 70
1
 10
108.718
 20
-114.576
 10
108.184
 20
-112.723
 10
108.184
 20
-112.517
 10
109.699
 20
-111.642
 10
111.215
 20
-112.517
 10
111.215
 20
-114.267
 10
109.699
 20
-115.142
 10
108.718
 20
-114.576
  0
INSERT
  5
B9
330
17
100
AcDbEntity
  8
0
100
AcDbBlockReference
  2
HEX
 10
113.23
 20
-113.392
 30
0.0
  0
INSERT
  5
BB
330
17
100
AcDbEntity
  8
0
100
AcDbBlockReference
  2
HEX
 10
116.761
 20
-113.392
 30
0.0
  0
INSERT
  5
BD
330
17
100
AcDbEntity
  8
0
100
AcDbBlockReference
  2
HEX
 10
120.292
 20
-113.392
 30
0.0
  0
INSERT
  5
BF
330
17
100
AcDbEntity
  8
0
100
AcDbBlockReference
  2
HEX
 10
123.824
 20
-113.392
 30
0.0
  0
INSERT
  5
C1
330
17
100
AcDbEntity
  8
0
100
AcDbBlockReference
  2
HEX
 10
127.355
 20
-113.392
 30
0.0
  0
LWPOLYLINE
  5
C3
330
17
100
AcDbEntity
  8
0
100
AcDbPolyline
 90
6
 70
1
 10
130.267
 20
-111.999
 10
131.51
 20
-114.782
 10
130.886
 20
-115.142
 10
129.37
 20
-114.267
 10
129.37
 20
-112.517
 10
130.267
 20
-111.999
  0
LWPOLYLINE
  5
C4
330
17
100
AcDbEntity
  8
0
100
AcDbPolyline
 90
6
 70
1
 10
107.99
 20
-112.052
 10
107.124
 20
-109.052
 10
107.934
 20
-108.584
 10
109.449
 20
-109.459
 10
109.449
 20
-111.209
 10
107.99
 20
-112.052
  0
INSERT
  5
C5
330
17
100
AcDbEntity
  8
0
100
AcDbBlockReference
  2
HEX
 10
111.465
 20
-110.334
 30
0.0
  0
INSERT
  5
C7
330
17
100
AcDbEntity
  8
0
100
AcDbBlockReference
  2
HEX
 10
114.996
 20
-110.334
 30
0.0
  0
INSERT
  5
C9
330
17
100
AcDbEntity
  8
0
100
AcDbBlockReference
  2
HEX
 10
118.527
 20
-110.334
 30
0.0
  0
INSERT
  5
CB
330
17
100
AcDbEntity
  8
0
100
AcDbBlockReference
  2
HEX
 10
122.058
 20
-110.334
 30
0.0
  0
INSERT
  5
CD
330
17
100
AcDbEntity
  8
0
100
AcDbBlockReference
  2
HEX
 10
125.589
 20
-110.334
 30
0.0
  0
LWPOLYLINE
  5
CF
330
17
100
AcDbEntity
  8
0
100
AcDbPolyline
 90
7
 70
1
 10
128.906
 20
-108.708
 10
129.545
 20
-110.299
 10
130.068
 20
-111.537
 10
129.12
 20
-112.084
 10
127.605
 20
-111.209
 10
127.605
 20
-109.459
 10
128.906
 20
-108.708
  0
LWPOLYLINE
  5
D0
330
17
100
AcDbEntity
  8
0
100
AcDbPolyline
 90
7
 70
1
 10
106.879
 20
-108.204
 10
106.022
 20
-105.611
 10
106.168
 20
-105.526
 10
107.684
 20
-106.401
 10
107.684
 20
-108.151
 10
106.981
 20
-108.557
 10
106.879
 20
-108.204
  0
INSERT
  5
D1
330
17
100
AcDbEntity
  8
0
100
AcDbBlockReference
  2
HEX
 10
109.699
 20
-107.276
 30
0.0
  0
INSERT
  5
D3
330
17
100
AcDbEntity
  8
0
100
AcDbBlockReference
  2
HEX
 10
113.23
 20
-107.276
 30
0.0
  0
INSERT
  5
D5
330
17
100
AcDbEntity
  8
0
100
AcDbBlockReference
  2
HEX
 10
116.761
 20
-107.276
 30
0.0
  0
INSERT
  5
D7
330
17
100
AcDbEntity
  8
0
100
AcDbBlockReference
  2
HEX
 10
120.292
 20
-107.276
 30
0.0
  0
INSERT
  5
D9
330
17
100
AcDbEntity
  8
0
100
AcDbBlockReference
  2
HEX
 10
123.824
 20
-107.276
 30
0.0
  0
LWPOLYLINE
  5
DB
330
17
100
AcDbEntity
  8
0
100
AcDbPolyline
 90
8
 70
1
 10
128.034
 20
-106.356
 10
128.724
 20
-108.235
 10
127.355
 20
-109.026
 10
125.839
 20
-108.151
 10
125.839
 20
-106.401
 10
127.355
 20
-105.526
 10
127.848
 20
-105.811
 10
128.034
 20
-106.356
  0
LWPOLYLINE
  5
DC
330
17
100
AcDbEntity
  8
0
100
AcDbPolyline
 90
8
 70
1
 10
105.886
 20
-105.112
 10
105.727
 20
-104.451
 10
105.653
 20
-104.019
 10
105.618
 20
-103.586
 10
105.636
 20
-103.181
 10
105.918
 20
-103.343
 10
105.918
 20
-105.093
 10
105.886
 20
-105.112
  0
INSERT
  5
DD
330
17
100
AcDbEntity
  8
0
100
AcDbBlockReference
  2
HEX
 10
107.934
 20
-104.218
 30
0.0
  0
INSERT
  5
DF
330
17
100
AcDbEntity
  8
0
100
AcDbBlockReference
  2
HEX
 10
111.465
 20
-104.218
 30
0.0
  0
INSERT
  5
E1
330
17
100
AcDbEntity
  8
0
100
AcDbBlockReference
  2
HEX
 10
114.996
 20
-104.218
 30
0.0
  0
INSERT
  5
E3
330
17
100
AcDbEntity
  8
0
100
AcDbBlockReference
  2
HEX
 10
118.527
 20
-104.218
 30
0.0
  0
INSERT
  5
E5
330
17
100
AcDbEntity
  8
0
100
AcDbBlockReference
  2
HEX
 10
122.058
 20
-104.218
 30
0.0
  0
LWPOLYLINE
  5
E7
330
17
100
AcDbEntity
  8
0
100
AcDbPolyline
 90
8
 70
1
 10
127.105
 20
-103.448
 10
127.105
 20
-105.093
 10
125.589
 20
-105.968
 10
124.074
 20
-105.093
 10
124.074
 20
-103.343
 10
125.589
 20
-102.468
 10
127.068
 20
-103.322
 10
127.105
 20
-103.448
  0
LWPOLYLINE
  5
E8
330
17
100
AcDbEntity
  8
0
100
AcDbPolyline
 90
10
 70
1
 10
105.761
 20
-102.668
 10
105.866
 20
-102.438
 10
105.986
 20
-102.237
 10
106.127
 20
-102.05
 10
106.287
 20
-101.878
 10
106.437
 20
-101.745
 10
107.684
 20
-100.802
 10
107.684
 20
-102.035
 10
106.168
 20
-102.91
 10
105.761
 20
-102.668
  0
LWPOLYLINE
  5
E9
330
17
100
AcDbEntity
  8
0
100
AcDbPolyline
 90
8
 70
1
 10
108.184
 20
-100.405
 10
108.309
 20
-100.212
 10
109.699
 20
-99.41
 10
111.215
 20
-100.285
 10
111.215
 20
-102.035
 10
109.699
 20
-102.91
 10
108.184
 20
-102.035
 10
108.184
 20
-100.405
  0
INSERT
  5
EA
330
17
100
AcDbEntity
  8
0
100
AcDbBlockReference
  2
HEX
 10
113.23
 20
-101.16
 30
0.0
  0
INSERT
  5
EC
330
17
100
AcDbEntity
  8
0
100
AcDbBlockReference
  2
HEX
 10
116.761
 20
-101.16
 30
0.0
  0
INSERT
  5
EE
330
17
100
AcDbEntity
  8
0
100
AcDbBlockReference
  2
HEX
 10
120.292
 20
-101.16
 30
0.0
  0
INSERT
  5
F0
330
17
100
AcDbEntity
  8
0
100
AcDbBlockReference
  2
HEX
 10
123.824
 20
-101.16
 30
0.0
  0
LWPOLYLINE
  5
F2
330
17
100
AcDbEntity
  8
0
100
AcDbPolyline
 90
6
 70
1
 10
126.259
 20
-100.043
 10
126.582
 20
-101.492
 10
126.877
 20
-102.634
 10
125.839
 20
-102.035
 10
125.839
 20
-100.285
 10
126.259
 20
-100.043
  0
LWPOLYLINE
  5
F3
330
17
100
AcDbEntity
  8
0
100
AcDbPolyline
 90
7
 70
1
 10
108.384
 20
-99.592
 10
108.312
 20
-99.253
 10
107.512
 20
-96.595
 10
107.934
 20
-96.352
 10
109.449
 20
-97.227
 10
109.449
 20
-98.977
 10
108.384
 20
-99.592
  0
INSERT
  5
F4
330
17
100
AcDbEntity
  8
0
100
AcDbBlockReference
  2
HEX
 10
111.465
 20
-98.102
 30
0.0
  0
INSERT
  5
F6
330
17
100
AcDbEntity
  8
0
100
AcDbBlockReference
  2
HEX
 10
114.996
 20
-98.102
 30
0.0
  0
INSERT
  5
F8
330
17
100
AcDbEntity
  8
0
100
AcDbBlockReference
  2
HEX
 10
118.527
 20
-98.102
 30
0.0
  0
INSERT
  5
FA
330
17
100
AcDbEntity
  8
0
100
AcDbBlockReference
  2
HEX
 10
122.058
 20
-98.102
 30
0.0
  0
LWPOLYLINE
  5
FC
330
17
100
AcDbEntity
  8
0
100
AcDbPolyline
 90
9
 70
1
 10
125.713
 20
-96.424
 10
125.817
 20
-97.388
 10
125.931
 20
-98.21
 10
126.158
 20
-99.524
 10
125.589
 20
-99.852
 10
124.074
 20
-98.977
 10
124.074
 20
-97.227
 10
125.589
 20
-96.352
 10
125.713
 20
-96.424
  0
LWPOLYLINE
  5
FD
330
17
100
AcDbEntity
  8
0
100
AcDbPolyline
 90
6
 70
1
 10
107.364
 20
-96.104
 10
106.626
 20
-93.653
 10
106.592
 20
-93.539
 10
107.684
 20
-94.169
 10
107.684
 20
-95.919
 10
107.364
 20
-96.104
  0
INSERT
  5
FE
330
17
100
AcDbEntity
  8
0
100
AcDbBlockReference
  2
HEX
 10
109.699
 20
-95.044
 30
0.0
  0
INSERT
  5
100
330
17
100
AcDbEntity
  8
0
100
AcDbBlockReference
  2
HEX
 10
113.23
 20
-95.044
 30
0.0
  0
INSERT
  5
102
330
17
100
AcDbEntity
  8
0
100
AcDbBlockReference
  2
HEX
 10
116.761
 20
-95.044
 30
0.0
  0
INSERT
  5
104
330
17
100
AcDbEntity
  8
0
100
AcDbBlockReference
  2
HEX
 10
120.292
 20
-95.044
 30
0.0
  0
INSERT
  5
106
330
17
100
AcDbEntity
  8
0
100
AcDbBlockReference
  2
HEX
 10
123.824
 20
-95.044
 30
0.0
  0
LWPOLYLINE
  5
108
330
17
100
AcDbEntity
  8
0
100
AcDbPolyline
 90
4
 70
1
 10
105.849
 20
-91.071
 10
105.918
 20
-91.111
 10
105.918
 20
-91.301
 10
105.849
 20
-91.071
  0
INSERT
  5
109
330
17
100
AcDbEntity
  8
0
100
AcDbBlockReference
  2
HEX
 10
107.934
 20
-91.986
 30
0.0
  0
INSERT
  5
10B
330
17
100
AcDbEntity
  8
0
100
AcDbBlockReference
  2
HEX
 10
111.465
 20
-91.986
 30
0.0
  0
INSERT
  5
10D
330
17
100
AcDbEntity
  8
0
100
AcDbBlockReference
  2
HEX
 10
114.996
 20
-91.986
 30
0.0
  0
INSERT
  5
10F
330
17
100
AcDbEntity
  8
0
100
AcDbBlockReference
  2
HEX
 10
118.527
 20
-91.986
 30
0.0
  0
INSERT
  5
111
330
17
100
AcDbEntity
  8
0
100
AcDbBlockReference
  2
HEX
 10
122.058
 20
-91.986
 30
0.0
  0
LWPOLYLINE
  5
113
330
17
100
AcDbEntity
  8
0
100
AcDbPolyline
 90
9
 70
1
 10
125.766
 20
-90.868
 10
125.679
 20
-91.674
 10
125.622
 20
-92.484
 10
125.589
 20
-93.736
 10
124.074
 20
-92.861
 10
124.074
 20
-91.111
 10
125.589
 20
-90.236
 10
125.836
 20
-90.379
 10
125.766
 20
-90.868
  0
LWPOLYLINE
  5
114
330
17
100
AcDbEntity
  8
0
100
AcDbPolyline
 90
7
 70
1
 10
105.639
 20
-90.372
 10
104.898
 20
-87.912
 10
106.168
 20
-87.178
 10
107.684
 20
-88.053
 10
107.684
 20
-89.803
 10
106.168
 20
-90.678
 10
105.639
 20
-90.372
  0
INSERT
  5
115
330
17
100
AcDbEntity
  8
0
100
AcDbBlockReference
  2
HEX
 10
109.699
 20
-88.928
 30
0.0
  0
INSERT
  5
117
330
17
100
AcDbEntity
  8
0
100
AcDbBlockReference
  2
HEX
 10
113.23
 20
-88.928
 30
0.0
  0
INSERT
  5
119
330
17
100
AcDbEntity
  8
0
100
AcDbBlockReference
  2
HEX
 10
116.761
 20
-88.928
 30
0.0
  0
INSERT
  5
11B
330
17
100
AcDbEntity
  8
0
100
AcDbBlockReference
  2
HEX
 10
120.292
 20
-88.928
 30
0.0
  0
INSERT
  5
11D
330
17
100
AcDbEntity
  8
0
100
AcDbBlockReference
  2
HEX
 10
123.824
 20
-88.928
 30
0.0
  0
LWPOLYLINE
  5
11F
330
17
100
AcDbEntity
  8
0
100
AcDbPolyline
 90
7
 70
1
 10
126.206
 20
-88.474
 10
126.028
 20
-89.267
 10
125.921
 20
-89.85
 10
125.839
 20
-89.803
 10
125.839
 20
-88.053
 10
126.405
 20
-87.726
 10
126.206
 20
-88.474
  0
LWPOLYLINE
  5
120
330
17
100
AcDbEntity
  8
0
100
AcDbPolyline
 90
9
 70
1
 10
104.749
 20
-87.42
 10
104.411
 20
-86.379
 10
104.229
 20
-85.758
 10
104.07
 20
-85.124
 10
103.933
 20
-84.391
 10
104.403
 20
-84.12
 10
105.918
 20
-84.995
 10
105.918
 20
-86.745
 10
104.749
 20
-87.42
  0
INSERT
  5
121
330
17
100
AcDbEntity
  8
0
100
AcDbBlockReference
  2
HEX
 10
107.934
 20
-85.87
 30
0.0
  0
INSERT
  5
123
330
17
100
AcDbEntity
  8
0
100
AcDbBlockReference
  2
HEX
 10
111.465
 20
-85.87
 30
0.0
  0
INSERT
  5
125
330
17
100
AcDbEntity
  8
0
100
AcDbBlockReference
  2
HEX
 10
114.996
 20
-85.87
 30
0.0
  0
INSERT
  5
127
330
17
100
AcDbEntity
  8
0
100
AcDbBlockReference
  2
HEX
 10
118.527
 20
-85.87
 30
0.0
  0
INSERT
  5
129
330
17
100
AcDbEntity
  8
0
100
AcDbBlockReference
  2
HEX
 10
122.058
 20
-85.87
 30
0.0
  0
LWPOLYLINE
  5
12B
330
17
100
AcDbEntity
  8
0
100
AcDbPolyline
 90
9
 70
1
 10
127.105
 20
-85.292
 10
126.917
 20
-86.019
 10
126.613
 20
-87.029
 10
125.589
 20
-87.62
 10
124.074
 20
-86.745
 10
124.074
 20
-84.995
 10
125.589
 20
-84.12
 10
127.105
 20
-84.995
 10
127.105
 20
-85.292
  0
LWPOLYLINE
  5
12C
330
17
100
AcDbEntity
  8
0
100
AcDbPolyline
 90
10
 70
1
 10
65.311
 20
-82.865
 10
64.314
 20
-82.861
 10
64.115
 20
-82.822
 10
63.905
 20
-82.729
 10
63.765
 20
-82.629
 10
63.643
 20
-82.504
 10
62.952
 20
-81.549
 10
63.795
 20
-81.062
 10
65.311
 20
-81.937
 10
65.311
 20
-82.865
  0
LWPOLYLINE
  5
12D
330
17
100
AcDbEntity
  8
0
100
AcDbPolyline
 90
6
 70
1
 10
68.842
 20
-82.866
 10
65.811
 20
-82.865
 10
65.811
 20
-81.937
 10
67.326
 20
-81.062
 10
68.842
 20
-81.937
 10
68.842
 20
-82.866
  0
LWPOLYLINE
  5
12E
330
17
100
AcDbEntity
  8
0
100
AcDbPolyline
 90
6
 70
1
 10
72.373
 20
-82.867
 10
69.342
 20
-82.866
 10
69.342
 20
-81.937
 10
70.857
 20
-81.062
 10
72.373
 20
-81.937
 10
72.373
 20
-82.867
  0
LWPOLYLINE
  5
12F
330
17
100
AcDbEntity
  8
0
100
AcDbPolyline
 90
6
 70
1
 10
75.904
 20
-82.868
 10
72.873
 20
-82.867
 10
72.873
 20
-81.937
 10
74.388
 20
-81.062
 10
75.904
 20
-81.937
 10
75.904
 20
-82.868
  0
LWPOLYLINE
  5
130
330
17
100
AcDbEntity
  8
0
100
AcDbPolyline
 90
6
 70
1
 10
79.435
 20
-82.87
 10
76.404
 20
-82.869
 10
76.404
 20
-81.937
 10
77.919
 20
-81.062
 10
79.435
 20
-81.937
 10
79.435
 20
-82.87
  0
LWPOLYLINE
  5
131
330
17
100
AcDbEntity
  8
0
100
AcDbPolyline
 90
6
 70
1
 10
82.966
 20
-82.871
 10
79.935
 20
-82.87
 10
79.935
 20
-81.937
 10
81.45
 20
-81.062
 10
82.966
 20
-81.937
 10
82.966
 20
-82.871
  0
LWPOLYLINE
  5
132
330
17
100
AcDbEntity
  8
0
100
AcDbPolyline
 90
6
 70
1
 10
86.497
 20
-82.872
 10
83.466
 20
-82.871
 10
83.466
 20
-81.937
 10
84.982
 20
-81.062
 10
86.497
 20
-81.937
 10
86.497
 20
-82.872
  0
LWPOLYLINE
  5
133
330
17
100
AcDbEntity
  8
0
100
AcDbPolyline
 90
6
 70
1
 10
90.028
 20
-82.869
 10
86.997
 20
-82.872
 10
86.997
 20
-81.937
 10
88.513
 20
-81.062
 10
90.028
 20
-81.937
 10
90.028
 20
-82.869
  0
LWPOLYLINE
  5
134
330
17
100
AcDbEntity
  8
0
100
AcDbPolyline
 90
9
 70
1
 10
93.022
 20
-81.627
 10
93.338
 20
-83.334
 10
92.823
 20
-83.146
 10
92.168
 20
-82.995
 10
91.374
 20
-82.901
 10
90.528
 20
-82.868
 10
90.528
 20
-81.937
 10
92.044
 20
-81.062
 10
93.022
 20
-81.627
  0
LWPOLYLINE
  5
135
330
17
100
AcDbEntity
  8
0
100
AcDbPolyline
 90
9
 70
1
 10
103.857
 20
-83.644
 10
103.862
 20
-83.034
 10
103.907
 20
-82.641
 10
103.989
 20
-82.264
 10
104.109
 20
-81.912
 10
104.153
 20
-81.937
 10
104.153
 20
-83.687
 10
103.87
 20
-83.85
 10
103.857
 20
-83.644
  0
INSERT
  5
136
330
17
100
AcDbEntity
  8
0
100
AcDbBlockReference
  2
HEX
 10
106.168
 20
-82.812
 30
0.0
  0
INSERT
  5
138
330
17
100
AcDbEntity
  8
0
100
AcDbBlockReference
  2
HEX
 10
109.699
 20
-82.812
 30
0.0
  0
INSERT
  5
13A
330
17
100
AcDbEntity
  8
0
100
AcDbBlockReference
  2
HEX
 10
113.23
 20
-82.812
 30
0.0
  0
INSERT
  5
13C
330
17
100
AcDbEntity
  8
0
100
AcDbBlockReference
  2
HEX
 10
116.761
 20
-82.812
 30
0.0
  0
INSERT
  5
13E
330
17
100
AcDbEntity
  8
0
100
AcDbBlockReference
  2
HEX
 10
120.292
 20
-82.812
 30
0.0
  0
INSERT
  5
140
330
17
100
AcDbEntity
  8
0
100
AcDbBlockReference
  2
HEX
 10
123.824
 20
-82.812
 30
0.0
  0
LWPOLYLINE
  5
142
330
17
100
AcDbEntity
  8
0
100
AcDbPolyline
 90
12
 70
1
 10
126.812
 20
-81.375
 10
126.97
 20
-81.72
 10
127.089
 20
-82.061
 10
127.181
 20
-82.414
 10
127.247
 20
-82.776
 10
127.289
 20
-83.141
 10
127.309
 20
-83.624
 10
127.293
 20
-84.096
 10
127.25
 20
-84.501
 10
125.839
 20
-83.687
 10
125.839
 20
-81.937
 10
126.812
 20
-81.375
  0
LWPOLYLINE
  5
143
330
17
100
AcDbEntity
  8
0
100
AcDbPolyline
 90
6
 70
1
 10
62.658
 20
-81.141
 10
60.875
 20
-78.67
 10
62.029
 20
-78.004
 10
63.545
 20
-78.879
 10
63.545
 20
-80.629
 10
62.658
 20
-81.141
  0
LWPOLYLINE
  5
144
330
17
100
AcDbEntity
  8
0
100
AcDbPolyline
 90
14
 70
1
 10
64.539
 20
-78.594
 10
64.799
 20
-78.913
 10
65.134
 20
-79.258
 10
65.423
 20
-79.509
 10
65.731
 20
-79.736
 10
66.057
 20
-79.935
 10
66.399
 20
-80.104
 10
66.756
 20
-80.242
 10
67.076
 20
-80.331
 10
67.076
 20
-80.629
 10
65.561
 20
-81.504
 10
64.045
 20
-80.629
 10
64.045
 20
-78.879
 10
64.539
 20
-78.594
  0
LWPOLYLINE
  5
145
330
17
100
AcDbEntity
  8
0
100
AcDbPolyline
 90
13
 70
1
 10
67.576
 20
-80.423
 10
67.935
 20
-80.453
 10
68.416
 20
-80.443
 10
68.652
 20
-80.416
 10
69.11
 20
-80.325
 10
69.551
 20
-80.184
 10
69.971
 20
-79.997
 10
70.368
 20
-79.766
 10
70.607
 20
-79.597
 10
70.607
 20
-80.629
 10
69.092
 20
-81.504
 10
67.576
 20
-80.629
 10
67.576
 20
-80.423
  0
LWPOLYLINE
  5
146
330
17
100
AcDbEntity
  8
0
100
AcDbPolyline
 90
9
 70
1
 10
71.242
 20
-79.023
 10
71.582
 20
-78.605
 10
72.623
 20
-78.004
 10
74.138
 20
-78.879
 10
74.138
 20
-80.629
 10
72.623
 20
-81.504
 10
71.107
 20
-80.629
 10
71.107
 20
-79.163
 10
71.242
 20
-79.023
  0
INSERT
  5
147
330
17
100
AcDbEntity
  8
0
100
AcDbBlockReference
  2
HEX
 10
76.154
 20
-79.754
 30
0.0
  0
INSERT
  5
149
330
17
100
AcDbEntity
  8
0
100
AcDbBlockReference
  2
HEX
 10
79.685
 20
-79.754
 30
0.0
  0
INSERT
  5
14B
330
17
100
AcDbEntity
  8
0
100
AcDbBlockReference
  2
HEX
 10
83.216
 20
-79.754
 30
0.0
  0
INSERT
  5
14D
330
17
100
AcDbEntity
  8
0
100
AcDbBlockReference
  2
HEX
 10
86.747
 20
-79.754
 30
0.0
  0
INSERT
  5
14F
330
17
100
AcDbEntity
  8
0
100
AcDbBlockReference
  2
HEX
 10
90.278
 20
-79.754
 30
0.0
  0
LWPOLYLINE
  5
151
330
17
100
AcDbEntity
  8
0
100
AcDbPolyline
 90
6
 70
1
 10
92.491
 20
-78.765
 10
92.855
 20
-80.727
 10
92.902
 20
-80.98
 10
92.294
 20
-80.629
 10
92.294
 20
-78.879
 10
92.491
 20
-78.765
  0
LWPOLYLINE
  5
152
330
17
100
AcDbEntity
  8
0
100
AcDbPolyline
 90
10
 70
1
 10
104.34
 20
-81.468
 10
104.622
 20
-81.101
 10
104.75
 20
-80.972
 10
105.031
 20
-80.74
 10
105.182
 20
-80.637
 10
105.507
 20
-80.456
 10
105.918
 20
-80.281
 10
105.918
 20
-80.629
 10
104.403
 20
-81.504
 10
104.34
 20
-81.468
  0
LWPOLYLINE
  5
153
330
17
100
AcDbEntity
  8
0
100
AcDbPolyline
 90
9
 70
1
 10
106.419
 20
-80.126
 10
107.018
 20
-80.001
 10
107.642
 20
-79.92
 10
108.49
 20
-79.864
 10
109.449
 20
-79.849
 10
109.449
 20
-80.629
 10
107.934
 20
-81.504
 10
106.418
 20
-80.629
 10
106.419
 20
-80.126
  0
LWPOLYLINE
  5
154
330
17
100
AcDbEntity
  8
0
100
AcDbPolyline
 90
6
 70
1
 10
109.949
 20
-79.851
 10
112.98
 20
-79.837
 10
112.98
 20
-80.629
 10
111.465
 20
-81.504
 10
109.949
 20
-80.629
 10
109.949
 20
-79.851
  0
LWPOLYLINE
  5
155
330
17
100
AcDbEntity
  8
0
100
AcDbPolyline
 90
6
 70
1
 10
113.48
 20
-79.828
 10
116.511
 20
-79.76
 10
116.511
 20
-80.629
 10
114.996
 20
-81.504
 10
113.48
 20
-80.629
 10
113.48
 20
-79.828
  0
LWPOLYLINE
  5
156
330
17
100
AcDbEntity
  8
0
100
AcDbPolyline
 90
6
 70
1
 10
117.011
 20
-79.748
 10
120.042
 20
-79.694
 10
120.042
 20
-80.629
 10
118.527
 20
-81.504
 10
117.011
 20
-80.629
 10
117.011
 20
-79.748
  0
LWPOLYLINE
  5
157
330
17
100
AcDbEntity
  8
0
100
AcDbPolyline
 90
7
 70
1
 10
120.542
 20
-79.69
 10
122.611
 20
-79.697
 10
123.574
 20
-79.734
 10
123.574
 20
-80.629
 10
122.058
 20
-81.504
 10
120.542
 20
-80.629
 10
120.542
 20
-79.69
  0
LWPOLYLINE
  5
158
330
17
100
AcDbEntity
  8
0
100
AcDbPolyline
 90
12
 70
1
 10
124.074
 20
-79.78
 10
124.631
 20
-79.868
 10
124.985
 20
-79.953
 10
125.322
 20
-80.062
 10
125.638
 20
-80.198
 10
125.929
 20
-80.366
 10
126.108
 20
-80.497
 10
126.358
 20
-80.729
 10
126.545
 20
-80.952
 10
125.589
 20
-81.504
 10
124.074
 20
-80.629
 10
124.074
 20
-79.78
  0
LWPOLYLINE
  5
159
330
17
100
AcDbEntity
  8
0
100
AcDbPolyline
 90
4
 70
1
 10
18.867
 20
-75.51
 10
16.9
 20
-75.518
 10
17.891
 20
-74.946
 10
18.867
 20
-75.51
  0
LWPOLYLINE
  5
15A
330
17
100
AcDbEntity
  8
0
100
AcDbPolyline
 90
5
 70
1
 10
22.372
 20
-75.495
 10
20.744
 20
-75.502
 10
20.457
 20
-75.503
 10
21.422
 20
-74.946
 10
22.372
 20
-75.495
  0
LWPOLYLINE
  5
15B
330
17
100
AcDbEntity
  8
0
100
AcDbPolyline
 90
4
 70
1
 10
25.877
 20
-75.48
 10
24.015
 20
-75.488
 10
24.953
 20
-74.946
 10
25.877
 20
-75.48
  0
LWPOLYLINE
  5
15C
330
17
100
AcDbEntity
  8
0
100
AcDbPolyline
 90
4
 70
1
 10
29.382
 20
-75.464
 10
27.573
 20
-75.472
 10
28.484
 20
-74.946
 10
29.382
 20
-75.464
  0
LWPOLYLINE
  5
15D
330
17
100
AcDbEntity
  8
0
100
AcDbPolyline
 90
4
 70
1
 10
32.887
 20
-75.449
 10
31.13
 20
-75.457
 10
32.015
 20
-74.946
 10
32.887
 20
-75.449
  0
LWPOLYLINE
  5
15E
330
17
100
AcDbEntity
  8
0
100
AcDbPolyline
 90
5
 70
1
 10
36.392
 20
-75.434
 10
34.988
 20
-75.44
 10
34.688
 20
-75.442
 10
35.546
 20
-74.946
 10
36.392
 20
-75.434
  0
LWPOLYLINE
  5
15F
330
17
100
AcDbEntity
  8
0
100
AcDbPolyline
 90
4
 70
1
 10
39.897
 20
-75.419
 10
38.246
 20
-75.426
 10
39.077
 20
-74.946
 10
39.897
 20
-75.419
  0
LWPOLYLINE
  5
160
330
17
100
AcDbEntity
  8
0
100
AcDbPolyline
 90
4
 70
1
 10
43.402
 20
-75.404
 10
41.803
 20
-75.411
 10
42.608
 20
-74.946
 10
43.402
 20
-75.404
  0
LWPOLYLINE
  5
161
330
17
100
AcDbEntity
  8
0
100
AcDbPolyline
 90
4
 70
1
 10
46.907
 20
-75.389
 10
45.361
 20
-75.396
 10
46.14
 20
-74.946
 10
46.907
 20
-75.389
  0
LWPOLYLINE
  5
162
330
17
100
AcDbEntity
  8
0
100
AcDbPolyline
 90
4
 70
1
 10
50.411
 20
-75.374
 10
48.919
 20
-75.38
 10
49.671
 20
-74.946
 10
50.411
 20
-75.374
  0
LWPOLYLINE
  5
163
330
17
100
AcDbEntity
  8
0
100
AcDbPolyline
 90
4
 70
1
 10
53.916
 20
-75.359
 10
52.476
 20
-75.365
 10
53.202
 20
-74.946
 10
53.916
 20
-75.359
  0
LWPOLYLINE
  5
164
330
17
100
AcDbEntity
  8
0
100
AcDbPolyline
 90
4
 70
1
 10
57.421
 20
-75.343
 10
56.034
 20
-75.349
 10
56.733
 20
-74.946
 10
57.421
 20
-75.343
  0
LWPOLYLINE
  5
165
330
17
100
AcDbEntity
  8
0
100
AcDbPolyline
 90
6
 70
1
 10
60.581
 20
-78.263
 10
58.799
 20
-75.792
 10
60.264
 20
-74.946
 10
61.779
 20
-75.821
 10
61.779
 20
-77.571
 10
60.581
 20
-78.263
  0
LWPOLYLINE
  5
166
330
17
100
AcDbEntity
  8
0
100
AcDbPolyline
 90
13
 70
1
 10
63.241
 20
-75.266
 10
63.533
 20
-75.654
 10
63.517
 20
-75.998
 10
63.538
 20
-76.346
 10
63.598
 20
-76.697
 10
63.696
 20
-77.052
 10
63.919
 20
-77.595
 10
64.064
 20
-77.873
 10
64.252
 20
-78.182
 10
63.795
 20
-78.446
 10
62.279
 20
-77.571
 10
62.279
 20
-75.821
 10
63.241
 20
-75.266
  0
LWPOLYLINE
  5
167
330
17
100
AcDbEntity
  8
0
100
AcDbPolyline
 90
5
 70
1
 10
72.083
 20
-77.738
 10
72.279
 20
-77.223
 10
72.373
 20
-76.873
 10
72.373
 20
-77.571
 10
72.083
 20
-77.738
  0
LWPOLYLINE
  5
168
330
17
100
AcDbEntity
  8
0
100
AcDbPolyline
 90
10
 70
1
 10
72.873
 20
-75.904
 10
73.059
 20
-75.831
 10
73.207
 20
-75.809
 10
74.002
 20
-75.814
 10
75.849
 20
-75.789
 10
75.904
 20
-75.821
 10
75.904
 20
-77.571
 10
74.388
 20
-78.446
 10
72.873
 20
-77.571
 10
72.873
 20
-75.904
  0
LWPOLYLINE
  5
169
330
17
100
AcDbEntity
  8
0
100
AcDbPolyline
 90
8
 70
1
 10
76.49
 20
-75.781
 10
79.299
 20
-75.743
 10
79.435
 20
-75.821
 10
79.435
 20
-77.571
 10
77.919
 20
-78.446
 10
76.404
 20
-77.571
 10
76.404
 20
-75.821
 10
76.49
 20
-75.781
  0
LWPOLYLINE
  5
16A
330
17
100
AcDbEntity
  8
0
100
AcDbPolyline
 90
14
 70
1
 10
80.089
 20
-75.732
 10
80.79
 20
-75.719
 10
80.935
 20
-75.703
 10
81.201
 20
-75.641
 10
81.322
 20
-75.595
 10
81.538
 20
-75.479
 10
81.723
 20
-75.33
 10
81.856
 20
-75.18
 10
82.966
 20
-75.821
 10
82.966
 20
-77.571
 10
81.45
 20
-78.446
 10
79.935
 20
-77.571
 10
79.935
 20
-75.821
 10
80.089
 20
-75.732
  0
INSERT
  5
16B
330
17
100
AcDbEntity
  8
0
100
AcDbBlockReference
  2
HEX
 10
84.982
 20
-76.696
 30
0.0
  0
INSERT
  5
16D
330
17
100
AcDbEntity
  8
0
100
AcDbBlockReference
  2
HEX
 10
88.513
 20
-76.696
 30
0.0
  0
LWPOLYLINE
  5
16F
330
17
100
AcDbEntity
  8
0
100
AcDbPolyline
 90
15
 70
1
 10
93.559
 20
-76.165
 10
93.072
 20
-76.168
 10
92.905
 20
-76.202
 10
92.655
 20
-76.317
 10
92.45
 20
-76.494
 10
92.301
 20
-76.719
 10
92.218
 20
-76.979
 10
92.206
 20
-77.203
 10
92.394
 20
-78.244
 10
92.044
 20
-78.446
 10
90.528
 20
-77.571
 10
90.528
 20
-75.821
 10
92.044
 20
-74.946
 10
93.559
 20
-75.821
 10
93.559
 20
-76.165
  0
LWPOLYLINE
  5
170
330
17
100
AcDbEntity
  8
0
100
AcDbPolyline
 90
6
 70
1
 10
97.09
 20
-76.2
 10
94.059
 20
-76.17
 10
94.059
 20
-75.821
 10
95.575
 20
-74.946
 10
97.09
 20
-75.821
 10
97.09
 20
-76.2
  0
LWPOLYLINE
  5
171
330
17
100
AcDbEntity
  8
0
100
AcDbPolyline
 90
6
 70
1
 10
100.621
 20
-76.234
 10
97.59
 20
-76.205
 10
97.59
 20
-75.821
 10
99.106
 20
-74.946
 10
100.621
 20
-75.821
 10
100.621
 20
-76.234
  0
LWPOLYLINE
  5
172
330
17
100
AcDbEntity
  8
0
100
AcDbPolyline
 90
6
 70
1
 10
104.153
 20
-76.269
 10
101.121
 20
-76.239
 10
101.121
 20
-75.821
 10
102.637
 20
-74.946
 10
104.153
 20
-75.821
 10
104.153
 20
-76.269
  0
LWPOLYLINE
  5
173
330
17
100
AcDbEntity
  8
0
100
AcDbPolyline
 90
6
 70
1
 10
107.684
 20
-76.304
 10
104.653
 20
-76.274
 10
104.653
 20
-75.821
 10
106.168
 20
-74.946
 10
107.684
 20
-75.821
 10
107.684
 20
-76.304
  0
LWPOLYLINE
  5
174
330
17
100
AcDbEntity
  8
0
100
AcDbPolyline
 90
6
 70
1
 10
111.215
 20
-76.338
 10
108.184
 20
-76.309
 10
108.184
 20
-75.821
 10
109.699
 20
-74.946
 10
111.215
 20
-75.821
 10
111.215
 20
-76.338
  0
LWPOLYLINE
  5
175
330
17
100
AcDbEntity
  8
0
100
AcDbPolyline
 90
6
 70
1
 10
114.746
 20
-76.373
 10
111.715
 20
-76.343
 10
111.715
 20
-75.821
 10
113.23
 20
-74.946
 10
114.746
 20
-75.821
 10
114.746
 20
-76.373
  0
LWPOLYLINE
  5
176
330
17
100
AcDbEntity
  8
0
100
AcDbPolyline
 90
6
 70
1
 10
118.277
 20
-76.407
 10
115.246
 20
-76.378
 10
115.246
 20
-75.821
 10
116.761
 20
-74.946
 10
118.277
 20
-75.821
 10
118.277
 20
-76.407
  0
LWPOLYLINE
  5
177
330
17
100
AcDbEntity
  8
0
100
AcDbPolyline
 90
6
 70
1
 10
121.808
 20
-76.442
 10
118.777
 20
-76.412
 10
118.777
 20
-75.821
 10
120.292
 20
-74.946
 10
121.808
 20
-75.821
 10
121.808
 20
-76.442
  0
LWPOLYLINE
  5
178
330
17
100
AcDbEntity
  8
0
100
AcDbPolyline
 90
6
 70
1
 10
125.339
 20
-76.477
 10
122.308
 20
-76.447
 10
122.308
 20
-75.821
 10
123.824
 20
-74.946
 10
125.339
 20
-75.821
 10
125.339
 20
-76.477
  0
LWPOLYLINE
  5
179
330
17
100
AcDbEntity
  8
0
100
AcDbPolyline
 90
11
 70
1
 10
128.439
 20
-75.572
 10
128.28
 20
-75.906
 10
128.093
 20
-76.134
 10
127.861
 20
-76.313
 10
127.593
 20
-76.434
 10
127.399
 20
-76.48
 10
127.248
 20
-76.494
 10
125.839
 20
-76.482
 10
125.839
 20
-75.821
 10
127.355
 20
-74.946
 10
128.439
 20
-75.572
  0
LWPOLYLINE
  5
17A
330
17
100
AcDbEntity
  8
0
100
AcDbPolyline
 90
10
 70
1
 10
16.306
 20
-75.284
 10
16.225
 20
-75.184
 10
16.154
 20
-75.054
 10
16.11
 20
-74.911
 10
16.095
 20
-74.796
 10
16.094
 20
-71.906
 10
16.125
 20
-71.888
 10
17.641
 20
-72.763
 10
17.641
 20
-74.513
 10
16.306
 20
-75.284
  0
INSERT
  5
17B
330
17
100
AcDbEntity
  8
0
100
AcDbBlockReference
  2
HEX
 10
19.656
 20
-73.638
 30
0.0
  0
INSERT
  5
17D
330
17
100
AcDbEntity
  8
0
100
AcDbBlockReference
  2
HEX
 10
23.187
 20
-73.638
 30
0.0
  0
INSERT
  5
17F
330
17
100
AcDbEntity
  8
0
100
AcDbBlockReference
  2
HEX
 10
26.719
 20
-73.638
 30
0.0
  0
INSERT
  5
181
330
17
100
AcDbEntity
  8
0
100
AcDbBlockReference
  2
HEX
 10
30.25
 20
-73.638
 30
0.0
  0
INSERT
  5
183
330
17
100
AcDbEntity
  8
0
100
AcDbBlockReference
  2
HEX
 10
33.781
 20
-73.638
 30
0.0
  0
INSERT
  5
185
330
17
100
AcDbEntity
  8
0
100
AcDbBlockReference
  2
HEX
 10
37.312
 20
-73.638
 30
0.0
  0
INSERT
  5
187
330
17
100
AcDbEntity
  8
0
100
AcDbBlockReference
  2
HEX
 10
40.843
 20
-73.638
 30
0.0
  0
INSERT
  5
189
330
17
100
AcDbEntity
  8
0
100
AcDbBlockReference
  2
HEX
 10
44.374
 20
-73.638
 30
0.0
  0
LWPOLYLINE
  5
18B
330
17
100
AcDbEntity
  8
0
100
AcDbPolyline
 90
7
 70
1
 10
47.899
 20
-75.385
 10
46.39
 20
-74.513
 10
46.39
 20
-72.763
 10
47.905
 20
-71.888
 10
49.421
 20
-72.763
 10
49.421
 20
-74.513
 10
47.899
 20
-75.385
  0
LWPOLYLINE
  5
18C
330
17
100
AcDbEntity
  8
0
100
AcDbPolyline
 90
8
 70
1
 10
51.404
 20
-75.369
 10
49.921
 20
-74.513
 10
49.921
 20
-72.763
 10
51.436
 20
-71.888
 10
52.952
 20
-72.763
 10
52.952
 20
-74.513
 10
51.469
 20
-75.369
 10
51.404
 20
-75.369
  0
LWPOLYLINE
  5
18D
330
17
100
AcDbEntity
  8
0
100
AcDbPolyline
 90
8
 70
1
 10
54.909
 20
-75.354
 10
53.452
 20
-74.513
 10
53.452
 20
-72.763
 10
54.967
 20
-71.888
 10
56.483
 20
-72.763
 10
56.483
 20
-74.513
 10
55.027
 20
-75.354
 10
54.909
 20
-75.354
  0
INSERT
  5
18E
330
17
100
AcDbEntity
  8
0
100
AcDbBlockReference
  2
HEX
 10
58.498
 20
-73.638
 30
0.0
  0
LWPOLYLINE
  5
190
330
17
100
AcDbEntity
  8
0
100
AcDbPolyline
 90
6
 70
1
 10
61.103
 20
-72.423
 10
62.938
 20
-74.863
 10
62.029
 20
-75.388
 10
60.514
 20
-74.513
 10
60.514
 20
-72.763
 10
61.103
 20
-72.423
  0
LWPOLYLINE
  5
191
330
17
100
AcDbEntity
  8
0
100
AcDbPolyline
 90
11
 70
1
 10
82.096
 20
-74.741
 10
82.208
 20
-74.335
 10
82.247
 20
-74.059
 10
82.263
 20
-73.771
 10
82.234
 20
-73.167
 10
82.125
 20
-72.518
 10
83.216
 20
-71.888
 10
84.732
 20
-72.763
 10
84.732
 20
-74.513
 10
83.216
 20
-75.388
 10
82.096
 20
-74.741
  0
INSERT
  5
192
330
17
100
AcDbEntity
  8
0
100
AcDbBlockReference
  2
HEX
 10
86.747
 20
-73.638
 30
0.0
  0
INSERT
  5
194
330
17
100
AcDbEntity
  8
0
100
AcDbBlockReference
  2
HEX
 10
90.278
 20
-73.638
 30
0.0
  0
INSERT
  5
196
330
17
100
AcDbEntity
  8
0
100
AcDbBlockReference
  2
HEX
 10
93.809
 20
-73.638
 30
0.0
  0
INSERT
  5
198
330
17
100
AcDbEntity
  8
0
100
AcDbBlockReference
  2
HEX
 10
97.34
 20
-73.638
 30
0.0
  0
INSERT
  5
19A
330
17
100
AcDbEntity
  8
0
100
AcDbBlockReference
  2
HEX
 10
100.871
 20
-73.638
 30
0.0
  0
LWPOLYLINE
  5
19C
330
17
100
AcDbEntity
  8
0
100
AcDbPolyline
 90
10
 70
1
 10
103.357
 20
-72.492
 10
103.687
 20
-72.578
 10
103.849
 20
-72.597
 10
105.642
 20
-72.604
 10
105.918
 20
-72.763
 10
105.918
 20
-74.513
 10
104.403
 20
-75.388
 10
102.887
 20
-74.513
 10
102.887
 20
-72.763
 10
103.357
 20
-72.492
  0
LWPOLYLINE
  5
19D
330
17
100
AcDbEntity
  8
0
100
AcDbPolyline
 90
8
 70
1
 10
106.694
 20
-72.604
 10
109.173
 20
-72.604
 10
109.449
 20
-72.763
 10
109.449
 20
-74.513
 10
107.934
 20
-75.388
 10
106.418
 20
-74.513
 10
106.418
 20
-72.763
 10
106.694
 20
-72.604
  0
INSERT
  5
19E
330
17
100
AcDbEntity
  8
0
100
AcDbBlockReference
  2
HEX
 10
111.465
 20
-73.638
 30
0.0
  0
INSERT
  5
1A0
330
17
100
AcDbEntity
  8
0
100
AcDbBlockReference
  2
HEX
 10
114.996
 20
-73.638
 30
0.0
  0
INSERT
  5
1A2
330
17
100
AcDbEntity
  8
0
100
AcDbBlockReference
  2
HEX
 10
118.527
 20
-73.638
 30
0.0
  0
INSERT
  5
1A4
330
17
100
AcDbEntity
  8
0
100
AcDbBlockReference
  2
HEX
 10
122.058
 20
-73.638
 30
0.0
  0
INSERT
  5
1A6
330
17
100
AcDbEntity
  8
0
100
AcDbBlockReference
  2
HEX
 10
125.589
 20
-73.638
 30
0.0
  0
LWPOLYLINE
  5
1A8
330
17
100
AcDbEntity
  8
0
100
AcDbPolyline
 90
6
 70
1
 10
129.834
 20
-72.3
 10
128.637
 20
-75.109
 10
127.605
 20
-74.513
 10
127.605
 20
-72.763
 10
129.12
 20
-71.888
 10
129.834
 20
-72.3
  0
LWPOLYLINE
  5
1A9
330
17
100
AcDbEntity
  8
0
100
AcDbPolyline
 90
8
 70
1
 10
16.819
 20
-69.449
 10
18.959
 20
-69.447
 10
19.406
 20
-69.705
 10
19.406
 20
-71.455
 10
17.891
 20
-72.33
 10
16.375
 20
-71.455
 10
16.375
 20
-69.705
 10
16.819
 20
-69.449
  0
LWPOLYLINE
  5
1AA
330
17
100
AcDbEntity
  8
0
100
AcDbPolyline
 90
8
 70
1
 10
20.361
 20
-69.445
 10
22.485
 20
-69.443
 10
22.937
 20
-69.705
 10
22.937
 20
-71.455
 10
21.422
 20
-72.33
 10
19.906
 20
-71.455
 10
19.906
 20
-69.705
 10
20.361
 20
-69.445
  0
LWPOLYLINE
  5
1AB
330
17
100
AcDbEntity
  8
0
100
AcDbPolyline
 90
8
 70
1
 10
23.893
 20
-69.442
 10
26.01
 20
-69.44
 10
26.469
 20
-69.705
 10
26.469
 20
-71.455
 10
24.953
 20
-72.33
 10
23.437
 20
-71.455
 10
23.437
 20
-69.705
 10
23.893
 20
-69.442
  0
LWPOLYLINE
  5
1AC
330
17
100
AcDbEntity
  8
0
100
AcDbPolyline
 90
8
 70
1
 10
27.429
 20
-69.439
 10
29.536
 20
-69.437
 10
30.0
 20
-69.705
 10
30.0
 20
-71.455
 10
28.484
 20
-72.33
 10
26.969
 20
-71.455
 10
26.969
 20
-69.705
 10
27.429
 20
-69.439
  0
LWPOLYLINE
  5
1AD
330
17
100
AcDbEntity
  8
0
100
AcDbPolyline
 90
8
 70
1
 10
30.966
 20
-69.436
 10
33.061
 20
-69.434
 10
33.531
 20
-69.705
 10
33.531
 20
-71.455
 10
32.015
 20
-72.33
 10
30.5
 20
-71.455
 10
30.5
 20
-69.705
 10
30.966
 20
-69.436
  0
LWPOLYLINE
  5
1AE
330
17
100
AcDbEntity
  8
0
100
AcDbPolyline
 90
8
 70
1
 10
34.502
 20
-69.433
 10
36.587
 20
-69.431
 10
37.062
 20
-69.705
 10
37.062
 20
-71.455
 10
35.546
 20
-72.33
 10
34.031
 20
-71.455
 10
34.031
 20
-69.705
 10
34.502
 20
-69.433
  0
LWPOLYLINE
  5
1AF
330
17
100
AcDbEntity
  8
0
100
AcDbPolyline
 90
8
 70
1
 10
38.039
 20
-69.43
 10
40.113
 20
-69.428
 10
40.593
 20
-69.705
 10
40.593
 20
-71.455
 10
39.077
 20
-72.33
 10
37.562
 20
-71.455
 10
37.562
 20
-69.705
 10
38.039
 20
-69.43
  0
LWPOLYLINE
  5
1B0
330
17
100
AcDbEntity
  8
0
100
AcDbPolyline
 90
8
 70
1
 10
41.575
 20
-69.426
 10
43.638
 20
-69.425
 10
44.124
 20
-69.705
 10
44.124
 20
-71.455
 10
42.608
 20
-72.33
 10
41.093
 20
-71.455
 10
41.093
 20
-69.705
 10
41.575
 20
-69.426
  0
LWPOLYLINE
  5
1B1
330
17
100
AcDbEntity
  8
0
100
AcDbPolyline
 90
8
 70
1
 10
45.112
 20
-69.423
 10
47.164
 20
-69.421
 10
47.655
 20
-69.705
 10
47.655
 20
-71.455
 10
46.14
 20
-72.33
 10
44.624
 20
-71.455
 10
44.624
 20
-69.705
 10
45.112
 20
-69.423
  0
LWPOLYLINE
  5
1B2
330
17
100
AcDbEntity
  8
0
100
AcDbPolyline
 90
8
 70
1
 10
48.649
 20
-69.42
 10
50.69
 20
-69.418
 10
51.186
 20
-69.705
 10
51.186
 20
-71.455
 10
49.671
 20
-72.33
 10
48.155
 20
-71.455
 10
48.155
 20
-69.705
 10
48.649
 20
-69.42
  0
LWPOLYLINE
  5
1B3
330
17
100
AcDbEntity
  8
0
100
AcDbPolyline
 90
8
 70
1
 10
52.185
 20
-69.417
 10
54.215
 20
-69.415
 10
54.717
 20
-69.705
 10
54.717
 20
-71.455
 10
53.202
 20
-72.33
 10
51.686
 20
-71.455
 10
51.686
 20
-69.705
 10
52.185
 20
-69.417
  0
LWPOLYLINE
  5
1B4
330
17
100
AcDbEntity
  8
0
100
AcDbPolyline
 90
8
 70
1
 10
55.722
 20
-69.414
 10
57.741
 20
-69.412
 10
58.248
 20
-69.705
 10
58.248
 20
-71.455
 10
56.733
 20
-72.33
 10
55.217
 20
-71.455
 10
55.217
 20
-69.705
 10
55.722
 20
-69.414
  0
LWPOLYLINE
  5
1B5
330
17
100
AcDbEntity
  8
0
100
AcDbPolyline
 90
15
 70
1
 10
59.258
 20
-69.411
 10
61.266
 20
-69.409
 10
61.459
 20
-69.52
 10
61.242
 20
-69.74
 10
61.063
 20
-69.984
 10
60.875
 20
-70.351
 10
60.775
 20
-70.647
 10
60.704
 20
-71.058
 10
60.701
 20
-71.37
 10
60.745
 20
-71.679
 10
60.846
 20
-71.994
 10
60.264
 20
-72.33
 10
58.748
 20
-71.455
 10
58.748
 20
-69.705
 10
59.258
 20
-69.411
  0
LWPOLYLINE
  5
1B6
330
17
100
AcDbEntity
  8
0
100
AcDbPolyline
 90
7
 70
1
 10
81.995
 20
-72.015
 10
81.574
 20
-70.742
 10
81.05
 20
-69.344
 10
82.341
 20
-69.344
 10
82.966
 20
-69.705
 10
82.966
 20
-71.455
 10
81.995
 20
-72.015
  0
LWPOLYLINE
  5
1B7
330
17
100
AcDbEntity
  8
0
100
AcDbPolyline
 90
8
 70
1
 10
84.091
 20
-69.344
 10
85.872
 20
-69.344
 10
86.497
 20
-69.705
 10
86.497
 20
-71.455
 10
84.982
 20
-72.33
 10
83.466
 20
-71.455
 10
83.466
 20
-69.705
 10
84.091
 20
-69.344
  0
LWPOLYLINE
  5
1B8
330
17
100
AcDbEntity
  8
0
100
AcDbPolyline
 90
8
 70
1
 10
87.622
 20
-69.344
 10
89.403
 20
-69.344
 10
90.028
 20
-69.705
 10
90.028
 20
-71.455
 10
88.513
 20
-72.33
 10
86.997
 20
-71.455
 10
86.997
 20
-69.705
 10
87.622
 20
-69.344
  0
LWPOLYLINE
  5
1B9
330
17
100
AcDbEntity
  8
0
100
AcDbPolyline
 90
8
 70
1
 10
91.153
 20
-69.344
 10
92.934
 20
-69.344
 10
93.559
 20
-69.705
 10
93.559
 20
-71.455
 10
92.044
 20
-72.33
 10
90.528
 20
-71.455
 10
90.528
 20
-69.705
 10
91.153
 20
-69.344
  0
LWPOLYLINE
  5
1BA
330
17
100
AcDbEntity
  8
0
100
AcDbPolyline
 90
8
 70
1
 10
94.684
 20
-69.344
 10
96.465
 20
-69.344
 10
97.09
 20
-69.705
 10
97.09
 20
-71.455
 10
95.575
 20
-72.33
 10
94.059
 20
-71.455
 10
94.059
 20
-69.705
 10
94.684
 20
-69.344
  0
LWPOLYLINE
  5
1BB
330
17
100
AcDbEntity
  8
0
100
AcDbPolyline
 90
8
 70
1
 10
98.216
 20
-69.344
 10
99.996
 20
-69.344
 10
100.621
 20
-69.705
 10
100.621
 20
-71.455
 10
99.106
 20
-72.33
 10
97.59
 20
-71.455
 10
97.59
 20
-69.705
 10
98.216
 20
-69.344
  0
LWPOLYLINE
  5
1BC
330
17
100
AcDbEntity
  8
0
100
AcDbPolyline
 90
17
 70
1
 10
101.747
 20
-69.344
 10
102.849
 20
-69.344
 10
102.662
 20
-69.54
 10
102.581
 20
-69.648
 10
102.446
 20
-69.88
 10
102.308
 20
-70.26
 10
102.249
 20
-70.663
 10
102.253
 20
-70.935
 10
102.291
 20
-71.204
 10
102.413
 20
-71.59
 10
102.538
 20
-71.827
 10
102.614
 20
-71.937
 10
102.86
 20
-72.201
 10
102.637
 20
-72.33
 10
101.121
 20
-71.455
 10
101.121
 20
-69.705
 10
101.747
 20
-69.344
  0
LWPOLYLINE
  5
1BD
330
17
100
AcDbEntity
  8
0
100
AcDbPolyline
 90
14
 70
1
 10
111.715
 20
-70.518
 10
112.029
 20
-70.123
 10
112.26
 20
-69.909
 10
112.515
 20
-69.725
 10
112.79
 20
-69.574
 10
113.084
 20
-69.459
 10
113.394
 20
-69.382
 10
113.72
 20
-69.346
 10
114.12
 20
-69.344
 10
114.746
 20
-69.705
 10
114.746
 20
-71.455
 10
113.23
 20
-72.33
 10
111.715
 20
-71.455
 10
111.715
 20
-70.518
  0
LWPOLYLINE
  5
1BE
330
17
100
AcDbEntity
  8
0
100
AcDbPolyline
 90
8
 70
1
 10
115.871
 20
-69.344
 10
117.651
 20
-69.344
 10
118.277
 20
-69.705
 10
118.277
 20
-71.455
 10
116.761
 20
-72.33
 10
115.246
 20
-71.455
 10
115.246
 20
-69.705
 10
115.871
 20
-69.344
  0
LWPOLYLINE
  5
1BF
330
17
100
AcDbEntity
  8
0
100
AcDbPolyline
 90
8
 70
1
 10
119.403
 20
-69.344
 10
121.182
 20
-69.344
 10
121.808
 20
-69.705
 10
121.808
 20
-71.455
 10
120.292
 20
-72.33
 10
118.777
 20
-71.455
 10
118.777
 20
-69.705
 10
119.403
 20
-69.344
  0
LWPOLYLINE
  5
1C0
330
17
100
AcDbEntity
  8
0
100
AcDbPolyline
 90
8
 70
1
 10
122.934
 20
-69.344
 10
124.713
 20
-69.344
 10
125.339
 20
-69.705
 10
125.339
 20
-71.455
 10
123.824
 20
-72.33
 10
122.308
 20
-71.455
 10
122.308
 20
-69.705
 10
122.934
 20
-69.344
  0
LWPOLYLINE
  5
1C1
330
17
100
AcDbEntity
  8
0
100
AcDbPolyline
 90
8
 70
1
 10
126.465
 20
-69.344
 10
128.244
 20
-69.344
 10
128.87
 20
-69.705
 10
128.87
 20
-71.455
 10
127.355
 20
-72.33
 10
125.839
 20
-71.455
 10
125.839
 20
-69.705
 10
126.465
 20
-69.344
  0
LWPOLYLINE
  5
1C2
330
17
100
AcDbEntity
  8
0
100
AcDbPolyline
 90
15
 70
1
 10
130.185
 20
-69.346
 10
130.305
 20
-69.373
 10
130.415
 20
-69.42
 10
130.512
 20
-69.486
 10
130.596
 20
-69.566
 10
130.683
 20
-69.694
 10
130.728
 20
-69.801
 10
130.753
 20
-69.916
 10
130.757
 20
-70.035
 10
130.713
 20
-70.238
 10
130.031
 20
-71.837
 10
129.37
 20
-71.455
 10
129.37
 20
-69.705
 10
129.996
 20
-69.344
 10
130.185
 20
-69.346
  0
ENDSEC
  0
SECTION
  2
OBJECTS
  0
DICTIONARY
  5
A
330
0
100
AcDbDictionary
281
1
  3
ACAD_COLOR
350
B
  3
ACAD_GROUP
350
C
  3
ACAD_LAYOUT
350
D
  3
ACAD_MATERIAL
350
E
  3
ACAD_MLEADERSTYLE
350
F
  3
ACAD_MLINESTYLE
350
10
  3
ACAD_PLOTSETTINGS
350
11
  3
ACAD_PLOTSTYLENAME
350
12
  3
ACAD_SCALELIST
350
14
  3
ACAD_TABLESTYLE
350
15
  3
ACAD_VISUALSTYLE
350
16
  3
EZDXF_META
350
2D
  0
DICTIONARY
  5
B
330
A
100
AcDbDictionary
281
1
  0
DICTIONARY
  5
C
330
A
100
AcDbDictionary
281
1
  0
DICTIONARY
  5
D
330
A
100
AcDbDictionary
281
1
  3
Model
350
1A
  3
Layout1
350
1E
  0
DICTIONARY
  5
E
330
A
100
AcDbDictionary
281
1
  3
ByBlock
350
1F
  3
ByLayer
350
20
  3
Global
350
21
  0
DICTIONARY
  5
F
330
A
100
AcDbDictionary
281
1
  3
Standard
350
2C
  0
DICTIONARY
  5
10
330
A
100
AcDbDictionary
281
1
  3
Standard
350
22
  0
DICTIONARY
  5
11
330
A
100
AcDbDictionary
281
1
  0
ACDBDICTIONARYWDFLT
  5
12
330
A
100
AcDbDictionary
281
1
  3
Normal
350
13
100
AcDbDictionaryWithDefault
340
13
  0
ACDBPLACEHOLDER
  5
13
330
12
  0
DICTIONARY
  5
14
330
A
100
AcDbDictionary
281
1
  0
DICTIONARY
  5
15
330
A
100
AcDbDictionary
281
1
  0
DICTIONARY
  5
16
330
A
100
AcDbDictionary
281
1
  0
LAYOUT
  5
1A
330
D
100
AcDbPlotSettings
  1

  4
A3
  6

 40
7.5
 41
20.0
 42
7.5
 43
20.0
 44
420.0
 45
297.0
 46
0.0
 47
0.0
 48
0.0
 49
0.0
140
0.0
141
0.0
142
1.0
143
1.0
 70
1024
 72
1
 73
0
 74
5
  7

 75
16
 76
0
 77
2
 78
300
147
1.0
148
0.0
149
0.0
100
AcDbLayout
  1
Model
 70
1
 71
0
 10
0.0
 20
0.0
 11
420.0
 21
297.0
 12
0.0
 22
0.0
 32
0.0
 14
1e+20
 24
1e+20
 34
1e+20
 15
-1e+20
 25
-1e+20
 35
-1e+20
146
0.0
 13
0.0
 23
0.0
 33
0.0
 16
1.0
 26
0.0
 36
0.0
 17
0.0
 27
1.0
 37
0.0
 76
1
330
17
  0
LAYOUT
  5
1E
330
D
100
AcDbPlotSettings
  1

  4
A3
  6

 40
7.5
 41
20.0
 42
7.5
 43
20.0
 44
420.0
 45
297.0
 46
0.0
 47
0.0
 48
0.0
 49
0.0
140
0.0
141
0.0
142
1.0
143
1.0
 70
0
 72
1
 73
0
 74
5
  7

 75
16
 76
0
 77
2
 78
300
147
1.0
148
0.0
149
0.0
100
AcDbLayout
  1
Layout1
 70
1
 71
1
 10
0.0
 20
0.0
 11
420.0
 21
297.0
 12
0.0
 22
0.0
 32
0.0
 14
1e+20
 24
1e+20
 34
1e+20
 15
-1e+20
 25
-1e+20
 35
-1e+20
146
0.0
 13
0.0
 23
0.0
 33
0.0
 16
1.0
 26
0.0
 36
0.0
 17
0.0
 27
1.0
 37
0.0
 76
1
330
1B
  0
MATERIAL
  5
1F
102
{ACAD_REACTORS
330
E
102
}
330
E
100
AcDbMaterial
  1
ByBlock
  2

 70
0
 40
1.0
 71
1
 41
1.0
 91
-1023410177
 42
1.0
 72
1
  3

 73
1
 74
1
 75
1
 44
0.5
 73
0
 45
1.0
 46
1.0
 77
1
  4

 78
1
 79
1
170
1
 48
1.0
171
1
  6

172
1
173
1
174
1
140
1.0
141
1.0
175
1
  7

176
1
177
1
178
1
143
1.0
179
1
  8

270
1
271
1
272
1
145
1.0
146
1.0
273
1
  9

274
1
275
1
276
1
 42
1.0
 72
1
  3

 73
1
 74
1
 75
1
 94
63
  0
MATERIAL
  5
20
102
{ACAD_REACTORS
330
E
102
}
330
E
100
AcDbMaterial
  1
ByLayer
  2

 70
0
 40
1.0
 71
1
 41
1.0
 91
-1023410177
 42
1.0
 72
1
  3

 73
1
 74
1
 75
1
 44
0.5
 73
0
 45
1.0
 46
1.0
 77
1
  4

 78
1
 79
1
170
1
 48
1.0
171
1
  6

172
1
173
1
174
1
140
1.0
141
1.0
175
1
  7

176
1
177
1
178
1
143
1.0
179
1
  8

270
1
271
1
272
1
145
1.0
146
1.0
273
1
  9

274
1
275
1
276
1
 42
1.0
 72
1
  3

 73
1
 74
1
 75
1
 94
63
  0
MATERIAL
  5
21
102
{ACAD_REACTORS
330
E
102
}
330
E
100
AcDbMaterial
  1
Global
  2

 70
0
 40
1.0
 71
1
 41
1.0
 91
-1023410177
 42
1.0
 72
1
  3

 73
1
 74
1
 75
1
 44
0.5
 73
0
 45
1.0
 46
1.0
 77
1
  4

 78
1
 79
1
170
1
 48
1.0
171
1
  6

172
1
173
1
174
1
140
1.0
141
1.0
175
1
  7

176
1
177
1
178
1
143
1.0
179
1
  8

270
1
271
1
272
1
145
1.0
146
1.0
273
1
  9

274
1
275
1
276
1
 42
1.0
 72
1
  3

 73
1
 74
1
 75
1
 94
63
  0
MLINESTYLE
  5
22
102
{ACAD_REACTORS
330
10
102
}
330
10
100
AcDbMlineStyle
  2
Standard
 70
0
  3

 62
256
 51
90.0
 52
90.0
 71
2
 49
0.5
 62
256
  6
BYLAYER
 49
-0.5
 62
256
  6
BYLAYER
  0
MLEADERSTYLE
  5
2C
102
{ACAD_REACTORS
330
F
102
}
330
F
100
AcDbMLeaderStyle
179
2
170
2
171
1
172
0
 90
2
 40
0.0
 41
0.0
173
1
 91
-1056964608
 92
-2
290
1
 42
2.0
291
1
 43
8.0
  3
Standard
 44
4.0
300

342
29
174
1
175
1
176
0
178
1
 93
-1056964608
 45
4.0
292
0
297
0
 46
4.0
 94
-1056964608
 47
1.0
 49
1.0
140
1.0
294
1
141
0.0
177
0
142
1.0
295
0
296
0
143
3.75
271
0
272
9
273
9
  0
DICTIONARY
  5
2D
330
A
100
AcDbDictionary
280
1
281
1
  3
CREATED_BY_EZDXF
350
2E
  3
WRITTEN_BY_EZDXF
350
1C5
  0
DICTIONARYVAR
  5
2E
330
2D
100
DictionaryVariables
280
0
  1
1.4.3 @ 2026-04-09T21:37:21.571529+00:00
  0
DICTIONARYVAR
  5
1C5
330
2D
100
DictionaryVariables
280
0
  1
1.4.3 @ 2026-04-09T21:37:21.594419+00:00
  0
ENDSEC
  0
EOF
