  0
SECTION
  2
HEADER
  9
$ACADVER
  1
AC1024
  9
$ACADMAINTVER
 70
6
  9
$DWGCODEPAGE
  3
ANSI_1252
  9
$LASTSAVEDBY
  1
ezdxf
  9
$INSBASE
 10
0.0
 20
0.0
 30
0.0
  9
$EXTMIN
 10
1e+20
 20
1e+20
 30
1e+20
  9
$EXTMAX
 10
-1e+20
 20
-1e+20
 30
-1e+20
  9
$LIMMIN
 10
0.0
 20
0.0
  9
$LIMMAX
 10
420.0
 20
297.0
  9
$ORTHOMODE
 70
0
  9
$REGENMODE
 70
1
  9
$FILLMODE
 70
1
  9
$QTEXTMODE
 70
0
  9
$MIRRTEXT
 70
1
  9
$LTSCALE
 40
1.0
  9
$ATTMODE
 70
1
  9
$TEXTSIZE
 40
2.5
  9
$TRACEWID
 40
1.0
  9
$TEXTSTYLE
  7
Standard
  9
$CLAYER
  8
0
  9
$CELTYPE
  6
ByLayer
  9
$CECOLOR
 62
256
  9
$CELTSCALE
 40
1.0
  9
$DISPSILH
 70
0
  9
$DIMSCALE
 40
1.0
  9
$DIMASZ
 40
2.5
  9
$DIMEXO
 40
0.625
  9
$DIMDLI
 40
3.75
  9
$DIMRND
 40
0.0
  9
$DIMDLE
 40
0.0
  9
$DIMEXE
 40
1.25
  9
$DIMTP
 40
0.0
  9
$DIMTM
 40
0.0
  9
$DIMTXT
 40
2.5
  9
$DIMCEN
 40
2.5
  9
$DIMTSZ
 40
0.0
  9
$DIMTOL
 70
0
  9
$DIMLIM
 70
0
  9
$DIMTIH
 70
0
  9
$DIMTOH
 70
0
  9
$DIMSE1
 70
0
  9
$DIMSE2
 70
0
  9
$DIMTAD
 70
1
  9
$DIMZIN
 70
8
  9
$DIMBLK
  1

  9
$DIMASO
 70
1
  9
$DIMSHO
 70
1
  9
$DIMPOST
  1

  9
$DIMAPOST
  1

  9
$DIMALT
 70
0
  9
$DIMALTD
 70
3
  9
$DIMALTF
 40
0.03937007874
  9
$DIMLFAC
 40
1.0
  9
$DIMTOFL
 70
1
  9
$DIMTVP
 40
0.0
  9
$DIMTIX
 70
0
  9
$DIMSOXD
 70
0
  9
$DIMSAH
 70
0
  9
$DIMBLK1
  1

  9
$DIMBLK2
  1

  9
$DIMSTYLE
  2
ISO-25
  9
$DIMCLRD
 70
0
  9
$DIMCLRE
 70
0
  9
$DIMCLRT
 70
0
  9
$DIMTFAC
 40
1.0
  9
$DIMGAP
 40
0.625
  9
$DIMJUST
 70
0
  9
$DIMSD1
 70
0
  9
$DIMSD2
 70
0
  9
$DIMTOLJ
 70
0
  9
$DIMTZIN
 70
8
  9
$DIMALTZ
 70
0
  9
$DIMALTTZ
 70
0
  9
$DIMUPT
 70
0
  9
$DIMDEC
 70
2
  9
$DIMTDEC
 70
2
  9
$DIMALTU
 70
2
  9
$DIMALTTD
 70
3
  9
$DIMTXSTY
  7
Standard
  9
$DIMAUNIT
 70
0
  9
$DIMADEC
 70
0
  9
$DIMALTRND
 40
0.0
  9
$DIMAZIN
 70
0
  9
$DIMDSEP
 70
44
  9
$DIMATFIT
 70
3
  9
$DIMFRAC
 70
0
  9
$DIMLDRBLK
  1

  9
$DIMLUNIT
 70
2
  9
$DIMLWD
 70
-2
  9
$DIMLWE
 70
-2
  9
$DIMTMOVE
 70
0
  9
$DIMFXL
 40
1.0
  9
$DIMFXLON
 70
0
  9
$DIMJOGANG
 40
0.785398163397
  9
$DIMTFILL
 70
0
  9
$DIMTFILLCLR
 70
0
  9
$DIMARCSYM
 70
0
  9
$DIMLTYPE
  6

  9
$DIMLTEX1
  6

  9
$DIMLTEX2
  6

  9
$DIMTXTDIRECTION
 70
0
  9
$LUNITS
 70
2
  9
$LUPREC
 70
4
  9
$SKETCHINC
 40
1.0
  9
$FILLETRAD
 40
10.0
  9
$AUNITS
 70
0
  9
$AUPREC
 70
2
  9
$MENU
  1
.
  9
$ELEVATION
 40
0.0
  9
$PELEVATION
 40
0.0
  9
$THICKNESS
 40
0.0
  9
$LIMCHECK
 70
0
  9
$CHAMFERA
 40
0.0
  9
$CHAMFERB
 40
0.0
  9
$CHAMFERC
 40
0.0
  9
$CHAMFERD
 40
0.0
  9
$SKPOLY
 70
0
  9
$TDCREATE
 40
2461140.6092476854
  9
$TDUCREATE
 40
2458532.153996898
  9
$TDUPDATE
 40
2461140.6092476854
  9
$TDUUPDATE
 40
2458532.1544311
  9
$TDINDWG
 40
0.0
  9
$TDUSRTIMER
 40
0.0
  9
$USRTIMER
 70
1
  9
$ANGBASE
 50
0.0
  9
$ANGDIR
 70
0
  9
$PDMODE
 70
0
  9
$PDSIZE
 40
0.0
  9
$PLINEWID
 40
0.0
  9
$SPLFRAME
 70
0
  9
$SPLINETYPE
 70
6
  9
$SPLINESEGS
 70
8
  9
$HANDSEED
  5
21C
  9
$SURFTAB1
 70
6
  9
$SURFTAB2
 70
6
  9
$SURFTYPE
 70
6
  9
$SURFU
 70
6
  9
$SURFV
 70
6
  9
$UCSBASE
  2

  9
$UCSNAME
  2

  9
$UCSORG
 10
0.0
 20
0.0
 30
0.0
  9
$UCSXDIR
 10
1.0
 20
0.0
 30
0.0
  9
$UCSYDIR
 10
0.0
 20
1.0
 30
0.0
  9
$UCSORTHOREF
  2

  9
$UCSORTHOVIEW
 70
0
  9
$UCSORGTOP
 10
0.0
 20
0.0
 30
0.0
  9
$UCSORGBOTTOM
 10
0.0
 20
0.0
 30
0.0
  9
$UCSORGLEFT
 10
0.0
 20
0.0
 30
0.0
  9
$UCSORGRIGHT
 10
0.0
 20
0.0
 30
0.0
  9
$UCSORGFRONT
 10
0.0
 20
0.0
 30
0.0
  9
$UCSORGBACK
 10
0.0
 20
0.0
 30
0.0
  9
$PUCSBASE
  2

  9
$PUCSNAME
  2

  9
$PUCSORG
 10
0.0
 20
0.0
 30
0.0
  9
$PUCSXDIR
 10
1.0
 20
0.0
 30
0.0
  9
$PUCSYDIR
 10
0.0
 20
1.0
 30
0.0
  9
$PUCSORTHOREF
  2

  9
$PUCSORTHOVIEW
 70
0
  9
$PUCSORGTOP
 10
0.0
 20
0.0
 30
0.0
  9
$PUCSORGBOTTOM
 10
0.0
 20
0.0
 30
0.0
  9
$PUCSORGLEFT
 10
0.0
 20
0.0
 30
0.0
  9
$PUCSORGRIGHT
 10
0.0
 20
0.0
 30
0.0
  9
$PUCSORGFRONT
 10
0.0
 20
0.0
 30
0.0
  9
$PUCSORGBACK
 10
0.0
 20
0.0
 30
0.0
  9
$USERI1
 70
0
  9
$USERI2
 70
0
  9
$USERI3
 70
0
  9
$USERI4
 70
0
  9
$USERI5
 70
0
  9
$USERR1
 40
0.0
  9
$USERR2
 40
0.0
  9
$USERR3
 40
0.0
  9
$USERR4
 40
0.0
  9
$USERR5
 40
0.0
  9
$WORLDVIEW
 70
1
  9
$SHADEDGE
 70
3
  9
$SHADEDIF
 70
70
  9
$TILEMODE
 70
1
  9
$MAXACTVP
 70
64
  9
$PINSBASE
 10
0.0
 20
0.0
 30
0.0
  9
$PLIMCHECK
 70
0
  9
$PEXTMIN
 10
1e+20
 20
1e+20
 30
1e+20
  9
$PEXTMAX
 10
-1e+20
 20
-1e+20
 30
-1e+20
  9
$PLIMMIN
 10
0.0
 20
0.0
  9
$PLIMMAX
 10
420.0
 20
297.0
  9
$UNITMODE
 70
0
  9
$VISRETAIN
 70
1
  9
$PLINEGEN
 70
0
  9
$PSLTSCALE
 70
1
  9
$TREEDEPTH
 70
3020
  9
$CMLSTYLE
  2
Standard
  9
$CMLJUST
 70
0
  9
$CMLSCALE
 40
20.0
  9
$PROXYGRAPHICS
 70
1
  9
$MEASUREMENT
 70
1
  9
$CELWEIGHT
370
-1
  9
$ENDCAPS
280
0
  9
$JOINSTYLE
280
0
  9
$LWDISPLAY
290
0
  9
$INSUNITS
 70
4
  9
$HYPERLINKBASE
  1

  9
$STYLESHEET
  1

  9
$XEDIT
290
1
  9
$CEPSNTYPE
380
0
  9
$PSTYLEMODE
290
1
  9
$FINGERPRINTGUID
  2
{DB3D4226-B36D-4994-9584-5974C7008C0B}
  9
$VERSIONGUID
  2
{7282DBE8-2501-4AF9-B6A2-4B9C259039CF}
  9
$EXTNAMES
290
1
  9
$PSVPSCALE
 40
0.0
  9
$OLESTARTUP
290
0
  9
$SORTENTS
280
127
  9
$INDEXCTL
280
0
  9
$HIDETEXT
280
1
  9
$XCLIPFRAME
280
1
  9
$HALOGAP
280
0
  9
$OBSCOLOR
 70
257
  9
$OBSLTYPE
280
0
  9
$INTERSECTIONDISPLAY
280
0
  9
$INTERSECTIONCOLOR
 70
257
  9
$DIMASSOC
280
2
  9
$PROJECTNAME
  1

  9
$CAMERADISPLAY
290
0
  9
$LENSLENGTH
 40
50.0
  9
$CAMERAHEIGHT
 40
0.0
  9
$STEPSPERSEC
 40
24.0
  9
$STEPSIZE
 40
100.0
  9
$3DDWFPREC
 40
2.0
  9
$PSOLWIDTH
 40
0.005
  9
$PSOLHEIGHT
 40
0.08
  9
$LOFTANG1
 40
1.570796326795
  9
$LOFTANG2
 40
1.570796326795
  9
$LOFTMAG1
 40
0.0
  9
$LOFTMAG2
 40
0.0
  9
$LOFTPARAM
 70
7
  9
$LOFTNORMALS
280
1
  9
$LATITUDE
 40
37.795
  9
$LONGITUDE
 40
-122.394
  9
$NORTHDIRECTION
 40
0.0
  9
$TIMEZONE
 70
-8000
  9
$LIGHTGLYPHDISPLAY
280
1
  9
$TILEMODELIGHTSYNCH
280
1
  9
$CMATERIAL
347
20
  9
$SOLIDHIST
280
0
  9
$SHOWHIST
280
1
  9
$DWFFRAME
280
2
  9
$DGNFRAME
280
2
  9
$REALWORLDSCALE
290
1
  9
$INTERFERECOLOR
 62
256
  9
$CSHADOW
280
0
  9
$SHADOWPLANELOCATION
 40
0.0
  0
ENDSEC
  0
SECTION
  2
CLASSES
  0
CLASS
  1
ACDBDICTIONARYWDFLT
  2
AcDbDictionaryWithDefault
  3
ObjectDBX Classes
 90
0
 91
0
280
0
281
0
  0
CLASS
  1
SUN
  2
AcDbSun
  3
SCENEOE
 90
1153
 91
0
280
0
281
0
  0
CLASS
  1
VISUALSTYLE
  2
AcDbVisualStyle
  3
ObjectDBX Classes
 90
4095
 91
0
280
0
281
0
  0
CLASS
  1
MATERIAL
  2
AcDbMaterial
  3
ObjectDBX Classes
 90
1153
 91
0
280
0
281
0
  0
CLASS
  1
SCALE
  2
AcDbScale
  3
ObjectDBX Classes
 90
1153
 91
0
280
0
281
0
  0
CLASS
  1
TABLESTYLE
  2
AcDbTableStyle
  3
ObjectDBX Classes
 90
4095
 91
0
280
0
281
0
  0
CLASS
  1
MLEADERSTYLE
  2
AcDbMLeaderStyle
  3
ACDB_MLEADERSTYLE_CLASS
 90
4095
 91
0
280
0
281
0
  0
CLASS
  1
DICTIONARYVAR
  2
AcDbDictionaryVar
  3
ObjectDBX Classes
 90
0
 91
0
280
0
281
0
  0
CLASS
  1
CELLSTYLEMAP
  2
AcDbCellStyleMap
  3
ObjectDBX Classes
 90
1152
 91
0
280
0
281
0
  0
CLASS
  1
MENTALRAYRENDERSETTINGS
  2
AcDbMentalRayRenderSettings
  3
SCENEOE
 90
1024
 91
0
280
0
281
0
  0
CLASS
  1
ACDBDETAILVIEWSTYLE
  2
AcDbDetailViewStyle
  3
ObjectDBX Classes
 90
1025
 91
0
280
0
281
0
  0
CLASS
  1
ACDBSECTIONVIEWSTYLE
  2
AcDbSectionViewStyle
  3
ObjectDBX Classes
 90
1025
 91
0
280
0
281
0
  0
CLASS
  1
RASTERVARIABLES
  2
AcDbRasterVariables
  3
ISM
 90
0
 91
0
280
0
281
0
  0
CLASS
  1
LAYOUT
  2
AcDbLayout
  3
ObjectDBX Classes
 90
0
 91
0
280
0
281
0
  0
CLASS
  1
ACDBPLACEHOLDER
  2
AcDbPlaceHolder
  3
ObjectDBX Classes
 90
0
 91
0
280
0
281
0
  0
ENDSEC
  0
SECTION
  2
TABLES
  0
TABLE
  2
VPORT
  5
8
330
0
100
AcDbSymbolTable
 70
1
  0
VPORT
  5
23
330
8
100
AcDbSymbolTableRecord
100
AcDbViewportTableRecord
  2
*Active
 70
0
 10
0.0
 20
0.0
 11
1.0
 21
1.0
 12
0.0
 22
0.0
 13
0.0
 23
0.0
 14
0.5
 24
0.5
 15
0.5
 25
0.5
 16
0.0
 26
0.0
 36
1.0
 17
0.0
 27
0.0
 37
0.0
 40
1000.0
 41
1.34
 42
50.0
 43
0.0
 44
0.0
 50
0.0
 51
0.0
 71
0
 72
1000
 73
1
 74
3
 75
0
 76
0
 77
0
 78
0
281
0
 65
0
146
0.0
  0
ENDTAB
  0
TABLE
  2
LTYPE
  5
2
330
0
100
AcDbSymbolTable
 70
3
  0
LTYPE
  5
24
330
2
100
AcDbSymbolTableRecord
100
AcDbLinetypeTableRecord
  2
ByBlock
 70
0
  3

 72
65
 73
0
 40
0.0
  0
LTYPE
  5
25
330
2
100
AcDbSymbolTableRecord
100
AcDbLinetypeTableRecord
  2
ByLayer
 70
0
  3

 72
65
 73
0
 40
0.0
  0
LTYPE
  5
26
330
2
100
AcDbSymbolTableRecord
100
AcDbLinetypeTableRecord
  2
Continuous
 70
0
  3

 72
65
 73
0
 40
0.0
  0
ENDTAB
  0
TABLE
  2
LAYER
  5
1
330
0
100
AcDbSymbolTable
 70
2
  0
LAYER
  5
27
330
1
100
AcDbSymbolTableRecord
100
AcDbLayerTableRecord
  2
0
 70
0
 62
7
  6
Continuous
370
-3
390
13
347
21
  0
LAYER
  5
28
330
1
100
AcDbSymbolTableRecord
100
AcDbLayerTableRecord
  2
Defpoints
 70
0
 62
7
  6
Continuous
290
0
370
-3
390
13
347
21
  0
ENDTAB
  0
TABLE
  2
STYLE
  5
5
330
0
100
AcDbSymbolTable
 70
1
  0
STYLE
  5
29
330
5
100
AcDbSymbolTableRecord
100
AcDbTextStyleTableRecord
  2
Standard
 70
0
 40
0.0
 41
1.0
 50
0.0
 71
0
 42
2.5
  3
txt
  4

  0
ENDTAB
  0
TABLE
  2
VIEW
  5
7
330
0
100
AcDbSymbolTable
 70
0
  0
ENDTAB
  0
TABLE
  2
UCS
  5
6
330
0
100
AcDbSymbolTable
 70
0
  0
ENDTAB
  0
TABLE
  2
APPID
  5
3
330
0
100
AcDbSymbolTable
 70
3
  0
APPID
  5
2A
330
3
100
AcDbSymbolTableRecord
100
AcDbRegAppTableRecord
  2
ACAD
 70
0
  0
APPID
  5
219
330
3
100
AcDbSymbolTableRecord
100
AcDbRegAppTableRecord
  2
HATCHBACKGROUNDCOLOR
 70
0
  0
APPID
  5
21A
330
3
100
AcDbSymbolTableRecord
100
AcDbRegAppTableRecord
  2
EZDXF
 70
0
  0
ENDTAB
  0
TABLE
  2
DIMSTYLE
  5
4
330
0
100
AcDbSymbolTable
 70
1
100
AcDbDimStyleTable
  0
DIMSTYLE
105
2B
330
4
100
AcDbSymbolTableRecord
100
AcDbDimStyleTableRecord
  2
Standard
 70
0
 40
1.0
 41
2.5
 42
0.625
 43
3.75
 44
1.25
 45
0.0
 46
0.0
 47
0.0
 48
0.0
 49
2.5
140
2.5
141
2.5
142
0.0
143
0.03937007874
144
1.0
145
0.0
146
1.0
147
0.625
148
0.0
 69
0
 70
0
 71
0
 72
0
 73
0
 74
0
 75
0
 76
0
 77
1
 78
8
 79
3
170
0
171
3
172
1
173
0
174
0
175
0
176
0
177
0
178
0
179
2
271
2
272
2
273
2
274
3
275
0
276
0
277
2
278
44
279
0
280
0
281
0
282
0
283
0
284
8
285
0
286
0
288
0
289
3
290
0
371
-2
372
-2
  0
ENDTAB
  0
TABLE
  2
BLOCK_RECORD
  5
9
330
0
100
AcDbSymbolTable
 70
3
  0
BLOCK_RECORD
  5
17
330
9
100
AcDbSymbolTableRecord
100
AcDbBlockTableRecord
  2
*Model_Space
340
1A
 70
0
280
1
281
0
  0
BLOCK_RECORD
  5
1B
330
9
100
AcDbSymbolTableRecord
100
AcDbBlockTableRecord
  2
*Paper_Space
340
1E
 70
0
280
1
281
0
  0
BLOCK_RECORD
  5
2F
330
9
100
AcDbSymbolTableRecord
100
AcDbBlockTableRecord
  2
HEX
340
0
 70
0
280
1
281
0
  0
ENDTAB
  0
ENDSEC
  0
SECTION
  2
BLOCKS
  0
BLOCK
  5
18
330
17
100
AcDbEntity
  8
0
100
AcDbBlockBegin
  2
*Model_Space
 70
0
 10
0.0
 20
0.0
 30
0.0
  3
*Model_Space
  1

  0
ENDBLK
  5
19
330
17
100
AcDbEntity
  8
0
100
AcDbBlockEnd
  0
BLOCK
  5
1C
330
1B
100
AcDbEntity
  8
0
100
AcDbBlockBegin
  2
*Paper_Space
 70
0
 10
0.0
 20
0.0
 30
0.0
  3
*Paper_Space
  1

  0
ENDBLK
  5
1D
330
1B
100
AcDbEntity
  8
0
100
AcDbBlockEnd
  0
BLOCK
  5
30
330
2F
100
AcDbEntity
  8
0
100
AcDbBlockBegin
  2
HEX
 70
0
 10
0.0
 20
0.0
 30
0.0
  3
HEX
  1

  0
LWPOLYLINE
  5
32
330
2F
100
AcDbEntity
  8
0
100
AcDbPolyline
 90
6
 70
1
 10
1.516
 20
0.875
 10
0.0
 20
1.75
 10
-1.516
 20
0.875
 10
-1.516
 20
-0.875
 10
-0.0
 20
-1.75
 10
1.516
 20
-0.875
  0
ENDBLK
  5
31
330
2F
100
AcDbEntity
  8
0
100
AcDbBlockEnd
  0
ENDSEC
  0
SECTION
  2
ENTITIES
  0
LWPOLYLINE
  5
33
330
17
100
AcDbEntity
  8
0
100
AcDbPolyline
 90
4
 70
1
 10
180.512
 20
-146.439
 10
180.729
 20
-146.314
 10
181.069
 20
-146.51
 10
180.512
 20
-146.439
  0
LWPOLYLINE
  5
34
330
17
100
AcDbEntity
  8
0
100
AcDbPolyline
 90
5
 70
1
 10
185.48
 20
-147.018
 10
183.437
 20
-146.796
 10
183.427
 20
-146.795
 10
184.26
 20
-146.314
 10
185.48
 20
-147.018
  0
LWPOLYLINE
  5
35
330
17
100
AcDbEntity
  8
0
100
AcDbPolyline
 90
6
 70
1
 10
189.307
 20
-147.374
 10
188.017
 20
-147.264
 10
186.409
 20
-147.112
 10
187.791
 20
-146.314
 10
189.307
 20
-147.189
 10
189.307
 20
-147.374
  0
LWPOLYLINE
  5
36
330
17
100
AcDbEntity
  8
0
100
AcDbPolyline
 90
6
 70
1
 10
192.83
 20
-147.621
 10
189.807
 20
-147.414
 10
189.807
 20
-147.189
 10
191.322
 20
-146.314
 10
192.838
 20
-147.189
 10
192.83
 20
-147.621
  0
LWPOLYLINE
  5
37
330
17
100
AcDbEntity
  8
0
100
AcDbPolyline
 90
8
 70
1
 10
166.355
 20
-144.142
 10
165.191
 20
-143.907
 10
165.039
 20
-143.847
 10
164.921
 20
-143.746
 10
164.833
 20
-143.589
 10
164.808
 20
-143.436
 10
164.842
 20
-143.258
 10
166.355
 20
-144.142
  0
LWPOLYLINE
  5
38
330
17
100
AcDbEntity
  8
0
100
AcDbPolyline
 90
6
 70
1
 10
169.886
 20
-144.805
 10
166.855
 20
-144.24
 10
166.855
 20
-144.131
 10
168.37
 20
-143.256
 10
169.886
 20
-144.131
 10
169.886
 20
-144.805
  0
LWPOLYLINE
  5
39
330
17
100
AcDbEntity
  8
0
100
AcDbPolyline
 90
6
 70
1
 10
173.417
 20
-145.406
 10
170.386
 20
-144.894
 10
170.386
 20
-144.131
 10
171.901
 20
-143.256
 10
173.417
 20
-144.131
 10
173.417
 20
-145.406
  0
LWPOLYLINE
  5
3A
330
17
100
AcDbEntity
  8
0
100
AcDbPolyline
 90
7
 70
1
 10
176.853
 20
-145.936
 10
173.917
 20
-145.486
 10
173.917
 20
-144.131
 10
175.432
 20
-143.256
 10
176.948
 20
-144.131
 10
176.948
 20
-145.881
 10
176.853
 20
-145.936
  0
LWPOLYLINE
  5
3B
330
17
100
AcDbEntity
  8
0
100
AcDbPolyline
 90
8
 70
1
 10
179.697
 20
-146.332
 10
177.771
 20
-146.068
 10
177.448
 20
-145.881
 10
177.448
 20
-144.131
 10
178.963
 20
-143.256
 10
180.479
 20
-144.131
 10
180.479
 20
-145.881
 10
179.697
 20
-146.332
  0
LWPOLYLINE
  5
3C
330
17
100
AcDbEntity
  8
0
100
AcDbPolyline
 90
8
 70
1
 10
182.341
 20
-146.668
 10
180.979
 20
-145.881
 10
180.979
 20
-144.131
 10
182.494
 20
-143.256
 10
184.01
 20
-144.131
 10
184.01
 20
-145.881
 10
182.596
 20
-146.697
 10
182.341
 20
-146.668
  0
INSERT
  5
3D
330
17
100
AcDbEntity
  8
0
100
AcDbBlockReference
  2
HEX
 10
186.026
 20
-145.006
 30
0.0
  0
INSERT
  5
3F
330
17
100
AcDbEntity
  8
0
100
AcDbBlockReference
  2
HEX
 10
189.557
 20
-145.006
 30
0.0
  0
LWPOLYLINE
  5
41
330
17
100
AcDbEntity
  8
0
100
AcDbPolyline
 90
7
 70
1
 10
194.303
 20
-143.958
 10
193.499
 20
-146.518
 10
193.088
 20
-146.756
 10
191.572
 20
-145.881
 10
191.572
 20
-144.131
 10
193.088
 20
-143.256
 10
194.303
 20
-143.958
  0
LWPOLYLINE
  5
42
330
17
100
AcDbEntity
  8
0
100
AcDbPolyline
 90
8
 70
1
 10
165.089
 20
-142.66
 10
165.951
 20
-140.575
 10
166.605
 20
-140.198
 10
168.12
 20
-141.073
 10
168.12
 20
-142.823
 10
166.605
 20
-143.698
 10
165.089
 20
-142.823
 10
165.089
 20
-142.66
  0
INSERT
  5
43
330
17
100
AcDbEntity
  8
0
100
AcDbBlockReference
  2
HEX
 10
170.136
 20
-141.948
 30
0.0
  0
INSERT
  5
45
330
17
100
AcDbEntity
  8
0
100
AcDbBlockReference
  2
HEX
 10
173.667
 20
-141.948
 30
0.0
  0
INSERT
  5
47
330
17
100
AcDbEntity
  8
0
100
AcDbBlockReference
  2
HEX
 10
177.198
 20
-141.948
 30
0.0
  0
INSERT
  5
49
330
17
100
AcDbEntity
  8
0
100
AcDbBlockReference
  2
HEX
 10
180.729
 20
-141.948
 30
0.0
  0
INSERT
  5
4B
330
17
100
AcDbEntity
  8
0
100
AcDbBlockReference
  2
HEX
 10
184.26
 20
-141.948
 30
0.0
  0
INSERT
  5
4D
330
17
100
AcDbEntity
  8
0
100
AcDbBlockReference
  2
HEX
 10
187.791
 20
-141.948
 30
0.0
  0
INSERT
  5
4F
330
17
100
AcDbEntity
  8
0
100
AcDbBlockReference
  2
HEX
 10
191.322
 20
-141.948
 30
0.0
  0
LWPOLYLINE
  5
51
330
17
100
AcDbEntity
  8
0
100
AcDbPolyline
 90
6
 70
1
 10
195.386
 20
-140.506
 10
194.456
 20
-143.469
 10
193.338
 20
-142.823
 10
193.338
 20
-141.073
 10
194.853
 20
-140.198
 10
195.386
 20
-140.506
  0
LWPOLYLINE
  5
52
330
17
100
AcDbEntity
  8
0
100
AcDbPolyline
 90
4
 70
1
 10
166.355
 20
-139.599
 10
166.355
 20
-139.765
 10
166.264
 20
-139.817
 10
166.355
 20
-139.599
  0
LWPOLYLINE
  5
53
330
17
100
AcDbEntity
  8
0
100
AcDbPolyline
 90
8
 70
1
 10
167.058
 20
-137.898
 10
168.37
 20
-137.14
 10
169.886
 20
-138.015
 10
169.886
 20
-139.765
 10
168.37
 20
-140.64
 10
166.855
 20
-139.765
 10
166.855
 20
-138.389
 10
167.058
 20
-137.898
  0
INSERT
  5
54
330
17
100
AcDbEntity
  8
0
100
AcDbBlockReference
  2
HEX
 10
171.901
 20
-138.89
 30
0.0
  0
INSERT
  5
56
330
17
100
AcDbEntity
  8
0
100
AcDbBlockReference
  2
HEX
 10
175.432
 20
-138.89
 30
0.0
  0
INSERT
  5
58
330
17
100
AcDbEntity
  8
0
100
AcDbBlockReference
  2
HEX
 10
178.963
 20
-138.89
 30
0.0
  0
INSERT
  5
5A
330
17
100
AcDbEntity
  8
0
100
AcDbBlockReference
  2
HEX
 10
182.494
 20
-138.89
 30
0.0
  0
INSERT
  5
5C
330
17
100
AcDbEntity
  8
0
100
AcDbBlockReference
  2
HEX
 10
186.026
 20
-138.89
 30
0.0
  0
INSERT
  5
5E
330
17
100
AcDbEntity
  8
0
100
AcDbBlockReference
  2
HEX
 10
189.557
 20
-138.89
 30
0.0
  0
INSERT
  5
60
330
17
100
AcDbEntity
  8
0
100
AcDbBlockReference
  2
HEX
 10
193.088
 20
-138.89
 30
0.0
  0
LWPOLYLINE
  5
62
330
17
100
AcDbEntity
  8
0
100
AcDbPolyline
 90
6
 70
1
 10
196.404
 20
-137.264
 10
195.697
 20
-139.518
 10
195.54
 20
-140.017
 10
195.103
 20
-139.765
 10
195.103
 20
-138.015
 10
196.404
 20
-137.264
  0
LWPOLYLINE
  5
63
330
17
100
AcDbEntity
  8
0
100
AcDbPolyline
 90
4
 70
1
 10
167.371
 20
-137.139
 10
168.12
 20
-135.327
 10
168.12
 20
-136.707
 10
167.371
 20
-137.139
  0
INSERT
  5
64
330
17
100
AcDbEntity
  8
0
100
AcDbBlockReference
  2
HEX
 10
170.136
 20
-135.832
 30
0.0
  0
INSERT
  5
66
330
17
100
AcDbEntity
  8
0
100
AcDbBlockReference
  2
HEX
 10
173.667
 20
-135.832
 30
0.0
  0
INSERT
  5
68
330
17
100
AcDbEntity
  8
0
100
AcDbBlockReference
  2
HEX
 10
177.198
 20
-135.832
 30
0.0
  0
INSERT
  5
6A
330
17
100
AcDbEntity
  8
0
100
AcDbBlockReference
  2
HEX
 10
180.729
 20
-135.832
 30
0.0
  0
INSERT
  5
6C
330
17
100
AcDbEntity
  8
0
100
AcDbBlockReference
  2
HEX
 10
184.26
 20
-135.832
 30
0.0
  0
INSERT
  5
6E
330
17
100
AcDbEntity
  8
0
100
AcDbBlockReference
  2
HEX
 10
187.791
 20
-135.832
 30
0.0
  0
INSERT
  5
70
330
17
100
AcDbEntity
  8
0
100
AcDbBlockReference
  2
HEX
 10
191.322
 20
-135.832
 30
0.0
  0
INSERT
  5
72
330
17
100
AcDbEntity
  8
0
100
AcDbBlockReference
  2
HEX
 10
194.853
 20
-135.832
 30
0.0
  0
LWPOLYLINE
  5
74
330
17
100
AcDbEntity
  8
0
100
AcDbPolyline
 90
4
 70
1
 10
197.186
 20
-134.774
 10
196.869
 20
-135.783
 10
196.869
 20
-134.957
 10
197.186
 20
-134.774
  0
LWPOLYLINE
  5
75
330
17
100
AcDbEntity
  8
0
100
AcDbPolyline
 90
6
 70
1
 10
168.478
 20
-134.462
 10
169.458
 20
-132.09
 10
169.604
 20
-131.737
 10
169.886
 20
-131.899
 10
169.886
 20
-133.649
 10
168.478
 20
-134.462
  0
INSERT
  5
76
330
17
100
AcDbEntity
  8
0
100
AcDbBlockReference
  2
HEX
 10
171.901
 20
-132.774
 30
0.0
  0
INSERT
  5
78
330
17
100
AcDbEntity
  8
0
100
AcDbBlockReference
  2
HEX
 10
175.432
 20
-132.774
 30
0.0
  0
INSERT
  5
7A
330
17
100
AcDbEntity
  8
0
100
AcDbBlockReference
  2
HEX
 10
178.963
 20
-132.774
 30
0.0
  0
INSERT
  5
7C
330
17
100
AcDbEntity
  8
0
100
AcDbBlockReference
  2
HEX
 10
182.494
 20
-132.774
 30
0.0
  0
INSERT
  5
7E
330
17
100
AcDbEntity
  8
0
100
AcDbBlockReference
  2
HEX
 10
186.026
 20
-132.774
 30
0.0
  0
INSERT
  5
80
330
17
100
AcDbEntity
  8
0
100
AcDbBlockReference
  2
HEX
 10
189.557
 20
-132.774
 30
0.0
  0
INSERT
  5
82
330
17
100
AcDbEntity
  8
0
100
AcDbBlockReference
  2
HEX
 10
193.088
 20
-132.774
 30
0.0
  0
LWPOLYLINE
  5
84
330
17
100
AcDbEntity
  8
0
100
AcDbPolyline
 90
7
 70
1
 10
198.095
 20
-131.876
 10
197.407
 20
-134.069
 10
196.619
 20
-134.524
 10
195.103
 20
-133.649
 10
195.103
 20
-131.899
 10
196.619
 20
-131.024
 10
198.095
 20
-131.876
  0
LWPOLYLINE
  5
85
330
17
100
AcDbEntity
  8
0
100
AcDbPolyline
 90
6
 70
1
 10
169.797
 20
-131.27
 10
170.965
 20
-128.445
 10
171.651
 20
-128.841
 10
171.651
 20
-130.591
 10
170.136
 20
-131.466
 10
169.797
 20
-131.27
  0
INSERT
  5
86
330
17
100
AcDbEntity
  8
0
100
AcDbBlockReference
  2
HEX
 10
173.667
 20
-129.716
 30
0.0
  0
INSERT
  5
88
330
17
100
AcDbEntity
  8
0
100
AcDbBlockReference
  2
HEX
 10
177.198
 20
-129.716
 30
0.0
  0
INSERT
  5
8A
330
17
100
AcDbEntity
  8
0
100
AcDbBlockReference
  2
HEX
 10
180.729
 20
-129.716
 30
0.0
  0
INSERT
  5
8C
330
17
100
AcDbEntity
  8
0
100
AcDbBlockReference
  2
HEX
 10
184.26
 20
-129.716
 30
0.0
  0
INSERT
  5
8E
330
17
100
AcDbEntity
  8
0
100
AcDbBlockReference
  2
HEX
 10
187.791
 20
-129.716
 30
0.0
  0
INSERT
  5
90
330
17
100
AcDbEntity
  8
0
100
AcDbBlockReference
  2
HEX
 10
191.322
 20
-129.716
 30
0.0
  0
INSERT
  5
92
330
17
100
AcDbEntity
  8
0
100
AcDbBlockReference
  2
HEX
 10
194.853
 20
-129.716
 30
0.0
  0
LWPOLYLINE
  5
94
330
17
100
AcDbEntity
  8
0
100
AcDbPolyline
 90
6
 70
1
 10
199.179
 20
-128.424
 10
198.249
 20
-131.388
 10
196.869
 20
-130.591
 10
196.869
 20
-128.841
 10
198.384
 20
-127.966
 10
199.179
 20
-128.424
  0
LWPOLYLINE
  5
95
330
17
100
AcDbEntity
  8
0
100
AcDbPolyline
 90
6
 70
1
 10
171.158
 20
-127.979
 10
172.326
 20
-125.153
 10
173.417
 20
-125.783
 10
173.417
 20
-127.533
 10
171.901
 20
-128.408
 10
171.158
 20
-127.979
  0
INSERT
  5
96
330
17
100
AcDbEntity
  8
0
100
AcDbBlockReference
  2
HEX
 10
175.432
 20
-126.658
 30
0.0
  0
INSERT
  5
98
330
17
100
AcDbEntity
  8
0
100
AcDbBlockReference
  2
HEX
 10
178.963
 20
-126.658
 30
0.0
  0
INSERT
  5
9A
330
17
100
AcDbEntity
  8
0
100
AcDbBlockReference
  2
HEX
 10
182.494
 20
-126.658
 30
0.0
  0
INSERT
  5
9C
330
17
100
AcDbEntity
  8
0
100
AcDbBlockReference
  2
HEX
 10
186.026
 20
-126.658
 30
0.0
  0
INSERT
  5
9E
330
17
100
AcDbEntity
  8
0
100
AcDbBlockReference
  2
HEX
 10
189.557
 20
-126.658
 30
0.0
  0
INSERT
  5
A0
330
17
100
AcDbEntity
  8
0
100
AcDbBlockReference
  2
HEX
 10
193.088
 20
-126.658
 30
0.0
  0
INSERT
  5
A2
330
17
100
AcDbEntity
  8
0
100
AcDbBlockReference
  2
HEX
 10
196.619
 20
-126.658
 30
0.0
  0
LWPOLYLINE
  5
A4
330
17
100
AcDbEntity
  8
0
100
AcDbPolyline
 90
7
 70
1
 10
200.262
 20
-124.973
 10
199.353
 20
-127.87
 10
199.332
 20
-127.936
 10
198.634
 20
-127.533
 10
198.634
 20
-125.783
 10
200.15
 20
-124.908
 10
200.262
 20
-124.973
  0
LWPOLYLINE
  5
A5
330
17
100
AcDbEntity
  8
0
100
AcDbPolyline
 90
6
 70
1
 10
172.518
 20
-124.687
 10
173.686
 20
-121.861
 10
175.182
 20
-122.725
 10
175.182
 20
-124.475
 10
173.667
 20
-125.35
 10
172.518
 20
-124.687
  0
INSERT
  5
A6
330
17
100
AcDbEntity
  8
0
100
AcDbBlockReference
  2
HEX
 10
177.198
 20
-123.6
 30
0.0
  0
INSERT
  5
A8
330
17
100
AcDbEntity
  8
0
100
AcDbBlockReference
  2
HEX
 10
180.729
 20
-123.6
 30
0.0
  0
INSERT
  5
AA
330
17
100
AcDbEntity
  8
0
100
AcDbBlockReference
  2
HEX
 10
184.26
 20
-123.6
 30
0.0
  0
INSERT
  5
AC
330
17
100
AcDbEntity
  8
0
100
AcDbBlockReference
  2
HEX
 10
187.791
 20
-123.6
 30
0.0
  0
INSERT
  5
AE
330
17
100
AcDbEntity
  8
0
100
AcDbBlockReference
  2
HEX
 10
191.322
 20
-123.6
 30
0.0
  0
INSERT
  5
B0
330
17
100
AcDbEntity
  8
0
100
AcDbBlockReference
  2
HEX
 10
194.853
 20
-123.6
 30
0.0
  0
INSERT
  5
B2
330
17
100
AcDbEntity
  8
0
100
AcDbBlockReference
  2
HEX
 10
198.384
 20
-123.6
 30
0.0
  0
LWPOLYLINE
  5
B4
330
17
100
AcDbEntity
  8
0
100
AcDbPolyline
 90
5
 70
1
 10
201.093
 20
-122.325
 10
200.415
 20
-124.484
 10
200.4
 20
-124.475
 10
200.4
 20
-122.725
 10
201.093
 20
-122.325
  0
LWPOLYLINE
  5
B5
330
17
100
AcDbEntity
  8
0
100
AcDbPolyline
 90
8
 70
1
 10
173.917
 20
-121.304
 10
174.806
 20
-119.154
 10
175.432
 20
-118.792
 10
176.948
 20
-119.667
 10
176.948
 20
-121.417
 10
175.432
 20
-122.292
 10
173.917
 20
-121.417
 10
173.917
 20
-121.304
  0
INSERT
  5
B6
330
17
100
AcDbEntity
  8
0
100
AcDbBlockReference
  2
HEX
 10
178.963
 20
-120.542
 30
0.0
  0
INSERT
  5
B8
330
17
100
AcDbEntity
  8
0
100
AcDbBlockReference
  2
HEX
 10
182.494
 20
-120.542
 30
0.0
  0
INSERT
  5
BA
330
17
100
AcDbEntity
  8
0
100
AcDbBlockReference
  2
HEX
 10
186.026
 20
-120.542
 30
0.0
  0
INSERT
  5
BC
330
17
100
AcDbEntity
  8
0
100
AcDbBlockReference
  2
HEX
 10
189.557
 20
-120.542
 30
0.0
  0
INSERT
  5
BE
330
17
100
AcDbEntity
  8
0
100
AcDbBlockReference
  2
HEX
 10
193.088
 20
-120.542
 30
0.0
  0
INSERT
  5
C0
330
17
100
AcDbEntity
  8
0
100
AcDbBlockReference
  2
HEX
 10
196.619
 20
-120.542
 30
0.0
  0
LWPOLYLINE
  5
C2
330
17
100
AcDbEntity
  8
0
100
AcDbPolyline
 90
8
 70
1
 10
201.315
 20
-121.619
 10
200.15
 20
-122.292
 10
198.634
 20
-121.417
 10
198.634
 20
-119.667
 10
200.15
 20
-118.792
 10
201.665
 20
-119.667
 10
201.665
 20
-120.502
 10
201.315
 20
-121.619
  0
LWPOLYLINE
  5
C3
330
17
100
AcDbEntity
  8
0
100
AcDbPolyline
 90
4
 70
1
 10
175.182
 20
-118.242
 10
175.182
 20
-118.359
 10
175.119
 20
-118.395
 10
175.182
 20
-118.242
  0
LWPOLYLINE
  5
C4
330
17
100
AcDbEntity
  8
0
100
AcDbPolyline
 90
8
 70
1
 10
175.912
 20
-116.476
 10
177.198
 20
-115.734
 10
178.713
 20
-116.609
 10
178.713
 20
-118.359
 10
177.198
 20
-119.234
 10
175.682
 20
-118.359
 10
175.682
 20
-117.033
 10
175.912
 20
-116.476
  0
INSERT
  5
C5
330
17
100
AcDbEntity
  8
0
100
AcDbBlockReference
  2
HEX
 10
180.729
 20
-117.484
 30
0.0
  0
INSERT
  5
C7
330
17
100
AcDbEntity
  8
0
100
AcDbBlockReference
  2
HEX
 10
184.26
 20
-117.484
 30
0.0
  0
INSERT
  5
C9
330
17
100
AcDbEntity
  8
0
100
AcDbBlockReference
  2
HEX
 10
187.791
 20
-117.484
 30
0.0
  0
INSERT
  5
CB
330
17
100
AcDbEntity
  8
0
100
AcDbBlockReference
  2
HEX
 10
191.322
 20
-117.484
 30
0.0
  0
INSERT
  5
CD
330
17
100
AcDbEntity
  8
0
100
AcDbBlockReference
  2
HEX
 10
194.853
 20
-117.484
 30
0.0
  0
INSERT
  5
CF
330
17
100
AcDbEntity
  8
0
100
AcDbBlockReference
  2
HEX
 10
198.384
 20
-117.484
 30
0.0
  0
LWPOLYLINE
  5
D1
330
17
100
AcDbEntity
  8
0
100
AcDbPolyline
 90
7
 70
1
 10
202.971
 20
-116.343
 10
202.096
 20
-119.13
 10
201.915
 20
-119.234
 10
200.4
 20
-118.359
 10
200.4
 20
-116.609
 10
201.915
 20
-115.734
 10
202.971
 20
-116.343
  0
LWPOLYLINE
  5
D2
330
17
100
AcDbEntity
  8
0
100
AcDbPolyline
 90
4
 70
1
 10
176.226
 20
-115.718
 10
176.948
 20
-113.971
 10
176.948
 20
-115.301
 10
176.226
 20
-115.718
  0
INSERT
  5
D3
330
17
100
AcDbEntity
  8
0
100
AcDbBlockReference
  2
HEX
 10
178.963
 20
-114.426
 30
0.0
  0
INSERT
  5
D5
330
17
100
AcDbEntity
  8
0
100
AcDbBlockReference
  2
HEX
 10
182.494
 20
-114.426
 30
0.0
  0
INSERT
  5
D7
330
17
100
AcDbEntity
  8
0
100
AcDbBlockReference
  2
HEX
 10
186.026
 20
-114.426
 30
0.0
  0
INSERT
  5
D9
330
17
100
AcDbEntity
  8
0
100
AcDbBlockReference
  2
HEX
 10
189.557
 20
-114.426
 30
0.0
  0
INSERT
  5
DB
330
17
100
AcDbEntity
  8
0
100
AcDbBlockReference
  2
HEX
 10
193.088
 20
-114.426
 30
0.0
  0
INSERT
  5
DD
330
17
100
AcDbEntity
  8
0
100
AcDbBlockReference
  2
HEX
 10
196.619
 20
-114.426
 30
0.0
  0
INSERT
  5
DF
330
17
100
AcDbEntity
  8
0
100
AcDbBlockReference
  2
HEX
 10
200.15
 20
-114.426
 30
0.0
  0
LWPOLYLINE
  5
E1
330
17
100
AcDbEntity
  8
0
100
AcDbPolyline
 90
6
 70
1
 10
204.054
 20
-112.891
 10
203.124
 20
-115.854
 10
202.165
 20
-115.301
 10
202.165
 20
-113.551
 10
203.681
 20
-112.676
 10
204.054
 20
-112.891
  0
LWPOLYLINE
  5
E2
330
17
100
AcDbEntity
  8
0
100
AcDbPolyline
 90
5
 70
1
 10
177.333
 20
-113.04
 10
178.449
 20
-110.34
 10
178.713
 20
-110.493
 10
178.713
 20
-112.243
 10
177.333
 20
-113.04
  0
INSERT
  5
E3
330
17
100
AcDbEntity
  8
0
100
AcDbBlockReference
  2
HEX
 10
180.729
 20
-111.368
 30
0.0
  0
INSERT
  5
E5
330
17
100
AcDbEntity
  8
0
100
AcDbBlockReference
  2
HEX
 10
184.26
 20
-111.368
 30
0.0
  0
INSERT
  5
E7
330
17
100
AcDbEntity
  8
0
100
AcDbBlockReference
  2
HEX
 10
187.791
 20
-111.368
 30
0.0
  0
INSERT
  5
E9
330
17
100
AcDbEntity
  8
0
100
AcDbBlockReference
  2
HEX
 10
191.322
 20
-111.368
 30
0.0
  0
INSERT
  5
EB
330
17
100
AcDbEntity
  8
0
100
AcDbBlockReference
  2
HEX
 10
194.853
 20
-111.368
 30
0.0
  0
INSERT
  5
ED
330
17
100
AcDbEntity
  8
0
100
AcDbBlockReference
  2
HEX
 10
198.384
 20
-111.368
 30
0.0
  0
INSERT
  5
EF
330
17
100
AcDbEntity
  8
0
100
AcDbBlockReference
  2
HEX
 10
201.915
 20
-111.368
 30
0.0
  0
LWPOLYLINE
  5
F1
330
17
100
AcDbEntity
  8
0
100
AcDbPolyline
 90
6
 70
1
 10
205.001
 20
-109.875
 10
204.227
 20
-112.339
 10
204.208
 20
-112.403
 10
203.931
 20
-112.243
 10
203.931
 20
-110.493
 10
205.001
 20
-109.875
  0
LWPOLYLINE
  5
F2
330
17
100
AcDbEntity
  8
0
100
AcDbPolyline
 90
6
 70
1
 10
178.641
 20
-109.874
 10
179.809
 20
-107.048
 10
180.479
 20
-107.435
 10
180.479
 20
-109.185
 10
178.963
 20
-110.06
 10
178.641
 20
-109.874
  0
INSERT
  5
F3
330
17
100
AcDbEntity
  8
0
100
AcDbBlockReference
  2
HEX
 10
182.494
 20
-108.31
 30
0.0
  0
INSERT
  5
F5
330
17
100
AcDbEntity
  8
0
100
AcDbBlockReference
  2
HEX
 10
186.026
 20
-108.31
 30
0.0
  0
INSERT
  5
F7
330
17
100
AcDbEntity
  8
0
100
AcDbBlockReference
  2
HEX
 10
189.557
 20
-108.31
 30
0.0
  0
INSERT
  5
F9
330
17
100
AcDbEntity
  8
0
100
AcDbBlockReference
  2
HEX
 10
193.088
 20
-108.31
 30
0.0
  0
INSERT
  5
FB
330
17
100
AcDbEntity
  8
0
100
AcDbBlockReference
  2
HEX
 10
196.619
 20
-108.31
 30
0.0
  0
INSERT
  5
FD
330
17
100
AcDbEntity
  8
0
100
AcDbBlockReference
  2
HEX
 10
200.15
 20
-108.31
 30
0.0
  0
INSERT
  5
FF
330
17
100
AcDbEntity
  8
0
100
AcDbBlockReference
  2
HEX
 10
203.681
 20
-108.31
 30
0.0
  0
LWPOLYLINE
  5
101
330
17
100
AcDbEntity
  8
0
100
AcDbPolyline
 90
4
 70
1
 10
205.697
 20
-107.659
 10
205.697
 20
-107.435
 10
205.782
 20
-107.385
 10
205.697
 20
-107.659
  0
LWPOLYLINE
  5
102
330
17
100
AcDbEntity
  8
0
100
AcDbPolyline
 90
6
 70
1
 10
180.002
 20
-106.582
 10
181.17
 20
-103.757
 10
182.244
 20
-104.377
 10
182.244
 20
-106.127
 10
180.729
 20
-107.002
 10
180.002
 20
-106.582
  0
LWPOLYLINE
  5
103
330
17
100
AcDbEntity
  8
0
100
AcDbPolyline
 90
6
 70
1
 10
180.094
 20
-103.869
 10
179.663
 20
-104.929
 10
179.434
 20
-105.491
 10
179.569
 20
-104.824
 10
179.682
 20
-104.106
 10
180.094
 20
-103.869
  0
INSERT
  5
104
330
17
100
AcDbEntity
  8
0
100
AcDbBlockReference
  2
HEX
 10
184.26
 20
-105.252
 30
0.0
  0
INSERT
  5
106
330
17
100
AcDbEntity
  8
0
100
AcDbBlockReference
  2
HEX
 10
187.791
 20
-105.252
 30
0.0
  0
INSERT
  5
108
330
17
100
AcDbEntity
  8
0
100
AcDbBlockReference
  2
HEX
 10
191.322
 20
-105.252
 30
0.0
  0
INSERT
  5
10A
330
17
100
AcDbEntity
  8
0
100
AcDbBlockReference
  2
HEX
 10
194.853
 20
-105.252
 30
0.0
  0
INSERT
  5
10C
330
17
100
AcDbEntity
  8
0
100
AcDbBlockReference
  2
HEX
 10
198.384
 20
-105.252
 30
0.0
  0
INSERT
  5
10E
330
17
100
AcDbEntity
  8
0
100
AcDbBlockReference
  2
HEX
 10
201.915
 20
-105.252
 30
0.0
  0
LWPOLYLINE
  5
110
330
17
100
AcDbEntity
  8
0
100
AcDbPolyline
 90
7
 70
1
 10
206.763
 20
-104.262
 10
206.004
 20
-106.68
 10
205.447
 20
-107.002
 10
203.931
 20
-106.127
 10
203.931
 20
-104.377
 10
205.447
 20
-103.502
 10
206.763
 20
-104.262
  0
LWPOLYLINE
  5
111
330
17
100
AcDbEntity
  8
0
100
AcDbPolyline
 90
8
 70
1
 10
180.4
 20
-103.114
 10
179.76
 20
-103.484
 10
179.852
 20
-102.448
 10
179.884
 20
-101.816
 10
179.898
 20
-100.983
 10
180.479
 20
-101.319
 10
180.479
 20
-102.92
 10
180.4
 20
-103.114
  0
LWPOLYLINE
  5
112
330
17
100
AcDbEntity
  8
0
100
AcDbPolyline
 90
6
 70
1
 10
181.363
 20
-103.29
 10
182.531
 20
-100.465
 10
184.01
 20
-101.319
 10
184.01
 20
-103.069
 10
182.494
 20
-103.944
 10
181.363
 20
-103.29
  0
LWPOLYLINE
  5
113
330
17
100
AcDbEntity
  8
0
100
AcDbPolyline
 90
4
 70
1
 10
181.176
 20
-101.205
 10
180.979
 20
-101.69
 10
180.979
 20
-101.319
 10
181.176
 20
-101.205
  0
INSERT
  5
114
330
17
100
AcDbEntity
  8
0
100
AcDbBlockReference
  2
HEX
 10
186.026
 20
-102.194
 30
0.0
  0
INSERT
  5
116
330
17
100
AcDbEntity
  8
0
100
AcDbBlockReference
  2
HEX
 10
189.557
 20
-102.194
 30
0.0
  0
INSERT
  5
118
330
17
100
AcDbEntity
  8
0
100
AcDbBlockReference
  2
HEX
 10
193.088
 20
-102.194
 30
0.0
  0
INSERT
  5
11A
330
17
100
AcDbEntity
  8
0
100
AcDbBlockReference
  2
HEX
 10
196.619
 20
-102.194
 30
0.0
  0
INSERT
  5
11C
330
17
100
AcDbEntity
  8
0
100
AcDbBlockReference
  2
HEX
 10
200.15
 20
-102.194
 30
0.0
  0
INSERT
  5
11E
330
17
100
AcDbEntity
  8
0
100
AcDbBlockReference
  2
HEX
 10
203.681
 20
-102.194
 30
0.0
  0
LWPOLYLINE
  5
120
330
17
100
AcDbEntity
  8
0
100
AcDbPolyline
 90
6
 70
1
 10
207.846
 20
-100.81
 10
206.916
 20
-103.773
 10
205.697
 20
-103.069
 10
205.697
 20
-101.319
 10
207.212
 20
-100.444
 10
207.846
 20
-100.81
  0
LWPOLYLINE
  5
121
330
17
100
AcDbEntity
  8
0
100
AcDbPolyline
 90
10
 70
1
 10
182.244
 20
-98.575
 10
181.482
 20
-100.451
 10
180.729
 20
-100.886
 10
179.892
 20
-100.402
 10
179.862
 20
-99.696
 10
179.802
 20
-98.931
 10
179.684
 20
-97.989
 10
180.729
 20
-97.386
 10
182.244
 20
-98.261
 10
182.244
 20
-98.575
  0
LWPOLYLINE
  5
122
330
17
100
AcDbEntity
  8
0
100
AcDbPolyline
 90
8
 70
1
 10
182.744
 20
-99.948
 10
183.66
 20
-97.732
 10
184.26
 20
-97.386
 10
185.776
 20
-98.261
 10
185.776
 20
-100.011
 10
184.26
 20
-100.886
 10
182.744
 20
-100.011
 10
182.744
 20
-99.948
  0
INSERT
  5
123
330
17
100
AcDbEntity
  8
0
100
AcDbBlockReference
  2
HEX
 10
187.791
 20
-99.136
 30
0.0
  0
INSERT
  5
125
330
17
100
AcDbEntity
  8
0
100
AcDbBlockReference
  2
HEX
 10
191.322
 20
-99.136
 30
0.0
  0
INSERT
  5
127
330
17
100
AcDbEntity
  8
0
100
AcDbBlockReference
  2
HEX
 10
194.853
 20
-99.136
 30
0.0
  0
INSERT
  5
129
330
17
100
AcDbEntity
  8
0
100
AcDbBlockReference
  2
HEX
 10
198.384
 20
-99.136
 30
0.0
  0
INSERT
  5
12B
330
17
100
AcDbEntity
  8
0
100
AcDbBlockReference
  2
HEX
 10
201.915
 20
-99.136
 30
0.0
  0
INSERT
  5
12D
330
17
100
AcDbEntity
  8
0
100
AcDbBlockReference
  2
HEX
 10
205.447
 20
-99.136
 30
0.0
  0
LWPOLYLINE
  5
12F
330
17
100
AcDbEntity
  8
0
100
AcDbPolyline
 90
5
 70
1
 10
208.909
 20
-97.426
 10
208.0
 20
-100.321
 10
207.462
 20
-100.011
 10
207.462
 20
-98.261
 10
208.909
 20
-97.426
  0
LWPOLYLINE
  5
130
330
17
100
AcDbEntity
  8
0
100
AcDbPolyline
 90
5
 70
1
 10
210.493
 20
-98.487
 10
209.419
 20
-98.223
 10
209.57
 20
-97.728
 10
210.493
 20
-98.261
 10
210.493
 20
-98.487
  0
LWPOLYLINE
  5
131
330
17
100
AcDbEntity
  8
0
100
AcDbPolyline
 90
12
 70
1
 10
214.024
 20
-98.497
 10
213.464
 20
-98.454
 10
212.982
 20
-98.497
 10
212.734
 20
-98.55
 10
212.481
 20
-98.625
 10
212.224
 20
-98.724
 10
211.963
 20
-98.849
 10
210.993
 20
-98.61
 10
210.993
 20
-98.261
 10
212.509
 20
-97.386
 10
214.024
 20
-98.261
 10
214.024
 20
-98.497
  0
LWPOLYLINE
  5
132
330
17
100
AcDbEntity
  8
0
100
AcDbPolyline
 90
15
 70
1
 10
215.647
 20
-98.089
 10
215.931
 20
-98.71
 10
215.951
 20
-98.786
 10
215.945
 20
-98.884
 10
215.91
 20
-98.972
 10
215.85
 20
-99.045
 10
215.773
 20
-99.097
 10
215.659
 20
-99.125
 10
215.537
 20
-99.103
 10
215.053
 20
-98.834
 10
214.768
 20
-98.707
 10
214.524
 20
-98.62
 10
214.524
 20
-98.261
 10
215.49
 20
-97.703
 10
215.647
 20
-98.089
  0
LWPOLYLINE
  5
133
330
17
100
AcDbEntity
  8
0
100
AcDbPolyline
 90
9
 70
1
 10
179.598
 20
-97.461
 10
179.408
 20
-96.53
 10
179.193
 20
-95.71
 10
178.929
 20
-94.889
 10
178.757
 20
-94.447
 10
178.963
 20
-94.328
 10
180.479
 20
-95.203
 10
180.479
 20
-96.953
 10
179.598
 20
-97.461
  0
LWPOLYLINE
  5
134
330
17
100
AcDbEntity
  8
0
100
AcDbPolyline
 90
4
 70
1
 10
184.01
 20
-96.886
 10
184.01
 20
-96.953
 10
183.974
 20
-96.974
 10
184.01
 20
-96.886
  0
LWPOLYLINE
  5
135
330
17
100
AcDbEntity
  8
0
100
AcDbPolyline
 90
7
 70
1
 10
183.69
 20
-95.018
 10
182.565
 20
-97.787
 10
182.494
 20
-97.828
 10
180.979
 20
-96.953
 10
180.979
 20
-95.203
 10
182.494
 20
-94.328
 10
183.69
 20
-95.018
  0
LWPOLYLINE
  5
136
330
17
100
AcDbEntity
  8
0
100
AcDbPolyline
 90
8
 70
1
 10
184.767
 20
-95.054
 10
186.026
 20
-94.328
 10
187.541
 20
-95.203
 10
187.541
 20
-96.953
 10
186.026
 20
-97.828
 10
184.51
 20
-96.953
 10
184.51
 20
-95.676
 10
184.767
 20
-95.054
  0
INSERT
  5
137
330
17
100
AcDbEntity
  8
0
100
AcDbBlockReference
  2
HEX
 10
189.557
 20
-96.078
 30
0.0
  0
INSERT
  5
139
330
17
100
AcDbEntity
  8
0
100
AcDbBlockReference
  2
HEX
 10
193.088
 20
-96.078
 30
0.0
  0
INSERT
  5
13B
330
17
100
AcDbEntity
  8
0
100
AcDbBlockReference
  2
HEX
 10
196.619
 20
-96.078
 30
0.0
  0
INSERT
  5
13D
330
17
100
AcDbEntity
  8
0
100
AcDbBlockReference
  2
HEX
 10
200.15
 20
-96.078
 30
0.0
  0
INSERT
  5
13F
330
17
100
AcDbEntity
  8
0
100
AcDbBlockReference
  2
HEX
 10
203.681
 20
-96.078
 30
0.0
  0
INSERT
  5
141
330
17
100
AcDbEntity
  8
0
100
AcDbBlockReference
  2
HEX
 10
207.212
 20
-96.078
 30
0.0
  0
LWPOLYLINE
  5
143
330
17
100
AcDbEntity
  8
0
100
AcDbPolyline
 90
4
 70
1
 10
209.228
 20
-96.409
 10
209.228
 20
-95.203
 10
209.69
 20
-94.936
 10
209.228
 20
-96.409
  0
LWPOLYLINE
  5
144
330
17
100
AcDbEntity
  8
0
100
AcDbPolyline
 90
7
 70
1
 10
209.72
 20
-97.237
 10
210.581
 20
-94.421
 10
210.743
 20
-94.328
 10
212.259
 20
-95.203
 10
212.259
 20
-96.953
 10
210.743
 20
-97.828
 10
209.72
 20
-97.237
  0
LWPOLYLINE
  5
145
330
17
100
AcDbEntity
  8
0
100
AcDbPolyline
 90
10
 70
1
 10
214.691
 20
-94.568
 10
214.791
 20
-95.307
 10
214.899
 20
-95.836
 10
215.037
 20
-96.38
 10
215.311
 20
-97.229
 10
214.274
 20
-97.828
 10
212.759
 20
-96.953
 10
212.759
 20
-95.203
 10
214.274
 20
-94.328
 10
214.691
 20
-94.568
  0
LWPOLYLINE
  5
146
330
17
100
AcDbEntity
  8
0
100
AcDbPolyline
 90
6
 70
1
 10
246.109
 20
-94.359
 10
246.062
 20
-94.819
 10
246.04
 20
-95.258
 10
245.722
 20
-94.519
 10
246.054
 20
-94.328
 10
246.109
 20
-94.359
  0
LWPOLYLINE
  5
147
330
17
100
AcDbEntity
  8
0
100
AcDbPolyline
 90
9
 70
1
 10
178.239
 20
-93.263
 10
177.805
 20
-92.467
 10
177.307
 20
-91.69
 10
177.054
 20
-91.353
 10
177.198
 20
-91.27
 10
178.713
 20
-92.145
 10
178.713
 20
-93.895
 10
178.569
 20
-93.978
 10
178.239
 20
-93.263
  0
INSERT
  5
148
330
17
100
AcDbEntity
  8
0
100
AcDbBlockReference
  2
HEX
 10
180.729
 20
-93.02
 30
0.0
  0
LWPOLYLINE
  5
14A
330
17
100
AcDbEntity
  8
0
100
AcDbPolyline
 90
4
 70
1
 10
185.081
 20
-94.296
 10
185.776
 20
-92.615
 10
185.776
 20
-93.895
 10
185.081
 20
-94.296
  0
LWPOLYLINE
  5
14B
330
17
100
AcDbEntity
  8
0
100
AcDbPolyline
 90
6
 70
1
 10
185.032
 20
-91.715
 10
183.88
 20
-94.55
 10
182.744
 20
-93.895
 10
182.744
 20
-92.145
 10
184.26
 20
-91.27
 10
185.032
 20
-91.715
  0
INSERT
  5
14C
330
17
100
AcDbEntity
  8
0
100
AcDbBlockReference
  2
HEX
 10
187.791
 20
-93.02
 30
0.0
  0
INSERT
  5
14E
330
17
100
AcDbEntity
  8
0
100
AcDbBlockReference
  2
HEX
 10
191.322
 20
-93.02
 30
0.0
  0
INSERT
  5
150
330
17
100
AcDbEntity
  8
0
100
AcDbBlockReference
  2
HEX
 10
194.853
 20
-93.02
 30
0.0
  0
INSERT
  5
152
330
17
100
AcDbEntity
  8
0
100
AcDbBlockReference
  2
HEX
 10
198.384
 20
-93.02
 30
0.0
  0
INSERT
  5
154
330
17
100
AcDbEntity
  8
0
100
AcDbBlockReference
  2
HEX
 10
201.915
 20
-93.02
 30
0.0
  0
INSERT
  5
156
330
17
100
AcDbEntity
  8
0
100
AcDbBlockReference
  2
HEX
 10
205.447
 20
-93.02
 30
0.0
  0
LWPOLYLINE
  5
158
330
17
100
AcDbEntity
  8
0
100
AcDbPolyline
 90
8
 70
1
 10
210.493
 20
-92.377
 10
209.911
 20
-94.231
 10
208.978
 20
-94.77
 10
207.462
 20
-93.895
 10
207.462
 20
-92.145
 10
208.978
 20
-91.27
 10
210.493
 20
-92.145
 10
210.493
 20
-92.377
  0
LWPOLYLINE
  5
159
330
17
100
AcDbEntity
  8
0
100
AcDbPolyline
 90
8
 70
1
 10
210.993
 20
-93.074
 10
211.338
 20
-91.946
 10
212.509
 20
-91.27
 10
214.024
 20
-92.145
 10
214.024
 20
-93.895
 10
212.509
 20
-94.77
 10
210.993
 20
-93.895
 10
210.993
 20
-93.074
  0
LWPOLYLINE
  5
15A
330
17
100
AcDbEntity
  8
0
100
AcDbPolyline
 90
8
 70
1
 10
214.718
 20
-92.415
 10
214.669
 20
-92.862
 10
214.642
 20
-93.323
 10
214.648
 20
-93.966
 10
214.524
 20
-93.895
 10
214.524
 20
-92.145
 10
214.788
 20
-91.993
 10
214.718
 20
-92.415
  0
LWPOLYLINE
  5
15B
330
17
100
AcDbEntity
  8
0
100
AcDbPolyline
 90
9
 70
1
 10
245.5
 20
-94.06
 10
245.079
 20
-93.275
 10
244.732
 20
-92.693
 10
244.331
 20
-92.082
 10
243.903
 20
-91.493
 10
244.288
 20
-91.27
 10
245.804
 20
-92.145
 10
245.804
 20
-93.895
 10
245.5
 20
-94.06
  0
LWPOLYLINE
  5
15C
330
17
100
AcDbEntity
  8
0
100
AcDbPolyline
 90
6
 70
1
 10
246.684
 20
-92.136
 10
246.436
 20
-92.832
 10
246.304
 20
-93.314
 10
246.304
 20
-92.145
 10
246.802
 20
-91.857
 10
246.684
 20
-92.136
  0
LWPOLYLINE
  5
15D
330
17
100
AcDbEntity
  8
0
100
AcDbPolyline
 90
9
 70
1
 10
176.752
 20
-90.95
 10
176.103
 20
-90.21
 10
175.388
 20
-89.517
 10
174.593
 20
-88.862
 10
174.463
 20
-88.771
 10
175.432
 20
-88.212
 10
176.948
 20
-89.087
 10
176.948
 20
-90.837
 10
176.752
 20
-90.95
  0
INSERT
  5
15E
330
17
100
AcDbEntity
  8
0
100
AcDbBlockReference
  2
HEX
 10
178.963
 20
-89.962
 30
0.0
  0
INSERT
  5
160
330
17
100
AcDbEntity
  8
0
100
AcDbBlockReference
  2
HEX
 10
182.494
 20
-89.962
 30
0.0
  0
LWPOLYLINE
  5
162
330
17
100
AcDbEntity
  8
0
100
AcDbPolyline
 90
6
 70
1
 10
186.187
 20
-91.618
 10
187.142
 20
-89.309
 10
187.293
 20
-88.944
 10
187.541
 20
-89.087
 10
187.541
 20
-90.837
 10
186.187
 20
-91.618
  0
LWPOLYLINE
  5
163
330
17
100
AcDbEntity
  8
0
100
AcDbPolyline
 90
6
 70
1
 10
186.374
 20
-88.413
 10
185.222
 20
-91.248
 10
184.51
 20
-90.837
 10
184.51
 20
-89.087
 10
186.026
 20
-88.212
 10
186.374
 20
-88.413
  0
INSERT
  5
164
330
17
100
AcDbEntity
  8
0
100
AcDbBlockReference
  2
HEX
 10
189.557
 20
-89.962
 30
0.0
  0
INSERT
  5
166
330
17
100
AcDbEntity
  8
0
100
AcDbBlockReference
  2
HEX
 10
193.088
 20
-89.962
 30
0.0
  0
INSERT
  5
168
330
17
100
AcDbEntity
  8
0
100
AcDbBlockReference
  2
HEX
 10
196.619
 20
-89.962
 30
0.0
  0
INSERT
  5
16A
330
17
100
AcDbEntity
  8
0
100
AcDbBlockReference
  2
HEX
 10
200.15
 20
-89.962
 30
0.0
  0
INSERT
  5
16C
330
17
100
AcDbEntity
  8
0
100
AcDbBlockReference
  2
HEX
 10
203.681
 20
-89.962
 30
0.0
  0
INSERT
  5
16E
330
17
100
AcDbEntity
  8
0
100
AcDbBlockReference
  2
HEX
 10
207.212
 20
-89.962
 30
0.0
  0
LWPOLYLINE
  5
170
330
17
100
AcDbEntity
  8
0
100
AcDbPolyline
 90
6
 70
1
 10
211.638
 20
-88.729
 10
210.708
 20
-91.692
 10
209.228
 20
-90.837
 10
209.228
 20
-89.087
 10
210.743
 20
-88.212
 10
211.638
 20
-88.729
  0
LWPOLYLINE
  5
171
330
17
100
AcDbEntity
  8
0
100
AcDbPolyline
 90
6
 70
1
 10
211.553
 20
-91.244
 10
212.198
 20
-89.134
 10
212.219
 20
-89.064
 10
212.259
 20
-89.087
 10
212.259
 20
-90.837
 10
211.553
 20
-91.244
  0
LWPOLYLINE
  5
172
330
17
100
AcDbEntity
  8
0
100
AcDbPolyline
 90
11
 70
1
 10
215.606
 20
-89.686
 10
215.268
 20
-90.393
 10
215.122
 20
-90.768
 10
214.947
 20
-91.323
 10
214.274
 20
-91.712
 10
212.759
 20
-90.837
 10
212.759
 20
-89.087
 10
214.274
 20
-88.212
 10
215.79
 20
-89.087
 10
215.79
 20
-89.364
 10
215.606
 20
-89.686
  0
LWPOLYLINE
  5
173
330
17
100
AcDbEntity
  8
0
100
AcDbPolyline
 90
11
 70
1
 10
243.369
 20
-90.839
 10
242.807
 20
-90.24
 10
242.192
 20
-89.678
 10
241.864
 20
-89.415
 10
241.522
 20
-89.168
 10
241.213
 20
-88.968
 10
242.523
 20
-88.212
 10
244.038
 20
-89.087
 10
244.038
 20
-90.837
 10
243.587
 20
-91.097
 10
243.369
 20
-90.839
  0
LWPOLYLINE
  5
174
330
17
100
AcDbEntity
  8
0
100
AcDbPolyline
 90
8
 70
1
 10
247.57
 20
-90.464
 10
247.213
 20
-91.043
 10
246.054
 20
-91.712
 10
244.538
 20
-90.837
 10
244.538
 20
-89.087
 10
246.054
 20
-88.212
 10
247.57
 20
-89.087
 10
247.57
 20
-90.464
  0
LWPOLYLINE
  5
175
330
17
100
AcDbEntity
  8
0
100
AcDbPolyline
 90
8
 70
1
 10
249.637
 20
-88.242
 10
249.234
 20
-88.568
 10
248.806
 20
-88.965
 10
248.484
 20
-89.3
 10
248.07
 20
-89.783
 10
248.07
 20
-89.087
 10
249.585
 20
-88.212
 10
249.637
 20
-88.242
  0
LWPOLYLINE
  5
176
330
17
100
AcDbEntity
  8
0
100
AcDbPolyline
 90
8
 70
1
 10
170.535
 20
-86.721
 10
169.158
 20
-86.288
 10
168.912
 20
-86.145
 10
168.732
 20
-85.964
 10
170.136
 20
-85.154
 10
171.651
 20
-86.029
 10
171.651
 20
-87.16
 10
170.535
 20
-86.721
  0
LWPOLYLINE
  5
177
330
17
100
AcDbEntity
  8
0
100
AcDbPolyline
 90
9
 70
1
 10
173.714
 20
-88.25
 10
172.748
 20
-87.686
 10
172.151
 20
-87.398
 10
172.151
 20
-86.029
 10
173.667
 20
-85.154
 10
175.182
 20
-86.029
 10
175.182
 20
-87.779
 10
174.01
 20
-88.456
 10
173.714
 20
-88.25
  0
INSERT
  5
178
330
17
100
AcDbEntity
  8
0
100
AcDbBlockReference
  2
HEX
 10
177.198
 20
-86.904
 30
0.0
  0
INSERT
  5
17A
330
17
100
AcDbEntity
  8
0
100
AcDbBlockReference
  2
HEX
 10
180.729
 20
-86.904
 30
0.0
  0
INSERT
  5
17C
330
17
100
AcDbEntity
  8
0
100
AcDbBlockReference
  2
HEX
 10
184.26
 20
-86.904
 30
0.0
  0
LWPOLYLINE
  5
17E
330
17
100
AcDbEntity
  8
0
100
AcDbPolyline
 90
6
 70
1
 10
187.486
 20
-88.477
 10
188.654
 20
-85.652
 10
189.307
 20
-86.029
 10
189.307
 20
-87.779
 10
187.791
 20
-88.654
 10
187.486
 20
-88.477
  0
LWPOLYLINE
  5
17F
330
17
100
AcDbEntity
  8
0
100
AcDbPolyline
 90
4
 70
1
 10
187.668
 20
-85.225
 10
187.576
 20
-85.451
 10
187.399
 20
-85.38
 10
187.668
 20
-85.225
  0
LWPOLYLINE
  5
180
330
17
100
AcDbEntity
  8
0
100
AcDbPolyline
 90
6
 70
1
 10
186.276
 20
-87.247
 10
186.54
 20
-87.451
 10
186.733
 20
-87.528
 10
186.564
 20
-87.945
 10
186.276
 20
-87.779
 10
186.276
 20
-87.247
  0
INSERT
  5
181
330
17
100
AcDbEntity
  8
0
100
AcDbBlockReference
  2
HEX
 10
191.322
 20
-86.904
 30
0.0
  0
INSERT
  5
183
330
17
100
AcDbEntity
  8
0
100
AcDbBlockReference
  2
HEX
 10
194.853
 20
-86.904
 30
0.0
  0
INSERT
  5
185
330
17
100
AcDbEntity
  8
0
100
AcDbBlockReference
  2
HEX
 10
198.384
 20
-86.904
 30
0.0
  0
INSERT
  5
187
330
17
100
AcDbEntity
  8
0
100
AcDbBlockReference
  2
HEX
 10
201.915
 20
-86.904
 30
0.0
  0
INSERT
  5
189
330
17
100
AcDbEntity
  8
0
100
AcDbBlockReference
  2
HEX
 10
205.447
 20
-86.904
 30
0.0
  0
INSERT
  5
18B
330
17
100
AcDbEntity
  8
0
100
AcDbBlockReference
  2
HEX
 10
208.978
 20
-86.904
 30
0.0
  0
LWPOLYLINE
  5
18D
330
17
100
AcDbEntity
  8
0
100
AcDbPolyline
 90
6
 70
1
 10
212.722
 20
-85.277
 10
211.792
 20
-88.24
 10
210.993
 20
-87.779
 10
210.993
 20
-86.029
 10
212.509
 20
-85.154
 10
212.722
 20
-85.277
  0
LWPOLYLINE
  5
18E
330
17
100
AcDbEntity
  8
0
100
AcDbPolyline
 90
7
 70
1
 10
212.369
 20
-88.573
 10
212.595
 20
-87.835
 10
213.279
 20
-85.598
 10
214.024
 20
-86.029
 10
214.024
 20
-87.779
 10
212.509
 20
-88.654
 10
212.369
 20
-88.573
  0
LWPOLYLINE
  5
18F
330
17
100
AcDbEntity
  8
0
100
AcDbPolyline
 90
10
 70
1
 10
217.379
 20
-87.462
 10
216.892
 20
-87.925
 10
216.464
 20
-88.409
 10
216.04
 20
-88.654
 10
214.524
 20
-87.779
 10
214.524
 20
-86.029
 10
216.04
 20
-85.154
 10
217.555
 20
-86.029
 10
217.555
 20
-87.313
 10
217.379
 20
-87.462
  0
LWPOLYLINE
  5
190
330
17
100
AcDbEntity
  8
0
100
AcDbPolyline
 90
8
 70
1
 10
220.667
 20
-85.787
 10
219.831
 20
-86.036
 10
219.218
 20
-86.282
 10
218.626
 20
-86.579
 10
218.055
 20
-86.935
 10
218.055
 20
-86.029
 10
219.571
 20
-85.154
 10
220.667
 20
-85.787
  0
LWPOLYLINE
  5
191
330
17
100
AcDbEntity
  8
0
100
AcDbPolyline
 90
5
 70
1
 10
223.754
 20
-85.53
 10
222.685
 20
-85.539
 10
222.424
 20
-85.545
 10
223.102
 20
-85.154
 10
223.754
 20
-85.53
  0
LWPOLYLINE
  5
192
330
17
100
AcDbEntity
  8
0
100
AcDbPolyline
 90
4
 70
1
 10
227.236
 20
-85.502
 10
226.013
 20
-85.512
 10
226.633
 20
-85.154
 10
227.236
 20
-85.502
  0
LWPOLYLINE
  5
193
330
17
100
AcDbEntity
  8
0
100
AcDbPolyline
 90
5
 70
1
 10
230.718
 20
-85.473
 10
229.669
 20
-85.482
 10
229.595
 20
-85.483
 10
230.164
 20
-85.154
 10
230.718
 20
-85.473
  0
LWPOLYLINE
  5
194
330
17
100
AcDbEntity
  8
0
100
AcDbPolyline
 90
4
 70
1
 10
234.199
 20
-85.445
 10
233.177
 20
-85.453
 10
233.695
 20
-85.154
 10
234.199
 20
-85.445
  0
LWPOLYLINE
  5
195
330
17
100
AcDbEntity
  8
0
100
AcDbPolyline
 90
4
 70
1
 10
237.681
 20
-85.416
 10
236.758
 20
-85.424
 10
237.226
 20
-85.154
 10
237.681
 20
-85.416
  0
LWPOLYLINE
  5
196
330
17
100
AcDbEntity
  8
0
100
AcDbPolyline
 90
4
 70
1
 10
241.163
 20
-85.388
 10
240.34
 20
-85.395
 10
240.757
 20
-85.154
 10
241.163
 20
-85.388
  0
LWPOLYLINE
  5
197
330
17
100
AcDbEntity
  8
0
100
AcDbPolyline
 90
6
 70
1
 10
239.684
 20
-88.034
 10
241.021
 20
-87.842
 10
242.273
 20
-87.711
 10
242.273
 20
-87.779
 10
240.757
 20
-88.654
 10
239.684
 20
-88.034
  0
LWPOLYLINE
  5
198
330
17
100
AcDbEntity
  8
0
100
AcDbPolyline
 90
4
 70
1
 10
244.645
 20
-85.359
 10
243.922
 20
-85.365
 10
244.288
 20
-85.154
 10
244.645
 20
-85.359
  0
LWPOLYLINE
  5
199
330
17
100
AcDbEntity
  8
0
100
AcDbPolyline
 90
7
 70
1
 10
242.773
 20
-87.671
 10
244.425
 20
-87.594
 10
245.804
 20
-87.6
 10
245.804
 20
-87.779
 10
244.288
 20
-88.654
 10
242.773
 20
-87.779
 10
242.773
 20
-87.671
  0
LWPOLYLINE
  5
19A
330
17
100
AcDbEntity
  8
0
100
AcDbPolyline
 90
7
 70
1
 10
246.304
 20
-87.62
 10
247.573
 20
-87.721
 10
248.027
 20
-87.777
 10
249.042
 20
-87.948
 10
247.82
 20
-88.654
 10
246.304
 20
-87.779
 10
246.304
 20
-87.62
  0
LWPOLYLINE
  5
19B
330
17
100
AcDbEntity
  8
0
100
AcDbPolyline
 90
11
 70
1
 10
168.539
 20
-85.498
 10
168.507
 20
-85.163
 10
168.547
 20
-84.845
 10
168.651
 20
-84.551
 10
168.816
 20
-84.289
 10
169.034
 20
-84.067
 10
169.299
 20
-83.893
 10
169.607
 20
-83.774
 10
169.886
 20
-83.724
 10
169.886
 20
-84.721
 10
168.539
 20
-85.498
  0
LWPOLYLINE
  5
19C
330
17
100
AcDbEntity
  8
0
100
AcDbPolyline
 90
10
 70
1
 10
170.386
 20
-83.651
 10
171.184
 20
-83.468
 10
171.87
 20
-83.242
 10
172.354
 20
-83.042
 10
172.986
 20
-82.722
 10
173.417
 20
-82.971
 10
173.417
 20
-84.721
 10
171.901
 20
-85.596
 10
170.386
 20
-84.721
 10
170.386
 20
-83.651
  0
INSERT
  5
19D
330
17
100
AcDbEntity
  8
0
100
AcDbBlockReference
  2
HEX
 10
175.432
 20
-83.846
 30
0.0
  0
INSERT
  5
19F
330
17
100
AcDbEntity
  8
0
100
AcDbBlockReference
  2
HEX
 10
178.963
 20
-83.846
 30
0.0
  0
INSERT
  5
1A1
330
17
100
AcDbEntity
  8
0
100
AcDbBlockReference
  2
HEX
 10
182.494
 20
-83.846
 30
0.0
  0
INSERT
  5
1A3
330
17
100
AcDbEntity
  8
0
100
AcDbBlockReference
  2
HEX
 10
186.026
 20
-83.846
 30
0.0
  0
LWPOLYLINE
  5
1A5
330
17
100
AcDbEntity
  8
0
100
AcDbPolyline
 90
8
 70
1
 10
189.449
 20
-83.729
 10
189.545
 20
-83.58
 10
189.698
 20
-83.47
 10
191.072
 20
-83.003
 10
191.072
 20
-84.721
 10
189.557
 20
-85.596
 10
188.846
 20
-85.186
 10
189.449
 20
-83.729
  0
LWPOLYLINE
  5
1A6
330
17
100
AcDbEntity
  8
0
100
AcDbPolyline
 90
6
 70
1
 10
190.234
 20
-82.487
 10
188.527
 20
-83.111
 10
188.041
 20
-84.306
 10
188.041
 20
-82.971
 10
189.557
 20
-82.096
 10
190.234
 20
-82.487
  0
LWPOLYLINE
  5
1A7
330
17
100
AcDbEntity
  8
0
100
AcDbPolyline
 90
8
 70
1
 10
192.049
 20
-82.704
 10
193.492
 20
-82.329
 10
194.603
 20
-82.971
 10
194.603
 20
-84.721
 10
193.088
 20
-85.596
 10
191.572
 20
-84.721
 10
191.572
 20
-82.971
 10
192.049
 20
-82.704
  0
INSERT
  5
1A8
330
17
100
AcDbEntity
  8
0
100
AcDbBlockReference
  2
HEX
 10
196.619
 20
-83.846
 30
0.0
  0
INSERT
  5
1AA
330
17
100
AcDbEntity
  8
0
100
AcDbBlockReference
  2
HEX
 10
200.15
 20
-83.846
 30
0.0
  0
INSERT
  5
1AC
330
17
100
AcDbEntity
  8
0
100
AcDbBlockReference
  2
HEX
 10
203.681
 20
-83.846
 30
0.0
  0
LWPOLYLINE
  5
1AE
330
17
100
AcDbEntity
  8
0
100
AcDbPolyline
 90
9
 70
1
 10
207.29
 20
-82.39
 10
208.185
 20
-82.657
 10
208.728
 20
-82.971
 10
208.728
 20
-84.721
 10
207.212
 20
-85.596
 10
205.697
 20
-84.721
 10
205.697
 20
-82.971
 10
206.885
 20
-82.285
 10
207.29
 20
-82.39
  0
LWPOLYLINE
  5
1AF
330
17
100
AcDbEntity
  8
0
100
AcDbPolyline
 90
10
 70
1
 10
209.228
 20
-83.015
 10
210.043
 20
-83.335
 10
210.897
 20
-83.713
 10
211.603
 20
-84.064
 10
212.157
 20
-84.369
 10
212.259
 20
-84.428
 10
212.259
 20
-84.721
 10
210.743
 20
-85.596
 10
209.228
 20
-84.721
 10
209.228
 20
-83.015
  0
LWPOLYLINE
  5
1B0
330
17
100
AcDbEntity
  8
0
100
AcDbPolyline
 90
7
 70
1
 10
211.919
 20
-83.311
 10
210.965
 20
-82.842
 10
210.098
 20
-82.468
 10
210.743
 20
-82.096
 10
212.259
 20
-82.971
 10
212.259
 20
-83.495
 10
211.919
 20
-83.311
  0
LWPOLYLINE
  5
1B1
330
17
100
AcDbEntity
  8
0
100
AcDbPolyline
 90
10
 70
1
 10
213.429
 20
-85.108
 10
213.654
 20
-84.373
 10
213.213
 20
-84.066
 10
212.759
 20
-83.783
 10
212.759
 20
-82.971
 10
214.274
 20
-82.096
 10
215.79
 20
-82.971
 10
215.79
 20
-84.721
 10
214.274
 20
-85.596
 10
213.429
 20
-85.108
  0
INSERT
  5
1B2
330
17
100
AcDbEntity
  8
0
100
AcDbBlockReference
  2
HEX
 10
217.805
 20
-83.846
 30
0.0
  0
INSERT
  5
1B4
330
17
100
AcDbEntity
  8
0
100
AcDbBlockReference
  2
HEX
 10
221.336
 20
-83.846
 30
0.0
  0
LWPOLYLINE
  5
1B6
330
17
100
AcDbEntity
  8
0
100
AcDbPolyline
 90
8
 70
1
 10
224.74
 20
-85.522
 10
223.352
 20
-84.721
 10
223.352
 20
-82.971
 10
224.868
 20
-82.096
 10
226.383
 20
-82.971
 10
226.383
 20
-84.721
 10
224.998
 20
-85.52
 10
224.74
 20
-85.522
  0
LWPOLYLINE
  5
1B7
330
17
100
AcDbEntity
  8
0
100
AcDbPolyline
 90
8
 70
1
 10
228.222
 20
-85.494
 10
226.883
 20
-84.721
 10
226.883
 20
-82.971
 10
228.399
 20
-82.096
 10
229.914
 20
-82.971
 10
229.914
 20
-84.721
 10
228.58
 20
-85.491
 10
228.222
 20
-85.494
  0
LWPOLYLINE
  5
1B8
330
17
100
AcDbEntity
  8
0
100
AcDbPolyline
 90
8
 70
1
 10
232.162
 20
-85.462
 10
231.704
 20
-85.465
 10
230.414
 20
-84.721
 10
230.414
 20
-82.971
 10
231.93
 20
-82.096
 10
233.445
 20
-82.971
 10
233.445
 20
-84.721
 10
232.162
 20
-85.462
  0
LWPOLYLINE
  5
1B9
330
17
100
AcDbEntity
  8
0
100
AcDbPolyline
 90
8
 70
1
 10
235.185
 20
-85.437
 10
233.945
 20
-84.721
 10
233.945
 20
-82.971
 10
235.461
 20
-82.096
 10
236.976
 20
-82.971
 10
236.976
 20
-84.721
 10
235.744
 20
-85.432
 10
235.185
 20
-85.437
  0
LWPOLYLINE
  5
1BA
330
17
100
AcDbEntity
  8
0
100
AcDbPolyline
 90
8
 70
1
 10
239.326
 20
-85.403
 10
238.667
 20
-85.408
 10
237.476
 20
-84.721
 10
237.476
 20
-82.971
 10
238.992
 20
-82.096
 10
240.507
 20
-82.971
 10
240.507
 20
-84.721
 10
239.326
 20
-85.403
  0
LWPOLYLINE
  5
1BB
330
17
100
AcDbEntity
  8
0
100
AcDbPolyline
 90
8
 70
1
 10
242.908
 20
-85.374
 10
242.149
 20
-85.38
 10
241.007
 20
-84.721
 10
241.007
 20
-82.971
 10
242.523
 20
-82.096
 10
244.038
 20
-82.971
 10
244.038
 20
-84.721
 10
242.908
 20
-85.374
  0
LWPOLYLINE
  5
1BC
330
17
100
AcDbEntity
  8
0
100
AcDbPolyline
 90
8
 70
1
 10
246.49
 20
-85.344
 10
245.631
 20
-85.351
 10
244.538
 20
-84.721
 10
244.538
 20
-82.971
 10
246.054
 20
-82.096
 10
247.57
 20
-82.971
 10
247.57
 20
-84.721
 10
246.49
 20
-85.344
  0
LWPOLYLINE
  5
1BD
330
17
100
AcDbEntity
  8
0
100
AcDbPolyline
 90
11
 70
1
 10
250.735
 20
-83.038
 10
250.016
 20
-83.355
 10
249.321
 20
-83.737
 10
248.987
 20
-83.954
 10
248.664
 20
-84.19
 10
248.353
 20
-84.446
 10
248.07
 20
-84.71
 10
248.07
 20
-82.971
 10
249.585
 20
-82.096
 10
251.028
 20
-82.929
 10
250.735
 20
-83.038
  0
LWPOLYLINE
  5
1BE
330
17
100
AcDbEntity
  8
0
100
AcDbPolyline
 90
5
 70
1
 10
253.498
 20
-82.316
 10
252.896
 20
-82.42
 10
252.347
 20
-82.54
 10
253.116
 20
-82.096
 10
253.498
 20
-82.316
  0
LWPOLYLINE
  5
1BF
330
17
100
AcDbEntity
  8
0
100
AcDbPolyline
 90
4
 70
1
 10
256.57
 20
-82.14
 10
256.647
 20
-82.096
 10
256.726
 20
-82.141
 10
256.57
 20
-82.14
  0
LWPOLYLINE
  5
1C0
330
17
100
AcDbEntity
  8
0
100
AcDbPolyline
 90
4
 70
1
 10
260.064
 20
-82.162
 10
260.178
 20
-82.096
 10
260.296
 20
-82.163
 10
260.064
 20
-82.162
  0
LWPOLYLINE
  5
1C1
330
17
100
AcDbEntity
  8
0
100
AcDbPolyline
 90
4
 70
1
 10
263.865
 20
-82.185
 10
263.557
 20
-82.184
 10
263.709
 20
-82.096
 10
263.865
 20
-82.185
  0
LWPOLYLINE
  5
1C2
330
17
100
AcDbEntity
  8
0
100
AcDbPolyline
 90
4
 70
1
 10
267.051
 20
-82.205
 10
267.241
 20
-82.096
 10
267.434
 20
-82.207
 10
267.051
 20
-82.205
  0
LWPOLYLINE
  5
1C3
330
17
100
AcDbEntity
  8
0
100
AcDbPolyline
 90
4
 70
1
 10
270.545
 20
-82.227
 10
270.772
 20
-82.096
 10
271.003
 20
-82.23
 10
270.545
 20
-82.227
  0
LWPOLYLINE
  5
1C4
330
17
100
AcDbEntity
  8
0
100
AcDbPolyline
 90
4
 70
1
 10
274.573
 20
-82.252
 10
274.039
 20
-82.248
 10
274.303
 20
-82.096
 10
274.573
 20
-82.252
  0
LWPOLYLINE
  5
1C5
330
17
100
AcDbEntity
  8
0
100
AcDbPolyline
 90
4
 70
1
 10
278.142
 20
-82.274
 10
277.532
 20
-82.27
 10
277.834
 20
-82.096
 10
278.142
 20
-82.274
  0
LWPOLYLINE
  5
1C6
330
17
100
AcDbEntity
  8
0
100
AcDbPolyline
 90
4
 70
1
 10
281.026
 20
-82.291
 10
281.365
 20
-82.096
 10
281.711
 20
-82.296
 10
281.026
 20
-82.291
  0
LWPOLYLINE
  5
1C7
330
17
100
AcDbEntity
  8
0
100
AcDbPolyline
 90
8
 70
1
 10
173.476
 20
-82.427
 10
174.13
 20
-81.958
 10
174.385
 20
-81.747
 10
174.89
 20
-81.277
 10
175.182
 20
-80.968
 10
175.182
 20
-81.663
 10
173.667
 20
-82.538
 10
173.476
 20
-82.427
  0
LWPOLYLINE
  5
1C8
330
17
100
AcDbEntity
  8
0
100
AcDbPolyline
 90
9
 70
1
 10
175.86
 20
-80.131
 10
176.212
 20
-79.607
 10
177.198
 20
-79.038
 10
178.713
 20
-79.913
 10
178.713
 20
-81.663
 10
177.198
 20
-82.538
 10
175.682
 20
-81.663
 10
175.682
 20
-80.368
 10
175.86
 20
-80.131
  0
INSERT
  5
1C9
330
17
100
AcDbEntity
  8
0
100
AcDbBlockReference
  2
HEX
 10
180.729
 20
-80.788
 30
0.0
  0
INSERT
  5
1CB
330
17
100
AcDbEntity
  8
0
100
AcDbBlockReference
  2
HEX
 10
184.26
 20
-80.788
 30
0.0
  0
INSERT
  5
1CD
330
17
100
AcDbEntity
  8
0
100
AcDbBlockReference
  2
HEX
 10
187.791
 20
-80.788
 30
0.0
  0
LWPOLYLINE
  5
1CF
330
17
100
AcDbEntity
  8
0
100
AcDbPolyline
 90
9
 70
1
 10
191.377
 20
-82.111
 10
190.871
 20
-82.277
 10
189.807
 20
-81.663
 10
189.807
 20
-79.913
 10
191.322
 20
-79.038
 10
192.838
 20
-79.913
 10
192.838
 20
-81.663
 10
192.725
 20
-81.728
 10
191.377
 20
-82.111
  0
LWPOLYLINE
  5
1D0
330
17
100
AcDbEntity
  8
0
100
AcDbPolyline
 90
5
 70
1
 10
194.205
 20
-82.163
 10
195.332
 20
-81.941
 10
196.099
 20
-81.818
 10
194.853
 20
-82.538
 10
194.205
 20
-82.163
  0
LWPOLYLINE
  5
1D1
330
17
100
AcDbEntity
  8
0
100
AcDbPolyline
 90
8
 70
1
 10
195.376
 20
-81.141
 10
194.081
 20
-81.399
 10
193.338
 20
-81.579
 10
193.338
 20
-79.913
 10
194.853
 20
-79.038
 10
196.369
 20
-79.913
 10
196.369
 20
-80.985
 10
195.376
 20
-81.141
  0
LWPOLYLINE
  5
1D2
330
17
100
AcDbEntity
  8
0
100
AcDbPolyline
 90
8
 70
1
 10
197.39
 20
-81.648
 10
198.378
 20
-81.558
 10
199.337
 20
-81.505
 10
199.9
 20
-81.492
 10
199.9
 20
-81.663
 10
198.384
 20
-82.538
 10
196.94
 20
-81.704
 10
197.39
 20
-81.648
  0
LWPOLYLINE
  5
1D3
330
17
100
AcDbEntity
  8
0
100
AcDbPolyline
 90
8
 70
1
 10
199.028
 20
-80.714
 10
197.85
 20
-80.802
 10
196.869
 20
-80.916
 10
196.869
 20
-79.913
 10
198.384
 20
-79.038
 10
199.9
 20
-79.913
 10
199.9
 20
-80.683
 10
199.028
 20
-80.714
  0
LWPOLYLINE
  5
1D4
330
17
100
AcDbEntity
  8
0
100
AcDbPolyline
 90
8
 70
1
 10
201.171
 20
-81.493
 10
202.044
 20
-81.531
 10
202.887
 20
-81.595
 10
203.431
 20
-81.663
 10
201.915
 20
-82.538
 10
200.4
 20
-81.663
 10
200.4
 20
-81.485
 10
201.171
 20
-81.493
  0
LWPOLYLINE
  5
1D5
330
17
100
AcDbEntity
  8
0
100
AcDbPolyline
 90
8
 70
1
 10
203.431
 20
-80.821
 10
202.314
 20
-80.725
 10
201.26
 20
-80.679
 10
200.4
 20
-80.675
 10
200.4
 20
-79.913
 10
201.915
 20
-79.038
 10
203.431
 20
-79.913
 10
203.431
 20
-80.821
  0
LWPOLYLINE
  5
1D6
330
17
100
AcDbEntity
  8
0
100
AcDbPolyline
 90
5
 70
1
 10
204.049
 20
-81.731
 10
205.232
 20
-81.918
 10
206.179
 20
-82.115
 10
205.447
 20
-82.538
 10
204.049
 20
-81.731
  0
LWPOLYLINE
  5
1D7
330
17
100
AcDbEntity
  8
0
100
AcDbPolyline
 90
8
 70
1
 10
206.962
 20
-81.443
 10
206.099
 20
-81.242
 10
205.219
 20
-81.071
 10
203.931
 20
-80.881
 10
203.931
 20
-79.913
 10
205.447
 20
-79.038
 10
206.962
 20
-79.913
 10
206.962
 20
-81.443
  0
LWPOLYLINE
  5
1D8
330
17
100
AcDbEntity
  8
0
100
AcDbPolyline
 90
8
 70
1
 10
209.501
 20
-82.236
 10
208.467
 20
-81.873
 10
207.462
 20
-81.577
 10
207.462
 20
-79.913
 10
208.978
 20
-79.038
 10
210.493
 20
-79.913
 10
210.493
 20
-81.663
 10
209.501
 20
-82.236
  0
INSERT
  5
1D9
330
17
100
AcDbEntity
  8
0
100
AcDbBlockReference
  2
HEX
 10
212.509
 20
-80.788
 30
0.0
  0
INSERT
  5
1DB
330
17
100
AcDbEntity
  8
0
100
AcDbBlockReference
  2
HEX
 10
216.04
 20
-80.788
 30
0.0
  0
INSERT
  5
1DD
330
17
100
AcDbEntity
  8
0
100
AcDbBlockReference
  2
HEX
 10
219.571
 20
-80.788
 30
0.0
  0
INSERT
  5
1DF
330
17
100
AcDbEntity
  8
0
100
AcDbBlockReference
  2
HEX
 10
223.102
 20
-80.788
 30
0.0
  0
INSERT
  5
1E1
330
17
100
AcDbEntity
  8
0
100
AcDbBlockReference
  2
HEX
 10
226.633
 20
-80.788
 30
0.0
  0
INSERT
  5
1E3
330
17
100
AcDbEntity
  8
0
100
AcDbBlockReference
  2
HEX
 10
230.164
 20
-80.788
 30
0.0
  0
INSERT
  5
1E5
330
17
100
AcDbEntity
  8
0
100
AcDbBlockReference
  2
HEX
 10
233.695
 20
-80.788
 30
0.0
  0
INSERT
  5
1E7
330
17
100
AcDbEntity
  8
0
100
AcDbBlockReference
  2
HEX
 10
237.226
 20
-80.788
 30
0.0
  0
INSERT
  5
1E9
330
17
100
AcDbEntity
  8
0
100
AcDbBlockReference
  2
HEX
 10
240.757
 20
-80.788
 30
0.0
  0
INSERT
  5
1EB
330
17
100
AcDbEntity
  8
0
100
AcDbBlockReference
  2
HEX
 10
244.288
 20
-80.788
 30
0.0
  0
INSERT
  5
1ED
330
17
100
AcDbEntity
  8
0
100
AcDbBlockReference
  2
HEX
 10
247.82
 20
-80.788
 30
0.0
  0
INSERT
  5
1EF
330
17
100
AcDbEntity
  8
0
100
AcDbBlockReference
  2
HEX
 10
251.351
 20
-80.788
 30
0.0
  0
LWPOLYLINE
  5
1F1
330
17
100
AcDbEntity
  8
0
100
AcDbPolyline
 90
9
 70
1
 10
255.58
 20
-82.135
 10
254.773
 20
-82.173
 10
254.319
 20
-82.213
 10
253.366
 20
-81.663
 10
253.366
 20
-79.913
 10
254.882
 20
-79.038
 10
256.397
 20
-79.913
 10
256.397
 20
-81.663
 10
255.58
 20
-82.135
  0
LWPOLYLINE
  5
1F2
330
17
100
AcDbEntity
  8
0
100
AcDbPolyline
 90
8
 70
1
 10
259.074
 20
-82.156
 10
257.737
 20
-82.148
 10
256.897
 20
-81.663
 10
256.897
 20
-79.913
 10
258.413
 20
-79.038
 10
259.928
 20
-79.913
 10
259.928
 20
-81.663
 10
259.074
 20
-82.156
  0
LWPOLYLINE
  5
1F3
330
17
100
AcDbEntity
  8
0
100
AcDbPolyline
 90
8
 70
1
 10
262.568
 20
-82.177
 10
261.306
 20
-82.17
 10
260.428
 20
-81.663
 10
260.428
 20
-79.913
 10
261.944
 20
-79.038
 10
263.459
 20
-79.913
 10
263.459
 20
-81.663
 10
262.568
 20
-82.177
  0
LWPOLYLINE
  5
1F4
330
17
100
AcDbEntity
  8
0
100
AcDbPolyline
 90
8
 70
1
 10
266.062
 20
-82.199
 10
264.876
 20
-82.192
 10
263.959
 20
-81.663
 10
263.959
 20
-79.913
 10
265.475
 20
-79.038
 10
266.991
 20
-79.913
 10
266.991
 20
-81.663
 10
266.062
 20
-82.199
  0
LWPOLYLINE
  5
1F5
330
17
100
AcDbEntity
  8
0
100
AcDbPolyline
 90
8
 70
1
 10
269.555
 20
-82.221
 10
268.445
 20
-82.214
 10
267.491
 20
-81.663
 10
267.491
 20
-79.913
 10
269.006
 20
-79.038
 10
270.522
 20
-79.913
 10
270.522
 20
-81.663
 10
269.555
 20
-82.221
  0
LWPOLYLINE
  5
1F6
330
17
100
AcDbEntity
  8
0
100
AcDbPolyline
 90
8
 70
1
 10
273.049
 20
-82.242
 10
272.014
 20
-82.236
 10
271.022
 20
-81.663
 10
271.022
 20
-79.913
 10
272.537
 20
-79.038
 10
274.053
 20
-79.913
 10
274.053
 20
-81.663
 10
273.049
 20
-82.242
  0
LWPOLYLINE
  5
1F7
330
17
100
AcDbEntity
  8
0
100
AcDbPolyline
 90
8
 70
1
 10
276.543
 20
-82.264
 10
275.583
 20
-82.258
 10
274.553
 20
-81.663
 10
274.553
 20
-79.913
 10
276.068
 20
-79.038
 10
277.584
 20
-79.913
 10
277.584
 20
-81.663
 10
276.543
 20
-82.264
  0
LWPOLYLINE
  5
1F8
330
17
100
AcDbEntity
  8
0
100
AcDbPolyline
 90
8
 70
1
 10
280.037
 20
-82.285
 10
279.153
 20
-82.28
 10
278.084
 20
-81.663
 10
278.084
 20
-79.913
 10
279.599
 20
-79.038
 10
281.115
 20
-79.913
 10
281.115
 20
-81.663
 10
280.037
 20
-82.285
  0
LWPOLYLINE
  5
1F9
330
17
100
AcDbEntity
  8
0
100
AcDbPolyline
 90
11
 70
1
 10
283.311
 20
-79.142
 10
283.311
 20
-81.589
 10
283.296
 20
-81.733
 10
283.224
 20
-81.929
 10
283.101
 20
-82.094
 10
282.905
 20
-82.232
 10
282.706
 20
-82.293
 10
281.615
 20
-81.663
 10
281.615
 20
-79.913
 10
283.13
 20
-79.038
 10
283.311
 20
-79.142
  0
LWPOLYLINE
  5
1FA
330
17
100
AcDbEntity
  8
0
100
AcDbPolyline
 90
5
 70
1
 10
176.707
 20
-78.744
 10
176.943
 20
-78.265
 10
176.948
 20
-78.253
 10
176.948
 20
-78.605
 10
176.707
 20
-78.744
  0
LWPOLYLINE
  5
1FB
330
17
100
AcDbEntity
  8
0
100
AcDbPolyline
 90
6
 70
1
 10
177.448
 20
-77.825
 10
180.479
 20
-77.822
 10
180.479
 20
-78.605
 10
178.963
 20
-79.48
 10
177.448
 20
-78.605
 10
177.448
 20
-77.825
  0
LWPOLYLINE
  5
1FC
330
17
100
AcDbEntity
  8
0
100
AcDbPolyline
 90
6
 70
1
 10
184.01
 20
-77.819
 10
184.01
 20
-78.605
 10
182.494
 20
-79.48
 10
180.979
 20
-78.605
 10
180.979
 20
-77.822
 10
184.01
 20
-77.819
  0
LWPOLYLINE
  5
1FD
330
17
100
AcDbEntity
  8
0
100
AcDbPolyline
 90
6
 70
1
 10
184.51
 20
-77.819
 10
187.541
 20
-77.816
 10
187.541
 20
-78.605
 10
186.026
 20
-79.48
 10
184.51
 20
-78.605
 10
184.51
 20
-77.819
  0
LWPOLYLINE
  5
1FE
330
17
100
AcDbEntity
  8
0
100
AcDbPolyline
 90
6
 70
1
 10
188.041
 20
-77.815
 10
191.072
 20
-77.813
 10
191.072
 20
-78.605
 10
189.557
 20
-79.48
 10
188.041
 20
-78.605
 10
188.041
 20
-77.815
  0
LWPOLYLINE
  5
1FF
330
17
100
AcDbEntity
  8
0
100
AcDbPolyline
 90
6
 70
1
 10
191.572
 20
-77.812
 10
194.603
 20
-77.809
 10
194.603
 20
-78.605
 10
193.088
 20
-79.48
 10
191.572
 20
-78.605
 10
191.572
 20
-77.812
  0
LWPOLYLINE
  5
200
330
17
100
AcDbEntity
  8
0
100
AcDbPolyline
 90
6
 70
1
 10
195.103
 20
-77.809
 10
198.134
 20
-77.806
 10
198.134
 20
-78.605
 10
196.619
 20
-79.48
 10
195.103
 20
-78.605
 10
195.103
 20
-77.809
  0
LWPOLYLINE
  5
201
330
17
100
AcDbEntity
  8
0
100
AcDbPolyline
 90
6
 70
1
 10
198.634
 20
-77.806
 10
201.665
 20
-77.803
 10
201.665
 20
-78.605
 10
200.15
 20
-79.48
 10
198.634
 20
-78.605
 10
198.634
 20
-77.806
  0
LWPOLYLINE
  5
202
330
17
100
AcDbEntity
  8
0
100
AcDbPolyline
 90
6
 70
1
 10
202.165
 20
-77.802
 10
205.197
 20
-77.8
 10
205.197
 20
-78.605
 10
203.681
 20
-79.48
 10
202.165
 20
-78.605
 10
202.165
 20
-77.802
  0
LWPOLYLINE
  5
203
330
17
100
AcDbEntity
  8
0
100
AcDbPolyline
 90
6
 70
1
 10
205.697
 20
-77.799
 10
208.728
 20
-77.796
 10
208.728
 20
-78.605
 10
207.212
 20
-79.48
 10
205.697
 20
-78.605
 10
205.697
 20
-77.799
  0
LWPOLYLINE
  5
204
330
17
100
AcDbEntity
  8
0
100
AcDbPolyline
 90
6
 70
1
 10
209.228
 20
-77.796
 10
212.259
 20
-77.793
 10
212.259
 20
-78.605
 10
210.743
 20
-79.48
 10
209.228
 20
-78.605
 10
209.228
 20
-77.796
  0
LWPOLYLINE
  5
205
330
17
100
AcDbEntity
  8
0
100
AcDbPolyline
 90
6
 70
1
 10
212.759
 20
-77.793
 10
215.79
 20
-77.79
 10
215.79
 20
-78.605
 10
214.274
 20
-79.48
 10
212.759
 20
-78.605
 10
212.759
 20
-77.793
  0
LWPOLYLINE
  5
206
330
17
100
AcDbEntity
  8
0
100
AcDbPolyline
 90
6
 70
1
 10
216.29
 20
-77.789
 10
219.321
 20
-77.787
 10
219.321
 20
-78.605
 10
217.805
 20
-79.48
 10
216.29
 20
-78.605
 10
216.29
 20
-77.789
  0
LWPOLYLINE
  5
207
330
17
100
AcDbEntity
  8
0
100
AcDbPolyline
 90
6
 70
1
 10
219.821
 20
-77.786
 10
222.852
 20
-77.783
 10
222.852
 20
-78.605
 10
221.336
 20
-79.48
 10
219.821
 20
-78.605
 10
219.821
 20
-77.786
  0
LWPOLYLINE
  5
208
330
17
100
AcDbEntity
  8
0
100
AcDbPolyline
 90
6
 70
1
 10
223.352
 20
-77.783
 10
226.383
 20
-77.78
 10
226.383
 20
-78.605
 10
224.868
 20
-79.48
 10
223.352
 20
-78.605
 10
223.352
 20
-77.783
  0
LWPOLYLINE
  5
209
330
17
100
AcDbEntity
  8
0
100
AcDbPolyline
 90
6
 70
1
 10
226.883
 20
-77.78
 10
229.914
 20
-77.777
 10
229.914
 20
-78.605
 10
228.399
 20
-79.48
 10
226.883
 20
-78.605
 10
226.883
 20
-77.78
  0
LWPOLYLINE
  5
20A
330
17
100
AcDbEntity
  8
0
100
AcDbPolyline
 90
6
 70
1
 10
233.445
 20
-77.774
 10
233.445
 20
-78.605
 10
231.93
 20
-79.48
 10
230.414
 20
-78.605
 10
230.414
 20
-77.776
 10
233.445
 20
-77.774
  0
LWPOLYLINE
  5
20B
330
17
100
AcDbEntity
  8
0
100
AcDbPolyline
 90
6
 70
1
 10
233.945
 20
-77.773
 10
236.976
 20
-77.77
 10
236.976
 20
-78.605
 10
235.461
 20
-79.48
 10
233.945
 20
-78.605
 10
233.945
 20
-77.773
  0
LWPOLYLINE
  5
20C
330
17
100
AcDbEntity
  8
0
100
AcDbPolyline
 90
6
 70
1
 10
237.476
 20
-77.77
 10
240.507
 20
-77.767
 10
240.507
 20
-78.605
 10
238.992
 20
-79.48
 10
237.476
 20
-78.605
 10
237.476
 20
-77.77
  0
LWPOLYLINE
  5
20D
330
17
100
AcDbEntity
  8
0
100
AcDbPolyline
 90
6
 70
1
 10
241.007
 20
-77.767
 10
244.038
 20
-77.764
 10
244.038
 20
-78.605
 10
242.523
 20
-79.48
 10
241.007
 20
-78.605
 10
241.007
 20
-77.767
  0
LWPOLYLINE
  5
20E
330
17
100
AcDbEntity
  8
0
100
AcDbPolyline
 90
6
 70
1
 10
244.538
 20
-77.763
 10
247.57
 20
-77.761
 10
247.57
 20
-78.605
 10
246.054
 20
-79.48
 10
244.538
 20
-78.605
 10
244.538
 20
-77.763
  0
LWPOLYLINE
  5
20F
330
17
100
AcDbEntity
  8
0
100
AcDbPolyline
 90
6
 70
1
 10
248.07
 20
-77.76
 10
251.101
 20
-77.757
 10
251.101
 20
-78.605
 10
249.585
 20
-79.48
 10
248.07
 20
-78.605
 10
248.07
 20
-77.76
  0
LWPOLYLINE
  5
210
330
17
100
AcDbEntity
  8
0
100
AcDbPolyline
 90
6
 70
1
 10
251.601
 20
-77.757
 10
254.632
 20
-77.754
 10
254.632
 20
-78.605
 10
253.116
 20
-79.48
 10
251.601
 20
-78.605
 10
251.601
 20
-77.757
  0
LWPOLYLINE
  5
211
330
17
100
AcDbEntity
  8
0
100
AcDbPolyline
 90
6
 70
1
 10
255.132
 20
-77.754
 10
258.163
 20
-77.751
 10
258.163
 20
-78.605
 10
256.647
 20
-79.48
 10
255.132
 20
-78.605
 10
255.132
 20
-77.754
  0
LWPOLYLINE
  5
212
330
17
100
AcDbEntity
  8
0
100
AcDbPolyline
 90
6
 70
1
 10
258.663
 20
-77.75
 10
261.694
 20
-77.748
 10
261.694
 20
-78.605
 10
260.178
 20
-79.48
 10
258.663
 20
-78.605
 10
258.663
 20
-77.75
  0
LWPOLYLINE
  5
213
330
17
100
AcDbEntity
  8
0
100
AcDbPolyline
 90
6
 70
1
 10
262.194
 20
-77.747
 10
265.225
 20
-77.744
 10
265.225
 20
-78.605
 10
263.709
 20
-79.48
 10
262.194
 20
-78.605
 10
262.194
 20
-77.747
  0
LWPOLYLINE
  5
214
330
17
100
AcDbEntity
  8
0
100
AcDbPolyline
 90
6
 70
1
 10
265.725
 20
-77.744
 10
268.756
 20
-77.741
 10
268.756
 20
-78.605
 10
267.241
 20
-79.48
 10
265.725
 20
-78.605
 10
265.725
 20
-77.744
  0
LWPOLYLINE
  5
215
330
17
100
AcDbEntity
  8
0
100
AcDbPolyline
 90
6
 70
1
 10
269.256
 20
-77.741
 10
272.287
 20
-77.738
 10
272.287
 20
-78.605
 10
270.772
 20
-79.48
 10
269.256
 20
-78.605
 10
269.256
 20
-77.741
  0
LWPOLYLINE
  5
216
330
17
100
AcDbEntity
  8
0
100
AcDbPolyline
 90
6
 70
1
 10
272.787
 20
-77.737
 10
275.818
 20
-77.735
 10
275.818
 20
-78.605
 10
274.303
 20
-79.48
 10
272.787
 20
-78.605
 10
272.787
 20
-77.737
  0
LWPOLYLINE
  5
217
330
17
100
AcDbEntity
  8
0
100
AcDbPolyline
 90
6
 70
1
 10
276.318
 20
-77.734
 10
279.349
 20
-77.731
 10
279.349
 20
-78.605
 10
277.834
 20
-79.48
 10
276.318
 20
-78.605
 10
276.318
 20
-77.734
  0
LWPOLYLINE
  5
218
330
17
100
AcDbEntity
  8
0
100
AcDbPolyline
 90
6
 70
1
 10
279.849
 20
-77.731
 10
282.88
 20
-77.728
 10
282.88
 20
-78.605
 10
281.365
 20
-79.48
 10
279.849
 20
-78.605
 10
279.849
 20
-77.731
  0
ENDSEC
  0
SECTION
  2
OBJECTS
  0
DICTIONARY
  5
A
330
0
100
AcDbDictionary
281
1
  3
ACAD_COLOR
350
B
  3
ACAD_GROUP
350
C
  3
ACAD_LAYOUT
350
D
  3
ACAD_MATERIAL
350
E
  3
ACAD_MLEADERSTYLE
350
F
  3
ACAD_MLINESTYLE
350
10
  3
ACAD_PLOTSETTINGS
350
11
  3
ACAD_PLOTSTYLENAME
350
12
  3
ACAD_SCALELIST
350
14
  3
ACAD_TABLESTYLE
350
15
  3
ACAD_VISUALSTYLE
350
16
  3
EZDXF_META
350
2D
  0
DICTIONARY
  5
B
330
A
100
AcDbDictionary
281
1
  0
DICTIONARY
  5
C
330
A
100
AcDbDictionary
281
1
  0
DICTIONARY
  5
D
330
A
100
AcDbDictionary
281
1
  3
Model
350
1A
  3
Layout1
350
1E
  0
DICTIONARY
  5
E
330
A
100
AcDbDictionary
281
1
  3
ByBlock
350
1F
  3
ByLayer
350
20
  3
Global
350
21
  0
DICTIONARY
  5
F
330
A
100
AcDbDictionary
281
1
  3
Standard
350
2C
  0
DICTIONARY
  5
10
330
A
100
AcDbDictionary
281
1
  3
Standard
350
22
  0
DICTIONARY
  5
11
330
A
100
AcDbDictionary
281
1
  0
ACDBDICTIONARYWDFLT
  5
12
330
A
100
AcDbDictionary
281
1
  3
Normal
350
13
100
AcDbDictionaryWithDefault
340
13
  0
ACDBPLACEHOLDER
  5
13
330
12
  0
DICTIONARY
  5
14
330
A
100
AcDbDictionary
281
1
  0
DICTIONARY
  5
15
330
A
100
AcDbDictionary
281
1
  0
DICTIONARY
  5
16
330
A
100
AcDbDictionary
281
1
  0
LAYOUT
  5
1A
330
D
100
AcDbPlotSettings
  1

  4
A3
  6

 40
7.5
 41
20.0
 42
7.5
 43
20.0
 44
420.0
 45
297.0
 46
0.0
 47
0.0
 48
0.0
 49
0.0
140
0.0
141
0.0
142
1.0
143
1.0
 70
1024
 72
1
 73
0
 74
5
  7

 75
16
 76
0
 77
2
 78
300
147
1.0
148
0.0
149
0.0
100
AcDbLayout
  1
Model
 70
1
 71
0
 10
0.0
 20
0.0
 11
420.0
 21
297.0
 12
0.0
 22
0.0
 32
0.0
 14
1e+20
 24
1e+20
 34
1e+20
 15
-1e+20
 25
-1e+20
 35
-1e+20
146
0.0
 13
0.0
 23
0.0
 33
0.0
 16
1.0
 26
0.0
 36
0.0
 17
0.0
 27
1.0
 37
0.0
 76
1
330
17
  0
LAYOUT
  5
1E
330
D
100
AcDbPlotSettings
  1

  4
A3
  6

 40
7.5
 41
20.0
 42
7.5
 43
20.0
 44
420.0
 45
297.0
 46
0.0
 47
0.0
 48
0.0
 49
0.0
140
0.0
141
0.0
142
1.0
143
1.0
 70
0
 72
1
 73
0
 74
5
  7

 75
16
 76
0
 77
2
 78
300
147
1.0
148
0.0
149
0.0
100
AcDbLayout
  1
Layout1
 70
1
 71
1
 10
0.0
 20
0.0
 11
420.0
 21
297.0
 12
0.0
 22
0.0
 32
0.0
 14
1e+20
 24
1e+20
 34
1e+20
 15
-1e+20
 25
-1e+20
 35
-1e+20
146
0.0
 13
0.0
 23
0.0
 33
0.0
 16
1.0
 26
0.0
 36
0.0
 17
0.0
 27
1.0
 37
0.0
 76
1
330
1B
  0
MATERIAL
  5
1F
102
{ACAD_REACTORS
330
E
102
}
330
E
100
AcDbMaterial
  1
ByBlock
  2

 70
0
 40
1.0
 71
1
 41
1.0
 91
-1023410177
 42
1.0
 72
1
  3

 73
1
 74
1
 75
1
 44
0.5
 73
0
 45
1.0
 46
1.0
 77
1
  4

 78
1
 79
1
170
1
 48
1.0
171
1
  6

172
1
173
1
174
1
140
1.0
141
1.0
175
1
  7

176
1
177
1
178
1
143
1.0
179
1
  8

270
1
271
1
272
1
145
1.0
146
1.0
273
1
  9

274
1
275
1
276
1
 42
1.0
 72
1
  3

 73
1
 74
1
 75
1
 94
63
  0
MATERIAL
  5
20
102
{ACAD_REACTORS
330
E
102
}
330
E
100
AcDbMaterial
  1
ByLayer
  2

 70
0
 40
1.0
 71
1
 41
1.0
 91
-1023410177
 42
1.0
 72
1
  3

 73
1
 74
1
 75
1
 44
0.5
 73
0
 45
1.0
 46
1.0
 77
1
  4

 78
1
 79
1
170
1
 48
1.0
171
1
  6

172
1
173
1
174
1
140
1.0
141
1.0
175
1
  7

176
1
177
1
178
1
143
1.0
179
1
  8

270
1
271
1
272
1
145
1.0
146
1.0
273
1
  9

274
1
275
1
276
1
 42
1.0
 72
1
  3

 73
1
 74
1
 75
1
 94
63
  0
MATERIAL
  5
21
102
{ACAD_REACTORS
330
E
102
}
330
E
100
AcDbMaterial
  1
Global
  2

 70
0
 40
1.0
 71
1
 41
1.0
 91
-1023410177
 42
1.0
 72
1
  3

 73
1
 74
1
 75
1
 44
0.5
 73
0
 45
1.0
 46
1.0
 77
1
  4

 78
1
 79
1
170
1
 48
1.0
171
1
  6

172
1
173
1
174
1
140
1.0
141
1.0
175
1
  7

176
1
177
1
178
1
143
1.0
179
1
  8

270
1
271
1
272
1
145
1.0
146
1.0
273
1
  9

274
1
275
1
276
1
 42
1.0
 72
1
  3

 73
1
 74
1
 75
1
 94
63
  0
MLINESTYLE
  5
22
102
{ACAD_REACTORS
330
10
102
}
330
10
100
AcDbMlineStyle
  2
Standard
 70
0
  3

 62
256
 51
90.0
 52
90.0
 71
2
 49
0.5
 62
256
  6
BYLAYER
 49
-0.5
 62
256
  6
BYLAYER
  0
MLEADERSTYLE
  5
2C
102
{ACAD_REACTORS
330
F
102
}
330
F
100
AcDbMLeaderStyle
179
2
170
2
171
1
172
0
 90
2
 40
0.0
 41
0.0
173
1
 91
-1056964608
 92
-2
290
1
 42
2.0
291
1
 43
8.0
  3
Standard
 44
4.0
300

342
29
174
1
175
1
176
0
178
1
 93
-1056964608
 45
4.0
292
0
297
0
 46
4.0
 94
-1056964608
 47
1.0
 49
1.0
140
1.0
294
1
141
0.0
177
0
142
1.0
295
0
296
0
143
3.75
271
0
272
9
273
9
  0
DICTIONARY
  5
2D
330
A
100
AcDbDictionary
280
1
281
1
  3
CREATED_BY_EZDXF
350
2E
  3
WRITTEN_BY_EZDXF
350
21B
  0
DICTIONARYVAR
  5
2E
330
2D
100
DictionaryVariables
280
0
  1
1.4.3 @ 2026-04-09T21:37:19.120182+00:00
  0
DICTIONARYVAR
  5
21B
330
2D
100
DictionaryVariables
280
0
  1
1.4.3 @ 2026-04-09T21:37:19.141520+00:00
  0
ENDSEC
  0
EOF
