999
Dxf file generated by netDxf http://netdxf.codeplex.com, Copyright(C) 2015 Daniel Carvajal, Licensed under LGPL
0
SECTION
2
HEADER
9
$ACADVER
1
AC1015
9
$DWGCODEPAGE
3
ANSI_1252
9
$HANDSEED
5
7C
9
$ANGBASE
50
0.0
9
$ANGDIR
70
0
9
$ATTMODE
70
1
9
$AUNITS
70
0
9
$AUPREC
70
0
9
$CECOLOR
62
256
9
$CELTSCALE
40
1.0
9
$CELTYPE
6
ByLayer
9
$CELWEIGHT
370
-1
9
$CLAYER
8
0
9
$CMLJUST
70
0
9
$CMLSCALE
40
20.0
9
$CMLSTYLE
2
Standard
9
$DIMSTYLE
2
Standard
9
$TEXTSIZE
40
2.5
9
$TEXTSTYLE
7
Standard
9
$LUNITS
70
2
9
$LUPREC
70
4
9
$EXTNAMES
290
1
9
$INSBASE
10
0.0
20
0.0
30
0.0
9
$INSUNITS
70
0
9
$LTSCALE
40
1.0
9
$LWDISPLAY
290
0
9
$PDMODE
70
0
9
$PDSIZE
40
0.0
9
$PLINEGEN
70
0
9
$TDCREATE
40
2461131.71203426
9
$TDUCREATE
40
2461132.00370093
9
$TDUPDATE
40
2461131.71203426
9
$TDUUPDATE
40
2461132.00370093
9
$TDINDWG
40
0.0
0
ENDSEC
0
SECTION
2
CLASSES
0
CLASS
1
RASTERVARIABLES
2
AcDbRasterVariables
3
ISM
90
0
280
0
281
0
0
ENDSEC
0
SECTION
2
TABLES
0
TABLE
2
APPID
5
3
330
0
100
AcDbSymbolTable
70
2
0
APPID
5
14
330
3
100
AcDbSymbolTableRecord
100
AcDbRegAppTableRecord
2
ACAD
70
0
0
APPID
5
76
330
3
100
AcDbSymbolTableRecord
100
AcDbRegAppTableRecord
2
AcCmTransparency
70
0
0
ENDTAB
0
TABLE
2
VPORT
5
1
330
0
100
AcDbSymbolTable
70
1
0
VPORT
5
E
330
1
100
AcDbSymbolTableRecord
100
AcDbViewportTableRecord
2
*Active
70
0
10
0.0
20
0.0
11
1.0
21
1.0
12
-1.0
22
1.0
13
0.0
23
0.0
14
0.5
24
0.5
15
10.0
25
10.0
16
0.0
26
0.0
36
1.0
17
0.0
27
0.0
37
0.0
0
ENDTAB
0
TABLE
2
LTYPE
5
5
330
0
100
AcDbSymbolTable
70
3
0
LTYPE
5
10
330
5
100
AcDbSymbolTableRecord
100
AcDbLinetypeTableRecord
70
0
2
Continuous
3
Solid line
72
65
73
0
40
0.0
0
LTYPE
5
11
330
5
100
AcDbSymbolTableRecord
100
AcDbLinetypeTableRecord
70
0
2
ByLayer
3

72
65
73
0
40
0.0
0
LTYPE
5
12
330
5
100
AcDbSymbolTableRecord
100
AcDbLinetypeTableRecord
70
0
2
ByBlock
3

72
65
73
0
40
0.0
0
ENDTAB
0
TABLE
2
LAYER
5
4
330
0
100
AcDbSymbolTable
70
3
0
LAYER
5
F
330
4
100
AcDbSymbolTableRecord
100
AcDbLayerTableRecord
2
0
70
0
62
7
6
Continuous
290
1
370
-3
390
0
0
LAYER
5
1D
330
4
100
AcDbSymbolTableRecord
100
AcDbLayerTableRecord
2
Vector_Red
70
0
62
1
6
Continuous
290
1
370
-3
390
0
0
LAYER
5
1E
330
4
100
AcDbSymbolTableRecord
100
AcDbLayerTableRecord
2
Add_Red
70
0
62
1
6
Continuous
290
1
370
-3
390
0
0
ENDTAB
0
TABLE
2
STYLE
5
6
330
0
100
AcDbSymbolTable
70
1
0
STYLE
5
13
330
6
100
AcDbSymbolTableRecord
100
AcDbTextStyleTableRecord
2
Standard
3
simplex.shx
70
0
71
0
40
0.0
41
1.0
42
0.0
50
0.0
0
ENDTAB
0
TABLE
2
DIMSTYLE
5
7
330
0
100
AcDbSymbolTable
70
1
100
AcDbDimStyleTable
0
DIMSTYLE
105
15
330
7
100
AcDbSymbolTableRecord
100
AcDbDimStyleTableRecord
2
Standard
70
0
3
<>
40
1.0
41
0.18
42
0.0625
43
0.38
44
0.18
46
0.0
73
0
74
0
75
0
76
0
77
1
140
0.18
141
0.09
147
0.09
173
0
176
0
177
0
178
0
179
0
271
2
275
0
278
46
280
0
340
13
345
12
346
12
347
12
371
-2
372
-2
0
ENDTAB
0
TABLE
2
VIEW
5
2
330
0
100
AcDbSymbolTable
70
0
0
ENDTAB
0
TABLE
2
UCS
5
9
330
0
100
AcDbSymbolTable
70
0
0
ENDTAB
0
TABLE
2
BLOCK_RECORD
5
A
330
0
100
AcDbSymbolTable
70
2
0
BLOCK_RECORD
5
17
330
A
100
AcDbSymbolTableRecord
100
AcDbBlockTableRecord
2
*Model_Space
340
1B
0
BLOCK_RECORD
5
70
330
A
100
AcDbSymbolTableRecord
100
AcDbBlockTableRecord
2
*Paper_Space
340
75
0
ENDTAB
0
ENDSEC
0
SECTION
2
BLOCKS
0
BLOCK
5
19
330
17
100
AcDbEntity
8
0
100
AcDbBlockBegin
2
*Model_Space
70
0
10
0.0
20
0.0
30
0.0
3
*Model_Space
0
ENDBLK
5
18
330
17
100
AcDbEntity
8
0
100
AcDbBlockEnd
0
BLOCK
5
72
330
70
100
AcDbEntity
8
0
100
AcDbBlockBegin
2
*Paper_Space
70
0
10
0.0
20
0.0
30
0.0
3
*Paper_Space
0
ENDBLK
5
71
330
70
100
AcDbEntity
8
0
100
AcDbBlockEnd
0
ENDSEC
0
SECTION
2
ENTITIES
0
LWPOLYLINE
5
1F
330
17
100
AcDbEntity
67
0
8
Vector_Red
62
256
6
ByLayer
370
-1
48
1.0
60
0
100
AcDbPolyline
90
5
70
0
38
0.0
39
0.0
10
-7.0
20
32.5
40
0.0
41
0.0
42
0.0
10
7.0
20
32.5
40
0.0
41
0.0
42
0.0
10
7.0
20
-32.5
40
0.0
41
0.0
42
0.0
10
-7.0
20
-32.5
40
0.0
41
0.0
42
0.0
10
-7.0
20
32.5
40
0.0
41
0.0
42
0.0
210
0.0
220
0.0
230
1.0
0
LWPOLYLINE
5
20
330
17
100
AcDbEntity
67
0
8
Add_Red
62
256
6
ByLayer
370
-1
48
1.0
60
0
100
AcDbPolyline
90
5
70
0
38
0.0
39
0.0
10
-5.538904
20
32.289733
40
0.0
41
0.0
42
0.0
10
-5.538904
20
32.490001
40
0.0
41
0.0
42
0.0
10
-6.99
20
32.490001
40
0.0
41
0.0
42
0.0
10
-6.99
20
31.451943
40
0.0
41
0.0
42
0.0
10
-5.538904
20
32.289733
40
0.0
41
0.0
42
0.0
210
0.0
220
0.0
230
1.0
0
LWPOLYLINE
5
21
330
17
100
AcDbEntity
67
0
8
Add_Red
62
256
6
ByLayer
370
-1
48
1.0
60
0
100
AcDbPolyline
90
6
70
0
38
0.0
39
0.0
10
-1.507816
20
32.289733
40
0.0
41
0.0
42
0.0
10
-1.507816
20
32.490001
40
0.0
41
0.0
42
0.0
10
-4.538905
20
32.490001
40
0.0
41
0.0
42
0.0
10
-4.538905
20
32.289733
40
0.0
41
0.0
42
0.0
10
-3.02336
20
31.414733
40
0.0
41
0.0
42
0.0
10
-1.507816
20
32.289733
40
0.0
41
0.0
42
0.0
210
0.0
220
0.0
230
1.0
0
LWPOLYLINE
5
22
330
17
100
AcDbEntity
67
0
8
Add_Red
62
256
6
ByLayer
370
-1
48
1.0
60
0
100
AcDbPolyline
90
6
70
0
38
0.0
39
0.0
10
2.523272
20
32.289733
40
0.0
41
0.0
42
0.0
10
2.523272
20
32.49
40
0.0
41
0.0
42
0.0
10
-0.507816
20
32.490001
40
0.0
41
0.0
42
0.0
10
-0.507816
20
32.289733
40
0.0
41
0.0
42
0.0
10
1.007728
20
31.414733
40
0.0
41
0.0
42
0.0
10
2.523272
20
32.289733
40
0.0
41
0.0
42
0.0
210
0.0
220
0.0
230
1.0
0
LWPOLYLINE
5
23
330
17
100
AcDbEntity
67
0
8
Add_Red
62
256
6
ByLayer
370
-1
48
1.0
60
0
100
AcDbPolyline
90
6
70
0
38
0.0
39
0.0
10
6.554361
20
32.289733
40
0.0
41
0.0
42
0.0
10
6.554361
20
32.49
40
0.0
41
0.0
42
0.0
10
3.523272
20
32.49
40
0.0
41
0.0
42
0.0
10
3.523272
20
32.289733
40
0.0
41
0.0
42
0.0
10
5.038817
20
31.414733
40
0.0
41
0.0
42
0.0
10
6.554361
20
32.289733
40
0.0
41
0.0
42
0.0
210
0.0
220
0.0
230
1.0
0
LWPOLYLINE
5
24
330
17
100
AcDbEntity
67
0
8
Add_Red
62
256
6
ByLayer
370
-1
48
1.0
60
0
100
AcDbPolyline
90
7
70
0
38
0.0
39
0.0
10
4.538818
20
28.798708
40
0.0
41
0.0
42
0.0
10
4.538818
20
30.548707
40
0.0
41
0.0
42
0.0
10
3.023273
20
31.423707
40
0.0
41
0.0
42
0.0
10
1.507729
20
30.548707
40
0.0
41
0.0
42
0.0
10
1.507729
20
28.798708
40
0.0
41
0.0
42
0.0
10
3.023273
20
27.923708
40
0.0
41
0.0
42
0.0
10
4.538818
20
28.798708
40
0.0
41
0.0
42
0.0
210
0.0
220
0.0
230
1.0
0
LWPOLYLINE
5
25
330
17
100
AcDbEntity
67
0
8
Add_Red
62
256
6
ByLayer
370
-1
48
1.0
60
0
100
AcDbPolyline
90
7
70
0
38
0.0
39
0.0
10
0.507729
20
28.798708
40
0.0
41
0.0
42
0.0
10
0.507729
20
30.548707
40
0.0
41
0.0
42
0.0
10
-1.007815
20
31.423707
40
0.0
41
0.0
42
0.0
10
-2.523359
20
30.548707
40
0.0
41
0.0
42
0.0
10
-2.523359
20
28.798708
40
0.0
41
0.0
42
0.0
10
-1.007815
20
27.923708
40
0.0
41
0.0
42
0.0
10
0.507729
20
28.798708
40
0.0
41
0.0
42
0.0
210
0.0
220
0.0
230
1.0
0
LWPOLYLINE
5
26
330
17
100
AcDbEntity
67
0
8
Add_Red
62
256
6
ByLayer
370
-1
48
1.0
60
0
100
AcDbPolyline
90
7
70
0
38
0.0
39
0.0
10
-3.523359
20
28.798708
40
0.0
41
0.0
42
0.0
10
-3.523359
20
30.548707
40
0.0
41
0.0
42
0.0
10
-5.038904
20
31.423707
40
0.0
41
0.0
42
0.0
10
-6.554448
20
30.548707
40
0.0
41
0.0
42
0.0
10
-6.554448
20
28.798708
40
0.0
41
0.0
42
0.0
10
-5.038904
20
27.923708
40
0.0
41
0.0
42
0.0
10
-3.523359
20
28.798708
40
0.0
41
0.0
42
0.0
210
0.0
220
0.0
230
1.0
0
LWPOLYLINE
5
27
330
17
100
AcDbEntity
67
0
8
Add_Red
62
256
6
ByLayer
370
-1
48
1.0
60
0
100
AcDbPolyline
90
5
70
0
38
0.0
39
0.0
10
6.989999
20
31.386547
40
0.0
41
0.0
42
0.0
10
5.538818
20
30.548707
40
0.0
41
0.0
42
0.0
10
5.538818
20
28.798708
40
0.0
41
0.0
42
0.0
10
6.989999
20
27.960868
40
0.0
41
0.0
42
0.0
10
6.989999
20
31.386547
40
0.0
41
0.0
42
0.0
210
0.0
220
0.0
230
1.0
0
LWPOLYLINE
5
28
330
17
100
AcDbEntity
67
0
8
Add_Red
62
256
6
ByLayer
370
-1
48
1.0
60
0
100
AcDbPolyline
90
7
70
0
38
0.0
39
0.0
10
6.55437
20
25.307683
40
0.0
41
0.0
42
0.0
10
6.55437
20
27.057683
40
0.0
41
0.0
42
0.0
10
5.038826
20
27.932683
40
0.0
41
0.0
42
0.0
10
3.523281
20
27.057683
40
0.0
41
0.0
42
0.0
10
3.523281
20
25.307683
40
0.0
41
0.0
42
0.0
10
5.038826
20
24.432684
40
0.0
41
0.0
42
0.0
10
6.55437
20
25.307683
40
0.0
41
0.0
42
0.0
210
0.0
220
0.0
230
1.0
0
LWPOLYLINE
5
29
330
17
100
AcDbEntity
67
0
8
Add_Red
62
256
6
ByLayer
370
-1
48
1.0
60
0
100
AcDbPolyline
90
7
70
0
38
0.0
39
0.0
10
2.523282
20
25.307683
40
0.0
41
0.0
42
0.0
10
2.523282
20
27.057683
40
0.0
41
0.0
42
0.0
10
1.007738
20
27.932683
40
0.0
41
0.0
42
0.0
10
-0.507806
20
27.057683
40
0.0
41
0.0
42
0.0
10
-0.507806
20
25.307683
40
0.0
41
0.0
42
0.0
10
1.007738
20
24.432684
40
0.0
41
0.0
42
0.0
10
2.523282
20
25.307683
40
0.0
41
0.0
42
0.0
210
0.0
220
0.0
230
1.0
0
LWPOLYLINE
5
2A
330
17
100
AcDbEntity
67
0
8
Add_Red
62
256
6
ByLayer
370
-1
48
1.0
60
0
100
AcDbPolyline
90
7
70
0
38
0.0
39
0.0
10
-1.507806
20
25.307683
40
0.0
41
0.0
42
0.0
10
-1.507806
20
27.057683
40
0.0
41
0.0
42
0.0
10
-3.02335
20
27.932683
40
0.0
41
0.0
42
0.0
10
-4.538895
20
27.057683
40
0.0
41
0.0
42
0.0
10
-4.538895
20
25.307683
40
0.0
41
0.0
42
0.0
10
-3.02335
20
24.432684
40
0.0
41
0.0
42
0.0
10
-1.507806
20
25.307683
40
0.0
41
0.0
42
0.0
210
0.0
220
0.0
230
1.0
0
LWPOLYLINE
5
2B
330
17
100
AcDbEntity
67
0
8
Add_Red
62
256
6
ByLayer
370
-1
48
1.0
60
0
100
AcDbPolyline
90
5
70
0
38
0.0
39
0.0
10
-5.538895
20
25.307683
40
0.0
41
0.0
42
0.0
10
-5.538895
20
27.057683
40
0.0
41
0.0
42
0.0
10
-6.99
20
27.895479
40
0.0
41
0.0
42
0.0
10
-6.99
20
24.469888
40
0.0
41
0.0
42
0.0
10
-5.538895
20
25.307683
40
0.0
41
0.0
42
0.0
210
0.0
220
0.0
230
1.0
0
LWPOLYLINE
5
2C
330
17
100
AcDbEntity
67
0
8
Add_Red
62
256
6
ByLayer
370
-1
48
1.0
60
0
100
AcDbPolyline
90
7
70
0
38
0.0
39
0.0
10
4.538827
20
21.816659
40
0.0
41
0.0
42
0.0
10
4.538827
20
23.566659
40
0.0
41
0.0
42
0.0
10
3.023282
20
24.441659
40
0.0
41
0.0
42
0.0
10
1.507738
20
23.566659
40
0.0
41
0.0
42
0.0
10
1.507738
20
21.816659
40
0.0
41
0.0
42
0.0
10
3.023282
20
20.94166
40
0.0
41
0.0
42
0.0
10
4.538827
20
21.816659
40
0.0
41
0.0
42
0.0
210
0.0
220
0.0
230
1.0
0
LWPOLYLINE
5
2D
330
17
100
AcDbEntity
67
0
8
Add_Red
62
256
6
ByLayer
370
-1
48
1.0
60
0
100
AcDbPolyline
90
7
70
0
38
0.0
39
0.0
10
0.507739
20
21.816659
40
0.0
41
0.0
42
0.0
10
0.507739
20
23.566659
40
0.0
41
0.0
42
0.0
10
-1.007805
20
24.441659
40
0.0
41
0.0
42
0.0
10
-2.523349
20
23.566659
40
0.0
41
0.0
42
0.0
10
-2.523349
20
21.816659
40
0.0
41
0.0
42
0.0
10
-1.007805
20
20.94166
40
0.0
41
0.0
42
0.0
10
0.507739
20
21.816659
40
0.0
41
0.0
42
0.0
210
0.0
220
0.0
230
1.0
0
LWPOLYLINE
5
2E
330
17
100
AcDbEntity
67
0
8
Add_Red
62
256
6
ByLayer
370
-1
48
1.0
60
0
100
AcDbPolyline
90
7
70
0
38
0.0
39
0.0
10
-3.523349
20
21.816659
40
0.0
41
0.0
42
0.0
10
-3.523349
20
23.566659
40
0.0
41
0.0
42
0.0
10
-5.038894
20
24.441659
40
0.0
41
0.0
42
0.0
10
-6.554438
20
23.566659
40
0.0
41
0.0
42
0.0
10
-6.554438
20
21.816659
40
0.0
41
0.0
42
0.0
10
-5.038894
20
20.94166
40
0.0
41
0.0
42
0.0
10
-3.523349
20
21.816659
40
0.0
41
0.0
42
0.0
210
0.0
220
0.0
230
1.0
0
LWPOLYLINE
5
2F
330
17
100
AcDbEntity
67
0
8
Add_Red
62
256
6
ByLayer
370
-1
48
1.0
60
0
100
AcDbPolyline
90
5
70
0
38
0.0
39
0.0
10
6.989999
20
24.404494
40
0.0
41
0.0
42
0.0
10
5.538827
20
23.566659
40
0.0
41
0.0
42
0.0
10
5.538827
20
21.816659
40
0.0
41
0.0
42
0.0
10
6.989999
20
20.978825
40
0.0
41
0.0
42
0.0
10
6.989999
20
24.404494
40
0.0
41
0.0
42
0.0
210
0.0
220
0.0
230
1.0
0
LWPOLYLINE
5
30
330
17
100
AcDbEntity
67
0
8
Add_Red
62
256
6
ByLayer
370
-1
48
1.0
60
0
100
AcDbPolyline
90
7
70
0
38
0.0
39
0.0
10
6.55438
20
18.325634
40
0.0
41
0.0
42
0.0
10
6.55438
20
20.075634
40
0.0
41
0.0
42
0.0
10
5.038836
20
20.950634
40
0.0
41
0.0
42
0.0
10
3.523291
20
20.075634
40
0.0
41
0.0
42
0.0
10
3.523291
20
18.325634
40
0.0
41
0.0
42
0.0
10
5.038836
20
17.450634
40
0.0
41
0.0
42
0.0
10
6.55438
20
18.325634
40
0.0
41
0.0
42
0.0
210
0.0
220
0.0
230
1.0
0
LWPOLYLINE
5
31
330
17
100
AcDbEntity
67
0
8
Add_Red
62
256
6
ByLayer
370
-1
48
1.0
60
0
100
AcDbPolyline
90
7
70
0
38
0.0
39
0.0
10
2.523291
20
18.325634
40
0.0
41
0.0
42
0.0
10
2.523291
20
20.075634
40
0.0
41
0.0
42
0.0
10
1.007747
20
20.950634
40
0.0
41
0.0
42
0.0
10
-0.507797
20
20.075634
40
0.0
41
0.0
42
0.0
10
-0.507797
20
18.325634
40
0.0
41
0.0
42
0.0
10
1.007747
20
17.450634
40
0.0
41
0.0
42
0.0
10
2.523291
20
18.325634
40
0.0
41
0.0
42
0.0
210
0.0
220
0.0
230
1.0
0
LWPOLYLINE
5
32
330
17
100
AcDbEntity
67
0
8
Add_Red
62
256
6
ByLayer
370
-1
48
1.0
60
0
100
AcDbPolyline
90
7
70
0
38
0.0
39
0.0
10
-1.507797
20
18.325634
40
0.0
41
0.0
42
0.0
10
-1.507797
20
20.075634
40
0.0
41
0.0
42
0.0
10
-3.023341
20
20.950634
40
0.0
41
0.0
42
0.0
10
-4.538886
20
20.075634
40
0.0
41
0.0
42
0.0
10
-4.538886
20
18.325634
40
0.0
41
0.0
42
0.0
10
-3.023341
20
17.450634
40
0.0
41
0.0
42
0.0
10
-1.507797
20
18.325634
40
0.0
41
0.0
42
0.0
210
0.0
220
0.0
230
1.0
0
LWPOLYLINE
5
33
330
17
100
AcDbEntity
67
0
8
Add_Red
62
256
6
ByLayer
370
-1
48
1.0
60
0
100
AcDbPolyline
90
5
70
0
38
0.0
39
0.0
10
-5.538885
20
18.325634
40
0.0
41
0.0
42
0.0
10
-5.538885
20
20.075634
40
0.0
41
0.0
42
0.0
10
-6.99
20
20.913436
40
0.0
41
0.0
42
0.0
10
-6.99
20
17.487832
40
0.0
41
0.0
42
0.0
10
-5.538885
20
18.325634
40
0.0
41
0.0
42
0.0
210
0.0
220
0.0
230
1.0
0
LWPOLYLINE
5
34
330
17
100
AcDbEntity
67
0
8
Add_Red
62
256
6
ByLayer
370
-1
48
1.0
60
0
100
AcDbPolyline
90
7
70
0
38
0.0
39
0.0
10
4.538837
20
14.83461
40
0.0
41
0.0
42
0.0
10
4.538837
20
16.58461
40
0.0
41
0.0
42
0.0
10
3.023292
20
17.45961
40
0.0
41
0.0
42
0.0
10
1.507748
20
16.58461
40
0.0
41
0.0
42
0.0
10
1.507748
20
14.83461
40
0.0
41
0.0
42
0.0
10
3.023292
20
13.95961
40
0.0
41
0.0
42
0.0
10
4.538837
20
14.83461
40
0.0
41
0.0
42
0.0
210
0.0
220
0.0
230
1.0
0
LWPOLYLINE
5
35
330
17
100
AcDbEntity
67
0
8
Add_Red
62
256
6
ByLayer
370
-1
48
1.0
60
0
100
AcDbPolyline
90
7
70
0
38
0.0
39
0.0
10
0.507748
20
14.83461
40
0.0
41
0.0
42
0.0
10
0.507748
20
16.58461
40
0.0
41
0.0
42
0.0
10
-1.007796
20
17.45961
40
0.0
41
0.0
42
0.0
10
-2.52334
20
16.58461
40
0.0
41
0.0
42
0.0
10
-2.52334
20
14.83461
40
0.0
41
0.0
42
0.0
10
-1.007796
20
13.95961
40
0.0
41
0.0
42
0.0
10
0.507748
20
14.83461
40
0.0
41
0.0
42
0.0
210
0.0
220
0.0
230
1.0
0
LWPOLYLINE
5
36
330
17
100
AcDbEntity
67
0
8
Add_Red
62
256
6
ByLayer
370
-1
48
1.0
60
0
100
AcDbPolyline
90
7
70
0
38
0.0
39
0.0
10
-3.52334
20
14.83461
40
0.0
41
0.0
42
0.0
10
-3.52334
20
16.58461
40
0.0
41
0.0
42
0.0
10
-5.038885
20
17.45961
40
0.0
41
0.0
42
0.0
10
-6.554429
20
16.58461
40
0.0
41
0.0
42
0.0
10
-6.554429
20
14.83461
40
0.0
41
0.0
42
0.0
10
-5.038885
20
13.95961
40
0.0
41
0.0
42
0.0
10
-3.52334
20
14.83461
40
0.0
41
0.0
42
0.0
210
0.0
220
0.0
230
1.0
0
LWPOLYLINE
5
37
330
17
100
AcDbEntity
67
0
8
Add_Red
62
256
6
ByLayer
370
-1
48
1.0
60
0
100
AcDbPolyline
90
5
70
0
38
0.0
39
0.0
10
6.989999
20
17.422439
40
0.0
41
0.0
42
0.0
10
5.538837
20
16.58461
40
0.0
41
0.0
42
0.0
10
5.538837
20
14.83461
40
0.0
41
0.0
42
0.0
10
6.989999
20
13.996781
40
0.0
41
0.0
42
0.0
10
6.989999
20
17.422439
40
0.0
41
0.0
42
0.0
210
0.0
220
0.0
230
1.0
0
LWPOLYLINE
5
38
330
17
100
AcDbEntity
67
0
8
Add_Red
62
256
6
ByLayer
370
-1
48
1.0
60
0
100
AcDbPolyline
90
7
70
0
38
0.0
39
0.0
10
6.55439
20
11.343585
40
0.0
41
0.0
42
0.0
10
6.55439
20
13.093585
40
0.0
41
0.0
42
0.0
10
5.038845
20
13.968584
40
0.0
41
0.0
42
0.0
10
3.5233
20
13.093585
40
0.0
41
0.0
42
0.0
10
3.5233
20
11.343585
40
0.0
41
0.0
42
0.0
10
5.038845
20
10.468585
40
0.0
41
0.0
42
0.0
10
6.55439
20
11.343585
40
0.0
41
0.0
42
0.0
210
0.0
220
0.0
230
1.0
0
LWPOLYLINE
5
39
330
17
100
AcDbEntity
67
0
8
Add_Red
62
256
6
ByLayer
370
-1
48
1.0
60
0
100
AcDbPolyline
90
7
70
0
38
0.0
39
0.0
10
2.523301
20
11.343585
40
0.0
41
0.0
42
0.0
10
2.523301
20
13.093585
40
0.0
41
0.0
42
0.0
10
1.007757
20
13.968584
40
0.0
41
0.0
42
0.0
10
-0.507787
20
13.093585
40
0.0
41
0.0
42
0.0
10
-0.507787
20
11.343585
40
0.0
41
0.0
42
0.0
10
1.007757
20
10.468585
40
0.0
41
0.0
42
0.0
10
2.523301
20
11.343585
40
0.0
41
0.0
42
0.0
210
0.0
220
0.0
230
1.0
0
LWPOLYLINE
5
3A
330
17
100
AcDbEntity
67
0
8
Add_Red
62
256
6
ByLayer
370
-1
48
1.0
60
0
100
AcDbPolyline
90
7
70
0
38
0.0
39
0.0
10
-1.507787
20
11.343585
40
0.0
41
0.0
42
0.0
10
-1.507787
20
13.093585
40
0.0
41
0.0
42
0.0
10
-3.023331
20
13.968584
40
0.0
41
0.0
42
0.0
10
-4.538876
20
13.093585
40
0.0
41
0.0
42
0.0
10
-4.538876
20
11.343585
40
0.0
41
0.0
42
0.0
10
-3.023331
20
10.468585
40
0.0
41
0.0
42
0.0
10
-1.507787
20
11.343585
40
0.0
41
0.0
42
0.0
210
0.0
220
0.0
230
1.0
0
LWPOLYLINE
5
3B
330
17
100
AcDbEntity
67
0
8
Add_Red
62
256
6
ByLayer
370
-1
48
1.0
60
0
100
AcDbPolyline
90
5
70
0
38
0.0
39
0.0
10
-5.538876
20
11.343585
40
0.0
41
0.0
42
0.0
10
-5.538876
20
13.093585
40
0.0
41
0.0
42
0.0
10
-6.99
20
13.931391
40
0.0
41
0.0
42
0.0
10
-6.99
20
10.505778
40
0.0
41
0.0
42
0.0
10
-5.538876
20
11.343585
40
0.0
41
0.0
42
0.0
210
0.0
220
0.0
230
1.0
0
LWPOLYLINE
5
3C
330
17
100
AcDbEntity
67
0
8
Add_Red
62
256
6
ByLayer
370
-1
48
1.0
60
0
100
AcDbPolyline
90
7
70
0
38
0.0
39
0.0
10
4.538847
20
7.852561
40
0.0
41
0.0
42
0.0
10
4.538847
20
9.602561
40
0.0
41
0.0
42
0.0
10
3.023302
20
10.47756
40
0.0
41
0.0
42
0.0
10
1.507758
20
9.602561
40
0.0
41
0.0
42
0.0
10
1.507758
20
7.852561
40
0.0
41
0.0
42
0.0
10
3.023302
20
6.977561
40
0.0
41
0.0
42
0.0
10
4.538847
20
7.852561
40
0.0
41
0.0
42
0.0
210
0.0
220
0.0
230
1.0
0
LWPOLYLINE
5
3D
330
17
100
AcDbEntity
67
0
8
Add_Red
62
256
6
ByLayer
370
-1
48
1.0
60
0
100
AcDbPolyline
90
7
70
0
38
0.0
39
0.0
10
0.507758
20
7.852561
40
0.0
41
0.0
42
0.0
10
0.507758
20
9.602561
40
0.0
41
0.0
42
0.0
10
-1.007786
20
10.47756
40
0.0
41
0.0
42
0.0
10
-2.52333
20
9.602561
40
0.0
41
0.0
42
0.0
10
-2.52333
20
7.852561
40
0.0
41
0.0
42
0.0
10
-1.007786
20
6.977561
40
0.0
41
0.0
42
0.0
10
0.507758
20
7.852561
40
0.0
41
0.0
42
0.0
210
0.0
220
0.0
230
1.0
0
LWPOLYLINE
5
3E
330
17
100
AcDbEntity
67
0
8
Add_Red
62
256
6
ByLayer
370
-1
48
1.0
60
0
100
AcDbPolyline
90
7
70
0
38
0.0
39
0.0
10
-3.52333
20
7.852561
40
0.0
41
0.0
42
0.0
10
-3.52333
20
9.602561
40
0.0
41
0.0
42
0.0
10
-5.038875
20
10.47756
40
0.0
41
0.0
42
0.0
10
-6.554419
20
9.602561
40
0.0
41
0.0
42
0.0
10
-6.554419
20
7.852561
40
0.0
41
0.0
42
0.0
10
-5.038875
20
6.977561
40
0.0
41
0.0
42
0.0
10
-3.52333
20
7.852561
40
0.0
41
0.0
42
0.0
210
0.0
220
0.0
230
1.0
0
LWPOLYLINE
5
3F
330
17
100
AcDbEntity
67
0
8
Add_Red
62
256
6
ByLayer
370
-1
48
1.0
60
0
100
AcDbPolyline
90
5
70
0
38
0.0
39
0.0
10
6.989999
20
10.440384
40
0.0
41
0.0
42
0.0
10
5.538846
20
9.602561
40
0.0
41
0.0
42
0.0
10
5.538846
20
7.852561
40
0.0
41
0.0
42
0.0
10
6.989999
20
7.014737
40
0.0
41
0.0
42
0.0
10
6.989999
20
10.440384
40
0.0
41
0.0
42
0.0
210
0.0
220
0.0
230
1.0
0
LWPOLYLINE
5
40
330
17
100
AcDbEntity
67
0
8
Add_Red
62
256
6
ByLayer
370
-1
48
1.0
60
0
100
AcDbPolyline
90
7
70
0
38
0.0
39
0.0
10
6.554399
20
4.361536
40
0.0
41
0.0
42
0.0
10
6.554399
20
6.111535
40
0.0
41
0.0
42
0.0
10
5.038855
20
6.986535
40
0.0
41
0.0
42
0.0
10
3.52331
20
6.111535
40
0.0
41
0.0
42
0.0
10
3.52331
20
4.361536
40
0.0
41
0.0
42
0.0
10
5.038855
20
3.486536
40
0.0
41
0.0
42
0.0
10
6.554399
20
4.361536
40
0.0
41
0.0
42
0.0
210
0.0
220
0.0
230
1.0
0
LWPOLYLINE
5
41
330
17
100
AcDbEntity
67
0
8
Add_Red
62
256
6
ByLayer
370
-1
48
1.0
60
0
100
AcDbPolyline
90
7
70
0
38
0.0
39
0.0
10
2.52331
20
4.361536
40
0.0
41
0.0
42
0.0
10
2.52331
20
6.111535
40
0.0
41
0.0
42
0.0
10
1.007766
20
6.986535
40
0.0
41
0.0
42
0.0
10
-0.507778
20
6.111535
40
0.0
41
0.0
42
0.0
10
-0.507778
20
4.361536
40
0.0
41
0.0
42
0.0
10
1.007766
20
3.486536
40
0.0
41
0.0
42
0.0
10
2.52331
20
4.361536
40
0.0
41
0.0
42
0.0
210
0.0
220
0.0
230
1.0
0
LWPOLYLINE
5
42
330
17
100
AcDbEntity
67
0
8
Add_Red
62
256
6
ByLayer
370
-1
48
1.0
60
0
100
AcDbPolyline
90
7
70
0
38
0.0
39
0.0
10
-1.507778
20
4.361536
40
0.0
41
0.0
42
0.0
10
-1.507778
20
6.111535
40
0.0
41
0.0
42
0.0
10
-3.023322
20
6.986535
40
0.0
41
0.0
42
0.0
10
-4.538867
20
6.111535
40
0.0
41
0.0
42
0.0
10
-4.538867
20
4.361536
40
0.0
41
0.0
42
0.0
10
-3.023322
20
3.486536
40
0.0
41
0.0
42
0.0
10
-1.507778
20
4.361536
40
0.0
41
0.0
42
0.0
210
0.0
220
0.0
230
1.0
0
LWPOLYLINE
5
43
330
17
100
AcDbEntity
67
0
8
Add_Red
62
256
6
ByLayer
370
-1
48
1.0
60
0
100
AcDbPolyline
90
5
70
0
38
0.0
39
0.0
10
-5.538866
20
4.361536
40
0.0
41
0.0
42
0.0
10
-5.538866
20
6.111535
40
0.0
41
0.0
42
0.0
10
-6.99
20
6.949348
40
0.0
41
0.0
42
0.0
10
-6.99
20
3.523723
40
0.0
41
0.0
42
0.0
10
-5.538866
20
4.361536
40
0.0
41
0.0
42
0.0
210
0.0
220
0.0
230
1.0
0
LWPOLYLINE
5
44
330
17
100
AcDbEntity
67
0
8
Add_Red
62
256
6
ByLayer
370
-1
48
1.0
60
0
100
AcDbPolyline
90
7
70
0
38
0.0
39
0.0
10
4.538856
20
0.870512
40
0.0
41
0.0
42
0.0
10
4.538856
20
2.620511
40
0.0
41
0.0
42
0.0
10
3.023311
20
3.495511
40
0.0
41
0.0
42
0.0
10
1.507767
20
2.620511
40
0.0
41
0.0
42
0.0
10
1.507767
20
0.870512
40
0.0
41
0.0
42
0.0
10
3.023311
20
-0.004487
40
0.0
41
0.0
42
0.0
10
4.538856
20
0.870512
40
0.0
41
0.0
42
0.0
210
0.0
220
0.0
230
1.0
0
LWPOLYLINE
5
45
330
17
100
AcDbEntity
67
0
8
Add_Red
62
256
6
ByLayer
370
-1
48
1.0
60
0
100
AcDbPolyline
90
7
70
0
38
0.0
39
0.0
10
0.507767
20
0.870512
40
0.0
41
0.0
42
0.0
10
0.507767
20
2.620511
40
0.0
41
0.0
42
0.0
10
-1.007777
20
3.495511
40
0.0
41
0.0
42
0.0
10
-2.523321
20
2.620511
40
0.0
41
0.0
42
0.0
10
-2.523321
20
0.870512
40
0.0
41
0.0
42
0.0
10
-1.007777
20
-0.004487
40
0.0
41
0.0
42
0.0
10
0.507767
20
0.870512
40
0.0
41
0.0
42
0.0
210
0.0
220
0.0
230
1.0
0
LWPOLYLINE
5
46
330
17
100
AcDbEntity
67
0
8
Add_Red
62
256
6
ByLayer
370
-1
48
1.0
60
0
100
AcDbPolyline
90
7
70
0
38
0.0
39
0.0
10
-3.52332
20
0.870512
40
0.0
41
0.0
42
0.0
10
-3.52332
20
2.620511
40
0.0
41
0.0
42
0.0
10
-5.038865
20
3.495511
40
0.0
41
0.0
42
0.0
10
-6.55441
20
2.620511
40
0.0
41
0.0
42
0.0
10
-6.55441
20
0.870512
40
0.0
41
0.0
42
0.0
10
-5.038865
20
-0.004487
40
0.0
41
0.0
42
0.0
10
-3.52332
20
0.870512
40
0.0
41
0.0
42
0.0
210
0.0
220
0.0
230
1.0
0
LWPOLYLINE
5
47
330
17
100
AcDbEntity
67
0
8
Add_Red
62
256
6
ByLayer
370
-1
48
1.0
60
0
100
AcDbPolyline
90
5
70
0
38
0.0
39
0.0
10
6.989999
20
3.458329
40
0.0
41
0.0
42
0.0
10
5.538856
20
2.620511
40
0.0
41
0.0
42
0.0
10
5.538856
20
0.870512
40
0.0
41
0.0
42
0.0
10
6.989999
20
0.032695
40
0.0
41
0.0
42
0.0
10
6.989999
20
3.458329
40
0.0
41
0.0
42
0.0
210
0.0
220
0.0
230
1.0
0
LWPOLYLINE
5
48
330
17
100
AcDbEntity
67
0
8
Add_Red
62
256
6
ByLayer
370
-1
48
1.0
60
0
100
AcDbPolyline
90
7
70
0
38
0.0
39
0.0
10
6.554409
20
-2.620511
40
0.0
41
0.0
42
0.0
10
6.554409
20
-0.870512
40
0.0
41
0.0
42
0.0
10
5.038865
20
0.004487
40
0.0
41
0.0
42
0.0
10
3.52332
20
-0.870512
40
0.0
41
0.0
42
0.0
10
3.52332
20
-2.620511
40
0.0
41
0.0
42
0.0
10
5.038865
20
-3.495511
40
0.0
41
0.0
42
0.0
10
6.554409
20
-2.620511
40
0.0
41
0.0
42
0.0
210
0.0
220
0.0
230
1.0
0
LWPOLYLINE
5
49
330
17
100
AcDbEntity
67
0
8
Add_Red
62
256
6
ByLayer
370
-1
48
1.0
60
0
100
AcDbPolyline
90
7
70
0
38
0.0
39
0.0
10
2.52332
20
-2.620511
40
0.0
41
0.0
42
0.0
10
2.52332
20
-0.870512
40
0.0
41
0.0
42
0.0
10
1.007776
20
0.004487
40
0.0
41
0.0
42
0.0
10
-0.507768
20
-0.870512
40
0.0
41
0.0
42
0.0
10
-0.507768
20
-2.620511
40
0.0
41
0.0
42
0.0
10
1.007776
20
-3.495511
40
0.0
41
0.0
42
0.0
10
2.52332
20
-2.620511
40
0.0
41
0.0
42
0.0
210
0.0
220
0.0
230
1.0
0
LWPOLYLINE
5
4A
330
17
100
AcDbEntity
67
0
8
Add_Red
62
256
6
ByLayer
370
-1
48
1.0
60
0
100
AcDbPolyline
90
7
70
0
38
0.0
39
0.0
10
-1.507768
20
-2.620511
40
0.0
41
0.0
42
0.0
10
-1.507768
20
-0.870512
40
0.0
41
0.0
42
0.0
10
-3.023312
20
0.004487
40
0.0
41
0.0
42
0.0
10
-4.538857
20
-0.870512
40
0.0
41
0.0
42
0.0
10
-4.538857
20
-2.620511
40
0.0
41
0.0
42
0.0
10
-3.023312
20
-3.495511
40
0.0
41
0.0
42
0.0
10
-1.507768
20
-2.620511
40
0.0
41
0.0
42
0.0
210
0.0
220
0.0
230
1.0
0
LWPOLYLINE
5
4B
330
17
100
AcDbEntity
67
0
8
Add_Red
62
256
6
ByLayer
370
-1
48
1.0
60
0
100
AcDbPolyline
90
5
70
0
38
0.0
39
0.0
10
-5.538857
20
-2.620511
40
0.0
41
0.0
42
0.0
10
-5.538857
20
-0.870512
40
0.0
41
0.0
42
0.0
10
-6.989999
20
-0.032695
40
0.0
41
0.0
42
0.0
10
-6.989999
20
-3.458329
40
0.0
41
0.0
42
0.0
10
-5.538857
20
-2.620511
40
0.0
41
0.0
42
0.0
210
0.0
220
0.0
230
1.0
0
LWPOLYLINE
5
4C
330
17
100
AcDbEntity
67
0
8
Add_Red
62
256
6
ByLayer
370
-1
48
1.0
60
0
100
AcDbPolyline
90
7
70
0
38
0.0
39
0.0
10
4.538866
20
-6.111536
40
0.0
41
0.0
42
0.0
10
4.538866
20
-4.361537
40
0.0
41
0.0
42
0.0
10
3.023321
20
-3.486537
40
0.0
41
0.0
42
0.0
10
1.507777
20
-4.361537
40
0.0
41
0.0
42
0.0
10
1.507777
20
-6.111536
40
0.0
41
0.0
42
0.0
10
3.023321
20
-6.986536
40
0.0
41
0.0
42
0.0
10
4.538866
20
-6.111536
40
0.0
41
0.0
42
0.0
210
0.0
220
0.0
230
1.0
0
LWPOLYLINE
5
4D
330
17
100
AcDbEntity
67
0
8
Add_Red
62
256
6
ByLayer
370
-1
48
1.0
60
0
100
AcDbPolyline
90
7
70
0
38
0.0
39
0.0
10
0.507777
20
-6.111536
40
0.0
41
0.0
42
0.0
10
0.507777
20
-4.361537
40
0.0
41
0.0
42
0.0
10
-1.007767
20
-3.486537
40
0.0
41
0.0
42
0.0
10
-2.523311
20
-4.361537
40
0.0
41
0.0
42
0.0
10
-2.523311
20
-6.111536
40
0.0
41
0.0
42
0.0
10
-1.007767
20
-6.986536
40
0.0
41
0.0
42
0.0
10
0.507777
20
-6.111536
40
0.0
41
0.0
42
0.0
210
0.0
220
0.0
230
1.0
0
LWPOLYLINE
5
4E
330
17
100
AcDbEntity
67
0
8
Add_Red
62
256
6
ByLayer
370
-1
48
1.0
60
0
100
AcDbPolyline
90
7
70
0
38
0.0
39
0.0
10
-3.523311
20
-6.111536
40
0.0
41
0.0
42
0.0
10
-3.523311
20
-4.361537
40
0.0
41
0.0
42
0.0
10
-5.038856
20
-3.486537
40
0.0
41
0.0
42
0.0
10
-6.5544
20
-4.361537
40
0.0
41
0.0
42
0.0
10
-6.5544
20
-6.111536
40
0.0
41
0.0
42
0.0
10
-5.038856
20
-6.986536
40
0.0
41
0.0
42
0.0
10
-3.523311
20
-6.111536
40
0.0
41
0.0
42
0.0
210
0.0
220
0.0
230
1.0
0
LWPOLYLINE
5
4F
330
17
100
AcDbEntity
67
0
8
Add_Red
62
256
6
ByLayer
370
-1
48
1.0
60
0
100
AcDbPolyline
90
5
70
0
38
0.0
39
0.0
10
6.99
20
-3.523724
40
0.0
41
0.0
42
0.0
10
5.538865
20
-4.361537
40
0.0
41
0.0
42
0.0
10
5.538865
20
-6.111536
40
0.0
41
0.0
42
0.0
10
6.99
20
-6.949349
40
0.0
41
0.0
42
0.0
10
6.99
20
-3.523724
40
0.0
41
0.0
42
0.0
210
0.0
220
0.0
230
1.0
0
LWPOLYLINE
5
50
330
17
100
AcDbEntity
67
0
8
Add_Red
62
256
6
ByLayer
370
-1
48
1.0
60
0
100
AcDbPolyline
90
7
70
0
38
0.0
39
0.0
10
6.554418
20
-9.602561
40
0.0
41
0.0
42
0.0
10
6.554418
20
-7.852561
40
0.0
41
0.0
42
0.0
10
5.038874
20
-6.977561
40
0.0
41
0.0
42
0.0
10
3.523329
20
-7.852561
40
0.0
41
0.0
42
0.0
10
3.523329
20
-9.602561
40
0.0
41
0.0
42
0.0
10
5.038874
20
-10.47756
40
0.0
41
0.0
42
0.0
10
6.554418
20
-9.602561
40
0.0
41
0.0
42
0.0
210
0.0
220
0.0
230
1.0
0
LWPOLYLINE
5
51
330
17
100
AcDbEntity
67
0
8
Add_Red
62
256
6
ByLayer
370
-1
48
1.0
60
0
100
AcDbPolyline
90
7
70
0
38
0.0
39
0.0
10
2.523329
20
-9.602561
40
0.0
41
0.0
42
0.0
10
2.523329
20
-7.852561
40
0.0
41
0.0
42
0.0
10
1.007785
20
-6.977561
40
0.0
41
0.0
42
0.0
10
-0.507759
20
-7.852561
40
0.0
41
0.0
42
0.0
10
-0.507759
20
-9.602561
40
0.0
41
0.0
42
0.0
10
1.007785
20
-10.47756
40
0.0
41
0.0
42
0.0
10
2.523329
20
-9.602561
40
0.0
41
0.0
42
0.0
210
0.0
220
0.0
230
1.0
0
LWPOLYLINE
5
52
330
17
100
AcDbEntity
67
0
8
Add_Red
62
256
6
ByLayer
370
-1
48
1.0
60
0
100
AcDbPolyline
90
7
70
0
38
0.0
39
0.0
10
-1.507758
20
-9.602561
40
0.0
41
0.0
42
0.0
10
-1.507758
20
-7.852561
40
0.0
41
0.0
42
0.0
10
-3.023303
20
-6.977561
40
0.0
41
0.0
42
0.0
10
-4.538847
20
-7.852561
40
0.0
41
0.0
42
0.0
10
-4.538847
20
-9.602561
40
0.0
41
0.0
42
0.0
10
-3.023303
20
-10.47756
40
0.0
41
0.0
42
0.0
10
-1.507758
20
-9.602561
40
0.0
41
0.0
42
0.0
210
0.0
220
0.0
230
1.0
0
LWPOLYLINE
5
53
330
17
100
AcDbEntity
67
0
8
Add_Red
62
256
6
ByLayer
370
-1
48
1.0
60
0
100
AcDbPolyline
90
5
70
0
38
0.0
39
0.0
10
-5.538847
20
-9.602561
40
0.0
41
0.0
42
0.0
10
-5.538847
20
-7.852561
40
0.0
41
0.0
42
0.0
10
-6.989999
20
-7.014738
40
0.0
41
0.0
42
0.0
10
-6.989999
20
-10.440383
40
0.0
41
0.0
42
0.0
10
-5.538847
20
-9.602561
40
0.0
41
0.0
42
0.0
210
0.0
220
0.0
230
1.0
0
LWPOLYLINE
5
54
330
17
100
AcDbEntity
67
0
8
Add_Red
62
256
6
ByLayer
370
-1
48
1.0
60
0
100
AcDbPolyline
90
7
70
0
38
0.0
39
0.0
10
4.538875
20
-13.093586
40
0.0
41
0.0
42
0.0
10
4.538875
20
-11.343586
40
0.0
41
0.0
42
0.0
10
3.02333
20
-10.468586
40
0.0
41
0.0
42
0.0
10
1.507786
20
-11.343586
40
0.0
41
0.0
42
0.0
10
1.507786
20
-13.093586
40
0.0
41
0.0
42
0.0
10
3.02333
20
-13.968585
40
0.0
41
0.0
42
0.0
10
4.538875
20
-13.093586
40
0.0
41
0.0
42
0.0
210
0.0
220
0.0
230
1.0
0
LWPOLYLINE
5
55
330
17
100
AcDbEntity
67
0
8
Add_Red
62
256
6
ByLayer
370
-1
48
1.0
60
0
100
AcDbPolyline
90
7
70
0
38
0.0
39
0.0
10
0.507786
20
-13.093586
40
0.0
41
0.0
42
0.0
10
0.507786
20
-11.343586
40
0.0
41
0.0
42
0.0
10
-1.007758
20
-10.468586
40
0.0
41
0.0
42
0.0
10
-2.523302
20
-11.343586
40
0.0
41
0.0
42
0.0
10
-2.523302
20
-13.093586
40
0.0
41
0.0
42
0.0
10
-1.007758
20
-13.968585
40
0.0
41
0.0
42
0.0
10
0.507786
20
-13.093586
40
0.0
41
0.0
42
0.0
210
0.0
220
0.0
230
1.0
0
LWPOLYLINE
5
56
330
17
100
AcDbEntity
67
0
8
Add_Red
62
256
6
ByLayer
370
-1
48
1.0
60
0
100
AcDbPolyline
90
7
70
0
38
0.0
39
0.0
10
-3.523301
20
-13.093586
40
0.0
41
0.0
42
0.0
10
-3.523301
20
-11.343586
40
0.0
41
0.0
42
0.0
10
-5.038846
20
-10.468586
40
0.0
41
0.0
42
0.0
10
-6.55439
20
-11.343586
40
0.0
41
0.0
42
0.0
10
-6.55439
20
-13.093586
40
0.0
41
0.0
42
0.0
10
-5.038846
20
-13.968585
40
0.0
41
0.0
42
0.0
10
-3.523301
20
-13.093586
40
0.0
41
0.0
42
0.0
210
0.0
220
0.0
230
1.0
0
LWPOLYLINE
5
57
330
17
100
AcDbEntity
67
0
8
Add_Red
62
256
6
ByLayer
370
-1
48
1.0
60
0
100
AcDbPolyline
90
5
70
0
38
0.0
39
0.0
10
6.99
20
-10.505779
40
0.0
41
0.0
42
0.0
10
5.538875
20
-11.343586
40
0.0
41
0.0
42
0.0
10
5.538875
20
-13.093586
40
0.0
41
0.0
42
0.0
10
6.99
20
-13.931393
40
0.0
41
0.0
42
0.0
10
6.99
20
-10.505779
40
0.0
41
0.0
42
0.0
210
0.0
220
0.0
230
1.0
0
LWPOLYLINE
5
58
330
17
100
AcDbEntity
67
0
8
Add_Red
62
256
6
ByLayer
370
-1
48
1.0
60
0
100
AcDbPolyline
90
7
70
0
38
0.0
39
0.0
10
6.554428
20
-16.58461
40
0.0
41
0.0
42
0.0
10
6.554428
20
-14.83461
40
0.0
41
0.0
42
0.0
10
5.038884
20
-13.95961
40
0.0
41
0.0
42
0.0
10
3.523339
20
-14.83461
40
0.0
41
0.0
42
0.0
10
3.523339
20
-16.58461
40
0.0
41
0.0
42
0.0
10
5.038884
20
-17.45961
40
0.0
41
0.0
42
0.0
10
6.554428
20
-16.58461
40
0.0
41
0.0
42
0.0
210
0.0
220
0.0
230
1.0
0
LWPOLYLINE
5
59
330
17
100
AcDbEntity
67
0
8
Add_Red
62
256
6
ByLayer
370
-1
48
1.0
60
0
100
AcDbPolyline
90
7
70
0
38
0.0
39
0.0
10
2.523339
20
-16.58461
40
0.0
41
0.0
42
0.0
10
2.523339
20
-14.83461
40
0.0
41
0.0
42
0.0
10
1.007795
20
-13.95961
40
0.0
41
0.0
42
0.0
10
-0.507749
20
-14.83461
40
0.0
41
0.0
42
0.0
10
-0.507749
20
-16.58461
40
0.0
41
0.0
42
0.0
10
1.007795
20
-17.45961
40
0.0
41
0.0
42
0.0
10
2.523339
20
-16.58461
40
0.0
41
0.0
42
0.0
210
0.0
220
0.0
230
1.0
0
LWPOLYLINE
5
5A
330
17
100
AcDbEntity
67
0
8
Add_Red
62
256
6
ByLayer
370
-1
48
1.0
60
0
100
AcDbPolyline
90
7
70
0
38
0.0
39
0.0
10
-1.507749
20
-16.58461
40
0.0
41
0.0
42
0.0
10
-1.507749
20
-14.83461
40
0.0
41
0.0
42
0.0
10
-3.023293
20
-13.95961
40
0.0
41
0.0
42
0.0
10
-4.538838
20
-14.83461
40
0.0
41
0.0
42
0.0
10
-4.538838
20
-16.58461
40
0.0
41
0.0
42
0.0
10
-3.023293
20
-17.45961
40
0.0
41
0.0
42
0.0
10
-1.507749
20
-16.58461
40
0.0
41
0.0
42
0.0
210
0.0
220
0.0
230
1.0
0
LWPOLYLINE
5
5B
330
17
100
AcDbEntity
67
0
8
Add_Red
62
256
6
ByLayer
370
-1
48
1.0
60
0
100
AcDbPolyline
90
5
70
0
38
0.0
39
0.0
10
-5.538838
20
-16.58461
40
0.0
41
0.0
42
0.0
10
-5.538838
20
-14.83461
40
0.0
41
0.0
42
0.0
10
-6.989999
20
-13.996781
40
0.0
41
0.0
42
0.0
10
-6.989999
20
-17.422439
40
0.0
41
0.0
42
0.0
10
-5.538838
20
-16.58461
40
0.0
41
0.0
42
0.0
210
0.0
220
0.0
230
1.0
0
LWPOLYLINE
5
5C
330
17
100
AcDbEntity
67
0
8
Add_Red
62
256
6
ByLayer
370
-1
48
1.0
60
0
100
AcDbPolyline
90
7
70
0
38
0.0
39
0.0
10
4.538885
20
-20.075634
40
0.0
41
0.0
42
0.0
10
4.538885
20
-18.325634
40
0.0
41
0.0
42
0.0
10
3.02334
20
-17.450634
40
0.0
41
0.0
42
0.0
10
1.507796
20
-18.325634
40
0.0
41
0.0
42
0.0
10
1.507796
20
-20.075634
40
0.0
41
0.0
42
0.0
10
3.02334
20
-20.950634
40
0.0
41
0.0
42
0.0
10
4.538885
20
-20.075634
40
0.0
41
0.0
42
0.0
210
0.0
220
0.0
230
1.0
0
LWPOLYLINE
5
5D
330
17
100
AcDbEntity
67
0
8
Add_Red
62
256
6
ByLayer
370
-1
48
1.0
60
0
100
AcDbPolyline
90
7
70
0
38
0.0
39
0.0
10
0.507796
20
-20.075634
40
0.0
41
0.0
42
0.0
10
0.507796
20
-18.325634
40
0.0
41
0.0
42
0.0
10
-1.007748
20
-17.450634
40
0.0
41
0.0
42
0.0
10
-2.523292
20
-18.325634
40
0.0
41
0.0
42
0.0
10
-2.523292
20
-20.075634
40
0.0
41
0.0
42
0.0
10
-1.007748
20
-20.950634
40
0.0
41
0.0
42
0.0
10
0.507796
20
-20.075634
40
0.0
41
0.0
42
0.0
210
0.0
220
0.0
230
1.0
0
LWPOLYLINE
5
5E
330
17
100
AcDbEntity
67
0
8
Add_Red
62
256
6
ByLayer
370
-1
48
1.0
60
0
100
AcDbPolyline
90
7
70
0
38
0.0
39
0.0
10
-3.523292
20
-20.075634
40
0.0
41
0.0
42
0.0
10
-3.523292
20
-18.325634
40
0.0
41
0.0
42
0.0
10
-5.038837
20
-17.450634
40
0.0
41
0.0
42
0.0
10
-6.554381
20
-18.325634
40
0.0
41
0.0
42
0.0
10
-6.554381
20
-20.075634
40
0.0
41
0.0
42
0.0
10
-5.038837
20
-20.950634
40
0.0
41
0.0
42
0.0
10
-3.523292
20
-20.075634
40
0.0
41
0.0
42
0.0
210
0.0
220
0.0
230
1.0
0
LWPOLYLINE
5
5F
330
17
100
AcDbEntity
67
0
8
Add_Red
62
256
6
ByLayer
370
-1
48
1.0
60
0
100
AcDbPolyline
90
5
70
0
38
0.0
39
0.0
10
6.99
20
-17.487832
40
0.0
41
0.0
42
0.0
10
5.538884
20
-18.325634
40
0.0
41
0.0
42
0.0
10
5.538884
20
-20.075634
40
0.0
41
0.0
42
0.0
10
6.99
20
-20.913436
40
0.0
41
0.0
42
0.0
10
6.99
20
-17.487832
40
0.0
41
0.0
42
0.0
210
0.0
220
0.0
230
1.0
0
LWPOLYLINE
5
60
330
17
100
AcDbEntity
67
0
8
Add_Red
62
256
6
ByLayer
370
-1
48
1.0
60
0
100
AcDbPolyline
90
7
70
0
38
0.0
39
0.0
10
6.554437
20
-23.566659
40
0.0
41
0.0
42
0.0
10
6.554437
20
-21.816659
40
0.0
41
0.0
42
0.0
10
5.038893
20
-20.94166
40
0.0
41
0.0
42
0.0
10
3.523348
20
-21.816659
40
0.0
41
0.0
42
0.0
10
3.523348
20
-23.566659
40
0.0
41
0.0
42
0.0
10
5.038893
20
-24.441659
40
0.0
41
0.0
42
0.0
10
6.554437
20
-23.566659
40
0.0
41
0.0
42
0.0
210
0.0
220
0.0
230
1.0
0
LWPOLYLINE
5
61
330
17
100
AcDbEntity
67
0
8
Add_Red
62
256
6
ByLayer
370
-1
48
1.0
60
0
100
AcDbPolyline
90
7
70
0
38
0.0
39
0.0
10
2.523348
20
-23.566659
40
0.0
41
0.0
42
0.0
10
2.523348
20
-21.816659
40
0.0
41
0.0
42
0.0
10
1.007804
20
-20.94166
40
0.0
41
0.0
42
0.0
10
-0.50774
20
-21.816659
40
0.0
41
0.0
42
0.0
10
-0.50774
20
-23.566659
40
0.0
41
0.0
42
0.0
10
1.007804
20
-24.441659
40
0.0
41
0.0
42
0.0
10
2.523348
20
-23.566659
40
0.0
41
0.0
42
0.0
210
0.0
220
0.0
230
1.0
0
LWPOLYLINE
5
62
330
17
100
AcDbEntity
67
0
8
Add_Red
62
256
6
ByLayer
370
-1
48
1.0
60
0
100
AcDbPolyline
90
7
70
0
38
0.0
39
0.0
10
-1.507739
20
-23.566659
40
0.0
41
0.0
42
0.0
10
-1.507739
20
-21.816659
40
0.0
41
0.0
42
0.0
10
-3.023283
20
-20.94166
40
0.0
41
0.0
42
0.0
10
-4.538828
20
-21.816659
40
0.0
41
0.0
42
0.0
10
-4.538828
20
-23.566659
40
0.0
41
0.0
42
0.0
10
-3.023283
20
-24.441659
40
0.0
41
0.0
42
0.0
10
-1.507739
20
-23.566659
40
0.0
41
0.0
42
0.0
210
0.0
220
0.0
230
1.0
0
LWPOLYLINE
5
63
330
17
100
AcDbEntity
67
0
8
Add_Red
62
256
6
ByLayer
370
-1
48
1.0
60
0
100
AcDbPolyline
90
5
70
0
38
0.0
39
0.0
10
-5.538828
20
-23.566659
40
0.0
41
0.0
42
0.0
10
-5.538828
20
-21.816659
40
0.0
41
0.0
42
0.0
10
-6.989999
20
-20.978826
40
0.0
41
0.0
42
0.0
10
-6.989999
20
-24.404493
40
0.0
41
0.0
42
0.0
10
-5.538828
20
-23.566659
40
0.0
41
0.0
42
0.0
210
0.0
220
0.0
230
1.0
0
LWPOLYLINE
5
64
330
17
100
AcDbEntity
67
0
8
Add_Red
62
256
6
ByLayer
370
-1
48
1.0
60
0
100
AcDbPolyline
90
7
70
0
38
0.0
39
0.0
10
4.538894
20
-27.057683
40
0.0
41
0.0
42
0.0
10
4.538894
20
-25.307683
40
0.0
41
0.0
42
0.0
10
3.023349
20
-24.432684
40
0.0
41
0.0
42
0.0
10
1.507805
20
-25.307683
40
0.0
41
0.0
42
0.0
10
1.507805
20
-27.057683
40
0.0
41
0.0
42
0.0
10
3.023349
20
-27.932683
40
0.0
41
0.0
42
0.0
10
4.538894
20
-27.057683
40
0.0
41
0.0
42
0.0
210
0.0
220
0.0
230
1.0
0
LWPOLYLINE
5
65
330
17
100
AcDbEntity
67
0
8
Add_Red
62
256
6
ByLayer
370
-1
48
1.0
60
0
100
AcDbPolyline
90
7
70
0
38
0.0
39
0.0
10
0.507805
20
-27.057683
40
0.0
41
0.0
42
0.0
10
0.507805
20
-25.307683
40
0.0
41
0.0
42
0.0
10
-1.007739
20
-24.432684
40
0.0
41
0.0
42
0.0
10
-2.523283
20
-25.307683
40
0.0
41
0.0
42
0.0
10
-2.523283
20
-27.057683
40
0.0
41
0.0
42
0.0
10
-1.007739
20
-27.932683
40
0.0
41
0.0
42
0.0
10
0.507805
20
-27.057683
40
0.0
41
0.0
42
0.0
210
0.0
220
0.0
230
1.0
0
LWPOLYLINE
5
66
330
17
100
AcDbEntity
67
0
8
Add_Red
62
256
6
ByLayer
370
-1
48
1.0
60
0
100
AcDbPolyline
90
7
70
0
38
0.0
39
0.0
10
-3.523282
20
-27.057683
40
0.0
41
0.0
42
0.0
10
-3.523282
20
-25.307683
40
0.0
41
0.0
42
0.0
10
-5.038827
20
-24.432684
40
0.0
41
0.0
42
0.0
10
-6.554371
20
-25.307683
40
0.0
41
0.0
42
0.0
10
-6.554371
20
-27.057683
40
0.0
41
0.0
42
0.0
10
-5.038827
20
-27.932683
40
0.0
41
0.0
42
0.0
10
-3.523282
20
-27.057683
40
0.0
41
0.0
42
0.0
210
0.0
220
0.0
230
1.0
0
LWPOLYLINE
5
67
330
17
100
AcDbEntity
67
0
8
Add_Red
62
256
6
ByLayer
370
-1
48
1.0
60
0
100
AcDbPolyline
90
5
70
0
38
0.0
39
0.0
10
6.99
20
-24.469887
40
0.0
41
0.0
42
0.0
10
5.538894
20
-25.307683
40
0.0
41
0.0
42
0.0
10
5.538894
20
-27.057683
40
0.0
41
0.0
42
0.0
10
6.99
20
-27.89548
40
0.0
41
0.0
42
0.0
10
6.99
20
-24.469887
40
0.0
41
0.0
42
0.0
210
0.0
220
0.0
230
1.0
0
LWPOLYLINE
5
68
330
17
100
AcDbEntity
67
0
8
Add_Red
62
256
6
ByLayer
370
-1
48
1.0
60
0
100
AcDbPolyline
90
7
70
0
38
0.0
39
0.0
10
6.554447
20
-30.548708
40
0.0
41
0.0
42
0.0
10
6.554447
20
-28.798709
40
0.0
41
0.0
42
0.0
10
5.038903
20
-27.923709
40
0.0
41
0.0
42
0.0
10
3.523358
20
-28.798709
40
0.0
41
0.0
42
0.0
10
3.523358
20
-30.548708
40
0.0
41
0.0
42
0.0
10
5.038903
20
-31.423708
40
0.0
41
0.0
42
0.0
10
6.554447
20
-30.548708
40
0.0
41
0.0
42
0.0
210
0.0
220
0.0
230
1.0
0
LWPOLYLINE
5
69
330
17
100
AcDbEntity
67
0
8
Add_Red
62
256
6
ByLayer
370
-1
48
1.0
60
0
100
AcDbPolyline
90
7
70
0
38
0.0
39
0.0
10
2.523358
20
-30.548708
40
0.0
41
0.0
42
0.0
10
2.523358
20
-28.798709
40
0.0
41
0.0
42
0.0
10
1.007814
20
-27.923709
40
0.0
41
0.0
42
0.0
10
-0.50773
20
-28.798709
40
0.0
41
0.0
42
0.0
10
-0.50773
20
-30.548708
40
0.0
41
0.0
42
0.0
10
1.007814
20
-31.423708
40
0.0
41
0.0
42
0.0
10
2.523358
20
-30.548708
40
0.0
41
0.0
42
0.0
210
0.0
220
0.0
230
1.0
0
LWPOLYLINE
5
6A
330
17
100
AcDbEntity
67
0
8
Add_Red
62
256
6
ByLayer
370
-1
48
1.0
60
0
100
AcDbPolyline
90
7
70
0
38
0.0
39
0.0
10
-1.50773
20
-30.548708
40
0.0
41
0.0
42
0.0
10
-1.50773
20
-28.798709
40
0.0
41
0.0
42
0.0
10
-3.023274
20
-27.923709
40
0.0
41
0.0
42
0.0
10
-4.538819
20
-28.798709
40
0.0
41
0.0
42
0.0
10
-4.538819
20
-30.548708
40
0.0
41
0.0
42
0.0
10
-3.023274
20
-31.423708
40
0.0
41
0.0
42
0.0
10
-1.50773
20
-30.548708
40
0.0
41
0.0
42
0.0
210
0.0
220
0.0
230
1.0
0
LWPOLYLINE
5
6B
330
17
100
AcDbEntity
67
0
8
Add_Red
62
256
6
ByLayer
370
-1
48
1.0
60
0
100
AcDbPolyline
90
5
70
0
38
0.0
39
0.0
10
-5.538819
20
-30.548708
40
0.0
41
0.0
42
0.0
10
-5.538819
20
-28.798709
40
0.0
41
0.0
42
0.0
10
-6.989999
20
-27.96087
40
0.0
41
0.0
42
0.0
10
-6.989999
20
-31.386547
40
0.0
41
0.0
42
0.0
10
-5.538819
20
-30.548708
40
0.0
41
0.0
42
0.0
210
0.0
220
0.0
230
1.0
0
LWPOLYLINE
5
6C
330
17
100
AcDbEntity
67
0
8
Add_Red
62
256
6
ByLayer
370
-1
48
1.0
60
0
100
AcDbPolyline
90
6
70
0
38
0.0
39
0.0
10
4.538904
20
-32.289733
40
0.0
41
0.0
42
0.0
10
3.023359
20
-31.414733
40
0.0
41
0.0
42
0.0
10
1.507815
20
-32.289733
40
0.0
41
0.0
42
0.0
10
1.507815
20
-32.490002
40
0.0
41
0.0
42
0.0
10
4.538904
20
-32.490002
40
0.0
41
0.0
42
0.0
10
4.538904
20
-32.289733
40
0.0
41
0.0
42
0.0
210
0.0
220
0.0
230
1.0
0
LWPOLYLINE
5
6D
330
17
100
AcDbEntity
67
0
8
Add_Red
62
256
6
ByLayer
370
-1
48
1.0
60
0
100
AcDbPolyline
90
6
70
0
38
0.0
39
0.0
10
0.507815
20
-32.289733
40
0.0
41
0.0
42
0.0
10
-1.007729
20
-31.414733
40
0.0
41
0.0
42
0.0
10
-2.523273
20
-32.289733
40
0.0
41
0.0
42
0.0
10
-2.523273
20
-32.490001
40
0.0
41
0.0
42
0.0
10
0.507815
20
-32.490002
40
0.0
41
0.0
42
0.0
10
0.507815
20
-32.289733
40
0.0
41
0.0
42
0.0
210
0.0
220
0.0
230
1.0
0
LWPOLYLINE
5
6E
330
17
100
AcDbEntity
67
0
8
Add_Red
62
256
6
ByLayer
370
-1
48
1.0
60
0
100
AcDbPolyline
90
6
70
0
38
0.0
39
0.0
10
-3.523273
20
-32.289733
40
0.0
41
0.0
42
0.0
10
-5.038818
20
-31.414733
40
0.0
41
0.0
42
0.0
10
-6.554362
20
-32.289733
40
0.0
41
0.0
42
0.0
10
-6.554362
20
-32.49
40
0.0
41
0.0
42
0.0
10
-3.523273
20
-32.490001
40
0.0
41
0.0
42
0.0
10
-3.523273
20
-32.289733
40
0.0
41
0.0
42
0.0
210
0.0
220
0.0
230
1.0
0
LWPOLYLINE
5
6F
330
17
100
AcDbEntity
67
0
8
Add_Red
62
256
6
ByLayer
370
-1
48
1.0
60
0
100
AcDbPolyline
90
5
70
0
38
0.0
39
0.0
10
6.99
20
-31.451942
40
0.0
41
0.0
42
0.0
10
5.538904
20
-32.289733
40
0.0
41
0.0
42
0.0
10
5.538904
20
-32.490003
40
0.0
41
0.0
42
0.0
10
6.99
20
-32.490003
40
0.0
41
0.0
42
0.0
10
6.99
20
-31.451942
40
0.0
41
0.0
42
0.0
210
0.0
220
0.0
230
1.0
0
VIEWPORT
5
74
330
70
100
AcDbEntity
67
1
8
0
62
256
6
ByLayer
370
-1
48
1.0
60
0
100
AcDbViewport
10
0.0
20
0.0
30
0.0
40
297.0
41
210.0
68
1
69
1
12
50.0
22
100.0
13
0.0
23
0.0
14
10.0
24
10.0
15
10.0
25
10.0
16
0.0
26
0.0
36
1.0
17
0.0
27
0.0
37
0.0
42
50.0
43
0.0
44
0.0
45
250.0
50
0.0
51
0.0
72
1000
90
819232
110
0.0
120
0.0
130
0.0
111
1.0
121
0.0
131
0.0
112
0.0
122
1.0
132
0.0
0
ENDSEC
0
SECTION
2
OBJECTS
0
DICTIONARY
5
77
330
0
100
AcDbDictionary
280
0
281
1
3
ACAD_GROUP
350
78
3
ACAD_LAYOUT
350
79
3
ACAD_MLINESTYLE
350
7A
0
DICTIONARY
5
78
330
77
100
AcDbDictionary
280
0
281
1
0
DICTIONARY
5
79
330
77
100
AcDbDictionary
280
0
281
1
3
Model
350
1B
3
Layout1
350
75
0
DICTIONARY
5
7A
330
77
100
AcDbDictionary
280
0
281
1
3
Standard
350
16
0
LAYOUT
5
1B
330
79
100
AcDbPlotSettings
1

2
none_device
4
ISO_A4_(210.00_x_297.00_MM)
6

40
7.5
41
20.0
42
7.5
43
20.0
44
210.0
45
297.0
46
0.0
47
0.0
48
0.0
49
0.0
140
0.0
141
0.0
142
1.0
143
1.0
70
11952
72
1
73
1
74
5
7

75
16
147
1.0
148
0.0
149
0.0
100
AcDbLayout
1
Model
70
1
71
0
10
-20.0
20
-7.5
11
277.0
21
202.5
12
0.0
22
0.0
32
0.0
14
25.7
24
19.5
34
0.0
15
231.3
25
175.5
35
0.0
146
0.0
13
0.0
23
0.0
33
0.0
16
1.0
26
0.0
36
0.0
17
0.0
27
1.0
37
0.0
76
0
330
17
0
LAYOUT
5
75
330
79
100
AcDbPlotSettings
1

2
none_device
4
ISO_A4_(210.00_x_297.00_MM)
6

40
7.5
41
20.0
42
7.5
43
20.0
44
210.0
45
297.0
46
0.0
47
0.0
48
0.0
49
0.0
140
0.0
141
0.0
142
1.0
143
1.0
70
688
72
1
73
1
74
5
7

75
16
147
1.0
148
0.0
149
0.0
100
AcDbLayout
1
Layout1
70
1
71
1
10
-20.0
20
-7.5
11
277.0
21
202.5
12
0.0
22
0.0
32
0.0
14
25.7
24
19.5
34
0.0
15
231.3
25
175.5
35
0.0
146
0.0
13
0.0
23
0.0
33
0.0
16
1.0
26
0.0
36
0.0
17
0.0
27
1.0
37
0.0
76
0
330
70
0
MLINESTYLE
5
16
330
7A
100
AcDbMlineStyle
2
Standard
70
0
3

62
256
51
90.0
52
90.0
71
2
49
0.5
62
256
6
ByLayer
49
-0.5
62
256
6
ByLayer
0
ENDSEC
0
EOF
