  0
SECTION
  2
HEADER
  9
$ACADVER
  1
AC1024
  9
$ACADMAINTVER
 70
6
  9
$DWGCODEPAGE
  3
ANSI_1252
  9
$LASTSAVEDBY
  1
ezdxf
  9
$INSBASE
 10
0.0
 20
0.0
 30
0.0
  9
$EXTMIN
 10
1e+20
 20
1e+20
 30
1e+20
  9
$EXTMAX
 10
-1e+20
 20
-1e+20
 30
-1e+20
  9
$LIMMIN
 10
0.0
 20
0.0
  9
$LIMMAX
 10
420.0
 20
297.0
  9
$ORTHOMODE
 70
0
  9
$REGENMODE
 70
1
  9
$FILLMODE
 70
1
  9
$QTEXTMODE
 70
0
  9
$MIRRTEXT
 70
1
  9
$LTSCALE
 40
1.0
  9
$ATTMODE
 70
1
  9
$TEXTSIZE
 40
2.5
  9
$TRACEWID
 40
1.0
  9
$TEXTSTYLE
  7
Standard
  9
$CLAYER
  8
0
  9
$CELTYPE
  6
ByLayer
  9
$CECOLOR
 62
256
  9
$CELTSCALE
 40
1.0
  9
$DISPSILH
 70
0
  9
$DIMSCALE
 40
1.0
  9
$DIMASZ
 40
2.5
  9
$DIMEXO
 40
0.625
  9
$DIMDLI
 40
3.75
  9
$DIMRND
 40
0.0
  9
$DIMDLE
 40
0.0
  9
$DIMEXE
 40
1.25
  9
$DIMTP
 40
0.0
  9
$DIMTM
 40
0.0
  9
$DIMTXT
 40
2.5
  9
$DIMCEN
 40
2.5
  9
$DIMTSZ
 40
0.0
  9
$DIMTOL
 70
0
  9
$DIMLIM
 70
0
  9
$DIMTIH
 70
0
  9
$DIMTOH
 70
0
  9
$DIMSE1
 70
0
  9
$DIMSE2
 70
0
  9
$DIMTAD
 70
1
  9
$DIMZIN
 70
8
  9
$DIMBLK
  1

  9
$DIMASO
 70
1
  9
$DIMSHO
 70
1
  9
$DIMPOST
  1

  9
$DIMAPOST
  1

  9
$DIMALT
 70
0
  9
$DIMALTD
 70
3
  9
$DIMALTF
 40
0.03937007874
  9
$DIMLFAC
 40
1.0
  9
$DIMTOFL
 70
1
  9
$DIMTVP
 40
0.0
  9
$DIMTIX
 70
0
  9
$DIMSOXD
 70
0
  9
$DIMSAH
 70
0
  9
$DIMBLK1
  1

  9
$DIMBLK2
  1

  9
$DIMSTYLE
  2
ISO-25
  9
$DIMCLRD
 70
0
  9
$DIMCLRE
 70
0
  9
$DIMCLRT
 70
0
  9
$DIMTFAC
 40
1.0
  9
$DIMGAP
 40
0.625
  9
$DIMJUST
 70
0
  9
$DIMSD1
 70
0
  9
$DIMSD2
 70
0
  9
$DIMTOLJ
 70
0
  9
$DIMTZIN
 70
8
  9
$DIMALTZ
 70
0
  9
$DIMALTTZ
 70
0
  9
$DIMUPT
 70
0
  9
$DIMDEC
 70
2
  9
$DIMTDEC
 70
2
  9
$DIMALTU
 70
2
  9
$DIMALTTD
 70
3
  9
$DIMTXSTY
  7
Standard
  9
$DIMAUNIT
 70
0
  9
$DIMADEC
 70
0
  9
$DIMALTRND
 40
0.0
  9
$DIMAZIN
 70
0
  9
$DIMDSEP
 70
44
  9
$DIMATFIT
 70
3
  9
$DIMFRAC
 70
0
  9
$DIMLDRBLK
  1

  9
$DIMLUNIT
 70
2
  9
$DIMLWD
 70
-2
  9
$DIMLWE
 70
-2
  9
$DIMTMOVE
 70
0
  9
$DIMFXL
 40
1.0
  9
$DIMFXLON
 70
0
  9
$DIMJOGANG
 40
0.785398163397
  9
$DIMTFILL
 70
0
  9
$DIMTFILLCLR
 70
0
  9
$DIMARCSYM
 70
0
  9
$DIMLTYPE
  6

  9
$DIMLTEX1
  6

  9
$DIMLTEX2
  6

  9
$DIMTXTDIRECTION
 70
0
  9
$LUNITS
 70
2
  9
$LUPREC
 70
4
  9
$SKETCHINC
 40
1.0
  9
$FILLETRAD
 40
10.0
  9
$AUNITS
 70
0
  9
$AUPREC
 70
2
  9
$MENU
  1
.
  9
$ELEVATION
 40
0.0
  9
$PELEVATION
 40
0.0
  9
$THICKNESS
 40
0.0
  9
$LIMCHECK
 70
0
  9
$CHAMFERA
 40
0.0
  9
$CHAMFERB
 40
0.0
  9
$CHAMFERC
 40
0.0
  9
$CHAMFERD
 40
0.0
  9
$SKPOLY
 70
0
  9
$TDCREATE
 40
2461138.751724537
  9
$TDUCREATE
 40
2458532.153996898
  9
$TDUPDATE
 40
2461138.751724537
  9
$TDUUPDATE
 40
2458532.1544311
  9
$TDINDWG
 40
0.0
  9
$TDUSRTIMER
 40
0.0
  9
$USRTIMER
 70
1
  9
$ANGBASE
 50
0.0
  9
$ANGDIR
 70
0
  9
$PDMODE
 70
0
  9
$PDSIZE
 40
0.0
  9
$PLINEWID
 40
0.0
  9
$SPLFRAME
 70
0
  9
$SPLINETYPE
 70
6
  9
$SPLINESEGS
 70
8
  9
$HANDSEED
  5
43
  9
$SURFTAB1
 70
6
  9
$SURFTAB2
 70
6
  9
$SURFTYPE
 70
6
  9
$SURFU
 70
6
  9
$SURFV
 70
6
  9
$UCSBASE
  2

  9
$UCSNAME
  2

  9
$UCSORG
 10
0.0
 20
0.0
 30
0.0
  9
$UCSXDIR
 10
1.0
 20
0.0
 30
0.0
  9
$UCSYDIR
 10
0.0
 20
1.0
 30
0.0
  9
$UCSORTHOREF
  2

  9
$UCSORTHOVIEW
 70
0
  9
$UCSORGTOP
 10
0.0
 20
0.0
 30
0.0
  9
$UCSORGBOTTOM
 10
0.0
 20
0.0
 30
0.0
  9
$UCSORGLEFT
 10
0.0
 20
0.0
 30
0.0
  9
$UCSORGRIGHT
 10
0.0
 20
0.0
 30
0.0
  9
$UCSORGFRONT
 10
0.0
 20
0.0
 30
0.0
  9
$UCSORGBACK
 10
0.0
 20
0.0
 30
0.0
  9
$PUCSBASE
  2

  9
$PUCSNAME
  2

  9
$PUCSORG
 10
0.0
 20
0.0
 30
0.0
  9
$PUCSXDIR
 10
1.0
 20
0.0
 30
0.0
  9
$PUCSYDIR
 10
0.0
 20
1.0
 30
0.0
  9
$PUCSORTHOREF
  2

  9
$PUCSORTHOVIEW
 70
0
  9
$PUCSORGTOP
 10
0.0
 20
0.0
 30
0.0
  9
$PUCSORGBOTTOM
 10
0.0
 20
0.0
 30
0.0
  9
$PUCSORGLEFT
 10
0.0
 20
0.0
 30
0.0
  9
$PUCSORGRIGHT
 10
0.0
 20
0.0
 30
0.0
  9
$PUCSORGFRONT
 10
0.0
 20
0.0
 30
0.0
  9
$PUCSORGBACK
 10
0.0
 20
0.0
 30
0.0
  9
$USERI1
 70
0
  9
$USERI2
 70
0
  9
$USERI3
 70
0
  9
$USERI4
 70
0
  9
$USERI5
 70
0
  9
$USERR1
 40
0.0
  9
$USERR2
 40
0.0
  9
$USERR3
 40
0.0
  9
$USERR4
 40
0.0
  9
$USERR5
 40
0.0
  9
$WORLDVIEW
 70
1
  9
$SHADEDGE
 70
3
  9
$SHADEDIF
 70
70
  9
$TILEMODE
 70
1
  9
$MAXACTVP
 70
64
  9
$PINSBASE
 10
0.0
 20
0.0
 30
0.0
  9
$PLIMCHECK
 70
0
  9
$PEXTMIN
 10
1e+20
 20
1e+20
 30
1e+20
  9
$PEXTMAX
 10
-1e+20
 20
-1e+20
 30
-1e+20
  9
$PLIMMIN
 10
0.0
 20
0.0
  9
$PLIMMAX
 10
420.0
 20
297.0
  9
$UNITMODE
 70
0
  9
$VISRETAIN
 70
1
  9
$PLINEGEN
 70
0
  9
$PSLTSCALE
 70
1
  9
$TREEDEPTH
 70
3020
  9
$CMLSTYLE
  2
Standard
  9
$CMLJUST
 70
0
  9
$CMLSCALE
 40
20.0
  9
$PROXYGRAPHICS
 70
1
  9
$MEASUREMENT
 70
1
  9
$CELWEIGHT
370
-1
  9
$ENDCAPS
280
0
  9
$JOINSTYLE
280
0
  9
$LWDISPLAY
290
0
  9
$INSUNITS
 70
6
  9
$HYPERLINKBASE
  1

  9
$STYLESHEET
  1

  9
$XEDIT
290
1
  9
$CEPSNTYPE
380
0
  9
$PSTYLEMODE
290
1
  9
$FINGERPRINTGUID
  2
{EFF8D5AB-C9E8-4AD6-A262-BA8311E798B0}
  9
$VERSIONGUID
  2
{A54AF4E2-5F6E-42A2-86AC-7EA55823098C}
  9
$EXTNAMES
290
1
  9
$PSVPSCALE
 40
0.0
  9
$OLESTARTUP
290
0
  9
$SORTENTS
280
127
  9
$INDEXCTL
280
0
  9
$HIDETEXT
280
1
  9
$XCLIPFRAME
280
1
  9
$HALOGAP
280
0
  9
$OBSCOLOR
 70
257
  9
$OBSLTYPE
280
0
  9
$INTERSECTIONDISPLAY
280
0
  9
$INTERSECTIONCOLOR
 70
257
  9
$DIMASSOC
280
2
  9
$PROJECTNAME
  1

  9
$CAMERADISPLAY
290
0
  9
$LENSLENGTH
 40
50.0
  9
$CAMERAHEIGHT
 40
0.0
  9
$STEPSPERSEC
 40
24.0
  9
$STEPSIZE
 40
100.0
  9
$3DDWFPREC
 40
2.0
  9
$PSOLWIDTH
 40
0.005
  9
$PSOLHEIGHT
 40
0.08
  9
$LOFTANG1
 40
1.570796326795
  9
$LOFTANG2
 40
1.570796326795
  9
$LOFTMAG1
 40
0.0
  9
$LOFTMAG2
 40
0.0
  9
$LOFTPARAM
 70
7
  9
$LOFTNORMALS
280
1
  9
$LATITUDE
 40
37.795
  9
$LONGITUDE
 40
-122.394
  9
$NORTHDIRECTION
 40
0.0
  9
$TIMEZONE
 70
-8000
  9
$LIGHTGLYPHDISPLAY
280
1
  9
$TILEMODELIGHTSYNCH
280
1
  9
$CMATERIAL
347
20
  9
$SOLIDHIST
280
0
  9
$SHOWHIST
280
1
  9
$DWFFRAME
280
2
  9
$DGNFRAME
280
2
  9
$REALWORLDSCALE
290
1
  9
$INTERFERECOLOR
 62
256
  9
$CSHADOW
280
0
  9
$SHADOWPLANELOCATION
 40
0.0
  0
ENDSEC
  0
SECTION
  2
CLASSES
  0
CLASS
  1
ACDBDICTIONARYWDFLT
  2
AcDbDictionaryWithDefault
  3
ObjectDBX Classes
 90
0
 91
0
280
0
281
0
  0
CLASS
  1
SUN
  2
AcDbSun
  3
SCENEOE
 90
1153
 91
0
280
0
281
0
  0
CLASS
  1
VISUALSTYLE
  2
AcDbVisualStyle
  3
ObjectDBX Classes
 90
4095
 91
0
280
0
281
0
  0
CLASS
  1
MATERIAL
  2
AcDbMaterial
  3
ObjectDBX Classes
 90
1153
 91
0
280
0
281
0
  0
CLASS
  1
SCALE
  2
AcDbScale
  3
ObjectDBX Classes
 90
1153
 91
0
280
0
281
0
  0
CLASS
  1
TABLESTYLE
  2
AcDbTableStyle
  3
ObjectDBX Classes
 90
4095
 91
0
280
0
281
0
  0
CLASS
  1
MLEADERSTYLE
  2
AcDbMLeaderStyle
  3
ACDB_MLEADERSTYLE_CLASS
 90
4095
 91
0
280
0
281
0
  0
CLASS
  1
DICTIONARYVAR
  2
AcDbDictionaryVar
  3
ObjectDBX Classes
 90
0
 91
0
280
0
281
0
  0
CLASS
  1
CELLSTYLEMAP
  2
AcDbCellStyleMap
  3
ObjectDBX Classes
 90
1152
 91
0
280
0
281
0
  0
CLASS
  1
MENTALRAYRENDERSETTINGS
  2
AcDbMentalRayRenderSettings
  3
SCENEOE
 90
1024
 91
0
280
0
281
0
  0
CLASS
  1
ACDBDETAILVIEWSTYLE
  2
AcDbDetailViewStyle
  3
ObjectDBX Classes
 90
1025
 91
0
280
0
281
0
  0
CLASS
  1
ACDBSECTIONVIEWSTYLE
  2
AcDbSectionViewStyle
  3
ObjectDBX Classes
 90
1025
 91
0
280
0
281
0
  0
CLASS
  1
RASTERVARIABLES
  2
AcDbRasterVariables
  3
ISM
 90
0
 91
0
280
0
281
0
  0
CLASS
  1
LAYOUT
  2
AcDbLayout
  3
ObjectDBX Classes
 90
0
 91
0
280
0
281
0
  0
CLASS
  1
ACDBPLACEHOLDER
  2
AcDbPlaceHolder
  3
ObjectDBX Classes
 90
0
 91
0
280
0
281
0
  0
ENDSEC
  0
SECTION
  2
TABLES
  0
TABLE
  2
VPORT
  5
8
330
0
100
AcDbSymbolTable
 70
1
  0
VPORT
  5
23
330
8
100
AcDbSymbolTableRecord
100
AcDbViewportTableRecord
  2
*Active
 70
0
 10
0.0
 20
0.0
 11
1.0
 21
1.0
 12
0.0
 22
0.0
 13
0.0
 23
0.0
 14
0.5
 24
0.5
 15
0.5
 25
0.5
 16
0.0
 26
0.0
 36
1.0
 17
0.0
 27
0.0
 37
0.0
 40
1000.0
 41
1.34
 42
50.0
 43
0.0
 44
0.0
 50
0.0
 51
0.0
 71
0
 72
1000
 73
1
 74
3
 75
0
 76
0
 77
0
 78
0
281
0
 65
0
146
0.0
  0
ENDTAB
  0
TABLE
  2
LTYPE
  5
2
330
0
100
AcDbSymbolTable
 70
3
  0
LTYPE
  5
24
330
2
100
AcDbSymbolTableRecord
100
AcDbLinetypeTableRecord
  2
ByBlock
 70
0
  3

 72
65
 73
0
 40
0.0
  0
LTYPE
  5
25
330
2
100
AcDbSymbolTableRecord
100
AcDbLinetypeTableRecord
  2
ByLayer
 70
0
  3

 72
65
 73
0
 40
0.0
  0
LTYPE
  5
26
330
2
100
AcDbSymbolTableRecord
100
AcDbLinetypeTableRecord
  2
Continuous
 70
0
  3

 72
65
 73
0
 40
0.0
  0
ENDTAB
  0
TABLE
  2
LAYER
  5
1
330
0
100
AcDbSymbolTable
 70
2
  0
LAYER
  5
27
330
1
100
AcDbSymbolTableRecord
100
AcDbLayerTableRecord
  2
0
 70
0
 62
7
  6
Continuous
370
-3
390
13
347
21
  0
LAYER
  5
28
330
1
100
AcDbSymbolTableRecord
100
AcDbLayerTableRecord
  2
Defpoints
 70
0
 62
7
  6
Continuous
290
0
370
-3
390
13
347
21
  0
ENDTAB
  0
TABLE
  2
STYLE
  5
5
330
0
100
AcDbSymbolTable
 70
1
  0
STYLE
  5
29
330
5
100
AcDbSymbolTableRecord
100
AcDbTextStyleTableRecord
  2
Standard
 70
0
 40
0.0
 41
1.0
 50
0.0
 71
0
 42
2.5
  3
txt
  4

  0
ENDTAB
  0
TABLE
  2
VIEW
  5
7
330
0
100
AcDbSymbolTable
 70
0
  0
ENDTAB
  0
TABLE
  2
UCS
  5
6
330
0
100
AcDbSymbolTable
 70
0
  0
ENDTAB
  0
TABLE
  2
APPID
  5
3
330
0
100
AcDbSymbolTable
 70
3
  0
APPID
  5
2A
330
3
100
AcDbSymbolTableRecord
100
AcDbRegAppTableRecord
  2
ACAD
 70
0
  0
APPID
  5
40
330
3
100
AcDbSymbolTableRecord
100
AcDbRegAppTableRecord
  2
HATCHBACKGROUNDCOLOR
 70
0
  0
APPID
  5
41
330
3
100
AcDbSymbolTableRecord
100
AcDbRegAppTableRecord
  2
EZDXF
 70
0
  0
ENDTAB
  0
TABLE
  2
DIMSTYLE
  5
4
330
0
100
AcDbSymbolTable
 70
1
100
AcDbDimStyleTable
  0
DIMSTYLE
105
2B
330
4
100
AcDbSymbolTableRecord
100
AcDbDimStyleTableRecord
  2
Standard
 70
0
 40
1.0
 41
2.5
 42
0.625
 43
3.75
 44
1.25
 45
0.0
 46
0.0
 47
0.0
 48
0.0
 49
2.5
140
2.5
141
2.5
142
0.0
143
0.03937007874
144
1.0
145
0.0
146
1.0
147
0.625
148
0.0
 69
0
 70
0
 71
0
 72
0
 73
0
 74
0
 75
0
 76
0
 77
1
 78
8
 79
3
170
0
171
3
172
1
173
0
174
0
175
0
176
0
177
0
178
0
179
2
271
2
272
2
273
2
274
3
275
0
276
0
277
2
278
44
279
0
280
0
281
0
282
0
283
0
284
8
285
0
286
0
288
0
289
3
290
0
371
-2
372
-2
  0
ENDTAB
  0
TABLE
  2
BLOCK_RECORD
  5
9
330
0
100
AcDbSymbolTable
 70
2
  0
BLOCK_RECORD
  5
17
330
9
100
AcDbSymbolTableRecord
100
AcDbBlockTableRecord
  2
*Model_Space
340
1A
 70
0
280
1
281
0
  0
BLOCK_RECORD
  5
1B
330
9
100
AcDbSymbolTableRecord
100
AcDbBlockTableRecord
  2
*Paper_Space
340
1E
 70
0
280
1
281
0
  0
ENDTAB
  0
ENDSEC
  0
SECTION
  2
BLOCKS
  0
BLOCK
  5
18
330
17
100
AcDbEntity
  8
0
100
AcDbBlockBegin
  2
*Model_Space
 70
0
 10
0.0
 20
0.0
 30
0.0
  3
*Model_Space
  1

  0
ENDBLK
  5
19
330
17
100
AcDbEntity
  8
0
100
AcDbBlockEnd
  0
BLOCK
  5
1C
330
1B
100
AcDbEntity
  8
0
100
AcDbBlockBegin
  2
*Paper_Space
 70
0
 10
0.0
 20
0.0
 30
0.0
  3
*Paper_Space
  1

  0
ENDBLK
  5
1D
330
1B
100
AcDbEntity
  8
0
100
AcDbBlockEnd
  0
ENDSEC
  0
SECTION
  2
ENTITIES
  0
LWPOLYLINE
  5
2F
330
17
100
AcDbEntity
  8
0
100
AcDbPolyline
 90
50
 70
0
 10
290.97097
 20
-79.443326
 10
228.13873600000002
 20
-79.443326
 10
224.89820400000002
 20
-92.44965
 10
254.60960000000003
 20
-92.75800600000001
 10
254.65252600000002
 20
-92.75343400000001
 10
254.694182
 20
-92.74378200000001
 10
254.73406000000003
 20
-92.72955800000001
 10
254.77216
 20
-92.71076200000002
 10
254.80822800000004
 20
-92.68790200000002
 10
254.84175600000003
 20
-92.66097800000001
 10
255.16992400000004
 20
-92.31503000000001
 10
255.50164800000005
 20
-92.03309000000002
 10
256.27558600000003
 20
-91.52204200000001
 10
257.13461400000006
 20
-91.08287600000001
 10
258.00431000000003
 20
-90.71838600000001
 10
260.10133400000007
 20
-90.05265200000002
 10
259.889244
 20
-90.06154200000003
 10
259.682742
 20
-90.05493800000002
 10
259.48208200000005
 20
-90.03411000000003
 10
259.100066
 20
-89.95587800000003
 10
258.74548200000004
 20
-89.83776800000003
 10
258.421124
 20
-89.69070200000003
 10
258.129786
 20
-89.52560200000003
 10
257.873754
 20
-89.35339000000003
 10
257.521202
 20
-89.06840200000003
 10
257.44551
 20
-88.98890000000003
 10
257.3782
 20
-88.90304800000003
 10
257.319272
 20
-88.81160800000002
 10
257.26898000000006
 20
-88.71508800000002
 10
257.227324
 20
-88.61425000000003
 10
257.194812
 20
-88.50985600000003
 10
257.16357
 20
-88.34755000000003
 10
257.15823600000004
 20
-88.27922400000003
 10
257.159506
 20
-88.21191400000004
 10
257.167126
 20
-88.14587400000003
 10
257.180588
 20
-88.08161200000004
 10
257.19989200000003
 20
-88.01938200000004
 10
257.22453
 20
-87.95943800000003
 10
257.254502
 20
-87.90203400000004
 10
257.289554
 20
-87.84767800000003
 10
257.32943200000005
 20
-87.79687800000004
 10
257.37388200000004
 20
-87.74963400000004
 10
257.42239600000005
 20
-87.70645400000004
 10
257.47497400000003
 20
-87.66784600000004
 10
257.53136200000006
 20
-87.63406400000005
 10
257.59130600000003
 20
-87.60536200000006
 10
257.654552
 20
-87.58199400000005
 10
261.260082
 20
-86.85479200000006
 10
290.82085600000005
 20
-86.85707800000006
 10
290.97147800000005
 20
-79.44408800000005
  0
LWPOLYLINE
  5
30
330
17
100
AcDbEntity
  8
0
100
AcDbPolyline
 90
65
 70
0
 10
228.58577600000004
 20
-87.19591400000006
 10
228.38841800000003
 20
-87.20582000000006
 10
228.19664800000004
 20
-87.23503000000005
 10
228.01148200000003
 20
-87.28252800000006
 10
227.83419000000004
 20
-87.34755200000005
 10
227.66528000000005
 20
-87.42883200000006
 10
227.50602200000006
 20
-87.52560600000004
 10
227.35743200000005
 20
-87.63685800000005
 10
227.22027200000005
 20
-87.76157200000004
 10
227.09555800000007
 20
-87.89873200000004
 10
226.98430600000006
 20
-88.04732200000004
 10
226.88753200000008
 20
-88.20658000000005
 10
226.80625200000006
 20
-88.37549000000004
 10
226.74122800000006
 20
-88.55278200000004
 10
226.69373000000007
 20
-88.73794800000003
 10
226.66452000000007
 20
-88.92971800000004
 10
226.65461400000007
 20
-89.12707600000003
 10
226.66452000000007
 20
-89.32443400000002
 10
226.69373000000007
 20
-89.51620400000003
 10
226.74122800000006
 20
-89.70137000000003
 10
226.80625200000006
 20
-89.87866200000002
 10
226.88753200000008
 20
-90.04757200000002
 10
226.98430600000006
 20
-90.20683000000002
 10
227.09555800000007
 20
-90.35542000000002
 10
227.22027200000005
 20
-90.49258000000003
 10
227.35743200000005
 20
-90.61729400000002
 10
227.50602200000006
 20
-90.72854600000002
 10
227.66528000000005
 20
-90.82532
 10
227.83419000000004
 20
-90.90660000000001
 10
228.01148200000003
 20
-90.971624
 10
228.19664800000004
 20
-91.01912200000001
 10
228.38841800000003
 20
-91.048332
 10
228.58577600000004
 20
-91.058238
 10
228.78313400000008
 20
-91.048332
 10
228.97490400000007
 20
-91.01912200000001
 10
229.16007000000008
 20
-90.971624
 10
229.33736200000007
 20
-90.90660000000001
 10
229.50627200000005
 20
-90.82532
 10
229.66553000000005
 20
-90.72854600000002
 10
229.81412000000006
 20
-90.61729400000002
 10
229.95128000000005
 20
-90.49258000000003
 10
230.07599400000004
 20
-90.35542000000002
 10
230.18724600000004
 20
-90.20683000000002
 10
230.28402000000003
 20
-90.04757200000002
 10
230.36530000000005
 20
-89.87866200000002
 10
230.43032400000004
 20
-89.70137000000003
 10
230.47782200000003
 20
-89.51620400000003
 10
230.50703200000004
 20
-89.32443400000002
 10
230.51693800000004
 20
-89.12707600000003
 10
230.50703200000004
 20
-88.92971800000004
 10
230.47782200000003
 20
-88.73794800000003
 10
230.43032400000004
 20
-88.55278200000004
 10
230.36530000000005
 20
-88.37549000000004
 10
230.28402000000003
 20
-88.20658000000005
 10
230.18724600000004
 20
-88.04732200000004
 10
230.07599400000004
 20
-87.89873200000004
 10
229.95128000000005
 20
-87.76157200000004
 10
229.81412000000006
 20
-87.63685800000005
 10
229.66553000000005
 20
-87.52560600000004
 10
229.50627200000005
 20
-87.42883200000006
 10
229.33736200000007
 20
-87.34755200000005
 10
229.16007000000008
 20
-87.28252800000006
 10
228.97490400000007
 20
-87.23503000000005
 10
228.78313400000008
 20
-87.20582000000006
 10
228.58577600000004
 20
-87.19591400000006
  0
LWPOLYLINE
  5
31
330
17
100
AcDbEntity
  8
0
100
AcDbPolyline
 90
65
 70
0
 10
245.88876400000004
 20
-80.03082800000006
 10
245.53037000000006
 20
-80.04886200000007
 10
245.18213600000007
 20
-80.10194800000006
 10
244.84609400000005
 20
-80.18830800000006
 10
244.52402200000006
 20
-80.30616400000005
 10
244.21744400000006
 20
-80.45373800000006
 10
243.92839200000006
 20
-80.62925200000005
 10
243.65839000000005
 20
-80.83118200000006
 10
243.40947000000006
 20
-81.05749600000007
 10
243.18315600000005
 20
-81.30641600000007
 10
242.98122600000008
 20
-81.57641800000006
 10
242.80545800000007
 20
-81.86547000000006
 10
242.65788400000005
 20
-82.17204800000006
 10
242.54002800000004
 20
-82.49412000000005
 10
242.45366800000005
 20
-82.83016200000004
 10
242.40058200000004
 20
-83.17839600000003
 10
242.38254800000004
 20
-83.53679000000004
 10
242.40058200000004
 20
-83.89518400000004
 10
242.45366800000005
 20
-84.24341800000003
 10
242.54002800000004
 20
-84.57946000000003
 10
242.65788400000005
 20
-84.90153200000003
 10
242.80545800000007
 20
-85.20811000000002
 10
242.98122600000008
 20
-85.49716200000002
 10
243.18315600000005
 20
-85.76716400000001
 10
243.40947000000006
 20
-86.01608400000002
 10
243.65839000000005
 20
-86.24239800000002
 10
243.92839200000006
 20
-86.44432800000003
 10
244.21744400000006
 20
-86.62009600000003
 10
244.52402200000006
 20
-86.76767000000004
 10
244.84609400000005
 20
-86.88552600000004
 10
245.18213600000007
 20
-86.97188600000003
 10
245.53037000000006
 20
-87.02497200000003
 10
245.88876400000004
 20
-87.04300600000003
 10
246.24741200000005
 20
-87.02497200000003
 10
246.59564600000004
 20
-86.97188600000003
 10
246.93168800000004
 20
-86.88552600000004
 10
247.25376000000006
 20
-86.76767000000004
 10
247.56033800000006
 20
-86.62009600000003
 10
247.84939000000006
 20
-86.44432800000003
 10
248.11939200000006
 20
-86.24239800000002
 10
248.36831200000006
 20
-86.01608400000002
 10
248.59462600000003
 20
-85.76716400000001
 10
248.79655600000004
 20
-85.49716200000002
 10
248.97207000000003
 20
-85.20811000000002
 10
249.11964400000005
 20
-84.90153200000003
 10
249.23750000000007
 20
-84.57946000000003
 10
249.32386000000008
 20
-84.24341800000003
 10
249.37694600000006
 20
-83.89518400000004
 10
249.39498000000006
 20
-83.53679000000004
 10
249.37694600000006
 20
-83.17839600000003
 10
249.32386000000008
 20
-82.83016200000004
 10
249.23750000000007
 20
-82.49412000000005
 10
249.11964400000005
 20
-82.17204800000006
 10
248.97207000000003
 20
-81.86547000000006
 10
248.79655600000004
 20
-81.57641800000006
 10
248.59462600000003
 20
-81.30641600000007
 10
248.36831200000006
 20
-81.05749600000007
 10
248.11939200000006
 20
-80.83118200000006
 10
247.84939000000006
 20
-80.62925200000005
 10
247.56033800000006
 20
-80.45373800000006
 10
247.25376000000006
 20
-80.30616400000005
 10
246.93168800000004
 20
-80.18830800000006
 10
246.59564600000004
 20
-80.10194800000006
 10
246.24741200000005
 20
-80.04886200000007
 10
245.88876400000004
 20
-80.03082800000006
  0
LWPOLYLINE
  5
32
330
17
100
AcDbEntity
  8
0
100
AcDbPolyline
 90
84
 70
0
 10
225.62083400000006
 20
-79.44383400000007
 10
225.59492600000004
 20
-79.44561200000007
 10
225.56927200000007
 20
-79.44942200000006
 10
225.54361800000007
 20
-79.45551800000005
 10
225.51847200000003
 20
-79.46390000000007
 10
225.49383400000005
 20
-79.47482200000006
 10
225.46970400000004
 20
-79.48803000000007
 10
225.44633600000006
 20
-79.50377800000007
 10
225.42398400000005
 20
-79.52232000000006
 10
225.40264800000006
 20
-79.54340200000007
 10
221.73057000000009
 20
-84.38642000000007
 10
221.62287400000008
 20
-84.48751200000008
 10
221.50501800000006
 20
-84.57488800000009
 10
221.37827200000007
 20
-84.64778600000008
 10
221.24390600000007
 20
-84.70569800000008
 10
221.10344400000005
 20
-84.74786200000008
 10
220.95815600000006
 20
-84.77377000000007
 10
214.07729600000005
 20
-84.78266000000008
 10
214.31834200000003
 20
-85.30666200000007
 10
214.34171000000003
 20
-85.37905200000009
 10
214.35898200000003
 20
-85.45271200000009
 10
214.37015800000003
 20
-85.52764200000009
 10
214.37498400000004
 20
-85.60308000000009
 10
214.37371400000004
 20
-85.6787720000001
 10
214.36609400000003
 20
-85.7544640000001
 10
214.35212400000006
 20
-85.82964800000009
 10
209.75294600000007
 20
-103.4206720000001
 10
209.60918200000006
 20
-103.72623400000008
 10
209.42909600000007
 20
-104.01173000000009
 10
208.71865800000006
 20
-104.80903600000009
 10
209.57082800000006
 20
-104.56443400000009
 10
210.34502000000006
 20
-104.41305000000008
 10
211.04402800000005
 20
-104.34421600000009
 10
211.67115400000006
 20
-104.34726400000008
 10
212.22970000000004
 20
-104.41152600000008
 10
212.72296800000004
 20
-104.52633400000008
 10
213.15400600000004
 20
-104.68102000000007
 10
213.52611600000006
 20
-104.86491600000006
 10
213.84234600000005
 20
-105.06710000000007
 10
214.10599800000006
 20
-105.27715800000007
 10
214.32037400000007
 20
-105.48416800000007
 10
214.48852200000007
 20
-105.67746200000008
 10
214.69908800000007
 20
-105.98048400000008
 10
214.76360400000007
 20
-106.10037200000006
 10
214.73566400000007
 20
-106.00232800000006
 10
214.6424460000001
 20
-105.55020800000007
 10
214.5309400000001
 20
-104.51338000000007
 10
214.50706400000007
 20
-103.60888600000007
 10
214.60129800000007
 20
-102.76560600000008
 10
216.00490200000007
 20
-97.03892200000007
 10
216.39453800000007
 20
-96.15576400000008
 10
216.85758000000007
 20
-95.38843000000007
 10
217.37904200000006
 20
-94.72904600000008
 10
217.94419200000007
 20
-94.16923000000007
 10
218.53804400000004
 20
-93.70085400000008
 10
219.14586600000007
 20
-93.31579000000008
 10
219.75267200000008
 20
-93.00591000000007
 10
220.34373000000005
 20
-92.76283200000006
 10
220.90430800000007
 20
-92.57868200000006
 10
221.87382600000007
 20
-92.35440000000007
 10
222.54286200000007
 20
-92.26753200000007
 10
222.79229000000007
 20
-92.25305400000006
 10
225.94874800000005
 20
-79.80502200000006
 10
225.95154200000005
 20
-79.77505000000006
 10
225.95179600000006
 20
-79.74609400000007
 10
225.94951000000003
 20
-79.71790000000009
 10
225.94468400000005
 20
-79.69072200000008
 10
225.93757200000005
 20
-79.66481400000008
 10
225.92842800000005
 20
-79.63992200000007
 10
225.91725200000005
 20
-79.61630000000007
 10
225.90404400000006
 20
-79.59394800000007
 10
225.88905800000006
 20
-79.57286600000006
 10
225.87254800000005
 20
-79.55305400000006
 10
225.85451400000005
 20
-79.53476600000006
 10
225.83521000000005
 20
-79.51800200000007
 10
225.81463600000004
 20
-79.50276200000008
 10
225.79279200000002
 20
-79.48904600000007
 10
225.77018600000002
 20
-79.47710800000007
 10
225.74656400000003
 20
-79.46694800000006
 10
225.72218
 20
-79.45856600000006
 10
225.69728800000004
 20
-79.45196200000005
 10
225.67188800000002
 20
-79.44739000000007
 10
225.64623400000002
 20
-79.44485000000007
 10
225.62032600000003
 20
-79.44434200000006
  0
LWPOLYLINE
  5
33
330
17
100
AcDbEntity
  8
0
100
AcDbPolyline
 90
33
 70
0
 10
305.55057000000005
 20
-62.378844000000065
 10
250.67590200000004
 20
-62.72352200000006
 10
250.64135800000005
 20
-68.47992400000005
 10
250.54610800000003
 20
-68.96303200000006
 10
250.39955000000003
 20
-69.46315800000005
 10
250.16307600000005
 20
-70.04380200000006
 10
250.00534200000004
 20
-70.34276000000006
 10
249.81839800000003
 20
-70.63587600000005
 10
249.59970400000003
 20
-70.91451400000005
 10
249.34722800000003
 20
-71.17003800000005
 10
249.20752800000005
 20
-71.28637000000005
 10
249.05843000000004
 20
-71.39381200000005
 10
248.89993400000006
 20
-71.49109400000005
 10
248.73127800000006
 20
-71.57720000000005
 10
248.55271600000006
 20
-71.65111400000005
 10
248.36348600000005
 20
-71.71182000000005
 10
248.16358800000003
 20
-71.75804800000004
 10
247.95276800000002
 20
-71.78878200000004
 10
306.51577000000003
 20
-71.58202600000003
 10
306.860448
 20
-63.37833400000003
 10
306.85232
 20
-63.33820200000004
 10
306.82057000000003
 20
-63.23177600000003
 10
306.755038
 20
-63.080138000000034
 10
306.70627
 20
-62.99403200000003
 10
306.645056
 20
-62.90437000000003
 10
306.570126
 20
-62.81394600000003
 10
306.48021
 20
-62.72530000000003
 10
306.373784
 20
-62.64122600000004
 10
306.24983199999997
 20
-62.56401000000004
 10
306.10682999999995
 20
-62.49644600000004
 10
305.94350799999995
 20
-62.441328000000034
 10
305.7585959999999
 20
-62.40119600000004
 10
305.5508239999999
 20
-62.37859000000004
  0
LWPOLYLINE
  5
34
330
17
100
AcDbEntity
  8
0
100
AcDbPolyline
 90
57
 70
0
 10
228.03053199999994
 20
-64.34302600000004
 10
216.0696719999999
 20
-64.34302600000004
 10
212.1745819999999
 20
-78.92338800000005
 10
265.0502699999999
 20
-78.92338800000005
 10
267.1658359999999
 20
-73.22337400000005
 10
238.7155499999999
 20
-72.85786800000004
 10
228.2858019999999
 20
-71.85914000000004
 10
218.68333199999992
 20
-71.79208400000003
 10
218.47911599999992
 20
-71.90359000000004
 10
218.36862599999992
 20
-71.94956400000004
 10
218.25229399999995
 20
-71.98842600000005
 10
218.13011999999995
 20
-72.01966800000004
 10
218.00184999999993
 20
-72.04252800000003
 10
217.86722999999995
 20
-72.05675200000003
 10
217.72625999999997
 20
-72.06157800000003
 10
217.51391599999997
 20
-72.05116400000003
 10
217.31554199999997
 20
-72.02093800000002
 10
217.13062999999997
 20
-71.97191600000002
 10
216.959434
 20
-71.90587600000003
 10
216.801954
 20
-71.82383400000003
 10
216.65819
 20
-71.72706000000004
 10
216.528142
 20
-71.61707800000005
 10
216.41181
 20
-71.49515800000003
 10
216.309194
 20
-71.36257000000003
 10
216.220294
 20
-71.22058400000003
 10
216.14511
 20
-71.07072400000004
 10
216.083642
 20
-70.91426000000004
 10
216.03589
 20
-70.75246200000004
 10
216.00185399999998
 20
-70.58660000000003
 10
215.98128
 20
-70.41819800000003
 10
215.97442199999998
 20
-70.24852600000004
 10
215.98128
 20
-70.07885400000004
 10
216.00185399999998
 20
-69.91045200000003
 10
216.03614399999998
 20
-69.74459000000003
 10
216.08415
 20
-69.58279200000003
 10
216.145872
 20
-69.42632800000003
 10
216.221056
 20
-69.27646800000004
 10
216.309956
 20
-69.13448200000003
 10
216.412572
 20
-69.00189400000004
 10
216.528904
 20
-68.87997400000002
 10
216.658952
 20
-68.76999200000003
 10
216.802462
 20
-68.67321800000003
 10
216.959688
 20
-68.59117600000003
 10
217.13063
 20
-68.52513600000005
 10
217.315288
 20
-68.47611400000005
 10
217.51366199999998
 20
-68.44588800000004
 10
217.76791599999999
 20
-68.43598200000004
 10
217.932254
 20
-68.44563400000004
 10
218.08821
 20
-68.46747800000004
 10
218.23553
 20
-68.50100600000005
 10
218.37446800000004
 20
-68.54545600000006
 10
218.50527800000003
 20
-68.60006600000004
 10
218.62770600000002
 20
-68.66432800000004
 10
218.74200600000003
 20
-68.73748000000005
 10
218.82227000000003
 20
-68.79767800000005
 10
227.93071000000003
 20
-68.61784600000004
 10
228.02977000000004
 20
-64.34328000000004
  0
LWPOLYLINE
  5
35
330
17
100
AcDbEntity
  8
0
100
AcDbPolyline
 90
50
 70
0
 10
292.350952
 20
-73.30084400000004
 10
286.74060000000003
 20
-73.30084400000004
 10
284.35401600000006
 20
-78.92440400000004
 10
290.41953600000005
 20
-78.97723600000005
 10
290.51046800000006
 20
-78.96453600000005
 10
290.5986060000001
 20
-78.94320000000005
 10
290.68344200000007
 20
-78.91373600000006
 10
290.7644680000001
 20
-78.87665200000005
 10
290.841176
 20
-78.83245600000005
 10
290.913058
 20
-78.78140200000004
 10
290.979606
 20
-78.72399800000005
 10
291.040312
 20
-78.66049800000005
 10
291.094922
 20
-78.59166400000004
 10
291.142674
 20
-78.51749600000005
 10
291.18306
 20
-78.43875600000005
 10
291.215572
 20
-78.35595200000004
 10
291.239702
 20
-78.26933800000005
 10
291.255196
 20
-78.17942200000005
 10
291.29609
 20
-77.52918200000005
 10
291.35857400000003
 20
-77.11668600000004
 10
291.461952
 20
-76.68361600000004
 10
291.614352
 20
-76.24038600000004
 10
291.82390200000003
 20
-75.79766400000004
 10
292.09898400000003
 20
-75.36561000000003
 10
292.263576
 20
-75.15682200000003
 10
292.447726
 20
-74.95463800000005
 10
292.71036200000003
 20
-74.70444800000004
 10
292.76319400000006
 20
-74.64425000000003
 10
292.81043800000003
 20
-74.58024200000003
 10
292.852094
 20
-74.51293200000003
 10
292.88790800000004
 20
-74.44282800000003
 10
292.917372
 20
-74.37043800000002
 10
292.94074000000006
 20
-74.29627000000004
 10
292.95750400000003
 20
-74.22057800000003
 10
292.96791800000005
 20
-74.14412400000003
 10
292.971474
 20
-74.06716200000004
 10
292.96817200000004
 20
-73.99045400000003
 10
292.95750400000003
 20
-73.91425400000003
 10
292.93972400000007
 20
-73.83907000000002
 10
292.9143240000001
 20
-73.76541000000002
 10
292.88130400000006
 20
-73.69378200000003
 10
292.84066400000006
 20
-73.62469400000003
 10
292.79951600000004
 20
-73.56754400000003
 10
292.753034
 20
-73.51369600000002
 10
292.70121800000004
 20
-73.46391200000002
 10
292.64356000000004
 20
-73.41895400000001
 10
292.58006
 20
-73.37958400000002
 10
292.51021000000003
 20
-73.34631000000003
 10
292.43350200000003
 20
-73.31989400000003
 10
292.34993600000007
 20
-73.30109800000002
  0
LWPOLYLINE
  5
36
330
17
100
AcDbEntity
  8
0
100
AcDbPolyline
 90
26
 70
0
 10
291.920676
 20
-81.19592600000003
 10
291.920676
 20
-78.61503200000003
 10
291.9097540000001
 20
-78.47025200000003
 10
291.91077
 20
-78.08595000000004
 10
291.97401600000006
 20
-77.53654800000002
 10
292.04462800000005
 20
-77.22311200000003
 10
292.14978400000007
 20
-76.89646800000004
 10
292.29558000000003
 20
-76.56576000000003
 10
292.48836600000004
 20
-76.24064000000004
 10
292.6044440000001
 20
-76.08290600000004
 10
292.73449200000005
 20
-75.92999800000004
 10
292.87952600000006
 20
-75.78318600000006
 10
293.04030800000004
 20
-75.64348600000005
 10
293.217346
 20
-75.51216800000005
 10
293.41165600000005
 20
-75.39024800000004
 10
293.6240000000001
 20
-75.27899600000005
 10
293.85514000000006
 20
-75.17968200000004
 10
294.1060920000001
 20
-75.09332200000006
 10
294.6697180000001
 20
-74.96429000000006
 10
294.9841700000001
 20
-74.92390400000006
 10
305.8386060000001
 20
-74.92390400000006
 10
305.1827780000001
 20
-76.58938200000006
 10
305.0400300000001
 20
-77.16621600000006
 10
304.95519400000006
 20
-77.75422600000006
 10
304.94605000000007
 20
-81.19541800000006
 10
291.92067600000007
 20
-81.19541800000006
  0
LWPOLYLINE
  5
37
330
17
100
AcDbEntity
  8
0
100
AcDbPolyline
 90
12
 70
0
 10
184.18937000000008
 20
-64.14338200000006
 10
180.4278840000001
 20
-64.14338200000006
 10
177.2008140000001
 20
-77.96199800000007
 10
177.5533660000001
 20
-78.10830200000007
 10
178.43195200000008
 20
-78.38998800000006
 10
178.98491000000007
 20
-78.50809800000006
 10
179.56860200000008
 20
-78.57159800000005
 10
179.86171800000008
 20
-78.57363000000005
 10
180.15000800000007
 20
-78.55102400000006
 10
180.4291540000001
 20
-78.49997000000005
 10
180.6950920000001
 20
-78.41691200000005
 10
184.18937000000008
 20
-64.14312800000005
  0
LWPOLYLINE
  5
38
330
17
100
AcDbEntity
  8
0
100
AcDbPolyline
 90
82
 70
0
 10
194.86067200000008
 20
-148.14194400000005
 10
204.91627800000006
 20
-112.45723000000007
 10
204.9343120000001
 20
-112.33302400000007
 10
204.94167800000008
 20
-112.20907200000006
 10
204.93837600000006
 20
-112.08613600000007
 10
204.92466000000007
 20
-111.96472400000007
 10
204.90078400000007
 20
-111.84559800000007
 10
204.86725600000008
 20
-111.72901200000007
 10
204.8240760000001
 20
-111.61572800000006
 10
204.77175200000008
 20
-111.50650800000007
 10
204.7105380000001
 20
-111.40186000000007
 10
204.6404340000001
 20
-111.30229200000007
 10
204.56194800000011
 20
-111.20831200000006
 10
204.47533400000012
 20
-111.12068200000006
 10
204.3808460000001
 20
-111.03965600000005
 10
204.27873800000012
 20
-110.96625000000006
 10
203.6805680000001
 20
-110.59998200000005
 10
203.3310640000001
 20
-110.33683800000006
 10
202.97063800000012
 20
-110.01756000000006
 10
202.60640200000012
 20
-109.63681400000004
 10
202.2454680000001
 20
-109.18952000000004
 10
201.89469400000013
 20
-108.67034400000004
 10
201.2431840000001
 20
-107.45470000000005
 10
201.1484420000001
 20
-107.32084200000006
 10
201.04455600000009
 20
-107.19511200000005
 10
200.93228800000009
 20
-107.07776400000006
 10
200.8121460000001
 20
-106.96905200000005
 10
200.68463800000012
 20
-106.86923000000006
 10
200.5505260000001
 20
-106.77880600000006
 10
200.2645220000001
 20
-106.62666000000006
 10
199.9584520000001
 20
-106.51515400000005
 10
199.6371420000001
 20
-106.44657400000007
 10
199.4722960000001
 20
-106.42904800000007
 10
189.91910200000012
 20
-106.17504800000006
 10
189.0196880000001
 20
-106.22838800000005
 10
188.1322120000001
 20
-106.35894400000005
 10
187.26200800000007
 20
-106.56544600000005
 10
186.41415600000008
 20
-106.84662400000006
 10
185.5942440000001
 20
-107.20171600000006
 10
184.80709800000008
 20
-107.62919800000006
 10
184.0583060000001
 20
-108.12830800000006
 10
183.07202400000008
 20
-108.94288600000006
 10
182.26455800000008
 20
-109.75289200000006
 10
181.5244020000001
 20
-110.66907000000008
 10
180.8878780000001
 20
-111.69319800000007
 10
175.1289360000001
 20
-123.08484400000006
 10
171.40250200000008
 20
-133.03275400000004
 10
170.01871000000008
 20
-138.42669800000004
 10
169.2341040000001
 20
-143.82140400000006
 10
169.1700960000001
 20
-149.38756000000006
 10
169.21073600000008
 20
-150.05329400000005
 10
169.27322000000007
 20
-150.40381400000004
 10
169.36669200000009
 20
-150.74265000000003
 10
169.4896280000001
 20
-151.06827800000005
 10
169.6405040000001
 20
-151.37892000000002
 10
169.8177960000001
 20
-151.67330600000003
 10
170.01998000000012
 20
-151.94965800000003
 10
170.24553200000014
 20
-152.206452
 10
170.49318200000013
 20
-152.44191000000004
 10
170.76115200000012
 20
-152.654762
 10
171.0481720000001
 20
-152.84323
 10
171.3524640000001
 20
-153.006044
 10
171.6727580000001
 20
-153.141172
 10
172.0075300000001
 20
-153.247344
 10
172.3552560000001
 20
-153.323036
 10
189.2068860000001
 20
-153.781252
 10
190.52768600000013
 20
-153.661872
 10
190.86982400000014
 20
-153.591006
 10
191.2025640000001
 20
-153.495502
 10
191.5251440000001
 20
-153.37612199999998
 10
191.83629400000012
 20
-153.233882
 10
192.1349980000001
 20
-153.069544
 10
192.4199860000001
 20
-152.88412399999999
 10
192.6902420000001
 20
-152.678638
 10
192.94475000000008
 20
-152.453848
 10
193.18224000000006
 20
-152.210516
 10
193.40169600000007
 20
-151.949912
 10
193.6021020000001
 20
-151.67254400000002
 10
193.78218800000008
 20
-151.37968200000003
 10
193.94093800000007
 20
-151.07183400000002
 10
194.07708200000005
 20
-150.75027000000003
 10
194.86041800000004
 20
-148.14219800000004
  0
LWPOLYLINE
  5
39
330
17
100
AcDbEntity
  8
0
100
AcDbPolyline
 90
65
 70
0
 10
198.44435800000005
 20
-111.79835400000002
 10
198.42734000000004
 20
-112.13490400000002
 10
198.37755600000003
 20
-112.461802
 10
198.29653000000005
 20
-112.77727000000002
 10
198.18578600000004
 20
-113.079784
 10
198.04710200000002
 20
-113.367566
 10
197.882256
 20
-113.63883799999999
 10
197.69277200000002
 20
-113.89233
 10
197.48042800000002
 20
-114.12601000000001
 10
197.24674800000003
 20
-114.33835400000001
 10
196.99325600000003
 20
-114.527838
 10
196.72173000000004
 20
-114.692684
 10
196.43394800000002
 20
-114.831368
 10
196.131434
 20
-114.942112
 10
195.81596600000003
 20
-115.023138
 10
195.489068
 20
-115.072922
 10
195.15251800000001
 20
-115.08994
 10
194.815968
 20
-115.072922
 10
194.48907
 20
-115.023138
 10
194.173602
 20
-114.942112
 10
193.871088
 20
-114.831368
 10
193.58330599999996
 20
-114.692684
 10
193.31203399999998
 20
-114.527838
 10
193.05854199999996
 20
-114.33835400000001
 10
192.82486199999997
 20
-114.12601000000001
 10
192.61251799999997
 20
-113.89233
 10
192.42303399999997
 20
-113.63883799999999
 10
192.258188
 20
-113.367566
 10
192.11950399999998
 20
-113.079784
 10
192.00875999999997
 20
-112.77727000000002
 10
191.92773399999996
 20
-112.461802
 10
191.87794999999997
 20
-112.13490400000002
 10
191.86093199999996
 20
-111.79835400000002
 10
191.87794999999997
 20
-111.46180400000001
 10
191.92773399999996
 20
-111.13490600000003
 10
192.00875999999997
 20
-110.81943800000002
 10
192.11950399999998
 20
-110.51692400000003
 10
192.258188
 20
-110.22914200000004
 10
192.42303399999997
 20
-109.95761600000003
 10
192.61251799999997
 20
-109.70412400000004
 10
192.82486199999997
 20
-109.47044400000003
 10
193.05854199999996
 20
-109.25810000000003
 10
193.31203399999998
 20
-109.06861600000003
 10
193.58330599999996
 20
-108.90377000000002
 10
193.871088
 20
-108.76508600000003
 10
194.173602
 20
-108.65434200000004
 10
194.48907
 20
-108.57331600000003
 10
194.815968
 20
-108.52353200000003
 10
195.15251800000001
 20
-108.50651400000002
 10
195.489068
 20
-108.52353200000003
 10
195.81596600000003
 20
-108.57331600000003
 10
196.131434
 20
-108.65434200000004
 10
196.43394800000002
 20
-108.76508600000003
 10
196.72173000000004
 20
-108.90377000000002
 10
196.99325600000003
 20
-109.06861600000003
 10
197.24674800000003
 20
-109.25810000000003
 10
197.48042800000002
 20
-109.47044400000003
 10
197.69277200000002
 20
-109.70412400000004
 10
197.882256
 20
-109.95761600000003
 10
198.04710200000002
 20
-110.22914200000004
 10
198.18578600000004
 20
-110.51692400000003
 10
198.29653000000005
 20
-110.81943800000002
 10
198.37755600000003
 20
-111.13490600000003
 10
198.42734000000004
 20
-111.46180400000001
 10
198.44435800000005
 20
-111.79835400000002
  0
LWPOLYLINE
  5
3A
330
17
100
AcDbEntity
  8
0
100
AcDbPolyline
 90
65
 70
0
 10
195.50532400000003
 20
-126.58140800000002
 10
195.54571000000004
 20
-127.06807200000003
 10
195.53707400000005
 20
-127.54711600000003
 10
195.48119400000002
 20
-128.01600000000002
 10
195.380356
 20
-128.47167600000003
 10
195.236592
 20
-128.91160400000004
 10
195.05193400000002
 20
-129.33324400000004
 10
194.828414
 20
-129.73380200000003
 10
194.568318
 20
-130.110484
 10
194.27342400000003
 20
-130.46075000000002
 10
193.94576400000003
 20
-130.78180600000005
 10
193.58762400000003
 20
-131.07085800000004
 10
193.20103600000004
 20
-131.32536600000003
 10
192.78777800000006
 20
-131.54253600000004
 10
192.35013600000005
 20
-131.71982800000004
 10
191.89014200000005
 20
-131.85444800000002
 10
191.40982800000006
 20
-131.94360200000003
 10
190.92316400000004
 20
-131.983988
 10
190.44412000000005
 20
-131.97535200000002
 10
189.97523600000005
 20
-131.919472
 10
189.51956000000007
 20
-131.818634
 10
189.07963200000006
 20
-131.67487
 10
188.65799200000006
 20
-131.490212
 10
188.25743400000007
 20
-131.266692
 10
187.8807520000001
 20
-131.006596
 10
187.53048600000008
 20
-130.711702
 10
187.20943000000008
 20
-130.38404200000002
 10
186.92037800000006
 20
-130.02590200000003
 10
186.66587000000007
 20
-129.639314
 10
186.4487000000001
 20
-129.22631000000004
 10
186.2714080000001
 20
-128.78866800000003
 10
186.13678800000008
 20
-128.32867400000003
 10
186.0476340000001
 20
-127.84836000000003
 10
186.0072480000001
 20
-127.36169600000002
 10
186.01588400000009
 20
-126.88265200000002
 10
186.0717640000001
 20
-126.41376800000002
 10
186.1726020000001
 20
-125.95809200000002
 10
186.31636600000013
 20
-125.51816400000001
 10
186.50102400000011
 20
-125.096524
 10
186.72454400000012
 20
-124.69596600000001
 10
186.9846400000001
 20
-124.31928400000001
 10
187.2795340000001
 20
-123.969018
 10
187.60719400000008
 20
-123.647962
 10
187.96533400000007
 20
-123.35891000000001
 10
188.3519220000001
 20
-123.10440200000001
 10
188.7649260000001
 20
-122.887232
 10
189.20256800000007
 20
-122.70994
 10
189.6625620000001
 20
-122.57532000000002
 10
190.1428760000001
 20
-122.48616600000001
 10
190.62954000000008
 20
-122.44578000000001
 10
191.1085840000001
 20
-122.45441600000001
 10
191.57746800000007
 20
-122.51029600000003
 10
192.03314400000008
 20
-122.61113400000002
 10
192.47307200000006
 20
-122.75489800000001
 10
192.89471200000006
 20
-122.93955600000001
 10
193.29527000000007
 20
-123.163076
 10
193.67195200000003
 20
-123.42317200000001
 10
194.02221800000004
 20
-123.71806600000001
 10
194.34327400000006
 20
-124.045726
 10
194.63232600000006
 20
-124.40386600000002
 10
194.88683400000005
 20
-124.79045400000001
 10
195.10400400000006
 20
-125.20345800000001
 10
195.28129600000005
 20
-125.64110000000001
 10
195.41591600000004
 20
-126.101094
 10
195.50507000000005
 20
-126.58140800000001
  0
LWPOLYLINE
  5
3B
330
17
100
AcDbEntity
  8
0
100
AcDbPolyline
 90
65
 70
0
 10
190.20815400000004
 20
-142.550642
 10
190.19113600000003
 20
-142.88719200000003
 10
190.141352
 20
-143.21409000000003
 10
190.06032600000003
 20
-143.52955800000004
 10
189.94958200000002
 20
-143.83207200000004
 10
189.810898
 20
-144.11985400000006
 10
189.646052
 20
-144.39138000000003
 10
189.456568
 20
-144.64487200000005
 10
189.244224
 20
-144.87855200000004
 10
189.010544
 20
-145.09089600000004
 10
188.75705200000002
 20
-145.28038000000004
 10
188.48578
 20
-145.44522600000005
 10
188.197998
 20
-145.58391000000006
 10
187.895484
 20
-145.69465400000007
 10
187.580016
 20
-145.77568000000005
 10
187.253118
 20
-145.82546400000007
 10
186.91656799999998
 20
-145.84248200000005
 10
186.58001799999997
 20
-145.82546400000007
 10
186.25311999999997
 20
-145.77568000000005
 10
185.93765199999999
 20
-145.69465400000007
 10
185.63513799999996
 20
-145.58391000000006
 10
185.34735599999996
 20
-145.44522600000005
 10
185.07582999999997
 20
-145.28038000000004
 10
184.82233799999995
 20
-145.09089600000004
 10
184.58865799999998
 20
-144.87855200000004
 10
184.37631399999995
 20
-144.64487200000005
 10
184.18682999999996
 20
-144.39138000000003
 10
184.02198399999997
 20
-144.11985400000006
 10
183.88329999999996
 20
-143.83207200000004
 10
183.77255599999995
 20
-143.52955800000004
 10
183.69152999999994
 20
-143.21409000000003
 10
183.64174599999996
 20
-142.88719200000003
 10
183.62472799999995
 20
-142.550642
 10
183.64174599999996
 20
-142.21409200000002
 10
183.69152999999994
 20
-141.887194
 10
183.77255599999995
 20
-141.571726
 10
183.88329999999996
 20
-141.269212
 10
184.02198399999997
 20
-140.98143
 10
184.18682999999996
 20
-140.710158
 10
184.37631399999995
 20
-140.45666599999998
 10
184.58865799999998
 20
-140.222986
 10
184.82233799999995
 20
-140.010642
 10
185.07582999999997
 20
-139.821158
 10
185.34735599999996
 20
-139.65631199999999
 10
185.63513799999996
 20
-139.51762799999997
 10
185.93765199999999
 20
-139.40688399999996
 10
186.25311999999997
 20
-139.32585799999998
 10
186.58001799999997
 20
-139.27607399999997
 10
186.91656799999998
 20
-139.259056
 10
187.253118
 20
-139.27607399999997
 10
187.580016
 20
-139.32585799999998
 10
187.895484
 20
-139.40688399999996
 10
188.197998
 20
-139.51762799999997
 10
188.48578
 20
-139.65631199999999
 10
188.75705200000002
 20
-139.821158
 10
189.010544
 20
-140.010642
 10
189.244224
 20
-140.222986
 10
189.456568
 20
-140.45666599999998
 10
189.646052
 20
-140.710158
 10
189.810898
 20
-140.98143
 10
189.94958200000002
 20
-141.269212
 10
190.06032600000003
 20
-141.571726
 10
190.141352
 20
-141.887194
 10
190.19113600000003
 20
-142.21409200000002
 10
190.20815400000004
 20
-142.550642
  0
LWPOLYLINE
  5
3C
330
17
100
AcDbEntity
  8
0
100
AcDbPolyline
 90
57
 70
0
 10
183.83631000000003
 20
-83.32216000000003
 10
183.78855800000002
 20
-83.29091800000002
 10
183.63336400000003
 20
-83.20633600000002
 10
183.35294800000003
 20
-83.08136800000001
 10
182.34634600000004
 20
-82.76386800000002
 10
180.627528
 20
-82.44459
 10
179.202842
 20
-82.306668
 10
178.951128
 20
-82.31784400000001
 10
178.70297000000002
 20
-82.350356
 10
178.459638
 20
-82.403696
 10
178.22214800000003
 20
-82.47710199999999
 10
177.99202400000004
 20
-82.569812
 10
177.77028200000004
 20
-82.68157199999999
 10
177.55819200000002
 20
-82.81161999999999
 10
177.35702400000002
 20
-82.959194
 10
177.16804800000003
 20
-83.12378600000001
 10
176.992534
 20
-83.304888
 10
176.831498
 20
-83.501738
 10
176.686464
 20
-83.713828
 10
176.558448
 20
-83.94039599999999
 10
176.44871999999998
 20
-84.180934
 10
176.35854999999998
 20
-84.434934
 10
176.272698
 20
-84.785962
 10
176.229518
 20
-85.155532
 10
176.23663000000002
 20
-85.541866
 10
176.261268
 20
-85.741002
 10
176.3014
 20
-85.943694
 10
176.357788
 20
-86.149942
 10
176.431448
 20
-86.359492
 10
176.63464799999997
 20
-86.787482
 10
176.91836599999996
 20
-87.22613999999999
 10
177.28996799999996
 20
-87.67394199999998
 10
177.90109199999995
 20
-88.04757599999999
 10
179.44845999999995
 20
-89.20225999999998
 10
180.43931399999994
 20
-90.08821199999998
 10
181.50357399999996
 20
-91.18828599999999
 10
182.58764599999995
 20
-92.508832
 10
183.63793599999997
 20
-94.05619999999999
 10
182.35523599999996
 20
-90.95765399999999
 10
181.82691599999995
 20
-89.12682199999998
 10
181.64149599999996
 20
-88.17787799999998
 10
181.53735599999996
 20
-87.24112599999998
 10
181.53633999999997
 20
-86.34247399999998
 10
181.58129799999995
 20
-85.91549999999998
 10
181.66003799999996
 20
-85.50757599999999
 10
181.77560799999995
 20
-85.12200399999999
 10
181.93029399999998
 20
-84.762086
 10
182.12714399999996
 20
-84.431124
 10
182.24220599999995
 20
-84.27745399999999
 10
182.36869799999997
 20
-84.132166
 10
182.50712799999997
 20
-83.995768
 10
182.65774999999994
 20
-83.868514
 10
182.82081799999995
 20
-83.750912
 10
182.99683999999996
 20
-83.64347000000001
 10
183.18606999999994
 20
-83.546442
 10
183.60567799999995
 20
-83.385406
 10
183.83656399999995
 20
-83.32216
  0
LWPOLYLINE
  5
3D
330
17
100
AcDbEntity
  8
0
100
AcDbPolyline
 90
66
 70
0
 10
185.99581799999996
 20
-95.571564
 10
186.12408799999994
 20
-96.132396
 10
186.20460599999996
 20
-96.670114
 10
186.25159599999995
 20
-97.75444
 10
186.16421999999994
 20
-98.84003600000001
 10
185.96381399999993
 20
-99.91369399999999
 10
185.41288799999995
 20
-101.716078
 10
183.30214799999996
 20
-106.55350800000001
 10
183.25185599999995
 20
-106.64571000000001
 10
183.22594799999996
 20
-106.68584200000001
 10
183.19953199999995
 20
-106.720894
 10
183.17260799999997
 20
-106.74985
 10
183.15889199999995
 20
-106.761788
 10
183.14517599999996
 20
-106.77194800000001
 10
184.61456599999997
 20
-105.936796
 10
186.18072999999998
 20
-105.289858
 10
187.811918
 20
-104.83316599999999
 10
189.476126
 20
-104.56900599999999
 10
191.500506
 20
-104.47705799999999
 10
200.46543599999998
 20
-104.86516999999999
 10
201.62088199999997
 20
-105.065576
 10
201.85786399999998
 20
-105.08843599999999
 10
202.09408399999995
 20
-105.09300799999997
 10
202.32852599999995
 20
-105.07954599999998
 10
202.55966599999996
 20
-105.04830399999997
 10
202.78648799999996
 20
-104.99953599999998
 10
203.00772199999994
 20
-104.93349599999998
 10
203.22209799999996
 20
-104.85043799999998
 10
203.42834599999998
 20
-104.75061599999998
 10
203.62519599999996
 20
-104.63453799999999
 10
203.81163199999997
 20
-104.50220399999998
 10
203.98612999999997
 20
-104.35386799999998
 10
204.14767399999997
 20
-104.19003799999999
 10
204.29499399999997
 20
-104.01071399999998
 10
204.42682
 20
-103.81640399999999
 10
204.55458199999998
 20
-103.58069199999998
 10
207.10271
 20
-97.3582
 10
208.568036
 20
-92.13494399999999
 10
209.83524200000002
 20
-83.85073399999999
 10
209.83194
 20
-83.84819399999998
 10
209.822034
 20
-83.84565399999998
 10
186.01410600000003
 20
-83.40750399999997
 10
185.81039800000002
 20
-83.43315799999998
 10
185.60846800000002
 20
-83.47481399999998
 10
185.40933200000003
 20
-83.53196399999999
 10
185.214006
 20
-83.60409999999997
 10
185.02325200000004
 20
-83.69096799999998
 10
184.83834000000004
 20
-83.79205999999998
 10
184.66003200000003
 20
-83.90686799999999
 10
184.48934400000005
 20
-84.03488399999999
 10
184.32729200000003
 20
-84.17585399999999
 10
184.17489200000003
 20
-84.32926999999998
 10
184.03316
 20
-84.49487799999999
 10
183.902858
 20
-84.67216999999998
 10
183.785002
 20
-84.86063799999998
 10
183.68086200000002
 20
-85.05977399999998
 10
183.34228000000002
 20
-85.94851999999999
 10
183.114188
 20
-86.83345599999998
 10
183.051196
 20
-87.27922599999998
 10
183.027066
 20
-87.73286999999998
 10
183.0451
 20
-88.19870599999999
 10
183.10885399999998
 20
-88.68105199999998
 10
183.21654999999998
 20
-89.16161999999998
 10
183.54344799999998
 20
-90.10649999999998
 10
185.83452799999998
 20
-95.03663999999999
 10
185.99632599999998
 20
-95.57258
  0
LWPOLYLINE
  5
3E
330
17
100
AcDbEntity
  8
0
100
AcDbPolyline
 90
35
 70
0
 10
210.402932
 20
-111.471964
 10
210.14334399999998
 20
-111.406178
 10
209.89061399999997
 20
-111.31905599999999
 10
209.64601199999998
 20
-111.21161399999998
 10
209.410554
 20
-111.08537599999998
 10
209.18525599999998
 20
-110.94135799999998
 10
208.971134
 20
-110.78057599999998
 10
208.76945800000001
 20
-110.60429999999998
 10
208.58099
 20
-110.413546
 10
208.40700000000004
 20
-110.20958399999999
 10
208.24850400000003
 20
-109.99342999999999
 10
208.10651800000002
 20
-109.76635399999999
 10
207.98205800000002
 20
-109.52962599999998
 10
207.876394
 20
-109.28426199999998
 10
207.790288
 20
-109.03153199999998
 10
207.72501000000003
 20
-108.77245199999999
 10
207.681576
 20
-108.50803799999998
 10
207.62112399999998
 20
-108.59846199999998
 10
207.567784
 20
-108.69244199999999
 10
207.48142399999998
 20
-108.889546
 10
207.42046399999998
 20
-109.09655599999999
 10
207.38236399999997
 20
-109.310932
 10
207.364838
 20
-109.53013399999999
 10
207.3656
 20
-109.751622
 10
207.41259
 20
-110.19078799999998
 10
207.77580999999998
 20
-111.90223999999999
 10
207.79867
 20
-112.31168799999999
 10
207.77987399999998
 20
-112.71859599999999
 10
207.72475599999999
 20
-113.12270999999998
 10
207.525366
 20
-113.921286
 10
207.08137399999998
 20
-115.09120999999999
 10
207.767428
 20
-114.06225599999999
 10
208.55406599999998
 20
-113.108486
 10
209.43468399999998
 20
-112.24132999999999
 10
210.40242399999997
 20
-111.472218
  0
LWPOLYLINE
  5
3F
330
17
100
AcDbEntity
  8
0
100
AcDbPolyline
 90
71
 70
0
 10
167.04208399999996
 20
-68.38289599999999
 10
167.14342999999997
 20
-68.41058199999998
 10
167.33469199999996
 20
-68.48500399999998
 10
168.31436999999997
 20
-69.06056799999999
 10
168.59529399999997
 20
-69.19620399999998
 10
168.89018799999994
 20
-69.30440799999998
 10
169.04512799999995
 20
-69.34606399999998
 10
169.39818799999995
 20
-69.40930999999998
 10
169.75708999999995
 20
-69.43597999999999
 10
170.11903999999996
 20
-69.42988399999999
 10
170.48124399999995
 20
-69.394324
 10
171.19599999999994
 20
-69.24903599999999
 10
171.87951399999994
 20
-69.027802
 10
172.42408999999995
 20
-68.79589999999999
 10
172.95850599999997
 20
-68.51497599999999
 10
173.47387199999997
 20
-68.18731599999998
 10
173.96129799999997
 20
-67.81520599999999
 10
174.04740399999997
 20
-67.87261
 10
174.126398
 20
-67.940936
 10
174.19904199999996
 20
-68.018406
 10
174.26558999999995
 20
-68.10349599999999
 10
174.38344599999996
 20
-68.28916999999998
 10
175.87493399999997
 20
-71.20000999999999
 10
175.93335399999995
 20
-71.35240999999999
 10
175.97983599999995
 20
-71.51115999999999
 10
176.03927199999998
 20
-71.84364599999999
 10
176.05806799999996
 20
-72.18934
 10
176.04155799999995
 20
-72.53985999999999
 10
175.99456799999996
 20
-72.887078
 10
175.92243199999996
 20
-73.222866
 10
175.83022999999994
 20
-73.538842
 10
175.71262799999997
 20
-73.851262
 10
175.56048199999995
 20
-74.17054000000002
 10
175.38141199999993
 20
-74.47508600000002
 10
175.17694199999994
 20
-74.76312200000002
 10
174.94910399999992
 20
-75.03236200000002
 10
174.69942199999994
 20
-75.28102800000002
 10
174.42941999999994
 20
-75.50708800000001
 10
173.99050799999995
 20
-75.79944200000001
 10
173.49012799999994
 20
-74.84491000000003
 10
172.85563599999995
 20
-73.93178000000002
 10
172.49520999999996
 20
-73.50810800000001
 10
172.10963799999993
 20
-73.11542400000002
 10
171.70196799999994
 20
-72.76084000000002
 10
171.27473999999992
 20
-72.45121400000001
 10
170.83023999999992
 20
-72.18832400000001
 10
168.03115999999994
 20
-70.94855000000001
 10
167.45076999999995
 20
-70.59549000000001
 10
167.18610199999995
 20
-70.40245000000002
 10
166.94251599999996
 20
-70.18655000000001
 10
166.83304199999995
 20
-70.06767800000002
 10
166.73423599999992
 20
-69.93991600000001
 10
166.64812999999992
 20
-69.80250200000002
 10
166.57802599999994
 20
-69.65391200000002
 10
166.52773399999995
 20
-69.49592400000002
 10
166.49826999999993
 20
-69.33260200000002
 10
166.49191999999994
 20
-69.25030600000002
 10
166.49141199999997
 20
-69.16826400000002
 10
166.49674599999994
 20
-69.08698400000003
 10
166.50842999999998
 20
-69.00697400000003
 10
166.52646399999998
 20
-68.92874200000003
 10
166.55084799999997
 20
-68.85279600000003
 10
166.58183599999995
 20
-68.77964400000003
 10
166.61968199999995
 20
-68.70979400000003
 10
166.66463999999996
 20
-68.64400800000003
 10
166.71696399999996
 20
-68.58254000000002
 10
166.75176199999996
 20
-68.54850400000002
 10
166.78859199999994
 20
-68.51751600000001
 10
166.86758599999996
 20
-68.46392200000001
 10
166.95216799999994
 20
-68.41972600000003
 10
167.04106799999997
 20
-68.38289600000003
  0
ENDSEC
  0
SECTION
  2
OBJECTS
  0
DICTIONARY
  5
A
330
0
100
AcDbDictionary
281
1
  3
ACAD_COLOR
350
B
  3
ACAD_GROUP
350
C
  3
ACAD_LAYOUT
350
D
  3
ACAD_MATERIAL
350
E
  3
ACAD_MLEADERSTYLE
350
F
  3
ACAD_MLINESTYLE
350
10
  3
ACAD_PLOTSETTINGS
350
11
  3
ACAD_PLOTSTYLENAME
350
12
  3
ACAD_SCALELIST
350
14
  3
ACAD_TABLESTYLE
350
15
  3
ACAD_VISUALSTYLE
350
16
  3
EZDXF_META
350
2D
  0
DICTIONARY
  5
B
330
A
100
AcDbDictionary
281
1
  0
DICTIONARY
  5
C
330
A
100
AcDbDictionary
281
1
  0
DICTIONARY
  5
D
330
A
100
AcDbDictionary
281
1
  3
Model
350
1A
  3
Layout1
350
1E
  0
DICTIONARY
  5
E
330
A
100
AcDbDictionary
281
1
  3
ByBlock
350
1F
  3
ByLayer
350
20
  3
Global
350
21
  0
DICTIONARY
  5
F
330
A
100
AcDbDictionary
281
1
  3
Standard
350
2C
  0
DICTIONARY
  5
10
330
A
100
AcDbDictionary
281
1
  3
Standard
350
22
  0
DICTIONARY
  5
11
330
A
100
AcDbDictionary
281
1
  0
ACDBDICTIONARYWDFLT
  5
12
330
A
100
AcDbDictionary
281
1
  3
Normal
350
13
100
AcDbDictionaryWithDefault
340
13
  0
ACDBPLACEHOLDER
  5
13
330
12
  0
DICTIONARY
  5
14
330
A
100
AcDbDictionary
281
1
  0
DICTIONARY
  5
15
330
A
100
AcDbDictionary
281
1
  0
DICTIONARY
  5
16
330
A
100
AcDbDictionary
281
1
  0
LAYOUT
  5
1A
330
D
100
AcDbPlotSettings
  1

  4
A3
  6

 40
7.5
 41
20.0
 42
7.5
 43
20.0
 44
420.0
 45
297.0
 46
0.0
 47
0.0
 48
0.0
 49
0.0
140
0.0
141
0.0
142
1.0
143
1.0
 70
1024
 72
1
 73
0
 74
5
  7

 75
16
 76
0
 77
2
 78
300
147
1.0
148
0.0
149
0.0
100
AcDbLayout
  1
Model
 70
1
 71
0
 10
0.0
 20
0.0
 11
420.0
 21
297.0
 12
0.0
 22
0.0
 32
0.0
 14
1e+20
 24
1e+20
 34
1e+20
 15
-1e+20
 25
-1e+20
 35
-1e+20
146
0.0
 13
0.0
 23
0.0
 33
0.0
 16
1.0
 26
0.0
 36
0.0
 17
0.0
 27
1.0
 37
0.0
 76
1
330
17
  0
LAYOUT
  5
1E
330
D
100
AcDbPlotSettings
  1

  4
A3
  6

 40
7.5
 41
20.0
 42
7.5
 43
20.0
 44
420.0
 45
297.0
 46
0.0
 47
0.0
 48
0.0
 49
0.0
140
0.0
141
0.0
142
1.0
143
1.0
 70
0
 72
1
 73
0
 74
5
  7

 75
16
 76
0
 77
2
 78
300
147
1.0
148
0.0
149
0.0
100
AcDbLayout
  1
Layout1
 70
1
 71
1
 10
0.0
 20
0.0
 11
420.0
 21
297.0
 12
0.0
 22
0.0
 32
0.0
 14
1e+20
 24
1e+20
 34
1e+20
 15
-1e+20
 25
-1e+20
 35
-1e+20
146
0.0
 13
0.0
 23
0.0
 33
0.0
 16
1.0
 26
0.0
 36
0.0
 17
0.0
 27
1.0
 37
0.0
 76
1
330
1B
  0
MATERIAL
  5
1F
102
{ACAD_REACTORS
330
E
102
}
330
E
100
AcDbMaterial
  1
ByBlock
  2

 70
0
 40
1.0
 71
1
 41
1.0
 91
-1023410177
 42
1.0
 72
1
  3

 73
1
 74
1
 75
1
 44
0.5
 73
0
 45
1.0
 46
1.0
 77
1
  4

 78
1
 79
1
170
1
 48
1.0
171
1
  6

172
1
173
1
174
1
140
1.0
141
1.0
175
1
  7

176
1
177
1
178
1
143
1.0
179
1
  8

270
1
271
1
272
1
145
1.0
146
1.0
273
1
  9

274
1
275
1
276
1
 42
1.0
 72
1
  3

 73
1
 74
1
 75
1
 94
63
  0
MATERIAL
  5
20
102
{ACAD_REACTORS
330
E
102
}
330
E
100
AcDbMaterial
  1
ByLayer
  2

 70
0
 40
1.0
 71
1
 41
1.0
 91
-1023410177
 42
1.0
 72
1
  3

 73
1
 74
1
 75
1
 44
0.5
 73
0
 45
1.0
 46
1.0
 77
1
  4

 78
1
 79
1
170
1
 48
1.0
171
1
  6

172
1
173
1
174
1
140
1.0
141
1.0
175
1
  7

176
1
177
1
178
1
143
1.0
179
1
  8

270
1
271
1
272
1
145
1.0
146
1.0
273
1
  9

274
1
275
1
276
1
 42
1.0
 72
1
  3

 73
1
 74
1
 75
1
 94
63
  0
MATERIAL
  5
21
102
{ACAD_REACTORS
330
E
102
}
330
E
100
AcDbMaterial
  1
Global
  2

 70
0
 40
1.0
 71
1
 41
1.0
 91
-1023410177
 42
1.0
 72
1
  3

 73
1
 74
1
 75
1
 44
0.5
 73
0
 45
1.0
 46
1.0
 77
1
  4

 78
1
 79
1
170
1
 48
1.0
171
1
  6

172
1
173
1
174
1
140
1.0
141
1.0
175
1
  7

176
1
177
1
178
1
143
1.0
179
1
  8

270
1
271
1
272
1
145
1.0
146
1.0
273
1
  9

274
1
275
1
276
1
 42
1.0
 72
1
  3

 73
1
 74
1
 75
1
 94
63
  0
MLINESTYLE
  5
22
102
{ACAD_REACTORS
330
10
102
}
330
10
100
AcDbMlineStyle
  2
Standard
 70
0
  3

 62
256
 51
90.0
 52
90.0
 71
2
 49
0.5
 62
256
  6
BYLAYER
 49
-0.5
 62
256
  6
BYLAYER
  0
MLEADERSTYLE
  5
2C
102
{ACAD_REACTORS
330
F
102
}
330
F
100
AcDbMLeaderStyle
179
2
170
2
171
1
172
0
 90
2
 40
0.0
 41
0.0
173
1
 91
-1056964608
 92
-2
290
1
 42
2.0
291
1
 43
8.0
  3
Standard
 44
4.0
300

342
29
174
1
175
1
176
0
178
1
 93
-1056964608
 45
4.0
292
0
297
0
 46
4.0
 94
-1056964608
 47
1.0
 49
1.0
140
1.0
294
1
141
0.0
177
0
142
1.0
295
0
296
0
143
3.75
271
0
272
9
273
9
  0
DICTIONARY
  5
2D
330
A
100
AcDbDictionary
280
1
281
1
  3
CREATED_BY_EZDXF
350
2E
  3
WRITTEN_BY_EZDXF
350
42
  0
DICTIONARYVAR
  5
2E
330
2D
100
DictionaryVariables
280
0
  1
1.4.3 @ 2026-04-08T01:02:29.364845+00:00
  0
DICTIONARYVAR
  5
42
330
2D
100
DictionaryVariables
280
0
  1
1.4.3 @ 2026-04-08T01:02:29.367358+00:00
  0
ENDSEC
  0
EOF
