  0
SECTION
  2
HEADER
  9
$ACADVER
  1
AC1024
  9
$ACADMAINTVER
 70
6
  9
$DWGCODEPAGE
  3
ANSI_1252
  9
$LASTSAVEDBY
  1
ezdxf
  9
$INSBASE
 10
0.0
 20
0.0
 30
0.0
  9
$EXTMIN
 10
1e+20
 20
1e+20
 30
1e+20
  9
$EXTMAX
 10
-1e+20
 20
-1e+20
 30
-1e+20
  9
$LIMMIN
 10
0.0
 20
0.0
  9
$LIMMAX
 10
420.0
 20
297.0
  9
$ORTHOMODE
 70
0
  9
$REGENMODE
 70
1
  9
$FILLMODE
 70
1
  9
$QTEXTMODE
 70
0
  9
$MIRRTEXT
 70
1
  9
$LTSCALE
 40
1.0
  9
$ATTMODE
 70
1
  9
$TEXTSIZE
 40
2.5
  9
$TRACEWID
 40
1.0
  9
$TEXTSTYLE
  7
Standard
  9
$CLAYER
  8
0
  9
$CELTYPE
  6
ByLayer
  9
$CECOLOR
 62
256
  9
$CELTSCALE
 40
1.0
  9
$DISPSILH
 70
0
  9
$DIMSCALE
 40
1.0
  9
$DIMASZ
 40
2.5
  9
$DIMEXO
 40
0.625
  9
$DIMDLI
 40
3.75
  9
$DIMRND
 40
0.0
  9
$DIMDLE
 40
0.0
  9
$DIMEXE
 40
1.25
  9
$DIMTP
 40
0.0
  9
$DIMTM
 40
0.0
  9
$DIMTXT
 40
2.5
  9
$DIMCEN
 40
2.5
  9
$DIMTSZ
 40
0.0
  9
$DIMTOL
 70
0
  9
$DIMLIM
 70
0
  9
$DIMTIH
 70
0
  9
$DIMTOH
 70
0
  9
$DIMSE1
 70
0
  9
$DIMSE2
 70
0
  9
$DIMTAD
 70
1
  9
$DIMZIN
 70
8
  9
$DIMBLK
  1

  9
$DIMASO
 70
1
  9
$DIMSHO
 70
1
  9
$DIMPOST
  1

  9
$DIMAPOST
  1

  9
$DIMALT
 70
0
  9
$DIMALTD
 70
3
  9
$DIMALTF
 40
0.03937007874
  9
$DIMLFAC
 40
1.0
  9
$DIMTOFL
 70
1
  9
$DIMTVP
 40
0.0
  9
$DIMTIX
 70
0
  9
$DIMSOXD
 70
0
  9
$DIMSAH
 70
0
  9
$DIMBLK1
  1

  9
$DIMBLK2
  1

  9
$DIMSTYLE
  2
ISO-25
  9
$DIMCLRD
 70
0
  9
$DIMCLRE
 70
0
  9
$DIMCLRT
 70
0
  9
$DIMTFAC
 40
1.0
  9
$DIMGAP
 40
0.625
  9
$DIMJUST
 70
0
  9
$DIMSD1
 70
0
  9
$DIMSD2
 70
0
  9
$DIMTOLJ
 70
0
  9
$DIMTZIN
 70
8
  9
$DIMALTZ
 70
0
  9
$DIMALTTZ
 70
0
  9
$DIMUPT
 70
0
  9
$DIMDEC
 70
2
  9
$DIMTDEC
 70
2
  9
$DIMALTU
 70
2
  9
$DIMALTTD
 70
3
  9
$DIMTXSTY
  7
Standard
  9
$DIMAUNIT
 70
0
  9
$DIMADEC
 70
0
  9
$DIMALTRND
 40
0.0
  9
$DIMAZIN
 70
0
  9
$DIMDSEP
 70
44
  9
$DIMATFIT
 70
3
  9
$DIMFRAC
 70
0
  9
$DIMLDRBLK
  1

  9
$DIMLUNIT
 70
2
  9
$DIMLWD
 70
-2
  9
$DIMLWE
 70
-2
  9
$DIMTMOVE
 70
0
  9
$DIMFXL
 40
1.0
  9
$DIMFXLON
 70
0
  9
$DIMJOGANG
 40
0.785398163397
  9
$DIMTFILL
 70
0
  9
$DIMTFILLCLR
 70
0
  9
$DIMARCSYM
 70
0
  9
$DIMLTYPE
  6

  9
$DIMLTEX1
  6

  9
$DIMLTEX2
  6

  9
$DIMTXTDIRECTION
 70
0
  9
$LUNITS
 70
2
  9
$LUPREC
 70
4
  9
$SKETCHINC
 40
1.0
  9
$FILLETRAD
 40
10.0
  9
$AUNITS
 70
0
  9
$AUPREC
 70
2
  9
$MENU
  1
.
  9
$ELEVATION
 40
0.0
  9
$PELEVATION
 40
0.0
  9
$THICKNESS
 40
0.0
  9
$LIMCHECK
 70
0
  9
$CHAMFERA
 40
0.0
  9
$CHAMFERB
 40
0.0
  9
$CHAMFERC
 40
0.0
  9
$CHAMFERD
 40
0.0
  9
$SKPOLY
 70
0
  9
$TDCREATE
 40
2461138.721030093
  9
$TDUCREATE
 40
2458532.153996898
  9
$TDUPDATE
 40
2461138.721030093
  9
$TDUUPDATE
 40
2458532.1544311
  9
$TDINDWG
 40
0.0
  9
$TDUSRTIMER
 40
0.0
  9
$USRTIMER
 70
1
  9
$ANGBASE
 50
0.0
  9
$ANGDIR
 70
0
  9
$PDMODE
 70
0
  9
$PDSIZE
 40
0.0
  9
$PLINEWID
 40
0.0
  9
$SPLFRAME
 70
0
  9
$SPLINETYPE
 70
6
  9
$SPLINESEGS
 70
8
  9
$HANDSEED
  5
112
  9
$SURFTAB1
 70
6
  9
$SURFTAB2
 70
6
  9
$SURFTYPE
 70
6
  9
$SURFU
 70
6
  9
$SURFV
 70
6
  9
$UCSBASE
  2

  9
$UCSNAME
  2

  9
$UCSORG
 10
0.0
 20
0.0
 30
0.0
  9
$UCSXDIR
 10
1.0
 20
0.0
 30
0.0
  9
$UCSYDIR
 10
0.0
 20
1.0
 30
0.0
  9
$UCSORTHOREF
  2

  9
$UCSORTHOVIEW
 70
0
  9
$UCSORGTOP
 10
0.0
 20
0.0
 30
0.0
  9
$UCSORGBOTTOM
 10
0.0
 20
0.0
 30
0.0
  9
$UCSORGLEFT
 10
0.0
 20
0.0
 30
0.0
  9
$UCSORGRIGHT
 10
0.0
 20
0.0
 30
0.0
  9
$UCSORGFRONT
 10
0.0
 20
0.0
 30
0.0
  9
$UCSORGBACK
 10
0.0
 20
0.0
 30
0.0
  9
$PUCSBASE
  2

  9
$PUCSNAME
  2

  9
$PUCSORG
 10
0.0
 20
0.0
 30
0.0
  9
$PUCSXDIR
 10
1.0
 20
0.0
 30
0.0
  9
$PUCSYDIR
 10
0.0
 20
1.0
 30
0.0
  9
$PUCSORTHOREF
  2

  9
$PUCSORTHOVIEW
 70
0
  9
$PUCSORGTOP
 10
0.0
 20
0.0
 30
0.0
  9
$PUCSORGBOTTOM
 10
0.0
 20
0.0
 30
0.0
  9
$PUCSORGLEFT
 10
0.0
 20
0.0
 30
0.0
  9
$PUCSORGRIGHT
 10
0.0
 20
0.0
 30
0.0
  9
$PUCSORGFRONT
 10
0.0
 20
0.0
 30
0.0
  9
$PUCSORGBACK
 10
0.0
 20
0.0
 30
0.0
  9
$USERI1
 70
0
  9
$USERI2
 70
0
  9
$USERI3
 70
0
  9
$USERI4
 70
0
  9
$USERI5
 70
0
  9
$USERR1
 40
0.0
  9
$USERR2
 40
0.0
  9
$USERR3
 40
0.0
  9
$USERR4
 40
0.0
  9
$USERR5
 40
0.0
  9
$WORLDVIEW
 70
1
  9
$SHADEDGE
 70
3
  9
$SHADEDIF
 70
70
  9
$TILEMODE
 70
1
  9
$MAXACTVP
 70
64
  9
$PINSBASE
 10
0.0
 20
0.0
 30
0.0
  9
$PLIMCHECK
 70
0
  9
$PEXTMIN
 10
1e+20
 20
1e+20
 30
1e+20
  9
$PEXTMAX
 10
-1e+20
 20
-1e+20
 30
-1e+20
  9
$PLIMMIN
 10
0.0
 20
0.0
  9
$PLIMMAX
 10
420.0
 20
297.0
  9
$UNITMODE
 70
0
  9
$VISRETAIN
 70
1
  9
$PLINEGEN
 70
0
  9
$PSLTSCALE
 70
1
  9
$TREEDEPTH
 70
3020
  9
$CMLSTYLE
  2
Standard
  9
$CMLJUST
 70
0
  9
$CMLSCALE
 40
20.0
  9
$PROXYGRAPHICS
 70
1
  9
$MEASUREMENT
 70
1
  9
$CELWEIGHT
370
-1
  9
$ENDCAPS
280
0
  9
$JOINSTYLE
280
0
  9
$LWDISPLAY
290
0
  9
$INSUNITS
 70
6
  9
$HYPERLINKBASE
  1

  9
$STYLESHEET
  1

  9
$XEDIT
290
1
  9
$CEPSNTYPE
380
0
  9
$PSTYLEMODE
290
1
  9
$FINGERPRINTGUID
  2
{2E0A09AC-C042-4FD4-B581-374C15C089A1}
  9
$VERSIONGUID
  2
{447DB0CC-6EFF-4E5B-B1BB-A2E414B4EB9E}
  9
$EXTNAMES
290
1
  9
$PSVPSCALE
 40
0.0
  9
$OLESTARTUP
290
0
  9
$SORTENTS
280
127
  9
$INDEXCTL
280
0
  9
$HIDETEXT
280
1
  9
$XCLIPFRAME
280
1
  9
$HALOGAP
280
0
  9
$OBSCOLOR
 70
257
  9
$OBSLTYPE
280
0
  9
$INTERSECTIONDISPLAY
280
0
  9
$INTERSECTIONCOLOR
 70
257
  9
$DIMASSOC
280
2
  9
$PROJECTNAME
  1

  9
$CAMERADISPLAY
290
0
  9
$LENSLENGTH
 40
50.0
  9
$CAMERAHEIGHT
 40
0.0
  9
$STEPSPERSEC
 40
24.0
  9
$STEPSIZE
 40
100.0
  9
$3DDWFPREC
 40
2.0
  9
$PSOLWIDTH
 40
0.005
  9
$PSOLHEIGHT
 40
0.08
  9
$LOFTANG1
 40
1.570796326795
  9
$LOFTANG2
 40
1.570796326795
  9
$LOFTMAG1
 40
0.0
  9
$LOFTMAG2
 40
0.0
  9
$LOFTPARAM
 70
7
  9
$LOFTNORMALS
280
1
  9
$LATITUDE
 40
37.795
  9
$LONGITUDE
 40
-122.394
  9
$NORTHDIRECTION
 40
0.0
  9
$TIMEZONE
 70
-8000
  9
$LIGHTGLYPHDISPLAY
280
1
  9
$TILEMODELIGHTSYNCH
280
1
  9
$CMATERIAL
347
20
  9
$SOLIDHIST
280
0
  9
$SHOWHIST
280
1
  9
$DWFFRAME
280
2
  9
$DGNFRAME
280
2
  9
$REALWORLDSCALE
290
1
  9
$INTERFERECOLOR
 62
256
  9
$CSHADOW
280
0
  9
$SHADOWPLANELOCATION
 40
0.0
  0
ENDSEC
  0
SECTION
  2
CLASSES
  0
CLASS
  1
ACDBDICTIONARYWDFLT
  2
AcDbDictionaryWithDefault
  3
ObjectDBX Classes
 90
0
 91
0
280
0
281
0
  0
CLASS
  1
SUN
  2
AcDbSun
  3
SCENEOE
 90
1153
 91
0
280
0
281
0
  0
CLASS
  1
VISUALSTYLE
  2
AcDbVisualStyle
  3
ObjectDBX Classes
 90
4095
 91
0
280
0
281
0
  0
CLASS
  1
MATERIAL
  2
AcDbMaterial
  3
ObjectDBX Classes
 90
1153
 91
0
280
0
281
0
  0
CLASS
  1
SCALE
  2
AcDbScale
  3
ObjectDBX Classes
 90
1153
 91
0
280
0
281
0
  0
CLASS
  1
TABLESTYLE
  2
AcDbTableStyle
  3
ObjectDBX Classes
 90
4095
 91
0
280
0
281
0
  0
CLASS
  1
MLEADERSTYLE
  2
AcDbMLeaderStyle
  3
ACDB_MLEADERSTYLE_CLASS
 90
4095
 91
0
280
0
281
0
  0
CLASS
  1
DICTIONARYVAR
  2
AcDbDictionaryVar
  3
ObjectDBX Classes
 90
0
 91
0
280
0
281
0
  0
CLASS
  1
CELLSTYLEMAP
  2
AcDbCellStyleMap
  3
ObjectDBX Classes
 90
1152
 91
0
280
0
281
0
  0
CLASS
  1
MENTALRAYRENDERSETTINGS
  2
AcDbMentalRayRenderSettings
  3
SCENEOE
 90
1024
 91
0
280
0
281
0
  0
CLASS
  1
ACDBDETAILVIEWSTYLE
  2
AcDbDetailViewStyle
  3
ObjectDBX Classes
 90
1025
 91
0
280
0
281
0
  0
CLASS
  1
ACDBSECTIONVIEWSTYLE
  2
AcDbSectionViewStyle
  3
ObjectDBX Classes
 90
1025
 91
0
280
0
281
0
  0
CLASS
  1
RASTERVARIABLES
  2
AcDbRasterVariables
  3
ISM
 90
0
 91
0
280
0
281
0
  0
CLASS
  1
ACDBPLACEHOLDER
  2
AcDbPlaceHolder
  3
ObjectDBX Classes
 90
0
 91
0
280
0
281
0
  0
CLASS
  1
LAYOUT
  2
AcDbLayout
  3
ObjectDBX Classes
 90
0
 91
0
280
0
281
0
  0
ENDSEC
  0
SECTION
  2
TABLES
  0
TABLE
  2
VPORT
  5
8
330
0
100
AcDbSymbolTable
 70
1
  0
VPORT
  5
23
330
8
100
AcDbSymbolTableRecord
100
AcDbViewportTableRecord
  2
*Active
 70
0
 10
0.0
 20
0.0
 11
1.0
 21
1.0
 12
0.0
 22
0.0
 13
0.0
 23
0.0
 14
0.5
 24
0.5
 15
0.5
 25
0.5
 16
0.0
 26
0.0
 36
1.0
 17
0.0
 27
0.0
 37
0.0
 40
1000.0
 41
1.34
 42
50.0
 43
0.0
 44
0.0
 50
0.0
 51
0.0
 71
0
 72
1000
 73
1
 74
3
 75
0
 76
0
 77
0
 78
0
281
0
 65
0
146
0.0
  0
ENDTAB
  0
TABLE
  2
LTYPE
  5
2
330
0
100
AcDbSymbolTable
 70
3
  0
LTYPE
  5
24
330
2
100
AcDbSymbolTableRecord
100
AcDbLinetypeTableRecord
  2
ByBlock
 70
0
  3

 72
65
 73
0
 40
0.0
  0
LTYPE
  5
25
330
2
100
AcDbSymbolTableRecord
100
AcDbLinetypeTableRecord
  2
ByLayer
 70
0
  3

 72
65
 73
0
 40
0.0
  0
LTYPE
  5
26
330
2
100
AcDbSymbolTableRecord
100
AcDbLinetypeTableRecord
  2
Continuous
 70
0
  3

 72
65
 73
0
 40
0.0
  0
ENDTAB
  0
TABLE
  2
LAYER
  5
1
330
0
100
AcDbSymbolTable
 70
2
  0
LAYER
  5
27
330
1
100
AcDbSymbolTableRecord
100
AcDbLayerTableRecord
  2
0
 70
0
 62
7
  6
Continuous
370
-3
390
13
347
21
  0
LAYER
  5
28
330
1
100
AcDbSymbolTableRecord
100
AcDbLayerTableRecord
  2
Defpoints
 70
0
 62
7
  6
Continuous
290
0
370
-3
390
13
347
21
  0
ENDTAB
  0
TABLE
  2
STYLE
  5
5
330
0
100
AcDbSymbolTable
 70
1
  0
STYLE
  5
29
330
5
100
AcDbSymbolTableRecord
100
AcDbTextStyleTableRecord
  2
Standard
 70
0
 40
0.0
 41
1.0
 50
0.0
 71
0
 42
2.5
  3
txt
  4

  0
ENDTAB
  0
TABLE
  2
VIEW
  5
7
330
0
100
AcDbSymbolTable
 70
0
  0
ENDTAB
  0
TABLE
  2
UCS
  5
6
330
0
100
AcDbSymbolTable
 70
0
  0
ENDTAB
  0
TABLE
  2
APPID
  5
3
330
0
100
AcDbSymbolTable
 70
3
  0
APPID
  5
2A
330
3
100
AcDbSymbolTableRecord
100
AcDbRegAppTableRecord
  2
ACAD
 70
0
  0
APPID
  5
10F
330
3
100
AcDbSymbolTableRecord
100
AcDbRegAppTableRecord
  2
HATCHBACKGROUNDCOLOR
 70
0
  0
APPID
  5
110
330
3
100
AcDbSymbolTableRecord
100
AcDbRegAppTableRecord
  2
EZDXF
 70
0
  0
ENDTAB
  0
TABLE
  2
DIMSTYLE
  5
4
330
0
100
AcDbSymbolTable
 70
1
100
AcDbDimStyleTable
  0
DIMSTYLE
105
2B
330
4
100
AcDbSymbolTableRecord
100
AcDbDimStyleTableRecord
  2
Standard
 70
0
 40
1.0
 41
2.5
 42
0.625
 43
3.75
 44
1.25
 45
0.0
 46
0.0
 47
0.0
 48
0.0
 49
2.5
140
2.5
141
2.5
142
0.0
143
0.03937007874
144
1.0
145
0.0
146
1.0
147
0.625
148
0.0
 69
0
 70
0
 71
0
 72
0
 73
0
 74
0
 75
0
 76
0
 77
1
 78
8
 79
3
170
0
171
3
172
1
173
0
174
0
175
0
176
0
177
0
178
0
179
2
271
2
272
2
273
2
274
3
275
0
276
0
277
2
278
44
279
0
280
0
281
0
282
0
283
0
284
8
285
0
286
0
288
0
289
3
290
0
371
-2
372
-2
  0
ENDTAB
  0
TABLE
  2
BLOCK_RECORD
  5
9
330
0
100
AcDbSymbolTable
 70
2
  0
BLOCK_RECORD
  5
17
330
9
100
AcDbSymbolTableRecord
100
AcDbBlockTableRecord
  2
*Model_Space
340
1A
 70
0
280
1
281
0
  0
BLOCK_RECORD
  5
1B
330
9
100
AcDbSymbolTableRecord
100
AcDbBlockTableRecord
  2
*Paper_Space
340
1E
 70
0
280
1
281
0
  0
ENDTAB
  0
ENDSEC
  0
SECTION
  2
BLOCKS
  0
BLOCK
  5
18
330
17
100
AcDbEntity
  8
0
100
AcDbBlockBegin
  2
*Model_Space
 70
0
 10
0.0
 20
0.0
 30
0.0
  3
*Model_Space
  1

  0
ENDBLK
  5
19
330
17
100
AcDbEntity
  8
0
100
AcDbBlockEnd
  0
BLOCK
  5
1C
330
1B
100
AcDbEntity
  8
0
100
AcDbBlockBegin
  2
*Paper_Space
 70
0
 10
0.0
 20
0.0
 30
0.0
  3
*Paper_Space
  1

  0
ENDBLK
  5
1D
330
1B
100
AcDbEntity
  8
0
100
AcDbBlockEnd
  0
ENDSEC
  0
SECTION
  2
ENTITIES
  0
LINE
  5
2F
330
17
100
AcDbEntity
  8
0
100
AcDbLine
 10
177.32629
 20
-49.169574
 30
0.0
 11
177.32629
 21
-65.489328
 31
0.0
  0
LINE
  5
30
330
17
100
AcDbEntity
  8
0
100
AcDbLine
 10
177.32629
 20
-65.489328
 30
0.0
 11
184.229248
 21
-65.441068
 31
0.0
  0
LINE
  5
31
330
17
100
AcDbEntity
  8
0
100
AcDbLine
 10
184.229248
 20
-65.441068
 30
0.0
 11
184.219596
 21
-50.83683
 31
0.0
  0
LINE
  5
32
330
17
100
AcDbEntity
  8
0
100
AcDbLine
 10
184.219596
 20
-50.83683
 30
0.0
 11
184.191402
 21
-50.652426
 31
0.0
  0
LINE
  5
33
330
17
100
AcDbEntity
  8
0
100
AcDbLine
 10
184.191402
 20
-50.652426
 30
0.0
 11
184.14568200000002
 21
-50.474371999999995
 31
0.0
  0
LINE
  5
34
330
17
100
AcDbEntity
  8
0
100
AcDbLine
 10
184.14568200000002
 20
-50.474371999999995
 30
0.0
 11
184.083198
 21
-50.303684
 31
0.0
  0
LINE
  5
35
330
17
100
AcDbEntity
  8
0
100
AcDbLine
 10
184.083198
 20
-50.303684
 30
0.0
 11
184.00496600000002
 21
-50.141377999999996
 31
0.0
  0
LINE
  5
36
330
17
100
AcDbEntity
  8
0
100
AcDbLine
 10
184.00496600000002
 20
-50.141377999999996
 30
0.0
 11
183.91200200000003
 21
-49.988215999999994
 31
0.0
  0
LINE
  5
37
330
17
100
AcDbEntity
  8
0
100
AcDbLine
 10
183.91200200000003
 20
-49.988215999999994
 30
0.0
 11
183.805068
 21
-49.845214
 31
0.0
  0
LINE
  5
38
330
17
100
AcDbEntity
  8
0
100
AcDbLine
 10
183.805068
 20
-49.845214
 30
0.0
 11
183.68518000000003
 21
-49.713387999999995
 31
0.0
  0
LINE
  5
39
330
17
100
AcDbEntity
  8
0
100
AcDbLine
 10
183.68518000000003
 20
-49.713387999999995
 30
0.0
 11
183.553354
 21
-49.59349999999999
 31
0.0
  0
LINE
  5
3A
330
17
100
AcDbEntity
  8
0
100
AcDbLine
 10
183.553354
 20
-49.59349999999999
 30
0.0
 11
183.41035200000002
 21
-49.486565999999996
 31
0.0
  0
LINE
  5
3B
330
17
100
AcDbEntity
  8
0
100
AcDbLine
 10
183.41035200000002
 20
-49.486565999999996
 30
0.0
 11
183.25719000000004
 21
-49.393601999999994
 31
0.0
  0
LINE
  5
3C
330
17
100
AcDbEntity
  8
0
100
AcDbLine
 10
183.25719000000004
 20
-49.393601999999994
 30
0.0
 11
183.09488400000004
 21
-49.315369999999994
 31
0.0
  0
LINE
  5
3D
330
17
100
AcDbEntity
  8
0
100
AcDbLine
 10
183.09488400000004
 20
-49.315369999999994
 30
0.0
 11
182.92419600000002
 21
-49.25288599999999
 31
0.0
  0
LINE
  5
3E
330
17
100
AcDbEntity
  8
0
100
AcDbLine
 10
182.92419600000002
 20
-49.25288599999999
 30
0.0
 11
182.74614200000002
 21
-49.20716599999999
 31
0.0
  0
LINE
  5
3F
330
17
100
AcDbEntity
  8
0
100
AcDbLine
 10
182.74614200000002
 20
-49.20716599999999
 30
0.0
 11
182.56173800000002
 21
-49.178971999999995
 31
0.0
  0
LINE
  5
40
330
17
100
AcDbEntity
  8
0
100
AcDbLine
 10
182.56173800000002
 20
-49.178971999999995
 30
0.0
 11
177.325782
 21
-49.16931999999999
 31
0.0
  0
LINE
  5
41
330
17
100
AcDbEntity
  8
0
100
AcDbLine
 10
146.06524000000002
 20
-65.708022
 30
0.0
 11
146.06524000000002
 21
-49.16932
 31
0.0
  0
LINE
  5
42
330
17
100
AcDbEntity
  8
0
100
AcDbLine
 10
146.06524000000002
 20
-49.16932
 30
0.0
 11
19.272250000000014
 21
-49.178464
 31
0.0
  0
LINE
  5
43
330
17
100
AcDbEntity
  8
0
100
AcDbLine
 10
19.272250000000014
 20
-49.178464
 30
0.0
 11
19.094958000000016
 21
-49.20538799999999
 31
0.0
  0
LINE
  5
44
330
17
100
AcDbEntity
  8
0
100
AcDbLine
 10
19.094958000000016
 20
-49.20538799999999
 30
0.0
 11
18.923762000000014
 21
-49.24932999999999
 31
0.0
  0
LINE
  5
45
330
17
100
AcDbEntity
  8
0
100
AcDbLine
 10
18.923762000000014
 20
-49.24932999999999
 30
0.0
 11
18.759678000000015
 21
-49.309273999999995
 31
0.0
  0
LINE
  5
46
330
17
100
AcDbEntity
  8
0
100
AcDbLine
 10
18.759678000000015
 20
-49.309273999999995
 30
0.0
 11
18.603722000000012
 21
-49.384457999999995
 31
0.0
  0
LINE
  5
47
330
17
100
AcDbEntity
  8
0
100
AcDbLine
 10
18.603722000000012
 20
-49.384457999999995
 30
0.0
 11
18.456656000000017
 21
-49.473865999999994
 31
0.0
  0
LINE
  5
48
330
17
100
AcDbEntity
  8
0
100
AcDbLine
 10
18.456656000000017
 20
-49.473865999999994
 30
0.0
 11
18.319242000000017
 21
-49.57673599999999
 31
0.0
  0
LINE
  5
49
330
17
100
AcDbEntity
  8
0
100
AcDbLine
 10
18.319242000000017
 20
-49.57673599999999
 30
0.0
 11
18.192496000000016
 21
-49.692052
 31
0.0
  0
LINE
  5
4A
330
17
100
AcDbEntity
  8
0
100
AcDbLine
 10
18.192496000000016
 20
-49.692052
 30
0.0
 11
18.07718000000002
 21
-49.818797999999994
 31
0.0
  0
LINE
  5
4B
330
17
100
AcDbEntity
  8
0
100
AcDbLine
 10
18.07718000000002
 20
-49.818797999999994
 30
0.0
 11
17.974310000000017
 21
-49.956211999999994
 31
0.0
  0
LINE
  5
4C
330
17
100
AcDbEntity
  8
0
100
AcDbLine
 10
17.974310000000017
 20
-49.956211999999994
 30
0.0
 11
17.884902000000018
 21
-50.103277999999996
 31
0.0
  0
LINE
  5
4D
330
17
100
AcDbEntity
  8
0
100
AcDbLine
 10
17.884902000000018
 20
-50.103277999999996
 30
0.0
 11
17.809718000000014
 21
-50.259234
 31
0.0
  0
LINE
  5
4E
330
17
100
AcDbEntity
  8
0
100
AcDbLine
 10
17.809718000000014
 20
-50.259234
 30
0.0
 11
17.749774000000016
 21
-50.423317999999995
 31
0.0
  0
LINE
  5
4F
330
17
100
AcDbEntity
  8
0
100
AcDbLine
 10
17.749774000000016
 20
-50.423317999999995
 30
0.0
 11
17.705832000000015
 21
-50.594514
 31
0.0
  0
LINE
  5
50
330
17
100
AcDbEntity
  8
0
100
AcDbLine
 10
17.705832000000015
 20
-50.594514
 30
0.0
 11
17.678908000000014
 21
-50.771806
 31
0.0
  0
LINE
  5
51
330
17
100
AcDbEntity
  8
0
100
AcDbLine
 10
17.678908000000014
 20
-50.771806
 30
0.0
 11
17.669764000000015
 21
-66.03237999999999
 31
0.0
  0
LINE
  5
52
330
17
100
AcDbEntity
  8
0
100
AcDbLine
 10
17.669764000000015
 20
-66.03237999999999
 30
0.0
 11
79.89519200000002
 21
-66.03237999999999
 31
0.0
  0
LINE
  5
53
330
17
100
AcDbEntity
  8
0
100
AcDbLine
 10
79.89519200000002
 20
-66.03237999999999
 30
0.0
 11
90.05239800000001
 21
-64.84899399999999
 31
0.0
  0
LINE
  5
54
330
17
100
AcDbEntity
  8
0
100
AcDbLine
 10
90.05239800000001
 20
-64.84899399999999
 30
0.0
 11
99.31146
 21
-64.609726
 31
0.0
  0
LINE
  5
55
330
17
100
AcDbEntity
  8
0
100
AcDbLine
 10
99.31146
 20
-64.609726
 30
0.0
 11
99.36226
 21
-64.61632999999999
 31
0.0
  0
LINE
  5
56
330
17
100
AcDbEntity
  8
0
100
AcDbLine
 10
99.36226
 20
-64.61632999999999
 30
0.0
 11
99.411282
 21
-64.62776
 31
0.0
  0
LINE
  5
57
330
17
100
AcDbEntity
  8
0
100
AcDbLine
 10
99.411282
 20
-64.62776
 30
0.0
 11
99.458272
 21
-64.644016
 31
0.0
  0
LINE
  5
58
330
17
100
AcDbEntity
  8
0
100
AcDbLine
 10
99.458272
 20
-64.644016
 30
0.0
 11
99.50323
 21
-64.66458999999999
 31
0.0
  0
LINE
  5
59
330
17
100
AcDbEntity
  8
0
100
AcDbLine
 10
99.50323
 20
-64.66458999999999
 30
0.0
 11
99.545648
 21
-64.689482
 31
0.0
  0
LINE
  5
5A
330
17
100
AcDbEntity
  8
0
100
AcDbLine
 10
99.545648
 20
-64.689482
 30
0.0
 11
99.585272
 21
-64.718184
 31
0.0
  0
LINE
  5
5B
330
17
100
AcDbEntity
  8
0
100
AcDbLine
 10
99.585272
 20
-64.718184
 30
0.0
 11
99.621848
 21
-64.75044199999999
 31
0.0
  0
LINE
  5
5C
330
17
100
AcDbEntity
  8
0
100
AcDbLine
 10
99.621848
 20
-64.75044199999999
 30
0.0
 11
99.65512199999999
 21
-64.786256
 31
0.0
  0
LINE
  5
5D
330
17
100
AcDbEntity
  8
0
100
AcDbLine
 10
99.65512199999999
 20
-64.786256
 30
0.0
 11
99.68484
 21
-64.82511799999999
 31
0.0
  0
LINE
  5
5E
330
17
100
AcDbEntity
  8
0
100
AcDbLine
 10
99.68484
 20
-64.82511799999999
 30
0.0
 11
99.710748
 21
-64.86677399999999
 31
0.0
  0
LINE
  5
5F
330
17
100
AcDbEntity
  8
0
100
AcDbLine
 10
99.710748
 20
-64.86677399999999
 30
0.0
 11
99.732592
 21
-64.91122399999999
 31
0.0
  0
LINE
  5
60
330
17
100
AcDbEntity
  8
0
100
AcDbLine
 10
99.732592
 20
-64.91122399999999
 30
0.0
 11
99.750118
 21
-64.95795999999999
 31
0.0
  0
LINE
  5
61
330
17
100
AcDbEntity
  8
0
100
AcDbLine
 10
99.750118
 20
-64.95795999999999
 30
0.0
 11
99.762818
 21
-65.006728
 31
0.0
  0
LINE
  5
62
330
17
100
AcDbEntity
  8
0
100
AcDbLine
 10
99.762818
 20
-65.006728
 30
0.0
 11
99.770692
 21
-65.05727399999999
 31
0.0
  0
LINE
  5
63
330
17
100
AcDbEntity
  8
0
100
AcDbLine
 10
99.770692
 20
-65.05727399999999
 30
0.0
 11
99.773486
 21
-66.03263399999999
 31
0.0
  0
LINE
  5
64
330
17
100
AcDbEntity
  8
0
100
AcDbLine
 10
99.773486
 20
-66.03263399999999
 30
0.0
 11
146.06524000000002
 21
-65.70827599999998
 31
0.0
  0
LINE
  5
65
330
17
100
AcDbEntity
  8
0
100
AcDbLine
 10
86.67724600000001
 20
-69.50125799999999
 30
0.0
 11
67.64731200000001
 21
-69.50125799999999
 31
0.0
  0
LINE
  5
66
330
17
100
AcDbEntity
  8
0
100
AcDbLine
 10
67.64731200000001
 20
-69.50125799999999
 30
0.0
 11
67.80022
 21
-71.70546999999999
 31
0.0
  0
LINE
  5
67
330
17
100
AcDbEntity
  8
0
100
AcDbLine
 10
67.80022
 20
-71.70546999999999
 30
0.0
 11
67.989958
 21
-72.83475399999999
 31
0.0
  0
LINE
  5
68
330
17
100
AcDbEntity
  8
0
100
AcDbLine
 10
67.989958
 20
-72.83475399999999
 30
0.0
 11
68.16344000000001
 21
-73.435972
 31
0.0
  0
LINE
  5
69
330
17
100
AcDbEntity
  8
0
100
AcDbLine
 10
68.16344000000001
 20
-73.435972
 30
0.0
 11
68.408296
 21
-74.073004
 31
0.0
  0
LINE
  5
6A
330
17
100
AcDbEntity
  8
0
100
AcDbLine
 10
68.408296
 20
-74.073004
 30
0.0
 11
68.56603
 21
-74.40091799999999
 31
0.0
  0
LINE
  5
6B
330
17
100
AcDbEntity
  8
0
100
AcDbLine
 10
68.56603
 20
-74.40091799999999
 30
0.0
 11
68.75145
 21
-74.715878
 31
0.0
  0
LINE
  5
6C
330
17
100
AcDbEntity
  8
0
100
AcDbLine
 10
68.75145
 20
-74.715878
 30
0.0
 11
68.964302
 21
-75.00848599999999
 31
0.0
  0
LINE
  5
6D
330
17
100
AcDbEntity
  8
0
100
AcDbLine
 10
68.964302
 20
-75.00848599999999
 30
0.0
 11
69.20458600000002
 21
-75.26908999999999
 31
0.0
  0
LINE
  5
6E
330
17
100
AcDbEntity
  8
0
100
AcDbLine
 10
69.20458600000002
 20
-75.26908999999999
 30
0.0
 11
69.334888
 21
-75.384406
 31
0.0
  0
LINE
  5
6F
330
17
100
AcDbEntity
  8
0
100
AcDbLine
 10
69.334888
 20
-75.384406
 30
0.0
 11
69.47204800000002
 21
-75.488292
 31
0.0
  0
LINE
  5
70
330
17
100
AcDbEntity
  8
0
100
AcDbLine
 10
69.47204800000002
 20
-75.488292
 30
0.0
 11
69.615812
 21
-75.579478
 31
0.0
  0
LINE
  5
71
330
17
100
AcDbEntity
  8
0
100
AcDbLine
 10
69.615812
 20
-75.579478
 30
0.0
 11
69.76643400000002
 21
-75.65669399999999
 31
0.0
  0
LINE
  5
72
330
17
100
AcDbEntity
  8
0
100
AcDbLine
 10
69.76643400000002
 20
-75.65669399999999
 30
0.0
 11
69.92366000000003
 21
-75.71892399999999
 31
0.0
  0
LINE
  5
73
330
17
100
AcDbEntity
  8
0
100
AcDbLine
 10
69.92366000000003
 20
-75.71892399999999
 30
0.0
 11
70.08749000000002
 21
-75.76464399999999
 31
0.0
  0
LINE
  5
74
330
17
100
AcDbEntity
  8
0
100
AcDbLine
 10
70.08749000000002
 20
-75.76464399999999
 30
0.0
 11
70.25817800000003
 21
-75.79309199999999
 31
0.0
  0
LINE
  5
75
330
17
100
AcDbEntity
  8
0
100
AcDbLine
 10
70.25817800000003
 20
-75.79309199999999
 30
0.0
 11
89.53601600000002
 21
-77.072744
 31
0.0
  0
LINE
  5
76
330
17
100
AcDbEntity
  8
0
100
AcDbLine
 10
89.53601600000002
 20
-77.072744
 30
0.0
 11
87.89238200000003
 21
-73.45832399999999
 31
0.0
  0
LINE
  5
77
330
17
100
AcDbEntity
  8
0
100
AcDbLine
 10
87.89238200000003
 20
-73.45832399999999
 30
0.0
 11
87.19058000000003
 21
-71.51496999999999
 31
0.0
  0
LINE
  5
78
330
17
100
AcDbEntity
  8
0
100
AcDbLine
 10
87.19058000000003
 20
-71.51496999999999
 30
0.0
 11
86.67750000000002
 21
-69.501004
 31
0.0
  0
LINE
  5
79
330
17
100
AcDbEntity
  8
0
100
AcDbLine
 10
184.19318
 20
-130.05435
 30
0.0
 11
170.29785600000002
 21
-101.773736
 31
0.0
  0
LINE
  5
7A
330
17
100
AcDbEntity
  8
0
100
AcDbLine
 10
170.29785600000002
 20
-101.773736
 30
0.0
 11
167.97147
 21
-95.707962
 31
0.0
  0
LINE
  5
7B
330
17
100
AcDbEntity
  8
0
100
AcDbLine
 10
167.97147
 20
-95.707962
 30
0.0
 11
167.292528
 21
-92.844366
 31
0.0
  0
LINE
  5
7C
330
17
100
AcDbEntity
  8
0
100
AcDbLine
 10
167.292528
 20
-92.844366
 30
0.0
 11
166.90771800000002
 21
-90.168222
 31
0.0
  0
LINE
  5
7D
330
17
100
AcDbEntity
  8
0
100
AcDbLine
 10
166.90771800000002
 20
-90.168222
 30
0.0
 11
166.788338
 21
-87.675466
 31
0.0
  0
LINE
  5
7E
330
17
100
AcDbEntity
  8
0
100
AcDbLine
 10
166.788338
 20
-87.675466
 30
0.0
 11
166.90517800000003
 21
-85.362288
 31
0.0
  0
LINE
  5
7F
330
17
100
AcDbEntity
  8
0
100
AcDbLine
 10
166.90517800000003
 20
-85.362288
 30
0.0
 11
167.229282
 21
-83.224624
 31
0.0
  0
LINE
  5
80
330
17
100
AcDbEntity
  8
0
100
AcDbLine
 10
167.229282
 20
-83.224624
 30
0.0
 11
167.731694
 21
-81.258664
 31
0.0
  0
LINE
  5
81
330
17
100
AcDbEntity
  8
0
100
AcDbLine
 10
167.731694
 20
-81.258664
 30
0.0
 11
168.38345800000002
 21
-79.46009
 31
0.0
  0
LINE
  5
82
330
17
100
AcDbEntity
  8
0
100
AcDbLine
 10
168.38345800000002
 20
-79.46009
 30
0.0
 11
169.155618
 21
-77.825346
 31
0.0
  0
LINE
  5
83
330
17
100
AcDbEntity
  8
0
100
AcDbLine
 10
169.155618
 20
-77.825346
 30
0.0
 11
170.019218
 21
-76.350114
 31
0.0
  0
LINE
  5
84
330
17
100
AcDbEntity
  8
0
100
AcDbLine
 10
170.019218
 20
-76.350114
 30
0.0
 11
170.94530199999997
 21
-75.030584
 31
0.0
  0
LINE
  5
85
330
17
100
AcDbEntity
  8
0
100
AcDbLine
 10
170.94530199999997
 20
-75.030584
 30
0.0
 11
172.86909799999998
 21
-72.842882
 31
0.0
  0
LINE
  5
86
330
17
100
AcDbEntity
  8
0
100
AcDbLine
 10
172.86909799999998
 20
-72.842882
 30
0.0
 11
174.695358
 21
-71.23049
 31
0.0
  0
LINE
  5
87
330
17
100
AcDbEntity
  8
0
100
AcDbLine
 10
174.695358
 20
-71.23049
 30
0.0
 11
176.21935799999997
 21
-70.142608
 31
0.0
  0
LINE
  5
88
330
17
100
AcDbEntity
  8
0
100
AcDbLine
 10
176.21935799999997
 20
-70.142608
 30
0.0
 11
176.243742
 21
-70.122288
 31
0.0
  0
LINE
  5
89
330
17
100
AcDbEntity
  8
0
100
AcDbLine
 10
176.243742
 20
-70.122288
 30
0.0
 11
176.26558599999998
 21
-70.100444
 31
0.0
  0
LINE
  5
8A
330
17
100
AcDbEntity
  8
0
100
AcDbLine
 10
176.26558599999998
 20
-70.100444
 30
0.0
 11
176.28489
 21
-70.077584
 31
0.0
  0
LINE
  5
8B
330
17
100
AcDbEntity
  8
0
100
AcDbLine
 10
176.28489
 20
-70.077584
 30
0.0
 11
176.301908
 21
-70.053708
 31
0.0
  0
LINE
  5
8C
330
17
100
AcDbEntity
  8
0
100
AcDbLine
 10
176.301908
 20
-70.053708
 30
0.0
 11
176.31664
 21
-70.028816
 31
0.0
  0
LINE
  5
8D
330
17
100
AcDbEntity
  8
0
100
AcDbLine
 10
176.31664
 20
-70.028816
 30
0.0
 11
176.328832
 21
-70.003162
 31
0.0
  0
LINE
  5
8E
330
17
100
AcDbEntity
  8
0
100
AcDbLine
 10
176.328832
 20
-70.003162
 30
0.0
 11
176.33873799999998
 21
-69.976746
 31
0.0
  0
LINE
  5
8F
330
17
100
AcDbEntity
  8
0
100
AcDbLine
 10
176.33873799999998
 20
-69.976746
 30
0.0
 11
176.34635799999998
 21
-69.94982200000001
 31
0.0
  0
LINE
  5
90
330
17
100
AcDbEntity
  8
0
100
AcDbLine
 10
176.34635799999998
 20
-69.94982200000001
 30
0.0
 11
176.351946
 21
-69.922644
 31
0.0
  0
LINE
  5
91
330
17
100
AcDbEntity
  8
0
100
AcDbLine
 10
176.351946
 20
-69.922644
 30
0.0
 11
176.35524800000002
 21
-69.895212
 31
0.0
  0
LINE
  5
92
330
17
100
AcDbEntity
  8
0
100
AcDbLine
 10
176.35524800000002
 20
-69.895212
 30
0.0
 11
176.356518
 21
-69.86752600000001
 31
0.0
  0
LINE
  5
93
330
17
100
AcDbEntity
  8
0
100
AcDbLine
 10
176.356518
 20
-69.86752600000001
 30
0.0
 11
176.35575599999999
 21
-69.83984000000001
 31
0.0
  0
LINE
  5
94
330
17
100
AcDbEntity
  8
0
100
AcDbLine
 10
176.35575599999999
 20
-69.83984000000001
 30
0.0
 11
176.352708
 21
-69.812408
 31
0.0
  0
LINE
  5
95
330
17
100
AcDbEntity
  8
0
100
AcDbLine
 10
176.352708
 20
-69.812408
 30
0.0
 11
176.347882
 21
-69.78523
 31
0.0
  0
LINE
  5
96
330
17
100
AcDbEntity
  8
0
100
AcDbLine
 10
176.347882
 20
-69.78523
 30
0.0
 11
176.341024
 21
-69.75856
 31
0.0
  0
LINE
  5
97
330
17
100
AcDbEntity
  8
0
100
AcDbLine
 10
176.341024
 20
-69.75856
 30
0.0
 11
176.332134
 21
-69.73239799999999
 31
0.0
  0
LINE
  5
98
330
17
100
AcDbEntity
  8
0
100
AcDbLine
 10
176.332134
 20
-69.73239799999999
 30
0.0
 11
176.321466
 21
-69.70699799999998
 31
0.0
  0
LINE
  5
99
330
17
100
AcDbEntity
  8
0
100
AcDbLine
 10
176.321466
 20
-69.70699799999998
 30
0.0
 11
176.30902
 21
-69.68235999999999
 31
0.0
  0
LINE
  5
9A
330
17
100
AcDbEntity
  8
0
100
AcDbLine
 10
176.30902
 20
-69.68235999999999
 30
0.0
 11
176.294542
 21
-69.65873799999999
 31
0.0
  0
LINE
  5
9B
330
17
100
AcDbEntity
  8
0
100
AcDbLine
 10
176.294542
 20
-69.65873799999999
 30
0.0
 11
176.278286
 21
-69.63613199999999
 31
0.0
  0
LINE
  5
9C
330
17
100
AcDbEntity
  8
0
100
AcDbLine
 10
176.278286
 20
-69.63613199999999
 30
0.0
 11
176.260506
 21
-69.61479599999998
 31
0.0
  0
LINE
  5
9D
330
17
100
AcDbEntity
  8
0
100
AcDbLine
 10
176.260506
 20
-69.61479599999998
 30
0.0
 11
176.240948
 21
-69.594984
 31
0.0
  0
LINE
  5
9E
330
17
100
AcDbEntity
  8
0
100
AcDbLine
 10
176.240948
 20
-69.594984
 30
0.0
 11
176.219866
 21
-69.576696
 31
0.0
  0
LINE
  5
9F
330
17
100
AcDbEntity
  8
0
100
AcDbLine
 10
176.219866
 20
-69.576696
 30
0.0
 11
176.197006
 21
-69.559932
 31
0.0
  0
LINE
  5
A0
330
17
100
AcDbEntity
  8
0
100
AcDbLine
 10
176.197006
 20
-69.559932
 30
0.0
 11
176.172622
 21
-69.544946
 31
0.0
  0
LINE
  5
A1
330
17
100
AcDbEntity
  8
0
100
AcDbLine
 10
176.172622
 20
-69.544946
 30
0.0
 11
176.146714
 21
-69.531992
 31
0.0
  0
LINE
  5
A2
330
17
100
AcDbEntity
  8
0
100
AcDbLine
 10
176.146714
 20
-69.531992
 30
0.0
 11
176.119282
 21
-69.52107
 31
0.0
  0
LINE
  5
A3
330
17
100
AcDbEntity
  8
0
100
AcDbLine
 10
176.119282
 20
-69.52107
 30
0.0
 11
176.09058
 21
-69.512434
 31
0.0
  0
LINE
  5
A4
330
17
100
AcDbEntity
  8
0
100
AcDbLine
 10
176.09058
 20
-69.512434
 30
0.0
 11
176.060354
 21
-69.506084
 31
0.0
  0
LINE
  5
A5
330
17
100
AcDbEntity
  8
0
100
AcDbLine
 10
176.060354
 20
-69.506084
 30
0.0
 11
176.02885799999999
 21
-69.50202
 31
0.0
  0
LINE
  5
A6
330
17
100
AcDbEntity
  8
0
100
AcDbLine
 10
176.02885799999999
 20
-69.50202
 30
0.0
 11
145.778982
 21
-69.50303600000001
 31
0.0
  0
LINE
  5
A7
330
17
100
AcDbEntity
  8
0
100
AcDbLine
 10
145.778982
 20
-69.50303600000001
 30
0.0
 11
145.596864
 21
-69.521578
 31
0.0
  0
LINE
  5
A8
330
17
100
AcDbEntity
  8
0
100
AcDbLine
 10
145.596864
 20
-69.521578
 30
0.0
 11
145.420588
 21
-69.557646
 31
0.0
  0
LINE
  5
A9
330
17
100
AcDbEntity
  8
0
100
AcDbLine
 10
145.420588
 20
-69.557646
 30
0.0
 11
145.25091600000002
 21
-69.610478
 31
0.0
  0
LINE
  5
AA
330
17
100
AcDbEntity
  8
0
100
AcDbLine
 10
145.25091600000002
 20
-69.610478
 30
0.0
 11
145.088864
 21
-69.679058
 31
0.0
  0
LINE
  5
AB
330
17
100
AcDbEntity
  8
0
100
AcDbLine
 10
145.088864
 20
-69.679058
 30
0.0
 11
144.93544799999998
 21
-69.76236999999999
 31
0.0
  0
LINE
  5
AC
330
17
100
AcDbEntity
  8
0
100
AcDbLine
 10
144.93544799999998
 20
-69.76236999999999
 30
0.0
 11
144.79143
 21
-69.85965199999998
 31
0.0
  0
LINE
  5
AD
330
17
100
AcDbEntity
  8
0
100
AcDbLine
 10
144.79143
 20
-69.85965199999998
 30
0.0
 11
144.657572
 21
-69.970142
 31
0.0
  0
LINE
  5
AE
330
17
100
AcDbEntity
  8
0
100
AcDbLine
 10
144.657572
 20
-69.970142
 30
0.0
 11
144.53514399999997
 21
-70.09257
 31
0.0
  0
LINE
  5
AF
330
17
100
AcDbEntity
  8
0
100
AcDbLine
 10
144.53514399999997
 20
-70.09257
 30
0.0
 11
144.424654
 21
-70.226428
 31
0.0
  0
LINE
  5
B0
330
17
100
AcDbEntity
  8
0
100
AcDbLine
 10
144.424654
 20
-70.226428
 30
0.0
 11
144.327372
 21
-70.370446
 31
0.0
  0
LINE
  5
B1
330
17
100
AcDbEntity
  8
0
100
AcDbLine
 10
144.327372
 20
-70.370446
 30
0.0
 11
144.24406
 21
-70.523862
 31
0.0
  0
LINE
  5
B2
330
17
100
AcDbEntity
  8
0
100
AcDbLine
 10
144.24406
 20
-70.523862
 30
0.0
 11
144.17548
 21
-70.68591399999998
 31
0.0
  0
LINE
  5
B3
330
17
100
AcDbEntity
  8
0
100
AcDbLine
 10
144.17548
 20
-70.68591399999998
 30
0.0
 11
144.122648
 21
-70.85558599999999
 31
0.0
  0
LINE
  5
B4
330
17
100
AcDbEntity
  8
0
100
AcDbLine
 10
144.122648
 20
-70.85558599999999
 30
0.0
 11
144.08658
 21
-71.03186199999999
 31
0.0
  0
LINE
  5
B5
330
17
100
AcDbEntity
  8
0
100
AcDbLine
 10
144.08658
 20
-71.03186199999999
 30
0.0
 11
144.068038
 21
-71.21397999999999
 31
0.0
  0
LINE
  5
B6
330
17
100
AcDbEntity
  8
0
100
AcDbLine
 10
144.068038
 20
-71.21397999999999
 30
0.0
 11
144.06143400000002
 21
-73.18933799999998
 31
0.0
  0
LINE
  5
B7
330
17
100
AcDbEntity
  8
0
100
AcDbLine
 10
144.06143400000002
 20
-73.18933799999998
 30
0.0
 11
144.02841400000003
 21
-73.51420399999998
 31
0.0
  0
LINE
  5
B8
330
17
100
AcDbEntity
  8
0
100
AcDbLine
 10
144.02841400000003
 20
-73.51420399999998
 30
0.0
 11
143.964152
 21
-73.82865599999998
 31
0.0
  0
LINE
  5
B9
330
17
100
AcDbEntity
  8
0
100
AcDbLine
 10
143.964152
 20
-73.82865599999998
 30
0.0
 11
143.870172
 21
-74.13116999999998
 31
0.0
  0
LINE
  5
BA
330
17
100
AcDbEntity
  8
0
100
AcDbLine
 10
143.870172
 20
-74.13116999999998
 30
0.0
 11
143.747998
 21
-74.42022199999997
 31
0.0
  0
LINE
  5
BB
330
17
100
AcDbEntity
  8
0
100
AcDbLine
 10
143.747998
 20
-74.42022199999997
 30
0.0
 11
143.599154
 21
-74.69403399999996
 31
0.0
  0
LINE
  5
BC
330
17
100
AcDbEntity
  8
0
100
AcDbLine
 10
143.599154
 20
-74.69403399999996
 30
0.0
 11
143.425672
 21
-74.95108199999997
 31
0.0
  0
LINE
  5
BD
330
17
100
AcDbEntity
  8
0
100
AcDbLine
 10
143.425672
 20
-74.95108199999997
 30
0.0
 11
143.228822
 21
-75.18958799999997
 31
0.0
  0
LINE
  5
BE
330
17
100
AcDbEntity
  8
0
100
AcDbLine
 10
143.228822
 20
-75.18958799999997
 30
0.0
 11
143.010382
 21
-75.40802799999997
 31
0.0
  0
LINE
  5
BF
330
17
100
AcDbEntity
  8
0
100
AcDbLine
 10
143.010382
 20
-75.40802799999997
 30
0.0
 11
142.77187600000002
 21
-75.60487799999997
 31
0.0
  0
LINE
  5
C0
330
17
100
AcDbEntity
  8
0
100
AcDbLine
 10
142.77187600000002
 20
-75.60487799999997
 30
0.0
 11
142.51482800000002
 21
-75.77861399999998
 31
0.0
  0
LINE
  5
C1
330
17
100
AcDbEntity
  8
0
100
AcDbLine
 10
142.51482800000002
 20
-75.77861399999998
 30
0.0
 11
142.24101600000003
 21
-75.92720399999997
 31
0.0
  0
LINE
  5
C2
330
17
100
AcDbEntity
  8
0
100
AcDbLine
 10
142.24101600000003
 20
-75.92720399999997
 30
0.0
 11
141.95196400000003
 21
-76.04937799999996
 31
0.0
  0
LINE
  5
C3
330
17
100
AcDbEntity
  8
0
100
AcDbLine
 10
141.95196400000003
 20
-76.04937799999996
 30
0.0
 11
141.64945000000003
 21
-76.14335799999996
 31
0.0
  0
LINE
  5
C4
330
17
100
AcDbEntity
  8
0
100
AcDbLine
 10
141.64945000000003
 20
-76.14335799999996
 30
0.0
 11
141.334998
 21
-76.20761999999996
 31
0.0
  0
LINE
  5
C5
330
17
100
AcDbEntity
  8
0
100
AcDbLine
 10
141.334998
 20
-76.20761999999996
 30
0.0
 11
141.010132
 21
-76.24063999999997
 31
0.0
  0
LINE
  5
C6
330
17
100
AcDbEntity
  8
0
100
AcDbLine
 10
141.010132
 20
-76.24063999999997
 30
0.0
 11
130.09778400000002
 21
-76.24063999999997
 31
0.0
  0
LINE
  5
C7
330
17
100
AcDbEntity
  8
0
100
AcDbLine
 10
130.09778400000002
 20
-76.24063999999997
 30
0.0
 11
129.772918
 21
-76.20761999999996
 31
0.0
  0
LINE
  5
C8
330
17
100
AcDbEntity
  8
0
100
AcDbLine
 10
129.772918
 20
-76.20761999999996
 30
0.0
 11
129.45846600000002
 21
-76.14335799999996
 31
0.0
  0
LINE
  5
C9
330
17
100
AcDbEntity
  8
0
100
AcDbLine
 10
129.45846600000002
 20
-76.14335799999996
 30
0.0
 11
129.155952
 21
-76.04937799999996
 31
0.0
  0
LINE
  5
CA
330
17
100
AcDbEntity
  8
0
100
AcDbLine
 10
129.155952
 20
-76.04937799999996
 30
0.0
 11
128.86690000000002
 21
-75.92720399999997
 31
0.0
  0
LINE
  5
CB
330
17
100
AcDbEntity
  8
0
100
AcDbLine
 10
128.86690000000002
 20
-75.92720399999997
 30
0.0
 11
128.59308800000002
 21
-75.77861399999998
 31
0.0
  0
LINE
  5
CC
330
17
100
AcDbEntity
  8
0
100
AcDbLine
 10
128.59308800000002
 20
-75.77861399999998
 30
0.0
 11
128.33604000000003
 21
-75.60487799999997
 31
0.0
  0
LINE
  5
CD
330
17
100
AcDbEntity
  8
0
100
AcDbLine
 10
128.33604000000003
 20
-75.60487799999997
 30
0.0
 11
128.09753400000002
 21
-75.40802799999997
 31
0.0
  0
LINE
  5
CE
330
17
100
AcDbEntity
  8
0
100
AcDbLine
 10
128.09753400000002
 20
-75.40802799999997
 30
0.0
 11
127.87909400000002
 21
-75.18958799999997
 31
0.0
  0
LINE
  5
CF
330
17
100
AcDbEntity
  8
0
100
AcDbLine
 10
127.87909400000002
 20
-75.18958799999997
 30
0.0
 11
127.68224400000003
 21
-74.95108199999997
 31
0.0
  0
LINE
  5
D0
330
17
100
AcDbEntity
  8
0
100
AcDbLine
 10
127.68224400000003
 20
-74.95108199999997
 30
0.0
 11
127.50850800000002
 21
-74.69403399999996
 31
0.0
  0
LINE
  5
D1
330
17
100
AcDbEntity
  8
0
100
AcDbLine
 10
127.50850800000002
 20
-74.69403399999996
 30
0.0
 11
127.35966400000001
 21
-74.42022199999997
 31
0.0
  0
LINE
  5
D2
330
17
100
AcDbEntity
  8
0
100
AcDbLine
 10
127.35966400000001
 20
-74.42022199999997
 30
0.0
 11
127.23749000000002
 21
-74.13116999999998
 31
0.0
  0
LINE
  5
D3
330
17
100
AcDbEntity
  8
0
100
AcDbLine
 10
127.23749000000002
 20
-74.13116999999998
 30
0.0
 11
127.14351000000002
 21
-73.82865599999998
 31
0.0
  0
LINE
  5
D4
330
17
100
AcDbEntity
  8
0
100
AcDbLine
 10
127.14351000000002
 20
-73.82865599999998
 30
0.0
 11
127.07924800000002
 21
-73.51420399999998
 31
0.0
  0
LINE
  5
D5
330
17
100
AcDbEntity
  8
0
100
AcDbLine
 10
127.07924800000002
 20
-73.51420399999998
 30
0.0
 11
127.04622800000001
 21
-73.18933799999998
 31
0.0
  0
LINE
  5
D6
330
17
100
AcDbEntity
  8
0
100
AcDbLine
 10
127.04622800000001
 20
-73.18933799999998
 30
0.0
 11
127.03962400000002
 21
-71.21397999999999
 31
0.0
  0
LINE
  5
D7
330
17
100
AcDbEntity
  8
0
100
AcDbLine
 10
127.03962400000002
 20
-71.21397999999999
 30
0.0
 11
127.02108200000002
 21
-71.03186199999999
 31
0.0
  0
LINE
  5
D8
330
17
100
AcDbEntity
  8
0
100
AcDbLine
 10
127.02108200000002
 20
-71.03186199999999
 30
0.0
 11
126.98501400000002
 21
-70.85558599999999
 31
0.0
  0
LINE
  5
D9
330
17
100
AcDbEntity
  8
0
100
AcDbLine
 10
126.98501400000002
 20
-70.85558599999999
 30
0.0
 11
126.93218200000001
 21
-70.68591399999998
 31
0.0
  0
LINE
  5
DA
330
17
100
AcDbEntity
  8
0
100
AcDbLine
 10
126.93218200000001
 20
-70.68591399999998
 30
0.0
 11
126.86360200000003
 21
-70.523862
 31
0.0
  0
LINE
  5
DB
330
17
100
AcDbEntity
  8
0
100
AcDbLine
 10
126.86360200000003
 20
-70.523862
 30
0.0
 11
126.78029000000002
 21
-70.370446
 31
0.0
  0
LINE
  5
DC
330
17
100
AcDbEntity
  8
0
100
AcDbLine
 10
126.78029000000002
 20
-70.370446
 30
0.0
 11
126.68300800000003
 21
-70.226428
 31
0.0
  0
LINE
  5
DD
330
17
100
AcDbEntity
  8
0
100
AcDbLine
 10
126.68300800000003
 20
-70.226428
 30
0.0
 11
126.57251800000003
 21
-70.09257
 31
0.0
  0
LINE
  5
DE
330
17
100
AcDbEntity
  8
0
100
AcDbLine
 10
126.57251800000003
 20
-70.09257
 30
0.0
 11
126.45009000000003
 21
-69.970142
 31
0.0
  0
LINE
  5
DF
330
17
100
AcDbEntity
  8
0
100
AcDbLine
 10
126.45009000000003
 20
-69.970142
 30
0.0
 11
126.31623200000003
 21
-69.85965199999998
 31
0.0
  0
LINE
  5
E0
330
17
100
AcDbEntity
  8
0
100
AcDbLine
 10
126.31623200000003
 20
-69.85965199999998
 30
0.0
 11
126.17221400000003
 21
-69.76236999999999
 31
0.0
  0
LINE
  5
E1
330
17
100
AcDbEntity
  8
0
100
AcDbLine
 10
126.17221400000003
 20
-69.76236999999999
 30
0.0
 11
126.01879800000003
 21
-69.679058
 31
0.0
  0
LINE
  5
E2
330
17
100
AcDbEntity
  8
0
100
AcDbLine
 10
126.01879800000003
 20
-69.679058
 30
0.0
 11
125.85674600000003
 21
-69.610478
 31
0.0
  0
LINE
  5
E3
330
17
100
AcDbEntity
  8
0
100
AcDbLine
 10
125.85674600000003
 20
-69.610478
 30
0.0
 11
125.68707400000004
 21
-69.557646
 31
0.0
  0
LINE
  5
E4
330
17
100
AcDbEntity
  8
0
100
AcDbLine
 10
125.68707400000004
 20
-69.557646
 30
0.0
 11
125.51079800000004
 21
-69.521578
 31
0.0
  0
LINE
  5
E5
330
17
100
AcDbEntity
  8
0
100
AcDbLine
 10
125.51079800000004
 20
-69.521578
 30
0.0
 11
125.32868000000003
 21
-69.50303600000001
 31
0.0
  0
LINE
  5
E6
330
17
100
AcDbEntity
  8
0
100
AcDbLine
 10
125.32868000000003
 20
-69.50303600000001
 30
0.0
 11
99.75799200000004
 21
-69.50075
 31
0.0
  0
LINE
  5
E7
330
17
100
AcDbEntity
  8
0
100
AcDbLine
 10
99.75799200000004
 20
-69.50075
 30
0.0
 11
101.39070400000004
 21
-75.281028
 31
0.0
  0
LINE
  5
E8
330
17
100
AcDbEntity
  8
0
100
AcDbLine
 10
101.39070400000004
 20
-75.281028
 30
0.0
 11
101.96449000000004
 21
-78.143608
 31
0.0
  0
LINE
  5
E9
330
17
100
AcDbEntity
  8
0
100
AcDbLine
 10
101.96449000000004
 20
-78.143608
 30
0.0
 11
122.16663400000004
 21
-79.88757199999999
 31
0.0
  0
LINE
  5
EA
330
17
100
AcDbEntity
  8
0
100
AcDbLine
 10
122.16663400000004
 20
-79.88757199999999
 30
0.0
 11
123.06300000000005
 21
-80.14589
 31
0.0
  0
LINE
  5
EB
330
17
100
AcDbEntity
  8
0
100
AcDbLine
 10
123.06300000000005
 20
-80.14589
 30
0.0
 11
123.90170800000006
 21
-80.50910999999999
 31
0.0
  0
LINE
  5
EC
330
17
100
AcDbEntity
  8
0
100
AcDbLine
 10
123.90170800000006
 20
-80.50910999999999
 30
0.0
 11
124.68606000000005
 21
-80.966818
 31
0.0
  0
LINE
  5
ED
330
17
100
AcDbEntity
  8
0
100
AcDbLine
 10
124.68606000000005
 20
-80.966818
 30
0.0
 11
125.41935800000006
 21
-81.508854
 31
0.0
  0
LINE
  5
EE
330
17
100
AcDbEntity
  8
0
100
AcDbLine
 10
125.41935800000006
 20
-81.508854
 30
0.0
 11
126.10515800000006
 21
-82.125058
 31
0.0
  0
LINE
  5
EF
330
17
100
AcDbEntity
  8
0
100
AcDbLine
 10
126.10515800000006
 20
-82.125058
 30
0.0
 11
126.74650800000005
 21
-82.80527
 31
0.0
  0
LINE
  5
F0
330
17
100
AcDbEntity
  8
0
100
AcDbLine
 10
126.74650800000005
 20
-82.80527
 30
0.0
 11
127.90982800000005
 21
-84.316316
 31
0.0
  0
LINE
  5
F1
330
17
100
AcDbEntity
  8
0
100
AcDbLine
 10
127.90982800000005
 20
-84.316316
 30
0.0
 11
131.60095600000002
 21
-91.188794
 31
0.0
  0
LINE
  5
F2
330
17
100
AcDbEntity
  8
0
100
AcDbLine
 10
131.60095600000002
 20
-91.188794
 30
0.0
 11
156.08604800000003
 21
-153.81376400000002
 31
0.0
  0
LINE
  5
F3
330
17
100
AcDbEntity
  8
0
100
AcDbLine
 10
156.08604800000003
 20
-153.81376400000002
 30
0.0
 11
156.29432800000006
 21
-154.203654
 31
0.0
  0
LINE
  5
F4
330
17
100
AcDbEntity
  8
0
100
AcDbLine
 10
156.29432800000006
 20
-154.203654
 30
0.0
 11
156.54655000000008
 21
-154.561794
 31
0.0
  0
LINE
  5
F5
330
17
100
AcDbEntity
  8
0
100
AcDbLine
 10
156.54655000000008
 20
-154.561794
 30
0.0
 11
156.83890400000007
 21
-154.88412
 31
0.0
  0
LINE
  5
F6
330
17
100
AcDbEntity
  8
0
100
AcDbLine
 10
156.83890400000007
 20
-154.88412
 30
0.0
 11
157.16808800000007
 21
-155.166822
 31
0.0
  0
LINE
  5
F7
330
17
100
AcDbEntity
  8
0
100
AcDbLine
 10
157.16808800000007
 20
-155.166822
 30
0.0
 11
157.5302920000001
 21
-155.40609
 31
0.0
  0
LINE
  5
F8
330
17
100
AcDbEntity
  8
0
100
AcDbLine
 10
157.5302920000001
 20
-155.40609
 30
0.0
 11
157.9219600000001
 21
-155.59786
 31
0.0
  0
LINE
  5
F9
330
17
100
AcDbEntity
  8
0
100
AcDbLine
 10
157.9219600000001
 20
-155.59786
 30
0.0
 11
158.3395360000001
 21
-155.738576
 31
0.0
  0
LINE
  5
FA
330
17
100
AcDbEntity
  8
0
100
AcDbLine
 10
158.3395360000001
 20
-155.738576
 30
0.0
 11
164.83482400000008
 21
-156.621226
 31
0.0
  0
LINE
  5
FB
330
17
100
AcDbEntity
  8
0
100
AcDbLine
 10
164.83482400000008
 20
-156.621226
 30
0.0
 11
173.6951060000001
 21
-156.89554600000002
 31
0.0
  0
LINE
  5
FC
330
17
100
AcDbEntity
  8
0
100
AcDbLine
 10
173.6951060000001
 20
-156.89554600000002
 30
0.0
 11
190.4969520000001
 21
-155.744418
 31
0.0
  0
LINE
  5
FD
330
17
100
AcDbEntity
  8
0
100
AcDbLine
 10
190.4969520000001
 20
-155.744418
 30
0.0
 11
190.8337560000001
 21
-155.651962
 31
0.0
  0
LINE
  5
FE
330
17
100
AcDbEntity
  8
0
100
AcDbLine
 10
190.8337560000001
 20
-155.651962
 30
0.0
 11
191.15455800000012
 21
-155.52801
 31
0.0
  0
LINE
  5
FF
330
17
100
AcDbEntity
  8
0
100
AcDbLine
 10
191.15455800000012
 20
-155.52801
 30
0.0
 11
191.45808800000012
 21
-155.37434
 31
0.0
  0
LINE
  5
100
330
17
100
AcDbEntity
  8
0
100
AcDbLine
 10
191.45808800000012
 20
-155.37434
 30
0.0
 11
191.74256800000012
 21
-155.19323799999998
 31
0.0
  0
LINE
  5
101
330
17
100
AcDbEntity
  8
0
100
AcDbLine
 10
191.74256800000012
 20
-155.19323799999998
 30
0.0
 11
192.00672800000012
 21
-154.986482
 31
0.0
  0
LINE
  5
102
330
17
100
AcDbEntity
  8
0
100
AcDbLine
 10
192.00672800000012
 20
-154.986482
 30
0.0
 11
192.24879000000013
 21
-154.756104
 31
0.0
  0
LINE
  5
103
330
17
100
AcDbEntity
  8
0
100
AcDbLine
 10
192.24879000000013
 20
-154.756104
 30
0.0
 11
192.46723000000011
 21
-154.504136
 31
0.0
  0
LINE
  5
104
330
17
100
AcDbEntity
  8
0
100
AcDbLine
 10
192.46723000000011
 20
-154.504136
 30
0.0
 11
192.6602700000001
 21
-154.23235599999998
 31
0.0
  0
LINE
  5
105
330
17
100
AcDbEntity
  8
0
100
AcDbLine
 10
192.6602700000001
 20
-154.23235599999998
 30
0.0
 11
192.8266400000001
 21
-153.942796
 31
0.0
  0
LINE
  5
106
330
17
100
AcDbEntity
  8
0
100
AcDbLine
 10
192.8266400000001
 20
-153.942796
 30
0.0
 11
192.96456200000011
 21
-153.637488
 31
0.0
  0
LINE
  5
107
330
17
100
AcDbEntity
  8
0
100
AcDbLine
 10
192.96456200000011
 20
-153.637488
 30
0.0
 11
193.0725120000001
 21
-153.318464
 31
0.0
  0
LINE
  5
108
330
17
100
AcDbEntity
  8
0
100
AcDbLine
 10
193.0725120000001
 20
-153.318464
 30
0.0
 11
193.14896600000012
 21
-152.987502
 31
0.0
  0
LINE
  5
109
330
17
100
AcDbEntity
  8
0
100
AcDbLine
 10
193.14896600000012
 20
-152.987502
 30
0.0
 11
193.19240000000013
 21
-152.646634
 31
0.0
  0
LINE
  5
10A
330
17
100
AcDbEntity
  8
0
100
AcDbLine
 10
193.19240000000013
 20
-152.646634
 30
0.0
 11
193.2012900000001
 21
-152.297892
 31
0.0
  0
LINE
  5
10B
330
17
100
AcDbEntity
  8
0
100
AcDbLine
 10
193.2012900000001
 20
-152.297892
 30
0.0
 11
192.51447400000012
 21
-148.293074
 31
0.0
  0
LINE
  5
10C
330
17
100
AcDbEntity
  8
0
100
AcDbLine
 10
192.51447400000012
 20
-148.293074
 30
0.0
 11
191.12306200000015
 21
-143.60905999999997
 31
0.0
  0
LINE
  5
10D
330
17
100
AcDbEntity
  8
0
100
AcDbLine
 10
191.12306200000015
 20
-143.60905999999997
 30
0.0
 11
189.23584200000016
 21
-139.10944999999995
 31
0.0
  0
LINE
  5
10E
330
17
100
AcDbEntity
  8
0
100
AcDbLine
 10
189.23584200000016
 20
-139.10944999999995
 30
0.0
 11
184.19318000000015
 21
-130.05434999999997
 31
0.0
  0
ENDSEC
  0
SECTION
  2
OBJECTS
  0
DICTIONARY
  5
A
330
0
100
AcDbDictionary
281
1
  3
ACAD_COLOR
350
B
  3
ACAD_GROUP
350
C
  3
ACAD_LAYOUT
350
D
  3
ACAD_MATERIAL
350
E
  3
ACAD_MLEADERSTYLE
350
F
  3
ACAD_MLINESTYLE
350
10
  3
ACAD_PLOTSETTINGS
350
11
  3
ACAD_PLOTSTYLENAME
350
12
  3
ACAD_SCALELIST
350
14
  3
ACAD_TABLESTYLE
350
15
  3
ACAD_VISUALSTYLE
350
16
  3
EZDXF_META
350
2D
  0
DICTIONARY
  5
B
330
A
100
AcDbDictionary
281
1
  0
DICTIONARY
  5
C
330
A
100
AcDbDictionary
281
1
  0
DICTIONARY
  5
D
330
A
100
AcDbDictionary
281
1
  3
Model
350
1A
  3
Layout1
350
1E
  0
DICTIONARY
  5
E
330
A
100
AcDbDictionary
281
1
  3
ByBlock
350
1F
  3
ByLayer
350
20
  3
Global
350
21
  0
DICTIONARY
  5
F
330
A
100
AcDbDictionary
281
1
  3
Standard
350
2C
  0
DICTIONARY
  5
10
330
A
100
AcDbDictionary
281
1
  3
Standard
350
22
  0
DICTIONARY
  5
11
330
A
100
AcDbDictionary
281
1
  0
ACDBDICTIONARYWDFLT
  5
12
330
A
100
AcDbDictionary
281
1
  3
Normal
350
13
100
AcDbDictionaryWithDefault
340
13
  0
ACDBPLACEHOLDER
  5
13
330
12
  0
DICTIONARY
  5
14
330
A
100
AcDbDictionary
281
1
  0
DICTIONARY
  5
15
330
A
100
AcDbDictionary
281
1
  0
DICTIONARY
  5
16
330
A
100
AcDbDictionary
281
1
  0
LAYOUT
  5
1A
330
D
100
AcDbPlotSettings
  1

  4
A3
  6

 40
7.5
 41
20.0
 42
7.5
 43
20.0
 44
420.0
 45
297.0
 46
0.0
 47
0.0
 48
0.0
 49
0.0
140
0.0
141
0.0
142
1.0
143
1.0
 70
1024
 72
1
 73
0
 74
5
  7

 75
16
 76
0
 77
2
 78
300
147
1.0
148
0.0
149
0.0
100
AcDbLayout
  1
Model
 70
1
 71
0
 10
0.0
 20
0.0
 11
420.0
 21
297.0
 12
0.0
 22
0.0
 32
0.0
 14
1e+20
 24
1e+20
 34
1e+20
 15
-1e+20
 25
-1e+20
 35
-1e+20
146
0.0
 13
0.0
 23
0.0
 33
0.0
 16
1.0
 26
0.0
 36
0.0
 17
0.0
 27
1.0
 37
0.0
 76
1
330
17
  0
LAYOUT
  5
1E
330
D
100
AcDbPlotSettings
  1

  4
A3
  6

 40
7.5
 41
20.0
 42
7.5
 43
20.0
 44
420.0
 45
297.0
 46
0.0
 47
0.0
 48
0.0
 49
0.0
140
0.0
141
0.0
142
1.0
143
1.0
 70
0
 72
1
 73
0
 74
5
  7

 75
16
 76
0
 77
2
 78
300
147
1.0
148
0.0
149
0.0
100
AcDbLayout
  1
Layout1
 70
1
 71
1
 10
0.0
 20
0.0
 11
420.0
 21
297.0
 12
0.0
 22
0.0
 32
0.0
 14
1e+20
 24
1e+20
 34
1e+20
 15
-1e+20
 25
-1e+20
 35
-1e+20
146
0.0
 13
0.0
 23
0.0
 33
0.0
 16
1.0
 26
0.0
 36
0.0
 17
0.0
 27
1.0
 37
0.0
 76
1
330
1B
  0
MATERIAL
  5
1F
102
{ACAD_REACTORS
330
E
102
}
330
E
100
AcDbMaterial
  1
ByBlock
  2

 70
0
 40
1.0
 71
1
 41
1.0
 91
-1023410177
 42
1.0
 72
1
  3

 73
1
 74
1
 75
1
 44
0.5
 73
0
 45
1.0
 46
1.0
 77
1
  4

 78
1
 79
1
170
1
 48
1.0
171
1
  6

172
1
173
1
174
1
140
1.0
141
1.0
175
1
  7

176
1
177
1
178
1
143
1.0
179
1
  8

270
1
271
1
272
1
145
1.0
146
1.0
273
1
  9

274
1
275
1
276
1
 42
1.0
 72
1
  3

 73
1
 74
1
 75
1
 94
63
  0
MATERIAL
  5
20
102
{ACAD_REACTORS
330
E
102
}
330
E
100
AcDbMaterial
  1
ByLayer
  2

 70
0
 40
1.0
 71
1
 41
1.0
 91
-1023410177
 42
1.0
 72
1
  3

 73
1
 74
1
 75
1
 44
0.5
 73
0
 45
1.0
 46
1.0
 77
1
  4

 78
1
 79
1
170
1
 48
1.0
171
1
  6

172
1
173
1
174
1
140
1.0
141
1.0
175
1
  7

176
1
177
1
178
1
143
1.0
179
1
  8

270
1
271
1
272
1
145
1.0
146
1.0
273
1
  9

274
1
275
1
276
1
 42
1.0
 72
1
  3

 73
1
 74
1
 75
1
 94
63
  0
MATERIAL
  5
21
102
{ACAD_REACTORS
330
E
102
}
330
E
100
AcDbMaterial
  1
Global
  2

 70
0
 40
1.0
 71
1
 41
1.0
 91
-1023410177
 42
1.0
 72
1
  3

 73
1
 74
1
 75
1
 44
0.5
 73
0
 45
1.0
 46
1.0
 77
1
  4

 78
1
 79
1
170
1
 48
1.0
171
1
  6

172
1
173
1
174
1
140
1.0
141
1.0
175
1
  7

176
1
177
1
178
1
143
1.0
179
1
  8

270
1
271
1
272
1
145
1.0
146
1.0
273
1
  9

274
1
275
1
276
1
 42
1.0
 72
1
  3

 73
1
 74
1
 75
1
 94
63
  0
MLINESTYLE
  5
22
102
{ACAD_REACTORS
330
10
102
}
330
10
100
AcDbMlineStyle
  2
Standard
 70
0
  3

 62
256
 51
90.0
 52
90.0
 71
2
 49
0.5
 62
256
  6
BYLAYER
 49
-0.5
 62
256
  6
BYLAYER
  0
MLEADERSTYLE
  5
2C
102
{ACAD_REACTORS
330
F
102
}
330
F
100
AcDbMLeaderStyle
179
2
170
2
171
1
172
0
 90
2
 40
0.0
 41
0.0
173
1
 91
-1056964608
 92
-2
290
1
 42
2.0
291
1
 43
8.0
  3
Standard
 44
4.0
300

342
29
174
1
175
1
176
0
178
1
 93
-1056964608
 45
4.0
292
0
297
0
 46
4.0
 94
-1056964608
 47
1.0
 49
1.0
140
1.0
294
1
141
0.0
177
0
142
1.0
295
0
296
0
143
3.75
271
0
272
9
273
9
  0
DICTIONARY
  5
2D
330
A
100
AcDbDictionary
280
1
281
1
  3
CREATED_BY_EZDXF
350
2E
  3
WRITTEN_BY_EZDXF
350
111
  0
DICTIONARYVAR
  5
2E
330
2D
100
DictionaryVariables
280
0
  1
1.4.3 @ 2026-04-08T00:18:17.745996+00:00
  0
DICTIONARYVAR
  5
111
330
2D
100
DictionaryVariables
280
0
  1
1.4.3 @ 2026-04-08T00:18:17.748245+00:00
  0
ENDSEC
  0
EOF
