  0
SECTION
  2
HEADER
  9
$ACADVER
  1
AC1024
  9
$ACADMAINTVER
 70
6
  9
$DWGCODEPAGE
  3
ANSI_1252
  9
$LASTSAVEDBY
  1
ezdxf
  9
$INSBASE
 10
0.0
 20
0.0
 30
0.0
  9
$EXTMIN
 10
1e+20
 20
1e+20
 30
1e+20
  9
$EXTMAX
 10
-1e+20
 20
-1e+20
 30
-1e+20
  9
$LIMMIN
 10
0.0
 20
0.0
  9
$LIMMAX
 10
420.0
 20
297.0
  9
$ORTHOMODE
 70
0
  9
$REGENMODE
 70
1
  9
$FILLMODE
 70
1
  9
$QTEXTMODE
 70
0
  9
$MIRRTEXT
 70
1
  9
$LTSCALE
 40
1.0
  9
$ATTMODE
 70
1
  9
$TEXTSIZE
 40
2.5
  9
$TRACEWID
 40
1.0
  9
$TEXTSTYLE
  7
Standard
  9
$CLAYER
  8
0
  9
$CELTYPE
  6
ByLayer
  9
$CECOLOR
 62
256
  9
$CELTSCALE
 40
1.0
  9
$DISPSILH
 70
0
  9
$DIMSCALE
 40
1.0
  9
$DIMASZ
 40
2.5
  9
$DIMEXO
 40
0.625
  9
$DIMDLI
 40
3.75
  9
$DIMRND
 40
0.0
  9
$DIMDLE
 40
0.0
  9
$DIMEXE
 40
1.25
  9
$DIMTP
 40
0.0
  9
$DIMTM
 40
0.0
  9
$DIMTXT
 40
2.5
  9
$DIMCEN
 40
2.5
  9
$DIMTSZ
 40
0.0
  9
$DIMTOL
 70
0
  9
$DIMLIM
 70
0
  9
$DIMTIH
 70
0
  9
$DIMTOH
 70
0
  9
$DIMSE1
 70
0
  9
$DIMSE2
 70
0
  9
$DIMTAD
 70
1
  9
$DIMZIN
 70
8
  9
$DIMBLK
  1

  9
$DIMASO
 70
1
  9
$DIMSHO
 70
1
  9
$DIMPOST
  1

  9
$DIMAPOST
  1

  9
$DIMALT
 70
0
  9
$DIMALTD
 70
3
  9
$DIMALTF
 40
0.03937007874
  9
$DIMLFAC
 40
1.0
  9
$DIMTOFL
 70
1
  9
$DIMTVP
 40
0.0
  9
$DIMTIX
 70
0
  9
$DIMSOXD
 70
0
  9
$DIMSAH
 70
0
  9
$DIMBLK1
  1

  9
$DIMBLK2
  1

  9
$DIMSTYLE
  2
ISO-25
  9
$DIMCLRD
 70
0
  9
$DIMCLRE
 70
0
  9
$DIMCLRT
 70
0
  9
$DIMTFAC
 40
1.0
  9
$DIMGAP
 40
0.625
  9
$DIMJUST
 70
0
  9
$DIMSD1
 70
0
  9
$DIMSD2
 70
0
  9
$DIMTOLJ
 70
0
  9
$DIMTZIN
 70
8
  9
$DIMALTZ
 70
0
  9
$DIMALTTZ
 70
0
  9
$DIMUPT
 70
0
  9
$DIMDEC
 70
2
  9
$DIMTDEC
 70
2
  9
$DIMALTU
 70
2
  9
$DIMALTTD
 70
3
  9
$DIMTXSTY
  7
Standard
  9
$DIMAUNIT
 70
0
  9
$DIMADEC
 70
0
  9
$DIMALTRND
 40
0.0
  9
$DIMAZIN
 70
0
  9
$DIMDSEP
 70
44
  9
$DIMATFIT
 70
3
  9
$DIMFRAC
 70
0
  9
$DIMLDRBLK
  1

  9
$DIMLUNIT
 70
2
  9
$DIMLWD
 70
-2
  9
$DIMLWE
 70
-2
  9
$DIMTMOVE
 70
0
  9
$DIMFXL
 40
1.0
  9
$DIMFXLON
 70
0
  9
$DIMJOGANG
 40
0.785398163397
  9
$DIMTFILL
 70
0
  9
$DIMTFILLCLR
 70
0
  9
$DIMARCSYM
 70
0
  9
$DIMLTYPE
  6

  9
$DIMLTEX1
  6

  9
$DIMLTEX2
  6

  9
$DIMTXTDIRECTION
 70
0
  9
$LUNITS
 70
2
  9
$LUPREC
 70
4
  9
$SKETCHINC
 40
1.0
  9
$FILLETRAD
 40
10.0
  9
$AUNITS
 70
0
  9
$AUPREC
 70
2
  9
$MENU
  1
.
  9
$ELEVATION
 40
0.0
  9
$PELEVATION
 40
0.0
  9
$THICKNESS
 40
0.0
  9
$LIMCHECK
 70
0
  9
$CHAMFERA
 40
0.0
  9
$CHAMFERB
 40
0.0
  9
$CHAMFERC
 40
0.0
  9
$CHAMFERD
 40
0.0
  9
$SKPOLY
 70
0
  9
$TDCREATE
 40
2461138.7153935186
  9
$TDUCREATE
 40
2458532.153996898
  9
$TDUPDATE
 40
2461138.7153935186
  9
$TDUUPDATE
 40
2458532.1544311
  9
$TDINDWG
 40
0.0
  9
$TDUSRTIMER
 40
0.0
  9
$USRTIMER
 70
1
  9
$ANGBASE
 50
0.0
  9
$ANGDIR
 70
0
  9
$PDMODE
 70
0
  9
$PDSIZE
 40
0.0
  9
$PLINEWID
 40
0.0
  9
$SPLFRAME
 70
0
  9
$SPLINETYPE
 70
6
  9
$SPLINESEGS
 70
8
  9
$HANDSEED
  5
131
  9
$SURFTAB1
 70
6
  9
$SURFTAB2
 70
6
  9
$SURFTYPE
 70
6
  9
$SURFU
 70
6
  9
$SURFV
 70
6
  9
$UCSBASE
  2

  9
$UCSNAME
  2

  9
$UCSORG
 10
0.0
 20
0.0
 30
0.0
  9
$UCSXDIR
 10
1.0
 20
0.0
 30
0.0
  9
$UCSYDIR
 10
0.0
 20
1.0
 30
0.0
  9
$UCSORTHOREF
  2

  9
$UCSORTHOVIEW
 70
0
  9
$UCSORGTOP
 10
0.0
 20
0.0
 30
0.0
  9
$UCSORGBOTTOM
 10
0.0
 20
0.0
 30
0.0
  9
$UCSORGLEFT
 10
0.0
 20
0.0
 30
0.0
  9
$UCSORGRIGHT
 10
0.0
 20
0.0
 30
0.0
  9
$UCSORGFRONT
 10
0.0
 20
0.0
 30
0.0
  9
$UCSORGBACK
 10
0.0
 20
0.0
 30
0.0
  9
$PUCSBASE
  2

  9
$PUCSNAME
  2

  9
$PUCSORG
 10
0.0
 20
0.0
 30
0.0
  9
$PUCSXDIR
 10
1.0
 20
0.0
 30
0.0
  9
$PUCSYDIR
 10
0.0
 20
1.0
 30
0.0
  9
$PUCSORTHOREF
  2

  9
$PUCSORTHOVIEW
 70
0
  9
$PUCSORGTOP
 10
0.0
 20
0.0
 30
0.0
  9
$PUCSORGBOTTOM
 10
0.0
 20
0.0
 30
0.0
  9
$PUCSORGLEFT
 10
0.0
 20
0.0
 30
0.0
  9
$PUCSORGRIGHT
 10
0.0
 20
0.0
 30
0.0
  9
$PUCSORGFRONT
 10
0.0
 20
0.0
 30
0.0
  9
$PUCSORGBACK
 10
0.0
 20
0.0
 30
0.0
  9
$USERI1
 70
0
  9
$USERI2
 70
0
  9
$USERI3
 70
0
  9
$USERI4
 70
0
  9
$USERI5
 70
0
  9
$USERR1
 40
0.0
  9
$USERR2
 40
0.0
  9
$USERR3
 40
0.0
  9
$USERR4
 40
0.0
  9
$USERR5
 40
0.0
  9
$WORLDVIEW
 70
1
  9
$SHADEDGE
 70
3
  9
$SHADEDIF
 70
70
  9
$TILEMODE
 70
1
  9
$MAXACTVP
 70
64
  9
$PINSBASE
 10
0.0
 20
0.0
 30
0.0
  9
$PLIMCHECK
 70
0
  9
$PEXTMIN
 10
1e+20
 20
1e+20
 30
1e+20
  9
$PEXTMAX
 10
-1e+20
 20
-1e+20
 30
-1e+20
  9
$PLIMMIN
 10
0.0
 20
0.0
  9
$PLIMMAX
 10
420.0
 20
297.0
  9
$UNITMODE
 70
0
  9
$VISRETAIN
 70
1
  9
$PLINEGEN
 70
0
  9
$PSLTSCALE
 70
1
  9
$TREEDEPTH
 70
3020
  9
$CMLSTYLE
  2
Standard
  9
$CMLJUST
 70
0
  9
$CMLSCALE
 40
20.0
  9
$PROXYGRAPHICS
 70
1
  9
$MEASUREMENT
 70
1
  9
$CELWEIGHT
370
-1
  9
$ENDCAPS
280
0
  9
$JOINSTYLE
280
0
  9
$LWDISPLAY
290
0
  9
$INSUNITS
 70
6
  9
$HYPERLINKBASE
  1

  9
$STYLESHEET
  1

  9
$XEDIT
290
1
  9
$CEPSNTYPE
380
0
  9
$PSTYLEMODE
290
1
  9
$FINGERPRINTGUID
  2
{F58188E2-148C-4A8B-9AD0-E399D5566E01}
  9
$VERSIONGUID
  2
{74BDE50F-D7AB-48D4-A384-8BBECB30392C}
  9
$EXTNAMES
290
1
  9
$PSVPSCALE
 40
0.0
  9
$OLESTARTUP
290
0
  9
$SORTENTS
280
127
  9
$INDEXCTL
280
0
  9
$HIDETEXT
280
1
  9
$XCLIPFRAME
280
1
  9
$HALOGAP
280
0
  9
$OBSCOLOR
 70
257
  9
$OBSLTYPE
280
0
  9
$INTERSECTIONDISPLAY
280
0
  9
$INTERSECTIONCOLOR
 70
257
  9
$DIMASSOC
280
2
  9
$PROJECTNAME
  1

  9
$CAMERADISPLAY
290
0
  9
$LENSLENGTH
 40
50.0
  9
$CAMERAHEIGHT
 40
0.0
  9
$STEPSPERSEC
 40
24.0
  9
$STEPSIZE
 40
100.0
  9
$3DDWFPREC
 40
2.0
  9
$PSOLWIDTH
 40
0.005
  9
$PSOLHEIGHT
 40
0.08
  9
$LOFTANG1
 40
1.570796326795
  9
$LOFTANG2
 40
1.570796326795
  9
$LOFTMAG1
 40
0.0
  9
$LOFTMAG2
 40
0.0
  9
$LOFTPARAM
 70
7
  9
$LOFTNORMALS
280
1
  9
$LATITUDE
 40
37.795
  9
$LONGITUDE
 40
-122.394
  9
$NORTHDIRECTION
 40
0.0
  9
$TIMEZONE
 70
-8000
  9
$LIGHTGLYPHDISPLAY
280
1
  9
$TILEMODELIGHTSYNCH
280
1
  9
$CMATERIAL
347
20
  9
$SOLIDHIST
280
0
  9
$SHOWHIST
280
1
  9
$DWFFRAME
280
2
  9
$DGNFRAME
280
2
  9
$REALWORLDSCALE
290
1
  9
$INTERFERECOLOR
 62
256
  9
$CSHADOW
280
0
  9
$SHADOWPLANELOCATION
 40
0.0
  0
ENDSEC
  0
SECTION
  2
CLASSES
  0
CLASS
  1
ACDBDICTIONARYWDFLT
  2
AcDbDictionaryWithDefault
  3
ObjectDBX Classes
 90
0
 91
0
280
0
281
0
  0
CLASS
  1
SUN
  2
AcDbSun
  3
SCENEOE
 90
1153
 91
0
280
0
281
0
  0
CLASS
  1
VISUALSTYLE
  2
AcDbVisualStyle
  3
ObjectDBX Classes
 90
4095
 91
0
280
0
281
0
  0
CLASS
  1
MATERIAL
  2
AcDbMaterial
  3
ObjectDBX Classes
 90
1153
 91
0
280
0
281
0
  0
CLASS
  1
SCALE
  2
AcDbScale
  3
ObjectDBX Classes
 90
1153
 91
0
280
0
281
0
  0
CLASS
  1
TABLESTYLE
  2
AcDbTableStyle
  3
ObjectDBX Classes
 90
4095
 91
0
280
0
281
0
  0
CLASS
  1
MLEADERSTYLE
  2
AcDbMLeaderStyle
  3
ACDB_MLEADERSTYLE_CLASS
 90
4095
 91
0
280
0
281
0
  0
CLASS
  1
DICTIONARYVAR
  2
AcDbDictionaryVar
  3
ObjectDBX Classes
 90
0
 91
0
280
0
281
0
  0
CLASS
  1
CELLSTYLEMAP
  2
AcDbCellStyleMap
  3
ObjectDBX Classes
 90
1152
 91
0
280
0
281
0
  0
CLASS
  1
MENTALRAYRENDERSETTINGS
  2
AcDbMentalRayRenderSettings
  3
SCENEOE
 90
1024
 91
0
280
0
281
0
  0
CLASS
  1
ACDBDETAILVIEWSTYLE
  2
AcDbDetailViewStyle
  3
ObjectDBX Classes
 90
1025
 91
0
280
0
281
0
  0
CLASS
  1
ACDBSECTIONVIEWSTYLE
  2
AcDbSectionViewStyle
  3
ObjectDBX Classes
 90
1025
 91
0
280
0
281
0
  0
CLASS
  1
RASTERVARIABLES
  2
AcDbRasterVariables
  3
ISM
 90
0
 91
0
280
0
281
0
  0
CLASS
  1
ACDBPLACEHOLDER
  2
AcDbPlaceHolder
  3
ObjectDBX Classes
 90
0
 91
0
280
0
281
0
  0
CLASS
  1
LAYOUT
  2
AcDbLayout
  3
ObjectDBX Classes
 90
0
 91
0
280
0
281
0
  0
ENDSEC
  0
SECTION
  2
TABLES
  0
TABLE
  2
VPORT
  5
8
330
0
100
AcDbSymbolTable
 70
1
  0
VPORT
  5
23
330
8
100
AcDbSymbolTableRecord
100
AcDbViewportTableRecord
  2
*Active
 70
0
 10
0.0
 20
0.0
 11
1.0
 21
1.0
 12
0.0
 22
0.0
 13
0.0
 23
0.0
 14
0.5
 24
0.5
 15
0.5
 25
0.5
 16
0.0
 26
0.0
 36
1.0
 17
0.0
 27
0.0
 37
0.0
 40
1000.0
 41
1.34
 42
50.0
 43
0.0
 44
0.0
 50
0.0
 51
0.0
 71
0
 72
1000
 73
1
 74
3
 75
0
 76
0
 77
0
 78
0
281
0
 65
0
146
0.0
  0
ENDTAB
  0
TABLE
  2
LTYPE
  5
2
330
0
100
AcDbSymbolTable
 70
3
  0
LTYPE
  5
24
330
2
100
AcDbSymbolTableRecord
100
AcDbLinetypeTableRecord
  2
ByBlock
 70
0
  3

 72
65
 73
0
 40
0.0
  0
LTYPE
  5
25
330
2
100
AcDbSymbolTableRecord
100
AcDbLinetypeTableRecord
  2
ByLayer
 70
0
  3

 72
65
 73
0
 40
0.0
  0
LTYPE
  5
26
330
2
100
AcDbSymbolTableRecord
100
AcDbLinetypeTableRecord
  2
Continuous
 70
0
  3

 72
65
 73
0
 40
0.0
  0
ENDTAB
  0
TABLE
  2
LAYER
  5
1
330
0
100
AcDbSymbolTable
 70
2
  0
LAYER
  5
27
330
1
100
AcDbSymbolTableRecord
100
AcDbLayerTableRecord
  2
0
 70
0
 62
7
  6
Continuous
370
-3
390
13
347
21
  0
LAYER
  5
28
330
1
100
AcDbSymbolTableRecord
100
AcDbLayerTableRecord
  2
Defpoints
 70
0
 62
7
  6
Continuous
290
0
370
-3
390
13
347
21
  0
ENDTAB
  0
TABLE
  2
STYLE
  5
5
330
0
100
AcDbSymbolTable
 70
1
  0
STYLE
  5
29
330
5
100
AcDbSymbolTableRecord
100
AcDbTextStyleTableRecord
  2
Standard
 70
0
 40
0.0
 41
1.0
 50
0.0
 71
0
 42
2.5
  3
txt
  4

  0
ENDTAB
  0
TABLE
  2
VIEW
  5
7
330
0
100
AcDbSymbolTable
 70
0
  0
ENDTAB
  0
TABLE
  2
UCS
  5
6
330
0
100
AcDbSymbolTable
 70
0
  0
ENDTAB
  0
TABLE
  2
APPID
  5
3
330
0
100
AcDbSymbolTable
 70
3
  0
APPID
  5
2A
330
3
100
AcDbSymbolTableRecord
100
AcDbRegAppTableRecord
  2
ACAD
 70
0
  0
APPID
  5
12E
330
3
100
AcDbSymbolTableRecord
100
AcDbRegAppTableRecord
  2
HATCHBACKGROUNDCOLOR
 70
0
  0
APPID
  5
12F
330
3
100
AcDbSymbolTableRecord
100
AcDbRegAppTableRecord
  2
EZDXF
 70
0
  0
ENDTAB
  0
TABLE
  2
DIMSTYLE
  5
4
330
0
100
AcDbSymbolTable
 70
1
100
AcDbDimStyleTable
  0
DIMSTYLE
105
2B
330
4
100
AcDbSymbolTableRecord
100
AcDbDimStyleTableRecord
  2
Standard
 70
0
 40
1.0
 41
2.5
 42
0.625
 43
3.75
 44
1.25
 45
0.0
 46
0.0
 47
0.0
 48
0.0
 49
2.5
140
2.5
141
2.5
142
0.0
143
0.03937007874
144
1.0
145
0.0
146
1.0
147
0.625
148
0.0
 69
0
 70
0
 71
0
 72
0
 73
0
 74
0
 75
0
 76
0
 77
1
 78
8
 79
3
170
0
171
3
172
1
173
0
174
0
175
0
176
0
177
0
178
0
179
2
271
2
272
2
273
2
274
3
275
0
276
0
277
2
278
44
279
0
280
0
281
0
282
0
283
0
284
8
285
0
286
0
288
0
289
3
290
0
371
-2
372
-2
  0
ENDTAB
  0
TABLE
  2
BLOCK_RECORD
  5
9
330
0
100
AcDbSymbolTable
 70
2
  0
BLOCK_RECORD
  5
17
330
9
100
AcDbSymbolTableRecord
100
AcDbBlockTableRecord
  2
*Model_Space
340
1A
 70
0
280
1
281
0
  0
BLOCK_RECORD
  5
1B
330
9
100
AcDbSymbolTableRecord
100
AcDbBlockTableRecord
  2
*Paper_Space
340
1E
 70
0
280
1
281
0
  0
ENDTAB
  0
ENDSEC
  0
SECTION
  2
BLOCKS
  0
BLOCK
  5
18
330
17
100
AcDbEntity
  8
0
100
AcDbBlockBegin
  2
*Model_Space
 70
0
 10
0.0
 20
0.0
 30
0.0
  3
*Model_Space
  1

  0
ENDBLK
  5
19
330
17
100
AcDbEntity
  8
0
100
AcDbBlockEnd
  0
BLOCK
  5
1C
330
1B
100
AcDbEntity
  8
0
100
AcDbBlockBegin
  2
*Paper_Space
 70
0
 10
0.0
 20
0.0
 30
0.0
  3
*Paper_Space
  1

  0
ENDBLK
  5
1D
330
1B
100
AcDbEntity
  8
0
100
AcDbBlockEnd
  0
ENDSEC
  0
SECTION
  2
ENTITIES
  0
LINE
  5
2F
330
17
100
AcDbEntity
  8
0
100
AcDbLine
 10
107.465
 20
-700.969
 30
0.0
 11
107.465
 21
-765.22
 31
0.0
  0
LINE
  5
30
330
17
100
AcDbEntity
  8
0
100
AcDbLine
 10
107.465
 20
-765.22
 30
0.0
 11
80.28800000000001
 21
-765.03
 31
0.0
  0
LINE
  5
31
330
17
100
AcDbEntity
  8
0
100
AcDbLine
 10
80.28800000000001
 20
-765.03
 30
0.0
 11
80.32500000000002
 21
-707.329
 31
0.0
  0
LINE
  5
32
330
17
100
AcDbEntity
  8
0
100
AcDbLine
 10
80.32500000000002
 20
-707.329
 30
0.0
 11
80.43200000000002
 21
-706.626
 31
0.0
  0
LINE
  5
33
330
17
100
AcDbEntity
  8
0
100
AcDbLine
 10
80.43200000000002
 20
-706.626
 30
0.0
 11
80.60700000000001
 21
-705.947
 31
0.0
  0
LINE
  5
34
330
17
100
AcDbEntity
  8
0
100
AcDbLine
 10
80.60700000000001
 20
-705.947
 30
0.0
 11
80.84500000000001
 21
-705.296
 31
0.0
  0
LINE
  5
35
330
17
100
AcDbEntity
  8
0
100
AcDbLine
 10
80.84500000000001
 20
-705.296
 30
0.0
 11
81.14300000000001
 21
-704.677
 31
0.0
  0
LINE
  5
36
330
17
100
AcDbEntity
  8
0
100
AcDbLine
 10
81.14300000000001
 20
-704.677
 30
0.0
 11
81.49800000000002
 21
-704.0930000000001
 31
0.0
  0
LINE
  5
37
330
17
100
AcDbEntity
  8
0
100
AcDbLine
 10
81.49800000000002
 20
-704.0930000000001
 30
0.0
 11
81.90600000000002
 21
-703.5480000000001
 31
0.0
  0
LINE
  5
38
330
17
100
AcDbEntity
  8
0
100
AcDbLine
 10
81.90600000000002
 20
-703.5480000000001
 30
0.0
 11
82.36300000000001
 21
-703.0450000000001
 31
0.0
  0
LINE
  5
39
330
17
100
AcDbEntity
  8
0
100
AcDbLine
 10
82.36300000000001
 20
-703.0450000000001
 30
0.0
 11
82.86600000000001
 21
-702.5880000000001
 31
0.0
  0
LINE
  5
3A
330
17
100
AcDbEntity
  8
0
100
AcDbLine
 10
82.86600000000001
 20
-702.5880000000001
 30
0.0
 11
83.41100000000002
 21
-702.1800000000001
 31
0.0
  0
LINE
  5
3B
330
17
100
AcDbEntity
  8
0
100
AcDbLine
 10
83.41100000000002
 20
-702.1800000000001
 30
0.0
 11
83.99500000000002
 21
-701.825
 31
0.0
  0
LINE
  5
3C
330
17
100
AcDbEntity
  8
0
100
AcDbLine
 10
83.99500000000002
 20
-701.825
 30
0.0
 11
84.61400000000002
 21
-701.527
 31
0.0
  0
LINE
  5
3D
330
17
100
AcDbEntity
  8
0
100
AcDbLine
 10
84.61400000000002
 20
-701.527
 30
0.0
 11
85.26500000000001
 21
-701.289
 31
0.0
  0
LINE
  5
3E
330
17
100
AcDbEntity
  8
0
100
AcDbLine
 10
85.26500000000001
 20
-701.289
 30
0.0
 11
85.94400000000002
 21
-701.114
 31
0.0
  0
LINE
  5
3F
330
17
100
AcDbEntity
  8
0
100
AcDbLine
 10
85.94400000000002
 20
-701.114
 30
0.0
 11
86.64700000000002
 21
-701.0070000000001
 31
0.0
  0
LINE
  5
40
330
17
100
AcDbEntity
  8
0
100
AcDbLine
 10
86.64700000000002
 20
-701.0070000000001
 30
0.0
 11
107.46400000000003
 21
-700.97
 31
0.0
  0
LINE
  5
41
330
17
100
AcDbEntity
  8
0
100
AcDbLine
 10
464.34800000000007
 20
-781.0160000000001
 30
0.0
 11
539.2690000000001
 21
-781.0160000000001
 31
0.0
  0
LINE
  5
42
330
17
100
AcDbEntity
  8
0
100
AcDbLine
 10
539.2690000000001
 20
-781.0160000000001
 30
0.0
 11
538.6670000000001
 21
-789.6940000000001
 31
0.0
  0
LINE
  5
43
330
17
100
AcDbEntity
  8
0
100
AcDbLine
 10
538.6670000000001
 20
-789.6940000000001
 30
0.0
 11
537.9200000000002
 21
-794.1400000000001
 31
0.0
  0
LINE
  5
44
330
17
100
AcDbEntity
  8
0
100
AcDbLine
 10
537.9200000000002
 20
-794.1400000000001
 30
0.0
 11
537.2370000000002
 21
-796.5070000000001
 31
0.0
  0
LINE
  5
45
330
17
100
AcDbEntity
  8
0
100
AcDbLine
 10
537.2370000000002
 20
-796.5070000000001
 30
0.0
 11
536.2730000000001
 21
-799.0150000000001
 31
0.0
  0
LINE
  5
46
330
17
100
AcDbEntity
  8
0
100
AcDbLine
 10
536.2730000000001
 20
-799.0150000000001
 30
0.0
 11
535.6520000000002
 21
-800.3060000000002
 31
0.0
  0
LINE
  5
47
330
17
100
AcDbEntity
  8
0
100
AcDbLine
 10
535.6520000000002
 20
-800.3060000000002
 30
0.0
 11
534.9220000000001
 21
-801.5460000000002
 31
0.0
  0
LINE
  5
48
330
17
100
AcDbEntity
  8
0
100
AcDbLine
 10
534.9220000000001
 20
-801.5460000000002
 30
0.0
 11
534.0840000000002
 21
-802.6980000000002
 31
0.0
  0
LINE
  5
49
330
17
100
AcDbEntity
  8
0
100
AcDbLine
 10
534.0840000000002
 20
-802.6980000000002
 30
0.0
 11
533.1380000000001
 21
-803.7240000000002
 31
0.0
  0
LINE
  5
4A
330
17
100
AcDbEntity
  8
0
100
AcDbLine
 10
533.1380000000001
 20
-803.7240000000002
 30
0.0
 11
532.6250000000001
 21
-804.1780000000001
 31
0.0
  0
LINE
  5
4B
330
17
100
AcDbEntity
  8
0
100
AcDbLine
 10
532.6250000000001
 20
-804.1780000000001
 30
0.0
 11
532.0850000000002
 21
-804.5870000000001
 31
0.0
  0
LINE
  5
4C
330
17
100
AcDbEntity
  8
0
100
AcDbLine
 10
532.0850000000002
 20
-804.5870000000001
 30
0.0
 11
531.5190000000001
 21
-804.9460000000001
 31
0.0
  0
LINE
  5
4D
330
17
100
AcDbEntity
  8
0
100
AcDbLine
 10
531.5190000000001
 20
-804.9460000000001
 30
0.0
 11
530.9260000000002
 21
-805.2500000000001
 31
0.0
  0
LINE
  5
4E
330
17
100
AcDbEntity
  8
0
100
AcDbLine
 10
530.9260000000002
 20
-805.2500000000001
 30
0.0
 11
530.3070000000001
 21
-805.4950000000001
 31
0.0
  0
LINE
  5
4F
330
17
100
AcDbEntity
  8
0
100
AcDbLine
 10
530.3070000000001
 20
-805.4950000000001
 30
0.0
 11
529.6610000000002
 21
-805.6750000000001
 31
0.0
  0
LINE
  5
50
330
17
100
AcDbEntity
  8
0
100
AcDbLine
 10
529.6610000000002
 20
-805.6750000000001
 30
0.0
 11
528.9890000000001
 21
-805.787
 31
0.0
  0
LINE
  5
51
330
17
100
AcDbEntity
  8
0
100
AcDbLine
 10
528.9890000000001
 20
-805.787
 30
0.0
 11
453.09200000000016
 21
-810.825
 31
0.0
  0
LINE
  5
52
330
17
100
AcDbEntity
  8
0
100
AcDbLine
 10
453.09200000000016
 20
-810.825
 30
0.0
 11
459.56300000000016
 21
-796.595
 31
0.0
  0
LINE
  5
53
330
17
100
AcDbEntity
  8
0
100
AcDbLine
 10
459.56300000000016
 20
-796.595
 30
0.0
 11
462.32600000000014
 21
-788.9440000000001
 31
0.0
  0
LINE
  5
54
330
17
100
AcDbEntity
  8
0
100
AcDbLine
 10
462.32600000000014
 20
-788.9440000000001
 30
0.0
 11
464.3460000000001
 21
-781.0150000000001
 31
0.0
  0
LINE
  5
55
330
17
100
AcDbEntity
  8
0
100
AcDbLine
 10
80.4260000000001
 20
-1019.4140000000001
 30
0.0
 11
135.13200000000012
 21
-908.0730000000001
 31
0.0
  0
LINE
  5
56
330
17
100
AcDbEntity
  8
0
100
AcDbLine
 10
135.13200000000012
 20
-908.0730000000001
 30
0.0
 11
144.2910000000001
 21
-884.1920000000001
 31
0.0
  0
LINE
  5
57
330
17
100
AcDbEntity
  8
0
100
AcDbLine
 10
144.2910000000001
 20
-884.1920000000001
 30
0.0
 11
146.9640000000001
 21
-872.9180000000001
 31
0.0
  0
LINE
  5
58
330
17
100
AcDbEntity
  8
0
100
AcDbLine
 10
146.9640000000001
 20
-872.9180000000001
 30
0.0
 11
148.4790000000001
 21
-862.3820000000002
 31
0.0
  0
LINE
  5
59
330
17
100
AcDbEntity
  8
0
100
AcDbLine
 10
148.4790000000001
 20
-862.3820000000002
 30
0.0
 11
148.9490000000001
 21
-852.5680000000002
 31
0.0
  0
LINE
  5
5A
330
17
100
AcDbEntity
  8
0
100
AcDbLine
 10
148.9490000000001
 20
-852.5680000000002
 30
0.0
 11
148.4890000000001
 21
-843.4610000000002
 31
0.0
  0
LINE
  5
5B
330
17
100
AcDbEntity
  8
0
100
AcDbLine
 10
148.4890000000001
 20
-843.4610000000002
 30
0.0
 11
147.21300000000008
 21
-835.0450000000002
 31
0.0
  0
LINE
  5
5C
330
17
100
AcDbEntity
  8
0
100
AcDbLine
 10
147.21300000000008
 20
-835.0450000000002
 30
0.0
 11
145.23500000000007
 21
-827.3050000000002
 31
0.0
  0
LINE
  5
5D
330
17
100
AcDbEntity
  8
0
100
AcDbLine
 10
145.23500000000007
 20
-827.3050000000002
 30
0.0
 11
142.66900000000007
 21
-820.2240000000002
 31
0.0
  0
LINE
  5
5E
330
17
100
AcDbEntity
  8
0
100
AcDbLine
 10
142.66900000000007
 20
-820.2240000000002
 30
0.0
 11
139.62900000000008
 21
-813.7880000000001
 31
0.0
  0
LINE
  5
5F
330
17
100
AcDbEntity
  8
0
100
AcDbLine
 10
139.62900000000008
 20
-813.7880000000001
 30
0.0
 11
136.22900000000007
 21
-807.9800000000001
 31
0.0
  0
LINE
  5
60
330
17
100
AcDbEntity
  8
0
100
AcDbLine
 10
136.22900000000007
 20
-807.9800000000001
 30
0.0
 11
132.58300000000008
 21
-802.7850000000001
 31
0.0
  0
LINE
  5
61
330
17
100
AcDbEntity
  8
0
100
AcDbLine
 10
132.58300000000008
 20
-802.7850000000001
 30
0.0
 11
125.00900000000009
 21
-794.172
 31
0.0
  0
LINE
  5
62
330
17
100
AcDbEntity
  8
0
100
AcDbLine
 10
125.00900000000009
 20
-794.172
 30
0.0
 11
117.81900000000009
 21
-787.8240000000001
 31
0.0
  0
LINE
  5
63
330
17
100
AcDbEntity
  8
0
100
AcDbLine
 10
117.81900000000009
 20
-787.8240000000001
 30
0.0
 11
111.81900000000009
 21
-783.541
 31
0.0
  0
LINE
  5
64
330
17
100
AcDbEntity
  8
0
100
AcDbLine
 10
111.81900000000009
 20
-783.541
 30
0.0
 11
111.72300000000008
 21
-783.461
 31
0.0
  0
LINE
  5
65
330
17
100
AcDbEntity
  8
0
100
AcDbLine
 10
111.72300000000008
 20
-783.461
 30
0.0
 11
111.63700000000009
 21
-783.375
 31
0.0
  0
LINE
  5
66
330
17
100
AcDbEntity
  8
0
100
AcDbLine
 10
111.63700000000009
 20
-783.375
 30
0.0
 11
111.56100000000009
 21
-783.285
 31
0.0
  0
LINE
  5
67
330
17
100
AcDbEntity
  8
0
100
AcDbLine
 10
111.56100000000009
 20
-783.285
 30
0.0
 11
111.4940000000001
 21
-783.1909999999999
 31
0.0
  0
LINE
  5
68
330
17
100
AcDbEntity
  8
0
100
AcDbLine
 10
111.4940000000001
 20
-783.1909999999999
 30
0.0
 11
111.43600000000009
 21
-783.093
 31
0.0
  0
LINE
  5
69
330
17
100
AcDbEntity
  8
0
100
AcDbLine
 10
111.43600000000009
 20
-783.093
 30
0.0
 11
111.38800000000009
 21
-782.992
 31
0.0
  0
LINE
  5
6A
330
17
100
AcDbEntity
  8
0
100
AcDbLine
 10
111.38800000000009
 20
-782.992
 30
0.0
 11
111.34900000000009
 21
-782.8879999999999
 31
0.0
  0
LINE
  5
6B
330
17
100
AcDbEntity
  8
0
100
AcDbLine
 10
111.34900000000009
 20
-782.8879999999999
 30
0.0
 11
111.31900000000009
 21
-782.7819999999999
 31
0.0
  0
LINE
  5
6C
330
17
100
AcDbEntity
  8
0
100
AcDbLine
 10
111.31900000000009
 20
-782.7819999999999
 30
0.0
 11
111.29700000000008
 21
-782.675
 31
0.0
  0
LINE
  5
6D
330
17
100
AcDbEntity
  8
0
100
AcDbLine
 10
111.29700000000008
 20
-782.675
 30
0.0
 11
111.28400000000008
 21
-782.567
 31
0.0
  0
LINE
  5
6E
330
17
100
AcDbEntity
  8
0
100
AcDbLine
 10
111.28400000000008
 20
-782.567
 30
0.0
 11
111.27900000000008
 21
-782.458
 31
0.0
  0
LINE
  5
6F
330
17
100
AcDbEntity
  8
0
100
AcDbLine
 10
111.27900000000008
 20
-782.458
 30
0.0
 11
111.28200000000008
 21
-782.3489999999999
 31
0.0
  0
LINE
  5
70
330
17
100
AcDbEntity
  8
0
100
AcDbLine
 10
111.28200000000008
 20
-782.3489999999999
 30
0.0
 11
111.29400000000008
 21
-782.241
 31
0.0
  0
LINE
  5
71
330
17
100
AcDbEntity
  8
0
100
AcDbLine
 10
111.29400000000008
 20
-782.241
 30
0.0
 11
111.31300000000009
 21
-782.134
 31
0.0
  0
LINE
  5
72
330
17
100
AcDbEntity
  8
0
100
AcDbLine
 10
111.31300000000009
 20
-782.134
 30
0.0
 11
111.34000000000009
 21
-782.029
 31
0.0
  0
LINE
  5
73
330
17
100
AcDbEntity
  8
0
100
AcDbLine
 10
111.34000000000009
 20
-782.029
 30
0.0
 11
111.37500000000009
 21
-781.926
 31
0.0
  0
LINE
  5
74
330
17
100
AcDbEntity
  8
0
100
AcDbLine
 10
111.37500000000009
 20
-781.926
 30
0.0
 11
111.41700000000009
 21
-781.826
 31
0.0
  0
LINE
  5
75
330
17
100
AcDbEntity
  8
0
100
AcDbLine
 10
111.41700000000009
 20
-781.826
 30
0.0
 11
111.46700000000008
 21
-781.729
 31
0.0
  0
LINE
  5
76
330
17
100
AcDbEntity
  8
0
100
AcDbLine
 10
111.46700000000008
 20
-781.729
 30
0.0
 11
111.52400000000009
 21
-781.6360000000001
 31
0.0
  0
LINE
  5
77
330
17
100
AcDbEntity
  8
0
100
AcDbLine
 10
111.52400000000009
 20
-781.6360000000001
 30
0.0
 11
111.58800000000008
 21
-781.547
 31
0.0
  0
LINE
  5
78
330
17
100
AcDbEntity
  8
0
100
AcDbLine
 10
111.58800000000008
 20
-781.547
 30
0.0
 11
111.65800000000007
 21
-781.4630000000001
 31
0.0
  0
LINE
  5
79
330
17
100
AcDbEntity
  8
0
100
AcDbLine
 10
111.65800000000007
 20
-781.4630000000001
 30
0.0
 11
111.73500000000007
 21
-781.3850000000001
 31
0.0
  0
LINE
  5
7A
330
17
100
AcDbEntity
  8
0
100
AcDbLine
 10
111.73500000000007
 20
-781.3850000000001
 30
0.0
 11
111.81800000000007
 21
-781.3130000000001
 31
0.0
  0
LINE
  5
7B
330
17
100
AcDbEntity
  8
0
100
AcDbLine
 10
111.81800000000007
 20
-781.3130000000001
 30
0.0
 11
111.90800000000007
 21
-781.2470000000001
 31
0.0
  0
LINE
  5
7C
330
17
100
AcDbEntity
  8
0
100
AcDbLine
 10
111.90800000000007
 20
-781.2470000000001
 30
0.0
 11
112.00400000000008
 21
-781.1880000000001
 31
0.0
  0
LINE
  5
7D
330
17
100
AcDbEntity
  8
0
100
AcDbLine
 10
112.00400000000008
 20
-781.1880000000001
 30
0.0
 11
112.10600000000008
 21
-781.1370000000001
 31
0.0
  0
LINE
  5
7E
330
17
100
AcDbEntity
  8
0
100
AcDbLine
 10
112.10600000000008
 20
-781.1370000000001
 30
0.0
 11
112.21400000000008
 21
-781.094
 31
0.0
  0
LINE
  5
7F
330
17
100
AcDbEntity
  8
0
100
AcDbLine
 10
112.21400000000008
 20
-781.094
 30
0.0
 11
112.32700000000008
 21
-781.0600000000001
 31
0.0
  0
LINE
  5
80
330
17
100
AcDbEntity
  8
0
100
AcDbLine
 10
112.32700000000008
 20
-781.0600000000001
 30
0.0
 11
112.44600000000008
 21
-781.0350000000001
 31
0.0
  0
LINE
  5
81
330
17
100
AcDbEntity
  8
0
100
AcDbLine
 10
112.44600000000008
 20
-781.0350000000001
 30
0.0
 11
112.57000000000008
 21
-781.0190000000001
 31
0.0
  0
LINE
  5
82
330
17
100
AcDbEntity
  8
0
100
AcDbLine
 10
112.57000000000008
 20
-781.0190000000001
 30
0.0
 11
158.66300000000007
 21
-781.0230000000001
 31
0.0
  0
LINE
  5
83
330
17
100
AcDbEntity
  8
0
100
AcDbLine
 10
158.66300000000007
 20
-781.0230000000001
 30
0.0
 11
159.38000000000008
 21
-781.0960000000001
 31
0.0
  0
LINE
  5
84
330
17
100
AcDbEntity
  8
0
100
AcDbLine
 10
159.38000000000008
 20
-781.0960000000001
 30
0.0
 11
160.07400000000007
 21
-781.2380000000002
 31
0.0
  0
LINE
  5
85
330
17
100
AcDbEntity
  8
0
100
AcDbLine
 10
160.07400000000007
 20
-781.2380000000002
 30
0.0
 11
160.74200000000008
 21
-781.4460000000001
 31
0.0
  0
LINE
  5
86
330
17
100
AcDbEntity
  8
0
100
AcDbLine
 10
160.74200000000008
 20
-781.4460000000001
 30
0.0
 11
161.38000000000008
 21
-781.7160000000001
 31
0.0
  0
LINE
  5
87
330
17
100
AcDbEntity
  8
0
100
AcDbLine
 10
161.38000000000008
 20
-781.7160000000001
 30
0.0
 11
161.9840000000001
 21
-782.0440000000001
 31
0.0
  0
LINE
  5
88
330
17
100
AcDbEntity
  8
0
100
AcDbLine
 10
161.9840000000001
 20
-782.0440000000001
 30
0.0
 11
162.5510000000001
 21
-782.4270000000001
 31
0.0
  0
LINE
  5
89
330
17
100
AcDbEntity
  8
0
100
AcDbLine
 10
162.5510000000001
 20
-782.4270000000001
 30
0.0
 11
163.0780000000001
 21
-782.8620000000001
 31
0.0
  0
LINE
  5
8A
330
17
100
AcDbEntity
  8
0
100
AcDbLine
 10
163.0780000000001
 20
-782.8620000000001
 30
0.0
 11
163.5600000000001
 21
-783.344
 31
0.0
  0
LINE
  5
8B
330
17
100
AcDbEntity
  8
0
100
AcDbLine
 10
163.5600000000001
 20
-783.344
 30
0.0
 11
163.9950000000001
 21
-783.8710000000001
 31
0.0
  0
LINE
  5
8C
330
17
100
AcDbEntity
  8
0
100
AcDbLine
 10
163.9950000000001
 20
-783.8710000000001
 30
0.0
 11
164.3780000000001
 21
-784.4380000000001
 31
0.0
  0
LINE
  5
8D
330
17
100
AcDbEntity
  8
0
100
AcDbLine
 10
164.3780000000001
 20
-784.4380000000001
 30
0.0
 11
164.7060000000001
 21
-785.0420000000001
 31
0.0
  0
LINE
  5
8E
330
17
100
AcDbEntity
  8
0
100
AcDbLine
 10
164.7060000000001
 20
-785.0420000000001
 30
0.0
 11
164.9760000000001
 21
-785.6800000000002
 31
0.0
  0
LINE
  5
8F
330
17
100
AcDbEntity
  8
0
100
AcDbLine
 10
164.9760000000001
 20
-785.6800000000002
 30
0.0
 11
165.1840000000001
 21
-786.3480000000002
 31
0.0
  0
LINE
  5
90
330
17
100
AcDbEntity
  8
0
100
AcDbLine
 10
165.1840000000001
 20
-786.3480000000002
 30
0.0
 11
165.3260000000001
 21
-787.0420000000001
 31
0.0
  0
LINE
  5
91
330
17
100
AcDbEntity
  8
0
100
AcDbLine
 10
165.3260000000001
 20
-787.0420000000001
 30
0.0
 11
165.39900000000011
 21
-787.7590000000001
 31
0.0
  0
LINE
  5
92
330
17
100
AcDbEntity
  8
0
100
AcDbLine
 10
165.39900000000011
 20
-787.7590000000001
 30
0.0
 11
165.42500000000013
 21
-799.5360000000002
 31
0.0
  0
LINE
  5
93
330
17
100
AcDbEntity
  8
0
100
AcDbLine
 10
165.42500000000013
 20
-799.5360000000002
 30
0.0
 11
165.55500000000012
 21
-800.8150000000002
 31
0.0
  0
LINE
  5
94
330
17
100
AcDbEntity
  8
0
100
AcDbLine
 10
165.55500000000012
 20
-800.8150000000002
 30
0.0
 11
165.8080000000001
 21
-802.0530000000002
 31
0.0
  0
LINE
  5
95
330
17
100
AcDbEntity
  8
0
100
AcDbLine
 10
165.8080000000001
 20
-802.0530000000002
 30
0.0
 11
166.1780000000001
 21
-803.2440000000003
 31
0.0
  0
LINE
  5
96
330
17
100
AcDbEntity
  8
0
100
AcDbLine
 10
166.1780000000001
 20
-803.2440000000003
 30
0.0
 11
166.6590000000001
 21
-804.3820000000003
 31
0.0
  0
LINE
  5
97
330
17
100
AcDbEntity
  8
0
100
AcDbLine
 10
166.6590000000001
 20
-804.3820000000003
 30
0.0
 11
167.2440000000001
 21
-805.4600000000003
 31
0.0
  0
LINE
  5
98
330
17
100
AcDbEntity
  8
0
100
AcDbLine
 10
167.2440000000001
 20
-805.4600000000003
 30
0.0
 11
167.9280000000001
 21
-806.4720000000002
 31
0.0
  0
LINE
  5
99
330
17
100
AcDbEntity
  8
0
100
AcDbLine
 10
167.9280000000001
 20
-806.4720000000002
 30
0.0
 11
168.70300000000012
 21
-807.4110000000002
 31
0.0
  0
LINE
  5
9A
330
17
100
AcDbEntity
  8
0
100
AcDbLine
 10
168.70300000000012
 20
-807.4110000000002
 30
0.0
 11
169.56300000000013
 21
-808.2710000000002
 31
0.0
  0
LINE
  5
9B
330
17
100
AcDbEntity
  8
0
100
AcDbLine
 10
169.56300000000013
 20
-808.2710000000002
 30
0.0
 11
170.50200000000012
 21
-809.0460000000002
 31
0.0
  0
LINE
  5
9C
330
17
100
AcDbEntity
  8
0
100
AcDbLine
 10
170.50200000000012
 20
-809.0460000000002
 30
0.0
 11
171.51400000000012
 21
-809.7290000000002
 31
0.0
  0
LINE
  5
9D
330
17
100
AcDbEntity
  8
0
100
AcDbLine
 10
171.51400000000012
 20
-809.7290000000002
 30
0.0
 11
172.59200000000013
 21
-810.3150000000002
 31
0.0
  0
LINE
  5
9E
330
17
100
AcDbEntity
  8
0
100
AcDbLine
 10
172.59200000000013
 20
-810.3150000000002
 30
0.0
 11
173.73000000000013
 21
-810.7960000000002
 31
0.0
  0
LINE
  5
9F
330
17
100
AcDbEntity
  8
0
100
AcDbLine
 10
173.73000000000013
 20
-810.7960000000002
 30
0.0
 11
174.92100000000013
 21
-811.1660000000002
 31
0.0
  0
LINE
  5
A0
330
17
100
AcDbEntity
  8
0
100
AcDbLine
 10
174.92100000000013
 20
-811.1660000000002
 30
0.0
 11
176.15900000000013
 21
-811.4190000000002
 31
0.0
  0
LINE
  5
A1
330
17
100
AcDbEntity
  8
0
100
AcDbLine
 10
176.15900000000013
 20
-811.4190000000002
 30
0.0
 11
177.43800000000013
 21
-811.5490000000002
 31
0.0
  0
LINE
  5
A2
330
17
100
AcDbEntity
  8
0
100
AcDbLine
 10
177.43800000000013
 20
-811.5490000000002
 30
0.0
 11
286.40000000000015
 21
-811.5490000000002
 31
0.0
  0
LINE
  5
A3
330
17
100
AcDbEntity
  8
0
100
AcDbLine
 10
286.40000000000015
 20
-811.5490000000002
 30
0.0
 11
287.67900000000014
 21
-811.4190000000002
 31
0.0
  0
LINE
  5
A4
330
17
100
AcDbEntity
  8
0
100
AcDbLine
 10
287.67900000000014
 20
-811.4190000000002
 30
0.0
 11
288.91700000000014
 21
-811.1660000000002
 31
0.0
  0
LINE
  5
A5
330
17
100
AcDbEntity
  8
0
100
AcDbLine
 10
288.91700000000014
 20
-811.1660000000002
 30
0.0
 11
290.1080000000001
 21
-810.7960000000002
 31
0.0
  0
LINE
  5
A6
330
17
100
AcDbEntity
  8
0
100
AcDbLine
 10
290.1080000000001
 20
-810.7960000000002
 30
0.0
 11
291.2460000000001
 21
-810.3150000000002
 31
0.0
  0
LINE
  5
A7
330
17
100
AcDbEntity
  8
0
100
AcDbLine
 10
291.2460000000001
 20
-810.3150000000002
 30
0.0
 11
292.32400000000007
 21
-809.7290000000002
 31
0.0
  0
LINE
  5
A8
330
17
100
AcDbEntity
  8
0
100
AcDbLine
 10
292.32400000000007
 20
-809.7290000000002
 30
0.0
 11
293.33600000000007
 21
-809.0460000000002
 31
0.0
  0
LINE
  5
A9
330
17
100
AcDbEntity
  8
0
100
AcDbLine
 10
293.33600000000007
 20
-809.0460000000002
 30
0.0
 11
294.2750000000001
 21
-808.2710000000002
 31
0.0
  0
LINE
  5
AA
330
17
100
AcDbEntity
  8
0
100
AcDbLine
 10
294.2750000000001
 20
-808.2710000000002
 30
0.0
 11
295.1350000000001
 21
-807.4110000000002
 31
0.0
  0
LINE
  5
AB
330
17
100
AcDbEntity
  8
0
100
AcDbLine
 10
295.1350000000001
 20
-807.4110000000002
 30
0.0
 11
295.9100000000001
 21
-806.4720000000002
 31
0.0
  0
LINE
  5
AC
330
17
100
AcDbEntity
  8
0
100
AcDbLine
 10
295.9100000000001
 20
-806.4720000000002
 30
0.0
 11
296.5940000000001
 21
-805.4600000000003
 31
0.0
  0
LINE
  5
AD
330
17
100
AcDbEntity
  8
0
100
AcDbLine
 10
296.5940000000001
 20
-805.4600000000003
 30
0.0
 11
297.1800000000001
 21
-804.3820000000003
 31
0.0
  0
LINE
  5
AE
330
17
100
AcDbEntity
  8
0
100
AcDbLine
 10
297.1800000000001
 20
-804.3820000000003
 30
0.0
 11
297.6610000000001
 21
-803.2440000000003
 31
0.0
  0
LINE
  5
AF
330
17
100
AcDbEntity
  8
0
100
AcDbLine
 10
297.6610000000001
 20
-803.2440000000003
 30
0.0
 11
298.0310000000001
 21
-802.0530000000002
 31
0.0
  0
LINE
  5
B0
330
17
100
AcDbEntity
  8
0
100
AcDbLine
 10
298.0310000000001
 20
-802.0530000000002
 30
0.0
 11
298.2840000000001
 21
-800.8150000000002
 31
0.0
  0
LINE
  5
B1
330
17
100
AcDbEntity
  8
0
100
AcDbLine
 10
298.2840000000001
 20
-800.8150000000002
 30
0.0
 11
298.4140000000001
 21
-799.5360000000002
 31
0.0
  0
LINE
  5
B2
330
17
100
AcDbEntity
  8
0
100
AcDbLine
 10
298.4140000000001
 20
-799.5360000000002
 30
0.0
 11
298.4400000000001
 21
-787.7590000000001
 31
0.0
  0
LINE
  5
B3
330
17
100
AcDbEntity
  8
0
100
AcDbLine
 10
298.4400000000001
 20
-787.7590000000001
 30
0.0
 11
298.5130000000001
 21
-787.0420000000001
 31
0.0
  0
LINE
  5
B4
330
17
100
AcDbEntity
  8
0
100
AcDbLine
 10
298.5130000000001
 20
-787.0420000000001
 30
0.0
 11
298.6550000000001
 21
-786.3480000000002
 31
0.0
  0
LINE
  5
B5
330
17
100
AcDbEntity
  8
0
100
AcDbLine
 10
298.6550000000001
 20
-786.3480000000002
 30
0.0
 11
298.8630000000001
 21
-785.6800000000002
 31
0.0
  0
LINE
  5
B6
330
17
100
AcDbEntity
  8
0
100
AcDbLine
 10
298.8630000000001
 20
-785.6800000000002
 30
0.0
 11
299.1330000000001
 21
-785.0420000000001
 31
0.0
  0
LINE
  5
B7
330
17
100
AcDbEntity
  8
0
100
AcDbLine
 10
299.1330000000001
 20
-785.0420000000001
 30
0.0
 11
299.46100000000007
 21
-784.4380000000001
 31
0.0
  0
LINE
  5
B8
330
17
100
AcDbEntity
  8
0
100
AcDbLine
 10
299.46100000000007
 20
-784.4380000000001
 30
0.0
 11
299.84400000000005
 21
-783.8710000000001
 31
0.0
  0
LINE
  5
B9
330
17
100
AcDbEntity
  8
0
100
AcDbLine
 10
299.84400000000005
 20
-783.8710000000001
 30
0.0
 11
300.27900000000005
 21
-783.344
 31
0.0
  0
LINE
  5
BA
330
17
100
AcDbEntity
  8
0
100
AcDbLine
 10
300.27900000000005
 20
-783.344
 30
0.0
 11
300.7610000000001
 21
-782.8620000000001
 31
0.0
  0
LINE
  5
BB
330
17
100
AcDbEntity
  8
0
100
AcDbLine
 10
300.7610000000001
 20
-782.8620000000001
 30
0.0
 11
301.28800000000007
 21
-782.4270000000001
 31
0.0
  0
LINE
  5
BC
330
17
100
AcDbEntity
  8
0
100
AcDbLine
 10
301.28800000000007
 20
-782.4270000000001
 30
0.0
 11
301.8550000000001
 21
-782.0440000000001
 31
0.0
  0
LINE
  5
BD
330
17
100
AcDbEntity
  8
0
100
AcDbLine
 10
301.8550000000001
 20
-782.0440000000001
 30
0.0
 11
302.45900000000006
 21
-781.7160000000001
 31
0.0
  0
LINE
  5
BE
330
17
100
AcDbEntity
  8
0
100
AcDbLine
 10
302.45900000000006
 20
-781.7160000000001
 30
0.0
 11
303.09700000000004
 21
-781.4460000000001
 31
0.0
  0
LINE
  5
BF
330
17
100
AcDbEntity
  8
0
100
AcDbLine
 10
303.09700000000004
 20
-781.4460000000001
 30
0.0
 11
303.76500000000004
 21
-781.2380000000002
 31
0.0
  0
LINE
  5
C0
330
17
100
AcDbEntity
  8
0
100
AcDbLine
 10
303.76500000000004
 20
-781.2380000000002
 30
0.0
 11
304.45900000000006
 21
-781.0960000000001
 31
0.0
  0
LINE
  5
C1
330
17
100
AcDbEntity
  8
0
100
AcDbLine
 10
304.45900000000006
 20
-781.0960000000001
 30
0.0
 11
305.17600000000004
 21
-781.0230000000001
 31
0.0
  0
LINE
  5
C2
330
17
100
AcDbEntity
  8
0
100
AcDbLine
 10
305.17600000000004
 20
-781.0230000000001
 30
0.0
 11
412.84800000000007
 21
-781.0140000000001
 31
0.0
  0
LINE
  5
C3
330
17
100
AcDbEntity
  8
0
100
AcDbLine
 10
412.84800000000007
 20
-781.0140000000001
 30
0.0
 11
406.4200000000001
 21
-803.7710000000001
 31
0.0
  0
LINE
  5
C4
330
17
100
AcDbEntity
  8
0
100
AcDbLine
 10
406.4200000000001
 20
-803.7710000000001
 30
0.0
 11
404.16100000000006
 21
-815.041
 31
0.0
  0
LINE
  5
C5
330
17
100
AcDbEntity
  8
0
100
AcDbLine
 10
404.16100000000006
 20
-815.041
 30
0.0
 11
324.62500000000006
 21
-821.907
 31
0.0
  0
LINE
  5
C6
330
17
100
AcDbEntity
  8
0
100
AcDbLine
 10
324.62500000000006
 20
-821.907
 30
0.0
 11
321.09600000000006
 21
-822.9240000000001
 31
0.0
  0
LINE
  5
C7
330
17
100
AcDbEntity
  8
0
100
AcDbLine
 10
321.09600000000006
 20
-822.9240000000001
 30
0.0
 11
317.79400000000004
 21
-824.354
 31
0.0
  0
LINE
  5
C8
330
17
100
AcDbEntity
  8
0
100
AcDbLine
 10
317.79400000000004
 20
-824.354
 30
0.0
 11
314.706
 21
-826.1560000000001
 31
0.0
  0
LINE
  5
C9
330
17
100
AcDbEntity
  8
0
100
AcDbLine
 10
314.706
 20
-826.1560000000001
 30
0.0
 11
311.819
 21
-828.2900000000001
 31
0.0
  0
LINE
  5
CA
330
17
100
AcDbEntity
  8
0
100
AcDbLine
 10
311.819
 20
-828.2900000000001
 30
0.0
 11
309.119
 21
-830.7160000000001
 31
0.0
  0
LINE
  5
CB
330
17
100
AcDbEntity
  8
0
100
AcDbLine
 10
309.119
 20
-830.7160000000001
 30
0.0
 11
306.59400000000005
 21
-833.3940000000001
 31
0.0
  0
LINE
  5
CC
330
17
100
AcDbEntity
  8
0
100
AcDbLine
 10
306.59400000000005
 20
-833.3940000000001
 30
0.0
 11
302.01400000000007
 21
-839.3430000000001
 31
0.0
  0
LINE
  5
CD
330
17
100
AcDbEntity
  8
0
100
AcDbLine
 10
302.01400000000007
 20
-839.3430000000001
 30
0.0
 11
287.4820000000001
 21
-866.4000000000001
 31
0.0
  0
LINE
  5
CE
330
17
100
AcDbEntity
  8
0
100
AcDbLine
 10
287.4820000000001
 20
-866.4000000000001
 30
0.0
 11
191.0840000000001
 21
-1112.9550000000002
 31
0.0
  0
LINE
  5
CF
330
17
100
AcDbEntity
  8
0
100
AcDbLine
 10
191.0840000000001
 20
-1112.9550000000002
 30
0.0
 11
190.2640000000001
 21
-1114.4900000000002
 31
0.0
  0
LINE
  5
D0
330
17
100
AcDbEntity
  8
0
100
AcDbLine
 10
190.2640000000001
 20
-1114.4900000000002
 30
0.0
 11
189.2710000000001
 21
-1115.9000000000003
 31
0.0
  0
LINE
  5
D1
330
17
100
AcDbEntity
  8
0
100
AcDbLine
 10
189.2710000000001
 20
-1115.9000000000003
 30
0.0
 11
188.1190000000001
 21
-1117.1690000000003
 31
0.0
  0
LINE
  5
D2
330
17
100
AcDbEntity
  8
0
100
AcDbLine
 10
188.1190000000001
 20
-1117.1690000000003
 30
0.0
 11
186.82300000000012
 21
-1118.2820000000004
 31
0.0
  0
LINE
  5
D3
330
17
100
AcDbEntity
  8
0
100
AcDbLine
 10
186.82300000000012
 20
-1118.2820000000004
 30
0.0
 11
185.39700000000013
 21
-1119.2240000000004
 31
0.0
  0
LINE
  5
D4
330
17
100
AcDbEntity
  8
0
100
AcDbLine
 10
185.39700000000013
 20
-1119.2240000000004
 30
0.0
 11
183.85500000000013
 21
-1119.9790000000005
 31
0.0
  0
LINE
  5
D5
330
17
100
AcDbEntity
  8
0
100
AcDbLine
 10
183.85500000000013
 20
-1119.9790000000005
 30
0.0
 11
182.21100000000013
 21
-1120.5330000000006
 31
0.0
  0
LINE
  5
D6
330
17
100
AcDbEntity
  8
0
100
AcDbLine
 10
182.21100000000013
 20
-1120.5330000000006
 30
0.0
 11
156.63900000000012
 21
-1124.0080000000005
 31
0.0
  0
LINE
  5
D7
330
17
100
AcDbEntity
  8
0
100
AcDbLine
 10
156.63900000000012
 20
-1124.0080000000005
 30
0.0
 11
121.75600000000011
 21
-1125.0880000000004
 31
0.0
  0
LINE
  5
D8
330
17
100
AcDbEntity
  8
0
100
AcDbLine
 10
121.75600000000011
 20
-1125.0880000000004
 30
0.0
 11
55.60700000000011
 21
-1120.5560000000005
 31
0.0
  0
LINE
  5
D9
330
17
100
AcDbEntity
  8
0
100
AcDbLine
 10
55.60700000000011
 20
-1120.5560000000005
 30
0.0
 11
54.28100000000011
 21
-1120.1920000000005
 31
0.0
  0
LINE
  5
DA
330
17
100
AcDbEntity
  8
0
100
AcDbLine
 10
54.28100000000011
 20
-1120.1920000000005
 30
0.0
 11
53.018000000000114
 21
-1119.7040000000004
 31
0.0
  0
LINE
  5
DB
330
17
100
AcDbEntity
  8
0
100
AcDbLine
 10
53.018000000000114
 20
-1119.7040000000004
 30
0.0
 11
51.823000000000114
 21
-1119.0990000000004
 31
0.0
  0
LINE
  5
DC
330
17
100
AcDbEntity
  8
0
100
AcDbLine
 10
51.823000000000114
 20
-1119.0990000000004
 30
0.0
 11
50.70200000000011
 21
-1118.3860000000004
 31
0.0
  0
LINE
  5
DD
330
17
100
AcDbEntity
  8
0
100
AcDbLine
 10
50.70200000000011
 20
-1118.3860000000004
 30
0.0
 11
49.66200000000011
 21
-1117.5720000000003
 31
0.0
  0
LINE
  5
DE
330
17
100
AcDbEntity
  8
0
100
AcDbLine
 10
49.66200000000011
 20
-1117.5720000000003
 30
0.0
 11
48.70900000000011
 21
-1116.6650000000004
 31
0.0
  0
LINE
  5
DF
330
17
100
AcDbEntity
  8
0
100
AcDbLine
 10
48.70900000000011
 20
-1116.6650000000004
 30
0.0
 11
47.84900000000011
 21
-1115.6730000000005
 31
0.0
  0
LINE
  5
E0
330
17
100
AcDbEntity
  8
0
100
AcDbLine
 10
47.84900000000011
 20
-1115.6730000000005
 30
0.0
 11
47.08900000000011
 21
-1114.6030000000005
 31
0.0
  0
LINE
  5
E1
330
17
100
AcDbEntity
  8
0
100
AcDbLine
 10
47.08900000000011
 20
-1114.6030000000005
 30
0.0
 11
46.43400000000011
 21
-1113.4630000000004
 31
0.0
  0
LINE
  5
E2
330
17
100
AcDbEntity
  8
0
100
AcDbLine
 10
46.43400000000011
 20
-1113.4630000000004
 30
0.0
 11
45.89100000000011
 21
-1112.2610000000004
 31
0.0
  0
LINE
  5
E3
330
17
100
AcDbEntity
  8
0
100
AcDbLine
 10
45.89100000000011
 20
-1112.2610000000004
 30
0.0
 11
45.466000000000115
 21
-1111.0050000000003
 31
0.0
  0
LINE
  5
E4
330
17
100
AcDbEntity
  8
0
100
AcDbLine
 10
45.466000000000115
 20
-1111.0050000000003
 30
0.0
 11
45.16500000000011
 21
-1109.7020000000002
 31
0.0
  0
LINE
  5
E5
330
17
100
AcDbEntity
  8
0
100
AcDbLine
 10
45.16500000000011
 20
-1109.7020000000002
 30
0.0
 11
44.99400000000011
 21
-1108.3600000000001
 31
0.0
  0
LINE
  5
E6
330
17
100
AcDbEntity
  8
0
100
AcDbLine
 10
44.99400000000011
 20
-1108.3600000000001
 30
0.0
 11
44.95900000000012
 21
-1106.987
 31
0.0
  0
LINE
  5
E7
330
17
100
AcDbEntity
  8
0
100
AcDbLine
 10
44.95900000000012
 20
-1106.987
 30
0.0
 11
47.66300000000012
 21
-1091.22
 31
0.0
  0
LINE
  5
E8
330
17
100
AcDbEntity
  8
0
100
AcDbLine
 10
47.66300000000012
 20
-1091.22
 30
0.0
 11
53.14100000000012
 21
-1072.779
 31
0.0
  0
LINE
  5
E9
330
17
100
AcDbEntity
  8
0
100
AcDbLine
 10
53.14100000000012
 20
-1072.779
 30
0.0
 11
60.57100000000012
 21
-1055.064
 31
0.0
  0
LINE
  5
EA
330
17
100
AcDbEntity
  8
0
100
AcDbLine
 10
60.57100000000012
 20
-1055.064
 30
0.0
 11
80.42400000000012
 21
-1019.4140000000001
 31
0.0
  0
LINE
  5
EB
330
17
100
AcDbEntity
  8
0
100
AcDbLine
 10
729.0000000000001
 20
-700.969
 30
0.0
 11
449.5720000000001
 21
-700.969
 31
0.0
  0
LINE
  5
EC
330
17
100
AcDbEntity
  8
0
100
AcDbLine
 10
449.5720000000001
 20
-700.969
 30
0.0
 11
449.4610000000001
 21
-712.4250000000001
 31
0.0
  0
LINE
  5
ED
330
17
100
AcDbEntity
  8
0
100
AcDbLine
 10
449.4610000000001
 20
-712.4250000000001
 30
0.0
 11
449.1340000000001
 21
-714.565
 31
0.0
  0
LINE
  5
EE
330
17
100
AcDbEntity
  8
0
100
AcDbLine
 10
449.1340000000001
 20
-714.565
 30
0.0
 11
448.6030000000001
 21
-716.6300000000001
 31
0.0
  0
LINE
  5
EF
330
17
100
AcDbEntity
  8
0
100
AcDbLine
 10
448.6030000000001
 20
-716.6300000000001
 30
0.0
 11
447.8780000000001
 21
-718.6100000000001
 31
0.0
  0
LINE
  5
F0
330
17
100
AcDbEntity
  8
0
100
AcDbLine
 10
447.8780000000001
 20
-718.6100000000001
 30
0.0
 11
446.9700000000001
 21
-720.4940000000001
 31
0.0
  0
LINE
  5
F1
330
17
100
AcDbEntity
  8
0
100
AcDbLine
 10
446.9700000000001
 20
-720.4940000000001
 30
0.0
 11
445.8910000000001
 21
-722.2710000000002
 31
0.0
  0
LINE
  5
F2
330
17
100
AcDbEntity
  8
0
100
AcDbLine
 10
445.8910000000001
 20
-722.2710000000002
 30
0.0
 11
444.6500000000001
 21
-723.9300000000002
 31
0.0
  0
LINE
  5
F3
330
17
100
AcDbEntity
  8
0
100
AcDbLine
 10
444.6500000000001
 20
-723.9300000000002
 30
0.0
 11
443.25900000000007
 21
-725.4600000000002
 31
0.0
  0
LINE
  5
F4
330
17
100
AcDbEntity
  8
0
100
AcDbLine
 10
443.25900000000007
 20
-725.4600000000002
 30
0.0
 11
441.7290000000001
 21
-726.8510000000001
 31
0.0
  0
LINE
  5
F5
330
17
100
AcDbEntity
  8
0
100
AcDbLine
 10
441.7290000000001
 20
-726.8510000000001
 30
0.0
 11
440.0700000000001
 21
-728.0920000000001
 31
0.0
  0
LINE
  5
F6
330
17
100
AcDbEntity
  8
0
100
AcDbLine
 10
440.0700000000001
 20
-728.0920000000001
 30
0.0
 11
438.2930000000001
 21
-729.171
 31
0.0
  0
LINE
  5
F7
330
17
100
AcDbEntity
  8
0
100
AcDbLine
 10
438.2930000000001
 20
-729.171
 30
0.0
 11
436.4090000000001
 21
-730.0780000000001
 31
0.0
  0
LINE
  5
F8
330
17
100
AcDbEntity
  8
0
100
AcDbLine
 10
436.4090000000001
 20
-730.0780000000001
 30
0.0
 11
434.4290000000001
 21
-730.8030000000001
 31
0.0
  0
LINE
  5
F9
330
17
100
AcDbEntity
  8
0
100
AcDbLine
 10
434.4290000000001
 20
-730.8030000000001
 30
0.0
 11
432.3640000000001
 21
-731.3340000000001
 31
0.0
  0
LINE
  5
FA
330
17
100
AcDbEntity
  8
0
100
AcDbLine
 10
432.3640000000001
 20
-731.3340000000001
 30
0.0
 11
430.2240000000001
 21
-731.6610000000001
 31
0.0
  0
LINE
  5
FB
330
17
100
AcDbEntity
  8
0
100
AcDbLine
 10
430.2240000000001
 20
-731.6610000000001
 30
0.0
 11
364.8400000000001
 21
-731.767
 31
0.0
  0
LINE
  5
FC
330
17
100
AcDbEntity
  8
0
100
AcDbLine
 10
364.8400000000001
 20
-731.767
 30
0.0
 11
364.2970000000001
 21
-731.725
 31
0.0
  0
LINE
  5
FD
330
17
100
AcDbEntity
  8
0
100
AcDbLine
 10
364.2970000000001
 20
-731.725
 30
0.0
 11
363.7610000000001
 21
-731.642
 31
0.0
  0
LINE
  5
FE
330
17
100
AcDbEntity
  8
0
100
AcDbLine
 10
363.7610000000001
 20
-731.642
 30
0.0
 11
363.2340000000001
 21
-731.519
 31
0.0
  0
LINE
  5
FF
330
17
100
AcDbEntity
  8
0
100
AcDbLine
 10
363.2340000000001
 20
-731.519
 30
0.0
 11
362.7180000000001
 21
-731.356
 31
0.0
  0
LINE
  5
100
330
17
100
AcDbEntity
  8
0
100
AcDbLine
 10
362.7180000000001
 20
-731.356
 30
0.0
 11
362.21600000000007
 21
-731.154
 31
0.0
  0
LINE
  5
101
330
17
100
AcDbEntity
  8
0
100
AcDbLine
 10
362.21600000000007
 20
-731.154
 30
0.0
 11
361.72900000000004
 21
-730.914
 31
0.0
  0
LINE
  5
102
330
17
100
AcDbEntity
  8
0
100
AcDbLine
 10
361.72900000000004
 20
-730.914
 30
0.0
 11
361.26000000000005
 21
-730.636
 31
0.0
  0
LINE
  5
103
330
17
100
AcDbEntity
  8
0
100
AcDbLine
 10
361.26000000000005
 20
-730.636
 30
0.0
 11
354.69900000000007
 21
-726.0409999999999
 31
0.0
  0
LINE
  5
104
330
17
100
AcDbEntity
  8
0
100
AcDbLine
 10
354.69900000000007
 20
-726.0409999999999
 30
0.0
 11
292.4270000000001
 21
-725.9789999999999
 31
0.0
  0
LINE
  5
105
330
17
100
AcDbEntity
  8
0
100
AcDbLine
 10
292.4270000000001
 20
-725.9789999999999
 30
0.0
 11
291.2390000000001
 21
-725.7959999999999
 31
0.0
  0
LINE
  5
106
330
17
100
AcDbEntity
  8
0
100
AcDbLine
 10
291.2390000000001
 20
-725.7959999999999
 30
0.0
 11
290.09100000000007
 21
-725.4989999999999
 31
0.0
  0
LINE
  5
107
330
17
100
AcDbEntity
  8
0
100
AcDbLine
 10
290.09100000000007
 20
-725.4989999999999
 30
0.0
 11
288.99000000000007
 21
-725.0939999999999
 31
0.0
  0
LINE
  5
108
330
17
100
AcDbEntity
  8
0
100
AcDbLine
 10
288.99000000000007
 20
-725.0939999999999
 30
0.0
 11
287.94200000000006
 21
-724.587
 31
0.0
  0
LINE
  5
109
330
17
100
AcDbEntity
  8
0
100
AcDbLine
 10
287.94200000000006
 20
-724.587
 30
0.0
 11
286.95200000000006
 21
-723.984
 31
0.0
  0
LINE
  5
10A
330
17
100
AcDbEntity
  8
0
100
AcDbLine
 10
286.95200000000006
 20
-723.984
 30
0.0
 11
286.0280000000001
 21
-723.292
 31
0.0
  0
LINE
  5
10B
330
17
100
AcDbEntity
  8
0
100
AcDbLine
 10
286.0280000000001
 20
-723.292
 30
0.0
 11
285.17500000000007
 21
-722.5160000000001
 31
0.0
  0
LINE
  5
10C
330
17
100
AcDbEntity
  8
0
100
AcDbLine
 10
285.17500000000007
 20
-722.5160000000001
 30
0.0
 11
284.39900000000006
 21
-721.6630000000001
 31
0.0
  0
LINE
  5
10D
330
17
100
AcDbEntity
  8
0
100
AcDbLine
 10
284.39900000000006
 20
-721.6630000000001
 30
0.0
 11
283.70700000000005
 21
-720.7390000000001
 31
0.0
  0
LINE
  5
10E
330
17
100
AcDbEntity
  8
0
100
AcDbLine
 10
283.70700000000005
 20
-720.7390000000001
 30
0.0
 11
283.10400000000004
 21
-719.7490000000001
 31
0.0
  0
LINE
  5
10F
330
17
100
AcDbEntity
  8
0
100
AcDbLine
 10
283.10400000000004
 20
-719.7490000000001
 30
0.0
 11
282.59700000000004
 21
-718.7010000000001
 31
0.0
  0
LINE
  5
110
330
17
100
AcDbEntity
  8
0
100
AcDbLine
 10
282.59700000000004
 20
-718.7010000000001
 30
0.0
 11
282.19200000000006
 21
-717.6000000000001
 31
0.0
  0
LINE
  5
111
330
17
100
AcDbEntity
  8
0
100
AcDbLine
 10
282.19200000000006
 20
-717.6000000000001
 30
0.0
 11
281.89500000000004
 21
-716.4520000000001
 31
0.0
  0
LINE
  5
112
330
17
100
AcDbEntity
  8
0
100
AcDbLine
 10
281.89500000000004
 20
-716.4520000000001
 30
0.0
 11
281.71200000000005
 21
-715.2640000000001
 31
0.0
  0
LINE
  5
113
330
17
100
AcDbEntity
  8
0
100
AcDbLine
 10
281.71200000000005
 20
-715.2640000000001
 30
0.0
 11
281.66
 21
-707.6430000000001
 31
0.0
  0
LINE
  5
114
330
17
100
AcDbEntity
  8
0
100
AcDbLine
 10
281.66
 20
-707.6430000000001
 30
0.0
 11
281.74300000000005
 21
-706.6560000000002
 31
0.0
  0
LINE
  5
115
330
17
100
AcDbEntity
  8
0
100
AcDbLine
 10
281.74300000000005
 20
-706.6560000000002
 30
0.0
 11
281.90600000000006
 21
-705.6930000000002
 31
0.0
  0
LINE
  5
116
330
17
100
AcDbEntity
  8
0
100
AcDbLine
 10
281.90600000000006
 20
-705.6930000000002
 30
0.0
 11
282.14500000000004
 21
-704.7570000000002
 31
0.0
  0
LINE
  5
117
330
17
100
AcDbEntity
  8
0
100
AcDbLine
 10
282.14500000000004
 20
-704.7570000000002
 30
0.0
 11
282.456
 21
-703.8520000000002
 31
0.0
  0
LINE
  5
118
330
17
100
AcDbEntity
  8
0
100
AcDbLine
 10
282.456
 20
-703.8520000000002
 30
0.0
 11
282.836
 21
-702.9800000000002
 31
0.0
  0
LINE
  5
119
330
17
100
AcDbEntity
  8
0
100
AcDbLine
 10
282.836
 20
-702.9800000000002
 30
0.0
 11
283.28200000000004
 21
-702.1450000000002
 31
0.0
  0
LINE
  5
11A
330
17
100
AcDbEntity
  8
0
100
AcDbLine
 10
283.28200000000004
 20
-702.1450000000002
 30
0.0
 11
284.06500000000005
 21
-700.9680000000002
 31
0.0
  0
LINE
  5
11B
330
17
100
AcDbEntity
  8
0
100
AcDbLine
 10
284.06500000000005
 20
-700.9680000000002
 30
0.0
 11
230.53300000000007
 21
-700.9680000000002
 31
0.0
  0
LINE
  5
11C
330
17
100
AcDbEntity
  8
0
100
AcDbLine
 10
230.53300000000007
 20
-700.9680000000002
 30
0.0
 11
230.53300000000007
 21
-766.0810000000001
 31
0.0
  0
LINE
  5
11D
330
17
100
AcDbEntity
  8
0
100
AcDbLine
 10
230.53300000000007
 20
-766.0810000000001
 30
0.0
 11
736.027
 21
-767.3580000000002
 31
0.0
  0
LINE
  5
11E
330
17
100
AcDbEntity
  8
0
100
AcDbLine
 10
736.027
 20
-767.3580000000002
 30
0.0
 11
735.9910000000001
 21
-707.2770000000002
 31
0.0
  0
LINE
  5
11F
330
17
100
AcDbEntity
  8
0
100
AcDbLine
 10
735.9910000000001
 20
-707.2770000000002
 30
0.0
 11
735.8850000000001
 21
-706.5790000000002
 31
0.0
  0
LINE
  5
120
330
17
100
AcDbEntity
  8
0
100
AcDbLine
 10
735.8850000000001
 20
-706.5790000000002
 30
0.0
 11
735.7120000000001
 21
-705.9050000000002
 31
0.0
  0
LINE
  5
121
330
17
100
AcDbEntity
  8
0
100
AcDbLine
 10
735.7120000000001
 20
-705.9050000000002
 30
0.0
 11
735.4760000000001
 21
-705.2590000000002
 31
0.0
  0
LINE
  5
122
330
17
100
AcDbEntity
  8
0
100
AcDbLine
 10
735.4760000000001
 20
-705.2590000000002
 30
0.0
 11
735.1800000000001
 21
-704.6450000000002
 31
0.0
  0
LINE
  5
123
330
17
100
AcDbEntity
  8
0
100
AcDbLine
 10
735.1800000000001
 20
-704.6450000000002
 30
0.0
 11
734.8280000000001
 21
-704.0660000000003
 31
0.0
  0
LINE
  5
124
330
17
100
AcDbEntity
  8
0
100
AcDbLine
 10
734.8280000000001
 20
-704.0660000000003
 30
0.0
 11
734.4230000000001
 21
-703.5250000000002
 31
0.0
  0
LINE
  5
125
330
17
100
AcDbEntity
  8
0
100
AcDbLine
 10
734.4230000000001
 20
-703.5250000000002
 30
0.0
 11
733.9690000000002
 21
-703.0260000000002
 31
0.0
  0
LINE
  5
126
330
17
100
AcDbEntity
  8
0
100
AcDbLine
 10
733.9690000000002
 20
-703.0260000000002
 30
0.0
 11
733.4700000000001
 21
-702.5720000000002
 31
0.0
  0
LINE
  5
127
330
17
100
AcDbEntity
  8
0
100
AcDbLine
 10
733.4700000000001
 20
-702.5720000000002
 30
0.0
 11
732.9290000000001
 21
-702.1670000000003
 31
0.0
  0
LINE
  5
128
330
17
100
AcDbEntity
  8
0
100
AcDbLine
 10
732.9290000000001
 20
-702.1670000000003
 30
0.0
 11
732.3500000000001
 21
-701.8150000000003
 31
0.0
  0
LINE
  5
129
330
17
100
AcDbEntity
  8
0
100
AcDbLine
 10
732.3500000000001
 20
-701.8150000000003
 30
0.0
 11
731.7360000000001
 21
-701.5190000000002
 31
0.0
  0
LINE
  5
12A
330
17
100
AcDbEntity
  8
0
100
AcDbLine
 10
731.7360000000001
 20
-701.5190000000002
 30
0.0
 11
731.0900000000001
 21
-701.2830000000002
 31
0.0
  0
LINE
  5
12B
330
17
100
AcDbEntity
  8
0
100
AcDbLine
 10
731.0900000000001
 20
-701.2830000000002
 30
0.0
 11
730.4170000000001
 21
-701.1100000000002
 31
0.0
  0
LINE
  5
12C
330
17
100
AcDbEntity
  8
0
100
AcDbLine
 10
730.4170000000001
 20
-701.1100000000002
 30
0.0
 11
729.7190000000002
 21
-701.0030000000003
 31
0.0
  0
LINE
  5
12D
330
17
100
AcDbEntity
  8
0
100
AcDbLine
 10
729.7190000000002
 20
-701.0030000000003
 30
0.0
 11
729.0000000000001
 21
-700.9670000000003
 31
0.0
  0
ENDSEC
  0
SECTION
  2
OBJECTS
  0
DICTIONARY
  5
A
330
0
100
AcDbDictionary
281
1
  3
ACAD_COLOR
350
B
  3
ACAD_GROUP
350
C
  3
ACAD_LAYOUT
350
D
  3
ACAD_MATERIAL
350
E
  3
ACAD_MLEADERSTYLE
350
F
  3
ACAD_MLINESTYLE
350
10
  3
ACAD_PLOTSETTINGS
350
11
  3
ACAD_PLOTSTYLENAME
350
12
  3
ACAD_SCALELIST
350
14
  3
ACAD_TABLESTYLE
350
15
  3
ACAD_VISUALSTYLE
350
16
  3
EZDXF_META
350
2D
  0
DICTIONARY
  5
B
330
A
100
AcDbDictionary
281
1
  0
DICTIONARY
  5
C
330
A
100
AcDbDictionary
281
1
  0
DICTIONARY
  5
D
330
A
100
AcDbDictionary
281
1
  3
Model
350
1A
  3
Layout1
350
1E
  0
DICTIONARY
  5
E
330
A
100
AcDbDictionary
281
1
  3
ByBlock
350
1F
  3
ByLayer
350
20
  3
Global
350
21
  0
DICTIONARY
  5
F
330
A
100
AcDbDictionary
281
1
  3
Standard
350
2C
  0
DICTIONARY
  5
10
330
A
100
AcDbDictionary
281
1
  3
Standard
350
22
  0
DICTIONARY
  5
11
330
A
100
AcDbDictionary
281
1
  0
ACDBDICTIONARYWDFLT
  5
12
330
A
100
AcDbDictionary
281
1
  3
Normal
350
13
100
AcDbDictionaryWithDefault
340
13
  0
ACDBPLACEHOLDER
  5
13
330
12
  0
DICTIONARY
  5
14
330
A
100
AcDbDictionary
281
1
  0
DICTIONARY
  5
15
330
A
100
AcDbDictionary
281
1
  0
DICTIONARY
  5
16
330
A
100
AcDbDictionary
281
1
  0
LAYOUT
  5
1A
330
D
100
AcDbPlotSettings
  1

  4
A3
  6

 40
7.5
 41
20.0
 42
7.5
 43
20.0
 44
420.0
 45
297.0
 46
0.0
 47
0.0
 48
0.0
 49
0.0
140
0.0
141
0.0
142
1.0
143
1.0
 70
1024
 72
1
 73
0
 74
5
  7

 75
16
 76
0
 77
2
 78
300
147
1.0
148
0.0
149
0.0
100
AcDbLayout
  1
Model
 70
1
 71
0
 10
0.0
 20
0.0
 11
420.0
 21
297.0
 12
0.0
 22
0.0
 32
0.0
 14
1e+20
 24
1e+20
 34
1e+20
 15
-1e+20
 25
-1e+20
 35
-1e+20
146
0.0
 13
0.0
 23
0.0
 33
0.0
 16
1.0
 26
0.0
 36
0.0
 17
0.0
 27
1.0
 37
0.0
 76
1
330
17
  0
LAYOUT
  5
1E
330
D
100
AcDbPlotSettings
  1

  4
A3
  6

 40
7.5
 41
20.0
 42
7.5
 43
20.0
 44
420.0
 45
297.0
 46
0.0
 47
0.0
 48
0.0
 49
0.0
140
0.0
141
0.0
142
1.0
143
1.0
 70
0
 72
1
 73
0
 74
5
  7

 75
16
 76
0
 77
2
 78
300
147
1.0
148
0.0
149
0.0
100
AcDbLayout
  1
Layout1
 70
1
 71
1
 10
0.0
 20
0.0
 11
420.0
 21
297.0
 12
0.0
 22
0.0
 32
0.0
 14
1e+20
 24
1e+20
 34
1e+20
 15
-1e+20
 25
-1e+20
 35
-1e+20
146
0.0
 13
0.0
 23
0.0
 33
0.0
 16
1.0
 26
0.0
 36
0.0
 17
0.0
 27
1.0
 37
0.0
 76
1
330
1B
  0
MATERIAL
  5
1F
102
{ACAD_REACTORS
330
E
102
}
330
E
100
AcDbMaterial
  1
ByBlock
  2

 70
0
 40
1.0
 71
1
 41
1.0
 91
-1023410177
 42
1.0
 72
1
  3

 73
1
 74
1
 75
1
 44
0.5
 73
0
 45
1.0
 46
1.0
 77
1
  4

 78
1
 79
1
170
1
 48
1.0
171
1
  6

172
1
173
1
174
1
140
1.0
141
1.0
175
1
  7

176
1
177
1
178
1
143
1.0
179
1
  8

270
1
271
1
272
1
145
1.0
146
1.0
273
1
  9

274
1
275
1
276
1
 42
1.0
 72
1
  3

 73
1
 74
1
 75
1
 94
63
  0
MATERIAL
  5
20
102
{ACAD_REACTORS
330
E
102
}
330
E
100
AcDbMaterial
  1
ByLayer
  2

 70
0
 40
1.0
 71
1
 41
1.0
 91
-1023410177
 42
1.0
 72
1
  3

 73
1
 74
1
 75
1
 44
0.5
 73
0
 45
1.0
 46
1.0
 77
1
  4

 78
1
 79
1
170
1
 48
1.0
171
1
  6

172
1
173
1
174
1
140
1.0
141
1.0
175
1
  7

176
1
177
1
178
1
143
1.0
179
1
  8

270
1
271
1
272
1
145
1.0
146
1.0
273
1
  9

274
1
275
1
276
1
 42
1.0
 72
1
  3

 73
1
 74
1
 75
1
 94
63
  0
MATERIAL
  5
21
102
{ACAD_REACTORS
330
E
102
}
330
E
100
AcDbMaterial
  1
Global
  2

 70
0
 40
1.0
 71
1
 41
1.0
 91
-1023410177
 42
1.0
 72
1
  3

 73
1
 74
1
 75
1
 44
0.5
 73
0
 45
1.0
 46
1.0
 77
1
  4

 78
1
 79
1
170
1
 48
1.0
171
1
  6

172
1
173
1
174
1
140
1.0
141
1.0
175
1
  7

176
1
177
1
178
1
143
1.0
179
1
  8

270
1
271
1
272
1
145
1.0
146
1.0
273
1
  9

274
1
275
1
276
1
 42
1.0
 72
1
  3

 73
1
 74
1
 75
1
 94
63
  0
MLINESTYLE
  5
22
102
{ACAD_REACTORS
330
10
102
}
330
10
100
AcDbMlineStyle
  2
Standard
 70
0
  3

 62
256
 51
90.0
 52
90.0
 71
2
 49
0.5
 62
256
  6
BYLAYER
 49
-0.5
 62
256
  6
BYLAYER
  0
MLEADERSTYLE
  5
2C
102
{ACAD_REACTORS
330
F
102
}
330
F
100
AcDbMLeaderStyle
179
2
170
2
171
1
172
0
 90
2
 40
0.0
 41
0.0
173
1
 91
-1056964608
 92
-2
290
1
 42
2.0
291
1
 43
8.0
  3
Standard
 44
4.0
300

342
29
174
1
175
1
176
0
178
1
 93
-1056964608
 45
4.0
292
0
297
0
 46
4.0
 94
-1056964608
 47
1.0
 49
1.0
140
1.0
294
1
141
0.0
177
0
142
1.0
295
0
296
0
143
3.75
271
0
272
9
273
9
  0
DICTIONARY
  5
2D
330
A
100
AcDbDictionary
280
1
281
1
  3
CREATED_BY_EZDXF
350
2E
  3
WRITTEN_BY_EZDXF
350
130
  0
DICTIONARYVAR
  5
2E
330
2D
100
DictionaryVariables
280
0
  1
1.4.3 @ 2026-04-08T00:10:10.727629+00:00
  0
DICTIONARYVAR
  5
130
330
2D
100
DictionaryVariables
280
0
  1
1.4.3 @ 2026-04-08T00:10:10.730156+00:00
  0
ENDSEC
  0
EOF
