  0
SECTION
  2
HEADER
  9
$ACADVER
  1
AC1024
  9
$ACADMAINTVER
 70
6
  9
$DWGCODEPAGE
  3
ANSI_1252
  9
$LASTSAVEDBY
  1
ezdxf
  9
$INSBASE
 10
0.0
 20
0.0
 30
0.0
  9
$EXTMIN
 10
1e+20
 20
1e+20
 30
1e+20
  9
$EXTMAX
 10
-1e+20
 20
-1e+20
 30
-1e+20
  9
$LIMMIN
 10
0.0
 20
0.0
  9
$LIMMAX
 10
420.0
 20
297.0
  9
$ORTHOMODE
 70
0
  9
$REGENMODE
 70
1
  9
$FILLMODE
 70
1
  9
$QTEXTMODE
 70
0
  9
$MIRRTEXT
 70
1
  9
$LTSCALE
 40
1.0
  9
$ATTMODE
 70
1
  9
$TEXTSIZE
 40
2.5
  9
$TRACEWID
 40
1.0
  9
$TEXTSTYLE
  7
Standard
  9
$CLAYER
  8
0
  9
$CELTYPE
  6
ByLayer
  9
$CECOLOR
 62
256
  9
$CELTSCALE
 40
1.0
  9
$DISPSILH
 70
0
  9
$DIMSCALE
 40
1.0
  9
$DIMASZ
 40
2.5
  9
$DIMEXO
 40
0.625
  9
$DIMDLI
 40
3.75
  9
$DIMRND
 40
0.0
  9
$DIMDLE
 40
0.0
  9
$DIMEXE
 40
1.25
  9
$DIMTP
 40
0.0
  9
$DIMTM
 40
0.0
  9
$DIMTXT
 40
2.5
  9
$DIMCEN
 40
2.5
  9
$DIMTSZ
 40
0.0
  9
$DIMTOL
 70
0
  9
$DIMLIM
 70
0
  9
$DIMTIH
 70
0
  9
$DIMTOH
 70
0
  9
$DIMSE1
 70
0
  9
$DIMSE2
 70
0
  9
$DIMTAD
 70
1
  9
$DIMZIN
 70
8
  9
$DIMBLK
  1

  9
$DIMASO
 70
1
  9
$DIMSHO
 70
1
  9
$DIMPOST
  1

  9
$DIMAPOST
  1

  9
$DIMALT
 70
0
  9
$DIMALTD
 70
3
  9
$DIMALTF
 40
0.03937007874
  9
$DIMLFAC
 40
1.0
  9
$DIMTOFL
 70
1
  9
$DIMTVP
 40
0.0
  9
$DIMTIX
 70
0
  9
$DIMSOXD
 70
0
  9
$DIMSAH
 70
0
  9
$DIMBLK1
  1

  9
$DIMBLK2
  1

  9
$DIMSTYLE
  2
ISO-25
  9
$DIMCLRD
 70
0
  9
$DIMCLRE
 70
0
  9
$DIMCLRT
 70
0
  9
$DIMTFAC
 40
1.0
  9
$DIMGAP
 40
0.625
  9
$DIMJUST
 70
0
  9
$DIMSD1
 70
0
  9
$DIMSD2
 70
0
  9
$DIMTOLJ
 70
0
  9
$DIMTZIN
 70
8
  9
$DIMALTZ
 70
0
  9
$DIMALTTZ
 70
0
  9
$DIMUPT
 70
0
  9
$DIMDEC
 70
2
  9
$DIMTDEC
 70
2
  9
$DIMALTU
 70
2
  9
$DIMALTTD
 70
3
  9
$DIMTXSTY
  7
Standard
  9
$DIMAUNIT
 70
0
  9
$DIMADEC
 70
0
  9
$DIMALTRND
 40
0.0
  9
$DIMAZIN
 70
0
  9
$DIMDSEP
 70
44
  9
$DIMATFIT
 70
3
  9
$DIMFRAC
 70
0
  9
$DIMLDRBLK
  1

  9
$DIMLUNIT
 70
2
  9
$DIMLWD
 70
-2
  9
$DIMLWE
 70
-2
  9
$DIMTMOVE
 70
0
  9
$DIMFXL
 40
1.0
  9
$DIMFXLON
 70
0
  9
$DIMJOGANG
 40
0.785398163397
  9
$DIMTFILL
 70
0
  9
$DIMTFILLCLR
 70
0
  9
$DIMARCSYM
 70
0
  9
$DIMLTYPE
  6

  9
$DIMLTEX1
  6

  9
$DIMLTEX2
  6

  9
$DIMTXTDIRECTION
 70
0
  9
$LUNITS
 70
2
  9
$LUPREC
 70
4
  9
$SKETCHINC
 40
1.0
  9
$FILLETRAD
 40
10.0
  9
$AUNITS
 70
0
  9
$AUPREC
 70
2
  9
$MENU
  1
.
  9
$ELEVATION
 40
0.0
  9
$PELEVATION
 40
0.0
  9
$THICKNESS
 40
0.0
  9
$LIMCHECK
 70
0
  9
$CHAMFERA
 40
0.0
  9
$CHAMFERB
 40
0.0
  9
$CHAMFERC
 40
0.0
  9
$CHAMFERD
 40
0.0
  9
$SKPOLY
 70
0
  9
$TDCREATE
 40
2461138.7153935186
  9
$TDUCREATE
 40
2458532.153996898
  9
$TDUPDATE
 40
2461138.7154050926
  9
$TDUUPDATE
 40
2458532.1544311
  9
$TDINDWG
 40
0.0
  9
$TDUSRTIMER
 40
0.0
  9
$USRTIMER
 70
1
  9
$ANGBASE
 50
0.0
  9
$ANGDIR
 70
0
  9
$PDMODE
 70
0
  9
$PDSIZE
 40
0.0
  9
$PLINEWID
 40
0.0
  9
$SPLFRAME
 70
0
  9
$SPLINETYPE
 70
6
  9
$SPLINESEGS
 70
8
  9
$HANDSEED
  5
113
  9
$SURFTAB1
 70
6
  9
$SURFTAB2
 70
6
  9
$SURFTYPE
 70
6
  9
$SURFU
 70
6
  9
$SURFV
 70
6
  9
$UCSBASE
  2

  9
$UCSNAME
  2

  9
$UCSORG
 10
0.0
 20
0.0
 30
0.0
  9
$UCSXDIR
 10
1.0
 20
0.0
 30
0.0
  9
$UCSYDIR
 10
0.0
 20
1.0
 30
0.0
  9
$UCSORTHOREF
  2

  9
$UCSORTHOVIEW
 70
0
  9
$UCSORGTOP
 10
0.0
 20
0.0
 30
0.0
  9
$UCSORGBOTTOM
 10
0.0
 20
0.0
 30
0.0
  9
$UCSORGLEFT
 10
0.0
 20
0.0
 30
0.0
  9
$UCSORGRIGHT
 10
0.0
 20
0.0
 30
0.0
  9
$UCSORGFRONT
 10
0.0
 20
0.0
 30
0.0
  9
$UCSORGBACK
 10
0.0
 20
0.0
 30
0.0
  9
$PUCSBASE
  2

  9
$PUCSNAME
  2

  9
$PUCSORG
 10
0.0
 20
0.0
 30
0.0
  9
$PUCSXDIR
 10
1.0
 20
0.0
 30
0.0
  9
$PUCSYDIR
 10
0.0
 20
1.0
 30
0.0
  9
$PUCSORTHOREF
  2

  9
$PUCSORTHOVIEW
 70
0
  9
$PUCSORGTOP
 10
0.0
 20
0.0
 30
0.0
  9
$PUCSORGBOTTOM
 10
0.0
 20
0.0
 30
0.0
  9
$PUCSORGLEFT
 10
0.0
 20
0.0
 30
0.0
  9
$PUCSORGRIGHT
 10
0.0
 20
0.0
 30
0.0
  9
$PUCSORGFRONT
 10
0.0
 20
0.0
 30
0.0
  9
$PUCSORGBACK
 10
0.0
 20
0.0
 30
0.0
  9
$USERI1
 70
0
  9
$USERI2
 70
0
  9
$USERI3
 70
0
  9
$USERI4
 70
0
  9
$USERI5
 70
0
  9
$USERR1
 40
0.0
  9
$USERR2
 40
0.0
  9
$USERR3
 40
0.0
  9
$USERR4
 40
0.0
  9
$USERR5
 40
0.0
  9
$WORLDVIEW
 70
1
  9
$SHADEDGE
 70
3
  9
$SHADEDIF
 70
70
  9
$TILEMODE
 70
1
  9
$MAXACTVP
 70
64
  9
$PINSBASE
 10
0.0
 20
0.0
 30
0.0
  9
$PLIMCHECK
 70
0
  9
$PEXTMIN
 10
1e+20
 20
1e+20
 30
1e+20
  9
$PEXTMAX
 10
-1e+20
 20
-1e+20
 30
-1e+20
  9
$PLIMMIN
 10
0.0
 20
0.0
  9
$PLIMMAX
 10
420.0
 20
297.0
  9
$UNITMODE
 70
0
  9
$VISRETAIN
 70
1
  9
$PLINEGEN
 70
0
  9
$PSLTSCALE
 70
1
  9
$TREEDEPTH
 70
3020
  9
$CMLSTYLE
  2
Standard
  9
$CMLJUST
 70
0
  9
$CMLSCALE
 40
20.0
  9
$PROXYGRAPHICS
 70
1
  9
$MEASUREMENT
 70
1
  9
$CELWEIGHT
370
-1
  9
$ENDCAPS
280
0
  9
$JOINSTYLE
280
0
  9
$LWDISPLAY
290
0
  9
$INSUNITS
 70
6
  9
$HYPERLINKBASE
  1

  9
$STYLESHEET
  1

  9
$XEDIT
290
1
  9
$CEPSNTYPE
380
0
  9
$PSTYLEMODE
290
1
  9
$FINGERPRINTGUID
  2
{159BCEE9-DF6D-4C42-B8EA-EEC24129EE8F}
  9
$VERSIONGUID
  2
{0E0C6B0F-F4BC-4615-BDAA-535A48187944}
  9
$EXTNAMES
290
1
  9
$PSVPSCALE
 40
0.0
  9
$OLESTARTUP
290
0
  9
$SORTENTS
280
127
  9
$INDEXCTL
280
0
  9
$HIDETEXT
280
1
  9
$XCLIPFRAME
280
1
  9
$HALOGAP
280
0
  9
$OBSCOLOR
 70
257
  9
$OBSLTYPE
280
0
  9
$INTERSECTIONDISPLAY
280
0
  9
$INTERSECTIONCOLOR
 70
257
  9
$DIMASSOC
280
2
  9
$PROJECTNAME
  1

  9
$CAMERADISPLAY
290
0
  9
$LENSLENGTH
 40
50.0
  9
$CAMERAHEIGHT
 40
0.0
  9
$STEPSPERSEC
 40
24.0
  9
$STEPSIZE
 40
100.0
  9
$3DDWFPREC
 40
2.0
  9
$PSOLWIDTH
 40
0.005
  9
$PSOLHEIGHT
 40
0.08
  9
$LOFTANG1
 40
1.570796326795
  9
$LOFTANG2
 40
1.570796326795
  9
$LOFTMAG1
 40
0.0
  9
$LOFTMAG2
 40
0.0
  9
$LOFTPARAM
 70
7
  9
$LOFTNORMALS
280
1
  9
$LATITUDE
 40
37.795
  9
$LONGITUDE
 40
-122.394
  9
$NORTHDIRECTION
 40
0.0
  9
$TIMEZONE
 70
-8000
  9
$LIGHTGLYPHDISPLAY
280
1
  9
$TILEMODELIGHTSYNCH
280
1
  9
$CMATERIAL
347
20
  9
$SOLIDHIST
280
0
  9
$SHOWHIST
280
1
  9
$DWFFRAME
280
2
  9
$DGNFRAME
280
2
  9
$REALWORLDSCALE
290
1
  9
$INTERFERECOLOR
 62
256
  9
$CSHADOW
280
0
  9
$SHADOWPLANELOCATION
 40
0.0
  0
ENDSEC
  0
SECTION
  2
CLASSES
  0
CLASS
  1
ACDBDICTIONARYWDFLT
  2
AcDbDictionaryWithDefault
  3
ObjectDBX Classes
 90
0
 91
0
280
0
281
0
  0
CLASS
  1
SUN
  2
AcDbSun
  3
SCENEOE
 90
1153
 91
0
280
0
281
0
  0
CLASS
  1
VISUALSTYLE
  2
AcDbVisualStyle
  3
ObjectDBX Classes
 90
4095
 91
0
280
0
281
0
  0
CLASS
  1
MATERIAL
  2
AcDbMaterial
  3
ObjectDBX Classes
 90
1153
 91
0
280
0
281
0
  0
CLASS
  1
SCALE
  2
AcDbScale
  3
ObjectDBX Classes
 90
1153
 91
0
280
0
281
0
  0
CLASS
  1
TABLESTYLE
  2
AcDbTableStyle
  3
ObjectDBX Classes
 90
4095
 91
0
280
0
281
0
  0
CLASS
  1
MLEADERSTYLE
  2
AcDbMLeaderStyle
  3
ACDB_MLEADERSTYLE_CLASS
 90
4095
 91
0
280
0
281
0
  0
CLASS
  1
DICTIONARYVAR
  2
AcDbDictionaryVar
  3
ObjectDBX Classes
 90
0
 91
0
280
0
281
0
  0
CLASS
  1
CELLSTYLEMAP
  2
AcDbCellStyleMap
  3
ObjectDBX Classes
 90
1152
 91
0
280
0
281
0
  0
CLASS
  1
MENTALRAYRENDERSETTINGS
  2
AcDbMentalRayRenderSettings
  3
SCENEOE
 90
1024
 91
0
280
0
281
0
  0
CLASS
  1
ACDBDETAILVIEWSTYLE
  2
AcDbDetailViewStyle
  3
ObjectDBX Classes
 90
1025
 91
0
280
0
281
0
  0
CLASS
  1
ACDBSECTIONVIEWSTYLE
  2
AcDbSectionViewStyle
  3
ObjectDBX Classes
 90
1025
 91
0
280
0
281
0
  0
CLASS
  1
RASTERVARIABLES
  2
AcDbRasterVariables
  3
ISM
 90
0
 91
0
280
0
281
0
  0
CLASS
  1
ACDBPLACEHOLDER
  2
AcDbPlaceHolder
  3
ObjectDBX Classes
 90
0
 91
0
280
0
281
0
  0
CLASS
  1
LAYOUT
  2
AcDbLayout
  3
ObjectDBX Classes
 90
0
 91
0
280
0
281
0
  0
ENDSEC
  0
SECTION
  2
TABLES
  0
TABLE
  2
VPORT
  5
8
330
0
100
AcDbSymbolTable
 70
1
  0
VPORT
  5
23
330
8
100
AcDbSymbolTableRecord
100
AcDbViewportTableRecord
  2
*Active
 70
0
 10
0.0
 20
0.0
 11
1.0
 21
1.0
 12
0.0
 22
0.0
 13
0.0
 23
0.0
 14
0.5
 24
0.5
 15
0.5
 25
0.5
 16
0.0
 26
0.0
 36
1.0
 17
0.0
 27
0.0
 37
0.0
 40
1000.0
 41
1.34
 42
50.0
 43
0.0
 44
0.0
 50
0.0
 51
0.0
 71
0
 72
1000
 73
1
 74
3
 75
0
 76
0
 77
0
 78
0
281
0
 65
0
146
0.0
  0
ENDTAB
  0
TABLE
  2
LTYPE
  5
2
330
0
100
AcDbSymbolTable
 70
3
  0
LTYPE
  5
24
330
2
100
AcDbSymbolTableRecord
100
AcDbLinetypeTableRecord
  2
ByBlock
 70
0
  3

 72
65
 73
0
 40
0.0
  0
LTYPE
  5
25
330
2
100
AcDbSymbolTableRecord
100
AcDbLinetypeTableRecord
  2
ByLayer
 70
0
  3

 72
65
 73
0
 40
0.0
  0
LTYPE
  5
26
330
2
100
AcDbSymbolTableRecord
100
AcDbLinetypeTableRecord
  2
Continuous
 70
0
  3

 72
65
 73
0
 40
0.0
  0
ENDTAB
  0
TABLE
  2
LAYER
  5
1
330
0
100
AcDbSymbolTable
 70
2
  0
LAYER
  5
27
330
1
100
AcDbSymbolTableRecord
100
AcDbLayerTableRecord
  2
0
 70
0
 62
7
  6
Continuous
370
-3
390
13
347
21
  0
LAYER
  5
28
330
1
100
AcDbSymbolTableRecord
100
AcDbLayerTableRecord
  2
Defpoints
 70
0
 62
7
  6
Continuous
290
0
370
-3
390
13
347
21
  0
ENDTAB
  0
TABLE
  2
STYLE
  5
5
330
0
100
AcDbSymbolTable
 70
1
  0
STYLE
  5
29
330
5
100
AcDbSymbolTableRecord
100
AcDbTextStyleTableRecord
  2
Standard
 70
0
 40
0.0
 41
1.0
 50
0.0
 71
0
 42
2.5
  3
txt
  4

  0
ENDTAB
  0
TABLE
  2
VIEW
  5
7
330
0
100
AcDbSymbolTable
 70
0
  0
ENDTAB
  0
TABLE
  2
UCS
  5
6
330
0
100
AcDbSymbolTable
 70
0
  0
ENDTAB
  0
TABLE
  2
APPID
  5
3
330
0
100
AcDbSymbolTable
 70
3
  0
APPID
  5
2A
330
3
100
AcDbSymbolTableRecord
100
AcDbRegAppTableRecord
  2
ACAD
 70
0
  0
APPID
  5
110
330
3
100
AcDbSymbolTableRecord
100
AcDbRegAppTableRecord
  2
HATCHBACKGROUNDCOLOR
 70
0
  0
APPID
  5
111
330
3
100
AcDbSymbolTableRecord
100
AcDbRegAppTableRecord
  2
EZDXF
 70
0
  0
ENDTAB
  0
TABLE
  2
DIMSTYLE
  5
4
330
0
100
AcDbSymbolTable
 70
1
100
AcDbDimStyleTable
  0
DIMSTYLE
105
2B
330
4
100
AcDbSymbolTableRecord
100
AcDbDimStyleTableRecord
  2
Standard
 70
0
 40
1.0
 41
2.5
 42
0.625
 43
3.75
 44
1.25
 45
0.0
 46
0.0
 47
0.0
 48
0.0
 49
2.5
140
2.5
141
2.5
142
0.0
143
0.03937007874
144
1.0
145
0.0
146
1.0
147
0.625
148
0.0
 69
0
 70
0
 71
0
 72
0
 73
0
 74
0
 75
0
 76
0
 77
1
 78
8
 79
3
170
0
171
3
172
1
173
0
174
0
175
0
176
0
177
0
178
0
179
2
271
2
272
2
273
2
274
3
275
0
276
0
277
2
278
44
279
0
280
0
281
0
282
0
283
0
284
8
285
0
286
0
288
0
289
3
290
0
371
-2
372
-2
  0
ENDTAB
  0
TABLE
  2
BLOCK_RECORD
  5
9
330
0
100
AcDbSymbolTable
 70
2
  0
BLOCK_RECORD
  5
17
330
9
100
AcDbSymbolTableRecord
100
AcDbBlockTableRecord
  2
*Model_Space
340
1A
 70
0
280
1
281
0
  0
BLOCK_RECORD
  5
1B
330
9
100
AcDbSymbolTableRecord
100
AcDbBlockTableRecord
  2
*Paper_Space
340
1E
 70
0
280
1
281
0
  0
ENDTAB
  0
ENDSEC
  0
SECTION
  2
BLOCKS
  0
BLOCK
  5
18
330
17
100
AcDbEntity
  8
0
100
AcDbBlockBegin
  2
*Model_Space
 70
0
 10
0.0
 20
0.0
 30
0.0
  3
*Model_Space
  1

  0
ENDBLK
  5
19
330
17
100
AcDbEntity
  8
0
100
AcDbBlockEnd
  0
BLOCK
  5
1C
330
1B
100
AcDbEntity
  8
0
100
AcDbBlockBegin
  2
*Paper_Space
 70
0
 10
0.0
 20
0.0
 30
0.0
  3
*Paper_Space
  1

  0
ENDBLK
  5
1D
330
1B
100
AcDbEntity
  8
0
100
AcDbBlockEnd
  0
ENDSEC
  0
SECTION
  2
ENTITIES
  0
LINE
  5
2F
330
17
100
AcDbEntity
  8
0
100
AcDbLine
 10
111.223
 20
-697.282
 30
0.0
 11
111.008
 21
-764.9000000000001
 31
0.0
  0
LINE
  5
30
330
17
100
AcDbEntity
  8
0
100
AcDbLine
 10
111.008
 20
-764.9000000000001
 30
0.0
 11
83.342
 21
-765.0000000000001
 31
0.0
  0
LINE
  5
31
330
17
100
AcDbEntity
  8
0
100
AcDbLine
 10
83.342
 20
-765.0000000000001
 30
0.0
 11
83.55799999999999
 21
-697.3350000000002
 31
0.0
  0
LINE
  5
32
330
17
100
AcDbEntity
  8
0
100
AcDbLine
 10
83.55799999999999
 20
-697.3350000000002
 30
0.0
 11
111.22399999999999
 21
-697.2820000000002
 31
0.0
  0
LINE
  5
33
330
17
100
AcDbEntity
  8
0
100
AcDbLine
 10
91.469
 20
-1000.3640000000001
 30
0.0
 11
116.31299999999999
 21
-959.5070000000002
 31
0.0
  0
LINE
  5
34
330
17
100
AcDbEntity
  8
0
100
AcDbLine
 10
116.31299999999999
 20
-959.5070000000002
 30
0.0
 11
133.831
 21
-925.1240000000001
 31
0.0
  0
LINE
  5
35
330
17
100
AcDbEntity
  8
0
100
AcDbLine
 10
133.831
 20
-925.1240000000001
 30
0.0
 11
151.56099999999998
 21
-879.4960000000001
 31
0.0
  0
LINE
  5
36
330
17
100
AcDbEntity
  8
0
100
AcDbLine
 10
151.56099999999998
 20
-879.4960000000001
 30
0.0
 11
152.94799999999998
 21
-873.8710000000001
 31
0.0
  0
LINE
  5
37
330
17
100
AcDbEntity
  8
0
100
AcDbLine
 10
152.94799999999998
 20
-873.8710000000001
 30
0.0
 11
153.75699999999998
 21
-868.1480000000001
 31
0.0
  0
LINE
  5
38
330
17
100
AcDbEntity
  8
0
100
AcDbLine
 10
153.75699999999998
 20
-868.1480000000001
 30
0.0
 11
153.98399999999998
 21
-862.3730000000002
 31
0.0
  0
LINE
  5
39
330
17
100
AcDbEntity
  8
0
100
AcDbLine
 10
153.98399999999998
 20
-862.3730000000002
 30
0.0
 11
153.623
 21
-856.5910000000001
 31
0.0
  0
LINE
  5
3A
330
17
100
AcDbEntity
  8
0
100
AcDbLine
 10
153.623
 20
-856.5910000000001
 30
0.0
 11
152.089
 21
-847.2150000000001
 31
0.0
  0
LINE
  5
3B
330
17
100
AcDbEntity
  8
0
100
AcDbLine
 10
152.089
 20
-847.2150000000001
 30
0.0
 11
149.766
 21
-838.5390000000001
 31
0.0
  0
LINE
  5
3C
330
17
100
AcDbEntity
  8
0
100
AcDbLine
 10
149.766
 20
-838.5390000000001
 30
0.0
 11
146.75
 21
-830.5400000000001
 31
0.0
  0
LINE
  5
3D
330
17
100
AcDbEntity
  8
0
100
AcDbLine
 10
146.75
 20
-830.5400000000001
 30
0.0
 11
143.136
 21
-823.196
 31
0.0
  0
LINE
  5
3E
330
17
100
AcDbEntity
  8
0
100
AcDbLine
 10
143.136
 20
-823.196
 30
0.0
 11
139.021
 21
-816.485
 31
0.0
  0
LINE
  5
3F
330
17
100
AcDbEntity
  8
0
100
AcDbLine
 10
139.021
 20
-816.485
 30
0.0
 11
134.5
 21
-810.384
 31
0.0
  0
LINE
  5
40
330
17
100
AcDbEntity
  8
0
100
AcDbLine
 10
134.5
 20
-810.384
 30
0.0
 11
129.669
 21
-804.8720000000001
 31
0.0
  0
LINE
  5
41
330
17
100
AcDbEntity
  8
0
100
AcDbLine
 10
129.669
 20
-804.8720000000001
 30
0.0
 11
119.46200000000002
 21
-795.5250000000001
 31
0.0
  0
LINE
  5
42
330
17
100
AcDbEntity
  8
0
100
AcDbLine
 10
119.46200000000002
 20
-795.5250000000001
 30
0.0
 11
109.16600000000003
 21
-788.2660000000001
 31
0.0
  0
LINE
  5
43
330
17
100
AcDbEntity
  8
0
100
AcDbLine
 10
109.16600000000003
 20
-788.2660000000001
 30
0.0
 11
99.54900000000002
 21
-782.9180000000001
 31
0.0
  0
LINE
  5
44
330
17
100
AcDbEntity
  8
0
100
AcDbLine
 10
99.54900000000002
 20
-782.9180000000001
 30
0.0
 11
87.89800000000002
 21
-778.0120000000002
 31
0.0
  0
LINE
  5
45
330
17
100
AcDbEntity
  8
0
100
AcDbLine
 10
87.89800000000002
 20
-778.0120000000002
 30
0.0
 11
87.82100000000003
 21
-777.9640000000002
 31
0.0
  0
LINE
  5
46
330
17
100
AcDbEntity
  8
0
100
AcDbLine
 10
87.82100000000003
 20
-777.9640000000002
 30
0.0
 11
87.75100000000003
 21
-777.9110000000002
 31
0.0
  0
LINE
  5
47
330
17
100
AcDbEntity
  8
0
100
AcDbLine
 10
87.75100000000003
 20
-777.9110000000002
 30
0.0
 11
87.68900000000004
 21
-777.8530000000002
 31
0.0
  0
LINE
  5
48
330
17
100
AcDbEntity
  8
0
100
AcDbLine
 10
87.68900000000004
 20
-777.8530000000002
 30
0.0
 11
87.63400000000003
 21
-777.7910000000002
 31
0.0
  0
LINE
  5
49
330
17
100
AcDbEntity
  8
0
100
AcDbLine
 10
87.63400000000003
 20
-777.7910000000002
 30
0.0
 11
87.58600000000003
 21
-777.7250000000001
 31
0.0
  0
LINE
  5
4A
330
17
100
AcDbEntity
  8
0
100
AcDbLine
 10
87.58600000000003
 20
-777.7250000000001
 30
0.0
 11
87.54400000000003
 21
-777.6550000000001
 31
0.0
  0
LINE
  5
4B
330
17
100
AcDbEntity
  8
0
100
AcDbLine
 10
87.54400000000003
 20
-777.6550000000001
 30
0.0
 11
87.50900000000003
 21
-777.5830000000001
 31
0.0
  0
LINE
  5
4C
330
17
100
AcDbEntity
  8
0
100
AcDbLine
 10
87.50900000000003
 20
-777.5830000000001
 30
0.0
 11
87.48100000000002
 21
-777.508
 31
0.0
  0
LINE
  5
4D
330
17
100
AcDbEntity
  8
0
100
AcDbLine
 10
87.48100000000002
 20
-777.508
 30
0.0
 11
87.46000000000002
 21
-777.431
 31
0.0
  0
LINE
  5
4E
330
17
100
AcDbEntity
  8
0
100
AcDbLine
 10
87.46000000000002
 20
-777.431
 30
0.0
 11
87.44500000000002
 21
-777.3530000000001
 31
0.0
  0
LINE
  5
4F
330
17
100
AcDbEntity
  8
0
100
AcDbLine
 10
87.44500000000002
 20
-777.3530000000001
 30
0.0
 11
87.43600000000002
 21
-777.2740000000001
 31
0.0
  0
LINE
  5
50
330
17
100
AcDbEntity
  8
0
100
AcDbLine
 10
87.43600000000002
 20
-777.2740000000001
 30
0.0
 11
87.43400000000003
 21
-777.1950000000002
 31
0.0
  0
LINE
  5
51
330
17
100
AcDbEntity
  8
0
100
AcDbLine
 10
87.43400000000003
 20
-777.1950000000002
 30
0.0
 11
87.43800000000003
 21
-777.1160000000002
 31
0.0
  0
LINE
  5
52
330
17
100
AcDbEntity
  8
0
100
AcDbLine
 10
87.43800000000003
 20
-777.1160000000002
 30
0.0
 11
87.44800000000004
 21
-777.0370000000003
 31
0.0
  0
LINE
  5
53
330
17
100
AcDbEntity
  8
0
100
AcDbLine
 10
87.44800000000004
 20
-777.0370000000003
 30
0.0
 11
87.46400000000004
 21
-776.9590000000003
 31
0.0
  0
LINE
  5
54
330
17
100
AcDbEntity
  8
0
100
AcDbLine
 10
87.46400000000004
 20
-776.9590000000003
 30
0.0
 11
87.48600000000005
 21
-776.8830000000003
 31
0.0
  0
LINE
  5
55
330
17
100
AcDbEntity
  8
0
100
AcDbLine
 10
87.48600000000005
 20
-776.8830000000003
 30
0.0
 11
87.51400000000005
 21
-776.8090000000003
 31
0.0
  0
LINE
  5
56
330
17
100
AcDbEntity
  8
0
100
AcDbLine
 10
87.51400000000005
 20
-776.8090000000003
 30
0.0
 11
87.54800000000006
 21
-776.7370000000003
 31
0.0
  0
LINE
  5
57
330
17
100
AcDbEntity
  8
0
100
AcDbLine
 10
87.54800000000006
 20
-776.7370000000003
 30
0.0
 11
87.58800000000006
 21
-776.6680000000003
 31
0.0
  0
LINE
  5
58
330
17
100
AcDbEntity
  8
0
100
AcDbLine
 10
87.58800000000006
 20
-776.6680000000003
 30
0.0
 11
87.63400000000007
 21
-776.6030000000003
 31
0.0
  0
LINE
  5
59
330
17
100
AcDbEntity
  8
0
100
AcDbLine
 10
87.63400000000007
 20
-776.6030000000003
 30
0.0
 11
87.68500000000007
 21
-776.5410000000003
 31
0.0
  0
LINE
  5
5A
330
17
100
AcDbEntity
  8
0
100
AcDbLine
 10
87.68500000000007
 20
-776.5410000000003
 30
0.0
 11
87.74200000000008
 21
-776.4840000000003
 31
0.0
  0
LINE
  5
5B
330
17
100
AcDbEntity
  8
0
100
AcDbLine
 10
87.74200000000008
 20
-776.4840000000003
 30
0.0
 11
87.80400000000007
 21
-776.4320000000002
 31
0.0
  0
LINE
  5
5C
330
17
100
AcDbEntity
  8
0
100
AcDbLine
 10
87.80400000000007
 20
-776.4320000000002
 30
0.0
 11
87.87200000000007
 21
-776.3850000000002
 31
0.0
  0
LINE
  5
5D
330
17
100
AcDbEntity
  8
0
100
AcDbLine
 10
87.87200000000007
 20
-776.3850000000002
 30
0.0
 11
87.94500000000006
 21
-776.3440000000002
 31
0.0
  0
LINE
  5
5E
330
17
100
AcDbEntity
  8
0
100
AcDbLine
 10
87.94500000000006
 20
-776.3440000000002
 30
0.0
 11
88.02300000000007
 21
-776.3090000000002
 31
0.0
  0
LINE
  5
5F
330
17
100
AcDbEntity
  8
0
100
AcDbLine
 10
88.02300000000007
 20
-776.3090000000002
 30
0.0
 11
88.10600000000007
 21
-776.2810000000002
 31
0.0
  0
LINE
  5
60
330
17
100
AcDbEntity
  8
0
100
AcDbLine
 10
88.10600000000007
 20
-776.2810000000002
 30
0.0
 11
88.19400000000006
 21
-776.2610000000002
 31
0.0
  0
LINE
  5
61
330
17
100
AcDbEntity
  8
0
100
AcDbLine
 10
88.19400000000006
 20
-776.2610000000002
 30
0.0
 11
88.28700000000006
 21
-776.2480000000002
 31
0.0
  0
LINE
  5
62
330
17
100
AcDbEntity
  8
0
100
AcDbLine
 10
88.28700000000006
 20
-776.2480000000002
 30
0.0
 11
143.52900000000005
 21
-776.2350000000001
 31
0.0
  0
LINE
  5
63
330
17
100
AcDbEntity
  8
0
100
AcDbLine
 10
143.52900000000005
 20
-776.2350000000001
 30
0.0
 11
144.35100000000006
 21
-776.3540000000002
 31
0.0
  0
LINE
  5
64
330
17
100
AcDbEntity
  8
0
100
AcDbLine
 10
144.35100000000006
 20
-776.3540000000002
 30
0.0
 11
145.14900000000006
 21
-776.5650000000002
 31
0.0
  0
LINE
  5
65
330
17
100
AcDbEntity
  8
0
100
AcDbLine
 10
145.14900000000006
 20
-776.5650000000002
 30
0.0
 11
145.91500000000005
 21
-776.8640000000001
 31
0.0
  0
LINE
  5
66
330
17
100
AcDbEntity
  8
0
100
AcDbLine
 10
145.91500000000005
 20
-776.8640000000001
 30
0.0
 11
146.64100000000005
 21
-777.2480000000002
 31
0.0
  0
LINE
  5
67
330
17
100
AcDbEntity
  8
0
100
AcDbLine
 10
146.64100000000005
 20
-777.2480000000002
 30
0.0
 11
147.32000000000005
 21
-777.7130000000002
 31
0.0
  0
LINE
  5
68
330
17
100
AcDbEntity
  8
0
100
AcDbLine
 10
147.32000000000005
 20
-777.7130000000002
 30
0.0
 11
147.94500000000005
 21
-778.2550000000002
 31
0.0
  0
LINE
  5
69
330
17
100
AcDbEntity
  8
0
100
AcDbLine
 10
147.94500000000005
 20
-778.2550000000002
 30
0.0
 11
148.50900000000004
 21
-778.8710000000002
 31
0.0
  0
LINE
  5
6A
330
17
100
AcDbEntity
  8
0
100
AcDbLine
 10
148.50900000000004
 20
-778.8710000000002
 30
0.0
 11
171.89900000000006
 21
-810.7540000000002
 31
0.0
  0
LINE
  5
6B
330
17
100
AcDbEntity
  8
0
100
AcDbLine
 10
171.89900000000006
 20
-810.7540000000002
 30
0.0
 11
172.46600000000007
 21
-811.3740000000003
 31
0.0
  0
LINE
  5
6C
330
17
100
AcDbEntity
  8
0
100
AcDbLine
 10
172.46600000000007
 20
-811.3740000000003
 30
0.0
 11
173.09500000000006
 21
-811.9200000000003
 31
0.0
  0
LINE
  5
6D
330
17
100
AcDbEntity
  8
0
100
AcDbLine
 10
173.09500000000006
 20
-811.9200000000003
 30
0.0
 11
173.77800000000005
 21
-812.3890000000004
 31
0.0
  0
LINE
  5
6E
330
17
100
AcDbEntity
  8
0
100
AcDbLine
 10
173.77800000000005
 20
-812.3890000000004
 30
0.0
 11
174.50800000000004
 21
-812.7770000000004
 31
0.0
  0
LINE
  5
6F
330
17
100
AcDbEntity
  8
0
100
AcDbLine
 10
174.50800000000004
 20
-812.7770000000004
 30
0.0
 11
175.27800000000005
 21
-813.0800000000004
 31
0.0
  0
LINE
  5
70
330
17
100
AcDbEntity
  8
0
100
AcDbLine
 10
175.27800000000005
 20
-813.0800000000004
 30
0.0
 11
176.08000000000004
 21
-813.2950000000004
 31
0.0
  0
LINE
  5
71
330
17
100
AcDbEntity
  8
0
100
AcDbLine
 10
176.08000000000004
 20
-813.2950000000004
 30
0.0
 11
176.90800000000004
 21
-813.4180000000005
 31
0.0
  0
LINE
  5
72
330
17
100
AcDbEntity
  8
0
100
AcDbLine
 10
176.90800000000004
 20
-813.4180000000005
 30
0.0
 11
308.62300000000005
 21
-813.6070000000004
 31
0.0
  0
LINE
  5
73
330
17
100
AcDbEntity
  8
0
100
AcDbLine
 10
308.62300000000005
 20
-813.6070000000004
 30
0.0
 11
309.43000000000006
 21
-813.5420000000004
 31
0.0
  0
LINE
  5
74
330
17
100
AcDbEntity
  8
0
100
AcDbLine
 10
309.43000000000006
 20
-813.5420000000004
 30
0.0
 11
310.2180000000001
 21
-813.3900000000003
 31
0.0
  0
LINE
  5
75
330
17
100
AcDbEntity
  8
0
100
AcDbLine
 10
310.2180000000001
 20
-813.3900000000003
 30
0.0
 11
310.98100000000005
 21
-813.1540000000003
 31
0.0
  0
LINE
  5
76
330
17
100
AcDbEntity
  8
0
100
AcDbLine
 10
310.98100000000005
 20
-813.1540000000003
 30
0.0
 11
311.71200000000005
 21
-812.8370000000003
 31
0.0
  0
LINE
  5
77
330
17
100
AcDbEntity
  8
0
100
AcDbLine
 10
311.71200000000005
 20
-812.8370000000003
 30
0.0
 11
312.40500000000003
 21
-812.4420000000003
 31
0.0
  0
LINE
  5
78
330
17
100
AcDbEntity
  8
0
100
AcDbLine
 10
312.40500000000003
 20
-812.4420000000003
 30
0.0
 11
313.05300000000005
 21
-811.9720000000003
 31
0.0
  0
LINE
  5
79
330
17
100
AcDbEntity
  8
0
100
AcDbLine
 10
313.05300000000005
 20
-811.9720000000003
 30
0.0
 11
313.64900000000006
 21
-811.4300000000003
 31
0.0
  0
LINE
  5
7A
330
17
100
AcDbEntity
  8
0
100
AcDbLine
 10
313.64900000000006
 20
-811.4300000000003
 30
0.0
 11
313.92600000000004
 21
-811.1330000000003
 31
0.0
  0
LINE
  5
7B
330
17
100
AcDbEntity
  8
0
100
AcDbLine
 10
313.92600000000004
 20
-811.1330000000003
 30
0.0
 11
339.53200000000004
 21
-778.8060000000003
 31
0.0
  0
LINE
  5
7C
330
17
100
AcDbEntity
  8
0
100
AcDbLine
 10
339.53200000000004
 20
-778.8060000000003
 30
0.0
 11
340.09100000000007
 21
-778.2380000000003
 31
0.0
  0
LINE
  5
7D
330
17
100
AcDbEntity
  8
0
100
AcDbLine
 10
340.09100000000007
 20
-778.2380000000003
 30
0.0
 11
340.70400000000006
 21
-777.7380000000003
 31
0.0
  0
LINE
  5
7E
330
17
100
AcDbEntity
  8
0
100
AcDbLine
 10
340.70400000000006
 20
-777.7380000000003
 30
0.0
 11
341.36500000000007
 21
-777.3100000000003
 31
0.0
  0
LINE
  5
7F
330
17
100
AcDbEntity
  8
0
100
AcDbLine
 10
341.36500000000007
 20
-777.3100000000003
 30
0.0
 11
342.06700000000006
 21
-776.9570000000003
 31
0.0
  0
LINE
  5
80
330
17
100
AcDbEntity
  8
0
100
AcDbLine
 10
342.06700000000006
 20
-776.9570000000003
 30
0.0
 11
342.80300000000005
 21
-776.6820000000004
 31
0.0
  0
LINE
  5
81
330
17
100
AcDbEntity
  8
0
100
AcDbLine
 10
342.80300000000005
 20
-776.6820000000004
 30
0.0
 11
343.56800000000004
 21
-776.4880000000004
 31
0.0
  0
LINE
  5
82
330
17
100
AcDbEntity
  8
0
100
AcDbLine
 10
343.56800000000004
 20
-776.4880000000004
 30
0.0
 11
344.35400000000004
 21
-776.3780000000004
 31
0.0
  0
LINE
  5
83
330
17
100
AcDbEntity
  8
0
100
AcDbLine
 10
344.35400000000004
 20
-776.3780000000004
 30
0.0
 11
415.57300000000004
 21
-776.3060000000004
 31
0.0
  0
LINE
  5
84
330
17
100
AcDbEntity
  8
0
100
AcDbLine
 10
415.57300000000004
 20
-776.3060000000004
 30
0.0
 11
404.22900000000004
 21
-809.7090000000004
 31
0.0
  0
LINE
  5
85
330
17
100
AcDbEntity
  8
0
100
AcDbLine
 10
404.22900000000004
 20
-809.7090000000004
 30
0.0
 11
403.82000000000005
 21
-810.6570000000004
 31
0.0
  0
LINE
  5
86
330
17
100
AcDbEntity
  8
0
100
AcDbLine
 10
403.82000000000005
 20
-810.6570000000004
 30
0.0
 11
403.34200000000004
 21
-811.5620000000004
 31
0.0
  0
LINE
  5
87
330
17
100
AcDbEntity
  8
0
100
AcDbLine
 10
403.34200000000004
 20
-811.5620000000004
 30
0.0
 11
402.79900000000004
 21
-812.4200000000003
 31
0.0
  0
LINE
  5
88
330
17
100
AcDbEntity
  8
0
100
AcDbLine
 10
402.79900000000004
 20
-812.4200000000003
 30
0.0
 11
402.194
 21
-813.2290000000003
 31
0.0
  0
LINE
  5
89
330
17
100
AcDbEntity
  8
0
100
AcDbLine
 10
402.194
 20
-813.2290000000003
 30
0.0
 11
401.531
 21
-813.9860000000002
 31
0.0
  0
LINE
  5
8A
330
17
100
AcDbEntity
  8
0
100
AcDbLine
 10
401.531
 20
-813.9860000000002
 30
0.0
 11
400.814
 21
-814.6880000000002
 31
0.0
  0
LINE
  5
8B
330
17
100
AcDbEntity
  8
0
100
AcDbLine
 10
400.814
 20
-814.6880000000002
 30
0.0
 11
400.04600000000005
 21
-815.3330000000002
 31
0.0
  0
LINE
  5
8C
330
17
100
AcDbEntity
  8
0
100
AcDbLine
 10
400.04600000000005
 20
-815.3330000000002
 30
0.0
 11
399.23100000000005
 21
-815.9170000000001
 31
0.0
  0
LINE
  5
8D
330
17
100
AcDbEntity
  8
0
100
AcDbLine
 10
399.23100000000005
 20
-815.9170000000001
 30
0.0
 11
398.37300000000005
 21
-816.4380000000001
 31
0.0
  0
LINE
  5
8E
330
17
100
AcDbEntity
  8
0
100
AcDbLine
 10
398.37300000000005
 20
-816.4380000000001
 30
0.0
 11
397.475
 21
-816.8930000000001
 31
0.0
  0
LINE
  5
8F
330
17
100
AcDbEntity
  8
0
100
AcDbLine
 10
397.475
 20
-816.8930000000001
 30
0.0
 11
396.541
 21
-817.2790000000001
 31
0.0
  0
LINE
  5
90
330
17
100
AcDbEntity
  8
0
100
AcDbLine
 10
396.541
 20
-817.2790000000001
 30
0.0
 11
395.575
 21
-817.5930000000001
 31
0.0
  0
LINE
  5
91
330
17
100
AcDbEntity
  8
0
100
AcDbLine
 10
395.575
 20
-817.5930000000001
 30
0.0
 11
394.58
 21
-817.8330000000001
 31
0.0
  0
LINE
  5
92
330
17
100
AcDbEntity
  8
0
100
AcDbLine
 10
394.58
 20
-817.8330000000001
 30
0.0
 11
393.56
 21
-817.9950000000001
 31
0.0
  0
LINE
  5
93
330
17
100
AcDbEntity
  8
0
100
AcDbLine
 10
393.56
 20
-817.9950000000001
 30
0.0
 11
378.447
 21
-819.1310000000001
 31
0.0
  0
LINE
  5
94
330
17
100
AcDbEntity
  8
0
100
AcDbLine
 10
378.447
 20
-819.1310000000001
 30
0.0
 11
365.845
 21
-821.0500000000001
 31
0.0
  0
LINE
  5
95
330
17
100
AcDbEntity
  8
0
100
AcDbLine
 10
365.845
 20
-821.0500000000001
 30
0.0
 11
354.63500000000005
 21
-823.705
 31
0.0
  0
LINE
  5
96
330
17
100
AcDbEntity
  8
0
100
AcDbLine
 10
354.63500000000005
 20
-823.705
 30
0.0
 11
344.73900000000003
 21
-826.9680000000001
 31
0.0
  0
LINE
  5
97
330
17
100
AcDbEntity
  8
0
100
AcDbLine
 10
344.73900000000003
 20
-826.9680000000001
 30
0.0
 11
336.08000000000004
 21
-830.7090000000001
 31
0.0
  0
LINE
  5
98
330
17
100
AcDbEntity
  8
0
100
AcDbLine
 10
336.08000000000004
 20
-830.7090000000001
 30
0.0
 11
328.58000000000004
 21
-834.8000000000001
 31
0.0
  0
LINE
  5
99
330
17
100
AcDbEntity
  8
0
100
AcDbLine
 10
328.58000000000004
 20
-834.8000000000001
 30
0.0
 11
322.16200000000003
 21
-839.113
 31
0.0
  0
LINE
  5
9A
330
17
100
AcDbEntity
  8
0
100
AcDbLine
 10
322.16200000000003
 20
-839.113
 30
0.0
 11
316.74800000000005
 21
-843.518
 31
0.0
  0
LINE
  5
9B
330
17
100
AcDbEntity
  8
0
100
AcDbLine
 10
316.74800000000005
 20
-843.518
 30
0.0
 11
312.261
 21
-847.8870000000001
 31
0.0
  0
LINE
  5
9C
330
17
100
AcDbEntity
  8
0
100
AcDbLine
 10
312.261
 20
-847.8870000000001
 30
0.0
 11
308.624
 21
-852.091
 31
0.0
  0
LINE
  5
9D
330
17
100
AcDbEntity
  8
0
100
AcDbLine
 10
308.624
 20
-852.091
 30
0.0
 11
305.759
 21
-856.002
 31
0.0
  0
LINE
  5
9E
330
17
100
AcDbEntity
  8
0
100
AcDbLine
 10
305.759
 20
-856.002
 30
0.0
 11
303.589
 21
-859.49
 31
0.0
  0
LINE
  5
9F
330
17
100
AcDbEntity
  8
0
100
AcDbLine
 10
303.589
 20
-859.49
 30
0.0
 11
301.022
 21
-864.6850000000001
 31
0.0
  0
LINE
  5
A0
330
17
100
AcDbEntity
  8
0
100
AcDbLine
 10
301.022
 20
-864.6850000000001
 30
0.0
 11
204.37099999999998
 21
-1108.6760000000002
 31
0.0
  0
LINE
  5
A1
330
17
100
AcDbEntity
  8
0
100
AcDbLine
 10
204.37099999999998
 20
-1108.6760000000002
 30
0.0
 11
204.03599999999997
 21
-1109.285
 31
0.0
  0
LINE
  5
A2
330
17
100
AcDbEntity
  8
0
100
AcDbLine
 10
204.03599999999997
 20
-1109.285
 30
0.0
 11
203.65599999999998
 21
-1109.8580000000002
 31
0.0
  0
LINE
  5
A3
330
17
100
AcDbEntity
  8
0
100
AcDbLine
 10
203.65599999999998
 20
-1109.8580000000002
 30
0.0
 11
203.23399999999998
 21
-1110.3940000000002
 31
0.0
  0
LINE
  5
A4
330
17
100
AcDbEntity
  8
0
100
AcDbLine
 10
203.23399999999998
 20
-1110.3940000000002
 30
0.0
 11
202.772
 21
-1110.8910000000003
 31
0.0
  0
LINE
  5
A5
330
17
100
AcDbEntity
  8
0
100
AcDbLine
 10
202.772
 20
-1110.8910000000003
 30
0.0
 11
202.273
 21
-1111.3470000000002
 31
0.0
  0
LINE
  5
A6
330
17
100
AcDbEntity
  8
0
100
AcDbLine
 10
202.273
 20
-1111.3470000000002
 30
0.0
 11
201.74099999999999
 21
-1111.7600000000002
 31
0.0
  0
LINE
  5
A7
330
17
100
AcDbEntity
  8
0
100
AcDbLine
 10
201.74099999999999
 20
-1111.7600000000002
 30
0.0
 11
201.178
 21
-1112.1290000000001
 31
0.0
  0
LINE
  5
A8
330
17
100
AcDbEntity
  8
0
100
AcDbLine
 10
201.178
 20
-1112.1290000000001
 30
0.0
 11
200.588
 21
-1112.451
 31
0.0
  0
LINE
  5
A9
330
17
100
AcDbEntity
  8
0
100
AcDbLine
 10
200.588
 20
-1112.451
 30
0.0
 11
199.97299999999998
 21
-1112.725
 31
0.0
  0
LINE
  5
AA
330
17
100
AcDbEntity
  8
0
100
AcDbLine
 10
199.97299999999998
 20
-1112.725
 30
0.0
 11
199.33599999999998
 21
-1112.9489999999998
 31
0.0
  0
LINE
  5
AB
330
17
100
AcDbEntity
  8
0
100
AcDbLine
 10
199.33599999999998
 20
-1112.9489999999998
 30
0.0
 11
198.67999999999998
 21
-1113.1219999999998
 31
0.0
  0
LINE
  5
AC
330
17
100
AcDbEntity
  8
0
100
AcDbLine
 10
198.67999999999998
 20
-1113.1219999999998
 30
0.0
 11
198.00799999999998
 21
-1113.2419999999997
 31
0.0
  0
LINE
  5
AD
330
17
100
AcDbEntity
  8
0
100
AcDbLine
 10
198.00799999999998
 20
-1113.2419999999997
 30
0.0
 11
197.32299999999998
 21
-1113.3059999999998
 31
0.0
  0
LINE
  5
AE
330
17
100
AcDbEntity
  8
0
100
AcDbLine
 10
197.32299999999998
 20
-1113.3059999999998
 30
0.0
 11
196.628
 21
-1113.3139999999999
 31
0.0
  0
LINE
  5
AF
330
17
100
AcDbEntity
  8
0
100
AcDbLine
 10
196.628
 20
-1113.3139999999999
 30
0.0
 11
65.22699999999998
 21
-1098.206
 31
0.0
  0
LINE
  5
B0
330
17
100
AcDbEntity
  8
0
100
AcDbLine
 10
65.22699999999998
 20
-1098.206
 30
0.0
 11
64.10799999999998
 21
-1097.9209999999998
 31
0.0
  0
LINE
  5
B1
330
17
100
AcDbEntity
  8
0
100
AcDbLine
 10
64.10799999999998
 20
-1097.9209999999998
 30
0.0
 11
63.031999999999975
 21
-1097.5409999999997
 31
0.0
  0
LINE
  5
B2
330
17
100
AcDbEntity
  8
0
100
AcDbLine
 10
63.031999999999975
 20
-1097.5409999999997
 30
0.0
 11
62.00299999999997
 21
-1097.0719999999997
 31
0.0
  0
LINE
  5
B3
330
17
100
AcDbEntity
  8
0
100
AcDbLine
 10
62.00299999999997
 20
-1097.0719999999997
 30
0.0
 11
61.025999999999975
 21
-1096.5179999999996
 31
0.0
  0
LINE
  5
B4
330
17
100
AcDbEntity
  8
0
100
AcDbLine
 10
61.025999999999975
 20
-1096.5179999999996
 30
0.0
 11
60.10599999999997
 21
-1095.8839999999996
 31
0.0
  0
LINE
  5
B5
330
17
100
AcDbEntity
  8
0
100
AcDbLine
 10
60.10599999999997
 20
-1095.8839999999996
 30
0.0
 11
59.24699999999997
 21
-1095.1749999999995
 31
0.0
  0
LINE
  5
B6
330
17
100
AcDbEntity
  8
0
100
AcDbLine
 10
59.24699999999997
 20
-1095.1749999999995
 30
0.0
 11
58.45399999999997
 21
-1094.3949999999995
 31
0.0
  0
LINE
  5
B7
330
17
100
AcDbEntity
  8
0
100
AcDbLine
 10
58.45399999999997
 20
-1094.3949999999995
 30
0.0
 11
57.73099999999997
 21
-1093.5499999999995
 31
0.0
  0
LINE
  5
B8
330
17
100
AcDbEntity
  8
0
100
AcDbLine
 10
57.73099999999997
 20
-1093.5499999999995
 30
0.0
 11
57.08299999999997
 21
-1092.6439999999996
 31
0.0
  0
LINE
  5
B9
330
17
100
AcDbEntity
  8
0
100
AcDbLine
 10
57.08299999999997
 20
-1092.6439999999996
 30
0.0
 11
56.51399999999997
 21
-1091.6829999999995
 31
0.0
  0
LINE
  5
BA
330
17
100
AcDbEntity
  8
0
100
AcDbLine
 10
56.51399999999997
 20
-1091.6829999999995
 30
0.0
 11
56.02899999999997
 21
-1090.6709999999996
 31
0.0
  0
LINE
  5
BB
330
17
100
AcDbEntity
  8
0
100
AcDbLine
 10
56.02899999999997
 20
-1090.6709999999996
 30
0.0
 11
55.63199999999997
 21
-1089.6129999999996
 31
0.0
  0
LINE
  5
BC
330
17
100
AcDbEntity
  8
0
100
AcDbLine
 10
55.63199999999997
 20
-1089.6129999999996
 30
0.0
 11
55.32799999999997
 21
-1088.5129999999997
 31
0.0
  0
LINE
  5
BD
330
17
100
AcDbEntity
  8
0
100
AcDbLine
 10
55.32799999999997
 20
-1088.5129999999997
 30
0.0
 11
55.12099999999997
 21
-1087.3769999999997
 31
0.0
  0
LINE
  5
BE
330
17
100
AcDbEntity
  8
0
100
AcDbLine
 10
55.12099999999997
 20
-1087.3769999999997
 30
0.0
 11
55.01599999999997
 21
-1086.2089999999998
 31
0.0
  0
LINE
  5
BF
330
17
100
AcDbEntity
  8
0
100
AcDbLine
 10
55.01599999999997
 20
-1086.2089999999998
 30
0.0
 11
55.13099999999997
 21
-1080.821
 31
0.0
  0
LINE
  5
C0
330
17
100
AcDbEntity
  8
0
100
AcDbLine
 10
55.13099999999997
 20
-1080.821
 30
0.0
 11
56.05099999999997
 21
-1074.128
 31
0.0
  0
LINE
  5
C1
330
17
100
AcDbEntity
  8
0
100
AcDbLine
 10
56.05099999999997
 20
-1074.128
 30
0.0
 11
58.007999999999974
 21
-1066.019
 31
0.0
  0
LINE
  5
C2
330
17
100
AcDbEntity
  8
0
100
AcDbLine
 10
58.007999999999974
 20
-1066.019
 30
0.0
 11
61.23399999999997
 21
-1056.384
 31
0.0
  0
LINE
  5
C3
330
17
100
AcDbEntity
  8
0
100
AcDbLine
 10
61.23399999999997
 20
-1056.384
 30
0.0
 11
72.41999999999997
 21
-1032.092
 31
0.0
  0
LINE
  5
C4
330
17
100
AcDbEntity
  8
0
100
AcDbLine
 10
72.41999999999997
 20
-1032.092
 30
0.0
 11
91.46099999999997
 21
-1000.3660000000001
 31
0.0
  0
LINE
  5
C5
330
17
100
AcDbEntity
  8
0
100
AcDbLine
 10
468.996
 20
-776.4710000000001
 30
0.0
 11
574.269
 21
-775.8060000000002
 31
0.0
  0
LINE
  5
C6
330
17
100
AcDbEntity
  8
0
100
AcDbLine
 10
574.269
 20
-775.8060000000002
 30
0.0
 11
574.265
 21
-775.8080000000001
 31
0.0
  0
LINE
  5
C7
330
17
100
AcDbEntity
  8
0
100
AcDbLine
 10
574.265
 20
-775.8080000000001
 30
0.0
 11
573.343
 21
-777.8510000000001
 31
0.0
  0
LINE
  5
C8
330
17
100
AcDbEntity
  8
0
100
AcDbLine
 10
573.343
 20
-777.8510000000001
 30
0.0
 11
571.507
 21
-783.4780000000001
 31
0.0
  0
LINE
  5
C9
330
17
100
AcDbEntity
  8
0
100
AcDbLine
 10
571.507
 20
-783.4780000000001
 30
0.0
 11
569.7919999999999
 21
-792.3800000000001
 31
0.0
  0
LINE
  5
CA
330
17
100
AcDbEntity
  8
0
100
AcDbLine
 10
569.7919999999999
 20
-792.3800000000001
 30
0.0
 11
569.3039999999999
 21
-797.9620000000001
 31
0.0
  0
LINE
  5
CB
330
17
100
AcDbEntity
  8
0
100
AcDbLine
 10
569.3039999999999
 20
-797.9620000000001
 30
0.0
 11
569.2159999999999
 21
-803.4240000000001
 31
0.0
  0
LINE
  5
CC
330
17
100
AcDbEntity
  8
0
100
AcDbLine
 10
569.2159999999999
 20
-803.4240000000001
 30
0.0
 11
459.2979999999999
 21
-807.3770000000001
 31
0.0
  0
LINE
  5
CD
330
17
100
AcDbEntity
  8
0
100
AcDbLine
 10
459.2979999999999
 20
-807.3770000000001
 30
0.0
 11
463.5999999999999
 21
-798.0530000000001
 31
0.0
  0
LINE
  5
CE
330
17
100
AcDbEntity
  8
0
100
AcDbLine
 10
463.5999999999999
 20
-798.0530000000001
 30
0.0
 11
466.86599999999993
 21
-788.1950000000002
 31
0.0
  0
LINE
  5
CF
330
17
100
AcDbEntity
  8
0
100
AcDbLine
 10
466.86599999999993
 20
-788.1950000000002
 30
0.0
 11
468.16099999999994
 21
-782.4910000000002
 31
0.0
  0
LINE
  5
D0
330
17
100
AcDbEntity
  8
0
100
AcDbLine
 10
468.16099999999994
 20
-782.4910000000002
 30
0.0
 11
468.99699999999996
 21
-776.4700000000003
 31
0.0
  0
LINE
  5
D1
330
17
100
AcDbEntity
  8
0
100
AcDbLine
 10
588.3629999999999
 20
-795.4390000000003
 30
0.0
 11
697.0049999999999
 21
-792.7490000000003
 31
0.0
  0
LINE
  5
D2
330
17
100
AcDbEntity
  8
0
100
AcDbLine
 10
697.0049999999999
 20
-792.7490000000003
 30
0.0
 11
701.5919999999999
 21
-791.7760000000003
 31
0.0
  0
LINE
  5
D3
330
17
100
AcDbEntity
  8
0
100
AcDbLine
 10
701.5919999999999
 20
-791.7760000000003
 30
0.0
 11
706.0349999999999
 21
-790.2740000000003
 31
0.0
  0
LINE
  5
D4
330
17
100
AcDbEntity
  8
0
100
AcDbLine
 10
706.0349999999999
 20
-790.2740000000003
 30
0.0
 11
710.2969999999998
 21
-788.2850000000003
 31
0.0
  0
LINE
  5
D5
330
17
100
AcDbEntity
  8
0
100
AcDbLine
 10
710.2969999999998
 20
-788.2850000000003
 30
0.0
 11
714.3409999999998
 21
-785.8500000000004
 31
0.0
  0
LINE
  5
D6
330
17
100
AcDbEntity
  8
0
100
AcDbLine
 10
714.3409999999998
 20
-785.8500000000004
 30
0.0
 11
718.1299999999998
 21
-783.0110000000003
 31
0.0
  0
LINE
  5
D7
330
17
100
AcDbEntity
  8
0
100
AcDbLine
 10
718.1299999999998
 20
-783.0110000000003
 30
0.0
 11
721.6279999999998
 21
-779.8090000000003
 31
0.0
  0
LINE
  5
D8
330
17
100
AcDbEntity
  8
0
100
AcDbLine
 10
721.6279999999998
 20
-779.8090000000003
 30
0.0
 11
724.7979999999998
 21
-776.2850000000003
 31
0.0
  0
LINE
  5
D9
330
17
100
AcDbEntity
  8
0
100
AcDbLine
 10
724.7979999999998
 20
-776.2850000000003
 30
0.0
 11
588.4219999999998
 21
-776.8510000000003
 31
0.0
  0
LINE
  5
DA
330
17
100
AcDbEntity
  8
0
100
AcDbLine
 10
588.4219999999998
 20
-776.8510000000003
 30
0.0
 11
588.3629999999998
 21
-795.4390000000003
 31
0.0
  0
LINE
  5
DB
330
17
100
AcDbEntity
  8
0
100
AcDbLine
 10
472.3129999999998
 20
-698.1730000000003
 30
0.0
 11
472.2749999999998
 21
-702.9310000000004
 31
0.0
  0
LINE
  5
DC
330
17
100
AcDbEntity
  8
0
100
AcDbLine
 10
472.2749999999998
 20
-702.9310000000004
 30
0.0
 11
471.8209999999998
 21
-708.1870000000004
 31
0.0
  0
LINE
  5
DD
330
17
100
AcDbEntity
  8
0
100
AcDbLine
 10
471.8209999999998
 20
-708.1870000000004
 30
0.0
 11
470.8039999999998
 21
-712.9940000000004
 31
0.0
  0
LINE
  5
DE
330
17
100
AcDbEntity
  8
0
100
AcDbLine
 10
470.8039999999998
 20
-712.9940000000004
 30
0.0
 11
470.0739999999998
 21
-715.2050000000004
 31
0.0
  0
LINE
  5
DF
330
17
100
AcDbEntity
  8
0
100
AcDbLine
 10
470.0739999999998
 20
-715.2050000000004
 30
0.0
 11
469.1919999999998
 21
-717.2750000000004
 31
0.0
  0
LINE
  5
E0
330
17
100
AcDbEntity
  8
0
100
AcDbLine
 10
469.1919999999998
 20
-717.2750000000004
 30
0.0
 11
468.1529999999998
 21
-719.1940000000004
 31
0.0
  0
LINE
  5
E1
330
17
100
AcDbEntity
  8
0
100
AcDbLine
 10
468.1529999999998
 20
-719.1940000000004
 30
0.0
 11
466.9529999999998
 21
-720.9520000000005
 31
0.0
  0
LINE
  5
E2
330
17
100
AcDbEntity
  8
0
100
AcDbLine
 10
466.9529999999998
 20
-720.9520000000005
 30
0.0
 11
465.5879999999998
 21
-722.5400000000004
 31
0.0
  0
LINE
  5
E3
330
17
100
AcDbEntity
  8
0
100
AcDbLine
 10
465.5879999999998
 20
-722.5400000000004
 30
0.0
 11
464.0539999999998
 21
-723.9470000000005
 31
0.0
  0
LINE
  5
E4
330
17
100
AcDbEntity
  8
0
100
AcDbLine
 10
464.0539999999998
 20
-723.9470000000005
 30
0.0
 11
462.3479999999998
 21
-725.1650000000004
 31
0.0
  0
LINE
  5
E5
330
17
100
AcDbEntity
  8
0
100
AcDbLine
 10
462.3479999999998
 20
-725.1650000000004
 30
0.0
 11
460.4649999999998
 21
-726.1830000000004
 31
0.0
  0
LINE
  5
E6
330
17
100
AcDbEntity
  8
0
100
AcDbLine
 10
460.4649999999998
 20
-726.1830000000004
 30
0.0
 11
458.4009999999998
 21
-726.9920000000004
 31
0.0
  0
LINE
  5
E7
330
17
100
AcDbEntity
  8
0
100
AcDbLine
 10
458.4009999999998
 20
-726.9920000000004
 30
0.0
 11
456.15199999999976
 21
-727.5820000000004
 31
0.0
  0
LINE
  5
E8
330
17
100
AcDbEntity
  8
0
100
AcDbLine
 10
456.15199999999976
 20
-727.5820000000004
 30
0.0
 11
453.71399999999977
 21
-727.9430000000004
 31
0.0
  0
LINE
  5
E9
330
17
100
AcDbEntity
  8
0
100
AcDbLine
 10
453.71399999999977
 20
-727.9430000000004
 30
0.0
 11
380.73699999999974
 21
-728.0650000000004
 31
0.0
  0
LINE
  5
EA
330
17
100
AcDbEntity
  8
0
100
AcDbLine
 10
380.73699999999974
 20
-728.0650000000004
 30
0.0
 11
372.15499999999975
 21
-722.4110000000004
 31
0.0
  0
LINE
  5
EB
330
17
100
AcDbEntity
  8
0
100
AcDbLine
 10
372.15499999999975
 20
-722.4110000000004
 30
0.0
 11
305.65399999999977
 21
-722.3490000000004
 31
0.0
  0
LINE
  5
EC
330
17
100
AcDbEntity
  8
0
100
AcDbLine
 10
305.65399999999977
 20
-722.3490000000004
 30
0.0
 11
304.4659999999998
 21
-722.1660000000004
 31
0.0
  0
LINE
  5
ED
330
17
100
AcDbEntity
  8
0
100
AcDbLine
 10
304.4659999999998
 20
-722.1660000000004
 30
0.0
 11
303.31799999999976
 21
-721.8690000000004
 31
0.0
  0
LINE
  5
EE
330
17
100
AcDbEntity
  8
0
100
AcDbLine
 10
303.31799999999976
 20
-721.8690000000004
 30
0.0
 11
302.21699999999976
 21
-721.4640000000004
 31
0.0
  0
LINE
  5
EF
330
17
100
AcDbEntity
  8
0
100
AcDbLine
 10
302.21699999999976
 20
-721.4640000000004
 30
0.0
 11
301.16899999999976
 21
-720.9570000000004
 31
0.0
  0
LINE
  5
F0
330
17
100
AcDbEntity
  8
0
100
AcDbLine
 10
301.16899999999976
 20
-720.9570000000004
 30
0.0
 11
300.17899999999975
 21
-720.3540000000005
 31
0.0
  0
LINE
  5
F1
330
17
100
AcDbEntity
  8
0
100
AcDbLine
 10
300.17899999999975
 20
-720.3540000000005
 30
0.0
 11
299.25499999999977
 21
-719.6620000000005
 31
0.0
  0
LINE
  5
F2
330
17
100
AcDbEntity
  8
0
100
AcDbLine
 10
299.25499999999977
 20
-719.6620000000005
 30
0.0
 11
298.40199999999976
 21
-718.8860000000005
 31
0.0
  0
LINE
  5
F3
330
17
100
AcDbEntity
  8
0
100
AcDbLine
 10
298.40199999999976
 20
-718.8860000000005
 30
0.0
 11
297.62599999999975
 21
-718.0330000000006
 31
0.0
  0
LINE
  5
F4
330
17
100
AcDbEntity
  8
0
100
AcDbLine
 10
297.62599999999975
 20
-718.0330000000006
 30
0.0
 11
296.93399999999974
 21
-717.1090000000006
 31
0.0
  0
LINE
  5
F5
330
17
100
AcDbEntity
  8
0
100
AcDbLine
 10
296.93399999999974
 20
-717.1090000000006
 30
0.0
 11
296.33099999999973
 21
-716.1190000000006
 31
0.0
  0
LINE
  5
F6
330
17
100
AcDbEntity
  8
0
100
AcDbLine
 10
296.33099999999973
 20
-716.1190000000006
 30
0.0
 11
295.8239999999997
 21
-715.0710000000006
 31
0.0
  0
LINE
  5
F7
330
17
100
AcDbEntity
  8
0
100
AcDbLine
 10
295.8239999999997
 20
-715.0710000000006
 30
0.0
 11
295.41899999999976
 21
-713.9700000000006
 31
0.0
  0
LINE
  5
F8
330
17
100
AcDbEntity
  8
0
100
AcDbLine
 10
295.41899999999976
 20
-713.9700000000006
 30
0.0
 11
295.12199999999973
 21
-712.8220000000006
 31
0.0
  0
LINE
  5
F9
330
17
100
AcDbEntity
  8
0
100
AcDbLine
 10
295.12199999999973
 20
-712.8220000000006
 30
0.0
 11
294.93899999999974
 21
-711.6340000000006
 31
0.0
  0
LINE
  5
FA
330
17
100
AcDbEntity
  8
0
100
AcDbLine
 10
294.93899999999974
 20
-711.6340000000006
 30
0.0
 11
294.8769999999997
 21
-709.8330000000005
 31
0.0
  0
LINE
  5
FB
330
17
100
AcDbEntity
  8
0
100
AcDbLine
 10
294.8769999999997
 20
-709.8330000000005
 30
0.0
 11
294.9229999999997
 21
-708.7400000000006
 31
0.0
  0
LINE
  5
FC
330
17
100
AcDbEntity
  8
0
100
AcDbLine
 10
294.9229999999997
 20
-708.7400000000006
 30
0.0
 11
295.05899999999974
 21
-707.7110000000006
 31
0.0
  0
LINE
  5
FD
330
17
100
AcDbEntity
  8
0
100
AcDbLine
 10
295.05899999999974
 20
-707.7110000000006
 30
0.0
 11
295.2809999999997
 21
-706.7110000000006
 31
0.0
  0
LINE
  5
FE
330
17
100
AcDbEntity
  8
0
100
AcDbLine
 10
295.2809999999997
 20
-706.7110000000006
 30
0.0
 11
295.5849999999997
 21
-705.7430000000006
 31
0.0
  0
LINE
  5
FF
330
17
100
AcDbEntity
  8
0
100
AcDbLine
 10
295.5849999999997
 20
-705.7430000000006
 30
0.0
 11
295.9679999999997
 21
-704.8120000000006
 31
0.0
  0
LINE
  5
100
330
17
100
AcDbEntity
  8
0
100
AcDbLine
 10
295.9679999999997
 20
-704.8120000000006
 30
0.0
 11
296.42499999999967
 21
-703.9220000000006
 31
0.0
  0
LINE
  5
101
330
17
100
AcDbEntity
  8
0
100
AcDbLine
 10
296.42499999999967
 20
-703.9220000000006
 30
0.0
 11
296.95199999999966
 21
-703.0760000000006
 31
0.0
  0
LINE
  5
102
330
17
100
AcDbEntity
  8
0
100
AcDbLine
 10
296.95199999999966
 20
-703.0760000000006
 30
0.0
 11
297.5449999999997
 21
-702.2780000000006
 31
0.0
  0
LINE
  5
103
330
17
100
AcDbEntity
  8
0
100
AcDbLine
 10
297.5449999999997
 20
-702.2780000000006
 30
0.0
 11
298.2009999999997
 21
-701.5330000000006
 31
0.0
  0
LINE
  5
104
330
17
100
AcDbEntity
  8
0
100
AcDbLine
 10
298.2009999999997
 20
-701.5330000000006
 30
0.0
 11
298.9149999999997
 21
-700.8440000000006
 31
0.0
  0
LINE
  5
105
330
17
100
AcDbEntity
  8
0
100
AcDbLine
 10
298.9149999999997
 20
-700.8440000000006
 30
0.0
 11
299.6839999999997
 21
-700.2150000000006
 31
0.0
  0
LINE
  5
106
330
17
100
AcDbEntity
  8
0
100
AcDbLine
 10
299.6839999999997
 20
-700.2150000000006
 30
0.0
 11
300.5029999999997
 21
-699.6500000000005
 31
0.0
  0
LINE
  5
107
330
17
100
AcDbEntity
  8
0
100
AcDbLine
 10
300.5029999999997
 20
-699.6500000000005
 30
0.0
 11
301.3689999999997
 21
-699.1530000000006
 31
0.0
  0
LINE
  5
108
330
17
100
AcDbEntity
  8
0
100
AcDbLine
 10
301.3689999999997
 20
-699.1530000000006
 30
0.0
 11
302.2779999999997
 21
-698.7280000000006
 31
0.0
  0
LINE
  5
109
330
17
100
AcDbEntity
  8
0
100
AcDbLine
 10
302.2779999999997
 20
-698.7280000000006
 30
0.0
 11
303.22599999999966
 21
-698.3780000000006
 31
0.0
  0
LINE
  5
10A
330
17
100
AcDbEntity
  8
0
100
AcDbLine
 10
303.22599999999966
 20
-698.3780000000006
 30
0.0
 11
304.2079999999997
 21
-698.1080000000006
 31
0.0
  0
LINE
  5
10B
330
17
100
AcDbEntity
  8
0
100
AcDbLine
 10
304.2079999999997
 20
-698.1080000000006
 30
0.0
 11
240.3229999999997
 21
-698.0820000000007
 31
0.0
  0
LINE
  5
10C
330
17
100
AcDbEntity
  8
0
100
AcDbLine
 10
240.3229999999997
 20
-698.0820000000007
 30
0.0
 11
240.1109999999997
 21
-765.5060000000007
 31
0.0
  0
LINE
  5
10D
330
17
100
AcDbEntity
  8
0
100
AcDbLine
 10
240.1109999999997
 20
-765.5060000000007
 30
0.0
 11
726.1039999999997
 21
-765.6120000000006
 31
0.0
  0
LINE
  5
10E
330
17
100
AcDbEntity
  8
0
100
AcDbLine
 10
726.1039999999997
 20
-765.6120000000006
 30
0.0
 11
726.3149999999997
 21
-698.2810000000006
 31
0.0
  0
LINE
  5
10F
330
17
100
AcDbEntity
  8
0
100
AcDbLine
 10
726.3149999999997
 20
-698.2810000000006
 30
0.0
 11
472.3129999999997
 21
-698.1780000000007
 31
0.0
  0
ENDSEC
  0
SECTION
  2
OBJECTS
  0
DICTIONARY
  5
A
330
0
100
AcDbDictionary
281
1
  3
ACAD_COLOR
350
B
  3
ACAD_GROUP
350
C
  3
ACAD_LAYOUT
350
D
  3
ACAD_MATERIAL
350
E
  3
ACAD_MLEADERSTYLE
350
F
  3
ACAD_MLINESTYLE
350
10
  3
ACAD_PLOTSETTINGS
350
11
  3
ACAD_PLOTSTYLENAME
350
12
  3
ACAD_SCALELIST
350
14
  3
ACAD_TABLESTYLE
350
15
  3
ACAD_VISUALSTYLE
350
16
  3
EZDXF_META
350
2D
  0
DICTIONARY
  5
B
330
A
100
AcDbDictionary
281
1
  0
DICTIONARY
  5
C
330
A
100
AcDbDictionary
281
1
  0
DICTIONARY
  5
D
330
A
100
AcDbDictionary
281
1
  3
Model
350
1A
  3
Layout1
350
1E
  0
DICTIONARY
  5
E
330
A
100
AcDbDictionary
281
1
  3
ByBlock
350
1F
  3
ByLayer
350
20
  3
Global
350
21
  0
DICTIONARY
  5
F
330
A
100
AcDbDictionary
281
1
  3
Standard
350
2C
  0
DICTIONARY
  5
10
330
A
100
AcDbDictionary
281
1
  3
Standard
350
22
  0
DICTIONARY
  5
11
330
A
100
AcDbDictionary
281
1
  0
ACDBDICTIONARYWDFLT
  5
12
330
A
100
AcDbDictionary
281
1
  3
Normal
350
13
100
AcDbDictionaryWithDefault
340
13
  0
ACDBPLACEHOLDER
  5
13
330
12
  0
DICTIONARY
  5
14
330
A
100
AcDbDictionary
281
1
  0
DICTIONARY
  5
15
330
A
100
AcDbDictionary
281
1
  0
DICTIONARY
  5
16
330
A
100
AcDbDictionary
281
1
  0
LAYOUT
  5
1A
330
D
100
AcDbPlotSettings
  1

  4
A3
  6

 40
7.5
 41
20.0
 42
7.5
 43
20.0
 44
420.0
 45
297.0
 46
0.0
 47
0.0
 48
0.0
 49
0.0
140
0.0
141
0.0
142
1.0
143
1.0
 70
1024
 72
1
 73
0
 74
5
  7

 75
16
 76
0
 77
2
 78
300
147
1.0
148
0.0
149
0.0
100
AcDbLayout
  1
Model
 70
1
 71
0
 10
0.0
 20
0.0
 11
420.0
 21
297.0
 12
0.0
 22
0.0
 32
0.0
 14
1e+20
 24
1e+20
 34
1e+20
 15
-1e+20
 25
-1e+20
 35
-1e+20
146
0.0
 13
0.0
 23
0.0
 33
0.0
 16
1.0
 26
0.0
 36
0.0
 17
0.0
 27
1.0
 37
0.0
 76
1
330
17
  0
LAYOUT
  5
1E
330
D
100
AcDbPlotSettings
  1

  4
A3
  6

 40
7.5
 41
20.0
 42
7.5
 43
20.0
 44
420.0
 45
297.0
 46
0.0
 47
0.0
 48
0.0
 49
0.0
140
0.0
141
0.0
142
1.0
143
1.0
 70
0
 72
1
 73
0
 74
5
  7

 75
16
 76
0
 77
2
 78
300
147
1.0
148
0.0
149
0.0
100
AcDbLayout
  1
Layout1
 70
1
 71
1
 10
0.0
 20
0.0
 11
420.0
 21
297.0
 12
0.0
 22
0.0
 32
0.0
 14
1e+20
 24
1e+20
 34
1e+20
 15
-1e+20
 25
-1e+20
 35
-1e+20
146
0.0
 13
0.0
 23
0.0
 33
0.0
 16
1.0
 26
0.0
 36
0.0
 17
0.0
 27
1.0
 37
0.0
 76
1
330
1B
  0
MATERIAL
  5
1F
102
{ACAD_REACTORS
330
E
102
}
330
E
100
AcDbMaterial
  1
ByBlock
  2

 70
0
 40
1.0
 71
1
 41
1.0
 91
-1023410177
 42
1.0
 72
1
  3

 73
1
 74
1
 75
1
 44
0.5
 73
0
 45
1.0
 46
1.0
 77
1
  4

 78
1
 79
1
170
1
 48
1.0
171
1
  6

172
1
173
1
174
1
140
1.0
141
1.0
175
1
  7

176
1
177
1
178
1
143
1.0
179
1
  8

270
1
271
1
272
1
145
1.0
146
1.0
273
1
  9

274
1
275
1
276
1
 42
1.0
 72
1
  3

 73
1
 74
1
 75
1
 94
63
  0
MATERIAL
  5
20
102
{ACAD_REACTORS
330
E
102
}
330
E
100
AcDbMaterial
  1
ByLayer
  2

 70
0
 40
1.0
 71
1
 41
1.0
 91
-1023410177
 42
1.0
 72
1
  3

 73
1
 74
1
 75
1
 44
0.5
 73
0
 45
1.0
 46
1.0
 77
1
  4

 78
1
 79
1
170
1
 48
1.0
171
1
  6

172
1
173
1
174
1
140
1.0
141
1.0
175
1
  7

176
1
177
1
178
1
143
1.0
179
1
  8

270
1
271
1
272
1
145
1.0
146
1.0
273
1
  9

274
1
275
1
276
1
 42
1.0
 72
1
  3

 73
1
 74
1
 75
1
 94
63
  0
MATERIAL
  5
21
102
{ACAD_REACTORS
330
E
102
}
330
E
100
AcDbMaterial
  1
Global
  2

 70
0
 40
1.0
 71
1
 41
1.0
 91
-1023410177
 42
1.0
 72
1
  3

 73
1
 74
1
 75
1
 44
0.5
 73
0
 45
1.0
 46
1.0
 77
1
  4

 78
1
 79
1
170
1
 48
1.0
171
1
  6

172
1
173
1
174
1
140
1.0
141
1.0
175
1
  7

176
1
177
1
178
1
143
1.0
179
1
  8

270
1
271
1
272
1
145
1.0
146
1.0
273
1
  9

274
1
275
1
276
1
 42
1.0
 72
1
  3

 73
1
 74
1
 75
1
 94
63
  0
MLINESTYLE
  5
22
102
{ACAD_REACTORS
330
10
102
}
330
10
100
AcDbMlineStyle
  2
Standard
 70
0
  3

 62
256
 51
90.0
 52
90.0
 71
2
 49
0.5
 62
256
  6
BYLAYER
 49
-0.5
 62
256
  6
BYLAYER
  0
MLEADERSTYLE
  5
2C
102
{ACAD_REACTORS
330
F
102
}
330
F
100
AcDbMLeaderStyle
179
2
170
2
171
1
172
0
 90
2
 40
0.0
 41
0.0
173
1
 91
-1056964608
 92
-2
290
1
 42
2.0
291
1
 43
8.0
  3
Standard
 44
4.0
300

342
29
174
1
175
1
176
0
178
1
 93
-1056964608
 45
4.0
292
0
297
0
 46
4.0
 94
-1056964608
 47
1.0
 49
1.0
140
1.0
294
1
141
0.0
177
0
142
1.0
295
0
296
0
143
3.75
271
0
272
9
273
9
  0
DICTIONARY
  5
2D
330
A
100
AcDbDictionary
280
1
281
1
  3
CREATED_BY_EZDXF
350
2E
  3
WRITTEN_BY_EZDXF
350
112
  0
DICTIONARYVAR
  5
2E
330
2D
100
DictionaryVariables
280
0
  1
1.4.3 @ 2026-04-08T00:10:10.997493+00:00
  0
DICTIONARYVAR
  5
112
330
2D
100
DictionaryVariables
280
0
  1
1.4.3 @ 2026-04-08T00:10:11.000011+00:00
  0
ENDSEC
  0
EOF
