  0
SECTION
  2
HEADER
  9
$ACADVER
  1
AC1024
  9
$ACADMAINTVER
 70
6
  9
$DWGCODEPAGE
  3
ANSI_1252
  9
$LASTSAVEDBY
  1
ezdxf
  9
$INSBASE
 10
0.0
 20
0.0
 30
0.0
  9
$EXTMIN
 10
1e+20
 20
1e+20
 30
1e+20
  9
$EXTMAX
 10
-1e+20
 20
-1e+20
 30
-1e+20
  9
$LIMMIN
 10
0.0
 20
0.0
  9
$LIMMAX
 10
420.0
 20
297.0
  9
$ORTHOMODE
 70
0
  9
$REGENMODE
 70
1
  9
$FILLMODE
 70
1
  9
$QTEXTMODE
 70
0
  9
$MIRRTEXT
 70
1
  9
$LTSCALE
 40
1.0
  9
$ATTMODE
 70
1
  9
$TEXTSIZE
 40
2.5
  9
$TRACEWID
 40
1.0
  9
$TEXTSTYLE
  7
Standard
  9
$CLAYER
  8
0
  9
$CELTYPE
  6
ByLayer
  9
$CECOLOR
 62
256
  9
$CELTSCALE
 40
1.0
  9
$DISPSILH
 70
0
  9
$DIMSCALE
 40
1.0
  9
$DIMASZ
 40
2.5
  9
$DIMEXO
 40
0.625
  9
$DIMDLI
 40
3.75
  9
$DIMRND
 40
0.0
  9
$DIMDLE
 40
0.0
  9
$DIMEXE
 40
1.25
  9
$DIMTP
 40
0.0
  9
$DIMTM
 40
0.0
  9
$DIMTXT
 40
2.5
  9
$DIMCEN
 40
2.5
  9
$DIMTSZ
 40
0.0
  9
$DIMTOL
 70
0
  9
$DIMLIM
 70
0
  9
$DIMTIH
 70
0
  9
$DIMTOH
 70
0
  9
$DIMSE1
 70
0
  9
$DIMSE2
 70
0
  9
$DIMTAD
 70
1
  9
$DIMZIN
 70
8
  9
$DIMBLK
  1

  9
$DIMASO
 70
1
  9
$DIMSHO
 70
1
  9
$DIMPOST
  1

  9
$DIMAPOST
  1

  9
$DIMALT
 70
0
  9
$DIMALTD
 70
3
  9
$DIMALTF
 40
0.03937007874
  9
$DIMLFAC
 40
1.0
  9
$DIMTOFL
 70
1
  9
$DIMTVP
 40
0.0
  9
$DIMTIX
 70
0
  9
$DIMSOXD
 70
0
  9
$DIMSAH
 70
0
  9
$DIMBLK1
  1

  9
$DIMBLK2
  1

  9
$DIMSTYLE
  2
ISO-25
  9
$DIMCLRD
 70
0
  9
$DIMCLRE
 70
0
  9
$DIMCLRT
 70
0
  9
$DIMTFAC
 40
1.0
  9
$DIMGAP
 40
0.625
  9
$DIMJUST
 70
0
  9
$DIMSD1
 70
0
  9
$DIMSD2
 70
0
  9
$DIMTOLJ
 70
0
  9
$DIMTZIN
 70
8
  9
$DIMALTZ
 70
0
  9
$DIMALTTZ
 70
0
  9
$DIMUPT
 70
0
  9
$DIMDEC
 70
2
  9
$DIMTDEC
 70
2
  9
$DIMALTU
 70
2
  9
$DIMALTTD
 70
3
  9
$DIMTXSTY
  7
Standard
  9
$DIMAUNIT
 70
0
  9
$DIMADEC
 70
0
  9
$DIMALTRND
 40
0.0
  9
$DIMAZIN
 70
0
  9
$DIMDSEP
 70
44
  9
$DIMATFIT
 70
3
  9
$DIMFRAC
 70
0
  9
$DIMLDRBLK
  1

  9
$DIMLUNIT
 70
2
  9
$DIMLWD
 70
-2
  9
$DIMLWE
 70
-2
  9
$DIMTMOVE
 70
0
  9
$DIMFXL
 40
1.0
  9
$DIMFXLON
 70
0
  9
$DIMJOGANG
 40
0.785398163397
  9
$DIMTFILL
 70
0
  9
$DIMTFILLCLR
 70
0
  9
$DIMARCSYM
 70
0
  9
$DIMLTYPE
  6

  9
$DIMLTEX1
  6

  9
$DIMLTEX2
  6

  9
$DIMTXTDIRECTION
 70
0
  9
$LUNITS
 70
2
  9
$LUPREC
 70
4
  9
$SKETCHINC
 40
1.0
  9
$FILLETRAD
 40
10.0
  9
$AUNITS
 70
0
  9
$AUPREC
 70
2
  9
$MENU
  1
.
  9
$ELEVATION
 40
0.0
  9
$PELEVATION
 40
0.0
  9
$THICKNESS
 40
0.0
  9
$LIMCHECK
 70
0
  9
$CHAMFERA
 40
0.0
  9
$CHAMFERB
 40
0.0
  9
$CHAMFERC
 40
0.0
  9
$CHAMFERD
 40
0.0
  9
$SKPOLY
 70
0
  9
$TDCREATE
 40
2461138.7154050926
  9
$TDUCREATE
 40
2458532.153996898
  9
$TDUPDATE
 40
2461138.7154050926
  9
$TDUUPDATE
 40
2458532.1544311
  9
$TDINDWG
 40
0.0
  9
$TDUSRTIMER
 40
0.0
  9
$USRTIMER
 70
1
  9
$ANGBASE
 50
0.0
  9
$ANGDIR
 70
0
  9
$PDMODE
 70
0
  9
$PDSIZE
 40
0.0
  9
$PLINEWID
 40
0.0
  9
$SPLFRAME
 70
0
  9
$SPLINETYPE
 70
6
  9
$SPLINESEGS
 70
8
  9
$HANDSEED
  5
175
  9
$SURFTAB1
 70
6
  9
$SURFTAB2
 70
6
  9
$SURFTYPE
 70
6
  9
$SURFU
 70
6
  9
$SURFV
 70
6
  9
$UCSBASE
  2

  9
$UCSNAME
  2

  9
$UCSORG
 10
0.0
 20
0.0
 30
0.0
  9
$UCSXDIR
 10
1.0
 20
0.0
 30
0.0
  9
$UCSYDIR
 10
0.0
 20
1.0
 30
0.0
  9
$UCSORTHOREF
  2

  9
$UCSORTHOVIEW
 70
0
  9
$UCSORGTOP
 10
0.0
 20
0.0
 30
0.0
  9
$UCSORGBOTTOM
 10
0.0
 20
0.0
 30
0.0
  9
$UCSORGLEFT
 10
0.0
 20
0.0
 30
0.0
  9
$UCSORGRIGHT
 10
0.0
 20
0.0
 30
0.0
  9
$UCSORGFRONT
 10
0.0
 20
0.0
 30
0.0
  9
$UCSORGBACK
 10
0.0
 20
0.0
 30
0.0
  9
$PUCSBASE
  2

  9
$PUCSNAME
  2

  9
$PUCSORG
 10
0.0
 20
0.0
 30
0.0
  9
$PUCSXDIR
 10
1.0
 20
0.0
 30
0.0
  9
$PUCSYDIR
 10
0.0
 20
1.0
 30
0.0
  9
$PUCSORTHOREF
  2

  9
$PUCSORTHOVIEW
 70
0
  9
$PUCSORGTOP
 10
0.0
 20
0.0
 30
0.0
  9
$PUCSORGBOTTOM
 10
0.0
 20
0.0
 30
0.0
  9
$PUCSORGLEFT
 10
0.0
 20
0.0
 30
0.0
  9
$PUCSORGRIGHT
 10
0.0
 20
0.0
 30
0.0
  9
$PUCSORGFRONT
 10
0.0
 20
0.0
 30
0.0
  9
$PUCSORGBACK
 10
0.0
 20
0.0
 30
0.0
  9
$USERI1
 70
0
  9
$USERI2
 70
0
  9
$USERI3
 70
0
  9
$USERI4
 70
0
  9
$USERI5
 70
0
  9
$USERR1
 40
0.0
  9
$USERR2
 40
0.0
  9
$USERR3
 40
0.0
  9
$USERR4
 40
0.0
  9
$USERR5
 40
0.0
  9
$WORLDVIEW
 70
1
  9
$SHADEDGE
 70
3
  9
$SHADEDIF
 70
70
  9
$TILEMODE
 70
1
  9
$MAXACTVP
 70
64
  9
$PINSBASE
 10
0.0
 20
0.0
 30
0.0
  9
$PLIMCHECK
 70
0
  9
$PEXTMIN
 10
1e+20
 20
1e+20
 30
1e+20
  9
$PEXTMAX
 10
-1e+20
 20
-1e+20
 30
-1e+20
  9
$PLIMMIN
 10
0.0
 20
0.0
  9
$PLIMMAX
 10
420.0
 20
297.0
  9
$UNITMODE
 70
0
  9
$VISRETAIN
 70
1
  9
$PLINEGEN
 70
0
  9
$PSLTSCALE
 70
1
  9
$TREEDEPTH
 70
3020
  9
$CMLSTYLE
  2
Standard
  9
$CMLJUST
 70
0
  9
$CMLSCALE
 40
20.0
  9
$PROXYGRAPHICS
 70
1
  9
$MEASUREMENT
 70
1
  9
$CELWEIGHT
370
-1
  9
$ENDCAPS
280
0
  9
$JOINSTYLE
280
0
  9
$LWDISPLAY
290
0
  9
$INSUNITS
 70
6
  9
$HYPERLINKBASE
  1

  9
$STYLESHEET
  1

  9
$XEDIT
290
1
  9
$CEPSNTYPE
380
0
  9
$PSTYLEMODE
290
1
  9
$FINGERPRINTGUID
  2
{10D9E2A8-8C4F-4A8F-AE63-23024936BF01}
  9
$VERSIONGUID
  2
{09647446-F49C-4EFE-B3EE-75412B346BCC}
  9
$EXTNAMES
290
1
  9
$PSVPSCALE
 40
0.0
  9
$OLESTARTUP
290
0
  9
$SORTENTS
280
127
  9
$INDEXCTL
280
0
  9
$HIDETEXT
280
1
  9
$XCLIPFRAME
280
1
  9
$HALOGAP
280
0
  9
$OBSCOLOR
 70
257
  9
$OBSLTYPE
280
0
  9
$INTERSECTIONDISPLAY
280
0
  9
$INTERSECTIONCOLOR
 70
257
  9
$DIMASSOC
280
2
  9
$PROJECTNAME
  1

  9
$CAMERADISPLAY
290
0
  9
$LENSLENGTH
 40
50.0
  9
$CAMERAHEIGHT
 40
0.0
  9
$STEPSPERSEC
 40
24.0
  9
$STEPSIZE
 40
100.0
  9
$3DDWFPREC
 40
2.0
  9
$PSOLWIDTH
 40
0.005
  9
$PSOLHEIGHT
 40
0.08
  9
$LOFTANG1
 40
1.570796326795
  9
$LOFTANG2
 40
1.570796326795
  9
$LOFTMAG1
 40
0.0
  9
$LOFTMAG2
 40
0.0
  9
$LOFTPARAM
 70
7
  9
$LOFTNORMALS
280
1
  9
$LATITUDE
 40
37.795
  9
$LONGITUDE
 40
-122.394
  9
$NORTHDIRECTION
 40
0.0
  9
$TIMEZONE
 70
-8000
  9
$LIGHTGLYPHDISPLAY
280
1
  9
$TILEMODELIGHTSYNCH
280
1
  9
$CMATERIAL
347
20
  9
$SOLIDHIST
280
0
  9
$SHOWHIST
280
1
  9
$DWFFRAME
280
2
  9
$DGNFRAME
280
2
  9
$REALWORLDSCALE
290
1
  9
$INTERFERECOLOR
 62
256
  9
$CSHADOW
280
0
  9
$SHADOWPLANELOCATION
 40
0.0
  0
ENDSEC
  0
SECTION
  2
CLASSES
  0
CLASS
  1
ACDBDICTIONARYWDFLT
  2
AcDbDictionaryWithDefault
  3
ObjectDBX Classes
 90
0
 91
0
280
0
281
0
  0
CLASS
  1
SUN
  2
AcDbSun
  3
SCENEOE
 90
1153
 91
0
280
0
281
0
  0
CLASS
  1
VISUALSTYLE
  2
AcDbVisualStyle
  3
ObjectDBX Classes
 90
4095
 91
0
280
0
281
0
  0
CLASS
  1
MATERIAL
  2
AcDbMaterial
  3
ObjectDBX Classes
 90
1153
 91
0
280
0
281
0
  0
CLASS
  1
SCALE
  2
AcDbScale
  3
ObjectDBX Classes
 90
1153
 91
0
280
0
281
0
  0
CLASS
  1
TABLESTYLE
  2
AcDbTableStyle
  3
ObjectDBX Classes
 90
4095
 91
0
280
0
281
0
  0
CLASS
  1
MLEADERSTYLE
  2
AcDbMLeaderStyle
  3
ACDB_MLEADERSTYLE_CLASS
 90
4095
 91
0
280
0
281
0
  0
CLASS
  1
DICTIONARYVAR
  2
AcDbDictionaryVar
  3
ObjectDBX Classes
 90
0
 91
0
280
0
281
0
  0
CLASS
  1
CELLSTYLEMAP
  2
AcDbCellStyleMap
  3
ObjectDBX Classes
 90
1152
 91
0
280
0
281
0
  0
CLASS
  1
MENTALRAYRENDERSETTINGS
  2
AcDbMentalRayRenderSettings
  3
SCENEOE
 90
1024
 91
0
280
0
281
0
  0
CLASS
  1
ACDBDETAILVIEWSTYLE
  2
AcDbDetailViewStyle
  3
ObjectDBX Classes
 90
1025
 91
0
280
0
281
0
  0
CLASS
  1
ACDBSECTIONVIEWSTYLE
  2
AcDbSectionViewStyle
  3
ObjectDBX Classes
 90
1025
 91
0
280
0
281
0
  0
CLASS
  1
RASTERVARIABLES
  2
AcDbRasterVariables
  3
ISM
 90
0
 91
0
280
0
281
0
  0
CLASS
  1
ACDBPLACEHOLDER
  2
AcDbPlaceHolder
  3
ObjectDBX Classes
 90
0
 91
0
280
0
281
0
  0
CLASS
  1
LAYOUT
  2
AcDbLayout
  3
ObjectDBX Classes
 90
0
 91
0
280
0
281
0
  0
ENDSEC
  0
SECTION
  2
TABLES
  0
TABLE
  2
VPORT
  5
8
330
0
100
AcDbSymbolTable
 70
1
  0
VPORT
  5
23
330
8
100
AcDbSymbolTableRecord
100
AcDbViewportTableRecord
  2
*Active
 70
0
 10
0.0
 20
0.0
 11
1.0
 21
1.0
 12
0.0
 22
0.0
 13
0.0
 23
0.0
 14
0.5
 24
0.5
 15
0.5
 25
0.5
 16
0.0
 26
0.0
 36
1.0
 17
0.0
 27
0.0
 37
0.0
 40
1000.0
 41
1.34
 42
50.0
 43
0.0
 44
0.0
 50
0.0
 51
0.0
 71
0
 72
1000
 73
1
 74
3
 75
0
 76
0
 77
0
 78
0
281
0
 65
0
146
0.0
  0
ENDTAB
  0
TABLE
  2
LTYPE
  5
2
330
0
100
AcDbSymbolTable
 70
3
  0
LTYPE
  5
24
330
2
100
AcDbSymbolTableRecord
100
AcDbLinetypeTableRecord
  2
ByBlock
 70
0
  3

 72
65
 73
0
 40
0.0
  0
LTYPE
  5
25
330
2
100
AcDbSymbolTableRecord
100
AcDbLinetypeTableRecord
  2
ByLayer
 70
0
  3

 72
65
 73
0
 40
0.0
  0
LTYPE
  5
26
330
2
100
AcDbSymbolTableRecord
100
AcDbLinetypeTableRecord
  2
Continuous
 70
0
  3

 72
65
 73
0
 40
0.0
  0
ENDTAB
  0
TABLE
  2
LAYER
  5
1
330
0
100
AcDbSymbolTable
 70
2
  0
LAYER
  5
27
330
1
100
AcDbSymbolTableRecord
100
AcDbLayerTableRecord
  2
0
 70
0
 62
7
  6
Continuous
370
-3
390
13
347
21
  0
LAYER
  5
28
330
1
100
AcDbSymbolTableRecord
100
AcDbLayerTableRecord
  2
Defpoints
 70
0
 62
7
  6
Continuous
290
0
370
-3
390
13
347
21
  0
ENDTAB
  0
TABLE
  2
STYLE
  5
5
330
0
100
AcDbSymbolTable
 70
1
  0
STYLE
  5
29
330
5
100
AcDbSymbolTableRecord
100
AcDbTextStyleTableRecord
  2
Standard
 70
0
 40
0.0
 41
1.0
 50
0.0
 71
0
 42
2.5
  3
txt
  4

  0
ENDTAB
  0
TABLE
  2
VIEW
  5
7
330
0
100
AcDbSymbolTable
 70
0
  0
ENDTAB
  0
TABLE
  2
UCS
  5
6
330
0
100
AcDbSymbolTable
 70
0
  0
ENDTAB
  0
TABLE
  2
APPID
  5
3
330
0
100
AcDbSymbolTable
 70
3
  0
APPID
  5
2A
330
3
100
AcDbSymbolTableRecord
100
AcDbRegAppTableRecord
  2
ACAD
 70
0
  0
APPID
  5
172
330
3
100
AcDbSymbolTableRecord
100
AcDbRegAppTableRecord
  2
HATCHBACKGROUNDCOLOR
 70
0
  0
APPID
  5
173
330
3
100
AcDbSymbolTableRecord
100
AcDbRegAppTableRecord
  2
EZDXF
 70
0
  0
ENDTAB
  0
TABLE
  2
DIMSTYLE
  5
4
330
0
100
AcDbSymbolTable
 70
1
100
AcDbDimStyleTable
  0
DIMSTYLE
105
2B
330
4
100
AcDbSymbolTableRecord
100
AcDbDimStyleTableRecord
  2
Standard
 70
0
 40
1.0
 41
2.5
 42
0.625
 43
3.75
 44
1.25
 45
0.0
 46
0.0
 47
0.0
 48
0.0
 49
2.5
140
2.5
141
2.5
142
0.0
143
0.03937007874
144
1.0
145
0.0
146
1.0
147
0.625
148
0.0
 69
0
 70
0
 71
0
 72
0
 73
0
 74
0
 75
0
 76
0
 77
1
 78
8
 79
3
170
0
171
3
172
1
173
0
174
0
175
0
176
0
177
0
178
0
179
2
271
2
272
2
273
2
274
3
275
0
276
0
277
2
278
44
279
0
280
0
281
0
282
0
283
0
284
8
285
0
286
0
288
0
289
3
290
0
371
-2
372
-2
  0
ENDTAB
  0
TABLE
  2
BLOCK_RECORD
  5
9
330
0
100
AcDbSymbolTable
 70
2
  0
BLOCK_RECORD
  5
17
330
9
100
AcDbSymbolTableRecord
100
AcDbBlockTableRecord
  2
*Model_Space
340
1A
 70
0
280
1
281
0
  0
BLOCK_RECORD
  5
1B
330
9
100
AcDbSymbolTableRecord
100
AcDbBlockTableRecord
  2
*Paper_Space
340
1E
 70
0
280
1
281
0
  0
ENDTAB
  0
ENDSEC
  0
SECTION
  2
BLOCKS
  0
BLOCK
  5
18
330
17
100
AcDbEntity
  8
0
100
AcDbBlockBegin
  2
*Model_Space
 70
0
 10
0.0
 20
0.0
 30
0.0
  3
*Model_Space
  1

  0
ENDBLK
  5
19
330
17
100
AcDbEntity
  8
0
100
AcDbBlockEnd
  0
BLOCK
  5
1C
330
1B
100
AcDbEntity
  8
0
100
AcDbBlockBegin
  2
*Paper_Space
 70
0
 10
0.0
 20
0.0
 30
0.0
  3
*Paper_Space
  1

  0
ENDBLK
  5
1D
330
1B
100
AcDbEntity
  8
0
100
AcDbBlockEnd
  0
ENDSEC
  0
SECTION
  2
ENTITIES
  0
LINE
  5
2F
330
17
100
AcDbEntity
  8
0
100
AcDbLine
 10
-78.713
 20
346.427
 30
0.0
 11
-79.28099999999999
 21
346.396
 31
0.0
  0
LINE
  5
30
330
17
100
AcDbEntity
  8
0
100
AcDbLine
 10
-79.28099999999999
 20
346.396
 30
0.0
 11
-79.83
 21
346.30600000000004
 31
0.0
  0
LINE
  5
31
330
17
100
AcDbEntity
  8
0
100
AcDbLine
 10
-79.83
 20
346.30600000000004
 30
0.0
 11
-80.356
 21
346.15900000000005
 31
0.0
  0
LINE
  5
32
330
17
100
AcDbEntity
  8
0
100
AcDbLine
 10
-80.356
 20
346.15900000000005
 30
0.0
 11
-80.857
 21
345.96000000000004
 31
0.0
  0
LINE
  5
33
330
17
100
AcDbEntity
  8
0
100
AcDbLine
 10
-80.857
 20
345.96000000000004
 30
0.0
 11
-81.33
 21
345.711
 31
0.0
  0
LINE
  5
34
330
17
100
AcDbEntity
  8
0
100
AcDbLine
 10
-81.33
 20
345.711
 30
0.0
 11
-81.77199999999999
 21
345.416
 31
0.0
  0
LINE
  5
35
330
17
100
AcDbEntity
  8
0
100
AcDbLine
 10
-81.77199999999999
 20
345.416
 30
0.0
 11
-82.17899999999999
 21
345.079
 31
0.0
  0
LINE
  5
36
330
17
100
AcDbEntity
  8
0
100
AcDbLine
 10
-82.17899999999999
 20
345.079
 30
0.0
 11
-82.54899999999999
 21
344.70300000000003
 31
0.0
  0
LINE
  5
37
330
17
100
AcDbEntity
  8
0
100
AcDbLine
 10
-82.54899999999999
 20
344.70300000000003
 30
0.0
 11
-82.87899999999999
 21
344.29100000000005
 31
0.0
  0
LINE
  5
38
330
17
100
AcDbEntity
  8
0
100
AcDbLine
 10
-82.87899999999999
 20
344.29100000000005
 30
0.0
 11
-83.166
 21
343.84700000000004
 31
0.0
  0
LINE
  5
39
330
17
100
AcDbEntity
  8
0
100
AcDbLine
 10
-83.166
 20
343.84700000000004
 30
0.0
 11
-83.40599999999999
 21
343.374
 31
0.0
  0
LINE
  5
3A
330
17
100
AcDbEntity
  8
0
100
AcDbLine
 10
-83.40599999999999
 20
343.374
 30
0.0
 11
-83.597
 21
342.875
 31
0.0
  0
LINE
  5
3B
330
17
100
AcDbEntity
  8
0
100
AcDbLine
 10
-83.597
 20
342.875
 30
0.0
 11
-83.73599999999999
 21
342.354
 31
0.0
  0
LINE
  5
3C
330
17
100
AcDbEntity
  8
0
100
AcDbLine
 10
-83.73599999999999
 20
342.354
 30
0.0
 11
-83.81899999999999
 21
341.81399999999996
 31
0.0
  0
LINE
  5
3D
330
17
100
AcDbEntity
  8
0
100
AcDbLine
 10
-83.81899999999999
 20
341.81399999999996
 30
0.0
 11
-83.844
 21
341.25899999999996
 31
0.0
  0
LINE
  5
3E
330
17
100
AcDbEntity
  8
0
100
AcDbLine
 10
-83.844
 20
341.25899999999996
 30
0.0
 11
-81.72399999999999
 21
323.448
 31
0.0
  0
LINE
  5
3F
330
17
100
AcDbEntity
  8
0
100
AcDbLine
 10
-81.72399999999999
 20
323.448
 30
0.0
 11
-81.56299999999999
 21
322.839
 31
0.0
  0
LINE
  5
40
330
17
100
AcDbEntity
  8
0
100
AcDbLine
 10
-81.56299999999999
 20
322.839
 30
0.0
 11
-81.34899999999999
 21
322.255
 31
0.0
  0
LINE
  5
41
330
17
100
AcDbEntity
  8
0
100
AcDbLine
 10
-81.34899999999999
 20
322.255
 30
0.0
 11
-81.085
 21
321.698
 31
0.0
  0
LINE
  5
42
330
17
100
AcDbEntity
  8
0
100
AcDbLine
 10
-81.085
 20
321.698
 30
0.0
 11
-80.77399999999999
 21
321.171
 31
0.0
  0
LINE
  5
43
330
17
100
AcDbEntity
  8
0
100
AcDbLine
 10
-80.77399999999999
 20
321.171
 30
0.0
 11
-80.41899999999998
 21
320.67699999999996
 31
0.0
  0
LINE
  5
44
330
17
100
AcDbEntity
  8
0
100
AcDbLine
 10
-80.41899999999998
 20
320.67699999999996
 30
0.0
 11
-80.02299999999998
 21
320.21799999999996
 31
0.0
  0
LINE
  5
45
330
17
100
AcDbEntity
  8
0
100
AcDbLine
 10
-80.02299999999998
 20
320.21799999999996
 30
0.0
 11
-79.58799999999998
 21
319.79599999999994
 31
0.0
  0
LINE
  5
46
330
17
100
AcDbEntity
  8
0
100
AcDbLine
 10
-79.58799999999998
 20
319.79599999999994
 30
0.0
 11
-79.11799999999998
 21
319.41399999999993
 31
0.0
  0
LINE
  5
47
330
17
100
AcDbEntity
  8
0
100
AcDbLine
 10
-79.11799999999998
 20
319.41399999999993
 30
0.0
 11
-78.61499999999998
 21
319.07499999999993
 31
0.0
  0
LINE
  5
48
330
17
100
AcDbEntity
  8
0
100
AcDbLine
 10
-78.61499999999998
 20
319.07499999999993
 30
0.0
 11
-78.08199999999998
 21
318.78099999999995
 31
0.0
  0
LINE
  5
49
330
17
100
AcDbEntity
  8
0
100
AcDbLine
 10
-78.08199999999998
 20
318.78099999999995
 30
0.0
 11
-77.52199999999998
 21
318.53499999999997
 31
0.0
  0
LINE
  5
4A
330
17
100
AcDbEntity
  8
0
100
AcDbLine
 10
-77.52199999999998
 20
318.53499999999997
 30
0.0
 11
-76.93799999999997
 21
318.33899999999994
 31
0.0
  0
LINE
  5
4B
330
17
100
AcDbEntity
  8
0
100
AcDbLine
 10
-76.93799999999997
 20
318.33899999999994
 30
0.0
 11
-76.33299999999997
 21
318.19599999999997
 31
0.0
  0
LINE
  5
4C
330
17
100
AcDbEntity
  8
0
100
AcDbLine
 10
-76.33299999999997
 20
318.19599999999997
 30
0.0
 11
-75.70899999999997
 21
318.10799999999995
 31
0.0
  0
LINE
  5
4D
330
17
100
AcDbEntity
  8
0
100
AcDbLine
 10
-75.70899999999997
 20
318.10799999999995
 30
0.0
 11
21.33700000000003
 21
318.078
 31
0.0
  0
LINE
  5
4E
330
17
100
AcDbEntity
  8
0
100
AcDbLine
 10
21.33700000000003
 20
318.078
 30
0.0
 11
20.195000000000032
 21
319.96099999999996
 31
0.0
  0
LINE
  5
4F
330
17
100
AcDbEntity
  8
0
100
AcDbLine
 10
20.195000000000032
 20
319.96099999999996
 30
0.0
 11
17.48700000000003
 21
325.54499999999996
 31
0.0
  0
LINE
  5
50
330
17
100
AcDbEntity
  8
0
100
AcDbLine
 10
17.48700000000003
 20
325.54499999999996
 30
0.0
 11
14.29200000000003
 21
334.73299999999995
 31
0.0
  0
LINE
  5
51
330
17
100
AcDbEntity
  8
0
100
AcDbLine
 10
14.29200000000003
 20
334.73299999999995
 30
0.0
 11
11.68900000000003
 21
347.42699999999996
 31
0.0
  0
LINE
  5
52
330
17
100
AcDbEntity
  8
0
100
AcDbLine
 10
11.68900000000003
 20
347.42699999999996
 30
0.0
 11
-78.71099999999997
 21
346.42699999999996
 31
0.0
  0
LINE
  5
53
330
17
100
AcDbEntity
  8
0
100
AcDbLine
 10
224.95800000000003
 20
426.74399999999997
 30
0.0
 11
-225.534
 21
421.799
 31
0.0
  0
LINE
  5
54
330
17
100
AcDbEntity
  8
0
100
AcDbLine
 10
-225.534
 20
421.799
 30
0.0
 11
-226.22199999999998
 21
421.68699999999995
 31
0.0
  0
LINE
  5
55
330
17
100
AcDbEntity
  8
0
100
AcDbLine
 10
-226.22199999999998
 20
421.68699999999995
 30
0.0
 11
-226.885
 21
421.50999999999993
 31
0.0
  0
LINE
  5
56
330
17
100
AcDbEntity
  8
0
100
AcDbLine
 10
-226.885
 20
421.50999999999993
 30
0.0
 11
-227.521
 21
421.27099999999996
 31
0.0
  0
LINE
  5
57
330
17
100
AcDbEntity
  8
0
100
AcDbLine
 10
-227.521
 20
421.27099999999996
 30
0.0
 11
-228.125
 21
420.97399999999993
 31
0.0
  0
LINE
  5
58
330
17
100
AcDbEntity
  8
0
100
AcDbLine
 10
-228.125
 20
420.97399999999993
 30
0.0
 11
-228.695
 21
420.62199999999996
 31
0.0
  0
LINE
  5
59
330
17
100
AcDbEntity
  8
0
100
AcDbLine
 10
-228.695
 20
420.62199999999996
 30
0.0
 11
-229.227
 21
420.21899999999994
 31
0.0
  0
LINE
  5
5A
330
17
100
AcDbEntity
  8
0
100
AcDbLine
 10
-229.227
 20
420.21899999999994
 30
0.0
 11
-229.717
 21
419.7679999999999
 31
0.0
  0
LINE
  5
5B
330
17
100
AcDbEntity
  8
0
100
AcDbLine
 10
-229.717
 20
419.7679999999999
 30
0.0
 11
-230.162
 21
419.2729999999999
 31
0.0
  0
LINE
  5
5C
330
17
100
AcDbEntity
  8
0
100
AcDbLine
 10
-230.162
 20
419.2729999999999
 30
0.0
 11
-230.559
 21
418.7369999999999
 31
0.0
  0
LINE
  5
5D
330
17
100
AcDbEntity
  8
0
100
AcDbLine
 10
-230.559
 20
418.7369999999999
 30
0.0
 11
-230.904
 21
418.1629999999999
 31
0.0
  0
LINE
  5
5E
330
17
100
AcDbEntity
  8
0
100
AcDbLine
 10
-230.904
 20
418.1629999999999
 30
0.0
 11
-231.194
 21
417.5549999999999
 31
0.0
  0
LINE
  5
5F
330
17
100
AcDbEntity
  8
0
100
AcDbLine
 10
-231.194
 20
417.5549999999999
 30
0.0
 11
-231.426
 21
416.9169999999999
 31
0.0
  0
LINE
  5
60
330
17
100
AcDbEntity
  8
0
100
AcDbLine
 10
-231.426
 20
416.9169999999999
 30
0.0
 11
-231.59599999999998
 21
416.2519999999999
 31
0.0
  0
LINE
  5
61
330
17
100
AcDbEntity
  8
0
100
AcDbLine
 10
-231.59599999999998
 20
416.2519999999999
 30
0.0
 11
-231.7
 21
415.5629999999999
 31
0.0
  0
LINE
  5
62
330
17
100
AcDbEntity
  8
0
100
AcDbLine
 10
-231.7
 20
415.5629999999999
 30
0.0
 11
-231.736
 21
356.9089999999999
 31
0.0
  0
LINE
  5
63
330
17
100
AcDbEntity
  8
0
100
AcDbLine
 10
-231.736
 20
356.9089999999999
 30
0.0
 11
-33.85299999999998
 21
358.5989999999999
 31
0.0
  0
LINE
  5
64
330
17
100
AcDbEntity
  8
0
100
AcDbLine
 10
-33.85299999999998
 20
358.5989999999999
 30
0.0
 11
6.411000000000023
 21
363.16899999999987
 31
0.0
  0
LINE
  5
65
330
17
100
AcDbEntity
  8
0
100
AcDbLine
 10
6.411000000000023
 20
363.16899999999987
 30
0.0
 11
44.300000000000026
 21
363.51599999999985
 31
0.0
  0
LINE
  5
66
330
17
100
AcDbEntity
  8
0
100
AcDbLine
 10
44.300000000000026
 20
363.51599999999985
 30
0.0
 11
44.32600000000003
 21
363.00899999999984
 31
0.0
  0
LINE
  5
67
330
17
100
AcDbEntity
  8
0
100
AcDbLine
 10
44.32600000000003
 20
363.00899999999984
 30
0.0
 11
44.40200000000003
 21
362.5169999999998
 31
0.0
  0
LINE
  5
68
330
17
100
AcDbEntity
  8
0
100
AcDbLine
 10
44.40200000000003
 20
362.5169999999998
 30
0.0
 11
44.52600000000003
 21
362.0419999999998
 31
0.0
  0
LINE
  5
69
330
17
100
AcDbEntity
  8
0
100
AcDbLine
 10
44.52600000000003
 20
362.0419999999998
 30
0.0
 11
44.69500000000003
 21
361.5869999999998
 31
0.0
  0
LINE
  5
6A
330
17
100
AcDbEntity
  8
0
100
AcDbLine
 10
44.69500000000003
 20
361.5869999999998
 30
0.0
 11
44.90600000000003
 21
361.1549999999998
 31
0.0
  0
LINE
  5
6B
330
17
100
AcDbEntity
  8
0
100
AcDbLine
 10
44.90600000000003
 20
361.1549999999998
 30
0.0
 11
45.157000000000025
 21
360.7479999999998
 31
0.0
  0
LINE
  5
6C
330
17
100
AcDbEntity
  8
0
100
AcDbLine
 10
45.157000000000025
 20
360.7479999999998
 30
0.0
 11
45.44500000000002
 21
360.3689999999998
 31
0.0
  0
LINE
  5
6D
330
17
100
AcDbEntity
  8
0
100
AcDbLine
 10
45.44500000000002
 20
360.3689999999998
 30
0.0
 11
45.76800000000002
 21
360.0199999999998
 31
0.0
  0
LINE
  5
6E
330
17
100
AcDbEntity
  8
0
100
AcDbLine
 10
45.76800000000002
 20
360.0199999999998
 30
0.0
 11
46.12300000000002
 21
359.70399999999984
 31
0.0
  0
LINE
  5
6F
330
17
100
AcDbEntity
  8
0
100
AcDbLine
 10
46.12300000000002
 20
359.70399999999984
 30
0.0
 11
46.50800000000002
 21
359.42299999999983
 31
0.0
  0
LINE
  5
70
330
17
100
AcDbEntity
  8
0
100
AcDbLine
 10
46.50800000000002
 20
359.42299999999983
 30
0.0
 11
46.920000000000016
 21
359.17999999999984
 31
0.0
  0
LINE
  5
71
330
17
100
AcDbEntity
  8
0
100
AcDbLine
 10
46.920000000000016
 20
359.17999999999984
 30
0.0
 11
47.356000000000016
 21
358.97799999999984
 31
0.0
  0
LINE
  5
72
330
17
100
AcDbEntity
  8
0
100
AcDbLine
 10
47.356000000000016
 20
358.97799999999984
 30
0.0
 11
47.814000000000014
 21
358.81899999999985
 31
0.0
  0
LINE
  5
73
330
17
100
AcDbEntity
  8
0
100
AcDbLine
 10
47.814000000000014
 20
358.81899999999985
 30
0.0
 11
48.29100000000001
 21
358.70499999999987
 31
0.0
  0
LINE
  5
74
330
17
100
AcDbEntity
  8
0
100
AcDbLine
 10
48.29100000000001
 20
358.70499999999987
 30
0.0
 11
48.78500000000001
 21
358.6389999999999
 31
0.0
  0
LINE
  5
75
330
17
100
AcDbEntity
  8
0
100
AcDbLine
 10
48.78500000000001
 20
358.6389999999999
 30
0.0
 11
226.18400000000003
 21
360.2519999999999
 31
0.0
  0
LINE
  5
76
330
17
100
AcDbEntity
  8
0
100
AcDbLine
 10
226.18400000000003
 20
360.2519999999999
 30
0.0
 11
224.95900000000003
 21
426.7449999999999
 31
0.0
  0
LINE
  5
77
330
17
100
AcDbEntity
  8
0
100
AcDbLine
 10
378.129
 20
363.5159999999999
 30
0.0
 11
377.817
 21
422.1869999999999
 31
0.0
  0
LINE
  5
78
330
17
100
AcDbEntity
  8
0
100
AcDbLine
 10
377.817
 20
422.1869999999999
 30
0.0
 11
377.709
 21
422.8699999999999
 31
0.0
  0
LINE
  5
79
330
17
100
AcDbEntity
  8
0
100
AcDbLine
 10
377.709
 20
422.8699999999999
 30
0.0
 11
377.536
 21
423.5279999999999
 31
0.0
  0
LINE
  5
7A
330
17
100
AcDbEntity
  8
0
100
AcDbLine
 10
377.536
 20
423.5279999999999
 30
0.0
 11
377.301
 21
424.1589999999999
 31
0.0
  0
LINE
  5
7B
330
17
100
AcDbEntity
  8
0
100
AcDbLine
 10
377.301
 20
424.1589999999999
 30
0.0
 11
377.007
 21
424.7589999999999
 31
0.0
  0
LINE
  5
7C
330
17
100
AcDbEntity
  8
0
100
AcDbLine
 10
377.007
 20
424.7589999999999
 30
0.0
 11
376.659
 21
425.3239999999999
 31
0.0
  0
LINE
  5
7D
330
17
100
AcDbEntity
  8
0
100
AcDbLine
 10
376.659
 20
425.3239999999999
 30
0.0
 11
376.259
 21
425.8509999999999
 31
0.0
  0
LINE
  5
7E
330
17
100
AcDbEntity
  8
0
100
AcDbLine
 10
376.259
 20
425.8509999999999
 30
0.0
 11
375.81100000000004
 21
426.3359999999999
 31
0.0
  0
LINE
  5
7F
330
17
100
AcDbEntity
  8
0
100
AcDbLine
 10
375.81100000000004
 20
426.3359999999999
 30
0.0
 11
375.319
 21
426.7759999999999
 31
0.0
  0
LINE
  5
80
330
17
100
AcDbEntity
  8
0
100
AcDbLine
 10
375.319
 20
426.7759999999999
 30
0.0
 11
374.786
 21
427.1679999999999
 31
0.0
  0
LINE
  5
81
330
17
100
AcDbEntity
  8
0
100
AcDbLine
 10
374.786
 20
427.1679999999999
 30
0.0
 11
374.216
 21
427.50799999999987
 31
0.0
  0
LINE
  5
82
330
17
100
AcDbEntity
  8
0
100
AcDbLine
 10
374.216
 20
427.50799999999987
 30
0.0
 11
373.612
 21
427.79199999999986
 31
0.0
  0
LINE
  5
83
330
17
100
AcDbEntity
  8
0
100
AcDbLine
 10
373.612
 20
427.79199999999986
 30
0.0
 11
372.978
 21
428.01799999999986
 31
0.0
  0
LINE
  5
84
330
17
100
AcDbEntity
  8
0
100
AcDbLine
 10
372.978
 20
428.01799999999986
 30
0.0
 11
372.317
 21
428.18099999999987
 31
0.0
  0
LINE
  5
85
330
17
100
AcDbEntity
  8
0
100
AcDbLine
 10
372.317
 20
428.18099999999987
 30
0.0
 11
371.633
 21
428.27799999999985
 31
0.0
  0
LINE
  5
86
330
17
100
AcDbEntity
  8
0
100
AcDbLine
 10
371.633
 20
428.27799999999985
 30
0.0
 11
347.755
 21
428.06199999999984
 31
0.0
  0
LINE
  5
87
330
17
100
AcDbEntity
  8
0
100
AcDbLine
 10
347.755
 20
428.06199999999984
 30
0.0
 11
347.988
 21
363.09199999999987
 31
0.0
  0
LINE
  5
88
330
17
100
AcDbEntity
  8
0
100
AcDbLine
 10
347.988
 20
363.09199999999987
 30
0.0
 11
378.129
 21
363.5169999999999
 31
0.0
  0
LINE
  5
89
330
17
100
AcDbEntity
  8
0
100
AcDbLine
 10
388.457
 20
67.6269999999999
 30
0.0
 11
387.295
 21
76.8439999999999
 31
0.0
  0
LINE
  5
8A
330
17
100
AcDbEntity
  8
0
100
AcDbLine
 10
387.295
 20
76.8439999999999
 30
0.0
 11
384.99600000000004
 21
86.2849999999999
 31
0.0
  0
LINE
  5
8B
330
17
100
AcDbEntity
  8
0
100
AcDbLine
 10
384.99600000000004
 20
86.2849999999999
 30
0.0
 11
377.86
 21
105.3029999999999
 31
0.0
  0
LINE
  5
8C
330
17
100
AcDbEntity
  8
0
100
AcDbLine
 10
377.86
 20
105.3029999999999
 30
0.0
 11
313.281
 21
229.6569999999999
 31
0.0
  0
LINE
  5
8D
330
17
100
AcDbEntity
  8
0
100
AcDbLine
 10
313.281
 20
229.6569999999999
 30
0.0
 11
306.93
 21
247.8719999999999
 31
0.0
  0
LINE
  5
8E
330
17
100
AcDbEntity
  8
0
100
AcDbLine
 10
306.93
 20
247.8719999999999
 30
0.0
 11
304.685
 21
257.2069999999999
 31
0.0
  0
LINE
  5
8F
330
17
100
AcDbEntity
  8
0
100
AcDbLine
 10
304.685
 20
257.2069999999999
 30
0.0
 11
303.226
 21
266.6709999999999
 31
0.0
  0
LINE
  5
90
330
17
100
AcDbEntity
  8
0
100
AcDbLine
 10
303.226
 20
266.6709999999999
 30
0.0
 11
302.676
 21
276.24599999999987
 31
0.0
  0
LINE
  5
91
330
17
100
AcDbEntity
  8
0
100
AcDbLine
 10
302.676
 20
276.24599999999987
 30
0.0
 11
303.159
 21
285.9139999999999
 31
0.0
  0
LINE
  5
92
330
17
100
AcDbEntity
  8
0
100
AcDbLine
 10
303.159
 20
285.9139999999999
 30
0.0
 11
304.565
 21
295.4809999999999
 31
0.0
  0
LINE
  5
93
330
17
100
AcDbEntity
  8
0
100
AcDbLine
 10
304.565
 20
295.4809999999999
 30
0.0
 11
306.675
 21
304.67199999999985
 31
0.0
  0
LINE
  5
94
330
17
100
AcDbEntity
  8
0
100
AcDbLine
 10
306.675
 20
304.67199999999985
 30
0.0
 11
309.56
 21
313.3729999999999
 31
0.0
  0
LINE
  5
95
330
17
100
AcDbEntity
  8
0
100
AcDbLine
 10
309.56
 20
313.3729999999999
 30
0.0
 11
313.291
 21
321.4689999999999
 31
0.0
  0
LINE
  5
96
330
17
100
AcDbEntity
  8
0
100
AcDbLine
 10
313.291
 20
321.4689999999999
 30
0.0
 11
315.496
 21
325.2539999999999
 31
0.0
  0
LINE
  5
97
330
17
100
AcDbEntity
  8
0
100
AcDbLine
 10
315.496
 20
325.2539999999999
 30
0.0
 11
317.93899999999996
 21
328.8449999999999
 31
0.0
  0
LINE
  5
98
330
17
100
AcDbEntity
  8
0
100
AcDbLine
 10
317.93899999999996
 20
328.8449999999999
 30
0.0
 11
320.62899999999996
 21
332.2269999999999
 31
0.0
  0
LINE
  5
99
330
17
100
AcDbEntity
  8
0
100
AcDbLine
 10
320.62899999999996
 20
332.2269999999999
 30
0.0
 11
323.575
 21
335.38699999999994
 31
0.0
  0
LINE
  5
9A
330
17
100
AcDbEntity
  8
0
100
AcDbLine
 10
323.575
 20
335.38699999999994
 30
0.0
 11
326.786
 21
338.30899999999997
 31
0.0
  0
LINE
  5
9B
330
17
100
AcDbEntity
  8
0
100
AcDbLine
 10
326.786
 20
338.30899999999997
 30
0.0
 11
330.27
 21
340.97999999999996
 31
0.0
  0
LINE
  5
9C
330
17
100
AcDbEntity
  8
0
100
AcDbLine
 10
330.27
 20
340.97999999999996
 30
0.0
 11
334.037
 21
343.38499999999993
 31
0.0
  0
LINE
  5
9D
330
17
100
AcDbEntity
  8
0
100
AcDbLine
 10
334.037
 20
343.38499999999993
 30
0.0
 11
338.272
 21
345.6019999999999
 31
0.0
  0
LINE
  5
9E
330
17
100
AcDbEntity
  8
0
100
AcDbLine
 10
338.272
 20
345.6019999999999
 30
0.0
 11
338.43399999999997
 21
345.7059999999999
 31
0.0
  0
LINE
  5
9F
330
17
100
AcDbEntity
  8
0
100
AcDbLine
 10
338.43399999999997
 20
345.7059999999999
 30
0.0
 11
338.58099999999996
 21
345.8199999999999
 31
0.0
  0
LINE
  5
A0
330
17
100
AcDbEntity
  8
0
100
AcDbLine
 10
338.58099999999996
 20
345.8199999999999
 30
0.0
 11
338.71299999999997
 21
345.94299999999987
 31
0.0
  0
LINE
  5
A1
330
17
100
AcDbEntity
  8
0
100
AcDbLine
 10
338.71299999999997
 20
345.94299999999987
 30
0.0
 11
338.83
 21
346.07399999999984
 31
0.0
  0
LINE
  5
A2
330
17
100
AcDbEntity
  8
0
100
AcDbLine
 10
338.83
 20
346.07399999999984
 30
0.0
 11
338.933
 21
346.21299999999985
 31
0.0
  0
LINE
  5
A3
330
17
100
AcDbEntity
  8
0
100
AcDbLine
 10
338.933
 20
346.21299999999985
 30
0.0
 11
339.021
 21
346.35799999999983
 31
0.0
  0
LINE
  5
A4
330
17
100
AcDbEntity
  8
0
100
AcDbLine
 10
339.021
 20
346.35799999999983
 30
0.0
 11
339.095
 21
346.5079999999998
 31
0.0
  0
LINE
  5
A5
330
17
100
AcDbEntity
  8
0
100
AcDbLine
 10
339.095
 20
346.5079999999998
 30
0.0
 11
339.15500000000003
 21
346.6629999999998
 31
0.0
  0
LINE
  5
A6
330
17
100
AcDbEntity
  8
0
100
AcDbLine
 10
339.15500000000003
 20
346.6629999999998
 30
0.0
 11
339.20200000000006
 21
346.8219999999998
 31
0.0
  0
LINE
  5
A7
330
17
100
AcDbEntity
  8
0
100
AcDbLine
 10
339.20200000000006
 20
346.8219999999998
 30
0.0
 11
339.23500000000007
 21
346.9829999999998
 31
0.0
  0
LINE
  5
A8
330
17
100
AcDbEntity
  8
0
100
AcDbLine
 10
339.23500000000007
 20
346.9829999999998
 30
0.0
 11
339.25500000000005
 21
347.1459999999998
 31
0.0
  0
LINE
  5
A9
330
17
100
AcDbEntity
  8
0
100
AcDbLine
 10
339.25500000000005
 20
347.1459999999998
 30
0.0
 11
339.26200000000006
 21
347.3099999999998
 31
0.0
  0
LINE
  5
AA
330
17
100
AcDbEntity
  8
0
100
AcDbLine
 10
339.26200000000006
 20
347.3099999999998
 30
0.0
 11
339.2560000000001
 21
347.47399999999976
 31
0.0
  0
LINE
  5
AB
330
17
100
AcDbEntity
  8
0
100
AcDbLine
 10
339.2560000000001
 20
347.47399999999976
 30
0.0
 11
339.2380000000001
 21
347.6369999999998
 31
0.0
  0
LINE
  5
AC
330
17
100
AcDbEntity
  8
0
100
AcDbLine
 10
339.2380000000001
 20
347.6369999999998
 30
0.0
 11
339.2070000000001
 21
347.7979999999998
 31
0.0
  0
LINE
  5
AD
330
17
100
AcDbEntity
  8
0
100
AcDbLine
 10
339.2070000000001
 20
347.7979999999998
 30
0.0
 11
339.1640000000001
 21
347.95699999999977
 31
0.0
  0
LINE
  5
AE
330
17
100
AcDbEntity
  8
0
100
AcDbLine
 10
339.1640000000001
 20
347.95699999999977
 30
0.0
 11
339.1090000000001
 21
348.11199999999974
 31
0.0
  0
LINE
  5
AF
330
17
100
AcDbEntity
  8
0
100
AcDbLine
 10
339.1090000000001
 20
348.11199999999974
 30
0.0
 11
339.0430000000001
 21
348.26299999999975
 31
0.0
  0
LINE
  5
B0
330
17
100
AcDbEntity
  8
0
100
AcDbLine
 10
339.0430000000001
 20
348.26299999999975
 30
0.0
 11
338.96500000000015
 21
348.40799999999973
 31
0.0
  0
LINE
  5
B1
330
17
100
AcDbEntity
  8
0
100
AcDbLine
 10
338.96500000000015
 20
348.40799999999973
 30
0.0
 11
338.87600000000015
 21
348.54699999999974
 31
0.0
  0
LINE
  5
B2
330
17
100
AcDbEntity
  8
0
100
AcDbLine
 10
338.87600000000015
 20
348.54699999999974
 30
0.0
 11
338.7760000000001
 21
348.6779999999997
 31
0.0
  0
LINE
  5
B3
330
17
100
AcDbEntity
  8
0
100
AcDbLine
 10
338.7760000000001
 20
348.6779999999997
 30
0.0
 11
338.66500000000013
 21
348.8009999999997
 31
0.0
  0
LINE
  5
B4
330
17
100
AcDbEntity
  8
0
100
AcDbLine
 10
338.66500000000013
 20
348.8009999999997
 30
0.0
 11
338.5430000000001
 21
348.9149999999997
 31
0.0
  0
LINE
  5
B5
330
17
100
AcDbEntity
  8
0
100
AcDbLine
 10
338.5430000000001
 20
348.9149999999997
 30
0.0
 11
338.4110000000001
 21
349.01899999999966
 31
0.0
  0
LINE
  5
B6
330
17
100
AcDbEntity
  8
0
100
AcDbLine
 10
338.4110000000001
 20
349.01899999999966
 30
0.0
 11
338.26800000000014
 21
349.1119999999997
 31
0.0
  0
LINE
  5
B7
330
17
100
AcDbEntity
  8
0
100
AcDbLine
 10
338.26800000000014
 20
349.1119999999997
 30
0.0
 11
338.1150000000001
 21
349.1929999999997
 31
0.0
  0
LINE
  5
B8
330
17
100
AcDbEntity
  8
0
100
AcDbLine
 10
338.1150000000001
 20
349.1929999999997
 30
0.0
 11
337.9520000000001
 21
349.2609999999997
 31
0.0
  0
LINE
  5
B9
330
17
100
AcDbEntity
  8
0
100
AcDbLine
 10
337.9520000000001
 20
349.2609999999997
 30
0.0
 11
337.7800000000001
 21
349.3159999999997
 31
0.0
  0
LINE
  5
BA
330
17
100
AcDbEntity
  8
0
100
AcDbLine
 10
337.7800000000001
 20
349.3159999999997
 30
0.0
 11
337.59800000000007
 21
349.3559999999997
 31
0.0
  0
LINE
  5
BB
330
17
100
AcDbEntity
  8
0
100
AcDbLine
 10
337.59800000000007
 20
349.3559999999997
 30
0.0
 11
337.4070000000001
 21
349.3799999999997
 31
0.0
  0
LINE
  5
BC
330
17
100
AcDbEntity
  8
0
100
AcDbLine
 10
337.4070000000001
 20
349.3799999999997
 30
0.0
 11
217.6030000000001
 21
348.98699999999974
 31
0.0
  0
LINE
  5
BD
330
17
100
AcDbEntity
  8
0
100
AcDbLine
 10
217.6030000000001
 20
348.98699999999974
 30
0.0
 11
218.0860000000001
 21
327.26799999999974
 31
0.0
  0
LINE
  5
BE
330
17
100
AcDbEntity
  8
0
100
AcDbLine
 10
218.0860000000001
 20
327.26799999999974
 30
0.0
 11
217.9960000000001
 21
326.5789999999997
 31
0.0
  0
LINE
  5
BF
330
17
100
AcDbEntity
  8
0
100
AcDbLine
 10
217.9960000000001
 20
326.5789999999997
 30
0.0
 11
217.8400000000001
 21
325.91199999999975
 31
0.0
  0
LINE
  5
C0
330
17
100
AcDbEntity
  8
0
100
AcDbLine
 10
217.8400000000001
 20
325.91199999999975
 30
0.0
 11
217.6210000000001
 21
325.27099999999973
 31
0.0
  0
LINE
  5
C1
330
17
100
AcDbEntity
  8
0
100
AcDbLine
 10
217.6210000000001
 20
325.27099999999973
 30
0.0
 11
217.3420000000001
 21
324.6589999999997
 31
0.0
  0
LINE
  5
C2
330
17
100
AcDbEntity
  8
0
100
AcDbLine
 10
217.3420000000001
 20
324.6589999999997
 30
0.0
 11
217.0070000000001
 21
324.0799999999997
 31
0.0
  0
LINE
  5
C3
330
17
100
AcDbEntity
  8
0
100
AcDbLine
 10
217.0070000000001
 20
324.0799999999997
 30
0.0
 11
216.61900000000009
 21
323.5369999999997
 31
0.0
  0
LINE
  5
C4
330
17
100
AcDbEntity
  8
0
100
AcDbLine
 10
216.61900000000009
 20
323.5369999999997
 30
0.0
 11
216.18200000000007
 21
323.0339999999997
 31
0.0
  0
LINE
  5
C5
330
17
100
AcDbEntity
  8
0
100
AcDbLine
 10
216.18200000000007
 20
323.0339999999997
 30
0.0
 11
215.69900000000007
 21
322.5749999999997
 31
0.0
  0
LINE
  5
C6
330
17
100
AcDbEntity
  8
0
100
AcDbLine
 10
215.69900000000007
 20
322.5749999999997
 30
0.0
 11
215.17400000000006
 21
322.1629999999997
 31
0.0
  0
LINE
  5
C7
330
17
100
AcDbEntity
  8
0
100
AcDbLine
 10
215.17400000000006
 20
322.1629999999997
 30
0.0
 11
214.61000000000007
 21
321.80199999999974
 31
0.0
  0
LINE
  5
C8
330
17
100
AcDbEntity
  8
0
100
AcDbLine
 10
214.61000000000007
 20
321.80199999999974
 30
0.0
 11
214.01100000000008
 21
321.4949999999997
 31
0.0
  0
LINE
  5
C9
330
17
100
AcDbEntity
  8
0
100
AcDbLine
 10
214.01100000000008
 20
321.4949999999997
 30
0.0
 11
213.38000000000008
 21
321.24699999999973
 31
0.0
  0
LINE
  5
CA
330
17
100
AcDbEntity
  8
0
100
AcDbLine
 10
213.38000000000008
 20
321.24699999999973
 30
0.0
 11
212.7210000000001
 21
321.0599999999997
 31
0.0
  0
LINE
  5
CB
330
17
100
AcDbEntity
  8
0
100
AcDbLine
 10
212.7210000000001
 20
321.0599999999997
 30
0.0
 11
212.0370000000001
 21
320.93899999999974
 31
0.0
  0
LINE
  5
CC
330
17
100
AcDbEntity
  8
0
100
AcDbLine
 10
212.0370000000001
 20
320.93899999999974
 30
0.0
 11
211.33200000000008
 21
320.8869999999997
 31
0.0
  0
LINE
  5
CD
330
17
100
AcDbEntity
  8
0
100
AcDbLine
 10
211.33200000000008
 20
320.8869999999997
 30
0.0
 11
158.1690000000001
 21
320.73199999999974
 31
0.0
  0
LINE
  5
CE
330
17
100
AcDbEntity
  8
0
100
AcDbLine
 10
158.1690000000001
 20
320.73199999999974
 30
0.0
 11
157.4800000000001
 21
320.8219999999997
 31
0.0
  0
LINE
  5
CF
330
17
100
AcDbEntity
  8
0
100
AcDbLine
 10
157.4800000000001
 20
320.8219999999997
 30
0.0
 11
156.8130000000001
 21
320.9779999999997
 31
0.0
  0
LINE
  5
D0
330
17
100
AcDbEntity
  8
0
100
AcDbLine
 10
156.8130000000001
 20
320.9779999999997
 30
0.0
 11
156.1720000000001
 21
321.1969999999997
 31
0.0
  0
LINE
  5
D1
330
17
100
AcDbEntity
  8
0
100
AcDbLine
 10
156.1720000000001
 20
321.1969999999997
 30
0.0
 11
155.56000000000012
 21
321.4759999999997
 31
0.0
  0
LINE
  5
D2
330
17
100
AcDbEntity
  8
0
100
AcDbLine
 10
155.56000000000012
 20
321.4759999999997
 30
0.0
 11
154.9800000000001
 21
321.8109999999997
 31
0.0
  0
LINE
  5
D3
330
17
100
AcDbEntity
  8
0
100
AcDbLine
 10
154.9800000000001
 20
321.8109999999997
 30
0.0
 11
154.4370000000001
 21
322.19899999999967
 31
0.0
  0
LINE
  5
D4
330
17
100
AcDbEntity
  8
0
100
AcDbLine
 10
154.4370000000001
 20
322.19899999999967
 30
0.0
 11
153.9340000000001
 21
322.6359999999997
 31
0.0
  0
LINE
  5
D5
330
17
100
AcDbEntity
  8
0
100
AcDbLine
 10
153.9340000000001
 20
322.6359999999997
 30
0.0
 11
153.4750000000001
 21
323.1189999999997
 31
0.0
  0
LINE
  5
D6
330
17
100
AcDbEntity
  8
0
100
AcDbLine
 10
153.4750000000001
 20
323.1189999999997
 30
0.0
 11
153.0630000000001
 21
323.64399999999966
 31
0.0
  0
LINE
  5
D7
330
17
100
AcDbEntity
  8
0
100
AcDbLine
 10
153.0630000000001
 20
323.64399999999966
 30
0.0
 11
152.7020000000001
 21
324.2079999999997
 31
0.0
  0
LINE
  5
D8
330
17
100
AcDbEntity
  8
0
100
AcDbLine
 10
152.7020000000001
 20
324.2079999999997
 30
0.0
 11
152.39500000000012
 21
324.8069999999997
 31
0.0
  0
LINE
  5
D9
330
17
100
AcDbEntity
  8
0
100
AcDbLine
 10
152.39500000000012
 20
324.8069999999997
 30
0.0
 11
152.14600000000013
 21
325.43799999999965
 31
0.0
  0
LINE
  5
DA
330
17
100
AcDbEntity
  8
0
100
AcDbLine
 10
152.14600000000013
 20
325.43799999999965
 30
0.0
 11
151.95900000000012
 21
326.09699999999964
 31
0.0
  0
LINE
  5
DB
330
17
100
AcDbEntity
  8
0
100
AcDbLine
 10
151.95900000000012
 20
326.09699999999964
 30
0.0
 11
151.8380000000001
 21
326.78099999999966
 31
0.0
  0
LINE
  5
DC
330
17
100
AcDbEntity
  8
0
100
AcDbLine
 10
151.8380000000001
 20
326.78099999999966
 30
0.0
 11
151.4070000000001
 21
348.2849999999997
 31
0.0
  0
LINE
  5
DD
330
17
100
AcDbEntity
  8
0
100
AcDbLine
 10
151.4070000000001
 20
348.2849999999997
 30
0.0
 11
69.02800000000009
 21
347.82199999999966
 31
0.0
  0
LINE
  5
DE
330
17
100
AcDbEntity
  8
0
100
AcDbLine
 10
69.02800000000009
 20
347.82199999999966
 30
0.0
 11
68.53000000000009
 21
347.7229999999997
 31
0.0
  0
LINE
  5
DF
330
17
100
AcDbEntity
  8
0
100
AcDbLine
 10
68.53000000000009
 20
347.7229999999997
 30
0.0
 11
68.06000000000009
 21
347.56499999999966
 31
0.0
  0
LINE
  5
E0
330
17
100
AcDbEntity
  8
0
100
AcDbLine
 10
68.06000000000009
 20
347.56499999999966
 30
0.0
 11
67.6210000000001
 21
347.35299999999967
 31
0.0
  0
LINE
  5
E1
330
17
100
AcDbEntity
  8
0
100
AcDbLine
 10
67.6210000000001
 20
347.35299999999967
 30
0.0
 11
67.2170000000001
 21
347.09199999999964
 31
0.0
  0
LINE
  5
E2
330
17
100
AcDbEntity
  8
0
100
AcDbLine
 10
67.2170000000001
 20
347.09199999999964
 30
0.0
 11
66.8500000000001
 21
346.78599999999966
 31
0.0
  0
LINE
  5
E3
330
17
100
AcDbEntity
  8
0
100
AcDbLine
 10
66.8500000000001
 20
346.78599999999966
 30
0.0
 11
66.5230000000001
 21
346.44099999999963
 31
0.0
  0
LINE
  5
E4
330
17
100
AcDbEntity
  8
0
100
AcDbLine
 10
66.5230000000001
 20
346.44099999999963
 30
0.0
 11
66.2400000000001
 21
346.05999999999966
 31
0.0
  0
LINE
  5
E5
330
17
100
AcDbEntity
  8
0
100
AcDbLine
 10
66.2400000000001
 20
346.05999999999966
 30
0.0
 11
66.0030000000001
 21
345.64899999999966
 31
0.0
  0
LINE
  5
E6
330
17
100
AcDbEntity
  8
0
100
AcDbLine
 10
66.0030000000001
 20
345.64899999999966
 30
0.0
 11
65.8160000000001
 21
345.21199999999965
 31
0.0
  0
LINE
  5
E7
330
17
100
AcDbEntity
  8
0
100
AcDbLine
 10
65.8160000000001
 20
345.21199999999965
 30
0.0
 11
65.6820000000001
 21
344.7539999999996
 31
0.0
  0
LINE
  5
E8
330
17
100
AcDbEntity
  8
0
100
AcDbLine
 10
65.6820000000001
 20
344.7539999999996
 30
0.0
 11
65.6040000000001
 21
344.2789999999996
 31
0.0
  0
LINE
  5
E9
330
17
100
AcDbEntity
  8
0
100
AcDbLine
 10
65.6040000000001
 20
344.2789999999996
 30
0.0
 11
65.5850000000001
 21
343.7919999999996
 31
0.0
  0
LINE
  5
EA
330
17
100
AcDbEntity
  8
0
100
AcDbLine
 10
65.5850000000001
 20
343.7919999999996
 30
0.0
 11
65.6280000000001
 21
343.29799999999955
 31
0.0
  0
LINE
  5
EB
330
17
100
AcDbEntity
  8
0
100
AcDbLine
 10
65.6280000000001
 20
343.29799999999955
 30
0.0
 11
72.7410000000001
 21
318.06299999999953
 31
0.0
  0
LINE
  5
EC
330
17
100
AcDbEntity
  8
0
100
AcDbLine
 10
72.7410000000001
 20
318.06299999999953
 30
0.0
 11
73.9910000000001
 21
315.5949999999995
 31
0.0
  0
LINE
  5
ED
330
17
100
AcDbEntity
  8
0
100
AcDbLine
 10
73.9910000000001
 20
315.5949999999995
 30
0.0
 11
75.5260000000001
 21
313.3349999999995
 31
0.0
  0
LINE
  5
EE
330
17
100
AcDbEntity
  8
0
100
AcDbLine
 10
75.5260000000001
 20
313.3349999999995
 30
0.0
 11
77.3210000000001
 21
311.30299999999954
 31
0.0
  0
LINE
  5
EF
330
17
100
AcDbEntity
  8
0
100
AcDbLine
 10
77.3210000000001
 20
311.30299999999954
 30
0.0
 11
79.3490000000001
 21
309.5179999999995
 31
0.0
  0
LINE
  5
F0
330
17
100
AcDbEntity
  8
0
100
AcDbLine
 10
79.3490000000001
 20
309.5179999999995
 30
0.0
 11
81.5840000000001
 21
307.9989999999995
 31
0.0
  0
LINE
  5
F1
330
17
100
AcDbEntity
  8
0
100
AcDbLine
 10
81.5840000000001
 20
307.9989999999995
 30
0.0
 11
84.0010000000001
 21
306.7659999999995
 31
0.0
  0
LINE
  5
F2
330
17
100
AcDbEntity
  8
0
100
AcDbLine
 10
84.0010000000001
 20
306.7659999999995
 30
0.0
 11
86.5730000000001
 21
305.8379999999995
 31
0.0
  0
LINE
  5
F3
330
17
100
AcDbEntity
  8
0
100
AcDbLine
 10
86.5730000000001
 20
305.8379999999995
 30
0.0
 11
89.2740000000001
 21
305.2349999999995
 31
0.0
  0
LINE
  5
F4
330
17
100
AcDbEntity
  8
0
100
AcDbLine
 10
89.2740000000001
 20
305.2349999999995
 30
0.0
 11
133.3250000000001
 21
299.3989999999995
 31
0.0
  0
LINE
  5
F5
330
17
100
AcDbEntity
  8
0
100
AcDbLine
 10
133.3250000000001
 20
299.3989999999995
 30
0.0
 11
140.3440000000001
 21
297.2979999999995
 31
0.0
  0
LINE
  5
F6
330
17
100
AcDbEntity
  8
0
100
AcDbLine
 10
140.3440000000001
 20
297.2979999999995
 30
0.0
 11
147.0980000000001
 21
294.4469999999995
 31
0.0
  0
LINE
  5
F7
330
17
100
AcDbEntity
  8
0
100
AcDbLine
 10
147.0980000000001
 20
294.4469999999995
 30
0.0
 11
150.3270000000001
 21
292.6919999999995
 31
0.0
  0
LINE
  5
F8
330
17
100
AcDbEntity
  8
0
100
AcDbLine
 10
150.3270000000001
 20
292.6919999999995
 30
0.0
 11
153.3150000000001
 21
290.7649999999995
 31
0.0
  0
LINE
  5
F9
330
17
100
AcDbEntity
  8
0
100
AcDbLine
 10
153.3150000000001
 20
290.7649999999995
 30
0.0
 11
156.0740000000001
 21
288.6759999999995
 31
0.0
  0
LINE
  5
FA
330
17
100
AcDbEntity
  8
0
100
AcDbLine
 10
156.0740000000001
 20
288.6759999999995
 30
0.0
 11
158.6170000000001
 21
286.4329999999995
 31
0.0
  0
LINE
  5
FB
330
17
100
AcDbEntity
  8
0
100
AcDbLine
 10
158.6170000000001
 20
286.4329999999995
 30
0.0
 11
163.1060000000001
 21
281.52299999999946
 31
0.0
  0
LINE
  5
FC
330
17
100
AcDbEntity
  8
0
100
AcDbLine
 10
163.1060000000001
 20
281.52299999999946
 30
0.0
 11
166.8840000000001
 21
276.1059999999995
 31
0.0
  0
LINE
  5
FD
330
17
100
AcDbEntity
  8
0
100
AcDbLine
 10
166.8840000000001
 20
276.1059999999995
 30
0.0
 11
170.0520000000001
 21
270.2539999999995
 31
0.0
  0
LINE
  5
FE
330
17
100
AcDbEntity
  8
0
100
AcDbLine
 10
170.0520000000001
 20
270.2539999999995
 30
0.0
 11
172.7130000000001
 21
264.03899999999953
 31
0.0
  0
LINE
  5
FF
330
17
100
AcDbEntity
  8
0
100
AcDbLine
 10
172.7130000000001
 20
264.03899999999953
 30
0.0
 11
176.9210000000001
 21
250.80499999999952
 31
0.0
  0
LINE
  5
100
330
17
100
AcDbEntity
  8
0
100
AcDbLine
 10
176.9210000000001
 20
250.80499999999952
 30
0.0
 11
198.16700000000012
 21
257.3599999999995
 31
0.0
  0
LINE
  5
101
330
17
100
AcDbEntity
  8
0
100
AcDbLine
 10
198.16700000000012
 20
257.3599999999995
 30
0.0
 11
208.3730000000001
 21
226.8439999999995
 31
0.0
  0
LINE
  5
102
330
17
100
AcDbEntity
  8
0
100
AcDbLine
 10
208.3730000000001
 20
226.8439999999995
 30
0.0
 11
184.89400000000012
 21
219.01799999999952
 31
0.0
  0
LINE
  5
103
330
17
100
AcDbEntity
  8
0
100
AcDbLine
 10
184.89400000000012
 20
219.01799999999952
 30
0.0
 11
197.5580000000001
 21
185.9219999999995
 31
0.0
  0
LINE
  5
104
330
17
100
AcDbEntity
  8
0
100
AcDbLine
 10
197.5580000000001
 20
185.9219999999995
 30
0.0
 11
197.3550000000001
 21
185.9219999999995
 31
0.0
  0
LINE
  5
105
330
17
100
AcDbEntity
  8
0
100
AcDbLine
 10
197.3550000000001
 20
185.9219999999995
 30
0.0
 11
205.1310000000001
 21
166.5499999999995
 31
0.0
  0
LINE
  5
106
330
17
100
AcDbEntity
  8
0
100
AcDbLine
 10
205.1310000000001
 20
166.5499999999995
 30
0.0
 11
205.2190000000001
 21
166.0289999999995
 31
0.0
  0
LINE
  5
107
330
17
100
AcDbEntity
  8
0
100
AcDbLine
 10
205.2190000000001
 20
166.0289999999995
 30
0.0
 11
205.2600000000001
 21
165.5049999999995
 31
0.0
  0
LINE
  5
108
330
17
100
AcDbEntity
  8
0
100
AcDbLine
 10
205.2600000000001
 20
165.5049999999995
 30
0.0
 11
205.2540000000001
 21
164.9799999999995
 31
0.0
  0
LINE
  5
109
330
17
100
AcDbEntity
  8
0
100
AcDbLine
 10
205.2540000000001
 20
164.9799999999995
 30
0.0
 11
205.2020000000001
 21
164.4569999999995
 31
0.0
  0
LINE
  5
10A
330
17
100
AcDbEntity
  8
0
100
AcDbLine
 10
205.2020000000001
 20
164.4569999999995
 30
0.0
 11
205.10300000000012
 21
163.9389999999995
 31
0.0
  0
LINE
  5
10B
330
17
100
AcDbEntity
  8
0
100
AcDbLine
 10
205.10300000000012
 20
163.9389999999995
 30
0.0
 11
204.9580000000001
 21
163.4279999999995
 31
0.0
  0
LINE
  5
10C
330
17
100
AcDbEntity
  8
0
100
AcDbLine
 10
204.9580000000001
 20
163.4279999999995
 30
0.0
 11
204.76800000000011
 21
162.9269999999995
 31
0.0
  0
LINE
  5
10D
330
17
100
AcDbEntity
  8
0
100
AcDbLine
 10
204.76800000000011
 20
162.9269999999995
 30
0.0
 11
203.25900000000013
 21
159.6719999999995
 31
0.0
  0
LINE
  5
10E
330
17
100
AcDbEntity
  8
0
100
AcDbLine
 10
203.25900000000013
 20
159.6719999999995
 30
0.0
 11
202.81300000000013
 21
158.2649999999995
 31
0.0
  0
LINE
  5
10F
330
17
100
AcDbEntity
  8
0
100
AcDbLine
 10
202.81300000000013
 20
158.2649999999995
 30
0.0
 11
202.54100000000014
 21
156.8549999999995
 31
0.0
  0
LINE
  5
110
330
17
100
AcDbEntity
  8
0
100
AcDbLine
 10
202.54100000000014
 20
156.8549999999995
 30
0.0
 11
202.48100000000014
 21
156.1519999999995
 31
0.0
  0
LINE
  5
111
330
17
100
AcDbEntity
  8
0
100
AcDbLine
 10
202.48100000000014
 20
156.1519999999995
 30
0.0
 11
202.47800000000015
 21
155.45199999999952
 31
0.0
  0
LINE
  5
112
330
17
100
AcDbEntity
  8
0
100
AcDbLine
 10
202.47800000000015
 20
155.45199999999952
 30
0.0
 11
202.53600000000014
 21
154.75599999999952
 31
0.0
  0
LINE
  5
113
330
17
100
AcDbEntity
  8
0
100
AcDbLine
 10
202.53600000000014
 20
154.75599999999952
 30
0.0
 11
202.65900000000013
 21
154.06599999999952
 31
0.0
  0
LINE
  5
114
330
17
100
AcDbEntity
  8
0
100
AcDbLine
 10
202.65900000000013
 20
154.06599999999952
 30
0.0
 11
202.85200000000015
 21
153.38199999999952
 31
0.0
  0
LINE
  5
115
330
17
100
AcDbEntity
  8
0
100
AcDbLine
 10
202.85200000000015
 20
153.38199999999952
 30
0.0
 11
203.11900000000014
 21
152.70599999999953
 31
0.0
  0
LINE
  5
116
330
17
100
AcDbEntity
  8
0
100
AcDbLine
 10
203.11900000000014
 20
152.70599999999953
 30
0.0
 11
203.46400000000014
 21
152.03899999999953
 31
0.0
  0
LINE
  5
117
330
17
100
AcDbEntity
  8
0
100
AcDbLine
 10
203.46400000000014
 20
152.03899999999953
 30
0.0
 11
203.89200000000014
 21
151.38299999999953
 31
0.0
  0
LINE
  5
118
330
17
100
AcDbEntity
  8
0
100
AcDbLine
 10
203.89200000000014
 20
151.38299999999953
 30
0.0
 11
204.58900000000014
 21
150.53899999999953
 31
0.0
  0
LINE
  5
119
330
17
100
AcDbEntity
  8
0
100
AcDbLine
 10
204.58900000000014
 20
150.53899999999953
 30
0.0
 11
205.39400000000015
 21
149.76199999999955
 31
0.0
  0
LINE
  5
11A
330
17
100
AcDbEntity
  8
0
100
AcDbLine
 10
205.39400000000015
 20
149.76199999999955
 30
0.0
 11
206.29200000000014
 21
149.04299999999955
 31
0.0
  0
LINE
  5
11B
330
17
100
AcDbEntity
  8
0
100
AcDbLine
 10
206.29200000000014
 20
149.04299999999955
 30
0.0
 11
208.30700000000013
 21
147.74399999999955
 31
0.0
  0
LINE
  5
11C
330
17
100
AcDbEntity
  8
0
100
AcDbLine
 10
208.30700000000013
 20
147.74399999999955
 30
0.0
 11
212.08800000000014
 21
145.76599999999954
 31
0.0
  0
LINE
  5
11D
330
17
100
AcDbEntity
  8
0
100
AcDbLine
 10
212.08800000000014
 20
145.76599999999954
 30
0.0
 11
212.50200000000012
 21
145.49999999999955
 31
0.0
  0
LINE
  5
11E
330
17
100
AcDbEntity
  8
0
100
AcDbLine
 10
212.50200000000012
 20
145.49999999999955
 30
0.0
 11
212.89100000000013
 21
145.20699999999954
 31
0.0
  0
LINE
  5
11F
330
17
100
AcDbEntity
  8
0
100
AcDbLine
 10
212.89100000000013
 20
145.20699999999954
 30
0.0
 11
213.25400000000013
 21
144.88799999999955
 31
0.0
  0
LINE
  5
120
330
17
100
AcDbEntity
  8
0
100
AcDbLine
 10
213.25400000000013
 20
144.88799999999955
 30
0.0
 11
213.59000000000015
 21
144.54499999999956
 31
0.0
  0
LINE
  5
121
330
17
100
AcDbEntity
  8
0
100
AcDbLine
 10
213.59000000000015
 20
144.54499999999956
 30
0.0
 11
213.89900000000014
 21
144.17899999999955
 31
0.0
  0
LINE
  5
122
330
17
100
AcDbEntity
  8
0
100
AcDbLine
 10
213.89900000000014
 20
144.17899999999955
 30
0.0
 11
214.17900000000014
 21
143.79299999999955
 31
0.0
  0
LINE
  5
123
330
17
100
AcDbEntity
  8
0
100
AcDbLine
 10
214.17900000000014
 20
143.79299999999955
 30
0.0
 11
214.42900000000014
 21
143.38799999999955
 31
0.0
  0
LINE
  5
124
330
17
100
AcDbEntity
  8
0
100
AcDbLine
 10
214.42900000000014
 20
143.38799999999955
 30
0.0
 11
227.64300000000014
 21
103.95699999999955
 31
0.0
  0
LINE
  5
125
330
17
100
AcDbEntity
  8
0
100
AcDbLine
 10
227.64300000000014
 20
103.95699999999955
 30
0.0
 11
227.74900000000014
 21
103.42199999999956
 31
0.0
  0
LINE
  5
126
330
17
100
AcDbEntity
  8
0
100
AcDbLine
 10
227.74900000000014
 20
103.42199999999956
 30
0.0
 11
227.80500000000015
 21
102.88199999999955
 31
0.0
  0
LINE
  5
127
330
17
100
AcDbEntity
  8
0
100
AcDbLine
 10
227.80500000000015
 20
102.88199999999955
 30
0.0
 11
227.81100000000015
 21
102.34099999999955
 31
0.0
  0
LINE
  5
128
330
17
100
AcDbEntity
  8
0
100
AcDbLine
 10
227.81100000000015
 20
102.34099999999955
 30
0.0
 11
227.76700000000014
 21
101.80199999999955
 31
0.0
  0
LINE
  5
129
330
17
100
AcDbEntity
  8
0
100
AcDbLine
 10
227.76700000000014
 20
101.80199999999955
 30
0.0
 11
227.67400000000015
 21
101.26699999999956
 31
0.0
  0
LINE
  5
12A
330
17
100
AcDbEntity
  8
0
100
AcDbLine
 10
227.67400000000015
 20
101.26699999999956
 30
0.0
 11
227.53200000000015
 21
100.73899999999955
 31
0.0
  0
LINE
  5
12B
330
17
100
AcDbEntity
  8
0
100
AcDbLine
 10
227.53200000000015
 20
100.73899999999955
 30
0.0
 11
227.34200000000016
 21
100.22099999999955
 31
0.0
  0
LINE
  5
12C
330
17
100
AcDbEntity
  8
0
100
AcDbLine
 10
227.34200000000016
 20
100.22099999999955
 30
0.0
 11
225.89000000000016
 21
97.00299999999955
 31
0.0
  0
LINE
  5
12D
330
17
100
AcDbEntity
  8
0
100
AcDbLine
 10
225.89000000000016
 20
97.00299999999955
 30
0.0
 11
225.47200000000015
 21
95.62599999999955
 31
0.0
  0
LINE
  5
12E
330
17
100
AcDbEntity
  8
0
100
AcDbLine
 10
225.47200000000015
 20
95.62599999999955
 30
0.0
 11
225.22400000000016
 21
94.24699999999955
 31
0.0
  0
LINE
  5
12F
330
17
100
AcDbEntity
  8
0
100
AcDbLine
 10
225.22400000000016
 20
94.24699999999955
 30
0.0
 11
225.17400000000015
 21
93.55999999999955
 31
0.0
  0
LINE
  5
130
330
17
100
AcDbEntity
  8
0
100
AcDbLine
 10
225.17400000000015
 20
93.55999999999955
 30
0.0
 11
225.17900000000014
 21
92.87599999999955
 31
0.0
  0
LINE
  5
131
330
17
100
AcDbEntity
  8
0
100
AcDbLine
 10
225.17900000000014
 20
92.87599999999955
 30
0.0
 11
225.24300000000014
 21
92.19599999999954
 31
0.0
  0
LINE
  5
132
330
17
100
AcDbEntity
  8
0
100
AcDbLine
 10
225.24300000000014
 20
92.19599999999954
 30
0.0
 11
225.37000000000015
 21
91.52099999999955
 31
0.0
  0
LINE
  5
133
330
17
100
AcDbEntity
  8
0
100
AcDbLine
 10
225.37000000000015
 20
91.52099999999955
 30
0.0
 11
225.56400000000014
 21
90.85299999999954
 31
0.0
  0
LINE
  5
134
330
17
100
AcDbEntity
  8
0
100
AcDbLine
 10
225.56400000000014
 20
90.85299999999954
 30
0.0
 11
225.82900000000012
 21
90.19199999999954
 31
0.0
  0
LINE
  5
135
330
17
100
AcDbEntity
  8
0
100
AcDbLine
 10
225.82900000000012
 20
90.19199999999954
 30
0.0
 11
226.16900000000012
 21
89.53999999999954
 31
0.0
  0
LINE
  5
136
330
17
100
AcDbEntity
  8
0
100
AcDbLine
 10
226.16900000000012
 20
89.53999999999954
 30
0.0
 11
226.5890000000001
 21
88.89799999999954
 31
0.0
  0
LINE
  5
137
330
17
100
AcDbEntity
  8
0
100
AcDbLine
 10
226.5890000000001
 20
88.89799999999954
 30
0.0
 11
226.92300000000012
 21
88.47999999999954
 31
0.0
  0
LINE
  5
138
330
17
100
AcDbEntity
  8
0
100
AcDbLine
 10
226.92300000000012
 20
88.47999999999954
 30
0.0
 11
227.30500000000012
 21
88.07899999999954
 31
0.0
  0
LINE
  5
139
330
17
100
AcDbEntity
  8
0
100
AcDbLine
 10
227.30500000000012
 20
88.07899999999954
 30
0.0
 11
228.19300000000013
 21
87.32399999999954
 31
0.0
  0
LINE
  5
13A
330
17
100
AcDbEntity
  8
0
100
AcDbLine
 10
228.19300000000013
 20
87.32399999999954
 30
0.0
 11
229.21600000000012
 21
86.62399999999954
 31
0.0
  0
LINE
  5
13B
330
17
100
AcDbEntity
  8
0
100
AcDbLine
 10
229.21600000000012
 20
86.62399999999954
 30
0.0
 11
235.52500000000012
 21
83.40399999999954
 31
0.0
  0
LINE
  5
13C
330
17
100
AcDbEntity
  8
0
100
AcDbLine
 10
235.52500000000012
 20
83.40399999999954
 30
0.0
 11
235.9630000000001
 21
83.11499999999954
 31
0.0
  0
LINE
  5
13D
330
17
100
AcDbEntity
  8
0
100
AcDbLine
 10
235.9630000000001
 20
83.11499999999954
 30
0.0
 11
236.3720000000001
 21
82.79499999999955
 31
0.0
  0
LINE
  5
13E
330
17
100
AcDbEntity
  8
0
100
AcDbLine
 10
236.3720000000001
 20
82.79499999999955
 30
0.0
 11
236.7510000000001
 21
82.44499999999955
 31
0.0
  0
LINE
  5
13F
330
17
100
AcDbEntity
  8
0
100
AcDbLine
 10
236.7510000000001
 20
82.44499999999955
 30
0.0
 11
237.0980000000001
 21
82.06799999999956
 31
0.0
  0
LINE
  5
140
330
17
100
AcDbEntity
  8
0
100
AcDbLine
 10
237.0980000000001
 20
82.06799999999956
 30
0.0
 11
237.4130000000001
 21
81.66599999999956
 31
0.0
  0
LINE
  5
141
330
17
100
AcDbEntity
  8
0
100
AcDbLine
 10
237.4130000000001
 20
81.66599999999956
 30
0.0
 11
237.6940000000001
 21
81.24099999999956
 31
0.0
  0
LINE
  5
142
330
17
100
AcDbEntity
  8
0
100
AcDbLine
 10
237.6940000000001
 20
81.24099999999956
 30
0.0
 11
254.9690000000001
 21
43.38299999999956
 31
0.0
  0
LINE
  5
143
330
17
100
AcDbEntity
  8
0
100
AcDbLine
 10
254.9690000000001
 20
43.38299999999956
 30
0.0
 11
255.5210000000001
 21
42.47499999999956
 31
0.0
  0
LINE
  5
144
330
17
100
AcDbEntity
  8
0
100
AcDbLine
 10
255.5210000000001
 20
42.47499999999956
 30
0.0
 11
256.1370000000001
 21
41.61799999999956
 31
0.0
  0
LINE
  5
145
330
17
100
AcDbEntity
  8
0
100
AcDbLine
 10
256.1370000000001
 20
41.61799999999956
 30
0.0
 11
256.8130000000001
 21
40.814999999999564
 31
0.0
  0
LINE
  5
146
330
17
100
AcDbEntity
  8
0
100
AcDbLine
 10
256.8130000000001
 20
40.814999999999564
 30
0.0
 11
257.54500000000013
 21
40.067999999999564
 31
0.0
  0
LINE
  5
147
330
17
100
AcDbEntity
  8
0
100
AcDbLine
 10
257.54500000000013
 20
40.067999999999564
 30
0.0
 11
258.3290000000001
 21
39.37999999999956
 31
0.0
  0
LINE
  5
148
330
17
100
AcDbEntity
  8
0
100
AcDbLine
 10
258.3290000000001
 20
39.37999999999956
 30
0.0
 11
259.1610000000001
 21
38.75299999999956
 31
0.0
  0
LINE
  5
149
330
17
100
AcDbEntity
  8
0
100
AcDbLine
 10
259.1610000000001
 20
38.75299999999956
 30
0.0
 11
260.0380000000001
 21
38.19099999999956
 31
0.0
  0
LINE
  5
14A
330
17
100
AcDbEntity
  8
0
100
AcDbLine
 10
260.0380000000001
 20
38.19099999999956
 30
0.0
 11
260.95600000000013
 21
37.695999999999565
 31
0.0
  0
LINE
  5
14B
330
17
100
AcDbEntity
  8
0
100
AcDbLine
 10
260.95600000000013
 20
37.695999999999565
 30
0.0
 11
261.9110000000001
 21
37.26999999999956
 31
0.0
  0
LINE
  5
14C
330
17
100
AcDbEntity
  8
0
100
AcDbLine
 10
261.9110000000001
 20
37.26999999999956
 30
0.0
 11
262.8990000000001
 21
36.91599999999956
 31
0.0
  0
LINE
  5
14D
330
17
100
AcDbEntity
  8
0
100
AcDbLine
 10
262.8990000000001
 20
36.91599999999956
 30
0.0
 11
263.9170000000001
 21
36.63699999999956
 31
0.0
  0
LINE
  5
14E
330
17
100
AcDbEntity
  8
0
100
AcDbLine
 10
263.9170000000001
 20
36.63699999999956
 30
0.0
 11
264.9600000000001
 21
36.43499999999956
 31
0.0
  0
LINE
  5
14F
330
17
100
AcDbEntity
  8
0
100
AcDbLine
 10
264.9600000000001
 20
36.43499999999956
 30
0.0
 11
266.0250000000001
 21
36.31299999999956
 31
0.0
  0
LINE
  5
150
330
17
100
AcDbEntity
  8
0
100
AcDbLine
 10
266.0250000000001
 20
36.31299999999956
 30
0.0
 11
267.1080000000001
 21
36.27399999999956
 31
0.0
  0
LINE
  5
151
330
17
100
AcDbEntity
  8
0
100
AcDbLine
 10
267.1080000000001
 20
36.27399999999956
 30
0.0
 11
367.6280000000001
 21
48.34399999999956
 31
0.0
  0
LINE
  5
152
330
17
100
AcDbEntity
  8
0
100
AcDbLine
 10
367.6280000000001
 20
48.34399999999956
 30
0.0
 11
373.2980000000001
 21
49.58199999999956
 31
0.0
  0
LINE
  5
153
330
17
100
AcDbEntity
  8
0
100
AcDbLine
 10
373.2980000000001
 20
49.58199999999956
 30
0.0
 11
378.10000000000014
 21
51.18899999999956
 31
0.0
  0
LINE
  5
154
330
17
100
AcDbEntity
  8
0
100
AcDbLine
 10
378.10000000000014
 20
51.18899999999956
 30
0.0
 11
380.17000000000013
 21
52.156999999999556
 31
0.0
  0
LINE
  5
155
330
17
100
AcDbEntity
  8
0
100
AcDbLine
 10
380.17000000000013
 20
52.156999999999556
 30
0.0
 11
382.01600000000013
 21
53.24799999999956
 31
0.0
  0
LINE
  5
156
330
17
100
AcDbEntity
  8
0
100
AcDbLine
 10
382.01600000000013
 20
53.24799999999956
 30
0.0
 11
383.63600000000014
 21
54.471999999999554
 31
0.0
  0
LINE
  5
157
330
17
100
AcDbEntity
  8
0
100
AcDbLine
 10
383.63600000000014
 20
54.471999999999554
 30
0.0
 11
385.02800000000013
 21
55.83899999999955
 31
0.0
  0
LINE
  5
158
330
17
100
AcDbEntity
  8
0
100
AcDbLine
 10
385.02800000000013
 20
55.83899999999955
 30
0.0
 11
385.6370000000001
 21
56.57999999999955
 31
0.0
  0
LINE
  5
159
330
17
100
AcDbEntity
  8
0
100
AcDbLine
 10
385.6370000000001
 20
56.57999999999955
 30
0.0
 11
386.18900000000014
 21
57.35999999999955
 31
0.0
  0
LINE
  5
15A
330
17
100
AcDbEntity
  8
0
100
AcDbLine
 10
386.18900000000014
 20
57.35999999999955
 30
0.0
 11
386.68200000000013
 21
58.18099999999955
 31
0.0
  0
LINE
  5
15B
330
17
100
AcDbEntity
  8
0
100
AcDbLine
 10
386.68200000000013
 20
58.18099999999955
 30
0.0
 11
387.11700000000013
 21
59.04499999999955
 31
0.0
  0
LINE
  5
15C
330
17
100
AcDbEntity
  8
0
100
AcDbLine
 10
387.11700000000013
 20
59.04499999999955
 30
0.0
 11
387.4930000000001
 21
59.95199999999954
 31
0.0
  0
LINE
  5
15D
330
17
100
AcDbEntity
  8
0
100
AcDbLine
 10
387.4930000000001
 20
59.95199999999954
 30
0.0
 11
388.0680000000001
 21
61.901999999999546
 31
0.0
  0
LINE
  5
15E
330
17
100
AcDbEntity
  8
0
100
AcDbLine
 10
388.0680000000001
 20
61.901999999999546
 30
0.0
 11
388.4050000000001
 21
64.04099999999954
 31
0.0
  0
LINE
  5
15F
330
17
100
AcDbEntity
  8
0
100
AcDbLine
 10
388.4050000000001
 20
64.04099999999954
 30
0.0
 11
388.5010000000001
 21
66.37999999999954
 31
0.0
  0
LINE
  5
160
330
17
100
AcDbEntity
  8
0
100
AcDbLine
 10
388.5010000000001
 20
66.37999999999954
 30
0.0
 11
388.4580000000001
 21
67.62699999999954
 31
0.0
  0
LINE
  5
161
330
17
100
AcDbEntity
  8
0
100
AcDbLine
 10
-227.81099999999992
 20
339.20199999999954
 30
0.0
 11
-227.71599999999992
 21
338.29999999999956
 31
0.0
  0
LINE
  5
162
330
17
100
AcDbEntity
  8
0
100
AcDbLine
 10
-227.71599999999992
 20
338.29999999999956
 30
0.0
 11
-227.55799999999994
 21
337.40799999999956
 31
0.0
  0
LINE
  5
163
330
17
100
AcDbEntity
  8
0
100
AcDbLine
 10
-227.55799999999994
 20
337.40799999999956
 30
0.0
 11
-227.32699999999994
 21
336.53399999999954
 31
0.0
  0
LINE
  5
164
330
17
100
AcDbEntity
  8
0
100
AcDbLine
 10
-227.32699999999994
 20
336.53399999999954
 30
0.0
 11
-227.01299999999995
 21
335.6859999999995
 31
0.0
  0
LINE
  5
165
330
17
100
AcDbEntity
  8
0
100
AcDbLine
 10
-227.01299999999995
 20
335.6859999999995
 30
0.0
 11
-226.68299999999994
 21
334.9969999999995
 31
0.0
  0
LINE
  5
166
330
17
100
AcDbEntity
  8
0
100
AcDbLine
 10
-226.68299999999994
 20
334.9969999999995
 30
0.0
 11
-226.29599999999994
 21
334.3379999999995
 31
0.0
  0
LINE
  5
167
330
17
100
AcDbEntity
  8
0
100
AcDbLine
 10
-226.29599999999994
 20
334.3379999999995
 30
0.0
 11
-225.48599999999993
 21
333.24799999999954
 31
0.0
  0
LINE
  5
168
330
17
100
AcDbEntity
  8
0
100
AcDbLine
 10
-225.48599999999993
 20
333.24799999999954
 30
0.0
 11
-224.55399999999995
 21
332.2729999999995
 31
0.0
  0
LINE
  5
169
330
17
100
AcDbEntity
  8
0
100
AcDbLine
 10
-224.55399999999995
 20
332.2729999999995
 30
0.0
 11
-223.51299999999995
 21
331.4229999999995
 31
0.0
  0
LINE
  5
16A
330
17
100
AcDbEntity
  8
0
100
AcDbLine
 10
-223.51299999999995
 20
331.4229999999995
 30
0.0
 11
-222.37599999999995
 21
330.7069999999995
 31
0.0
  0
LINE
  5
16B
330
17
100
AcDbEntity
  8
0
100
AcDbLine
 10
-222.37599999999995
 20
330.7069999999995
 30
0.0
 11
-221.15599999999995
 21
330.1339999999995
 31
0.0
  0
LINE
  5
16C
330
17
100
AcDbEntity
  8
0
100
AcDbLine
 10
-221.15599999999995
 20
330.1339999999995
 30
0.0
 11
-219.86599999999996
 21
329.7139999999995
 31
0.0
  0
LINE
  5
16D
330
17
100
AcDbEntity
  8
0
100
AcDbLine
 10
-219.86599999999996
 20
329.7139999999995
 30
0.0
 11
-218.51899999999995
 21
329.4549999999995
 31
0.0
  0
LINE
  5
16E
330
17
100
AcDbEntity
  8
0
100
AcDbLine
 10
-218.51899999999995
 20
329.4549999999995
 30
0.0
 11
-101.84199999999994
 21
329.36699999999945
 31
0.0
  0
LINE
  5
16F
330
17
100
AcDbEntity
  8
0
100
AcDbLine
 10
-101.84199999999994
 20
329.36699999999945
 30
0.0
 11
-101.84199999999994
 21
344.3729999999995
 31
0.0
  0
LINE
  5
170
330
17
100
AcDbEntity
  8
0
100
AcDbLine
 10
-101.84199999999994
 20
344.3729999999995
 30
0.0
 11
-228.19399999999996
 21
344.3729999999995
 31
0.0
  0
LINE
  5
171
330
17
100
AcDbEntity
  8
0
100
AcDbLine
 10
-228.19399999999996
 20
344.3729999999995
 30
0.0
 11
-227.80999999999997
 21
339.2019999999995
 31
0.0
  0
ENDSEC
  0
SECTION
  2
OBJECTS
  0
DICTIONARY
  5
A
330
0
100
AcDbDictionary
281
1
  3
ACAD_COLOR
350
B
  3
ACAD_GROUP
350
C
  3
ACAD_LAYOUT
350
D
  3
ACAD_MATERIAL
350
E
  3
ACAD_MLEADERSTYLE
350
F
  3
ACAD_MLINESTYLE
350
10
  3
ACAD_PLOTSETTINGS
350
11
  3
ACAD_PLOTSTYLENAME
350
12
  3
ACAD_SCALELIST
350
14
  3
ACAD_TABLESTYLE
350
15
  3
ACAD_VISUALSTYLE
350
16
  3
EZDXF_META
350
2D
  0
DICTIONARY
  5
B
330
A
100
AcDbDictionary
281
1
  0
DICTIONARY
  5
C
330
A
100
AcDbDictionary
281
1
  0
DICTIONARY
  5
D
330
A
100
AcDbDictionary
281
1
  3
Model
350
1A
  3
Layout1
350
1E
  0
DICTIONARY
  5
E
330
A
100
AcDbDictionary
281
1
  3
ByBlock
350
1F
  3
ByLayer
350
20
  3
Global
350
21
  0
DICTIONARY
  5
F
330
A
100
AcDbDictionary
281
1
  3
Standard
350
2C
  0
DICTIONARY
  5
10
330
A
100
AcDbDictionary
281
1
  3
Standard
350
22
  0
DICTIONARY
  5
11
330
A
100
AcDbDictionary
281
1
  0
ACDBDICTIONARYWDFLT
  5
12
330
A
100
AcDbDictionary
281
1
  3
Normal
350
13
100
AcDbDictionaryWithDefault
340
13
  0
ACDBPLACEHOLDER
  5
13
330
12
  0
DICTIONARY
  5
14
330
A
100
AcDbDictionary
281
1
  0
DICTIONARY
  5
15
330
A
100
AcDbDictionary
281
1
  0
DICTIONARY
  5
16
330
A
100
AcDbDictionary
281
1
  0
LAYOUT
  5
1A
330
D
100
AcDbPlotSettings
  1

  4
A3
  6

 40
7.5
 41
20.0
 42
7.5
 43
20.0
 44
420.0
 45
297.0
 46
0.0
 47
0.0
 48
0.0
 49
0.0
140
0.0
141
0.0
142
1.0
143
1.0
 70
1024
 72
1
 73
0
 74
5
  7

 75
16
 76
0
 77
2
 78
300
147
1.0
148
0.0
149
0.0
100
AcDbLayout
  1
Model
 70
1
 71
0
 10
0.0
 20
0.0
 11
420.0
 21
297.0
 12
0.0
 22
0.0
 32
0.0
 14
1e+20
 24
1e+20
 34
1e+20
 15
-1e+20
 25
-1e+20
 35
-1e+20
146
0.0
 13
0.0
 23
0.0
 33
0.0
 16
1.0
 26
0.0
 36
0.0
 17
0.0
 27
1.0
 37
0.0
 76
1
330
17
  0
LAYOUT
  5
1E
330
D
100
AcDbPlotSettings
  1

  4
A3
  6

 40
7.5
 41
20.0
 42
7.5
 43
20.0
 44
420.0
 45
297.0
 46
0.0
 47
0.0
 48
0.0
 49
0.0
140
0.0
141
0.0
142
1.0
143
1.0
 70
0
 72
1
 73
0
 74
5
  7

 75
16
 76
0
 77
2
 78
300
147
1.0
148
0.0
149
0.0
100
AcDbLayout
  1
Layout1
 70
1
 71
1
 10
0.0
 20
0.0
 11
420.0
 21
297.0
 12
0.0
 22
0.0
 32
0.0
 14
1e+20
 24
1e+20
 34
1e+20
 15
-1e+20
 25
-1e+20
 35
-1e+20
146
0.0
 13
0.0
 23
0.0
 33
0.0
 16
1.0
 26
0.0
 36
0.0
 17
0.0
 27
1.0
 37
0.0
 76
1
330
1B
  0
MATERIAL
  5
1F
102
{ACAD_REACTORS
330
E
102
}
330
E
100
AcDbMaterial
  1
ByBlock
  2

 70
0
 40
1.0
 71
1
 41
1.0
 91
-1023410177
 42
1.0
 72
1
  3

 73
1
 74
1
 75
1
 44
0.5
 73
0
 45
1.0
 46
1.0
 77
1
  4

 78
1
 79
1
170
1
 48
1.0
171
1
  6

172
1
173
1
174
1
140
1.0
141
1.0
175
1
  7

176
1
177
1
178
1
143
1.0
179
1
  8

270
1
271
1
272
1
145
1.0
146
1.0
273
1
  9

274
1
275
1
276
1
 42
1.0
 72
1
  3

 73
1
 74
1
 75
1
 94
63
  0
MATERIAL
  5
20
102
{ACAD_REACTORS
330
E
102
}
330
E
100
AcDbMaterial
  1
ByLayer
  2

 70
0
 40
1.0
 71
1
 41
1.0
 91
-1023410177
 42
1.0
 72
1
  3

 73
1
 74
1
 75
1
 44
0.5
 73
0
 45
1.0
 46
1.0
 77
1
  4

 78
1
 79
1
170
1
 48
1.0
171
1
  6

172
1
173
1
174
1
140
1.0
141
1.0
175
1
  7

176
1
177
1
178
1
143
1.0
179
1
  8

270
1
271
1
272
1
145
1.0
146
1.0
273
1
  9

274
1
275
1
276
1
 42
1.0
 72
1
  3

 73
1
 74
1
 75
1
 94
63
  0
MATERIAL
  5
21
102
{ACAD_REACTORS
330
E
102
}
330
E
100
AcDbMaterial
  1
Global
  2

 70
0
 40
1.0
 71
1
 41
1.0
 91
-1023410177
 42
1.0
 72
1
  3

 73
1
 74
1
 75
1
 44
0.5
 73
0
 45
1.0
 46
1.0
 77
1
  4

 78
1
 79
1
170
1
 48
1.0
171
1
  6

172
1
173
1
174
1
140
1.0
141
1.0
175
1
  7

176
1
177
1
178
1
143
1.0
179
1
  8

270
1
271
1
272
1
145
1.0
146
1.0
273
1
  9

274
1
275
1
276
1
 42
1.0
 72
1
  3

 73
1
 74
1
 75
1
 94
63
  0
MLINESTYLE
  5
22
102
{ACAD_REACTORS
330
10
102
}
330
10
100
AcDbMlineStyle
  2
Standard
 70
0
  3

 62
256
 51
90.0
 52
90.0
 71
2
 49
0.5
 62
256
  6
BYLAYER
 49
-0.5
 62
256
  6
BYLAYER
  0
MLEADERSTYLE
  5
2C
102
{ACAD_REACTORS
330
F
102
}
330
F
100
AcDbMLeaderStyle
179
2
170
2
171
1
172
0
 90
2
 40
0.0
 41
0.0
173
1
 91
-1056964608
 92
-2
290
1
 42
2.0
291
1
 43
8.0
  3
Standard
 44
4.0
300

342
29
174
1
175
1
176
0
178
1
 93
-1056964608
 45
4.0
292
0
297
0
 46
4.0
 94
-1056964608
 47
1.0
 49
1.0
140
1.0
294
1
141
0.0
177
0
142
1.0
295
0
296
0
143
3.75
271
0
272
9
273
9
  0
DICTIONARY
  5
2D
330
A
100
AcDbDictionary
280
1
281
1
  3
CREATED_BY_EZDXF
350
2E
  3
WRITTEN_BY_EZDXF
350
174
  0
DICTIONARYVAR
  5
2E
330
2D
100
DictionaryVariables
280
0
  1
1.4.3 @ 2026-04-08T00:10:11.123259+00:00
  0
DICTIONARYVAR
  5
174
330
2D
100
DictionaryVariables
280
0
  1
1.4.3 @ 2026-04-08T00:10:11.126130+00:00
  0
ENDSEC
  0
EOF
