  0
SECTION
  2
HEADER
  9
$ACADVER
  1
AC1024
  9
$ACADMAINTVER
 70
6
  9
$DWGCODEPAGE
  3
ANSI_1252
  9
$LASTSAVEDBY
  1
ezdxf
  9
$INSBASE
 10
0.0
 20
0.0
 30
0.0
  9
$EXTMIN
 10
1e+20
 20
1e+20
 30
1e+20
  9
$EXTMAX
 10
-1e+20
 20
-1e+20
 30
-1e+20
  9
$LIMMIN
 10
0.0
 20
0.0
  9
$LIMMAX
 10
420.0
 20
297.0
  9
$ORTHOMODE
 70
0
  9
$REGENMODE
 70
1
  9
$FILLMODE
 70
1
  9
$QTEXTMODE
 70
0
  9
$MIRRTEXT
 70
1
  9
$LTSCALE
 40
1.0
  9
$ATTMODE
 70
1
  9
$TEXTSIZE
 40
2.5
  9
$TRACEWID
 40
1.0
  9
$TEXTSTYLE
  7
Standard
  9
$CLAYER
  8
0
  9
$CELTYPE
  6
ByLayer
  9
$CECOLOR
 62
256
  9
$CELTSCALE
 40
1.0
  9
$DISPSILH
 70
0
  9
$DIMSCALE
 40
1.0
  9
$DIMASZ
 40
2.5
  9
$DIMEXO
 40
0.625
  9
$DIMDLI
 40
3.75
  9
$DIMRND
 40
0.0
  9
$DIMDLE
 40
0.0
  9
$DIMEXE
 40
1.25
  9
$DIMTP
 40
0.0
  9
$DIMTM
 40
0.0
  9
$DIMTXT
 40
2.5
  9
$DIMCEN
 40
2.5
  9
$DIMTSZ
 40
0.0
  9
$DIMTOL
 70
0
  9
$DIMLIM
 70
0
  9
$DIMTIH
 70
0
  9
$DIMTOH
 70
0
  9
$DIMSE1
 70
0
  9
$DIMSE2
 70
0
  9
$DIMTAD
 70
1
  9
$DIMZIN
 70
8
  9
$DIMBLK
  1

  9
$DIMASO
 70
1
  9
$DIMSHO
 70
1
  9
$DIMPOST
  1

  9
$DIMAPOST
  1

  9
$DIMALT
 70
0
  9
$DIMALTD
 70
3
  9
$DIMALTF
 40
0.03937007874
  9
$DIMLFAC
 40
1.0
  9
$DIMTOFL
 70
1
  9
$DIMTVP
 40
0.0
  9
$DIMTIX
 70
0
  9
$DIMSOXD
 70
0
  9
$DIMSAH
 70
0
  9
$DIMBLK1
  1

  9
$DIMBLK2
  1

  9
$DIMSTYLE
  2
ISO-25
  9
$DIMCLRD
 70
0
  9
$DIMCLRE
 70
0
  9
$DIMCLRT
 70
0
  9
$DIMTFAC
 40
1.0
  9
$DIMGAP
 40
0.625
  9
$DIMJUST
 70
0
  9
$DIMSD1
 70
0
  9
$DIMSD2
 70
0
  9
$DIMTOLJ
 70
0
  9
$DIMTZIN
 70
8
  9
$DIMALTZ
 70
0
  9
$DIMALTTZ
 70
0
  9
$DIMUPT
 70
0
  9
$DIMDEC
 70
2
  9
$DIMTDEC
 70
2
  9
$DIMALTU
 70
2
  9
$DIMALTTD
 70
3
  9
$DIMTXSTY
  7
Standard
  9
$DIMAUNIT
 70
0
  9
$DIMADEC
 70
0
  9
$DIMALTRND
 40
0.0
  9
$DIMAZIN
 70
0
  9
$DIMDSEP
 70
44
  9
$DIMATFIT
 70
3
  9
$DIMFRAC
 70
0
  9
$DIMLDRBLK
  1

  9
$DIMLUNIT
 70
2
  9
$DIMLWD
 70
-2
  9
$DIMLWE
 70
-2
  9
$DIMTMOVE
 70
0
  9
$DIMFXL
 40
1.0
  9
$DIMFXLON
 70
0
  9
$DIMJOGANG
 40
0.785398163397
  9
$DIMTFILL
 70
0
  9
$DIMTFILLCLR
 70
0
  9
$DIMARCSYM
 70
0
  9
$DIMLTYPE
  6

  9
$DIMLTEX1
  6

  9
$DIMLTEX2
  6

  9
$DIMTXTDIRECTION
 70
0
  9
$LUNITS
 70
2
  9
$LUPREC
 70
4
  9
$SKETCHINC
 40
1.0
  9
$FILLETRAD
 40
10.0
  9
$AUNITS
 70
0
  9
$AUPREC
 70
2
  9
$MENU
  1
.
  9
$ELEVATION
 40
0.0
  9
$PELEVATION
 40
0.0
  9
$THICKNESS
 40
0.0
  9
$LIMCHECK
 70
0
  9
$CHAMFERA
 40
0.0
  9
$CHAMFERB
 40
0.0
  9
$CHAMFERC
 40
0.0
  9
$CHAMFERD
 40
0.0
  9
$SKPOLY
 70
0
  9
$TDCREATE
 40
2461142.7371412036
  9
$TDUCREATE
 40
2458532.153996898
  9
$TDUPDATE
 40
2461142.7371412036
  9
$TDUUPDATE
 40
2458532.1544311
  9
$TDINDWG
 40
0.0
  9
$TDUSRTIMER
 40
0.0
  9
$USRTIMER
 70
1
  9
$ANGBASE
 50
0.0
  9
$ANGDIR
 70
0
  9
$PDMODE
 70
0
  9
$PDSIZE
 40
0.0
  9
$PLINEWID
 40
0.0
  9
$SPLFRAME
 70
0
  9
$SPLINETYPE
 70
6
  9
$SPLINESEGS
 70
8
  9
$HANDSEED
  5
37
  9
$SURFTAB1
 70
6
  9
$SURFTAB2
 70
6
  9
$SURFTYPE
 70
6
  9
$SURFU
 70
6
  9
$SURFV
 70
6
  9
$UCSBASE
  2

  9
$UCSNAME
  2

  9
$UCSORG
 10
0.0
 20
0.0
 30
0.0
  9
$UCSXDIR
 10
1.0
 20
0.0
 30
0.0
  9
$UCSYDIR
 10
0.0
 20
1.0
 30
0.0
  9
$UCSORTHOREF
  2

  9
$UCSORTHOVIEW
 70
0
  9
$UCSORGTOP
 10
0.0
 20
0.0
 30
0.0
  9
$UCSORGBOTTOM
 10
0.0
 20
0.0
 30
0.0
  9
$UCSORGLEFT
 10
0.0
 20
0.0
 30
0.0
  9
$UCSORGRIGHT
 10
0.0
 20
0.0
 30
0.0
  9
$UCSORGFRONT
 10
0.0
 20
0.0
 30
0.0
  9
$UCSORGBACK
 10
0.0
 20
0.0
 30
0.0
  9
$PUCSBASE
  2

  9
$PUCSNAME
  2

  9
$PUCSORG
 10
0.0
 20
0.0
 30
0.0
  9
$PUCSXDIR
 10
1.0
 20
0.0
 30
0.0
  9
$PUCSYDIR
 10
0.0
 20
1.0
 30
0.0
  9
$PUCSORTHOREF
  2

  9
$PUCSORTHOVIEW
 70
0
  9
$PUCSORGTOP
 10
0.0
 20
0.0
 30
0.0
  9
$PUCSORGBOTTOM
 10
0.0
 20
0.0
 30
0.0
  9
$PUCSORGLEFT
 10
0.0
 20
0.0
 30
0.0
  9
$PUCSORGRIGHT
 10
0.0
 20
0.0
 30
0.0
  9
$PUCSORGFRONT
 10
0.0
 20
0.0
 30
0.0
  9
$PUCSORGBACK
 10
0.0
 20
0.0
 30
0.0
  9
$USERI1
 70
0
  9
$USERI2
 70
0
  9
$USERI3
 70
0
  9
$USERI4
 70
0
  9
$USERI5
 70
0
  9
$USERR1
 40
0.0
  9
$USERR2
 40
0.0
  9
$USERR3
 40
0.0
  9
$USERR4
 40
0.0
  9
$USERR5
 40
0.0
  9
$WORLDVIEW
 70
1
  9
$SHADEDGE
 70
3
  9
$SHADEDIF
 70
70
  9
$TILEMODE
 70
1
  9
$MAXACTVP
 70
64
  9
$PINSBASE
 10
0.0
 20
0.0
 30
0.0
  9
$PLIMCHECK
 70
0
  9
$PEXTMIN
 10
1e+20
 20
1e+20
 30
1e+20
  9
$PEXTMAX
 10
-1e+20
 20
-1e+20
 30
-1e+20
  9
$PLIMMIN
 10
0.0
 20
0.0
  9
$PLIMMAX
 10
420.0
 20
297.0
  9
$UNITMODE
 70
0
  9
$VISRETAIN
 70
1
  9
$PLINEGEN
 70
0
  9
$PSLTSCALE
 70
1
  9
$TREEDEPTH
 70
3020
  9
$CMLSTYLE
  2
Standard
  9
$CMLJUST
 70
0
  9
$CMLSCALE
 40
20.0
  9
$PROXYGRAPHICS
 70
1
  9
$MEASUREMENT
 70
1
  9
$CELWEIGHT
370
-1
  9
$ENDCAPS
280
0
  9
$JOINSTYLE
280
0
  9
$LWDISPLAY
290
0
  9
$INSUNITS
 70
4
  9
$HYPERLINKBASE
  1

  9
$STYLESHEET
  1

  9
$XEDIT
290
1
  9
$CEPSNTYPE
380
0
  9
$PSTYLEMODE
290
1
  9
$FINGERPRINTGUID
  2
{C67947D9-EBE8-47B8-8BF3-DF32A391AD59}
  9
$VERSIONGUID
  2
{7DE70A79-5D42-4E63-A72D-0AE92F8C4F1C}
  9
$EXTNAMES
290
1
  9
$PSVPSCALE
 40
0.0
  9
$OLESTARTUP
290
0
  9
$SORTENTS
280
127
  9
$INDEXCTL
280
0
  9
$HIDETEXT
280
1
  9
$XCLIPFRAME
280
1
  9
$HALOGAP
280
0
  9
$OBSCOLOR
 70
257
  9
$OBSLTYPE
280
0
  9
$INTERSECTIONDISPLAY
280
0
  9
$INTERSECTIONCOLOR
 70
257
  9
$DIMASSOC
280
2
  9
$PROJECTNAME
  1

  9
$CAMERADISPLAY
290
0
  9
$LENSLENGTH
 40
50.0
  9
$CAMERAHEIGHT
 40
0.0
  9
$STEPSPERSEC
 40
24.0
  9
$STEPSIZE
 40
100.0
  9
$3DDWFPREC
 40
2.0
  9
$PSOLWIDTH
 40
0.005
  9
$PSOLHEIGHT
 40
0.08
  9
$LOFTANG1
 40
1.570796326795
  9
$LOFTANG2
 40
1.570796326795
  9
$LOFTMAG1
 40
0.0
  9
$LOFTMAG2
 40
0.0
  9
$LOFTPARAM
 70
7
  9
$LOFTNORMALS
280
1
  9
$LATITUDE
 40
37.795
  9
$LONGITUDE
 40
-122.394
  9
$NORTHDIRECTION
 40
0.0
  9
$TIMEZONE
 70
-8000
  9
$LIGHTGLYPHDISPLAY
280
1
  9
$TILEMODELIGHTSYNCH
280
1
  9
$CMATERIAL
347
20
  9
$SOLIDHIST
280
0
  9
$SHOWHIST
280
1
  9
$DWFFRAME
280
2
  9
$DGNFRAME
280
2
  9
$REALWORLDSCALE
290
1
  9
$INTERFERECOLOR
 62
256
  9
$CSHADOW
280
0
  9
$SHADOWPLANELOCATION
 40
0.0
  0
ENDSEC
  0
SECTION
  2
CLASSES
  0
CLASS
  1
ACDBDICTIONARYWDFLT
  2
AcDbDictionaryWithDefault
  3
ObjectDBX Classes
 90
0
 91
0
280
0
281
0
  0
CLASS
  1
SUN
  2
AcDbSun
  3
SCENEOE
 90
1153
 91
0
280
0
281
0
  0
CLASS
  1
VISUALSTYLE
  2
AcDbVisualStyle
  3
ObjectDBX Classes
 90
4095
 91
0
280
0
281
0
  0
CLASS
  1
MATERIAL
  2
AcDbMaterial
  3
ObjectDBX Classes
 90
1153
 91
0
280
0
281
0
  0
CLASS
  1
SCALE
  2
AcDbScale
  3
ObjectDBX Classes
 90
1153
 91
0
280
0
281
0
  0
CLASS
  1
TABLESTYLE
  2
AcDbTableStyle
  3
ObjectDBX Classes
 90
4095
 91
0
280
0
281
0
  0
CLASS
  1
MLEADERSTYLE
  2
AcDbMLeaderStyle
  3
ACDB_MLEADERSTYLE_CLASS
 90
4095
 91
0
280
0
281
0
  0
CLASS
  1
DICTIONARYVAR
  2
AcDbDictionaryVar
  3
ObjectDBX Classes
 90
0
 91
0
280
0
281
0
  0
CLASS
  1
CELLSTYLEMAP
  2
AcDbCellStyleMap
  3
ObjectDBX Classes
 90
1152
 91
0
280
0
281
0
  0
CLASS
  1
MENTALRAYRENDERSETTINGS
  2
AcDbMentalRayRenderSettings
  3
SCENEOE
 90
1024
 91
0
280
0
281
0
  0
CLASS
  1
ACDBDETAILVIEWSTYLE
  2
AcDbDetailViewStyle
  3
ObjectDBX Classes
 90
1025
 91
0
280
0
281
0
  0
CLASS
  1
ACDBSECTIONVIEWSTYLE
  2
AcDbSectionViewStyle
  3
ObjectDBX Classes
 90
1025
 91
0
280
0
281
0
  0
CLASS
  1
RASTERVARIABLES
  2
AcDbRasterVariables
  3
ISM
 90
0
 91
0
280
0
281
0
  0
CLASS
  1
ACDBPLACEHOLDER
  2
AcDbPlaceHolder
  3
ObjectDBX Classes
 90
0
 91
0
280
0
281
0
  0
CLASS
  1
LAYOUT
  2
AcDbLayout
  3
ObjectDBX Classes
 90
0
 91
0
280
0
281
0
  0
ENDSEC
  0
SECTION
  2
TABLES
  0
TABLE
  2
VPORT
  5
8
330
0
100
AcDbSymbolTable
 70
1
  0
VPORT
  5
23
330
8
100
AcDbSymbolTableRecord
100
AcDbViewportTableRecord
  2
*Active
 70
0
 10
0.0
 20
0.0
 11
1.0
 21
1.0
 12
0.0
 22
0.0
 13
0.0
 23
0.0
 14
0.5
 24
0.5
 15
0.5
 25
0.5
 16
0.0
 26
0.0
 36
1.0
 17
0.0
 27
0.0
 37
0.0
 40
1000.0
 41
1.34
 42
50.0
 43
0.0
 44
0.0
 50
0.0
 51
0.0
 71
0
 72
1000
 73
1
 74
3
 75
0
 76
0
 77
0
 78
0
281
0
 65
0
146
0.0
  0
ENDTAB
  0
TABLE
  2
LTYPE
  5
2
330
0
100
AcDbSymbolTable
 70
3
  0
LTYPE
  5
24
330
2
100
AcDbSymbolTableRecord
100
AcDbLinetypeTableRecord
  2
ByBlock
 70
0
  3

 72
65
 73
0
 40
0.0
  0
LTYPE
  5
25
330
2
100
AcDbSymbolTableRecord
100
AcDbLinetypeTableRecord
  2
ByLayer
 70
0
  3

 72
65
 73
0
 40
0.0
  0
LTYPE
  5
26
330
2
100
AcDbSymbolTableRecord
100
AcDbLinetypeTableRecord
  2
Continuous
 70
0
  3

 72
65
 73
0
 40
0.0
  0
ENDTAB
  0
TABLE
  2
LAYER
  5
1
330
0
100
AcDbSymbolTable
 70
2
  0
LAYER
  5
27
330
1
100
AcDbSymbolTableRecord
100
AcDbLayerTableRecord
  2
0
 70
0
 62
7
  6
Continuous
370
-3
390
13
347
21
  0
LAYER
  5
28
330
1
100
AcDbSymbolTableRecord
100
AcDbLayerTableRecord
  2
Defpoints
 70
0
 62
7
  6
Continuous
290
0
370
-3
390
13
347
21
  0
ENDTAB
  0
TABLE
  2
STYLE
  5
5
330
0
100
AcDbSymbolTable
 70
1
  0
STYLE
  5
29
330
5
100
AcDbSymbolTableRecord
100
AcDbTextStyleTableRecord
  2
Standard
 70
0
 40
0.0
 41
1.0
 50
0.0
 71
0
 42
2.5
  3
txt
  4

  0
ENDTAB
  0
TABLE
  2
VIEW
  5
7
330
0
100
AcDbSymbolTable
 70
0
  0
ENDTAB
  0
TABLE
  2
UCS
  5
6
330
0
100
AcDbSymbolTable
 70
0
  0
ENDTAB
  0
TABLE
  2
APPID
  5
3
330
0
100
AcDbSymbolTable
 70
3
  0
APPID
  5
2A
330
3
100
AcDbSymbolTableRecord
100
AcDbRegAppTableRecord
  2
ACAD
 70
0
  0
APPID
  5
34
330
3
100
AcDbSymbolTableRecord
100
AcDbRegAppTableRecord
  2
HATCHBACKGROUNDCOLOR
 70
0
  0
APPID
  5
35
330
3
100
AcDbSymbolTableRecord
100
AcDbRegAppTableRecord
  2
EZDXF
 70
0
  0
ENDTAB
  0
TABLE
  2
DIMSTYLE
  5
4
330
0
100
AcDbSymbolTable
 70
1
100
AcDbDimStyleTable
  0
DIMSTYLE
105
2B
330
4
100
AcDbSymbolTableRecord
100
AcDbDimStyleTableRecord
  2
Standard
 70
0
 40
1.0
 41
2.5
 42
0.625
 43
3.75
 44
1.25
 45
0.0
 46
0.0
 47
0.0
 48
0.0
 49
2.5
140
2.5
141
2.5
142
0.0
143
0.03937007874
144
1.0
145
0.0
146
1.0
147
0.625
148
0.0
 69
0
 70
0
 71
0
 72
0
 73
0
 74
0
 75
0
 76
0
 77
1
 78
8
 79
3
170
0
171
3
172
1
173
0
174
0
175
0
176
0
177
0
178
0
179
2
271
2
272
2
273
2
274
3
275
0
276
0
277
2
278
44
279
0
280
0
281
0
282
0
283
0
284
8
285
0
286
0
288
0
289
3
290
0
371
-2
372
-2
  0
ENDTAB
  0
TABLE
  2
BLOCK_RECORD
  5
9
330
0
100
AcDbSymbolTable
 70
2
  0
BLOCK_RECORD
  5
17
330
9
100
AcDbSymbolTableRecord
100
AcDbBlockTableRecord
  2
*Model_Space
340
1A
 70
0
280
1
281
0
  0
BLOCK_RECORD
  5
1B
330
9
100
AcDbSymbolTableRecord
100
AcDbBlockTableRecord
  2
*Paper_Space
340
1E
 70
0
280
1
281
0
  0
ENDTAB
  0
ENDSEC
  0
SECTION
  2
BLOCKS
  0
BLOCK
  5
18
330
17
100
AcDbEntity
  8
0
100
AcDbBlockBegin
  2
*Model_Space
 70
0
 10
0.0
 20
0.0
 30
0.0
  3
*Model_Space
  1

  0
ENDBLK
  5
19
330
17
100
AcDbEntity
  8
0
100
AcDbBlockEnd
  0
BLOCK
  5
1C
330
1B
100
AcDbEntity
  8
0
100
AcDbBlockBegin
  2
*Paper_Space
 70
0
 10
0.0
 20
0.0
 30
0.0
  3
*Paper_Space
  1

  0
ENDBLK
  5
1D
330
1B
100
AcDbEntity
  8
0
100
AcDbBlockEnd
  0
ENDSEC
  0
SECTION
  2
ENTITIES
  0
LWPOLYLINE
  5
2F
330
17
100
AcDbEntity
  8
0
100
AcDbPolyline
 90
4
 70
1
 10
28.250642
 20
-177.10962800000001
 10
28.196032
 20
-194.2846
 10
21.168868
 20
-194.31000000000003
 10
21.223732
 20
-177.12309000000005
  0
LWPOLYLINE
  5
30
330
17
100
AcDbEntity
  8
0
100
AcDbPolyline
 90
146
 70
1
 10
23.233126
 20
-254.09245600000003
 10
29.543501999999997
 20
-243.71477800000005
 10
33.993074
 20
-234.98149600000005
 10
38.496494
 20
-223.39198400000004
 10
38.848791999999996
 20
-221.96323400000003
 10
39.054278
 20
-220.50959200000003
 10
39.11193599999999
 20
-219.04274200000003
 10
39.020241999999996
 20
-217.57411400000004
 10
38.630606
 20
-215.19261000000003
 10
38.040563999999996
 20
-212.98890600000004
 10
37.2745
 20
-210.95716000000002
 10
36.356544
 20
-209.09178400000002
 10
35.311333999999995
 20
-207.38719
 10
34.163000000000004
 20
-205.837536
 10
32.935926
 20
-204.43748800000003
 10
30.343348000000006
 20
-202.06335
 10
27.728164000000007
 20
-200.21956400000002
 10
25.285446000000004
 20
-198.86117200000004
 10
22.326092000000006
 20
-197.61504800000006
 10
22.306534000000006
 20
-197.60285600000006
 10
22.288754000000008
 20
-197.58939400000006
 10
22.27300600000001
 20
-197.57466200000005
 10
22.25903600000001
 20
-197.55891400000004
 10
22.246844000000007
 20
-197.54215000000005
 10
22.236176000000007
 20
-197.52437000000003
 10
22.227286000000007
 20
-197.50608200000002
 10
22.220174000000007
 20
-197.487032
 10
22.214840000000006
 20
-197.467474
 10
22.211030000000004
 20
-197.447662
 10
22.208744000000006
 20
-197.42759600000002
 10
22.208236000000007
 20
-197.40753000000004
 10
22.209252000000006
 20
-197.38746400000005
 10
22.21179200000001
 20
-197.36739800000007
 10
22.21585600000001
 20
-197.34758600000006
 10
22.221444000000012
 20
-197.32828200000006
 10
22.228556000000015
 20
-197.30948600000008
 10
22.237192000000015
 20
-197.2911980000001
 10
22.247352000000017
 20
-197.2736720000001
 10
22.25903600000002
 20
-197.25716200000008
 10
22.27199000000002
 20
-197.24141400000008
 10
22.28646800000002
 20
-197.22693600000008
 10
22.30221600000002
 20
-197.21372800000006
 10
22.319488000000018
 20
-197.20179000000005
 10
22.338030000000018
 20
-197.19137600000005
 10
22.357842000000016
 20
-197.18248600000004
 10
22.378924000000016
 20
-197.17537400000003
 10
22.401276000000017
 20
-197.17029400000004
 10
22.424898000000017
 20
-197.16699200000005
 10
36.45636600000002
 20
-197.16369000000003
 10
36.665154000000015
 20
-197.19391600000003
 10
36.867846000000014
 20
-197.24751000000003
 10
37.062410000000014
 20
-197.32345600000005
 10
37.246814000000015
 20
-197.42099200000004
 10
37.419280000000015
 20
-197.53910200000004
 10
37.57803000000001
 20
-197.67677000000006
 10
37.72128600000001
 20
-197.83323400000006
 10
43.662346000000014
 20
-205.93151600000007
 10
43.806364000000016
 20
-206.08899600000007
 10
43.966130000000014
 20
-206.22768000000008
 10
44.139612000000014
 20
-206.3468060000001
 10
44.32503200000001
 20
-206.4453580000001
 10
44.520612000000014
 20
-206.5223200000001
 10
44.72432000000001
 20
-206.57693000000012
 10
44.934632000000015
 20
-206.6081720000001
 10
78.39024200000001
 20
-206.65617800000012
 10
78.59522000000001
 20
-206.63966800000009
 10
78.79537200000001
 20
-206.60106000000007
 10
78.98917400000002
 20
-206.5411160000001
 10
79.17484800000001
 20
-206.4605980000001
 10
79.35087000000001
 20
-206.3602680000001
 10
79.51546200000001
 20
-206.2408880000001
 10
79.66684600000002
 20
-206.10322000000008
 10
79.737204
 20
-206.02778200000006
 10
86.24112800000002
 20
-197.81672400000008
 10
86.38311400000002
 20
-197.67245200000008
 10
86.53881600000001
 20
-197.54545200000007
 10
86.70671000000002
 20
-197.43674000000007
 10
86.88501800000002
 20
-197.3470780000001
 10
87.07196200000001
 20
-197.2772280000001
 10
87.26627200000001
 20
-197.2279520000001
 10
87.465916
 20
-197.2000120000001
 10
105.55554200000002
 20
-197.1817240000001
 10
102.67416600000001
 20
-205.6660860000001
 10
102.57028000000001
 20
-205.9068780000001
 10
102.44886800000002
 20
-206.1367480000001
 10
102.31094600000002
 20
-206.3546800000001
 10
102.15727600000001
 20
-206.56016600000007
 10
101.98887400000001
 20
-206.75244400000005
 10
101.80675600000001
 20
-206.93075200000007
 10
101.61168400000001
 20
-207.09458200000006
 10
101.40467400000001
 20
-207.24291800000003
 10
101.18674200000001
 20
-207.37525200000002
 10
100.95865
 20
-207.49082200000004
 10
100.721414
 20
-207.58886600000002
 10
100.47605
 20
-207.66862200000003
 10
100.22332
 20
-207.72958200000002
 10
99.96424
 20
-207.77073000000004
 10
96.125538
 20
-208.05927400000002
 10
92.92463000000001
 20
-208.54670000000002
 10
90.07729000000002
 20
-209.22107000000003
 10
87.56370600000001
 20
-210.04987200000002
 10
85.36432
 20
-211.000086
 10
83.45932
 20
-212.03920000000002
 10
81.829148
 20
-213.134702
 10
80.45399200000001
 20
-214.25357200000002
 10
79.314294
 20
-215.36329800000001
 10
78.39049600000001
 20
-216.431114
 10
77.66278600000001
 20
-217.424508
 10
77.111606
 20
-218.31046
 10
76.459588
 20
-219.62999000000002
 10
51.910233999999996
 20
-281.60370400000005
 10
51.825143999999995
 20
-281.75839
 10
51.728623999999996
 20
-281.90393200000005
 10
51.621435999999996
 20
-282.04007600000006
 10
51.504087999999996
 20
-282.16631400000006
 10
51.377342
 20
-282.28213800000003
 10
51.242214
 20
-282.38704000000007
 10
51.099212
 20
-282.480766
 10
50.949352
 20
-282.56255400000003
 10
50.793141999999996
 20
-282.63214999999997
 10
50.631344
 20
-282.68904599999996
 10
50.46471999999999
 20
-282.732988
 10
50.294031999999994
 20
-282.76346799999993
 10
50.120042
 20
-282.77972399999993
 10
49.943512
 20
-282.781756
 10
16.567657999999994
 20
-278.944324
 10
16.283431999999994
 20
-278.87193399999995
 10
16.010127999999995
 20
-278.77541399999996
 10
15.748761999999992
 20
-278.6562879999999
 10
15.500603999999994
 20
-278.5155719999999
 10
15.266923999999994
 20
-278.3545359999999
 10
15.048737999999993
 20
-278.17444999999987
 10
14.847315999999994
 20
-277.9763299999999
 10
14.663673999999993
 20
-277.7616999999999
 10
14.499081999999992
 20
-277.5315759999999
 10
14.354555999999992
 20
-277.2874819999999
 10
14.231365999999992
 20
-277.0304339999999
 10
14.130527999999993
 20
-276.7617019999999
 10
14.053311999999991
 20
-276.48230199999995
 10
14.000733999999992
 20
-276.19375799999995
 10
13.974063999999993
 20
-275.89708599999994
 10
14.003273999999992
 20
-274.528534
 10
14.236953999999994
 20
-272.828512
 10
14.734031999999994
 20
-270.768826
 10
15.553435999999994
 20
-268.321536
 10
18.394679999999994
 20
-262.15136800000005
  0
LWPOLYLINE
  5
31
330
17
100
AcDbEntity
  8
0
100
AcDbPolyline
 90
12
 70
1
 10
119.124984
 20
-197.22363400000003
 10
145.864326
 20
-197.05472400000005
 10
145.86331
 20
-197.05523200000002
 10
145.629122
 20
-197.57415400000002
 10
145.162778
 20
-199.00341200000003
 10
144.72716799999998
 20
-201.26452000000003
 10
144.60321599999997
 20
-202.68234800000002
 10
144.58086399999996
 20
-204.06969600000002
 10
116.66169199999997
 20
-205.07375800000003
 10
117.75439999999998
 20
-202.70546200000004
 10
118.58396399999998
 20
-200.20153000000005
 10
118.912894
 20
-198.75271400000005
  0
LWPOLYLINE
  5
32
330
17
100
AcDbEntity
  8
0
100
AcDbPolyline
 90
10
 70
1
 10
149.444202
 20
-202.04150600000008
 10
177.03926999999996
 20
-201.35824600000007
 10
178.20436799999996
 20
-201.11110400000007
 10
179.33288999999996
 20
-200.7295960000001
 10
180.41543799999994
 20
-200.22439000000008
 10
181.44261399999994
 20
-199.6059000000001
 10
182.40501999999995
 20
-198.88479400000008
 10
183.29351199999996
 20
-198.07148600000008
 10
184.09869199999994
 20
-197.17639000000008
 10
149.45918799999995
 20
-197.3201540000001
  0
LWPOLYLINE
  5
33
330
17
100
AcDbEntity
  8
0
100
AcDbPolyline
 90
53
 70
1
 10
119.96750199999995
 20
-177.3359420000001
 10
119.95784999999995
 20
-178.5444740000001
 10
119.84253399999994
 20
-179.8794980000001
 10
119.58421599999996
 20
-181.1004760000001
 10
119.39879599999995
 20
-181.6620700000001
 10
119.17476799999994
 20
-182.1878500000001
 10
118.91086199999995
 20
-182.6752760000001
 10
118.60606199999995
 20
-183.12180800000013
 10
118.25935199999995
 20
-183.5251600000001
 10
117.86971599999995
 20
-183.88253800000012
 10
117.43639199999994
 20
-184.19191000000012
 10
116.95810999999995
 20
-184.4504820000001
 10
116.43385399999994
 20
-184.65596800000012
 10
115.86260799999994
 20
-184.8058280000001
 10
115.24335599999995
 20
-184.89752200000012
 10
96.70719799999993
 20
-184.9285100000001
 10
94.52736999999993
 20
-183.4923940000001
 10
77.63611599999994
 20
-183.4766460000001
 10
77.33436399999995
 20
-183.4301640000001
 10
77.04277199999994
 20
-183.35472600000008
 10
76.76311799999993
 20
-183.25185600000012
 10
76.49692599999995
 20
-183.1230780000001
 10
76.24546599999994
 20
-182.96991600000013
 10
76.01076999999994
 20
-182.79414800000012
 10
75.79410799999994
 20
-182.59704400000012
 10
75.59700399999994
 20
-182.38038200000014
 10
75.42123599999994
 20
-182.14568600000015
 10
75.26807399999993
 20
-181.89422600000015
 10
75.13929599999993
 20
-181.62803400000016
 10
75.03642599999993
 20
-181.34838000000016
 10
74.96098799999993
 20
-181.05678800000015
 10
74.91450599999993
 20
-180.75503600000016
 10
74.89875799999993
 20
-180.29758200000015
 10
74.91044199999993
 20
-180.01996000000014
 10
74.94498599999993
 20
-179.75859400000016
 10
75.00137399999993
 20
-179.50459400000014
 10
75.07858999999992
 20
-179.25872200000015
 10
75.17587199999991
 20
-179.02224800000016
 10
75.29194999999991
 20
-178.79618800000014
 10
75.42580799999992
 20
-178.58130400000016
 10
75.57642999999992
 20
-178.37861200000015
 10
75.74305399999992
 20
-178.18938200000014
 10
75.92440999999992
 20
-178.01437600000017
 10
76.11973599999992
 20
-177.85461000000015
 10
76.32776199999992
 20
-177.71110000000013
 10
76.54772599999993
 20
-177.58486200000016
 10
76.77861199999992
 20
-177.47691200000017
 10
77.01940399999991
 20
-177.38801200000015
 10
77.26883199999992
 20
-177.31943200000015
 10
61.042041999999924
 20
-177.31282800000017
 10
60.98819399999993
 20
-194.43852400000017
 10
184.43041599999992
 20
-194.46544800000018
 10
184.48400999999993
 20
-177.36337400000016
  0
ENDSEC
  0
SECTION
  2
OBJECTS
  0
DICTIONARY
  5
A
330
0
100
AcDbDictionary
281
1
  3
ACAD_COLOR
350
B
  3
ACAD_GROUP
350
C
  3
ACAD_LAYOUT
350
D
  3
ACAD_MATERIAL
350
E
  3
ACAD_MLEADERSTYLE
350
F
  3
ACAD_MLINESTYLE
350
10
  3
ACAD_PLOTSETTINGS
350
11
  3
ACAD_PLOTSTYLENAME
350
12
  3
ACAD_SCALELIST
350
14
  3
ACAD_TABLESTYLE
350
15
  3
ACAD_VISUALSTYLE
350
16
  3
EZDXF_META
350
2D
  0
DICTIONARY
  5
B
330
A
100
AcDbDictionary
281
1
  0
DICTIONARY
  5
C
330
A
100
AcDbDictionary
281
1
  0
DICTIONARY
  5
D
330
A
100
AcDbDictionary
281
1
  3
Model
350
1A
  3
Layout1
350
1E
  0
DICTIONARY
  5
E
330
A
100
AcDbDictionary
281
1
  3
ByBlock
350
1F
  3
ByLayer
350
20
  3
Global
350
21
  0
DICTIONARY
  5
F
330
A
100
AcDbDictionary
281
1
  3
Standard
350
2C
  0
DICTIONARY
  5
10
330
A
100
AcDbDictionary
281
1
  3
Standard
350
22
  0
DICTIONARY
  5
11
330
A
100
AcDbDictionary
281
1
  0
ACDBDICTIONARYWDFLT
  5
12
330
A
100
AcDbDictionary
281
1
  3
Normal
350
13
100
AcDbDictionaryWithDefault
340
13
  0
ACDBPLACEHOLDER
  5
13
330
12
  0
DICTIONARY
  5
14
330
A
100
AcDbDictionary
281
1
  0
DICTIONARY
  5
15
330
A
100
AcDbDictionary
281
1
  0
DICTIONARY
  5
16
330
A
100
AcDbDictionary
281
1
  0
LAYOUT
  5
1A
330
D
100
AcDbPlotSettings
  1

  4
A3
  6

 40
7.5
 41
20.0
 42
7.5
 43
20.0
 44
420.0
 45
297.0
 46
0.0
 47
0.0
 48
0.0
 49
0.0
140
0.0
141
0.0
142
1.0
143
1.0
 70
1024
 72
1
 73
0
 74
5
  7

 75
16
 76
0
 77
2
 78
300
147
1.0
148
0.0
149
0.0
100
AcDbLayout
  1
Model
 70
1
 71
0
 10
0.0
 20
0.0
 11
420.0
 21
297.0
 12
0.0
 22
0.0
 32
0.0
 14
1e+20
 24
1e+20
 34
1e+20
 15
-1e+20
 25
-1e+20
 35
-1e+20
146
0.0
 13
0.0
 23
0.0
 33
0.0
 16
1.0
 26
0.0
 36
0.0
 17
0.0
 27
1.0
 37
0.0
 76
1
330
17
  0
LAYOUT
  5
1E
330
D
100
AcDbPlotSettings
  1

  4
A3
  6

 40
7.5
 41
20.0
 42
7.5
 43
20.0
 44
420.0
 45
297.0
 46
0.0
 47
0.0
 48
0.0
 49
0.0
140
0.0
141
0.0
142
1.0
143
1.0
 70
0
 72
1
 73
0
 74
5
  7

 75
16
 76
0
 77
2
 78
300
147
1.0
148
0.0
149
0.0
100
AcDbLayout
  1
Layout1
 70
1
 71
1
 10
0.0
 20
0.0
 11
420.0
 21
297.0
 12
0.0
 22
0.0
 32
0.0
 14
1e+20
 24
1e+20
 34
1e+20
 15
-1e+20
 25
-1e+20
 35
-1e+20
146
0.0
 13
0.0
 23
0.0
 33
0.0
 16
1.0
 26
0.0
 36
0.0
 17
0.0
 27
1.0
 37
0.0
 76
1
330
1B
  0
MATERIAL
  5
1F
102
{ACAD_REACTORS
330
E
102
}
330
E
100
AcDbMaterial
  1
ByBlock
  2

 70
0
 40
1.0
 71
1
 41
1.0
 91
-1023410177
 42
1.0
 72
1
  3

 73
1
 74
1
 75
1
 44
0.5
 73
0
 45
1.0
 46
1.0
 77
1
  4

 78
1
 79
1
170
1
 48
1.0
171
1
  6

172
1
173
1
174
1
140
1.0
141
1.0
175
1
  7

176
1
177
1
178
1
143
1.0
179
1
  8

270
1
271
1
272
1
145
1.0
146
1.0
273
1
  9

274
1
275
1
276
1
 42
1.0
 72
1
  3

 73
1
 74
1
 75
1
 94
63
  0
MATERIAL
  5
20
102
{ACAD_REACTORS
330
E
102
}
330
E
100
AcDbMaterial
  1
ByLayer
  2

 70
0
 40
1.0
 71
1
 41
1.0
 91
-1023410177
 42
1.0
 72
1
  3

 73
1
 74
1
 75
1
 44
0.5
 73
0
 45
1.0
 46
1.0
 77
1
  4

 78
1
 79
1
170
1
 48
1.0
171
1
  6

172
1
173
1
174
1
140
1.0
141
1.0
175
1
  7

176
1
177
1
178
1
143
1.0
179
1
  8

270
1
271
1
272
1
145
1.0
146
1.0
273
1
  9

274
1
275
1
276
1
 42
1.0
 72
1
  3

 73
1
 74
1
 75
1
 94
63
  0
MATERIAL
  5
21
102
{ACAD_REACTORS
330
E
102
}
330
E
100
AcDbMaterial
  1
Global
  2

 70
0
 40
1.0
 71
1
 41
1.0
 91
-1023410177
 42
1.0
 72
1
  3

 73
1
 74
1
 75
1
 44
0.5
 73
0
 45
1.0
 46
1.0
 77
1
  4

 78
1
 79
1
170
1
 48
1.0
171
1
  6

172
1
173
1
174
1
140
1.0
141
1.0
175
1
  7

176
1
177
1
178
1
143
1.0
179
1
  8

270
1
271
1
272
1
145
1.0
146
1.0
273
1
  9

274
1
275
1
276
1
 42
1.0
 72
1
  3

 73
1
 74
1
 75
1
 94
63
  0
MLINESTYLE
  5
22
102
{ACAD_REACTORS
330
10
102
}
330
10
100
AcDbMlineStyle
  2
Standard
 70
0
  3

 62
256
 51
90.0
 52
90.0
 71
2
 49
0.5
 62
256
  6
BYLAYER
 49
-0.5
 62
256
  6
BYLAYER
  0
MLEADERSTYLE
  5
2C
102
{ACAD_REACTORS
330
F
102
}
330
F
100
AcDbMLeaderStyle
179
2
170
2
171
1
172
0
 90
2
 40
0.0
 41
0.0
173
1
 91
-1056964608
 92
-2
290
1
 42
2.0
291
1
 43
8.0
  3
Standard
 44
4.0
300

342
29
174
1
175
1
176
0
178
1
 93
-1056964608
 45
4.0
292
0
297
0
 46
4.0
 94
-1056964608
 47
1.0
 49
1.0
140
1.0
294
1
141
0.0
177
0
142
1.0
295
0
296
0
143
3.75
271
0
272
9
273
9
  0
DICTIONARY
  5
2D
330
A
100
AcDbDictionary
280
1
281
1
  3
CREATED_BY_EZDXF
350
2E
  3
WRITTEN_BY_EZDXF
350
36
  0
DICTIONARYVAR
  5
2E
330
2D
100
DictionaryVariables
280
0
  1
1.4.3 @ 2026-04-12T00:41:29.532947+00:00
  0
DICTIONARYVAR
  5
36
330
2D
100
DictionaryVariables
280
0
  1
1.4.3 @ 2026-04-12T00:41:29.533939+00:00
  0
ENDSEC
  0
EOF
