  0
SECTION
  2
HEADER
  9
$ACADVER
  1
AC1024
  9
$ACADMAINTVER
 70
6
  9
$DWGCODEPAGE
  3
ANSI_1252
  9
$LASTSAVEDBY
  1
ezdxf
  9
$INSBASE
 10
0.0
 20
0.0
 30
0.0
  9
$EXTMIN
 10
1e+20
 20
1e+20
 30
1e+20
  9
$EXTMAX
 10
-1e+20
 20
-1e+20
 30
-1e+20
  9
$LIMMIN
 10
0.0
 20
0.0
  9
$LIMMAX
 10
420.0
 20
297.0
  9
$ORTHOMODE
 70
0
  9
$REGENMODE
 70
1
  9
$FILLMODE
 70
1
  9
$QTEXTMODE
 70
0
  9
$MIRRTEXT
 70
1
  9
$LTSCALE
 40
1.0
  9
$ATTMODE
 70
1
  9
$TEXTSIZE
 40
2.5
  9
$TRACEWID
 40
1.0
  9
$TEXTSTYLE
  7
Standard
  9
$CLAYER
  8
0
  9
$CELTYPE
  6
ByLayer
  9
$CECOLOR
 62
256
  9
$CELTSCALE
 40
1.0
  9
$DISPSILH
 70
0
  9
$DIMSCALE
 40
1.0
  9
$DIMASZ
 40
2.5
  9
$DIMEXO
 40
0.625
  9
$DIMDLI
 40
3.75
  9
$DIMRND
 40
0.0
  9
$DIMDLE
 40
0.0
  9
$DIMEXE
 40
1.25
  9
$DIMTP
 40
0.0
  9
$DIMTM
 40
0.0
  9
$DIMTXT
 40
2.5
  9
$DIMCEN
 40
2.5
  9
$DIMTSZ
 40
0.0
  9
$DIMTOL
 70
0
  9
$DIMLIM
 70
0
  9
$DIMTIH
 70
0
  9
$DIMTOH
 70
0
  9
$DIMSE1
 70
0
  9
$DIMSE2
 70
0
  9
$DIMTAD
 70
1
  9
$DIMZIN
 70
8
  9
$DIMBLK
  1

  9
$DIMASO
 70
1
  9
$DIMSHO
 70
1
  9
$DIMPOST
  1

  9
$DIMAPOST
  1

  9
$DIMALT
 70
0
  9
$DIMALTD
 70
3
  9
$DIMALTF
 40
0.03937007874
  9
$DIMLFAC
 40
1.0
  9
$DIMTOFL
 70
1
  9
$DIMTVP
 40
0.0
  9
$DIMTIX
 70
0
  9
$DIMSOXD
 70
0
  9
$DIMSAH
 70
0
  9
$DIMBLK1
  1

  9
$DIMBLK2
  1

  9
$DIMSTYLE
  2
ISO-25
  9
$DIMCLRD
 70
0
  9
$DIMCLRE
 70
0
  9
$DIMCLRT
 70
0
  9
$DIMTFAC
 40
1.0
  9
$DIMGAP
 40
0.625
  9
$DIMJUST
 70
0
  9
$DIMSD1
 70
0
  9
$DIMSD2
 70
0
  9
$DIMTOLJ
 70
0
  9
$DIMTZIN
 70
8
  9
$DIMALTZ
 70
0
  9
$DIMALTTZ
 70
0
  9
$DIMUPT
 70
0
  9
$DIMDEC
 70
2
  9
$DIMTDEC
 70
2
  9
$DIMALTU
 70
2
  9
$DIMALTTD
 70
3
  9
$DIMTXSTY
  7
Standard
  9
$DIMAUNIT
 70
0
  9
$DIMADEC
 70
0
  9
$DIMALTRND
 40
0.0
  9
$DIMAZIN
 70
0
  9
$DIMDSEP
 70
44
  9
$DIMATFIT
 70
3
  9
$DIMFRAC
 70
0
  9
$DIMLDRBLK
  1

  9
$DIMLUNIT
 70
2
  9
$DIMLWD
 70
-2
  9
$DIMLWE
 70
-2
  9
$DIMTMOVE
 70
0
  9
$DIMFXL
 40
1.0
  9
$DIMFXLON
 70
0
  9
$DIMJOGANG
 40
0.785398163397
  9
$DIMTFILL
 70
0
  9
$DIMTFILLCLR
 70
0
  9
$DIMARCSYM
 70
0
  9
$DIMLTYPE
  6

  9
$DIMLTEX1
  6

  9
$DIMLTEX2
  6

  9
$DIMTXTDIRECTION
 70
0
  9
$LUNITS
 70
2
  9
$LUPREC
 70
4
  9
$SKETCHINC
 40
1.0
  9
$FILLETRAD
 40
10.0
  9
$AUNITS
 70
0
  9
$AUPREC
 70
2
  9
$MENU
  1
.
  9
$ELEVATION
 40
0.0
  9
$PELEVATION
 40
0.0
  9
$THICKNESS
 40
0.0
  9
$LIMCHECK
 70
0
  9
$CHAMFERA
 40
0.0
  9
$CHAMFERB
 40
0.0
  9
$CHAMFERC
 40
0.0
  9
$CHAMFERD
 40
0.0
  9
$SKPOLY
 70
0
  9
$TDCREATE
 40
2461140.609224537
  9
$TDUCREATE
 40
2458532.153996898
  9
$TDUPDATE
 40
2461140.609224537
  9
$TDUUPDATE
 40
2458532.1544311
  9
$TDINDWG
 40
0.0
  9
$TDUSRTIMER
 40
0.0
  9
$USRTIMER
 70
1
  9
$ANGBASE
 50
0.0
  9
$ANGDIR
 70
0
  9
$PDMODE
 70
0
  9
$PDSIZE
 40
0.0
  9
$PLINEWID
 40
0.0
  9
$SPLFRAME
 70
0
  9
$SPLINETYPE
 70
6
  9
$SPLINESEGS
 70
8
  9
$HANDSEED
  5
1E0
  9
$SURFTAB1
 70
6
  9
$SURFTAB2
 70
6
  9
$SURFTYPE
 70
6
  9
$SURFU
 70
6
  9
$SURFV
 70
6
  9
$UCSBASE
  2

  9
$UCSNAME
  2

  9
$UCSORG
 10
0.0
 20
0.0
 30
0.0
  9
$UCSXDIR
 10
1.0
 20
0.0
 30
0.0
  9
$UCSYDIR
 10
0.0
 20
1.0
 30
0.0
  9
$UCSORTHOREF
  2

  9
$UCSORTHOVIEW
 70
0
  9
$UCSORGTOP
 10
0.0
 20
0.0
 30
0.0
  9
$UCSORGBOTTOM
 10
0.0
 20
0.0
 30
0.0
  9
$UCSORGLEFT
 10
0.0
 20
0.0
 30
0.0
  9
$UCSORGRIGHT
 10
0.0
 20
0.0
 30
0.0
  9
$UCSORGFRONT
 10
0.0
 20
0.0
 30
0.0
  9
$UCSORGBACK
 10
0.0
 20
0.0
 30
0.0
  9
$PUCSBASE
  2

  9
$PUCSNAME
  2

  9
$PUCSORG
 10
0.0
 20
0.0
 30
0.0
  9
$PUCSXDIR
 10
1.0
 20
0.0
 30
0.0
  9
$PUCSYDIR
 10
0.0
 20
1.0
 30
0.0
  9
$PUCSORTHOREF
  2

  9
$PUCSORTHOVIEW
 70
0
  9
$PUCSORGTOP
 10
0.0
 20
0.0
 30
0.0
  9
$PUCSORGBOTTOM
 10
0.0
 20
0.0
 30
0.0
  9
$PUCSORGLEFT
 10
0.0
 20
0.0
 30
0.0
  9
$PUCSORGRIGHT
 10
0.0
 20
0.0
 30
0.0
  9
$PUCSORGFRONT
 10
0.0
 20
0.0
 30
0.0
  9
$PUCSORGBACK
 10
0.0
 20
0.0
 30
0.0
  9
$USERI1
 70
0
  9
$USERI2
 70
0
  9
$USERI3
 70
0
  9
$USERI4
 70
0
  9
$USERI5
 70
0
  9
$USERR1
 40
0.0
  9
$USERR2
 40
0.0
  9
$USERR3
 40
0.0
  9
$USERR4
 40
0.0
  9
$USERR5
 40
0.0
  9
$WORLDVIEW
 70
1
  9
$SHADEDGE
 70
3
  9
$SHADEDIF
 70
70
  9
$TILEMODE
 70
1
  9
$MAXACTVP
 70
64
  9
$PINSBASE
 10
0.0
 20
0.0
 30
0.0
  9
$PLIMCHECK
 70
0
  9
$PEXTMIN
 10
1e+20
 20
1e+20
 30
1e+20
  9
$PEXTMAX
 10
-1e+20
 20
-1e+20
 30
-1e+20
  9
$PLIMMIN
 10
0.0
 20
0.0
  9
$PLIMMAX
 10
420.0
 20
297.0
  9
$UNITMODE
 70
0
  9
$VISRETAIN
 70
1
  9
$PLINEGEN
 70
0
  9
$PSLTSCALE
 70
1
  9
$TREEDEPTH
 70
3020
  9
$CMLSTYLE
  2
Standard
  9
$CMLJUST
 70
0
  9
$CMLSCALE
 40
20.0
  9
$PROXYGRAPHICS
 70
1
  9
$MEASUREMENT
 70
1
  9
$CELWEIGHT
370
-1
  9
$ENDCAPS
280
0
  9
$JOINSTYLE
280
0
  9
$LWDISPLAY
290
0
  9
$INSUNITS
 70
4
  9
$HYPERLINKBASE
  1

  9
$STYLESHEET
  1

  9
$XEDIT
290
1
  9
$CEPSNTYPE
380
0
  9
$PSTYLEMODE
290
1
  9
$FINGERPRINTGUID
  2
{AE462B95-D720-4A0E-842D-D16447C7EBC2}
  9
$VERSIONGUID
  2
{DD32250F-3CD3-49DC-800B-CA9C10AC3904}
  9
$EXTNAMES
290
1
  9
$PSVPSCALE
 40
0.0
  9
$OLESTARTUP
290
0
  9
$SORTENTS
280
127
  9
$INDEXCTL
280
0
  9
$HIDETEXT
280
1
  9
$XCLIPFRAME
280
1
  9
$HALOGAP
280
0
  9
$OBSCOLOR
 70
257
  9
$OBSLTYPE
280
0
  9
$INTERSECTIONDISPLAY
280
0
  9
$INTERSECTIONCOLOR
 70
257
  9
$DIMASSOC
280
2
  9
$PROJECTNAME
  1

  9
$CAMERADISPLAY
290
0
  9
$LENSLENGTH
 40
50.0
  9
$CAMERAHEIGHT
 40
0.0
  9
$STEPSPERSEC
 40
24.0
  9
$STEPSIZE
 40
100.0
  9
$3DDWFPREC
 40
2.0
  9
$PSOLWIDTH
 40
0.005
  9
$PSOLHEIGHT
 40
0.08
  9
$LOFTANG1
 40
1.570796326795
  9
$LOFTANG2
 40
1.570796326795
  9
$LOFTMAG1
 40
0.0
  9
$LOFTMAG2
 40
0.0
  9
$LOFTPARAM
 70
7
  9
$LOFTNORMALS
280
1
  9
$LATITUDE
 40
37.795
  9
$LONGITUDE
 40
-122.394
  9
$NORTHDIRECTION
 40
0.0
  9
$TIMEZONE
 70
-8000
  9
$LIGHTGLYPHDISPLAY
280
1
  9
$TILEMODELIGHTSYNCH
280
1
  9
$CMATERIAL
347
20
  9
$SOLIDHIST
280
0
  9
$SHOWHIST
280
1
  9
$DWFFRAME
280
2
  9
$DGNFRAME
280
2
  9
$REALWORLDSCALE
290
1
  9
$INTERFERECOLOR
 62
256
  9
$CSHADOW
280
0
  9
$SHADOWPLANELOCATION
 40
0.0
  0
ENDSEC
  0
SECTION
  2
CLASSES
  0
CLASS
  1
ACDBDICTIONARYWDFLT
  2
AcDbDictionaryWithDefault
  3
ObjectDBX Classes
 90
0
 91
0
280
0
281
0
  0
CLASS
  1
SUN
  2
AcDbSun
  3
SCENEOE
 90
1153
 91
0
280
0
281
0
  0
CLASS
  1
VISUALSTYLE
  2
AcDbVisualStyle
  3
ObjectDBX Classes
 90
4095
 91
0
280
0
281
0
  0
CLASS
  1
MATERIAL
  2
AcDbMaterial
  3
ObjectDBX Classes
 90
1153
 91
0
280
0
281
0
  0
CLASS
  1
SCALE
  2
AcDbScale
  3
ObjectDBX Classes
 90
1153
 91
0
280
0
281
0
  0
CLASS
  1
TABLESTYLE
  2
AcDbTableStyle
  3
ObjectDBX Classes
 90
4095
 91
0
280
0
281
0
  0
CLASS
  1
MLEADERSTYLE
  2
AcDbMLeaderStyle
  3
ACDB_MLEADERSTYLE_CLASS
 90
4095
 91
0
280
0
281
0
  0
CLASS
  1
DICTIONARYVAR
  2
AcDbDictionaryVar
  3
ObjectDBX Classes
 90
0
 91
0
280
0
281
0
  0
CLASS
  1
CELLSTYLEMAP
  2
AcDbCellStyleMap
  3
ObjectDBX Classes
 90
1152
 91
0
280
0
281
0
  0
CLASS
  1
MENTALRAYRENDERSETTINGS
  2
AcDbMentalRayRenderSettings
  3
SCENEOE
 90
1024
 91
0
280
0
281
0
  0
CLASS
  1
ACDBDETAILVIEWSTYLE
  2
AcDbDetailViewStyle
  3
ObjectDBX Classes
 90
1025
 91
0
280
0
281
0
  0
CLASS
  1
ACDBSECTIONVIEWSTYLE
  2
AcDbSectionViewStyle
  3
ObjectDBX Classes
 90
1025
 91
0
280
0
281
0
  0
CLASS
  1
RASTERVARIABLES
  2
AcDbRasterVariables
  3
ISM
 90
0
 91
0
280
0
281
0
  0
CLASS
  1
LAYOUT
  2
AcDbLayout
  3
ObjectDBX Classes
 90
0
 91
0
280
0
281
0
  0
CLASS
  1
ACDBPLACEHOLDER
  2
AcDbPlaceHolder
  3
ObjectDBX Classes
 90
0
 91
0
280
0
281
0
  0
ENDSEC
  0
SECTION
  2
TABLES
  0
TABLE
  2
VPORT
  5
8
330
0
100
AcDbSymbolTable
 70
1
  0
VPORT
  5
23
330
8
100
AcDbSymbolTableRecord
100
AcDbViewportTableRecord
  2
*Active
 70
0
 10
0.0
 20
0.0
 11
1.0
 21
1.0
 12
0.0
 22
0.0
 13
0.0
 23
0.0
 14
0.5
 24
0.5
 15
0.5
 25
0.5
 16
0.0
 26
0.0
 36
1.0
 17
0.0
 27
0.0
 37
0.0
 40
1000.0
 41
1.34
 42
50.0
 43
0.0
 44
0.0
 50
0.0
 51
0.0
 71
0
 72
1000
 73
1
 74
3
 75
0
 76
0
 77
0
 78
0
281
0
 65
0
146
0.0
  0
ENDTAB
  0
TABLE
  2
LTYPE
  5
2
330
0
100
AcDbSymbolTable
 70
3
  0
LTYPE
  5
24
330
2
100
AcDbSymbolTableRecord
100
AcDbLinetypeTableRecord
  2
ByBlock
 70
0
  3

 72
65
 73
0
 40
0.0
  0
LTYPE
  5
25
330
2
100
AcDbSymbolTableRecord
100
AcDbLinetypeTableRecord
  2
ByLayer
 70
0
  3

 72
65
 73
0
 40
0.0
  0
LTYPE
  5
26
330
2
100
AcDbSymbolTableRecord
100
AcDbLinetypeTableRecord
  2
Continuous
 70
0
  3

 72
65
 73
0
 40
0.0
  0
ENDTAB
  0
TABLE
  2
LAYER
  5
1
330
0
100
AcDbSymbolTable
 70
2
  0
LAYER
  5
27
330
1
100
AcDbSymbolTableRecord
100
AcDbLayerTableRecord
  2
0
 70
0
 62
7
  6
Continuous
370
-3
390
13
347
21
  0
LAYER
  5
28
330
1
100
AcDbSymbolTableRecord
100
AcDbLayerTableRecord
  2
Defpoints
 70
0
 62
7
  6
Continuous
290
0
370
-3
390
13
347
21
  0
ENDTAB
  0
TABLE
  2
STYLE
  5
5
330
0
100
AcDbSymbolTable
 70
1
  0
STYLE
  5
29
330
5
100
AcDbSymbolTableRecord
100
AcDbTextStyleTableRecord
  2
Standard
 70
0
 40
0.0
 41
1.0
 50
0.0
 71
0
 42
2.5
  3
txt
  4

  0
ENDTAB
  0
TABLE
  2
VIEW
  5
7
330
0
100
AcDbSymbolTable
 70
0
  0
ENDTAB
  0
TABLE
  2
UCS
  5
6
330
0
100
AcDbSymbolTable
 70
0
  0
ENDTAB
  0
TABLE
  2
APPID
  5
3
330
0
100
AcDbSymbolTable
 70
3
  0
APPID
  5
2A
330
3
100
AcDbSymbolTableRecord
100
AcDbRegAppTableRecord
  2
ACAD
 70
0
  0
APPID
  5
1DD
330
3
100
AcDbSymbolTableRecord
100
AcDbRegAppTableRecord
  2
HATCHBACKGROUNDCOLOR
 70
0
  0
APPID
  5
1DE
330
3
100
AcDbSymbolTableRecord
100
AcDbRegAppTableRecord
  2
EZDXF
 70
0
  0
ENDTAB
  0
TABLE
  2
DIMSTYLE
  5
4
330
0
100
AcDbSymbolTable
 70
1
100
AcDbDimStyleTable
  0
DIMSTYLE
105
2B
330
4
100
AcDbSymbolTableRecord
100
AcDbDimStyleTableRecord
  2
Standard
 70
0
 40
1.0
 41
2.5
 42
0.625
 43
3.75
 44
1.25
 45
0.0
 46
0.0
 47
0.0
 48
0.0
 49
2.5
140
2.5
141
2.5
142
0.0
143
0.03937007874
144
1.0
145
0.0
146
1.0
147
0.625
148
0.0
 69
0
 70
0
 71
0
 72
0
 73
0
 74
0
 75
0
 76
0
 77
1
 78
8
 79
3
170
0
171
3
172
1
173
0
174
0
175
0
176
0
177
0
178
0
179
2
271
2
272
2
273
2
274
3
275
0
276
0
277
2
278
44
279
0
280
0
281
0
282
0
283
0
284
8
285
0
286
0
288
0
289
3
290
0
371
-2
372
-2
  0
ENDTAB
  0
TABLE
  2
BLOCK_RECORD
  5
9
330
0
100
AcDbSymbolTable
 70
3
  0
BLOCK_RECORD
  5
17
330
9
100
AcDbSymbolTableRecord
100
AcDbBlockTableRecord
  2
*Model_Space
340
1A
 70
0
280
1
281
0
  0
BLOCK_RECORD
  5
1B
330
9
100
AcDbSymbolTableRecord
100
AcDbBlockTableRecord
  2
*Paper_Space
340
1E
 70
0
280
1
281
0
  0
BLOCK_RECORD
  5
2F
330
9
100
AcDbSymbolTableRecord
100
AcDbBlockTableRecord
  2
HEX
340
0
 70
0
280
1
281
0
  0
ENDTAB
  0
ENDSEC
  0
SECTION
  2
BLOCKS
  0
BLOCK
  5
18
330
17
100
AcDbEntity
  8
0
100
AcDbBlockBegin
  2
*Model_Space
 70
0
 10
0.0
 20
0.0
 30
0.0
  3
*Model_Space
  1

  0
ENDBLK
  5
19
330
17
100
AcDbEntity
  8
0
100
AcDbBlockEnd
  0
BLOCK
  5
1C
330
1B
100
AcDbEntity
  8
0
100
AcDbBlockBegin
  2
*Paper_Space
 70
0
 10
0.0
 20
0.0
 30
0.0
  3
*Paper_Space
  1

  0
ENDBLK
  5
1D
330
1B
100
AcDbEntity
  8
0
100
AcDbBlockEnd
  0
BLOCK
  5
30
330
2F
100
AcDbEntity
  8
0
100
AcDbBlockBegin
  2
HEX
 70
0
 10
0.0
 20
0.0
 30
0.0
  3
HEX
  1

  0
LWPOLYLINE
  5
32
330
2F
100
AcDbEntity
  8
0
100
AcDbPolyline
 90
6
 70
1
 10
1.516
 20
0.875
 10
0.0
 20
1.75
 10
-1.516
 20
0.875
 10
-1.516
 20
-0.875
 10
-0.0
 20
-1.75
 10
1.516
 20
-0.875
  0
ENDBLK
  5
31
330
2F
100
AcDbEntity
  8
0
100
AcDbBlockEnd
  0
ENDSEC
  0
SECTION
  2
ENTITIES
  0
LWPOLYLINE
  5
33
330
17
100
AcDbEntity
  8
0
100
AcDbPolyline
 90
9
 70
1
 10
133.004
 20
-132.644
 10
132.62
 20
-132.624
 10
132.25
 20
-132.542
 10
131.902
 20
-132.402
 10
131.555
 20
-132.187
 10
133.03
 20
-131.336
 10
134.545
 20
-132.211
 10
134.545
 20
-132.465
 10
133.004
 20
-132.644
  0
LWPOLYLINE
  5
34
330
17
100
AcDbEntity
  8
0
100
AcDbPolyline
 90
5
 70
1
 10
135.045
 20
-132.407
 10
135.045
 20
-132.211
 10
136.561
 20
-131.336
 10
137.852
 20
-132.081
 10
135.045
 20
-132.407
  0
LWPOLYLINE
  5
35
330
17
100
AcDbEntity
  8
0
100
AcDbPolyline
 90
4
 70
1
 10
139.04
 20
-131.943
 10
140.092
 20
-131.336
 10
140.791
 20
-131.74
 10
139.04
 20
-131.943
  0
LWPOLYLINE
  5
36
330
17
100
AcDbEntity
  8
0
100
AcDbPolyline
 90
4
 70
1
 10
143.46
 20
-131.43
 10
143.623
 20
-131.336
 10
143.731
 20
-131.398
 10
143.46
 20
-131.43
  0
LWPOLYLINE
  5
37
330
17
100
AcDbEntity
  8
0
100
AcDbPolyline
 90
8
 70
1
 10
131.031
 20
-131.643
 10
130.855
 20
-131.344
 10
129.975
 20
-129.022
 10
131.264
 20
-128.278
 10
132.78
 20
-129.153
 10
132.78
 20
-130.903
 10
131.264
 20
-131.778
 10
131.031
 20
-131.643
  0
INSERT
  5
38
330
17
100
AcDbEntity
  8
0
100
AcDbBlockReference
  2
HEX
 10
134.795
 20
-130.028
 30
0.0
  0
INSERT
  5
3A
330
17
100
AcDbEntity
  8
0
100
AcDbBlockReference
  2
HEX
 10
138.326
 20
-130.028
 30
0.0
  0
LWPOLYLINE
  5
3C
330
17
100
AcDbEntity
  8
0
100
AcDbPolyline
 90
8
 70
1
 10
141.624
 20
-131.643
 10
140.342
 20
-130.903
 10
140.342
 20
-129.153
 10
141.858
 20
-128.278
 10
143.373
 20
-129.153
 10
143.373
 20
-130.903
 10
142.209
 20
-131.575
 10
141.624
 20
-131.643
  0
LWPOLYLINE
  5
3D
330
17
100
AcDbEntity
  8
0
100
AcDbPolyline
 90
8
 70
1
 10
144.564
 20
-131.302
 10
143.873
 20
-130.903
 10
143.873
 20
-129.153
 10
145.389
 20
-128.278
 10
146.904
 20
-129.153
 10
146.904
 20
-130.903
 10
146.629
 20
-131.062
 10
144.564
 20
-131.302
  0
LWPOLYLINE
  5
3E
330
17
100
AcDbEntity
  8
0
100
AcDbPolyline
 90
7
 70
1
 10
147.504
 20
-130.96
 10
147.404
 20
-130.903
 10
147.404
 20
-129.153
 10
148.92
 20
-128.278
 10
150.435
 20
-129.153
 10
150.435
 20
-130.62
 10
147.504
 20
-130.96
  0
LWPOLYLINE
  5
3F
330
17
100
AcDbEntity
  8
0
100
AcDbPolyline
 90
6
 70
1
 10
150.935
 20
-130.562
 10
150.935
 20
-129.153
 10
152.451
 20
-128.278
 10
153.966
 20
-129.153
 10
153.966
 20
-130.21
 10
150.935
 20
-130.562
  0
LWPOLYLINE
  5
40
330
17
100
AcDbEntity
  8
0
100
AcDbPolyline
 90
6
 70
1
 10
154.466
 20
-130.152
 10
154.466
 20
-129.153
 10
155.982
 20
-128.278
 10
157.497
 20
-129.153
 10
157.497
 20
-129.8
 10
154.466
 20
-130.152
  0
LWPOLYLINE
  5
41
330
17
100
AcDbEntity
  8
0
100
AcDbPolyline
 90
6
 70
1
 10
157.997
 20
-129.742
 10
157.997
 20
-129.153
 10
159.513
 20
-128.278
 10
161.029
 20
-129.153
 10
161.029
 20
-129.39
 10
157.997
 20
-129.742
  0
LWPOLYLINE
  5
42
330
17
100
AcDbEntity
  8
0
100
AcDbPolyline
 90
5
 70
1
 10
161.529
 20
-129.332
 10
161.529
 20
-129.153
 10
163.044
 20
-128.278
 10
164.31
 20
-129.009
 10
161.529
 20
-129.332
  0
LWPOLYLINE
  5
43
330
17
100
AcDbEntity
  8
0
100
AcDbPolyline
 90
6
 70
1
 10
128.707
 20
-125.677
 10
129.499
 20
-125.22
 10
131.014
 20
-126.095
 10
131.014
 20
-127.845
 10
129.796
 20
-128.548
 10
128.707
 20
-125.677
  0
INSERT
  5
44
330
17
100
AcDbEntity
  8
0
100
AcDbBlockReference
  2
HEX
 10
133.03
 20
-126.97
 30
0.0
  0
INSERT
  5
46
330
17
100
AcDbEntity
  8
0
100
AcDbBlockReference
  2
HEX
 10
136.561
 20
-126.97
 30
0.0
  0
INSERT
  5
48
330
17
100
AcDbEntity
  8
0
100
AcDbBlockReference
  2
HEX
 10
140.092
 20
-126.97
 30
0.0
  0
INSERT
  5
4A
330
17
100
AcDbEntity
  8
0
100
AcDbBlockReference
  2
HEX
 10
143.623
 20
-126.97
 30
0.0
  0
INSERT
  5
4C
330
17
100
AcDbEntity
  8
0
100
AcDbBlockReference
  2
HEX
 10
147.154
 20
-126.97
 30
0.0
  0
INSERT
  5
4E
330
17
100
AcDbEntity
  8
0
100
AcDbBlockReference
  2
HEX
 10
150.685
 20
-126.97
 30
0.0
  0
INSERT
  5
50
330
17
100
AcDbEntity
  8
0
100
AcDbBlockReference
  2
HEX
 10
154.216
 20
-126.97
 30
0.0
  0
INSERT
  5
52
330
17
100
AcDbEntity
  8
0
100
AcDbBlockReference
  2
HEX
 10
157.747
 20
-126.97
 30
0.0
  0
INSERT
  5
54
330
17
100
AcDbEntity
  8
0
100
AcDbBlockReference
  2
HEX
 10
161.279
 20
-126.97
 30
0.0
  0
LWPOLYLINE
  5
56
330
17
100
AcDbEntity
  8
0
100
AcDbPolyline
 90
8
 70
1
 10
166.325
 20
-127.711
 10
166.197
 20
-127.919
 10
164.81
 20
-128.72
 10
163.294
 20
-127.845
 10
163.294
 20
-126.095
 10
164.81
 20
-125.22
 10
166.325
 20
-126.095
 10
166.325
 20
-127.711
  0
LWPOLYLINE
  5
57
330
17
100
AcDbEntity
  8
0
100
AcDbPolyline
 90
6
 70
1
 10
127.439
 20
-122.332
 10
127.733
 20
-122.162
 10
129.249
 20
-123.037
 10
129.249
 20
-124.787
 10
128.527
 20
-125.203
 10
127.439
 20
-122.332
  0
INSERT
  5
58
330
17
100
AcDbEntity
  8
0
100
AcDbBlockReference
  2
HEX
 10
131.264
 20
-123.912
 30
0.0
  0
INSERT
  5
5A
330
17
100
AcDbEntity
  8
0
100
AcDbBlockReference
  2
HEX
 10
134.795
 20
-123.912
 30
0.0
  0
INSERT
  5
5C
330
17
100
AcDbEntity
  8
0
100
AcDbBlockReference
  2
HEX
 10
138.326
 20
-123.912
 30
0.0
  0
INSERT
  5
5E
330
17
100
AcDbEntity
  8
0
100
AcDbBlockReference
  2
HEX
 10
141.858
 20
-123.912
 30
0.0
  0
INSERT
  5
60
330
17
100
AcDbEntity
  8
0
100
AcDbBlockReference
  2
HEX
 10
145.389
 20
-123.912
 30
0.0
  0
INSERT
  5
62
330
17
100
AcDbEntity
  8
0
100
AcDbBlockReference
  2
HEX
 10
148.92
 20
-123.912
 30
0.0
  0
INSERT
  5
64
330
17
100
AcDbEntity
  8
0
100
AcDbBlockReference
  2
HEX
 10
152.451
 20
-123.912
 30
0.0
  0
INSERT
  5
66
330
17
100
AcDbEntity
  8
0
100
AcDbBlockReference
  2
HEX
 10
155.982
 20
-123.912
 30
0.0
  0
INSERT
  5
68
330
17
100
AcDbEntity
  8
0
100
AcDbBlockReference
  2
HEX
 10
159.513
 20
-123.912
 30
0.0
  0
INSERT
  5
6A
330
17
100
AcDbEntity
  8
0
100
AcDbBlockReference
  2
HEX
 10
163.044
 20
-123.912
 30
0.0
  0
LWPOLYLINE
  5
6C
330
17
100
AcDbEntity
  8
0
100
AcDbPolyline
 90
7
 70
1
 10
165.803
 20
-122.976
 10
166.415
 20
-125.056
 10
166.522
 20
-125.631
 10
165.06
 20
-124.787
 10
165.06
 20
-123.037
 10
165.677
 20
-122.68
 10
165.803
 20
-122.976
  0
LWPOLYLINE
  5
6D
330
17
100
AcDbEntity
  8
0
100
AcDbPolyline
 90
5
 70
1
 10
126.284
 20
-119.287
 10
127.483
 20
-119.979
 10
127.483
 20
-121.729
 10
127.259
 20
-121.858
 10
126.284
 20
-119.287
  0
INSERT
  5
6E
330
17
100
AcDbEntity
  8
0
100
AcDbBlockReference
  2
HEX
 10
129.499
 20
-120.854
 30
0.0
  0
INSERT
  5
70
330
17
100
AcDbEntity
  8
0
100
AcDbBlockReference
  2
HEX
 10
133.03
 20
-120.854
 30
0.0
  0
INSERT
  5
72
330
17
100
AcDbEntity
  8
0
100
AcDbBlockReference
  2
HEX
 10
136.561
 20
-120.854
 30
0.0
  0
INSERT
  5
74
330
17
100
AcDbEntity
  8
0
100
AcDbBlockReference
  2
HEX
 10
140.092
 20
-120.854
 30
0.0
  0
INSERT
  5
76
330
17
100
AcDbEntity
  8
0
100
AcDbBlockReference
  2
HEX
 10
143.623
 20
-120.854
 30
0.0
  0
INSERT
  5
78
330
17
100
AcDbEntity
  8
0
100
AcDbBlockReference
  2
HEX
 10
147.154
 20
-120.854
 30
0.0
  0
INSERT
  5
7A
330
17
100
AcDbEntity
  8
0
100
AcDbBlockReference
  2
HEX
 10
150.685
 20
-120.854
 30
0.0
  0
INSERT
  5
7C
330
17
100
AcDbEntity
  8
0
100
AcDbBlockReference
  2
HEX
 10
154.216
 20
-120.854
 30
0.0
  0
INSERT
  5
7E
330
17
100
AcDbEntity
  8
0
100
AcDbBlockReference
  2
HEX
 10
157.747
 20
-120.854
 30
0.0
  0
INSERT
  5
80
330
17
100
AcDbEntity
  8
0
100
AcDbBlockReference
  2
HEX
 10
161.279
 20
-120.854
 30
0.0
  0
LWPOLYLINE
  5
82
330
17
100
AcDbEntity
  8
0
100
AcDbPolyline
 90
7
 70
1
 10
164.948
 20
-120.964
 10
165.48
 20
-122.217
 10
164.81
 20
-122.604
 10
163.294
 20
-121.729
 10
163.294
 20
-119.979
 10
164.054
 20
-119.54
 10
164.948
 20
-120.964
  0
LWPOLYLINE
  5
83
330
17
100
AcDbEntity
  8
0
100
AcDbPolyline
 90
4
 70
1
 10
125.295
 20
-116.677
 10
125.718
 20
-116.921
 10
125.718
 20
-117.792
 10
125.295
 20
-116.677
  0
INSERT
  5
84
330
17
100
AcDbEntity
  8
0
100
AcDbBlockReference
  2
HEX
 10
127.733
 20
-117.796
 30
0.0
  0
INSERT
  5
86
330
17
100
AcDbEntity
  8
0
100
AcDbBlockReference
  2
HEX
 10
131.264
 20
-117.796
 30
0.0
  0
INSERT
  5
88
330
17
100
AcDbEntity
  8
0
100
AcDbBlockReference
  2
HEX
 10
134.795
 20
-117.796
 30
0.0
  0
INSERT
  5
8A
330
17
100
AcDbEntity
  8
0
100
AcDbBlockReference
  2
HEX
 10
138.326
 20
-117.796
 30
0.0
  0
INSERT
  5
8C
330
17
100
AcDbEntity
  8
0
100
AcDbBlockReference
  2
HEX
 10
141.858
 20
-117.796
 30
0.0
  0
INSERT
  5
8E
330
17
100
AcDbEntity
  8
0
100
AcDbBlockReference
  2
HEX
 10
145.389
 20
-117.796
 30
0.0
  0
INSERT
  5
90
330
17
100
AcDbEntity
  8
0
100
AcDbBlockReference
  2
HEX
 10
148.92
 20
-117.796
 30
0.0
  0
INSERT
  5
92
330
17
100
AcDbEntity
  8
0
100
AcDbBlockReference
  2
HEX
 10
152.451
 20
-117.796
 30
0.0
  0
INSERT
  5
94
330
17
100
AcDbEntity
  8
0
100
AcDbBlockReference
  2
HEX
 10
155.982
 20
-117.796
 30
0.0
  0
INSERT
  5
96
330
17
100
AcDbEntity
  8
0
100
AcDbBlockReference
  2
HEX
 10
159.513
 20
-117.796
 30
0.0
  0
LWPOLYLINE
  5
98
330
17
100
AcDbEntity
  8
0
100
AcDbPolyline
 90
6
 70
1
 10
163.787
 20
-119.117
 10
163.044
 20
-119.546
 10
161.529
 20
-118.671
 10
161.529
 20
-116.921
 10
162.174
 20
-116.548
 10
163.787
 20
-119.117
  0
LWPOLYLINE
  5
99
330
17
100
AcDbEntity
  8
0
100
AcDbPolyline
 90
8
 70
1
 10
124.452
 20
-114.454
 10
124.452
 20
-113.863
 10
125.968
 20
-112.988
 10
127.483
 20
-113.863
 10
127.483
 20
-115.613
 10
125.968
 20
-116.488
 10
125.014
 20
-115.937
 10
124.452
 20
-114.454
  0
INSERT
  5
9A
330
17
100
AcDbEntity
  8
0
100
AcDbBlockReference
  2
HEX
 10
129.499
 20
-114.738
 30
0.0
  0
INSERT
  5
9C
330
17
100
AcDbEntity
  8
0
100
AcDbBlockReference
  2
HEX
 10
133.03
 20
-114.738
 30
0.0
  0
INSERT
  5
9E
330
17
100
AcDbEntity
  8
0
100
AcDbBlockReference
  2
HEX
 10
136.561
 20
-114.738
 30
0.0
  0
INSERT
  5
A0
330
17
100
AcDbEntity
  8
0
100
AcDbBlockReference
  2
HEX
 10
140.092
 20
-114.738
 30
0.0
  0
INSERT
  5
A2
330
17
100
AcDbEntity
  8
0
100
AcDbBlockReference
  2
HEX
 10
143.623
 20
-114.738
 30
0.0
  0
INSERT
  5
A4
330
17
100
AcDbEntity
  8
0
100
AcDbBlockReference
  2
HEX
 10
147.154
 20
-114.738
 30
0.0
  0
INSERT
  5
A6
330
17
100
AcDbEntity
  8
0
100
AcDbBlockReference
  2
HEX
 10
150.685
 20
-114.738
 30
0.0
  0
INSERT
  5
A8
330
17
100
AcDbEntity
  8
0
100
AcDbBlockReference
  2
HEX
 10
154.216
 20
-114.738
 30
0.0
  0
INSERT
  5
AA
330
17
100
AcDbEntity
  8
0
100
AcDbBlockReference
  2
HEX
 10
157.747
 20
-114.738
 30
0.0
  0
LWPOLYLINE
  5
AC
330
17
100
AcDbEntity
  8
0
100
AcDbPolyline
 90
6
 70
1
 10
161.907
 20
-116.125
 10
161.279
 20
-116.488
 10
159.763
 20
-115.613
 10
159.763
 20
-113.863
 10
160.293
 20
-113.557
 10
161.907
 20
-116.125
  0
LWPOLYLINE
  5
AD
330
17
100
AcDbEntity
  8
0
100
AcDbPolyline
 90
7
 70
1
 10
123.0
 20
-110.624
 10
124.202
 20
-109.93
 10
125.718
 20
-110.805
 10
125.718
 20
-112.555
 10
124.202
 20
-113.43
 10
124.025
 20
-113.327
 10
123.0
 20
-110.624
  0
INSERT
  5
AE
330
17
100
AcDbEntity
  8
0
100
AcDbBlockReference
  2
HEX
 10
127.733
 20
-111.68
 30
0.0
  0
INSERT
  5
B0
330
17
100
AcDbEntity
  8
0
100
AcDbBlockReference
  2
HEX
 10
131.264
 20
-111.68
 30
0.0
  0
INSERT
  5
B2
330
17
100
AcDbEntity
  8
0
100
AcDbBlockReference
  2
HEX
 10
134.795
 20
-111.68
 30
0.0
  0
INSERT
  5
B4
330
17
100
AcDbEntity
  8
0
100
AcDbBlockReference
  2
HEX
 10
138.326
 20
-111.68
 30
0.0
  0
INSERT
  5
B6
330
17
100
AcDbEntity
  8
0
100
AcDbBlockReference
  2
HEX
 10
141.858
 20
-111.68
 30
0.0
  0
INSERT
  5
B8
330
17
100
AcDbEntity
  8
0
100
AcDbBlockReference
  2
HEX
 10
145.389
 20
-111.68
 30
0.0
  0
INSERT
  5
BA
330
17
100
AcDbEntity
  8
0
100
AcDbBlockReference
  2
HEX
 10
148.92
 20
-111.68
 30
0.0
  0
INSERT
  5
BC
330
17
100
AcDbEntity
  8
0
100
AcDbBlockReference
  2
HEX
 10
152.451
 20
-111.68
 30
0.0
  0
INSERT
  5
BE
330
17
100
AcDbEntity
  8
0
100
AcDbBlockReference
  2
HEX
 10
155.982
 20
-111.68
 30
0.0
  0
LWPOLYLINE
  5
C0
330
17
100
AcDbEntity
  8
0
100
AcDbPolyline
 90
6
 70
1
 10
160.027
 20
-113.133
 10
159.513
 20
-113.43
 10
157.997
 20
-112.555
 10
157.997
 20
-110.805
 10
158.413
 20
-110.565
 10
160.027
 20
-113.133
  0
LWPOLYLINE
  5
C1
330
17
100
AcDbEntity
  8
0
100
AcDbPolyline
 90
6
 70
1
 10
121.732
 20
-107.279
 10
122.437
 20
-106.872
 10
123.952
 20
-107.747
 10
123.952
 20
-109.497
 10
122.82
 20
-110.15
 10
121.732
 20
-107.279
  0
INSERT
  5
C2
330
17
100
AcDbEntity
  8
0
100
AcDbBlockReference
  2
HEX
 10
125.968
 20
-108.622
 30
0.0
  0
INSERT
  5
C4
330
17
100
AcDbEntity
  8
0
100
AcDbBlockReference
  2
HEX
 10
129.499
 20
-108.622
 30
0.0
  0
INSERT
  5
C6
330
17
100
AcDbEntity
  8
0
100
AcDbBlockReference
  2
HEX
 10
133.03
 20
-108.622
 30
0.0
  0
INSERT
  5
C8
330
17
100
AcDbEntity
  8
0
100
AcDbBlockReference
  2
HEX
 10
136.561
 20
-108.622
 30
0.0
  0
INSERT
  5
CA
330
17
100
AcDbEntity
  8
0
100
AcDbBlockReference
  2
HEX
 10
140.092
 20
-108.622
 30
0.0
  0
INSERT
  5
CC
330
17
100
AcDbEntity
  8
0
100
AcDbBlockReference
  2
HEX
 10
143.623
 20
-108.622
 30
0.0
  0
INSERT
  5
CE
330
17
100
AcDbEntity
  8
0
100
AcDbBlockReference
  2
HEX
 10
147.154
 20
-108.622
 30
0.0
  0
INSERT
  5
D0
330
17
100
AcDbEntity
  8
0
100
AcDbBlockReference
  2
HEX
 10
150.685
 20
-108.622
 30
0.0
  0
INSERT
  5
D2
330
17
100
AcDbEntity
  8
0
100
AcDbBlockReference
  2
HEX
 10
154.216
 20
-108.622
 30
0.0
  0
LWPOLYLINE
  5
D4
330
17
100
AcDbEntity
  8
0
100
AcDbPolyline
 90
6
 70
1
 10
158.147
 20
-110.141
 10
157.747
 20
-110.372
 10
156.232
 20
-109.497
 10
156.232
 20
-107.747
 10
156.533
 20
-107.573
 10
158.147
 20
-110.141
  0
LWPOLYLINE
  5
D5
330
17
100
AcDbEntity
  8
0
100
AcDbPolyline
 90
6
 70
1
 10
120.463
 20
-103.934
 10
120.671
 20
-103.814
 10
122.187
 20
-104.689
 10
122.187
 20
-106.439
 10
121.552
 20
-106.805
 10
120.463
 20
-103.934
  0
INSERT
  5
D6
330
17
100
AcDbEntity
  8
0
100
AcDbBlockReference
  2
HEX
 10
124.202
 20
-105.564
 30
0.0
  0
INSERT
  5
D8
330
17
100
AcDbEntity
  8
0
100
AcDbBlockReference
  2
HEX
 10
127.733
 20
-105.564
 30
0.0
  0
INSERT
  5
DA
330
17
100
AcDbEntity
  8
0
100
AcDbBlockReference
  2
HEX
 10
131.264
 20
-105.564
 30
0.0
  0
INSERT
  5
DC
330
17
100
AcDbEntity
  8
0
100
AcDbBlockReference
  2
HEX
 10
134.795
 20
-105.564
 30
0.0
  0
INSERT
  5
DE
330
17
100
AcDbEntity
  8
0
100
AcDbBlockReference
  2
HEX
 10
138.326
 20
-105.564
 30
0.0
  0
INSERT
  5
E0
330
17
100
AcDbEntity
  8
0
100
AcDbBlockReference
  2
HEX
 10
141.858
 20
-105.564
 30
0.0
  0
INSERT
  5
E2
330
17
100
AcDbEntity
  8
0
100
AcDbBlockReference
  2
HEX
 10
145.389
 20
-105.564
 30
0.0
  0
INSERT
  5
E4
330
17
100
AcDbEntity
  8
0
100
AcDbBlockReference
  2
HEX
 10
148.92
 20
-105.564
 30
0.0
  0
INSERT
  5
E6
330
17
100
AcDbEntity
  8
0
100
AcDbBlockReference
  2
HEX
 10
152.451
 20
-105.564
 30
0.0
  0
LWPOLYLINE
  5
E8
330
17
100
AcDbEntity
  8
0
100
AcDbPolyline
 90
7
 70
1
 10
154.783
 20
-104.788
 10
156.267
 20
-107.149
 10
155.982
 20
-107.314
 10
154.466
 20
-106.439
 10
154.466
 20
-104.689
 10
154.682
 20
-104.564
 10
154.783
 20
-104.788
  0
LWPOLYLINE
  5
E9
330
17
100
AcDbEntity
  8
0
100
AcDbPolyline
 90
5
 70
1
 10
119.357
 20
-101.017
 10
120.421
 20
-101.631
 10
120.421
 20
-103.381
 10
120.284
 20
-103.46
 10
119.357
 20
-101.017
  0
INSERT
  5
EA
330
17
100
AcDbEntity
  8
0
100
AcDbBlockReference
  2
HEX
 10
122.437
 20
-102.506
 30
0.0
  0
INSERT
  5
EC
330
17
100
AcDbEntity
  8
0
100
AcDbBlockReference
  2
HEX
 10
125.968
 20
-102.506
 30
0.0
  0
INSERT
  5
EE
330
17
100
AcDbEntity
  8
0
100
AcDbBlockReference
  2
HEX
 10
129.499
 20
-102.506
 30
0.0
  0
INSERT
  5
F0
330
17
100
AcDbEntity
  8
0
100
AcDbBlockReference
  2
HEX
 10
133.03
 20
-102.506
 30
0.0
  0
INSERT
  5
F2
330
17
100
AcDbEntity
  8
0
100
AcDbBlockReference
  2
HEX
 10
136.561
 20
-102.506
 30
0.0
  0
INSERT
  5
F4
330
17
100
AcDbEntity
  8
0
100
AcDbBlockReference
  2
HEX
 10
140.092
 20
-102.506
 30
0.0
  0
INSERT
  5
F6
330
17
100
AcDbEntity
  8
0
100
AcDbBlockReference
  2
HEX
 10
143.623
 20
-102.506
 30
0.0
  0
INSERT
  5
F8
330
17
100
AcDbEntity
  8
0
100
AcDbBlockReference
  2
HEX
 10
147.154
 20
-102.506
 30
0.0
  0
INSERT
  5
FA
330
17
100
AcDbEntity
  8
0
100
AcDbBlockReference
  2
HEX
 10
150.685
 20
-102.506
 30
0.0
  0
LWPOLYLINE
  5
FC
330
17
100
AcDbEntity
  8
0
100
AcDbPolyline
 90
6
 70
1
 10
154.475
 20
-104.106
 10
154.216
 20
-104.256
 10
152.701
 20
-103.381
 10
152.701
 20
-101.631
 10
153.22
 20
-101.331
 10
154.475
 20
-104.106
  0
LWPOLYLINE
  5
FD
330
17
100
AcDbEntity
  8
0
100
AcDbPolyline
 90
4
 70
1
 10
118.368
 20
-98.407
 10
118.655
 20
-98.573
 10
118.655
 20
-99.165
 10
118.368
 20
-98.407
  0
INSERT
  5
FE
330
17
100
AcDbEntity
  8
0
100
AcDbBlockReference
  2
HEX
 10
120.671
 20
-99.448
 30
0.0
  0
INSERT
  5
100
330
17
100
AcDbEntity
  8
0
100
AcDbBlockReference
  2
HEX
 10
124.202
 20
-99.448
 30
0.0
  0
INSERT
  5
102
330
17
100
AcDbEntity
  8
0
100
AcDbBlockReference
  2
HEX
 10
127.733
 20
-99.448
 30
0.0
  0
INSERT
  5
104
330
17
100
AcDbEntity
  8
0
100
AcDbBlockReference
  2
HEX
 10
131.264
 20
-99.448
 30
0.0
  0
INSERT
  5
106
330
17
100
AcDbEntity
  8
0
100
AcDbBlockReference
  2
HEX
 10
134.795
 20
-99.448
 30
0.0
  0
INSERT
  5
108
330
17
100
AcDbEntity
  8
0
100
AcDbBlockReference
  2
HEX
 10
138.326
 20
-99.448
 30
0.0
  0
INSERT
  5
10A
330
17
100
AcDbEntity
  8
0
100
AcDbBlockReference
  2
HEX
 10
141.858
 20
-99.448
 30
0.0
  0
INSERT
  5
10C
330
17
100
AcDbEntity
  8
0
100
AcDbBlockReference
  2
HEX
 10
145.389
 20
-99.448
 30
0.0
  0
INSERT
  5
10E
330
17
100
AcDbEntity
  8
0
100
AcDbBlockReference
  2
HEX
 10
148.92
 20
-99.448
 30
0.0
  0
LWPOLYLINE
  5
110
330
17
100
AcDbEntity
  8
0
100
AcDbPolyline
 90
7
 70
1
 10
152.206
 20
-99.089
 10
153.013
 20
-100.873
 10
152.451
 20
-101.198
 10
150.935
 20
-100.323
 10
150.935
 20
-98.573
 10
151.839
 20
-98.051
 10
152.206
 20
-99.089
  0
LWPOLYLINE
  5
111
330
17
100
AcDbEntity
  8
0
100
AcDbPolyline
 90
8
 70
1
 10
117.39
 20
-95.827
 10
117.39
 20
-95.515
 10
118.905
 20
-94.64
 10
120.421
 20
-95.515
 10
120.421
 20
-97.265
 10
118.905
 20
-98.14
 10
118.088
 20
-97.668
 10
117.39
 20
-95.827
  0
INSERT
  5
112
330
17
100
AcDbEntity
  8
0
100
AcDbBlockReference
  2
HEX
 10
122.437
 20
-96.39
 30
0.0
  0
INSERT
  5
114
330
17
100
AcDbEntity
  8
0
100
AcDbBlockReference
  2
HEX
 10
125.968
 20
-96.39
 30
0.0
  0
INSERT
  5
116
330
17
100
AcDbEntity
  8
0
100
AcDbBlockReference
  2
HEX
 10
129.499
 20
-96.39
 30
0.0
  0
INSERT
  5
118
330
17
100
AcDbEntity
  8
0
100
AcDbBlockReference
  2
HEX
 10
133.03
 20
-96.39
 30
0.0
  0
INSERT
  5
11A
330
17
100
AcDbEntity
  8
0
100
AcDbBlockReference
  2
HEX
 10
136.561
 20
-96.39
 30
0.0
  0
INSERT
  5
11C
330
17
100
AcDbEntity
  8
0
100
AcDbBlockReference
  2
HEX
 10
140.092
 20
-96.39
 30
0.0
  0
INSERT
  5
11E
330
17
100
AcDbEntity
  8
0
100
AcDbBlockReference
  2
HEX
 10
143.623
 20
-96.39
 30
0.0
  0
INSERT
  5
120
330
17
100
AcDbEntity
  8
0
100
AcDbBlockReference
  2
HEX
 10
147.154
 20
-96.39
 30
0.0
  0
LWPOLYLINE
  5
122
330
17
100
AcDbEntity
  8
0
100
AcDbPolyline
 90
8
 70
1
 10
151.124
 20
-96.027
 10
151.669
 20
-97.571
 10
150.685
 20
-98.14
 10
149.17
 20
-97.265
 10
149.17
 20
-95.515
 10
150.685
 20
-94.64
 10
150.771
 20
-94.689
 10
151.124
 20
-96.027
  0
LWPOLYLINE
  5
123
330
17
100
AcDbEntity
  8
0
100
AcDbPolyline
 90
7
 70
1
 10
116.025
 20
-92.226
 10
117.14
 20
-91.582
 10
118.655
 20
-92.457
 10
118.655
 20
-94.207
 10
117.14
 20
-95.082
 10
117.098
 20
-95.058
 10
116.025
 20
-92.226
  0
INSERT
  5
124
330
17
100
AcDbEntity
  8
0
100
AcDbBlockReference
  2
HEX
 10
120.671
 20
-93.332
 30
0.0
  0
INSERT
  5
126
330
17
100
AcDbEntity
  8
0
100
AcDbBlockReference
  2
HEX
 10
124.202
 20
-93.332
 30
0.0
  0
INSERT
  5
128
330
17
100
AcDbEntity
  8
0
100
AcDbBlockReference
  2
HEX
 10
127.733
 20
-93.332
 30
0.0
  0
INSERT
  5
12A
330
17
100
AcDbEntity
  8
0
100
AcDbBlockReference
  2
HEX
 10
131.264
 20
-93.332
 30
0.0
  0
INSERT
  5
12C
330
17
100
AcDbEntity
  8
0
100
AcDbBlockReference
  2
HEX
 10
134.795
 20
-93.332
 30
0.0
  0
INSERT
  5
12E
330
17
100
AcDbEntity
  8
0
100
AcDbBlockReference
  2
HEX
 10
138.326
 20
-93.332
 30
0.0
  0
INSERT
  5
130
330
17
100
AcDbEntity
  8
0
100
AcDbBlockReference
  2
HEX
 10
141.858
 20
-93.332
 30
0.0
  0
INSERT
  5
132
330
17
100
AcDbEntity
  8
0
100
AcDbBlockReference
  2
HEX
 10
145.389
 20
-93.332
 30
0.0
  0
LWPOLYLINE
  5
134
330
17
100
AcDbEntity
  8
0
100
AcDbPolyline
 90
9
 70
1
 10
150.291
 20
-92.867
 10
150.435
 20
-93.416
 10
150.435
 20
-94.207
 10
148.92
 20
-95.082
 10
147.404
 20
-94.207
 10
147.404
 20
-92.457
 10
148.92
 20
-91.582
 10
150.197
 20
-92.319
 10
150.291
 20
-92.867
  0
LWPOLYLINE
  5
135
330
17
100
AcDbEntity
  8
0
100
AcDbPolyline
 90
8
 70
1
 10
115.661
 20
-91.267
 10
114.591
 20
-89.256
 10
114.451
 20
-89.057
 10
115.374
 20
-88.524
 10
116.89
 20
-89.399
 10
116.89
 20
-91.149
 10
115.845
 20
-91.752
 10
115.661
 20
-91.267
  0
INSERT
  5
136
330
17
100
AcDbEntity
  8
0
100
AcDbBlockReference
  2
HEX
 10
118.905
 20
-90.274
 30
0.0
  0
INSERT
  5
138
330
17
100
AcDbEntity
  8
0
100
AcDbBlockReference
  2
HEX
 10
122.437
 20
-90.274
 30
0.0
  0
INSERT
  5
13A
330
17
100
AcDbEntity
  8
0
100
AcDbBlockReference
  2
HEX
 10
125.968
 20
-90.274
 30
0.0
  0
INSERT
  5
13C
330
17
100
AcDbEntity
  8
0
100
AcDbBlockReference
  2
HEX
 10
129.499
 20
-90.274
 30
0.0
  0
INSERT
  5
13E
330
17
100
AcDbEntity
  8
0
100
AcDbBlockReference
  2
HEX
 10
133.03
 20
-90.274
 30
0.0
  0
INSERT
  5
140
330
17
100
AcDbEntity
  8
0
100
AcDbBlockReference
  2
HEX
 10
136.561
 20
-90.274
 30
0.0
  0
INSERT
  5
142
330
17
100
AcDbEntity
  8
0
100
AcDbBlockReference
  2
HEX
 10
140.092
 20
-90.274
 30
0.0
  0
INSERT
  5
144
330
17
100
AcDbEntity
  8
0
100
AcDbBlockReference
  2
HEX
 10
143.623
 20
-90.274
 30
0.0
  0
INSERT
  5
146
330
17
100
AcDbEntity
  8
0
100
AcDbBlockReference
  2
HEX
 10
147.154
 20
-90.274
 30
0.0
  0
LWPOLYLINE
  5
148
330
17
100
AcDbEntity
  8
0
100
AcDbPolyline
 90
7
 70
1
 10
149.866
 20
-89.652
 10
150.017
 20
-91.264
 10
150.088
 20
-91.679
 10
149.17
 20
-91.149
 10
149.17
 20
-89.399
 10
149.862
 20
-88.999
 10
149.866
 20
-89.652
  0
LWPOLYLINE
  5
149
330
17
100
AcDbEntity
  8
0
100
AcDbPolyline
 90
7
 70
1
 10
113.296
 20
-87.405
 10
112.257
 20
-86.246
 10
113.609
 20
-85.466
 10
115.124
 20
-86.341
 10
115.124
 20
-88.091
 10
114.163
 20
-88.645
 10
113.296
 20
-87.405
  0
INSERT
  5
14A
330
17
100
AcDbEntity
  8
0
100
AcDbBlockReference
  2
HEX
 10
117.14
 20
-87.216
 30
0.0
  0
INSERT
  5
14C
330
17
100
AcDbEntity
  8
0
100
AcDbBlockReference
  2
HEX
 10
120.671
 20
-87.216
 30
0.0
  0
INSERT
  5
14E
330
17
100
AcDbEntity
  8
0
100
AcDbBlockReference
  2
HEX
 10
124.202
 20
-87.216
 30
0.0
  0
INSERT
  5
150
330
17
100
AcDbEntity
  8
0
100
AcDbBlockReference
  2
HEX
 10
127.733
 20
-87.216
 30
0.0
  0
INSERT
  5
152
330
17
100
AcDbEntity
  8
0
100
AcDbBlockReference
  2
HEX
 10
131.264
 20
-87.216
 30
0.0
  0
INSERT
  5
154
330
17
100
AcDbEntity
  8
0
100
AcDbBlockReference
  2
HEX
 10
134.795
 20
-87.216
 30
0.0
  0
INSERT
  5
156
330
17
100
AcDbEntity
  8
0
100
AcDbBlockReference
  2
HEX
 10
138.326
 20
-87.216
 30
0.0
  0
INSERT
  5
158
330
17
100
AcDbEntity
  8
0
100
AcDbBlockReference
  2
HEX
 10
141.858
 20
-87.216
 30
0.0
  0
INSERT
  5
15A
330
17
100
AcDbEntity
  8
0
100
AcDbBlockReference
  2
HEX
 10
145.389
 20
-87.216
 30
0.0
  0
LWPOLYLINE
  5
15C
330
17
100
AcDbEntity
  8
0
100
AcDbPolyline
 90
8
 70
1
 10
149.857
 20
-88.037
 10
149.859
 20
-88.423
 10
148.92
 20
-88.966
 10
147.404
 20
-88.091
 10
147.404
 20
-86.341
 10
148.92
 20
-85.466
 10
150.073
 20
-86.131
 10
149.857
 20
-88.037
  0
LWPOLYLINE
  5
15D
330
17
100
AcDbEntity
  8
0
100
AcDbPolyline
 90
6
 70
1
 10
108.252
 20
-82.995
 10
107.745
 20
-82.735
 10
108.312
 20
-82.408
 10
109.828
 20
-83.283
 10
109.828
 20
-84.066
 10
108.252
 20
-82.995
  0
LWPOLYLINE
  5
15E
330
17
100
AcDbEntity
  8
0
100
AcDbPolyline
 90
8
 70
1
 10
111.795
 20
-85.732
 10
110.328
 20
-84.448
 10
110.328
 20
-83.283
 10
111.843
 20
-82.408
 10
113.359
 20
-83.283
 10
113.359
 20
-85.033
 10
111.915
 20
-85.866
 10
111.795
 20
-85.732
  0
INSERT
  5
15F
330
17
100
AcDbEntity
  8
0
100
AcDbBlockReference
  2
HEX
 10
115.374
 20
-84.158
 30
0.0
  0
INSERT
  5
161
330
17
100
AcDbEntity
  8
0
100
AcDbBlockReference
  2
HEX
 10
118.905
 20
-84.158
 30
0.0
  0
INSERT
  5
163
330
17
100
AcDbEntity
  8
0
100
AcDbBlockReference
  2
HEX
 10
122.437
 20
-84.158
 30
0.0
  0
INSERT
  5
165
330
17
100
AcDbEntity
  8
0
100
AcDbBlockReference
  2
HEX
 10
125.968
 20
-84.158
 30
0.0
  0
INSERT
  5
167
330
17
100
AcDbEntity
  8
0
100
AcDbBlockReference
  2
HEX
 10
129.499
 20
-84.158
 30
0.0
  0
INSERT
  5
169
330
17
100
AcDbEntity
  8
0
100
AcDbBlockReference
  2
HEX
 10
133.03
 20
-84.158
 30
0.0
  0
INSERT
  5
16B
330
17
100
AcDbEntity
  8
0
100
AcDbBlockReference
  2
HEX
 10
136.561
 20
-84.158
 30
0.0
  0
INSERT
  5
16D
330
17
100
AcDbEntity
  8
0
100
AcDbBlockReference
  2
HEX
 10
140.092
 20
-84.158
 30
0.0
  0
INSERT
  5
16F
330
17
100
AcDbEntity
  8
0
100
AcDbBlockReference
  2
HEX
 10
143.623
 20
-84.158
 30
0.0
  0
INSERT
  5
171
330
17
100
AcDbEntity
  8
0
100
AcDbBlockReference
  2
HEX
 10
147.154
 20
-84.158
 30
0.0
  0
LWPOLYLINE
  5
173
330
17
100
AcDbEntity
  8
0
100
AcDbPolyline
 90
7
 70
1
 10
150.606
 20
-83.585
 10
150.14
 20
-85.593
 10
149.17
 20
-85.033
 10
149.17
 20
-83.283
 10
150.685
 20
-82.408
 10
150.953
 20
-82.562
 10
150.606
 20
-83.585
  0
LWPOLYLINE
  5
174
330
17
100
AcDbEntity
  8
0
100
AcDbPolyline
 90
9
 70
1
 10
93.336
 20
-80.005
 10
93.125
 20
-79.976
 10
92.923
 20
-79.927
 10
92.731
 20
-79.859
 10
92.372
 20
-79.672
 10
92.15
 20
-79.507
 10
92.422
 20
-79.35
 10
93.571
 20
-80.013
 10
93.336
 20
-80.005
  0
LWPOLYLINE
  5
175
330
17
100
AcDbEntity
  8
0
100
AcDbPolyline
 90
4
 70
1
 10
94.735
 20
-80.053
 10
95.953
 20
-79.35
 10
97.325
 20
-80.142
 10
94.735
 20
-80.053
  0
LWPOLYLINE
  5
176
330
17
100
AcDbEntity
  8
0
100
AcDbPolyline
 90
5
 70
1
 10
101.0
 20
-80.58
 10
98.068
 20
-80.167
 10
99.484
 20
-79.35
 10
101.0
 20
-80.225
 10
101.0
 20
-80.58
  0
LWPOLYLINE
  5
177
330
17
100
AcDbEntity
  8
0
100
AcDbPolyline
 90
8
 70
1
 10
104.108
 20
-81.19
 10
102.508
 20
-80.796
 10
101.5
 20
-80.652
 10
101.5
 20
-80.225
 10
103.016
 20
-79.35
 10
104.531
 20
-80.225
 10
104.531
 20
-81.344
 10
104.108
 20
-81.19
  0
LWPOLYLINE
  5
178
330
17
100
AcDbEntity
  8
0
100
AcDbPolyline
 90
8
 70
1
 10
106.246
 20
-81.967
 10
105.031
 20
-81.526
 10
105.031
 20
-80.225
 10
106.547
 20
-79.35
 10
108.062
 20
-80.225
 10
108.062
 20
-81.975
 10
107.215
 20
-82.464
 10
106.246
 20
-81.967
  0
INSERT
  5
179
330
17
100
AcDbEntity
  8
0
100
AcDbBlockReference
  2
HEX
 10
110.078
 20
-81.1
 30
0.0
  0
INSERT
  5
17B
330
17
100
AcDbEntity
  8
0
100
AcDbBlockReference
  2
HEX
 10
113.609
 20
-81.1
 30
0.0
  0
INSERT
  5
17D
330
17
100
AcDbEntity
  8
0
100
AcDbBlockReference
  2
HEX
 10
117.14
 20
-81.1
 30
0.0
  0
INSERT
  5
17F
330
17
100
AcDbEntity
  8
0
100
AcDbBlockReference
  2
HEX
 10
120.671
 20
-81.1
 30
0.0
  0
INSERT
  5
181
330
17
100
AcDbEntity
  8
0
100
AcDbBlockReference
  2
HEX
 10
124.202
 20
-81.1
 30
0.0
  0
INSERT
  5
183
330
17
100
AcDbEntity
  8
0
100
AcDbBlockReference
  2
HEX
 10
127.733
 20
-81.1
 30
0.0
  0
INSERT
  5
185
330
17
100
AcDbEntity
  8
0
100
AcDbBlockReference
  2
HEX
 10
131.264
 20
-81.1
 30
0.0
  0
INSERT
  5
187
330
17
100
AcDbEntity
  8
0
100
AcDbBlockReference
  2
HEX
 10
134.795
 20
-81.1
 30
0.0
  0
INSERT
  5
189
330
17
100
AcDbEntity
  8
0
100
AcDbBlockReference
  2
HEX
 10
138.326
 20
-81.1
 30
0.0
  0
INSERT
  5
18B
330
17
100
AcDbEntity
  8
0
100
AcDbBlockReference
  2
HEX
 10
141.858
 20
-81.1
 30
0.0
  0
INSERT
  5
18D
330
17
100
AcDbEntity
  8
0
100
AcDbBlockReference
  2
HEX
 10
145.389
 20
-81.1
 30
0.0
  0
INSERT
  5
18F
330
17
100
AcDbEntity
  8
0
100
AcDbBlockReference
  2
HEX
 10
148.92
 20
-81.1
 30
0.0
  0
LWPOLYLINE
  5
191
330
17
100
AcDbEntity
  8
0
100
AcDbPolyline
 90
7
 70
1
 10
152.151
 20
-79.636
 10
151.287
 20
-81.576
 10
151.117
 20
-82.079
 10
150.935
 20
-81.975
 10
150.935
 20
-80.225
 10
152.247
 20
-79.467
 10
152.151
 20
-79.636
  0
LWPOLYLINE
  5
192
330
17
100
AcDbEntity
  8
0
100
AcDbPolyline
 90
9
 70
1
 10
91.781
 20
-79.143
 10
91.506
 20
-78.777
 10
91.283
 20
-78.397
 10
91.091
 20
-77.992
 10
90.488
 20
-76.389
 10
90.657
 20
-76.292
 10
92.172
 20
-77.167
 10
92.172
 20
-78.917
 10
91.781
 20
-79.143
  0
INSERT
  5
193
330
17
100
AcDbEntity
  8
0
100
AcDbBlockReference
  2
HEX
 10
94.188
 20
-78.042
 30
0.0
  0
INSERT
  5
195
330
17
100
AcDbEntity
  8
0
100
AcDbBlockReference
  2
HEX
 10
97.719
 20
-78.042
 30
0.0
  0
INSERT
  5
197
330
17
100
AcDbEntity
  8
0
100
AcDbBlockReference
  2
HEX
 10
101.25
 20
-78.042
 30
0.0
  0
INSERT
  5
199
330
17
100
AcDbEntity
  8
0
100
AcDbBlockReference
  2
HEX
 10
104.781
 20
-78.042
 30
0.0
  0
INSERT
  5
19B
330
17
100
AcDbEntity
  8
0
100
AcDbBlockReference
  2
HEX
 10
108.312
 20
-78.042
 30
0.0
  0
LWPOLYLINE
  5
19D
330
17
100
AcDbEntity
  8
0
100
AcDbPolyline
 90
14
 70
1
 10
111.688
 20
-76.381
 10
111.83
 20
-76.628
 10
111.956
 20
-76.797
 10
112.254
 20
-77.094
 10
112.422
 20
-77.221
 10
112.603
 20
-77.331
 10
112.795
 20
-77.423
 10
112.997
 20
-77.497
 10
113.359
 20
-77.574
 10
113.359
 20
-78.917
 10
111.843
 20
-79.792
 10
110.328
 20
-78.917
 10
110.328
 20
-77.167
 10
111.688
 20
-76.381
  0
LWPOLYLINE
  5
19E
330
17
100
AcDbEntity
  8
0
100
AcDbPolyline
 90
6
 70
1
 10
116.89
 20
-77.584
 10
116.89
 20
-78.917
 10
115.374
 20
-79.792
 10
113.859
 20
-78.917
 10
113.859
 20
-77.584
 10
116.89
 20
-77.584
  0
LWPOLYLINE
  5
19F
330
17
100
AcDbEntity
  8
0
100
AcDbPolyline
 90
6
 70
1
 10
120.421
 20
-77.584
 10
120.421
 20
-78.917
 10
118.905
 20
-79.792
 10
117.39
 20
-78.917
 10
117.39
 20
-77.584
 10
120.421
 20
-77.584
  0
LWPOLYLINE
  5
1A0
330
17
100
AcDbEntity
  8
0
100
AcDbPolyline
 90
6
 70
1
 10
123.952
 20
-77.584
 10
123.952
 20
-78.917
 10
122.437
 20
-79.792
 10
120.921
 20
-78.917
 10
120.921
 20
-77.584
 10
123.952
 20
-77.584
  0
LWPOLYLINE
  5
1A1
330
17
100
AcDbEntity
  8
0
100
AcDbPolyline
 90
13
 70
1
 10
125.775
 20
-77.584
 10
125.988
 20
-77.552
 10
126.193
 20
-77.499
 10
126.39
 20
-77.427
 10
126.577
 20
-77.337
 10
126.919
 20
-77.106
 10
127.094
 20
-76.942
 10
127.483
 20
-77.167
 10
127.483
 20
-78.917
 10
125.968
 20
-79.792
 10
124.452
 20
-78.917
 10
124.452
 20
-77.584
 10
125.775
 20
-77.584
  0
INSERT
  5
1A2
330
17
100
AcDbEntity
  8
0
100
AcDbBlockReference
  2
HEX
 10
129.499
 20
-78.042
 30
0.0
  0
INSERT
  5
1A4
330
17
100
AcDbEntity
  8
0
100
AcDbBlockReference
  2
HEX
 10
133.03
 20
-78.042
 30
0.0
  0
INSERT
  5
1A6
330
17
100
AcDbEntity
  8
0
100
AcDbBlockReference
  2
HEX
 10
136.561
 20
-78.042
 30
0.0
  0
INSERT
  5
1A8
330
17
100
AcDbEntity
  8
0
100
AcDbBlockReference
  2
HEX
 10
140.092
 20
-78.042
 30
0.0
  0
INSERT
  5
1AA
330
17
100
AcDbEntity
  8
0
100
AcDbBlockReference
  2
HEX
 10
143.623
 20
-78.042
 30
0.0
  0
INSERT
  5
1AC
330
17
100
AcDbEntity
  8
0
100
AcDbBlockReference
  2
HEX
 10
147.154
 20
-78.042
 30
0.0
  0
INSERT
  5
1AE
330
17
100
AcDbEntity
  8
0
100
AcDbBlockReference
  2
HEX
 10
150.685
 20
-78.042
 30
0.0
  0
LWPOLYLINE
  5
1B0
330
17
100
AcDbEntity
  8
0
100
AcDbPolyline
 90
6
 70
1
 10
153.432
 20
-77.405
 10
152.701
 20
-78.678
 10
152.701
 20
-77.167
 10
154.216
 20
-76.292
 10
154.257
 20
-76.315
 10
153.432
 20
-77.405
  0
LWPOLYLINE
  5
1B1
330
17
100
AcDbEntity
  8
0
100
AcDbPolyline
 90
6
 70
1
 10
89.817
 20
-74.606
 10
89.543
 20
-73.61
 10
90.407
 20
-74.109
 10
90.407
 20
-75.859
 10
90.31
 20
-75.915
 10
89.817
 20
-74.606
  0
INSERT
  5
1B2
330
17
100
AcDbEntity
  8
0
100
AcDbBlockReference
  2
HEX
 10
92.422
 20
-74.984
 30
0.0
  0
INSERT
  5
1B4
330
17
100
AcDbEntity
  8
0
100
AcDbBlockReference
  2
HEX
 10
95.953
 20
-74.984
 30
0.0
  0
INSERT
  5
1B6
330
17
100
AcDbEntity
  8
0
100
AcDbBlockReference
  2
HEX
 10
99.484
 20
-74.984
 30
0.0
  0
INSERT
  5
1B8
330
17
100
AcDbEntity
  8
0
100
AcDbBlockReference
  2
HEX
 10
103.016
 20
-74.984
 30
0.0
  0
INSERT
  5
1BA
330
17
100
AcDbEntity
  8
0
100
AcDbBlockReference
  2
HEX
 10
106.547
 20
-74.984
 30
0.0
  0
LWPOLYLINE
  5
1BC
330
17
100
AcDbEntity
  8
0
100
AcDbPolyline
 90
8
 70
1
 10
111.466
 20
-75.625
 10
111.515
 20
-75.904
 10
110.078
 20
-76.734
 10
108.562
 20
-75.859
 10
108.562
 20
-74.109
 10
110.078
 20
-73.234
 10
111.462
 20
-74.033
 10
111.466
 20
-75.625
  0
LWPOLYLINE
  5
1BD
330
17
100
AcDbEntity
  8
0
100
AcDbPolyline
 90
11
 70
1
 10
127.4
 20
-76.541
 10
127.531
 20
-76.286
 10
127.603
 20
-76.089
 10
127.656
 20
-75.884
 10
127.688
 20
-75.671
 10
127.694
 20
-73.256
 10
127.733
 20
-73.234
 10
129.249
 20
-74.109
 10
129.249
 20
-75.859
 10
127.733
 20
-76.734
 10
127.4
 20
-76.541
  0
INSERT
  5
1BE
330
17
100
AcDbEntity
  8
0
100
AcDbBlockReference
  2
HEX
 10
131.264
 20
-74.984
 30
0.0
  0
INSERT
  5
1C0
330
17
100
AcDbEntity
  8
0
100
AcDbBlockReference
  2
HEX
 10
134.795
 20
-74.984
 30
0.0
  0
INSERT
  5
1C2
330
17
100
AcDbEntity
  8
0
100
AcDbBlockReference
  2
HEX
 10
138.326
 20
-74.984
 30
0.0
  0
INSERT
  5
1C4
330
17
100
AcDbEntity
  8
0
100
AcDbBlockReference
  2
HEX
 10
141.858
 20
-74.984
 30
0.0
  0
INSERT
  5
1C6
330
17
100
AcDbEntity
  8
0
100
AcDbBlockReference
  2
HEX
 10
145.389
 20
-74.984
 30
0.0
  0
INSERT
  5
1C8
330
17
100
AcDbEntity
  8
0
100
AcDbBlockReference
  2
HEX
 10
148.92
 20
-74.984
 30
0.0
  0
INSERT
  5
1CA
330
17
100
AcDbEntity
  8
0
100
AcDbBlockReference
  2
HEX
 10
152.451
 20
-74.984
 30
0.0
  0
LWPOLYLINE
  5
1CC
330
17
100
AcDbEntity
  8
0
100
AcDbPolyline
 90
7
 70
1
 10
155.043
 20
-75.276
 10
154.561
 20
-75.913
 10
154.466
 20
-75.859
 10
154.466
 20
-74.109
 10
155.982
 20
-73.234
 10
156.634
 20
-73.61
 10
155.043
 20
-75.276
  0
LWPOLYLINE
  5
1CD
330
17
100
AcDbEntity
  8
0
100
AcDbPolyline
 90
7
 70
1
 10
92.172
 20
-71.126
 10
92.172
 20
-72.801
 10
90.657
 20
-73.676
 10
89.355
 20
-72.924
 10
89.141
 20
-72.148
 10
89.141
 20
-71.126
 10
92.172
 20
-71.126
  0
LWPOLYLINE
  5
1CE
330
17
100
AcDbEntity
  8
0
100
AcDbPolyline
 90
6
 70
1
 10
95.703
 20
-71.126
 10
95.703
 20
-72.801
 10
94.188
 20
-73.676
 10
92.672
 20
-72.801
 10
92.672
 20
-71.126
 10
95.703
 20
-71.126
  0
LWPOLYLINE
  5
1CF
330
17
100
AcDbEntity
  8
0
100
AcDbPolyline
 90
6
 70
1
 10
99.234
 20
-71.126
 10
99.234
 20
-72.801
 10
97.719
 20
-73.676
 10
96.203
 20
-72.801
 10
96.203
 20
-71.126
 10
99.234
 20
-71.126
  0
LWPOLYLINE
  5
1D0
330
17
100
AcDbEntity
  8
0
100
AcDbPolyline
 90
6
 70
1
 10
102.766
 20
-71.126
 10
102.766
 20
-72.801
 10
101.25
 20
-73.676
 10
99.734
 20
-72.801
 10
99.734
 20
-71.126
 10
102.766
 20
-71.126
  0
LWPOLYLINE
  5
1D1
330
17
100
AcDbEntity
  8
0
100
AcDbPolyline
 90
6
 70
1
 10
106.297
 20
-71.126
 10
106.297
 20
-72.801
 10
104.781
 20
-73.676
 10
103.266
 20
-72.801
 10
103.266
 20
-71.126
 10
106.297
 20
-71.126
  0
LWPOLYLINE
  5
1D2
330
17
100
AcDbEntity
  8
0
100
AcDbPolyline
 90
6
 70
1
 10
109.828
 20
-71.126
 10
109.828
 20
-72.801
 10
108.312
 20
-73.676
 10
106.797
 20
-72.801
 10
106.797
 20
-71.126
 10
109.828
 20
-71.126
  0
LWPOLYLINE
  5
1D3
330
17
100
AcDbEntity
  8
0
100
AcDbPolyline
 90
5
 70
1
 10
111.455
 20
-71.126
 10
111.461
 20
-73.455
 10
110.328
 20
-72.801
 10
110.328
 20
-71.126
 10
111.455
 20
-71.126
  0
LWPOLYLINE
  5
1D4
330
17
100
AcDbEntity
  8
0
100
AcDbPolyline
 90
6
 70
1
 10
131.014
 20
-71.125
 10
131.014
 20
-72.801
 10
129.499
 20
-73.676
 10
127.983
 20
-72.801
 10
127.983
 20
-71.125
 10
131.014
 20
-71.125
  0
LWPOLYLINE
  5
1D5
330
17
100
AcDbEntity
  8
0
100
AcDbPolyline
 90
6
 70
1
 10
134.545
 20
-71.125
 10
134.545
 20
-72.801
 10
133.03
 20
-73.676
 10
131.514
 20
-72.801
 10
131.514
 20
-71.125
 10
134.545
 20
-71.125
  0
LWPOLYLINE
  5
1D6
330
17
100
AcDbEntity
  8
0
100
AcDbPolyline
 90
6
 70
1
 10
138.076
 20
-71.125
 10
138.076
 20
-72.801
 10
136.561
 20
-73.676
 10
135.045
 20
-72.801
 10
135.045
 20
-71.125
 10
138.076
 20
-71.125
  0
LWPOLYLINE
  5
1D7
330
17
100
AcDbEntity
  8
0
100
AcDbPolyline
 90
6
 70
1
 10
141.608
 20
-71.125
 10
141.608
 20
-72.801
 10
140.092
 20
-73.676
 10
138.576
 20
-72.801
 10
138.576
 20
-71.125
 10
141.608
 20
-71.125
  0
LWPOLYLINE
  5
1D8
330
17
100
AcDbEntity
  8
0
100
AcDbPolyline
 90
6
 70
1
 10
145.139
 20
-71.125
 10
145.139
 20
-72.801
 10
143.623
 20
-73.676
 10
142.108
 20
-72.801
 10
142.108
 20
-71.125
 10
145.139
 20
-71.125
  0
LWPOLYLINE
  5
1D9
330
17
100
AcDbEntity
  8
0
100
AcDbPolyline
 90
6
 70
1
 10
148.67
 20
-71.125
 10
148.67
 20
-72.801
 10
147.154
 20
-73.676
 10
145.639
 20
-72.801
 10
145.639
 20
-71.125
 10
148.67
 20
-71.125
  0
LWPOLYLINE
  5
1DA
330
17
100
AcDbEntity
  8
0
100
AcDbPolyline
 90
6
 70
1
 10
152.201
 20
-71.125
 10
152.201
 20
-72.801
 10
150.685
 20
-73.676
 10
149.17
 20
-72.801
 10
149.17
 20
-71.125
 10
152.201
 20
-71.125
  0
LWPOLYLINE
  5
1DB
330
17
100
AcDbEntity
  8
0
100
AcDbPolyline
 90
6
 70
1
 10
155.732
 20
-71.125
 10
155.732
 20
-72.801
 10
154.216
 20
-73.676
 10
152.701
 20
-72.801
 10
152.701
 20
-71.125
 10
155.732
 20
-71.125
  0
LWPOLYLINE
  5
1DC
330
17
100
AcDbEntity
  8
0
100
AcDbPolyline
 90
6
 70
1
 10
157.003
 20
-73.246
 10
156.232
 20
-72.801
 10
156.232
 20
-71.125
 10
159.263
 20
-71.125
 10
159.263
 20
-71.315
 10
157.003
 20
-73.246
  0
ENDSEC
  0
SECTION
  2
OBJECTS
  0
DICTIONARY
  5
A
330
0
100
AcDbDictionary
281
1
  3
ACAD_COLOR
350
B
  3
ACAD_GROUP
350
C
  3
ACAD_LAYOUT
350
D
  3
ACAD_MATERIAL
350
E
  3
ACAD_MLEADERSTYLE
350
F
  3
ACAD_MLINESTYLE
350
10
  3
ACAD_PLOTSETTINGS
350
11
  3
ACAD_PLOTSTYLENAME
350
12
  3
ACAD_SCALELIST
350
14
  3
ACAD_TABLESTYLE
350
15
  3
ACAD_VISUALSTYLE
350
16
  3
EZDXF_META
350
2D
  0
DICTIONARY
  5
B
330
A
100
AcDbDictionary
281
1
  0
DICTIONARY
  5
C
330
A
100
AcDbDictionary
281
1
  0
DICTIONARY
  5
D
330
A
100
AcDbDictionary
281
1
  3
Model
350
1A
  3
Layout1
350
1E
  0
DICTIONARY
  5
E
330
A
100
AcDbDictionary
281
1
  3
ByBlock
350
1F
  3
ByLayer
350
20
  3
Global
350
21
  0
DICTIONARY
  5
F
330
A
100
AcDbDictionary
281
1
  3
Standard
350
2C
  0
DICTIONARY
  5
10
330
A
100
AcDbDictionary
281
1
  3
Standard
350
22
  0
DICTIONARY
  5
11
330
A
100
AcDbDictionary
281
1
  0
ACDBDICTIONARYWDFLT
  5
12
330
A
100
AcDbDictionary
281
1
  3
Normal
350
13
100
AcDbDictionaryWithDefault
340
13
  0
ACDBPLACEHOLDER
  5
13
330
12
  0
DICTIONARY
  5
14
330
A
100
AcDbDictionary
281
1
  0
DICTIONARY
  5
15
330
A
100
AcDbDictionary
281
1
  0
DICTIONARY
  5
16
330
A
100
AcDbDictionary
281
1
  0
LAYOUT
  5
1A
330
D
100
AcDbPlotSettings
  1

  4
A3
  6

 40
7.5
 41
20.0
 42
7.5
 43
20.0
 44
420.0
 45
297.0
 46
0.0
 47
0.0
 48
0.0
 49
0.0
140
0.0
141
0.0
142
1.0
143
1.0
 70
1024
 72
1
 73
0
 74
5
  7

 75
16
 76
0
 77
2
 78
300
147
1.0
148
0.0
149
0.0
100
AcDbLayout
  1
Model
 70
1
 71
0
 10
0.0
 20
0.0
 11
420.0
 21
297.0
 12
0.0
 22
0.0
 32
0.0
 14
1e+20
 24
1e+20
 34
1e+20
 15
-1e+20
 25
-1e+20
 35
-1e+20
146
0.0
 13
0.0
 23
0.0
 33
0.0
 16
1.0
 26
0.0
 36
0.0
 17
0.0
 27
1.0
 37
0.0
 76
1
330
17
  0
LAYOUT
  5
1E
330
D
100
AcDbPlotSettings
  1

  4
A3
  6

 40
7.5
 41
20.0
 42
7.5
 43
20.0
 44
420.0
 45
297.0
 46
0.0
 47
0.0
 48
0.0
 49
0.0
140
0.0
141
0.0
142
1.0
143
1.0
 70
0
 72
1
 73
0
 74
5
  7

 75
16
 76
0
 77
2
 78
300
147
1.0
148
0.0
149
0.0
100
AcDbLayout
  1
Layout1
 70
1
 71
1
 10
0.0
 20
0.0
 11
420.0
 21
297.0
 12
0.0
 22
0.0
 32
0.0
 14
1e+20
 24
1e+20
 34
1e+20
 15
-1e+20
 25
-1e+20
 35
-1e+20
146
0.0
 13
0.0
 23
0.0
 33
0.0
 16
1.0
 26
0.0
 36
0.0
 17
0.0
 27
1.0
 37
0.0
 76
1
330
1B
  0
MATERIAL
  5
1F
102
{ACAD_REACTORS
330
E
102
}
330
E
100
AcDbMaterial
  1
ByBlock
  2

 70
0
 40
1.0
 71
1
 41
1.0
 91
-1023410177
 42
1.0
 72
1
  3

 73
1
 74
1
 75
1
 44
0.5
 73
0
 45
1.0
 46
1.0
 77
1
  4

 78
1
 79
1
170
1
 48
1.0
171
1
  6

172
1
173
1
174
1
140
1.0
141
1.0
175
1
  7

176
1
177
1
178
1
143
1.0
179
1
  8

270
1
271
1
272
1
145
1.0
146
1.0
273
1
  9

274
1
275
1
276
1
 42
1.0
 72
1
  3

 73
1
 74
1
 75
1
 94
63
  0
MATERIAL
  5
20
102
{ACAD_REACTORS
330
E
102
}
330
E
100
AcDbMaterial
  1
ByLayer
  2

 70
0
 40
1.0
 71
1
 41
1.0
 91
-1023410177
 42
1.0
 72
1
  3

 73
1
 74
1
 75
1
 44
0.5
 73
0
 45
1.0
 46
1.0
 77
1
  4

 78
1
 79
1
170
1
 48
1.0
171
1
  6

172
1
173
1
174
1
140
1.0
141
1.0
175
1
  7

176
1
177
1
178
1
143
1.0
179
1
  8

270
1
271
1
272
1
145
1.0
146
1.0
273
1
  9

274
1
275
1
276
1
 42
1.0
 72
1
  3

 73
1
 74
1
 75
1
 94
63
  0
MATERIAL
  5
21
102
{ACAD_REACTORS
330
E
102
}
330
E
100
AcDbMaterial
  1
Global
  2

 70
0
 40
1.0
 71
1
 41
1.0
 91
-1023410177
 42
1.0
 72
1
  3

 73
1
 74
1
 75
1
 44
0.5
 73
0
 45
1.0
 46
1.0
 77
1
  4

 78
1
 79
1
170
1
 48
1.0
171
1
  6

172
1
173
1
174
1
140
1.0
141
1.0
175
1
  7

176
1
177
1
178
1
143
1.0
179
1
  8

270
1
271
1
272
1
145
1.0
146
1.0
273
1
  9

274
1
275
1
276
1
 42
1.0
 72
1
  3

 73
1
 74
1
 75
1
 94
63
  0
MLINESTYLE
  5
22
102
{ACAD_REACTORS
330
10
102
}
330
10
100
AcDbMlineStyle
  2
Standard
 70
0
  3

 62
256
 51
90.0
 52
90.0
 71
2
 49
0.5
 62
256
  6
BYLAYER
 49
-0.5
 62
256
  6
BYLAYER
  0
MLEADERSTYLE
  5
2C
102
{ACAD_REACTORS
330
F
102
}
330
F
100
AcDbMLeaderStyle
179
2
170
2
171
1
172
0
 90
2
 40
0.0
 41
0.0
173
1
 91
-1056964608
 92
-2
290
1
 42
2.0
291
1
 43
8.0
  3
Standard
 44
4.0
300

342
29
174
1
175
1
176
0
178
1
 93
-1056964608
 45
4.0
292
0
297
0
 46
4.0
 94
-1056964608
 47
1.0
 49
1.0
140
1.0
294
1
141
0.0
177
0
142
1.0
295
0
296
0
143
3.75
271
0
272
9
273
9
  0
DICTIONARY
  5
2D
330
A
100
AcDbDictionary
280
1
281
1
  3
CREATED_BY_EZDXF
350
2E
  3
WRITTEN_BY_EZDXF
350
1DF
  0
DICTIONARYVAR
  5
2E
330
2D
100
DictionaryVariables
280
0
  1
1.4.3 @ 2026-04-09T21:37:17.828925+00:00
  0
DICTIONARYVAR
  5
1DF
330
2D
100
DictionaryVariables
280
0
  1
1.4.3 @ 2026-04-09T21:37:17.841466+00:00
  0
ENDSEC
  0
EOF
