  0
SECTION
  2
HEADER
  9
$ACADVER
  1
AC1024
  9
$ACADMAINTVER
 70
6
  9
$DWGCODEPAGE
  3
ANSI_1252
  9
$LASTSAVEDBY
  1
ezdxf
  9
$INSBASE
 10
0.0
 20
0.0
 30
0.0
  9
$EXTMIN
 10
1e+20
 20
1e+20
 30
1e+20
  9
$EXTMAX
 10
-1e+20
 20
-1e+20
 30
-1e+20
  9
$LIMMIN
 10
0.0
 20
0.0
  9
$LIMMAX
 10
420.0
 20
297.0
  9
$ORTHOMODE
 70
0
  9
$REGENMODE
 70
1
  9
$FILLMODE
 70
1
  9
$QTEXTMODE
 70
0
  9
$MIRRTEXT
 70
1
  9
$LTSCALE
 40
1.0
  9
$ATTMODE
 70
1
  9
$TEXTSIZE
 40
2.5
  9
$TRACEWID
 40
1.0
  9
$TEXTSTYLE
  7
Standard
  9
$CLAYER
  8
0
  9
$CELTYPE
  6
ByLayer
  9
$CECOLOR
 62
256
  9
$CELTSCALE
 40
1.0
  9
$DISPSILH
 70
0
  9
$DIMSCALE
 40
1.0
  9
$DIMASZ
 40
2.5
  9
$DIMEXO
 40
0.625
  9
$DIMDLI
 40
3.75
  9
$DIMRND
 40
0.0
  9
$DIMDLE
 40
0.0
  9
$DIMEXE
 40
1.25
  9
$DIMTP
 40
0.0
  9
$DIMTM
 40
0.0
  9
$DIMTXT
 40
2.5
  9
$DIMCEN
 40
2.5
  9
$DIMTSZ
 40
0.0
  9
$DIMTOL
 70
0
  9
$DIMLIM
 70
0
  9
$DIMTIH
 70
0
  9
$DIMTOH
 70
0
  9
$DIMSE1
 70
0
  9
$DIMSE2
 70
0
  9
$DIMTAD
 70
1
  9
$DIMZIN
 70
8
  9
$DIMBLK
  1

  9
$DIMASO
 70
1
  9
$DIMSHO
 70
1
  9
$DIMPOST
  1

  9
$DIMAPOST
  1

  9
$DIMALT
 70
0
  9
$DIMALTD
 70
3
  9
$DIMALTF
 40
0.03937007874
  9
$DIMLFAC
 40
1.0
  9
$DIMTOFL
 70
1
  9
$DIMTVP
 40
0.0
  9
$DIMTIX
 70
0
  9
$DIMSOXD
 70
0
  9
$DIMSAH
 70
0
  9
$DIMBLK1
  1

  9
$DIMBLK2
  1

  9
$DIMSTYLE
  2
ISO-25
  9
$DIMCLRD
 70
0
  9
$DIMCLRE
 70
0
  9
$DIMCLRT
 70
0
  9
$DIMTFAC
 40
1.0
  9
$DIMGAP
 40
0.625
  9
$DIMJUST
 70
0
  9
$DIMSD1
 70
0
  9
$DIMSD2
 70
0
  9
$DIMTOLJ
 70
0
  9
$DIMTZIN
 70
8
  9
$DIMALTZ
 70
0
  9
$DIMALTTZ
 70
0
  9
$DIMUPT
 70
0
  9
$DIMDEC
 70
2
  9
$DIMTDEC
 70
2
  9
$DIMALTU
 70
2
  9
$DIMALTTD
 70
3
  9
$DIMTXSTY
  7
Standard
  9
$DIMAUNIT
 70
0
  9
$DIMADEC
 70
0
  9
$DIMALTRND
 40
0.0
  9
$DIMAZIN
 70
0
  9
$DIMDSEP
 70
44
  9
$DIMATFIT
 70
3
  9
$DIMFRAC
 70
0
  9
$DIMLDRBLK
  1

  9
$DIMLUNIT
 70
2
  9
$DIMLWD
 70
-2
  9
$DIMLWE
 70
-2
  9
$DIMTMOVE
 70
0
  9
$DIMFXL
 40
1.0
  9
$DIMFXLON
 70
0
  9
$DIMJOGANG
 40
0.785398163397
  9
$DIMTFILL
 70
0
  9
$DIMTFILLCLR
 70
0
  9
$DIMARCSYM
 70
0
  9
$DIMLTYPE
  6

  9
$DIMLTEX1
  6

  9
$DIMLTEX2
  6

  9
$DIMTXTDIRECTION
 70
0
  9
$LUNITS
 70
2
  9
$LUPREC
 70
4
  9
$SKETCHINC
 40
1.0
  9
$FILLETRAD
 40
10.0
  9
$AUNITS
 70
0
  9
$AUPREC
 70
2
  9
$MENU
  1
.
  9
$ELEVATION
 40
0.0
  9
$PELEVATION
 40
0.0
  9
$THICKNESS
 40
0.0
  9
$LIMCHECK
 70
0
  9
$CHAMFERA
 40
0.0
  9
$CHAMFERB
 40
0.0
  9
$CHAMFERC
 40
0.0
  9
$CHAMFERD
 40
0.0
  9
$SKPOLY
 70
0
  9
$TDCREATE
 40
2461227.73037037
  9
$TDUCREATE
 40
2458532.153996898
  9
$TDUPDATE
 40
2461227.73037037
  9
$TDUUPDATE
 40
2458532.1544311
  9
$TDINDWG
 40
0.0
  9
$TDUSRTIMER
 40
0.0
  9
$USRTIMER
 70
1
  9
$ANGBASE
 50
0.0
  9
$ANGDIR
 70
0
  9
$PDMODE
 70
0
  9
$PDSIZE
 40
0.0
  9
$PLINEWID
 40
0.0
  9
$SPLFRAME
 70
0
  9
$SPLINETYPE
 70
6
  9
$SPLINESEGS
 70
8
  9
$HANDSEED
  5
81
  9
$SURFTAB1
 70
6
  9
$SURFTAB2
 70
6
  9
$SURFTYPE
 70
6
  9
$SURFU
 70
6
  9
$SURFV
 70
6
  9
$UCSBASE
  2

  9
$UCSNAME
  2

  9
$UCSORG
 10
0.0
 20
0.0
 30
0.0
  9
$UCSXDIR
 10
1.0
 20
0.0
 30
0.0
  9
$UCSYDIR
 10
0.0
 20
1.0
 30
0.0
  9
$UCSORTHOREF
  2

  9
$UCSORTHOVIEW
 70
0
  9
$UCSORGTOP
 10
0.0
 20
0.0
 30
0.0
  9
$UCSORGBOTTOM
 10
0.0
 20
0.0
 30
0.0
  9
$UCSORGLEFT
 10
0.0
 20
0.0
 30
0.0
  9
$UCSORGRIGHT
 10
0.0
 20
0.0
 30
0.0
  9
$UCSORGFRONT
 10
0.0
 20
0.0
 30
0.0
  9
$UCSORGBACK
 10
0.0
 20
0.0
 30
0.0
  9
$PUCSBASE
  2

  9
$PUCSNAME
  2

  9
$PUCSORG
 10
0.0
 20
0.0
 30
0.0
  9
$PUCSXDIR
 10
1.0
 20
0.0
 30
0.0
  9
$PUCSYDIR
 10
0.0
 20
1.0
 30
0.0
  9
$PUCSORTHOREF
  2

  9
$PUCSORTHOVIEW
 70
0
  9
$PUCSORGTOP
 10
0.0
 20
0.0
 30
0.0
  9
$PUCSORGBOTTOM
 10
0.0
 20
0.0
 30
0.0
  9
$PUCSORGLEFT
 10
0.0
 20
0.0
 30
0.0
  9
$PUCSORGRIGHT
 10
0.0
 20
0.0
 30
0.0
  9
$PUCSORGFRONT
 10
0.0
 20
0.0
 30
0.0
  9
$PUCSORGBACK
 10
0.0
 20
0.0
 30
0.0
  9
$USERI1
 70
0
  9
$USERI2
 70
0
  9
$USERI3
 70
0
  9
$USERI4
 70
0
  9
$USERI5
 70
0
  9
$USERR1
 40
0.0
  9
$USERR2
 40
0.0
  9
$USERR3
 40
0.0
  9
$USERR4
 40
0.0
  9
$USERR5
 40
0.0
  9
$WORLDVIEW
 70
1
  9
$SHADEDGE
 70
3
  9
$SHADEDIF
 70
70
  9
$TILEMODE
 70
1
  9
$MAXACTVP
 70
64
  9
$PINSBASE
 10
0.0
 20
0.0
 30
0.0
  9
$PLIMCHECK
 70
0
  9
$PEXTMIN
 10
1e+20
 20
1e+20
 30
1e+20
  9
$PEXTMAX
 10
-1e+20
 20
-1e+20
 30
-1e+20
  9
$PLIMMIN
 10
0.0
 20
0.0
  9
$PLIMMAX
 10
420.0
 20
297.0
  9
$UNITMODE
 70
0
  9
$VISRETAIN
 70
1
  9
$PLINEGEN
 70
0
  9
$PSLTSCALE
 70
1
  9
$TREEDEPTH
 70
3020
  9
$CMLSTYLE
  2
Standard
  9
$CMLJUST
 70
0
  9
$CMLSCALE
 40
20.0
  9
$PROXYGRAPHICS
 70
1
  9
$MEASUREMENT
 70
1
  9
$CELWEIGHT
370
-1
  9
$ENDCAPS
280
0
  9
$JOINSTYLE
280
0
  9
$LWDISPLAY
290
0
  9
$INSUNITS
 70
4
  9
$HYPERLINKBASE
  1

  9
$STYLESHEET
  1

  9
$XEDIT
290
1
  9
$CEPSNTYPE
380
0
  9
$PSTYLEMODE
290
1
  9
$FINGERPRINTGUID
  2
{2DDF1335-38C9-4FE3-9965-0206B2446A25}
  9
$VERSIONGUID
  2
{84B6D818-B29B-462D-9870-E1095418EDD1}
  9
$EXTNAMES
290
1
  9
$PSVPSCALE
 40
0.0
  9
$OLESTARTUP
290
0
  9
$SORTENTS
280
127
  9
$INDEXCTL
280
0
  9
$HIDETEXT
280
1
  9
$XCLIPFRAME
280
1
  9
$HALOGAP
280
0
  9
$OBSCOLOR
 70
257
  9
$OBSLTYPE
280
0
  9
$INTERSECTIONDISPLAY
280
0
  9
$INTERSECTIONCOLOR
 70
257
  9
$DIMASSOC
280
2
  9
$PROJECTNAME
  1

  9
$CAMERADISPLAY
290
0
  9
$LENSLENGTH
 40
50.0
  9
$CAMERAHEIGHT
 40
0.0
  9
$STEPSPERSEC
 40
24.0
  9
$STEPSIZE
 40
100.0
  9
$3DDWFPREC
 40
2.0
  9
$PSOLWIDTH
 40
0.005
  9
$PSOLHEIGHT
 40
0.08
  9
$LOFTANG1
 40
1.570796326795
  9
$LOFTANG2
 40
1.570796326795
  9
$LOFTMAG1
 40
0.0
  9
$LOFTMAG2
 40
0.0
  9
$LOFTPARAM
 70
7
  9
$LOFTNORMALS
280
1
  9
$LATITUDE
 40
37.795
  9
$LONGITUDE
 40
-122.394
  9
$NORTHDIRECTION
 40
0.0
  9
$TIMEZONE
 70
-8000
  9
$LIGHTGLYPHDISPLAY
280
1
  9
$TILEMODELIGHTSYNCH
280
1
  9
$CMATERIAL
347
20
  9
$SOLIDHIST
280
0
  9
$SHOWHIST
280
1
  9
$DWFFRAME
280
2
  9
$DGNFRAME
280
2
  9
$REALWORLDSCALE
290
1
  9
$INTERFERECOLOR
 62
256
  9
$CSHADOW
280
0
  9
$SHADOWPLANELOCATION
 40
0.0
  0
ENDSEC
  0
SECTION
  2
CLASSES
  0
CLASS
  1
ACDBDICTIONARYWDFLT
  2
AcDbDictionaryWithDefault
  3
ObjectDBX Classes
 90
0
 91
0
280
0
281
0
  0
CLASS
  1
SUN
  2
AcDbSun
  3
SCENEOE
 90
1153
 91
0
280
0
281
0
  0
CLASS
  1
VISUALSTYLE
  2
AcDbVisualStyle
  3
ObjectDBX Classes
 90
4095
 91
0
280
0
281
0
  0
CLASS
  1
MATERIAL
  2
AcDbMaterial
  3
ObjectDBX Classes
 90
1153
 91
0
280
0
281
0
  0
CLASS
  1
SCALE
  2
AcDbScale
  3
ObjectDBX Classes
 90
1153
 91
0
280
0
281
0
  0
CLASS
  1
TABLESTYLE
  2
AcDbTableStyle
  3
ObjectDBX Classes
 90
4095
 91
0
280
0
281
0
  0
CLASS
  1
MLEADERSTYLE
  2
AcDbMLeaderStyle
  3
ACDB_MLEADERSTYLE_CLASS
 90
4095
 91
0
280
0
281
0
  0
CLASS
  1
DICTIONARYVAR
  2
AcDbDictionaryVar
  3
ObjectDBX Classes
 90
0
 91
0
280
0
281
0
  0
CLASS
  1
CELLSTYLEMAP
  2
AcDbCellStyleMap
  3
ObjectDBX Classes
 90
1152
 91
0
280
0
281
0
  0
CLASS
  1
MENTALRAYRENDERSETTINGS
  2
AcDbMentalRayRenderSettings
  3
SCENEOE
 90
1024
 91
0
280
0
281
0
  0
CLASS
  1
ACDBDETAILVIEWSTYLE
  2
AcDbDetailViewStyle
  3
ObjectDBX Classes
 90
1025
 91
0
280
0
281
0
  0
CLASS
  1
ACDBSECTIONVIEWSTYLE
  2
AcDbSectionViewStyle
  3
ObjectDBX Classes
 90
1025
 91
0
280
0
281
0
  0
CLASS
  1
RASTERVARIABLES
  2
AcDbRasterVariables
  3
ISM
 90
0
 91
0
280
0
281
0
  0
CLASS
  1
LAYOUT
  2
AcDbLayout
  3
ObjectDBX Classes
 90
0
 91
0
280
0
281
0
  0
CLASS
  1
ACDBPLACEHOLDER
  2
AcDbPlaceHolder
  3
ObjectDBX Classes
 90
0
 91
0
280
0
281
0
  0
ENDSEC
  0
SECTION
  2
TABLES
  0
TABLE
  2
VPORT
  5
8
330
0
100
AcDbSymbolTable
 70
1
  0
VPORT
  5
23
330
8
100
AcDbSymbolTableRecord
100
AcDbViewportTableRecord
  2
*Active
 70
0
 10
0.0
 20
0.0
 11
1.0
 21
1.0
 12
0.0
 22
0.0
 13
0.0
 23
0.0
 14
0.5
 24
0.5
 15
0.5
 25
0.5
 16
0.0
 26
0.0
 36
1.0
 17
0.0
 27
0.0
 37
0.0
 40
1000.0
 41
1.34
 42
50.0
 43
0.0
 44
0.0
 50
0.0
 51
0.0
 71
0
 72
1000
 73
1
 74
3
 75
0
 76
0
 77
0
 78
0
281
0
 65
0
146
0.0
  0
ENDTAB
  0
TABLE
  2
LTYPE
  5
2
330
0
100
AcDbSymbolTable
 70
3
  0
LTYPE
  5
24
330
2
100
AcDbSymbolTableRecord
100
AcDbLinetypeTableRecord
  2
ByBlock
 70
0
  3

 72
65
 73
0
 40
0.0
  0
LTYPE
  5
25
330
2
100
AcDbSymbolTableRecord
100
AcDbLinetypeTableRecord
  2
ByLayer
 70
0
  3

 72
65
 73
0
 40
0.0
  0
LTYPE
  5
26
330
2
100
AcDbSymbolTableRecord
100
AcDbLinetypeTableRecord
  2
Continuous
 70
0
  3

 72
65
 73
0
 40
0.0
  0
ENDTAB
  0
TABLE
  2
LAYER
  5
1
330
0
100
AcDbSymbolTable
 70
4
  0
LAYER
  5
27
330
1
100
AcDbSymbolTableRecord
100
AcDbLayerTableRecord
  2
0
 70
0
 62
7
  6
Continuous
370
-3
390
13
347
21
  0
LAYER
  5
28
330
1
100
AcDbSymbolTableRecord
100
AcDbLayerTableRecord
  2
Defpoints
 70
0
 62
7
  6
Continuous
290
0
370
-3
390
13
347
21
  0
LAYER
  5
2F
330
1
100
AcDbSymbolTableRecord
100
AcDbLayerTableRecord
  2
text
 70
0
 62
5
  6
Continuous
370
-3
390
13
347
21
  0
LAYER
  5
55
330
1
100
AcDbSymbolTableRecord
100
AcDbLayerTableRecord
  2
Serrations
 70
0
 62
4
  6
Continuous
370
-3
390
13
347
21
  0
ENDTAB
  0
TABLE
  2
STYLE
  5
5
330
0
100
AcDbSymbolTable
 70
1
  0
STYLE
  5
29
330
5
100
AcDbSymbolTableRecord
100
AcDbTextStyleTableRecord
  2
Standard
 70
0
 40
0.0
 41
1.0
 50
0.0
 71
0
 42
2.5
  3
txt
  4

  0
ENDTAB
  0
TABLE
  2
VIEW
  5
7
330
0
100
AcDbSymbolTable
 70
0
  0
ENDTAB
  0
TABLE
  2
UCS
  5
6
330
0
100
AcDbSymbolTable
 70
0
  0
ENDTAB
  0
TABLE
  2
APPID
  5
3
330
0
100
AcDbSymbolTable
 70
3
  0
APPID
  5
2A
330
3
100
AcDbSymbolTableRecord
100
AcDbRegAppTableRecord
  2
ACAD
 70
0
  0
APPID
  5
7E
330
3
100
AcDbSymbolTableRecord
100
AcDbRegAppTableRecord
  2
HATCHBACKGROUNDCOLOR
 70
0
  0
APPID
  5
7F
330
3
100
AcDbSymbolTableRecord
100
AcDbRegAppTableRecord
  2
EZDXF
 70
0
  0
ENDTAB
  0
TABLE
  2
DIMSTYLE
  5
4
330
0
100
AcDbSymbolTable
 70
1
100
AcDbDimStyleTable
  0
DIMSTYLE
105
2B
330
4
100
AcDbSymbolTableRecord
100
AcDbDimStyleTableRecord
  2
Standard
 70
0
 40
1.0
 41
2.5
 42
0.625
 43
3.75
 44
1.25
 45
0.0
 46
0.0
 47
0.0
 48
0.0
 49
2.5
140
2.5
141
2.5
142
0.0
143
0.03937007874
144
1.0
145
0.0
146
1.0
147
0.625
148
0.0
 69
0
 70
0
 71
0
 72
0
 73
0
 74
0
 75
0
 76
0
 77
1
 78
8
 79
3
170
0
171
3
172
1
173
0
174
0
175
0
176
0
177
0
178
0
179
2
271
2
272
2
273
2
274
3
275
0
276
0
277
2
278
44
279
0
280
0
281
0
282
0
283
0
284
8
285
0
286
0
288
0
289
3
290
0
371
-2
372
-2
  0
ENDTAB
  0
TABLE
  2
BLOCK_RECORD
  5
9
330
0
100
AcDbSymbolTable
 70
2
  0
BLOCK_RECORD
  5
17
330
9
100
AcDbSymbolTableRecord
100
AcDbBlockTableRecord
  2
*Model_Space
340
1A
 70
0
280
1
281
0
  0
BLOCK_RECORD
  5
1B
330
9
100
AcDbSymbolTableRecord
100
AcDbBlockTableRecord
  2
*Paper_Space
340
1E
 70
0
280
1
281
0
  0
ENDTAB
  0
ENDSEC
  0
SECTION
  2
BLOCKS
  0
BLOCK
  5
18
330
17
100
AcDbEntity
  8
0
100
AcDbBlockBegin
  2
*Model_Space
 70
0
 10
0.0
 20
0.0
 30
0.0
  3
*Model_Space
  1

  0
ENDBLK
  5
19
330
17
100
AcDbEntity
  8
0
100
AcDbBlockEnd
  0
BLOCK
  5
1C
330
1B
100
AcDbEntity
  8
0
100
AcDbBlockBegin
  2
*Paper_Space
 70
0
 10
0.0
 20
0.0
 30
0.0
  3
*Paper_Space
  1

  0
ENDBLK
  5
1D
330
1B
100
AcDbEntity
  8
0
100
AcDbBlockEnd
  0
ENDSEC
  0
SECTION
  2
ENTITIES
  0
LWPOLYLINE
  5
30
330
17
100
AcDbEntity
  8
text
100
AcDbPolyline
 90
23
 70
1
 10
8.334849842920093
 20
9.978925448905756
 10
8.42436211827616
 20
9.861510856693519
 10
8.480419871247477
 20
9.699295701932506
 10
8.520186299598496
 20
9.481166036462142
 10
8.516149616863768
 20
9.3835162135858
 10
8.497865755225245
 20
9.320204426594678
 10
8.402589536067588
 20
9.190853703201253
 10
8.26712486293366
 20
9.08972873270361
 10
8.088091412048502
 20
9.012502023795781
 10
8.00338438582342
 20
9.00098619929143
 10
7.946460598996335
 20
9.011417734301082
 10
7.8801278062138564
 20
9.054164466710288
 10
7.799037554632861
 20
9.143228679638575
 10
7.684109806523264
 20
9.35108112882032
 10
7.647306355451921
 20
9.532543334977094
 10
7.672139358556748
 20
9.699938493685504
 10
7.719919593506706
 20
9.797524063003253
 10
7.784857105120782
 20
9.885482210586222
 10
7.850817198683124
 20
9.946076830694862
 10
7.927406650190576
 20
9.990569721202911
 10
8.03033958247374
 20
10.017831537449084
 10
8.136543404770482
 20
10.025927626579044
 10
8.243956952488041
 20
10.013136494669672
  0
LWPOLYLINE
  5
31
330
17
100
AcDbEntity
  8
text
100
AcDbPolyline
 90
24
 70
1
 10
3.910154952701752
 20
10.061080660486153
 10
4.087127978191525
 20
9.96662854013115
 10
4.161887535900885
 20
9.898507650725117
 10
4.218350305322392
 20
9.819907657759954
 10
4.242372701286282
 20
9.74128590776207
 10
4.248668464516079
 20
9.659261309165704
 10
4.222013384029168
 20
9.496220995810372
 10
4.184421707986822
 20
9.411319757679427
 10
4.132704127430294
 20
9.335612798629006
 10
4.074797949628223
 20
9.282578860733816
 10
4.00477329868373
 20
9.241875074962813
 10
3.8048232723167486
 20
9.191327260142202
 10
3.6937347221259547
 20
9.188731786037046
 10
3.617835055377453
 20
9.203787239697425
 10
3.5588287883541034
 20
9.233812809565435
 10
3.4898085397391307
 20
9.292246679493422
 10
3.3782942637030513
 20
9.446945633248644
 10
3.321069157701715
 20
9.59789309729942
 10
3.3150666648031764
 20
9.684491468101742
 10
3.32828012948675
 20
9.749929247349518
 10
3.42601290655766
 20
9.893659777379694
 10
3.506402314388031
 20
9.967925061927094
 10
3.5862750914004002
 20
10.019826425112418
 10
3.7262629505297604
 20
10.066530162581268
  0
LWPOLYLINE
  5
32
330
17
100
AcDbEntity
  8
text
100
AcDbPolyline
 90
22
 70
1
 10
-1.0970163345487487
 20
10.025144304681135
 10
-1.018714462319573
 20
9.886139976297613
 10
-0.9934674488558409
 20
9.703536326528148
 10
-1.0048650691663932
 20
9.60656724780915
 10
-1.0282839280164646
 20
9.534229919003527
 10
-1.0643545792397537
 20
9.466859235214288
 10
-1.1085592760274454
 20
9.421255646809493
 10
-1.2047934084932255
 20
9.366775260262807
 10
-1.3120976068459758
 20
9.328975129073132
 10
-1.5107103045880184
 20
9.305094529280623
 10
-1.5956284699513308
 20
9.318990466789515
 10
-1.6730350217230452
 20
9.34769529187234
 10
-1.7426557032084204
 20
9.387712324388334
 10
-1.8007537561744247
 20
9.440486590409078
 10
-1.8404390993660158
 20
9.5085174485233
 10
-1.8655986164269223
 20
9.584867877645861
 10
-1.8771581487209161
 20
9.746041060723465
 10
-1.8258231586487348
 20
9.902466619758682
 10
-1.7330434554106748
 20
10.017675489189907
 10
-1.5910807521576018
 20
10.095725303082016
 10
-1.4248309485064539
 20
10.126688409152214
 10
-1.2407638884988827
 20
10.099434607407575
  0
LWPOLYLINE
  5
33
330
17
100
AcDbEntity
  8
text
100
AcDbPolyline
 90
23
 70
1
 10
-7.580094957074353
 20
10.205288961166506
 10
-7.389938100491689
 20
10.196846548779254
 10
-7.2347989324413735
 20
10.136692659616477
 10
-7.173847635735788
 20
10.084427007271778
 10
-7.128749502816953
 20
10.021576973948482
 10
-7.0944385216341015
 20
9.95238672522991
 10
-7.068150621639283
 20
9.857756840679297
 10
-7.06705428622476
 20
9.692607136473004
 10
-7.087580340915318
 20
9.612497211724481
 10
-7.122631196156318
 20
9.541180863003325
 10
-7.168459242529515
 20
9.492992090356248
 10
-7.246041950891078
 20
9.442589719167325
 10
-7.4307862313375015
 20
9.375932671929622
 10
-7.591718186526663
 20
9.372072110065218
 10
-7.669455004500049
 20
9.388731302465496
 10
-7.738607433206559
 20
9.422001707812198
 10
-7.796837273566096
 20
9.474813183963722
 10
-7.8448689925456545
 20
9.540213893854384
 10
-7.906751642299827
 20
9.702613703689094
 10
-7.907833665798723
 20
9.873834285014306
 10
-7.888004316806331
 20
9.948748162212693
 10
-7.852483288052159
 20
10.017348914997195
 10
-7.753601331496926
 20
10.120481524225903
  0
LWPOLYLINE
  5
34
330
17
100
AcDbEntity
  8
text
100
AcDbPolyline
 90
24
 70
1
 10
-11.502986822432408
 20
10.212318169715083
 10
-11.363823214688958
 20
10.098038119473458
 10
-11.311095157426097
 20
10.024521355683637
 10
-11.275710691983454
 20
9.944356189605678
 10
-11.266405531374494
 20
9.866404260974827
 10
-11.277836062372144
 20
9.769158831152765
 10
-11.302116793511862
 20
9.693340446898805
 10
-11.340271429180058
 20
9.625764146845778
 10
-11.392900892377266
 20
9.568642107854348
 10
-11.47188295799445
 20
9.510782625071563
 10
-11.544824677943868
 20
9.475733008998295
 10
-11.633494622276002
 20
9.452004277377561
 10
-11.73976434497176
 20
9.442275478326394
 10
-11.842854225717799
 20
9.449112119651307
 10
-11.942842243630949
 20
9.471961772996444
 10
-12.002127623650757
 20
9.501856279710559
 10
-12.05854277743525
 20
9.555558872271376
 10
-12.10204851885637
 20
9.619237700126693
 10
-12.150586464434621
 20
9.765087177148184
 10
-12.135759856693024
 20
9.926321082637092
 10
-12.07608400094277
 20
10.075049505192526
 10
-11.97632903916924
 20
10.17019217892234
 10
-11.82751726633989
 20
10.227576429020678
 10
-11.664388749863427
 20
10.243434142306159
  0
LWPOLYLINE
  5
35
330
17
100
AcDbEntity
  8
text
100
AcDbPolyline
 90
19
 70
1
 10
28.602777767721683
 20
10.32375449282988
 10
28.413012832261835
 20
10.304990140599255
 10
28.224171214847026
 20
10.266095636889155
 10
28.03266464719855
 20
10.201881294890246
 10
27.890183805963197
 20
10.131649914289781
 10
27.805511472967503
 20
10.048605165798218
 10
27.747076219770882
 20
9.948887376310582
 10
27.738431779962575
 20
9.850744501008965
 10
27.772383914065124
 20
9.75989010151122
 10
27.80971985521611
 20
9.724688383057956
 10
27.869098161740588
 20
9.696030854151228
 10
27.99876500193418
 20
9.692500101332703
 10
28.24452005746459
 20
9.777168267932835
 10
28.458477479170377
 20
9.896871814541347
 10
28.60304027548461
 20
10.014751150455272
 10
28.691969065062203
 20
10.136035379606053
 10
28.705856557537878
 20
10.204965598520465
 10
28.697312707994122
 20
10.266884174960305
 10
28.66010578108473
 20
10.301004209172659
  0
LWPOLYLINE
  5
36
330
17
100
AcDbEntity
  8
text
100
AcDbPolyline
 90
17
 70
1
 10
20.46321556144181
 20
10.477053316578305
 10
20.342281687042576
 20
10.498468034644452
 10
20.192336061566213
 20
10.476488182498636
 10
19.9208408211699
 20
10.398639085626039
 10
19.68416440937452
 20
10.30413393488189
 10
19.596169906107807
 20
10.233827529017175
 10
19.540314575160583
 20
10.146533036067408
 10
19.513209065508217
 20
10.02007412280365
 10
19.525869214920373
 20
9.927581713738553
 10
19.563039137051906
 20
9.892517536960858
 10
19.633633079125577
 20
9.866745216671148
 10
19.794059622081274
 20
9.880706835254355
 10
20.014220137672883
 20
9.962756780583206
 10
20.276082983545965
 20
10.09346728101473
 10
20.41802730267864
 20
10.194163537294052
 10
20.494491599917385
 20
10.281567211492872
 10
20.509508516117084
 20
10.370421288033508
  0
LWPOLYLINE
  5
37
330
17
100
AcDbEntity
  8
text
100
AcDbPolyline
 90
21
 70
1
 10
25.8429638995723
 20
10.957739294888837
 10
25.83299149738298
 20
10.857339355015718
 10
25.854211438510706
 20
10.759587806197358
 10
25.92696336154737
 20
10.70703173743304
 10
26.047306756483852
 20
10.671057015552886
 10
26.329418272849427
 20
10.656322930314781
 10
26.526161112876412
 20
10.67301188252389
 10
26.677621834100936
 20
10.730648679697152
 10
26.71937641975581
 20
10.77062296009432
 10
26.738748909990555
 20
10.8154215170215
 10
26.7402028235717
 20
10.884925757435996
 10
26.71796848917962
 20
10.997368657974159
 10
26.634622207765407
 20
11.185705774732304
 10
26.510488898617684
 20
11.308534048002835
 10
26.435187782953424
 20
11.350176746979708
 10
26.356812026022627
 20
11.374046865262132
 10
26.278662875910204
 20
11.378935101937422
 10
26.194930244880755
 20
11.365371310158991
 10
26.02933591765299
 20
11.286558572300935
 10
25.978546748826492
 20
11.23713548767103
 10
25.92515180956072
 20
11.15760748464618
  0
LWPOLYLINE
  5
38
330
17
100
AcDbEntity
  8
text
100
AcDbPolyline
 90
21
 70
1
 10
14.51365446774942
 20
11.172222367070338
 10
14.492749441877361
 20
11.060562172177434
 10
14.509161755521477
 20
10.965687760587326
 10
14.574202373226074
 20
10.916393323028466
 10
14.691457860580627
 20
10.888476408988954
 10
14.961655772008905
 20
10.864498773333777
 10
15.137475238130227
 20
10.8743190301685
 10
15.205618807823999
 20
10.895822377444555
 10
15.261113999986943
 20
10.928921468953972
 10
15.309866442483164
 20
10.985635796494151
 10
15.331697008038477
 20
11.039881076922335
 10
15.334412930860248
 20
11.102219565825676
 10
15.320029941771717
 20
11.181943967338693
 10
15.264237550552888
 20
11.292634344544972
 10
15.200815054193558
 20
11.355600752637308
 10
15.127140580797088
 20
11.407790797849382
 10
14.982093784569281
 20
11.468173858976652
 10
14.90968461705024
 20
11.47294054539287
 10
14.838919117910788
 20
11.463518714697226
 10
14.705554890354056
 20
11.410711861378335
 10
14.60490029448917
 20
11.320464280719676
  0
LWPOLYLINE
  5
39
330
17
100
AcDbEntity
  8
text
100
AcDbPolyline
 90
20
 70
1
 10
12.616333280462726
 20
11.433786254784271
 10
12.544737424719061
 20
11.300389804651505
 10
12.512843385045295
 20
11.080143825445742
 10
12.481633451237425
 20
10.46962185573203
 10
12.506750886858457
 20
10.132470409169276
 10
12.569144091459458
 20
10.025329465194766
 10
12.664252380496137
 20
9.970995982897982
 10
12.886587860013687
 20
9.9558425694909
 10
13.079285148277009
 20
9.987073635333418
 10
13.176338557494864
 20
10.040095186218464
 10
13.254406520973848
 20
10.11635460237344
 10
13.331602845684609
 20
10.237037726782878
 10
13.388663674805423
 20
10.38177172145844
 10
13.437790823041809
 20
10.773181452118228
 10
13.408741623279028
 20
11.12870499327747
 10
13.357548360190394
 20
11.245611020108157
 10
13.293287862710425
 20
11.326638564770453
 10
13.089800719238042
 20
11.46130774828679
 10
12.865890593483737
 20
11.49730771294537
 10
12.70423850183114
 20
11.475457106282976
  0
LWPOLYLINE
  5
3A
330
17
100
AcDbEntity
  8
text
100
AcDbPolyline
 90
44
 70
1
 10
27.946387549297093
 20
11.510315414135412
 10
28.281863528511785
 20
11.568941777075738
 10
28.58247949217671
 20
11.550445976125541
 10
28.84863719906452
 20
11.4394519727516
 10
28.94500200814017
 20
11.362047942836643
 10
28.995278302005822
 20
11.284650503681558
 10
29.043424226054064
 20
11.112282879147674
 10
29.07235503418557
 20
10.889902059505696
 10
29.110869343533274
 20
10.176212532119921
 10
29.080295463229128
 20
9.604056726484856
 10
29.041271443013407
 20
9.451376424364778
 10
28.9866973892971
 20
9.383402406515785
 10
28.854650214667053
 20
9.397780610934372
 10
28.66604882802283
 20
9.546935221295058
 10
28.58317708707404
 20
9.58213307026753
 10
28.122829774029277
 20
9.407618076222388
 10
27.94224917178871
 20
9.381570560849106
 10
27.813343484619004
 20
9.38882634480142
 10
27.591371706962455
 20
9.468192789628104
 10
27.492725977838965
 20
9.539772534665795
 10
27.444252591357802
 20
9.604646049209926
 10
27.40752861681124
 20
9.812103216256931
 10
27.428234639169425
 20
10.00580290077351
 10
27.48713928226082
 20
10.177147694882436
 10
27.598623817713907
 20
10.334810312604546
 10
27.731933438538512
 20
10.428559063833317
 10
27.902001132600297
 20
10.502699262160148
 10
28.536712441501898
 20
10.657371683229249
 10
28.64919381369881
 20
10.729087353523155
 10
28.71969847929183
 20
10.836799416648578
 10
28.71186070738802
 20
11.01491360094187
 10
28.68328487864151
 20
11.094191184697083
 10
28.63210952498944
 20
11.160276201008712
 10
28.452810450066174
 20
11.240806419514962
 10
28.253784242381123
 20
11.262471516230992
 10
28.08935064674933
 20
11.230186166424627
 10
27.99394599398017
 20
11.17154924621142
 10
27.821992439691563
 20
10.784213110681543
 10
27.725856991985815
 20
10.766920355572484
 10
27.618220661228882
 20
10.807473926623224
 10
27.563166787856254
 20
10.889778644662268
 10
27.54297499695509
 20
10.970530917268928
 10
27.5851644128878
 20
11.15937242013822
 10
27.72570843707451
 20
11.361211535121676
  0
LWPOLYLINE
  5
3B
330
17
100
AcDbEntity
  8
text
100
AcDbPolyline
 90
52
 70
1
 10
29.63214377842997
 20
11.50225208304249
 10
29.783565628185023
 20
11.58166021998925
 10
30.024222163489164
 20
11.40375136135506
 10
30.573000319476186
 20
11.492224820425777
 10
30.964440160915863
 20
11.410388567206388
 10
31.617866458748587
 20
11.495198066312115
 10
31.769234908302685
 20
11.462509974020785
 10
31.894199388196903
 20
11.38967261126503
 10
32.07124328210137
 20
11.144233443660347
 10
32.14270974903052
 20
10.708491054829045
 10
32.16385491292106
 20
9.772299267452738
 10
32.13821688859746
 20
9.543848954455447
 10
32.06618221267791
 20
9.359159598275042
 10
31.97768974785243
 20
9.321882829059177
 10
31.870549815036036
 20
9.325760893222556
 10
31.78556698056969
 20
9.403881449732987
 10
31.728933576368995
 20
9.509032718155586
 10
31.703336644530914
 20
9.826909235828657
 10
31.731962717211438
 20
10.978933308984468
 10
31.702118959412864
 20
11.051020555262339
 10
31.625504988098804
 20
11.11385136994987
 10
31.388358400913297
 20
11.165910612195326
 10
31.14703779007241
 20
11.120487492869103
 10
31.046244225779738
 20
10.96195949304664
 10
31.01139694591297
 20
10.627925168858944
 10
31.052274370531926
 20
9.76510490249468
 10
31.040699762857606
 20
9.516914036391782
 10
31.001676540385894
 20
9.39285461332849
 10
30.95636425964424
 20
9.344193308727117
 10
30.868628534898015
 20
9.338430287821833
 10
30.792536705519815
 20
9.371193425411617
 10
30.742776911505025
 20
9.505095726454739
 10
30.722530534623182
 20
9.785404778316767
 10
30.77185424436214
 20
10.548080986820507
 10
30.766160876202612
 20
10.937953715253116
 10
30.726131367454407
 20
11.038003034241477
 10
30.647664786125297
 20
11.124914712318779
 10
30.403291573248843
 20
11.20001466388477
 10
30.13671081965284
 20
11.130725872236148
 10
30.02374843040078
 20
11.043116758174003
 10
29.96347822710181
 20
10.944025253097193
 10
29.940706672664298
 20
10.59458591938065
 10
29.976420958380764
 20
9.910324848212426
 10
29.965335542251502
 20
9.556381058031016
 10
29.908854767694713
 20
9.421739862827366
 10
29.840653152626025
 20
9.354278533266546
 10
29.7509446826894
 20
9.352683477966103
 10
29.66192070801379
 20
9.393626583576557
 10
29.590802879728408
 20
9.497951970881001
 10
29.522443990008348
 20
9.736364277628272
 10
29.489330071851377
 20
10.418761735776888
 10
29.508631787958116
 20
11.014744688447085
  0
LWPOLYLINE
  5
3C
330
17
100
AcDbEntity
  8
text
100
AcDbPolyline
 90
46
 70
1
 10
26.498199424508304
 20
11.643892871543231
 10
26.752120705622936
 20
11.499990171517485
 10
26.8586503195369
 20
11.37688116313345
 10
26.9417375495725
 20
11.227494592787448
 10
26.988941658211537
 20
11.075665188503773
 10
27.03462274686327
 20
10.785391301470181
 10
27.040261842135955
 20
10.62342722783245
 10
27.01502219502526
 20
10.489570179658715
 10
26.92865185031561
 20
10.419388103249922
 10
26.765359684772584
 20
10.391817626841931
 10
25.89432803581514
 20
10.4336282189626
 10
25.826591604567685
 20
10.402775904652472
 10
25.77241909595782
 20
10.336242272618385
 10
25.75993417724239
 20
10.267247171747105
 10
25.77319029941984
 20
10.184778796988855
 10
25.820021338470074
 20
10.016634782535512
 10
25.88729028902404
 20
9.87578831114009
 10
25.96626404252638
 20
9.787038430768018
 10
26.07823841724043
 20
9.715220090252277
 10
26.277511289859238
 20
9.688207497220327
 10
26.421846734671394
 20
9.709966263722535
 10
26.709996019020885
 20
9.93002096984451
 10
26.797182694561094
 20
9.970951629939822
 10
26.871404211845082
 20
9.938664789730783
 10
26.918198583854398
 20
9.88556996311148
 10
26.92310517196031
 20
9.702038487008766
 10
26.884514943438383
 20
9.613777671368844
 10
26.80715540793266
 20
9.522863799715752
 10
26.617202133619035
 20
9.43786631005298
 10
26.268231362920265
 20
9.401382212481481
 10
25.908395171162642
 20
9.426821288303373
 10
25.78435115757792
 20
9.482630502705087
 10
25.67476326663314
 20
9.579976439919252
 10
25.575098291114788
 20
9.729273011136675
 10
25.50169944710895
 20
9.893453276625484
 10
25.43808516408048
 20
10.164882532446216
 10
25.39825581325046
 20
10.48859717710009
 10
25.394406718749057
 20
10.73576925187881
 10
25.420918280246088
 20
10.942778457539177
 10
25.48419330155308
 20
11.132716592068215
 10
25.569630211814914
 20
11.309664764281267
 10
25.66823565369838
 20
11.432966293206784
 10
25.781346819443772
 20
11.53267464052476
 10
25.928256140506054
 20
11.613812484178625
 10
26.07649425914781
 20
11.663102994625733
 10
26.281732551398438
 20
11.670830472378022
  0
LWPOLYLINE
  5
3D
330
17
100
AcDbEntity
  8
text
100
AcDbPolyline
 90
55
 70
1
 10
16.935551308692123
 20
11.733179577595902
 10
17.177500618844736
 20
11.714191276864948
 10
17.280703116925242
 20
11.682461817918401
 10
17.383421008822356
 20
11.62358026297666
 10
17.588684929497635
 20
11.394653729996149
 10
17.668401470247712
 20
11.258335948542058
 10
17.698221482403394
 20
11.164339137802083
 10
17.692265091424144
 20
11.09182512847994
 10
17.662701488069185
 20
11.033819358024493
 10
17.610519833935168
 20
10.993417113914091
 10
17.54087220210975
 20
10.981263378265947
 10
17.45331622585279
 20
11.032900038616752
 10
17.238118173786805
 20
11.248309521356564
 10
17.13695339357145
 20
11.324808773846065
 10
17.02003070255073
 20
11.364265412082167
 10
16.906088031369965
 20
11.36895690330802
 10
16.771236341927388
 20
11.336281658089067
 10
16.648301780929916
 20
11.269263364773042
 10
16.56038686497219
 20
11.174216813778521
 10
16.482653186687745
 20
11.019158845783146
 10
16.434340542300195
 20
10.681420725106346
 10
16.456333291419757
 20
10.36160221392201
 10
16.542489616026113
 20
10.153233277143682
 10
16.708525528297653
 20
9.98809229946712
 10
16.86879051776963
 20
9.917692173440136
 10
17.064438649364778
 20
9.908218018283186
 10
17.123441025526997
 20
9.936669061244269
 10
17.178732481217683
 20
9.995880419585308
 10
17.326552139242214
 20
10.23746502717689
 10
17.40673813921126
 20
10.32547840992324
 10
17.460893381116772
 20
10.343040594043947
 10
17.547487687539917
 20
10.334017767952307
 10
17.620537117220866
 20
10.303023876493588
 10
17.663588036440284
 20
10.260284226247125
 10
17.677929853075657
 20
10.177796656114015
 10
17.658227685742364
 20
10.04994834728193
 10
17.555556553682127
 20
9.83474216332429
 10
17.371220985726755
 20
9.676200540934092
 10
17.24678211745933
 20
9.617758423964261
 10
17.138048563966084
 20
9.596168641235
 10
16.979782567148458
 20
9.597733556472232
 10
16.745328266402336
 20
9.633845394239666
 10
16.53008534464657
 20
9.70279607984392
 10
16.38925456190056
 20
9.783260705516259
 10
16.281255560854472
 20
9.886892873247625
 10
16.1977508135251
 20
10.014997788200896
 10
16.136115995118242
 20
10.19602177654341
 10
16.102661845435062
 20
10.399776774379399
 10
16.091348374833007
 20
10.654151852815863
 10
16.109819896026547
 20
10.929978260484281
 10
16.16768611626159
 20
11.160900565309673
 10
16.242293413954616
 20
11.319777365105953
 10
16.36781695991051
 20
11.472514965809022
 10
16.54134599984725
 20
11.608133949748932
 10
16.707399193222006
 20
11.686069909753211
  0
LWPOLYLINE
  5
3E
330
17
100
AcDbEntity
  8
text
100
AcDbPolyline
 90
49
 70
1
 10
19.733889762684893
 20
11.647810439510383
 10
20.045954173681064
 20
11.710070086363206
 10
20.391300863017054
 20
11.703258483628833
 10
20.61053541115965
 20
11.615112178181809
 10
20.68842692163555
 20
11.550581418314081
 10
20.749894597413476
 20
11.464081054860866
 10
20.80114544720718
 20
11.286654383129592
 10
20.838467190860467
 20
10.991781229589002
 10
20.86501997950972
 20
10.387073256056988
 10
20.814333836803964
 20
9.714741486294654
 10
20.78205144832916
 20
9.594130588405807
 10
20.739866315711705
 20
9.538282132564007
 10
20.67683534799104
 20
9.53473580260915
 10
20.593222343659694
 20
9.564341974458431
 10
20.462426732264593
 20
9.726885231111376
 10
20.37344307535734
 20
9.759179155905102
 10
20.228238977279897
 20
9.728424817446674
 10
19.78603384919143
 20
9.565026968571825
 10
19.563085522803572
 20
9.528101389206135
 10
19.456541191464236
 20
9.557543654424443
 10
19.3589855686777
 20
9.610187280697996
 10
19.261316181582234
 20
9.692820421111668
 10
19.204838401412108
 20
9.773065105397793
 10
19.154019163139917
 20
9.966287094596082
 10
19.147459579801502
 20
10.178477182881014
 10
19.19115591418952
 20
10.326466911083733
 10
19.27717166784213
 20
10.445781635700364
 10
19.41835855094028
 20
10.553143836189323
 10
19.584541189443474
 20
10.638056377067345
 10
20.370012157198847
 20
10.850441688248566
 10
20.45741677263779
 20
10.917226150460094
 10
20.523380761481494
 20
11.02621470437497
 10
20.533502297639476
 20
11.1215775225159
 10
20.51887216014239
 20
11.202769412227797
 10
20.422455443854293
 20
11.344751511983251
 10
20.255310591314196
 20
11.404907306801174
 10
20.039215177986303
 20
11.411351314895427
 10
19.88476568804808
 20
11.386949054748184
 10
19.78215672147716
 20
11.32974886371412
 10
19.73513342856678
 20
11.245612345277266
 10
19.670359983771025
 20
11.04882862072601
 10
19.61899091161659
 20
10.97351268743754
 10
19.510107166532794
 20
10.948965948920977
 10
19.421108634062914
 20
10.967863049179511
 10
19.377682270839383
 20
11.033493174532955
 10
19.34953668878587
 20
11.147867860612008
 10
19.35239319940882
 20
11.262674838515172
 10
19.38300188399843
 20
11.367933856830115
 10
19.519626411618436
 20
11.52873023549067
  0
LWPOLYLINE
  5
3F
330
17
100
AcDbEntity
  8
text
100
AcDbPolyline
 90
45
 70
1
 10
14.844327317952942
 20
11.773262223403918
 10
15.212278691141432
 20
11.742902307165455
 10
15.406886076423042
 20
11.661362345994107
 10
15.497232052571228
 20
11.56389849388997
 10
15.591646478613212
 20
11.398415091846063
 10
15.687627290907383
 20
11.07222014994474
 10
15.6913042924587
 20
10.905820119751526
 10
15.668849450113616
 20
10.752928449152904
 10
15.61968466100262
 20
10.663343870432902
 10
15.557576714455626
 20
10.616641986415976
 10
15.391820385907943
 20
10.580602607558827
 10
15.179756468183554
 20
10.567366215409736
 10
14.639185187255066
 20
10.612990778459865
 10
14.5502197279722
 20
10.589002657406365
 10
14.498243886391446
 20
10.527432429335954
 10
14.490757056860556
 20
10.322665473322939
 10
14.536038772470258
 20
10.124795160532438
 10
14.601724441437717
 20
9.995218094610209
 10
14.709793603796419
 20
9.915778025910214
 10
14.866903088473055
 20
9.897284713305867
 10
15.045337720639026
 20
9.911726415051056
 10
15.129269072668711
 20
9.957117292957523
 10
15.33383791230243
 20
10.14615756968873
 10
15.431166830066942
 20
10.161521294994364
 10
15.532123671864921
 20
10.128513478441628
 10
15.56128539457716
 20
10.044023765462189
 10
15.563838398694285
 20
9.939635481597907
 10
15.506985007283353
 20
9.778518178918086
 10
15.36969066297617
 20
9.669187888208434
 10
15.162452668589372
 20
9.606226593358615
 10
14.937741700542952
 20
9.588597899974285
 10
14.70230723650097
 20
9.59651447064577
 10
14.5173590758751
 20
9.63703616418533
 10
14.40111405211525
 20
9.70093869244475
 10
14.30328593211694
 20
9.814888472580558
 10
14.173283694446114
 20
10.062383070886819
 10
14.105120727647419
 20
10.257895266973119
 10
14.06385492552609
 20
10.464688668130796
 10
14.04747942942426
 20
10.713291511242835
 10
14.062854309854014
 20
10.98570263709801
 10
14.108900721703622
 20
11.178035716918682
 10
14.18013246677903
 20
11.355981465373052
 10
14.34255252624171
 20
11.561122288914538
 10
14.4837159578591
 20
11.680526511653856
 10
14.632208193920242
 20
11.742081195163887
  0
LWPOLYLINE
  5
40
330
17
100
AcDbEntity
  8
text
100
AcDbPolyline
 90
13
 70
1
 10
18.478308203986895
 20
11.75820379693327
 10
18.575601591015594
 20
11.617727352742984
 10
18.615538919025195
 20
11.353720174394024
 10
18.570778890887627
 20
10.196392698664951
 10
18.50168854256395
 20
9.749973614403372
 10
18.42186891853284
 20
9.63826863895169
 10
18.319976913008414
 20
9.591848756469718
 10
18.215978476108848
 20
9.654096040029078
 10
18.176747571678792
 20
9.771010945662743
 10
18.15785481229577
 20
10.580366834991938
 10
18.18123736742456
 20
11.27532557013079
 10
18.244769509484595
 20
11.670110395912484
 10
18.351145982767054
 20
11.746137492881402
  0
LWPOLYLINE
  5
41
330
17
100
AcDbEntity
  8
text
100
AcDbPolyline
 90
27
 70
1
 10
13.405542550215834
 20
11.68971570646541
 10
13.654174125349936
 20
11.449446406948192
 10
13.724762561875858
 20
11.28971502180098
 10
13.765829988256053
 20
11.107778958782312
 10
13.777360773263021
 20
10.594478612244485
 10
13.725896655859765
 20
10.310411518998288
 10
13.658624894285698
 20
10.11461103528812
 10
13.507616808628056
 20
9.864919643413769
 10
13.318097641581078
 20
9.709529141298999
 10
13.145442606824977
 20
9.682873707407643
 10
12.773863512877133
 20
9.716393857376413
 10
12.602187768750433
 20
9.680724003937009
 10
12.543760504439811
 20
9.551064454488568
 10
12.545289760678083
 20
9.193603486965792
 10
12.523635526114257
 20
9.105035107140713
 10
12.410648532532793
 20
9.043809164687094
 10
12.26095627032192
 20
9.044516812275047
 10
12.19151981030239
 20
9.132234156184927
 10
12.146247068159449
 20
9.306143212505768
 10
12.11551704975505
 20
9.98073249918362
 10
12.140083297471977
 20
10.966944300437689
 10
12.177133598798692
 20
11.32665074317156
 10
12.239732424086327
 20
11.56660957157784
 10
12.375916014947093
 20
11.74105834612379
 10
12.614187093599782
 20
11.83613172439328
 10
12.974400504381288
 20
11.814332195498995
 10
13.39498506779689
 20
11.69669355775346
  0
LWPOLYLINE
  5
42
330
17
100
AcDbEntity
  8
text
100
AcDbPolyline
 90
14
 70
1
 10
21.70659582305743
 20
12.419188013660118
 10
21.785631345763182
 20
12.26548484303365
 10
21.82156279259033
 20
11.889146906834906
 10
21.79266700295229
 20
9.975868501048446
 10
21.743005925865493
 20
9.62362715569542
 10
21.6708784976738
 20
9.543426070164378
 10
21.57565019713329
 20
9.513008730392368
 10
21.414055942519628
 20
9.582317512123451
 10
21.34512105784177
 20
9.746232240001866
 10
21.299586005635025
 20
10.463845864056218
 10
21.310685083886103
 20
11.323242126327825
 10
21.41060309066214
 20
12.163677565560992
 10
21.50423965958524
 20
12.317802305016503
 10
21.5916607523427
 20
12.388781478360507
  0
LWPOLYLINE
  5
43
330
17
100
AcDbEntity
  8
text
100
AcDbPolyline
 90
20
 70
1
 10
18.543425061370375
 20
12.423757905243964
 10
18.56823648809971
 20
12.370016811731649
 10
18.591863655390828
 20
12.291420500181601
 10
18.59581213138623
 20
12.234403898000988
 10
18.586441322970966
 20
12.17318216560771
 10
18.54287173325714
 20
12.126840602922492
 10
18.481027795921765
 20
12.090020264520998
 10
18.415528218515743
 20
12.07205738751438
 10
18.37457520178673
 20
12.076326456158494
 10
18.350139421860444
 20
12.094232694074254
 10
18.324844797911776
 20
12.124375809063903
 10
18.3060850589896
 20
12.157614926717113
 10
18.293411198859037
 20
12.195046931372946
 10
18.288152816586308
 20
12.27681593078578
 10
18.306216493351915
 20
12.354601225413433
 10
18.325012867200275
 20
12.383247706719253
 10
18.351327335525735
 20
12.407526452718056
 10
18.415432460950047
 20
12.441607987172933
 10
18.478778411160352
 20
12.447929810647565
 10
18.520224765523675
 20
12.437794139033233
  0
LWPOLYLINE
  5
44
330
17
100
AcDbEntity
  8
text
100
AcDbPolyline
 90
74
 70
1
 10
10.847226668683223
 20
12.544926293156632
 10
11.235741072030184
 20
12.500727791524671
 10
11.405777321619347
 20
12.446204454876444
 10
11.559499768970324
 20
12.36926425423015
 10
11.68237304113519
 20
12.27566454217273
 10
11.781351195763785
 20
12.164376940956956
 10
11.85215400596254
 20
12.03786298383545
 10
11.885690638912386
 20
11.912320440435515
 10
11.873185775196156
 20
11.829477353683206
 10
11.83515741160086
 20
11.763475852247478
 10
11.770952061048698
 20
11.724408916594271
 10
11.688454269076598
 20
11.715420873653017
 10
11.579951917805287
 20
11.805738374974723
 10
11.291673573567369
 20
12.121529574367315
 10
11.167851520454908
 20
12.18226256002529
 10
10.989305770985029
 20
12.221759997279598
 10
10.849731881060134
 20
12.201937953747976
 10
10.725136418077463
 20
12.151657393591034
 10
10.643446712321374
 20
12.069806754800776
 10
10.581555980142365
 20
11.97169872338387
 10
10.561600330541172
 20
11.868605591253068
 10
10.563912779402013
 20
11.714891223348967
 10
10.588926250789502
 20
11.610810913706697
 10
10.638936094276747
 20
11.522013001809745
 10
10.821841753812262
 20
11.402316434059635
 10
11.267810380756277
 20
11.227079517754037
 10
11.494562713273382
 20
11.105261401881481
 10
11.682509158973215
 20
10.898664395264577
 10
11.748333590361783
 20
10.780764314625944
 10
11.792705273942035
 20
10.64750205427817
 10
11.804850501965937
 20
10.45707650416826
 10
11.784238802297994
 20
10.260631019980224
 10
11.726791842473881
 20
10.047092044908375
 10
11.664600801621692
 20
9.92631805601707
 10
11.561590141977304
 20
9.836874641457554
 10
11.427389842215305
 20
9.759664293739228
 10
11.212042771420439
 20
9.678860476260509
 10
11.034354804195182
 20
9.645371375270065
 10
10.857243511332076
 20
9.6605987339224
 10
10.680995868770939
 20
9.711494865128152
 10
10.48678401383275
 20
9.803980677818588
 10
10.316894414722821
 20
9.925160679002868
 10
10.218415792658934
 20
10.038462507632307
 10
10.146709876218377
 20
10.166840449656746
 10
10.09248335245611
 20
10.329011978522807
 10
10.066109810251415
 20
10.495574489399111
 10
10.065764650325999
 20
10.640194370963979
 10
10.092062672635027
 20
10.751828048186132
 10
10.159300799836029
 20
10.792422915592494
 10
10.249521629579217
 20
10.776754997281834
 10
10.324015306058879
 20
10.679970159800297
 10
10.450651971977525
 20
10.390716593176078
 10
10.538043645221169
 20
10.245079280142837
 10
10.746191028453586
 20
10.070307197914138
 10
10.921988409128838
 20
9.997918895525476
 10
11.07887170162035
 20
10.010274658724654
 10
11.244573553665052
 20
10.07629510488702
 10
11.371214144485785
 20
10.174411993046338
 10
11.463200861925507
 20
10.316395101795525
 10
11.481022823773785
 20
10.456548434499997
 10
11.45715259644215
 20
10.618711099649323
 10
11.398402191367717
 20
10.75694845007372
 10
11.324546295351178
 20
10.85039673735519
 10
11.116787073822243
 20
10.971849457655154
 10
10.459049944506265
 20
11.213403153492536
 10
10.338712501031726
 20
11.321930438653645
 10
10.26965231214454
 20
11.45579153247028
 10
10.2498187831585
 20
11.665303219036105
 10
10.2640574485355
 20
11.878284380429836
 10
10.30776367203497
 20
12.081552070516924
 10
10.379371070091171
 20
12.275595155637493
 10
10.455425063443034
 20
12.382111286257707
 10
10.547644575637623
 20
12.46733015836817
 10
10.65712637820474
 20
12.5102427303928
  0
LWPOLYLINE
  5
45
330
17
100
AcDbEntity
  8
text
100
AcDbPolyline
 90
22
 70
1
 10
23.452673573770813
 20
12.551272757231764
 10
24.018007915306388
 20
12.611939065004613
 10
24.875290566060006
 20
12.59592412413216
 10
25.119701227512596
 20
12.551475603846004
 10
25.253354178152666
 20
12.414096219986813
 10
25.229957751645177
 20
12.293558896215128
 10
25.15645581162359
 20
12.241654301422276
 10
24.636737747736664
 20
12.223652356974586
 10
24.515684722856154
 20
12.170038625202775
 10
24.448505462835914
 20
12.066116858448442
 10
24.480334579257363
 20
9.9978183973643
 10
24.441055326141143
 20
9.722642129117132
 10
24.378723622175034
 20
9.571184926181031
 10
24.3112733004857
 20
9.499215395801782
 10
24.16125859058592
 20
9.581017386647567
 10
24.10781404484796
 20
9.748768652977674
 10
24.110515299168657
 20
10.252354256020904
 10
24.171682374423686
 20
12.078837400996424
 10
24.11906050072422
 20
12.178436373118515
 10
23.995704080803424
 20
12.237034786565122
 10
23.400425229932015
 20
12.30186497530536
 10
23.35901183199876
 20
12.426501490771816
  0
LWPOLYLINE
  5
46
330
17
100
AcDbEntity
  8
text
100
AcDbPolyline
 90
17
 70
1
 10
16.04712813040054
 20
14.327913916014102
 10
16.088744623829204
 20
14.28037889626106
 10
16.130856670042636
 20
14.211102389998699
 10
16.15730553456837
 20
14.135582187678855
 10
16.163832193609448
 20
14.060506544529487
 10
16.141554580455217
 20
14.003818687053338
 10
16.098407643962044
 20
13.947006043673126
 10
16.04604915333088
 20
13.90467940971966
 10
16.00036919991012
 20
13.89199806755573
 10
15.926064034412702
 20
13.920564833866981
 10
15.896571095161413
 20
13.94378922961313
 10
15.873931228148066
 20
13.976331361738387
 10
15.860036699812618
 20
14.05911573324112
 10
15.862865208348687
 20
14.190394937482926
 10
15.882175656083916
 20
14.27297805328348
 10
15.90938707464638
 20
14.310544999301518
 10
15.9795706656542
 20
14.336700386826342
  0
LWPOLYLINE
  5
47
330
17
100
AcDbEntity
  8
text
100
AcDbPolyline
 90
18
 70
1
 10
12.63757795636382
 20
14.39098075977543
 10
12.672595275158493
 20
14.336823572557106
 10
12.697909018893647
 20
14.26960004560866
 10
12.717310157506033
 20
14.166495115008244
 10
12.717426591650073
 20
14.095340637945851
 10
12.700202503302739
 20
14.041870922450547
 10
12.65981554538402
 20
13.98496199542115
 10
12.601428069109417
 20
13.948718501560576
 10
12.549787875226253
 20
13.943928364321001
 10
12.482039806921794
 20
13.977330121729244
 10
12.450691516516354
 20
14.006917953834828
 10
12.426715714359002
 20
14.0419670018043
 10
12.40733906325109
 20
14.12835665252428
 10
12.412872768887578
 20
14.229818735986802
 10
12.437180110699128
 20
14.29953064272952
 10
12.48532880768526
 20
14.361689117554233
 10
12.561725300306216
 20
14.395952404371682
 10
12.602517936151465
 20
14.399642825838212
  0
LWPOLYLINE
  5
48
330
17
100
AcDbEntity
  8
text
100
AcDbPolyline
 90
13
 70
1
 10
-4.457530125646096
 20
15.279504070170375
 10
-4.250159779775584
 20
15.84964369573089
 10
-4.038345522459524
 20
15.279504070170375
 10
-3.9701723356287864
 20
14.969415248815272
 10
-3.8068495678469674
 20
13.883873936652725
 10
-3.7810590129937007
 20
13.230175599869092
 10
-3.856235739934199
 20
13.097905667611265
 10
-4.045692809145006
 20
13.035438867913832
 10
-4.49867228211151
 20
13.103197784872755
 10
-4.908841524028375
 20
13.054890395012464
 10
-4.96905134486116
 20
13.182487686647555
 10
-4.799908206685703
 20
13.986185654764027
 10
-4.508840712800383
 20
15.138431831395684
  0
LWPOLYLINE
  5
49
330
17
100
AcDbEntity
  8
text
100
AcDbPolyline
 90
19
 70
1
 10
0.2733802952862188
 20
15.279504070170375
 10
0.2966569630389804
 20
15.647390552266046
 10
0.38036655584380197
 20
15.960036116355703
 10
0.6106516225848693
 20
16.138092909986497
 10
1.033805264941333
 20
16.30977640995652
 10
1.459681958966395
 20
16.42936130523931
 10
1.7754048590852496
 20
16.43399258460982
 10
1.9762556797949542
 20
16.315617274173086
 10
2.1369633829283736
 20
16.15991958931766
 10
2.245139528184427
 20
15.808930433657501
 10
2.2234712673948627
 20
15.283405735465678
 10
1.997144759695265
 20
14.730452667316653
 10
1.6990600952680914
 20
14.339121922767204
 10
1.4580193626849214
 20
14.142757596123053
 10
0.8836658723894308
 20
13.939008390262087
 10
0.4650210732414102
 20
13.84844992688542
 10
0.339167761987522
 20
13.857737766237227
 10
0.27025926249131677
 20
14.172530540811776
 10
0.27169504955570273
 20
15.252868852026118
  0
LWPOLYLINE
  5
4A
330
17
100
AcDbEntity
  8
text
100
AcDbPolyline
 90
24
 70
1
 10
17.08702736291318
 20
15.279504070170375
 10
17.092802907512112
 20
15.580545449453297
 10
17.137753815399915
 20
16.22649699639505
 10
17.214264257952696
 20
16.444623661974212
 10
17.346179760896373
 20
16.52814137558576
 10
17.53297926746431
 20
16.55104547218506
 10
17.76839000697728
 20
16.51399364840993
 10
18.00654866749311
 20
16.434378408675627
 10
18.137936515260815
 20
16.34969900150829
 10
18.246576330727198
 20
16.22113788898853
 10
18.395276558001402
 20
15.860399790582157
 10
18.460529675219558
 20
15.561531482781234
 10
18.47701127611371
 20
15.304533359594373
 10
18.472892139580843
 20
15.279504070170375
 10
18.385435512610268
 20
14.748087543666434
 10
18.284749076521816
 20
14.502500097420585
 10
18.180260311805252
 20
14.35914302482991
 10
18.0418270801775
 20
14.25658274789812
 10
17.845426585524766
 20
14.173301538599757
 10
17.563673649033927
 20
14.133474631312145
 10
17.355157910939017
 20
14.146928676956732
 10
17.194000031144494
 20
14.233136427765691
 10
17.11948144520223
 20
14.390069676752288
 10
17.079236441657738
 20
14.873414282368136
  0
LWPOLYLINE
  5
4B
330
17
100
AcDbEntity
  8
text
100
AcDbPolyline
 90
24
 70
1
 10
14.166415538958711
 20
15.279504070170375
 10
14.013748736449482
 20
15.295827621781953
 10
13.895842275603407
 20
15.363740695010328
 10
13.836365422780894
 20
15.56253708794577
 10
13.821646899100266
 20
15.964854921055903
 10
13.830043941879694
 20
16.30056019047415
 10
13.897198684283502
 20
16.468531786186347
 10
13.98956267233761
 20
16.521131883853542
 10
14.137546273852161
 20
16.554565805588553
 10
14.409650328193433
 20
16.550877661168506
 10
14.652647105199975
 20
16.486434837779406
 10
14.771850467070257
 20
16.416474080776432
 10
14.852659923101793
 20
16.34215115641159
 10
14.91314587881452
 20
16.235472714946184
 10
14.950814369005217
 20
16.10520136096455
 10
14.965384977955567
 20
15.828366256279246
 10
14.898163400108135
 20
15.562441853923005
 10
14.822414453782674
 20
15.419314645955971
 10
14.761047144851508
 20
15.348192643338216
 10
14.630046238766987
 20
15.291907446496161
 10
14.436103252098352
 20
15.279504070170375
 10
14.166415538958711
 20
15.279504070170375
 10
14.267351232784925
 20
15.268711750029112
 10
14.436103252098352
 20
15.279504070170375
  0
LWPOLYLINE
  5
4C
330
17
100
AcDbEntity
  8
text
100
AcDbPolyline
 90
22
 70
1
 10
10.49198881469474
 20
16.55868356894357
 10
10.420953456049315
 20
16.300249091803543
 10
10.38837149942059
 20
15.880695791534059
 10
10.393824187342208
 20
15.628478637246474
 10
10.449576191748296
 20
15.474757694116057
 10
10.52638945628453
 20
15.422410947991132
 10
10.625004469260585
 20
15.388465492812728
 10
10.874874088654739
 20
15.36585134708784
 10
11.153767343280562
 20
15.396403994529344
 10
11.2907622041992
 20
15.43757148731163
 10
11.38365812571683
 20
15.490503416973752
 10
11.450526536711457
 20
15.565170810337221
 10
11.539179663089469
 20
15.721895967566596
 10
11.593930951610352
 20
15.8548980572508
 10
11.624277613566246
 20
15.995667650193802
 10
11.592516257523796
 20
16.270259276641063
 10
11.541315930509795
 20
16.426967630798295
 10
11.482166379370241
 20
16.52542380979959
 10
11.396218955319634
 20
16.585564909672065
 10
11.273883790188226
 20
16.626058315959334
 10
10.862769988994028
 20
16.66493322010642
 10
10.647757646380992
 20
16.64850092093291
  0
LWPOLYLINE
  5
4D
330
17
100
AcDbEntity
  8
text
100
AcDbPolyline
 90
22
 70
1
 10
16.79725445242079
 20
15.279504070170375
 10
16.827724473070592
 20
16.14103542306882
 10
16.89083818660259
 20
16.486627829491006
 10
17.081502345748294
 20
16.689254396073217
 10
17.53512298531717
 20
16.765162637170533
 10
18.095106860737065
 20
16.698717197154792
 10
18.44978282033252
 20
16.49804471401343
 10
18.647326629123388
 20
16.187874609855626
 10
18.798600491718613
 20
15.527253124238491
 10
18.81536507725164
 20
15.279504070170375
 10
18.82132405689936
 20
15.19144155481473
 10
18.797063235459053
 20
14.952431438624357
 10
18.700625123575396
 20
14.638266396151115
 10
18.525603429008424
 20
14.277702410607175
 10
18.33994996003793
 20
14.056742015452697
 10
18.15728190456544
 20
13.941965726602474
 10
17.76127455829702
 20
13.865618873527422
 10
17.242590532806215
 20
13.862970006044163
 10
16.99134288707791
 20
13.900336287073037
 10
16.864337170089353
 20
14.033558131018166
 10
16.80820627615405
 20
14.342529406499713
 10
16.783742511608263
 20
14.897457704587259
  0
LWPOLYLINE
  5
4E
330
17
100
AcDbEntity
  8
text
100
AcDbPolyline
 90
27
 70
1
 10
13.566087803369902
 20
15.279504070170375
 10
13.57303164337282
 20
16.168002851769536
 10
13.633617817337768
 20
16.59064928221413
 10
13.699744763550772
 20
16.68792877322351
 10
13.820221209592141
 20
16.765497172332864
 10
14.224069858678334
 20
16.811620195568445
 10
14.672848989993405
 20
16.75465211491518
 10
15.018414707007544
 20
16.5787495871077
 10
15.183163663723368
 20
16.30888552447218
 10
15.282075805772298
 20
15.983981480467051
 10
15.274819718907668
 20
15.682311288194356
 10
15.183386443946757
 20
15.37303595552578
 10
15.109542703205948
 20
15.279504070170375
 10
15.032186958189094
 20
15.181523813456486
 10
14.833260342622015
 20
15.054875581346556
 10
14.635198637913867
 20
15.03333880775178
 10
14.127298939500209
 20
15.062862724864514
 10
13.978530748779248
 20
15.04225199984843
 10
13.886841528635642
 20
14.995572477157806
 10
13.842278458971059
 20
14.904716140728025
 10
13.826874918250432
 20
14.7646671714823
 10
13.869311448630647
 20
14.119208575585246
 10
13.828188157267569
 20
14.012818876637786
 10
13.721822837716056
 20
13.98967593980739
 10
13.662864626091679
 20
14.048748631983832
 10
13.60017329789493
 20
14.188592955989547
 10
13.56127163350313
 20
14.663251239344822
  0
LWPOLYLINE
  5
4F
330
17
100
AcDbEntity
  8
text
100
AcDbPolyline
 90
37
 70
1
 10
10.031782961795294
 20
15.279504070170375
 10
10.032969709877284
 20
15.843362482884935
 10
10.076174616052239
 20
16.41178257143735
 10
10.139528549650525
 20
16.688981187311278
 10
10.27880251436623
 20
16.85023389778908
 10
10.507521509219561
 20
16.92645636738179
 10
11.12873681021412
 20
16.940784533110858
 10
11.559567170801065
 20
16.872980970289504
 10
11.571134231097039
 20
16.86700231722454
 10
11.705080982684139
 20
16.76344627555965
 10
11.797106323583039
 20
16.625558537753996
 10
11.905680976426941
 20
16.339939310014834
 10
11.948878890958616
 20
16.083967803124736
 10
11.927659492913596
 20
15.899959967023705
 10
11.85030228107226
 20
15.658576255980435
 10
11.602095235568111
 20
15.279504070170375
 10
11.573159985545663
 20
15.235312945576425
 10
11.509969205786538
 20
15.03587064133947
 10
11.658215175294519
 20
14.713930604631043
 10
11.95389600240881
 20
14.31842393329043
 10
12.003094138437678
 20
14.168318233635032
 10
11.995904635157158
 20
14.096991975463714
 10
11.850351445898838
 20
14.016686273227377
 10
11.712680087260951
 20
14.059670560785234
 10
11.57797894806986
 20
14.238132760880623
 10
11.329352481515444
 20
14.767943046859989
 10
11.169793439649764
 20
14.998932682129675
 10
10.968447172073263
 20
15.1105001688787
 10
10.654245057794821
 20
15.147086018970382
 10
10.494069803540956
 20
15.08539912682228
 10
10.429855562380158
 20
14.94623571617194
 10
10.444445000337335
 20
14.055891672661458
 10
10.368949041273478
 20
13.958118885912723
 10
10.23788823785792
 20
13.94678049763609
 10
10.151772550401208
 20
14.034727086892678
 10
10.072162654677673
 20
14.206618187539744
 10
10.030467238375797
 20
14.654365736139892
  0
LWPOLYLINE
  5
50
330
17
100
AcDbEntity
  8
text
100
AcDbPolyline
 90
41
 70
1
 10
-0.46278200150308724
 20
15.279504070170375
 10
-0.4301521971027755
 20
16.286138349076005
 10
-0.3451163400649234
 20
16.911323473786844
 10
-0.24808661264763662
 20
17.05857840330178
 10
-0.03821889019993688
 20
17.152049383004517
 10
1.244208760793919
 20
17.489874044182677
 10
1.9518701429454182
 20
17.570901476101014
 10
2.2712032030771807
 20
17.361364711517744
 10
2.5132576431740437
 20
16.971855551253597
 10
2.7677663824550023
 20
16.361011861937662
 10
2.9093831374718193
 20
15.750300807742057
 10
2.8785200017713954
 20
15.279504070170375
 10
2.8621369004100483
 20
15.029590686543477
 10
2.568265284259628
 20
13.99285253190632
 10
2.3986186870001656
 20
13.63871162926996
 10
2.009574068281685
 20
13.339023453814917
 10
1.9511029443533991
 20
13.106122298799306
 10
2.1054246418950613
 20
12.156518100810676
 10
2.403877099038702
 20
10.978811624618752
 10
2.527456067812356
 20
10.677246184010153
 10
2.904556905851488
 20
10.130614315044763
 10
2.8552611423790335
 20
9.745951851415903
 10
2.680425418090782
 20
9.343509989694754
 10
2.4976328158200083
 20
9.211438496424039
 10
2.210469147211511
 20
9.533131903468432
 10
1.8720023979946356
 20
10.129137269306215
 10
1.5963809104437767
 20
10.974570992916115
 10
1.411968769576876
 20
12.886348851505826
 10
1.349189693399556
 20
13.050472038264665
 10
1.2044436442595483
 20
13.086209651844683
 10
0.5255795164223641
 20
12.865542789174619
 10
0.402893961229968
 20
12.71148455283842
 10
0.3301818148876186
 20
12.475621855787129
 10
0.2824403853747571
 20
11.373073960438663
 10
0.40278823147819653
 20
9.87529693414568
 10
0.37915352443192274
 20
9.443217739803421
 10
0.1355500316099073
 20
9.33696630691441
 10
-0.3489780052526671
 20
9.357721923182552
 10
-0.5019565431704768
 20
9.47365998732963
 10
-0.5505352738979278
 20
9.776186408165731
 10
-0.49945624645507625
 20
14.14809820365832
  0
LWPOLYLINE
  5
51
330
17
100
AcDbEntity
  8
text
100
AcDbPolyline
 90
41
 70
1
 10
4.789817224249397
 20
15.279504070170375
 10
4.823072169360412
 20
15.651925123594026
 10
5.136934918923121
 20
16.217533838359607
 10
5.5397728099529004
 20
16.57735802147011
 10
6.651998878373433
 20
17.29837270019057
 10
7.159041088219414
 20
17.543639619657377
 10
7.446749793958833
 20
17.60842695470042
 10
7.50877122175935
 20
17.344081806542945
 10
7.513735967864829
 20
16.864693106380265
 10
7.479167767708422
 20
16.191129642218414
 10
7.4125129503462475
 20
15.93738240786358
 10
7.108090264862035
 20
15.720485113403825
 10
6.166376662069409
 20
15.279504070170375
 10
6.135664285132826
 20
15.265122228407115
 10
5.882339612328096
 20
15.004299134410969
 10
5.749412048913559
 20
14.700219361853916
 10
5.854932474723839
 20
14.33344778191938
 10
6.063388270391375
 20
13.959831215895361
 10
6.998748395049379
 20
12.701901685667153
 10
7.232191272419307
 20
12.31489655009868
 10
7.340631751722107
 20
11.995250463252066
 10
7.3950091102753674
 20
11.601155875509473
 10
7.378253732097342
 20
10.93630368506541
 10
7.2706144372007735
 20
10.745593055129484
 10
7.027809120443571
 20
10.493357740150024
 10
6.383680454851419
 20
10.01322737051905
 10
5.479763701040607
 20
9.42213258311143
 10
5.013545004640438
 20
9.175534279423784
 10
4.789377649251822
 20
9.119058288381975
 10
4.707163800086221
 20
9.338897298622584
 10
4.689446784874544
 20
9.860020669805316
 10
4.715000495706352
 20
10.350701700377087
 10
4.803312722321625
 20
10.734207791590794
 10
5.106480905857495
 20
11.022444550436404
 10
6.125928842227722
 20
11.618593167702238
 10
6.3159006154632635
 20
11.84102344822222
 10
6.399539974964988
 20
12.097229839567593
 10
6.222086923039331
 20
12.524974449449491
 10
5.43704410248813
 20
13.688541167694243
 10
4.9891679524118935
 20
14.554008340721344
 10
4.777982555980213
 20
15.14696800345863
  0
LWPOLYLINE
  5
52
330
17
100
AcDbEntity
  8
text
100
AcDbPolyline
 90
28
 70
1
 10
-4.581493218813971
 20
17.284500685427922
 10
-4.4527231111590915
 20
17.531384925303378
 10
-4.290093118757535
 20
17.64059551929747
 10
-3.940546260110169
 20
17.651623383819555
 10
-3.562988920845949
 20
17.551508085812983
 10
-3.3845963248719246
 20
16.92351552180454
 10
-3.2489931413814075
 20
15.279504070170375
 10
-3.054710233398808
 20
12.924077616612848
 10
-2.591350685600821
 20
10.234278577250965
 10
-2.613450748941448
 20
9.539293923158146
 10
-2.7281284127975733
 20
9.426660783485833
 10
-2.9866351426690154
 20
9.381621621578766
 10
-3.236051243791083
 20
9.420670472238358
 10
-3.3647810363166157
 20
9.544861250667003
 10
-3.4759859482537543
 20
10.057094663189703
 10
-3.516567735906665
 20
11.298481124081484
 10
-3.63490898544927
 20
11.645344094481318
 10
-3.891333892786701
 20
11.724170029613777
 10
-4.8276767043339115
 20
11.762183662992562
 10
-5.146566299965019
 20
11.736576112487313
 10
-5.342106346617698
 20
11.61089126735599
 10
-5.729580060374228
 20
9.92570805198275
 10
-5.883527435312035
 20
9.533972909718987
 10
-6.190525136549742
 20
9.434355319258456
 10
-6.561562683695037
 20
9.449625679143393
 10
-6.66915966834637
 20
9.644248767403521
 10
-6.593397917722527
 20
10.084067909077765
 10
-5.418385771536714
 20
14.284419184506104
  0
LWPOLYLINE
  5
53
330
17
100
AcDbEntity
  8
text
100
AcDbPolyline
 90
26
 70
1
 10
-9.451060221831662
 20
15.279504070170375
 10
-9.454851529770906
 20
16.16339379090946
 10
-9.514010349224073
 20
16.31670772458027
 10
-9.633120055127854
 20
16.390497964538334
 10
-10.67921364833121
 20
16.387477272267432
 10
-10.772933067109639
 20
16.678754008663887
 10
-10.760973586791817
 20
17.101865944758885
 10
-10.646354475707742
 20
17.270113080307688
 10
-10.41716951348566
 20
17.356887457756017
 10
-7.712739056594204
 20
17.680307687838884
 10
-7.200930278272324
 20
17.674237786031362
 10
-7.0598124228714205
 20
17.237305999950735
 10
-7.118301178221836
 20
16.81085014902053
 10
-7.332488969430008
 20
16.711117522227234
 10
-8.253768621958454
 20
16.570756714256554
 10
-8.473998761753665
 20
16.451908533414127
 10
-8.5959321633481
 20
16.258069802484506
 10
-8.662269305871044
 20
15.310493484775115
 10
-8.662131087813986
 20
15.279504070170375
 10
-8.6374761022407
 20
9.751691089247482
 10
-8.689364721168193
 20
9.596763247145208
 10
-8.836836750899195
 20
9.50794593159769
 10
-9.50606034012958
 20
9.461481470667692
 10
-9.685517192081432
 20
9.589197197825209
 10
-9.733016221513694
 20
9.789288034856595
 10
-9.448265609201897
 20
14.627979737016146
  0
LWPOLYLINE
  5
54
330
17
100
AcDbEntity
  8
text
100
AcDbPolyline
 90
41
 70
1
 10
-14.76591248706187
 20
15.279504070170375
 10
-14.819993924003096
 20
15.386118717711717
 10
-14.884984985492796
 20
15.750287821669914
 10
-14.818680012195486
 20
16.2033882003128
 10
-14.685264521209218
 20
16.489170577424694
 10
-14.529879439749811
 20
16.690286022542445
 10
-13.527000353115106
 20
17.467463159884097
 10
-12.669148330537787
 20
17.997882022767108
 10
-12.455043445150768
 20
18.05080602915983
 10
-12.251681731095758
 20
17.99454501920144
 10
-12.215715818144108
 20
17.732101108212227
 10
-12.269299983902373
 20
16.619034608159616
 10
-12.370095923668075
 20
16.3382995810016
 10
-12.77533909982203
 20
16.069858966192072
 10
-13.856180565636853
 20
15.614499786533074
 10
-14.048594431265593
 20
15.444408134220318
 10
-14.131950810576098
 20
15.279504070170375
 10
-14.15542815253105
 20
15.233058805470954
 10
-14.064018822213075
 20
14.942459711376996
 10
-13.865465159347524
 20
14.600337424191101
 10
-13.358906596021052
 20
13.870488295265089
 10
-12.8909021925464
 20
13.316432402300983
 10
-12.468528113394752
 20
12.633468057808606
 10
-12.292417223669727
 20
12.138658983070926
 10
-12.28748530850332
 20
11.65410298349108
 10
-12.564128889300513
 20
11.150027038417743
 10
-12.993753061102757
 20
10.72806201521083
 10
-14.249883489879284
 20
9.86557088969044
 10
-14.657656962697374
 20
9.631140938865611
 10
-14.886069710058472
 20
9.554251703245999
 10
-14.975056497980658
 20
9.749627177307262
 10
-14.985348683639033
 20
10.29038042124657
 10
-14.95331219028102
 20
10.93049270548362
 10
-14.87218330597375
 20
11.210732199829181
 10
-14.547547982353162
 20
11.487377096318928
 10
-13.57906044039128
 20
12.076796649229717
 10
-13.403933114035505
 20
12.254472076022903
 10
-13.32260162783469
 20
12.455604504571088
 10
-13.403094611198275
 20
12.77053033868934
 10
-13.572210308194652
 20
13.146907253372696
 10
-14.240417622017494
 20
14.24355804154733
  0
LWPOLYLINE
  5
56
330
17
100
AcDbEntity
  8
Serrations
100
AcDbPolyline
 90
4
 70
1
 10
-56.516050172030916
 20
21.558021941049333
 10
-53.15140258569815
 20
9.00098619929143
 10
-54.35140258569815
 20
9.00098619929143
 10
-57.71605017203092
 20
21.558021941049333
  0
LWPOLYLINE
  5
57
330
17
100
AcDbEntity
  8
Serrations
100
AcDbPolyline
 90
4
 70
1
 10
-54.66605017203092
 20
21.558021941049333
 10
-51.301402585698156
 20
9.00098619929143
 10
-52.501402585698145
 20
9.00098619929143
 10
-55.866050172030924
 20
21.558021941049333
  0
LWPOLYLINE
  5
58
330
17
100
AcDbEntity
  8
Serrations
100
AcDbPolyline
 90
4
 70
1
 10
-52.81605017203091
 20
21.558021941049333
 10
-49.45140258569815
 20
9.00098619929143
 10
-50.65140258569815
 20
9.00098619929143
 10
-54.016050172030916
 20
21.558021941049333
  0
LWPOLYLINE
  5
59
330
17
100
AcDbEntity
  8
Serrations
100
AcDbPolyline
 90
4
 70
1
 10
-50.96605017203092
 20
21.558021941049333
 10
-47.60140258569815
 20
9.00098619929143
 10
-48.80140258569814
 20
9.00098619929143
 10
-52.16605017203092
 20
21.558021941049333
  0
LWPOLYLINE
  5
5A
330
17
100
AcDbEntity
  8
Serrations
100
AcDbPolyline
 90
4
 70
1
 10
-49.116050172030924
 20
21.558021941049333
 10
-45.751402585698145
 20
9.00098619929143
 10
-46.95140258569815
 20
9.00098619929143
 10
-50.31605017203091
 20
21.558021941049333
  0
LWPOLYLINE
  5
5B
330
17
100
AcDbEntity
  8
Serrations
100
AcDbPolyline
 90
4
 70
1
 10
-47.266050172030916
 20
21.558021941049333
 10
-43.90140258569815
 20
9.00098619929143
 10
-45.10140258569815
 20
9.00098619929143
 10
-48.46605017203092
 20
21.558021941049333
  0
LWPOLYLINE
  5
5C
330
17
100
AcDbEntity
  8
Serrations
100
AcDbPolyline
 90
4
 70
1
 10
-45.41605017203092
 20
21.558021941049333
 10
-42.05140258569814
 20
9.00098619929143
 10
-43.251402585698145
 20
9.00098619929143
 10
-46.616050172030924
 20
21.558021941049333
  0
LWPOLYLINE
  5
5D
330
17
100
AcDbEntity
  8
Serrations
100
AcDbPolyline
 90
4
 70
1
 10
-43.56605017203091
 20
21.558021941049333
 10
-40.20140258569815
 20
9.00098619929143
 10
-41.40140258569815
 20
9.00098619929143
 10
-44.766050172030916
 20
21.558021941049333
  0
LWPOLYLINE
  5
5E
330
17
100
AcDbEntity
  8
Serrations
100
AcDbPolyline
 90
4
 70
1
 10
-41.71605017203092
 20
21.558021941049333
 10
-38.35140258569814
 20
9.00098619929143
 10
-39.55140258569814
 20
9.00098619929143
 10
-42.91605017203092
 20
21.558021941049333
  0
LWPOLYLINE
  5
5F
330
17
100
AcDbEntity
  8
Serrations
100
AcDbPolyline
 90
4
 70
1
 10
-39.86605017203091
 20
21.558021941049333
 10
-36.501402585698145
 20
9.00098619929143
 10
-37.70140258569815
 20
9.00098619929143
 10
-41.06605017203091
 20
21.558021941049333
  0
LWPOLYLINE
  5
60
330
17
100
AcDbEntity
  8
Serrations
100
AcDbPolyline
 90
4
 70
1
 10
-38.016050172030916
 20
21.558021941049333
 10
-34.65140258569815
 20
9.00098619929143
 10
-35.85140258569815
 20
9.00098619929143
 10
-39.21605017203092
 20
21.558021941049333
  0
LWPOLYLINE
  5
61
330
17
100
AcDbEntity
  8
Serrations
100
AcDbPolyline
 90
4
 70
1
 10
-36.16605017203092
 20
21.558021941049333
 10
-32.80140258569814
 20
9.00098619929143
 10
-34.001402585698145
 20
9.00098619929143
 10
-37.36605017203091
 20
21.558021941049333
  0
LWPOLYLINE
  5
62
330
17
100
AcDbEntity
  8
Serrations
100
AcDbPolyline
 90
4
 70
1
 10
-34.31605017203091
 20
21.558021941049333
 10
-30.95140258569815
 20
9.00098619929143
 10
-32.151402585698136
 20
9.00098619929143
 10
-35.516050172030916
 20
21.558021941049333
  0
LWPOLYLINE
  5
63
330
17
100
AcDbEntity
  8
Serrations
100
AcDbPolyline
 90
4
 70
1
 10
-32.46605017203092
 20
21.558021941049333
 10
-29.101402585698157
 20
9.00098619929143
 10
-30.301402585698153
 20
9.00098619929143
 10
-33.66605017203092
 20
21.558021941049333
  0
LWPOLYLINE
  5
64
330
17
100
AcDbEntity
  8
Serrations
100
AcDbPolyline
 90
4
 70
1
 10
-30.61605017203092
 20
21.558021941049333
 10
-27.251402585698155
 20
9.00098619929143
 10
-28.45140258569815
 20
9.00098619929143
 10
-31.816050172030923
 20
21.558021941049333
  0
LWPOLYLINE
  5
65
330
17
100
AcDbEntity
  8
Serrations
100
AcDbPolyline
 90
4
 70
1
 10
-28.766050172030926
 20
21.558021941049333
 10
-25.401402585698154
 20
9.00098619929143
 10
-26.601402585698157
 20
9.00098619929143
 10
-29.966050172030922
 20
21.558021941049333
  0
LWPOLYLINE
  5
66
330
17
100
AcDbEntity
  8
Serrations
100
AcDbPolyline
 90
4
 70
1
 10
-26.916050172030925
 20
21.558021941049333
 10
-23.551402585698153
 20
9.00098619929143
 10
-24.751402585698155
 20
9.00098619929143
 10
-28.11605017203092
 20
21.558021941049333
  0
LWPOLYLINE
  5
67
330
17
100
AcDbEntity
  8
Serrations
100
AcDbPolyline
 90
4
 70
1
 10
-25.066050172030923
 20
21.558021941049333
 10
-21.70140258569815
 20
9.00098619929143
 10
-22.901402585698154
 20
9.00098619929143
 10
-26.26605017203092
 20
21.558021941049333
  0
LWPOLYLINE
  5
68
330
17
100
AcDbEntity
  8
Serrations
100
AcDbPolyline
 90
4
 70
1
 10
-23.216050172030922
 20
21.558021941049333
 10
-19.85140258569815
 20
9.00098619929143
 10
-21.051402585698153
 20
9.00098619929143
 10
-24.416050172030918
 20
21.558021941049333
  0
LWPOLYLINE
  5
69
330
17
100
AcDbEntity
  8
Serrations
100
AcDbPolyline
 90
5
 70
1
 10
-21.366050172030928
 20
21.558021941049333
 10
-19.68372637886454
 20
15.279504070170375
 10
-18.001402585698155
 20
9.00098619929143
 10
-19.20140258569816
 20
9.00098619929143
 10
-22.566050172030923
 20
21.558021941049333
  0
LWPOLYLINE
  5
6A
330
17
100
AcDbEntity
  8
Serrations
100
AcDbPolyline
 90
4
 70
1
 10
32.33985131943116
 20
21.558021941049333
 10
35.70449890576394
 20
9.00098619929143
 10
34.50449890576394
 20
9.00098619929143
 10
31.139851319431163
 20
21.558021941049333
  0
LWPOLYLINE
  5
6B
330
17
100
AcDbEntity
  8
Serrations
100
AcDbPolyline
 90
4
 70
1
 10
34.18985131943117
 20
21.558021941049333
 10
37.554498905763936
 20
9.00098619929143
 10
36.35449890576393
 20
9.00098619929143
 10
32.98985131943117
 20
21.558021941049333
  0
LWPOLYLINE
  5
6C
330
17
100
AcDbEntity
  8
Serrations
100
AcDbPolyline
 90
4
 70
1
 10
36.039851319431165
 20
21.558021941049333
 10
39.404498905763944
 20
9.00098619929143
 10
38.20449890576394
 20
9.00098619929143
 10
34.83985131943116
 20
21.558021941049333
  0
LWPOLYLINE
  5
6D
330
17
100
AcDbEntity
  8
Serrations
100
AcDbPolyline
 90
4
 70
1
 10
37.88985131943117
 20
21.558021941049333
 10
41.25449890576394
 20
9.00098619929143
 10
40.054498905763936
 20
9.00098619929143
 10
36.68985131943117
 20
21.558021941049333
  0
LWPOLYLINE
  5
6E
330
17
100
AcDbEntity
  8
Serrations
100
AcDbPolyline
 90
4
 70
1
 10
39.73985131943117
 20
21.558021941049333
 10
43.10449890576393
 20
9.00098619929143
 10
41.904498905763944
 20
9.00098619929143
 10
38.539851319431165
 20
21.558021941049333
  0
LWPOLYLINE
  5
6F
330
17
100
AcDbEntity
  8
Serrations
100
AcDbPolyline
 90
4
 70
1
 10
41.58985131943116
 20
21.558021941049333
 10
44.95449890576394
 20
9.00098619929143
 10
43.75449890576394
 20
9.00098619929143
 10
40.38985131943117
 20
21.558021941049333
  0
LWPOLYLINE
  5
70
330
17
100
AcDbEntity
  8
Serrations
100
AcDbPolyline
 90
4
 70
1
 10
43.43985131943117
 20
21.558021941049333
 10
46.804498905763936
 20
9.00098619929143
 10
45.60449890576393
 20
9.00098619929143
 10
42.23985131943117
 20
21.558021941049333
  0
LWPOLYLINE
  5
71
330
17
100
AcDbEntity
  8
Serrations
100
AcDbPolyline
 90
4
 70
1
 10
45.289851319431165
 20
21.558021941049333
 10
48.65449890576393
 20
9.00098619929143
 10
47.45449890576394
 20
9.00098619929143
 10
44.089851319431176
 20
21.558021941049333
  0
LWPOLYLINE
  5
72
330
17
100
AcDbEntity
  8
Serrations
100
AcDbPolyline
 90
4
 70
1
 10
47.13985131943117
 20
21.558021941049333
 10
50.50449890576394
 20
9.00098619929143
 10
49.304498905763936
 20
9.00098619929143
 10
45.93985131943117
 20
21.558021941049333
  0
LWPOLYLINE
  5
73
330
17
100
AcDbEntity
  8
Serrations
100
AcDbPolyline
 90
4
 70
1
 10
48.98985131943117
 20
21.558021941049333
 10
52.35449890576393
 20
9.00098619929143
 10
51.154498905763944
 20
9.00098619929143
 10
47.789851319431165
 20
21.558021941049333
  0
LWPOLYLINE
  5
74
330
17
100
AcDbEntity
  8
Serrations
100
AcDbPolyline
 90
4
 70
1
 10
50.83985131943116
 20
21.558021941049333
 10
54.20449890576394
 20
9.00098619929143
 10
53.00449890576394
 20
9.00098619929143
 10
49.63985131943116
 20
21.558021941049333
  0
LWPOLYLINE
  5
75
330
17
100
AcDbEntity
  8
Serrations
100
AcDbPolyline
 90
4
 70
1
 10
52.68985131943117
 20
21.558021941049333
 10
56.054498905763964
 20
9.00098619929143
 10
54.85449890576395
 20
9.00098619929143
 10
51.48985131943117
 20
21.558021941049333
  0
LWPOLYLINE
  5
76
330
17
100
AcDbEntity
  8
Serrations
100
AcDbPolyline
 90
4
 70
1
 10
54.53985131943118
 20
21.558021941049333
 10
57.9044989057641
 20
9.00098619929143
 10
56.70449890576401
 20
9.00098619929143
 10
53.339851319431176
 20
21.558021941049333
  0
LWPOLYLINE
  5
77
330
17
100
AcDbEntity
  8
Serrations
100
AcDbPolyline
 90
4
 70
1
 10
56.3898513194312
 20
21.558021941049333
 10
59.75449890576421
 20
9.00098619929143
 10
58.554498905764135
 20
9.00098619929143
 10
55.18985131943117
 20
21.558021941049333
  0
LWPOLYLINE
  5
78
330
17
100
AcDbEntity
  8
Serrations
100
AcDbPolyline
 90
4
 70
1
 10
58.23985131943134
 20
21.558021941049333
 10
61.604498905764345
 20
9.00098619929143
 10
60.40449890576426
 20
9.00098619929143
 10
57.03985131943125
 20
21.558021941049333
  0
LWPOLYLINE
  5
79
330
17
100
AcDbEntity
  8
Serrations
100
AcDbPolyline
 90
4
 70
1
 10
60.089851319431475
 20
21.558021941049333
 10
63.454498905764495
 20
9.00098619929143
 10
62.25449890576439
 20
9.00098619929143
 10
58.8898513194314
 20
21.558021941049333
  0
LWPOLYLINE
  5
7A
330
17
100
AcDbEntity
  8
Serrations
100
AcDbPolyline
 90
4
 70
1
 10
61.9398513194316
 20
21.558021941049333
 10
65.30449890576452
 20
9.00098619929143
 10
64.10449890576453
 20
9.00098619929143
 10
60.73985131943152
 20
21.558021941049333
  0
LWPOLYLINE
  5
7B
330
17
100
AcDbEntity
  8
Serrations
100
AcDbPolyline
 90
4
 70
1
 10
63.78985131943173
 20
21.558021941049333
 10
67.15449890576451
 20
9.00098619929143
 10
65.95449890576452
 20
9.00098619929143
 10
62.589851319431645
 20
21.558021941049333
  0
LWPOLYLINE
  5
7C
330
17
100
AcDbEntity
  8
Serrations
100
AcDbPolyline
 90
4
 70
1
 10
65.63985131943176
 20
21.558021941049333
 10
69.00449890576454
 20
9.00098619929143
 10
67.80449890576452
 20
9.00098619929143
 10
64.43985131943177
 20
21.558021941049333
  0
LWPOLYLINE
  5
7D
330
17
100
AcDbEntity
  8
Serrations
100
AcDbPolyline
 90
4
 70
1
 10
67.48985131943175
 20
21.558021941049333
 10
70.85449890576453
 20
9.00098619929143
 10
69.65449890576451
 20
9.00098619929143
 10
66.28985131943176
 20
21.558021941049333
  0
ENDSEC
  0
SECTION
  2
OBJECTS
  0
DICTIONARY
  5
A
330
0
100
AcDbDictionary
281
1
  3
ACAD_COLOR
350
B
  3
ACAD_GROUP
350
C
  3
ACAD_LAYOUT
350
D
  3
ACAD_MATERIAL
350
E
  3
ACAD_MLEADERSTYLE
350
F
  3
ACAD_MLINESTYLE
350
10
  3
ACAD_PLOTSETTINGS
350
11
  3
ACAD_PLOTSTYLENAME
350
12
  3
ACAD_SCALELIST
350
14
  3
ACAD_TABLESTYLE
350
15
  3
ACAD_VISUALSTYLE
350
16
  3
EZDXF_META
350
2D
  0
DICTIONARY
  5
B
330
A
100
AcDbDictionary
281
1
  0
DICTIONARY
  5
C
330
A
100
AcDbDictionary
281
1
  0
DICTIONARY
  5
D
330
A
100
AcDbDictionary
281
1
  3
Model
350
1A
  3
Layout1
350
1E
  0
DICTIONARY
  5
E
330
A
100
AcDbDictionary
281
1
  3
ByBlock
350
1F
  3
ByLayer
350
20
  3
Global
350
21
  0
DICTIONARY
  5
F
330
A
100
AcDbDictionary
281
1
  3
Standard
350
2C
  0
DICTIONARY
  5
10
330
A
100
AcDbDictionary
281
1
  3
Standard
350
22
  0
DICTIONARY
  5
11
330
A
100
AcDbDictionary
281
1
  0
ACDBDICTIONARYWDFLT
  5
12
330
A
100
AcDbDictionary
281
1
  3
Normal
350
13
100
AcDbDictionaryWithDefault
340
13
  0
ACDBPLACEHOLDER
  5
13
330
12
  0
DICTIONARY
  5
14
330
A
100
AcDbDictionary
281
1
  0
DICTIONARY
  5
15
330
A
100
AcDbDictionary
281
1
  0
DICTIONARY
  5
16
330
A
100
AcDbDictionary
281
1
  0
LAYOUT
  5
1A
330
D
100
AcDbPlotSettings
  1

  4
A3
  6

 40
7.5
 41
20.0
 42
7.5
 43
20.0
 44
420.0
 45
297.0
 46
0.0
 47
0.0
 48
0.0
 49
0.0
140
0.0
141
0.0
142
1.0
143
1.0
 70
1024
 72
1
 73
0
 74
5
  7

 75
16
 76
0
 77
2
 78
300
147
1.0
148
0.0
149
0.0
100
AcDbLayout
  1
Model
 70
1
 71
0
 10
0.0
 20
0.0
 11
420.0
 21
297.0
 12
0.0
 22
0.0
 32
0.0
 14
1e+20
 24
1e+20
 34
1e+20
 15
-1e+20
 25
-1e+20
 35
-1e+20
146
0.0
 13
0.0
 23
0.0
 33
0.0
 16
1.0
 26
0.0
 36
0.0
 17
0.0
 27
1.0
 37
0.0
 76
1
330
17
  0
LAYOUT
  5
1E
330
D
100
AcDbPlotSettings
  1

  4
A3
  6

 40
7.5
 41
20.0
 42
7.5
 43
20.0
 44
420.0
 45
297.0
 46
0.0
 47
0.0
 48
0.0
 49
0.0
140
0.0
141
0.0
142
1.0
143
1.0
 70
0
 72
1
 73
0
 74
5
  7

 75
16
 76
0
 77
2
 78
300
147
1.0
148
0.0
149
0.0
100
AcDbLayout
  1
Layout1
 70
1
 71
1
 10
0.0
 20
0.0
 11
420.0
 21
297.0
 12
0.0
 22
0.0
 32
0.0
 14
1e+20
 24
1e+20
 34
1e+20
 15
-1e+20
 25
-1e+20
 35
-1e+20
146
0.0
 13
0.0
 23
0.0
 33
0.0
 16
1.0
 26
0.0
 36
0.0
 17
0.0
 27
1.0
 37
0.0
 76
1
330
1B
  0
MATERIAL
  5
1F
102
{ACAD_REACTORS
330
E
102
}
330
E
100
AcDbMaterial
  1
ByBlock
  2

 70
0
 40
1.0
 71
1
 41
1.0
 91
-1023410177
 42
1.0
 72
1
  3

 73
1
 74
1
 75
1
 44
0.5
 73
0
 45
1.0
 46
1.0
 77
1
  4

 78
1
 79
1
170
1
 48
1.0
171
1
  6

172
1
173
1
174
1
140
1.0
141
1.0
175
1
  7

176
1
177
1
178
1
143
1.0
179
1
  8

270
1
271
1
272
1
145
1.0
146
1.0
273
1
  9

274
1
275
1
276
1
 42
1.0
 72
1
  3

 73
1
 74
1
 75
1
 94
63
  0
MATERIAL
  5
20
102
{ACAD_REACTORS
330
E
102
}
330
E
100
AcDbMaterial
  1
ByLayer
  2

 70
0
 40
1.0
 71
1
 41
1.0
 91
-1023410177
 42
1.0
 72
1
  3

 73
1
 74
1
 75
1
 44
0.5
 73
0
 45
1.0
 46
1.0
 77
1
  4

 78
1
 79
1
170
1
 48
1.0
171
1
  6

172
1
173
1
174
1
140
1.0
141
1.0
175
1
  7

176
1
177
1
178
1
143
1.0
179
1
  8

270
1
271
1
272
1
145
1.0
146
1.0
273
1
  9

274
1
275
1
276
1
 42
1.0
 72
1
  3

 73
1
 74
1
 75
1
 94
63
  0
MATERIAL
  5
21
102
{ACAD_REACTORS
330
E
102
}
330
E
100
AcDbMaterial
  1
Global
  2

 70
0
 40
1.0
 71
1
 41
1.0
 91
-1023410177
 42
1.0
 72
1
  3

 73
1
 74
1
 75
1
 44
0.5
 73
0
 45
1.0
 46
1.0
 77
1
  4

 78
1
 79
1
170
1
 48
1.0
171
1
  6

172
1
173
1
174
1
140
1.0
141
1.0
175
1
  7

176
1
177
1
178
1
143
1.0
179
1
  8

270
1
271
1
272
1
145
1.0
146
1.0
273
1
  9

274
1
275
1
276
1
 42
1.0
 72
1
  3

 73
1
 74
1
 75
1
 94
63
  0
MLINESTYLE
  5
22
102
{ACAD_REACTORS
330
10
102
}
330
10
100
AcDbMlineStyle
  2
Standard
 70
0
  3

 62
256
 51
90.0
 52
90.0
 71
2
 49
0.5
 62
256
  6
BYLAYER
 49
-0.5
 62
256
  6
BYLAYER
  0
MLEADERSTYLE
  5
2C
102
{ACAD_REACTORS
330
F
102
}
330
F
100
AcDbMLeaderStyle
179
2
170
2
171
1
172
0
 90
2
 40
0.0
 41
0.0
173
1
 91
-1056964608
 92
-2
290
1
 42
2.0
291
1
 43
8.0
  3
Standard
 44
4.0
300

342
29
174
1
175
1
176
0
178
1
 93
-1056964608
 45
4.0
292
0
297
0
 46
4.0
 94
-1056964608
 47
1.0
 49
1.0
140
1.0
294
1
141
0.0
177
0
142
1.0
295
0
296
0
143
3.75
271
0
272
9
273
9
  0
DICTIONARY
  5
2D
330
A
100
AcDbDictionary
280
1
281
1
  3
CREATED_BY_EZDXF
350
2E
  3
WRITTEN_BY_EZDXF
350
80
  0
DICTIONARYVAR
  5
2E
330
2D
100
DictionaryVariables
280
0
  1
1.4.3 @ 2026-07-06T00:31:44.567489+00:00
  0
DICTIONARYVAR
  5
80
330
2D
100
DictionaryVariables
280
0
  1
1.4.3 @ 2026-07-06T00:31:44.573692+00:00
  0
ENDSEC
  0
EOF
