  0
SECTION
  2
HEADER
  9
$ACADVER
  1
AC1024
  9
$ACADMAINTVER
 70
6
  9
$DWGCODEPAGE
  3
ANSI_1252
  9
$LASTSAVEDBY
  1
ezdxf
  9
$INSBASE
 10
0.0
 20
0.0
 30
0.0
  9
$EXTMIN
 10
1e+20
 20
1e+20
 30
1e+20
  9
$EXTMAX
 10
-1e+20
 20
-1e+20
 30
-1e+20
  9
$LIMMIN
 10
0.0
 20
0.0
  9
$LIMMAX
 10
420.0
 20
297.0
  9
$ORTHOMODE
 70
0
  9
$REGENMODE
 70
1
  9
$FILLMODE
 70
1
  9
$QTEXTMODE
 70
0
  9
$MIRRTEXT
 70
1
  9
$LTSCALE
 40
1.0
  9
$ATTMODE
 70
1
  9
$TEXTSIZE
 40
2.5
  9
$TRACEWID
 40
1.0
  9
$TEXTSTYLE
  7
Standard
  9
$CLAYER
  8
0
  9
$CELTYPE
  6
ByLayer
  9
$CECOLOR
 62
256
  9
$CELTSCALE
 40
1.0
  9
$DISPSILH
 70
0
  9
$DIMSCALE
 40
1.0
  9
$DIMASZ
 40
2.5
  9
$DIMEXO
 40
0.625
  9
$DIMDLI
 40
3.75
  9
$DIMRND
 40
0.0
  9
$DIMDLE
 40
0.0
  9
$DIMEXE
 40
1.25
  9
$DIMTP
 40
0.0
  9
$DIMTM
 40
0.0
  9
$DIMTXT
 40
2.5
  9
$DIMCEN
 40
2.5
  9
$DIMTSZ
 40
0.0
  9
$DIMTOL
 70
0
  9
$DIMLIM
 70
0
  9
$DIMTIH
 70
0
  9
$DIMTOH
 70
0
  9
$DIMSE1
 70
0
  9
$DIMSE2
 70
0
  9
$DIMTAD
 70
1
  9
$DIMZIN
 70
8
  9
$DIMBLK
  1

  9
$DIMASO
 70
1
  9
$DIMSHO
 70
1
  9
$DIMPOST
  1

  9
$DIMAPOST
  1

  9
$DIMALT
 70
0
  9
$DIMALTD
 70
3
  9
$DIMALTF
 40
0.03937007874
  9
$DIMLFAC
 40
1.0
  9
$DIMTOFL
 70
1
  9
$DIMTVP
 40
0.0
  9
$DIMTIX
 70
0
  9
$DIMSOXD
 70
0
  9
$DIMSAH
 70
0
  9
$DIMBLK1
  1

  9
$DIMBLK2
  1

  9
$DIMSTYLE
  2
ISO-25
  9
$DIMCLRD
 70
0
  9
$DIMCLRE
 70
0
  9
$DIMCLRT
 70
0
  9
$DIMTFAC
 40
1.0
  9
$DIMGAP
 40
0.625
  9
$DIMJUST
 70
0
  9
$DIMSD1
 70
0
  9
$DIMSD2
 70
0
  9
$DIMTOLJ
 70
0
  9
$DIMTZIN
 70
8
  9
$DIMALTZ
 70
0
  9
$DIMALTTZ
 70
0
  9
$DIMUPT
 70
0
  9
$DIMDEC
 70
2
  9
$DIMTDEC
 70
2
  9
$DIMALTU
 70
2
  9
$DIMALTTD
 70
3
  9
$DIMTXSTY
  7
Standard
  9
$DIMAUNIT
 70
0
  9
$DIMADEC
 70
0
  9
$DIMALTRND
 40
0.0
  9
$DIMAZIN
 70
0
  9
$DIMDSEP
 70
44
  9
$DIMATFIT
 70
3
  9
$DIMFRAC
 70
0
  9
$DIMLDRBLK
  1

  9
$DIMLUNIT
 70
2
  9
$DIMLWD
 70
-2
  9
$DIMLWE
 70
-2
  9
$DIMTMOVE
 70
0
  9
$DIMFXL
 40
1.0
  9
$DIMFXLON
 70
0
  9
$DIMJOGANG
 40
0.785398163397
  9
$DIMTFILL
 70
0
  9
$DIMTFILLCLR
 70
0
  9
$DIMARCSYM
 70
0
  9
$DIMLTYPE
  6

  9
$DIMLTEX1
  6

  9
$DIMLTEX2
  6

  9
$DIMTXTDIRECTION
 70
0
  9
$LUNITS
 70
2
  9
$LUPREC
 70
4
  9
$SKETCHINC
 40
1.0
  9
$FILLETRAD
 40
10.0
  9
$AUNITS
 70
0
  9
$AUPREC
 70
2
  9
$MENU
  1
.
  9
$ELEVATION
 40
0.0
  9
$PELEVATION
 40
0.0
  9
$THICKNESS
 40
0.0
  9
$LIMCHECK
 70
0
  9
$CHAMFERA
 40
0.0
  9
$CHAMFERB
 40
0.0
  9
$CHAMFERC
 40
0.0
  9
$CHAMFERD
 40
0.0
  9
$SKPOLY
 70
0
  9
$TDCREATE
 40
2461227.5811574073
  9
$TDUCREATE
 40
2458532.153996898
  9
$TDUPDATE
 40
2461227.5811574073
  9
$TDUUPDATE
 40
2458532.1544311
  9
$TDINDWG
 40
0.0
  9
$TDUSRTIMER
 40
0.0
  9
$USRTIMER
 70
1
  9
$ANGBASE
 50
0.0
  9
$ANGDIR
 70
0
  9
$PDMODE
 70
0
  9
$PDSIZE
 40
0.0
  9
$PLINEWID
 40
0.0
  9
$SPLFRAME
 70
0
  9
$SPLINETYPE
 70
6
  9
$SPLINESEGS
 70
8
  9
$HANDSEED
  5
38
  9
$SURFTAB1
 70
6
  9
$SURFTAB2
 70
6
  9
$SURFTYPE
 70
6
  9
$SURFU
 70
6
  9
$SURFV
 70
6
  9
$UCSBASE
  2

  9
$UCSNAME
  2

  9
$UCSORG
 10
0.0
 20
0.0
 30
0.0
  9
$UCSXDIR
 10
1.0
 20
0.0
 30
0.0
  9
$UCSYDIR
 10
0.0
 20
1.0
 30
0.0
  9
$UCSORTHOREF
  2

  9
$UCSORTHOVIEW
 70
0
  9
$UCSORGTOP
 10
0.0
 20
0.0
 30
0.0
  9
$UCSORGBOTTOM
 10
0.0
 20
0.0
 30
0.0
  9
$UCSORGLEFT
 10
0.0
 20
0.0
 30
0.0
  9
$UCSORGRIGHT
 10
0.0
 20
0.0
 30
0.0
  9
$UCSORGFRONT
 10
0.0
 20
0.0
 30
0.0
  9
$UCSORGBACK
 10
0.0
 20
0.0
 30
0.0
  9
$PUCSBASE
  2

  9
$PUCSNAME
  2

  9
$PUCSORG
 10
0.0
 20
0.0
 30
0.0
  9
$PUCSXDIR
 10
1.0
 20
0.0
 30
0.0
  9
$PUCSYDIR
 10
0.0
 20
1.0
 30
0.0
  9
$PUCSORTHOREF
  2

  9
$PUCSORTHOVIEW
 70
0
  9
$PUCSORGTOP
 10
0.0
 20
0.0
 30
0.0
  9
$PUCSORGBOTTOM
 10
0.0
 20
0.0
 30
0.0
  9
$PUCSORGLEFT
 10
0.0
 20
0.0
 30
0.0
  9
$PUCSORGRIGHT
 10
0.0
 20
0.0
 30
0.0
  9
$PUCSORGFRONT
 10
0.0
 20
0.0
 30
0.0
  9
$PUCSORGBACK
 10
0.0
 20
0.0
 30
0.0
  9
$USERI1
 70
0
  9
$USERI2
 70
0
  9
$USERI3
 70
0
  9
$USERI4
 70
0
  9
$USERI5
 70
0
  9
$USERR1
 40
0.0
  9
$USERR2
 40
0.0
  9
$USERR3
 40
0.0
  9
$USERR4
 40
0.0
  9
$USERR5
 40
0.0
  9
$WORLDVIEW
 70
1
  9
$SHADEDGE
 70
3
  9
$SHADEDIF
 70
70
  9
$TILEMODE
 70
1
  9
$MAXACTVP
 70
64
  9
$PINSBASE
 10
0.0
 20
0.0
 30
0.0
  9
$PLIMCHECK
 70
0
  9
$PEXTMIN
 10
1e+20
 20
1e+20
 30
1e+20
  9
$PEXTMAX
 10
-1e+20
 20
-1e+20
 30
-1e+20
  9
$PLIMMIN
 10
0.0
 20
0.0
  9
$PLIMMAX
 10
420.0
 20
297.0
  9
$UNITMODE
 70
0
  9
$VISRETAIN
 70
1
  9
$PLINEGEN
 70
0
  9
$PSLTSCALE
 70
1
  9
$TREEDEPTH
 70
3020
  9
$CMLSTYLE
  2
Standard
  9
$CMLJUST
 70
0
  9
$CMLSCALE
 40
20.0
  9
$PROXYGRAPHICS
 70
1
  9
$MEASUREMENT
 70
1
  9
$CELWEIGHT
370
-1
  9
$ENDCAPS
280
0
  9
$JOINSTYLE
280
0
  9
$LWDISPLAY
290
0
  9
$INSUNITS
 70
4
  9
$HYPERLINKBASE
  1

  9
$STYLESHEET
  1

  9
$XEDIT
290
1
  9
$CEPSNTYPE
380
0
  9
$PSTYLEMODE
290
1
  9
$FINGERPRINTGUID
  2
{F62F3811-9D54-4BDA-9074-3BA752802501}
  9
$VERSIONGUID
  2
{9AC71CE8-EEA6-44DB-A95D-05056E55C30E}
  9
$EXTNAMES
290
1
  9
$PSVPSCALE
 40
0.0
  9
$OLESTARTUP
290
0
  9
$SORTENTS
280
127
  9
$INDEXCTL
280
0
  9
$HIDETEXT
280
1
  9
$XCLIPFRAME
280
1
  9
$HALOGAP
280
0
  9
$OBSCOLOR
 70
257
  9
$OBSLTYPE
280
0
  9
$INTERSECTIONDISPLAY
280
0
  9
$INTERSECTIONCOLOR
 70
257
  9
$DIMASSOC
280
2
  9
$PROJECTNAME
  1

  9
$CAMERADISPLAY
290
0
  9
$LENSLENGTH
 40
50.0
  9
$CAMERAHEIGHT
 40
0.0
  9
$STEPSPERSEC
 40
24.0
  9
$STEPSIZE
 40
100.0
  9
$3DDWFPREC
 40
2.0
  9
$PSOLWIDTH
 40
0.005
  9
$PSOLHEIGHT
 40
0.08
  9
$LOFTANG1
 40
1.570796326795
  9
$LOFTANG2
 40
1.570796326795
  9
$LOFTMAG1
 40
0.0
  9
$LOFTMAG2
 40
0.0
  9
$LOFTPARAM
 70
7
  9
$LOFTNORMALS
280
1
  9
$LATITUDE
 40
37.795
  9
$LONGITUDE
 40
-122.394
  9
$NORTHDIRECTION
 40
0.0
  9
$TIMEZONE
 70
-8000
  9
$LIGHTGLYPHDISPLAY
280
1
  9
$TILEMODELIGHTSYNCH
280
1
  9
$CMATERIAL
347
20
  9
$SOLIDHIST
280
0
  9
$SHOWHIST
280
1
  9
$DWFFRAME
280
2
  9
$DGNFRAME
280
2
  9
$REALWORLDSCALE
290
1
  9
$INTERFERECOLOR
 62
256
  9
$CSHADOW
280
0
  9
$SHADOWPLANELOCATION
 40
0.0
  0
ENDSEC
  0
SECTION
  2
CLASSES
  0
CLASS
  1
ACDBDICTIONARYWDFLT
  2
AcDbDictionaryWithDefault
  3
ObjectDBX Classes
 90
0
 91
0
280
0
281
0
  0
CLASS
  1
SUN
  2
AcDbSun
  3
SCENEOE
 90
1153
 91
0
280
0
281
0
  0
CLASS
  1
VISUALSTYLE
  2
AcDbVisualStyle
  3
ObjectDBX Classes
 90
4095
 91
0
280
0
281
0
  0
CLASS
  1
MATERIAL
  2
AcDbMaterial
  3
ObjectDBX Classes
 90
1153
 91
0
280
0
281
0
  0
CLASS
  1
SCALE
  2
AcDbScale
  3
ObjectDBX Classes
 90
1153
 91
0
280
0
281
0
  0
CLASS
  1
TABLESTYLE
  2
AcDbTableStyle
  3
ObjectDBX Classes
 90
4095
 91
0
280
0
281
0
  0
CLASS
  1
MLEADERSTYLE
  2
AcDbMLeaderStyle
  3
ACDB_MLEADERSTYLE_CLASS
 90
4095
 91
0
280
0
281
0
  0
CLASS
  1
DICTIONARYVAR
  2
AcDbDictionaryVar
  3
ObjectDBX Classes
 90
0
 91
0
280
0
281
0
  0
CLASS
  1
CELLSTYLEMAP
  2
AcDbCellStyleMap
  3
ObjectDBX Classes
 90
1152
 91
0
280
0
281
0
  0
CLASS
  1
MENTALRAYRENDERSETTINGS
  2
AcDbMentalRayRenderSettings
  3
SCENEOE
 90
1024
 91
0
280
0
281
0
  0
CLASS
  1
ACDBDETAILVIEWSTYLE
  2
AcDbDetailViewStyle
  3
ObjectDBX Classes
 90
1025
 91
0
280
0
281
0
  0
CLASS
  1
ACDBSECTIONVIEWSTYLE
  2
AcDbSectionViewStyle
  3
ObjectDBX Classes
 90
1025
 91
0
280
0
281
0
  0
CLASS
  1
RASTERVARIABLES
  2
AcDbRasterVariables
  3
ISM
 90
0
 91
0
280
0
281
0
  0
CLASS
  1
LAYOUT
  2
AcDbLayout
  3
ObjectDBX Classes
 90
0
 91
0
280
0
281
0
  0
CLASS
  1
ACDBPLACEHOLDER
  2
AcDbPlaceHolder
  3
ObjectDBX Classes
 90
0
 91
0
280
0
281
0
  0
ENDSEC
  0
SECTION
  2
TABLES
  0
TABLE
  2
VPORT
  5
8
330
0
100
AcDbSymbolTable
 70
1
  0
VPORT
  5
23
330
8
100
AcDbSymbolTableRecord
100
AcDbViewportTableRecord
  2
*Active
 70
0
 10
0.0
 20
0.0
 11
1.0
 21
1.0
 12
0.0
 22
0.0
 13
0.0
 23
0.0
 14
0.5
 24
0.5
 15
0.5
 25
0.5
 16
0.0
 26
0.0
 36
1.0
 17
0.0
 27
0.0
 37
0.0
 40
1000.0
 41
1.34
 42
50.0
 43
0.0
 44
0.0
 50
0.0
 51
0.0
 71
0
 72
1000
 73
1
 74
3
 75
0
 76
0
 77
0
 78
0
281
0
 65
0
146
0.0
  0
ENDTAB
  0
TABLE
  2
LTYPE
  5
2
330
0
100
AcDbSymbolTable
 70
3
  0
LTYPE
  5
24
330
2
100
AcDbSymbolTableRecord
100
AcDbLinetypeTableRecord
  2
ByBlock
 70
0
  3

 72
65
 73
0
 40
0.0
  0
LTYPE
  5
25
330
2
100
AcDbSymbolTableRecord
100
AcDbLinetypeTableRecord
  2
ByLayer
 70
0
  3

 72
65
 73
0
 40
0.0
  0
LTYPE
  5
26
330
2
100
AcDbSymbolTableRecord
100
AcDbLinetypeTableRecord
  2
Continuous
 70
0
  3

 72
65
 73
0
 40
0.0
  0
ENDTAB
  0
TABLE
  2
LAYER
  5
1
330
0
100
AcDbSymbolTable
 70
3
  0
LAYER
  5
27
330
1
100
AcDbSymbolTableRecord
100
AcDbLayerTableRecord
  2
0
 70
0
 62
7
  6
Continuous
370
-3
390
13
347
21
  0
LAYER
  5
28
330
1
100
AcDbSymbolTableRecord
100
AcDbLayerTableRecord
  2
Defpoints
 70
0
 62
7
  6
Continuous
290
0
370
-3
390
13
347
21
  0
LAYER
  5
2F
330
1
100
AcDbSymbolTableRecord
100
AcDbLayerTableRecord
  2
Layer 1
 70
0
 62
5
  6
Continuous
370
-3
390
13
347
21
  0
ENDTAB
  0
TABLE
  2
STYLE
  5
5
330
0
100
AcDbSymbolTable
 70
1
  0
STYLE
  5
29
330
5
100
AcDbSymbolTableRecord
100
AcDbTextStyleTableRecord
  2
Standard
 70
0
 40
0.0
 41
1.0
 50
0.0
 71
0
 42
2.5
  3
txt
  4

  0
ENDTAB
  0
TABLE
  2
VIEW
  5
7
330
0
100
AcDbSymbolTable
 70
0
  0
ENDTAB
  0
TABLE
  2
UCS
  5
6
330
0
100
AcDbSymbolTable
 70
0
  0
ENDTAB
  0
TABLE
  2
APPID
  5
3
330
0
100
AcDbSymbolTable
 70
3
  0
APPID
  5
2A
330
3
100
AcDbSymbolTableRecord
100
AcDbRegAppTableRecord
  2
ACAD
 70
0
  0
APPID
  5
35
330
3
100
AcDbSymbolTableRecord
100
AcDbRegAppTableRecord
  2
HATCHBACKGROUNDCOLOR
 70
0
  0
APPID
  5
36
330
3
100
AcDbSymbolTableRecord
100
AcDbRegAppTableRecord
  2
EZDXF
 70
0
  0
ENDTAB
  0
TABLE
  2
DIMSTYLE
  5
4
330
0
100
AcDbSymbolTable
 70
1
100
AcDbDimStyleTable
  0
DIMSTYLE
105
2B
330
4
100
AcDbSymbolTableRecord
100
AcDbDimStyleTableRecord
  2
Standard
 70
0
 40
1.0
 41
2.5
 42
0.625
 43
3.75
 44
1.25
 45
0.0
 46
0.0
 47
0.0
 48
0.0
 49
2.5
140
2.5
141
2.5
142
0.0
143
0.03937007874
144
1.0
145
0.0
146
1.0
147
0.625
148
0.0
 69
0
 70
0
 71
0
 72
0
 73
0
 74
0
 75
0
 76
0
 77
1
 78
8
 79
3
170
0
171
3
172
1
173
0
174
0
175
0
176
0
177
0
178
0
179
2
271
2
272
2
273
2
274
3
275
0
276
0
277
2
278
44
279
0
280
0
281
0
282
0
283
0
284
8
285
0
286
0
288
0
289
3
290
0
371
-2
372
-2
  0
ENDTAB
  0
TABLE
  2
BLOCK_RECORD
  5
9
330
0
100
AcDbSymbolTable
 70
2
  0
BLOCK_RECORD
  5
17
330
9
100
AcDbSymbolTableRecord
100
AcDbBlockTableRecord
  2
*Model_Space
340
1A
 70
0
280
1
281
0
  0
BLOCK_RECORD
  5
1B
330
9
100
AcDbSymbolTableRecord
100
AcDbBlockTableRecord
  2
*Paper_Space
340
1E
 70
0
280
1
281
0
  0
ENDTAB
  0
ENDSEC
  0
SECTION
  2
BLOCKS
  0
BLOCK
  5
18
330
17
100
AcDbEntity
  8
0
100
AcDbBlockBegin
  2
*Model_Space
 70
0
 10
0.0
 20
0.0
 30
0.0
  3
*Model_Space
  1

  0
ENDBLK
  5
19
330
17
100
AcDbEntity
  8
0
100
AcDbBlockEnd
  0
BLOCK
  5
1C
330
1B
100
AcDbEntity
  8
0
100
AcDbBlockBegin
  2
*Paper_Space
 70
0
 10
0.0
 20
0.0
 30
0.0
  3
*Paper_Space
  1

  0
ENDBLK
  5
1D
330
1B
100
AcDbEntity
  8
0
100
AcDbBlockEnd
  0
ENDSEC
  0
SECTION
  2
ENTITIES
  0
LWPOLYLINE
  5
30
330
17
100
AcDbEntity
  8
Layer 1
100
AcDbPolyline
 90
64
 70
1
 10
24.330729166666668
 20
14.645833333333334
 10
24.3359375
 20
14.604166666666666
 10
24.340006510416668
 20
14.563313802083334
 10
24.342936197916668
 20
14.523274739583334
 10
24.3447265625
 20
14.484049479166666
 10
24.345377604166668
 20
14.445638020833334
 10
24.344889322916668
 20
14.408040364583334
 10
24.34326171875
 20
14.371256510416666
 10
24.340494791666668
 20
14.335286458333334
 10
24.336588541666668
 20
14.300130208333334
 10
24.33154296875
 20
14.265787760416666
 10
24.325358072916668
 20
14.232259114583334
 10
24.318033854166668
 20
14.199544270833334
 10
24.3095703125
 20
14.167643229166666
 10
24.299967447916668
 20
14.136555989583334
 10
24.289225260416668
 20
14.106282552083334
 10
24.27734375
 20
14.076822916666666
 10
24.264322916666668
 20
14.048177083333334
 10
24.251790364583332
 20
14.023763020833334
 10
24.23974609375
 20
14.003580729166666
 10
24.228190104166668
 20
13.987630208333334
 10
24.217122395833332
 20
13.975911458333334
 10
24.20654296875
 20
13.968424479166666
 10
24.196451822916668
 20
13.965169270833334
 10
24.186848958333332
 20
13.966145833333334
 10
24.177734375
 20
13.971354166666666
 10
24.169108072916668
 20
13.980794270833334
 10
24.160970052083332
 20
13.994466145833334
 10
24.1533203125
 20
14.012369791666666
 10
24.146158854166668
 20
14.034505208333334
 10
24.139485677083332
 20
14.060872395833334
 10
24.13330078125
 20
14.091471354166666
 10
24.127604166666668
 20
14.126302083333334
 10
24.122395833333332
 20
14.165364583333334
 10
24.118326822916668
 20
14.203938802083334
 10
24.115397135416668
 20
14.242024739583334
 10
24.113606770833332
 20
14.279622395833334
 10
24.112955729166668
 20
14.316731770833334
 10
24.113444010416668
 20
14.353352864583334
 10
24.115071614583332
 20
14.389485677083334
 10
24.117838541666668
 20
14.425130208333334
 10
24.121744791666668
 20
14.460286458333334
 10
24.126790364583332
 20
14.494954427083334
 10
24.132975260416668
 20
14.529134114583334
 10
24.140299479166668
 20
14.562825520833334
 10
24.148763020833332
 20
14.596028645833334
 10
24.158365885416668
 20
14.628743489583334
 10
24.169108072916668
 20
14.660970052083334
 10
24.180989583333332
 20
14.692708333333334
 10
24.194010416666668
 20
14.723958333333334
 10
24.20654296875
 20
14.750651041666666
 10
24.218587239583332
 20
14.772786458333334
 10
24.230143229166668
 20
14.790364583333334
 10
24.2412109375
 20
14.803385416666666
 10
24.251790364583332
 20
14.811848958333334
 10
24.261881510416668
 20
14.815755208333334
 10
24.271484375
 20
14.815104166666666
 10
24.280598958333332
 20
14.809895833333334
 10
24.289225260416668
 20
14.800130208333334
 10
24.29736328125
 20
14.785807291666666
 10
24.305013020833332
 20
14.766927083333334
 10
24.312174479166668
 20
14.743489583333334
 10
24.31884765625
 20
14.715494791666666
 10
24.325032552083332
 20
14.682942708333334
  0
LWPOLYLINE
  5
31
330
17
100
AcDbEntity
  8
Layer 1
100
AcDbPolyline
 90
96
 70
1
 10
24.46875
 20
15.169270833333334
 10
24.447916666666668
 20
15.1640625
 10
24.427083333333332
 20
15.15771484375
 10
24.40625
 20
15.150227864583334
 10
24.385416666666668
 20
15.1416015625
 10
24.364583333333332
 20
15.1318359375
 10
24.34375
 20
15.120930989583334
 10
24.322916666666668
 20
15.10888671875
 10
24.302083333333332
 20
15.095703125
 10
24.28125
 20
15.081380208333334
 10
24.260416666666668
 20
15.06591796875
 10
24.239583333333332
 20
15.04931640625
 10
24.21875
 20
15.031575520833334
 10
24.197916666666668
 20
15.0126953125
 10
24.177083333333332
 20
14.99267578125
 10
24.15625
 20
14.971516927083334
 10
24.135416666666668
 20
14.94921875
 10
24.114583333333332
 20
14.92578125
 10
24.094889322916668
 20
14.899251302083334
 10
24.076334635416668
 20
14.86962890625
 10
24.058919270833332
 20
14.8369140625
 10
24.042643229166668
 20
14.801106770833334
 10
24.027506510416668
 20
14.76220703125
 10
24.013509114583332
 20
14.72021484375
 10
24.000651041666668
 20
14.675130208333334
 10
23.988932291666668
 20
14.626953125
 10
23.978352864583332
 20
14.57568359375
 10
23.968912760416668
 20
14.521321614583334
 10
23.960611979166668
 20
14.4638671875
 10
23.953450520833332
 20
14.4033203125
 10
23.947428385416668
 20
14.339680989583334
 10
23.942545572916668
 20
14.27294921875
 10
23.938802083333332
 20
14.203125
 10
23.936197916666668
 20
14.130208333333334
 10
23.935221354166668
 20
14.062337239583334
 10
23.935872395833332
 20
13.99951171875
 10
23.938151041666668
 20
13.941731770833334
 10
23.942057291666668
 20
13.888997395833334
 10
23.947591145833332
 20
13.84130859375
 10
23.954752604166668
 20
13.798665364583334
 10
23.963541666666668
 20
13.761067708333334
 10
23.973958333333332
 20
13.728515625
 10
23.986002604166668
 20
13.701009114583334
 10
23.999674479166668
 20
13.678548177083334
 10
24.014973958333332
 20
13.6611328125
 10
24.031901041666668
 20
13.648763020833334
 10
24.050455729166668
 20
13.641438802083334
 10
24.070638020833332
 20
13.63916015625
 10
24.092447916666668
 20
13.641927083333334
 10
24.115885416666668
 20
13.649739583333334
 10
24.138671875
 20
13.658203125
 10
24.160807291666668
 20
13.667317708333334
 10
24.182291666666668
 20
13.677083333333334
 10
24.203125
 20
13.6875
 10
24.223307291666668
 20
13.698567708333334
 10
24.242838541666668
 20
13.710286458333334
 10
24.26171875
 20
13.72265625
 10
24.279947916666668
 20
13.735677083333334
 10
24.297526041666668
 20
13.749348958333334
 10
24.314453125
 20
13.763671875
 10
24.330729166666668
 20
13.778645833333334
 10
24.346354166666668
 20
13.794270833333334
 10
24.361328125
 20
13.810546875
 10
24.375651041666668
 20
13.827473958333334
 10
24.389322916666668
 20
13.845052083333334
 10
24.40234375
 20
13.86328125
 10
24.4150390625
 20
13.885091145833334
 10
24.427408854166668
 20
13.910481770833334
 10
24.439453125
 20
13.939453125
 10
24.451171875
 20
13.972005208333334
 10
24.462565104166668
 20
14.008138020833334
 10
24.4736328125
 20
14.0478515625
 10
24.484375
 20
14.091145833333334
 10
24.494791666666668
 20
14.138020833333334
 10
24.5048828125
 20
14.1884765625
 10
24.5146484375
 20
14.242513020833334
 10
24.524088541666668
 20
14.300130208333334
 10
24.533203125
 20
14.361328125
 10
24.5419921875
 20
14.426106770833334
 10
24.550455729166668
 20
14.494466145833334
 10
24.55859375
 20
14.56640625
 10
24.56640625
 20
14.641927083333334
 10
24.572428385416668
 20
14.71240234375
 10
24.57666015625
 20
14.77783203125
 10
24.5791015625
 20
14.838216145833334
 10
24.579752604166668
 20
14.8935546875
 10
24.57861328125
 20
14.94384765625
 10
24.57568359375
 20
14.989095052083334
 10
24.570963541666668
 20
15.029296875
 10
24.564453125
 20
15.064453125
 10
24.55615234375
 20
15.094563802083334
 10
24.546061197916668
 20
15.11962890625
 10
24.5341796875
 20
15.1396484375
 10
24.5205078125
 20
15.154622395833334
 10
24.505045572916668
 20
15.16455078125
 10
24.48779296875
 20
15.16943359375
  0
LWPOLYLINE
  5
32
330
17
100
AcDbEntity
  8
Layer 1
100
AcDbPolyline
 90
192
 70
1
 10
22.052083333333332
 20
15.015625
 10
22.03125
 20
14.984375
 10
22.011555989583332
 20
14.95703125
 10
21.993001302083332
 20
14.93359375
 10
21.9755859375
 20
14.9140625
 10
21.959309895833332
 20
14.8984375
 10
21.944173177083332
 20
14.88671875
 10
21.93017578125
 20
14.87890625
 10
21.917317708333332
 20
14.875
 10
21.905598958333332
 20
14.875
 10
21.89501953125
 20
14.87890625
 10
21.885579427083332
 20
14.88671875
 10
21.877278645833332
 20
14.8984375
 10
21.8701171875
 20
14.9140625
 10
21.864095052083332
 20
14.93359375
 10
21.859212239583332
 20
14.95703125
 10
21.85546875
 20
14.984375
 10
21.852864583333332
 20
15.015625
 10
21.84912109375
 20
15.044270833333334
 10
21.84423828125
 20
15.0703125
 10
21.838216145833332
 20
15.09375
 10
21.8310546875
 20
15.114583333333334
 10
21.82275390625
 20
15.1328125
 10
21.813313802083332
 20
15.1484375
 10
21.802734375
 20
15.161458333333334
 10
21.791015625
 20
15.171875
 10
21.778157552083332
 20
15.1796875
 10
21.76416015625
 20
15.184895833333334
 10
21.7490234375
 20
15.1875
 10
21.732747395833332
 20
15.1875
 10
21.71533203125
 20
15.184895833333334
 10
21.69677734375
 20
15.1796875
 10
21.677083333333332
 20
15.171875
 10
21.65625
 20
15.161458333333334
 10
21.63671875
 20
15.148111979166666
 10
21.618489583333332
 20
15.1318359375
 10
21.6015625
 20
15.112630208333334
 10
21.5859375
 20
15.090494791666666
 10
21.571614583333332
 20
15.0654296875
 10
21.55859375
 20
15.037434895833334
 10
21.546875
 20
15.006510416666666
 10
21.536458333333332
 20
14.97265625
 10
21.52734375
 20
14.935872395833334
 10
21.51953125
 20
14.896158854166666
 10
21.513020833333332
 20
14.853515625
 10
21.5078125
 20
14.807942708333334
 10
21.50390625
 20
14.759440104166666
 10
21.501302083333332
 20
14.7080078125
 10
21.5
 20
14.653645833333334
 10
21.5
 20
14.596354166666666
 10
21.499186197916668
 20
14.54052734375
 10
21.49755859375
 20
14.486165364583334
 10
21.4951171875
 20
14.433268229166666
 10
21.491861979166668
 20
14.3818359375
 10
21.48779296875
 20
14.331868489583334
 10
21.48291015625
 20
14.283365885416666
 10
21.477213541666668
 20
14.236328125
 10
21.470703125
 20
14.190755208333334
 10
21.46337890625
 20
14.146647135416666
 10
21.455240885416668
 20
14.10400390625
 10
21.4462890625
 20
14.062825520833334
 10
21.4365234375
 20
14.023111979166666
 10
21.425944010416668
 20
13.98486328125
 10
21.41455078125
 20
13.948079427083334
 10
21.40234375
 20
13.912760416666666
 10
21.389322916666668
 20
13.87890625
 10
21.378092447916668
 20
13.847493489583334
 10
21.36865234375
 20
13.818522135416666
 10
21.361002604166668
 20
13.7919921875
 10
21.355143229166668
 20
13.767903645833334
 10
21.35107421875
 20
13.746256510416666
 10
21.348795572916668
 20
13.72705078125
 10
21.348307291666668
 20
13.710286458333334
 10
21.349609375
 20
13.695963541666666
 10
21.352701822916668
 20
13.68408203125
 10
21.357584635416668
 20
13.674641927083334
 10
21.3642578125
 20
13.667643229166666
 10
21.372721354166668
 20
13.6630859375
 10
21.382975260416668
 20
13.660970052083334
 10
21.39501953125
 20
13.661295572916666
 10
21.408854166666668
 20
13.6640625
 10
21.424479166666668
 20
13.669270833333334
 10
21.43994140625
 20
13.676432291666666
 10
21.455240885416668
 20
13.685546875
 10
21.470377604166668
 20
13.696614583333334
 10
21.4853515625
 20
13.709635416666666
 10
21.500162760416668
 20
13.724609375
 10
21.514811197916668
 20
13.741536458333334
 10
21.529296875
 20
13.760416666666666
 10
21.543619791666668
 20
13.78125
 10
21.557779947916668
 20
13.804036458333334
 10
21.57177734375
 20
13.828776041666666
 10
21.585611979166668
 20
13.85546875
 10
21.599283854166668
 20
13.884114583333334
 10
21.61279296875
 20
13.914713541666666
 10
21.626139322916668
 20
13.947265625
 10
21.639322916666668
 20
13.981770833333334
 10
21.65234375
 20
14.018229166666666
 10
21.664876302083332
 20
14.05126953125
 10
21.676920572916668
 20
14.080891927083334
 10
21.6884765625
 20
14.107096354166666
 10
21.699544270833332
 20
14.1298828125
 10
21.710123697916668
 20
14.149251302083334
 10
21.72021484375
 20
14.165201822916666
 10
21.729817708333332
 20
14.177734375
 10
21.738932291666668
 20
14.186848958333334
 10
21.74755859375
 20
14.192545572916666
 10
21.755696614583332
 20
14.19482421875
 10
21.763346354166668
 20
14.193684895833334
 10
21.7705078125
 20
14.189127604166666
 10
21.777180989583332
 20
14.18115234375
 10
21.783365885416668
 20
14.169759114583334
 10
21.7890625
 20
14.154947916666666
 10
21.794270833333332
 20
14.13671875
 10
21.798502604166668
 20
14.1181640625
 10
21.8017578125
 20
14.099283854166666
 10
21.804036458333332
 20
14.080078125
 10
21.805338541666668
 20
14.060546875
 10
21.8056640625
 20
14.040690104166666
 10
21.805013020833332
 20
14.0205078125
 10
21.803385416666668
 20
14.0
 10
21.80078125
 20
13.979166666666666
 10
21.797200520833332
 20
13.9580078125
 10
21.792643229166668
 20
13.9365234375
 10
21.787109375
 20
13.914713541666666
 10
21.780598958333332
 20
13.892578125
 10
21.773111979166668
 20
13.8701171875
 10
21.7646484375
 20
13.847330729166666
 10
21.755208333333332
 20
13.82421875
 10
21.744791666666668
 20
13.80078125
 10
21.737141927083332
 20
13.779459635416666
 10
21.732259114583332
 20
13.76025390625
 10
21.730143229166668
 20
13.7431640625
 10
21.730794270833332
 20
13.728190104166666
 10
21.734212239583332
 20
13.71533203125
 10
21.740397135416668
 20
13.70458984375
 10
21.749348958333332
 20
13.695963541666666
 10
21.761067708333332
 20
13.689453125
 10
21.775553385416668
 20
13.68505859375
 10
21.792805989583332
 20
13.682779947916666
 10
21.812825520833332
 20
13.6826171875
 10
21.835611979166668
 20
13.6845703125
 10
21.861165364583332
 20
13.688639322916666
 10
21.889485677083332
 20
13.69482421875
 10
21.920572916666668
 20
13.703125
 10
21.954427083333332
 20
13.713541666666666
 10
21.985514322916668
 20
13.7236328125
 10
22.013834635416668
 20
13.7333984375
 10
22.039388020833332
 20
13.742838541666666
 10
22.062174479166668
 20
13.751953125
 10
22.082194010416668
 20
13.7607421875
 10
22.099446614583332
 20
13.769205729166666
 10
22.113932291666668
 20
13.77734375
 10
22.125651041666668
 20
13.78515625
 10
22.134602864583332
 20
13.792643229166666
 10
22.140787760416668
 20
13.7998046875
 10
22.144205729166668
 20
13.806640625
 10
22.144856770833332
 20
13.813151041666666
 10
22.142740885416668
 20
13.8193359375
 10
22.137858072916668
 20
13.8251953125
 10
22.130208333333332
 20
13.830729166666666
 10
22.119791666666668
 20
13.8359375
 10
22.110677083333332
 20
13.84619140625
 10
22.102864583333332
 20
13.861490885416666
 10
22.096354166666668
 20
13.8818359375
 10
22.091145833333332
 20
13.9072265625
 10
22.087239583333332
 20
13.937662760416666
 10
22.084635416666668
 20
13.97314453125
 10
22.083333333333332
 20
14.013671875
 10
22.083333333333332
 20
14.059244791666666
 10
22.084635416666668
 20
14.10986328125
 10
22.087239583333332
 20
14.16552734375
 10
22.091145833333332
 20
14.226236979166666
 10
22.096354166666668
 20
14.2919921875
 10
22.102864583333332
 20
14.36279296875
 10
22.110677083333332
 20
14.438639322916666
 10
22.119791666666668
 20
14.51953125
 10
22.130208333333332
 20
14.60546875
 10
22.138671875
 20
14.68408203125
 10
22.145182291666668
 20
14.75537109375
 10
22.149739583333332
 20
14.8193359375
 10
22.15234375
 20
14.8759765625
 10
22.152994791666668
 20
14.92529296875
 10
22.151692708333332
 20
14.96728515625
 10
22.1484375
 20
15.001953125
 10
22.143229166666668
 20
15.029296875
 10
22.136067708333332
 20
15.04931640625
 10
22.126953125
 20
15.06201171875
 10
22.115885416666668
 20
15.0673828125
 10
22.102864583333332
 20
15.0654296875
 10
22.087890625
 20
15.05615234375
 10
22.070963541666668
 20
15.03955078125
  0
LWPOLYLINE
  5
33
330
17
100
AcDbEntity
  8
Layer 1
100
AcDbPolyline
 90
192
 70
1
 10
23.473958333333332
 20
16.005208333333332
 10
23.442708333333332
 20
15.994791666666668
 10
23.4140625
 20
15.984537760416666
 10
23.388020833333332
 20
15.974446614583332
 10
23.364583333333332
 20
15.964518229166668
 10
23.34375
 20
15.954752604166666
 10
23.325520833333332
 20
15.945149739583332
 10
23.309895833333332
 20
15.935709635416668
 10
23.296875
 20
15.926432291666666
 10
23.286458333333332
 20
15.917317708333332
 10
23.278645833333332
 20
15.908365885416666
 10
23.2734375
 20
15.899576822916666
 10
23.270833333333332
 20
15.890950520833332
 10
23.270833333333332
 20
15.882486979166666
 10
23.2734375
 20
15.874186197916666
 10
23.278645833333332
 20
15.866048177083332
 10
23.286458333333332
 20
15.858072916666666
 10
23.296875
 20
15.850260416666666
 10
23.306477864583332
 20
15.841145833333334
 10
23.315266927083332
 20
15.830729166666666
 10
23.3232421875
 20
15.819010416666666
 10
23.330403645833332
 20
15.805989583333334
 10
23.336751302083332
 20
15.791666666666666
 10
23.34228515625
 20
15.776041666666666
 10
23.347005208333332
 20
15.759114583333334
 10
23.350911458333332
 20
15.740885416666666
 10
23.35400390625
 20
15.721354166666666
 10
23.356282552083332
 20
15.700520833333334
 10
23.357747395833332
 20
15.678385416666666
 10
23.3583984375
 20
15.654947916666666
 10
23.358235677083332
 20
15.630208333333334
 10
23.357259114583332
 20
15.604166666666666
 10
23.35546875
 20
15.576822916666666
 10
23.352864583333332
 20
15.548177083333334
 10
23.347981770833332
 20
15.51904296875
 10
23.3408203125
 20
15.489420572916666
 10
23.331380208333332
 20
15.459309895833334
 10
23.319661458333332
 20
15.4287109375
 10
23.3056640625
 20
15.397623697916666
 10
23.289388020833332
 20
15.366048177083334
 10
23.270833333333332
 20
15.333984375
 10
23.25
 20
15.301432291666666
 10
23.226888020833332
 20
15.268391927083334
 10
23.201497395833332
 20
15.23486328125
 10
23.173828125
 20
15.200846354166666
 10
23.143880208333332
 20
15.166341145833334
 10
23.111653645833332
 20
15.13134765625
 10
23.0771484375
 20
15.095865885416666
 10
23.040364583333332
 20
15.059895833333334
 10
23.001302083333332
 20
15.0234375
 10
22.96435546875
 20
14.985677083333334
 10
22.929524739583332
 20
14.946614583333334
 10
22.896809895833332
 20
14.90625
 10
22.8662109375
 20
14.864583333333334
 10
22.837727864583332
 20
14.821614583333334
 10
22.811360677083332
 20
14.77734375
 10
22.787109375
 20
14.731770833333334
 10
22.764973958333332
 20
14.684895833333334
 10
22.744954427083332
 20
14.63671875
 10
22.72705078125
 20
14.587239583333334
 10
22.711263020833332
 20
14.536458333333334
 10
22.697591145833332
 20
14.484375
 10
22.68603515625
 20
14.430989583333334
 10
22.676595052083332
 20
14.376302083333334
 10
22.669270833333332
 20
14.3203125
 10
22.6640625
 20
14.263020833333334
 10
22.65869140625
 20
14.20849609375
 10
22.653157552083332
 20
14.15673828125
 10
22.6474609375
 20
14.107747395833334
 10
22.6416015625
 20
14.0615234375
 10
22.635579427083332
 20
14.01806640625
 10
22.62939453125
 20
13.977376302083334
 10
22.623046875
 20
13.939453125
 10
22.616536458333332
 20
13.904296875
 10
22.60986328125
 20
13.871907552083334
 10
22.60302734375
 20
13.84228515625
 10
22.596028645833332
 20
13.8154296875
 10
22.5888671875
 20
13.791341145833334
 10
22.58154296875
 20
13.77001953125
 10
22.574055989583332
 20
13.75146484375
 10
22.56640625
 20
13.735677083333334
 10
22.55859375
 20
13.72265625
 10
22.552734375
 20
13.711751302083334
 10
22.548828125
 20
13.702962239583334
 10
22.546875
 20
13.6962890625
 10
22.546875
 20
13.691731770833334
 10
22.548828125
 20
13.689290364583334
 10
22.552734375
 20
13.68896484375
 10
22.55859375
 20
13.690755208333334
 10
22.56640625
 20
13.694661458333334
 10
22.576171875
 20
13.70068359375
 10
22.587890625
 20
13.708821614583334
 10
22.6015625
 20
13.719075520833334
 10
22.6171875
 20
13.7314453125
 10
22.634765625
 20
13.745930989583334
 10
22.654296875
 20
13.762532552083334
 10
22.67578125
 20
13.78125
 10
22.69921875
 20
13.802083333333334
 10
22.721842447916668
 20
13.8212890625
 10
22.74365234375
 20
13.8388671875
 10
22.7646484375
 20
13.854817708333334
 10
22.784830729166668
 20
13.869140625
 10
22.80419921875
 20
13.8818359375
 10
22.82275390625
 20
13.892903645833334
 10
22.840494791666668
 20
13.90234375
 10
22.857421875
 20
13.91015625
 10
22.87353515625
 20
13.916341145833334
 10
22.888834635416668
 20
13.9208984375
 10
22.9033203125
 20
13.923828125
 10
22.9169921875
 20
13.925130208333334
 10
22.929850260416668
 20
13.9248046875
 10
22.94189453125
 20
13.9228515625
 10
22.953125
 20
13.919270833333334
 10
22.963541666666668
 20
13.9140625
 10
22.972981770833332
 20
13.908203125
 10
22.9814453125
 20
13.901692708333334
 10
22.988932291666668
 20
13.89453125
 10
22.995442708333332
 20
13.88671875
 10
23.0009765625
 20
13.878255208333334
 10
23.005533854166668
 20
13.869140625
 10
23.009114583333332
 20
13.859375
 10
23.01171875
 20
13.848958333333334
 10
23.013346354166668
 20
13.837890625
 10
23.013997395833332
 20
13.826171875
 10
23.013671875
 20
13.813802083333334
 10
23.012369791666668
 20
13.80078125
 10
23.010091145833332
 20
13.787109375
 10
23.0068359375
 20
13.772786458333334
 10
23.002604166666668
 20
13.7578125
 10
22.997395833333332
 20
13.7421875
 10
22.994140625
 20
13.728190104166666
 10
22.992838541666668
 20
13.7158203125
 10
22.993489583333332
 20
13.705078125
 10
22.99609375
 20
13.695963541666666
 10
23.000651041666668
 20
13.6884765625
 10
23.007161458333332
 20
13.6826171875
 10
23.015625
 20
13.678385416666666
 10
23.026041666666668
 20
13.67578125
 10
23.038411458333332
 20
13.6748046875
 10
23.052734375
 20
13.675455729166666
 10
23.069010416666668
 20
13.677734375
 10
23.087239583333332
 20
13.681640625
 10
23.107421875
 20
13.687174479166666
 10
23.129557291666668
 20
13.6943359375
 10
23.153645833333332
 20
13.703125
 10
23.1796875
 20
13.713541666666666
 10
23.20361328125
 20
13.723958333333334
 10
23.225423177083332
 20
13.734375
 10
23.2451171875
 20
13.744791666666666
 10
23.2626953125
 20
13.755208333333334
 10
23.278157552083332
 20
13.765625
 10
23.29150390625
 20
13.776041666666666
 10
23.302734375
 20
13.786458333333334
 10
23.311848958333332
 20
13.796875
 10
23.31884765625
 20
13.807291666666666
 10
23.32373046875
 20
13.817708333333334
 10
23.326497395833332
 20
13.828125
 10
23.3271484375
 20
13.838541666666666
 10
23.32568359375
 20
13.848958333333334
 10
23.322102864583332
 20
13.859375
 10
23.31640625
 20
13.869791666666666
 10
23.30859375
 20
13.880208333333334
 10
23.303059895833332
 20
13.898274739583332
 10
23.2998046875
 20
13.923990885416666
 10
23.298828125
 20
13.957356770833334
 10
23.300130208333332
 20
13.998372395833332
 10
23.3037109375
 20
14.047037760416666
 10
23.3095703125
 20
14.103352864583334
 10
23.317708333333332
 20
14.167317708333332
 10
23.328125
 20
14.238932291666666
 10
23.3408203125
 20
14.318196614583334
 10
23.355794270833332
 20
14.405110677083332
 10
23.373046875
 20
14.499674479166666
 10
23.392578125
 20
14.601888020833334
 10
23.414388020833332
 20
14.711751302083332
 10
23.4384765625
 20
14.829264322916666
 10
23.46484375
 20
14.954427083333334
 10
23.493489583333332
 20
15.087239583333332
 10
23.518391927083332
 20
15.211100260416668
 10
23.53955078125
 20
15.326009114583334
 10
23.556966145833332
 20
15.431966145833332
 10
23.570638020833332
 20
15.528971354166668
 10
23.58056640625
 20
15.617024739583334
 10
23.586751302083332
 20
15.696126302083332
 10
23.589192708333332
 20
15.766276041666668
 10
23.587890625
 20
15.827473958333334
 10
23.582845052083332
 20
15.879720052083332
 10
23.574055989583332
 20
15.923014322916668
 10
23.5615234375
 20
15.957356770833334
 10
23.545247395833332
 20
15.982747395833332
 10
23.525227864583332
 20
15.999186197916668
 10
23.50146484375
 20
16.006673177083332
  0
LWPOLYLINE
  5
34
330
17
100
AcDbEntity
  8
Layer 1
100
AcDbPolyline
 90
464
 70
1
 10
19.579427083333332
 20
16.071614583333332
 10
19.545572916666668
 20
16.053385416666668
 10
19.513671875
 20
16.033040364583332
 10
19.483723958333332
 20
16.010579427083332
 10
19.455729166666668
 20
15.986002604166668
 10
19.4296875
 20
15.959309895833334
 10
19.405598958333332
 20
15.930501302083332
 10
19.383463541666668
 20
15.899576822916668
 10
19.36328125
 20
15.866536458333334
 10
19.345052083333332
 20
15.831380208333332
 10
19.328776041666668
 20
15.794108072916666
 10
19.314453125
 20
15.754720052083334
 10
19.302083333333332
 20
15.713216145833332
 10
19.291666666666668
 20
15.669596354166666
 10
19.283203125
 20
15.623860677083334
 10
19.276692708333332
 20
15.576009114583332
 10
19.272135416666668
 20
15.526041666666666
 10
19.26953125
 20
15.473958333333334
 10
19.265299479166668
 20
15.419596354166666
 10
19.259440104166668
 20
15.362955729166666
 10
19.251953125
 20
15.304036458333334
 10
19.242838541666668
 20
15.242838541666666
 10
19.232096354166668
 20
15.179361979166666
 10
19.2197265625
 20
15.113606770833334
 10
19.205729166666668
 20
15.045572916666666
 10
19.190104166666668
 20
14.975260416666666
 10
19.1728515625
 20
14.902669270833334
 10
19.153971354166668
 20
14.827799479166666
 10
19.133463541666668
 20
14.750651041666666
 10
19.111328125
 20
14.671223958333334
 10
19.087565104166668
 20
14.589518229166666
 10
19.062174479166668
 20
14.505533854166666
 10
19.03515625
 20
14.419270833333334
 10
19.006510416666668
 20
14.330729166666666
 10
18.980305989583332
 20
14.247721354166666
 10
18.95654296875
 20
14.170247395833334
 10
18.935221354166668
 20
14.098307291666666
 10
18.916341145833332
 20
14.031901041666666
 10
18.89990234375
 20
13.971028645833334
 10
18.885904947916668
 20
13.915690104166666
 10
18.874348958333332
 20
13.865885416666666
 10
18.865234375
 20
13.821614583333334
 10
18.858561197916668
 20
13.782877604166666
 10
18.854329427083332
 20
13.749674479166666
 10
18.8525390625
 20
13.722005208333334
 10
18.853190104166668
 20
13.699869791666666
 10
18.856282552083332
 20
13.683268229166666
 10
18.86181640625
 20
13.672200520833334
 10
18.869791666666668
 20
13.666666666666666
 10
18.880208333333332
 20
13.666666666666666
 10
18.890950520833332
 20
13.668131510416666
 10
18.902018229166668
 20
13.671061197916666
 10
18.913411458333332
 20
13.675455729166666
 10
18.925130208333332
 20
13.681315104166666
 10
18.937174479166668
 20
13.688639322916666
 10
18.949544270833332
 20
13.697428385416666
 10
18.962239583333332
 20
13.707682291666666
 10
18.975260416666668
 20
13.719401041666666
 10
18.988606770833332
 20
13.732584635416666
 10
19.002278645833332
 20
13.747233072916666
 10
19.016276041666668
 20
13.763346354166666
 10
19.030598958333332
 20
13.780924479166666
 10
19.045247395833332
 20
13.799967447916666
 10
19.060221354166668
 20
13.820475260416666
 10
19.075520833333332
 20
13.842447916666666
 10
19.091145833333332
 20
13.865885416666666
 10
19.106282552083332
 20
13.8857421875
 10
19.120930989583332
 20
13.902018229166666
 10
19.135091145833332
 20
13.914713541666666
 10
19.148763020833332
 20
13.923828125
 10
19.161946614583332
 20
13.929361979166666
 10
19.174641927083332
 20
13.931315104166666
 10
19.186848958333332
 20
13.9296875
 10
19.198567708333332
 20
13.924479166666666
 10
19.209798177083332
 20
13.915690104166666
 10
19.220540364583332
 20
13.9033203125
 10
19.230794270833332
 20
13.887369791666666
 10
19.240559895833332
 20
13.867838541666666
 10
19.249837239583332
 20
13.8447265625
 10
19.258626302083332
 20
13.818033854166666
 10
19.266927083333332
 20
13.787760416666666
 10
19.274739583333332
 20
13.75390625
 10
19.283040364583332
 20
13.721354166666666
 10
19.291829427083332
 20
13.690104166666666
 10
19.301106770833332
 20
13.66015625
 10
19.310872395833332
 20
13.631510416666666
 10
19.321126302083332
 20
13.604166666666666
 10
19.331868489583332
 20
13.578125
 10
19.343098958333332
 20
13.553385416666666
 10
19.354817708333332
 20
13.529947916666666
 10
19.367024739583332
 20
13.5078125
 10
19.379720052083332
 20
13.486979166666666
 10
19.392903645833332
 20
13.467447916666666
 10
19.406575520833332
 20
13.44921875
 10
19.420735677083332
 20
13.432291666666666
 10
19.435384114583332
 20
13.416666666666666
 10
19.450520833333332
 20
13.40234375
 10
19.466145833333332
 20
13.389322916666666
 10
19.481770833333332
 20
13.377115885416666
 10
19.497395833333332
 20
13.36572265625
 10
19.513020833333332
 20
13.355143229166666
 10
19.528645833333332
 20
13.345377604166666
 10
19.544270833333332
 20
13.33642578125
 10
19.559895833333332
 20
13.328287760416666
 10
19.575520833333332
 20
13.320963541666666
 10
19.591145833333332
 20
13.314453125
 10
19.606770833333332
 20
13.308756510416666
 10
19.622395833333332
 20
13.303873697916666
 10
19.638020833333332
 20
13.2998046875
 10
19.653645833333332
 20
13.296549479166666
 10
19.669270833333332
 20
13.294108072916666
 10
19.684895833333332
 20
13.29248046875
 10
19.700520833333332
 20
13.291666666666666
 10
19.716145833333332
 20
13.291666666666666
 10
19.733723958333332
 20
13.293131510416666
 10
19.753255208333332
 20
13.296061197916666
 10
19.774739583333332
 20
13.300455729166666
 10
19.798177083333332
 20
13.306315104166666
 10
19.823567708333332
 20
13.313639322916666
 10
19.850911458333332
 20
13.322428385416666
 10
19.880208333333332
 20
13.332682291666666
 10
19.911458333333332
 20
13.344401041666666
 10
19.944661458333332
 20
13.357584635416666
 10
19.979817708333332
 20
13.372233072916666
 10
20.016927083333332
 20
13.388346354166666
 10
20.055989583333332
 20
13.405924479166666
 10
20.097005208333332
 20
13.424967447916666
 10
20.139973958333332
 20
13.445475260416666
 10
20.184895833333332
 20
13.467447916666666
 10
20.231770833333332
 20
13.490885416666666
 10
20.27685546875
 20
13.513997395833334
 10
20.320149739583332
 20
13.536783854166666
 10
20.361653645833332
 20
13.559244791666666
 10
20.4013671875
 20
13.581380208333334
 10
20.439290364583332
 20
13.603190104166666
 10
20.475423177083332
 20
13.624674479166666
 10
20.509765625
 20
13.645833333333334
 10
20.542317708333332
 20
13.666666666666666
 10
20.573079427083332
 20
13.687174479166666
 10
20.60205078125
 20
13.707356770833334
 10
20.629231770833332
 20
13.727213541666666
 10
20.654622395833332
 20
13.746744791666666
 10
20.67822265625
 20
13.765950520833334
 10
20.700032552083332
 20
13.784830729166666
 10
20.720052083333332
 20
13.803385416666666
 10
20.73828125
 20
13.821614583333334
 10
20.754720052083332
 20
13.83837890625
 10
20.769368489583332
 20
13.853678385416666
 10
20.7822265625
 20
13.867513020833334
 10
20.793294270833332
 20
13.8798828125
 10
20.802571614583332
 20
13.890787760416666
 10
20.81005859375
 20
13.900227864583334
 10
20.815755208333332
 20
13.908203125
 10
20.819661458333332
 20
13.914713541666666
 10
20.82177734375
 20
13.919759114583334
 10
20.822102864583332
 20
13.92333984375
 10
20.820638020833332
 20
13.925455729166666
 10
20.8173828125
 20
13.926106770833334
 10
20.812337239583332
 20
13.92529296875
 10
20.805501302083332
 20
13.923014322916666
 10
20.796875
 20
13.919270833333334
 10
20.786458333333332
 20
13.9140625
 10
20.776204427083332
 20
13.910319010416666
 10
20.76611328125
 20
13.908040364583334
 10
20.756184895833332
 20
13.9072265625
 10
20.746419270833332
 20
13.907877604166666
 10
20.73681640625
 20
13.909993489583334
 10
20.727376302083332
 20
13.91357421875
 10
20.718098958333332
 20
13.918619791666666
 10
20.708984375
 20
13.925130208333334
 10
20.700032552083332
 20
13.93310546875
 10
20.691243489583332
 20
13.942545572916666
 10
20.6826171875
 20
13.953450520833334
 10
20.674153645833332
 20
13.9658203125
 10
20.665852864583332
 20
13.979654947916666
 10
20.65771484375
 20
13.994954427083334
 10
20.649739583333332
 20
14.01171875
 10
20.641927083333332
 20
14.029947916666666
 10
20.635091145833332
 20
14.048177083333334
 10
20.629231770833332
 20
14.06640625
 10
20.624348958333332
 20
14.084635416666666
 10
20.620442708333332
 20
14.102864583333334
 10
20.617513020833332
 20
14.12109375
 10
20.615559895833332
 20
14.139322916666666
 10
20.614583333333332
 20
14.157552083333334
 10
20.614583333333332
 20
14.17578125
 10
20.615559895833332
 20
14.194010416666666
 10
20.617513020833332
 20
14.212239583333334
 10
20.620442708333332
 20
14.23046875
 10
20.624348958333332
 20
14.248697916666666
 10
20.629231770833332
 20
14.266927083333334
 10
20.635091145833332
 20
14.28515625
 10
20.641927083333332
 20
14.303385416666666
 10
20.649739583333332
 20
14.321614583333334
 10
20.658365885416668
 20
14.339192708333334
 10
20.667805989583332
 20
14.356119791666666
 10
20.678059895833332
 20
14.372395833333334
 10
20.689127604166668
 20
14.388020833333334
 10
20.701009114583332
 20
14.402994791666666
 10
20.713704427083332
 20
14.417317708333334
 10
20.727213541666668
 20
14.430989583333334
 10
20.741536458333332
 20
14.444010416666666
 10
20.756673177083332
 20
14.456380208333334
 10
20.772623697916668
 20
14.468098958333334
 10
20.789388020833332
 20
14.479166666666666
 10
20.806966145833332
 20
14.489583333333334
 10
20.825358072916668
 20
14.499348958333334
 10
20.844563802083332
 20
14.508463541666666
 10
20.864583333333332
 20
14.516927083333334
 10
20.885416666666668
 20
14.524739583333334
 10
20.904459635416668
 20
14.532552083333334
 10
20.921712239583332
 20
14.540364583333334
 10
20.937174479166668
 20
14.548177083333334
 10
20.950846354166668
 20
14.555989583333334
 10
20.962727864583332
 20
14.563802083333334
 10
20.972819010416668
 20
14.571614583333334
 10
20.981119791666668
 20
14.579427083333334
 10
20.987630208333332
 20
14.587239583333334
 10
20.992350260416668
 20
14.595052083333334
 10
20.995279947916668
 20
14.602864583333334
 10
20.996419270833332
 20
14.610677083333334
 10
20.995768229166668
 20
14.618489583333334
 10
20.993326822916668
 20
14.626302083333334
 10
20.989095052083332
 20
14.634114583333334
 10
20.983072916666668
 20
14.641927083333334
 10
20.975260416666668
 20
14.649739583333334
 10
20.968587239583332
 20
14.658203125
 10
20.963053385416668
 20
14.667317708333334
 10
20.958658854166668
 20
14.677083333333334
 10
20.955403645833332
 20
14.6875
 10
20.953287760416668
 20
14.698567708333334
 10
20.952311197916668
 20
14.710286458333334
 10
20.952473958333332
 20
14.72265625
 10
20.953776041666668
 20
14.735677083333334
 10
20.956217447916668
 20
14.749348958333334
 10
20.959798177083332
 20
14.763671875
 10
20.964518229166668
 20
14.778645833333334
 10
20.970377604166668
 20
14.794270833333334
 10
20.977376302083332
 20
14.810546875
 10
20.985514322916668
 20
14.827473958333334
 10
20.994791666666668
 20
14.845052083333334
 10
21.005208333333332
 20
14.86328125
 10
21.0146484375
 20
14.881510416666666
 10
21.023111979166668
 20
14.899739583333334
 10
21.030598958333332
 20
14.91796875
 10
21.037109375
 20
14.936197916666666
 10
21.042643229166668
 20
14.954427083333334
 10
21.047200520833332
 20
14.97265625
 10
21.05078125
 20
14.990885416666666
 10
21.053385416666668
 20
15.009114583333334
 10
21.055013020833332
 20
15.02734375
 10
21.0556640625
 20
15.045572916666666
 10
21.055338541666668
 20
15.063802083333334
 10
21.054036458333332
 20
15.08203125
 10
21.0517578125
 20
15.100260416666666
 10
21.048502604166668
 20
15.118489583333334
 10
21.044270833333332
 20
15.13671875
 10
21.0390625
 20
15.154947916666666
 10
21.032877604166668
 20
15.171223958333334
 10
21.025716145833332
 20
15.185546875
 10
21.017578125
 20
15.197916666666666
 10
21.008463541666668
 20
15.208333333333334
 10
20.998372395833332
 20
15.216796875
 10
20.9873046875
 20
15.223307291666666
 10
20.975260416666668
 20
15.227864583333334
 10
20.962239583333332
 20
15.23046875
 10
20.9482421875
 20
15.231119791666666
 10
20.933268229166668
 20
15.229817708333334
 10
20.917317708333332
 20
15.2265625
 10
20.900390625
 20
15.221354166666666
 10
20.882486979166668
 20
15.214192708333334
 10
20.863606770833332
 20
15.205078125
 10
20.84375
 20
15.194010416666666
 10
20.822916666666668
 20
15.180989583333334
 10
20.80224609375
 20
15.16650390625
 10
20.78173828125
 20
15.150553385416666
 10
20.761393229166668
 20
15.133138020833334
 10
20.7412109375
 20
15.1142578125
 10
20.72119140625
 20
15.093912760416666
 10
20.701334635416668
 20
15.072102864583334
 10
20.681640625
 20
15.048828125
 10
20.662109375
 20
15.024088541666666
 10
20.642740885416668
 20
14.997884114583334
 10
20.62353515625
 20
14.97021484375
 10
20.6044921875
 20
14.941080729166666
 10
20.585611979166668
 20
14.910481770833334
 10
20.56689453125
 20
14.87841796875
 10
20.54833984375
 20
14.844889322916666
 10
20.529947916666668
 20
14.809895833333334
 10
20.51171875
 20
14.7734375
 10
20.494466145833332
 20
14.736165364583334
 10
20.478190104166668
 20
14.698079427083334
 10
20.462890625
 20
14.6591796875
 10
20.448567708333332
 20
14.619466145833334
 10
20.435221354166668
 20
14.578938802083334
 10
20.4228515625
 20
14.53759765625
 10
20.411458333333332
 20
14.495442708333334
 10
20.401041666666668
 20
14.452473958333334
 10
20.3916015625
 20
14.40869140625
 10
20.383138020833332
 20
14.364095052083334
 10
20.375651041666668
 20
14.318684895833334
 10
20.369140625
 20
14.2724609375
 10
20.363606770833332
 20
14.225423177083334
 10
20.359049479166668
 20
14.177571614583334
 10
20.35546875
 20
14.12890625
 10
20.352864583333332
 20
14.079427083333334
 10
20.348470052083332
 20
14.03173828125
 10
20.34228515625
 20
13.98583984375
 10
20.334309895833332
 20
13.941731770833334
 10
20.324544270833332
 20
13.8994140625
 10
20.31298828125
 20
13.85888671875
 10
20.299641927083332
 20
13.820149739583334
 10
20.284505208333332
 20
13.783203125
 10
20.267578125
 20
13.748046875
 10
20.248860677083332
 20
13.714680989583334
 10
20.228352864583332
 20
13.68310546875
 10
20.2060546875
 20
13.6533203125
 10
20.181966145833332
 20
13.625325520833334
 10
20.156087239583332
 20
13.59912109375
 10
20.12841796875
 20
13.57470703125
 10
20.098958333333332
 20
13.552083333333334
 10
20.067708333333332
 20
13.53125
 10
20.037434895833332
 20
13.513020833333334
 10
20.008138020833332
 20
13.497395833333334
 10
19.979817708333332
 20
13.484375
 10
19.952473958333332
 20
13.473958333333334
 10
19.926106770833332
 20
13.466145833333334
 10
19.900716145833332
 20
13.4609375
 10
19.876302083333332
 20
13.458333333333334
 10
19.852864583333332
 20
13.458333333333334
 10
19.830403645833332
 20
13.4609375
 10
19.808919270833332
 20
13.466145833333334
 10
19.788411458333332
 20
13.473958333333334
 10
19.768880208333332
 20
13.484375
 10
19.750325520833332
 20
13.497395833333334
 10
19.732747395833332
 20
13.513020833333334
 10
19.716145833333332
 20
13.53125
 10
19.700520833333332
 20
13.552083333333334
 10
19.685546875
 20
13.574544270833334
 10
19.671223958333332
 20
13.5986328125
 10
19.657552083333332
 20
13.624348958333334
 10
19.64453125
 20
13.651692708333334
 10
19.632161458333332
 20
13.6806640625
 10
19.620442708333332
 20
13.711263020833334
 10
19.609375
 20
13.743489583333334
 10
19.598958333333332
 20
13.77734375
 10
19.589192708333332
 20
13.812825520833334
 10
19.580078125
 20
13.849934895833334
 10
19.571614583333332
 20
13.888671875
 10
19.563802083333332
 20
13.929036458333334
 10
19.556640625
 20
13.971028645833334
 10
19.550130208333332
 20
14.0146484375
 10
19.544270833333332
 20
14.059895833333334
 10
19.5390625
 20
14.106770833333334
 10
19.535319010416668
 20
14.152018229166666
 10
19.533040364583332
 20
14.195638020833334
 10
19.5322265625
 20
14.237630208333334
 10
19.532877604166668
 20
14.277994791666666
 10
19.534993489583332
 20
14.316731770833334
 10
19.53857421875
 20
14.353841145833334
 10
19.543619791666668
 20
14.389322916666666
 10
19.550130208333332
 20
14.423177083333334
 10
19.55810546875
 20
14.455403645833334
 10
19.567545572916668
 20
14.486002604166666
 10
19.578450520833332
 20
14.514973958333334
 10
19.5908203125
 20
14.542317708333334
 10
19.604654947916668
 20
14.568033854166666
 10
19.619954427083332
 20
14.592122395833334
 10
19.63671875
 20
14.614583333333334
 10
19.654947916666668
 20
14.635416666666666
 10
19.67236328125
 20
14.65673828125
 10
19.68896484375
 20
14.678548177083334
 10
19.704752604166668
 20
14.700846354166666
 10
19.7197265625
 20
14.7236328125
 10
19.73388671875
 20
14.746907552083334
 10
19.747233072916668
 20
14.770670572916666
 10
19.759765625
 20
14.794921875
 10
19.771484375
 20
14.819661458333334
 10
19.782389322916668
 20
14.844889322916666
 10
19.79248046875
 20
14.87060546875
 10
19.8017578125
 20
14.896809895833334
 10
19.810221354166668
 20
14.923502604166666
 10
19.81787109375
 20
14.95068359375
 10
19.82470703125
 20
14.978352864583334
 10
19.830729166666668
 20
15.006510416666666
 10
19.8359375
 20
15.03515625
 10
19.83935546875
 20
15.060872395833334
 10
19.840983072916668
 20
15.083658854166666
 10
19.8408203125
 20
15.103515625
 10
19.8388671875
 20
15.120442708333334
 10
19.835123697916668
 20
15.134440104166666
 10
19.82958984375
 20
15.1455078125
 10
19.822265625
 20
15.153645833333334
 10
19.813151041666668
 20
15.158854166666666
 10
19.80224609375
 20
15.1611328125
 10
19.78955078125
 20
15.160481770833334
 10
19.775065104166668
 20
15.156901041666666
 10
19.7587890625
 20
15.150390625
 10
19.74072265625
 20
15.140950520833334
 10
19.720865885416668
 20
15.128580729166666
 10
19.69921875
 20
15.11328125
 10
19.67578125
 20
15.095052083333334
 10
19.653483072916668
 20
15.078287760416666
 10
19.63232421875
 20
15.06298828125
 10
19.6123046875
 20
15.049153645833334
 10
19.593424479166668
 20
15.036783854166666
 10
19.57568359375
 20
15.02587890625
 10
19.55908203125
 20
15.016438802083334
 10
19.543619791666668
 20
15.008463541666666
 10
19.529296875
 20
15.001953125
 10
19.51611328125
 20
14.996907552083334
 10
19.504069010416668
 20
14.993326822916666
 10
19.4931640625
 20
14.9912109375
 10
19.4833984375
 20
14.990559895833334
 10
19.474772135416668
 20
14.991373697916666
 10
19.46728515625
 20
14.99365234375
 10
19.4609375
 20
14.997395833333334
 10
19.455729166666668
 20
15.002604166666666
 10
19.451334635416668
 20
15.009928385416666
 10
19.44775390625
 20
15.019368489583334
 10
19.444986979166668
 20
15.030924479166666
 10
19.443033854166668
 20
15.044596354166666
 10
19.44189453125
 20
15.060384114583334
 10
19.441569010416668
 20
15.078287760416666
 10
19.442057291666668
 20
15.098307291666666
 10
19.443359375
 20
15.120442708333334
 10
19.445475260416668
 20
15.144694010416666
 10
19.448404947916668
 20
15.171061197916666
 10
19.4521484375
 20
15.199544270833334
 10
19.456705729166668
 20
15.230143229166666
 10
19.462076822916668
 20
15.262858072916666
 10
19.46826171875
 20
15.297688802083334
 10
19.475260416666668
 20
15.334635416666666
 10
19.483072916666668
 20
15.373697916666666
 10
19.491536458333332
 20
15.412434895833332
 10
19.500651041666668
 20
15.450846354166666
 10
19.510416666666668
 20
15.488932291666666
 10
19.520833333333332
 20
15.526692708333332
 10
19.531901041666668
 20
15.564127604166666
 10
19.543619791666668
 20
15.601236979166666
 10
19.555989583333332
 20
15.638020833333332
 10
19.569010416666668
 20
15.674479166666666
 10
19.582682291666668
 20
15.710611979166668
 10
19.597005208333332
 20
15.746419270833332
 10
19.611979166666668
 20
15.781901041666666
 10
19.627604166666668
 20
15.817057291666668
 10
19.643880208333332
 20
15.851888020833332
 10
19.660807291666668
 20
15.886393229166666
 10
19.678385416666668
 20
15.920572916666668
 10
19.696614583333332
 20
15.954427083333332
 10
19.711588541666668
 20
15.985026041666668
 10
19.723307291666668
 20
16.012369791666668
 10
19.731770833333332
 20
16.036458333333332
 10
19.736979166666668
 20
16.057291666666668
 10
19.738932291666668
 20
16.074869791666668
 10
19.737630208333332
 20
16.089192708333332
 10
19.733072916666668
 20
16.100260416666668
 10
19.725260416666668
 20
16.108072916666668
 10
19.714192708333332
 20
16.112630208333332
 10
19.699869791666668
 20
16.113932291666668
 10
19.682291666666668
 20
16.111979166666668
 10
19.661458333333332
 20
16.106770833333332
 10
19.637369791666668
 20
16.098307291666668
 10
19.610026041666668
 20
16.086588541666668
  0
ENDSEC
  0
SECTION
  2
OBJECTS
  0
DICTIONARY
  5
A
330
0
100
AcDbDictionary
281
1
  3
ACAD_COLOR
350
B
  3
ACAD_GROUP
350
C
  3
ACAD_LAYOUT
350
D
  3
ACAD_MATERIAL
350
E
  3
ACAD_MLEADERSTYLE
350
F
  3
ACAD_MLINESTYLE
350
10
  3
ACAD_PLOTSETTINGS
350
11
  3
ACAD_PLOTSTYLENAME
350
12
  3
ACAD_SCALELIST
350
14
  3
ACAD_TABLESTYLE
350
15
  3
ACAD_VISUALSTYLE
350
16
  3
EZDXF_META
350
2D
  0
DICTIONARY
  5
B
330
A
100
AcDbDictionary
281
1
  0
DICTIONARY
  5
C
330
A
100
AcDbDictionary
281
1
  0
DICTIONARY
  5
D
330
A
100
AcDbDictionary
281
1
  3
Model
350
1A
  3
Layout1
350
1E
  0
DICTIONARY
  5
E
330
A
100
AcDbDictionary
281
1
  3
ByBlock
350
1F
  3
ByLayer
350
20
  3
Global
350
21
  0
DICTIONARY
  5
F
330
A
100
AcDbDictionary
281
1
  3
Standard
350
2C
  0
DICTIONARY
  5
10
330
A
100
AcDbDictionary
281
1
  3
Standard
350
22
  0
DICTIONARY
  5
11
330
A
100
AcDbDictionary
281
1
  0
ACDBDICTIONARYWDFLT
  5
12
330
A
100
AcDbDictionary
281
1
  3
Normal
350
13
100
AcDbDictionaryWithDefault
340
13
  0
ACDBPLACEHOLDER
  5
13
330
12
  0
DICTIONARY
  5
14
330
A
100
AcDbDictionary
281
1
  0
DICTIONARY
  5
15
330
A
100
AcDbDictionary
281
1
  0
DICTIONARY
  5
16
330
A
100
AcDbDictionary
281
1
  0
LAYOUT
  5
1A
330
D
100
AcDbPlotSettings
  1

  4
A3
  6

 40
7.5
 41
20.0
 42
7.5
 43
20.0
 44
420.0
 45
297.0
 46
0.0
 47
0.0
 48
0.0
 49
0.0
140
0.0
141
0.0
142
1.0
143
1.0
 70
1024
 72
1
 73
0
 74
5
  7

 75
16
 76
0
 77
2
 78
300
147
1.0
148
0.0
149
0.0
100
AcDbLayout
  1
Model
 70
1
 71
0
 10
0.0
 20
0.0
 11
420.0
 21
297.0
 12
0.0
 22
0.0
 32
0.0
 14
1e+20
 24
1e+20
 34
1e+20
 15
-1e+20
 25
-1e+20
 35
-1e+20
146
0.0
 13
0.0
 23
0.0
 33
0.0
 16
1.0
 26
0.0
 36
0.0
 17
0.0
 27
1.0
 37
0.0
 76
1
330
17
  0
LAYOUT
  5
1E
330
D
100
AcDbPlotSettings
  1

  4
A3
  6

 40
7.5
 41
20.0
 42
7.5
 43
20.0
 44
420.0
 45
297.0
 46
0.0
 47
0.0
 48
0.0
 49
0.0
140
0.0
141
0.0
142
1.0
143
1.0
 70
0
 72
1
 73
0
 74
5
  7

 75
16
 76
0
 77
2
 78
300
147
1.0
148
0.0
149
0.0
100
AcDbLayout
  1
Layout1
 70
1
 71
1
 10
0.0
 20
0.0
 11
420.0
 21
297.0
 12
0.0
 22
0.0
 32
0.0
 14
1e+20
 24
1e+20
 34
1e+20
 15
-1e+20
 25
-1e+20
 35
-1e+20
146
0.0
 13
0.0
 23
0.0
 33
0.0
 16
1.0
 26
0.0
 36
0.0
 17
0.0
 27
1.0
 37
0.0
 76
1
330
1B
  0
MATERIAL
  5
1F
102
{ACAD_REACTORS
330
E
102
}
330
E
100
AcDbMaterial
  1
ByBlock
  2

 70
0
 40
1.0
 71
1
 41
1.0
 91
-1023410177
 42
1.0
 72
1
  3

 73
1
 74
1
 75
1
 44
0.5
 73
0
 45
1.0
 46
1.0
 77
1
  4

 78
1
 79
1
170
1
 48
1.0
171
1
  6

172
1
173
1
174
1
140
1.0
141
1.0
175
1
  7

176
1
177
1
178
1
143
1.0
179
1
  8

270
1
271
1
272
1
145
1.0
146
1.0
273
1
  9

274
1
275
1
276
1
 42
1.0
 72
1
  3

 73
1
 74
1
 75
1
 94
63
  0
MATERIAL
  5
20
102
{ACAD_REACTORS
330
E
102
}
330
E
100
AcDbMaterial
  1
ByLayer
  2

 70
0
 40
1.0
 71
1
 41
1.0
 91
-1023410177
 42
1.0
 72
1
  3

 73
1
 74
1
 75
1
 44
0.5
 73
0
 45
1.0
 46
1.0
 77
1
  4

 78
1
 79
1
170
1
 48
1.0
171
1
  6

172
1
173
1
174
1
140
1.0
141
1.0
175
1
  7

176
1
177
1
178
1
143
1.0
179
1
  8

270
1
271
1
272
1
145
1.0
146
1.0
273
1
  9

274
1
275
1
276
1
 42
1.0
 72
1
  3

 73
1
 74
1
 75
1
 94
63
  0
MATERIAL
  5
21
102
{ACAD_REACTORS
330
E
102
}
330
E
100
AcDbMaterial
  1
Global
  2

 70
0
 40
1.0
 71
1
 41
1.0
 91
-1023410177
 42
1.0
 72
1
  3

 73
1
 74
1
 75
1
 44
0.5
 73
0
 45
1.0
 46
1.0
 77
1
  4

 78
1
 79
1
170
1
 48
1.0
171
1
  6

172
1
173
1
174
1
140
1.0
141
1.0
175
1
  7

176
1
177
1
178
1
143
1.0
179
1
  8

270
1
271
1
272
1
145
1.0
146
1.0
273
1
  9

274
1
275
1
276
1
 42
1.0
 72
1
  3

 73
1
 74
1
 75
1
 94
63
  0
MLINESTYLE
  5
22
102
{ACAD_REACTORS
330
10
102
}
330
10
100
AcDbMlineStyle
  2
Standard
 70
0
  3

 62
256
 51
90.0
 52
90.0
 71
2
 49
0.5
 62
256
  6
BYLAYER
 49
-0.5
 62
256
  6
BYLAYER
  0
MLEADERSTYLE
  5
2C
102
{ACAD_REACTORS
330
F
102
}
330
F
100
AcDbMLeaderStyle
179
2
170
2
171
1
172
0
 90
2
 40
0.0
 41
0.0
173
1
 91
-1056964608
 92
-2
290
1
 42
2.0
291
1
 43
8.0
  3
Standard
 44
4.0
300

342
29
174
1
175
1
176
0
178
1
 93
-1056964608
 45
4.0
292
0
297
0
 46
4.0
 94
-1056964608
 47
1.0
 49
1.0
140
1.0
294
1
141
0.0
177
0
142
1.0
295
0
296
0
143
3.75
271
0
272
9
273
9
  0
DICTIONARY
  5
2D
330
A
100
AcDbDictionary
280
1
281
1
  3
CREATED_BY_EZDXF
350
2E
  3
WRITTEN_BY_EZDXF
350
37
  0
DICTIONARYVAR
  5
2E
330
2D
100
DictionaryVariables
280
0
  1
1.4.3 @ 2026-07-05T20:56:52.344990+00:00
  0
DICTIONARYVAR
  5
37
330
2D
100
DictionaryVariables
280
0
  1
1.4.3 @ 2026-07-05T20:56:52.349414+00:00
  0
ENDSEC
  0
EOF
