  0
SECTION
  2
HEADER
  9
$ACADVER
  1
AC1024
  9
$ACADMAINTVER
 70
6
  9
$DWGCODEPAGE
  3
ANSI_1252
  9
$LASTSAVEDBY
  1
ezdxf
  9
$INSBASE
 10
0.0
 20
0.0
 30
0.0
  9
$EXTMIN
 10
1e+20
 20
1e+20
 30
1e+20
  9
$EXTMAX
 10
-1e+20
 20
-1e+20
 30
-1e+20
  9
$LIMMIN
 10
0.0
 20
0.0
  9
$LIMMAX
 10
420.0
 20
297.0
  9
$ORTHOMODE
 70
0
  9
$REGENMODE
 70
1
  9
$FILLMODE
 70
1
  9
$QTEXTMODE
 70
0
  9
$MIRRTEXT
 70
1
  9
$LTSCALE
 40
1.0
  9
$ATTMODE
 70
1
  9
$TEXTSIZE
 40
2.5
  9
$TRACEWID
 40
1.0
  9
$TEXTSTYLE
  7
Standard
  9
$CLAYER
  8
0
  9
$CELTYPE
  6
ByLayer
  9
$CECOLOR
 62
256
  9
$CELTSCALE
 40
1.0
  9
$DISPSILH
 70
0
  9
$DIMSCALE
 40
1.0
  9
$DIMASZ
 40
2.5
  9
$DIMEXO
 40
0.625
  9
$DIMDLI
 40
3.75
  9
$DIMRND
 40
0.0
  9
$DIMDLE
 40
0.0
  9
$DIMEXE
 40
1.25
  9
$DIMTP
 40
0.0
  9
$DIMTM
 40
0.0
  9
$DIMTXT
 40
2.5
  9
$DIMCEN
 40
2.5
  9
$DIMTSZ
 40
0.0
  9
$DIMTOL
 70
0
  9
$DIMLIM
 70
0
  9
$DIMTIH
 70
0
  9
$DIMTOH
 70
0
  9
$DIMSE1
 70
0
  9
$DIMSE2
 70
0
  9
$DIMTAD
 70
1
  9
$DIMZIN
 70
8
  9
$DIMBLK
  1

  9
$DIMASO
 70
1
  9
$DIMSHO
 70
1
  9
$DIMPOST
  1

  9
$DIMAPOST
  1

  9
$DIMALT
 70
0
  9
$DIMALTD
 70
3
  9
$DIMALTF
 40
0.03937007874
  9
$DIMLFAC
 40
1.0
  9
$DIMTOFL
 70
1
  9
$DIMTVP
 40
0.0
  9
$DIMTIX
 70
0
  9
$DIMSOXD
 70
0
  9
$DIMSAH
 70
0
  9
$DIMBLK1
  1

  9
$DIMBLK2
  1

  9
$DIMSTYLE
  2
ISO-25
  9
$DIMCLRD
 70
0
  9
$DIMCLRE
 70
0
  9
$DIMCLRT
 70
0
  9
$DIMTFAC
 40
1.0
  9
$DIMGAP
 40
0.625
  9
$DIMJUST
 70
0
  9
$DIMSD1
 70
0
  9
$DIMSD2
 70
0
  9
$DIMTOLJ
 70
0
  9
$DIMTZIN
 70
8
  9
$DIMALTZ
 70
0
  9
$DIMALTTZ
 70
0
  9
$DIMUPT
 70
0
  9
$DIMDEC
 70
2
  9
$DIMTDEC
 70
2
  9
$DIMALTU
 70
2
  9
$DIMALTTD
 70
3
  9
$DIMTXSTY
  7
Standard
  9
$DIMAUNIT
 70
0
  9
$DIMADEC
 70
0
  9
$DIMALTRND
 40
0.0
  9
$DIMAZIN
 70
0
  9
$DIMDSEP
 70
44
  9
$DIMATFIT
 70
3
  9
$DIMFRAC
 70
0
  9
$DIMLDRBLK
  1

  9
$DIMLUNIT
 70
2
  9
$DIMLWD
 70
-2
  9
$DIMLWE
 70
-2
  9
$DIMTMOVE
 70
0
  9
$DIMFXL
 40
1.0
  9
$DIMFXLON
 70
0
  9
$DIMJOGANG
 40
0.785398163397
  9
$DIMTFILL
 70
0
  9
$DIMTFILLCLR
 70
0
  9
$DIMARCSYM
 70
0
  9
$DIMLTYPE
  6

  9
$DIMLTEX1
  6

  9
$DIMLTEX2
  6

  9
$DIMTXTDIRECTION
 70
0
  9
$LUNITS
 70
2
  9
$LUPREC
 70
4
  9
$SKETCHINC
 40
1.0
  9
$FILLETRAD
 40
10.0
  9
$AUNITS
 70
0
  9
$AUPREC
 70
2
  9
$MENU
  1
.
  9
$ELEVATION
 40
0.0
  9
$PELEVATION
 40
0.0
  9
$THICKNESS
 40
0.0
  9
$LIMCHECK
 70
0
  9
$CHAMFERA
 40
0.0
  9
$CHAMFERB
 40
0.0
  9
$CHAMFERC
 40
0.0
  9
$CHAMFERD
 40
0.0
  9
$SKPOLY
 70
0
  9
$TDCREATE
 40
2461140.609236111
  9
$TDUCREATE
 40
2458532.153996898
  9
$TDUPDATE
 40
2461140.609236111
  9
$TDUUPDATE
 40
2458532.1544311
  9
$TDINDWG
 40
0.0
  9
$TDUSRTIMER
 40
0.0
  9
$USRTIMER
 70
1
  9
$ANGBASE
 50
0.0
  9
$ANGDIR
 70
0
  9
$PDMODE
 70
0
  9
$PDSIZE
 40
0.0
  9
$PLINEWID
 40
0.0
  9
$SPLFRAME
 70
0
  9
$SPLINETYPE
 70
6
  9
$SPLINESEGS
 70
8
  9
$HANDSEED
  5
1EC
  9
$SURFTAB1
 70
6
  9
$SURFTAB2
 70
6
  9
$SURFTYPE
 70
6
  9
$SURFU
 70
6
  9
$SURFV
 70
6
  9
$UCSBASE
  2

  9
$UCSNAME
  2

  9
$UCSORG
 10
0.0
 20
0.0
 30
0.0
  9
$UCSXDIR
 10
1.0
 20
0.0
 30
0.0
  9
$UCSYDIR
 10
0.0
 20
1.0
 30
0.0
  9
$UCSORTHOREF
  2

  9
$UCSORTHOVIEW
 70
0
  9
$UCSORGTOP
 10
0.0
 20
0.0
 30
0.0
  9
$UCSORGBOTTOM
 10
0.0
 20
0.0
 30
0.0
  9
$UCSORGLEFT
 10
0.0
 20
0.0
 30
0.0
  9
$UCSORGRIGHT
 10
0.0
 20
0.0
 30
0.0
  9
$UCSORGFRONT
 10
0.0
 20
0.0
 30
0.0
  9
$UCSORGBACK
 10
0.0
 20
0.0
 30
0.0
  9
$PUCSBASE
  2

  9
$PUCSNAME
  2

  9
$PUCSORG
 10
0.0
 20
0.0
 30
0.0
  9
$PUCSXDIR
 10
1.0
 20
0.0
 30
0.0
  9
$PUCSYDIR
 10
0.0
 20
1.0
 30
0.0
  9
$PUCSORTHOREF
  2

  9
$PUCSORTHOVIEW
 70
0
  9
$PUCSORGTOP
 10
0.0
 20
0.0
 30
0.0
  9
$PUCSORGBOTTOM
 10
0.0
 20
0.0
 30
0.0
  9
$PUCSORGLEFT
 10
0.0
 20
0.0
 30
0.0
  9
$PUCSORGRIGHT
 10
0.0
 20
0.0
 30
0.0
  9
$PUCSORGFRONT
 10
0.0
 20
0.0
 30
0.0
  9
$PUCSORGBACK
 10
0.0
 20
0.0
 30
0.0
  9
$USERI1
 70
0
  9
$USERI2
 70
0
  9
$USERI3
 70
0
  9
$USERI4
 70
0
  9
$USERI5
 70
0
  9
$USERR1
 40
0.0
  9
$USERR2
 40
0.0
  9
$USERR3
 40
0.0
  9
$USERR4
 40
0.0
  9
$USERR5
 40
0.0
  9
$WORLDVIEW
 70
1
  9
$SHADEDGE
 70
3
  9
$SHADEDIF
 70
70
  9
$TILEMODE
 70
1
  9
$MAXACTVP
 70
64
  9
$PINSBASE
 10
0.0
 20
0.0
 30
0.0
  9
$PLIMCHECK
 70
0
  9
$PEXTMIN
 10
1e+20
 20
1e+20
 30
1e+20
  9
$PEXTMAX
 10
-1e+20
 20
-1e+20
 30
-1e+20
  9
$PLIMMIN
 10
0.0
 20
0.0
  9
$PLIMMAX
 10
420.0
 20
297.0
  9
$UNITMODE
 70
0
  9
$VISRETAIN
 70
1
  9
$PLINEGEN
 70
0
  9
$PSLTSCALE
 70
1
  9
$TREEDEPTH
 70
3020
  9
$CMLSTYLE
  2
Standard
  9
$CMLJUST
 70
0
  9
$CMLSCALE
 40
20.0
  9
$PROXYGRAPHICS
 70
1
  9
$MEASUREMENT
 70
1
  9
$CELWEIGHT
370
-1
  9
$ENDCAPS
280
0
  9
$JOINSTYLE
280
0
  9
$LWDISPLAY
290
0
  9
$INSUNITS
 70
4
  9
$HYPERLINKBASE
  1

  9
$STYLESHEET
  1

  9
$XEDIT
290
1
  9
$CEPSNTYPE
380
0
  9
$PSTYLEMODE
290
1
  9
$FINGERPRINTGUID
  2
{3C3336C8-48BA-408A-A346-19088A27A468}
  9
$VERSIONGUID
  2
{BE9523E8-DF35-4F40-95B5-9E60AC507386}
  9
$EXTNAMES
290
1
  9
$PSVPSCALE
 40
0.0
  9
$OLESTARTUP
290
0
  9
$SORTENTS
280
127
  9
$INDEXCTL
280
0
  9
$HIDETEXT
280
1
  9
$XCLIPFRAME
280
1
  9
$HALOGAP
280
0
  9
$OBSCOLOR
 70
257
  9
$OBSLTYPE
280
0
  9
$INTERSECTIONDISPLAY
280
0
  9
$INTERSECTIONCOLOR
 70
257
  9
$DIMASSOC
280
2
  9
$PROJECTNAME
  1

  9
$CAMERADISPLAY
290
0
  9
$LENSLENGTH
 40
50.0
  9
$CAMERAHEIGHT
 40
0.0
  9
$STEPSPERSEC
 40
24.0
  9
$STEPSIZE
 40
100.0
  9
$3DDWFPREC
 40
2.0
  9
$PSOLWIDTH
 40
0.005
  9
$PSOLHEIGHT
 40
0.08
  9
$LOFTANG1
 40
1.570796326795
  9
$LOFTANG2
 40
1.570796326795
  9
$LOFTMAG1
 40
0.0
  9
$LOFTMAG2
 40
0.0
  9
$LOFTPARAM
 70
7
  9
$LOFTNORMALS
280
1
  9
$LATITUDE
 40
37.795
  9
$LONGITUDE
 40
-122.394
  9
$NORTHDIRECTION
 40
0.0
  9
$TIMEZONE
 70
-8000
  9
$LIGHTGLYPHDISPLAY
280
1
  9
$TILEMODELIGHTSYNCH
280
1
  9
$CMATERIAL
347
20
  9
$SOLIDHIST
280
0
  9
$SHOWHIST
280
1
  9
$DWFFRAME
280
2
  9
$DGNFRAME
280
2
  9
$REALWORLDSCALE
290
1
  9
$INTERFERECOLOR
 62
256
  9
$CSHADOW
280
0
  9
$SHADOWPLANELOCATION
 40
0.0
  0
ENDSEC
  0
SECTION
  2
CLASSES
  0
CLASS
  1
ACDBDICTIONARYWDFLT
  2
AcDbDictionaryWithDefault
  3
ObjectDBX Classes
 90
0
 91
0
280
0
281
0
  0
CLASS
  1
SUN
  2
AcDbSun
  3
SCENEOE
 90
1153
 91
0
280
0
281
0
  0
CLASS
  1
VISUALSTYLE
  2
AcDbVisualStyle
  3
ObjectDBX Classes
 90
4095
 91
0
280
0
281
0
  0
CLASS
  1
MATERIAL
  2
AcDbMaterial
  3
ObjectDBX Classes
 90
1153
 91
0
280
0
281
0
  0
CLASS
  1
SCALE
  2
AcDbScale
  3
ObjectDBX Classes
 90
1153
 91
0
280
0
281
0
  0
CLASS
  1
TABLESTYLE
  2
AcDbTableStyle
  3
ObjectDBX Classes
 90
4095
 91
0
280
0
281
0
  0
CLASS
  1
MLEADERSTYLE
  2
AcDbMLeaderStyle
  3
ACDB_MLEADERSTYLE_CLASS
 90
4095
 91
0
280
0
281
0
  0
CLASS
  1
DICTIONARYVAR
  2
AcDbDictionaryVar
  3
ObjectDBX Classes
 90
0
 91
0
280
0
281
0
  0
CLASS
  1
CELLSTYLEMAP
  2
AcDbCellStyleMap
  3
ObjectDBX Classes
 90
1152
 91
0
280
0
281
0
  0
CLASS
  1
MENTALRAYRENDERSETTINGS
  2
AcDbMentalRayRenderSettings
  3
SCENEOE
 90
1024
 91
0
280
0
281
0
  0
CLASS
  1
ACDBDETAILVIEWSTYLE
  2
AcDbDetailViewStyle
  3
ObjectDBX Classes
 90
1025
 91
0
280
0
281
0
  0
CLASS
  1
ACDBSECTIONVIEWSTYLE
  2
AcDbSectionViewStyle
  3
ObjectDBX Classes
 90
1025
 91
0
280
0
281
0
  0
CLASS
  1
RASTERVARIABLES
  2
AcDbRasterVariables
  3
ISM
 90
0
 91
0
280
0
281
0
  0
CLASS
  1
LAYOUT
  2
AcDbLayout
  3
ObjectDBX Classes
 90
0
 91
0
280
0
281
0
  0
CLASS
  1
ACDBPLACEHOLDER
  2
AcDbPlaceHolder
  3
ObjectDBX Classes
 90
0
 91
0
280
0
281
0
  0
ENDSEC
  0
SECTION
  2
TABLES
  0
TABLE
  2
VPORT
  5
8
330
0
100
AcDbSymbolTable
 70
1
  0
VPORT
  5
23
330
8
100
AcDbSymbolTableRecord
100
AcDbViewportTableRecord
  2
*Active
 70
0
 10
0.0
 20
0.0
 11
1.0
 21
1.0
 12
0.0
 22
0.0
 13
0.0
 23
0.0
 14
0.5
 24
0.5
 15
0.5
 25
0.5
 16
0.0
 26
0.0
 36
1.0
 17
0.0
 27
0.0
 37
0.0
 40
1000.0
 41
1.34
 42
50.0
 43
0.0
 44
0.0
 50
0.0
 51
0.0
 71
0
 72
1000
 73
1
 74
3
 75
0
 76
0
 77
0
 78
0
281
0
 65
0
146
0.0
  0
ENDTAB
  0
TABLE
  2
LTYPE
  5
2
330
0
100
AcDbSymbolTable
 70
3
  0
LTYPE
  5
24
330
2
100
AcDbSymbolTableRecord
100
AcDbLinetypeTableRecord
  2
ByBlock
 70
0
  3

 72
65
 73
0
 40
0.0
  0
LTYPE
  5
25
330
2
100
AcDbSymbolTableRecord
100
AcDbLinetypeTableRecord
  2
ByLayer
 70
0
  3

 72
65
 73
0
 40
0.0
  0
LTYPE
  5
26
330
2
100
AcDbSymbolTableRecord
100
AcDbLinetypeTableRecord
  2
Continuous
 70
0
  3

 72
65
 73
0
 40
0.0
  0
ENDTAB
  0
TABLE
  2
LAYER
  5
1
330
0
100
AcDbSymbolTable
 70
2
  0
LAYER
  5
27
330
1
100
AcDbSymbolTableRecord
100
AcDbLayerTableRecord
  2
0
 70
0
 62
7
  6
Continuous
370
-3
390
13
347
21
  0
LAYER
  5
28
330
1
100
AcDbSymbolTableRecord
100
AcDbLayerTableRecord
  2
Defpoints
 70
0
 62
7
  6
Continuous
290
0
370
-3
390
13
347
21
  0
ENDTAB
  0
TABLE
  2
STYLE
  5
5
330
0
100
AcDbSymbolTable
 70
1
  0
STYLE
  5
29
330
5
100
AcDbSymbolTableRecord
100
AcDbTextStyleTableRecord
  2
Standard
 70
0
 40
0.0
 41
1.0
 50
0.0
 71
0
 42
2.5
  3
txt
  4

  0
ENDTAB
  0
TABLE
  2
VIEW
  5
7
330
0
100
AcDbSymbolTable
 70
0
  0
ENDTAB
  0
TABLE
  2
UCS
  5
6
330
0
100
AcDbSymbolTable
 70
0
  0
ENDTAB
  0
TABLE
  2
APPID
  5
3
330
0
100
AcDbSymbolTable
 70
3
  0
APPID
  5
2A
330
3
100
AcDbSymbolTableRecord
100
AcDbRegAppTableRecord
  2
ACAD
 70
0
  0
APPID
  5
1E9
330
3
100
AcDbSymbolTableRecord
100
AcDbRegAppTableRecord
  2
HATCHBACKGROUNDCOLOR
 70
0
  0
APPID
  5
1EA
330
3
100
AcDbSymbolTableRecord
100
AcDbRegAppTableRecord
  2
EZDXF
 70
0
  0
ENDTAB
  0
TABLE
  2
DIMSTYLE
  5
4
330
0
100
AcDbSymbolTable
 70
1
100
AcDbDimStyleTable
  0
DIMSTYLE
105
2B
330
4
100
AcDbSymbolTableRecord
100
AcDbDimStyleTableRecord
  2
Standard
 70
0
 40
1.0
 41
2.5
 42
0.625
 43
3.75
 44
1.25
 45
0.0
 46
0.0
 47
0.0
 48
0.0
 49
2.5
140
2.5
141
2.5
142
0.0
143
0.03937007874
144
1.0
145
0.0
146
1.0
147
0.625
148
0.0
 69
0
 70
0
 71
0
 72
0
 73
0
 74
0
 75
0
 76
0
 77
1
 78
8
 79
3
170
0
171
3
172
1
173
0
174
0
175
0
176
0
177
0
178
0
179
2
271
2
272
2
273
2
274
3
275
0
276
0
277
2
278
44
279
0
280
0
281
0
282
0
283
0
284
8
285
0
286
0
288
0
289
3
290
0
371
-2
372
-2
  0
ENDTAB
  0
TABLE
  2
BLOCK_RECORD
  5
9
330
0
100
AcDbSymbolTable
 70
3
  0
BLOCK_RECORD
  5
17
330
9
100
AcDbSymbolTableRecord
100
AcDbBlockTableRecord
  2
*Model_Space
340
1A
 70
0
280
1
281
0
  0
BLOCK_RECORD
  5
1B
330
9
100
AcDbSymbolTableRecord
100
AcDbBlockTableRecord
  2
*Paper_Space
340
1E
 70
0
280
1
281
0
  0
BLOCK_RECORD
  5
2F
330
9
100
AcDbSymbolTableRecord
100
AcDbBlockTableRecord
  2
HEX
340
0
 70
0
280
1
281
0
  0
ENDTAB
  0
ENDSEC
  0
SECTION
  2
BLOCKS
  0
BLOCK
  5
18
330
17
100
AcDbEntity
  8
0
100
AcDbBlockBegin
  2
*Model_Space
 70
0
 10
0.0
 20
0.0
 30
0.0
  3
*Model_Space
  1

  0
ENDBLK
  5
19
330
17
100
AcDbEntity
  8
0
100
AcDbBlockEnd
  0
BLOCK
  5
1C
330
1B
100
AcDbEntity
  8
0
100
AcDbBlockBegin
  2
*Paper_Space
 70
0
 10
0.0
 20
0.0
 30
0.0
  3
*Paper_Space
  1

  0
ENDBLK
  5
1D
330
1B
100
AcDbEntity
  8
0
100
AcDbBlockEnd
  0
BLOCK
  5
30
330
2F
100
AcDbEntity
  8
0
100
AcDbBlockBegin
  2
HEX
 70
0
 10
0.0
 20
0.0
 30
0.0
  3
HEX
  1

  0
LWPOLYLINE
  5
32
330
2F
100
AcDbEntity
  8
0
100
AcDbPolyline
 90
6
 70
1
 10
1.516
 20
0.875
 10
0.0
 20
1.75
 10
-1.516
 20
0.875
 10
-1.516
 20
-0.875
 10
-0.0
 20
-1.75
 10
1.516
 20
-0.875
  0
ENDBLK
  5
31
330
2F
100
AcDbEntity
  8
0
100
AcDbBlockEnd
  0
ENDSEC
  0
SECTION
  2
ENTITIES
  0
LWPOLYLINE
  5
33
330
17
100
AcDbEntity
  8
0
100
AcDbPolyline
 90
4
 70
1
 10
56.524
 20
-257.318
 10
56.673
 20
-257.232
 10
56.898
 20
-257.362
 10
56.524
 20
-257.318
  0
LWPOLYLINE
  5
34
330
17
100
AcDbEntity
  8
0
100
AcDbPolyline
 90
4
 70
1
 10
59.452
 20
-257.666
 10
60.204
 20
-257.232
 10
61.347
 20
-257.892
 10
59.452
 20
-257.666
  0
LWPOLYLINE
  5
35
330
17
100
AcDbEntity
  8
0
100
AcDbPolyline
 90
5
 70
1
 10
62.379
 20
-258.015
 10
63.735
 20
-257.232
 10
65.25
 20
-258.107
 10
65.25
 20
-258.357
 10
62.379
 20
-258.015
  0
LWPOLYLINE
  5
36
330
17
100
AcDbEntity
  8
0
100
AcDbPolyline
 90
12
 70
1
 10
68.201
 20
-257.917
 10
67.995
 20
-258.12
 10
67.761
 20
-258.287
 10
67.504
 20
-258.414
 10
67.228
 20
-258.499
 10
66.939
 20
-258.538
 10
66.791
 20
-258.54
 10
65.75
 20
-258.416
 10
65.75
 20
-258.107
 10
67.266
 20
-257.232
 10
68.28
 20
-257.818
 10
68.201
 20
-257.917
  0
LWPOLYLINE
  5
37
330
17
100
AcDbEntity
  8
0
100
AcDbPolyline
 90
5
 70
1
 10
36.033
 20
-254.878
 10
37.252
 20
-254.174
 10
38.767
 20
-255.049
 10
38.767
 20
-255.203
 10
36.033
 20
-254.878
  0
LWPOLYLINE
  5
38
330
17
100
AcDbEntity
  8
0
100
AcDbPolyline
 90
6
 70
1
 10
39.267
 20
-255.263
 10
39.267
 20
-255.049
 10
40.783
 20
-254.174
 10
42.298
 20
-255.049
 10
42.298
 20
-255.624
 10
39.267
 20
-255.263
  0
LWPOLYLINE
  5
39
330
17
100
AcDbEntity
  8
0
100
AcDbPolyline
 90
6
 70
1
 10
42.798
 20
-255.683
 10
42.798
 20
-255.049
 10
44.314
 20
-254.174
 10
45.829
 20
-255.049
 10
45.829
 20
-256.044
 10
42.798
 20
-255.683
  0
LWPOLYLINE
  5
3A
330
17
100
AcDbEntity
  8
0
100
AcDbPolyline
 90
6
 70
1
 10
46.329
 20
-256.104
 10
46.329
 20
-255.049
 10
47.845
 20
-254.174
 10
49.361
 20
-255.049
 10
49.361
 20
-256.465
 10
46.329
 20
-256.104
  0
LWPOLYLINE
  5
3B
330
17
100
AcDbEntity
  8
0
100
AcDbPolyline
 90
7
 70
1
 10
49.861
 20
-256.524
 10
49.861
 20
-255.049
 10
51.376
 20
-254.174
 10
52.892
 20
-255.049
 10
52.892
 20
-256.799
 10
52.768
 20
-256.871
 10
49.861
 20
-256.524
  0
LWPOLYLINE
  5
3C
330
17
100
AcDbEntity
  8
0
100
AcDbPolyline
 90
8
 70
1
 10
53.709
 20
-256.983
 10
53.392
 20
-256.799
 10
53.392
 20
-255.049
 10
54.907
 20
-254.174
 10
56.423
 20
-255.049
 10
56.423
 20
-256.799
 10
55.695
 20
-257.219
 10
53.709
 20
-256.983
  0
LWPOLYLINE
  5
3D
330
17
100
AcDbEntity
  8
0
100
AcDbPolyline
 90
8
 70
1
 10
58.158
 20
-257.512
 10
56.923
 20
-256.799
 10
56.923
 20
-255.049
 10
58.438
 20
-254.174
 10
59.954
 20
-255.049
 10
59.954
 20
-256.799
 10
58.623
 20
-257.568
 10
58.158
 20
-257.512
  0
INSERT
  5
3E
330
17
100
AcDbEntity
  8
0
100
AcDbBlockReference
  2
HEX
 10
61.969
 20
-255.924
 30
0.0
  0
INSERT
  5
40
330
17
100
AcDbEntity
  8
0
100
AcDbBlockReference
  2
HEX
 10
65.5
 20
-255.924
 30
0.0
  0
LWPOLYLINE
  5
42
330
17
100
AcDbEntity
  8
0
100
AcDbPolyline
 90
6
 70
1
 10
68.516
 20
-257.377
 10
67.516
 20
-256.799
 10
67.516
 20
-255.049
 10
69.032
 20
-254.174
 10
69.662
 20
-254.538
 10
68.516
 20
-257.377
  0
INSERT
  5
43
330
17
100
AcDbEntity
  8
0
100
AcDbBlockReference
  2
HEX
 10
35.486
 20
-252.866
 30
0.0
  0
INSERT
  5
45
330
17
100
AcDbEntity
  8
0
100
AcDbBlockReference
  2
HEX
 10
39.017
 20
-252.866
 30
0.0
  0
INSERT
  5
47
330
17
100
AcDbEntity
  8
0
100
AcDbBlockReference
  2
HEX
 10
42.548
 20
-252.866
 30
0.0
  0
INSERT
  5
49
330
17
100
AcDbEntity
  8
0
100
AcDbBlockReference
  2
HEX
 10
46.079
 20
-252.866
 30
0.0
  0
INSERT
  5
4B
330
17
100
AcDbEntity
  8
0
100
AcDbBlockReference
  2
HEX
 10
49.611
 20
-252.866
 30
0.0
  0
INSERT
  5
4D
330
17
100
AcDbEntity
  8
0
100
AcDbBlockReference
  2
HEX
 10
53.142
 20
-252.866
 30
0.0
  0
INSERT
  5
4F
330
17
100
AcDbEntity
  8
0
100
AcDbBlockReference
  2
HEX
 10
56.673
 20
-252.866
 30
0.0
  0
INSERT
  5
51
330
17
100
AcDbEntity
  8
0
100
AcDbBlockReference
  2
HEX
 10
60.204
 20
-252.866
 30
0.0
  0
INSERT
  5
53
330
17
100
AcDbEntity
  8
0
100
AcDbBlockReference
  2
HEX
 10
63.735
 20
-252.866
 30
0.0
  0
INSERT
  5
55
330
17
100
AcDbEntity
  8
0
100
AcDbBlockReference
  2
HEX
 10
67.266
 20
-252.866
 30
0.0
  0
LWPOLYLINE
  5
57
330
17
100
AcDbEntity
  8
0
100
AcDbPolyline
 90
6
 70
1
 10
69.851
 20
-254.07
 10
69.282
 20
-253.741
 10
69.282
 20
-251.991
 10
70.797
 20
-251.116
 10
70.996
 20
-251.231
 10
69.851
 20
-254.07
  0
LWPOLYLINE
  5
58
330
17
100
AcDbEntity
  8
0
100
AcDbPolyline
 90
7
 70
1
 10
33.813
 20
-250.518
 10
34.08
 20
-248.854
 10
34.21
 20
-248.34
 10
35.236
 20
-248.933
 10
35.236
 20
-250.683
 10
33.738
 20
-251.548
 10
33.813
 20
-250.518
  0
INSERT
  5
59
330
17
100
AcDbEntity
  8
0
100
AcDbBlockReference
  2
HEX
 10
37.252
 20
-249.808
 30
0.0
  0
INSERT
  5
5B
330
17
100
AcDbEntity
  8
0
100
AcDbBlockReference
  2
HEX
 10
40.783
 20
-249.808
 30
0.0
  0
INSERT
  5
5D
330
17
100
AcDbEntity
  8
0
100
AcDbBlockReference
  2
HEX
 10
44.314
 20
-249.808
 30
0.0
  0
INSERT
  5
5F
330
17
100
AcDbEntity
  8
0
100
AcDbBlockReference
  2
HEX
 10
47.845
 20
-249.808
 30
0.0
  0
INSERT
  5
61
330
17
100
AcDbEntity
  8
0
100
AcDbBlockReference
  2
HEX
 10
51.376
 20
-249.808
 30
0.0
  0
INSERT
  5
63
330
17
100
AcDbEntity
  8
0
100
AcDbBlockReference
  2
HEX
 10
54.907
 20
-249.808
 30
0.0
  0
INSERT
  5
65
330
17
100
AcDbEntity
  8
0
100
AcDbBlockReference
  2
HEX
 10
58.438
 20
-249.808
 30
0.0
  0
INSERT
  5
67
330
17
100
AcDbEntity
  8
0
100
AcDbBlockReference
  2
HEX
 10
61.969
 20
-249.808
 30
0.0
  0
INSERT
  5
69
330
17
100
AcDbEntity
  8
0
100
AcDbBlockReference
  2
HEX
 10
65.5
 20
-249.808
 30
0.0
  0
INSERT
  5
6B
330
17
100
AcDbEntity
  8
0
100
AcDbBlockReference
  2
HEX
 10
69.032
 20
-249.808
 30
0.0
  0
LWPOLYLINE
  5
6D
330
17
100
AcDbEntity
  8
0
100
AcDbPolyline
 90
5
 70
1
 10
71.185
 20
-250.763
 10
71.047
 20
-250.683
 10
71.047
 20
-248.933
 10
72.19
 20
-248.273
 10
71.185
 20
-250.763
  0
LWPOLYLINE
  5
6E
330
17
100
AcDbEntity
  8
0
100
AcDbPolyline
 90
9
 70
1
 10
34.488
 20
-247.232
 10
35.032
 20
-245.656
 10
35.267
 20
-245.127
 10
35.486
 20
-245.0
 10
37.002
 20
-245.875
 10
37.002
 20
-247.625
 10
35.486
 20
-248.5
 10
34.336
 20
-247.836
 10
34.488
 20
-247.232
  0
INSERT
  5
6F
330
17
100
AcDbEntity
  8
0
100
AcDbBlockReference
  2
HEX
 10
39.017
 20
-246.75
 30
0.0
  0
INSERT
  5
71
330
17
100
AcDbEntity
  8
0
100
AcDbBlockReference
  2
HEX
 10
42.548
 20
-246.75
 30
0.0
  0
INSERT
  5
73
330
17
100
AcDbEntity
  8
0
100
AcDbBlockReference
  2
HEX
 10
46.079
 20
-246.75
 30
0.0
  0
INSERT
  5
75
330
17
100
AcDbEntity
  8
0
100
AcDbBlockReference
  2
HEX
 10
49.611
 20
-246.75
 30
0.0
  0
INSERT
  5
77
330
17
100
AcDbEntity
  8
0
100
AcDbBlockReference
  2
HEX
 10
53.142
 20
-246.75
 30
0.0
  0
INSERT
  5
79
330
17
100
AcDbEntity
  8
0
100
AcDbBlockReference
  2
HEX
 10
56.673
 20
-246.75
 30
0.0
  0
INSERT
  5
7B
330
17
100
AcDbEntity
  8
0
100
AcDbBlockReference
  2
HEX
 10
60.204
 20
-246.75
 30
0.0
  0
INSERT
  5
7D
330
17
100
AcDbEntity
  8
0
100
AcDbBlockReference
  2
HEX
 10
63.735
 20
-246.75
 30
0.0
  0
INSERT
  5
7F
330
17
100
AcDbEntity
  8
0
100
AcDbBlockReference
  2
HEX
 10
67.266
 20
-246.75
 30
0.0
  0
INSERT
  5
81
330
17
100
AcDbEntity
  8
0
100
AcDbBlockReference
  2
HEX
 10
70.797
 20
-246.75
 30
0.0
  0
LWPOLYLINE
  5
83
330
17
100
AcDbEntity
  8
0
100
AcDbPolyline
 90
4
 70
1
 10
72.813
 20
-246.731
 10
72.813
 20
-245.875
 10
73.263
 20
-245.615
 10
72.813
 20
-246.731
  0
LWPOLYLINE
  5
84
330
17
100
AcDbEntity
  8
0
100
AcDbPolyline
 90
9
 70
1
 10
36.517
 20
-242.664
 10
36.864
 20
-242.166
 10
37.252
 20
-241.942
 10
38.767
 20
-242.817
 10
38.767
 20
-244.567
 10
37.252
 20
-245.442
 10
35.736
 20
-244.567
 10
35.736
 20
-244.083
 10
36.517
 20
-242.664
  0
INSERT
  5
85
330
17
100
AcDbEntity
  8
0
100
AcDbBlockReference
  2
HEX
 10
40.783
 20
-243.692
 30
0.0
  0
INSERT
  5
87
330
17
100
AcDbEntity
  8
0
100
AcDbBlockReference
  2
HEX
 10
44.314
 20
-243.692
 30
0.0
  0
INSERT
  5
89
330
17
100
AcDbEntity
  8
0
100
AcDbBlockReference
  2
HEX
 10
47.845
 20
-243.692
 30
0.0
  0
INSERT
  5
8B
330
17
100
AcDbEntity
  8
0
100
AcDbBlockReference
  2
HEX
 10
51.376
 20
-243.692
 30
0.0
  0
INSERT
  5
8D
330
17
100
AcDbEntity
  8
0
100
AcDbBlockReference
  2
HEX
 10
54.907
 20
-243.692
 30
0.0
  0
INSERT
  5
8F
330
17
100
AcDbEntity
  8
0
100
AcDbBlockReference
  2
HEX
 10
58.438
 20
-243.692
 30
0.0
  0
INSERT
  5
91
330
17
100
AcDbEntity
  8
0
100
AcDbBlockReference
  2
HEX
 10
61.969
 20
-243.692
 30
0.0
  0
INSERT
  5
93
330
17
100
AcDbEntity
  8
0
100
AcDbBlockReference
  2
HEX
 10
65.5
 20
-243.692
 30
0.0
  0
INSERT
  5
95
330
17
100
AcDbEntity
  8
0
100
AcDbBlockReference
  2
HEX
 10
69.032
 20
-243.692
 30
0.0
  0
LWPOLYLINE
  5
97
330
17
100
AcDbEntity
  8
0
100
AcDbPolyline
 90
8
 70
1
 10
73.567
 20
-244.862
 10
72.563
 20
-245.442
 10
71.047
 20
-244.567
 10
71.047
 20
-242.817
 10
72.563
 20
-241.942
 10
74.078
 20
-242.817
 10
74.078
 20
-243.596
 10
73.567
 20
-244.862
  0
LWPOLYLINE
  5
98
330
17
100
AcDbEntity
  8
0
100
AcDbPolyline
 90
8
 70
1
 10
37.965
 20
-240.583
 10
39.209
 20
-238.995
 10
40.533
 20
-239.759
 10
40.533
 20
-241.509
 10
39.017
 20
-242.384
 10
37.502
 20
-241.509
 10
37.502
 20
-241.249
 10
37.965
 20
-240.583
  0
INSERT
  5
99
330
17
100
AcDbEntity
  8
0
100
AcDbBlockReference
  2
HEX
 10
42.548
 20
-240.634
 30
0.0
  0
INSERT
  5
9B
330
17
100
AcDbEntity
  8
0
100
AcDbBlockReference
  2
HEX
 10
46.079
 20
-240.634
 30
0.0
  0
INSERT
  5
9D
330
17
100
AcDbEntity
  8
0
100
AcDbBlockReference
  2
HEX
 10
49.611
 20
-240.634
 30
0.0
  0
INSERT
  5
9F
330
17
100
AcDbEntity
  8
0
100
AcDbBlockReference
  2
HEX
 10
53.142
 20
-240.634
 30
0.0
  0
INSERT
  5
A1
330
17
100
AcDbEntity
  8
0
100
AcDbBlockReference
  2
HEX
 10
56.673
 20
-240.634
 30
0.0
  0
INSERT
  5
A3
330
17
100
AcDbEntity
  8
0
100
AcDbBlockReference
  2
HEX
 10
60.204
 20
-240.634
 30
0.0
  0
INSERT
  5
A5
330
17
100
AcDbEntity
  8
0
100
AcDbBlockReference
  2
HEX
 10
63.735
 20
-240.634
 30
0.0
  0
INSERT
  5
A7
330
17
100
AcDbEntity
  8
0
100
AcDbBlockReference
  2
HEX
 10
67.266
 20
-240.634
 30
0.0
  0
INSERT
  5
A9
330
17
100
AcDbEntity
  8
0
100
AcDbBlockReference
  2
HEX
 10
70.797
 20
-240.634
 30
0.0
  0
LWPOLYLINE
  5
AB
330
17
100
AcDbEntity
  8
0
100
AcDbPolyline
 90
7
 70
1
 10
74.64
 20
-242.204
 10
74.328
 20
-242.384
 10
72.813
 20
-241.509
 10
72.813
 20
-239.759
 10
74.328
 20
-238.884
 10
75.668
 20
-239.658
 10
74.64
 20
-242.204
  0
LWPOLYLINE
  5
AC
330
17
100
AcDbEntity
  8
0
100
AcDbPolyline
 90
6
 70
1
 10
41.407
 20
-236.187
 10
42.298
 20
-236.701
 10
42.298
 20
-238.451
 10
40.783
 20
-239.326
 10
39.52
 20
-238.597
 10
41.407
 20
-236.187
  0
INSERT
  5
AD
330
17
100
AcDbEntity
  8
0
100
AcDbBlockReference
  2
HEX
 10
44.314
 20
-237.576
 30
0.0
  0
INSERT
  5
AF
330
17
100
AcDbEntity
  8
0
100
AcDbBlockReference
  2
HEX
 10
47.845
 20
-237.576
 30
0.0
  0
INSERT
  5
B1
330
17
100
AcDbEntity
  8
0
100
AcDbBlockReference
  2
HEX
 10
51.376
 20
-237.576
 30
0.0
  0
INSERT
  5
B3
330
17
100
AcDbEntity
  8
0
100
AcDbBlockReference
  2
HEX
 10
54.907
 20
-237.576
 30
0.0
  0
INSERT
  5
B5
330
17
100
AcDbEntity
  8
0
100
AcDbBlockReference
  2
HEX
 10
58.438
 20
-237.576
 30
0.0
  0
INSERT
  5
B7
330
17
100
AcDbEntity
  8
0
100
AcDbBlockReference
  2
HEX
 10
61.969
 20
-237.576
 30
0.0
  0
INSERT
  5
B9
330
17
100
AcDbEntity
  8
0
100
AcDbBlockReference
  2
HEX
 10
65.5
 20
-237.576
 30
0.0
  0
INSERT
  5
BB
330
17
100
AcDbEntity
  8
0
100
AcDbBlockReference
  2
HEX
 10
69.032
 20
-237.576
 30
0.0
  0
INSERT
  5
BD
330
17
100
AcDbEntity
  8
0
100
AcDbBlockReference
  2
HEX
 10
72.563
 20
-237.576
 30
0.0
  0
LWPOLYLINE
  5
BF
330
17
100
AcDbEntity
  8
0
100
AcDbPolyline
 90
6
 70
1
 10
75.857
 20
-239.189
 10
74.578
 20
-238.451
 10
74.578
 20
-236.701
 10
76.094
 20
-235.826
 10
77.002
 20
-236.351
 10
75.857
 20
-239.189
  0
LWPOLYLINE
  5
C0
330
17
100
AcDbEntity
  8
0
100
AcDbPolyline
 90
7
 70
1
 10
43.518
 20
-233.328
 10
44.064
 20
-233.643
 10
44.064
 20
-235.393
 10
42.548
 20
-236.268
 10
41.718
 20
-235.789
 10
43.038
 20
-234.103
 10
43.518
 20
-233.328
  0
INSERT
  5
C1
330
17
100
AcDbEntity
  8
0
100
AcDbBlockReference
  2
HEX
 10
46.079
 20
-234.518
 30
0.0
  0
INSERT
  5
C3
330
17
100
AcDbEntity
  8
0
100
AcDbBlockReference
  2
HEX
 10
49.611
 20
-234.518
 30
0.0
  0
INSERT
  5
C5
330
17
100
AcDbEntity
  8
0
100
AcDbBlockReference
  2
HEX
 10
53.142
 20
-234.518
 30
0.0
  0
INSERT
  5
C7
330
17
100
AcDbEntity
  8
0
100
AcDbBlockReference
  2
HEX
 10
56.673
 20
-234.518
 30
0.0
  0
INSERT
  5
C9
330
17
100
AcDbEntity
  8
0
100
AcDbBlockReference
  2
HEX
 10
60.204
 20
-234.518
 30
0.0
  0
INSERT
  5
CB
330
17
100
AcDbEntity
  8
0
100
AcDbBlockReference
  2
HEX
 10
63.735
 20
-234.518
 30
0.0
  0
INSERT
  5
CD
330
17
100
AcDbEntity
  8
0
100
AcDbBlockReference
  2
HEX
 10
67.266
 20
-234.518
 30
0.0
  0
INSERT
  5
CF
330
17
100
AcDbEntity
  8
0
100
AcDbBlockReference
  2
HEX
 10
70.797
 20
-234.518
 30
0.0
  0
INSERT
  5
D1
330
17
100
AcDbEntity
  8
0
100
AcDbBlockReference
  2
HEX
 10
74.328
 20
-234.518
 30
0.0
  0
LWPOLYLINE
  5
D3
330
17
100
AcDbEntity
  8
0
100
AcDbPolyline
 90
6
 70
1
 10
77.191
 20
-235.883
 10
76.344
 20
-235.393
 10
76.344
 20
-233.643
 10
77.859
 20
-232.768
 10
78.337
 20
-233.044
 10
77.191
 20
-235.883
  0
LWPOLYLINE
  5
D4
330
17
100
AcDbEntity
  8
0
100
AcDbPolyline
 90
7
 70
1
 10
44.908
 20
-231.084
 10
45.302
 20
-230.281
 10
45.829
 20
-230.585
 10
45.829
 20
-232.335
 10
44.314
 20
-233.21
 10
43.781
 20
-232.903
 10
44.908
 20
-231.084
  0
INSERT
  5
D5
330
17
100
AcDbEntity
  8
0
100
AcDbBlockReference
  2
HEX
 10
47.845
 20
-231.46
 30
0.0
  0
INSERT
  5
D7
330
17
100
AcDbEntity
  8
0
100
AcDbBlockReference
  2
HEX
 10
51.376
 20
-231.46
 30
0.0
  0
INSERT
  5
D9
330
17
100
AcDbEntity
  8
0
100
AcDbBlockReference
  2
HEX
 10
54.907
 20
-231.46
 30
0.0
  0
INSERT
  5
DB
330
17
100
AcDbEntity
  8
0
100
AcDbBlockReference
  2
HEX
 10
58.438
 20
-231.46
 30
0.0
  0
INSERT
  5
DD
330
17
100
AcDbEntity
  8
0
100
AcDbBlockReference
  2
HEX
 10
61.969
 20
-231.46
 30
0.0
  0
INSERT
  5
DF
330
17
100
AcDbEntity
  8
0
100
AcDbBlockReference
  2
HEX
 10
65.5
 20
-231.46
 30
0.0
  0
INSERT
  5
E1
330
17
100
AcDbEntity
  8
0
100
AcDbBlockReference
  2
HEX
 10
69.032
 20
-231.46
 30
0.0
  0
INSERT
  5
E3
330
17
100
AcDbEntity
  8
0
100
AcDbBlockReference
  2
HEX
 10
72.563
 20
-231.46
 30
0.0
  0
INSERT
  5
E5
330
17
100
AcDbEntity
  8
0
100
AcDbBlockReference
  2
HEX
 10
76.094
 20
-231.46
 30
0.0
  0
LWPOLYLINE
  5
E7
330
17
100
AcDbEntity
  8
0
100
AcDbPolyline
 90
6
 70
1
 10
78.526
 20
-232.576
 10
78.109
 20
-232.335
 10
78.109
 20
-230.585
 10
79.625
 20
-229.71
 10
79.672
 20
-229.737
 10
78.526
 20
-232.576
  0
LWPOLYLINE
  5
E8
330
17
100
AcDbEntity
  8
0
100
AcDbPolyline
 90
6
 70
1
 10
46.863
 20
-227.104
 10
47.595
 20
-227.527
 10
47.595
 20
-229.277
 10
46.079
 20
-230.152
 10
45.523
 20
-229.831
 10
46.863
 20
-227.104
  0
INSERT
  5
E9
330
17
100
AcDbEntity
  8
0
100
AcDbBlockReference
  2
HEX
 10
49.611
 20
-228.402
 30
0.0
  0
INSERT
  5
EB
330
17
100
AcDbEntity
  8
0
100
AcDbBlockReference
  2
HEX
 10
53.142
 20
-228.402
 30
0.0
  0
INSERT
  5
ED
330
17
100
AcDbEntity
  8
0
100
AcDbBlockReference
  2
HEX
 10
56.673
 20
-228.402
 30
0.0
  0
INSERT
  5
EF
330
17
100
AcDbEntity
  8
0
100
AcDbBlockReference
  2
HEX
 10
60.204
 20
-228.402
 30
0.0
  0
INSERT
  5
F1
330
17
100
AcDbEntity
  8
0
100
AcDbBlockReference
  2
HEX
 10
63.735
 20
-228.402
 30
0.0
  0
INSERT
  5
F3
330
17
100
AcDbEntity
  8
0
100
AcDbBlockReference
  2
HEX
 10
67.266
 20
-228.402
 30
0.0
  0
INSERT
  5
F5
330
17
100
AcDbEntity
  8
0
100
AcDbBlockReference
  2
HEX
 10
70.797
 20
-228.402
 30
0.0
  0
INSERT
  5
F7
330
17
100
AcDbEntity
  8
0
100
AcDbBlockReference
  2
HEX
 10
74.328
 20
-228.402
 30
0.0
  0
INSERT
  5
F9
330
17
100
AcDbEntity
  8
0
100
AcDbBlockReference
  2
HEX
 10
77.859
 20
-228.402
 30
0.0
  0
LWPOLYLINE
  5
FB
330
17
100
AcDbEntity
  8
0
100
AcDbPolyline
 90
4
 70
1
 10
79.875
 20
-229.234
 10
79.875
 20
-227.527
 10
80.773
 20
-227.009
 10
79.875
 20
-229.234
  0
LWPOLYLINE
  5
FC
330
17
100
AcDbEntity
  8
0
100
AcDbPolyline
 90
7
 70
1
 10
47.498
 20
-225.812
 10
48.227
 20
-223.815
 10
49.361
 20
-224.469
 10
49.361
 20
-226.219
 10
47.845
 20
-227.094
 10
47.084
 20
-226.655
 10
47.498
 20
-225.812
  0
INSERT
  5
FD
330
17
100
AcDbEntity
  8
0
100
AcDbBlockReference
  2
HEX
 10
51.376
 20
-225.344
 30
0.0
  0
INSERT
  5
FF
330
17
100
AcDbEntity
  8
0
100
AcDbBlockReference
  2
HEX
 10
54.907
 20
-225.344
 30
0.0
  0
INSERT
  5
101
330
17
100
AcDbEntity
  8
0
100
AcDbBlockReference
  2
HEX
 10
58.438
 20
-225.344
 30
0.0
  0
INSERT
  5
103
330
17
100
AcDbEntity
  8
0
100
AcDbBlockReference
  2
HEX
 10
61.969
 20
-225.344
 30
0.0
  0
INSERT
  5
105
330
17
100
AcDbEntity
  8
0
100
AcDbBlockReference
  2
HEX
 10
65.5
 20
-225.344
 30
0.0
  0
INSERT
  5
107
330
17
100
AcDbEntity
  8
0
100
AcDbBlockReference
  2
HEX
 10
69.032
 20
-225.344
 30
0.0
  0
INSERT
  5
109
330
17
100
AcDbEntity
  8
0
100
AcDbBlockReference
  2
HEX
 10
72.563
 20
-225.344
 30
0.0
  0
INSERT
  5
10B
330
17
100
AcDbEntity
  8
0
100
AcDbBlockReference
  2
HEX
 10
76.094
 20
-225.344
 30
0.0
  0
LWPOLYLINE
  5
10D
330
17
100
AcDbEntity
  8
0
100
AcDbPolyline
 90
8
 70
1
 10
81.077
 20
-226.256
 10
79.625
 20
-227.094
 10
78.109
 20
-226.219
 10
78.109
 20
-224.469
 10
79.625
 20
-223.594
 10
81.14
 20
-224.469
 10
81.14
 20
-226.098
 10
81.077
 20
-226.256
  0
LWPOLYLINE
  5
10E
330
17
100
AcDbEntity
  8
0
100
AcDbPolyline
 90
4
 70
1
 10
81.64
 20
-224.86
 10
81.64
 20
-224.469
 10
81.846
 20
-224.35
 10
81.64
 20
-224.86
  0
LWPOLYLINE
  5
10F
330
17
100
AcDbEntity
  8
0
100
AcDbPolyline
 90
8
 70
1
 10
49.114
 20
-221.387
 10
49.269
 20
-220.733
 10
49.611
 20
-220.536
 10
51.126
 20
-221.411
 10
51.126
 20
-223.161
 10
49.611
 20
-224.036
 10
48.402
 20
-223.338
 10
49.114
 20
-221.387
  0
INSERT
  5
110
330
17
100
AcDbEntity
  8
0
100
AcDbBlockReference
  2
HEX
 10
53.142
 20
-222.286
 30
0.0
  0
INSERT
  5
112
330
17
100
AcDbEntity
  8
0
100
AcDbBlockReference
  2
HEX
 10
56.673
 20
-222.286
 30
0.0
  0
INSERT
  5
114
330
17
100
AcDbEntity
  8
0
100
AcDbBlockReference
  2
HEX
 10
60.204
 20
-222.286
 30
0.0
  0
INSERT
  5
116
330
17
100
AcDbEntity
  8
0
100
AcDbBlockReference
  2
HEX
 10
63.735
 20
-222.286
 30
0.0
  0
INSERT
  5
118
330
17
100
AcDbEntity
  8
0
100
AcDbBlockReference
  2
HEX
 10
67.266
 20
-222.286
 30
0.0
  0
INSERT
  5
11A
330
17
100
AcDbEntity
  8
0
100
AcDbBlockReference
  2
HEX
 10
70.797
 20
-222.286
 30
0.0
  0
INSERT
  5
11C
330
17
100
AcDbEntity
  8
0
100
AcDbBlockReference
  2
HEX
 10
74.328
 20
-222.286
 30
0.0
  0
INSERT
  5
11E
330
17
100
AcDbEntity
  8
0
100
AcDbBlockReference
  2
HEX
 10
77.859
 20
-222.286
 30
0.0
  0
LWPOLYLINE
  5
120
330
17
100
AcDbEntity
  8
0
100
AcDbPolyline
 90
8
 70
1
 10
82.15
 20
-223.598
 10
81.39
 20
-224.036
 10
79.875
 20
-223.161
 10
79.875
 20
-221.411
 10
81.39
 20
-220.536
 10
82.906
 20
-221.411
 10
82.906
 20
-221.724
 10
82.15
 20
-223.598
  0
INSERT
  5
121
330
17
100
AcDbEntity
  8
0
100
AcDbBlockReference
  2
HEX
 10
51.376
 20
-219.228
 30
0.0
  0
INSERT
  5
123
330
17
100
AcDbEntity
  8
0
100
AcDbBlockReference
  2
HEX
 10
54.907
 20
-219.228
 30
0.0
  0
INSERT
  5
125
330
17
100
AcDbEntity
  8
0
100
AcDbBlockReference
  2
HEX
 10
58.438
 20
-219.228
 30
0.0
  0
INSERT
  5
127
330
17
100
AcDbEntity
  8
0
100
AcDbBlockReference
  2
HEX
 10
61.969
 20
-219.228
 30
0.0
  0
INSERT
  5
129
330
17
100
AcDbEntity
  8
0
100
AcDbBlockReference
  2
HEX
 10
65.5
 20
-219.228
 30
0.0
  0
INSERT
  5
12B
330
17
100
AcDbEntity
  8
0
100
AcDbBlockReference
  2
HEX
 10
69.032
 20
-219.228
 30
0.0
  0
INSERT
  5
12D
330
17
100
AcDbEntity
  8
0
100
AcDbBlockReference
  2
HEX
 10
72.563
 20
-219.228
 30
0.0
  0
INSERT
  5
12F
330
17
100
AcDbEntity
  8
0
100
AcDbBlockReference
  2
HEX
 10
76.094
 20
-219.228
 30
0.0
  0
INSERT
  5
131
330
17
100
AcDbEntity
  8
0
100
AcDbBlockReference
  2
HEX
 10
79.625
 20
-219.228
 30
0.0
  0
LWPOLYLINE
  5
133
330
17
100
AcDbEntity
  8
0
100
AcDbPolyline
 90
7
 70
1
 10
83.223
 20
-220.94
 10
83.156
 20
-220.978
 10
81.64
 20
-220.103
 10
81.64
 20
-218.353
 10
83.156
 20
-217.478
 10
84.343
 20
-218.163
 10
83.223
 20
-220.94
  0
LWPOLYLINE
  5
134
330
17
100
AcDbEntity
  8
0
100
AcDbPolyline
 90
6
 70
1
 10
50.027
 20
-216.325
 10
50.055
 20
-214.677
 10
51.126
 20
-215.295
 10
51.126
 20
-217.045
 10
49.829
 20
-217.794
 10
50.027
 20
-216.325
  0
INSERT
  5
135
330
17
100
AcDbEntity
  8
0
100
AcDbBlockReference
  2
HEX
 10
53.142
 20
-216.17
 30
0.0
  0
INSERT
  5
137
330
17
100
AcDbEntity
  8
0
100
AcDbBlockReference
  2
HEX
 10
56.673
 20
-216.17
 30
0.0
  0
INSERT
  5
139
330
17
100
AcDbEntity
  8
0
100
AcDbBlockReference
  2
HEX
 10
60.204
 20
-216.17
 30
0.0
  0
INSERT
  5
13B
330
17
100
AcDbEntity
  8
0
100
AcDbBlockReference
  2
HEX
 10
63.735
 20
-216.17
 30
0.0
  0
INSERT
  5
13D
330
17
100
AcDbEntity
  8
0
100
AcDbBlockReference
  2
HEX
 10
67.266
 20
-216.17
 30
0.0
  0
INSERT
  5
13F
330
17
100
AcDbEntity
  8
0
100
AcDbBlockReference
  2
HEX
 10
70.797
 20
-216.17
 30
0.0
  0
INSERT
  5
141
330
17
100
AcDbEntity
  8
0
100
AcDbBlockReference
  2
HEX
 10
74.328
 20
-216.17
 30
0.0
  0
INSERT
  5
143
330
17
100
AcDbEntity
  8
0
100
AcDbBlockReference
  2
HEX
 10
77.859
 20
-216.17
 30
0.0
  0
INSERT
  5
145
330
17
100
AcDbEntity
  8
0
100
AcDbBlockReference
  2
HEX
 10
81.39
 20
-216.17
 30
0.0
  0
LWPOLYLINE
  5
147
330
17
100
AcDbEntity
  8
0
100
AcDbPolyline
 90
6
 70
1
 10
85.681
 20
-214.859
 10
84.532
 20
-217.695
 10
83.406
 20
-217.045
 10
83.406
 20
-215.295
 10
84.921
 20
-214.42
 10
85.681
 20
-214.859
  0
LWPOLYLINE
  5
148
330
17
100
AcDbEntity
  8
0
100
AcDbPolyline
 90
8
 70
1
 10
50.071
 20
-213.764
 10
49.903
 20
-212.213
 10
51.376
 20
-211.362
 10
52.892
 20
-212.237
 10
52.892
 20
-213.987
 10
51.376
 20
-214.862
 10
50.065
 20
-214.105
 10
50.071
 20
-213.764
  0
INSERT
  5
149
330
17
100
AcDbEntity
  8
0
100
AcDbBlockReference
  2
HEX
 10
54.907
 20
-213.112
 30
0.0
  0
INSERT
  5
14B
330
17
100
AcDbEntity
  8
0
100
AcDbBlockReference
  2
HEX
 10
58.438
 20
-213.112
 30
0.0
  0
INSERT
  5
14D
330
17
100
AcDbEntity
  8
0
100
AcDbBlockReference
  2
HEX
 10
61.969
 20
-213.112
 30
0.0
  0
INSERT
  5
14F
330
17
100
AcDbEntity
  8
0
100
AcDbBlockReference
  2
HEX
 10
65.5
 20
-213.112
 30
0.0
  0
INSERT
  5
151
330
17
100
AcDbEntity
  8
0
100
AcDbBlockReference
  2
HEX
 10
69.032
 20
-213.112
 30
0.0
  0
INSERT
  5
153
330
17
100
AcDbEntity
  8
0
100
AcDbBlockReference
  2
HEX
 10
72.563
 20
-213.112
 30
0.0
  0
INSERT
  5
155
330
17
100
AcDbEntity
  8
0
100
AcDbBlockReference
  2
HEX
 10
76.094
 20
-213.112
 30
0.0
  0
INSERT
  5
157
330
17
100
AcDbEntity
  8
0
100
AcDbBlockReference
  2
HEX
 10
79.625
 20
-213.112
 30
0.0
  0
INSERT
  5
159
330
17
100
AcDbEntity
  8
0
100
AcDbBlockReference
  2
HEX
 10
83.156
 20
-213.112
 30
0.0
  0
LWPOLYLINE
  5
15B
330
17
100
AcDbEntity
  8
0
100
AcDbPolyline
 90
8
 70
1
 10
86.905
 20
-212.824
 10
86.232
 20
-213.822
 10
85.916
 20
-214.417
 10
85.171
 20
-213.987
 10
85.171
 20
-212.237
 10
86.687
 20
-211.362
 10
87.659
 20
-211.923
 10
86.905
 20
-212.824
  0
LWPOLYLINE
  5
15C
330
17
100
AcDbEntity
  8
0
100
AcDbPolyline
 90
8
 70
1
 10
49.817
 20
-211.421
 10
49.299
 20
-209.287
 10
49.045
 20
-208.631
 10
49.611
 20
-208.304
 10
51.126
 20
-209.179
 10
51.126
 20
-210.929
 10
49.844
 20
-211.669
 10
49.817
 20
-211.421
  0
INSERT
  5
15D
330
17
100
AcDbEntity
  8
0
100
AcDbBlockReference
  2
HEX
 10
53.142
 20
-210.054
 30
0.0
  0
INSERT
  5
15F
330
17
100
AcDbEntity
  8
0
100
AcDbBlockReference
  2
HEX
 10
56.673
 20
-210.054
 30
0.0
  0
INSERT
  5
161
330
17
100
AcDbEntity
  8
0
100
AcDbBlockReference
  2
HEX
 10
60.204
 20
-210.054
 30
0.0
  0
INSERT
  5
163
330
17
100
AcDbEntity
  8
0
100
AcDbBlockReference
  2
HEX
 10
63.735
 20
-210.054
 30
0.0
  0
INSERT
  5
165
330
17
100
AcDbEntity
  8
0
100
AcDbBlockReference
  2
HEX
 10
67.266
 20
-210.054
 30
0.0
  0
INSERT
  5
167
330
17
100
AcDbEntity
  8
0
100
AcDbBlockReference
  2
HEX
 10
70.797
 20
-210.054
 30
0.0
  0
INSERT
  5
169
330
17
100
AcDbEntity
  8
0
100
AcDbBlockReference
  2
HEX
 10
74.328
 20
-210.054
 30
0.0
  0
INSERT
  5
16B
330
17
100
AcDbEntity
  8
0
100
AcDbBlockReference
  2
HEX
 10
77.859
 20
-210.054
 30
0.0
  0
INSERT
  5
16D
330
17
100
AcDbEntity
  8
0
100
AcDbBlockReference
  2
HEX
 10
81.39
 20
-210.054
 30
0.0
  0
INSERT
  5
16F
330
17
100
AcDbEntity
  8
0
100
AcDbBlockReference
  2
HEX
 10
84.921
 20
-210.054
 30
0.0
  0
LWPOLYLINE
  5
171
330
17
100
AcDbEntity
  8
0
100
AcDbPolyline
 90
9
 70
1
 10
89.477
 20
-210.331
 10
88.535
 20
-211.071
 10
88.03
 20
-211.56
 10
86.937
 20
-210.929
 10
86.937
 20
-209.179
 10
88.453
 20
-208.304
 10
89.968
 20
-209.179
 10
89.968
 20
-210.022
 10
89.477
 20
-210.331
  0
LWPOLYLINE
  5
172
330
17
100
AcDbEntity
  8
0
100
AcDbPolyline
 90
6
 70
1
 10
91.583
 20
-209.154
 10
90.468
 20
-209.707
 10
90.468
 20
-209.179
 10
91.984
 20
-208.304
 10
92.786
 20
-208.767
 10
91.583
 20
-209.154
  0
LWPOLYLINE
  5
173
330
17
100
AcDbEntity
  8
0
100
AcDbPolyline
 90
8
 70
1
 10
48.55
 20
-207.352
 10
47.606
 20
-205.609
 10
47.493
 20
-205.449
 10
47.845
 20
-205.246
 10
49.361
 20
-206.121
 10
49.361
 20
-207.871
 10
48.862
 20
-208.159
 10
48.55
 20
-207.352
  0
INSERT
  5
174
330
17
100
AcDbEntity
  8
0
100
AcDbBlockReference
  2
HEX
 10
51.376
 20
-206.996
 30
0.0
  0
INSERT
  5
176
330
17
100
AcDbEntity
  8
0
100
AcDbBlockReference
  2
HEX
 10
54.907
 20
-206.996
 30
0.0
  0
INSERT
  5
178
330
17
100
AcDbEntity
  8
0
100
AcDbBlockReference
  2
HEX
 10
58.438
 20
-206.996
 30
0.0
  0
INSERT
  5
17A
330
17
100
AcDbEntity
  8
0
100
AcDbBlockReference
  2
HEX
 10
61.969
 20
-206.996
 30
0.0
  0
INSERT
  5
17C
330
17
100
AcDbEntity
  8
0
100
AcDbBlockReference
  2
HEX
 10
65.5
 20
-206.996
 30
0.0
  0
INSERT
  5
17E
330
17
100
AcDbEntity
  8
0
100
AcDbBlockReference
  2
HEX
 10
69.032
 20
-206.996
 30
0.0
  0
INSERT
  5
180
330
17
100
AcDbEntity
  8
0
100
AcDbBlockReference
  2
HEX
 10
72.563
 20
-206.996
 30
0.0
  0
INSERT
  5
182
330
17
100
AcDbEntity
  8
0
100
AcDbBlockReference
  2
HEX
 10
76.094
 20
-206.996
 30
0.0
  0
INSERT
  5
184
330
17
100
AcDbEntity
  8
0
100
AcDbBlockReference
  2
HEX
 10
79.625
 20
-206.996
 30
0.0
  0
INSERT
  5
186
330
17
100
AcDbEntity
  8
0
100
AcDbBlockReference
  2
HEX
 10
83.156
 20
-206.996
 30
0.0
  0
INSERT
  5
188
330
17
100
AcDbEntity
  8
0
100
AcDbBlockReference
  2
HEX
 10
86.687
 20
-206.996
 30
0.0
  0
INSERT
  5
18A
330
17
100
AcDbEntity
  8
0
100
AcDbBlockReference
  2
HEX
 10
90.218
 20
-206.996
 30
0.0
  0
LWPOLYLINE
  5
18C
330
17
100
AcDbEntity
  8
0
100
AcDbPolyline
 90
8
 70
1
 10
93.428
 20
-208.561
 10
92.234
 20
-207.871
 10
92.234
 20
-206.121
 10
93.749
 20
-205.246
 10
95.265
 20
-206.121
 10
95.265
 20
-207.871
 10
94.876
 20
-208.095
 10
93.428
 20
-208.561
  0
LWPOLYLINE
  5
18D
330
17
100
AcDbEntity
  8
0
100
AcDbPolyline
 90
6
 70
1
 10
98.796
 20
-207.15
 10
95.765
 20
-207.81
 10
95.765
 20
-206.121
 10
97.28
 20
-205.246
 10
98.796
 20
-206.121
 10
98.796
 20
-207.15
  0
LWPOLYLINE
  5
18E
330
17
100
AcDbEntity
  8
0
100
AcDbPolyline
 90
7
 70
1
 10
99.503
 20
-206.997
 10
99.296
 20
-207.042
 10
99.296
 20
-206.121
 10
100.811
 20
-205.246
 10
102.327
 20
-206.121
 10
102.327
 20
-206.683
 10
99.503
 20
-206.997
  0
LWPOLYLINE
  5
18F
330
17
100
AcDbEntity
  8
0
100
AcDbPolyline
 90
6
 70
1
 10
102.827
 20
-206.628
 10
102.827
 20
-206.121
 10
104.342
 20
-205.246
 10
105.858
 20
-206.121
 10
105.858
 20
-206.292
 10
102.827
 20
-206.628
  0
LWPOLYLINE
  5
190
330
17
100
AcDbEntity
  8
0
100
AcDbPolyline
 90
8
 70
1
 10
108.67
 20
-205.843
 10
108.414
 20
-205.96
 10
108.142
 20
-206.038
 10
106.358
 20
-206.236
 10
106.358
 20
-206.121
 10
107.874
 20
-205.246
 10
108.786
 20
-205.773
 10
108.67
 20
-205.843
  0
LWPOLYLINE
  5
191
330
17
100
AcDbEntity
  8
0
100
AcDbPolyline
 90
7
 70
1
 10
46.5
 20
-204.048
 10
45.264
 20
-202.659
 10
46.079
 20
-202.188
 10
47.595
 20
-203.063
 10
47.595
 20
-204.813
 10
47.202
 20
-205.04
 10
46.5
 20
-204.048
  0
INSERT
  5
192
330
17
100
AcDbEntity
  8
0
100
AcDbBlockReference
  2
HEX
 10
49.611
 20
-203.938
 30
0.0
  0
LWPOLYLINE
  5
194
330
17
100
AcDbEntity
  8
0
100
AcDbPolyline
 90
15
 70
1
 10
53.257
 20
-202.255
 10
53.324
 20
-202.504
 10
53.47
 20
-202.814
 10
53.565
 20
-202.956
 10
53.791
 20
-203.209
 10
54.061
 20
-203.414
 10
54.211
 20
-203.497
 10
54.369
 20
-203.565
 10
54.657
 20
-203.643
 10
54.657
 20
-204.813
 10
53.142
 20
-205.688
 10
51.626
 20
-204.813
 10
51.626
 20
-203.063
 10
53.142
 20
-202.188
 10
53.257
 20
-202.255
  0
LWPOLYLINE
  5
195
330
17
100
AcDbEntity
  8
0
100
AcDbPolyline
 90
6
 70
1
 10
58.188
 20
-203.673
 10
58.188
 20
-204.813
 10
56.673
 20
-205.688
 10
55.157
 20
-204.813
 10
55.157
 20
-203.673
 10
58.188
 20
-203.673
  0
LWPOLYLINE
  5
196
330
17
100
AcDbEntity
  8
0
100
AcDbPolyline
 90
6
 70
1
 10
61.719
 20
-203.673
 10
61.719
 20
-204.813
 10
60.204
 20
-205.688
 10
58.688
 20
-204.813
 10
58.688
 20
-203.673
 10
61.719
 20
-203.673
  0
LWPOLYLINE
  5
197
330
17
100
AcDbEntity
  8
0
100
AcDbPolyline
 90
6
 70
1
 10
65.25
 20
-203.673
 10
65.25
 20
-204.813
 10
63.735
 20
-205.688
 10
62.219
 20
-204.813
 10
62.219
 20
-203.673
 10
65.25
 20
-203.673
  0
LWPOLYLINE
  5
198
330
17
100
AcDbEntity
  8
0
100
AcDbPolyline
 90
6
 70
1
 10
68.782
 20
-203.673
 10
68.782
 20
-204.813
 10
67.266
 20
-205.688
 10
65.75
 20
-204.813
 10
65.75
 20
-203.673
 10
68.782
 20
-203.673
  0
LWPOLYLINE
  5
199
330
17
100
AcDbEntity
  8
0
100
AcDbPolyline
 90
6
 70
1
 10
72.313
 20
-203.673
 10
72.313
 20
-204.813
 10
70.797
 20
-205.688
 10
69.282
 20
-204.813
 10
69.282
 20
-203.673
 10
72.313
 20
-203.673
  0
LWPOLYLINE
  5
19A
330
17
100
AcDbEntity
  8
0
100
AcDbPolyline
 90
6
 70
1
 10
75.844
 20
-203.673
 10
75.844
 20
-204.813
 10
74.328
 20
-205.688
 10
72.813
 20
-204.813
 10
72.813
 20
-203.673
 10
75.844
 20
-203.673
  0
LWPOLYLINE
  5
19B
330
17
100
AcDbEntity
  8
0
100
AcDbPolyline
 90
6
 70
1
 10
79.375
 20
-203.673
 10
79.375
 20
-204.813
 10
77.859
 20
-205.688
 10
76.344
 20
-204.813
 10
76.344
 20
-203.673
 10
79.375
 20
-203.673
  0
LWPOLYLINE
  5
19C
330
17
100
AcDbEntity
  8
0
100
AcDbPolyline
 90
6
 70
1
 10
82.906
 20
-203.673
 10
82.906
 20
-204.813
 10
81.39
 20
-205.688
 10
79.875
 20
-204.813
 10
79.875
 20
-203.673
 10
82.906
 20
-203.673
  0
LWPOLYLINE
  5
19D
330
17
100
AcDbEntity
  8
0
100
AcDbPolyline
 90
9
 70
1
 10
85.661
 20
-203.673
 10
85.989
 20
-203.623
 10
86.293
 20
-203.512
 10
86.437
 20
-203.433
 10
86.437
 20
-204.813
 10
84.921
 20
-205.688
 10
83.406
 20
-204.813
 10
83.406
 20
-203.673
 10
85.661
 20
-203.673
  0
INSERT
  5
19E
330
17
100
AcDbEntity
  8
0
100
AcDbBlockReference
  2
HEX
 10
88.453
 20
-203.938
 30
0.0
  0
INSERT
  5
1A0
330
17
100
AcDbEntity
  8
0
100
AcDbBlockReference
  2
HEX
 10
91.984
 20
-203.938
 30
0.0
  0
INSERT
  5
1A2
330
17
100
AcDbEntity
  8
0
100
AcDbBlockReference
  2
HEX
 10
95.515
 20
-203.938
 30
0.0
  0
INSERT
  5
1A4
330
17
100
AcDbEntity
  8
0
100
AcDbBlockReference
  2
HEX
 10
99.046
 20
-203.938
 30
0.0
  0
INSERT
  5
1A6
330
17
100
AcDbEntity
  8
0
100
AcDbBlockReference
  2
HEX
 10
102.577
 20
-203.938
 30
0.0
  0
INSERT
  5
1A8
330
17
100
AcDbEntity
  8
0
100
AcDbBlockReference
  2
HEX
 10
106.108
 20
-203.938
 30
0.0
  0
LWPOLYLINE
  5
1AA
330
17
100
AcDbEntity
  8
0
100
AcDbPolyline
 90
8
 70
1
 10
109.497
 20
-204.916
 10
109.369
 20
-205.171
 10
109.184
 20
-205.425
 10
108.124
 20
-204.813
 10
108.124
 20
-203.063
 10
109.639
 20
-202.188
 10
110.259
 20
-202.546
 10
109.497
 20
-204.916
  0
LWPOLYLINE
  5
1AB
330
17
100
AcDbEntity
  8
0
100
AcDbPolyline
 90
7
 70
1
 10
122.248
 20
-204.444
 10
122.248
 20
-203.638
 10
122.496
 20
-202.92
 10
123.763
 20
-202.188
 10
125.279
 20
-203.063
 10
125.279
 20
-204.437
 10
122.248
 20
-204.444
  0
LWPOLYLINE
  5
1AC
330
17
100
AcDbEntity
  8
0
100
AcDbPolyline
 90
6
 70
1
 10
125.779
 20
-204.436
 10
125.779
 20
-203.063
 10
127.294
 20
-202.188
 10
128.81
 20
-203.063
 10
128.81
 20
-204.428
 10
125.779
 20
-204.436
  0
LWPOLYLINE
  5
1AD
330
17
100
AcDbEntity
  8
0
100
AcDbPolyline
 90
8
 70
1
 10
132.024
 20
-204.351
 10
131.498
 20
-204.421
 10
129.31
 20
-204.427
 10
129.31
 20
-203.063
 10
130.826
 20
-202.188
 10
132.341
 20
-203.063
 10
132.341
 20
-204.279
 10
132.024
 20
-204.351
  0
LWPOLYLINE
  5
1AE
330
17
100
AcDbEntity
  8
0
100
AcDbPolyline
 90
10
 70
1
 10
135.206
 20
-202.679
 10
134.799
 20
-203.054
 10
134.393
 20
-203.365
 10
133.961
 20
-203.64
 10
133.506
 20
-203.878
 10
133.03
 20
-204.077
 10
132.841
 20
-204.138
 10
132.841
 20
-203.063
 10
134.357
 20
-202.188
 10
135.206
 20
-202.679
  0
LWPOLYLINE
  5
1AF
330
17
100
AcDbEntity
  8
0
100
AcDbPolyline
 90
5
 70
1
 10
40.646
 20
-199.209
 10
40.783
 20
-199.13
 10
42.298
 20
-200.005
 10
42.298
 20
-200.213
 10
40.646
 20
-199.209
  0
LWPOLYLINE
  5
1B0
330
17
100
AcDbEntity
  8
0
100
AcDbPolyline
 90
8
 70
1
 10
43.936
 20
-201.434
 10
42.798
 20
-200.557
 10
42.798
 20
-200.005
 10
44.314
 20
-199.13
 10
45.829
 20
-200.005
 10
45.829
 20
-201.755
 10
44.879
 20
-202.304
 10
43.936
 20
-201.434
  0
INSERT
  5
1B1
330
17
100
AcDbEntity
  8
0
100
AcDbBlockReference
  2
HEX
 10
47.845
 20
-200.88
 30
0.0
  0
INSERT
  5
1B3
330
17
100
AcDbEntity
  8
0
100
AcDbBlockReference
  2
HEX
 10
51.376
 20
-200.88
 30
0.0
  0
LWPOLYLINE
  5
1B5
330
17
100
AcDbEntity
  8
0
100
AcDbPolyline
 90
7
 70
1
 10
87.198
 20
-202.335
 10
87.228
 20
-202.106
 10
87.236
 20
-199.868
 10
87.276
 20
-199.47
 10
88.203
 20
-200.005
 10
88.203
 20
-201.755
 10
87.198
 20
-202.335
  0
INSERT
  5
1B6
330
17
100
AcDbEntity
  8
0
100
AcDbBlockReference
  2
HEX
 10
90.218
 20
-200.88
 30
0.0
  0
INSERT
  5
1B8
330
17
100
AcDbEntity
  8
0
100
AcDbBlockReference
  2
HEX
 10
93.749
 20
-200.88
 30
0.0
  0
INSERT
  5
1BA
330
17
100
AcDbEntity
  8
0
100
AcDbBlockReference
  2
HEX
 10
97.28
 20
-200.88
 30
0.0
  0
INSERT
  5
1BC
330
17
100
AcDbEntity
  8
0
100
AcDbBlockReference
  2
HEX
 10
100.811
 20
-200.88
 30
0.0
  0
INSERT
  5
1BE
330
17
100
AcDbEntity
  8
0
100
AcDbBlockReference
  2
HEX
 10
104.342
 20
-200.88
 30
0.0
  0
INSERT
  5
1C0
330
17
100
AcDbEntity
  8
0
100
AcDbBlockReference
  2
HEX
 10
107.874
 20
-200.88
 30
0.0
  0
LWPOLYLINE
  5
1C2
330
17
100
AcDbEntity
  8
0
100
AcDbPolyline
 90
5
 70
1
 10
110.416
 20
-202.059
 10
109.889
 20
-201.755
 10
109.889
 20
-200.005
 10
111.349
 20
-199.162
 10
110.416
 20
-202.059
  0
LWPOLYLINE
  5
1C3
330
17
100
AcDbEntity
  8
0
100
AcDbPolyline
 90
5
 70
1
 10
123.503
 20
-199.999
 10
123.513
 20
-200.005
 10
123.513
 20
-201.755
 10
122.744
 20
-202.199
 10
123.503
 20
-199.999
  0
INSERT
  5
1C4
330
17
100
AcDbEntity
  8
0
100
AcDbBlockReference
  2
HEX
 10
125.529
 20
-200.88
 30
0.0
  0
INSERT
  5
1C6
330
17
100
AcDbEntity
  8
0
100
AcDbBlockReference
  2
HEX
 10
129.06
 20
-200.88
 30
0.0
  0
INSERT
  5
1C8
330
17
100
AcDbEntity
  8
0
100
AcDbBlockReference
  2
HEX
 10
132.591
 20
-200.88
 30
0.0
  0
LWPOLYLINE
  5
1CA
330
17
100
AcDbEntity
  8
0
100
AcDbPolyline
 90
11
 70
1
 10
136.722
 20
-200.051
 10
136.562
 20
-200.556
 10
136.36
 20
-201.038
 10
136.118
 20
-201.497
 10
135.839
 20
-201.93
 10
135.551
 20
-202.3
 10
134.607
 20
-201.755
 10
134.607
 20
-200.005
 10
136.122
 20
-199.13
 10
136.842
 20
-199.546
 10
136.722
 20
-200.051
  0
LWPOLYLINE
  5
1CB
330
17
100
AcDbEntity
  8
0
100
AcDbPolyline
 90
8
 70
1
 10
34.825
 20
-196.67
 10
34.741
 20
-196.616
 10
34.685
 20
-196.534
 10
35.324
 20
-196.166
 10
35.649
 20
-196.166
 10
37.002
 20
-196.947
 10
37.002
 20
-197.423
 10
34.825
 20
-196.67
  0
LWPOLYLINE
  5
1CC
330
17
100
AcDbEntity
  8
0
100
AcDbPolyline
 90
9
 70
1
 10
39.725
 20
-198.65
 10
37.502
 20
-197.643
 10
37.502
 20
-196.947
 10
38.852
 20
-196.167
 10
39.183
 20
-196.168
 10
40.533
 20
-196.947
 10
40.533
 20
-198.697
 10
40.158
 20
-198.913
 10
39.725
 20
-198.65
  0
LWPOLYLINE
  5
1CD
330
17
100
AcDbEntity
  8
0
100
AcDbPolyline
 90
8
 70
1
 10
42.717
 20
-196.169
 10
44.064
 20
-196.947
 10
44.064
 20
-198.697
 10
42.548
 20
-199.572
 10
41.033
 20
-198.697
 10
41.033
 20
-196.947
 10
42.38
 20
-196.169
 10
42.717
 20
-196.169
  0
LWPOLYLINE
  5
1CE
330
17
100
AcDbEntity
  8
0
100
AcDbPolyline
 90
8
 70
1
 10
46.251
 20
-196.171
 10
47.595
 20
-196.947
 10
47.595
 20
-198.697
 10
46.079
 20
-199.572
 10
44.564
 20
-198.697
 10
44.564
 20
-196.947
 10
45.908
 20
-196.171
 10
46.251
 20
-196.171
  0
LWPOLYLINE
  5
1CF
330
17
100
AcDbEntity
  8
0
100
AcDbPolyline
 90
8
 70
1
 10
49.436
 20
-196.173
 10
49.825
 20
-196.196
 10
51.126
 20
-196.947
 10
51.126
 20
-198.697
 10
49.611
 20
-199.572
 10
48.095
 20
-198.697
 10
48.095
 20
-196.947
 10
49.436
 20
-196.173
  0
LWPOLYLINE
  5
1D0
330
17
100
AcDbEntity
  8
0
100
AcDbPolyline
 90
14
 70
1
 10
51.967
 20
-197.01
 10
52.252
 20
-197.237
 10
52.504
 20
-197.494
 10
52.72
 20
-197.779
 10
52.902
 20
-198.087
 10
53.046
 20
-198.415
 10
53.152
 20
-198.758
 10
53.219
 20
-199.113
 10
53.246
 20
-199.512
 10
53.142
 20
-199.572
 10
51.626
 20
-198.697
 10
51.626
 20
-196.947
 10
51.757
 20
-196.871
 10
51.967
 20
-197.01
  0
LWPOLYLINE
  5
1D1
330
17
100
AcDbEntity
  8
0
100
AcDbPolyline
 90
14
 70
1
 10
87.467
 20
-198.726
 10
87.616
 20
-198.376
 10
87.796
 20
-198.044
 10
88.006
 20
-197.732
 10
88.245
 20
-197.443
 10
88.51
 20
-197.178
 10
88.799
 20
-196.939
 10
89.111
 20
-196.729
 10
89.358
 20
-196.595
 10
89.968
 20
-196.947
 10
89.968
 20
-198.697
 10
88.453
 20
-199.572
 10
87.394
 20
-198.961
 10
87.467
 20
-198.726
  0
LWPOLYLINE
  5
1D2
330
17
100
AcDbEntity
  8
0
100
AcDbPolyline
 90
8
 70
1
 10
92.151
 20
-196.168
 10
93.499
 20
-196.947
 10
93.499
 20
-198.697
 10
91.984
 20
-199.572
 10
90.468
 20
-198.697
 10
90.468
 20
-196.947
 10
91.816
 20
-196.169
 10
92.151
 20
-196.168
  0
LWPOLYLINE
  5
1D3
330
17
100
AcDbEntity
  8
0
100
AcDbPolyline
 90
8
 70
1
 10
95.68
 20
-196.168
 10
97.03
 20
-196.947
 10
97.03
 20
-198.697
 10
95.515
 20
-199.572
 10
93.999
 20
-198.697
 10
93.999
 20
-196.947
 10
95.349
 20
-196.168
 10
95.68
 20
-196.168
  0
LWPOLYLINE
  5
1D4
330
17
100
AcDbEntity
  8
0
100
AcDbPolyline
 90
8
 70
1
 10
99.21
 20
-196.167
 10
100.561
 20
-196.947
 10
100.561
 20
-198.697
 10
99.046
 20
-199.572
 10
97.53
 20
-198.697
 10
97.53
 20
-196.947
 10
98.881
 20
-196.167
 10
99.21
 20
-196.167
  0
LWPOLYLINE
  5
1D5
330
17
100
AcDbEntity
  8
0
100
AcDbPolyline
 90
8
 70
1
 10
102.74
 20
-196.166
 10
104.092
 20
-196.947
 10
104.092
 20
-198.697
 10
102.577
 20
-199.572
 10
101.061
 20
-198.697
 10
101.061
 20
-196.947
 10
102.414
 20
-196.166
 10
102.74
 20
-196.166
  0
LWPOLYLINE
  5
1D6
330
17
100
AcDbEntity
  8
0
100
AcDbPolyline
 90
8
 70
1
 10
106.269
 20
-196.165
 10
107.624
 20
-196.947
 10
107.624
 20
-198.697
 10
106.108
 20
-199.572
 10
104.592
 20
-198.697
 10
104.592
 20
-196.947
 10
105.946
 20
-196.165
 10
106.269
 20
-196.165
  0
LWPOLYLINE
  5
1D7
330
17
100
AcDbEntity
  8
0
100
AcDbPolyline
 90
8
 70
1
 10
109.799
 20
-196.164
 10
111.155
 20
-196.947
 10
111.155
 20
-198.697
 10
109.639
 20
-199.572
 10
108.124
 20
-198.697
 10
108.124
 20
-196.947
 10
109.479
 20
-196.164
 10
109.799
 20
-196.164
  0
LWPOLYLINE
  5
1D8
330
17
100
AcDbEntity
  8
0
100
AcDbPolyline
 90
4
 70
1
 10
111.655
 20
-198.212
 10
111.655
 20
-196.947
 10
112.155
 20
-196.658
 10
111.655
 20
-198.212
  0
LWPOLYLINE
  5
1D9
330
17
100
AcDbEntity
  8
0
100
AcDbPolyline
 90
6
 70
1
 10
124.675
 20
-196.598
 10
125.279
 20
-196.947
 10
125.279
 20
-198.697
 10
123.763
 20
-199.572
 10
123.669
 20
-199.517
 10
124.675
 20
-196.598
  0
LWPOLYLINE
  5
1DA
330
17
100
AcDbEntity
  8
0
100
AcDbPolyline
 90
8
 70
1
 10
128.122
 20
-196.55
 10
128.81
 20
-196.947
 10
128.81
 20
-198.697
 10
127.294
 20
-199.572
 10
125.779
 20
-198.697
 10
125.779
 20
-196.947
 10
126.467
 20
-196.55
 10
128.122
 20
-196.55
  0
LWPOLYLINE
  5
1DB
330
17
100
AcDbEntity
  8
0
100
AcDbPolyline
 90
8
 70
1
 10
131.653
 20
-196.55
 10
132.341
 20
-196.947
 10
132.341
 20
-198.697
 10
130.826
 20
-199.572
 10
129.31
 20
-198.697
 10
129.31
 20
-196.947
 10
129.998
 20
-196.55
 10
131.653
 20
-196.55
  0
LWPOLYLINE
  5
1DC
330
17
100
AcDbEntity
  8
0
100
AcDbPolyline
 90
8
 70
1
 10
135.184
 20
-196.55
 10
135.872
 20
-196.947
 10
135.872
 20
-198.697
 10
134.357
 20
-199.572
 10
132.841
 20
-198.697
 10
132.841
 20
-196.947
 10
133.529
 20
-196.55
 10
135.184
 20
-196.55
  0
LWPOLYLINE
  5
1DD
330
17
100
AcDbEntity
  8
0
100
AcDbPolyline
 90
6
 70
1
 10
137.556
 20
-196.55
 10
136.963
 20
-199.038
 10
136.372
 20
-198.697
 10
136.372
 20
-196.947
 10
137.06
 20
-196.55
 10
137.556
 20
-196.55
  0
LWPOLYLINE
  5
1DE
330
17
100
AcDbEntity
  8
0
100
AcDbPolyline
 90
4
 70
1
 10
37.853
 20
-196.167
 10
37.252
 20
-196.514
 10
36.65
 20
-196.166
 10
37.853
 20
-196.167
  0
LWPOLYLINE
  5
1DF
330
17
100
AcDbEntity
  8
0
100
AcDbPolyline
 90
4
 70
1
 10
41.381
 20
-196.169
 10
40.783
 20
-196.514
 10
40.184
 20
-196.168
 10
41.381
 20
-196.169
  0
LWPOLYLINE
  5
1E0
330
17
100
AcDbEntity
  8
0
100
AcDbPolyline
 90
4
 70
1
 10
44.909
 20
-196.17
 10
44.314
 20
-196.514
 10
43.718
 20
-196.17
 10
44.909
 20
-196.17
  0
LWPOLYLINE
  5
1E1
330
17
100
AcDbEntity
  8
0
100
AcDbPolyline
 90
4
 70
1
 10
48.437
 20
-196.172
 10
47.845
 20
-196.514
 10
47.252
 20
-196.171
 10
48.437
 20
-196.172
  0
LWPOLYLINE
  5
1E2
330
17
100
AcDbEntity
  8
0
100
AcDbPolyline
 90
6
 70
1
 10
90.16
 20
-196.287
 10
90.541
 20
-196.209
 10
90.791
 20
-196.183
 10
90.218
 20
-196.514
 10
89.942
 20
-196.354
 10
90.16
 20
-196.287
  0
LWPOLYLINE
  5
1E3
330
17
100
AcDbEntity
  8
0
100
AcDbPolyline
 90
4
 70
1
 10
94.348
 20
-196.168
 10
93.749
 20
-196.514
 10
93.15
 20
-196.168
 10
94.348
 20
-196.168
  0
LWPOLYLINE
  5
1E4
330
17
100
AcDbEntity
  8
0
100
AcDbPolyline
 90
4
 70
1
 10
97.881
 20
-196.167
 10
97.28
 20
-196.514
 10
96.68
 20
-196.167
 10
97.881
 20
-196.167
  0
LWPOLYLINE
  5
1E5
330
17
100
AcDbEntity
  8
0
100
AcDbPolyline
 90
4
 70
1
 10
101.414
 20
-196.166
 10
100.811
 20
-196.514
 10
100.21
 20
-196.167
 10
101.414
 20
-196.166
  0
LWPOLYLINE
  5
1E6
330
17
100
AcDbEntity
  8
0
100
AcDbPolyline
 90
4
 70
1
 10
104.946
 20
-196.165
 10
104.342
 20
-196.514
 10
103.739
 20
-196.166
 10
104.946
 20
-196.165
  0
LWPOLYLINE
  5
1E7
330
17
100
AcDbEntity
  8
0
100
AcDbPolyline
 90
4
 70
1
 10
108.479
 20
-196.165
 10
107.874
 20
-196.514
 10
107.269
 20
-196.165
 10
108.479
 20
-196.165
  0
LWPOLYLINE
  5
1E8
330
17
100
AcDbEntity
  8
0
100
AcDbPolyline
 90
4
 70
1
 10
112.011
 20
-196.164
 10
111.405
 20
-196.514
 10
110.799
 20
-196.164
 10
112.011
 20
-196.164
  0
ENDSEC
  0
SECTION
  2
OBJECTS
  0
DICTIONARY
  5
A
330
0
100
AcDbDictionary
281
1
  3
ACAD_COLOR
350
B
  3
ACAD_GROUP
350
C
  3
ACAD_LAYOUT
350
D
  3
ACAD_MATERIAL
350
E
  3
ACAD_MLEADERSTYLE
350
F
  3
ACAD_MLINESTYLE
350
10
  3
ACAD_PLOTSETTINGS
350
11
  3
ACAD_PLOTSTYLENAME
350
12
  3
ACAD_SCALELIST
350
14
  3
ACAD_TABLESTYLE
350
15
  3
ACAD_VISUALSTYLE
350
16
  3
EZDXF_META
350
2D
  0
DICTIONARY
  5
B
330
A
100
AcDbDictionary
281
1
  0
DICTIONARY
  5
C
330
A
100
AcDbDictionary
281
1
  0
DICTIONARY
  5
D
330
A
100
AcDbDictionary
281
1
  3
Model
350
1A
  3
Layout1
350
1E
  0
DICTIONARY
  5
E
330
A
100
AcDbDictionary
281
1
  3
ByBlock
350
1F
  3
ByLayer
350
20
  3
Global
350
21
  0
DICTIONARY
  5
F
330
A
100
AcDbDictionary
281
1
  3
Standard
350
2C
  0
DICTIONARY
  5
10
330
A
100
AcDbDictionary
281
1
  3
Standard
350
22
  0
DICTIONARY
  5
11
330
A
100
AcDbDictionary
281
1
  0
ACDBDICTIONARYWDFLT
  5
12
330
A
100
AcDbDictionary
281
1
  3
Normal
350
13
100
AcDbDictionaryWithDefault
340
13
  0
ACDBPLACEHOLDER
  5
13
330
12
  0
DICTIONARY
  5
14
330
A
100
AcDbDictionary
281
1
  0
DICTIONARY
  5
15
330
A
100
AcDbDictionary
281
1
  0
DICTIONARY
  5
16
330
A
100
AcDbDictionary
281
1
  0
LAYOUT
  5
1A
330
D
100
AcDbPlotSettings
  1

  4
A3
  6

 40
7.5
 41
20.0
 42
7.5
 43
20.0
 44
420.0
 45
297.0
 46
0.0
 47
0.0
 48
0.0
 49
0.0
140
0.0
141
0.0
142
1.0
143
1.0
 70
1024
 72
1
 73
0
 74
5
  7

 75
16
 76
0
 77
2
 78
300
147
1.0
148
0.0
149
0.0
100
AcDbLayout
  1
Model
 70
1
 71
0
 10
0.0
 20
0.0
 11
420.0
 21
297.0
 12
0.0
 22
0.0
 32
0.0
 14
1e+20
 24
1e+20
 34
1e+20
 15
-1e+20
 25
-1e+20
 35
-1e+20
146
0.0
 13
0.0
 23
0.0
 33
0.0
 16
1.0
 26
0.0
 36
0.0
 17
0.0
 27
1.0
 37
0.0
 76
1
330
17
  0
LAYOUT
  5
1E
330
D
100
AcDbPlotSettings
  1

  4
A3
  6

 40
7.5
 41
20.0
 42
7.5
 43
20.0
 44
420.0
 45
297.0
 46
0.0
 47
0.0
 48
0.0
 49
0.0
140
0.0
141
0.0
142
1.0
143
1.0
 70
0
 72
1
 73
0
 74
5
  7

 75
16
 76
0
 77
2
 78
300
147
1.0
148
0.0
149
0.0
100
AcDbLayout
  1
Layout1
 70
1
 71
1
 10
0.0
 20
0.0
 11
420.0
 21
297.0
 12
0.0
 22
0.0
 32
0.0
 14
1e+20
 24
1e+20
 34
1e+20
 15
-1e+20
 25
-1e+20
 35
-1e+20
146
0.0
 13
0.0
 23
0.0
 33
0.0
 16
1.0
 26
0.0
 36
0.0
 17
0.0
 27
1.0
 37
0.0
 76
1
330
1B
  0
MATERIAL
  5
1F
102
{ACAD_REACTORS
330
E
102
}
330
E
100
AcDbMaterial
  1
ByBlock
  2

 70
0
 40
1.0
 71
1
 41
1.0
 91
-1023410177
 42
1.0
 72
1
  3

 73
1
 74
1
 75
1
 44
0.5
 73
0
 45
1.0
 46
1.0
 77
1
  4

 78
1
 79
1
170
1
 48
1.0
171
1
  6

172
1
173
1
174
1
140
1.0
141
1.0
175
1
  7

176
1
177
1
178
1
143
1.0
179
1
  8

270
1
271
1
272
1
145
1.0
146
1.0
273
1
  9

274
1
275
1
276
1
 42
1.0
 72
1
  3

 73
1
 74
1
 75
1
 94
63
  0
MATERIAL
  5
20
102
{ACAD_REACTORS
330
E
102
}
330
E
100
AcDbMaterial
  1
ByLayer
  2

 70
0
 40
1.0
 71
1
 41
1.0
 91
-1023410177
 42
1.0
 72
1
  3

 73
1
 74
1
 75
1
 44
0.5
 73
0
 45
1.0
 46
1.0
 77
1
  4

 78
1
 79
1
170
1
 48
1.0
171
1
  6

172
1
173
1
174
1
140
1.0
141
1.0
175
1
  7

176
1
177
1
178
1
143
1.0
179
1
  8

270
1
271
1
272
1
145
1.0
146
1.0
273
1
  9

274
1
275
1
276
1
 42
1.0
 72
1
  3

 73
1
 74
1
 75
1
 94
63
  0
MATERIAL
  5
21
102
{ACAD_REACTORS
330
E
102
}
330
E
100
AcDbMaterial
  1
Global
  2

 70
0
 40
1.0
 71
1
 41
1.0
 91
-1023410177
 42
1.0
 72
1
  3

 73
1
 74
1
 75
1
 44
0.5
 73
0
 45
1.0
 46
1.0
 77
1
  4

 78
1
 79
1
170
1
 48
1.0
171
1
  6

172
1
173
1
174
1
140
1.0
141
1.0
175
1
  7

176
1
177
1
178
1
143
1.0
179
1
  8

270
1
271
1
272
1
145
1.0
146
1.0
273
1
  9

274
1
275
1
276
1
 42
1.0
 72
1
  3

 73
1
 74
1
 75
1
 94
63
  0
MLINESTYLE
  5
22
102
{ACAD_REACTORS
330
10
102
}
330
10
100
AcDbMlineStyle
  2
Standard
 70
0
  3

 62
256
 51
90.0
 52
90.0
 71
2
 49
0.5
 62
256
  6
BYLAYER
 49
-0.5
 62
256
  6
BYLAYER
  0
MLEADERSTYLE
  5
2C
102
{ACAD_REACTORS
330
F
102
}
330
F
100
AcDbMLeaderStyle
179
2
170
2
171
1
172
0
 90
2
 40
0.0
 41
0.0
173
1
 91
-1056964608
 92
-2
290
1
 42
2.0
291
1
 43
8.0
  3
Standard
 44
4.0
300

342
29
174
1
175
1
176
0
178
1
 93
-1056964608
 45
4.0
292
0
297
0
 46
4.0
 94
-1056964608
 47
1.0
 49
1.0
140
1.0
294
1
141
0.0
177
0
142
1.0
295
0
296
0
143
3.75
271
0
272
9
273
9
  0
DICTIONARY
  5
2D
330
A
100
AcDbDictionary
280
1
281
1
  3
CREATED_BY_EZDXF
350
2E
  3
WRITTEN_BY_EZDXF
350
1EB
  0
DICTIONARYVAR
  5
2E
330
2D
100
DictionaryVariables
280
0
  1
1.4.3 @ 2026-04-09T21:37:18.691722+00:00
  0
DICTIONARYVAR
  5
1EB
330
2D
100
DictionaryVariables
280
0
  1
1.4.3 @ 2026-04-09T21:37:18.706787+00:00
  0
ENDSEC
  0
EOF
