  0
SECTION
  2
HEADER
  9
$ACADVER
  1
AC1024
  9
$ACADMAINTVER
 70
6
  9
$DWGCODEPAGE
  3
ANSI_1252
  9
$LASTSAVEDBY
  1
ezdxf
  9
$INSBASE
 10
0.0
 20
0.0
 30
0.0
  9
$EXTMIN
 10
1e+20
 20
1e+20
 30
1e+20
  9
$EXTMAX
 10
-1e+20
 20
-1e+20
 30
-1e+20
  9
$LIMMIN
 10
0.0
 20
0.0
  9
$LIMMAX
 10
420.0
 20
297.0
  9
$ORTHOMODE
 70
0
  9
$REGENMODE
 70
1
  9
$FILLMODE
 70
1
  9
$QTEXTMODE
 70
0
  9
$MIRRTEXT
 70
1
  9
$LTSCALE
 40
1.0
  9
$ATTMODE
 70
1
  9
$TEXTSIZE
 40
2.5
  9
$TRACEWID
 40
1.0
  9
$TEXTSTYLE
  7
Standard
  9
$CLAYER
  8
0
  9
$CELTYPE
  6
ByLayer
  9
$CECOLOR
 62
256
  9
$CELTSCALE
 40
1.0
  9
$DISPSILH
 70
0
  9
$DIMSCALE
 40
1.0
  9
$DIMASZ
 40
2.5
  9
$DIMEXO
 40
0.625
  9
$DIMDLI
 40
3.75
  9
$DIMRND
 40
0.0
  9
$DIMDLE
 40
0.0
  9
$DIMEXE
 40
1.25
  9
$DIMTP
 40
0.0
  9
$DIMTM
 40
0.0
  9
$DIMTXT
 40
2.5
  9
$DIMCEN
 40
2.5
  9
$DIMTSZ
 40
0.0
  9
$DIMTOL
 70
0
  9
$DIMLIM
 70
0
  9
$DIMTIH
 70
0
  9
$DIMTOH
 70
0
  9
$DIMSE1
 70
0
  9
$DIMSE2
 70
0
  9
$DIMTAD
 70
1
  9
$DIMZIN
 70
8
  9
$DIMBLK
  1

  9
$DIMASO
 70
1
  9
$DIMSHO
 70
1
  9
$DIMPOST
  1

  9
$DIMAPOST
  1

  9
$DIMALT
 70
0
  9
$DIMALTD
 70
3
  9
$DIMALTF
 40
0.03937007874
  9
$DIMLFAC
 40
1.0
  9
$DIMTOFL
 70
1
  9
$DIMTVP
 40
0.0
  9
$DIMTIX
 70
0
  9
$DIMSOXD
 70
0
  9
$DIMSAH
 70
0
  9
$DIMBLK1
  1

  9
$DIMBLK2
  1

  9
$DIMSTYLE
  2
ISO-25
  9
$DIMCLRD
 70
0
  9
$DIMCLRE
 70
0
  9
$DIMCLRT
 70
0
  9
$DIMTFAC
 40
1.0
  9
$DIMGAP
 40
0.625
  9
$DIMJUST
 70
0
  9
$DIMSD1
 70
0
  9
$DIMSD2
 70
0
  9
$DIMTOLJ
 70
0
  9
$DIMTZIN
 70
8
  9
$DIMALTZ
 70
0
  9
$DIMALTTZ
 70
0
  9
$DIMUPT
 70
0
  9
$DIMDEC
 70
2
  9
$DIMTDEC
 70
2
  9
$DIMALTU
 70
2
  9
$DIMALTTD
 70
3
  9
$DIMTXSTY
  7
Standard
  9
$DIMAUNIT
 70
0
  9
$DIMADEC
 70
0
  9
$DIMALTRND
 40
0.0
  9
$DIMAZIN
 70
0
  9
$DIMDSEP
 70
44
  9
$DIMATFIT
 70
3
  9
$DIMFRAC
 70
0
  9
$DIMLDRBLK
  1

  9
$DIMLUNIT
 70
2
  9
$DIMLWD
 70
-2
  9
$DIMLWE
 70
-2
  9
$DIMTMOVE
 70
0
  9
$DIMFXL
 40
1.0
  9
$DIMFXLON
 70
0
  9
$DIMJOGANG
 40
0.785398163397
  9
$DIMTFILL
 70
0
  9
$DIMTFILLCLR
 70
0
  9
$DIMARCSYM
 70
0
  9
$DIMLTYPE
  6

  9
$DIMLTEX1
  6

  9
$DIMLTEX2
  6

  9
$DIMTXTDIRECTION
 70
0
  9
$LUNITS
 70
2
  9
$LUPREC
 70
4
  9
$SKETCHINC
 40
1.0
  9
$FILLETRAD
 40
10.0
  9
$AUNITS
 70
0
  9
$AUPREC
 70
2
  9
$MENU
  1
.
  9
$ELEVATION
 40
0.0
  9
$PELEVATION
 40
0.0
  9
$THICKNESS
 40
0.0
  9
$LIMCHECK
 70
0
  9
$CHAMFERA
 40
0.0
  9
$CHAMFERB
 40
0.0
  9
$CHAMFERC
 40
0.0
  9
$CHAMFERD
 40
0.0
  9
$SKPOLY
 70
0
  9
$TDCREATE
 40
2461138.7153935186
  9
$TDUCREATE
 40
2458532.153996898
  9
$TDUPDATE
 40
2461138.7153935186
  9
$TDUUPDATE
 40
2458532.1544311
  9
$TDINDWG
 40
0.0
  9
$TDUSRTIMER
 40
0.0
  9
$USRTIMER
 70
1
  9
$ANGBASE
 50
0.0
  9
$ANGDIR
 70
0
  9
$PDMODE
 70
0
  9
$PDSIZE
 40
0.0
  9
$PLINEWID
 40
0.0
  9
$SPLFRAME
 70
0
  9
$SPLINETYPE
 70
6
  9
$SPLINESEGS
 70
8
  9
$HANDSEED
  5
F8
  9
$SURFTAB1
 70
6
  9
$SURFTAB2
 70
6
  9
$SURFTYPE
 70
6
  9
$SURFU
 70
6
  9
$SURFV
 70
6
  9
$UCSBASE
  2

  9
$UCSNAME
  2

  9
$UCSORG
 10
0.0
 20
0.0
 30
0.0
  9
$UCSXDIR
 10
1.0
 20
0.0
 30
0.0
  9
$UCSYDIR
 10
0.0
 20
1.0
 30
0.0
  9
$UCSORTHOREF
  2

  9
$UCSORTHOVIEW
 70
0
  9
$UCSORGTOP
 10
0.0
 20
0.0
 30
0.0
  9
$UCSORGBOTTOM
 10
0.0
 20
0.0
 30
0.0
  9
$UCSORGLEFT
 10
0.0
 20
0.0
 30
0.0
  9
$UCSORGRIGHT
 10
0.0
 20
0.0
 30
0.0
  9
$UCSORGFRONT
 10
0.0
 20
0.0
 30
0.0
  9
$UCSORGBACK
 10
0.0
 20
0.0
 30
0.0
  9
$PUCSBASE
  2

  9
$PUCSNAME
  2

  9
$PUCSORG
 10
0.0
 20
0.0
 30
0.0
  9
$PUCSXDIR
 10
1.0
 20
0.0
 30
0.0
  9
$PUCSYDIR
 10
0.0
 20
1.0
 30
0.0
  9
$PUCSORTHOREF
  2

  9
$PUCSORTHOVIEW
 70
0
  9
$PUCSORGTOP
 10
0.0
 20
0.0
 30
0.0
  9
$PUCSORGBOTTOM
 10
0.0
 20
0.0
 30
0.0
  9
$PUCSORGLEFT
 10
0.0
 20
0.0
 30
0.0
  9
$PUCSORGRIGHT
 10
0.0
 20
0.0
 30
0.0
  9
$PUCSORGFRONT
 10
0.0
 20
0.0
 30
0.0
  9
$PUCSORGBACK
 10
0.0
 20
0.0
 30
0.0
  9
$USERI1
 70
0
  9
$USERI2
 70
0
  9
$USERI3
 70
0
  9
$USERI4
 70
0
  9
$USERI5
 70
0
  9
$USERR1
 40
0.0
  9
$USERR2
 40
0.0
  9
$USERR3
 40
0.0
  9
$USERR4
 40
0.0
  9
$USERR5
 40
0.0
  9
$WORLDVIEW
 70
1
  9
$SHADEDGE
 70
3
  9
$SHADEDIF
 70
70
  9
$TILEMODE
 70
1
  9
$MAXACTVP
 70
64
  9
$PINSBASE
 10
0.0
 20
0.0
 30
0.0
  9
$PLIMCHECK
 70
0
  9
$PEXTMIN
 10
1e+20
 20
1e+20
 30
1e+20
  9
$PEXTMAX
 10
-1e+20
 20
-1e+20
 30
-1e+20
  9
$PLIMMIN
 10
0.0
 20
0.0
  9
$PLIMMAX
 10
420.0
 20
297.0
  9
$UNITMODE
 70
0
  9
$VISRETAIN
 70
1
  9
$PLINEGEN
 70
0
  9
$PSLTSCALE
 70
1
  9
$TREEDEPTH
 70
3020
  9
$CMLSTYLE
  2
Standard
  9
$CMLJUST
 70
0
  9
$CMLSCALE
 40
20.0
  9
$PROXYGRAPHICS
 70
1
  9
$MEASUREMENT
 70
1
  9
$CELWEIGHT
370
-1
  9
$ENDCAPS
280
0
  9
$JOINSTYLE
280
0
  9
$LWDISPLAY
290
0
  9
$INSUNITS
 70
6
  9
$HYPERLINKBASE
  1

  9
$STYLESHEET
  1

  9
$XEDIT
290
1
  9
$CEPSNTYPE
380
0
  9
$PSTYLEMODE
290
1
  9
$FINGERPRINTGUID
  2
{3E6A89CE-5748-4862-9517-F2BC91BC7EC8}
  9
$VERSIONGUID
  2
{344BA195-F470-4E99-AAEF-85F1710B4597}
  9
$EXTNAMES
290
1
  9
$PSVPSCALE
 40
0.0
  9
$OLESTARTUP
290
0
  9
$SORTENTS
280
127
  9
$INDEXCTL
280
0
  9
$HIDETEXT
280
1
  9
$XCLIPFRAME
280
1
  9
$HALOGAP
280
0
  9
$OBSCOLOR
 70
257
  9
$OBSLTYPE
280
0
  9
$INTERSECTIONDISPLAY
280
0
  9
$INTERSECTIONCOLOR
 70
257
  9
$DIMASSOC
280
2
  9
$PROJECTNAME
  1

  9
$CAMERADISPLAY
290
0
  9
$LENSLENGTH
 40
50.0
  9
$CAMERAHEIGHT
 40
0.0
  9
$STEPSPERSEC
 40
24.0
  9
$STEPSIZE
 40
100.0
  9
$3DDWFPREC
 40
2.0
  9
$PSOLWIDTH
 40
0.005
  9
$PSOLHEIGHT
 40
0.08
  9
$LOFTANG1
 40
1.570796326795
  9
$LOFTANG2
 40
1.570796326795
  9
$LOFTMAG1
 40
0.0
  9
$LOFTMAG2
 40
0.0
  9
$LOFTPARAM
 70
7
  9
$LOFTNORMALS
280
1
  9
$LATITUDE
 40
37.795
  9
$LONGITUDE
 40
-122.394
  9
$NORTHDIRECTION
 40
0.0
  9
$TIMEZONE
 70
-8000
  9
$LIGHTGLYPHDISPLAY
280
1
  9
$TILEMODELIGHTSYNCH
280
1
  9
$CMATERIAL
347
20
  9
$SOLIDHIST
280
0
  9
$SHOWHIST
280
1
  9
$DWFFRAME
280
2
  9
$DGNFRAME
280
2
  9
$REALWORLDSCALE
290
1
  9
$INTERFERECOLOR
 62
256
  9
$CSHADOW
280
0
  9
$SHADOWPLANELOCATION
 40
0.0
  0
ENDSEC
  0
SECTION
  2
CLASSES
  0
CLASS
  1
ACDBDICTIONARYWDFLT
  2
AcDbDictionaryWithDefault
  3
ObjectDBX Classes
 90
0
 91
0
280
0
281
0
  0
CLASS
  1
SUN
  2
AcDbSun
  3
SCENEOE
 90
1153
 91
0
280
0
281
0
  0
CLASS
  1
VISUALSTYLE
  2
AcDbVisualStyle
  3
ObjectDBX Classes
 90
4095
 91
0
280
0
281
0
  0
CLASS
  1
MATERIAL
  2
AcDbMaterial
  3
ObjectDBX Classes
 90
1153
 91
0
280
0
281
0
  0
CLASS
  1
SCALE
  2
AcDbScale
  3
ObjectDBX Classes
 90
1153
 91
0
280
0
281
0
  0
CLASS
  1
TABLESTYLE
  2
AcDbTableStyle
  3
ObjectDBX Classes
 90
4095
 91
0
280
0
281
0
  0
CLASS
  1
MLEADERSTYLE
  2
AcDbMLeaderStyle
  3
ACDB_MLEADERSTYLE_CLASS
 90
4095
 91
0
280
0
281
0
  0
CLASS
  1
DICTIONARYVAR
  2
AcDbDictionaryVar
  3
ObjectDBX Classes
 90
0
 91
0
280
0
281
0
  0
CLASS
  1
CELLSTYLEMAP
  2
AcDbCellStyleMap
  3
ObjectDBX Classes
 90
1152
 91
0
280
0
281
0
  0
CLASS
  1
MENTALRAYRENDERSETTINGS
  2
AcDbMentalRayRenderSettings
  3
SCENEOE
 90
1024
 91
0
280
0
281
0
  0
CLASS
  1
ACDBDETAILVIEWSTYLE
  2
AcDbDetailViewStyle
  3
ObjectDBX Classes
 90
1025
 91
0
280
0
281
0
  0
CLASS
  1
ACDBSECTIONVIEWSTYLE
  2
AcDbSectionViewStyle
  3
ObjectDBX Classes
 90
1025
 91
0
280
0
281
0
  0
CLASS
  1
RASTERVARIABLES
  2
AcDbRasterVariables
  3
ISM
 90
0
 91
0
280
0
281
0
  0
CLASS
  1
ACDBPLACEHOLDER
  2
AcDbPlaceHolder
  3
ObjectDBX Classes
 90
0
 91
0
280
0
281
0
  0
CLASS
  1
LAYOUT
  2
AcDbLayout
  3
ObjectDBX Classes
 90
0
 91
0
280
0
281
0
  0
ENDSEC
  0
SECTION
  2
TABLES
  0
TABLE
  2
VPORT
  5
8
330
0
100
AcDbSymbolTable
 70
1
  0
VPORT
  5
23
330
8
100
AcDbSymbolTableRecord
100
AcDbViewportTableRecord
  2
*Active
 70
0
 10
0.0
 20
0.0
 11
1.0
 21
1.0
 12
0.0
 22
0.0
 13
0.0
 23
0.0
 14
0.5
 24
0.5
 15
0.5
 25
0.5
 16
0.0
 26
0.0
 36
1.0
 17
0.0
 27
0.0
 37
0.0
 40
1000.0
 41
1.34
 42
50.0
 43
0.0
 44
0.0
 50
0.0
 51
0.0
 71
0
 72
1000
 73
1
 74
3
 75
0
 76
0
 77
0
 78
0
281
0
 65
0
146
0.0
  0
ENDTAB
  0
TABLE
  2
LTYPE
  5
2
330
0
100
AcDbSymbolTable
 70
3
  0
LTYPE
  5
24
330
2
100
AcDbSymbolTableRecord
100
AcDbLinetypeTableRecord
  2
ByBlock
 70
0
  3

 72
65
 73
0
 40
0.0
  0
LTYPE
  5
25
330
2
100
AcDbSymbolTableRecord
100
AcDbLinetypeTableRecord
  2
ByLayer
 70
0
  3

 72
65
 73
0
 40
0.0
  0
LTYPE
  5
26
330
2
100
AcDbSymbolTableRecord
100
AcDbLinetypeTableRecord
  2
Continuous
 70
0
  3

 72
65
 73
0
 40
0.0
  0
ENDTAB
  0
TABLE
  2
LAYER
  5
1
330
0
100
AcDbSymbolTable
 70
2
  0
LAYER
  5
27
330
1
100
AcDbSymbolTableRecord
100
AcDbLayerTableRecord
  2
0
 70
0
 62
7
  6
Continuous
370
-3
390
13
347
21
  0
LAYER
  5
28
330
1
100
AcDbSymbolTableRecord
100
AcDbLayerTableRecord
  2
Defpoints
 70
0
 62
7
  6
Continuous
290
0
370
-3
390
13
347
21
  0
ENDTAB
  0
TABLE
  2
STYLE
  5
5
330
0
100
AcDbSymbolTable
 70
1
  0
STYLE
  5
29
330
5
100
AcDbSymbolTableRecord
100
AcDbTextStyleTableRecord
  2
Standard
 70
0
 40
0.0
 41
1.0
 50
0.0
 71
0
 42
2.5
  3
txt
  4

  0
ENDTAB
  0
TABLE
  2
VIEW
  5
7
330
0
100
AcDbSymbolTable
 70
0
  0
ENDTAB
  0
TABLE
  2
UCS
  5
6
330
0
100
AcDbSymbolTable
 70
0
  0
ENDTAB
  0
TABLE
  2
APPID
  5
3
330
0
100
AcDbSymbolTable
 70
3
  0
APPID
  5
2A
330
3
100
AcDbSymbolTableRecord
100
AcDbRegAppTableRecord
  2
ACAD
 70
0
  0
APPID
  5
F5
330
3
100
AcDbSymbolTableRecord
100
AcDbRegAppTableRecord
  2
HATCHBACKGROUNDCOLOR
 70
0
  0
APPID
  5
F6
330
3
100
AcDbSymbolTableRecord
100
AcDbRegAppTableRecord
  2
EZDXF
 70
0
  0
ENDTAB
  0
TABLE
  2
DIMSTYLE
  5
4
330
0
100
AcDbSymbolTable
 70
1
100
AcDbDimStyleTable
  0
DIMSTYLE
105
2B
330
4
100
AcDbSymbolTableRecord
100
AcDbDimStyleTableRecord
  2
Standard
 70
0
 40
1.0
 41
2.5
 42
0.625
 43
3.75
 44
1.25
 45
0.0
 46
0.0
 47
0.0
 48
0.0
 49
2.5
140
2.5
141
2.5
142
0.0
143
0.03937007874
144
1.0
145
0.0
146
1.0
147
0.625
148
0.0
 69
0
 70
0
 71
0
 72
0
 73
0
 74
0
 75
0
 76
0
 77
1
 78
8
 79
3
170
0
171
3
172
1
173
0
174
0
175
0
176
0
177
0
178
0
179
2
271
2
272
2
273
2
274
3
275
0
276
0
277
2
278
44
279
0
280
0
281
0
282
0
283
0
284
8
285
0
286
0
288
0
289
3
290
0
371
-2
372
-2
  0
ENDTAB
  0
TABLE
  2
BLOCK_RECORD
  5
9
330
0
100
AcDbSymbolTable
 70
2
  0
BLOCK_RECORD
  5
17
330
9
100
AcDbSymbolTableRecord
100
AcDbBlockTableRecord
  2
*Model_Space
340
1A
 70
0
280
1
281
0
  0
BLOCK_RECORD
  5
1B
330
9
100
AcDbSymbolTableRecord
100
AcDbBlockTableRecord
  2
*Paper_Space
340
1E
 70
0
280
1
281
0
  0
ENDTAB
  0
ENDSEC
  0
SECTION
  2
BLOCKS
  0
BLOCK
  5
18
330
17
100
AcDbEntity
  8
0
100
AcDbBlockBegin
  2
*Model_Space
 70
0
 10
0.0
 20
0.0
 30
0.0
  3
*Model_Space
  1

  0
ENDBLK
  5
19
330
17
100
AcDbEntity
  8
0
100
AcDbBlockEnd
  0
BLOCK
  5
1C
330
1B
100
AcDbEntity
  8
0
100
AcDbBlockBegin
  2
*Paper_Space
 70
0
 10
0.0
 20
0.0
 30
0.0
  3
*Paper_Space
  1

  0
ENDBLK
  5
1D
330
1B
100
AcDbEntity
  8
0
100
AcDbBlockEnd
  0
ENDSEC
  0
SECTION
  2
ENTITIES
  0
LINE
  5
2F
330
17
100
AcDbEntity
  8
0
100
AcDbLine
 10
1.496602
 20
105.848944
 30
0.0
 11
4.381273
 21
105.848944
 31
0.0
  0
LINE
  5
30
330
17
100
AcDbEntity
  8
0
100
AcDbLine
 10
4.381273
 20
105.848944
 30
0.0
 11
3.8722130000000003
 21
104.25389100000001
 31
0.0
  0
LINE
  5
31
330
17
100
AcDbEntity
  8
0
100
AcDbLine
 10
3.8722130000000003
 20
104.25389100000001
 30
0.0
 11
8.894933
 21
104.25389100000001
 31
0.0
  0
LINE
  5
32
330
17
100
AcDbEntity
  8
0
100
AcDbLine
 10
8.894933
 20
104.25389100000001
 30
0.0
 11
8.759184
 21
105.84894400000002
 31
0.0
  0
LINE
  5
33
330
17
100
AcDbEntity
  8
0
100
AcDbLine
 10
8.759184
 20
105.84894400000002
 30
0.0
 11
45.773744
 21
105.84894400000002
 31
0.0
  0
LINE
  5
34
330
17
100
AcDbEntity
  8
0
100
AcDbLine
 10
45.773744
 20
105.84894400000002
 30
0.0
 11
66.39994899999999
 21
105.84894400000002
 31
0.0
  0
LINE
  5
35
330
17
100
AcDbEntity
  8
0
100
AcDbLine
 10
66.39994899999999
 20
105.84894400000002
 30
0.0
 11
125.00285099999999
 21
105.84894400000002
 31
0.0
  0
LINE
  5
36
330
17
100
AcDbEntity
  8
0
100
AcDbLine
 10
125.00285099999999
 20
105.84894400000002
 30
0.0
 11
124.28816599999999
 21
104.11242200000002
 31
0.0
  0
LINE
  5
37
330
17
100
AcDbEntity
  8
0
100
AcDbLine
 10
124.28816599999999
 20
104.11242200000002
 30
0.0
 11
130.58520299999998
 21
104.11242200000002
 31
0.0
  0
LINE
  5
38
330
17
100
AcDbEntity
  8
0
100
AcDbLine
 10
130.58520299999998
 20
104.11242200000002
 30
0.0
 11
130.08543799999998
 21
105.86159900000003
 31
0.0
  0
LINE
  5
39
330
17
100
AcDbEntity
  8
0
100
AcDbLine
 10
130.08543799999998
 20
105.86159900000003
 30
0.0
 11
137.03216999999998
 21
105.86159900000003
 31
0.0
  0
LINE
  5
3A
330
17
100
AcDbEntity
  8
0
100
AcDbLine
 10
137.03216999999998
 20
105.86159900000003
 30
0.0
 11
137.07540099999997
 21
105.86203200000003
 31
0.0
  0
LINE
  5
3B
330
17
100
AcDbEntity
  8
0
100
AcDbLine
 10
137.07540099999997
 20
105.86203200000003
 30
0.0
 11
137.07540099999997
 21
83.35819400000003
 31
0.0
  0
LINE
  5
3C
330
17
100
AcDbEntity
  8
0
100
AcDbLine
 10
137.07540099999997
 20
83.35819400000003
 30
0.0
 11
54.18220999999997
 21
83.35819400000003
 31
0.0
  0
LINE
  5
3D
330
17
100
AcDbEntity
  8
0
100
AcDbLine
 10
54.18220999999997
 20
83.35819400000003
 30
0.0
 11
53.17703199999997
 21
85.26442600000003
 31
0.0
  0
LINE
  5
3E
330
17
100
AcDbEntity
  8
0
100
AcDbLine
 10
53.17703199999997
 20
85.26442600000003
 30
0.0
 11
40.52361399999997
 21
85.26442600000003
 31
0.0
  0
LINE
  5
3F
330
17
100
AcDbEntity
  8
0
100
AcDbLine
 10
40.52361399999997
 20
85.26442600000003
 30
0.0
 11
40.52361399999997
 21
84.31837600000003
 31
0.0
  0
LINE
  5
40
330
17
100
AcDbEntity
  8
0
100
AcDbLine
 10
40.52361399999997
 20
84.31837600000003
 30
0.0
 11
34.196904999999965
 21
84.55488800000003
 31
0.0
  0
LINE
  5
41
330
17
100
AcDbEntity
  8
0
100
AcDbLine
 10
34.196904999999965
 20
84.55488800000003
 30
0.0
 11
34.05041999999997
 21
84.56088900000003
 31
0.0
  0
LINE
  5
42
330
17
100
AcDbEntity
  8
0
100
AcDbLine
 10
34.05041999999997
 20
84.56088900000003
 30
0.0
 11
15.601945999999966
 21
84.56088900000003
 31
0.0
  0
LINE
  5
43
330
17
100
AcDbEntity
  8
0
100
AcDbLine
 10
15.601945999999966
 20
84.56088900000003
 30
0.0
 11
-0.24439000000003475
 21
84.56088900000003
 31
0.0
  0
LINE
  5
44
330
17
100
AcDbEntity
  8
0
100
AcDbLine
 10
-0.24439000000003475
 20
84.56088900000003
 30
0.0
 11
-1.1904400000000348
 21
87.98824700000003
 31
0.0
  0
LINE
  5
45
330
17
100
AcDbEntity
  8
0
100
AcDbLine
 10
-1.1904400000000348
 20
87.98824700000003
 30
0.0
 11
-1.1904400000000348
 21
107.24435200000003
 31
0.0
  0
LINE
  5
46
330
17
100
AcDbEntity
  8
0
100
AcDbLine
 10
-1.1904400000000348
 20
107.24435200000003
 30
0.0
 11
0.3061619999999652
 21
108.51449800000003
 31
0.0
  0
LINE
  5
47
330
17
100
AcDbEntity
  8
0
100
AcDbLine
 10
50.95376999999996
 20
101.50198900000004
 30
0.0
 11
92.63909399999997
 21
101.50198900000004
 31
0.0
  0
LINE
  5
48
330
17
100
AcDbEntity
  8
0
100
AcDbLine
 10
92.63909399999997
 20
101.50198900000004
 30
0.0
 11
92.63909399999997
 21
97.24476400000003
 31
0.0
  0
LINE
  5
49
330
17
100
AcDbEntity
  8
0
100
AcDbLine
 10
92.63909399999997
 20
97.24476400000003
 30
0.0
 11
50.95376999999997
 21
97.24476400000003
 31
0.0
  0
LINE
  5
4A
330
17
100
AcDbEntity
  8
0
100
AcDbLine
 10
50.95376999999997
 20
97.24476400000003
 30
0.0
 11
50.95376999999997
 21
101.50198900000004
 31
0.0
  0
LINE
  5
4B
330
17
100
AcDbEntity
  8
0
100
AcDbLine
 10
16.059527999999972
 20
102.09548700000003
 30
0.0
 11
24.277049999999974
 21
102.09548700000003
 31
0.0
  0
LINE
  5
4C
330
17
100
AcDbEntity
  8
0
100
AcDbLine
 10
24.277049999999974
 20
102.09548700000003
 30
0.0
 11
23.679190999999975
 21
101.49762800000003
 31
0.0
  0
LINE
  5
4D
330
17
100
AcDbEntity
  8
0
100
AcDbLine
 10
23.679190999999975
 20
101.49762800000003
 30
0.0
 11
27.574425999999974
 21
101.49762800000003
 31
0.0
  0
LINE
  5
4E
330
17
100
AcDbEntity
  8
0
100
AcDbLine
 10
27.574425999999974
 20
101.49762800000003
 30
0.0
 11
27.574425999999974
 21
100.18265300000003
 31
0.0
  0
LINE
  5
4F
330
17
100
AcDbEntity
  8
0
100
AcDbLine
 10
27.574425999999974
 20
100.18265300000003
 30
0.0
 11
31.017726999999972
 21
100.18265300000003
 31
0.0
  0
LINE
  5
50
330
17
100
AcDbEntity
  8
0
100
AcDbLine
 10
31.017726999999972
 20
100.18265300000003
 30
0.0
 11
31.017726999999972
 21
101.49541200000003
 31
0.0
  0
LINE
  5
51
330
17
100
AcDbEntity
  8
0
100
AcDbLine
 10
31.017726999999972
 20
101.49541200000003
 30
0.0
 11
36.680155999999975
 21
101.49541200000003
 31
0.0
  0
LINE
  5
52
330
17
100
AcDbEntity
  8
0
100
AcDbLine
 10
36.680155999999975
 20
101.49541200000003
 30
0.0
 11
36.680155999999975
 21
96.64740700000003
 31
0.0
  0
LINE
  5
53
330
17
100
AcDbEntity
  8
0
100
AcDbLine
 10
36.680155999999975
 20
96.64740700000003
 30
0.0
 11
31.041749999999976
 21
96.64740700000003
 31
0.0
  0
LINE
  5
54
330
17
100
AcDbEntity
  8
0
100
AcDbLine
 10
31.041749999999976
 20
96.64740700000003
 30
0.0
 11
31.041749999999976
 21
97.96016600000003
 31
0.0
  0
LINE
  5
55
330
17
100
AcDbEntity
  8
0
100
AcDbLine
 10
31.041749999999976
 20
97.96016600000003
 30
0.0
 11
27.576927999999974
 21
97.96016600000003
 31
0.0
  0
LINE
  5
56
330
17
100
AcDbEntity
  8
0
100
AcDbLine
 10
27.576927999999974
 20
97.96016600000003
 30
0.0
 11
27.576927999999974
 21
96.58284500000003
 31
0.0
  0
LINE
  5
57
330
17
100
AcDbEntity
  8
0
100
AcDbLine
 10
27.576927999999974
 20
96.58284500000003
 30
0.0
 11
24.693162999999974
 21
96.58284500000003
 31
0.0
  0
LINE
  5
58
330
17
100
AcDbEntity
  8
0
100
AcDbLine
 10
24.693162999999974
 20
96.58284500000003
 30
0.0
 11
26.156565999999973
 21
95.11944200000003
 31
0.0
  0
LINE
  5
59
330
17
100
AcDbEntity
  8
0
100
AcDbLine
 10
26.156565999999973
 20
95.11944200000003
 30
0.0
 11
22.151225999999973
 21
95.11944200000003
 31
0.0
  0
LINE
  5
5A
330
17
100
AcDbEntity
  8
0
100
AcDbLine
 10
22.151225999999973
 20
95.11944200000003
 30
0.0
 11
20.106765999999972
 21
97.16390200000004
 31
0.0
  0
LINE
  5
5B
330
17
100
AcDbEntity
  8
0
100
AcDbLine
 10
20.106765999999972
 20
97.16390200000004
 30
0.0
 11
18.92606299999997
 21
95.98319900000004
 31
0.0
  0
LINE
  5
5C
330
17
100
AcDbEntity
  8
0
100
AcDbLine
 10
18.92606299999997
 20
95.98319900000004
 30
0.0
 11
15.78111899999997
 21
95.98319900000004
 31
0.0
  0
LINE
  5
5D
330
17
100
AcDbEntity
  8
0
100
AcDbLine
 10
15.78111899999997
 20
95.98319900000004
 30
0.0
 11
15.78111899999997
 21
96.71490100000004
 31
0.0
  0
LINE
  5
5E
330
17
100
AcDbEntity
  8
0
100
AcDbLine
 10
15.78111899999997
 20
96.71490100000004
 30
0.0
 11
18.16990899999997
 21
99.10369100000004
 31
0.0
  0
LINE
  5
5F
330
17
100
AcDbEntity
  8
0
100
AcDbLine
 10
18.16990899999997
 20
99.10369100000004
 30
0.0
 11
16.03936599999997
 21
101.23423400000004
 31
0.0
  0
LINE
  5
60
330
17
100
AcDbEntity
  8
0
100
AcDbLine
 10
16.03936599999997
 20
101.23423400000004
 30
0.0
 11
16.03936599999997
 21
102.09348600000004
 31
0.0
  0
LINE
  5
61
330
17
100
AcDbEntity
  8
0
100
AcDbLine
 10
16.03936599999997
 20
102.09348600000004
 30
0.0
 11
16.05952799999997
 21
102.09548800000005
 31
0.0
  0
LINE
  5
62
330
17
100
AcDbEntity
  8
0
100
AcDbLine
 10
99.96196399999997
 20
108.50013700000005
 30
0.0
 11
129.97067199999998
 21
108.50013700000005
 31
0.0
  0
LINE
  5
63
330
17
100
AcDbEntity
  8
0
100
AcDbLine
 10
129.97067199999998
 20
108.50013700000005
 30
0.0
 11
129.21871299999998
 21
106.68557200000005
 31
0.0
  0
LINE
  5
64
330
17
100
AcDbEntity
  8
0
100
AcDbLine
 10
129.21871299999998
 20
106.68557200000005
 30
0.0
 11
135.23438499999997
 21
106.68557200000005
 31
0.0
  0
LINE
  5
65
330
17
100
AcDbEntity
  8
0
100
AcDbLine
 10
135.23438499999997
 20
106.68557200000005
 30
0.0
 11
135.23438499999997
 21
104.84584000000005
 31
0.0
  0
LINE
  5
66
330
17
100
AcDbEntity
  8
0
100
AcDbLine
 10
135.23438499999997
 20
104.84584000000005
 30
0.0
 11
137.89255299999996
 21
95.14739800000005
 31
0.0
  0
LINE
  5
67
330
17
100
AcDbEntity
  8
0
100
AcDbLine
 10
137.89255299999996
 20
95.14739800000005
 30
0.0
 11
137.92836599999995
 21
94.73923800000006
 31
0.0
  0
LINE
  5
68
330
17
100
AcDbEntity
  8
0
100
AcDbLine
 10
137.92836599999995
 20
94.73923800000006
 30
0.0
 11
107.55638899999995
 21
94.73923800000006
 31
0.0
  0
LINE
  5
69
330
17
100
AcDbEntity
  8
0
100
AcDbLine
 10
107.55638899999995
 20
94.73923800000006
 30
0.0
 11
103.62093299999995
 21
109.78147000000006
 31
0.0
  0
LINE
  5
6A
330
17
100
AcDbEntity
  8
0
100
AcDbLine
 10
103.62093299999995
 20
109.78147000000006
 30
0.0
 11
103.92039499999996
 21
109.78045300000005
 31
0.0
  0
LINE
  5
6B
330
17
100
AcDbEntity
  8
0
100
AcDbLine
 10
116.82663399999996
 20
90.85086700000005
 30
0.0
 11
132.66467599999996
 21
90.85086700000005
 31
0.0
  0
LINE
  5
6C
330
17
100
AcDbEntity
  8
0
100
AcDbLine
 10
132.66467599999996
 20
90.85086700000005
 30
0.0
 11
132.66467599999996
 21
87.08933200000006
 31
0.0
  0
LINE
  5
6D
330
17
100
AcDbEntity
  8
0
100
AcDbLine
 10
132.66467599999996
 20
87.08933200000006
 30
0.0
 11
116.82663399999996
 21
87.08933200000006
 31
0.0
  0
LINE
  5
6E
330
17
100
AcDbEntity
  8
0
100
AcDbLine
 10
116.82663399999996
 20
87.08933200000006
 30
0.0
 11
116.82663399999996
 21
90.85086700000005
 31
0.0
  0
LINE
  5
6F
330
17
100
AcDbEntity
  8
0
100
AcDbLine
 10
139.26929499999994
 20
107.97228300000005
 30
0.0
 11
139.26929499999994
 21
106.09055000000005
 31
0.0
  0
LINE
  5
70
330
17
100
AcDbEntity
  8
0
100
AcDbLine
 10
139.26929499999994
 20
106.09055000000005
 30
0.0
 11
143.05299399999996
 21
96.43908200000006
 31
0.0
  0
LINE
  5
71
330
17
100
AcDbEntity
  8
0
100
AcDbLine
 10
143.05299399999996
 20
96.43908200000006
 30
0.0
 11
112.63404299999996
 21
96.43908200000006
 31
0.0
  0
LINE
  5
72
330
17
100
AcDbEntity
  8
0
100
AcDbLine
 10
112.63404299999996
 20
96.43908200000006
 30
0.0
 11
112.06749999999997
 21
96.80328800000005
 31
0.0
  0
LINE
  5
73
330
17
100
AcDbEntity
  8
0
100
AcDbLine
 10
112.06749999999997
 20
96.80328800000005
 30
0.0
 11
111.87814899999996
 21
96.79910200000005
 31
0.0
  0
LINE
  5
74
330
17
100
AcDbEntity
  8
0
100
AcDbLine
 10
111.87814899999996
 20
96.79910200000005
 30
0.0
 11
23.885425999999967
 21
96.79910200000005
 31
0.0
  0
LINE
  5
75
330
17
100
AcDbEntity
  8
0
100
AcDbLine
 10
23.885425999999967
 20
96.79910200000005
 30
0.0
 11
24.897109999999966
 21
92.02395200000005
 31
0.0
  0
LINE
  5
76
330
17
100
AcDbEntity
  8
0
100
AcDbLine
 10
24.897109999999966
 20
92.02395200000005
 30
0.0
 11
24.913323999999967
 21
91.93329400000005
 31
0.0
  0
LINE
  5
77
330
17
100
AcDbEntity
  8
0
100
AcDbLine
 10
24.913323999999967
 20
91.93329400000005
 30
0.0
 11
28.039241999999966
 21
91.93329400000005
 31
0.0
  0
LINE
  5
78
330
17
100
AcDbEntity
  8
0
100
AcDbLine
 10
28.039241999999966
 20
91.93329400000005
 30
0.0
 11
46.422358999999965
 21
91.93329400000005
 31
0.0
  0
LINE
  5
79
330
17
100
AcDbEntity
  8
0
100
AcDbLine
 10
46.422358999999965
 20
91.93329400000005
 30
0.0
 11
46.65198999999996
 21
91.91811900000005
 31
0.0
  0
LINE
  5
7A
330
17
100
AcDbEntity
  8
0
100
AcDbLine
 10
46.65198999999996
 20
91.91811900000005
 30
0.0
 11
52.88425099999996
 21
91.72121600000004
 31
0.0
  0
LINE
  5
7B
330
17
100
AcDbEntity
  8
0
100
AcDbLine
 10
52.88425099999996
 20
91.72121600000004
 30
0.0
 11
52.88425099999996
 21
92.64224200000004
 31
0.0
  0
LINE
  5
7C
330
17
100
AcDbEntity
  8
0
100
AcDbLine
 10
52.88425099999996
 20
92.64224200000004
 30
0.0
 11
65.67951899999997
 21
92.64224200000004
 31
0.0
  0
LINE
  5
7D
330
17
100
AcDbEntity
  8
0
100
AcDbLine
 10
65.67951899999997
 20
92.64224200000004
 30
0.0
 11
66.68205199999997
 21
90.76801600000005
 31
0.0
  0
LINE
  5
7E
330
17
100
AcDbEntity
  8
0
100
AcDbLine
 10
66.68205199999997
 20
90.76801600000005
 30
0.0
 11
149.43496599999997
 21
90.76801600000005
 31
0.0
  0
LINE
  5
7F
330
17
100
AcDbEntity
  8
0
100
AcDbLine
 10
149.43496599999997
 20
90.76801600000005
 30
0.0
 11
149.43496599999997
 21
113.24599600000005
 31
0.0
  0
LINE
  5
80
330
17
100
AcDbEntity
  8
0
100
AcDbLine
 10
149.43496599999997
 20
113.24599600000005
 30
0.0
 11
142.35660799999997
 21
113.24599600000005
 31
0.0
  0
LINE
  5
81
330
17
100
AcDbEntity
  8
0
100
AcDbLine
 10
142.35660799999997
 20
113.24599600000005
 30
0.0
 11
142.87124399999996
 21
111.45742400000005
 31
0.0
  0
LINE
  5
82
330
17
100
AcDbEntity
  8
0
100
AcDbLine
 10
142.87124399999996
 20
111.45742400000005
 30
0.0
 11
142.20474799999997
 21
111.45742400000005
 31
0.0
  0
LINE
  5
83
330
17
100
AcDbEntity
  8
0
100
AcDbLine
 10
142.20474799999997
 20
111.45742400000005
 30
0.0
 11
142.20610599999998
 21
111.42718100000005
 31
0.0
  0
LINE
  5
84
330
17
100
AcDbEntity
  8
0
100
AcDbLine
 10
17.878798999999972
 20
89.33020900000005
 30
0.0
 11
6.7023299999999715
 21
89.33020900000005
 31
0.0
  0
LINE
  5
85
330
17
100
AcDbEntity
  8
0
100
AcDbLine
 10
6.7023299999999715
 20
89.33020900000005
 30
0.0
 11
5.7482009999999715
 21
92.73046900000006
 31
0.0
  0
LINE
  5
86
330
17
100
AcDbEntity
  8
0
100
AcDbLine
 10
5.7482009999999715
 20
92.73046900000006
 30
0.0
 11
5.7482009999999715
 21
111.96362400000005
 31
0.0
  0
LINE
  5
87
330
17
100
AcDbEntity
  8
0
100
AcDbLine
 10
5.7482009999999715
 20
111.96362400000005
 30
0.0
 11
7.229477999999972
 21
113.20960400000006
 31
0.0
  0
LINE
  5
88
330
17
100
AcDbEntity
  8
0
100
AcDbLine
 10
7.229477999999972
 20
113.20960400000006
 30
0.0
 11
10.028732999999972
 21
113.20960400000006
 31
0.0
  0
LINE
  5
89
330
17
100
AcDbEntity
  8
0
100
AcDbLine
 10
10.028732999999972
 20
113.20960400000006
 30
0.0
 11
9.503228999999973
 21
111.60027500000005
 31
0.0
  0
LINE
  5
8A
330
17
100
AcDbEntity
  8
0
100
AcDbLine
 10
9.503228999999973
 20
111.60027500000005
 30
0.0
 11
14.648161999999973
 21
111.60027500000005
 31
0.0
  0
LINE
  5
8B
330
17
100
AcDbEntity
  8
0
100
AcDbLine
 10
14.648161999999973
 20
111.60027500000005
 30
0.0
 11
14.508027999999973
 21
113.20738700000005
 31
0.0
  0
LINE
  5
8C
330
17
100
AcDbEntity
  8
0
100
AcDbLine
 10
14.508027999999973
 20
113.20738700000005
 30
0.0
 11
51.45866999999998
 21
113.20738700000005
 31
0.0
  0
LINE
  5
8D
330
17
100
AcDbEntity
  8
0
100
AcDbLine
 10
51.45866999999998
 20
113.20738700000005
 30
0.0
 11
51.60446999999998
 21
113.21064400000006
 31
0.0
  0
LINE
  5
8E
330
17
100
AcDbEntity
  8
0
100
AcDbLine
 10
51.60446999999998
 20
113.21064400000006
 30
0.0
 11
72.13765699999998
 21
113.21064400000006
 31
0.0
  0
LINE
  5
8F
330
17
100
AcDbEntity
  8
0
100
AcDbLine
 10
72.13765699999998
 20
113.21064400000006
 30
0.0
 11
72.15917099999997
 21
113.21059300000006
 31
0.0
  0
LINE
  5
90
330
17
100
AcDbEntity
  8
0
100
AcDbLine
 10
72.15917099999997
 20
113.21059300000006
 30
0.0
 11
100.04574899999997
 21
113.21059300000006
 31
0.0
  0
LINE
  5
91
330
17
100
AcDbEntity
  8
0
100
AcDbLine
 10
100.04574899999997
 20
113.21059300000006
 30
0.0
 11
103.89903099999998
 21
98.29715100000006
 31
0.0
  0
LINE
  5
92
330
17
100
AcDbEntity
  8
0
100
AcDbLine
 10
103.89903099999998
 20
98.29715100000006
 30
0.0
 11
16.275304999999975
 21
98.29715100000006
 31
0.0
  0
LINE
  5
93
330
17
100
AcDbEntity
  8
0
100
AcDbLine
 10
16.275304999999975
 20
98.29715100000006
 30
0.0
 11
17.295441999999973
 21
93.73347400000006
 31
0.0
  0
LINE
  5
94
330
17
100
AcDbEntity
  8
0
100
AcDbLine
 10
17.295441999999973
 20
93.73347400000006
 30
0.0
 11
17.309406999999972
 21
93.67100100000006
 31
0.0
  0
LINE
  5
95
330
17
100
AcDbEntity
  8
0
100
AcDbLine
 10
69.88398999999997
 20
89.94914700000007
 30
0.0
 11
93.06106899999997
 21
89.94914700000007
 31
0.0
  0
LINE
  5
96
330
17
100
AcDbEntity
  8
0
100
AcDbLine
 10
93.06106899999997
 20
89.94914700000007
 30
0.0
 11
93.06106899999997
 21
86.90344100000007
 31
0.0
  0
LINE
  5
97
330
17
100
AcDbEntity
  8
0
100
AcDbLine
 10
93.06106899999997
 20
86.90344100000007
 30
0.0
 11
69.88398999999998
 21
86.90344100000007
 31
0.0
  0
LINE
  5
98
330
17
100
AcDbEntity
  8
0
100
AcDbLine
 10
69.88398999999998
 20
86.90344100000007
 30
0.0
 11
69.88398999999998
 21
89.94914700000007
 31
0.0
  0
LINE
  5
99
330
17
100
AcDbEntity
  8
0
100
AcDbLine
 10
38.81029199999998
 20
82.51573400000007
 30
0.0
 11
40.79619599999998
 21
75.70692000000007
 31
0.0
  0
LINE
  5
9A
330
17
100
AcDbEntity
  8
0
100
AcDbLine
 10
40.79619599999998
 20
75.70692000000007
 30
0.0
 11
48.78709599999998
 21
75.70692000000007
 31
0.0
  0
LINE
  5
9B
330
17
100
AcDbEntity
  8
0
100
AcDbLine
 10
48.78709599999998
 20
75.70692000000007
 30
0.0
 11
59.10393999999998
 21
75.08832700000006
 31
0.0
  0
LINE
  5
9C
330
17
100
AcDbEntity
  8
0
100
AcDbLine
 10
59.10393999999998
 20
75.08832700000006
 30
0.0
 11
77.80844499999998
 21
74.55667400000006
 31
0.0
  0
LINE
  5
9D
330
17
100
AcDbEntity
  8
0
100
AcDbLine
 10
77.80844499999998
 20
74.55667400000006
 30
0.0
 11
77.79983299999998
 21
73.82708500000005
 31
0.0
  0
LINE
  5
9E
330
17
100
AcDbEntity
  8
0
100
AcDbLine
 10
77.79983299999998
 20
73.82708500000005
 30
0.0
 11
77.92499599999998
 21
73.82867000000006
 31
0.0
  0
LINE
  5
9F
330
17
100
AcDbEntity
  8
0
100
AcDbLine
 10
77.92499599999998
 20
73.82867000000006
 30
0.0
 11
79.67524599999997
 21
70.49290000000006
 31
0.0
  0
LINE
  5
A0
330
17
100
AcDbEntity
  8
0
100
AcDbLine
 10
79.67524599999997
 20
70.49290000000006
 30
0.0
 11
81.13035499999997
 21
65.35197100000006
 31
0.0
  0
LINE
  5
A1
330
17
100
AcDbEntity
  8
0
100
AcDbLine
 10
81.13035499999997
 20
65.35197100000006
 30
0.0
 11
78.74344799999997
 21
65.39687800000006
 31
0.0
  0
LINE
  5
A2
330
17
100
AcDbEntity
  8
0
100
AcDbLine
 10
78.74344799999997
 20
65.39687800000006
 30
0.0
 11
78.58581499999997
 21
65.39446000000005
 31
0.0
  0
LINE
  5
A3
330
17
100
AcDbEntity
  8
0
100
AcDbLine
 10
78.58581499999997
 20
65.39446000000005
 30
0.0
 11
78.42108599999997
 21
64.48844800000005
 31
0.0
  0
LINE
  5
A4
330
17
100
AcDbEntity
  8
0
100
AcDbLine
 10
78.42108599999997
 20
64.48844800000005
 30
0.0
 11
104.30189999999997
 21
64.92515200000005
 31
0.0
  0
LINE
  5
A5
330
17
100
AcDbEntity
  8
0
100
AcDbLine
 10
104.30189999999997
 20
64.92515200000005
 30
0.0
 11
105.05290599999998
 21
65.01180700000005
 31
0.0
  0
LINE
  5
A6
330
17
100
AcDbEntity
  8
0
100
AcDbLine
 10
105.05290599999998
 20
65.01180700000005
 30
0.0
 11
105.68837199999997
 21
63.018753000000046
 31
0.0
  0
LINE
  5
A7
330
17
100
AcDbEntity
  8
0
100
AcDbLine
 10
105.68837199999997
 20
63.018753000000046
 30
0.0
 11
105.74648899999997
 21
63.02024900000005
 31
0.0
  0
LINE
  5
A8
330
17
100
AcDbEntity
  8
0
100
AcDbLine
 10
105.74648899999997
 20
63.02024900000005
 30
0.0
 11
98.49026199999997
 21
73.27007600000005
 31
0.0
  0
LINE
  5
A9
330
17
100
AcDbEntity
  8
0
100
AcDbLine
 10
98.49026199999997
 20
73.27007600000005
 30
0.0
 11
88.44685499999997
 21
87.55780700000005
 31
0.0
  0
LINE
  5
AA
330
17
100
AcDbEntity
  8
0
100
AcDbLine
 10
88.44685499999997
 20
87.55780700000005
 30
0.0
 11
88.87514599999997
 21
87.55179300000006
 31
0.0
  0
LINE
  5
AB
330
17
100
AcDbEntity
  8
0
100
AcDbLine
 10
88.87514599999997
 20
87.55179300000006
 30
0.0
 11
89.21824499999997
 21
87.53594500000005
 31
0.0
  0
LINE
  5
AC
330
17
100
AcDbEntity
  8
0
100
AcDbLine
 10
89.21824499999997
 20
87.53594500000005
 30
0.0
 11
89.21824499999997
 21
91.07426600000005
 31
0.0
  0
LINE
  5
AD
330
17
100
AcDbEntity
  8
0
100
AcDbLine
 10
89.21824499999997
 20
91.07426600000005
 30
0.0
 11
89.23892199999997
 21
91.41156000000005
 31
0.0
  0
LINE
  5
AE
330
17
100
AcDbEntity
  8
0
100
AcDbLine
 10
89.23892199999997
 20
91.41156000000005
 30
0.0
 11
89.10082799999998
 21
91.41441500000005
 31
0.0
  0
LINE
  5
AF
330
17
100
AcDbEntity
  8
0
100
AcDbLine
 10
89.10082799999998
 20
91.41441500000005
 30
0.0
 11
6.043622999999982
 21
91.41441500000005
 31
0.0
  0
LINE
  5
B0
330
17
100
AcDbEntity
  8
0
100
AcDbLine
 10
6.043622999999982
 20
91.41441500000005
 30
0.0
 11
-7.127434000000017
 21
91.41441500000005
 31
0.0
  0
LINE
  5
B1
330
17
100
AcDbEntity
  8
0
100
AcDbLine
 10
-7.127434000000017
 20
91.41441500000005
 30
0.0
 11
-7.468332000000017
 21
92.90584500000004
 31
0.0
  0
LINE
  5
B2
330
17
100
AcDbEntity
  8
0
100
AcDbLine
 10
-7.468332000000017
 20
92.90584500000004
 30
0.0
 11
-47.30309600000002
 21
92.90584500000004
 31
0.0
  0
LINE
  5
B3
330
17
100
AcDbEntity
  8
0
100
AcDbLine
 10
-47.30309600000002
 20
92.90584500000004
 30
0.0
 11
-47.30309600000002
 21
82.41829000000004
 31
0.0
  0
LINE
  5
B4
330
17
100
AcDbEntity
  8
0
100
AcDbLine
 10
-47.30309600000002
 20
82.41829000000004
 30
0.0
 11
-46.89449000000002
 21
81.92796300000005
 31
0.0
  0
LINE
  5
B5
330
17
100
AcDbEntity
  8
0
100
AcDbLine
 10
-46.89449000000002
 20
81.92796300000005
 30
0.0
 11
-16.16731500000002
 21
81.92796300000005
 31
0.0
  0
LINE
  5
B6
330
17
100
AcDbEntity
  8
0
100
AcDbLine
 10
-16.16731500000002
 20
81.92796300000005
 30
0.0
 11
-14.12018600000002
 21
81.92446000000005
 31
0.0
  0
LINE
  5
B7
330
17
100
AcDbEntity
  8
0
100
AcDbLine
 10
59.984554999999986
 20
51.79342800000005
 30
0.0
 11
74.37213499999999
 21
21.797025000000048
 31
0.0
  0
LINE
  5
B8
330
17
100
AcDbEntity
  8
0
100
AcDbLine
 10
74.37213499999999
 20
21.797025000000048
 30
0.0
 11
76.91957699999999
 21
23.034354000000047
 31
0.0
  0
LINE
  5
B9
330
17
100
AcDbEntity
  8
0
100
AcDbLine
 10
76.91957699999999
 20
23.034354000000047
 30
0.0
 11
62.34310099999999
 21
53.13299800000004
 31
0.0
  0
LINE
  5
BA
330
17
100
AcDbEntity
  8
0
100
AcDbLine
 10
62.34310099999999
 20
53.13299800000004
 30
0.0
 11
59.98455399999999
 21
51.79342800000004
 31
0.0
  0
LINE
  5
BB
330
17
100
AcDbEntity
  8
0
100
AcDbLine
 10
43.10873099999999
 20
49.63750400000004
 30
0.0
 11
45.82025899999999
 21
50.707458000000045
 31
0.0
  0
LINE
  5
BC
330
17
100
AcDbEntity
  8
0
100
AcDbLine
 10
45.82025899999999
 20
50.707458000000045
 30
0.0
 11
48.152494999999995
 21
46.065150000000045
 31
0.0
  0
LINE
  5
BD
330
17
100
AcDbEntity
  8
0
100
AcDbLine
 10
48.152494999999995
 20
46.065150000000045
 30
0.0
 11
48.152286999999994
 21
46.00748300000004
 31
0.0
  0
LINE
  5
BE
330
17
100
AcDbEntity
  8
0
100
AcDbLine
 10
48.152286999999994
 20
46.00748300000004
 30
0.0
 11
51.529095999999996
 21
39.06582700000004
 31
0.0
  0
LINE
  5
BF
330
17
100
AcDbEntity
  8
0
100
AcDbLine
 10
51.529095999999996
 20
39.06582700000004
 30
0.0
 11
51.016104
 21
39.915928000000044
 31
0.0
  0
LINE
  5
C0
330
17
100
AcDbEntity
  8
0
100
AcDbLine
 10
51.016104
 20
39.915928000000044
 30
0.0
 11
77.06527
 21
40.31865500000004
 31
0.0
  0
LINE
  5
C1
330
17
100
AcDbEntity
  8
0
100
AcDbLine
 10
77.06527
 20
40.31865500000004
 30
0.0
 11
77.856505
 21
40.40305300000004
 31
0.0
  0
LINE
  5
C2
330
17
100
AcDbEntity
  8
0
100
AcDbLine
 10
77.856505
 20
40.40305300000004
 30
0.0
 11
77.917039
 21
40.33804600000004
 31
0.0
  0
LINE
  5
C3
330
17
100
AcDbEntity
  8
0
100
AcDbLine
 10
77.917039
 20
40.33804600000004
 30
0.0
 11
78.53398800000001
 21
38.33898600000004
 31
0.0
  0
LINE
  5
C4
330
17
100
AcDbEntity
  8
0
100
AcDbLine
 10
78.53398800000001
 20
38.33898600000004
 30
0.0
 11
78.91831900000001
 21
38.33403000000004
 31
0.0
  0
LINE
  5
C5
330
17
100
AcDbEntity
  8
0
100
AcDbLine
 10
78.91831900000001
 20
38.33403000000004
 30
0.0
 11
82.60156500000001
 21
38.33403000000004
 31
0.0
  0
LINE
  5
C6
330
17
100
AcDbEntity
  8
0
100
AcDbLine
 10
82.60156500000001
 20
38.33403000000004
 30
0.0
 11
78.98781400000001
 21
38.33403000000004
 31
0.0
  0
LINE
  5
C7
330
17
100
AcDbEntity
  8
0
100
AcDbLine
 10
78.98781400000001
 20
38.33403000000004
 30
0.0
 11
81.74016700000001
 21
40.31421400000004
 31
0.0
  0
LINE
  5
C8
330
17
100
AcDbEntity
  8
0
100
AcDbLine
 10
81.74016700000001
 20
40.31421400000004
 30
0.0
 11
81.97153500000002
 21
40.31248100000004
 31
0.0
  0
LINE
  5
C9
330
17
100
AcDbEntity
  8
0
100
AcDbLine
 10
81.97153500000002
 20
40.31248100000004
 30
0.0
 11
81.97153500000002
 21
44.24446500000004
 31
0.0
  0
LINE
  5
CA
330
17
100
AcDbEntity
  8
0
100
AcDbLine
 10
81.97153500000002
 20
44.24446500000004
 30
0.0
 11
-1.3037359999999865
 21
44.24446500000004
 31
0.0
  0
LINE
  5
CB
330
17
100
AcDbEntity
  8
0
100
AcDbLine
 10
-1.3037359999999865
 20
44.24446500000004
 30
0.0
 11
-14.649745999999986
 21
44.24446500000004
 31
0.0
  0
LINE
  5
CC
330
17
100
AcDbEntity
  8
0
100
AcDbLine
 10
-14.649745999999986
 20
44.24446500000004
 30
0.0
 11
-14.992982999999986
 21
44.22164800000004
 31
0.0
  0
LINE
  5
CD
330
17
100
AcDbEntity
  8
0
100
AcDbLine
 10
-14.992982999999986
 20
44.22164800000004
 30
0.0
 11
-15.328875999999987
 21
45.645370000000035
 31
0.0
  0
LINE
  5
CE
330
17
100
AcDbEntity
  8
0
100
AcDbLine
 10
-15.328875999999987
 20
45.645370000000035
 30
0.0
 11
-55.06876399999999
 21
45.645370000000035
 31
0.0
  0
LINE
  5
CF
330
17
100
AcDbEntity
  8
0
100
AcDbLine
 10
-55.06876399999999
 20
45.645370000000035
 30
0.0
 11
-55.06876399999999
 21
35.216800000000035
 31
0.0
  0
LINE
  5
D0
330
17
100
AcDbEntity
  8
0
100
AcDbLine
 10
-55.06876399999999
 20
35.216800000000035
 30
0.0
 11
-54.66759399999999
 21
34.717250000000035
 31
0.0
  0
LINE
  5
D1
330
17
100
AcDbEntity
  8
0
100
AcDbLine
 10
-54.66759399999999
 20
34.717250000000035
 30
0.0
 11
-21.86814599999999
 21
34.717250000000035
 31
0.0
  0
LINE
  5
D2
330
17
100
AcDbEntity
  8
0
100
AcDbLine
 10
-21.86814599999999
 20
34.717250000000035
 30
0.0
 11
-19.874734999999987
 21
27.913727000000037
 31
0.0
  0
LINE
  5
D3
330
17
100
AcDbEntity
  8
0
100
AcDbLine
 10
-19.874734999999987
 20
27.913727000000037
 30
0.0
 11
-11.869916999999987
 21
27.913727000000037
 31
0.0
  0
LINE
  5
D4
330
17
100
AcDbEntity
  8
0
100
AcDbLine
 10
-11.869916999999987
 20
27.913727000000037
 30
0.0
 11
8.019224000000012
 21
27.008573000000037
 31
0.0
  0
LINE
  5
D5
330
17
100
AcDbEntity
  8
0
100
AcDbLine
 10
8.019224000000012
 20
27.008573000000037
 30
0.0
 11
17.031079000000013
 21
26.753185000000038
 31
0.0
  0
LINE
  5
D6
330
17
100
AcDbEntity
  8
0
100
AcDbLine
 10
17.031079000000013
 20
26.753185000000038
 30
0.0
 11
16.91477700000001
 21
24.171281000000036
 31
0.0
  0
LINE
  5
D7
330
17
100
AcDbEntity
  8
0
100
AcDbLine
 10
16.91477700000001
 20
24.171281000000036
 30
0.0
 11
16.912863000000012
 21
23.995047000000035
 31
0.0
  0
LINE
  5
D8
330
17
100
AcDbEntity
  8
0
100
AcDbLine
 10
-72.65753899999999
 20
66.89497200000004
 30
0.0
 11
-70.87627599999999
 21
58.87928700000004
 31
0.0
  0
LINE
  5
D9
330
17
100
AcDbEntity
  8
0
100
AcDbLine
 10
-70.87627599999999
 20
58.87928700000004
 30
0.0
 11
-45.275499999999994
 21
58.87928700000004
 31
0.0
  0
LINE
  5
DA
330
17
100
AcDbEntity
  8
0
100
AcDbLine
 10
-45.275499999999994
 20
58.87928700000004
 30
0.0
 11
-45.275499999999994
 21
61.18507700000004
 31
0.0
  0
LINE
  5
DB
330
17
100
AcDbEntity
  8
0
100
AcDbLine
 10
-45.275499999999994
 20
61.18507700000004
 30
0.0
 11
-60.027500999999994
 21
61.18507700000004
 31
0.0
  0
LINE
  5
DC
330
17
100
AcDbEntity
  8
0
100
AcDbLine
 10
-60.027500999999994
 20
61.18507700000004
 30
0.0
 11
-60.90119599999999
 21
65.93820600000004
 31
0.0
  0
LINE
  5
DD
330
17
100
AcDbEntity
  8
0
100
AcDbLine
 10
-60.90119599999999
 20
65.93820600000004
 30
0.0
 11
-72.03115299999999
 21
65.93820600000004
 31
0.0
  0
LINE
  5
DE
330
17
100
AcDbEntity
  8
0
100
AcDbLine
 10
-72.03115299999999
 20
65.93820600000004
 30
0.0
 11
-71.95774899999999
 21
65.70391800000003
 31
0.0
  0
LINE
  5
DF
330
17
100
AcDbEntity
  8
0
100
AcDbLine
 10
14.296793000000008
 20
33.89140900000003
 30
0.0
 11
14.019149000000008
 21
33.90125300000003
 31
0.0
  0
LINE
  5
E0
330
17
100
AcDbEntity
  8
0
100
AcDbLine
 10
14.019149000000008
 20
33.90125300000003
 30
0.0
 11
14.028993000000007
 21
33.62360900000003
 31
0.0
  0
LINE
  5
E1
330
17
100
AcDbEntity
  8
0
100
AcDbLine
 10
-21.225412999999996
 20
54.88535100000003
 30
0.0
 11
-21.379721999999997
 21
54.89082200000003
 31
0.0
  0
LINE
  5
E2
330
17
100
AcDbEntity
  8
0
100
AcDbLine
 10
-21.379721999999997
 20
54.89082200000003
 30
0.0
 11
-21.374250999999997
 21
54.73651300000003
 31
0.0
  0
LINE
  5
E3
330
17
100
AcDbEntity
  8
0
100
AcDbLine
 10
-21.374250999999997
 20
54.73651300000003
 30
0.0
 11
-21.354549999999996
 21
55.01966300000003
 31
0.0
  0
LINE
  5
E4
330
17
100
AcDbEntity
  8
0
100
AcDbLine
 10
-6.397351999999996
 20
54.19701700000003
 30
0.0
 11
-6.551660999999996
 21
54.20248800000003
 31
0.0
  0
LINE
  5
E5
330
17
100
AcDbEntity
  8
0
100
AcDbLine
 10
-6.551660999999996
 20
54.20248800000003
 30
0.0
 11
-6.546189999999996
 21
54.04817900000003
 31
0.0
  0
LINE
  5
E6
330
17
100
AcDbEntity
  8
0
100
AcDbLine
 10
-6.546189999999996
 20
54.04817900000003
 30
0.0
 11
-6.526488999999995
 21
54.33132900000003
 31
0.0
  0
LINE
  5
E7
330
17
100
AcDbEntity
  8
0
100
AcDbLine
 10
12.448421000000007
 20
39.29956400000003
 30
0.0
 11
12.376039000000008
 21
39.302130000000034
 31
0.0
  0
LINE
  5
E8
330
17
100
AcDbEntity
  8
0
100
AcDbLine
 10
12.376039000000008
 20
39.302130000000034
 30
0.0
 11
12.378605000000007
 21
39.229748000000036
 31
0.0
  0
LINE
  5
E9
330
17
100
AcDbEntity
  8
0
100
AcDbLine
 10
12.378605000000007
 20
39.229748000000036
 30
0.0
 11
12.387846000000007
 21
39.36256600000004
 31
0.0
  0
LINE
  5
EA
330
17
100
AcDbEntity
  8
0
100
AcDbLine
 10
61.597294000000005
 20
55.44966000000004
 30
0.0
 11
61.608059000000004
 21
54.89316800000004
 31
0.0
  0
LINE
  5
EB
330
17
100
AcDbEntity
  8
0
100
AcDbLine
 10
61.608059000000004
 20
54.89316800000004
 30
0.0
 11
62.62389
 21
53.68922000000004
 31
0.0
  0
LINE
  5
EC
330
17
100
AcDbEntity
  8
0
100
AcDbLine
 10
31.450803000000004
 20
64.25338800000004
 30
0.0
 11
15.382969000000003
 21
64.25338800000004
 31
0.0
  0
LINE
  5
ED
330
17
100
AcDbEntity
  8
0
100
AcDbLine
 10
15.382969000000003
 20
64.25338800000004
 30
0.0
 11
16.278113
 21
60.47140500000005
 31
0.0
  0
LINE
  5
EE
330
17
100
AcDbEntity
  8
0
100
AcDbLine
 10
16.278113
 20
60.47140500000005
 30
0.0
 11
24.781981000000002
 21
60.986113000000046
 31
0.0
  0
LINE
  5
EF
330
17
100
AcDbEntity
  8
0
100
AcDbLine
 10
24.781981000000002
 20
60.986113000000046
 30
0.0
 11
24.334409
 21
63.358245000000046
 31
0.0
  0
LINE
  5
F0
330
17
100
AcDbEntity
  8
0
100
AcDbLine
 10
24.334409
 20
63.358245000000046
 30
0.0
 11
24.389373
 21
63.357199000000044
 31
0.0
  0
LINE
  5
F1
330
17
100
AcDbEntity
  8
0
100
AcDbLine
 10
24.389373
 20
63.357199000000044
 30
0.0
 11
24.389329999999998
 21
63.36840900000004
 31
0.0
  0
LINE
  5
F2
330
17
100
AcDbEntity
  8
0
100
AcDbLine
 10
24.389329999999998
 20
63.36840900000004
 30
0.0
 11
24.501222999999996
 21
64.84539700000005
 31
0.0
  0
LINE
  5
F3
330
17
100
AcDbEntity
  8
0
100
AcDbLine
 10
52.77025499999999
 20
58.547144000000046
 30
0.0
 11
52.65278999999999
 21
58.55205600000004
 31
0.0
  0
LINE
  5
F4
330
17
100
AcDbEntity
  8
0
100
AcDbLine
 10
52.65278999999999
 20
58.55205600000004
 30
0.0
 11
52.657701999999986
 21
58.43459100000004
 31
0.0
  0
ENDSEC
  0
SECTION
  2
OBJECTS
  0
DICTIONARY
  5
A
330
0
100
AcDbDictionary
281
1
  3
ACAD_COLOR
350
B
  3
ACAD_GROUP
350
C
  3
ACAD_LAYOUT
350
D
  3
ACAD_MATERIAL
350
E
  3
ACAD_MLEADERSTYLE
350
F
  3
ACAD_MLINESTYLE
350
10
  3
ACAD_PLOTSETTINGS
350
11
  3
ACAD_PLOTSTYLENAME
350
12
  3
ACAD_SCALELIST
350
14
  3
ACAD_TABLESTYLE
350
15
  3
ACAD_VISUALSTYLE
350
16
  3
EZDXF_META
350
2D
  0
DICTIONARY
  5
B
330
A
100
AcDbDictionary
281
1
  0
DICTIONARY
  5
C
330
A
100
AcDbDictionary
281
1
  0
DICTIONARY
  5
D
330
A
100
AcDbDictionary
281
1
  3
Model
350
1A
  3
Layout1
350
1E
  0
DICTIONARY
  5
E
330
A
100
AcDbDictionary
281
1
  3
ByBlock
350
1F
  3
ByLayer
350
20
  3
Global
350
21
  0
DICTIONARY
  5
F
330
A
100
AcDbDictionary
281
1
  3
Standard
350
2C
  0
DICTIONARY
  5
10
330
A
100
AcDbDictionary
281
1
  3
Standard
350
22
  0
DICTIONARY
  5
11
330
A
100
AcDbDictionary
281
1
  0
ACDBDICTIONARYWDFLT
  5
12
330
A
100
AcDbDictionary
281
1
  3
Normal
350
13
100
AcDbDictionaryWithDefault
340
13
  0
ACDBPLACEHOLDER
  5
13
330
12
  0
DICTIONARY
  5
14
330
A
100
AcDbDictionary
281
1
  0
DICTIONARY
  5
15
330
A
100
AcDbDictionary
281
1
  0
DICTIONARY
  5
16
330
A
100
AcDbDictionary
281
1
  0
LAYOUT
  5
1A
330
D
100
AcDbPlotSettings
  1

  4
A3
  6

 40
7.5
 41
20.0
 42
7.5
 43
20.0
 44
420.0
 45
297.0
 46
0.0
 47
0.0
 48
0.0
 49
0.0
140
0.0
141
0.0
142
1.0
143
1.0
 70
1024
 72
1
 73
0
 74
5
  7

 75
16
 76
0
 77
2
 78
300
147
1.0
148
0.0
149
0.0
100
AcDbLayout
  1
Model
 70
1
 71
0
 10
0.0
 20
0.0
 11
420.0
 21
297.0
 12
0.0
 22
0.0
 32
0.0
 14
1e+20
 24
1e+20
 34
1e+20
 15
-1e+20
 25
-1e+20
 35
-1e+20
146
0.0
 13
0.0
 23
0.0
 33
0.0
 16
1.0
 26
0.0
 36
0.0
 17
0.0
 27
1.0
 37
0.0
 76
1
330
17
  0
LAYOUT
  5
1E
330
D
100
AcDbPlotSettings
  1

  4
A3
  6

 40
7.5
 41
20.0
 42
7.5
 43
20.0
 44
420.0
 45
297.0
 46
0.0
 47
0.0
 48
0.0
 49
0.0
140
0.0
141
0.0
142
1.0
143
1.0
 70
0
 72
1
 73
0
 74
5
  7

 75
16
 76
0
 77
2
 78
300
147
1.0
148
0.0
149
0.0
100
AcDbLayout
  1
Layout1
 70
1
 71
1
 10
0.0
 20
0.0
 11
420.0
 21
297.0
 12
0.0
 22
0.0
 32
0.0
 14
1e+20
 24
1e+20
 34
1e+20
 15
-1e+20
 25
-1e+20
 35
-1e+20
146
0.0
 13
0.0
 23
0.0
 33
0.0
 16
1.0
 26
0.0
 36
0.0
 17
0.0
 27
1.0
 37
0.0
 76
1
330
1B
  0
MATERIAL
  5
1F
102
{ACAD_REACTORS
330
E
102
}
330
E
100
AcDbMaterial
  1
ByBlock
  2

 70
0
 40
1.0
 71
1
 41
1.0
 91
-1023410177
 42
1.0
 72
1
  3

 73
1
 74
1
 75
1
 44
0.5
 73
0
 45
1.0
 46
1.0
 77
1
  4

 78
1
 79
1
170
1
 48
1.0
171
1
  6

172
1
173
1
174
1
140
1.0
141
1.0
175
1
  7

176
1
177
1
178
1
143
1.0
179
1
  8

270
1
271
1
272
1
145
1.0
146
1.0
273
1
  9

274
1
275
1
276
1
 42
1.0
 72
1
  3

 73
1
 74
1
 75
1
 94
63
  0
MATERIAL
  5
20
102
{ACAD_REACTORS
330
E
102
}
330
E
100
AcDbMaterial
  1
ByLayer
  2

 70
0
 40
1.0
 71
1
 41
1.0
 91
-1023410177
 42
1.0
 72
1
  3

 73
1
 74
1
 75
1
 44
0.5
 73
0
 45
1.0
 46
1.0
 77
1
  4

 78
1
 79
1
170
1
 48
1.0
171
1
  6

172
1
173
1
174
1
140
1.0
141
1.0
175
1
  7

176
1
177
1
178
1
143
1.0
179
1
  8

270
1
271
1
272
1
145
1.0
146
1.0
273
1
  9

274
1
275
1
276
1
 42
1.0
 72
1
  3

 73
1
 74
1
 75
1
 94
63
  0
MATERIAL
  5
21
102
{ACAD_REACTORS
330
E
102
}
330
E
100
AcDbMaterial
  1
Global
  2

 70
0
 40
1.0
 71
1
 41
1.0
 91
-1023410177
 42
1.0
 72
1
  3

 73
1
 74
1
 75
1
 44
0.5
 73
0
 45
1.0
 46
1.0
 77
1
  4

 78
1
 79
1
170
1
 48
1.0
171
1
  6

172
1
173
1
174
1
140
1.0
141
1.0
175
1
  7

176
1
177
1
178
1
143
1.0
179
1
  8

270
1
271
1
272
1
145
1.0
146
1.0
273
1
  9

274
1
275
1
276
1
 42
1.0
 72
1
  3

 73
1
 74
1
 75
1
 94
63
  0
MLINESTYLE
  5
22
102
{ACAD_REACTORS
330
10
102
}
330
10
100
AcDbMlineStyle
  2
Standard
 70
0
  3

 62
256
 51
90.0
 52
90.0
 71
2
 49
0.5
 62
256
  6
BYLAYER
 49
-0.5
 62
256
  6
BYLAYER
  0
MLEADERSTYLE
  5
2C
102
{ACAD_REACTORS
330
F
102
}
330
F
100
AcDbMLeaderStyle
179
2
170
2
171
1
172
0
 90
2
 40
0.0
 41
0.0
173
1
 91
-1056964608
 92
-2
290
1
 42
2.0
291
1
 43
8.0
  3
Standard
 44
4.0
300

342
29
174
1
175
1
176
0
178
1
 93
-1056964608
 45
4.0
292
0
297
0
 46
4.0
 94
-1056964608
 47
1.0
 49
1.0
140
1.0
294
1
141
0.0
177
0
142
1.0
295
0
296
0
143
3.75
271
0
272
9
273
9
  0
DICTIONARY
  5
2D
330
A
100
AcDbDictionary
280
1
281
1
  3
CREATED_BY_EZDXF
350
2E
  3
WRITTEN_BY_EZDXF
350
F7
  0
DICTIONARYVAR
  5
2E
330
2D
100
DictionaryVariables
280
0
  1
1.4.3 @ 2026-04-08T00:10:10.694285+00:00
  0
DICTIONARYVAR
  5
F7
330
2D
100
DictionaryVariables
280
0
  1
1.4.3 @ 2026-04-08T00:10:10.696439+00:00
  0
ENDSEC
  0
EOF
