0
SECTION
2
HEADER
9
$FILLMODE
70
1
9
$EXTMIN
10
99.48921
20
82.06169
30
0.0
9
$EXTMAX
10
165.3989
20
154.6424
30
0.0
9
$LIMMIN
10
99.48921
20
82.06169
9
$LIMMAX
10
165.3989
20
154.6424
0
ENDSEC
0
SECTION
2
TABLES
0
TABLE
2
STYLE
70
1
0
STYLE
2
STANDARD
70
0
40
0
41
1
50
0
71
0
42
0.2
3
txt
4

0
ENDTAB
0
TABLE
2
LTYPE
70
2
0
LTYPE
2
CONTINUOUS
70
64
3
Solid Line
72
65
73
0
40
0.0
0
ENDTAB
0
ENDSEC
0
SECTION
2
BLOCKS
0
ENDSEC
0
SECTION
2
ENTITIES
0
POLYLINE
8
0
62
255
70
1
40
0.000000000000000
41
0.000000000000000
66
1
0
VERTEX
8
0
10
108.058952901165
20
85.5152799544869
42
-0.088711319337475
0
VERTEX
8
0
10
107.387924462600
20
85.7286969382649
0
VERTEX
8
0
10
100.556996940159
20
89.3274962791002
42
-0.398215136145124
0
VERTEX
8
0
10
99.6712484887980
20
91.9306167473547
0
VERTEX
8
0
10
125.054524613784
20
147.283663016995
42
0.066299288349734
0
VERTEX
8
0
10
125.209346184910
20
147.788530813163
0
VERTEX
8
0
10
126.071829337129
20
152.963429726478
42
-0.366567007939720
0
VERTEX
8
0
10
128.044177431066
20
154.634631703522
0
VERTEX
8
0
10
163.398483097236
20
154.642405297556
42
-0.541310525013809
0
VERTEX
8
0
10
165.230304142619
20
151.838637615414
0
VERTEX
8
0
10
160.416070267808
20
140.869426588946
0
VERTEX
8
0
10
149.725562245761
20
144.627448738844
0
VERTEX
8
0
10
146.129300210831
20
134.397102402313
0
VERTEX
8
0
10
156.212216091130
20
130.851101126721
0
VERTEX
8
0
10
136.252909489880
20
83.2877978971460
42
-0.338185914061346
0
VERTEX
8
0
10
134.147516762053
20
82.0788215810781
0
VERTEX
8
0
10
108.058952901165
20
85.5152799544869
0
SEQEND
0
ENDSEC
0
EOF
