  0
SECTION
  2
HEADER
  9
$ACADVER
  1
AC1024
  9
$ACADMAINTVER
 70
6
  9
$DWGCODEPAGE
  3
ANSI_1252
  9
$LASTSAVEDBY
  1
ezdxf
  9
$INSBASE
 10
0.0
 20
0.0
 30
0.0
  9
$EXTMIN
 10
1e+20
 20
1e+20
 30
1e+20
  9
$EXTMAX
 10
-1e+20
 20
-1e+20
 30
-1e+20
  9
$LIMMIN
 10
0.0
 20
0.0
  9
$LIMMAX
 10
420.0
 20
297.0
  9
$ORTHOMODE
 70
0
  9
$REGENMODE
 70
1
  9
$FILLMODE
 70
1
  9
$QTEXTMODE
 70
0
  9
$MIRRTEXT
 70
1
  9
$LTSCALE
 40
1.0
  9
$ATTMODE
 70
1
  9
$TEXTSIZE
 40
2.5
  9
$TRACEWID
 40
1.0
  9
$TEXTSTYLE
  7
Standard
  9
$CLAYER
  8
0
  9
$CELTYPE
  6
ByLayer
  9
$CECOLOR
 62
256
  9
$CELTSCALE
 40
1.0
  9
$DISPSILH
 70
0
  9
$DIMSCALE
 40
1.0
  9
$DIMASZ
 40
2.5
  9
$DIMEXO
 40
0.625
  9
$DIMDLI
 40
3.75
  9
$DIMRND
 40
0.0
  9
$DIMDLE
 40
0.0
  9
$DIMEXE
 40
1.25
  9
$DIMTP
 40
0.0
  9
$DIMTM
 40
0.0
  9
$DIMTXT
 40
2.5
  9
$DIMCEN
 40
2.5
  9
$DIMTSZ
 40
0.0
  9
$DIMTOL
 70
0
  9
$DIMLIM
 70
0
  9
$DIMTIH
 70
0
  9
$DIMTOH
 70
0
  9
$DIMSE1
 70
0
  9
$DIMSE2
 70
0
  9
$DIMTAD
 70
1
  9
$DIMZIN
 70
8
  9
$DIMBLK
  1

  9
$DIMASO
 70
1
  9
$DIMSHO
 70
1
  9
$DIMPOST
  1

  9
$DIMAPOST
  1

  9
$DIMALT
 70
0
  9
$DIMALTD
 70
3
  9
$DIMALTF
 40
0.03937007874
  9
$DIMLFAC
 40
1.0
  9
$DIMTOFL
 70
1
  9
$DIMTVP
 40
0.0
  9
$DIMTIX
 70
0
  9
$DIMSOXD
 70
0
  9
$DIMSAH
 70
0
  9
$DIMBLK1
  1

  9
$DIMBLK2
  1

  9
$DIMSTYLE
  2
ISO-25
  9
$DIMCLRD
 70
0
  9
$DIMCLRE
 70
0
  9
$DIMCLRT
 70
0
  9
$DIMTFAC
 40
1.0
  9
$DIMGAP
 40
0.625
  9
$DIMJUST
 70
0
  9
$DIMSD1
 70
0
  9
$DIMSD2
 70
0
  9
$DIMTOLJ
 70
0
  9
$DIMTZIN
 70
8
  9
$DIMALTZ
 70
0
  9
$DIMALTTZ
 70
0
  9
$DIMUPT
 70
0
  9
$DIMDEC
 70
2
  9
$DIMTDEC
 70
2
  9
$DIMALTU
 70
2
  9
$DIMALTTD
 70
3
  9
$DIMTXSTY
  7
Standard
  9
$DIMAUNIT
 70
0
  9
$DIMADEC
 70
0
  9
$DIMALTRND
 40
0.0
  9
$DIMAZIN
 70
0
  9
$DIMDSEP
 70
44
  9
$DIMATFIT
 70
3
  9
$DIMFRAC
 70
0
  9
$DIMLDRBLK
  1

  9
$DIMLUNIT
 70
2
  9
$DIMLWD
 70
-2
  9
$DIMLWE
 70
-2
  9
$DIMTMOVE
 70
0
  9
$DIMFXL
 40
1.0
  9
$DIMFXLON
 70
0
  9
$DIMJOGANG
 40
0.785398163397
  9
$DIMTFILL
 70
0
  9
$DIMTFILLCLR
 70
0
  9
$DIMARCSYM
 70
0
  9
$DIMLTYPE
  6

  9
$DIMLTEX1
  6

  9
$DIMLTEX2
  6

  9
$DIMTXTDIRECTION
 70
0
  9
$LUNITS
 70
2
  9
$LUPREC
 70
4
  9
$SKETCHINC
 40
1.0
  9
$FILLETRAD
 40
10.0
  9
$AUNITS
 70
0
  9
$AUPREC
 70
2
  9
$MENU
  1
.
  9
$ELEVATION
 40
0.0
  9
$PELEVATION
 40
0.0
  9
$THICKNESS
 40
0.0
  9
$LIMCHECK
 70
0
  9
$CHAMFERA
 40
0.0
  9
$CHAMFERB
 40
0.0
  9
$CHAMFERC
 40
0.0
  9
$CHAMFERD
 40
0.0
  9
$SKPOLY
 70
0
  9
$TDCREATE
 40
2461140.609212963
  9
$TDUCREATE
 40
2458532.153996898
  9
$TDUPDATE
 40
2461140.609212963
  9
$TDUUPDATE
 40
2458532.1544311
  9
$TDINDWG
 40
0.0
  9
$TDUSRTIMER
 40
0.0
  9
$USRTIMER
 70
1
  9
$ANGBASE
 50
0.0
  9
$ANGDIR
 70
0
  9
$PDMODE
 70
0
  9
$PDSIZE
 40
0.0
  9
$PLINEWID
 40
0.0
  9
$SPLFRAME
 70
0
  9
$SPLINETYPE
 70
6
  9
$SPLINESEGS
 70
8
  9
$HANDSEED
  5
188
  9
$SURFTAB1
 70
6
  9
$SURFTAB2
 70
6
  9
$SURFTYPE
 70
6
  9
$SURFU
 70
6
  9
$SURFV
 70
6
  9
$UCSBASE
  2

  9
$UCSNAME
  2

  9
$UCSORG
 10
0.0
 20
0.0
 30
0.0
  9
$UCSXDIR
 10
1.0
 20
0.0
 30
0.0
  9
$UCSYDIR
 10
0.0
 20
1.0
 30
0.0
  9
$UCSORTHOREF
  2

  9
$UCSORTHOVIEW
 70
0
  9
$UCSORGTOP
 10
0.0
 20
0.0
 30
0.0
  9
$UCSORGBOTTOM
 10
0.0
 20
0.0
 30
0.0
  9
$UCSORGLEFT
 10
0.0
 20
0.0
 30
0.0
  9
$UCSORGRIGHT
 10
0.0
 20
0.0
 30
0.0
  9
$UCSORGFRONT
 10
0.0
 20
0.0
 30
0.0
  9
$UCSORGBACK
 10
0.0
 20
0.0
 30
0.0
  9
$PUCSBASE
  2

  9
$PUCSNAME
  2

  9
$PUCSORG
 10
0.0
 20
0.0
 30
0.0
  9
$PUCSXDIR
 10
1.0
 20
0.0
 30
0.0
  9
$PUCSYDIR
 10
0.0
 20
1.0
 30
0.0
  9
$PUCSORTHOREF
  2

  9
$PUCSORTHOVIEW
 70
0
  9
$PUCSORGTOP
 10
0.0
 20
0.0
 30
0.0
  9
$PUCSORGBOTTOM
 10
0.0
 20
0.0
 30
0.0
  9
$PUCSORGLEFT
 10
0.0
 20
0.0
 30
0.0
  9
$PUCSORGRIGHT
 10
0.0
 20
0.0
 30
0.0
  9
$PUCSORGFRONT
 10
0.0
 20
0.0
 30
0.0
  9
$PUCSORGBACK
 10
0.0
 20
0.0
 30
0.0
  9
$USERI1
 70
0
  9
$USERI2
 70
0
  9
$USERI3
 70
0
  9
$USERI4
 70
0
  9
$USERI5
 70
0
  9
$USERR1
 40
0.0
  9
$USERR2
 40
0.0
  9
$USERR3
 40
0.0
  9
$USERR4
 40
0.0
  9
$USERR5
 40
0.0
  9
$WORLDVIEW
 70
1
  9
$SHADEDGE
 70
3
  9
$SHADEDIF
 70
70
  9
$TILEMODE
 70
1
  9
$MAXACTVP
 70
64
  9
$PINSBASE
 10
0.0
 20
0.0
 30
0.0
  9
$PLIMCHECK
 70
0
  9
$PEXTMIN
 10
1e+20
 20
1e+20
 30
1e+20
  9
$PEXTMAX
 10
-1e+20
 20
-1e+20
 30
-1e+20
  9
$PLIMMIN
 10
0.0
 20
0.0
  9
$PLIMMAX
 10
420.0
 20
297.0
  9
$UNITMODE
 70
0
  9
$VISRETAIN
 70
1
  9
$PLINEGEN
 70
0
  9
$PSLTSCALE
 70
1
  9
$TREEDEPTH
 70
3020
  9
$CMLSTYLE
  2
Standard
  9
$CMLJUST
 70
0
  9
$CMLSCALE
 40
20.0
  9
$PROXYGRAPHICS
 70
1
  9
$MEASUREMENT
 70
1
  9
$CELWEIGHT
370
-1
  9
$ENDCAPS
280
0
  9
$JOINSTYLE
280
0
  9
$LWDISPLAY
290
0
  9
$INSUNITS
 70
4
  9
$HYPERLINKBASE
  1

  9
$STYLESHEET
  1

  9
$XEDIT
290
1
  9
$CEPSNTYPE
380
0
  9
$PSTYLEMODE
290
1
  9
$FINGERPRINTGUID
  2
{430E6890-B765-4D8F-A6DA-1AE898DAC820}
  9
$VERSIONGUID
  2
{EDFEDC38-6AEB-4DE6-83D2-E1B3A8177F2D}
  9
$EXTNAMES
290
1
  9
$PSVPSCALE
 40
0.0
  9
$OLESTARTUP
290
0
  9
$SORTENTS
280
127
  9
$INDEXCTL
280
0
  9
$HIDETEXT
280
1
  9
$XCLIPFRAME
280
1
  9
$HALOGAP
280
0
  9
$OBSCOLOR
 70
257
  9
$OBSLTYPE
280
0
  9
$INTERSECTIONDISPLAY
280
0
  9
$INTERSECTIONCOLOR
 70
257
  9
$DIMASSOC
280
2
  9
$PROJECTNAME
  1

  9
$CAMERADISPLAY
290
0
  9
$LENSLENGTH
 40
50.0
  9
$CAMERAHEIGHT
 40
0.0
  9
$STEPSPERSEC
 40
24.0
  9
$STEPSIZE
 40
100.0
  9
$3DDWFPREC
 40
2.0
  9
$PSOLWIDTH
 40
0.005
  9
$PSOLHEIGHT
 40
0.08
  9
$LOFTANG1
 40
1.570796326795
  9
$LOFTANG2
 40
1.570796326795
  9
$LOFTMAG1
 40
0.0
  9
$LOFTMAG2
 40
0.0
  9
$LOFTPARAM
 70
7
  9
$LOFTNORMALS
280
1
  9
$LATITUDE
 40
37.795
  9
$LONGITUDE
 40
-122.394
  9
$NORTHDIRECTION
 40
0.0
  9
$TIMEZONE
 70
-8000
  9
$LIGHTGLYPHDISPLAY
280
1
  9
$TILEMODELIGHTSYNCH
280
1
  9
$CMATERIAL
347
20
  9
$SOLIDHIST
280
0
  9
$SHOWHIST
280
1
  9
$DWFFRAME
280
2
  9
$DGNFRAME
280
2
  9
$REALWORLDSCALE
290
1
  9
$INTERFERECOLOR
 62
256
  9
$CSHADOW
280
0
  9
$SHADOWPLANELOCATION
 40
0.0
  0
ENDSEC
  0
SECTION
  2
CLASSES
  0
CLASS
  1
ACDBDICTIONARYWDFLT
  2
AcDbDictionaryWithDefault
  3
ObjectDBX Classes
 90
0
 91
0
280
0
281
0
  0
CLASS
  1
SUN
  2
AcDbSun
  3
SCENEOE
 90
1153
 91
0
280
0
281
0
  0
CLASS
  1
VISUALSTYLE
  2
AcDbVisualStyle
  3
ObjectDBX Classes
 90
4095
 91
0
280
0
281
0
  0
CLASS
  1
MATERIAL
  2
AcDbMaterial
  3
ObjectDBX Classes
 90
1153
 91
0
280
0
281
0
  0
CLASS
  1
SCALE
  2
AcDbScale
  3
ObjectDBX Classes
 90
1153
 91
0
280
0
281
0
  0
CLASS
  1
TABLESTYLE
  2
AcDbTableStyle
  3
ObjectDBX Classes
 90
4095
 91
0
280
0
281
0
  0
CLASS
  1
MLEADERSTYLE
  2
AcDbMLeaderStyle
  3
ACDB_MLEADERSTYLE_CLASS
 90
4095
 91
0
280
0
281
0
  0
CLASS
  1
DICTIONARYVAR
  2
AcDbDictionaryVar
  3
ObjectDBX Classes
 90
0
 91
0
280
0
281
0
  0
CLASS
  1
CELLSTYLEMAP
  2
AcDbCellStyleMap
  3
ObjectDBX Classes
 90
1152
 91
0
280
0
281
0
  0
CLASS
  1
MENTALRAYRENDERSETTINGS
  2
AcDbMentalRayRenderSettings
  3
SCENEOE
 90
1024
 91
0
280
0
281
0
  0
CLASS
  1
ACDBDETAILVIEWSTYLE
  2
AcDbDetailViewStyle
  3
ObjectDBX Classes
 90
1025
 91
0
280
0
281
0
  0
CLASS
  1
ACDBSECTIONVIEWSTYLE
  2
AcDbSectionViewStyle
  3
ObjectDBX Classes
 90
1025
 91
0
280
0
281
0
  0
CLASS
  1
RASTERVARIABLES
  2
AcDbRasterVariables
  3
ISM
 90
0
 91
0
280
0
281
0
  0
CLASS
  1
LAYOUT
  2
AcDbLayout
  3
ObjectDBX Classes
 90
0
 91
0
280
0
281
0
  0
CLASS
  1
ACDBPLACEHOLDER
  2
AcDbPlaceHolder
  3
ObjectDBX Classes
 90
0
 91
0
280
0
281
0
  0
ENDSEC
  0
SECTION
  2
TABLES
  0
TABLE
  2
VPORT
  5
8
330
0
100
AcDbSymbolTable
 70
1
  0
VPORT
  5
23
330
8
100
AcDbSymbolTableRecord
100
AcDbViewportTableRecord
  2
*Active
 70
0
 10
0.0
 20
0.0
 11
1.0
 21
1.0
 12
0.0
 22
0.0
 13
0.0
 23
0.0
 14
0.5
 24
0.5
 15
0.5
 25
0.5
 16
0.0
 26
0.0
 36
1.0
 17
0.0
 27
0.0
 37
0.0
 40
1000.0
 41
1.34
 42
50.0
 43
0.0
 44
0.0
 50
0.0
 51
0.0
 71
0
 72
1000
 73
1
 74
3
 75
0
 76
0
 77
0
 78
0
281
0
 65
0
146
0.0
  0
ENDTAB
  0
TABLE
  2
LTYPE
  5
2
330
0
100
AcDbSymbolTable
 70
3
  0
LTYPE
  5
24
330
2
100
AcDbSymbolTableRecord
100
AcDbLinetypeTableRecord
  2
ByBlock
 70
0
  3

 72
65
 73
0
 40
0.0
  0
LTYPE
  5
25
330
2
100
AcDbSymbolTableRecord
100
AcDbLinetypeTableRecord
  2
ByLayer
 70
0
  3

 72
65
 73
0
 40
0.0
  0
LTYPE
  5
26
330
2
100
AcDbSymbolTableRecord
100
AcDbLinetypeTableRecord
  2
Continuous
 70
0
  3

 72
65
 73
0
 40
0.0
  0
ENDTAB
  0
TABLE
  2
LAYER
  5
1
330
0
100
AcDbSymbolTable
 70
2
  0
LAYER
  5
27
330
1
100
AcDbSymbolTableRecord
100
AcDbLayerTableRecord
  2
0
 70
0
 62
7
  6
Continuous
370
-3
390
13
347
21
  0
LAYER
  5
28
330
1
100
AcDbSymbolTableRecord
100
AcDbLayerTableRecord
  2
Defpoints
 70
0
 62
7
  6
Continuous
290
0
370
-3
390
13
347
21
  0
ENDTAB
  0
TABLE
  2
STYLE
  5
5
330
0
100
AcDbSymbolTable
 70
1
  0
STYLE
  5
29
330
5
100
AcDbSymbolTableRecord
100
AcDbTextStyleTableRecord
  2
Standard
 70
0
 40
0.0
 41
1.0
 50
0.0
 71
0
 42
2.5
  3
txt
  4

  0
ENDTAB
  0
TABLE
  2
VIEW
  5
7
330
0
100
AcDbSymbolTable
 70
0
  0
ENDTAB
  0
TABLE
  2
UCS
  5
6
330
0
100
AcDbSymbolTable
 70
0
  0
ENDTAB
  0
TABLE
  2
APPID
  5
3
330
0
100
AcDbSymbolTable
 70
3
  0
APPID
  5
2A
330
3
100
AcDbSymbolTableRecord
100
AcDbRegAppTableRecord
  2
ACAD
 70
0
  0
APPID
  5
185
330
3
100
AcDbSymbolTableRecord
100
AcDbRegAppTableRecord
  2
HATCHBACKGROUNDCOLOR
 70
0
  0
APPID
  5
186
330
3
100
AcDbSymbolTableRecord
100
AcDbRegAppTableRecord
  2
EZDXF
 70
0
  0
ENDTAB
  0
TABLE
  2
DIMSTYLE
  5
4
330
0
100
AcDbSymbolTable
 70
1
100
AcDbDimStyleTable
  0
DIMSTYLE
105
2B
330
4
100
AcDbSymbolTableRecord
100
AcDbDimStyleTableRecord
  2
Standard
 70
0
 40
1.0
 41
2.5
 42
0.625
 43
3.75
 44
1.25
 45
0.0
 46
0.0
 47
0.0
 48
0.0
 49
2.5
140
2.5
141
2.5
142
0.0
143
0.03937007874
144
1.0
145
0.0
146
1.0
147
0.625
148
0.0
 69
0
 70
0
 71
0
 72
0
 73
0
 74
0
 75
0
 76
0
 77
1
 78
8
 79
3
170
0
171
3
172
1
173
0
174
0
175
0
176
0
177
0
178
0
179
2
271
2
272
2
273
2
274
3
275
0
276
0
277
2
278
44
279
0
280
0
281
0
282
0
283
0
284
8
285
0
286
0
288
0
289
3
290
0
371
-2
372
-2
  0
ENDTAB
  0
TABLE
  2
BLOCK_RECORD
  5
9
330
0
100
AcDbSymbolTable
 70
3
  0
BLOCK_RECORD
  5
17
330
9
100
AcDbSymbolTableRecord
100
AcDbBlockTableRecord
  2
*Model_Space
340
1A
 70
0
280
1
281
0
  0
BLOCK_RECORD
  5
1B
330
9
100
AcDbSymbolTableRecord
100
AcDbBlockTableRecord
  2
*Paper_Space
340
1E
 70
0
280
1
281
0
  0
BLOCK_RECORD
  5
2F
330
9
100
AcDbSymbolTableRecord
100
AcDbBlockTableRecord
  2
HEX
340
0
 70
0
280
1
281
0
  0
ENDTAB
  0
ENDSEC
  0
SECTION
  2
BLOCKS
  0
BLOCK
  5
18
330
17
100
AcDbEntity
  8
0
100
AcDbBlockBegin
  2
*Model_Space
 70
0
 10
0.0
 20
0.0
 30
0.0
  3
*Model_Space
  1

  0
ENDBLK
  5
19
330
17
100
AcDbEntity
  8
0
100
AcDbBlockEnd
  0
BLOCK
  5
1C
330
1B
100
AcDbEntity
  8
0
100
AcDbBlockBegin
  2
*Paper_Space
 70
0
 10
0.0
 20
0.0
 30
0.0
  3
*Paper_Space
  1

  0
ENDBLK
  5
1D
330
1B
100
AcDbEntity
  8
0
100
AcDbBlockEnd
  0
BLOCK
  5
30
330
2F
100
AcDbEntity
  8
0
100
AcDbBlockBegin
  2
HEX
 70
0
 10
0.0
 20
0.0
 30
0.0
  3
HEX
  1

  0
LWPOLYLINE
  5
32
330
2F
100
AcDbEntity
  8
0
100
AcDbPolyline
 90
6
 70
1
 10
1.516
 20
0.875
 10
0.0
 20
1.75
 10
-1.516
 20
0.875
 10
-1.516
 20
-0.875
 10
-0.0
 20
-1.75
 10
1.516
 20
-0.875
  0
ENDBLK
  5
31
330
2F
100
AcDbEntity
  8
0
100
AcDbBlockEnd
  0
ENDSEC
  0
SECTION
  2
ENTITIES
  0
LWPOLYLINE
  5
33
330
17
100
AcDbEntity
  8
0
100
AcDbPolyline
 90
6
 70
1
 10
23.77
 20
-198.101
 10
23.77
 20
-197.668
 10
25.286
 20
-196.793
 10
26.801
 20
-197.668
 10
26.801
 20
-198.097
 10
23.77
 20
-198.101
  0
LWPOLYLINE
  5
34
330
17
100
AcDbEntity
  8
0
100
AcDbPolyline
 90
6
 70
1
 10
27.301
 20
-198.096
 10
27.301
 20
-197.668
 10
28.817
 20
-196.793
 10
30.332
 20
-197.668
 10
30.332
 20
-198.093
 10
27.301
 20
-198.096
  0
LWPOLYLINE
  5
35
330
17
100
AcDbEntity
  8
0
100
AcDbPolyline
 90
5
 70
1
 10
60.691
 20
-198.054
 10
60.691
 20
-196.847
 10
62.112
 20
-197.668
 10
62.112
 20
-198.053
 10
60.691
 20
-198.054
  0
LWPOLYLINE
  5
36
330
17
100
AcDbEntity
  8
0
100
AcDbPolyline
 90
6
 70
1
 10
62.612
 20
-198.052
 10
62.612
 20
-197.668
 10
64.128
 20
-196.793
 10
65.643
 20
-197.668
 10
65.643
 20
-198.048
 10
62.612
 20
-198.052
  0
LWPOLYLINE
  5
37
330
17
100
AcDbEntity
  8
0
100
AcDbPolyline
 90
6
 70
1
 10
66.143
 20
-198.048
 10
66.143
 20
-197.668
 10
67.659
 20
-196.793
 10
69.174
 20
-197.668
 10
69.174
 20
-198.044
 10
66.143
 20
-198.048
  0
LWPOLYLINE
  5
38
330
17
100
AcDbEntity
  8
0
100
AcDbPolyline
 90
6
 70
1
 10
69.674
 20
-198.043
 10
69.674
 20
-197.668
 10
71.19
 20
-196.793
 10
72.705
 20
-197.668
 10
72.705
 20
-198.039
 10
69.674
 20
-198.043
  0
LWPOLYLINE
  5
39
330
17
100
AcDbEntity
  8
0
100
AcDbPolyline
 90
6
 70
1
 10
73.205
 20
-198.039
 10
73.205
 20
-197.668
 10
74.721
 20
-196.793
 10
76.237
 20
-197.668
 10
76.237
 20
-198.035
 10
73.205
 20
-198.039
  0
LWPOLYLINE
  5
3A
330
17
100
AcDbEntity
  8
0
100
AcDbPolyline
 90
6
 70
1
 10
76.737
 20
-198.034
 10
76.737
 20
-197.668
 10
78.252
 20
-196.793
 10
79.768
 20
-197.668
 10
79.768
 20
-198.031
 10
76.737
 20
-198.034
  0
LWPOLYLINE
  5
3B
330
17
100
AcDbEntity
  8
0
100
AcDbPolyline
 90
6
 70
1
 10
80.268
 20
-198.03
 10
80.268
 20
-197.668
 10
81.783
 20
-196.793
 10
83.299
 20
-197.668
 10
83.299
 20
-198.026
 10
80.268
 20
-198.03
  0
LWPOLYLINE
  5
3C
330
17
100
AcDbEntity
  8
0
100
AcDbPolyline
 90
6
 70
1
 10
83.799
 20
-198.026
 10
83.799
 20
-197.668
 10
85.314
 20
-196.793
 10
86.83
 20
-197.668
 10
86.83
 20
-198.022
 10
83.799
 20
-198.026
  0
LWPOLYLINE
  5
3D
330
17
100
AcDbEntity
  8
0
100
AcDbPolyline
 90
6
 70
1
 10
87.33
 20
-198.021
 10
87.33
 20
-197.668
 10
88.845
 20
-196.793
 10
90.361
 20
-197.668
 10
90.361
 20
-198.017
 10
87.33
 20
-198.021
  0
LWPOLYLINE
  5
3E
330
17
100
AcDbEntity
  8
0
100
AcDbPolyline
 90
6
 70
1
 10
90.861
 20
-198.017
 10
90.861
 20
-197.668
 10
92.376
 20
-196.793
 10
93.892
 20
-197.668
 10
93.892
 20
-198.013
 10
90.861
 20
-198.017
  0
LWPOLYLINE
  5
3F
330
17
100
AcDbEntity
  8
0
100
AcDbPolyline
 90
6
 70
1
 10
94.392
 20
-198.012
 10
94.392
 20
-197.668
 10
95.908
 20
-196.793
 10
97.423
 20
-197.668
 10
97.423
 20
-198.009
 10
94.392
 20
-198.012
  0
LWPOLYLINE
  5
40
330
17
100
AcDbEntity
  8
0
100
AcDbPolyline
 90
6
 70
1
 10
97.923
 20
-198.008
 10
97.923
 20
-197.668
 10
99.439
 20
-196.793
 10
100.954
 20
-197.668
 10
100.954
 20
-198.004
 10
97.923
 20
-198.008
  0
LWPOLYLINE
  5
41
330
17
100
AcDbEntity
  8
0
100
AcDbPolyline
 90
6
 70
1
 10
101.454
 20
-198.004
 10
101.454
 20
-197.668
 10
102.97
 20
-196.793
 10
104.485
 20
-197.668
 10
104.485
 20
-198.0
 10
101.454
 20
-198.004
  0
LWPOLYLINE
  5
42
330
17
100
AcDbEntity
  8
0
100
AcDbPolyline
 90
6
 70
1
 10
104.985
 20
-197.999
 10
104.985
 20
-197.668
 10
106.501
 20
-196.793
 10
108.016
 20
-197.668
 10
108.016
 20
-197.995
 10
104.985
 20
-197.999
  0
LWPOLYLINE
  5
43
330
17
100
AcDbEntity
  8
0
100
AcDbPolyline
 90
6
 70
1
 10
108.516
 20
-197.995
 10
108.516
 20
-197.668
 10
110.032
 20
-196.793
 10
111.547
 20
-197.668
 10
111.547
 20
-197.991
 10
108.516
 20
-197.995
  0
LWPOLYLINE
  5
44
330
17
100
AcDbEntity
  8
0
100
AcDbPolyline
 90
6
 70
1
 10
112.047
 20
-197.99
 10
112.047
 20
-197.668
 10
113.563
 20
-196.793
 10
115.079
 20
-197.668
 10
115.079
 20
-197.987
 10
112.047
 20
-197.99
  0
LWPOLYLINE
  5
45
330
17
100
AcDbEntity
  8
0
100
AcDbPolyline
 90
6
 70
1
 10
115.579
 20
-197.986
 10
115.579
 20
-197.668
 10
117.094
 20
-196.793
 10
118.61
 20
-197.668
 10
118.61
 20
-197.982
 10
115.579
 20
-197.986
  0
LWPOLYLINE
  5
46
330
17
100
AcDbEntity
  8
0
100
AcDbPolyline
 90
6
 70
1
 10
119.11
 20
-197.982
 10
119.11
 20
-197.668
 10
120.625
 20
-196.793
 10
122.141
 20
-197.668
 10
122.141
 20
-197.978
 10
119.11
 20
-197.982
  0
LWPOLYLINE
  5
47
330
17
100
AcDbEntity
  8
0
100
AcDbPolyline
 90
6
 70
1
 10
122.641
 20
-197.977
 10
122.641
 20
-197.668
 10
124.156
 20
-196.793
 10
125.672
 20
-197.668
 10
125.672
 20
-197.973
 10
122.641
 20
-197.977
  0
LWPOLYLINE
  5
48
330
17
100
AcDbEntity
  8
0
100
AcDbPolyline
 90
6
 70
1
 10
126.172
 20
-197.973
 10
126.172
 20
-197.668
 10
127.687
 20
-196.793
 10
129.203
 20
-197.668
 10
129.203
 20
-197.969
 10
126.172
 20
-197.973
  0
LWPOLYLINE
  5
49
330
17
100
AcDbEntity
  8
0
100
AcDbPolyline
 90
6
 70
1
 10
129.703
 20
-197.968
 10
129.703
 20
-197.668
 10
131.218
 20
-196.793
 10
132.734
 20
-197.668
 10
132.734
 20
-197.965
 10
129.703
 20
-197.968
  0
LWPOLYLINE
  5
4A
330
17
100
AcDbEntity
  8
0
100
AcDbPolyline
 90
6
 70
1
 10
133.234
 20
-197.964
 10
133.234
 20
-197.668
 10
134.75
 20
-196.793
 10
136.265
 20
-197.668
 10
136.265
 20
-197.96
 10
133.234
 20
-197.964
  0
LWPOLYLINE
  5
4B
330
17
100
AcDbEntity
  8
0
100
AcDbPolyline
 90
6
 70
1
 10
136.765
 20
-197.96
 10
136.765
 20
-197.668
 10
138.281
 20
-196.793
 10
139.796
 20
-197.668
 10
139.796
 20
-197.956
 10
136.765
 20
-197.96
  0
LWPOLYLINE
  5
4C
330
17
100
AcDbEntity
  8
0
100
AcDbPolyline
 90
6
 70
1
 10
140.296
 20
-197.955
 10
140.296
 20
-197.668
 10
141.812
 20
-196.793
 10
143.327
 20
-197.668
 10
143.327
 20
-197.951
 10
140.296
 20
-197.955
  0
LWPOLYLINE
  5
4D
330
17
100
AcDbEntity
  8
0
100
AcDbPolyline
 90
6
 70
1
 10
143.827
 20
-197.951
 10
143.827
 20
-197.668
 10
145.343
 20
-196.793
 10
146.858
 20
-197.668
 10
146.858
 20
-197.947
 10
143.827
 20
-197.951
  0
LWPOLYLINE
  5
4E
330
17
100
AcDbEntity
  8
0
100
AcDbPolyline
 90
6
 70
1
 10
147.358
 20
-197.946
 10
147.358
 20
-197.668
 10
148.874
 20
-196.793
 10
150.389
 20
-197.668
 10
150.389
 20
-197.943
 10
147.358
 20
-197.946
  0
LWPOLYLINE
  5
4F
330
17
100
AcDbEntity
  8
0
100
AcDbPolyline
 90
6
 70
1
 10
150.889
 20
-197.942
 10
150.889
 20
-197.668
 10
152.405
 20
-196.793
 10
153.921
 20
-197.668
 10
153.921
 20
-197.938
 10
150.889
 20
-197.942
  0
LWPOLYLINE
  5
50
330
17
100
AcDbEntity
  8
0
100
AcDbPolyline
 90
6
 70
1
 10
154.421
 20
-197.938
 10
154.421
 20
-197.668
 10
155.936
 20
-196.793
 10
157.452
 20
-197.668
 10
157.452
 20
-197.934
 10
154.421
 20
-197.938
  0
LWPOLYLINE
  5
51
330
17
100
AcDbEntity
  8
0
100
AcDbPolyline
 90
6
 70
1
 10
157.952
 20
-197.933
 10
157.952
 20
-197.668
 10
159.467
 20
-196.793
 10
160.983
 20
-197.668
 10
160.983
 20
-197.929
 10
157.952
 20
-197.933
  0
LWPOLYLINE
  5
52
330
17
100
AcDbEntity
  8
0
100
AcDbPolyline
 90
6
 70
1
 10
161.483
 20
-197.929
 10
161.483
 20
-197.668
 10
162.998
 20
-196.793
 10
164.514
 20
-197.668
 10
164.514
 20
-197.925
 10
161.483
 20
-197.929
  0
LWPOLYLINE
  5
53
330
17
100
AcDbEntity
  8
0
100
AcDbPolyline
 90
6
 70
1
 10
165.014
 20
-197.924
 10
165.014
 20
-197.668
 10
166.529
 20
-196.793
 10
168.045
 20
-197.668
 10
168.045
 20
-197.921
 10
165.014
 20
-197.924
  0
LWPOLYLINE
  5
54
330
17
100
AcDbEntity
  8
0
100
AcDbPolyline
 90
6
 70
1
 10
168.545
 20
-197.92
 10
168.545
 20
-197.668
 10
170.06
 20
-196.793
 10
171.576
 20
-197.668
 10
171.576
 20
-197.916
 10
168.545
 20
-197.92
  0
LWPOLYLINE
  5
55
330
17
100
AcDbEntity
  8
0
100
AcDbPolyline
 90
6
 70
1
 10
172.076
 20
-197.916
 10
172.076
 20
-197.668
 10
173.592
 20
-196.793
 10
175.107
 20
-197.668
 10
175.107
 20
-197.912
 10
172.076
 20
-197.916
  0
LWPOLYLINE
  5
56
330
17
100
AcDbEntity
  8
0
100
AcDbPolyline
 90
6
 70
1
 10
175.607
 20
-197.911
 10
175.607
 20
-197.668
 10
177.123
 20
-196.793
 10
178.638
 20
-197.668
 10
178.638
 20
-197.907
 10
175.607
 20
-197.911
  0
LWPOLYLINE
  5
57
330
17
100
AcDbEntity
  8
0
100
AcDbPolyline
 90
6
 70
1
 10
179.138
 20
-197.907
 10
179.138
 20
-197.668
 10
180.654
 20
-196.793
 10
182.169
 20
-197.668
 10
182.169
 20
-197.903
 10
179.138
 20
-197.907
  0
LWPOLYLINE
  5
58
330
17
100
AcDbEntity
  8
0
100
AcDbPolyline
 90
6
 70
1
 10
182.669
 20
-197.902
 10
182.669
 20
-197.668
 10
184.185
 20
-196.793
 10
185.7
 20
-197.668
 10
185.7
 20
-197.899
 10
182.669
 20
-197.902
  0
LWPOLYLINE
  5
59
330
17
100
AcDbEntity
  8
0
100
AcDbPolyline
 90
5
 70
1
 10
187.446
 20
-197.896
 10
186.2
 20
-197.898
 10
186.2
 20
-197.668
 10
187.445
 20
-196.949
 10
187.446
 20
-197.896
  0
LWPOLYLINE
  5
5A
330
17
100
AcDbEntity
  8
0
100
AcDbPolyline
 90
7
 70
1
 10
23.492
 20
-193.751
 10
23.52
 20
-193.735
 10
25.036
 20
-194.61
 10
25.036
 20
-196.36
 10
23.52
 20
-197.235
 10
23.49
 20
-197.217
 10
23.492
 20
-193.751
  0
INSERT
  5
5B
330
17
100
AcDbEntity
  8
0
100
AcDbBlockReference
  2
HEX
 10
27.051
 20
-195.485
 30
0.0
  0
LWPOLYLINE
  5
5D
330
17
100
AcDbEntity
  8
0
100
AcDbPolyline
 90
5
 70
1
 10
30.516
 20
-197.196
 10
29.067
 20
-196.36
 10
29.067
 20
-194.61
 10
30.516
 20
-193.774
 10
30.516
 20
-197.196
  0
INSERT
  5
5E
330
17
100
AcDbEntity
  8
0
100
AcDbBlockReference
  2
HEX
 10
62.362
 20
-195.485
 30
0.0
  0
INSERT
  5
60
330
17
100
AcDbEntity
  8
0
100
AcDbBlockReference
  2
HEX
 10
65.893
 20
-195.485
 30
0.0
  0
INSERT
  5
62
330
17
100
AcDbEntity
  8
0
100
AcDbBlockReference
  2
HEX
 10
69.424
 20
-195.485
 30
0.0
  0
INSERT
  5
64
330
17
100
AcDbEntity
  8
0
100
AcDbBlockReference
  2
HEX
 10
72.955
 20
-195.485
 30
0.0
  0
INSERT
  5
66
330
17
100
AcDbEntity
  8
0
100
AcDbBlockReference
  2
HEX
 10
76.487
 20
-195.485
 30
0.0
  0
INSERT
  5
68
330
17
100
AcDbEntity
  8
0
100
AcDbBlockReference
  2
HEX
 10
80.018
 20
-195.485
 30
0.0
  0
INSERT
  5
6A
330
17
100
AcDbEntity
  8
0
100
AcDbBlockReference
  2
HEX
 10
83.549
 20
-195.485
 30
0.0
  0
INSERT
  5
6C
330
17
100
AcDbEntity
  8
0
100
AcDbBlockReference
  2
HEX
 10
87.08
 20
-195.485
 30
0.0
  0
INSERT
  5
6E
330
17
100
AcDbEntity
  8
0
100
AcDbBlockReference
  2
HEX
 10
90.611
 20
-195.485
 30
0.0
  0
INSERT
  5
70
330
17
100
AcDbEntity
  8
0
100
AcDbBlockReference
  2
HEX
 10
94.142
 20
-195.485
 30
0.0
  0
INSERT
  5
72
330
17
100
AcDbEntity
  8
0
100
AcDbBlockReference
  2
HEX
 10
97.673
 20
-195.485
 30
0.0
  0
INSERT
  5
74
330
17
100
AcDbEntity
  8
0
100
AcDbBlockReference
  2
HEX
 10
101.204
 20
-195.485
 30
0.0
  0
INSERT
  5
76
330
17
100
AcDbEntity
  8
0
100
AcDbBlockReference
  2
HEX
 10
104.735
 20
-195.485
 30
0.0
  0
INSERT
  5
78
330
17
100
AcDbEntity
  8
0
100
AcDbBlockReference
  2
HEX
 10
108.266
 20
-195.485
 30
0.0
  0
INSERT
  5
7A
330
17
100
AcDbEntity
  8
0
100
AcDbBlockReference
  2
HEX
 10
111.797
 20
-195.485
 30
0.0
  0
INSERT
  5
7C
330
17
100
AcDbEntity
  8
0
100
AcDbBlockReference
  2
HEX
 10
115.329
 20
-195.485
 30
0.0
  0
INSERT
  5
7E
330
17
100
AcDbEntity
  8
0
100
AcDbBlockReference
  2
HEX
 10
118.86
 20
-195.485
 30
0.0
  0
INSERT
  5
80
330
17
100
AcDbEntity
  8
0
100
AcDbBlockReference
  2
HEX
 10
122.391
 20
-195.485
 30
0.0
  0
INSERT
  5
82
330
17
100
AcDbEntity
  8
0
100
AcDbBlockReference
  2
HEX
 10
125.922
 20
-195.485
 30
0.0
  0
INSERT
  5
84
330
17
100
AcDbEntity
  8
0
100
AcDbBlockReference
  2
HEX
 10
129.453
 20
-195.485
 30
0.0
  0
INSERT
  5
86
330
17
100
AcDbEntity
  8
0
100
AcDbBlockReference
  2
HEX
 10
132.984
 20
-195.485
 30
0.0
  0
INSERT
  5
88
330
17
100
AcDbEntity
  8
0
100
AcDbBlockReference
  2
HEX
 10
136.515
 20
-195.485
 30
0.0
  0
INSERT
  5
8A
330
17
100
AcDbEntity
  8
0
100
AcDbBlockReference
  2
HEX
 10
140.046
 20
-195.485
 30
0.0
  0
INSERT
  5
8C
330
17
100
AcDbEntity
  8
0
100
AcDbBlockReference
  2
HEX
 10
143.577
 20
-195.485
 30
0.0
  0
INSERT
  5
8E
330
17
100
AcDbEntity
  8
0
100
AcDbBlockReference
  2
HEX
 10
147.108
 20
-195.485
 30
0.0
  0
INSERT
  5
90
330
17
100
AcDbEntity
  8
0
100
AcDbBlockReference
  2
HEX
 10
150.639
 20
-195.485
 30
0.0
  0
INSERT
  5
92
330
17
100
AcDbEntity
  8
0
100
AcDbBlockReference
  2
HEX
 10
154.171
 20
-195.485
 30
0.0
  0
INSERT
  5
94
330
17
100
AcDbEntity
  8
0
100
AcDbBlockReference
  2
HEX
 10
157.702
 20
-195.485
 30
0.0
  0
INSERT
  5
96
330
17
100
AcDbEntity
  8
0
100
AcDbBlockReference
  2
HEX
 10
161.233
 20
-195.485
 30
0.0
  0
INSERT
  5
98
330
17
100
AcDbEntity
  8
0
100
AcDbBlockReference
  2
HEX
 10
164.764
 20
-195.485
 30
0.0
  0
INSERT
  5
9A
330
17
100
AcDbEntity
  8
0
100
AcDbBlockReference
  2
HEX
 10
168.295
 20
-195.485
 30
0.0
  0
INSERT
  5
9C
330
17
100
AcDbEntity
  8
0
100
AcDbBlockReference
  2
HEX
 10
171.826
 20
-195.485
 30
0.0
  0
INSERT
  5
9E
330
17
100
AcDbEntity
  8
0
100
AcDbBlockReference
  2
HEX
 10
175.357
 20
-195.485
 30
0.0
  0
INSERT
  5
A0
330
17
100
AcDbEntity
  8
0
100
AcDbBlockReference
  2
HEX
 10
178.888
 20
-195.485
 30
0.0
  0
INSERT
  5
A2
330
17
100
AcDbEntity
  8
0
100
AcDbBlockReference
  2
HEX
 10
182.419
 20
-195.485
 30
0.0
  0
LWPOLYLINE
  5
A4
330
17
100
AcDbEntity
  8
0
100
AcDbPolyline
 90
7
 70
1
 10
187.445
 20
-196.372
 10
185.95
 20
-197.235
 10
184.435
 20
-196.36
 10
184.435
 20
-194.61
 10
185.95
 20
-193.735
 10
187.443
 20
-194.597
 10
187.445
 20
-196.372
  0
INSERT
  5
A5
330
17
100
AcDbEntity
  8
0
100
AcDbBlockReference
  2
HEX
 10
25.286
 20
-192.427
 30
0.0
  0
INSERT
  5
A7
330
17
100
AcDbEntity
  8
0
100
AcDbBlockReference
  2
HEX
 10
28.817
 20
-192.427
 30
0.0
  0
LWPOLYLINE
  5
A9
330
17
100
AcDbEntity
  8
0
100
AcDbPolyline
 90
5
 70
1
 10
60.691
 20
-190.731
 10
62.112
 20
-191.552
 10
62.112
 20
-193.302
 10
60.691
 20
-194.123
 10
60.691
 20
-190.731
  0
INSERT
  5
AA
330
17
100
AcDbEntity
  8
0
100
AcDbBlockReference
  2
HEX
 10
64.128
 20
-192.427
 30
0.0
  0
INSERT
  5
AC
330
17
100
AcDbEntity
  8
0
100
AcDbBlockReference
  2
HEX
 10
67.659
 20
-192.427
 30
0.0
  0
INSERT
  5
AE
330
17
100
AcDbEntity
  8
0
100
AcDbBlockReference
  2
HEX
 10
71.19
 20
-192.427
 30
0.0
  0
INSERT
  5
B0
330
17
100
AcDbEntity
  8
0
100
AcDbBlockReference
  2
HEX
 10
74.721
 20
-192.427
 30
0.0
  0
INSERT
  5
B2
330
17
100
AcDbEntity
  8
0
100
AcDbBlockReference
  2
HEX
 10
78.252
 20
-192.427
 30
0.0
  0
INSERT
  5
B4
330
17
100
AcDbEntity
  8
0
100
AcDbBlockReference
  2
HEX
 10
81.783
 20
-192.427
 30
0.0
  0
INSERT
  5
B6
330
17
100
AcDbEntity
  8
0
100
AcDbBlockReference
  2
HEX
 10
85.314
 20
-192.427
 30
0.0
  0
INSERT
  5
B8
330
17
100
AcDbEntity
  8
0
100
AcDbBlockReference
  2
HEX
 10
88.845
 20
-192.427
 30
0.0
  0
INSERT
  5
BA
330
17
100
AcDbEntity
  8
0
100
AcDbBlockReference
  2
HEX
 10
92.376
 20
-192.427
 30
0.0
  0
INSERT
  5
BC
330
17
100
AcDbEntity
  8
0
100
AcDbBlockReference
  2
HEX
 10
95.908
 20
-192.427
 30
0.0
  0
INSERT
  5
BE
330
17
100
AcDbEntity
  8
0
100
AcDbBlockReference
  2
HEX
 10
99.439
 20
-192.427
 30
0.0
  0
INSERT
  5
C0
330
17
100
AcDbEntity
  8
0
100
AcDbBlockReference
  2
HEX
 10
102.97
 20
-192.427
 30
0.0
  0
INSERT
  5
C2
330
17
100
AcDbEntity
  8
0
100
AcDbBlockReference
  2
HEX
 10
106.501
 20
-192.427
 30
0.0
  0
INSERT
  5
C4
330
17
100
AcDbEntity
  8
0
100
AcDbBlockReference
  2
HEX
 10
110.032
 20
-192.427
 30
0.0
  0
INSERT
  5
C6
330
17
100
AcDbEntity
  8
0
100
AcDbBlockReference
  2
HEX
 10
113.563
 20
-192.427
 30
0.0
  0
INSERT
  5
C8
330
17
100
AcDbEntity
  8
0
100
AcDbBlockReference
  2
HEX
 10
117.094
 20
-192.427
 30
0.0
  0
INSERT
  5
CA
330
17
100
AcDbEntity
  8
0
100
AcDbBlockReference
  2
HEX
 10
120.625
 20
-192.427
 30
0.0
  0
INSERT
  5
CC
330
17
100
AcDbEntity
  8
0
100
AcDbBlockReference
  2
HEX
 10
124.156
 20
-192.427
 30
0.0
  0
INSERT
  5
CE
330
17
100
AcDbEntity
  8
0
100
AcDbBlockReference
  2
HEX
 10
127.687
 20
-192.427
 30
0.0
  0
INSERT
  5
D0
330
17
100
AcDbEntity
  8
0
100
AcDbBlockReference
  2
HEX
 10
131.218
 20
-192.427
 30
0.0
  0
INSERT
  5
D2
330
17
100
AcDbEntity
  8
0
100
AcDbBlockReference
  2
HEX
 10
134.75
 20
-192.427
 30
0.0
  0
INSERT
  5
D4
330
17
100
AcDbEntity
  8
0
100
AcDbBlockReference
  2
HEX
 10
138.281
 20
-192.427
 30
0.0
  0
INSERT
  5
D6
330
17
100
AcDbEntity
  8
0
100
AcDbBlockReference
  2
HEX
 10
141.812
 20
-192.427
 30
0.0
  0
INSERT
  5
D8
330
17
100
AcDbEntity
  8
0
100
AcDbBlockReference
  2
HEX
 10
145.343
 20
-192.427
 30
0.0
  0
INSERT
  5
DA
330
17
100
AcDbEntity
  8
0
100
AcDbBlockReference
  2
HEX
 10
148.874
 20
-192.427
 30
0.0
  0
INSERT
  5
DC
330
17
100
AcDbEntity
  8
0
100
AcDbBlockReference
  2
HEX
 10
152.405
 20
-192.427
 30
0.0
  0
INSERT
  5
DE
330
17
100
AcDbEntity
  8
0
100
AcDbBlockReference
  2
HEX
 10
155.936
 20
-192.427
 30
0.0
  0
INSERT
  5
E0
330
17
100
AcDbEntity
  8
0
100
AcDbBlockReference
  2
HEX
 10
159.467
 20
-192.427
 30
0.0
  0
INSERT
  5
E2
330
17
100
AcDbEntity
  8
0
100
AcDbBlockReference
  2
HEX
 10
162.998
 20
-192.427
 30
0.0
  0
INSERT
  5
E4
330
17
100
AcDbEntity
  8
0
100
AcDbBlockReference
  2
HEX
 10
166.529
 20
-192.427
 30
0.0
  0
INSERT
  5
E6
330
17
100
AcDbEntity
  8
0
100
AcDbBlockReference
  2
HEX
 10
170.06
 20
-192.427
 30
0.0
  0
INSERT
  5
E8
330
17
100
AcDbEntity
  8
0
100
AcDbBlockReference
  2
HEX
 10
173.592
 20
-192.427
 30
0.0
  0
INSERT
  5
EA
330
17
100
AcDbEntity
  8
0
100
AcDbBlockReference
  2
HEX
 10
177.123
 20
-192.427
 30
0.0
  0
INSERT
  5
EC
330
17
100
AcDbEntity
  8
0
100
AcDbBlockReference
  2
HEX
 10
180.654
 20
-192.427
 30
0.0
  0
INSERT
  5
EE
330
17
100
AcDbEntity
  8
0
100
AcDbBlockReference
  2
HEX
 10
184.185
 20
-192.427
 30
0.0
  0
LWPOLYLINE
  5
F0
330
17
100
AcDbEntity
  8
0
100
AcDbPolyline
 90
5
 70
1
 10
187.443
 20
-194.019
 10
186.2
 20
-193.302
 10
186.2
 20
-191.552
 10
187.441
 20
-190.836
 10
187.443
 20
-194.019
  0
LWPOLYLINE
  5
F1
330
17
100
AcDbEntity
  8
0
100
AcDbPolyline
 90
7
 70
1
 10
23.496
 20
-187.633
 10
23.52
 20
-187.619
 10
25.036
 20
-188.494
 10
25.036
 20
-190.244
 10
23.52
 20
-191.119
 10
23.494
 20
-191.104
 10
23.496
 20
-187.633
  0
INSERT
  5
F2
330
17
100
AcDbEntity
  8
0
100
AcDbBlockReference
  2
HEX
 10
27.051
 20
-189.369
 30
0.0
  0
LWPOLYLINE
  5
F4
330
17
100
AcDbEntity
  8
0
100
AcDbPolyline
 90
5
 70
1
 10
30.516
 20
-191.08
 10
29.067
 20
-190.244
 10
29.067
 20
-188.494
 10
30.516
 20
-187.658
 10
30.516
 20
-191.08
  0
INSERT
  5
F5
330
17
100
AcDbEntity
  8
0
100
AcDbBlockReference
  2
HEX
 10
62.362
 20
-189.369
 30
0.0
  0
INSERT
  5
F7
330
17
100
AcDbEntity
  8
0
100
AcDbBlockReference
  2
HEX
 10
65.893
 20
-189.369
 30
0.0
  0
INSERT
  5
F9
330
17
100
AcDbEntity
  8
0
100
AcDbBlockReference
  2
HEX
 10
69.424
 20
-189.369
 30
0.0
  0
INSERT
  5
FB
330
17
100
AcDbEntity
  8
0
100
AcDbBlockReference
  2
HEX
 10
72.955
 20
-189.369
 30
0.0
  0
LWPOLYLINE
  5
FD
330
17
100
AcDbEntity
  8
0
100
AcDbPolyline
 90
8
 70
1
 10
77.018
 20
-187.925
 10
78.002
 20
-188.494
 10
78.002
 20
-190.244
 10
76.487
 20
-191.119
 10
74.971
 20
-190.244
 10
74.971
 20
-188.494
 10
75.956
 20
-187.925
 10
77.018
 20
-187.925
  0
LWPOLYLINE
  5
FE
330
17
100
AcDbEntity
  8
0
100
AcDbPolyline
 90
8
 70
1
 10
80.549
 20
-187.925
 10
81.533
 20
-188.494
 10
81.533
 20
-190.244
 10
80.018
 20
-191.119
 10
78.502
 20
-190.244
 10
78.502
 20
-188.494
 10
79.487
 20
-187.925
 10
80.549
 20
-187.925
  0
LWPOLYLINE
  5
FF
330
17
100
AcDbEntity
  8
0
100
AcDbPolyline
 90
8
 70
1
 10
84.08
 20
-187.925
 10
85.064
 20
-188.494
 10
85.064
 20
-190.244
 10
83.549
 20
-191.119
 10
82.033
 20
-190.244
 10
82.033
 20
-188.494
 10
83.018
 20
-187.925
 10
84.08
 20
-187.925
  0
LWPOLYLINE
  5
100
330
17
100
AcDbEntity
  8
0
100
AcDbPolyline
 90
8
 70
1
 10
87.611
 20
-187.925
 10
88.595
 20
-188.494
 10
88.595
 20
-190.244
 10
87.08
 20
-191.119
 10
85.564
 20
-190.244
 10
85.564
 20
-188.494
 10
86.549
 20
-187.925
 10
87.611
 20
-187.925
  0
LWPOLYLINE
  5
101
330
17
100
AcDbEntity
  8
0
100
AcDbPolyline
 90
8
 70
1
 10
91.142
 20
-187.925
 10
92.126
 20
-188.494
 10
92.126
 20
-190.244
 10
90.611
 20
-191.119
 10
89.095
 20
-190.244
 10
89.095
 20
-188.494
 10
90.08
 20
-187.925
 10
91.142
 20
-187.925
  0
LWPOLYLINE
  5
102
330
17
100
AcDbEntity
  8
0
100
AcDbPolyline
 90
11
 70
1
 10
92.626
 20
-188.494
 10
92.993
 20
-188.786
 10
93.43
 20
-189.073
 10
93.942
 20
-189.336
 10
94.528
 20
-189.548
 10
94.846
 20
-189.626
 10
95.658
 20
-189.626
 10
95.658
 20
-190.244
 10
94.142
 20
-191.119
 10
92.626
 20
-190.244
 10
92.626
 20
-188.494
  0
LWPOLYLINE
  5
103
330
17
100
AcDbEntity
  8
0
100
AcDbPolyline
 90
6
 70
1
 10
99.189
 20
-189.626
 10
99.189
 20
-190.244
 10
97.673
 20
-191.119
 10
96.158
 20
-190.244
 10
96.158
 20
-189.626
 10
99.189
 20
-189.626
  0
LWPOLYLINE
  5
104
330
17
100
AcDbEntity
  8
0
100
AcDbPolyline
 90
6
 70
1
 10
102.72
 20
-189.626
 10
102.72
 20
-190.244
 10
101.204
 20
-191.119
 10
99.689
 20
-190.244
 10
99.689
 20
-189.626
 10
102.72
 20
-189.626
  0
LWPOLYLINE
  5
105
330
17
100
AcDbEntity
  8
0
100
AcDbPolyline
 90
6
 70
1
 10
106.251
 20
-189.626
 10
106.251
 20
-190.244
 10
104.735
 20
-191.119
 10
103.22
 20
-190.244
 10
103.22
 20
-189.626
 10
106.251
 20
-189.626
  0
LWPOLYLINE
  5
106
330
17
100
AcDbEntity
  8
0
100
AcDbPolyline
 90
6
 70
1
 10
109.782
 20
-189.626
 10
109.782
 20
-190.244
 10
108.266
 20
-191.119
 10
106.751
 20
-190.244
 10
106.751
 20
-189.626
 10
109.782
 20
-189.626
  0
LWPOLYLINE
  5
107
330
17
100
AcDbEntity
  8
0
100
AcDbPolyline
 90
9
 70
1
 10
112.119
 20
-189.626
 10
112.418
 20
-189.546
 10
112.877
 20
-189.361
 10
113.313
 20
-189.117
 10
113.313
 20
-190.244
 10
111.797
 20
-191.119
 10
110.282
 20
-190.244
 10
110.282
 20
-189.626
 10
112.119
 20
-189.626
  0
LWPOLYLINE
  5
108
330
17
100
AcDbEntity
  8
0
100
AcDbPolyline
 90
9
 70
1
 10
114.109
 20
-188.488
 10
114.429
 20
-188.138
 10
115.329
 20
-187.619
 10
116.844
 20
-188.494
 10
116.844
 20
-190.244
 10
115.329
 20
-191.119
 10
113.813
 20
-190.244
 10
113.813
 20
-188.756
 10
114.109
 20
-188.488
  0
INSERT
  5
109
330
17
100
AcDbEntity
  8
0
100
AcDbBlockReference
  2
HEX
 10
118.86
 20
-189.369
 30
0.0
  0
INSERT
  5
10B
330
17
100
AcDbEntity
  8
0
100
AcDbBlockReference
  2
HEX
 10
122.391
 20
-189.369
 30
0.0
  0
INSERT
  5
10D
330
17
100
AcDbEntity
  8
0
100
AcDbBlockReference
  2
HEX
 10
125.922
 20
-189.369
 30
0.0
  0
INSERT
  5
10F
330
17
100
AcDbEntity
  8
0
100
AcDbBlockReference
  2
HEX
 10
129.453
 20
-189.369
 30
0.0
  0
INSERT
  5
111
330
17
100
AcDbEntity
  8
0
100
AcDbBlockReference
  2
HEX
 10
132.984
 20
-189.369
 30
0.0
  0
INSERT
  5
113
330
17
100
AcDbEntity
  8
0
100
AcDbBlockReference
  2
HEX
 10
136.515
 20
-189.369
 30
0.0
  0
INSERT
  5
115
330
17
100
AcDbEntity
  8
0
100
AcDbBlockReference
  2
HEX
 10
140.046
 20
-189.369
 30
0.0
  0
INSERT
  5
117
330
17
100
AcDbEntity
  8
0
100
AcDbBlockReference
  2
HEX
 10
143.577
 20
-189.369
 30
0.0
  0
INSERT
  5
119
330
17
100
AcDbEntity
  8
0
100
AcDbBlockReference
  2
HEX
 10
147.108
 20
-189.369
 30
0.0
  0
INSERT
  5
11B
330
17
100
AcDbEntity
  8
0
100
AcDbBlockReference
  2
HEX
 10
150.639
 20
-189.369
 30
0.0
  0
INSERT
  5
11D
330
17
100
AcDbEntity
  8
0
100
AcDbBlockReference
  2
HEX
 10
154.171
 20
-189.369
 30
0.0
  0
INSERT
  5
11F
330
17
100
AcDbEntity
  8
0
100
AcDbBlockReference
  2
HEX
 10
157.702
 20
-189.369
 30
0.0
  0
INSERT
  5
121
330
17
100
AcDbEntity
  8
0
100
AcDbBlockReference
  2
HEX
 10
161.233
 20
-189.369
 30
0.0
  0
INSERT
  5
123
330
17
100
AcDbEntity
  8
0
100
AcDbBlockReference
  2
HEX
 10
164.764
 20
-189.369
 30
0.0
  0
INSERT
  5
125
330
17
100
AcDbEntity
  8
0
100
AcDbBlockReference
  2
HEX
 10
168.295
 20
-189.369
 30
0.0
  0
INSERT
  5
127
330
17
100
AcDbEntity
  8
0
100
AcDbBlockReference
  2
HEX
 10
171.826
 20
-189.369
 30
0.0
  0
INSERT
  5
129
330
17
100
AcDbEntity
  8
0
100
AcDbBlockReference
  2
HEX
 10
175.357
 20
-189.369
 30
0.0
  0
INSERT
  5
12B
330
17
100
AcDbEntity
  8
0
100
AcDbBlockReference
  2
HEX
 10
178.888
 20
-189.369
 30
0.0
  0
INSERT
  5
12D
330
17
100
AcDbEntity
  8
0
100
AcDbBlockReference
  2
HEX
 10
182.419
 20
-189.369
 30
0.0
  0
LWPOLYLINE
  5
12F
330
17
100
AcDbEntity
  8
0
100
AcDbPolyline
 90
7
 70
1
 10
187.441
 20
-190.259
 10
185.95
 20
-191.119
 10
184.435
 20
-190.244
 10
184.435
 20
-188.494
 10
185.95
 20
-187.619
 10
187.439
 20
-188.479
 10
187.441
 20
-190.259
  0
INSERT
  5
130
330
17
100
AcDbEntity
  8
0
100
AcDbBlockReference
  2
HEX
 10
25.286
 20
-186.311
 30
0.0
  0
INSERT
  5
132
330
17
100
AcDbEntity
  8
0
100
AcDbBlockReference
  2
HEX
 10
28.817
 20
-186.311
 30
0.0
  0
LWPOLYLINE
  5
134
330
17
100
AcDbEntity
  8
0
100
AcDbPolyline
 90
5
 70
1
 10
60.691
 20
-184.615
 10
62.112
 20
-185.436
 10
62.112
 20
-187.186
 10
60.691
 20
-188.007
 10
60.691
 20
-184.615
  0
INSERT
  5
135
330
17
100
AcDbEntity
  8
0
100
AcDbBlockReference
  2
HEX
 10
64.128
 20
-186.311
 30
0.0
  0
INSERT
  5
137
330
17
100
AcDbEntity
  8
0
100
AcDbBlockReference
  2
HEX
 10
67.659
 20
-186.311
 30
0.0
  0
INSERT
  5
139
330
17
100
AcDbEntity
  8
0
100
AcDbBlockReference
  2
HEX
 10
71.19
 20
-186.311
 30
0.0
  0
LWPOLYLINE
  5
13B
330
17
100
AcDbEntity
  8
0
100
AcDbPolyline
 90
13
 70
1
 10
73.939
 20
-185.012
 10
73.936
 20
-185.531
 10
73.967
 20
-185.747
 10
74.09
 20
-186.198
 10
74.186
 20
-186.431
 10
74.306
 20
-186.67
 10
74.453
 20
-186.913
 10
74.832
 20
-187.412
 10
75.199
 20
-187.785
 10
74.721
 20
-188.061
 10
73.205
 20
-187.186
 10
73.205
 20
-185.436
 10
73.939
 20
-185.012
  0
LWPOLYLINE
  5
13C
330
17
100
AcDbEntity
  8
0
100
AcDbPolyline
 90
4
 70
1
 10
78.487
 20
-187.925
 10
78.252
 20
-188.061
 10
78.018
 20
-187.925
 10
78.487
 20
-187.925
  0
LWPOLYLINE
  5
13D
330
17
100
AcDbEntity
  8
0
100
AcDbPolyline
 90
4
 70
1
 10
82.018
 20
-187.925
 10
81.783
 20
-188.061
 10
81.549
 20
-187.925
 10
82.018
 20
-187.925
  0
LWPOLYLINE
  5
13E
330
17
100
AcDbEntity
  8
0
100
AcDbPolyline
 90
4
 70
1
 10
85.549
 20
-187.925
 10
85.314
 20
-188.061
 10
85.08
 20
-187.925
 10
85.549
 20
-187.925
  0
LWPOLYLINE
  5
13F
330
17
100
AcDbEntity
  8
0
100
AcDbPolyline
 90
4
 70
1
 10
89.08
 20
-187.925
 10
88.845
 20
-188.061
 10
88.611
 20
-187.925
 10
89.08
 20
-187.925
  0
LWPOLYLINE
  5
140
330
17
100
AcDbEntity
  8
0
100
AcDbPolyline
 90
8
 70
1
 10
115.688
 20
-185.373
 10
117.094
 20
-184.561
 10
118.61
 20
-185.436
 10
118.61
 20
-187.186
 10
117.094
 20
-188.061
 10
115.579
 20
-187.186
 10
115.579
 20
-185.814
 10
115.688
 20
-185.373
  0
INSERT
  5
141
330
17
100
AcDbEntity
  8
0
100
AcDbBlockReference
  2
HEX
 10
120.625
 20
-186.311
 30
0.0
  0
INSERT
  5
143
330
17
100
AcDbEntity
  8
0
100
AcDbBlockReference
  2
HEX
 10
124.156
 20
-186.311
 30
0.0
  0
INSERT
  5
145
330
17
100
AcDbEntity
  8
0
100
AcDbBlockReference
  2
HEX
 10
127.687
 20
-186.311
 30
0.0
  0
INSERT
  5
147
330
17
100
AcDbEntity
  8
0
100
AcDbBlockReference
  2
HEX
 10
131.218
 20
-186.311
 30
0.0
  0
INSERT
  5
149
330
17
100
AcDbEntity
  8
0
100
AcDbBlockReference
  2
HEX
 10
134.75
 20
-186.311
 30
0.0
  0
INSERT
  5
14B
330
17
100
AcDbEntity
  8
0
100
AcDbBlockReference
  2
HEX
 10
138.281
 20
-186.311
 30
0.0
  0
INSERT
  5
14D
330
17
100
AcDbEntity
  8
0
100
AcDbBlockReference
  2
HEX
 10
141.812
 20
-186.311
 30
0.0
  0
INSERT
  5
14F
330
17
100
AcDbEntity
  8
0
100
AcDbBlockReference
  2
HEX
 10
145.343
 20
-186.311
 30
0.0
  0
INSERT
  5
151
330
17
100
AcDbEntity
  8
0
100
AcDbBlockReference
  2
HEX
 10
148.874
 20
-186.311
 30
0.0
  0
INSERT
  5
153
330
17
100
AcDbEntity
  8
0
100
AcDbBlockReference
  2
HEX
 10
152.405
 20
-186.311
 30
0.0
  0
INSERT
  5
155
330
17
100
AcDbEntity
  8
0
100
AcDbBlockReference
  2
HEX
 10
155.936
 20
-186.311
 30
0.0
  0
INSERT
  5
157
330
17
100
AcDbEntity
  8
0
100
AcDbBlockReference
  2
HEX
 10
159.467
 20
-186.311
 30
0.0
  0
INSERT
  5
159
330
17
100
AcDbEntity
  8
0
100
AcDbBlockReference
  2
HEX
 10
162.998
 20
-186.311
 30
0.0
  0
INSERT
  5
15B
330
17
100
AcDbEntity
  8
0
100
AcDbBlockReference
  2
HEX
 10
166.529
 20
-186.311
 30
0.0
  0
INSERT
  5
15D
330
17
100
AcDbEntity
  8
0
100
AcDbBlockReference
  2
HEX
 10
170.06
 20
-186.311
 30
0.0
  0
INSERT
  5
15F
330
17
100
AcDbEntity
  8
0
100
AcDbBlockReference
  2
HEX
 10
173.592
 20
-186.311
 30
0.0
  0
INSERT
  5
161
330
17
100
AcDbEntity
  8
0
100
AcDbBlockReference
  2
HEX
 10
177.123
 20
-186.311
 30
0.0
  0
INSERT
  5
163
330
17
100
AcDbEntity
  8
0
100
AcDbBlockReference
  2
HEX
 10
180.654
 20
-186.311
 30
0.0
  0
INSERT
  5
165
330
17
100
AcDbEntity
  8
0
100
AcDbBlockReference
  2
HEX
 10
184.185
 20
-186.311
 30
0.0
  0
LWPOLYLINE
  5
167
330
17
100
AcDbEntity
  8
0
100
AcDbPolyline
 90
5
 70
1
 10
187.439
 20
-187.901
 10
186.2
 20
-187.186
 10
186.2
 20
-185.436
 10
187.437
 20
-184.722
 10
187.439
 20
-187.901
  0
LWPOLYLINE
  5
168
330
17
100
AcDbEntity
  8
0
100
AcDbPolyline
 90
13
 70
1
 10
23.498
 20
-184.131
 10
23.525
 20
-183.956
 10
23.628
 20
-183.626
 10
23.79
 20
-183.327
 10
24.005
 20
-183.066
 10
24.13
 20
-182.952
 10
24.41
 20
-182.762
 10
24.726
 20
-182.629
 10
25.036
 20
-182.564
 10
25.036
 20
-184.128
 10
23.52
 20
-185.003
 10
23.498
 20
-184.99
 10
23.498
 20
-184.131
  0
LWPOLYLINE
  5
169
330
17
100
AcDbEntity
  8
0
100
AcDbPolyline
 90
6
 70
1
 10
28.567
 20
-182.549
 10
28.567
 20
-184.128
 10
27.051
 20
-185.003
 10
25.536
 20
-184.128
 10
25.536
 20
-182.557
 10
28.567
 20
-182.549
  0
LWPOLYLINE
  5
16A
330
17
100
AcDbEntity
  8
0
100
AcDbPolyline
 90
5
 70
1
 10
30.516
 20
-184.964
 10
29.067
 20
-184.128
 10
29.067
 20
-182.548
 10
30.516
 20
-182.544
 10
30.516
 20
-184.964
  0
LWPOLYLINE
  5
16B
330
17
100
AcDbEntity
  8
0
100
AcDbPolyline
 90
6
 70
1
 10
63.878
 20
-182.509
 10
63.878
 20
-184.128
 10
62.362
 20
-185.003
 10
60.847
 20
-184.128
 10
60.847
 20
-182.513
 10
63.878
 20
-182.509
  0
LWPOLYLINE
  5
16C
330
17
100
AcDbEntity
  8
0
100
AcDbPolyline
 90
6
 70
1
 10
67.409
 20
-182.506
 10
67.409
 20
-184.128
 10
65.893
 20
-185.003
 10
64.378
 20
-184.128
 10
64.378
 20
-182.509
 10
67.409
 20
-182.506
  0
LWPOLYLINE
  5
16D
330
17
100
AcDbEntity
  8
0
100
AcDbPolyline
 90
6
 70
1
 10
70.94
 20
-182.502
 10
70.94
 20
-184.128
 10
69.424
 20
-185.003
 10
67.909
 20
-184.128
 10
67.909
 20
-182.505
 10
70.94
 20
-182.502
  0
LWPOLYLINE
  5
16E
330
17
100
AcDbEntity
  8
0
100
AcDbPolyline
 90
8
 70
1
 10
74.471
 20
-182.499
 10
74.471
 20
-183.625
 10
74.221
 20
-184.047
 10
74.095
 20
-184.345
 10
72.955
 20
-185.003
 10
71.44
 20
-184.128
 10
71.44
 20
-182.502
 10
74.471
 20
-182.499
  0
LWPOLYLINE
  5
16F
330
17
100
AcDbEntity
  8
0
100
AcDbPolyline
 90
4
 70
1
 10
75.113
 20
-182.899
 10
74.971
 20
-183.032
 10
74.971
 20
-182.611
 10
75.113
 20
-182.899
  0
LWPOLYLINE
  5
170
330
17
100
AcDbEntity
  8
0
100
AcDbPolyline
 90
7
 70
1
 10
116.54
 20
-182.202
 10
116.844
 20
-182.378
 10
116.844
 20
-184.128
 10
115.794
 20
-184.734
 10
115.833
 20
-184.48
 10
115.833
 20
-182.204
 10
116.54
 20
-182.202
  0
LWPOLYLINE
  5
171
330
17
100
AcDbEntity
  8
0
100
AcDbPolyline
 90
8
 70
1
 10
120.066
 20
-182.199
 10
120.375
 20
-182.378
 10
120.375
 20
-184.128
 10
118.86
 20
-185.003
 10
117.344
 20
-184.128
 10
117.344
 20
-182.378
 10
117.65
 20
-182.201
 10
120.066
 20
-182.199
  0
LWPOLYLINE
  5
172
330
17
100
AcDbEntity
  8
0
100
AcDbPolyline
 90
8
 70
1
 10
123.591
 20
-182.196
 10
123.906
 20
-182.378
 10
123.906
 20
-184.128
 10
122.391
 20
-185.003
 10
120.875
 20
-184.128
 10
120.875
 20
-182.378
 10
121.186
 20
-182.198
 10
123.591
 20
-182.196
  0
LWPOLYLINE
  5
173
330
17
100
AcDbEntity
  8
0
100
AcDbPolyline
 90
8
 70
1
 10
127.117
 20
-182.193
 10
127.437
 20
-182.378
 10
127.437
 20
-184.128
 10
125.922
 20
-185.003
 10
124.406
 20
-184.128
 10
124.406
 20
-182.378
 10
124.723
 20
-182.195
 10
127.117
 20
-182.193
  0
LWPOLYLINE
  5
174
330
17
100
AcDbEntity
  8
0
100
AcDbPolyline
 90
8
 70
1
 10
130.643
 20
-182.19
 10
130.968
 20
-182.378
 10
130.968
 20
-184.128
 10
129.453
 20
-185.003
 10
127.937
 20
-184.128
 10
127.937
 20
-182.378
 10
128.259
 20
-182.192
 10
130.643
 20
-182.19
  0
LWPOLYLINE
  5
175
330
17
100
AcDbEntity
  8
0
100
AcDbPolyline
 90
8
 70
1
 10
134.169
 20
-182.187
 10
134.5
 20
-182.378
 10
134.5
 20
-184.128
 10
132.984
 20
-185.003
 10
131.468
 20
-184.128
 10
131.468
 20
-182.378
 10
131.796
 20
-182.189
 10
134.169
 20
-182.187
  0
LWPOLYLINE
  5
176
330
17
100
AcDbEntity
  8
0
100
AcDbPolyline
 90
8
 70
1
 10
137.694
 20
-182.184
 10
138.031
 20
-182.378
 10
138.031
 20
-184.128
 10
136.515
 20
-185.003
 10
135.0
 20
-184.128
 10
135.0
 20
-182.378
 10
135.332
 20
-182.186
 10
137.694
 20
-182.184
  0
LWPOLYLINE
  5
177
330
17
100
AcDbEntity
  8
0
100
AcDbPolyline
 90
8
 70
1
 10
141.22
 20
-182.181
 10
141.562
 20
-182.378
 10
141.562
 20
-184.128
 10
140.046
 20
-185.003
 10
138.531
 20
-184.128
 10
138.531
 20
-182.378
 10
138.869
 20
-182.183
 10
141.22
 20
-182.181
  0
LWPOLYLINE
  5
178
330
17
100
AcDbEntity
  8
0
100
AcDbPolyline
 90
8
 70
1
 10
144.746
 20
-182.178
 10
145.093
 20
-182.378
 10
145.093
 20
-184.128
 10
143.577
 20
-185.003
 10
142.062
 20
-184.128
 10
142.062
 20
-182.378
 10
142.405
 20
-182.18
 10
144.746
 20
-182.178
  0
LWPOLYLINE
  5
179
330
17
100
AcDbEntity
  8
0
100
AcDbPolyline
 90
8
 70
1
 10
148.272
 20
-182.175
 10
148.624
 20
-182.378
 10
148.624
 20
-184.128
 10
147.108
 20
-185.003
 10
145.593
 20
-184.128
 10
145.593
 20
-182.378
 10
145.941
 20
-182.177
 10
148.272
 20
-182.175
  0
LWPOLYLINE
  5
17A
330
17
100
AcDbEntity
  8
0
100
AcDbPolyline
 90
8
 70
1
 10
151.798
 20
-182.172
 10
152.155
 20
-182.378
 10
152.155
 20
-184.128
 10
150.639
 20
-185.003
 10
149.124
 20
-184.128
 10
149.124
 20
-182.378
 10
149.478
 20
-182.174
 10
151.798
 20
-182.172
  0
LWPOLYLINE
  5
17B
330
17
100
AcDbEntity
  8
0
100
AcDbPolyline
 90
8
 70
1
 10
155.323
 20
-182.168
 10
155.686
 20
-182.378
 10
155.686
 20
-184.128
 10
154.171
 20
-185.003
 10
152.655
 20
-184.128
 10
152.655
 20
-182.378
 10
153.014
 20
-182.17
 10
155.323
 20
-182.168
  0
LWPOLYLINE
  5
17C
330
17
100
AcDbEntity
  8
0
100
AcDbPolyline
 90
8
 70
1
 10
158.849
 20
-182.165
 10
159.217
 20
-182.378
 10
159.217
 20
-184.128
 10
157.702
 20
-185.003
 10
156.186
 20
-184.128
 10
156.186
 20
-182.378
 10
156.551
 20
-182.167
 10
158.849
 20
-182.165
  0
LWPOLYLINE
  5
17D
330
17
100
AcDbEntity
  8
0
100
AcDbPolyline
 90
8
 70
1
 10
162.375
 20
-182.162
 10
162.748
 20
-182.378
 10
162.748
 20
-184.128
 10
161.233
 20
-185.003
 10
159.717
 20
-184.128
 10
159.717
 20
-182.378
 10
160.087
 20
-182.164
 10
162.375
 20
-182.162
  0
LWPOLYLINE
  5
17E
330
17
100
AcDbEntity
  8
0
100
AcDbPolyline
 90
8
 70
1
 10
165.901
 20
-182.159
 10
166.279
 20
-182.378
 10
166.279
 20
-184.128
 10
164.764
 20
-185.003
 10
163.248
 20
-184.128
 10
163.248
 20
-182.378
 10
163.624
 20
-182.161
 10
165.901
 20
-182.159
  0
LWPOLYLINE
  5
17F
330
17
100
AcDbEntity
  8
0
100
AcDbPolyline
 90
8
 70
1
 10
169.426
 20
-182.156
 10
169.81
 20
-182.378
 10
169.81
 20
-184.128
 10
168.295
 20
-185.003
 10
166.779
 20
-184.128
 10
166.779
 20
-182.378
 10
167.16
 20
-182.158
 10
169.426
 20
-182.156
  0
LWPOLYLINE
  5
180
330
17
100
AcDbEntity
  8
0
100
AcDbPolyline
 90
8
 70
1
 10
172.952
 20
-182.153
 10
173.342
 20
-182.378
 10
173.342
 20
-184.128
 10
171.826
 20
-185.003
 10
170.31
 20
-184.128
 10
170.31
 20
-182.378
 10
170.696
 20
-182.155
 10
172.952
 20
-182.153
  0
LWPOLYLINE
  5
181
330
17
100
AcDbEntity
  8
0
100
AcDbPolyline
 90
8
 70
1
 10
176.478
 20
-182.15
 10
176.873
 20
-182.378
 10
176.873
 20
-184.128
 10
175.357
 20
-185.003
 10
173.842
 20
-184.128
 10
173.842
 20
-182.378
 10
174.233
 20
-182.152
 10
176.478
 20
-182.15
  0
LWPOLYLINE
  5
182
330
17
100
AcDbEntity
  8
0
100
AcDbPolyline
 90
8
 70
1
 10
180.004
 20
-182.147
 10
180.404
 20
-182.378
 10
180.404
 20
-184.128
 10
178.888
 20
-185.003
 10
177.373
 20
-184.128
 10
177.373
 20
-182.378
 10
177.769
 20
-182.149
 10
180.004
 20
-182.147
  0
LWPOLYLINE
  5
183
330
17
100
AcDbEntity
  8
0
100
AcDbPolyline
 90
8
 70
1
 10
183.53
 20
-182.144
 10
183.935
 20
-182.378
 10
183.935
 20
-184.128
 10
182.419
 20
-185.003
 10
180.904
 20
-184.128
 10
180.904
 20
-182.378
 10
181.306
 20
-182.146
 10
183.53
 20
-182.144
  0
LWPOLYLINE
  5
184
330
17
100
AcDbEntity
  8
0
100
AcDbPolyline
 90
15
 70
1
 10
185.83
 20
-182.142
 10
186.009
 20
-182.169
 10
186.347
 20
-182.274
 10
186.652
 20
-182.439
 10
186.919
 20
-182.659
 10
187.138
 20
-182.925
 10
187.304
 20
-183.231
 10
187.409
 20
-183.568
 10
187.436
 20
-183.747
 10
187.437
 20
-184.145
 10
185.95
 20
-185.003
 10
184.435
 20
-184.128
 10
184.435
 20
-182.378
 10
184.842
 20
-182.143
 10
185.83
 20
-182.142
  0
ENDSEC
  0
SECTION
  2
OBJECTS
  0
DICTIONARY
  5
A
330
0
100
AcDbDictionary
281
1
  3
ACAD_COLOR
350
B
  3
ACAD_GROUP
350
C
  3
ACAD_LAYOUT
350
D
  3
ACAD_MATERIAL
350
E
  3
ACAD_MLEADERSTYLE
350
F
  3
ACAD_MLINESTYLE
350
10
  3
ACAD_PLOTSETTINGS
350
11
  3
ACAD_PLOTSTYLENAME
350
12
  3
ACAD_SCALELIST
350
14
  3
ACAD_TABLESTYLE
350
15
  3
ACAD_VISUALSTYLE
350
16
  3
EZDXF_META
350
2D
  0
DICTIONARY
  5
B
330
A
100
AcDbDictionary
281
1
  0
DICTIONARY
  5
C
330
A
100
AcDbDictionary
281
1
  0
DICTIONARY
  5
D
330
A
100
AcDbDictionary
281
1
  3
Model
350
1A
  3
Layout1
350
1E
  0
DICTIONARY
  5
E
330
A
100
AcDbDictionary
281
1
  3
ByBlock
350
1F
  3
ByLayer
350
20
  3
Global
350
21
  0
DICTIONARY
  5
F
330
A
100
AcDbDictionary
281
1
  3
Standard
350
2C
  0
DICTIONARY
  5
10
330
A
100
AcDbDictionary
281
1
  3
Standard
350
22
  0
DICTIONARY
  5
11
330
A
100
AcDbDictionary
281
1
  0
ACDBDICTIONARYWDFLT
  5
12
330
A
100
AcDbDictionary
281
1
  3
Normal
350
13
100
AcDbDictionaryWithDefault
340
13
  0
ACDBPLACEHOLDER
  5
13
330
12
  0
DICTIONARY
  5
14
330
A
100
AcDbDictionary
281
1
  0
DICTIONARY
  5
15
330
A
100
AcDbDictionary
281
1
  0
DICTIONARY
  5
16
330
A
100
AcDbDictionary
281
1
  0
LAYOUT
  5
1A
330
D
100
AcDbPlotSettings
  1

  4
A3
  6

 40
7.5
 41
20.0
 42
7.5
 43
20.0
 44
420.0
 45
297.0
 46
0.0
 47
0.0
 48
0.0
 49
0.0
140
0.0
141
0.0
142
1.0
143
1.0
 70
1024
 72
1
 73
0
 74
5
  7

 75
16
 76
0
 77
2
 78
300
147
1.0
148
0.0
149
0.0
100
AcDbLayout
  1
Model
 70
1
 71
0
 10
0.0
 20
0.0
 11
420.0
 21
297.0
 12
0.0
 22
0.0
 32
0.0
 14
1e+20
 24
1e+20
 34
1e+20
 15
-1e+20
 25
-1e+20
 35
-1e+20
146
0.0
 13
0.0
 23
0.0
 33
0.0
 16
1.0
 26
0.0
 36
0.0
 17
0.0
 27
1.0
 37
0.0
 76
1
330
17
  0
LAYOUT
  5
1E
330
D
100
AcDbPlotSettings
  1

  4
A3
  6

 40
7.5
 41
20.0
 42
7.5
 43
20.0
 44
420.0
 45
297.0
 46
0.0
 47
0.0
 48
0.0
 49
0.0
140
0.0
141
0.0
142
1.0
143
1.0
 70
0
 72
1
 73
0
 74
5
  7

 75
16
 76
0
 77
2
 78
300
147
1.0
148
0.0
149
0.0
100
AcDbLayout
  1
Layout1
 70
1
 71
1
 10
0.0
 20
0.0
 11
420.0
 21
297.0
 12
0.0
 22
0.0
 32
0.0
 14
1e+20
 24
1e+20
 34
1e+20
 15
-1e+20
 25
-1e+20
 35
-1e+20
146
0.0
 13
0.0
 23
0.0
 33
0.0
 16
1.0
 26
0.0
 36
0.0
 17
0.0
 27
1.0
 37
0.0
 76
1
330
1B
  0
MATERIAL
  5
1F
102
{ACAD_REACTORS
330
E
102
}
330
E
100
AcDbMaterial
  1
ByBlock
  2

 70
0
 40
1.0
 71
1
 41
1.0
 91
-1023410177
 42
1.0
 72
1
  3

 73
1
 74
1
 75
1
 44
0.5
 73
0
 45
1.0
 46
1.0
 77
1
  4

 78
1
 79
1
170
1
 48
1.0
171
1
  6

172
1
173
1
174
1
140
1.0
141
1.0
175
1
  7

176
1
177
1
178
1
143
1.0
179
1
  8

270
1
271
1
272
1
145
1.0
146
1.0
273
1
  9

274
1
275
1
276
1
 42
1.0
 72
1
  3

 73
1
 74
1
 75
1
 94
63
  0
MATERIAL
  5
20
102
{ACAD_REACTORS
330
E
102
}
330
E
100
AcDbMaterial
  1
ByLayer
  2

 70
0
 40
1.0
 71
1
 41
1.0
 91
-1023410177
 42
1.0
 72
1
  3

 73
1
 74
1
 75
1
 44
0.5
 73
0
 45
1.0
 46
1.0
 77
1
  4

 78
1
 79
1
170
1
 48
1.0
171
1
  6

172
1
173
1
174
1
140
1.0
141
1.0
175
1
  7

176
1
177
1
178
1
143
1.0
179
1
  8

270
1
271
1
272
1
145
1.0
146
1.0
273
1
  9

274
1
275
1
276
1
 42
1.0
 72
1
  3

 73
1
 74
1
 75
1
 94
63
  0
MATERIAL
  5
21
102
{ACAD_REACTORS
330
E
102
}
330
E
100
AcDbMaterial
  1
Global
  2

 70
0
 40
1.0
 71
1
 41
1.0
 91
-1023410177
 42
1.0
 72
1
  3

 73
1
 74
1
 75
1
 44
0.5
 73
0
 45
1.0
 46
1.0
 77
1
  4

 78
1
 79
1
170
1
 48
1.0
171
1
  6

172
1
173
1
174
1
140
1.0
141
1.0
175
1
  7

176
1
177
1
178
1
143
1.0
179
1
  8

270
1
271
1
272
1
145
1.0
146
1.0
273
1
  9

274
1
275
1
276
1
 42
1.0
 72
1
  3

 73
1
 74
1
 75
1
 94
63
  0
MLINESTYLE
  5
22
102
{ACAD_REACTORS
330
10
102
}
330
10
100
AcDbMlineStyle
  2
Standard
 70
0
  3

 62
256
 51
90.0
 52
90.0
 71
2
 49
0.5
 62
256
  6
BYLAYER
 49
-0.5
 62
256
  6
BYLAYER
  0
MLEADERSTYLE
  5
2C
102
{ACAD_REACTORS
330
F
102
}
330
F
100
AcDbMLeaderStyle
179
2
170
2
171
1
172
0
 90
2
 40
0.0
 41
0.0
173
1
 91
-1056964608
 92
-2
290
1
 42
2.0
291
1
 43
8.0
  3
Standard
 44
4.0
300

342
29
174
1
175
1
176
0
178
1
 93
-1056964608
 45
4.0
292
0
297
0
 46
4.0
 94
-1056964608
 47
1.0
 49
1.0
140
1.0
294
1
141
0.0
177
0
142
1.0
295
0
296
0
143
3.75
271
0
272
9
273
9
  0
DICTIONARY
  5
2D
330
A
100
AcDbDictionary
280
1
281
1
  3
CREATED_BY_EZDXF
350
2E
  3
WRITTEN_BY_EZDXF
350
187
  0
DICTIONARYVAR
  5
2E
330
2D
100
DictionaryVariables
280
0
  1
1.4.3 @ 2026-04-09T21:37:16.837910+00:00
  0
DICTIONARYVAR
  5
187
330
2D
100
DictionaryVariables
280
0
  1
1.4.3 @ 2026-04-09T21:37:16.848597+00:00
  0
ENDSEC
  0
EOF
