  0
SECTION
  2
HEADER
  9
$ACADVER
  1
AC1024
  9
$ACADMAINTVER
 70
6
  9
$DWGCODEPAGE
  3
ANSI_1252
  9
$LASTSAVEDBY
  1
ezdxf
  9
$INSBASE
 10
0.0
 20
0.0
 30
0.0
  9
$EXTMIN
 10
1e+20
 20
1e+20
 30
1e+20
  9
$EXTMAX
 10
-1e+20
 20
-1e+20
 30
-1e+20
  9
$LIMMIN
 10
0.0
 20
0.0
  9
$LIMMAX
 10
420.0
 20
297.0
  9
$ORTHOMODE
 70
0
  9
$REGENMODE
 70
1
  9
$FILLMODE
 70
1
  9
$QTEXTMODE
 70
0
  9
$MIRRTEXT
 70
1
  9
$LTSCALE
 40
1.0
  9
$ATTMODE
 70
1
  9
$TEXTSIZE
 40
2.5
  9
$TRACEWID
 40
1.0
  9
$TEXTSTYLE
  7
Standard
  9
$CLAYER
  8
0
  9
$CELTYPE
  6
ByLayer
  9
$CECOLOR
 62
256
  9
$CELTSCALE
 40
1.0
  9
$DISPSILH
 70
0
  9
$DIMSCALE
 40
1.0
  9
$DIMASZ
 40
2.5
  9
$DIMEXO
 40
0.625
  9
$DIMDLI
 40
3.75
  9
$DIMRND
 40
0.0
  9
$DIMDLE
 40
0.0
  9
$DIMEXE
 40
1.25
  9
$DIMTP
 40
0.0
  9
$DIMTM
 40
0.0
  9
$DIMTXT
 40
2.5
  9
$DIMCEN
 40
2.5
  9
$DIMTSZ
 40
0.0
  9
$DIMTOL
 70
0
  9
$DIMLIM
 70
0
  9
$DIMTIH
 70
0
  9
$DIMTOH
 70
0
  9
$DIMSE1
 70
0
  9
$DIMSE2
 70
0
  9
$DIMTAD
 70
1
  9
$DIMZIN
 70
8
  9
$DIMBLK
  1

  9
$DIMASO
 70
1
  9
$DIMSHO
 70
1
  9
$DIMPOST
  1

  9
$DIMAPOST
  1

  9
$DIMALT
 70
0
  9
$DIMALTD
 70
3
  9
$DIMALTF
 40
0.03937007874
  9
$DIMLFAC
 40
1.0
  9
$DIMTOFL
 70
1
  9
$DIMTVP
 40
0.0
  9
$DIMTIX
 70
0
  9
$DIMSOXD
 70
0
  9
$DIMSAH
 70
0
  9
$DIMBLK1
  1

  9
$DIMBLK2
  1

  9
$DIMSTYLE
  2
ISO-25
  9
$DIMCLRD
 70
0
  9
$DIMCLRE
 70
0
  9
$DIMCLRT
 70
0
  9
$DIMTFAC
 40
1.0
  9
$DIMGAP
 40
0.625
  9
$DIMJUST
 70
0
  9
$DIMSD1
 70
0
  9
$DIMSD2
 70
0
  9
$DIMTOLJ
 70
0
  9
$DIMTZIN
 70
8
  9
$DIMALTZ
 70
0
  9
$DIMALTTZ
 70
0
  9
$DIMUPT
 70
0
  9
$DIMDEC
 70
2
  9
$DIMTDEC
 70
2
  9
$DIMALTU
 70
2
  9
$DIMALTTD
 70
3
  9
$DIMTXSTY
  7
Standard
  9
$DIMAUNIT
 70
0
  9
$DIMADEC
 70
0
  9
$DIMALTRND
 40
0.0
  9
$DIMAZIN
 70
0
  9
$DIMDSEP
 70
44
  9
$DIMATFIT
 70
3
  9
$DIMFRAC
 70
0
  9
$DIMLDRBLK
  1

  9
$DIMLUNIT
 70
2
  9
$DIMLWD
 70
-2
  9
$DIMLWE
 70
-2
  9
$DIMTMOVE
 70
0
  9
$DIMFXL
 40
1.0
  9
$DIMFXLON
 70
0
  9
$DIMJOGANG
 40
0.785398163397
  9
$DIMTFILL
 70
0
  9
$DIMTFILLCLR
 70
0
  9
$DIMARCSYM
 70
0
  9
$DIMLTYPE
  6

  9
$DIMLTEX1
  6

  9
$DIMLTEX2
  6

  9
$DIMTXTDIRECTION
 70
0
  9
$LUNITS
 70
2
  9
$LUPREC
 70
4
  9
$SKETCHINC
 40
1.0
  9
$FILLETRAD
 40
10.0
  9
$AUNITS
 70
0
  9
$AUPREC
 70
2
  9
$MENU
  1
.
  9
$ELEVATION
 40
0.0
  9
$PELEVATION
 40
0.0
  9
$THICKNESS
 40
0.0
  9
$LIMCHECK
 70
0
  9
$CHAMFERA
 40
0.0
  9
$CHAMFERB
 40
0.0
  9
$CHAMFERC
 40
0.0
  9
$CHAMFERD
 40
0.0
  9
$SKPOLY
 70
0
  9
$TDCREATE
 40
2461140.6092476854
  9
$TDUCREATE
 40
2458532.153996898
  9
$TDUPDATE
 40
2461140.6092476854
  9
$TDUUPDATE
 40
2458532.1544311
  9
$TDINDWG
 40
0.0
  9
$TDUSRTIMER
 40
0.0
  9
$USRTIMER
 70
1
  9
$ANGBASE
 50
0.0
  9
$ANGDIR
 70
0
  9
$PDMODE
 70
0
  9
$PDSIZE
 40
0.0
  9
$PLINEWID
 40
0.0
  9
$SPLFRAME
 70
0
  9
$SPLINETYPE
 70
6
  9
$SPLINESEGS
 70
8
  9
$HANDSEED
  5
1DA
  9
$SURFTAB1
 70
6
  9
$SURFTAB2
 70
6
  9
$SURFTYPE
 70
6
  9
$SURFU
 70
6
  9
$SURFV
 70
6
  9
$UCSBASE
  2

  9
$UCSNAME
  2

  9
$UCSORG
 10
0.0
 20
0.0
 30
0.0
  9
$UCSXDIR
 10
1.0
 20
0.0
 30
0.0
  9
$UCSYDIR
 10
0.0
 20
1.0
 30
0.0
  9
$UCSORTHOREF
  2

  9
$UCSORTHOVIEW
 70
0
  9
$UCSORGTOP
 10
0.0
 20
0.0
 30
0.0
  9
$UCSORGBOTTOM
 10
0.0
 20
0.0
 30
0.0
  9
$UCSORGLEFT
 10
0.0
 20
0.0
 30
0.0
  9
$UCSORGRIGHT
 10
0.0
 20
0.0
 30
0.0
  9
$UCSORGFRONT
 10
0.0
 20
0.0
 30
0.0
  9
$UCSORGBACK
 10
0.0
 20
0.0
 30
0.0
  9
$PUCSBASE
  2

  9
$PUCSNAME
  2

  9
$PUCSORG
 10
0.0
 20
0.0
 30
0.0
  9
$PUCSXDIR
 10
1.0
 20
0.0
 30
0.0
  9
$PUCSYDIR
 10
0.0
 20
1.0
 30
0.0
  9
$PUCSORTHOREF
  2

  9
$PUCSORTHOVIEW
 70
0
  9
$PUCSORGTOP
 10
0.0
 20
0.0
 30
0.0
  9
$PUCSORGBOTTOM
 10
0.0
 20
0.0
 30
0.0
  9
$PUCSORGLEFT
 10
0.0
 20
0.0
 30
0.0
  9
$PUCSORGRIGHT
 10
0.0
 20
0.0
 30
0.0
  9
$PUCSORGFRONT
 10
0.0
 20
0.0
 30
0.0
  9
$PUCSORGBACK
 10
0.0
 20
0.0
 30
0.0
  9
$USERI1
 70
0
  9
$USERI2
 70
0
  9
$USERI3
 70
0
  9
$USERI4
 70
0
  9
$USERI5
 70
0
  9
$USERR1
 40
0.0
  9
$USERR2
 40
0.0
  9
$USERR3
 40
0.0
  9
$USERR4
 40
0.0
  9
$USERR5
 40
0.0
  9
$WORLDVIEW
 70
1
  9
$SHADEDGE
 70
3
  9
$SHADEDIF
 70
70
  9
$TILEMODE
 70
1
  9
$MAXACTVP
 70
64
  9
$PINSBASE
 10
0.0
 20
0.0
 30
0.0
  9
$PLIMCHECK
 70
0
  9
$PEXTMIN
 10
1e+20
 20
1e+20
 30
1e+20
  9
$PEXTMAX
 10
-1e+20
 20
-1e+20
 30
-1e+20
  9
$PLIMMIN
 10
0.0
 20
0.0
  9
$PLIMMAX
 10
420.0
 20
297.0
  9
$UNITMODE
 70
0
  9
$VISRETAIN
 70
1
  9
$PLINEGEN
 70
0
  9
$PSLTSCALE
 70
1
  9
$TREEDEPTH
 70
3020
  9
$CMLSTYLE
  2
Standard
  9
$CMLJUST
 70
0
  9
$CMLSCALE
 40
20.0
  9
$PROXYGRAPHICS
 70
1
  9
$MEASUREMENT
 70
1
  9
$CELWEIGHT
370
-1
  9
$ENDCAPS
280
0
  9
$JOINSTYLE
280
0
  9
$LWDISPLAY
290
0
  9
$INSUNITS
 70
4
  9
$HYPERLINKBASE
  1

  9
$STYLESHEET
  1

  9
$XEDIT
290
1
  9
$CEPSNTYPE
380
0
  9
$PSTYLEMODE
290
1
  9
$FINGERPRINTGUID
  2
{4B3B4293-9363-4D37-B4E3-9A0CDCD5D2B4}
  9
$VERSIONGUID
  2
{E56F3C64-7880-4545-935C-07651FB35B7C}
  9
$EXTNAMES
290
1
  9
$PSVPSCALE
 40
0.0
  9
$OLESTARTUP
290
0
  9
$SORTENTS
280
127
  9
$INDEXCTL
280
0
  9
$HIDETEXT
280
1
  9
$XCLIPFRAME
280
1
  9
$HALOGAP
280
0
  9
$OBSCOLOR
 70
257
  9
$OBSLTYPE
280
0
  9
$INTERSECTIONDISPLAY
280
0
  9
$INTERSECTIONCOLOR
 70
257
  9
$DIMASSOC
280
2
  9
$PROJECTNAME
  1

  9
$CAMERADISPLAY
290
0
  9
$LENSLENGTH
 40
50.0
  9
$CAMERAHEIGHT
 40
0.0
  9
$STEPSPERSEC
 40
24.0
  9
$STEPSIZE
 40
100.0
  9
$3DDWFPREC
 40
2.0
  9
$PSOLWIDTH
 40
0.005
  9
$PSOLHEIGHT
 40
0.08
  9
$LOFTANG1
 40
1.570796326795
  9
$LOFTANG2
 40
1.570796326795
  9
$LOFTMAG1
 40
0.0
  9
$LOFTMAG2
 40
0.0
  9
$LOFTPARAM
 70
7
  9
$LOFTNORMALS
280
1
  9
$LATITUDE
 40
37.795
  9
$LONGITUDE
 40
-122.394
  9
$NORTHDIRECTION
 40
0.0
  9
$TIMEZONE
 70
-8000
  9
$LIGHTGLYPHDISPLAY
280
1
  9
$TILEMODELIGHTSYNCH
280
1
  9
$CMATERIAL
347
20
  9
$SOLIDHIST
280
0
  9
$SHOWHIST
280
1
  9
$DWFFRAME
280
2
  9
$DGNFRAME
280
2
  9
$REALWORLDSCALE
290
1
  9
$INTERFERECOLOR
 62
256
  9
$CSHADOW
280
0
  9
$SHADOWPLANELOCATION
 40
0.0
  0
ENDSEC
  0
SECTION
  2
CLASSES
  0
CLASS
  1
ACDBDICTIONARYWDFLT
  2
AcDbDictionaryWithDefault
  3
ObjectDBX Classes
 90
0
 91
0
280
0
281
0
  0
CLASS
  1
SUN
  2
AcDbSun
  3
SCENEOE
 90
1153
 91
0
280
0
281
0
  0
CLASS
  1
VISUALSTYLE
  2
AcDbVisualStyle
  3
ObjectDBX Classes
 90
4095
 91
0
280
0
281
0
  0
CLASS
  1
MATERIAL
  2
AcDbMaterial
  3
ObjectDBX Classes
 90
1153
 91
0
280
0
281
0
  0
CLASS
  1
SCALE
  2
AcDbScale
  3
ObjectDBX Classes
 90
1153
 91
0
280
0
281
0
  0
CLASS
  1
TABLESTYLE
  2
AcDbTableStyle
  3
ObjectDBX Classes
 90
4095
 91
0
280
0
281
0
  0
CLASS
  1
MLEADERSTYLE
  2
AcDbMLeaderStyle
  3
ACDB_MLEADERSTYLE_CLASS
 90
4095
 91
0
280
0
281
0
  0
CLASS
  1
DICTIONARYVAR
  2
AcDbDictionaryVar
  3
ObjectDBX Classes
 90
0
 91
0
280
0
281
0
  0
CLASS
  1
CELLSTYLEMAP
  2
AcDbCellStyleMap
  3
ObjectDBX Classes
 90
1152
 91
0
280
0
281
0
  0
CLASS
  1
MENTALRAYRENDERSETTINGS
  2
AcDbMentalRayRenderSettings
  3
SCENEOE
 90
1024
 91
0
280
0
281
0
  0
CLASS
  1
ACDBDETAILVIEWSTYLE
  2
AcDbDetailViewStyle
  3
ObjectDBX Classes
 90
1025
 91
0
280
0
281
0
  0
CLASS
  1
ACDBSECTIONVIEWSTYLE
  2
AcDbSectionViewStyle
  3
ObjectDBX Classes
 90
1025
 91
0
280
0
281
0
  0
CLASS
  1
RASTERVARIABLES
  2
AcDbRasterVariables
  3
ISM
 90
0
 91
0
280
0
281
0
  0
CLASS
  1
LAYOUT
  2
AcDbLayout
  3
ObjectDBX Classes
 90
0
 91
0
280
0
281
0
  0
CLASS
  1
ACDBPLACEHOLDER
  2
AcDbPlaceHolder
  3
ObjectDBX Classes
 90
0
 91
0
280
0
281
0
  0
ENDSEC
  0
SECTION
  2
TABLES
  0
TABLE
  2
VPORT
  5
8
330
0
100
AcDbSymbolTable
 70
1
  0
VPORT
  5
23
330
8
100
AcDbSymbolTableRecord
100
AcDbViewportTableRecord
  2
*Active
 70
0
 10
0.0
 20
0.0
 11
1.0
 21
1.0
 12
0.0
 22
0.0
 13
0.0
 23
0.0
 14
0.5
 24
0.5
 15
0.5
 25
0.5
 16
0.0
 26
0.0
 36
1.0
 17
0.0
 27
0.0
 37
0.0
 40
1000.0
 41
1.34
 42
50.0
 43
0.0
 44
0.0
 50
0.0
 51
0.0
 71
0
 72
1000
 73
1
 74
3
 75
0
 76
0
 77
0
 78
0
281
0
 65
0
146
0.0
  0
ENDTAB
  0
TABLE
  2
LTYPE
  5
2
330
0
100
AcDbSymbolTable
 70
3
  0
LTYPE
  5
24
330
2
100
AcDbSymbolTableRecord
100
AcDbLinetypeTableRecord
  2
ByBlock
 70
0
  3

 72
65
 73
0
 40
0.0
  0
LTYPE
  5
25
330
2
100
AcDbSymbolTableRecord
100
AcDbLinetypeTableRecord
  2
ByLayer
 70
0
  3

 72
65
 73
0
 40
0.0
  0
LTYPE
  5
26
330
2
100
AcDbSymbolTableRecord
100
AcDbLinetypeTableRecord
  2
Continuous
 70
0
  3

 72
65
 73
0
 40
0.0
  0
ENDTAB
  0
TABLE
  2
LAYER
  5
1
330
0
100
AcDbSymbolTable
 70
2
  0
LAYER
  5
27
330
1
100
AcDbSymbolTableRecord
100
AcDbLayerTableRecord
  2
0
 70
0
 62
7
  6
Continuous
370
-3
390
13
347
21
  0
LAYER
  5
28
330
1
100
AcDbSymbolTableRecord
100
AcDbLayerTableRecord
  2
Defpoints
 70
0
 62
7
  6
Continuous
290
0
370
-3
390
13
347
21
  0
ENDTAB
  0
TABLE
  2
STYLE
  5
5
330
0
100
AcDbSymbolTable
 70
1
  0
STYLE
  5
29
330
5
100
AcDbSymbolTableRecord
100
AcDbTextStyleTableRecord
  2
Standard
 70
0
 40
0.0
 41
1.0
 50
0.0
 71
0
 42
2.5
  3
txt
  4

  0
ENDTAB
  0
TABLE
  2
VIEW
  5
7
330
0
100
AcDbSymbolTable
 70
0
  0
ENDTAB
  0
TABLE
  2
UCS
  5
6
330
0
100
AcDbSymbolTable
 70
0
  0
ENDTAB
  0
TABLE
  2
APPID
  5
3
330
0
100
AcDbSymbolTable
 70
3
  0
APPID
  5
2A
330
3
100
AcDbSymbolTableRecord
100
AcDbRegAppTableRecord
  2
ACAD
 70
0
  0
APPID
  5
1D7
330
3
100
AcDbSymbolTableRecord
100
AcDbRegAppTableRecord
  2
HATCHBACKGROUNDCOLOR
 70
0
  0
APPID
  5
1D8
330
3
100
AcDbSymbolTableRecord
100
AcDbRegAppTableRecord
  2
EZDXF
 70
0
  0
ENDTAB
  0
TABLE
  2
DIMSTYLE
  5
4
330
0
100
AcDbSymbolTable
 70
1
100
AcDbDimStyleTable
  0
DIMSTYLE
105
2B
330
4
100
AcDbSymbolTableRecord
100
AcDbDimStyleTableRecord
  2
Standard
 70
0
 40
1.0
 41
2.5
 42
0.625
 43
3.75
 44
1.25
 45
0.0
 46
0.0
 47
0.0
 48
0.0
 49
2.5
140
2.5
141
2.5
142
0.0
143
0.03937007874
144
1.0
145
0.0
146
1.0
147
0.625
148
0.0
 69
0
 70
0
 71
0
 72
0
 73
0
 74
0
 75
0
 76
0
 77
1
 78
8
 79
3
170
0
171
3
172
1
173
0
174
0
175
0
176
0
177
0
178
0
179
2
271
2
272
2
273
2
274
3
275
0
276
0
277
2
278
44
279
0
280
0
281
0
282
0
283
0
284
8
285
0
286
0
288
0
289
3
290
0
371
-2
372
-2
  0
ENDTAB
  0
TABLE
  2
BLOCK_RECORD
  5
9
330
0
100
AcDbSymbolTable
 70
3
  0
BLOCK_RECORD
  5
17
330
9
100
AcDbSymbolTableRecord
100
AcDbBlockTableRecord
  2
*Model_Space
340
1A
 70
0
280
1
281
0
  0
BLOCK_RECORD
  5
1B
330
9
100
AcDbSymbolTableRecord
100
AcDbBlockTableRecord
  2
*Paper_Space
340
1E
 70
0
280
1
281
0
  0
BLOCK_RECORD
  5
2F
330
9
100
AcDbSymbolTableRecord
100
AcDbBlockTableRecord
  2
HEX
340
0
 70
0
280
1
281
0
  0
ENDTAB
  0
ENDSEC
  0
SECTION
  2
BLOCKS
  0
BLOCK
  5
18
330
17
100
AcDbEntity
  8
0
100
AcDbBlockBegin
  2
*Model_Space
 70
0
 10
0.0
 20
0.0
 30
0.0
  3
*Model_Space
  1

  0
ENDBLK
  5
19
330
17
100
AcDbEntity
  8
0
100
AcDbBlockEnd
  0
BLOCK
  5
1C
330
1B
100
AcDbEntity
  8
0
100
AcDbBlockBegin
  2
*Paper_Space
 70
0
 10
0.0
 20
0.0
 30
0.0
  3
*Paper_Space
  1

  0
ENDBLK
  5
1D
330
1B
100
AcDbEntity
  8
0
100
AcDbBlockEnd
  0
BLOCK
  5
30
330
2F
100
AcDbEntity
  8
0
100
AcDbBlockBegin
  2
HEX
 70
0
 10
0.0
 20
0.0
 30
0.0
  3
HEX
  1

  0
LWPOLYLINE
  5
32
330
2F
100
AcDbEntity
  8
0
100
AcDbPolyline
 90
6
 70
1
 10
1.516
 20
0.875
 10
0.0
 20
1.75
 10
-1.516
 20
0.875
 10
-1.516
 20
-0.875
 10
-0.0
 20
-1.75
 10
1.516
 20
-0.875
  0
ENDBLK
  5
31
330
2F
100
AcDbEntity
  8
0
100
AcDbBlockEnd
  0
ENDSEC
  0
SECTION
  2
ENTITIES
  0
LWPOLYLINE
  5
33
330
17
100
AcDbEntity
  8
0
100
AcDbPolyline
 90
6
 70
1
 10
119.689
 20
-138.113
 10
119.566
 20
-137.728
 10
119.566
 20
-137.68
 10
121.082
 20
-136.805
 10
122.528
 20
-137.64
 10
119.689
 20
-138.113
  0
LWPOLYLINE
  5
34
330
17
100
AcDbEntity
  8
0
100
AcDbPolyline
 90
4
 70
1
 10
123.426
 20
-137.49
 10
124.613
 20
-136.805
 10
125.268
 20
-137.183
 10
123.426
 20
-137.49
  0
LWPOLYLINE
  5
35
330
17
100
AcDbEntity
  8
0
100
AcDbPolyline
 90
6
 70
1
 10
118.456
 20
-134.244
 10
119.316
 20
-133.747
 10
120.832
 20
-134.622
 10
120.832
 20
-136.372
 10
119.398
 20
-137.2
 10
118.456
 20
-134.244
  0
INSERT
  5
36
330
17
100
AcDbEntity
  8
0
100
AcDbBlockReference
  2
HEX
 10
122.847
 20
-135.497
 30
0.0
  0
LWPOLYLINE
  5
38
330
17
100
AcDbEntity
  8
0
100
AcDbPolyline
 90
8
 70
1
 10
126.044
 20
-137.054
 10
124.863
 20
-136.372
 10
124.863
 20
-134.622
 10
126.378
 20
-133.747
 10
127.894
 20
-134.622
 10
127.894
 20
-136.372
 10
126.984
 20
-136.897
 10
126.044
 20
-137.054
  0
LWPOLYLINE
  5
39
330
17
100
AcDbEntity
  8
0
100
AcDbPolyline
 90
7
 70
1
 10
128.784
 20
-136.597
 10
128.394
 20
-136.372
 10
128.394
 20
-134.622
 10
129.909
 20
-133.747
 10
131.425
 20
-134.622
 10
131.425
 20
-136.157
 10
128.784
 20
-136.597
  0
LWPOLYLINE
  5
3A
330
17
100
AcDbEntity
  8
0
100
AcDbPolyline
 90
6
 70
1
 10
131.925
 20
-136.074
 10
131.925
 20
-134.622
 10
133.44
 20
-133.747
 10
134.956
 20
-134.622
 10
134.956
 20
-135.569
 10
131.925
 20
-136.074
  0
LWPOLYLINE
  5
3B
330
17
100
AcDbEntity
  8
0
100
AcDbPolyline
 90
6
 70
1
 10
135.456
 20
-135.485
 10
135.456
 20
-134.622
 10
136.971
 20
-133.747
 10
138.487
 20
-134.622
 10
138.487
 20
-134.98
 10
135.456
 20
-135.485
  0
LWPOLYLINE
  5
3C
330
17
100
AcDbEntity
  8
0
100
AcDbPolyline
 90
6
 70
1
 10
139.642
 20
-134.385
 10
139.198
 20
-134.862
 10
138.987
 20
-134.897
 10
138.987
 20
-134.622
 10
139.848
 20
-134.125
 10
139.642
 20
-134.385
  0
LWPOLYLINE
  5
3D
330
17
100
AcDbEntity
  8
0
100
AcDbPolyline
 90
6
 70
1
 10
117.359
 20
-130.8
 10
117.55
 20
-130.689
 10
119.066
 20
-131.564
 10
119.066
 20
-133.314
 10
118.301
 20
-133.756
 10
117.359
 20
-130.8
  0
INSERT
  5
3E
330
17
100
AcDbEntity
  8
0
100
AcDbBlockReference
  2
HEX
 10
121.082
 20
-132.439
 30
0.0
  0
INSERT
  5
40
330
17
100
AcDbEntity
  8
0
100
AcDbBlockReference
  2
HEX
 10
124.613
 20
-132.439
 30
0.0
  0
INSERT
  5
42
330
17
100
AcDbEntity
  8
0
100
AcDbBlockReference
  2
HEX
 10
128.144
 20
-132.439
 30
0.0
  0
INSERT
  5
44
330
17
100
AcDbEntity
  8
0
100
AcDbBlockReference
  2
HEX
 10
131.675
 20
-132.439
 30
0.0
  0
INSERT
  5
46
330
17
100
AcDbEntity
  8
0
100
AcDbBlockReference
  2
HEX
 10
135.206
 20
-132.439
 30
0.0
  0
INSERT
  5
48
330
17
100
AcDbEntity
  8
0
100
AcDbBlockReference
  2
HEX
 10
138.737
 20
-132.439
 30
0.0
  0
LWPOLYLINE
  5
4A
330
17
100
AcDbEntity
  8
0
100
AcDbPolyline
 90
5
 70
1
 10
140.874
 20
-132.618
 10
140.753
 20
-132.803
 10
140.753
 20
-131.564
 10
141.678
 20
-131.03
 10
140.874
 20
-132.618
  0
LWPOLYLINE
  5
4B
330
17
100
AcDbEntity
  8
0
100
AcDbPolyline
 90
5
 70
1
 10
116.477
 20
-128.031
 10
117.3
 20
-128.506
 10
117.3
 20
-130.256
 10
117.204
 20
-130.312
 10
116.477
 20
-128.031
  0
INSERT
  5
4C
330
17
100
AcDbEntity
  8
0
100
AcDbBlockReference
  2
HEX
 10
119.316
 20
-129.381
 30
0.0
  0
INSERT
  5
4E
330
17
100
AcDbEntity
  8
0
100
AcDbBlockReference
  2
HEX
 10
122.847
 20
-129.381
 30
0.0
  0
INSERT
  5
50
330
17
100
AcDbEntity
  8
0
100
AcDbBlockReference
  2
HEX
 10
126.378
 20
-129.381
 30
0.0
  0
INSERT
  5
52
330
17
100
AcDbEntity
  8
0
100
AcDbBlockReference
  2
HEX
 10
129.909
 20
-129.381
 30
0.0
  0
INSERT
  5
54
330
17
100
AcDbEntity
  8
0
100
AcDbBlockReference
  2
HEX
 10
133.44
 20
-129.381
 30
0.0
  0
INSERT
  5
56
330
17
100
AcDbEntity
  8
0
100
AcDbBlockReference
  2
HEX
 10
136.971
 20
-129.381
 30
0.0
  0
INSERT
  5
58
330
17
100
AcDbEntity
  8
0
100
AcDbBlockReference
  2
HEX
 10
140.503
 20
-129.381
 30
0.0
  0
LWPOLYLINE
  5
5A
330
17
100
AcDbEntity
  8
0
100
AcDbPolyline
 90
4
 70
1
 10
142.518
 20
-129.185
 10
142.518
 20
-128.506
 10
142.856
 20
-128.311
 10
142.518
 20
-129.185
  0
LWPOLYLINE
  5
5B
330
17
100
AcDbEntity
  8
0
100
AcDbPolyline
 90
8
 70
1
 10
116.035
 20
-126.643
 10
116.035
 20
-125.448
 10
117.55
 20
-124.573
 10
119.066
 20
-125.448
 10
119.066
 20
-127.198
 10
117.55
 20
-128.073
 10
116.251
 20
-127.323
 10
116.035
 20
-126.643
  0
INSERT
  5
5C
330
17
100
AcDbEntity
  8
0
100
AcDbBlockReference
  2
HEX
 10
121.082
 20
-126.323
 30
0.0
  0
INSERT
  5
5E
330
17
100
AcDbEntity
  8
0
100
AcDbBlockReference
  2
HEX
 10
124.613
 20
-126.323
 30
0.0
  0
INSERT
  5
60
330
17
100
AcDbEntity
  8
0
100
AcDbBlockReference
  2
HEX
 10
128.144
 20
-126.323
 30
0.0
  0
INSERT
  5
62
330
17
100
AcDbEntity
  8
0
100
AcDbBlockReference
  2
HEX
 10
131.675
 20
-126.323
 30
0.0
  0
INSERT
  5
64
330
17
100
AcDbEntity
  8
0
100
AcDbBlockReference
  2
HEX
 10
135.206
 20
-126.323
 30
0.0
  0
INSERT
  5
66
330
17
100
AcDbEntity
  8
0
100
AcDbBlockReference
  2
HEX
 10
138.737
 20
-126.323
 30
0.0
  0
LWPOLYLINE
  5
68
330
17
100
AcDbEntity
  8
0
100
AcDbPolyline
 90
8
 70
1
 10
143.43
 20
-126.829
 10
143.144
 20
-127.568
 10
142.268
 20
-128.073
 10
140.753
 20
-127.198
 10
140.753
 20
-125.448
 10
142.268
 20
-124.573
 10
142.631
 20
-124.783
 10
143.43
 20
-126.829
  0
LWPOLYLINE
  5
69
330
17
100
AcDbEntity
  8
0
100
AcDbPolyline
 90
7
 70
1
 10
114.616
 20
-122.19
 10
115.785
 20
-121.515
 10
117.3
 20
-122.39
 10
117.3
 20
-124.14
 10
115.785
 20
-125.015
 10
115.456
 20
-124.825
 10
114.616
 20
-122.19
  0
INSERT
  5
6A
330
17
100
AcDbEntity
  8
0
100
AcDbBlockReference
  2
HEX
 10
119.316
 20
-123.265
 30
0.0
  0
INSERT
  5
6C
330
17
100
AcDbEntity
  8
0
100
AcDbBlockReference
  2
HEX
 10
122.847
 20
-123.265
 30
0.0
  0
INSERT
  5
6E
330
17
100
AcDbEntity
  8
0
100
AcDbBlockReference
  2
HEX
 10
126.378
 20
-123.265
 30
0.0
  0
INSERT
  5
70
330
17
100
AcDbEntity
  8
0
100
AcDbBlockReference
  2
HEX
 10
129.909
 20
-123.265
 30
0.0
  0
INSERT
  5
72
330
17
100
AcDbEntity
  8
0
100
AcDbBlockReference
  2
HEX
 10
133.44
 20
-123.265
 30
0.0
  0
INSERT
  5
74
330
17
100
AcDbEntity
  8
0
100
AcDbBlockReference
  2
HEX
 10
136.971
 20
-123.265
 30
0.0
  0
LWPOLYLINE
  5
76
330
17
100
AcDbEntity
  8
0
100
AcDbPolyline
 90
8
 70
1
 10
142.018
 20
-123.212
 10
142.018
 20
-124.14
 10
140.503
 20
-125.015
 10
138.987
 20
-124.14
 10
138.987
 20
-122.39
 10
140.503
 20
-121.515
 10
141.604
 20
-122.151
 10
142.018
 20
-123.212
  0
LWPOLYLINE
  5
77
330
17
100
AcDbEntity
  8
0
100
AcDbPolyline
 90
6
 70
1
 10
113.519
 20
-118.746
 10
114.019
 20
-118.457
 10
115.535
 20
-119.332
 10
115.535
 20
-121.082
 10
114.461
 20
-121.702
 10
113.519
 20
-118.746
  0
INSERT
  5
78
330
17
100
AcDbEntity
  8
0
100
AcDbBlockReference
  2
HEX
 10
117.55
 20
-120.207
 30
0.0
  0
INSERT
  5
7A
330
17
100
AcDbEntity
  8
0
100
AcDbBlockReference
  2
HEX
 10
121.082
 20
-120.207
 30
0.0
  0
INSERT
  5
7C
330
17
100
AcDbEntity
  8
0
100
AcDbBlockReference
  2
HEX
 10
124.613
 20
-120.207
 30
0.0
  0
INSERT
  5
7E
330
17
100
AcDbEntity
  8
0
100
AcDbBlockReference
  2
HEX
 10
128.144
 20
-120.207
 30
0.0
  0
INSERT
  5
80
330
17
100
AcDbEntity
  8
0
100
AcDbBlockReference
  2
HEX
 10
131.675
 20
-120.207
 30
0.0
  0
INSERT
  5
82
330
17
100
AcDbEntity
  8
0
100
AcDbBlockReference
  2
HEX
 10
135.206
 20
-120.207
 30
0.0
  0
INSERT
  5
84
330
17
100
AcDbEntity
  8
0
100
AcDbBlockReference
  2
HEX
 10
138.737
 20
-120.207
 30
0.0
  0
LWPOLYLINE
  5
86
330
17
100
AcDbEntity
  8
0
100
AcDbPolyline
 90
4
 70
1
 10
141.313
 20
-121.406
 10
140.753
 20
-121.082
 10
140.753
 20
-119.969
 10
141.313
 20
-121.406
  0
LWPOLYLINE
  5
87
330
17
100
AcDbEntity
  8
0
100
AcDbPolyline
 90
5
 70
1
 10
112.498
 20
-115.54
 10
113.769
 20
-116.274
 10
113.769
 20
-118.024
 10
113.364
 20
-118.258
 10
112.498
 20
-115.54
  0
INSERT
  5
88
330
17
100
AcDbEntity
  8
0
100
AcDbBlockReference
  2
HEX
 10
115.785
 20
-117.149
 30
0.0
  0
INSERT
  5
8A
330
17
100
AcDbEntity
  8
0
100
AcDbBlockReference
  2
HEX
 10
119.316
 20
-117.149
 30
0.0
  0
INSERT
  5
8C
330
17
100
AcDbEntity
  8
0
100
AcDbBlockReference
  2
HEX
 10
122.847
 20
-117.149
 30
0.0
  0
INSERT
  5
8E
330
17
100
AcDbEntity
  8
0
100
AcDbBlockReference
  2
HEX
 10
126.378
 20
-117.149
 30
0.0
  0
INSERT
  5
90
330
17
100
AcDbEntity
  8
0
100
AcDbBlockReference
  2
HEX
 10
129.909
 20
-117.149
 30
0.0
  0
INSERT
  5
92
330
17
100
AcDbEntity
  8
0
100
AcDbBlockReference
  2
HEX
 10
133.44
 20
-117.149
 30
0.0
  0
INSERT
  5
94
330
17
100
AcDbEntity
  8
0
100
AcDbBlockReference
  2
HEX
 10
136.971
 20
-117.149
 30
0.0
  0
LWPOLYLINE
  5
96
330
17
100
AcDbEntity
  8
0
100
AcDbPolyline
 90
5
 70
1
 10
140.286
 20
-118.774
 10
138.987
 20
-118.024
 10
138.987
 20
-116.274
 10
139.251
 20
-116.122
 10
140.286
 20
-118.774
  0
LWPOLYLINE
  5
97
330
17
100
AcDbEntity
  8
0
100
AcDbPolyline
 90
4
 70
1
 10
111.702
 20
-113.042
 10
112.004
 20
-113.216
 10
112.004
 20
-113.989
 10
111.702
 20
-113.042
  0
INSERT
  5
98
330
17
100
AcDbEntity
  8
0
100
AcDbBlockReference
  2
HEX
 10
114.019
 20
-114.091
 30
0.0
  0
INSERT
  5
9A
330
17
100
AcDbEntity
  8
0
100
AcDbBlockReference
  2
HEX
 10
117.55
 20
-114.091
 30
0.0
  0
INSERT
  5
9C
330
17
100
AcDbEntity
  8
0
100
AcDbBlockReference
  2
HEX
 10
121.082
 20
-114.091
 30
0.0
  0
INSERT
  5
9E
330
17
100
AcDbEntity
  8
0
100
AcDbBlockReference
  2
HEX
 10
124.613
 20
-114.091
 30
0.0
  0
INSERT
  5
A0
330
17
100
AcDbEntity
  8
0
100
AcDbBlockReference
  2
HEX
 10
128.144
 20
-114.091
 30
0.0
  0
INSERT
  5
A2
330
17
100
AcDbEntity
  8
0
100
AcDbBlockReference
  2
HEX
 10
131.675
 20
-114.091
 30
0.0
  0
INSERT
  5
A4
330
17
100
AcDbEntity
  8
0
100
AcDbBlockReference
  2
HEX
 10
135.206
 20
-114.091
 30
0.0
  0
LWPOLYLINE
  5
A6
330
17
100
AcDbEntity
  8
0
100
AcDbPolyline
 90
6
 70
1
 10
139.067
 20
-115.651
 10
138.737
 20
-115.841
 10
137.221
 20
-114.966
 10
137.221
 20
-113.216
 10
137.952
 20
-112.794
 10
139.067
 20
-115.651
  0
LWPOLYLINE
  5
A7
330
17
100
AcDbEntity
  8
0
100
AcDbPolyline
 90
7
 70
1
 10
110.777
 20
-110.136
 10
112.254
 20
-109.283
 10
113.769
 20
-110.158
 10
113.769
 20
-111.908
 10
112.254
 20
-112.783
 10
111.477
 20
-112.335
 10
110.777
 20
-110.136
  0
INSERT
  5
A8
330
17
100
AcDbEntity
  8
0
100
AcDbBlockReference
  2
HEX
 10
115.785
 20
-111.033
 30
0.0
  0
INSERT
  5
AA
330
17
100
AcDbEntity
  8
0
100
AcDbBlockReference
  2
HEX
 10
119.316
 20
-111.033
 30
0.0
  0
INSERT
  5
AC
330
17
100
AcDbEntity
  8
0
100
AcDbBlockReference
  2
HEX
 10
122.847
 20
-111.033
 30
0.0
  0
INSERT
  5
AE
330
17
100
AcDbEntity
  8
0
100
AcDbBlockReference
  2
HEX
 10
126.378
 20
-111.033
 30
0.0
  0
INSERT
  5
B0
330
17
100
AcDbEntity
  8
0
100
AcDbBlockReference
  2
HEX
 10
129.909
 20
-111.033
 30
0.0
  0
INSERT
  5
B2
330
17
100
AcDbEntity
  8
0
100
AcDbBlockReference
  2
HEX
 10
133.44
 20
-111.033
 30
0.0
  0
LWPOLYLINE
  5
B4
330
17
100
AcDbEntity
  8
0
100
AcDbPolyline
 90
6
 70
1
 10
137.768
 20
-112.323
 10
136.971
 20
-112.783
 10
135.456
 20
-111.908
 10
135.456
 20
-110.158
 10
136.653
 20
-109.467
 10
137.768
 20
-112.323
  0
LWPOLYLINE
  5
B5
330
17
100
AcDbEntity
  8
0
100
AcDbPolyline
 90
6
 70
1
 10
109.68
 20
-106.692
 10
110.488
 20
-106.225
 10
112.004
 20
-107.1
 10
112.004
 20
-108.85
 10
110.621
 20
-109.648
 10
109.68
 20
-106.692
  0
INSERT
  5
B6
330
17
100
AcDbEntity
  8
0
100
AcDbBlockReference
  2
HEX
 10
114.019
 20
-107.975
 30
0.0
  0
INSERT
  5
B8
330
17
100
AcDbEntity
  8
0
100
AcDbBlockReference
  2
HEX
 10
117.55
 20
-107.975
 30
0.0
  0
INSERT
  5
BA
330
17
100
AcDbEntity
  8
0
100
AcDbBlockReference
  2
HEX
 10
121.082
 20
-107.975
 30
0.0
  0
INSERT
  5
BC
330
17
100
AcDbEntity
  8
0
100
AcDbBlockReference
  2
HEX
 10
124.613
 20
-107.975
 30
0.0
  0
INSERT
  5
BE
330
17
100
AcDbEntity
  8
0
100
AcDbBlockReference
  2
HEX
 10
128.144
 20
-107.975
 30
0.0
  0
INSERT
  5
C0
330
17
100
AcDbEntity
  8
0
100
AcDbBlockReference
  2
HEX
 10
131.675
 20
-107.975
 30
0.0
  0
LWPOLYLINE
  5
C2
330
17
100
AcDbEntity
  8
0
100
AcDbPolyline
 90
7
 70
1
 10
136.469
 20
-108.996
 10
135.206
 20
-109.725
 10
133.69
 20
-108.85
 10
133.69
 20
-107.1
 10
135.206
 20
-106.225
 10
135.441
 20
-106.361
 10
136.469
 20
-108.996
  0
LWPOLYLINE
  5
C3
330
17
100
AcDbEntity
  8
0
100
AcDbPolyline
 90
6
 70
1
 10
108.582
 20
-103.248
 10
108.723
 20
-103.167
 10
110.238
 20
-104.042
 10
110.238
 20
-105.792
 10
109.524
 20
-106.204
 10
108.582
 20
-103.248
  0
INSERT
  5
C4
330
17
100
AcDbEntity
  8
0
100
AcDbBlockReference
  2
HEX
 10
112.254
 20
-104.917
 30
0.0
  0
INSERT
  5
C6
330
17
100
AcDbEntity
  8
0
100
AcDbBlockReference
  2
HEX
 10
115.785
 20
-104.917
 30
0.0
  0
INSERT
  5
C8
330
17
100
AcDbEntity
  8
0
100
AcDbBlockReference
  2
HEX
 10
119.316
 20
-104.917
 30
0.0
  0
INSERT
  5
CA
330
17
100
AcDbEntity
  8
0
100
AcDbBlockReference
  2
HEX
 10
122.847
 20
-104.917
 30
0.0
  0
INSERT
  5
CC
330
17
100
AcDbEntity
  8
0
100
AcDbBlockReference
  2
HEX
 10
126.378
 20
-104.917
 30
0.0
  0
INSERT
  5
CE
330
17
100
AcDbEntity
  8
0
100
AcDbBlockReference
  2
HEX
 10
129.909
 20
-104.917
 30
0.0
  0
LWPOLYLINE
  5
D0
330
17
100
AcDbEntity
  8
0
100
AcDbPolyline
 90
8
 70
1
 10
134.956
 20
-105.118
 10
134.956
 20
-105.792
 10
133.44
 20
-106.667
 10
131.925
 20
-105.792
 10
131.925
 20
-104.042
 10
133.44
 20
-103.167
 10
134.414
 20
-103.729
 10
134.956
 20
-105.118
  0
LWPOLYLINE
  5
D1
330
17
100
AcDbEntity
  8
0
100
AcDbPolyline
 90
5
 70
1
 10
107.723
 20
-100.551
 10
108.473
 20
-100.984
 10
108.473
 20
-102.734
 10
108.427
 20
-102.76
 10
107.723
 20
-100.551
  0
INSERT
  5
D2
330
17
100
AcDbEntity
  8
0
100
AcDbBlockReference
  2
HEX
 10
110.488
 20
-101.859
 30
0.0
  0
INSERT
  5
D4
330
17
100
AcDbEntity
  8
0
100
AcDbBlockReference
  2
HEX
 10
114.019
 20
-101.859
 30
0.0
  0
INSERT
  5
D6
330
17
100
AcDbEntity
  8
0
100
AcDbBlockReference
  2
HEX
 10
117.55
 20
-101.859
 30
0.0
  0
INSERT
  5
D8
330
17
100
AcDbEntity
  8
0
100
AcDbBlockReference
  2
HEX
 10
121.082
 20
-101.859
 30
0.0
  0
INSERT
  5
DA
330
17
100
AcDbEntity
  8
0
100
AcDbBlockReference
  2
HEX
 10
124.613
 20
-101.859
 30
0.0
  0
INSERT
  5
DC
330
17
100
AcDbEntity
  8
0
100
AcDbBlockReference
  2
HEX
 10
128.144
 20
-101.859
 30
0.0
  0
INSERT
  5
DE
330
17
100
AcDbEntity
  8
0
100
AcDbBlockReference
  2
HEX
 10
131.675
 20
-101.859
 30
0.0
  0
LWPOLYLINE
  5
E0
330
17
100
AcDbEntity
  8
0
100
AcDbPolyline
 90
4
 70
1
 10
134.123
 20
-102.984
 10
133.69
 20
-102.734
 10
133.69
 20
-101.875
 10
134.123
 20
-102.984
  0
LWPOLYLINE
  5
E1
330
17
100
AcDbEntity
  8
0
100
AcDbPolyline
 90
6
 70
1
 10
104.464
 20
-97.471
 10
105.192
 20
-97.051
 10
106.048
 20
-97.545
 10
106.696
 20
-99.611
 10
104.994
 20
-97.9
 10
104.464
 20
-97.471
  0
LWPOLYLINE
  5
E2
330
17
100
AcDbEntity
  8
0
100
AcDbPolyline
 90
8
 70
1
 10
107.207
 20
-98.931
 10
107.207
 20
-97.926
 10
108.723
 20
-97.051
 10
110.238
 20
-97.926
 10
110.238
 20
-99.676
 10
108.723
 20
-100.551
 10
107.498
 20
-99.844
 10
107.207
 20
-98.931
  0
INSERT
  5
E3
330
17
100
AcDbEntity
  8
0
100
AcDbBlockReference
  2
HEX
 10
112.254
 20
-98.801
 30
0.0
  0
INSERT
  5
E5
330
17
100
AcDbEntity
  8
0
100
AcDbBlockReference
  2
HEX
 10
115.785
 20
-98.801
 30
0.0
  0
INSERT
  5
E7
330
17
100
AcDbEntity
  8
0
100
AcDbBlockReference
  2
HEX
 10
119.316
 20
-98.801
 30
0.0
  0
INSERT
  5
E9
330
17
100
AcDbEntity
  8
0
100
AcDbBlockReference
  2
HEX
 10
122.847
 20
-98.801
 30
0.0
  0
INSERT
  5
EB
330
17
100
AcDbEntity
  8
0
100
AcDbBlockReference
  2
HEX
 10
126.378
 20
-98.801
 30
0.0
  0
INSERT
  5
ED
330
17
100
AcDbEntity
  8
0
100
AcDbBlockReference
  2
HEX
 10
129.909
 20
-98.801
 30
0.0
  0
LWPOLYLINE
  5
EF
330
17
100
AcDbEntity
  8
0
100
AcDbPolyline
 90
5
 70
1
 10
133.096
 20
-100.352
 10
131.925
 20
-99.676
 10
131.925
 20
-97.926
 10
132.108
 20
-97.82
 10
133.096
 20
-100.352
  0
LWPOLYLINE
  5
F0
330
17
100
AcDbEntity
  8
0
100
AcDbPolyline
 90
4
 70
1
 10
90.817
 20
-95.152
 10
90.706
 20
-95.134
 10
90.817
 20
-95.056
 10
90.817
 20
-95.152
  0
LWPOLYLINE
  5
F1
330
17
100
AcDbEntity
  8
0
100
AcDbPolyline
 90
6
 70
1
 10
94.348
 20
-95.291
 10
91.317
 20
-95.232
 10
91.317
 20
-94.868
 10
92.833
 20
-93.993
 10
94.348
 20
-94.868
 10
94.348
 20
-95.291
  0
LWPOLYLINE
  5
F2
330
17
100
AcDbEntity
  8
0
100
AcDbPolyline
 90
7
 70
1
 10
95.424
 20
-94.857
 10
95.65
 20
-95.1
 10
95.906
 20
-95.317
 10
94.848
 20
-95.299
 10
94.848
 20
-94.868
 10
95.256
 20
-94.633
 10
95.424
 20
-94.857
  0
LWPOLYLINE
  5
F3
330
17
100
AcDbEntity
  8
0
100
AcDbPolyline
 90
8
 70
1
 10
100.901
 20
-95.059
 10
100.762
 20
-94.925
 10
100.712
 20
-94.804
 10
100.731
 20
-94.67
 10
100.834
 20
-94.535
 10
101.411
 20
-94.868
 10
101.411
 20
-95.335
 10
100.901
 20
-95.059
  0
LWPOLYLINE
  5
F4
330
17
100
AcDbEntity
  8
0
100
AcDbPolyline
 90
9
 70
1
 10
103.152
 20
-96.407
 10
102.067
 20
-95.689
 10
101.911
 20
-95.604
 10
101.911
 20
-94.868
 10
103.426
 20
-93.993
 10
104.942
 20
-94.868
 10
104.942
 20
-96.618
 10
104.049
 20
-97.134
 10
103.152
 20
-96.407
  0
LWPOLYLINE
  5
F5
330
17
100
AcDbEntity
  8
0
100
AcDbPolyline
 90
4
 70
1
 10
105.827
 20
-96.84
 10
105.442
 20
-96.618
 10
105.442
 20
-95.614
 10
105.827
 20
-96.84
  0
LWPOLYLINE
  5
F6
330
17
100
AcDbEntity
  8
0
100
AcDbPolyline
 90
7
 70
1
 10
105.84
 20
-94.638
 10
106.957
 20
-93.993
 10
108.473
 20
-94.868
 10
108.473
 20
-96.618
 10
106.957
 20
-97.493
 10
106.702
 20
-97.346
 10
105.84
 20
-94.638
  0
INSERT
  5
F7
330
17
100
AcDbEntity
  8
0
100
AcDbBlockReference
  2
HEX
 10
110.488
 20
-95.743
 30
0.0
  0
INSERT
  5
F9
330
17
100
AcDbEntity
  8
0
100
AcDbBlockReference
  2
HEX
 10
114.019
 20
-95.743
 30
0.0
  0
INSERT
  5
FB
330
17
100
AcDbEntity
  8
0
100
AcDbBlockReference
  2
HEX
 10
117.55
 20
-95.743
 30
0.0
  0
INSERT
  5
FD
330
17
100
AcDbEntity
  8
0
100
AcDbBlockReference
  2
HEX
 10
121.082
 20
-95.743
 30
0.0
  0
INSERT
  5
FF
330
17
100
AcDbEntity
  8
0
100
AcDbBlockReference
  2
HEX
 10
124.613
 20
-95.743
 30
0.0
  0
INSERT
  5
101
330
17
100
AcDbEntity
  8
0
100
AcDbBlockReference
  2
HEX
 10
128.144
 20
-95.743
 30
0.0
  0
LWPOLYLINE
  5
103
330
17
100
AcDbEntity
  8
0
100
AcDbPolyline
 90
6
 70
1
 10
131.924
 20
-97.349
 10
131.675
 20
-97.493
 10
130.159
 20
-96.618
 10
130.159
 20
-94.868
 10
130.809
 20
-94.493
 10
131.924
 20
-97.349
  0
LWPOLYLINE
  5
104
330
17
100
AcDbEntity
  8
0
100
AcDbPolyline
 90
16
 70
1
 10
87.649
 20
-93.976
 10
87.557
 20
-93.964
 10
87.386
 20
-93.904
 10
87.31
 20
-93.86
 10
87.178
 20
-93.745
 10
87.079
 20
-93.604
 10
87.043
 20
-93.526
 10
87.003
 20
-93.36
 10
87.004
 20
-93.23
 10
87.068
 20
-93.016
 10
87.651
 20
-91.977
 10
88.007
 20
-91.207
 10
89.052
 20
-91.81
 10
89.052
 20
-93.56
 10
88.33
 20
-93.977
 10
87.649
 20
-93.976
  0
LWPOLYLINE
  5
105
330
17
100
AcDbEntity
  8
0
100
AcDbPolyline
 90
10
 70
1
 10
91.727
 20
-93.06
 10
90.952
 20
-93.746
 10
90.642
 20
-93.978
 10
90.275
 20
-93.978
 10
89.552
 20
-93.56
 10
89.552
 20
-91.81
 10
91.067
 20
-90.935
 10
92.583
 20
-91.81
 10
92.583
 20
-92.103
 10
91.727
 20
-93.06
  0
LWPOLYLINE
  5
106
330
17
100
AcDbEntity
  8
0
100
AcDbPolyline
 90
11
 70
1
 10
94.367
 20
-91.781
 10
94.403
 20
-92.183
 10
94.593
 20
-93.147
 10
94.782
 20
-93.727
 10
95.003
 20
-94.201
 10
94.598
 20
-94.435
 10
93.083
 20
-93.56
 10
93.083
 20
-93.274
 10
93.275
 20
-93.104
 10
93.856
 20
-92.469
 10
94.367
 20
-91.781
  0
LWPOLYLINE
  5
107
330
17
100
AcDbEntity
  8
0
100
AcDbPolyline
 90
5
 70
1
 10
101.724
 20
-94.33
 10
101.937
 20
-94.276
 10
101.661
 20
-94.435
 10
101.521
 20
-94.354
 10
101.724
 20
-94.33
  0
LWPOLYLINE
  5
108
330
17
100
AcDbEntity
  8
0
100
AcDbPolyline
 90
9
 70
1
 10
103.676
 20
-92.877
 10
103.81
 20
-92.598
 10
103.905
 20
-92.341
 10
103.978
 20
-92.077
 10
104.056
 20
-91.591
 10
104.16
 20
-91.531
 10
105.045
 20
-94.351
 10
103.676
 20
-93.56
 10
103.676
 20
-92.877
  0
LWPOLYLINE
  5
109
330
17
100
AcDbEntity
  8
0
100
AcDbPolyline
 90
6
 70
1
 10
104.743
 20
-91.194
 10
105.192
 20
-90.935
 10
106.707
 20
-91.81
 10
106.707
 20
-93.56
 10
105.684
 20
-94.151
 10
104.743
 20
-91.194
  0
INSERT
  5
10A
330
17
100
AcDbEntity
  8
0
100
AcDbBlockReference
  2
HEX
 10
108.723
 20
-92.685
 30
0.0
  0
INSERT
  5
10C
330
17
100
AcDbEntity
  8
0
100
AcDbBlockReference
  2
HEX
 10
112.254
 20
-92.685
 30
0.0
  0
INSERT
  5
10E
330
17
100
AcDbEntity
  8
0
100
AcDbBlockReference
  2
HEX
 10
115.785
 20
-92.685
 30
0.0
  0
INSERT
  5
110
330
17
100
AcDbEntity
  8
0
100
AcDbBlockReference
  2
HEX
 10
119.316
 20
-92.685
 30
0.0
  0
INSERT
  5
112
330
17
100
AcDbEntity
  8
0
100
AcDbBlockReference
  2
HEX
 10
122.847
 20
-92.685
 30
0.0
  0
INSERT
  5
114
330
17
100
AcDbEntity
  8
0
100
AcDbBlockReference
  2
HEX
 10
126.378
 20
-92.685
 30
0.0
  0
LWPOLYLINE
  5
116
330
17
100
AcDbEntity
  8
0
100
AcDbPolyline
 90
6
 70
1
 10
130.625
 20
-94.022
 10
129.909
 20
-94.435
 10
128.394
 20
-93.56
 10
128.394
 20
-91.81
 10
129.51
 20
-91.165
 10
130.625
 20
-94.022
  0
LWPOLYLINE
  5
117
330
17
100
AcDbEntity
  8
0
100
AcDbPolyline
 90
4
 70
1
 10
130.312
 20
-91.628
 10
130.077
 20
-91.032
 10
130.306
 20
-91.164
 10
130.312
 20
-91.628
  0
LWPOLYLINE
  5
118
330
17
100
AcDbEntity
  8
0
100
AcDbPolyline
 90
10
 70
1
 10
88.449
 20
-90.062
 10
88.704
 20
-89.149
 10
88.873
 20
-88.27
 10
88.89
 20
-88.115
 10
89.302
 20
-87.877
 10
90.817
 20
-88.752
 10
90.817
 20
-90.502
 10
89.302
 20
-91.377
 10
88.199
 20
-90.74
 10
88.449
 20
-90.062
  0
LWPOLYLINE
  5
119
330
17
100
AcDbEntity
  8
0
100
AcDbPolyline
 90
10
 70
1
 10
94.14
 20
-89.487
 10
93.739
 20
-90.383
 10
93.318
 20
-91.097
 10
92.833
 20
-91.377
 10
91.317
 20
-90.502
 10
91.317
 20
-88.752
 10
92.833
 20
-87.877
 10
94.348
 20
-88.752
 10
94.348
 20
-88.798
 10
94.14
 20
-89.487
  0
LWPOLYLINE
  5
11A
330
17
100
AcDbEntity
  8
0
100
AcDbPolyline
 90
5
 70
1
 10
103.745
 20
-88.061
 10
104.942
 20
-88.752
 10
104.942
 20
-90.502
 10
104.587
 20
-90.707
 10
103.745
 20
-88.061
  0
INSERT
  5
11B
330
17
100
AcDbEntity
  8
0
100
AcDbBlockReference
  2
HEX
 10
106.957
 20
-89.627
 30
0.0
  0
INSERT
  5
11D
330
17
100
AcDbEntity
  8
0
100
AcDbBlockReference
  2
HEX
 10
110.488
 20
-89.627
 30
0.0
  0
INSERT
  5
11F
330
17
100
AcDbEntity
  8
0
100
AcDbBlockReference
  2
HEX
 10
114.019
 20
-89.627
 30
0.0
  0
INSERT
  5
121
330
17
100
AcDbEntity
  8
0
100
AcDbBlockReference
  2
HEX
 10
117.55
 20
-89.627
 30
0.0
  0
INSERT
  5
123
330
17
100
AcDbEntity
  8
0
100
AcDbBlockReference
  2
HEX
 10
121.082
 20
-89.627
 30
0.0
  0
INSERT
  5
125
330
17
100
AcDbEntity
  8
0
100
AcDbBlockReference
  2
HEX
 10
124.613
 20
-89.627
 30
0.0
  0
LWPOLYLINE
  5
127
330
17
100
AcDbEntity
  8
0
100
AcDbPolyline
 90
7
 70
1
 10
129.326
 20
-90.694
 10
128.144
 20
-91.377
 10
126.628
 20
-90.502
 10
126.628
 20
-88.752
 10
128.144
 20
-87.877
 10
128.251
 20
-87.939
 10
129.326
 20
-90.694
  0
LWPOLYLINE
  5
128
330
17
100
AcDbEntity
  8
0
100
AcDbPolyline
 90
4
 70
1
 10
129.033
 20
-88.39
 10
129.659
 20
-88.752
 10
129.659
 20
-89.975
 10
129.033
 20
-88.39
  0
LWPOLYLINE
  5
129
330
17
100
AcDbEntity
  8
0
100
AcDbPolyline
 90
6
 70
1
 10
130.282
 20
-89.564
 10
130.297
 20
-90.582
 10
130.159
 20
-90.502
 10
130.159
 20
-88.752
 10
130.363
 20
-88.634
 10
130.282
 20
-89.564
  0
LWPOLYLINE
  5
12A
330
17
100
AcDbEntity
  8
0
100
AcDbPolyline
 90
7
 70
1
 10
88.956
 20
-87.499
 10
88.985
 20
-86.622
 10
88.945
 20
-85.859
 10
88.912
 20
-85.614
 10
89.052
 20
-85.694
 10
89.052
 20
-87.444
 10
88.956
 20
-87.499
  0
INSERT
  5
12B
330
17
100
AcDbEntity
  8
0
100
AcDbBlockReference
  2
HEX
 10
91.067
 20
-86.569
 30
0.0
  0
LWPOLYLINE
  5
12D
330
17
100
AcDbEntity
  8
0
100
AcDbPolyline
 90
8
 70
1
 10
94.549
 20
-85.679
 10
94.626
 20
-86.64
 10
94.584
 20
-87.603
 10
94.474
 20
-88.247
 10
93.083
 20
-87.444
 10
93.083
 20
-85.694
 10
94.395
 20
-84.936
 10
94.549
 20
-85.679
  0
LWPOLYLINE
  5
12E
330
17
100
AcDbEntity
  8
0
100
AcDbPolyline
 90
4
 70
1
 10
102.949
 20
-85.563
 10
103.176
 20
-85.694
 10
103.176
 20
-86.276
 10
102.949
 20
-85.563
  0
INSERT
  5
12F
330
17
100
AcDbEntity
  8
0
100
AcDbBlockReference
  2
HEX
 10
105.192
 20
-86.569
 30
0.0
  0
INSERT
  5
131
330
17
100
AcDbEntity
  8
0
100
AcDbBlockReference
  2
HEX
 10
108.723
 20
-86.569
 30
0.0
  0
INSERT
  5
133
330
17
100
AcDbEntity
  8
0
100
AcDbBlockReference
  2
HEX
 10
112.254
 20
-86.569
 30
0.0
  0
INSERT
  5
135
330
17
100
AcDbEntity
  8
0
100
AcDbBlockReference
  2
HEX
 10
115.785
 20
-86.569
 30
0.0
  0
INSERT
  5
137
330
17
100
AcDbEntity
  8
0
100
AcDbBlockReference
  2
HEX
 10
119.316
 20
-86.569
 30
0.0
  0
INSERT
  5
139
330
17
100
AcDbEntity
  8
0
100
AcDbBlockReference
  2
HEX
 10
122.847
 20
-86.569
 30
0.0
  0
LWPOLYLINE
  5
13B
330
17
100
AcDbEntity
  8
0
100
AcDbPolyline
 90
8
 70
1
 10
127.894
 20
-87.023
 10
127.894
 20
-87.444
 10
126.378
 20
-88.319
 10
124.863
 20
-87.444
 10
124.863
 20
-85.694
 10
126.378
 20
-84.819
 10
127.224
 20
-85.307
 10
127.894
 20
-87.023
  0
LWPOLYLINE
  5
13C
330
17
100
AcDbEntity
  8
0
100
AcDbPolyline
 90
10
 70
1
 10
131.076
 20
-85.493
 10
130.7
 20
-86.566
 10
130.429
 20
-87.888
 10
130.417
 20
-88.026
 10
129.909
 20
-88.319
 10
128.737
 20
-87.642
 10
128.394
 20
-86.773
 10
128.394
 20
-85.694
 10
129.909
 20
-84.819
 10
131.076
 20
-85.493
  0
LWPOLYLINE
  5
13D
330
17
100
AcDbEntity
  8
0
100
AcDbPolyline
 90
11
 70
1
 10
72.489
 20
-82.727
 10
72.142
 20
-83.516
 10
71.898
 20
-84.274
 10
71.88
 20
-83.678
 10
71.794
 20
-83.109
 10
71.651
 20
-82.569
 10
71.458
 20
-82.06
 10
71.386
 20
-81.911
 10
71.646
 20
-81.761
 10
72.696
 20
-82.367
 10
72.489
 20
-82.727
  0
LWPOLYLINE
  5
13E
330
17
100
AcDbEntity
  8
0
100
AcDbPolyline
 90
10
 70
1
 10
88.709
 20
-84.467
 10
88.531
 20
-83.843
 10
88.322
 20
-83.27
 10
87.963
 20
-82.534
 10
89.302
 20
-81.761
 10
90.817
 20
-82.636
 10
90.817
 20
-84.386
 10
89.302
 20
-85.261
 10
88.817
 20
-84.981
 10
88.709
 20
-84.467
  0
LWPOLYLINE
  5
13F
330
17
100
AcDbEntity
  8
0
100
AcDbPolyline
 90
9
 70
1
 10
92.758
 20
-81.804
 10
93.131
 20
-82.236
 10
93.599
 20
-82.937
 10
94.036
 20
-83.815
 10
94.252
 20
-84.442
 10
92.833
 20
-85.261
 10
91.317
 20
-84.386
 10
91.317
 20
-82.636
 10
92.758
 20
-81.804
  0
LWPOLYLINE
  5
140
330
17
100
AcDbEntity
  8
0
100
AcDbPolyline
 90
7
 70
1
 10
102.0
 20
-82.584
 10
103.426
 20
-81.761
 10
104.942
 20
-82.636
 10
104.942
 20
-84.386
 10
103.426
 20
-85.261
 10
102.724
 20
-84.855
 10
102.0
 20
-82.584
  0
INSERT
  5
141
330
17
100
AcDbEntity
  8
0
100
AcDbBlockReference
  2
HEX
 10
106.957
 20
-83.511
 30
0.0
  0
INSERT
  5
143
330
17
100
AcDbEntity
  8
0
100
AcDbBlockReference
  2
HEX
 10
110.488
 20
-83.511
 30
0.0
  0
INSERT
  5
145
330
17
100
AcDbEntity
  8
0
100
AcDbBlockReference
  2
HEX
 10
114.019
 20
-83.511
 30
0.0
  0
INSERT
  5
147
330
17
100
AcDbEntity
  8
0
100
AcDbBlockReference
  2
HEX
 10
117.55
 20
-83.511
 30
0.0
  0
INSERT
  5
149
330
17
100
AcDbEntity
  8
0
100
AcDbBlockReference
  2
HEX
 10
121.082
 20
-83.511
 30
0.0
  0
INSERT
  5
14B
330
17
100
AcDbEntity
  8
0
100
AcDbBlockReference
  2
HEX
 10
124.613
 20
-83.511
 30
0.0
  0
LWPOLYLINE
  5
14D
330
17
100
AcDbEntity
  8
0
100
AcDbPolyline
 90
4
 70
1
 10
126.933
 20
-84.562
 10
126.628
 20
-84.386
 10
126.628
 20
-83.781
 10
126.933
 20
-84.562
  0
LWPOLYLINE
  5
14E
330
17
100
AcDbEntity
  8
0
100
AcDbPolyline
 90
8
 70
1
 10
129.504
 20
-84.476
 10
128.144
 20
-85.261
 10
127.693
 20
-85.001
 10
127.118
 20
-83.545
 10
127.61
 20
-83.821
 10
128.156
 20
-84.073
 10
128.841
 20
-84.321
 10
129.504
 20
-84.476
  0
LWPOLYLINE
  5
14F
330
17
100
AcDbEntity
  8
0
100
AcDbPolyline
 90
11
 70
1
 10
130.857
 20
-84.516
 10
131.266
 20
-84.421
 10
131.467
 20
-84.351
 10
131.857
 20
-84.159
 10
132.044
 20
-84.036
 10
131.955
 20
-84.114
 10
131.722
 20
-84.371
 10
131.4
 20
-84.842
 10
131.299
 20
-85.044
 10
130.452
 20
-84.555
 10
130.857
 20
-84.516
  0
LWPOLYLINE
  5
150
330
17
100
AcDbEntity
  8
0
100
AcDbPolyline
 90
11
 70
1
 10
70.966
 20
-81.139
 10
70.393
 20
-80.358
 10
69.815
 20
-79.73
 10
69.309
 20
-79.266
 10
69.137
 20
-79.133
 10
69.57
 20
-78.882
 10
70.193
 20
-78.883
 10
71.396
 20
-79.578
 10
71.396
 20
-81.328
 10
71.158
 20
-81.466
 10
70.966
 20
-81.139
  0
LWPOLYLINE
  5
151
330
17
100
AcDbEntity
  8
0
100
AcDbPolyline
 90
13
 70
1
 10
74.745
 20
-79.985
 10
74.222
 20
-80.404
 10
73.763
 20
-80.856
 10
73.363
 20
-81.327
 10
73.02
 20
-81.805
 10
72.946
 20
-81.934
 10
71.896
 20
-81.328
 10
71.896
 20
-79.578
 10
73.09
 20
-78.889
 10
73.736
 20
-78.89
 10
74.927
 20
-79.578
 10
74.927
 20
-79.869
 10
74.745
 20
-79.985
  0
LWPOLYLINE
  5
152
330
17
100
AcDbEntity
  8
0
100
AcDbPolyline
 90
7
 70
1
 10
77.279
 20
-78.897
 10
77.344
 20
-78.935
 10
76.724
 20
-79.055
 10
75.992
 20
-79.297
 10
75.541
 20
-79.513
 10
76.609
 20
-78.896
 10
77.279
 20
-78.897
  0
LWPOLYLINE
  5
153
330
17
100
AcDbEntity
  8
0
100
AcDbPolyline
 90
13
 70
1
 10
87.268
 20
-81.431
 10
87.226
 20
-81.309
 10
87.212
 20
-81.185
 10
87.218
 20
-81.103
 10
87.262
 20
-80.947
 10
87.346
 20
-80.808
 10
87.401
 20
-80.748
 10
87.574
 20
-80.634
 10
87.788
 20
-80.588
 10
89.052
 20
-80.644
 10
89.052
 20
-81.328
 10
87.723
 20
-82.095
 10
87.268
 20
-81.431
  0
LWPOLYLINE
  5
154
330
17
100
AcDbEntity
  8
0
100
AcDbPolyline
 90
9
 70
1
 10
91.11
 20
-80.736
 10
91.517
 20
-80.893
 10
91.895
 20
-81.094
 10
92.244
 20
-81.334
 10
92.377
 20
-81.447
 10
91.067
 20
-82.203
 10
89.552
 20
-81.328
 10
89.552
 20
-80.667
 10
91.11
 20
-80.736
  0
LWPOLYLINE
  5
155
330
17
100
AcDbEntity
  8
0
100
AcDbPolyline
 90
6
 70
1
 10
100.903
 20
-79.14
 10
101.661
 20
-78.703
 10
103.176
 20
-79.578
 10
103.176
 20
-81.328
 10
101.845
 20
-82.097
 10
100.903
 20
-79.14
  0
INSERT
  5
156
330
17
100
AcDbEntity
  8
0
100
AcDbBlockReference
  2
HEX
 10
105.192
 20
-80.453
 30
0.0
  0
INSERT
  5
158
330
17
100
AcDbEntity
  8
0
100
AcDbBlockReference
  2
HEX
 10
108.723
 20
-80.453
 30
0.0
  0
INSERT
  5
15A
330
17
100
AcDbEntity
  8
0
100
AcDbBlockReference
  2
HEX
 10
112.254
 20
-80.453
 30
0.0
  0
INSERT
  5
15C
330
17
100
AcDbEntity
  8
0
100
AcDbBlockReference
  2
HEX
 10
115.785
 20
-80.453
 30
0.0
  0
INSERT
  5
15E
330
17
100
AcDbEntity
  8
0
100
AcDbBlockReference
  2
HEX
 10
119.316
 20
-80.453
 30
0.0
  0
INSERT
  5
160
330
17
100
AcDbEntity
  8
0
100
AcDbBlockReference
  2
HEX
 10
122.847
 20
-80.453
 30
0.0
  0
LWPOLYLINE
  5
162
330
17
100
AcDbEntity
  8
0
100
AcDbPolyline
 90
5
 70
1
 10
125.906
 20
-81.93
 10
124.863
 20
-81.328
 10
124.863
 20
-79.578
 10
124.965
 20
-79.519
 10
125.906
 20
-81.93
  0
LWPOLYLINE
  5
163
330
17
100
AcDbEntity
  8
0
100
AcDbPolyline
 90
8
 70
1
 10
127.711
 20
-80.965
 10
127.408
 20
-80.61
 10
127.149
 20
-80.231
 10
126.939
 20
-79.818
 10
126.656
 20
-78.863
 10
127.894
 20
-79.578
 10
127.894
 20
-81.15
 10
127.711
 20
-80.965
  0
INSERT
  5
164
330
17
100
AcDbEntity
  8
0
100
AcDbBlockReference
  2
HEX
 10
129.909
 20
-80.453
 30
0.0
  0
LWPOLYLINE
  5
166
330
17
100
AcDbEntity
  8
0
100
AcDbPolyline
 90
6
 70
1
 10
132.906
 20
-79.767
 10
131.925
 20
-80.897
 10
131.925
 20
-79.578
 10
133.44
 20
-78.703
 10
133.813
 20
-78.918
 10
132.906
 20
-79.767
  0
LWPOLYLINE
  5
167
330
17
100
AcDbEntity
  8
0
100
AcDbPolyline
 90
4
 70
1
 10
72.093
 20
-78.887
 10
71.646
 20
-79.145
 10
71.197
 20
-78.885
 10
72.093
 20
-78.887
  0
LWPOLYLINE
  5
168
330
17
100
AcDbEntity
  8
0
100
AcDbPolyline
 90
9
 70
1
 10
70.946
 20
-76.853
 10
70.778
 20
-76.821
 10
70.623
 20
-76.752
 10
70.488
 20
-76.648
 10
70.304
 20
-76.42
 10
71.646
 20
-75.645
 10
73.162
 20
-76.52
 10
73.162
 20
-76.853
 10
70.946
 20
-76.853
  0
LWPOLYLINE
  5
169
330
17
100
AcDbEntity
  8
0
100
AcDbPolyline
 90
4
 70
1
 10
75.612
 20
-78.894
 10
75.177
 20
-79.145
 10
74.739
 20
-78.892
 10
75.612
 20
-78.894
  0
LWPOLYLINE
  5
16A
330
17
100
AcDbEntity
  8
0
100
AcDbPolyline
 90
6
 70
1
 10
73.662
 20
-76.853
 10
73.662
 20
-76.52
 10
75.177
 20
-75.645
 10
76.693
 20
-76.52
 10
76.693
 20
-76.853
 10
73.662
 20
-76.853
  0
LWPOLYLINE
  5
16B
330
17
100
AcDbEntity
  8
0
100
AcDbPolyline
 90
8
 70
1
 10
77.916
 20
-76.102
 10
78.278
 20
-76.421
 10
78.513
 20
-76.584
 10
78.765
 20
-76.728
 10
79.033
 20
-76.854
 10
77.193
 20
-76.854
 10
77.193
 20
-76.52
 10
77.916
 20
-76.102
  0
LWPOLYLINE
  5
16C
330
17
100
AcDbEntity
  8
0
100
AcDbPolyline
 90
7
 70
1
 10
99.905
 20
-76.006
 10
99.883
 20
-75.815
 10
99.896
 20
-75.645
 10
101.411
 20
-76.52
 10
101.411
 20
-78.27
 10
100.748
 20
-78.653
 10
99.905
 20
-76.006
  0
INSERT
  5
16D
330
17
100
AcDbEntity
  8
0
100
AcDbBlockReference
  2
HEX
 10
103.426
 20
-77.395
 30
0.0
  0
INSERT
  5
16F
330
17
100
AcDbEntity
  8
0
100
AcDbBlockReference
  2
HEX
 10
106.957
 20
-77.395
 30
0.0
  0
INSERT
  5
171
330
17
100
AcDbEntity
  8
0
100
AcDbBlockReference
  2
HEX
 10
110.488
 20
-77.395
 30
0.0
  0
INSERT
  5
173
330
17
100
AcDbEntity
  8
0
100
AcDbBlockReference
  2
HEX
 10
114.019
 20
-77.395
 30
0.0
  0
INSERT
  5
175
330
17
100
AcDbEntity
  8
0
100
AcDbBlockReference
  2
HEX
 10
117.55
 20
-77.395
 30
0.0
  0
INSERT
  5
177
330
17
100
AcDbEntity
  8
0
100
AcDbBlockReference
  2
HEX
 10
121.082
 20
-77.395
 30
0.0
  0
LWPOLYLINE
  5
179
330
17
100
AcDbEntity
  8
0
100
AcDbPolyline
 90
6
 70
1
 10
124.781
 20
-79.048
 10
124.613
 20
-79.145
 10
123.097
 20
-78.27
 10
123.097
 20
-76.52
 10
123.666
 20
-76.192
 10
124.781
 20
-79.048
  0
LWPOLYLINE
  5
17A
330
17
100
AcDbEntity
  8
0
100
AcDbPolyline
 90
5
 70
1
 10
125.883
 20
-76.546
 10
125.74
 20
-76.296
 10
126.128
 20
-76.52
 10
126.128
 20
-77.092
 10
125.883
 20
-76.546
  0
LWPOLYLINE
  5
17B
330
17
100
AcDbEntity
  8
0
100
AcDbPolyline
 90
10
 70
1
 10
127.947
 20
-76.529
 10
129.301
 20
-77.259
 10
129.43
 20
-77.303
 10
129.659
 20
-77.34
 10
129.659
 20
-78.27
 10
128.144
 20
-79.145
 10
126.628
 20
-78.27
 10
126.628
 20
-76.52
 10
127.186
 20
-76.198
 10
127.947
 20
-76.529
  0
LWPOLYLINE
  5
17C
330
17
100
AcDbEntity
  8
0
100
AcDbPolyline
 90
9
 70
1
 10
130.159
 20
-77.173
 10
130.38
 20
-76.965
 10
131.019
 20
-76.023
 10
131.675
 20
-75.645
 10
133.19
 20
-76.52
 10
133.19
 20
-78.27
 10
131.675
 20
-79.145
 10
130.159
 20
-78.27
 10
130.159
 20
-77.173
  0
LWPOLYLINE
  5
17D
330
17
100
AcDbEntity
  8
0
100
AcDbPolyline
 90
8
 70
1
 10
136.721
 20
-76.692
 10
136.526
 20
-76.886
 10
134.232
 20
-78.583
 10
133.69
 20
-78.27
 10
133.69
 20
-76.52
 10
135.206
 20
-75.645
 10
136.721
 20
-76.52
 10
136.721
 20
-76.692
  0
LWPOLYLINE
  5
17E
330
17
100
AcDbEntity
  8
0
100
AcDbPolyline
 90
12
 70
1
 10
10.491
 20
-73.528
 10
10.343
 20
-73.498
 10
10.207
 20
-73.44
 10
10.087
 20
-73.357
 10
9.942
 20
-73.194
 10
9.874
 20
-73.064
 10
9.832
 20
-72.921
 10
9.821
 20
-72.605
 10
9.852
 20
-72.587
 10
11.368
 20
-73.462
 10
11.368
 20
-73.528
 10
10.491
 20
-73.528
  0
LWPOLYLINE
  5
17F
330
17
100
AcDbEntity
  8
0
100
AcDbPolyline
 90
6
 70
1
 10
11.868
 20
-73.528
 10
11.868
 20
-73.462
 10
13.383
 20
-72.587
 10
14.899
 20
-73.462
 10
14.899
 20
-73.529
 10
11.868
 20
-73.528
  0
LWPOLYLINE
  5
180
330
17
100
AcDbEntity
  8
0
100
AcDbPolyline
 90
6
 70
1
 10
15.399
 20
-73.529
 10
15.399
 20
-73.462
 10
16.914
 20
-72.587
 10
18.43
 20
-73.462
 10
18.43
 20
-73.529
 10
15.399
 20
-73.529
  0
LWPOLYLINE
  5
181
330
17
100
AcDbEntity
  8
0
100
AcDbPolyline
 90
6
 70
1
 10
18.93
 20
-73.529
 10
18.93
 20
-73.462
 10
20.446
 20
-72.587
 10
21.961
 20
-73.462
 10
21.961
 20
-73.529
 10
18.93
 20
-73.529
  0
LWPOLYLINE
  5
182
330
17
100
AcDbEntity
  8
0
100
AcDbPolyline
 90
6
 70
1
 10
22.461
 20
-73.529
 10
22.461
 20
-73.462
 10
23.977
 20
-72.587
 10
25.492
 20
-73.462
 10
25.492
 20
-73.529
 10
22.461
 20
-73.529
  0
LWPOLYLINE
  5
183
330
17
100
AcDbEntity
  8
0
100
AcDbPolyline
 90
6
 70
1
 10
25.992
 20
-73.529
 10
25.992
 20
-73.462
 10
27.508
 20
-72.587
 10
29.023
 20
-73.462
 10
29.023
 20
-73.53
 10
25.992
 20
-73.529
  0
LWPOLYLINE
  5
184
330
17
100
AcDbEntity
  8
0
100
AcDbPolyline
 90
9
 70
1
 10
32.227
 20
-73.273
 10
32.137
 20
-73.403
 10
32.072
 20
-73.457
 10
31.956
 20
-73.512
 10
31.87
 20
-73.53
 10
29.523
 20
-73.53
 10
29.523
 20
-73.462
 10
31.039
 20
-72.587
 10
32.227
 20
-73.273
  0
LWPOLYLINE
  5
185
330
17
100
AcDbEntity
  8
0
100
AcDbPolyline
 90
4
 70
1
 10
33.171
 20
-73.394
 10
34.57
 20
-72.587
 10
36.003
 20
-73.414
 10
33.171
 20
-73.394
  0
LWPOLYLINE
  5
186
330
17
100
AcDbEntity
  8
0
100
AcDbPolyline
 90
4
 70
1
 10
36.66
 20
-73.419
 10
38.101
 20
-72.587
 10
39.578
 20
-73.44
 10
36.66
 20
-73.419
  0
LWPOLYLINE
  5
187
330
17
100
AcDbEntity
  8
0
100
AcDbPolyline
 90
4
 70
1
 10
40.148
 20
-73.444
 10
41.632
 20
-72.587
 10
43.148
 20
-73.465
 10
40.148
 20
-73.444
  0
LWPOLYLINE
  5
188
330
17
100
AcDbEntity
  8
0
100
AcDbPolyline
 90
5
 70
1
 10
43.648
 20
-73.468
 10
45.163
 20
-72.587
 10
46.679
 20
-73.462
 10
46.679
 20
-73.489
 10
43.648
 20
-73.468
  0
LWPOLYLINE
  5
189
330
17
100
AcDbEntity
  8
0
100
AcDbPolyline
 90
6
 70
1
 10
47.179
 20
-73.493
 10
47.179
 20
-73.462
 10
48.694
 20
-72.587
 10
50.21
 20
-73.462
 10
50.21
 20
-73.514
 10
47.179
 20
-73.493
  0
LWPOLYLINE
  5
18A
330
17
100
AcDbEntity
  8
0
100
AcDbPolyline
 90
6
 70
1
 10
50.71
 20
-73.518
 10
50.71
 20
-73.462
 10
52.225
 20
-72.587
 10
53.741
 20
-73.462
 10
53.741
 20
-73.539
 10
50.71
 20
-73.518
  0
LWPOLYLINE
  5
18B
330
17
100
AcDbEntity
  8
0
100
AcDbPolyline
 90
6
 70
1
 10
54.241
 20
-73.543
 10
54.241
 20
-73.462
 10
55.756
 20
-72.587
 10
57.272
 20
-73.462
 10
57.272
 20
-73.564
 10
54.241
 20
-73.543
  0
LWPOLYLINE
  5
18C
330
17
100
AcDbEntity
  8
0
100
AcDbPolyline
 90
6
 70
1
 10
57.772
 20
-73.568
 10
57.772
 20
-73.462
 10
59.287
 20
-72.587
 10
60.803
 20
-73.462
 10
60.803
 20
-73.589
 10
57.772
 20
-73.568
  0
LWPOLYLINE
  5
18D
330
17
100
AcDbEntity
  8
0
100
AcDbPolyline
 90
7
 70
1
 10
63.835
 20
-73.61
 10
61.303
 20
-73.592
 10
61.303
 20
-73.462
 10
62.819
 20
-72.587
 10
64.334
 20
-73.462
 10
64.334
 20
-73.666
 10
63.835
 20
-73.61
  0
LWPOLYLINE
  5
18E
330
17
100
AcDbEntity
  8
0
100
AcDbPolyline
 90
8
 70
1
 10
67.865
 20
-74.555
 10
66.703
 20
-74.1
 10
65.387
 20
-73.783
 10
64.834
 20
-73.721
 10
64.834
 20
-73.462
 10
66.35
 20
-72.587
 10
67.865
 20
-73.462
 10
67.865
 20
-74.555
  0
LWPOLYLINE
  5
18F
330
17
100
AcDbEntity
  8
0
100
AcDbPolyline
 90
9
 70
1
 10
69.967
 20
-76.037
 10
69.384
 20
-75.496
 10
68.686
 20
-74.998
 10
68.365
 20
-74.825
 10
68.365
 20
-73.462
 10
69.881
 20
-72.587
 10
71.396
 20
-73.462
 10
71.396
 20
-75.212
 10
69.967
 20
-76.037
  0
INSERT
  5
190
330
17
100
AcDbEntity
  8
0
100
AcDbBlockReference
  2
HEX
 10
73.412
 20
-74.337
 30
0.0
  0
LWPOLYLINE
  5
192
330
17
100
AcDbEntity
  8
0
100
AcDbPolyline
 90
11
 70
1
 10
76.814
 20
-72.662
 10
76.781
 20
-73.262
 10
76.824
 20
-73.82
 10
76.935
 20
-74.367
 10
77.114
 20
-74.893
 10
77.362
 20
-75.387
 10
77.584
 20
-75.717
 10
76.943
 20
-76.087
 10
75.427
 20
-75.212
 10
75.427
 20
-73.462
 10
76.814
 20
-72.662
  0
LWPOLYLINE
  5
193
330
17
100
AcDbEntity
  8
0
100
AcDbPolyline
 90
8
 70
1
 10
100.145
 20
-75.13
 10
100.358
 20
-74.955
 10
100.534
 20
-74.87
 10
103.176
 20
-74.059
 10
103.176
 20
-75.212
 10
101.661
 20
-76.087
 10
100.145
 20
-75.212
 10
100.145
 20
-75.13
  0
LWPOLYLINE
  5
194
330
17
100
AcDbEntity
  8
0
100
AcDbPolyline
 90
8
 70
1
 10
104.511
 20
-73.649
 10
106.348
 20
-73.255
 10
106.707
 20
-73.462
 10
106.707
 20
-75.212
 10
105.192
 20
-76.087
 10
103.676
 20
-75.212
 10
103.676
 20
-73.905
 10
104.511
 20
-73.649
  0
LWPOLYLINE
  5
195
330
17
100
AcDbEntity
  8
0
100
AcDbPolyline
 90
8
 70
1
 10
109.116
 20
-72.814
 10
110.238
 20
-73.462
 10
110.238
 20
-75.212
 10
108.723
 20
-76.087
 10
107.207
 20
-75.212
 10
107.207
 20
-73.462
 10
108.105
 20
-72.944
 10
109.116
 20
-72.814
  0
LWPOLYLINE
  5
196
330
17
100
AcDbEntity
  8
0
100
AcDbPolyline
 90
8
 70
1
 10
112.278
 20
-72.601
 10
113.769
 20
-73.462
 10
113.769
 20
-75.212
 10
112.254
 20
-76.087
 10
110.738
 20
-75.212
 10
110.738
 20
-73.462
 10
112.228
 20
-72.602
 10
112.278
 20
-72.601
  0
LWPOLYLINE
  5
197
330
17
100
AcDbEntity
  8
0
100
AcDbPolyline
 90
8
 70
1
 10
115.565
 20
-72.714
 10
116.178
 20
-72.814
 10
117.3
 20
-73.462
 10
117.3
 20
-75.212
 10
115.785
 20
-76.087
 10
114.269
 20
-75.212
 10
114.269
 20
-73.462
 10
115.565
 20
-72.714
  0
LWPOLYLINE
  5
198
330
17
100
AcDbEntity
  8
0
100
AcDbPolyline
 90
9
 70
1
 10
118.974
 20
-73.456
 10
120.586
 20
-74.085
 10
120.832
 20
-74.217
 10
120.832
 20
-75.212
 10
119.316
 20
-76.087
 10
117.8
 20
-75.212
 10
117.8
 20
-73.462
 10
118.182
 20
-73.242
 10
118.974
 20
-73.456
  0
LWPOLYLINE
  5
199
330
17
100
AcDbEntity
  8
0
100
AcDbPolyline
 90
6
 70
1
 10
122.126
 20
-74.911
 10
123.352
 20
-75.795
 10
122.847
 20
-76.087
 10
121.332
 20
-75.212
 10
121.332
 20
-74.485
 10
122.126
 20
-74.911
  0
LWPOLYLINE
  5
19A
330
17
100
AcDbEntity
  8
0
100
AcDbPolyline
 90
5
 70
1
 10
126.107
 20
-75.821
 10
126.57
 20
-75.976
 10
126.378
 20
-76.087
 10
125.779
 20
-75.741
 10
126.107
 20
-75.821
  0
LWPOLYLINE
  5
19B
330
17
100
AcDbEntity
  8
0
100
AcDbPolyline
 90
6
 70
1
 10
134.956
 20
-74.658
 10
134.956
 20
-75.212
 10
133.44
 20
-76.087
 10
131.925
 20
-75.212
 10
131.925
 20
-73.811
 10
134.956
 20
-74.658
  0
LWPOLYLINE
  5
19C
330
17
100
AcDbEntity
  8
0
100
AcDbPolyline
 90
12
 70
1
 10
136.987
 20
-76.078
 10
136.971
 20
-76.087
 10
135.456
 20
-75.212
 10
135.456
 20
-74.797
 10
136.333
 20
-75.043
 10
136.501
 20
-75.129
 10
136.648
 20
-75.238
 10
136.768
 20
-75.366
 10
136.902
 20
-75.594
 10
136.958
 20
-75.76
 10
136.981
 20
-75.88
 10
136.987
 20
-76.078
  0
INSERT
  5
19D
330
17
100
AcDbEntity
  8
0
100
AcDbBlockReference
  2
HEX
 10
11.618
 20
-71.279
 30
0.0
  0
INSERT
  5
19F
330
17
100
AcDbEntity
  8
0
100
AcDbBlockReference
  2
HEX
 10
15.149
 20
-71.279
 30
0.0
  0
INSERT
  5
1A1
330
17
100
AcDbEntity
  8
0
100
AcDbBlockReference
  2
HEX
 10
18.68
 20
-71.279
 30
0.0
  0
INSERT
  5
1A3
330
17
100
AcDbEntity
  8
0
100
AcDbBlockReference
  2
HEX
 10
22.211
 20
-71.279
 30
0.0
  0
INSERT
  5
1A5
330
17
100
AcDbEntity
  8
0
100
AcDbBlockReference
  2
HEX
 10
25.742
 20
-71.279
 30
0.0
  0
INSERT
  5
1A7
330
17
100
AcDbEntity
  8
0
100
AcDbBlockReference
  2
HEX
 10
29.273
 20
-71.279
 30
0.0
  0
LWPOLYLINE
  5
1A9
330
17
100
AcDbEntity
  8
0
100
AcDbPolyline
 90
7
 70
1
 10
32.618
 20
-69.636
 10
32.804
 20
-69.529
 10
34.32
 20
-70.404
 10
34.32
 20
-72.154
 10
32.804
 20
-73.029
 10
32.621
 20
-72.923
 10
32.618
 20
-69.636
  0
LWPOLYLINE
  5
1AA
330
17
100
AcDbEntity
  8
0
100
AcDbPolyline
 90
5
 70
1
 10
32.264
 20
-72.717
 10
31.289
 20
-72.154
 10
31.289
 20
-70.404
 10
32.264
 20
-69.841
 10
32.264
 20
-72.717
  0
INSERT
  5
1AB
330
17
100
AcDbEntity
  8
0
100
AcDbBlockReference
  2
HEX
 10
36.335
 20
-71.279
 30
0.0
  0
INSERT
  5
1AD
330
17
100
AcDbEntity
  8
0
100
AcDbBlockReference
  2
HEX
 10
39.867
 20
-71.279
 30
0.0
  0
INSERT
  5
1AF
330
17
100
AcDbEntity
  8
0
100
AcDbBlockReference
  2
HEX
 10
43.398
 20
-71.279
 30
0.0
  0
INSERT
  5
1B1
330
17
100
AcDbEntity
  8
0
100
AcDbBlockReference
  2
HEX
 10
46.929
 20
-71.279
 30
0.0
  0
INSERT
  5
1B3
330
17
100
AcDbEntity
  8
0
100
AcDbBlockReference
  2
HEX
 10
50.46
 20
-71.279
 30
0.0
  0
INSERT
  5
1B5
330
17
100
AcDbEntity
  8
0
100
AcDbBlockReference
  2
HEX
 10
53.991
 20
-71.279
 30
0.0
  0
INSERT
  5
1B7
330
17
100
AcDbEntity
  8
0
100
AcDbBlockReference
  2
HEX
 10
57.522
 20
-71.279
 30
0.0
  0
INSERT
  5
1B9
330
17
100
AcDbEntity
  8
0
100
AcDbBlockReference
  2
HEX
 10
61.053
 20
-71.279
 30
0.0
  0
INSERT
  5
1BB
330
17
100
AcDbEntity
  8
0
100
AcDbBlockReference
  2
HEX
 10
64.584
 20
-71.279
 30
0.0
  0
LWPOLYLINE
  5
1BD
330
17
100
AcDbEntity
  8
0
100
AcDbPolyline
 90
7
 70
1
 10
68.12
 20
-69.532
 10
69.631
 20
-70.404
 10
69.631
 20
-72.154
 10
68.115
 20
-73.029
 10
66.6
 20
-72.154
 10
66.6
 20
-70.404
 10
68.12
 20
-69.532
  0
LWPOLYLINE
  5
1BE
330
17
100
AcDbEntity
  8
0
100
AcDbPolyline
 90
8
 70
1
 10
71.682
 20
-69.55
 10
73.162
 20
-70.404
 10
73.162
 20
-72.154
 10
71.646
 20
-73.029
 10
70.131
 20
-72.154
 10
70.131
 20
-70.404
 10
71.611
 20
-69.549
 10
71.682
 20
-69.55
  0
LWPOLYLINE
  5
1BF
330
17
100
AcDbEntity
  8
0
100
AcDbPolyline
 90
8
 70
1
 10
75.245
 20
-69.568
 10
76.693
 20
-70.404
 10
76.693
 20
-72.154
 10
75.177
 20
-73.029
 10
73.662
 20
-72.154
 10
73.662
 20
-70.404
 10
75.111
 20
-69.567
 10
75.245
 20
-69.568
  0
LWPOLYLINE
  5
1C0
330
17
100
AcDbEntity
  8
0
100
AcDbPolyline
 90
14
 70
1
 10
77.956
 20
-70.234
 10
77.764
 20
-70.435
 10
77.59
 20
-70.65
 10
77.432
 20
-70.877
 10
77.292
 20
-71.115
 10
77.193
 20
-71.332
 10
77.193
 20
-70.404
 10
78.612
 20
-69.585
 10
78.807
 20
-69.586
 10
78.848
 20
-69.609
 10
78.633
 20
-69.722
 10
78.39
 20
-69.876
 10
78.164
 20
-70.047
 10
77.956
 20
-70.234
  0
LWPOLYLINE
  5
1C1
330
17
100
AcDbEntity
  8
0
100
AcDbPolyline
 90
5
 70
1
 10
110.529
 20
-72.633
 10
111.195
 20
-72.621
 10
110.488
 20
-73.029
 10
109.934
 20
-72.709
 10
110.529
 20
-72.633
  0
LWPOLYLINE
  5
1C2
330
17
100
AcDbEntity
  8
0
100
AcDbPolyline
 90
5
 70
1
 10
114.694
 20
-72.639
 10
114.019
 20
-73.029
 10
113.248
 20
-72.584
 10
113.904
 20
-72.572
 10
114.694
 20
-72.639
  0
LWPOLYLINE
  5
1C3
330
17
100
AcDbEntity
  8
0
100
AcDbPolyline
 90
10
 70
1
 10
9.821
 20
-67.832
 10
9.849
 20
-67.726
 10
9.905
 20
-67.635
 10
10.013
 20
-67.543
 10
10.114
 20
-67.503
 10
11.368
 20
-67.485
 10
11.368
 20
-69.096
 10
9.852
 20
-69.971
 10
9.821
 20
-69.953
 10
9.821
 20
-67.832
  0
LWPOLYLINE
  5
1C4
330
17
100
AcDbEntity
  8
0
100
AcDbPolyline
 90
6
 70
1
 10
14.899
 20
-67.455
 10
14.899
 20
-69.096
 10
13.383
 20
-69.971
 10
11.868
 20
-69.096
 10
11.868
 20
-67.481
 10
14.899
 20
-67.455
  0
LWPOLYLINE
  5
1C5
330
17
100
AcDbEntity
  8
0
100
AcDbPolyline
 90
7
 70
1
 10
18.096
 20
-67.428
 10
18.43
 20
-67.458
 10
18.43
 20
-69.096
 10
16.914
 20
-69.971
 10
15.399
 20
-69.096
 10
15.399
 20
-67.451
 10
18.096
 20
-67.428
  0
LWPOLYLINE
  5
1C6
330
17
100
AcDbEntity
  8
0
100
AcDbPolyline
 90
6
 70
1
 10
18.93
 20
-67.504
 10
21.961
 20
-67.78
 10
21.961
 20
-69.096
 10
20.446
 20
-69.971
 10
18.93
 20
-69.096
 10
18.93
 20
-67.504
  0
LWPOLYLINE
  5
1C7
330
17
100
AcDbEntity
  8
0
100
AcDbPolyline
 90
11
 70
1
 10
23.195
 20
-68.026
 10
24.087
 20
-68.298
 10
24.415
 20
-68.436
 10
24.675
 20
-68.572
 10
25.083
 20
-68.847
 10
25.492
 20
-69.054
 10
25.492
 20
-69.096
 10
23.977
 20
-69.971
 10
22.461
 20
-69.096
 10
22.461
 20
-67.88
 10
23.195
 20
-68.026
  0
LWPOLYLINE
  5
1C8
330
17
100
AcDbEntity
  8
0
100
AcDbPolyline
 90
5
 70
1
 10
26.52
 20
-69.293
 10
28.675
 20
-69.297
 10
27.508
 20
-69.971
 10
26.292
 20
-69.269
 10
26.52
 20
-69.293
  0
LWPOLYLINE
  5
1C9
330
17
100
AcDbEntity
  8
0
100
AcDbPolyline
 90
6
 70
1
 10
31.956
 20
-69.323
 10
32.068
 20
-69.377
 10
31.039
 20
-69.971
 10
29.875
 20
-69.299
 10
31.825
 20
-69.302
 10
31.956
 20
-69.323
  0
LWPOLYLINE
  5
1CA
330
17
100
AcDbEntity
  8
0
100
AcDbPolyline
 90
4
 70
1
 10
35.614
 20
-69.368
 10
34.57
 20
-69.971
 10
33.508
 20
-69.358
 10
35.614
 20
-69.368
  0
LWPOLYLINE
  5
1CB
330
17
100
AcDbEntity
  8
0
100
AcDbPolyline
 90
4
 70
1
 10
39.114
 20
-69.386
 10
38.101
 20
-69.971
 10
37.07
 20
-69.376
 10
39.114
 20
-69.386
  0
LWPOLYLINE
  5
1CC
330
17
100
AcDbEntity
  8
0
100
AcDbPolyline
 90
4
 70
1
 10
42.615
 20
-69.403
 10
41.632
 20
-69.971
 10
40.632
 20
-69.394
 10
42.615
 20
-69.403
  0
LWPOLYLINE
  5
1CD
330
17
100
AcDbEntity
  8
0
100
AcDbPolyline
 90
4
 70
1
 10
46.115
 20
-69.421
 10
45.163
 20
-69.971
 10
44.194
 20
-69.411
 10
46.115
 20
-69.421
  0
LWPOLYLINE
  5
1CE
330
17
100
AcDbEntity
  8
0
100
AcDbPolyline
 90
4
 70
1
 10
49.616
 20
-69.439
 10
48.694
 20
-69.971
 10
47.756
 20
-69.429
 10
49.616
 20
-69.439
  0
LWPOLYLINE
  5
1CF
330
17
100
AcDbEntity
  8
0
100
AcDbPolyline
 90
4
 70
1
 10
53.117
 20
-69.456
 10
52.225
 20
-69.971
 10
51.318
 20
-69.447
 10
53.117
 20
-69.456
  0
LWPOLYLINE
  5
1D0
330
17
100
AcDbEntity
  8
0
100
AcDbPolyline
 90
4
 70
1
 10
56.617
 20
-69.474
 10
55.756
 20
-69.971
 10
54.88
 20
-69.465
 10
56.617
 20
-69.474
  0
LWPOLYLINE
  5
1D1
330
17
100
AcDbEntity
  8
0
100
AcDbPolyline
 90
4
 70
1
 10
60.118
 20
-69.492
 10
59.287
 20
-69.971
 10
58.443
 20
-69.483
 10
60.118
 20
-69.492
  0
LWPOLYLINE
  5
1D2
330
17
100
AcDbEntity
  8
0
100
AcDbPolyline
 90
4
 70
1
 10
63.618
 20
-69.509
 10
62.819
 20
-69.971
 10
62.005
 20
-69.501
 10
63.618
 20
-69.509
  0
LWPOLYLINE
  5
1D3
330
17
100
AcDbEntity
  8
0
100
AcDbPolyline
 90
4
 70
1
 10
67.119
 20
-69.527
 10
66.35
 20
-69.971
 10
65.567
 20
-69.519
 10
67.119
 20
-69.527
  0
LWPOLYLINE
  5
1D4
330
17
100
AcDbEntity
  8
0
100
AcDbPolyline
 90
4
 70
1
 10
70.619
 20
-69.544
 10
69.881
 20
-69.971
 10
69.129
 20
-69.537
 10
70.619
 20
-69.544
  0
LWPOLYLINE
  5
1D5
330
17
100
AcDbEntity
  8
0
100
AcDbPolyline
 90
4
 70
1
 10
74.12
 20
-69.562
 10
73.412
 20
-69.971
 10
72.691
 20
-69.555
 10
74.12
 20
-69.562
  0
LWPOLYLINE
  5
1D6
330
17
100
AcDbEntity
  8
0
100
AcDbPolyline
 90
4
 70
1
 10
77.621
 20
-69.58
 10
76.943
 20
-69.971
 10
76.253
 20
-69.573
 10
77.621
 20
-69.58
  0
ENDSEC
  0
SECTION
  2
OBJECTS
  0
DICTIONARY
  5
A
330
0
100
AcDbDictionary
281
1
  3
ACAD_COLOR
350
B
  3
ACAD_GROUP
350
C
  3
ACAD_LAYOUT
350
D
  3
ACAD_MATERIAL
350
E
  3
ACAD_MLEADERSTYLE
350
F
  3
ACAD_MLINESTYLE
350
10
  3
ACAD_PLOTSETTINGS
350
11
  3
ACAD_PLOTSTYLENAME
350
12
  3
ACAD_SCALELIST
350
14
  3
ACAD_TABLESTYLE
350
15
  3
ACAD_VISUALSTYLE
350
16
  3
EZDXF_META
350
2D
  0
DICTIONARY
  5
B
330
A
100
AcDbDictionary
281
1
  0
DICTIONARY
  5
C
330
A
100
AcDbDictionary
281
1
  0
DICTIONARY
  5
D
330
A
100
AcDbDictionary
281
1
  3
Model
350
1A
  3
Layout1
350
1E
  0
DICTIONARY
  5
E
330
A
100
AcDbDictionary
281
1
  3
ByBlock
350
1F
  3
ByLayer
350
20
  3
Global
350
21
  0
DICTIONARY
  5
F
330
A
100
AcDbDictionary
281
1
  3
Standard
350
2C
  0
DICTIONARY
  5
10
330
A
100
AcDbDictionary
281
1
  3
Standard
350
22
  0
DICTIONARY
  5
11
330
A
100
AcDbDictionary
281
1
  0
ACDBDICTIONARYWDFLT
  5
12
330
A
100
AcDbDictionary
281
1
  3
Normal
350
13
100
AcDbDictionaryWithDefault
340
13
  0
ACDBPLACEHOLDER
  5
13
330
12
  0
DICTIONARY
  5
14
330
A
100
AcDbDictionary
281
1
  0
DICTIONARY
  5
15
330
A
100
AcDbDictionary
281
1
  0
DICTIONARY
  5
16
330
A
100
AcDbDictionary
281
1
  0
LAYOUT
  5
1A
330
D
100
AcDbPlotSettings
  1

  4
A3
  6

 40
7.5
 41
20.0
 42
7.5
 43
20.0
 44
420.0
 45
297.0
 46
0.0
 47
0.0
 48
0.0
 49
0.0
140
0.0
141
0.0
142
1.0
143
1.0
 70
1024
 72
1
 73
0
 74
5
  7

 75
16
 76
0
 77
2
 78
300
147
1.0
148
0.0
149
0.0
100
AcDbLayout
  1
Model
 70
1
 71
0
 10
0.0
 20
0.0
 11
420.0
 21
297.0
 12
0.0
 22
0.0
 32
0.0
 14
1e+20
 24
1e+20
 34
1e+20
 15
-1e+20
 25
-1e+20
 35
-1e+20
146
0.0
 13
0.0
 23
0.0
 33
0.0
 16
1.0
 26
0.0
 36
0.0
 17
0.0
 27
1.0
 37
0.0
 76
1
330
17
  0
LAYOUT
  5
1E
330
D
100
AcDbPlotSettings
  1

  4
A3
  6

 40
7.5
 41
20.0
 42
7.5
 43
20.0
 44
420.0
 45
297.0
 46
0.0
 47
0.0
 48
0.0
 49
0.0
140
0.0
141
0.0
142
1.0
143
1.0
 70
0
 72
1
 73
0
 74
5
  7

 75
16
 76
0
 77
2
 78
300
147
1.0
148
0.0
149
0.0
100
AcDbLayout
  1
Layout1
 70
1
 71
1
 10
0.0
 20
0.0
 11
420.0
 21
297.0
 12
0.0
 22
0.0
 32
0.0
 14
1e+20
 24
1e+20
 34
1e+20
 15
-1e+20
 25
-1e+20
 35
-1e+20
146
0.0
 13
0.0
 23
0.0
 33
0.0
 16
1.0
 26
0.0
 36
0.0
 17
0.0
 27
1.0
 37
0.0
 76
1
330
1B
  0
MATERIAL
  5
1F
102
{ACAD_REACTORS
330
E
102
}
330
E
100
AcDbMaterial
  1
ByBlock
  2

 70
0
 40
1.0
 71
1
 41
1.0
 91
-1023410177
 42
1.0
 72
1
  3

 73
1
 74
1
 75
1
 44
0.5
 73
0
 45
1.0
 46
1.0
 77
1
  4

 78
1
 79
1
170
1
 48
1.0
171
1
  6

172
1
173
1
174
1
140
1.0
141
1.0
175
1
  7

176
1
177
1
178
1
143
1.0
179
1
  8

270
1
271
1
272
1
145
1.0
146
1.0
273
1
  9

274
1
275
1
276
1
 42
1.0
 72
1
  3

 73
1
 74
1
 75
1
 94
63
  0
MATERIAL
  5
20
102
{ACAD_REACTORS
330
E
102
}
330
E
100
AcDbMaterial
  1
ByLayer
  2

 70
0
 40
1.0
 71
1
 41
1.0
 91
-1023410177
 42
1.0
 72
1
  3

 73
1
 74
1
 75
1
 44
0.5
 73
0
 45
1.0
 46
1.0
 77
1
  4

 78
1
 79
1
170
1
 48
1.0
171
1
  6

172
1
173
1
174
1
140
1.0
141
1.0
175
1
  7

176
1
177
1
178
1
143
1.0
179
1
  8

270
1
271
1
272
1
145
1.0
146
1.0
273
1
  9

274
1
275
1
276
1
 42
1.0
 72
1
  3

 73
1
 74
1
 75
1
 94
63
  0
MATERIAL
  5
21
102
{ACAD_REACTORS
330
E
102
}
330
E
100
AcDbMaterial
  1
Global
  2

 70
0
 40
1.0
 71
1
 41
1.0
 91
-1023410177
 42
1.0
 72
1
  3

 73
1
 74
1
 75
1
 44
0.5
 73
0
 45
1.0
 46
1.0
 77
1
  4

 78
1
 79
1
170
1
 48
1.0
171
1
  6

172
1
173
1
174
1
140
1.0
141
1.0
175
1
  7

176
1
177
1
178
1
143
1.0
179
1
  8

270
1
271
1
272
1
145
1.0
146
1.0
273
1
  9

274
1
275
1
276
1
 42
1.0
 72
1
  3

 73
1
 74
1
 75
1
 94
63
  0
MLINESTYLE
  5
22
102
{ACAD_REACTORS
330
10
102
}
330
10
100
AcDbMlineStyle
  2
Standard
 70
0
  3

 62
256
 51
90.0
 52
90.0
 71
2
 49
0.5
 62
256
  6
BYLAYER
 49
-0.5
 62
256
  6
BYLAYER
  0
MLEADERSTYLE
  5
2C
102
{ACAD_REACTORS
330
F
102
}
330
F
100
AcDbMLeaderStyle
179
2
170
2
171
1
172
0
 90
2
 40
0.0
 41
0.0
173
1
 91
-1056964608
 92
-2
290
1
 42
2.0
291
1
 43
8.0
  3
Standard
 44
4.0
300

342
29
174
1
175
1
176
0
178
1
 93
-1056964608
 45
4.0
292
0
297
0
 46
4.0
 94
-1056964608
 47
1.0
 49
1.0
140
1.0
294
1
141
0.0
177
0
142
1.0
295
0
296
0
143
3.75
271
0
272
9
273
9
  0
DICTIONARY
  5
2D
330
A
100
AcDbDictionary
280
1
281
1
  3
CREATED_BY_EZDXF
350
2E
  3
WRITTEN_BY_EZDXF
350
1D9
  0
DICTIONARYVAR
  5
2E
330
2D
100
DictionaryVariables
280
0
  1
1.4.3 @ 2026-04-09T21:37:19.663683+00:00
  0
DICTIONARYVAR
  5
1D9
330
2D
100
DictionaryVariables
280
0
  1
1.4.3 @ 2026-04-09T21:37:19.685163+00:00
  0
ENDSEC
  0
EOF
