  0
SECTION
  2
HEADER
  9
$ACADVER
  1
AC1024
  9
$ACADMAINTVER
 70
6
  9
$DWGCODEPAGE
  3
ANSI_1252
  9
$LASTSAVEDBY
  1
ezdxf
  9
$INSBASE
 10
0.0
 20
0.0
 30
0.0
  9
$EXTMIN
 10
1e+20
 20
1e+20
 30
1e+20
  9
$EXTMAX
 10
-1e+20
 20
-1e+20
 30
-1e+20
  9
$LIMMIN
 10
0.0
 20
0.0
  9
$LIMMAX
 10
420.0
 20
297.0
  9
$ORTHOMODE
 70
0
  9
$REGENMODE
 70
1
  9
$FILLMODE
 70
1
  9
$QTEXTMODE
 70
0
  9
$MIRRTEXT
 70
1
  9
$LTSCALE
 40
1.0
  9
$ATTMODE
 70
1
  9
$TEXTSIZE
 40
2.5
  9
$TRACEWID
 40
1.0
  9
$TEXTSTYLE
  7
Standard
  9
$CLAYER
  8
0
  9
$CELTYPE
  6
ByLayer
  9
$CECOLOR
 62
256
  9
$CELTSCALE
 40
1.0
  9
$DISPSILH
 70
0
  9
$DIMSCALE
 40
1.0
  9
$DIMASZ
 40
2.5
  9
$DIMEXO
 40
0.625
  9
$DIMDLI
 40
3.75
  9
$DIMRND
 40
0.0
  9
$DIMDLE
 40
0.0
  9
$DIMEXE
 40
1.25
  9
$DIMTP
 40
0.0
  9
$DIMTM
 40
0.0
  9
$DIMTXT
 40
2.5
  9
$DIMCEN
 40
2.5
  9
$DIMTSZ
 40
0.0
  9
$DIMTOL
 70
0
  9
$DIMLIM
 70
0
  9
$DIMTIH
 70
0
  9
$DIMTOH
 70
0
  9
$DIMSE1
 70
0
  9
$DIMSE2
 70
0
  9
$DIMTAD
 70
1
  9
$DIMZIN
 70
8
  9
$DIMBLK
  1

  9
$DIMASO
 70
1
  9
$DIMSHO
 70
1
  9
$DIMPOST
  1

  9
$DIMAPOST
  1

  9
$DIMALT
 70
0
  9
$DIMALTD
 70
3
  9
$DIMALTF
 40
0.03937007874
  9
$DIMLFAC
 40
1.0
  9
$DIMTOFL
 70
1
  9
$DIMTVP
 40
0.0
  9
$DIMTIX
 70
0
  9
$DIMSOXD
 70
0
  9
$DIMSAH
 70
0
  9
$DIMBLK1
  1

  9
$DIMBLK2
  1

  9
$DIMSTYLE
  2
ISO-25
  9
$DIMCLRD
 70
0
  9
$DIMCLRE
 70
0
  9
$DIMCLRT
 70
0
  9
$DIMTFAC
 40
1.0
  9
$DIMGAP
 40
0.625
  9
$DIMJUST
 70
0
  9
$DIMSD1
 70
0
  9
$DIMSD2
 70
0
  9
$DIMTOLJ
 70
0
  9
$DIMTZIN
 70
8
  9
$DIMALTZ
 70
0
  9
$DIMALTTZ
 70
0
  9
$DIMUPT
 70
0
  9
$DIMDEC
 70
2
  9
$DIMTDEC
 70
2
  9
$DIMALTU
 70
2
  9
$DIMALTTD
 70
3
  9
$DIMTXSTY
  7
Standard
  9
$DIMAUNIT
 70
0
  9
$DIMADEC
 70
0
  9
$DIMALTRND
 40
0.0
  9
$DIMAZIN
 70
0
  9
$DIMDSEP
 70
44
  9
$DIMATFIT
 70
3
  9
$DIMFRAC
 70
0
  9
$DIMLDRBLK
  1

  9
$DIMLUNIT
 70
2
  9
$DIMLWD
 70
-2
  9
$DIMLWE
 70
-2
  9
$DIMTMOVE
 70
0
  9
$DIMFXL
 40
1.0
  9
$DIMFXLON
 70
0
  9
$DIMJOGANG
 40
0.785398163397
  9
$DIMTFILL
 70
0
  9
$DIMTFILLCLR
 70
0
  9
$DIMARCSYM
 70
0
  9
$DIMLTYPE
  6

  9
$DIMLTEX1
  6

  9
$DIMLTEX2
  6

  9
$DIMTXTDIRECTION
 70
0
  9
$LUNITS
 70
2
  9
$LUPREC
 70
4
  9
$SKETCHINC
 40
1.0
  9
$FILLETRAD
 40
10.0
  9
$AUNITS
 70
0
  9
$AUPREC
 70
2
  9
$MENU
  1
.
  9
$ELEVATION
 40
0.0
  9
$PELEVATION
 40
0.0
  9
$THICKNESS
 40
0.0
  9
$LIMCHECK
 70
0
  9
$CHAMFERA
 40
0.0
  9
$CHAMFERB
 40
0.0
  9
$CHAMFERC
 40
0.0
  9
$CHAMFERD
 40
0.0
  9
$SKPOLY
 70
0
  9
$TDCREATE
 40
2461138.7363194446
  9
$TDUCREATE
 40
2458532.153996898
  9
$TDUPDATE
 40
2461138.7363194446
  9
$TDUUPDATE
 40
2458532.1544311
  9
$TDINDWG
 40
0.0
  9
$TDUSRTIMER
 40
0.0
  9
$USRTIMER
 70
1
  9
$ANGBASE
 50
0.0
  9
$ANGDIR
 70
0
  9
$PDMODE
 70
0
  9
$PDSIZE
 40
0.0
  9
$PLINEWID
 40
0.0
  9
$SPLFRAME
 70
0
  9
$SPLINETYPE
 70
6
  9
$SPLINESEGS
 70
8
  9
$HANDSEED
  5
3F
  9
$SURFTAB1
 70
6
  9
$SURFTAB2
 70
6
  9
$SURFTYPE
 70
6
  9
$SURFU
 70
6
  9
$SURFV
 70
6
  9
$UCSBASE
  2

  9
$UCSNAME
  2

  9
$UCSORG
 10
0.0
 20
0.0
 30
0.0
  9
$UCSXDIR
 10
1.0
 20
0.0
 30
0.0
  9
$UCSYDIR
 10
0.0
 20
1.0
 30
0.0
  9
$UCSORTHOREF
  2

  9
$UCSORTHOVIEW
 70
0
  9
$UCSORGTOP
 10
0.0
 20
0.0
 30
0.0
  9
$UCSORGBOTTOM
 10
0.0
 20
0.0
 30
0.0
  9
$UCSORGLEFT
 10
0.0
 20
0.0
 30
0.0
  9
$UCSORGRIGHT
 10
0.0
 20
0.0
 30
0.0
  9
$UCSORGFRONT
 10
0.0
 20
0.0
 30
0.0
  9
$UCSORGBACK
 10
0.0
 20
0.0
 30
0.0
  9
$PUCSBASE
  2

  9
$PUCSNAME
  2

  9
$PUCSORG
 10
0.0
 20
0.0
 30
0.0
  9
$PUCSXDIR
 10
1.0
 20
0.0
 30
0.0
  9
$PUCSYDIR
 10
0.0
 20
1.0
 30
0.0
  9
$PUCSORTHOREF
  2

  9
$PUCSORTHOVIEW
 70
0
  9
$PUCSORGTOP
 10
0.0
 20
0.0
 30
0.0
  9
$PUCSORGBOTTOM
 10
0.0
 20
0.0
 30
0.0
  9
$PUCSORGLEFT
 10
0.0
 20
0.0
 30
0.0
  9
$PUCSORGRIGHT
 10
0.0
 20
0.0
 30
0.0
  9
$PUCSORGFRONT
 10
0.0
 20
0.0
 30
0.0
  9
$PUCSORGBACK
 10
0.0
 20
0.0
 30
0.0
  9
$USERI1
 70
0
  9
$USERI2
 70
0
  9
$USERI3
 70
0
  9
$USERI4
 70
0
  9
$USERI5
 70
0
  9
$USERR1
 40
0.0
  9
$USERR2
 40
0.0
  9
$USERR3
 40
0.0
  9
$USERR4
 40
0.0
  9
$USERR5
 40
0.0
  9
$WORLDVIEW
 70
1
  9
$SHADEDGE
 70
3
  9
$SHADEDIF
 70
70
  9
$TILEMODE
 70
1
  9
$MAXACTVP
 70
64
  9
$PINSBASE
 10
0.0
 20
0.0
 30
0.0
  9
$PLIMCHECK
 70
0
  9
$PEXTMIN
 10
1e+20
 20
1e+20
 30
1e+20
  9
$PEXTMAX
 10
-1e+20
 20
-1e+20
 30
-1e+20
  9
$PLIMMIN
 10
0.0
 20
0.0
  9
$PLIMMAX
 10
420.0
 20
297.0
  9
$UNITMODE
 70
0
  9
$VISRETAIN
 70
1
  9
$PLINEGEN
 70
0
  9
$PSLTSCALE
 70
1
  9
$TREEDEPTH
 70
3020
  9
$CMLSTYLE
  2
Standard
  9
$CMLJUST
 70
0
  9
$CMLSCALE
 40
20.0
  9
$PROXYGRAPHICS
 70
1
  9
$MEASUREMENT
 70
1
  9
$CELWEIGHT
370
-1
  9
$ENDCAPS
280
0
  9
$JOINSTYLE
280
0
  9
$LWDISPLAY
290
0
  9
$INSUNITS
 70
6
  9
$HYPERLINKBASE
  1

  9
$STYLESHEET
  1

  9
$XEDIT
290
1
  9
$CEPSNTYPE
380
0
  9
$PSTYLEMODE
290
1
  9
$FINGERPRINTGUID
  2
{B8ABC3B0-8754-4756-AA2F-FF1DFDA34DDB}
  9
$VERSIONGUID
  2
{D492272B-D992-48E1-985C-1053DCB73DF4}
  9
$EXTNAMES
290
1
  9
$PSVPSCALE
 40
0.0
  9
$OLESTARTUP
290
0
  9
$SORTENTS
280
127
  9
$INDEXCTL
280
0
  9
$HIDETEXT
280
1
  9
$XCLIPFRAME
280
1
  9
$HALOGAP
280
0
  9
$OBSCOLOR
 70
257
  9
$OBSLTYPE
280
0
  9
$INTERSECTIONDISPLAY
280
0
  9
$INTERSECTIONCOLOR
 70
257
  9
$DIMASSOC
280
2
  9
$PROJECTNAME
  1

  9
$CAMERADISPLAY
290
0
  9
$LENSLENGTH
 40
50.0
  9
$CAMERAHEIGHT
 40
0.0
  9
$STEPSPERSEC
 40
24.0
  9
$STEPSIZE
 40
100.0
  9
$3DDWFPREC
 40
2.0
  9
$PSOLWIDTH
 40
0.005
  9
$PSOLHEIGHT
 40
0.08
  9
$LOFTANG1
 40
1.570796326795
  9
$LOFTANG2
 40
1.570796326795
  9
$LOFTMAG1
 40
0.0
  9
$LOFTMAG2
 40
0.0
  9
$LOFTPARAM
 70
7
  9
$LOFTNORMALS
280
1
  9
$LATITUDE
 40
37.795
  9
$LONGITUDE
 40
-122.394
  9
$NORTHDIRECTION
 40
0.0
  9
$TIMEZONE
 70
-8000
  9
$LIGHTGLYPHDISPLAY
280
1
  9
$TILEMODELIGHTSYNCH
280
1
  9
$CMATERIAL
347
20
  9
$SOLIDHIST
280
0
  9
$SHOWHIST
280
1
  9
$DWFFRAME
280
2
  9
$DGNFRAME
280
2
  9
$REALWORLDSCALE
290
1
  9
$INTERFERECOLOR
 62
256
  9
$CSHADOW
280
0
  9
$SHADOWPLANELOCATION
 40
0.0
  0
ENDSEC
  0
SECTION
  2
CLASSES
  0
CLASS
  1
ACDBDICTIONARYWDFLT
  2
AcDbDictionaryWithDefault
  3
ObjectDBX Classes
 90
0
 91
0
280
0
281
0
  0
CLASS
  1
SUN
  2
AcDbSun
  3
SCENEOE
 90
1153
 91
0
280
0
281
0
  0
CLASS
  1
VISUALSTYLE
  2
AcDbVisualStyle
  3
ObjectDBX Classes
 90
4095
 91
0
280
0
281
0
  0
CLASS
  1
MATERIAL
  2
AcDbMaterial
  3
ObjectDBX Classes
 90
1153
 91
0
280
0
281
0
  0
CLASS
  1
SCALE
  2
AcDbScale
  3
ObjectDBX Classes
 90
1153
 91
0
280
0
281
0
  0
CLASS
  1
TABLESTYLE
  2
AcDbTableStyle
  3
ObjectDBX Classes
 90
4095
 91
0
280
0
281
0
  0
CLASS
  1
MLEADERSTYLE
  2
AcDbMLeaderStyle
  3
ACDB_MLEADERSTYLE_CLASS
 90
4095
 91
0
280
0
281
0
  0
CLASS
  1
DICTIONARYVAR
  2
AcDbDictionaryVar
  3
ObjectDBX Classes
 90
0
 91
0
280
0
281
0
  0
CLASS
  1
CELLSTYLEMAP
  2
AcDbCellStyleMap
  3
ObjectDBX Classes
 90
1152
 91
0
280
0
281
0
  0
CLASS
  1
MENTALRAYRENDERSETTINGS
  2
AcDbMentalRayRenderSettings
  3
SCENEOE
 90
1024
 91
0
280
0
281
0
  0
CLASS
  1
ACDBDETAILVIEWSTYLE
  2
AcDbDetailViewStyle
  3
ObjectDBX Classes
 90
1025
 91
0
280
0
281
0
  0
CLASS
  1
ACDBSECTIONVIEWSTYLE
  2
AcDbSectionViewStyle
  3
ObjectDBX Classes
 90
1025
 91
0
280
0
281
0
  0
CLASS
  1
RASTERVARIABLES
  2
AcDbRasterVariables
  3
ISM
 90
0
 91
0
280
0
281
0
  0
CLASS
  1
LAYOUT
  2
AcDbLayout
  3
ObjectDBX Classes
 90
0
 91
0
280
0
281
0
  0
CLASS
  1
ACDBPLACEHOLDER
  2
AcDbPlaceHolder
  3
ObjectDBX Classes
 90
0
 91
0
280
0
281
0
  0
ENDSEC
  0
SECTION
  2
TABLES
  0
TABLE
  2
VPORT
  5
8
330
0
100
AcDbSymbolTable
 70
1
  0
VPORT
  5
23
330
8
100
AcDbSymbolTableRecord
100
AcDbViewportTableRecord
  2
*Active
 70
0
 10
0.0
 20
0.0
 11
1.0
 21
1.0
 12
0.0
 22
0.0
 13
0.0
 23
0.0
 14
0.5
 24
0.5
 15
0.5
 25
0.5
 16
0.0
 26
0.0
 36
1.0
 17
0.0
 27
0.0
 37
0.0
 40
1000.0
 41
1.34
 42
50.0
 43
0.0
 44
0.0
 50
0.0
 51
0.0
 71
0
 72
1000
 73
1
 74
3
 75
0
 76
0
 77
0
 78
0
281
0
 65
0
146
0.0
  0
ENDTAB
  0
TABLE
  2
LTYPE
  5
2
330
0
100
AcDbSymbolTable
 70
3
  0
LTYPE
  5
24
330
2
100
AcDbSymbolTableRecord
100
AcDbLinetypeTableRecord
  2
ByBlock
 70
0
  3

 72
65
 73
0
 40
0.0
  0
LTYPE
  5
25
330
2
100
AcDbSymbolTableRecord
100
AcDbLinetypeTableRecord
  2
ByLayer
 70
0
  3

 72
65
 73
0
 40
0.0
  0
LTYPE
  5
26
330
2
100
AcDbSymbolTableRecord
100
AcDbLinetypeTableRecord
  2
Continuous
 70
0
  3

 72
65
 73
0
 40
0.0
  0
ENDTAB
  0
TABLE
  2
LAYER
  5
1
330
0
100
AcDbSymbolTable
 70
2
  0
LAYER
  5
27
330
1
100
AcDbSymbolTableRecord
100
AcDbLayerTableRecord
  2
0
 70
0
 62
7
  6
Continuous
370
-3
390
13
347
21
  0
LAYER
  5
28
330
1
100
AcDbSymbolTableRecord
100
AcDbLayerTableRecord
  2
Defpoints
 70
0
 62
7
  6
Continuous
290
0
370
-3
390
13
347
21
  0
ENDTAB
  0
TABLE
  2
STYLE
  5
5
330
0
100
AcDbSymbolTable
 70
1
  0
STYLE
  5
29
330
5
100
AcDbSymbolTableRecord
100
AcDbTextStyleTableRecord
  2
Standard
 70
0
 40
0.0
 41
1.0
 50
0.0
 71
0
 42
2.5
  3
txt
  4

  0
ENDTAB
  0
TABLE
  2
VIEW
  5
7
330
0
100
AcDbSymbolTable
 70
0
  0
ENDTAB
  0
TABLE
  2
UCS
  5
6
330
0
100
AcDbSymbolTable
 70
0
  0
ENDTAB
  0
TABLE
  2
APPID
  5
3
330
0
100
AcDbSymbolTable
 70
3
  0
APPID
  5
2A
330
3
100
AcDbSymbolTableRecord
100
AcDbRegAppTableRecord
  2
ACAD
 70
0
  0
APPID
  5
3C
330
3
100
AcDbSymbolTableRecord
100
AcDbRegAppTableRecord
  2
HATCHBACKGROUNDCOLOR
 70
0
  0
APPID
  5
3D
330
3
100
AcDbSymbolTableRecord
100
AcDbRegAppTableRecord
  2
EZDXF
 70
0
  0
ENDTAB
  0
TABLE
  2
DIMSTYLE
  5
4
330
0
100
AcDbSymbolTable
 70
1
100
AcDbDimStyleTable
  0
DIMSTYLE
105
2B
330
4
100
AcDbSymbolTableRecord
100
AcDbDimStyleTableRecord
  2
Standard
 70
0
 40
1.0
 41
2.5
 42
0.625
 43
3.75
 44
1.25
 45
0.0
 46
0.0
 47
0.0
 48
0.0
 49
2.5
140
2.5
141
2.5
142
0.0
143
0.03937007874
144
1.0
145
0.0
146
1.0
147
0.625
148
0.0
 69
0
 70
0
 71
0
 72
0
 73
0
 74
0
 75
0
 76
0
 77
1
 78
8
 79
3
170
0
171
3
172
1
173
0
174
0
175
0
176
0
177
0
178
0
179
2
271
2
272
2
273
2
274
3
275
0
276
0
277
2
278
44
279
0
280
0
281
0
282
0
283
0
284
8
285
0
286
0
288
0
289
3
290
0
371
-2
372
-2
  0
ENDTAB
  0
TABLE
  2
BLOCK_RECORD
  5
9
330
0
100
AcDbSymbolTable
 70
2
  0
BLOCK_RECORD
  5
17
330
9
100
AcDbSymbolTableRecord
100
AcDbBlockTableRecord
  2
*Model_Space
340
1A
 70
0
280
1
281
0
  0
BLOCK_RECORD
  5
1B
330
9
100
AcDbSymbolTableRecord
100
AcDbBlockTableRecord
  2
*Paper_Space
340
1E
 70
0
280
1
281
0
  0
ENDTAB
  0
ENDSEC
  0
SECTION
  2
BLOCKS
  0
BLOCK
  5
18
330
17
100
AcDbEntity
  8
0
100
AcDbBlockBegin
  2
*Model_Space
 70
0
 10
0.0
 20
0.0
 30
0.0
  3
*Model_Space
  1

  0
ENDBLK
  5
19
330
17
100
AcDbEntity
  8
0
100
AcDbBlockEnd
  0
BLOCK
  5
1C
330
1B
100
AcDbEntity
  8
0
100
AcDbBlockBegin
  2
*Paper_Space
 70
0
 10
0.0
 20
0.0
 30
0.0
  3
*Paper_Space
  1

  0
ENDBLK
  5
1D
330
1B
100
AcDbEntity
  8
0
100
AcDbBlockEnd
  0
ENDSEC
  0
SECTION
  2
ENTITIES
  0
LWPOLYLINE
  5
2F
330
17
100
AcDbEntity
  8
0
100
AcDbPolyline
 90
257
 70
0
 10
121.571004
 20
-139.63904
 10
121.545858
 20
-139.638532
 10
121.520712
 20
-139.637008
 10
121.49582
 20
-139.63446800000003
 10
121.471182
 20
-139.631166
 10
121.446798
 20
-139.626848
 10
121.422668
 20
-139.62151400000002
 10
121.39904599999998
 20
-139.61516400000002
 10
121.375678
 20
-139.60805200000001
 10
121.352818
 20
-139.599924
 10
121.330212
 20
-139.591034
 10
121.308114
 20
-139.581128
 10
121.28627
 20
-139.57046
 10
121.264934
 20
-139.55903
 10
121.244106
 20
-139.54658400000002
 10
121.223786
 20
-139.533376
 10
121.20397400000002
 20
-139.51940600000003
 10
121.18467000000001
 20
-139.50467400000002
 10
121.16612800000001
 20
-139.48918000000003
 10
121.148094
 20
-139.47292400000003
 10
121.13082200000001
 20
-139.45616
 10
121.11405800000001
 20
-139.43863400000004
 10
121.09805600000001
 20
-139.42034600000002
 10
121.08281600000002
 20
-139.40155000000004
 10
121.06833800000001
 20
-139.38199200000005
 10
121.05462200000002
 20
-139.36192600000007
 10
121.04166800000003
 20
-139.34109800000004
 10
121.02947600000002
 20
-139.31976200000008
 10
121.01804600000001
 20
-139.29791800000007
 10
121.00737800000003
 20
-139.27556600000008
 10
120.99772600000003
 20
-139.25270600000007
 10
120.98883600000002
 20
-139.22933800000007
 10
120.98096200000002
 20
-139.20546200000007
 10
120.38304600000002
 20
-137.24864600000006
 10
119.78513000000002
 20
-135.2918300000001
 10
119.18721400000003
 20
-133.3350140000001
 10
118.58929800000003
 20
-131.3781980000001
 10
117.99138200000003
 20
-129.4213820000001
 10
117.39346600000003
 20
-127.4645660000001
 10
116.79555000000005
 20
-125.5077500000001
 10
116.19763400000005
 20
-123.5509340000001
 10
115.59971800000005
 20
-121.5941180000001
 10
115.00180200000005
 20
-119.63730200000009
 10
114.40388600000006
 20
-117.6804860000001
 10
113.80597000000006
 20
-115.7236700000001
 10
113.20805400000006
 20
-113.7668540000001
 10
112.61013800000006
 20
-111.81003800000009
 10
112.01222200000008
 20
-109.85322200000009
 10
111.41430600000008
 20
-107.89640600000008
 10
110.81639000000008
 20
-105.93959000000008
 10
110.21847400000009
 20
-103.98277400000008
 10
109.62055800000009
 20
-102.02595800000007
 10
109.02264200000009
 20
-100.06914200000007
 10
108.42472600000009
 20
-98.11232600000008
 10
107.8268100000001
 20
-96.15551000000008
 10
107.2288940000001
 20
-94.19869400000007
 10
106.63097800000011
 20
-92.24187800000007
 10
106.03306200000011
 20
-90.28506200000007
 10
105.43514600000012
 20
-88.32824600000006
 10
104.83723000000012
 20
-86.37143000000006
 10
104.23931400000012
 20
-84.41461400000006
 10
103.64139800000012
 20
-82.45779800000005
 10
103.04348200000013
 20
-80.50098200000005
 10
102.44556600000013
 20
-78.54416600000006
 10
101.84765000000014
 20
-76.58735000000006
 10
101.83749000000013
 20
-76.55052000000006
 10
101.82936200000013
 20
-76.51419800000006
 10
101.82352000000013
 20
-76.47838400000006
 10
101.81971000000013
 20
-76.44282400000006
 10
101.81767800000014
 20
-76.40777200000007
 10
101.81767800000014
 20
-76.37322800000007
 10
101.81945600000014
 20
-76.33893800000007
 10
101.82301200000015
 20
-76.30490200000006
 10
101.82809200000014
 20
-76.27137400000007
 10
101.83469600000014
 20
-76.23810000000007
 10
101.84282400000014
 20
-76.20508000000007
 10
101.85247600000014
 20
-76.17231400000006
 10
101.86339800000015
 20
-76.13980200000007
 10
101.87559000000014
 20
-76.10754400000006
 10
101.88905200000013
 20
-76.07528600000006
 10
101.90353000000015
 20
-76.04328200000006
 10
101.91902400000014
 20
-76.01153200000007
 10
101.93553400000013
 20
-75.97978200000007
 10
101.95306000000014
 20
-75.94828600000007
 10
101.97134800000015
 20
-75.91679000000006
 10
101.99039800000014
 20
-75.88529400000004
 10
102.00995600000014
 20
-75.85405200000005
 10
102.03027600000014
 20
-75.82281000000006
 10
102.05110400000014
 20
-75.79156800000005
 10
102.07218600000014
 20
-75.76032600000006
 10
102.09377600000013
 20
-75.72908400000006
 10
102.11562000000013
 20
-75.69784200000007
 10
102.13771800000013
 20
-75.66634600000006
 10
102.15981600000013
 20
-75.63485000000006
 10
102.18191400000013
 20
-75.60335400000005
 10
102.20401200000013
 20
-75.57160400000005
 10
102.22611000000012
 20
-75.53985400000005
 10
102.43642200000012
 20
-75.27264600000004
 10
102.69753400000012
 20
-75.00848600000003
 10
103.00741400000013
 20
-74.74839000000004
 10
103.36352200000013
 20
-74.49362800000004
 10
103.76357200000012
 20
-74.24547000000004
 10
104.20527800000012
 20
-74.00493200000004
 10
104.68635400000012
 20
-73.77328400000005
 10
105.20451400000013
 20
-73.55179600000005
 10
105.75747200000013
 20
-73.34148400000005
 10
106.34268800000012
 20
-73.14361800000006
 10
106.95813000000012
 20
-72.95946800000004
 10
107.60151200000013
 20
-72.79005000000005
 10
108.27029400000012
 20
-72.63688800000006
 10
108.96219000000012
 20
-72.50074400000005
 10
109.67516800000013
 20
-72.38314200000005
 10
110.40668800000013
 20
-72.28484400000005
 10
111.15446400000013
 20
-72.20737400000004
 10
111.91621000000013
 20
-72.15174800000004
 10
112.68964000000014
 20
-72.11923600000006
 10
113.47246800000013
 20
-72.11110800000006
 10
114.26215400000014
 20
-72.12838000000005
 10
115.05666600000012
 20
-72.17232200000005
 10
115.85371800000013
 20
-72.24420400000005
 10
116.65077000000012
 20
-72.34504200000005
 10
117.44553600000012
 20
-72.47610600000006
 10
118.23598400000013
 20
-72.63866600000006
 10
119.01957400000012
 20
-72.83373800000005
 10
119.79402000000012
 20
-73.06259200000005
 10
120.55703600000012
 20
-73.32624400000006
 10
121.30633600000012
 20
-73.62621800000005
 10
122.03963400000012
 20
-73.96353000000005
 10
122.75464400000011
 20
-74.33919600000004
 10
122.77064600000011
 20
-74.34834000000004
 10
122.78664800000011
 20
-74.35799200000004
 10
122.80239600000012
 20
-74.36789800000004
 10
122.8178900000001
 20
-74.37805800000004
 10
122.83313000000011
 20
-74.38847200000005
 10
122.84811600000012
 20
-74.39914000000003
 10
122.86284800000011
 20
-74.41006200000004
 10
122.87758000000011
 20
-74.42123800000003
 10
122.89205800000012
 20
-74.43292200000003
 10
122.90628200000012
 20
-74.44486000000003
 10
122.92025200000012
 20
-74.45705200000003
 10
122.9339680000001
 20
-74.46949800000003
 10
122.94743000000011
 20
-74.48219800000004
 10
122.96063800000012
 20
-74.49515200000003
 10
122.97359200000011
 20
-74.50836000000004
 10
122.98603800000011
 20
-74.52182200000004
 10
122.9982300000001
 20
-74.53553800000003
 10
123.0101680000001
 20
-74.54950800000003
 10
123.02185200000011
 20
-74.56373200000003
 10
123.03328200000011
 20
-74.57821000000003
 10
123.0444580000001
 20
-74.59294200000004
 10
123.0551260000001
 20
-74.60792800000004
 10
123.0655400000001
 20
-74.62291400000004
 10
123.07570000000011
 20
-74.63815400000004
 10
123.0856060000001
 20
-74.65364800000003
 10
123.0950040000001
 20
-74.66939600000005
 10
123.1041480000001
 20
-74.68539800000003
 10
123.1130380000001
 20
-74.70165400000005
 10
123.12142000000011
 20
-74.71816400000004
 10
123.1295480000001
 20
-74.73467400000004
 10
123.1371680000001
 20
-74.75143800000004
 10
123.14453400000009
 20
-74.76845600000004
 10
123.9420940000001
 20
-76.66634400000004
 10
124.73965400000009
 20
-78.56423200000003
 10
125.53721400000009
 20
-80.46212000000003
 10
126.33477400000008
 20
-82.36000800000002
 10
127.13233400000007
 20
-84.25789600000002
 10
127.92989400000008
 20
-86.15578400000001
 10
128.72745400000008
 20
-88.053672
 10
129.52501400000006
 20
-89.95156
 10
130.32257400000006
 20
-91.849448
 10
131.12013400000006
 20
-93.74733599999999
 10
131.91769400000007
 20
-95.64522399999998
 10
132.71525400000004
 20
-97.54311199999998
 10
133.51281400000005
 20
-99.44099999999997
 10
134.31037400000005
 20
-101.33888799999997
 10
135.10793400000006
 20
-103.23677599999996
 10
135.90549400000003
 20
-105.13466399999996
 10
136.70305400000004
 20
-107.03255199999995
 10
137.50061400000004
 20
-108.93043999999995
 10
138.29817400000002
 20
-110.82832799999994
 10
139.09573400000002
 20
-112.72621599999994
 10
139.89329400000003
 20
-114.62410399999993
 10
140.69085400000003
 20
-116.52199199999993
 10
141.488414
 20
-118.41987999999992
 10
142.285974
 20
-120.31776799999992
 10
143.08353400000001
 20
-122.21565599999991
 10
143.88109400000002
 20
-124.1135439999999
 10
144.678654
 20
-126.0114319999999
 10
145.476214
 20
-127.9093199999999
 10
146.273774
 20
-129.8072079999999
 10
147.07133399999998
 20
-131.70509599999988
 10
147.86889399999998
 20
-133.60298399999988
 10
148.666454
 20
-135.50087199999987
 10
148.679916
 20
-135.53541599999986
 10
148.69134599999998
 20
-135.57021399999985
 10
148.70048999999995
 20
-135.60526599999986
 10
148.70785599999996
 20
-135.64031799999987
 10
148.71318999999994
 20
-135.67562399999989
 10
148.71649199999996
 20
-135.7106759999999
 10
148.71776199999996
 20
-135.7457279999999
 10
148.71725399999997
 20
-135.78052599999987
 10
148.71496799999997
 20
-135.81506999999988
 10
148.71064999999996
 20
-135.84935999999988
 10
148.70455399999994
 20
-135.88314199999988
 10
148.69667999999996
 20
-135.91666999999987
 10
148.68728199999995
 20
-135.94968999999986
 10
148.67610599999995
 20
-135.98194799999985
 10
148.66315199999994
 20
-136.01369799999986
 10
148.64867399999994
 20
-136.04468599999984
 10
148.63267199999996
 20
-136.07491199999984
 10
148.61514599999995
 20
-136.10412199999985
 10
148.59609599999993
 20
-136.13256999999984
 10
148.57552199999995
 20
-136.16000199999982
 10
148.55342399999995
 20
-136.18641799999983
 10
148.53005599999995
 20
-136.21156399999984
 10
148.50516399999995
 20
-136.23543999999987
 10
148.47900199999998
 20
-136.25804599999987
 10
148.45156999999998
 20
-136.27938199999986
 10
148.42286799999997
 20
-136.29919399999986
 10
148.39289599999995
 20
-136.31773599999985
 10
148.36165399999993
 20
-136.33475399999986
 10
148.32914199999993
 20
-136.34999399999984
 10
148.29561399999994
 20
-136.36370999999983
 10
148.26081599999995
 20
-136.37564799999984
 10
148.22500199999996
 20
-136.38555399999984
 10
147.93417199999996
 20
-136.45743599999983
 10
147.59762199999997
 20
-136.53896999999984
 10
147.21662199999997
 20
-136.62939399999985
 10
146.79193399999997
 20
-136.72769199999982
 10
146.32482799999994
 20
-136.83335599999984
 10
145.81606599999992
 20
-136.94562399999984
 10
145.26717199999996
 20
-137.06347999999986
 10
144.67890799999995
 20
-137.18641599999987
 10
144.05254399999993
 20
-137.31366999999986
 10
143.38884199999993
 20
-137.44422599999987
 10
142.68907199999992
 20
-137.57757599999985
 10
141.9545039999999
 20
-137.71295799999987
 10
141.18589999999992
 20
-137.84935599999986
 10
140.38452999999993
 20
-137.98626199999987
 10
139.55140999999995
 20
-138.12265999999988
 10
138.68755599999994
 20
-138.25804199999988
 10
137.79423799999992
 20
-138.39139199999988
 10
136.87221799999995
 20
-138.52220199999988
 10
135.9227659999999
 20
-138.64945599999987
 10
134.94689799999992
 20
-138.77239199999988
 10
133.94588399999992
 20
-138.89050199999988
 10
132.92073999999994
 20
-139.00276999999988
 10
131.87222799999992
 20
-139.1086879999999
 10
130.8016179999999
 20
-139.2072399999999
 10
129.7101799999999
 20
-139.2976639999999
 10
128.5986759999999
 20
-139.3794519999999
 10
127.4683759999999
 20
-139.4515879999999
 10
126.32029599999991
 20
-139.5133099999999
 10
125.15545199999991
 20
-139.5638559999999
 10
123.97511399999992
 20
-139.6027179999999
 10
122.78029799999992
 20
-139.6288799999999
 10
121.57201999999991
 20
-139.6415799999999
  0
LWPOLYLINE
  5
30
330
17
100
AcDbEntity
  8
0
100
AcDbPolyline
 90
129
 70
0
 10
134.9466439999999
 20
-129.9283659999999
 10
134.9433419999999
 20
-130.0556199999999
 10
134.9336899999999
 20
-130.18134999999987
 10
134.9179419999999
 20
-130.30504799999989
 10
134.89609799999988
 20
-130.42696799999987
 10
134.86841199999986
 20
-130.54660199999987
 10
134.8351379999999
 20
-130.6639499999999
 10
134.79627599999986
 20
-130.77901199999988
 10
134.7520799999999
 20
-130.89127999999988
 10
134.70254999999986
 20
-131.0007539999999
 10
134.64793999999986
 20
-131.10743399999987
 10
134.58850399999986
 20
-131.21106599999987
 10
134.52424199999984
 20
-131.31139599999986
 10
134.45515399999982
 20
-131.40842399999985
 10
134.38174799999985
 20
-131.50189599999987
 10
134.30402399999983
 20
-131.59155799999985
 10
134.22198199999983
 20
-131.67740999999984
 10
134.13612999999984
 20
-131.75945199999984
 10
134.04646799999983
 20
-131.83717599999986
 10
133.95299599999984
 20
-131.91058199999986
 10
133.85596799999985
 20
-131.97966999999986
 10
133.75563799999986
 20
-132.04393199999987
 10
133.65200599999986
 20
-132.10336799999988
 10
133.54532599999985
 20
-132.1579779999999
 10
133.43585199999984
 20
-132.2075079999999
 10
133.32358399999984
 20
-132.2517039999999
 10
133.20852199999985
 20
-132.2905659999999
 10
133.09117399999985
 20
-132.3238399999999
 10
132.97153999999986
 20
-132.3515259999999
 10
132.84961999999985
 20
-132.3733699999999
 10
132.72592199999985
 20
-132.3891179999999
 10
132.60019199999985
 20
-132.39876999999993
 10
132.47293799999986
 20
-132.40207199999992
 10
132.34568399999986
 20
-132.39876999999993
 10
132.21995399999986
 20
-132.3891179999999
 10
132.09625599999987
 20
-132.3733699999999
 10
131.97433599999988
 20
-132.3515259999999
 10
131.85470199999986
 20
-132.3238399999999
 10
131.73735399999987
 20
-132.2905659999999
 10
131.62229199999987
 20
-132.2517039999999
 10
131.51002399999987
 20
-132.2075079999999
 10
131.40054999999987
 20
-132.1579779999999
 10
131.29386999999988
 20
-132.10336799999988
 10
131.19023799999988
 20
-132.04393199999987
 10
131.08990799999987
 20
-131.97966999999986
 10
130.9928799999999
 20
-131.91058199999986
 10
130.89940799999988
 20
-131.83717599999986
 10
130.8097459999999
 20
-131.75945199999984
 10
130.7238939999999
 20
-131.67740999999984
 10
130.6421059999999
 20
-131.59155799999985
 10
130.56438199999988
 20
-131.50189599999987
 10
130.4909759999999
 20
-131.40842399999985
 10
130.4221419999999
 20
-131.31139599999986
 10
130.35787999999988
 20
-131.21106599999987
 10
130.29844399999988
 20
-131.10743399999987
 10
130.24383399999988
 20
-131.0007539999999
 10
130.19430399999987
 20
-130.89127999999988
 10
130.15010799999988
 20
-130.77901199999988
 10
130.11124599999985
 20
-130.6639499999999
 10
130.07797199999987
 20
-130.54660199999987
 10
130.05028599999986
 20
-130.42696799999987
 10
130.02844199999987
 20
-130.30504799999989
 10
130.01269399999987
 20
-130.18134999999987
 10
130.00304199999985
 20
-130.0556199999999
 10
129.99973999999986
 20
-129.9283659999999
 10
130.00304199999985
 20
-129.8011119999999
 10
130.01269399999987
 20
-129.6753819999999
 10
130.02844199999987
 20
-129.55168399999988
 10
130.05028599999986
 20
-129.4297639999999
 10
130.07797199999987
 20
-129.31012999999987
 10
130.11124599999985
 20
-129.19278199999988
 10
130.15010799999988
 20
-129.07771999999989
 10
130.19430399999987
 20
-128.96545199999989
 10
130.24383399999988
 20
-128.85597799999988
 10
130.29844399999988
 20
-128.7492979999999
 10
130.35787999999988
 20
-128.6456659999999
 10
130.4221419999999
 20
-128.54533599999988
 10
130.4909759999999
 20
-128.44830799999988
 10
130.56438199999988
 20
-128.3548359999999
 10
130.6421059999999
 20
-128.2651739999999
 10
130.7238939999999
 20
-128.17932199999987
 10
130.8097459999999
 20
-128.09753399999988
 10
130.89940799999988
 20
-128.0198099999999
 10
130.9928799999999
 20
-127.94640399999989
 10
131.08990799999987
 20
-127.8773159999999
 10
131.19023799999988
 20
-127.8130539999999
 10
131.29386999999988
 20
-127.7536179999999
 10
131.40054999999987
 20
-127.6990079999999
 10
131.51002399999987
 20
-127.6494779999999
 10
131.62229199999987
 20
-127.60528199999992
 10
131.73735399999987
 20
-127.56641999999991
 10
131.85470199999986
 20
-127.53314599999992
 10
131.97433599999988
 20
-127.50545999999991
 10
132.09625599999987
 20
-127.48361599999991
 10
132.21995399999986
 20
-127.46786799999991
 10
132.34568399999986
 20
-127.45821599999991
 10
132.47293799999986
 20
-127.45491399999992
 10
132.60019199999985
 20
-127.45821599999991
 10
132.72592199999985
 20
-127.46786799999991
 10
132.84961999999985
 20
-127.48361599999991
 10
132.97153999999986
 20
-127.50545999999991
 10
133.09117399999985
 20
-127.53314599999992
 10
133.20852199999985
 20
-127.56641999999991
 10
133.32358399999984
 20
-127.60528199999992
 10
133.43585199999984
 20
-127.6494779999999
 10
133.54532599999985
 20
-127.6990079999999
 10
133.65200599999986
 20
-127.7536179999999
 10
133.75563799999986
 20
-127.8130539999999
 10
133.85596799999985
 20
-127.8773159999999
 10
133.95299599999984
 20
-127.94640399999989
 10
134.04646799999983
 20
-128.0198099999999
 10
134.13612999999984
 20
-128.09753399999988
 10
134.22198199999983
 20
-128.17932199999987
 10
134.30402399999983
 20
-128.2651739999999
 10
134.38174799999985
 20
-128.3548359999999
 10
134.45515399999982
 20
-128.44830799999988
 10
134.52424199999984
 20
-128.54533599999988
 10
134.58850399999986
 20
-128.6456659999999
 10
134.64793999999986
 20
-128.7492979999999
 10
134.70254999999986
 20
-128.85597799999988
 10
134.7520799999999
 20
-128.96545199999989
 10
134.79627599999986
 20
-129.07771999999989
 10
134.8351379999999
 20
-129.19278199999988
 10
134.86841199999986
 20
-129.31012999999987
 10
134.89609799999988
 20
-129.4297639999999
 10
134.9179419999999
 20
-129.55168399999988
 10
134.9336899999999
 20
-129.6753819999999
 10
134.9433419999999
 20
-129.8011119999999
 10
134.9466439999999
 20
-129.9283659999999
  0
LWPOLYLINE
  5
31
330
17
100
AcDbEntity
  8
0
100
AcDbPolyline
 90
129
 70
0
 10
117.0345639999999
 20
-80.9378619999999
 10
117.03126199999991
 20
-81.06511599999989
 10
117.02160999999991
 20
-81.19084599999988
 10
117.00586199999991
 20
-81.3145439999999
 10
116.9840179999999
 20
-81.4364639999999
 10
116.9563319999999
 20
-81.55609799999989
 10
116.92305799999991
 20
-81.6734459999999
 10
116.8841959999999
 20
-81.7885079999999
 10
116.83999999999992
 20
-81.9007759999999
 10
116.79046999999991
 20
-82.01024999999989
 10
116.73585999999992
 20
-82.11692999999988
 10
116.67642399999993
 20
-82.22056199999989
 10
116.61216199999993
 20
-82.32089199999989
 10
116.54307399999993
 20
-82.4179199999999
 10
116.46966799999994
 20
-82.51139199999989
 10
116.39194399999994
 20
-82.60105399999989
 10
116.31015599999994
 20
-82.6869059999999
 10
116.22430399999993
 20
-82.7686939999999
 10
116.13464199999993
 20
-82.84641799999989
 10
116.04116999999994
 20
-82.91982399999989
 10
115.94414199999993
 20
-82.98891199999989
 10
115.84381199999994
 20
-83.05317399999988
 10
115.74017999999994
 20
-83.11260999999988
 10
115.63349999999993
 20
-83.16721999999987
 10
115.52402599999994
 20
-83.21674999999988
 10
115.41175799999994
 20
-83.26094599999986
 10
115.29669599999994
 20
-83.29980799999987
 10
115.17934799999995
 20
-83.33308199999986
 10
115.05971399999994
 20
-83.36076799999987
 10
114.93779399999994
 20
-83.38261199999987
 10
114.81409599999994
 20
-83.39835999999987
 10
114.68836599999993
 20
-83.40801199999987
 10
114.56111199999994
 20
-83.41131399999986
 10
114.43385799999994
 20
-83.40801199999987
 10
114.30812799999994
 20
-83.39835999999987
 10
114.18442999999994
 20
-83.38261199999987
 10
114.06250999999993
 20
-83.36076799999987
 10
113.94287599999993
 20
-83.33308199999986
 10
113.82552799999993
 20
-83.29980799999987
 10
113.71046599999994
 20
-83.26094599999986
 10
113.59819799999994
 20
-83.21674999999988
 10
113.48872399999993
 20
-83.16721999999987
 10
113.38204399999994
 20
-83.11260999999988
 10
113.27841199999993
 20
-83.05317399999988
 10
113.17808199999993
 20
-82.98891199999989
 10
113.08105399999994
 20
-82.91982399999989
 10
112.98758199999993
 20
-82.84641799999989
 10
112.89791999999993
 20
-82.7686939999999
 10
112.81206799999993
 20
-82.6869059999999
 10
112.73027999999992
 20
-82.60105399999989
 10
112.65255599999993
 20
-82.51139199999989
 10
112.57914999999994
 20
-82.4179199999999
 10
112.51006199999993
 20
-82.32089199999989
 10
112.44579999999993
 20
-82.22056199999989
 10
112.38636399999994
 20
-82.11692999999988
 10
112.33175399999995
 20
-82.01024999999989
 10
112.28222399999996
 20
-81.9007759999999
 10
112.23802799999996
 20
-81.7885079999999
 10
112.19916599999995
 20
-81.6734459999999
 10
112.16589199999996
 20
-81.55609799999989
 10
112.13820599999997
 20
-81.4364639999999
 10
112.11636199999997
 20
-81.3145439999999
 10
112.10061399999996
 20
-81.19084599999988
 10
112.09096199999996
 20
-81.06511599999989
 10
112.08765999999996
 20
-80.9378619999999
 10
112.09096199999996
 20
-80.8106079999999
 10
112.10061399999996
 20
-80.6848779999999
 10
112.11636199999997
 20
-80.5611799999999
 10
112.13820599999997
 20
-80.43925999999989
 10
112.16589199999996
 20
-80.31962599999989
 10
112.19916599999995
 20
-80.2022779999999
 10
112.23802799999996
 20
-80.0872159999999
 10
112.28222399999996
 20
-79.9749479999999
 10
112.33175399999995
 20
-79.86547399999989
 10
112.38636399999994
 20
-79.7587939999999
 10
112.44579999999993
 20
-79.65516199999989
 10
112.51006199999993
 20
-79.55483199999989
 10
112.57914999999994
 20
-79.4578039999999
 10
112.65255599999993
 20
-79.36433199999989
 10
112.73027999999992
 20
-79.27466999999989
 10
112.81206799999993
 20
-79.18881799999988
 10
112.89791999999993
 20
-79.10702999999988
 10
112.98758199999993
 20
-79.02930599999989
 10
113.08105399999994
 20
-78.95589999999989
 10
113.17808199999993
 20
-78.88681199999989
 10
113.27841199999993
 20
-78.8225499999999
 10
113.38204399999994
 20
-78.7631139999999
 10
113.48872399999993
 20
-78.7085039999999
 10
113.59819799999994
 20
-78.65897399999992
 10
113.71046599999994
 20
-78.61477799999992
 10
113.82552799999993
 20
-78.5759159999999
 10
113.94287599999993
 20
-78.54264199999992
 10
114.06250999999993
 20
-78.51495599999993
 10
114.18442999999994
 20
-78.49311199999993
 10
114.30812799999994
 20
-78.47736399999992
 10
114.43385799999994
 20
-78.46771199999992
 10
114.56111199999994
 20
-78.46440999999992
 10
114.68836599999993
 20
-78.46771199999992
 10
114.81409599999994
 20
-78.47736399999992
 10
114.93779399999994
 20
-78.49311199999993
 10
115.05971399999994
 20
-78.51495599999993
 10
115.17934799999995
 20
-78.54264199999992
 10
115.29669599999994
 20
-78.5759159999999
 10
115.41175799999994
 20
-78.61477799999992
 10
115.52402599999994
 20
-78.65897399999992
 10
115.63349999999993
 20
-78.7085039999999
 10
115.74017999999994
 20
-78.7631139999999
 10
115.84381199999994
 20
-78.8225499999999
 10
115.94414199999993
 20
-78.88681199999989
 10
116.04116999999994
 20
-78.95589999999989
 10
116.13464199999993
 20
-79.02930599999989
 10
116.22430399999993
 20
-79.10702999999988
 10
116.31015599999994
 20
-79.18881799999988
 10
116.39194399999994
 20
-79.27466999999989
 10
116.46966799999994
 20
-79.36433199999989
 10
116.54307399999993
 20
-79.4578039999999
 10
116.61216199999993
 20
-79.55483199999989
 10
116.67642399999993
 20
-79.65516199999989
 10
116.73585999999992
 20
-79.7587939999999
 10
116.79046999999991
 20
-79.86547399999989
 10
116.83999999999992
 20
-79.9749479999999
 10
116.8841959999999
 20
-80.0872159999999
 10
116.92305799999991
 20
-80.2022779999999
 10
116.9563319999999
 20
-80.31962599999989
 10
116.9840179999999
 20
-80.43925999999989
 10
117.00586199999991
 20
-80.5611799999999
 10
117.02160999999991
 20
-80.6848779999999
 10
117.03126199999991
 20
-80.8106079999999
 10
117.0345639999999
 20
-80.9378619999999
  0
LWPOLYLINE
  5
32
330
17
100
AcDbEntity
  8
0
100
AcDbPolyline
 90
737
 70
0
 10
91.8550359999999
 20
-55.316627999999895
 10
91.5471879999999
 20
-55.31205599999989
 10
91.23933999999991
 20
-55.307483999999896
 10
90.9314919999999
 20
-55.30291199999989
 10
90.62364399999991
 20
-55.2983399999999
 10
90.31579599999992
 20
-55.29376799999989
 10
90.00794799999991
 20
-55.2891959999999
 10
89.70009999999992
 20
-55.284623999999894
 10
89.39225199999993
 20
-55.28005199999989
 10
89.08440399999994
 20
-55.275479999999895
 10
88.77655599999993
 20
-55.27090799999989
 10
88.46870799999994
 20
-55.266335999999896
 10
88.16085999999994
 20
-55.26176399999989
 10
87.85301199999994
 20
-55.25719199999989
 10
87.54516399999994
 20
-55.252619999999894
 10
87.23731599999995
 20
-55.24804799999989
 10
86.92946799999994
 20
-55.243475999999895
 10
86.62161999999995
 20
-55.23890399999989
 10
86.31377199999996
 20
-55.234331999999895
 10
86.00592399999995
 20
-55.22975999999989
 10
85.69807599999996
 20
-55.22518799999989
 10
85.39022799999996
 20
-55.22061599999989
 10
85.08237999999996
 20
-55.21604399999989
 10
84.77453199999997
 20
-55.211471999999894
 10
84.46668399999997
 20
-55.20689999999989
 10
84.15883599999998
 20
-55.20232799999989
 10
83.85098799999997
 20
-55.19775599999989
 10
83.54313999999998
 20
-55.19318399999989
 10
83.23529199999999
 20
-55.18861199999989
 10
82.92744399999998
 20
-55.18403999999989
 10
82.61959599999999
 20
-55.17946799999989
 10
82.311748
 20
-55.17489599999989
 10
82.00389999999999
 20
-55.17032399999989
 10
81.954878
 20
-55.17083199999989
 10
81.906618
 20
-55.17387999999989
 10
81.858866
 20
-55.17921399999989
 10
81.811876
 20
-55.18708799999989
 10
81.765648
 20
-55.19724799999989
 10
81.72043599999999
 20
-55.20943999999989
 10
81.675986
 20
-55.223917999999884
 10
81.63255199999999
 20
-55.24042799999989
 10
81.590134
 20
-55.258969999999884
 10
81.54898600000001
 20
-55.27954399999989
 10
81.508854
 20
-55.302149999999884
 10
81.469992
 20
-55.32653399999988
 10
81.43239999999999
 20
-55.35269599999989
 10
81.39633199999999
 20
-55.38063599999989
 10
81.36153399999999
 20
-55.410353999999884
 10
81.32826
 20
-55.44159599999988
 10
81.29651
 20
-55.474361999999886
 10
81.266284
 20
-55.508651999999884
 10
81.23783599999999
 20
-55.54446599999988
 10
81.21116599999998
 20
-55.58154999999987
 10
81.18627399999998
 20
-55.61990399999988
 10
81.16315999999998
 20
-55.65952799999988
 10
81.14207799999997
 20
-55.70042199999988
 10
81.12277399999996
 20
-55.74258599999988
 10
81.10550199999997
 20
-55.785765999999875
 10
81.09051599999997
 20
-55.829961999999874
 10
81.07756199999997
 20
-55.87517399999987
 10
81.06689399999998
 20
-55.92114799999988
 10
81.05851199999996
 20
-55.96788399999988
 10
81.05241599999997
 20
-56.01538199999988
 10
81.04860599999998
 20
-56.06364199999988
 10
81.04733599999997
 20
-56.11266399999988
 10
81.04733599999997
 20
-56.24017199999989
 10
81.04733599999997
 20
-56.367679999999886
 10
81.04733599999997
 20
-56.49518799999989
 10
81.04733599999997
 20
-56.62269599999989
 10
81.04733599999997
 20
-56.7502039999999
 10
81.04733599999997
 20
-56.877711999999896
 10
81.04733599999997
 20
-57.0052199999999
 10
81.04733599999997
 20
-57.1327279999999
 10
81.04733599999997
 20
-57.26023599999991
 10
81.04733599999997
 20
-57.387743999999905
 10
81.04733599999997
 20
-57.51525199999991
 10
81.04733599999997
 20
-57.64275999999991
 10
81.04733599999997
 20
-57.770267999999916
 10
81.04733599999997
 20
-57.897775999999915
 10
81.04733599999997
 20
-58.02528399999992
 10
81.04733599999997
 20
-58.15279199999992
 10
81.04733599999997
 20
-58.280299999999926
 10
81.04733599999997
 20
-58.407807999999925
 10
81.04733599999997
 20
-58.53531599999993
 10
81.04733599999997
 20
-58.66282399999993
 10
81.04733599999997
 20
-58.790331999999935
 10
81.04733599999997
 20
-58.91783999999994
 10
81.04733599999997
 20
-59.04534799999994
 10
81.04733599999997
 20
-59.172855999999946
 10
81.04733599999997
 20
-59.300363999999945
 10
81.04733599999997
 20
-59.42787199999995
 10
81.04733599999997
 20
-59.55537999999995
 10
81.04733599999997
 20
-59.682887999999956
 10
81.04733599999997
 20
-59.810395999999955
 10
81.04733599999997
 20
-59.93790399999996
 10
81.04733599999997
 20
-60.06541199999996
 10
81.04733599999997
 20
-60.192919999999965
 10
81.04606599999997
 20
-60.24092599999996
 10
81.04250999999998
 20
-60.288423999999964
 10
81.03666799999996
 20
-60.33515999999996
 10
81.02828599999997
 20
-60.38113399999997
 10
81.01787199999997
 20
-60.42634599999997
 10
81.00517199999996
 20
-60.470795999999964
 10
80.99043999999996
 20
-60.51422999999997
 10
80.97367599999997
 20
-60.55664799999997
 10
80.95487999999996
 20
-60.59804999999997
 10
80.93405199999997
 20
-60.638181999999965
 10
80.91144599999997
 20
-60.677297999999965
 10
80.88706199999997
 20
-60.71514399999997
 10
80.86089999999996
 20
-60.75171999999996
 10
80.83295999999996
 20
-60.78702599999997
 10
80.80349599999997
 20
-60.82080799999997
 10
80.77250799999996
 20
-60.85306599999998
 10
80.73999599999996
 20
-60.88379999999998
 10
80.70595999999996
 20
-60.91300999999998
 10
80.67065399999996
 20
-60.94069599999998
 10
80.63382399999996
 20
-60.96660399999998
 10
80.59572399999996
 20
-60.99073399999998
 10
80.55660799999997
 20
-61.01308599999998
 10
80.51622199999997
 20
-61.033405999999985
 10
80.47481999999997
 20
-61.05194799999998
 10
80.43240199999998
 20
-61.068457999999985
 10
80.38896799999998
 20
-61.08293599999998
 10
80.34451799999998
 20
-61.09538199999999
 10
80.29930599999997
 20
-61.10554199999998
 10
80.25333199999999
 20
-61.11341599999998
 10
80.20659599999998
 20
-61.11900399999998
 10
80.15909799999997
 20
-61.12230599999998
 10
80.11109199999997
 20
-61.123067999999975
 10
77.91373799999997
 20
-61.10655799999998
 10
75.71638399999996
 20
-61.09004799999998
 10
73.51902999999996
 20
-61.07353799999998
 10
71.32167599999995
 20
-61.05702799999998
 10
69.12432199999995
 20
-61.040517999999985
 10
66.92696799999995
 20
-61.02400799999998
 10
64.72961399999994
 20
-61.007497999999984
 10
62.532259999999944
 20
-60.99098799999998
 10
60.33490599999994
 20
-60.97447799999998
 10
58.137551999999936
 20
-60.95796799999999
 10
55.94019799999993
 20
-60.94145799999998
 10
53.742843999999934
 20
-60.924947999999986
 10
51.54548999999993
 20
-60.90843799999998
 10
49.348135999999926
 20
-60.891927999999986
 10
47.15078199999992
 20
-60.87541799999999
 10
44.953427999999924
 20
-60.858907999999985
 10
42.75607399999992
 20
-60.84239799999999
 10
40.558719999999916
 20
-60.82588799999999
 10
38.36136599999991
 20
-60.80937799999999
 10
36.16401199999991
 20
-60.79286799999999
 10
33.96665799999991
 20
-60.77635799999999
 10
31.76930399999991
 20
-60.75984799999999
 10
29.57194999999991
 20
-60.743337999999994
 10
27.37459599999991
 20
-60.72682799999999
 10
25.17724199999991
 20
-60.710317999999994
 10
22.979887999999914
 20
-60.69380799999999
 10
20.782533999999913
 20
-60.67729799999999
 10
18.585179999999912
 20
-60.660788
 10
16.387825999999915
 20
-60.64427799999999
 10
14.190471999999916
 20
-60.627767999999996
 10
11.993117999999917
 20
-60.611258
 10
9.795763999999918
 20
-60.594747999999996
 10
9.786365999999918
 20
-60.595002
 10
9.777221999999918
 20
-60.595763999999996
 10
9.76833199999992
 20
-60.596779999999995
 10
9.75944199999992
 20
-60.59830399999999
 10
9.750805999999919
 20
-60.60033599999999
 10
9.74216999999992
 20
-60.60262199999999
 10
9.733787999999919
 20
-60.60541599999999
 10
9.725659999999921
 20
-60.60871799999999
 10
9.71778599999992
 20
-60.61227399999999
 10
9.709911999999921
 20
-60.61633799999999
 10
9.70229199999992
 20
-60.62065599999999
 10
9.69492599999992
 20
-60.62548199999999
 10
9.68781399999992
 20
-60.630562
 10
9.68095599999992
 20
-60.63589599999999
 10
9.674351999999919
 20
-60.64148399999999
 10
9.66825599999992
 20
-60.64757999999999
 10
9.662413999999918
 20
-60.65392999999999
 10
9.656825999999919
 20
-60.66053399999999
 10
9.651491999999918
 20
-60.66739199999999
 10
9.646411999999918
 20
-60.674503999999985
 10
9.641839999999917
 20
-60.68186999999999
 10
9.637521999999917
 20
-60.689489999999985
 10
9.633711999999916
 20
-60.697363999999986
 10
9.630155999999916
 20
-60.70549199999999
 10
9.627107999999916
 20
-60.71361999999999
 10
9.624313999999915
 20
-60.72200199999999
 10
9.622027999999915
 20
-60.73063799999999
 10
9.620249999999915
 20
-60.73927399999999
 10
9.618725999999915
 20
-60.74816399999999
 10
9.617709999999915
 20
-60.75730799999999
 10
9.617201999999915
 20
-60.76645199999999
 10
9.617201999999915
 20
-60.77584999999999
 10
9.619233999999915
 20
-60.90437399999999
 10
9.621265999999917
 20
-61.03264399999998
 10
9.623297999999917
 20
-61.16040599999998
 10
9.625075999999916
 20
-61.28765999999998
 10
9.626853999999916
 20
-61.414405999999985
 10
9.628631999999916
 20
-61.54038999999999
 10
9.630409999999914
 20
-61.66561199999998
 10
9.632187999999914
 20
-61.79007199999999
 10
9.634219999999916
 20
-61.913769999999985
 10
9.636251999999915
 20
-62.03645199999998
 10
9.638283999999917
 20
-62.15786399999999
 10
9.640315999999917
 20
-62.27825999999999
 10
9.642601999999917
 20
-62.39738599999998
 10
9.644887999999918
 20
-62.515241999999986
 10
9.647427999999916
 20
-62.631573999999986
 10
9.650221999999918
 20
-62.74638199999998
 10
9.65301599999992
 20
-62.85966599999998
 10
9.656063999999919
 20
-62.97117199999998
 10
9.659365999999919
 20
-63.08115399999998
 10
9.662921999999918
 20
-63.18910399999998
 10
9.66673199999992
 20
-63.29527599999999
 10
9.670795999999918
 20
-63.39941599999998
 10
9.675113999999919
 20
-63.50152399999998
 10
9.679685999999919
 20
-63.60134599999998
 10
9.684511999999918
 20
-63.698881999999976
 10
9.68984599999992
 20
-63.794131999999976
 10
9.695433999999919
 20
-63.88709599999998
 10
9.70127599999992
 20
-63.97751999999998
 10
9.70762599999992
 20
-64.06540399999997
 10
9.71422999999992
 20
-64.15049399999998
 10
9.72134199999992
 20
-64.23278999999998
 10
9.72896199999992
 20
-64.31229199999999
 10
9.73327999999992
 20
-64.34632799999997
 10
9.739121999999922
 20
-64.37985599999998
 10
9.746487999999923
 20
-64.41262199999997
 10
9.755377999999922
 20
-64.44462599999997
 10
9.765791999999921
 20
-64.47612199999998
 10
9.77747599999992
 20
-64.50685599999998
 10
9.79068399999992
 20
-64.53682799999997
 10
9.805161999999921
 20
-64.56603799999998
 10
9.82090999999992
 20
-64.59423199999998
 10
9.83792799999992
 20
-64.62166399999998
 10
9.856215999999922
 20
-64.64807999999998
 10
9.875773999999922
 20
-64.67347999999998
 10
9.896347999999922
 20
-64.69811799999998
 10
9.917937999999921
 20
-64.72148599999998
 10
9.940797999999923
 20
-64.74383799999998
 10
9.964673999999922
 20
-64.76517399999999
 10
9.989311999999924
 20
-64.78549399999999
 10
10.014965999999923
 20
-64.80454399999998
 10
10.041635999999922
 20
-64.82232399999998
 10
10.069067999999922
 20
-64.83883399999998
 10
10.09726199999992
 20
-64.85407399999998
 10
10.12621799999992
 20
-64.86804399999998
 10
10.155935999999919
 20
-64.88074399999999
 10
10.18616199999992
 20
-64.89191999999998
 10
10.217149999999918
 20
-64.90182599999999
 10
10.248645999999919
 20
-64.91020799999998
 10
10.28064999999992
 20
-64.91706599999998
 10
10.313161999999918
 20
-64.92239999999998
 10
10.34618199999992
 20
-64.92620999999997
 10
10.37970999999992
 20
-64.92824199999998
 10
10.41349199999992
 20
-64.92874999999998
 10
10.44778199999992
 20
-64.92747999999997
 10
10.758677999999918
 20
-64.91046199999998
 10
11.08938599999992
 20
-64.89522199999998
 10
11.438381999999919
 20
-64.88175999999999
 10
11.803887999999919
 20
-64.87007599999998
 10
12.18437999999992
 20
-64.85991599999998
 10
12.57833399999992
 20
-64.85127999999999
 10
12.98422599999992
 20
-64.84416799999998
 10
13.40053199999992
 20
-64.83858
 10
13.82547399999992
 20
-64.834262
 10
14.25752799999992
 20
-64.83121399999999
 10
14.69516999999992
 20
-64.82918199999999
 10
15.13662199999992
 20
-64.828166
 10
15.58035999999992
 20
-64.828166
 10
16.02485999999992
 20
-64.82918199999999
 10
16.468597999999922
 20
-64.83095999999999
 10
16.909795999999922
 20
-64.83349999999999
 10
17.346929999999922
 20
-64.83680199999999
 10
17.77847599999992
 20
-64.84061199999998
 10
18.20290999999992
 20
-64.84518399999999
 10
18.61845399999992
 20
-64.85000999999998
 10
19.02358399999992
 20
-64.85534399999999
 10
19.41677599999992
 20
-64.86093199999998
 10
19.796505999999923
 20
-64.86677399999998
 10
20.160995999999923
 20
-64.87261599999998
 10
20.508721999999924
 20
-64.87845799999998
 10
20.838159999999924
 20
-64.88429999999998
 10
21.147785999999922
 20
-64.89014199999997
 10
21.43582199999992
 20
-64.89572999999997
 10
21.700743999999922
 20
-64.90106399999998
 10
21.94102799999992
 20
-64.90614399999997
 10
22.155149999999924
 20
-64.91071599999998
 10
22.341331999999923
 20
-64.91503399999998
 10
22.369779999999924
 20
-64.91579599999997
 10
22.39822799999992
 20
-64.91655799999997
 10
22.42667599999992
 20
-64.91731999999996
 10
22.45512399999992
 20
-64.91833599999995
 10
22.483571999999917
 20
-64.91935199999996
 10
22.512019999999914
 20
-64.92062199999995
 10
22.540467999999915
 20
-64.92189199999996
 10
22.568915999999913
 20
-64.92316199999995
 10
22.597363999999914
 20
-64.92468599999995
 10
22.62581199999991
 20
-64.92620999999995
 10
22.65425999999991
 20
-64.92773399999996
 10
22.68270799999991
 20
-64.92951199999996
 10
22.711155999999907
 20
-64.93128999999996
 10
22.739603999999904
 20
-64.93332199999996
 10
22.767797999999907
 20
-64.93535399999996
 10
22.795991999999906
 20
-64.93738599999996
 10
22.82418599999991
 20
-64.93967199999996
 10
22.85237999999991
 20
-64.94195799999996
 10
22.88057399999991
 20
-64.94424399999996
 10
22.908767999999913
 20
-64.94678399999995
 10
22.936961999999912
 20
-64.94932399999995
 10
22.965155999999915
 20
-64.95211799999994
 10
22.993349999999914
 20
-64.95491199999995
 10
23.021543999999917
 20
-64.95795999999994
 10
23.049737999999916
 20
-64.96100799999995
 10
23.07793199999992
 20
-64.96405599999994
 10
23.106125999999918
 20
-64.96735799999995
 10
23.13431999999992
 20
-64.97065999999995
 10
23.16251399999992
 20
-64.97421599999996
 10
23.190707999999923
 20
-64.97777199999996
 10
23.218901999999925
 20
-64.98158199999995
 10
23.247095999999924
 20
-64.98539199999995
 10
23.782781999999923
 20
-65.06286199999995
 10
24.307291999999922
 20
-65.14566599999995
 10
24.82037199999992
 20
-65.23354999999995
 10
25.321767999999924
 20
-65.32600599999995
 10
25.810971999999925
 20
-65.42227199999995
 10
26.287983999999923
 20
-65.52209399999995
 10
26.752295999999923
 20
-65.62496399999993
 10
27.203653999999926
 20
-65.73037399999994
 10
27.641549999999924
 20
-65.83781599999995
 10
28.065983999999926
 20
-65.94678199999994
 10
28.476447999999927
 20
-66.05701799999994
 10
28.87268799999993
 20
-66.16776199999994
 10
29.254449999999927
 20
-66.27875999999995
 10
29.621479999999927
 20
-66.38950399999993
 10
29.97326999999993
 20
-66.49923199999994
 10
30.309819999999927
 20
-66.60768999999995
 10
30.630621999999928
 20
-66.71436999999995
 10
30.93542199999993
 20
-66.81876399999994
 10
31.22371199999993
 20
-66.92061799999995
 10
31.495491999999928
 20
-67.01916999999995
 10
31.75025399999993
 20
-67.11416599999995
 10
31.987743999999932
 20
-67.20484399999997
 10
32.20770799999993
 20
-67.29094999999997
 10
32.40989199999993
 20
-67.37197599999996
 10
32.59378799999993
 20
-67.44741399999997
 10
32.759395999999924
 20
-67.51675599999997
 10
32.90620799999993
 20
-67.57949399999998
 10
33.03371599999993
 20
-67.63511999999999
 10
33.14191999999993
 20
-67.68312599999999
 10
33.230565999999925
 20
-67.72325799999999
 10
33.29914599999992
 20
-67.75475399999999
 10
33.34740599999993
 20
-67.77736
 10
33.34969199999992
 20
-67.778376
 10
33.35197799999992
 20
-67.779392
 10
33.354263999999915
 20
-67.78040800000001
 10
33.35654999999991
 20
-67.78142400000002
 10
33.358835999999904
 20
-67.78244000000002
 10
33.3611219999999
 20
-67.78320200000002
 10
33.3634079999999
 20
-67.78396400000001
 10
33.3656939999999
 20
-67.784726
 10
33.367979999999896
 20
-67.785488
 10
33.37026599999989
 20
-67.78625
 10
33.372551999999885
 20
-67.787012
 10
33.37483799999988
 20
-67.787774
 10
33.37712399999988
 20
-67.788536
 10
33.37940999999988
 20
-67.78904399999999
 10
33.38169599999987
 20
-67.789552
 10
33.38398199999987
 20
-67.79006
 10
33.386267999999866
 20
-67.790568
 10
33.388553999999864
 20
-67.791076
 10
33.390839999999855
 20
-67.791584
 10
33.39312599999985
 20
-67.79209200000001
 10
33.39541199999985
 20
-67.792346
 10
33.39769799999985
 20
-67.7926
 10
33.39998399999985
 20
-67.79285399999999
 10
33.40226999999984
 20
-67.79310799999999
 10
33.404555999999836
 20
-67.79336199999997
 10
33.406841999999834
 20
-67.79361599999997
 10
33.40912799999983
 20
-67.79386999999997
 10
33.41141399999982
 20
-67.79412399999995
 10
33.413953999999826
 20
-67.79412399999995
 10
33.41649399999982
 20
-67.79412399999995
 10
33.41903399999982
 20
-67.79412399999995
 10
33.421573999999815
 20
-67.79412399999995
 10
34.39794999999982
 20
-67.79412399999995
 10
35.37432599999981
 20
-67.79412399999995
 10
36.35070199999981
 20
-67.79412399999995
 10
37.32707799999981
 20
-67.79412399999995
 10
38.30345399999981
 20
-67.79412399999995
 10
39.279829999999805
 20
-67.79412399999995
 10
40.25620599999981
 20
-67.79412399999995
 10
41.2325819999998
 20
-67.79412399999995
 10
42.208957999999804
 20
-67.79412399999995
 10
43.185333999999806
 20
-67.79412399999995
 10
44.1617099999998
 20
-67.79412399999995
 10
45.1380859999998
 20
-67.79412399999995
 10
46.1144619999998
 20
-67.79412399999995
 10
47.0908379999998
 20
-67.79412399999995
 10
48.067213999999794
 20
-67.79412399999995
 10
49.043589999999796
 20
-67.79412399999995
 10
50.01996599999979
 20
-67.79412399999995
 10
50.99634199999979
 20
-67.79412399999995
 10
51.97271799999979
 20
-67.79412399999995
 10
52.94909399999979
 20
-67.79412399999995
 10
53.925469999999784
 20
-67.79412399999995
 10
54.901845999999786
 20
-67.79412399999995
 10
55.87822199999978
 20
-67.79412399999995
 10
56.85459799999978
 20
-67.79412399999995
 10
57.83097399999978
 20
-67.79412399999995
 10
58.80734999999978
 20
-67.79412399999995
 10
59.783725999999774
 20
-67.79412399999995
 10
60.760101999999776
 20
-67.79412399999995
 10
61.73647799999977
 20
-67.79412399999995
 10
62.71285399999977
 20
-67.79412399999995
 10
63.68922999999977
 20
-67.79412399999995
 10
64.66560599999977
 20
-67.79412399999995
 10
64.66687599999977
 20
-67.79361599999996
 10
64.66814599999977
 20
-67.79310799999996
 10
64.66941599999977
 20
-67.79259999999995
 10
64.67068599999976
 20
-67.79209199999995
 10
64.67195599999977
 20
-67.79158399999994
 10
64.67322599999976
 20
-67.79107599999995
 10
64.67449599999976
 20
-67.79056799999994
 10
64.67576599999975
 20
-67.79005999999994
 10
64.67703599999976
 20
-67.78955199999994
 10
64.67830599999976
 20
-67.78904399999993
 10
64.67957599999976
 20
-67.78853599999994
 10
64.68084599999976
 20
-67.78802799999993
 10
64.68211599999975
 20
-67.78751999999993
 10
64.68338599999976
 20
-67.78701199999992
 10
64.68465599999975
 20
-67.78650399999992
 10
64.68592599999975
 20
-67.78599599999993
 10
64.68719599999974
 20
-67.78548799999992
 10
64.68846599999975
 20
-67.78497999999992
 10
64.68973599999974
 20
-67.78447199999991
 10
64.69100599999975
 20
-67.78396399999991
 10
64.69227599999975
 20
-67.7834559999999
 10
64.69354599999974
 20
-67.7829479999999
 10
64.69481599999975
 20
-67.78243999999991
 10
64.69608599999974
 20
-67.7819319999999
 10
64.69735599999974
 20
-67.7814239999999
 10
64.69862599999973
 20
-67.78091599999989
 10
64.69989599999974
 20
-67.7804079999999
 10
64.70116599999973
 20
-67.77989999999988
 10
64.70243599999974
 20
-67.77939199999989
 10
64.70370599999974
 20
-67.77888399999989
 10
64.70497599999973
 20
-67.77837599999988
 10
64.70624599999974
 20
-67.77786799999988
 10
64.71056399999974
 20
-67.76364399999989
 10
64.71538999999973
 20
-67.74967399999989
 10
64.72046999999974
 20
-67.7359579999999
 10
64.72605799999974
 20
-67.7224959999999
 10
64.73215399999974
 20
-67.70928799999989
 10
64.73875799999973
 20
-67.6963339999999
 10
64.74586999999974
 20
-67.6838879999999
 10
64.75323599999973
 20
-67.6716959999999
 10
64.76110999999973
 20
-67.65975799999988
 10
64.76949199999973
 20
-67.6480739999999
 10
64.77812799999973
 20
-67.63664399999989
 10
64.78727199999973
 20
-67.62572199999988
 10
64.79666999999974
 20
-67.61505399999989
 10
64.80657599999972
 20
-67.60489399999989
 10
64.81673599999972
 20
-67.59498799999989
 10
64.82714999999972
 20
-67.58533599999988
 10
64.83807199999973
 20
-67.57619199999989
 10
64.84924799999973
 20
-67.56755599999988
 10
64.86067799999972
 20
-67.55917399999989
 10
64.87236199999973
 20
-67.55129999999988
 10
64.88455399999972
 20
-67.5436799999999
 10
64.89699999999972
 20
-67.53656799999989
 10
64.90969999999973
 20
-67.52996399999988
 10
64.92265399999972
 20
-67.52386799999988
 10
64.93586199999973
 20
-67.51802599999988
 10
64.94932399999972
 20
-67.51269199999987
 10
64.96303999999972
 20
-67.50786599999986
 10
64.97675599999972
 20
-67.50354799999987
 10
64.99072599999973
 20
-67.49973799999988
 10
65.00494999999972
 20
-67.49643599999987
 10
65.01942799999972
 20
-67.49364199999988
 10
65.03390599999972
 20
-67.49135599999987
 10
65.10705799999972
 20
-67.48119599999987
 10
65.18020999999973
 20
-67.47103599999986
 10
65.25336199999973
 20
-67.46087599999986
 10
65.32651399999973
 20
-67.45071599999984
 10
65.39966599999974
 20
-67.44055599999984
 10
65.47281799999973
 20
-67.43039599999985
 10
65.54596999999974
 20
-67.42023599999983
 10
65.61912199999975
 20
-67.41007599999983
 10
65.69227399999974
 20
-67.39991599999982
 10
65.76542599999975
 20
-67.38975599999982
 10
65.83857799999976
 20
-67.37959599999981
 10
65.91172999999975
 20
-67.36943599999981
 10
65.98488199999976
 20
-67.35927599999981
 10
66.05803399999976
 20
-67.3491159999998
 10
66.13118599999976
 20
-67.3389559999998
 10
66.20433799999977
 20
-67.32879599999978
 10
66.27748999999977
 20
-67.31863599999978
 10
66.35064199999978
 20
-67.30847599999977
 10
66.42379399999977
 20
-67.29831599999977
 10
66.49694599999978
 20
-67.28815599999977
 10
66.57009799999979
 20
-67.27799599999976
 10
66.64324999999978
 20
-67.26783599999976
 10
66.71640199999979
 20
-67.25767599999975
 10
66.7895539999998
 20
-67.24751599999975
 10
66.86270599999979
 20
-67.23735599999974
 10
66.9358579999998
 20
-67.22719599999974
 10
67.0090099999998
 20
-67.21703599999974
 10
67.0821619999998
 20
-67.20687599999972
 10
67.1553139999998
 20
-67.19671599999972
 10
67.22846599999981
 20
-67.18655599999971
 10
67.3016179999998
 20
-67.17639599999971
 10
67.37476999999981
 20
-67.1662359999997
 10
67.39077199999981
 20
-67.1644579999997
 10
67.4067739999998
 20
-67.1631879999997
 10
67.4227759999998
 20
-67.1626799999997
 10
67.4387779999998
 20
-67.1626799999997
 10
67.4545259999998
 20
-67.1634419999997
 10
67.4702739999998
 20
-67.1647119999997
 10
67.4857679999998
 20
-67.1667439999997
 10
67.5012619999998
 20
-67.16928399999969
 10
67.51650199999979
 20
-67.17233199999968
 10
67.5314879999998
 20
-67.17614199999969
 10
67.5464739999998
 20
-67.18045999999968
 10
67.56120599999981
 20
-67.18528599999969
 10
67.57568399999981
 20
-67.1906199999997
 10
67.58990799999981
 20
-67.1967159999997
 10
67.60387799999981
 20
-67.20331999999969
 10
67.6175939999998
 20
-67.2104319999997
 10
67.6310559999998
 20
-67.21805199999969
 10
67.64426399999981
 20
-67.22617999999969
 10
67.6569639999998
 20
-67.23481599999968
 10
67.6694099999998
 20
-67.24395999999969
 10
67.6816019999998
 20
-67.25361199999969
 10
67.6932859999998
 20
-67.26377199999969
 10
67.7047159999998
 20
-67.27443999999969
 10
67.71563799999981
 20
-67.28561599999968
 10
67.7263059999998
 20
-67.29704599999968
 10
67.73646599999981
 20
-67.3089839999997
 10
67.74611799999981
 20
-67.3214299999997
 10
67.7552619999998
 20
-67.33438399999969
 10
67.76389799999981
 20
-67.3475919999997
 10
67.7720259999998
 20
-67.36130799999968
 10
67.7796459999998
 20
-67.37527799999968
 10
67.78675799999981
 20
-67.3897559999997
 10
67.79310799999979
 20
-67.40347199999968
 10
67.79945799999979
 20
-67.41718799999967
 10
67.80580799999979
 20
-67.43090399999967
 10
67.81215799999978
 20
-67.44461999999966
 10
67.81850799999977
 20
-67.45833599999966
 10
67.82485799999976
 20
-67.47205199999965
 10
67.83120799999976
 20
-67.48576799999964
 10
67.83755799999976
 20
-67.49948399999964
 10
67.84390799999974
 20
-67.51319999999963
 10
67.85025799999974
 20
-67.52691599999962
 10
67.85660799999974
 20
-67.54063199999962
 10
67.86295799999974
 20
-67.5543479999996
 10
67.86930799999972
 20
-67.5680639999996
 10
67.87565799999972
 20
-67.5817799999996
 10
67.88200799999971
 20
-67.59549599999959
 10
67.88835799999971
 20
-67.60921199999959
 10
67.89470799999971
 20
-67.62292799999958
 10
67.9010579999997
 20
-67.63664399999956
 10
67.90740799999969
 20
-67.65035999999957
 10
67.91375799999969
 20
-67.66407599999955
 10
67.92010799999969
 20
-67.67779199999954
 10
67.92645799999967
 20
-67.69150799999954
 10
67.93280799999967
 20
-67.70522399999953
 10
67.93915799999967
 20
-67.71893999999953
 10
67.94550799999966
 20
-67.73265599999952
 10
67.95185799999965
 20
-67.74637199999951
 10
67.95820799999964
 20
-67.76008799999951
 10
67.96455799999964
 20
-67.7738039999995
 10
67.97090799999964
 20
-67.78751999999949
 10
67.97725799999962
 20
-67.80123599999949
 10
67.98360799999962
 20
-67.81495199999948
 10
67.98995799999962
 20
-67.82866799999947
 10
67.99275199999963
 20
-67.83400199999947
 10
67.99579999999962
 20
-67.83857399999947
 10
67.99910199999961
 20
-67.84212999999947
 10
68.00240399999961
 20
-67.84492399999948
 10
68.00595999999962
 20
-67.84720999999948
 10
68.0097699999996
 20
-67.84873399999948
 10
68.0135799999996
 20
-67.84949599999948
 10
68.0176439999996
 20
-67.84974999999946
 10
68.0219619999996
 20
-67.84949599999948
 10
68.02627999999962
 20
-67.84873399999948
 10
68.0308519999996
 20
-67.84746399999948
 10
68.0354239999996
 20
-67.84568599999947
 10
68.0402499999996
 20
-67.84365399999947
 10
68.0450759999996
 20
-67.84136799999948
 10
68.05015599999959
 20
-67.83882799999948
 10
68.0552359999996
 20
-67.83603399999947
 10
68.06056999999959
 20
-67.83298599999948
 10
68.06590399999959
 20
-67.82993799999947
 10
68.0714919999996
 20
-67.82663599999948
 10
68.0770799999996
 20
-67.82333399999949
 10
68.08266799999959
 20
-67.82003199999949
 10
68.0885099999996
 20
-67.8167299999995
 10
68.0943519999996
 20
-67.8136819999995
 10
68.1001939999996
 20
-67.8106339999995
 10
68.1062899999996
 20
-67.80783999999949
 10
68.1123859999996
 20
-67.80529999999949
 10
68.1184819999996
 20
-67.8030139999995
 10
68.12457799999962
 20
-67.8009819999995
 10
68.1309279999996
 20
-67.7994579999995
 10
68.1372779999996
 20
-67.7981879999995
 10
68.1436279999996
 20
-67.7974259999995
 10
68.14997799999959
 20
-67.7971719999995
 10
68.9856379999996
 20
-67.7971719999995
 10
69.8212979999996
 20
-67.7971719999995
 10
70.6569579999996
 20
-67.7971719999995
 10
71.49261799999961
 20
-67.7971719999995
 10
72.32827799999961
 20
-67.7971719999995
 10
73.16393799999962
 20
-67.7971719999995
 10
73.99959799999962
 20
-67.7971719999995
 10
74.83525799999963
 20
-67.7971719999995
 10
75.67091799999963
 20
-67.7971719999995
 10
76.50657799999964
 20
-67.7971719999995
 10
77.34223799999964
 20
-67.7971719999995
 10
78.17789799999964
 20
-67.7971719999995
 10
79.01355799999965
 20
-67.7971719999995
 10
79.84921799999965
 20
-67.7971719999995
 10
80.68487799999967
 20
-67.7971719999995
 10
81.52053799999968
 20
-67.7971719999995
 10
82.35619799999968
 20
-67.7971719999995
 10
83.19185799999968
 20
-67.7971719999995
 10
84.02751799999969
 20
-67.7971719999995
 10
84.86317799999969
 20
-67.7971719999995
 10
85.6988379999997
 20
-67.7971719999995
 10
86.5344979999997
 20
-67.7971719999995
 10
87.3701579999997
 20
-67.7971719999995
 10
88.20581799999971
 20
-67.7971719999995
 10
89.04147799999971
 20
-67.7971719999995
 10
89.87713799999972
 20
-67.7971719999995
 10
90.71279799999972
 20
-67.7971719999995
 10
91.54845799999973
 20
-67.7971719999995
 10
92.38411799999973
 20
-67.7971719999995
 10
93.21977799999975
 20
-67.7971719999995
 10
94.05543799999975
 20
-67.7971719999995
 10
94.89109799999976
 20
-67.7971719999995
 10
94.90176599999975
 20
-67.7971719999995
 10
94.91217999999975
 20
-67.7974259999995
 10
94.92259399999975
 20
-67.7976799999995
 10
94.93275399999975
 20
-67.7979339999995
 10
94.94265999999975
 20
-67.79818799999948
 10
94.95231199999975
 20
-67.79844199999948
 10
94.96170999999974
 20
-67.79869599999948
 10
94.97085399999975
 20
-67.79894999999946
 10
94.97948999999974
 20
-67.79920399999946
 10
94.98787199999974
 20
-67.79920399999946
 10
94.99599999999974
 20
-67.79920399999946
 10
95.00361999999973
 20
-67.79894999999946
 10
95.01098599999973
 20
-67.79844199999947
 10
95.01809799999974
 20
-67.79767999999947
 10
95.02470199999973
 20
-67.79666399999947
 10
95.03079799999975
 20
-67.79539399999946
 10
95.03663999999975
 20
-67.79386999999947
 10
95.04197399999975
 20
-67.79183799999947
 10
95.04679999999975
 20
-67.78955199999947
 10
95.05137199999974
 20
-67.78675799999947
 10
95.05543599999974
 20
-67.78345599999948
 10
95.05899199999975
 20
-67.77964599999947
 10
95.06203999999975
 20
-67.77532799999948
 10
95.06457999999975
 20
-67.77050199999948
 10
95.06661199999975
 20
-67.76516799999948
 10
95.06788199999974
 20
-67.75932599999946
 10
95.06864399999974
 20
-67.75272199999947
 10
95.06889799999973
 20
-67.74560999999946
 10
95.06838999999974
 20
-67.73773599999946
 10
95.06737399999973
 20
-67.72909999999946
 10
95.06584999999974
 20
-67.71970199999947
 10
95.06356399999973
 20
-67.70954199999946
 10
94.96831399999974
 20
-67.32650999999947
 10
94.87306399999973
 20
-66.94347799999947
 10
94.77781399999974
 20
-66.56044599999947
 10
94.68256399999973
 20
-66.17741399999949
 10
94.58731399999974
 20
-65.79438199999949
 10
94.49206399999973
 20
-65.41134999999949
 10
94.39681399999974
 20
-65.0283179999995
 10
94.30156399999973
 20
-64.64528599999949
 10
94.20631399999974
 20
-64.26225399999949
 10
94.11106399999973
 20
-63.87922199999949
 10
94.01581399999974
 20
-63.49618999999949
 10
93.92056399999973
 20
-63.11315799999948
 10
93.82531399999974
 20
-62.73012599999948
 10
93.73006399999973
 20
-62.34709399999948
 10
93.63481399999974
 20
-61.96406199999947
 10
93.53956399999973
 20
-61.58102999999947
 10
93.44431399999974
 20
-61.19799799999947
 10
93.34906399999973
 20
-60.814965999999465
 10
93.25381399999974
 20
-60.431933999999465
 10
93.15856399999973
 20
-60.048901999999465
 10
93.06331399999974
 20
-59.66586999999946
 10
92.96806399999973
 20
-59.28283799999946
 10
92.87281399999974
 20
-58.89980599999946
 10
92.77756399999973
 20
-58.51677399999945
 10
92.68231399999974
 20
-58.13374199999945
 10
92.58706399999973
 20
-57.750709999999444
 10
92.49181399999974
 20
-57.367677999999444
 10
92.39656399999973
 20
-56.984645999999444
 10
92.30131399999973
 20
-56.60161399999944
 10
92.20606399999973
 20
-56.21858199999944
 10
92.11081399999973
 20
-55.83554999999944
 10
92.01556399999973
 20
-55.45251799999943
 10
92.01353199999974
 20
-55.44515199999943
 10
92.01124599999973
 20
-55.43803999999943
 10
92.00870599999973
 20
-55.43118199999944
 10
92.00591199999973
 20
-55.424323999999444
 10
92.00286399999973
 20
-55.41771999999944
 10
91.99956199999974
 20
-55.41111599999944
 10
91.99600599999974
 20
-55.404765999999434
 10
91.99219599999974
 20
-55.398669999999434
 10
91.98813199999974
 20
-55.392573999999435
 10
91.98381399999973
 20
-55.386731999999434
 10
91.97924199999974
 20
-55.38114399999944
 10
91.97441599999974
 20
-55.37580999999944
 10
91.96958999999974
 20
-55.37072999999944
 10
91.96450999999973
 20
-55.365649999999434
 10
91.95917599999974
 20
-55.36082399999943
 10
91.95358799999974
 20
-55.35625199999944
 10
91.94799999999974
 20
-55.35193399999944
 10
91.94215799999974
 20
-55.34786999999944
 10
91.93606199999974
 20
-55.344059999999445
 10
91.92996599999974
 20
-55.34050399999944
 10
91.92361599999974
 20
-55.33720199999944
 10
91.91726599999974
 20
-55.33415399999944
 10
91.91066199999975
 20
-55.331359999999435
 10
91.90380399999975
 20
-55.32881999999944
 10
91.89694599999974
 20
-55.32653399999944
 10
91.89008799999975
 20
-55.32450199999944
 10
91.88297599999974
 20
-55.32272399999944
 10
91.87586399999974
 20
-55.32119999999944
 10
91.86849799999975
 20
-55.319929999999445
 10
91.86113199999974
 20
-55.31916799999944
 10
91.85376599999975
 20
-55.31865999999944
 10
91.84614599999975
 20
-55.31840599999944
  0
LWPOLYLINE
  5
33
330
17
100
AcDbEntity
  8
0
100
AcDbPolyline
 90
257
 70
0
 10
80.49386999999975
 20
-56.23890199999944
 10
80.49259999999975
 20
-56.180481999999444
 10
80.48878999999975
 20
-56.12256999999944
 10
80.48243999999976
 20
-56.06541999999944
 10
80.47354999999975
 20
-56.00903199999944
 10
80.46211999999974
 20
-55.95340599999944
 10
80.44840399999975
 20
-55.89854199999944
 10
80.43240199999975
 20
-55.84469399999944
 10
80.41411399999976
 20
-55.79186199999944
 10
80.39353999999976
 20
-55.74004599999944
 10
80.37067999999977
 20
-55.68924599999944
 10
80.34578799999976
 20
-55.639715999999446
 10
80.31886399999976
 20
-55.59120199999944
 10
80.28990799999977
 20
-55.54395799999944
 10
80.25891999999976
 20
-55.49823799999944
 10
80.22615399999975
 20
-55.45378799999944
 10
80.19135599999976
 20
-55.41086199999943
 10
80.15477999999976
 20
-55.369459999999435
 10
80.11642599999975
 20
-55.329581999999434
 10
80.07654799999976
 20
-55.29148199999943
 10
80.03489199999976
 20
-55.25515999999943
 10
79.99171199999975
 20
-55.22061599999943
 10
79.94700799999976
 20
-55.18784999999943
 10
79.90077999999976
 20
-55.15686199999943
 10
79.85302799999975
 20
-55.12790599999943
 10
79.80400599999976
 20
-55.100981999999426
 10
79.75345999999976
 20
-55.076089999999425
 10
79.70164399999976
 20
-55.05348399999943
 10
79.64855799999975
 20
-55.033163999999424
 10
79.59445599999975
 20
-55.015129999999424
 10
79.53908399999975
 20
-54.99938199999942
 10
79.48269599999975
 20
-54.98591999999942
 10
79.42529199999976
 20
-54.97499799999942
 10
79.26603399999975
 20
-54.94858199999942
 10
79.09686999999975
 20
-54.921149999999415
 10
78.91779999999976
 20
-54.892955999999415
 10
78.72882399999975
 20
-54.863999999999415
 10
78.53044999999975
 20
-54.83428199999942
 10
78.32267799999975
 20
-54.80405599999942
 10
78.10576199999976
 20
-54.77332199999942
 10
77.87970199999975
 20
-54.74233399999941
 10
77.64500599999977
 20
-54.71109199999942
 10
77.40167399999976
 20
-54.67984999999942
 10
77.14995999999975
 20
-54.64860799999942
 10
76.88986399999976
 20
-54.61761999999942
 10
76.62163999999976
 20
-54.58688599999942
 10
76.34554199999977
 20
-54.55665999999941
 10
76.06182399999976
 20
-54.526941999999416
 10
75.77048599999976
 20
-54.49773199999942
 10
75.47178199999976
 20
-54.46928399999941
 10
75.16596599999977
 20
-54.441851999999415
 10
74.85329199999977
 20
-54.41543599999941
 10
74.53375999999977
 20
-54.39003599999941
 10
74.20762399999977
 20
-54.36590599999941
 10
73.87513799999977
 20
-54.34304599999941
 10
73.53630199999976
 20
-54.32170999999941
 10
73.19136999999976
 20
-54.30189799999941
 10
72.84059599999976
 20
-54.28386399999941
 10
72.48423399999976
 20
-54.26760799999941
 10
72.12228399999977
 20
-54.25338399999941
 10
71.75499999999975
 20
-54.24119199999941
 10
71.38263599999975
 20
-54.23103199999941
 10
71.00544599999975
 20
-54.22341199999941
 10
70.62342999999974
 20
-54.218077999999416
 10
70.23684199999975
 20
-54.215283999999414
 10
69.61682799999976
 20
-54.212997999999416
 10
68.77354799999975
 20
-54.20969599999942
 10
67.72122599999976
 20
-54.20563199999942
 10
66.47408599999976
 20
-54.20105999999942
 10
65.04660599999976
 20
-54.195725999999425
 10
63.453263999999756
 20
-54.189883999999424
 10
61.708537999999756
 20
-54.18327999999942
 10
59.82665199999976
 20
-54.17616799999942
 10
57.82182999999976
 20
-54.168801999999424
 10
55.70880399999976
 20
-54.16092799999942
 10
53.50179799999976
 20
-54.152799999999424
 10
51.215035999999756
 20
-54.14416399999942
 10
48.86324999999975
 20
-54.13527399999942
 10
46.46066399999975
 20
-54.126383999999426
 10
44.02150199999975
 20
-54.11723999999943
 10
41.560241999999754
 20
-54.10809599999942
 10
39.091361999999755
 20
-54.09895199999942
 10
36.62933999999975
 20
-54.08980799999942
 10
34.188399999999746
 20
-54.08066399999942
 10
31.782765999999746
 20
-54.07177399999942
 10
29.427169999999744
 20
-54.06313799999943
 10
27.135835999999745
 20
-54.05450199999943
 10
24.922987999999744
 20
-54.046373999999425
 10
22.803357999999744
 20
-54.03849999999942
 10
20.790915999999743
 20
-54.031133999999426
 10
18.900393999999743
 20
-54.02402199999943
 10
17.146015999999744
 20
-54.017417999999424
 10
15.542259999999745
 20
-54.01157599999942
 10
14.103349999999745
 20
-54.006241999999425
 10
12.843763999999744
 20
-54.00166999999943
 10
11.777979999999745
 20
-53.99760599999943
 10
10.920221999999745
 20
-53.99430399999943
 10
10.859515999999745
 20
-53.99557399999943
 10
10.799571999999745
 20
-53.99989199999943
 10
10.740389999999747
 20
-54.007257999999425
 10
10.682223999999747
 20
-54.017417999999424
 10
10.625073999999746
 20
-54.03037199999942
 10
10.568939999999747
 20
-54.046119999999426
 10
10.514075999999747
 20
-54.064407999999425
 10
10.460481999999747
 20
-54.085489999999425
 10
10.408157999999746
 20
-54.10911199999942
 10
10.357357999999746
 20
-54.13501999999942
 10
10.307827999999747
 20
-54.16321399999942
 10
10.259821999999746
 20
-54.19394799999942
 10
10.213593999999745
 20
-54.22671399999942
 10
10.168889999999745
 20
-54.26176599999942
 10
10.125963999999746
 20
-54.29884999999942
 10
10.085069999999746
 20
-54.33796599999942
 10
10.045953999999744
 20
-54.37885999999941
 10
10.008869999999744
 20
-54.42153199999942
 10
9.973817999999744
 20
-54.46598199999942
 10
9.940797999999743
 20
-54.51220999999942
 10
9.910063999999743
 20
-54.560215999999414
 10
9.881615999999743
 20
-54.60974599999941
 10
9.855453999999742
 20
-54.660545999999414
 10
9.831831999999741
 20
-54.71286999999941
 10
9.810749999999741
 20
-54.76646399999941
 10
9.792207999999741
 20
-54.82132799999941
 10
9.77620599999974
 20
-54.87746199999942
 10
9.762997999999742
 20
-54.93461199999941
 10
9.752583999999743
 20
-54.99277799999942
 10
9.744963999999742
 20
-55.05195999999942
 10
9.740391999999742
 20
-55.11190399999941
 10
9.738867999999743
 20
-55.172609999999416
 10
9.738867999999743
 20
-55.32983599999942
 10
9.738867999999743
 20
-55.48706199999942
 10
9.738867999999743
 20
-55.64428799999941
 10
9.738867999999743
 20
-55.801513999999415
 10
9.738867999999743
 20
-55.958739999999416
 10
9.738867999999743
 20
-56.11596599999942
 10
9.738867999999743
 20
-56.27319199999942
 10
9.738867999999743
 20
-56.43041799999941
 10
9.738867999999743
 20
-56.587643999999415
 10
9.738867999999743
 20
-56.744869999999416
 10
9.738867999999743
 20
-56.90209599999942
 10
9.738867999999743
 20
-57.05932199999942
 10
9.738867999999743
 20
-57.21654799999941
 10
9.738867999999743
 20
-57.373773999999415
 10
9.738867999999743
 20
-57.530999999999416
 10
9.738867999999743
 20
-57.68822599999942
 10
9.738867999999743
 20
-57.84545199999942
 10
9.738867999999743
 20
-58.00267799999941
 10
9.738867999999743
 20
-58.159903999999415
 10
9.738867999999743
 20
-58.317129999999416
 10
9.738867999999743
 20
-58.47435599999942
 10
9.738867999999743
 20
-58.63158199999942
 10
9.738867999999743
 20
-58.78880799999941
 10
9.738867999999743
 20
-58.946033999999415
 10
9.738867999999743
 20
-59.103259999999416
 10
9.738867999999743
 20
-59.26048599999942
 10
9.738867999999743
 20
-59.41771199999941
 10
9.738867999999743
 20
-59.57493799999941
 10
9.738867999999743
 20
-59.732163999999415
 10
9.738867999999743
 20
-59.889389999999416
 10
9.738867999999743
 20
-60.04661599999942
 10
9.738867999999743
 20
-60.20384199999941
 10
11.924029999999743
 20
-60.214509999999414
 10
14.109191999999743
 20
-60.22517799999942
 10
16.294353999999743
 20
-60.23584599999942
 10
18.47951599999974
 20
-60.246513999999415
 10
20.66467799999974
 20
-60.25718199999942
 10
22.849839999999737
 20
-60.26784999999942
 10
25.035001999999736
 20
-60.278517999999416
 10
27.220163999999738
 20
-60.28918599999942
 10
29.405325999999736
 20
-60.29985399999942
 10
31.590487999999734
 20
-60.310521999999416
 10
33.77564999999973
 20
-60.32118999999942
 10
35.960811999999734
 20
-60.33185799999942
 10
38.14597399999974
 20
-60.342525999999424
 10
40.33113599999974
 20
-60.35319399999942
 10
42.51629799999974
 20
-60.36386199999942
 10
44.70145999999974
 20
-60.374529999999424
 10
46.88662199999975
 20
-60.38519799999942
 10
49.071783999999745
 20
-60.39586599999942
 10
51.25694599999975
 20
-60.406533999999425
 10
53.44210799999975
 20
-60.41720199999942
 10
55.627269999999754
 20
-60.42786999999942
 10
57.81243199999976
 20
-60.438537999999426
 10
59.99759399999976
 20
-60.44920599999942
 10
62.18275599999976
 20
-60.459873999999424
 10
64.36791799999976
 20
-60.470541999999426
 10
66.55307999999977
 20
-60.48120999999943
 10
68.73824199999977
 20
-60.491877999999424
 10
70.92340399999976
 20
-60.50254599999943
 10
73.10856599999977
 20
-60.51321399999943
 10
75.29372799999977
 20
-60.523881999999425
 10
77.47888999999978
 20
-60.53454999999943
 10
79.66405199999978
 20
-60.54521799999943
 10
79.70113599999978
 20
-60.54547199999943
 10
79.73771199999979
 20
-60.54572599999943
 10
79.77377999999979
 20
-60.54572599999943
 10
79.80933999999978
 20
-60.54572599999943
 10
79.84439199999977
 20
-60.54547199999943
 10
79.87868199999977
 20
-60.544709999999434
 10
79.91220999999977
 20
-60.543693999999434
 10
79.94497599999978
 20
-60.54216999999944
 10
79.97697999999977
 20
-60.54013799999943
 10
80.00822199999976
 20
-60.537343999999436
 10
80.03844799999978
 20
-60.53378799999943
 10
80.06765799999978
 20
-60.529469999999435
 10
80.09610599999978
 20
-60.52438999999943
 10
80.12328399999979
 20
-60.51829399999943
 10
80.1494459999998
 20
-60.51118199999943
 10
80.17459199999979
 20
-60.50305399999943
 10
80.19846799999979
 20
-60.493655999999426
 10
80.22107399999979
 20
-60.48298799999943
 10
80.24266399999978
 20
-60.47104999999943
 10
80.26272999999979
 20
-60.45784199999943
 10
80.28152599999979
 20
-60.44310999999943
 10
80.29905199999979
 20
-60.42685399999943
 10
80.31505399999979
 20
-60.40881999999943
 10
80.32953199999979
 20
-60.389007999999436
 10
80.3424859999998
 20
-60.36741799999943
 10
80.3539159999998
 20
-60.34404999999943
 10
80.3635679999998
 20
-60.31864999999943
 10
80.37169599999979
 20
-60.291217999999425
 10
80.37804599999978
 20
-60.26175399999943
 10
80.38261799999978
 20
-60.230257999999424
 10
80.38541199999979
 20
-60.19647599999942
 10
80.3864279999998
 20
-60.16040799999942
 10
80.38972999999979
 20
-60.03797999999942
 10
80.39303199999978
 20
-59.91555199999942
 10
80.39633399999977
 20
-59.79312399999942
 10
80.39963599999977
 20
-59.670695999999424
 10
80.40293799999976
 20
-59.548267999999425
 10
80.40623999999976
 20
-59.425839999999425
 10
80.40954199999975
 20
-59.303411999999426
 10
80.41284399999975
 20
-59.18098399999943
 10
80.41614599999974
 20
-59.05855599999943
 10
80.41944799999973
 20
-58.93612799999943
 10
80.42274999999972
 20
-58.81369999999943
 10
80.42605199999971
 20
-58.69127199999943
 10
80.42935399999972
 20
-58.56884399999942
 10
80.43265599999971
 20
-58.446415999999424
 10
80.4359579999997
 20
-58.323987999999424
 10
80.43925999999969
 20
-58.201559999999425
 10
80.4425619999997
 20
-58.079131999999426
 10
80.44586399999969
 20
-57.95670399999943
 10
80.44916599999968
 20
-57.83427599999943
 10
80.45246799999967
 20
-57.71184799999943
 10
80.45576999999967
 20
-57.58941999999943
 10
80.45907199999967
 20
-57.46699199999943
 10
80.46237399999966
 20
-57.34456399999943
 10
80.46567599999965
 20
-57.22213599999943
 10
80.46897799999964
 20
-57.09970799999943
 10
80.47227999999964
 20
-56.97727999999943
 10
80.47558199999963
 20
-56.854851999999426
 10
80.47888399999962
 20
-56.732423999999426
 10
80.48218599999961
 20
-56.60999599999943
 10
80.48548799999962
 20
-56.48756799999943
 10
80.48878999999961
 20
-56.36513999999943
 10
80.4920919999996
 20
-56.24271199999943
  0
LWPOLYLINE
  5
34
330
17
100
AcDbEntity
  8
0
100
AcDbPolyline
 90
481
 70
0
 10
131.0220899999996
 20
-54.99049199999943
 10
130.7645339999996
 20
-54.99049199999943
 10
130.5069779999996
 20
-54.99049199999943
 10
130.2494219999996
 20
-54.99049199999943
 10
129.9918659999996
 20
-54.99049199999943
 10
129.7343099999996
 20
-54.99049199999943
 10
129.4767539999996
 20
-54.99049199999943
 10
129.21919799999958
 20
-54.99049199999943
 10
128.96164199999959
 20
-54.99049199999943
 10
128.7040859999996
 20
-54.99049199999943
 10
128.44652999999957
 20
-54.99049199999943
 10
128.18897399999958
 20
-54.99049199999943
 10
127.93141799999958
 20
-54.99049199999943
 10
127.67386199999957
 20
-54.99049199999943
 10
127.41630599999957
 20
-54.99049199999943
 10
127.15874999999957
 20
-54.99049199999943
 10
126.90119399999956
 20
-54.99049199999943
 10
126.64363799999957
 20
-54.99049199999943
 10
126.38608199999956
 20
-54.99049199999943
 10
126.12852599999955
 20
-54.99049199999943
 10
125.87096999999956
 20
-54.99049199999943
 10
125.61341399999955
 20
-54.99049199999943
 10
125.35585799999956
 20
-54.99049199999943
 10
125.09830199999955
 20
-54.99049199999943
 10
124.84074599999954
 20
-54.99049199999943
 10
124.58318999999955
 20
-54.99049199999943
 10
124.32563399999954
 20
-54.99049199999943
 10
124.06807799999955
 20
-54.99049199999943
 10
123.81052199999954
 20
-54.99049199999943
 10
123.55296599999953
 20
-54.99049199999943
 10
123.29540999999953
 20
-54.99049199999943
 10
123.03785399999953
 20
-54.99049199999943
 10
122.78029799999952
 20
-54.99049199999943
 10
122.77572599999954
 20
-55.01563799999943
 10
122.76937599999954
 20
-55.040021999999425
 10
122.76124799999954
 20
-55.06338999999943
 10
122.75134199999954
 20
-55.085995999999426
 10
122.73991199999953
 20
-55.10758599999943
 10
122.72695799999954
 20
-55.12841399999943
 10
122.71273399999954
 20
-55.14822599999943
 10
122.69698599999954
 20
-55.167275999999426
 10
122.67996799999955
 20
-55.18556399999943
 10
122.66167999999955
 20
-55.20283599999943
 10
122.64237599999954
 20
-55.21934599999943
 10
122.62205599999955
 20
-55.23483999999943
 10
122.60071999999954
 20
-55.24957199999943
 10
122.57836799999954
 20
-55.26354199999943
 10
122.55525399999954
 20
-55.276495999999426
 10
122.53137799999953
 20
-55.28868799999943
 10
122.50673999999954
 20
-55.30011799999943
 10
122.48159399999955
 20
-55.31053199999943
 10
122.45568599999955
 20
-55.32018399999943
 10
122.42952399999955
 20
-55.32907399999943
 10
122.40285399999954
 20
-55.33694799999943
 10
122.37592999999954
 20
-55.34405999999943
 10
122.34875199999954
 20
-55.35040999999943
 10
122.32131999999953
 20
-55.355743999999426
 10
122.29388799999954
 20
-55.36031599999942
 10
122.26645599999954
 20
-55.36412599999942
 10
122.23902399999953
 20
-55.36717399999942
 10
122.21159199999953
 20
-55.36920599999942
 10
122.18441399999952
 20
-55.37047599999942
 10
122.15748999999953
 20
-55.370983999999424
 10
122.13107399999953
 20
-55.370729999999426
 10
122.10491199999953
 20
-55.369713999999426
 10
122.03887199999953
 20
-55.367935999999425
 10
121.97283199999953
 20
-55.36615799999942
 10
121.90679199999954
 20
-55.36437999999942
 10
121.84075199999954
 20
-55.36260199999942
 10
121.77471199999954
 20
-55.36082399999942
 10
121.70867199999954
 20
-55.35904599999942
 10
121.64263199999954
 20
-55.357267999999415
 10
121.57659199999955
 20
-55.35548999999941
 10
121.51055199999955
 20
-55.35371199999941
 10
121.44451199999955
 20
-55.35193399999942
 10
121.37847199999955
 20
-55.350155999999416
 10
121.31243199999956
 20
-55.348377999999414
 10
121.24639199999956
 20
-55.34659999999941
 10
121.18035199999956
 20
-55.34482199999941
 10
121.11431199999956
 20
-55.34304399999941
 10
121.04827199999957
 20
-55.34126599999941
 10
120.98223199999957
 20
-55.339487999999406
 10
120.91619199999957
 20
-55.337709999999404
 10
120.85015199999957
 20
-55.3359319999994
 10
120.78411199999957
 20
-55.3341539999994
 10
120.71807199999958
 20
-55.3323759999994
 10
120.65203199999958
 20
-55.3305979999994
 10
120.58599199999958
 20
-55.328819999999396
 10
120.51995199999958
 20
-55.327041999999395
 10
120.45391199999959
 20
-55.32526399999939
 10
120.38787199999959
 20
-55.32348599999939
 10
120.32183199999959
 20
-55.32170799999939
 10
120.25579199999959
 20
-55.31992999999939
 10
120.1897519999996
 20
-55.31815199999939
 10
120.1237119999996
 20
-55.31637399999939
 10
120.0576719999996
 20
-55.31459599999939
 10
119.9916319999996
 20
-55.31281799999939
 10
119.99747399999961
 20
-55.355489999999385
 10
120.00331599999961
 20
-55.39816199999939
 10
120.00915799999962
 20
-55.44083399999939
 10
120.01499999999963
 20
-55.483505999999394
 10
120.02084199999963
 20
-55.5261779999994
 10
120.02668399999963
 20
-55.568849999999394
 10
120.03252599999965
 20
-55.6115219999994
 10
120.03836799999965
 20
-55.6541939999994
 10
120.04420999999965
 20
-55.6968659999994
 10
120.05005199999967
 20
-55.7395379999994
 10
120.05589399999967
 20
-55.7822099999994
 10
120.06173599999967
 20
-55.824881999999405
 10
120.06757799999968
 20
-55.86755399999941
 10
120.07341999999969
 20
-55.91022599999941
 10
120.0792619999997
 20
-55.95289799999941
 10
120.0851039999997
 20
-55.99556999999941
 10
120.0909459999997
 20
-56.038241999999414
 10
120.09678799999972
 20
-56.08091399999942
 10
120.10262999999972
 20
-56.12358599999941
 10
120.10847199999972
 20
-56.16625799999942
 10
120.11431399999974
 20
-56.20892999999942
 10
120.12015599999974
 20
-56.25160199999942
 10
120.12599799999974
 20
-56.294273999999426
 10
120.13183999999976
 20
-56.33694599999942
 10
120.13768199999976
 20
-56.379617999999425
 10
120.14352399999976
 20
-56.42228999999943
 10
120.14936599999977
 20
-56.46496199999943
 10
120.15520799999977
 20
-56.507633999999435
 10
120.16104999999978
 20
-56.55030599999943
 10
120.16689199999979
 20
-56.592977999999434
 10
120.17273399999979
 20
-56.63564999999944
 10
120.17857599999981
 20
-56.67832199999944
 10
120.1823859999998
 20
-56.705245999999434
 10
120.1861959999998
 20
-56.732169999999435
 10
120.1902599999998
 20
-56.759093999999436
 10
120.1945779999998
 20
-56.78601799999943
 10
120.19889599999979
 20
-56.81294199999943
 10
120.20346799999979
 20
-56.83986599999943
 10
120.2082939999998
 20
-56.866789999999426
 10
120.21311999999979
 20
-56.89371399999943
 10
120.21819999999978
 20
-56.92063799999943
 10
120.22353399999979
 20
-56.94756199999942
 10
120.22912199999979
 20
-56.97423199999942
 10
120.23496399999979
 20
-57.00090199999942
 10
120.24105999999979
 20
-57.02757199999942
 10
120.24740999999979
 20
-57.05424199999941
 10
120.2540139999998
 20
-57.08065799999942
 10
120.2608719999998
 20
-57.10707399999942
 10
120.2679839999998
 20
-57.13323599999942
 10
120.27560399999979
 20
-57.15939799999943
 10
120.28347799999979
 20
-57.18555999999943
 10
120.29160599999979
 20
-57.21146799999943
 10
120.30024199999978
 20
-57.23737599999943
 10
120.30913199999979
 20
-57.26302999999943
 10
120.31852999999978
 20
-57.28842999999943
 10
120.32818199999979
 20
-57.31382999999943
 10
120.3383419999998
 20
-57.33897599999942
 10
120.3487559999998
 20
-57.36386799999943
 10
120.35967799999979
 20
-57.38875999999943
 10
120.3711079999998
 20
-57.41339799999943
 10
120.3827919999998
 20
-57.43778199999943
 10
120.3949839999998
 20
-57.46191199999943
 10
120.4076839999998
 20
-57.48604199999943
 10
120.4208919999998
 20
-57.50991799999943
 10
120.48845599999981
 20
-57.63285399999943
 10
120.5539879999998
 20
-57.75858399999944
 10
120.61723399999981
 20
-57.88685399999943
 10
120.6784479999998
 20
-58.01766399999943
 10
120.73737599999981
 20
-58.15050599999943
 10
120.79427199999981
 20
-58.28537999999943
 10
120.84913599999982
 20
-58.42203199999943
 10
120.90171399999981
 20
-58.560207999999434
 10
120.95225999999981
 20
-58.69990799999944
 10
121.00077399999981
 20
-58.84062399999944
 10
121.0472559999998
 20
-58.982355999999434
 10
121.0917059999998
 20
-59.12484999999944
 10
121.1341239999998
 20
-59.268105999999435
 10
121.17476399999981
 20
-59.411615999999434
 10
121.21337199999981
 20
-59.55537999999944
 10
121.2499479999998
 20
-59.69888999999944
 10
121.2847459999998
 20
-59.84214599999944
 10
121.31751199999981
 20
-59.985147999999434
 10
121.34849999999982
 20
-60.127387999999435
 10
121.37745599999981
 20
-60.268611999999436
 10
121.40463399999982
 20
-60.40881999999943
 10
121.43003399999982
 20
-60.54775799999943
 10
121.45340199999981
 20
-60.68517199999943
 10
121.47499199999982
 20
-60.82106199999943
 10
121.4948039999998
 20
-60.954919999999426
 10
121.51283799999982
 20
-61.08674599999943
 10
121.52909399999982
 20
-61.21628599999943
 10
121.54382599999981
 20
-61.34328599999942
 10
121.55677999999982
 20
-61.46749199999943
 10
121.56795599999981
 20
-61.58890399999943
 10
121.5773539999998
 20
-61.70726799999943
 10
121.5852279999998
 20
-61.822075999999434
 10
121.58929199999982
 20
-61.88176599999944
 10
121.59437199999981
 20
-61.943487999999434
 10
121.60072199999979
 20
-62.00698799999943
 10
121.6078339999998
 20
-62.07201199999943
 10
121.6159619999998
 20
-62.13855999999944
 10
121.6251059999998
 20
-62.20663199999944
 10
121.6352659999998
 20
-62.27571999999943
 10
121.64618799999981
 20
-62.34607799999943
 10
121.65812599999981
 20
-62.41745199999943
 10
121.67082599999982
 20
-62.48958799999943
 10
121.68428799999981
 20
-62.562231999999426
 10
121.69876599999982
 20
-62.63538399999943
 10
121.71400599999981
 20
-62.70904399999943
 10
121.73000799999981
 20
-62.782957999999425
 10
121.74677199999981
 20
-62.85687199999943
 10
121.7640439999998
 20
-62.93078599999943
 10
121.78207799999981
 20
-63.004445999999426
 10
121.80087399999981
 20
-63.077851999999424
 10
121.82017799999983
 20
-63.15074999999943
 10
121.84024399999983
 20
-63.223139999999425
 10
121.86081799999982
 20
-63.29476799999942
 10
121.88189999999983
 20
-63.365379999999426
 10
121.90348999999983
 20
-63.43497599999942
 10
121.92558799999982
 20
-63.50355599999943
 10
121.94819399999983
 20
-63.57086599999942
 10
121.97130799999982
 20
-63.63665199999942
 10
121.99492999999983
 20
-63.700913999999415
 10
122.01905999999984
 20
-63.76339799999942
 10
122.04344399999984
 20
-63.82384999999942
 10
122.06833599999985
 20
-63.882269999999416
 10
122.09348199999984
 20
-63.938657999999414
 10
122.11913599999984
 20
-63.992759999999414
 10
122.19838399999985
 20
-64.16039999999941
 10
122.27356799999984
 20
-64.32905599999941
 10
122.34494199999985
 20
-64.4982199999994
 10
122.41275999999984
 20
-64.66763799999941
 10
122.47702199999983
 20
-64.83680199999941
 10
122.53772799999983
 20
-65.00545799999941
 10
122.59487799999984
 20
-65.17284399999942
 10
122.64872599999984
 20
-65.33895999999942
 10
122.69927199999984
 20
-65.50304399999942
 10
122.74676999999984
 20
-65.66484199999941
 10
122.79121999999984
 20
-65.8238459999994
 10
122.83262199999984
 20
-65.97980199999941
 10
122.87097599999986
 20
-66.13220199999941
 10
122.90653599999985
 20
-66.28053799999941
 10
122.93955599999984
 20
-66.42455599999941
 10
122.96978199999985
 20
-66.5637479999994
 10
122.99746799999984
 20
-66.69785999999942
 10
123.02286799999986
 20
-66.82612999999941
 10
123.04572799999984
 20
-66.94855799999942
 10
123.06655599999985
 20
-67.06438199999943
 10
123.08509799999985
 20
-67.17334799999942
 10
123.10160799999984
 20
-67.27494799999941
 10
123.11608599999984
 20
-67.36892799999941
 10
123.12853199999984
 20
-67.45477999999942
 10
123.13919999999983
 20
-67.53199599999941
 10
123.14808999999984
 20
-67.60032199999942
 10
123.15545599999983
 20
-67.65924999999942
 10
123.16129799999985
 20
-67.70852599999942
 10
123.16561599999984
 20
-67.74738799999943
 10
123.16866399999984
 20
-67.77583599999944
 10
123.17044199999984
 20
-67.79310799999944
 10
123.17094999999985
 20
-67.79894999999944
 10
123.26315199999985
 20
-67.79894999999944
 10
123.35535399999985
 20
-67.79894999999944
 10
123.44755599999985
 20
-67.79894999999944
 10
123.53975799999985
 20
-67.79894999999944
 10
123.63195999999985
 20
-67.79894999999944
 10
123.72416199999985
 20
-67.79894999999944
 10
123.81636399999985
 20
-67.79894999999944
 10
123.90856599999985
 20
-67.79894999999944
 10
124.00076799999985
 20
-67.79894999999944
 10
124.09296999999984
 20
-67.79894999999944
 10
124.18517199999984
 20
-67.79894999999944
 10
124.27737399999984
 20
-67.79894999999944
 10
124.36957599999984
 20
-67.79894999999944
 10
124.46177799999984
 20
-67.79894999999944
 10
124.55397999999984
 20
-67.79894999999944
 10
124.64618199999984
 20
-67.79894999999944
 10
124.73838399999984
 20
-67.79894999999944
 10
124.83058599999984
 20
-67.79894999999944
 10
124.92278799999984
 20
-67.79894999999944
 10
125.01498999999984
 20
-67.79894999999944
 10
125.10719199999984
 20
-67.79894999999944
 10
125.19939399999984
 20
-67.79894999999944
 10
125.29159599999984
 20
-67.79894999999944
 10
125.38379799999984
 20
-67.79894999999944
 10
125.47599999999984
 20
-67.79894999999944
 10
125.56820199999984
 20
-67.79894999999944
 10
125.66040399999984
 20
-67.79894999999944
 10
125.75260599999984
 20
-67.79894999999944
 10
125.84480799999984
 20
-67.79894999999944
 10
125.93700999999984
 20
-67.79894999999944
 10
126.02921199999984
 20
-67.79894999999944
 10
126.12141399999985
 20
-67.79894999999944
 10
126.13309799999983
 20
-67.79539399999943
 10
126.14478199999984
 20
-67.79183799999943
 10
126.15646599999984
 20
-67.78828199999943
 10
126.16814999999984
 20
-67.78472599999942
 10
126.17983399999983
 20
-67.78116999999943
 10
126.19151799999983
 20
-67.77761399999943
 10
126.20320199999983
 20
-67.77405799999943
 10
126.21488599999982
 20
-67.77050199999942
 10
126.22656999999982
 20
-67.76694599999942
 10
126.23825399999983
 20
-67.76338999999942
 10
126.24993799999982
 20
-67.75983399999942
 10
126.26162199999982
 20
-67.75627799999941
 10
126.27330599999982
 20
-67.75272199999941
 10
126.28498999999981
 20
-67.7491659999994
 10
126.29667399999981
 20
-67.7456099999994
 10
126.30835799999981
 20
-67.7420539999994
 10
126.3200419999998
 20
-67.7384979999994
 10
126.3317259999998
 20
-67.73494199999939
 10
126.3434099999998
 20
-67.73138599999939
 10
126.35509399999981
 20
-67.72782999999939
 10
126.3667779999998
 20
-67.72427399999938
 10
126.3784619999998
 20
-67.72071799999938
 10
126.3901459999998
 20
-67.71716199999938
 10
126.40182999999979
 20
-67.71360599999937
 10
126.4135139999998
 20
-67.71004999999937
 10
126.4251979999998
 20
-67.70649399999938
 10
126.43688199999978
 20
-67.70293799999938
 10
126.44856599999979
 20
-67.69938199999937
 10
126.46024999999979
 20
-67.69582599999937
 10
126.47193399999978
 20
-67.69226999999937
 10
126.48361799999978
 20
-67.68871399999937
 10
126.49530199999978
 20
-67.68515799999936
 10
126.55473799999977
 20
-67.60641799999937
 10
126.61747599999978
 20
-67.53148799999936
 10
126.68326199999979
 20
-67.46062199999936
 10
126.75184199999978
 20
-67.39381999999937
 10
126.82321599999977
 20
-67.33108199999936
 10
126.89712999999978
 20
-67.27240799999936
 10
126.97358399999978
 20
-67.21779799999936
 10
127.05232399999977
 20
-67.16725199999937
 10
127.13309599999977
 20
-67.12076999999937
 10
127.21564599999977
 20
-67.07860599999937
 10
127.29997399999976
 20
-67.04050599999937
 10
127.38582599999977
 20
-67.00672399999938
 10
127.47320199999977
 20
-66.97700599999938
 10
127.56159399999977
 20
-66.95160599999936
 10
127.65100199999976
 20
-66.93052399999935
 10
127.74142599999976
 20
-66.91375999999937
 10
127.83261199999976
 20
-66.90156799999936
 10
127.92430599999976
 20
-66.89369399999936
 10
128.01625399999978
 20
-66.89013799999935
 10
128.10845599999976
 20
-66.89115399999936
 10
128.20065799999978
 20
-66.89648799999937
 10
128.29260599999978
 20
-66.90639399999937
 10
128.38429999999977
 20
-66.92087199999936
 10
128.47548599999976
 20
-66.93992199999937
 10
128.56590999999977
 20
-66.96354399999937
 10
128.65557199999975
 20
-66.99173799999937
 10
128.74421799999976
 20
-67.02450399999937
 10
128.83159399999977
 20
-67.06209599999939
 10
128.91769999999977
 20
-67.10425999999939
 10
129.00228199999975
 20
-67.15124999999938
 10
129.08508599999976
 20
-67.20281199999937
 10
129.16611199999977
 20
-67.25919999999937
 10
129.20573599999977
 20
-67.27621799999937
 10
129.24535999999978
 20
-67.29323599999937
 10
129.28498399999978
 20
-67.31025399999938
 10
129.32460799999978
 20
-67.32727199999938
 10
129.3642319999998
 20
-67.34428999999938
 10
129.4038559999998
 20
-67.36130799999938
 10
129.4434799999998
 20
-67.37832599999938
 10
129.4831039999998
 20
-67.39534399999938
 10
129.5227279999998
 20
-67.41236199999939
 10
129.56235199999978
 20
-67.42937999999938
 10
129.60197599999978
 20
-67.44639799999939
 10
129.64159999999978
 20
-67.46341599999938
 10
129.6812239999998
 20
-67.48043399999939
 10
129.7208479999998
 20
-67.4974519999994
 10
129.7604719999998
 20
-67.51446999999939
 10
129.8000959999998
 20
-67.5314879999994
 10
129.8397199999998
 20
-67.5485059999994
 10
129.8793439999998
 20
-67.5655239999994
 10
129.9189679999998
 20
-67.5825419999994
 10
129.9585919999998
 20
-67.5995599999994
 10
129.99821599999981
 20
-67.61657799999941
 10
130.03783999999982
 20
-67.63359599999941
 10
130.0774639999998
 20
-67.65061399999941
 10
130.1170879999998
 20
-67.66763199999941
 10
130.15671199999977
 20
-67.68464999999941
 10
130.19633599999975
 20
-67.70166799999942
 10
130.23595999999975
 20
-67.71868599999942
 10
130.27558399999972
 20
-67.73570399999942
 10
130.31520799999973
 20
-67.75272199999942
 10
130.3548319999997
 20
-67.76973999999943
 10
130.39445599999968
 20
-67.78675799999942
 10
130.43407999999968
 20
-67.80377599999943
 10
130.5727639999997
 20
-67.80377599999943
 10
130.7114479999997
 20
-67.80377599999943
 10
130.85013199999972
 20
-67.80377599999943
 10
130.98881599999973
 20
-67.80377599999943
 10
131.12749999999974
 20
-67.80377599999943
 10
131.26618399999975
 20
-67.80377599999943
 10
131.40486799999977
 20
-67.80377599999943
 10
131.54355199999978
 20
-67.80377599999943
 10
131.6822359999998
 20
-67.80377599999943
 10
131.8209199999998
 20
-67.80377599999943
 10
131.9596039999998
 20
-67.80377599999943
 10
132.09828799999983
 20
-67.80377599999943
 10
132.23697199999984
 20
-67.80377599999943
 10
132.37565599999985
 20
-67.80377599999943
 10
132.51433999999986
 20
-67.80377599999943
 10
132.65302399999987
 20
-67.80377599999943
 10
132.7917079999999
 20
-67.80377599999943
 10
132.9303919999999
 20
-67.80377599999943
 10
133.0690759999999
 20
-67.80377599999943
 10
133.20775999999992
 20
-67.80377599999943
 10
133.34644399999993
 20
-67.80377599999943
 10
133.48512799999995
 20
-67.80377599999943
 10
133.62381199999996
 20
-67.80377599999943
 10
133.76249599999997
 20
-67.80377599999943
 10
133.90117999999998
 20
-67.80377599999943
 10
134.039864
 20
-67.80377599999943
 10
134.178548
 20
-67.80377599999943
 10
134.31723200000002
 20
-67.80377599999943
 10
134.45591600000003
 20
-67.80377599999943
 10
134.59460000000004
 20
-67.80377599999943
 10
134.73328400000005
 20
-67.80377599999943
 10
134.87196800000007
 20
-67.80377599999943
 10
134.88212800000008
 20
-67.25691399999943
 10
134.87755600000006
 20
-66.71589399999942
 10
134.85876000000007
 20
-66.18122399999942
 10
134.82675600000007
 20
-65.65341199999942
 10
134.7823060000001
 20
-65.13271199999943
 10
134.72617200000008
 20
-64.61988599999943
 10
134.6591160000001
 20
-64.11518799999942
 10
134.5819000000001
 20
-63.61912599999942
 10
134.4955400000001
 20
-63.13195399999942
 10
134.40054400000008
 20
-62.65443399999942
 10
134.29792800000007
 20
-62.18681999999942
 10
134.18845400000006
 20
-61.729619999999414
 10
134.07288400000007
 20
-61.28308799999942
 10
133.95198000000005
 20
-60.847985999999416
 10
133.82650400000006
 20
-60.42456799999942
 10
133.69747200000003
 20
-60.01334199999941
 10
133.56539200000006
 20
-59.614815999999415
 10
133.43128000000004
 20
-59.22924399999942
 10
133.29589800000005
 20
-58.85713399999942
 10
133.16000800000006
 20
-58.49899399999942
 10
133.02437200000006
 20
-58.15533199999942
 10
132.88975200000004
 20
-57.82665599999941
 10
132.75691000000006
 20
-57.51321999999941
 10
132.62686200000007
 20
-57.21553199999941
 10
132.50037000000006
 20
-56.93409999999941
 10
132.37794200000005
 20
-56.669177999999405
 10
132.26059400000005
 20
-56.42152799999941
 10
132.14908800000006
 20
-56.19140399999941
 10
132.04444000000007
 20
-55.979313999999405
 10
131.94715800000006
 20
-55.78551199999941
 10
131.85800400000005
 20
-55.61075999999941
 10
131.77799400000004
 20
-55.45531199999941
 10
131.76402400000006
 20
-55.42914999999941
 10
131.74903800000007
 20
-55.403749999999405
 10
131.73329000000007
 20
-55.378857999999404
 10
131.71678000000006
 20
-55.354727999999405
 10
131.69950800000004
 20
-55.33110599999941
 10
131.68147400000004
 20
-55.30824599999941
 10
131.66267800000006
 20
-55.28614799999941
 10
131.64337400000005
 20
-55.26481199999941
 10
131.62330800000007
 20
-55.24423799999941
 10
131.60248000000007
 20
-55.22442599999941
 10
131.58114400000008
 20
-55.20537599999941
 10
131.55930000000006
 20
-55.18708799999941
 10
131.53669400000007
 20
-55.16956199999942
 10
131.51358000000005
 20
-55.152797999999414
 10
131.48995800000006
 20
-55.13679599999942
 10
131.46582800000004
 20
-55.121555999999416
 10
131.44119000000006
 20
-55.10707799999942
 10
131.41604400000006
 20
-55.09361599999942
 10
131.39039000000005
 20
-55.08091599999942
 10
131.36422800000005
 20
-55.06897799999942
 10
131.33781200000004
 20
-55.05805599999942
 10
131.31088800000006
 20
-55.04789599999942
 10
131.28371000000007
 20
-55.03875199999942
 10
131.25602400000005
 20
-55.03036999999942
 10
131.22808400000005
 20
-55.023003999999425
 10
131.19989000000004
 20
-55.01665399999942
 10
131.17144200000007
 20
-55.01131999999943
 10
131.14274000000003
 20
-55.006747999999426
 10
131.11378400000004
 20
-55.00319199999942
 10
131.08457400000003
 20
-55.00065199999943
 10
131.05511000000004
 20
-54.99912799999942
 10
131.02539200000004
 20
-54.99861999999943
  0
LWPOLYLINE
  5
35
330
17
100
AcDbEntity
  8
0
100
AcDbPolyline
 90
609
 70
0
 10
138.70686000000003
 20
-75.73390999999943
 10
138.70152600000006
 20
-75.71282799999942
 10
138.69568400000006
 20
-75.69174599999941
 10
138.68933400000006
 20
-75.67091799999942
 10
138.68273000000005
 20
-75.65008999999942
 10
138.67561800000004
 20
-75.62951599999941
 10
138.66799800000007
 20
-75.60894199999942
 10
138.66012400000008
 20
-75.58862199999942
 10
138.65174200000007
 20
-75.56855599999942
 10
138.6428520000001
 20
-75.5484899999994
 10
138.6337080000001
 20
-75.52867799999942
 10
138.62405600000008
 20
-75.50911999999941
 10
138.61415000000008
 20
-75.48981599999941
 10
138.60373600000008
 20
-75.47076599999941
 10
138.5928140000001
 20
-75.45171599999942
 10
138.58163800000008
 20
-75.43291999999941
 10
138.56995400000008
 20
-75.41437799999942
 10
138.55801600000007
 20
-75.39608999999942
 10
138.54557000000008
 20
-75.37805599999942
 10
138.5328700000001
 20
-75.36027599999942
 10
138.51966200000007
 20
-75.34300399999941
 10
138.50620000000006
 20
-75.32598599999942
 10
138.4922300000001
 20
-75.30922199999942
 10
138.47800600000008
 20
-75.29271199999943
 10
138.46327400000007
 20
-75.27645599999941
 10
138.44828800000008
 20
-75.26070799999941
 10
138.4327940000001
 20
-75.24521399999942
 10
138.41704600000008
 20
-75.22997399999942
 10
138.4007900000001
 20
-75.21524199999942
 10
138.38428000000008
 20
-75.20076399999942
 10
138.36751600000005
 20
-75.18679399999941
 10
138.35024400000006
 20
-75.17307799999942
 10
138.33271800000009
 20
-75.15986999999942
 10
138.31366800000006
 20
-75.14615399999943
 10
138.29436400000006
 20
-75.13294599999942
 10
138.27480600000007
 20
-75.11999199999943
 10
138.25499400000007
 20
-75.10754599999943
 10
138.23492800000008
 20
-75.09560799999942
 10
138.21460800000008
 20
-75.08392399999943
 10
138.19403400000007
 20
-75.07274799999942
 10
138.17320600000008
 20
-75.06182599999943
 10
138.15212400000007
 20
-75.05141199999943
 10
138.1310420000001
 20
-75.04125199999942
 10
138.1097060000001
 20
-75.03134599999943
 10
138.0881160000001
 20
-75.02169399999941
 10
138.06652600000007
 20
-75.01254999999942
 10
138.04468200000008
 20
-75.00365999999941
 10
138.02283800000006
 20
-74.99502399999942
 10
138.00074000000006
 20
-74.9866419999994
 10
137.97864200000006
 20
-74.97851399999942
 10
137.95629000000008
 20
-74.97063999999942
 10
137.9339380000001
 20
-74.96276599999942
 10
137.91133200000007
 20
-74.95514599999942
 10
137.88872600000008
 20
-74.94777999999943
 10
137.86612000000005
 20
-74.94066799999942
 10
137.84351400000003
 20
-74.93355599999941
 10
137.82065400000002
 20
-74.92669799999942
 10
137.797794
 20
-74.91983999999943
 10
137.774934
 20
-74.91323599999942
 10
137.752074
 20
-74.90663199999942
 10
137.72921399999998
 20
-74.90028199999942
 10
137.70635399999998
 20
-74.89393199999942
 10
137.683494
 20
-74.88758199999943
 10
137.660634
 20
-74.88123199999944
 10
137.63777399999998
 20
-74.87488199999945
 10
137.50137599999996
 20
-74.83754399999944
 10
137.36497799999995
 20
-74.80020599999945
 10
137.22857999999994
 20
-74.76286799999944
 10
137.09218199999992
 20
-74.72552999999945
 10
136.9557839999999
 20
-74.68819199999945
 10
136.81938599999992
 20
-74.65085399999946
 10
136.6829879999999
 20
-74.61351599999946
 10
136.5465899999999
 20
-74.57617799999946
 10
136.41019199999988
 20
-74.53883999999947
 10
136.27379399999987
 20
-74.50150199999946
 10
136.13739599999988
 20
-74.46416399999947
 10
136.00099799999987
 20
-74.42682599999947
 10
135.86459999999985
 20
-74.38948799999947
 10
135.72820199999984
 20
-74.35214999999947
 10
135.59180399999983
 20
-74.31481199999948
 10
135.4554059999998
 20
-74.27747399999947
 10
135.31900799999983
 20
-74.24013599999948
 10
135.1826099999998
 20
-74.20279799999948
 10
135.0462119999998
 20
-74.16545999999948
 10
134.90981399999978
 20
-74.12812199999948
 10
134.77341599999977
 20
-74.09078399999949
 10
134.63701799999978
 20
-74.0534459999995
 10
134.50061999999977
 20
-74.01610799999949
 10
134.36422199999976
 20
-73.9787699999995
 10
134.22782399999974
 20
-73.9414319999995
 10
134.09142599999973
 20
-73.9040939999995
 10
133.95502799999974
 20
-73.8667559999995
 10
133.81862999999973
 20
-73.8294179999995
 10
133.68223199999971
 20
-73.7920799999995
 10
133.5458339999997
 20
-73.75474199999951
 10
133.4094359999997
 20
-73.7174039999995
 10
133.27303799999967
 20
-73.68006599999951
 10
133.2791339999997
 20
-73.71486399999951
 10
133.2867539999997
 20
-73.74940799999952
 10
133.29589799999965
 20
-73.78344399999952
 10
133.30631199999968
 20
-73.81722599999952
 10
133.31799599999968
 20
-73.85100799999951
 10
133.33069599999968
 20
-73.88453599999951
 10
133.34441199999966
 20
-73.9178099999995
 10
133.3588899999997
 20
-73.9508299999995
 10
133.37412999999967
 20
-73.9838499999995
 10
133.38987799999967
 20
-74.01661599999952
 10
133.40613399999967
 20
-74.04938199999951
 10
133.42264399999968
 20
-74.08189399999951
 10
133.4391539999997
 20
-74.1144059999995
 10
133.4556639999997
 20
-74.1469179999995
 10
133.4721739999997
 20
-74.1791759999995
 10
133.4884299999997
 20
-74.21143399999951
 10
133.5044319999997
 20
-74.24369199999951
 10
133.5199259999997
 20
-74.27594999999951
 10
133.5346579999997
 20
-74.30820799999951
 10
133.5486279999997
 20
-74.34071999999951
 10
133.5618359999997
 20
-74.3732319999995
 10
133.5740279999997
 20
-74.4057439999995
 10
133.5849499999997
 20
-74.43850999999951
 10
133.5946019999997
 20
-74.47127599999952
 10
133.6029839999997
 20
-74.50429599999951
 10
133.60984199999973
 20
-74.5373159999995
 10
133.61492199999972
 20
-74.5705899999995
 10
133.6182239999997
 20
-74.6041179999995
 10
133.61949399999972
 20
-74.6378999999995
 10
133.6187319999997
 20
-74.6719359999995
 10
133.61593799999972
 20
-74.7062259999995
 10
133.61085799999972
 20
-74.74076999999951
 10
133.6083179999997
 20
-74.7532159999995
 10
133.60552399999975
 20
-74.7656619999995
 10
133.60247599999974
 20
-74.7778539999995
 10
133.59917399999975
 20
-74.79004599999949
 10
133.59561799999975
 20
-74.8022379999995
 10
133.59180799999973
 20
-74.8141759999995
 10
133.58774399999976
 20
-74.8261139999995
 10
133.58342599999975
 20
-74.83805199999952
 10
133.57885399999972
 20
-74.84998999999952
 10
133.57402799999974
 20
-74.86167399999952
 10
133.56894799999972
 20
-74.87335799999953
 10
133.56361399999975
 20
-74.88504199999952
 10
133.55827999999974
 20
-74.89647199999952
 10
133.55269199999975
 20
-74.90790199999952
 10
133.54684999999972
 20
-74.91933199999953
 10
133.54100799999972
 20
-74.93076199999953
 10
133.53491199999974
 20
-74.94193799999952
 10
133.52856199999974
 20
-74.95311399999953
 10
133.52221199999974
 20
-74.96428999999952
 10
133.51560799999976
 20
-74.97546599999951
 10
133.50900399999978
 20
-74.98664199999952
 10
133.50239999999977
 20
-74.99756399999951
 10
133.49554199999977
 20
-75.00848599999952
 10
133.48868399999975
 20
-75.01940799999952
 10
133.48182599999976
 20
-75.03032999999952
 10
133.47471399999975
 20
-75.04125199999952
 10
133.46760199999974
 20
-75.05217399999952
 10
133.46048999999974
 20
-75.06284199999952
 10
133.45337799999973
 20
-75.07350999999952
 10
133.44626599999972
 20
-75.0841779999995
 10
133.43915399999972
 20
-75.09484599999949
 10
133.4320419999997
 20
-75.10551399999949
 10
133.4007999999997
 20
-75.1522499999995
 10
133.36955799999967
 20
-75.19898599999951
 10
133.33831599999968
 20
-75.2457219999995
 10
133.30707399999966
 20
-75.29245799999951
 10
133.27583199999964
 20
-75.33919399999952
 10
133.24458999999965
 20
-75.38592999999953
 10
133.21334799999963
 20
-75.43266599999953
 10
133.1821059999996
 20
-75.47940199999954
 10
133.1508639999996
 20
-75.52613799999955
 10
133.1196219999996
 20
-75.57287399999956
 10
133.08837999999957
 20
-75.61960999999957
 10
133.05713799999955
 20
-75.66634599999956
 10
133.02589599999956
 20
-75.71308199999957
 10
132.99465399999954
 20
-75.75981799999958
 10
132.96341199999952
 20
-75.8065539999996
 10
132.9321699999995
 20
-75.85328999999959
 10
132.9009279999995
 20
-75.9000259999996
 10
132.8696859999995
 20
-75.94676199999961
 10
132.83844399999947
 20
-75.99349799999962
 10
132.80720199999948
 20
-76.04023399999961
 10
132.77595999999946
 20
-76.08696999999962
 10
132.74471799999944
 20
-76.13370599999963
 10
132.71347599999942
 20
-76.18044199999964
 10
132.68223399999943
 20
-76.22717799999965
 10
132.6509919999994
 20
-76.27391399999965
 10
132.61974999999939
 20
-76.32064999999966
 10
132.5885079999994
 20
-76.36738599999967
 10
132.55726599999937
 20
-76.41412199999968
 10
132.52602399999935
 20
-76.46085799999967
 10
132.49478199999936
 20
-76.50759399999968
 10
132.46353999999934
 20
-76.5543299999997
 10
132.43229799999932
 20
-76.6010659999997
 10
132.4132479999993
 20
-76.6292599999997
 10
132.3939439999993
 20
-76.65745399999969
 10
132.3743859999993
 20
-76.68564799999969
 10
132.3545739999993
 20
-76.71384199999969
 10
132.33450799999932
 20
-76.74203599999969
 10
132.31418799999932
 20
-76.77022999999969
 10
132.2936139999993
 20
-76.79816999999969
 10
132.27278599999931
 20
-76.82585599999969
 10
132.25144999999932
 20
-76.85328799999968
 10
132.22985999999932
 20
-76.88046599999969
 10
132.20776199999932
 20
-76.9073899999997
 10
132.18540999999934
 20
-76.93380599999969
 10
132.16254999999933
 20
-76.95971399999968
 10
132.1394359999993
 20
-76.98511399999968
 10
132.11581399999932
 20
-77.01000599999969
 10
132.09168399999933
 20
-77.03413599999969
 10
132.0672999999993
 20
-77.0577579999997
 10
132.04240799999934
 20
-77.08061799999969
 10
132.01700799999932
 20
-77.10271599999969
 10
131.99109999999934
 20
-77.1237979999997
 10
131.96468399999932
 20
-77.1441179999997
 10
131.93775999999932
 20
-77.1634219999997
 10
131.91007399999933
 20
-77.1817099999997
 10
131.8818799999993
 20
-77.1989819999997
 10
131.8531779999993
 20
-77.2152379999997
 10
131.8239679999993
 20
-77.23022399999971
 10
131.79399599999928
 20
-77.24419399999971
 10
131.76351599999927
 20
-77.25689399999972
 10
131.73227399999928
 20
-77.26832399999972
 10
131.70052399999926
 20
-77.27822999999971
 10
131.66801199999927
 20
-77.2868659999997
 10
131.63473799999926
 20
-77.29397799999971
 10
131.60146399999928
 20
-77.29956599999971
 10
131.5684439999993
 20
-77.30362999999971
 10
131.53542399999927
 20
-77.30616999999971
 10
131.50240399999927
 20
-77.30718599999972
 10
131.46963799999926
 20
-77.30693199999973
 10
131.43687199999928
 20
-77.30515399999973
 10
131.40435999999926
 20
-77.30210599999972
 10
131.37184799999926
 20
-77.29778799999973
 10
131.33933599999924
 20
-77.29245399999972
 10
131.30707799999925
 20
-77.28584999999973
 10
131.27481999999927
 20
-77.27822999999972
 10
131.24281599999927
 20
-77.26959399999973
 10
131.21081199999927
 20
-77.25994199999973
 10
131.17906199999928
 20
-77.24952799999973
 10
131.14731199999926
 20
-77.23809799999972
 10
131.11581599999926
 20
-77.22590599999972
 10
131.08431999999925
 20
-77.21295199999973
 10
131.05307799999926
 20
-77.19948999999973
 10
131.02183599999924
 20
-77.18526599999973
 10
130.99084799999926
 20
-77.17053399999973
 10
130.95985999999925
 20
-77.15529399999973
 10
130.92912599999926
 20
-77.13954599999973
 10
130.89864599999927
 20
-77.12328999999973
 10
130.86816599999926
 20
-77.10677999999973
 10
130.83793999999926
 20
-77.09001599999974
 10
130.80796799999925
 20
-77.07299799999973
 10
130.77799599999923
 20
-77.05572599999974
 10
130.74827799999923
 20
-77.03819999999973
 10
130.71881399999924
 20
-77.02067399999973
 10
130.68934999999925
 20
-77.00314799999973
 10
130.66013999999925
 20
-76.98562199999972
 10
130.63118399999922
 20
-76.96809599999972
 10
130.52602799999923
 20
-76.9058659999997
 10
130.4203639999992
 20
-76.84465199999971
 10
130.31393799999924
 20
-76.78470799999971
 10
130.20674999999923
 20
-76.72577999999972
 10
130.09905399999923
 20
-76.66812199999971
 10
129.99059599999921
 20
-76.61147999999972
 10
129.88162999999923
 20
-76.55610799999971
 10
129.77215599999923
 20
-76.50200599999971
 10
129.6619199999992
 20
-76.4489199999997
 10
129.55117599999923
 20
-76.3971039999997
 10
129.43992399999922
 20
-76.3465579999997
 10
129.32816399999925
 20
-76.2970279999997
 10
129.21564199999924
 20
-76.2487679999997
 10
129.10261199999925
 20
-76.2017779999997
 10
128.98907399999925
 20
-76.1560579999997
 10
128.87502799999925
 20
-76.11135399999971
 10
128.76047399999922
 20
-76.0679199999997
 10
128.64566599999924
 20
-76.0257559999997
 10
128.53034999999923
 20
-75.98486199999971
 10
128.41452599999923
 20
-75.9452379999997
 10
128.29819399999923
 20
-75.90688399999969
 10
128.18160799999922
 20
-75.8697999999997
 10
128.0645139999992
 20
-75.83398599999968
 10
127.94716599999921
 20
-75.79944199999969
 10
127.82930999999923
 20
-75.7661679999997
 10
127.71119999999922
 20
-75.7341639999997
 10
127.59258199999923
 20
-75.7034299999997
 10
127.47370999999923
 20
-75.67396599999971
 10
127.35458399999922
 20
-75.64577199999971
 10
127.23494999999923
 20
-75.61884799999972
 10
127.11506199999923
 20
-75.59319399999971
 10
126.99491999999923
 20
-75.56880999999971
 10
127.05156199999924
 20
-75.61935599999971
 10
127.10642599999923
 20
-75.67142599999971
 10
127.15976599999922
 20
-75.7247659999997
 10
127.21158199999923
 20
-75.7793759999997
 10
127.26187399999922
 20
-75.8352559999997
 10
127.31064199999922
 20
-75.89240599999971
 10
127.35813999999922
 20
-75.95057199999971
 10
127.40411399999923
 20
-76.0100079999997
 10
127.44881799999922
 20
-76.0704599999997
 10
127.49199799999923
 20
-76.1319279999997
 10
127.53390799999923
 20
-76.1944119999997
 10
127.57454799999924
 20
-76.25765799999971
 10
127.61391799999923
 20
-76.32191999999971
 10
127.65201799999923
 20
-76.3869439999997
 10
127.68910199999922
 20
-76.4527299999997
 10
127.72491599999923
 20
-76.5192779999997
 10
127.75971399999924
 20
-76.5865879999997
 10
127.79324199999924
 20
-76.6546599999997
 10
127.82575399999924
 20
-76.72323999999968
 10
127.85724999999924
 20
-76.79232799999969
 10
127.88772999999924
 20
-76.86192399999968
 10
127.91719399999923
 20
-76.93202799999969
 10
127.94564199999924
 20
-77.00263999999969
 10
127.97332799999924
 20
-77.07375999999968
 10
127.99999799999924
 20
-77.14513399999969
 10
128.02590599999922
 20
-77.21676199999968
 10
128.05105199999923
 20
-77.28864399999968
 10
128.07543599999923
 20
-77.36077999999968
 10
128.09905799999925
 20
-77.43291599999968
 10
128.12191799999923
 20
-77.50530599999969
 10
128.14401599999923
 20
-77.57769599999969
 10
128.16535199999922
 20
-77.6500859999997
 10
128.18236999999922
 20
-77.70901399999971
 10
128.19913399999922
 20
-77.7681959999997
 10
128.21564399999923
 20
-77.82737799999971
 10
128.23189999999923
 20
-77.8865599999997
 10
128.24790199999921
 20
-77.94599599999971
 10
128.26364999999922
 20
-78.0054319999997
 10
128.27914399999923
 20
-78.06486799999969
 10
128.29463799999922
 20
-78.12430399999968
 10
128.30987799999923
 20
-78.18373999999969
 10
128.3251179999992
 20
-78.24317599999968
 10
128.34010399999923
 20
-78.30261199999967
 10
128.35508999999922
 20
-78.36230199999967
 10
128.37007599999924
 20
-78.42199199999968
 10
128.38506199999924
 20
-78.48168199999968
 10
128.40004799999926
 20
-78.54111799999968
 10
128.41528799999926
 20
-78.60055399999968
 10
128.43052799999924
 20
-78.65998999999967
 10
128.44576799999925
 20
-78.71942599999967
 10
128.46126199999924
 20
-78.77886199999966
 10
128.47700999999924
 20
-78.83829799999965
 10
128.49275799999924
 20
-78.89773399999964
 10
128.50875999999926
 20
-78.95691599999965
 10
128.52501599999925
 20
-79.01609799999966
 10
128.54152599999927
 20
-79.07527999999965
 10
128.55854399999924
 20
-79.13420799999966
 10
128.57581599999926
 20
-79.19313599999967
 10
128.59334199999927
 20
-79.25206399999968
 10
128.61137599999927
 20
-79.31073799999967
 10
128.62966399999925
 20
-79.36941199999967
 10
128.64845999999926
 20
-79.42783199999968
 10
128.66776399999927
 20
-79.48625199999968
 10
128.68757599999927
 20
-79.54441799999968
 10
128.70738799999927
 20
-79.60055199999968
 10
128.72821599999926
 20
-79.65592399999969
 10
128.74980599999927
 20
-79.71053399999967
 10
128.77215799999925
 20
-79.76438199999967
 10
128.79552599999926
 20
-79.81772199999966
 10
128.81965599999927
 20
-79.87029999999966
 10
128.84454799999926
 20
-79.92236999999966
 10
128.87020199999927
 20
-79.97367799999967
 10
128.89661799999925
 20
-80.02447799999966
 10
128.92379599999927
 20
-80.07476999999966
 10
128.95173599999927
 20
-80.12455399999966
 10
128.98043799999928
 20
-80.17357599999966
 10
129.00990199999927
 20
-80.22208999999965
 10
129.04012799999927
 20
-80.27009599999965
 10
129.07111599999928
 20
-80.31784799999966
 10
129.10286599999927
 20
-80.36509199999965
 10
129.13537799999926
 20
-80.41182799999966
 10
129.16865199999927
 20
-80.45805599999966
 10
129.20243399999927
 20
-80.50402999999966
 10
129.23697799999928
 20
-80.54949599999965
 10
129.27228399999927
 20
-80.59470799999964
 10
129.3080979999993
 20
-80.63941199999964
 10
129.3446739999993
 20
-80.68386199999965
 10
129.38175799999928
 20
-80.72805799999963
 10
129.41960399999928
 20
-80.77199999999964
 10
129.45795799999928
 20
-80.81568799999965
 10
129.4970739999993
 20
-80.85912199999964
 10
129.5366979999993
 20
-80.90230199999965
 10
129.5768299999993
 20
-80.94522799999964
 10
129.6177239999993
 20
-80.98789999999964
 10
129.6591259999993
 20
-81.03031799999964
 10
129.7010359999993
 20
-81.07273599999964
 10
129.73303999999928
 20
-81.10448599999964
 10
129.7652979999993
 20
-81.13598199999964
 10
129.7978099999993
 20
-81.16722399999963
 10
129.8305759999993
 20
-81.19821199999964
 10
129.8635959999993
 20
-81.22894599999964
 10
129.8968699999993
 20
-81.25942599999964
 10
129.9303979999993
 20
-81.28939799999964
 10
129.9641799999993
 20
-81.31911599999964
 10
129.99821599999927
 20
-81.34857999999963
 10
130.03250599999927
 20
-81.37778999999964
 10
130.06704999999928
 20
-81.40674599999963
 10
130.10184799999928
 20
-81.43544799999964
 10
130.1368999999993
 20
-81.46389599999964
 10
130.17220599999928
 20
-81.49183599999964
 10
130.20776599999928
 20
-81.51952199999964
 10
130.24357999999927
 20
-81.54695399999963
 10
130.2796479999993
 20
-81.57413199999965
 10
130.31596999999928
 20
-81.60080199999965
 10
130.3525459999993
 20
-81.62721799999964
 10
130.3893759999993
 20
-81.65337999999964
 10
130.42645999999928
 20
-81.67928799999964
 10
130.4637979999993
 20
-81.70468799999965
 10
130.5013899999993
 20
-81.72983399999964
 10
130.5392359999993
 20
-81.75472599999965
 10
130.5773359999993
 20
-81.77936399999965
 10
130.61543599999928
 20
-81.80349399999965
 10
130.65378999999928
 20
-81.82736999999965
 10
130.6923979999993
 20
-81.85099199999965
 10
130.73125999999928
 20
-81.87410599999966
 10
130.7703759999993
 20
-81.89696599999965
 10
130.80974599999928
 20
-81.91957199999965
 10
130.84911599999927
 20
-81.94166999999965
 10
130.8943279999993
 20
-81.96630799999964
 10
130.94004799999928
 20
-81.99043799999964
 10
130.98627599999926
 20
-82.01405999999965
 10
131.03326599999926
 20
-82.03691999999964
 10
131.08076399999925
 20
-82.05927199999965
 10
131.12851599999925
 20
-82.08086199999964
 10
131.17677599999928
 20
-82.10143599999965
 10
131.22554399999927
 20
-82.12124799999964
 10
131.27456599999925
 20
-82.14004399999965
 10
131.32384199999925
 20
-82.15782399999965
 10
131.37362599999926
 20
-82.17458799999964
 10
131.42366399999926
 20
-82.19008199999963
 10
131.47370199999926
 20
-82.20455999999963
 10
131.52399399999925
 20
-82.21776799999964
 10
131.57453999999925
 20
-82.22970599999965
 10
131.62508599999924
 20
-82.24011999999965
 10
131.67563199999924
 20
-82.24900999999966
 10
131.7261779999992
 20
-82.25637599999965
 10
131.7767239999992
 20
-82.26221799999966
 10
131.8272699999992
 20
-82.26653599999966
 10
131.8775619999992
 20
-82.26907599999966
 10
131.92785399999917
 20
-82.26983799999965
 10
131.97789199999917
 20
-82.26882199999964
 10
132.0276759999992
 20
-82.26602799999964
 10
132.0772059999992
 20
-82.26120199999964
 10
132.12648199999919
 20
-82.25434399999965
 10
132.1755039999992
 20
-82.24545399999964
 10
132.2242719999992
 20
-82.23427799999965
 10
132.27253199999922
 20
-82.22106999999964
 10
132.3202839999992
 20
-82.20557599999964
 10
132.3675279999992
 20
-82.18779599999964
 10
132.4142639999992
 20
-82.16747599999965
 10
132.4498239999992
 20
-82.15020399999965
 10
132.48462199999918
 20
-82.13191599999965
 10
132.51840399999918
 20
-82.11261199999964
 10
132.5514239999992
 20
-82.09229199999965
 10
132.5836819999992
 20
-82.07095599999965
 10
132.6151779999992
 20
-82.04860399999964
 10
132.64591199999919
 20
-82.02548999999964
 10
132.67613799999918
 20
-82.00135999999964
 10
132.70560199999917
 20
-81.97646799999963
 10
132.7345579999992
 20
-81.95081399999962
 10
132.7630059999992
 20
-81.92465199999963
 10
132.79069199999918
 20
-81.89772799999963
 10
132.81786999999917
 20
-81.87029599999963
 10
132.8445399999992
 20
-81.84235599999963
 10
132.8709559999992
 20
-81.81390799999961
 10
132.8968639999992
 20
-81.78495199999962
 10
132.9225179999992
 20
-81.75548799999963
 10
132.9476639999992
 20
-81.72576999999963
 10
132.9725559999992
 20
-81.69579799999963
 10
132.99719399999918
 20
-81.66557199999961
 10
133.02157799999918
 20
-81.63509199999962
 10
133.0457079999992
 20
-81.60435799999962
 10
133.06958399999922
 20
-81.57362399999963
 10
133.0932059999992
 20
-81.54263599999962
 10
133.1168279999992
 20
-81.51164799999962
 10
133.1404499999992
 20
-81.48065999999962
 10
133.16381799999917
 20
-81.44967199999961
 10
133.18718599999917
 20
-81.41893799999961
 10
133.21055399999918
 20
-81.38820399999962
 10
133.23392199999915
 20
-81.35772399999962
 10
133.25728999999916
 20
-81.32749799999961
 10
133.28091199999915
 20
-81.29752599999962
 10
133.39140199999915
 20
-81.15985799999962
 10
133.50316199999915
 20
-81.02320599999962
 10
133.61619199999916
 20
-80.88756999999963
 10
133.73049199999917
 20
-80.75294999999963
 10
133.84580799999915
 20
-80.61934599999962
 10
133.96239399999914
 20
-80.48675799999963
 10
134.08024999999915
 20
-80.35518599999963
 10
134.19912199999916
 20
-80.22488399999965
 10
134.31926399999915
 20
-80.09559799999964
 10
134.44067599999914
 20
-79.96758199999964
 10
134.56310399999913
 20
-79.84058199999963
 10
134.68680199999912
 20
-79.71485199999964
 10
134.8115159999991
 20
-79.59013799999964
 10
134.93749999999912
 20
-79.46669399999963
 10
135.0647539999991
 20
-79.34426599999964
 10
135.1930239999991
 20
-79.22310799999964
 10
135.3225639999991
 20
-79.10321999999964
 10
135.4531199999991
 20
-78.98460199999964
 10
135.5849459999991
 20
-78.86725399999965
 10
135.7177879999991
 20
-78.75092199999965
 10
135.85189999999912
 20
-78.63585999999965
 10
135.98702799999913
 20
-78.52206799999965
 10
136.12342599999914
 20
-78.40954599999965
 10
136.26083999999915
 20
-78.29854799999966
 10
136.39952399999916
 20
-78.18881999999965
 10
136.53922399999914
 20
-78.08036199999964
 10
136.68019399999912
 20
-77.97317399999964
 10
136.82217999999912
 20
-77.86725599999964
 10
136.96543599999913
 20
-77.76286199999964
 10
137.1097079999991
 20
-77.65973799999965
 10
137.25499599999912
 20
-77.55813799999964
 10
137.40155399999912
 20
-77.45780799999966
 10
137.41247599999912
 20
-77.45044199999965
 10
137.4233979999991
 20
-77.44307599999965
 10
137.4343199999991
 20
-77.43570999999966
 10
137.44524199999913
 20
-77.42834399999965
 10
137.45616399999912
 20
-77.42097799999966
 10
137.4670859999991
 20
-77.41361199999966
 10
137.47800799999914
 20
-77.40624599999965
 10
137.48892999999913
 20
-77.39887999999966
 10
137.49985199999912
 20
-77.39151399999966
 10
137.51077399999912
 20
-77.38414799999967
 10
137.52169599999914
 20
-77.37678199999966
 10
137.53261799999913
 20
-77.36941599999966
 10
137.54353999999913
 20
-77.36204999999967
 10
137.55446199999915
 20
-77.35468399999966
 10
137.56538399999914
 20
-77.34731799999967
 10
137.57630599999914
 20
-77.33995199999967
 10
137.58722799999913
 20
-77.33258599999967
 10
137.59814999999915
 20
-77.32521999999967
 10
137.60907199999914
 20
-77.31785399999967
 10
137.61999399999914
 20
-77.31074199999966
 10
137.63091599999913
 20
-77.30362999999966
 10
137.64183799999915
 20
-77.29651799999965
 10
137.65275999999915
 20
-77.28940599999964
 10
137.66368199999914
 20
-77.28229399999965
 10
137.67460399999916
 20
-77.27518199999965
 10
137.68552599999916
 20
-77.26806999999964
 10
137.69670199999916
 20
-77.26095799999963
 10
137.70787799999914
 20
-77.25384599999963
 10
137.71905399999915
 20
-77.24673399999962
 10
137.73022999999912
 20
-77.23962199999961
 10
137.74140599999913
 20
-77.2325099999996
 10
137.75258199999914
 20
-77.2253979999996
 10
137.78610999999913
 20
-77.20380799999961
 10
137.8196379999991
 20
-77.18221799999962
 10
137.85316599999908
 20
-77.1603739999996
 10
137.8869479999991
 20
-77.1385299999996
 10
137.9207299999991
 20
-77.1164319999996
 10
137.9542579999991
 20
-77.09433399999962
 10
137.9877859999991
 20
-77.07198199999961
 10
138.02105999999907
 20
-77.04937599999961
 10
138.05433399999907
 20
-77.02651599999962
 10
138.08735399999907
 20
-77.00340199999961
 10
138.12011999999908
 20
-76.97977999999961
 10
138.15237799999906
 20
-76.9559039999996
 10
138.18438199999906
 20
-76.9317739999996
 10
138.21587799999907
 20
-76.90713599999961
 10
138.24686599999905
 20
-76.8822439999996
 10
138.27734599999906
 20
-76.8568439999996
 10
138.30731799999907
 20
-76.83093599999961
 10
138.33678199999906
 20
-76.80451999999961
 10
138.36548399999907
 20
-76.7775959999996
 10
138.39367799999908
 20
-76.75016399999961
 10
138.42110999999906
 20
-76.72222399999961
 10
138.44777999999906
 20
-76.6937759999996
 10
138.47343399999906
 20
-76.6645659999996
 10
138.49832599999905
 20
-76.6348479999996
 10
138.52220199999906
 20
-76.6043679999996
 10
138.54531599999908
 20
-76.57337999999959
 10
138.56741399999908
 20
-76.54162999999959
 10
138.58824199999907
 20
-76.50911799999959
 10
138.60805399999904
 20
-76.4758439999996
 10
138.62684999999905
 20
-76.4418079999996
 10
138.64437599999903
 20
-76.4070099999996
 10
138.66063199999903
 20
-76.37119599999959
 10
138.668505999999
 20
-76.3526539999996
 10
138.675871999999
 20
-76.3338579999996
 10
138.68272999999903
 20
-76.3148079999996
 10
138.689333999999
 20
-76.2957579999996
 10
138.69542999999902
 20
-76.27645399999959
 10
138.701017999999
 20
-76.25714999999958
 10
138.70635199999901
 20
-76.23784599999958
 10
138.71117799999902
 20
-76.21828799999959
 10
138.71549599999904
 20
-76.19872999999959
 10
138.719559999999
 20
-76.17917199999958
 10
138.723115999999
 20
-76.1593599999996
 10
138.72641799999903
 20
-76.13954799999959
 10
138.72921199999902
 20
-76.1197359999996
 10
138.73149799999902
 20
-76.0999239999996
 10
138.73352999999904
 20
-76.0798579999996
 10
138.73505399999902
 20
-76.0597919999996
 10
138.73632399999903
 20
-76.0397259999996
 10
138.73708599999904
 20
-76.0196599999996
 10
138.73733999999902
 20
-75.9995939999996
 10
138.73733999999902
 20
-75.9795279999996
 10
138.73683199999905
 20
-75.95946199999959
 10
138.73606999999902
 20
-75.93939599999959
 10
138.73479999999904
 20
-75.91932999999959
 10
138.73327599999905
 20
-75.89926399999959
 10
138.73124399999904
 20
-75.87919799999959
 10
138.72895799999904
 20
-75.85913199999959
 10
138.72616399999905
 20
-75.83906599999959
 10
138.72311599999904
 20
-75.81925399999959
 10
138.71955999999903
 20
-75.7994419999996
 10
138.71574999999905
 20
-75.7796299999996
 10
138.71143199999904
 20
-75.75981799999961
 10
138.70685999999904
 20
-75.74025999999961
  0
LWPOLYLINE
  5
36
330
17
100
AcDbEntity
  8
0
100
AcDbPolyline
 90
257
 70
0
 10
78.96732999999902
 20
-69.08241199999961
 10
77.53908799999903
 20
-69.06945799999961
 10
76.11084599999903
 20
-69.05650399999962
 10
74.68260399999903
 20
-69.04354999999963
 10
73.25436199999903
 20
-69.03059599999962
 10
71.82611999999904
 20
-69.01764199999963
 10
70.39787799999904
 20
-69.00468799999963
 10
68.96963599999904
 20
-68.99173399999964
 10
67.54139399999904
 20
-68.97877999999965
 10
66.11315199999905
 20
-68.96582599999964
 10
64.68490999999905
 20
-68.95287199999964
 10
63.25666799999905
 20
-68.93991799999965
 10
61.828425999999055
 20
-68.92696399999966
 10
60.40018399999906
 20
-68.91400999999965
 10
58.97194199999906
 20
-68.90105599999966
 10
57.54369999999906
 20
-68.88810199999966
 10
56.115457999999066
 20
-68.87514799999967
 10
54.68721599999907
 20
-68.86219399999966
 10
53.25897399999907
 20
-68.84923999999967
 10
51.830731999999074
 20
-68.83628599999967
 10
50.40248999999908
 20
-68.82333199999968
 10
48.97424799999908
 20
-68.81037799999967
 10
47.54600599999908
 20
-68.79742399999968
 10
46.117763999999084
 20
-68.78446999999969
 10
44.68952199999909
 20
-68.77151599999969
 10
43.26127999999909
 20
-68.75856199999969
 10
41.83303799999909
 20
-68.74560799999969
 10
40.404795999999095
 20
-68.7326539999997
 10
38.9765539999991
 20
-68.7196999999997
 10
37.5483119999991
 20
-68.7067459999997
 10
36.1200699999991
 20
-68.6937919999997
 10
34.691827999999106
 20
-68.68083799999971
 10
33.26358599999911
 20
-68.66788399999972
 10
33.26358599999911
 20
-68.76922999999971
 10
33.26358599999911
 20
-68.87057599999972
 10
33.26358599999911
 20
-68.97192199999971
 10
33.26358599999911
 20
-69.07326799999971
 10
33.26358599999911
 20
-69.17461399999972
 10
33.26358599999911
 20
-69.27595999999971
 10
33.26358599999911
 20
-69.37730599999972
 10
33.26358599999911
 20
-69.47865199999971
 10
33.26358599999911
 20
-69.57999799999972
 10
33.26358599999911
 20
-69.68134399999971
 10
33.26358599999911
 20
-69.78268999999972
 10
33.26358599999911
 20
-69.88403599999971
 10
33.26358599999911
 20
-69.98538199999972
 10
33.26358599999911
 20
-70.08672799999971
 10
33.26358599999911
 20
-70.18807399999972
 10
33.26358599999911
 20
-70.28941999999972
 10
33.26358599999911
 20
-70.39076599999972
 10
33.26358599999911
 20
-70.49211199999972
 10
33.26358599999911
 20
-70.59345799999971
 10
33.26358599999911
 20
-70.69480399999972
 10
33.26358599999911
 20
-70.79614999999971
 10
33.26358599999911
 20
-70.89749599999972
 10
33.26358599999911
 20
-70.99884199999971
 10
33.26358599999911
 20
-71.10018799999972
 10
33.26358599999911
 20
-71.20153399999973
 10
33.26358599999911
 20
-71.30287999999972
 10
33.26358599999911
 20
-71.40422599999972
 10
33.26358599999911
 20
-71.50557199999972
 10
33.26358599999911
 20
-71.60691799999972
 10
33.26358599999911
 20
-71.70826399999972
 10
33.26358599999911
 20
-71.80960999999972
 10
33.26358599999911
 20
-71.91095599999971
 10
33.2643479999991
 20
-71.94346799999971
 10
33.2666339999991
 20
-71.97547199999971
 10
33.270443999999095
 20
-72.00696799999972
 10
33.27577799999909
 20
-72.03795599999972
 10
33.28263599999909
 20
-72.06843599999972
 10
33.29076399999909
 20
-72.09840799999972
 10
33.300415999999096
 20
-72.12761799999973
 10
33.3113379999991
 20
-72.15631999999972
 10
33.323529999999096
 20
-72.18425999999972
 10
33.33699199999909
 20
-72.21143799999973
 10
33.351723999999095
 20
-72.23785399999973
 10
33.3674719999991
 20
-72.26350799999973
 10
33.3844899999991
 20
-72.28814599999973
 10
33.4025239999991
 20
-72.31202199999973
 10
33.4215739999991
 20
-72.33488199999972
 10
33.4416399999991
 20
-72.35672599999972
 10
33.4627219999991
 20
-72.37755399999972
 10
33.4848199999991
 20
-72.3973659999997
 10
33.5076799999991
 20
-72.41616199999972
 10
33.53155599999909
 20
-72.43368799999972
 10
33.556193999999095
 20
-72.44994399999972
 10
33.58159399999909
 20
-72.46518399999972
 10
33.6077559999991
 20
-72.47915399999972
 10
33.63467999999909
 20
-72.49185399999973
 10
33.662365999999096
 20
-72.50302999999973
 10
33.690559999999095
 20
-72.51293599999973
 10
33.719515999999096
 20
-72.52131799999972
 10
33.7489799999991
 20
-72.52842999999973
 10
33.7789519999991
 20
-72.53401799999973
 10
33.8094319999991
 20
-72.53808199999973
 10
33.8404199999991
 20
-72.54062199999973
 10
33.8716619999991
 20
-72.54138399999972
 10
34.7601539999991
 20
-72.54747999999972
 10
35.6486459999991
 20
-72.55357599999972
 10
36.537137999999096
 20
-72.55967199999972
 10
37.42562999999909
 20
-72.56576799999974
 10
38.31412199999909
 20
-72.57186399999974
 10
39.20261399999909
 20
-72.57795999999973
 10
40.09110599999909
 20
-72.58405599999973
 10
40.97959799999908
 20
-72.59015199999973
 10
41.86808999999908
 20
-72.59624799999973
 10
42.75658199999908
 20
-72.60234399999973
 10
43.64507399999907
 20
-72.60843999999973
 10
44.53356599999907
 20
-72.61453599999973
 10
45.42205799999907
 20
-72.62063199999973
 10
46.31054999999907
 20
-72.62672799999973
 10
47.19904199999906
 20
-72.63282399999973
 10
48.08753399999906
 20
-72.63891999999973
 10
48.97602599999906
 20
-72.64501599999973
 10
49.86451799999906
 20
-72.65111199999973
 10
50.75300999999905
 20
-72.65720799999973
 10
51.64150199999905
 20
-72.66330399999973
 10
52.52999399999905
 20
-72.66939999999973
 10
53.41848599999905
 20
-72.67549599999974
 10
54.30697799999904
 20
-72.68159199999974
 10
55.19546999999904
 20
-72.68768799999974
 10
56.08396199999904
 20
-72.69378399999974
 10
56.97245399999904
 20
-72.69987999999974
 10
57.86094599999903
 20
-72.70597599999974
 10
58.74943799999903
 20
-72.71207199999974
 10
59.63792999999903
 20
-72.71816799999974
 10
60.52642199999903
 20
-72.72426399999974
 10
61.41491399999902
 20
-72.73035999999973
 10
62.30340599999902
 20
-72.73645599999973
 10
62.438279999999025
 20
-72.73696399999973
 10
62.57315399999903
 20
-72.73848799999973
 10
62.708027999999025
 20
-72.74128199999974
 10
62.84290199999903
 20
-72.74509199999973
 10
62.97777599999903
 20
-72.75017199999972
 10
63.11264999999903
 20
-72.75626799999972
 10
63.247269999999034
 20
-72.76363399999973
 10
63.38188999999903
 20
-72.77201599999974
 10
63.51650999999903
 20
-72.78166799999974
 10
63.65087599999903
 20
-72.79258999999973
 10
63.78524199999903
 20
-72.80452799999975
 10
63.91935399999903
 20
-72.81773599999974
 10
64.05346599999903
 20
-72.83221399999975
 10
64.18732399999902
 20
-72.84796199999975
 10
64.32118199999903
 20
-72.86497999999976
 10
64.45478599999902
 20
-72.88301399999976
 10
64.58813599999903
 20
-72.90231799999977
 10
64.72148599999903
 20
-72.92289199999978
 10
64.85458199999903
 20
-72.94473599999978
 10
64.98742399999902
 20
-72.96810399999977
 10
65.12001199999904
 20
-72.99274199999977
 10
65.25234599999904
 20
-73.01864999999977
 10
65.38442599999902
 20
-73.04582799999977
 10
65.51625199999903
 20
-73.07427599999977
 10
65.64782399999902
 20
-73.10424799999977
 10
65.77914199999903
 20
-73.13548999999978
 10
65.91020599999902
 20
-73.16800199999977
 10
66.04101599999902
 20
-73.20203799999977
 10
66.17157199999903
 20
-73.23734399999978
 10
66.30161999999903
 20
-73.27417399999977
 10
66.43141399999904
 20
-73.31227399999976
 10
66.56095399999903
 20
-73.35189799999976
 10
66.69811399999904
 20
-73.39609399999976
 10
66.83959199999904
 20
-73.44511599999976
 10
66.98513399999904
 20
-73.49870999999976
 10
67.13448599999904
 20
-73.55662199999976
 10
67.28713999999904
 20
-73.61885199999976
 10
67.44284199999905
 20
-73.68539999999976
 10
67.60133799999905
 20
-73.75601199999977
 10
67.76211999999904
 20
-73.83043399999977
 10
67.92493399999904
 20
-73.90866599999977
 10
68.08952599999905
 20
-73.99070799999976
 10
68.25538799999906
 20
-74.07630599999976
 10
68.42251999999907
 20
-74.16545999999975
 10
68.59015999999907
 20
-74.25791599999975
 10
68.75830799999906
 20
-74.35367399999976
 10
68.92645599999905
 20
-74.45247999999975
 10
69.09434999999905
 20
-74.55433399999976
 10
69.26148199999906
 20
-74.65898199999975
 10
69.42785199999905
 20
-74.76642399999976
 10
69.59295199999904
 20
-74.87640599999975
 10
69.75627399999904
 20
-74.98892799999975
 10
69.91756399999903
 20
-75.10373599999974
 10
70.07656799999903
 20
-75.22082999999975
 10
70.23303199999903
 20
-75.34020999999976
 10
70.38644799999902
 20
-75.46162199999976
 10
70.53656199999902
 20
-75.58481199999976
 10
70.68311999999902
 20
-75.70977999999977
 10
70.82586799999903
 20
-75.83652599999978
 10
70.96429799999903
 20
-75.96479599999978
 10
71.09790199999904
 20
-76.09458999999978
 10
71.22667999999904
 20
-76.22565399999978
 10
71.35012399999904
 20
-76.35773399999978
 10
71.46797999999903
 20
-76.49108399999977
 10
71.70572399999902
 20
-76.49260799999976
 10
71.94346799999903
 20
-76.49413199999977
 10
72.18121199999902
 20
-76.49565599999976
 10
72.41895599999901
 20
-76.49717999999974
 10
72.656699999999
 20
-76.49870399999973
 10
72.894443999999
 20
-76.50022799999974
 10
73.13218799999899
 20
-76.50175199999973
 10
73.369931999999
 20
-76.50327599999972
 10
73.60767599999899
 20
-76.5047999999997
 10
73.84541999999898
 20
-76.50632399999971
 10
74.08316399999897
 20
-76.5078479999997
 10
74.32090799999897
 20
-76.50937199999969
 10
74.55865199999896
 20
-76.51089599999968
 10
74.79639599999896
 20
-76.51241999999968
 10
75.03413999999896
 20
-76.51394399999967
 10
75.27188399999895
 20
-76.51546799999966
 10
75.50962799999894
 20
-76.51699199999965
 10
75.74737199999893
 20
-76.51851599999965
 10
75.98511599999892
 20
-76.52003999999964
 10
76.22285999999893
 20
-76.52156399999963
 10
76.46060399999892
 20
-76.52308799999962
 10
76.69834799999892
 20
-76.52461199999962
 10
76.93609199999891
 20
-76.52613599999961
 10
77.1738359999989
 20
-76.5276599999996
 10
77.41157999999889
 20
-76.52918399999959
 10
77.6493239999989
 20
-76.53070799999959
 10
77.88706799999889
 20
-76.53223199999958
 10
78.12481199999888
 20
-76.53375599999957
 10
78.36255599999888
 20
-76.53527999999956
 10
78.60029999999887
 20
-76.53680399999956
 10
78.83804399999886
 20
-76.53832799999955
 10
79.07578799999887
 20
-76.53985199999954
 10
78.82204199999886
 20
-76.40345399999956
 10
78.58429799999887
 20
-76.24825999999955
 10
78.36255599999886
 20
-76.07579399999956
 10
78.15681599999887
 20
-75.88707199999956
 10
77.96707799999886
 20
-75.68336399999956
 10
77.79359599999886
 20
-75.46593999999956
 10
77.63611599999886
 20
-75.23606999999956
 10
77.49463799999886
 20
-74.99502399999956
 10
77.36941599999885
 20
-74.74407199999956
 10
77.26019599999886
 20
-74.48448399999957
 10
77.16723199999886
 20
-74.21727599999956
 10
77.09026999999885
 20
-73.94397199999955
 10
77.02956399999887
 20
-73.66558799999954
 10
76.98511399999886
 20
-73.38364799999955
 10
76.95666599999886
 20
-73.09916799999955
 10
76.94447399999886
 20
-72.81341799999954
 10
76.94853799999886
 20
-72.52766799999955
 10
76.96885799999886
 20
-72.24318799999955
 10
77.00543399999886
 20
-71.96099399999954
 10
77.05826599999887
 20
-71.68260999999954
 10
77.12760799999887
 20
-71.40930599999955
 10
77.21320599999886
 20
-71.14209799999954
 10
77.31505999999887
 20
-70.88225599999953
 10
77.43316999999887
 20
-70.63130399999953
 10
77.56778999999885
 20
-70.39025799999953
 10
77.71866599999886
 20
-70.16038799999953
 10
77.88605199999886
 20
-69.94296399999953
 10
78.06994799999885
 20
-69.73900199999953
 10
78.27009999999885
 20
-69.55002599999953
 10
78.48676199999886
 20
-69.37730599999952
 10
78.71993399999886
 20
-69.22185799999951
 10
78.96961599999887
 20
-69.08495199999952
  0
LWPOLYLINE
  5
37
330
17
100
AcDbEntity
  8
0
100
AcDbPolyline
 90
257
 70
0
 10
100.72827199999885
 20
-75.84744799999953
 10
100.71912799999886
 20
-75.81925399999953
 10
100.70871399999886
 20
-75.79156799999954
 10
100.69728399999886
 20
-75.76464399999954
 10
100.68483799999886
 20
-75.73848199999954
 10
100.67137599999886
 20
-75.71308199999953
 10
100.65689799999886
 20
-75.68818999999952
 10
100.64140399999886
 20
-75.66405999999952
 10
100.62489399999886
 20
-75.64069199999952
 10
100.60736799999886
 20
-75.61833999999952
 10
100.58907999999886
 20
-75.59674999999953
 10
100.57002999999887
 20
-75.57592199999952
 10
100.55021799999886
 20
-75.55585599999952
 10
100.52938999999887
 20
-75.53680599999953
 10
100.50779999999887
 20
-75.51851799999953
 10
100.48570199999888
 20
-75.50124599999953
 10
100.46284199999889
 20
-75.48498999999953
 10
100.43921999999888
 20
-75.46974999999952
 10
100.41508999999887
 20
-75.45552599999952
 10
100.39045199999887
 20
-75.44231799999952
 10
100.36505199999887
 20
-75.43012599999952
 10
100.33914399999888
 20
-75.41894999999953
 10
100.31272799999888
 20
-75.40878999999953
 10
100.28580399999888
 20
-75.39964599999952
 10
100.25862599999887
 20
-75.39177199999952
 10
100.23093999999888
 20
-75.38491399999953
 10
100.20299999999888
 20
-75.37932599999952
 10
100.17455199999887
 20
-75.37500799999953
 10
100.14584999999887
 20
-75.37170599999953
 10
100.11689399999888
 20
-75.36967399999953
 10
100.08768399999887
 20
-75.36891199999954
 10
100.05821999999888
 20
-75.36941999999955
 10
100.02850199999887
 20
-75.37119799999954
 10
99.84816199999888
 20
-75.38567599999955
 10
99.65232799999887
 20
-75.39989999999955
 10
99.44201599999889
 20
-75.41412399999955
 10
99.21773399999888
 20
-75.42834799999953
 10
98.98049799999887
 20
-75.44231799999953
 10
98.73106999999887
 20
-75.45628799999955
 10
98.47021199999888
 20
-75.47025799999955
 10
98.19868599999887
 20
-75.48397399999953
 10
97.91725399999886
 20
-75.49768999999952
 10
97.62693199999887
 20
-75.51115199999953
 10
97.32822799999887
 20
-75.52461399999953
 10
97.02190399999887
 20
-75.53807599999952
 10
96.70897599999887
 20
-75.55128399999953
 10
96.39020599999887
 20
-75.56449199999953
 10
96.06635599999888
 20
-75.57769999999954
 10
95.73818799999889
 20
-75.59065399999953
 10
95.40646399999889
 20
-75.60360799999954
 10
95.07194599999889
 20
-75.61656199999953
 10
94.73539599999889
 20
-75.62926199999954
 10
94.39757599999889
 20
-75.64196199999954
 10
94.05950199999889
 20
-75.65466199999955
 10
93.72168199999889
 20
-75.66710799999953
 10
93.38513199999889
 20
-75.67955399999953
 10
93.05061399999889
 20
-75.69199999999952
 10
92.7188899999989
 20
-75.70419199999952
 10
92.3907219999989
 20
-75.71638399999952
 10
92.06687199999891
 20
-75.72857599999952
 10
91.74810199999891
 20
-75.74051399999954
 10
91.43517399999891
 20
-75.75245199999954
 10
91.1291039999989
 20
-75.76438999999955
 10
90.8303999999989
 20
-75.77632799999955
 10
90.54007799999891
 20
-75.78801199999955
 10
90.5433799999989
 20
-75.79588599999956
 10
90.54668199999891
 20
-75.80375999999956
 10
90.5499839999989
 20
-75.81163399999956
 10
90.55328599999889
 20
-75.81950799999956
 10
90.5563339999989
 20
-75.82738199999956
 10
90.55938199999889
 20
-75.83525599999956
 10
90.5624299999989
 20
-75.84312999999956
 10
90.56547799999889
 20
-75.85100399999956
 10
90.5685259999989
 20
-75.85887799999956
 10
90.57157399999889
 20
-75.86675199999956
 10
90.5746219999989
 20
-75.87462599999957
 10
90.57766999999889
 20
-75.88249999999957
 10
90.5807179999989
 20
-75.89037399999957
 10
90.58376599999889
 20
-75.89824799999957
 10
90.5868139999989
 20
-75.90612199999957
 10
90.58986199999889
 20
-75.91399599999957
 10
90.5929099999989
 20
-75.92186999999957
 10
90.5959579999989
 20
-75.92974399999957
 10
90.5990059999989
 20
-75.93761799999957
 10
90.6020539999989
 20
-75.94549199999958
 10
90.6051019999989
 20
-75.95361999999957
 10
90.6081499999989
 20
-75.96174799999957
 10
90.6109439999989
 20
-75.96987599999957
 10
90.6137379999989
 20
-75.97800399999956
 10
90.61653199999891
 20
-75.98613199999956
 10
90.61932599999892
 20
-75.99425999999956
 10
90.62211999999893
 20
-76.00238799999954
 10
90.62491399999894
 20
-76.01051599999954
 10
90.62770799999893
 20
-76.01864399999954
 10
90.63050199999894
 20
-76.02677199999954
 10
90.63329599999895
 20
-76.03489999999952
 10
90.63608999999896
 20
-76.04302799999952
 10
91.07423999999897
 20
-76.09001799999953
 10
91.50146799999897
 20
-76.14361199999954
 10
91.91751999999896
 20
-76.20380999999954
 10
92.32264999999897
 20
-76.27010399999955
 10
92.71685799999898
 20
-76.34223999999953
 10
93.10014399999898
 20
-76.41996399999954
 10
93.47250799999898
 20
-76.50302199999953
 10
93.83394999999898
 20
-76.59115999999953
 10
94.18472399999897
 20
-76.68412399999953
 10
94.52457599999897
 20
-76.78165999999953
 10
94.85375999999897
 20
-76.88351399999954
 10
95.17227599999899
 20
-76.98943199999952
 10
95.48012399999898
 20
-77.09890599999952
 10
95.77730399999898
 20
-77.21193599999953
 10
96.06381599999898
 20
-77.32826799999953
 10
96.33991399999897
 20
-77.44739399999952
 10
96.60534399999898
 20
-77.56905999999952
 10
96.86035999999899
 20
-77.69326599999951
 10
97.10496199999899
 20
-77.81950399999951
 10
97.339149999999
 20
-77.94751999999953
 10
97.56292399999899
 20
-78.07705999999952
 10
97.77628399999898
 20
-78.20786999999952
 10
97.97922999999898
 20
-78.33969599999952
 10
98.17201599999898
 20
-78.47228399999952
 10
98.35438799999899
 20
-78.60537999999951
 10
98.52659999999898
 20
-78.73847599999952
 10
98.68865199999898
 20
-78.87157199999952
 10
98.84054399999899
 20
-79.00415999999952
 10
98.98227599999898
 20
-79.13623999999952
 10
99.11384799999897
 20
-79.26730399999951
 10
99.23551399999897
 20
-79.39735199999951
 10
99.34701999999898
 20
-79.52587599999951
 10
99.57714399999898
 20
-79.81518199999951
 10
99.78593199999898
 20
-80.10575799999951
 10
99.97414599999897
 20
-80.39760399999952
 10
100.14254799999898
 20
-80.69046599999952
 10
100.29164599999898
 20
-80.98408999999953
 10
100.42245599999897
 20
-81.27796799999952
 10
100.53548599999897
 20
-81.57209999999952
 10
100.63124399999897
 20
-81.86623199999953
 10
100.71074599999896
 20
-82.15985599999952
 10
100.77449999999897
 20
-82.45297199999952
 10
100.82326799999896
 20
-82.74507199999952
 10
100.85781199999897
 20
-83.03615599999952
 10
100.87863999999897
 20
-83.32571599999952
 10
100.88651399999897
 20
-83.61375199999952
 10
100.88219599999897
 20
-83.89975599999951
 10
100.86644799999897
 20
-84.18372799999952
 10
100.83977799999896
 20
-84.46515999999951
 10
100.80294799999896
 20
-84.74379799999952
 10
100.75671999999896
 20
-85.01964199999951
 10
100.70185599999895
 20
-85.29218399999951
 10
100.63886399999896
 20
-85.56116999999952
 10
100.56850599999896
 20
-85.82659999999952
 10
100.49154399999897
 20
-86.08796599999951
 10
100.40873999999896
 20
-86.34501399999952
 10
100.32060199999897
 20
-86.59748999999952
 10
100.22789199999896
 20
-86.84539399999953
 10
100.13137199999896
 20
-87.08821799999953
 10
100.03154999999897
 20
-87.32570799999954
 10
99.92918799999897
 20
-87.55760999999953
 10
99.82504799999896
 20
-87.78366999999953
 10
99.71989199999896
 20
-88.00363399999952
 10
99.61448199999896
 20
-88.21724799999953
 10
99.67417199999896
 20
-88.16670199999952
 10
99.73513199999897
 20
-88.11742599999953
 10
99.79736199999897
 20
-88.06941999999951
 10
99.86086199999896
 20
-88.02268399999951
 10
99.92563199999897
 20
-87.97721799999951
 10
99.99167199999896
 20
-87.93302199999953
 10
100.05898199999896
 20
-87.89009599999953
 10
100.12756199999896
 20
-87.84843999999953
 10
100.19741199999895
 20
-87.80830799999953
 10
100.26853199999894
 20
-87.76944599999952
 10
100.34092199999895
 20
-87.73210799999953
 10
100.41458199999896
 20
-87.69629399999951
 10
100.48951199999895
 20
-87.66200399999951
 10
100.56571199999897
 20
-87.62923799999952
 10
100.64318199999896
 20
-87.59799599999951
 10
100.72192199999897
 20
-87.56827799999951
 10
100.80193199999896
 20
-87.54008399999951
 10
100.88321199999896
 20
-87.51341399999951
 10
100.96601599999897
 20
-87.4885219999995
 10
101.05008999999897
 20
-87.4654079999995
 10
101.13543399999898
 20
-87.44381799999951
 10
101.22204799999898
 20
-87.42400599999952
 10
101.30993199999898
 20
-87.40597199999951
 10
101.39908599999897
 20
-87.38971599999951
 10
101.48950999999897
 20
-87.3752379999995
 10
101.58120399999898
 20
-87.3625379999995
 10
101.67416799999897
 20
-87.35186999999951
 10
101.76865599999897
 20
-87.3429799999995
 10
101.86441399999897
 20
-87.3361219999995
 10
101.96144199999898
 20
-87.3310419999995
 10
102.05973999999898
 20
-87.3279939999995
 10
102.15930799999897
 20
-87.3269779999995
 10
102.24617599999897
 20
-87.3277399999995
 10
102.33202799999897
 20
-87.3300259999995
 10
102.41686399999898
 20
-87.3338359999995
 10
102.50068399999897
 20
-87.3391699999995
 10
102.58348799999898
 20
-87.34602799999949
 10
102.66527599999898
 20
-87.35415599999949
 10
102.74630199999899
 20
-87.3638079999995
 10
102.82631199999898
 20
-87.3747299999995
 10
102.90530599999897
 20
-87.38717599999949
 10
102.98328399999899
 20
-87.40089199999949
 10
103.06024599999898
 20
-87.41613199999948
 10
103.13619199999897
 20
-87.43264199999949
 10
103.21112199999898
 20
-87.45042199999948
 10
103.28503599999898
 20
-87.46947199999948
 10
103.35818799999899
 20
-87.48979199999948
 10
103.43032399999898
 20
-87.51138199999947
 10
103.50144399999897
 20
-87.53424199999947
 10
103.57154799999897
 20
-87.55837199999947
 10
103.64063599999898
 20
-87.58377199999947
 10
103.70870799999896
 20
-87.61018799999947
 10
103.77576399999897
 20
-87.63787399999947
 10
103.84205799999897
 20
-87.66682999999946
 10
103.90733599999898
 20
-87.69680199999947
 10
103.97159799999898
 20
-87.72804399999946
 10
104.03484399999898
 20
-87.76030199999946
 10
104.09707399999898
 20
-87.79357599999945
 10
104.15828799999898
 20
-87.82786599999945
 10
104.21873999999897
 20
-87.86317199999945
 10
104.27817599999898
 20
-87.89974799999946
 10
104.33659599999898
 20
-87.93733999999947
 10
104.39399999999898
 20
-87.97569399999946
 10
104.45038799999897
 20
-88.01506399999946
 10
104.33405599999897
 20
-87.63482599999945
 10
104.21772399999895
 20
-87.25458799999944
 10
104.10139199999895
 20
-86.87434999999945
 10
103.98505999999894
 20
-86.49411199999945
 10
103.86872799999894
 20
-86.11387399999944
 10
103.75239599999892
 20
-85.73363599999944
 10
103.63606399999892
 20
-85.35339799999943
 10
103.51973199999891
 20
-84.97315999999942
 10
103.40339999999891
 20
-84.59292199999942
 10
103.2870679999989
 20
-84.21268399999943
 10
103.1707359999989
 20
-83.83244599999942
 10
103.05440399999888
 20
-83.45220799999942
 10
102.93807199999888
 20
-83.07196999999941
 10
102.82173999999888
 20
-82.6917319999994
 10
102.70540799999887
 20
-82.3114939999994
 10
102.58907599999887
 20
-81.9312559999994
 10
102.47274399999885
 20
-81.5510179999994
 10
102.35641199999885
 20
-81.1707799999994
 10
102.24007999999884
 20
-80.79054199999939
 10
102.12374799999884
 20
-80.41030399999939
 10
102.00741599999883
 20
-80.03006599999938
 10
101.89108399999883
 20
-79.64982799999937
 10
101.77475199999881
 20
-79.26958999999937
 10
101.65841999999881
 20
-78.88935199999938
 10
101.5420879999988
 20
-78.50911399999937
 10
101.4257559999988
 20
-78.12887599999937
 10
101.30942399999878
 20
-77.74863799999936
 10
101.19309199999879
 20
-77.36839999999935
 10
101.07675999999877
 20
-76.98816199999935
 10
100.96042799999877
 20
-76.60792399999934
 10
100.84409599999876
 20
-76.22768599999935
 10
100.72776399999876
 20
-75.84744799999935
  0
LWPOLYLINE
  5
38
330
17
100
AcDbEntity
  8
0
100
AcDbPolyline
 90
97
 70
0
 10
126.99466599999876
 20
-82.38235999999935
 10
127.00203199999875
 20
-82.39251999999935
 10
127.02438399999876
 20
-82.42172999999936
 10
127.06121399999876
 20
-82.46871999999935
 10
127.11226799999876
 20
-82.53196599999936
 10
127.17754599999877
 20
-82.60994399999936
 10
127.25653999999876
 20
-82.70138399999936
 10
127.34924999999876
 20
-82.80450799999937
 10
127.45516799999875
 20
-82.91804599999936
 10
127.57429399999876
 20
-83.04021999999937
 10
127.70637399999875
 20
-83.16975999999937
 10
127.85115399999874
 20
-83.30514199999936
 10
128.00837999999877
 20
-83.44509599999937
 10
128.17779799999875
 20
-83.58784399999936
 10
128.35940799999875
 20
-83.73211599999937
 10
128.55270199999873
 20
-83.87613399999937
 10
128.75767999999874
 20
-84.01862799999937
 10
128.97383399999876
 20
-84.15807399999936
 10
129.20116399999876
 20
-84.29294799999936
 10
129.43941599999874
 20
-84.42197999999935
 10
129.68808199999873
 20
-84.54339199999936
 10
129.94716199999874
 20
-84.65591399999936
 10
130.21640199999874
 20
-84.75802199999934
 10
130.49554799999873
 20
-84.84819199999936
 10
130.78459999999876
 20
-84.92489999999935
 10
131.08304999999874
 20
-84.98662199999936
 10
131.39064399999876
 20
-85.03208799999935
 10
131.70738199999874
 20
-85.05951999999935
 10
132.03300999999874
 20
-85.06764799999935
 10
132.36701999999875
 20
-85.05494799999934
 10
132.70941199999874
 20
-85.01989599999935
 10
133.05993199999875
 20
-84.96096799999934
 10
133.41832599999873
 20
-84.87689399999934
 10
133.41070599999873
 20
-84.88756199999933
 10
133.38860799999875
 20
-84.91956599999932
 10
133.35304799999875
 20
-84.97214399999932
 10
133.30529599999875
 20
-85.04504199999931
 10
133.24662199999875
 20
-85.13749799999931
 10
133.17804199999875
 20
-85.24900399999932
 10
133.10057199999878
 20
-85.37930599999932
 10
133.01573599999878
 20
-85.52764199999932
 10
132.92429599999878
 20
-85.69350399999932
 10
132.8275219999988
 20
-85.87638399999932
 10
132.72668399999878
 20
-86.07577399999933
 10
132.62279799999877
 20
-86.29116599999934
 10
132.51713399999875
 20
-86.52205199999933
 10
132.41096199999876
 20
-86.76792399999934
 10
132.30504399999876
 20
-87.02827399999933
 10
132.20090399999876
 20
-87.30233999999933
 10
132.09955799999875
 20
-87.58986799999933
 10
132.00202199999876
 20
-87.89034999999933
 10
131.90956599999876
 20
-88.20302399999933
 10
131.82345999999873
 20
-88.52763599999933
 10
131.74471999999875
 20
-88.86367799999933
 10
131.67461599999876
 20
-89.21038799999933
 10
131.61416399999874
 20
-89.56725799999933
 10
131.56463399999873
 20
-89.93403399999933
 10
131.52704199999872
 20
-90.30995399999934
 10
131.50265799999872
 20
-90.69450999999934
 10
131.49249799999873
 20
-91.08719399999933
 10
131.49783199999874
 20
-91.48775199999933
 10
131.51967599999873
 20
-91.89542199999934
 10
131.5592999999987
 20
-92.30969599999933
 10
131.6177199999987
 20
-92.73006599999933
 10
131.6962059999987
 20
-93.15602399999933
 10
131.54939399999873
 20
-92.81921999999932
 10
131.40232799999873
 20
-92.48241599999932
 10
131.25551599999875
 20
-92.14561199999932
 10
131.10870399999874
 20
-91.8088079999993
 10
130.96163799999874
 20
-91.4720039999993
 10
130.81482599999876
 20
-91.1351999999993
 10
130.66775999999876
 20
-90.79839599999929
 10
130.52094799999878
 20
-90.46159199999929
 10
130.3741359999988
 20
-90.12478799999928
 10
130.2270699999988
 20
-89.78798399999927
 10
130.0802579999988
 20
-89.45117999999927
 10
129.9331919999988
 20
-89.11437599999927
 10
129.78637999999881
 20
-88.77757199999925
 10
129.63931399999882
 20
-88.44076799999925
 10
129.4922479999988
 20
-88.10396399999925
 10
129.3454359999988
 20
-87.76715999999924
 10
129.19836999999882
 20
-87.43035599999924
 10
129.05130399999882
 20
-87.09355199999924
 10
128.9044919999988
 20
-86.75674799999922
 10
128.75742599999882
 20
-86.41994399999922
 10
128.61035999999882
 20
-86.08313999999922
 10
128.4632939999988
 20
-85.7463359999992
 10
128.3164819999988
 20
-85.4095319999992
 10
128.16941599999882
 20
-85.0727279999992
 10
128.02234999999882
 20
-84.73592399999919
 10
127.87553799999881
 20
-84.39911999999919
 10
127.72847199999882
 20
-84.06231599999919
 10
127.58140599999882
 20
-83.72551199999917
 10
127.43459399999882
 20
-83.38870799999917
 10
127.28752799999882
 20
-83.05190399999917
 10
127.14046199999882
 20
-82.71509999999915
 10
126.99339599999881
 20
-82.37829599999915
  0
LWPOLYLINE
  5
39
330
17
100
AcDbEntity
  8
0
100
AcDbPolyline
 90
97
 70
0
 10
101.8080259999988
 20
-94.69348599999915
 10
101.81716999999881
 20
-94.69526399999916
 10
101.8438399999988
 20
-94.69983599999915
 10
101.88701999999881
 20
-94.70643999999915
 10
101.94569399999881
 20
-94.71380599999915
 10
102.0185919999988
 20
-94.72117199999916
 10
102.1046979999988
 20
-94.72752199999914
 10
102.2029959999988
 20
-94.73183999999914
 10
102.31221599999881
 20
-94.73310999999914
 10
102.4313419999988
 20
-94.73031599999914
 10
102.55935799999881
 20
-94.72244199999913
 10
102.69499399999881
 20
-94.70847199999913
 10
102.83723399999882
 20
-94.68764399999914
 10
102.9850619999988
 20
-94.65868799999915
 10
103.13720799999881
 20
-94.62084199999914
 10
103.29265599999881
 20
-94.57283599999914
 10
103.4503899999988
 20
-94.51390799999913
 10
103.6091399999988
 20
-94.44304199999912
 10
103.76788999999881
 20
-94.35922199999914
 10
103.92536999999881
 20
-94.26143199999913
 10
104.08081799999881
 20
-94.14865599999914
 10
104.23296399999882
 20
-94.01987799999912
 10
104.38053799999882
 20
-93.87408199999913
 10
104.52277799999882
 20
-93.71050599999913
 10
104.65815999999882
 20
-93.52787999999913
 10
104.78592199999882
 20
-93.32544199999911
 10
104.90479399999883
 20
-93.10217599999912
 10
105.01375999999881
 20
-92.85681199999911
 10
105.11180399999883
 20
-92.58858799999912
 10
105.19765599999883
 20
-92.29648799999913
 10
105.27029999999883
 20
-91.97949599999913
 10
105.32871999999884
 20
-91.63684999999913
 10
105.37164599999883
 20
-91.26727999999913
 10
105.37774199999883
 20
-91.28455199999912
 10
105.39526799999884
 20
-91.33509799999914
 10
105.42371599999883
 20
-91.41688599999914
 10
105.46257799999884
 20
-91.52813799999913
 10
105.51109199999884
 20
-91.66682199999913
 10
105.56849599999885
 20
-91.83115999999913
 10
105.63428199999885
 20
-92.01937399999912
 10
105.70768799999884
 20
-92.22943199999912
 10
105.78820599999884
 20
-92.45930199999911
 10
105.87507399999883
 20
-92.70720599999912
 10
105.96778399999884
 20
-92.97136599999912
 10
106.06557399999883
 20
-93.24974999999912
 10
106.16793599999885
 20
-93.54032599999913
 10
106.27410799999885
 20
-93.84131599999913
 10
106.38332799999884
 20
-94.15094199999912
 10
106.49508799999884
 20
-94.46717199999912
 10
106.60887999999883
 20
-94.78822799999912
 10
106.72394199999883
 20
-95.11207799999912
 10
106.83951199999883
 20
-95.43694399999912
 10
106.95508199999882
 20
-95.76079399999911
 10
107.06988999999882
 20
-96.08184999999912
 10
107.18342799999883
 20
-96.39807999999911
 10
107.29493399999883
 20
-96.70770599999912
 10
107.40389999999883
 20
-97.00869599999912
 10
107.50956399999882
 20
-97.29927199999912
 10
107.61141799999882
 20
-97.57740199999913
 10
107.70869999999881
 20
-97.84130799999912
 10
107.80064799999883
 20
-98.08895799999912
 10
107.88675399999883
 20
-98.31857399999913
 10
107.96650999999883
 20
-98.52812399999912
 10
108.03889999999883
 20
-98.71582999999912
 10
108.10366999999884
 20
-98.87991399999912
 10
108.09528799999883
 20
-98.86975399999912
 10
108.07039599999882
 20
-98.84003599999912
 10
108.02950199999883
 20
-98.7920299999991
 10
107.97285999999883
 20
-98.72700599999911
 10
107.90097799999882
 20
-98.64597999999911
 10
107.81436399999882
 20
-98.55022199999911
 10
107.71352599999882
 20
-98.4407479999991
 10
107.59871799999883
 20
-98.3188279999991
 10
107.47044799999883
 20
-98.1857319999991
 10
107.32922399999883
 20
-98.0424759999991
 10
107.17529999999883
 20
-97.8900759999991
 10
107.00918399999883
 20
-97.7300559999991
 10
106.83138399999883
 20
-97.5634319999991
 10
106.64240799999882
 20
-97.3912199999991
 10
106.44250999999883
 20
-97.2146899999991
 10
106.23219799999883
 20
-97.0351119999991
 10
106.01197999999883
 20
-96.8537559999991
 10
105.78210999999884
 20
-96.6716379999991
 10
105.54334999999884
 20
-96.4897739999991
 10
105.29569999999883
 20
-96.3094339999991
 10
105.03992199999884
 20
-96.1318879999991
 10
104.77626999999883
 20
-95.95815199999909
 10
104.50550599999883
 20
-95.7894959999991
 10
104.22762999999884
 20
-95.62718999999909
 10
103.94340399999884
 20
-95.4722499999991
 10
103.65308199999883
 20
-95.32594599999909
 10
103.35717199999884
 20
-95.18929399999908
 10
103.05618199999883
 20
-95.06356399999908
 10
102.75036599999883
 20
-94.95002599999908
 10
102.44023199999883
 20
-94.84969599999908
 10
102.12628799999884
 20
-94.76384399999908
 10
101.80878799999883
 20
-94.69348599999908
  0
LWPOLYLINE
  5
3A
330
17
100
AcDbEntity
  8
0
100
AcDbPolyline
 90
97
 70
0
 10
69.92670799999884
 20
-78.47685599999909
 10
70.20940999999884
 20
-78.47685599999909
 10
70.49211199999884
 20
-78.47685599999909
 10
70.77481399999884
 20
-78.47685599999909
 10
71.05751599999884
 20
-78.47685599999909
 10
71.34021799999884
 20
-78.47685599999909
 10
71.62291999999884
 20
-78.47685599999909
 10
71.90562199999884
 20
-78.47685599999909
 10
72.18832399999883
 20
-78.47685599999909
 10
72.47102599999883
 20
-78.47685599999909
 10
72.75372799999883
 20
-78.47685599999909
 10
73.03642999999883
 20
-78.47685599999909
 10
73.31913199999883
 20
-78.47685599999909
 10
73.60183399999883
 20
-78.47685599999909
 10
73.88453599999883
 20
-78.47685599999909
 10
74.16723799999883
 20
-78.47685599999909
 10
74.44993999999883
 20
-78.47685599999909
 10
74.73264199999883
 20
-78.47685599999909
 10
75.01534399999883
 20
-78.47685599999909
 10
75.29804599999883
 20
-78.47685599999909
 10
75.58074799999883
 20
-78.47685599999909
 10
75.86344999999883
 20
-78.47685599999909
 10
76.14615199999884
 20
-78.47685599999909
 10
76.42885399999884
 20
-78.47685599999909
 10
76.71155599999884
 20
-78.47685599999909
 10
76.99425799999884
 20
-78.47685599999909
 10
77.27695999999884
 20
-78.47685599999909
 10
77.55966199999884
 20
-78.47685599999909
 10
77.84236399999884
 20
-78.47685599999909
 10
78.12506599999884
 20
-78.47685599999909
 10
78.40776799999884
 20
-78.47685599999909
 10
78.69046999999884
 20
-78.47685599999909
 10
78.97317199999884
 20
-78.47685599999909
 10
78.95666199999883
 20
-78.48041199999909
 10
78.90865599999883
 20
-78.49158799999908
 10
78.83093199999884
 20
-78.51089199999909
 10
78.72577599999883
 20
-78.5388319999991
 10
78.59496599999883
 20
-78.5759159999991
 10
78.44053399999883
 20
-78.6223979999991
 10
78.26425799999883
 20
-78.67878599999909
 10
78.06842399999883
 20
-78.74558799999909
 10
77.85480999999884
 20
-78.82331199999909
 10
77.62570199999882
 20
-78.91246599999909
 10
77.38287799999883
 20
-79.01330399999908
 10
77.12836999999882
 20
-79.12658799999909
 10
76.86420999999882
 20
-79.25257199999909
 10
76.59217599999882
 20
-79.39176399999909
 10
76.31455399999881
 20
-79.54467199999908
 10
76.03312199999881
 20
-79.71180399999908
 10
75.7499119999988
 20
-79.89366799999908
 10
75.46695599999882
 20
-80.09051799999908
 10
75.1862859999988
 20
-80.30311599999908
 10
74.9099339999988
 20
-80.53171599999907
 10
74.6396779999988
 20
-80.77682599999906
 10
74.37780399999879
 20
-81.03895399999907
 10
74.1260899999988
 20
-81.31860799999906
 10
73.8865679999988
 20
-81.61604199999906
 10
73.66126999999881
 20
-81.93201799999906
 10
73.4519739999988
 20
-82.26678999999906
 10
73.2609659999988
 20
-82.62086599999907
 10
73.09002399999879
 20
-82.99475399999906
 10
72.9411799999988
 20
-83.38896199999907
 10
72.8164659999988
 20
-83.80374399999906
 10
72.7179139999988
 20
-84.23986199999905
 10
72.6475559999988
 20
-84.69756999999906
 10
72.64806399999881
 20
-84.68537799999906
 10
72.6493339999988
 20
-84.64930999999906
 10
72.65060399999881
 20
-84.59063599999907
 10
72.6511119999988
 20
-84.51062599999906
 10
72.65060399999881
 20
-84.41054999999906
 10
72.64806399999881
 20
-84.29142399999905
 10
72.6432379999988
 20
-84.15477199999906
 10
72.6353639999988
 20
-84.00135599999906
 10
72.62367999999881
 20
-83.83269999999906
 10
72.60767799999881
 20
-83.64981999999905
 10
72.5868499999988
 20
-83.45398599999905
 10
72.56043399999882
 20
-83.24646799999906
 10
72.52792199999882
 20
-83.02853599999905
 10
72.48880599999882
 20
-82.80120599999906
 10
72.44232399999882
 20
-82.56574799999905
 10
72.38771399999882
 20
-82.32317799999906
 10
72.32446799999882
 20
-82.07501999999906
 10
72.25207799999882
 20
-81.82228999999906
 10
72.16978199999882
 20
-81.56600399999905
 10
72.07707199999881
 20
-81.30768599999905
 10
71.97318599999882
 20
-81.04835199999906
 10
71.85761599999881
 20
-80.78927199999906
 10
71.72985399999882
 20
-80.53171599999905
 10
71.58913799999883
 20
-80.27669999999905
 10
71.43495999999882
 20
-80.02549399999906
 10
71.26655799999881
 20
-79.77936799999905
 10
71.08342399999881
 20
-79.53959199999906
 10
70.88479599999881
 20
-79.30718199999905
 10
70.67016599999882
 20
-79.08340799999905
 10
70.4390259999988
 20
-78.86953999999906
 10
70.1906139999988
 20
-78.66659399999907
 10
69.9244219999988
 20
-78.47609399999907
  0
LWPOLYLINE
  5
3B
330
17
100
AcDbEntity
  8
0
100
AcDbPolyline
 90
97
 70
0
 10
90.6175479999988
 20
-95.37395199999906
 10
90.6274539999988
 20
-95.37166599999905
 10
90.6566639999988
 20
-95.36480799999906
 10
90.7041619999988
 20
-95.35312399999907
 10
90.7689319999988
 20
-95.33635999999908
 10
90.84995799999881
 20
-95.31426199999908
 10
90.9464779999988
 20
-95.28682999999907
 10
91.0572219999988
 20
-95.25355599999908
 10
91.18142799999879
 20
-95.21418599999909
 10
91.3180799999988
 20
-95.1687199999991
 10
91.4661619999988
 20
-95.1166499999991
 10
91.6249119999988
 20
-95.0579759999991
 10
91.7930599999988
 20
-94.9924439999991
 10
91.9698439999988
 20
-94.91954599999912
 10
92.1542479999988
 20
-94.83928199999912
 10
92.34525599999881
 20
-94.75139799999911
 10
92.54185199999881
 20
-94.65563999999911
 10
92.7432739999988
 20
-94.55175399999912
 10
92.94825199999882
 20
-94.4394859999991
 10
93.15602399999881
 20
-94.31858199999911
 10
93.3655739999988
 20
-94.18904199999912
 10
93.5758859999988
 20
-94.05035799999912
 10
93.78619799999879
 20
-93.9022759999991
 10
93.99523999999879
 20
-93.74479599999911
 10
94.20224999999878
 20
-93.5774099999991
 10
94.40621199999879
 20
-93.40011799999911
 10
94.60610999999878
 20
-93.21241199999912
 10
94.80092799999878
 20
-93.01429199999913
 10
94.98990399999879
 20
-92.80550399999913
 10
95.17176799999879
 20
-92.58579399999913
 10
95.3457579999988
 20
-92.35490799999913
 10
95.51085799999879
 20
-92.11259199999913
 10
95.66605199999879
 20
-91.85859199999912
 10
95.66579799999879
 20
-91.86697399999913
 10
95.66503599999879
 20
-91.89186599999914
 10
95.6645279999988
 20
-91.93225199999914
 10
95.6645279999988
 20
-91.98711599999913
 10
95.66528999999879
 20
-92.05544199999913
 10
95.66757599999879
 20
-92.13646799999914
 10
95.67163999999879
 20
-92.22917799999914
 10
95.6777359999988
 20
-92.33255599999914
 10
95.6866259999988
 20
-92.44558599999914
 10
95.69856399999881
 20
-92.56750599999914
 10
95.7140579999988
 20
-92.69729999999915
 10
95.7333619999988
 20
-92.83420599999914
 10
95.75698399999881
 20
-92.97720799999914
 10
95.78543199999882
 20
-93.12528999999915
 10
95.81895999999882
 20
-93.27743599999914
 10
95.85807599999882
 20
-93.43288399999915
 10
95.90328799999882
 20
-93.59061799999914
 10
95.95510399999883
 20
-93.74962199999914
 10
96.01377799999882
 20
-93.90887999999914
 10
96.07981799999881
 20
-94.06762999999914
 10
96.15347799999883
 20
-94.22485599999915
 10
96.23526599999882
 20
-94.37979599999915
 10
96.32568999999881
 20
-94.53117999999915
 10
96.42525799999882
 20
-94.67849999999915
 10
96.53422399999882
 20
-94.82048599999915
 10
96.65309599999881
 20
-94.95637599999917
 10
96.7821279999988
 20
-95.08515399999916
 10
96.92208199999881
 20
-95.20580399999918
 10
97.0729579999988
 20
-95.31730999999918
 10
97.2355179999988
 20
-95.41890999999917
 10
97.4100159999988
 20
-95.50958799999917
 10
97.5969599999988
 20
-95.58858199999916
 10
97.37877399999881
 20
-95.58197799999917
 10
97.16058799999881
 20
-95.57537399999917
 10
96.94240199999882
 20
-95.56876999999916
 10
96.72421599999882
 20
-95.56216599999917
 10
96.50602999999883
 20
-95.55556199999916
 10
96.28784399999884
 20
-95.54895799999916
 10
96.06965799999884
 20
-95.54235399999915
 10
95.85147199999885
 20
-95.53574999999915
 10
95.63328599999885
 20
-95.52914599999914
 10
95.41509999999886
 20
-95.52254199999915
 10
95.19691399999886
 20
-95.51593799999914
 10
94.97872799999887
 20
-95.50933399999914
 10
94.76054199999886
 20
-95.50272999999913
 10
94.54235599999888
 20
-95.49612599999914
 10
94.32416999999889
 20
-95.48952199999913
 10
94.10598399999888
 20
-95.48291799999913
 10
93.8877979999989
 20
-95.47631399999912
 10
93.66961199999889
 20
-95.46970999999913
 10
93.4514259999989
 20
-95.46310599999912
 10
93.2332399999989
 20
-95.45650199999912
 10
93.01505399999891
 20
-95.44989799999911
 10
92.79686799999891
 20
-95.44329399999911
 10
92.57868199999892
 20
-95.4366899999991
 10
92.36049599999892
 20
-95.43008599999911
 10
92.14230999999893
 20
-95.4234819999991
 10
91.92412399999894
 20
-95.4168779999991
 10
91.70593799999894
 20
-95.4102739999991
 10
91.48775199999895
 20
-95.4036699999991
 10
91.26956599999895
 20
-95.3970659999991
 10
91.05137999999896
 20
-95.39046199999909
 10
90.83319399999895
 20
-95.3838579999991
 10
90.61500799999897
 20
-95.37725399999908
  0
ENDSEC
  0
SECTION
  2
OBJECTS
  0
DICTIONARY
  5
A
330
0
100
AcDbDictionary
281
1
  3
ACAD_COLOR
350
B
  3
ACAD_GROUP
350
C
  3
ACAD_LAYOUT
350
D
  3
ACAD_MATERIAL
350
E
  3
ACAD_MLEADERSTYLE
350
F
  3
ACAD_MLINESTYLE
350
10
  3
ACAD_PLOTSETTINGS
350
11
  3
ACAD_PLOTSTYLENAME
350
12
  3
ACAD_SCALELIST
350
14
  3
ACAD_TABLESTYLE
350
15
  3
ACAD_VISUALSTYLE
350
16
  3
EZDXF_META
350
2D
  0
DICTIONARY
  5
B
330
A
100
AcDbDictionary
281
1
  0
DICTIONARY
  5
C
330
A
100
AcDbDictionary
281
1
  0
DICTIONARY
  5
D
330
A
100
AcDbDictionary
281
1
  3
Model
350
1A
  3
Layout1
350
1E
  0
DICTIONARY
  5
E
330
A
100
AcDbDictionary
281
1
  3
ByBlock
350
1F
  3
ByLayer
350
20
  3
Global
350
21
  0
DICTIONARY
  5
F
330
A
100
AcDbDictionary
281
1
  3
Standard
350
2C
  0
DICTIONARY
  5
10
330
A
100
AcDbDictionary
281
1
  3
Standard
350
22
  0
DICTIONARY
  5
11
330
A
100
AcDbDictionary
281
1
  0
ACDBDICTIONARYWDFLT
  5
12
330
A
100
AcDbDictionary
281
1
  3
Normal
350
13
100
AcDbDictionaryWithDefault
340
13
  0
ACDBPLACEHOLDER
  5
13
330
12
  0
DICTIONARY
  5
14
330
A
100
AcDbDictionary
281
1
  0
DICTIONARY
  5
15
330
A
100
AcDbDictionary
281
1
  0
DICTIONARY
  5
16
330
A
100
AcDbDictionary
281
1
  0
LAYOUT
  5
1A
330
D
100
AcDbPlotSettings
  1

  4
A3
  6

 40
7.5
 41
20.0
 42
7.5
 43
20.0
 44
420.0
 45
297.0
 46
0.0
 47
0.0
 48
0.0
 49
0.0
140
0.0
141
0.0
142
1.0
143
1.0
 70
1024
 72
1
 73
0
 74
5
  7

 75
16
 76
0
 77
2
 78
300
147
1.0
148
0.0
149
0.0
100
AcDbLayout
  1
Model
 70
1
 71
0
 10
0.0
 20
0.0
 11
420.0
 21
297.0
 12
0.0
 22
0.0
 32
0.0
 14
1e+20
 24
1e+20
 34
1e+20
 15
-1e+20
 25
-1e+20
 35
-1e+20
146
0.0
 13
0.0
 23
0.0
 33
0.0
 16
1.0
 26
0.0
 36
0.0
 17
0.0
 27
1.0
 37
0.0
 76
1
330
17
  0
LAYOUT
  5
1E
330
D
100
AcDbPlotSettings
  1

  4
A3
  6

 40
7.5
 41
20.0
 42
7.5
 43
20.0
 44
420.0
 45
297.0
 46
0.0
 47
0.0
 48
0.0
 49
0.0
140
0.0
141
0.0
142
1.0
143
1.0
 70
0
 72
1
 73
0
 74
5
  7

 75
16
 76
0
 77
2
 78
300
147
1.0
148
0.0
149
0.0
100
AcDbLayout
  1
Layout1
 70
1
 71
1
 10
0.0
 20
0.0
 11
420.0
 21
297.0
 12
0.0
 22
0.0
 32
0.0
 14
1e+20
 24
1e+20
 34
1e+20
 15
-1e+20
 25
-1e+20
 35
-1e+20
146
0.0
 13
0.0
 23
0.0
 33
0.0
 16
1.0
 26
0.0
 36
0.0
 17
0.0
 27
1.0
 37
0.0
 76
1
330
1B
  0
MATERIAL
  5
1F
102
{ACAD_REACTORS
330
E
102
}
330
E
100
AcDbMaterial
  1
ByBlock
  2

 70
0
 40
1.0
 71
1
 41
1.0
 91
-1023410177
 42
1.0
 72
1
  3

 73
1
 74
1
 75
1
 44
0.5
 73
0
 45
1.0
 46
1.0
 77
1
  4

 78
1
 79
1
170
1
 48
1.0
171
1
  6

172
1
173
1
174
1
140
1.0
141
1.0
175
1
  7

176
1
177
1
178
1
143
1.0
179
1
  8

270
1
271
1
272
1
145
1.0
146
1.0
273
1
  9

274
1
275
1
276
1
 42
1.0
 72
1
  3

 73
1
 74
1
 75
1
 94
63
  0
MATERIAL
  5
20
102
{ACAD_REACTORS
330
E
102
}
330
E
100
AcDbMaterial
  1
ByLayer
  2

 70
0
 40
1.0
 71
1
 41
1.0
 91
-1023410177
 42
1.0
 72
1
  3

 73
1
 74
1
 75
1
 44
0.5
 73
0
 45
1.0
 46
1.0
 77
1
  4

 78
1
 79
1
170
1
 48
1.0
171
1
  6

172
1
173
1
174
1
140
1.0
141
1.0
175
1
  7

176
1
177
1
178
1
143
1.0
179
1
  8

270
1
271
1
272
1
145
1.0
146
1.0
273
1
  9

274
1
275
1
276
1
 42
1.0
 72
1
  3

 73
1
 74
1
 75
1
 94
63
  0
MATERIAL
  5
21
102
{ACAD_REACTORS
330
E
102
}
330
E
100
AcDbMaterial
  1
Global
  2

 70
0
 40
1.0
 71
1
 41
1.0
 91
-1023410177
 42
1.0
 72
1
  3

 73
1
 74
1
 75
1
 44
0.5
 73
0
 45
1.0
 46
1.0
 77
1
  4

 78
1
 79
1
170
1
 48
1.0
171
1
  6

172
1
173
1
174
1
140
1.0
141
1.0
175
1
  7

176
1
177
1
178
1
143
1.0
179
1
  8

270
1
271
1
272
1
145
1.0
146
1.0
273
1
  9

274
1
275
1
276
1
 42
1.0
 72
1
  3

 73
1
 74
1
 75
1
 94
63
  0
MLINESTYLE
  5
22
102
{ACAD_REACTORS
330
10
102
}
330
10
100
AcDbMlineStyle
  2
Standard
 70
0
  3

 62
256
 51
90.0
 52
90.0
 71
2
 49
0.5
 62
256
  6
BYLAYER
 49
-0.5
 62
256
  6
BYLAYER
  0
MLEADERSTYLE
  5
2C
102
{ACAD_REACTORS
330
F
102
}
330
F
100
AcDbMLeaderStyle
179
2
170
2
171
1
172
0
 90
2
 40
0.0
 41
0.0
173
1
 91
-1056964608
 92
-2
290
1
 42
2.0
291
1
 43
8.0
  3
Standard
 44
4.0
300

342
29
174
1
175
1
176
0
178
1
 93
-1056964608
 45
4.0
292
0
297
0
 46
4.0
 94
-1056964608
 47
1.0
 49
1.0
140
1.0
294
1
141
0.0
177
0
142
1.0
295
0
296
0
143
3.75
271
0
272
9
273
9
  0
DICTIONARY
  5
2D
330
A
100
AcDbDictionary
280
1
281
1
  3
CREATED_BY_EZDXF
350
2E
  3
WRITTEN_BY_EZDXF
350
3E
  0
DICTIONARYVAR
  5
2E
330
2D
100
DictionaryVariables
280
0
  1
1.4.3 @ 2026-04-08T00:40:18.779337+00:00
  0
DICTIONARYVAR
  5
3E
330
2D
100
DictionaryVariables
280
0
  1
1.4.3 @ 2026-04-08T00:40:18.786847+00:00
  0
ENDSEC
  0
EOF
