  0
SECTION
  2
HEADER
  9
$ACADVER
  1
AC1024
  9
$ACADMAINTVER
 70
6
  9
$DWGCODEPAGE
  3
ANSI_1252
  9
$LASTSAVEDBY
  1
ezdxf
  9
$INSBASE
 10
0.0
 20
0.0
 30
0.0
  9
$EXTMIN
 10
1e+20
 20
1e+20
 30
1e+20
  9
$EXTMAX
 10
-1e+20
 20
-1e+20
 30
-1e+20
  9
$LIMMIN
 10
0.0
 20
0.0
  9
$LIMMAX
 10
420.0
 20
297.0
  9
$ORTHOMODE
 70
0
  9
$REGENMODE
 70
1
  9
$FILLMODE
 70
1
  9
$QTEXTMODE
 70
0
  9
$MIRRTEXT
 70
1
  9
$LTSCALE
 40
1.0
  9
$ATTMODE
 70
1
  9
$TEXTSIZE
 40
2.5
  9
$TRACEWID
 40
1.0
  9
$TEXTSTYLE
  7
Standard
  9
$CLAYER
  8
0
  9
$CELTYPE
  6
ByLayer
  9
$CECOLOR
 62
256
  9
$CELTSCALE
 40
1.0
  9
$DISPSILH
 70
0
  9
$DIMSCALE
 40
1.0
  9
$DIMASZ
 40
2.5
  9
$DIMEXO
 40
0.625
  9
$DIMDLI
 40
3.75
  9
$DIMRND
 40
0.0
  9
$DIMDLE
 40
0.0
  9
$DIMEXE
 40
1.25
  9
$DIMTP
 40
0.0
  9
$DIMTM
 40
0.0
  9
$DIMTXT
 40
2.5
  9
$DIMCEN
 40
2.5
  9
$DIMTSZ
 40
0.0
  9
$DIMTOL
 70
0
  9
$DIMLIM
 70
0
  9
$DIMTIH
 70
0
  9
$DIMTOH
 70
0
  9
$DIMSE1
 70
0
  9
$DIMSE2
 70
0
  9
$DIMTAD
 70
1
  9
$DIMZIN
 70
8
  9
$DIMBLK
  1

  9
$DIMASO
 70
1
  9
$DIMSHO
 70
1
  9
$DIMPOST
  1

  9
$DIMAPOST
  1

  9
$DIMALT
 70
0
  9
$DIMALTD
 70
3
  9
$DIMALTF
 40
0.03937007874
  9
$DIMLFAC
 40
1.0
  9
$DIMTOFL
 70
1
  9
$DIMTVP
 40
0.0
  9
$DIMTIX
 70
0
  9
$DIMSOXD
 70
0
  9
$DIMSAH
 70
0
  9
$DIMBLK1
  1

  9
$DIMBLK2
  1

  9
$DIMSTYLE
  2
ISO-25
  9
$DIMCLRD
 70
0
  9
$DIMCLRE
 70
0
  9
$DIMCLRT
 70
0
  9
$DIMTFAC
 40
1.0
  9
$DIMGAP
 40
0.625
  9
$DIMJUST
 70
0
  9
$DIMSD1
 70
0
  9
$DIMSD2
 70
0
  9
$DIMTOLJ
 70
0
  9
$DIMTZIN
 70
8
  9
$DIMALTZ
 70
0
  9
$DIMALTTZ
 70
0
  9
$DIMUPT
 70
0
  9
$DIMDEC
 70
2
  9
$DIMTDEC
 70
2
  9
$DIMALTU
 70
2
  9
$DIMALTTD
 70
3
  9
$DIMTXSTY
  7
Standard
  9
$DIMAUNIT
 70
0
  9
$DIMADEC
 70
0
  9
$DIMALTRND
 40
0.0
  9
$DIMAZIN
 70
0
  9
$DIMDSEP
 70
44
  9
$DIMATFIT
 70
3
  9
$DIMFRAC
 70
0
  9
$DIMLDRBLK
  1

  9
$DIMLUNIT
 70
2
  9
$DIMLWD
 70
-2
  9
$DIMLWE
 70
-2
  9
$DIMTMOVE
 70
0
  9
$DIMFXL
 40
1.0
  9
$DIMFXLON
 70
0
  9
$DIMJOGANG
 40
0.785398163397
  9
$DIMTFILL
 70
0
  9
$DIMTFILLCLR
 70
0
  9
$DIMARCSYM
 70
0
  9
$DIMLTYPE
  6

  9
$DIMLTEX1
  6

  9
$DIMLTEX2
  6

  9
$DIMTXTDIRECTION
 70
0
  9
$LUNITS
 70
2
  9
$LUPREC
 70
4
  9
$SKETCHINC
 40
1.0
  9
$FILLETRAD
 40
10.0
  9
$AUNITS
 70
0
  9
$AUPREC
 70
2
  9
$MENU
  1
.
  9
$ELEVATION
 40
0.0
  9
$PELEVATION
 40
0.0
  9
$THICKNESS
 40
0.0
  9
$LIMCHECK
 70
0
  9
$CHAMFERA
 40
0.0
  9
$CHAMFERB
 40
0.0
  9
$CHAMFERC
 40
0.0
  9
$CHAMFERD
 40
0.0
  9
$SKPOLY
 70
0
  9
$TDCREATE
 40
2461138.7153935186
  9
$TDUCREATE
 40
2458532.153996898
  9
$TDUPDATE
 40
2461138.7153935186
  9
$TDUUPDATE
 40
2458532.1544311
  9
$TDINDWG
 40
0.0
  9
$TDUSRTIMER
 40
0.0
  9
$USRTIMER
 70
1
  9
$ANGBASE
 50
0.0
  9
$ANGDIR
 70
0
  9
$PDMODE
 70
0
  9
$PDSIZE
 40
0.0
  9
$PLINEWID
 40
0.0
  9
$SPLFRAME
 70
0
  9
$SPLINETYPE
 70
6
  9
$SPLINESEGS
 70
8
  9
$HANDSEED
  5
107
  9
$SURFTAB1
 70
6
  9
$SURFTAB2
 70
6
  9
$SURFTYPE
 70
6
  9
$SURFU
 70
6
  9
$SURFV
 70
6
  9
$UCSBASE
  2

  9
$UCSNAME
  2

  9
$UCSORG
 10
0.0
 20
0.0
 30
0.0
  9
$UCSXDIR
 10
1.0
 20
0.0
 30
0.0
  9
$UCSYDIR
 10
0.0
 20
1.0
 30
0.0
  9
$UCSORTHOREF
  2

  9
$UCSORTHOVIEW
 70
0
  9
$UCSORGTOP
 10
0.0
 20
0.0
 30
0.0
  9
$UCSORGBOTTOM
 10
0.0
 20
0.0
 30
0.0
  9
$UCSORGLEFT
 10
0.0
 20
0.0
 30
0.0
  9
$UCSORGRIGHT
 10
0.0
 20
0.0
 30
0.0
  9
$UCSORGFRONT
 10
0.0
 20
0.0
 30
0.0
  9
$UCSORGBACK
 10
0.0
 20
0.0
 30
0.0
  9
$PUCSBASE
  2

  9
$PUCSNAME
  2

  9
$PUCSORG
 10
0.0
 20
0.0
 30
0.0
  9
$PUCSXDIR
 10
1.0
 20
0.0
 30
0.0
  9
$PUCSYDIR
 10
0.0
 20
1.0
 30
0.0
  9
$PUCSORTHOREF
  2

  9
$PUCSORTHOVIEW
 70
0
  9
$PUCSORGTOP
 10
0.0
 20
0.0
 30
0.0
  9
$PUCSORGBOTTOM
 10
0.0
 20
0.0
 30
0.0
  9
$PUCSORGLEFT
 10
0.0
 20
0.0
 30
0.0
  9
$PUCSORGRIGHT
 10
0.0
 20
0.0
 30
0.0
  9
$PUCSORGFRONT
 10
0.0
 20
0.0
 30
0.0
  9
$PUCSORGBACK
 10
0.0
 20
0.0
 30
0.0
  9
$USERI1
 70
0
  9
$USERI2
 70
0
  9
$USERI3
 70
0
  9
$USERI4
 70
0
  9
$USERI5
 70
0
  9
$USERR1
 40
0.0
  9
$USERR2
 40
0.0
  9
$USERR3
 40
0.0
  9
$USERR4
 40
0.0
  9
$USERR5
 40
0.0
  9
$WORLDVIEW
 70
1
  9
$SHADEDGE
 70
3
  9
$SHADEDIF
 70
70
  9
$TILEMODE
 70
1
  9
$MAXACTVP
 70
64
  9
$PINSBASE
 10
0.0
 20
0.0
 30
0.0
  9
$PLIMCHECK
 70
0
  9
$PEXTMIN
 10
1e+20
 20
1e+20
 30
1e+20
  9
$PEXTMAX
 10
-1e+20
 20
-1e+20
 30
-1e+20
  9
$PLIMMIN
 10
0.0
 20
0.0
  9
$PLIMMAX
 10
420.0
 20
297.0
  9
$UNITMODE
 70
0
  9
$VISRETAIN
 70
1
  9
$PLINEGEN
 70
0
  9
$PSLTSCALE
 70
1
  9
$TREEDEPTH
 70
3020
  9
$CMLSTYLE
  2
Standard
  9
$CMLJUST
 70
0
  9
$CMLSCALE
 40
20.0
  9
$PROXYGRAPHICS
 70
1
  9
$MEASUREMENT
 70
1
  9
$CELWEIGHT
370
-1
  9
$ENDCAPS
280
0
  9
$JOINSTYLE
280
0
  9
$LWDISPLAY
290
0
  9
$INSUNITS
 70
6
  9
$HYPERLINKBASE
  1

  9
$STYLESHEET
  1

  9
$XEDIT
290
1
  9
$CEPSNTYPE
380
0
  9
$PSTYLEMODE
290
1
  9
$FINGERPRINTGUID
  2
{3E26B6E6-ABD3-4C16-8FD8-9D815BD3596D}
  9
$VERSIONGUID
  2
{3A87768F-2ACF-4DBB-BE1E-27408AB17914}
  9
$EXTNAMES
290
1
  9
$PSVPSCALE
 40
0.0
  9
$OLESTARTUP
290
0
  9
$SORTENTS
280
127
  9
$INDEXCTL
280
0
  9
$HIDETEXT
280
1
  9
$XCLIPFRAME
280
1
  9
$HALOGAP
280
0
  9
$OBSCOLOR
 70
257
  9
$OBSLTYPE
280
0
  9
$INTERSECTIONDISPLAY
280
0
  9
$INTERSECTIONCOLOR
 70
257
  9
$DIMASSOC
280
2
  9
$PROJECTNAME
  1

  9
$CAMERADISPLAY
290
0
  9
$LENSLENGTH
 40
50.0
  9
$CAMERAHEIGHT
 40
0.0
  9
$STEPSPERSEC
 40
24.0
  9
$STEPSIZE
 40
100.0
  9
$3DDWFPREC
 40
2.0
  9
$PSOLWIDTH
 40
0.005
  9
$PSOLHEIGHT
 40
0.08
  9
$LOFTANG1
 40
1.570796326795
  9
$LOFTANG2
 40
1.570796326795
  9
$LOFTMAG1
 40
0.0
  9
$LOFTMAG2
 40
0.0
  9
$LOFTPARAM
 70
7
  9
$LOFTNORMALS
280
1
  9
$LATITUDE
 40
37.795
  9
$LONGITUDE
 40
-122.394
  9
$NORTHDIRECTION
 40
0.0
  9
$TIMEZONE
 70
-8000
  9
$LIGHTGLYPHDISPLAY
280
1
  9
$TILEMODELIGHTSYNCH
280
1
  9
$CMATERIAL
347
20
  9
$SOLIDHIST
280
0
  9
$SHOWHIST
280
1
  9
$DWFFRAME
280
2
  9
$DGNFRAME
280
2
  9
$REALWORLDSCALE
290
1
  9
$INTERFERECOLOR
 62
256
  9
$CSHADOW
280
0
  9
$SHADOWPLANELOCATION
 40
0.0
  0
ENDSEC
  0
SECTION
  2
CLASSES
  0
CLASS
  1
ACDBDICTIONARYWDFLT
  2
AcDbDictionaryWithDefault
  3
ObjectDBX Classes
 90
0
 91
0
280
0
281
0
  0
CLASS
  1
SUN
  2
AcDbSun
  3
SCENEOE
 90
1153
 91
0
280
0
281
0
  0
CLASS
  1
VISUALSTYLE
  2
AcDbVisualStyle
  3
ObjectDBX Classes
 90
4095
 91
0
280
0
281
0
  0
CLASS
  1
MATERIAL
  2
AcDbMaterial
  3
ObjectDBX Classes
 90
1153
 91
0
280
0
281
0
  0
CLASS
  1
SCALE
  2
AcDbScale
  3
ObjectDBX Classes
 90
1153
 91
0
280
0
281
0
  0
CLASS
  1
TABLESTYLE
  2
AcDbTableStyle
  3
ObjectDBX Classes
 90
4095
 91
0
280
0
281
0
  0
CLASS
  1
MLEADERSTYLE
  2
AcDbMLeaderStyle
  3
ACDB_MLEADERSTYLE_CLASS
 90
4095
 91
0
280
0
281
0
  0
CLASS
  1
DICTIONARYVAR
  2
AcDbDictionaryVar
  3
ObjectDBX Classes
 90
0
 91
0
280
0
281
0
  0
CLASS
  1
CELLSTYLEMAP
  2
AcDbCellStyleMap
  3
ObjectDBX Classes
 90
1152
 91
0
280
0
281
0
  0
CLASS
  1
MENTALRAYRENDERSETTINGS
  2
AcDbMentalRayRenderSettings
  3
SCENEOE
 90
1024
 91
0
280
0
281
0
  0
CLASS
  1
ACDBDETAILVIEWSTYLE
  2
AcDbDetailViewStyle
  3
ObjectDBX Classes
 90
1025
 91
0
280
0
281
0
  0
CLASS
  1
ACDBSECTIONVIEWSTYLE
  2
AcDbSectionViewStyle
  3
ObjectDBX Classes
 90
1025
 91
0
280
0
281
0
  0
CLASS
  1
RASTERVARIABLES
  2
AcDbRasterVariables
  3
ISM
 90
0
 91
0
280
0
281
0
  0
CLASS
  1
ACDBPLACEHOLDER
  2
AcDbPlaceHolder
  3
ObjectDBX Classes
 90
0
 91
0
280
0
281
0
  0
CLASS
  1
LAYOUT
  2
AcDbLayout
  3
ObjectDBX Classes
 90
0
 91
0
280
0
281
0
  0
ENDSEC
  0
SECTION
  2
TABLES
  0
TABLE
  2
VPORT
  5
8
330
0
100
AcDbSymbolTable
 70
1
  0
VPORT
  5
23
330
8
100
AcDbSymbolTableRecord
100
AcDbViewportTableRecord
  2
*Active
 70
0
 10
0.0
 20
0.0
 11
1.0
 21
1.0
 12
0.0
 22
0.0
 13
0.0
 23
0.0
 14
0.5
 24
0.5
 15
0.5
 25
0.5
 16
0.0
 26
0.0
 36
1.0
 17
0.0
 27
0.0
 37
0.0
 40
1000.0
 41
1.34
 42
50.0
 43
0.0
 44
0.0
 50
0.0
 51
0.0
 71
0
 72
1000
 73
1
 74
3
 75
0
 76
0
 77
0
 78
0
281
0
 65
0
146
0.0
  0
ENDTAB
  0
TABLE
  2
LTYPE
  5
2
330
0
100
AcDbSymbolTable
 70
3
  0
LTYPE
  5
24
330
2
100
AcDbSymbolTableRecord
100
AcDbLinetypeTableRecord
  2
ByBlock
 70
0
  3

 72
65
 73
0
 40
0.0
  0
LTYPE
  5
25
330
2
100
AcDbSymbolTableRecord
100
AcDbLinetypeTableRecord
  2
ByLayer
 70
0
  3

 72
65
 73
0
 40
0.0
  0
LTYPE
  5
26
330
2
100
AcDbSymbolTableRecord
100
AcDbLinetypeTableRecord
  2
Continuous
 70
0
  3

 72
65
 73
0
 40
0.0
  0
ENDTAB
  0
TABLE
  2
LAYER
  5
1
330
0
100
AcDbSymbolTable
 70
2
  0
LAYER
  5
27
330
1
100
AcDbSymbolTableRecord
100
AcDbLayerTableRecord
  2
0
 70
0
 62
7
  6
Continuous
370
-3
390
13
347
21
  0
LAYER
  5
28
330
1
100
AcDbSymbolTableRecord
100
AcDbLayerTableRecord
  2
Defpoints
 70
0
 62
7
  6
Continuous
290
0
370
-3
390
13
347
21
  0
ENDTAB
  0
TABLE
  2
STYLE
  5
5
330
0
100
AcDbSymbolTable
 70
1
  0
STYLE
  5
29
330
5
100
AcDbSymbolTableRecord
100
AcDbTextStyleTableRecord
  2
Standard
 70
0
 40
0.0
 41
1.0
 50
0.0
 71
0
 42
2.5
  3
txt
  4

  0
ENDTAB
  0
TABLE
  2
VIEW
  5
7
330
0
100
AcDbSymbolTable
 70
0
  0
ENDTAB
  0
TABLE
  2
UCS
  5
6
330
0
100
AcDbSymbolTable
 70
0
  0
ENDTAB
  0
TABLE
  2
APPID
  5
3
330
0
100
AcDbSymbolTable
 70
3
  0
APPID
  5
2A
330
3
100
AcDbSymbolTableRecord
100
AcDbRegAppTableRecord
  2
ACAD
 70
0
  0
APPID
  5
104
330
3
100
AcDbSymbolTableRecord
100
AcDbRegAppTableRecord
  2
HATCHBACKGROUNDCOLOR
 70
0
  0
APPID
  5
105
330
3
100
AcDbSymbolTableRecord
100
AcDbRegAppTableRecord
  2
EZDXF
 70
0
  0
ENDTAB
  0
TABLE
  2
DIMSTYLE
  5
4
330
0
100
AcDbSymbolTable
 70
1
100
AcDbDimStyleTable
  0
DIMSTYLE
105
2B
330
4
100
AcDbSymbolTableRecord
100
AcDbDimStyleTableRecord
  2
Standard
 70
0
 40
1.0
 41
2.5
 42
0.625
 43
3.75
 44
1.25
 45
0.0
 46
0.0
 47
0.0
 48
0.0
 49
2.5
140
2.5
141
2.5
142
0.0
143
0.03937007874
144
1.0
145
0.0
146
1.0
147
0.625
148
0.0
 69
0
 70
0
 71
0
 72
0
 73
0
 74
0
 75
0
 76
0
 77
1
 78
8
 79
3
170
0
171
3
172
1
173
0
174
0
175
0
176
0
177
0
178
0
179
2
271
2
272
2
273
2
274
3
275
0
276
0
277
2
278
44
279
0
280
0
281
0
282
0
283
0
284
8
285
0
286
0
288
0
289
3
290
0
371
-2
372
-2
  0
ENDTAB
  0
TABLE
  2
BLOCK_RECORD
  5
9
330
0
100
AcDbSymbolTable
 70
2
  0
BLOCK_RECORD
  5
17
330
9
100
AcDbSymbolTableRecord
100
AcDbBlockTableRecord
  2
*Model_Space
340
1A
 70
0
280
1
281
0
  0
BLOCK_RECORD
  5
1B
330
9
100
AcDbSymbolTableRecord
100
AcDbBlockTableRecord
  2
*Paper_Space
340
1E
 70
0
280
1
281
0
  0
ENDTAB
  0
ENDSEC
  0
SECTION
  2
BLOCKS
  0
BLOCK
  5
18
330
17
100
AcDbEntity
  8
0
100
AcDbBlockBegin
  2
*Model_Space
 70
0
 10
0.0
 20
0.0
 30
0.0
  3
*Model_Space
  1

  0
ENDBLK
  5
19
330
17
100
AcDbEntity
  8
0
100
AcDbBlockEnd
  0
BLOCK
  5
1C
330
1B
100
AcDbEntity
  8
0
100
AcDbBlockBegin
  2
*Paper_Space
 70
0
 10
0.0
 20
0.0
 30
0.0
  3
*Paper_Space
  1

  0
ENDBLK
  5
1D
330
1B
100
AcDbEntity
  8
0
100
AcDbBlockEnd
  0
ENDSEC
  0
SECTION
  2
ENTITIES
  0
LINE
  5
2F
330
17
100
AcDbEntity
  8
0
100
AcDbLine
 10
593.381
 20
-214.018
 30
0.0
 11
28.410999999999945
 21
-216.50300000000001
 31
0.0
  0
LINE
  5
30
330
17
100
AcDbEntity
  8
0
100
AcDbLine
 10
28.410999999999945
 20
-216.50300000000001
 30
0.0
 11
27.568999999999946
 21
-216.669
 31
0.0
  0
LINE
  5
31
330
17
100
AcDbEntity
  8
0
100
AcDbLine
 10
27.568999999999946
 20
-216.669
 30
0.0
 11
26.760999999999946
 21
-216.937
 31
0.0
  0
LINE
  5
32
330
17
100
AcDbEntity
  8
0
100
AcDbLine
 10
26.760999999999946
 20
-216.937
 30
0.0
 11
25.994999999999948
 21
-217.30200000000002
 31
0.0
  0
LINE
  5
33
330
17
100
AcDbEntity
  8
0
100
AcDbLine
 10
25.994999999999948
 20
-217.30200000000002
 30
0.0
 11
25.279999999999948
 21
-217.75900000000001
 31
0.0
  0
LINE
  5
34
330
17
100
AcDbEntity
  8
0
100
AcDbLine
 10
25.279999999999948
 20
-217.75900000000001
 30
0.0
 11
24.624999999999947
 21
-218.30300000000003
 31
0.0
  0
LINE
  5
35
330
17
100
AcDbEntity
  8
0
100
AcDbLine
 10
24.624999999999947
 20
-218.30300000000003
 30
0.0
 11
24.037999999999947
 21
-218.92900000000003
 31
0.0
  0
LINE
  5
36
330
17
100
AcDbEntity
  8
0
100
AcDbLine
 10
24.037999999999947
 20
-218.92900000000003
 30
0.0
 11
22.029999999999948
 21
-222.11900000000003
 31
0.0
  0
LINE
  5
37
330
17
100
AcDbEntity
  8
0
100
AcDbLine
 10
22.029999999999948
 20
-222.11900000000003
 30
0.0
 11
19.21699999999995
 21
-227.67200000000003
 31
0.0
  0
LINE
  5
38
330
17
100
AcDbEntity
  8
0
100
AcDbLine
 10
19.21699999999995
 20
-227.67200000000003
 30
0.0
 11
18.97099999999995
 21
-228.42100000000002
 31
0.0
  0
LINE
  5
39
330
17
100
AcDbEntity
  8
0
100
AcDbLine
 10
18.97099999999995
 20
-228.42100000000002
 30
0.0
 11
18.80499999999995
 21
-229.19100000000003
 31
0.0
  0
LINE
  5
3A
330
17
100
AcDbEntity
  8
0
100
AcDbLine
 10
18.80499999999995
 20
-229.19100000000003
 30
0.0
 11
18.72099999999995
 21
-229.97500000000002
 31
0.0
  0
LINE
  5
3B
330
17
100
AcDbEntity
  8
0
100
AcDbLine
 10
18.72099999999995
 20
-229.97500000000002
 30
0.0
 11
18.70999999999995
 21
-280.913
 31
0.0
  0
LINE
  5
3C
330
17
100
AcDbEntity
  8
0
100
AcDbLine
 10
18.70999999999995
 20
-280.913
 30
0.0
 11
346.65
 21
-279.913
 31
0.0
  0
LINE
  5
3D
330
17
100
AcDbEntity
  8
0
100
AcDbLine
 10
346.65
 20
-279.913
 30
0.0
 11
373.734
 21
-275.65700000000004
 31
0.0
  0
LINE
  5
3E
330
17
100
AcDbEntity
  8
0
100
AcDbLine
 10
373.734
 20
-275.65700000000004
 30
0.0
 11
408.24
 21
-275.278
 31
0.0
  0
LINE
  5
3F
330
17
100
AcDbEntity
  8
0
100
AcDbLine
 10
408.24
 20
-275.278
 30
0.0
 11
408.27
 21
-275.28200000000004
 31
0.0
  0
LINE
  5
40
330
17
100
AcDbEntity
  8
0
100
AcDbLine
 10
408.27
 20
-275.28200000000004
 30
0.0
 11
408.299
 21
-275.28900000000004
 31
0.0
  0
LINE
  5
41
330
17
100
AcDbEntity
  8
0
100
AcDbLine
 10
408.299
 20
-275.28900000000004
 30
0.0
 11
408.327
 21
-275.29900000000004
 31
0.0
  0
LINE
  5
42
330
17
100
AcDbEntity
  8
0
100
AcDbLine
 10
408.327
 20
-275.29900000000004
 30
0.0
 11
408.354
 21
-275.31100000000004
 31
0.0
  0
LINE
  5
43
330
17
100
AcDbEntity
  8
0
100
AcDbLine
 10
408.354
 20
-275.31100000000004
 30
0.0
 11
408.37899999999996
 21
-275.326
 31
0.0
  0
LINE
  5
44
330
17
100
AcDbEntity
  8
0
100
AcDbLine
 10
408.37899999999996
 20
-275.326
 30
0.0
 11
408.40299999999996
 21
-275.343
 31
0.0
  0
LINE
  5
45
330
17
100
AcDbEntity
  8
0
100
AcDbLine
 10
408.40299999999996
 20
-275.343
 30
0.0
 11
408.42499999999995
 21
-275.363
 31
0.0
  0
LINE
  5
46
330
17
100
AcDbEntity
  8
0
100
AcDbLine
 10
408.42499999999995
 20
-275.363
 30
0.0
 11
408.44499999999994
 21
-275.385
 31
0.0
  0
LINE
  5
47
330
17
100
AcDbEntity
  8
0
100
AcDbLine
 10
408.44499999999994
 20
-275.385
 30
0.0
 11
408.4629999999999
 21
-275.408
 31
0.0
  0
LINE
  5
48
330
17
100
AcDbEntity
  8
0
100
AcDbLine
 10
408.4629999999999
 20
-275.408
 30
0.0
 11
408.4789999999999
 21
-275.433
 31
0.0
  0
LINE
  5
49
330
17
100
AcDbEntity
  8
0
100
AcDbLine
 10
408.4789999999999
 20
-275.433
 30
0.0
 11
408.4919999999999
 21
-275.46
 31
0.0
  0
LINE
  5
4A
330
17
100
AcDbEntity
  8
0
100
AcDbLine
 10
408.4919999999999
 20
-275.46
 30
0.0
 11
408.5019999999999
 21
-275.488
 31
0.0
  0
LINE
  5
4B
330
17
100
AcDbEntity
  8
0
100
AcDbLine
 10
408.5019999999999
 20
-275.488
 30
0.0
 11
408.5099999999999
 21
-275.517
 31
0.0
  0
LINE
  5
4C
330
17
100
AcDbEntity
  8
0
100
AcDbLine
 10
408.5099999999999
 20
-275.517
 30
0.0
 11
408.5149999999999
 21
-275.54699999999997
 31
0.0
  0
LINE
  5
4D
330
17
100
AcDbEntity
  8
0
100
AcDbLine
 10
408.5149999999999
 20
-275.54699999999997
 30
0.0
 11
408.5409999999999
 21
-276.05999999999995
 31
0.0
  0
LINE
  5
4E
330
17
100
AcDbEntity
  8
0
100
AcDbLine
 10
408.5409999999999
 20
-276.05999999999995
 30
0.0
 11
408.6129999999999
 21
-276.52799999999996
 31
0.0
  0
LINE
  5
4F
330
17
100
AcDbEntity
  8
0
100
AcDbLine
 10
408.6129999999999
 20
-276.52799999999996
 30
0.0
 11
408.72899999999987
 21
-276.97999999999996
 31
0.0
  0
LINE
  5
50
330
17
100
AcDbEntity
  8
0
100
AcDbLine
 10
408.72899999999987
 20
-276.97999999999996
 30
0.0
 11
408.88799999999986
 21
-277.41299999999995
 31
0.0
  0
LINE
  5
51
330
17
100
AcDbEntity
  8
0
100
AcDbLine
 10
408.88799999999986
 20
-277.41299999999995
 30
0.0
 11
409.0869999999999
 21
-277.82499999999993
 31
0.0
  0
LINE
  5
52
330
17
100
AcDbEntity
  8
0
100
AcDbLine
 10
409.0869999999999
 20
-277.82499999999993
 30
0.0
 11
409.3239999999999
 21
-278.2129999999999
 31
0.0
  0
LINE
  5
53
330
17
100
AcDbEntity
  8
0
100
AcDbLine
 10
409.3239999999999
 20
-278.2129999999999
 30
0.0
 11
409.5959999999999
 21
-278.57499999999993
 31
0.0
  0
LINE
  5
54
330
17
100
AcDbEntity
  8
0
100
AcDbLine
 10
409.5959999999999
 20
-278.57499999999993
 30
0.0
 11
409.9009999999999
 21
-278.90899999999993
 31
0.0
  0
LINE
  5
55
330
17
100
AcDbEntity
  8
0
100
AcDbLine
 10
409.9009999999999
 20
-278.90899999999993
 30
0.0
 11
410.2359999999999
 21
-279.21199999999993
 31
0.0
  0
LINE
  5
56
330
17
100
AcDbEntity
  8
0
100
AcDbLine
 10
410.2359999999999
 20
-279.21199999999993
 30
0.0
 11
410.59999999999985
 21
-279.4819999999999
 31
0.0
  0
LINE
  5
57
330
17
100
AcDbEntity
  8
0
100
AcDbLine
 10
410.59999999999985
 20
-279.4819999999999
 30
0.0
 11
410.98899999999986
 21
-279.7169999999999
 31
0.0
  0
LINE
  5
58
330
17
100
AcDbEntity
  8
0
100
AcDbLine
 10
410.98899999999986
 20
-279.7169999999999
 30
0.0
 11
411.4019999999999
 21
-279.91399999999993
 31
0.0
  0
LINE
  5
59
330
17
100
AcDbEntity
  8
0
100
AcDbLine
 10
411.4019999999999
 20
-279.91399999999993
 30
0.0
 11
411.8359999999999
 21
-280.0709999999999
 31
0.0
  0
LINE
  5
5A
330
17
100
AcDbEntity
  8
0
100
AcDbLine
 10
411.8359999999999
 20
-280.0709999999999
 30
0.0
 11
412.2879999999999
 21
-280.1849999999999
 31
0.0
  0
LINE
  5
5B
330
17
100
AcDbEntity
  8
0
100
AcDbLine
 10
412.2879999999999
 20
-280.1849999999999
 30
0.0
 11
412.7559999999999
 21
-280.2549999999999
 31
0.0
  0
LINE
  5
5C
330
17
100
AcDbEntity
  8
0
100
AcDbLine
 10
412.7559999999999
 20
-280.2549999999999
 30
0.0
 11
593.3779999999999
 21
-279.0629999999999
 31
0.0
  0
LINE
  5
5D
330
17
100
AcDbEntity
  8
0
100
AcDbLine
 10
593.3779999999999
 20
-279.0629999999999
 30
0.0
 11
593.3779999999999
 21
-214.01699999999988
 31
0.0
  0
LINE
  5
5E
330
17
100
AcDbEntity
  8
0
100
AcDbLine
 10
716.852
 20
-213.48499999999987
 30
0.0
 11
716.852
 21
-278.49399999999986
 31
0.0
  0
LINE
  5
5F
330
17
100
AcDbEntity
  8
0
100
AcDbLine
 10
716.852
 20
-278.49399999999986
 30
0.0
 11
745.168
 21
-278.36399999999986
 31
0.0
  0
LINE
  5
60
330
17
100
AcDbEntity
  8
0
100
AcDbLine
 10
745.168
 20
-278.36399999999986
 30
0.0
 11
745.168
 21
-213.36299999999986
 31
0.0
  0
LINE
  5
61
330
17
100
AcDbEntity
  8
0
100
AcDbLine
 10
745.168
 20
-213.36299999999986
 30
0.0
 11
716.852
 21
-213.48499999999987
 31
0.0
  0
LINE
  5
62
330
17
100
AcDbEntity
  8
0
100
AcDbLine
 10
737.111
 20
-533.0199999999999
 30
0.0
 11
696.279
 21
-449.3699999999999
 31
0.0
  0
LINE
  5
63
330
17
100
AcDbEntity
  8
0
100
AcDbLine
 10
696.279
 20
-449.3699999999999
 30
0.0
 11
674.177
 21
-393.2739999999999
 31
0.0
  0
LINE
  5
64
330
17
100
AcDbEntity
  8
0
100
AcDbLine
 10
674.177
 20
-393.2739999999999
 30
0.0
 11
671.511
 21
-384.1539999999999
 31
0.0
  0
LINE
  5
65
330
17
100
AcDbEntity
  8
0
100
AcDbLine
 10
671.511
 20
-384.1539999999999
 30
0.0
 11
669.932
 21
-374.8099999999999
 31
0.0
  0
LINE
  5
66
330
17
100
AcDbEntity
  8
0
100
AcDbLine
 10
669.932
 20
-374.8099999999999
 30
0.0
 11
669.503
 21
-365.35199999999986
 31
0.0
  0
LINE
  5
67
330
17
100
AcDbEntity
  8
0
100
AcDbLine
 10
669.503
 20
-365.35199999999986
 30
0.0
 11
670.287
 21
-355.88799999999986
 31
0.0
  0
LINE
  5
68
330
17
100
AcDbEntity
  8
0
100
AcDbLine
 10
670.287
 20
-355.88799999999986
 30
0.0
 11
671.499
 21
-349.62199999999984
 31
0.0
  0
LINE
  5
69
330
17
100
AcDbEntity
  8
0
100
AcDbLine
 10
671.499
 20
-349.62199999999984
 30
0.0
 11
673.169
 21
-343.74499999999983
 31
0.0
  0
LINE
  5
6A
330
17
100
AcDbEntity
  8
0
100
AcDbLine
 10
673.169
 20
-343.74499999999983
 30
0.0
 11
675.251
 21
-338.24699999999984
 31
0.0
  0
LINE
  5
6B
330
17
100
AcDbEntity
  8
0
100
AcDbLine
 10
675.251
 20
-338.24699999999984
 30
0.0
 11
677.699
 21
-333.1159999999999
 31
0.0
  0
LINE
  5
6C
330
17
100
AcDbEntity
  8
0
100
AcDbLine
 10
677.699
 20
-333.1159999999999
 30
0.0
 11
680.467
 21
-328.34199999999987
 31
0.0
  0
LINE
  5
6D
330
17
100
AcDbEntity
  8
0
100
AcDbLine
 10
680.467
 20
-328.34199999999987
 30
0.0
 11
683.51
 21
-323.9139999999999
 31
0.0
  0
LINE
  5
6E
330
17
100
AcDbEntity
  8
0
100
AcDbLine
 10
683.51
 20
-323.9139999999999
 30
0.0
 11
690.235
 21
-316.05399999999986
 31
0.0
  0
LINE
  5
6F
330
17
100
AcDbEntity
  8
0
100
AcDbLine
 10
690.235
 20
-316.05399999999986
 30
0.0
 11
697.506
 21
-309.4499999999999
 31
0.0
  0
LINE
  5
70
330
17
100
AcDbEntity
  8
0
100
AcDbLine
 10
697.506
 20
-309.4499999999999
 30
0.0
 11
704.9549999999999
 21
-304.01599999999985
 31
0.0
  0
LINE
  5
71
330
17
100
AcDbEntity
  8
0
100
AcDbLine
 10
704.9549999999999
 20
-304.01599999999985
 30
0.0
 11
712.2149999999999
 21
-299.6659999999998
 31
0.0
  0
LINE
  5
72
330
17
100
AcDbEntity
  8
0
100
AcDbLine
 10
712.2149999999999
 20
-299.6659999999998
 30
0.0
 11
719.1499999999999
 21
-296.1959999999998
 31
0.0
  0
LINE
  5
73
330
17
100
AcDbEntity
  8
0
100
AcDbLine
 10
719.1499999999999
 20
-296.1959999999998
 30
0.0
 11
719.3609999999999
 21
-296.0629999999998
 31
0.0
  0
LINE
  5
74
330
17
100
AcDbEntity
  8
0
100
AcDbLine
 10
719.3609999999999
 20
-296.0629999999998
 30
0.0
 11
719.5529999999999
 21
-295.9169999999998
 31
0.0
  0
LINE
  5
75
330
17
100
AcDbEntity
  8
0
100
AcDbLine
 10
719.5529999999999
 20
-295.9169999999998
 30
0.0
 11
719.7259999999999
 21
-295.7579999999998
 31
0.0
  0
LINE
  5
76
330
17
100
AcDbEntity
  8
0
100
AcDbLine
 10
719.7259999999999
 20
-295.7579999999998
 30
0.0
 11
719.8799999999999
 21
-295.5879999999998
 31
0.0
  0
LINE
  5
77
330
17
100
AcDbEntity
  8
0
100
AcDbLine
 10
719.8799999999999
 20
-295.5879999999998
 30
0.0
 11
720.0149999999999
 21
-295.4079999999998
 31
0.0
  0
LINE
  5
78
330
17
100
AcDbEntity
  8
0
100
AcDbLine
 10
720.0149999999999
 20
-295.4079999999998
 30
0.0
 11
720.1319999999998
 21
-295.2199999999998
 31
0.0
  0
LINE
  5
79
330
17
100
AcDbEntity
  8
0
100
AcDbLine
 10
720.1319999999998
 20
-295.2199999999998
 30
0.0
 11
720.2299999999998
 21
-295.0239999999998
 31
0.0
  0
LINE
  5
7A
330
17
100
AcDbEntity
  8
0
100
AcDbLine
 10
720.2299999999998
 20
-295.0239999999998
 30
0.0
 11
720.3099999999998
 21
-294.8219999999998
 31
0.0
  0
LINE
  5
7B
330
17
100
AcDbEntity
  8
0
100
AcDbLine
 10
720.3099999999998
 20
-294.8219999999998
 30
0.0
 11
720.3729999999998
 21
-294.6149999999998
 31
0.0
  0
LINE
  5
7C
330
17
100
AcDbEntity
  8
0
100
AcDbLine
 10
720.3729999999998
 20
-294.6149999999998
 30
0.0
 11
720.4179999999998
 21
-294.40399999999977
 31
0.0
  0
LINE
  5
7D
330
17
100
AcDbEntity
  8
0
100
AcDbLine
 10
720.4179999999998
 20
-294.40399999999977
 30
0.0
 11
720.4459999999998
 21
-294.19099999999975
 31
0.0
  0
LINE
  5
7E
330
17
100
AcDbEntity
  8
0
100
AcDbLine
 10
720.4459999999998
 20
-294.19099999999975
 30
0.0
 11
720.4569999999998
 21
-293.9759999999998
 31
0.0
  0
LINE
  5
7F
330
17
100
AcDbEntity
  8
0
100
AcDbLine
 10
720.4569999999998
 20
-293.9759999999998
 30
0.0
 11
720.4519999999998
 21
-293.7609999999998
 31
0.0
  0
LINE
  5
80
330
17
100
AcDbEntity
  8
0
100
AcDbLine
 10
720.4519999999998
 20
-293.7609999999998
 30
0.0
 11
720.4299999999997
 21
-293.5469999999998
 31
0.0
  0
LINE
  5
81
330
17
100
AcDbEntity
  8
0
100
AcDbLine
 10
720.4299999999997
 20
-293.5469999999998
 30
0.0
 11
720.3919999999997
 21
-293.3349999999998
 31
0.0
  0
LINE
  5
82
330
17
100
AcDbEntity
  8
0
100
AcDbLine
 10
720.3919999999997
 20
-293.3349999999998
 30
0.0
 11
720.3389999999997
 21
-293.1269999999998
 31
0.0
  0
LINE
  5
83
330
17
100
AcDbEntity
  8
0
100
AcDbLine
 10
720.3389999999997
 20
-293.1269999999998
 30
0.0
 11
720.2699999999998
 21
-292.9239999999998
 31
0.0
  0
LINE
  5
84
330
17
100
AcDbEntity
  8
0
100
AcDbLine
 10
720.2699999999998
 20
-292.9239999999998
 30
0.0
 11
720.1859999999998
 21
-292.72599999999983
 31
0.0
  0
LINE
  5
85
330
17
100
AcDbEntity
  8
0
100
AcDbLine
 10
720.1859999999998
 20
-292.72599999999983
 30
0.0
 11
720.0869999999998
 21
-292.53599999999983
 31
0.0
  0
LINE
  5
86
330
17
100
AcDbEntity
  8
0
100
AcDbLine
 10
720.0869999999998
 20
-292.53599999999983
 30
0.0
 11
719.9729999999997
 21
-292.3539999999998
 31
0.0
  0
LINE
  5
87
330
17
100
AcDbEntity
  8
0
100
AcDbLine
 10
719.9729999999997
 20
-292.3539999999998
 30
0.0
 11
719.8449999999997
 21
-292.1819999999998
 31
0.0
  0
LINE
  5
88
330
17
100
AcDbEntity
  8
0
100
AcDbLine
 10
719.8449999999997
 20
-292.1819999999998
 30
0.0
 11
719.7019999999997
 21
-292.0199999999998
 31
0.0
  0
LINE
  5
89
330
17
100
AcDbEntity
  8
0
100
AcDbLine
 10
719.7019999999997
 20
-292.0199999999998
 30
0.0
 11
719.5449999999996
 21
-291.86999999999983
 31
0.0
  0
LINE
  5
8A
330
17
100
AcDbEntity
  8
0
100
AcDbLine
 10
719.5449999999996
 20
-291.86999999999983
 30
0.0
 11
719.3749999999997
 21
-291.7339999999998
 31
0.0
  0
LINE
  5
8B
330
17
100
AcDbEntity
  8
0
100
AcDbLine
 10
719.3749999999997
 20
-291.7339999999998
 30
0.0
 11
719.1909999999997
 21
-291.6119999999998
 31
0.0
  0
LINE
  5
8C
330
17
100
AcDbEntity
  8
0
100
AcDbLine
 10
719.1909999999997
 20
-291.6119999999998
 30
0.0
 11
718.9939999999997
 21
-291.5059999999998
 31
0.0
  0
LINE
  5
8D
330
17
100
AcDbEntity
  8
0
100
AcDbLine
 10
718.9939999999997
 20
-291.5059999999998
 30
0.0
 11
718.7839999999997
 21
-291.4169999999998
 31
0.0
  0
LINE
  5
8E
330
17
100
AcDbEntity
  8
0
100
AcDbLine
 10
718.7839999999997
 20
-291.4169999999998
 30
0.0
 11
718.5619999999997
 21
-291.3459999999998
 31
0.0
  0
LINE
  5
8F
330
17
100
AcDbEntity
  8
0
100
AcDbLine
 10
718.5619999999997
 20
-291.3459999999998
 30
0.0
 11
718.3269999999997
 21
-291.29399999999976
 31
0.0
  0
LINE
  5
90
330
17
100
AcDbEntity
  8
0
100
AcDbLine
 10
718.3269999999997
 20
-291.29399999999976
 30
0.0
 11
718.0799999999997
 21
-291.2619999999998
 31
0.0
  0
LINE
  5
91
330
17
100
AcDbEntity
  8
0
100
AcDbLine
 10
718.0799999999997
 20
-291.2619999999998
 30
0.0
 11
604.5829999999997
 21
-292.0159999999998
 31
0.0
  0
LINE
  5
92
330
17
100
AcDbEntity
  8
0
100
AcDbLine
 10
604.5829999999997
 20
-292.0159999999998
 30
0.0
 11
603.8049999999997
 21
-292.1349999999998
 31
0.0
  0
LINE
  5
93
330
17
100
AcDbEntity
  8
0
100
AcDbLine
 10
603.8049999999997
 20
-292.1349999999998
 30
0.0
 11
603.0509999999997
 21
-292.3399999999998
 31
0.0
  0
LINE
  5
94
330
17
100
AcDbEntity
  8
0
100
AcDbLine
 10
603.0509999999997
 20
-292.3399999999998
 30
0.0
 11
602.3269999999997
 21
-292.6289999999998
 31
0.0
  0
LINE
  5
95
330
17
100
AcDbEntity
  8
0
100
AcDbLine
 10
602.3269999999997
 20
-292.6289999999998
 30
0.0
 11
601.6399999999996
 21
-292.9979999999998
 31
0.0
  0
LINE
  5
96
330
17
100
AcDbEntity
  8
0
100
AcDbLine
 10
601.6399999999996
 20
-292.9979999999998
 30
0.0
 11
600.9969999999996
 21
-293.44399999999985
 31
0.0
  0
LINE
  5
97
330
17
100
AcDbEntity
  8
0
100
AcDbLine
 10
600.9969999999996
 20
-293.44399999999985
 30
0.0
 11
600.4039999999997
 21
-293.96299999999985
 31
0.0
  0
LINE
  5
98
330
17
100
AcDbEntity
  8
0
100
AcDbLine
 10
600.4039999999997
 20
-293.96299999999985
 30
0.0
 11
579.4839999999997
 21
-319.7479999999999
 31
0.0
  0
LINE
  5
99
330
17
100
AcDbEntity
  8
0
100
AcDbLine
 10
579.4839999999997
 20
-319.7479999999999
 30
0.0
 11
578.2959999999997
 21
-320.94299999999987
 31
0.0
  0
LINE
  5
9A
330
17
100
AcDbEntity
  8
0
100
AcDbLine
 10
578.2959999999997
 20
-320.94299999999987
 30
0.0
 11
577.0459999999997
 21
-321.9519999999999
 31
0.0
  0
LINE
  5
9B
330
17
100
AcDbEntity
  8
0
100
AcDbLine
 10
577.0459999999997
 20
-321.9519999999999
 30
0.0
 11
576.3879999999997
 21
-322.38299999999987
 31
0.0
  0
LINE
  5
9C
330
17
100
AcDbEntity
  8
0
100
AcDbLine
 10
576.3879999999997
 20
-322.38299999999987
 30
0.0
 11
575.7039999999997
 21
-322.76399999999984
 31
0.0
  0
LINE
  5
9D
330
17
100
AcDbEntity
  8
0
100
AcDbLine
 10
575.7039999999997
 20
-322.76399999999984
 30
0.0
 11
574.9899999999997
 21
-323.0939999999998
 31
0.0
  0
LINE
  5
9E
330
17
100
AcDbEntity
  8
0
100
AcDbLine
 10
574.9899999999997
 20
-323.0939999999998
 30
0.0
 11
574.2419999999996
 21
-323.37199999999984
 31
0.0
  0
LINE
  5
9F
330
17
100
AcDbEntity
  8
0
100
AcDbLine
 10
574.2419999999996
 20
-323.37199999999984
 30
0.0
 11
573.4569999999997
 21
-323.59699999999987
 31
0.0
  0
LINE
  5
A0
330
17
100
AcDbEntity
  8
0
100
AcDbLine
 10
573.4569999999997
 20
-323.59699999999987
 30
0.0
 11
572.6309999999996
 21
-323.7669999999999
 31
0.0
  0
LINE
  5
A1
330
17
100
AcDbEntity
  8
0
100
AcDbLine
 10
572.6309999999996
 20
-323.7669999999999
 30
0.0
 11
570.8429999999996
 21
-323.9389999999999
 31
0.0
  0
LINE
  5
A2
330
17
100
AcDbEntity
  8
0
100
AcDbLine
 10
570.8429999999996
 20
-323.9389999999999
 30
0.0
 11
527.1069999999996
 21
-323.9009999999999
 31
0.0
  0
LINE
  5
A3
330
17
100
AcDbEntity
  8
0
100
AcDbLine
 10
527.1069999999996
 20
-323.9009999999999
 30
0.0
 11
525.7899999999996
 21
-323.7039999999999
 31
0.0
  0
LINE
  5
A4
330
17
100
AcDbEntity
  8
0
100
AcDbLine
 10
525.7899999999996
 20
-323.7039999999999
 30
0.0
 11
524.5139999999997
 21
-323.3559999999999
 31
0.0
  0
LINE
  5
A5
330
17
100
AcDbEntity
  8
0
100
AcDbLine
 10
524.5139999999997
 20
-323.3559999999999
 30
0.0
 11
523.2909999999997
 21
-322.8629999999999
 31
0.0
  0
LINE
  5
A6
330
17
100
AcDbEntity
  8
0
100
AcDbLine
 10
523.2909999999997
 20
-322.8629999999999
 30
0.0
 11
522.1329999999997
 21
-322.2309999999999
 31
0.0
  0
LINE
  5
A7
330
17
100
AcDbEntity
  8
0
100
AcDbLine
 10
522.1329999999997
 20
-322.2309999999999
 30
0.0
 11
521.0519999999997
 21
-321.4659999999999
 31
0.0
  0
LINE
  5
A8
330
17
100
AcDbEntity
  8
0
100
AcDbLine
 10
521.0519999999997
 20
-321.4659999999999
 30
0.0
 11
520.0599999999997
 21
-320.5739999999999
 31
0.0
  0
LINE
  5
A9
330
17
100
AcDbEntity
  8
0
100
AcDbLine
 10
520.0599999999997
 20
-320.5739999999999
 30
0.0
 11
519.1689999999998
 21
-319.5619999999999
 31
0.0
  0
LINE
  5
AA
330
17
100
AcDbEntity
  8
0
100
AcDbLine
 10
519.1689999999998
 20
-319.5619999999999
 30
0.0
 11
518.9629999999997
 21
-319.2909999999999
 31
0.0
  0
LINE
  5
AB
330
17
100
AcDbEntity
  8
0
100
AcDbLine
 10
518.9629999999997
 20
-319.2909999999999
 30
0.0
 11
503.63099999999974
 21
-294.8909999999999
 31
0.0
  0
LINE
  5
AC
330
17
100
AcDbEntity
  8
0
100
AcDbLine
 10
503.63099999999974
 20
-294.8909999999999
 30
0.0
 11
503.03899999999976
 21
-294.2549999999999
 31
0.0
  0
LINE
  5
AD
330
17
100
AcDbEntity
  8
0
100
AcDbLine
 10
503.03899999999976
 20
-294.2549999999999
 30
0.0
 11
502.3769999999998
 21
-293.7039999999999
 31
0.0
  0
LINE
  5
AE
330
17
100
AcDbEntity
  8
0
100
AcDbLine
 10
502.3769999999998
 20
-293.7039999999999
 30
0.0
 11
501.6549999999998
 21
-293.2429999999999
 31
0.0
  0
LINE
  5
AF
330
17
100
AcDbEntity
  8
0
100
AcDbLine
 10
501.6549999999998
 20
-293.2429999999999
 30
0.0
 11
500.8819999999998
 21
-292.8769999999999
 31
0.0
  0
LINE
  5
B0
330
17
100
AcDbEntity
  8
0
100
AcDbLine
 10
500.8819999999998
 20
-292.8769999999999
 30
0.0
 11
500.0669999999998
 21
-292.6109999999999
 31
0.0
  0
LINE
  5
B1
330
17
100
AcDbEntity
  8
0
100
AcDbLine
 10
500.0669999999998
 20
-292.6109999999999
 30
0.0
 11
499.21899999999977
 21
-292.4499999999999
 31
0.0
  0
LINE
  5
B2
330
17
100
AcDbEntity
  8
0
100
AcDbLine
 10
499.21899999999977
 20
-292.4499999999999
 30
0.0
 11
407.85399999999976
 21
-292.9829999999999
 31
0.0
  0
LINE
  5
B3
330
17
100
AcDbEntity
  8
0
100
AcDbLine
 10
407.85399999999976
 20
-292.9829999999999
 30
0.0
 11
417.30099999999976
 21
-320.47199999999987
 31
0.0
  0
LINE
  5
B4
330
17
100
AcDbEntity
  8
0
100
AcDbLine
 10
417.30099999999976
 20
-320.47199999999987
 30
0.0
 11
417.6509999999998
 21
-321.1949999999999
 31
0.0
  0
LINE
  5
B5
330
17
100
AcDbEntity
  8
0
100
AcDbLine
 10
417.6509999999998
 20
-321.1949999999999
 30
0.0
 11
418.05099999999976
 21
-321.8769999999999
 31
0.0
  0
LINE
  5
B6
330
17
100
AcDbEntity
  8
0
100
AcDbLine
 10
418.05099999999976
 20
-321.8769999999999
 30
0.0
 11
418.49899999999974
 21
-322.5189999999999
 31
0.0
  0
LINE
  5
B7
330
17
100
AcDbEntity
  8
0
100
AcDbLine
 10
418.49899999999974
 20
-322.5189999999999
 30
0.0
 11
418.99199999999973
 21
-323.1199999999999
 31
0.0
  0
LINE
  5
B8
330
17
100
AcDbEntity
  8
0
100
AcDbLine
 10
418.99199999999973
 20
-323.1199999999999
 30
0.0
 11
419.52699999999976
 21
-323.68099999999987
 31
0.0
  0
LINE
  5
B9
330
17
100
AcDbEntity
  8
0
100
AcDbLine
 10
419.52699999999976
 20
-323.68099999999987
 30
0.0
 11
420.1009999999998
 21
-324.20099999999985
 31
0.0
  0
LINE
  5
BA
330
17
100
AcDbEntity
  8
0
100
AcDbLine
 10
420.1009999999998
 20
-324.20099999999985
 30
0.0
 11
421.3549999999998
 21
-325.12099999999987
 31
0.0
  0
LINE
  5
BB
330
17
100
AcDbEntity
  8
0
100
AcDbLine
 10
421.3549999999998
 20
-325.12099999999987
 30
0.0
 11
422.7319999999998
 21
-325.8819999999999
 31
0.0
  0
LINE
  5
BC
330
17
100
AcDbEntity
  8
0
100
AcDbLine
 10
422.7319999999998
 20
-325.8819999999999
 30
0.0
 11
424.2099999999998
 21
-326.4849999999999
 31
0.0
  0
LINE
  5
BD
330
17
100
AcDbEntity
  8
0
100
AcDbLine
 10
424.2099999999998
 20
-326.4849999999999
 30
0.0
 11
425.7659999999998
 21
-326.9319999999999
 31
0.0
  0
LINE
  5
BE
330
17
100
AcDbEntity
  8
0
100
AcDbLine
 10
425.7659999999998
 20
-326.9319999999999
 30
0.0
 11
499.70199999999977
 21
-342.1709999999999
 31
0.0
  0
LINE
  5
BF
330
17
100
AcDbEntity
  8
0
100
AcDbLine
 10
499.70199999999977
 20
-342.1709999999999
 30
0.0
 11
506.4149999999998
 21
-344.5499999999999
 31
0.0
  0
LINE
  5
C0
330
17
100
AcDbEntity
  8
0
100
AcDbLine
 10
506.4149999999998
 20
-344.5499999999999
 30
0.0
 11
511.8579999999998
 21
-347.1049999999999
 31
0.0
  0
LINE
  5
C1
330
17
100
AcDbEntity
  8
0
100
AcDbLine
 10
511.8579999999998
 20
-347.1049999999999
 30
0.0
 11
514.1969999999998
 21
-348.4839999999999
 31
0.0
  0
LINE
  5
C2
330
17
100
AcDbEntity
  8
0
100
AcDbLine
 10
514.1969999999998
 20
-348.4839999999999
 30
0.0
 11
516.4659999999998
 21
-350.09399999999994
 31
0.0
  0
LINE
  5
C3
330
17
100
AcDbEntity
  8
0
100
AcDbLine
 10
516.4659999999998
 20
-350.09399999999994
 30
0.0
 11
518.5409999999998
 21
-351.8929999999999
 31
0.0
  0
LINE
  5
C4
330
17
100
AcDbEntity
  8
0
100
AcDbLine
 10
518.5409999999998
 20
-351.8929999999999
 30
0.0
 11
520.4369999999998
 21
-353.8619999999999
 31
0.0
  0
LINE
  5
C5
330
17
100
AcDbEntity
  8
0
100
AcDbLine
 10
520.4369999999998
 20
-353.8619999999999
 30
0.0
 11
522.1699999999997
 21
-355.9839999999999
 31
0.0
  0
LINE
  5
C6
330
17
100
AcDbEntity
  8
0
100
AcDbLine
 10
522.1699999999997
 20
-355.9839999999999
 30
0.0
 11
525.2089999999997
 21
-360.61299999999994
 31
0.0
  0
LINE
  5
C7
330
17
100
AcDbEntity
  8
0
100
AcDbLine
 10
525.2089999999997
 20
-360.61299999999994
 30
0.0
 11
527.7819999999997
 21
-365.63499999999993
 31
0.0
  0
LINE
  5
C8
330
17
100
AcDbEntity
  8
0
100
AcDbLine
 10
527.7819999999997
 20
-365.63499999999993
 30
0.0
 11
633.1549999999997
 21
-630.146
 31
0.0
  0
LINE
  5
C9
330
17
100
AcDbEntity
  8
0
100
AcDbLine
 10
633.1549999999997
 20
-630.146
 30
0.0
 11
633.7999999999997
 21
-631.3399999999999
 31
0.0
  0
LINE
  5
CA
330
17
100
AcDbEntity
  8
0
100
AcDbLine
 10
633.7999999999997
 20
-631.3399999999999
 30
0.0
 11
634.5249999999997
 21
-632.473
 31
0.0
  0
LINE
  5
CB
330
17
100
AcDbEntity
  8
0
100
AcDbLine
 10
634.5249999999997
 20
-632.473
 30
0.0
 11
635.3259999999998
 21
-633.5409999999999
 31
0.0
  0
LINE
  5
CC
330
17
100
AcDbEntity
  8
0
100
AcDbLine
 10
635.3259999999998
 20
-633.5409999999999
 30
0.0
 11
636.1979999999998
 21
-634.5409999999999
 31
0.0
  0
LINE
  5
CD
330
17
100
AcDbEntity
  8
0
100
AcDbLine
 10
636.1979999999998
 20
-634.5409999999999
 30
0.0
 11
637.1359999999997
 21
-635.4699999999999
 31
0.0
  0
LINE
  5
CE
330
17
100
AcDbEntity
  8
0
100
AcDbLine
 10
637.1359999999997
 20
-635.4699999999999
 30
0.0
 11
638.1359999999997
 21
-636.3249999999999
 31
0.0
  0
LINE
  5
CF
330
17
100
AcDbEntity
  8
0
100
AcDbLine
 10
638.1359999999997
 20
-636.3249999999999
 30
0.0
 11
639.1939999999997
 21
-637.103
 31
0.0
  0
LINE
  5
D0
330
17
100
AcDbEntity
  8
0
100
AcDbLine
 10
639.1939999999997
 20
-637.103
 30
0.0
 11
640.3049999999997
 21
-637.8009999999999
 31
0.0
  0
LINE
  5
D1
330
17
100
AcDbEntity
  8
0
100
AcDbLine
 10
640.3049999999997
 20
-637.8009999999999
 30
0.0
 11
641.4639999999997
 21
-638.4159999999999
 31
0.0
  0
LINE
  5
D2
330
17
100
AcDbEntity
  8
0
100
AcDbLine
 10
641.4639999999997
 20
-638.4159999999999
 30
0.0
 11
642.6669999999997
 21
-638.9449999999999
 31
0.0
  0
LINE
  5
D3
330
17
100
AcDbEntity
  8
0
100
AcDbLine
 10
642.6669999999997
 20
-638.9449999999999
 30
0.0
 11
643.9089999999997
 21
-639.385
 31
0.0
  0
LINE
  5
D4
330
17
100
AcDbEntity
  8
0
100
AcDbLine
 10
643.9089999999997
 20
-639.385
 30
0.0
 11
645.1859999999997
 21
-639.732
 31
0.0
  0
LINE
  5
D5
330
17
100
AcDbEntity
  8
0
100
AcDbLine
 10
645.1859999999997
 20
-639.732
 30
0.0
 11
646.4939999999997
 21
-639.9839999999999
 31
0.0
  0
LINE
  5
D6
330
17
100
AcDbEntity
  8
0
100
AcDbLine
 10
646.4939999999997
 20
-639.9839999999999
 30
0.0
 11
647.8279999999996
 21
-640.137
 31
0.0
  0
LINE
  5
D7
330
17
100
AcDbEntity
  8
0
100
AcDbLine
 10
647.8279999999996
 20
-640.137
 30
0.0
 11
757.2189999999996
 21
-640.092
 31
0.0
  0
LINE
  5
D8
330
17
100
AcDbEntity
  8
0
100
AcDbLine
 10
757.2189999999996
 20
-640.092
 30
0.0
 11
759.0279999999996
 21
-639.808
 31
0.0
  0
LINE
  5
D9
330
17
100
AcDbEntity
  8
0
100
AcDbLine
 10
759.0279999999996
 20
-639.808
 30
0.0
 11
760.7739999999995
 21
-639.346
 31
0.0
  0
LINE
  5
DA
330
17
100
AcDbEntity
  8
0
100
AcDbLine
 10
760.7739999999995
 20
-639.346
 30
0.0
 11
762.4459999999996
 21
-638.716
 31
0.0
  0
LINE
  5
DB
330
17
100
AcDbEntity
  8
0
100
AcDbLine
 10
762.4459999999996
 20
-638.716
 30
0.0
 11
764.0349999999996
 21
-637.928
 31
0.0
  0
LINE
  5
DC
330
17
100
AcDbEntity
  8
0
100
AcDbLine
 10
764.0349999999996
 20
-637.928
 30
0.0
 11
765.5319999999996
 21
-636.991
 31
0.0
  0
LINE
  5
DD
330
17
100
AcDbEntity
  8
0
100
AcDbLine
 10
765.5319999999996
 20
-636.991
 30
0.0
 11
766.9259999999996
 21
-635.915
 31
0.0
  0
LINE
  5
DE
330
17
100
AcDbEntity
  8
0
100
AcDbLine
 10
766.9259999999996
 20
-635.915
 30
0.0
 11
768.2079999999996
 21
-634.7099999999999
 31
0.0
  0
LINE
  5
DF
330
17
100
AcDbEntity
  8
0
100
AcDbLine
 10
768.2079999999996
 20
-634.7099999999999
 30
0.0
 11
769.3689999999996
 21
-633.3849999999999
 31
0.0
  0
LINE
  5
E0
330
17
100
AcDbEntity
  8
0
100
AcDbLine
 10
769.3689999999996
 20
-633.3849999999999
 30
0.0
 11
770.3979999999996
 21
-631.9499999999999
 31
0.0
  0
LINE
  5
E1
330
17
100
AcDbEntity
  8
0
100
AcDbLine
 10
770.3979999999996
 20
-631.9499999999999
 30
0.0
 11
771.2859999999996
 21
-630.415
 31
0.0
  0
LINE
  5
E2
330
17
100
AcDbEntity
  8
0
100
AcDbLine
 10
771.2859999999996
 20
-630.415
 30
0.0
 11
772.0239999999997
 21
-628.789
 31
0.0
  0
LINE
  5
E3
330
17
100
AcDbEntity
  8
0
100
AcDbLine
 10
772.0239999999997
 20
-628.789
 30
0.0
 11
772.6009999999997
 21
-627.082
 31
0.0
  0
LINE
  5
E4
330
17
100
AcDbEntity
  8
0
100
AcDbLine
 10
772.6009999999997
 20
-627.082
 30
0.0
 11
773.0079999999997
 21
-625.304
 31
0.0
  0
LINE
  5
E5
330
17
100
AcDbEntity
  8
0
100
AcDbLine
 10
773.0079999999997
 20
-625.304
 30
0.0
 11
773.2359999999996
 21
-623.4649999999999
 31
0.0
  0
LINE
  5
E6
330
17
100
AcDbEntity
  8
0
100
AcDbLine
 10
773.2359999999996
 20
-623.4649999999999
 30
0.0
 11
773.2739999999997
 21
-621.574
 31
0.0
  0
LINE
  5
E7
330
17
100
AcDbEntity
  8
0
100
AcDbLine
 10
773.2739999999997
 20
-621.574
 30
0.0
 11
772.6469999999997
 21
-614.775
 31
0.0
  0
LINE
  5
E8
330
17
100
AcDbEntity
  8
0
100
AcDbLine
 10
772.6469999999997
 20
-614.775
 30
0.0
 11
771.1039999999997
 21
-607.153
 31
0.0
  0
LINE
  5
E9
330
17
100
AcDbEntity
  8
0
100
AcDbLine
 10
771.1039999999997
 20
-607.153
 30
0.0
 11
764.8749999999997
 21
-588.645
 31
0.0
  0
LINE
  5
EA
330
17
100
AcDbEntity
  8
0
100
AcDbLine
 10
764.8749999999997
 20
-588.645
 30
0.0
 11
737.1089999999997
 21
-533.02
 31
0.0
  0
LINE
  5
EB
330
17
100
AcDbEntity
  8
0
100
AcDbLine
 10
283.86499999999967
 20
-293.371
 30
0.0
 11
359.87699999999967
 21
-293.371
 31
0.0
  0
LINE
  5
EC
330
17
100
AcDbEntity
  8
0
100
AcDbLine
 10
359.87699999999967
 20
-293.371
 30
0.0
 11
359.91599999999966
 21
-296.25199999999995
 31
0.0
  0
LINE
  5
ED
330
17
100
AcDbEntity
  8
0
100
AcDbLine
 10
359.91599999999966
 20
-296.25199999999995
 30
0.0
 11
360.68999999999966
 21
-303.24899999999997
 31
0.0
  0
LINE
  5
EE
330
17
100
AcDbEntity
  8
0
100
AcDbLine
 10
360.68999999999966
 20
-303.24899999999997
 30
0.0
 11
361.66099999999966
 21
-307.52
 31
0.0
  0
LINE
  5
EF
330
17
100
AcDbEntity
  8
0
100
AcDbLine
 10
361.66099999999966
 20
-307.52
 30
0.0
 11
363.18499999999966
 21
-311.895
 31
0.0
  0
LINE
  5
F0
330
17
100
AcDbEntity
  8
0
100
AcDbLine
 10
363.18499999999966
 20
-311.895
 30
0.0
 11
364.19299999999964
 21
-314.025
 31
0.0
  0
LINE
  5
F1
330
17
100
AcDbEntity
  8
0
100
AcDbLine
 10
364.19299999999964
 20
-314.025
 30
0.0
 11
365.38499999999965
 21
-316.065
 31
0.0
  0
LINE
  5
F2
330
17
100
AcDbEntity
  8
0
100
AcDbLine
 10
365.38499999999965
 20
-316.065
 30
0.0
 11
366.77699999999965
 21
-317.977
 31
0.0
  0
LINE
  5
F3
330
17
100
AcDbEntity
  8
0
100
AcDbLine
 10
366.77699999999965
 20
-317.977
 30
0.0
 11
368.3839999999997
 21
-319.722
 31
0.0
  0
LINE
  5
F4
330
17
100
AcDbEntity
  8
0
100
AcDbLine
 10
368.3839999999997
 20
-319.722
 30
0.0
 11
319.18999999999966
 21
-319.59999999999997
 31
0.0
  0
LINE
  5
F5
330
17
100
AcDbEntity
  8
0
100
AcDbLine
 10
319.18999999999966
 20
-319.59999999999997
 30
0.0
 11
316.0399999999997
 21
-319.239
 31
0.0
  0
LINE
  5
F6
330
17
100
AcDbEntity
  8
0
100
AcDbLine
 10
316.0399999999997
 20
-319.239
 30
0.0
 11
312.9549999999997
 21
-318.647
 31
0.0
  0
LINE
  5
F7
330
17
100
AcDbEntity
  8
0
100
AcDbLine
 10
312.9549999999997
 20
-318.647
 30
0.0
 11
309.9469999999997
 21
-317.831
 31
0.0
  0
LINE
  5
F8
330
17
100
AcDbEntity
  8
0
100
AcDbLine
 10
309.9469999999997
 20
-317.831
 30
0.0
 11
307.0259999999997
 21
-316.79900000000004
 31
0.0
  0
LINE
  5
F9
330
17
100
AcDbEntity
  8
0
100
AcDbLine
 10
307.0259999999997
 20
-316.79900000000004
 30
0.0
 11
304.2039999999997
 21
-315.559
 31
0.0
  0
LINE
  5
FA
330
17
100
AcDbEntity
  8
0
100
AcDbLine
 10
304.2039999999997
 20
-315.559
 30
0.0
 11
301.49199999999973
 21
-314.11800000000005
 31
0.0
  0
LINE
  5
FB
330
17
100
AcDbEntity
  8
0
100
AcDbLine
 10
301.49199999999973
 20
-314.11800000000005
 30
0.0
 11
298.9009999999997
 21
-312.48400000000004
 31
0.0
  0
LINE
  5
FC
330
17
100
AcDbEntity
  8
0
100
AcDbLine
 10
298.9009999999997
 20
-312.48400000000004
 30
0.0
 11
296.4419999999997
 21
-310.66400000000004
 31
0.0
  0
LINE
  5
FD
330
17
100
AcDbEntity
  8
0
100
AcDbLine
 10
296.4419999999997
 20
-310.66400000000004
 30
0.0
 11
294.12599999999975
 21
-308.66600000000005
 31
0.0
  0
LINE
  5
FE
330
17
100
AcDbEntity
  8
0
100
AcDbLine
 10
294.12599999999975
 20
-308.66600000000005
 30
0.0
 11
291.96499999999975
 21
-306.49800000000005
 31
0.0
  0
LINE
  5
FF
330
17
100
AcDbEntity
  8
0
100
AcDbLine
 10
291.96499999999975
 20
-306.49800000000005
 30
0.0
 11
289.96899999999977
 21
-304.16700000000003
 31
0.0
  0
LINE
  5
100
330
17
100
AcDbEntity
  8
0
100
AcDbLine
 10
289.96899999999977
 20
-304.16700000000003
 30
0.0
 11
288.14999999999975
 21
-301.68100000000004
 31
0.0
  0
LINE
  5
101
330
17
100
AcDbEntity
  8
0
100
AcDbLine
 10
288.14999999999975
 20
-301.68100000000004
 30
0.0
 11
286.5189999999998
 21
-299.04800000000006
 31
0.0
  0
LINE
  5
102
330
17
100
AcDbEntity
  8
0
100
AcDbLine
 10
286.5189999999998
 20
-299.04800000000006
 30
0.0
 11
285.08699999999976
 21
-296.27500000000003
 31
0.0
  0
LINE
  5
103
330
17
100
AcDbEntity
  8
0
100
AcDbLine
 10
285.08699999999976
 20
-296.27500000000003
 30
0.0
 11
283.8649999999998
 21
-293.37000000000006
 31
0.0
  0
ENDSEC
  0
SECTION
  2
OBJECTS
  0
DICTIONARY
  5
A
330
0
100
AcDbDictionary
281
1
  3
ACAD_COLOR
350
B
  3
ACAD_GROUP
350
C
  3
ACAD_LAYOUT
350
D
  3
ACAD_MATERIAL
350
E
  3
ACAD_MLEADERSTYLE
350
F
  3
ACAD_MLINESTYLE
350
10
  3
ACAD_PLOTSETTINGS
350
11
  3
ACAD_PLOTSTYLENAME
350
12
  3
ACAD_SCALELIST
350
14
  3
ACAD_TABLESTYLE
350
15
  3
ACAD_VISUALSTYLE
350
16
  3
EZDXF_META
350
2D
  0
DICTIONARY
  5
B
330
A
100
AcDbDictionary
281
1
  0
DICTIONARY
  5
C
330
A
100
AcDbDictionary
281
1
  0
DICTIONARY
  5
D
330
A
100
AcDbDictionary
281
1
  3
Model
350
1A
  3
Layout1
350
1E
  0
DICTIONARY
  5
E
330
A
100
AcDbDictionary
281
1
  3
ByBlock
350
1F
  3
ByLayer
350
20
  3
Global
350
21
  0
DICTIONARY
  5
F
330
A
100
AcDbDictionary
281
1
  3
Standard
350
2C
  0
DICTIONARY
  5
10
330
A
100
AcDbDictionary
281
1
  3
Standard
350
22
  0
DICTIONARY
  5
11
330
A
100
AcDbDictionary
281
1
  0
ACDBDICTIONARYWDFLT
  5
12
330
A
100
AcDbDictionary
281
1
  3
Normal
350
13
100
AcDbDictionaryWithDefault
340
13
  0
ACDBPLACEHOLDER
  5
13
330
12
  0
DICTIONARY
  5
14
330
A
100
AcDbDictionary
281
1
  0
DICTIONARY
  5
15
330
A
100
AcDbDictionary
281
1
  0
DICTIONARY
  5
16
330
A
100
AcDbDictionary
281
1
  0
LAYOUT
  5
1A
330
D
100
AcDbPlotSettings
  1

  4
A3
  6

 40
7.5
 41
20.0
 42
7.5
 43
20.0
 44
420.0
 45
297.0
 46
0.0
 47
0.0
 48
0.0
 49
0.0
140
0.0
141
0.0
142
1.0
143
1.0
 70
1024
 72
1
 73
0
 74
5
  7

 75
16
 76
0
 77
2
 78
300
147
1.0
148
0.0
149
0.0
100
AcDbLayout
  1
Model
 70
1
 71
0
 10
0.0
 20
0.0
 11
420.0
 21
297.0
 12
0.0
 22
0.0
 32
0.0
 14
1e+20
 24
1e+20
 34
1e+20
 15
-1e+20
 25
-1e+20
 35
-1e+20
146
0.0
 13
0.0
 23
0.0
 33
0.0
 16
1.0
 26
0.0
 36
0.0
 17
0.0
 27
1.0
 37
0.0
 76
1
330
17
  0
LAYOUT
  5
1E
330
D
100
AcDbPlotSettings
  1

  4
A3
  6

 40
7.5
 41
20.0
 42
7.5
 43
20.0
 44
420.0
 45
297.0
 46
0.0
 47
0.0
 48
0.0
 49
0.0
140
0.0
141
0.0
142
1.0
143
1.0
 70
0
 72
1
 73
0
 74
5
  7

 75
16
 76
0
 77
2
 78
300
147
1.0
148
0.0
149
0.0
100
AcDbLayout
  1
Layout1
 70
1
 71
1
 10
0.0
 20
0.0
 11
420.0
 21
297.0
 12
0.0
 22
0.0
 32
0.0
 14
1e+20
 24
1e+20
 34
1e+20
 15
-1e+20
 25
-1e+20
 35
-1e+20
146
0.0
 13
0.0
 23
0.0
 33
0.0
 16
1.0
 26
0.0
 36
0.0
 17
0.0
 27
1.0
 37
0.0
 76
1
330
1B
  0
MATERIAL
  5
1F
102
{ACAD_REACTORS
330
E
102
}
330
E
100
AcDbMaterial
  1
ByBlock
  2

 70
0
 40
1.0
 71
1
 41
1.0
 91
-1023410177
 42
1.0
 72
1
  3

 73
1
 74
1
 75
1
 44
0.5
 73
0
 45
1.0
 46
1.0
 77
1
  4

 78
1
 79
1
170
1
 48
1.0
171
1
  6

172
1
173
1
174
1
140
1.0
141
1.0
175
1
  7

176
1
177
1
178
1
143
1.0
179
1
  8

270
1
271
1
272
1
145
1.0
146
1.0
273
1
  9

274
1
275
1
276
1
 42
1.0
 72
1
  3

 73
1
 74
1
 75
1
 94
63
  0
MATERIAL
  5
20
102
{ACAD_REACTORS
330
E
102
}
330
E
100
AcDbMaterial
  1
ByLayer
  2

 70
0
 40
1.0
 71
1
 41
1.0
 91
-1023410177
 42
1.0
 72
1
  3

 73
1
 74
1
 75
1
 44
0.5
 73
0
 45
1.0
 46
1.0
 77
1
  4

 78
1
 79
1
170
1
 48
1.0
171
1
  6

172
1
173
1
174
1
140
1.0
141
1.0
175
1
  7

176
1
177
1
178
1
143
1.0
179
1
  8

270
1
271
1
272
1
145
1.0
146
1.0
273
1
  9

274
1
275
1
276
1
 42
1.0
 72
1
  3

 73
1
 74
1
 75
1
 94
63
  0
MATERIAL
  5
21
102
{ACAD_REACTORS
330
E
102
}
330
E
100
AcDbMaterial
  1
Global
  2

 70
0
 40
1.0
 71
1
 41
1.0
 91
-1023410177
 42
1.0
 72
1
  3

 73
1
 74
1
 75
1
 44
0.5
 73
0
 45
1.0
 46
1.0
 77
1
  4

 78
1
 79
1
170
1
 48
1.0
171
1
  6

172
1
173
1
174
1
140
1.0
141
1.0
175
1
  7

176
1
177
1
178
1
143
1.0
179
1
  8

270
1
271
1
272
1
145
1.0
146
1.0
273
1
  9

274
1
275
1
276
1
 42
1.0
 72
1
  3

 73
1
 74
1
 75
1
 94
63
  0
MLINESTYLE
  5
22
102
{ACAD_REACTORS
330
10
102
}
330
10
100
AcDbMlineStyle
  2
Standard
 70
0
  3

 62
256
 51
90.0
 52
90.0
 71
2
 49
0.5
 62
256
  6
BYLAYER
 49
-0.5
 62
256
  6
BYLAYER
  0
MLEADERSTYLE
  5
2C
102
{ACAD_REACTORS
330
F
102
}
330
F
100
AcDbMLeaderStyle
179
2
170
2
171
1
172
0
 90
2
 40
0.0
 41
0.0
173
1
 91
-1056964608
 92
-2
290
1
 42
2.0
291
1
 43
8.0
  3
Standard
 44
4.0
300

342
29
174
1
175
1
176
0
178
1
 93
-1056964608
 45
4.0
292
0
297
0
 46
4.0
 94
-1056964608
 47
1.0
 49
1.0
140
1.0
294
1
141
0.0
177
0
142
1.0
295
0
296
0
143
3.75
271
0
272
9
273
9
  0
DICTIONARY
  5
2D
330
A
100
AcDbDictionary
280
1
281
1
  3
CREATED_BY_EZDXF
350
2E
  3
WRITTEN_BY_EZDXF
350
106
  0
DICTIONARYVAR
  5
2E
330
2D
100
DictionaryVariables
280
0
  1
1.4.3 @ 2026-04-08T00:10:10.903848+00:00
  0
DICTIONARYVAR
  5
106
330
2D
100
DictionaryVariables
280
0
  1
1.4.3 @ 2026-04-08T00:10:10.905978+00:00
  0
ENDSEC
  0
EOF
