  0
SECTION
  2
HEADER
  9
$ACADVER
  1
AC1024
  9
$ACADMAINTVER
 70
6
  9
$DWGCODEPAGE
  3
ANSI_1252
  9
$LASTSAVEDBY
  1
ezdxf
  9
$INSBASE
 10
0.0
 20
0.0
 30
0.0
  9
$EXTMIN
 10
1e+20
 20
1e+20
 30
1e+20
  9
$EXTMAX
 10
-1e+20
 20
-1e+20
 30
-1e+20
  9
$LIMMIN
 10
0.0
 20
0.0
  9
$LIMMAX
 10
420.0
 20
297.0
  9
$ORTHOMODE
 70
0
  9
$REGENMODE
 70
1
  9
$FILLMODE
 70
1
  9
$QTEXTMODE
 70
0
  9
$MIRRTEXT
 70
1
  9
$LTSCALE
 40
1.0
  9
$ATTMODE
 70
1
  9
$TEXTSIZE
 40
2.5
  9
$TRACEWID
 40
1.0
  9
$TEXTSTYLE
  7
Standard
  9
$CLAYER
  8
0
  9
$CELTYPE
  6
ByLayer
  9
$CECOLOR
 62
256
  9
$CELTSCALE
 40
1.0
  9
$DISPSILH
 70
0
  9
$DIMSCALE
 40
1.0
  9
$DIMASZ
 40
2.5
  9
$DIMEXO
 40
0.625
  9
$DIMDLI
 40
3.75
  9
$DIMRND
 40
0.0
  9
$DIMDLE
 40
0.0
  9
$DIMEXE
 40
1.25
  9
$DIMTP
 40
0.0
  9
$DIMTM
 40
0.0
  9
$DIMTXT
 40
2.5
  9
$DIMCEN
 40
2.5
  9
$DIMTSZ
 40
0.0
  9
$DIMTOL
 70
0
  9
$DIMLIM
 70
0
  9
$DIMTIH
 70
0
  9
$DIMTOH
 70
0
  9
$DIMSE1
 70
0
  9
$DIMSE2
 70
0
  9
$DIMTAD
 70
1
  9
$DIMZIN
 70
8
  9
$DIMBLK
  1

  9
$DIMASO
 70
1
  9
$DIMSHO
 70
1
  9
$DIMPOST
  1

  9
$DIMAPOST
  1

  9
$DIMALT
 70
0
  9
$DIMALTD
 70
3
  9
$DIMALTF
 40
0.03937007874
  9
$DIMLFAC
 40
1.0
  9
$DIMTOFL
 70
1
  9
$DIMTVP
 40
0.0
  9
$DIMTIX
 70
0
  9
$DIMSOXD
 70
0
  9
$DIMSAH
 70
0
  9
$DIMBLK1
  1

  9
$DIMBLK2
  1

  9
$DIMSTYLE
  2
ISO-25
  9
$DIMCLRD
 70
0
  9
$DIMCLRE
 70
0
  9
$DIMCLRT
 70
0
  9
$DIMTFAC
 40
1.0
  9
$DIMGAP
 40
0.625
  9
$DIMJUST
 70
0
  9
$DIMSD1
 70
0
  9
$DIMSD2
 70
0
  9
$DIMTOLJ
 70
0
  9
$DIMTZIN
 70
8
  9
$DIMALTZ
 70
0
  9
$DIMALTTZ
 70
0
  9
$DIMUPT
 70
0
  9
$DIMDEC
 70
2
  9
$DIMTDEC
 70
2
  9
$DIMALTU
 70
2
  9
$DIMALTTD
 70
3
  9
$DIMTXSTY
  7
Standard
  9
$DIMAUNIT
 70
0
  9
$DIMADEC
 70
0
  9
$DIMALTRND
 40
0.0
  9
$DIMAZIN
 70
0
  9
$DIMDSEP
 70
44
  9
$DIMATFIT
 70
3
  9
$DIMFRAC
 70
0
  9
$DIMLDRBLK
  1

  9
$DIMLUNIT
 70
2
  9
$DIMLWD
 70
-2
  9
$DIMLWE
 70
-2
  9
$DIMTMOVE
 70
0
  9
$DIMFXL
 40
1.0
  9
$DIMFXLON
 70
0
  9
$DIMJOGANG
 40
0.785398163397
  9
$DIMTFILL
 70
0
  9
$DIMTFILLCLR
 70
0
  9
$DIMARCSYM
 70
0
  9
$DIMLTYPE
  6

  9
$DIMLTEX1
  6

  9
$DIMLTEX2
  6

  9
$DIMTXTDIRECTION
 70
0
  9
$LUNITS
 70
2
  9
$LUPREC
 70
4
  9
$SKETCHINC
 40
1.0
  9
$FILLETRAD
 40
10.0
  9
$AUNITS
 70
0
  9
$AUPREC
 70
2
  9
$MENU
  1
.
  9
$ELEVATION
 40
0.0
  9
$PELEVATION
 40
0.0
  9
$THICKNESS
 40
0.0
  9
$LIMCHECK
 70
0
  9
$CHAMFERA
 40
0.0
  9
$CHAMFERB
 40
0.0
  9
$CHAMFERC
 40
0.0
  9
$CHAMFERD
 40
0.0
  9
$SKPOLY
 70
0
  9
$TDCREATE
 40
2461140.609224537
  9
$TDUCREATE
 40
2458532.153996898
  9
$TDUPDATE
 40
2461140.609224537
  9
$TDUUPDATE
 40
2458532.1544311
  9
$TDINDWG
 40
0.0
  9
$TDUSRTIMER
 40
0.0
  9
$USRTIMER
 70
1
  9
$ANGBASE
 50
0.0
  9
$ANGDIR
 70
0
  9
$PDMODE
 70
0
  9
$PDSIZE
 40
0.0
  9
$PLINEWID
 40
0.0
  9
$SPLFRAME
 70
0
  9
$SPLINETYPE
 70
6
  9
$SPLINESEGS
 70
8
  9
$HANDSEED
  5
25A
  9
$SURFTAB1
 70
6
  9
$SURFTAB2
 70
6
  9
$SURFTYPE
 70
6
  9
$SURFU
 70
6
  9
$SURFV
 70
6
  9
$UCSBASE
  2

  9
$UCSNAME
  2

  9
$UCSORG
 10
0.0
 20
0.0
 30
0.0
  9
$UCSXDIR
 10
1.0
 20
0.0
 30
0.0
  9
$UCSYDIR
 10
0.0
 20
1.0
 30
0.0
  9
$UCSORTHOREF
  2

  9
$UCSORTHOVIEW
 70
0
  9
$UCSORGTOP
 10
0.0
 20
0.0
 30
0.0
  9
$UCSORGBOTTOM
 10
0.0
 20
0.0
 30
0.0
  9
$UCSORGLEFT
 10
0.0
 20
0.0
 30
0.0
  9
$UCSORGRIGHT
 10
0.0
 20
0.0
 30
0.0
  9
$UCSORGFRONT
 10
0.0
 20
0.0
 30
0.0
  9
$UCSORGBACK
 10
0.0
 20
0.0
 30
0.0
  9
$PUCSBASE
  2

  9
$PUCSNAME
  2

  9
$PUCSORG
 10
0.0
 20
0.0
 30
0.0
  9
$PUCSXDIR
 10
1.0
 20
0.0
 30
0.0
  9
$PUCSYDIR
 10
0.0
 20
1.0
 30
0.0
  9
$PUCSORTHOREF
  2

  9
$PUCSORTHOVIEW
 70
0
  9
$PUCSORGTOP
 10
0.0
 20
0.0
 30
0.0
  9
$PUCSORGBOTTOM
 10
0.0
 20
0.0
 30
0.0
  9
$PUCSORGLEFT
 10
0.0
 20
0.0
 30
0.0
  9
$PUCSORGRIGHT
 10
0.0
 20
0.0
 30
0.0
  9
$PUCSORGFRONT
 10
0.0
 20
0.0
 30
0.0
  9
$PUCSORGBACK
 10
0.0
 20
0.0
 30
0.0
  9
$USERI1
 70
0
  9
$USERI2
 70
0
  9
$USERI3
 70
0
  9
$USERI4
 70
0
  9
$USERI5
 70
0
  9
$USERR1
 40
0.0
  9
$USERR2
 40
0.0
  9
$USERR3
 40
0.0
  9
$USERR4
 40
0.0
  9
$USERR5
 40
0.0
  9
$WORLDVIEW
 70
1
  9
$SHADEDGE
 70
3
  9
$SHADEDIF
 70
70
  9
$TILEMODE
 70
1
  9
$MAXACTVP
 70
64
  9
$PINSBASE
 10
0.0
 20
0.0
 30
0.0
  9
$PLIMCHECK
 70
0
  9
$PEXTMIN
 10
1e+20
 20
1e+20
 30
1e+20
  9
$PEXTMAX
 10
-1e+20
 20
-1e+20
 30
-1e+20
  9
$PLIMMIN
 10
0.0
 20
0.0
  9
$PLIMMAX
 10
420.0
 20
297.0
  9
$UNITMODE
 70
0
  9
$VISRETAIN
 70
1
  9
$PLINEGEN
 70
0
  9
$PSLTSCALE
 70
1
  9
$TREEDEPTH
 70
3020
  9
$CMLSTYLE
  2
Standard
  9
$CMLJUST
 70
0
  9
$CMLSCALE
 40
20.0
  9
$PROXYGRAPHICS
 70
1
  9
$MEASUREMENT
 70
1
  9
$CELWEIGHT
370
-1
  9
$ENDCAPS
280
0
  9
$JOINSTYLE
280
0
  9
$LWDISPLAY
290
0
  9
$INSUNITS
 70
4
  9
$HYPERLINKBASE
  1

  9
$STYLESHEET
  1

  9
$XEDIT
290
1
  9
$CEPSNTYPE
380
0
  9
$PSTYLEMODE
290
1
  9
$FINGERPRINTGUID
  2
{A53AFDED-8B6D-4EBB-AC87-416FFAD21271}
  9
$VERSIONGUID
  2
{1E1422EB-A85C-465D-8420-0A7FC208C9BF}
  9
$EXTNAMES
290
1
  9
$PSVPSCALE
 40
0.0
  9
$OLESTARTUP
290
0
  9
$SORTENTS
280
127
  9
$INDEXCTL
280
0
  9
$HIDETEXT
280
1
  9
$XCLIPFRAME
280
1
  9
$HALOGAP
280
0
  9
$OBSCOLOR
 70
257
  9
$OBSLTYPE
280
0
  9
$INTERSECTIONDISPLAY
280
0
  9
$INTERSECTIONCOLOR
 70
257
  9
$DIMASSOC
280
2
  9
$PROJECTNAME
  1

  9
$CAMERADISPLAY
290
0
  9
$LENSLENGTH
 40
50.0
  9
$CAMERAHEIGHT
 40
0.0
  9
$STEPSPERSEC
 40
24.0
  9
$STEPSIZE
 40
100.0
  9
$3DDWFPREC
 40
2.0
  9
$PSOLWIDTH
 40
0.005
  9
$PSOLHEIGHT
 40
0.08
  9
$LOFTANG1
 40
1.570796326795
  9
$LOFTANG2
 40
1.570796326795
  9
$LOFTMAG1
 40
0.0
  9
$LOFTMAG2
 40
0.0
  9
$LOFTPARAM
 70
7
  9
$LOFTNORMALS
280
1
  9
$LATITUDE
 40
37.795
  9
$LONGITUDE
 40
-122.394
  9
$NORTHDIRECTION
 40
0.0
  9
$TIMEZONE
 70
-8000
  9
$LIGHTGLYPHDISPLAY
280
1
  9
$TILEMODELIGHTSYNCH
280
1
  9
$CMATERIAL
347
20
  9
$SOLIDHIST
280
0
  9
$SHOWHIST
280
1
  9
$DWFFRAME
280
2
  9
$DGNFRAME
280
2
  9
$REALWORLDSCALE
290
1
  9
$INTERFERECOLOR
 62
256
  9
$CSHADOW
280
0
  9
$SHADOWPLANELOCATION
 40
0.0
  0
ENDSEC
  0
SECTION
  2
CLASSES
  0
CLASS
  1
ACDBDICTIONARYWDFLT
  2
AcDbDictionaryWithDefault
  3
ObjectDBX Classes
 90
0
 91
0
280
0
281
0
  0
CLASS
  1
SUN
  2
AcDbSun
  3
SCENEOE
 90
1153
 91
0
280
0
281
0
  0
CLASS
  1
VISUALSTYLE
  2
AcDbVisualStyle
  3
ObjectDBX Classes
 90
4095
 91
0
280
0
281
0
  0
CLASS
  1
MATERIAL
  2
AcDbMaterial
  3
ObjectDBX Classes
 90
1153
 91
0
280
0
281
0
  0
CLASS
  1
SCALE
  2
AcDbScale
  3
ObjectDBX Classes
 90
1153
 91
0
280
0
281
0
  0
CLASS
  1
TABLESTYLE
  2
AcDbTableStyle
  3
ObjectDBX Classes
 90
4095
 91
0
280
0
281
0
  0
CLASS
  1
MLEADERSTYLE
  2
AcDbMLeaderStyle
  3
ACDB_MLEADERSTYLE_CLASS
 90
4095
 91
0
280
0
281
0
  0
CLASS
  1
DICTIONARYVAR
  2
AcDbDictionaryVar
  3
ObjectDBX Classes
 90
0
 91
0
280
0
281
0
  0
CLASS
  1
CELLSTYLEMAP
  2
AcDbCellStyleMap
  3
ObjectDBX Classes
 90
1152
 91
0
280
0
281
0
  0
CLASS
  1
MENTALRAYRENDERSETTINGS
  2
AcDbMentalRayRenderSettings
  3
SCENEOE
 90
1024
 91
0
280
0
281
0
  0
CLASS
  1
ACDBDETAILVIEWSTYLE
  2
AcDbDetailViewStyle
  3
ObjectDBX Classes
 90
1025
 91
0
280
0
281
0
  0
CLASS
  1
ACDBSECTIONVIEWSTYLE
  2
AcDbSectionViewStyle
  3
ObjectDBX Classes
 90
1025
 91
0
280
0
281
0
  0
CLASS
  1
RASTERVARIABLES
  2
AcDbRasterVariables
  3
ISM
 90
0
 91
0
280
0
281
0
  0
CLASS
  1
LAYOUT
  2
AcDbLayout
  3
ObjectDBX Classes
 90
0
 91
0
280
0
281
0
  0
CLASS
  1
ACDBPLACEHOLDER
  2
AcDbPlaceHolder
  3
ObjectDBX Classes
 90
0
 91
0
280
0
281
0
  0
ENDSEC
  0
SECTION
  2
TABLES
  0
TABLE
  2
VPORT
  5
8
330
0
100
AcDbSymbolTable
 70
1
  0
VPORT
  5
23
330
8
100
AcDbSymbolTableRecord
100
AcDbViewportTableRecord
  2
*Active
 70
0
 10
0.0
 20
0.0
 11
1.0
 21
1.0
 12
0.0
 22
0.0
 13
0.0
 23
0.0
 14
0.5
 24
0.5
 15
0.5
 25
0.5
 16
0.0
 26
0.0
 36
1.0
 17
0.0
 27
0.0
 37
0.0
 40
1000.0
 41
1.34
 42
50.0
 43
0.0
 44
0.0
 50
0.0
 51
0.0
 71
0
 72
1000
 73
1
 74
3
 75
0
 76
0
 77
0
 78
0
281
0
 65
0
146
0.0
  0
ENDTAB
  0
TABLE
  2
LTYPE
  5
2
330
0
100
AcDbSymbolTable
 70
3
  0
LTYPE
  5
24
330
2
100
AcDbSymbolTableRecord
100
AcDbLinetypeTableRecord
  2
ByBlock
 70
0
  3

 72
65
 73
0
 40
0.0
  0
LTYPE
  5
25
330
2
100
AcDbSymbolTableRecord
100
AcDbLinetypeTableRecord
  2
ByLayer
 70
0
  3

 72
65
 73
0
 40
0.0
  0
LTYPE
  5
26
330
2
100
AcDbSymbolTableRecord
100
AcDbLinetypeTableRecord
  2
Continuous
 70
0
  3

 72
65
 73
0
 40
0.0
  0
ENDTAB
  0
TABLE
  2
LAYER
  5
1
330
0
100
AcDbSymbolTable
 70
2
  0
LAYER
  5
27
330
1
100
AcDbSymbolTableRecord
100
AcDbLayerTableRecord
  2
0
 70
0
 62
7
  6
Continuous
370
-3
390
13
347
21
  0
LAYER
  5
28
330
1
100
AcDbSymbolTableRecord
100
AcDbLayerTableRecord
  2
Defpoints
 70
0
 62
7
  6
Continuous
290
0
370
-3
390
13
347
21
  0
ENDTAB
  0
TABLE
  2
STYLE
  5
5
330
0
100
AcDbSymbolTable
 70
1
  0
STYLE
  5
29
330
5
100
AcDbSymbolTableRecord
100
AcDbTextStyleTableRecord
  2
Standard
 70
0
 40
0.0
 41
1.0
 50
0.0
 71
0
 42
2.5
  3
txt
  4

  0
ENDTAB
  0
TABLE
  2
VIEW
  5
7
330
0
100
AcDbSymbolTable
 70
0
  0
ENDTAB
  0
TABLE
  2
UCS
  5
6
330
0
100
AcDbSymbolTable
 70
0
  0
ENDTAB
  0
TABLE
  2
APPID
  5
3
330
0
100
AcDbSymbolTable
 70
3
  0
APPID
  5
2A
330
3
100
AcDbSymbolTableRecord
100
AcDbRegAppTableRecord
  2
ACAD
 70
0
  0
APPID
  5
257
330
3
100
AcDbSymbolTableRecord
100
AcDbRegAppTableRecord
  2
HATCHBACKGROUNDCOLOR
 70
0
  0
APPID
  5
258
330
3
100
AcDbSymbolTableRecord
100
AcDbRegAppTableRecord
  2
EZDXF
 70
0
  0
ENDTAB
  0
TABLE
  2
DIMSTYLE
  5
4
330
0
100
AcDbSymbolTable
 70
1
100
AcDbDimStyleTable
  0
DIMSTYLE
105
2B
330
4
100
AcDbSymbolTableRecord
100
AcDbDimStyleTableRecord
  2
Standard
 70
0
 40
1.0
 41
2.5
 42
0.625
 43
3.75
 44
1.25
 45
0.0
 46
0.0
 47
0.0
 48
0.0
 49
2.5
140
2.5
141
2.5
142
0.0
143
0.03937007874
144
1.0
145
0.0
146
1.0
147
0.625
148
0.0
 69
0
 70
0
 71
0
 72
0
 73
0
 74
0
 75
0
 76
0
 77
1
 78
8
 79
3
170
0
171
3
172
1
173
0
174
0
175
0
176
0
177
0
178
0
179
2
271
2
272
2
273
2
274
3
275
0
276
0
277
2
278
44
279
0
280
0
281
0
282
0
283
0
284
8
285
0
286
0
288
0
289
3
290
0
371
-2
372
-2
  0
ENDTAB
  0
TABLE
  2
BLOCK_RECORD
  5
9
330
0
100
AcDbSymbolTable
 70
3
  0
BLOCK_RECORD
  5
17
330
9
100
AcDbSymbolTableRecord
100
AcDbBlockTableRecord
  2
*Model_Space
340
1A
 70
0
280
1
281
0
  0
BLOCK_RECORD
  5
1B
330
9
100
AcDbSymbolTableRecord
100
AcDbBlockTableRecord
  2
*Paper_Space
340
1E
 70
0
280
1
281
0
  0
BLOCK_RECORD
  5
2F
330
9
100
AcDbSymbolTableRecord
100
AcDbBlockTableRecord
  2
HEX
340
0
 70
0
280
1
281
0
  0
ENDTAB
  0
ENDSEC
  0
SECTION
  2
BLOCKS
  0
BLOCK
  5
18
330
17
100
AcDbEntity
  8
0
100
AcDbBlockBegin
  2
*Model_Space
 70
0
 10
0.0
 20
0.0
 30
0.0
  3
*Model_Space
  1

  0
ENDBLK
  5
19
330
17
100
AcDbEntity
  8
0
100
AcDbBlockEnd
  0
BLOCK
  5
1C
330
1B
100
AcDbEntity
  8
0
100
AcDbBlockBegin
  2
*Paper_Space
 70
0
 10
0.0
 20
0.0
 30
0.0
  3
*Paper_Space
  1

  0
ENDBLK
  5
1D
330
1B
100
AcDbEntity
  8
0
100
AcDbBlockEnd
  0
BLOCK
  5
30
330
2F
100
AcDbEntity
  8
0
100
AcDbBlockBegin
  2
HEX
 70
0
 10
0.0
 20
0.0
 30
0.0
  3
HEX
  1

  0
LWPOLYLINE
  5
32
330
2F
100
AcDbEntity
  8
0
100
AcDbPolyline
 90
6
 70
1
 10
1.516
 20
0.875
 10
0.0
 20
1.75
 10
-1.516
 20
0.875
 10
-1.516
 20
-0.875
 10
-0.0
 20
-1.75
 10
1.516
 20
-0.875
  0
ENDBLK
  5
31
330
2F
100
AcDbEntity
  8
0
100
AcDbBlockEnd
  0
ENDSEC
  0
SECTION
  2
ENTITIES
  0
LWPOLYLINE
  5
33
330
17
100
AcDbEntity
  8
0
100
AcDbPolyline
 90
6
 70
1
 10
16.702
 20
-29.874
 10
16.702
 20
-29.441
 10
18.217
 20
-28.566
 10
19.733
 20
-29.441
 10
19.733
 20
-29.874
 10
16.702
 20
-29.874
  0
LWPOLYLINE
  5
34
330
17
100
AcDbEntity
  8
0
100
AcDbPolyline
 90
6
 70
1
 10
20.233
 20
-29.874
 10
20.233
 20
-29.441
 10
21.748
 20
-28.566
 10
23.264
 20
-29.441
 10
23.264
 20
-29.874
 10
20.233
 20
-29.874
  0
LWPOLYLINE
  5
35
330
17
100
AcDbEntity
  8
0
100
AcDbPolyline
 90
6
 70
1
 10
23.764
 20
-29.874
 10
23.764
 20
-29.441
 10
25.279
 20
-28.566
 10
26.795
 20
-29.441
 10
26.795
 20
-29.874
 10
23.764
 20
-29.874
  0
LWPOLYLINE
  5
36
330
17
100
AcDbEntity
  8
0
100
AcDbPolyline
 90
6
 70
1
 10
27.295
 20
-29.874
 10
27.295
 20
-29.441
 10
28.81
 20
-28.566
 10
30.326
 20
-29.441
 10
30.326
 20
-29.874
 10
27.295
 20
-29.874
  0
LWPOLYLINE
  5
37
330
17
100
AcDbEntity
  8
0
100
AcDbPolyline
 90
6
 70
1
 10
30.826
 20
-29.874
 10
30.826
 20
-29.441
 10
32.342
 20
-28.566
 10
33.857
 20
-29.441
 10
33.857
 20
-29.874
 10
30.826
 20
-29.874
  0
LWPOLYLINE
  5
38
330
17
100
AcDbEntity
  8
0
100
AcDbPolyline
 90
6
 70
1
 10
34.357
 20
-29.874
 10
34.357
 20
-29.441
 10
35.873
 20
-28.566
 10
37.388
 20
-29.441
 10
37.388
 20
-29.874
 10
34.357
 20
-29.874
  0
LWPOLYLINE
  5
39
330
17
100
AcDbEntity
  8
0
100
AcDbPolyline
 90
6
 70
1
 10
37.888
 20
-29.874
 10
37.888
 20
-29.441
 10
39.404
 20
-28.566
 10
40.919
 20
-29.441
 10
40.919
 20
-29.874
 10
37.888
 20
-29.874
  0
LWPOLYLINE
  5
3A
330
17
100
AcDbEntity
  8
0
100
AcDbPolyline
 90
6
 70
1
 10
41.419
 20
-29.874
 10
41.419
 20
-29.441
 10
42.935
 20
-28.566
 10
44.45
 20
-29.441
 10
44.45
 20
-29.874
 10
41.419
 20
-29.874
  0
LWPOLYLINE
  5
3B
330
17
100
AcDbEntity
  8
0
100
AcDbPolyline
 90
6
 70
1
 10
44.95
 20
-29.874
 10
44.95
 20
-29.441
 10
46.466
 20
-28.566
 10
47.981
 20
-29.441
 10
47.981
 20
-29.874
 10
44.95
 20
-29.874
  0
LWPOLYLINE
  5
3C
330
17
100
AcDbEntity
  8
0
100
AcDbPolyline
 90
6
 70
1
 10
48.481
 20
-29.874
 10
48.481
 20
-29.441
 10
49.997
 20
-28.566
 10
51.513
 20
-29.441
 10
51.513
 20
-29.874
 10
48.481
 20
-29.874
  0
LWPOLYLINE
  5
3D
330
17
100
AcDbEntity
  8
0
100
AcDbPolyline
 90
6
 70
1
 10
52.013
 20
-29.874
 10
52.013
 20
-29.441
 10
53.528
 20
-28.566
 10
55.044
 20
-29.441
 10
55.044
 20
-29.874
 10
52.013
 20
-29.874
  0
LWPOLYLINE
  5
3E
330
17
100
AcDbEntity
  8
0
100
AcDbPolyline
 90
6
 70
1
 10
55.544
 20
-29.874
 10
55.544
 20
-29.441
 10
57.059
 20
-28.566
 10
58.575
 20
-29.441
 10
58.575
 20
-29.874
 10
55.544
 20
-29.874
  0
LWPOLYLINE
  5
3F
330
17
100
AcDbEntity
  8
0
100
AcDbPolyline
 90
6
 70
1
 10
59.075
 20
-29.874
 10
59.075
 20
-29.441
 10
60.59
 20
-28.566
 10
62.106
 20
-29.441
 10
62.106
 20
-29.874
 10
59.075
 20
-29.874
  0
LWPOLYLINE
  5
40
330
17
100
AcDbEntity
  8
0
100
AcDbPolyline
 90
6
 70
1
 10
62.606
 20
-29.874
 10
62.606
 20
-29.441
 10
64.121
 20
-28.566
 10
65.637
 20
-29.441
 10
65.637
 20
-29.874
 10
62.606
 20
-29.874
  0
LWPOLYLINE
  5
41
330
17
100
AcDbEntity
  8
0
100
AcDbPolyline
 90
6
 70
1
 10
66.137
 20
-29.874
 10
66.137
 20
-29.441
 10
67.652
 20
-28.566
 10
69.168
 20
-29.441
 10
69.168
 20
-29.874
 10
66.137
 20
-29.874
  0
LWPOLYLINE
  5
42
330
17
100
AcDbEntity
  8
0
100
AcDbPolyline
 90
6
 70
1
 10
69.668
 20
-29.874
 10
69.668
 20
-29.441
 10
71.184
 20
-28.566
 10
72.699
 20
-29.441
 10
72.699
 20
-29.874
 10
69.668
 20
-29.874
  0
LWPOLYLINE
  5
43
330
17
100
AcDbEntity
  8
0
100
AcDbPolyline
 90
6
 70
1
 10
73.199
 20
-29.874
 10
73.199
 20
-29.441
 10
74.715
 20
-28.566
 10
76.23
 20
-29.441
 10
76.23
 20
-29.874
 10
73.199
 20
-29.874
  0
LWPOLYLINE
  5
44
330
17
100
AcDbEntity
  8
0
100
AcDbPolyline
 90
5
 70
1
 10
77.577
 20
-29.874
 10
76.73
 20
-29.874
 10
76.73
 20
-29.441
 10
77.812
 20
-28.817
 10
77.577
 20
-29.874
  0
LWPOLYLINE
  5
45
330
17
100
AcDbEntity
  8
0
100
AcDbPolyline
 90
5
 70
1
 10
107.753
 20
-29.874
 10
107.753
 20
-29.293
 10
108.01
 20
-29.441
 10
108.01
 20
-29.874
 10
107.753
 20
-29.874
  0
LWPOLYLINE
  5
46
330
17
100
AcDbEntity
  8
0
100
AcDbPolyline
 90
6
 70
1
 10
108.51
 20
-29.874
 10
108.51
 20
-29.441
 10
110.026
 20
-28.566
 10
111.541
 20
-29.441
 10
111.541
 20
-29.874
 10
108.51
 20
-29.874
  0
LWPOLYLINE
  5
47
330
17
100
AcDbEntity
  8
0
100
AcDbPolyline
 90
6
 70
1
 10
112.041
 20
-29.874
 10
112.041
 20
-29.441
 10
113.557
 20
-28.566
 10
115.072
 20
-29.441
 10
115.072
 20
-29.874
 10
112.041
 20
-29.874
  0
LWPOLYLINE
  5
48
330
17
100
AcDbEntity
  8
0
100
AcDbPolyline
 90
6
 70
1
 10
115.572
 20
-29.874
 10
115.572
 20
-29.441
 10
117.088
 20
-28.566
 10
118.603
 20
-29.441
 10
118.603
 20
-29.874
 10
115.572
 20
-29.874
  0
LWPOLYLINE
  5
49
330
17
100
AcDbEntity
  8
0
100
AcDbPolyline
 90
6
 70
1
 10
119.103
 20
-29.874
 10
119.103
 20
-29.441
 10
120.619
 20
-28.566
 10
122.134
 20
-29.441
 10
122.134
 20
-29.874
 10
119.103
 20
-29.874
  0
LWPOLYLINE
  5
4A
330
17
100
AcDbEntity
  8
0
100
AcDbPolyline
 90
6
 70
1
 10
122.634
 20
-29.874
 10
122.634
 20
-29.441
 10
124.15
 20
-28.566
 10
125.665
 20
-29.441
 10
125.665
 20
-29.874
 10
122.634
 20
-29.874
  0
LWPOLYLINE
  5
4B
330
17
100
AcDbEntity
  8
0
100
AcDbPolyline
 90
6
 70
1
 10
126.165
 20
-29.874
 10
126.165
 20
-29.441
 10
127.681
 20
-28.566
 10
129.197
 20
-29.441
 10
129.197
 20
-29.874
 10
126.165
 20
-29.874
  0
LWPOLYLINE
  5
4C
330
17
100
AcDbEntity
  8
0
100
AcDbPolyline
 90
6
 70
1
 10
129.697
 20
-29.874
 10
129.697
 20
-29.441
 10
131.212
 20
-28.566
 10
132.728
 20
-29.441
 10
132.728
 20
-29.874
 10
129.697
 20
-29.874
  0
LWPOLYLINE
  5
4D
330
17
100
AcDbEntity
  8
0
100
AcDbPolyline
 90
6
 70
1
 10
133.228
 20
-29.874
 10
133.228
 20
-29.441
 10
134.743
 20
-28.566
 10
136.259
 20
-29.441
 10
136.259
 20
-29.874
 10
133.228
 20
-29.874
  0
LWPOLYLINE
  5
4E
330
17
100
AcDbEntity
  8
0
100
AcDbPolyline
 90
6
 70
1
 10
136.759
 20
-29.874
 10
136.759
 20
-29.441
 10
138.274
 20
-28.566
 10
139.79
 20
-29.441
 10
139.79
 20
-29.874
 10
136.759
 20
-29.874
  0
LWPOLYLINE
  5
4F
330
17
100
AcDbEntity
  8
0
100
AcDbPolyline
 90
6
 70
1
 10
140.29
 20
-29.874
 10
140.29
 20
-29.441
 10
141.805
 20
-28.566
 10
143.321
 20
-29.441
 10
143.321
 20
-29.874
 10
140.29
 20
-29.874
  0
LWPOLYLINE
  5
50
330
17
100
AcDbEntity
  8
0
100
AcDbPolyline
 90
6
 70
1
 10
143.821
 20
-29.874
 10
143.821
 20
-29.441
 10
145.336
 20
-28.566
 10
146.852
 20
-29.441
 10
146.852
 20
-29.874
 10
143.821
 20
-29.874
  0
LWPOLYLINE
  5
51
330
17
100
AcDbEntity
  8
0
100
AcDbPolyline
 90
6
 70
1
 10
147.352
 20
-29.874
 10
147.352
 20
-29.441
 10
148.868
 20
-28.566
 10
150.383
 20
-29.441
 10
150.383
 20
-29.874
 10
147.352
 20
-29.874
  0
LWPOLYLINE
  5
52
330
17
100
AcDbEntity
  8
0
100
AcDbPolyline
 90
6
 70
1
 10
150.883
 20
-29.874
 10
150.883
 20
-29.441
 10
152.399
 20
-28.566
 10
153.914
 20
-29.441
 10
153.914
 20
-29.874
 10
150.883
 20
-29.874
  0
LWPOLYLINE
  5
53
330
17
100
AcDbEntity
  8
0
100
AcDbPolyline
 90
6
 70
1
 10
154.414
 20
-29.874
 10
154.414
 20
-29.441
 10
155.93
 20
-28.566
 10
157.445
 20
-29.441
 10
157.445
 20
-29.874
 10
154.414
 20
-29.874
  0
LWPOLYLINE
  5
54
330
17
100
AcDbEntity
  8
0
100
AcDbPolyline
 90
6
 70
1
 10
157.945
 20
-29.874
 10
157.945
 20
-29.441
 10
159.461
 20
-28.566
 10
160.976
 20
-29.441
 10
160.976
 20
-29.874
 10
157.945
 20
-29.874
  0
LWPOLYLINE
  5
55
330
17
100
AcDbEntity
  8
0
100
AcDbPolyline
 90
6
 70
1
 10
161.476
 20
-29.874
 10
161.476
 20
-29.441
 10
162.992
 20
-28.566
 10
164.507
 20
-29.441
 10
164.507
 20
-29.874
 10
161.476
 20
-29.874
  0
LWPOLYLINE
  5
56
330
17
100
AcDbEntity
  8
0
100
AcDbPolyline
 90
6
 70
1
 10
165.007
 20
-29.874
 10
165.007
 20
-29.441
 10
166.523
 20
-28.566
 10
168.039
 20
-29.441
 10
168.039
 20
-29.874
 10
165.007
 20
-29.874
  0
LWPOLYLINE
  5
57
330
17
100
AcDbEntity
  8
0
100
AcDbPolyline
 90
6
 70
1
 10
168.539
 20
-29.874
 10
168.539
 20
-29.441
 10
170.054
 20
-28.566
 10
171.57
 20
-29.441
 10
171.57
 20
-29.874
 10
168.539
 20
-29.874
  0
LWPOLYLINE
  5
58
330
17
100
AcDbEntity
  8
0
100
AcDbPolyline
 90
6
 70
1
 10
172.07
 20
-29.874
 10
172.07
 20
-29.441
 10
173.585
 20
-28.566
 10
175.101
 20
-29.441
 10
175.101
 20
-29.874
 10
172.07
 20
-29.874
  0
LWPOLYLINE
  5
59
330
17
100
AcDbEntity
  8
0
100
AcDbPolyline
 90
6
 70
1
 10
175.601
 20
-29.874
 10
175.601
 20
-29.441
 10
177.116
 20
-28.566
 10
178.632
 20
-29.441
 10
178.632
 20
-29.874
 10
175.601
 20
-29.874
  0
LWPOLYLINE
  5
5A
330
17
100
AcDbEntity
  8
0
100
AcDbPolyline
 90
6
 70
1
 10
179.132
 20
-29.874
 10
179.132
 20
-29.441
 10
180.647
 20
-28.566
 10
182.163
 20
-29.441
 10
182.163
 20
-29.874
 10
179.132
 20
-29.874
  0
LWPOLYLINE
  5
5B
330
17
100
AcDbEntity
  8
0
100
AcDbPolyline
 90
5
 70
1
 10
184.01
 20
-29.874
 10
182.663
 20
-29.874
 10
182.663
 20
-29.441
 10
184.01
 20
-28.664
 10
184.01
 20
-29.874
  0
LWPOLYLINE
  5
5C
330
17
100
AcDbEntity
  8
0
100
AcDbPolyline
 90
7
 70
1
 10
16.421
 20
-25.526
 10
16.452
 20
-25.508
 10
17.967
 20
-26.383
 10
17.967
 20
-28.133
 10
16.452
 20
-29.008
 10
16.421
 20
-28.99
 10
16.421
 20
-25.526
  0
INSERT
  5
5D
330
17
100
AcDbEntity
  8
0
100
AcDbBlockReference
  2
HEX
 10
19.983
 20
-27.258
 30
0.0
  0
INSERT
  5
5F
330
17
100
AcDbEntity
  8
0
100
AcDbBlockReference
  2
HEX
 10
23.514
 20
-27.258
 30
0.0
  0
INSERT
  5
61
330
17
100
AcDbEntity
  8
0
100
AcDbBlockReference
  2
HEX
 10
27.045
 20
-27.258
 30
0.0
  0
INSERT
  5
63
330
17
100
AcDbEntity
  8
0
100
AcDbBlockReference
  2
HEX
 10
30.576
 20
-27.258
 30
0.0
  0
INSERT
  5
65
330
17
100
AcDbEntity
  8
0
100
AcDbBlockReference
  2
HEX
 10
34.107
 20
-27.258
 30
0.0
  0
INSERT
  5
67
330
17
100
AcDbEntity
  8
0
100
AcDbBlockReference
  2
HEX
 10
37.638
 20
-27.258
 30
0.0
  0
INSERT
  5
69
330
17
100
AcDbEntity
  8
0
100
AcDbBlockReference
  2
HEX
 10
41.169
 20
-27.258
 30
0.0
  0
INSERT
  5
6B
330
17
100
AcDbEntity
  8
0
100
AcDbBlockReference
  2
HEX
 10
44.7
 20
-27.258
 30
0.0
  0
INSERT
  5
6D
330
17
100
AcDbEntity
  8
0
100
AcDbBlockReference
  2
HEX
 10
48.231
 20
-27.258
 30
0.0
  0
INSERT
  5
6F
330
17
100
AcDbEntity
  8
0
100
AcDbBlockReference
  2
HEX
 10
51.763
 20
-27.258
 30
0.0
  0
INSERT
  5
71
330
17
100
AcDbEntity
  8
0
100
AcDbBlockReference
  2
HEX
 10
55.294
 20
-27.258
 30
0.0
  0
INSERT
  5
73
330
17
100
AcDbEntity
  8
0
100
AcDbBlockReference
  2
HEX
 10
58.825
 20
-27.258
 30
0.0
  0
INSERT
  5
75
330
17
100
AcDbEntity
  8
0
100
AcDbBlockReference
  2
HEX
 10
62.356
 20
-27.258
 30
0.0
  0
INSERT
  5
77
330
17
100
AcDbEntity
  8
0
100
AcDbBlockReference
  2
HEX
 10
65.887
 20
-27.258
 30
0.0
  0
INSERT
  5
79
330
17
100
AcDbEntity
  8
0
100
AcDbBlockReference
  2
HEX
 10
69.418
 20
-27.258
 30
0.0
  0
INSERT
  5
7B
330
17
100
AcDbEntity
  8
0
100
AcDbBlockReference
  2
HEX
 10
72.949
 20
-27.258
 30
0.0
  0
LWPOLYLINE
  5
7D
330
17
100
AcDbEntity
  8
0
100
AcDbPolyline
 90
8
 70
1
 10
77.959
 20
-28.154
 10
76.48
 20
-29.008
 10
74.965
 20
-28.133
 10
74.965
 20
-26.383
 10
76.48
 20
-25.508
 10
77.996
 20
-26.383
 10
77.996
 20
-27.991
 10
77.959
 20
-28.154
  0
LWPOLYLINE
  5
7E
330
17
100
AcDbEntity
  8
0
100
AcDbPolyline
 90
7
 70
1
 10
107.753
 20
-25.801
 10
108.26
 20
-25.508
 10
109.776
 20
-26.383
 10
109.776
 20
-28.133
 10
108.26
 20
-29.008
 10
107.753
 20
-28.716
 10
107.753
 20
-25.801
  0
INSERT
  5
7F
330
17
100
AcDbEntity
  8
0
100
AcDbBlockReference
  2
HEX
 10
111.791
 20
-27.258
 30
0.0
  0
INSERT
  5
81
330
17
100
AcDbEntity
  8
0
100
AcDbBlockReference
  2
HEX
 10
115.322
 20
-27.258
 30
0.0
  0
INSERT
  5
83
330
17
100
AcDbEntity
  8
0
100
AcDbBlockReference
  2
HEX
 10
118.853
 20
-27.258
 30
0.0
  0
INSERT
  5
85
330
17
100
AcDbEntity
  8
0
100
AcDbBlockReference
  2
HEX
 10
122.384
 20
-27.258
 30
0.0
  0
INSERT
  5
87
330
17
100
AcDbEntity
  8
0
100
AcDbBlockReference
  2
HEX
 10
125.915
 20
-27.258
 30
0.0
  0
INSERT
  5
89
330
17
100
AcDbEntity
  8
0
100
AcDbBlockReference
  2
HEX
 10
129.447
 20
-27.258
 30
0.0
  0
INSERT
  5
8B
330
17
100
AcDbEntity
  8
0
100
AcDbBlockReference
  2
HEX
 10
132.978
 20
-27.258
 30
0.0
  0
INSERT
  5
8D
330
17
100
AcDbEntity
  8
0
100
AcDbBlockReference
  2
HEX
 10
136.509
 20
-27.258
 30
0.0
  0
INSERT
  5
8F
330
17
100
AcDbEntity
  8
0
100
AcDbBlockReference
  2
HEX
 10
140.04
 20
-27.258
 30
0.0
  0
INSERT
  5
91
330
17
100
AcDbEntity
  8
0
100
AcDbBlockReference
  2
HEX
 10
143.571
 20
-27.258
 30
0.0
  0
INSERT
  5
93
330
17
100
AcDbEntity
  8
0
100
AcDbBlockReference
  2
HEX
 10
147.102
 20
-27.258
 30
0.0
  0
INSERT
  5
95
330
17
100
AcDbEntity
  8
0
100
AcDbBlockReference
  2
HEX
 10
150.633
 20
-27.258
 30
0.0
  0
INSERT
  5
97
330
17
100
AcDbEntity
  8
0
100
AcDbBlockReference
  2
HEX
 10
154.164
 20
-27.258
 30
0.0
  0
INSERT
  5
99
330
17
100
AcDbEntity
  8
0
100
AcDbBlockReference
  2
HEX
 10
157.695
 20
-27.258
 30
0.0
  0
INSERT
  5
9B
330
17
100
AcDbEntity
  8
0
100
AcDbBlockReference
  2
HEX
 10
161.226
 20
-27.258
 30
0.0
  0
INSERT
  5
9D
330
17
100
AcDbEntity
  8
0
100
AcDbBlockReference
  2
HEX
 10
164.757
 20
-27.258
 30
0.0
  0
INSERT
  5
9F
330
17
100
AcDbEntity
  8
0
100
AcDbBlockReference
  2
HEX
 10
168.289
 20
-27.258
 30
0.0
  0
INSERT
  5
A1
330
17
100
AcDbEntity
  8
0
100
AcDbBlockReference
  2
HEX
 10
171.82
 20
-27.258
 30
0.0
  0
INSERT
  5
A3
330
17
100
AcDbEntity
  8
0
100
AcDbBlockReference
  2
HEX
 10
175.351
 20
-27.258
 30
0.0
  0
INSERT
  5
A5
330
17
100
AcDbEntity
  8
0
100
AcDbBlockReference
  2
HEX
 10
178.882
 20
-27.258
 30
0.0
  0
INSERT
  5
A7
330
17
100
AcDbEntity
  8
0
100
AcDbBlockReference
  2
HEX
 10
182.413
 20
-27.258
 30
0.0
  0
INSERT
  5
A9
330
17
100
AcDbEntity
  8
0
100
AcDbBlockReference
  2
HEX
 10
18.217
 20
-24.2
 30
0.0
  0
INSERT
  5
AB
330
17
100
AcDbEntity
  8
0
100
AcDbBlockReference
  2
HEX
 10
21.748
 20
-24.2
 30
0.0
  0
INSERT
  5
AD
330
17
100
AcDbEntity
  8
0
100
AcDbBlockReference
  2
HEX
 10
25.279
 20
-24.2
 30
0.0
  0
INSERT
  5
AF
330
17
100
AcDbEntity
  8
0
100
AcDbBlockReference
  2
HEX
 10
28.81
 20
-24.2
 30
0.0
  0
INSERT
  5
B1
330
17
100
AcDbEntity
  8
0
100
AcDbBlockReference
  2
HEX
 10
32.342
 20
-24.2
 30
0.0
  0
INSERT
  5
B3
330
17
100
AcDbEntity
  8
0
100
AcDbBlockReference
  2
HEX
 10
35.873
 20
-24.2
 30
0.0
  0
INSERT
  5
B5
330
17
100
AcDbEntity
  8
0
100
AcDbBlockReference
  2
HEX
 10
39.404
 20
-24.2
 30
0.0
  0
INSERT
  5
B7
330
17
100
AcDbEntity
  8
0
100
AcDbBlockReference
  2
HEX
 10
42.935
 20
-24.2
 30
0.0
  0
INSERT
  5
B9
330
17
100
AcDbEntity
  8
0
100
AcDbBlockReference
  2
HEX
 10
46.466
 20
-24.2
 30
0.0
  0
INSERT
  5
BB
330
17
100
AcDbEntity
  8
0
100
AcDbBlockReference
  2
HEX
 10
49.997
 20
-24.2
 30
0.0
  0
INSERT
  5
BD
330
17
100
AcDbEntity
  8
0
100
AcDbBlockReference
  2
HEX
 10
53.528
 20
-24.2
 30
0.0
  0
INSERT
  5
BF
330
17
100
AcDbEntity
  8
0
100
AcDbBlockReference
  2
HEX
 10
57.059
 20
-24.2
 30
0.0
  0
INSERT
  5
C1
330
17
100
AcDbEntity
  8
0
100
AcDbBlockReference
  2
HEX
 10
60.59
 20
-24.2
 30
0.0
  0
INSERT
  5
C3
330
17
100
AcDbEntity
  8
0
100
AcDbBlockReference
  2
HEX
 10
64.121
 20
-24.2
 30
0.0
  0
INSERT
  5
C5
330
17
100
AcDbEntity
  8
0
100
AcDbBlockReference
  2
HEX
 10
67.652
 20
-24.2
 30
0.0
  0
INSERT
  5
C7
330
17
100
AcDbEntity
  8
0
100
AcDbBlockReference
  2
HEX
 10
71.184
 20
-24.2
 30
0.0
  0
LWPOLYLINE
  5
C9
330
17
100
AcDbEntity
  8
0
100
AcDbPolyline
 90
7
 70
1
 10
75.603
 20
-25.438
 10
74.715
 20
-25.95
 10
73.199
 20
-25.075
 10
73.199
 20
-23.325
 10
74.715
 20
-22.45
 10
75.603
 20
-22.963
 10
75.603
 20
-25.438
  0
LWPOLYLINE
  5
CA
330
17
100
AcDbEntity
  8
0
100
AcDbPolyline
 90
5
 70
1
 10
78.556
 20
-25.474
 10
78.48
 20
-25.815
 10
78.246
 20
-25.95
 10
77.421
 20
-25.474
 10
78.556
 20
-25.474
  0
LWPOLYLINE
  5
CB
330
17
100
AcDbEntity
  8
0
100
AcDbPolyline
 90
5
 70
1
 10
107.753
 20
-23.177
 10
108.01
 20
-23.325
 10
108.01
 20
-25.075
 10
107.753
 20
-25.224
 10
107.753
 20
-23.177
  0
INSERT
  5
CC
330
17
100
AcDbEntity
  8
0
100
AcDbBlockReference
  2
HEX
 10
110.026
 20
-24.2
 30
0.0
  0
INSERT
  5
CE
330
17
100
AcDbEntity
  8
0
100
AcDbBlockReference
  2
HEX
 10
113.557
 20
-24.2
 30
0.0
  0
INSERT
  5
D0
330
17
100
AcDbEntity
  8
0
100
AcDbBlockReference
  2
HEX
 10
117.088
 20
-24.2
 30
0.0
  0
INSERT
  5
D2
330
17
100
AcDbEntity
  8
0
100
AcDbBlockReference
  2
HEX
 10
120.619
 20
-24.2
 30
0.0
  0
INSERT
  5
D4
330
17
100
AcDbEntity
  8
0
100
AcDbBlockReference
  2
HEX
 10
124.15
 20
-24.2
 30
0.0
  0
INSERT
  5
D6
330
17
100
AcDbEntity
  8
0
100
AcDbBlockReference
  2
HEX
 10
127.681
 20
-24.2
 30
0.0
  0
INSERT
  5
D8
330
17
100
AcDbEntity
  8
0
100
AcDbBlockReference
  2
HEX
 10
131.212
 20
-24.2
 30
0.0
  0
INSERT
  5
DA
330
17
100
AcDbEntity
  8
0
100
AcDbBlockReference
  2
HEX
 10
134.743
 20
-24.2
 30
0.0
  0
INSERT
  5
DC
330
17
100
AcDbEntity
  8
0
100
AcDbBlockReference
  2
HEX
 10
138.274
 20
-24.2
 30
0.0
  0
INSERT
  5
DE
330
17
100
AcDbEntity
  8
0
100
AcDbBlockReference
  2
HEX
 10
141.805
 20
-24.2
 30
0.0
  0
INSERT
  5
E0
330
17
100
AcDbEntity
  8
0
100
AcDbBlockReference
  2
HEX
 10
145.336
 20
-24.2
 30
0.0
  0
INSERT
  5
E2
330
17
100
AcDbEntity
  8
0
100
AcDbBlockReference
  2
HEX
 10
148.868
 20
-24.2
 30
0.0
  0
INSERT
  5
E4
330
17
100
AcDbEntity
  8
0
100
AcDbBlockReference
  2
HEX
 10
152.399
 20
-24.2
 30
0.0
  0
INSERT
  5
E6
330
17
100
AcDbEntity
  8
0
100
AcDbBlockReference
  2
HEX
 10
155.93
 20
-24.2
 30
0.0
  0
INSERT
  5
E8
330
17
100
AcDbEntity
  8
0
100
AcDbBlockReference
  2
HEX
 10
159.461
 20
-24.2
 30
0.0
  0
INSERT
  5
EA
330
17
100
AcDbEntity
  8
0
100
AcDbBlockReference
  2
HEX
 10
162.992
 20
-24.2
 30
0.0
  0
INSERT
  5
EC
330
17
100
AcDbEntity
  8
0
100
AcDbBlockReference
  2
HEX
 10
166.523
 20
-24.2
 30
0.0
  0
INSERT
  5
EE
330
17
100
AcDbEntity
  8
0
100
AcDbBlockReference
  2
HEX
 10
170.054
 20
-24.2
 30
0.0
  0
INSERT
  5
F0
330
17
100
AcDbEntity
  8
0
100
AcDbBlockReference
  2
HEX
 10
173.585
 20
-24.2
 30
0.0
  0
INSERT
  5
F2
330
17
100
AcDbEntity
  8
0
100
AcDbBlockReference
  2
HEX
 10
177.116
 20
-24.2
 30
0.0
  0
INSERT
  5
F4
330
17
100
AcDbEntity
  8
0
100
AcDbBlockReference
  2
HEX
 10
180.647
 20
-24.2
 30
0.0
  0
LWPOLYLINE
  5
F6
330
17
100
AcDbEntity
  8
0
100
AcDbPolyline
 90
5
 70
1
 10
184.01
 20
-25.853
 10
182.663
 20
-25.075
 10
182.663
 20
-23.325
 10
184.01
 20
-22.548
 10
184.01
 20
-25.853
  0
LWPOLYLINE
  5
F7
330
17
100
AcDbEntity
  8
0
100
AcDbPolyline
 90
7
 70
1
 10
16.421
 20
-19.41
 10
16.452
 20
-19.392
 10
17.967
 20
-20.267
 10
17.967
 20
-22.017
 10
16.452
 20
-22.892
 10
16.421
 20
-22.874
 10
16.421
 20
-19.41
  0
INSERT
  5
F8
330
17
100
AcDbEntity
  8
0
100
AcDbBlockReference
  2
HEX
 10
19.983
 20
-21.142
 30
0.0
  0
INSERT
  5
FA
330
17
100
AcDbEntity
  8
0
100
AcDbBlockReference
  2
HEX
 10
23.514
 20
-21.142
 30
0.0
  0
INSERT
  5
FC
330
17
100
AcDbEntity
  8
0
100
AcDbBlockReference
  2
HEX
 10
27.045
 20
-21.142
 30
0.0
  0
INSERT
  5
FE
330
17
100
AcDbEntity
  8
0
100
AcDbBlockReference
  2
HEX
 10
30.576
 20
-21.142
 30
0.0
  0
INSERT
  5
100
330
17
100
AcDbEntity
  8
0
100
AcDbBlockReference
  2
HEX
 10
34.107
 20
-21.142
 30
0.0
  0
INSERT
  5
102
330
17
100
AcDbEntity
  8
0
100
AcDbBlockReference
  2
HEX
 10
37.638
 20
-21.142
 30
0.0
  0
INSERT
  5
104
330
17
100
AcDbEntity
  8
0
100
AcDbBlockReference
  2
HEX
 10
41.169
 20
-21.142
 30
0.0
  0
INSERT
  5
106
330
17
100
AcDbEntity
  8
0
100
AcDbBlockReference
  2
HEX
 10
44.7
 20
-21.142
 30
0.0
  0
INSERT
  5
108
330
17
100
AcDbEntity
  8
0
100
AcDbBlockReference
  2
HEX
 10
48.231
 20
-21.142
 30
0.0
  0
INSERT
  5
10A
330
17
100
AcDbEntity
  8
0
100
AcDbBlockReference
  2
HEX
 10
51.763
 20
-21.142
 30
0.0
  0
INSERT
  5
10C
330
17
100
AcDbEntity
  8
0
100
AcDbBlockReference
  2
HEX
 10
55.294
 20
-21.142
 30
0.0
  0
INSERT
  5
10E
330
17
100
AcDbEntity
  8
0
100
AcDbBlockReference
  2
HEX
 10
58.825
 20
-21.142
 30
0.0
  0
INSERT
  5
110
330
17
100
AcDbEntity
  8
0
100
AcDbBlockReference
  2
HEX
 10
62.356
 20
-21.142
 30
0.0
  0
INSERT
  5
112
330
17
100
AcDbEntity
  8
0
100
AcDbBlockReference
  2
HEX
 10
65.887
 20
-21.142
 30
0.0
  0
INSERT
  5
114
330
17
100
AcDbEntity
  8
0
100
AcDbBlockReference
  2
HEX
 10
69.418
 20
-21.142
 30
0.0
  0
INSERT
  5
116
330
17
100
AcDbEntity
  8
0
100
AcDbBlockReference
  2
HEX
 10
72.949
 20
-21.142
 30
0.0
  0
LWPOLYLINE
  5
118
330
17
100
AcDbEntity
  8
0
100
AcDbPolyline
 90
5
 70
1
 10
75.603
 20
-22.386
 10
74.965
 20
-22.017
 10
74.965
 20
-20.267
 10
75.603
 20
-19.899
 10
75.603
 20
-22.386
  0
LWPOLYLINE
  5
119
330
17
100
AcDbEntity
  8
0
100
AcDbPolyline
 90
7
 70
1
 10
107.753
 20
-19.685
 10
108.26
 20
-19.392
 10
109.776
 20
-20.267
 10
109.776
 20
-22.017
 10
108.26
 20
-22.892
 10
107.753
 20
-22.6
 10
107.753
 20
-19.685
  0
INSERT
  5
11A
330
17
100
AcDbEntity
  8
0
100
AcDbBlockReference
  2
HEX
 10
111.791
 20
-21.142
 30
0.0
  0
INSERT
  5
11C
330
17
100
AcDbEntity
  8
0
100
AcDbBlockReference
  2
HEX
 10
115.322
 20
-21.142
 30
0.0
  0
INSERT
  5
11E
330
17
100
AcDbEntity
  8
0
100
AcDbBlockReference
  2
HEX
 10
118.853
 20
-21.142
 30
0.0
  0
INSERT
  5
120
330
17
100
AcDbEntity
  8
0
100
AcDbBlockReference
  2
HEX
 10
122.384
 20
-21.142
 30
0.0
  0
INSERT
  5
122
330
17
100
AcDbEntity
  8
0
100
AcDbBlockReference
  2
HEX
 10
125.915
 20
-21.142
 30
0.0
  0
INSERT
  5
124
330
17
100
AcDbEntity
  8
0
100
AcDbBlockReference
  2
HEX
 10
129.447
 20
-21.142
 30
0.0
  0
INSERT
  5
126
330
17
100
AcDbEntity
  8
0
100
AcDbBlockReference
  2
HEX
 10
132.978
 20
-21.142
 30
0.0
  0
INSERT
  5
128
330
17
100
AcDbEntity
  8
0
100
AcDbBlockReference
  2
HEX
 10
136.509
 20
-21.142
 30
0.0
  0
INSERT
  5
12A
330
17
100
AcDbEntity
  8
0
100
AcDbBlockReference
  2
HEX
 10
140.04
 20
-21.142
 30
0.0
  0
INSERT
  5
12C
330
17
100
AcDbEntity
  8
0
100
AcDbBlockReference
  2
HEX
 10
143.571
 20
-21.142
 30
0.0
  0
INSERT
  5
12E
330
17
100
AcDbEntity
  8
0
100
AcDbBlockReference
  2
HEX
 10
147.102
 20
-21.142
 30
0.0
  0
INSERT
  5
130
330
17
100
AcDbEntity
  8
0
100
AcDbBlockReference
  2
HEX
 10
150.633
 20
-21.142
 30
0.0
  0
INSERT
  5
132
330
17
100
AcDbEntity
  8
0
100
AcDbBlockReference
  2
HEX
 10
154.164
 20
-21.142
 30
0.0
  0
INSERT
  5
134
330
17
100
AcDbEntity
  8
0
100
AcDbBlockReference
  2
HEX
 10
157.695
 20
-21.142
 30
0.0
  0
INSERT
  5
136
330
17
100
AcDbEntity
  8
0
100
AcDbBlockReference
  2
HEX
 10
161.226
 20
-21.142
 30
0.0
  0
INSERT
  5
138
330
17
100
AcDbEntity
  8
0
100
AcDbBlockReference
  2
HEX
 10
164.757
 20
-21.142
 30
0.0
  0
INSERT
  5
13A
330
17
100
AcDbEntity
  8
0
100
AcDbBlockReference
  2
HEX
 10
168.289
 20
-21.142
 30
0.0
  0
INSERT
  5
13C
330
17
100
AcDbEntity
  8
0
100
AcDbBlockReference
  2
HEX
 10
171.82
 20
-21.142
 30
0.0
  0
INSERT
  5
13E
330
17
100
AcDbEntity
  8
0
100
AcDbBlockReference
  2
HEX
 10
175.351
 20
-21.142
 30
0.0
  0
INSERT
  5
140
330
17
100
AcDbEntity
  8
0
100
AcDbBlockReference
  2
HEX
 10
178.882
 20
-21.142
 30
0.0
  0
INSERT
  5
142
330
17
100
AcDbEntity
  8
0
100
AcDbBlockReference
  2
HEX
 10
182.413
 20
-21.142
 30
0.0
  0
INSERT
  5
144
330
17
100
AcDbEntity
  8
0
100
AcDbBlockReference
  2
HEX
 10
18.217
 20
-18.084
 30
0.0
  0
INSERT
  5
146
330
17
100
AcDbEntity
  8
0
100
AcDbBlockReference
  2
HEX
 10
21.748
 20
-18.084
 30
0.0
  0
INSERT
  5
148
330
17
100
AcDbEntity
  8
0
100
AcDbBlockReference
  2
HEX
 10
25.279
 20
-18.084
 30
0.0
  0
INSERT
  5
14A
330
17
100
AcDbEntity
  8
0
100
AcDbBlockReference
  2
HEX
 10
28.81
 20
-18.084
 30
0.0
  0
INSERT
  5
14C
330
17
100
AcDbEntity
  8
0
100
AcDbBlockReference
  2
HEX
 10
32.342
 20
-18.084
 30
0.0
  0
INSERT
  5
14E
330
17
100
AcDbEntity
  8
0
100
AcDbBlockReference
  2
HEX
 10
35.873
 20
-18.084
 30
0.0
  0
INSERT
  5
150
330
17
100
AcDbEntity
  8
0
100
AcDbBlockReference
  2
HEX
 10
39.404
 20
-18.084
 30
0.0
  0
INSERT
  5
152
330
17
100
AcDbEntity
  8
0
100
AcDbBlockReference
  2
HEX
 10
42.935
 20
-18.084
 30
0.0
  0
INSERT
  5
154
330
17
100
AcDbEntity
  8
0
100
AcDbBlockReference
  2
HEX
 10
46.466
 20
-18.084
 30
0.0
  0
INSERT
  5
156
330
17
100
AcDbEntity
  8
0
100
AcDbBlockReference
  2
HEX
 10
49.997
 20
-18.084
 30
0.0
  0
INSERT
  5
158
330
17
100
AcDbEntity
  8
0
100
AcDbBlockReference
  2
HEX
 10
53.528
 20
-18.084
 30
0.0
  0
INSERT
  5
15A
330
17
100
AcDbEntity
  8
0
100
AcDbBlockReference
  2
HEX
 10
57.059
 20
-18.084
 30
0.0
  0
INSERT
  5
15C
330
17
100
AcDbEntity
  8
0
100
AcDbBlockReference
  2
HEX
 10
60.59
 20
-18.084
 30
0.0
  0
INSERT
  5
15E
330
17
100
AcDbEntity
  8
0
100
AcDbBlockReference
  2
HEX
 10
64.121
 20
-18.084
 30
0.0
  0
INSERT
  5
160
330
17
100
AcDbEntity
  8
0
100
AcDbBlockReference
  2
HEX
 10
67.652
 20
-18.084
 30
0.0
  0
INSERT
  5
162
330
17
100
AcDbEntity
  8
0
100
AcDbBlockReference
  2
HEX
 10
71.184
 20
-18.084
 30
0.0
  0
LWPOLYLINE
  5
164
330
17
100
AcDbEntity
  8
0
100
AcDbPolyline
 90
7
 70
1
 10
75.603
 20
-19.322
 10
74.715
 20
-19.834
 10
73.199
 20
-18.959
 10
73.199
 20
-17.209
 10
74.715
 20
-16.334
 10
75.603
 20
-16.847
 10
75.603
 20
-19.322
  0
LWPOLYLINE
  5
165
330
17
100
AcDbEntity
  8
0
100
AcDbPolyline
 90
5
 70
1
 10
107.753
 20
-17.061
 10
108.01
 20
-17.209
 10
108.01
 20
-18.959
 10
107.753
 20
-19.108
 10
107.753
 20
-17.061
  0
INSERT
  5
166
330
17
100
AcDbEntity
  8
0
100
AcDbBlockReference
  2
HEX
 10
110.026
 20
-18.084
 30
0.0
  0
INSERT
  5
168
330
17
100
AcDbEntity
  8
0
100
AcDbBlockReference
  2
HEX
 10
113.557
 20
-18.084
 30
0.0
  0
INSERT
  5
16A
330
17
100
AcDbEntity
  8
0
100
AcDbBlockReference
  2
HEX
 10
117.088
 20
-18.084
 30
0.0
  0
INSERT
  5
16C
330
17
100
AcDbEntity
  8
0
100
AcDbBlockReference
  2
HEX
 10
120.619
 20
-18.084
 30
0.0
  0
INSERT
  5
16E
330
17
100
AcDbEntity
  8
0
100
AcDbBlockReference
  2
HEX
 10
124.15
 20
-18.084
 30
0.0
  0
INSERT
  5
170
330
17
100
AcDbEntity
  8
0
100
AcDbBlockReference
  2
HEX
 10
127.681
 20
-18.084
 30
0.0
  0
INSERT
  5
172
330
17
100
AcDbEntity
  8
0
100
AcDbBlockReference
  2
HEX
 10
131.212
 20
-18.084
 30
0.0
  0
INSERT
  5
174
330
17
100
AcDbEntity
  8
0
100
AcDbBlockReference
  2
HEX
 10
134.743
 20
-18.084
 30
0.0
  0
INSERT
  5
176
330
17
100
AcDbEntity
  8
0
100
AcDbBlockReference
  2
HEX
 10
138.274
 20
-18.084
 30
0.0
  0
INSERT
  5
178
330
17
100
AcDbEntity
  8
0
100
AcDbBlockReference
  2
HEX
 10
141.805
 20
-18.084
 30
0.0
  0
INSERT
  5
17A
330
17
100
AcDbEntity
  8
0
100
AcDbBlockReference
  2
HEX
 10
145.336
 20
-18.084
 30
0.0
  0
INSERT
  5
17C
330
17
100
AcDbEntity
  8
0
100
AcDbBlockReference
  2
HEX
 10
148.868
 20
-18.084
 30
0.0
  0
INSERT
  5
17E
330
17
100
AcDbEntity
  8
0
100
AcDbBlockReference
  2
HEX
 10
152.399
 20
-18.084
 30
0.0
  0
INSERT
  5
180
330
17
100
AcDbEntity
  8
0
100
AcDbBlockReference
  2
HEX
 10
155.93
 20
-18.084
 30
0.0
  0
INSERT
  5
182
330
17
100
AcDbEntity
  8
0
100
AcDbBlockReference
  2
HEX
 10
159.461
 20
-18.084
 30
0.0
  0
INSERT
  5
184
330
17
100
AcDbEntity
  8
0
100
AcDbBlockReference
  2
HEX
 10
162.992
 20
-18.084
 30
0.0
  0
INSERT
  5
186
330
17
100
AcDbEntity
  8
0
100
AcDbBlockReference
  2
HEX
 10
166.523
 20
-18.084
 30
0.0
  0
INSERT
  5
188
330
17
100
AcDbEntity
  8
0
100
AcDbBlockReference
  2
HEX
 10
170.054
 20
-18.084
 30
0.0
  0
INSERT
  5
18A
330
17
100
AcDbEntity
  8
0
100
AcDbBlockReference
  2
HEX
 10
173.585
 20
-18.084
 30
0.0
  0
INSERT
  5
18C
330
17
100
AcDbEntity
  8
0
100
AcDbBlockReference
  2
HEX
 10
177.116
 20
-18.084
 30
0.0
  0
INSERT
  5
18E
330
17
100
AcDbEntity
  8
0
100
AcDbBlockReference
  2
HEX
 10
180.647
 20
-18.084
 30
0.0
  0
LWPOLYLINE
  5
190
330
17
100
AcDbEntity
  8
0
100
AcDbPolyline
 90
5
 70
1
 10
184.01
 20
-19.737
 10
182.663
 20
-18.959
 10
182.663
 20
-17.209
 10
184.01
 20
-16.432
 10
184.01
 20
-19.737
  0
LWPOLYLINE
  5
191
330
17
100
AcDbEntity
  8
0
100
AcDbPolyline
 90
7
 70
1
 10
16.421
 20
-13.294
 10
16.452
 20
-13.276
 10
17.967
 20
-14.151
 10
17.967
 20
-15.901
 10
16.452
 20
-16.776
 10
16.421
 20
-16.758
 10
16.421
 20
-13.294
  0
INSERT
  5
192
330
17
100
AcDbEntity
  8
0
100
AcDbBlockReference
  2
HEX
 10
19.983
 20
-15.026
 30
0.0
  0
INSERT
  5
194
330
17
100
AcDbEntity
  8
0
100
AcDbBlockReference
  2
HEX
 10
23.514
 20
-15.026
 30
0.0
  0
INSERT
  5
196
330
17
100
AcDbEntity
  8
0
100
AcDbBlockReference
  2
HEX
 10
27.045
 20
-15.026
 30
0.0
  0
INSERT
  5
198
330
17
100
AcDbEntity
  8
0
100
AcDbBlockReference
  2
HEX
 10
30.576
 20
-15.026
 30
0.0
  0
INSERT
  5
19A
330
17
100
AcDbEntity
  8
0
100
AcDbBlockReference
  2
HEX
 10
34.107
 20
-15.026
 30
0.0
  0
INSERT
  5
19C
330
17
100
AcDbEntity
  8
0
100
AcDbBlockReference
  2
HEX
 10
37.638
 20
-15.026
 30
0.0
  0
INSERT
  5
19E
330
17
100
AcDbEntity
  8
0
100
AcDbBlockReference
  2
HEX
 10
41.169
 20
-15.026
 30
0.0
  0
INSERT
  5
1A0
330
17
100
AcDbEntity
  8
0
100
AcDbBlockReference
  2
HEX
 10
44.7
 20
-15.026
 30
0.0
  0
INSERT
  5
1A2
330
17
100
AcDbEntity
  8
0
100
AcDbBlockReference
  2
HEX
 10
48.231
 20
-15.026
 30
0.0
  0
INSERT
  5
1A4
330
17
100
AcDbEntity
  8
0
100
AcDbBlockReference
  2
HEX
 10
51.763
 20
-15.026
 30
0.0
  0
INSERT
  5
1A6
330
17
100
AcDbEntity
  8
0
100
AcDbBlockReference
  2
HEX
 10
55.294
 20
-15.026
 30
0.0
  0
INSERT
  5
1A8
330
17
100
AcDbEntity
  8
0
100
AcDbBlockReference
  2
HEX
 10
58.825
 20
-15.026
 30
0.0
  0
INSERT
  5
1AA
330
17
100
AcDbEntity
  8
0
100
AcDbBlockReference
  2
HEX
 10
62.356
 20
-15.026
 30
0.0
  0
INSERT
  5
1AC
330
17
100
AcDbEntity
  8
0
100
AcDbBlockReference
  2
HEX
 10
65.887
 20
-15.026
 30
0.0
  0
INSERT
  5
1AE
330
17
100
AcDbEntity
  8
0
100
AcDbBlockReference
  2
HEX
 10
69.418
 20
-15.026
 30
0.0
  0
INSERT
  5
1B0
330
17
100
AcDbEntity
  8
0
100
AcDbBlockReference
  2
HEX
 10
72.949
 20
-15.026
 30
0.0
  0
LWPOLYLINE
  5
1B2
330
17
100
AcDbEntity
  8
0
100
AcDbPolyline
 90
4
 70
1
 10
75.874
 20
-13.626
 10
76.48
 20
-13.276
 10
77.086
 20
-13.626
 10
75.874
 20
-13.626
  0
LWPOLYLINE
  5
1B3
330
17
100
AcDbEntity
  8
0
100
AcDbPolyline
 90
5
 70
1
 10
75.603
 20
-16.27
 10
74.965
 20
-15.901
 10
74.965
 20
-14.151
 10
75.603
 20
-13.783
 10
75.603
 20
-16.27
  0
LWPOLYLINE
  5
1B4
330
17
100
AcDbEntity
  8
0
100
AcDbPolyline
 90
7
 70
1
 10
107.753
 20
-13.569
 10
108.26
 20
-13.276
 10
109.776
 20
-14.151
 10
109.776
 20
-15.901
 10
108.26
 20
-16.776
 10
107.753
 20
-16.484
 10
107.753
 20
-13.569
  0
INSERT
  5
1B5
330
17
100
AcDbEntity
  8
0
100
AcDbBlockReference
  2
HEX
 10
111.791
 20
-15.026
 30
0.0
  0
INSERT
  5
1B7
330
17
100
AcDbEntity
  8
0
100
AcDbBlockReference
  2
HEX
 10
115.322
 20
-15.026
 30
0.0
  0
INSERT
  5
1B9
330
17
100
AcDbEntity
  8
0
100
AcDbBlockReference
  2
HEX
 10
118.853
 20
-15.026
 30
0.0
  0
INSERT
  5
1BB
330
17
100
AcDbEntity
  8
0
100
AcDbBlockReference
  2
HEX
 10
122.384
 20
-15.026
 30
0.0
  0
INSERT
  5
1BD
330
17
100
AcDbEntity
  8
0
100
AcDbBlockReference
  2
HEX
 10
125.915
 20
-15.026
 30
0.0
  0
INSERT
  5
1BF
330
17
100
AcDbEntity
  8
0
100
AcDbBlockReference
  2
HEX
 10
129.447
 20
-15.026
 30
0.0
  0
INSERT
  5
1C1
330
17
100
AcDbEntity
  8
0
100
AcDbBlockReference
  2
HEX
 10
132.978
 20
-15.026
 30
0.0
  0
INSERT
  5
1C3
330
17
100
AcDbEntity
  8
0
100
AcDbBlockReference
  2
HEX
 10
136.509
 20
-15.026
 30
0.0
  0
INSERT
  5
1C5
330
17
100
AcDbEntity
  8
0
100
AcDbBlockReference
  2
HEX
 10
140.04
 20
-15.026
 30
0.0
  0
INSERT
  5
1C7
330
17
100
AcDbEntity
  8
0
100
AcDbBlockReference
  2
HEX
 10
143.571
 20
-15.026
 30
0.0
  0
INSERT
  5
1C9
330
17
100
AcDbEntity
  8
0
100
AcDbBlockReference
  2
HEX
 10
147.102
 20
-15.026
 30
0.0
  0
INSERT
  5
1CB
330
17
100
AcDbEntity
  8
0
100
AcDbBlockReference
  2
HEX
 10
150.633
 20
-15.026
 30
0.0
  0
INSERT
  5
1CD
330
17
100
AcDbEntity
  8
0
100
AcDbBlockReference
  2
HEX
 10
154.164
 20
-15.026
 30
0.0
  0
INSERT
  5
1CF
330
17
100
AcDbEntity
  8
0
100
AcDbBlockReference
  2
HEX
 10
157.695
 20
-15.026
 30
0.0
  0
INSERT
  5
1D1
330
17
100
AcDbEntity
  8
0
100
AcDbBlockReference
  2
HEX
 10
161.226
 20
-15.026
 30
0.0
  0
INSERT
  5
1D3
330
17
100
AcDbEntity
  8
0
100
AcDbBlockReference
  2
HEX
 10
164.757
 20
-15.026
 30
0.0
  0
INSERT
  5
1D5
330
17
100
AcDbEntity
  8
0
100
AcDbBlockReference
  2
HEX
 10
168.289
 20
-15.026
 30
0.0
  0
INSERT
  5
1D7
330
17
100
AcDbEntity
  8
0
100
AcDbBlockReference
  2
HEX
 10
171.82
 20
-15.026
 30
0.0
  0
INSERT
  5
1D9
330
17
100
AcDbEntity
  8
0
100
AcDbBlockReference
  2
HEX
 10
175.351
 20
-15.026
 30
0.0
  0
INSERT
  5
1DB
330
17
100
AcDbEntity
  8
0
100
AcDbBlockReference
  2
HEX
 10
178.882
 20
-15.026
 30
0.0
  0
INSERT
  5
1DD
330
17
100
AcDbEntity
  8
0
100
AcDbBlockReference
  2
HEX
 10
182.413
 20
-15.026
 30
0.0
  0
INSERT
  5
1DF
330
17
100
AcDbEntity
  8
0
100
AcDbBlockReference
  2
HEX
 10
18.217
 20
-11.968
 30
0.0
  0
INSERT
  5
1E1
330
17
100
AcDbEntity
  8
0
100
AcDbBlockReference
  2
HEX
 10
21.748
 20
-11.968
 30
0.0
  0
INSERT
  5
1E3
330
17
100
AcDbEntity
  8
0
100
AcDbBlockReference
  2
HEX
 10
25.279
 20
-11.968
 30
0.0
  0
INSERT
  5
1E5
330
17
100
AcDbEntity
  8
0
100
AcDbBlockReference
  2
HEX
 10
28.81
 20
-11.968
 30
0.0
  0
INSERT
  5
1E7
330
17
100
AcDbEntity
  8
0
100
AcDbBlockReference
  2
HEX
 10
32.342
 20
-11.968
 30
0.0
  0
INSERT
  5
1E9
330
17
100
AcDbEntity
  8
0
100
AcDbBlockReference
  2
HEX
 10
35.873
 20
-11.968
 30
0.0
  0
INSERT
  5
1EB
330
17
100
AcDbEntity
  8
0
100
AcDbBlockReference
  2
HEX
 10
39.404
 20
-11.968
 30
0.0
  0
INSERT
  5
1ED
330
17
100
AcDbEntity
  8
0
100
AcDbBlockReference
  2
HEX
 10
42.935
 20
-11.968
 30
0.0
  0
INSERT
  5
1EF
330
17
100
AcDbEntity
  8
0
100
AcDbBlockReference
  2
HEX
 10
46.466
 20
-11.968
 30
0.0
  0
INSERT
  5
1F1
330
17
100
AcDbEntity
  8
0
100
AcDbBlockReference
  2
HEX
 10
49.997
 20
-11.968
 30
0.0
  0
INSERT
  5
1F3
330
17
100
AcDbEntity
  8
0
100
AcDbBlockReference
  2
HEX
 10
53.528
 20
-11.968
 30
0.0
  0
INSERT
  5
1F5
330
17
100
AcDbEntity
  8
0
100
AcDbBlockReference
  2
HEX
 10
57.059
 20
-11.968
 30
0.0
  0
INSERT
  5
1F7
330
17
100
AcDbEntity
  8
0
100
AcDbBlockReference
  2
HEX
 10
60.59
 20
-11.968
 30
0.0
  0
INSERT
  5
1F9
330
17
100
AcDbEntity
  8
0
100
AcDbBlockReference
  2
HEX
 10
64.121
 20
-11.968
 30
0.0
  0
INSERT
  5
1FB
330
17
100
AcDbEntity
  8
0
100
AcDbBlockReference
  2
HEX
 10
67.652
 20
-11.968
 30
0.0
  0
INSERT
  5
1FD
330
17
100
AcDbEntity
  8
0
100
AcDbBlockReference
  2
HEX
 10
71.184
 20
-11.968
 30
0.0
  0
INSERT
  5
1FF
330
17
100
AcDbEntity
  8
0
100
AcDbBlockReference
  2
HEX
 10
74.715
 20
-11.968
 30
0.0
  0
LWPOLYLINE
  5
201
330
17
100
AcDbEntity
  8
0
100
AcDbPolyline
 90
8
 70
1
 10
78.556
 20
-13.539
 10
78.405
 20
-13.626
 10
78.086
 20
-13.626
 10
76.73
 20
-12.843
 10
76.73
 20
-11.093
 10
78.246
 20
-10.218
 10
78.556
 20
-10.397
 10
78.556
 20
-13.539
  0
LWPOLYLINE
  5
202
330
17
100
AcDbEntity
  8
0
100
AcDbPolyline
 90
5
 70
1
 10
107.753
 20
-10.945
 10
108.01
 20
-11.093
 10
108.01
 20
-12.843
 10
107.753
 20
-12.992
 10
107.753
 20
-10.945
  0
INSERT
  5
203
330
17
100
AcDbEntity
  8
0
100
AcDbBlockReference
  2
HEX
 10
110.026
 20
-11.968
 30
0.0
  0
INSERT
  5
205
330
17
100
AcDbEntity
  8
0
100
AcDbBlockReference
  2
HEX
 10
113.557
 20
-11.968
 30
0.0
  0
INSERT
  5
207
330
17
100
AcDbEntity
  8
0
100
AcDbBlockReference
  2
HEX
 10
117.088
 20
-11.968
 30
0.0
  0
INSERT
  5
209
330
17
100
AcDbEntity
  8
0
100
AcDbBlockReference
  2
HEX
 10
120.619
 20
-11.968
 30
0.0
  0
INSERT
  5
20B
330
17
100
AcDbEntity
  8
0
100
AcDbBlockReference
  2
HEX
 10
124.15
 20
-11.968
 30
0.0
  0
INSERT
  5
20D
330
17
100
AcDbEntity
  8
0
100
AcDbBlockReference
  2
HEX
 10
127.681
 20
-11.968
 30
0.0
  0
INSERT
  5
20F
330
17
100
AcDbEntity
  8
0
100
AcDbBlockReference
  2
HEX
 10
131.212
 20
-11.968
 30
0.0
  0
INSERT
  5
211
330
17
100
AcDbEntity
  8
0
100
AcDbBlockReference
  2
HEX
 10
134.743
 20
-11.968
 30
0.0
  0
INSERT
  5
213
330
17
100
AcDbEntity
  8
0
100
AcDbBlockReference
  2
HEX
 10
138.274
 20
-11.968
 30
0.0
  0
INSERT
  5
215
330
17
100
AcDbEntity
  8
0
100
AcDbBlockReference
  2
HEX
 10
141.805
 20
-11.968
 30
0.0
  0
INSERT
  5
217
330
17
100
AcDbEntity
  8
0
100
AcDbBlockReference
  2
HEX
 10
145.336
 20
-11.968
 30
0.0
  0
INSERT
  5
219
330
17
100
AcDbEntity
  8
0
100
AcDbBlockReference
  2
HEX
 10
148.868
 20
-11.968
 30
0.0
  0
INSERT
  5
21B
330
17
100
AcDbEntity
  8
0
100
AcDbBlockReference
  2
HEX
 10
152.399
 20
-11.968
 30
0.0
  0
INSERT
  5
21D
330
17
100
AcDbEntity
  8
0
100
AcDbBlockReference
  2
HEX
 10
155.93
 20
-11.968
 30
0.0
  0
INSERT
  5
21F
330
17
100
AcDbEntity
  8
0
100
AcDbBlockReference
  2
HEX
 10
159.461
 20
-11.968
 30
0.0
  0
INSERT
  5
221
330
17
100
AcDbEntity
  8
0
100
AcDbBlockReference
  2
HEX
 10
162.992
 20
-11.968
 30
0.0
  0
INSERT
  5
223
330
17
100
AcDbEntity
  8
0
100
AcDbBlockReference
  2
HEX
 10
166.523
 20
-11.968
 30
0.0
  0
INSERT
  5
225
330
17
100
AcDbEntity
  8
0
100
AcDbBlockReference
  2
HEX
 10
170.054
 20
-11.968
 30
0.0
  0
INSERT
  5
227
330
17
100
AcDbEntity
  8
0
100
AcDbBlockReference
  2
HEX
 10
173.585
 20
-11.968
 30
0.0
  0
INSERT
  5
229
330
17
100
AcDbEntity
  8
0
100
AcDbBlockReference
  2
HEX
 10
177.116
 20
-11.968
 30
0.0
  0
INSERT
  5
22B
330
17
100
AcDbEntity
  8
0
100
AcDbBlockReference
  2
HEX
 10
180.647
 20
-11.968
 30
0.0
  0
LWPOLYLINE
  5
22D
330
17
100
AcDbEntity
  8
0
100
AcDbPolyline
 90
5
 70
1
 10
184.01
 20
-13.621
 10
182.663
 20
-12.843
 10
182.663
 20
-11.093
 10
184.01
 20
-10.316
 10
184.01
 20
-13.621
  0
LWPOLYLINE
  5
22E
330
17
100
AcDbEntity
  8
0
100
AcDbPolyline
 90
6
 70
1
 10
16.421
 20
-9.525
 10
17.967
 20
-9.525
 10
17.967
 20
-9.785
 10
16.452
 20
-10.66
 10
16.421
 20
-10.642
 10
16.421
 20
-9.525
  0
LWPOLYLINE
  5
22F
330
17
100
AcDbEntity
  8
0
100
AcDbPolyline
 90
6
 70
1
 10
21.498
 20
-9.525
 10
21.498
 20
-9.785
 10
19.983
 20
-10.66
 10
18.467
 20
-9.785
 10
18.467
 20
-9.525
 10
21.498
 20
-9.525
  0
LWPOLYLINE
  5
230
330
17
100
AcDbEntity
  8
0
100
AcDbPolyline
 90
6
 70
1
 10
25.029
 20
-9.525
 10
25.029
 20
-9.785
 10
23.514
 20
-10.66
 10
21.998
 20
-9.785
 10
21.998
 20
-9.525
 10
25.029
 20
-9.525
  0
LWPOLYLINE
  5
231
330
17
100
AcDbEntity
  8
0
100
AcDbPolyline
 90
6
 70
1
 10
28.56
 20
-9.525
 10
28.56
 20
-9.785
 10
27.045
 20
-10.66
 10
25.529
 20
-9.785
 10
25.529
 20
-9.525
 10
28.56
 20
-9.525
  0
LWPOLYLINE
  5
232
330
17
100
AcDbEntity
  8
0
100
AcDbPolyline
 90
6
 70
1
 10
32.092
 20
-9.525
 10
32.092
 20
-9.785
 10
30.576
 20
-10.66
 10
29.06
 20
-9.785
 10
29.06
 20
-9.525
 10
32.092
 20
-9.525
  0
LWPOLYLINE
  5
233
330
17
100
AcDbEntity
  8
0
100
AcDbPolyline
 90
6
 70
1
 10
35.623
 20
-9.525
 10
35.623
 20
-9.785
 10
34.107
 20
-10.66
 10
32.592
 20
-9.785
 10
32.592
 20
-9.525
 10
35.623
 20
-9.525
  0
LWPOLYLINE
  5
234
330
17
100
AcDbEntity
  8
0
100
AcDbPolyline
 90
6
 70
1
 10
39.154
 20
-9.525
 10
39.154
 20
-9.785
 10
37.638
 20
-10.66
 10
36.123
 20
-9.785
 10
36.123
 20
-9.525
 10
39.154
 20
-9.525
  0
LWPOLYLINE
  5
235
330
17
100
AcDbEntity
  8
0
100
AcDbPolyline
 90
6
 70
1
 10
42.685
 20
-9.525
 10
42.685
 20
-9.785
 10
41.169
 20
-10.66
 10
39.654
 20
-9.785
 10
39.654
 20
-9.525
 10
42.685
 20
-9.525
  0
LWPOLYLINE
  5
236
330
17
100
AcDbEntity
  8
0
100
AcDbPolyline
 90
6
 70
1
 10
46.216
 20
-9.525
 10
46.216
 20
-9.785
 10
44.7
 20
-10.66
 10
43.185
 20
-9.785
 10
43.185
 20
-9.525
 10
46.216
 20
-9.525
  0
LWPOLYLINE
  5
237
330
17
100
AcDbEntity
  8
0
100
AcDbPolyline
 90
6
 70
1
 10
49.747
 20
-9.525
 10
49.747
 20
-9.785
 10
48.231
 20
-10.66
 10
46.716
 20
-9.785
 10
46.716
 20
-9.525
 10
49.747
 20
-9.525
  0
LWPOLYLINE
  5
238
330
17
100
AcDbEntity
  8
0
100
AcDbPolyline
 90
6
 70
1
 10
53.278
 20
-9.525
 10
53.278
 20
-9.785
 10
51.763
 20
-10.66
 10
50.247
 20
-9.785
 10
50.247
 20
-9.525
 10
53.278
 20
-9.525
  0
LWPOLYLINE
  5
239
330
17
100
AcDbEntity
  8
0
100
AcDbPolyline
 90
6
 70
1
 10
56.809
 20
-9.525
 10
56.809
 20
-9.785
 10
55.294
 20
-10.66
 10
53.778
 20
-9.785
 10
53.778
 20
-9.525
 10
56.809
 20
-9.525
  0
LWPOLYLINE
  5
23A
330
17
100
AcDbEntity
  8
0
100
AcDbPolyline
 90
6
 70
1
 10
60.34
 20
-9.525
 10
60.34
 20
-9.785
 10
58.825
 20
-10.66
 10
57.309
 20
-9.785
 10
57.309
 20
-9.525
 10
60.34
 20
-9.525
  0
LWPOLYLINE
  5
23B
330
17
100
AcDbEntity
  8
0
100
AcDbPolyline
 90
6
 70
1
 10
63.871
 20
-9.525
 10
63.871
 20
-9.785
 10
62.356
 20
-10.66
 10
60.84
 20
-9.785
 10
60.84
 20
-9.525
 10
63.871
 20
-9.525
  0
LWPOLYLINE
  5
23C
330
17
100
AcDbEntity
  8
0
100
AcDbPolyline
 90
6
 70
1
 10
67.402
 20
-9.525
 10
67.402
 20
-9.785
 10
65.887
 20
-10.66
 10
64.371
 20
-9.785
 10
64.371
 20
-9.525
 10
67.402
 20
-9.525
  0
LWPOLYLINE
  5
23D
330
17
100
AcDbEntity
  8
0
100
AcDbPolyline
 90
6
 70
1
 10
70.934
 20
-9.525
 10
70.934
 20
-9.785
 10
69.418
 20
-10.66
 10
67.902
 20
-9.785
 10
67.902
 20
-9.525
 10
70.934
 20
-9.525
  0
LWPOLYLINE
  5
23E
330
17
100
AcDbEntity
  8
0
100
AcDbPolyline
 90
6
 70
1
 10
74.465
 20
-9.525
 10
74.465
 20
-9.785
 10
72.949
 20
-10.66
 10
71.434
 20
-9.785
 10
71.434
 20
-9.525
 10
74.465
 20
-9.525
  0
LWPOLYLINE
  5
23F
330
17
100
AcDbEntity
  8
0
100
AcDbPolyline
 90
6
 70
1
 10
77.996
 20
-9.525
 10
77.996
 20
-9.785
 10
76.48
 20
-10.66
 10
74.965
 20
-9.785
 10
74.965
 20
-9.525
 10
77.996
 20
-9.525
  0
LWPOLYLINE
  5
240
330
17
100
AcDbEntity
  8
0
100
AcDbPolyline
 90
5
 70
1
 10
78.556
 20
-9.525
 10
78.556
 20
-9.82
 10
78.496
 20
-9.785
 10
78.496
 20
-9.525
 10
78.556
 20
-9.525
  0
LWPOLYLINE
  5
241
330
17
100
AcDbEntity
  8
0
100
AcDbPolyline
 90
5
 70
1
 10
109.661
 20
-9.851
 10
108.26
 20
-10.66
 10
107.753
 20
-10.368
 10
107.753
 20
-9.851
 10
109.661
 20
-9.851
  0
LWPOLYLINE
  5
242
330
17
100
AcDbEntity
  8
0
100
AcDbPolyline
 90
4
 70
1
 10
113.192
 20
-9.851
 10
111.791
 20
-10.66
 10
110.39
 20
-9.851
 10
113.192
 20
-9.851
  0
LWPOLYLINE
  5
243
330
17
100
AcDbEntity
  8
0
100
AcDbPolyline
 90
4
 70
1
 10
116.723
 20
-9.851
 10
115.322
 20
-10.66
 10
113.921
 20
-9.851
 10
116.723
 20
-9.851
  0
LWPOLYLINE
  5
244
330
17
100
AcDbEntity
  8
0
100
AcDbPolyline
 90
4
 70
1
 10
120.254
 20
-9.851
 10
118.853
 20
-10.66
 10
117.452
 20
-9.851
 10
120.254
 20
-9.851
  0
LWPOLYLINE
  5
245
330
17
100
AcDbEntity
  8
0
100
AcDbPolyline
 90
4
 70
1
 10
123.786
 20
-9.851
 10
122.384
 20
-10.66
 10
120.983
 20
-9.851
 10
123.786
 20
-9.851
  0
LWPOLYLINE
  5
246
330
17
100
AcDbEntity
  8
0
100
AcDbPolyline
 90
4
 70
1
 10
127.317
 20
-9.851
 10
125.915
 20
-10.66
 10
124.514
 20
-9.851
 10
127.317
 20
-9.851
  0
LWPOLYLINE
  5
247
330
17
100
AcDbEntity
  8
0
100
AcDbPolyline
 90
4
 70
1
 10
130.848
 20
-9.851
 10
129.447
 20
-10.66
 10
128.045
 20
-9.851
 10
130.848
 20
-9.851
  0
LWPOLYLINE
  5
248
330
17
100
AcDbEntity
  8
0
100
AcDbPolyline
 90
4
 70
1
 10
134.379
 20
-9.851
 10
132.978
 20
-10.66
 10
131.576
 20
-9.851
 10
134.379
 20
-9.851
  0
LWPOLYLINE
  5
249
330
17
100
AcDbEntity
  8
0
100
AcDbPolyline
 90
4
 70
1
 10
137.91
 20
-9.851
 10
136.509
 20
-10.66
 10
135.108
 20
-9.851
 10
137.91
 20
-9.851
  0
LWPOLYLINE
  5
24A
330
17
100
AcDbEntity
  8
0
100
AcDbPolyline
 90
4
 70
1
 10
141.441
 20
-9.851
 10
140.04
 20
-10.66
 10
138.639
 20
-9.851
 10
141.441
 20
-9.851
  0
LWPOLYLINE
  5
24B
330
17
100
AcDbEntity
  8
0
100
AcDbPolyline
 90
4
 70
1
 10
144.972
 20
-9.851
 10
143.571
 20
-10.66
 10
142.17
 20
-9.851
 10
144.972
 20
-9.851
  0
LWPOLYLINE
  5
24C
330
17
100
AcDbEntity
  8
0
100
AcDbPolyline
 90
4
 70
1
 10
148.503
 20
-9.851
 10
147.102
 20
-10.66
 10
145.701
 20
-9.851
 10
148.503
 20
-9.851
  0
LWPOLYLINE
  5
24D
330
17
100
AcDbEntity
  8
0
100
AcDbPolyline
 90
4
 70
1
 10
152.034
 20
-9.851
 10
150.633
 20
-10.66
 10
149.232
 20
-9.851
 10
152.034
 20
-9.851
  0
LWPOLYLINE
  5
24E
330
17
100
AcDbEntity
  8
0
100
AcDbPolyline
 90
4
 70
1
 10
155.565
 20
-9.851
 10
154.164
 20
-10.66
 10
152.763
 20
-9.851
 10
155.565
 20
-9.851
  0
LWPOLYLINE
  5
24F
330
17
100
AcDbEntity
  8
0
100
AcDbPolyline
 90
4
 70
1
 10
159.096
 20
-9.851
 10
157.695
 20
-10.66
 10
156.294
 20
-9.851
 10
159.096
 20
-9.851
  0
LWPOLYLINE
  5
250
330
17
100
AcDbEntity
  8
0
100
AcDbPolyline
 90
4
 70
1
 10
162.628
 20
-9.851
 10
161.226
 20
-10.66
 10
159.825
 20
-9.851
 10
162.628
 20
-9.851
  0
LWPOLYLINE
  5
251
330
17
100
AcDbEntity
  8
0
100
AcDbPolyline
 90
4
 70
1
 10
166.159
 20
-9.851
 10
164.757
 20
-10.66
 10
163.356
 20
-9.851
 10
166.159
 20
-9.851
  0
LWPOLYLINE
  5
252
330
17
100
AcDbEntity
  8
0
100
AcDbPolyline
 90
4
 70
1
 10
169.69
 20
-9.851
 10
168.289
 20
-10.66
 10
166.887
 20
-9.851
 10
169.69
 20
-9.851
  0
LWPOLYLINE
  5
253
330
17
100
AcDbEntity
  8
0
100
AcDbPolyline
 90
4
 70
1
 10
173.221
 20
-9.851
 10
171.82
 20
-10.66
 10
170.418
 20
-9.851
 10
173.221
 20
-9.851
  0
LWPOLYLINE
  5
254
330
17
100
AcDbEntity
  8
0
100
AcDbPolyline
 90
4
 70
1
 10
176.752
 20
-9.851
 10
175.351
 20
-10.66
 10
173.95
 20
-9.851
 10
176.752
 20
-9.851
  0
LWPOLYLINE
  5
255
330
17
100
AcDbEntity
  8
0
100
AcDbPolyline
 90
4
 70
1
 10
180.283
 20
-9.851
 10
178.882
 20
-10.66
 10
177.481
 20
-9.851
 10
180.283
 20
-9.851
  0
LWPOLYLINE
  5
256
330
17
100
AcDbEntity
  8
0
100
AcDbPolyline
 90
4
 70
1
 10
183.814
 20
-9.851
 10
182.413
 20
-10.66
 10
181.012
 20
-9.851
 10
183.814
 20
-9.851
  0
ENDSEC
  0
SECTION
  2
OBJECTS
  0
DICTIONARY
  5
A
330
0
100
AcDbDictionary
281
1
  3
ACAD_COLOR
350
B
  3
ACAD_GROUP
350
C
  3
ACAD_LAYOUT
350
D
  3
ACAD_MATERIAL
350
E
  3
ACAD_MLEADERSTYLE
350
F
  3
ACAD_MLINESTYLE
350
10
  3
ACAD_PLOTSETTINGS
350
11
  3
ACAD_PLOTSTYLENAME
350
12
  3
ACAD_SCALELIST
350
14
  3
ACAD_TABLESTYLE
350
15
  3
ACAD_VISUALSTYLE
350
16
  3
EZDXF_META
350
2D
  0
DICTIONARY
  5
B
330
A
100
AcDbDictionary
281
1
  0
DICTIONARY
  5
C
330
A
100
AcDbDictionary
281
1
  0
DICTIONARY
  5
D
330
A
100
AcDbDictionary
281
1
  3
Model
350
1A
  3
Layout1
350
1E
  0
DICTIONARY
  5
E
330
A
100
AcDbDictionary
281
1
  3
ByBlock
350
1F
  3
ByLayer
350
20
  3
Global
350
21
  0
DICTIONARY
  5
F
330
A
100
AcDbDictionary
281
1
  3
Standard
350
2C
  0
DICTIONARY
  5
10
330
A
100
AcDbDictionary
281
1
  3
Standard
350
22
  0
DICTIONARY
  5
11
330
A
100
AcDbDictionary
281
1
  0
ACDBDICTIONARYWDFLT
  5
12
330
A
100
AcDbDictionary
281
1
  3
Normal
350
13
100
AcDbDictionaryWithDefault
340
13
  0
ACDBPLACEHOLDER
  5
13
330
12
  0
DICTIONARY
  5
14
330
A
100
AcDbDictionary
281
1
  0
DICTIONARY
  5
15
330
A
100
AcDbDictionary
281
1
  0
DICTIONARY
  5
16
330
A
100
AcDbDictionary
281
1
  0
LAYOUT
  5
1A
330
D
100
AcDbPlotSettings
  1

  4
A3
  6

 40
7.5
 41
20.0
 42
7.5
 43
20.0
 44
420.0
 45
297.0
 46
0.0
 47
0.0
 48
0.0
 49
0.0
140
0.0
141
0.0
142
1.0
143
1.0
 70
1024
 72
1
 73
0
 74
5
  7

 75
16
 76
0
 77
2
 78
300
147
1.0
148
0.0
149
0.0
100
AcDbLayout
  1
Model
 70
1
 71
0
 10
0.0
 20
0.0
 11
420.0
 21
297.0
 12
0.0
 22
0.0
 32
0.0
 14
1e+20
 24
1e+20
 34
1e+20
 15
-1e+20
 25
-1e+20
 35
-1e+20
146
0.0
 13
0.0
 23
0.0
 33
0.0
 16
1.0
 26
0.0
 36
0.0
 17
0.0
 27
1.0
 37
0.0
 76
1
330
17
  0
LAYOUT
  5
1E
330
D
100
AcDbPlotSettings
  1

  4
A3
  6

 40
7.5
 41
20.0
 42
7.5
 43
20.0
 44
420.0
 45
297.0
 46
0.0
 47
0.0
 48
0.0
 49
0.0
140
0.0
141
0.0
142
1.0
143
1.0
 70
0
 72
1
 73
0
 74
5
  7

 75
16
 76
0
 77
2
 78
300
147
1.0
148
0.0
149
0.0
100
AcDbLayout
  1
Layout1
 70
1
 71
1
 10
0.0
 20
0.0
 11
420.0
 21
297.0
 12
0.0
 22
0.0
 32
0.0
 14
1e+20
 24
1e+20
 34
1e+20
 15
-1e+20
 25
-1e+20
 35
-1e+20
146
0.0
 13
0.0
 23
0.0
 33
0.0
 16
1.0
 26
0.0
 36
0.0
 17
0.0
 27
1.0
 37
0.0
 76
1
330
1B
  0
MATERIAL
  5
1F
102
{ACAD_REACTORS
330
E
102
}
330
E
100
AcDbMaterial
  1
ByBlock
  2

 70
0
 40
1.0
 71
1
 41
1.0
 91
-1023410177
 42
1.0
 72
1
  3

 73
1
 74
1
 75
1
 44
0.5
 73
0
 45
1.0
 46
1.0
 77
1
  4

 78
1
 79
1
170
1
 48
1.0
171
1
  6

172
1
173
1
174
1
140
1.0
141
1.0
175
1
  7

176
1
177
1
178
1
143
1.0
179
1
  8

270
1
271
1
272
1
145
1.0
146
1.0
273
1
  9

274
1
275
1
276
1
 42
1.0
 72
1
  3

 73
1
 74
1
 75
1
 94
63
  0
MATERIAL
  5
20
102
{ACAD_REACTORS
330
E
102
}
330
E
100
AcDbMaterial
  1
ByLayer
  2

 70
0
 40
1.0
 71
1
 41
1.0
 91
-1023410177
 42
1.0
 72
1
  3

 73
1
 74
1
 75
1
 44
0.5
 73
0
 45
1.0
 46
1.0
 77
1
  4

 78
1
 79
1
170
1
 48
1.0
171
1
  6

172
1
173
1
174
1
140
1.0
141
1.0
175
1
  7

176
1
177
1
178
1
143
1.0
179
1
  8

270
1
271
1
272
1
145
1.0
146
1.0
273
1
  9

274
1
275
1
276
1
 42
1.0
 72
1
  3

 73
1
 74
1
 75
1
 94
63
  0
MATERIAL
  5
21
102
{ACAD_REACTORS
330
E
102
}
330
E
100
AcDbMaterial
  1
Global
  2

 70
0
 40
1.0
 71
1
 41
1.0
 91
-1023410177
 42
1.0
 72
1
  3

 73
1
 74
1
 75
1
 44
0.5
 73
0
 45
1.0
 46
1.0
 77
1
  4

 78
1
 79
1
170
1
 48
1.0
171
1
  6

172
1
173
1
174
1
140
1.0
141
1.0
175
1
  7

176
1
177
1
178
1
143
1.0
179
1
  8

270
1
271
1
272
1
145
1.0
146
1.0
273
1
  9

274
1
275
1
276
1
 42
1.0
 72
1
  3

 73
1
 74
1
 75
1
 94
63
  0
MLINESTYLE
  5
22
102
{ACAD_REACTORS
330
10
102
}
330
10
100
AcDbMlineStyle
  2
Standard
 70
0
  3

 62
256
 51
90.0
 52
90.0
 71
2
 49
0.5
 62
256
  6
BYLAYER
 49
-0.5
 62
256
  6
BYLAYER
  0
MLEADERSTYLE
  5
2C
102
{ACAD_REACTORS
330
F
102
}
330
F
100
AcDbMLeaderStyle
179
2
170
2
171
1
172
0
 90
2
 40
0.0
 41
0.0
173
1
 91
-1056964608
 92
-2
290
1
 42
2.0
291
1
 43
8.0
  3
Standard
 44
4.0
300

342
29
174
1
175
1
176
0
178
1
 93
-1056964608
 45
4.0
292
0
297
0
 46
4.0
 94
-1056964608
 47
1.0
 49
1.0
140
1.0
294
1
141
0.0
177
0
142
1.0
295
0
296
0
143
3.75
271
0
272
9
273
9
  0
DICTIONARY
  5
2D
330
A
100
AcDbDictionary
280
1
281
1
  3
CREATED_BY_EZDXF
350
2E
  3
WRITTEN_BY_EZDXF
350
259
  0
DICTIONARYVAR
  5
2E
330
2D
100
DictionaryVariables
280
0
  1
1.4.3 @ 2026-04-09T21:37:17.675717+00:00
  0
DICTIONARYVAR
  5
259
330
2D
100
DictionaryVariables
280
0
  1
1.4.3 @ 2026-04-09T21:37:17.688211+00:00
  0
ENDSEC
  0
EOF
