  0
SECTION
  2
HEADER
  9
$ACADVER
  1
AC1024
  9
$ACADMAINTVER
 70
6
  9
$DWGCODEPAGE
  3
ANSI_1252
  9
$LASTSAVEDBY
  1
ezdxf
  9
$INSBASE
 10
0.0
 20
0.0
 30
0.0
  9
$EXTMIN
 10
1e+20
 20
1e+20
 30
1e+20
  9
$EXTMAX
 10
-1e+20
 20
-1e+20
 30
-1e+20
  9
$LIMMIN
 10
0.0
 20
0.0
  9
$LIMMAX
 10
420.0
 20
297.0
  9
$ORTHOMODE
 70
0
  9
$REGENMODE
 70
1
  9
$FILLMODE
 70
1
  9
$QTEXTMODE
 70
0
  9
$MIRRTEXT
 70
1
  9
$LTSCALE
 40
1.0
  9
$ATTMODE
 70
1
  9
$TEXTSIZE
 40
2.5
  9
$TRACEWID
 40
1.0
  9
$TEXTSTYLE
  7
Standard
  9
$CLAYER
  8
0
  9
$CELTYPE
  6
ByLayer
  9
$CECOLOR
 62
256
  9
$CELTSCALE
 40
1.0
  9
$DISPSILH
 70
0
  9
$DIMSCALE
 40
1.0
  9
$DIMASZ
 40
2.5
  9
$DIMEXO
 40
0.625
  9
$DIMDLI
 40
3.75
  9
$DIMRND
 40
0.0
  9
$DIMDLE
 40
0.0
  9
$DIMEXE
 40
1.25
  9
$DIMTP
 40
0.0
  9
$DIMTM
 40
0.0
  9
$DIMTXT
 40
2.5
  9
$DIMCEN
 40
2.5
  9
$DIMTSZ
 40
0.0
  9
$DIMTOL
 70
0
  9
$DIMLIM
 70
0
  9
$DIMTIH
 70
0
  9
$DIMTOH
 70
0
  9
$DIMSE1
 70
0
  9
$DIMSE2
 70
0
  9
$DIMTAD
 70
1
  9
$DIMZIN
 70
8
  9
$DIMBLK
  1

  9
$DIMASO
 70
1
  9
$DIMSHO
 70
1
  9
$DIMPOST
  1

  9
$DIMAPOST
  1

  9
$DIMALT
 70
0
  9
$DIMALTD
 70
3
  9
$DIMALTF
 40
0.03937007874
  9
$DIMLFAC
 40
1.0
  9
$DIMTOFL
 70
1
  9
$DIMTVP
 40
0.0
  9
$DIMTIX
 70
0
  9
$DIMSOXD
 70
0
  9
$DIMSAH
 70
0
  9
$DIMBLK1
  1

  9
$DIMBLK2
  1

  9
$DIMSTYLE
  2
ISO-25
  9
$DIMCLRD
 70
0
  9
$DIMCLRE
 70
0
  9
$DIMCLRT
 70
0
  9
$DIMTFAC
 40
1.0
  9
$DIMGAP
 40
0.625
  9
$DIMJUST
 70
0
  9
$DIMSD1
 70
0
  9
$DIMSD2
 70
0
  9
$DIMTOLJ
 70
0
  9
$DIMTZIN
 70
8
  9
$DIMALTZ
 70
0
  9
$DIMALTTZ
 70
0
  9
$DIMUPT
 70
0
  9
$DIMDEC
 70
2
  9
$DIMTDEC
 70
2
  9
$DIMALTU
 70
2
  9
$DIMALTTD
 70
3
  9
$DIMTXSTY
  7
Standard
  9
$DIMAUNIT
 70
0
  9
$DIMADEC
 70
0
  9
$DIMALTRND
 40
0.0
  9
$DIMAZIN
 70
0
  9
$DIMDSEP
 70
44
  9
$DIMATFIT
 70
3
  9
$DIMFRAC
 70
0
  9
$DIMLDRBLK
  1

  9
$DIMLUNIT
 70
2
  9
$DIMLWD
 70
-2
  9
$DIMLWE
 70
-2
  9
$DIMTMOVE
 70
0
  9
$DIMFXL
 40
1.0
  9
$DIMFXLON
 70
0
  9
$DIMJOGANG
 40
0.785398163397
  9
$DIMTFILL
 70
0
  9
$DIMTFILLCLR
 70
0
  9
$DIMARCSYM
 70
0
  9
$DIMLTYPE
  6

  9
$DIMLTEX1
  6

  9
$DIMLTEX2
  6

  9
$DIMTXTDIRECTION
 70
0
  9
$LUNITS
 70
2
  9
$LUPREC
 70
4
  9
$SKETCHINC
 40
1.0
  9
$FILLETRAD
 40
10.0
  9
$AUNITS
 70
0
  9
$AUPREC
 70
2
  9
$MENU
  1
.
  9
$ELEVATION
 40
0.0
  9
$PELEVATION
 40
0.0
  9
$THICKNESS
 40
0.0
  9
$LIMCHECK
 70
0
  9
$CHAMFERA
 40
0.0
  9
$CHAMFERB
 40
0.0
  9
$CHAMFERC
 40
0.0
  9
$CHAMFERD
 40
0.0
  9
$SKPOLY
 70
0
  9
$TDCREATE
 40
2461140.590138889
  9
$TDUCREATE
 40
2458532.153996898
  9
$TDUPDATE
 40
2461140.590138889
  9
$TDUUPDATE
 40
2458532.1544311
  9
$TDINDWG
 40
0.0
  9
$TDUSRTIMER
 40
0.0
  9
$USRTIMER
 70
1
  9
$ANGBASE
 50
0.0
  9
$ANGDIR
 70
0
  9
$PDMODE
 70
0
  9
$PDSIZE
 40
0.0
  9
$PLINEWID
 40
0.0
  9
$SPLFRAME
 70
0
  9
$SPLINETYPE
 70
6
  9
$SPLINESEGS
 70
8
  9
$HANDSEED
  5
3E
  9
$SURFTAB1
 70
6
  9
$SURFTAB2
 70
6
  9
$SURFTYPE
 70
6
  9
$SURFU
 70
6
  9
$SURFV
 70
6
  9
$UCSBASE
  2

  9
$UCSNAME
  2

  9
$UCSORG
 10
0.0
 20
0.0
 30
0.0
  9
$UCSXDIR
 10
1.0
 20
0.0
 30
0.0
  9
$UCSYDIR
 10
0.0
 20
1.0
 30
0.0
  9
$UCSORTHOREF
  2

  9
$UCSORTHOVIEW
 70
0
  9
$UCSORGTOP
 10
0.0
 20
0.0
 30
0.0
  9
$UCSORGBOTTOM
 10
0.0
 20
0.0
 30
0.0
  9
$UCSORGLEFT
 10
0.0
 20
0.0
 30
0.0
  9
$UCSORGRIGHT
 10
0.0
 20
0.0
 30
0.0
  9
$UCSORGFRONT
 10
0.0
 20
0.0
 30
0.0
  9
$UCSORGBACK
 10
0.0
 20
0.0
 30
0.0
  9
$PUCSBASE
  2

  9
$PUCSNAME
  2

  9
$PUCSORG
 10
0.0
 20
0.0
 30
0.0
  9
$PUCSXDIR
 10
1.0
 20
0.0
 30
0.0
  9
$PUCSYDIR
 10
0.0
 20
1.0
 30
0.0
  9
$PUCSORTHOREF
  2

  9
$PUCSORTHOVIEW
 70
0
  9
$PUCSORGTOP
 10
0.0
 20
0.0
 30
0.0
  9
$PUCSORGBOTTOM
 10
0.0
 20
0.0
 30
0.0
  9
$PUCSORGLEFT
 10
0.0
 20
0.0
 30
0.0
  9
$PUCSORGRIGHT
 10
0.0
 20
0.0
 30
0.0
  9
$PUCSORGFRONT
 10
0.0
 20
0.0
 30
0.0
  9
$PUCSORGBACK
 10
0.0
 20
0.0
 30
0.0
  9
$USERI1
 70
0
  9
$USERI2
 70
0
  9
$USERI3
 70
0
  9
$USERI4
 70
0
  9
$USERI5
 70
0
  9
$USERR1
 40
0.0
  9
$USERR2
 40
0.0
  9
$USERR3
 40
0.0
  9
$USERR4
 40
0.0
  9
$USERR5
 40
0.0
  9
$WORLDVIEW
 70
1
  9
$SHADEDGE
 70
3
  9
$SHADEDIF
 70
70
  9
$TILEMODE
 70
1
  9
$MAXACTVP
 70
64
  9
$PINSBASE
 10
0.0
 20
0.0
 30
0.0
  9
$PLIMCHECK
 70
0
  9
$PEXTMIN
 10
1e+20
 20
1e+20
 30
1e+20
  9
$PEXTMAX
 10
-1e+20
 20
-1e+20
 30
-1e+20
  9
$PLIMMIN
 10
0.0
 20
0.0
  9
$PLIMMAX
 10
420.0
 20
297.0
  9
$UNITMODE
 70
0
  9
$VISRETAIN
 70
1
  9
$PLINEGEN
 70
0
  9
$PSLTSCALE
 70
1
  9
$TREEDEPTH
 70
3020
  9
$CMLSTYLE
  2
Standard
  9
$CMLJUST
 70
0
  9
$CMLSCALE
 40
20.0
  9
$PROXYGRAPHICS
 70
1
  9
$MEASUREMENT
 70
1
  9
$CELWEIGHT
370
-1
  9
$ENDCAPS
280
0
  9
$JOINSTYLE
280
0
  9
$LWDISPLAY
290
0
  9
$INSUNITS
 70
6
  9
$HYPERLINKBASE
  1

  9
$STYLESHEET
  1

  9
$XEDIT
290
1
  9
$CEPSNTYPE
380
0
  9
$PSTYLEMODE
290
1
  9
$FINGERPRINTGUID
  2
{B8EC514E-7A96-4B4A-9E8B-761ED8FD962C}
  9
$VERSIONGUID
  2
{7C6DACA3-128B-4D86-9E73-4B9C830E81B0}
  9
$EXTNAMES
290
1
  9
$PSVPSCALE
 40
0.0
  9
$OLESTARTUP
290
0
  9
$SORTENTS
280
127
  9
$INDEXCTL
280
0
  9
$HIDETEXT
280
1
  9
$XCLIPFRAME
280
1
  9
$HALOGAP
280
0
  9
$OBSCOLOR
 70
257
  9
$OBSLTYPE
280
0
  9
$INTERSECTIONDISPLAY
280
0
  9
$INTERSECTIONCOLOR
 70
257
  9
$DIMASSOC
280
2
  9
$PROJECTNAME
  1

  9
$CAMERADISPLAY
290
0
  9
$LENSLENGTH
 40
50.0
  9
$CAMERAHEIGHT
 40
0.0
  9
$STEPSPERSEC
 40
24.0
  9
$STEPSIZE
 40
100.0
  9
$3DDWFPREC
 40
2.0
  9
$PSOLWIDTH
 40
0.005
  9
$PSOLHEIGHT
 40
0.08
  9
$LOFTANG1
 40
1.570796326795
  9
$LOFTANG2
 40
1.570796326795
  9
$LOFTMAG1
 40
0.0
  9
$LOFTMAG2
 40
0.0
  9
$LOFTPARAM
 70
7
  9
$LOFTNORMALS
280
1
  9
$LATITUDE
 40
37.795
  9
$LONGITUDE
 40
-122.394
  9
$NORTHDIRECTION
 40
0.0
  9
$TIMEZONE
 70
-8000
  9
$LIGHTGLYPHDISPLAY
280
1
  9
$TILEMODELIGHTSYNCH
280
1
  9
$CMATERIAL
347
20
  9
$SOLIDHIST
280
0
  9
$SHOWHIST
280
1
  9
$DWFFRAME
280
2
  9
$DGNFRAME
280
2
  9
$REALWORLDSCALE
290
1
  9
$INTERFERECOLOR
 62
256
  9
$CSHADOW
280
0
  9
$SHADOWPLANELOCATION
 40
0.0
  0
ENDSEC
  0
SECTION
  2
CLASSES
  0
CLASS
  1
ACDBDICTIONARYWDFLT
  2
AcDbDictionaryWithDefault
  3
ObjectDBX Classes
 90
0
 91
0
280
0
281
0
  0
CLASS
  1
SUN
  2
AcDbSun
  3
SCENEOE
 90
1153
 91
0
280
0
281
0
  0
CLASS
  1
VISUALSTYLE
  2
AcDbVisualStyle
  3
ObjectDBX Classes
 90
4095
 91
0
280
0
281
0
  0
CLASS
  1
MATERIAL
  2
AcDbMaterial
  3
ObjectDBX Classes
 90
1153
 91
0
280
0
281
0
  0
CLASS
  1
SCALE
  2
AcDbScale
  3
ObjectDBX Classes
 90
1153
 91
0
280
0
281
0
  0
CLASS
  1
TABLESTYLE
  2
AcDbTableStyle
  3
ObjectDBX Classes
 90
4095
 91
0
280
0
281
0
  0
CLASS
  1
MLEADERSTYLE
  2
AcDbMLeaderStyle
  3
ACDB_MLEADERSTYLE_CLASS
 90
4095
 91
0
280
0
281
0
  0
CLASS
  1
DICTIONARYVAR
  2
AcDbDictionaryVar
  3
ObjectDBX Classes
 90
0
 91
0
280
0
281
0
  0
CLASS
  1
CELLSTYLEMAP
  2
AcDbCellStyleMap
  3
ObjectDBX Classes
 90
1152
 91
0
280
0
281
0
  0
CLASS
  1
MENTALRAYRENDERSETTINGS
  2
AcDbMentalRayRenderSettings
  3
SCENEOE
 90
1024
 91
0
280
0
281
0
  0
CLASS
  1
ACDBDETAILVIEWSTYLE
  2
AcDbDetailViewStyle
  3
ObjectDBX Classes
 90
1025
 91
0
280
0
281
0
  0
CLASS
  1
ACDBSECTIONVIEWSTYLE
  2
AcDbSectionViewStyle
  3
ObjectDBX Classes
 90
1025
 91
0
280
0
281
0
  0
CLASS
  1
RASTERVARIABLES
  2
AcDbRasterVariables
  3
ISM
 90
0
 91
0
280
0
281
0
  0
CLASS
  1
LAYOUT
  2
AcDbLayout
  3
ObjectDBX Classes
 90
0
 91
0
280
0
281
0
  0
CLASS
  1
ACDBPLACEHOLDER
  2
AcDbPlaceHolder
  3
ObjectDBX Classes
 90
0
 91
0
280
0
281
0
  0
ENDSEC
  0
SECTION
  2
TABLES
  0
TABLE
  2
VPORT
  5
8
330
0
100
AcDbSymbolTable
 70
1
  0
VPORT
  5
23
330
8
100
AcDbSymbolTableRecord
100
AcDbViewportTableRecord
  2
*Active
 70
0
 10
0.0
 20
0.0
 11
1.0
 21
1.0
 12
0.0
 22
0.0
 13
0.0
 23
0.0
 14
0.5
 24
0.5
 15
0.5
 25
0.5
 16
0.0
 26
0.0
 36
1.0
 17
0.0
 27
0.0
 37
0.0
 40
1000.0
 41
1.34
 42
50.0
 43
0.0
 44
0.0
 50
0.0
 51
0.0
 71
0
 72
1000
 73
1
 74
3
 75
0
 76
0
 77
0
 78
0
281
0
 65
0
146
0.0
  0
ENDTAB
  0
TABLE
  2
LTYPE
  5
2
330
0
100
AcDbSymbolTable
 70
3
  0
LTYPE
  5
24
330
2
100
AcDbSymbolTableRecord
100
AcDbLinetypeTableRecord
  2
ByBlock
 70
0
  3

 72
65
 73
0
 40
0.0
  0
LTYPE
  5
25
330
2
100
AcDbSymbolTableRecord
100
AcDbLinetypeTableRecord
  2
ByLayer
 70
0
  3

 72
65
 73
0
 40
0.0
  0
LTYPE
  5
26
330
2
100
AcDbSymbolTableRecord
100
AcDbLinetypeTableRecord
  2
Continuous
 70
0
  3

 72
65
 73
0
 40
0.0
  0
ENDTAB
  0
TABLE
  2
LAYER
  5
1
330
0
100
AcDbSymbolTable
 70
2
  0
LAYER
  5
27
330
1
100
AcDbSymbolTableRecord
100
AcDbLayerTableRecord
  2
0
 70
0
 62
7
  6
Continuous
370
-3
390
13
347
21
  0
LAYER
  5
28
330
1
100
AcDbSymbolTableRecord
100
AcDbLayerTableRecord
  2
Defpoints
 70
0
 62
7
  6
Continuous
290
0
370
-3
390
13
347
21
  0
ENDTAB
  0
TABLE
  2
STYLE
  5
5
330
0
100
AcDbSymbolTable
 70
1
  0
STYLE
  5
29
330
5
100
AcDbSymbolTableRecord
100
AcDbTextStyleTableRecord
  2
Standard
 70
0
 40
0.0
 41
1.0
 50
0.0
 71
0
 42
2.5
  3
txt
  4

  0
ENDTAB
  0
TABLE
  2
VIEW
  5
7
330
0
100
AcDbSymbolTable
 70
0
  0
ENDTAB
  0
TABLE
  2
UCS
  5
6
330
0
100
AcDbSymbolTable
 70
0
  0
ENDTAB
  0
TABLE
  2
APPID
  5
3
330
0
100
AcDbSymbolTable
 70
3
  0
APPID
  5
2A
330
3
100
AcDbSymbolTableRecord
100
AcDbRegAppTableRecord
  2
ACAD
 70
0
  0
APPID
  5
3B
330
3
100
AcDbSymbolTableRecord
100
AcDbRegAppTableRecord
  2
HATCHBACKGROUNDCOLOR
 70
0
  0
APPID
  5
3C
330
3
100
AcDbSymbolTableRecord
100
AcDbRegAppTableRecord
  2
EZDXF
 70
0
  0
ENDTAB
  0
TABLE
  2
DIMSTYLE
  5
4
330
0
100
AcDbSymbolTable
 70
1
100
AcDbDimStyleTable
  0
DIMSTYLE
105
2B
330
4
100
AcDbSymbolTableRecord
100
AcDbDimStyleTableRecord
  2
Standard
 70
0
 40
1.0
 41
2.5
 42
0.625
 43
3.75
 44
1.25
 45
0.0
 46
0.0
 47
0.0
 48
0.0
 49
2.5
140
2.5
141
2.5
142
0.0
143
0.03937007874
144
1.0
145
0.0
146
1.0
147
0.625
148
0.0
 69
0
 70
0
 71
0
 72
0
 73
0
 74
0
 75
0
 76
0
 77
1
 78
8
 79
3
170
0
171
3
172
1
173
0
174
0
175
0
176
0
177
0
178
0
179
2
271
2
272
2
273
2
274
3
275
0
276
0
277
2
278
44
279
0
280
0
281
0
282
0
283
0
284
8
285
0
286
0
288
0
289
3
290
0
371
-2
372
-2
  0
ENDTAB
  0
TABLE
  2
BLOCK_RECORD
  5
9
330
0
100
AcDbSymbolTable
 70
2
  0
BLOCK_RECORD
  5
17
330
9
100
AcDbSymbolTableRecord
100
AcDbBlockTableRecord
  2
*Model_Space
340
1A
 70
0
280
1
281
0
  0
BLOCK_RECORD
  5
1B
330
9
100
AcDbSymbolTableRecord
100
AcDbBlockTableRecord
  2
*Paper_Space
340
1E
 70
0
280
1
281
0
  0
ENDTAB
  0
ENDSEC
  0
SECTION
  2
BLOCKS
  0
BLOCK
  5
18
330
17
100
AcDbEntity
  8
0
100
AcDbBlockBegin
  2
*Model_Space
 70
0
 10
0.0
 20
0.0
 30
0.0
  3
*Model_Space
  1

  0
ENDBLK
  5
19
330
17
100
AcDbEntity
  8
0
100
AcDbBlockEnd
  0
BLOCK
  5
1C
330
1B
100
AcDbEntity
  8
0
100
AcDbBlockBegin
  2
*Paper_Space
 70
0
 10
0.0
 20
0.0
 30
0.0
  3
*Paper_Space
  1

  0
ENDBLK
  5
1D
330
1B
100
AcDbEntity
  8
0
100
AcDbBlockEnd
  0
ENDSEC
  0
SECTION
  2
ENTITIES
  0
LWPOLYLINE
  5
2F
330
17
100
AcDbEntity
  8
0
100
AcDbPolyline
 90
609
 70
0
 10
176.08296
 20
-122.014742
 10
176.177448
 20
-121.569226
 10
176.276254
 20
-121.12599599999999
 10
176.37887
 20
-120.68530599999998
 10
176.48555
 20
-120.24690199999999
 10
176.596294
 20
-119.81052999999999
 10
176.710848
 20
-119.37644399999998
 10
176.829212
 20
-118.94438999999998
 10
176.951132
 20
-118.51411399999998
 10
177.076862
 20
-118.08561599999997
 10
177.206148
 20
-117.65889599999997
 10
177.33899000000002
 20
-117.23369999999997
 10
177.475134
 20
-116.81002799999997
 10
177.614834
 20
-116.38787999999998
 10
177.757836
 20
-115.96700199999998
 10
177.90413999999998
 20
-115.54739399999998
 10
178.05349199999998
 20
-115.12880199999998
 10
178.20589199999998
 20
-114.71122599999998
 10
178.36133999999998
 20
-114.29466599999998
 10
178.519836
 20
-113.87886799999998
 10
178.68138
 20
-113.46383199999998
 10
178.845718
 20
-113.04955799999999
 10
179.01285
 20
-112.63579199999998
 10
179.182776
 20
-112.22253399999998
 10
179.35524199999998
 20
-111.80952999999998
 10
179.53024799999997
 20
-111.39677999999998
 10
179.70779399999998
 20
-110.98428399999997
 10
179.88787999999994
 20
-110.57178799999997
 10
180.07025199999995
 20
-110.15929199999997
 10
180.25490999999994
 20
-109.74654199999996
 10
180.44185399999992
 20
-109.33353799999998
 10
180.63108399999993
 20
-108.92027999999998
 10
180.82234599999995
 20
-108.50676799999998
 10
181.01919599999994
 20
-108.08106399999998
 10
181.20944199999994
 20
-107.66450399999998
 10
181.39333799999994
 20
-107.25632599999997
 10
181.57088399999995
 20
-106.85602199999997
 10
181.74233399999994
 20
-106.46257599999997
 10
181.90794199999993
 20
-106.07522599999999
 10
182.06796199999994
 20
-105.69320999999998
 10
182.22239399999992
 20
-105.31576599999998
 10
182.37149199999993
 20
-104.94238599999997
 10
182.51525599999994
 20
-104.57205399999997
 10
182.65393999999995
 20
-104.20400799999996
 10
182.78779799999995
 20
-103.83748599999997
 10
182.91708399999996
 20
-103.47172599999996
 10
183.04179799999997
 20
-103.10596599999997
 10
183.16219399999997
 20
-102.73944399999996
 10
183.27852599999997
 20
-102.37139799999997
 10
183.39079399999997
 20
-102.00106599999997
 10
183.49925199999998
 20
-101.62743199999996
 10
183.60389999999998
 20
-101.24998799999996
 10
183.705246
 20
-100.86797199999995
 10
183.80328999999998
 20
-100.48062199999997
 10
183.89803199999997
 20
-100.08717599999997
 10
183.98997999999997
 20
-99.68661799999997
 10
184.07887999999997
 20
-99.27843999999996
 10
184.16523999999998
 20
-98.86187999999997
 10
184.24906
 20
-98.43592199999996
 10
184.33059400000002
 20
-98.00005799999995
 10
184.410096
 20
-97.55352599999996
 10
184.487566
 20
-97.09530999999997
 10
184.563258
 20
-96.62490199999998
 10
184.637426
 20
-96.14128599999998
 10
184.71006999999997
 20
-95.64395399999997
 10
184.71718199999998
 20
-95.60229799999998
 10
184.726072
 20
-95.56191199999998
 10
184.73699399999998
 20
-95.52254199999999
 10
184.74969399999998
 20
-95.48444199999999
 10
184.76417199999997
 20
-95.44735799999998
 10
184.78042799999997
 20
-95.41154399999998
 10
184.798208
 20
-95.37699999999997
 10
184.81776599999998
 20
-95.34372599999998
 10
184.83884799999998
 20
-95.31197599999997
 10
184.86145399999998
 20
-95.28149599999998
 10
184.88533
 20
-95.25253999999998
 10
184.91073
 20
-95.22510799999998
 10
184.9374
 20
-95.19919999999999
 10
184.96534
 20
-95.17481599999999
 10
184.99455
 20
-95.151956
 10
185.02477600000003
 20
-95.13062
 10
185.05627200000004
 20
-95.11106199999999
 10
185.08878400000003
 20
-95.093282
 10
185.12231200000002
 20
-95.07728
 10
185.15660200000002
 20
-95.063056
 10
185.191908
 20
-95.05061
 10
185.22797600000004
 20
-95.03994200000001
 10
185.26480600000002
 20
-95.03130600000001
 10
185.30214400000006
 20
-95.02444800000002
 10
185.34024400000004
 20
-95.01962200000003
 10
185.37885200000005
 20
-95.01682800000002
 10
185.41796800000006
 20
-95.01606600000002
 10
185.45759200000003
 20
-95.01733600000001
 10
185.49772400000003
 20
-95.02089200000002
 10
185.53811000000005
 20
-95.02648000000002
 10
185.57875000000004
 20
-95.03435400000002
 10
185.61964400000002
 20
-95.04451400000002
 10
186.26709000000002
 20
-95.22282200000002
 10
186.920886
 20
-95.40240000000003
 10
187.580524
 20
-95.58324800000001
 10
188.245496
 20
-95.76536600000001
 10
188.91554800000003
 20
-95.94850000000001
 10
189.59042600000004
 20
-96.13265000000003
 10
190.26936800000001
 20
-96.31756200000002
 10
190.95237400000002
 20
-96.50323600000002
 10
191.63868200000002
 20
-96.68967200000002
 10
192.32829200000003
 20
-96.87687000000003
 10
193.02044200000003
 20
-97.06457600000002
 10
193.71487800000006
 20
-97.25253600000002
 10
194.41134600000004
 20
-97.44100400000002
 10
195.10933800000004
 20
-97.62947200000004
 10
195.80834600000003
 20
-97.81819400000003
 10
196.50811600000003
 20
-98.00691600000003
 10
197.20814000000001
 20
-98.19563800000003
 10
197.90816400000003
 20
-98.38410600000003
 10
198.60768000000002
 20
-98.57257400000003
 10
199.30618
 20
-98.76053400000004
 10
200.00366400000001
 20
-98.94824000000003
 10
200.69937000000002
 20
-99.13543800000004
 10
201.39304400000003
 20
-99.32187400000004
 10
202.08417800000004
 20
-99.50754800000003
 10
202.77251800000002
 20
-99.69246000000004
 10
203.45781000000002
 20
-99.87661000000004
 10
204.13929200000004
 20
-100.05974400000004
 10
204.81671000000003
 20
-100.24186200000004
 10
205.48981000000003
 20
-100.42271000000004
 10
206.15808400000003
 20
-100.60228800000003
 10
206.821278
 20
-100.78059600000003
 10
207.47888400000002
 20
-100.95738000000004
 10
207.52282600000004
 20
-100.97033400000004
 10
207.56549800000005
 20
-100.98557400000003
 10
207.60715400000004
 20
-101.00284600000003
 10
207.64728600000004
 20
-101.02215000000004
 10
207.68614800000003
 20
-101.04323200000005
 10
207.72374000000005
 20
-101.06609200000004
 10
207.75980800000005
 20
-101.09073000000004
 10
207.79460600000004
 20
-101.11714600000003
 10
207.82788000000005
 20
-101.14508600000003
 10
207.85963000000004
 20
-101.17455000000002
 10
207.88960200000005
 20
-101.20553800000003
 10
207.91805000000005
 20
-101.23779600000003
 10
207.94472000000005
 20
-101.27132400000004
 10
207.96961200000004
 20
-101.30612200000003
 10
207.99272600000003
 20
-101.34219000000003
 10
208.01406200000002
 20
-101.37927400000004
 10
208.03336600000003
 20
-101.41737400000004
 10
208.05089200000003
 20
-101.45623600000003
 10
208.06638600000002
 20
-101.49586000000004
 10
208.07984800000003
 20
-101.53624600000003
 10
208.09127800000002
 20
-101.57739400000003
 10
208.100422
 20
-101.61905000000003
 10
208.10753400000002
 20
-101.66121400000003
 10
208.11236000000002
 20
-101.70388600000003
 10
208.1149
 20
-101.74681200000002
 10
208.115154
 20
-101.78999200000003
 10
208.113122
 20
-101.83342600000003
 10
208.10854999999998
 20
-101.87711400000003
 10
208.10143799999997
 20
-101.92080200000004
 10
208.09203999999997
 20
-101.96449000000004
 10
208.07984799999997
 20
-102.00792400000005
 10
208.06511599999996
 20
-102.05135800000004
 10
208.00847399999998
 20
-102.21341000000004
 10
207.95843599999998
 20
-102.37673200000003
 10
207.91474799999997
 20
-102.54107000000003
 10
207.87740999999997
 20
-102.70617000000001
 10
207.84667599999997
 20
-102.87203200000002
 10
207.82229199999998
 20
-103.03814800000002
 10
207.80451199999996
 20
-103.20451800000002
 10
207.79308199999997
 20
-103.37088800000001
 10
207.78825599999996
 20
-103.53675000000001
 10
207.79003399999996
 20
-103.70235800000002
 10
207.79841599999995
 20
-103.86720400000002
 10
207.81314799999996
 20
-104.031034
 10
207.83448399999995
 20
-104.19384800000002
 10
207.86267799999993
 20
-104.35513800000001
 10
207.89747599999993
 20
-104.51490400000002
 10
207.93887799999993
 20
-104.67289200000002
 10
207.98688399999992
 20
-104.82884800000001
 10
208.04174799999993
 20
-104.98251800000001
 10
208.10321599999992
 20
-105.13364800000002
 10
208.17128799999992
 20
-105.28223800000002
 10
208.2462179999999
 20
-105.42778000000001
 10
208.3280059999999
 20
-105.57027400000001
 10
208.4163979999999
 20
-105.709466
 10
208.5116479999999
 20
-105.84510200000001
 10
208.6137559999999
 20
-105.97692800000002
 10
208.7227219999999
 20
-106.10469
 10
208.8385459999999
 20
-106.228134
 10
208.9612279999999
 20
-106.34726
 10
209.09076799999988
 20
-106.461814
 10
209.22741999999988
 20
-106.571288
 10
209.3709299999999
 20
-106.67568200000001
 10
209.5212979999999
 20
-106.774742
 10
209.5596519999999
 20
-106.80014200000001
 10
209.59622799999988
 20
-106.826812
 10
209.6307719999999
 20
-106.85475200000002
 10
209.6632839999999
 20
-106.88396200000001
 10
209.6940179999999
 20
-106.91444200000002
 10
209.7227199999999
 20
-106.94593800000003
 10
209.74938999999992
 20
-106.97845000000002
 10
209.7740279999999
 20
-107.01197800000001
 10
209.79663399999993
 20
-107.04626800000001
 10
209.8172079999999
 20
-107.08132
 10
209.8357499999999
 20
-107.11713400000002
 10
209.8520059999999
 20
-107.15371000000002
 10
209.86622999999992
 20
-107.19079400000003
 10
209.87842199999992
 20
-107.22864000000003
 10
209.88832799999992
 20
-107.26699400000003
 10
209.8962019999999
 20
-107.30560200000002
 10
209.90178999999992
 20
-107.34471800000001
 10
209.90534599999992
 20
-107.38408800000002
 10
209.90661599999993
 20
-107.42371200000001
 10
209.9058539999999
 20
-107.46333600000001
 10
209.9028059999999
 20
-107.50296000000002
 10
209.89747199999994
 20
-107.54283800000002
 10
209.88985199999993
 20
-107.58246200000002
 10
209.87994599999993
 20
-107.62208600000001
 10
209.86800799999995
 20
-107.66145600000002
 10
209.85378399999993
 20
-107.70057200000001
 10
209.8370199999999
 20
-107.73943400000002
 10
209.81796999999992
 20
-107.77778800000002
 10
209.79663399999993
 20
-107.81588800000002
 10
209.77301199999994
 20
-107.85348000000002
 10
209.74710399999992
 20
-107.89031000000001
 10
209.71865599999995
 20
-107.92663200000001
 10
209.52332999999993
 20
-108.16793200000001
 10
209.33613199999994
 20
-108.4072
 10
209.15680799999996
 20
-108.64443600000001
 10
208.98535799999996
 20
-108.87989400000002
 10
208.82127399999996
 20
-109.11382800000001
 10
208.66480999999996
 20
-109.34623800000001
 10
208.51545799999997
 20
-109.57737800000002
 10
208.37321799999998
 20
-109.80724800000002
 10
208.237836
 20
-110.03610200000003
 10
208.109058
 20
-110.26419400000003
 10
207.986884
 20
-110.49152400000003
 10
207.87106
 20
-110.71809200000003
 10
207.76133199999998
 20
-110.94415200000002
 10
207.657446
 20
-111.16995800000002
 10
207.559402
 20
-111.39551000000002
 10
207.466946
 20
-111.62106200000001
 10
207.380078
 20
-111.84686800000001
 10
207.29829
 20
-112.072928
 10
207.22158199999998
 20
-112.299242
 10
207.1497
 20
-112.52631800000002
 10
207.082644
 20
-112.75390200000002
 10
207.019906
 20
-112.98250200000001
 10
206.96174
 20
-113.21211800000002
 10
206.907638
 20
-113.44275000000002
 10
206.8576
 20
-113.67465200000002
 10
206.811118
 20
-113.90807800000002
 10
206.768446
 20
-114.14302800000002
 10
206.729076
 20
-114.37975600000001
 10
206.693008
 20
-114.61826200000003
 10
206.659988
 20
-114.85880000000003
 10
206.62976199999997
 20
-115.10137000000002
 10
206.60233
 20
-115.34622600000003
 10
206.52104999999997
 20
-116.03659800000003
 10
206.424784
 20
-116.72874800000004
 10
206.314548
 20
-117.42318400000003
 10
206.19135799999998
 20
-118.11965200000003
 10
206.05622999999997
 20
-118.81840600000002
 10
205.910688
 20
-119.51970000000003
 10
205.75549399999997
 20
-120.22378800000003
 10
205.591918
 20
-120.93067000000003
 10
205.42122999999998
 20
-121.64034600000004
 10
205.24444599999998
 20
-122.35307000000003
 10
205.06258199999996
 20
-123.06909600000003
 10
204.87690799999996
 20
-123.78842400000003
 10
204.68843999999999
 20
-124.51105400000003
 10
204.49844799999997
 20
-125.23749400000004
 10
204.30794799999995
 20
-125.96774400000004
 10
204.11820999999998
 20
-126.70180400000004
 10
203.93024999999997
 20
-127.43992800000004
 10
203.74508399999996
 20
-128.18211600000004
 10
203.56398199999998
 20
-128.92887600000003
 10
203.38821399999998
 20
-129.67995400000004
 10
203.21879599999997
 20
-130.43560400000004
 10
203.05674399999995
 20
-131.19608000000005
 10
202.90332799999993
 20
-131.96138200000007
 10
202.75956399999993
 20
-132.73176400000006
 10
202.62672199999992
 20
-133.50748000000007
 10
202.50581799999992
 20
-134.28853000000007
 10
202.39812199999994
 20
-135.07491400000006
 10
202.30464999999992
 20
-135.86688600000008
 10
202.22667199999992
 20
-136.66470000000007
 10
202.16520399999993
 20
-137.46835600000009
 10
202.12126199999992
 20
-138.27810800000006
 10
202.0961159999999
 20
-139.09395600000008
 10
202.0925599999999
 20
-139.15593200000006
 10
202.08468599999992
 20
-139.21613000000008
 10
202.07249399999992
 20
-139.27455000000006
 10
202.05623799999992
 20
-139.33119200000007
 10
202.03617199999994
 20
-139.38580200000007
 10
202.01229599999994
 20
-139.43838000000008
 10
201.98486399999996
 20
-139.48892600000005
 10
201.95412999999996
 20
-139.53744000000006
 10
201.92034799999993
 20
-139.58392200000006
 10
201.88351799999995
 20
-139.62811800000006
 10
201.84363999999994
 20
-139.67002800000006
 10
201.80122199999994
 20
-139.70965200000003
 10
201.75626399999993
 20
-139.74673600000003
 10
201.70901999999992
 20
-139.78153400000002
 10
201.6594899999999
 20
-139.813792
 10
201.6079279999999
 20
-139.84350999999998
 10
201.5545879999999
 20
-139.87068799999997
 10
201.4997239999999
 20
-139.89507199999997
 10
201.4433359999999
 20
-139.916662
 10
201.3856779999999
 20
-139.93545799999998
 10
201.32674999999992
 20
-139.95145999999997
 10
201.2670599999999
 20
-139.964668
 10
201.2066079999999
 20
-139.97482799999997
 10
201.1453939999999
 20
-139.98193999999998
 10
201.0836719999999
 20
-139.98600399999998
 10
201.02169599999988
 20
-139.98701999999997
 10
200.95971999999986
 20
-139.98473399999997
 10
200.89774399999988
 20
-139.97939999999997
 10
200.83602199999984
 20
-139.97076399999997
 10
200.77480799999987
 20
-139.95857199999998
 10
200.71410199999985
 20
-139.94307799999999
 10
200.65415799999985
 20
-139.92402799999996
 10
200.55585999999985
 20
-139.88922999999997
 10
200.45756199999988
 20
-139.854432
 10
200.35926399999988
 20
-139.819634
 10
200.2609659999999
 20
-139.784836
 10
200.1626679999999
 20
-139.75003800000002
 10
200.06436999999994
 20
-139.71524000000005
 10
199.96607199999994
 20
-139.68044200000006
 10
199.86777399999997
 20
-139.64564400000006
 10
199.76947599999997
 20
-139.6108460000001
 10
199.671178
 20
-139.5760480000001
 10
199.57288
 20
-139.5412500000001
 10
199.47458200000003
 20
-139.50645200000014
 10
199.37628400000003
 20
-139.47165400000014
 10
199.27798600000006
 20
-139.43685600000015
 10
199.17968800000006
 20
-139.40205800000018
 10
199.08139000000008
 20
-139.3672600000002
 10
198.98309200000008
 20
-139.3324620000002
 10
198.8847940000001
 20
-139.29766400000022
 10
198.7864960000001
 20
-139.26286600000023
 10
198.68819800000014
 20
-139.22806800000023
 10
198.58990000000014
 20
-139.19327000000027
 10
198.49160200000017
 20
-139.15847200000027
 10
198.39330400000017
 20
-139.12367400000028
 10
198.2950060000002
 20
-139.0888760000003
 10
198.1967080000002
 20
-139.05407800000032
 10
198.09841000000023
 20
-139.01928000000032
 10
198.00011200000023
 20
-138.98448200000036
 10
197.90181400000026
 20
-138.94968400000036
 10
197.80351600000026
 20
-138.91488600000037
 10
197.7052180000003
 20
-138.8800880000004
 10
197.6069200000003
 20
-138.8452900000004
 10
197.50862200000032
 20
-138.8104920000004
 10
197.4943980000003
 20
-138.80719000000042
 10
197.4804280000003
 20
-138.8033800000004
 10
197.4667120000003
 20
-138.7990620000004
 10
197.4532500000003
 20
-138.7942360000004
 10
197.44004200000032
 20
-138.7889020000004
 10
197.4270880000003
 20
-138.78280600000042
 10
197.4146420000003
 20
-138.7762020000004
 10
197.4024500000003
 20
-138.7690900000004
 10
197.3905120000003
 20
-138.7617240000004
 10
197.37908200000032
 20
-138.75385000000043
 10
197.36790600000032
 20
-138.74546800000041
 10
197.3572380000003
 20
-138.73657800000043
 10
197.34682400000028
 20
-138.72718000000043
 10
197.3369180000003
 20
-138.7175280000004
 10
197.32752000000028
 20
-138.70736800000043
 10
197.3183760000003
 20
-138.69695400000043
 10
197.30974000000032
 20
-138.6860320000004
 10
197.3016120000003
 20
-138.67485600000043
 10
197.29399200000032
 20
-138.6631720000004
 10
197.2866260000003
 20
-138.65123400000041
 10
197.2797680000003
 20
-138.6390420000004
 10
197.2734180000003
 20
-138.6265960000004
 10
197.2675760000003
 20
-138.6138960000004
 10
197.2622420000003
 20
-138.6009420000004
 10
197.2576700000003
 20
-138.5877340000004
 10
197.2536060000003
 20
-138.5742720000004
 10
197.2500500000003
 20
-138.56055600000042
 10
197.24700200000032
 20
-138.54658600000042
 10
197.2444620000003
 20
-138.5323620000004
 10
197.24268400000034
 20
-138.5178840000004
 10
197.24141400000033
 20
-138.5034060000004
 10
197.24065200000032
 20
-138.4886740000004
 10
197.23760400000035
 20
-138.3700560000004
 10
197.23404800000034
 20
-138.2514380000004
 10
197.22973000000033
 20
-138.13307400000042
 10
197.22465000000034
 20
-138.0149640000004
 10
197.2188080000003
 20
-137.8971080000004
 10
197.21195000000031
 20
-137.77976000000038
 10
197.2038220000003
 20
-137.66292000000038
 10
197.19467800000032
 20
-137.54658800000038
 10
197.1842640000003
 20
-137.4310180000004
 10
197.1725800000003
 20
-137.31621000000038
 10
197.15937200000027
 20
-137.2024180000004
 10
197.1446400000003
 20
-137.08938800000038
 10
197.1283840000003
 20
-136.97737400000037
 10
197.1103500000003
 20
-136.86663000000036
 10
197.0905380000003
 20
-136.75715600000035
 10
197.0689480000003
 20
-136.64895200000032
 10
197.0453260000003
 20
-136.54201800000033
 10
197.0196720000003
 20
-136.43660800000032
 10
196.99198600000028
 20
-136.33272200000033
 10
196.96201400000027
 20
-136.23061400000032
 10
196.92975600000028
 20
-136.13003000000035
 10
196.8949580000003
 20
-136.03122400000032
 10
196.85762000000028
 20
-135.93445000000034
 10
196.81774200000027
 20
-135.83970800000031
 10
196.77532400000027
 20
-135.74699800000033
 10
196.73011200000028
 20
-135.65632000000033
 10
196.6821060000003
 20
-135.56792800000034
 10
196.63105200000027
 20
-135.48182200000034
 10
196.57695000000027
 20
-135.39825600000034
 10
196.5198000000003
 20
-135.31723000000034
 10
196.45934800000026
 20
-135.23874400000037
 10
196.39559400000027
 20
-135.16279800000035
 10
196.33184000000028
 20
-135.09244000000035
 10
196.26554600000028
 20
-135.02411400000034
 10
196.1969660000003
 20
-134.95782000000037
 10
196.1261000000003
 20
-134.89330400000034
 10
196.05320200000028
 20
-134.83056600000037
 10
195.97801800000028
 20
-134.76986000000036
 10
195.90080200000028
 20
-134.71093200000035
 10
195.82180800000026
 20
-134.65352800000036
 10
195.74078200000028
 20
-134.59790200000035
 10
195.65797800000027
 20
-134.54380000000037
 10
195.5733960000003
 20
-134.49147600000035
 10
195.48729000000026
 20
-134.44067600000034
 10
195.39940600000025
 20
-134.39140000000035
 10
195.30999800000026
 20
-134.34339400000036
 10
195.21906600000028
 20
-134.29691200000036
 10
195.12686400000027
 20
-134.25170000000037
 10
195.03339200000025
 20
-134.20801200000037
 10
194.93865000000025
 20
-134.16534000000036
 10
194.84263800000022
 20
-134.12393800000035
 10
194.74561000000026
 20
-134.08380600000035
 10
194.64756600000024
 20
-134.04469000000034
 10
194.54850600000026
 20
-134.00684400000034
 10
194.44843000000026
 20
-133.97001400000036
 10
194.34759200000025
 20
-133.93420000000037
 10
194.24599200000026
 20
-133.89940200000038
 10
194.14363000000023
 20
-133.86536600000036
 10
194.04076000000026
 20
-133.83234600000037
 10
193.93738200000024
 20
-133.8000880000004
 10
193.83349600000025
 20
-133.76859200000038
 10
193.72910200000027
 20
-133.7378580000004
 10
193.62445400000024
 20
-133.70788600000037
 10
193.51955200000023
 20
-133.67842200000038
 10
193.20459200000025
 20
-133.59180800000038
 10
192.88861600000024
 20
-133.5059560000004
 10
192.57137000000023
 20
-133.4208660000004
 10
192.25336200000024
 20
-133.3365380000004
 10
191.93459200000024
 20
-133.25271800000036
 10
191.61506000000023
 20
-133.16966000000036
 10
191.29502000000022
 20
-133.08711000000037
 10
190.97447200000025
 20
-133.00506800000036
 10
190.65367000000023
 20
-132.92353400000036
 10
190.33286800000022
 20
-132.84225400000034
 10
190.01206600000023
 20
-132.76148200000034
 10
189.69151800000023
 20
-132.68096400000036
 10
189.37122400000024
 20
-132.60070000000033
 10
189.05143800000025
 20
-132.52069000000031
 10
188.73216000000025
 20
-132.4406800000003
 10
188.41364400000026
 20
-132.36092400000032
 10
188.09614400000024
 20
-132.28116800000032
 10
187.77966000000026
 20
-132.20141200000035
 10
187.46419200000025
 20
-132.12165600000034
 10
187.15024800000026
 20
-132.04190000000037
 10
186.83757400000027
 20
-131.96189000000035
 10
186.52667800000026
 20
-131.88162600000032
 10
186.21730600000026
 20
-131.80110800000034
 10
185.90996600000025
 20
-131.72033600000034
 10
185.60465800000026
 20
-131.63931000000034
 10
185.30138200000027
 20
-131.55777600000033
 10
185.0003920000003
 20
-131.47598800000034
 10
184.7019420000003
 20
-131.39369200000036
 10
184.4060320000003
 20
-131.31088800000035
 10
184.1126620000003
 20
-131.22732200000036
 10
183.8220860000003
 20
-131.14324800000034
 10
183.53455800000032
 20
-131.05841200000037
 10
183.39003200000033
 20
-131.01497800000035
 10
183.24398200000033
 20
-130.97078200000036
 10
183.0964080000003
 20
-130.92582400000035
 10
182.94731000000033
 20
-130.88061200000035
 10
182.7969420000003
 20
-130.83514600000035
 10
182.64530400000032
 20
-130.78993400000036
 10
182.49239600000033
 20
-130.74523000000036
 10
182.33847200000034
 20
-130.70103400000036
 10
182.1837860000003
 20
-130.65785400000036
 10
182.02808400000032
 20
-130.61594400000038
 10
181.87162000000032
 20
-130.57555800000037
 10
181.7146480000003
 20
-130.53695000000036
 10
181.5571680000003
 20
-130.50062800000035
 10
181.3991800000003
 20
-130.46659200000036
 10
181.24093800000028
 20
-130.43509600000036
 10
181.0824420000003
 20
-130.40664800000036
 10
180.9236920000003
 20
-130.38124800000034
 10
180.7649420000003
 20
-130.35940400000035
 10
180.6061920000003
 20
-130.34111600000034
 10
180.4476960000003
 20
-130.32689200000033
 10
180.28945400000026
 20
-130.31698600000033
 10
180.13146600000027
 20
-130.31165200000035
 10
179.97398600000028
 20
-130.31089000000034
 10
179.81701400000026
 20
-130.31546200000034
 10
179.66080400000027
 20
-130.32536800000034
 10
179.5053560000003
 20
-130.34086200000036
 10
179.35067000000026
 20
-130.36219800000035
 10
179.19700000000026
 20
-130.38963000000032
 10
179.04434600000027
 20
-130.42366600000034
 10
178.89296200000027
 20
-130.46430600000033
 10
178.74284800000027
 20
-130.5120580000003
 10
178.59400400000027
 20
-130.56692200000032
 10
178.44947800000025
 20
-130.6278820000003
 10
178.30850800000027
 20
-130.69468400000034
 10
178.17109400000027
 20
-130.76707400000032
 10
178.03723600000026
 20
-130.84479800000034
 10
177.90693400000023
 20
-130.92785600000033
 10
177.77993400000025
 20
-131.01574000000033
 10
177.65623600000026
 20
-131.10845000000035
 10
177.53584000000023
 20
-131.2054780000003
 10
177.41874600000023
 20
-131.30682400000032
 10
177.30470000000025
 20
-131.41223400000032
 10
177.19370200000026
 20
-131.52170800000033
 10
177.08575200000027
 20
-131.63473800000034
 10
176.98085000000026
 20
-131.75107000000034
 10
176.87899600000026
 20
-131.87070400000033
 10
176.77993600000028
 20
-131.99338600000033
 10
176.68367000000026
 20
-132.11886200000032
 10
176.59019800000024
 20
-132.24687800000032
 10
176.49926600000026
 20
-132.37718000000035
 10
176.41112800000028
 20
-132.50951400000034
 10
176.32553000000027
 20
-132.64388000000034
 10
176.24247200000028
 20
-132.77977000000033
 10
176.16170000000028
 20
-132.91718400000033
 10
176.0834680000003
 20
-133.05586800000034
 10
176.00752200000028
 20
-133.19556800000032
 10
175.9338620000003
 20
-133.33603000000033
 10
175.8624880000003
 20
-133.47700000000032
 10
175.7931460000003
 20
-133.61847800000032
 10
175.7258360000003
 20
-133.75995600000033
 10
175.6608120000003
 20
-133.90143400000034
 10
175.5975660000003
 20
-134.04265800000033
 10
175.5363520000003
 20
-134.18337400000033
 10
175.4769160000003
 20
-134.32332800000034
 10
175.4606600000003
 20
-134.35812600000034
 10
175.4421180000003
 20
-134.38987600000033
 10
175.42154400000032
 20
-134.41857800000034
 10
175.3989380000003
 20
-134.44448600000035
 10
175.3748080000003
 20
-134.46760000000035
 10
175.34915400000028
 20
-134.48792000000034
 10
175.3219760000003
 20
-134.50544600000035
 10
175.2937820000003
 20
-134.52017800000033
 10
175.2645720000003
 20
-134.53237000000036
 10
175.23460000000028
 20
-134.54176800000036
 10
175.20412000000027
 20
-134.54862600000035
 10
175.1731320000003
 20
-134.55294400000037
 10
175.14214400000031
 20
-134.55472200000037
 10
175.1109020000003
 20
-134.55396000000036
 10
175.07991400000031
 20
-134.55065800000034
 10
175.04918000000032
 20
-134.54507000000032
 10
175.0189540000003
 20
-134.53719600000034
 10
174.9894900000003
 20
-134.52703600000035
 10
174.9610420000003
 20
-134.51459000000037
 10
174.93361000000033
 20
-134.49985800000036
 10
174.90744800000033
 20
-134.48284000000035
 10
174.88281000000035
 20
-134.46379000000036
 10
174.85969600000035
 20
-134.44245400000037
 10
174.83836000000036
 20
-134.41908600000036
 10
174.81905600000036
 20
-134.39368600000037
 10
174.80203800000035
 20
-134.36650800000035
 10
174.78730600000034
 20
-134.33729800000037
 10
174.77511400000034
 20
-134.30605600000035
 10
174.76571600000034
 20
-134.27303600000036
 10
174.75911200000036
 20
-134.23823800000036
 10
174.75581000000034
 20
-134.20166200000037
 10
174.75581000000034
 20
-134.16330800000037
 10
174.77105000000034
 20
-133.80694600000038
 10
174.78832200000033
 20
-133.44347200000036
 10
174.80737200000033
 20
-133.07339400000038
 10
174.82845400000033
 20
-132.69722000000036
 10
174.85131400000034
 20
-132.3157120000004
 10
174.87595200000032
 20
-131.92937800000038
 10
174.90236800000034
 20
-131.53847200000038
 10
174.93056200000035
 20
-131.14401000000038
 10
174.96053400000037
 20
-130.74624600000038
 10
174.99228400000035
 20
-130.34594200000038
 10
175.02581200000034
 20
-129.94335200000037
 10
175.06111800000033
 20
-129.53923800000038
 10
175.09794800000034
 20
-129.13436200000038
 10
175.13655600000035
 20
-128.72897800000038
 10
175.17668800000035
 20
-128.32384800000037
 10
175.21834400000034
 20
-127.91948000000038
 10
175.26152400000035
 20
-127.51638200000038
 10
175.30648200000036
 20
-127.11531600000038
 10
175.35271000000034
 20
-126.71653600000037
 10
175.40046200000035
 20
-126.32080400000038
 10
175.44973800000034
 20
-125.92862800000039
 10
175.50053800000035
 20
-125.54077000000039
 10
175.55260800000036
 20
-125.15748400000038
 10
175.60620200000037
 20
-124.77953200000039
 10
175.66106600000037
 20
-124.4074220000004
 10
175.71720000000036
 20
-124.0416620000004
 10
175.77460400000038
 20
-123.6830140000004
 10
175.83327800000038
 20
-123.3317320000004
 10
175.89322200000035
 20
-122.9885780000004
 10
175.95443600000036
 20
-122.6540600000004
 10
176.01692000000034
 20
-122.32894000000042
 10
176.08067400000036
 20
-122.0134720000004
  0
LWPOLYLINE
  5
30
330
17
100
AcDbEntity
  8
0
100
AcDbPolyline
 90
257
 70
0
 10
178.57724000000033
 20
-132.62686200000041
 10
178.60213200000032
 20
-132.60374800000042
 10
178.62702400000032
 20
-132.5806340000004
 10
178.65217000000032
 20
-132.5577740000004
 10
178.67757000000034
 20
-132.53491400000038
 10
178.70297000000033
 20
-132.5123080000004
 10
178.72862400000034
 20
-132.48970200000036
 10
178.75453200000032
 20
-132.46735000000038
 10
178.78069400000032
 20
-132.44525200000038
 10
178.8068560000003
 20
-132.42340800000036
 10
178.8332720000003
 20
-132.40181800000036
 10
178.85994200000033
 20
-132.38048200000037
 10
178.8868660000003
 20
-132.35965400000038
 10
178.9140440000003
 20
-132.33908000000037
 10
178.9414760000003
 20
-132.31901400000038
 10
178.9691620000003
 20
-132.29920200000038
 10
178.99710200000033
 20
-132.27989800000037
 10
179.0252960000003
 20
-132.2611020000004
 10
179.0537440000003
 20
-132.2428140000004
 10
179.08244600000032
 20
-132.2250340000004
 10
179.1114020000003
 20
-132.2077620000004
 10
179.14061200000032
 20
-132.19125200000036
 10
179.17007600000034
 20
-132.17525000000037
 10
179.1997940000003
 20
-132.1600100000004
 10
179.2300200000003
 20
-132.1452780000004
 10
179.26050000000032
 20
-132.13130800000042
 10
179.29123400000032
 20
-132.1181000000004
 10
179.3222220000003
 20
-132.1056540000004
 10
179.3537180000003
 20
-132.09397000000038
 10
179.38546800000032
 20
-132.08330200000037
 10
179.41747200000032
 20
-132.0733960000004
 10
179.4499840000003
 20
-132.0642520000004
 10
179.48275000000032
 20
-132.05612400000038
 10
179.5162780000003
 20
-132.0487580000004
 10
179.5498060000003
 20
-132.0424080000004
 10
179.5833340000003
 20
-132.03707400000042
 10
179.6171160000003
 20
-132.0325020000004
 10
179.6508980000003
 20
-132.0289460000004
 10
179.6846800000003
 20
-132.02615200000042
 10
179.71846200000033
 20
-132.02437400000042
 10
179.75249800000032
 20
-132.02335800000043
 10
179.78653400000033
 20
-132.02310400000042
 10
179.82057000000034
 20
-132.0236120000004
 10
179.85460600000033
 20
-132.02488200000042
 10
179.88864200000035
 20
-132.0266600000004
 10
179.92267800000033
 20
-132.0292000000004
 10
179.95671400000035
 20
-132.03224800000038
 10
179.99075000000036
 20
-132.03580400000038
 10
180.02478600000035
 20
-132.03986800000038
 10
180.05882200000036
 20
-132.04444000000038
 10
180.09285800000035
 20
-132.04952000000037
 10
180.12689400000036
 20
-132.0551080000004
 10
180.16093000000038
 20
-132.0612040000004
 10
180.19496600000036
 20
-132.06755400000037
 10
180.22900200000038
 20
-132.0744120000004
 10
180.2630380000004
 20
-132.0815240000004
 10
180.2968200000004
 20
-132.0888900000004
 10
180.3306020000004
 20
-132.0965100000004
 10
180.3643840000004
 20
-132.10438400000038
 10
180.39816600000043
 20
-132.11251200000038
 10
180.4316940000004
 20
-132.1206400000004
 10
180.46522200000038
 20
-132.1290220000004
 10
180.49875000000037
 20
-132.1374040000004
 10
180.53227800000036
 20
-132.1457860000004
 10
180.56555200000037
 20
-132.1544220000004
 10
180.94960000000034
 20
-132.25272000000038
 10
181.33364800000032
 20
-132.35101800000038
 10
181.7176960000003
 20
-132.44931600000035
 10
182.1017440000003
 20
-132.54761400000035
 10
182.4857920000003
 20
-132.64591200000032
 10
182.86984000000027
 20
-132.74421000000032
 10
183.25388800000025
 20
-132.8425080000003
 10
183.63793600000025
 20
-132.9408060000003
 10
184.02198400000023
 20
-133.03910400000026
 10
184.4060320000002
 20
-133.13740200000026
 10
184.7900800000002
 20
-133.23570000000026
 10
185.1741280000002
 20
-133.33399800000024
 10
185.55817600000017
 20
-133.43229600000024
 10
185.94222400000015
 20
-133.5305940000002
 10
186.32627200000013
 20
-133.6288920000002
 10
186.71032000000014
 20
-133.72719000000018
 10
187.09436800000012
 20
-133.82548800000018
 10
187.4784160000001
 20
-133.92378600000015
 10
187.86246400000007
 20
-134.02208400000015
 10
188.24651200000008
 20
-134.12038200000012
 10
188.63056000000006
 20
-134.21868000000012
 10
189.01460800000004
 20
-134.3169780000001
 10
189.39865600000002
 20
-134.4152760000001
 10
189.78270400000002
 20
-134.51357400000006
 10
190.166752
 20
-134.61187200000006
 10
190.55079999999998
 20
-134.71017000000003
 10
190.93484799999996
 20
-134.80846800000003
 10
191.31889599999997
 20
-134.906766
 10
191.70294399999995
 20
-135.005064
 10
192.08699199999992
 20
-135.10336199999998
 10
192.4710399999999
 20
-135.20165999999998
 10
192.8550879999999
 20
-135.29995799999995
 10
192.9272239999999
 20
-135.31849999999994
 10
192.9996139999999
 20
-135.33729599999992
 10
193.07200399999988
 20
-135.35634599999995
 10
193.14464799999988
 20
-135.37564999999995
 10
193.21729199999984
 20
-135.39546199999995
 10
193.28993599999984
 20
-135.41552799999994
 10
193.36232599999983
 20
-135.43610199999995
 10
193.4347159999998
 20
-135.4574379999999
 10
193.5068519999998
 20
-135.47928199999993
 10
193.57873399999983
 20
-135.50188799999995
 10
193.65036199999983
 20
-135.52525599999993
 10
193.72148199999984
 20
-135.54938599999994
 10
193.79234799999983
 20
-135.57427799999994
 10
193.86270599999983
 20
-135.60018599999992
 10
193.93255599999983
 20
-135.62710999999993
 10
194.00164399999986
 20
-135.65504999999993
 10
194.07022399999983
 20
-135.68425999999994
 10
194.13804199999984
 20
-135.71448599999994
 10
194.20509799999985
 20
-135.74598199999994
 10
194.27113799999987
 20
-135.77874799999995
 10
194.33641599999984
 20
-135.81303799999995
 10
194.40067799999986
 20
-135.84859799999995
 10
194.46392399999985
 20
-135.88568199999992
 10
194.52615399999985
 20
-135.92428999999993
 10
194.58736799999986
 20
-135.96442199999996
 10
194.64731199999986
 20
-136.00633199999993
 10
194.70598599999985
 20
-136.05001999999993
 10
194.76338999999984
 20
-136.09548599999994
 10
194.81952399999986
 20
-136.14272999999994
 10
194.87413399999986
 20
-136.19175199999995
 10
194.92747399999988
 20
-136.24280599999994
 10
194.97928999999985
 20
-136.29589199999992
 10
195.01992999999985
 20
-136.3403419999999
 10
195.05929999999984
 20
-136.3858079999999
 10
195.09714599999984
 20
-136.4322899999999
 10
195.13372199999984
 20
-136.47978799999993
 10
195.16902799999986
 20
-136.5283019999999
 10
195.20306399999984
 20
-136.5775779999999
 10
195.23582999999985
 20
-136.62786999999992
 10
195.26732599999985
 20
-136.6789239999999
 10
195.29729799999987
 20
-136.7307399999999
 10
195.3262539999999
 20
-136.7833179999999
 10
195.35393999999988
 20
-136.83665799999991
 10
195.3803559999999
 20
-136.8907599999999
 10
195.4055019999999
 20
-136.9453699999999
 10
195.42937799999993
 20
-137.0007419999999
 10
195.45198399999995
 20
-137.05662199999992
 10
195.47357399999996
 20
-137.1130099999999
 10
195.49389399999995
 20
-137.1699059999999
 10
195.51319799999996
 20
-137.2273099999999
 10
195.53123199999996
 20
-137.2852219999999
 10
195.54824999999997
 20
-137.34338799999992
 10
195.56399799999997
 20
-137.40206199999992
 10
195.57872999999998
 20
-137.4609899999999
 10
195.59244599999997
 20
-137.5201719999999
 10
195.60489199999995
 20
-137.5796079999999
 10
195.61632199999994
 20
-137.6392979999999
 10
195.62673599999997
 20
-137.69924199999988
 10
195.63613399999997
 20
-137.7594399999999
 10
195.64451599999998
 20
-137.81963799999988
 10
195.65188199999997
 20
-137.87983599999987
 10
195.65823199999997
 20
-137.94003399999986
 10
195.66356599999997
 20
-138.00048599999988
 10
195.66813799999997
 20
-138.06068399999987
 10
195.67220199999997
 20
-138.12062799999987
 10
195.67651999999998
 20
-138.18006399999987
 10
195.680838
 20
-138.23873799999987
 10
195.685156
 20
-138.2969039999999
 10
195.68947400000002
 20
-138.35456199999987
 10
195.69379200000003
 20
-138.41171199999988
 10
195.69811000000004
 20
-138.4686079999999
 10
195.70242800000005
 20
-138.5249959999999
 10
195.70649200000005
 20
-138.5811299999999
 10
195.71030200000004
 20
-138.6370099999999
 10
195.71411200000003
 20
-138.6926359999999
 10
195.71766800000003
 20
-138.7480079999999
 10
195.72097000000005
 20
-138.8031259999999
 10
195.72376400000005
 20
-138.85798999999992
 10
195.72630400000003
 20
-138.9128539999999
 10
195.72833600000004
 20
-138.9677179999999
 10
195.73011400000004
 20
-139.02258199999991
 10
195.73138400000002
 20
-139.07744599999992
 10
195.73214600000006
 20
-139.1323099999999
 10
195.73240000000004
 20
-139.1871739999999
 10
195.73189200000004
 20
-139.2422919999999
 10
195.73087600000005
 20
-139.2976639999999
 10
195.72909800000005
 20
-139.3532899999999
 10
195.72681200000005
 20
-139.40916999999993
 10
195.72376400000007
 20
-139.46530399999992
 10
195.71995400000006
 20
-139.52169199999992
 10
195.71538200000006
 20
-139.57858799999994
 10
195.70979400000004
 20
-139.63573799999995
 10
195.70344400000005
 20
-139.69339599999992
 10
195.69607800000006
 20
-139.75156199999995
 10
195.68769600000005
 20
-139.81023599999995
 10
195.67829800000004
 20
-139.8694179999999
 10
195.07352400000005
 20
-139.71777999999992
 10
194.47052800000006
 20
-139.56639599999994
 10
193.86931000000007
 20
-139.41501199999993
 10
193.26961600000007
 20
-139.2638819999999
 10
192.67144600000006
 20
-139.11275199999992
 10
192.07454600000005
 20
-138.9618759999999
 10
191.47891600000005
 20
-138.8109999999999
 10
190.88430200000005
 20
-138.66012399999988
 10
190.29070400000003
 20
-138.50950199999988
 10
189.69786800000006
 20
-138.35887999999989
 10
189.10579400000006
 20
-138.20825799999992
 10
188.51448200000007
 20
-138.0578899999999
 10
187.92367800000005
 20
-137.90752199999991
 10
187.33312800000004
 20
-137.75715399999993
 10
186.74283200000005
 20
-137.60678599999991
 10
186.15279000000007
 20
-137.45641799999993
 10
185.56274800000006
 20
-137.3060499999999
 10
184.97245200000006
 20
-137.15568199999993
 10
184.38190200000005
 20
-137.00531399999994
 10
183.79109800000006
 20
-136.85494599999993
 10
183.19978600000007
 20
-136.70457799999994
 10
182.60771200000005
 20
-136.55395599999994
 10
182.01487600000007
 20
-136.40333399999997
 10
181.4212780000001
 20
-136.25271199999997
 10
180.82666400000008
 20
-136.10183599999996
 10
180.23103400000008
 20
-135.95095999999995
 10
179.63413400000007
 20
-135.80008399999994
 10
179.03596400000006
 20
-135.64895399999992
 10
178.43627000000006
 20
-135.49782399999992
 10
177.83505200000008
 20
-135.34643999999992
 10
177.23205600000006
 20
-135.1950559999999
 10
176.62728200000006
 20
-135.04341799999992
 10
176.67782800000006
 20
-134.96010599999994
 10
176.72888200000006
 20
-134.87730199999993
 10
176.78069800000006
 20
-134.7947519999999
 10
176.83327600000004
 20
-134.71270999999993
 10
176.88661600000006
 20
-134.6311759999999
 10
176.94071800000006
 20
-134.55014999999992
 10
176.99558200000004
 20
-134.46963199999993
 10
177.05095400000005
 20
-134.38962199999992
 10
177.10708800000003
 20
-134.3101199999999
 10
177.16398400000006
 20
-134.2311259999999
 10
177.22138800000005
 20
-134.15238599999992
 10
177.27955400000008
 20
-134.07440799999992
 10
177.33848200000006
 20
-133.9966839999999
 10
177.39791800000006
 20
-133.9197219999999
 10
177.45811600000005
 20
-133.84326799999988
 10
177.51907600000007
 20
-133.7673219999999
 10
177.58054400000006
 20
-133.69188399999987
 10
177.64277400000006
 20
-133.6169539999999
 10
177.70551200000006
 20
-133.5425319999999
 10
177.76901200000003
 20
-133.46861799999988
 10
177.83302000000003
 20
-133.39521199999987
 10
177.89779000000004
 20
-133.3225679999999
 10
177.96306800000002
 20
-133.2504319999999
 10
178.029108
 20
-133.1788039999999
 10
178.095656
 20
-133.1076839999999
 10
178.16296599999998
 20
-133.0373259999999
 10
178.230784
 20
-132.9674759999999
 10
178.299364
 20
-132.89813399999989
 10
178.36845200000002
 20
-132.8295539999999
 10
178.438048
 20
-132.7614819999999
 10
178.50840600000004
 20
-132.69391799999988
 10
178.57927200000003
 20
-132.6271159999999
  0
LWPOLYLINE
  5
34
330
17
100
AcDbEntity
  8
0
100
AcDbPolyline
 90
385
 70
0
 10
190.70370800000006
 20
-92.29623399999988
 10
190.73063200000007
 20
-92.13316599999987
 10
190.75628600000007
 20
-91.97771799999988
 10
190.78067000000007
 20
-91.82963599999987
 10
190.80378400000006
 20
-91.68841199999987
 10
190.82588200000006
 20
-91.55353799999988
 10
190.84721800000005
 20
-91.42450599999988
 10
190.86753800000005
 20
-91.30080799999988
 10
190.88735000000005
 20
-91.18193599999987
 10
190.90640000000008
 20
-91.06738199999987
 10
190.92494200000007
 20
-90.95689199999985
 10
190.94297600000007
 20
-90.84970399999986
 10
190.9607560000001
 20
-90.74556399999985
 10
190.97802800000008
 20
-90.64370999999984
 10
190.99530000000007
 20
-90.54388799999985
 10
191.01257200000006
 20
-90.44558999999985
 10
191.02984400000005
 20
-90.34830799999986
 10
191.04711600000007
 20
-90.25178799999986
 10
191.06464200000005
 20
-90.15526799999986
 10
191.08242200000007
 20
-90.05823999999986
 10
191.10071000000005
 20
-89.96044999999987
 10
191.11950600000006
 20
-89.86138999999986
 10
191.13881000000006
 20
-89.76029799999986
 10
191.15887600000005
 20
-89.65691999999986
 10
191.17970400000004
 20
-89.55074799999986
 10
191.20154800000006
 20
-89.44127399999986
 10
191.22440800000007
 20
-89.32798999999986
 10
191.24828400000007
 20
-89.21064199999986
 10
191.27343000000008
 20
-89.08846799999986
 10
191.2998460000001
 20
-88.96121399999987
 10
191.3275320000001
 20
-88.82811799999986
 10
191.3567420000001
 20
-88.68892599999987
 10
191.3874760000001
 20
-88.54312999999986
 10
191.4197340000001
 20
-88.39047599999986
 10
191.4522460000001
 20
-88.23528199999987
 10
191.48526600000008
 20
-88.07780199999986
 10
191.5190480000001
 20
-87.91828999999987
 10
191.5535920000001
 20
-87.75725399999986
 10
191.5891520000001
 20
-87.59494799999986
 10
191.6257280000001
 20
-87.43187999999986
 10
191.6633200000001
 20
-87.26804999999987
 10
191.7024360000001
 20
-87.10396599999986
 10
191.7428220000001
 20
-86.94013599999987
 10
191.78473200000008
 20
-86.77681399999987
 10
191.8284200000001
 20
-86.61425399999987
 10
191.8736320000001
 20
-86.45270999999987
 10
191.9208760000001
 20
-86.29268999999988
 10
191.9701520000001
 20
-86.13444799999988
 10
192.0214600000001
 20
-85.97849199999989
 10
192.0750540000001
 20
-85.82507599999988
 10
192.1309340000001
 20
-85.67445399999988
 10
192.1893540000001
 20
-85.52687999999988
 10
192.25031400000012
 20
-85.38286199999988
 10
192.3140680000001
 20
-85.24265399999987
 10
192.3806160000001
 20
-85.10676399999987
 10
192.45021200000008
 20
-84.97544599999986
 10
192.52285600000008
 20
-84.84895399999986
 10
192.59880200000006
 20
-84.72754199999987
 10
192.67805000000007
 20
-84.61171799999987
 10
192.76085400000008
 20
-84.50173599999987
 10
192.8472140000001
 20
-84.39810399999986
 10
192.9371300000001
 20
-84.30107599999985
 10
193.0308560000001
 20
-84.21090599999985
 10
193.1286460000001
 20
-84.12810199999984
 10
193.2305000000001
 20
-84.05266399999984
 10
193.3110180000001
 20
-83.99983199999984
 10
193.3948380000001
 20
-83.94979399999984
 10
193.4817060000001
 20
-83.90229599999984
 10
193.5713680000001
 20
-83.85733799999983
 10
193.6635700000001
 20
-83.81491999999983
 10
193.7583120000001
 20
-83.77504199999984
 10
193.8553400000001
 20
-83.73744999999982
 10
193.9544000000001
 20
-83.70214399999983
 10
194.0554920000001
 20
-83.66912399999983
 10
194.1583620000001
 20
-83.63813599999983
 10
194.26275600000008
 20
-83.60943399999982
 10
194.36867400000008
 20
-83.58276399999983
 10
194.4756080000001
 20
-83.55787199999982
 10
194.5835580000001
 20
-83.53501199999982
 10
194.69252400000008
 20
-83.51392999999982
 10
194.8022520000001
 20
-83.49462599999981
 10
194.91248800000008
 20
-83.47684599999981
 10
195.02297800000005
 20
-83.46058999999981
 10
195.13372200000006
 20
-83.44585799999982
 10
195.24446600000007
 20
-83.43264999999981
 10
195.35495600000007
 20
-83.42096599999981
 10
195.46519200000006
 20
-83.41055199999981
 10
195.57492000000008
 20
-83.4014079999998
 10
195.68388600000006
 20
-83.3932799999998
 10
195.79183600000005
 20
-83.38642199999981
 10
195.89877000000007
 20
-83.38057999999981
 10
196.00443400000006
 20
-83.37549999999982
 10
196.10882800000005
 20
-83.3714359999998
 10
196.21144400000006
 20
-83.36813399999981
 10
196.31253600000005
 20
-83.36559399999982
 10
196.41159600000006
 20
-83.36381599999982
 10
196.50862400000005
 20
-83.36254599999981
 10
197.22414200000006
 20
-83.35594199999981
 10
197.94093000000004
 20
-83.3511159999998
 10
198.65873400000007
 20
-83.34781399999981
 10
199.37755400000006
 20
-83.34603599999981
 10
200.09739000000005
 20
-83.34552799999982
 10
200.81798800000004
 20
-83.34603599999981
 10
201.53934800000005
 20
-83.34781399999981
 10
202.26147000000006
 20
-83.35060799999982
 10
202.98410000000004
 20
-83.35416399999983
 10
203.70723800000005
 20
-83.35848199999982
 10
204.43088400000005
 20
-83.36356199999982
 10
205.15503800000005
 20
-83.36914999999982
 10
205.87944600000006
 20
-83.37524599999982
 10
206.60410800000005
 20
-83.38159599999982
 10
207.32902400000006
 20
-83.38819999999981
 10
208.05394000000007
 20
-83.39480399999982
 10
208.77885600000008
 20
-83.40140799999982
 10
209.50377200000008
 20
-83.40801199999983
 10
210.22843400000008
 20
-83.41436199999981
 10
210.95284200000006
 20
-83.42045799999981
 10
211.67699600000006
 20
-83.42604599999981
 10
212.4006420000001
 20
-83.43112599999981
 10
213.12378000000007
 20
-83.4354439999998
 10
213.84641000000008
 20
-83.43899999999981
 10
214.56853200000006
 20
-83.44179399999982
 10
215.28989200000007
 20
-83.44357199999982
 10
216.0104900000001
 20
-83.44407999999983
 10
216.73032600000008
 20
-83.44357199999982
 10
217.44914600000007
 20
-83.44153999999982
 10
218.16695000000007
 20
-83.43823799999983
 10
218.88373800000008
 20
-83.43341199999983
 10
219.59925600000008
 20
-83.42680799999982
 10
219.21876400000008
 20
-83.67191799999982
 10
218.84894000000006
 20
-83.93328399999982
 10
218.48978400000007
 20
-84.21014399999981
 10
218.14155000000008
 20
-84.50198999999981
 10
217.80449200000007
 20
-84.80831399999983
 10
217.47886400000007
 20
-85.12809999999982
 10
217.16466600000007
 20
-85.46109399999982
 10
216.86215200000007
 20
-85.80653399999981
 10
216.57157600000005
 20
-86.16365799999983
 10
216.29319200000006
 20
-86.53195799999982
 10
216.02725400000006
 20
-86.91067199999982
 10
215.77376200000003
 20
-87.29929199999981
 10
215.53297000000003
 20
-87.6970559999998
 10
215.30513200000004
 20
-88.10345599999981
 10
215.09024800000003
 20
-88.5177299999998
 10
214.88882600000002
 20
-88.93936999999981
 10
214.70086600000002
 20
-89.3676139999998
 10
214.52662200000003
 20
-89.8019539999998
 10
214.36634800000002
 20
-90.24162799999979
 10
214.22004400000003
 20
-90.6861279999998
 10
214.08796400000003
 20
-91.1346919999998
 10
213.97036200000002
 20
-91.5868119999998
 10
213.86749200000006
 20
-92.0417259999998
 10
213.77960800000005
 20
-92.4989259999998
 10
213.70671000000004
 20
-92.95764999999979
 10
213.64905200000004
 20
-93.41738999999978
 10
213.60688800000003
 20
-93.87738399999978
 10
213.58047200000001
 20
-94.33686999999979
 10
213.569804
 20
-94.7953399999998
 10
213.57539200000002
 20
-95.25228599999978
 10
213.59723600000004
 20
-95.70694599999979
 10
213.63533600000002
 20
-96.1588119999998
 10
213.51494
 20
-96.14433399999979
 10
213.39378200000002
 20
-96.13087199999978
 10
213.271862
 20
-96.1184259999998
 10
213.14918000000003
 20
-96.1072499999998
 10
213.02599
 20
-96.09734399999981
 10
212.90229200000002
 20
-96.0889619999998
 10
212.77834000000001
 20
-96.0823579999998
 10
212.654134
 20
-96.07753199999979
 10
212.52992799999998
 20
-96.0744839999998
 10
212.405722
 20
-96.07346799999979
 10
212.28176999999997
 20
-96.07473799999978
 10
212.15807199999998
 20
-96.07829399999979
 10
212.03488199999998
 20
-96.0841359999998
 10
211.91219999999998
 20
-96.0925179999998
 10
211.79002599999998
 20
-96.10369399999979
 10
211.668614
 20
-96.11766399999979
 10
211.548218
 20
-96.13442799999979
 10
211.42883799999998
 20
-96.1544939999998
 10
211.31047399999997
 20
-96.1776079999998
 10
211.19338
 20
-96.20402399999979
 10
211.077556
 20
-96.23399599999979
 10
210.96325599999997
 20
-96.2675239999998
 10
210.85073399999996
 20
-96.30486199999979
 10
210.73973599999997
 20
-96.34600999999978
 10
210.63076999999998
 20
-96.39096799999979
 10
210.52358199999998
 20
-96.43998999999978
 10
210.41867999999997
 20
-96.49332999999979
 10
210.31580999999997
 20
-96.55098799999978
 10
210.21547999999999
 20
-96.61321799999978
 10
210.11743599999997
 20
-96.68001999999977
 10
210.021932
 20
-96.75164799999976
 10
209.92922199999998
 20
-96.82810199999976
 10
209.88451799999999
 20
-96.86721799999977
 10
209.84057599999997
 20
-96.90684199999976
 10
209.79714199999995
 20
-96.94722799999975
 10
209.75421599999996
 20
-96.98812199999976
 10
209.71179799999996
 20
-97.02952399999977
 10
209.66988799999996
 20
-97.07143399999977
 10
209.62848599999995
 20
-97.11385199999977
 10
209.58784599999998
 20
-97.15677799999976
 10
209.54771399999996
 20
-97.20046599999976
 10
209.50808999999998
 20
-97.24466199999976
 10
209.46897399999997
 20
-97.28936599999976
 10
209.43062
 20
-97.33457799999975
 10
209.392774
 20
-97.38029799999975
 10
209.355436
 20
-97.42627199999976
 10
209.31885999999997
 20
-97.47275399999975
 10
209.28279199999997
 20
-97.51974399999975
 10
209.24723199999997
 20
-97.56724199999975
 10
209.21243399999997
 20
-97.61524799999975
 10
209.17814399999997
 20
-97.66350799999975
 10
209.144616
 20
-97.71227599999976
 10
209.111596
 20
-97.76155199999977
 10
209.079338
 20
-97.81108199999976
 10
209.04758800000002
 20
-97.86111999999976
 10
209.01660000000004
 20
-97.91166599999977
 10
208.98612000000003
 20
-97.96246599999976
 10
208.95640200000003
 20
-98.01377399999976
 10
208.92719200000002
 20
-98.06533599999976
 10
208.89874400000005
 20
-98.11715199999976
 10
208.87080400000005
 20
-98.16947599999976
 10
208.84362600000006
 20
-98.22205399999976
 10
208.81695600000003
 20
-98.27513999999977
 10
208.79104800000005
 20
-98.32847999999976
 10
208.78647600000005
 20
-98.33787799999975
 10
208.78190400000003
 20
-98.34752999999975
 10
208.77733200000003
 20
-98.35743599999975
 10
208.77276
 20
-98.36734199999975
 10
208.768188
 20
-98.37750199999975
 10
208.763616
 20
-98.38766199999976
 10
208.759044
 20
-98.39807599999976
 10
208.754472
 20
-98.40848999999976
 10
208.74989999999997
 20
-98.41915799999975
 10
208.74532799999997
 20
-98.42982599999975
 10
208.74075599999998
 20
-98.44074799999974
 10
208.73618399999995
 20
-98.45166999999975
 10
208.73161199999996
 20
-98.46284599999974
 10
208.72703999999993
 20
-98.47402199999974
 10
208.72246799999994
 20
-98.48519799999973
 10
208.71789599999994
 20
-98.49662799999973
 10
208.71306999999993
 20
-98.50805799999974
 10
208.70824399999992
 20
-98.51974199999974
 10
208.7034179999999
 20
-98.53142599999974
 10
208.69859199999993
 20
-98.54310999999973
 10
208.69376599999993
 20
-98.55504799999974
 10
208.68893999999992
 20
-98.56698599999974
 10
208.6841139999999
 20
-98.57892399999976
 10
208.67928799999993
 20
-98.59111599999976
 10
208.67446199999992
 20
-98.60330799999976
 10
208.6696359999999
 20
-98.61549999999976
 10
208.6648099999999
 20
-98.62794599999975
 10
208.65998399999992
 20
-98.64039199999975
 10
208.65515799999991
 20
-98.65283799999973
 10
208.65007799999992
 20
-98.66528399999973
 10
208.64499799999993
 20
-98.67798399999974
 10
208.63991799999994
 20
-98.69068399999973
 10
208.61400999999992
 20
-98.75215199999974
 10
208.5853079999999
 20
-98.81158799999974
 10
208.5540659999999
 20
-98.86924599999973
 10
208.52053799999993
 20
-98.92512599999974
 10
208.48472399999991
 20
-98.97897399999974
 10
208.44662399999993
 20
-99.03078999999974
 10
208.40623799999995
 20
-99.08057399999974
 10
208.36381999999992
 20
-99.12832599999975
 10
208.31962399999992
 20
-99.17379199999974
 10
208.27339599999993
 20
-99.21722599999974
 10
208.22538999999995
 20
-99.25837399999973
 10
208.17585999999991
 20
-99.29723599999973
 10
208.12455199999994
 20
-99.33381199999974
 10
208.07171999999994
 20
-99.36784799999974
 10
208.01761799999994
 20
-99.39959799999974
 10
207.96199199999992
 20
-99.42880799999975
 10
207.90509599999993
 20
-99.45547799999974
 10
207.84718399999994
 20
-99.47960799999976
 10
207.78825599999993
 20
-99.50119799999975
 10
207.72831199999993
 20
-99.52024799999974
 10
207.66735199999994
 20
-99.53650399999975
 10
207.60562999999993
 20
-99.54996599999976
 10
207.54314599999992
 20
-99.56063399999974
 10
207.4801539999999
 20
-99.56850799999974
 10
207.4166539999999
 20
-99.57358799999975
 10
207.35264599999994
 20
-99.57587399999974
 10
207.28838399999992
 20
-99.57511199999975
 10
207.22386799999992
 20
-99.57130199999975
 10
207.15909799999991
 20
-99.56444399999975
 10
207.0943279999999
 20
-99.55453799999975
 10
207.02955799999992
 20
-99.54158399999976
 10
206.9647879999999
 20
-99.52532799999976
 10
206.5230819999999
 20
-99.40620199999975
 10
206.0813759999999
 20
-99.28707599999976
 10
205.63966999999988
 20
-99.16794999999976
 10
205.19796399999987
 20
-99.04882399999975
 10
204.7562579999999
 20
-98.92969799999976
 10
204.31455199999988
 20
-98.81057199999977
 10
203.87284599999987
 20
-98.69144599999977
 10
203.43113999999986
 20
-98.57231999999976
 10
202.98943399999985
 20
-98.45319399999977
 10
202.54772799999984
 20
-98.33406799999977
 10
202.10602199999983
 20
-98.21494199999977
 10
201.66431599999981
 20
-98.09581599999977
 10
201.2226099999998
 20
-97.97668999999978
 10
200.7809039999998
 20
-97.85756399999977
 10
200.33919799999978
 20
-97.73843799999977
 10
199.89749199999977
 20
-97.61931199999978
 10
199.45578599999976
 20
-97.50018599999979
 10
199.01407999999978
 20
-97.38105999999978
 10
198.57237399999977
 20
-97.26193399999978
 10
198.13066799999976
 20
-97.14280799999979
 10
197.68896199999975
 20
-97.02368199999978
 10
197.24725599999974
 20
-96.90455599999979
 10
196.80554999999973
 20
-96.78542999999979
 10
196.36384399999972
 20
-96.66630399999978
 10
195.9221379999997
 20
-96.54717799999979
 10
195.4804319999997
 20
-96.4280519999998
 10
195.03872599999968
 20
-96.3089259999998
 10
194.59701999999967
 20
-96.18979999999979
 10
194.15531399999966
 20
-96.0706739999998
 10
193.71360799999968
 20
-95.9515479999998
 10
193.27190199999967
 20
-95.8324219999998
 10
192.83019599999966
 20
-95.7132959999998
 10
192.75983799999963
 20
-95.6950079999998
 10
192.68795599999964
 20
-95.6767199999998
 10
192.61480399999962
 20
-95.6584319999998
 10
192.54038199999962
 20
-95.63988999999981
 10
192.46519799999962
 20
-95.62134799999981
 10
192.38899799999962
 20
-95.60229799999982
 10
192.31228999999962
 20
-95.58299399999981
 10
192.23507399999963
 20
-95.56318199999981
 10
192.15760399999965
 20
-95.54260799999982
 10
192.07987999999963
 20
-95.52152599999981
 10
192.00215599999962
 20
-95.4996819999998
 10
191.92468599999964
 20
-95.4768219999998
 10
191.84746999999965
 20
-95.45294599999981
 10
191.77101599999963
 20
-95.4280539999998
 10
191.69506999999965
 20
-95.4018919999998
 10
191.62013999999965
 20
-95.3744599999998
 10
191.54622599999962
 20
-95.3457579999998
 10
191.47358199999965
 20
-95.31553199999979
 10
191.40220799999966
 20
-95.28378199999979
 10
191.33261199999967
 20
-95.2502539999998
 10
191.26479399999965
 20
-95.2149479999998
 10
191.19875399999964
 20
-95.17786399999979
 10
191.13474599999967
 20
-95.1387479999998
 10
191.07302399999966
 20
-95.09759999999979
 10
191.01384199999967
 20
-95.0544199999998
 10
190.9571999999997
 20
-95.00895399999979
 10
190.90335199999967
 20
-94.96094799999979
 10
190.85255199999966
 20
-94.91065599999979
 10
190.80479999999966
 20
-94.8578239999998
 10
190.76034999999968
 20
-94.80245199999979
 10
190.7194559999997
 20
-94.74428599999979
 10
190.6821179999997
 20
-94.68332599999978
 10
190.65214599999968
 20
-94.62642999999979
 10
190.62547599999965
 20
-94.5672479999998
 10
190.60185399999966
 20
-94.50552599999979
 10
190.58127999999968
 20
-94.4417719999998
 10
190.56349999999966
 20
-94.3757319999998
 10
190.54851399999967
 20
-94.3079139999998
 10
190.53606799999966
 20
-94.2383179999998
 10
190.5261619999997
 20
-94.1669439999998
 10
190.51854199999968
 20
-94.0940459999998
 10
190.51320799999968
 20
-94.0196239999998
 10
190.5099059999997
 20
-93.9439319999998
 10
190.50863599999968
 20
-93.8672239999998
 10
190.50914399999968
 20
-93.7894999999998
 10
190.51142999999968
 20
-93.7107599999998
 10
190.51523999999966
 20
-93.6312579999998
 10
190.52057399999967
 20
-93.5512479999998
 10
190.52743199999966
 20
-93.4707299999998
 10
190.53530599999965
 20
-93.38995799999981
 10
190.54444999999964
 20
-93.3089319999998
 10
190.55460999999963
 20
-93.22790599999979
 10
190.56553199999965
 20
-93.1468799999998
 10
190.57721599999965
 20
-93.0661079999998
 10
190.58940799999965
 20
-92.98558999999979
 10
190.60210799999965
 20
-92.9055799999998
 10
190.61506199999965
 20
-92.8260779999998
 10
190.62826999999965
 20
-92.7473379999998
 10
190.64173199999965
 20
-92.6693599999998
 10
190.65493999999967
 20
-92.59239799999979
 10
190.66814799999966
 20
-92.51670599999979
 10
190.68110199999967
 20
-92.44228399999979
 10
190.69354799999968
 20
-92.3691319999998
 10
190.70548599999967
 20
-92.29750399999979
  0
LWPOLYLINE
  5
36
330
17
100
AcDbEntity
  8
0
100
AcDbPolyline
 90
193
 70
0
 10
214.00109599999834
 20
-99.38918399999893
 10
214.07704199999833
 20
-99.45090599999892
 10
214.15298799999832
 20
-99.51262799999893
 10
214.2289339999983
 20
-99.57434999999893
 10
214.30487999999832
 20
-99.63607199999893
 10
214.3808259999983
 20
-99.69779399999892
 10
214.4567719999983
 20
-99.75951599999892
 10
214.53271799999828
 20
-99.82123799999893
 10
214.60866399999827
 20
-99.88295999999892
 10
214.6846099999983
 20
-99.94468199999892
 10
214.76055599999827
 20
-100.00640399999892
 10
214.83650199999826
 20
-100.06812599999891
 10
214.91244799999825
 20
-100.12984799999892
 10
214.98839399999827
 20
-100.19156999999892
 10
215.06433999999825
 20
-100.25329199999891
 10
215.14028599999824
 20
-100.31501399999891
 10
215.21623199999823
 20
-100.37673599999891
 10
215.29217799999824
 20
-100.4384579999989
 10
215.36812399999823
 20
-100.5001799999989
 10
215.44406999999822
 20
-100.56190199999891
 10
215.5200159999982
 20
-100.62362399999891
 10
215.59596199999822
 20
-100.6853459999989
 10
215.6719079999982
 20
-100.7470679999989
 10
215.7478539999982
 20
-100.80878999999891
 10
215.8237999999982
 20
-100.8705119999989
 10
215.8997459999982
 20
-100.9322339999989
 10
215.9756919999982
 20
-100.9939559999989
 10
216.05163799999818
 20
-101.05567799999889
 10
216.12758399999817
 20
-101.1173999999989
 10
216.20352999999818
 20
-101.1791219999989
 10
216.27947599999817
 20
-101.24084399999889
 10
216.35542199999816
 20
-101.30256599999889
 10
216.43136799999814
 20
-101.3642879999989
 10
216.52687199999815
 20
-101.44759999999889
 10
216.61424799999816
 20
-101.53548399999889
 10
216.69349599999816
 20
-101.62743199999889
 10
216.76486999999815
 20
-101.7231899999989
 10
216.82811599999815
 20
-101.82224999999889
 10
216.88348799999815
 20
-101.92435799999889
 10
216.93123999999816
 20
-102.02900599999889
 10
216.97111799999814
 20
-102.13568599999888
 10
217.00337599999813
 20
-102.24414399999888
 10
217.02801399999814
 20
-102.3538719999989
 10
217.04528599999813
 20
-102.46461599999888
 10
217.05519199999813
 20
-102.57586799999889
 10
217.0577319999981
 20
-102.6873739999989
 10
217.05315999999812
 20
-102.79862599999889
 10
217.0414759999981
 20
-102.90911599999889
 10
217.0226799999981
 20
-103.01858999999888
 10
216.99677199999812
 20
-103.12679399999888
 10
216.9640059999981
 20
-103.23296599999888
 10
216.92438199999813
 20
-103.33710599999888
 10
216.87815399999812
 20
-103.43845199999889
 10
216.82532199999812
 20
-103.53674999999889
 10
216.76588599999812
 20
-103.6317459999989
 10
216.69984599999813
 20
-103.72293199999889
 10
216.62745599999815
 20
-103.80979999999889
 10
216.54871599999814
 20
-103.89209599999889
 10
216.46387999999817
 20
-103.96931199999888
 10
216.37269399999815
 20
-104.04119399999888
 10
216.27541199999814
 20
-104.10723399999888
 10
216.17228799999816
 20
-104.16717799999888
 10
216.06306799999817
 20
-104.22051799999888
 10
215.94800599999817
 20
-104.26674599999888
 10
215.82735599999816
 20
-104.30560799999888
 10
215.71534199999817
 20
-104.33735799999889
 10
215.60332799999816
 20
-104.36910799999889
 10
215.49131399999814
 20
-104.40085799999889
 10
215.37929999999812
 20
-104.4326079999989
 10
215.26728599999814
 20
-104.46435799999888
 10
215.15527199999812
 20
-104.49610799999888
 10
215.0432579999981
 20
-104.52785799999889
 10
214.93124399999812
 20
-104.55960799999889
 10
214.8192299999981
 20
-104.59135799999889
 10
214.70721599999808
 20
-104.62310799999888
 10
214.5952019999981
 20
-104.65485799999888
 10
214.48318799999808
 20
-104.68660799999888
 10
214.37117399999806
 20
-104.71835799999889
 10
214.25915999999805
 20
-104.75010799999889
 10
214.14714599999806
 20
-104.78185799999889
 10
214.03513199999804
 20
-104.81360799999888
 10
213.92311799999803
 20
-104.84535799999888
 10
213.81110399999804
 20
-104.87710799999888
 10
213.69908999999802
 20
-104.90885799999889
 10
213.587075999998
 20
-104.94060799999889
 10
213.475061999998
 20
-104.97235799999889
 10
213.363047999998
 20
-105.00410799999888
 10
213.251033999998
 20
-105.03585799999888
 10
213.13901999999797
 20
-105.06760799999888
 10
213.02700599999798
 20
-105.09935799999889
 10
212.91499199999797
 20
-105.13110799999889
 10
212.80297799999795
 20
-105.16285799999889
 10
212.69096399999796
 20
-105.19460799999888
 10
212.57894999999795
 20
-105.22635799999888
 10
212.46693599999793
 20
-105.25810799999888
 10
212.3549219999979
 20
-105.28985799999889
 10
212.24290799999793
 20
-105.32160799999889
 10
212.1354659999979
 20
-105.34827799999888
 10
212.02878599999792
 20
-105.36732799999889
 10
211.92286799999792
 20
-105.3787579999989
 10
211.81821999999792
 20
-105.3828219999989
 10
211.7148419999979
 20
-105.38002799999889
 10
211.6132419999979
 20
-105.37037599999888
 10
211.5134199999979
 20
-105.35411999999889
 10
211.4156299999979
 20
-105.33151399999889
 10
211.3201259999979
 20
-105.3025579999989
 10
211.22716199999792
 20
-105.26775999999889
 10
211.13699199999792
 20
-105.22737399999889
 10
211.04986999999792
 20
-105.1813999999989
 10
210.9657959999979
 20
-105.1300919999989
 10
210.88527799999792
 20
-105.0739579999989
 10
210.8085699999979
 20
-105.01299799999889
 10
210.7356719999979
 20
-104.9474659999989
 10
210.6670919999979
 20
-104.8773619999989
 10
210.60282999999788
 20
-104.8031939999989
 10
210.5431399999979
 20
-104.7252159999989
 10
210.48852999999787
 20
-104.64342799999889
 10
210.43899999999786
 20
-104.5583379999989
 10
210.39480399999786
 20
-104.4699459999989
 10
210.35619599999785
 20
-104.3785059999989
 10
210.32342999999784
 20
-104.2842719999989
 10
210.29675999999785
 20
-104.18749799999891
 10
210.27618599999784
 20
-104.08843799999892
 10
210.26221599999786
 20
-103.98734599999891
 10
210.25510399999786
 20
-103.8842219999989
 10
210.25484999999787
 20
-103.7795739999989
 10
210.26196199999788
 20
-103.6734019999989
 10
210.27643999999788
 20
-103.56595999999891
 10
210.29853799999788
 20
-103.4575019999989
 10
210.32139799999788
 20
-103.3617439999989
 10
210.3442579999979
 20
-103.26598599999889
 10
210.3671179999979
 20
-103.1702279999989
 10
210.3899779999979
 20
-103.0744699999989
 10
210.41283799999792
 20
-102.9787119999989
 10
210.43569799999793
 20
-102.88295399999889
 10
210.45855799999794
 20
-102.78719599999889
 10
210.48141799999794
 20
-102.69143799999888
 10
210.50427799999795
 20
-102.59567999999888
 10
210.52713799999796
 20
-102.49992199999888
 10
210.54999799999794
 20
-102.40416399999887
 10
210.57285799999795
 20
-102.30840599999887
 10
210.59571799999796
 20
-102.21264799999886
 10
210.61857799999797
 20
-102.11688999999886
 10
210.64143799999798
 20
-102.02113199999887
 10
210.66429799999798
 20
-101.92537399999887
 10
210.687157999998
 20
-101.82961599999886
 10
210.710017999998
 20
-101.73385799999886
 10
210.732877999998
 20
-101.63809999999886
 10
210.75573799999802
 20
-101.54234199999885
 10
210.77859799999803
 20
-101.44658399999885
 10
210.80145799999804
 20
-101.35082599999885
 10
210.82431799999804
 20
-101.25506799999884
 10
210.84717799999805
 20
-101.15930999999884
 10
210.87003799999806
 20
-101.06355199999884
 10
210.89289799999807
 20
-100.96779399999883
 10
210.91575799999808
 20
-100.87203599999883
 10
210.9386179999981
 20
-100.77627799999884
 10
210.9614779999981
 20
-100.68051999999884
 10
210.9843379999981
 20
-100.58476199999883
 10
211.0071979999981
 20
-100.48900399999883
 10
211.03005799999812
 20
-100.39324599999883
 10
211.0635859999981
 20
-100.27132599999882
 10
211.1042259999981
 20
-100.15397799999882
 10
211.1517239999981
 20
-100.04145599999883
 10
211.2055719999981
 20
-99.93401399999883
 10
211.26551599999812
 20
-99.83165199999883
 10
211.33130199999812
 20
-99.73436999999882
 10
211.40267599999808
 20
-99.64242199999882
 10
211.4791299999981
 20
-99.55580799999882
 10
211.56040999999811
 20
-99.47478199999881
 10
211.6462619999981
 20
-99.3993439999988
 10
211.73617799999812
 20
-99.32949399999882
 10
211.82990399999812
 20
-99.26548599999882
 10
211.92718599999813
 20
-99.20757399999881
 10
212.02751599999814
 20
-99.15575799999881
 10
212.13063999999812
 20
-99.11003799999881
 10
212.23630399999814
 20
-99.0706679999988
 10
212.34425399999813
 20
-99.03764799999881
 10
212.45398199999812
 20
-99.01123199999881
 10
212.56523399999813
 20
-98.99141999999883
 10
212.6777559999981
 20
-98.97821199999882
 10
212.79103999999813
 20
-98.97186199999882
 10
212.90483199999812
 20
-98.97262399999882
 10
213.0188779999981
 20
-98.9802439999988
 10
213.13266999999811
 20
-98.99522999999881
 10
213.2459539999981
 20
-99.01732799999881
 10
213.3584759999981
 20
-99.04704599999882
 10
213.46998199999808
 20
-99.08412999999882
 10
213.57996399999809
 20
-99.12883399999882
 10
213.68816799999811
 20
-99.18141199999882
 10
213.79408599999812
 20
-99.24186399999881
 10
213.89771799999812
 20
-99.31018999999883
 10
213.99855599999813
 20
-99.38664399999882
  0
LWPOLYLINE
  5
37
330
17
100
AcDbEntity
  8
0
100
AcDbPolyline
 90
417
 70
0
 10
194.22490999999812
 20
-131.13765999999882
 10
194.34911599999813
 20
-131.17245799999878
 10
194.47509999999812
 20
-131.2087799999988
 10
194.60286199999814
 20
-131.24637199999881
 10
194.73214799999815
 20
-131.2857419999988
 10
194.86270399999813
 20
-131.32663599999879
 10
194.99452999999815
 20
-131.3693079999988
 10
195.12762599999814
 20
-131.4140119999988
 10
195.26148399999815
 20
-131.4604939999988
 10
195.39610399999813
 20
-131.5090079999988
 10
195.53148599999815
 20
-131.5598079999988
 10
195.66737599999814
 20
-131.61289399999882
 10
195.80351999999812
 20
-131.6682659999988
 10
195.93991799999813
 20
-131.7259239999988
 10
196.07631599999814
 20
-131.78612199999878
 10
196.21245999999812
 20
-131.84885999999878
 10
196.3483499999981
 20
-131.91439199999877
 10
196.4839859999981
 20
-131.98271799999878
 10
196.6188599999981
 20
-132.05383799999876
 10
196.7532259999981
 20
-132.12800599999878
 10
196.8865759999981
 20
-132.20522199999877
 10
197.0189099999981
 20
-132.28548599999877
 10
197.14997399999808
 20
-132.36905199999876
 10
197.27976799999806
 20
-132.45591999999877
 10
197.40803799999807
 20
-132.54634399999875
 10
197.53478399999807
 20
-132.64006999999876
 10
197.65975199999806
 20
-132.73760599999878
 10
197.78268799999807
 20
-132.83869799999877
 10
197.90359199999807
 20
-132.94359999999878
 10
198.02220999999807
 20
-133.05231199999878
 10
198.13854199999807
 20
-133.16508799999878
 10
198.25233399999806
 20
-133.28192799999877
 10
198.36358599999807
 20
-133.40308599999878
 10
198.49033199999806
 20
-133.00582999999878
 10
198.59878999999808
 20
-132.60577999999876
 10
198.68946799999807
 20
-132.2034439999988
 10
198.76312799999806
 20
-131.7990759999988
 10
198.82027799999804
 20
-131.39267599999877
 10
198.86142599999806
 20
-130.98449799999878
 10
198.88707999999806
 20
-130.5750499999988
 10
198.89800199999806
 20
-130.1643319999988
 10
198.89469999999807
 20
-129.7525979999988
 10
198.87742799999805
 20
-129.3401019999988
 10
198.84720199999805
 20
-128.9270979999988
 10
198.80427599999805
 20
-128.51383999999882
 10
198.74915799999806
 20
-128.1005819999988
 10
198.68260999999808
 20
-127.68757799999882
 10
198.6051399999981
 20
-127.2750819999988
 10
198.5172559999981
 20
-126.86334799999881
 10
198.4194659999981
 20
-126.4526299999988
 10
198.3122779999981
 20
-126.04292799999881
 10
198.19645399999808
 20
-125.6347499999988
 10
198.07250199999805
 20
-125.2283499999988
 10
197.94092999999805
 20
-124.8237279999988
 10
197.80224599999804
 20
-124.42139199999879
 10
197.65721199999803
 20
-124.0213419999988
 10
197.50608199999803
 20
-123.6238319999988
 10
197.34961799999803
 20
-123.2293699999988
 10
197.18832799999805
 20
-122.8379559999988
 10
197.02271999999803
 20
-122.44984399999879
 10
196.853555999998
 20
-122.06528799999879
 10
196.68108999999802
 20
-121.68454199999879
 10
196.50608399999803
 20
-121.30785999999878
 10
196.32904599999802
 20
-120.93549599999878
 10
196.15048399999804
 20
-120.56770399999878
 10
195.92061399999804
 20
-120.10415399999879
 10
195.68693399999805
 20
-119.64238199999879
 10
195.44969799999805
 20
-119.1826419999988
 10
195.20915999999806
 20
-118.7244259999988
 10
194.96557399999807
 20
-118.2677339999988
 10
194.71944799999807
 20
-117.81256599999881
 10
194.47078199999805
 20
-117.3584139999988
 10
194.22033799999807
 20
-116.9052779999988
 10
193.96811599999805
 20
-116.45315799999881
 10
193.71436999999804
 20
-116.00179999999881
 10
193.459607999998
 20
-115.55094999999882
 10
193.20408399999803
 20
-115.10035399999882
 10
192.94830599999804
 20
-114.65001199999881
 10
192.69227399999804
 20
-114.1996699999988
 10
192.43649599999804
 20
-113.7493279999988
 10
192.18122599999805
 20
-113.29873199999881
 10
191.92671799999806
 20
-112.84762799999879
 10
191.67347999999808
 20
-112.3960159999988
 10
191.4217659999981
 20
-111.94364199999879
 10
191.17182999999807
 20
-111.49025199999879
 10
190.92392599999806
 20
-111.03584599999878
 10
190.67856199999807
 20
-110.58016999999879
 10
190.43599199999804
 20
-110.1232239999988
 10
190.19646999999804
 20
-109.6647539999988
 10
189.96024999999807
 20
-109.20450599999879
 10
189.72783999999808
 20
-108.7422259999988
 10
189.49949399999807
 20
-108.2779139999988
 10
189.2754659999981
 20
-107.81131599999881
 10
189.05600999999808
 20
-107.34243199999881
 10
188.84163399999807
 20
-106.87100799999881
 10
188.63259199999808
 20
-106.3967899999988
 10
188.42913799999806
 20
-105.9197779999988
 10
188.32931599999804
 20
-105.6761919999988
 10
188.23431999999804
 20
-105.43311399999881
 10
188.14414999999804
 20
-105.19054399999881
 10
188.05855199999806
 20
-104.94848199999882
 10
187.97752599999805
 20
-104.70667399999881
 10
187.90107199999804
 20
-104.46537399999882
 10
187.82893599999804
 20
-104.22458199999882
 10
187.76137199999806
 20
-103.98404399999882
 10
187.69787199999806
 20
-103.74401399999883
 10
187.63868999999806
 20
-103.50423799999882
 10
187.58382599999808
 20
-103.26496999999883
 10
187.53302599999805
 20
-103.02595599999883
 10
187.48628999999806
 20
-102.78719599999883
 10
187.44336399999807
 20
-102.54868999999881
 10
187.40450199999808
 20
-102.31069199999882
 10
187.36944999999807
 20
-102.07294799999882
 10
187.33820799999805
 20
-101.83545799999882
 10
187.31052199999803
 20
-101.59822199999881
 10
187.28664599999803
 20
-101.36123999999882
 10
187.266325999998
 20
-101.12425799999882
 10
187.24930799999802
 20
-100.88752999999882
 10
187.23584599999802
 20
-100.65105599999882
 10
187.225685999998
 20
-100.41483599999881
 10
187.218827999998
 20
-100.17861599999881
 10
187.215271999998
 20
-99.94264999999882
 10
187.214763999998
 20
-99.70668399999883
 10
187.21730399999802
 20
-99.47097199999882
 10
187.22289199999804
 20
-99.23525999999883
 10
187.23152799999804
 20
-98.99954799999884
 10
187.24295799999803
 20
-98.76408999999883
 10
187.25718199999804
 20
-98.52863199999882
 10
187.27419999999802
 20
-98.29317399999881
 10
187.26556399999802
 20
-98.29088799999882
 10
187.25692799999803
 20
-98.2886019999988
 10
187.24829199999803
 20
-98.2863159999988
 10
187.23965599999804
 20
-98.28402999999881
 10
187.23101999999804
 20
-98.2817439999988
 10
187.22238399999804
 20
-98.2794579999988
 10
187.21374799999805
 20
-98.27717199999879
 10
187.20511199999805
 20
-98.27488599999879
 10
187.19647599999806
 20
-98.27259999999879
 10
187.18783999999806
 20
-98.27031399999878
 10
187.17920399999804
 20
-98.26802799999878
 10
187.17056799999804
 20
-98.26574199999877
 10
187.16193199999805
 20
-98.26345599999877
 10
187.15329599999805
 20
-98.26116999999877
 10
187.14465999999805
 20
-98.25888399999876
 10
187.13602399999806
 20
-98.25659799999876
 10
187.12738799999806
 20
-98.25431199999875
 10
187.11875199999807
 20
-98.25202599999875
 10
187.11011599999807
 20
-98.24973999999875
 10
187.10147999999808
 20
-98.24745399999874
 10
187.09284399999808
 20
-98.24516799999874
 10
187.08420799999809
 20
-98.24288199999873
 10
187.07557199999806
 20
-98.24059599999873
 10
187.06693599999807
 20
-98.23830999999873
 10
187.05829999999807
 20
-98.23602399999872
 10
187.04966399999807
 20
-98.23373799999872
 10
187.04102799999808
 20
-98.23145199999871
 10
187.03239199999808
 20
-98.22916599999871
 10
187.0237559999981
 20
-98.22687999999872
 10
187.0151199999981
 20
-98.2245939999987
 10
187.0064839999981
 20
-98.2223079999987
 10
186.9978479999981
 20
-98.22002199999869
 10
186.92113999999808
 20
-98.64140799999869
 10
186.8426539999981
 20
-99.0536499999987
 10
186.7621359999981
 20
-99.45750999999869
 10
186.6795859999981
 20
-99.8534959999987
 10
186.59500399999808
 20
-100.24186199999869
 10
186.5081359999981
 20
-100.6233699999987
 10
186.4189819999981
 20
-100.9982739999987
 10
186.3275419999981
 20
-101.36708199999869
 10
186.2338159999981
 20
-101.7303019999987
 10
186.13754999999807
 20
-102.08844199999871
 10
186.03874399999808
 20
-102.4420099999987
 10
185.93714399999809
 20
-102.7915139999987
 10
185.83300399999808
 20
-103.1374619999987
 10
185.7260699999981
 20
-103.4801079999987
 10
185.6160879999981
 20
-103.8202139999987
 10
185.5033119999981
 20
-104.1580339999987
 10
185.3874879999981
 20
-104.49407599999869
 10
185.2686159999981
 20
-104.8291019999987
 10
185.1464419999981
 20
-105.16336599999869
 10
185.02096599999808
 20
-105.49737599999868
 10
184.8921879999981
 20
-105.83163999999869
 10
184.7601079999981
 20
-106.16641199999867
 10
184.62447199999812
 20
-106.50245399999866
 10
184.4852799999981
 20
-106.84027399999867
 10
184.3425319999981
 20
-107.18012599999867
 10
184.1959739999981
 20
-107.52277199999867
 10
184.04560599999812
 20
-107.86846599999866
 10
183.89142799999811
 20
-108.21771599999866
 10
183.7331859999981
 20
-108.57102999999867
 10
183.5711339999981
 20
-108.92891599999867
 10
183.4047639999981
 20
-109.29188199999867
 10
183.2343299999981
 20
-109.66043599999867
 10
183.0156359999981
 20
-110.13389199999867
 10
182.8027839999981
 20
-110.60048999999866
 10
182.5955199999981
 20
-111.06048399999865
 10
182.3938439999981
 20
-111.51387399999867
 10
182.1977559999981
 20
-111.96116799999866
 10
182.00725599999808
 20
-112.40236599999868
 10
181.82208999999807
 20
-112.83797599999866
 10
181.6422579999981
 20
-113.26799799999866
 10
181.46750599999808
 20
-113.69293999999866
 10
181.2978339999981
 20
-114.11280199999867
 10
181.1332419999981
 20
-114.52809199999867
 10
180.97372999999806
 20
-114.93880999999867
 10
180.81904399999806
 20
-115.34520999999867
 10
180.66918399999804
 20
-115.74754599999868
 10
180.52389599999805
 20
-116.14632599999868
 10
180.38317999999805
 20
-116.54154999999867
 10
180.24703599999808
 20
-116.93347199999867
 10
180.11520999999806
 20
-117.32234599999867
 10
179.98770199999808
 20
-117.70842599999867
 10
179.8645119999981
 20
-118.09196599999866
 10
179.74563999999808
 20
-118.47321999999866
 10
179.6308319999981
 20
-118.85244199999866
 10
179.52008799999808
 20
-119.22988599999866
 10
179.41315399999806
 20
-119.60555199999865
 10
179.31002999999808
 20
-119.97994799999866
 10
179.2107159999981
 20
-120.35332799999865
 10
179.1149579999981
 20
-120.72594599999866
 10
179.02275599999808
 20
-121.09780199999865
 10
178.93410999999807
 20
-121.46940399999866
 10
178.84901999999806
 20
-121.84075199999866
 10
178.76723199999807
 20
-122.21235399999865
 10
178.6884919999981
 20
-122.58420999999866
 10
178.6587739999981
 20
-122.72975199999865
 10
178.6293099999981
 20
-122.87757999999866
 10
178.6000999999981
 20
-123.02743999999865
 10
178.57114399999807
 20
-123.17933199999865
 10
178.5426959999981
 20
-123.33325599999866
 10
178.5145019999981
 20
-123.48921199999864
 10
178.4865619999981
 20
-123.64694599999864
 10
178.45887599999807
 20
-123.80671199999864
 10
178.4314439999981
 20
-123.96825599999865
 10
178.4042659999981
 20
-124.13132399999864
 10
178.3775959999981
 20
-124.29616999999865
 10
178.3511799999981
 20
-124.46253999999864
 10
178.3250179999981
 20
-124.63043399999864
 10
178.2991099999981
 20
-124.79959799999864
 10
178.2737099999981
 20
-124.97028599999865
 10
178.24856399999808
 20
-125.14224399999866
 10
178.2236719999981
 20
-125.31547199999866
 10
178.1990339999981
 20
-125.48971599999865
 10
178.1749039999981
 20
-125.66497599999865
 10
178.1510279999981
 20
-125.84150599999865
 10
178.1274059999981
 20
-126.01879799999864
 10
178.10429199999808
 20
-126.19710599999864
 10
178.08143199999807
 20
-126.37617599999864
 10
178.05882599999808
 20
-126.55600799999864
 10
178.03647399999807
 20
-126.73660199999865
 10
178.01462999999808
 20
-126.91770399999865
 10
177.99303999999808
 20
-127.09956799999865
 10
177.97170399999808
 20
-127.28193999999866
 10
177.9508759999981
 20
-127.46456599999865
 10
177.93030199999808
 20
-127.64769999999866
 10
177.90998199999805
 20
-127.83108799999866
 10
177.89016999999808
 20
-128.01472999999865
 10
177.95265399999806
 20
-127.99390199999866
 10
178.01539199999806
 20
-127.97383599999866
 10
178.07863799999805
 20
-127.95427799999867
 10
178.14213799999806
 20
-127.93548199999866
 10
178.20589199999804
 20
-127.91719399999866
 10
178.26989999999805
 20
-127.89966799999866
 10
178.33416199999806
 20
-127.88264999999865
 10
178.39867799999806
 20
-127.86639399999865
 10
178.46344799999807
 20
-127.85089999999865
 10
178.52872599999804
 20
-127.83591399999864
 10
178.59425799999806
 20
-127.82168999999865
 10
178.66004399999807
 20
-127.80797399999865
 10
178.72608399999805
 20
-127.79501999999866
 10
178.79237799999805
 20
-127.78282799999866
 10
178.85892599999804
 20
-127.77114399999866
 10
178.92572799999803
 20
-127.76022199999866
 10
178.99278399999804
 20
-127.74980799999865
 10
179.06009399999803
 20
-127.74015599999865
 10
179.12765799999804
 20
-127.73126599999866
 10
179.19547599999805
 20
-127.72288399999864
 10
179.26354799999805
 20
-127.71526399999865
 10
179.33187399999807
 20
-127.70815199999865
 10
179.40045399999806
 20
-127.70180199999865
 10
179.46928799999804
 20
-127.69621399999866
 10
179.53837599999804
 20
-127.69113399999866
 10
179.60771799999804
 20
-127.68681599999866
 10
179.67731399999806
 20
-127.68325999999865
 10
179.74716399999807
 20
-127.68021199999866
 10
179.81726799999805
 20
-127.67792599999865
 10
179.88737199999804
 20
-127.67614799999865
 10
179.95772999999804
 20
-127.67513199999865
 10
180.02834199999805
 20
-127.67487799999866
 10
180.16296199999803
 20
-127.67614799999865
 10
180.29707399999805
 20
-127.67970399999865
 10
180.43067799999804
 20
-127.68554599999867
 10
180.56351999999805
 20
-127.69341999999867
 10
180.69585399999804
 20
-127.70332599999865
 10
180.82742599999804
 20
-127.71526399999867
 10
180.95823599999804
 20
-127.72897999999866
 10
181.08828399999803
 20
-127.74447399999866
 10
181.21756999999803
 20
-127.76174599999865
 10
181.346093999998
 20
-127.78054199999865
 10
181.47385599999802
 20
-127.80086199999865
 10
181.60060199999802
 20
-127.82270599999865
 10
181.72658599999804
 20
-127.84581999999865
 10
181.851553999998
 20
-127.87020399999865
 10
181.97550599999803
 20
-127.89560399999866
 10
182.09844199999804
 20
-127.92201999999865
 10
182.22036199999803
 20
-127.94945199999866
 10
182.34126599999806
 20
-127.97789999999867
 10
182.46115399999803
 20
-128.00710999999868
 10
182.57977199999803
 20
-128.03682799999868
 10
182.69737399999804
 20
-128.06730799999866
 10
182.813705999998
 20
-128.09829599999867
 10
182.928767999998
 20
-128.12979199999867
 10
183.04255999999802
 20
-128.1615419999987
 10
183.155081999998
 20
-128.1935459999987
 10
183.266333999998
 20
-128.22580399999867
 10
183.376061999998
 20
-128.2580619999987
 10
183.484519999998
 20
-128.29031999999867
 10
183.591453999998
 20
-128.32232399999867
 10
183.69711799999803
 20
-128.3540739999987
 10
183.80125799999803
 20
-128.3855699999987
 10
183.903873999998
 20
-128.41681199999869
 10
183.91631999999802
 20
-128.42062199999867
 10
183.92851199999802
 20
-128.4244319999987
 10
183.94070399999802
 20
-128.42824199999868
 10
183.95289599999802
 20
-128.43205199999866
 10
183.96508799999802
 20
-128.43586199999865
 10
183.97727999999802
 20
-128.43967199999867
 10
183.98947199999802
 20
-128.44348199999865
 10
184.00166399999802
 20
-128.44729199999864
 10
184.01385599999801
 20
-128.45110199999866
 10
184.026047999998
 20
-128.45491199999864
 10
184.038239999998
 20
-128.45872199999863
 10
184.05043199999804
 20
-128.46253199999865
 10
184.06262399999804
 20
-128.46634199999863
 10
184.07481599999804
 20
-128.47015199999862
 10
184.08700799999804
 20
-128.47396199999864
 10
184.09919999999804
 20
-128.47777199999862
 10
184.11139199999803
 20
-128.48132799999863
 10
184.12358399999803
 20
-128.48488399999863
 10
184.13577599999803
 20
-128.48843999999863
 10
184.14796799999803
 20
-128.49199599999864
 10
184.16015999999803
 20
-128.49555199999864
 10
184.17235199999803
 20
-128.49910799999864
 10
184.18454399999803
 20
-128.50266399999865
 10
184.19648199999804
 20
-128.50621999999865
 10
184.20841999999806
 20
-128.50977599999865
 10
184.22035799999804
 20
-128.51333199999866
 10
184.23229599999806
 20
-128.51688799999866
 10
184.24423399999807
 20
-128.52044399999866
 10
184.25617199999806
 20
-128.52399999999867
 10
184.26810999999807
 20
-128.52755599999867
 10
184.2800479999981
 20
-128.53111199999867
 10
184.29198599999808
 20
-128.53466799999867
 10
184.44743399999808
 20
-128.58064199999868
 10
184.60389799999808
 20
-128.62661599999865
 10
184.76137799999807
 20
-128.67233599999867
 10
184.91961999999808
 20
-128.71780199999864
 10
185.07887799999807
 20
-128.76301399999866
 10
185.23889799999807
 20
-128.80822599999865
 10
185.39993399999807
 20
-128.85318399999866
 10
185.56173199999807
 20
-128.89788799999866
 10
185.72429199999806
 20
-128.94259199999865
 10
185.88786799999806
 20
-128.98729599999865
 10
186.05220599999808
 20
-129.03174599999866
 10
186.21730599999808
 20
-129.07619599999865
 10
186.38316799999808
 20
-129.12039199999865
 10
186.55004599999808
 20
-129.16458799999864
 10
186.71768599999808
 20
-129.20878399999864
 10
186.88608799999807
 20
-129.25297999999864
 10
187.0552519999981
 20
-129.29692199999863
 10
187.2251779999981
 20
-129.34086399999865
 10
187.3958659999981
 20
-129.38480599999863
 10
187.56731599999807
 20
-129.42874799999862
 10
187.73952799999807
 20
-129.47268999999864
 10
187.91250199999809
 20
-129.51663199999862
 10
188.0859839999981
 20
-129.56082799999862
 10
188.2602279999981
 20
-129.60502399999862
 10
188.4352339999981
 20
-129.64921999999862
 10
188.61100199999808
 20
-129.69341599999862
 10
188.78727799999808
 20
-129.7378659999986
 10
188.9643159999981
 20
-129.78231599999862
 10
189.14211599999808
 20
-129.82676599999863
 10
189.3204239999981
 20
-129.87146999999862
 10
189.4994939999981
 20
-129.91617399999862
 10
189.67907199999811
 20
-129.96113199999863
 10
189.8195339999981
 20
-129.9961839999986
 10
189.9602499999981
 20
-130.03148999999863
 10
190.10121999999808
 20
-130.06679599999862
 10
190.2424439999981
 20
-130.1021019999986
 10
190.3839219999981
 20
-130.1376619999986
 10
190.5256539999981
 20
-130.1732219999986
 10
190.6676399999981
 20
-130.2087819999986
 10
190.80962599999808
 20
-130.24459599999858
 10
190.95186599999806
 20
-130.28040999999857
 10
191.09435999999806
 20
-130.3164779999986
 10
191.2368539999981
 20
-130.3525459999986
 10
191.3796019999981
 20
-130.38861399999863
 10
191.52234999999808
 20
-130.42493599999864
 10
191.6650979999981
 20
-130.46125799999862
 10
191.8078459999981
 20
-130.49783399999865
 10
191.9508479999981
 20
-130.53440999999864
 10
192.0938499999981
 20
-130.57123999999862
 10
192.2368519999981
 20
-130.60806999999863
 10
192.3798539999981
 20
-130.64515399999863
 10
192.5226019999981
 20
-130.6822379999986
 10
192.66534999999809
 20
-130.71957599999863
 10
192.8080979999981
 20
-130.75691399999863
 10
192.9508459999981
 20
-130.79450599999865
 10
193.0933399999981
 20
-130.83209799999864
 10
193.2358339999981
 20
-130.86994399999864
 10
193.3780739999981
 20
-130.90804399999863
 10
193.52031399999808
 20
-130.94614399999864
 10
193.66229999999808
 20
-130.9844979999986
 10
193.80403199999807
 20
-131.0228519999986
 10
193.94550999999808
 20
-131.06145999999862
 10
194.0869879999981
 20
-131.1003219999986
 10
194.2282119999981
 20
-131.13918399999864
  0
LWPOLYLINE
  5
38
330
17
100
AcDbEntity
  8
0
100
AcDbPolyline
 90
321
 70
0
 10
205.1309079999981
 20
-103.11790399999863
 10
205.07121799999808
 20
-103.10190199999863
 10
205.0115279999981
 20
-103.08589999999863
 10
204.95183799999808
 20
-103.06989799999864
 10
204.8921479999981
 20
-103.05389599999864
 10
204.83245799999807
 20
-103.03789399999864
 10
204.77276799999808
 20
-103.02189199999864
 10
204.71307799999806
 20
-103.00588999999864
 10
204.65338799999807
 20
-102.98988799999866
 10
204.59369799999806
 20
-102.97388599999866
 10
204.53400799999807
 20
-102.95788399999866
 10
204.47431799999805
 20
-102.94188199999866
 10
204.41462799999806
 20
-102.92587999999867
 10
204.35493799999804
 20
-102.90987799999867
 10
204.29524799999805
 20
-102.89387599999867
 10
204.23555799999804
 20
-102.87787399999867
 10
204.17586799999805
 20
-102.86187199999868
 10
204.11617799999803
 20
-102.84586999999868
 10
204.05648799999804
 20
-102.82986799999868
 10
203.99679799999802
 20
-102.81386599999868
 10
203.93710799999803
 20
-102.7978639999987
 10
203.87741799999802
 20
-102.7818619999987
 10
203.81772799999803
 20
-102.7658599999987
 10
203.758037999998
 20
-102.7498579999987
 10
203.69834799999802
 20
-102.7338559999987
 10
203.638657999998
 20
-102.71785399999871
 10
203.578967999998
 20
-102.70185199999871
 10
203.519277999998
 20
-102.68584999999871
 10
203.459587999998
 20
-102.66984799999871
 10
203.399897999998
 20
-102.65384599999872
 10
203.340207999998
 20
-102.63784399999872
 10
203.28051799999798
 20
-102.62184199999872
 10
203.220827999998
 20
-102.60583999999872
 10
202.81950799999797
 20
-102.49814399999873
 10
202.41767999999797
 20
-102.39019399999873
 10
202.01559799999796
 20
-102.28224399999873
 10
201.61300799999796
 20
-102.17403999999873
 10
201.20990999999796
 20
-102.06583599999873
 10
200.80655799999798
 20
-101.95737799999873
 10
200.40295199999795
 20
-101.84891999999873
 10
199.99909199999797
 20
-101.74046199999871
 10
199.59523199999796
 20
-101.63174999999872
 10
199.19111799999794
 20
-101.52303799999872
 10
198.78700399999795
 20
-101.41432599999872
 10
198.38288999999796
 20
-101.30561399999871
 10
197.97877599999794
 20
-101.19690199999872
 10
197.57491599999793
 20
-101.08818999999872
 10
197.17105599999792
 20
-100.97947799999872
 10
196.76744999999792
 20
-100.87076599999872
 10
196.3640979999979
 20
-100.76205399999873
 10
195.9609999999979
 20
-100.65334199999872
 10
195.5584099999979
 20
-100.54462999999872
 10
195.15607399999791
 20
-100.43617199999872
 10
194.75424599999792
 20
-100.3277139999987
 10
194.35292599999792
 20
-100.21925599999871
 10
193.95211399999792
 20
-100.11105199999871
 10
193.55206399999793
 20
-100.0028479999987
 10
193.15252199999793
 20
-99.8948979999987
 10
192.7537419999979
 20
-99.7869479999987
 10
192.3557239999979
 20
-99.67925199999871
 10
191.9584679999979
 20
-99.57155599999872
 10
191.56222799999793
 20
-99.46411399999872
 10
191.16674999999793
 20
-99.35692599999871
 10
190.77228799999793
 20
-99.2497379999987
 10
190.37884199999792
 20
-99.1428039999987
 10
190.37680999999793
 20
-99.19258799999871
 10
190.37503199999793
 20
-99.24237199999872
 10
190.37350799999794
 20
-99.29215599999873
 10
190.37198399999795
 20
-99.34193999999873
 10
190.37071399999795
 20
-99.39172399999875
 10
190.36969799999795
 20
-99.44150799999875
 10
190.36868199999793
 20
-99.49129199999875
 10
190.36791999999792
 20
-99.54107599999877
 10
190.36741199999793
 20
-99.59085999999877
 10
190.36690399999796
 20
-99.64064399999877
 10
190.36664999999795
 20
-99.69042799999878
 10
190.36664999999795
 20
-99.74021199999879
 10
190.36690399999796
 20
-99.7899959999988
 10
190.36715799999794
 20
-99.8397799999988
 10
190.36766599999794
 20
-99.88956399999881
 10
190.36842799999795
 20
-99.93934799999882
 10
190.36944399999794
 20
-99.98913199999882
 10
190.37071399999795
 20
-100.03916999999882
 10
190.37198399999795
 20
-100.08920799999882
 10
190.37350799999794
 20
-100.13924599999882
 10
190.3752859999979
 20
-100.18928399999882
 10
190.37731799999793
 20
-100.23932199999882
 10
190.37960399999795
 20
-100.28935999999882
 10
190.38214399999794
 20
-100.33939799999882
 10
190.38468399999795
 20
-100.38943599999882
 10
190.38747799999794
 20
-100.43947399999882
 10
190.39052599999792
 20
-100.48951199999883
 10
190.3938279999979
 20
-100.53954999999883
 10
190.3973839999979
 20
-100.58958799999883
 10
190.40119399999793
 20
-100.63962599999883
 10
190.4052579999979
 20
-100.68966399999883
 10
190.4095759999979
 20
-100.73970199999883
 10
190.43878599999792
 20
-101.02392799999883
 10
190.47561599999793
 20
-101.30662999999883
 10
190.51981199999793
 20
-101.58806199999884
 10
190.5711199999979
 20
-101.86796999999883
 10
190.62928599999793
 20
-102.14635399999884
 10
190.69405599999791
 20
-102.42346799999883
 10
190.76492199999794
 20
-102.69931199999884
 10
190.84162999999793
 20
-102.97363199999883
 10
190.92392599999792
 20
-103.24668199999883
 10
191.01155599999794
 20
-103.51846199999883
 10
191.10426599999792
 20
-103.78897199999884
 10
191.20180199999794
 20
-104.05821199999883
 10
191.30365599999791
 20
-104.32618199999884
 10
191.40982799999793
 20
-104.59313599999884
 10
191.51980999999793
 20
-104.85881999999883
 10
191.6333479999979
 20
-105.12348799999882
 10
191.75018799999793
 20
-105.38688599999881
 10
191.86982199999792
 20
-105.64926799999881
 10
191.9922499999979
 20
-105.91063399999882
 10
192.11696399999792
 20
-106.17072999999881
 10
192.24370999999792
 20
-106.42980999999881
 10
192.3724879999979
 20
-106.68787399999881
 10
192.5025359999979
 20
-106.94492199999883
 10
192.6338539999979
 20
-107.20120799999883
 10
192.7661879999979
 20
-107.45647799999882
 10
192.8990299999979
 20
-107.71073199999881
 10
193.0321259999979
 20
-107.96422399999881
 10
193.1652219999979
 20
-108.21669999999882
 10
193.2980639999979
 20
-108.46841399999882
 10
193.4303979999979
 20
-108.71936599999881
 10
193.56171599999792
 20
-108.9693019999988
 10
193.69201799999792
 20
-109.21847599999882
 10
193.95389199999792
 20
-109.7163159999988
 10
194.21982999999793
 20
-110.2126319999988
 10
194.48932399999794
 20
-110.70767799999881
 10
194.76186599999792
 20
-111.2017079999988
 10
195.03694799999792
 20
-111.69497599999882
 10
195.3140619999979
 20
-112.18748199999881
 10
195.5926999999979
 20
-112.67947999999882
 10
195.8723539999979
 20
-113.17122399999882
 10
196.1525159999979
 20
-113.66296799999881
 10
196.43267799999788
 20
-114.15496599999881
 10
196.7123319999979
 20
-114.6472179999988
 10
196.99096999999787
 20
-115.1402319999988
 10
197.26808399999788
 20
-115.6340079999988
 10
197.54316599999788
 20
-116.1287999999988
 10
197.81570799999787
 20
-116.6246079999988
 10
198.08494799999787
 20
-117.1219399999988
 10
198.35063199999786
 20
-117.6207959999988
 10
198.61225199999785
 20
-118.12168399999881
 10
198.86929999999785
 20
-118.62460399999881
 10
199.12101399999784
 20
-119.1298099999988
 10
199.36713999999785
 20
-119.6373019999988
 10
199.60716999999786
 20
-120.1475879999988
 10
199.84034199999786
 20
-120.6606679999988
 10
200.06640199999788
 20
-121.17679599999879
 10
200.28484199999787
 20
-121.6962259999988
 10
200.49489999999787
 20
-122.2192119999988
 10
200.69632199999788
 20
-122.74600799999881
 10
200.88834599999785
 20
-123.2766139999988
 10
201.07071799999787
 20
-123.8115379999988
 10
201.24267599999786
 20
-124.3507799999988
 10
201.40396599999787
 20
-124.8945939999988
 10
201.55382599999785
 20
-125.4429799999988
 10
201.55611199999788
 20
-125.4518699999988
 10
201.55839799999788
 20
-125.46075999999881
 10
201.56068399999788
 20
-125.46964999999882
 10
201.56296999999788
 20
-125.47853999999883
 10
201.56525599999787
 20
-125.48742999999884
 10
201.5672879999979
 20
-125.49631999999885
 10
201.5693199999979
 20
-125.50520999999885
 10
201.57135199999792
 20
-125.51409999999886
 10
201.57338399999793
 20
-125.52298999999886
 10
201.57541599999794
 20
-125.53187999999886
 10
201.57744799999796
 20
-125.54076999999887
 10
201.57947999999794
 20
-125.54965999999888
 10
201.58151199999796
 20
-125.55854999999889
 10
201.58354399999797
 20
-125.5674399999989
 10
201.58557599999799
 20
-125.5763299999989
 10
201.587607999998
 20
-125.58521999999891
 10
201.589639999998
 20
-125.5941099999989
 10
201.591671999998
 20
-125.60299999999891
 10
201.593703999998
 20
-125.61188999999892
 10
201.59573599999803
 20
-125.62077999999893
 10
201.59776799999804
 20
-125.62966999999894
 10
201.59979999999806
 20
-125.63855999999895
 10
201.60183199999807
 20
-125.64744999999895
 10
201.60386399999808
 20
-125.65633999999896
 10
201.60589599999807
 20
-125.66522999999896
 10
201.60792799999808
 20
-125.67411999999896
 10
201.6099599999981
 20
-125.68300999999897
 10
201.6119919999981
 20
-125.69189999999898
 10
201.61402399999812
 20
-125.70078999999899
 10
201.61605599999814
 20
-125.709679999999
 10
201.61808799999812
 20
-125.718569999999
 10
201.62011999999814
 20
-125.72745999999901
 10
201.63205799999815
 20
-125.68148599999901
 10
201.64399599999817
 20
-125.63576599999901
 10
201.65593399999815
 20
-125.590045999999
 10
201.66787199999817
 20
-125.544325999999
 10
201.67980999999818
 20
-125.498605999999
 10
201.6917479999982
 20
-125.452885999999
 10
201.70368599999819
 20
-125.407165999999
 10
201.7156239999982
 20
-125.361445999999
 10
201.72756199999822
 20
-125.315725999999
 10
201.7394999999982
 20
-125.270005999999
 10
201.75143799999822
 20
-125.224285999999
 10
201.76337599999823
 20
-125.178565999999
 10
201.77531399999822
 20
-125.13284599999899
 10
201.78725199999823
 20
-125.08712599999899
 10
201.79918999999825
 20
-125.04140599999899
 10
201.81112799999826
 20
-124.99568599999898
 10
201.82306599999825
 20
-124.94996599999898
 10
201.83500399999826
 20
-124.90424599999898
 10
201.84694199999828
 20
-124.85852599999897
 10
201.85887999999827
 20
-124.81280599999899
 10
201.87081799999828
 20
-124.76708599999898
 10
201.8827559999983
 20
-124.72136599999898
 10
201.8946939999983
 20
-124.67564599999898
 10
201.9066319999983
 20
-124.63017999999899
 10
201.9185699999983
 20
-124.58471399999898
 10
201.93050799999833
 20
-124.53924799999899
 10
201.9424459999983
 20
-124.493781999999
 10
201.95438399999833
 20
-124.44831599999901
 10
201.96632199999834
 20
-124.40284999999902
 10
201.97825999999833
 20
-124.35738399999902
 10
201.99019799999834
 20
-124.31191799999903
 10
202.00213599999836
 20
-124.26645199999903
 10
202.08087599999834
 20
-123.96546199999904
 10
202.15936199999834
 20
-123.66548799999904
 10
202.23733999999834
 20
-123.36652999999903
 10
202.31480999999832
 20
-123.06858799999904
 10
202.39177199999833
 20
-122.77166199999904
 10
202.46797199999833
 20
-122.47575199999903
 10
202.54340999999832
 20
-122.18085799999903
 10
202.61808599999833
 20
-121.88697999999904
 10
202.69174599999832
 20
-121.59386399999903
 10
202.7643899999983
 20
-121.30176399999904
 10
202.8360179999983
 20
-121.01067999999904
 10
202.90637599999832
 20
-120.72061199999904
 10
202.9754639999983
 20
-120.43130599999904
 10
203.04328199999833
 20
-120.14301599999904
 10
203.1098299999983
 20
-119.85548799999904
 10
203.1748539999983
 20
-119.56897599999904
 10
203.2383539999983
 20
-119.28322599999905
 10
203.30007599999834
 20
-118.99849199999905
 10
203.36027399999833
 20
-118.71451999999904
 10
203.41843999999833
 20
-118.43156399999906
 10
203.47482799999833
 20
-118.14936999999905
 10
203.52918399999834
 20
-117.86793799999906
 10
203.58150799999834
 20
-117.58752199999905
 10
203.63179999999835
 20
-117.30786799999906
 10
203.67980599999834
 20
-117.02897599999906
 10
203.72552599999833
 20
-116.75084599999904
 10
203.76895999999834
 20
-116.47347799999905
 10
203.80985399999832
 20
-116.19687199999905
 10
203.8482079999983
 20
-115.92102799999905
 10
203.88402199999828
 20
-115.64594599999904
 10
203.9172959999983
 20
-115.37162599999905
 10
203.9477759999983
 20
-115.09806799999905
 10
203.97774799999831
 20
-114.83162199999906
 10
204.0105139999983
 20
-114.56847799999905
 10
204.0463279999983
 20
-114.30838199999906
 10
204.0851899999983
 20
-114.05133399999906
 10
204.1270999999983
 20
-113.79733399999905
 10
204.1723119999983
 20
-113.54612799999906
 10
204.2205719999983
 20
-113.29771599999906
 10
204.2721339999983
 20
-113.05184399999905
 10
204.3267439999983
 20
-112.80876599999905
 10
204.3846559999983
 20
-112.56797399999905
 10
204.44586999999828
 20
-112.32972199999907
 10
204.5103859999983
 20
-112.09375599999908
 10
204.5784579999983
 20
-111.86007599999907
 10
204.6498319999983
 20
-111.62842799999908
 10
204.7247619999983
 20
-111.39881199999907
 10
204.80324799999826
 20
-111.17122799999906
 10
204.88528999999826
 20
-110.94542199999907
 10
204.97088799999827
 20
-110.72139399999907
 10
205.06004199999828
 20
-110.49888999999907
 10
205.15275199999826
 20
-110.27816399999907
 10
205.24927199999826
 20
-110.05870799999907
 10
205.34960199999827
 20
-109.84077599999907
 10
205.45348799999826
 20
-109.62411399999907
 10
205.56118399999826
 20
-109.40872199999906
 10
205.67294399999827
 20
-109.19434599999906
 10
205.7885139999983
 20
-108.98098599999906
 10
205.9078939999983
 20
-108.76864199999906
 10
206.03133799999827
 20
-108.55705999999905
 10
206.15884599999828
 20
-108.34623999999906
 10
206.29041799999828
 20
-108.13618199999907
 10
206.4260539999983
 20
-107.92663199999906
 10
206.56575399999826
 20
-107.71758999999908
 10
206.46974199999826
 20
-107.59770199999907
 10
206.37703199999825
 20
-107.47552799999907
 10
206.28736999999828
 20
-107.35132199999909
 10
206.20075599999825
 20
-107.22533799999908
 10
206.11744399999827
 20
-107.09732199999908
 10
206.03717999999827
 20
-106.96752799999908
 10
205.96021799999826
 20
-106.83570199999907
 10
205.88655799999827
 20
-106.70209799999907
 10
205.81619999999825
 20
-106.56696999999907
 10
205.74888999999826
 20
-106.43006399999908
 10
205.68488199999828
 20
-106.29163399999908
 10
205.62417599999827
 20
-106.15167999999908
 10
205.56677199999825
 20
-106.01020199999908
 10
205.51292399999826
 20
-105.86745399999907
 10
205.46237799999827
 20
-105.72318199999908
 10
205.41513399999826
 20
-105.57763999999908
 10
205.37119199999827
 20
-105.43108199999908
 10
205.33080599999826
 20
-105.28325399999909
 10
205.2937219999983
 20
-105.1341559999991
 10
205.2601939999983
 20
-104.98404199999909
 10
205.2302219999983
 20
-104.83291199999908
 10
205.20355199999827
 20
-104.68101999999908
 10
205.18043799999828
 20
-104.52811199999908
 10
205.1608799999983
 20
-104.37444199999908
 10
205.14487799999827
 20
-104.22000999999908
 10
205.1324319999983
 20
-104.06481599999908
 10
205.12354199999828
 20
-103.90911399999908
 10
205.1182079999983
 20
-103.75264999999908
 10
205.11668399999832
 20
-103.59567799999908
 10
205.11871599999833
 20
-103.43819799999909
 10
205.12430399999835
 20
-103.28046399999909
 10
205.13370199999835
 20
-103.12222199999908
  0
LWPOLYLINE
  5
39
330
17
100
AcDbEntity
  8
0
100
AcDbPolyline
 90
257
 70
0
 10
201.41463399999833
 20
-142.8889699999991
 10
200.68285999999833
 20
-142.6982159999991
 10
199.95108599999836
 20
-142.5074619999991
 10
199.21931199999835
 20
-142.31670799999912
 10
198.48753799999835
 20
-142.12595399999913
 10
197.75576399999835
 20
-141.93519999999913
 10
197.02398999999838
 20
-141.74444599999913
 10
196.29221599999838
 20
-141.55369199999913
 10
195.56044199999837
 20
-141.36293799999913
 10
194.8286679999984
 20
-141.17218399999913
 10
194.0968939999984
 20
-140.98142999999916
 10
193.3651199999984
 20
-140.79067599999917
 10
192.63334599999843
 20
-140.59992199999917
 10
191.90157199999842
 20
-140.40916799999917
 10
191.16979799999842
 20
-140.21841399999917
 10
190.43802399999845
 20
-140.02765999999917
 10
189.70624999999845
 20
-139.8369059999992
 10
188.97447599999845
 20
-139.6461519999992
 10
188.24270199999845
 20
-139.4553979999992
 10
187.51092799999847
 20
-139.2646439999992
 10
186.77915399999847
 20
-139.0738899999992
 10
186.04737999999847
 20
-138.8831359999992
 10
185.3156059999985
 20
-138.6923819999992
 10
184.5838319999985
 20
-138.50162799999924
 10
183.8520579999985
 20
-138.31087399999925
 10
183.12028399999852
 20
-138.12011999999925
 10
182.38850999999852
 20
-137.92936599999925
 10
181.65673599999852
 20
-137.73861199999925
 10
180.92496199999852
 20
-137.54785799999925
 10
180.19318799999854
 20
-137.35710399999928
 10
179.46141399999854
 20
-137.16634999999928
 10
178.72963999999854
 20
-136.97559599999929
 10
177.99786599999857
 20
-136.7848419999993
 10
177.96281399999856
 20
-136.7762059999993
 10
177.92776199999855
 20
-136.7688399999993
 10
177.89270999999854
 20
-136.7627439999993
 10
177.85765799999854
 20
-136.75791799999928
 10
177.82235199999852
 20
-136.75436199999928
 10
177.7872999999985
 20
-136.75207599999928
 10
177.7522479999985
 20
-136.75080599999927
 10
177.7171959999985
 20
-136.75080599999927
 10
177.6821439999985
 20
-136.75207599999928
 10
177.6473459999985
 20
-136.75436199999928
 10
177.6128019999985
 20
-136.75791799999928
 10
177.57825799999853
 20
-136.7627439999993
 10
177.54396799999853
 20
-136.7685859999993
 10
177.5099319999985
 20
-136.7756979999993
 10
177.4761499999985
 20
-136.78382599999932
 10
177.44262199999852
 20
-136.79322399999933
 10
177.40960199999853
 20
-136.80363799999932
 10
177.37683599999852
 20
-136.81532199999936
 10
177.34457799999853
 20
-136.82802199999932
 10
177.31257399999853
 20
-136.84173799999934
 10
177.28107799999853
 20
-136.85672399999933
 10
177.25008999999855
 20
-136.87272599999932
 10
177.21960999999854
 20
-136.88974399999933
 10
177.18963799999852
 20
-136.90777799999933
 10
177.16042799999852
 20
-136.92682799999935
 10
177.1317259999985
 20
-136.94714799999934
 10
177.10353199999852
 20
-136.96848399999934
 10
177.07609999999852
 20
-136.99083599999932
 10
177.04942999999852
 20
-137.01420399999932
 10
177.02352199999854
 20
-137.03858799999932
 10
176.9983759999985
 20
-137.0639879999993
 10
176.9739919999985
 20
-137.09040399999932
 10
176.9544339999985
 20
-137.11250199999932
 10
176.9346219999985
 20
-137.13485399999934
 10
176.91455599999853
 20
-137.15771399999934
 10
176.89423599999853
 20
-137.18108199999932
 10
176.8739159999985
 20
-137.2047039999993
 10
176.85334199999852
 20
-137.22883399999932
 10
176.8327679999985
 20
-137.25321799999932
 10
176.8121939999985
 20
-137.27810999999932
 10
176.7913659999985
 20
-137.30325599999932
 10
176.7705379999985
 20
-137.32865599999934
 10
176.74970999999852
 20
-137.35456399999933
 10
176.7288819999985
 20
-137.38072599999933
 10
176.7080539999985
 20
-137.40739599999932
 10
176.6872259999985
 20
-137.43431999999933
 10
176.6663979999985
 20
-137.46149799999932
 10
176.64556999999851
 20
-137.4889299999993
 10
176.62474199999852
 20
-137.5168699999993
 10
176.60391399999853
 20
-137.5450639999993
 10
176.5830859999985
 20
-137.57351199999928
 10
176.56251199999852
 20
-137.6022139999993
 10
176.5419379999985
 20
-137.63116999999932
 10
176.52161799999848
 20
-137.66037999999932
 10
176.50129799999849
 20
-137.6898439999993
 10
176.4812319999985
 20
-137.7195619999993
 10
176.4611659999985
 20
-137.74953399999933
 10
176.4413539999985
 20
-137.77975999999933
 10
176.42179599999852
 20
-137.8102399999993
 10
176.40249199999852
 20
-137.8409739999993
 10
176.3834419999985
 20
-137.87196199999931
 10
176.36464599999852
 20
-137.9032039999993
 10
176.34610399999852
 20
-137.93469999999934
 10
176.3278159999985
 20
-137.96619599999934
 10
176.3011459999985
 20
-138.01547199999933
 10
176.27752399999852
 20
-138.06550999999934
 10
176.2569499999985
 20
-138.11630999999934
 10
176.2391699999985
 20
-138.16761799999932
 10
176.22443799999851
 20
-138.21943399999932
 10
176.2124999999985
 20
-138.27150399999934
 10
176.2033559999985
 20
-138.32382799999934
 10
176.1970059999985
 20
-138.37640599999932
 10
176.1934499999985
 20
-138.42898399999933
 10
176.1926879999985
 20
-138.48130799999933
 10
176.1947199999985
 20
-138.53363199999933
 10
176.19929199999854
 20
-138.58570199999934
 10
176.20665799999853
 20
-138.63726399999933
 10
176.21656399999853
 20
-138.68831799999936
 10
176.2290099999985
 20
-138.73886399999935
 10
176.2439959999985
 20
-138.78864799999934
 10
176.2612679999985
 20
-138.83766999999935
 10
176.2810799999985
 20
-138.88567599999934
 10
176.30343199999848
 20
-138.93266599999933
 10
176.3280699999985
 20
-138.97863999999933
 10
176.35499399999847
 20
-139.02334399999935
 10
176.38420399999848
 20
-139.06677799999935
 10
176.41569999999848
 20
-139.10868799999935
 10
176.4494819999985
 20
-139.14907399999933
 10
176.4855499999985
 20
-139.18793599999935
 10
176.5236499999985
 20
-139.22501999999935
 10
176.5640359999985
 20
-139.26032599999934
 10
176.6064539999985
 20
-139.29359999999934
 10
176.6509039999985
 20
-139.32484199999934
 10
176.6973859999985
 20
-139.35405199999934
 10
176.7458999999985
 20
-139.38097599999935
 10
176.7961919999985
 20
-139.40561399999933
 10
177.5442219999985
 20
-139.74190999999934
 10
178.2922519999985
 20
-140.0782059999993
 10
179.04028199999854
 20
-140.41450199999932
 10
179.78831199999854
 20
-140.7507979999993
 10
180.53634199999857
 20
-141.0870939999993
 10
181.28437199999857
 20
-141.42338999999927
 10
182.0324019999986
 20
-141.75968599999925
 10
182.7804319999986
 20
-142.09598199999925
 10
183.52846199999863
 20
-142.43227799999923
 10
184.27649199999863
 20
-142.76857399999923
 10
185.02452199999865
 20
-143.1048699999992
 10
185.77255199999865
 20
-143.4411659999992
 10
186.52058199999865
 20
-143.7774619999992
 10
187.26861199999868
 20
-144.1137579999992
 10
188.01664199999868
 20
-144.45005399999917
 10
188.7646719999987
 20
-144.78634999999915
 10
189.5127019999987
 20
-145.12264599999915
 10
190.26073199999874
 20
-145.45894199999913
 10
191.00876199999874
 20
-145.79523799999913
 10
191.75679199999877
 20
-146.1315339999991
 10
192.50482199999877
 20
-146.4678299999991
 10
193.25285199999877
 20
-146.8041259999991
 10
194.0008819999988
 20
-147.1404219999991
 10
194.7489119999988
 20
-147.47671799999907
 10
195.49694199999882
 20
-147.81301399999904
 10
196.24497199999882
 20
-148.14930999999905
 10
196.99300199999885
 20
-148.48560599999902
 10
197.74103199999885
 20
-148.82190199999903
 10
198.48906199999888
 20
-149.158197999999
 10
199.23709199999888
 20
-149.494493999999
 10
199.98512199999888
 20
-149.83078999999898
 10
200.7331519999989
 20
-150.167085999999
 10
200.79715999999888
 20
-150.19375599999898
 10
200.8614219999989
 20
-150.21585399999898
 10
200.92593799999892
 20
-150.23337999999896
 10
200.99045399999892
 20
-150.24658799999898
 10
201.05496999999892
 20
-150.25547799999896
 10
201.11923199999893
 20
-150.26004999999898
 10
201.18298599999892
 20
-150.26055799999895
 10
201.24623199999894
 20
-150.25700199999895
 10
201.30871599999892
 20
-150.24963599999896
 10
201.37043799999893
 20
-150.23845999999895
 10
201.43114399999894
 20
-150.22347399999896
 10
201.49057999999897
 20
-150.204931999999
 10
201.54874599999897
 20
-150.182833999999
 10
201.60538799999895
 20
-150.15743399999897
 10
201.66025199999896
 20
-150.12873199999896
 10
201.71333799999894
 20
-150.09672799999896
 10
201.76439199999896
 20
-150.06167599999895
 10
201.81341399999894
 20
-150.02357599999897
 10
201.85989599999894
 20
-149.982681999999
 10
201.90409199999894
 20
-149.93899399999898
 10
201.94549399999894
 20
-149.892511999999
 10
201.98410199999896
 20
-149.84348999999898
 10
202.01991599999894
 20
-149.791927999999
 10
202.05268199999895
 20
-149.73807999999897
 10
202.08214599999894
 20
-149.681945999999
 10
202.10805399999893
 20
-149.623779999999
 10
202.13040599999894
 20
-149.56332799999896
 10
202.14920199999892
 20
-149.50109799999896
 10
202.16393399999893
 20
-149.43683599999895
 10
202.17485599999893
 20
-149.37079599999896
 10
202.1814599999989
 20
-149.30323199999896
 10
202.1837459999989
 20
-149.23414399999893
 10
202.1837459999989
 20
-149.06675799999894
 10
202.1837459999989
 20
-148.89962599999896
 10
202.1837459999989
 20
-148.73223999999894
 10
202.1837459999989
 20
-148.56485399999895
 10
202.1837459999989
 20
-148.39746799999895
 10
202.1837459999989
 20
-148.23008199999896
 10
202.1837459999989
 20
-148.06269599999897
 10
202.1837459999989
 20
-147.89530999999897
 10
202.1837459999989
 20
-147.72792399999895
 10
202.1837459999989
 20
-147.56053799999896
 10
202.1837459999989
 20
-147.39315199999896
 10
202.1837459999989
 20
-147.22576599999897
 10
202.1837459999989
 20
-147.05837999999898
 10
202.1837459999989
 20
-146.89099399999898
 10
202.1837459999989
 20
-146.72360799999896
 10
202.1837459999989
 20
-146.55622199999897
 10
202.1837459999989
 20
-146.38883599999897
 10
202.1837459999989
 20
-146.22144999999898
 10
202.1837459999989
 20
-146.054063999999
 10
202.1837459999989
 20
-145.886677999999
 10
202.1837459999989
 20
-145.71929199999897
 10
202.1837459999989
 20
-145.552159999999
 10
202.1837459999989
 20
-145.384773999999
 10
202.1837459999989
 20
-145.21738799999898
 10
202.1837459999989
 20
-145.05000199999898
 10
202.1837459999989
 20
-144.882615999999
 10
202.1837459999989
 20
-144.715229999999
 10
202.1837459999989
 20
-144.547843999999
 10
202.1837459999989
 20
-144.380457999999
 10
202.1837459999989
 20
-144.213071999999
 10
202.1837459999989
 20
-144.045685999999
 10
202.1837459999989
 20
-143.878299999999
 10
202.1827299999989
 20
-143.83486599999898
 10
202.17993599999892
 20
-143.791685999999
 10
202.1753639999989
 20
-143.749013999999
 10
202.16901399999892
 20
-143.70684999999898
 10
202.16113999999894
 20
-143.665193999999
 10
202.15148799999892
 20
-143.62404599999897
 10
202.14031199999891
 20
-143.583405999999
 10
202.1273579999989
 20
-143.543527999999
 10
202.1128799999989
 20
-143.50441199999898
 10
202.09687799999892
 20
-143.46580399999897
 10
202.07935199999892
 20
-143.42795799999897
 10
202.06030199999893
 20
-143.391127999999
 10
202.03972799999892
 20
-143.35505999999896
 10
202.0178839999989
 20
-143.31975399999897
 10
201.9947699999989
 20
-143.28546399999897
 10
201.9701319999989
 20
-143.25218999999896
 10
201.9442239999989
 20
-143.21993199999898
 10
201.91704599999892
 20
-143.18868999999896
 10
201.88859799999892
 20
-143.15846399999896
 10
201.85887999999895
 20
-143.12950799999896
 10
201.82789199999894
 20
-143.10182199999895
 10
201.79588799999897
 20
-143.07515199999892
 10
201.76286799999895
 20
-143.04975199999893
 10
201.72857799999898
 20
-143.02587599999893
 10
201.69327199999896
 20
-143.0032699999989
 10
201.65694999999894
 20
-142.98193399999892
 10
201.61961199999894
 20
-142.9621219999989
 10
201.58125799999894
 20
-142.94383399999893
 10
201.54214199999896
 20
-142.9270699999989
 10
201.50200999999896
 20
-142.91182999999893
 10
201.46111599999895
 20
-142.89811399999894
 10
201.41920599999898
 20
-142.88617599999893
  0
ENDSEC
  0
SECTION
  2
OBJECTS
  0
DICTIONARY
  5
A
330
0
100
AcDbDictionary
281
1
  3
ACAD_COLOR
350
B
  3
ACAD_GROUP
350
C
  3
ACAD_LAYOUT
350
D
  3
ACAD_MATERIAL
350
E
  3
ACAD_MLEADERSTYLE
350
F
  3
ACAD_MLINESTYLE
350
10
  3
ACAD_PLOTSETTINGS
350
11
  3
ACAD_PLOTSTYLENAME
350
12
  3
ACAD_SCALELIST
350
14
  3
ACAD_TABLESTYLE
350
15
  3
ACAD_VISUALSTYLE
350
16
  3
EZDXF_META
350
2D
  0
DICTIONARY
  5
B
330
A
100
AcDbDictionary
281
1
  0
DICTIONARY
  5
C
330
A
100
AcDbDictionary
281
1
  0
DICTIONARY
  5
D
330
A
100
AcDbDictionary
281
1
  3
Model
350
1A
  3
Layout1
350
1E
  0
DICTIONARY
  5
E
330
A
100
AcDbDictionary
281
1
  3
ByBlock
350
1F
  3
ByLayer
350
20
  3
Global
350
21
  0
DICTIONARY
  5
F
330
A
100
AcDbDictionary
281
1
  3
Standard
350
2C
  0
DICTIONARY
  5
10
330
A
100
AcDbDictionary
281
1
  3
Standard
350
22
  0
DICTIONARY
  5
11
330
A
100
AcDbDictionary
281
1
  0
ACDBDICTIONARYWDFLT
  5
12
330
A
100
AcDbDictionary
281
1
  3
Normal
350
13
100
AcDbDictionaryWithDefault
340
13
  0
ACDBPLACEHOLDER
  5
13
330
12
  0
DICTIONARY
  5
14
330
A
100
AcDbDictionary
281
1
  0
DICTIONARY
  5
15
330
A
100
AcDbDictionary
281
1
  0
DICTIONARY
  5
16
330
A
100
AcDbDictionary
281
1
  0
LAYOUT
  5
1A
330
D
100
AcDbPlotSettings
  1

  4
A3
  6

 40
7.5
 41
20.0
 42
7.5
 43
20.0
 44
420.0
 45
297.0
 46
0.0
 47
0.0
 48
0.0
 49
0.0
140
0.0
141
0.0
142
1.0
143
1.0
 70
1024
 72
1
 73
0
 74
5
  7

 75
16
 76
0
 77
2
 78
300
147
1.0
148
0.0
149
0.0
100
AcDbLayout
  1
Model
 70
1
 71
0
 10
0.0
 20
0.0
 11
420.0
 21
297.0
 12
0.0
 22
0.0
 32
0.0
 14
1e+20
 24
1e+20
 34
1e+20
 15
-1e+20
 25
-1e+20
 35
-1e+20
146
0.0
 13
0.0
 23
0.0
 33
0.0
 16
1.0
 26
0.0
 36
0.0
 17
0.0
 27
1.0
 37
0.0
 76
1
330
17
  0
LAYOUT
  5
1E
330
D
100
AcDbPlotSettings
  1

  4
A3
  6

 40
7.5
 41
20.0
 42
7.5
 43
20.0
 44
420.0
 45
297.0
 46
0.0
 47
0.0
 48
0.0
 49
0.0
140
0.0
141
0.0
142
1.0
143
1.0
 70
0
 72
1
 73
0
 74
5
  7

 75
16
 76
0
 77
2
 78
300
147
1.0
148
0.0
149
0.0
100
AcDbLayout
  1
Layout1
 70
1
 71
1
 10
0.0
 20
0.0
 11
420.0
 21
297.0
 12
0.0
 22
0.0
 32
0.0
 14
1e+20
 24
1e+20
 34
1e+20
 15
-1e+20
 25
-1e+20
 35
-1e+20
146
0.0
 13
0.0
 23
0.0
 33
0.0
 16
1.0
 26
0.0
 36
0.0
 17
0.0
 27
1.0
 37
0.0
 76
1
330
1B
  0
MATERIAL
  5
1F
102
{ACAD_REACTORS
330
E
102
}
330
E
100
AcDbMaterial
  1
ByBlock
  2

 70
0
 40
1.0
 71
1
 41
1.0
 91
-1023410177
 42
1.0
 72
1
  3

 73
1
 74
1
 75
1
 44
0.5
 73
0
 45
1.0
 46
1.0
 77
1
  4

 78
1
 79
1
170
1
 48
1.0
171
1
  6

172
1
173
1
174
1
140
1.0
141
1.0
175
1
  7

176
1
177
1
178
1
143
1.0
179
1
  8

270
1
271
1
272
1
145
1.0
146
1.0
273
1
  9

274
1
275
1
276
1
 42
1.0
 72
1
  3

 73
1
 74
1
 75
1
 94
63
  0
MATERIAL
  5
20
102
{ACAD_REACTORS
330
E
102
}
330
E
100
AcDbMaterial
  1
ByLayer
  2

 70
0
 40
1.0
 71
1
 41
1.0
 91
-1023410177
 42
1.0
 72
1
  3

 73
1
 74
1
 75
1
 44
0.5
 73
0
 45
1.0
 46
1.0
 77
1
  4

 78
1
 79
1
170
1
 48
1.0
171
1
  6

172
1
173
1
174
1
140
1.0
141
1.0
175
1
  7

176
1
177
1
178
1
143
1.0
179
1
  8

270
1
271
1
272
1
145
1.0
146
1.0
273
1
  9

274
1
275
1
276
1
 42
1.0
 72
1
  3

 73
1
 74
1
 75
1
 94
63
  0
MATERIAL
  5
21
102
{ACAD_REACTORS
330
E
102
}
330
E
100
AcDbMaterial
  1
Global
  2

 70
0
 40
1.0
 71
1
 41
1.0
 91
-1023410177
 42
1.0
 72
1
  3

 73
1
 74
1
 75
1
 44
0.5
 73
0
 45
1.0
 46
1.0
 77
1
  4

 78
1
 79
1
170
1
 48
1.0
171
1
  6

172
1
173
1
174
1
140
1.0
141
1.0
175
1
  7

176
1
177
1
178
1
143
1.0
179
1
  8

270
1
271
1
272
1
145
1.0
146
1.0
273
1
  9

274
1
275
1
276
1
 42
1.0
 72
1
  3

 73
1
 74
1
 75
1
 94
63
  0
MLINESTYLE
  5
22
102
{ACAD_REACTORS
330
10
102
}
330
10
100
AcDbMlineStyle
  2
Standard
 70
0
  3

 62
256
 51
90.0
 52
90.0
 71
2
 49
0.5
 62
256
  6
BYLAYER
 49
-0.5
 62
256
  6
BYLAYER
  0
MLEADERSTYLE
  5
2C
102
{ACAD_REACTORS
330
F
102
}
330
F
100
AcDbMLeaderStyle
179
2
170
2
171
1
172
0
 90
2
 40
0.0
 41
0.0
173
1
 91
-1056964608
 92
-2
290
1
 42
2.0
291
1
 43
8.0
  3
Standard
 44
4.0
300

342
29
174
1
175
1
176
0
178
1
 93
-1056964608
 45
4.0
292
0
297
0
 46
4.0
 94
-1056964608
 47
1.0
 49
1.0
140
1.0
294
1
141
0.0
177
0
142
1.0
295
0
296
0
143
3.75
271
0
272
9
273
9
  0
DICTIONARY
  5
2D
330
A
100
AcDbDictionary
280
1
281
1
  3
CREATED_BY_EZDXF
350
2E
  3
WRITTEN_BY_EZDXF
350
3D
  0
DICTIONARYVAR
  5
2E
330
2D
100
DictionaryVariables
280
0
  1
1.4.3 @ 2026-04-08T01:02:28.942317+00:00
  0
DICTIONARYVAR
  5
3D
330
2D
100
DictionaryVariables
280
0
  1
1.4.3 @ 2026-04-09T21:09:48.973666+00:00
  0
ENDSEC
  0
EOF
