  0
SECTION
  2
HEADER
  9
$ACADVER
  1
AC1024
  9
$ACADMAINTVER
 70
6
  9
$DWGCODEPAGE
  3
ANSI_1252
  9
$LASTSAVEDBY
  1
ezdxf
  9
$INSBASE
 10
0.0
 20
0.0
 30
0.0
  9
$EXTMIN
 10
1e+20
 20
1e+20
 30
1e+20
  9
$EXTMAX
 10
-1e+20
 20
-1e+20
 30
-1e+20
  9
$LIMMIN
 10
0.0
 20
0.0
  9
$LIMMAX
 10
420.0
 20
297.0
  9
$ORTHOMODE
 70
0
  9
$REGENMODE
 70
1
  9
$FILLMODE
 70
1
  9
$QTEXTMODE
 70
0
  9
$MIRRTEXT
 70
1
  9
$LTSCALE
 40
1.0
  9
$ATTMODE
 70
1
  9
$TEXTSIZE
 40
2.5
  9
$TRACEWID
 40
1.0
  9
$TEXTSTYLE
  7
Standard
  9
$CLAYER
  8
0
  9
$CELTYPE
  6
ByLayer
  9
$CECOLOR
 62
256
  9
$CELTSCALE
 40
1.0
  9
$DISPSILH
 70
0
  9
$DIMSCALE
 40
1.0
  9
$DIMASZ
 40
2.5
  9
$DIMEXO
 40
0.625
  9
$DIMDLI
 40
3.75
  9
$DIMRND
 40
0.0
  9
$DIMDLE
 40
0.0
  9
$DIMEXE
 40
1.25
  9
$DIMTP
 40
0.0
  9
$DIMTM
 40
0.0
  9
$DIMTXT
 40
2.5
  9
$DIMCEN
 40
2.5
  9
$DIMTSZ
 40
0.0
  9
$DIMTOL
 70
0
  9
$DIMLIM
 70
0
  9
$DIMTIH
 70
0
  9
$DIMTOH
 70
0
  9
$DIMSE1
 70
0
  9
$DIMSE2
 70
0
  9
$DIMTAD
 70
1
  9
$DIMZIN
 70
8
  9
$DIMBLK
  1

  9
$DIMASO
 70
1
  9
$DIMSHO
 70
1
  9
$DIMPOST
  1

  9
$DIMAPOST
  1

  9
$DIMALT
 70
0
  9
$DIMALTD
 70
3
  9
$DIMALTF
 40
0.03937007874
  9
$DIMLFAC
 40
1.0
  9
$DIMTOFL
 70
1
  9
$DIMTVP
 40
0.0
  9
$DIMTIX
 70
0
  9
$DIMSOXD
 70
0
  9
$DIMSAH
 70
0
  9
$DIMBLK1
  1

  9
$DIMBLK2
  1

  9
$DIMSTYLE
  2
ISO-25
  9
$DIMCLRD
 70
0
  9
$DIMCLRE
 70
0
  9
$DIMCLRT
 70
0
  9
$DIMTFAC
 40
1.0
  9
$DIMGAP
 40
0.625
  9
$DIMJUST
 70
0
  9
$DIMSD1
 70
0
  9
$DIMSD2
 70
0
  9
$DIMTOLJ
 70
0
  9
$DIMTZIN
 70
8
  9
$DIMALTZ
 70
0
  9
$DIMALTTZ
 70
0
  9
$DIMUPT
 70
0
  9
$DIMDEC
 70
2
  9
$DIMTDEC
 70
2
  9
$DIMALTU
 70
2
  9
$DIMALTTD
 70
3
  9
$DIMTXSTY
  7
Standard
  9
$DIMAUNIT
 70
0
  9
$DIMADEC
 70
0
  9
$DIMALTRND
 40
0.0
  9
$DIMAZIN
 70
0
  9
$DIMDSEP
 70
44
  9
$DIMATFIT
 70
3
  9
$DIMFRAC
 70
0
  9
$DIMLDRBLK
  1

  9
$DIMLUNIT
 70
2
  9
$DIMLWD
 70
-2
  9
$DIMLWE
 70
-2
  9
$DIMTMOVE
 70
0
  9
$DIMFXL
 40
1.0
  9
$DIMFXLON
 70
0
  9
$DIMJOGANG
 40
0.785398163397
  9
$DIMTFILL
 70
0
  9
$DIMTFILLCLR
 70
0
  9
$DIMARCSYM
 70
0
  9
$DIMLTYPE
  6

  9
$DIMLTEX1
  6

  9
$DIMLTEX2
  6

  9
$DIMTXTDIRECTION
 70
0
  9
$LUNITS
 70
2
  9
$LUPREC
 70
4
  9
$SKETCHINC
 40
1.0
  9
$FILLETRAD
 40
10.0
  9
$AUNITS
 70
0
  9
$AUPREC
 70
2
  9
$MENU
  1
.
  9
$ELEVATION
 40
0.0
  9
$PELEVATION
 40
0.0
  9
$THICKNESS
 40
0.0
  9
$LIMCHECK
 70
0
  9
$CHAMFERA
 40
0.0
  9
$CHAMFERB
 40
0.0
  9
$CHAMFERC
 40
0.0
  9
$CHAMFERD
 40
0.0
  9
$SKPOLY
 70
0
  9
$TDCREATE
 40
2461138.751712963
  9
$TDUCREATE
 40
2458532.153996898
  9
$TDUPDATE
 40
2461138.751712963
  9
$TDUUPDATE
 40
2458532.1544311
  9
$TDINDWG
 40
0.0
  9
$TDUSRTIMER
 40
0.0
  9
$USRTIMER
 70
1
  9
$ANGBASE
 50
0.0
  9
$ANGDIR
 70
0
  9
$PDMODE
 70
0
  9
$PDSIZE
 40
0.0
  9
$PLINEWID
 40
0.0
  9
$SPLFRAME
 70
0
  9
$SPLINETYPE
 70
6
  9
$SPLINESEGS
 70
8
  9
$HANDSEED
  5
3F
  9
$SURFTAB1
 70
6
  9
$SURFTAB2
 70
6
  9
$SURFTYPE
 70
6
  9
$SURFU
 70
6
  9
$SURFV
 70
6
  9
$UCSBASE
  2

  9
$UCSNAME
  2

  9
$UCSORG
 10
0.0
 20
0.0
 30
0.0
  9
$UCSXDIR
 10
1.0
 20
0.0
 30
0.0
  9
$UCSYDIR
 10
0.0
 20
1.0
 30
0.0
  9
$UCSORTHOREF
  2

  9
$UCSORTHOVIEW
 70
0
  9
$UCSORGTOP
 10
0.0
 20
0.0
 30
0.0
  9
$UCSORGBOTTOM
 10
0.0
 20
0.0
 30
0.0
  9
$UCSORGLEFT
 10
0.0
 20
0.0
 30
0.0
  9
$UCSORGRIGHT
 10
0.0
 20
0.0
 30
0.0
  9
$UCSORGFRONT
 10
0.0
 20
0.0
 30
0.0
  9
$UCSORGBACK
 10
0.0
 20
0.0
 30
0.0
  9
$PUCSBASE
  2

  9
$PUCSNAME
  2

  9
$PUCSORG
 10
0.0
 20
0.0
 30
0.0
  9
$PUCSXDIR
 10
1.0
 20
0.0
 30
0.0
  9
$PUCSYDIR
 10
0.0
 20
1.0
 30
0.0
  9
$PUCSORTHOREF
  2

  9
$PUCSORTHOVIEW
 70
0
  9
$PUCSORGTOP
 10
0.0
 20
0.0
 30
0.0
  9
$PUCSORGBOTTOM
 10
0.0
 20
0.0
 30
0.0
  9
$PUCSORGLEFT
 10
0.0
 20
0.0
 30
0.0
  9
$PUCSORGRIGHT
 10
0.0
 20
0.0
 30
0.0
  9
$PUCSORGFRONT
 10
0.0
 20
0.0
 30
0.0
  9
$PUCSORGBACK
 10
0.0
 20
0.0
 30
0.0
  9
$USERI1
 70
0
  9
$USERI2
 70
0
  9
$USERI3
 70
0
  9
$USERI4
 70
0
  9
$USERI5
 70
0
  9
$USERR1
 40
0.0
  9
$USERR2
 40
0.0
  9
$USERR3
 40
0.0
  9
$USERR4
 40
0.0
  9
$USERR5
 40
0.0
  9
$WORLDVIEW
 70
1
  9
$SHADEDGE
 70
3
  9
$SHADEDIF
 70
70
  9
$TILEMODE
 70
1
  9
$MAXACTVP
 70
64
  9
$PINSBASE
 10
0.0
 20
0.0
 30
0.0
  9
$PLIMCHECK
 70
0
  9
$PEXTMIN
 10
1e+20
 20
1e+20
 30
1e+20
  9
$PEXTMAX
 10
-1e+20
 20
-1e+20
 30
-1e+20
  9
$PLIMMIN
 10
0.0
 20
0.0
  9
$PLIMMAX
 10
420.0
 20
297.0
  9
$UNITMODE
 70
0
  9
$VISRETAIN
 70
1
  9
$PLINEGEN
 70
0
  9
$PSLTSCALE
 70
1
  9
$TREEDEPTH
 70
3020
  9
$CMLSTYLE
  2
Standard
  9
$CMLJUST
 70
0
  9
$CMLSCALE
 40
20.0
  9
$PROXYGRAPHICS
 70
1
  9
$MEASUREMENT
 70
1
  9
$CELWEIGHT
370
-1
  9
$ENDCAPS
280
0
  9
$JOINSTYLE
280
0
  9
$LWDISPLAY
290
0
  9
$INSUNITS
 70
6
  9
$HYPERLINKBASE
  1

  9
$STYLESHEET
  1

  9
$XEDIT
290
1
  9
$CEPSNTYPE
380
0
  9
$PSTYLEMODE
290
1
  9
$FINGERPRINTGUID
  2
{AFEBD286-7A9D-4A0B-8305-A681C96DF61A}
  9
$VERSIONGUID
  2
{4D9591FD-63A6-4F11-AA03-7710E526B32A}
  9
$EXTNAMES
290
1
  9
$PSVPSCALE
 40
0.0
  9
$OLESTARTUP
290
0
  9
$SORTENTS
280
127
  9
$INDEXCTL
280
0
  9
$HIDETEXT
280
1
  9
$XCLIPFRAME
280
1
  9
$HALOGAP
280
0
  9
$OBSCOLOR
 70
257
  9
$OBSLTYPE
280
0
  9
$INTERSECTIONDISPLAY
280
0
  9
$INTERSECTIONCOLOR
 70
257
  9
$DIMASSOC
280
2
  9
$PROJECTNAME
  1

  9
$CAMERADISPLAY
290
0
  9
$LENSLENGTH
 40
50.0
  9
$CAMERAHEIGHT
 40
0.0
  9
$STEPSPERSEC
 40
24.0
  9
$STEPSIZE
 40
100.0
  9
$3DDWFPREC
 40
2.0
  9
$PSOLWIDTH
 40
0.005
  9
$PSOLHEIGHT
 40
0.08
  9
$LOFTANG1
 40
1.570796326795
  9
$LOFTANG2
 40
1.570796326795
  9
$LOFTMAG1
 40
0.0
  9
$LOFTMAG2
 40
0.0
  9
$LOFTPARAM
 70
7
  9
$LOFTNORMALS
280
1
  9
$LATITUDE
 40
37.795
  9
$LONGITUDE
 40
-122.394
  9
$NORTHDIRECTION
 40
0.0
  9
$TIMEZONE
 70
-8000
  9
$LIGHTGLYPHDISPLAY
280
1
  9
$TILEMODELIGHTSYNCH
280
1
  9
$CMATERIAL
347
20
  9
$SOLIDHIST
280
0
  9
$SHOWHIST
280
1
  9
$DWFFRAME
280
2
  9
$DGNFRAME
280
2
  9
$REALWORLDSCALE
290
1
  9
$INTERFERECOLOR
 62
256
  9
$CSHADOW
280
0
  9
$SHADOWPLANELOCATION
 40
0.0
  0
ENDSEC
  0
SECTION
  2
CLASSES
  0
CLASS
  1
ACDBDICTIONARYWDFLT
  2
AcDbDictionaryWithDefault
  3
ObjectDBX Classes
 90
0
 91
0
280
0
281
0
  0
CLASS
  1
SUN
  2
AcDbSun
  3
SCENEOE
 90
1153
 91
0
280
0
281
0
  0
CLASS
  1
VISUALSTYLE
  2
AcDbVisualStyle
  3
ObjectDBX Classes
 90
4095
 91
0
280
0
281
0
  0
CLASS
  1
MATERIAL
  2
AcDbMaterial
  3
ObjectDBX Classes
 90
1153
 91
0
280
0
281
0
  0
CLASS
  1
SCALE
  2
AcDbScale
  3
ObjectDBX Classes
 90
1153
 91
0
280
0
281
0
  0
CLASS
  1
TABLESTYLE
  2
AcDbTableStyle
  3
ObjectDBX Classes
 90
4095
 91
0
280
0
281
0
  0
CLASS
  1
MLEADERSTYLE
  2
AcDbMLeaderStyle
  3
ACDB_MLEADERSTYLE_CLASS
 90
4095
 91
0
280
0
281
0
  0
CLASS
  1
DICTIONARYVAR
  2
AcDbDictionaryVar
  3
ObjectDBX Classes
 90
0
 91
0
280
0
281
0
  0
CLASS
  1
CELLSTYLEMAP
  2
AcDbCellStyleMap
  3
ObjectDBX Classes
 90
1152
 91
0
280
0
281
0
  0
CLASS
  1
MENTALRAYRENDERSETTINGS
  2
AcDbMentalRayRenderSettings
  3
SCENEOE
 90
1024
 91
0
280
0
281
0
  0
CLASS
  1
ACDBDETAILVIEWSTYLE
  2
AcDbDetailViewStyle
  3
ObjectDBX Classes
 90
1025
 91
0
280
0
281
0
  0
CLASS
  1
ACDBSECTIONVIEWSTYLE
  2
AcDbSectionViewStyle
  3
ObjectDBX Classes
 90
1025
 91
0
280
0
281
0
  0
CLASS
  1
RASTERVARIABLES
  2
AcDbRasterVariables
  3
ISM
 90
0
 91
0
280
0
281
0
  0
CLASS
  1
LAYOUT
  2
AcDbLayout
  3
ObjectDBX Classes
 90
0
 91
0
280
0
281
0
  0
CLASS
  1
ACDBPLACEHOLDER
  2
AcDbPlaceHolder
  3
ObjectDBX Classes
 90
0
 91
0
280
0
281
0
  0
ENDSEC
  0
SECTION
  2
TABLES
  0
TABLE
  2
VPORT
  5
8
330
0
100
AcDbSymbolTable
 70
1
  0
VPORT
  5
23
330
8
100
AcDbSymbolTableRecord
100
AcDbViewportTableRecord
  2
*Active
 70
0
 10
0.0
 20
0.0
 11
1.0
 21
1.0
 12
0.0
 22
0.0
 13
0.0
 23
0.0
 14
0.5
 24
0.5
 15
0.5
 25
0.5
 16
0.0
 26
0.0
 36
1.0
 17
0.0
 27
0.0
 37
0.0
 40
1000.0
 41
1.34
 42
50.0
 43
0.0
 44
0.0
 50
0.0
 51
0.0
 71
0
 72
1000
 73
1
 74
3
 75
0
 76
0
 77
0
 78
0
281
0
 65
0
146
0.0
  0
ENDTAB
  0
TABLE
  2
LTYPE
  5
2
330
0
100
AcDbSymbolTable
 70
3
  0
LTYPE
  5
24
330
2
100
AcDbSymbolTableRecord
100
AcDbLinetypeTableRecord
  2
ByBlock
 70
0
  3

 72
65
 73
0
 40
0.0
  0
LTYPE
  5
25
330
2
100
AcDbSymbolTableRecord
100
AcDbLinetypeTableRecord
  2
ByLayer
 70
0
  3

 72
65
 73
0
 40
0.0
  0
LTYPE
  5
26
330
2
100
AcDbSymbolTableRecord
100
AcDbLinetypeTableRecord
  2
Continuous
 70
0
  3

 72
65
 73
0
 40
0.0
  0
ENDTAB
  0
TABLE
  2
LAYER
  5
1
330
0
100
AcDbSymbolTable
 70
2
  0
LAYER
  5
27
330
1
100
AcDbSymbolTableRecord
100
AcDbLayerTableRecord
  2
0
 70
0
 62
7
  6
Continuous
370
-3
390
13
347
21
  0
LAYER
  5
28
330
1
100
AcDbSymbolTableRecord
100
AcDbLayerTableRecord
  2
Defpoints
 70
0
 62
7
  6
Continuous
290
0
370
-3
390
13
347
21
  0
ENDTAB
  0
TABLE
  2
STYLE
  5
5
330
0
100
AcDbSymbolTable
 70
1
  0
STYLE
  5
29
330
5
100
AcDbSymbolTableRecord
100
AcDbTextStyleTableRecord
  2
Standard
 70
0
 40
0.0
 41
1.0
 50
0.0
 71
0
 42
2.5
  3
txt
  4

  0
ENDTAB
  0
TABLE
  2
VIEW
  5
7
330
0
100
AcDbSymbolTable
 70
0
  0
ENDTAB
  0
TABLE
  2
UCS
  5
6
330
0
100
AcDbSymbolTable
 70
0
  0
ENDTAB
  0
TABLE
  2
APPID
  5
3
330
0
100
AcDbSymbolTable
 70
3
  0
APPID
  5
2A
330
3
100
AcDbSymbolTableRecord
100
AcDbRegAppTableRecord
  2
ACAD
 70
0
  0
APPID
  5
3C
330
3
100
AcDbSymbolTableRecord
100
AcDbRegAppTableRecord
  2
HATCHBACKGROUNDCOLOR
 70
0
  0
APPID
  5
3D
330
3
100
AcDbSymbolTableRecord
100
AcDbRegAppTableRecord
  2
EZDXF
 70
0
  0
ENDTAB
  0
TABLE
  2
DIMSTYLE
  5
4
330
0
100
AcDbSymbolTable
 70
1
100
AcDbDimStyleTable
  0
DIMSTYLE
105
2B
330
4
100
AcDbSymbolTableRecord
100
AcDbDimStyleTableRecord
  2
Standard
 70
0
 40
1.0
 41
2.5
 42
0.625
 43
3.75
 44
1.25
 45
0.0
 46
0.0
 47
0.0
 48
0.0
 49
2.5
140
2.5
141
2.5
142
0.0
143
0.03937007874
144
1.0
145
0.0
146
1.0
147
0.625
148
0.0
 69
0
 70
0
 71
0
 72
0
 73
0
 74
0
 75
0
 76
0
 77
1
 78
8
 79
3
170
0
171
3
172
1
173
0
174
0
175
0
176
0
177
0
178
0
179
2
271
2
272
2
273
2
274
3
275
0
276
0
277
2
278
44
279
0
280
0
281
0
282
0
283
0
284
8
285
0
286
0
288
0
289
3
290
0
371
-2
372
-2
  0
ENDTAB
  0
TABLE
  2
BLOCK_RECORD
  5
9
330
0
100
AcDbSymbolTable
 70
2
  0
BLOCK_RECORD
  5
17
330
9
100
AcDbSymbolTableRecord
100
AcDbBlockTableRecord
  2
*Model_Space
340
1A
 70
0
280
1
281
0
  0
BLOCK_RECORD
  5
1B
330
9
100
AcDbSymbolTableRecord
100
AcDbBlockTableRecord
  2
*Paper_Space
340
1E
 70
0
280
1
281
0
  0
ENDTAB
  0
ENDSEC
  0
SECTION
  2
BLOCKS
  0
BLOCK
  5
18
330
17
100
AcDbEntity
  8
0
100
AcDbBlockBegin
  2
*Model_Space
 70
0
 10
0.0
 20
0.0
 30
0.0
  3
*Model_Space
  1

  0
ENDBLK
  5
19
330
17
100
AcDbEntity
  8
0
100
AcDbBlockEnd
  0
BLOCK
  5
1C
330
1B
100
AcDbEntity
  8
0
100
AcDbBlockBegin
  2
*Paper_Space
 70
0
 10
0.0
 20
0.0
 30
0.0
  3
*Paper_Space
  1

  0
ENDBLK
  5
1D
330
1B
100
AcDbEntity
  8
0
100
AcDbBlockEnd
  0
ENDSEC
  0
SECTION
  2
ENTITIES
  0
LWPOLYLINE
  5
2F
330
17
100
AcDbEntity
  8
0
100
AcDbPolyline
 90
13
 70
0
 10
90.274394
 20
-86.30284999999999
 10
92.42272600000001
 20
-85.612732
 10
98.27514000000001
 20
-84.35975
 10
102.31272400000002
 20
-83.90509
 10
106.94289
 20
-83.76919999999998
 10
112.05464
 20
-84.10524199999999
 10
117.53697600000001
 20
-85.06637799999999
 10
144.034002
 20
-152.01544399999997
 10
142.30705600000002
 20
-152.751536
 10
136.71042
 20
-154.37078599999998
 10
126.62027
 20
-155.99003599999998
 10
111.413036
 20
-156.726128
 10
90.274394
 20
-86.30284999999998
  0
LWPOLYLINE
  5
30
330
17
100
AcDbEntity
  8
0
100
AcDbPolyline
 90
69
 70
0
 10
16.936212
 20
-77.70317199999998
 10
50.072798
 20
-77.70317199999998
 10
51.044348
 20
-76.88529199999996
 10
51.190397999999995
 20
-76.78140599999998
 10
51.345338
 20
-76.69301399999996
 10
51.507644
 20
-76.62036999999997
 10
51.676553999999996
 20
-76.56423599999997
 10
51.850544
 20
-76.52486599999997
 10
52.028344
 20
-76.50276799999997
 10
54.523386
 20
-76.51775399999998
 10
55.020717999999995
 20
-77.70317199999998
 10
65.83299
 20
-77.70317199999998
 10
66.125344
 20
-77.67116799999998
 10
66.40703
 20
-77.66253199999998
 10
66.933318
 20
-77.703172
 10
86.98687199999999
 20
-77.703172
 10
82.70620999999998
 20
-61.544961999999984
 10
82.70620999999998
 20
-61.544707999999986
 10
82.70620999999998
 20
-61.54445399999998
 10
82.70620999999998
 20
-61.54419999999998
 10
82.70620999999998
 20
-61.543945999999984
 10
82.70620999999998
 20
-61.54369199999998
 10
82.705956
 20
-61.54369199999998
 10
82.705702
 20
-61.54369199999998
 10
82.705448
 20
-61.54369199999998
 10
82.70519400000002
 20
-61.54369199999998
 10
82.70494000000002
 20
-61.54369199999998
 10
82.70468600000002
 20
-61.54369199999998
 10
82.70443200000003
 20
-61.54369199999998
 10
62.823598000000025
 20
-61.54496199999998
 10
62.79896000000002
 20
-61.54877199999998
 10
62.77508400000003
 20
-61.55486799999998
 10
62.75222400000003
 20
-61.563249999999975
 10
62.730380000000025
 20
-61.57366399999997
 10
62.70980600000002
 20
-61.58610999999997
 10
62.69075600000003
 20
-61.600587999999966
 10
62.67297600000003
 20
-61.61658999999997
 10
62.656974000000034
 20
-61.63436999999997
 10
62.64275000000003
 20
-61.65367399999997
 10
62.63030400000003
 20
-61.67424799999996
 10
62.61989000000003
 20
-61.696091999999965
 10
62.61150800000003
 20
-61.718951999999966
 10
62.60541200000003
 20
-61.74282799999996
 10
62.601856000000026
 20
-61.76746599999996
 10
62.63081200000003
 20
-68.87286199999997
 10
62.63005000000003
 20
-68.87844999999996
 10
62.628780000000035
 20
-68.88378399999996
 10
62.62700200000003
 20
-68.88911799999997
 10
62.624716000000035
 20
-68.89419799999996
 10
62.62217600000004
 20
-68.89902399999997
 10
62.61912800000004
 20
-68.90359599999996
 10
62.61582600000004
 20
-68.90791399999996
 10
62.61201600000004
 20
-68.91172399999995
 10
62.60795200000005
 20
-68.91527999999995
 10
62.60363400000004
 20
-68.91832799999996
 10
62.599062000000046
 20
-68.92112199999997
 10
62.59398200000004
 20
-68.92340799999997
 10
62.58864800000005
 20
-68.92543999999997
 10
62.58331400000005
 20
-68.92696399999996
 10
58.21553000000005
 20
-69.44436199999994
 10
20.360132000000046
 20
-69.17486799999995
 10
18.41982600000005
 20
-69.39914999999995
 10
16.62760200000005
 20
-69.43648799999994
 10
15.01749600000005
 20
-69.33539599999995
 10
12.48003600000005
 20
-68.91146999999995
 10
11.08049600000005
 20
-68.51421399999994
 10
10.89279000000005
 20
-68.44639599999994
 10
10.89279000000005
 20
-74.53502999999994
 10
16.93697400000005
 20
-77.70342599999994
  0
LWPOLYLINE
  5
31
330
17
100
AcDbEntity
  8
0
100
AcDbPolyline
 90
38
 70
0
 10
63.166244000000056
 20
-80.92617799999994
 10
63.39128800000005
 20
-80.70697599999994
 10
63.63182600000005
 20
-80.50987199999993
 10
63.886334000000055
 20
-80.33537399999993
 10
64.15303400000006
 20
-80.18398999999992
 10
64.43040200000006
 20
-80.05622799999993
 10
64.71691400000006
 20
-79.95234199999993
 10
65.01104600000005
 20
-79.87283999999994
 10
65.31127400000005
 20
-79.81797599999993
 10
65.31127400000005
 20
-78.52968799999994
 10
18.005806000000053
 20
-78.34045799999994
 10
18.005806000000053
 20
-83.54745799999993
 10
44.68241000000005
 20
-83.65235999999993
 10
45.15662800000005
 20
-83.70138199999994
 10
47.025052000000045
 20
-84.08187399999993
 10
48.61356800000004
 20
-84.59901799999993
 10
49.931828000000046
 20
-85.19490199999993
 10
50.98923000000004
 20
-85.81186799999992
 10
51.79517200000004
 20
-86.39225799999993
 10
52.35905200000005
 20
-86.87815999999994
 10
52.798726000000045
 20
-87.33612199999993
 10
65.06819600000004
 20
-87.33612199999993
 10
63.255398000000035
 20
-85.95893399999993
 10
62.987682000000035
 20
-85.68105799999992
 10
62.75705000000004
 20
-85.38209999999992
 10
62.56375600000004
 20
-85.06510799999992
 10
62.40754600000004
 20
-84.73287599999993
 10
62.28867400000004
 20
-84.38845199999993
 10
62.207140000000045
 20
-84.03488399999993
 10
62.163198000000044
 20
-83.67496599999994
 10
62.15659400000004
 20
-83.31174599999993
 10
62.18758200000004
 20
-82.94827199999995
 10
62.256162000000046
 20
-82.58733799999995
 10
62.36258800000005
 20
-82.23199199999993
 10
62.50660600000005
 20
-81.88528199999993
 10
62.68847000000005
 20
-81.55025599999993
 10
62.90818000000006
 20
-81.22970799999993
 10
63.16573600000006
 20
-80.92643199999993
  0
LWPOLYLINE
  5
32
330
17
100
AcDbEntity
  8
0
100
AcDbPolyline
 90
34
 70
0
 10
74.95616200000006
 20
-80.80832199999993
 10
65.31127400000007
 20
-80.50199799999993
 10
65.19926000000007
 20
-80.53222399999994
 10
64.90512800000008
 20
-80.63433199999993
 10
64.49288600000008
 20
-80.82483199999993
 10
64.26225400000008
 20
-80.95868999999993
 10
64.02578000000008
 20
-81.12099599999993
 10
63.79159200000008
 20
-81.31378199999993
 10
63.567564000000075
 20
-81.53907999999994
 10
63.36157000000008
 20
-81.79917599999995
 10
63.181738000000074
 20
-82.09610199999993
 10
63.03594200000008
 20
-82.43214399999992
 10
62.97828400000007
 20
-82.61553199999993
 10
62.932056000000074
 20
-82.80933399999992
 10
62.877954000000074
 20
-83.22944999999991
 10
62.881764000000075
 20
-83.69503199999993
 10
62.94526400000007
 20
-84.15299399999992
 10
62.99657200000007
 20
-84.35974999999993
 10
63.05956400000007
 20
-84.55228199999992
 10
63.13347800000007
 20
-84.73109799999993
 10
63.21729800000007
 20
-84.89670599999992
 10
63.310008000000074
 20
-85.04961399999992
 10
63.41059200000007
 20
-85.1903299999999
 10
63.51828800000008
 20
-85.3193619999999
 10
63.750952000000076
 20
-85.54440599999991
 10
64.00038000000008
 20
-85.72880999999991
 10
64.25895200000008
 20
-85.87663799999991
 10
64.51904800000007
 20
-85.99195399999991
 10
64.77304800000007
 20
-86.0788219999999
 10
65.23278800000007
 20
-86.18296199999992
 10
65.57746600000009
 20
-86.22131599999992
 10
65.74663000000008
 20
-86.22639599999991
 10
75.14412200000008
 20
-85.6594679999999
 10
74.95692400000007
 20
-80.80806799999989
  0
LWPOLYLINE
  5
33
330
17
100
AcDbEntity
  8
0
100
AcDbPolyline
 90
77
 70
0
 10
89.85504000000007
 20
-86.5741219999999
 10
87.53348000000007
 20
-86.37092199999991
 10
77.29931200000009
 20
-86.63787599999989
 10
77.36128800000009
 20
-86.98306199999989
 10
77.39608600000008
 20
-87.3356139999999
 10
80.66633600000009
 20
-87.7859559999999
 10
82.26577400000009
 20
-88.1349519999999
 10
83.78825000000009
 20
-88.59545399999989
 10
85.19414000000009
 20
-89.1893059999999
 10
85.8408240000001
 20
-89.5431279999999
 10
86.44356600000009
 20
-89.9386059999999
 10
86.99728600000009
 20
-90.3782799999999
 10
87.49690400000009
 20
-90.8649439999999
 10
87.93734000000008
 20
-91.4013919999999
 10
88.31402200000008
 20
-91.9901639999999
 10
88.84234200000007
 20
-93.0681399999999
 10
89.22207200000008
 20
-94.11385799999991
 10
89.46870600000008
 20
-95.12198399999991
 10
89.59824600000007
 20
-96.08769199999992
 10
89.62644000000007
 20
-97.00564799999991
 10
89.56903600000008
 20
-97.87077199999992
 10
89.44203600000007
 20
-98.67772999999991
 10
89.26118800000008
 20
-99.42169599999991
 10
88.80119400000008
 20
-100.69956999999991
 10
88.31580000000008
 20
-101.6632459999999
 10
87.93175200000009
 20
-102.2715759999999
 10
87.77554200000009
 20
-102.4834119999999
 10
87.81897600000008
 20
-103.11409399999991
 10
88.06891200000008
 20
-102.89895599999991
 10
88.34221600000008
 20
-102.7061699999999
 10
88.63863400000008
 20
-102.5375139999999
 10
88.95816600000008
 20
-102.39501999999992
 10
89.30106600000008
 20
-102.28071999999992
 10
89.66708000000007
 20
-102.19664599999992
 10
90.05646200000007
 20
-102.14482999999991
 10
90.46895800000007
 20
-102.12704999999991
 10
90.93835000000009
 20
-102.14965599999991
 10
91.37726200000009
 20
-102.21594999999992
 10
91.78594800000008
 20
-102.32262999999992
 10
92.16415400000007
 20
-102.46715599999993
 10
92.51213400000007
 20
-102.64647999999993
 10
92.82963400000007
 20
-102.85755399999994
 10
93.11690800000007
 20
-103.09783799999994
 10
93.37370200000008
 20
-103.36402999999994
 10
93.60027000000007
 20
-103.65358999999994
 10
93.79635800000007
 20
-103.96346999999994
 10
93.96222000000007
 20
-104.29062199999994
 10
94.09785600000008
 20
-104.63225199999995
 10
94.20301200000007
 20
-104.98556599999996
 10
94.27794200000007
 20
-105.34751599999996
 10
94.32264600000008
 20
-105.71530799999996
 10
94.33712400000007
 20
-106.08589399999995
 10
94.32137600000007
 20
-106.45647999999996
 10
94.27514800000007
 20
-106.82427199999995
 10
94.19869400000007
 20
-107.18622199999996
 10
94.09201400000006
 20
-107.53953599999996
 10
93.95510800000007
 20
-107.88116599999996
 10
93.78797600000007
 20
-108.20831799999998
 10
93.59061800000006
 20
-108.51819799999998
 10
93.36328800000007
 20
-108.80775799999998
 10
93.10573200000007
 20
-109.07394999999998
 10
92.81795000000008
 20
-109.31423399999998
 10
92.49994200000008
 20
-109.52530799999998
 10
92.15170800000008
 20
-109.70463199999999
 10
91.77350200000008
 20
-109.84915799999999
 10
91.36507000000009
 20
-109.955838
 10
90.92641200000008
 20
-110.022132
 10
90.37650200000009
 20
-110.043722
 10
90.09456200000008
 20
-110.027212
 10
91.20809800000009
 20
-110.475014
 10
92.25203800000008
 20
-110.99368199999999
 10
94.1293520000001
 20
-112.18875199999998
 10
95.72421800000009
 20
-113.50218599999998
 10
97.0343500000001
 20
-114.82374799999998
 10
98.79126800000009
 20
-117.05081999999999
 10
99.38105600000009
 20
-117.98909599999999
 10
89.85554800000008
 20
-86.57513799999998
  0
LWPOLYLINE
  5
34
330
17
100
AcDbEntity
  8
0
100
AcDbPolyline
 90
22
 70
0
 10
61.597032000000084
 20
-90.15374399999997
 10
51.16398200000008
 20
-90.15374399999997
 10
51.69535000000009
 20
-90.63812199999998
 10
52.24399000000009
 20
-91.21419399999996
 10
52.87822800000009
 20
-91.98660799999998
 10
53.5213560000001
 20
-92.93580599999997
 10
54.096158000000095
 20
-94.04197599999998
 10
54.333902000000094
 20
-94.64776599999998
 10
54.525418000000094
 20
-95.28555999999999
 10
54.66130800000009
 20
-95.95281799999998
 10
54.731920000000095
 20
-96.64725399999998
 10
55.24576200000009
 20
-95.67062399999998
 10
56.67425800000009
 20
-93.50197199999997
 10
57.67857400000009
 20
-92.32722199999998
 10
58.24397800000009
 20
-91.77959799999996
 10
58.84799000000009
 20
-91.28251999999998
 10
59.48807000000009
 20
-90.85351399999996
 10
60.161424000000096
 20
-90.51061399999996
 10
60.509658000000094
 20
-90.37700999999996
 10
60.8652580000001
 20
-90.27159999999995
 10
61.2279700000001
 20
-90.19641599999996
 10
61.597286000000096
 20
-90.15399799999996
  0
LWPOLYLINE
  5
35
330
17
100
AcDbEntity
  8
0
100
AcDbPolyline
 90
28
 70
0
 10
112.73002600000011
 20
-60.98362199999996
 10
117.3208220000001
 20
-78.00162199999997
 10
120.45416600000011
 20
-78.00162199999997
 10
121.68174800000013
 20
-75.90688399999996
 10
121.75744000000012
 20
-75.81010999999997
 10
121.84075200000011
 20
-75.72273399999997
 10
121.93066800000011
 20
-75.64475599999996
 10
122.02668000000011
 20
-75.57642999999996
 10
122.1280260000001
 20
-75.51800999999996
 10
122.23369000000011
 20
-75.46949599999996
 10
122.3429100000001
 20
-75.43114199999997
 10
122.4551780000001
 20
-75.40320199999995
 10
122.5694780000001
 20
-75.38567599999995
 10
122.68504800000011
 20
-75.37881799999995
 10
122.8011260000001
 20
-75.38262799999995
 10
122.9169500000001
 20
-75.39735999999995
 10
123.03175800000011
 20
-75.42326799999995
 10
123.1447880000001
 20
-75.46035199999994
 10
123.2552780000001
 20
-75.50886599999994
 10
123.36246600000011
 20
-75.56906399999995
 10
127.05105400000011
 20
-78.00136799999996
 10
132.0906680000001
 20
-78.00136799999996
 10
132.0258980000001
 20
-75.83754199999996
 10
131.4617640000001
 20
-72.02500199999996
 10
130.0622240000001
 20
-66.97090999999995
 10
128.9441160000001
 20
-64.10578999999994
 10
127.4912360000001
 20
-61.08293599999995
 10
112.72951800000008
 20
-60.98336799999995
  0
LWPOLYLINE
  5
36
330
17
100
AcDbEntity
  8
0
100
AcDbPolyline
 90
22
 70
0
 10
121.08230800000008
 20
-92.76333999999996
 10
121.60732600000009
 20
-93.60484199999995
 10
122.2593440000001
 20
-94.44177199999996
 10
123.16739400000009
 20
-95.36531599999996
 10
123.71654200000009
 20
-95.81464199999996
 10
124.32868200000009
 20
-96.23196399999995
 10
125.0033060000001
 20
-96.59924799999996
 10
125.74016000000009
 20
-96.89845999999996
 10
126.53899000000008
 20
-97.11181999999995
 10
127.39954200000008
 20
-97.22154799999996
 10
127.85267800000008
 20
-97.23196199999995
 10
128.3210540000001
 20
-97.20960999999996
 10
129.3035260000001
 20
-97.05797199999995
 10
129.1574760000001
 20
-97.24491599999996
 10
128.7922240000001
 20
-97.81768599999995
 10
128.3169900000001
 20
-98.79355399999994
 10
127.84124800000009
 20
-100.19029999999995
 10
127.47396400000008
 20
-102.02570399999996
 10
127.32486600000009
 20
-104.31703799999995
 10
127.50292000000009
 20
-107.08208199999997
 10
128.11785400000008
 20
-110.33836199999996
 10
121.08230800000008
 20
-92.76257799999998
  0
LWPOLYLINE
  5
37
330
17
100
AcDbEntity
  8
0
100
AcDbPolyline
 90
21
 70
0
 10
77.39278400000009
 20
-110.80902399999997
 10
78.08696600000009
 20
-110.50752599999996
 10
79.7239960000001
 20
-109.60607999999996
 10
80.6874180000001
 20
-108.93196399999997
 10
81.63610800000009
 20
-108.11001999999998
 10
82.0788300000001
 20
-107.64367599999997
 10
82.48675400000009
 20
-107.14050199999997
 10
82.84921200000011
 20
-106.60075199999997
 10
83.1557900000001
 20
-106.02442599999996
 10
83.1291200000001
 20
-106.56442999999996
 10
83.1575680000001
 20
-107.15116999999996
 10
83.2688200000001
 20
-107.87075199999997
 10
83.3683880000001
 20
-108.26191199999998
 10
83.5042780000001
 20
-108.66424799999997
 10
83.68131600000011
 20
-109.07039399999998
 10
83.9048360000001
 20
-109.47298399999997
 10
84.17991800000011
 20
-109.86439799999997
 10
84.51189600000012
 20
-110.23752399999996
 10
84.90559600000012
 20
-110.58499599999996
 10
85.36635200000012
 20
-110.89970199999996
 10
77.39227600000012
 20
-110.80902399999995
  0
LWPOLYLINE
  5
38
330
17
100
AcDbEntity
  8
0
100
AcDbPolyline
 90
39
 70
0
 10
128.02920800000012
 20
-80.93989399999995
 10
128.18237000000013
 20
-80.94598999999995
 10
128.32715000000013
 20
-80.96376999999995
 10
128.46354800000012
 20
-80.99272599999995
 10
128.5913100000001
 20
-81.03209599999994
 10
128.7106900000001
 20
-81.08111799999993
 10
128.82168800000014
 20
-81.13928399999993
 10
128.92430400000012
 20
-81.20583199999993
 10
129.01853800000012
 20
-81.28025399999994
 10
129.10439000000014
 20
-81.36178799999995
 10
129.1818600000001
 20
-81.44967199999995
 10
129.25094800000014
 20
-81.54339799999995
 10
129.31165400000012
 20
-81.64220399999995
 10
129.36397800000012
 20
-81.74558199999996
 10
129.40792000000013
 20
-81.85251599999995
 10
129.44373400000012
 20
-81.96275199999995
 10
129.47116600000012
 20
-82.07552799999996
 10
135.1071720000001
 20
-83.75421399999995
 10
136.59662800000012
 20
-84.01481799999996
 10
136.00887200000014
 20
-83.71865399999996
 10
135.38758800000014
 20
-83.34527399999995
 10
134.64844800000014
 20
-82.81873199999995
 10
133.86739800000012
 20
-82.13699599999995
 10
133.48462000000015
 20
-81.73719999999994
 10
133.11962200000013
 20
-81.29777999999995
 10
132.7818020000001
 20
-80.81848199999995
 10
132.48081200000013
 20
-80.29905199999993
 10
132.22579600000014
 20
-79.73923599999993
 10
132.02640600000015
 20
-79.13877999999994
 10
121.79579400000014
 20
-79.13877999999994
 10
127.10998200000014
 20
-81.22691399999994
 10
127.20091400000014
 20
-81.16417599999994
 10
127.29870400000014
 20
-81.10804199999994
 10
127.40335200000014
 20
-81.05901999999995
 10
127.51485800000015
 20
-81.01761799999994
 10
127.63322200000015
 20
-80.98459799999993
 10
127.75844400000014
 20
-80.96046799999993
 10
127.89077800000015
 20
-80.94548199999993
 10
128.02997000000013
 20
-80.94040199999993
  0
LWPOLYLINE
  5
39
330
17
100
AcDbEntity
  8
0
100
AcDbPolyline
 90
65
 70
0
 10
109.36401800000014
 20
-92.81794999999993
 10
109.34801600000016
 20
-93.13570399999993
 10
109.30102600000015
 20
-93.44431399999992
 10
109.22431800000014
 20
-93.74225599999993
 10
109.11967000000016
 20
-94.02800599999992
 10
108.98886000000016
 20
-94.29978599999991
 10
108.83315800000015
 20
-94.55607199999992
 10
108.65408800000016
 20
-94.79533999999992
 10
108.45342800000016
 20
-95.01606599999994
 10
108.23270200000015
 20
-95.21672599999994
 10
107.99343400000015
 20
-95.39579599999993
 10
107.73714800000015
 20
-95.55149799999994
 10
107.46536800000014
 20
-95.68230799999994
 10
107.17987200000013
 20
-95.78695599999992
 10
106.88193000000014
 20
-95.86366399999993
 10
106.57332000000014
 20
-95.91065399999992
 10
106.25556600000014
 20
-95.92665599999992
 10
105.93781200000015
 20
-95.91065399999992
 10
105.62920200000016
 20
-95.86366399999993
 10
105.33126000000016
 20
-95.78695599999992
 10
105.04551000000016
 20
-95.68230799999994
 10
104.77373000000016
 20
-95.55149799999994
 10
104.51744400000015
 20
-95.39579599999993
 10
104.27817600000016
 20
-95.21672599999994
 10
104.05745000000014
 20
-95.01606599999994
 10
103.85679000000015
 20
-94.79533999999992
 10
103.67772000000015
 20
-94.55607199999992
 10
103.52201800000014
 20
-94.29978599999991
 10
103.39120800000015
 20
-94.02800599999992
 10
103.28656000000015
 20
-93.74225599999993
 10
103.20985200000015
 20
-93.44431399999992
 10
103.16286200000015
 20
-93.13570399999993
 10
103.14686000000016
 20
-92.81794999999993
 10
103.16286200000015
 20
-92.50019599999993
 10
103.20985200000015
 20
-92.19158599999994
 10
103.28656000000015
 20
-91.89364399999994
 10
103.39120800000015
 20
-91.60789399999994
 10
103.52201800000014
 20
-91.33611399999995
 10
103.67772000000015
 20
-91.07982799999994
 10
103.85679000000015
 20
-90.84055999999994
 10
104.05745000000014
 20
-90.61983399999993
 10
104.27817600000016
 20
-90.41917399999993
 10
104.51744400000015
 20
-90.24010399999993
 10
104.77373000000016
 20
-90.08440199999993
 10
105.04551000000016
 20
-89.95359199999993
 10
105.33126000000016
 20
-89.84894399999995
 10
105.62920200000016
 20
-89.77223599999994
 10
105.93781200000015
 20
-89.72524599999994
 10
106.25556600000014
 20
-89.70924399999994
 10
106.57332000000014
 20
-89.72524599999994
 10
106.88193000000014
 20
-89.77223599999994
 10
107.17987200000013
 20
-89.84894399999995
 10
107.46536800000014
 20
-89.95359199999993
 10
107.73714800000015
 20
-90.08440199999993
 10
107.99343400000015
 20
-90.24010399999993
 10
108.23270200000015
 20
-90.41917399999993
 10
108.45342800000016
 20
-90.61983399999993
 10
108.65408800000016
 20
-90.84055999999994
 10
108.83315800000015
 20
-91.07982799999994
 10
108.98886000000016
 20
-91.33611399999995
 10
109.11967000000016
 20
-91.60789399999994
 10
109.22431800000014
 20
-91.89364399999994
 10
109.30102600000015
 20
-92.19158599999994
 10
109.34801600000016
 20
-92.50019599999993
 10
109.36401800000014
 20
-92.81794999999993
  0
LWPOLYLINE
  5
3A
330
17
100
AcDbEntity
  8
0
100
AcDbPolyline
 90
65
 70
0
 10
128.64312600000014
 20
-144.76907799999995
 10
128.62712400000015
 20
-145.08683199999993
 10
128.58013400000016
 20
-145.39544199999995
 10
128.50342600000013
 20
-145.69338399999995
 10
128.39877800000014
 20
-145.97913399999996
 10
128.26796800000014
 20
-146.25091399999997
 10
128.11226600000015
 20
-146.50719999999995
 10
127.93319600000015
 20
-146.74646799999996
 10
127.73253600000015
 20
-146.96719399999998
 10
127.51181000000014
 20
-147.16785399999995
 10
127.27254200000014
 20
-147.34692399999997
 10
127.01625600000014
 20
-147.502626
 10
126.74447600000013
 20
-147.633436
 10
126.45872600000014
 20
-147.738084
 10
126.16078400000013
 20
-147.81479199999998
 10
125.85217400000015
 20
-147.86178199999998
 10
125.53442000000015
 20
-147.877784
 10
125.21666600000016
 20
-147.86178199999998
 10
124.90805600000016
 20
-147.81479199999998
 10
124.61011400000017
 20
-147.738084
 10
124.32436400000016
 20
-147.633436
 10
124.05258400000017
 20
-147.502626
 10
123.79629800000016
 20
-147.34692399999997
 10
123.55703000000015
 20
-147.16785399999995
 10
123.33630400000015
 20
-146.96719399999998
 10
123.13564400000014
 20
-146.74646799999996
 10
122.95657400000015
 20
-146.50719999999995
 10
122.80087200000015
 20
-146.25091399999997
 10
122.67006200000016
 20
-145.97913399999996
 10
122.56541400000016
 20
-145.69338399999995
 10
122.48870600000015
 20
-145.39544199999995
 10
122.44171600000016
 20
-145.08683199999993
 10
122.42571400000016
 20
-144.76907799999995
 10
122.44171600000016
 20
-144.45132399999994
 10
122.48870600000015
 20
-144.14271399999993
 10
122.56541400000016
 20
-143.84477199999995
 10
122.67006200000016
 20
-143.55902199999994
 10
122.80087200000015
 20
-143.28724199999994
 10
122.95657400000015
 20
-143.03095599999992
 10
123.13564400000014
 20
-142.7916879999999
 10
123.33630400000015
 20
-142.57096199999992
 10
123.55703000000015
 20
-142.37030199999992
 10
123.79629800000016
 20
-142.1912319999999
 10
124.05258400000017
 20
-142.0355299999999
 10
124.32436400000016
 20
-141.9047199999999
 10
124.61011400000017
 20
-141.8000719999999
 10
124.90805600000016
 20
-141.7233639999999
 10
125.21666600000016
 20
-141.6763739999999
 10
125.53442000000015
 20
-141.6603719999999
 10
125.85217400000015
 20
-141.6763739999999
 10
126.16078400000013
 20
-141.7233639999999
 10
126.45872600000014
 20
-141.8000719999999
 10
126.74447600000013
 20
-141.9047199999999
 10
127.01625600000014
 20
-142.0355299999999
 10
127.27254200000014
 20
-142.1912319999999
 10
127.51181000000014
 20
-142.37030199999992
 10
127.73253600000015
 20
-142.57096199999992
 10
127.93319600000015
 20
-142.7916879999999
 10
128.11226600000015
 20
-143.03095599999992
 10
128.26796800000014
 20
-143.28724199999994
 10
128.39877800000014
 20
-143.55902199999994
 10
128.50342600000013
 20
-143.84477199999995
 10
128.58013400000016
 20
-144.14271399999993
 10
128.62712400000015
 20
-144.45132399999994
 10
128.64312600000014
 20
-144.76907799999995
  0
LWPOLYLINE
  5
3B
330
17
100
AcDbEntity
  8
0
100
AcDbPolyline
 90
98
 70
0
 10
133.63295600000015
 20
-84.70493599999993
 10
128.29692400000016
 20
-83.23275199999993
 10
129.10362800000016
 20
-83.90153399999994
 10
129.17728800000017
 20
-83.97697199999995
 10
129.24383600000016
 20
-84.05723599999993
 10
129.30327200000016
 20
-84.14181799999994
 10
129.35534200000015
 20
-84.23020999999994
 10
129.40004600000015
 20
-84.32190399999995
 10
129.43713000000017
 20
-84.41639199999995
 10
129.46659400000016
 20
-84.51341999999995
 10
129.48843800000014
 20
-84.61222599999995
 10
129.50240800000014
 20
-84.71255599999995
 10
129.50850400000016
 20
-84.81364799999996
 10
129.50672600000016
 20
-84.91524799999995
 10
129.49682000000016
 20
-85.01659399999994
 10
129.47878600000016
 20
-85.11743199999995
 10
129.45237000000014
 20
-85.21725399999994
 10
129.41757200000015
 20
-85.31529799999994
 10
129.04317600000016
 20
-86.01455999999995
 10
128.59816800000016
 20
-86.66378399999994
 10
128.15874800000014
 20
-87.15527399999993
 10
127.94437200000016
 20
-87.34856799999994
 10
127.73533000000016
 20
-87.51011199999995
 10
127.55321200000016
 20
-87.62822199999994
 10
127.38608000000015
 20
-87.70721599999993
 10
127.21158200000015
 20
-87.76207999999994
 10
127.03276600000015
 20
-87.79230599999994
 10
126.94259600000015
 20
-87.79789399999994
 10
126.85242600000014
 20
-87.79713199999995
 10
126.76251000000015
 20
-87.79001999999994
 10
126.67310200000016
 20
-87.77655799999994
 10
126.58471000000014
 20
-87.75649199999994
 10
126.49784200000015
 20
-87.72982199999994
 10
126.41249800000016
 20
-87.69654799999995
 10
126.32918600000015
 20
-87.65666999999995
 10
125.79070600000016
 20
-87.34475799999994
 10
124.74676600000015
 20
-86.85072799999995
 10
122.43765200000014
 20
-86.02878399999994
 10
119.22633000000015
 20
-85.19845799999995
 10
120.10466200000015
 20
-86.09101399999994
 10
120.82272000000015
 20
-86.97315599999996
 10
121.39904600000015
 20
-87.83269199999995
 10
121.85269000000015
 20
-88.65692199999997
 10
122.46737000000016
 20
-90.14942599999995
 10
122.89967800000015
 20
-91.60738599999996
 10
123.01499400000016
 20
-91.87738799999995
 10
123.32258800000015
 20
-92.42399599999995
 10
123.69901600000017
 20
-92.92513799999995
 10
123.90018400000015
 20
-93.13824399999996
 10
124.10313000000015
 20
-93.31528199999995
 10
124.75819600000015
 20
-93.75978199999996
 10
125.44196400000016
 20
-94.12630399999995
 10
126.73914200000016
 20
-94.64573399999995
 10
126.86792000000017
 20
-94.68256399999994
 10
126.99771400000017
 20
-94.70821799999995
 10
127.12776200000017
 20
-94.72294999999994
 10
127.25730200000017
 20
-94.72701399999995
 10
127.38608000000018
 20
-94.72040999999994
 10
127.51333400000017
 20
-94.70339199999995
 10
127.63830200000017
 20
-94.67646799999994
 10
127.76047600000017
 20
-94.63963799999995
 10
127.87934800000018
 20
-94.59290199999995
 10
127.99415600000017
 20
-94.53676799999995
 10
128.1043920000002
 20
-94.47123599999995
 10
128.20954800000018
 20
-94.39681399999995
 10
128.30886200000018
 20
-94.31350199999996
 10
128.40182600000017
 20
-94.22129999999996
 10
128.4876780000002
 20
-94.12071599999994
 10
129.3177500000002
 20
-92.97415999999996
 10
130.76123200000018
 20
-91.32569999999994
 10
132.62737000000016
 20
-89.63786999999995
 10
133.69112200000018
 20
-88.86901199999996
 10
134.82726400000016
 20
-88.19794399999995
 10
135.52982800000015
 20
-87.85275799999997
 10
135.63117400000016
 20
-87.78519399999996
 10
135.72261400000014
 20
-87.70823199999995
 10
135.80389400000016
 20
-87.62314199999996
 10
135.87476000000015
 20
-87.53068599999997
 10
135.93495800000017
 20
-87.43187999999996
 10
135.98423400000013
 20
-87.32773999999996
 10
136.02208000000013
 20
-87.21953599999996
 10
136.04824200000013
 20
-87.10802999999996
 10
136.06246600000014
 20
-86.99423799999997
 10
136.06449800000016
 20
-86.87892199999996
 10
136.05383000000015
 20
-86.76335199999997
 10
136.03020800000016
 20
-86.64854399999996
 10
135.99337800000015
 20
-86.53525999999995
 10
135.94308600000016
 20
-86.42476999999995
 10
135.87907800000016
 20
-86.31783599999996
 10
135.78281200000018
 20
-86.18423199999995
 10
135.56234000000015
 20
-85.92286599999996
 10
135.31037200000017
 20
-85.67343799999995
 10
135.03275000000016
 20
-85.44001199999995
 10
134.73582400000018
 20
-85.22690599999996
 10
134.42569000000017
 20
-85.03869199999995
 10
134.10844400000016
 20
-84.87968799999996
 10
133.7904360000002
 20
-84.75421199999995
 10
133.63295600000018
 20
-84.70544399999996
  0
ENDSEC
  0
SECTION
  2
OBJECTS
  0
DICTIONARY
  5
A
330
0
100
AcDbDictionary
281
1
  3
ACAD_COLOR
350
B
  3
ACAD_GROUP
350
C
  3
ACAD_LAYOUT
350
D
  3
ACAD_MATERIAL
350
E
  3
ACAD_MLEADERSTYLE
350
F
  3
ACAD_MLINESTYLE
350
10
  3
ACAD_PLOTSETTINGS
350
11
  3
ACAD_PLOTSTYLENAME
350
12
  3
ACAD_SCALELIST
350
14
  3
ACAD_TABLESTYLE
350
15
  3
ACAD_VISUALSTYLE
350
16
  3
EZDXF_META
350
2D
  0
DICTIONARY
  5
B
330
A
100
AcDbDictionary
281
1
  0
DICTIONARY
  5
C
330
A
100
AcDbDictionary
281
1
  0
DICTIONARY
  5
D
330
A
100
AcDbDictionary
281
1
  3
Model
350
1A
  3
Layout1
350
1E
  0
DICTIONARY
  5
E
330
A
100
AcDbDictionary
281
1
  3
ByBlock
350
1F
  3
ByLayer
350
20
  3
Global
350
21
  0
DICTIONARY
  5
F
330
A
100
AcDbDictionary
281
1
  3
Standard
350
2C
  0
DICTIONARY
  5
10
330
A
100
AcDbDictionary
281
1
  3
Standard
350
22
  0
DICTIONARY
  5
11
330
A
100
AcDbDictionary
281
1
  0
ACDBDICTIONARYWDFLT
  5
12
330
A
100
AcDbDictionary
281
1
  3
Normal
350
13
100
AcDbDictionaryWithDefault
340
13
  0
ACDBPLACEHOLDER
  5
13
330
12
  0
DICTIONARY
  5
14
330
A
100
AcDbDictionary
281
1
  0
DICTIONARY
  5
15
330
A
100
AcDbDictionary
281
1
  0
DICTIONARY
  5
16
330
A
100
AcDbDictionary
281
1
  0
LAYOUT
  5
1A
330
D
100
AcDbPlotSettings
  1

  4
A3
  6

 40
7.5
 41
20.0
 42
7.5
 43
20.0
 44
420.0
 45
297.0
 46
0.0
 47
0.0
 48
0.0
 49
0.0
140
0.0
141
0.0
142
1.0
143
1.0
 70
1024
 72
1
 73
0
 74
5
  7

 75
16
 76
0
 77
2
 78
300
147
1.0
148
0.0
149
0.0
100
AcDbLayout
  1
Model
 70
1
 71
0
 10
0.0
 20
0.0
 11
420.0
 21
297.0
 12
0.0
 22
0.0
 32
0.0
 14
1e+20
 24
1e+20
 34
1e+20
 15
-1e+20
 25
-1e+20
 35
-1e+20
146
0.0
 13
0.0
 23
0.0
 33
0.0
 16
1.0
 26
0.0
 36
0.0
 17
0.0
 27
1.0
 37
0.0
 76
1
330
17
  0
LAYOUT
  5
1E
330
D
100
AcDbPlotSettings
  1

  4
A3
  6

 40
7.5
 41
20.0
 42
7.5
 43
20.0
 44
420.0
 45
297.0
 46
0.0
 47
0.0
 48
0.0
 49
0.0
140
0.0
141
0.0
142
1.0
143
1.0
 70
0
 72
1
 73
0
 74
5
  7

 75
16
 76
0
 77
2
 78
300
147
1.0
148
0.0
149
0.0
100
AcDbLayout
  1
Layout1
 70
1
 71
1
 10
0.0
 20
0.0
 11
420.0
 21
297.0
 12
0.0
 22
0.0
 32
0.0
 14
1e+20
 24
1e+20
 34
1e+20
 15
-1e+20
 25
-1e+20
 35
-1e+20
146
0.0
 13
0.0
 23
0.0
 33
0.0
 16
1.0
 26
0.0
 36
0.0
 17
0.0
 27
1.0
 37
0.0
 76
1
330
1B
  0
MATERIAL
  5
1F
102
{ACAD_REACTORS
330
E
102
}
330
E
100
AcDbMaterial
  1
ByBlock
  2

 70
0
 40
1.0
 71
1
 41
1.0
 91
-1023410177
 42
1.0
 72
1
  3

 73
1
 74
1
 75
1
 44
0.5
 73
0
 45
1.0
 46
1.0
 77
1
  4

 78
1
 79
1
170
1
 48
1.0
171
1
  6

172
1
173
1
174
1
140
1.0
141
1.0
175
1
  7

176
1
177
1
178
1
143
1.0
179
1
  8

270
1
271
1
272
1
145
1.0
146
1.0
273
1
  9

274
1
275
1
276
1
 42
1.0
 72
1
  3

 73
1
 74
1
 75
1
 94
63
  0
MATERIAL
  5
20
102
{ACAD_REACTORS
330
E
102
}
330
E
100
AcDbMaterial
  1
ByLayer
  2

 70
0
 40
1.0
 71
1
 41
1.0
 91
-1023410177
 42
1.0
 72
1
  3

 73
1
 74
1
 75
1
 44
0.5
 73
0
 45
1.0
 46
1.0
 77
1
  4

 78
1
 79
1
170
1
 48
1.0
171
1
  6

172
1
173
1
174
1
140
1.0
141
1.0
175
1
  7

176
1
177
1
178
1
143
1.0
179
1
  8

270
1
271
1
272
1
145
1.0
146
1.0
273
1
  9

274
1
275
1
276
1
 42
1.0
 72
1
  3

 73
1
 74
1
 75
1
 94
63
  0
MATERIAL
  5
21
102
{ACAD_REACTORS
330
E
102
}
330
E
100
AcDbMaterial
  1
Global
  2

 70
0
 40
1.0
 71
1
 41
1.0
 91
-1023410177
 42
1.0
 72
1
  3

 73
1
 74
1
 75
1
 44
0.5
 73
0
 45
1.0
 46
1.0
 77
1
  4

 78
1
 79
1
170
1
 48
1.0
171
1
  6

172
1
173
1
174
1
140
1.0
141
1.0
175
1
  7

176
1
177
1
178
1
143
1.0
179
1
  8

270
1
271
1
272
1
145
1.0
146
1.0
273
1
  9

274
1
275
1
276
1
 42
1.0
 72
1
  3

 73
1
 74
1
 75
1
 94
63
  0
MLINESTYLE
  5
22
102
{ACAD_REACTORS
330
10
102
}
330
10
100
AcDbMlineStyle
  2
Standard
 70
0
  3

 62
256
 51
90.0
 52
90.0
 71
2
 49
0.5
 62
256
  6
BYLAYER
 49
-0.5
 62
256
  6
BYLAYER
  0
MLEADERSTYLE
  5
2C
102
{ACAD_REACTORS
330
F
102
}
330
F
100
AcDbMLeaderStyle
179
2
170
2
171
1
172
0
 90
2
 40
0.0
 41
0.0
173
1
 91
-1056964608
 92
-2
290
1
 42
2.0
291
1
 43
8.0
  3
Standard
 44
4.0
300

342
29
174
1
175
1
176
0
178
1
 93
-1056964608
 45
4.0
292
0
297
0
 46
4.0
 94
-1056964608
 47
1.0
 49
1.0
140
1.0
294
1
141
0.0
177
0
142
1.0
295
0
296
0
143
3.75
271
0
272
9
273
9
  0
DICTIONARY
  5
2D
330
A
100
AcDbDictionary
280
1
281
1
  3
CREATED_BY_EZDXF
350
2E
  3
WRITTEN_BY_EZDXF
350
3E
  0
DICTIONARYVAR
  5
2E
330
2D
100
DictionaryVariables
280
0
  1
1.4.3 @ 2026-04-08T01:02:28.630608+00:00
  0
DICTIONARYVAR
  5
3E
330
2D
100
DictionaryVariables
280
0
  1
1.4.3 @ 2026-04-08T01:02:28.632259+00:00
  0
ENDSEC
  0
EOF
